0, 0, Header, 1, 1, 480
1, 0, Start_track
1, 0, Title_t, "Drumkit"
1, 0, Program_c, 9, 0
1, 0, Note_on_c, 9, 42, 80
1, 480, Note_off_c, 9, 42, 64
1, 990, Note_on_c, 9, 42, 80
1, 1470, Note_off_c, 9, 42, 64
1, 1920, Note_on_c, 9, 42, 80
1, 2400, Note_off_c, 9, 42, 64
1, 2400, Note_on_c, 9, 42, 80
1, 2880, Note_off_c, 9, 42, 64
1, 2880, Note_on_c, 9, 42, 80
1, 3120, Note_off_c, 9, 42, 64
1, 11520, Note_on_c, 9, 44, 80
1, 11520, Note_on_c, 9, 35, 80
1, 12000, Note_off_c, 9, 44, 64
1, 12000, Note_off_c, 9, 35, 64
1, 12000, Note_on_c, 9, 44, 80
1, 12000, Note_on_c, 9, 38, 80
1, 12480, Note_off_c, 9, 44, 64
1, 12480, Note_off_c, 9, 38, 64
1, 12480, Note_on_c, 9, 44, 80
1, 12480, Note_on_c, 9, 35, 80
1, 12960, Note_off_c, 9, 44, 64
1, 12960, Note_off_c, 9, 35, 64
1, 12960, Note_on_c, 9, 44, 80
1, 12960, Note_on_c, 9, 38, 80
1, 13200, Note_off_c, 9, 44, 64
1, 13200, Note_off_c, 9, 38, 64
1, 13440, Note_on_c, 9, 44, 80
1, 13440, Note_on_c, 9, 35, 80
1, 13920, Note_off_c, 9, 44, 64
1, 13920, Note_off_c, 9, 35, 64
1, 13920, Note_on_c, 9, 44, 80
1, 13920, Note_on_c, 9, 38, 80
1, 14400, Note_off_c, 9, 44, 64
1, 14400, Note_off_c, 9, 38, 64
1, 14400, Note_on_c, 9, 44, 80
1, 14400, Note_on_c, 9, 35, 80
1, 14880, Note_off_c, 9, 44, 64
1, 14880, Note_off_c, 9, 35, 64
1, 14880, Note_on_c, 9, 44, 80
1, 14880, Note_on_c, 9, 38, 80
1, 15120, Note_off_c, 9, 44, 64
1, 15120, Note_off_c, 9, 38, 64
1, 15360, Note_on_c, 9, 44, 80
1, 15360, Note_on_c, 9, 35, 80
1, 15840, Note_off_c, 9, 44, 64
1, 15840, Note_off_c, 9, 35, 64
1, 15840, Note_on_c, 9, 44, 80
1, 15840, Note_on_c, 9, 38, 80
1, 16320, Note_off_c, 9, 44, 64
1, 16320, Note_off_c, 9, 38, 64
1, 16320, Note_on_c, 9, 44, 80
1, 16320, Note_on_c, 9, 35, 80
1, 16800, Note_off_c, 9, 44, 64
1, 16800, Note_off_c, 9, 35, 64
1, 16800, Note_on_c, 9, 38, 80
1, 16800, Note_on_c, 9, 44, 80
1, 17040, Note_off_c, 9, 38, 64
1, 17040, Note_off_c, 9, 44, 64
1, 17040, Note_on_c, 9, 35, 80
1, 17040, Note_on_c, 9, 44, 80
1, 17280, Note_off_c, 9, 35, 64
1, 17280, Note_off_c, 9, 44, 64
1, 17280, Note_on_c, 9, 44, 80
1, 17280, Note_on_c, 9, 35, 80
1, 17760, Note_off_c, 9, 44, 64
1, 17760, Note_off_c, 9, 35, 64
1, 17760, Note_on_c, 9, 44, 80
1, 17760, Note_on_c, 9, 38, 80
1, 18240, Note_off_c, 9, 44, 64
1, 18240, Note_off_c, 9, 38, 64
1, 18240, Note_on_c, 9, 44, 80
1, 18240, Note_on_c, 9, 35, 80
1, 18720, Note_off_c, 9, 44, 64
1, 18720, Note_off_c, 9, 35, 64
1, 18720, Note_on_c, 9, 38, 80
1, 18720, Note_on_c, 9, 44, 80
1, 18960, Note_off_c, 9, 38, 64
1, 18960, Note_off_c, 9, 44, 64
1, 18960, Note_on_c, 9, 35, 80
1, 18960, Note_on_c, 9, 44, 80
1, 19200, Note_off_c, 9, 35, 64
1, 19200, Note_off_c, 9, 44, 64
1, 19200, Note_on_c, 9, 44, 80
1, 19200, Note_on_c, 9, 35, 80
1, 19680, Note_off_c, 9, 44, 64
1, 19680, Note_off_c, 9, 35, 64
1, 19680, Note_on_c, 9, 44, 80
1, 19680, Note_on_c, 9, 38, 80
1, 20160, Note_off_c, 9, 44, 64
1, 20160, Note_off_c, 9, 38, 64
1, 20160, Note_on_c, 9, 44, 80
1, 20160, Note_on_c, 9, 35, 80
1, 20640, Note_off_c, 9, 44, 64
1, 20640, Note_off_c, 9, 35, 64
1, 20640, Note_on_c, 9, 44, 80
1, 20640, Note_on_c, 9, 38, 80
1, 20880, Note_off_c, 9, 44, 64
1, 20880, Note_off_c, 9, 38, 64
1, 20880, Note_on_c, 9, 44, 80
1, 20880, Note_on_c, 9, 35, 80
1, 21120, Note_off_c, 9, 44, 64
1, 21120, Note_off_c, 9, 35, 64
1, 21120, Note_on_c, 9, 44, 80
1, 21120, Note_on_c, 9, 35, 80
1, 21600, Note_off_c, 9, 44, 64
1, 21600, Note_off_c, 9, 35, 64
1, 21600, Note_on_c, 9, 44, 80
1, 21600, Note_on_c, 9, 38, 80
1, 22080, Note_off_c, 9, 44, 64
1, 22080, Note_off_c, 9, 38, 64
1, 22080, Note_on_c, 9, 44, 80
1, 22080, Note_on_c, 9, 35, 80
1, 22560, Note_off_c, 9, 44, 64
1, 22560, Note_off_c, 9, 35, 64
1, 22560, Note_on_c, 9, 44, 80
1, 22560, Note_on_c, 9, 38, 80
1, 22800, Note_off_c, 9, 44, 64
1, 22800, Note_off_c, 9, 38, 64
1, 22800, Note_on_c, 9, 44, 80
1, 22800, Note_on_c, 9, 35, 80
1, 23040, Note_off_c, 9, 44, 64
1, 23040, Note_off_c, 9, 35, 64
1, 23040, Note_on_c, 9, 44, 80
1, 23040, Note_on_c, 9, 35, 80
1, 23520, Note_off_c, 9, 44, 64
1, 23520, Note_off_c, 9, 35, 64
1, 23520, Note_on_c, 9, 44, 80
1, 23520, Note_on_c, 9, 38, 80
1, 24000, Note_off_c, 9, 44, 64
1, 24000, Note_off_c, 9, 38, 64
1, 24000, Note_on_c, 9, 44, 80
1, 24000, Note_on_c, 9, 35, 80
1, 24480, Note_off_c, 9, 44, 64
1, 24480, Note_off_c, 9, 35, 64
1, 24480, Note_on_c, 9, 44, 80
1, 24480, Note_on_c, 9, 38, 80
1, 24720, Note_off_c, 9, 44, 64
1, 24720, Note_off_c, 9, 38, 64
1, 24720, Note_on_c, 9, 44, 80
1, 24720, Note_on_c, 9, 35, 80
1, 24960, Note_off_c, 9, 44, 64
1, 24960, Note_off_c, 9, 35, 64
1, 24960, Note_on_c, 9, 44, 80
1, 24960, Note_on_c, 9, 35, 80
1, 25440, Note_off_c, 9, 44, 64
1, 25440, Note_off_c, 9, 35, 64
1, 25440, Note_on_c, 9, 44, 80
1, 25440, Note_on_c, 9, 38, 80
1, 25920, Note_off_c, 9, 44, 64
1, 25920, Note_off_c, 9, 38, 64
1, 25920, Note_on_c, 9, 44, 80
1, 25920, Note_on_c, 9, 35, 80
1, 26400, Note_off_c, 9, 44, 64
1, 26400, Note_off_c, 9, 35, 64
1, 26400, Note_on_c, 9, 44, 80
1, 26400, Note_on_c, 9, 38, 80
1, 26640, Note_off_c, 9, 44, 64
1, 26640, Note_off_c, 9, 38, 64
1, 26640, Note_on_c, 9, 44, 80
1, 26640, Note_on_c, 9, 35, 80
1, 26880, Note_off_c, 9, 44, 64
1, 26880, Note_off_c, 9, 35, 64
1, 26880, Note_on_c, 9, 44, 80
1, 26880, Note_on_c, 9, 35, 80
1, 27360, Note_off_c, 9, 44, 64
1, 27360, Note_off_c, 9, 35, 64
1, 27360, Note_on_c, 9, 44, 80
1, 27360, Note_on_c, 9, 38, 80
1, 27840, Note_off_c, 9, 44, 64
1, 27840, Note_off_c, 9, 38, 64
1, 27840, Note_on_c, 9, 44, 80
1, 27840, Note_on_c, 9, 35, 80
1, 28320, Note_off_c, 9, 44, 64
1, 28320, Note_off_c, 9, 35, 64
1, 28320, Note_on_c, 9, 44, 80
1, 28320, Note_on_c, 9, 38, 80
1, 28560, Note_off_c, 9, 44, 64
1, 28560, Note_off_c, 9, 38, 64
1, 28560, Note_on_c, 9, 44, 80
1, 28560, Note_on_c, 9, 35, 80
1, 28800, Note_off_c, 9, 44, 64
1, 28800, Note_off_c, 9, 35, 64
1, 28800, Note_on_c, 9, 44, 80
1, 28800, Note_on_c, 9, 35, 80
1, 29280, Note_off_c, 9, 44, 64
1, 29280, Note_off_c, 9, 35, 64
1, 29280, Note_on_c, 9, 44, 80
1, 29280, Note_on_c, 9, 38, 80
1, 29760, Note_off_c, 9, 44, 64
1, 29760, Note_off_c, 9, 38, 64
1, 29760, Note_on_c, 9, 44, 80
1, 29760, Note_on_c, 9, 35, 80
1, 30240, Note_off_c, 9, 44, 64
1, 30240, Note_off_c, 9, 35, 64
1, 30240, Note_on_c, 9, 44, 80
1, 30240, Note_on_c, 9, 38, 80
1, 30480, Note_off_c, 9, 44, 64
1, 30480, Note_off_c, 9, 38, 64
1, 30480, Note_on_c, 9, 44, 80
1, 30480, Note_on_c, 9, 35, 80
1, 30720, Note_off_c, 9, 44, 64
1, 30720, Note_off_c, 9, 35, 64
1, 30720, Note_on_c, 9, 44, 80
1, 30720, Note_on_c, 9, 35, 80
1, 31200, Note_off_c, 9, 44, 64
1, 31200, Note_off_c, 9, 35, 64
1, 31200, Note_on_c, 9, 44, 80
1, 31200, Note_on_c, 9, 38, 80
1, 31680, Note_off_c, 9, 44, 64
1, 31680, Note_off_c, 9, 38, 64
1, 31680, Note_on_c, 9, 44, 80
1, 31680, Note_on_c, 9, 35, 80
1, 32160, Note_off_c, 9, 44, 64
1, 32160, Note_off_c, 9, 35, 64
1, 32160, Note_on_c, 9, 44, 80
1, 32160, Note_on_c, 9, 38, 80
1, 32400, Note_off_c, 9, 44, 64
1, 32400, Note_off_c, 9, 38, 64
1, 32400, Note_on_c, 9, 44, 80
1, 32400, Note_on_c, 9, 35, 80
1, 32640, Note_off_c, 9, 44, 64
1, 32640, Note_off_c, 9, 35, 64
1, 32640, Note_on_c, 9, 44, 80
1, 32640, Note_on_c, 9, 35, 80
1, 33120, Note_off_c, 9, 44, 64
1, 33120, Note_off_c, 9, 35, 64
1, 33120, Note_on_c, 9, 44, 80
1, 33120, Note_on_c, 9, 38, 80
1, 33600, Note_off_c, 9, 44, 64
1, 33600, Note_off_c, 9, 38, 64
1, 33600, Note_on_c, 9, 44, 80
1, 33600, Note_on_c, 9, 35, 80
1, 34080, Note_off_c, 9, 44, 64
1, 34080, Note_off_c, 9, 35, 64
1, 34080, Note_on_c, 9, 44, 80
1, 34080, Note_on_c, 9, 38, 80
1, 34320, Note_off_c, 9, 44, 64
1, 34320, Note_off_c, 9, 38, 64
1, 34320, Note_on_c, 9, 44, 80
1, 34320, Note_on_c, 9, 35, 80
1, 34560, Note_off_c, 9, 44, 64
1, 34560, Note_off_c, 9, 35, 64
1, 34560, Note_on_c, 9, 44, 80
1, 34560, Note_on_c, 9, 35, 80
1, 35040, Note_off_c, 9, 44, 64
1, 35040, Note_off_c, 9, 35, 64
1, 35040, Note_on_c, 9, 44, 80
1, 35040, Note_on_c, 9, 38, 80
1, 35520, Note_off_c, 9, 44, 64
1, 35520, Note_off_c, 9, 38, 64
1, 35520, Note_on_c, 9, 44, 80
1, 35520, Note_on_c, 9, 35, 80
1, 36000, Note_off_c, 9, 44, 64
1, 36000, Note_off_c, 9, 35, 64
1, 36000, Note_on_c, 9, 44, 80
1, 36000, Note_on_c, 9, 38, 80
1, 36240, Note_off_c, 9, 44, 64
1, 36240, Note_off_c, 9, 38, 64
1, 36240, Note_on_c, 9, 44, 80
1, 36240, Note_on_c, 9, 35, 80
1, 36480, Note_off_c, 9, 44, 64
1, 36480, Note_off_c, 9, 35, 64
1, 36480, Note_on_c, 9, 44, 80
1, 36480, Note_on_c, 9, 35, 80
1, 36960, Note_off_c, 9, 44, 64
1, 36960, Note_off_c, 9, 35, 64
1, 36960, Note_on_c, 9, 44, 80
1, 36960, Note_on_c, 9, 38, 80
1, 37440, Note_off_c, 9, 44, 64
1, 37440, Note_off_c, 9, 38, 64
1, 37440, Note_on_c, 9, 44, 80
1, 37440, Note_on_c, 9, 35, 80
1, 37920, Note_off_c, 9, 44, 64
1, 37920, Note_off_c, 9, 35, 64
1, 37920, Note_on_c, 9, 44, 80
1, 37920, Note_on_c, 9, 38, 80
1, 38160, Note_off_c, 9, 44, 64
1, 38160, Note_off_c, 9, 38, 64
1, 38160, Note_on_c, 9, 44, 80
1, 38160, Note_on_c, 9, 35, 80
1, 38400, Note_off_c, 9, 44, 64
1, 38400, Note_off_c, 9, 35, 64
1, 38400, Note_on_c, 9, 44, 80
1, 38400, Note_on_c, 9, 35, 80
1, 38880, Note_off_c, 9, 44, 64
1, 38880, Note_off_c, 9, 35, 64
1, 38880, Note_on_c, 9, 44, 80
1, 38880, Note_on_c, 9, 38, 80
1, 39360, Note_off_c, 9, 44, 64
1, 39360, Note_off_c, 9, 38, 64
1, 39360, Note_on_c, 9, 44, 80
1, 39360, Note_on_c, 9, 35, 80
1, 39840, Note_off_c, 9, 44, 64
1, 39840, Note_off_c, 9, 35, 64
1, 39840, Note_on_c, 9, 44, 80
1, 39840, Note_on_c, 9, 38, 80
1, 40080, Note_off_c, 9, 44, 64
1, 40080, Note_off_c, 9, 38, 64
1, 40080, Note_on_c, 9, 44, 80
1, 40080, Note_on_c, 9, 35, 80
1, 40320, Note_off_c, 9, 44, 64
1, 40320, Note_off_c, 9, 35, 64
1, 40320, Note_on_c, 9, 44, 80
1, 40320, Note_on_c, 9, 35, 80
1, 40800, Note_off_c, 9, 44, 64
1, 40800, Note_off_c, 9, 35, 64
1, 40800, Note_on_c, 9, 44, 80
1, 40800, Note_on_c, 9, 38, 80
1, 41280, Note_off_c, 9, 44, 64
1, 41280, Note_off_c, 9, 38, 64
1, 41280, Note_on_c, 9, 44, 80
1, 41280, Note_on_c, 9, 35, 80
1, 41760, Note_off_c, 9, 44, 64
1, 41760, Note_off_c, 9, 35, 64
1, 41760, Note_on_c, 9, 44, 80
1, 41760, Note_on_c, 9, 38, 80
1, 42000, Note_off_c, 9, 44, 64
1, 42000, Note_off_c, 9, 38, 64
1, 42000, Note_on_c, 9, 44, 80
1, 42000, Note_on_c, 9, 35, 80
1, 42240, Note_off_c, 9, 44, 64
1, 42240, Note_off_c, 9, 35, 64
1, 42240, Note_on_c, 9, 44, 80
1, 42240, Note_on_c, 9, 35, 80
1, 42720, Note_off_c, 9, 44, 64
1, 42720, Note_off_c, 9, 35, 64
1, 42720, Note_on_c, 9, 44, 80
1, 42720, Note_on_c, 9, 38, 80
1, 43200, Note_off_c, 9, 44, 64
1, 43200, Note_off_c, 9, 38, 64
1, 43200, Note_on_c, 9, 44, 80
1, 43200, Note_on_c, 9, 35, 80
1, 43680, Note_off_c, 9, 44, 64
1, 43680, Note_off_c, 9, 35, 64
1, 43680, Note_on_c, 9, 44, 80
1, 43680, Note_on_c, 9, 38, 80
1, 43920, Note_off_c, 9, 44, 64
1, 43920, Note_off_c, 9, 38, 64
1, 43920, Note_on_c, 9, 44, 80
1, 43920, Note_on_c, 9, 35, 80
1, 44160, Note_off_c, 9, 44, 64
1, 44160, Note_off_c, 9, 35, 64
1, 44160, Note_on_c, 9, 44, 80
1, 44160, Note_on_c, 9, 35, 80
1, 44640, Note_off_c, 9, 44, 64
1, 44640, Note_off_c, 9, 35, 64
1, 44640, Note_on_c, 9, 44, 80
1, 44640, Note_on_c, 9, 38, 80
1, 45120, Note_off_c, 9, 44, 64
1, 45120, Note_off_c, 9, 38, 64
1, 45120, Note_on_c, 9, 44, 80
1, 45120, Note_on_c, 9, 35, 80
1, 45600, Note_off_c, 9, 44, 64
1, 45600, Note_off_c, 9, 35, 64
1, 45600, Note_on_c, 9, 44, 80
1, 45600, Note_on_c, 9, 38, 80
1, 45840, Note_off_c, 9, 44, 64
1, 45840, Note_off_c, 9, 38, 64
1, 45840, Note_on_c, 9, 44, 80
1, 45840, Note_on_c, 9, 35, 80
1, 46080, Note_off_c, 9, 44, 64
1, 46080, Note_off_c, 9, 35, 64
1, 46080, Note_on_c, 9, 44, 80
1, 46080, Note_on_c, 9, 35, 80
1, 46560, Note_off_c, 9, 44, 64
1, 46560, Note_off_c, 9, 35, 64
1, 46560, Note_on_c, 9, 44, 80
1, 46560, Note_on_c, 9, 38, 80
1, 47040, Note_off_c, 9, 44, 64
1, 47040, Note_off_c, 9, 38, 64
1, 47040, Note_on_c, 9, 44, 80
1, 47040, Note_on_c, 9, 35, 80
1, 47520, Note_off_c, 9, 44, 64
1, 47520, Note_off_c, 9, 35, 64
1, 47520, Note_on_c, 9, 44, 80
1, 47520, Note_on_c, 9, 38, 80
1, 47760, Note_off_c, 9, 44, 64
1, 47760, Note_off_c, 9, 38, 64
1, 47760, Note_on_c, 9, 44, 80
1, 47760, Note_on_c, 9, 35, 80
1, 48000, Note_off_c, 9, 44, 64
1, 48000, Note_off_c, 9, 35, 64
1, 48000, Note_on_c, 9, 35, 80
1, 48000, Note_on_c, 9, 44, 80
1, 48240, Note_off_c, 9, 35, 64
1, 48240, Note_off_c, 9, 44, 64
1, 48240, Note_on_c, 9, 35, 80
1, 48240, Note_on_c, 9, 44, 80
1, 48480, Note_off_c, 9, 35, 64
1, 48480, Note_off_c, 9, 44, 64
1, 48480, Note_on_c, 9, 35, 80
1, 48480, Note_on_c, 9, 44, 80
1, 48720, Note_off_c, 9, 35, 64
1, 48720, Note_off_c, 9, 44, 64
1, 48720, Note_on_c, 9, 35, 80
1, 48720, Note_on_c, 9, 44, 80
1, 48960, Note_off_c, 9, 35, 64
1, 48960, Note_off_c, 9, 44, 64
1, 48960, Note_on_c, 9, 35, 80
1, 48960, Note_on_c, 9, 44, 80
1, 49200, Note_off_c, 9, 35, 64
1, 49200, Note_off_c, 9, 44, 64
1, 49200, Note_on_c, 9, 44, 80
1, 49200, Note_on_c, 9, 35, 80
1, 49440, Note_off_c, 9, 44, 64
1, 49440, Note_off_c, 9, 35, 64
1, 49440, Note_on_c, 9, 35, 80
1, 49440, Note_on_c, 9, 44, 80
1, 49680, Note_off_c, 9, 35, 64
1, 49680, Note_off_c, 9, 44, 64
1, 49680, Note_on_c, 9, 44, 80
1, 49680, Note_on_c, 9, 35, 80
1, 49920, Note_off_c, 9, 44, 64
1, 49920, Note_off_c, 9, 35, 64
1, 49920, Note_on_c, 9, 44, 80
1, 49920, Note_on_c, 9, 35, 80
1, 50160, Note_off_c, 9, 44, 64
1, 50160, Note_off_c, 9, 35, 64
1, 50160, Note_on_c, 9, 38, 80
1, 50160, Note_on_c, 9, 44, 80
1, 50160, Note_on_c, 9, 35, 80
1, 50400, Note_off_c, 9, 38, 64
1, 50400, Note_off_c, 9, 44, 64
1, 50400, Note_off_c, 9, 35, 64
1, 50400, Note_on_c, 9, 38, 80
1, 50400, Note_on_c, 9, 44, 80
1, 50400, Note_on_c, 9, 35, 80
1, 50640, Note_off_c, 9, 38, 64
1, 50640, Note_off_c, 9, 44, 64
1, 50640, Note_off_c, 9, 35, 64
1, 50640, Note_on_c, 9, 38, 80
1, 50640, Note_on_c, 9, 44, 80
1, 50640, Note_on_c, 9, 35, 80
1, 50880, Note_off_c, 9, 38, 64
1, 50880, Note_off_c, 9, 44, 64
1, 50880, Note_off_c, 9, 35, 64
1, 50880, Note_on_c, 9, 38, 80
1, 50880, Note_on_c, 9, 44, 80
1, 50880, Note_on_c, 9, 35, 80
1, 51120, Note_off_c, 9, 38, 64
1, 51120, Note_off_c, 9, 44, 64
1, 51120, Note_off_c, 9, 35, 64
1, 51120, Note_on_c, 9, 38, 80
1, 51120, Note_on_c, 9, 44, 80
1, 51120, Note_on_c, 9, 35, 80
1, 51360, Note_off_c, 9, 38, 64
1, 51360, Note_off_c, 9, 44, 64
1, 51360, Note_off_c, 9, 35, 64
1, 51360, Note_on_c, 9, 38, 80
1, 51360, Note_on_c, 9, 44, 80
1, 51360, Note_on_c, 9, 35, 80
1, 51600, Note_off_c, 9, 38, 64
1, 51600, Note_off_c, 9, 44, 64
1, 51600, Note_off_c, 9, 35, 64
1, 51600, Note_on_c, 9, 38, 80
1, 51600, Note_on_c, 9, 44, 80
1, 51600, Note_on_c, 9, 35, 80
1, 51840, Note_off_c, 9, 38, 64
1, 51840, Note_off_c, 9, 44, 64
1, 51840, Note_off_c, 9, 35, 64
1, 51840, Note_on_c, 9, 44, 80
1, 51840, Note_on_c, 9, 35, 80
1, 52320, Note_off_c, 9, 44, 64
1, 52320, Note_off_c, 9, 35, 64
1, 52320, Note_on_c, 9, 44, 80
1, 52320, Note_on_c, 9, 38, 80
1, 52800, Note_off_c, 9, 44, 64
1, 52800, Note_off_c, 9, 38, 64
1, 52800, Note_on_c, 9, 44, 80
1, 52800, Note_on_c, 9, 35, 80
1, 53280, Note_off_c, 9, 44, 64
1, 53280, Note_off_c, 9, 35, 64
1, 53280, Note_on_c, 9, 44, 80
1, 53280, Note_on_c, 9, 38, 80
1, 53760, Note_off_c, 9, 44, 64
1, 53760, Note_off_c, 9, 38, 64
1, 53760, Note_on_c, 9, 44, 80
1, 53760, Note_on_c, 9, 35, 80
1, 54240, Note_off_c, 9, 44, 64
1, 54240, Note_off_c, 9, 35, 64
1, 54240, Note_on_c, 9, 44, 80
1, 54240, Note_on_c, 9, 38, 80
1, 54720, Note_off_c, 9, 44, 64
1, 54720, Note_off_c, 9, 38, 64
1, 54720, Note_on_c, 9, 38, 80
1, 54720, Note_on_c, 9, 49, 80
1, 55200, Note_off_c, 9, 38, 64
1, 55200, Note_off_c, 9, 49, 64
1, 55200, Note_on_c, 9, 57, 80
1, 55200, Note_on_c, 9, 38, 80
1, 55680, Note_off_c, 9, 57, 64
1, 55680, Note_off_c, 9, 38, 64
1, 55680, Note_on_c, 9, 44, 80
1, 55680, Note_on_c, 9, 35, 80
1, 56160, Note_off_c, 9, 44, 64
1, 56160, Note_off_c, 9, 35, 64
1, 56160, Note_on_c, 9, 44, 80
1, 56160, Note_on_c, 9, 38, 80
1, 56640, Note_off_c, 9, 44, 64
1, 56640, Note_off_c, 9, 38, 64
1, 56640, Note_on_c, 9, 44, 80
1, 56640, Note_on_c, 9, 35, 80
1, 57120, Note_off_c, 9, 44, 64
1, 57120, Note_off_c, 9, 35, 64
1, 57120, Note_on_c, 9, 44, 80
1, 57120, Note_on_c, 9, 38, 80
1, 57600, Note_off_c, 9, 44, 64
1, 57600, Note_off_c, 9, 38, 64
1, 57600, Note_on_c, 9, 44, 80
1, 57600, Note_on_c, 9, 35, 80
1, 58080, Note_off_c, 9, 44, 64
1, 58080, Note_off_c, 9, 35, 64
1, 58080, Note_on_c, 9, 44, 80
1, 58080, Note_on_c, 9, 38, 80
1, 58560, Note_off_c, 9, 44, 64
1, 58560, Note_off_c, 9, 38, 64
1, 58560, Note_on_c, 9, 38, 80
1, 58560, Note_on_c, 9, 49, 80
1, 59040, Note_off_c, 9, 38, 64
1, 59040, Note_off_c, 9, 49, 64
1, 59040, Note_on_c, 9, 57, 80
1, 59040, Note_on_c, 9, 38, 80
1, 59520, Note_off_c, 9, 57, 64
1, 59520, Note_off_c, 9, 38, 64
1, 59520, Note_on_c, 9, 44, 80
1, 59520, Note_on_c, 9, 35, 80
1, 60000, Note_off_c, 9, 44, 64
1, 60000, Note_off_c, 9, 35, 64
1, 60000, Note_on_c, 9, 44, 80
1, 60000, Note_on_c, 9, 38, 80
1, 60480, Note_off_c, 9, 44, 64
1, 60480, Note_off_c, 9, 38, 64
1, 60480, Note_on_c, 9, 44, 80
1, 60480, Note_on_c, 9, 35, 80
1, 60960, Note_off_c, 9, 44, 64
1, 60960, Note_off_c, 9, 35, 64
1, 60960, Note_on_c, 9, 44, 80
1, 60960, Note_on_c, 9, 38, 80
1, 61440, Note_off_c, 9, 44, 64
1, 61440, Note_off_c, 9, 38, 64
1, 61440, Note_on_c, 9, 44, 80
1, 61440, Note_on_c, 9, 35, 80
1, 61920, Note_off_c, 9, 44, 64
1, 61920, Note_off_c, 9, 35, 64
1, 61920, Note_on_c, 9, 44, 80
1, 61920, Note_on_c, 9, 38, 80
1, 62400, Note_off_c, 9, 44, 64
1, 62400, Note_off_c, 9, 38, 64
1, 62400, Note_on_c, 9, 38, 80
1, 62400, Note_on_c, 9, 49, 80
1, 62880, Note_off_c, 9, 38, 64
1, 62880, Note_off_c, 9, 49, 64
1, 62880, Note_on_c, 9, 57, 80
1, 62880, Note_on_c, 9, 38, 80
1, 63360, Note_off_c, 9, 57, 64
1, 63360, Note_off_c, 9, 38, 64
1, 63360, Note_on_c, 9, 44, 80
1, 63360, Note_on_c, 9, 35, 80
1, 63840, Note_off_c, 9, 44, 64
1, 63840, Note_off_c, 9, 35, 64
1, 63840, Note_on_c, 9, 44, 80
1, 63840, Note_on_c, 9, 38, 80
1, 64320, Note_off_c, 9, 44, 64
1, 64320, Note_off_c, 9, 38, 64
1, 64320, Note_on_c, 9, 44, 80
1, 64320, Note_on_c, 9, 35, 80
1, 64800, Note_off_c, 9, 44, 64
1, 64800, Note_off_c, 9, 35, 64
1, 64800, Note_on_c, 9, 44, 80
1, 64800, Note_on_c, 9, 38, 80
1, 65280, Note_off_c, 9, 44, 64
1, 65280, Note_off_c, 9, 38, 64
1, 65280, Note_on_c, 9, 49, 80
1, 65280, Note_on_c, 9, 35, 80
1, 65760, Note_off_c, 9, 49, 64
1, 65760, Note_off_c, 9, 35, 64
1, 65760, Note_on_c, 9, 42, 80
1, 66240, Note_off_c, 9, 42, 64
1, 66240, Note_on_c, 9, 42, 80
1, 66720, Note_off_c, 9, 42, 64
1, 66720, Note_on_c, 9, 42, 80
1, 67200, Note_off_c, 9, 42, 64
1, 67200, Note_on_c, 9, 42, 80
1, 67680, Note_off_c, 9, 42, 64
1, 67680, Note_on_c, 9, 42, 80
1, 68160, Note_off_c, 9, 42, 64
1, 68160, Note_on_c, 9, 42, 80
1, 68400, Note_off_c, 9, 42, 64
1, 68400, Note_on_c, 9, 48, 80
1, 68640, Note_off_c, 9, 48, 64
1, 68640, Note_on_c, 9, 45, 80
1, 68640, Note_on_c, 9, 42, 80
1, 68880, Note_off_c, 9, 45, 64
1, 68880, Note_off_c, 9, 42, 64
1, 68880, Note_on_c, 9, 38, 80
1, 69120, Note_off_c, 9, 38, 64
1, 69120, Note_on_c, 9, 44, 80
1, 69120, Note_on_c, 9, 35, 80
1, 69600, Note_off_c, 9, 44, 64
1, 69600, Note_off_c, 9, 35, 64
1, 69600, Note_on_c, 9, 44, 80
1, 69600, Note_on_c, 9, 38, 80
1, 70080, Note_off_c, 9, 44, 64
1, 70080, Note_off_c, 9, 38, 64
1, 70080, Note_on_c, 9, 44, 80
1, 70080, Note_on_c, 9, 35, 80
1, 70560, Note_off_c, 9, 44, 64
1, 70560, Note_off_c, 9, 35, 64
1, 70560, Note_on_c, 9, 44, 80
1, 70560, Note_on_c, 9, 38, 80
1, 70800, Note_off_c, 9, 44, 64
1, 70800, Note_off_c, 9, 38, 64
1, 70800, Note_on_c, 9, 44, 80
1, 70800, Note_on_c, 9, 35, 80
1, 71040, Note_off_c, 9, 44, 64
1, 71040, Note_off_c, 9, 35, 64
1, 71040, Note_on_c, 9, 44, 80
1, 71040, Note_on_c, 9, 35, 80
1, 71520, Note_off_c, 9, 44, 64
1, 71520, Note_off_c, 9, 35, 64
1, 71520, Note_on_c, 9, 44, 80
1, 71520, Note_on_c, 9, 38, 80
1, 72000, Note_off_c, 9, 44, 64
1, 72000, Note_off_c, 9, 38, 64
1, 72000, Note_on_c, 9, 44, 80
1, 72000, Note_on_c, 9, 35, 80
1, 72480, Note_off_c, 9, 44, 64
1, 72480, Note_off_c, 9, 35, 64
1, 72480, Note_on_c, 9, 44, 80
1, 72480, Note_on_c, 9, 38, 80
1, 72720, Note_off_c, 9, 44, 64
1, 72720, Note_off_c, 9, 38, 64
1, 72720, Note_on_c, 9, 44, 80
1, 72720, Note_on_c, 9, 35, 80
1, 72960, Note_off_c, 9, 44, 64
1, 72960, Note_off_c, 9, 35, 64
1, 72960, Note_on_c, 9, 44, 80
1, 72960, Note_on_c, 9, 35, 80
1, 73440, Note_off_c, 9, 44, 64
1, 73440, Note_off_c, 9, 35, 64
1, 73440, Note_on_c, 9, 44, 80
1, 73440, Note_on_c, 9, 38, 80
1, 73920, Note_off_c, 9, 44, 64
1, 73920, Note_off_c, 9, 38, 64
1, 73920, Note_on_c, 9, 44, 80
1, 73920, Note_on_c, 9, 35, 80
1, 74400, Note_off_c, 9, 44, 64
1, 74400, Note_off_c, 9, 35, 64
1, 74400, Note_on_c, 9, 44, 80
1, 74400, Note_on_c, 9, 38, 80
1, 74640, Note_off_c, 9, 44, 64
1, 74640, Note_off_c, 9, 38, 64
1, 74640, Note_on_c, 9, 44, 80
1, 74640, Note_on_c, 9, 35, 80
1, 74880, Note_off_c, 9, 44, 64
1, 74880, Note_off_c, 9, 35, 64
1, 74880, Note_on_c, 9, 44, 80
1, 74880, Note_on_c, 9, 35, 80
1, 75360, Note_off_c, 9, 44, 64
1, 75360, Note_off_c, 9, 35, 64
1, 75360, Note_on_c, 9, 44, 80
1, 75360, Note_on_c, 9, 38, 80
1, 75840, Note_off_c, 9, 44, 64
1, 75840, Note_off_c, 9, 38, 64
1, 75840, Note_on_c, 9, 44, 80
1, 75840, Note_on_c, 9, 35, 80
1, 76320, Note_off_c, 9, 44, 64
1, 76320, Note_off_c, 9, 35, 64
1, 76320, Note_on_c, 9, 44, 80
1, 76320, Note_on_c, 9, 38, 80
1, 76560, Note_off_c, 9, 44, 64
1, 76560, Note_off_c, 9, 38, 64
1, 76560, Note_on_c, 9, 44, 80
1, 76560, Note_on_c, 9, 35, 80
1, 76800, Note_off_c, 9, 44, 64
1, 76800, Note_off_c, 9, 35, 64
1, 76800, Note_on_c, 9, 44, 80
1, 76800, Note_on_c, 9, 35, 80
1, 77280, Note_off_c, 9, 44, 64
1, 77280, Note_off_c, 9, 35, 64
1, 77280, Note_on_c, 9, 44, 80
1, 77280, Note_on_c, 9, 38, 80
1, 77760, Note_off_c, 9, 44, 64
1, 77760, Note_off_c, 9, 38, 64
1, 77760, Note_on_c, 9, 44, 80
1, 77760, Note_on_c, 9, 35, 80
1, 78240, Note_off_c, 9, 44, 64
1, 78240, Note_off_c, 9, 35, 64
1, 78240, Note_on_c, 9, 44, 80
1, 78240, Note_on_c, 9, 38, 80
1, 78480, Note_off_c, 9, 44, 64
1, 78480, Note_off_c, 9, 38, 64
1, 78480, Note_on_c, 9, 44, 80
1, 78480, Note_on_c, 9, 35, 80
1, 78720, Note_off_c, 9, 44, 64
1, 78720, Note_off_c, 9, 35, 64
1, 78720, Note_on_c, 9, 44, 80
1, 78720, Note_on_c, 9, 35, 80
1, 79200, Note_off_c, 9, 44, 64
1, 79200, Note_off_c, 9, 35, 64
1, 79200, Note_on_c, 9, 44, 80
1, 79200, Note_on_c, 9, 38, 80
1, 79680, Note_off_c, 9, 44, 64
1, 79680, Note_off_c, 9, 38, 64
1, 79680, Note_on_c, 9, 44, 80
1, 79680, Note_on_c, 9, 35, 80
1, 80160, Note_off_c, 9, 44, 64
1, 80160, Note_off_c, 9, 35, 64
1, 80160, Note_on_c, 9, 44, 80
1, 80160, Note_on_c, 9, 38, 80
1, 80400, Note_off_c, 9, 44, 64
1, 80400, Note_off_c, 9, 38, 64
1, 80400, Note_on_c, 9, 44, 80
1, 80400, Note_on_c, 9, 35, 80
1, 80640, Note_off_c, 9, 44, 64
1, 80640, Note_off_c, 9, 35, 64
1, 80640, Note_on_c, 9, 44, 80
1, 80640, Note_on_c, 9, 35, 80
1, 81120, Note_off_c, 9, 44, 64
1, 81120, Note_off_c, 9, 35, 64
1, 81120, Note_on_c, 9, 44, 80
1, 81120, Note_on_c, 9, 38, 80
1, 81600, Note_off_c, 9, 44, 64
1, 81600, Note_off_c, 9, 38, 64
1, 81600, Note_on_c, 9, 44, 80
1, 81600, Note_on_c, 9, 35, 80
1, 82080, Note_off_c, 9, 44, 64
1, 82080, Note_off_c, 9, 35, 64
1, 82080, Note_on_c, 9, 44, 80
1, 82080, Note_on_c, 9, 38, 80
1, 82320, Note_off_c, 9, 44, 64
1, 82320, Note_off_c, 9, 38, 64
1, 82320, Note_on_c, 9, 44, 80
1, 82320, Note_on_c, 9, 35, 80
1, 82560, Note_off_c, 9, 44, 64
1, 82560, Note_off_c, 9, 35, 64
1, 82560, Note_on_c, 9, 44, 80
1, 82560, Note_on_c, 9, 35, 80
1, 83040, Note_off_c, 9, 44, 64
1, 83040, Note_off_c, 9, 35, 64
1, 83040, Note_on_c, 9, 44, 80
1, 83040, Note_on_c, 9, 38, 80
1, 83520, Note_off_c, 9, 44, 64
1, 83520, Note_off_c, 9, 38, 64
1, 83520, Note_on_c, 9, 44, 80
1, 83520, Note_on_c, 9, 35, 80
1, 84000, Note_off_c, 9, 44, 64
1, 84000, Note_off_c, 9, 35, 64
1, 84000, Note_on_c, 9, 44, 80
1, 84000, Note_on_c, 9, 38, 80
1, 84240, Note_off_c, 9, 44, 64
1, 84240, Note_off_c, 9, 38, 64
1, 84240, Note_on_c, 9, 44, 80
1, 84240, Note_on_c, 9, 35, 80
1, 84480, Note_off_c, 9, 44, 64
1, 84480, Note_off_c, 9, 35, 64
1, 84480, Note_on_c, 9, 44, 80
1, 84480, Note_on_c, 9, 35, 80
1, 84960, Note_off_c, 9, 44, 64
1, 84960, Note_off_c, 9, 35, 64
1, 84960, Note_on_c, 9, 44, 80
1, 84960, Note_on_c, 9, 38, 80
1, 85440, Note_off_c, 9, 44, 64
1, 85440, Note_off_c, 9, 38, 64
1, 85440, Note_on_c, 9, 44, 80
1, 85440, Note_on_c, 9, 35, 80
1, 85920, Note_off_c, 9, 44, 64
1, 85920, Note_off_c, 9, 35, 64
1, 85920, Note_on_c, 9, 44, 80
1, 85920, Note_on_c, 9, 38, 80
1, 86160, Note_off_c, 9, 44, 64
1, 86160, Note_off_c, 9, 38, 64
1, 86160, Note_on_c, 9, 44, 80
1, 86160, Note_on_c, 9, 35, 80
1, 86400, Note_off_c, 9, 44, 64
1, 86400, Note_off_c, 9, 35, 64
1, 86400, Note_on_c, 9, 44, 80
1, 86400, Note_on_c, 9, 35, 80
1, 86880, Note_off_c, 9, 44, 64
1, 86880, Note_off_c, 9, 35, 64
1, 86880, Note_on_c, 9, 44, 80
1, 86880, Note_on_c, 9, 38, 80
1, 87360, Note_off_c, 9, 44, 64
1, 87360, Note_off_c, 9, 38, 64
1, 87360, Note_on_c, 9, 44, 80
1, 87360, Note_on_c, 9, 35, 80
1, 87840, Note_off_c, 9, 44, 64
1, 87840, Note_off_c, 9, 35, 64
1, 87840, Note_on_c, 9, 44, 80
1, 87840, Note_on_c, 9, 38, 80
1, 88080, Note_off_c, 9, 44, 64
1, 88080, Note_off_c, 9, 38, 64
1, 88080, Note_on_c, 9, 44, 80
1, 88080, Note_on_c, 9, 35, 80
1, 88320, Note_off_c, 9, 44, 64
1, 88320, Note_off_c, 9, 35, 64
1, 88320, Note_on_c, 9, 44, 80
1, 88320, Note_on_c, 9, 35, 80
1, 88800, Note_off_c, 9, 44, 64
1, 88800, Note_off_c, 9, 35, 64
1, 88800, Note_on_c, 9, 44, 80
1, 88800, Note_on_c, 9, 38, 80
1, 89280, Note_off_c, 9, 44, 64
1, 89280, Note_off_c, 9, 38, 64
1, 89280, Note_on_c, 9, 44, 80
1, 89280, Note_on_c, 9, 35, 80
1, 89760, Note_off_c, 9, 44, 64
1, 89760, Note_off_c, 9, 35, 64
1, 89760, Note_on_c, 9, 44, 80
1, 89760, Note_on_c, 9, 38, 80
1, 90000, Note_off_c, 9, 44, 64
1, 90000, Note_off_c, 9, 38, 64
1, 90000, Note_on_c, 9, 44, 80
1, 90000, Note_on_c, 9, 35, 80
1, 90240, Note_off_c, 9, 44, 64
1, 90240, Note_off_c, 9, 35, 64
1, 90240, Note_on_c, 9, 44, 80
1, 90240, Note_on_c, 9, 35, 80
1, 90720, Note_off_c, 9, 44, 64
1, 90720, Note_off_c, 9, 35, 64
1, 90720, Note_on_c, 9, 44, 80
1, 90720, Note_on_c, 9, 38, 80
1, 91200, Note_off_c, 9, 44, 64
1, 91200, Note_off_c, 9, 38, 64
1, 91200, Note_on_c, 9, 44, 80
1, 91200, Note_on_c, 9, 35, 80
1, 91680, Note_off_c, 9, 44, 64
1, 91680, Note_off_c, 9, 35, 64
1, 91680, Note_on_c, 9, 44, 80
1, 91680, Note_on_c, 9, 38, 80
1, 91920, Note_off_c, 9, 44, 64
1, 91920, Note_off_c, 9, 38, 64
1, 91920, Note_on_c, 9, 44, 80
1, 91920, Note_on_c, 9, 35, 80
1, 92160, Note_off_c, 9, 44, 64
1, 92160, Note_off_c, 9, 35, 64
1, 92160, Note_on_c, 9, 44, 80
1, 92160, Note_on_c, 9, 35, 80
1, 92640, Note_off_c, 9, 44, 64
1, 92640, Note_off_c, 9, 35, 64
1, 92640, Note_on_c, 9, 44, 80
1, 92640, Note_on_c, 9, 38, 80
1, 93120, Note_off_c, 9, 44, 64
1, 93120, Note_off_c, 9, 38, 64
1, 93120, Note_on_c, 9, 44, 80
1, 93120, Note_on_c, 9, 35, 80
1, 93600, Note_off_c, 9, 44, 64
1, 93600, Note_off_c, 9, 35, 64
1, 93600, Note_on_c, 9, 44, 80
1, 93600, Note_on_c, 9, 38, 80
1, 93840, Note_off_c, 9, 44, 64
1, 93840, Note_off_c, 9, 38, 64
1, 93840, Note_on_c, 9, 44, 80
1, 93840, Note_on_c, 9, 35, 80
1, 94080, Note_off_c, 9, 44, 64
1, 94080, Note_off_c, 9, 35, 64
1, 94080, Note_on_c, 9, 44, 80
1, 94080, Note_on_c, 9, 35, 80
1, 94560, Note_off_c, 9, 44, 64
1, 94560, Note_off_c, 9, 35, 64
1, 94560, Note_on_c, 9, 44, 80
1, 94560, Note_on_c, 9, 38, 80
1, 95040, Note_off_c, 9, 44, 64
1, 95040, Note_off_c, 9, 38, 64
1, 95040, Note_on_c, 9, 44, 80
1, 95040, Note_on_c, 9, 35, 80
1, 95520, Note_off_c, 9, 44, 64
1, 95520, Note_off_c, 9, 35, 64
1, 95520, Note_on_c, 9, 44, 80
1, 95520, Note_on_c, 9, 38, 80
1, 95760, Note_off_c, 9, 44, 64
1, 95760, Note_off_c, 9, 38, 64
1, 95760, Note_on_c, 9, 44, 80
1, 95760, Note_on_c, 9, 35, 80
1, 96000, Note_off_c, 9, 44, 64
1, 96000, Note_off_c, 9, 35, 64
1, 96000, Note_on_c, 9, 44, 80
1, 96000, Note_on_c, 9, 35, 80
1, 96480, Note_off_c, 9, 44, 64
1, 96480, Note_off_c, 9, 35, 64
1, 96480, Note_on_c, 9, 44, 80
1, 96480, Note_on_c, 9, 38, 80
1, 96960, Note_off_c, 9, 44, 64
1, 96960, Note_off_c, 9, 38, 64
1, 96960, Note_on_c, 9, 44, 80
1, 96960, Note_on_c, 9, 35, 80
1, 97440, Note_off_c, 9, 44, 64
1, 97440, Note_off_c, 9, 35, 64
1, 97440, Note_on_c, 9, 44, 80
1, 97440, Note_on_c, 9, 38, 80
1, 97680, Note_off_c, 9, 44, 64
1, 97680, Note_off_c, 9, 38, 64
1, 97680, Note_on_c, 9, 44, 80
1, 97680, Note_on_c, 9, 35, 80
1, 97920, Note_off_c, 9, 44, 64
1, 97920, Note_off_c, 9, 35, 64
1, 97920, Note_on_c, 9, 35, 80
1, 97920, Note_on_c, 9, 44, 80
1, 98160, Note_off_c, 9, 35, 64
1, 98160, Note_off_c, 9, 44, 64
1, 98160, Note_on_c, 9, 35, 80
1, 98160, Note_on_c, 9, 44, 80
1, 98400, Note_off_c, 9, 35, 64
1, 98400, Note_off_c, 9, 44, 64
1, 98400, Note_on_c, 9, 35, 80
1, 98400, Note_on_c, 9, 44, 80
1, 98640, Note_off_c, 9, 35, 64
1, 98640, Note_off_c, 9, 44, 64
1, 98640, Note_on_c, 9, 35, 80
1, 98640, Note_on_c, 9, 44, 80
1, 98880, Note_off_c, 9, 35, 64
1, 98880, Note_off_c, 9, 44, 64
1, 98880, Note_on_c, 9, 35, 80
1, 98880, Note_on_c, 9, 44, 80
1, 99120, Note_off_c, 9, 35, 64
1, 99120, Note_off_c, 9, 44, 64
1, 99120, Note_on_c, 9, 44, 80
1, 99120, Note_on_c, 9, 35, 80
1, 99360, Note_off_c, 9, 44, 64
1, 99360, Note_off_c, 9, 35, 64
1, 99360, Note_on_c, 9, 35, 80
1, 99360, Note_on_c, 9, 44, 80
1, 99600, Note_off_c, 9, 35, 64
1, 99600, Note_off_c, 9, 44, 64
1, 99600, Note_on_c, 9, 44, 80
1, 99600, Note_on_c, 9, 35, 80
1, 99840, Note_off_c, 9, 44, 64
1, 99840, Note_off_c, 9, 35, 64
1, 99840, Note_on_c, 9, 44, 80
1, 99840, Note_on_c, 9, 35, 80
1, 100080, Note_off_c, 9, 44, 64
1, 100080, Note_off_c, 9, 35, 64
1, 100080, Note_on_c, 9, 38, 80
1, 100080, Note_on_c, 9, 44, 80
1, 100080, Note_on_c, 9, 35, 80
1, 100320, Note_off_c, 9, 38, 64
1, 100320, Note_off_c, 9, 44, 64
1, 100320, Note_off_c, 9, 35, 64
1, 100320, Note_on_c, 9, 38, 80
1, 100320, Note_on_c, 9, 44, 80
1, 100320, Note_on_c, 9, 35, 80
1, 100560, Note_off_c, 9, 38, 64
1, 100560, Note_off_c, 9, 44, 64
1, 100560, Note_off_c, 9, 35, 64
1, 100560, Note_on_c, 9, 38, 80
1, 100560, Note_on_c, 9, 44, 80
1, 100560, Note_on_c, 9, 35, 80
1, 100800, Note_off_c, 9, 38, 64
1, 100800, Note_off_c, 9, 44, 64
1, 100800, Note_off_c, 9, 35, 64
1, 100800, Note_on_c, 9, 38, 80
1, 100800, Note_on_c, 9, 44, 80
1, 100800, Note_on_c, 9, 35, 80
1, 101040, Note_off_c, 9, 38, 64
1, 101040, Note_off_c, 9, 44, 64
1, 101040, Note_off_c, 9, 35, 64
1, 101040, Note_on_c, 9, 38, 80
1, 101040, Note_on_c, 9, 44, 80
1, 101040, Note_on_c, 9, 35, 80
1, 101280, Note_off_c, 9, 38, 64
1, 101280, Note_off_c, 9, 44, 64
1, 101280, Note_off_c, 9, 35, 64
1, 101280, Note_on_c, 9, 38, 80
1, 101280, Note_on_c, 9, 44, 80
1, 101280, Note_on_c, 9, 35, 80
1, 101520, Note_off_c, 9, 38, 64
1, 101520, Note_off_c, 9, 44, 64
1, 101520, Note_off_c, 9, 35, 64
1, 101520, Note_on_c, 9, 38, 80
1, 101520, Note_on_c, 9, 44, 80
1, 101520, Note_on_c, 9, 35, 80
1, 101760, Note_off_c, 9, 38, 64
1, 101760, Note_off_c, 9, 44, 64
1, 101760, Note_off_c, 9, 35, 64
1, 101760, Note_on_c, 9, 44, 80
1, 101760, Note_on_c, 9, 35, 80
1, 102240, Note_off_c, 9, 44, 64
1, 102240, Note_off_c, 9, 35, 64
1, 102240, Note_on_c, 9, 44, 80
1, 102240, Note_on_c, 9, 38, 80
1, 102720, Note_off_c, 9, 44, 64
1, 102720, Note_off_c, 9, 38, 64
1, 102720, Note_on_c, 9, 44, 80
1, 102720, Note_on_c, 9, 35, 80
1, 103200, Note_off_c, 9, 44, 64
1, 103200, Note_off_c, 9, 35, 64
1, 103200, Note_on_c, 9, 44, 80
1, 103200, Note_on_c, 9, 38, 80
1, 103680, Note_off_c, 9, 44, 64
1, 103680, Note_off_c, 9, 38, 64
1, 103680, Note_on_c, 9, 44, 80
1, 103680, Note_on_c, 9, 35, 80
1, 104160, Note_off_c, 9, 44, 64
1, 104160, Note_off_c, 9, 35, 64
1, 104160, Note_on_c, 9, 44, 80
1, 104160, Note_on_c, 9, 38, 80
1, 104640, Note_off_c, 9, 44, 64
1, 104640, Note_off_c, 9, 38, 64
1, 104640, Note_on_c, 9, 38, 80
1, 104640, Note_on_c, 9, 49, 80
1, 105120, Note_off_c, 9, 38, 64
1, 105120, Note_off_c, 9, 49, 64
1, 105120, Note_on_c, 9, 57, 80
1, 105120, Note_on_c, 9, 38, 80
1, 105600, Note_off_c, 9, 57, 64
1, 105600, Note_off_c, 9, 38, 64
1, 105600, Note_on_c, 9, 44, 80
1, 105600, Note_on_c, 9, 35, 80
1, 106080, Note_off_c, 9, 44, 64
1, 106080, Note_off_c, 9, 35, 64
1, 106080, Note_on_c, 9, 44, 80
1, 106080, Note_on_c, 9, 38, 80
1, 106560, Note_off_c, 9, 44, 64
1, 106560, Note_off_c, 9, 38, 64
1, 106560, Note_on_c, 9, 44, 80
1, 106560, Note_on_c, 9, 35, 80
1, 107040, Note_off_c, 9, 44, 64
1, 107040, Note_off_c, 9, 35, 64
1, 107040, Note_on_c, 9, 44, 80
1, 107040, Note_on_c, 9, 38, 80
1, 107520, Note_off_c, 9, 44, 64
1, 107520, Note_off_c, 9, 38, 64
1, 107520, Note_on_c, 9, 44, 80
1, 107520, Note_on_c, 9, 35, 80
1, 108000, Note_off_c, 9, 44, 64
1, 108000, Note_off_c, 9, 35, 64
1, 108000, Note_on_c, 9, 44, 80
1, 108000, Note_on_c, 9, 38, 80
1, 108480, Note_off_c, 9, 44, 64
1, 108480, Note_off_c, 9, 38, 64
1, 108480, Note_on_c, 9, 38, 80
1, 108480, Note_on_c, 9, 49, 80
1, 108960, Note_off_c, 9, 38, 64
1, 108960, Note_off_c, 9, 49, 64
1, 108960, Note_on_c, 9, 57, 80
1, 108960, Note_on_c, 9, 38, 80
1, 109440, Note_off_c, 9, 57, 64
1, 109440, Note_off_c, 9, 38, 64
1, 109440, Note_on_c, 9, 44, 80
1, 109440, Note_on_c, 9, 35, 80
1, 109920, Note_off_c, 9, 44, 64
1, 109920, Note_off_c, 9, 35, 64
1, 109920, Note_on_c, 9, 44, 80
1, 109920, Note_on_c, 9, 38, 80
1, 110400, Note_off_c, 9, 44, 64
1, 110400, Note_off_c, 9, 38, 64
1, 110400, Note_on_c, 9, 44, 80
1, 110400, Note_on_c, 9, 35, 80
1, 110880, Note_off_c, 9, 44, 64
1, 110880, Note_off_c, 9, 35, 64
1, 110880, Note_on_c, 9, 44, 80
1, 110880, Note_on_c, 9, 38, 80
1, 111360, Note_off_c, 9, 44, 64
1, 111360, Note_off_c, 9, 38, 64
1, 111360, Note_on_c, 9, 44, 80
1, 111360, Note_on_c, 9, 35, 80
1, 111840, Note_off_c, 9, 44, 64
1, 111840, Note_off_c, 9, 35, 64
1, 111840, Note_on_c, 9, 44, 80
1, 111840, Note_on_c, 9, 38, 80
1, 112320, Note_off_c, 9, 44, 64
1, 112320, Note_off_c, 9, 38, 64
1, 112320, Note_on_c, 9, 38, 80
1, 112320, Note_on_c, 9, 49, 80
1, 112800, Note_off_c, 9, 38, 64
1, 112800, Note_off_c, 9, 49, 64
1, 112800, Note_on_c, 9, 57, 80
1, 112800, Note_on_c, 9, 38, 80
1, 113280, Note_off_c, 9, 57, 64
1, 113280, Note_off_c, 9, 38, 64
1, 113280, Note_on_c, 9, 44, 80
1, 113280, Note_on_c, 9, 35, 80
1, 113760, Note_off_c, 9, 44, 64
1, 113760, Note_off_c, 9, 35, 64
1, 113760, Note_on_c, 9, 44, 80
1, 113760, Note_on_c, 9, 38, 80
1, 114240, Note_off_c, 9, 44, 64
1, 114240, Note_off_c, 9, 38, 64
1, 114240, Note_on_c, 9, 44, 80
1, 114240, Note_on_c, 9, 35, 80
1, 114720, Note_off_c, 9, 44, 64
1, 114720, Note_off_c, 9, 35, 64
1, 114720, Note_on_c, 9, 44, 80
1, 114720, Note_on_c, 9, 38, 80
1, 115200, Note_off_c, 9, 44, 64
1, 115200, Note_off_c, 9, 38, 64
1, 115200, Note_on_c, 9, 49, 80
1, 115200, Note_on_c, 9, 35, 80
1, 115680, Note_off_c, 9, 49, 64
1, 115680, Note_off_c, 9, 35, 64
1, 117120, Note_on_c, 9, 57, 80
1, 117120, Note_on_c, 9, 35, 80
1, 117360, Note_off_c, 9, 57, 64
1, 117360, Note_off_c, 9, 35, 64
1, 117360, Note_on_c, 9, 38, 80
1, 117600, Note_off_c, 9, 38, 64
1, 117600, Note_on_c, 9, 38, 80
1, 117840, Note_off_c, 9, 38, 64
1, 117840, Note_on_c, 9, 57, 80
1, 117840, Note_on_c, 9, 35, 80
1, 118080, Note_off_c, 9, 57, 64
1, 118080, Note_off_c, 9, 35, 64
1, 118080, Note_on_c, 9, 38, 80
1, 118320, Note_off_c, 9, 38, 64
1, 118320, Note_on_c, 9, 38, 80
1, 118560, Note_off_c, 9, 38, 64
1, 118560, Note_on_c, 9, 57, 80
1, 118560, Note_on_c, 9, 35, 80
1, 118800, Note_off_c, 9, 57, 64
1, 118800, Note_off_c, 9, 35, 64
1, 119040, Note_on_c, 9, 42, 80
1, 119280, Note_off_c, 9, 42, 64
1, 119520, Note_on_c, 9, 42, 80
1, 119760, Note_off_c, 9, 42, 64
1, 120000, Note_on_c, 9, 42, 80
1, 120240, Note_off_c, 9, 42, 64
1, 120480, Note_on_c, 9, 42, 80
1, 120720, Note_off_c, 9, 42, 64
1, 120960, Note_on_c, 9, 57, 80
1, 120960, Note_on_c, 9, 35, 80
1, 121200, Note_off_c, 9, 57, 64
1, 121200, Note_off_c, 9, 35, 64
1, 121200, Note_on_c, 9, 38, 80
1, 121440, Note_off_c, 9, 38, 64
1, 121440, Note_on_c, 9, 38, 80
1, 121680, Note_off_c, 9, 38, 64
1, 121680, Note_on_c, 9, 57, 80
1, 121680, Note_on_c, 9, 35, 80
1, 121920, Note_off_c, 9, 57, 64
1, 121920, Note_off_c, 9, 35, 64
1, 121920, Note_on_c, 9, 38, 80
1, 122160, Note_off_c, 9, 38, 64
1, 122160, Note_on_c, 9, 38, 80
1, 122400, Note_off_c, 9, 38, 64
1, 122400, Note_on_c, 9, 57, 80
1, 122400, Note_on_c, 9, 35, 80
1, 122640, Note_off_c, 9, 57, 64
1, 122640, Note_off_c, 9, 35, 64
1, 122640, Note_on_c, 9, 38, 80
1, 122880, Note_off_c, 9, 38, 64
1, 122880, Note_on_c, 9, 57, 80
1, 122880, Note_on_c, 9, 35, 80
1, 123120, Note_off_c, 9, 57, 64
1, 123120, Note_off_c, 9, 35, 64
1, 123120, Note_on_c, 9, 38, 80
1, 123360, Note_off_c, 9, 38, 64
1, 123360, Note_on_c, 9, 38, 80
1, 123600, Note_off_c, 9, 38, 64
1, 123600, Note_on_c, 9, 59, 80
1, 123600, Note_on_c, 9, 35, 80
1, 123840, Note_off_c, 9, 59, 64
1, 123840, Note_off_c, 9, 35, 64
1, 123840, Note_on_c, 9, 57, 80
1, 123840, Note_on_c, 9, 35, 80
1, 124080, Note_off_c, 9, 57, 64
1, 124080, Note_off_c, 9, 35, 64
1, 124080, Note_on_c, 9, 38, 80
1, 124320, Note_off_c, 9, 38, 64
1, 124320, Note_on_c, 9, 57, 80
1, 124320, Note_on_c, 9, 35, 80
1, 124560, Note_off_c, 9, 57, 64
1, 124560, Note_off_c, 9, 35, 64
1, 124560, Note_on_c, 9, 38, 80
1, 124800, Note_off_c, 9, 38, 64
1, 124800, Note_on_c, 9, 44, 80
1, 124800, Note_on_c, 9, 35, 80
1, 125280, Note_off_c, 9, 44, 64
1, 125280, Note_off_c, 9, 35, 64
1, 125280, Note_on_c, 9, 44, 80
1, 125280, Note_on_c, 9, 38, 80
1, 125760, Note_off_c, 9, 44, 64
1, 125760, Note_off_c, 9, 38, 64
1, 125760, Note_on_c, 9, 44, 80
1, 125760, Note_on_c, 9, 35, 80
1, 126240, Note_off_c, 9, 44, 64
1, 126240, Note_off_c, 9, 35, 64
1, 126240, Note_on_c, 9, 44, 80
1, 126240, Note_on_c, 9, 38, 80
1, 126720, Note_off_c, 9, 44, 64
1, 126720, Note_off_c, 9, 38, 64
1, 126720, Note_on_c, 9, 44, 80
1, 126720, Note_on_c, 9, 35, 80
1, 127200, Note_off_c, 9, 44, 64
1, 127200, Note_off_c, 9, 35, 64
1, 127200, Note_on_c, 9, 44, 80
1, 127200, Note_on_c, 9, 38, 80
1, 127680, Note_off_c, 9, 44, 64
1, 127680, Note_off_c, 9, 38, 64
1, 127680, Note_on_c, 9, 38, 80
1, 127680, Note_on_c, 9, 49, 80
1, 128160, Note_off_c, 9, 38, 64
1, 128160, Note_off_c, 9, 49, 64
1, 128160, Note_on_c, 9, 57, 80
1, 128160, Note_on_c, 9, 38, 80
1, 128640, Note_off_c, 9, 57, 64
1, 128640, Note_off_c, 9, 38, 64
1, 128640, Note_on_c, 9, 44, 80
1, 128640, Note_on_c, 9, 35, 80
1, 129120, Note_off_c, 9, 44, 64
1, 129120, Note_off_c, 9, 35, 64
1, 129120, Note_on_c, 9, 44, 80
1, 129120, Note_on_c, 9, 38, 80
1, 129600, Note_off_c, 9, 44, 64
1, 129600, Note_off_c, 9, 38, 64
1, 129600, Note_on_c, 9, 44, 80
1, 129600, Note_on_c, 9, 35, 80
1, 130080, Note_off_c, 9, 44, 64
1, 130080, Note_off_c, 9, 35, 64
1, 130080, Note_on_c, 9, 44, 80
1, 130080, Note_on_c, 9, 38, 80
1, 130560, Note_off_c, 9, 44, 64
1, 130560, Note_off_c, 9, 38, 64
1, 130560, Note_on_c, 9, 44, 80
1, 130560, Note_on_c, 9, 35, 80
1, 131040, Note_off_c, 9, 44, 64
1, 131040, Note_off_c, 9, 35, 64
1, 131040, Note_on_c, 9, 44, 80
1, 131040, Note_on_c, 9, 38, 80
1, 131520, Note_off_c, 9, 44, 64
1, 131520, Note_off_c, 9, 38, 64
1, 131520, Note_on_c, 9, 38, 80
1, 131520, Note_on_c, 9, 49, 80
1, 132000, Note_off_c, 9, 38, 64
1, 132000, Note_off_c, 9, 49, 64
1, 132000, Note_on_c, 9, 57, 80
1, 132000, Note_on_c, 9, 38, 80
1, 132480, Note_off_c, 9, 57, 64
1, 132480, Note_off_c, 9, 38, 64
1, 132480, Note_on_c, 9, 44, 80
1, 132480, Note_on_c, 9, 35, 80
1, 132960, Note_off_c, 9, 44, 64
1, 132960, Note_off_c, 9, 35, 64
1, 132960, Note_on_c, 9, 44, 80
1, 132960, Note_on_c, 9, 38, 80
1, 133440, Note_off_c, 9, 44, 64
1, 133440, Note_off_c, 9, 38, 64
1, 133440, Note_on_c, 9, 44, 80
1, 133440, Note_on_c, 9, 35, 80
1, 133920, Note_off_c, 9, 44, 64
1, 133920, Note_off_c, 9, 35, 64
1, 133920, Note_on_c, 9, 44, 80
1, 133920, Note_on_c, 9, 38, 80
1, 134400, Note_off_c, 9, 44, 64
1, 134400, Note_off_c, 9, 38, 64
1, 134400, Note_on_c, 9, 44, 80
1, 134400, Note_on_c, 9, 35, 80
1, 134880, Note_off_c, 9, 44, 64
1, 134880, Note_off_c, 9, 35, 64
1, 134880, Note_on_c, 9, 44, 80
1, 134880, Note_on_c, 9, 38, 80
1, 135360, Note_off_c, 9, 44, 64
1, 135360, Note_off_c, 9, 38, 64
1, 135360, Note_on_c, 9, 38, 80
1, 135360, Note_on_c, 9, 49, 80
1, 135840, Note_off_c, 9, 38, 64
1, 135840, Note_off_c, 9, 49, 64
1, 135840, Note_on_c, 9, 57, 80
1, 135840, Note_on_c, 9, 38, 80
1, 136320, Note_off_c, 9, 57, 64
1, 136320, Note_off_c, 9, 38, 64
1, 136320, Note_on_c, 9, 44, 80
1, 136320, Note_on_c, 9, 35, 80
1, 136800, Note_off_c, 9, 44, 64
1, 136800, Note_off_c, 9, 35, 64
1, 136800, Note_on_c, 9, 44, 80
1, 136800, Note_on_c, 9, 38, 80
1, 137280, Note_off_c, 9, 44, 64
1, 137280, Note_off_c, 9, 38, 64
1, 137280, Note_on_c, 9, 44, 80
1, 137280, Note_on_c, 9, 35, 80
1, 137760, Note_off_c, 9, 44, 64
1, 137760, Note_off_c, 9, 35, 64
1, 137760, Note_on_c, 9, 44, 80
1, 137760, Note_on_c, 9, 38, 80
1, 138240, Note_off_c, 9, 44, 64
1, 138240, Note_off_c, 9, 38, 64
1, 138240, Note_on_c, 9, 44, 80
1, 138240, Note_on_c, 9, 35, 80
1, 138720, Note_off_c, 9, 44, 64
1, 138720, Note_off_c, 9, 35, 64
1, 138720, Note_on_c, 9, 44, 80
1, 138720, Note_on_c, 9, 38, 80
1, 139200, Note_off_c, 9, 44, 64
1, 139200, Note_off_c, 9, 38, 64
1, 139200, Note_on_c, 9, 38, 80
1, 139200, Note_on_c, 9, 49, 80
1, 139680, Note_off_c, 9, 38, 64
1, 139680, Note_off_c, 9, 49, 64
1, 139680, Note_on_c, 9, 57, 80
1, 139680, Note_on_c, 9, 38, 80
1, 140160, Note_off_c, 9, 57, 64
1, 140160, Note_off_c, 9, 38, 64
1, 140160, Note_on_c, 9, 44, 80
1, 140160, Note_on_c, 9, 35, 80
1, 140640, Note_off_c, 9, 44, 64
1, 140640, Note_off_c, 9, 35, 64
1, 140640, Note_on_c, 9, 44, 80
1, 140640, Note_on_c, 9, 38, 80
1, 141120, Note_off_c, 9, 44, 64
1, 141120, Note_off_c, 9, 38, 64
1, 141120, Note_on_c, 9, 44, 80
1, 141120, Note_on_c, 9, 35, 80
1, 141600, Note_off_c, 9, 44, 64
1, 141600, Note_off_c, 9, 35, 64
1, 141600, Note_on_c, 9, 44, 80
1, 141600, Note_on_c, 9, 38, 80
1, 142080, Note_off_c, 9, 44, 64
1, 142080, Note_off_c, 9, 38, 64
1, 142080, Note_on_c, 9, 44, 80
1, 142080, Note_on_c, 9, 35, 80
1, 142560, Note_off_c, 9, 44, 64
1, 142560, Note_off_c, 9, 35, 64
1, 142560, Note_on_c, 9, 44, 80
1, 142560, Note_on_c, 9, 38, 80
1, 143040, Note_off_c, 9, 44, 64
1, 143040, Note_off_c, 9, 38, 64
1, 143040, Note_on_c, 9, 38, 80
1, 143040, Note_on_c, 9, 49, 80
1, 143520, Note_off_c, 9, 38, 64
1, 143520, Note_off_c, 9, 49, 64
1, 143520, Note_on_c, 9, 57, 80
1, 143520, Note_on_c, 9, 38, 80
1, 144000, Note_off_c, 9, 57, 64
1, 144000, Note_off_c, 9, 38, 64
1, 144000, Note_on_c, 9, 44, 80
1, 144000, Note_on_c, 9, 35, 80
1, 144480, Note_off_c, 9, 44, 64
1, 144480, Note_off_c, 9, 35, 64
1, 144480, Note_on_c, 9, 44, 80
1, 144480, Note_on_c, 9, 38, 80
1, 144960, Note_off_c, 9, 44, 64
1, 144960, Note_off_c, 9, 38, 64
1, 144960, Note_on_c, 9, 44, 80
1, 144960, Note_on_c, 9, 35, 80
1, 145440, Note_off_c, 9, 44, 64
1, 145440, Note_off_c, 9, 35, 64
1, 145440, Note_on_c, 9, 44, 80
1, 145440, Note_on_c, 9, 38, 80
1, 145920, Note_off_c, 9, 44, 64
1, 145920, Note_off_c, 9, 38, 64
1, 145920, Note_on_c, 9, 44, 80
1, 145920, Note_on_c, 9, 35, 80
1, 146400, Note_off_c, 9, 44, 64
1, 146400, Note_off_c, 9, 35, 64
1, 146400, Note_on_c, 9, 44, 80
1, 146400, Note_on_c, 9, 38, 80
1, 146880, Note_off_c, 9, 44, 64
1, 146880, Note_off_c, 9, 38, 64
1, 146880, Note_on_c, 9, 38, 80
1, 146880, Note_on_c, 9, 49, 80
1, 147360, Note_off_c, 9, 38, 64
1, 147360, Note_off_c, 9, 49, 64
1, 147360, Note_on_c, 9, 57, 80
1, 147360, Note_on_c, 9, 38, 80
1, 147840, Note_off_c, 9, 57, 64
1, 147840, Note_off_c, 9, 38, 64
1, 147840, Note_on_c, 9, 44, 80
1, 147840, Note_on_c, 9, 35, 80
1, 148320, Note_off_c, 9, 44, 64
1, 148320, Note_off_c, 9, 35, 64
1, 148320, Note_on_c, 9, 44, 80
1, 148320, Note_on_c, 9, 38, 80
1, 148800, Note_off_c, 9, 44, 64
1, 148800, Note_off_c, 9, 38, 64
1, 148800, Note_on_c, 9, 44, 80
1, 148800, Note_on_c, 9, 35, 80
1, 149280, Note_off_c, 9, 44, 64
1, 149280, Note_off_c, 9, 35, 64
1, 149280, Note_on_c, 9, 44, 80
1, 149280, Note_on_c, 9, 38, 80
1, 149760, Note_off_c, 9, 44, 64
1, 149760, Note_off_c, 9, 38, 64
1, 149760, Note_on_c, 9, 44, 80
1, 149760, Note_on_c, 9, 35, 80
1, 150240, Note_off_c, 9, 44, 64
1, 150240, Note_off_c, 9, 35, 64
1, 150240, Note_on_c, 9, 44, 80
1, 150240, Note_on_c, 9, 38, 80
1, 150720, Note_off_c, 9, 44, 64
1, 150720, Note_off_c, 9, 38, 64
1, 150720, Note_on_c, 9, 38, 80
1, 150720, Note_on_c, 9, 49, 80
1, 151200, Note_off_c, 9, 38, 64
1, 151200, Note_off_c, 9, 49, 64
1, 151200, Note_on_c, 9, 57, 80
1, 151200, Note_on_c, 9, 38, 80
1, 151680, Note_off_c, 9, 57, 64
1, 151680, Note_off_c, 9, 38, 64
1, 151680, Note_on_c, 9, 44, 80
1, 151680, Note_on_c, 9, 35, 80
1, 152160, Note_off_c, 9, 44, 64
1, 152160, Note_off_c, 9, 35, 64
1, 152160, Note_on_c, 9, 44, 80
1, 152160, Note_on_c, 9, 38, 80
1, 152640, Note_off_c, 9, 44, 64
1, 152640, Note_off_c, 9, 38, 64
1, 152640, Note_on_c, 9, 44, 80
1, 152640, Note_on_c, 9, 35, 80
1, 153120, Note_off_c, 9, 44, 64
1, 153120, Note_off_c, 9, 35, 64
1, 153120, Note_on_c, 9, 44, 80
1, 153120, Note_on_c, 9, 38, 80
1, 153600, Note_off_c, 9, 44, 64
1, 153600, Note_off_c, 9, 38, 64
1, 154560, Note_on_c, 9, 38, 80
1, 154560, Note_on_c, 9, 49, 80
1, 155040, Note_off_c, 9, 38, 64
1, 155040, Note_off_c, 9, 49, 64
1, 155040, Note_on_c, 9, 57, 80
1, 155040, Note_on_c, 9, 38, 80
1, 155520, Note_off_c, 9, 57, 64
1, 155520, Note_off_c, 9, 38, 64
1, 155520, Note_on_c, 9, 44, 80
1, 155520, Note_on_c, 9, 35, 80
1, 156000, Note_off_c, 9, 44, 64
1, 156000, Note_off_c, 9, 35, 64
1, 156000, Note_on_c, 9, 44, 80
1, 156000, Note_on_c, 9, 38, 80
1, 156480, Note_off_c, 9, 44, 64
1, 156480, Note_off_c, 9, 38, 64
1, 156480, Note_on_c, 9, 44, 80
1, 156480, Note_on_c, 9, 35, 80
1, 156960, Note_off_c, 9, 44, 64
1, 156960, Note_off_c, 9, 35, 64
1, 156960, Note_on_c, 9, 44, 80
1, 156960, Note_on_c, 9, 38, 80
1, 157440, Note_off_c, 9, 44, 64
1, 157440, Note_off_c, 9, 38, 64
1, 157440, Note_on_c, 9, 44, 80
1, 157440, Note_on_c, 9, 35, 80
1, 157920, Note_off_c, 9, 44, 64
1, 157920, Note_off_c, 9, 35, 64
1, 157920, Note_on_c, 9, 44, 80
1, 157920, Note_on_c, 9, 38, 80
1, 158400, Note_off_c, 9, 44, 64
1, 158400, Note_off_c, 9, 38, 64
1, 158400, Note_on_c, 9, 38, 80
1, 158400, Note_on_c, 9, 49, 80
1, 158880, Note_off_c, 9, 38, 64
1, 158880, Note_off_c, 9, 49, 64
1, 158880, Note_on_c, 9, 57, 80
1, 158880, Note_on_c, 9, 38, 80
1, 159360, Note_off_c, 9, 57, 64
1, 159360, Note_off_c, 9, 38, 64
1, 159360, Note_on_c, 9, 44, 80
1, 159360, Note_on_c, 9, 35, 80
1, 159840, Note_off_c, 9, 44, 64
1, 159840, Note_off_c, 9, 35, 64
1, 159840, Note_on_c, 9, 44, 80
1, 159840, Note_on_c, 9, 38, 80
1, 160320, Note_off_c, 9, 44, 64
1, 160320, Note_off_c, 9, 38, 64
1, 160320, Note_on_c, 9, 44, 80
1, 160320, Note_on_c, 9, 35, 80
1, 160800, Note_off_c, 9, 44, 64
1, 160800, Note_off_c, 9, 35, 64
1, 160800, Note_on_c, 9, 44, 80
1, 160800, Note_on_c, 9, 38, 80
1, 161280, Note_off_c, 9, 44, 64
1, 161280, Note_off_c, 9, 38, 64
1, 161280, Note_on_c, 9, 44, 80
1, 161280, Note_on_c, 9, 35, 80
1, 161760, Note_off_c, 9, 44, 64
1, 161760, Note_off_c, 9, 35, 64
1, 161760, Note_on_c, 9, 44, 80
1, 161760, Note_on_c, 9, 38, 80
1, 162240, Note_off_c, 9, 44, 64
1, 162240, Note_off_c, 9, 38, 64
1, 162240, Note_on_c, 9, 38, 80
1, 162240, Note_on_c, 9, 49, 80
1, 162720, Note_off_c, 9, 38, 64
1, 162720, Note_off_c, 9, 49, 64
1, 162720, Note_on_c, 9, 57, 80
1, 162720, Note_on_c, 9, 38, 80
1, 163200, Note_off_c, 9, 57, 64
1, 163200, Note_off_c, 9, 38, 64
1, 163200, Note_on_c, 9, 44, 80
1, 163200, Note_on_c, 9, 35, 80
1, 163680, Note_off_c, 9, 44, 64
1, 163680, Note_off_c, 9, 35, 64
1, 163680, Note_on_c, 9, 44, 80
1, 163680, Note_on_c, 9, 38, 80
1, 164160, Note_off_c, 9, 44, 64
1, 164160, Note_off_c, 9, 38, 64
1, 164160, Note_on_c, 9, 44, 80
1, 164160, Note_on_c, 9, 35, 80
1, 164640, Note_off_c, 9, 44, 64
1, 164640, Note_off_c, 9, 35, 64
1, 164640, Note_on_c, 9, 44, 80
1, 164640, Note_on_c, 9, 38, 80
1, 165120, Note_off_c, 9, 44, 64
1, 165120, Note_off_c, 9, 38, 64
1, 165120, Note_on_c, 9, 44, 80
1, 165120, Note_on_c, 9, 35, 80
1, 165600, Note_off_c, 9, 44, 64
1, 165600, Note_off_c, 9, 35, 64
1, 165600, Note_on_c, 9, 44, 80
1, 165600, Note_on_c, 9, 38, 80
1, 166080, Note_off_c, 9, 44, 64
1, 166080, Note_off_c, 9, 38, 64
1, 166080, Note_on_c, 9, 38, 80
1, 166080, Note_on_c, 9, 49, 80
1, 166560, Note_off_c, 9, 38, 64
1, 166560, Note_off_c, 9, 49, 64
1, 166560, Note_on_c, 9, 57, 80
1, 166560, Note_on_c, 9, 38, 80
1, 167040, Note_off_c, 9, 57, 64
1, 167040, Note_off_c, 9, 38, 64
1, 167040, Note_on_c, 9, 44, 80
1, 167040, Note_on_c, 9, 35, 80
1, 167520, Note_off_c, 9, 44, 64
1, 167520, Note_off_c, 9, 35, 64
1, 167520, Note_on_c, 9, 44, 80
1, 167520, Note_on_c, 9, 38, 80
1, 168000, Note_off_c, 9, 44, 64
1, 168000, Note_off_c, 9, 38, 64
1, 168000, Note_on_c, 9, 44, 80
1, 168000, Note_on_c, 9, 35, 80
1, 168480, Note_off_c, 9, 44, 64
1, 168480, Note_off_c, 9, 35, 64
1, 168480, Note_on_c, 9, 44, 80
1, 168480, Note_on_c, 9, 38, 80
1, 168960, Note_off_c, 9, 44, 64
1, 168960, Note_off_c, 9, 38, 64
1, 168960, Note_on_c, 9, 44, 80
1, 168960, Note_on_c, 9, 35, 80
1, 169440, Note_off_c, 9, 44, 64
1, 169440, Note_off_c, 9, 35, 64
1, 169440, Note_on_c, 9, 44, 80
1, 169440, Note_on_c, 9, 38, 80
1, 169920, Note_off_c, 9, 44, 64
1, 169920, Note_off_c, 9, 38, 64
1, 169920, Note_on_c, 9, 38, 80
1, 169920, Note_on_c, 9, 49, 80
1, 170400, Note_off_c, 9, 38, 64
1, 170400, Note_off_c, 9, 49, 64
1, 170400, Note_on_c, 9, 57, 80
1, 170400, Note_on_c, 9, 38, 80
1, 170880, Note_off_c, 9, 57, 64
1, 170880, Note_off_c, 9, 38, 64
1, 170880, End_track
0, 0, End_of_file