0, 0, Header, 1, 2, 480
1, 0, Start_track
1, 0, Title_t, "Drumkit"
1, 0, Program_c, 9, 0
1, 31200, Note_on_c, 9, 43, 80
1, 31680, Note_off_c, 9, 43, 64
1, 31680, Note_on_c, 9, 43, 80
1, 32160, Note_off_c, 9, 43, 64
1, 32640, Note_on_c, 9, 35, 80
1, 33120, Note_off_c, 9, 35, 64
1, 33600, Note_on_c, 9, 35, 80
1, 34080, Note_off_c, 9, 35, 64
1, 34560, Note_on_c, 9, 35, 80
1, 35040, Note_off_c, 9, 35, 64
1, 35040, Note_on_c, 9, 43, 80
1, 35520, Note_off_c, 9, 43, 64
1, 35520, Note_on_c, 9, 43, 80
1, 36000, Note_off_c, 9, 43, 64
1, 36480, Note_on_c, 9, 35, 80
1, 36960, Note_off_c, 9, 35, 64
1, 37440, Note_on_c, 9, 35, 80
1, 37920, Note_off_c, 9, 35, 64
1, 38400, Note_on_c, 9, 35, 80
1, 38880, Note_off_c, 9, 35, 64
1, 38880, Note_on_c, 9, 43, 80
1, 39360, Note_off_c, 9, 43, 64
1, 39360, Note_on_c, 9, 43, 80
1, 39840, Note_off_c, 9, 43, 64
1, 40320, Note_on_c, 9, 35, 80
1, 40800, Note_off_c, 9, 35, 64
1, 41280, Note_on_c, 9, 35, 80
1, 41760, Note_off_c, 9, 35, 64
1, 42240, Note_on_c, 9, 35, 80
1, 42720, Note_off_c, 9, 35, 64
1, 42720, Note_on_c, 9, 43, 80
1, 43200, Note_off_c, 9, 43, 64
1, 43200, Note_on_c, 9, 43, 80
1, 43680, Note_off_c, 9, 43, 64
1, 44160, Note_on_c, 9, 35, 80
1, 44640, Note_off_c, 9, 35, 64
1, 45120, Note_on_c, 9, 35, 80
1, 45600, Note_off_c, 9, 35, 64
1, 46080, Note_on_c, 9, 35, 80
1, 46560, Note_off_c, 9, 35, 64
1, 46560, Note_on_c, 9, 43, 80
1, 47040, Note_off_c, 9, 43, 64
1, 47040, Note_on_c, 9, 43, 80
1, 47520, Note_off_c, 9, 43, 64
1, 48000, Note_on_c, 9, 35, 80
1, 48480, Note_off_c, 9, 35, 64
1, 48960, Note_on_c, 9, 35, 80
1, 49440, Note_off_c, 9, 35, 64
1, 49920, Note_on_c, 9, 35, 80
1, 50400, Note_off_c, 9, 35, 64
1, 50400, Note_on_c, 9, 43, 80
1, 50880, Note_off_c, 9, 43, 64
1, 50880, Note_on_c, 9, 43, 80
1, 51360, Note_off_c, 9, 43, 64
1, 51840, Note_on_c, 9, 35, 80
1, 52320, Note_off_c, 9, 35, 64
1, 52800, Note_on_c, 9, 35, 80
1, 53280, Note_off_c, 9, 35, 64
1, 53760, Note_on_c, 9, 35, 80
1, 54240, Note_off_c, 9, 35, 64
1, 54240, Note_on_c, 9, 43, 80
1, 54720, Note_off_c, 9, 43, 64
1, 54720, Note_on_c, 9, 43, 80
1, 55200, Note_off_c, 9, 43, 64
1, 55680, Note_on_c, 9, 35, 80
1, 56160, Note_off_c, 9, 35, 64
1, 56640, Note_on_c, 9, 35, 80
1, 57120, Note_off_c, 9, 35, 64
1, 57600, Note_on_c, 9, 35, 80
1, 58080, Note_off_c, 9, 35, 64
1, 58080, Note_on_c, 9, 43, 80
1, 58560, Note_off_c, 9, 43, 64
1, 58560, Note_on_c, 9, 43, 80
1, 59040, Note_off_c, 9, 43, 64
1, 59520, Note_on_c, 9, 35, 80
1, 60000, Note_off_c, 9, 35, 64
1, 60480, Note_on_c, 9, 35, 80
1, 60960, Note_off_c, 9, 35, 64
1, 61440, Note_on_c, 9, 35, 80
1, 61920, Note_off_c, 9, 35, 64
1, 61920, Note_on_c, 9, 43, 80
1, 62400, Note_off_c, 9, 43, 64
1, 62400, Note_on_c, 9, 43, 80
1, 62880, Note_off_c, 9, 43, 64
1, 63360, Note_on_c, 9, 35, 80
1, 63840, Note_off_c, 9, 35, 64
1, 64320, Note_on_c, 9, 35, 80
1, 64800, Note_off_c, 9, 35, 64
1, 65280, Note_on_c, 9, 35, 80
1, 65760, Note_off_c, 9, 35, 64
1, 65760, Note_on_c, 9, 43, 80
1, 66240, Note_off_c, 9, 43, 64
1, 66240, Note_on_c, 9, 43, 80
1, 66720, Note_off_c, 9, 43, 64
1, 67200, Note_on_c, 9, 35, 80
1, 67680, Note_off_c, 9, 35, 64
1, 68160, Note_on_c, 9, 35, 80
1, 68640, Note_off_c, 9, 35, 64
1, 69120, Note_on_c, 9, 35, 80
1, 69600, Note_off_c, 9, 35, 64
1, 70080, Note_on_c, 9, 35, 80
1, 70560, Note_off_c, 9, 35, 64
1, 71040, Note_on_c, 9, 35, 80
1, 71520, Note_off_c, 9, 35, 64
1, 72000, Note_on_c, 9, 35, 80
1, 72480, Note_off_c, 9, 35, 64
1, 72960, Note_on_c, 9, 35, 80
1, 73440, Note_off_c, 9, 35, 64
1, 73920, Note_on_c, 9, 35, 80
1, 74400, Note_off_c, 9, 35, 64
1, 74880, Note_on_c, 9, 35, 80
1, 75360, Note_off_c, 9, 35, 64
1, 75840, Note_on_c, 9, 35, 80
1, 76320, Note_off_c, 9, 35, 64
1, 76800, Note_on_c, 9, 35, 80
1, 77280, Note_off_c, 9, 35, 64
1, 77760, Note_on_c, 9, 35, 80
1, 78240, Note_off_c, 9, 35, 64
1, 78720, Note_on_c, 9, 35, 80
1, 79200, Note_off_c, 9, 35, 64
1, 79680, Note_on_c, 9, 35, 80
1, 80160, Note_off_c, 9, 35, 64
1, 80640, Note_on_c, 9, 35, 80
1, 81120, Note_off_c, 9, 35, 64
1, 81600, Note_on_c, 9, 35, 80
1, 82080, Note_off_c, 9, 35, 64
1, 82560, Note_on_c, 9, 35, 80
1, 83040, Note_off_c, 9, 35, 64
1, 83520, Note_on_c, 9, 35, 80
1, 84000, Note_off_c, 9, 35, 64
1, 84480, Note_on_c, 9, 35, 80
1, 84960, Note_off_c, 9, 35, 64
1, 85440, Note_on_c, 9, 35, 80
1, 85920, Note_off_c, 9, 35, 64
1, 86400, Note_on_c, 9, 35, 80
1, 86880, Note_off_c, 9, 35, 64
1, 87360, Note_on_c, 9, 35, 80
1, 87840, Note_off_c, 9, 35, 64
1, 88320, Note_on_c, 9, 35, 80
1, 88800, Note_off_c, 9, 35, 64
1, 89280, Note_on_c, 9, 35, 80
1, 89760, Note_off_c, 9, 35, 64
1, 90240, Note_on_c, 9, 35, 80
1, 90720, Note_off_c, 9, 35, 64
1, 91200, Note_on_c, 9, 35, 80
1, 91680, Note_off_c, 9, 35, 64
1, 92160, Note_on_c, 9, 35, 80
1, 92640, Note_off_c, 9, 35, 64
1, 93120, Note_on_c, 9, 35, 80
1, 93600, Note_off_c, 9, 35, 64
1, 94080, Note_on_c, 9, 35, 80
1, 94560, Note_off_c, 9, 35, 64
1, 95040, Note_on_c, 9, 35, 80
1, 95520, Note_off_c, 9, 35, 64
1, 96000, Note_on_c, 9, 35, 80
1, 96480, Note_off_c, 9, 35, 64
1, 96960, Note_on_c, 9, 35, 80
1, 97440, Note_off_c, 9, 35, 64
1, 97920, Note_on_c, 9, 35, 80
1, 98400, Note_off_c, 9, 35, 64
1, 98880, Note_on_c, 9, 35, 80
1, 99360, Note_off_c, 9, 35, 64
1, 99840, Note_on_c, 9, 35, 80
1, 100320, Note_off_c, 9, 35, 64
1, 100800, Note_on_c, 9, 35, 80
1, 101280, Note_off_c, 9, 35, 64
1, 101760, Note_on_c, 9, 35, 80
1, 102240, Note_off_c, 9, 35, 64
1, 102720, Note_on_c, 9, 35, 80
1, 103200, Note_off_c, 9, 35, 64
1, 103680, Note_on_c, 9, 35, 80
1, 104160, Note_off_c, 9, 35, 64
1, 104640, Note_on_c, 9, 35, 80
1, 105120, Note_off_c, 9, 35, 64
1, 105600, Note_on_c, 9, 35, 80
1, 106080, Note_off_c, 9, 35, 64
1, 106560, Note_on_c, 9, 35, 80
1, 107040, Note_off_c, 9, 35, 64
1, 107520, Note_on_c, 9, 35, 80
1, 108000, Note_off_c, 9, 35, 64
1, 108480, Note_on_c, 9, 43, 80
1, 108480, Note_on_c, 9, 35, 80
1, 108960, Note_off_c, 9, 43, 64
1, 108960, Note_off_c, 9, 35, 64
1, 109440, Note_on_c, 9, 43, 80
1, 109440, Note_on_c, 9, 35, 80
1, 109920, Note_off_c, 9, 43, 64
1, 109920, Note_off_c, 9, 35, 64
1, 110400, Note_on_c, 9, 35, 80
1, 110880, Note_off_c, 9, 35, 64
1, 111360, Note_on_c, 9, 35, 80
1, 111840, Note_off_c, 9, 35, 64
1, 112320, Note_on_c, 9, 35, 80
1, 112800, Note_off_c, 9, 35, 64
1, 113280, Note_on_c, 9, 35, 80
1, 113760, Note_off_c, 9, 35, 64
1, 114240, Note_on_c, 9, 35, 80
1, 114720, Note_off_c, 9, 35, 64
1, 115200, Note_on_c, 9, 35, 80
1, 115680, Note_off_c, 9, 35, 64
1, 117840, Note_on_c, 9, 38, 80
1, 118080, Note_off_c, 9, 38, 64
1, 118320, Note_on_c, 9, 35, 80
1, 118560, Note_off_c, 9, 35, 64
1, 118560, Note_on_c, 9, 38, 80
1, 118800, Note_off_c, 9, 38, 64
1, 118800, Note_on_c, 9, 35, 80
1, 119040, Note_off_c, 9, 35, 64
1, 119280, Note_on_c, 9, 38, 80
1, 119520, Note_off_c, 9, 38, 64
1, 119520, Note_on_c, 9, 35, 80
1, 120000, Note_off_c, 9, 35, 64
1, 120000, Note_on_c, 9, 38, 80
1, 120480, Note_off_c, 9, 38, 64
1, 120480, Note_on_c, 9, 35, 80
1, 120960, Note_off_c, 9, 35, 64
1, 120960, Note_on_c, 9, 38, 80
1, 121440, Note_off_c, 9, 38, 64
1, 121440, Note_on_c, 9, 35, 80
1, 121920, Note_off_c, 9, 35, 64
1, 121920, Note_on_c, 9, 38, 80
1, 122400, Note_off_c, 9, 38, 64
1, 122400, Note_on_c, 9, 35, 80
1, 122880, Note_off_c, 9, 35, 64
1, 122880, Note_on_c, 9, 38, 80
1, 123360, Note_off_c, 9, 38, 64
1, 123360, Note_on_c, 9, 35, 80
1, 123840, Note_off_c, 9, 35, 64
1, 123840, Note_on_c, 9, 38, 80
1, 124320, Note_off_c, 9, 38, 64
1, 124320, Note_on_c, 9, 35, 80
1, 124800, Note_off_c, 9, 35, 64
1, 124800, Note_on_c, 9, 38, 80
1, 125280, Note_off_c, 9, 38, 64
1, 125280, Note_on_c, 9, 35, 80
1, 125760, Note_off_c, 9, 35, 64
1, 125760, Note_on_c, 9, 38, 80
1, 126240, Note_off_c, 9, 38, 64
1, 126240, Note_on_c, 9, 35, 80
1, 126720, Note_off_c, 9, 35, 64
1, 126720, Note_on_c, 9, 38, 80
1, 127200, Note_off_c, 9, 38, 64
1, 127200, Note_on_c, 9, 35, 80
1, 127680, Note_off_c, 9, 35, 64
1, 127680, Note_on_c, 9, 38, 80
1, 128160, Note_off_c, 9, 38, 64
1, 128160, Note_on_c, 9, 35, 80
1, 128640, Note_off_c, 9, 35, 64
1, 128640, Note_on_c, 9, 38, 80
1, 129120, Note_off_c, 9, 38, 64
1, 129120, Note_on_c, 9, 35, 80
1, 129600, Note_off_c, 9, 35, 64
1, 129600, Note_on_c, 9, 38, 80
1, 130080, Note_off_c, 9, 38, 64
1, 130080, Note_on_c, 9, 35, 80
1, 130560, Note_off_c, 9, 35, 64
1, 130560, Note_on_c, 9, 38, 80
1, 131040, Note_off_c, 9, 38, 64
1, 131040, Note_on_c, 9, 35, 80
1, 131520, Note_off_c, 9, 35, 64
1, 131520, Note_on_c, 9, 38, 80
1, 132000, Note_off_c, 9, 38, 64
1, 132000, Note_on_c, 9, 35, 80
1, 132480, Note_off_c, 9, 35, 64
1, 132480, Note_on_c, 9, 38, 80
1, 132960, Note_off_c, 9, 38, 64
1, 132960, Note_on_c, 9, 35, 80
1, 133440, Note_off_c, 9, 35, 64
1, 133440, Note_on_c, 9, 38, 80
1, 133920, Note_off_c, 9, 38, 64
1, 133920, Note_on_c, 9, 35, 80
1, 134400, Note_off_c, 9, 35, 64
1, 134400, Note_on_c, 9, 38, 80
1, 134880, Note_off_c, 9, 38, 64
1, 134880, Note_on_c, 9, 35, 80
1, 135360, Note_off_c, 9, 35, 64
1, 135360, Note_on_c, 9, 38, 80
1, 135840, Note_off_c, 9, 38, 64
1, 135840, Note_on_c, 9, 35, 80
1, 136320, Note_off_c, 9, 35, 64
1, 136320, Note_on_c, 9, 38, 80
1, 136800, Note_off_c, 9, 38, 64
1, 136800, Note_on_c, 9, 35, 80
1, 137280, Note_off_c, 9, 35, 64
1, 137280, Note_on_c, 9, 38, 80
1, 137760, Note_off_c, 9, 38, 64
1, 137760, Note_on_c, 9, 35, 80
1, 138240, Note_off_c, 9, 35, 64
1, 138240, Note_on_c, 9, 38, 80
1, 138720, Note_off_c, 9, 38, 64
1, 138720, Note_on_c, 9, 35, 80
1, 139200, Note_off_c, 9, 35, 64
1, 139200, Note_on_c, 9, 38, 80
1, 139680, Note_off_c, 9, 38, 64
1, 139680, Note_on_c, 9, 35, 80
1, 140160, Note_off_c, 9, 35, 64
1, 140160, Note_on_c, 9, 38, 80
1, 140640, Note_off_c, 9, 38, 64
1, 140640, Note_on_c, 9, 35, 80
1, 141120, Note_off_c, 9, 35, 64
1, 141120, Note_on_c, 9, 38, 80
1, 141600, Note_off_c, 9, 38, 64
1, 141600, Note_on_c, 9, 35, 80
1, 142080, Note_off_c, 9, 35, 64
1, 142080, Note_on_c, 9, 38, 80
1, 142560, Note_off_c, 9, 38, 64
1, 142560, Note_on_c, 9, 35, 80
1, 143040, Note_off_c, 9, 35, 64
1, 143040, Note_on_c, 9, 38, 80
1, 143520, Note_off_c, 9, 38, 64
1, 143520, Note_on_c, 9, 35, 80
1, 144000, Note_off_c, 9, 35, 64
1, 144000, Note_on_c, 9, 38, 80
1, 144480, Note_off_c, 9, 38, 64
1, 144480, Note_on_c, 9, 35, 80
1, 144960, Note_off_c, 9, 35, 64
1, 144960, Note_on_c, 9, 38, 80
1, 145440, Note_off_c, 9, 38, 64
1, 145440, Note_on_c, 9, 35, 80
1, 145920, Note_off_c, 9, 35, 64
1, 145920, Note_on_c, 9, 38, 80
1, 146400, Note_off_c, 9, 38, 64
1, 146400, Note_on_c, 9, 35, 80
1, 146880, Note_off_c, 9, 35, 64
1, 146880, Note_on_c, 9, 38, 80
1, 147360, Note_off_c, 9, 38, 64
1, 147360, Note_on_c, 9, 35, 80
1, 147840, Note_off_c, 9, 35, 64
1, 147840, Note_on_c, 9, 38, 80
1, 148320, Note_off_c, 9, 38, 64
1, 148320, Note_on_c, 9, 35, 80
1, 148800, Note_off_c, 9, 35, 64
1, 148800, Note_on_c, 9, 38, 80
1, 149280, Note_off_c, 9, 38, 64
1, 149280, Note_on_c, 9, 35, 80
1, 149760, Note_off_c, 9, 35, 64
1, 149760, Note_on_c, 9, 38, 80
1, 150240, Note_off_c, 9, 38, 64
1, 150240, Note_on_c, 9, 35, 80
1, 150720, Note_off_c, 9, 35, 64
1, 150720, Note_on_c, 9, 38, 80
1, 151200, Note_off_c, 9, 38, 64
1, 151200, Note_on_c, 9, 35, 80
1, 151680, Note_off_c, 9, 35, 64
1, 151680, Note_on_c, 9, 38, 80
1, 152160, Note_off_c, 9, 38, 64
1, 152160, Note_on_c, 9, 35, 80
1, 152640, Note_off_c, 9, 35, 64
1, 152640, Note_on_c, 9, 38, 80
1, 153120, Note_off_c, 9, 38, 64
1, 153120, Note_on_c, 9, 35, 80
1, 153600, Note_off_c, 9, 35, 64
1, 153600, Note_on_c, 9, 38, 80
1, 154080, Note_off_c, 9, 38, 64
1, 154080, Note_on_c, 9, 35, 80
1, 154560, Note_off_c, 9, 35, 64
1, 154560, Note_on_c, 9, 38, 80
1, 155040, Note_off_c, 9, 38, 64
1, 155040, Note_on_c, 9, 35, 80
1, 155520, Note_off_c, 9, 35, 64
1, 155520, Note_on_c, 9, 38, 80
1, 156000, Note_off_c, 9, 38, 64
1, 156000, Note_on_c, 9, 35, 80
1, 156480, Note_off_c, 9, 35, 64
1, 156480, Note_on_c, 9, 38, 80
1, 156960, Note_off_c, 9, 38, 64
1, 156960, Note_on_c, 9, 35, 80
1, 157440, Note_off_c, 9, 35, 64
1, 157440, Note_on_c, 9, 38, 80
1, 157920, Note_off_c, 9, 38, 64
1, 157920, Note_on_c, 9, 48, 80
1, 157920, Note_on_c, 9, 35, 80
1, 158400, Note_off_c, 9, 48, 64
1, 158400, Note_off_c, 9, 35, 64
1, 158400, Note_on_c, 9, 47, 80
1, 158400, Note_on_c, 9, 35, 80
1, 158880, Note_off_c, 9, 47, 64
1, 158880, Note_off_c, 9, 35, 64
1, 158880, Note_on_c, 9, 41, 80
1, 158880, Note_on_c, 9, 49, 80
1, 158880, Note_on_c, 9, 38, 80
1, 158880, Note_on_c, 9, 35, 80
1, 159360, Note_off_c, 9, 41, 64
1, 159360, Note_off_c, 9, 49, 64
1, 159360, Note_off_c, 9, 38, 64
1, 159360, Note_off_c, 9, 35, 64
1, 161280, Note_on_c, 9, 35, 80
1, 161760, Note_off_c, 9, 35, 64
1, 161760, Note_on_c, 9, 48, 80
1, 161760, Note_on_c, 9, 35, 80
1, 162240, Note_off_c, 9, 48, 64
1, 162240, Note_off_c, 9, 35, 64
1, 162240, Note_on_c, 9, 47, 80
1, 162240, Note_on_c, 9, 35, 80
1, 162720, Note_off_c, 9, 47, 64
1, 162720, Note_off_c, 9, 35, 64
1, 162720, Note_on_c, 9, 41, 80
1, 162720, Note_on_c, 9, 49, 80
1, 162720, Note_on_c, 9, 38, 80
1, 162720, Note_on_c, 9, 35, 80
1, 163200, Note_off_c, 9, 41, 64
1, 163200, Note_off_c, 9, 49, 64
1, 163200, Note_off_c, 9, 38, 64
1, 163200, Note_off_c, 9, 35, 64
1, 165120, Note_on_c, 9, 35, 80
1, 165600, Note_off_c, 9, 35, 64
1, 165600, Note_on_c, 9, 48, 80
1, 165600, Note_on_c, 9, 35, 80
1, 166080, Note_off_c, 9, 48, 64
1, 166080, Note_off_c, 9, 35, 64
1, 166080, Note_on_c, 9, 47, 80
1, 166080, Note_on_c, 9, 35, 80
1, 166560, Note_off_c, 9, 47, 64
1, 166560, Note_off_c, 9, 35, 64
1, 166560, Note_on_c, 9, 41, 80
1, 166560, Note_on_c, 9, 49, 80
1, 166560, Note_on_c, 9, 38, 80
1, 166560, Note_on_c, 9, 35, 80
1, 167040, Note_off_c, 9, 41, 64
1, 167040, Note_off_c, 9, 49, 64
1, 167040, Note_off_c, 9, 38, 64
1, 167040, Note_off_c, 9, 35, 64
1, 168960, Note_on_c, 9, 35, 80
1, 169440, Note_off_c, 9, 35, 64
1, 169440, Note_on_c, 9, 48, 80
1, 169440, Note_on_c, 9, 35, 80
1, 169920, Note_off_c, 9, 48, 64
1, 169920, Note_off_c, 9, 35, 64
1, 169920, Note_on_c, 9, 47, 80
1, 169920, Note_on_c, 9, 35, 80
1, 170400, Note_off_c, 9, 47, 64
1, 170400, Note_off_c, 9, 35, 64
1, 170400, Note_on_c, 9, 41, 80
1, 170400, Note_on_c, 9, 49, 80
1, 170400, Note_on_c, 9, 38, 80
1, 170400, Note_on_c, 9, 35, 80
1, 170880, Note_off_c, 9, 41, 64
1, 170880, Note_off_c, 9, 49, 64
1, 170880, Note_off_c, 9, 38, 64
1, 170880, Note_off_c, 9, 35, 64
1, 173280, Note_on_c, 9, 35, 80
1, 173760, Note_off_c, 9, 35, 64
1, 173760, Note_on_c, 9, 38, 80
1, 174240, Note_off_c, 9, 38, 64
1, 174240, Note_on_c, 9, 35, 80
1, 174720, Note_off_c, 9, 35, 64
1, 174720, Note_on_c, 9, 38, 80
1, 175200, Note_off_c, 9, 38, 64
1, 175200, Note_on_c, 9, 35, 80
1, 175680, Note_off_c, 9, 35, 64
1, 175680, Note_on_c, 9, 38, 80
1, 176160, Note_off_c, 9, 38, 64
1, 176160, Note_on_c, 9, 35, 80
1, 176640, Note_off_c, 9, 35, 64
1, 176640, Note_on_c, 9, 38, 80
1, 177120, Note_off_c, 9, 38, 64
1, 177120, Note_on_c, 9, 35, 80
1, 177600, Note_off_c, 9, 35, 64
1, 177600, Note_on_c, 9, 38, 80
1, 178080, Note_off_c, 9, 38, 64
1, 178080, Note_on_c, 9, 35, 80
1, 178560, Note_off_c, 9, 35, 64
1, 178560, Note_on_c, 9, 38, 80
1, 179040, Note_off_c, 9, 38, 64
1, 179040, Note_on_c, 9, 35, 80
1, 179520, Note_off_c, 9, 35, 64
1, 179520, Note_on_c, 9, 38, 80
1, 180000, Note_off_c, 9, 38, 64
1, 180000, Note_on_c, 9, 35, 80
1, 180480, Note_off_c, 9, 35, 64
1, 180480, Note_on_c, 9, 38, 80
1, 180960, Note_off_c, 9, 38, 64
1, 180960, Note_on_c, 9, 35, 80
1, 181440, Note_off_c, 9, 35, 64
1, 181440, Note_on_c, 9, 38, 80
1, 181920, Note_off_c, 9, 38, 64
1, 181920, Note_on_c, 9, 35, 80
1, 182400, Note_off_c, 9, 35, 64
1, 182400, Note_on_c, 9, 38, 80
1, 182880, Note_off_c, 9, 38, 64
1, 182880, Note_on_c, 9, 35, 80
1, 183360, Note_off_c, 9, 35, 64
1, 183360, Note_on_c, 9, 38, 80
1, 183840, Note_off_c, 9, 38, 64
1, 183840, Note_on_c, 9, 35, 80
1, 184320, Note_off_c, 9, 35, 64
1, 184320, Note_on_c, 9, 38, 80
1, 184800, Note_off_c, 9, 38, 64
1, 184800, Note_on_c, 9, 35, 80
1, 185280, Note_off_c, 9, 35, 64
1, 185280, Note_on_c, 9, 38, 80
1, 185760, Note_off_c, 9, 38, 64
1, 185760, Note_on_c, 9, 35, 80
1, 186240, Note_off_c, 9, 35, 64
1, 186240, Note_on_c, 9, 38, 80
1, 186720, Note_off_c, 9, 38, 64
1, 186720, Note_on_c, 9, 35, 80
1, 187200, Note_off_c, 9, 35, 64
1, 187200, Note_on_c, 9, 38, 80
1, 187680, Note_off_c, 9, 38, 64
1, 187680, Note_on_c, 9, 35, 80
1, 188160, Note_off_c, 9, 35, 64
1, 188160, Note_on_c, 9, 38, 80
1, 188640, Note_off_c, 9, 38, 64
1, 188640, Note_on_c, 9, 35, 80
1, 189120, Note_off_c, 9, 35, 64
1, 189120, Note_on_c, 9, 38, 80
1, 189600, Note_off_c, 9, 38, 64
1, 189600, Note_on_c, 9, 35, 80
1, 190080, Note_off_c, 9, 35, 64
1, 190080, Note_on_c, 9, 38, 80
1, 190560, Note_off_c, 9, 38, 64
1, 190560, Note_on_c, 9, 35, 80
1, 191040, Note_off_c, 9, 35, 64
1, 191040, Note_on_c, 9, 38, 80
1, 191520, Note_off_c, 9, 38, 64
1, 191520, Note_on_c, 9, 35, 80
1, 192000, Note_off_c, 9, 35, 64
1, 192000, Note_on_c, 9, 38, 80
1, 192480, Note_off_c, 9, 38, 64
1, 192480, Note_on_c, 9, 35, 80
1, 192960, Note_off_c, 9, 35, 64
1, 192960, Note_on_c, 9, 38, 80
1, 193440, Note_off_c, 9, 38, 64
1, 193440, Note_on_c, 9, 35, 80
1, 193920, Note_off_c, 9, 35, 64
1, 193920, Note_on_c, 9, 38, 80
1, 194400, Note_off_c, 9, 38, 64
1, 194400, Note_on_c, 9, 35, 80
1, 194880, Note_off_c, 9, 35, 64
1, 194880, Note_on_c, 9, 38, 80
1, 195360, Note_off_c, 9, 38, 64
1, 195360, Note_on_c, 9, 35, 80
1, 195840, Note_off_c, 9, 35, 64
1, 195840, Note_on_c, 9, 38, 80
1, 196320, Note_off_c, 9, 38, 64
1, 196320, Note_on_c, 9, 35, 80
1, 196800, Note_off_c, 9, 35, 64
1, 196800, Note_on_c, 9, 38, 80
1, 197280, Note_off_c, 9, 38, 64
1, 197280, Note_on_c, 9, 35, 80
1, 197760, Note_off_c, 9, 35, 64
1, 197760, Note_on_c, 9, 38, 80
1, 198240, Note_off_c, 9, 38, 64
1, 198240, Note_on_c, 9, 35, 80
1, 198720, Note_off_c, 9, 35, 64
1, 198720, Note_on_c, 9, 38, 80
1, 199200, Note_off_c, 9, 38, 64
1, 199200, Note_on_c, 9, 35, 80
1, 199680, Note_off_c, 9, 35, 64
1, 199680, Note_on_c, 9, 38, 80
1, 200160, Note_off_c, 9, 38, 64
1, 200160, Note_on_c, 9, 35, 80
1, 200640, Note_off_c, 9, 35, 64
1, 200640, Note_on_c, 9, 38, 80
1, 201120, Note_off_c, 9, 38, 64
1, 201120, Note_on_c, 9, 35, 80
1, 201600, Note_off_c, 9, 35, 64
1, 201600, Note_on_c, 9, 38, 80
1, 202080, Note_off_c, 9, 38, 64
1, 202080, Note_on_c, 9, 35, 80
1, 202560, Note_off_c, 9, 35, 64
1, 202560, Note_on_c, 9, 38, 80
1, 203040, Note_off_c, 9, 38, 64
1, 203040, Note_on_c, 9, 35, 80
1, 203520, Note_off_c, 9, 35, 64
1, 203520, Note_on_c, 9, 38, 80
1, 204000, Note_off_c, 9, 38, 64
1, 204000, Note_on_c, 9, 35, 80
1, 204480, Note_off_c, 9, 35, 64
1, 204480, Note_on_c, 9, 38, 80
1, 204960, Note_off_c, 9, 38, 64
1, 204960, Note_on_c, 9, 35, 80
1, 205440, Note_off_c, 9, 35, 64
1, 205440, Note_on_c, 9, 38, 80
1, 205920, Note_off_c, 9, 38, 64
1, 205920, Note_on_c, 9, 35, 80
1, 206400, Note_off_c, 9, 35, 64
1, 206400, Note_on_c, 9, 38, 80
1, 206880, Note_off_c, 9, 38, 64
1, 206880, Note_on_c, 9, 35, 80
1, 207360, Note_off_c, 9, 35, 64
1, 207360, Note_on_c, 9, 38, 80
1, 207840, Note_off_c, 9, 38, 64
1, 207840, Note_on_c, 9, 35, 80
1, 208320, Note_off_c, 9, 35, 64
1, 208320, Note_on_c, 9, 38, 80
1, 208800, Note_off_c, 9, 38, 64
1, 208800, Note_on_c, 9, 35, 80
1, 209280, Note_off_c, 9, 35, 64
1, 209280, Note_on_c, 9, 38, 80
1, 209760, Note_off_c, 9, 38, 64
1, 209760, Note_on_c, 9, 35, 80
1, 210240, Note_off_c, 9, 35, 64
1, 210240, Note_on_c, 9, 38, 80
1, 210720, Note_off_c, 9, 38, 64
1, 210720, Note_on_c, 9, 35, 80
1, 211200, Note_off_c, 9, 35, 64
1, 211200, Note_on_c, 9, 38, 80
1, 211680, Note_off_c, 9, 38, 64
1, 211680, Note_on_c, 9, 35, 80
1, 212160, Note_off_c, 9, 35, 64
1, 212160, Note_on_c, 9, 38, 80
1, 212640, Note_off_c, 9, 38, 64
1, 212640, Note_on_c, 9, 35, 80
1, 213120, Note_off_c, 9, 35, 64
1, 213120, Note_on_c, 9, 38, 80
1, 213600, Note_off_c, 9, 38, 64
1, 213600, Note_on_c, 9, 35, 80
1, 214080, Note_off_c, 9, 35, 64
1, 214080, Note_on_c, 9, 38, 80
1, 214560, Note_off_c, 9, 38, 64
1, 214560, Note_on_c, 9, 35, 80
1, 215040, Note_off_c, 9, 35, 64
1, 215040, Note_on_c, 9, 38, 80
1, 215520, Note_off_c, 9, 38, 64
1, 215520, Note_on_c, 9, 35, 80
1, 216000, Note_off_c, 9, 35, 64
1, 216000, Note_on_c, 9, 38, 80
1, 216480, Note_off_c, 9, 38, 64
1, 216480, Note_on_c, 9, 35, 80
1, 216960, Note_off_c, 9, 35, 64
1, 216960, Note_on_c, 9, 38, 80
1, 217440, Note_off_c, 9, 38, 64
1, 217440, Note_on_c, 9, 35, 80
1, 217920, Note_off_c, 9, 35, 64
1, 217920, Note_on_c, 9, 38, 80
1, 218400, Note_off_c, 9, 38, 64
1, 218400, Note_on_c, 9, 35, 80
1, 218880, Note_off_c, 9, 35, 64
1, 218880, Note_on_c, 9, 38, 80
1, 219360, Note_off_c, 9, 38, 64
1, 219840, Note_on_c, 9, 35, 80
1, 220320, Note_off_c, 9, 35, 64
1, 220800, Note_on_c, 9, 35, 80
1, 221280, Note_off_c, 9, 35, 64
1, 221760, Note_on_c, 9, 35, 80
1, 222240, Note_off_c, 9, 35, 64
1, 222720, Note_on_c, 9, 35, 80
1, 223200, Note_off_c, 9, 35, 64
1, 223680, Note_on_c, 9, 35, 80
1, 224160, Note_off_c, 9, 35, 64
1, 224640, Note_on_c, 9, 35, 80
1, 225120, Note_off_c, 9, 35, 64
1, 225600, Note_on_c, 9, 35, 80
1, 226080, Note_off_c, 9, 35, 64
1, 226560, Note_on_c, 9, 35, 80
1, 227040, Note_off_c, 9, 35, 64
1, 227520, Note_on_c, 9, 35, 80
1, 228000, Note_off_c, 9, 35, 64
1, 228480, Note_on_c, 9, 35, 80
1, 228960, Note_off_c, 9, 35, 64
1, 229440, Note_on_c, 9, 35, 80
1, 229920, Note_off_c, 9, 35, 64
1, 230400, Note_on_c, 9, 35, 80
1, 230880, Note_off_c, 9, 35, 64
1, 231360, Note_on_c, 9, 35, 80
1, 231840, Note_off_c, 9, 35, 64
1, 232320, Note_on_c, 9, 35, 80
1, 232800, Note_off_c, 9, 35, 64
1, 233280, Note_on_c, 9, 35, 80
1, 233760, Note_off_c, 9, 35, 64
1, 234240, Note_on_c, 9, 35, 80
1, 234720, Note_off_c, 9, 35, 64
1, 235200, Note_on_c, 9, 35, 80
1, 235680, Note_off_c, 9, 35, 64
1, 236160, Note_on_c, 9, 35, 80
1, 236640, Note_off_c, 9, 35, 64
1, 236640, Note_on_c, 9, 43, 80
1, 236640, Note_on_c, 9, 35, 80
1, 236960, Note_off_c, 9, 43, 64
1, 236960, Note_off_c, 9, 35, 64
1, 236960, Note_on_c, 9, 43, 80
1, 236960, Note_on_c, 9, 35, 80
1, 237280, Note_off_c, 9, 43, 64
1, 237280, Note_off_c, 9, 35, 64
1, 237280, Note_on_c, 9, 41, 80
1, 237280, Note_on_c, 9, 35, 80
1, 237600, Note_off_c, 9, 41, 64
1, 237600, Note_off_c, 9, 35, 64
1, 237600, Note_on_c, 9, 47, 80
1, 237600, Note_on_c, 9, 35, 80
1, 237920, Note_off_c, 9, 47, 64
1, 237920, Note_off_c, 9, 35, 64
1, 237920, Note_on_c, 9, 48, 80
1, 237920, Note_on_c, 9, 35, 80
1, 238240, Note_off_c, 9, 48, 64
1, 238240, Note_off_c, 9, 35, 64
1, 238240, Note_on_c, 9, 49, 80
1, 238240, Note_on_c, 9, 35, 80
1, 238560, Note_off_c, 9, 49, 64
1, 238560, Note_off_c, 9, 35, 64
1, 238560, Note_on_c, 9, 35, 80
1, 239040, Note_off_c, 9, 35, 64
1, 239040, Note_on_c, 9, 38, 80
1, 239520, Note_off_c, 9, 38, 64
1, 239520, Note_on_c, 9, 35, 80
1, 240000, Note_off_c, 9, 35, 64
1, 240000, Note_on_c, 9, 38, 80
1, 240480, Note_off_c, 9, 38, 64
1, 240480, Note_on_c, 9, 35, 80
1, 240960, Note_off_c, 9, 35, 64
1, 240960, Note_on_c, 9, 38, 80
1, 241440, Note_off_c, 9, 38, 64
1, 241440, Note_on_c, 9, 35, 80
1, 241920, Note_off_c, 9, 35, 64
1, 241920, Note_on_c, 9, 38, 80
1, 242400, Note_off_c, 9, 38, 64
1, 242400, Note_on_c, 9, 35, 80
1, 242880, Note_off_c, 9, 35, 64
1, 242880, Note_on_c, 9, 38, 80
1, 243360, Note_off_c, 9, 38, 64
1, 243360, Note_on_c, 9, 35, 80
1, 243840, Note_off_c, 9, 35, 64
1, 243840, Note_on_c, 9, 38, 80
1, 244320, Note_off_c, 9, 38, 64
1, 244320, Note_on_c, 9, 35, 80
1, 244800, Note_off_c, 9, 35, 64
1, 244800, Note_on_c, 9, 38, 80
1, 245280, Note_off_c, 9, 38, 64
1, 245280, Note_on_c, 9, 35, 80
1, 245760, Note_off_c, 9, 35, 64
1, 245760, Note_on_c, 9, 38, 80
1, 246240, Note_off_c, 9, 38, 64
1, 246240, Note_on_c, 9, 35, 80
1, 246720, Note_off_c, 9, 35, 64
1, 246720, Note_on_c, 9, 38, 80
1, 247200, Note_off_c, 9, 38, 64
1, 247200, Note_on_c, 9, 35, 80
1, 247680, Note_off_c, 9, 35, 64
1, 247680, Note_on_c, 9, 38, 80
1, 248160, Note_off_c, 9, 38, 64
1, 248160, Note_on_c, 9, 35, 80
1, 248640, Note_off_c, 9, 35, 64
1, 248640, Note_on_c, 9, 38, 80
1, 249120, Note_off_c, 9, 38, 64
1, 249120, Note_on_c, 9, 35, 80
1, 249600, Note_off_c, 9, 35, 64
1, 249600, Note_on_c, 9, 38, 80
1, 250080, Note_off_c, 9, 38, 64
1, 250080, Note_on_c, 9, 35, 80
1, 250560, Note_off_c, 9, 35, 64
1, 250560, Note_on_c, 9, 38, 80
1, 251040, Note_off_c, 9, 38, 64
1, 251040, Note_on_c, 9, 35, 80
1, 251520, Note_off_c, 9, 35, 64
1, 251520, Note_on_c, 9, 38, 80
1, 252000, Note_off_c, 9, 38, 64
1, 252000, Note_on_c, 9, 35, 80
1, 252480, Note_off_c, 9, 35, 64
1, 252480, Note_on_c, 9, 38, 80
1, 252960, Note_off_c, 9, 38, 64
1, 252960, Note_on_c, 9, 35, 80
1, 253440, Note_off_c, 9, 35, 64
1, 253440, Note_on_c, 9, 38, 80
1, 253920, Note_off_c, 9, 38, 64
1, 253920, Note_on_c, 9, 35, 80
1, 254400, Note_off_c, 9, 35, 64
1, 254400, Note_on_c, 9, 38, 80
1, 254880, Note_off_c, 9, 38, 64
1, 254880, Note_on_c, 9, 35, 80
1, 255360, Note_off_c, 9, 35, 64
1, 255360, Note_on_c, 9, 38, 80
1, 255840, Note_off_c, 9, 38, 64
1, 255840, Note_on_c, 9, 35, 80
1, 256320, Note_off_c, 9, 35, 64
1, 256320, Note_on_c, 9, 38, 80
1, 256800, Note_off_c, 9, 38, 64
1, 256800, Note_on_c, 9, 35, 80
1, 257280, Note_off_c, 9, 35, 64
1, 257280, Note_on_c, 9, 38, 80
1, 257760, Note_off_c, 9, 38, 64
1, 257760, Note_on_c, 9, 35, 80
1, 258240, Note_off_c, 9, 35, 64
1, 258240, Note_on_c, 9, 38, 80
1, 258720, Note_off_c, 9, 38, 64
1, 258720, Note_on_c, 9, 35, 80
1, 259200, Note_off_c, 9, 35, 64
1, 259200, Note_on_c, 9, 38, 80
1, 259680, Note_off_c, 9, 38, 64
1, 259680, Note_on_c, 9, 35, 80
1, 260160, Note_off_c, 9, 35, 64
1, 260160, Note_on_c, 9, 38, 80
1, 260640, Note_off_c, 9, 38, 64
1, 260640, Note_on_c, 9, 35, 80
1, 261120, Note_off_c, 9, 35, 64
1, 261120, Note_on_c, 9, 38, 80
1, 261600, Note_off_c, 9, 38, 64
1, 261600, Note_on_c, 9, 35, 80
1, 262080, Note_off_c, 9, 35, 64
1, 262080, Note_on_c, 9, 38, 80
1, 262560, Note_off_c, 9, 38, 64
1, 262560, Note_on_c, 9, 35, 80
1, 263040, Note_off_c, 9, 35, 64
1, 263040, Note_on_c, 9, 38, 80
1, 263520, Note_off_c, 9, 38, 64
1, 263520, Note_on_c, 9, 35, 80
1, 264000, Note_off_c, 9, 35, 64
1, 264000, Note_on_c, 9, 38, 80
1, 264480, Note_off_c, 9, 38, 64
1, 264480, Note_on_c, 9, 35, 80
1, 264960, Note_off_c, 9, 35, 64
1, 264960, Note_on_c, 9, 38, 80
1, 265440, Note_off_c, 9, 38, 64
1, 265440, Note_on_c, 9, 35, 80
1, 265920, Note_off_c, 9, 35, 64
1, 265920, Note_on_c, 9, 38, 80
1, 266400, Note_off_c, 9, 38, 64
1, 266400, Note_on_c, 9, 35, 80
1, 266880, Note_off_c, 9, 35, 64
1, 266880, Note_on_c, 9, 38, 80
1, 267360, Note_off_c, 9, 38, 64
1, 267360, Note_on_c, 9, 35, 80
1, 267840, Note_off_c, 9, 35, 64
1, 267840, Note_on_c, 9, 38, 80
1, 268320, Note_off_c, 9, 38, 64
1, 268320, Note_on_c, 9, 35, 80
1, 268800, Note_off_c, 9, 35, 64
1, 268800, Note_on_c, 9, 38, 80
1, 269280, Note_off_c, 9, 38, 64
1, 269280, Note_on_c, 9, 35, 80
1, 269760, Note_off_c, 9, 35, 64
1, 269760, Note_on_c, 9, 38, 80
1, 270240, Note_off_c, 9, 38, 64
1, 270240, Note_on_c, 9, 35, 80
1, 270720, Note_off_c, 9, 35, 64
1, 270720, Note_on_c, 9, 38, 80
1, 271200, Note_off_c, 9, 38, 64
1, 271200, Note_on_c, 9, 35, 80
1, 271680, Note_off_c, 9, 35, 64
1, 271680, Note_on_c, 9, 38, 80
1, 272160, Note_off_c, 9, 38, 64
1, 272160, Note_on_c, 9, 35, 80
1, 272640, Note_off_c, 9, 35, 64
1, 272640, Note_on_c, 9, 38, 80
1, 273120, Note_off_c, 9, 38, 64
1, 273120, Note_on_c, 9, 35, 80
1, 273600, Note_off_c, 9, 35, 64
1, 273600, Note_on_c, 9, 38, 80
1, 274080, Note_off_c, 9, 38, 64
1, 274080, Note_on_c, 9, 35, 80
1, 274560, Note_off_c, 9, 35, 64
1, 274560, Note_on_c, 9, 38, 80
1, 275040, Note_off_c, 9, 38, 64
1, 275040, Note_on_c, 9, 35, 80
1, 275520, Note_off_c, 9, 35, 64
1, 275520, Note_on_c, 9, 38, 80
1, 276000, Note_off_c, 9, 38, 64
1, 276000, Note_on_c, 9, 35, 80
1, 276480, Note_off_c, 9, 35, 64
1, 276480, Note_on_c, 9, 38, 80
1, 276960, Note_off_c, 9, 38, 64
1, 276960, Note_on_c, 9, 35, 80
1, 277440, Note_off_c, 9, 35, 64
1, 277440, Note_on_c, 9, 38, 80
1, 277920, Note_off_c, 9, 38, 64
1, 277920, Note_on_c, 9, 35, 80
1, 278400, Note_off_c, 9, 35, 64
1, 278400, Note_on_c, 9, 38, 80
1, 278880, Note_off_c, 9, 38, 64
1, 278880, Note_on_c, 9, 35, 80
1, 279360, Note_off_c, 9, 35, 64
1, 279360, Note_on_c, 9, 38, 80
1, 279840, Note_off_c, 9, 38, 64
1, 279840, Note_on_c, 9, 35, 80
1, 280320, Note_off_c, 9, 35, 64
1, 280320, Note_on_c, 9, 38, 80
1, 280800, Note_off_c, 9, 38, 64
1, 280800, Note_on_c, 9, 35, 80
1, 281280, Note_off_c, 9, 35, 64
1, 281280, Note_on_c, 9, 38, 80
1, 281760, Note_off_c, 9, 38, 64
1, 281760, Note_on_c, 9, 35, 80
1, 282240, Note_off_c, 9, 35, 64
1, 282240, Note_on_c, 9, 38, 80
1, 282720, Note_off_c, 9, 38, 64
1, 282720, Note_on_c, 9, 35, 80
1, 283200, Note_off_c, 9, 35, 64
1, 283200, Note_on_c, 9, 38, 80
1, 283680, Note_off_c, 9, 38, 64
1, 283680, Note_on_c, 9, 35, 80
1, 284160, Note_off_c, 9, 35, 64
1, 284160, Note_on_c, 9, 38, 80
1, 284640, Note_off_c, 9, 38, 64
1, 284640, Note_on_c, 9, 35, 80
1, 285120, Note_off_c, 9, 35, 64
1, 285120, Note_on_c, 9, 38, 80
1, 285600, Note_off_c, 9, 38, 64
1, 285600, Note_on_c, 9, 35, 80
1, 286080, Note_off_c, 9, 35, 64
1, 286080, Note_on_c, 9, 38, 80
1, 286560, Note_off_c, 9, 38, 64
1, 286560, Note_on_c, 9, 35, 80
1, 287040, Note_off_c, 9, 35, 64
1, 287040, Note_on_c, 9, 38, 80
1, 287520, Note_off_c, 9, 38, 64
1, 287520, Note_on_c, 9, 35, 80
1, 288000, Note_off_c, 9, 35, 64
1, 288000, Note_on_c, 9, 38, 80
1, 288480, Note_off_c, 9, 38, 64
1, 288480, Note_on_c, 9, 35, 80
1, 288960, Note_off_c, 9, 35, 64
1, 288960, Note_on_c, 9, 38, 80
1, 289440, Note_off_c, 9, 38, 64
1, 289440, Note_on_c, 9, 35, 80
1, 289920, Note_off_c, 9, 35, 64
1, 289920, Note_on_c, 9, 38, 80
1, 290400, Note_off_c, 9, 38, 64
1, 290400, Note_on_c, 9, 35, 80
1, 290880, Note_off_c, 9, 35, 64
1, 290880, Note_on_c, 9, 38, 80
1, 291360, Note_off_c, 9, 38, 64
1, 291360, Note_on_c, 9, 35, 80
1, 291840, Note_off_c, 9, 35, 64
1, 291840, Note_on_c, 9, 38, 80
1, 292320, Note_off_c, 9, 38, 64
1, 292320, Note_on_c, 9, 35, 80
1, 292800, Note_off_c, 9, 35, 64
1, 292800, Note_on_c, 9, 38, 80
1, 293280, Note_off_c, 9, 38, 64
1, 293280, Note_on_c, 9, 35, 80
1, 293760, Note_off_c, 9, 35, 64
1, 293760, Note_on_c, 9, 38, 80
1, 294240, Note_off_c, 9, 38, 64
1, 294240, Note_on_c, 9, 35, 80
1, 294720, Note_off_c, 9, 35, 64
1, 294720, Note_on_c, 9, 38, 80
1, 295200, Note_off_c, 9, 38, 64
1, 295200, Note_on_c, 9, 35, 80
1, 295680, Note_off_c, 9, 35, 64
1, 295680, Note_on_c, 9, 38, 80
1, 296160, Note_off_c, 9, 38, 64
1, 296160, Note_on_c, 9, 35, 80
1, 296640, Note_off_c, 9, 35, 64
1, 296640, Note_on_c, 9, 38, 80
1, 297120, Note_off_c, 9, 38, 64
1, 297120, Note_on_c, 9, 35, 80
1, 297600, Note_off_c, 9, 35, 64
1, 297600, Note_on_c, 9, 38, 80
1, 298080, Note_off_c, 9, 38, 64
1, 298080, Note_on_c, 9, 35, 80
1, 298560, Note_off_c, 9, 35, 64
1, 298560, Note_on_c, 9, 38, 80
1, 299040, Note_off_c, 9, 38, 64
1, 299040, Note_on_c, 9, 35, 80
1, 299520, Note_off_c, 9, 35, 64
1, 299520, Note_on_c, 9, 38, 80
1, 300000, Note_off_c, 9, 38, 64
1, 300000, Note_on_c, 9, 38, 80
1, 300000, Note_on_c, 9, 35, 80
1, 300000, Note_on_c, 9, 46, 80
1, 300000, Note_on_c, 9, 49, 80
1, 300000, Note_on_c, 9, 57, 80
1, 300480, Note_off_c, 9, 38, 64
1, 300480, Note_off_c, 9, 35, 64
1, 300480, Note_off_c, 9, 46, 64
1, 300480, Note_off_c, 9, 49, 64
1, 300480, Note_off_c, 9, 57, 64
1, 303840, Note_on_c, 9, 38, 80
1, 303840, Note_on_c, 9, 35, 80
1, 303840, Note_on_c, 9, 46, 80
1, 303840, Note_on_c, 9, 49, 80
1, 303840, Note_on_c, 9, 57, 80
1, 304320, Note_off_c, 9, 38, 64
1, 304320, Note_off_c, 9, 35, 64
1, 304320, Note_off_c, 9, 46, 64
1, 304320, Note_off_c, 9, 49, 64
1, 304320, Note_off_c, 9, 57, 64
1, 307680, Note_on_c, 9, 38, 80
1, 307680, Note_on_c, 9, 35, 80
1, 307680, Note_on_c, 9, 46, 80
1, 307680, Note_on_c, 9, 49, 80
1, 307680, Note_on_c, 9, 57, 80
1, 308160, Note_off_c, 9, 38, 64
1, 308160, Note_off_c, 9, 35, 64
1, 308160, Note_off_c, 9, 46, 64
1, 308160, Note_off_c, 9, 49, 64
1, 308160, Note_off_c, 9, 57, 64
1, 308160, End_track
2, 0, Start_track
2, 0, Title_t, "Drumkit"
2, 0, Program_c, 9, 0
2, 0, Note_on_c, 9, 46, 80
2, 240, Note_off_c, 9, 46, 64
2, 240, Note_on_c, 9, 42, 80
2, 480, Note_off_c, 9, 42, 64
2, 480, Note_on_c, 9, 46, 80
2, 720, Note_off_c, 9, 46, 64
2, 720, Note_on_c, 9, 42, 80
2, 960, Note_off_c, 9, 42, 64
2, 960, Note_on_c, 9, 46, 80
2, 1200, Note_off_c, 9, 46, 64
2, 1200, Note_on_c, 9, 42, 80
2, 1440, Note_off_c, 9, 42, 64
2, 1440, Note_on_c, 9, 46, 80
2, 1680, Note_off_c, 9, 46, 64
2, 1680, Note_on_c, 9, 42, 80
2, 1920, Note_off_c, 9, 42, 64
2, 1920, Note_on_c, 9, 46, 80
2, 2160, Note_off_c, 9, 46, 64
2, 2160, Note_on_c, 9, 42, 80
2, 2400, Note_off_c, 9, 42, 64
2, 2400, Note_on_c, 9, 46, 80
2, 2640, Note_off_c, 9, 46, 64
2, 2640, Note_on_c, 9, 42, 80
2, 2880, Note_off_c, 9, 42, 64
2, 2880, Note_on_c, 9, 46, 80
2, 3120, Note_off_c, 9, 46, 64
2, 3120, Note_on_c, 9, 42, 80
2, 3360, Note_off_c, 9, 42, 64
2, 3360, Note_on_c, 9, 46, 80
2, 3600, Note_off_c, 9, 46, 64
2, 3600, Note_on_c, 9, 42, 80
2, 3840, Note_off_c, 9, 42, 64
2, 3840, Note_on_c, 9, 46, 80
2, 4080, Note_off_c, 9, 46, 64
2, 4080, Note_on_c, 9, 42, 80
2, 4320, Note_off_c, 9, 42, 64
2, 4320, Note_on_c, 9, 46, 80
2, 4560, Note_off_c, 9, 46, 64
2, 4560, Note_on_c, 9, 42, 80
2, 4800, Note_off_c, 9, 42, 64
2, 4800, Note_on_c, 9, 46, 80
2, 5040, Note_off_c, 9, 46, 64
2, 5040, Note_on_c, 9, 42, 80
2, 5280, Note_off_c, 9, 42, 64
2, 5280, Note_on_c, 9, 46, 80
2, 5520, Note_off_c, 9, 46, 64
2, 5520, Note_on_c, 9, 42, 80
2, 5760, Note_off_c, 9, 42, 64
2, 5760, Note_on_c, 9, 46, 80
2, 6000, Note_off_c, 9, 46, 64
2, 6000, Note_on_c, 9, 42, 80
2, 6240, Note_off_c, 9, 42, 64
2, 6240, Note_on_c, 9, 46, 80
2, 6480, Note_off_c, 9, 46, 64
2, 6480, Note_on_c, 9, 42, 80
2, 6720, Note_off_c, 9, 42, 64
2, 6720, Note_on_c, 9, 46, 80
2, 6960, Note_off_c, 9, 46, 64
2, 6960, Note_on_c, 9, 42, 80
2, 7200, Note_off_c, 9, 42, 64
2, 7200, Note_on_c, 9, 46, 80
2, 7440, Note_off_c, 9, 46, 64
2, 7440, Note_on_c, 9, 42, 80
2, 7680, Note_off_c, 9, 42, 64
2, 7680, Note_on_c, 9, 46, 80
2, 7920, Note_off_c, 9, 46, 64
2, 7920, Note_on_c, 9, 42, 80
2, 8160, Note_off_c, 9, 42, 64
2, 8160, Note_on_c, 9, 46, 80
2, 8400, Note_off_c, 9, 46, 64
2, 8400, Note_on_c, 9, 42, 80
2, 8640, Note_off_c, 9, 42, 64
2, 8640, Note_on_c, 9, 46, 80
2, 8880, Note_off_c, 9, 46, 64
2, 8880, Note_on_c, 9, 42, 80
2, 9120, Note_off_c, 9, 42, 64
2, 9120, Note_on_c, 9, 46, 80
2, 9360, Note_off_c, 9, 46, 64
2, 9360, Note_on_c, 9, 42, 80
2, 9600, Note_off_c, 9, 42, 64
2, 9600, Note_on_c, 9, 46, 80
2, 9840, Note_off_c, 9, 46, 64
2, 9840, Note_on_c, 9, 42, 80
2, 10080, Note_off_c, 9, 42, 64
2, 10080, Note_on_c, 9, 46, 80
2, 10320, Note_off_c, 9, 46, 64
2, 10320, Note_on_c, 9, 42, 80
2, 10560, Note_off_c, 9, 42, 64
2, 10560, Note_on_c, 9, 46, 80
2, 10800, Note_off_c, 9, 46, 64
2, 10800, Note_on_c, 9, 42, 80
2, 11040, Note_off_c, 9, 42, 64
2, 11040, Note_on_c, 9, 46, 80
2, 11280, Note_off_c, 9, 46, 64
2, 11280, Note_on_c, 9, 42, 80
2, 11520, Note_off_c, 9, 42, 64
2, 11520, Note_on_c, 9, 46, 80
2, 11760, Note_off_c, 9, 46, 64
2, 11760, Note_on_c, 9, 42, 80
2, 12000, Note_off_c, 9, 42, 64
2, 12000, Note_on_c, 9, 46, 80
2, 12240, Note_off_c, 9, 46, 64
2, 12240, Note_on_c, 9, 42, 80
2, 12480, Note_off_c, 9, 42, 64
2, 12480, Note_on_c, 9, 46, 80
2, 12720, Note_off_c, 9, 46, 64
2, 12720, Note_on_c, 9, 42, 80
2, 12960, Note_off_c, 9, 42, 64
2, 12960, Note_on_c, 9, 46, 80
2, 13200, Note_off_c, 9, 46, 64
2, 13200, Note_on_c, 9, 42, 80
2, 13440, Note_off_c, 9, 42, 64
2, 13440, Note_on_c, 9, 46, 80
2, 13680, Note_off_c, 9, 46, 64
2, 13680, Note_on_c, 9, 42, 80
2, 13920, Note_off_c, 9, 42, 64
2, 13920, Note_on_c, 9, 46, 80
2, 14160, Note_off_c, 9, 46, 64
2, 14160, Note_on_c, 9, 42, 80
2, 14400, Note_off_c, 9, 42, 64
2, 14400, Note_on_c, 9, 46, 80
2, 14640, Note_off_c, 9, 46, 64
2, 14640, Note_on_c, 9, 42, 80
2, 14880, Note_off_c, 9, 42, 64
2, 14880, Note_on_c, 9, 46, 80
2, 15120, Note_off_c, 9, 46, 64
2, 15120, Note_on_c, 9, 42, 80
2, 15360, Note_off_c, 9, 42, 64
2, 15360, Note_on_c, 9, 46, 80
2, 15600, Note_off_c, 9, 46, 64
2, 15600, Note_on_c, 9, 42, 80
2, 15840, Note_off_c, 9, 42, 64
2, 15840, Note_on_c, 9, 46, 80
2, 16080, Note_off_c, 9, 46, 64
2, 16080, Note_on_c, 9, 42, 80
2, 16320, Note_off_c, 9, 42, 64
2, 16320, Note_on_c, 9, 46, 80
2, 16560, Note_off_c, 9, 46, 64
2, 16560, Note_on_c, 9, 42, 80
2, 16800, Note_off_c, 9, 42, 64
2, 16800, Note_on_c, 9, 46, 80
2, 17040, Note_off_c, 9, 46, 64
2, 17040, Note_on_c, 9, 42, 80
2, 17280, Note_off_c, 9, 42, 64
2, 17280, Note_on_c, 9, 46, 80
2, 17520, Note_off_c, 9, 46, 64
2, 17520, Note_on_c, 9, 42, 80
2, 17760, Note_off_c, 9, 42, 64
2, 17760, Note_on_c, 9, 46, 80
2, 18000, Note_off_c, 9, 46, 64
2, 18000, Note_on_c, 9, 42, 80
2, 18240, Note_off_c, 9, 42, 64
2, 18240, Note_on_c, 9, 46, 80
2, 18480, Note_off_c, 9, 46, 64
2, 18480, Note_on_c, 9, 42, 80
2, 18720, Note_off_c, 9, 42, 64
2, 18720, Note_on_c, 9, 46, 80
2, 18960, Note_off_c, 9, 46, 64
2, 18960, Note_on_c, 9, 42, 80
2, 19200, Note_off_c, 9, 42, 64
2, 19200, Note_on_c, 9, 46, 80
2, 19440, Note_off_c, 9, 46, 64
2, 19440, Note_on_c, 9, 42, 80
2, 19680, Note_off_c, 9, 42, 64
2, 19680, Note_on_c, 9, 46, 80
2, 19920, Note_off_c, 9, 46, 64
2, 19920, Note_on_c, 9, 42, 80
2, 20160, Note_off_c, 9, 42, 64
2, 20160, Note_on_c, 9, 46, 80
2, 20400, Note_off_c, 9, 46, 64
2, 20400, Note_on_c, 9, 42, 80
2, 20640, Note_off_c, 9, 42, 64
2, 20640, Note_on_c, 9, 46, 80
2, 20880, Note_off_c, 9, 46, 64
2, 20880, Note_on_c, 9, 42, 80
2, 21120, Note_off_c, 9, 42, 64
2, 21120, Note_on_c, 9, 46, 80
2, 21360, Note_off_c, 9, 46, 64
2, 21360, Note_on_c, 9, 42, 80
2, 21600, Note_off_c, 9, 42, 64
2, 21600, Note_on_c, 9, 46, 80
2, 21840, Note_off_c, 9, 46, 64
2, 21840, Note_on_c, 9, 42, 80
2, 22080, Note_off_c, 9, 42, 64
2, 22080, Note_on_c, 9, 46, 80
2, 22320, Note_off_c, 9, 46, 64
2, 22320, Note_on_c, 9, 42, 80
2, 22560, Note_off_c, 9, 42, 64
2, 22560, Note_on_c, 9, 46, 80
2, 22800, Note_off_c, 9, 46, 64
2, 22800, Note_on_c, 9, 42, 80
2, 23040, Note_off_c, 9, 42, 64
2, 23040, Note_on_c, 9, 46, 80
2, 23280, Note_off_c, 9, 46, 64
2, 23280, Note_on_c, 9, 42, 80
2, 23520, Note_off_c, 9, 42, 64
2, 23520, Note_on_c, 9, 46, 80
2, 23760, Note_off_c, 9, 46, 64
2, 23760, Note_on_c, 9, 42, 80
2, 24000, Note_off_c, 9, 42, 64
2, 24000, Note_on_c, 9, 46, 80
2, 24240, Note_off_c, 9, 46, 64
2, 24240, Note_on_c, 9, 42, 80
2, 24480, Note_off_c, 9, 42, 64
2, 24480, Note_on_c, 9, 46, 80
2, 24720, Note_off_c, 9, 46, 64
2, 24720, Note_on_c, 9, 42, 80
2, 24960, Note_off_c, 9, 42, 64
2, 24960, Note_on_c, 9, 46, 80
2, 25200, Note_off_c, 9, 46, 64
2, 25200, Note_on_c, 9, 42, 80
2, 25440, Note_off_c, 9, 42, 64
2, 25440, Note_on_c, 9, 46, 80
2, 25680, Note_off_c, 9, 46, 64
2, 25680, Note_on_c, 9, 42, 80
2, 25920, Note_off_c, 9, 42, 64
2, 25920, Note_on_c, 9, 46, 80
2, 26160, Note_off_c, 9, 46, 64
2, 26160, Note_on_c, 9, 42, 80
2, 26400, Note_off_c, 9, 42, 64
2, 26400, Note_on_c, 9, 46, 80
2, 26640, Note_off_c, 9, 46, 64
2, 26640, Note_on_c, 9, 42, 80
2, 26880, Note_off_c, 9, 42, 64
2, 26880, Note_on_c, 9, 46, 80
2, 27120, Note_off_c, 9, 46, 64
2, 27120, Note_on_c, 9, 42, 80
2, 27360, Note_off_c, 9, 42, 64
2, 27360, Note_on_c, 9, 46, 80
2, 27600, Note_off_c, 9, 46, 64
2, 27600, Note_on_c, 9, 42, 80
2, 27840, Note_off_c, 9, 42, 64
2, 27840, Note_on_c, 9, 46, 80
2, 28080, Note_off_c, 9, 46, 64
2, 28080, Note_on_c, 9, 42, 80
2, 28320, Note_off_c, 9, 42, 64
2, 28320, Note_on_c, 9, 46, 80
2, 28560, Note_off_c, 9, 46, 64
2, 28560, Note_on_c, 9, 42, 80
2, 28800, Note_off_c, 9, 42, 64
2, 28800, Note_on_c, 9, 46, 80
2, 29040, Note_off_c, 9, 46, 64
2, 29040, Note_on_c, 9, 42, 80
2, 29280, Note_off_c, 9, 42, 64
2, 29280, Note_on_c, 9, 46, 80
2, 29520, Note_off_c, 9, 46, 64
2, 29520, Note_on_c, 9, 42, 80
2, 29760, Note_off_c, 9, 42, 64
2, 29760, Note_on_c, 9, 46, 80
2, 30000, Note_off_c, 9, 46, 64
2, 30000, Note_on_c, 9, 42, 80
2, 30240, Note_off_c, 9, 42, 64
2, 30240, Note_on_c, 9, 46, 80
2, 30480, Note_off_c, 9, 46, 64
2, 30480, Note_on_c, 9, 42, 80
2, 30720, Note_off_c, 9, 42, 64
2, 30720, Note_on_c, 9, 46, 80
2, 30960, Note_off_c, 9, 46, 64
2, 30960, Note_on_c, 9, 42, 80
2, 31200, Note_off_c, 9, 42, 64
2, 31200, Note_on_c, 9, 46, 80
2, 31440, Note_off_c, 9, 46, 64
2, 31440, Note_on_c, 9, 42, 80
2, 31680, Note_off_c, 9, 42, 64
2, 31680, Note_on_c, 9, 46, 80
2, 31920, Note_off_c, 9, 46, 64
2, 31920, Note_on_c, 9, 42, 80
2, 32160, Note_off_c, 9, 42, 64
2, 32160, Note_on_c, 9, 46, 80
2, 32400, Note_off_c, 9, 46, 64
2, 32400, Note_on_c, 9, 42, 80
2, 32640, Note_off_c, 9, 42, 64
2, 32640, Note_on_c, 9, 46, 80
2, 32880, Note_off_c, 9, 46, 64
2, 32880, Note_on_c, 9, 42, 80
2, 33120, Note_off_c, 9, 42, 64
2, 33120, Note_on_c, 9, 46, 80
2, 33360, Note_off_c, 9, 46, 64
2, 33360, Note_on_c, 9, 42, 80
2, 33600, Note_off_c, 9, 42, 64
2, 33600, Note_on_c, 9, 46, 80
2, 33840, Note_off_c, 9, 46, 64
2, 33840, Note_on_c, 9, 42, 80
2, 34080, Note_off_c, 9, 42, 64
2, 34080, Note_on_c, 9, 46, 80
2, 34320, Note_off_c, 9, 46, 64
2, 34320, Note_on_c, 9, 42, 80
2, 34560, Note_off_c, 9, 42, 64
2, 34560, Note_on_c, 9, 46, 80
2, 34800, Note_off_c, 9, 46, 64
2, 34800, Note_on_c, 9, 42, 80
2, 35040, Note_off_c, 9, 42, 64
2, 35040, Note_on_c, 9, 46, 80
2, 35280, Note_off_c, 9, 46, 64
2, 35280, Note_on_c, 9, 42, 80
2, 35520, Note_off_c, 9, 42, 64
2, 35520, Note_on_c, 9, 46, 80
2, 35760, Note_off_c, 9, 46, 64
2, 35760, Note_on_c, 9, 42, 80
2, 36000, Note_off_c, 9, 42, 64
2, 36000, Note_on_c, 9, 46, 80
2, 36240, Note_off_c, 9, 46, 64
2, 36240, Note_on_c, 9, 42, 80
2, 36480, Note_off_c, 9, 42, 64
2, 36480, Note_on_c, 9, 46, 80
2, 36720, Note_off_c, 9, 46, 64
2, 36720, Note_on_c, 9, 42, 80
2, 36960, Note_off_c, 9, 42, 64
2, 36960, Note_on_c, 9, 46, 80
2, 37200, Note_off_c, 9, 46, 64
2, 37200, Note_on_c, 9, 42, 80
2, 37440, Note_off_c, 9, 42, 64
2, 37440, Note_on_c, 9, 46, 80
2, 37680, Note_off_c, 9, 46, 64
2, 37680, Note_on_c, 9, 42, 80
2, 37920, Note_off_c, 9, 42, 64
2, 37920, Note_on_c, 9, 46, 80
2, 38160, Note_off_c, 9, 46, 64
2, 38160, Note_on_c, 9, 42, 80
2, 38400, Note_off_c, 9, 42, 64
2, 38400, Note_on_c, 9, 46, 80
2, 38640, Note_off_c, 9, 46, 64
2, 38640, Note_on_c, 9, 42, 80
2, 38880, Note_off_c, 9, 42, 64
2, 38880, Note_on_c, 9, 46, 80
2, 39120, Note_off_c, 9, 46, 64
2, 39120, Note_on_c, 9, 42, 80
2, 39360, Note_off_c, 9, 42, 64
2, 39360, Note_on_c, 9, 46, 80
2, 39600, Note_off_c, 9, 46, 64
2, 39600, Note_on_c, 9, 42, 80
2, 39840, Note_off_c, 9, 42, 64
2, 39840, Note_on_c, 9, 46, 80
2, 40080, Note_off_c, 9, 46, 64
2, 40080, Note_on_c, 9, 42, 80
2, 40320, Note_off_c, 9, 42, 64
2, 40320, Note_on_c, 9, 46, 80
2, 40560, Note_off_c, 9, 46, 64
2, 40560, Note_on_c, 9, 42, 80
2, 40800, Note_off_c, 9, 42, 64
2, 40800, Note_on_c, 9, 46, 80
2, 41040, Note_off_c, 9, 46, 64
2, 41040, Note_on_c, 9, 42, 80
2, 41280, Note_off_c, 9, 42, 64
2, 41280, Note_on_c, 9, 46, 80
2, 41520, Note_off_c, 9, 46, 64
2, 41520, Note_on_c, 9, 42, 80
2, 41760, Note_off_c, 9, 42, 64
2, 41760, Note_on_c, 9, 46, 80
2, 42000, Note_off_c, 9, 46, 64
2, 42000, Note_on_c, 9, 42, 80
2, 42240, Note_off_c, 9, 42, 64
2, 42240, Note_on_c, 9, 46, 80
2, 42480, Note_off_c, 9, 46, 64
2, 42480, Note_on_c, 9, 42, 80
2, 42720, Note_off_c, 9, 42, 64
2, 42720, Note_on_c, 9, 46, 80
2, 42960, Note_off_c, 9, 46, 64
2, 42960, Note_on_c, 9, 42, 80
2, 43200, Note_off_c, 9, 42, 64
2, 43200, Note_on_c, 9, 46, 80
2, 43440, Note_off_c, 9, 46, 64
2, 43440, Note_on_c, 9, 42, 80
2, 43680, Note_off_c, 9, 42, 64
2, 43680, Note_on_c, 9, 46, 80
2, 43920, Note_off_c, 9, 46, 64
2, 43920, Note_on_c, 9, 42, 80
2, 44160, Note_off_c, 9, 42, 64
2, 44160, Note_on_c, 9, 46, 80
2, 44400, Note_off_c, 9, 46, 64
2, 44400, Note_on_c, 9, 42, 80
2, 44640, Note_off_c, 9, 42, 64
2, 44640, Note_on_c, 9, 46, 80
2, 44880, Note_off_c, 9, 46, 64
2, 44880, Note_on_c, 9, 42, 80
2, 45120, Note_off_c, 9, 42, 64
2, 45120, Note_on_c, 9, 46, 80
2, 45360, Note_off_c, 9, 46, 64
2, 45360, Note_on_c, 9, 42, 80
2, 45600, Note_off_c, 9, 42, 64
2, 45600, Note_on_c, 9, 46, 80
2, 45840, Note_off_c, 9, 46, 64
2, 45840, Note_on_c, 9, 42, 80
2, 46080, Note_off_c, 9, 42, 64
2, 46080, Note_on_c, 9, 46, 80
2, 46320, Note_off_c, 9, 46, 64
2, 46320, Note_on_c, 9, 42, 80
2, 46560, Note_off_c, 9, 42, 64
2, 46560, Note_on_c, 9, 46, 80
2, 46800, Note_off_c, 9, 46, 64
2, 46800, Note_on_c, 9, 42, 80
2, 47040, Note_off_c, 9, 42, 64
2, 47040, Note_on_c, 9, 46, 80
2, 47280, Note_off_c, 9, 46, 64
2, 47280, Note_on_c, 9, 42, 80
2, 47520, Note_off_c, 9, 42, 64
2, 47520, Note_on_c, 9, 46, 80
2, 47760, Note_off_c, 9, 46, 64
2, 47760, Note_on_c, 9, 42, 80
2, 48000, Note_off_c, 9, 42, 64
2, 48000, Note_on_c, 9, 46, 80
2, 48240, Note_off_c, 9, 46, 64
2, 48240, Note_on_c, 9, 42, 80
2, 48480, Note_off_c, 9, 42, 64
2, 48480, Note_on_c, 9, 46, 80
2, 48720, Note_off_c, 9, 46, 64
2, 48720, Note_on_c, 9, 42, 80
2, 48960, Note_off_c, 9, 42, 64
2, 48960, Note_on_c, 9, 46, 80
2, 49200, Note_off_c, 9, 46, 64
2, 49200, Note_on_c, 9, 42, 80
2, 49440, Note_off_c, 9, 42, 64
2, 49440, Note_on_c, 9, 46, 80
2, 49680, Note_off_c, 9, 46, 64
2, 49680, Note_on_c, 9, 42, 80
2, 49920, Note_off_c, 9, 42, 64
2, 49920, Note_on_c, 9, 46, 80
2, 50160, Note_off_c, 9, 46, 64
2, 50160, Note_on_c, 9, 42, 80
2, 50400, Note_off_c, 9, 42, 64
2, 50400, Note_on_c, 9, 46, 80
2, 50640, Note_off_c, 9, 46, 64
2, 50640, Note_on_c, 9, 42, 80
2, 50880, Note_off_c, 9, 42, 64
2, 50880, Note_on_c, 9, 46, 80
2, 51120, Note_off_c, 9, 46, 64
2, 51120, Note_on_c, 9, 42, 80
2, 51360, Note_off_c, 9, 42, 64
2, 51360, Note_on_c, 9, 46, 80
2, 51600, Note_off_c, 9, 46, 64
2, 51600, Note_on_c, 9, 42, 80
2, 51840, Note_off_c, 9, 42, 64
2, 51840, Note_on_c, 9, 46, 80
2, 52080, Note_off_c, 9, 46, 64
2, 52080, Note_on_c, 9, 42, 80
2, 52320, Note_off_c, 9, 42, 64
2, 52320, Note_on_c, 9, 46, 80
2, 52560, Note_off_c, 9, 46, 64
2, 52560, Note_on_c, 9, 42, 80
2, 52800, Note_off_c, 9, 42, 64
2, 52800, Note_on_c, 9, 46, 80
2, 53040, Note_off_c, 9, 46, 64
2, 53040, Note_on_c, 9, 42, 80
2, 53280, Note_off_c, 9, 42, 64
2, 53280, Note_on_c, 9, 46, 80
2, 53520, Note_off_c, 9, 46, 64
2, 53520, Note_on_c, 9, 42, 80
2, 53760, Note_off_c, 9, 42, 64
2, 53760, Note_on_c, 9, 46, 80
2, 54000, Note_off_c, 9, 46, 64
2, 54000, Note_on_c, 9, 42, 80
2, 54240, Note_off_c, 9, 42, 64
2, 54240, Note_on_c, 9, 46, 80
2, 54480, Note_off_c, 9, 46, 64
2, 54480, Note_on_c, 9, 42, 80
2, 54720, Note_off_c, 9, 42, 64
2, 54720, Note_on_c, 9, 46, 80
2, 54960, Note_off_c, 9, 46, 64
2, 54960, Note_on_c, 9, 42, 80
2, 55200, Note_off_c, 9, 42, 64
2, 55200, Note_on_c, 9, 46, 80
2, 55440, Note_off_c, 9, 46, 64
2, 55440, Note_on_c, 9, 42, 80
2, 55680, Note_off_c, 9, 42, 64
2, 55680, Note_on_c, 9, 46, 80
2, 55920, Note_off_c, 9, 46, 64
2, 55920, Note_on_c, 9, 42, 80
2, 56160, Note_off_c, 9, 42, 64
2, 56160, Note_on_c, 9, 46, 80
2, 56400, Note_off_c, 9, 46, 64
2, 56400, Note_on_c, 9, 42, 80
2, 56640, Note_off_c, 9, 42, 64
2, 56640, Note_on_c, 9, 46, 80
2, 56880, Note_off_c, 9, 46, 64
2, 56880, Note_on_c, 9, 42, 80
2, 57120, Note_off_c, 9, 42, 64
2, 57120, Note_on_c, 9, 46, 80
2, 57360, Note_off_c, 9, 46, 64
2, 57360, Note_on_c, 9, 42, 80
2, 57600, Note_off_c, 9, 42, 64
2, 57600, Note_on_c, 9, 46, 80
2, 57840, Note_off_c, 9, 46, 64
2, 57840, Note_on_c, 9, 42, 80
2, 58080, Note_off_c, 9, 42, 64
2, 58080, Note_on_c, 9, 46, 80
2, 58320, Note_off_c, 9, 46, 64
2, 58320, Note_on_c, 9, 42, 80
2, 58560, Note_off_c, 9, 42, 64
2, 58560, Note_on_c, 9, 46, 80
2, 58800, Note_off_c, 9, 46, 64
2, 58800, Note_on_c, 9, 42, 80
2, 59040, Note_off_c, 9, 42, 64
2, 59040, Note_on_c, 9, 46, 80
2, 59280, Note_off_c, 9, 46, 64
2, 59280, Note_on_c, 9, 42, 80
2, 59520, Note_off_c, 9, 42, 64
2, 59520, Note_on_c, 9, 46, 80
2, 59760, Note_off_c, 9, 46, 64
2, 59760, Note_on_c, 9, 42, 80
2, 60000, Note_off_c, 9, 42, 64
2, 60000, Note_on_c, 9, 46, 80
2, 60240, Note_off_c, 9, 46, 64
2, 60240, Note_on_c, 9, 42, 80
2, 60480, Note_off_c, 9, 42, 64
2, 60480, Note_on_c, 9, 46, 80
2, 60720, Note_off_c, 9, 46, 64
2, 60720, Note_on_c, 9, 42, 80
2, 60960, Note_off_c, 9, 42, 64
2, 60960, Note_on_c, 9, 46, 80
2, 61200, Note_off_c, 9, 46, 64
2, 61200, Note_on_c, 9, 42, 80
2, 61440, Note_off_c, 9, 42, 64
2, 61440, Note_on_c, 9, 46, 80
2, 61680, Note_off_c, 9, 46, 64
2, 61680, Note_on_c, 9, 42, 80
2, 61920, Note_off_c, 9, 42, 64
2, 61920, Note_on_c, 9, 46, 80
2, 62160, Note_off_c, 9, 46, 64
2, 62160, Note_on_c, 9, 42, 80
2, 62400, Note_off_c, 9, 42, 64
2, 62400, Note_on_c, 9, 46, 80
2, 62640, Note_off_c, 9, 46, 64
2, 62640, Note_on_c, 9, 42, 80
2, 62880, Note_off_c, 9, 42, 64
2, 62880, Note_on_c, 9, 46, 80
2, 63120, Note_off_c, 9, 46, 64
2, 63120, Note_on_c, 9, 42, 80
2, 63360, Note_off_c, 9, 42, 64
2, 63360, Note_on_c, 9, 46, 80
2, 63600, Note_off_c, 9, 46, 64
2, 63600, Note_on_c, 9, 42, 80
2, 63840, Note_off_c, 9, 42, 64
2, 63840, Note_on_c, 9, 46, 80
2, 64080, Note_off_c, 9, 46, 64
2, 64080, Note_on_c, 9, 42, 80
2, 64320, Note_off_c, 9, 42, 64
2, 64320, Note_on_c, 9, 46, 80
2, 64560, Note_off_c, 9, 46, 64
2, 64560, Note_on_c, 9, 42, 80
2, 64800, Note_off_c, 9, 42, 64
2, 64800, Note_on_c, 9, 46, 80
2, 65040, Note_off_c, 9, 46, 64
2, 65040, Note_on_c, 9, 42, 80
2, 65280, Note_off_c, 9, 42, 64
2, 65280, Note_on_c, 9, 46, 80
2, 65520, Note_off_c, 9, 46, 64
2, 65520, Note_on_c, 9, 42, 80
2, 65760, Note_off_c, 9, 42, 64
2, 65760, Note_on_c, 9, 46, 80
2, 66000, Note_off_c, 9, 46, 64
2, 66000, Note_on_c, 9, 42, 80
2, 66240, Note_off_c, 9, 42, 64
2, 66240, Note_on_c, 9, 46, 80
2, 66480, Note_off_c, 9, 46, 64
2, 66480, Note_on_c, 9, 42, 80
2, 66720, Note_off_c, 9, 42, 64
2, 66720, Note_on_c, 9, 46, 80
2, 66960, Note_off_c, 9, 46, 64
2, 66960, Note_on_c, 9, 42, 80
2, 67200, Note_off_c, 9, 42, 64
2, 67200, Note_on_c, 9, 46, 80
2, 67440, Note_off_c, 9, 46, 64
2, 67440, Note_on_c, 9, 42, 80
2, 67680, Note_off_c, 9, 42, 64
2, 67680, Note_on_c, 9, 46, 80
2, 67920, Note_off_c, 9, 46, 64
2, 67920, Note_on_c, 9, 42, 80
2, 68160, Note_off_c, 9, 42, 64
2, 68160, Note_on_c, 9, 46, 80
2, 68400, Note_off_c, 9, 46, 64
2, 68400, Note_on_c, 9, 42, 80
2, 68640, Note_off_c, 9, 42, 64
2, 68640, Note_on_c, 9, 46, 80
2, 68880, Note_off_c, 9, 46, 64
2, 68880, Note_on_c, 9, 42, 80
2, 69120, Note_off_c, 9, 42, 64
2, 69120, Note_on_c, 9, 46, 80
2, 69360, Note_off_c, 9, 46, 64
2, 69360, Note_on_c, 9, 42, 80
2, 69600, Note_off_c, 9, 42, 64
2, 69600, Note_on_c, 9, 46, 80
2, 69840, Note_off_c, 9, 46, 64
2, 69840, Note_on_c, 9, 42, 80
2, 70080, Note_off_c, 9, 42, 64
2, 70080, Note_on_c, 9, 46, 80
2, 70320, Note_off_c, 9, 46, 64
2, 70320, Note_on_c, 9, 42, 80
2, 70560, Note_off_c, 9, 42, 64
2, 70560, Note_on_c, 9, 46, 80
2, 70800, Note_off_c, 9, 46, 64
2, 70800, Note_on_c, 9, 42, 80
2, 71040, Note_off_c, 9, 42, 64
2, 71040, Note_on_c, 9, 46, 80
2, 71280, Note_off_c, 9, 46, 64
2, 71280, Note_on_c, 9, 42, 80
2, 71520, Note_off_c, 9, 42, 64
2, 71520, Note_on_c, 9, 46, 80
2, 71760, Note_off_c, 9, 46, 64
2, 71760, Note_on_c, 9, 42, 80
2, 72000, Note_off_c, 9, 42, 64
2, 72000, Note_on_c, 9, 46, 80
2, 72240, Note_off_c, 9, 46, 64
2, 72240, Note_on_c, 9, 42, 80
2, 72480, Note_off_c, 9, 42, 64
2, 72480, Note_on_c, 9, 46, 80
2, 72720, Note_off_c, 9, 46, 64
2, 72720, Note_on_c, 9, 42, 80
2, 72960, Note_off_c, 9, 42, 64
2, 72960, Note_on_c, 9, 46, 80
2, 73200, Note_off_c, 9, 46, 64
2, 73200, Note_on_c, 9, 42, 80
2, 73440, Note_off_c, 9, 42, 64
2, 73440, Note_on_c, 9, 46, 80
2, 73680, Note_off_c, 9, 46, 64
2, 73680, Note_on_c, 9, 42, 80
2, 73920, Note_off_c, 9, 42, 64
2, 73920, Note_on_c, 9, 46, 80
2, 74160, Note_off_c, 9, 46, 64
2, 74160, Note_on_c, 9, 42, 80
2, 74400, Note_off_c, 9, 42, 64
2, 74400, Note_on_c, 9, 46, 80
2, 74640, Note_off_c, 9, 46, 64
2, 74640, Note_on_c, 9, 42, 80
2, 74880, Note_off_c, 9, 42, 64
2, 74880, Note_on_c, 9, 46, 80
2, 75120, Note_off_c, 9, 46, 64
2, 75120, Note_on_c, 9, 42, 80
2, 75360, Note_off_c, 9, 42, 64
2, 75360, Note_on_c, 9, 46, 80
2, 75600, Note_off_c, 9, 46, 64
2, 75600, Note_on_c, 9, 42, 80
2, 75840, Note_off_c, 9, 42, 64
2, 75840, Note_on_c, 9, 46, 80
2, 76080, Note_off_c, 9, 46, 64
2, 76080, Note_on_c, 9, 42, 80
2, 76320, Note_off_c, 9, 42, 64
2, 76320, Note_on_c, 9, 46, 80
2, 76560, Note_off_c, 9, 46, 64
2, 76560, Note_on_c, 9, 42, 80
2, 76800, Note_off_c, 9, 42, 64
2, 76800, Note_on_c, 9, 46, 80
2, 77040, Note_off_c, 9, 46, 64
2, 77040, Note_on_c, 9, 42, 80
2, 77280, Note_off_c, 9, 42, 64
2, 77280, Note_on_c, 9, 46, 80
2, 77520, Note_off_c, 9, 46, 64
2, 77520, Note_on_c, 9, 42, 80
2, 77760, Note_off_c, 9, 42, 64
2, 77760, Note_on_c, 9, 46, 80
2, 78000, Note_off_c, 9, 46, 64
2, 78000, Note_on_c, 9, 42, 80
2, 78240, Note_off_c, 9, 42, 64
2, 78240, Note_on_c, 9, 46, 80
2, 78480, Note_off_c, 9, 46, 64
2, 78480, Note_on_c, 9, 42, 80
2, 78720, Note_off_c, 9, 42, 64
2, 78720, Note_on_c, 9, 46, 80
2, 78960, Note_off_c, 9, 46, 64
2, 78960, Note_on_c, 9, 42, 80
2, 79200, Note_off_c, 9, 42, 64
2, 79200, Note_on_c, 9, 46, 80
2, 79440, Note_off_c, 9, 46, 64
2, 79440, Note_on_c, 9, 42, 80
2, 79680, Note_off_c, 9, 42, 64
2, 79680, Note_on_c, 9, 46, 80
2, 79920, Note_off_c, 9, 46, 64
2, 79920, Note_on_c, 9, 42, 80
2, 80160, Note_off_c, 9, 42, 64
2, 80160, Note_on_c, 9, 46, 80
2, 80400, Note_off_c, 9, 46, 64
2, 80400, Note_on_c, 9, 42, 80
2, 80640, Note_off_c, 9, 42, 64
2, 80640, Note_on_c, 9, 46, 80
2, 80880, Note_off_c, 9, 46, 64
2, 80880, Note_on_c, 9, 42, 80
2, 81120, Note_off_c, 9, 42, 64
2, 81120, Note_on_c, 9, 46, 80
2, 81360, Note_off_c, 9, 46, 64
2, 81360, Note_on_c, 9, 42, 80
2, 81600, Note_off_c, 9, 42, 64
2, 81600, Note_on_c, 9, 46, 80
2, 81840, Note_off_c, 9, 46, 64
2, 81840, Note_on_c, 9, 42, 80
2, 82080, Note_off_c, 9, 42, 64
2, 82080, Note_on_c, 9, 46, 80
2, 82320, Note_off_c, 9, 46, 64
2, 82320, Note_on_c, 9, 42, 80
2, 82560, Note_off_c, 9, 42, 64
2, 82560, Note_on_c, 9, 46, 80
2, 82800, Note_off_c, 9, 46, 64
2, 82800, Note_on_c, 9, 42, 80
2, 83040, Note_off_c, 9, 42, 64
2, 83040, Note_on_c, 9, 46, 80
2, 83280, Note_off_c, 9, 46, 64
2, 83280, Note_on_c, 9, 42, 80
2, 83520, Note_off_c, 9, 42, 64
2, 83520, Note_on_c, 9, 46, 80
2, 83760, Note_off_c, 9, 46, 64
2, 83760, Note_on_c, 9, 42, 80
2, 84000, Note_off_c, 9, 42, 64
2, 84000, Note_on_c, 9, 46, 80
2, 84240, Note_off_c, 9, 46, 64
2, 84240, Note_on_c, 9, 42, 80
2, 84480, Note_off_c, 9, 42, 64
2, 84480, Note_on_c, 9, 46, 80
2, 84720, Note_off_c, 9, 46, 64
2, 84720, Note_on_c, 9, 42, 80
2, 84960, Note_off_c, 9, 42, 64
2, 84960, Note_on_c, 9, 46, 80
2, 85200, Note_off_c, 9, 46, 64
2, 85200, Note_on_c, 9, 42, 80
2, 85440, Note_off_c, 9, 42, 64
2, 85440, Note_on_c, 9, 46, 80
2, 85680, Note_off_c, 9, 46, 64
2, 85680, Note_on_c, 9, 42, 80
2, 85920, Note_off_c, 9, 42, 64
2, 85920, Note_on_c, 9, 46, 80
2, 86160, Note_off_c, 9, 46, 64
2, 86160, Note_on_c, 9, 42, 80
2, 86400, Note_off_c, 9, 42, 64
2, 86400, Note_on_c, 9, 46, 80
2, 86640, Note_off_c, 9, 46, 64
2, 86640, Note_on_c, 9, 42, 80
2, 86880, Note_off_c, 9, 42, 64
2, 86880, Note_on_c, 9, 46, 80
2, 87120, Note_off_c, 9, 46, 64
2, 87120, Note_on_c, 9, 42, 80
2, 87360, Note_off_c, 9, 42, 64
2, 87360, Note_on_c, 9, 46, 80
2, 87600, Note_off_c, 9, 46, 64
2, 87600, Note_on_c, 9, 42, 80
2, 87840, Note_off_c, 9, 42, 64
2, 87840, Note_on_c, 9, 46, 80
2, 88080, Note_off_c, 9, 46, 64
2, 88080, Note_on_c, 9, 42, 80
2, 88320, Note_off_c, 9, 42, 64
2, 88320, Note_on_c, 9, 46, 80
2, 88560, Note_off_c, 9, 46, 64
2, 88560, Note_on_c, 9, 42, 80
2, 88800, Note_off_c, 9, 42, 64
2, 88800, Note_on_c, 9, 46, 80
2, 89040, Note_off_c, 9, 46, 64
2, 89040, Note_on_c, 9, 42, 80
2, 89280, Note_off_c, 9, 42, 64
2, 89280, Note_on_c, 9, 46, 80
2, 89520, Note_off_c, 9, 46, 64
2, 89520, Note_on_c, 9, 42, 80
2, 89760, Note_off_c, 9, 42, 64
2, 89760, Note_on_c, 9, 46, 80
2, 90000, Note_off_c, 9, 46, 64
2, 90000, Note_on_c, 9, 42, 80
2, 90240, Note_off_c, 9, 42, 64
2, 90240, Note_on_c, 9, 46, 80
2, 90480, Note_off_c, 9, 46, 64
2, 90480, Note_on_c, 9, 42, 80
2, 90720, Note_off_c, 9, 42, 64
2, 90720, Note_on_c, 9, 46, 80
2, 90960, Note_off_c, 9, 46, 64
2, 90960, Note_on_c, 9, 42, 80
2, 91200, Note_off_c, 9, 42, 64
2, 91200, Note_on_c, 9, 46, 80
2, 91440, Note_off_c, 9, 46, 64
2, 91440, Note_on_c, 9, 42, 80
2, 91680, Note_off_c, 9, 42, 64
2, 91680, Note_on_c, 9, 46, 80
2, 91920, Note_off_c, 9, 46, 64
2, 91920, Note_on_c, 9, 42, 80
2, 92160, Note_off_c, 9, 42, 64
2, 92160, Note_on_c, 9, 46, 80
2, 92400, Note_off_c, 9, 46, 64
2, 92400, Note_on_c, 9, 42, 80
2, 92640, Note_off_c, 9, 42, 64
2, 92640, Note_on_c, 9, 46, 80
2, 92880, Note_off_c, 9, 46, 64
2, 92880, Note_on_c, 9, 42, 80
2, 93120, Note_off_c, 9, 42, 64
2, 93120, Note_on_c, 9, 46, 80
2, 93360, Note_off_c, 9, 46, 64
2, 93360, Note_on_c, 9, 42, 80
2, 93600, Note_off_c, 9, 42, 64
2, 93600, Note_on_c, 9, 46, 80
2, 93840, Note_off_c, 9, 46, 64
2, 93840, Note_on_c, 9, 42, 80
2, 94080, Note_off_c, 9, 42, 64
2, 94080, Note_on_c, 9, 46, 80
2, 94320, Note_off_c, 9, 46, 64
2, 94320, Note_on_c, 9, 42, 80
2, 94560, Note_off_c, 9, 42, 64
2, 94560, Note_on_c, 9, 46, 80
2, 94800, Note_off_c, 9, 46, 64
2, 94800, Note_on_c, 9, 42, 80
2, 95040, Note_off_c, 9, 42, 64
2, 95040, Note_on_c, 9, 46, 80
2, 95280, Note_off_c, 9, 46, 64
2, 95280, Note_on_c, 9, 42, 80
2, 95520, Note_off_c, 9, 42, 64
2, 95520, Note_on_c, 9, 46, 80
2, 95760, Note_off_c, 9, 46, 64
2, 95760, Note_on_c, 9, 42, 80
2, 96000, Note_off_c, 9, 42, 64
2, 96000, Note_on_c, 9, 46, 80
2, 96240, Note_off_c, 9, 46, 64
2, 96240, Note_on_c, 9, 42, 80
2, 96480, Note_off_c, 9, 42, 64
2, 96480, Note_on_c, 9, 46, 80
2, 96720, Note_off_c, 9, 46, 64
2, 96720, Note_on_c, 9, 42, 80
2, 96960, Note_off_c, 9, 42, 64
2, 96960, Note_on_c, 9, 46, 80
2, 97200, Note_off_c, 9, 46, 64
2, 97200, Note_on_c, 9, 42, 80
2, 97440, Note_off_c, 9, 42, 64
2, 97440, Note_on_c, 9, 46, 80
2, 97680, Note_off_c, 9, 46, 64
2, 97680, Note_on_c, 9, 42, 80
2, 97920, Note_off_c, 9, 42, 64
2, 97920, Note_on_c, 9, 46, 80
2, 98160, Note_off_c, 9, 46, 64
2, 98160, Note_on_c, 9, 42, 80
2, 98400, Note_off_c, 9, 42, 64
2, 98400, Note_on_c, 9, 46, 80
2, 98640, Note_off_c, 9, 46, 64
2, 98640, Note_on_c, 9, 42, 80
2, 98880, Note_off_c, 9, 42, 64
2, 98880, Note_on_c, 9, 46, 80
2, 99120, Note_off_c, 9, 46, 64
2, 99120, Note_on_c, 9, 42, 80
2, 99360, Note_off_c, 9, 42, 64
2, 99360, Note_on_c, 9, 46, 80
2, 99600, Note_off_c, 9, 46, 64
2, 99600, Note_on_c, 9, 42, 80
2, 99840, Note_off_c, 9, 42, 64
2, 99840, Note_on_c, 9, 46, 80
2, 100080, Note_off_c, 9, 46, 64
2, 100080, Note_on_c, 9, 42, 80
2, 100320, Note_off_c, 9, 42, 64
2, 100320, Note_on_c, 9, 46, 80
2, 100560, Note_off_c, 9, 46, 64
2, 100560, Note_on_c, 9, 42, 80
2, 100800, Note_off_c, 9, 42, 64
2, 100800, Note_on_c, 9, 46, 80
2, 101040, Note_off_c, 9, 46, 64
2, 101040, Note_on_c, 9, 42, 80
2, 101280, Note_off_c, 9, 42, 64
2, 101280, Note_on_c, 9, 46, 80
2, 101520, Note_off_c, 9, 46, 64
2, 101520, Note_on_c, 9, 42, 80
2, 101760, Note_off_c, 9, 42, 64
2, 101760, Note_on_c, 9, 46, 80
2, 102000, Note_off_c, 9, 46, 64
2, 102000, Note_on_c, 9, 42, 80
2, 102240, Note_off_c, 9, 42, 64
2, 102240, Note_on_c, 9, 46, 80
2, 102480, Note_off_c, 9, 46, 64
2, 102480, Note_on_c, 9, 42, 80
2, 102720, Note_off_c, 9, 42, 64
2, 102720, Note_on_c, 9, 46, 80
2, 102960, Note_off_c, 9, 46, 64
2, 102960, Note_on_c, 9, 42, 80
2, 103200, Note_off_c, 9, 42, 64
2, 103200, Note_on_c, 9, 46, 80
2, 103440, Note_off_c, 9, 46, 64
2, 103440, Note_on_c, 9, 42, 80
2, 103680, Note_off_c, 9, 42, 64
2, 103680, Note_on_c, 9, 46, 80
2, 103920, Note_off_c, 9, 46, 64
2, 103920, Note_on_c, 9, 42, 80
2, 104160, Note_off_c, 9, 42, 64
2, 104160, Note_on_c, 9, 46, 80
2, 104400, Note_off_c, 9, 46, 64
2, 104400, Note_on_c, 9, 42, 80
2, 104640, Note_off_c, 9, 42, 64
2, 104640, Note_on_c, 9, 46, 80
2, 104880, Note_off_c, 9, 46, 64
2, 104880, Note_on_c, 9, 42, 80
2, 105120, Note_off_c, 9, 42, 64
2, 105120, Note_on_c, 9, 46, 80
2, 105360, Note_off_c, 9, 46, 64
2, 105360, Note_on_c, 9, 42, 80
2, 105600, Note_off_c, 9, 42, 64
2, 105600, Note_on_c, 9, 46, 80
2, 105840, Note_off_c, 9, 46, 64
2, 105840, Note_on_c, 9, 42, 80
2, 106080, Note_off_c, 9, 42, 64
2, 106080, Note_on_c, 9, 46, 80
2, 106320, Note_off_c, 9, 46, 64
2, 106320, Note_on_c, 9, 42, 80
2, 106560, Note_off_c, 9, 42, 64
2, 106560, Note_on_c, 9, 46, 80
2, 106800, Note_off_c, 9, 46, 64
2, 106800, Note_on_c, 9, 42, 80
2, 107040, Note_off_c, 9, 42, 64
2, 107040, Note_on_c, 9, 46, 80
2, 107280, Note_off_c, 9, 46, 64
2, 107280, Note_on_c, 9, 42, 80
2, 107520, Note_off_c, 9, 42, 64
2, 107520, Note_on_c, 9, 46, 80
2, 107760, Note_off_c, 9, 46, 64
2, 107760, Note_on_c, 9, 42, 80
2, 108000, Note_off_c, 9, 42, 64
2, 108000, Note_on_c, 9, 46, 80
2, 108240, Note_off_c, 9, 46, 64
2, 108240, Note_on_c, 9, 42, 80
2, 108480, Note_off_c, 9, 42, 64
2, 108480, Note_on_c, 9, 46, 80
2, 108720, Note_off_c, 9, 46, 64
2, 108720, Note_on_c, 9, 42, 80
2, 108960, Note_off_c, 9, 42, 64
2, 108960, Note_on_c, 9, 46, 80
2, 109200, Note_off_c, 9, 46, 64
2, 109200, Note_on_c, 9, 42, 80
2, 109440, Note_off_c, 9, 42, 64
2, 109440, Note_on_c, 9, 46, 80
2, 109680, Note_off_c, 9, 46, 64
2, 109680, Note_on_c, 9, 42, 80
2, 109920, Note_off_c, 9, 42, 64
2, 109920, Note_on_c, 9, 46, 80
2, 110160, Note_off_c, 9, 46, 64
2, 110160, Note_on_c, 9, 42, 80
2, 110400, Note_off_c, 9, 42, 64
2, 110400, Note_on_c, 9, 46, 80
2, 110640, Note_off_c, 9, 46, 64
2, 110640, Note_on_c, 9, 42, 80
2, 110880, Note_off_c, 9, 42, 64
2, 110880, Note_on_c, 9, 46, 80
2, 111120, Note_off_c, 9, 46, 64
2, 111120, Note_on_c, 9, 42, 80
2, 111360, Note_off_c, 9, 42, 64
2, 111360, Note_on_c, 9, 46, 80
2, 111600, Note_off_c, 9, 46, 64
2, 111600, Note_on_c, 9, 42, 80
2, 111840, Note_off_c, 9, 42, 64
2, 111840, Note_on_c, 9, 46, 80
2, 112080, Note_off_c, 9, 46, 64
2, 112080, Note_on_c, 9, 42, 80
2, 112320, Note_off_c, 9, 42, 64
2, 112320, Note_on_c, 9, 46, 80
2, 112560, Note_off_c, 9, 46, 64
2, 112560, Note_on_c, 9, 42, 80
2, 112800, Note_off_c, 9, 42, 64
2, 112800, Note_on_c, 9, 46, 80
2, 113040, Note_off_c, 9, 46, 64
2, 113040, Note_on_c, 9, 42, 80
2, 113280, Note_off_c, 9, 42, 64
2, 113280, Note_on_c, 9, 46, 80
2, 113520, Note_off_c, 9, 46, 64
2, 113520, Note_on_c, 9, 42, 80
2, 113760, Note_off_c, 9, 42, 64
2, 113760, Note_on_c, 9, 46, 80
2, 114000, Note_off_c, 9, 46, 64
2, 114000, Note_on_c, 9, 42, 80
2, 114240, Note_off_c, 9, 42, 64
2, 114240, Note_on_c, 9, 46, 80
2, 114480, Note_off_c, 9, 46, 64
2, 114480, Note_on_c, 9, 42, 80
2, 114720, Note_off_c, 9, 42, 64
2, 114720, Note_on_c, 9, 46, 80
2, 114960, Note_off_c, 9, 46, 64
2, 114960, Note_on_c, 9, 42, 80
2, 115200, Note_off_c, 9, 42, 64
2, 115200, Note_on_c, 9, 46, 80
2, 115440, Note_off_c, 9, 46, 64
2, 115440, Note_on_c, 9, 42, 80
2, 115680, Note_off_c, 9, 42, 64
2, 115680, Note_on_c, 9, 46, 80
2, 115920, Note_off_c, 9, 46, 64
2, 115920, Note_on_c, 9, 42, 80
2, 116160, Note_off_c, 9, 42, 64
2, 116160, Note_on_c, 9, 46, 80
2, 116400, Note_off_c, 9, 46, 64
2, 116400, Note_on_c, 9, 42, 80
2, 116640, Note_off_c, 9, 42, 64
2, 116640, Note_on_c, 9, 46, 80
2, 116880, Note_off_c, 9, 46, 64
2, 116880, Note_on_c, 9, 42, 80
2, 117120, Note_off_c, 9, 42, 64
2, 117120, Note_on_c, 9, 46, 80
2, 117360, Note_off_c, 9, 46, 64
2, 117360, Note_on_c, 9, 42, 80
2, 117600, Note_off_c, 9, 42, 64
2, 117600, Note_on_c, 9, 46, 80
2, 117840, Note_off_c, 9, 46, 64
2, 117840, Note_on_c, 9, 42, 80
2, 118080, Note_off_c, 9, 42, 64
2, 118080, Note_on_c, 9, 46, 80
2, 118320, Note_off_c, 9, 46, 64
2, 118320, Note_on_c, 9, 42, 80
2, 118560, Note_off_c, 9, 42, 64
2, 118560, Note_on_c, 9, 46, 80
2, 118800, Note_off_c, 9, 46, 64
2, 118800, Note_on_c, 9, 42, 80
2, 119040, Note_off_c, 9, 42, 64
2, 119040, Note_on_c, 9, 46, 80
2, 119280, Note_off_c, 9, 46, 64
2, 119280, Note_on_c, 9, 42, 80
2, 119520, Note_off_c, 9, 42, 64
2, 119520, Note_on_c, 9, 46, 80
2, 119760, Note_off_c, 9, 46, 64
2, 119760, Note_on_c, 9, 42, 80
2, 120000, Note_off_c, 9, 42, 64
2, 120000, Note_on_c, 9, 46, 80
2, 120240, Note_off_c, 9, 46, 64
2, 120240, Note_on_c, 9, 42, 80
2, 120480, Note_off_c, 9, 42, 64
2, 120480, Note_on_c, 9, 46, 80
2, 120720, Note_off_c, 9, 46, 64
2, 120720, Note_on_c, 9, 42, 80
2, 120960, Note_off_c, 9, 42, 64
2, 120960, Note_on_c, 9, 46, 80
2, 121200, Note_off_c, 9, 46, 64
2, 121200, Note_on_c, 9, 42, 80
2, 121440, Note_off_c, 9, 42, 64
2, 121440, Note_on_c, 9, 46, 80
2, 121680, Note_off_c, 9, 46, 64
2, 121680, Note_on_c, 9, 42, 80
2, 121920, Note_off_c, 9, 42, 64
2, 121920, Note_on_c, 9, 46, 80
2, 122160, Note_off_c, 9, 46, 64
2, 122160, Note_on_c, 9, 42, 80
2, 122400, Note_off_c, 9, 42, 64
2, 122400, Note_on_c, 9, 46, 80
2, 122640, Note_off_c, 9, 46, 64
2, 122640, Note_on_c, 9, 42, 80
2, 122880, Note_off_c, 9, 42, 64
2, 122880, Note_on_c, 9, 46, 80
2, 123120, Note_off_c, 9, 46, 64
2, 123120, Note_on_c, 9, 42, 80
2, 123360, Note_off_c, 9, 42, 64
2, 123360, Note_on_c, 9, 46, 80
2, 123600, Note_off_c, 9, 46, 64
2, 123600, Note_on_c, 9, 42, 80
2, 123840, Note_off_c, 9, 42, 64
2, 123840, Note_on_c, 9, 46, 80
2, 124080, Note_off_c, 9, 46, 64
2, 124080, Note_on_c, 9, 42, 80
2, 124320, Note_off_c, 9, 42, 64
2, 124320, Note_on_c, 9, 46, 80
2, 124560, Note_off_c, 9, 46, 64
2, 124560, Note_on_c, 9, 42, 80
2, 124800, Note_off_c, 9, 42, 64
2, 124800, Note_on_c, 9, 46, 80
2, 125040, Note_off_c, 9, 46, 64
2, 125040, Note_on_c, 9, 42, 80
2, 125280, Note_off_c, 9, 42, 64
2, 125280, Note_on_c, 9, 46, 80
2, 125520, Note_off_c, 9, 46, 64
2, 125520, Note_on_c, 9, 42, 80
2, 125760, Note_off_c, 9, 42, 64
2, 125760, Note_on_c, 9, 46, 80
2, 126000, Note_off_c, 9, 46, 64
2, 126000, Note_on_c, 9, 42, 80
2, 126240, Note_off_c, 9, 42, 64
2, 126240, Note_on_c, 9, 46, 80
2, 126480, Note_off_c, 9, 46, 64
2, 126480, Note_on_c, 9, 42, 80
2, 126720, Note_off_c, 9, 42, 64
2, 126720, Note_on_c, 9, 46, 80
2, 126960, Note_off_c, 9, 46, 64
2, 126960, Note_on_c, 9, 42, 80
2, 127200, Note_off_c, 9, 42, 64
2, 127200, Note_on_c, 9, 46, 80
2, 127440, Note_off_c, 9, 46, 64
2, 127440, Note_on_c, 9, 42, 80
2, 127680, Note_off_c, 9, 42, 64
2, 127680, Note_on_c, 9, 46, 80
2, 127920, Note_off_c, 9, 46, 64
2, 127920, Note_on_c, 9, 42, 80
2, 128160, Note_off_c, 9, 42, 64
2, 128160, Note_on_c, 9, 46, 80
2, 128400, Note_off_c, 9, 46, 64
2, 128400, Note_on_c, 9, 42, 80
2, 128640, Note_off_c, 9, 42, 64
2, 128640, Note_on_c, 9, 46, 80
2, 128880, Note_off_c, 9, 46, 64
2, 128880, Note_on_c, 9, 42, 80
2, 129120, Note_off_c, 9, 42, 64
2, 129120, Note_on_c, 9, 46, 80
2, 129360, Note_off_c, 9, 46, 64
2, 129360, Note_on_c, 9, 42, 80
2, 129600, Note_off_c, 9, 42, 64
2, 129600, Note_on_c, 9, 46, 80
2, 129840, Note_off_c, 9, 46, 64
2, 129840, Note_on_c, 9, 42, 80
2, 130080, Note_off_c, 9, 42, 64
2, 130080, Note_on_c, 9, 46, 80
2, 130320, Note_off_c, 9, 46, 64
2, 130320, Note_on_c, 9, 42, 80
2, 130560, Note_off_c, 9, 42, 64
2, 130560, Note_on_c, 9, 46, 80
2, 130800, Note_off_c, 9, 46, 64
2, 130800, Note_on_c, 9, 42, 80
2, 131040, Note_off_c, 9, 42, 64
2, 131040, Note_on_c, 9, 46, 80
2, 131280, Note_off_c, 9, 46, 64
2, 131280, Note_on_c, 9, 42, 80
2, 131520, Note_off_c, 9, 42, 64
2, 131520, Note_on_c, 9, 46, 80
2, 131760, Note_off_c, 9, 46, 64
2, 131760, Note_on_c, 9, 42, 80
2, 132000, Note_off_c, 9, 42, 64
2, 132000, Note_on_c, 9, 46, 80
2, 132240, Note_off_c, 9, 46, 64
2, 132240, Note_on_c, 9, 42, 80
2, 132480, Note_off_c, 9, 42, 64
2, 132480, Note_on_c, 9, 46, 80
2, 132720, Note_off_c, 9, 46, 64
2, 132720, Note_on_c, 9, 42, 80
2, 132960, Note_off_c, 9, 42, 64
2, 132960, Note_on_c, 9, 46, 80
2, 133200, Note_off_c, 9, 46, 64
2, 133200, Note_on_c, 9, 42, 80
2, 133440, Note_off_c, 9, 42, 64
2, 133440, Note_on_c, 9, 46, 80
2, 133680, Note_off_c, 9, 46, 64
2, 133680, Note_on_c, 9, 42, 80
2, 133920, Note_off_c, 9, 42, 64
2, 133920, Note_on_c, 9, 46, 80
2, 134160, Note_off_c, 9, 46, 64
2, 134160, Note_on_c, 9, 42, 80
2, 134400, Note_off_c, 9, 42, 64
2, 134400, Note_on_c, 9, 46, 80
2, 134640, Note_off_c, 9, 46, 64
2, 134640, Note_on_c, 9, 42, 80
2, 134880, Note_off_c, 9, 42, 64
2, 134880, Note_on_c, 9, 46, 80
2, 135120, Note_off_c, 9, 46, 64
2, 135120, Note_on_c, 9, 42, 80
2, 135360, Note_off_c, 9, 42, 64
2, 135360, Note_on_c, 9, 46, 80
2, 135600, Note_off_c, 9, 46, 64
2, 135600, Note_on_c, 9, 42, 80
2, 135840, Note_off_c, 9, 42, 64
2, 135840, Note_on_c, 9, 46, 80
2, 136080, Note_off_c, 9, 46, 64
2, 136080, Note_on_c, 9, 42, 80
2, 136320, Note_off_c, 9, 42, 64
2, 136320, Note_on_c, 9, 46, 80
2, 136560, Note_off_c, 9, 46, 64
2, 136560, Note_on_c, 9, 42, 80
2, 136800, Note_off_c, 9, 42, 64
2, 136800, Note_on_c, 9, 46, 80
2, 137040, Note_off_c, 9, 46, 64
2, 137040, Note_on_c, 9, 42, 80
2, 137280, Note_off_c, 9, 42, 64
2, 137280, Note_on_c, 9, 46, 80
2, 137520, Note_off_c, 9, 46, 64
2, 137520, Note_on_c, 9, 42, 80
2, 137760, Note_off_c, 9, 42, 64
2, 137760, Note_on_c, 9, 46, 80
2, 138000, Note_off_c, 9, 46, 64
2, 138000, Note_on_c, 9, 42, 80
2, 138240, Note_off_c, 9, 42, 64
2, 138240, Note_on_c, 9, 46, 80
2, 138480, Note_off_c, 9, 46, 64
2, 138480, Note_on_c, 9, 42, 80
2, 138720, Note_off_c, 9, 42, 64
2, 138720, Note_on_c, 9, 46, 80
2, 138960, Note_off_c, 9, 46, 64
2, 138960, Note_on_c, 9, 42, 80
2, 139200, Note_off_c, 9, 42, 64
2, 139200, Note_on_c, 9, 46, 80
2, 139440, Note_off_c, 9, 46, 64
2, 139440, Note_on_c, 9, 42, 80
2, 139680, Note_off_c, 9, 42, 64
2, 139680, Note_on_c, 9, 46, 80
2, 139920, Note_off_c, 9, 46, 64
2, 139920, Note_on_c, 9, 42, 80
2, 140160, Note_off_c, 9, 42, 64
2, 140160, Note_on_c, 9, 46, 80
2, 140400, Note_off_c, 9, 46, 64
2, 140400, Note_on_c, 9, 42, 80
2, 140640, Note_off_c, 9, 42, 64
2, 140640, Note_on_c, 9, 46, 80
2, 140880, Note_off_c, 9, 46, 64
2, 140880, Note_on_c, 9, 42, 80
2, 141120, Note_off_c, 9, 42, 64
2, 141120, Note_on_c, 9, 46, 80
2, 141360, Note_off_c, 9, 46, 64
2, 141360, Note_on_c, 9, 42, 80
2, 141600, Note_off_c, 9, 42, 64
2, 141600, Note_on_c, 9, 46, 80
2, 141840, Note_off_c, 9, 46, 64
2, 141840, Note_on_c, 9, 42, 80
2, 142080, Note_off_c, 9, 42, 64
2, 142080, Note_on_c, 9, 46, 80
2, 142320, Note_off_c, 9, 46, 64
2, 142320, Note_on_c, 9, 42, 80
2, 142560, Note_off_c, 9, 42, 64
2, 142560, Note_on_c, 9, 46, 80
2, 142800, Note_off_c, 9, 46, 64
2, 142800, Note_on_c, 9, 42, 80
2, 143040, Note_off_c, 9, 42, 64
2, 143040, Note_on_c, 9, 46, 80
2, 143280, Note_off_c, 9, 46, 64
2, 143280, Note_on_c, 9, 42, 80
2, 143520, Note_off_c, 9, 42, 64
2, 143520, Note_on_c, 9, 46, 80
2, 143760, Note_off_c, 9, 46, 64
2, 143760, Note_on_c, 9, 42, 80
2, 144000, Note_off_c, 9, 42, 64
2, 144000, Note_on_c, 9, 46, 80
2, 144240, Note_off_c, 9, 46, 64
2, 144240, Note_on_c, 9, 42, 80
2, 144480, Note_off_c, 9, 42, 64
2, 144480, Note_on_c, 9, 46, 80
2, 144720, Note_off_c, 9, 46, 64
2, 144720, Note_on_c, 9, 42, 80
2, 144960, Note_off_c, 9, 42, 64
2, 144960, Note_on_c, 9, 46, 80
2, 145200, Note_off_c, 9, 46, 64
2, 145200, Note_on_c, 9, 42, 80
2, 145440, Note_off_c, 9, 42, 64
2, 145440, Note_on_c, 9, 46, 80
2, 145680, Note_off_c, 9, 46, 64
2, 145680, Note_on_c, 9, 42, 80
2, 145920, Note_off_c, 9, 42, 64
2, 145920, Note_on_c, 9, 46, 80
2, 146160, Note_off_c, 9, 46, 64
2, 146160, Note_on_c, 9, 42, 80
2, 146400, Note_off_c, 9, 42, 64
2, 146400, Note_on_c, 9, 46, 80
2, 146640, Note_off_c, 9, 46, 64
2, 146640, Note_on_c, 9, 42, 80
2, 146880, Note_off_c, 9, 42, 64
2, 146880, Note_on_c, 9, 46, 80
2, 147120, Note_off_c, 9, 46, 64
2, 147120, Note_on_c, 9, 42, 80
2, 147360, Note_off_c, 9, 42, 64
2, 147360, Note_on_c, 9, 46, 80
2, 147600, Note_off_c, 9, 46, 64
2, 147600, Note_on_c, 9, 42, 80
2, 147840, Note_off_c, 9, 42, 64
2, 147840, Note_on_c, 9, 46, 80
2, 148080, Note_off_c, 9, 46, 64
2, 148080, Note_on_c, 9, 42, 80
2, 148320, Note_off_c, 9, 42, 64
2, 148320, Note_on_c, 9, 46, 80
2, 148560, Note_off_c, 9, 46, 64
2, 148560, Note_on_c, 9, 42, 80
2, 148800, Note_off_c, 9, 42, 64
2, 148800, Note_on_c, 9, 46, 80
2, 149040, Note_off_c, 9, 46, 64
2, 149040, Note_on_c, 9, 42, 80
2, 149280, Note_off_c, 9, 42, 64
2, 149280, Note_on_c, 9, 46, 80
2, 149520, Note_off_c, 9, 46, 64
2, 149520, Note_on_c, 9, 42, 80
2, 149760, Note_off_c, 9, 42, 64
2, 149760, Note_on_c, 9, 46, 80
2, 150000, Note_off_c, 9, 46, 64
2, 150000, Note_on_c, 9, 42, 80
2, 150240, Note_off_c, 9, 42, 64
2, 150240, Note_on_c, 9, 46, 80
2, 150480, Note_off_c, 9, 46, 64
2, 150480, Note_on_c, 9, 42, 80
2, 150720, Note_off_c, 9, 42, 64
2, 150720, Note_on_c, 9, 46, 80
2, 150960, Note_off_c, 9, 46, 64
2, 150960, Note_on_c, 9, 42, 80
2, 151200, Note_off_c, 9, 42, 64
2, 151200, Note_on_c, 9, 46, 80
2, 151440, Note_off_c, 9, 46, 64
2, 151440, Note_on_c, 9, 42, 80
2, 151680, Note_off_c, 9, 42, 64
2, 151680, Note_on_c, 9, 46, 80
2, 151920, Note_off_c, 9, 46, 64
2, 151920, Note_on_c, 9, 42, 80
2, 152160, Note_off_c, 9, 42, 64
2, 152160, Note_on_c, 9, 46, 80
2, 152400, Note_off_c, 9, 46, 64
2, 152400, Note_on_c, 9, 42, 80
2, 152640, Note_off_c, 9, 42, 64
2, 152640, Note_on_c, 9, 46, 80
2, 152880, Note_off_c, 9, 46, 64
2, 152880, Note_on_c, 9, 42, 80
2, 153120, Note_off_c, 9, 42, 64
2, 153120, Note_on_c, 9, 46, 80
2, 153360, Note_off_c, 9, 46, 64
2, 153360, Note_on_c, 9, 42, 80
2, 153600, Note_off_c, 9, 42, 64
2, 153600, Note_on_c, 9, 46, 80
2, 153840, Note_off_c, 9, 46, 64
2, 153840, Note_on_c, 9, 42, 80
2, 154080, Note_off_c, 9, 42, 64
2, 154080, Note_on_c, 9, 46, 80
2, 154320, Note_off_c, 9, 46, 64
2, 154320, Note_on_c, 9, 42, 80
2, 154560, Note_off_c, 9, 42, 64
2, 154560, Note_on_c, 9, 46, 80
2, 154800, Note_off_c, 9, 46, 64
2, 154800, Note_on_c, 9, 42, 80
2, 155040, Note_off_c, 9, 42, 64
2, 155040, Note_on_c, 9, 46, 80
2, 155280, Note_off_c, 9, 46, 64
2, 155280, Note_on_c, 9, 42, 80
2, 155520, Note_off_c, 9, 42, 64
2, 155520, Note_on_c, 9, 46, 80
2, 155760, Note_off_c, 9, 46, 64
2, 155760, Note_on_c, 9, 42, 80
2, 156000, Note_off_c, 9, 42, 64
2, 156000, Note_on_c, 9, 46, 80
2, 156240, Note_off_c, 9, 46, 64
2, 156240, Note_on_c, 9, 42, 80
2, 156480, Note_off_c, 9, 42, 64
2, 156480, Note_on_c, 9, 46, 80
2, 156720, Note_off_c, 9, 46, 64
2, 156720, Note_on_c, 9, 42, 80
2, 156960, Note_off_c, 9, 42, 64
2, 156960, Note_on_c, 9, 46, 80
2, 157200, Note_off_c, 9, 46, 64
2, 157200, Note_on_c, 9, 42, 80
2, 157440, Note_off_c, 9, 42, 64
2, 157440, Note_on_c, 9, 46, 80
2, 157680, Note_off_c, 9, 46, 64
2, 157680, Note_on_c, 9, 42, 80
2, 157920, Note_off_c, 9, 42, 64
2, 173280, Note_on_c, 9, 52, 80
2, 173520, Note_off_c, 9, 52, 64
2, 173520, Note_on_c, 9, 42, 80
2, 173760, Note_off_c, 9, 42, 64
2, 173760, Note_on_c, 9, 46, 80
2, 174000, Note_off_c, 9, 46, 64
2, 174000, Note_on_c, 9, 42, 80
2, 174240, Note_off_c, 9, 42, 64
2, 174240, Note_on_c, 9, 46, 80
2, 174480, Note_off_c, 9, 46, 64
2, 174480, Note_on_c, 9, 42, 80
2, 174720, Note_off_c, 9, 42, 64
2, 174720, Note_on_c, 9, 46, 80
2, 174960, Note_off_c, 9, 46, 64
2, 174960, Note_on_c, 9, 42, 80
2, 175200, Note_off_c, 9, 42, 64
2, 175200, Note_on_c, 9, 46, 80
2, 175440, Note_off_c, 9, 46, 64
2, 175440, Note_on_c, 9, 42, 80
2, 175680, Note_off_c, 9, 42, 64
2, 175680, Note_on_c, 9, 46, 80
2, 175920, Note_off_c, 9, 46, 64
2, 175920, Note_on_c, 9, 42, 80
2, 176160, Note_off_c, 9, 42, 64
2, 176160, Note_on_c, 9, 46, 80
2, 176400, Note_off_c, 9, 46, 64
2, 176400, Note_on_c, 9, 42, 80
2, 176640, Note_off_c, 9, 42, 64
2, 176640, Note_on_c, 9, 49, 80
2, 177120, Note_off_c, 9, 49, 64
2, 177120, Note_on_c, 9, 52, 80
2, 177360, Note_off_c, 9, 52, 64
2, 177360, Note_on_c, 9, 42, 80
2, 177600, Note_off_c, 9, 42, 64
2, 177600, Note_on_c, 9, 46, 80
2, 177840, Note_off_c, 9, 46, 64
2, 177840, Note_on_c, 9, 42, 80
2, 178080, Note_off_c, 9, 42, 64
2, 178080, Note_on_c, 9, 46, 80
2, 178320, Note_off_c, 9, 46, 64
2, 178320, Note_on_c, 9, 42, 80
2, 178560, Note_off_c, 9, 42, 64
2, 178560, Note_on_c, 9, 46, 80
2, 178800, Note_off_c, 9, 46, 64
2, 178800, Note_on_c, 9, 42, 80
2, 179040, Note_off_c, 9, 42, 64
2, 179040, Note_on_c, 9, 46, 80
2, 179280, Note_off_c, 9, 46, 64
2, 179280, Note_on_c, 9, 42, 80
2, 179520, Note_off_c, 9, 42, 64
2, 179520, Note_on_c, 9, 46, 80
2, 179760, Note_off_c, 9, 46, 64
2, 179760, Note_on_c, 9, 42, 80
2, 180000, Note_off_c, 9, 42, 64
2, 180000, Note_on_c, 9, 46, 80
2, 180240, Note_off_c, 9, 46, 64
2, 180240, Note_on_c, 9, 42, 80
2, 180480, Note_off_c, 9, 42, 64
2, 180480, Note_on_c, 9, 49, 80
2, 180960, Note_off_c, 9, 49, 64
2, 180960, Note_on_c, 9, 52, 80
2, 181200, Note_off_c, 9, 52, 64
2, 181200, Note_on_c, 9, 42, 80
2, 181440, Note_off_c, 9, 42, 64
2, 181440, Note_on_c, 9, 46, 80
2, 181680, Note_off_c, 9, 46, 64
2, 181680, Note_on_c, 9, 42, 80
2, 181920, Note_off_c, 9, 42, 64
2, 181920, Note_on_c, 9, 46, 80
2, 182160, Note_off_c, 9, 46, 64
2, 182160, Note_on_c, 9, 42, 80
2, 182400, Note_off_c, 9, 42, 64
2, 182400, Note_on_c, 9, 46, 80
2, 182640, Note_off_c, 9, 46, 64
2, 182640, Note_on_c, 9, 42, 80
2, 182880, Note_off_c, 9, 42, 64
2, 182880, Note_on_c, 9, 46, 80
2, 183120, Note_off_c, 9, 46, 64
2, 183120, Note_on_c, 9, 42, 80
2, 183360, Note_off_c, 9, 42, 64
2, 183360, Note_on_c, 9, 46, 80
2, 183600, Note_off_c, 9, 46, 64
2, 183600, Note_on_c, 9, 42, 80
2, 183840, Note_off_c, 9, 42, 64
2, 183840, Note_on_c, 9, 46, 80
2, 184080, Note_off_c, 9, 46, 64
2, 184080, Note_on_c, 9, 42, 80
2, 184320, Note_off_c, 9, 42, 64
2, 184320, Note_on_c, 9, 49, 80
2, 184800, Note_off_c, 9, 49, 64
2, 184800, Note_on_c, 9, 52, 80
2, 185040, Note_off_c, 9, 52, 64
2, 185040, Note_on_c, 9, 42, 80
2, 185280, Note_off_c, 9, 42, 64
2, 185280, Note_on_c, 9, 46, 80
2, 185520, Note_off_c, 9, 46, 64
2, 185520, Note_on_c, 9, 42, 80
2, 185760, Note_off_c, 9, 42, 64
2, 185760, Note_on_c, 9, 46, 80
2, 186000, Note_off_c, 9, 46, 64
2, 186000, Note_on_c, 9, 42, 80
2, 186240, Note_off_c, 9, 42, 64
2, 186240, Note_on_c, 9, 46, 80
2, 186480, Note_off_c, 9, 46, 64
2, 186480, Note_on_c, 9, 42, 80
2, 186720, Note_off_c, 9, 42, 64
2, 186720, Note_on_c, 9, 46, 80
2, 186960, Note_off_c, 9, 46, 64
2, 186960, Note_on_c, 9, 42, 80
2, 187200, Note_off_c, 9, 42, 64
2, 187200, Note_on_c, 9, 46, 80
2, 187440, Note_off_c, 9, 46, 64
2, 187440, Note_on_c, 9, 42, 80
2, 187680, Note_off_c, 9, 42, 64
2, 187680, Note_on_c, 9, 46, 80
2, 187920, Note_off_c, 9, 46, 64
2, 187920, Note_on_c, 9, 42, 80
2, 188160, Note_off_c, 9, 42, 64
2, 188160, Note_on_c, 9, 49, 80
2, 188640, Note_off_c, 9, 49, 64
2, 188640, Note_on_c, 9, 52, 80
2, 188880, Note_off_c, 9, 52, 64
2, 188880, Note_on_c, 9, 42, 80
2, 189120, Note_off_c, 9, 42, 64
2, 189120, Note_on_c, 9, 46, 80
2, 189360, Note_off_c, 9, 46, 64
2, 189360, Note_on_c, 9, 42, 80
2, 189600, Note_off_c, 9, 42, 64
2, 189600, Note_on_c, 9, 46, 80
2, 189840, Note_off_c, 9, 46, 64
2, 189840, Note_on_c, 9, 42, 80
2, 190080, Note_off_c, 9, 42, 64
2, 190080, Note_on_c, 9, 46, 80
2, 190320, Note_off_c, 9, 46, 64
2, 190320, Note_on_c, 9, 42, 80
2, 190560, Note_off_c, 9, 42, 64
2, 190560, Note_on_c, 9, 46, 80
2, 190800, Note_off_c, 9, 46, 64
2, 190800, Note_on_c, 9, 42, 80
2, 191040, Note_off_c, 9, 42, 64
2, 191040, Note_on_c, 9, 46, 80
2, 191280, Note_off_c, 9, 46, 64
2, 191280, Note_on_c, 9, 42, 80
2, 191520, Note_off_c, 9, 42, 64
2, 191520, Note_on_c, 9, 46, 80
2, 191760, Note_off_c, 9, 46, 64
2, 191760, Note_on_c, 9, 42, 80
2, 192000, Note_off_c, 9, 42, 64
2, 192000, Note_on_c, 9, 49, 80
2, 192480, Note_off_c, 9, 49, 64
2, 192480, Note_on_c, 9, 52, 80
2, 192720, Note_off_c, 9, 52, 64
2, 192720, Note_on_c, 9, 42, 80
2, 192960, Note_off_c, 9, 42, 64
2, 192960, Note_on_c, 9, 46, 80
2, 193200, Note_off_c, 9, 46, 64
2, 193200, Note_on_c, 9, 42, 80
2, 193440, Note_off_c, 9, 42, 64
2, 193440, Note_on_c, 9, 46, 80
2, 193680, Note_off_c, 9, 46, 64
2, 193680, Note_on_c, 9, 42, 80
2, 193920, Note_off_c, 9, 42, 64
2, 193920, Note_on_c, 9, 46, 80
2, 194160, Note_off_c, 9, 46, 64
2, 194160, Note_on_c, 9, 42, 80
2, 194400, Note_off_c, 9, 42, 64
2, 194400, Note_on_c, 9, 46, 80
2, 194640, Note_off_c, 9, 46, 64
2, 194640, Note_on_c, 9, 42, 80
2, 194880, Note_off_c, 9, 42, 64
2, 194880, Note_on_c, 9, 46, 80
2, 195120, Note_off_c, 9, 46, 64
2, 195120, Note_on_c, 9, 42, 80
2, 195360, Note_off_c, 9, 42, 64
2, 195360, Note_on_c, 9, 46, 80
2, 195600, Note_off_c, 9, 46, 64
2, 195600, Note_on_c, 9, 42, 80
2, 195840, Note_off_c, 9, 42, 64
2, 195840, Note_on_c, 9, 49, 80
2, 196320, Note_off_c, 9, 49, 64
2, 196320, Note_on_c, 9, 46, 80
2, 196560, Note_off_c, 9, 46, 64
2, 196560, Note_on_c, 9, 42, 80
2, 196800, Note_off_c, 9, 42, 64
2, 196800, Note_on_c, 9, 46, 80
2, 197040, Note_off_c, 9, 46, 64
2, 197040, Note_on_c, 9, 42, 80
2, 197280, Note_off_c, 9, 42, 64
2, 197280, Note_on_c, 9, 46, 80
2, 197520, Note_off_c, 9, 46, 64
2, 197520, Note_on_c, 9, 42, 80
2, 197760, Note_off_c, 9, 42, 64
2, 197760, Note_on_c, 9, 46, 80
2, 198000, Note_off_c, 9, 46, 64
2, 198000, Note_on_c, 9, 42, 80
2, 198240, Note_off_c, 9, 42, 64
2, 198240, Note_on_c, 9, 46, 80
2, 198480, Note_off_c, 9, 46, 64
2, 198480, Note_on_c, 9, 42, 80
2, 198720, Note_off_c, 9, 42, 64
2, 198720, Note_on_c, 9, 46, 80
2, 198960, Note_off_c, 9, 46, 64
2, 198960, Note_on_c, 9, 42, 80
2, 199200, Note_off_c, 9, 42, 64
2, 199200, Note_on_c, 9, 46, 80
2, 199440, Note_off_c, 9, 46, 64
2, 199440, Note_on_c, 9, 42, 80
2, 199680, Note_off_c, 9, 42, 64
2, 199680, Note_on_c, 9, 46, 80
2, 199920, Note_off_c, 9, 46, 64
2, 199920, Note_on_c, 9, 42, 80
2, 200160, Note_off_c, 9, 42, 64
2, 200160, Note_on_c, 9, 46, 80
2, 200400, Note_off_c, 9, 46, 64
2, 200400, Note_on_c, 9, 42, 80
2, 200640, Note_off_c, 9, 42, 64
2, 200640, Note_on_c, 9, 46, 80
2, 200880, Note_off_c, 9, 46, 64
2, 200880, Note_on_c, 9, 42, 80
2, 201120, Note_off_c, 9, 42, 64
2, 201120, Note_on_c, 9, 46, 80
2, 201360, Note_off_c, 9, 46, 64
2, 201360, Note_on_c, 9, 42, 80
2, 201600, Note_off_c, 9, 42, 64
2, 201600, Note_on_c, 9, 46, 80
2, 201840, Note_off_c, 9, 46, 64
2, 201840, Note_on_c, 9, 42, 80
2, 202080, Note_off_c, 9, 42, 64
2, 202080, Note_on_c, 9, 46, 80
2, 202320, Note_off_c, 9, 46, 64
2, 202320, Note_on_c, 9, 42, 80
2, 202560, Note_off_c, 9, 42, 64
2, 202560, Note_on_c, 9, 46, 80
2, 202800, Note_off_c, 9, 46, 64
2, 202800, Note_on_c, 9, 42, 80
2, 203040, Note_off_c, 9, 42, 64
2, 203040, Note_on_c, 9, 46, 80
2, 203280, Note_off_c, 9, 46, 64
2, 203280, Note_on_c, 9, 42, 80
2, 203520, Note_off_c, 9, 42, 64
2, 203520, Note_on_c, 9, 46, 80
2, 203760, Note_off_c, 9, 46, 64
2, 203760, Note_on_c, 9, 42, 80
2, 204000, Note_off_c, 9, 42, 64
2, 204000, Note_on_c, 9, 46, 80
2, 204240, Note_off_c, 9, 46, 64
2, 204240, Note_on_c, 9, 42, 80
2, 204480, Note_off_c, 9, 42, 64
2, 204480, Note_on_c, 9, 46, 80
2, 204720, Note_off_c, 9, 46, 64
2, 204720, Note_on_c, 9, 42, 80
2, 204960, Note_off_c, 9, 42, 64
2, 204960, Note_on_c, 9, 46, 80
2, 205200, Note_off_c, 9, 46, 64
2, 205200, Note_on_c, 9, 42, 80
2, 205440, Note_off_c, 9, 42, 64
2, 205440, Note_on_c, 9, 46, 80
2, 205680, Note_off_c, 9, 46, 64
2, 205680, Note_on_c, 9, 42, 80
2, 205920, Note_off_c, 9, 42, 64
2, 205920, Note_on_c, 9, 46, 80
2, 206160, Note_off_c, 9, 46, 64
2, 206160, Note_on_c, 9, 42, 80
2, 206400, Note_off_c, 9, 42, 64
2, 206400, Note_on_c, 9, 46, 80
2, 206640, Note_off_c, 9, 46, 64
2, 206640, Note_on_c, 9, 42, 80
2, 206880, Note_off_c, 9, 42, 64
2, 206880, Note_on_c, 9, 46, 80
2, 207120, Note_off_c, 9, 46, 64
2, 207120, Note_on_c, 9, 42, 80
2, 207360, Note_off_c, 9, 42, 64
2, 207360, Note_on_c, 9, 46, 80
2, 207600, Note_off_c, 9, 46, 64
2, 207600, Note_on_c, 9, 42, 80
2, 207840, Note_off_c, 9, 42, 64
2, 207840, Note_on_c, 9, 46, 80
2, 208080, Note_off_c, 9, 46, 64
2, 208080, Note_on_c, 9, 42, 80
2, 208320, Note_off_c, 9, 42, 64
2, 208320, Note_on_c, 9, 46, 80
2, 208560, Note_off_c, 9, 46, 64
2, 208560, Note_on_c, 9, 42, 80
2, 208800, Note_off_c, 9, 42, 64
2, 208800, Note_on_c, 9, 46, 80
2, 209040, Note_off_c, 9, 46, 64
2, 209040, Note_on_c, 9, 42, 80
2, 209280, Note_off_c, 9, 42, 64
2, 209280, Note_on_c, 9, 46, 80
2, 209520, Note_off_c, 9, 46, 64
2, 209520, Note_on_c, 9, 42, 80
2, 209760, Note_off_c, 9, 42, 64
2, 209760, Note_on_c, 9, 46, 80
2, 210000, Note_off_c, 9, 46, 64
2, 210000, Note_on_c, 9, 42, 80
2, 210240, Note_off_c, 9, 42, 64
2, 210240, Note_on_c, 9, 46, 80
2, 210480, Note_off_c, 9, 46, 64
2, 210480, Note_on_c, 9, 42, 80
2, 210720, Note_off_c, 9, 42, 64
2, 210720, Note_on_c, 9, 46, 80
2, 210960, Note_off_c, 9, 46, 64
2, 210960, Note_on_c, 9, 42, 80
2, 211200, Note_off_c, 9, 42, 64
2, 211200, Note_on_c, 9, 46, 80
2, 211440, Note_off_c, 9, 46, 64
2, 211440, Note_on_c, 9, 42, 80
2, 211680, Note_off_c, 9, 42, 64
2, 211680, Note_on_c, 9, 46, 80
2, 211920, Note_off_c, 9, 46, 64
2, 211920, Note_on_c, 9, 42, 80
2, 212160, Note_off_c, 9, 42, 64
2, 212160, Note_on_c, 9, 46, 80
2, 212400, Note_off_c, 9, 46, 64
2, 212400, Note_on_c, 9, 42, 80
2, 212640, Note_off_c, 9, 42, 64
2, 212640, Note_on_c, 9, 46, 80
2, 212880, Note_off_c, 9, 46, 64
2, 212880, Note_on_c, 9, 42, 80
2, 213120, Note_off_c, 9, 42, 64
2, 213120, Note_on_c, 9, 46, 80
2, 213360, Note_off_c, 9, 46, 64
2, 213360, Note_on_c, 9, 42, 80
2, 213600, Note_off_c, 9, 42, 64
2, 213600, Note_on_c, 9, 46, 80
2, 213840, Note_off_c, 9, 46, 64
2, 213840, Note_on_c, 9, 42, 80
2, 214080, Note_off_c, 9, 42, 64
2, 214080, Note_on_c, 9, 46, 80
2, 214320, Note_off_c, 9, 46, 64
2, 214320, Note_on_c, 9, 42, 80
2, 214560, Note_off_c, 9, 42, 64
2, 214560, Note_on_c, 9, 46, 80
2, 214800, Note_off_c, 9, 46, 64
2, 214800, Note_on_c, 9, 42, 80
2, 215040, Note_off_c, 9, 42, 64
2, 215040, Note_on_c, 9, 46, 80
2, 215280, Note_off_c, 9, 46, 64
2, 215280, Note_on_c, 9, 42, 80
2, 215520, Note_off_c, 9, 42, 64
2, 215520, Note_on_c, 9, 46, 80
2, 215760, Note_off_c, 9, 46, 64
2, 215760, Note_on_c, 9, 42, 80
2, 216000, Note_off_c, 9, 42, 64
2, 216000, Note_on_c, 9, 46, 80
2, 216240, Note_off_c, 9, 46, 64
2, 216240, Note_on_c, 9, 42, 80
2, 216480, Note_off_c, 9, 42, 64
2, 216480, Note_on_c, 9, 46, 80
2, 216720, Note_off_c, 9, 46, 64
2, 216720, Note_on_c, 9, 42, 80
2, 216960, Note_off_c, 9, 42, 64
2, 216960, Note_on_c, 9, 46, 80
2, 217200, Note_off_c, 9, 46, 64
2, 217200, Note_on_c, 9, 42, 80
2, 217440, Note_off_c, 9, 42, 64
2, 217440, Note_on_c, 9, 46, 80
2, 217680, Note_off_c, 9, 46, 64
2, 217680, Note_on_c, 9, 42, 80
2, 217920, Note_off_c, 9, 42, 64
2, 217920, Note_on_c, 9, 46, 80
2, 218160, Note_off_c, 9, 46, 64
2, 218160, Note_on_c, 9, 42, 80
2, 218400, Note_off_c, 9, 42, 64
2, 218400, Note_on_c, 9, 46, 80
2, 218640, Note_off_c, 9, 46, 64
2, 218640, Note_on_c, 9, 42, 80
2, 218880, Note_off_c, 9, 42, 64
2, 218880, Note_on_c, 9, 46, 80
2, 219120, Note_off_c, 9, 46, 64
2, 219120, Note_on_c, 9, 42, 80
2, 219360, Note_off_c, 9, 42, 64
2, 219360, Note_on_c, 9, 46, 80
2, 219600, Note_off_c, 9, 46, 64
2, 219600, Note_on_c, 9, 42, 80
2, 219840, Note_off_c, 9, 42, 64
2, 219840, Note_on_c, 9, 46, 80
2, 220080, Note_off_c, 9, 46, 64
2, 220080, Note_on_c, 9, 42, 80
2, 220320, Note_off_c, 9, 42, 64
2, 220320, Note_on_c, 9, 46, 80
2, 220560, Note_off_c, 9, 46, 64
2, 220560, Note_on_c, 9, 42, 80
2, 220800, Note_off_c, 9, 42, 64
2, 220800, Note_on_c, 9, 46, 80
2, 221040, Note_off_c, 9, 46, 64
2, 221040, Note_on_c, 9, 42, 80
2, 221280, Note_off_c, 9, 42, 64
2, 221280, Note_on_c, 9, 46, 80
2, 221520, Note_off_c, 9, 46, 64
2, 221520, Note_on_c, 9, 42, 80
2, 221760, Note_off_c, 9, 42, 64
2, 221760, Note_on_c, 9, 46, 80
2, 222000, Note_off_c, 9, 46, 64
2, 222000, Note_on_c, 9, 42, 80
2, 222240, Note_off_c, 9, 42, 64
2, 222240, Note_on_c, 9, 46, 80
2, 222480, Note_off_c, 9, 46, 64
2, 222480, Note_on_c, 9, 42, 80
2, 222720, Note_off_c, 9, 42, 64
2, 222720, Note_on_c, 9, 46, 80
2, 222960, Note_off_c, 9, 46, 64
2, 222960, Note_on_c, 9, 42, 80
2, 223200, Note_off_c, 9, 42, 64
2, 223200, Note_on_c, 9, 46, 80
2, 223440, Note_off_c, 9, 46, 64
2, 223440, Note_on_c, 9, 42, 80
2, 223680, Note_off_c, 9, 42, 64
2, 223680, Note_on_c, 9, 46, 80
2, 223920, Note_off_c, 9, 46, 64
2, 223920, Note_on_c, 9, 42, 80
2, 224160, Note_off_c, 9, 42, 64
2, 224160, Note_on_c, 9, 46, 80
2, 224400, Note_off_c, 9, 46, 64
2, 224400, Note_on_c, 9, 42, 80
2, 224640, Note_off_c, 9, 42, 64
2, 224640, Note_on_c, 9, 46, 80
2, 224880, Note_off_c, 9, 46, 64
2, 224880, Note_on_c, 9, 42, 80
2, 225120, Note_off_c, 9, 42, 64
2, 225120, Note_on_c, 9, 46, 80
2, 225360, Note_off_c, 9, 46, 64
2, 225360, Note_on_c, 9, 42, 80
2, 225600, Note_off_c, 9, 42, 64
2, 225600, Note_on_c, 9, 46, 80
2, 225840, Note_off_c, 9, 46, 64
2, 225840, Note_on_c, 9, 42, 80
2, 226080, Note_off_c, 9, 42, 64
2, 226080, Note_on_c, 9, 46, 80
2, 226320, Note_off_c, 9, 46, 64
2, 226320, Note_on_c, 9, 42, 80
2, 226560, Note_off_c, 9, 42, 64
2, 226560, Note_on_c, 9, 46, 80
2, 226800, Note_off_c, 9, 46, 64
2, 226800, Note_on_c, 9, 42, 80
2, 227040, Note_off_c, 9, 42, 64
2, 227040, Note_on_c, 9, 46, 80
2, 227280, Note_off_c, 9, 46, 64
2, 227280, Note_on_c, 9, 42, 80
2, 227520, Note_off_c, 9, 42, 64
2, 227520, Note_on_c, 9, 46, 80
2, 227760, Note_off_c, 9, 46, 64
2, 227760, Note_on_c, 9, 42, 80
2, 228000, Note_off_c, 9, 42, 64
2, 228000, Note_on_c, 9, 46, 80
2, 228240, Note_off_c, 9, 46, 64
2, 228240, Note_on_c, 9, 42, 80
2, 228480, Note_off_c, 9, 42, 64
2, 228480, Note_on_c, 9, 46, 80
2, 228720, Note_off_c, 9, 46, 64
2, 228720, Note_on_c, 9, 42, 80
2, 228960, Note_off_c, 9, 42, 64
2, 228960, Note_on_c, 9, 46, 80
2, 229200, Note_off_c, 9, 46, 64
2, 229200, Note_on_c, 9, 42, 80
2, 229440, Note_off_c, 9, 42, 64
2, 229440, Note_on_c, 9, 46, 80
2, 229680, Note_off_c, 9, 46, 64
2, 229680, Note_on_c, 9, 42, 80
2, 229920, Note_off_c, 9, 42, 64
2, 229920, Note_on_c, 9, 46, 80
2, 230160, Note_off_c, 9, 46, 64
2, 230160, Note_on_c, 9, 42, 80
2, 230400, Note_off_c, 9, 42, 64
2, 230400, Note_on_c, 9, 46, 80
2, 230640, Note_off_c, 9, 46, 64
2, 230640, Note_on_c, 9, 42, 80
2, 230880, Note_off_c, 9, 42, 64
2, 230880, Note_on_c, 9, 46, 80
2, 231120, Note_off_c, 9, 46, 64
2, 231120, Note_on_c, 9, 42, 80
2, 231360, Note_off_c, 9, 42, 64
2, 231360, Note_on_c, 9, 46, 80
2, 231600, Note_off_c, 9, 46, 64
2, 231600, Note_on_c, 9, 42, 80
2, 231840, Note_off_c, 9, 42, 64
2, 231840, Note_on_c, 9, 46, 80
2, 232080, Note_off_c, 9, 46, 64
2, 232080, Note_on_c, 9, 42, 80
2, 232320, Note_off_c, 9, 42, 64
2, 232320, Note_on_c, 9, 46, 80
2, 232560, Note_off_c, 9, 46, 64
2, 232560, Note_on_c, 9, 42, 80
2, 232800, Note_off_c, 9, 42, 64
2, 232800, Note_on_c, 9, 46, 80
2, 233040, Note_off_c, 9, 46, 64
2, 233040, Note_on_c, 9, 42, 80
2, 233280, Note_off_c, 9, 42, 64
2, 233280, Note_on_c, 9, 46, 80
2, 233520, Note_off_c, 9, 46, 64
2, 233520, Note_on_c, 9, 42, 80
2, 233760, Note_off_c, 9, 42, 64
2, 233760, Note_on_c, 9, 46, 80
2, 234000, Note_off_c, 9, 46, 64
2, 234000, Note_on_c, 9, 42, 80
2, 234240, Note_off_c, 9, 42, 64
2, 234240, Note_on_c, 9, 46, 80
2, 234480, Note_off_c, 9, 46, 64
2, 234480, Note_on_c, 9, 42, 80
2, 234720, Note_off_c, 9, 42, 64
2, 234720, Note_on_c, 9, 46, 80
2, 234960, Note_off_c, 9, 46, 64
2, 234960, Note_on_c, 9, 42, 80
2, 235200, Note_off_c, 9, 42, 64
2, 235200, Note_on_c, 9, 46, 80
2, 235440, Note_off_c, 9, 46, 64
2, 235440, Note_on_c, 9, 42, 80
2, 235680, Note_off_c, 9, 42, 64
2, 235680, Note_on_c, 9, 46, 80
2, 235920, Note_off_c, 9, 46, 64
2, 235920, Note_on_c, 9, 42, 80
2, 236160, Note_off_c, 9, 42, 64
2, 236160, Note_on_c, 9, 46, 80
2, 236400, Note_off_c, 9, 46, 64
2, 236400, Note_on_c, 9, 42, 80
2, 236640, Note_off_c, 9, 42, 64
2, 236640, Note_on_c, 9, 46, 80
2, 236880, Note_off_c, 9, 46, 64
2, 236880, Note_on_c, 9, 42, 80
2, 237120, Note_off_c, 9, 42, 64
2, 237120, Note_on_c, 9, 46, 80
2, 237360, Note_off_c, 9, 46, 64
2, 237360, Note_on_c, 9, 42, 80
2, 237600, Note_off_c, 9, 42, 64
2, 237600, Note_on_c, 9, 46, 80
2, 237840, Note_off_c, 9, 46, 64
2, 237840, Note_on_c, 9, 42, 80
2, 238080, Note_off_c, 9, 42, 64
2, 238080, Note_on_c, 9, 46, 80
2, 238320, Note_off_c, 9, 46, 64
2, 238320, Note_on_c, 9, 42, 80
2, 238560, Note_off_c, 9, 42, 64
2, 238560, Note_on_c, 9, 46, 80
2, 238800, Note_off_c, 9, 46, 64
2, 238800, Note_on_c, 9, 42, 80
2, 239040, Note_off_c, 9, 42, 64
2, 239040, Note_on_c, 9, 46, 80
2, 239280, Note_off_c, 9, 46, 64
2, 239280, Note_on_c, 9, 42, 80
2, 239520, Note_off_c, 9, 42, 64
2, 239520, Note_on_c, 9, 46, 80
2, 239760, Note_off_c, 9, 46, 64
2, 239760, Note_on_c, 9, 42, 80
2, 240000, Note_off_c, 9, 42, 64
2, 240000, Note_on_c, 9, 46, 80
2, 240240, Note_off_c, 9, 46, 64
2, 240240, Note_on_c, 9, 42, 80
2, 240480, Note_off_c, 9, 42, 64
2, 240480, Note_on_c, 9, 46, 80
2, 240720, Note_off_c, 9, 46, 64
2, 240720, Note_on_c, 9, 42, 80
2, 240960, Note_off_c, 9, 42, 64
2, 240960, Note_on_c, 9, 46, 80
2, 241200, Note_off_c, 9, 46, 64
2, 241200, Note_on_c, 9, 42, 80
2, 241440, Note_off_c, 9, 42, 64
2, 241440, Note_on_c, 9, 46, 80
2, 241680, Note_off_c, 9, 46, 64
2, 241680, Note_on_c, 9, 42, 80
2, 241920, Note_off_c, 9, 42, 64
2, 241920, Note_on_c, 9, 49, 80
2, 242400, Note_off_c, 9, 49, 64
2, 242400, Note_on_c, 9, 52, 80
2, 242640, Note_off_c, 9, 52, 64
2, 242640, Note_on_c, 9, 42, 80
2, 242880, Note_off_c, 9, 42, 64
2, 242880, Note_on_c, 9, 46, 80
2, 243120, Note_off_c, 9, 46, 64
2, 243120, Note_on_c, 9, 42, 80
2, 243360, Note_off_c, 9, 42, 64
2, 243360, Note_on_c, 9, 46, 80
2, 243600, Note_off_c, 9, 46, 64
2, 243600, Note_on_c, 9, 42, 80
2, 243840, Note_off_c, 9, 42, 64
2, 243840, Note_on_c, 9, 46, 80
2, 244080, Note_off_c, 9, 46, 64
2, 244080, Note_on_c, 9, 42, 80
2, 244320, Note_off_c, 9, 42, 64
2, 244320, Note_on_c, 9, 46, 80
2, 244560, Note_off_c, 9, 46, 64
2, 244560, Note_on_c, 9, 42, 80
2, 244800, Note_off_c, 9, 42, 64
2, 244800, Note_on_c, 9, 46, 80
2, 245040, Note_off_c, 9, 46, 64
2, 245040, Note_on_c, 9, 42, 80
2, 245280, Note_off_c, 9, 42, 64
2, 245280, Note_on_c, 9, 46, 80
2, 245520, Note_off_c, 9, 46, 64
2, 245520, Note_on_c, 9, 42, 80
2, 245760, Note_off_c, 9, 42, 64
2, 245760, Note_on_c, 9, 49, 80
2, 246240, Note_off_c, 9, 49, 64
2, 246240, Note_on_c, 9, 52, 80
2, 246480, Note_off_c, 9, 52, 64
2, 246480, Note_on_c, 9, 42, 80
2, 246720, Note_off_c, 9, 42, 64
2, 246720, Note_on_c, 9, 46, 80
2, 246960, Note_off_c, 9, 46, 64
2, 246960, Note_on_c, 9, 42, 80
2, 247200, Note_off_c, 9, 42, 64
2, 247200, Note_on_c, 9, 46, 80
2, 247440, Note_off_c, 9, 46, 64
2, 247440, Note_on_c, 9, 42, 80
2, 247680, Note_off_c, 9, 42, 64
2, 247680, Note_on_c, 9, 46, 80
2, 247920, Note_off_c, 9, 46, 64
2, 247920, Note_on_c, 9, 42, 80
2, 248160, Note_off_c, 9, 42, 64
2, 248160, Note_on_c, 9, 46, 80
2, 248400, Note_off_c, 9, 46, 64
2, 248400, Note_on_c, 9, 42, 80
2, 248640, Note_off_c, 9, 42, 64
2, 248640, Note_on_c, 9, 46, 80
2, 248880, Note_off_c, 9, 46, 64
2, 248880, Note_on_c, 9, 42, 80
2, 249120, Note_off_c, 9, 42, 64
2, 249120, Note_on_c, 9, 46, 80
2, 249360, Note_off_c, 9, 46, 64
2, 249360, Note_on_c, 9, 42, 80
2, 249600, Note_off_c, 9, 42, 64
2, 249600, Note_on_c, 9, 49, 80
2, 250080, Note_off_c, 9, 49, 64
2, 250080, Note_on_c, 9, 52, 80
2, 250320, Note_off_c, 9, 52, 64
2, 250320, Note_on_c, 9, 42, 80
2, 250560, Note_off_c, 9, 42, 64
2, 250560, Note_on_c, 9, 46, 80
2, 250800, Note_off_c, 9, 46, 64
2, 250800, Note_on_c, 9, 42, 80
2, 251040, Note_off_c, 9, 42, 64
2, 251040, Note_on_c, 9, 46, 80
2, 251280, Note_off_c, 9, 46, 64
2, 251280, Note_on_c, 9, 42, 80
2, 251520, Note_off_c, 9, 42, 64
2, 251520, Note_on_c, 9, 46, 80
2, 251760, Note_off_c, 9, 46, 64
2, 251760, Note_on_c, 9, 42, 80
2, 252000, Note_off_c, 9, 42, 64
2, 252000, Note_on_c, 9, 46, 80
2, 252240, Note_off_c, 9, 46, 64
2, 252240, Note_on_c, 9, 42, 80
2, 252480, Note_off_c, 9, 42, 64
2, 252480, Note_on_c, 9, 46, 80
2, 252720, Note_off_c, 9, 46, 64
2, 252720, Note_on_c, 9, 42, 80
2, 252960, Note_off_c, 9, 42, 64
2, 252960, Note_on_c, 9, 46, 80
2, 253200, Note_off_c, 9, 46, 64
2, 253200, Note_on_c, 9, 42, 80
2, 253440, Note_off_c, 9, 42, 64
2, 253440, Note_on_c, 9, 49, 80
2, 253920, Note_off_c, 9, 49, 64
2, 253920, Note_on_c, 9, 52, 80
2, 254160, Note_off_c, 9, 52, 64
2, 254160, Note_on_c, 9, 42, 80
2, 254400, Note_off_c, 9, 42, 64
2, 254400, Note_on_c, 9, 46, 80
2, 254640, Note_off_c, 9, 46, 64
2, 254640, Note_on_c, 9, 42, 80
2, 254880, Note_off_c, 9, 42, 64
2, 254880, Note_on_c, 9, 46, 80
2, 255120, Note_off_c, 9, 46, 64
2, 255120, Note_on_c, 9, 42, 80
2, 255360, Note_off_c, 9, 42, 64
2, 255360, Note_on_c, 9, 46, 80
2, 255600, Note_off_c, 9, 46, 64
2, 255600, Note_on_c, 9, 42, 80
2, 255840, Note_off_c, 9, 42, 64
2, 255840, Note_on_c, 9, 46, 80
2, 256080, Note_off_c, 9, 46, 64
2, 256080, Note_on_c, 9, 42, 80
2, 256320, Note_off_c, 9, 42, 64
2, 256320, Note_on_c, 9, 46, 80
2, 256560, Note_off_c, 9, 46, 64
2, 256560, Note_on_c, 9, 42, 80
2, 256800, Note_off_c, 9, 42, 64
2, 256800, Note_on_c, 9, 46, 80
2, 257040, Note_off_c, 9, 46, 64
2, 257040, Note_on_c, 9, 42, 80
2, 257280, Note_off_c, 9, 42, 64
2, 257280, Note_on_c, 9, 49, 80
2, 257760, Note_off_c, 9, 49, 64
2, 257760, Note_on_c, 9, 52, 80
2, 258000, Note_off_c, 9, 52, 64
2, 258000, Note_on_c, 9, 42, 80
2, 258240, Note_off_c, 9, 42, 64
2, 258240, Note_on_c, 9, 46, 80
2, 258480, Note_off_c, 9, 46, 64
2, 258480, Note_on_c, 9, 42, 80
2, 258720, Note_off_c, 9, 42, 64
2, 258720, Note_on_c, 9, 46, 80
2, 258960, Note_off_c, 9, 46, 64
2, 258960, Note_on_c, 9, 42, 80
2, 259200, Note_off_c, 9, 42, 64
2, 259200, Note_on_c, 9, 46, 80
2, 259440, Note_off_c, 9, 46, 64
2, 259440, Note_on_c, 9, 42, 80
2, 259680, Note_off_c, 9, 42, 64
2, 259680, Note_on_c, 9, 46, 80
2, 259920, Note_off_c, 9, 46, 64
2, 259920, Note_on_c, 9, 42, 80
2, 260160, Note_off_c, 9, 42, 64
2, 260160, Note_on_c, 9, 46, 80
2, 260400, Note_off_c, 9, 46, 64
2, 260400, Note_on_c, 9, 42, 80
2, 260640, Note_off_c, 9, 42, 64
2, 260640, Note_on_c, 9, 46, 80
2, 260880, Note_off_c, 9, 46, 64
2, 260880, Note_on_c, 9, 42, 80
2, 261120, Note_off_c, 9, 42, 64
2, 261120, Note_on_c, 9, 49, 80
2, 261600, Note_off_c, 9, 49, 64
2, 261600, Note_on_c, 9, 52, 80
2, 261840, Note_off_c, 9, 52, 64
2, 261840, Note_on_c, 9, 42, 80
2, 262080, Note_off_c, 9, 42, 64
2, 262080, Note_on_c, 9, 46, 80
2, 262320, Note_off_c, 9, 46, 64
2, 262320, Note_on_c, 9, 42, 80
2, 262560, Note_off_c, 9, 42, 64
2, 262560, Note_on_c, 9, 46, 80
2, 262800, Note_off_c, 9, 46, 64
2, 262800, Note_on_c, 9, 42, 80
2, 263040, Note_off_c, 9, 42, 64
2, 263040, Note_on_c, 9, 46, 80
2, 263280, Note_off_c, 9, 46, 64
2, 263280, Note_on_c, 9, 42, 80
2, 263520, Note_off_c, 9, 42, 64
2, 263520, Note_on_c, 9, 46, 80
2, 263760, Note_off_c, 9, 46, 64
2, 263760, Note_on_c, 9, 42, 80
2, 264000, Note_off_c, 9, 42, 64
2, 264000, Note_on_c, 9, 46, 80
2, 264240, Note_off_c, 9, 46, 64
2, 264240, Note_on_c, 9, 42, 80
2, 264480, Note_off_c, 9, 42, 64
2, 264480, Note_on_c, 9, 46, 80
2, 264720, Note_off_c, 9, 46, 64
2, 264720, Note_on_c, 9, 42, 80
2, 264960, Note_off_c, 9, 42, 64
2, 264960, Note_on_c, 9, 49, 80
2, 265440, Note_off_c, 9, 49, 64
2, 265440, Note_on_c, 9, 52, 80
2, 265680, Note_off_c, 9, 52, 64
2, 265680, Note_on_c, 9, 42, 80
2, 265920, Note_off_c, 9, 42, 64
2, 265920, Note_on_c, 9, 46, 80
2, 266160, Note_off_c, 9, 46, 64
2, 266160, Note_on_c, 9, 42, 80
2, 266400, Note_off_c, 9, 42, 64
2, 266400, Note_on_c, 9, 46, 80
2, 266640, Note_off_c, 9, 46, 64
2, 266640, Note_on_c, 9, 42, 80
2, 266880, Note_off_c, 9, 42, 64
2, 266880, Note_on_c, 9, 46, 80
2, 267120, Note_off_c, 9, 46, 64
2, 267120, Note_on_c, 9, 42, 80
2, 267360, Note_off_c, 9, 42, 64
2, 267360, Note_on_c, 9, 46, 80
2, 267600, Note_off_c, 9, 46, 64
2, 267600, Note_on_c, 9, 42, 80
2, 267840, Note_off_c, 9, 42, 64
2, 267840, Note_on_c, 9, 46, 80
2, 268080, Note_off_c, 9, 46, 64
2, 268080, Note_on_c, 9, 42, 80
2, 268320, Note_off_c, 9, 42, 64
2, 268320, Note_on_c, 9, 46, 80
2, 268560, Note_off_c, 9, 46, 64
2, 268560, Note_on_c, 9, 42, 80
2, 268800, Note_off_c, 9, 42, 64
2, 268800, Note_on_c, 9, 49, 80
2, 269280, Note_off_c, 9, 49, 64
2, 269280, Note_on_c, 9, 52, 80
2, 269520, Note_off_c, 9, 52, 64
2, 269520, Note_on_c, 9, 42, 80
2, 269760, Note_off_c, 9, 42, 64
2, 269760, Note_on_c, 9, 46, 80
2, 270000, Note_off_c, 9, 46, 64
2, 270000, Note_on_c, 9, 42, 80
2, 270240, Note_off_c, 9, 42, 64
2, 270240, Note_on_c, 9, 46, 80
2, 270480, Note_off_c, 9, 46, 64
2, 270480, Note_on_c, 9, 42, 80
2, 270720, Note_off_c, 9, 42, 64
2, 270720, Note_on_c, 9, 46, 80
2, 270960, Note_off_c, 9, 46, 64
2, 270960, Note_on_c, 9, 42, 80
2, 271200, Note_off_c, 9, 42, 64
2, 271200, Note_on_c, 9, 46, 80
2, 271440, Note_off_c, 9, 46, 64
2, 271440, Note_on_c, 9, 42, 80
2, 271680, Note_off_c, 9, 42, 64
2, 271680, Note_on_c, 9, 46, 80
2, 271920, Note_off_c, 9, 46, 64
2, 271920, Note_on_c, 9, 42, 80
2, 272160, Note_off_c, 9, 42, 64
2, 272160, Note_on_c, 9, 46, 80
2, 272400, Note_off_c, 9, 46, 64
2, 272400, Note_on_c, 9, 42, 80
2, 272640, Note_off_c, 9, 42, 64
2, 272640, Note_on_c, 9, 49, 80
2, 273120, Note_off_c, 9, 49, 64
2, 273120, Note_on_c, 9, 52, 80
2, 273360, Note_off_c, 9, 52, 64
2, 273360, Note_on_c, 9, 42, 80
2, 273600, Note_off_c, 9, 42, 64
2, 273600, Note_on_c, 9, 46, 80
2, 273840, Note_off_c, 9, 46, 64
2, 273840, Note_on_c, 9, 42, 80
2, 274080, Note_off_c, 9, 42, 64
2, 274080, Note_on_c, 9, 46, 80
2, 274320, Note_off_c, 9, 46, 64
2, 274320, Note_on_c, 9, 42, 80
2, 274560, Note_off_c, 9, 42, 64
2, 274560, Note_on_c, 9, 46, 80
2, 274800, Note_off_c, 9, 46, 64
2, 274800, Note_on_c, 9, 42, 80
2, 275040, Note_off_c, 9, 42, 64
2, 275040, Note_on_c, 9, 46, 80
2, 275280, Note_off_c, 9, 46, 64
2, 275280, Note_on_c, 9, 42, 80
2, 275520, Note_off_c, 9, 42, 64
2, 275520, Note_on_c, 9, 46, 80
2, 275760, Note_off_c, 9, 46, 64
2, 275760, Note_on_c, 9, 42, 80
2, 276000, Note_off_c, 9, 42, 64
2, 276000, Note_on_c, 9, 46, 80
2, 276240, Note_off_c, 9, 46, 64
2, 276240, Note_on_c, 9, 42, 80
2, 276480, Note_off_c, 9, 42, 64
2, 276480, Note_on_c, 9, 49, 80
2, 276960, Note_off_c, 9, 49, 64
2, 276960, Note_on_c, 9, 52, 80
2, 277200, Note_off_c, 9, 52, 64
2, 277200, Note_on_c, 9, 42, 80
2, 277440, Note_off_c, 9, 42, 64
2, 277440, Note_on_c, 9, 46, 80
2, 277680, Note_off_c, 9, 46, 64
2, 277680, Note_on_c, 9, 42, 80
2, 277920, Note_off_c, 9, 42, 64
2, 277920, Note_on_c, 9, 46, 80
2, 278160, Note_off_c, 9, 46, 64
2, 278160, Note_on_c, 9, 42, 80
2, 278400, Note_off_c, 9, 42, 64
2, 278400, Note_on_c, 9, 46, 80
2, 278640, Note_off_c, 9, 46, 64
2, 278640, Note_on_c, 9, 42, 80
2, 278880, Note_off_c, 9, 42, 64
2, 278880, Note_on_c, 9, 46, 80
2, 279120, Note_off_c, 9, 46, 64
2, 279120, Note_on_c, 9, 42, 80
2, 279360, Note_off_c, 9, 42, 64
2, 279360, Note_on_c, 9, 46, 80
2, 279600, Note_off_c, 9, 46, 64
2, 279600, Note_on_c, 9, 42, 80
2, 279840, Note_off_c, 9, 42, 64
2, 279840, Note_on_c, 9, 46, 80
2, 280080, Note_off_c, 9, 46, 64
2, 280080, Note_on_c, 9, 42, 80
2, 280320, Note_off_c, 9, 42, 64
2, 280320, Note_on_c, 9, 49, 80
2, 280800, Note_off_c, 9, 49, 64
2, 280800, Note_on_c, 9, 52, 80
2, 281040, Note_off_c, 9, 52, 64
2, 281040, Note_on_c, 9, 42, 80
2, 281280, Note_off_c, 9, 42, 64
2, 281280, Note_on_c, 9, 46, 80
2, 281520, Note_off_c, 9, 46, 64
2, 281520, Note_on_c, 9, 42, 80
2, 281760, Note_off_c, 9, 42, 64
2, 281760, Note_on_c, 9, 46, 80
2, 282000, Note_off_c, 9, 46, 64
2, 282000, Note_on_c, 9, 42, 80
2, 282240, Note_off_c, 9, 42, 64
2, 282240, Note_on_c, 9, 46, 80
2, 282480, Note_off_c, 9, 46, 64
2, 282480, Note_on_c, 9, 42, 80
2, 282720, Note_off_c, 9, 42, 64
2, 282720, Note_on_c, 9, 46, 80
2, 282960, Note_off_c, 9, 46, 64
2, 282960, Note_on_c, 9, 42, 80
2, 283200, Note_off_c, 9, 42, 64
2, 283200, Note_on_c, 9, 46, 80
2, 283440, Note_off_c, 9, 46, 64
2, 283440, Note_on_c, 9, 42, 80
2, 283680, Note_off_c, 9, 42, 64
2, 283680, Note_on_c, 9, 46, 80
2, 283920, Note_off_c, 9, 46, 64
2, 283920, Note_on_c, 9, 42, 80
2, 284160, Note_off_c, 9, 42, 64
2, 284160, Note_on_c, 9, 49, 80
2, 284640, Note_off_c, 9, 49, 64
2, 284640, Note_on_c, 9, 52, 80
2, 284880, Note_off_c, 9, 52, 64
2, 284880, Note_on_c, 9, 42, 80
2, 285120, Note_off_c, 9, 42, 64
2, 285120, Note_on_c, 9, 46, 80
2, 285360, Note_off_c, 9, 46, 64
2, 285360, Note_on_c, 9, 42, 80
2, 285600, Note_off_c, 9, 42, 64
2, 285600, Note_on_c, 9, 46, 80
2, 285840, Note_off_c, 9, 46, 64
2, 285840, Note_on_c, 9, 42, 80
2, 286080, Note_off_c, 9, 42, 64
2, 286080, Note_on_c, 9, 46, 80
2, 286320, Note_off_c, 9, 46, 64
2, 286320, Note_on_c, 9, 42, 80
2, 286560, Note_off_c, 9, 42, 64
2, 286560, Note_on_c, 9, 46, 80
2, 286800, Note_off_c, 9, 46, 64
2, 286800, Note_on_c, 9, 42, 80
2, 287040, Note_off_c, 9, 42, 64
2, 287040, Note_on_c, 9, 46, 80
2, 287280, Note_off_c, 9, 46, 64
2, 287280, Note_on_c, 9, 42, 80
2, 287520, Note_off_c, 9, 42, 64
2, 287520, Note_on_c, 9, 46, 80
2, 287760, Note_off_c, 9, 46, 64
2, 287760, Note_on_c, 9, 42, 80
2, 288000, Note_off_c, 9, 42, 64
2, 288000, Note_on_c, 9, 49, 80
2, 288480, Note_off_c, 9, 49, 64
2, 288480, Note_on_c, 9, 52, 80
2, 288720, Note_off_c, 9, 52, 64
2, 288720, Note_on_c, 9, 42, 80
2, 288960, Note_off_c, 9, 42, 64
2, 288960, Note_on_c, 9, 46, 80
2, 289200, Note_off_c, 9, 46, 64
2, 289200, Note_on_c, 9, 42, 80
2, 289440, Note_off_c, 9, 42, 64
2, 289440, Note_on_c, 9, 46, 80
2, 289680, Note_off_c, 9, 46, 64
2, 289680, Note_on_c, 9, 42, 80
2, 289920, Note_off_c, 9, 42, 64
2, 289920, Note_on_c, 9, 46, 80
2, 290160, Note_off_c, 9, 46, 64
2, 290160, Note_on_c, 9, 42, 80
2, 290400, Note_off_c, 9, 42, 64
2, 290400, Note_on_c, 9, 46, 80
2, 290640, Note_off_c, 9, 46, 64
2, 290640, Note_on_c, 9, 42, 80
2, 290880, Note_off_c, 9, 42, 64
2, 290880, Note_on_c, 9, 46, 80
2, 291120, Note_off_c, 9, 46, 64
2, 291120, Note_on_c, 9, 42, 80
2, 291360, Note_off_c, 9, 42, 64
2, 291360, Note_on_c, 9, 46, 80
2, 291600, Note_off_c, 9, 46, 64
2, 291600, Note_on_c, 9, 42, 80
2, 291840, Note_off_c, 9, 42, 64
2, 291840, Note_on_c, 9, 49, 80
2, 292320, Note_off_c, 9, 49, 64
2, 292320, Note_on_c, 9, 52, 80
2, 292560, Note_off_c, 9, 52, 64
2, 292560, Note_on_c, 9, 42, 80
2, 292800, Note_off_c, 9, 42, 64
2, 292800, Note_on_c, 9, 46, 80
2, 293040, Note_off_c, 9, 46, 64
2, 293040, Note_on_c, 9, 42, 80
2, 293280, Note_off_c, 9, 42, 64
2, 293280, Note_on_c, 9, 46, 80
2, 293520, Note_off_c, 9, 46, 64
2, 293520, Note_on_c, 9, 42, 80
2, 293760, Note_off_c, 9, 42, 64
2, 293760, Note_on_c, 9, 46, 80
2, 294000, Note_off_c, 9, 46, 64
2, 294000, Note_on_c, 9, 42, 80
2, 294240, Note_off_c, 9, 42, 64
2, 294240, Note_on_c, 9, 46, 80
2, 294480, Note_off_c, 9, 46, 64
2, 294480, Note_on_c, 9, 42, 80
2, 294720, Note_off_c, 9, 42, 64
2, 294720, Note_on_c, 9, 46, 80
2, 294960, Note_off_c, 9, 46, 64
2, 294960, Note_on_c, 9, 42, 80
2, 295200, Note_off_c, 9, 42, 64
2, 295200, Note_on_c, 9, 46, 80
2, 295440, Note_off_c, 9, 46, 64
2, 295440, Note_on_c, 9, 42, 80
2, 295680, Note_off_c, 9, 42, 64
2, 295680, Note_on_c, 9, 49, 80
2, 296160, Note_off_c, 9, 49, 64
2, 296160, Note_on_c, 9, 52, 80
2, 296400, Note_off_c, 9, 52, 64
2, 296400, Note_on_c, 9, 42, 80
2, 296640, Note_off_c, 9, 42, 64
2, 296640, Note_on_c, 9, 46, 80
2, 296880, Note_off_c, 9, 46, 64
2, 296880, Note_on_c, 9, 42, 80
2, 297120, Note_off_c, 9, 42, 64
2, 297120, Note_on_c, 9, 46, 80
2, 297360, Note_off_c, 9, 46, 64
2, 297360, Note_on_c, 9, 42, 80
2, 297600, Note_off_c, 9, 42, 64
2, 297600, Note_on_c, 9, 46, 80
2, 297840, Note_off_c, 9, 46, 64
2, 297840, Note_on_c, 9, 42, 80
2, 298080, Note_off_c, 9, 42, 64
2, 298080, Note_on_c, 9, 46, 80
2, 298320, Note_off_c, 9, 46, 64
2, 298320, Note_on_c, 9, 42, 80
2, 298560, Note_off_c, 9, 42, 64
2, 298560, Note_on_c, 9, 46, 80
2, 298800, Note_off_c, 9, 46, 64
2, 298800, Note_on_c, 9, 42, 80
2, 299040, Note_off_c, 9, 42, 64
2, 299040, Note_on_c, 9, 46, 80
2, 299280, Note_off_c, 9, 46, 64
2, 299280, Note_on_c, 9, 42, 80
2, 299520, Note_off_c, 9, 42, 64
2, 299520, Note_on_c, 9, 49, 80
2, 300000, Note_off_c, 9, 49, 64
2, 300000, End_track
0, 0, End_of_file