0, 0, Header, 1, 1, 480
1, 0, Start_track
1, 0, Title_t, "Drumkit"
1, 0, Program_c, 9, 0
1, 0, Note_on_c, 9, 42, 80
1, 480, Note_off_c, 9, 42, 64
1, 480, Note_on_c, 9, 42, 80
1, 960, Note_off_c, 9, 42, 64
1, 960, Note_on_c, 9, 42, 80
1, 1440, Note_off_c, 9, 42, 64
1, 1440, Note_on_c, 9, 42, 80
1, 1920, Note_off_c, 9, 42, 64
1, 1920, Note_on_c, 9, 42, 80
1, 2400, Note_off_c, 9, 42, 64
1, 2400, Note_on_c, 9, 42, 80
1, 2880, Note_off_c, 9, 42, 64
1, 2880, Note_on_c, 9, 42, 80
1, 3360, Note_off_c, 9, 42, 64
1, 3360, Note_on_c, 9, 42, 80
1, 3840, Note_off_c, 9, 42, 64
1, 3840, Note_on_c, 9, 49, 80
1, 3840, Note_on_c, 9, 42, 80
1, 3840, Note_on_c, 9, 35, 80
1, 4080, Note_off_c, 9, 49, 64
1, 4080, Note_off_c, 9, 42, 64
1, 4080, Note_off_c, 9, 35, 64
1, 4080, Note_on_c, 9, 44, 72
1, 4320, Note_off_c, 9, 44, 64
1, 4320, Note_on_c, 9, 42, 80
1, 4320, Note_on_c, 9, 38, 80
1, 4560, Note_off_c, 9, 42, 64
1, 4560, Note_off_c, 9, 38, 64
1, 4560, Note_on_c, 9, 44, 72
1, 4800, Note_off_c, 9, 44, 64
1, 4800, Note_on_c, 9, 42, 80
1, 4800, Note_on_c, 9, 35, 80
1, 5040, Note_off_c, 9, 42, 64
1, 5040, Note_off_c, 9, 35, 64
1, 5040, Note_on_c, 9, 44, 72
1, 5280, Note_off_c, 9, 44, 64
1, 5280, Note_on_c, 9, 42, 80
1, 5280, Note_on_c, 9, 38, 80
1, 5520, Note_off_c, 9, 42, 64
1, 5520, Note_off_c, 9, 38, 64
1, 5520, Note_on_c, 9, 44, 72
1, 5760, Note_off_c, 9, 44, 64
1, 5760, Note_on_c, 9, 42, 80
1, 5760, Note_on_c, 9, 35, 80
1, 6000, Note_off_c, 9, 42, 64
1, 6000, Note_off_c, 9, 35, 64
1, 6000, Note_on_c, 9, 44, 72
1, 6240, Note_off_c, 9, 44, 64
1, 6240, Note_on_c, 9, 42, 80
1, 6240, Note_on_c, 9, 38, 80
1, 6480, Note_off_c, 9, 42, 64
1, 6480, Note_off_c, 9, 38, 64
1, 6480, Note_on_c, 9, 44, 72
1, 6720, Note_off_c, 9, 44, 64
1, 6720, Note_on_c, 9, 42, 80
1, 6720, Note_on_c, 9, 35, 80
1, 6960, Note_off_c, 9, 42, 64
1, 6960, Note_off_c, 9, 35, 64
1, 6960, Note_on_c, 9, 44, 72
1, 7200, Note_off_c, 9, 44, 64
1, 7200, Note_on_c, 9, 42, 80
1, 7200, Note_on_c, 9, 38, 80
1, 7440, Note_off_c, 9, 42, 64
1, 7440, Note_off_c, 9, 38, 64
1, 7440, Note_on_c, 9, 44, 72
1, 7680, Note_off_c, 9, 44, 64
1, 7680, Note_on_c, 9, 42, 80
1, 7680, Note_on_c, 9, 35, 80
1, 7920, Note_off_c, 9, 42, 64
1, 7920, Note_off_c, 9, 35, 64
1, 7920, Note_on_c, 9, 44, 72
1, 8160, Note_off_c, 9, 44, 64
1, 8160, Note_on_c, 9, 42, 80
1, 8160, Note_on_c, 9, 38, 80
1, 8400, Note_off_c, 9, 42, 64
1, 8400, Note_off_c, 9, 38, 64
1, 8400, Note_on_c, 9, 44, 72
1, 8640, Note_off_c, 9, 44, 64
1, 8640, Note_on_c, 9, 42, 80
1, 8640, Note_on_c, 9, 35, 80
1, 8880, Note_off_c, 9, 42, 64
1, 8880, Note_off_c, 9, 35, 64
1, 8880, Note_on_c, 9, 44, 72
1, 9120, Note_off_c, 9, 44, 64
1, 9120, Note_on_c, 9, 42, 80
1, 9120, Note_on_c, 9, 38, 80
1, 9360, Note_off_c, 9, 42, 64
1, 9360, Note_off_c, 9, 38, 64
1, 9360, Note_on_c, 9, 44, 72
1, 9600, Note_off_c, 9, 44, 64
1, 9600, Note_on_c, 9, 42, 80
1, 9600, Note_on_c, 9, 35, 80
1, 9840, Note_off_c, 9, 42, 64
1, 9840, Note_off_c, 9, 35, 64
1, 9840, Note_on_c, 9, 44, 72
1, 10080, Note_off_c, 9, 44, 64
1, 10080, Note_on_c, 9, 38, 88
1, 10200, Note_off_c, 9, 38, 64
1, 10200, Note_on_c, 9, 46, 72
1, 10200, Note_on_c, 9, 35, 72
1, 10440, Note_off_c, 9, 46, 64
1, 10440, Note_off_c, 9, 35, 64
1, 10440, Note_on_c, 9, 38, 88
1, 10560, Note_off_c, 9, 38, 64
1, 10560, Note_on_c, 9, 46, 72
1, 10560, Note_on_c, 9, 35, 72
1, 10800, Note_off_c, 9, 46, 64
1, 10800, Note_off_c, 9, 35, 64
1, 10800, Note_on_c, 9, 38, 88
1, 10920, Note_off_c, 9, 38, 64
1, 10920, Note_on_c, 9, 46, 72
1, 10920, Note_on_c, 9, 35, 72
1, 11040, Note_off_c, 9, 46, 64
1, 11040, Note_off_c, 9, 35, 64
1, 11160, Note_on_c, 9, 38, 88
1, 11280, Note_off_c, 9, 38, 64
1, 11280, Note_on_c, 9, 46, 72
1, 11280, Note_on_c, 9, 35, 72
1, 11520, Note_off_c, 9, 46, 64
1, 11520, Note_off_c, 9, 35, 64
1, 11520, Note_on_c, 9, 49, 80
1, 11520, Note_on_c, 9, 42, 80
1, 11520, Note_on_c, 9, 35, 80
1, 11760, Note_off_c, 9, 49, 64
1, 11760, Note_off_c, 9, 42, 64
1, 11760, Note_off_c, 9, 35, 64
1, 11760, Note_on_c, 9, 44, 72
1, 12000, Note_off_c, 9, 44, 64
1, 12000, Note_on_c, 9, 42, 80
1, 12000, Note_on_c, 9, 38, 80
1, 12240, Note_off_c, 9, 42, 64
1, 12240, Note_off_c, 9, 38, 64
1, 12240, Note_on_c, 9, 44, 72
1, 12480, Note_off_c, 9, 44, 64
1, 12480, Note_on_c, 9, 42, 80
1, 12480, Note_on_c, 9, 35, 80
1, 12720, Note_off_c, 9, 42, 64
1, 12720, Note_off_c, 9, 35, 64
1, 12720, Note_on_c, 9, 44, 72
1, 12960, Note_off_c, 9, 44, 64
1, 12960, Note_on_c, 9, 42, 80
1, 12960, Note_on_c, 9, 38, 80
1, 13200, Note_off_c, 9, 42, 64
1, 13200, Note_off_c, 9, 38, 64
1, 13200, Note_on_c, 9, 44, 72
1, 13440, Note_off_c, 9, 44, 64
1, 13440, Note_on_c, 9, 42, 80
1, 13440, Note_on_c, 9, 35, 80
1, 13680, Note_off_c, 9, 42, 64
1, 13680, Note_off_c, 9, 35, 64
1, 13680, Note_on_c, 9, 44, 72
1, 13920, Note_off_c, 9, 44, 64
1, 13920, Note_on_c, 9, 42, 80
1, 13920, Note_on_c, 9, 38, 80
1, 14160, Note_off_c, 9, 42, 64
1, 14160, Note_off_c, 9, 38, 64
1, 14160, Note_on_c, 9, 44, 72
1, 14400, Note_off_c, 9, 44, 64
1, 14400, Note_on_c, 9, 42, 80
1, 14400, Note_on_c, 9, 35, 80
1, 14640, Note_off_c, 9, 42, 64
1, 14640, Note_off_c, 9, 35, 64
1, 14640, Note_on_c, 9, 44, 72
1, 14880, Note_off_c, 9, 44, 64
1, 14880, Note_on_c, 9, 42, 80
1, 14880, Note_on_c, 9, 38, 80
1, 15120, Note_off_c, 9, 42, 64
1, 15120, Note_off_c, 9, 38, 64
1, 15120, Note_on_c, 9, 44, 72
1, 15360, Note_off_c, 9, 44, 64
1, 15360, Note_on_c, 9, 42, 80
1, 15360, Note_on_c, 9, 35, 80
1, 15600, Note_off_c, 9, 42, 64
1, 15600, Note_off_c, 9, 35, 64
1, 15600, Note_on_c, 9, 44, 72
1, 15840, Note_off_c, 9, 44, 64
1, 15840, Note_on_c, 9, 42, 80
1, 15840, Note_on_c, 9, 38, 80
1, 16080, Note_off_c, 9, 42, 64
1, 16080, Note_off_c, 9, 38, 64
1, 16080, Note_on_c, 9, 44, 72
1, 16320, Note_off_c, 9, 44, 64
1, 16320, Note_on_c, 9, 42, 80
1, 16320, Note_on_c, 9, 35, 80
1, 16560, Note_off_c, 9, 42, 64
1, 16560, Note_off_c, 9, 35, 64
1, 16560, Note_on_c, 9, 44, 72
1, 16800, Note_off_c, 9, 44, 64
1, 16800, Note_on_c, 9, 42, 80
1, 16800, Note_on_c, 9, 38, 80
1, 17040, Note_off_c, 9, 42, 64
1, 17040, Note_off_c, 9, 38, 64
1, 17040, Note_on_c, 9, 44, 72
1, 17280, Note_off_c, 9, 44, 64
1, 17280, Note_on_c, 9, 42, 80
1, 17280, Note_on_c, 9, 35, 80
1, 17520, Note_off_c, 9, 42, 64
1, 17520, Note_off_c, 9, 35, 64
1, 17520, Note_on_c, 9, 44, 72
1, 17760, Note_off_c, 9, 44, 64
1, 17760, Note_on_c, 9, 38, 88
1, 17880, Note_off_c, 9, 38, 64
1, 17880, Note_on_c, 9, 46, 72
1, 17880, Note_on_c, 9, 35, 72
1, 18120, Note_off_c, 9, 46, 64
1, 18120, Note_off_c, 9, 35, 64
1, 18120, Note_on_c, 9, 38, 88
1, 18240, Note_off_c, 9, 38, 64
1, 18240, Note_on_c, 9, 46, 72
1, 18240, Note_on_c, 9, 35, 72
1, 18480, Note_off_c, 9, 46, 64
1, 18480, Note_off_c, 9, 35, 64
1, 18480, Note_on_c, 9, 38, 88
1, 18600, Note_off_c, 9, 38, 64
1, 18600, Note_on_c, 9, 46, 72
1, 18600, Note_on_c, 9, 35, 72
1, 18720, Note_off_c, 9, 46, 64
1, 18720, Note_off_c, 9, 35, 64
1, 18840, Note_on_c, 9, 38, 88
1, 18960, Note_off_c, 9, 38, 64
1, 18960, Note_on_c, 9, 46, 72
1, 18960, Note_on_c, 9, 35, 72
1, 19200, Note_off_c, 9, 46, 64
1, 19200, Note_off_c, 9, 35, 64
1, 19200, Note_on_c, 9, 49, 80
1, 19200, Note_on_c, 9, 42, 80
1, 19200, Note_on_c, 9, 35, 80
1, 19440, Note_off_c, 9, 49, 64
1, 19440, Note_off_c, 9, 42, 64
1, 19440, Note_off_c, 9, 35, 64
1, 19440, Note_on_c, 9, 44, 72
1, 19680, Note_off_c, 9, 44, 64
1, 19680, Note_on_c, 9, 42, 80
1, 19680, Note_on_c, 9, 38, 80
1, 19920, Note_off_c, 9, 42, 64
1, 19920, Note_off_c, 9, 38, 64
1, 19920, Note_on_c, 9, 44, 72
1, 20160, Note_off_c, 9, 44, 64
1, 20160, Note_on_c, 9, 42, 80
1, 20160, Note_on_c, 9, 35, 80
1, 20400, Note_off_c, 9, 42, 64
1, 20400, Note_off_c, 9, 35, 64
1, 20400, Note_on_c, 9, 44, 72
1, 20640, Note_off_c, 9, 44, 64
1, 20640, Note_on_c, 9, 42, 80
1, 20640, Note_on_c, 9, 38, 80
1, 20880, Note_off_c, 9, 42, 64
1, 20880, Note_off_c, 9, 38, 64
1, 20880, Note_on_c, 9, 44, 72
1, 21120, Note_off_c, 9, 44, 64
1, 21120, Note_on_c, 9, 42, 80
1, 21120, Note_on_c, 9, 35, 80
1, 21360, Note_off_c, 9, 42, 64
1, 21360, Note_off_c, 9, 35, 64
1, 21360, Note_on_c, 9, 44, 72
1, 21600, Note_off_c, 9, 44, 64
1, 21600, Note_on_c, 9, 42, 80
1, 21600, Note_on_c, 9, 38, 80
1, 21840, Note_off_c, 9, 42, 64
1, 21840, Note_off_c, 9, 38, 64
1, 21840, Note_on_c, 9, 44, 72
1, 22080, Note_off_c, 9, 44, 64
1, 22080, Note_on_c, 9, 42, 80
1, 22080, Note_on_c, 9, 35, 80
1, 22320, Note_off_c, 9, 42, 64
1, 22320, Note_off_c, 9, 35, 64
1, 22320, Note_on_c, 9, 44, 72
1, 22560, Note_off_c, 9, 44, 64
1, 22560, Note_on_c, 9, 42, 80
1, 22560, Note_on_c, 9, 38, 80
1, 22800, Note_off_c, 9, 42, 64
1, 22800, Note_off_c, 9, 38, 64
1, 22800, Note_on_c, 9, 44, 72
1, 23040, Note_off_c, 9, 44, 64
1, 23040, Note_on_c, 9, 42, 80
1, 23040, Note_on_c, 9, 35, 80
1, 23280, Note_off_c, 9, 42, 64
1, 23280, Note_off_c, 9, 35, 64
1, 23280, Note_on_c, 9, 44, 72
1, 23520, Note_off_c, 9, 44, 64
1, 23520, Note_on_c, 9, 42, 80
1, 23520, Note_on_c, 9, 38, 80
1, 23760, Note_off_c, 9, 42, 64
1, 23760, Note_off_c, 9, 38, 64
1, 23760, Note_on_c, 9, 44, 72
1, 24000, Note_off_c, 9, 44, 64
1, 24000, Note_on_c, 9, 42, 80
1, 24000, Note_on_c, 9, 35, 80
1, 24240, Note_off_c, 9, 42, 64
1, 24240, Note_off_c, 9, 35, 64
1, 24240, Note_on_c, 9, 44, 72
1, 24480, Note_off_c, 9, 44, 64
1, 24480, Note_on_c, 9, 42, 80
1, 24480, Note_on_c, 9, 38, 80
1, 24720, Note_off_c, 9, 42, 64
1, 24720, Note_off_c, 9, 38, 64
1, 24720, Note_on_c, 9, 44, 72
1, 24960, Note_off_c, 9, 44, 64
1, 24960, Note_on_c, 9, 42, 80
1, 24960, Note_on_c, 9, 35, 80
1, 25200, Note_off_c, 9, 42, 64
1, 25200, Note_off_c, 9, 35, 64
1, 25200, Note_on_c, 9, 44, 72
1, 25440, Note_off_c, 9, 44, 64
1, 25440, Note_on_c, 9, 38, 88
1, 25560, Note_off_c, 9, 38, 64
1, 25560, Note_on_c, 9, 46, 72
1, 25560, Note_on_c, 9, 35, 72
1, 25800, Note_off_c, 9, 46, 64
1, 25800, Note_off_c, 9, 35, 64
1, 25800, Note_on_c, 9, 38, 88
1, 25920, Note_off_c, 9, 38, 64
1, 25920, Note_on_c, 9, 46, 72
1, 25920, Note_on_c, 9, 35, 72
1, 26160, Note_off_c, 9, 46, 64
1, 26160, Note_off_c, 9, 35, 64
1, 26160, Note_on_c, 9, 38, 88
1, 26280, Note_off_c, 9, 38, 64
1, 26280, Note_on_c, 9, 46, 72
1, 26280, Note_on_c, 9, 35, 72
1, 26400, Note_off_c, 9, 46, 64
1, 26400, Note_off_c, 9, 35, 64
1, 26520, Note_on_c, 9, 38, 88
1, 26640, Note_off_c, 9, 38, 64
1, 26640, Note_on_c, 9, 46, 72
1, 26640, Note_on_c, 9, 35, 72
1, 26880, Note_off_c, 9, 46, 64
1, 26880, Note_off_c, 9, 35, 64
1, 26880, Note_on_c, 9, 49, 80
1, 26880, Note_on_c, 9, 42, 80
1, 26880, Note_on_c, 9, 35, 80
1, 27120, Note_off_c, 9, 49, 64
1, 27120, Note_off_c, 9, 42, 64
1, 27120, Note_off_c, 9, 35, 64
1, 27120, Note_on_c, 9, 44, 72
1, 27360, Note_off_c, 9, 44, 64
1, 27360, Note_on_c, 9, 42, 80
1, 27360, Note_on_c, 9, 38, 80
1, 27600, Note_off_c, 9, 42, 64
1, 27600, Note_off_c, 9, 38, 64
1, 27600, Note_on_c, 9, 44, 72
1, 27840, Note_off_c, 9, 44, 64
1, 27840, Note_on_c, 9, 42, 80
1, 27840, Note_on_c, 9, 35, 80
1, 28080, Note_off_c, 9, 42, 64
1, 28080, Note_off_c, 9, 35, 64
1, 28080, Note_on_c, 9, 44, 72
1, 28320, Note_off_c, 9, 44, 64
1, 28320, Note_on_c, 9, 42, 80
1, 28320, Note_on_c, 9, 38, 80
1, 28560, Note_off_c, 9, 42, 64
1, 28560, Note_off_c, 9, 38, 64
1, 28560, Note_on_c, 9, 44, 72
1, 28800, Note_off_c, 9, 44, 64
1, 28800, Note_on_c, 9, 42, 80
1, 28800, Note_on_c, 9, 35, 80
1, 29040, Note_off_c, 9, 42, 64
1, 29040, Note_off_c, 9, 35, 64
1, 29040, Note_on_c, 9, 44, 72
1, 29280, Note_off_c, 9, 44, 64
1, 29280, Note_on_c, 9, 42, 80
1, 29280, Note_on_c, 9, 38, 80
1, 29520, Note_off_c, 9, 42, 64
1, 29520, Note_off_c, 9, 38, 64
1, 29520, Note_on_c, 9, 44, 72
1, 29760, Note_off_c, 9, 44, 64
1, 29760, Note_on_c, 9, 42, 80
1, 29760, Note_on_c, 9, 35, 80
1, 30000, Note_off_c, 9, 42, 64
1, 30000, Note_off_c, 9, 35, 64
1, 30000, Note_on_c, 9, 44, 72
1, 30240, Note_off_c, 9, 44, 64
1, 30240, Note_on_c, 9, 42, 80
1, 30240, Note_on_c, 9, 38, 80
1, 30480, Note_off_c, 9, 42, 64
1, 30480, Note_off_c, 9, 38, 64
1, 30480, Note_on_c, 9, 44, 72
1, 30720, Note_off_c, 9, 44, 64
1, 30720, Note_on_c, 9, 42, 80
1, 30720, Note_on_c, 9, 35, 80
1, 30960, Note_off_c, 9, 42, 64
1, 30960, Note_off_c, 9, 35, 64
1, 30960, Note_on_c, 9, 44, 72
1, 31200, Note_off_c, 9, 44, 64
1, 31200, Note_on_c, 9, 42, 80
1, 31200, Note_on_c, 9, 38, 80
1, 31440, Note_off_c, 9, 42, 64
1, 31440, Note_off_c, 9, 38, 64
1, 31440, Note_on_c, 9, 44, 72
1, 31680, Note_off_c, 9, 44, 64
1, 31680, Note_on_c, 9, 42, 80
1, 31680, Note_on_c, 9, 35, 80
1, 31920, Note_off_c, 9, 42, 64
1, 31920, Note_off_c, 9, 35, 64
1, 31920, Note_on_c, 9, 44, 72
1, 32160, Note_off_c, 9, 44, 64
1, 32160, Note_on_c, 9, 42, 80
1, 32160, Note_on_c, 9, 38, 80
1, 32400, Note_off_c, 9, 42, 64
1, 32400, Note_off_c, 9, 38, 64
1, 32400, Note_on_c, 9, 44, 72
1, 32640, Note_off_c, 9, 44, 64
1, 32640, Note_on_c, 9, 42, 80
1, 32640, Note_on_c, 9, 35, 80
1, 32880, Note_off_c, 9, 42, 64
1, 32880, Note_off_c, 9, 35, 64
1, 32880, Note_on_c, 9, 44, 72
1, 33120, Note_off_c, 9, 44, 64
1, 33120, Note_on_c, 9, 38, 88
1, 33240, Note_off_c, 9, 38, 64
1, 33240, Note_on_c, 9, 46, 72
1, 33240, Note_on_c, 9, 35, 72
1, 33480, Note_off_c, 9, 46, 64
1, 33480, Note_off_c, 9, 35, 64
1, 33480, Note_on_c, 9, 38, 88
1, 33600, Note_off_c, 9, 38, 64
1, 33600, Note_on_c, 9, 46, 72
1, 33600, Note_on_c, 9, 35, 72
1, 33840, Note_off_c, 9, 46, 64
1, 33840, Note_off_c, 9, 35, 64
1, 33840, Note_on_c, 9, 38, 88
1, 33960, Note_off_c, 9, 38, 64
1, 33960, Note_on_c, 9, 46, 72
1, 33960, Note_on_c, 9, 35, 72
1, 34080, Note_off_c, 9, 46, 64
1, 34080, Note_off_c, 9, 35, 64
1, 34200, Note_on_c, 9, 38, 88
1, 34320, Note_off_c, 9, 38, 64
1, 34320, Note_on_c, 9, 46, 72
1, 34320, Note_on_c, 9, 35, 72
1, 34560, Note_off_c, 9, 46, 64
1, 34560, Note_off_c, 9, 35, 64
1, 34560, Note_on_c, 9, 57, 80
1, 34560, Note_on_c, 9, 42, 80
1, 34560, Note_on_c, 9, 35, 80
1, 34800, Note_off_c, 9, 57, 64
1, 34800, Note_off_c, 9, 42, 64
1, 34800, Note_off_c, 9, 35, 64
1, 34800, Note_on_c, 9, 42, 80
1, 35040, Note_off_c, 9, 42, 64
1, 35040, Note_on_c, 9, 42, 80
1, 35040, Note_on_c, 9, 38, 80
1, 35280, Note_off_c, 9, 42, 64
1, 35280, Note_off_c, 9, 38, 64
1, 35280, Note_on_c, 9, 42, 80
1, 35520, Note_off_c, 9, 42, 64
1, 35520, Note_on_c, 9, 42, 80
1, 35520, Note_on_c, 9, 35, 80
1, 35760, Note_off_c, 9, 42, 64
1, 35760, Note_off_c, 9, 35, 64
1, 35760, Note_on_c, 9, 42, 80
1, 36000, Note_off_c, 9, 42, 64
1, 36000, Note_on_c, 9, 42, 80
1, 36000, Note_on_c, 9, 38, 80
1, 36240, Note_off_c, 9, 42, 64
1, 36240, Note_off_c, 9, 38, 64
1, 36240, Note_on_c, 9, 42, 80
1, 36480, Note_off_c, 9, 42, 64
1, 36480, Note_on_c, 9, 57, 64
1, 36480, Note_on_c, 9, 42, 64
1, 36480, Note_on_c, 9, 35, 64
1, 36720, Note_off_c, 9, 57, 64
1, 36720, Note_off_c, 9, 42, 64
1, 36720, Note_off_c, 9, 35, 64
1, 36720, Note_on_c, 9, 42, 80
1, 36960, Note_off_c, 9, 42, 64
1, 36960, Note_on_c, 9, 42, 80
1, 36960, Note_on_c, 9, 38, 80
1, 37200, Note_off_c, 9, 42, 64
1, 37200, Note_off_c, 9, 38, 64
1, 37200, Note_on_c, 9, 42, 80
1, 37440, Note_off_c, 9, 42, 64
1, 37440, Note_on_c, 9, 42, 80
1, 37440, Note_on_c, 9, 35, 80
1, 37680, Note_off_c, 9, 42, 64
1, 37680, Note_off_c, 9, 35, 64
1, 37680, Note_on_c, 9, 42, 80
1, 37920, Note_off_c, 9, 42, 64
1, 37920, Note_on_c, 9, 42, 80
1, 37920, Note_on_c, 9, 38, 80
1, 38160, Note_off_c, 9, 42, 64
1, 38160, Note_off_c, 9, 38, 64
1, 38160, Note_on_c, 9, 42, 80
1, 38400, Note_off_c, 9, 42, 64
1, 38400, Note_on_c, 9, 57, 64
1, 38400, Note_on_c, 9, 42, 64
1, 38400, Note_on_c, 9, 35, 64
1, 38640, Note_off_c, 9, 57, 64
1, 38640, Note_off_c, 9, 42, 64
1, 38640, Note_off_c, 9, 35, 64
1, 38640, Note_on_c, 9, 42, 80
1, 38880, Note_off_c, 9, 42, 64
1, 38880, Note_on_c, 9, 42, 80
1, 38880, Note_on_c, 9, 38, 80
1, 39120, Note_off_c, 9, 42, 64
1, 39120, Note_off_c, 9, 38, 64
1, 39120, Note_on_c, 9, 42, 80
1, 39360, Note_off_c, 9, 42, 64
1, 39360, Note_on_c, 9, 42, 80
1, 39360, Note_on_c, 9, 35, 80
1, 39600, Note_off_c, 9, 42, 64
1, 39600, Note_off_c, 9, 35, 64
1, 39600, Note_on_c, 9, 42, 80
1, 39840, Note_off_c, 9, 42, 64
1, 39840, Note_on_c, 9, 42, 80
1, 39840, Note_on_c, 9, 38, 80
1, 40080, Note_off_c, 9, 42, 64
1, 40080, Note_off_c, 9, 38, 64
1, 40080, Note_on_c, 9, 42, 80
1, 40320, Note_off_c, 9, 42, 64
1, 40320, Note_on_c, 9, 57, 64
1, 40320, Note_on_c, 9, 42, 64
1, 40320, Note_on_c, 9, 35, 64
1, 40560, Note_off_c, 9, 57, 64
1, 40560, Note_off_c, 9, 42, 64
1, 40560, Note_off_c, 9, 35, 64
1, 40560, Note_on_c, 9, 42, 80
1, 40800, Note_off_c, 9, 42, 64
1, 40800, Note_on_c, 9, 42, 80
1, 40800, Note_on_c, 9, 38, 80
1, 41040, Note_off_c, 9, 42, 64
1, 41040, Note_off_c, 9, 38, 64
1, 41040, Note_on_c, 9, 42, 80
1, 41280, Note_off_c, 9, 42, 64
1, 41280, Note_on_c, 9, 42, 80
1, 41280, Note_on_c, 9, 35, 80
1, 41520, Note_off_c, 9, 42, 64
1, 41520, Note_off_c, 9, 35, 64
1, 41520, Note_on_c, 9, 42, 80
1, 41760, Note_off_c, 9, 42, 64
1, 41760, Note_on_c, 9, 42, 80
1, 41760, Note_on_c, 9, 38, 80
1, 42000, Note_off_c, 9, 42, 64
1, 42000, Note_off_c, 9, 38, 64
1, 42000, Note_on_c, 9, 42, 80
1, 42240, Note_off_c, 9, 42, 64
1, 42240, Note_on_c, 9, 57, 64
1, 42240, Note_on_c, 9, 42, 64
1, 42240, Note_on_c, 9, 35, 64
1, 42480, Note_off_c, 9, 57, 64
1, 42480, Note_off_c, 9, 42, 64
1, 42480, Note_off_c, 9, 35, 64
1, 42480, Note_on_c, 9, 42, 80
1, 42720, Note_off_c, 9, 42, 64
1, 42720, Note_on_c, 9, 42, 80
1, 42720, Note_on_c, 9, 38, 80
1, 42960, Note_off_c, 9, 42, 64
1, 42960, Note_off_c, 9, 38, 64
1, 42960, Note_on_c, 9, 42, 80
1, 43200, Note_off_c, 9, 42, 64
1, 43200, Note_on_c, 9, 42, 80
1, 43200, Note_on_c, 9, 35, 80
1, 43440, Note_off_c, 9, 42, 64
1, 43440, Note_off_c, 9, 35, 64
1, 43440, Note_on_c, 9, 42, 80
1, 43680, Note_off_c, 9, 42, 64
1, 43680, Note_on_c, 9, 42, 80
1, 43680, Note_on_c, 9, 38, 80
1, 43920, Note_off_c, 9, 42, 64
1, 43920, Note_off_c, 9, 38, 64
1, 43920, Note_on_c, 9, 42, 80
1, 44160, Note_off_c, 9, 42, 64
1, 44160, Note_on_c, 9, 57, 64
1, 44160, Note_on_c, 9, 42, 64
1, 44160, Note_on_c, 9, 35, 64
1, 44400, Note_off_c, 9, 57, 64
1, 44400, Note_off_c, 9, 42, 64
1, 44400, Note_off_c, 9, 35, 64
1, 44400, Note_on_c, 9, 42, 80
1, 44640, Note_off_c, 9, 42, 64
1, 44640, Note_on_c, 9, 42, 80
1, 44640, Note_on_c, 9, 38, 80
1, 44880, Note_off_c, 9, 42, 64
1, 44880, Note_off_c, 9, 38, 64
1, 44880, Note_on_c, 9, 42, 80
1, 45120, Note_off_c, 9, 42, 64
1, 45120, Note_on_c, 9, 42, 80
1, 45120, Note_on_c, 9, 35, 80
1, 45360, Note_off_c, 9, 42, 64
1, 45360, Note_off_c, 9, 35, 64
1, 45360, Note_on_c, 9, 42, 80
1, 45600, Note_off_c, 9, 42, 64
1, 45600, Note_on_c, 9, 42, 80
1, 45600, Note_on_c, 9, 38, 80
1, 45840, Note_off_c, 9, 42, 64
1, 45840, Note_off_c, 9, 38, 64
1, 45840, Note_on_c, 9, 42, 80
1, 46080, Note_off_c, 9, 42, 64
1, 46080, Note_on_c, 9, 57, 88
1, 46080, Note_on_c, 9, 42, 88
1, 46080, Note_on_c, 9, 35, 88
1, 46320, Note_off_c, 9, 57, 64
1, 46320, Note_off_c, 9, 42, 64
1, 46320, Note_off_c, 9, 35, 64
1, 46320, Note_on_c, 9, 42, 80
1, 46560, Note_off_c, 9, 42, 64
1, 46560, Note_on_c, 9, 42, 80
1, 46560, Note_on_c, 9, 38, 80
1, 46800, Note_off_c, 9, 42, 64
1, 46800, Note_off_c, 9, 38, 64
1, 46800, Note_on_c, 9, 57, 80
1, 46800, Note_on_c, 9, 42, 80
1, 47040, Note_off_c, 9, 57, 64
1, 47040, Note_off_c, 9, 42, 64
1, 47040, Note_on_c, 9, 42, 80
1, 47040, Note_on_c, 9, 35, 80
1, 47280, Note_off_c, 9, 42, 64
1, 47280, Note_off_c, 9, 35, 64
1, 47280, Note_on_c, 9, 42, 80
1, 47520, Note_off_c, 9, 42, 64
1, 47520, Note_on_c, 9, 42, 80
1, 47520, Note_on_c, 9, 38, 80
1, 47760, Note_off_c, 9, 42, 64
1, 47760, Note_off_c, 9, 38, 64
1, 47760, Note_on_c, 9, 42, 80
1, 48000, Note_off_c, 9, 42, 64
1, 48000, Note_on_c, 9, 57, 88
1, 48000, Note_on_c, 9, 35, 88
1, 48000, Note_on_c, 9, 38, 88
1, 48360, Note_off_c, 9, 57, 64
1, 48360, Note_off_c, 9, 35, 64
1, 48360, Note_off_c, 9, 38, 64
1, 48360, Note_on_c, 9, 57, 88
1, 48360, Note_on_c, 9, 53, 88
1, 48360, Note_on_c, 9, 38, 88
1, 48720, Note_off_c, 9, 57, 64
1, 48720, Note_off_c, 9, 53, 64
1, 48720, Note_off_c, 9, 38, 64
1, 48720, Note_on_c, 9, 57, 88
1, 48720, Note_on_c, 9, 35, 88
1, 48720, Note_on_c, 9, 38, 88
1, 49080, Note_off_c, 9, 57, 64
1, 49080, Note_off_c, 9, 35, 64
1, 49080, Note_off_c, 9, 38, 64
1, 49440, Note_on_c, 9, 38, 80
1, 49920, Note_off_c, 9, 38, 64
1, 49920, Note_on_c, 9, 49, 80
1, 49920, Note_on_c, 9, 42, 80
1, 49920, Note_on_c, 9, 35, 80
1, 50160, Note_off_c, 9, 49, 64
1, 50160, Note_off_c, 9, 42, 64
1, 50160, Note_off_c, 9, 35, 64
1, 50160, Note_on_c, 9, 44, 72
1, 50400, Note_off_c, 9, 44, 64
1, 50400, Note_on_c, 9, 42, 80
1, 50400, Note_on_c, 9, 38, 80
1, 50640, Note_off_c, 9, 42, 64
1, 50640, Note_off_c, 9, 38, 64
1, 50640, Note_on_c, 9, 44, 72
1, 50880, Note_off_c, 9, 44, 64
1, 50880, Note_on_c, 9, 42, 80
1, 50880, Note_on_c, 9, 35, 80
1, 51120, Note_off_c, 9, 42, 64
1, 51120, Note_off_c, 9, 35, 64
1, 51120, Note_on_c, 9, 44, 72
1, 51360, Note_off_c, 9, 44, 64
1, 51360, Note_on_c, 9, 42, 80
1, 51360, Note_on_c, 9, 38, 80
1, 51600, Note_off_c, 9, 42, 64
1, 51600, Note_off_c, 9, 38, 64
1, 51600, Note_on_c, 9, 44, 72
1, 51840, Note_off_c, 9, 44, 64
1, 51840, Note_on_c, 9, 42, 80
1, 51840, Note_on_c, 9, 35, 80
1, 52080, Note_off_c, 9, 42, 64
1, 52080, Note_off_c, 9, 35, 64
1, 52080, Note_on_c, 9, 44, 72
1, 52320, Note_off_c, 9, 44, 64
1, 52320, Note_on_c, 9, 42, 80
1, 52320, Note_on_c, 9, 38, 80
1, 52560, Note_off_c, 9, 42, 64
1, 52560, Note_off_c, 9, 38, 64
1, 52560, Note_on_c, 9, 44, 72
1, 52800, Note_off_c, 9, 44, 64
1, 52800, Note_on_c, 9, 42, 80
1, 52800, Note_on_c, 9, 35, 80
1, 53040, Note_off_c, 9, 42, 64
1, 53040, Note_off_c, 9, 35, 64
1, 53040, Note_on_c, 9, 44, 72
1, 53280, Note_off_c, 9, 44, 64
1, 53280, Note_on_c, 9, 42, 80
1, 53280, Note_on_c, 9, 38, 80
1, 53520, Note_off_c, 9, 42, 64
1, 53520, Note_off_c, 9, 38, 64
1, 53520, Note_on_c, 9, 44, 72
1, 53760, Note_off_c, 9, 44, 64
1, 53760, Note_on_c, 9, 42, 80
1, 53760, Note_on_c, 9, 35, 80
1, 54000, Note_off_c, 9, 42, 64
1, 54000, Note_off_c, 9, 35, 64
1, 54000, Note_on_c, 9, 44, 72
1, 54240, Note_off_c, 9, 44, 64
1, 54240, Note_on_c, 9, 42, 80
1, 54240, Note_on_c, 9, 38, 80
1, 54480, Note_off_c, 9, 42, 64
1, 54480, Note_off_c, 9, 38, 64
1, 54480, Note_on_c, 9, 44, 72
1, 54720, Note_off_c, 9, 44, 64
1, 54720, Note_on_c, 9, 42, 80
1, 54720, Note_on_c, 9, 35, 80
1, 54960, Note_off_c, 9, 42, 64
1, 54960, Note_off_c, 9, 35, 64
1, 54960, Note_on_c, 9, 44, 72
1, 55200, Note_off_c, 9, 44, 64
1, 55200, Note_on_c, 9, 42, 80
1, 55200, Note_on_c, 9, 38, 80
1, 55440, Note_off_c, 9, 42, 64
1, 55440, Note_off_c, 9, 38, 64
1, 55440, Note_on_c, 9, 44, 72
1, 55680, Note_off_c, 9, 44, 64
1, 55680, Note_on_c, 9, 42, 80
1, 55680, Note_on_c, 9, 35, 80
1, 55920, Note_off_c, 9, 42, 64
1, 55920, Note_off_c, 9, 35, 64
1, 55920, Note_on_c, 9, 44, 72
1, 56160, Note_off_c, 9, 44, 64
1, 56160, Note_on_c, 9, 38, 88
1, 56280, Note_off_c, 9, 38, 64
1, 56280, Note_on_c, 9, 46, 72
1, 56280, Note_on_c, 9, 35, 72
1, 56520, Note_off_c, 9, 46, 64
1, 56520, Note_off_c, 9, 35, 64
1, 56520, Note_on_c, 9, 38, 88
1, 56640, Note_off_c, 9, 38, 64
1, 56640, Note_on_c, 9, 46, 72
1, 56640, Note_on_c, 9, 35, 72
1, 56880, Note_off_c, 9, 46, 64
1, 56880, Note_off_c, 9, 35, 64
1, 56880, Note_on_c, 9, 38, 88
1, 57000, Note_off_c, 9, 38, 64
1, 57000, Note_on_c, 9, 46, 72
1, 57000, Note_on_c, 9, 35, 72
1, 57120, Note_off_c, 9, 46, 64
1, 57120, Note_off_c, 9, 35, 64
1, 57240, Note_on_c, 9, 38, 88
1, 57360, Note_off_c, 9, 38, 64
1, 57360, Note_on_c, 9, 46, 72
1, 57360, Note_on_c, 9, 35, 72
1, 57600, Note_off_c, 9, 46, 64
1, 57600, Note_off_c, 9, 35, 64
1, 57600, Note_on_c, 9, 49, 80
1, 57600, Note_on_c, 9, 42, 80
1, 57600, Note_on_c, 9, 35, 80
1, 57840, Note_off_c, 9, 49, 64
1, 57840, Note_off_c, 9, 42, 64
1, 57840, Note_off_c, 9, 35, 64
1, 57840, Note_on_c, 9, 44, 72
1, 58080, Note_off_c, 9, 44, 64
1, 58080, Note_on_c, 9, 42, 80
1, 58080, Note_on_c, 9, 38, 80
1, 58320, Note_off_c, 9, 42, 64
1, 58320, Note_off_c, 9, 38, 64
1, 58320, Note_on_c, 9, 44, 72
1, 58560, Note_off_c, 9, 44, 64
1, 58560, Note_on_c, 9, 42, 80
1, 58560, Note_on_c, 9, 35, 80
1, 58800, Note_off_c, 9, 42, 64
1, 58800, Note_off_c, 9, 35, 64
1, 58800, Note_on_c, 9, 44, 72
1, 59040, Note_off_c, 9, 44, 64
1, 59040, Note_on_c, 9, 42, 80
1, 59040, Note_on_c, 9, 38, 80
1, 59280, Note_off_c, 9, 42, 64
1, 59280, Note_off_c, 9, 38, 64
1, 59280, Note_on_c, 9, 44, 72
1, 59520, Note_off_c, 9, 44, 64
1, 59520, Note_on_c, 9, 42, 80
1, 59520, Note_on_c, 9, 35, 80
1, 59760, Note_off_c, 9, 42, 64
1, 59760, Note_off_c, 9, 35, 64
1, 59760, Note_on_c, 9, 44, 72
1, 60000, Note_off_c, 9, 44, 64
1, 60000, Note_on_c, 9, 42, 80
1, 60000, Note_on_c, 9, 38, 80
1, 60240, Note_off_c, 9, 42, 64
1, 60240, Note_off_c, 9, 38, 64
1, 60240, Note_on_c, 9, 44, 72
1, 60480, Note_off_c, 9, 44, 64
1, 60480, Note_on_c, 9, 42, 80
1, 60480, Note_on_c, 9, 35, 80
1, 60720, Note_off_c, 9, 42, 64
1, 60720, Note_off_c, 9, 35, 64
1, 60720, Note_on_c, 9, 44, 72
1, 60960, Note_off_c, 9, 44, 64
1, 60960, Note_on_c, 9, 42, 80
1, 60960, Note_on_c, 9, 38, 80
1, 61200, Note_off_c, 9, 42, 64
1, 61200, Note_off_c, 9, 38, 64
1, 61200, Note_on_c, 9, 44, 72
1, 61440, Note_off_c, 9, 44, 64
1, 61440, Note_on_c, 9, 42, 80
1, 61440, Note_on_c, 9, 35, 80
1, 61680, Note_off_c, 9, 42, 64
1, 61680, Note_off_c, 9, 35, 64
1, 61680, Note_on_c, 9, 44, 72
1, 61920, Note_off_c, 9, 44, 64
1, 61920, Note_on_c, 9, 42, 80
1, 61920, Note_on_c, 9, 38, 80
1, 62160, Note_off_c, 9, 42, 64
1, 62160, Note_off_c, 9, 38, 64
1, 62160, Note_on_c, 9, 44, 72
1, 62400, Note_off_c, 9, 44, 64
1, 62400, Note_on_c, 9, 42, 80
1, 62400, Note_on_c, 9, 35, 80
1, 62640, Note_off_c, 9, 42, 64
1, 62640, Note_off_c, 9, 35, 64
1, 62640, Note_on_c, 9, 44, 72
1, 62880, Note_off_c, 9, 44, 64
1, 62880, Note_on_c, 9, 42, 80
1, 62880, Note_on_c, 9, 38, 80
1, 63120, Note_off_c, 9, 42, 64
1, 63120, Note_off_c, 9, 38, 64
1, 63120, Note_on_c, 9, 44, 72
1, 63360, Note_off_c, 9, 44, 64
1, 63360, Note_on_c, 9, 42, 80
1, 63360, Note_on_c, 9, 35, 80
1, 63600, Note_off_c, 9, 42, 64
1, 63600, Note_off_c, 9, 35, 64
1, 63600, Note_on_c, 9, 44, 72
1, 63840, Note_off_c, 9, 44, 64
1, 63840, Note_on_c, 9, 38, 88
1, 63960, Note_off_c, 9, 38, 64
1, 63960, Note_on_c, 9, 46, 72
1, 63960, Note_on_c, 9, 35, 72
1, 64200, Note_off_c, 9, 46, 64
1, 64200, Note_off_c, 9, 35, 64
1, 64200, Note_on_c, 9, 38, 88
1, 64320, Note_off_c, 9, 38, 64
1, 64320, Note_on_c, 9, 46, 72
1, 64320, Note_on_c, 9, 35, 72
1, 64560, Note_off_c, 9, 46, 64
1, 64560, Note_off_c, 9, 35, 64
1, 64560, Note_on_c, 9, 38, 88
1, 64680, Note_off_c, 9, 38, 64
1, 64680, Note_on_c, 9, 46, 72
1, 64680, Note_on_c, 9, 35, 72
1, 64800, Note_off_c, 9, 46, 64
1, 64800, Note_off_c, 9, 35, 64
1, 64920, Note_on_c, 9, 38, 88
1, 65040, Note_off_c, 9, 38, 64
1, 65040, Note_on_c, 9, 46, 72
1, 65040, Note_on_c, 9, 35, 72
1, 65280, Note_off_c, 9, 46, 64
1, 65280, Note_off_c, 9, 35, 64
1, 65280, Note_on_c, 9, 57, 80
1, 65280, Note_on_c, 9, 42, 80
1, 65280, Note_on_c, 9, 35, 80
1, 65520, Note_off_c, 9, 57, 64
1, 65520, Note_off_c, 9, 42, 64
1, 65520, Note_off_c, 9, 35, 64
1, 65520, Note_on_c, 9, 42, 80
1, 65760, Note_off_c, 9, 42, 64
1, 65760, Note_on_c, 9, 42, 80
1, 65760, Note_on_c, 9, 38, 80
1, 66000, Note_off_c, 9, 42, 64
1, 66000, Note_off_c, 9, 38, 64
1, 66000, Note_on_c, 9, 42, 80
1, 66240, Note_off_c, 9, 42, 64
1, 66240, Note_on_c, 9, 42, 80
1, 66240, Note_on_c, 9, 35, 80
1, 66480, Note_off_c, 9, 42, 64
1, 66480, Note_off_c, 9, 35, 64
1, 66480, Note_on_c, 9, 42, 80
1, 66720, Note_off_c, 9, 42, 64
1, 66720, Note_on_c, 9, 42, 80
1, 66720, Note_on_c, 9, 38, 80
1, 66960, Note_off_c, 9, 42, 64
1, 66960, Note_off_c, 9, 38, 64
1, 66960, Note_on_c, 9, 42, 80
1, 67200, Note_off_c, 9, 42, 64
1, 67200, Note_on_c, 9, 57, 64
1, 67200, Note_on_c, 9, 42, 64
1, 67200, Note_on_c, 9, 35, 64
1, 67440, Note_off_c, 9, 57, 64
1, 67440, Note_off_c, 9, 42, 64
1, 67440, Note_off_c, 9, 35, 64
1, 67440, Note_on_c, 9, 42, 80
1, 67680, Note_off_c, 9, 42, 64
1, 67680, Note_on_c, 9, 42, 80
1, 67680, Note_on_c, 9, 38, 80
1, 67920, Note_off_c, 9, 42, 64
1, 67920, Note_off_c, 9, 38, 64
1, 67920, Note_on_c, 9, 42, 80
1, 68160, Note_off_c, 9, 42, 64
1, 68160, Note_on_c, 9, 42, 80
1, 68160, Note_on_c, 9, 35, 80
1, 68400, Note_off_c, 9, 42, 64
1, 68400, Note_off_c, 9, 35, 64
1, 68400, Note_on_c, 9, 42, 80
1, 68640, Note_off_c, 9, 42, 64
1, 68640, Note_on_c, 9, 42, 80
1, 68640, Note_on_c, 9, 38, 80
1, 68880, Note_off_c, 9, 42, 64
1, 68880, Note_off_c, 9, 38, 64
1, 68880, Note_on_c, 9, 42, 80
1, 69120, Note_off_c, 9, 42, 64
1, 69120, Note_on_c, 9, 57, 64
1, 69120, Note_on_c, 9, 42, 64
1, 69120, Note_on_c, 9, 35, 64
1, 69360, Note_off_c, 9, 57, 64
1, 69360, Note_off_c, 9, 42, 64
1, 69360, Note_off_c, 9, 35, 64
1, 69360, Note_on_c, 9, 42, 80
1, 69600, Note_off_c, 9, 42, 64
1, 69600, Note_on_c, 9, 42, 80
1, 69600, Note_on_c, 9, 38, 80
1, 69840, Note_off_c, 9, 42, 64
1, 69840, Note_off_c, 9, 38, 64
1, 69840, Note_on_c, 9, 42, 80
1, 70080, Note_off_c, 9, 42, 64
1, 70080, Note_on_c, 9, 42, 80
1, 70080, Note_on_c, 9, 35, 80
1, 70320, Note_off_c, 9, 42, 64
1, 70320, Note_off_c, 9, 35, 64
1, 70320, Note_on_c, 9, 42, 80
1, 70560, Note_off_c, 9, 42, 64
1, 70560, Note_on_c, 9, 42, 80
1, 70560, Note_on_c, 9, 38, 80
1, 70800, Note_off_c, 9, 42, 64
1, 70800, Note_off_c, 9, 38, 64
1, 70800, Note_on_c, 9, 42, 80
1, 71040, Note_off_c, 9, 42, 64
1, 71040, Note_on_c, 9, 57, 64
1, 71040, Note_on_c, 9, 42, 64
1, 71040, Note_on_c, 9, 35, 64
1, 71280, Note_off_c, 9, 57, 64
1, 71280, Note_off_c, 9, 42, 64
1, 71280, Note_off_c, 9, 35, 64
1, 71280, Note_on_c, 9, 42, 80
1, 71520, Note_off_c, 9, 42, 64
1, 71520, Note_on_c, 9, 42, 80
1, 71520, Note_on_c, 9, 38, 80
1, 71760, Note_off_c, 9, 42, 64
1, 71760, Note_off_c, 9, 38, 64
1, 71760, Note_on_c, 9, 42, 80
1, 72000, Note_off_c, 9, 42, 64
1, 72000, Note_on_c, 9, 42, 80
1, 72000, Note_on_c, 9, 35, 80
1, 72240, Note_off_c, 9, 42, 64
1, 72240, Note_off_c, 9, 35, 64
1, 72240, Note_on_c, 9, 42, 80
1, 72480, Note_off_c, 9, 42, 64
1, 72480, Note_on_c, 9, 42, 80
1, 72480, Note_on_c, 9, 38, 80
1, 72720, Note_off_c, 9, 42, 64
1, 72720, Note_off_c, 9, 38, 64
1, 72720, Note_on_c, 9, 42, 80
1, 72960, Note_off_c, 9, 42, 64
1, 72960, Note_on_c, 9, 57, 64
1, 72960, Note_on_c, 9, 42, 64
1, 72960, Note_on_c, 9, 35, 64
1, 73200, Note_off_c, 9, 57, 64
1, 73200, Note_off_c, 9, 42, 64
1, 73200, Note_off_c, 9, 35, 64
1, 73200, Note_on_c, 9, 42, 80
1, 73440, Note_off_c, 9, 42, 64
1, 73440, Note_on_c, 9, 42, 80
1, 73440, Note_on_c, 9, 38, 80
1, 73680, Note_off_c, 9, 42, 64
1, 73680, Note_off_c, 9, 38, 64
1, 73680, Note_on_c, 9, 42, 80
1, 73920, Note_off_c, 9, 42, 64
1, 73920, Note_on_c, 9, 42, 80
1, 73920, Note_on_c, 9, 35, 80
1, 74160, Note_off_c, 9, 42, 64
1, 74160, Note_off_c, 9, 35, 64
1, 74160, Note_on_c, 9, 42, 80
1, 74400, Note_off_c, 9, 42, 64
1, 74400, Note_on_c, 9, 42, 80
1, 74400, Note_on_c, 9, 38, 80
1, 74640, Note_off_c, 9, 42, 64
1, 74640, Note_off_c, 9, 38, 64
1, 74640, Note_on_c, 9, 42, 80
1, 74880, Note_off_c, 9, 42, 64
1, 74880, Note_on_c, 9, 57, 64
1, 74880, Note_on_c, 9, 42, 64
1, 74880, Note_on_c, 9, 35, 64
1, 75120, Note_off_c, 9, 57, 64
1, 75120, Note_off_c, 9, 42, 64
1, 75120, Note_off_c, 9, 35, 64
1, 75120, Note_on_c, 9, 42, 80
1, 75360, Note_off_c, 9, 42, 64
1, 75360, Note_on_c, 9, 42, 80
1, 75360, Note_on_c, 9, 38, 80
1, 75600, Note_off_c, 9, 42, 64
1, 75600, Note_off_c, 9, 38, 64
1, 75600, Note_on_c, 9, 42, 80
1, 75840, Note_off_c, 9, 42, 64
1, 75840, Note_on_c, 9, 42, 80
1, 75840, Note_on_c, 9, 35, 80
1, 76080, Note_off_c, 9, 42, 64
1, 76080, Note_off_c, 9, 35, 64
1, 76080, Note_on_c, 9, 42, 80
1, 76320, Note_off_c, 9, 42, 64
1, 76320, Note_on_c, 9, 42, 80
1, 76320, Note_on_c, 9, 38, 80
1, 76560, Note_off_c, 9, 42, 64
1, 76560, Note_off_c, 9, 38, 64
1, 76560, Note_on_c, 9, 42, 80
1, 76800, Note_off_c, 9, 42, 64
1, 76800, Note_on_c, 9, 57, 88
1, 76800, Note_on_c, 9, 42, 88
1, 76800, Note_on_c, 9, 35, 88
1, 77040, Note_off_c, 9, 57, 64
1, 77040, Note_off_c, 9, 42, 64
1, 77040, Note_off_c, 9, 35, 64
1, 77040, Note_on_c, 9, 42, 80
1, 77280, Note_off_c, 9, 42, 64
1, 77280, Note_on_c, 9, 42, 80
1, 77280, Note_on_c, 9, 38, 80
1, 77520, Note_off_c, 9, 42, 64
1, 77520, Note_off_c, 9, 38, 64
1, 77520, Note_on_c, 9, 57, 80
1, 77520, Note_on_c, 9, 42, 80
1, 77760, Note_off_c, 9, 57, 64
1, 77760, Note_off_c, 9, 42, 64
1, 77760, Note_on_c, 9, 42, 80
1, 77760, Note_on_c, 9, 35, 80
1, 78000, Note_off_c, 9, 42, 64
1, 78000, Note_off_c, 9, 35, 64
1, 78000, Note_on_c, 9, 42, 80
1, 78240, Note_off_c, 9, 42, 64
1, 78240, Note_on_c, 9, 42, 80
1, 78240, Note_on_c, 9, 38, 80
1, 78480, Note_off_c, 9, 42, 64
1, 78480, Note_off_c, 9, 38, 64
1, 78480, Note_on_c, 9, 42, 80
1, 78720, Note_off_c, 9, 42, 64
1, 78720, Note_on_c, 9, 57, 88
1, 78720, Note_on_c, 9, 35, 88
1, 78720, Note_on_c, 9, 38, 88
1, 79080, Note_off_c, 9, 57, 64
1, 79080, Note_off_c, 9, 35, 64
1, 79080, Note_off_c, 9, 38, 64
1, 79080, Note_on_c, 9, 57, 88
1, 79080, Note_on_c, 9, 53, 88
1, 79080, Note_on_c, 9, 38, 88
1, 79440, Note_off_c, 9, 57, 64
1, 79440, Note_off_c, 9, 53, 64
1, 79440, Note_off_c, 9, 38, 64
1, 79440, Note_on_c, 9, 57, 88
1, 79440, Note_on_c, 9, 35, 88
1, 79440, Note_on_c, 9, 38, 88
1, 79800, Note_off_c, 9, 57, 64
1, 79800, Note_off_c, 9, 35, 64
1, 79800, Note_off_c, 9, 38, 64
1, 80160, Note_on_c, 9, 38, 80
1, 80640, Note_off_c, 9, 38, 64
1, 80640, Note_on_c, 9, 49, 80
1, 80640, Note_on_c, 9, 42, 80
1, 80640, Note_on_c, 9, 35, 80
1, 80880, Note_off_c, 9, 49, 64
1, 80880, Note_off_c, 9, 42, 64
1, 80880, Note_off_c, 9, 35, 64
1, 80880, Note_on_c, 9, 44, 72
1, 81120, Note_off_c, 9, 44, 64
1, 81120, Note_on_c, 9, 42, 80
1, 81120, Note_on_c, 9, 38, 80
1, 81360, Note_off_c, 9, 42, 64
1, 81360, Note_off_c, 9, 38, 64
1, 81360, Note_on_c, 9, 44, 72
1, 81600, Note_off_c, 9, 44, 64
1, 81600, Note_on_c, 9, 42, 80
1, 81600, Note_on_c, 9, 35, 80
1, 81840, Note_off_c, 9, 42, 64
1, 81840, Note_off_c, 9, 35, 64
1, 81840, Note_on_c, 9, 44, 72
1, 82080, Note_off_c, 9, 44, 64
1, 82080, Note_on_c, 9, 42, 80
1, 82080, Note_on_c, 9, 38, 80
1, 82320, Note_off_c, 9, 42, 64
1, 82320, Note_off_c, 9, 38, 64
1, 82320, Note_on_c, 9, 44, 72
1, 82560, Note_off_c, 9, 44, 64
1, 82560, Note_on_c, 9, 42, 80
1, 82560, Note_on_c, 9, 35, 80
1, 82800, Note_off_c, 9, 42, 64
1, 82800, Note_off_c, 9, 35, 64
1, 82800, Note_on_c, 9, 44, 72
1, 83040, Note_off_c, 9, 44, 64
1, 83040, Note_on_c, 9, 42, 80
1, 83040, Note_on_c, 9, 38, 80
1, 83280, Note_off_c, 9, 42, 64
1, 83280, Note_off_c, 9, 38, 64
1, 83280, Note_on_c, 9, 44, 72
1, 83520, Note_off_c, 9, 44, 64
1, 83520, Note_on_c, 9, 42, 80
1, 83520, Note_on_c, 9, 35, 80
1, 83760, Note_off_c, 9, 42, 64
1, 83760, Note_off_c, 9, 35, 64
1, 83760, Note_on_c, 9, 44, 72
1, 84000, Note_off_c, 9, 44, 64
1, 84000, Note_on_c, 9, 42, 80
1, 84000, Note_on_c, 9, 38, 80
1, 84240, Note_off_c, 9, 42, 64
1, 84240, Note_off_c, 9, 38, 64
1, 84240, Note_on_c, 9, 44, 72
1, 84480, Note_off_c, 9, 44, 64
1, 84480, Note_on_c, 9, 42, 80
1, 84480, Note_on_c, 9, 35, 80
1, 84720, Note_off_c, 9, 42, 64
1, 84720, Note_off_c, 9, 35, 64
1, 84720, Note_on_c, 9, 44, 72
1, 84960, Note_off_c, 9, 44, 64
1, 84960, Note_on_c, 9, 42, 80
1, 84960, Note_on_c, 9, 38, 80
1, 85200, Note_off_c, 9, 42, 64
1, 85200, Note_off_c, 9, 38, 64
1, 85200, Note_on_c, 9, 44, 72
1, 85440, Note_off_c, 9, 44, 64
1, 85440, Note_on_c, 9, 42, 80
1, 85440, Note_on_c, 9, 35, 80
1, 85680, Note_off_c, 9, 42, 64
1, 85680, Note_off_c, 9, 35, 64
1, 85680, Note_on_c, 9, 44, 72
1, 85920, Note_off_c, 9, 44, 64
1, 85920, Note_on_c, 9, 42, 80
1, 85920, Note_on_c, 9, 38, 80
1, 86160, Note_off_c, 9, 42, 64
1, 86160, Note_off_c, 9, 38, 64
1, 86160, Note_on_c, 9, 44, 72
1, 86400, Note_off_c, 9, 44, 64
1, 86400, Note_on_c, 9, 42, 80
1, 86400, Note_on_c, 9, 35, 80
1, 86640, Note_off_c, 9, 42, 64
1, 86640, Note_off_c, 9, 35, 64
1, 86640, Note_on_c, 9, 44, 72
1, 86880, Note_off_c, 9, 44, 64
1, 86880, Note_on_c, 9, 42, 80
1, 86880, Note_on_c, 9, 38, 80
1, 87120, Note_off_c, 9, 42, 64
1, 87120, Note_off_c, 9, 38, 64
1, 87120, Note_on_c, 9, 44, 72
1, 87360, Note_off_c, 9, 44, 64
1, 87360, Note_on_c, 9, 42, 80
1, 87360, Note_on_c, 9, 35, 80
1, 87600, Note_off_c, 9, 42, 64
1, 87600, Note_off_c, 9, 35, 64
1, 87600, Note_on_c, 9, 44, 72
1, 87840, Note_off_c, 9, 44, 64
1, 87840, Note_on_c, 9, 42, 80
1, 87840, Note_on_c, 9, 38, 80
1, 88080, Note_off_c, 9, 42, 64
1, 88080, Note_off_c, 9, 38, 64
1, 88080, Note_on_c, 9, 44, 72
1, 88320, Note_off_c, 9, 44, 64
1, 88320, Note_on_c, 9, 49, 80
1, 88320, Note_on_c, 9, 42, 80
1, 88320, Note_on_c, 9, 35, 80
1, 88560, Note_off_c, 9, 49, 64
1, 88560, Note_off_c, 9, 42, 64
1, 88560, Note_off_c, 9, 35, 64
1, 88560, Note_on_c, 9, 44, 72
1, 88800, Note_off_c, 9, 44, 64
1, 88800, Note_on_c, 9, 42, 80
1, 88800, Note_on_c, 9, 38, 80
1, 89040, Note_off_c, 9, 42, 64
1, 89040, Note_off_c, 9, 38, 64
1, 89040, Note_on_c, 9, 44, 72
1, 89280, Note_off_c, 9, 44, 64
1, 89280, Note_on_c, 9, 42, 80
1, 89280, Note_on_c, 9, 35, 80
1, 89520, Note_off_c, 9, 42, 64
1, 89520, Note_off_c, 9, 35, 64
1, 89520, Note_on_c, 9, 44, 72
1, 89760, Note_off_c, 9, 44, 64
1, 89760, Note_on_c, 9, 42, 80
1, 89760, Note_on_c, 9, 38, 80
1, 90000, Note_off_c, 9, 42, 64
1, 90000, Note_off_c, 9, 38, 64
1, 90000, Note_on_c, 9, 44, 72
1, 90240, Note_off_c, 9, 44, 64
1, 90240, Note_on_c, 9, 42, 80
1, 90240, Note_on_c, 9, 35, 80
1, 90480, Note_off_c, 9, 42, 64
1, 90480, Note_off_c, 9, 35, 64
1, 90480, Note_on_c, 9, 44, 72
1, 90720, Note_off_c, 9, 44, 64
1, 90720, Note_on_c, 9, 42, 80
1, 90720, Note_on_c, 9, 38, 80
1, 90960, Note_off_c, 9, 42, 64
1, 90960, Note_off_c, 9, 38, 64
1, 90960, Note_on_c, 9, 44, 72
1, 91200, Note_off_c, 9, 44, 64
1, 91200, Note_on_c, 9, 42, 80
1, 91200, Note_on_c, 9, 35, 80
1, 91440, Note_off_c, 9, 42, 64
1, 91440, Note_off_c, 9, 35, 64
1, 91440, Note_on_c, 9, 44, 72
1, 91680, Note_off_c, 9, 44, 64
1, 91680, Note_on_c, 9, 42, 80
1, 91680, Note_on_c, 9, 38, 80
1, 91920, Note_off_c, 9, 42, 64
1, 91920, Note_off_c, 9, 38, 64
1, 91920, Note_on_c, 9, 44, 72
1, 92160, Note_off_c, 9, 44, 64
1, 92160, Note_on_c, 9, 42, 80
1, 92160, Note_on_c, 9, 35, 80
1, 92400, Note_off_c, 9, 42, 64
1, 92400, Note_off_c, 9, 35, 64
1, 92400, Note_on_c, 9, 44, 72
1, 92640, Note_off_c, 9, 44, 64
1, 92640, Note_on_c, 9, 42, 80
1, 92640, Note_on_c, 9, 38, 80
1, 92880, Note_off_c, 9, 42, 64
1, 92880, Note_off_c, 9, 38, 64
1, 92880, Note_on_c, 9, 44, 72
1, 93120, Note_off_c, 9, 44, 64
1, 93120, Note_on_c, 9, 42, 80
1, 93120, Note_on_c, 9, 35, 80
1, 93360, Note_off_c, 9, 42, 64
1, 93360, Note_off_c, 9, 35, 64
1, 93360, Note_on_c, 9, 44, 72
1, 93600, Note_off_c, 9, 44, 64
1, 93600, Note_on_c, 9, 42, 80
1, 93600, Note_on_c, 9, 38, 80
1, 93840, Note_off_c, 9, 42, 64
1, 93840, Note_off_c, 9, 38, 64
1, 93840, Note_on_c, 9, 44, 72
1, 94080, Note_off_c, 9, 44, 64
1, 94080, Note_on_c, 9, 42, 80
1, 94080, Note_on_c, 9, 35, 80
1, 94320, Note_off_c, 9, 42, 64
1, 94320, Note_off_c, 9, 35, 64
1, 94320, Note_on_c, 9, 44, 72
1, 94560, Note_off_c, 9, 44, 64
1, 94560, Note_on_c, 9, 42, 80
1, 94560, Note_on_c, 9, 38, 80
1, 94800, Note_off_c, 9, 42, 64
1, 94800, Note_off_c, 9, 38, 64
1, 94800, Note_on_c, 9, 44, 72
1, 95040, Note_off_c, 9, 44, 64
1, 95040, Note_on_c, 9, 42, 80
1, 95040, Note_on_c, 9, 35, 80
1, 95280, Note_off_c, 9, 42, 64
1, 95280, Note_off_c, 9, 35, 64
1, 95280, Note_on_c, 9, 44, 72
1, 95520, Note_off_c, 9, 44, 64
1, 95520, Note_on_c, 9, 42, 80
1, 95520, Note_on_c, 9, 38, 80
1, 95760, Note_off_c, 9, 42, 64
1, 95760, Note_off_c, 9, 38, 64
1, 95760, Note_on_c, 9, 44, 72
1, 96000, Note_off_c, 9, 44, 64
1, 96000, Note_on_c, 9, 49, 80
1, 96000, Note_on_c, 9, 42, 80
1, 96000, Note_on_c, 9, 35, 80
1, 96240, Note_off_c, 9, 49, 64
1, 96240, Note_off_c, 9, 42, 64
1, 96240, Note_off_c, 9, 35, 64
1, 96240, Note_on_c, 9, 44, 72
1, 96480, Note_off_c, 9, 44, 64
1, 96480, Note_on_c, 9, 42, 80
1, 96480, Note_on_c, 9, 38, 80
1, 96720, Note_off_c, 9, 42, 64
1, 96720, Note_off_c, 9, 38, 64
1, 96720, Note_on_c, 9, 44, 72
1, 96960, Note_off_c, 9, 44, 64
1, 96960, Note_on_c, 9, 42, 80
1, 96960, Note_on_c, 9, 35, 80
1, 97200, Note_off_c, 9, 42, 64
1, 97200, Note_off_c, 9, 35, 64
1, 97200, Note_on_c, 9, 44, 72
1, 97440, Note_off_c, 9, 44, 64
1, 97440, Note_on_c, 9, 42, 80
1, 97440, Note_on_c, 9, 38, 80
1, 97680, Note_off_c, 9, 42, 64
1, 97680, Note_off_c, 9, 38, 64
1, 97680, Note_on_c, 9, 44, 72
1, 97920, Note_off_c, 9, 44, 64
1, 97920, Note_on_c, 9, 42, 80
1, 97920, Note_on_c, 9, 35, 80
1, 98160, Note_off_c, 9, 42, 64
1, 98160, Note_off_c, 9, 35, 64
1, 98160, Note_on_c, 9, 44, 72
1, 98400, Note_off_c, 9, 44, 64
1, 98400, Note_on_c, 9, 42, 80
1, 98400, Note_on_c, 9, 38, 80
1, 98640, Note_off_c, 9, 42, 64
1, 98640, Note_off_c, 9, 38, 64
1, 98640, Note_on_c, 9, 44, 72
1, 98880, Note_off_c, 9, 44, 64
1, 98880, Note_on_c, 9, 42, 80
1, 98880, Note_on_c, 9, 35, 80
1, 99120, Note_off_c, 9, 42, 64
1, 99120, Note_off_c, 9, 35, 64
1, 99120, Note_on_c, 9, 44, 72
1, 99360, Note_off_c, 9, 44, 64
1, 99360, Note_on_c, 9, 42, 80
1, 99360, Note_on_c, 9, 38, 80
1, 99600, Note_off_c, 9, 42, 64
1, 99600, Note_off_c, 9, 38, 64
1, 99600, Note_on_c, 9, 44, 72
1, 99840, Note_off_c, 9, 44, 64
1, 99840, Note_on_c, 9, 42, 80
1, 99840, Note_on_c, 9, 35, 80
1, 100080, Note_off_c, 9, 42, 64
1, 100080, Note_off_c, 9, 35, 64
1, 100080, Note_on_c, 9, 44, 72
1, 100320, Note_off_c, 9, 44, 64
1, 100320, Note_on_c, 9, 42, 80
1, 100320, Note_on_c, 9, 38, 80
1, 100560, Note_off_c, 9, 42, 64
1, 100560, Note_off_c, 9, 38, 64
1, 100560, Note_on_c, 9, 44, 72
1, 100800, Note_off_c, 9, 44, 64
1, 100800, Note_on_c, 9, 42, 80
1, 100800, Note_on_c, 9, 35, 80
1, 101040, Note_off_c, 9, 42, 64
1, 101040, Note_off_c, 9, 35, 64
1, 101040, Note_on_c, 9, 44, 72
1, 101280, Note_off_c, 9, 44, 64
1, 101280, Note_on_c, 9, 42, 80
1, 101280, Note_on_c, 9, 38, 80
1, 101520, Note_off_c, 9, 42, 64
1, 101520, Note_off_c, 9, 38, 64
1, 101520, Note_on_c, 9, 44, 72
1, 101760, Note_off_c, 9, 44, 64
1, 101760, Note_on_c, 9, 42, 80
1, 101760, Note_on_c, 9, 35, 80
1, 102000, Note_off_c, 9, 42, 64
1, 102000, Note_off_c, 9, 35, 64
1, 102000, Note_on_c, 9, 44, 72
1, 102240, Note_off_c, 9, 44, 64
1, 102240, Note_on_c, 9, 42, 80
1, 102240, Note_on_c, 9, 38, 80
1, 102480, Note_off_c, 9, 42, 64
1, 102480, Note_off_c, 9, 38, 64
1, 102480, Note_on_c, 9, 44, 72
1, 102720, Note_off_c, 9, 44, 64
1, 102720, Note_on_c, 9, 42, 80
1, 102720, Note_on_c, 9, 35, 80
1, 102960, Note_off_c, 9, 42, 64
1, 102960, Note_off_c, 9, 35, 64
1, 102960, Note_on_c, 9, 44, 72
1, 103200, Note_off_c, 9, 44, 64
1, 103200, Note_on_c, 9, 42, 80
1, 103200, Note_on_c, 9, 38, 80
1, 103440, Note_off_c, 9, 42, 64
1, 103440, Note_off_c, 9, 38, 64
1, 103440, Note_on_c, 9, 44, 72
1, 103680, Note_off_c, 9, 44, 64
1, 103680, Note_on_c, 9, 49, 80
1, 103680, Note_on_c, 9, 42, 80
1, 103680, Note_on_c, 9, 35, 80
1, 103920, Note_off_c, 9, 49, 64
1, 103920, Note_off_c, 9, 42, 64
1, 103920, Note_off_c, 9, 35, 64
1, 103920, Note_on_c, 9, 44, 72
1, 104160, Note_off_c, 9, 44, 64
1, 104160, Note_on_c, 9, 42, 80
1, 104160, Note_on_c, 9, 38, 80
1, 104400, Note_off_c, 9, 42, 64
1, 104400, Note_off_c, 9, 38, 64
1, 104400, Note_on_c, 9, 44, 72
1, 104640, Note_off_c, 9, 44, 64
1, 104640, Note_on_c, 9, 42, 80
1, 104640, Note_on_c, 9, 35, 80
1, 104880, Note_off_c, 9, 42, 64
1, 104880, Note_off_c, 9, 35, 64
1, 104880, Note_on_c, 9, 44, 72
1, 105120, Note_off_c, 9, 44, 64
1, 105120, Note_on_c, 9, 42, 80
1, 105120, Note_on_c, 9, 38, 80
1, 105360, Note_off_c, 9, 42, 64
1, 105360, Note_off_c, 9, 38, 64
1, 105360, Note_on_c, 9, 44, 72
1, 105600, Note_off_c, 9, 44, 64
1, 105600, Note_on_c, 9, 42, 80
1, 105600, Note_on_c, 9, 35, 80
1, 105840, Note_off_c, 9, 42, 64
1, 105840, Note_off_c, 9, 35, 64
1, 105840, Note_on_c, 9, 44, 72
1, 106080, Note_off_c, 9, 44, 64
1, 106080, Note_on_c, 9, 42, 80
1, 106080, Note_on_c, 9, 38, 80
1, 106320, Note_off_c, 9, 42, 64
1, 106320, Note_off_c, 9, 38, 64
1, 106320, Note_on_c, 9, 44, 72
1, 106560, Note_off_c, 9, 44, 64
1, 106560, Note_on_c, 9, 42, 80
1, 106560, Note_on_c, 9, 35, 80
1, 106800, Note_off_c, 9, 42, 64
1, 106800, Note_off_c, 9, 35, 64
1, 106800, Note_on_c, 9, 44, 72
1, 107040, Note_off_c, 9, 44, 64
1, 107040, Note_on_c, 9, 42, 80
1, 107040, Note_on_c, 9, 38, 80
1, 107280, Note_off_c, 9, 42, 64
1, 107280, Note_off_c, 9, 38, 64
1, 107280, Note_on_c, 9, 44, 72
1, 107520, Note_off_c, 9, 44, 64
1, 107520, Note_on_c, 9, 42, 80
1, 107520, Note_on_c, 9, 35, 80
1, 107760, Note_off_c, 9, 42, 64
1, 107760, Note_off_c, 9, 35, 64
1, 107760, Note_on_c, 9, 44, 72
1, 108000, Note_off_c, 9, 44, 64
1, 108000, Note_on_c, 9, 42, 80
1, 108000, Note_on_c, 9, 38, 80
1, 108240, Note_off_c, 9, 42, 64
1, 108240, Note_off_c, 9, 38, 64
1, 108240, Note_on_c, 9, 44, 72
1, 108480, Note_off_c, 9, 44, 64
1, 108480, Note_on_c, 9, 42, 80
1, 108480, Note_on_c, 9, 35, 80
1, 108720, Note_off_c, 9, 42, 64
1, 108720, Note_off_c, 9, 35, 64
1, 108720, Note_on_c, 9, 44, 72
1, 108960, Note_off_c, 9, 44, 64
1, 108960, Note_on_c, 9, 42, 80
1, 108960, Note_on_c, 9, 38, 80
1, 109200, Note_off_c, 9, 42, 64
1, 109200, Note_off_c, 9, 38, 64
1, 109200, Note_on_c, 9, 44, 72
1, 109440, Note_off_c, 9, 44, 64
1, 109440, Note_on_c, 9, 42, 80
1, 109440, Note_on_c, 9, 35, 80
1, 109680, Note_off_c, 9, 42, 64
1, 109680, Note_off_c, 9, 35, 64
1, 109680, Note_on_c, 9, 44, 72
1, 109920, Note_off_c, 9, 44, 64
1, 109920, Note_on_c, 9, 42, 80
1, 109920, Note_on_c, 9, 38, 80
1, 110160, Note_off_c, 9, 42, 64
1, 110160, Note_off_c, 9, 38, 64
1, 110160, Note_on_c, 9, 44, 72
1, 110400, Note_off_c, 9, 44, 64
1, 110400, Note_on_c, 9, 42, 80
1, 110400, Note_on_c, 9, 35, 80
1, 110640, Note_off_c, 9, 42, 64
1, 110640, Note_off_c, 9, 35, 64
1, 110640, Note_on_c, 9, 44, 72
1, 110880, Note_off_c, 9, 44, 64
1, 110880, Note_on_c, 9, 42, 80
1, 110880, Note_on_c, 9, 38, 80
1, 111120, Note_off_c, 9, 42, 64
1, 111120, Note_off_c, 9, 38, 64
1, 111120, Note_on_c, 9, 44, 72
1, 111360, Note_off_c, 9, 44, 64
1, 111360, Note_on_c, 9, 57, 80
1, 111360, Note_on_c, 9, 42, 80
1, 111360, Note_on_c, 9, 35, 80
1, 111600, Note_off_c, 9, 57, 64
1, 111600, Note_off_c, 9, 42, 64
1, 111600, Note_off_c, 9, 35, 64
1, 111600, Note_on_c, 9, 42, 80
1, 111840, Note_off_c, 9, 42, 64
1, 111840, Note_on_c, 9, 42, 80
1, 111840, Note_on_c, 9, 38, 80
1, 112080, Note_off_c, 9, 42, 64
1, 112080, Note_off_c, 9, 38, 64
1, 112080, Note_on_c, 9, 42, 80
1, 112320, Note_off_c, 9, 42, 64
1, 112320, Note_on_c, 9, 42, 80
1, 112320, Note_on_c, 9, 35, 80
1, 112560, Note_off_c, 9, 42, 64
1, 112560, Note_off_c, 9, 35, 64
1, 112560, Note_on_c, 9, 42, 80
1, 112800, Note_off_c, 9, 42, 64
1, 112800, Note_on_c, 9, 42, 80
1, 112800, Note_on_c, 9, 38, 80
1, 113040, Note_off_c, 9, 42, 64
1, 113040, Note_off_c, 9, 38, 64
1, 113040, Note_on_c, 9, 42, 80
1, 113280, Note_off_c, 9, 42, 64
1, 113280, Note_on_c, 9, 57, 64
1, 113280, Note_on_c, 9, 42, 64
1, 113280, Note_on_c, 9, 35, 64
1, 113520, Note_off_c, 9, 57, 64
1, 113520, Note_off_c, 9, 42, 64
1, 113520, Note_off_c, 9, 35, 64
1, 113520, Note_on_c, 9, 42, 80
1, 113760, Note_off_c, 9, 42, 64
1, 113760, Note_on_c, 9, 42, 80
1, 113760, Note_on_c, 9, 38, 80
1, 114000, Note_off_c, 9, 42, 64
1, 114000, Note_off_c, 9, 38, 64
1, 114000, Note_on_c, 9, 42, 80
1, 114240, Note_off_c, 9, 42, 64
1, 114240, Note_on_c, 9, 42, 80
1, 114240, Note_on_c, 9, 35, 80
1, 114480, Note_off_c, 9, 42, 64
1, 114480, Note_off_c, 9, 35, 64
1, 114480, Note_on_c, 9, 42, 80
1, 114720, Note_off_c, 9, 42, 64
1, 114720, Note_on_c, 9, 42, 80
1, 114720, Note_on_c, 9, 38, 80
1, 114960, Note_off_c, 9, 42, 64
1, 114960, Note_off_c, 9, 38, 64
1, 114960, Note_on_c, 9, 42, 80
1, 115200, Note_off_c, 9, 42, 64
1, 115200, Note_on_c, 9, 57, 64
1, 115200, Note_on_c, 9, 42, 64
1, 115200, Note_on_c, 9, 35, 64
1, 115440, Note_off_c, 9, 57, 64
1, 115440, Note_off_c, 9, 42, 64
1, 115440, Note_off_c, 9, 35, 64
1, 115440, Note_on_c, 9, 42, 80
1, 115680, Note_off_c, 9, 42, 64
1, 115680, Note_on_c, 9, 42, 80
1, 115680, Note_on_c, 9, 38, 80
1, 115920, Note_off_c, 9, 42, 64
1, 115920, Note_off_c, 9, 38, 64
1, 115920, Note_on_c, 9, 42, 80
1, 116160, Note_off_c, 9, 42, 64
1, 116160, Note_on_c, 9, 42, 80
1, 116160, Note_on_c, 9, 35, 80
1, 116400, Note_off_c, 9, 42, 64
1, 116400, Note_off_c, 9, 35, 64
1, 116400, Note_on_c, 9, 42, 80
1, 116640, Note_off_c, 9, 42, 64
1, 116640, Note_on_c, 9, 42, 80
1, 116640, Note_on_c, 9, 38, 80
1, 116880, Note_off_c, 9, 42, 64
1, 116880, Note_off_c, 9, 38, 64
1, 116880, Note_on_c, 9, 42, 80
1, 117120, Note_off_c, 9, 42, 64
1, 117120, Note_on_c, 9, 57, 64
1, 117120, Note_on_c, 9, 42, 64
1, 117120, Note_on_c, 9, 35, 64
1, 117360, Note_off_c, 9, 57, 64
1, 117360, Note_off_c, 9, 42, 64
1, 117360, Note_off_c, 9, 35, 64
1, 117360, Note_on_c, 9, 42, 80
1, 117600, Note_off_c, 9, 42, 64
1, 117600, Note_on_c, 9, 42, 80
1, 117600, Note_on_c, 9, 38, 80
1, 117840, Note_off_c, 9, 42, 64
1, 117840, Note_off_c, 9, 38, 64
1, 117840, Note_on_c, 9, 42, 80
1, 118080, Note_off_c, 9, 42, 64
1, 118080, Note_on_c, 9, 42, 80
1, 118080, Note_on_c, 9, 35, 80
1, 118320, Note_off_c, 9, 42, 64
1, 118320, Note_off_c, 9, 35, 64
1, 118320, Note_on_c, 9, 42, 80
1, 118560, Note_off_c, 9, 42, 64
1, 118560, Note_on_c, 9, 42, 80
1, 118560, Note_on_c, 9, 38, 80
1, 118800, Note_off_c, 9, 42, 64
1, 118800, Note_off_c, 9, 38, 64
1, 118800, Note_on_c, 9, 42, 80
1, 119040, Note_off_c, 9, 42, 64
1, 119040, Note_on_c, 9, 57, 64
1, 119040, Note_on_c, 9, 42, 64
1, 119040, Note_on_c, 9, 35, 64
1, 119280, Note_off_c, 9, 57, 64
1, 119280, Note_off_c, 9, 42, 64
1, 119280, Note_off_c, 9, 35, 64
1, 119280, Note_on_c, 9, 42, 80
1, 119520, Note_off_c, 9, 42, 64
1, 119520, Note_on_c, 9, 42, 80
1, 119520, Note_on_c, 9, 38, 80
1, 119760, Note_off_c, 9, 42, 64
1, 119760, Note_off_c, 9, 38, 64
1, 119760, Note_on_c, 9, 42, 80
1, 120000, Note_off_c, 9, 42, 64
1, 120000, Note_on_c, 9, 42, 80
1, 120000, Note_on_c, 9, 35, 80
1, 120240, Note_off_c, 9, 42, 64
1, 120240, Note_off_c, 9, 35, 64
1, 120240, Note_on_c, 9, 42, 80
1, 120480, Note_off_c, 9, 42, 64
1, 120480, Note_on_c, 9, 42, 80
1, 120480, Note_on_c, 9, 38, 80
1, 120720, Note_off_c, 9, 42, 64
1, 120720, Note_off_c, 9, 38, 64
1, 120720, Note_on_c, 9, 42, 80
1, 120960, Note_off_c, 9, 42, 64
1, 120960, Note_on_c, 9, 57, 64
1, 120960, Note_on_c, 9, 42, 64
1, 120960, Note_on_c, 9, 35, 64
1, 121200, Note_off_c, 9, 57, 64
1, 121200, Note_off_c, 9, 42, 64
1, 121200, Note_off_c, 9, 35, 64
1, 121200, Note_on_c, 9, 42, 80
1, 121440, Note_off_c, 9, 42, 64
1, 121440, Note_on_c, 9, 42, 80
1, 121440, Note_on_c, 9, 38, 80
1, 121680, Note_off_c, 9, 42, 64
1, 121680, Note_off_c, 9, 38, 64
1, 121680, Note_on_c, 9, 42, 80
1, 121920, Note_off_c, 9, 42, 64
1, 121920, Note_on_c, 9, 42, 80
1, 121920, Note_on_c, 9, 35, 80
1, 122160, Note_off_c, 9, 42, 64
1, 122160, Note_off_c, 9, 35, 64
1, 122160, Note_on_c, 9, 42, 80
1, 122400, Note_off_c, 9, 42, 64
1, 122400, Note_on_c, 9, 42, 80
1, 122400, Note_on_c, 9, 38, 80
1, 122640, Note_off_c, 9, 42, 64
1, 122640, Note_off_c, 9, 38, 64
1, 122640, Note_on_c, 9, 42, 80
1, 122880, Note_off_c, 9, 42, 64
1, 122880, Note_on_c, 9, 57, 88
1, 122880, Note_on_c, 9, 42, 88
1, 122880, Note_on_c, 9, 35, 88
1, 123120, Note_off_c, 9, 57, 64
1, 123120, Note_off_c, 9, 42, 64
1, 123120, Note_off_c, 9, 35, 64
1, 123120, Note_on_c, 9, 42, 80
1, 123360, Note_off_c, 9, 42, 64
1, 123360, Note_on_c, 9, 42, 80
1, 123360, Note_on_c, 9, 38, 80
1, 123600, Note_off_c, 9, 42, 64
1, 123600, Note_off_c, 9, 38, 64
1, 123600, Note_on_c, 9, 57, 80
1, 123600, Note_on_c, 9, 42, 80
1, 123840, Note_off_c, 9, 57, 64
1, 123840, Note_off_c, 9, 42, 64
1, 123840, Note_on_c, 9, 42, 80
1, 123840, Note_on_c, 9, 35, 80
1, 124080, Note_off_c, 9, 42, 64
1, 124080, Note_off_c, 9, 35, 64
1, 124080, Note_on_c, 9, 42, 80
1, 124320, Note_off_c, 9, 42, 64
1, 124320, Note_on_c, 9, 42, 80
1, 124320, Note_on_c, 9, 38, 80
1, 124560, Note_off_c, 9, 42, 64
1, 124560, Note_off_c, 9, 38, 64
1, 124560, Note_on_c, 9, 42, 80
1, 124800, Note_off_c, 9, 42, 64
1, 124800, Note_on_c, 9, 57, 88
1, 124800, Note_on_c, 9, 35, 88
1, 124800, Note_on_c, 9, 38, 88
1, 125160, Note_off_c, 9, 57, 64
1, 125160, Note_off_c, 9, 35, 64
1, 125160, Note_off_c, 9, 38, 64
1, 125160, Note_on_c, 9, 57, 88
1, 125160, Note_on_c, 9, 53, 88
1, 125160, Note_on_c, 9, 38, 88
1, 125520, Note_off_c, 9, 57, 64
1, 125520, Note_off_c, 9, 53, 64
1, 125520, Note_off_c, 9, 38, 64
1, 125520, Note_on_c, 9, 57, 88
1, 125520, Note_on_c, 9, 35, 88
1, 125520, Note_on_c, 9, 38, 88
1, 125880, Note_off_c, 9, 57, 64
1, 125880, Note_off_c, 9, 35, 64
1, 125880, Note_off_c, 9, 38, 64
1, 126240, Note_on_c, 9, 38, 80
1, 126720, Note_off_c, 9, 38, 64
1, 126720, Note_on_c, 9, 49, 80
1, 126720, Note_on_c, 9, 57, 80
1, 126720, Note_on_c, 9, 35, 80
1, 128160, Note_off_c, 9, 49, 64
1, 128160, Note_off_c, 9, 57, 64
1, 128160, Note_off_c, 9, 35, 64
1, 128400, Note_on_c, 9, 38, 80
1, 128640, Note_off_c, 9, 38, 64
1, 128640, Note_on_c, 9, 49, 80
1, 128640, Note_on_c, 9, 57, 80
1, 128640, Note_on_c, 9, 35, 80
1, 129600, Note_off_c, 9, 49, 64
1, 129600, Note_off_c, 9, 57, 64
1, 129600, Note_off_c, 9, 35, 64
1, 129600, Note_on_c, 9, 49, 80
1, 129600, Note_on_c, 9, 38, 80
1, 129840, Note_off_c, 9, 49, 64
1, 129840, Note_off_c, 9, 38, 64
1, 129840, Note_on_c, 9, 35, 80
1, 129960, Note_off_c, 9, 35, 64
1, 129960, Note_on_c, 9, 49, 80
1, 129960, Note_on_c, 9, 38, 80
1, 130200, Note_off_c, 9, 49, 64
1, 130200, Note_off_c, 9, 38, 64
1, 130200, Note_on_c, 9, 35, 80
1, 130320, Note_off_c, 9, 35, 64
1, 130320, Note_on_c, 9, 49, 80
1, 130320, Note_on_c, 9, 38, 80
1, 130560, Note_off_c, 9, 49, 64
1, 130560, Note_off_c, 9, 38, 64
1, 130560, Note_on_c, 9, 57, 80
1, 130560, Note_on_c, 9, 35, 80
1, 130560, Note_on_c, 9, 38, 80
1, 131040, Note_off_c, 9, 57, 64
1, 131040, Note_off_c, 9, 35, 64
1, 131040, Note_off_c, 9, 38, 64
1, 131040, Note_on_c, 9, 49, 80
1, 131040, Note_on_c, 9, 35, 80
1, 131040, Note_on_c, 9, 38, 80
1, 131520, Note_off_c, 9, 49, 64
1, 131520, Note_off_c, 9, 35, 64
1, 131520, Note_off_c, 9, 38, 64
1, 131520, Note_on_c, 9, 57, 80
1, 131520, Note_on_c, 9, 35, 80
1, 131520, Note_on_c, 9, 38, 80
1, 132000, Note_off_c, 9, 57, 64
1, 132000, Note_off_c, 9, 35, 64
1, 132000, Note_off_c, 9, 38, 64
1, 132000, Note_on_c, 9, 49, 80
1, 132000, Note_on_c, 9, 35, 80
1, 132000, Note_on_c, 9, 38, 80
1, 132240, Note_off_c, 9, 49, 64
1, 132240, Note_off_c, 9, 35, 64
1, 132240, Note_off_c, 9, 38, 64
1, 132240, Note_on_c, 9, 35, 80
1, 132480, Note_off_c, 9, 35, 64
1, 132480, Note_on_c, 9, 57, 80
1, 132480, Note_on_c, 9, 35, 80
1, 132480, Note_on_c, 9, 38, 80
1, 132960, Note_off_c, 9, 57, 64
1, 132960, Note_off_c, 9, 35, 64
1, 132960, Note_off_c, 9, 38, 64
1, 132960, Note_on_c, 9, 49, 80
1, 132960, Note_on_c, 9, 35, 80
1, 132960, Note_on_c, 9, 38, 80
1, 133440, Note_off_c, 9, 49, 64
1, 133440, Note_off_c, 9, 35, 64
1, 133440, Note_off_c, 9, 38, 64
1, 133440, Note_on_c, 9, 57, 80
1, 133440, Note_on_c, 9, 35, 80
1, 133440, Note_on_c, 9, 38, 80
1, 133920, Note_off_c, 9, 57, 64
1, 133920, Note_off_c, 9, 35, 64
1, 133920, Note_off_c, 9, 38, 64
1, 133920, Note_on_c, 9, 49, 80
1, 133920, Note_on_c, 9, 35, 80
1, 133920, Note_on_c, 9, 38, 80
1, 134160, Note_off_c, 9, 49, 64
1, 134160, Note_off_c, 9, 35, 64
1, 134160, Note_off_c, 9, 38, 64
1, 134160, Note_on_c, 9, 35, 80
1, 134400, Note_off_c, 9, 35, 64
1, 134400, Note_on_c, 9, 57, 80
1, 134400, Note_on_c, 9, 35, 80
1, 134400, Note_on_c, 9, 38, 80
1, 134880, Note_off_c, 9, 57, 64
1, 134880, Note_off_c, 9, 35, 64
1, 134880, Note_off_c, 9, 38, 64
1, 134880, Note_on_c, 9, 49, 80
1, 134880, Note_on_c, 9, 35, 80
1, 134880, Note_on_c, 9, 38, 80
1, 135360, Note_off_c, 9, 49, 64
1, 135360, Note_off_c, 9, 35, 64
1, 135360, Note_off_c, 9, 38, 64
1, 135360, Note_on_c, 9, 57, 80
1, 135360, Note_on_c, 9, 35, 80
1, 135360, Note_on_c, 9, 38, 80
1, 135840, Note_off_c, 9, 57, 64
1, 135840, Note_off_c, 9, 35, 64
1, 135840, Note_off_c, 9, 38, 64
1, 135840, Note_on_c, 9, 49, 80
1, 135840, Note_on_c, 9, 35, 80
1, 135840, Note_on_c, 9, 38, 80
1, 136080, Note_off_c, 9, 49, 64
1, 136080, Note_off_c, 9, 35, 64
1, 136080, Note_off_c, 9, 38, 64
1, 136080, Note_on_c, 9, 35, 80
1, 136320, Note_off_c, 9, 35, 64
1, 136320, Note_on_c, 9, 57, 80
1, 136320, Note_on_c, 9, 35, 80
1, 136320, Note_on_c, 9, 38, 80
1, 136800, Note_off_c, 9, 57, 64
1, 136800, Note_off_c, 9, 35, 64
1, 136800, Note_off_c, 9, 38, 64
1, 136800, Note_on_c, 9, 49, 80
1, 136800, Note_on_c, 9, 35, 80
1, 136800, Note_on_c, 9, 38, 80
1, 137280, Note_off_c, 9, 49, 64
1, 137280, Note_off_c, 9, 35, 64
1, 137280, Note_off_c, 9, 38, 64
1, 137280, Note_on_c, 9, 57, 80
1, 137280, Note_on_c, 9, 35, 80
1, 137280, Note_on_c, 9, 38, 80
1, 137760, Note_off_c, 9, 57, 64
1, 137760, Note_off_c, 9, 35, 64
1, 137760, Note_off_c, 9, 38, 64
1, 137760, Note_on_c, 9, 49, 80
1, 137760, Note_on_c, 9, 35, 80
1, 137760, Note_on_c, 9, 38, 80
1, 138000, Note_off_c, 9, 49, 64
1, 138000, Note_off_c, 9, 35, 64
1, 138000, Note_off_c, 9, 38, 64
1, 138000, Note_on_c, 9, 35, 80
1, 138240, Note_off_c, 9, 35, 64
1, 138240, Note_on_c, 9, 57, 80
1, 138240, Note_on_c, 9, 35, 80
1, 138240, Note_on_c, 9, 38, 80
1, 138720, Note_off_c, 9, 57, 64
1, 138720, Note_off_c, 9, 35, 64
1, 138720, Note_off_c, 9, 38, 64
1, 138720, Note_on_c, 9, 49, 80
1, 138720, Note_on_c, 9, 35, 80
1, 138720, Note_on_c, 9, 38, 80
1, 139200, Note_off_c, 9, 49, 64
1, 139200, Note_off_c, 9, 35, 64
1, 139200, Note_off_c, 9, 38, 64
1, 139200, Note_on_c, 9, 57, 80
1, 139200, Note_on_c, 9, 35, 80
1, 139200, Note_on_c, 9, 38, 80
1, 139680, Note_off_c, 9, 57, 64
1, 139680, Note_off_c, 9, 35, 64
1, 139680, Note_off_c, 9, 38, 64
1, 139680, Note_on_c, 9, 49, 80
1, 139680, Note_on_c, 9, 35, 80
1, 139680, Note_on_c, 9, 38, 80
1, 139920, Note_off_c, 9, 49, 64
1, 139920, Note_off_c, 9, 35, 64
1, 139920, Note_off_c, 9, 38, 64
1, 139920, Note_on_c, 9, 35, 80
1, 140160, Note_off_c, 9, 35, 64
1, 140160, Note_on_c, 9, 57, 80
1, 140160, Note_on_c, 9, 35, 80
1, 140160, Note_on_c, 9, 38, 80
1, 140640, Note_off_c, 9, 57, 64
1, 140640, Note_off_c, 9, 35, 64
1, 140640, Note_off_c, 9, 38, 64
1, 140640, Note_on_c, 9, 49, 80
1, 140640, Note_on_c, 9, 35, 80
1, 140640, Note_on_c, 9, 38, 80
1, 141120, Note_off_c, 9, 49, 64
1, 141120, Note_off_c, 9, 35, 64
1, 141120, Note_off_c, 9, 38, 64
1, 141120, Note_on_c, 9, 57, 64
1, 141120, Note_on_c, 9, 35, 64
1, 141120, Note_on_c, 9, 38, 64
1, 141360, Note_off_c, 9, 57, 64
1, 141360, Note_off_c, 9, 35, 64
1, 141360, Note_off_c, 9, 38, 64
1, 141360, Note_on_c, 9, 47, 88
1, 141360, Note_on_c, 9, 38, 88
1, 141480, Note_off_c, 9, 47, 64
1, 141480, Note_off_c, 9, 38, 64
1, 141480, Note_on_c, 9, 47, 88
1, 141480, Note_on_c, 9, 38, 88
1, 141600, Note_off_c, 9, 47, 64
1, 141600, Note_off_c, 9, 38, 64
1, 141600, Note_on_c, 9, 47, 88
1, 141600, Note_on_c, 9, 38, 88
1, 141720, Note_off_c, 9, 47, 64
1, 141720, Note_off_c, 9, 38, 64
1, 141720, Note_on_c, 9, 47, 88
1, 141720, Note_on_c, 9, 38, 88
1, 141840, Note_off_c, 9, 47, 64
1, 141840, Note_off_c, 9, 38, 64
1, 141840, Note_on_c, 9, 45, 88
1, 141960, Note_off_c, 9, 45, 64
1, 141960, Note_on_c, 9, 41, 88
1, 141960, Note_on_c, 9, 35, 88
1, 142080, Note_off_c, 9, 41, 64
1, 142080, Note_off_c, 9, 35, 64
1, 142080, Note_on_c, 9, 57, 80
1, 142080, Note_on_c, 9, 42, 80
1, 142080, Note_on_c, 9, 35, 80
1, 142320, Note_off_c, 9, 57, 64
1, 142320, Note_off_c, 9, 42, 64
1, 142320, Note_off_c, 9, 35, 64
1, 142320, Note_on_c, 9, 42, 80
1, 142560, Note_off_c, 9, 42, 64
1, 142560, Note_on_c, 9, 42, 80
1, 142560, Note_on_c, 9, 38, 80
1, 142800, Note_off_c, 9, 42, 64
1, 142800, Note_off_c, 9, 38, 64
1, 142800, Note_on_c, 9, 42, 80
1, 143040, Note_off_c, 9, 42, 64
1, 143040, Note_on_c, 9, 42, 80
1, 143040, Note_on_c, 9, 35, 80
1, 143280, Note_off_c, 9, 42, 64
1, 143280, Note_off_c, 9, 35, 64
1, 143280, Note_on_c, 9, 42, 80
1, 143520, Note_off_c, 9, 42, 64
1, 143520, Note_on_c, 9, 42, 80
1, 143520, Note_on_c, 9, 38, 80
1, 143760, Note_off_c, 9, 42, 64
1, 143760, Note_off_c, 9, 38, 64
1, 143760, Note_on_c, 9, 42, 80
1, 144000, Note_off_c, 9, 42, 64
1, 144000, Note_on_c, 9, 57, 64
1, 144000, Note_on_c, 9, 42, 64
1, 144000, Note_on_c, 9, 35, 64
1, 144240, Note_off_c, 9, 57, 64
1, 144240, Note_off_c, 9, 42, 64
1, 144240, Note_off_c, 9, 35, 64
1, 144240, Note_on_c, 9, 42, 80
1, 144480, Note_off_c, 9, 42, 64
1, 144480, Note_on_c, 9, 42, 80
1, 144480, Note_on_c, 9, 38, 80
1, 144720, Note_off_c, 9, 42, 64
1, 144720, Note_off_c, 9, 38, 64
1, 144720, Note_on_c, 9, 42, 80
1, 144960, Note_off_c, 9, 42, 64
1, 144960, Note_on_c, 9, 42, 80
1, 144960, Note_on_c, 9, 35, 80
1, 145200, Note_off_c, 9, 42, 64
1, 145200, Note_off_c, 9, 35, 64
1, 145200, Note_on_c, 9, 42, 80
1, 145440, Note_off_c, 9, 42, 64
1, 145440, Note_on_c, 9, 42, 80
1, 145440, Note_on_c, 9, 38, 80
1, 145680, Note_off_c, 9, 42, 64
1, 145680, Note_off_c, 9, 38, 64
1, 145680, Note_on_c, 9, 42, 80
1, 145920, Note_off_c, 9, 42, 64
1, 145920, Note_on_c, 9, 57, 64
1, 145920, Note_on_c, 9, 42, 64
1, 145920, Note_on_c, 9, 35, 64
1, 146160, Note_off_c, 9, 57, 64
1, 146160, Note_off_c, 9, 42, 64
1, 146160, Note_off_c, 9, 35, 64
1, 146160, Note_on_c, 9, 42, 80
1, 146400, Note_off_c, 9, 42, 64
1, 146400, Note_on_c, 9, 42, 80
1, 146400, Note_on_c, 9, 38, 80
1, 146640, Note_off_c, 9, 42, 64
1, 146640, Note_off_c, 9, 38, 64
1, 146640, Note_on_c, 9, 42, 80
1, 146880, Note_off_c, 9, 42, 64
1, 146880, Note_on_c, 9, 42, 80
1, 146880, Note_on_c, 9, 35, 80
1, 147120, Note_off_c, 9, 42, 64
1, 147120, Note_off_c, 9, 35, 64
1, 147120, Note_on_c, 9, 42, 80
1, 147360, Note_off_c, 9, 42, 64
1, 147360, Note_on_c, 9, 42, 80
1, 147360, Note_on_c, 9, 38, 80
1, 147600, Note_off_c, 9, 42, 64
1, 147600, Note_off_c, 9, 38, 64
1, 147600, Note_on_c, 9, 42, 80
1, 147840, Note_off_c, 9, 42, 64
1, 147840, Note_on_c, 9, 57, 64
1, 147840, Note_on_c, 9, 42, 64
1, 147840, Note_on_c, 9, 35, 64
1, 148080, Note_off_c, 9, 57, 64
1, 148080, Note_off_c, 9, 42, 64
1, 148080, Note_off_c, 9, 35, 64
1, 148080, Note_on_c, 9, 42, 80
1, 148320, Note_off_c, 9, 42, 64
1, 148320, Note_on_c, 9, 42, 80
1, 148320, Note_on_c, 9, 38, 80
1, 148560, Note_off_c, 9, 42, 64
1, 148560, Note_off_c, 9, 38, 64
1, 148560, Note_on_c, 9, 42, 80
1, 148800, Note_off_c, 9, 42, 64
1, 148800, Note_on_c, 9, 42, 80
1, 148800, Note_on_c, 9, 35, 80
1, 149040, Note_off_c, 9, 42, 64
1, 149040, Note_off_c, 9, 35, 64
1, 149040, Note_on_c, 9, 42, 80
1, 149280, Note_off_c, 9, 42, 64
1, 149280, Note_on_c, 9, 42, 80
1, 149280, Note_on_c, 9, 38, 80
1, 149520, Note_off_c, 9, 42, 64
1, 149520, Note_off_c, 9, 38, 64
1, 149520, Note_on_c, 9, 42, 80
1, 149760, Note_off_c, 9, 42, 64
1, 149760, Note_on_c, 9, 57, 64
1, 149760, Note_on_c, 9, 42, 64
1, 149760, Note_on_c, 9, 35, 64
1, 150000, Note_off_c, 9, 57, 64
1, 150000, Note_off_c, 9, 42, 64
1, 150000, Note_off_c, 9, 35, 64
1, 150000, Note_on_c, 9, 42, 80
1, 150240, Note_off_c, 9, 42, 64
1, 150240, Note_on_c, 9, 42, 80
1, 150240, Note_on_c, 9, 38, 80
1, 150480, Note_off_c, 9, 42, 64
1, 150480, Note_off_c, 9, 38, 64
1, 150480, Note_on_c, 9, 42, 80
1, 150720, Note_off_c, 9, 42, 64
1, 150720, Note_on_c, 9, 42, 80
1, 150720, Note_on_c, 9, 35, 80
1, 150960, Note_off_c, 9, 42, 64
1, 150960, Note_off_c, 9, 35, 64
1, 150960, Note_on_c, 9, 42, 80
1, 151200, Note_off_c, 9, 42, 64
1, 151200, Note_on_c, 9, 42, 80
1, 151200, Note_on_c, 9, 38, 80
1, 151440, Note_off_c, 9, 42, 64
1, 151440, Note_off_c, 9, 38, 64
1, 151440, Note_on_c, 9, 42, 80
1, 151680, Note_off_c, 9, 42, 64
1, 151680, Note_on_c, 9, 57, 64
1, 151680, Note_on_c, 9, 42, 64
1, 151680, Note_on_c, 9, 35, 64
1, 151920, Note_off_c, 9, 57, 64
1, 151920, Note_off_c, 9, 42, 64
1, 151920, Note_off_c, 9, 35, 64
1, 151920, Note_on_c, 9, 42, 80
1, 152160, Note_off_c, 9, 42, 64
1, 152160, Note_on_c, 9, 42, 80
1, 152160, Note_on_c, 9, 38, 80
1, 152400, Note_off_c, 9, 42, 64
1, 152400, Note_off_c, 9, 38, 64
1, 152400, Note_on_c, 9, 42, 80
1, 152640, Note_off_c, 9, 42, 64
1, 152640, Note_on_c, 9, 42, 80
1, 152640, Note_on_c, 9, 35, 80
1, 152880, Note_off_c, 9, 42, 64
1, 152880, Note_off_c, 9, 35, 64
1, 152880, Note_on_c, 9, 42, 80
1, 153120, Note_off_c, 9, 42, 64
1, 153120, Note_on_c, 9, 42, 80
1, 153120, Note_on_c, 9, 38, 80
1, 153360, Note_off_c, 9, 42, 64
1, 153360, Note_off_c, 9, 38, 64
1, 153360, Note_on_c, 9, 42, 80
1, 153600, Note_off_c, 9, 42, 64
1, 153600, Note_on_c, 9, 57, 88
1, 153600, Note_on_c, 9, 42, 88
1, 153600, Note_on_c, 9, 35, 88
1, 153840, Note_off_c, 9, 57, 64
1, 153840, Note_off_c, 9, 42, 64
1, 153840, Note_off_c, 9, 35, 64
1, 153840, Note_on_c, 9, 42, 80
1, 154080, Note_off_c, 9, 42, 64
1, 154080, Note_on_c, 9, 42, 80
1, 154080, Note_on_c, 9, 38, 80
1, 154320, Note_off_c, 9, 42, 64
1, 154320, Note_off_c, 9, 38, 64
1, 154320, Note_on_c, 9, 57, 80
1, 154320, Note_on_c, 9, 42, 80
1, 154560, Note_off_c, 9, 57, 64
1, 154560, Note_off_c, 9, 42, 64
1, 154560, Note_on_c, 9, 42, 80
1, 154560, Note_on_c, 9, 35, 80
1, 154800, Note_off_c, 9, 42, 64
1, 154800, Note_off_c, 9, 35, 64
1, 154800, Note_on_c, 9, 42, 80
1, 155040, Note_off_c, 9, 42, 64
1, 155040, Note_on_c, 9, 42, 80
1, 155040, Note_on_c, 9, 38, 80
1, 155280, Note_off_c, 9, 42, 64
1, 155280, Note_off_c, 9, 38, 64
1, 155280, Note_on_c, 9, 42, 80
1, 155520, Note_off_c, 9, 42, 64
1, 155520, Note_on_c, 9, 57, 88
1, 155520, Note_on_c, 9, 35, 88
1, 155520, Note_on_c, 9, 38, 88
1, 155880, Note_off_c, 9, 57, 64
1, 155880, Note_off_c, 9, 35, 64
1, 155880, Note_off_c, 9, 38, 64
1, 155880, Note_on_c, 9, 57, 88
1, 155880, Note_on_c, 9, 53, 88
1, 155880, Note_on_c, 9, 38, 88
1, 156240, Note_off_c, 9, 57, 64
1, 156240, Note_off_c, 9, 53, 64
1, 156240, Note_off_c, 9, 38, 64
1, 156240, Note_on_c, 9, 57, 88
1, 156240, Note_on_c, 9, 35, 88
1, 156240, Note_on_c, 9, 38, 88
1, 156600, Note_off_c, 9, 57, 64
1, 156600, Note_off_c, 9, 35, 64
1, 156600, Note_off_c, 9, 38, 64
1, 156960, Note_on_c, 9, 38, 80
1, 157440, Note_off_c, 9, 38, 64
1, 157440, Note_on_c, 9, 49, 64
1, 157440, Note_on_c, 9, 57, 64
1, 157440, Note_on_c, 9, 35, 64
1, 157440, Note_on_c, 9, 38, 64
1, 159360, Note_off_c, 9, 49, 64
1, 159360, Note_off_c, 9, 57, 64
1, 159360, Note_off_c, 9, 35, 64
1, 159360, Note_off_c, 9, 38, 64
1, 160320, Note_on_c, 9, 38, 80
1, 160680, Note_off_c, 9, 38, 64
1, 160680, Note_on_c, 9, 38, 80
1, 160800, Note_off_c, 9, 38, 64
1, 160800, Note_on_c, 9, 38, 80
1, 161040, Note_off_c, 9, 38, 64
1, 161040, Note_on_c, 9, 35, 80
1, 161040, Note_on_c, 9, 41, 80
1, 161280, Note_off_c, 9, 35, 64
1, 161280, Note_off_c, 9, 41, 64
1, 161280, Note_on_c, 9, 49, 80
1, 161280, Note_on_c, 9, 42, 80
1, 161280, Note_on_c, 9, 35, 80
1, 161520, Note_off_c, 9, 49, 64
1, 161520, Note_off_c, 9, 42, 64
1, 161520, Note_off_c, 9, 35, 64
1, 161520, Note_on_c, 9, 44, 72
1, 161760, Note_off_c, 9, 44, 64
1, 161760, Note_on_c, 9, 42, 80
1, 161760, Note_on_c, 9, 38, 80
1, 162000, Note_off_c, 9, 42, 64
1, 162000, Note_off_c, 9, 38, 64
1, 162000, Note_on_c, 9, 44, 72
1, 162240, Note_off_c, 9, 44, 64
1, 162240, Note_on_c, 9, 42, 80
1, 162240, Note_on_c, 9, 35, 80
1, 162480, Note_off_c, 9, 42, 64
1, 162480, Note_off_c, 9, 35, 64
1, 162480, Note_on_c, 9, 44, 72
1, 162720, Note_off_c, 9, 44, 64
1, 162720, Note_on_c, 9, 42, 80
1, 162720, Note_on_c, 9, 38, 80
1, 162960, Note_off_c, 9, 42, 64
1, 162960, Note_off_c, 9, 38, 64
1, 162960, Note_on_c, 9, 44, 72
1, 163200, Note_off_c, 9, 44, 64
1, 163200, Note_on_c, 9, 42, 80
1, 163200, Note_on_c, 9, 35, 80
1, 163440, Note_off_c, 9, 42, 64
1, 163440, Note_off_c, 9, 35, 64
1, 163440, Note_on_c, 9, 44, 72
1, 163680, Note_off_c, 9, 44, 64
1, 163680, Note_on_c, 9, 42, 80
1, 163680, Note_on_c, 9, 38, 80
1, 163920, Note_off_c, 9, 42, 64
1, 163920, Note_off_c, 9, 38, 64
1, 163920, Note_on_c, 9, 44, 72
1, 164160, Note_off_c, 9, 44, 64
1, 164160, Note_on_c, 9, 42, 80
1, 164160, Note_on_c, 9, 35, 80
1, 164400, Note_off_c, 9, 42, 64
1, 164400, Note_off_c, 9, 35, 64
1, 164400, Note_on_c, 9, 44, 72
1, 164640, Note_off_c, 9, 44, 64
1, 164640, Note_on_c, 9, 42, 80
1, 164640, Note_on_c, 9, 38, 80
1, 164880, Note_off_c, 9, 42, 64
1, 164880, Note_off_c, 9, 38, 64
1, 164880, Note_on_c, 9, 44, 72
1, 165120, Note_off_c, 9, 44, 64
1, 165120, Note_on_c, 9, 42, 80
1, 165120, Note_on_c, 9, 35, 80
1, 165360, Note_off_c, 9, 42, 64
1, 165360, Note_off_c, 9, 35, 64
1, 165360, Note_on_c, 9, 44, 72
1, 165600, Note_off_c, 9, 44, 64
1, 165600, Note_on_c, 9, 42, 80
1, 165600, Note_on_c, 9, 38, 80
1, 165840, Note_off_c, 9, 42, 64
1, 165840, Note_off_c, 9, 38, 64
1, 165840, Note_on_c, 9, 44, 72
1, 166080, Note_off_c, 9, 44, 64
1, 166080, Note_on_c, 9, 42, 80
1, 166080, Note_on_c, 9, 35, 80
1, 166320, Note_off_c, 9, 42, 64
1, 166320, Note_off_c, 9, 35, 64
1, 166320, Note_on_c, 9, 44, 72
1, 166560, Note_off_c, 9, 44, 64
1, 166560, Note_on_c, 9, 42, 80
1, 166560, Note_on_c, 9, 38, 80
1, 166800, Note_off_c, 9, 42, 64
1, 166800, Note_off_c, 9, 38, 64
1, 166800, Note_on_c, 9, 44, 72
1, 167040, Note_off_c, 9, 44, 64
1, 167040, Note_on_c, 9, 42, 80
1, 167040, Note_on_c, 9, 35, 80
1, 167280, Note_off_c, 9, 42, 64
1, 167280, Note_off_c, 9, 35, 64
1, 167280, Note_on_c, 9, 44, 72
1, 167520, Note_off_c, 9, 44, 64
1, 167520, Note_on_c, 9, 42, 80
1, 167520, Note_on_c, 9, 38, 80
1, 167760, Note_off_c, 9, 42, 64
1, 167760, Note_off_c, 9, 38, 64
1, 167760, Note_on_c, 9, 44, 72
1, 168000, Note_off_c, 9, 44, 64
1, 168000, Note_on_c, 9, 42, 80
1, 168000, Note_on_c, 9, 35, 80
1, 168240, Note_off_c, 9, 42, 64
1, 168240, Note_off_c, 9, 35, 64
1, 168240, Note_on_c, 9, 44, 72
1, 168480, Note_off_c, 9, 44, 64
1, 168480, Note_on_c, 9, 42, 80
1, 168480, Note_on_c, 9, 38, 80
1, 168720, Note_off_c, 9, 42, 64
1, 168720, Note_off_c, 9, 38, 64
1, 168720, Note_on_c, 9, 44, 72
1, 168960, Note_off_c, 9, 44, 64
1, 168960, Note_on_c, 9, 49, 80
1, 168960, Note_on_c, 9, 42, 80
1, 168960, Note_on_c, 9, 35, 80
1, 169200, Note_off_c, 9, 49, 64
1, 169200, Note_off_c, 9, 42, 64
1, 169200, Note_off_c, 9, 35, 64
1, 169200, Note_on_c, 9, 44, 72
1, 169440, Note_off_c, 9, 44, 64
1, 169440, Note_on_c, 9, 42, 80
1, 169440, Note_on_c, 9, 38, 80
1, 169680, Note_off_c, 9, 42, 64
1, 169680, Note_off_c, 9, 38, 64
1, 169680, Note_on_c, 9, 44, 72
1, 169920, Note_off_c, 9, 44, 64
1, 169920, Note_on_c, 9, 42, 80
1, 169920, Note_on_c, 9, 35, 80
1, 170160, Note_off_c, 9, 42, 64
1, 170160, Note_off_c, 9, 35, 64
1, 170160, Note_on_c, 9, 44, 72
1, 170400, Note_off_c, 9, 44, 64
1, 170400, Note_on_c, 9, 42, 80
1, 170400, Note_on_c, 9, 38, 80
1, 170640, Note_off_c, 9, 42, 64
1, 170640, Note_off_c, 9, 38, 64
1, 170640, Note_on_c, 9, 44, 72
1, 170880, Note_off_c, 9, 44, 64
1, 170880, Note_on_c, 9, 42, 80
1, 170880, Note_on_c, 9, 35, 80
1, 171120, Note_off_c, 9, 42, 64
1, 171120, Note_off_c, 9, 35, 64
1, 171120, Note_on_c, 9, 44, 72
1, 171360, Note_off_c, 9, 44, 64
1, 171360, Note_on_c, 9, 42, 80
1, 171360, Note_on_c, 9, 38, 80
1, 171600, Note_off_c, 9, 42, 64
1, 171600, Note_off_c, 9, 38, 64
1, 171600, Note_on_c, 9, 44, 72
1, 171840, Note_off_c, 9, 44, 64
1, 171840, Note_on_c, 9, 42, 80
1, 171840, Note_on_c, 9, 35, 80
1, 172080, Note_off_c, 9, 42, 64
1, 172080, Note_off_c, 9, 35, 64
1, 172080, Note_on_c, 9, 44, 72
1, 172320, Note_off_c, 9, 44, 64
1, 172320, Note_on_c, 9, 42, 80
1, 172320, Note_on_c, 9, 38, 80
1, 172560, Note_off_c, 9, 42, 64
1, 172560, Note_off_c, 9, 38, 64
1, 172560, Note_on_c, 9, 44, 72
1, 172800, Note_off_c, 9, 44, 64
1, 172800, Note_on_c, 9, 42, 80
1, 172800, Note_on_c, 9, 35, 80
1, 173040, Note_off_c, 9, 42, 64
1, 173040, Note_off_c, 9, 35, 64
1, 173040, Note_on_c, 9, 44, 72
1, 173280, Note_off_c, 9, 44, 64
1, 173280, Note_on_c, 9, 42, 80
1, 173280, Note_on_c, 9, 38, 80
1, 173520, Note_off_c, 9, 42, 64
1, 173520, Note_off_c, 9, 38, 64
1, 173520, Note_on_c, 9, 44, 72
1, 173760, Note_off_c, 9, 44, 64
1, 173760, Note_on_c, 9, 42, 80
1, 173760, Note_on_c, 9, 35, 80
1, 174000, Note_off_c, 9, 42, 64
1, 174000, Note_off_c, 9, 35, 64
1, 174000, Note_on_c, 9, 44, 72
1, 174240, Note_off_c, 9, 44, 64
1, 174240, Note_on_c, 9, 42, 80
1, 174240, Note_on_c, 9, 38, 80
1, 174480, Note_off_c, 9, 42, 64
1, 174480, Note_off_c, 9, 38, 64
1, 174480, Note_on_c, 9, 44, 72
1, 174720, Note_off_c, 9, 44, 64
1, 174720, Note_on_c, 9, 42, 80
1, 174720, Note_on_c, 9, 35, 80
1, 174960, Note_off_c, 9, 42, 64
1, 174960, Note_off_c, 9, 35, 64
1, 174960, Note_on_c, 9, 44, 72
1, 175200, Note_off_c, 9, 44, 64
1, 175200, Note_on_c, 9, 42, 80
1, 175200, Note_on_c, 9, 38, 80
1, 175440, Note_off_c, 9, 42, 64
1, 175440, Note_off_c, 9, 38, 64
1, 175440, Note_on_c, 9, 44, 72
1, 175680, Note_off_c, 9, 44, 64
1, 175680, Note_on_c, 9, 42, 80
1, 175680, Note_on_c, 9, 35, 80
1, 175920, Note_off_c, 9, 42, 64
1, 175920, Note_off_c, 9, 35, 64
1, 175920, Note_on_c, 9, 44, 72
1, 176160, Note_off_c, 9, 44, 64
1, 176160, Note_on_c, 9, 42, 80
1, 176160, Note_on_c, 9, 38, 80
1, 176400, Note_off_c, 9, 42, 64
1, 176400, Note_off_c, 9, 38, 64
1, 176400, Note_on_c, 9, 44, 72
1, 176640, Note_off_c, 9, 44, 64
1, 176640, Note_on_c, 9, 49, 80
1, 176640, Note_on_c, 9, 42, 80
1, 176640, Note_on_c, 9, 35, 80
1, 176880, Note_off_c, 9, 49, 64
1, 176880, Note_off_c, 9, 42, 64
1, 176880, Note_off_c, 9, 35, 64
1, 176880, Note_on_c, 9, 44, 72
1, 177120, Note_off_c, 9, 44, 64
1, 177120, Note_on_c, 9, 42, 80
1, 177120, Note_on_c, 9, 38, 80
1, 177360, Note_off_c, 9, 42, 64
1, 177360, Note_off_c, 9, 38, 64
1, 177360, Note_on_c, 9, 44, 72
1, 177600, Note_off_c, 9, 44, 64
1, 177600, Note_on_c, 9, 42, 80
1, 177600, Note_on_c, 9, 35, 80
1, 177840, Note_off_c, 9, 42, 64
1, 177840, Note_off_c, 9, 35, 64
1, 177840, Note_on_c, 9, 44, 72
1, 178080, Note_off_c, 9, 44, 64
1, 178080, Note_on_c, 9, 42, 80
1, 178080, Note_on_c, 9, 38, 80
1, 178320, Note_off_c, 9, 42, 64
1, 178320, Note_off_c, 9, 38, 64
1, 178320, Note_on_c, 9, 44, 72
1, 178560, Note_off_c, 9, 44, 64
1, 178560, Note_on_c, 9, 42, 80
1, 178560, Note_on_c, 9, 35, 80
1, 178800, Note_off_c, 9, 42, 64
1, 178800, Note_off_c, 9, 35, 64
1, 178800, Note_on_c, 9, 44, 72
1, 179040, Note_off_c, 9, 44, 64
1, 179040, Note_on_c, 9, 42, 80
1, 179040, Note_on_c, 9, 38, 80
1, 179280, Note_off_c, 9, 42, 64
1, 179280, Note_off_c, 9, 38, 64
1, 179280, Note_on_c, 9, 44, 72
1, 179520, Note_off_c, 9, 44, 64
1, 179520, Note_on_c, 9, 42, 80
1, 179520, Note_on_c, 9, 35, 80
1, 179760, Note_off_c, 9, 42, 64
1, 179760, Note_off_c, 9, 35, 64
1, 179760, Note_on_c, 9, 44, 72
1, 180000, Note_off_c, 9, 44, 64
1, 180000, Note_on_c, 9, 42, 80
1, 180000, Note_on_c, 9, 38, 80
1, 180240, Note_off_c, 9, 42, 64
1, 180240, Note_off_c, 9, 38, 64
1, 180240, Note_on_c, 9, 44, 72
1, 180480, Note_off_c, 9, 44, 64
1, 180480, Note_on_c, 9, 42, 80
1, 180480, Note_on_c, 9, 35, 80
1, 180720, Note_off_c, 9, 42, 64
1, 180720, Note_off_c, 9, 35, 64
1, 180720, Note_on_c, 9, 44, 72
1, 180960, Note_off_c, 9, 44, 64
1, 180960, Note_on_c, 9, 42, 80
1, 180960, Note_on_c, 9, 38, 80
1, 181200, Note_off_c, 9, 42, 64
1, 181200, Note_off_c, 9, 38, 64
1, 181200, Note_on_c, 9, 44, 72
1, 181440, Note_off_c, 9, 44, 64
1, 181440, Note_on_c, 9, 42, 80
1, 181440, Note_on_c, 9, 35, 80
1, 181680, Note_off_c, 9, 42, 64
1, 181680, Note_off_c, 9, 35, 64
1, 181680, Note_on_c, 9, 44, 72
1, 181920, Note_off_c, 9, 44, 64
1, 181920, Note_on_c, 9, 42, 80
1, 181920, Note_on_c, 9, 38, 80
1, 182160, Note_off_c, 9, 42, 64
1, 182160, Note_off_c, 9, 38, 64
1, 182160, Note_on_c, 9, 44, 72
1, 182400, Note_off_c, 9, 44, 64
1, 182400, Note_on_c, 9, 42, 80
1, 182400, Note_on_c, 9, 35, 80
1, 182640, Note_off_c, 9, 42, 64
1, 182640, Note_off_c, 9, 35, 64
1, 182640, Note_on_c, 9, 44, 72
1, 182880, Note_off_c, 9, 44, 64
1, 182880, Note_on_c, 9, 42, 80
1, 182880, Note_on_c, 9, 38, 80
1, 183120, Note_off_c, 9, 42, 64
1, 183120, Note_off_c, 9, 38, 64
1, 183120, Note_on_c, 9, 44, 72
1, 183360, Note_off_c, 9, 44, 64
1, 183360, Note_on_c, 9, 42, 80
1, 183360, Note_on_c, 9, 35, 80
1, 183600, Note_off_c, 9, 42, 64
1, 183600, Note_off_c, 9, 35, 64
1, 183600, Note_on_c, 9, 44, 72
1, 183840, Note_off_c, 9, 44, 64
1, 183840, Note_on_c, 9, 42, 80
1, 183840, Note_on_c, 9, 38, 80
1, 184080, Note_off_c, 9, 42, 64
1, 184080, Note_off_c, 9, 38, 64
1, 184080, Note_on_c, 9, 44, 72
1, 184320, Note_off_c, 9, 44, 64
1, 184320, Note_on_c, 9, 49, 80
1, 184320, Note_on_c, 9, 42, 80
1, 184320, Note_on_c, 9, 35, 80
1, 184560, Note_off_c, 9, 49, 64
1, 184560, Note_off_c, 9, 42, 64
1, 184560, Note_off_c, 9, 35, 64
1, 184560, Note_on_c, 9, 44, 72
1, 184800, Note_off_c, 9, 44, 64
1, 184800, Note_on_c, 9, 42, 80
1, 184800, Note_on_c, 9, 38, 80
1, 185040, Note_off_c, 9, 42, 64
1, 185040, Note_off_c, 9, 38, 64
1, 185040, Note_on_c, 9, 44, 72
1, 185280, Note_off_c, 9, 44, 64
1, 185280, Note_on_c, 9, 42, 80
1, 185280, Note_on_c, 9, 35, 80
1, 185520, Note_off_c, 9, 42, 64
1, 185520, Note_off_c, 9, 35, 64
1, 185520, Note_on_c, 9, 44, 72
1, 185760, Note_off_c, 9, 44, 64
1, 185760, Note_on_c, 9, 42, 80
1, 185760, Note_on_c, 9, 38, 80
1, 186000, Note_off_c, 9, 42, 64
1, 186000, Note_off_c, 9, 38, 64
1, 186000, Note_on_c, 9, 44, 72
1, 186240, Note_off_c, 9, 44, 64
1, 186240, Note_on_c, 9, 42, 80
1, 186240, Note_on_c, 9, 35, 80
1, 186480, Note_off_c, 9, 42, 64
1, 186480, Note_off_c, 9, 35, 64
1, 186480, Note_on_c, 9, 44, 72
1, 186720, Note_off_c, 9, 44, 64
1, 186720, Note_on_c, 9, 42, 80
1, 186720, Note_on_c, 9, 38, 80
1, 186960, Note_off_c, 9, 42, 64
1, 186960, Note_off_c, 9, 38, 64
1, 186960, Note_on_c, 9, 44, 72
1, 187200, Note_off_c, 9, 44, 64
1, 187200, Note_on_c, 9, 42, 80
1, 187200, Note_on_c, 9, 35, 80
1, 187440, Note_off_c, 9, 42, 64
1, 187440, Note_off_c, 9, 35, 64
1, 187440, Note_on_c, 9, 44, 72
1, 187680, Note_off_c, 9, 44, 64
1, 187680, Note_on_c, 9, 42, 80
1, 187680, Note_on_c, 9, 38, 80
1, 187920, Note_off_c, 9, 42, 64
1, 187920, Note_off_c, 9, 38, 64
1, 187920, Note_on_c, 9, 44, 72
1, 188160, Note_off_c, 9, 44, 64
1, 188160, Note_on_c, 9, 42, 80
1, 188160, Note_on_c, 9, 35, 80
1, 188400, Note_off_c, 9, 42, 64
1, 188400, Note_off_c, 9, 35, 64
1, 188400, Note_on_c, 9, 44, 72
1, 188640, Note_off_c, 9, 44, 64
1, 188640, Note_on_c, 9, 42, 80
1, 188640, Note_on_c, 9, 38, 80
1, 188880, Note_off_c, 9, 42, 64
1, 188880, Note_off_c, 9, 38, 64
1, 188880, Note_on_c, 9, 44, 72
1, 189120, Note_off_c, 9, 44, 64
1, 189120, Note_on_c, 9, 42, 80
1, 189120, Note_on_c, 9, 35, 80
1, 189360, Note_off_c, 9, 42, 64
1, 189360, Note_off_c, 9, 35, 64
1, 189360, Note_on_c, 9, 44, 72
1, 189600, Note_off_c, 9, 44, 64
1, 189600, Note_on_c, 9, 42, 80
1, 189600, Note_on_c, 9, 38, 80
1, 189840, Note_off_c, 9, 42, 64
1, 189840, Note_off_c, 9, 38, 64
1, 189840, Note_on_c, 9, 44, 72
1, 190080, Note_off_c, 9, 44, 64
1, 190080, Note_on_c, 9, 42, 80
1, 190080, Note_on_c, 9, 35, 80
1, 190320, Note_off_c, 9, 42, 64
1, 190320, Note_off_c, 9, 35, 64
1, 190320, Note_on_c, 9, 44, 72
1, 190560, Note_off_c, 9, 44, 64
1, 190560, Note_on_c, 9, 42, 80
1, 190560, Note_on_c, 9, 38, 80
1, 190800, Note_off_c, 9, 42, 64
1, 190800, Note_off_c, 9, 38, 64
1, 190800, Note_on_c, 9, 44, 72
1, 191040, Note_off_c, 9, 44, 64
1, 191040, Note_on_c, 9, 42, 80
1, 191040, Note_on_c, 9, 35, 80
1, 191280, Note_off_c, 9, 42, 64
1, 191280, Note_off_c, 9, 35, 64
1, 191280, Note_on_c, 9, 44, 72
1, 191520, Note_off_c, 9, 44, 64
1, 191520, Note_on_c, 9, 42, 80
1, 191520, Note_on_c, 9, 38, 80
1, 191760, Note_off_c, 9, 42, 64
1, 191760, Note_off_c, 9, 38, 64
1, 191760, Note_on_c, 9, 44, 72
1, 192000, Note_off_c, 9, 44, 64
1, 192000, End_track
0, 0, End_of_file