0, 0, Header, 1, 1, 480
1, 0, Start_track
1, 0, Title_t, "Drumkit"
1, 0, Program_c, 9, 0
1, 8640, Note_on_c, 9, 49, 80
1, 8640, Note_on_c, 9, 35, 80
1, 9120, Note_off_c, 9, 49, 64
1, 9120, Note_off_c, 9, 35, 64
1, 9120, Note_on_c, 9, 44, 80
1, 9600, Note_off_c, 9, 44, 64
1, 9600, Note_on_c, 9, 44, 80
1, 10080, Note_off_c, 9, 44, 64
1, 10080, Note_on_c, 9, 44, 80
1, 10560, Note_off_c, 9, 44, 64
1, 10560, Note_on_c, 9, 44, 80
1, 11040, Note_off_c, 9, 44, 64
1, 11040, Note_on_c, 9, 44, 80
1, 11520, Note_off_c, 9, 44, 64
1, 11520, Note_on_c, 9, 44, 80
1, 12000, Note_off_c, 9, 44, 64
1, 12000, Note_on_c, 9, 44, 80
1, 12000, Note_on_c, 9, 38, 80
1, 12240, Note_off_c, 9, 44, 64
1, 12240, Note_off_c, 9, 38, 64
1, 12240, Note_on_c, 9, 38, 80
1, 12480, Note_off_c, 9, 38, 64
1, 12480, Note_on_c, 9, 49, 80
1, 12480, Note_on_c, 9, 35, 80
1, 12960, Note_off_c, 9, 49, 64
1, 12960, Note_off_c, 9, 35, 64
1, 12960, Note_on_c, 9, 44, 80
1, 13440, Note_off_c, 9, 44, 64
1, 13440, Note_on_c, 9, 44, 80
1, 13920, Note_off_c, 9, 44, 64
1, 13920, Note_on_c, 9, 44, 80
1, 14400, Note_off_c, 9, 44, 64
1, 14400, Note_on_c, 9, 44, 80
1, 14880, Note_off_c, 9, 44, 64
1, 14880, Note_on_c, 9, 44, 80
1, 15360, Note_off_c, 9, 44, 64
1, 15360, Note_on_c, 9, 44, 80
1, 15840, Note_off_c, 9, 44, 64
1, 15840, Note_on_c, 9, 44, 80
1, 15840, Note_on_c, 9, 38, 80
1, 16080, Note_off_c, 9, 44, 64
1, 16080, Note_off_c, 9, 38, 64
1, 16080, Note_on_c, 9, 45, 80
1, 16320, Note_off_c, 9, 45, 64
1, 16320, Note_on_c, 9, 49, 80
1, 16320, Note_on_c, 9, 35, 80
1, 16800, Note_off_c, 9, 49, 64
1, 16800, Note_off_c, 9, 35, 64
1, 16800, Note_on_c, 9, 44, 80
1, 17040, Note_off_c, 9, 44, 64
1, 17040, Note_on_c, 9, 38, 80
1, 17280, Note_off_c, 9, 38, 64
1, 17280, Note_on_c, 9, 44, 80
1, 17760, Note_off_c, 9, 44, 64
1, 17760, Note_on_c, 9, 45, 80
1, 17760, Note_on_c, 9, 44, 80
1, 18240, Note_off_c, 9, 45, 64
1, 18240, Note_off_c, 9, 44, 64
1, 18240, Note_on_c, 9, 44, 80
1, 18480, Note_off_c, 9, 44, 64
1, 18480, Note_on_c, 9, 38, 80
1, 18720, Note_off_c, 9, 38, 64
1, 18720, Note_on_c, 9, 44, 80
1, 19200, Note_off_c, 9, 44, 64
1, 19200, Note_on_c, 9, 44, 80
1, 19200, Note_on_c, 9, 38, 80
1, 19680, Note_off_c, 9, 44, 64
1, 19680, Note_off_c, 9, 38, 64
1, 19680, Note_on_c, 9, 44, 80
1, 19680, Note_on_c, 9, 38, 80
1, 19920, Note_off_c, 9, 44, 64
1, 19920, Note_off_c, 9, 38, 64
1, 19920, Note_on_c, 9, 38, 80
1, 20160, Note_off_c, 9, 38, 64
1, 20160, Note_on_c, 9, 49, 80
1, 20160, Note_on_c, 9, 35, 80
1, 20640, Note_off_c, 9, 49, 64
1, 20640, Note_off_c, 9, 35, 64
1, 20640, Note_on_c, 9, 44, 80
1, 20880, Note_off_c, 9, 44, 64
1, 20880, Note_on_c, 9, 38, 80
1, 21120, Note_off_c, 9, 38, 64
1, 21120, Note_on_c, 9, 44, 80
1, 21600, Note_off_c, 9, 44, 64
1, 21600, Note_on_c, 9, 44, 80
1, 21600, Note_on_c, 9, 38, 80
1, 22080, Note_off_c, 9, 44, 64
1, 22080, Note_off_c, 9, 38, 64
1, 22080, Note_on_c, 9, 44, 80
1, 22080, Note_on_c, 9, 38, 80
1, 22320, Note_off_c, 9, 44, 64
1, 22320, Note_off_c, 9, 38, 64
1, 22320, Note_on_c, 9, 45, 80
1, 22560, Note_off_c, 9, 45, 64
1, 22560, Note_on_c, 9, 43, 80
1, 22560, Note_on_c, 9, 44, 80
1, 23040, Note_off_c, 9, 43, 64
1, 23040, Note_off_c, 9, 44, 64
1, 23040, Note_on_c, 9, 44, 80
1, 23040, Note_on_c, 9, 38, 80
1, 23520, Note_off_c, 9, 44, 64
1, 23520, Note_off_c, 9, 38, 64
1, 23520, Note_on_c, 9, 45, 80
1, 23520, Note_on_c, 9, 44, 80
1, 23760, Note_off_c, 9, 45, 64
1, 23760, Note_off_c, 9, 44, 64
1, 23760, Note_on_c, 9, 43, 80
1, 24000, Note_off_c, 9, 43, 64
1, 24000, Note_on_c, 9, 49, 80
1, 24000, Note_on_c, 9, 35, 80
1, 24240, Note_off_c, 9, 49, 64
1, 24240, Note_off_c, 9, 35, 64
1, 24240, Note_on_c, 9, 42, 80
1, 24480, Note_off_c, 9, 42, 64
1, 24480, Note_on_c, 9, 42, 80
1, 24480, Note_on_c, 9, 38, 80
1, 24720, Note_off_c, 9, 42, 64
1, 24720, Note_off_c, 9, 38, 64
1, 24720, Note_on_c, 9, 42, 80
1, 24960, Note_off_c, 9, 42, 64
1, 24960, Note_on_c, 9, 42, 80
1, 24960, Note_on_c, 9, 35, 80
1, 25200, Note_off_c, 9, 42, 64
1, 25200, Note_off_c, 9, 35, 64
1, 25200, Note_on_c, 9, 42, 80
1, 25440, Note_off_c, 9, 42, 64
1, 25440, Note_on_c, 9, 42, 80
1, 25440, Note_on_c, 9, 38, 80
1, 25680, Note_off_c, 9, 42, 64
1, 25680, Note_off_c, 9, 38, 64
1, 25680, Note_on_c, 9, 42, 80
1, 25920, Note_off_c, 9, 42, 64
1, 25920, Note_on_c, 9, 42, 80
1, 25920, Note_on_c, 9, 35, 80
1, 26160, Note_off_c, 9, 42, 64
1, 26160, Note_off_c, 9, 35, 64
1, 26160, Note_on_c, 9, 42, 80
1, 26400, Note_off_c, 9, 42, 64
1, 26400, Note_on_c, 9, 42, 80
1, 26400, Note_on_c, 9, 38, 80
1, 26640, Note_off_c, 9, 42, 64
1, 26640, Note_off_c, 9, 38, 64
1, 26640, Note_on_c, 9, 42, 80
1, 26880, Note_off_c, 9, 42, 64
1, 26880, Note_on_c, 9, 42, 80
1, 26880, Note_on_c, 9, 35, 80
1, 27120, Note_off_c, 9, 42, 64
1, 27120, Note_off_c, 9, 35, 64
1, 27120, Note_on_c, 9, 42, 80
1, 27360, Note_off_c, 9, 42, 64
1, 27360, Note_on_c, 9, 42, 80
1, 27360, Note_on_c, 9, 38, 80
1, 27600, Note_off_c, 9, 42, 64
1, 27600, Note_off_c, 9, 38, 64
1, 27600, Note_on_c, 9, 42, 80
1, 27840, Note_off_c, 9, 42, 64
1, 27840, Note_on_c, 9, 49, 80
1, 27840, Note_on_c, 9, 35, 80
1, 28080, Note_off_c, 9, 49, 64
1, 28080, Note_off_c, 9, 35, 64
1, 28080, Note_on_c, 9, 42, 80
1, 28320, Note_off_c, 9, 42, 64
1, 28320, Note_on_c, 9, 42, 80
1, 28320, Note_on_c, 9, 38, 80
1, 28560, Note_off_c, 9, 42, 64
1, 28560, Note_off_c, 9, 38, 64
1, 28560, Note_on_c, 9, 42, 80
1, 28800, Note_off_c, 9, 42, 64
1, 28800, Note_on_c, 9, 42, 80
1, 28800, Note_on_c, 9, 35, 80
1, 29040, Note_off_c, 9, 42, 64
1, 29040, Note_off_c, 9, 35, 64
1, 29040, Note_on_c, 9, 42, 80
1, 29280, Note_off_c, 9, 42, 64
1, 29280, Note_on_c, 9, 42, 80
1, 29280, Note_on_c, 9, 38, 80
1, 29520, Note_off_c, 9, 42, 64
1, 29520, Note_off_c, 9, 38, 64
1, 29520, Note_on_c, 9, 42, 80
1, 29760, Note_off_c, 9, 42, 64
1, 29760, Note_on_c, 9, 42, 80
1, 29760, Note_on_c, 9, 35, 80
1, 30000, Note_off_c, 9, 42, 64
1, 30000, Note_off_c, 9, 35, 64
1, 30000, Note_on_c, 9, 42, 80
1, 30240, Note_off_c, 9, 42, 64
1, 30240, Note_on_c, 9, 42, 80
1, 30240, Note_on_c, 9, 38, 80
1, 30480, Note_off_c, 9, 42, 64
1, 30480, Note_off_c, 9, 38, 64
1, 30480, Note_on_c, 9, 42, 80
1, 30720, Note_off_c, 9, 42, 64
1, 30720, Note_on_c, 9, 42, 80
1, 30720, Note_on_c, 9, 35, 80
1, 30960, Note_off_c, 9, 42, 64
1, 30960, Note_off_c, 9, 35, 64
1, 30960, Note_on_c, 9, 42, 80
1, 31200, Note_off_c, 9, 42, 64
1, 31200, Note_on_c, 9, 42, 80
1, 31200, Note_on_c, 9, 38, 80
1, 31440, Note_off_c, 9, 42, 64
1, 31440, Note_off_c, 9, 38, 64
1, 31440, Note_on_c, 9, 42, 80
1, 31680, Note_off_c, 9, 42, 64
1, 31680, Note_on_c, 9, 49, 80
1, 31680, Note_on_c, 9, 35, 80
1, 31920, Note_off_c, 9, 49, 64
1, 31920, Note_off_c, 9, 35, 64
1, 31920, Note_on_c, 9, 42, 80
1, 32160, Note_off_c, 9, 42, 64
1, 32160, Note_on_c, 9, 42, 80
1, 32160, Note_on_c, 9, 38, 80
1, 32400, Note_off_c, 9, 42, 64
1, 32400, Note_off_c, 9, 38, 64
1, 32400, Note_on_c, 9, 42, 80
1, 32640, Note_off_c, 9, 42, 64
1, 32640, Note_on_c, 9, 42, 80
1, 32640, Note_on_c, 9, 35, 80
1, 32880, Note_off_c, 9, 42, 64
1, 32880, Note_off_c, 9, 35, 64
1, 32880, Note_on_c, 9, 42, 80
1, 33120, Note_off_c, 9, 42, 64
1, 33120, Note_on_c, 9, 42, 80
1, 33120, Note_on_c, 9, 38, 80
1, 33360, Note_off_c, 9, 42, 64
1, 33360, Note_off_c, 9, 38, 64
1, 33360, Note_on_c, 9, 42, 80
1, 33600, Note_off_c, 9, 42, 64
1, 33600, Note_on_c, 9, 42, 80
1, 33600, Note_on_c, 9, 35, 80
1, 33840, Note_off_c, 9, 42, 64
1, 33840, Note_off_c, 9, 35, 64
1, 33840, Note_on_c, 9, 42, 80
1, 34080, Note_off_c, 9, 42, 64
1, 34080, Note_on_c, 9, 42, 80
1, 34080, Note_on_c, 9, 38, 80
1, 34320, Note_off_c, 9, 42, 64
1, 34320, Note_off_c, 9, 38, 64
1, 34320, Note_on_c, 9, 42, 80
1, 34560, Note_off_c, 9, 42, 64
1, 34560, Note_on_c, 9, 42, 80
1, 34560, Note_on_c, 9, 35, 80
1, 34800, Note_off_c, 9, 42, 64
1, 34800, Note_off_c, 9, 35, 64
1, 34800, Note_on_c, 9, 42, 80
1, 35040, Note_off_c, 9, 42, 64
1, 35040, Note_on_c, 9, 42, 80
1, 35040, Note_on_c, 9, 38, 80
1, 35280, Note_off_c, 9, 42, 64
1, 35280, Note_off_c, 9, 38, 64
1, 35280, Note_on_c, 9, 42, 80
1, 35520, Note_off_c, 9, 42, 64
1, 35520, Note_on_c, 9, 49, 80
1, 35520, Note_on_c, 9, 35, 80
1, 35760, Note_off_c, 9, 49, 64
1, 35760, Note_off_c, 9, 35, 64
1, 35760, Note_on_c, 9, 42, 80
1, 36000, Note_off_c, 9, 42, 64
1, 36000, Note_on_c, 9, 42, 80
1, 36000, Note_on_c, 9, 35, 80
1, 36240, Note_off_c, 9, 42, 64
1, 36240, Note_off_c, 9, 35, 64
1, 36240, Note_on_c, 9, 42, 80
1, 36240, Note_on_c, 9, 38, 80
1, 36480, Note_off_c, 9, 42, 64
1, 36480, Note_off_c, 9, 38, 64
1, 36480, Note_on_c, 9, 42, 80
1, 36480, Note_on_c, 9, 35, 80
1, 36720, Note_off_c, 9, 42, 64
1, 36720, Note_off_c, 9, 35, 64
1, 36720, Note_on_c, 9, 42, 80
1, 36960, Note_off_c, 9, 42, 64
1, 36960, Note_on_c, 9, 49, 80
1, 36960, Note_on_c, 9, 38, 80
1, 37200, Note_off_c, 9, 49, 64
1, 37200, Note_off_c, 9, 38, 64
1, 37200, Note_on_c, 9, 42, 80
1, 37440, Note_off_c, 9, 42, 64
1, 37440, Note_on_c, 9, 42, 80
1, 37440, Note_on_c, 9, 35, 80
1, 37680, Note_off_c, 9, 42, 64
1, 37680, Note_off_c, 9, 35, 64
1, 37680, Note_on_c, 9, 42, 80
1, 37680, Note_on_c, 9, 38, 80
1, 37920, Note_off_c, 9, 42, 64
1, 37920, Note_off_c, 9, 38, 64
1, 37920, Note_on_c, 9, 42, 80
1, 37920, Note_on_c, 9, 35, 80
1, 38160, Note_off_c, 9, 42, 64
1, 38160, Note_off_c, 9, 35, 64
1, 38160, Note_on_c, 9, 42, 80
1, 38400, Note_off_c, 9, 42, 64
1, 38400, Note_on_c, 9, 42, 80
1, 38400, Note_on_c, 9, 38, 80
1, 38640, Note_off_c, 9, 42, 64
1, 38640, Note_off_c, 9, 38, 64
1, 38640, Note_on_c, 9, 42, 80
1, 38880, Note_off_c, 9, 42, 64
1, 38880, Note_on_c, 9, 38, 80
1, 39120, Note_off_c, 9, 38, 64
1, 39360, Note_on_c, 9, 49, 80
1, 39360, Note_on_c, 9, 35, 80
1, 39600, Note_off_c, 9, 49, 64
1, 39600, Note_off_c, 9, 35, 64
1, 39600, Note_on_c, 9, 42, 80
1, 39840, Note_off_c, 9, 42, 64
1, 39840, Note_on_c, 9, 42, 80
1, 39840, Note_on_c, 9, 38, 80
1, 40080, Note_off_c, 9, 42, 64
1, 40080, Note_off_c, 9, 38, 64
1, 40080, Note_on_c, 9, 42, 80
1, 40320, Note_off_c, 9, 42, 64
1, 40320, Note_on_c, 9, 42, 80
1, 40320, Note_on_c, 9, 35, 80
1, 40560, Note_off_c, 9, 42, 64
1, 40560, Note_off_c, 9, 35, 64
1, 40560, Note_on_c, 9, 42, 80
1, 40800, Note_off_c, 9, 42, 64
1, 40800, Note_on_c, 9, 42, 80
1, 40800, Note_on_c, 9, 38, 80
1, 41040, Note_off_c, 9, 42, 64
1, 41040, Note_off_c, 9, 38, 64
1, 41040, Note_on_c, 9, 42, 80
1, 41280, Note_off_c, 9, 42, 64
1, 41280, Note_on_c, 9, 42, 80
1, 41280, Note_on_c, 9, 35, 80
1, 41520, Note_off_c, 9, 42, 64
1, 41520, Note_off_c, 9, 35, 64
1, 41520, Note_on_c, 9, 42, 80
1, 41760, Note_off_c, 9, 42, 64
1, 41760, Note_on_c, 9, 42, 80
1, 41760, Note_on_c, 9, 38, 80
1, 42000, Note_off_c, 9, 42, 64
1, 42000, Note_off_c, 9, 38, 64
1, 42000, Note_on_c, 9, 42, 80
1, 42240, Note_off_c, 9, 42, 64
1, 42240, Note_on_c, 9, 42, 80
1, 42240, Note_on_c, 9, 35, 80
1, 42480, Note_off_c, 9, 42, 64
1, 42480, Note_off_c, 9, 35, 64
1, 42480, Note_on_c, 9, 42, 80
1, 42720, Note_off_c, 9, 42, 64
1, 42720, Note_on_c, 9, 42, 80
1, 42720, Note_on_c, 9, 38, 80
1, 42960, Note_off_c, 9, 42, 64
1, 42960, Note_off_c, 9, 38, 64
1, 42960, Note_on_c, 9, 42, 80
1, 43200, Note_off_c, 9, 42, 64
1, 43200, Note_on_c, 9, 42, 80
1, 43200, Note_on_c, 9, 35, 80
1, 43440, Note_off_c, 9, 42, 64
1, 43440, Note_off_c, 9, 35, 64
1, 43440, Note_on_c, 9, 42, 80
1, 43680, Note_off_c, 9, 42, 64
1, 43680, Note_on_c, 9, 42, 80
1, 43680, Note_on_c, 9, 38, 80
1, 43920, Note_off_c, 9, 42, 64
1, 43920, Note_off_c, 9, 38, 64
1, 43920, Note_on_c, 9, 42, 80
1, 44160, Note_off_c, 9, 42, 64
1, 44160, Note_on_c, 9, 42, 80
1, 44160, Note_on_c, 9, 35, 80
1, 44400, Note_off_c, 9, 42, 64
1, 44400, Note_off_c, 9, 35, 64
1, 44400, Note_on_c, 9, 42, 80
1, 44640, Note_off_c, 9, 42, 64
1, 44640, Note_on_c, 9, 42, 80
1, 44640, Note_on_c, 9, 38, 80
1, 44880, Note_off_c, 9, 42, 64
1, 44880, Note_off_c, 9, 38, 64
1, 44880, Note_on_c, 9, 42, 80
1, 45120, Note_off_c, 9, 42, 64
1, 45120, Note_on_c, 9, 42, 80
1, 45120, Note_on_c, 9, 35, 80
1, 45360, Note_off_c, 9, 42, 64
1, 45360, Note_off_c, 9, 35, 64
1, 45360, Note_on_c, 9, 42, 80
1, 45600, Note_off_c, 9, 42, 64
1, 45600, Note_on_c, 9, 42, 80
1, 45600, Note_on_c, 9, 38, 80
1, 45840, Note_off_c, 9, 42, 64
1, 45840, Note_off_c, 9, 38, 64
1, 45840, Note_on_c, 9, 42, 80
1, 46080, Note_off_c, 9, 42, 64
1, 46080, Note_on_c, 9, 42, 80
1, 46080, Note_on_c, 9, 35, 80
1, 46320, Note_off_c, 9, 42, 64
1, 46320, Note_off_c, 9, 35, 64
1, 46320, Note_on_c, 9, 42, 80
1, 46560, Note_off_c, 9, 42, 64
1, 46560, Note_on_c, 9, 42, 80
1, 46560, Note_on_c, 9, 38, 80
1, 46800, Note_off_c, 9, 42, 64
1, 46800, Note_off_c, 9, 38, 64
1, 46800, Note_on_c, 9, 42, 80
1, 47040, Note_off_c, 9, 42, 64
1, 47040, Note_on_c, 9, 42, 80
1, 47040, Note_on_c, 9, 35, 80
1, 47280, Note_off_c, 9, 42, 64
1, 47280, Note_off_c, 9, 35, 64
1, 47280, Note_on_c, 9, 42, 80
1, 47520, Note_off_c, 9, 42, 64
1, 47520, Note_on_c, 9, 42, 80
1, 47520, Note_on_c, 9, 38, 80
1, 47760, Note_off_c, 9, 42, 64
1, 47760, Note_off_c, 9, 38, 64
1, 47760, Note_on_c, 9, 42, 80
1, 48000, Note_off_c, 9, 42, 64
1, 48000, Note_on_c, 9, 42, 80
1, 48000, Note_on_c, 9, 35, 80
1, 48240, Note_off_c, 9, 42, 64
1, 48240, Note_off_c, 9, 35, 64
1, 48240, Note_on_c, 9, 42, 80
1, 48480, Note_off_c, 9, 42, 64
1, 48480, Note_on_c, 9, 42, 80
1, 48480, Note_on_c, 9, 38, 80
1, 48720, Note_off_c, 9, 42, 64
1, 48720, Note_off_c, 9, 38, 64
1, 48720, Note_on_c, 9, 42, 80
1, 48960, Note_off_c, 9, 42, 64
1, 48960, Note_on_c, 9, 42, 80
1, 48960, Note_on_c, 9, 35, 80
1, 49200, Note_off_c, 9, 42, 64
1, 49200, Note_off_c, 9, 35, 64
1, 49200, Note_on_c, 9, 42, 80
1, 49440, Note_off_c, 9, 42, 64
1, 49440, Note_on_c, 9, 42, 80
1, 49440, Note_on_c, 9, 38, 80
1, 49680, Note_off_c, 9, 42, 64
1, 49680, Note_off_c, 9, 38, 64
1, 49680, Note_on_c, 9, 42, 80
1, 49920, Note_off_c, 9, 42, 64
1, 49920, Note_on_c, 9, 42, 80
1, 49920, Note_on_c, 9, 35, 80
1, 50160, Note_off_c, 9, 42, 64
1, 50160, Note_off_c, 9, 35, 64
1, 50160, Note_on_c, 9, 42, 80
1, 50400, Note_off_c, 9, 42, 64
1, 50400, Note_on_c, 9, 42, 80
1, 50400, Note_on_c, 9, 38, 80
1, 50640, Note_off_c, 9, 42, 64
1, 50640, Note_off_c, 9, 38, 64
1, 50640, Note_on_c, 9, 42, 80
1, 50880, Note_off_c, 9, 42, 64
1, 50880, Note_on_c, 9, 42, 80
1, 50880, Note_on_c, 9, 35, 80
1, 51120, Note_off_c, 9, 42, 64
1, 51120, Note_off_c, 9, 35, 64
1, 51120, Note_on_c, 9, 42, 80
1, 51360, Note_off_c, 9, 42, 64
1, 51360, Note_on_c, 9, 42, 80
1, 51360, Note_on_c, 9, 38, 80
1, 51600, Note_off_c, 9, 42, 64
1, 51600, Note_off_c, 9, 38, 64
1, 51600, Note_on_c, 9, 42, 80
1, 51840, Note_off_c, 9, 42, 64
1, 51840, Note_on_c, 9, 42, 80
1, 51840, Note_on_c, 9, 35, 80
1, 52080, Note_off_c, 9, 42, 64
1, 52080, Note_off_c, 9, 35, 64
1, 52080, Note_on_c, 9, 42, 80
1, 52320, Note_off_c, 9, 42, 64
1, 52320, Note_on_c, 9, 42, 80
1, 52320, Note_on_c, 9, 38, 80
1, 52560, Note_off_c, 9, 42, 64
1, 52560, Note_off_c, 9, 38, 64
1, 52560, Note_on_c, 9, 42, 80
1, 52800, Note_off_c, 9, 42, 64
1, 52800, Note_on_c, 9, 42, 80
1, 52800, Note_on_c, 9, 35, 80
1, 53040, Note_off_c, 9, 42, 64
1, 53040, Note_off_c, 9, 35, 64
1, 53040, Note_on_c, 9, 42, 80
1, 53280, Note_off_c, 9, 42, 64
1, 53280, Note_on_c, 9, 42, 80
1, 53280, Note_on_c, 9, 38, 80
1, 53520, Note_off_c, 9, 42, 64
1, 53520, Note_off_c, 9, 38, 64
1, 53520, Note_on_c, 9, 42, 80
1, 53760, Note_off_c, 9, 42, 64
1, 53760, Note_on_c, 9, 42, 80
1, 53760, Note_on_c, 9, 35, 80
1, 54000, Note_off_c, 9, 42, 64
1, 54000, Note_off_c, 9, 35, 64
1, 54000, Note_on_c, 9, 42, 80
1, 54240, Note_off_c, 9, 42, 64
1, 54240, Note_on_c, 9, 42, 80
1, 54240, Note_on_c, 9, 38, 80
1, 54480, Note_off_c, 9, 42, 64
1, 54480, Note_off_c, 9, 38, 64
1, 54480, Note_on_c, 9, 42, 80
1, 54720, Note_off_c, 9, 42, 64
1, 54720, Note_on_c, 9, 49, 80
1, 54720, Note_on_c, 9, 35, 80
1, 54960, Note_off_c, 9, 49, 64
1, 54960, Note_off_c, 9, 35, 64
1, 54960, Note_on_c, 9, 42, 80
1, 55200, Note_off_c, 9, 42, 64
1, 55200, Note_on_c, 9, 42, 80
1, 55200, Note_on_c, 9, 38, 80
1, 55440, Note_off_c, 9, 42, 64
1, 55440, Note_off_c, 9, 38, 64
1, 55440, Note_on_c, 9, 49, 80
1, 55440, Note_on_c, 9, 38, 80
1, 55680, Note_off_c, 9, 49, 64
1, 55680, Note_off_c, 9, 38, 64
1, 55680, Note_on_c, 9, 42, 80
1, 55680, Note_on_c, 9, 35, 80
1, 55920, Note_off_c, 9, 42, 64
1, 55920, Note_off_c, 9, 35, 64
1, 55920, Note_on_c, 9, 42, 80
1, 56160, Note_off_c, 9, 42, 64
1, 56160, Note_on_c, 9, 49, 80
1, 56160, Note_on_c, 9, 38, 80
1, 56400, Note_off_c, 9, 49, 64
1, 56400, Note_off_c, 9, 38, 64
1, 56400, Note_on_c, 9, 42, 80
1, 56640, Note_off_c, 9, 42, 64
1, 56640, Note_on_c, 9, 42, 80
1, 56640, Note_on_c, 9, 35, 80
1, 56880, Note_off_c, 9, 42, 64
1, 56880, Note_off_c, 9, 35, 64
1, 56880, Note_on_c, 9, 42, 80
1, 57120, Note_off_c, 9, 42, 64
1, 57120, Note_on_c, 9, 42, 80
1, 57120, Note_on_c, 9, 38, 80
1, 57360, Note_off_c, 9, 42, 64
1, 57360, Note_off_c, 9, 38, 64
1, 57360, Note_on_c, 9, 42, 80
1, 57600, Note_off_c, 9, 42, 64
1, 57600, Note_on_c, 9, 42, 80
1, 57600, Note_on_c, 9, 35, 80
1, 57840, Note_off_c, 9, 42, 64
1, 57840, Note_off_c, 9, 35, 64
1, 57840, Note_on_c, 9, 42, 80
1, 58080, Note_off_c, 9, 42, 64
1, 58080, Note_on_c, 9, 42, 80
1, 58080, Note_on_c, 9, 38, 80
1, 58320, Note_off_c, 9, 42, 64
1, 58320, Note_off_c, 9, 38, 64
1, 58320, Note_on_c, 9, 42, 80
1, 58560, Note_off_c, 9, 42, 64
1, 58560, Note_on_c, 9, 49, 80
1, 58560, Note_on_c, 9, 35, 80
1, 58800, Note_off_c, 9, 49, 64
1, 58800, Note_off_c, 9, 35, 64
1, 58800, Note_on_c, 9, 42, 80
1, 59040, Note_off_c, 9, 42, 64
1, 59040, Note_on_c, 9, 42, 80
1, 59040, Note_on_c, 9, 38, 80
1, 59280, Note_off_c, 9, 42, 64
1, 59280, Note_off_c, 9, 38, 64
1, 59280, Note_on_c, 9, 49, 80
1, 59280, Note_on_c, 9, 38, 80
1, 59520, Note_off_c, 9, 49, 64
1, 59520, Note_off_c, 9, 38, 64
1, 59520, Note_on_c, 9, 42, 80
1, 59520, Note_on_c, 9, 35, 80
1, 59760, Note_off_c, 9, 42, 64
1, 59760, Note_off_c, 9, 35, 64
1, 59760, Note_on_c, 9, 42, 80
1, 60000, Note_off_c, 9, 42, 64
1, 60000, Note_on_c, 9, 49, 80
1, 60000, Note_on_c, 9, 38, 80
1, 60240, Note_off_c, 9, 49, 64
1, 60240, Note_off_c, 9, 38, 64
1, 60240, Note_on_c, 9, 42, 80
1, 60480, Note_off_c, 9, 42, 64
1, 60480, Note_on_c, 9, 42, 80
1, 60480, Note_on_c, 9, 35, 80
1, 60720, Note_off_c, 9, 42, 64
1, 60720, Note_off_c, 9, 35, 64
1, 60720, Note_on_c, 9, 42, 80
1, 60960, Note_off_c, 9, 42, 64
1, 60960, Note_on_c, 9, 42, 80
1, 60960, Note_on_c, 9, 38, 80
1, 61200, Note_off_c, 9, 42, 64
1, 61200, Note_off_c, 9, 38, 64
1, 61200, Note_on_c, 9, 42, 80
1, 61440, Note_off_c, 9, 42, 64
1, 61440, Note_on_c, 9, 42, 80
1, 61440, Note_on_c, 9, 35, 80
1, 61680, Note_off_c, 9, 42, 64
1, 61680, Note_off_c, 9, 35, 64
1, 61680, Note_on_c, 9, 42, 80
1, 61920, Note_off_c, 9, 42, 64
1, 61920, Note_on_c, 9, 42, 80
1, 61920, Note_on_c, 9, 38, 80
1, 62160, Note_off_c, 9, 42, 64
1, 62160, Note_off_c, 9, 38, 64
1, 62160, Note_on_c, 9, 42, 80
1, 62400, Note_off_c, 9, 42, 64
1, 62400, Note_on_c, 9, 49, 80
1, 62400, Note_on_c, 9, 35, 80
1, 62640, Note_off_c, 9, 49, 64
1, 62640, Note_off_c, 9, 35, 64
1, 62640, Note_on_c, 9, 42, 80
1, 62880, Note_off_c, 9, 42, 64
1, 62880, Note_on_c, 9, 42, 80
1, 62880, Note_on_c, 9, 38, 80
1, 63120, Note_off_c, 9, 42, 64
1, 63120, Note_off_c, 9, 38, 64
1, 63120, Note_on_c, 9, 49, 80
1, 63120, Note_on_c, 9, 38, 80
1, 63360, Note_off_c, 9, 49, 64
1, 63360, Note_off_c, 9, 38, 64
1, 63360, Note_on_c, 9, 42, 80
1, 63360, Note_on_c, 9, 35, 80
1, 63600, Note_off_c, 9, 42, 64
1, 63600, Note_off_c, 9, 35, 64
1, 63600, Note_on_c, 9, 42, 80
1, 63840, Note_off_c, 9, 42, 64
1, 63840, Note_on_c, 9, 49, 80
1, 63840, Note_on_c, 9, 38, 80
1, 64080, Note_off_c, 9, 49, 64
1, 64080, Note_off_c, 9, 38, 64
1, 64080, Note_on_c, 9, 42, 80
1, 64320, Note_off_c, 9, 42, 64
1, 64320, Note_on_c, 9, 42, 80
1, 64320, Note_on_c, 9, 35, 80
1, 64560, Note_off_c, 9, 42, 64
1, 64560, Note_off_c, 9, 35, 64
1, 64560, Note_on_c, 9, 42, 80
1, 64800, Note_off_c, 9, 42, 64
1, 64800, Note_on_c, 9, 42, 80
1, 64800, Note_on_c, 9, 38, 80
1, 65040, Note_off_c, 9, 42, 64
1, 65040, Note_off_c, 9, 38, 64
1, 65040, Note_on_c, 9, 42, 80
1, 65280, Note_off_c, 9, 42, 64
1, 65280, Note_on_c, 9, 42, 80
1, 65280, Note_on_c, 9, 35, 80
1, 65520, Note_off_c, 9, 42, 64
1, 65520, Note_off_c, 9, 35, 64
1, 65520, Note_on_c, 9, 42, 80
1, 65760, Note_off_c, 9, 42, 64
1, 65760, Note_on_c, 9, 42, 80
1, 65760, Note_on_c, 9, 38, 80
1, 66000, Note_off_c, 9, 42, 64
1, 66000, Note_off_c, 9, 38, 64
1, 66000, Note_on_c, 9, 42, 80
1, 66240, Note_off_c, 9, 42, 64
1, 66240, Note_on_c, 9, 42, 80
1, 66240, Note_on_c, 9, 35, 80
1, 66480, Note_off_c, 9, 42, 64
1, 66480, Note_off_c, 9, 35, 64
1, 66480, Note_on_c, 9, 42, 80
1, 66480, Note_on_c, 9, 38, 80
1, 66720, Note_off_c, 9, 42, 64
1, 66720, Note_off_c, 9, 38, 64
1, 66720, Note_on_c, 9, 42, 80
1, 66720, Note_on_c, 9, 38, 80
1, 66960, Note_off_c, 9, 42, 64
1, 66960, Note_off_c, 9, 38, 64
1, 66960, Note_on_c, 9, 42, 80
1, 66960, Note_on_c, 9, 35, 80
1, 67200, Note_off_c, 9, 42, 64
1, 67200, Note_off_c, 9, 35, 64
1, 67200, Note_on_c, 9, 42, 80
1, 67200, Note_on_c, 9, 38, 80
1, 67440, Note_off_c, 9, 42, 64
1, 67440, Note_off_c, 9, 38, 64
1, 67440, Note_on_c, 9, 42, 80
1, 67440, Note_on_c, 9, 38, 80
1, 67680, Note_off_c, 9, 42, 64
1, 67680, Note_off_c, 9, 38, 64
1, 67680, Note_on_c, 9, 42, 80
1, 67680, Note_on_c, 9, 35, 80
1, 67920, Note_off_c, 9, 42, 64
1, 67920, Note_off_c, 9, 35, 64
1, 67920, Note_on_c, 9, 42, 80
1, 67920, Note_on_c, 9, 38, 80
1, 68160, Note_off_c, 9, 42, 64
1, 68160, Note_off_c, 9, 38, 64
1, 68160, Note_on_c, 9, 42, 80
1, 68160, Note_on_c, 9, 38, 80
1, 68400, Note_off_c, 9, 42, 64
1, 68400, Note_off_c, 9, 38, 64
1, 68400, Note_on_c, 9, 42, 80
1, 68400, Note_on_c, 9, 35, 80
1, 68640, Note_off_c, 9, 42, 64
1, 68640, Note_off_c, 9, 35, 64
1, 68640, Note_on_c, 9, 42, 80
1, 68640, Note_on_c, 9, 38, 80
1, 68880, Note_off_c, 9, 42, 64
1, 68880, Note_off_c, 9, 38, 64
1, 68880, Note_on_c, 9, 42, 80
1, 68880, Note_on_c, 9, 35, 80
1, 69120, Note_off_c, 9, 42, 64
1, 69120, Note_off_c, 9, 35, 64
1, 69120, Note_on_c, 9, 38, 80
1, 69360, Note_off_c, 9, 38, 64
1, 69360, Note_on_c, 9, 35, 80
1, 69600, Note_off_c, 9, 35, 64
1, 69600, Note_on_c, 9, 38, 80
1, 69840, Note_off_c, 9, 38, 64
1, 69840, Note_on_c, 9, 35, 80
1, 70080, Note_off_c, 9, 35, 64
1, 70080, Note_on_c, 9, 49, 80
1, 70080, Note_on_c, 9, 35, 80
1, 70320, Note_off_c, 9, 49, 64
1, 70320, Note_off_c, 9, 35, 64
1, 70320, Note_on_c, 9, 42, 80
1, 70560, Note_off_c, 9, 42, 64
1, 70560, Note_on_c, 9, 42, 80
1, 70560, Note_on_c, 9, 38, 80
1, 70800, Note_off_c, 9, 42, 64
1, 70800, Note_off_c, 9, 38, 64
1, 70800, Note_on_c, 9, 42, 80
1, 71040, Note_off_c, 9, 42, 64
1, 71040, Note_on_c, 9, 42, 80
1, 71040, Note_on_c, 9, 35, 80
1, 71280, Note_off_c, 9, 42, 64
1, 71280, Note_off_c, 9, 35, 64
1, 71280, Note_on_c, 9, 42, 80
1, 71520, Note_off_c, 9, 42, 64
1, 71520, Note_on_c, 9, 42, 80
1, 71520, Note_on_c, 9, 38, 80
1, 71760, Note_off_c, 9, 42, 64
1, 71760, Note_off_c, 9, 38, 64
1, 71760, Note_on_c, 9, 42, 80
1, 72000, Note_off_c, 9, 42, 64
1, 72000, Note_on_c, 9, 42, 80
1, 72000, Note_on_c, 9, 35, 80
1, 72240, Note_off_c, 9, 42, 64
1, 72240, Note_off_c, 9, 35, 64
1, 72240, Note_on_c, 9, 42, 80
1, 72480, Note_off_c, 9, 42, 64
1, 72480, Note_on_c, 9, 42, 80
1, 72480, Note_on_c, 9, 38, 80
1, 72720, Note_off_c, 9, 42, 64
1, 72720, Note_off_c, 9, 38, 64
1, 72720, Note_on_c, 9, 42, 80
1, 72960, Note_off_c, 9, 42, 64
1, 72960, Note_on_c, 9, 42, 80
1, 72960, Note_on_c, 9, 35, 80
1, 73200, Note_off_c, 9, 42, 64
1, 73200, Note_off_c, 9, 35, 64
1, 73200, Note_on_c, 9, 42, 80
1, 73440, Note_off_c, 9, 42, 64
1, 73440, Note_on_c, 9, 42, 80
1, 73440, Note_on_c, 9, 38, 80
1, 73680, Note_off_c, 9, 42, 64
1, 73680, Note_off_c, 9, 38, 64
1, 73680, Note_on_c, 9, 42, 80
1, 73920, Note_off_c, 9, 42, 64
1, 73920, Note_on_c, 9, 42, 80
1, 73920, Note_on_c, 9, 35, 80
1, 74160, Note_off_c, 9, 42, 64
1, 74160, Note_off_c, 9, 35, 64
1, 74160, Note_on_c, 9, 42, 80
1, 74400, Note_off_c, 9, 42, 64
1, 74400, Note_on_c, 9, 42, 80
1, 74400, Note_on_c, 9, 38, 80
1, 74640, Note_off_c, 9, 42, 64
1, 74640, Note_off_c, 9, 38, 64
1, 74640, Note_on_c, 9, 42, 80
1, 74880, Note_off_c, 9, 42, 64
1, 74880, Note_on_c, 9, 42, 80
1, 74880, Note_on_c, 9, 35, 80
1, 75120, Note_off_c, 9, 42, 64
1, 75120, Note_off_c, 9, 35, 64
1, 75120, Note_on_c, 9, 42, 80
1, 75360, Note_off_c, 9, 42, 64
1, 75360, Note_on_c, 9, 42, 80
1, 75360, Note_on_c, 9, 38, 80
1, 75600, Note_off_c, 9, 42, 64
1, 75600, Note_off_c, 9, 38, 64
1, 75600, Note_on_c, 9, 42, 80
1, 75840, Note_off_c, 9, 42, 64
1, 75840, Note_on_c, 9, 42, 80
1, 75840, Note_on_c, 9, 35, 80
1, 76080, Note_off_c, 9, 42, 64
1, 76080, Note_off_c, 9, 35, 64
1, 76080, Note_on_c, 9, 42, 80
1, 76320, Note_off_c, 9, 42, 64
1, 76320, Note_on_c, 9, 42, 80
1, 76320, Note_on_c, 9, 38, 80
1, 76560, Note_off_c, 9, 42, 64
1, 76560, Note_off_c, 9, 38, 64
1, 76560, Note_on_c, 9, 42, 80
1, 76800, Note_off_c, 9, 42, 64
1, 76800, Note_on_c, 9, 42, 80
1, 76800, Note_on_c, 9, 35, 80
1, 77040, Note_off_c, 9, 42, 64
1, 77040, Note_off_c, 9, 35, 64
1, 77040, Note_on_c, 9, 42, 80
1, 77280, Note_off_c, 9, 42, 64
1, 77280, Note_on_c, 9, 42, 80
1, 77280, Note_on_c, 9, 38, 80
1, 77520, Note_off_c, 9, 42, 64
1, 77520, Note_off_c, 9, 38, 64
1, 77520, Note_on_c, 9, 42, 80
1, 77760, Note_off_c, 9, 42, 64
1, 77760, Note_on_c, 9, 49, 80
1, 77760, Note_on_c, 9, 35, 80
1, 78000, Note_off_c, 9, 49, 64
1, 78000, Note_off_c, 9, 35, 64
1, 78000, Note_on_c, 9, 42, 80
1, 78240, Note_off_c, 9, 42, 64
1, 78240, Note_on_c, 9, 42, 80
1, 78240, Note_on_c, 9, 38, 80
1, 78480, Note_off_c, 9, 42, 64
1, 78480, Note_off_c, 9, 38, 64
1, 78480, Note_on_c, 9, 42, 80
1, 78720, Note_off_c, 9, 42, 64
1, 78720, Note_on_c, 9, 42, 80
1, 78720, Note_on_c, 9, 35, 80
1, 78960, Note_off_c, 9, 42, 64
1, 78960, Note_off_c, 9, 35, 64
1, 78960, Note_on_c, 9, 42, 80
1, 79200, Note_off_c, 9, 42, 64
1, 79200, Note_on_c, 9, 42, 80
1, 79200, Note_on_c, 9, 38, 80
1, 79440, Note_off_c, 9, 42, 64
1, 79440, Note_off_c, 9, 38, 64
1, 79440, Note_on_c, 9, 42, 80
1, 79680, Note_off_c, 9, 42, 64
1, 79680, Note_on_c, 9, 42, 80
1, 79680, Note_on_c, 9, 35, 80
1, 79920, Note_off_c, 9, 42, 64
1, 79920, Note_off_c, 9, 35, 64
1, 79920, Note_on_c, 9, 42, 80
1, 80160, Note_off_c, 9, 42, 64
1, 80160, Note_on_c, 9, 42, 80
1, 80160, Note_on_c, 9, 38, 80
1, 80400, Note_off_c, 9, 42, 64
1, 80400, Note_off_c, 9, 38, 64
1, 80400, Note_on_c, 9, 42, 80
1, 80640, Note_off_c, 9, 42, 64
1, 80640, Note_on_c, 9, 42, 80
1, 80640, Note_on_c, 9, 35, 80
1, 80880, Note_off_c, 9, 42, 64
1, 80880, Note_off_c, 9, 35, 64
1, 80880, Note_on_c, 9, 42, 80
1, 81120, Note_off_c, 9, 42, 64
1, 81120, Note_on_c, 9, 42, 80
1, 81120, Note_on_c, 9, 38, 80
1, 81360, Note_off_c, 9, 42, 64
1, 81360, Note_off_c, 9, 38, 64
1, 81360, Note_on_c, 9, 42, 80
1, 81600, Note_off_c, 9, 42, 64
1, 81600, Note_on_c, 9, 42, 80
1, 81600, Note_on_c, 9, 35, 80
1, 81840, Note_off_c, 9, 42, 64
1, 81840, Note_off_c, 9, 35, 64
1, 81840, Note_on_c, 9, 42, 80
1, 82080, Note_off_c, 9, 42, 64
1, 82080, Note_on_c, 9, 42, 80
1, 82080, Note_on_c, 9, 38, 80
1, 82320, Note_off_c, 9, 42, 64
1, 82320, Note_off_c, 9, 38, 64
1, 82320, Note_on_c, 9, 42, 80
1, 82560, Note_off_c, 9, 42, 64
1, 82560, Note_on_c, 9, 42, 80
1, 82560, Note_on_c, 9, 35, 80
1, 82800, Note_off_c, 9, 42, 64
1, 82800, Note_off_c, 9, 35, 64
1, 82800, Note_on_c, 9, 42, 80
1, 83040, Note_off_c, 9, 42, 64
1, 83040, Note_on_c, 9, 42, 80
1, 83040, Note_on_c, 9, 38, 80
1, 83280, Note_off_c, 9, 42, 64
1, 83280, Note_off_c, 9, 38, 64
1, 83280, Note_on_c, 9, 42, 80
1, 83520, Note_off_c, 9, 42, 64
1, 83520, Note_on_c, 9, 42, 80
1, 83520, Note_on_c, 9, 35, 80
1, 83760, Note_off_c, 9, 42, 64
1, 83760, Note_off_c, 9, 35, 64
1, 83760, Note_on_c, 9, 42, 80
1, 84000, Note_off_c, 9, 42, 64
1, 84000, Note_on_c, 9, 42, 80
1, 84000, Note_on_c, 9, 38, 80
1, 84240, Note_off_c, 9, 42, 64
1, 84240, Note_off_c, 9, 38, 64
1, 84240, Note_on_c, 9, 42, 80
1, 84480, Note_off_c, 9, 42, 64
1, 84480, Note_on_c, 9, 42, 80
1, 84480, Note_on_c, 9, 35, 80
1, 84720, Note_off_c, 9, 42, 64
1, 84720, Note_off_c, 9, 35, 64
1, 84720, Note_on_c, 9, 42, 80
1, 84960, Note_off_c, 9, 42, 64
1, 84960, Note_on_c, 9, 42, 80
1, 84960, Note_on_c, 9, 38, 80
1, 85200, Note_off_c, 9, 42, 64
1, 85200, Note_off_c, 9, 38, 64
1, 85200, Note_on_c, 9, 42, 80
1, 85440, Note_off_c, 9, 42, 64
1, 85440, Note_on_c, 9, 49, 80
1, 85440, Note_on_c, 9, 35, 80
1, 85680, Note_off_c, 9, 49, 64
1, 85680, Note_off_c, 9, 35, 64
1, 85680, Note_on_c, 9, 42, 80
1, 85920, Note_off_c, 9, 42, 64
1, 85920, Note_on_c, 9, 42, 80
1, 85920, Note_on_c, 9, 38, 80
1, 86160, Note_off_c, 9, 42, 64
1, 86160, Note_off_c, 9, 38, 64
1, 86160, Note_on_c, 9, 42, 80
1, 86400, Note_off_c, 9, 42, 64
1, 86400, Note_on_c, 9, 42, 80
1, 86400, Note_on_c, 9, 35, 80
1, 86640, Note_off_c, 9, 42, 64
1, 86640, Note_off_c, 9, 35, 64
1, 86640, Note_on_c, 9, 42, 80
1, 86880, Note_off_c, 9, 42, 64
1, 86880, Note_on_c, 9, 49, 80
1, 86880, Note_on_c, 9, 38, 80
1, 87120, Note_off_c, 9, 49, 64
1, 87120, Note_off_c, 9, 38, 64
1, 87120, Note_on_c, 9, 42, 80
1, 87360, Note_off_c, 9, 42, 64
1, 87360, Note_on_c, 9, 42, 80
1, 87360, Note_on_c, 9, 35, 80
1, 87600, Note_off_c, 9, 42, 64
1, 87600, Note_off_c, 9, 35, 64
1, 87600, Note_on_c, 9, 42, 80
1, 87840, Note_off_c, 9, 42, 64
1, 87840, Note_on_c, 9, 42, 80
1, 87840, Note_on_c, 9, 38, 80
1, 88080, Note_off_c, 9, 42, 64
1, 88080, Note_off_c, 9, 38, 64
1, 88080, Note_on_c, 9, 42, 80
1, 88320, Note_off_c, 9, 42, 64
1, 88320, Note_on_c, 9, 42, 80
1, 88320, Note_on_c, 9, 35, 80
1, 88560, Note_off_c, 9, 42, 64
1, 88560, Note_off_c, 9, 35, 64
1, 88560, Note_on_c, 9, 42, 80
1, 88800, Note_off_c, 9, 42, 64
1, 88800, Note_on_c, 9, 42, 80
1, 88800, Note_on_c, 9, 38, 80
1, 89040, Note_off_c, 9, 42, 64
1, 89040, Note_off_c, 9, 38, 64
1, 89040, Note_on_c, 9, 42, 80
1, 89280, Note_off_c, 9, 42, 64
1, 89280, Note_on_c, 9, 49, 80
1, 89280, Note_on_c, 9, 35, 80
1, 89520, Note_off_c, 9, 49, 64
1, 89520, Note_off_c, 9, 35, 64
1, 89520, Note_on_c, 9, 42, 80
1, 89760, Note_off_c, 9, 42, 64
1, 89760, Note_on_c, 9, 42, 80
1, 89760, Note_on_c, 9, 35, 80
1, 90000, Note_off_c, 9, 42, 64
1, 90000, Note_off_c, 9, 35, 64
1, 90000, Note_on_c, 9, 49, 80
1, 90000, Note_on_c, 9, 38, 80
1, 90240, Note_off_c, 9, 49, 64
1, 90240, Note_off_c, 9, 38, 64
1, 90240, Note_on_c, 9, 42, 80
1, 90240, Note_on_c, 9, 35, 80
1, 90480, Note_off_c, 9, 42, 64
1, 90480, Note_off_c, 9, 35, 64
1, 90480, Note_on_c, 9, 42, 80
1, 90720, Note_off_c, 9, 42, 64
1, 90720, Note_on_c, 9, 49, 80
1, 90720, Note_on_c, 9, 38, 80
1, 90960, Note_off_c, 9, 49, 64
1, 90960, Note_off_c, 9, 38, 64
1, 90960, Note_on_c, 9, 42, 80
1, 91200, Note_off_c, 9, 42, 64
1, 91200, Note_on_c, 9, 42, 80
1, 91200, Note_on_c, 9, 35, 80
1, 91440, Note_off_c, 9, 42, 64
1, 91440, Note_off_c, 9, 35, 64
1, 91440, Note_on_c, 9, 42, 80
1, 91680, Note_off_c, 9, 42, 64
1, 91680, Note_on_c, 9, 42, 80
1, 91680, Note_on_c, 9, 38, 80
1, 91920, Note_off_c, 9, 42, 64
1, 91920, Note_off_c, 9, 38, 64
1, 91920, Note_on_c, 9, 42, 80
1, 92160, Note_off_c, 9, 42, 64
1, 92160, Note_on_c, 9, 42, 80
1, 92160, Note_on_c, 9, 38, 80
1, 92400, Note_off_c, 9, 42, 64
1, 92400, Note_off_c, 9, 38, 64
1, 92400, Note_on_c, 9, 42, 80
1, 92640, Note_off_c, 9, 42, 64
1, 92640, Note_on_c, 9, 38, 80
1, 92880, Note_off_c, 9, 38, 64
1, 92880, Note_on_c, 9, 38, 80
1, 93120, Note_off_c, 9, 38, 64
1, 93120, Note_on_c, 9, 49, 80
1, 93120, Note_on_c, 9, 35, 80
1, 93360, Note_off_c, 9, 49, 64
1, 93360, Note_off_c, 9, 35, 64
1, 93360, Note_on_c, 9, 42, 80
1, 93600, Note_off_c, 9, 42, 64
1, 93600, Note_on_c, 9, 42, 80
1, 93600, Note_on_c, 9, 38, 80
1, 93840, Note_off_c, 9, 42, 64
1, 93840, Note_off_c, 9, 38, 64
1, 93840, Note_on_c, 9, 42, 80
1, 94080, Note_off_c, 9, 42, 64
1, 94080, Note_on_c, 9, 42, 80
1, 94080, Note_on_c, 9, 35, 80
1, 94320, Note_off_c, 9, 42, 64
1, 94320, Note_off_c, 9, 35, 64
1, 94320, Note_on_c, 9, 42, 80
1, 94560, Note_off_c, 9, 42, 64
1, 94560, Note_on_c, 9, 42, 80
1, 94560, Note_on_c, 9, 38, 80
1, 94800, Note_off_c, 9, 42, 64
1, 94800, Note_off_c, 9, 38, 64
1, 94800, Note_on_c, 9, 42, 80
1, 95040, Note_off_c, 9, 42, 64
1, 95040, Note_on_c, 9, 42, 80
1, 95040, Note_on_c, 9, 35, 80
1, 95280, Note_off_c, 9, 42, 64
1, 95280, Note_off_c, 9, 35, 64
1, 95280, Note_on_c, 9, 42, 80
1, 95520, Note_off_c, 9, 42, 64
1, 95520, Note_on_c, 9, 42, 80
1, 95520, Note_on_c, 9, 38, 80
1, 95760, Note_off_c, 9, 42, 64
1, 95760, Note_off_c, 9, 38, 64
1, 95760, Note_on_c, 9, 42, 80
1, 96000, Note_off_c, 9, 42, 64
1, 96000, Note_on_c, 9, 42, 80
1, 96000, Note_on_c, 9, 35, 80
1, 96240, Note_off_c, 9, 42, 64
1, 96240, Note_off_c, 9, 35, 64
1, 96240, Note_on_c, 9, 42, 80
1, 96480, Note_off_c, 9, 42, 64
1, 96480, Note_on_c, 9, 42, 80
1, 96480, Note_on_c, 9, 38, 80
1, 96720, Note_off_c, 9, 42, 64
1, 96720, Note_off_c, 9, 38, 64
1, 96720, Note_on_c, 9, 42, 80
1, 96960, Note_off_c, 9, 42, 64
1, 96960, Note_on_c, 9, 42, 80
1, 96960, Note_on_c, 9, 35, 80
1, 97200, Note_off_c, 9, 42, 64
1, 97200, Note_off_c, 9, 35, 64
1, 97200, Note_on_c, 9, 42, 80
1, 97440, Note_off_c, 9, 42, 64
1, 97440, Note_on_c, 9, 42, 80
1, 97440, Note_on_c, 9, 38, 80
1, 97680, Note_off_c, 9, 42, 64
1, 97680, Note_off_c, 9, 38, 64
1, 97680, Note_on_c, 9, 42, 80
1, 97920, Note_off_c, 9, 42, 64
1, 97920, Note_on_c, 9, 42, 80
1, 97920, Note_on_c, 9, 35, 80
1, 98160, Note_off_c, 9, 42, 64
1, 98160, Note_off_c, 9, 35, 64
1, 98160, Note_on_c, 9, 42, 80
1, 98400, Note_off_c, 9, 42, 64
1, 98400, Note_on_c, 9, 42, 80
1, 98400, Note_on_c, 9, 38, 80
1, 98640, Note_off_c, 9, 42, 64
1, 98640, Note_off_c, 9, 38, 64
1, 98640, Note_on_c, 9, 42, 80
1, 98880, Note_off_c, 9, 42, 64
1, 98880, Note_on_c, 9, 42, 80
1, 98880, Note_on_c, 9, 35, 80
1, 99120, Note_off_c, 9, 42, 64
1, 99120, Note_off_c, 9, 35, 64
1, 99120, Note_on_c, 9, 42, 80
1, 99360, Note_off_c, 9, 42, 64
1, 99360, Note_on_c, 9, 42, 80
1, 99360, Note_on_c, 9, 38, 80
1, 99600, Note_off_c, 9, 42, 64
1, 99600, Note_off_c, 9, 38, 64
1, 99600, Note_on_c, 9, 42, 80
1, 99840, Note_off_c, 9, 42, 64
1, 99840, Note_on_c, 9, 42, 80
1, 99840, Note_on_c, 9, 35, 80
1, 100080, Note_off_c, 9, 42, 64
1, 100080, Note_off_c, 9, 35, 64
1, 100080, Note_on_c, 9, 42, 80
1, 100320, Note_off_c, 9, 42, 64
1, 100320, Note_on_c, 9, 42, 80
1, 100320, Note_on_c, 9, 38, 80
1, 100560, Note_off_c, 9, 42, 64
1, 100560, Note_off_c, 9, 38, 64
1, 100560, Note_on_c, 9, 42, 80
1, 100800, Note_off_c, 9, 42, 64
1, 100800, Note_on_c, 9, 42, 80
1, 100800, Note_on_c, 9, 35, 80
1, 101040, Note_off_c, 9, 42, 64
1, 101040, Note_off_c, 9, 35, 64
1, 101040, Note_on_c, 9, 42, 80
1, 101280, Note_off_c, 9, 42, 64
1, 101280, Note_on_c, 9, 42, 80
1, 101280, Note_on_c, 9, 38, 80
1, 101520, Note_off_c, 9, 42, 64
1, 101520, Note_off_c, 9, 38, 64
1, 101520, Note_on_c, 9, 42, 80
1, 101760, Note_off_c, 9, 42, 64
1, 101760, Note_on_c, 9, 42, 80
1, 101760, Note_on_c, 9, 35, 80
1, 102000, Note_off_c, 9, 42, 64
1, 102000, Note_off_c, 9, 35, 64
1, 102000, Note_on_c, 9, 42, 80
1, 102240, Note_off_c, 9, 42, 64
1, 102240, Note_on_c, 9, 42, 80
1, 102240, Note_on_c, 9, 38, 80
1, 102480, Note_off_c, 9, 42, 64
1, 102480, Note_off_c, 9, 38, 64
1, 102480, Note_on_c, 9, 42, 80
1, 102720, Note_off_c, 9, 42, 64
1, 102720, Note_on_c, 9, 42, 80
1, 102720, Note_on_c, 9, 35, 80
1, 102960, Note_off_c, 9, 42, 64
1, 102960, Note_off_c, 9, 35, 64
1, 102960, Note_on_c, 9, 42, 80
1, 103200, Note_off_c, 9, 42, 64
1, 103200, Note_on_c, 9, 42, 80
1, 103200, Note_on_c, 9, 38, 80
1, 103440, Note_off_c, 9, 42, 64
1, 103440, Note_off_c, 9, 38, 64
1, 103440, Note_on_c, 9, 42, 80
1, 103680, Note_off_c, 9, 42, 64
1, 103680, Note_on_c, 9, 42, 80
1, 103680, Note_on_c, 9, 35, 80
1, 103920, Note_off_c, 9, 42, 64
1, 103920, Note_off_c, 9, 35, 64
1, 103920, Note_on_c, 9, 42, 80
1, 104160, Note_off_c, 9, 42, 64
1, 104160, Note_on_c, 9, 42, 80
1, 104160, Note_on_c, 9, 38, 80
1, 104400, Note_off_c, 9, 42, 64
1, 104400, Note_off_c, 9, 38, 64
1, 104400, Note_on_c, 9, 42, 80
1, 104640, Note_off_c, 9, 42, 64
1, 104640, Note_on_c, 9, 42, 80
1, 104640, Note_on_c, 9, 35, 80
1, 104880, Note_off_c, 9, 42, 64
1, 104880, Note_off_c, 9, 35, 64
1, 104880, Note_on_c, 9, 42, 80
1, 105120, Note_off_c, 9, 42, 64
1, 105120, Note_on_c, 9, 42, 80
1, 105120, Note_on_c, 9, 38, 80
1, 105360, Note_off_c, 9, 42, 64
1, 105360, Note_off_c, 9, 38, 64
1, 105360, Note_on_c, 9, 42, 80
1, 105600, Note_off_c, 9, 42, 64
1, 105600, Note_on_c, 9, 42, 80
1, 105600, Note_on_c, 9, 35, 80
1, 105840, Note_off_c, 9, 42, 64
1, 105840, Note_off_c, 9, 35, 64
1, 105840, Note_on_c, 9, 42, 80
1, 106080, Note_off_c, 9, 42, 64
1, 106080, Note_on_c, 9, 42, 80
1, 106080, Note_on_c, 9, 38, 80
1, 106320, Note_off_c, 9, 42, 64
1, 106320, Note_off_c, 9, 38, 64
1, 106320, Note_on_c, 9, 42, 80
1, 106560, Note_off_c, 9, 42, 64
1, 106560, Note_on_c, 9, 42, 80
1, 106560, Note_on_c, 9, 35, 80
1, 106800, Note_off_c, 9, 42, 64
1, 106800, Note_off_c, 9, 35, 64
1, 106800, Note_on_c, 9, 42, 80
1, 107040, Note_off_c, 9, 42, 64
1, 107040, Note_on_c, 9, 42, 80
1, 107040, Note_on_c, 9, 38, 80
1, 107280, Note_off_c, 9, 42, 64
1, 107280, Note_off_c, 9, 38, 64
1, 107280, Note_on_c, 9, 42, 80
1, 107520, Note_off_c, 9, 42, 64
1, 107520, Note_on_c, 9, 42, 80
1, 107520, Note_on_c, 9, 35, 80
1, 107760, Note_off_c, 9, 42, 64
1, 107760, Note_off_c, 9, 35, 64
1, 107760, Note_on_c, 9, 42, 80
1, 108000, Note_off_c, 9, 42, 64
1, 108000, Note_on_c, 9, 42, 80
1, 108000, Note_on_c, 9, 38, 80
1, 108240, Note_off_c, 9, 42, 64
1, 108240, Note_off_c, 9, 38, 64
1, 108240, Note_on_c, 9, 42, 80
1, 108480, Note_off_c, 9, 42, 64
1, 108480, Note_on_c, 9, 49, 80
1, 108480, Note_on_c, 9, 35, 80
1, 108720, Note_off_c, 9, 49, 64
1, 108720, Note_off_c, 9, 35, 64
1, 108720, Note_on_c, 9, 42, 80
1, 108960, Note_off_c, 9, 42, 64
1, 108960, Note_on_c, 9, 42, 80
1, 108960, Note_on_c, 9, 38, 80
1, 109200, Note_off_c, 9, 42, 64
1, 109200, Note_off_c, 9, 38, 64
1, 109200, Note_on_c, 9, 49, 80
1, 109200, Note_on_c, 9, 38, 80
1, 109440, Note_off_c, 9, 49, 64
1, 109440, Note_off_c, 9, 38, 64
1, 109440, Note_on_c, 9, 42, 80
1, 109440, Note_on_c, 9, 35, 80
1, 109680, Note_off_c, 9, 42, 64
1, 109680, Note_off_c, 9, 35, 64
1, 109680, Note_on_c, 9, 42, 80
1, 109920, Note_off_c, 9, 42, 64
1, 109920, Note_on_c, 9, 49, 80
1, 109920, Note_on_c, 9, 38, 80
1, 110160, Note_off_c, 9, 49, 64
1, 110160, Note_off_c, 9, 38, 64
1, 110160, Note_on_c, 9, 42, 80
1, 110400, Note_off_c, 9, 42, 64
1, 110400, Note_on_c, 9, 42, 80
1, 110400, Note_on_c, 9, 35, 80
1, 110640, Note_off_c, 9, 42, 64
1, 110640, Note_off_c, 9, 35, 64
1, 110640, Note_on_c, 9, 42, 80
1, 110880, Note_off_c, 9, 42, 64
1, 110880, Note_on_c, 9, 42, 80
1, 110880, Note_on_c, 9, 38, 80
1, 111120, Note_off_c, 9, 42, 64
1, 111120, Note_off_c, 9, 38, 64
1, 111120, Note_on_c, 9, 42, 80
1, 111360, Note_off_c, 9, 42, 64
1, 111360, Note_on_c, 9, 42, 80
1, 111360, Note_on_c, 9, 35, 80
1, 111600, Note_off_c, 9, 42, 64
1, 111600, Note_off_c, 9, 35, 64
1, 111600, Note_on_c, 9, 42, 80
1, 111840, Note_off_c, 9, 42, 64
1, 111840, Note_on_c, 9, 42, 80
1, 111840, Note_on_c, 9, 38, 80
1, 112080, Note_off_c, 9, 42, 64
1, 112080, Note_off_c, 9, 38, 64
1, 112080, Note_on_c, 9, 42, 80
1, 112320, Note_off_c, 9, 42, 64
1, 112320, Note_on_c, 9, 49, 80
1, 112320, Note_on_c, 9, 35, 80
1, 112560, Note_off_c, 9, 49, 64
1, 112560, Note_off_c, 9, 35, 64
1, 112560, Note_on_c, 9, 42, 80
1, 112800, Note_off_c, 9, 42, 64
1, 112800, Note_on_c, 9, 42, 80
1, 112800, Note_on_c, 9, 38, 80
1, 113040, Note_off_c, 9, 42, 64
1, 113040, Note_off_c, 9, 38, 64
1, 113040, Note_on_c, 9, 49, 80
1, 113040, Note_on_c, 9, 38, 80
1, 113280, Note_off_c, 9, 49, 64
1, 113280, Note_off_c, 9, 38, 64
1, 113280, Note_on_c, 9, 42, 80
1, 113280, Note_on_c, 9, 35, 80
1, 113520, Note_off_c, 9, 42, 64
1, 113520, Note_off_c, 9, 35, 64
1, 113520, Note_on_c, 9, 42, 80
1, 113760, Note_off_c, 9, 42, 64
1, 113760, Note_on_c, 9, 49, 80
1, 113760, Note_on_c, 9, 38, 80
1, 114000, Note_off_c, 9, 49, 64
1, 114000, Note_off_c, 9, 38, 64
1, 114000, Note_on_c, 9, 42, 80
1, 114240, Note_off_c, 9, 42, 64
1, 114240, Note_on_c, 9, 42, 80
1, 114240, Note_on_c, 9, 35, 80
1, 114480, Note_off_c, 9, 42, 64
1, 114480, Note_off_c, 9, 35, 64
1, 114480, Note_on_c, 9, 42, 80
1, 114720, Note_off_c, 9, 42, 64
1, 114720, Note_on_c, 9, 42, 80
1, 114720, Note_on_c, 9, 38, 80
1, 114960, Note_off_c, 9, 42, 64
1, 114960, Note_off_c, 9, 38, 64
1, 114960, Note_on_c, 9, 42, 80
1, 115200, Note_off_c, 9, 42, 64
1, 115200, Note_on_c, 9, 42, 80
1, 115200, Note_on_c, 9, 35, 80
1, 115440, Note_off_c, 9, 42, 64
1, 115440, Note_off_c, 9, 35, 64
1, 115440, Note_on_c, 9, 42, 80
1, 115680, Note_off_c, 9, 42, 64
1, 115680, Note_on_c, 9, 42, 80
1, 115680, Note_on_c, 9, 38, 80
1, 115920, Note_off_c, 9, 42, 64
1, 115920, Note_off_c, 9, 38, 64
1, 115920, Note_on_c, 9, 42, 80
1, 116160, Note_off_c, 9, 42, 64
1, 116160, Note_on_c, 9, 49, 80
1, 116160, Note_on_c, 9, 35, 80
1, 116400, Note_off_c, 9, 49, 64
1, 116400, Note_off_c, 9, 35, 64
1, 116400, Note_on_c, 9, 42, 80
1, 116640, Note_off_c, 9, 42, 64
1, 116640, Note_on_c, 9, 42, 80
1, 116640, Note_on_c, 9, 38, 80
1, 116880, Note_off_c, 9, 42, 64
1, 116880, Note_off_c, 9, 38, 64
1, 116880, Note_on_c, 9, 49, 80
1, 116880, Note_on_c, 9, 38, 80
1, 117120, Note_off_c, 9, 49, 64
1, 117120, Note_off_c, 9, 38, 64
1, 117120, Note_on_c, 9, 42, 80
1, 117120, Note_on_c, 9, 35, 80
1, 117360, Note_off_c, 9, 42, 64
1, 117360, Note_off_c, 9, 35, 64
1, 117360, Note_on_c, 9, 42, 80
1, 117600, Note_off_c, 9, 42, 64
1, 117600, Note_on_c, 9, 49, 80
1, 117600, Note_on_c, 9, 38, 80
1, 117840, Note_off_c, 9, 49, 64
1, 117840, Note_off_c, 9, 38, 64
1, 117840, Note_on_c, 9, 42, 80
1, 118080, Note_off_c, 9, 42, 64
1, 118080, Note_on_c, 9, 42, 80
1, 118080, Note_on_c, 9, 35, 80
1, 118320, Note_off_c, 9, 42, 64
1, 118320, Note_off_c, 9, 35, 64
1, 118320, Note_on_c, 9, 42, 80
1, 118560, Note_off_c, 9, 42, 64
1, 118560, Note_on_c, 9, 42, 80
1, 118560, Note_on_c, 9, 38, 80
1, 118800, Note_off_c, 9, 42, 64
1, 118800, Note_off_c, 9, 38, 64
1, 118800, Note_on_c, 9, 42, 80
1, 119040, Note_off_c, 9, 42, 64
1, 119040, Note_on_c, 9, 42, 80
1, 119040, Note_on_c, 9, 35, 80
1, 119280, Note_off_c, 9, 42, 64
1, 119280, Note_off_c, 9, 35, 64
1, 119280, Note_on_c, 9, 42, 80
1, 119520, Note_off_c, 9, 42, 64
1, 119520, Note_on_c, 9, 42, 80
1, 119520, Note_on_c, 9, 38, 80
1, 119760, Note_off_c, 9, 42, 64
1, 119760, Note_off_c, 9, 38, 64
1, 119760, Note_on_c, 9, 42, 80
1, 120000, Note_off_c, 9, 42, 64
1, 120000, Note_on_c, 9, 42, 80
1, 120000, Note_on_c, 9, 35, 80
1, 120240, Note_off_c, 9, 42, 64
1, 120240, Note_off_c, 9, 35, 64
1, 120240, Note_on_c, 9, 42, 80
1, 120240, Note_on_c, 9, 38, 80
1, 120480, Note_off_c, 9, 42, 64
1, 120480, Note_off_c, 9, 38, 64
1, 120480, Note_on_c, 9, 42, 80
1, 120480, Note_on_c, 9, 38, 80
1, 120720, Note_off_c, 9, 42, 64
1, 120720, Note_off_c, 9, 38, 64
1, 120720, Note_on_c, 9, 42, 80
1, 120720, Note_on_c, 9, 35, 80
1, 120960, Note_off_c, 9, 42, 64
1, 120960, Note_off_c, 9, 35, 64
1, 120960, Note_on_c, 9, 42, 80
1, 120960, Note_on_c, 9, 38, 80
1, 121200, Note_off_c, 9, 42, 64
1, 121200, Note_off_c, 9, 38, 64
1, 121200, Note_on_c, 9, 42, 80
1, 121200, Note_on_c, 9, 38, 80
1, 121440, Note_off_c, 9, 42, 64
1, 121440, Note_off_c, 9, 38, 64
1, 121440, Note_on_c, 9, 42, 80
1, 121440, Note_on_c, 9, 35, 80
1, 121680, Note_off_c, 9, 42, 64
1, 121680, Note_off_c, 9, 35, 64
1, 121680, Note_on_c, 9, 42, 80
1, 121680, Note_on_c, 9, 38, 80
1, 121920, Note_off_c, 9, 42, 64
1, 121920, Note_off_c, 9, 38, 64
1, 121920, Note_on_c, 9, 42, 80
1, 121920, Note_on_c, 9, 38, 80
1, 122160, Note_off_c, 9, 42, 64
1, 122160, Note_off_c, 9, 38, 64
1, 122160, Note_on_c, 9, 42, 80
1, 122160, Note_on_c, 9, 35, 80
1, 122400, Note_off_c, 9, 42, 64
1, 122400, Note_off_c, 9, 35, 64
1, 122400, Note_on_c, 9, 42, 80
1, 122400, Note_on_c, 9, 38, 80
1, 122640, Note_off_c, 9, 42, 64
1, 122640, Note_off_c, 9, 38, 64
1, 122640, Note_on_c, 9, 42, 80
1, 122640, Note_on_c, 9, 35, 80
1, 122880, Note_off_c, 9, 42, 64
1, 122880, Note_off_c, 9, 35, 64
1, 122880, Note_on_c, 9, 38, 80
1, 123120, Note_off_c, 9, 38, 64
1, 123120, Note_on_c, 9, 35, 80
1, 123360, Note_off_c, 9, 35, 64
1, 123360, Note_on_c, 9, 38, 80
1, 123600, Note_off_c, 9, 38, 64
1, 123600, Note_on_c, 9, 35, 80
1, 123840, Note_off_c, 9, 35, 64
1, 123840, Note_on_c, 9, 49, 80
1, 123840, Note_on_c, 9, 35, 80
1, 124080, Note_off_c, 9, 49, 64
1, 124080, Note_off_c, 9, 35, 64
1, 124080, Note_on_c, 9, 42, 80
1, 124320, Note_off_c, 9, 42, 64
1, 124320, Note_on_c, 9, 42, 80
1, 124320, Note_on_c, 9, 38, 80
1, 124560, Note_off_c, 9, 42, 64
1, 124560, Note_off_c, 9, 38, 64
1, 124560, Note_on_c, 9, 42, 80
1, 124800, Note_off_c, 9, 42, 64
1, 124800, Note_on_c, 9, 42, 80
1, 124800, Note_on_c, 9, 35, 80
1, 125040, Note_off_c, 9, 42, 64
1, 125040, Note_off_c, 9, 35, 64
1, 125040, Note_on_c, 9, 42, 80
1, 125280, Note_off_c, 9, 42, 64
1, 125280, Note_on_c, 9, 42, 80
1, 125280, Note_on_c, 9, 38, 80
1, 125520, Note_off_c, 9, 42, 64
1, 125520, Note_off_c, 9, 38, 64
1, 125520, Note_on_c, 9, 42, 80
1, 125760, Note_off_c, 9, 42, 64
1, 125760, Note_on_c, 9, 42, 80
1, 125760, Note_on_c, 9, 35, 80
1, 126000, Note_off_c, 9, 42, 64
1, 126000, Note_off_c, 9, 35, 64
1, 126000, Note_on_c, 9, 42, 80
1, 126240, Note_off_c, 9, 42, 64
1, 126240, Note_on_c, 9, 42, 80
1, 126240, Note_on_c, 9, 38, 80
1, 126480, Note_off_c, 9, 42, 64
1, 126480, Note_off_c, 9, 38, 64
1, 126480, Note_on_c, 9, 42, 80
1, 126720, Note_off_c, 9, 42, 64
1, 126720, Note_on_c, 9, 42, 80
1, 126720, Note_on_c, 9, 35, 80
1, 126960, Note_off_c, 9, 42, 64
1, 126960, Note_off_c, 9, 35, 64
1, 126960, Note_on_c, 9, 42, 80
1, 127200, Note_off_c, 9, 42, 64
1, 127200, Note_on_c, 9, 42, 80
1, 127200, Note_on_c, 9, 38, 80
1, 127440, Note_off_c, 9, 42, 64
1, 127440, Note_off_c, 9, 38, 64
1, 127440, Note_on_c, 9, 42, 80
1, 127680, Note_off_c, 9, 42, 64
1, 127680, Note_on_c, 9, 42, 80
1, 127680, Note_on_c, 9, 35, 80
1, 127920, Note_off_c, 9, 42, 64
1, 127920, Note_off_c, 9, 35, 64
1, 127920, Note_on_c, 9, 42, 80
1, 128160, Note_off_c, 9, 42, 64
1, 128160, Note_on_c, 9, 42, 80
1, 128160, Note_on_c, 9, 38, 80
1, 128400, Note_off_c, 9, 42, 64
1, 128400, Note_off_c, 9, 38, 64
1, 128400, Note_on_c, 9, 42, 80
1, 128640, Note_off_c, 9, 42, 64
1, 128640, Note_on_c, 9, 42, 80
1, 128640, Note_on_c, 9, 35, 80
1, 128880, Note_off_c, 9, 42, 64
1, 128880, Note_off_c, 9, 35, 64
1, 128880, Note_on_c, 9, 42, 80
1, 129120, Note_off_c, 9, 42, 64
1, 129120, Note_on_c, 9, 42, 80
1, 129120, Note_on_c, 9, 38, 80
1, 129360, Note_off_c, 9, 42, 64
1, 129360, Note_off_c, 9, 38, 64
1, 129360, Note_on_c, 9, 42, 80
1, 129600, Note_off_c, 9, 42, 64
1, 129600, Note_on_c, 9, 42, 80
1, 129600, Note_on_c, 9, 35, 80
1, 129840, Note_off_c, 9, 42, 64
1, 129840, Note_off_c, 9, 35, 64
1, 129840, Note_on_c, 9, 42, 80
1, 130080, Note_off_c, 9, 42, 64
1, 130080, Note_on_c, 9, 42, 80
1, 130080, Note_on_c, 9, 38, 80
1, 130320, Note_off_c, 9, 42, 64
1, 130320, Note_off_c, 9, 38, 64
1, 130320, Note_on_c, 9, 42, 80
1, 130560, Note_off_c, 9, 42, 64
1, 130560, Note_on_c, 9, 42, 80
1, 130560, Note_on_c, 9, 35, 80
1, 130800, Note_off_c, 9, 42, 64
1, 130800, Note_off_c, 9, 35, 64
1, 130800, Note_on_c, 9, 42, 80
1, 131040, Note_off_c, 9, 42, 64
1, 131040, Note_on_c, 9, 42, 80
1, 131040, Note_on_c, 9, 38, 80
1, 131280, Note_off_c, 9, 42, 64
1, 131280, Note_off_c, 9, 38, 64
1, 131280, Note_on_c, 9, 42, 80
1, 131520, Note_off_c, 9, 42, 64
1, 131520, Note_on_c, 9, 49, 80
1, 131520, Note_on_c, 9, 35, 80
1, 131760, Note_off_c, 9, 49, 64
1, 131760, Note_off_c, 9, 35, 64
1, 131760, Note_on_c, 9, 42, 80
1, 132000, Note_off_c, 9, 42, 64
1, 132000, Note_on_c, 9, 42, 80
1, 132000, Note_on_c, 9, 38, 80
1, 132240, Note_off_c, 9, 42, 64
1, 132240, Note_off_c, 9, 38, 64
1, 132240, Note_on_c, 9, 42, 80
1, 132480, Note_off_c, 9, 42, 64
1, 132480, Note_on_c, 9, 42, 80
1, 132480, Note_on_c, 9, 35, 80
1, 132720, Note_off_c, 9, 42, 64
1, 132720, Note_off_c, 9, 35, 64
1, 132720, Note_on_c, 9, 42, 80
1, 132960, Note_off_c, 9, 42, 64
1, 132960, Note_on_c, 9, 42, 80
1, 132960, Note_on_c, 9, 38, 80
1, 133200, Note_off_c, 9, 42, 64
1, 133200, Note_off_c, 9, 38, 64
1, 133200, Note_on_c, 9, 42, 80
1, 133440, Note_off_c, 9, 42, 64
1, 133440, Note_on_c, 9, 42, 80
1, 133440, Note_on_c, 9, 35, 80
1, 133680, Note_off_c, 9, 42, 64
1, 133680, Note_off_c, 9, 35, 64
1, 133680, Note_on_c, 9, 42, 80
1, 133920, Note_off_c, 9, 42, 64
1, 133920, Note_on_c, 9, 42, 80
1, 133920, Note_on_c, 9, 38, 80
1, 134160, Note_off_c, 9, 42, 64
1, 134160, Note_off_c, 9, 38, 64
1, 134160, Note_on_c, 9, 42, 80
1, 134400, Note_off_c, 9, 42, 64
1, 134400, Note_on_c, 9, 42, 80
1, 134400, Note_on_c, 9, 35, 80
1, 134640, Note_off_c, 9, 42, 64
1, 134640, Note_off_c, 9, 35, 64
1, 134640, Note_on_c, 9, 42, 80
1, 134880, Note_off_c, 9, 42, 64
1, 134880, Note_on_c, 9, 42, 80
1, 134880, Note_on_c, 9, 38, 80
1, 135120, Note_off_c, 9, 42, 64
1, 135120, Note_off_c, 9, 38, 64
1, 135120, Note_on_c, 9, 42, 80
1, 135360, Note_off_c, 9, 42, 64
1, 135360, Note_on_c, 9, 42, 80
1, 135360, Note_on_c, 9, 35, 80
1, 135600, Note_off_c, 9, 42, 64
1, 135600, Note_off_c, 9, 35, 64
1, 135600, Note_on_c, 9, 42, 80
1, 135840, Note_off_c, 9, 42, 64
1, 135840, Note_on_c, 9, 42, 80
1, 135840, Note_on_c, 9, 38, 80
1, 136080, Note_off_c, 9, 42, 64
1, 136080, Note_off_c, 9, 38, 64
1, 136080, Note_on_c, 9, 42, 80
1, 136320, Note_off_c, 9, 42, 64
1, 136320, Note_on_c, 9, 42, 80
1, 136320, Note_on_c, 9, 35, 80
1, 136560, Note_off_c, 9, 42, 64
1, 136560, Note_off_c, 9, 35, 64
1, 136560, Note_on_c, 9, 42, 80
1, 136800, Note_off_c, 9, 42, 64
1, 136800, Note_on_c, 9, 42, 80
1, 136800, Note_on_c, 9, 38, 80
1, 137040, Note_off_c, 9, 42, 64
1, 137040, Note_off_c, 9, 38, 64
1, 137040, Note_on_c, 9, 42, 80
1, 137280, Note_off_c, 9, 42, 64
1, 137280, Note_on_c, 9, 42, 80
1, 137280, Note_on_c, 9, 35, 80
1, 137520, Note_off_c, 9, 42, 64
1, 137520, Note_off_c, 9, 35, 64
1, 137520, Note_on_c, 9, 42, 80
1, 137760, Note_off_c, 9, 42, 64
1, 137760, Note_on_c, 9, 42, 80
1, 137760, Note_on_c, 9, 38, 80
1, 138000, Note_off_c, 9, 42, 64
1, 138000, Note_off_c, 9, 38, 64
1, 138000, Note_on_c, 9, 42, 80
1, 138240, Note_off_c, 9, 42, 64
1, 138240, Note_on_c, 9, 42, 80
1, 138240, Note_on_c, 9, 35, 80
1, 138480, Note_off_c, 9, 42, 64
1, 138480, Note_off_c, 9, 35, 64
1, 138480, Note_on_c, 9, 42, 80
1, 138720, Note_off_c, 9, 42, 64
1, 138720, Note_on_c, 9, 42, 80
1, 138720, Note_on_c, 9, 38, 80
1, 138960, Note_off_c, 9, 42, 64
1, 138960, Note_off_c, 9, 38, 64
1, 138960, Note_on_c, 9, 42, 80
1, 139200, Note_off_c, 9, 42, 64
1, 139200, Note_on_c, 9, 49, 80
1, 139200, Note_on_c, 9, 35, 80
1, 139440, Note_off_c, 9, 49, 64
1, 139440, Note_off_c, 9, 35, 64
1, 139440, Note_on_c, 9, 42, 80
1, 139680, Note_off_c, 9, 42, 64
1, 139680, Note_on_c, 9, 42, 80
1, 139680, Note_on_c, 9, 38, 80
1, 139920, Note_off_c, 9, 42, 64
1, 139920, Note_off_c, 9, 38, 64
1, 139920, Note_on_c, 9, 42, 80
1, 140160, Note_off_c, 9, 42, 64
1, 140160, Note_on_c, 9, 42, 80
1, 140160, Note_on_c, 9, 35, 80
1, 140400, Note_off_c, 9, 42, 64
1, 140400, Note_off_c, 9, 35, 64
1, 140400, Note_on_c, 9, 42, 80
1, 140640, Note_off_c, 9, 42, 64
1, 140640, Note_on_c, 9, 42, 80
1, 140640, Note_on_c, 9, 38, 80
1, 140880, Note_off_c, 9, 42, 64
1, 140880, Note_off_c, 9, 38, 64
1, 140880, Note_on_c, 9, 42, 80
1, 141120, Note_off_c, 9, 42, 64
1, 141120, Note_on_c, 9, 42, 80
1, 141120, Note_on_c, 9, 35, 80
1, 141360, Note_off_c, 9, 42, 64
1, 141360, Note_off_c, 9, 35, 64
1, 141360, Note_on_c, 9, 42, 80
1, 141600, Note_off_c, 9, 42, 64
1, 141600, Note_on_c, 9, 42, 80
1, 141600, Note_on_c, 9, 38, 80
1, 141840, Note_off_c, 9, 42, 64
1, 141840, Note_off_c, 9, 38, 64
1, 141840, Note_on_c, 9, 42, 80
1, 142080, Note_off_c, 9, 42, 64
1, 142080, Note_on_c, 9, 42, 80
1, 142080, Note_on_c, 9, 35, 80
1, 142320, Note_off_c, 9, 42, 64
1, 142320, Note_off_c, 9, 35, 64
1, 142320, Note_on_c, 9, 42, 80
1, 142560, Note_off_c, 9, 42, 64
1, 142560, Note_on_c, 9, 42, 80
1, 142560, Note_on_c, 9, 38, 80
1, 142800, Note_off_c, 9, 42, 64
1, 142800, Note_off_c, 9, 38, 64
1, 142800, Note_on_c, 9, 42, 80
1, 143040, Note_off_c, 9, 42, 64
1, 143040, Note_on_c, 9, 42, 80
1, 143040, Note_on_c, 9, 35, 80
1, 143280, Note_off_c, 9, 42, 64
1, 143280, Note_off_c, 9, 35, 64
1, 143280, Note_on_c, 9, 42, 80
1, 143520, Note_off_c, 9, 42, 64
1, 143520, Note_on_c, 9, 42, 80
1, 143520, Note_on_c, 9, 38, 80
1, 143760, Note_off_c, 9, 42, 64
1, 143760, Note_off_c, 9, 38, 64
1, 143760, Note_on_c, 9, 42, 80
1, 144000, Note_off_c, 9, 42, 64
1, 144000, Note_on_c, 9, 42, 80
1, 144000, Note_on_c, 9, 35, 80
1, 144240, Note_off_c, 9, 42, 64
1, 144240, Note_off_c, 9, 35, 64
1, 144240, Note_on_c, 9, 42, 80
1, 144480, Note_off_c, 9, 42, 64
1, 144480, Note_on_c, 9, 42, 80
1, 144480, Note_on_c, 9, 38, 80
1, 144720, Note_off_c, 9, 42, 64
1, 144720, Note_off_c, 9, 38, 64
1, 144720, Note_on_c, 9, 42, 80
1, 144960, Note_off_c, 9, 42, 64
1, 144960, Note_on_c, 9, 42, 80
1, 144960, Note_on_c, 9, 35, 80
1, 145200, Note_off_c, 9, 42, 64
1, 145200, Note_off_c, 9, 35, 64
1, 145200, Note_on_c, 9, 42, 80
1, 145440, Note_off_c, 9, 42, 64
1, 145440, Note_on_c, 9, 42, 80
1, 145440, Note_on_c, 9, 38, 80
1, 145680, Note_off_c, 9, 42, 64
1, 145680, Note_off_c, 9, 38, 64
1, 145680, Note_on_c, 9, 42, 80
1, 145920, Note_off_c, 9, 42, 64
1, 145920, Note_on_c, 9, 42, 80
1, 145920, Note_on_c, 9, 35, 80
1, 146160, Note_off_c, 9, 42, 64
1, 146160, Note_off_c, 9, 35, 64
1, 146160, Note_on_c, 9, 42, 80
1, 146400, Note_off_c, 9, 42, 64
1, 146400, Note_on_c, 9, 42, 80
1, 146400, Note_on_c, 9, 38, 80
1, 146640, Note_off_c, 9, 42, 64
1, 146640, Note_off_c, 9, 38, 64
1, 146640, Note_on_c, 9, 42, 80
1, 146880, Note_off_c, 9, 42, 64
1, 146880, Note_on_c, 9, 49, 80
1, 146880, Note_on_c, 9, 35, 80
1, 147120, Note_off_c, 9, 49, 64
1, 147120, Note_off_c, 9, 35, 64
1, 147120, Note_on_c, 9, 42, 80
1, 147360, Note_off_c, 9, 42, 64
1, 147360, Note_on_c, 9, 42, 80
1, 147360, Note_on_c, 9, 38, 80
1, 147600, Note_off_c, 9, 42, 64
1, 147600, Note_off_c, 9, 38, 64
1, 147600, Note_on_c, 9, 42, 80
1, 147840, Note_off_c, 9, 42, 64
1, 147840, Note_on_c, 9, 42, 80
1, 147840, Note_on_c, 9, 35, 80
1, 148080, Note_off_c, 9, 42, 64
1, 148080, Note_off_c, 9, 35, 64
1, 148080, Note_on_c, 9, 42, 80
1, 148320, Note_off_c, 9, 42, 64
1, 148320, Note_on_c, 9, 42, 80
1, 148320, Note_on_c, 9, 38, 80
1, 148560, Note_off_c, 9, 42, 64
1, 148560, Note_off_c, 9, 38, 64
1, 148560, Note_on_c, 9, 42, 80
1, 148800, Note_off_c, 9, 42, 64
1, 148800, Note_on_c, 9, 42, 80
1, 148800, Note_on_c, 9, 35, 80
1, 149040, Note_off_c, 9, 42, 64
1, 149040, Note_off_c, 9, 35, 64
1, 149040, Note_on_c, 9, 42, 80
1, 149280, Note_off_c, 9, 42, 64
1, 149280, Note_on_c, 9, 42, 80
1, 149280, Note_on_c, 9, 38, 80
1, 149520, Note_off_c, 9, 42, 64
1, 149520, Note_off_c, 9, 38, 64
1, 149520, Note_on_c, 9, 42, 80
1, 149760, Note_off_c, 9, 42, 64
1, 149760, Note_on_c, 9, 38, 80
1, 150000, Note_off_c, 9, 38, 64
1, 150000, Note_on_c, 9, 38, 80
1, 150240, Note_off_c, 9, 38, 64
1, 150240, Note_on_c, 9, 38, 80
1, 150480, Note_off_c, 9, 38, 64
1, 150720, Note_on_c, 9, 49, 80
1, 150720, Note_on_c, 9, 35, 80
1, 151200, Note_off_c, 9, 49, 64
1, 151200, Note_off_c, 9, 35, 64
1, 151200, Note_on_c, 9, 44, 80
1, 151680, Note_off_c, 9, 44, 64
1, 151680, Note_on_c, 9, 44, 80
1, 152160, Note_off_c, 9, 44, 64
1, 152160, Note_on_c, 9, 44, 80
1, 152640, Note_off_c, 9, 44, 64
1, 152640, Note_on_c, 9, 44, 80
1, 153120, Note_off_c, 9, 44, 64
1, 153120, Note_on_c, 9, 44, 80
1, 153600, Note_off_c, 9, 44, 64
1, 153600, Note_on_c, 9, 44, 80
1, 154080, Note_off_c, 9, 44, 64
1, 154080, Note_on_c, 9, 44, 80
1, 154080, Note_on_c, 9, 38, 80
1, 154320, Note_off_c, 9, 44, 64
1, 154320, Note_off_c, 9, 38, 64
1, 154320, Note_on_c, 9, 49, 80
1, 154320, Note_on_c, 9, 35, 80
1, 154560, Note_off_c, 9, 49, 64
1, 154560, Note_off_c, 9, 35, 64
1, 154560, Note_on_c, 9, 44, 80
1, 155040, Note_off_c, 9, 44, 64
1, 155040, Note_on_c, 9, 44, 80
1, 155520, Note_off_c, 9, 44, 64
1, 155520, Note_on_c, 9, 44, 80
1, 156000, Note_off_c, 9, 44, 64
1, 156000, Note_on_c, 9, 44, 80
1, 156480, Note_off_c, 9, 44, 64
1, 156480, Note_on_c, 9, 44, 80
1, 156960, Note_off_c, 9, 44, 64
1, 156960, Note_on_c, 9, 44, 80
1, 157440, Note_off_c, 9, 44, 64
1, 157440, Note_on_c, 9, 44, 80
1, 157680, Note_off_c, 9, 44, 64
1, 157680, Note_on_c, 9, 38, 80
1, 157920, Note_off_c, 9, 38, 64
1, 157920, Note_on_c, 9, 44, 80
1, 158160, Note_off_c, 9, 44, 64
1, 158160, Note_on_c, 9, 49, 80
1, 158160, Note_on_c, 9, 35, 80
1, 158400, Note_off_c, 9, 49, 64
1, 158400, Note_off_c, 9, 35, 64
1, 158400, Note_on_c, 9, 44, 80
1, 158880, Note_off_c, 9, 44, 64
1, 158880, Note_on_c, 9, 44, 80
1, 158880, Note_on_c, 9, 38, 80
1, 159360, Note_off_c, 9, 44, 64
1, 159360, Note_off_c, 9, 38, 64
1, 159360, Note_on_c, 9, 44, 80
1, 159360, Note_on_c, 9, 38, 80
1, 159600, Note_off_c, 9, 44, 64
1, 159600, Note_off_c, 9, 38, 64
1, 159600, Note_on_c, 9, 38, 80
1, 159840, Note_off_c, 9, 38, 64
1, 159840, Note_on_c, 9, 44, 80
1, 160080, Note_off_c, 9, 44, 64
1, 160080, Note_on_c, 9, 38, 80
1, 160320, Note_off_c, 9, 38, 64
1, 160320, Note_on_c, 9, 44, 80
1, 160800, Note_off_c, 9, 44, 64
1, 160800, Note_on_c, 9, 44, 80
1, 160800, Note_on_c, 9, 38, 80
1, 161280, Note_off_c, 9, 44, 64
1, 161280, Note_off_c, 9, 38, 64
1, 161280, Note_on_c, 9, 44, 80
1, 161520, Note_off_c, 9, 44, 64
1, 161520, Note_on_c, 9, 38, 80
1, 161760, Note_off_c, 9, 38, 64
1, 161760, Note_on_c, 9, 44, 80
1, 161760, Note_on_c, 9, 38, 80
1, 162000, Note_off_c, 9, 44, 64
1, 162000, Note_off_c, 9, 38, 64
1, 162000, Note_on_c, 9, 49, 80
1, 162000, Note_on_c, 9, 35, 80
1, 162240, Note_off_c, 9, 49, 64
1, 162240, Note_off_c, 9, 35, 64
1, 162240, Note_on_c, 9, 44, 80
1, 162720, Note_off_c, 9, 44, 64
1, 162720, Note_on_c, 9, 44, 80
1, 162720, Note_on_c, 9, 38, 80
1, 163200, Note_off_c, 9, 44, 64
1, 163200, Note_off_c, 9, 38, 64
1, 163200, Note_on_c, 9, 44, 80
1, 163200, Note_on_c, 9, 38, 80
1, 163440, Note_off_c, 9, 44, 64
1, 163440, Note_off_c, 9, 38, 64
1, 163440, Note_on_c, 9, 45, 80
1, 163680, Note_off_c, 9, 45, 64
1, 163680, Note_on_c, 9, 43, 80
1, 163680, Note_on_c, 9, 44, 80
1, 164160, Note_off_c, 9, 43, 64
1, 164160, Note_off_c, 9, 44, 64
1, 164160, Note_on_c, 9, 44, 80
1, 164160, Note_on_c, 9, 38, 80
1, 164400, Note_off_c, 9, 44, 64
1, 164400, Note_off_c, 9, 38, 64
1, 164400, Note_on_c, 9, 45, 80
1, 164640, Note_off_c, 9, 45, 64
1, 164640, Note_on_c, 9, 43, 80
1, 164640, Note_on_c, 9, 44, 80
1, 165120, Note_off_c, 9, 43, 64
1, 165120, Note_off_c, 9, 44, 64
1, 165120, Note_on_c, 9, 44, 80
1, 165120, Note_on_c, 9, 38, 80
1, 165360, Note_off_c, 9, 44, 64
1, 165360, Note_off_c, 9, 38, 64
1, 165360, Note_on_c, 9, 45, 80
1, 165600, Note_off_c, 9, 45, 64
1, 165600, Note_on_c, 9, 44, 80
1, 165600, Note_on_c, 9, 38, 80
1, 165840, Note_off_c, 9, 44, 64
1, 165840, Note_off_c, 9, 38, 64
1, 165840, Note_on_c, 9, 49, 80
1, 165840, Note_on_c, 9, 35, 80
1, 166080, Note_off_c, 9, 49, 64
1, 166080, Note_off_c, 9, 35, 64
1, 166080, Note_on_c, 9, 44, 80
1, 166560, Note_off_c, 9, 44, 64
1, 166560, Note_on_c, 9, 44, 80
1, 166560, Note_on_c, 9, 38, 80
1, 167040, Note_off_c, 9, 44, 64
1, 167040, Note_off_c, 9, 38, 64
1, 167040, Note_on_c, 9, 44, 80
1, 167040, Note_on_c, 9, 38, 80
1, 167280, Note_off_c, 9, 44, 64
1, 167280, Note_off_c, 9, 38, 64
1, 167280, Note_on_c, 9, 43, 80
1, 167280, Note_on_c, 9, 45, 80
1, 167520, Note_off_c, 9, 43, 64
1, 167520, Note_off_c, 9, 45, 64
1, 167520, Note_on_c, 9, 43, 80
1, 167520, Note_on_c, 9, 45, 80
1, 167760, Note_off_c, 9, 43, 64
1, 167760, Note_off_c, 9, 45, 64
1, 167760, Note_on_c, 9, 43, 80
1, 167760, Note_on_c, 9, 45, 80
1, 168000, Note_off_c, 9, 43, 64
1, 168000, Note_off_c, 9, 45, 64
1, 168000, Note_on_c, 9, 43, 80
1, 168000, Note_on_c, 9, 45, 80
1, 168240, Note_off_c, 9, 43, 64
1, 168240, Note_off_c, 9, 45, 64
1, 168240, Note_on_c, 9, 43, 80
1, 168240, Note_on_c, 9, 45, 80
1, 168480, Note_off_c, 9, 43, 64
1, 168480, Note_off_c, 9, 45, 64
1, 168480, Note_on_c, 9, 43, 80
1, 168480, Note_on_c, 9, 45, 80
1, 168720, Note_off_c, 9, 43, 64
1, 168720, Note_off_c, 9, 45, 64
1, 168720, Note_on_c, 9, 43, 80
1, 168720, Note_on_c, 9, 45, 80
1, 168960, Note_off_c, 9, 43, 64
1, 168960, Note_off_c, 9, 45, 64
1, 168960, Note_on_c, 9, 43, 80
1, 168960, Note_on_c, 9, 45, 80
1, 169200, Note_off_c, 9, 43, 64
1, 169200, Note_off_c, 9, 45, 64
1, 169200, Note_on_c, 9, 43, 80
1, 169200, Note_on_c, 9, 45, 80
1, 169440, Note_off_c, 9, 43, 64
1, 169440, Note_off_c, 9, 45, 64
1, 169440, Note_on_c, 9, 38, 80
1, 169680, Note_off_c, 9, 38, 64
1, 169680, Note_on_c, 9, 38, 80
1, 169920, Note_off_c, 9, 38, 64
1, 169920, Note_on_c, 9, 49, 80
1, 169920, Note_on_c, 9, 35, 80
1, 170160, Note_off_c, 9, 49, 64
1, 170160, Note_off_c, 9, 35, 64
1, 170160, Note_on_c, 9, 42, 80
1, 170400, Note_off_c, 9, 42, 64
1, 170400, Note_on_c, 9, 42, 80
1, 170400, Note_on_c, 9, 38, 80
1, 170640, Note_off_c, 9, 42, 64
1, 170640, Note_off_c, 9, 38, 64
1, 170640, Note_on_c, 9, 42, 80
1, 170880, Note_off_c, 9, 42, 64
1, 170880, Note_on_c, 9, 42, 80
1, 170880, Note_on_c, 9, 35, 80
1, 171120, Note_off_c, 9, 42, 64
1, 171120, Note_off_c, 9, 35, 64
1, 171120, Note_on_c, 9, 42, 80
1, 171360, Note_off_c, 9, 42, 64
1, 171360, Note_on_c, 9, 49, 80
1, 171360, Note_on_c, 9, 38, 80
1, 171600, Note_off_c, 9, 49, 64
1, 171600, Note_off_c, 9, 38, 64
1, 171600, Note_on_c, 9, 42, 80
1, 171840, Note_off_c, 9, 42, 64
1, 171840, Note_on_c, 9, 42, 80
1, 171840, Note_on_c, 9, 35, 80
1, 172080, Note_off_c, 9, 42, 64
1, 172080, Note_off_c, 9, 35, 64
1, 172080, Note_on_c, 9, 42, 80
1, 172320, Note_off_c, 9, 42, 64
1, 172320, Note_on_c, 9, 42, 80
1, 172320, Note_on_c, 9, 38, 80
1, 172560, Note_off_c, 9, 42, 64
1, 172560, Note_off_c, 9, 38, 64
1, 172560, Note_on_c, 9, 42, 80
1, 172800, Note_off_c, 9, 42, 64
1, 172800, Note_on_c, 9, 42, 80
1, 172800, Note_on_c, 9, 35, 80
1, 173040, Note_off_c, 9, 42, 64
1, 173040, Note_off_c, 9, 35, 64
1, 173040, Note_on_c, 9, 42, 80
1, 173280, Note_off_c, 9, 42, 64
1, 173280, Note_on_c, 9, 49, 80
1, 173280, Note_on_c, 9, 38, 80
1, 173760, Note_off_c, 9, 49, 64
1, 173760, Note_off_c, 9, 38, 64
1, 173760, Note_on_c, 9, 49, 80
1, 173760, Note_on_c, 9, 35, 80
1, 174000, Note_off_c, 9, 49, 64
1, 174000, Note_off_c, 9, 35, 64
1, 174000, Note_on_c, 9, 42, 80
1, 174240, Note_off_c, 9, 42, 64
1, 174240, Note_on_c, 9, 42, 80
1, 174240, Note_on_c, 9, 38, 80
1, 174480, Note_off_c, 9, 42, 64
1, 174480, Note_off_c, 9, 38, 64
1, 174480, Note_on_c, 9, 42, 80
1, 174720, Note_off_c, 9, 42, 64
1, 174720, Note_on_c, 9, 42, 80
1, 174720, Note_on_c, 9, 35, 80
1, 174960, Note_off_c, 9, 42, 64
1, 174960, Note_off_c, 9, 35, 64
1, 174960, Note_on_c, 9, 42, 80
1, 175200, Note_off_c, 9, 42, 64
1, 175200, Note_on_c, 9, 49, 80
1, 175200, Note_on_c, 9, 38, 80
1, 175440, Note_off_c, 9, 49, 64
1, 175440, Note_off_c, 9, 38, 64
1, 175440, Note_on_c, 9, 42, 80
1, 175680, Note_off_c, 9, 42, 64
1, 175680, Note_on_c, 9, 42, 80
1, 175680, Note_on_c, 9, 35, 80
1, 175920, Note_off_c, 9, 42, 64
1, 175920, Note_off_c, 9, 35, 64
1, 175920, Note_on_c, 9, 42, 80
1, 176160, Note_off_c, 9, 42, 64
1, 176160, Note_on_c, 9, 42, 80
1, 176160, Note_on_c, 9, 38, 80
1, 176400, Note_off_c, 9, 42, 64
1, 176400, Note_off_c, 9, 38, 64
1, 176400, Note_on_c, 9, 42, 80
1, 176640, Note_off_c, 9, 42, 64
1, 176640, Note_on_c, 9, 42, 80
1, 176640, Note_on_c, 9, 35, 80
1, 176880, Note_off_c, 9, 42, 64
1, 176880, Note_off_c, 9, 35, 64
1, 176880, Note_on_c, 9, 42, 80
1, 177120, Note_off_c, 9, 42, 64
1, 177120, Note_on_c, 9, 49, 80
1, 177120, Note_on_c, 9, 38, 80
1, 177600, Note_off_c, 9, 49, 64
1, 177600, Note_off_c, 9, 38, 64
1, 177600, Note_on_c, 9, 49, 80
1, 177600, Note_on_c, 9, 35, 80
1, 177840, Note_off_c, 9, 49, 64
1, 177840, Note_off_c, 9, 35, 64
1, 177840, Note_on_c, 9, 42, 80
1, 178080, Note_off_c, 9, 42, 64
1, 178080, Note_on_c, 9, 42, 80
1, 178080, Note_on_c, 9, 38, 80
1, 178320, Note_off_c, 9, 42, 64
1, 178320, Note_off_c, 9, 38, 64
1, 178320, Note_on_c, 9, 42, 80
1, 178560, Note_off_c, 9, 42, 64
1, 178560, Note_on_c, 9, 42, 80
1, 178560, Note_on_c, 9, 35, 80
1, 178800, Note_off_c, 9, 42, 64
1, 178800, Note_off_c, 9, 35, 64
1, 178800, Note_on_c, 9, 42, 80
1, 179040, Note_off_c, 9, 42, 64
1, 179040, Note_on_c, 9, 49, 80
1, 179040, Note_on_c, 9, 38, 80
1, 179280, Note_off_c, 9, 49, 64
1, 179280, Note_off_c, 9, 38, 64
1, 179280, Note_on_c, 9, 42, 80
1, 179520, Note_off_c, 9, 42, 64
1, 179520, Note_on_c, 9, 42, 80
1, 179520, Note_on_c, 9, 35, 80
1, 179760, Note_off_c, 9, 42, 64
1, 179760, Note_off_c, 9, 35, 64
1, 179760, Note_on_c, 9, 42, 80
1, 180000, Note_off_c, 9, 42, 64
1, 180000, Note_on_c, 9, 42, 80
1, 180000, Note_on_c, 9, 38, 80
1, 180240, Note_off_c, 9, 42, 64
1, 180240, Note_off_c, 9, 38, 64
1, 180240, Note_on_c, 9, 42, 80
1, 180480, Note_off_c, 9, 42, 64
1, 180480, Note_on_c, 9, 42, 80
1, 180480, Note_on_c, 9, 35, 80
1, 180720, Note_off_c, 9, 42, 64
1, 180720, Note_off_c, 9, 35, 64
1, 180720, Note_on_c, 9, 42, 80
1, 180960, Note_off_c, 9, 42, 64
1, 180960, Note_on_c, 9, 49, 80
1, 180960, Note_on_c, 9, 38, 80
1, 181440, Note_off_c, 9, 49, 64
1, 181440, Note_off_c, 9, 38, 64
1, 181440, Note_on_c, 9, 49, 80
1, 181440, Note_on_c, 9, 35, 80
1, 181680, Note_off_c, 9, 49, 64
1, 181680, Note_off_c, 9, 35, 64
1, 181680, Note_on_c, 9, 42, 80
1, 181920, Note_off_c, 9, 42, 64
1, 181920, Note_on_c, 9, 42, 80
1, 181920, Note_on_c, 9, 38, 80
1, 182160, Note_off_c, 9, 42, 64
1, 182160, Note_off_c, 9, 38, 64
1, 182160, Note_on_c, 9, 42, 80
1, 182400, Note_off_c, 9, 42, 64
1, 182400, Note_on_c, 9, 42, 80
1, 182400, Note_on_c, 9, 35, 80
1, 182640, Note_off_c, 9, 42, 64
1, 182640, Note_off_c, 9, 35, 64
1, 182640, Note_on_c, 9, 42, 80
1, 182880, Note_off_c, 9, 42, 64
1, 182880, Note_on_c, 9, 49, 80
1, 182880, Note_on_c, 9, 38, 80
1, 183120, Note_off_c, 9, 49, 64
1, 183120, Note_off_c, 9, 38, 64
1, 183120, Note_on_c, 9, 42, 80
1, 183360, Note_off_c, 9, 42, 64
1, 183360, Note_on_c, 9, 42, 80
1, 183360, Note_on_c, 9, 35, 80
1, 183600, Note_off_c, 9, 42, 64
1, 183600, Note_off_c, 9, 35, 64
1, 183600, Note_on_c, 9, 42, 80
1, 183840, Note_off_c, 9, 42, 64
1, 183840, Note_on_c, 9, 42, 80
1, 183840, Note_on_c, 9, 38, 80
1, 184080, Note_off_c, 9, 42, 64
1, 184080, Note_off_c, 9, 38, 64
1, 184080, Note_on_c, 9, 42, 80
1, 184320, Note_off_c, 9, 42, 64
1, 184320, Note_on_c, 9, 42, 80
1, 184320, Note_on_c, 9, 35, 80
1, 184560, Note_off_c, 9, 42, 64
1, 184560, Note_off_c, 9, 35, 64
1, 184560, Note_on_c, 9, 42, 80
1, 184800, Note_off_c, 9, 42, 64
1, 184800, Note_on_c, 9, 49, 80
1, 184800, Note_on_c, 9, 38, 80
1, 185280, Note_off_c, 9, 49, 64
1, 185280, Note_off_c, 9, 38, 64
1, 185280, Note_on_c, 9, 49, 80
1, 185280, Note_on_c, 9, 35, 80
1, 185520, Note_off_c, 9, 49, 64
1, 185520, Note_off_c, 9, 35, 64
1, 185520, Note_on_c, 9, 42, 80
1, 185760, Note_off_c, 9, 42, 64
1, 185760, Note_on_c, 9, 42, 80
1, 185760, Note_on_c, 9, 38, 80
1, 186000, Note_off_c, 9, 42, 64
1, 186000, Note_off_c, 9, 38, 64
1, 186000, Note_on_c, 9, 49, 80
1, 186000, Note_on_c, 9, 38, 80
1, 186240, Note_off_c, 9, 49, 64
1, 186240, Note_off_c, 9, 38, 64
1, 186240, Note_on_c, 9, 42, 80
1, 186240, Note_on_c, 9, 35, 80
1, 186480, Note_off_c, 9, 42, 64
1, 186480, Note_off_c, 9, 35, 64
1, 186480, Note_on_c, 9, 42, 80
1, 186720, Note_off_c, 9, 42, 64
1, 186720, Note_on_c, 9, 49, 80
1, 186720, Note_on_c, 9, 38, 80
1, 186960, Note_off_c, 9, 49, 64
1, 186960, Note_off_c, 9, 38, 64
1, 186960, Note_on_c, 9, 42, 80
1, 187200, Note_off_c, 9, 42, 64
1, 187200, Note_on_c, 9, 42, 80
1, 187200, Note_on_c, 9, 35, 80
1, 187440, Note_off_c, 9, 42, 64
1, 187440, Note_off_c, 9, 35, 64
1, 187440, Note_on_c, 9, 42, 80
1, 187680, Note_off_c, 9, 42, 64
1, 187680, Note_on_c, 9, 42, 80
1, 187680, Note_on_c, 9, 38, 80
1, 187920, Note_off_c, 9, 42, 64
1, 187920, Note_off_c, 9, 38, 64
1, 187920, Note_on_c, 9, 42, 80
1, 188160, Note_off_c, 9, 42, 64
1, 188160, Note_on_c, 9, 42, 80
1, 188160, Note_on_c, 9, 35, 80
1, 188400, Note_off_c, 9, 42, 64
1, 188400, Note_off_c, 9, 35, 64
1, 188400, Note_on_c, 9, 42, 80
1, 188640, Note_off_c, 9, 42, 64
1, 188640, Note_on_c, 9, 42, 80
1, 188640, Note_on_c, 9, 38, 80
1, 188880, Note_off_c, 9, 42, 64
1, 188880, Note_off_c, 9, 38, 64
1, 188880, Note_on_c, 9, 42, 80
1, 189120, Note_off_c, 9, 42, 64
1, 189120, Note_on_c, 9, 49, 80
1, 189120, Note_on_c, 9, 35, 80
1, 189360, Note_off_c, 9, 49, 64
1, 189360, Note_off_c, 9, 35, 64
1, 189360, Note_on_c, 9, 42, 80
1, 189600, Note_off_c, 9, 42, 64
1, 189600, Note_on_c, 9, 42, 80
1, 189600, Note_on_c, 9, 38, 80
1, 189840, Note_off_c, 9, 42, 64
1, 189840, Note_off_c, 9, 38, 64
1, 189840, Note_on_c, 9, 49, 80
1, 189840, Note_on_c, 9, 38, 80
1, 190080, Note_off_c, 9, 49, 64
1, 190080, Note_off_c, 9, 38, 64
1, 190080, Note_on_c, 9, 42, 80
1, 190080, Note_on_c, 9, 35, 80
1, 190320, Note_off_c, 9, 42, 64
1, 190320, Note_off_c, 9, 35, 64
1, 190320, Note_on_c, 9, 42, 80
1, 190560, Note_off_c, 9, 42, 64
1, 190560, Note_on_c, 9, 49, 80
1, 190560, Note_on_c, 9, 38, 80
1, 190800, Note_off_c, 9, 49, 64
1, 190800, Note_off_c, 9, 38, 64
1, 190800, Note_on_c, 9, 42, 80
1, 191040, Note_off_c, 9, 42, 64
1, 191040, Note_on_c, 9, 42, 80
1, 191040, Note_on_c, 9, 35, 80
1, 191280, Note_off_c, 9, 42, 64
1, 191280, Note_off_c, 9, 35, 64
1, 191280, Note_on_c, 9, 42, 80
1, 191520, Note_off_c, 9, 42, 64
1, 191520, Note_on_c, 9, 42, 80
1, 191520, Note_on_c, 9, 38, 80
1, 191760, Note_off_c, 9, 42, 64
1, 191760, Note_off_c, 9, 38, 64
1, 191760, Note_on_c, 9, 42, 80
1, 192000, Note_off_c, 9, 42, 64
1, 192000, Note_on_c, 9, 42, 80
1, 192000, Note_on_c, 9, 35, 80
1, 192240, Note_off_c, 9, 42, 64
1, 192240, Note_off_c, 9, 35, 64
1, 192240, Note_on_c, 9, 42, 80
1, 192240, Note_on_c, 9, 35, 80
1, 192480, Note_off_c, 9, 42, 64
1, 192480, Note_off_c, 9, 35, 64
1, 192480, Note_on_c, 9, 42, 80
1, 192480, Note_on_c, 9, 38, 80
1, 192720, Note_off_c, 9, 42, 64
1, 192720, Note_off_c, 9, 38, 64
1, 192720, Note_on_c, 9, 42, 80
1, 192960, Note_off_c, 9, 42, 64
1, 192960, Note_on_c, 9, 49, 80
1, 192960, Note_on_c, 9, 35, 80
1, 193200, Note_off_c, 9, 49, 64
1, 193200, Note_off_c, 9, 35, 64
1, 193200, Note_on_c, 9, 42, 80
1, 193440, Note_off_c, 9, 42, 64
1, 193440, Note_on_c, 9, 42, 80
1, 193440, Note_on_c, 9, 38, 80
1, 193680, Note_off_c, 9, 42, 64
1, 193680, Note_off_c, 9, 38, 64
1, 193680, Note_on_c, 9, 49, 80
1, 193680, Note_on_c, 9, 38, 80
1, 193920, Note_off_c, 9, 49, 64
1, 193920, Note_off_c, 9, 38, 64
1, 193920, Note_on_c, 9, 42, 80
1, 193920, Note_on_c, 9, 35, 80
1, 194160, Note_off_c, 9, 42, 64
1, 194160, Note_off_c, 9, 35, 64
1, 194160, Note_on_c, 9, 42, 80
1, 194400, Note_off_c, 9, 42, 64
1, 194400, Note_on_c, 9, 49, 80
1, 194400, Note_on_c, 9, 38, 80
1, 194640, Note_off_c, 9, 49, 64
1, 194640, Note_off_c, 9, 38, 64
1, 194640, Note_on_c, 9, 42, 80
1, 194880, Note_off_c, 9, 42, 64
1, 194880, Note_on_c, 9, 42, 80
1, 194880, Note_on_c, 9, 35, 80
1, 195120, Note_off_c, 9, 42, 64
1, 195120, Note_off_c, 9, 35, 64
1, 195120, Note_on_c, 9, 42, 80
1, 195360, Note_off_c, 9, 42, 64
1, 195360, Note_on_c, 9, 42, 80
1, 195360, Note_on_c, 9, 38, 80
1, 195600, Note_off_c, 9, 42, 64
1, 195600, Note_off_c, 9, 38, 64
1, 195600, Note_on_c, 9, 42, 80
1, 195840, Note_off_c, 9, 42, 64
1, 195840, Note_on_c, 9, 42, 80
1, 195840, Note_on_c, 9, 35, 80
1, 196080, Note_off_c, 9, 42, 64
1, 196080, Note_off_c, 9, 35, 64
1, 196080, Note_on_c, 9, 42, 80
1, 196320, Note_off_c, 9, 42, 64
1, 196320, Note_on_c, 9, 42, 80
1, 196320, Note_on_c, 9, 38, 80
1, 196560, Note_off_c, 9, 42, 64
1, 196560, Note_off_c, 9, 38, 64
1, 196560, Note_on_c, 9, 42, 80
1, 196800, Note_off_c, 9, 42, 64
1, 196800, Note_on_c, 9, 35, 80
1, 197040, Note_off_c, 9, 35, 64
1, 197040, Note_on_c, 9, 49, 80
1, 197040, Note_on_c, 9, 38, 80
1, 197280, Note_off_c, 9, 49, 64
1, 197280, Note_off_c, 9, 38, 64
1, 197280, Note_on_c, 9, 35, 80
1, 197520, Note_off_c, 9, 35, 64
1, 197520, Note_on_c, 9, 35, 80
1, 197760, Note_off_c, 9, 35, 64
1, 197760, Note_on_c, 9, 49, 80
1, 197760, Note_on_c, 9, 38, 80
1, 198000, Note_off_c, 9, 49, 64
1, 198000, Note_off_c, 9, 38, 64
1, 198000, Note_on_c, 9, 35, 80
1, 198240, Note_off_c, 9, 35, 64
1, 198240, Note_on_c, 9, 35, 80
1, 198480, Note_off_c, 9, 35, 64
1, 198480, Note_on_c, 9, 49, 80
1, 198480, Note_on_c, 9, 38, 80
1, 198720, Note_off_c, 9, 49, 64
1, 198720, Note_off_c, 9, 38, 64
1, 198720, Note_on_c, 9, 35, 80
1, 198960, Note_off_c, 9, 35, 64
1, 198960, Note_on_c, 9, 35, 80
1, 199200, Note_off_c, 9, 35, 64
1, 199200, Note_on_c, 9, 49, 80
1, 199200, Note_on_c, 9, 38, 80
1, 199440, Note_off_c, 9, 49, 64
1, 199440, Note_off_c, 9, 38, 64
1, 199440, Note_on_c, 9, 35, 80
1, 199680, Note_off_c, 9, 35, 64
1, 199680, Note_on_c, 9, 35, 80
1, 199920, Note_off_c, 9, 35, 64
1, 199920, Note_on_c, 9, 49, 80
1, 199920, Note_on_c, 9, 38, 80
1, 200160, Note_off_c, 9, 49, 64
1, 200160, Note_off_c, 9, 38, 64
1, 200160, Note_on_c, 9, 35, 80
1, 200640, Note_off_c, 9, 35, 64
1, 200640, Note_on_c, 9, 49, 80
1, 200640, Note_on_c, 9, 35, 80
1, 200880, Note_off_c, 9, 49, 64
1, 200880, Note_off_c, 9, 35, 64
1, 200880, Note_on_c, 9, 42, 80
1, 201120, Note_off_c, 9, 42, 64
1, 201120, Note_on_c, 9, 42, 80
1, 201120, Note_on_c, 9, 38, 80
1, 201360, Note_off_c, 9, 42, 64
1, 201360, Note_off_c, 9, 38, 64
1, 201360, Note_on_c, 9, 42, 80
1, 201600, Note_off_c, 9, 42, 64
1, 201600, Note_on_c, 9, 42, 80
1, 201600, Note_on_c, 9, 35, 80
1, 201840, Note_off_c, 9, 42, 64
1, 201840, Note_off_c, 9, 35, 64
1, 201840, Note_on_c, 9, 42, 80
1, 202080, Note_off_c, 9, 42, 64
1, 202080, Note_on_c, 9, 42, 80
1, 202080, Note_on_c, 9, 38, 80
1, 202320, Note_off_c, 9, 42, 64
1, 202320, Note_off_c, 9, 38, 64
1, 202320, Note_on_c, 9, 42, 80
1, 202560, Note_off_c, 9, 42, 64
1, 202560, Note_on_c, 9, 42, 80
1, 202560, Note_on_c, 9, 35, 80
1, 202800, Note_off_c, 9, 42, 64
1, 202800, Note_off_c, 9, 35, 64
1, 202800, Note_on_c, 9, 42, 80
1, 203040, Note_off_c, 9, 42, 64
1, 203040, Note_on_c, 9, 42, 80
1, 203040, Note_on_c, 9, 38, 80
1, 203280, Note_off_c, 9, 42, 64
1, 203280, Note_off_c, 9, 38, 64
1, 203280, Note_on_c, 9, 42, 80
1, 203520, Note_off_c, 9, 42, 64
1, 203520, Note_on_c, 9, 42, 80
1, 203520, Note_on_c, 9, 35, 80
1, 203760, Note_off_c, 9, 42, 64
1, 203760, Note_off_c, 9, 35, 64
1, 203760, Note_on_c, 9, 42, 80
1, 204000, Note_off_c, 9, 42, 64
1, 204000, Note_on_c, 9, 42, 80
1, 204000, Note_on_c, 9, 38, 80
1, 204240, Note_off_c, 9, 42, 64
1, 204240, Note_off_c, 9, 38, 64
1, 204240, Note_on_c, 9, 42, 80
1, 204480, Note_off_c, 9, 42, 64
1, 204480, Note_on_c, 9, 42, 80
1, 204480, Note_on_c, 9, 35, 80
1, 204720, Note_off_c, 9, 42, 64
1, 204720, Note_off_c, 9, 35, 64
1, 204720, Note_on_c, 9, 42, 80
1, 204960, Note_off_c, 9, 42, 64
1, 204960, Note_on_c, 9, 42, 80
1, 204960, Note_on_c, 9, 38, 80
1, 205200, Note_off_c, 9, 42, 64
1, 205200, Note_off_c, 9, 38, 64
1, 205200, Note_on_c, 9, 42, 80
1, 205440, Note_off_c, 9, 42, 64
1, 205440, Note_on_c, 9, 42, 80
1, 205440, Note_on_c, 9, 35, 80
1, 205680, Note_off_c, 9, 42, 64
1, 205680, Note_off_c, 9, 35, 64
1, 205680, Note_on_c, 9, 42, 80
1, 205920, Note_off_c, 9, 42, 64
1, 205920, Note_on_c, 9, 42, 80
1, 205920, Note_on_c, 9, 38, 80
1, 206160, Note_off_c, 9, 42, 64
1, 206160, Note_off_c, 9, 38, 64
1, 206160, Note_on_c, 9, 42, 80
1, 206400, Note_off_c, 9, 42, 64
1, 206400, Note_on_c, 9, 42, 80
1, 206400, Note_on_c, 9, 35, 80
1, 206640, Note_off_c, 9, 42, 64
1, 206640, Note_off_c, 9, 35, 64
1, 206640, Note_on_c, 9, 42, 80
1, 206880, Note_off_c, 9, 42, 64
1, 206880, Note_on_c, 9, 42, 80
1, 206880, Note_on_c, 9, 38, 80
1, 207120, Note_off_c, 9, 42, 64
1, 207120, Note_off_c, 9, 38, 64
1, 207120, Note_on_c, 9, 42, 80
1, 207360, Note_off_c, 9, 42, 64
1, 207360, Note_on_c, 9, 42, 80
1, 207360, Note_on_c, 9, 35, 80
1, 207600, Note_off_c, 9, 42, 64
1, 207600, Note_off_c, 9, 35, 64
1, 207600, Note_on_c, 9, 42, 80
1, 207840, Note_off_c, 9, 42, 64
1, 207840, Note_on_c, 9, 42, 80
1, 207840, Note_on_c, 9, 38, 80
1, 208080, Note_off_c, 9, 42, 64
1, 208080, Note_off_c, 9, 38, 64
1, 208080, Note_on_c, 9, 42, 80
1, 208320, Note_off_c, 9, 42, 64
1, 208320, Note_on_c, 9, 49, 80
1, 208320, Note_on_c, 9, 35, 80
1, 208560, Note_off_c, 9, 49, 64
1, 208560, Note_off_c, 9, 35, 64
1, 208560, Note_on_c, 9, 42, 80
1, 208800, Note_off_c, 9, 42, 64
1, 208800, Note_on_c, 9, 42, 80
1, 208800, Note_on_c, 9, 38, 80
1, 209040, Note_off_c, 9, 42, 64
1, 209040, Note_off_c, 9, 38, 64
1, 209040, Note_on_c, 9, 42, 80
1, 209280, Note_off_c, 9, 42, 64
1, 209280, Note_on_c, 9, 42, 80
1, 209280, Note_on_c, 9, 35, 80
1, 209520, Note_off_c, 9, 42, 64
1, 209520, Note_off_c, 9, 35, 64
1, 209520, Note_on_c, 9, 42, 80
1, 209760, Note_off_c, 9, 42, 64
1, 209760, Note_on_c, 9, 42, 80
1, 209760, Note_on_c, 9, 38, 80
1, 210000, Note_off_c, 9, 42, 64
1, 210000, Note_off_c, 9, 38, 64
1, 210000, Note_on_c, 9, 42, 80
1, 210240, Note_off_c, 9, 42, 64
1, 210240, Note_on_c, 9, 42, 80
1, 210240, Note_on_c, 9, 35, 80
1, 210480, Note_off_c, 9, 42, 64
1, 210480, Note_off_c, 9, 35, 64
1, 210480, Note_on_c, 9, 42, 80
1, 210720, Note_off_c, 9, 42, 64
1, 210720, Note_on_c, 9, 42, 80
1, 210720, Note_on_c, 9, 38, 80
1, 210960, Note_off_c, 9, 42, 64
1, 210960, Note_off_c, 9, 38, 64
1, 210960, Note_on_c, 9, 42, 80
1, 211200, Note_off_c, 9, 42, 64
1, 211200, Note_on_c, 9, 42, 80
1, 211200, Note_on_c, 9, 35, 80
1, 211440, Note_off_c, 9, 42, 64
1, 211440, Note_off_c, 9, 35, 64
1, 211440, Note_on_c, 9, 42, 80
1, 211680, Note_off_c, 9, 42, 64
1, 211680, Note_on_c, 9, 42, 80
1, 211680, Note_on_c, 9, 38, 80
1, 211920, Note_off_c, 9, 42, 64
1, 211920, Note_off_c, 9, 38, 64
1, 211920, Note_on_c, 9, 42, 80
1, 212160, Note_off_c, 9, 42, 64
1, 212160, Note_on_c, 9, 42, 80
1, 212160, Note_on_c, 9, 35, 80
1, 212400, Note_off_c, 9, 42, 64
1, 212400, Note_off_c, 9, 35, 64
1, 212400, Note_on_c, 9, 42, 80
1, 212640, Note_off_c, 9, 42, 64
1, 212640, Note_on_c, 9, 42, 80
1, 212640, Note_on_c, 9, 38, 80
1, 212880, Note_off_c, 9, 42, 64
1, 212880, Note_off_c, 9, 38, 64
1, 212880, Note_on_c, 9, 42, 80
1, 213120, Note_off_c, 9, 42, 64
1, 213120, Note_on_c, 9, 42, 80
1, 213120, Note_on_c, 9, 35, 80
1, 213360, Note_off_c, 9, 42, 64
1, 213360, Note_off_c, 9, 35, 64
1, 213360, Note_on_c, 9, 42, 80
1, 213600, Note_off_c, 9, 42, 64
1, 213600, Note_on_c, 9, 42, 80
1, 213600, Note_on_c, 9, 38, 80
1, 213840, Note_off_c, 9, 42, 64
1, 213840, Note_off_c, 9, 38, 64
1, 213840, Note_on_c, 9, 42, 80
1, 214080, Note_off_c, 9, 42, 64
1, 214080, Note_on_c, 9, 42, 80
1, 214080, Note_on_c, 9, 35, 80
1, 214320, Note_off_c, 9, 42, 64
1, 214320, Note_off_c, 9, 35, 64
1, 214320, Note_on_c, 9, 42, 80
1, 214560, Note_off_c, 9, 42, 64
1, 214560, Note_on_c, 9, 42, 80
1, 214560, Note_on_c, 9, 38, 80
1, 214800, Note_off_c, 9, 42, 64
1, 214800, Note_off_c, 9, 38, 64
1, 214800, Note_on_c, 9, 42, 80
1, 215040, Note_off_c, 9, 42, 64
1, 215040, Note_on_c, 9, 42, 80
1, 215040, Note_on_c, 9, 35, 80
1, 215280, Note_off_c, 9, 42, 64
1, 215280, Note_off_c, 9, 35, 64
1, 215280, Note_on_c, 9, 42, 80
1, 215520, Note_off_c, 9, 42, 64
1, 215520, Note_on_c, 9, 42, 80
1, 215520, Note_on_c, 9, 38, 80
1, 215760, Note_off_c, 9, 42, 64
1, 215760, Note_off_c, 9, 38, 64
1, 215760, Note_on_c, 9, 42, 80
1, 216000, Note_off_c, 9, 42, 64
1, 216000, Note_on_c, 9, 49, 80
1, 216000, Note_on_c, 9, 35, 80
1, 216240, Note_off_c, 9, 49, 64
1, 216240, Note_off_c, 9, 35, 64
1, 216240, Note_on_c, 9, 42, 80
1, 216480, Note_off_c, 9, 42, 64
1, 216480, Note_on_c, 9, 42, 80
1, 216480, Note_on_c, 9, 38, 80
1, 216720, Note_off_c, 9, 42, 64
1, 216720, Note_off_c, 9, 38, 64
1, 216720, Note_on_c, 9, 42, 80
1, 216960, Note_off_c, 9, 42, 64
1, 216960, Note_on_c, 9, 42, 80
1, 216960, Note_on_c, 9, 35, 80
1, 217200, Note_off_c, 9, 42, 64
1, 217200, Note_off_c, 9, 35, 64
1, 217200, Note_on_c, 9, 42, 80
1, 217440, Note_off_c, 9, 42, 64
1, 217440, Note_on_c, 9, 42, 80
1, 217440, Note_on_c, 9, 38, 80
1, 217680, Note_off_c, 9, 42, 64
1, 217680, Note_off_c, 9, 38, 64
1, 217680, Note_on_c, 9, 42, 80
1, 217920, Note_off_c, 9, 42, 64
1, 217920, Note_on_c, 9, 42, 80
1, 217920, Note_on_c, 9, 35, 80
1, 218160, Note_off_c, 9, 42, 64
1, 218160, Note_off_c, 9, 35, 64
1, 218160, Note_on_c, 9, 42, 80
1, 218400, Note_off_c, 9, 42, 64
1, 218400, Note_on_c, 9, 42, 80
1, 218400, Note_on_c, 9, 38, 80
1, 218640, Note_off_c, 9, 42, 64
1, 218640, Note_off_c, 9, 38, 64
1, 218640, Note_on_c, 9, 42, 80
1, 218880, Note_off_c, 9, 42, 64
1, 218880, Note_on_c, 9, 42, 80
1, 218880, Note_on_c, 9, 35, 80
1, 219120, Note_off_c, 9, 42, 64
1, 219120, Note_off_c, 9, 35, 64
1, 219120, Note_on_c, 9, 42, 80
1, 219360, Note_off_c, 9, 42, 64
1, 219360, Note_on_c, 9, 42, 80
1, 219360, Note_on_c, 9, 38, 80
1, 219600, Note_off_c, 9, 42, 64
1, 219600, Note_off_c, 9, 38, 64
1, 219600, Note_on_c, 9, 42, 80
1, 219840, Note_off_c, 9, 42, 64
1, 219840, Note_on_c, 9, 42, 80
1, 219840, Note_on_c, 9, 35, 80
1, 220080, Note_off_c, 9, 42, 64
1, 220080, Note_off_c, 9, 35, 64
1, 220080, Note_on_c, 9, 42, 80
1, 220320, Note_off_c, 9, 42, 64
1, 220320, Note_on_c, 9, 42, 80
1, 220320, Note_on_c, 9, 38, 80
1, 220560, Note_off_c, 9, 42, 64
1, 220560, Note_off_c, 9, 38, 64
1, 220560, Note_on_c, 9, 42, 80
1, 220800, Note_off_c, 9, 42, 64
1, 220800, Note_on_c, 9, 42, 80
1, 220800, Note_on_c, 9, 35, 80
1, 221040, Note_off_c, 9, 42, 64
1, 221040, Note_off_c, 9, 35, 64
1, 221040, Note_on_c, 9, 42, 80
1, 221280, Note_off_c, 9, 42, 64
1, 221280, Note_on_c, 9, 42, 80
1, 221280, Note_on_c, 9, 38, 80
1, 221520, Note_off_c, 9, 42, 64
1, 221520, Note_off_c, 9, 38, 64
1, 221520, Note_on_c, 9, 42, 80
1, 221760, Note_off_c, 9, 42, 64
1, 221760, Note_on_c, 9, 42, 80
1, 221760, Note_on_c, 9, 35, 80
1, 222000, Note_off_c, 9, 42, 64
1, 222000, Note_off_c, 9, 35, 64
1, 222000, Note_on_c, 9, 42, 80
1, 222240, Note_off_c, 9, 42, 64
1, 222240, Note_on_c, 9, 45, 80
1, 222480, Note_off_c, 9, 45, 64
1, 222480, Note_on_c, 9, 43, 80
1, 222720, Note_off_c, 9, 43, 64
1, 222720, Note_on_c, 9, 38, 80
1, 223200, Note_off_c, 9, 38, 64
1, 223200, Note_on_c, 9, 45, 80
1, 223440, Note_off_c, 9, 45, 64
1, 223440, Note_on_c, 9, 43, 80
1, 223680, Note_off_c, 9, 43, 64
1, 223680, Note_on_c, 9, 49, 80
1, 223680, Note_on_c, 9, 35, 80
1, 225600, Note_off_c, 9, 49, 64
1, 225600, Note_off_c, 9, 35, 64
1, 225600, Note_on_c, 9, 49, 80
1, 225600, Note_on_c, 9, 35, 80
1, 227520, Note_off_c, 9, 49, 64
1, 227520, Note_off_c, 9, 35, 64
1, 227520, Note_on_c, 9, 49, 80
1, 227520, Note_on_c, 9, 35, 80
1, 229440, Note_off_c, 9, 49, 64
1, 229440, Note_off_c, 9, 35, 64
1, 231360, Note_on_c, 9, 43, 80
1, 231360, Note_on_c, 9, 35, 80
1, 231600, Note_off_c, 9, 43, 64
1, 231600, Note_off_c, 9, 35, 64
1, 231600, Note_on_c, 9, 43, 80
1, 231840, Note_off_c, 9, 43, 64
1, 231840, Note_on_c, 9, 43, 80
1, 231840, Note_on_c, 9, 35, 80
1, 232080, Note_off_c, 9, 43, 64
1, 232080, Note_off_c, 9, 35, 64
1, 232080, Note_on_c, 9, 43, 80
1, 232320, Note_off_c, 9, 43, 64
1, 232320, Note_on_c, 9, 43, 80
1, 232320, Note_on_c, 9, 35, 80
1, 232560, Note_off_c, 9, 43, 64
1, 232560, Note_off_c, 9, 35, 64
1, 232560, Note_on_c, 9, 43, 80
1, 232800, Note_off_c, 9, 43, 64
1, 232800, Note_on_c, 9, 43, 80
1, 232800, Note_on_c, 9, 35, 80
1, 233040, Note_off_c, 9, 43, 64
1, 233040, Note_off_c, 9, 35, 64
1, 233040, Note_on_c, 9, 45, 80
1, 233040, Note_on_c, 9, 43, 80
1, 233280, Note_off_c, 9, 45, 64
1, 233280, Note_off_c, 9, 43, 64
1, 233280, Note_on_c, 9, 43, 80
1, 233280, Note_on_c, 9, 35, 80
1, 233520, Note_off_c, 9, 43, 64
1, 233520, Note_off_c, 9, 35, 64
1, 233520, Note_on_c, 9, 43, 80
1, 233760, Note_off_c, 9, 43, 64
1, 233760, Note_on_c, 9, 43, 80
1, 233760, Note_on_c, 9, 35, 80
1, 234000, Note_off_c, 9, 43, 64
1, 234000, Note_off_c, 9, 35, 64
1, 234000, Note_on_c, 9, 43, 80
1, 234240, Note_off_c, 9, 43, 64
1, 234240, Note_on_c, 9, 43, 80
1, 234240, Note_on_c, 9, 35, 80
1, 234480, Note_off_c, 9, 43, 64
1, 234480, Note_off_c, 9, 35, 64
1, 234480, Note_on_c, 9, 43, 80
1, 234720, Note_off_c, 9, 43, 64
1, 234720, Note_on_c, 9, 43, 80
1, 234720, Note_on_c, 9, 35, 80
1, 234960, Note_off_c, 9, 43, 64
1, 234960, Note_off_c, 9, 35, 64
1, 234960, Note_on_c, 9, 45, 80
1, 234960, Note_on_c, 9, 43, 80
1, 235200, Note_off_c, 9, 45, 64
1, 235200, Note_off_c, 9, 43, 64
1, 235200, Note_on_c, 9, 43, 80
1, 235200, Note_on_c, 9, 35, 80
1, 235440, Note_off_c, 9, 43, 64
1, 235440, Note_off_c, 9, 35, 64
1, 235440, Note_on_c, 9, 43, 80
1, 235680, Note_off_c, 9, 43, 64
1, 235680, Note_on_c, 9, 43, 80
1, 235680, Note_on_c, 9, 35, 80
1, 235920, Note_off_c, 9, 43, 64
1, 235920, Note_off_c, 9, 35, 64
1, 235920, Note_on_c, 9, 43, 80
1, 236160, Note_off_c, 9, 43, 64
1, 236160, Note_on_c, 9, 43, 80
1, 236160, Note_on_c, 9, 35, 80
1, 236400, Note_off_c, 9, 43, 64
1, 236400, Note_off_c, 9, 35, 64
1, 236400, Note_on_c, 9, 43, 80
1, 236640, Note_off_c, 9, 43, 64
1, 236640, Note_on_c, 9, 43, 80
1, 236640, Note_on_c, 9, 35, 80
1, 236880, Note_off_c, 9, 43, 64
1, 236880, Note_off_c, 9, 35, 64
1, 236880, Note_on_c, 9, 45, 80
1, 236880, Note_on_c, 9, 43, 80
1, 237120, Note_off_c, 9, 45, 64
1, 237120, Note_off_c, 9, 43, 64
1, 237120, Note_on_c, 9, 43, 80
1, 237120, Note_on_c, 9, 35, 80
1, 237360, Note_off_c, 9, 43, 64
1, 237360, Note_off_c, 9, 35, 64
1, 237360, Note_on_c, 9, 43, 80
1, 237600, Note_off_c, 9, 43, 64
1, 237600, Note_on_c, 9, 43, 80
1, 237600, Note_on_c, 9, 35, 80
1, 237840, Note_off_c, 9, 43, 64
1, 237840, Note_off_c, 9, 35, 64
1, 237840, Note_on_c, 9, 43, 80
1, 238080, Note_off_c, 9, 43, 64
1, 238080, Note_on_c, 9, 43, 80
1, 238080, Note_on_c, 9, 35, 80
1, 238320, Note_off_c, 9, 43, 64
1, 238320, Note_off_c, 9, 35, 64
1, 238320, Note_on_c, 9, 43, 80
1, 238560, Note_off_c, 9, 43, 64
1, 238560, Note_on_c, 9, 43, 80
1, 238560, Note_on_c, 9, 35, 80
1, 238800, Note_off_c, 9, 43, 64
1, 238800, Note_off_c, 9, 35, 64
1, 238800, Note_on_c, 9, 45, 80
1, 238800, Note_on_c, 9, 43, 80
1, 239040, Note_off_c, 9, 45, 64
1, 239040, Note_off_c, 9, 43, 64
1, 239040, Note_on_c, 9, 43, 80
1, 239040, Note_on_c, 9, 35, 80
1, 239280, Note_off_c, 9, 43, 64
1, 239280, Note_off_c, 9, 35, 64
1, 239280, Note_on_c, 9, 43, 80
1, 239520, Note_off_c, 9, 43, 64
1, 239520, Note_on_c, 9, 43, 80
1, 239520, Note_on_c, 9, 35, 80
1, 239760, Note_off_c, 9, 43, 64
1, 239760, Note_off_c, 9, 35, 64
1, 239760, Note_on_c, 9, 43, 80
1, 240000, Note_off_c, 9, 43, 64
1, 240000, Note_on_c, 9, 43, 80
1, 240000, Note_on_c, 9, 35, 80
1, 240240, Note_off_c, 9, 43, 64
1, 240240, Note_off_c, 9, 35, 64
1, 240240, Note_on_c, 9, 43, 80
1, 240480, Note_off_c, 9, 43, 64
1, 240480, Note_on_c, 9, 43, 80
1, 240480, Note_on_c, 9, 35, 80
1, 240720, Note_off_c, 9, 43, 64
1, 240720, Note_off_c, 9, 35, 64
1, 240720, Note_on_c, 9, 45, 80
1, 240720, Note_on_c, 9, 43, 80
1, 240960, Note_off_c, 9, 45, 64
1, 240960, Note_off_c, 9, 43, 64
1, 240960, Note_on_c, 9, 43, 80
1, 240960, Note_on_c, 9, 35, 80
1, 241200, Note_off_c, 9, 43, 64
1, 241200, Note_off_c, 9, 35, 64
1, 241200, Note_on_c, 9, 43, 80
1, 241440, Note_off_c, 9, 43, 64
1, 241440, Note_on_c, 9, 43, 80
1, 241440, Note_on_c, 9, 35, 80
1, 241680, Note_off_c, 9, 43, 64
1, 241680, Note_off_c, 9, 35, 64
1, 241680, Note_on_c, 9, 43, 80
1, 241920, Note_off_c, 9, 43, 64
1, 241920, Note_on_c, 9, 43, 80
1, 241920, Note_on_c, 9, 35, 80
1, 242160, Note_off_c, 9, 43, 64
1, 242160, Note_off_c, 9, 35, 64
1, 242160, Note_on_c, 9, 43, 80
1, 242400, Note_off_c, 9, 43, 64
1, 242400, Note_on_c, 9, 43, 80
1, 242400, Note_on_c, 9, 35, 80
1, 242640, Note_off_c, 9, 43, 64
1, 242640, Note_off_c, 9, 35, 64
1, 242640, Note_on_c, 9, 45, 80
1, 242640, Note_on_c, 9, 43, 80
1, 242880, Note_off_c, 9, 45, 64
1, 242880, Note_off_c, 9, 43, 64
1, 242880, Note_on_c, 9, 43, 80
1, 242880, Note_on_c, 9, 35, 80
1, 243120, Note_off_c, 9, 43, 64
1, 243120, Note_off_c, 9, 35, 64
1, 243120, Note_on_c, 9, 43, 80
1, 243360, Note_off_c, 9, 43, 64
1, 243360, Note_on_c, 9, 43, 80
1, 243360, Note_on_c, 9, 35, 80
1, 243600, Note_off_c, 9, 43, 64
1, 243600, Note_off_c, 9, 35, 64
1, 243600, Note_on_c, 9, 43, 80
1, 243840, Note_off_c, 9, 43, 64
1, 243840, Note_on_c, 9, 43, 80
1, 243840, Note_on_c, 9, 35, 80
1, 244080, Note_off_c, 9, 43, 64
1, 244080, Note_off_c, 9, 35, 64
1, 244080, Note_on_c, 9, 43, 80
1, 244320, Note_off_c, 9, 43, 64
1, 244320, Note_on_c, 9, 43, 80
1, 244320, Note_on_c, 9, 35, 80
1, 244560, Note_off_c, 9, 43, 64
1, 244560, Note_off_c, 9, 35, 64
1, 244560, Note_on_c, 9, 45, 80
1, 244560, Note_on_c, 9, 43, 80
1, 244800, Note_off_c, 9, 45, 64
1, 244800, Note_off_c, 9, 43, 64
1, 244800, Note_on_c, 9, 43, 80
1, 244800, Note_on_c, 9, 35, 80
1, 245040, Note_off_c, 9, 43, 64
1, 245040, Note_off_c, 9, 35, 64
1, 245040, Note_on_c, 9, 43, 80
1, 245280, Note_off_c, 9, 43, 64
1, 245280, Note_on_c, 9, 43, 80
1, 245280, Note_on_c, 9, 35, 80
1, 245520, Note_off_c, 9, 43, 64
1, 245520, Note_off_c, 9, 35, 64
1, 245520, Note_on_c, 9, 43, 80
1, 245760, Note_off_c, 9, 43, 64
1, 245760, Note_on_c, 9, 43, 80
1, 245760, Note_on_c, 9, 35, 80
1, 246000, Note_off_c, 9, 43, 64
1, 246000, Note_off_c, 9, 35, 64
1, 246000, Note_on_c, 9, 43, 80
1, 246240, Note_off_c, 9, 43, 64
1, 246240, Note_on_c, 9, 43, 80
1, 246240, Note_on_c, 9, 35, 80
1, 246480, Note_off_c, 9, 43, 64
1, 246480, Note_off_c, 9, 35, 64
1, 246480, Note_on_c, 9, 45, 80
1, 246480, Note_on_c, 9, 43, 80
1, 246720, Note_off_c, 9, 45, 64
1, 246720, Note_off_c, 9, 43, 64
1, 246720, Note_on_c, 9, 43, 80
1, 246720, Note_on_c, 9, 35, 80
1, 246960, Note_off_c, 9, 43, 64
1, 246960, Note_off_c, 9, 35, 64
1, 246960, Note_on_c, 9, 43, 80
1, 247200, Note_off_c, 9, 43, 64
1, 247200, Note_on_c, 9, 45, 80
1, 247200, Note_on_c, 9, 43, 80
1, 247200, Note_on_c, 9, 35, 80
1, 247440, Note_off_c, 9, 45, 64
1, 247440, Note_off_c, 9, 43, 64
1, 247440, Note_off_c, 9, 35, 64
1, 247440, Note_on_c, 9, 43, 80
1, 247680, Note_off_c, 9, 43, 64
1, 247680, Note_on_c, 9, 45, 80
1, 247680, Note_on_c, 9, 43, 80
1, 247680, Note_on_c, 9, 35, 80
1, 247920, Note_off_c, 9, 45, 64
1, 247920, Note_off_c, 9, 43, 64
1, 247920, Note_off_c, 9, 35, 64
1, 247920, Note_on_c, 9, 43, 80
1, 248160, Note_off_c, 9, 43, 64
1, 248160, Note_on_c, 9, 43, 80
1, 248160, Note_on_c, 9, 35, 80
1, 248400, Note_off_c, 9, 43, 64
1, 248400, Note_off_c, 9, 35, 64
1, 248400, Note_on_c, 9, 45, 80
1, 248400, Note_on_c, 9, 43, 80
1, 248640, Note_off_c, 9, 45, 64
1, 248640, Note_off_c, 9, 43, 64
1, 248640, Note_on_c, 9, 43, 80
1, 248640, Note_on_c, 9, 35, 80
1, 248880, Note_off_c, 9, 43, 64
1, 248880, Note_off_c, 9, 35, 64
1, 248880, Note_on_c, 9, 43, 80
1, 249120, Note_off_c, 9, 43, 64
1, 249120, Note_on_c, 9, 45, 80
1, 249120, Note_on_c, 9, 43, 80
1, 249120, Note_on_c, 9, 35, 80
1, 249360, Note_off_c, 9, 45, 64
1, 249360, Note_off_c, 9, 43, 64
1, 249360, Note_off_c, 9, 35, 64
1, 249360, Note_on_c, 9, 43, 80
1, 249600, Note_off_c, 9, 43, 64
1, 249600, Note_on_c, 9, 45, 80
1, 249600, Note_on_c, 9, 43, 80
1, 249600, Note_on_c, 9, 35, 80
1, 249840, Note_off_c, 9, 45, 64
1, 249840, Note_off_c, 9, 43, 64
1, 249840, Note_off_c, 9, 35, 64
1, 249840, Note_on_c, 9, 43, 80
1, 250080, Note_off_c, 9, 43, 64
1, 250080, Note_on_c, 9, 43, 80
1, 250080, Note_on_c, 9, 35, 80
1, 250320, Note_off_c, 9, 43, 64
1, 250320, Note_off_c, 9, 35, 64
1, 250320, Note_on_c, 9, 45, 80
1, 250320, Note_on_c, 9, 43, 80
1, 250560, Note_off_c, 9, 45, 64
1, 250560, Note_off_c, 9, 43, 64
1, 250560, Note_on_c, 9, 43, 80
1, 250560, Note_on_c, 9, 35, 80
1, 250800, Note_off_c, 9, 43, 64
1, 250800, Note_off_c, 9, 35, 64
1, 250800, Note_on_c, 9, 43, 80
1, 251040, Note_off_c, 9, 43, 64
1, 251040, Note_on_c, 9, 45, 80
1, 251040, Note_on_c, 9, 43, 80
1, 251040, Note_on_c, 9, 35, 80
1, 251280, Note_off_c, 9, 45, 64
1, 251280, Note_off_c, 9, 43, 64
1, 251280, Note_off_c, 9, 35, 64
1, 251280, Note_on_c, 9, 43, 80
1, 251520, Note_off_c, 9, 43, 64
1, 251520, Note_on_c, 9, 45, 80
1, 251520, Note_on_c, 9, 43, 80
1, 251520, Note_on_c, 9, 35, 80
1, 251760, Note_off_c, 9, 45, 64
1, 251760, Note_off_c, 9, 43, 64
1, 251760, Note_off_c, 9, 35, 64
1, 251760, Note_on_c, 9, 43, 80
1, 252000, Note_off_c, 9, 43, 64
1, 252000, Note_on_c, 9, 43, 80
1, 252000, Note_on_c, 9, 35, 80
1, 252240, Note_off_c, 9, 43, 64
1, 252240, Note_off_c, 9, 35, 64
1, 252240, Note_on_c, 9, 45, 80
1, 252240, Note_on_c, 9, 43, 80
1, 252480, Note_off_c, 9, 45, 64
1, 252480, Note_off_c, 9, 43, 64
1, 252480, Note_on_c, 9, 43, 80
1, 252480, Note_on_c, 9, 35, 80
1, 252720, Note_off_c, 9, 43, 64
1, 252720, Note_off_c, 9, 35, 64
1, 252720, Note_on_c, 9, 43, 80
1, 252960, Note_off_c, 9, 43, 64
1, 252960, Note_on_c, 9, 45, 80
1, 252960, Note_on_c, 9, 43, 80
1, 252960, Note_on_c, 9, 35, 80
1, 253200, Note_off_c, 9, 45, 64
1, 253200, Note_off_c, 9, 43, 64
1, 253200, Note_off_c, 9, 35, 64
1, 253200, Note_on_c, 9, 43, 80
1, 253440, Note_off_c, 9, 43, 64
1, 253440, Note_on_c, 9, 45, 80
1, 253440, Note_on_c, 9, 43, 80
1, 253440, Note_on_c, 9, 35, 80
1, 253680, Note_off_c, 9, 45, 64
1, 253680, Note_off_c, 9, 43, 64
1, 253680, Note_off_c, 9, 35, 64
1, 253680, Note_on_c, 9, 43, 80
1, 253920, Note_off_c, 9, 43, 64
1, 253920, Note_on_c, 9, 43, 80
1, 253920, Note_on_c, 9, 35, 80
1, 254160, Note_off_c, 9, 43, 64
1, 254160, Note_off_c, 9, 35, 64
1, 254160, Note_on_c, 9, 45, 80
1, 254160, Note_on_c, 9, 43, 80
1, 254400, Note_off_c, 9, 45, 64
1, 254400, Note_off_c, 9, 43, 64
1, 254400, Note_on_c, 9, 43, 80
1, 254400, Note_on_c, 9, 35, 80
1, 254640, Note_off_c, 9, 43, 64
1, 254640, Note_off_c, 9, 35, 64
1, 254640, Note_on_c, 9, 43, 80
1, 254880, Note_off_c, 9, 43, 64
1, 254880, Note_on_c, 9, 45, 80
1, 254880, Note_on_c, 9, 43, 80
1, 254880, Note_on_c, 9, 35, 80
1, 255120, Note_off_c, 9, 45, 64
1, 255120, Note_off_c, 9, 43, 64
1, 255120, Note_off_c, 9, 35, 64
1, 255120, Note_on_c, 9, 43, 80
1, 255360, Note_off_c, 9, 43, 64
1, 255360, Note_on_c, 9, 45, 80
1, 255360, Note_on_c, 9, 43, 80
1, 255360, Note_on_c, 9, 35, 80
1, 255600, Note_off_c, 9, 45, 64
1, 255600, Note_off_c, 9, 43, 64
1, 255600, Note_off_c, 9, 35, 64
1, 255600, Note_on_c, 9, 43, 80
1, 255840, Note_off_c, 9, 43, 64
1, 255840, Note_on_c, 9, 43, 80
1, 255840, Note_on_c, 9, 35, 80
1, 256080, Note_off_c, 9, 43, 64
1, 256080, Note_off_c, 9, 35, 64
1, 256080, Note_on_c, 9, 45, 80
1, 256080, Note_on_c, 9, 43, 80
1, 256320, Note_off_c, 9, 45, 64
1, 256320, Note_off_c, 9, 43, 64
1, 256320, Note_on_c, 9, 43, 80
1, 256320, Note_on_c, 9, 35, 80
1, 256560, Note_off_c, 9, 43, 64
1, 256560, Note_off_c, 9, 35, 64
1, 256560, Note_on_c, 9, 43, 80
1, 256800, Note_off_c, 9, 43, 64
1, 256800, Note_on_c, 9, 45, 80
1, 256800, Note_on_c, 9, 43, 80
1, 256800, Note_on_c, 9, 35, 80
1, 257040, Note_off_c, 9, 45, 64
1, 257040, Note_off_c, 9, 43, 64
1, 257040, Note_off_c, 9, 35, 64
1, 257040, Note_on_c, 9, 43, 80
1, 257280, Note_off_c, 9, 43, 64
1, 257280, Note_on_c, 9, 45, 80
1, 257280, Note_on_c, 9, 43, 80
1, 257280, Note_on_c, 9, 35, 80
1, 257520, Note_off_c, 9, 45, 64
1, 257520, Note_off_c, 9, 43, 64
1, 257520, Note_off_c, 9, 35, 64
1, 257520, Note_on_c, 9, 43, 80
1, 257760, Note_off_c, 9, 43, 64
1, 257760, Note_on_c, 9, 43, 80
1, 257760, Note_on_c, 9, 35, 80
1, 258000, Note_off_c, 9, 43, 64
1, 258000, Note_off_c, 9, 35, 64
1, 258000, Note_on_c, 9, 45, 80
1, 258000, Note_on_c, 9, 43, 80
1, 258240, Note_off_c, 9, 45, 64
1, 258240, Note_off_c, 9, 43, 64
1, 258240, Note_on_c, 9, 43, 80
1, 258240, Note_on_c, 9, 35, 80
1, 258480, Note_off_c, 9, 43, 64
1, 258480, Note_off_c, 9, 35, 64
1, 258480, Note_on_c, 9, 43, 80
1, 258720, Note_off_c, 9, 43, 64
1, 258720, Note_on_c, 9, 45, 80
1, 258720, Note_on_c, 9, 43, 80
1, 258720, Note_on_c, 9, 35, 80
1, 258960, Note_off_c, 9, 45, 64
1, 258960, Note_off_c, 9, 43, 64
1, 258960, Note_off_c, 9, 35, 64
1, 258960, Note_on_c, 9, 43, 80
1, 259200, Note_off_c, 9, 43, 64
1, 259200, Note_on_c, 9, 45, 80
1, 259200, Note_on_c, 9, 43, 80
1, 259200, Note_on_c, 9, 35, 80
1, 259440, Note_off_c, 9, 45, 64
1, 259440, Note_off_c, 9, 43, 64
1, 259440, Note_off_c, 9, 35, 64
1, 259440, Note_on_c, 9, 43, 80
1, 259680, Note_off_c, 9, 43, 64
1, 259680, Note_on_c, 9, 43, 80
1, 259680, Note_on_c, 9, 35, 80
1, 259920, Note_off_c, 9, 43, 64
1, 259920, Note_off_c, 9, 35, 64
1, 259920, Note_on_c, 9, 45, 80
1, 259920, Note_on_c, 9, 43, 80
1, 260160, Note_off_c, 9, 45, 64
1, 260160, Note_off_c, 9, 43, 64
1, 260160, Note_on_c, 9, 43, 80
1, 260160, Note_on_c, 9, 35, 80
1, 260400, Note_off_c, 9, 43, 64
1, 260400, Note_off_c, 9, 35, 64
1, 260400, Note_on_c, 9, 43, 80
1, 260640, Note_off_c, 9, 43, 64
1, 260640, Note_on_c, 9, 45, 80
1, 260640, Note_on_c, 9, 43, 80
1, 260640, Note_on_c, 9, 35, 80
1, 260880, Note_off_c, 9, 45, 64
1, 260880, Note_off_c, 9, 43, 64
1, 260880, Note_off_c, 9, 35, 64
1, 260880, Note_on_c, 9, 43, 80
1, 261120, Note_off_c, 9, 43, 64
1, 261120, Note_on_c, 9, 45, 80
1, 261120, Note_on_c, 9, 43, 80
1, 261120, Note_on_c, 9, 35, 80
1, 261360, Note_off_c, 9, 45, 64
1, 261360, Note_off_c, 9, 43, 64
1, 261360, Note_off_c, 9, 35, 64
1, 261360, Note_on_c, 9, 43, 80
1, 261600, Note_off_c, 9, 43, 64
1, 261600, Note_on_c, 9, 43, 80
1, 261600, Note_on_c, 9, 35, 80
1, 261840, Note_off_c, 9, 43, 64
1, 261840, Note_off_c, 9, 35, 64
1, 261840, Note_on_c, 9, 45, 80
1, 261840, Note_on_c, 9, 43, 80
1, 262080, Note_off_c, 9, 45, 64
1, 262080, Note_off_c, 9, 43, 64
1, 262080, Note_on_c, 9, 43, 80
1, 262080, Note_on_c, 9, 35, 80
1, 262320, Note_off_c, 9, 43, 64
1, 262320, Note_off_c, 9, 35, 64
1, 262320, Note_on_c, 9, 45, 80
1, 262320, Note_on_c, 9, 43, 80
1, 262560, Note_off_c, 9, 45, 64
1, 262560, Note_off_c, 9, 43, 64
1, 262560, Note_on_c, 9, 43, 80
1, 262560, Note_on_c, 9, 35, 80
1, 262800, Note_off_c, 9, 43, 64
1, 262800, Note_off_c, 9, 35, 64
1, 262800, Note_on_c, 9, 43, 80
1, 263040, Note_off_c, 9, 43, 64
1, 263040, Note_on_c, 9, 45, 80
1, 263040, Note_on_c, 9, 43, 80
1, 263040, Note_on_c, 9, 35, 80
1, 263280, Note_off_c, 9, 45, 64
1, 263280, Note_off_c, 9, 43, 64
1, 263280, Note_off_c, 9, 35, 64
1, 263280, Note_on_c, 9, 43, 80
1, 263520, Note_off_c, 9, 43, 64
1, 263520, Note_on_c, 9, 43, 80
1, 263520, Note_on_c, 9, 38, 80
1, 263520, Note_on_c, 9, 35, 80
1, 263760, Note_off_c, 9, 43, 64
1, 263760, Note_off_c, 9, 38, 64
1, 263760, Note_off_c, 9, 35, 64
1, 263760, Note_on_c, 9, 43, 80
1, 264000, Note_off_c, 9, 43, 64
1, 264000, Note_on_c, 9, 43, 80
1, 264000, Note_on_c, 9, 35, 80
1, 264240, Note_off_c, 9, 43, 64
1, 264240, Note_off_c, 9, 35, 64
1, 264240, Note_on_c, 9, 45, 80
1, 264240, Note_on_c, 9, 43, 80
1, 264480, Note_off_c, 9, 45, 64
1, 264480, Note_off_c, 9, 43, 64
1, 264480, Note_on_c, 9, 43, 80
1, 264480, Note_on_c, 9, 35, 80
1, 264720, Note_off_c, 9, 43, 64
1, 264720, Note_off_c, 9, 35, 64
1, 264720, Note_on_c, 9, 43, 80
1, 264960, Note_off_c, 9, 43, 64
1, 264960, Note_on_c, 9, 45, 80
1, 264960, Note_on_c, 9, 43, 80
1, 264960, Note_on_c, 9, 35, 80
1, 265200, Note_off_c, 9, 45, 64
1, 265200, Note_off_c, 9, 43, 64
1, 265200, Note_off_c, 9, 35, 64
1, 265200, Note_on_c, 9, 43, 80
1, 265440, Note_off_c, 9, 43, 64
1, 265440, Note_on_c, 9, 43, 80
1, 265440, Note_on_c, 9, 38, 80
1, 265440, Note_on_c, 9, 35, 80
1, 265680, Note_off_c, 9, 43, 64
1, 265680, Note_off_c, 9, 38, 64
1, 265680, Note_off_c, 9, 35, 64
1, 265680, Note_on_c, 9, 43, 80
1, 265920, Note_off_c, 9, 43, 64
1, 265920, Note_on_c, 9, 43, 80
1, 265920, Note_on_c, 9, 35, 80
1, 266160, Note_off_c, 9, 43, 64
1, 266160, Note_off_c, 9, 35, 64
1, 266160, Note_on_c, 9, 45, 80
1, 266160, Note_on_c, 9, 43, 80
1, 266400, Note_off_c, 9, 45, 64
1, 266400, Note_off_c, 9, 43, 64
1, 266400, Note_on_c, 9, 43, 80
1, 266400, Note_on_c, 9, 35, 80
1, 266640, Note_off_c, 9, 43, 64
1, 266640, Note_off_c, 9, 35, 64
1, 266640, Note_on_c, 9, 43, 80
1, 266880, Note_off_c, 9, 43, 64
1, 266880, Note_on_c, 9, 45, 80
1, 266880, Note_on_c, 9, 43, 80
1, 266880, Note_on_c, 9, 35, 80
1, 267120, Note_off_c, 9, 45, 64
1, 267120, Note_off_c, 9, 43, 64
1, 267120, Note_off_c, 9, 35, 64
1, 267120, Note_on_c, 9, 43, 80
1, 267360, Note_off_c, 9, 43, 64
1, 267360, Note_on_c, 9, 43, 80
1, 267360, Note_on_c, 9, 38, 80
1, 267360, Note_on_c, 9, 35, 80
1, 267600, Note_off_c, 9, 43, 64
1, 267600, Note_off_c, 9, 38, 64
1, 267600, Note_off_c, 9, 35, 64
1, 267600, Note_on_c, 9, 43, 80
1, 267840, Note_off_c, 9, 43, 64
1, 267840, Note_on_c, 9, 43, 80
1, 267840, Note_on_c, 9, 35, 80
1, 268080, Note_off_c, 9, 43, 64
1, 268080, Note_off_c, 9, 35, 64
1, 268080, Note_on_c, 9, 45, 80
1, 268080, Note_on_c, 9, 43, 80
1, 268320, Note_off_c, 9, 45, 64
1, 268320, Note_off_c, 9, 43, 64
1, 268320, Note_on_c, 9, 43, 80
1, 268320, Note_on_c, 9, 35, 80
1, 268560, Note_off_c, 9, 43, 64
1, 268560, Note_off_c, 9, 35, 64
1, 268560, Note_on_c, 9, 43, 80
1, 268800, Note_off_c, 9, 43, 64
1, 268800, Note_on_c, 9, 45, 80
1, 268800, Note_on_c, 9, 43, 80
1, 268800, Note_on_c, 9, 35, 80
1, 269040, Note_off_c, 9, 45, 64
1, 269040, Note_off_c, 9, 43, 64
1, 269040, Note_off_c, 9, 35, 64
1, 269040, Note_on_c, 9, 43, 80
1, 269280, Note_off_c, 9, 43, 64
1, 269280, Note_on_c, 9, 43, 80
1, 269280, Note_on_c, 9, 38, 80
1, 269280, Note_on_c, 9, 35, 80
1, 269520, Note_off_c, 9, 43, 64
1, 269520, Note_off_c, 9, 38, 64
1, 269520, Note_off_c, 9, 35, 64
1, 269520, Note_on_c, 9, 43, 80
1, 269760, Note_off_c, 9, 43, 64
1, 269760, Note_on_c, 9, 43, 80
1, 269760, Note_on_c, 9, 35, 80
1, 270000, Note_off_c, 9, 43, 64
1, 270000, Note_off_c, 9, 35, 64
1, 270000, Note_on_c, 9, 45, 80
1, 270000, Note_on_c, 9, 43, 80
1, 270240, Note_off_c, 9, 45, 64
1, 270240, Note_off_c, 9, 43, 64
1, 270240, Note_on_c, 9, 43, 80
1, 270240, Note_on_c, 9, 35, 80
1, 270480, Note_off_c, 9, 43, 64
1, 270480, Note_off_c, 9, 35, 64
1, 270480, Note_on_c, 9, 43, 80
1, 270720, Note_off_c, 9, 43, 64
1, 270720, Note_on_c, 9, 45, 80
1, 270720, Note_on_c, 9, 43, 80
1, 270720, Note_on_c, 9, 35, 80
1, 270960, Note_off_c, 9, 45, 64
1, 270960, Note_off_c, 9, 43, 64
1, 270960, Note_off_c, 9, 35, 64
1, 270960, Note_on_c, 9, 43, 80
1, 271200, Note_off_c, 9, 43, 64
1, 271200, Note_on_c, 9, 43, 80
1, 271200, Note_on_c, 9, 38, 80
1, 271200, Note_on_c, 9, 35, 80
1, 271440, Note_off_c, 9, 43, 64
1, 271440, Note_off_c, 9, 38, 64
1, 271440, Note_off_c, 9, 35, 64
1, 271440, Note_on_c, 9, 43, 80
1, 271680, Note_off_c, 9, 43, 64
1, 271680, Note_on_c, 9, 43, 80
1, 271680, Note_on_c, 9, 35, 80
1, 271920, Note_off_c, 9, 43, 64
1, 271920, Note_off_c, 9, 35, 64
1, 271920, Note_on_c, 9, 45, 80
1, 271920, Note_on_c, 9, 43, 80
1, 272160, Note_off_c, 9, 45, 64
1, 272160, Note_off_c, 9, 43, 64
1, 272160, Note_on_c, 9, 43, 80
1, 272160, Note_on_c, 9, 35, 80
1, 272400, Note_off_c, 9, 43, 64
1, 272400, Note_off_c, 9, 35, 64
1, 272400, Note_on_c, 9, 43, 80
1, 272640, Note_off_c, 9, 43, 64
1, 272640, Note_on_c, 9, 45, 80
1, 272640, Note_on_c, 9, 43, 80
1, 272640, Note_on_c, 9, 35, 80
1, 272880, Note_off_c, 9, 45, 64
1, 272880, Note_off_c, 9, 43, 64
1, 272880, Note_off_c, 9, 35, 64
1, 272880, Note_on_c, 9, 43, 80
1, 273120, Note_off_c, 9, 43, 64
1, 273120, Note_on_c, 9, 43, 80
1, 273120, Note_on_c, 9, 38, 80
1, 273120, Note_on_c, 9, 35, 80
1, 273360, Note_off_c, 9, 43, 64
1, 273360, Note_off_c, 9, 38, 64
1, 273360, Note_off_c, 9, 35, 64
1, 273360, Note_on_c, 9, 43, 80
1, 273600, Note_off_c, 9, 43, 64
1, 273600, Note_on_c, 9, 43, 80
1, 273600, Note_on_c, 9, 35, 80
1, 273840, Note_off_c, 9, 43, 64
1, 273840, Note_off_c, 9, 35, 64
1, 273840, Note_on_c, 9, 45, 80
1, 273840, Note_on_c, 9, 43, 80
1, 274080, Note_off_c, 9, 45, 64
1, 274080, Note_off_c, 9, 43, 64
1, 274080, Note_on_c, 9, 43, 80
1, 274080, Note_on_c, 9, 35, 80
1, 274320, Note_off_c, 9, 43, 64
1, 274320, Note_off_c, 9, 35, 64
1, 274320, Note_on_c, 9, 43, 80
1, 274560, Note_off_c, 9, 43, 64
1, 274560, Note_on_c, 9, 45, 80
1, 274560, Note_on_c, 9, 43, 80
1, 274560, Note_on_c, 9, 35, 80
1, 274800, Note_off_c, 9, 45, 64
1, 274800, Note_off_c, 9, 43, 64
1, 274800, Note_off_c, 9, 35, 64
1, 274800, Note_on_c, 9, 43, 80
1, 275040, Note_off_c, 9, 43, 64
1, 275040, Note_on_c, 9, 43, 80
1, 275040, Note_on_c, 9, 38, 80
1, 275040, Note_on_c, 9, 35, 80
1, 275280, Note_off_c, 9, 43, 64
1, 275280, Note_off_c, 9, 38, 64
1, 275280, Note_off_c, 9, 35, 64
1, 275280, Note_on_c, 9, 43, 80
1, 275520, Note_off_c, 9, 43, 64
1, 275520, Note_on_c, 9, 43, 80
1, 275520, Note_on_c, 9, 35, 80
1, 275760, Note_off_c, 9, 43, 64
1, 275760, Note_off_c, 9, 35, 64
1, 275760, Note_on_c, 9, 45, 80
1, 275760, Note_on_c, 9, 43, 80
1, 276000, Note_off_c, 9, 45, 64
1, 276000, Note_off_c, 9, 43, 64
1, 276000, Note_on_c, 9, 43, 80
1, 276000, Note_on_c, 9, 35, 80
1, 276240, Note_off_c, 9, 43, 64
1, 276240, Note_off_c, 9, 35, 64
1, 276240, Note_on_c, 9, 43, 80
1, 276480, Note_off_c, 9, 43, 64
1, 276480, Note_on_c, 9, 45, 80
1, 276480, Note_on_c, 9, 43, 80
1, 276480, Note_on_c, 9, 35, 80
1, 276720, Note_off_c, 9, 45, 64
1, 276720, Note_off_c, 9, 43, 64
1, 276720, Note_off_c, 9, 35, 64
1, 276720, Note_on_c, 9, 43, 80
1, 276960, Note_off_c, 9, 43, 64
1, 276960, Note_on_c, 9, 43, 80
1, 276960, Note_on_c, 9, 38, 80
1, 276960, Note_on_c, 9, 35, 80
1, 277200, Note_off_c, 9, 43, 64
1, 277200, Note_off_c, 9, 38, 64
1, 277200, Note_off_c, 9, 35, 64
1, 277200, Note_on_c, 9, 43, 80
1, 277440, Note_off_c, 9, 43, 64
1, 277440, Note_on_c, 9, 43, 80
1, 277440, Note_on_c, 9, 35, 80
1, 277680, Note_off_c, 9, 43, 64
1, 277680, Note_off_c, 9, 35, 64
1, 277680, Note_on_c, 9, 43, 80
1, 277920, Note_off_c, 9, 43, 64
1, 277920, Note_on_c, 9, 43, 80
1, 277920, Note_on_c, 9, 38, 80
1, 278160, Note_off_c, 9, 43, 64
1, 278160, Note_off_c, 9, 38, 64
1, 278160, Note_on_c, 9, 43, 80
1, 278400, Note_off_c, 9, 43, 64
1, 278400, Note_on_c, 9, 43, 80
1, 278400, Note_on_c, 9, 35, 80
1, 278640, Note_off_c, 9, 43, 64
1, 278640, Note_off_c, 9, 35, 64
1, 278640, Note_on_c, 9, 43, 80
1, 278880, Note_off_c, 9, 43, 64
1, 278880, Note_on_c, 9, 43, 80
1, 278880, Note_on_c, 9, 38, 80
1, 279120, Note_off_c, 9, 43, 64
1, 279120, Note_off_c, 9, 38, 64
1, 279120, Note_on_c, 9, 43, 80
1, 279360, Note_off_c, 9, 43, 64
1, 279360, Note_on_c, 9, 43, 80
1, 279360, Note_on_c, 9, 35, 80
1, 279600, Note_off_c, 9, 43, 64
1, 279600, Note_off_c, 9, 35, 64
1, 279600, Note_on_c, 9, 43, 80
1, 279840, Note_off_c, 9, 43, 64
1, 279840, Note_on_c, 9, 43, 80
1, 279840, Note_on_c, 9, 38, 80
1, 280080, Note_off_c, 9, 43, 64
1, 280080, Note_off_c, 9, 38, 64
1, 280080, Note_on_c, 9, 43, 80
1, 280320, Note_off_c, 9, 43, 64
1, 280320, Note_on_c, 9, 43, 80
1, 280320, Note_on_c, 9, 35, 80
1, 280560, Note_off_c, 9, 43, 64
1, 280560, Note_off_c, 9, 35, 64
1, 280560, Note_on_c, 9, 43, 80
1, 280800, Note_off_c, 9, 43, 64
1, 280800, Note_on_c, 9, 43, 80
1, 280800, Note_on_c, 9, 38, 80
1, 281040, Note_off_c, 9, 43, 64
1, 281040, Note_off_c, 9, 38, 64
1, 281040, Note_on_c, 9, 43, 80
1, 281280, Note_off_c, 9, 43, 64
1, 281280, Note_on_c, 9, 43, 80
1, 281280, Note_on_c, 9, 35, 80
1, 281520, Note_off_c, 9, 43, 64
1, 281520, Note_off_c, 9, 35, 64
1, 281520, Note_on_c, 9, 43, 80
1, 281760, Note_off_c, 9, 43, 64
1, 281760, Note_on_c, 9, 43, 80
1, 281760, Note_on_c, 9, 38, 80
1, 282000, Note_off_c, 9, 43, 64
1, 282000, Note_off_c, 9, 38, 64
1, 282000, Note_on_c, 9, 43, 80
1, 282240, Note_off_c, 9, 43, 64
1, 282240, Note_on_c, 9, 43, 80
1, 282240, Note_on_c, 9, 35, 80
1, 282480, Note_off_c, 9, 43, 64
1, 282480, Note_off_c, 9, 35, 64
1, 282480, Note_on_c, 9, 43, 80
1, 282720, Note_off_c, 9, 43, 64
1, 282720, Note_on_c, 9, 43, 80
1, 282720, Note_on_c, 9, 38, 80
1, 282960, Note_off_c, 9, 43, 64
1, 282960, Note_off_c, 9, 38, 64
1, 282960, Note_on_c, 9, 43, 80
1, 283200, Note_off_c, 9, 43, 64
1, 283200, Note_on_c, 9, 43, 80
1, 283200, Note_on_c, 9, 35, 80
1, 283440, Note_off_c, 9, 43, 64
1, 283440, Note_off_c, 9, 35, 64
1, 283440, Note_on_c, 9, 43, 80
1, 283680, Note_off_c, 9, 43, 64
1, 283680, Note_on_c, 9, 43, 80
1, 283680, Note_on_c, 9, 38, 80
1, 283920, Note_off_c, 9, 43, 64
1, 283920, Note_off_c, 9, 38, 64
1, 283920, Note_on_c, 9, 43, 80
1, 284160, Note_off_c, 9, 43, 64
1, 284160, Note_on_c, 9, 43, 80
1, 284160, Note_on_c, 9, 35, 80
1, 284400, Note_off_c, 9, 43, 64
1, 284400, Note_off_c, 9, 35, 64
1, 284400, Note_on_c, 9, 43, 80
1, 284640, Note_off_c, 9, 43, 64
1, 284640, Note_on_c, 9, 43, 80
1, 284640, Note_on_c, 9, 38, 80
1, 284880, Note_off_c, 9, 43, 64
1, 284880, Note_off_c, 9, 38, 64
1, 284880, Note_on_c, 9, 43, 80
1, 285120, Note_off_c, 9, 43, 64
1, 285120, Note_on_c, 9, 43, 80
1, 285120, Note_on_c, 9, 35, 80
1, 285360, Note_off_c, 9, 43, 64
1, 285360, Note_off_c, 9, 35, 64
1, 285360, Note_on_c, 9, 43, 80
1, 285600, Note_off_c, 9, 43, 64
1, 285600, Note_on_c, 9, 43, 80
1, 285600, Note_on_c, 9, 38, 80
1, 285840, Note_off_c, 9, 43, 64
1, 285840, Note_off_c, 9, 38, 64
1, 285840, Note_on_c, 9, 43, 80
1, 286080, Note_off_c, 9, 43, 64
1, 286080, Note_on_c, 9, 43, 80
1, 286080, Note_on_c, 9, 35, 80
1, 286320, Note_off_c, 9, 43, 64
1, 286320, Note_off_c, 9, 35, 64
1, 286320, Note_on_c, 9, 43, 80
1, 286560, Note_off_c, 9, 43, 64
1, 286560, Note_on_c, 9, 43, 80
1, 286560, Note_on_c, 9, 38, 80
1, 286800, Note_off_c, 9, 43, 64
1, 286800, Note_off_c, 9, 38, 64
1, 286800, Note_on_c, 9, 43, 80
1, 287040, Note_off_c, 9, 43, 64
1, 287040, Note_on_c, 9, 43, 80
1, 287040, Note_on_c, 9, 35, 80
1, 287280, Note_off_c, 9, 43, 64
1, 287280, Note_off_c, 9, 35, 64
1, 287280, Note_on_c, 9, 43, 80
1, 287520, Note_off_c, 9, 43, 64
1, 287520, Note_on_c, 9, 43, 80
1, 287520, Note_on_c, 9, 38, 80
1, 287760, Note_off_c, 9, 43, 64
1, 287760, Note_off_c, 9, 38, 64
1, 287760, Note_on_c, 9, 43, 80
1, 288000, Note_off_c, 9, 43, 64
1, 288000, Note_on_c, 9, 43, 80
1, 288000, Note_on_c, 9, 35, 80
1, 288240, Note_off_c, 9, 43, 64
1, 288240, Note_off_c, 9, 35, 64
1, 288240, Note_on_c, 9, 43, 80
1, 288480, Note_off_c, 9, 43, 64
1, 288480, Note_on_c, 9, 43, 80
1, 288480, Note_on_c, 9, 38, 80
1, 288720, Note_off_c, 9, 43, 64
1, 288720, Note_off_c, 9, 38, 64
1, 288720, Note_on_c, 9, 43, 80
1, 288960, Note_off_c, 9, 43, 64
1, 288960, Note_on_c, 9, 49, 80
1, 288960, Note_on_c, 9, 35, 80
1, 289200, Note_off_c, 9, 49, 64
1, 289200, Note_off_c, 9, 35, 64
1, 289200, Note_on_c, 9, 43, 80
1, 289440, Note_off_c, 9, 43, 64
1, 289440, Note_on_c, 9, 43, 80
1, 289440, Note_on_c, 9, 38, 80
1, 289680, Note_off_c, 9, 43, 64
1, 289680, Note_off_c, 9, 38, 64
1, 289680, Note_on_c, 9, 43, 80
1, 289920, Note_off_c, 9, 43, 64
1, 289920, Note_on_c, 9, 43, 80
1, 289920, Note_on_c, 9, 35, 80
1, 290160, Note_off_c, 9, 43, 64
1, 290160, Note_off_c, 9, 35, 64
1, 290160, Note_on_c, 9, 43, 80
1, 290400, Note_off_c, 9, 43, 64
1, 290400, Note_on_c, 9, 49, 80
1, 290400, Note_on_c, 9, 38, 80
1, 290640, Note_off_c, 9, 49, 64
1, 290640, Note_off_c, 9, 38, 64
1, 290640, Note_on_c, 9, 43, 80
1, 290880, Note_off_c, 9, 43, 64
1, 290880, Note_on_c, 9, 43, 80
1, 290880, Note_on_c, 9, 35, 80
1, 291120, Note_off_c, 9, 43, 64
1, 291120, Note_off_c, 9, 35, 64
1, 291120, Note_on_c, 9, 43, 80
1, 291360, Note_off_c, 9, 43, 64
1, 291360, Note_on_c, 9, 49, 80
1, 291360, Note_on_c, 9, 38, 80
1, 291600, Note_off_c, 9, 49, 64
1, 291600, Note_off_c, 9, 38, 64
1, 291600, Note_on_c, 9, 43, 80
1, 291840, Note_off_c, 9, 43, 64
1, 291840, Note_on_c, 9, 43, 80
1, 291840, Note_on_c, 9, 35, 80
1, 292080, Note_off_c, 9, 43, 64
1, 292080, Note_off_c, 9, 35, 64
1, 292080, Note_on_c, 9, 43, 80
1, 292320, Note_off_c, 9, 43, 64
1, 292320, Note_on_c, 9, 49, 80
1, 292320, Note_on_c, 9, 38, 80
1, 292800, Note_off_c, 9, 49, 64
1, 292800, Note_off_c, 9, 38, 64
1, 292800, Note_on_c, 9, 49, 80
1, 292800, Note_on_c, 9, 35, 80
1, 293040, Note_off_c, 9, 49, 64
1, 293040, Note_off_c, 9, 35, 64
1, 293040, Note_on_c, 9, 42, 80
1, 293280, Note_off_c, 9, 42, 64
1, 293280, Note_on_c, 9, 42, 80
1, 293280, Note_on_c, 9, 38, 80
1, 293520, Note_off_c, 9, 42, 64
1, 293520, Note_off_c, 9, 38, 64
1, 293520, Note_on_c, 9, 42, 80
1, 293760, Note_off_c, 9, 42, 64
1, 293760, Note_on_c, 9, 42, 80
1, 293760, Note_on_c, 9, 35, 80
1, 294000, Note_off_c, 9, 42, 64
1, 294000, Note_off_c, 9, 35, 64
1, 294000, Note_on_c, 9, 42, 80
1, 294240, Note_off_c, 9, 42, 64
1, 294240, Note_on_c, 9, 42, 80
1, 294240, Note_on_c, 9, 38, 80
1, 294480, Note_off_c, 9, 42, 64
1, 294480, Note_off_c, 9, 38, 64
1, 294480, Note_on_c, 9, 42, 80
1, 294720, Note_off_c, 9, 42, 64
1, 294720, Note_on_c, 9, 42, 80
1, 294720, Note_on_c, 9, 35, 80
1, 294960, Note_off_c, 9, 42, 64
1, 294960, Note_off_c, 9, 35, 64
1, 294960, Note_on_c, 9, 42, 80
1, 295200, Note_off_c, 9, 42, 64
1, 295200, Note_on_c, 9, 42, 80
1, 295200, Note_on_c, 9, 38, 80
1, 295440, Note_off_c, 9, 42, 64
1, 295440, Note_off_c, 9, 38, 64
1, 295440, Note_on_c, 9, 42, 80
1, 295680, Note_off_c, 9, 42, 64
1, 295680, Note_on_c, 9, 42, 80
1, 295680, Note_on_c, 9, 35, 80
1, 295920, Note_off_c, 9, 42, 64
1, 295920, Note_off_c, 9, 35, 64
1, 295920, Note_on_c, 9, 42, 80
1, 296160, Note_off_c, 9, 42, 64
1, 296160, Note_on_c, 9, 42, 80
1, 296160, Note_on_c, 9, 38, 80
1, 296400, Note_off_c, 9, 42, 64
1, 296400, Note_off_c, 9, 38, 64
1, 296400, Note_on_c, 9, 42, 80
1, 296640, Note_off_c, 9, 42, 64
1, 296640, Note_on_c, 9, 49, 80
1, 296640, Note_on_c, 9, 35, 80
1, 296880, Note_off_c, 9, 49, 64
1, 296880, Note_off_c, 9, 35, 64
1, 296880, Note_on_c, 9, 42, 80
1, 297120, Note_off_c, 9, 42, 64
1, 297120, Note_on_c, 9, 49, 80
1, 297120, Note_on_c, 9, 38, 80
1, 297360, Note_off_c, 9, 49, 64
1, 297360, Note_off_c, 9, 38, 64
1, 297360, Note_on_c, 9, 42, 80
1, 297600, Note_off_c, 9, 42, 64
1, 297600, Note_on_c, 9, 42, 80
1, 297600, Note_on_c, 9, 35, 80
1, 297840, Note_off_c, 9, 42, 64
1, 297840, Note_off_c, 9, 35, 64
1, 297840, Note_on_c, 9, 42, 80
1, 298080, Note_off_c, 9, 42, 64
1, 298080, Note_on_c, 9, 42, 80
1, 298080, Note_on_c, 9, 38, 80
1, 298320, Note_off_c, 9, 42, 64
1, 298320, Note_off_c, 9, 38, 64
1, 298320, Note_on_c, 9, 42, 80
1, 298560, Note_off_c, 9, 42, 64
1, 298560, Note_on_c, 9, 49, 80
1, 298560, Note_on_c, 9, 35, 80
1, 298800, Note_off_c, 9, 49, 64
1, 298800, Note_off_c, 9, 35, 64
1, 298800, Note_on_c, 9, 42, 80
1, 299040, Note_off_c, 9, 42, 64
1, 299040, Note_on_c, 9, 49, 80
1, 299040, Note_on_c, 9, 38, 80
1, 299280, Note_off_c, 9, 49, 64
1, 299280, Note_off_c, 9, 38, 64
1, 299280, Note_on_c, 9, 42, 80
1, 299520, Note_off_c, 9, 42, 64
1, 299520, Note_on_c, 9, 42, 80
1, 299520, Note_on_c, 9, 35, 80
1, 299760, Note_off_c, 9, 42, 64
1, 299760, Note_off_c, 9, 35, 64
1, 299760, Note_on_c, 9, 42, 80
1, 300000, Note_off_c, 9, 42, 64
1, 300000, Note_on_c, 9, 42, 80
1, 300000, Note_on_c, 9, 38, 80
1, 300240, Note_off_c, 9, 42, 64
1, 300240, Note_off_c, 9, 38, 64
1, 300240, Note_on_c, 9, 42, 80
1, 300480, Note_off_c, 9, 42, 64
1, 300480, Note_on_c, 9, 49, 80
1, 300480, Note_on_c, 9, 35, 80
1, 300720, Note_off_c, 9, 49, 64
1, 300720, Note_off_c, 9, 35, 64
1, 300720, Note_on_c, 9, 42, 80
1, 300960, Note_off_c, 9, 42, 64
1, 300960, Note_on_c, 9, 42, 80
1, 300960, Note_on_c, 9, 38, 80
1, 301200, Note_off_c, 9, 42, 64
1, 301200, Note_off_c, 9, 38, 64
1, 301200, Note_on_c, 9, 42, 80
1, 301440, Note_off_c, 9, 42, 64
1, 301440, Note_on_c, 9, 42, 80
1, 301440, Note_on_c, 9, 35, 80
1, 301680, Note_off_c, 9, 42, 64
1, 301680, Note_off_c, 9, 35, 64
1, 301680, Note_on_c, 9, 42, 80
1, 301920, Note_off_c, 9, 42, 64
1, 301920, Note_on_c, 9, 42, 80
1, 301920, Note_on_c, 9, 38, 80
1, 302160, Note_off_c, 9, 42, 64
1, 302160, Note_off_c, 9, 38, 64
1, 302160, Note_on_c, 9, 42, 80
1, 302400, Note_off_c, 9, 42, 64
1, 302400, Note_on_c, 9, 42, 80
1, 302400, Note_on_c, 9, 35, 80
1, 302640, Note_off_c, 9, 42, 64
1, 302640, Note_off_c, 9, 35, 64
1, 302640, Note_on_c, 9, 42, 80
1, 302880, Note_off_c, 9, 42, 64
1, 302880, Note_on_c, 9, 42, 80
1, 302880, Note_on_c, 9, 38, 80
1, 303120, Note_off_c, 9, 42, 64
1, 303120, Note_off_c, 9, 38, 64
1, 303120, Note_on_c, 9, 42, 80
1, 303360, Note_off_c, 9, 42, 64
1, 303360, Note_on_c, 9, 42, 80
1, 303360, Note_on_c, 9, 35, 80
1, 303600, Note_off_c, 9, 42, 64
1, 303600, Note_off_c, 9, 35, 64
1, 303600, Note_on_c, 9, 42, 80
1, 303840, Note_off_c, 9, 42, 64
1, 303840, Note_on_c, 9, 42, 80
1, 303840, Note_on_c, 9, 38, 80
1, 304080, Note_off_c, 9, 42, 64
1, 304080, Note_off_c, 9, 38, 64
1, 304080, Note_on_c, 9, 42, 80
1, 304320, Note_off_c, 9, 42, 64
1, 304320, Note_on_c, 9, 49, 80
1, 304320, Note_on_c, 9, 35, 80
1, 304560, Note_off_c, 9, 49, 64
1, 304560, Note_off_c, 9, 35, 64
1, 304560, Note_on_c, 9, 42, 80
1, 304800, Note_off_c, 9, 42, 64
1, 304800, Note_on_c, 9, 49, 80
1, 304800, Note_on_c, 9, 38, 80
1, 305040, Note_off_c, 9, 49, 64
1, 305040, Note_off_c, 9, 38, 64
1, 305040, Note_on_c, 9, 42, 80
1, 305280, Note_off_c, 9, 42, 64
1, 305280, Note_on_c, 9, 42, 80
1, 305280, Note_on_c, 9, 35, 80
1, 305520, Note_off_c, 9, 42, 64
1, 305520, Note_off_c, 9, 35, 64
1, 305520, Note_on_c, 9, 42, 80
1, 305760, Note_off_c, 9, 42, 64
1, 305760, Note_on_c, 9, 42, 80
1, 305760, Note_on_c, 9, 38, 80
1, 306000, Note_off_c, 9, 42, 64
1, 306000, Note_off_c, 9, 38, 64
1, 306000, Note_on_c, 9, 42, 80
1, 306240, Note_off_c, 9, 42, 64
1, 306240, Note_on_c, 9, 49, 80
1, 306240, Note_on_c, 9, 35, 80
1, 306480, Note_off_c, 9, 49, 64
1, 306480, Note_off_c, 9, 35, 64
1, 306480, Note_on_c, 9, 42, 80
1, 306720, Note_off_c, 9, 42, 64
1, 306720, Note_on_c, 9, 49, 80
1, 306720, Note_on_c, 9, 38, 80
1, 306960, Note_off_c, 9, 49, 64
1, 306960, Note_off_c, 9, 38, 64
1, 306960, Note_on_c, 9, 42, 80
1, 307200, Note_off_c, 9, 42, 64
1, 307200, Note_on_c, 9, 42, 80
1, 307200, Note_on_c, 9, 35, 80
1, 307440, Note_off_c, 9, 42, 64
1, 307440, Note_off_c, 9, 35, 64
1, 307440, Note_on_c, 9, 42, 80
1, 307680, Note_off_c, 9, 42, 64
1, 307680, Note_on_c, 9, 42, 80
1, 307680, Note_on_c, 9, 38, 80
1, 307920, Note_off_c, 9, 42, 64
1, 307920, Note_off_c, 9, 38, 64
1, 307920, Note_on_c, 9, 42, 80
1, 308160, Note_off_c, 9, 42, 64
1, 308160, Note_on_c, 9, 49, 80
1, 308160, Note_on_c, 9, 35, 80
1, 308400, Note_off_c, 9, 49, 64
1, 308400, Note_off_c, 9, 35, 64
1, 308400, Note_on_c, 9, 42, 80
1, 308640, Note_off_c, 9, 42, 64
1, 308640, Note_on_c, 9, 42, 80
1, 308640, Note_on_c, 9, 38, 80
1, 308880, Note_off_c, 9, 42, 64
1, 308880, Note_off_c, 9, 38, 64
1, 308880, Note_on_c, 9, 42, 80
1, 309120, Note_off_c, 9, 42, 64
1, 309120, Note_on_c, 9, 42, 80
1, 309120, Note_on_c, 9, 35, 80
1, 309360, Note_off_c, 9, 42, 64
1, 309360, Note_off_c, 9, 35, 64
1, 309360, Note_on_c, 9, 42, 80
1, 309600, Note_off_c, 9, 42, 64
1, 309600, Note_on_c, 9, 42, 80
1, 309600, Note_on_c, 9, 38, 80
1, 309840, Note_off_c, 9, 42, 64
1, 309840, Note_off_c, 9, 38, 64
1, 309840, Note_on_c, 9, 42, 80
1, 310080, Note_off_c, 9, 42, 64
1, 310080, Note_on_c, 9, 42, 80
1, 310080, Note_on_c, 9, 35, 80
1, 310320, Note_off_c, 9, 42, 64
1, 310320, Note_off_c, 9, 35, 64
1, 310320, Note_on_c, 9, 42, 80
1, 310560, Note_off_c, 9, 42, 64
1, 310560, Note_on_c, 9, 42, 80
1, 310560, Note_on_c, 9, 38, 80
1, 310800, Note_off_c, 9, 42, 64
1, 310800, Note_off_c, 9, 38, 64
1, 310800, Note_on_c, 9, 42, 80
1, 311040, Note_off_c, 9, 42, 64
1, 311040, Note_on_c, 9, 42, 80
1, 311040, Note_on_c, 9, 35, 80
1, 311280, Note_off_c, 9, 42, 64
1, 311280, Note_off_c, 9, 35, 64
1, 311280, Note_on_c, 9, 42, 80
1, 311520, Note_off_c, 9, 42, 64
1, 311520, Note_on_c, 9, 42, 80
1, 311520, Note_on_c, 9, 38, 80
1, 311760, Note_off_c, 9, 42, 64
1, 311760, Note_off_c, 9, 38, 64
1, 311760, Note_on_c, 9, 42, 80
1, 312000, Note_off_c, 9, 42, 64
1, 312000, Note_on_c, 9, 49, 80
1, 312000, Note_on_c, 9, 35, 80
1, 312240, Note_off_c, 9, 49, 64
1, 312240, Note_off_c, 9, 35, 64
1, 312240, Note_on_c, 9, 42, 80
1, 312480, Note_off_c, 9, 42, 64
1, 312480, Note_on_c, 9, 49, 80
1, 312480, Note_on_c, 9, 38, 80
1, 312720, Note_off_c, 9, 49, 64
1, 312720, Note_off_c, 9, 38, 64
1, 312720, Note_on_c, 9, 42, 80
1, 312960, Note_off_c, 9, 42, 64
1, 312960, Note_on_c, 9, 42, 80
1, 312960, Note_on_c, 9, 35, 80
1, 313200, Note_off_c, 9, 42, 64
1, 313200, Note_off_c, 9, 35, 64
1, 313200, Note_on_c, 9, 42, 80
1, 313440, Note_off_c, 9, 42, 64
1, 313440, Note_on_c, 9, 42, 80
1, 313440, Note_on_c, 9, 38, 80
1, 313680, Note_off_c, 9, 42, 64
1, 313680, Note_off_c, 9, 38, 64
1, 313680, Note_on_c, 9, 42, 80
1, 313920, Note_off_c, 9, 42, 64
1, 313920, Note_on_c, 9, 49, 80
1, 313920, Note_on_c, 9, 35, 80
1, 314160, Note_off_c, 9, 49, 64
1, 314160, Note_off_c, 9, 35, 64
1, 314160, Note_on_c, 9, 42, 80
1, 314400, Note_off_c, 9, 42, 64
1, 314400, Note_on_c, 9, 49, 80
1, 314400, Note_on_c, 9, 38, 80
1, 314640, Note_off_c, 9, 49, 64
1, 314640, Note_off_c, 9, 38, 64
1, 314640, Note_on_c, 9, 42, 80
1, 314880, Note_off_c, 9, 42, 64
1, 314880, Note_on_c, 9, 42, 80
1, 314880, Note_on_c, 9, 35, 80
1, 315120, Note_off_c, 9, 42, 64
1, 315120, Note_off_c, 9, 35, 64
1, 315120, Note_on_c, 9, 42, 80
1, 315360, Note_off_c, 9, 42, 64
1, 315360, Note_on_c, 9, 42, 80
1, 315360, Note_on_c, 9, 38, 80
1, 315600, Note_off_c, 9, 42, 64
1, 315600, Note_off_c, 9, 38, 64
1, 315600, Note_on_c, 9, 42, 80
1, 315840, Note_off_c, 9, 42, 64
1, 315840, Note_on_c, 9, 49, 80
1, 315840, Note_on_c, 9, 35, 80
1, 316080, Note_off_c, 9, 49, 64
1, 316080, Note_off_c, 9, 35, 64
1, 316080, Note_on_c, 9, 42, 80
1, 316320, Note_off_c, 9, 42, 64
1, 316320, Note_on_c, 9, 42, 80
1, 316320, Note_on_c, 9, 38, 80
1, 316560, Note_off_c, 9, 42, 64
1, 316560, Note_off_c, 9, 38, 64
1, 316560, Note_on_c, 9, 42, 80
1, 316800, Note_off_c, 9, 42, 64
1, 316800, Note_on_c, 9, 42, 80
1, 316800, Note_on_c, 9, 35, 80
1, 317040, Note_off_c, 9, 42, 64
1, 317040, Note_off_c, 9, 35, 64
1, 317040, Note_on_c, 9, 42, 80
1, 317280, Note_off_c, 9, 42, 64
1, 317280, Note_on_c, 9, 42, 80
1, 317280, Note_on_c, 9, 38, 80
1, 317520, Note_off_c, 9, 42, 64
1, 317520, Note_off_c, 9, 38, 64
1, 317520, Note_on_c, 9, 42, 80
1, 317760, Note_off_c, 9, 42, 64
1, 317760, Note_on_c, 9, 49, 80
1, 317760, Note_on_c, 9, 35, 80
1, 318000, Note_off_c, 9, 49, 64
1, 318000, Note_off_c, 9, 35, 64
1, 318000, Note_on_c, 9, 42, 80
1, 318240, Note_off_c, 9, 42, 64
1, 318240, Note_on_c, 9, 49, 80
1, 318240, Note_on_c, 9, 38, 80
1, 318480, Note_off_c, 9, 49, 64
1, 318480, Note_off_c, 9, 38, 64
1, 318480, Note_on_c, 9, 42, 80
1, 318720, Note_off_c, 9, 42, 64
1, 318720, Note_on_c, 9, 42, 80
1, 318720, Note_on_c, 9, 35, 80
1, 318960, Note_off_c, 9, 42, 64
1, 318960, Note_off_c, 9, 35, 64
1, 318960, Note_on_c, 9, 42, 80
1, 319200, Note_off_c, 9, 42, 64
1, 319200, Note_on_c, 9, 42, 80
1, 319200, Note_on_c, 9, 38, 80
1, 319440, Note_off_c, 9, 42, 64
1, 319440, Note_off_c, 9, 38, 64
1, 319440, Note_on_c, 9, 42, 80
1, 319680, Note_off_c, 9, 42, 64
1, 319680, Note_on_c, 9, 49, 80
1, 319680, Note_on_c, 9, 35, 80
1, 319920, Note_off_c, 9, 49, 64
1, 319920, Note_off_c, 9, 35, 64
1, 319920, Note_on_c, 9, 42, 80
1, 320160, Note_off_c, 9, 42, 64
1, 320160, Note_on_c, 9, 49, 80
1, 320160, Note_on_c, 9, 38, 80
1, 320400, Note_off_c, 9, 49, 64
1, 320400, Note_off_c, 9, 38, 64
1, 320400, Note_on_c, 9, 42, 80
1, 320640, Note_off_c, 9, 42, 64
1, 320640, Note_on_c, 9, 42, 80
1, 320640, Note_on_c, 9, 35, 80
1, 320880, Note_off_c, 9, 42, 64
1, 320880, Note_off_c, 9, 35, 64
1, 320880, Note_on_c, 9, 42, 80
1, 321120, Note_off_c, 9, 42, 64
1, 321120, Note_on_c, 9, 42, 80
1, 321120, Note_on_c, 9, 38, 80
1, 321360, Note_off_c, 9, 42, 64
1, 321360, Note_off_c, 9, 38, 64
1, 321360, Note_on_c, 9, 42, 80
1, 321600, Note_off_c, 9, 42, 64
1, 321600, Note_on_c, 9, 49, 80
1, 321600, Note_on_c, 9, 35, 80
1, 321840, Note_off_c, 9, 49, 64
1, 321840, Note_off_c, 9, 35, 64
1, 321840, Note_on_c, 9, 42, 80
1, 322080, Note_off_c, 9, 42, 64
1, 322080, Note_on_c, 9, 49, 80
1, 322080, Note_on_c, 9, 38, 80
1, 322320, Note_off_c, 9, 49, 64
1, 322320, Note_off_c, 9, 38, 64
1, 322320, Note_on_c, 9, 42, 80
1, 322560, Note_off_c, 9, 42, 64
1, 322560, Note_on_c, 9, 42, 80
1, 322560, Note_on_c, 9, 35, 80
1, 322800, Note_off_c, 9, 42, 64
1, 322800, Note_off_c, 9, 35, 64
1, 322800, Note_on_c, 9, 42, 80
1, 323040, Note_off_c, 9, 42, 64
1, 323040, Note_on_c, 9, 42, 80
1, 323040, Note_on_c, 9, 38, 80
1, 323280, Note_off_c, 9, 42, 64
1, 323280, Note_off_c, 9, 38, 64
1, 323280, Note_on_c, 9, 49, 80
1, 323520, Note_off_c, 9, 49, 64
1, 323520, Note_on_c, 9, 49, 80
1, 323520, Note_on_c, 9, 35, 80
1, 323760, Note_off_c, 9, 49, 64
1, 323760, Note_off_c, 9, 35, 64
1, 323760, Note_on_c, 9, 42, 80
1, 324000, Note_off_c, 9, 42, 64
1, 324000, Note_on_c, 9, 42, 80
1, 324000, Note_on_c, 9, 38, 80
1, 324240, Note_off_c, 9, 42, 64
1, 324240, Note_off_c, 9, 38, 64
1, 324240, Note_on_c, 9, 42, 80
1, 324480, Note_off_c, 9, 42, 64
1, 324480, Note_on_c, 9, 42, 80
1, 324480, Note_on_c, 9, 35, 80
1, 324720, Note_off_c, 9, 42, 64
1, 324720, Note_off_c, 9, 35, 64
1, 324720, Note_on_c, 9, 42, 80
1, 324960, Note_off_c, 9, 42, 64
1, 324960, Note_on_c, 9, 49, 80
1, 324960, Note_on_c, 9, 38, 80
1, 325200, Note_off_c, 9, 49, 64
1, 325200, Note_off_c, 9, 38, 64
1, 325200, Note_on_c, 9, 42, 80
1, 325440, Note_off_c, 9, 42, 64
1, 325440, Note_on_c, 9, 42, 80
1, 325440, Note_on_c, 9, 35, 80
1, 325680, Note_off_c, 9, 42, 64
1, 325680, Note_off_c, 9, 35, 64
1, 325680, Note_on_c, 9, 42, 80
1, 325920, Note_off_c, 9, 42, 64
1, 325920, Note_on_c, 9, 42, 80
1, 325920, Note_on_c, 9, 38, 80
1, 326160, Note_off_c, 9, 42, 64
1, 326160, Note_off_c, 9, 38, 64
1, 326160, Note_on_c, 9, 42, 80
1, 326400, Note_off_c, 9, 42, 64
1, 326400, Note_on_c, 9, 42, 80
1, 326400, Note_on_c, 9, 35, 80
1, 326640, Note_off_c, 9, 42, 64
1, 326640, Note_off_c, 9, 35, 64
1, 326640, Note_on_c, 9, 42, 80
1, 326880, Note_off_c, 9, 42, 64
1, 326880, Note_on_c, 9, 49, 80
1, 326880, Note_on_c, 9, 38, 80
1, 327120, Note_off_c, 9, 49, 64
1, 327120, Note_off_c, 9, 38, 64
1, 327120, Note_on_c, 9, 42, 80
1, 327360, Note_off_c, 9, 42, 64
1, 327360, Note_on_c, 9, 42, 80
1, 327360, Note_on_c, 9, 35, 80
1, 327600, Note_off_c, 9, 42, 64
1, 327600, Note_off_c, 9, 35, 64
1, 327600, Note_on_c, 9, 42, 80
1, 327840, Note_off_c, 9, 42, 64
1, 327840, Note_on_c, 9, 42, 80
1, 327840, Note_on_c, 9, 38, 80
1, 328080, Note_off_c, 9, 42, 64
1, 328080, Note_off_c, 9, 38, 64
1, 328080, Note_on_c, 9, 42, 80
1, 328320, Note_off_c, 9, 42, 64
1, 328320, Note_on_c, 9, 42, 80
1, 328320, Note_on_c, 9, 35, 80
1, 328560, Note_off_c, 9, 42, 64
1, 328560, Note_off_c, 9, 35, 64
1, 328560, Note_on_c, 9, 42, 80
1, 328800, Note_off_c, 9, 42, 64
1, 328800, Note_on_c, 9, 49, 80
1, 328800, Note_on_c, 9, 38, 80
1, 329040, Note_off_c, 9, 49, 64
1, 329040, Note_off_c, 9, 38, 64
1, 329040, Note_on_c, 9, 42, 80
1, 329280, Note_off_c, 9, 42, 64
1, 329280, Note_on_c, 9, 42, 80
1, 329280, Note_on_c, 9, 35, 80
1, 329520, Note_off_c, 9, 42, 64
1, 329520, Note_off_c, 9, 35, 64
1, 329520, Note_on_c, 9, 42, 80
1, 329760, Note_off_c, 9, 42, 64
1, 329760, Note_on_c, 9, 49, 80
1, 329760, Note_on_c, 9, 38, 80
1, 330000, Note_off_c, 9, 49, 64
1, 330000, Note_off_c, 9, 38, 64
1, 330000, Note_on_c, 9, 42, 80
1, 330240, Note_off_c, 9, 42, 64
1, 330240, Note_on_c, 9, 42, 80
1, 330240, Note_on_c, 9, 35, 80
1, 330480, Note_off_c, 9, 42, 64
1, 330480, Note_off_c, 9, 35, 64
1, 330480, Note_on_c, 9, 42, 80
1, 330720, Note_off_c, 9, 42, 64
1, 330720, Note_on_c, 9, 49, 80
1, 330720, Note_on_c, 9, 38, 80
1, 330960, Note_off_c, 9, 49, 64
1, 330960, Note_off_c, 9, 38, 64
1, 330960, Note_on_c, 9, 42, 80
1, 331200, Note_off_c, 9, 42, 64
1, 331200, Note_on_c, 9, 49, 80
1, 331200, Note_on_c, 9, 35, 80
1, 331440, Note_off_c, 9, 49, 64
1, 331440, Note_off_c, 9, 35, 64
1, 331440, Note_on_c, 9, 42, 80
1, 331680, Note_off_c, 9, 42, 64
1, 331680, Note_on_c, 9, 42, 80
1, 331680, Note_on_c, 9, 38, 80
1, 331920, Note_off_c, 9, 42, 64
1, 331920, Note_off_c, 9, 38, 64
1, 331920, Note_on_c, 9, 42, 80
1, 332160, Note_off_c, 9, 42, 64
1, 332160, Note_on_c, 9, 42, 80
1, 332160, Note_on_c, 9, 35, 80
1, 332400, Note_off_c, 9, 42, 64
1, 332400, Note_off_c, 9, 35, 64
1, 332400, Note_on_c, 9, 42, 80
1, 332640, Note_off_c, 9, 42, 64
1, 332640, Note_on_c, 9, 49, 80
1, 332640, Note_on_c, 9, 38, 80
1, 332880, Note_off_c, 9, 49, 64
1, 332880, Note_off_c, 9, 38, 64
1, 332880, Note_on_c, 9, 42, 80
1, 333120, Note_off_c, 9, 42, 64
1, 333120, Note_on_c, 9, 42, 80
1, 333120, Note_on_c, 9, 35, 80
1, 333360, Note_off_c, 9, 42, 64
1, 333360, Note_off_c, 9, 35, 64
1, 333360, Note_on_c, 9, 42, 80
1, 333600, Note_off_c, 9, 42, 64
1, 333600, Note_on_c, 9, 42, 80
1, 333600, Note_on_c, 9, 38, 80
1, 333840, Note_off_c, 9, 42, 64
1, 333840, Note_off_c, 9, 38, 64
1, 333840, Note_on_c, 9, 42, 80
1, 334080, Note_off_c, 9, 42, 64
1, 334080, Note_on_c, 9, 42, 80
1, 334080, Note_on_c, 9, 35, 80
1, 334320, Note_off_c, 9, 42, 64
1, 334320, Note_off_c, 9, 35, 64
1, 334320, Note_on_c, 9, 42, 80
1, 334560, Note_off_c, 9, 42, 64
1, 334560, Note_on_c, 9, 42, 80
1, 334560, Note_on_c, 9, 38, 80
1, 334800, Note_off_c, 9, 42, 64
1, 334800, Note_off_c, 9, 38, 64
1, 334800, Note_on_c, 9, 42, 80
1, 335040, Note_off_c, 9, 42, 64
1, 335040, Note_on_c, 9, 49, 80
1, 335040, Note_on_c, 9, 38, 80
1, 335280, Note_off_c, 9, 49, 64
1, 335280, Note_off_c, 9, 38, 64
1, 335280, Note_on_c, 9, 42, 80
1, 335520, Note_off_c, 9, 42, 64
1, 335520, Note_on_c, 9, 42, 80
1, 335520, Note_on_c, 9, 35, 80
1, 335760, Note_off_c, 9, 42, 64
1, 335760, Note_off_c, 9, 35, 64
1, 335760, Note_on_c, 9, 49, 80
1, 335760, Note_on_c, 9, 38, 80
1, 336000, Note_off_c, 9, 49, 64
1, 336000, Note_off_c, 9, 38, 64
1, 336000, Note_on_c, 9, 42, 80
1, 336000, Note_on_c, 9, 35, 80
1, 336240, Note_off_c, 9, 42, 64
1, 336240, Note_off_c, 9, 35, 64
1, 336240, Note_on_c, 9, 42, 80
1, 336480, Note_off_c, 9, 42, 64
1, 336480, Note_on_c, 9, 49, 80
1, 336480, Note_on_c, 9, 38, 80
1, 336720, Note_off_c, 9, 49, 64
1, 336720, Note_off_c, 9, 38, 64
1, 336720, Note_on_c, 9, 42, 80
1, 336960, Note_off_c, 9, 42, 64
1, 336960, Note_on_c, 9, 42, 80
1, 336960, Note_on_c, 9, 35, 80
1, 337200, Note_off_c, 9, 42, 64
1, 337200, Note_off_c, 9, 35, 64
1, 337200, Note_on_c, 9, 49, 80
1, 337200, Note_on_c, 9, 38, 80
1, 337440, Note_off_c, 9, 49, 64
1, 337440, Note_off_c, 9, 38, 64
1, 337440, Note_on_c, 9, 42, 80
1, 337440, Note_on_c, 9, 35, 80
1, 337680, Note_off_c, 9, 42, 64
1, 337680, Note_off_c, 9, 35, 64
1, 337680, Note_on_c, 9, 42, 80
1, 337920, Note_off_c, 9, 42, 64
1, 337920, Note_on_c, 9, 49, 80
1, 337920, Note_on_c, 9, 38, 80
1, 338160, Note_off_c, 9, 49, 64
1, 338160, Note_off_c, 9, 38, 64
1, 338160, Note_on_c, 9, 42, 80
1, 338400, Note_off_c, 9, 42, 64
1, 338400, Note_on_c, 9, 49, 80
1, 338400, Note_on_c, 9, 38, 80
1, 338640, Note_off_c, 9, 49, 64
1, 338640, Note_off_c, 9, 38, 64
1, 338640, Note_on_c, 9, 42, 80
1, 338880, Note_off_c, 9, 42, 64
1, 338880, Note_on_c, 9, 49, 80
1, 338880, Note_on_c, 9, 38, 80
1, 339120, Note_off_c, 9, 49, 64
1, 339120, Note_off_c, 9, 38, 64
1, 339120, Note_on_c, 9, 42, 80
1, 339360, Note_off_c, 9, 42, 64
1, 339360, Note_on_c, 9, 42, 80
1, 339360, Note_on_c, 9, 35, 80
1, 339600, Note_off_c, 9, 42, 64
1, 339600, Note_off_c, 9, 35, 64
1, 339600, Note_on_c, 9, 49, 80
1, 339600, Note_on_c, 9, 38, 80
1, 339840, Note_off_c, 9, 49, 64
1, 339840, Note_off_c, 9, 38, 64
1, 339840, Note_on_c, 9, 42, 80
1, 339840, Note_on_c, 9, 35, 80
1, 340080, Note_off_c, 9, 42, 64
1, 340080, Note_off_c, 9, 35, 64
1, 340080, Note_on_c, 9, 42, 80
1, 340320, Note_off_c, 9, 42, 64
1, 340320, Note_on_c, 9, 49, 80
1, 340320, Note_on_c, 9, 38, 80
1, 340560, Note_off_c, 9, 49, 64
1, 340560, Note_off_c, 9, 38, 64
1, 340560, Note_on_c, 9, 42, 80
1, 340800, Note_off_c, 9, 42, 64
1, 340800, Note_on_c, 9, 42, 80
1, 340800, Note_on_c, 9, 35, 80
1, 341040, Note_off_c, 9, 42, 64
1, 341040, Note_off_c, 9, 35, 64
1, 341040, Note_on_c, 9, 49, 80
1, 341040, Note_on_c, 9, 38, 80
1, 341280, Note_off_c, 9, 49, 64
1, 341280, Note_off_c, 9, 38, 64
1, 341280, Note_on_c, 9, 42, 80
1, 341280, Note_on_c, 9, 35, 80
1, 341520, Note_off_c, 9, 42, 64
1, 341520, Note_off_c, 9, 35, 64
1, 341520, Note_on_c, 9, 42, 80
1, 341760, Note_off_c, 9, 42, 64
1, 341760, Note_on_c, 9, 49, 80
1, 341760, Note_on_c, 9, 38, 80
1, 342000, Note_off_c, 9, 49, 64
1, 342000, Note_off_c, 9, 38, 64
1, 342000, Note_on_c, 9, 42, 80
1, 342240, Note_off_c, 9, 42, 64
1, 342240, Note_on_c, 9, 49, 80
1, 342240, Note_on_c, 9, 38, 80
1, 342720, Note_off_c, 9, 49, 64
1, 342720, Note_off_c, 9, 38, 64
1, 342720, Note_on_c, 9, 38, 80
1, 342960, Note_off_c, 9, 38, 64
1, 342960, Note_on_c, 9, 35, 80
1, 343200, Note_off_c, 9, 35, 64
1, 343200, Note_on_c, 9, 35, 80
1, 343440, Note_off_c, 9, 35, 64
1, 343440, Note_on_c, 9, 38, 80
1, 343680, Note_off_c, 9, 38, 64
1, 343680, Note_on_c, 9, 35, 80
1, 343920, Note_off_c, 9, 35, 64
1, 343920, Note_on_c, 9, 35, 80
1, 344160, Note_off_c, 9, 35, 64
1, 344160, Note_on_c, 9, 49, 80
1, 344160, Note_on_c, 9, 38, 80
1, 344640, Note_off_c, 9, 49, 64
1, 344640, Note_off_c, 9, 38, 64
1, 344880, Note_on_c, 9, 38, 80
1, 345120, Note_off_c, 9, 38, 64
1, 345120, Note_on_c, 9, 45, 80
1, 345360, Note_off_c, 9, 45, 64
1, 345360, Note_on_c, 9, 43, 80
1, 345600, Note_off_c, 9, 43, 64
1, 345600, Note_on_c, 9, 49, 80
1, 345600, Note_on_c, 9, 35, 80
1, 346080, Note_off_c, 9, 49, 64
1, 346080, Note_off_c, 9, 35, 64
1, 346080, Note_on_c, 9, 49, 80
1, 346080, Note_on_c, 9, 35, 80
1, 346560, Note_off_c, 9, 49, 64
1, 346560, Note_off_c, 9, 35, 64
1, 346560, Note_on_c, 9, 49, 80
1, 346560, Note_on_c, 9, 35, 80
1, 346680, Note_off_c, 9, 49, 64
1, 346680, Note_off_c, 9, 35, 64
1, 346680, Note_on_c, 9, 49, 80
1, 346800, Note_off_c, 9, 49, 64
1, 346800, Note_on_c, 9, 49, 80
1, 346920, Note_off_c, 9, 49, 64
1, 346920, Note_on_c, 9, 49, 80
1, 347040, Note_off_c, 9, 49, 64
1, 347040, Note_on_c, 9, 49, 80
1, 347160, Note_off_c, 9, 49, 64
1, 347160, Note_on_c, 9, 49, 80
1, 347280, Note_off_c, 9, 49, 64
1, 347280, Note_on_c, 9, 49, 80
1, 347400, Note_off_c, 9, 49, 64
1, 347400, Note_on_c, 9, 49, 80
1, 347520, Note_off_c, 9, 49, 64
1, 347520, Note_on_c, 9, 49, 80
1, 347640, Note_off_c, 9, 49, 64
1, 347640, Note_on_c, 9, 49, 80
1, 347760, Note_off_c, 9, 49, 64
1, 347760, Note_on_c, 9, 49, 80
1, 347880, Note_off_c, 9, 49, 64
1, 347880, Note_on_c, 9, 49, 80
1, 348000, Note_off_c, 9, 49, 64
1, 348000, Note_on_c, 9, 49, 80
1, 348120, Note_off_c, 9, 49, 64
1, 348120, Note_on_c, 9, 49, 80
1, 348240, Note_off_c, 9, 49, 64
1, 348240, Note_on_c, 9, 49, 80
1, 348360, Note_off_c, 9, 49, 64
1, 348360, Note_on_c, 9, 49, 80
1, 348480, Note_off_c, 9, 49, 64
1, 348480, Note_on_c, 9, 49, 80
1, 348600, Note_off_c, 9, 49, 64
1, 348600, Note_on_c, 9, 49, 80
1, 348720, Note_off_c, 9, 49, 64
1, 348720, Note_on_c, 9, 49, 80
1, 348840, Note_off_c, 9, 49, 64
1, 348840, Note_on_c, 9, 49, 80
1, 348960, Note_off_c, 9, 49, 64
1, 348960, Note_on_c, 9, 49, 80
1, 349080, Note_off_c, 9, 49, 64
1, 349080, Note_on_c, 9, 49, 80
1, 349200, Note_off_c, 9, 49, 64
1, 349200, Note_on_c, 9, 49, 80
1, 349320, Note_off_c, 9, 49, 64
1, 349320, Note_on_c, 9, 49, 80
1, 349440, Note_off_c, 9, 49, 64
1, 349440, Note_on_c, 9, 49, 80
1, 349560, Note_off_c, 9, 49, 64
1, 349560, Note_on_c, 9, 49, 80
1, 349680, Note_off_c, 9, 49, 64
1, 349680, Note_on_c, 9, 49, 80
1, 349800, Note_off_c, 9, 49, 64
1, 349800, Note_on_c, 9, 49, 80
1, 349920, Note_off_c, 9, 49, 64
1, 349920, Note_on_c, 9, 49, 80
1, 350040, Note_off_c, 9, 49, 64
1, 350040, Note_on_c, 9, 49, 80
1, 350160, Note_off_c, 9, 49, 64
1, 350160, Note_on_c, 9, 49, 80
1, 350280, Note_off_c, 9, 49, 64
1, 350280, Note_on_c, 9, 49, 80
1, 350400, Note_off_c, 9, 49, 64
1, 351600, Note_on_c, 9, 45, 80
1, 351720, Note_off_c, 9, 45, 64
1, 351720, Note_on_c, 9, 45, 80
1, 351840, Note_off_c, 9, 45, 64
1, 351840, Note_on_c, 9, 35, 80
1, 352080, Note_off_c, 9, 35, 64
1, 352080, End_track
0, 0, End_of_file