0, 0, Header, 1, 1, 480
1, 0, Start_track
1, 0, Title_t, "Drumkit"
1, 0, Program_c, 9, 0
1, 7680, Note_on_c, 9, 35, 80
1, 7680, Note_on_c, 9, 57, 80
1, 8640, Note_off_c, 9, 35, 64
1, 8640, Note_off_c, 9, 57, 64
1, 8880, Note_on_c, 9, 38, 80
1, 9120, Note_off_c, 9, 38, 64
1, 9120, Note_on_c, 9, 38, 80
1, 9360, Note_off_c, 9, 38, 64
1, 9360, Note_on_c, 9, 41, 80
1, 9360, Note_on_c, 9, 35, 80
1, 9360, Note_on_c, 9, 57, 80
1, 9600, Note_off_c, 9, 41, 64
1, 9600, Note_off_c, 9, 35, 64
1, 9600, Note_off_c, 9, 57, 64
1, 9600, Note_on_c, 9, 44, 80
1, 10080, Note_off_c, 9, 44, 64
1, 10080, Note_on_c, 9, 44, 80
1, 10560, Note_off_c, 9, 44, 64
1, 10560, Note_on_c, 9, 44, 80
1, 11040, Note_off_c, 9, 44, 64
1, 11040, Note_on_c, 9, 44, 80
1, 11520, Note_off_c, 9, 44, 64
1, 11520, Note_on_c, 9, 35, 80
1, 11520, Note_on_c, 9, 57, 80
1, 12000, Note_off_c, 9, 35, 64
1, 12000, Note_off_c, 9, 57, 64
1, 12240, Note_on_c, 9, 35, 80
1, 12240, Note_on_c, 9, 57, 80
1, 12720, Note_off_c, 9, 35, 64
1, 12720, Note_off_c, 9, 57, 64
1, 12960, Note_on_c, 9, 35, 80
1, 12960, Note_on_c, 9, 57, 80
1, 13440, Note_off_c, 9, 35, 64
1, 13440, Note_off_c, 9, 57, 64
1, 13440, Note_on_c, 9, 35, 80
1, 13440, Note_on_c, 9, 57, 80
1, 13920, Note_off_c, 9, 35, 64
1, 13920, Note_off_c, 9, 57, 64
1, 14160, Note_on_c, 9, 35, 80
1, 14160, Note_on_c, 9, 57, 80
1, 14640, Note_off_c, 9, 35, 64
1, 14640, Note_off_c, 9, 57, 64
1, 14880, Note_on_c, 9, 35, 80
1, 14880, Note_on_c, 9, 57, 80
1, 15360, Note_off_c, 9, 35, 64
1, 15360, Note_off_c, 9, 57, 64
1, 15360, Note_on_c, 9, 49, 80
1, 15360, Note_on_c, 9, 44, 80
1, 15840, Note_off_c, 9, 49, 64
1, 15840, Note_off_c, 9, 44, 64
1, 15840, Note_on_c, 9, 44, 80
1, 16320, Note_off_c, 9, 44, 64
1, 16320, Note_on_c, 9, 44, 80
1, 16800, Note_off_c, 9, 44, 64
1, 16800, Note_on_c, 9, 44, 80
1, 17280, Note_off_c, 9, 44, 64
1, 17280, Note_on_c, 9, 44, 80
1, 17760, Note_off_c, 9, 44, 64
1, 17760, Note_on_c, 9, 44, 80
1, 18240, Note_off_c, 9, 44, 64
1, 18240, Note_on_c, 9, 44, 80
1, 18720, Note_off_c, 9, 44, 64
1, 18720, Note_on_c, 9, 41, 80
1, 18720, Note_on_c, 9, 35, 80
1, 18720, Note_on_c, 9, 57, 80
1, 18720, Note_on_c, 9, 44, 80
1, 18960, Note_off_c, 9, 41, 64
1, 18960, Note_off_c, 9, 35, 64
1, 18960, Note_off_c, 9, 57, 64
1, 18960, Note_off_c, 9, 44, 64
1, 18960, Note_on_c, 9, 41, 80
1, 18960, Note_on_c, 9, 35, 80
1, 18960, Note_on_c, 9, 57, 80
1, 19200, Note_off_c, 9, 41, 64
1, 19200, Note_off_c, 9, 35, 64
1, 19200, Note_off_c, 9, 57, 64
1, 19200, Note_on_c, 9, 35, 80
1, 19200, Note_on_c, 9, 57, 80
1, 19200, Note_on_c, 9, 44, 80
1, 19680, Note_off_c, 9, 35, 64
1, 19680, Note_off_c, 9, 57, 64
1, 19680, Note_off_c, 9, 44, 64
1, 19680, Note_on_c, 9, 44, 80
1, 20160, Note_off_c, 9, 44, 64
1, 20160, Note_on_c, 9, 44, 80
1, 20640, Note_off_c, 9, 44, 64
1, 20640, Note_on_c, 9, 44, 80
1, 21120, Note_off_c, 9, 44, 64
1, 21120, Note_on_c, 9, 41, 80
1, 21120, Note_on_c, 9, 44, 80
1, 21600, Note_off_c, 9, 41, 64
1, 21600, Note_off_c, 9, 44, 64
1, 21600, Note_on_c, 9, 41, 80
1, 21600, Note_on_c, 9, 44, 80
1, 22080, Note_off_c, 9, 41, 64
1, 22080, Note_off_c, 9, 44, 64
1, 22080, Note_on_c, 9, 41, 80
1, 22080, Note_on_c, 9, 44, 80
1, 22560, Note_off_c, 9, 41, 64
1, 22560, Note_off_c, 9, 44, 64
1, 22560, Note_on_c, 9, 41, 80
1, 22560, Note_on_c, 9, 44, 80
1, 22800, Note_off_c, 9, 41, 64
1, 22800, Note_off_c, 9, 44, 64
1, 22800, Note_on_c, 9, 38, 80
1, 23040, Note_off_c, 9, 38, 64
1, 23040, Note_on_c, 9, 35, 80
1, 23040, Note_on_c, 9, 44, 80
1, 23520, Note_off_c, 9, 35, 64
1, 23520, Note_off_c, 9, 44, 64
1, 23520, Note_on_c, 9, 38, 80
1, 23520, Note_on_c, 9, 44, 80
1, 24000, Note_off_c, 9, 38, 64
1, 24000, Note_off_c, 9, 44, 64
1, 24000, Note_on_c, 9, 35, 80
1, 24000, Note_on_c, 9, 44, 80
1, 24480, Note_off_c, 9, 35, 64
1, 24480, Note_off_c, 9, 44, 64
1, 24480, Note_on_c, 9, 38, 80
1, 24480, Note_on_c, 9, 44, 80
1, 24960, Note_off_c, 9, 38, 64
1, 24960, Note_off_c, 9, 44, 64
1, 24960, Note_on_c, 9, 35, 80
1, 24960, Note_on_c, 9, 44, 80
1, 25440, Note_off_c, 9, 35, 64
1, 25440, Note_off_c, 9, 44, 64
1, 25440, Note_on_c, 9, 38, 80
1, 25440, Note_on_c, 9, 44, 80
1, 25920, Note_off_c, 9, 38, 64
1, 25920, Note_off_c, 9, 44, 64
1, 25920, Note_on_c, 9, 35, 80
1, 25920, Note_on_c, 9, 44, 80
1, 26400, Note_off_c, 9, 35, 64
1, 26400, Note_off_c, 9, 44, 64
1, 26400, Note_on_c, 9, 38, 80
1, 26400, Note_on_c, 9, 44, 80
1, 26880, Note_off_c, 9, 38, 64
1, 26880, Note_off_c, 9, 44, 64
1, 26880, Note_on_c, 9, 35, 80
1, 26880, Note_on_c, 9, 44, 80
1, 27360, Note_off_c, 9, 35, 64
1, 27360, Note_off_c, 9, 44, 64
1, 27360, Note_on_c, 9, 38, 80
1, 27360, Note_on_c, 9, 44, 80
1, 27840, Note_off_c, 9, 38, 64
1, 27840, Note_off_c, 9, 44, 64
1, 27840, Note_on_c, 9, 35, 80
1, 27840, Note_on_c, 9, 44, 80
1, 28320, Note_off_c, 9, 35, 64
1, 28320, Note_off_c, 9, 44, 64
1, 28320, Note_on_c, 9, 38, 80
1, 28320, Note_on_c, 9, 44, 80
1, 28800, Note_off_c, 9, 38, 64
1, 28800, Note_off_c, 9, 44, 64
1, 28800, Note_on_c, 9, 35, 80
1, 28800, Note_on_c, 9, 44, 80
1, 29280, Note_off_c, 9, 35, 64
1, 29280, Note_off_c, 9, 44, 64
1, 29280, Note_on_c, 9, 38, 80
1, 29280, Note_on_c, 9, 44, 80
1, 29760, Note_off_c, 9, 38, 64
1, 29760, Note_off_c, 9, 44, 64
1, 29760, Note_on_c, 9, 35, 80
1, 29760, Note_on_c, 9, 44, 80
1, 30240, Note_off_c, 9, 35, 64
1, 30240, Note_off_c, 9, 44, 64
1, 30240, Note_on_c, 9, 38, 80
1, 30240, Note_on_c, 9, 44, 80
1, 30720, Note_off_c, 9, 38, 64
1, 30720, Note_off_c, 9, 44, 64
1, 30720, Note_on_c, 9, 35, 80
1, 30720, Note_on_c, 9, 44, 80
1, 31200, Note_off_c, 9, 35, 64
1, 31200, Note_off_c, 9, 44, 64
1, 31200, Note_on_c, 9, 38, 80
1, 31200, Note_on_c, 9, 44, 80
1, 31680, Note_off_c, 9, 38, 64
1, 31680, Note_off_c, 9, 44, 64
1, 31680, Note_on_c, 9, 35, 80
1, 31680, Note_on_c, 9, 44, 80
1, 32160, Note_off_c, 9, 35, 64
1, 32160, Note_off_c, 9, 44, 64
1, 32160, Note_on_c, 9, 38, 80
1, 32160, Note_on_c, 9, 44, 80
1, 32640, Note_off_c, 9, 38, 64
1, 32640, Note_off_c, 9, 44, 64
1, 32640, Note_on_c, 9, 35, 80
1, 32640, Note_on_c, 9, 44, 80
1, 33120, Note_off_c, 9, 35, 64
1, 33120, Note_off_c, 9, 44, 64
1, 33120, Note_on_c, 9, 38, 80
1, 33120, Note_on_c, 9, 44, 80
1, 33600, Note_off_c, 9, 38, 64
1, 33600, Note_off_c, 9, 44, 64
1, 33600, Note_on_c, 9, 35, 80
1, 33600, Note_on_c, 9, 44, 80
1, 34080, Note_off_c, 9, 35, 64
1, 34080, Note_off_c, 9, 44, 64
1, 34080, Note_on_c, 9, 38, 80
1, 34080, Note_on_c, 9, 44, 80
1, 34560, Note_off_c, 9, 38, 64
1, 34560, Note_off_c, 9, 44, 64
1, 34560, Note_on_c, 9, 35, 80
1, 34560, Note_on_c, 9, 44, 80
1, 35040, Note_off_c, 9, 35, 64
1, 35040, Note_off_c, 9, 44, 64
1, 35040, Note_on_c, 9, 38, 80
1, 35040, Note_on_c, 9, 44, 80
1, 35520, Note_off_c, 9, 38, 64
1, 35520, Note_off_c, 9, 44, 64
1, 35520, Note_on_c, 9, 35, 80
1, 35520, Note_on_c, 9, 44, 80
1, 36000, Note_off_c, 9, 35, 64
1, 36000, Note_off_c, 9, 44, 64
1, 36000, Note_on_c, 9, 38, 80
1, 36000, Note_on_c, 9, 44, 80
1, 36480, Note_off_c, 9, 38, 64
1, 36480, Note_off_c, 9, 44, 64
1, 36480, Note_on_c, 9, 35, 80
1, 36480, Note_on_c, 9, 44, 80
1, 36960, Note_off_c, 9, 35, 64
1, 36960, Note_off_c, 9, 44, 64
1, 36960, Note_on_c, 9, 38, 80
1, 36960, Note_on_c, 9, 44, 80
1, 37440, Note_off_c, 9, 38, 64
1, 37440, Note_off_c, 9, 44, 64
1, 37440, Note_on_c, 9, 35, 80
1, 37440, Note_on_c, 9, 44, 80
1, 37920, Note_off_c, 9, 35, 64
1, 37920, Note_off_c, 9, 44, 64
1, 37920, Note_on_c, 9, 38, 80
1, 37920, Note_on_c, 9, 44, 80
1, 38400, Note_off_c, 9, 38, 64
1, 38400, Note_off_c, 9, 44, 64
1, 38400, Note_on_c, 9, 35, 80
1, 38400, Note_on_c, 9, 44, 80
1, 38880, Note_off_c, 9, 35, 64
1, 38880, Note_off_c, 9, 44, 64
1, 38880, Note_on_c, 9, 38, 80
1, 38880, Note_on_c, 9, 44, 80
1, 39360, Note_off_c, 9, 38, 64
1, 39360, Note_off_c, 9, 44, 64
1, 39360, Note_on_c, 9, 35, 80
1, 39360, Note_on_c, 9, 44, 80
1, 39840, Note_off_c, 9, 35, 64
1, 39840, Note_off_c, 9, 44, 64
1, 39840, Note_on_c, 9, 38, 80
1, 39840, Note_on_c, 9, 44, 80
1, 40320, Note_off_c, 9, 38, 64
1, 40320, Note_off_c, 9, 44, 64
1, 40320, Note_on_c, 9, 35, 80
1, 40320, Note_on_c, 9, 44, 80
1, 40800, Note_off_c, 9, 35, 64
1, 40800, Note_off_c, 9, 44, 64
1, 40800, Note_on_c, 9, 38, 80
1, 40800, Note_on_c, 9, 44, 80
1, 41280, Note_off_c, 9, 38, 64
1, 41280, Note_off_c, 9, 44, 64
1, 41280, Note_on_c, 9, 35, 80
1, 41280, Note_on_c, 9, 44, 80
1, 41760, Note_off_c, 9, 35, 64
1, 41760, Note_off_c, 9, 44, 64
1, 41760, Note_on_c, 9, 38, 80
1, 41760, Note_on_c, 9, 44, 80
1, 42240, Note_off_c, 9, 38, 64
1, 42240, Note_off_c, 9, 44, 64
1, 42240, Note_on_c, 9, 35, 80
1, 42240, Note_on_c, 9, 44, 80
1, 42720, Note_off_c, 9, 35, 64
1, 42720, Note_off_c, 9, 44, 64
1, 42720, Note_on_c, 9, 38, 80
1, 42720, Note_on_c, 9, 44, 80
1, 43200, Note_off_c, 9, 38, 64
1, 43200, Note_off_c, 9, 44, 64
1, 43200, Note_on_c, 9, 35, 80
1, 43200, Note_on_c, 9, 44, 80
1, 43680, Note_off_c, 9, 35, 64
1, 43680, Note_off_c, 9, 44, 64
1, 43680, Note_on_c, 9, 38, 80
1, 43680, Note_on_c, 9, 44, 80
1, 44160, Note_off_c, 9, 38, 64
1, 44160, Note_off_c, 9, 44, 64
1, 44160, Note_on_c, 9, 35, 80
1, 44160, Note_on_c, 9, 44, 80
1, 44640, Note_off_c, 9, 35, 64
1, 44640, Note_off_c, 9, 44, 64
1, 44640, Note_on_c, 9, 38, 80
1, 44640, Note_on_c, 9, 44, 80
1, 45120, Note_off_c, 9, 38, 64
1, 45120, Note_off_c, 9, 44, 64
1, 45120, Note_on_c, 9, 35, 80
1, 45120, Note_on_c, 9, 44, 80
1, 45600, Note_off_c, 9, 35, 64
1, 45600, Note_off_c, 9, 44, 64
1, 45600, Note_on_c, 9, 38, 80
1, 45600, Note_on_c, 9, 44, 80
1, 46080, Note_off_c, 9, 38, 64
1, 46080, Note_off_c, 9, 44, 64
1, 46080, Note_on_c, 9, 35, 80
1, 46080, Note_on_c, 9, 44, 80
1, 46560, Note_off_c, 9, 35, 64
1, 46560, Note_off_c, 9, 44, 64
1, 46560, Note_on_c, 9, 38, 80
1, 46560, Note_on_c, 9, 44, 80
1, 47040, Note_off_c, 9, 38, 64
1, 47040, Note_off_c, 9, 44, 64
1, 47040, Note_on_c, 9, 35, 80
1, 47040, Note_on_c, 9, 44, 80
1, 47520, Note_off_c, 9, 35, 64
1, 47520, Note_off_c, 9, 44, 64
1, 47520, Note_on_c, 9, 38, 80
1, 47520, Note_on_c, 9, 44, 80
1, 48000, Note_off_c, 9, 38, 64
1, 48000, Note_off_c, 9, 44, 64
1, 48000, Note_on_c, 9, 35, 80
1, 48000, Note_on_c, 9, 44, 80
1, 48480, Note_off_c, 9, 35, 64
1, 48480, Note_off_c, 9, 44, 64
1, 48480, Note_on_c, 9, 38, 80
1, 48480, Note_on_c, 9, 44, 80
1, 48960, Note_off_c, 9, 38, 64
1, 48960, Note_off_c, 9, 44, 64
1, 48960, Note_on_c, 9, 35, 80
1, 48960, Note_on_c, 9, 44, 80
1, 49440, Note_off_c, 9, 35, 64
1, 49440, Note_off_c, 9, 44, 64
1, 49440, Note_on_c, 9, 38, 80
1, 49440, Note_on_c, 9, 44, 80
1, 49920, Note_off_c, 9, 38, 64
1, 49920, Note_off_c, 9, 44, 64
1, 49920, Note_on_c, 9, 35, 80
1, 49920, Note_on_c, 9, 44, 80
1, 50400, Note_off_c, 9, 35, 64
1, 50400, Note_off_c, 9, 44, 64
1, 50400, Note_on_c, 9, 38, 80
1, 50400, Note_on_c, 9, 44, 80
1, 50880, Note_off_c, 9, 38, 64
1, 50880, Note_off_c, 9, 44, 64
1, 50880, Note_on_c, 9, 35, 80
1, 50880, Note_on_c, 9, 44, 80
1, 51360, Note_off_c, 9, 35, 64
1, 51360, Note_off_c, 9, 44, 64
1, 51360, Note_on_c, 9, 38, 80
1, 51360, Note_on_c, 9, 44, 80
1, 51840, Note_off_c, 9, 38, 64
1, 51840, Note_off_c, 9, 44, 64
1, 51840, Note_on_c, 9, 35, 80
1, 51840, Note_on_c, 9, 44, 80
1, 52320, Note_off_c, 9, 35, 64
1, 52320, Note_off_c, 9, 44, 64
1, 52320, Note_on_c, 9, 38, 80
1, 52320, Note_on_c, 9, 44, 80
1, 52800, Note_off_c, 9, 38, 64
1, 52800, Note_off_c, 9, 44, 64
1, 52800, Note_on_c, 9, 35, 80
1, 52800, Note_on_c, 9, 44, 80
1, 53280, Note_off_c, 9, 35, 64
1, 53280, Note_off_c, 9, 44, 64
1, 53280, Note_on_c, 9, 38, 80
1, 53280, Note_on_c, 9, 44, 80
1, 53760, Note_off_c, 9, 38, 64
1, 53760, Note_off_c, 9, 44, 64
1, 53760, Note_on_c, 9, 35, 80
1, 53760, Note_on_c, 9, 44, 80
1, 54240, Note_off_c, 9, 35, 64
1, 54240, Note_off_c, 9, 44, 64
1, 54240, Note_on_c, 9, 38, 80
1, 54240, Note_on_c, 9, 44, 80
1, 54720, Note_off_c, 9, 38, 64
1, 54720, Note_off_c, 9, 44, 64
1, 54720, Note_on_c, 9, 35, 80
1, 54720, Note_on_c, 9, 44, 80
1, 55200, Note_off_c, 9, 35, 64
1, 55200, Note_off_c, 9, 44, 64
1, 55200, Note_on_c, 9, 38, 80
1, 55200, Note_on_c, 9, 44, 80
1, 55680, Note_off_c, 9, 38, 64
1, 55680, Note_off_c, 9, 44, 64
1, 55680, Note_on_c, 9, 35, 80
1, 55680, Note_on_c, 9, 44, 80
1, 56160, Note_off_c, 9, 35, 64
1, 56160, Note_off_c, 9, 44, 64
1, 56160, Note_on_c, 9, 38, 80
1, 56160, Note_on_c, 9, 44, 80
1, 56640, Note_off_c, 9, 38, 64
1, 56640, Note_off_c, 9, 44, 64
1, 56640, Note_on_c, 9, 35, 80
1, 56640, Note_on_c, 9, 44, 80
1, 57120, Note_off_c, 9, 35, 64
1, 57120, Note_off_c, 9, 44, 64
1, 57120, Note_on_c, 9, 38, 80
1, 57120, Note_on_c, 9, 44, 80
1, 57600, Note_off_c, 9, 38, 64
1, 57600, Note_off_c, 9, 44, 64
1, 57600, Note_on_c, 9, 35, 80
1, 57600, Note_on_c, 9, 44, 80
1, 58080, Note_off_c, 9, 35, 64
1, 58080, Note_off_c, 9, 44, 64
1, 58080, Note_on_c, 9, 38, 80
1, 58080, Note_on_c, 9, 44, 80
1, 58560, Note_off_c, 9, 38, 64
1, 58560, Note_off_c, 9, 44, 64
1, 58560, Note_on_c, 9, 35, 80
1, 58560, Note_on_c, 9, 44, 80
1, 59040, Note_off_c, 9, 35, 64
1, 59040, Note_off_c, 9, 44, 64
1, 59040, Note_on_c, 9, 38, 80
1, 59040, Note_on_c, 9, 44, 80
1, 59520, Note_off_c, 9, 38, 64
1, 59520, Note_off_c, 9, 44, 64
1, 59520, Note_on_c, 9, 35, 80
1, 59520, Note_on_c, 9, 44, 80
1, 60000, Note_off_c, 9, 35, 64
1, 60000, Note_off_c, 9, 44, 64
1, 60000, Note_on_c, 9, 38, 80
1, 60000, Note_on_c, 9, 44, 80
1, 60480, Note_off_c, 9, 38, 64
1, 60480, Note_off_c, 9, 44, 64
1, 60480, Note_on_c, 9, 35, 80
1, 60480, Note_on_c, 9, 44, 80
1, 60960, Note_off_c, 9, 35, 64
1, 60960, Note_off_c, 9, 44, 64
1, 60960, Note_on_c, 9, 38, 80
1, 60960, Note_on_c, 9, 44, 80
1, 61440, Note_off_c, 9, 38, 64
1, 61440, Note_off_c, 9, 44, 64
1, 61440, Note_on_c, 9, 35, 80
1, 61440, Note_on_c, 9, 44, 80
1, 61920, Note_off_c, 9, 35, 64
1, 61920, Note_off_c, 9, 44, 64
1, 61920, Note_on_c, 9, 38, 80
1, 61920, Note_on_c, 9, 44, 80
1, 62400, Note_off_c, 9, 38, 64
1, 62400, Note_off_c, 9, 44, 64
1, 62400, Note_on_c, 9, 35, 80
1, 62400, Note_on_c, 9, 44, 80
1, 62880, Note_off_c, 9, 35, 64
1, 62880, Note_off_c, 9, 44, 64
1, 62880, Note_on_c, 9, 38, 80
1, 62880, Note_on_c, 9, 44, 80
1, 63360, Note_off_c, 9, 38, 64
1, 63360, Note_off_c, 9, 44, 64
1, 63360, Note_on_c, 9, 35, 80
1, 63360, Note_on_c, 9, 44, 80
1, 63840, Note_off_c, 9, 35, 64
1, 63840, Note_off_c, 9, 44, 64
1, 63840, Note_on_c, 9, 38, 80
1, 63840, Note_on_c, 9, 44, 80
1, 64320, Note_off_c, 9, 38, 64
1, 64320, Note_off_c, 9, 44, 64
1, 64320, Note_on_c, 9, 35, 80
1, 64320, Note_on_c, 9, 44, 80
1, 64800, Note_off_c, 9, 35, 64
1, 64800, Note_off_c, 9, 44, 64
1, 64800, Note_on_c, 9, 38, 80
1, 64800, Note_on_c, 9, 44, 80
1, 65280, Note_off_c, 9, 38, 64
1, 65280, Note_off_c, 9, 44, 64
1, 65280, Note_on_c, 9, 35, 80
1, 65280, Note_on_c, 9, 44, 80
1, 65760, Note_off_c, 9, 35, 64
1, 65760, Note_off_c, 9, 44, 64
1, 65760, Note_on_c, 9, 38, 80
1, 65760, Note_on_c, 9, 44, 80
1, 66240, Note_off_c, 9, 38, 64
1, 66240, Note_off_c, 9, 44, 64
1, 66240, Note_on_c, 9, 35, 80
1, 66240, Note_on_c, 9, 44, 80
1, 66720, Note_off_c, 9, 35, 64
1, 66720, Note_off_c, 9, 44, 64
1, 66720, Note_on_c, 9, 38, 80
1, 66720, Note_on_c, 9, 44, 80
1, 67200, Note_off_c, 9, 38, 64
1, 67200, Note_off_c, 9, 44, 64
1, 67200, Note_on_c, 9, 35, 80
1, 67200, Note_on_c, 9, 44, 80
1, 67680, Note_off_c, 9, 35, 64
1, 67680, Note_off_c, 9, 44, 64
1, 67680, Note_on_c, 9, 38, 80
1, 67680, Note_on_c, 9, 44, 80
1, 68160, Note_off_c, 9, 38, 64
1, 68160, Note_off_c, 9, 44, 64
1, 68160, Note_on_c, 9, 35, 80
1, 68160, Note_on_c, 9, 44, 80
1, 68640, Note_off_c, 9, 35, 64
1, 68640, Note_off_c, 9, 44, 64
1, 68640, Note_on_c, 9, 38, 80
1, 68640, Note_on_c, 9, 44, 80
1, 69120, Note_off_c, 9, 38, 64
1, 69120, Note_off_c, 9, 44, 64
1, 69120, Note_on_c, 9, 35, 80
1, 69120, Note_on_c, 9, 44, 80
1, 69600, Note_off_c, 9, 35, 64
1, 69600, Note_off_c, 9, 44, 64
1, 69600, Note_on_c, 9, 38, 80
1, 69600, Note_on_c, 9, 44, 80
1, 70080, Note_off_c, 9, 38, 64
1, 70080, Note_off_c, 9, 44, 64
1, 70080, Note_on_c, 9, 35, 80
1, 70080, Note_on_c, 9, 44, 80
1, 70560, Note_off_c, 9, 35, 64
1, 70560, Note_off_c, 9, 44, 64
1, 70560, Note_on_c, 9, 38, 80
1, 70560, Note_on_c, 9, 44, 80
1, 71040, Note_off_c, 9, 38, 64
1, 71040, Note_off_c, 9, 44, 64
1, 71040, Note_on_c, 9, 35, 80
1, 71040, Note_on_c, 9, 44, 80
1, 71520, Note_off_c, 9, 35, 64
1, 71520, Note_off_c, 9, 44, 64
1, 71520, Note_on_c, 9, 38, 80
1, 71520, Note_on_c, 9, 44, 80
1, 72000, Note_off_c, 9, 38, 64
1, 72000, Note_off_c, 9, 44, 64
1, 72000, Note_on_c, 9, 35, 80
1, 72000, Note_on_c, 9, 44, 80
1, 72480, Note_off_c, 9, 35, 64
1, 72480, Note_off_c, 9, 44, 64
1, 72480, Note_on_c, 9, 38, 80
1, 72480, Note_on_c, 9, 44, 80
1, 72960, Note_off_c, 9, 38, 64
1, 72960, Note_off_c, 9, 44, 64
1, 72960, Note_on_c, 9, 35, 80
1, 72960, Note_on_c, 9, 44, 80
1, 73440, Note_off_c, 9, 35, 64
1, 73440, Note_off_c, 9, 44, 64
1, 73440, Note_on_c, 9, 38, 80
1, 73440, Note_on_c, 9, 44, 80
1, 73920, Note_off_c, 9, 38, 64
1, 73920, Note_off_c, 9, 44, 64
1, 73920, Note_on_c, 9, 35, 80
1, 73920, Note_on_c, 9, 44, 80
1, 74400, Note_off_c, 9, 35, 64
1, 74400, Note_off_c, 9, 44, 64
1, 74400, Note_on_c, 9, 38, 80
1, 74400, Note_on_c, 9, 44, 80
1, 74880, Note_off_c, 9, 38, 64
1, 74880, Note_off_c, 9, 44, 64
1, 74880, Note_on_c, 9, 35, 80
1, 74880, Note_on_c, 9, 44, 80
1, 75360, Note_off_c, 9, 35, 64
1, 75360, Note_off_c, 9, 44, 64
1, 75360, Note_on_c, 9, 38, 80
1, 75360, Note_on_c, 9, 44, 80
1, 75840, Note_off_c, 9, 38, 64
1, 75840, Note_off_c, 9, 44, 64
1, 75840, Note_on_c, 9, 35, 80
1, 75840, Note_on_c, 9, 44, 80
1, 76320, Note_off_c, 9, 35, 64
1, 76320, Note_off_c, 9, 44, 64
1, 76320, Note_on_c, 9, 38, 80
1, 76320, Note_on_c, 9, 44, 80
1, 76800, Note_off_c, 9, 38, 64
1, 76800, Note_off_c, 9, 44, 64
1, 76800, Note_on_c, 9, 35, 80
1, 76800, Note_on_c, 9, 44, 80
1, 77280, Note_off_c, 9, 35, 64
1, 77280, Note_off_c, 9, 44, 64
1, 77280, Note_on_c, 9, 38, 80
1, 77280, Note_on_c, 9, 44, 80
1, 77760, Note_off_c, 9, 38, 64
1, 77760, Note_off_c, 9, 44, 64
1, 77760, Note_on_c, 9, 35, 80
1, 77760, Note_on_c, 9, 44, 80
1, 78240, Note_off_c, 9, 35, 64
1, 78240, Note_off_c, 9, 44, 64
1, 78240, Note_on_c, 9, 38, 80
1, 78240, Note_on_c, 9, 44, 80
1, 78720, Note_off_c, 9, 38, 64
1, 78720, Note_off_c, 9, 44, 64
1, 78720, Note_on_c, 9, 35, 80
1, 78720, Note_on_c, 9, 44, 80
1, 79200, Note_off_c, 9, 35, 64
1, 79200, Note_off_c, 9, 44, 64
1, 79200, Note_on_c, 9, 38, 80
1, 79200, Note_on_c, 9, 44, 80
1, 79680, Note_off_c, 9, 38, 64
1, 79680, Note_off_c, 9, 44, 64
1, 79680, Note_on_c, 9, 35, 80
1, 79680, Note_on_c, 9, 44, 80
1, 80160, Note_off_c, 9, 35, 64
1, 80160, Note_off_c, 9, 44, 64
1, 80160, Note_on_c, 9, 38, 80
1, 80160, Note_on_c, 9, 44, 80
1, 80640, Note_off_c, 9, 38, 64
1, 80640, Note_off_c, 9, 44, 64
1, 80640, Note_on_c, 9, 35, 80
1, 80640, Note_on_c, 9, 44, 80
1, 81120, Note_off_c, 9, 35, 64
1, 81120, Note_off_c, 9, 44, 64
1, 81120, Note_on_c, 9, 38, 80
1, 81120, Note_on_c, 9, 44, 80
1, 81600, Note_off_c, 9, 38, 64
1, 81600, Note_off_c, 9, 44, 64
1, 81600, Note_on_c, 9, 35, 80
1, 81600, Note_on_c, 9, 44, 80
1, 82080, Note_off_c, 9, 35, 64
1, 82080, Note_off_c, 9, 44, 64
1, 82080, Note_on_c, 9, 38, 80
1, 82080, Note_on_c, 9, 44, 80
1, 82560, Note_off_c, 9, 38, 64
1, 82560, Note_off_c, 9, 44, 64
1, 82560, Note_on_c, 9, 35, 80
1, 82560, Note_on_c, 9, 44, 80
1, 83040, Note_off_c, 9, 35, 64
1, 83040, Note_off_c, 9, 44, 64
1, 83040, Note_on_c, 9, 38, 80
1, 83040, Note_on_c, 9, 44, 80
1, 83520, Note_off_c, 9, 38, 64
1, 83520, Note_off_c, 9, 44, 64
1, 83520, Note_on_c, 9, 35, 80
1, 83520, Note_on_c, 9, 44, 80
1, 84000, Note_off_c, 9, 35, 64
1, 84000, Note_off_c, 9, 44, 64
1, 84000, Note_on_c, 9, 38, 80
1, 84000, Note_on_c, 9, 44, 80
1, 84480, Note_off_c, 9, 38, 64
1, 84480, Note_off_c, 9, 44, 64
1, 84480, Note_on_c, 9, 35, 80
1, 84480, Note_on_c, 9, 44, 80
1, 84960, Note_off_c, 9, 35, 64
1, 84960, Note_off_c, 9, 44, 64
1, 84960, Note_on_c, 9, 38, 80
1, 84960, Note_on_c, 9, 44, 80
1, 85440, Note_off_c, 9, 38, 64
1, 85440, Note_off_c, 9, 44, 64
1, 85440, Note_on_c, 9, 35, 80
1, 85440, Note_on_c, 9, 44, 80
1, 85920, Note_off_c, 9, 35, 64
1, 85920, Note_off_c, 9, 44, 64
1, 85920, Note_on_c, 9, 38, 80
1, 85920, Note_on_c, 9, 44, 80
1, 86400, Note_off_c, 9, 38, 64
1, 86400, Note_off_c, 9, 44, 64
1, 86400, Note_on_c, 9, 35, 80
1, 86400, Note_on_c, 9, 44, 80
1, 86880, Note_off_c, 9, 35, 64
1, 86880, Note_off_c, 9, 44, 64
1, 86880, Note_on_c, 9, 38, 80
1, 86880, Note_on_c, 9, 44, 80
1, 87360, Note_off_c, 9, 38, 64
1, 87360, Note_off_c, 9, 44, 64
1, 87360, Note_on_c, 9, 35, 80
1, 87360, Note_on_c, 9, 44, 80
1, 87840, Note_off_c, 9, 35, 64
1, 87840, Note_off_c, 9, 44, 64
1, 87840, Note_on_c, 9, 38, 80
1, 87840, Note_on_c, 9, 44, 80
1, 88320, Note_off_c, 9, 38, 64
1, 88320, Note_off_c, 9, 44, 64
1, 88320, Note_on_c, 9, 35, 80
1, 88320, Note_on_c, 9, 44, 80
1, 88800, Note_off_c, 9, 35, 64
1, 88800, Note_off_c, 9, 44, 64
1, 88800, Note_on_c, 9, 38, 80
1, 88800, Note_on_c, 9, 44, 80
1, 89280, Note_off_c, 9, 38, 64
1, 89280, Note_off_c, 9, 44, 64
1, 89280, Note_on_c, 9, 35, 80
1, 89280, Note_on_c, 9, 44, 80
1, 89760, Note_off_c, 9, 35, 64
1, 89760, Note_off_c, 9, 44, 64
1, 89760, Note_on_c, 9, 38, 80
1, 89760, Note_on_c, 9, 44, 80
1, 90240, Note_off_c, 9, 38, 64
1, 90240, Note_off_c, 9, 44, 64
1, 90240, Note_on_c, 9, 35, 80
1, 90240, Note_on_c, 9, 44, 80
1, 90720, Note_off_c, 9, 35, 64
1, 90720, Note_off_c, 9, 44, 64
1, 90720, Note_on_c, 9, 38, 80
1, 90720, Note_on_c, 9, 44, 80
1, 91200, Note_off_c, 9, 38, 64
1, 91200, Note_off_c, 9, 44, 64
1, 91200, Note_on_c, 9, 35, 80
1, 91200, Note_on_c, 9, 44, 80
1, 91680, Note_off_c, 9, 35, 64
1, 91680, Note_off_c, 9, 44, 64
1, 91680, Note_on_c, 9, 38, 80
1, 91680, Note_on_c, 9, 44, 80
1, 92160, Note_off_c, 9, 38, 64
1, 92160, Note_off_c, 9, 44, 64
1, 92160, Note_on_c, 9, 35, 80
1, 92160, Note_on_c, 9, 44, 80
1, 92640, Note_off_c, 9, 35, 64
1, 92640, Note_off_c, 9, 44, 64
1, 92640, Note_on_c, 9, 38, 80
1, 92640, Note_on_c, 9, 44, 80
1, 93120, Note_off_c, 9, 38, 64
1, 93120, Note_off_c, 9, 44, 64
1, 93120, Note_on_c, 9, 35, 80
1, 93120, Note_on_c, 9, 44, 80
1, 93600, Note_off_c, 9, 35, 64
1, 93600, Note_off_c, 9, 44, 64
1, 93600, Note_on_c, 9, 38, 80
1, 93600, Note_on_c, 9, 44, 80
1, 94080, Note_off_c, 9, 38, 64
1, 94080, Note_off_c, 9, 44, 64
1, 94080, Note_on_c, 9, 35, 80
1, 94080, Note_on_c, 9, 44, 80
1, 94560, Note_off_c, 9, 35, 64
1, 94560, Note_off_c, 9, 44, 64
1, 94560, Note_on_c, 9, 38, 80
1, 94560, Note_on_c, 9, 44, 80
1, 95040, Note_off_c, 9, 38, 64
1, 95040, Note_off_c, 9, 44, 64
1, 95040, Note_on_c, 9, 35, 80
1, 95040, Note_on_c, 9, 44, 80
1, 95520, Note_off_c, 9, 35, 64
1, 95520, Note_off_c, 9, 44, 64
1, 95520, Note_on_c, 9, 38, 80
1, 95520, Note_on_c, 9, 44, 80
1, 96000, Note_off_c, 9, 38, 64
1, 96000, Note_off_c, 9, 44, 64
1, 96000, Note_on_c, 9, 35, 80
1, 96000, Note_on_c, 9, 44, 80
1, 96480, Note_off_c, 9, 35, 64
1, 96480, Note_off_c, 9, 44, 64
1, 96480, Note_on_c, 9, 38, 80
1, 96480, Note_on_c, 9, 44, 80
1, 96960, Note_off_c, 9, 38, 64
1, 96960, Note_off_c, 9, 44, 64
1, 96960, Note_on_c, 9, 35, 80
1, 96960, Note_on_c, 9, 44, 80
1, 97440, Note_off_c, 9, 35, 64
1, 97440, Note_off_c, 9, 44, 64
1, 97440, Note_on_c, 9, 38, 80
1, 97440, Note_on_c, 9, 44, 80
1, 97920, Note_off_c, 9, 38, 64
1, 97920, Note_off_c, 9, 44, 64
1, 97920, Note_on_c, 9, 35, 80
1, 97920, Note_on_c, 9, 44, 80
1, 98400, Note_off_c, 9, 35, 64
1, 98400, Note_off_c, 9, 44, 64
1, 98400, Note_on_c, 9, 38, 80
1, 98400, Note_on_c, 9, 44, 80
1, 98880, Note_off_c, 9, 38, 64
1, 98880, Note_off_c, 9, 44, 64
1, 98880, Note_on_c, 9, 35, 80
1, 98880, Note_on_c, 9, 44, 80
1, 99360, Note_off_c, 9, 35, 64
1, 99360, Note_off_c, 9, 44, 64
1, 99360, Note_on_c, 9, 38, 80
1, 99360, Note_on_c, 9, 44, 80
1, 99840, Note_off_c, 9, 38, 64
1, 99840, Note_off_c, 9, 44, 64
1, 99840, Note_on_c, 9, 35, 80
1, 99840, Note_on_c, 9, 44, 80
1, 100320, Note_off_c, 9, 35, 64
1, 100320, Note_off_c, 9, 44, 64
1, 100320, Note_on_c, 9, 38, 80
1, 100320, Note_on_c, 9, 44, 80
1, 100800, Note_off_c, 9, 38, 64
1, 100800, Note_off_c, 9, 44, 64
1, 100800, Note_on_c, 9, 35, 80
1, 100800, Note_on_c, 9, 44, 80
1, 101280, Note_off_c, 9, 35, 64
1, 101280, Note_off_c, 9, 44, 64
1, 101280, Note_on_c, 9, 38, 80
1, 101280, Note_on_c, 9, 44, 80
1, 101760, Note_off_c, 9, 38, 64
1, 101760, Note_off_c, 9, 44, 64
1, 101760, Note_on_c, 9, 35, 80
1, 101760, Note_on_c, 9, 44, 80
1, 102240, Note_off_c, 9, 35, 64
1, 102240, Note_off_c, 9, 44, 64
1, 102240, Note_on_c, 9, 38, 80
1, 102240, Note_on_c, 9, 44, 80
1, 102720, Note_off_c, 9, 38, 64
1, 102720, Note_off_c, 9, 44, 64
1, 102720, Note_on_c, 9, 35, 80
1, 102720, Note_on_c, 9, 44, 80
1, 103200, Note_off_c, 9, 35, 64
1, 103200, Note_off_c, 9, 44, 64
1, 103200, Note_on_c, 9, 38, 80
1, 103200, Note_on_c, 9, 44, 80
1, 103680, Note_off_c, 9, 38, 64
1, 103680, Note_off_c, 9, 44, 64
1, 103680, Note_on_c, 9, 35, 80
1, 103680, Note_on_c, 9, 44, 80
1, 104160, Note_off_c, 9, 35, 64
1, 104160, Note_off_c, 9, 44, 64
1, 104160, Note_on_c, 9, 38, 80
1, 104160, Note_on_c, 9, 44, 80
1, 104640, Note_off_c, 9, 38, 64
1, 104640, Note_off_c, 9, 44, 64
1, 104640, Note_on_c, 9, 35, 80
1, 104640, Note_on_c, 9, 44, 80
1, 105120, Note_off_c, 9, 35, 64
1, 105120, Note_off_c, 9, 44, 64
1, 105120, Note_on_c, 9, 38, 80
1, 105120, Note_on_c, 9, 44, 80
1, 105600, Note_off_c, 9, 38, 64
1, 105600, Note_off_c, 9, 44, 64
1, 105600, Note_on_c, 9, 35, 80
1, 105600, Note_on_c, 9, 44, 80
1, 106080, Note_off_c, 9, 35, 64
1, 106080, Note_off_c, 9, 44, 64
1, 106080, Note_on_c, 9, 38, 80
1, 106080, Note_on_c, 9, 44, 80
1, 106560, Note_off_c, 9, 38, 64
1, 106560, Note_off_c, 9, 44, 64
1, 106560, Note_on_c, 9, 35, 80
1, 106560, Note_on_c, 9, 44, 80
1, 107040, Note_off_c, 9, 35, 64
1, 107040, Note_off_c, 9, 44, 64
1, 107040, Note_on_c, 9, 38, 80
1, 107040, Note_on_c, 9, 44, 80
1, 107520, Note_off_c, 9, 38, 64
1, 107520, Note_off_c, 9, 44, 64
1, 107520, Note_on_c, 9, 35, 80
1, 107520, Note_on_c, 9, 44, 80
1, 108000, Note_off_c, 9, 35, 64
1, 108000, Note_off_c, 9, 44, 64
1, 108000, Note_on_c, 9, 38, 80
1, 108000, Note_on_c, 9, 44, 80
1, 108480, Note_off_c, 9, 38, 64
1, 108480, Note_off_c, 9, 44, 64
1, 108480, Note_on_c, 9, 35, 80
1, 108480, Note_on_c, 9, 44, 80
1, 108960, Note_off_c, 9, 35, 64
1, 108960, Note_off_c, 9, 44, 64
1, 108960, Note_on_c, 9, 38, 80
1, 108960, Note_on_c, 9, 44, 80
1, 109440, Note_off_c, 9, 38, 64
1, 109440, Note_off_c, 9, 44, 64
1, 109440, Note_on_c, 9, 35, 80
1, 109440, Note_on_c, 9, 44, 80
1, 109920, Note_off_c, 9, 35, 64
1, 109920, Note_off_c, 9, 44, 64
1, 109920, Note_on_c, 9, 38, 80
1, 109920, Note_on_c, 9, 44, 80
1, 110400, Note_off_c, 9, 38, 64
1, 110400, Note_off_c, 9, 44, 64
1, 110400, Note_on_c, 9, 35, 80
1, 110400, Note_on_c, 9, 44, 80
1, 110880, Note_off_c, 9, 35, 64
1, 110880, Note_off_c, 9, 44, 64
1, 110880, Note_on_c, 9, 38, 80
1, 110880, Note_on_c, 9, 44, 80
1, 111360, Note_off_c, 9, 38, 64
1, 111360, Note_off_c, 9, 44, 64
1, 111360, Note_on_c, 9, 35, 80
1, 111360, Note_on_c, 9, 44, 80
1, 111840, Note_off_c, 9, 35, 64
1, 111840, Note_off_c, 9, 44, 64
1, 111840, Note_on_c, 9, 38, 80
1, 111840, Note_on_c, 9, 44, 80
1, 112320, Note_off_c, 9, 38, 64
1, 112320, Note_off_c, 9, 44, 64
1, 112320, Note_on_c, 9, 35, 80
1, 112320, Note_on_c, 9, 44, 80
1, 112800, Note_off_c, 9, 35, 64
1, 112800, Note_off_c, 9, 44, 64
1, 112800, Note_on_c, 9, 38, 80
1, 112800, Note_on_c, 9, 44, 80
1, 113280, Note_off_c, 9, 38, 64
1, 113280, Note_off_c, 9, 44, 64
1, 113280, Note_on_c, 9, 35, 80
1, 113280, Note_on_c, 9, 44, 80
1, 113760, Note_off_c, 9, 35, 64
1, 113760, Note_off_c, 9, 44, 64
1, 113760, Note_on_c, 9, 38, 80
1, 113760, Note_on_c, 9, 44, 80
1, 114240, Note_off_c, 9, 38, 64
1, 114240, Note_off_c, 9, 44, 64
1, 114240, Note_on_c, 9, 35, 80
1, 114240, Note_on_c, 9, 44, 80
1, 114720, Note_off_c, 9, 35, 64
1, 114720, Note_off_c, 9, 44, 64
1, 114720, Note_on_c, 9, 38, 80
1, 114720, Note_on_c, 9, 44, 80
1, 115200, Note_off_c, 9, 38, 64
1, 115200, Note_off_c, 9, 44, 64
1, 115200, Note_on_c, 9, 35, 80
1, 115200, Note_on_c, 9, 44, 80
1, 115680, Note_off_c, 9, 35, 64
1, 115680, Note_off_c, 9, 44, 64
1, 115680, Note_on_c, 9, 38, 80
1, 115680, Note_on_c, 9, 44, 80
1, 116160, Note_off_c, 9, 38, 64
1, 116160, Note_off_c, 9, 44, 64
1, 116160, Note_on_c, 9, 35, 80
1, 116160, Note_on_c, 9, 44, 80
1, 116640, Note_off_c, 9, 35, 64
1, 116640, Note_off_c, 9, 44, 64
1, 116640, Note_on_c, 9, 38, 80
1, 116640, Note_on_c, 9, 44, 80
1, 117120, Note_off_c, 9, 38, 64
1, 117120, Note_off_c, 9, 44, 64
1, 117120, Note_on_c, 9, 35, 80
1, 117120, Note_on_c, 9, 44, 80
1, 117600, Note_off_c, 9, 35, 64
1, 117600, Note_off_c, 9, 44, 64
1, 117600, Note_on_c, 9, 38, 80
1, 117600, Note_on_c, 9, 44, 80
1, 118080, Note_off_c, 9, 38, 64
1, 118080, Note_off_c, 9, 44, 64
1, 118080, Note_on_c, 9, 35, 80
1, 118080, Note_on_c, 9, 44, 80
1, 118560, Note_off_c, 9, 35, 64
1, 118560, Note_off_c, 9, 44, 64
1, 118560, Note_on_c, 9, 38, 80
1, 118560, Note_on_c, 9, 44, 80
1, 119040, Note_off_c, 9, 38, 64
1, 119040, Note_off_c, 9, 44, 64
1, 119040, Note_on_c, 9, 35, 80
1, 119040, Note_on_c, 9, 44, 80
1, 119520, Note_off_c, 9, 35, 64
1, 119520, Note_off_c, 9, 44, 64
1, 119520, Note_on_c, 9, 38, 80
1, 119520, Note_on_c, 9, 44, 80
1, 120000, Note_off_c, 9, 38, 64
1, 120000, Note_off_c, 9, 44, 64
1, 120000, Note_on_c, 9, 35, 80
1, 120000, Note_on_c, 9, 44, 80
1, 120480, Note_off_c, 9, 35, 64
1, 120480, Note_off_c, 9, 44, 64
1, 120480, Note_on_c, 9, 38, 80
1, 120480, Note_on_c, 9, 44, 80
1, 120960, Note_off_c, 9, 38, 64
1, 120960, Note_off_c, 9, 44, 64
1, 120960, Note_on_c, 9, 35, 80
1, 120960, Note_on_c, 9, 44, 80
1, 121440, Note_off_c, 9, 35, 64
1, 121440, Note_off_c, 9, 44, 64
1, 121440, Note_on_c, 9, 38, 80
1, 121440, Note_on_c, 9, 44, 80
1, 121920, Note_off_c, 9, 38, 64
1, 121920, Note_off_c, 9, 44, 64
1, 121920, Note_on_c, 9, 35, 80
1, 121920, Note_on_c, 9, 44, 80
1, 122400, Note_off_c, 9, 35, 64
1, 122400, Note_off_c, 9, 44, 64
1, 122400, Note_on_c, 9, 38, 80
1, 122400, Note_on_c, 9, 44, 80
1, 122880, Note_off_c, 9, 38, 64
1, 122880, Note_off_c, 9, 44, 64
1, 122880, Note_on_c, 9, 35, 80
1, 122880, Note_on_c, 9, 44, 80
1, 123360, Note_off_c, 9, 35, 64
1, 123360, Note_off_c, 9, 44, 64
1, 123360, Note_on_c, 9, 38, 80
1, 123360, Note_on_c, 9, 44, 80
1, 123840, Note_off_c, 9, 38, 64
1, 123840, Note_off_c, 9, 44, 64
1, 123840, Note_on_c, 9, 35, 80
1, 123840, Note_on_c, 9, 44, 80
1, 124320, Note_off_c, 9, 35, 64
1, 124320, Note_off_c, 9, 44, 64
1, 124320, Note_on_c, 9, 38, 80
1, 124320, Note_on_c, 9, 44, 80
1, 124800, Note_off_c, 9, 38, 64
1, 124800, Note_off_c, 9, 44, 64
1, 124800, Note_on_c, 9, 35, 80
1, 124800, Note_on_c, 9, 44, 80
1, 125280, Note_off_c, 9, 35, 64
1, 125280, Note_off_c, 9, 44, 64
1, 125280, Note_on_c, 9, 38, 80
1, 125280, Note_on_c, 9, 44, 80
1, 125760, Note_off_c, 9, 38, 64
1, 125760, Note_off_c, 9, 44, 64
1, 125760, Note_on_c, 9, 35, 80
1, 125760, Note_on_c, 9, 44, 80
1, 126240, Note_off_c, 9, 35, 64
1, 126240, Note_off_c, 9, 44, 64
1, 126240, Note_on_c, 9, 38, 80
1, 126240, Note_on_c, 9, 44, 80
1, 126720, Note_off_c, 9, 38, 64
1, 126720, Note_off_c, 9, 44, 64
1, 126720, Note_on_c, 9, 35, 80
1, 126720, Note_on_c, 9, 44, 80
1, 127200, Note_off_c, 9, 35, 64
1, 127200, Note_off_c, 9, 44, 64
1, 127200, Note_on_c, 9, 38, 80
1, 127200, Note_on_c, 9, 44, 80
1, 127680, Note_off_c, 9, 38, 64
1, 127680, Note_off_c, 9, 44, 64
1, 127680, Note_on_c, 9, 35, 80
1, 127680, Note_on_c, 9, 44, 80
1, 128160, Note_off_c, 9, 35, 64
1, 128160, Note_off_c, 9, 44, 64
1, 128160, Note_on_c, 9, 38, 80
1, 128160, Note_on_c, 9, 44, 80
1, 128640, Note_off_c, 9, 38, 64
1, 128640, Note_off_c, 9, 44, 64
1, 128640, Note_on_c, 9, 35, 80
1, 128640, Note_on_c, 9, 44, 80
1, 129120, Note_off_c, 9, 35, 64
1, 129120, Note_off_c, 9, 44, 64
1, 129120, Note_on_c, 9, 38, 80
1, 129120, Note_on_c, 9, 44, 80
1, 129600, Note_off_c, 9, 38, 64
1, 129600, Note_off_c, 9, 44, 64
1, 129600, Note_on_c, 9, 35, 80
1, 129600, Note_on_c, 9, 44, 80
1, 130080, Note_off_c, 9, 35, 64
1, 130080, Note_off_c, 9, 44, 64
1, 130080, Note_on_c, 9, 38, 80
1, 130080, Note_on_c, 9, 44, 80
1, 130560, Note_off_c, 9, 38, 64
1, 130560, Note_off_c, 9, 44, 64
1, 130560, Note_on_c, 9, 35, 80
1, 130560, Note_on_c, 9, 44, 80
1, 131040, Note_off_c, 9, 35, 64
1, 131040, Note_off_c, 9, 44, 64
1, 131040, Note_on_c, 9, 38, 80
1, 131040, Note_on_c, 9, 44, 80
1, 131520, Note_off_c, 9, 38, 64
1, 131520, Note_off_c, 9, 44, 64
1, 131520, Note_on_c, 9, 35, 80
1, 131520, Note_on_c, 9, 44, 80
1, 132000, Note_off_c, 9, 35, 64
1, 132000, Note_off_c, 9, 44, 64
1, 132000, Note_on_c, 9, 38, 80
1, 132000, Note_on_c, 9, 44, 80
1, 132480, Note_off_c, 9, 38, 64
1, 132480, Note_off_c, 9, 44, 64
1, 132480, Note_on_c, 9, 35, 80
1, 132480, Note_on_c, 9, 44, 80
1, 132960, Note_off_c, 9, 35, 64
1, 132960, Note_off_c, 9, 44, 64
1, 132960, Note_on_c, 9, 38, 80
1, 132960, Note_on_c, 9, 44, 80
1, 133440, Note_off_c, 9, 38, 64
1, 133440, Note_off_c, 9, 44, 64
1, 133440, Note_on_c, 9, 35, 80
1, 133440, Note_on_c, 9, 44, 80
1, 133920, Note_off_c, 9, 35, 64
1, 133920, Note_off_c, 9, 44, 64
1, 133920, Note_on_c, 9, 38, 80
1, 133920, Note_on_c, 9, 44, 80
1, 134400, Note_off_c, 9, 38, 64
1, 134400, Note_off_c, 9, 44, 64
1, 134400, Note_on_c, 9, 35, 80
1, 134400, Note_on_c, 9, 44, 80
1, 134880, Note_off_c, 9, 35, 64
1, 134880, Note_off_c, 9, 44, 64
1, 134880, Note_on_c, 9, 38, 80
1, 134880, Note_on_c, 9, 44, 80
1, 135360, Note_off_c, 9, 38, 64
1, 135360, Note_off_c, 9, 44, 64
1, 135360, Note_on_c, 9, 35, 80
1, 135360, Note_on_c, 9, 44, 80
1, 135840, Note_off_c, 9, 35, 64
1, 135840, Note_off_c, 9, 44, 64
1, 135840, Note_on_c, 9, 38, 80
1, 135840, Note_on_c, 9, 44, 80
1, 136320, Note_off_c, 9, 38, 64
1, 136320, Note_off_c, 9, 44, 64
1, 136320, Note_on_c, 9, 35, 80
1, 136320, Note_on_c, 9, 44, 80
1, 136800, Note_off_c, 9, 35, 64
1, 136800, Note_off_c, 9, 44, 64
1, 136800, Note_on_c, 9, 38, 80
1, 136800, Note_on_c, 9, 44, 80
1, 137280, Note_off_c, 9, 38, 64
1, 137280, Note_off_c, 9, 44, 64
1, 137280, Note_on_c, 9, 35, 80
1, 137280, Note_on_c, 9, 44, 80
1, 137760, Note_off_c, 9, 35, 64
1, 137760, Note_off_c, 9, 44, 64
1, 137760, Note_on_c, 9, 38, 80
1, 137760, Note_on_c, 9, 44, 80
1, 138240, Note_off_c, 9, 38, 64
1, 138240, Note_off_c, 9, 44, 64
1, 138240, Note_on_c, 9, 35, 72
1, 138240, Note_on_c, 9, 57, 72
1, 138240, Note_on_c, 9, 44, 72
1, 138480, Note_off_c, 9, 35, 64
1, 138480, Note_off_c, 9, 57, 64
1, 138480, Note_off_c, 9, 44, 64
1, 138480, Note_on_c, 9, 35, 72
1, 138480, Note_on_c, 9, 44, 72
1, 138720, Note_off_c, 9, 35, 64
1, 138720, Note_off_c, 9, 44, 64
1, 138720, Note_on_c, 9, 38, 72
1, 138720, Note_on_c, 9, 44, 72
1, 138960, Note_off_c, 9, 38, 64
1, 138960, Note_off_c, 9, 44, 64
1, 138960, Note_on_c, 9, 44, 72
1, 139200, Note_off_c, 9, 44, 64
1, 139200, Note_on_c, 9, 35, 72
1, 139200, Note_on_c, 9, 44, 72
1, 139440, Note_off_c, 9, 35, 64
1, 139440, Note_off_c, 9, 44, 64
1, 139440, Note_on_c, 9, 35, 72
1, 139440, Note_on_c, 9, 44, 72
1, 139680, Note_off_c, 9, 35, 64
1, 139680, Note_off_c, 9, 44, 64
1, 139680, Note_on_c, 9, 38, 72
1, 139680, Note_on_c, 9, 44, 72
1, 139920, Note_off_c, 9, 38, 64
1, 139920, Note_off_c, 9, 44, 64
1, 139920, Note_on_c, 9, 35, 72
1, 139920, Note_on_c, 9, 44, 72
1, 140160, Note_off_c, 9, 35, 64
1, 140160, Note_off_c, 9, 44, 64
1, 140160, Note_on_c, 9, 35, 72
1, 140160, Note_on_c, 9, 44, 72
1, 140400, Note_off_c, 9, 35, 64
1, 140400, Note_off_c, 9, 44, 64
1, 140400, Note_on_c, 9, 35, 72
1, 140400, Note_on_c, 9, 44, 72
1, 140640, Note_off_c, 9, 35, 64
1, 140640, Note_off_c, 9, 44, 64
1, 140640, Note_on_c, 9, 38, 72
1, 140640, Note_on_c, 9, 44, 72
1, 140880, Note_off_c, 9, 38, 64
1, 140880, Note_off_c, 9, 44, 64
1, 140880, Note_on_c, 9, 44, 72
1, 141120, Note_off_c, 9, 44, 64
1, 141120, Note_on_c, 9, 35, 72
1, 141120, Note_on_c, 9, 44, 72
1, 141360, Note_off_c, 9, 35, 64
1, 141360, Note_off_c, 9, 44, 64
1, 141360, Note_on_c, 9, 35, 72
1, 141360, Note_on_c, 9, 44, 72
1, 141600, Note_off_c, 9, 35, 64
1, 141600, Note_off_c, 9, 44, 64
1, 141600, Note_on_c, 9, 38, 72
1, 141600, Note_on_c, 9, 44, 72
1, 141840, Note_off_c, 9, 38, 64
1, 141840, Note_off_c, 9, 44, 64
1, 141840, Note_on_c, 9, 35, 72
1, 141840, Note_on_c, 9, 44, 72
1, 142080, Note_off_c, 9, 35, 64
1, 142080, Note_off_c, 9, 44, 64
1, 142080, Note_on_c, 9, 35, 80
1, 142080, Note_on_c, 9, 57, 80
1, 142080, Note_on_c, 9, 44, 80
1, 142560, Note_off_c, 9, 35, 64
1, 142560, Note_off_c, 9, 57, 64
1, 142560, Note_off_c, 9, 44, 64
1, 142560, Note_on_c, 9, 38, 72
1, 142560, Note_on_c, 9, 44, 72
1, 142800, Note_off_c, 9, 38, 64
1, 142800, Note_off_c, 9, 44, 64
1, 142800, Note_on_c, 9, 35, 80
1, 142800, Note_on_c, 9, 57, 80
1, 142800, Note_on_c, 9, 44, 80
1, 143280, Note_off_c, 9, 35, 64
1, 143280, Note_off_c, 9, 57, 64
1, 143280, Note_off_c, 9, 44, 64
1, 143280, Note_on_c, 9, 38, 72
1, 143280, Note_on_c, 9, 44, 72
1, 143520, Note_off_c, 9, 38, 64
1, 143520, Note_off_c, 9, 44, 64
1, 143520, Note_on_c, 9, 35, 80
1, 143520, Note_on_c, 9, 57, 80
1, 143520, Note_on_c, 9, 44, 80
1, 144000, Note_off_c, 9, 35, 64
1, 144000, Note_off_c, 9, 57, 64
1, 144000, Note_off_c, 9, 44, 64
1, 144000, Note_on_c, 9, 35, 80
1, 144000, Note_on_c, 9, 57, 80
1, 144000, Note_on_c, 9, 44, 80
1, 144480, Note_off_c, 9, 35, 64
1, 144480, Note_off_c, 9, 57, 64
1, 144480, Note_off_c, 9, 44, 64
1, 144480, Note_on_c, 9, 38, 72
1, 144480, Note_on_c, 9, 44, 72
1, 144720, Note_off_c, 9, 38, 64
1, 144720, Note_off_c, 9, 44, 64
1, 144720, Note_on_c, 9, 35, 80
1, 144720, Note_on_c, 9, 57, 80
1, 144720, Note_on_c, 9, 44, 80
1, 145200, Note_off_c, 9, 35, 64
1, 145200, Note_off_c, 9, 57, 64
1, 145200, Note_off_c, 9, 44, 64
1, 145200, Note_on_c, 9, 38, 72
1, 145200, Note_on_c, 9, 44, 72
1, 145440, Note_off_c, 9, 38, 64
1, 145440, Note_off_c, 9, 44, 64
1, 145440, Note_on_c, 9, 35, 80
1, 145440, Note_on_c, 9, 57, 80
1, 145440, Note_on_c, 9, 44, 80
1, 145920, Note_off_c, 9, 35, 64
1, 145920, Note_off_c, 9, 57, 64
1, 145920, Note_off_c, 9, 44, 64
1, 145920, Note_on_c, 9, 35, 80
1, 145920, Note_on_c, 9, 44, 80
1, 146400, Note_off_c, 9, 35, 64
1, 146400, Note_off_c, 9, 44, 64
1, 146400, Note_on_c, 9, 38, 80
1, 146400, Note_on_c, 9, 44, 80
1, 146880, Note_off_c, 9, 38, 64
1, 146880, Note_off_c, 9, 44, 64
1, 146880, Note_on_c, 9, 35, 80
1, 146880, Note_on_c, 9, 44, 80
1, 147360, Note_off_c, 9, 35, 64
1, 147360, Note_off_c, 9, 44, 64
1, 147360, Note_on_c, 9, 38, 80
1, 147360, Note_on_c, 9, 44, 80
1, 147840, Note_off_c, 9, 38, 64
1, 147840, Note_off_c, 9, 44, 64
1, 147840, Note_on_c, 9, 35, 80
1, 147840, Note_on_c, 9, 44, 80
1, 148320, Note_off_c, 9, 35, 64
1, 148320, Note_off_c, 9, 44, 64
1, 148320, Note_on_c, 9, 38, 80
1, 148320, Note_on_c, 9, 44, 80
1, 148800, Note_off_c, 9, 38, 64
1, 148800, Note_off_c, 9, 44, 64
1, 148800, Note_on_c, 9, 35, 80
1, 148800, Note_on_c, 9, 44, 80
1, 149280, Note_off_c, 9, 35, 64
1, 149280, Note_off_c, 9, 44, 64
1, 149280, Note_on_c, 9, 38, 80
1, 149280, Note_on_c, 9, 44, 80
1, 149760, Note_off_c, 9, 38, 64
1, 149760, Note_off_c, 9, 44, 64
1, 149760, Note_on_c, 9, 35, 80
1, 149760, Note_on_c, 9, 44, 80
1, 150240, Note_off_c, 9, 35, 64
1, 150240, Note_off_c, 9, 44, 64
1, 150240, Note_on_c, 9, 38, 80
1, 150240, Note_on_c, 9, 44, 80
1, 150720, Note_off_c, 9, 38, 64
1, 150720, Note_off_c, 9, 44, 64
1, 150720, Note_on_c, 9, 35, 80
1, 150720, Note_on_c, 9, 44, 80
1, 151200, Note_off_c, 9, 35, 64
1, 151200, Note_off_c, 9, 44, 64
1, 151200, Note_on_c, 9, 38, 80
1, 151200, Note_on_c, 9, 44, 80
1, 151680, Note_off_c, 9, 38, 64
1, 151680, Note_off_c, 9, 44, 64
1, 151680, Note_on_c, 9, 35, 80
1, 151680, Note_on_c, 9, 44, 80
1, 152160, Note_off_c, 9, 35, 64
1, 152160, Note_off_c, 9, 44, 64
1, 152160, Note_on_c, 9, 38, 80
1, 152160, Note_on_c, 9, 44, 80
1, 152640, Note_off_c, 9, 38, 64
1, 152640, Note_off_c, 9, 44, 64
1, 152640, Note_on_c, 9, 35, 80
1, 152640, Note_on_c, 9, 44, 80
1, 153120, Note_off_c, 9, 35, 64
1, 153120, Note_off_c, 9, 44, 64
1, 153120, Note_on_c, 9, 38, 80
1, 153120, Note_on_c, 9, 44, 80
1, 153600, Note_off_c, 9, 38, 64
1, 153600, Note_off_c, 9, 44, 64
1, 153600, Note_on_c, 9, 35, 72
1, 153600, Note_on_c, 9, 57, 72
1, 153600, Note_on_c, 9, 44, 72
1, 153840, Note_off_c, 9, 35, 64
1, 153840, Note_off_c, 9, 57, 64
1, 153840, Note_off_c, 9, 44, 64
1, 153840, Note_on_c, 9, 35, 72
1, 153840, Note_on_c, 9, 44, 72
1, 154080, Note_off_c, 9, 35, 64
1, 154080, Note_off_c, 9, 44, 64
1, 154080, Note_on_c, 9, 38, 72
1, 154080, Note_on_c, 9, 44, 72
1, 154320, Note_off_c, 9, 38, 64
1, 154320, Note_off_c, 9, 44, 64
1, 154320, Note_on_c, 9, 44, 72
1, 154560, Note_off_c, 9, 44, 64
1, 154560, Note_on_c, 9, 35, 72
1, 154560, Note_on_c, 9, 44, 72
1, 154800, Note_off_c, 9, 35, 64
1, 154800, Note_off_c, 9, 44, 64
1, 154800, Note_on_c, 9, 35, 72
1, 154800, Note_on_c, 9, 44, 72
1, 155040, Note_off_c, 9, 35, 64
1, 155040, Note_off_c, 9, 44, 64
1, 155040, Note_on_c, 9, 38, 72
1, 155040, Note_on_c, 9, 44, 72
1, 155280, Note_off_c, 9, 38, 64
1, 155280, Note_off_c, 9, 44, 64
1, 155280, Note_on_c, 9, 35, 72
1, 155280, Note_on_c, 9, 44, 72
1, 155520, Note_off_c, 9, 35, 64
1, 155520, Note_off_c, 9, 44, 64
1, 155520, Note_on_c, 9, 35, 72
1, 155520, Note_on_c, 9, 44, 72
1, 155760, Note_off_c, 9, 35, 64
1, 155760, Note_off_c, 9, 44, 64
1, 155760, Note_on_c, 9, 35, 72
1, 155760, Note_on_c, 9, 44, 72
1, 156000, Note_off_c, 9, 35, 64
1, 156000, Note_off_c, 9, 44, 64
1, 156000, Note_on_c, 9, 38, 72
1, 156000, Note_on_c, 9, 44, 72
1, 156240, Note_off_c, 9, 38, 64
1, 156240, Note_off_c, 9, 44, 64
1, 156240, Note_on_c, 9, 44, 72
1, 156480, Note_off_c, 9, 44, 64
1, 156480, Note_on_c, 9, 35, 72
1, 156480, Note_on_c, 9, 44, 72
1, 156720, Note_off_c, 9, 35, 64
1, 156720, Note_off_c, 9, 44, 64
1, 156720, Note_on_c, 9, 35, 72
1, 156720, Note_on_c, 9, 44, 72
1, 156960, Note_off_c, 9, 35, 64
1, 156960, Note_off_c, 9, 44, 64
1, 156960, Note_on_c, 9, 38, 72
1, 156960, Note_on_c, 9, 44, 72
1, 157200, Note_off_c, 9, 38, 64
1, 157200, Note_off_c, 9, 44, 64
1, 157200, Note_on_c, 9, 35, 72
1, 157200, Note_on_c, 9, 44, 72
1, 157440, Note_off_c, 9, 35, 64
1, 157440, Note_off_c, 9, 44, 64
1, 157440, Note_on_c, 9, 35, 80
1, 157440, Note_on_c, 9, 57, 80
1, 157440, Note_on_c, 9, 44, 80
1, 157920, Note_off_c, 9, 35, 64
1, 157920, Note_off_c, 9, 57, 64
1, 157920, Note_off_c, 9, 44, 64
1, 157920, Note_on_c, 9, 38, 72
1, 157920, Note_on_c, 9, 44, 72
1, 158160, Note_off_c, 9, 38, 64
1, 158160, Note_off_c, 9, 44, 64
1, 158160, Note_on_c, 9, 35, 80
1, 158160, Note_on_c, 9, 57, 80
1, 158160, Note_on_c, 9, 44, 80
1, 158640, Note_off_c, 9, 35, 64
1, 158640, Note_off_c, 9, 57, 64
1, 158640, Note_off_c, 9, 44, 64
1, 158640, Note_on_c, 9, 38, 72
1, 158640, Note_on_c, 9, 44, 72
1, 158880, Note_off_c, 9, 38, 64
1, 158880, Note_off_c, 9, 44, 64
1, 158880, Note_on_c, 9, 35, 80
1, 158880, Note_on_c, 9, 57, 80
1, 158880, Note_on_c, 9, 44, 80
1, 159360, Note_off_c, 9, 35, 64
1, 159360, Note_off_c, 9, 57, 64
1, 159360, Note_off_c, 9, 44, 64
1, 159360, Note_on_c, 9, 35, 80
1, 159360, Note_on_c, 9, 57, 80
1, 159360, Note_on_c, 9, 44, 80
1, 159840, Note_off_c, 9, 35, 64
1, 159840, Note_off_c, 9, 57, 64
1, 159840, Note_off_c, 9, 44, 64
1, 159840, Note_on_c, 9, 38, 72
1, 159840, Note_on_c, 9, 44, 72
1, 160080, Note_off_c, 9, 38, 64
1, 160080, Note_off_c, 9, 44, 64
1, 160080, Note_on_c, 9, 35, 80
1, 160080, Note_on_c, 9, 57, 80
1, 160080, Note_on_c, 9, 44, 80
1, 160560, Note_off_c, 9, 35, 64
1, 160560, Note_off_c, 9, 57, 64
1, 160560, Note_off_c, 9, 44, 64
1, 160560, Note_on_c, 9, 38, 72
1, 160560, Note_on_c, 9, 44, 72
1, 160800, Note_off_c, 9, 38, 64
1, 160800, Note_off_c, 9, 44, 64
1, 160800, Note_on_c, 9, 35, 80
1, 160800, Note_on_c, 9, 57, 80
1, 160800, Note_on_c, 9, 44, 80
1, 161280, Note_off_c, 9, 35, 64
1, 161280, Note_off_c, 9, 57, 64
1, 161280, Note_off_c, 9, 44, 64
1, 161280, Note_on_c, 9, 35, 80
1, 161280, Note_on_c, 9, 44, 80
1, 161760, Note_off_c, 9, 35, 64
1, 161760, Note_off_c, 9, 44, 64
1, 161760, Note_on_c, 9, 38, 80
1, 161760, Note_on_c, 9, 44, 80
1, 162240, Note_off_c, 9, 38, 64
1, 162240, Note_off_c, 9, 44, 64
1, 162240, Note_on_c, 9, 35, 80
1, 162240, Note_on_c, 9, 44, 80
1, 162720, Note_off_c, 9, 35, 64
1, 162720, Note_off_c, 9, 44, 64
1, 162720, Note_on_c, 9, 38, 80
1, 162720, Note_on_c, 9, 44, 80
1, 163200, Note_off_c, 9, 38, 64
1, 163200, Note_off_c, 9, 44, 64
1, 163200, Note_on_c, 9, 35, 80
1, 163200, Note_on_c, 9, 44, 80
1, 163680, Note_off_c, 9, 35, 64
1, 163680, Note_off_c, 9, 44, 64
1, 163680, Note_on_c, 9, 38, 80
1, 163680, Note_on_c, 9, 44, 80
1, 164160, Note_off_c, 9, 38, 64
1, 164160, Note_off_c, 9, 44, 64
1, 164160, Note_on_c, 9, 35, 80
1, 164160, Note_on_c, 9, 44, 80
1, 164640, Note_off_c, 9, 35, 64
1, 164640, Note_off_c, 9, 44, 64
1, 164640, Note_on_c, 9, 38, 80
1, 164640, Note_on_c, 9, 44, 80
1, 165120, Note_off_c, 9, 38, 64
1, 165120, Note_off_c, 9, 44, 64
1, 165120, Note_on_c, 9, 35, 80
1, 165120, Note_on_c, 9, 44, 80
1, 165600, Note_off_c, 9, 35, 64
1, 165600, Note_off_c, 9, 44, 64
1, 165600, Note_on_c, 9, 38, 80
1, 165600, Note_on_c, 9, 44, 80
1, 166080, Note_off_c, 9, 38, 64
1, 166080, Note_off_c, 9, 44, 64
1, 166080, Note_on_c, 9, 35, 80
1, 166080, Note_on_c, 9, 44, 80
1, 166560, Note_off_c, 9, 35, 64
1, 166560, Note_off_c, 9, 44, 64
1, 166560, Note_on_c, 9, 38, 80
1, 166560, Note_on_c, 9, 44, 80
1, 167040, Note_off_c, 9, 38, 64
1, 167040, Note_off_c, 9, 44, 64
1, 167040, Note_on_c, 9, 35, 80
1, 167040, Note_on_c, 9, 44, 80
1, 167520, Note_off_c, 9, 35, 64
1, 167520, Note_off_c, 9, 44, 64
1, 167520, Note_on_c, 9, 38, 80
1, 167520, Note_on_c, 9, 44, 80
1, 168000, Note_off_c, 9, 38, 64
1, 168000, Note_off_c, 9, 44, 64
1, 168000, Note_on_c, 9, 35, 80
1, 168000, Note_on_c, 9, 44, 80
1, 168480, Note_off_c, 9, 35, 64
1, 168480, Note_off_c, 9, 44, 64
1, 168480, Note_on_c, 9, 38, 80
1, 168480, Note_on_c, 9, 44, 80
1, 168960, Note_off_c, 9, 38, 64
1, 168960, Note_off_c, 9, 44, 64
1, 168960, Note_on_c, 9, 35, 72
1, 168960, Note_on_c, 9, 57, 72
1, 168960, Note_on_c, 9, 44, 72
1, 169200, Note_off_c, 9, 35, 64
1, 169200, Note_off_c, 9, 57, 64
1, 169200, Note_off_c, 9, 44, 64
1, 169200, Note_on_c, 9, 35, 72
1, 169200, Note_on_c, 9, 44, 72
1, 169440, Note_off_c, 9, 35, 64
1, 169440, Note_off_c, 9, 44, 64
1, 169440, Note_on_c, 9, 38, 72
1, 169440, Note_on_c, 9, 44, 72
1, 169680, Note_off_c, 9, 38, 64
1, 169680, Note_off_c, 9, 44, 64
1, 169680, Note_on_c, 9, 44, 72
1, 169920, Note_off_c, 9, 44, 64
1, 169920, Note_on_c, 9, 35, 72
1, 169920, Note_on_c, 9, 44, 72
1, 170160, Note_off_c, 9, 35, 64
1, 170160, Note_off_c, 9, 44, 64
1, 170160, Note_on_c, 9, 35, 72
1, 170160, Note_on_c, 9, 44, 72
1, 170400, Note_off_c, 9, 35, 64
1, 170400, Note_off_c, 9, 44, 64
1, 170400, Note_on_c, 9, 38, 72
1, 170400, Note_on_c, 9, 44, 72
1, 170640, Note_off_c, 9, 38, 64
1, 170640, Note_off_c, 9, 44, 64
1, 170640, Note_on_c, 9, 35, 72
1, 170640, Note_on_c, 9, 44, 72
1, 170880, Note_off_c, 9, 35, 64
1, 170880, Note_off_c, 9, 44, 64
1, 170880, Note_on_c, 9, 35, 72
1, 170880, Note_on_c, 9, 44, 72
1, 171120, Note_off_c, 9, 35, 64
1, 171120, Note_off_c, 9, 44, 64
1, 171120, Note_on_c, 9, 35, 72
1, 171120, Note_on_c, 9, 44, 72
1, 171360, Note_off_c, 9, 35, 64
1, 171360, Note_off_c, 9, 44, 64
1, 171360, Note_on_c, 9, 38, 72
1, 171360, Note_on_c, 9, 44, 72
1, 171600, Note_off_c, 9, 38, 64
1, 171600, Note_off_c, 9, 44, 64
1, 171600, Note_on_c, 9, 44, 72
1, 171840, Note_off_c, 9, 44, 64
1, 171840, Note_on_c, 9, 35, 72
1, 171840, Note_on_c, 9, 44, 72
1, 172080, Note_off_c, 9, 35, 64
1, 172080, Note_off_c, 9, 44, 64
1, 172080, Note_on_c, 9, 35, 72
1, 172080, Note_on_c, 9, 44, 72
1, 172320, Note_off_c, 9, 35, 64
1, 172320, Note_off_c, 9, 44, 64
1, 172320, Note_on_c, 9, 38, 72
1, 172320, Note_on_c, 9, 44, 72
1, 172560, Note_off_c, 9, 38, 64
1, 172560, Note_off_c, 9, 44, 64
1, 172560, Note_on_c, 9, 35, 72
1, 172560, Note_on_c, 9, 44, 72
1, 172800, Note_off_c, 9, 35, 64
1, 172800, Note_off_c, 9, 44, 64
1, 172800, Note_on_c, 9, 35, 80
1, 172800, Note_on_c, 9, 57, 80
1, 172800, Note_on_c, 9, 44, 80
1, 173280, Note_off_c, 9, 35, 64
1, 173280, Note_off_c, 9, 57, 64
1, 173280, Note_off_c, 9, 44, 64
1, 173280, Note_on_c, 9, 38, 72
1, 173280, Note_on_c, 9, 44, 72
1, 173520, Note_off_c, 9, 38, 64
1, 173520, Note_off_c, 9, 44, 64
1, 173520, Note_on_c, 9, 35, 80
1, 173520, Note_on_c, 9, 57, 80
1, 173520, Note_on_c, 9, 44, 80
1, 174000, Note_off_c, 9, 35, 64
1, 174000, Note_off_c, 9, 57, 64
1, 174000, Note_off_c, 9, 44, 64
1, 174000, Note_on_c, 9, 38, 72
1, 174000, Note_on_c, 9, 44, 72
1, 174240, Note_off_c, 9, 38, 64
1, 174240, Note_off_c, 9, 44, 64
1, 174240, Note_on_c, 9, 35, 80
1, 174240, Note_on_c, 9, 57, 80
1, 174240, Note_on_c, 9, 44, 80
1, 174720, Note_off_c, 9, 35, 64
1, 174720, Note_off_c, 9, 57, 64
1, 174720, Note_off_c, 9, 44, 64
1, 174720, Note_on_c, 9, 35, 80
1, 174720, Note_on_c, 9, 57, 80
1, 174720, Note_on_c, 9, 44, 80
1, 175200, Note_off_c, 9, 35, 64
1, 175200, Note_off_c, 9, 57, 64
1, 175200, Note_off_c, 9, 44, 64
1, 175200, Note_on_c, 9, 38, 72
1, 175200, Note_on_c, 9, 44, 72
1, 175440, Note_off_c, 9, 38, 64
1, 175440, Note_off_c, 9, 44, 64
1, 175440, Note_on_c, 9, 35, 80
1, 175440, Note_on_c, 9, 57, 80
1, 175440, Note_on_c, 9, 44, 80
1, 175920, Note_off_c, 9, 35, 64
1, 175920, Note_off_c, 9, 57, 64
1, 175920, Note_off_c, 9, 44, 64
1, 175920, Note_on_c, 9, 38, 72
1, 175920, Note_on_c, 9, 44, 72
1, 176160, Note_off_c, 9, 38, 64
1, 176160, Note_off_c, 9, 44, 64
1, 176160, Note_on_c, 9, 35, 80
1, 176160, Note_on_c, 9, 57, 80
1, 176160, Note_on_c, 9, 44, 80
1, 176640, Note_off_c, 9, 35, 64
1, 176640, Note_off_c, 9, 57, 64
1, 176640, Note_off_c, 9, 44, 64
1, 176640, Note_on_c, 9, 35, 80
1, 176640, Note_on_c, 9, 44, 80
1, 177120, Note_off_c, 9, 35, 64
1, 177120, Note_off_c, 9, 44, 64
1, 177120, Note_on_c, 9, 38, 80
1, 177120, Note_on_c, 9, 44, 80
1, 177600, Note_off_c, 9, 38, 64
1, 177600, Note_off_c, 9, 44, 64
1, 177600, Note_on_c, 9, 35, 80
1, 177600, Note_on_c, 9, 44, 80
1, 178080, Note_off_c, 9, 35, 64
1, 178080, Note_off_c, 9, 44, 64
1, 178080, Note_on_c, 9, 38, 80
1, 178080, Note_on_c, 9, 44, 80
1, 178560, Note_off_c, 9, 38, 64
1, 178560, Note_off_c, 9, 44, 64
1, 178560, Note_on_c, 9, 35, 80
1, 178560, Note_on_c, 9, 44, 80
1, 179040, Note_off_c, 9, 35, 64
1, 179040, Note_off_c, 9, 44, 64
1, 179040, Note_on_c, 9, 38, 80
1, 179040, Note_on_c, 9, 44, 80
1, 179520, Note_off_c, 9, 38, 64
1, 179520, Note_off_c, 9, 44, 64
1, 179520, Note_on_c, 9, 35, 80
1, 179520, Note_on_c, 9, 44, 80
1, 180000, Note_off_c, 9, 35, 64
1, 180000, Note_off_c, 9, 44, 64
1, 180000, Note_on_c, 9, 38, 80
1, 180000, Note_on_c, 9, 44, 80
1, 180480, Note_off_c, 9, 38, 64
1, 180480, Note_off_c, 9, 44, 64
1, 180480, Note_on_c, 9, 35, 80
1, 180480, Note_on_c, 9, 44, 80
1, 180960, Note_off_c, 9, 35, 64
1, 180960, Note_off_c, 9, 44, 64
1, 180960, Note_on_c, 9, 38, 80
1, 180960, Note_on_c, 9, 44, 80
1, 181440, Note_off_c, 9, 38, 64
1, 181440, Note_off_c, 9, 44, 64
1, 181440, Note_on_c, 9, 35, 80
1, 181440, Note_on_c, 9, 44, 80
1, 181920, Note_off_c, 9, 35, 64
1, 181920, Note_off_c, 9, 44, 64
1, 181920, Note_on_c, 9, 38, 80
1, 181920, Note_on_c, 9, 44, 80
1, 182400, Note_off_c, 9, 38, 64
1, 182400, Note_off_c, 9, 44, 64
1, 182400, Note_on_c, 9, 35, 80
1, 182400, Note_on_c, 9, 44, 80
1, 182880, Note_off_c, 9, 35, 64
1, 182880, Note_off_c, 9, 44, 64
1, 182880, Note_on_c, 9, 38, 80
1, 182880, Note_on_c, 9, 44, 80
1, 183360, Note_off_c, 9, 38, 64
1, 183360, Note_off_c, 9, 44, 64
1, 183360, Note_on_c, 9, 35, 80
1, 183360, Note_on_c, 9, 44, 80
1, 183840, Note_off_c, 9, 35, 64
1, 183840, Note_off_c, 9, 44, 64
1, 183840, Note_on_c, 9, 38, 80
1, 183840, Note_on_c, 9, 44, 80
1, 184320, Note_off_c, 9, 38, 64
1, 184320, Note_off_c, 9, 44, 64
1, 184320, Note_on_c, 9, 35, 72
1, 184320, Note_on_c, 9, 57, 72
1, 184320, Note_on_c, 9, 44, 72
1, 184560, Note_off_c, 9, 35, 64
1, 184560, Note_off_c, 9, 57, 64
1, 184560, Note_off_c, 9, 44, 64
1, 184560, Note_on_c, 9, 35, 72
1, 184560, Note_on_c, 9, 44, 72
1, 184800, Note_off_c, 9, 35, 64
1, 184800, Note_off_c, 9, 44, 64
1, 184800, Note_on_c, 9, 38, 72
1, 184800, Note_on_c, 9, 44, 72
1, 185040, Note_off_c, 9, 38, 64
1, 185040, Note_off_c, 9, 44, 64
1, 185040, Note_on_c, 9, 44, 72
1, 185280, Note_off_c, 9, 44, 64
1, 185280, Note_on_c, 9, 35, 72
1, 185280, Note_on_c, 9, 44, 72
1, 185520, Note_off_c, 9, 35, 64
1, 185520, Note_off_c, 9, 44, 64
1, 185520, Note_on_c, 9, 35, 72
1, 185520, Note_on_c, 9, 44, 72
1, 185760, Note_off_c, 9, 35, 64
1, 185760, Note_off_c, 9, 44, 64
1, 185760, Note_on_c, 9, 38, 72
1, 185760, Note_on_c, 9, 44, 72
1, 186000, Note_off_c, 9, 38, 64
1, 186000, Note_off_c, 9, 44, 64
1, 186000, Note_on_c, 9, 35, 72
1, 186000, Note_on_c, 9, 44, 72
1, 186240, Note_off_c, 9, 35, 64
1, 186240, Note_off_c, 9, 44, 64
1, 186240, Note_on_c, 9, 35, 72
1, 186240, Note_on_c, 9, 44, 72
1, 186480, Note_off_c, 9, 35, 64
1, 186480, Note_off_c, 9, 44, 64
1, 186480, Note_on_c, 9, 35, 72
1, 186480, Note_on_c, 9, 44, 72
1, 186720, Note_off_c, 9, 35, 64
1, 186720, Note_off_c, 9, 44, 64
1, 186720, Note_on_c, 9, 38, 72
1, 186720, Note_on_c, 9, 44, 72
1, 186960, Note_off_c, 9, 38, 64
1, 186960, Note_off_c, 9, 44, 64
1, 186960, Note_on_c, 9, 44, 72
1, 187200, Note_off_c, 9, 44, 64
1, 187200, Note_on_c, 9, 35, 72
1, 187200, Note_on_c, 9, 44, 72
1, 187440, Note_off_c, 9, 35, 64
1, 187440, Note_off_c, 9, 44, 64
1, 187440, Note_on_c, 9, 35, 72
1, 187440, Note_on_c, 9, 44, 72
1, 187680, Note_off_c, 9, 35, 64
1, 187680, Note_off_c, 9, 44, 64
1, 187680, Note_on_c, 9, 38, 72
1, 187680, Note_on_c, 9, 44, 72
1, 187920, Note_off_c, 9, 38, 64
1, 187920, Note_off_c, 9, 44, 64
1, 187920, Note_on_c, 9, 35, 72
1, 187920, Note_on_c, 9, 44, 72
1, 188160, Note_off_c, 9, 35, 64
1, 188160, Note_off_c, 9, 44, 64
1, 188160, Note_on_c, 9, 35, 80
1, 188160, Note_on_c, 9, 57, 80
1, 188160, Note_on_c, 9, 44, 80
1, 188640, Note_off_c, 9, 35, 64
1, 188640, Note_off_c, 9, 57, 64
1, 188640, Note_off_c, 9, 44, 64
1, 188640, Note_on_c, 9, 38, 72
1, 188640, Note_on_c, 9, 44, 72
1, 188880, Note_off_c, 9, 38, 64
1, 188880, Note_off_c, 9, 44, 64
1, 188880, Note_on_c, 9, 35, 80
1, 188880, Note_on_c, 9, 57, 80
1, 188880, Note_on_c, 9, 44, 80
1, 189360, Note_off_c, 9, 35, 64
1, 189360, Note_off_c, 9, 57, 64
1, 189360, Note_off_c, 9, 44, 64
1, 189360, Note_on_c, 9, 38, 72
1, 189360, Note_on_c, 9, 44, 72
1, 189600, Note_off_c, 9, 38, 64
1, 189600, Note_off_c, 9, 44, 64
1, 189600, Note_on_c, 9, 35, 80
1, 189600, Note_on_c, 9, 57, 80
1, 189600, Note_on_c, 9, 44, 80
1, 190080, Note_off_c, 9, 35, 64
1, 190080, Note_off_c, 9, 57, 64
1, 190080, Note_off_c, 9, 44, 64
1, 190080, Note_on_c, 9, 35, 80
1, 190080, Note_on_c, 9, 57, 80
1, 190080, Note_on_c, 9, 44, 80
1, 190560, Note_off_c, 9, 35, 64
1, 190560, Note_off_c, 9, 57, 64
1, 190560, Note_off_c, 9, 44, 64
1, 190560, Note_on_c, 9, 38, 72
1, 190560, Note_on_c, 9, 44, 72
1, 190800, Note_off_c, 9, 38, 64
1, 190800, Note_off_c, 9, 44, 64
1, 190800, Note_on_c, 9, 35, 80
1, 190800, Note_on_c, 9, 57, 80
1, 190800, Note_on_c, 9, 44, 80
1, 191280, Note_off_c, 9, 35, 64
1, 191280, Note_off_c, 9, 57, 64
1, 191280, Note_off_c, 9, 44, 64
1, 191280, Note_on_c, 9, 38, 72
1, 191280, Note_on_c, 9, 44, 72
1, 191520, Note_off_c, 9, 38, 64
1, 191520, Note_off_c, 9, 44, 64
1, 191520, Note_on_c, 9, 35, 80
1, 191520, Note_on_c, 9, 57, 80
1, 191520, Note_on_c, 9, 44, 80
1, 192000, Note_off_c, 9, 35, 64
1, 192000, Note_off_c, 9, 57, 64
1, 192000, Note_off_c, 9, 44, 64
1, 192000, Note_on_c, 9, 35, 80
1, 192000, Note_on_c, 9, 44, 80
1, 192480, Note_off_c, 9, 35, 64
1, 192480, Note_off_c, 9, 44, 64
1, 192480, Note_on_c, 9, 38, 80
1, 192480, Note_on_c, 9, 44, 80
1, 192960, Note_off_c, 9, 38, 64
1, 192960, Note_off_c, 9, 44, 64
1, 192960, Note_on_c, 9, 35, 80
1, 192960, Note_on_c, 9, 44, 80
1, 193440, Note_off_c, 9, 35, 64
1, 193440, Note_off_c, 9, 44, 64
1, 193440, Note_on_c, 9, 38, 80
1, 193440, Note_on_c, 9, 44, 80
1, 193920, Note_off_c, 9, 38, 64
1, 193920, Note_off_c, 9, 44, 64
1, 193920, Note_on_c, 9, 35, 80
1, 193920, Note_on_c, 9, 44, 80
1, 194400, Note_off_c, 9, 35, 64
1, 194400, Note_off_c, 9, 44, 64
1, 194400, Note_on_c, 9, 38, 80
1, 194400, Note_on_c, 9, 44, 80
1, 194880, Note_off_c, 9, 38, 64
1, 194880, Note_off_c, 9, 44, 64
1, 194880, Note_on_c, 9, 35, 80
1, 194880, Note_on_c, 9, 44, 80
1, 195360, Note_off_c, 9, 35, 64
1, 195360, Note_off_c, 9, 44, 64
1, 195360, Note_on_c, 9, 38, 80
1, 195360, Note_on_c, 9, 44, 80
1, 195840, Note_off_c, 9, 38, 64
1, 195840, Note_off_c, 9, 44, 64
1, 195840, Note_on_c, 9, 35, 80
1, 195840, Note_on_c, 9, 44, 80
1, 196320, Note_off_c, 9, 35, 64
1, 196320, Note_off_c, 9, 44, 64
1, 196320, Note_on_c, 9, 38, 80
1, 196320, Note_on_c, 9, 44, 80
1, 196800, Note_off_c, 9, 38, 64
1, 196800, Note_off_c, 9, 44, 64
1, 196800, Note_on_c, 9, 35, 80
1, 196800, Note_on_c, 9, 44, 80
1, 197280, Note_off_c, 9, 35, 64
1, 197280, Note_off_c, 9, 44, 64
1, 197280, Note_on_c, 9, 38, 80
1, 197280, Note_on_c, 9, 44, 80
1, 197760, Note_off_c, 9, 38, 64
1, 197760, Note_off_c, 9, 44, 64
1, 197760, Note_on_c, 9, 35, 80
1, 197760, Note_on_c, 9, 44, 80
1, 198240, Note_off_c, 9, 35, 64
1, 198240, Note_off_c, 9, 44, 64
1, 198240, Note_on_c, 9, 38, 80
1, 198240, Note_on_c, 9, 44, 80
1, 198720, Note_off_c, 9, 38, 64
1, 198720, Note_off_c, 9, 44, 64
1, 198720, Note_on_c, 9, 35, 80
1, 198720, Note_on_c, 9, 44, 80
1, 199200, Note_off_c, 9, 35, 64
1, 199200, Note_off_c, 9, 44, 64
1, 199200, Note_on_c, 9, 38, 80
1, 199200, Note_on_c, 9, 44, 80
1, 199680, Note_off_c, 9, 38, 64
1, 199680, Note_off_c, 9, 44, 64
1, 199680, Note_on_c, 9, 35, 72
1, 199680, Note_on_c, 9, 57, 72
1, 199680, Note_on_c, 9, 44, 72
1, 199920, Note_off_c, 9, 35, 64
1, 199920, Note_off_c, 9, 57, 64
1, 199920, Note_off_c, 9, 44, 64
1, 199920, Note_on_c, 9, 35, 72
1, 199920, Note_on_c, 9, 44, 72
1, 200160, Note_off_c, 9, 35, 64
1, 200160, Note_off_c, 9, 44, 64
1, 200160, Note_on_c, 9, 38, 72
1, 200160, Note_on_c, 9, 44, 72
1, 200400, Note_off_c, 9, 38, 64
1, 200400, Note_off_c, 9, 44, 64
1, 200400, Note_on_c, 9, 44, 72
1, 200640, Note_off_c, 9, 44, 64
1, 200640, Note_on_c, 9, 35, 72
1, 200640, Note_on_c, 9, 44, 72
1, 200880, Note_off_c, 9, 35, 64
1, 200880, Note_off_c, 9, 44, 64
1, 200880, Note_on_c, 9, 35, 72
1, 200880, Note_on_c, 9, 44, 72
1, 201120, Note_off_c, 9, 35, 64
1, 201120, Note_off_c, 9, 44, 64
1, 201120, Note_on_c, 9, 38, 72
1, 201120, Note_on_c, 9, 44, 72
1, 201360, Note_off_c, 9, 38, 64
1, 201360, Note_off_c, 9, 44, 64
1, 201360, Note_on_c, 9, 35, 72
1, 201360, Note_on_c, 9, 44, 72
1, 201600, Note_off_c, 9, 35, 64
1, 201600, Note_off_c, 9, 44, 64
1, 201600, Note_on_c, 9, 35, 72
1, 201600, Note_on_c, 9, 44, 72
1, 201840, Note_off_c, 9, 35, 64
1, 201840, Note_off_c, 9, 44, 64
1, 201840, Note_on_c, 9, 35, 72
1, 201840, Note_on_c, 9, 44, 72
1, 202080, Note_off_c, 9, 35, 64
1, 202080, Note_off_c, 9, 44, 64
1, 202080, Note_on_c, 9, 38, 72
1, 202080, Note_on_c, 9, 44, 72
1, 202320, Note_off_c, 9, 38, 64
1, 202320, Note_off_c, 9, 44, 64
1, 202320, Note_on_c, 9, 44, 72
1, 202560, Note_off_c, 9, 44, 64
1, 202560, Note_on_c, 9, 35, 72
1, 202560, Note_on_c, 9, 44, 72
1, 202800, Note_off_c, 9, 35, 64
1, 202800, Note_off_c, 9, 44, 64
1, 202800, Note_on_c, 9, 35, 72
1, 202800, Note_on_c, 9, 44, 72
1, 203040, Note_off_c, 9, 35, 64
1, 203040, Note_off_c, 9, 44, 64
1, 203040, Note_on_c, 9, 38, 72
1, 203040, Note_on_c, 9, 44, 72
1, 203280, Note_off_c, 9, 38, 64
1, 203280, Note_off_c, 9, 44, 64
1, 203280, Note_on_c, 9, 35, 72
1, 203280, Note_on_c, 9, 44, 72
1, 203520, Note_off_c, 9, 35, 64
1, 203520, Note_off_c, 9, 44, 64
1, 203520, Note_on_c, 9, 35, 80
1, 203520, Note_on_c, 9, 57, 80
1, 203520, Note_on_c, 9, 44, 80
1, 204000, Note_off_c, 9, 35, 64
1, 204000, Note_off_c, 9, 57, 64
1, 204000, Note_off_c, 9, 44, 64
1, 204000, Note_on_c, 9, 38, 72
1, 204000, Note_on_c, 9, 44, 72
1, 204240, Note_off_c, 9, 38, 64
1, 204240, Note_off_c, 9, 44, 64
1, 204240, Note_on_c, 9, 35, 80
1, 204240, Note_on_c, 9, 57, 80
1, 204240, Note_on_c, 9, 44, 80
1, 204720, Note_off_c, 9, 35, 64
1, 204720, Note_off_c, 9, 57, 64
1, 204720, Note_off_c, 9, 44, 64
1, 204720, Note_on_c, 9, 38, 72
1, 204720, Note_on_c, 9, 44, 72
1, 204960, Note_off_c, 9, 38, 64
1, 204960, Note_off_c, 9, 44, 64
1, 204960, Note_on_c, 9, 35, 80
1, 204960, Note_on_c, 9, 57, 80
1, 204960, Note_on_c, 9, 44, 80
1, 205440, Note_off_c, 9, 35, 64
1, 205440, Note_off_c, 9, 57, 64
1, 205440, Note_off_c, 9, 44, 64
1, 205440, Note_on_c, 9, 35, 80
1, 205440, Note_on_c, 9, 57, 80
1, 205440, Note_on_c, 9, 44, 80
1, 205920, Note_off_c, 9, 35, 64
1, 205920, Note_off_c, 9, 57, 64
1, 205920, Note_off_c, 9, 44, 64
1, 205920, Note_on_c, 9, 38, 72
1, 205920, Note_on_c, 9, 44, 72
1, 206160, Note_off_c, 9, 38, 64
1, 206160, Note_off_c, 9, 44, 64
1, 206160, Note_on_c, 9, 35, 80
1, 206160, Note_on_c, 9, 57, 80
1, 206160, Note_on_c, 9, 44, 80
1, 206640, Note_off_c, 9, 35, 64
1, 206640, Note_off_c, 9, 57, 64
1, 206640, Note_off_c, 9, 44, 64
1, 206640, Note_on_c, 9, 38, 72
1, 206640, Note_on_c, 9, 44, 72
1, 206880, Note_off_c, 9, 38, 64
1, 206880, Note_off_c, 9, 44, 64
1, 206880, Note_on_c, 9, 35, 80
1, 206880, Note_on_c, 9, 57, 80
1, 206880, Note_on_c, 9, 44, 80
1, 207360, Note_off_c, 9, 35, 64
1, 207360, Note_off_c, 9, 57, 64
1, 207360, Note_off_c, 9, 44, 64
1, 207360, Note_on_c, 9, 35, 80
1, 207360, Note_on_c, 9, 44, 80
1, 207840, Note_off_c, 9, 35, 64
1, 207840, Note_off_c, 9, 44, 64
1, 207840, Note_on_c, 9, 38, 80
1, 207840, Note_on_c, 9, 44, 80
1, 208320, Note_off_c, 9, 38, 64
1, 208320, Note_off_c, 9, 44, 64
1, 208320, Note_on_c, 9, 35, 80
1, 208320, Note_on_c, 9, 44, 80
1, 208800, Note_off_c, 9, 35, 64
1, 208800, Note_off_c, 9, 44, 64
1, 208800, Note_on_c, 9, 38, 80
1, 208800, Note_on_c, 9, 44, 80
1, 209280, Note_off_c, 9, 38, 64
1, 209280, Note_off_c, 9, 44, 64
1, 209280, Note_on_c, 9, 35, 80
1, 209280, Note_on_c, 9, 44, 80
1, 209760, Note_off_c, 9, 35, 64
1, 209760, Note_off_c, 9, 44, 64
1, 209760, Note_on_c, 9, 38, 80
1, 209760, Note_on_c, 9, 44, 80
1, 210240, Note_off_c, 9, 38, 64
1, 210240, Note_off_c, 9, 44, 64
1, 210240, Note_on_c, 9, 35, 80
1, 210240, Note_on_c, 9, 44, 80
1, 210720, Note_off_c, 9, 35, 64
1, 210720, Note_off_c, 9, 44, 64
1, 210720, Note_on_c, 9, 38, 80
1, 210720, Note_on_c, 9, 44, 80
1, 211200, Note_off_c, 9, 38, 64
1, 211200, Note_off_c, 9, 44, 64
1, 211200, Note_on_c, 9, 35, 80
1, 211200, Note_on_c, 9, 44, 80
1, 211680, Note_off_c, 9, 35, 64
1, 211680, Note_off_c, 9, 44, 64
1, 211680, Note_on_c, 9, 38, 80
1, 211680, Note_on_c, 9, 44, 80
1, 212160, Note_off_c, 9, 38, 64
1, 212160, Note_off_c, 9, 44, 64
1, 212160, Note_on_c, 9, 35, 80
1, 212160, Note_on_c, 9, 44, 80
1, 212640, Note_off_c, 9, 35, 64
1, 212640, Note_off_c, 9, 44, 64
1, 212640, Note_on_c, 9, 38, 80
1, 212640, Note_on_c, 9, 44, 80
1, 213120, Note_off_c, 9, 38, 64
1, 213120, Note_off_c, 9, 44, 64
1, 213120, Note_on_c, 9, 35, 80
1, 213120, Note_on_c, 9, 44, 80
1, 213600, Note_off_c, 9, 35, 64
1, 213600, Note_off_c, 9, 44, 64
1, 213600, Note_on_c, 9, 38, 80
1, 213600, Note_on_c, 9, 44, 80
1, 214080, Note_off_c, 9, 38, 64
1, 214080, Note_off_c, 9, 44, 64
1, 214080, Note_on_c, 9, 35, 80
1, 214080, Note_on_c, 9, 44, 80
1, 214560, Note_off_c, 9, 35, 64
1, 214560, Note_off_c, 9, 44, 64
1, 214560, Note_on_c, 9, 38, 80
1, 214560, Note_on_c, 9, 44, 80
1, 215040, Note_off_c, 9, 38, 64
1, 215040, Note_off_c, 9, 44, 64
1, 215040, Note_on_c, 9, 35, 72
1, 215040, Note_on_c, 9, 57, 72
1, 215040, Note_on_c, 9, 44, 72
1, 215280, Note_off_c, 9, 35, 64
1, 215280, Note_off_c, 9, 57, 64
1, 215280, Note_off_c, 9, 44, 64
1, 215280, Note_on_c, 9, 35, 72
1, 215280, Note_on_c, 9, 44, 72
1, 215520, Note_off_c, 9, 35, 64
1, 215520, Note_off_c, 9, 44, 64
1, 215520, Note_on_c, 9, 38, 72
1, 215520, Note_on_c, 9, 44, 72
1, 215760, Note_off_c, 9, 38, 64
1, 215760, Note_off_c, 9, 44, 64
1, 215760, Note_on_c, 9, 44, 72
1, 216000, Note_off_c, 9, 44, 64
1, 216000, Note_on_c, 9, 35, 72
1, 216000, Note_on_c, 9, 44, 72
1, 216240, Note_off_c, 9, 35, 64
1, 216240, Note_off_c, 9, 44, 64
1, 216240, Note_on_c, 9, 35, 72
1, 216240, Note_on_c, 9, 44, 72
1, 216480, Note_off_c, 9, 35, 64
1, 216480, Note_off_c, 9, 44, 64
1, 216480, Note_on_c, 9, 38, 72
1, 216480, Note_on_c, 9, 44, 72
1, 216720, Note_off_c, 9, 38, 64
1, 216720, Note_off_c, 9, 44, 64
1, 216720, Note_on_c, 9, 35, 72
1, 216720, Note_on_c, 9, 44, 72
1, 216960, Note_off_c, 9, 35, 64
1, 216960, Note_off_c, 9, 44, 64
1, 216960, Note_on_c, 9, 35, 72
1, 216960, Note_on_c, 9, 44, 72
1, 217200, Note_off_c, 9, 35, 64
1, 217200, Note_off_c, 9, 44, 64
1, 217200, Note_on_c, 9, 35, 72
1, 217200, Note_on_c, 9, 44, 72
1, 217440, Note_off_c, 9, 35, 64
1, 217440, Note_off_c, 9, 44, 64
1, 217440, Note_on_c, 9, 38, 72
1, 217440, Note_on_c, 9, 44, 72
1, 217680, Note_off_c, 9, 38, 64
1, 217680, Note_off_c, 9, 44, 64
1, 217680, Note_on_c, 9, 44, 72
1, 217920, Note_off_c, 9, 44, 64
1, 217920, Note_on_c, 9, 35, 72
1, 217920, Note_on_c, 9, 44, 72
1, 218160, Note_off_c, 9, 35, 64
1, 218160, Note_off_c, 9, 44, 64
1, 218160, Note_on_c, 9, 35, 72
1, 218160, Note_on_c, 9, 44, 72
1, 218400, Note_off_c, 9, 35, 64
1, 218400, Note_off_c, 9, 44, 64
1, 218400, Note_on_c, 9, 38, 72
1, 218400, Note_on_c, 9, 44, 72
1, 218640, Note_off_c, 9, 38, 64
1, 218640, Note_off_c, 9, 44, 64
1, 218640, Note_on_c, 9, 35, 72
1, 218640, Note_on_c, 9, 44, 72
1, 218880, Note_off_c, 9, 35, 64
1, 218880, Note_off_c, 9, 44, 64
1, 218880, Note_on_c, 9, 35, 80
1, 218880, Note_on_c, 9, 57, 80
1, 218880, Note_on_c, 9, 44, 80
1, 219360, Note_off_c, 9, 35, 64
1, 219360, Note_off_c, 9, 57, 64
1, 219360, Note_off_c, 9, 44, 64
1, 219360, Note_on_c, 9, 38, 72
1, 219360, Note_on_c, 9, 44, 72
1, 219600, Note_off_c, 9, 38, 64
1, 219600, Note_off_c, 9, 44, 64
1, 219600, Note_on_c, 9, 35, 80
1, 219600, Note_on_c, 9, 57, 80
1, 219600, Note_on_c, 9, 44, 80
1, 220080, Note_off_c, 9, 35, 64
1, 220080, Note_off_c, 9, 57, 64
1, 220080, Note_off_c, 9, 44, 64
1, 220080, Note_on_c, 9, 38, 72
1, 220080, Note_on_c, 9, 44, 72
1, 220320, Note_off_c, 9, 38, 64
1, 220320, Note_off_c, 9, 44, 64
1, 220320, Note_on_c, 9, 35, 80
1, 220320, Note_on_c, 9, 57, 80
1, 220320, Note_on_c, 9, 44, 80
1, 220800, Note_off_c, 9, 35, 64
1, 220800, Note_off_c, 9, 57, 64
1, 220800, Note_off_c, 9, 44, 64
1, 220800, Note_on_c, 9, 35, 80
1, 220800, Note_on_c, 9, 57, 80
1, 220800, Note_on_c, 9, 44, 80
1, 221280, Note_off_c, 9, 35, 64
1, 221280, Note_off_c, 9, 57, 64
1, 221280, Note_off_c, 9, 44, 64
1, 221280, Note_on_c, 9, 38, 72
1, 221280, Note_on_c, 9, 44, 72
1, 221520, Note_off_c, 9, 38, 64
1, 221520, Note_off_c, 9, 44, 64
1, 221520, Note_on_c, 9, 35, 80
1, 221520, Note_on_c, 9, 57, 80
1, 221520, Note_on_c, 9, 44, 80
1, 222000, Note_off_c, 9, 35, 64
1, 222000, Note_off_c, 9, 57, 64
1, 222000, Note_off_c, 9, 44, 64
1, 222000, Note_on_c, 9, 38, 72
1, 222000, Note_on_c, 9, 44, 72
1, 222240, Note_off_c, 9, 38, 64
1, 222240, Note_off_c, 9, 44, 64
1, 222240, Note_on_c, 9, 35, 80
1, 222240, Note_on_c, 9, 57, 80
1, 222240, Note_on_c, 9, 44, 80
1, 222720, Note_off_c, 9, 35, 64
1, 222720, Note_off_c, 9, 57, 64
1, 222720, Note_off_c, 9, 44, 64
1, 222720, Note_on_c, 9, 35, 80
1, 222720, Note_on_c, 9, 57, 80
1, 222720, Note_on_c, 9, 44, 80
1, 223200, Note_off_c, 9, 35, 64
1, 223200, Note_off_c, 9, 57, 64
1, 223200, Note_off_c, 9, 44, 64
1, 223200, Note_on_c, 9, 38, 72
1, 223200, Note_on_c, 9, 44, 72
1, 223440, Note_off_c, 9, 38, 64
1, 223440, Note_off_c, 9, 44, 64
1, 223440, Note_on_c, 9, 35, 80
1, 223440, Note_on_c, 9, 57, 80
1, 223440, Note_on_c, 9, 44, 80
1, 223920, Note_off_c, 9, 35, 64
1, 223920, Note_off_c, 9, 57, 64
1, 223920, Note_off_c, 9, 44, 64
1, 223920, Note_on_c, 9, 38, 72
1, 223920, Note_on_c, 9, 44, 72
1, 224160, Note_off_c, 9, 38, 64
1, 224160, Note_off_c, 9, 44, 64
1, 224160, Note_on_c, 9, 35, 80
1, 224160, Note_on_c, 9, 57, 80
1, 224160, Note_on_c, 9, 44, 80
1, 224640, Note_off_c, 9, 35, 64
1, 224640, Note_off_c, 9, 57, 64
1, 224640, Note_off_c, 9, 44, 64
1, 224640, Note_on_c, 9, 35, 80
1, 224640, Note_on_c, 9, 57, 80
1, 224640, Note_on_c, 9, 44, 80
1, 225120, Note_off_c, 9, 35, 64
1, 225120, Note_off_c, 9, 57, 64
1, 225120, Note_off_c, 9, 44, 64
1, 225120, Note_on_c, 9, 38, 72
1, 225120, Note_on_c, 9, 44, 72
1, 225360, Note_off_c, 9, 38, 64
1, 225360, Note_off_c, 9, 44, 64
1, 225360, Note_on_c, 9, 35, 80
1, 225360, Note_on_c, 9, 57, 80
1, 225360, Note_on_c, 9, 44, 80
1, 225840, Note_off_c, 9, 35, 64
1, 225840, Note_off_c, 9, 57, 64
1, 225840, Note_off_c, 9, 44, 64
1, 225840, Note_on_c, 9, 38, 72
1, 225840, Note_on_c, 9, 44, 72
1, 226080, Note_off_c, 9, 38, 64
1, 226080, Note_off_c, 9, 44, 64
1, 226080, Note_on_c, 9, 35, 80
1, 226080, Note_on_c, 9, 57, 80
1, 226080, Note_on_c, 9, 44, 80
1, 226560, Note_off_c, 9, 35, 64
1, 226560, Note_off_c, 9, 57, 64
1, 226560, Note_off_c, 9, 44, 64
1, 226560, Note_on_c, 9, 35, 80
1, 226560, Note_on_c, 9, 57, 80
1, 226560, Note_on_c, 9, 44, 80
1, 228480, Note_off_c, 9, 35, 64
1, 228480, Note_off_c, 9, 57, 64
1, 228480, Note_off_c, 9, 44, 64
1, 228480, Note_on_c, 9, 44, 72
1, 228960, Note_off_c, 9, 44, 64
1, 228960, Note_on_c, 9, 44, 72
1, 229440, Note_off_c, 9, 44, 64
1, 229440, Note_on_c, 9, 44, 72
1, 229920, Note_off_c, 9, 44, 64
1, 229920, Note_on_c, 9, 44, 72
1, 230400, Note_off_c, 9, 44, 64
1, 230400, Note_on_c, 9, 35, 80
1, 230400, Note_on_c, 9, 57, 80
1, 231360, Note_off_c, 9, 35, 64
1, 231360, Note_off_c, 9, 57, 64
1, 231360, Note_on_c, 9, 35, 72
1, 231600, Note_off_c, 9, 35, 64
1, 231600, Note_on_c, 9, 38, 80
1, 231840, Note_off_c, 9, 38, 64
1, 231840, Note_on_c, 9, 35, 72
1, 231840, Note_on_c, 9, 38, 72
1, 232080, Note_off_c, 9, 35, 64
1, 232080, Note_off_c, 9, 38, 64
1, 232080, Note_on_c, 9, 41, 80
1, 232080, Note_on_c, 9, 35, 80
1, 232080, Note_on_c, 9, 57, 80
1, 232320, Note_off_c, 9, 41, 64
1, 232320, Note_off_c, 9, 35, 64
1, 232320, Note_off_c, 9, 57, 64
1, 232320, Note_on_c, 9, 35, 72
1, 232320, Note_on_c, 9, 44, 72
1, 232800, Note_off_c, 9, 35, 64
1, 232800, Note_off_c, 9, 44, 64
1, 232800, Note_on_c, 9, 35, 72
1, 232800, Note_on_c, 9, 44, 72
1, 233280, Note_off_c, 9, 35, 64
1, 233280, Note_off_c, 9, 44, 64
1, 233280, Note_on_c, 9, 35, 72
1, 233280, Note_on_c, 9, 44, 72
1, 233760, Note_off_c, 9, 35, 64
1, 233760, Note_off_c, 9, 44, 64
1, 233760, Note_on_c, 9, 35, 72
1, 233760, Note_on_c, 9, 44, 72
1, 234240, Note_off_c, 9, 35, 64
1, 234240, Note_off_c, 9, 44, 64
1, 234240, Note_on_c, 9, 35, 80
1, 234240, Note_on_c, 9, 57, 80
1, 235200, Note_off_c, 9, 35, 64
1, 235200, Note_off_c, 9, 57, 64
1, 235200, Note_on_c, 9, 35, 72
1, 235440, Note_off_c, 9, 35, 64
1, 235440, Note_on_c, 9, 38, 80
1, 235680, Note_off_c, 9, 38, 64
1, 235680, Note_on_c, 9, 38, 80
1, 235920, Note_off_c, 9, 38, 64
1, 235920, Note_on_c, 9, 41, 80
1, 235920, Note_on_c, 9, 35, 80
1, 235920, Note_on_c, 9, 57, 80
1, 236160, Note_off_c, 9, 41, 64
1, 236160, Note_off_c, 9, 35, 64
1, 236160, Note_off_c, 9, 57, 64
1, 236160, Note_on_c, 9, 41, 72
1, 236160, Note_on_c, 9, 35, 72
1, 236160, Note_on_c, 9, 44, 72
1, 236640, Note_off_c, 9, 41, 64
1, 236640, Note_off_c, 9, 35, 64
1, 236640, Note_off_c, 9, 44, 64
1, 236640, Note_on_c, 9, 41, 72
1, 236640, Note_on_c, 9, 35, 72
1, 236640, Note_on_c, 9, 44, 72
1, 237120, Note_off_c, 9, 41, 64
1, 237120, Note_off_c, 9, 35, 64
1, 237120, Note_off_c, 9, 44, 64
1, 237120, Note_on_c, 9, 41, 72
1, 237120, Note_on_c, 9, 35, 72
1, 237120, Note_on_c, 9, 44, 72
1, 237600, Note_off_c, 9, 41, 64
1, 237600, Note_off_c, 9, 35, 64
1, 237600, Note_off_c, 9, 44, 64
1, 237600, Note_on_c, 9, 38, 72
1, 237600, Note_on_c, 9, 44, 72
1, 238080, Note_off_c, 9, 38, 64
1, 238080, Note_off_c, 9, 44, 64
1, 238080, Note_on_c, 9, 35, 72
1, 238080, Note_on_c, 9, 57, 72
1, 238080, Note_on_c, 9, 44, 72
1, 238320, Note_off_c, 9, 35, 64
1, 238320, Note_off_c, 9, 57, 64
1, 238320, Note_off_c, 9, 44, 64
1, 238320, Note_on_c, 9, 35, 72
1, 238560, Note_off_c, 9, 35, 64
1, 238560, Note_on_c, 9, 38, 72
1, 238560, Note_on_c, 9, 44, 72
1, 238800, Note_off_c, 9, 38, 64
1, 238800, Note_off_c, 9, 44, 64
1, 238800, Note_on_c, 9, 35, 72
1, 239040, Note_off_c, 9, 35, 64
1, 239040, Note_on_c, 9, 35, 72
1, 239040, Note_on_c, 9, 44, 72
1, 239280, Note_off_c, 9, 35, 64
1, 239280, Note_off_c, 9, 44, 64
1, 239280, Note_on_c, 9, 35, 72
1, 239520, Note_off_c, 9, 35, 64
1, 239520, Note_on_c, 9, 38, 72
1, 239520, Note_on_c, 9, 44, 72
1, 239760, Note_off_c, 9, 38, 64
1, 239760, Note_off_c, 9, 44, 64
1, 239760, Note_on_c, 9, 35, 72
1, 240000, Note_off_c, 9, 35, 64
1, 240000, Note_on_c, 9, 35, 72
1, 240000, Note_on_c, 9, 57, 72
1, 240000, Note_on_c, 9, 44, 72
1, 240240, Note_off_c, 9, 35, 64
1, 240240, Note_off_c, 9, 57, 64
1, 240240, Note_off_c, 9, 44, 64
1, 240240, Note_on_c, 9, 35, 72
1, 240480, Note_off_c, 9, 35, 64
1, 240480, Note_on_c, 9, 38, 72
1, 240480, Note_on_c, 9, 44, 72
1, 240720, Note_off_c, 9, 38, 64
1, 240720, Note_off_c, 9, 44, 64
1, 240720, Note_on_c, 9, 35, 72
1, 240960, Note_off_c, 9, 35, 64
1, 240960, Note_on_c, 9, 35, 72
1, 240960, Note_on_c, 9, 44, 72
1, 241200, Note_off_c, 9, 35, 64
1, 241200, Note_off_c, 9, 44, 64
1, 241200, Note_on_c, 9, 35, 72
1, 241440, Note_off_c, 9, 35, 64
1, 241440, Note_on_c, 9, 38, 72
1, 241440, Note_on_c, 9, 44, 72
1, 241680, Note_off_c, 9, 38, 64
1, 241680, Note_off_c, 9, 44, 64
1, 241680, Note_on_c, 9, 35, 72
1, 241920, Note_off_c, 9, 35, 64
1, 241920, Note_on_c, 9, 35, 72
1, 241920, Note_on_c, 9, 57, 72
1, 241920, Note_on_c, 9, 44, 72
1, 242160, Note_off_c, 9, 35, 64
1, 242160, Note_off_c, 9, 57, 64
1, 242160, Note_off_c, 9, 44, 64
1, 242160, Note_on_c, 9, 35, 72
1, 242400, Note_off_c, 9, 35, 64
1, 242400, Note_on_c, 9, 38, 72
1, 242400, Note_on_c, 9, 44, 72
1, 242640, Note_off_c, 9, 38, 64
1, 242640, Note_off_c, 9, 44, 64
1, 242640, Note_on_c, 9, 35, 72
1, 242880, Note_off_c, 9, 35, 64
1, 242880, Note_on_c, 9, 35, 72
1, 242880, Note_on_c, 9, 44, 72
1, 243120, Note_off_c, 9, 35, 64
1, 243120, Note_off_c, 9, 44, 64
1, 243120, Note_on_c, 9, 35, 72
1, 243360, Note_off_c, 9, 35, 64
1, 243360, Note_on_c, 9, 38, 72
1, 243360, Note_on_c, 9, 44, 72
1, 243600, Note_off_c, 9, 38, 64
1, 243600, Note_off_c, 9, 44, 64
1, 243600, Note_on_c, 9, 35, 72
1, 243840, Note_off_c, 9, 35, 64
1, 243840, Note_on_c, 9, 35, 72
1, 243840, Note_on_c, 9, 57, 72
1, 243840, Note_on_c, 9, 44, 72
1, 244080, Note_off_c, 9, 35, 64
1, 244080, Note_off_c, 9, 57, 64
1, 244080, Note_off_c, 9, 44, 64
1, 244080, Note_on_c, 9, 35, 72
1, 244320, Note_off_c, 9, 35, 64
1, 244320, Note_on_c, 9, 38, 72
1, 244320, Note_on_c, 9, 44, 72
1, 244560, Note_off_c, 9, 38, 64
1, 244560, Note_off_c, 9, 44, 64
1, 244560, Note_on_c, 9, 35, 72
1, 244800, Note_off_c, 9, 35, 64
1, 244800, Note_on_c, 9, 35, 72
1, 244800, Note_on_c, 9, 44, 72
1, 245040, Note_off_c, 9, 35, 64
1, 245040, Note_off_c, 9, 44, 64
1, 245040, Note_on_c, 9, 35, 72
1, 245280, Note_off_c, 9, 35, 64
1, 245280, Note_on_c, 9, 38, 72
1, 245280, Note_on_c, 9, 44, 72
1, 245520, Note_off_c, 9, 38, 64
1, 245520, Note_off_c, 9, 44, 64
1, 245520, Note_on_c, 9, 35, 72
1, 245760, Note_off_c, 9, 35, 64
1, 245760, Note_on_c, 9, 35, 72
1, 245760, Note_on_c, 9, 57, 72
1, 245760, Note_on_c, 9, 44, 72
1, 246000, Note_off_c, 9, 35, 64
1, 246000, Note_off_c, 9, 57, 64
1, 246000, Note_off_c, 9, 44, 64
1, 246000, Note_on_c, 9, 35, 72
1, 246240, Note_off_c, 9, 35, 64
1, 246240, Note_on_c, 9, 38, 72
1, 246240, Note_on_c, 9, 44, 72
1, 246480, Note_off_c, 9, 38, 64
1, 246480, Note_off_c, 9, 44, 64
1, 246480, Note_on_c, 9, 35, 72
1, 246720, Note_off_c, 9, 35, 64
1, 246720, Note_on_c, 9, 35, 72
1, 246720, Note_on_c, 9, 44, 72
1, 246960, Note_off_c, 9, 35, 64
1, 246960, Note_off_c, 9, 44, 64
1, 246960, Note_on_c, 9, 35, 72
1, 247200, Note_off_c, 9, 35, 64
1, 247200, Note_on_c, 9, 38, 72
1, 247200, Note_on_c, 9, 44, 72
1, 247440, Note_off_c, 9, 38, 64
1, 247440, Note_off_c, 9, 44, 64
1, 247440, Note_on_c, 9, 35, 72
1, 247680, Note_off_c, 9, 35, 64
1, 247680, Note_on_c, 9, 35, 72
1, 247680, Note_on_c, 9, 57, 72
1, 247680, Note_on_c, 9, 44, 72
1, 247920, Note_off_c, 9, 35, 64
1, 247920, Note_off_c, 9, 57, 64
1, 247920, Note_off_c, 9, 44, 64
1, 247920, Note_on_c, 9, 35, 72
1, 248160, Note_off_c, 9, 35, 64
1, 248160, Note_on_c, 9, 38, 72
1, 248160, Note_on_c, 9, 44, 72
1, 248400, Note_off_c, 9, 38, 64
1, 248400, Note_off_c, 9, 44, 64
1, 248400, Note_on_c, 9, 35, 72
1, 248640, Note_off_c, 9, 35, 64
1, 248640, Note_on_c, 9, 35, 72
1, 248640, Note_on_c, 9, 44, 72
1, 248880, Note_off_c, 9, 35, 64
1, 248880, Note_off_c, 9, 44, 64
1, 248880, Note_on_c, 9, 35, 72
1, 249120, Note_off_c, 9, 35, 64
1, 249120, Note_on_c, 9, 38, 72
1, 249120, Note_on_c, 9, 44, 72
1, 249360, Note_off_c, 9, 38, 64
1, 249360, Note_off_c, 9, 44, 64
1, 249360, Note_on_c, 9, 35, 72
1, 249600, Note_off_c, 9, 35, 64
1, 249600, Note_on_c, 9, 35, 72
1, 249600, Note_on_c, 9, 57, 72
1, 249600, Note_on_c, 9, 44, 72
1, 249840, Note_off_c, 9, 35, 64
1, 249840, Note_off_c, 9, 57, 64
1, 249840, Note_off_c, 9, 44, 64
1, 249840, Note_on_c, 9, 35, 72
1, 250080, Note_off_c, 9, 35, 64
1, 250080, Note_on_c, 9, 38, 72
1, 250080, Note_on_c, 9, 44, 72
1, 250320, Note_off_c, 9, 38, 64
1, 250320, Note_off_c, 9, 44, 64
1, 250320, Note_on_c, 9, 35, 72
1, 250560, Note_off_c, 9, 35, 64
1, 250560, Note_on_c, 9, 35, 72
1, 250560, Note_on_c, 9, 44, 72
1, 250800, Note_off_c, 9, 35, 64
1, 250800, Note_off_c, 9, 44, 64
1, 250800, Note_on_c, 9, 35, 72
1, 251040, Note_off_c, 9, 35, 64
1, 251040, Note_on_c, 9, 38, 72
1, 251040, Note_on_c, 9, 44, 72
1, 251280, Note_off_c, 9, 38, 64
1, 251280, Note_off_c, 9, 44, 64
1, 251280, Note_on_c, 9, 35, 72
1, 251520, Note_off_c, 9, 35, 64
1, 251520, Note_on_c, 9, 35, 72
1, 251520, Note_on_c, 9, 57, 72
1, 251520, Note_on_c, 9, 44, 72
1, 251760, Note_off_c, 9, 35, 64
1, 251760, Note_off_c, 9, 57, 64
1, 251760, Note_off_c, 9, 44, 64
1, 251760, Note_on_c, 9, 35, 72
1, 252000, Note_off_c, 9, 35, 64
1, 252000, Note_on_c, 9, 38, 72
1, 252000, Note_on_c, 9, 44, 72
1, 252240, Note_off_c, 9, 38, 64
1, 252240, Note_off_c, 9, 44, 64
1, 252240, Note_on_c, 9, 35, 72
1, 252480, Note_off_c, 9, 35, 64
1, 252480, Note_on_c, 9, 35, 72
1, 252480, Note_on_c, 9, 44, 72
1, 252720, Note_off_c, 9, 35, 64
1, 252720, Note_off_c, 9, 44, 64
1, 252720, Note_on_c, 9, 35, 72
1, 252960, Note_off_c, 9, 35, 64
1, 252960, Note_on_c, 9, 38, 72
1, 252960, Note_on_c, 9, 44, 72
1, 253200, Note_off_c, 9, 38, 64
1, 253200, Note_off_c, 9, 44, 64
1, 253200, Note_on_c, 9, 35, 72
1, 253440, Note_off_c, 9, 35, 64
1, 253440, Note_on_c, 9, 35, 72
1, 253440, Note_on_c, 9, 57, 72
1, 253440, Note_on_c, 9, 44, 72
1, 253680, Note_off_c, 9, 35, 64
1, 253680, Note_off_c, 9, 57, 64
1, 253680, Note_off_c, 9, 44, 64
1, 253680, Note_on_c, 9, 35, 72
1, 253920, Note_off_c, 9, 35, 64
1, 253920, Note_on_c, 9, 38, 72
1, 253920, Note_on_c, 9, 44, 72
1, 254160, Note_off_c, 9, 38, 64
1, 254160, Note_off_c, 9, 44, 64
1, 254160, Note_on_c, 9, 35, 72
1, 254400, Note_off_c, 9, 35, 64
1, 254400, Note_on_c, 9, 35, 72
1, 254400, Note_on_c, 9, 44, 72
1, 254640, Note_off_c, 9, 35, 64
1, 254640, Note_off_c, 9, 44, 64
1, 254640, Note_on_c, 9, 35, 72
1, 254880, Note_off_c, 9, 35, 64
1, 254880, Note_on_c, 9, 38, 72
1, 254880, Note_on_c, 9, 44, 72
1, 255120, Note_off_c, 9, 38, 64
1, 255120, Note_off_c, 9, 44, 64
1, 255120, Note_on_c, 9, 35, 72
1, 255360, Note_off_c, 9, 35, 64
1, 255360, Note_on_c, 9, 35, 72
1, 255360, Note_on_c, 9, 57, 72
1, 255360, Note_on_c, 9, 44, 72
1, 255600, Note_off_c, 9, 35, 64
1, 255600, Note_off_c, 9, 57, 64
1, 255600, Note_off_c, 9, 44, 64
1, 255600, Note_on_c, 9, 35, 72
1, 255840, Note_off_c, 9, 35, 64
1, 255840, Note_on_c, 9, 38, 72
1, 255840, Note_on_c, 9, 44, 72
1, 256080, Note_off_c, 9, 38, 64
1, 256080, Note_off_c, 9, 44, 64
1, 256080, Note_on_c, 9, 35, 72
1, 256320, Note_off_c, 9, 35, 64
1, 256320, Note_on_c, 9, 35, 72
1, 256320, Note_on_c, 9, 44, 72
1, 256560, Note_off_c, 9, 35, 64
1, 256560, Note_off_c, 9, 44, 64
1, 256560, Note_on_c, 9, 35, 72
1, 256800, Note_off_c, 9, 35, 64
1, 256800, Note_on_c, 9, 38, 72
1, 256800, Note_on_c, 9, 44, 72
1, 257040, Note_off_c, 9, 38, 64
1, 257040, Note_off_c, 9, 44, 64
1, 257040, Note_on_c, 9, 35, 72
1, 257280, Note_off_c, 9, 35, 64
1, 257280, Note_on_c, 9, 35, 72
1, 257280, Note_on_c, 9, 57, 72
1, 257280, Note_on_c, 9, 44, 72
1, 257520, Note_off_c, 9, 35, 64
1, 257520, Note_off_c, 9, 57, 64
1, 257520, Note_off_c, 9, 44, 64
1, 257520, Note_on_c, 9, 35, 72
1, 257760, Note_off_c, 9, 35, 64
1, 257760, Note_on_c, 9, 38, 72
1, 257760, Note_on_c, 9, 44, 72
1, 258000, Note_off_c, 9, 38, 64
1, 258000, Note_off_c, 9, 44, 64
1, 258000, Note_on_c, 9, 35, 72
1, 258240, Note_off_c, 9, 35, 64
1, 258240, Note_on_c, 9, 35, 72
1, 258240, Note_on_c, 9, 44, 72
1, 258480, Note_off_c, 9, 35, 64
1, 258480, Note_off_c, 9, 44, 64
1, 258480, Note_on_c, 9, 35, 72
1, 258720, Note_off_c, 9, 35, 64
1, 258720, Note_on_c, 9, 38, 72
1, 258720, Note_on_c, 9, 44, 72
1, 258960, Note_off_c, 9, 38, 64
1, 258960, Note_off_c, 9, 44, 64
1, 258960, Note_on_c, 9, 35, 72
1, 259200, Note_off_c, 9, 35, 64
1, 259200, Note_on_c, 9, 35, 72
1, 259200, Note_on_c, 9, 57, 72
1, 259200, Note_on_c, 9, 44, 72
1, 259440, Note_off_c, 9, 35, 64
1, 259440, Note_off_c, 9, 57, 64
1, 259440, Note_off_c, 9, 44, 64
1, 259440, Note_on_c, 9, 35, 72
1, 259680, Note_off_c, 9, 35, 64
1, 259680, Note_on_c, 9, 38, 72
1, 259680, Note_on_c, 9, 44, 72
1, 259920, Note_off_c, 9, 38, 64
1, 259920, Note_off_c, 9, 44, 64
1, 259920, Note_on_c, 9, 35, 72
1, 260160, Note_off_c, 9, 35, 64
1, 260160, Note_on_c, 9, 35, 72
1, 260160, Note_on_c, 9, 44, 72
1, 260400, Note_off_c, 9, 35, 64
1, 260400, Note_off_c, 9, 44, 64
1, 260400, Note_on_c, 9, 35, 72
1, 260640, Note_off_c, 9, 35, 64
1, 260640, Note_on_c, 9, 38, 72
1, 260640, Note_on_c, 9, 44, 72
1, 260880, Note_off_c, 9, 38, 64
1, 260880, Note_off_c, 9, 44, 64
1, 260880, Note_on_c, 9, 35, 72
1, 261120, Note_off_c, 9, 35, 64
1, 261120, Note_on_c, 9, 35, 72
1, 261120, Note_on_c, 9, 57, 72
1, 261120, Note_on_c, 9, 44, 72
1, 261360, Note_off_c, 9, 35, 64
1, 261360, Note_off_c, 9, 57, 64
1, 261360, Note_off_c, 9, 44, 64
1, 261360, Note_on_c, 9, 35, 72
1, 261600, Note_off_c, 9, 35, 64
1, 261600, Note_on_c, 9, 38, 72
1, 261600, Note_on_c, 9, 44, 72
1, 261840, Note_off_c, 9, 38, 64
1, 261840, Note_off_c, 9, 44, 64
1, 261840, Note_on_c, 9, 35, 72
1, 262080, Note_off_c, 9, 35, 64
1, 262080, Note_on_c, 9, 35, 72
1, 262080, Note_on_c, 9, 44, 72
1, 262320, Note_off_c, 9, 35, 64
1, 262320, Note_off_c, 9, 44, 64
1, 262320, Note_on_c, 9, 35, 72
1, 262560, Note_off_c, 9, 35, 64
1, 262560, Note_on_c, 9, 38, 72
1, 262560, Note_on_c, 9, 44, 72
1, 262800, Note_off_c, 9, 38, 64
1, 262800, Note_off_c, 9, 44, 64
1, 262800, Note_on_c, 9, 35, 72
1, 263040, Note_off_c, 9, 35, 64
1, 263040, Note_on_c, 9, 35, 72
1, 263040, Note_on_c, 9, 57, 72
1, 263040, Note_on_c, 9, 44, 72
1, 263280, Note_off_c, 9, 35, 64
1, 263280, Note_off_c, 9, 57, 64
1, 263280, Note_off_c, 9, 44, 64
1, 263280, Note_on_c, 9, 35, 72
1, 263520, Note_off_c, 9, 35, 64
1, 263520, Note_on_c, 9, 38, 72
1, 263520, Note_on_c, 9, 44, 72
1, 263760, Note_off_c, 9, 38, 64
1, 263760, Note_off_c, 9, 44, 64
1, 263760, Note_on_c, 9, 35, 72
1, 264000, Note_off_c, 9, 35, 64
1, 264000, Note_on_c, 9, 35, 72
1, 264000, Note_on_c, 9, 44, 72
1, 264240, Note_off_c, 9, 35, 64
1, 264240, Note_off_c, 9, 44, 64
1, 264240, Note_on_c, 9, 35, 72
1, 264480, Note_off_c, 9, 35, 64
1, 264480, Note_on_c, 9, 38, 72
1, 264480, Note_on_c, 9, 44, 72
1, 264720, Note_off_c, 9, 38, 64
1, 264720, Note_off_c, 9, 44, 64
1, 264720, Note_on_c, 9, 35, 72
1, 264960, Note_off_c, 9, 35, 64
1, 264960, Note_on_c, 9, 35, 72
1, 264960, Note_on_c, 9, 57, 72
1, 264960, Note_on_c, 9, 44, 72
1, 265200, Note_off_c, 9, 35, 64
1, 265200, Note_off_c, 9, 57, 64
1, 265200, Note_off_c, 9, 44, 64
1, 265200, Note_on_c, 9, 35, 72
1, 265440, Note_off_c, 9, 35, 64
1, 265440, Note_on_c, 9, 38, 72
1, 265440, Note_on_c, 9, 44, 72
1, 265680, Note_off_c, 9, 38, 64
1, 265680, Note_off_c, 9, 44, 64
1, 265680, Note_on_c, 9, 35, 72
1, 265920, Note_off_c, 9, 35, 64
1, 265920, Note_on_c, 9, 35, 72
1, 265920, Note_on_c, 9, 44, 72
1, 266160, Note_off_c, 9, 35, 64
1, 266160, Note_off_c, 9, 44, 64
1, 266160, Note_on_c, 9, 35, 72
1, 266400, Note_off_c, 9, 35, 64
1, 266400, Note_on_c, 9, 38, 72
1, 266400, Note_on_c, 9, 44, 72
1, 266640, Note_off_c, 9, 38, 64
1, 266640, Note_off_c, 9, 44, 64
1, 266640, Note_on_c, 9, 35, 72
1, 266880, Note_off_c, 9, 35, 64
1, 266880, Note_on_c, 9, 35, 72
1, 266880, Note_on_c, 9, 57, 72
1, 266880, Note_on_c, 9, 44, 72
1, 267120, Note_off_c, 9, 35, 64
1, 267120, Note_off_c, 9, 57, 64
1, 267120, Note_off_c, 9, 44, 64
1, 267120, Note_on_c, 9, 35, 72
1, 267360, Note_off_c, 9, 35, 64
1, 267360, Note_on_c, 9, 38, 72
1, 267360, Note_on_c, 9, 44, 72
1, 267600, Note_off_c, 9, 38, 64
1, 267600, Note_off_c, 9, 44, 64
1, 267600, Note_on_c, 9, 35, 72
1, 267840, Note_off_c, 9, 35, 64
1, 267840, Note_on_c, 9, 35, 72
1, 267840, Note_on_c, 9, 44, 72
1, 268080, Note_off_c, 9, 35, 64
1, 268080, Note_off_c, 9, 44, 64
1, 268080, Note_on_c, 9, 35, 72
1, 268320, Note_off_c, 9, 35, 64
1, 268320, Note_on_c, 9, 38, 72
1, 268320, Note_on_c, 9, 44, 72
1, 268560, Note_off_c, 9, 38, 64
1, 268560, Note_off_c, 9, 44, 64
1, 268560, Note_on_c, 9, 35, 72
1, 268800, Note_off_c, 9, 35, 64
1, 268800, Note_on_c, 9, 35, 72
1, 268800, Note_on_c, 9, 57, 72
1, 268800, Note_on_c, 9, 44, 72
1, 269040, Note_off_c, 9, 35, 64
1, 269040, Note_off_c, 9, 57, 64
1, 269040, Note_off_c, 9, 44, 64
1, 269040, Note_on_c, 9, 35, 72
1, 269280, Note_off_c, 9, 35, 64
1, 269280, Note_on_c, 9, 38, 72
1, 269280, Note_on_c, 9, 57, 72
1, 269280, Note_on_c, 9, 44, 72
1, 269520, Note_off_c, 9, 38, 64
1, 269520, Note_off_c, 9, 57, 64
1, 269520, Note_off_c, 9, 44, 64
1, 269520, Note_on_c, 9, 35, 72
1, 269760, Note_off_c, 9, 35, 64
1, 269760, Note_on_c, 9, 35, 72
1, 269760, Note_on_c, 9, 57, 72
1, 269760, Note_on_c, 9, 44, 72
1, 270000, Note_off_c, 9, 35, 64
1, 270000, Note_off_c, 9, 57, 64
1, 270000, Note_off_c, 9, 44, 64
1, 270000, Note_on_c, 9, 35, 72
1, 270240, Note_off_c, 9, 35, 64
1, 270240, Note_on_c, 9, 38, 72
1, 270240, Note_on_c, 9, 57, 72
1, 270240, Note_on_c, 9, 44, 72
1, 270480, Note_off_c, 9, 38, 64
1, 270480, Note_off_c, 9, 57, 64
1, 270480, Note_off_c, 9, 44, 64
1, 270480, Note_on_c, 9, 35, 72
1, 270720, Note_off_c, 9, 35, 64
1, 270720, Note_on_c, 9, 35, 72
1, 270720, Note_on_c, 9, 57, 72
1, 270720, Note_on_c, 9, 44, 72
1, 270960, Note_off_c, 9, 35, 64
1, 270960, Note_off_c, 9, 57, 64
1, 270960, Note_off_c, 9, 44, 64
1, 270960, Note_on_c, 9, 35, 72
1, 271200, Note_off_c, 9, 35, 64
1, 271200, Note_on_c, 9, 38, 72
1, 271200, Note_on_c, 9, 57, 72
1, 271200, Note_on_c, 9, 44, 72
1, 271440, Note_off_c, 9, 38, 64
1, 271440, Note_off_c, 9, 57, 64
1, 271440, Note_off_c, 9, 44, 64
1, 271440, Note_on_c, 9, 35, 72
1, 271680, Note_off_c, 9, 35, 64
1, 271680, Note_on_c, 9, 35, 72
1, 271680, Note_on_c, 9, 57, 72
1, 271680, Note_on_c, 9, 44, 72
1, 271920, Note_off_c, 9, 35, 64
1, 271920, Note_off_c, 9, 57, 64
1, 271920, Note_off_c, 9, 44, 64
1, 271920, Note_on_c, 9, 35, 72
1, 272160, Note_off_c, 9, 35, 64
1, 272160, Note_on_c, 9, 38, 72
1, 272160, Note_on_c, 9, 57, 72
1, 272160, Note_on_c, 9, 44, 72
1, 272400, Note_off_c, 9, 38, 64
1, 272400, Note_off_c, 9, 57, 64
1, 272400, Note_off_c, 9, 44, 64
1, 272400, Note_on_c, 9, 35, 72
1, 272640, Note_off_c, 9, 35, 64
1, 272640, Note_on_c, 9, 35, 72
1, 272640, Note_on_c, 9, 44, 72
1, 272880, Note_off_c, 9, 35, 64
1, 272880, Note_off_c, 9, 44, 64
1, 272880, Note_on_c, 9, 35, 72
1, 273120, Note_off_c, 9, 35, 64
1, 273120, Note_on_c, 9, 38, 72
1, 273120, Note_on_c, 9, 44, 72
1, 273360, Note_off_c, 9, 38, 64
1, 273360, Note_off_c, 9, 44, 64
1, 273360, Note_on_c, 9, 35, 72
1, 273600, Note_off_c, 9, 35, 64
1, 273600, Note_on_c, 9, 35, 72
1, 273600, Note_on_c, 9, 44, 72
1, 273840, Note_off_c, 9, 35, 64
1, 273840, Note_off_c, 9, 44, 64
1, 273840, Note_on_c, 9, 35, 72
1, 274080, Note_off_c, 9, 35, 64
1, 274080, Note_on_c, 9, 38, 72
1, 274080, Note_on_c, 9, 44, 72
1, 274320, Note_off_c, 9, 38, 64
1, 274320, Note_off_c, 9, 44, 64
1, 274320, Note_on_c, 9, 35, 72
1, 274560, Note_off_c, 9, 35, 64
1, 274560, Note_on_c, 9, 35, 72
1, 274560, Note_on_c, 9, 44, 72
1, 274800, Note_off_c, 9, 35, 64
1, 274800, Note_off_c, 9, 44, 64
1, 274800, Note_on_c, 9, 35, 72
1, 275040, Note_off_c, 9, 35, 64
1, 275040, Note_on_c, 9, 38, 72
1, 275040, Note_on_c, 9, 44, 72
1, 275280, Note_off_c, 9, 38, 64
1, 275280, Note_off_c, 9, 44, 64
1, 275280, Note_on_c, 9, 35, 72
1, 275520, Note_off_c, 9, 35, 64
1, 275520, Note_on_c, 9, 35, 72
1, 275520, Note_on_c, 9, 44, 72
1, 275760, Note_off_c, 9, 35, 64
1, 275760, Note_off_c, 9, 44, 64
1, 275760, Note_on_c, 9, 35, 72
1, 276000, Note_off_c, 9, 35, 64
1, 276000, Note_on_c, 9, 38, 72
1, 276000, Note_on_c, 9, 44, 72
1, 276240, Note_off_c, 9, 38, 64
1, 276240, Note_off_c, 9, 44, 64
1, 276240, Note_on_c, 9, 35, 72
1, 276480, Note_off_c, 9, 35, 64
1, 276480, Note_on_c, 9, 35, 72
1, 276480, Note_on_c, 9, 57, 72
1, 276480, Note_on_c, 9, 44, 72
1, 276720, Note_off_c, 9, 35, 64
1, 276720, Note_off_c, 9, 57, 64
1, 276720, Note_off_c, 9, 44, 64
1, 276720, Note_on_c, 9, 35, 72
1, 276960, Note_off_c, 9, 35, 64
1, 276960, Note_on_c, 9, 38, 72
1, 276960, Note_on_c, 9, 57, 72
1, 276960, Note_on_c, 9, 44, 72
1, 277200, Note_off_c, 9, 38, 64
1, 277200, Note_off_c, 9, 57, 64
1, 277200, Note_off_c, 9, 44, 64
1, 277200, Note_on_c, 9, 35, 72
1, 277440, Note_off_c, 9, 35, 64
1, 277440, Note_on_c, 9, 35, 72
1, 277440, Note_on_c, 9, 57, 72
1, 277440, Note_on_c, 9, 44, 72
1, 277680, Note_off_c, 9, 35, 64
1, 277680, Note_off_c, 9, 57, 64
1, 277680, Note_off_c, 9, 44, 64
1, 277680, Note_on_c, 9, 35, 72
1, 277920, Note_off_c, 9, 35, 64
1, 277920, Note_on_c, 9, 38, 72
1, 277920, Note_on_c, 9, 57, 72
1, 277920, Note_on_c, 9, 44, 72
1, 278160, Note_off_c, 9, 38, 64
1, 278160, Note_off_c, 9, 57, 64
1, 278160, Note_off_c, 9, 44, 64
1, 278160, Note_on_c, 9, 35, 72
1, 278400, Note_off_c, 9, 35, 64
1, 278400, Note_on_c, 9, 35, 72
1, 278400, Note_on_c, 9, 57, 72
1, 278400, Note_on_c, 9, 44, 72
1, 278640, Note_off_c, 9, 35, 64
1, 278640, Note_off_c, 9, 57, 64
1, 278640, Note_off_c, 9, 44, 64
1, 278640, Note_on_c, 9, 35, 72
1, 278880, Note_off_c, 9, 35, 64
1, 278880, Note_on_c, 9, 38, 72
1, 278880, Note_on_c, 9, 57, 72
1, 278880, Note_on_c, 9, 44, 72
1, 279120, Note_off_c, 9, 38, 64
1, 279120, Note_off_c, 9, 57, 64
1, 279120, Note_off_c, 9, 44, 64
1, 279120, Note_on_c, 9, 35, 72
1, 279360, Note_off_c, 9, 35, 64
1, 279360, Note_on_c, 9, 35, 72
1, 279360, Note_on_c, 9, 57, 72
1, 279360, Note_on_c, 9, 44, 72
1, 279600, Note_off_c, 9, 35, 64
1, 279600, Note_off_c, 9, 57, 64
1, 279600, Note_off_c, 9, 44, 64
1, 279600, Note_on_c, 9, 35, 72
1, 279840, Note_off_c, 9, 35, 64
1, 279840, Note_on_c, 9, 38, 72
1, 279840, Note_on_c, 9, 57, 72
1, 279840, Note_on_c, 9, 44, 72
1, 280080, Note_off_c, 9, 38, 64
1, 280080, Note_off_c, 9, 57, 64
1, 280080, Note_off_c, 9, 44, 64
1, 280080, Note_on_c, 9, 35, 72
1, 280320, Note_off_c, 9, 35, 64
1, 280320, Note_on_c, 9, 35, 72
1, 280320, Note_on_c, 9, 44, 72
1, 280560, Note_off_c, 9, 35, 64
1, 280560, Note_off_c, 9, 44, 64
1, 280560, Note_on_c, 9, 35, 72
1, 280800, Note_off_c, 9, 35, 64
1, 280800, Note_on_c, 9, 38, 72
1, 280800, Note_on_c, 9, 44, 72
1, 281040, Note_off_c, 9, 38, 64
1, 281040, Note_off_c, 9, 44, 64
1, 281040, Note_on_c, 9, 35, 72
1, 281280, Note_off_c, 9, 35, 64
1, 281280, Note_on_c, 9, 35, 72
1, 281280, Note_on_c, 9, 44, 72
1, 281520, Note_off_c, 9, 35, 64
1, 281520, Note_off_c, 9, 44, 64
1, 281520, Note_on_c, 9, 35, 72
1, 281760, Note_off_c, 9, 35, 64
1, 281760, Note_on_c, 9, 38, 72
1, 281760, Note_on_c, 9, 44, 72
1, 282000, Note_off_c, 9, 38, 64
1, 282000, Note_off_c, 9, 44, 64
1, 282000, Note_on_c, 9, 35, 72
1, 282240, Note_off_c, 9, 35, 64
1, 282240, Note_on_c, 9, 35, 72
1, 282240, Note_on_c, 9, 44, 72
1, 282480, Note_off_c, 9, 35, 64
1, 282480, Note_off_c, 9, 44, 64
1, 282480, Note_on_c, 9, 35, 72
1, 282720, Note_off_c, 9, 35, 64
1, 282720, Note_on_c, 9, 38, 72
1, 282720, Note_on_c, 9, 44, 72
1, 282960, Note_off_c, 9, 38, 64
1, 282960, Note_off_c, 9, 44, 64
1, 282960, Note_on_c, 9, 35, 72
1, 283200, Note_off_c, 9, 35, 64
1, 283200, Note_on_c, 9, 35, 72
1, 283200, Note_on_c, 9, 44, 72
1, 283440, Note_off_c, 9, 35, 64
1, 283440, Note_off_c, 9, 44, 64
1, 283440, Note_on_c, 9, 35, 72
1, 283680, Note_off_c, 9, 35, 64
1, 283680, Note_on_c, 9, 38, 72
1, 283680, Note_on_c, 9, 44, 72
1, 283920, Note_off_c, 9, 38, 64
1, 283920, Note_off_c, 9, 44, 64
1, 283920, Note_on_c, 9, 35, 72
1, 284160, Note_off_c, 9, 35, 64
1, 284160, Note_on_c, 9, 35, 72
1, 284160, Note_on_c, 9, 57, 72
1, 284160, Note_on_c, 9, 44, 72
1, 284400, Note_off_c, 9, 35, 64
1, 284400, Note_off_c, 9, 57, 64
1, 284400, Note_off_c, 9, 44, 64
1, 284400, Note_on_c, 9, 35, 72
1, 284640, Note_off_c, 9, 35, 64
1, 284640, Note_on_c, 9, 38, 72
1, 284640, Note_on_c, 9, 57, 72
1, 284640, Note_on_c, 9, 44, 72
1, 284880, Note_off_c, 9, 38, 64
1, 284880, Note_off_c, 9, 57, 64
1, 284880, Note_off_c, 9, 44, 64
1, 284880, Note_on_c, 9, 35, 72
1, 285120, Note_off_c, 9, 35, 64
1, 285120, Note_on_c, 9, 35, 72
1, 285120, Note_on_c, 9, 57, 72
1, 285120, Note_on_c, 9, 44, 72
1, 285360, Note_off_c, 9, 35, 64
1, 285360, Note_off_c, 9, 57, 64
1, 285360, Note_off_c, 9, 44, 64
1, 285360, Note_on_c, 9, 35, 72
1, 285600, Note_off_c, 9, 35, 64
1, 285600, Note_on_c, 9, 38, 72
1, 285600, Note_on_c, 9, 57, 72
1, 285600, Note_on_c, 9, 44, 72
1, 285840, Note_off_c, 9, 38, 64
1, 285840, Note_off_c, 9, 57, 64
1, 285840, Note_off_c, 9, 44, 64
1, 285840, Note_on_c, 9, 35, 72
1, 286080, Note_off_c, 9, 35, 64
1, 286080, Note_on_c, 9, 35, 72
1, 286080, Note_on_c, 9, 57, 72
1, 286080, Note_on_c, 9, 44, 72
1, 286320, Note_off_c, 9, 35, 64
1, 286320, Note_off_c, 9, 57, 64
1, 286320, Note_off_c, 9, 44, 64
1, 286320, Note_on_c, 9, 35, 72
1, 286560, Note_off_c, 9, 35, 64
1, 286560, Note_on_c, 9, 38, 72
1, 286560, Note_on_c, 9, 57, 72
1, 286560, Note_on_c, 9, 44, 72
1, 286800, Note_off_c, 9, 38, 64
1, 286800, Note_off_c, 9, 57, 64
1, 286800, Note_off_c, 9, 44, 64
1, 286800, Note_on_c, 9, 35, 72
1, 287040, Note_off_c, 9, 35, 64
1, 287040, Note_on_c, 9, 35, 72
1, 287040, Note_on_c, 9, 57, 72
1, 287040, Note_on_c, 9, 44, 72
1, 287280, Note_off_c, 9, 35, 64
1, 287280, Note_off_c, 9, 57, 64
1, 287280, Note_off_c, 9, 44, 64
1, 287280, Note_on_c, 9, 35, 72
1, 287520, Note_off_c, 9, 35, 64
1, 287520, Note_on_c, 9, 38, 72
1, 287520, Note_on_c, 9, 57, 72
1, 287520, Note_on_c, 9, 44, 72
1, 287760, Note_off_c, 9, 38, 64
1, 287760, Note_off_c, 9, 57, 64
1, 287760, Note_off_c, 9, 44, 64
1, 287760, Note_on_c, 9, 35, 72
1, 288000, Note_off_c, 9, 35, 64
1, 288000, Note_on_c, 9, 35, 72
1, 288000, Note_on_c, 9, 44, 72
1, 288240, Note_off_c, 9, 35, 64
1, 288240, Note_off_c, 9, 44, 64
1, 288240, Note_on_c, 9, 35, 72
1, 288480, Note_off_c, 9, 35, 64
1, 288480, Note_on_c, 9, 38, 72
1, 288480, Note_on_c, 9, 44, 72
1, 288720, Note_off_c, 9, 38, 64
1, 288720, Note_off_c, 9, 44, 64
1, 288720, Note_on_c, 9, 35, 72
1, 288960, Note_off_c, 9, 35, 64
1, 288960, Note_on_c, 9, 35, 72
1, 288960, Note_on_c, 9, 44, 72
1, 289200, Note_off_c, 9, 35, 64
1, 289200, Note_off_c, 9, 44, 64
1, 289200, Note_on_c, 9, 35, 72
1, 289440, Note_off_c, 9, 35, 64
1, 289440, Note_on_c, 9, 38, 72
1, 289440, Note_on_c, 9, 44, 72
1, 289680, Note_off_c, 9, 38, 64
1, 289680, Note_off_c, 9, 44, 64
1, 289680, Note_on_c, 9, 35, 72
1, 289920, Note_off_c, 9, 35, 64
1, 289920, Note_on_c, 9, 35, 72
1, 289920, Note_on_c, 9, 44, 72
1, 290160, Note_off_c, 9, 35, 64
1, 290160, Note_off_c, 9, 44, 64
1, 290160, Note_on_c, 9, 35, 72
1, 290400, Note_off_c, 9, 35, 64
1, 290400, Note_on_c, 9, 38, 72
1, 290400, Note_on_c, 9, 44, 72
1, 290640, Note_off_c, 9, 38, 64
1, 290640, Note_off_c, 9, 44, 64
1, 290640, Note_on_c, 9, 35, 72
1, 290880, Note_off_c, 9, 35, 64
1, 290880, Note_on_c, 9, 35, 72
1, 290880, Note_on_c, 9, 44, 72
1, 291120, Note_off_c, 9, 35, 64
1, 291120, Note_off_c, 9, 44, 64
1, 291120, Note_on_c, 9, 35, 72
1, 291360, Note_off_c, 9, 35, 64
1, 291360, Note_on_c, 9, 38, 72
1, 291360, Note_on_c, 9, 44, 72
1, 291600, Note_off_c, 9, 38, 64
1, 291600, Note_off_c, 9, 44, 64
1, 291600, Note_on_c, 9, 35, 72
1, 291840, Note_off_c, 9, 35, 64
1, 291840, Note_on_c, 9, 35, 72
1, 291840, Note_on_c, 9, 57, 72
1, 291840, Note_on_c, 9, 44, 72
1, 292080, Note_off_c, 9, 35, 64
1, 292080, Note_off_c, 9, 57, 64
1, 292080, Note_off_c, 9, 44, 64
1, 292080, Note_on_c, 9, 35, 72
1, 292320, Note_off_c, 9, 35, 64
1, 292320, Note_on_c, 9, 38, 72
1, 292320, Note_on_c, 9, 57, 72
1, 292320, Note_on_c, 9, 44, 72
1, 292560, Note_off_c, 9, 38, 64
1, 292560, Note_off_c, 9, 57, 64
1, 292560, Note_off_c, 9, 44, 64
1, 292560, Note_on_c, 9, 35, 72
1, 292800, Note_off_c, 9, 35, 64
1, 292800, Note_on_c, 9, 35, 72
1, 292800, Note_on_c, 9, 57, 72
1, 292800, Note_on_c, 9, 44, 72
1, 293040, Note_off_c, 9, 35, 64
1, 293040, Note_off_c, 9, 57, 64
1, 293040, Note_off_c, 9, 44, 64
1, 293040, Note_on_c, 9, 35, 72
1, 293280, Note_off_c, 9, 35, 64
1, 293280, Note_on_c, 9, 38, 72
1, 293280, Note_on_c, 9, 57, 72
1, 293280, Note_on_c, 9, 44, 72
1, 293520, Note_off_c, 9, 38, 64
1, 293520, Note_off_c, 9, 57, 64
1, 293520, Note_off_c, 9, 44, 64
1, 293520, Note_on_c, 9, 35, 72
1, 293760, Note_off_c, 9, 35, 64
1, 293760, Note_on_c, 9, 35, 72
1, 293760, Note_on_c, 9, 57, 72
1, 293760, Note_on_c, 9, 44, 72
1, 294000, Note_off_c, 9, 35, 64
1, 294000, Note_off_c, 9, 57, 64
1, 294000, Note_off_c, 9, 44, 64
1, 294000, Note_on_c, 9, 35, 72
1, 294240, Note_off_c, 9, 35, 64
1, 294240, Note_on_c, 9, 38, 72
1, 294240, Note_on_c, 9, 57, 72
1, 294240, Note_on_c, 9, 44, 72
1, 294480, Note_off_c, 9, 38, 64
1, 294480, Note_off_c, 9, 57, 64
1, 294480, Note_off_c, 9, 44, 64
1, 294480, Note_on_c, 9, 35, 72
1, 294720, Note_off_c, 9, 35, 64
1, 294720, Note_on_c, 9, 35, 72
1, 294720, Note_on_c, 9, 57, 72
1, 294720, Note_on_c, 9, 44, 72
1, 294960, Note_off_c, 9, 35, 64
1, 294960, Note_off_c, 9, 57, 64
1, 294960, Note_off_c, 9, 44, 64
1, 294960, Note_on_c, 9, 35, 72
1, 295200, Note_off_c, 9, 35, 64
1, 295200, Note_on_c, 9, 38, 72
1, 295200, Note_on_c, 9, 57, 72
1, 295200, Note_on_c, 9, 44, 72
1, 295440, Note_off_c, 9, 38, 64
1, 295440, Note_off_c, 9, 57, 64
1, 295440, Note_off_c, 9, 44, 64
1, 295440, Note_on_c, 9, 35, 72
1, 295680, Note_off_c, 9, 35, 64
1, 295680, Note_on_c, 9, 35, 72
1, 295680, Note_on_c, 9, 44, 72
1, 295920, Note_off_c, 9, 35, 64
1, 295920, Note_off_c, 9, 44, 64
1, 295920, Note_on_c, 9, 35, 72
1, 296160, Note_off_c, 9, 35, 64
1, 296160, Note_on_c, 9, 38, 72
1, 296160, Note_on_c, 9, 44, 72
1, 296400, Note_off_c, 9, 38, 64
1, 296400, Note_off_c, 9, 44, 64
1, 296400, Note_on_c, 9, 35, 72
1, 296640, Note_off_c, 9, 35, 64
1, 296640, Note_on_c, 9, 35, 72
1, 296640, Note_on_c, 9, 44, 72
1, 296880, Note_off_c, 9, 35, 64
1, 296880, Note_off_c, 9, 44, 64
1, 296880, Note_on_c, 9, 35, 72
1, 297120, Note_off_c, 9, 35, 64
1, 297120, Note_on_c, 9, 38, 72
1, 297120, Note_on_c, 9, 44, 72
1, 297360, Note_off_c, 9, 38, 64
1, 297360, Note_off_c, 9, 44, 64
1, 297360, Note_on_c, 9, 35, 72
1, 297600, Note_off_c, 9, 35, 64
1, 297600, Note_on_c, 9, 35, 72
1, 297600, Note_on_c, 9, 44, 72
1, 297840, Note_off_c, 9, 35, 64
1, 297840, Note_off_c, 9, 44, 64
1, 297840, Note_on_c, 9, 35, 72
1, 298080, Note_off_c, 9, 35, 64
1, 298080, Note_on_c, 9, 38, 72
1, 298080, Note_on_c, 9, 44, 72
1, 298320, Note_off_c, 9, 38, 64
1, 298320, Note_off_c, 9, 44, 64
1, 298320, Note_on_c, 9, 35, 72
1, 298560, Note_off_c, 9, 35, 64
1, 298560, Note_on_c, 9, 35, 72
1, 298560, Note_on_c, 9, 44, 72
1, 298800, Note_off_c, 9, 35, 64
1, 298800, Note_off_c, 9, 44, 64
1, 298800, Note_on_c, 9, 35, 72
1, 299040, Note_off_c, 9, 35, 64
1, 299040, Note_on_c, 9, 38, 72
1, 299040, Note_on_c, 9, 44, 72
1, 299280, Note_off_c, 9, 38, 64
1, 299280, Note_off_c, 9, 44, 64
1, 299280, Note_on_c, 9, 35, 72
1, 299520, Note_off_c, 9, 35, 64
1, 299520, Note_on_c, 9, 35, 72
1, 299520, Note_on_c, 9, 57, 72
1, 299520, Note_on_c, 9, 44, 72
1, 299760, Note_off_c, 9, 35, 64
1, 299760, Note_off_c, 9, 57, 64
1, 299760, Note_off_c, 9, 44, 64
1, 299760, Note_on_c, 9, 35, 72
1, 300000, Note_off_c, 9, 35, 64
1, 300000, Note_on_c, 9, 38, 72
1, 300000, Note_on_c, 9, 57, 72
1, 300000, Note_on_c, 9, 44, 72
1, 300240, Note_off_c, 9, 38, 64
1, 300240, Note_off_c, 9, 57, 64
1, 300240, Note_off_c, 9, 44, 64
1, 300240, Note_on_c, 9, 35, 72
1, 300480, Note_off_c, 9, 35, 64
1, 300480, Note_on_c, 9, 35, 72
1, 300480, Note_on_c, 9, 57, 72
1, 300480, Note_on_c, 9, 44, 72
1, 300720, Note_off_c, 9, 35, 64
1, 300720, Note_off_c, 9, 57, 64
1, 300720, Note_off_c, 9, 44, 64
1, 300720, Note_on_c, 9, 35, 72
1, 300960, Note_off_c, 9, 35, 64
1, 300960, Note_on_c, 9, 38, 72
1, 300960, Note_on_c, 9, 57, 72
1, 300960, Note_on_c, 9, 44, 72
1, 301200, Note_off_c, 9, 38, 64
1, 301200, Note_off_c, 9, 57, 64
1, 301200, Note_off_c, 9, 44, 64
1, 301200, Note_on_c, 9, 35, 72
1, 301440, Note_off_c, 9, 35, 64
1, 301440, Note_on_c, 9, 35, 72
1, 301440, Note_on_c, 9, 57, 72
1, 301440, Note_on_c, 9, 44, 72
1, 301680, Note_off_c, 9, 35, 64
1, 301680, Note_off_c, 9, 57, 64
1, 301680, Note_off_c, 9, 44, 64
1, 301680, Note_on_c, 9, 35, 72
1, 301920, Note_off_c, 9, 35, 64
1, 301920, Note_on_c, 9, 38, 72
1, 301920, Note_on_c, 9, 57, 72
1, 301920, Note_on_c, 9, 44, 72
1, 302160, Note_off_c, 9, 38, 64
1, 302160, Note_off_c, 9, 57, 64
1, 302160, Note_off_c, 9, 44, 64
1, 302160, Note_on_c, 9, 35, 72
1, 302400, Note_off_c, 9, 35, 64
1, 302400, Note_on_c, 9, 35, 72
1, 302400, Note_on_c, 9, 57, 72
1, 302400, Note_on_c, 9, 44, 72
1, 302640, Note_off_c, 9, 35, 64
1, 302640, Note_off_c, 9, 57, 64
1, 302640, Note_off_c, 9, 44, 64
1, 302640, Note_on_c, 9, 35, 72
1, 302880, Note_off_c, 9, 35, 64
1, 302880, Note_on_c, 9, 38, 72
1, 302880, Note_on_c, 9, 57, 72
1, 302880, Note_on_c, 9, 44, 72
1, 303120, Note_off_c, 9, 38, 64
1, 303120, Note_off_c, 9, 57, 64
1, 303120, Note_off_c, 9, 44, 64
1, 303120, Note_on_c, 9, 35, 72
1, 303360, Note_off_c, 9, 35, 64
1, 303360, Note_on_c, 9, 35, 72
1, 303360, Note_on_c, 9, 44, 72
1, 303600, Note_off_c, 9, 35, 64
1, 303600, Note_off_c, 9, 44, 64
1, 303600, Note_on_c, 9, 35, 72
1, 303840, Note_off_c, 9, 35, 64
1, 303840, Note_on_c, 9, 38, 72
1, 303840, Note_on_c, 9, 44, 72
1, 304080, Note_off_c, 9, 38, 64
1, 304080, Note_off_c, 9, 44, 64
1, 304080, Note_on_c, 9, 35, 72
1, 304320, Note_off_c, 9, 35, 64
1, 304320, Note_on_c, 9, 35, 72
1, 304320, Note_on_c, 9, 44, 72
1, 304560, Note_off_c, 9, 35, 64
1, 304560, Note_off_c, 9, 44, 64
1, 304560, Note_on_c, 9, 35, 72
1, 304800, Note_off_c, 9, 35, 64
1, 304800, Note_on_c, 9, 38, 72
1, 304800, Note_on_c, 9, 44, 72
1, 305040, Note_off_c, 9, 38, 64
1, 305040, Note_off_c, 9, 44, 64
1, 305040, Note_on_c, 9, 35, 72
1, 305280, Note_off_c, 9, 35, 64
1, 305280, Note_on_c, 9, 35, 72
1, 305280, Note_on_c, 9, 44, 72
1, 305520, Note_off_c, 9, 35, 64
1, 305520, Note_off_c, 9, 44, 64
1, 305520, Note_on_c, 9, 35, 72
1, 305760, Note_off_c, 9, 35, 64
1, 305760, Note_on_c, 9, 38, 72
1, 305760, Note_on_c, 9, 44, 72
1, 306000, Note_off_c, 9, 38, 64
1, 306000, Note_off_c, 9, 44, 64
1, 306000, Note_on_c, 9, 35, 72
1, 306240, Note_off_c, 9, 35, 64
1, 306240, Note_on_c, 9, 35, 72
1, 306240, Note_on_c, 9, 44, 72
1, 306480, Note_off_c, 9, 35, 64
1, 306480, Note_off_c, 9, 44, 64
1, 306480, Note_on_c, 9, 35, 72
1, 306720, Note_off_c, 9, 35, 64
1, 306720, Note_on_c, 9, 38, 72
1, 306720, Note_on_c, 9, 44, 72
1, 306960, Note_off_c, 9, 38, 64
1, 306960, Note_off_c, 9, 44, 64
1, 306960, Note_on_c, 9, 35, 72
1, 307200, Note_off_c, 9, 35, 64
1, 307200, Note_on_c, 9, 35, 72
1, 307200, Note_on_c, 9, 57, 72
1, 307200, Note_on_c, 9, 44, 72
1, 307440, Note_off_c, 9, 35, 64
1, 307440, Note_off_c, 9, 57, 64
1, 307440, Note_off_c, 9, 44, 64
1, 307440, Note_on_c, 9, 35, 72
1, 307680, Note_off_c, 9, 35, 64
1, 307680, Note_on_c, 9, 38, 72
1, 307680, Note_on_c, 9, 57, 72
1, 307680, Note_on_c, 9, 44, 72
1, 307920, Note_off_c, 9, 38, 64
1, 307920, Note_off_c, 9, 57, 64
1, 307920, Note_off_c, 9, 44, 64
1, 307920, Note_on_c, 9, 35, 72
1, 308160, Note_off_c, 9, 35, 64
1, 308160, Note_on_c, 9, 35, 72
1, 308160, Note_on_c, 9, 57, 72
1, 308160, Note_on_c, 9, 44, 72
1, 308400, Note_off_c, 9, 35, 64
1, 308400, Note_off_c, 9, 57, 64
1, 308400, Note_off_c, 9, 44, 64
1, 308400, Note_on_c, 9, 35, 72
1, 308640, Note_off_c, 9, 35, 64
1, 308640, Note_on_c, 9, 38, 72
1, 308640, Note_on_c, 9, 57, 72
1, 308640, Note_on_c, 9, 44, 72
1, 308880, Note_off_c, 9, 38, 64
1, 308880, Note_off_c, 9, 57, 64
1, 308880, Note_off_c, 9, 44, 64
1, 308880, Note_on_c, 9, 35, 72
1, 309120, Note_off_c, 9, 35, 64
1, 309120, Note_on_c, 9, 35, 72
1, 309120, Note_on_c, 9, 57, 72
1, 309120, Note_on_c, 9, 44, 72
1, 309360, Note_off_c, 9, 35, 64
1, 309360, Note_off_c, 9, 57, 64
1, 309360, Note_off_c, 9, 44, 64
1, 309360, Note_on_c, 9, 35, 72
1, 309600, Note_off_c, 9, 35, 64
1, 309600, Note_on_c, 9, 38, 72
1, 309600, Note_on_c, 9, 57, 72
1, 309600, Note_on_c, 9, 44, 72
1, 309840, Note_off_c, 9, 38, 64
1, 309840, Note_off_c, 9, 57, 64
1, 309840, Note_off_c, 9, 44, 64
1, 309840, Note_on_c, 9, 35, 72
1, 310080, Note_off_c, 9, 35, 64
1, 310080, Note_on_c, 9, 35, 72
1, 310080, Note_on_c, 9, 57, 72
1, 310080, Note_on_c, 9, 44, 72
1, 310320, Note_off_c, 9, 35, 64
1, 310320, Note_off_c, 9, 57, 64
1, 310320, Note_off_c, 9, 44, 64
1, 310320, Note_on_c, 9, 35, 72
1, 310560, Note_off_c, 9, 35, 64
1, 310560, Note_on_c, 9, 38, 72
1, 310560, Note_on_c, 9, 57, 72
1, 310560, Note_on_c, 9, 44, 72
1, 310800, Note_off_c, 9, 38, 64
1, 310800, Note_off_c, 9, 57, 64
1, 310800, Note_off_c, 9, 44, 64
1, 310800, Note_on_c, 9, 35, 72
1, 311040, Note_off_c, 9, 35, 64
1, 311040, Note_on_c, 9, 35, 72
1, 311040, Note_on_c, 9, 44, 72
1, 311280, Note_off_c, 9, 35, 64
1, 311280, Note_off_c, 9, 44, 64
1, 311280, Note_on_c, 9, 35, 72
1, 311520, Note_off_c, 9, 35, 64
1, 311520, Note_on_c, 9, 38, 72
1, 311520, Note_on_c, 9, 44, 72
1, 311760, Note_off_c, 9, 38, 64
1, 311760, Note_off_c, 9, 44, 64
1, 311760, Note_on_c, 9, 35, 72
1, 312000, Note_off_c, 9, 35, 64
1, 312000, Note_on_c, 9, 35, 72
1, 312000, Note_on_c, 9, 44, 72
1, 312240, Note_off_c, 9, 35, 64
1, 312240, Note_off_c, 9, 44, 64
1, 312240, Note_on_c, 9, 35, 72
1, 312480, Note_off_c, 9, 35, 64
1, 312480, Note_on_c, 9, 38, 72
1, 312480, Note_on_c, 9, 44, 72
1, 312720, Note_off_c, 9, 38, 64
1, 312720, Note_off_c, 9, 44, 64
1, 312720, Note_on_c, 9, 35, 72
1, 312960, Note_off_c, 9, 35, 64
1, 312960, Note_on_c, 9, 35, 72
1, 312960, Note_on_c, 9, 44, 72
1, 313200, Note_off_c, 9, 35, 64
1, 313200, Note_off_c, 9, 44, 64
1, 313200, Note_on_c, 9, 35, 72
1, 313440, Note_off_c, 9, 35, 64
1, 313440, Note_on_c, 9, 38, 72
1, 313440, Note_on_c, 9, 44, 72
1, 313680, Note_off_c, 9, 38, 64
1, 313680, Note_off_c, 9, 44, 64
1, 313680, Note_on_c, 9, 35, 72
1, 313920, Note_off_c, 9, 35, 64
1, 313920, Note_on_c, 9, 35, 72
1, 313920, Note_on_c, 9, 44, 72
1, 314160, Note_off_c, 9, 35, 64
1, 314160, Note_off_c, 9, 44, 64
1, 314160, Note_on_c, 9, 35, 72
1, 314400, Note_off_c, 9, 35, 64
1, 314400, Note_on_c, 9, 38, 72
1, 314400, Note_on_c, 9, 44, 72
1, 314640, Note_off_c, 9, 38, 64
1, 314640, Note_off_c, 9, 44, 64
1, 314640, Note_on_c, 9, 35, 72
1, 314880, Note_off_c, 9, 35, 64
1, 314880, Note_on_c, 9, 35, 72
1, 314880, Note_on_c, 9, 57, 72
1, 314880, Note_on_c, 9, 44, 72
1, 315120, Note_off_c, 9, 35, 64
1, 315120, Note_off_c, 9, 57, 64
1, 315120, Note_off_c, 9, 44, 64
1, 315120, Note_on_c, 9, 35, 72
1, 315360, Note_off_c, 9, 35, 64
1, 315360, Note_on_c, 9, 38, 72
1, 315360, Note_on_c, 9, 57, 72
1, 315360, Note_on_c, 9, 44, 72
1, 315600, Note_off_c, 9, 38, 64
1, 315600, Note_off_c, 9, 57, 64
1, 315600, Note_off_c, 9, 44, 64
1, 315600, Note_on_c, 9, 35, 72
1, 315840, Note_off_c, 9, 35, 64
1, 315840, Note_on_c, 9, 35, 72
1, 315840, Note_on_c, 9, 57, 72
1, 315840, Note_on_c, 9, 44, 72
1, 316080, Note_off_c, 9, 35, 64
1, 316080, Note_off_c, 9, 57, 64
1, 316080, Note_off_c, 9, 44, 64
1, 316080, Note_on_c, 9, 35, 72
1, 316320, Note_off_c, 9, 35, 64
1, 316320, Note_on_c, 9, 38, 72
1, 316320, Note_on_c, 9, 57, 72
1, 316320, Note_on_c, 9, 44, 72
1, 316560, Note_off_c, 9, 38, 64
1, 316560, Note_off_c, 9, 57, 64
1, 316560, Note_off_c, 9, 44, 64
1, 316560, Note_on_c, 9, 35, 72
1, 316800, Note_off_c, 9, 35, 64
1, 316800, Note_on_c, 9, 35, 72
1, 316800, Note_on_c, 9, 57, 72
1, 316800, Note_on_c, 9, 44, 72
1, 317040, Note_off_c, 9, 35, 64
1, 317040, Note_off_c, 9, 57, 64
1, 317040, Note_off_c, 9, 44, 64
1, 317040, Note_on_c, 9, 35, 72
1, 317280, Note_off_c, 9, 35, 64
1, 317280, Note_on_c, 9, 38, 72
1, 317280, Note_on_c, 9, 57, 72
1, 317280, Note_on_c, 9, 44, 72
1, 317520, Note_off_c, 9, 38, 64
1, 317520, Note_off_c, 9, 57, 64
1, 317520, Note_off_c, 9, 44, 64
1, 317520, Note_on_c, 9, 35, 72
1, 317760, Note_off_c, 9, 35, 64
1, 317760, Note_on_c, 9, 35, 72
1, 317760, Note_on_c, 9, 57, 72
1, 317760, Note_on_c, 9, 44, 72
1, 318000, Note_off_c, 9, 35, 64
1, 318000, Note_off_c, 9, 57, 64
1, 318000, Note_off_c, 9, 44, 64
1, 318000, Note_on_c, 9, 35, 72
1, 318240, Note_off_c, 9, 35, 64
1, 318240, Note_on_c, 9, 38, 72
1, 318240, Note_on_c, 9, 57, 72
1, 318240, Note_on_c, 9, 44, 72
1, 318480, Note_off_c, 9, 38, 64
1, 318480, Note_off_c, 9, 57, 64
1, 318480, Note_off_c, 9, 44, 64
1, 318480, Note_on_c, 9, 35, 72
1, 318720, Note_off_c, 9, 35, 64
1, 318720, Note_on_c, 9, 35, 72
1, 318720, Note_on_c, 9, 44, 72
1, 318960, Note_off_c, 9, 35, 64
1, 318960, Note_off_c, 9, 44, 64
1, 318960, Note_on_c, 9, 35, 72
1, 319200, Note_off_c, 9, 35, 64
1, 319200, Note_on_c, 9, 38, 72
1, 319200, Note_on_c, 9, 44, 72
1, 319440, Note_off_c, 9, 38, 64
1, 319440, Note_off_c, 9, 44, 64
1, 319440, Note_on_c, 9, 35, 72
1, 319680, Note_off_c, 9, 35, 64
1, 319680, Note_on_c, 9, 35, 72
1, 319680, Note_on_c, 9, 44, 72
1, 319920, Note_off_c, 9, 35, 64
1, 319920, Note_off_c, 9, 44, 64
1, 319920, Note_on_c, 9, 35, 72
1, 320160, Note_off_c, 9, 35, 64
1, 320160, Note_on_c, 9, 38, 72
1, 320160, Note_on_c, 9, 44, 72
1, 320400, Note_off_c, 9, 38, 64
1, 320400, Note_off_c, 9, 44, 64
1, 320400, Note_on_c, 9, 35, 72
1, 320640, Note_off_c, 9, 35, 64
1, 320640, Note_on_c, 9, 35, 72
1, 320640, Note_on_c, 9, 44, 72
1, 320880, Note_off_c, 9, 35, 64
1, 320880, Note_off_c, 9, 44, 64
1, 320880, Note_on_c, 9, 35, 72
1, 321120, Note_off_c, 9, 35, 64
1, 321120, Note_on_c, 9, 38, 72
1, 321120, Note_on_c, 9, 44, 72
1, 321360, Note_off_c, 9, 38, 64
1, 321360, Note_off_c, 9, 44, 64
1, 321360, Note_on_c, 9, 35, 72
1, 321600, Note_off_c, 9, 35, 64
1, 321600, Note_on_c, 9, 35, 72
1, 321600, Note_on_c, 9, 44, 72
1, 321840, Note_off_c, 9, 35, 64
1, 321840, Note_off_c, 9, 44, 64
1, 321840, Note_on_c, 9, 35, 72
1, 322080, Note_off_c, 9, 35, 64
1, 322080, Note_on_c, 9, 38, 72
1, 322080, Note_on_c, 9, 44, 72
1, 322320, Note_off_c, 9, 38, 64
1, 322320, Note_off_c, 9, 44, 64
1, 322320, Note_on_c, 9, 35, 72
1, 322560, Note_off_c, 9, 35, 64
1, 322560, Note_on_c, 9, 35, 72
1, 322560, Note_on_c, 9, 57, 72
1, 322560, Note_on_c, 9, 44, 72
1, 322800, Note_off_c, 9, 35, 64
1, 322800, Note_off_c, 9, 57, 64
1, 322800, Note_off_c, 9, 44, 64
1, 322800, Note_on_c, 9, 35, 72
1, 323040, Note_off_c, 9, 35, 64
1, 323040, Note_on_c, 9, 38, 72
1, 323040, Note_on_c, 9, 57, 72
1, 323040, Note_on_c, 9, 44, 72
1, 323280, Note_off_c, 9, 38, 64
1, 323280, Note_off_c, 9, 57, 64
1, 323280, Note_off_c, 9, 44, 64
1, 323280, Note_on_c, 9, 35, 72
1, 323520, Note_off_c, 9, 35, 64
1, 323520, Note_on_c, 9, 35, 72
1, 323520, Note_on_c, 9, 57, 72
1, 323520, Note_on_c, 9, 44, 72
1, 323760, Note_off_c, 9, 35, 64
1, 323760, Note_off_c, 9, 57, 64
1, 323760, Note_off_c, 9, 44, 64
1, 323760, Note_on_c, 9, 35, 72
1, 324000, Note_off_c, 9, 35, 64
1, 324000, Note_on_c, 9, 38, 72
1, 324000, Note_on_c, 9, 57, 72
1, 324000, Note_on_c, 9, 44, 72
1, 324240, Note_off_c, 9, 38, 64
1, 324240, Note_off_c, 9, 57, 64
1, 324240, Note_off_c, 9, 44, 64
1, 324240, Note_on_c, 9, 35, 72
1, 324480, Note_off_c, 9, 35, 64
1, 324480, Note_on_c, 9, 35, 72
1, 324480, Note_on_c, 9, 57, 72
1, 324480, Note_on_c, 9, 44, 72
1, 324720, Note_off_c, 9, 35, 64
1, 324720, Note_off_c, 9, 57, 64
1, 324720, Note_off_c, 9, 44, 64
1, 324720, Note_on_c, 9, 35, 72
1, 324960, Note_off_c, 9, 35, 64
1, 324960, Note_on_c, 9, 38, 72
1, 324960, Note_on_c, 9, 57, 72
1, 324960, Note_on_c, 9, 44, 72
1, 325200, Note_off_c, 9, 38, 64
1, 325200, Note_off_c, 9, 57, 64
1, 325200, Note_off_c, 9, 44, 64
1, 325200, Note_on_c, 9, 35, 72
1, 325440, Note_off_c, 9, 35, 64
1, 325440, Note_on_c, 9, 35, 72
1, 325440, Note_on_c, 9, 57, 72
1, 325440, Note_on_c, 9, 44, 72
1, 325680, Note_off_c, 9, 35, 64
1, 325680, Note_off_c, 9, 57, 64
1, 325680, Note_off_c, 9, 44, 64
1, 325680, Note_on_c, 9, 35, 72
1, 325920, Note_off_c, 9, 35, 64
1, 325920, Note_on_c, 9, 38, 72
1, 325920, Note_on_c, 9, 57, 72
1, 325920, Note_on_c, 9, 44, 72
1, 326160, Note_off_c, 9, 38, 64
1, 326160, Note_off_c, 9, 57, 64
1, 326160, Note_off_c, 9, 44, 64
1, 326160, Note_on_c, 9, 35, 72
1, 326400, Note_off_c, 9, 35, 64
1, 326400, Note_on_c, 9, 35, 72
1, 326400, Note_on_c, 9, 44, 72
1, 326640, Note_off_c, 9, 35, 64
1, 326640, Note_off_c, 9, 44, 64
1, 326640, Note_on_c, 9, 35, 72
1, 326880, Note_off_c, 9, 35, 64
1, 326880, Note_on_c, 9, 38, 72
1, 326880, Note_on_c, 9, 44, 72
1, 327120, Note_off_c, 9, 38, 64
1, 327120, Note_off_c, 9, 44, 64
1, 327120, Note_on_c, 9, 35, 72
1, 327360, Note_off_c, 9, 35, 64
1, 327360, Note_on_c, 9, 35, 72
1, 327360, Note_on_c, 9, 44, 72
1, 327600, Note_off_c, 9, 35, 64
1, 327600, Note_off_c, 9, 44, 64
1, 327600, Note_on_c, 9, 35, 72
1, 327840, Note_off_c, 9, 35, 64
1, 327840, Note_on_c, 9, 38, 72
1, 327840, Note_on_c, 9, 44, 72
1, 328080, Note_off_c, 9, 38, 64
1, 328080, Note_off_c, 9, 44, 64
1, 328080, Note_on_c, 9, 35, 72
1, 328320, Note_off_c, 9, 35, 64
1, 328320, Note_on_c, 9, 35, 72
1, 328320, Note_on_c, 9, 44, 72
1, 328560, Note_off_c, 9, 35, 64
1, 328560, Note_off_c, 9, 44, 64
1, 328560, Note_on_c, 9, 35, 72
1, 328800, Note_off_c, 9, 35, 64
1, 328800, Note_on_c, 9, 38, 72
1, 328800, Note_on_c, 9, 44, 72
1, 329040, Note_off_c, 9, 38, 64
1, 329040, Note_off_c, 9, 44, 64
1, 329040, Note_on_c, 9, 35, 72
1, 329280, Note_off_c, 9, 35, 64
1, 329280, Note_on_c, 9, 35, 72
1, 329280, Note_on_c, 9, 44, 72
1, 329520, Note_off_c, 9, 35, 64
1, 329520, Note_off_c, 9, 44, 64
1, 329520, Note_on_c, 9, 35, 72
1, 329760, Note_off_c, 9, 35, 64
1, 329760, Note_on_c, 9, 38, 72
1, 329760, Note_on_c, 9, 44, 72
1, 330000, Note_off_c, 9, 38, 64
1, 330000, Note_off_c, 9, 44, 64
1, 330000, Note_on_c, 9, 35, 72
1, 330240, Note_off_c, 9, 35, 64
1, 330240, Note_on_c, 9, 35, 72
1, 330240, Note_on_c, 9, 57, 72
1, 330240, Note_on_c, 9, 44, 72
1, 330480, Note_off_c, 9, 35, 64
1, 330480, Note_off_c, 9, 57, 64
1, 330480, Note_off_c, 9, 44, 64
1, 330480, Note_on_c, 9, 35, 72
1, 330720, Note_off_c, 9, 35, 64
1, 330720, Note_on_c, 9, 38, 72
1, 330720, Note_on_c, 9, 57, 72
1, 330720, Note_on_c, 9, 44, 72
1, 330960, Note_off_c, 9, 38, 64
1, 330960, Note_off_c, 9, 57, 64
1, 330960, Note_off_c, 9, 44, 64
1, 330960, Note_on_c, 9, 35, 72
1, 331200, Note_off_c, 9, 35, 64
1, 331200, Note_on_c, 9, 35, 72
1, 331200, Note_on_c, 9, 57, 72
1, 331200, Note_on_c, 9, 44, 72
1, 331440, Note_off_c, 9, 35, 64
1, 331440, Note_off_c, 9, 57, 64
1, 331440, Note_off_c, 9, 44, 64
1, 331440, Note_on_c, 9, 35, 72
1, 331680, Note_off_c, 9, 35, 64
1, 331680, Note_on_c, 9, 38, 72
1, 331680, Note_on_c, 9, 57, 72
1, 331680, Note_on_c, 9, 44, 72
1, 331920, Note_off_c, 9, 38, 64
1, 331920, Note_off_c, 9, 57, 64
1, 331920, Note_off_c, 9, 44, 64
1, 331920, Note_on_c, 9, 35, 72
1, 332160, Note_off_c, 9, 35, 64
1, 332160, Note_on_c, 9, 35, 72
1, 332160, Note_on_c, 9, 57, 72
1, 332160, Note_on_c, 9, 44, 72
1, 332400, Note_off_c, 9, 35, 64
1, 332400, Note_off_c, 9, 57, 64
1, 332400, Note_off_c, 9, 44, 64
1, 332400, Note_on_c, 9, 35, 72
1, 332640, Note_off_c, 9, 35, 64
1, 332640, Note_on_c, 9, 38, 72
1, 332640, Note_on_c, 9, 57, 72
1, 332640, Note_on_c, 9, 44, 72
1, 332880, Note_off_c, 9, 38, 64
1, 332880, Note_off_c, 9, 57, 64
1, 332880, Note_off_c, 9, 44, 64
1, 332880, Note_on_c, 9, 35, 72
1, 333120, Note_off_c, 9, 35, 64
1, 333120, Note_on_c, 9, 35, 72
1, 333120, Note_on_c, 9, 57, 72
1, 333120, Note_on_c, 9, 44, 72
1, 333360, Note_off_c, 9, 35, 64
1, 333360, Note_off_c, 9, 57, 64
1, 333360, Note_off_c, 9, 44, 64
1, 333360, Note_on_c, 9, 35, 72
1, 333600, Note_off_c, 9, 35, 64
1, 333600, Note_on_c, 9, 38, 72
1, 333600, Note_on_c, 9, 57, 72
1, 333600, Note_on_c, 9, 44, 72
1, 333840, Note_off_c, 9, 38, 64
1, 333840, Note_off_c, 9, 57, 64
1, 333840, Note_off_c, 9, 44, 64
1, 333840, Note_on_c, 9, 35, 72
1, 334080, Note_off_c, 9, 35, 64
1, 334080, Note_on_c, 9, 35, 72
1, 334080, Note_on_c, 9, 44, 72
1, 334320, Note_off_c, 9, 35, 64
1, 334320, Note_off_c, 9, 44, 64
1, 334320, Note_on_c, 9, 35, 72
1, 334560, Note_off_c, 9, 35, 64
1, 334560, Note_on_c, 9, 38, 72
1, 334560, Note_on_c, 9, 44, 72
1, 334800, Note_off_c, 9, 38, 64
1, 334800, Note_off_c, 9, 44, 64
1, 334800, Note_on_c, 9, 35, 72
1, 335040, Note_off_c, 9, 35, 64
1, 335040, Note_on_c, 9, 35, 72
1, 335040, Note_on_c, 9, 44, 72
1, 335280, Note_off_c, 9, 35, 64
1, 335280, Note_off_c, 9, 44, 64
1, 335280, Note_on_c, 9, 35, 72
1, 335520, Note_off_c, 9, 35, 64
1, 335520, Note_on_c, 9, 38, 72
1, 335520, Note_on_c, 9, 44, 72
1, 335760, Note_off_c, 9, 38, 64
1, 335760, Note_off_c, 9, 44, 64
1, 335760, Note_on_c, 9, 35, 72
1, 336000, Note_off_c, 9, 35, 64
1, 336000, Note_on_c, 9, 35, 72
1, 336000, Note_on_c, 9, 44, 72
1, 336240, Note_off_c, 9, 35, 64
1, 336240, Note_off_c, 9, 44, 64
1, 336240, Note_on_c, 9, 35, 72
1, 336480, Note_off_c, 9, 35, 64
1, 336480, Note_on_c, 9, 38, 72
1, 336480, Note_on_c, 9, 44, 72
1, 336720, Note_off_c, 9, 38, 64
1, 336720, Note_off_c, 9, 44, 64
1, 336720, Note_on_c, 9, 35, 72
1, 336960, Note_off_c, 9, 35, 64
1, 336960, Note_on_c, 9, 35, 72
1, 336960, Note_on_c, 9, 44, 72
1, 337200, Note_off_c, 9, 35, 64
1, 337200, Note_off_c, 9, 44, 64
1, 337200, Note_on_c, 9, 35, 72
1, 337440, Note_off_c, 9, 35, 64
1, 337440, Note_on_c, 9, 38, 72
1, 337440, Note_on_c, 9, 44, 72
1, 337680, Note_off_c, 9, 38, 64
1, 337680, Note_off_c, 9, 44, 64
1, 337680, Note_on_c, 9, 35, 72
1, 337920, Note_off_c, 9, 35, 64
1, 337920, Note_on_c, 9, 35, 72
1, 337920, Note_on_c, 9, 57, 72
1, 337920, Note_on_c, 9, 44, 72
1, 338160, Note_off_c, 9, 35, 64
1, 338160, Note_off_c, 9, 57, 64
1, 338160, Note_off_c, 9, 44, 64
1, 338160, Note_on_c, 9, 35, 72
1, 338400, Note_off_c, 9, 35, 64
1, 338400, Note_on_c, 9, 38, 72
1, 338400, Note_on_c, 9, 57, 72
1, 338400, Note_on_c, 9, 44, 72
1, 338640, Note_off_c, 9, 38, 64
1, 338640, Note_off_c, 9, 57, 64
1, 338640, Note_off_c, 9, 44, 64
1, 338640, Note_on_c, 9, 35, 72
1, 338880, Note_off_c, 9, 35, 64
1, 338880, Note_on_c, 9, 35, 72
1, 338880, Note_on_c, 9, 57, 72
1, 338880, Note_on_c, 9, 44, 72
1, 339120, Note_off_c, 9, 35, 64
1, 339120, Note_off_c, 9, 57, 64
1, 339120, Note_off_c, 9, 44, 64
1, 339120, Note_on_c, 9, 35, 72
1, 339360, Note_off_c, 9, 35, 64
1, 339360, Note_on_c, 9, 38, 72
1, 339360, Note_on_c, 9, 57, 72
1, 339360, Note_on_c, 9, 44, 72
1, 339600, Note_off_c, 9, 38, 64
1, 339600, Note_off_c, 9, 57, 64
1, 339600, Note_off_c, 9, 44, 64
1, 339600, Note_on_c, 9, 35, 72
1, 339840, Note_off_c, 9, 35, 64
1, 339840, Note_on_c, 9, 35, 72
1, 339840, Note_on_c, 9, 57, 72
1, 339840, Note_on_c, 9, 44, 72
1, 340080, Note_off_c, 9, 35, 64
1, 340080, Note_off_c, 9, 57, 64
1, 340080, Note_off_c, 9, 44, 64
1, 340080, Note_on_c, 9, 35, 72
1, 340320, Note_off_c, 9, 35, 64
1, 340320, Note_on_c, 9, 38, 72
1, 340320, Note_on_c, 9, 57, 72
1, 340320, Note_on_c, 9, 44, 72
1, 340560, Note_off_c, 9, 38, 64
1, 340560, Note_off_c, 9, 57, 64
1, 340560, Note_off_c, 9, 44, 64
1, 340560, Note_on_c, 9, 35, 72
1, 340800, Note_off_c, 9, 35, 64
1, 340800, Note_on_c, 9, 35, 72
1, 340800, Note_on_c, 9, 57, 72
1, 340800, Note_on_c, 9, 44, 72
1, 341040, Note_off_c, 9, 35, 64
1, 341040, Note_off_c, 9, 57, 64
1, 341040, Note_off_c, 9, 44, 64
1, 341040, Note_on_c, 9, 35, 72
1, 341280, Note_off_c, 9, 35, 64
1, 341280, Note_on_c, 9, 38, 72
1, 341280, Note_on_c, 9, 57, 72
1, 341280, Note_on_c, 9, 44, 72
1, 341520, Note_off_c, 9, 38, 64
1, 341520, Note_off_c, 9, 57, 64
1, 341520, Note_off_c, 9, 44, 64
1, 341520, Note_on_c, 9, 35, 72
1, 341760, Note_off_c, 9, 35, 64
1, 341760, Note_on_c, 9, 35, 72
1, 341760, Note_on_c, 9, 44, 72
1, 342000, Note_off_c, 9, 35, 64
1, 342000, Note_off_c, 9, 44, 64
1, 342000, Note_on_c, 9, 35, 72
1, 342240, Note_off_c, 9, 35, 64
1, 342240, Note_on_c, 9, 38, 72
1, 342240, Note_on_c, 9, 44, 72
1, 342480, Note_off_c, 9, 38, 64
1, 342480, Note_off_c, 9, 44, 64
1, 342480, Note_on_c, 9, 35, 72
1, 342720, Note_off_c, 9, 35, 64
1, 342720, Note_on_c, 9, 35, 72
1, 342720, Note_on_c, 9, 44, 72
1, 342960, Note_off_c, 9, 35, 64
1, 342960, Note_off_c, 9, 44, 64
1, 342960, Note_on_c, 9, 35, 72
1, 343200, Note_off_c, 9, 35, 64
1, 343200, Note_on_c, 9, 38, 72
1, 343200, Note_on_c, 9, 44, 72
1, 343440, Note_off_c, 9, 38, 64
1, 343440, Note_off_c, 9, 44, 64
1, 343440, Note_on_c, 9, 35, 72
1, 343680, Note_off_c, 9, 35, 64
1, 343680, Note_on_c, 9, 35, 72
1, 343680, Note_on_c, 9, 44, 72
1, 343920, Note_off_c, 9, 35, 64
1, 343920, Note_off_c, 9, 44, 64
1, 343920, Note_on_c, 9, 35, 72
1, 344160, Note_off_c, 9, 35, 64
1, 344160, Note_on_c, 9, 38, 72
1, 344160, Note_on_c, 9, 44, 72
1, 344400, Note_off_c, 9, 38, 64
1, 344400, Note_off_c, 9, 44, 64
1, 344400, Note_on_c, 9, 35, 72
1, 344640, Note_off_c, 9, 35, 64
1, 344640, Note_on_c, 9, 35, 72
1, 344640, Note_on_c, 9, 44, 72
1, 344880, Note_off_c, 9, 35, 64
1, 344880, Note_off_c, 9, 44, 64
1, 344880, Note_on_c, 9, 35, 72
1, 345120, Note_off_c, 9, 35, 64
1, 345120, Note_on_c, 9, 38, 72
1, 345120, Note_on_c, 9, 44, 72
1, 345360, Note_off_c, 9, 38, 64
1, 345360, Note_off_c, 9, 44, 64
1, 345360, Note_on_c, 9, 35, 72
1, 345600, Note_off_c, 9, 35, 64
1, 345600, Note_on_c, 9, 35, 72
1, 345600, Note_on_c, 9, 57, 72
1, 345600, Note_on_c, 9, 44, 72
1, 345840, Note_off_c, 9, 35, 64
1, 345840, Note_off_c, 9, 57, 64
1, 345840, Note_off_c, 9, 44, 64
1, 345840, Note_on_c, 9, 35, 72
1, 346080, Note_off_c, 9, 35, 64
1, 346080, Note_on_c, 9, 38, 72
1, 346080, Note_on_c, 9, 57, 72
1, 346080, Note_on_c, 9, 44, 72
1, 346320, Note_off_c, 9, 38, 64
1, 346320, Note_off_c, 9, 57, 64
1, 346320, Note_off_c, 9, 44, 64
1, 346320, Note_on_c, 9, 35, 72
1, 346560, Note_off_c, 9, 35, 64
1, 346560, Note_on_c, 9, 35, 72
1, 346560, Note_on_c, 9, 57, 72
1, 346560, Note_on_c, 9, 44, 72
1, 346800, Note_off_c, 9, 35, 64
1, 346800, Note_off_c, 9, 57, 64
1, 346800, Note_off_c, 9, 44, 64
1, 346800, Note_on_c, 9, 35, 72
1, 347040, Note_off_c, 9, 35, 64
1, 347040, Note_on_c, 9, 38, 72
1, 347040, Note_on_c, 9, 57, 72
1, 347040, Note_on_c, 9, 44, 72
1, 347280, Note_off_c, 9, 38, 64
1, 347280, Note_off_c, 9, 57, 64
1, 347280, Note_off_c, 9, 44, 64
1, 347280, Note_on_c, 9, 35, 72
1, 347520, Note_off_c, 9, 35, 64
1, 347520, Note_on_c, 9, 35, 72
1, 347520, Note_on_c, 9, 57, 72
1, 347520, Note_on_c, 9, 44, 72
1, 347760, Note_off_c, 9, 35, 64
1, 347760, Note_off_c, 9, 57, 64
1, 347760, Note_off_c, 9, 44, 64
1, 347760, Note_on_c, 9, 35, 72
1, 348000, Note_off_c, 9, 35, 64
1, 348000, Note_on_c, 9, 38, 72
1, 348000, Note_on_c, 9, 57, 72
1, 348000, Note_on_c, 9, 44, 72
1, 348240, Note_off_c, 9, 38, 64
1, 348240, Note_off_c, 9, 57, 64
1, 348240, Note_off_c, 9, 44, 64
1, 348240, Note_on_c, 9, 35, 72
1, 348480, Note_off_c, 9, 35, 64
1, 348480, Note_on_c, 9, 35, 72
1, 348480, Note_on_c, 9, 57, 72
1, 348480, Note_on_c, 9, 44, 72
1, 348720, Note_off_c, 9, 35, 64
1, 348720, Note_off_c, 9, 57, 64
1, 348720, Note_off_c, 9, 44, 64
1, 348720, Note_on_c, 9, 35, 72
1, 348960, Note_off_c, 9, 35, 64
1, 348960, Note_on_c, 9, 38, 72
1, 348960, Note_on_c, 9, 57, 72
1, 348960, Note_on_c, 9, 44, 72
1, 349200, Note_off_c, 9, 38, 64
1, 349200, Note_off_c, 9, 57, 64
1, 349200, Note_off_c, 9, 44, 64
1, 349200, Note_on_c, 9, 35, 72
1, 349440, Note_off_c, 9, 35, 64
1, 349440, Note_on_c, 9, 35, 72
1, 349440, Note_on_c, 9, 44, 72
1, 349680, Note_off_c, 9, 35, 64
1, 349680, Note_off_c, 9, 44, 64
1, 349680, Note_on_c, 9, 35, 72
1, 349920, Note_off_c, 9, 35, 64
1, 349920, Note_on_c, 9, 38, 72
1, 349920, Note_on_c, 9, 44, 72
1, 350160, Note_off_c, 9, 38, 64
1, 350160, Note_off_c, 9, 44, 64
1, 350160, Note_on_c, 9, 35, 72
1, 350400, Note_off_c, 9, 35, 64
1, 350400, Note_on_c, 9, 35, 72
1, 350400, Note_on_c, 9, 44, 72
1, 350640, Note_off_c, 9, 35, 64
1, 350640, Note_off_c, 9, 44, 64
1, 350640, Note_on_c, 9, 35, 72
1, 350880, Note_off_c, 9, 35, 64
1, 350880, Note_on_c, 9, 38, 72
1, 350880, Note_on_c, 9, 44, 72
1, 351120, Note_off_c, 9, 38, 64
1, 351120, Note_off_c, 9, 44, 64
1, 351120, Note_on_c, 9, 35, 72
1, 351360, Note_off_c, 9, 35, 64
1, 351360, Note_on_c, 9, 35, 72
1, 351360, Note_on_c, 9, 44, 72
1, 351600, Note_off_c, 9, 35, 64
1, 351600, Note_off_c, 9, 44, 64
1, 351600, Note_on_c, 9, 35, 72
1, 351840, Note_off_c, 9, 35, 64
1, 351840, Note_on_c, 9, 38, 72
1, 351840, Note_on_c, 9, 44, 72
1, 352080, Note_off_c, 9, 38, 64
1, 352080, Note_off_c, 9, 44, 64
1, 352080, Note_on_c, 9, 35, 72
1, 352320, Note_off_c, 9, 35, 64
1, 352320, Note_on_c, 9, 35, 72
1, 352320, Note_on_c, 9, 44, 72
1, 352560, Note_off_c, 9, 35, 64
1, 352560, Note_off_c, 9, 44, 64
1, 352560, Note_on_c, 9, 35, 72
1, 352800, Note_off_c, 9, 35, 64
1, 352800, Note_on_c, 9, 38, 72
1, 352800, Note_on_c, 9, 44, 72
1, 353040, Note_off_c, 9, 38, 64
1, 353040, Note_off_c, 9, 44, 64
1, 353040, Note_on_c, 9, 35, 72
1, 353280, Note_off_c, 9, 35, 64
1, 353280, Note_on_c, 9, 35, 72
1, 353280, Note_on_c, 9, 57, 72
1, 353280, Note_on_c, 9, 44, 72
1, 353520, Note_off_c, 9, 35, 64
1, 353520, Note_off_c, 9, 57, 64
1, 353520, Note_off_c, 9, 44, 64
1, 353520, Note_on_c, 9, 35, 72
1, 353760, Note_off_c, 9, 35, 64
1, 353760, Note_on_c, 9, 38, 72
1, 353760, Note_on_c, 9, 57, 72
1, 353760, Note_on_c, 9, 44, 72
1, 354000, Note_off_c, 9, 38, 64
1, 354000, Note_off_c, 9, 57, 64
1, 354000, Note_off_c, 9, 44, 64
1, 354000, Note_on_c, 9, 35, 72
1, 354240, Note_off_c, 9, 35, 64
1, 354240, Note_on_c, 9, 35, 72
1, 354240, Note_on_c, 9, 57, 72
1, 354240, Note_on_c, 9, 44, 72
1, 354480, Note_off_c, 9, 35, 64
1, 354480, Note_off_c, 9, 57, 64
1, 354480, Note_off_c, 9, 44, 64
1, 354480, Note_on_c, 9, 35, 72
1, 354720, Note_off_c, 9, 35, 64
1, 354720, Note_on_c, 9, 38, 72
1, 354720, Note_on_c, 9, 57, 72
1, 354720, Note_on_c, 9, 44, 72
1, 354960, Note_off_c, 9, 38, 64
1, 354960, Note_off_c, 9, 57, 64
1, 354960, Note_off_c, 9, 44, 64
1, 354960, Note_on_c, 9, 35, 72
1, 355200, Note_off_c, 9, 35, 64
1, 355200, Note_on_c, 9, 35, 72
1, 355200, Note_on_c, 9, 57, 72
1, 355200, Note_on_c, 9, 44, 72
1, 355440, Note_off_c, 9, 35, 64
1, 355440, Note_off_c, 9, 57, 64
1, 355440, Note_off_c, 9, 44, 64
1, 355440, Note_on_c, 9, 35, 72
1, 355680, Note_off_c, 9, 35, 64
1, 355680, Note_on_c, 9, 38, 72
1, 355680, Note_on_c, 9, 57, 72
1, 355680, Note_on_c, 9, 44, 72
1, 355920, Note_off_c, 9, 38, 64
1, 355920, Note_off_c, 9, 57, 64
1, 355920, Note_off_c, 9, 44, 64
1, 355920, Note_on_c, 9, 35, 72
1, 356160, Note_off_c, 9, 35, 64
1, 356160, Note_on_c, 9, 35, 72
1, 356160, Note_on_c, 9, 57, 72
1, 356160, Note_on_c, 9, 44, 72
1, 356400, Note_off_c, 9, 35, 64
1, 356400, Note_off_c, 9, 57, 64
1, 356400, Note_off_c, 9, 44, 64
1, 356400, Note_on_c, 9, 35, 72
1, 356640, Note_off_c, 9, 35, 64
1, 356640, Note_on_c, 9, 38, 72
1, 356640, Note_on_c, 9, 57, 72
1, 356640, Note_on_c, 9, 44, 72
1, 356880, Note_off_c, 9, 38, 64
1, 356880, Note_off_c, 9, 57, 64
1, 356880, Note_off_c, 9, 44, 64
1, 356880, Note_on_c, 9, 35, 72
1, 357120, Note_off_c, 9, 35, 64
1, 357120, Note_on_c, 9, 35, 72
1, 357120, Note_on_c, 9, 44, 72
1, 357360, Note_off_c, 9, 35, 64
1, 357360, Note_off_c, 9, 44, 64
1, 357360, Note_on_c, 9, 35, 72
1, 357600, Note_off_c, 9, 35, 64
1, 357600, Note_on_c, 9, 38, 72
1, 357600, Note_on_c, 9, 44, 72
1, 357840, Note_off_c, 9, 38, 64
1, 357840, Note_off_c, 9, 44, 64
1, 357840, Note_on_c, 9, 35, 72
1, 358080, Note_off_c, 9, 35, 64
1, 358080, Note_on_c, 9, 35, 72
1, 358080, Note_on_c, 9, 44, 72
1, 358320, Note_off_c, 9, 35, 64
1, 358320, Note_off_c, 9, 44, 64
1, 358320, Note_on_c, 9, 35, 72
1, 358560, Note_off_c, 9, 35, 64
1, 358560, Note_on_c, 9, 38, 72
1, 358560, Note_on_c, 9, 44, 72
1, 358800, Note_off_c, 9, 38, 64
1, 358800, Note_off_c, 9, 44, 64
1, 358800, Note_on_c, 9, 35, 72
1, 359040, Note_off_c, 9, 35, 64
1, 359040, Note_on_c, 9, 35, 72
1, 359040, Note_on_c, 9, 44, 72
1, 359280, Note_off_c, 9, 35, 64
1, 359280, Note_off_c, 9, 44, 64
1, 359280, Note_on_c, 9, 35, 72
1, 359520, Note_off_c, 9, 35, 64
1, 359520, Note_on_c, 9, 38, 72
1, 359520, Note_on_c, 9, 44, 72
1, 359760, Note_off_c, 9, 38, 64
1, 359760, Note_off_c, 9, 44, 64
1, 359760, Note_on_c, 9, 35, 72
1, 360000, Note_off_c, 9, 35, 64
1, 360000, Note_on_c, 9, 35, 72
1, 360000, Note_on_c, 9, 44, 72
1, 360240, Note_off_c, 9, 35, 64
1, 360240, Note_off_c, 9, 44, 64
1, 360240, Note_on_c, 9, 35, 72
1, 360480, Note_off_c, 9, 35, 64
1, 360480, Note_on_c, 9, 38, 72
1, 360480, Note_on_c, 9, 44, 72
1, 360720, Note_off_c, 9, 38, 64
1, 360720, Note_off_c, 9, 44, 64
1, 360720, Note_on_c, 9, 35, 72
1, 360960, Note_off_c, 9, 35, 64
1, 360960, Note_on_c, 9, 35, 72
1, 360960, Note_on_c, 9, 57, 72
1, 360960, Note_on_c, 9, 44, 72
1, 361200, Note_off_c, 9, 35, 64
1, 361200, Note_off_c, 9, 57, 64
1, 361200, Note_off_c, 9, 44, 64
1, 361200, Note_on_c, 9, 35, 72
1, 361440, Note_off_c, 9, 35, 64
1, 361440, Note_on_c, 9, 38, 72
1, 361440, Note_on_c, 9, 57, 72
1, 361440, Note_on_c, 9, 44, 72
1, 361680, Note_off_c, 9, 38, 64
1, 361680, Note_off_c, 9, 57, 64
1, 361680, Note_off_c, 9, 44, 64
1, 361680, Note_on_c, 9, 35, 72
1, 361920, Note_off_c, 9, 35, 64
1, 361920, Note_on_c, 9, 35, 72
1, 361920, Note_on_c, 9, 57, 72
1, 361920, Note_on_c, 9, 44, 72
1, 362160, Note_off_c, 9, 35, 64
1, 362160, Note_off_c, 9, 57, 64
1, 362160, Note_off_c, 9, 44, 64
1, 362160, Note_on_c, 9, 35, 72
1, 362400, Note_off_c, 9, 35, 64
1, 362400, Note_on_c, 9, 38, 72
1, 362400, Note_on_c, 9, 57, 72
1, 362400, Note_on_c, 9, 44, 72
1, 362640, Note_off_c, 9, 38, 64
1, 362640, Note_off_c, 9, 57, 64
1, 362640, Note_off_c, 9, 44, 64
1, 362640, Note_on_c, 9, 35, 72
1, 362880, Note_off_c, 9, 35, 64
1, 362880, Note_on_c, 9, 35, 72
1, 362880, Note_on_c, 9, 57, 72
1, 362880, Note_on_c, 9, 44, 72
1, 363120, Note_off_c, 9, 35, 64
1, 363120, Note_off_c, 9, 57, 64
1, 363120, Note_off_c, 9, 44, 64
1, 363120, Note_on_c, 9, 35, 72
1, 363360, Note_off_c, 9, 35, 64
1, 363360, Note_on_c, 9, 38, 72
1, 363360, Note_on_c, 9, 57, 72
1, 363360, Note_on_c, 9, 44, 72
1, 363600, Note_off_c, 9, 38, 64
1, 363600, Note_off_c, 9, 57, 64
1, 363600, Note_off_c, 9, 44, 64
1, 363600, Note_on_c, 9, 35, 72
1, 363840, Note_off_c, 9, 35, 64
1, 363840, Note_on_c, 9, 35, 72
1, 363840, Note_on_c, 9, 57, 72
1, 363840, Note_on_c, 9, 44, 72
1, 364080, Note_off_c, 9, 35, 64
1, 364080, Note_off_c, 9, 57, 64
1, 364080, Note_off_c, 9, 44, 64
1, 364080, Note_on_c, 9, 35, 72
1, 364320, Note_off_c, 9, 35, 64
1, 364320, Note_on_c, 9, 38, 72
1, 364320, Note_on_c, 9, 57, 72
1, 364320, Note_on_c, 9, 44, 72
1, 364560, Note_off_c, 9, 38, 64
1, 364560, Note_off_c, 9, 57, 64
1, 364560, Note_off_c, 9, 44, 64
1, 364560, Note_on_c, 9, 35, 72
1, 364800, Note_off_c, 9, 35, 64
1, 364800, Note_on_c, 9, 35, 72
1, 364800, Note_on_c, 9, 44, 72
1, 365040, Note_off_c, 9, 35, 64
1, 365040, Note_off_c, 9, 44, 64
1, 365040, Note_on_c, 9, 35, 72
1, 365280, Note_off_c, 9, 35, 64
1, 365280, Note_on_c, 9, 38, 72
1, 365280, Note_on_c, 9, 44, 72
1, 365520, Note_off_c, 9, 38, 64
1, 365520, Note_off_c, 9, 44, 64
1, 365520, Note_on_c, 9, 35, 72
1, 365760, Note_off_c, 9, 35, 64
1, 365760, Note_on_c, 9, 35, 72
1, 365760, Note_on_c, 9, 44, 72
1, 366000, Note_off_c, 9, 35, 64
1, 366000, Note_off_c, 9, 44, 64
1, 366000, Note_on_c, 9, 35, 72
1, 366240, Note_off_c, 9, 35, 64
1, 366240, Note_on_c, 9, 38, 72
1, 366240, Note_on_c, 9, 44, 72
1, 366480, Note_off_c, 9, 38, 64
1, 366480, Note_off_c, 9, 44, 64
1, 366480, Note_on_c, 9, 35, 72
1, 366720, Note_off_c, 9, 35, 64
1, 366720, Note_on_c, 9, 35, 72
1, 366720, Note_on_c, 9, 44, 72
1, 366960, Note_off_c, 9, 35, 64
1, 366960, Note_off_c, 9, 44, 64
1, 366960, Note_on_c, 9, 35, 72
1, 367200, Note_off_c, 9, 35, 64
1, 367200, Note_on_c, 9, 38, 72
1, 367200, Note_on_c, 9, 44, 72
1, 367440, Note_off_c, 9, 38, 64
1, 367440, Note_off_c, 9, 44, 64
1, 367440, Note_on_c, 9, 35, 72
1, 367680, Note_off_c, 9, 35, 64
1, 367680, Note_on_c, 9, 35, 72
1, 367680, Note_on_c, 9, 44, 72
1, 367920, Note_off_c, 9, 35, 64
1, 367920, Note_off_c, 9, 44, 64
1, 367920, Note_on_c, 9, 35, 72
1, 368160, Note_off_c, 9, 35, 64
1, 368160, Note_on_c, 9, 38, 72
1, 368160, Note_on_c, 9, 44, 72
1, 368400, Note_off_c, 9, 38, 64
1, 368400, Note_off_c, 9, 44, 64
1, 368400, Note_on_c, 9, 35, 72
1, 368640, Note_off_c, 9, 35, 64
1, 368640, Note_on_c, 9, 35, 72
1, 368640, Note_on_c, 9, 57, 72
1, 368640, Note_on_c, 9, 44, 72
1, 368880, Note_off_c, 9, 35, 64
1, 368880, Note_off_c, 9, 57, 64
1, 368880, Note_off_c, 9, 44, 64
1, 368880, Note_on_c, 9, 35, 72
1, 369120, Note_off_c, 9, 35, 64
1, 369120, Note_on_c, 9, 38, 72
1, 369120, Note_on_c, 9, 57, 72
1, 369120, Note_on_c, 9, 44, 72
1, 369360, Note_off_c, 9, 38, 64
1, 369360, Note_off_c, 9, 57, 64
1, 369360, Note_off_c, 9, 44, 64
1, 369360, Note_on_c, 9, 35, 72
1, 369600, Note_off_c, 9, 35, 64
1, 369600, Note_on_c, 9, 35, 72
1, 369600, Note_on_c, 9, 57, 72
1, 369600, Note_on_c, 9, 44, 72
1, 369840, Note_off_c, 9, 35, 64
1, 369840, Note_off_c, 9, 57, 64
1, 369840, Note_off_c, 9, 44, 64
1, 369840, Note_on_c, 9, 35, 72
1, 370080, Note_off_c, 9, 35, 64
1, 370080, Note_on_c, 9, 38, 72
1, 370080, Note_on_c, 9, 57, 72
1, 370080, Note_on_c, 9, 44, 72
1, 370320, Note_off_c, 9, 38, 64
1, 370320, Note_off_c, 9, 57, 64
1, 370320, Note_off_c, 9, 44, 64
1, 370320, Note_on_c, 9, 35, 72
1, 370560, Note_off_c, 9, 35, 64
1, 370560, Note_on_c, 9, 35, 72
1, 370560, Note_on_c, 9, 57, 72
1, 370560, Note_on_c, 9, 44, 72
1, 370800, Note_off_c, 9, 35, 64
1, 370800, Note_off_c, 9, 57, 64
1, 370800, Note_off_c, 9, 44, 64
1, 370800, Note_on_c, 9, 35, 72
1, 371040, Note_off_c, 9, 35, 64
1, 371040, Note_on_c, 9, 38, 72
1, 371040, Note_on_c, 9, 57, 72
1, 371040, Note_on_c, 9, 44, 72
1, 371280, Note_off_c, 9, 38, 64
1, 371280, Note_off_c, 9, 57, 64
1, 371280, Note_off_c, 9, 44, 64
1, 371280, Note_on_c, 9, 35, 72
1, 371520, Note_off_c, 9, 35, 64
1, 371520, Note_on_c, 9, 35, 72
1, 371520, Note_on_c, 9, 57, 72
1, 371520, Note_on_c, 9, 44, 72
1, 371760, Note_off_c, 9, 35, 64
1, 371760, Note_off_c, 9, 57, 64
1, 371760, Note_off_c, 9, 44, 64
1, 371760, Note_on_c, 9, 35, 72
1, 372000, Note_off_c, 9, 35, 64
1, 372000, Note_on_c, 9, 38, 72
1, 372000, Note_on_c, 9, 57, 72
1, 372000, Note_on_c, 9, 44, 72
1, 372240, Note_off_c, 9, 38, 64
1, 372240, Note_off_c, 9, 57, 64
1, 372240, Note_off_c, 9, 44, 64
1, 372240, Note_on_c, 9, 35, 72
1, 372480, Note_off_c, 9, 35, 64
1, 372480, Note_on_c, 9, 35, 72
1, 372480, Note_on_c, 9, 44, 72
1, 372720, Note_off_c, 9, 35, 64
1, 372720, Note_off_c, 9, 44, 64
1, 372720, Note_on_c, 9, 35, 72
1, 372960, Note_off_c, 9, 35, 64
1, 372960, Note_on_c, 9, 38, 72
1, 372960, Note_on_c, 9, 44, 72
1, 373200, Note_off_c, 9, 38, 64
1, 373200, Note_off_c, 9, 44, 64
1, 373200, Note_on_c, 9, 35, 72
1, 373440, Note_off_c, 9, 35, 64
1, 373440, Note_on_c, 9, 35, 72
1, 373440, Note_on_c, 9, 44, 72
1, 373680, Note_off_c, 9, 35, 64
1, 373680, Note_off_c, 9, 44, 64
1, 373680, Note_on_c, 9, 35, 72
1, 373920, Note_off_c, 9, 35, 64
1, 373920, Note_on_c, 9, 38, 72
1, 373920, Note_on_c, 9, 44, 72
1, 374160, Note_off_c, 9, 38, 64
1, 374160, Note_off_c, 9, 44, 64
1, 374160, Note_on_c, 9, 35, 72
1, 374400, Note_off_c, 9, 35, 64
1, 374400, Note_on_c, 9, 35, 72
1, 374400, Note_on_c, 9, 44, 72
1, 374640, Note_off_c, 9, 35, 64
1, 374640, Note_off_c, 9, 44, 64
1, 374640, Note_on_c, 9, 35, 72
1, 374880, Note_off_c, 9, 35, 64
1, 374880, Note_on_c, 9, 38, 72
1, 374880, Note_on_c, 9, 44, 72
1, 375120, Note_off_c, 9, 38, 64
1, 375120, Note_off_c, 9, 44, 64
1, 375120, Note_on_c, 9, 35, 72
1, 375360, Note_off_c, 9, 35, 64
1, 375360, Note_on_c, 9, 35, 72
1, 375360, Note_on_c, 9, 44, 72
1, 375600, Note_off_c, 9, 35, 64
1, 375600, Note_off_c, 9, 44, 64
1, 375600, Note_on_c, 9, 35, 72
1, 375840, Note_off_c, 9, 35, 64
1, 375840, Note_on_c, 9, 38, 72
1, 375840, Note_on_c, 9, 44, 72
1, 376080, Note_off_c, 9, 38, 64
1, 376080, Note_off_c, 9, 44, 64
1, 376080, Note_on_c, 9, 35, 72
1, 376320, Note_off_c, 9, 35, 64
1, 376320, Note_on_c, 9, 35, 72
1, 376320, Note_on_c, 9, 57, 72
1, 376320, Note_on_c, 9, 44, 72
1, 376560, Note_off_c, 9, 35, 64
1, 376560, Note_off_c, 9, 57, 64
1, 376560, Note_off_c, 9, 44, 64
1, 376560, Note_on_c, 9, 35, 72
1, 376800, Note_off_c, 9, 35, 64
1, 376800, Note_on_c, 9, 38, 72
1, 376800, Note_on_c, 9, 57, 72
1, 376800, Note_on_c, 9, 44, 72
1, 377040, Note_off_c, 9, 38, 64
1, 377040, Note_off_c, 9, 57, 64
1, 377040, Note_off_c, 9, 44, 64
1, 377040, Note_on_c, 9, 35, 72
1, 377280, Note_off_c, 9, 35, 64
1, 377280, Note_on_c, 9, 35, 72
1, 377280, Note_on_c, 9, 57, 72
1, 377280, Note_on_c, 9, 44, 72
1, 377520, Note_off_c, 9, 35, 64
1, 377520, Note_off_c, 9, 57, 64
1, 377520, Note_off_c, 9, 44, 64
1, 377520, Note_on_c, 9, 35, 72
1, 377760, Note_off_c, 9, 35, 64
1, 377760, Note_on_c, 9, 38, 72
1, 377760, Note_on_c, 9, 57, 72
1, 377760, Note_on_c, 9, 44, 72
1, 378000, Note_off_c, 9, 38, 64
1, 378000, Note_off_c, 9, 57, 64
1, 378000, Note_off_c, 9, 44, 64
1, 378000, Note_on_c, 9, 35, 72
1, 378240, Note_off_c, 9, 35, 64
1, 378240, Note_on_c, 9, 35, 72
1, 378240, Note_on_c, 9, 57, 72
1, 378240, Note_on_c, 9, 44, 72
1, 378480, Note_off_c, 9, 35, 64
1, 378480, Note_off_c, 9, 57, 64
1, 378480, Note_off_c, 9, 44, 64
1, 378480, Note_on_c, 9, 35, 72
1, 378720, Note_off_c, 9, 35, 64
1, 378720, Note_on_c, 9, 38, 72
1, 378720, Note_on_c, 9, 57, 72
1, 378720, Note_on_c, 9, 44, 72
1, 378960, Note_off_c, 9, 38, 64
1, 378960, Note_off_c, 9, 57, 64
1, 378960, Note_off_c, 9, 44, 64
1, 378960, Note_on_c, 9, 35, 72
1, 379200, Note_off_c, 9, 35, 64
1, 379200, Note_on_c, 9, 35, 72
1, 379200, Note_on_c, 9, 57, 72
1, 379200, Note_on_c, 9, 44, 72
1, 379440, Note_off_c, 9, 35, 64
1, 379440, Note_off_c, 9, 57, 64
1, 379440, Note_off_c, 9, 44, 64
1, 379440, Note_on_c, 9, 35, 72
1, 379680, Note_off_c, 9, 35, 64
1, 379680, Note_on_c, 9, 38, 72
1, 379680, Note_on_c, 9, 57, 72
1, 379680, Note_on_c, 9, 44, 72
1, 379920, Note_off_c, 9, 38, 64
1, 379920, Note_off_c, 9, 57, 64
1, 379920, Note_off_c, 9, 44, 64
1, 379920, Note_on_c, 9, 35, 72
1, 380160, Note_off_c, 9, 35, 64
1, 380160, Note_on_c, 9, 35, 72
1, 380160, Note_on_c, 9, 44, 72
1, 380400, Note_off_c, 9, 35, 64
1, 380400, Note_off_c, 9, 44, 64
1, 380400, Note_on_c, 9, 35, 72
1, 380640, Note_off_c, 9, 35, 64
1, 380640, Note_on_c, 9, 38, 72
1, 380640, Note_on_c, 9, 44, 72
1, 380880, Note_off_c, 9, 38, 64
1, 380880, Note_off_c, 9, 44, 64
1, 380880, Note_on_c, 9, 35, 72
1, 381120, Note_off_c, 9, 35, 64
1, 381120, Note_on_c, 9, 35, 72
1, 381120, Note_on_c, 9, 44, 72
1, 381360, Note_off_c, 9, 35, 64
1, 381360, Note_off_c, 9, 44, 64
1, 381360, Note_on_c, 9, 35, 72
1, 381600, Note_off_c, 9, 35, 64
1, 381600, Note_on_c, 9, 38, 72
1, 381600, Note_on_c, 9, 44, 72
1, 381840, Note_off_c, 9, 38, 64
1, 381840, Note_off_c, 9, 44, 64
1, 381840, Note_on_c, 9, 35, 72
1, 382080, Note_off_c, 9, 35, 64
1, 382080, Note_on_c, 9, 35, 72
1, 382080, Note_on_c, 9, 44, 72
1, 382320, Note_off_c, 9, 35, 64
1, 382320, Note_off_c, 9, 44, 64
1, 382320, Note_on_c, 9, 35, 72
1, 382560, Note_off_c, 9, 35, 64
1, 382560, Note_on_c, 9, 38, 72
1, 382560, Note_on_c, 9, 44, 72
1, 382800, Note_off_c, 9, 38, 64
1, 382800, Note_off_c, 9, 44, 64
1, 382800, Note_on_c, 9, 35, 72
1, 383040, Note_off_c, 9, 35, 64
1, 383040, Note_on_c, 9, 35, 72
1, 383040, Note_on_c, 9, 44, 72
1, 383280, Note_off_c, 9, 35, 64
1, 383280, Note_off_c, 9, 44, 64
1, 383280, Note_on_c, 9, 35, 72
1, 383520, Note_off_c, 9, 35, 64
1, 383520, Note_on_c, 9, 38, 72
1, 383520, Note_on_c, 9, 44, 72
1, 383760, Note_off_c, 9, 38, 64
1, 383760, Note_off_c, 9, 44, 64
1, 383760, Note_on_c, 9, 35, 72
1, 384000, Note_off_c, 9, 35, 64
1, 384000, Note_on_c, 9, 35, 72
1, 384000, Note_on_c, 9, 57, 72
1, 384000, Note_on_c, 9, 44, 72
1, 384240, Note_off_c, 9, 35, 64
1, 384240, Note_off_c, 9, 57, 64
1, 384240, Note_off_c, 9, 44, 64
1, 384240, Note_on_c, 9, 35, 72
1, 384480, Note_off_c, 9, 35, 64
1, 384480, Note_on_c, 9, 38, 72
1, 384480, Note_on_c, 9, 57, 72
1, 384480, Note_on_c, 9, 44, 72
1, 384720, Note_off_c, 9, 38, 64
1, 384720, Note_off_c, 9, 57, 64
1, 384720, Note_off_c, 9, 44, 64
1, 384720, Note_on_c, 9, 35, 72
1, 384960, Note_off_c, 9, 35, 64
1, 384960, Note_on_c, 9, 35, 72
1, 384960, Note_on_c, 9, 57, 72
1, 384960, Note_on_c, 9, 44, 72
1, 385200, Note_off_c, 9, 35, 64
1, 385200, Note_off_c, 9, 57, 64
1, 385200, Note_off_c, 9, 44, 64
1, 385200, Note_on_c, 9, 35, 72
1, 385440, Note_off_c, 9, 35, 64
1, 385440, Note_on_c, 9, 38, 72
1, 385440, Note_on_c, 9, 57, 72
1, 385440, Note_on_c, 9, 44, 72
1, 385680, Note_off_c, 9, 38, 64
1, 385680, Note_off_c, 9, 57, 64
1, 385680, Note_off_c, 9, 44, 64
1, 385680, Note_on_c, 9, 35, 72
1, 385920, Note_off_c, 9, 35, 64
1, 385920, Note_on_c, 9, 35, 72
1, 385920, Note_on_c, 9, 57, 72
1, 385920, Note_on_c, 9, 44, 72
1, 386160, Note_off_c, 9, 35, 64
1, 386160, Note_off_c, 9, 57, 64
1, 386160, Note_off_c, 9, 44, 64
1, 386160, Note_on_c, 9, 35, 72
1, 386400, Note_off_c, 9, 35, 64
1, 386400, Note_on_c, 9, 38, 72
1, 386400, Note_on_c, 9, 57, 72
1, 386400, Note_on_c, 9, 44, 72
1, 386640, Note_off_c, 9, 38, 64
1, 386640, Note_off_c, 9, 57, 64
1, 386640, Note_off_c, 9, 44, 64
1, 386640, Note_on_c, 9, 35, 72
1, 386880, Note_off_c, 9, 35, 64
1, 386880, Note_on_c, 9, 35, 72
1, 386880, Note_on_c, 9, 57, 72
1, 386880, Note_on_c, 9, 44, 72
1, 387120, Note_off_c, 9, 35, 64
1, 387120, Note_off_c, 9, 57, 64
1, 387120, Note_off_c, 9, 44, 64
1, 387120, Note_on_c, 9, 35, 72
1, 387360, Note_off_c, 9, 35, 64
1, 387360, Note_on_c, 9, 38, 72
1, 387360, Note_on_c, 9, 57, 72
1, 387360, Note_on_c, 9, 44, 72
1, 387600, Note_off_c, 9, 38, 64
1, 387600, Note_off_c, 9, 57, 64
1, 387600, Note_off_c, 9, 44, 64
1, 387600, Note_on_c, 9, 35, 72
1, 387840, Note_off_c, 9, 35, 64
1, 387840, Note_on_c, 9, 35, 72
1, 387840, Note_on_c, 9, 44, 72
1, 388080, Note_off_c, 9, 35, 64
1, 388080, Note_off_c, 9, 44, 64
1, 388080, Note_on_c, 9, 35, 72
1, 388320, Note_off_c, 9, 35, 64
1, 388320, Note_on_c, 9, 38, 72
1, 388320, Note_on_c, 9, 44, 72
1, 388560, Note_off_c, 9, 38, 64
1, 388560, Note_off_c, 9, 44, 64
1, 388560, Note_on_c, 9, 35, 72
1, 388800, Note_off_c, 9, 35, 64
1, 388800, Note_on_c, 9, 35, 72
1, 388800, Note_on_c, 9, 44, 72
1, 389040, Note_off_c, 9, 35, 64
1, 389040, Note_off_c, 9, 44, 64
1, 389040, Note_on_c, 9, 35, 72
1, 389280, Note_off_c, 9, 35, 64
1, 389280, Note_on_c, 9, 38, 72
1, 389280, Note_on_c, 9, 44, 72
1, 389520, Note_off_c, 9, 38, 64
1, 389520, Note_off_c, 9, 44, 64
1, 389520, Note_on_c, 9, 35, 72
1, 389760, Note_off_c, 9, 35, 64
1, 389760, Note_on_c, 9, 35, 72
1, 389760, Note_on_c, 9, 44, 72
1, 390000, Note_off_c, 9, 35, 64
1, 390000, Note_off_c, 9, 44, 64
1, 390000, Note_on_c, 9, 35, 72
1, 390240, Note_off_c, 9, 35, 64
1, 390240, Note_on_c, 9, 38, 72
1, 390240, Note_on_c, 9, 44, 72
1, 390480, Note_off_c, 9, 38, 64
1, 390480, Note_off_c, 9, 44, 64
1, 390480, Note_on_c, 9, 35, 72
1, 390720, Note_off_c, 9, 35, 64
1, 390720, Note_on_c, 9, 35, 72
1, 390720, Note_on_c, 9, 44, 72
1, 390960, Note_off_c, 9, 35, 64
1, 390960, Note_off_c, 9, 44, 64
1, 390960, Note_on_c, 9, 35, 72
1, 391200, Note_off_c, 9, 35, 64
1, 391200, Note_on_c, 9, 38, 72
1, 391200, Note_on_c, 9, 44, 72
1, 391440, Note_off_c, 9, 38, 64
1, 391440, Note_off_c, 9, 44, 64
1, 391440, Note_on_c, 9, 35, 72
1, 391680, Note_off_c, 9, 35, 64
1, 391680, Note_on_c, 9, 35, 72
1, 391680, Note_on_c, 9, 57, 72
1, 391680, Note_on_c, 9, 44, 72
1, 391920, Note_off_c, 9, 35, 64
1, 391920, Note_off_c, 9, 57, 64
1, 391920, Note_off_c, 9, 44, 64
1, 391920, Note_on_c, 9, 35, 72
1, 392160, Note_off_c, 9, 35, 64
1, 392160, Note_on_c, 9, 38, 72
1, 392160, Note_on_c, 9, 57, 72
1, 392160, Note_on_c, 9, 44, 72
1, 392400, Note_off_c, 9, 38, 64
1, 392400, Note_off_c, 9, 57, 64
1, 392400, Note_off_c, 9, 44, 64
1, 392400, Note_on_c, 9, 35, 72
1, 392640, Note_off_c, 9, 35, 64
1, 392640, Note_on_c, 9, 35, 72
1, 392640, Note_on_c, 9, 57, 72
1, 392640, Note_on_c, 9, 44, 72
1, 392880, Note_off_c, 9, 35, 64
1, 392880, Note_off_c, 9, 57, 64
1, 392880, Note_off_c, 9, 44, 64
1, 392880, Note_on_c, 9, 35, 72
1, 393120, Note_off_c, 9, 35, 64
1, 393120, Note_on_c, 9, 38, 72
1, 393120, Note_on_c, 9, 57, 72
1, 393120, Note_on_c, 9, 44, 72
1, 393360, Note_off_c, 9, 38, 64
1, 393360, Note_off_c, 9, 57, 64
1, 393360, Note_off_c, 9, 44, 64
1, 393360, Note_on_c, 9, 35, 72
1, 393600, Note_off_c, 9, 35, 64
1, 393600, Note_on_c, 9, 35, 72
1, 393600, Note_on_c, 9, 57, 72
1, 393600, Note_on_c, 9, 44, 72
1, 393840, Note_off_c, 9, 35, 64
1, 393840, Note_off_c, 9, 57, 64
1, 393840, Note_off_c, 9, 44, 64
1, 393840, Note_on_c, 9, 35, 72
1, 394080, Note_off_c, 9, 35, 64
1, 394080, Note_on_c, 9, 38, 72
1, 394080, Note_on_c, 9, 57, 72
1, 394080, Note_on_c, 9, 44, 72
1, 394320, Note_off_c, 9, 38, 64
1, 394320, Note_off_c, 9, 57, 64
1, 394320, Note_off_c, 9, 44, 64
1, 394320, Note_on_c, 9, 35, 72
1, 394560, Note_off_c, 9, 35, 64
1, 394560, Note_on_c, 9, 35, 72
1, 394560, Note_on_c, 9, 57, 72
1, 394560, Note_on_c, 9, 44, 72
1, 394800, Note_off_c, 9, 35, 64
1, 394800, Note_off_c, 9, 57, 64
1, 394800, Note_off_c, 9, 44, 64
1, 394800, Note_on_c, 9, 35, 72
1, 395040, Note_off_c, 9, 35, 64
1, 395040, Note_on_c, 9, 38, 72
1, 395040, Note_on_c, 9, 57, 72
1, 395040, Note_on_c, 9, 44, 72
1, 395280, Note_off_c, 9, 38, 64
1, 395280, Note_off_c, 9, 57, 64
1, 395280, Note_off_c, 9, 44, 64
1, 395280, Note_on_c, 9, 35, 72
1, 395520, Note_off_c, 9, 35, 64
1, 395520, Note_on_c, 9, 35, 72
1, 395520, Note_on_c, 9, 44, 72
1, 395760, Note_off_c, 9, 35, 64
1, 395760, Note_off_c, 9, 44, 64
1, 395760, Note_on_c, 9, 35, 72
1, 396000, Note_off_c, 9, 35, 64
1, 396000, Note_on_c, 9, 38, 72
1, 396000, Note_on_c, 9, 44, 72
1, 396240, Note_off_c, 9, 38, 64
1, 396240, Note_off_c, 9, 44, 64
1, 396240, Note_on_c, 9, 35, 72
1, 396480, Note_off_c, 9, 35, 64
1, 396480, Note_on_c, 9, 35, 72
1, 396480, Note_on_c, 9, 44, 72
1, 396720, Note_off_c, 9, 35, 64
1, 396720, Note_off_c, 9, 44, 64
1, 396720, Note_on_c, 9, 35, 72
1, 396960, Note_off_c, 9, 35, 64
1, 396960, Note_on_c, 9, 38, 72
1, 396960, Note_on_c, 9, 44, 72
1, 397200, Note_off_c, 9, 38, 64
1, 397200, Note_off_c, 9, 44, 64
1, 397200, Note_on_c, 9, 35, 72
1, 397440, Note_off_c, 9, 35, 64
1, 397440, Note_on_c, 9, 35, 72
1, 397440, Note_on_c, 9, 44, 72
1, 397680, Note_off_c, 9, 35, 64
1, 397680, Note_off_c, 9, 44, 64
1, 397680, Note_on_c, 9, 35, 72
1, 397920, Note_off_c, 9, 35, 64
1, 397920, Note_on_c, 9, 38, 72
1, 397920, Note_on_c, 9, 44, 72
1, 398160, Note_off_c, 9, 38, 64
1, 398160, Note_off_c, 9, 44, 64
1, 398160, Note_on_c, 9, 35, 72
1, 398400, Note_off_c, 9, 35, 64
1, 398400, Note_on_c, 9, 35, 72
1, 398400, Note_on_c, 9, 44, 72
1, 398640, Note_off_c, 9, 35, 64
1, 398640, Note_off_c, 9, 44, 64
1, 398640, Note_on_c, 9, 35, 72
1, 398880, Note_off_c, 9, 35, 64
1, 398880, Note_on_c, 9, 38, 72
1, 398880, Note_on_c, 9, 44, 72
1, 399120, Note_off_c, 9, 38, 64
1, 399120, Note_off_c, 9, 44, 64
1, 399120, Note_on_c, 9, 35, 72
1, 399360, Note_off_c, 9, 35, 64
1, 399360, Note_on_c, 9, 35, 72
1, 399360, Note_on_c, 9, 57, 72
1, 399360, Note_on_c, 9, 44, 72
1, 399600, Note_off_c, 9, 35, 64
1, 399600, Note_off_c, 9, 57, 64
1, 399600, Note_off_c, 9, 44, 64
1, 399600, Note_on_c, 9, 35, 72
1, 399840, Note_off_c, 9, 35, 64
1, 399840, Note_on_c, 9, 38, 72
1, 399840, Note_on_c, 9, 57, 72
1, 399840, Note_on_c, 9, 44, 72
1, 400080, Note_off_c, 9, 38, 64
1, 400080, Note_off_c, 9, 57, 64
1, 400080, Note_off_c, 9, 44, 64
1, 400080, Note_on_c, 9, 35, 72
1, 400320, Note_off_c, 9, 35, 64
1, 400320, Note_on_c, 9, 35, 72
1, 400320, Note_on_c, 9, 57, 72
1, 400320, Note_on_c, 9, 44, 72
1, 400560, Note_off_c, 9, 35, 64
1, 400560, Note_off_c, 9, 57, 64
1, 400560, Note_off_c, 9, 44, 64
1, 400560, Note_on_c, 9, 35, 72
1, 400800, Note_off_c, 9, 35, 64
1, 400800, Note_on_c, 9, 38, 72
1, 400800, Note_on_c, 9, 57, 72
1, 400800, Note_on_c, 9, 44, 72
1, 401040, Note_off_c, 9, 38, 64
1, 401040, Note_off_c, 9, 57, 64
1, 401040, Note_off_c, 9, 44, 64
1, 401040, Note_on_c, 9, 35, 72
1, 401280, Note_off_c, 9, 35, 64
1, 401280, Note_on_c, 9, 35, 72
1, 401280, Note_on_c, 9, 57, 72
1, 401280, Note_on_c, 9, 44, 72
1, 401520, Note_off_c, 9, 35, 64
1, 401520, Note_off_c, 9, 57, 64
1, 401520, Note_off_c, 9, 44, 64
1, 401520, Note_on_c, 9, 35, 72
1, 401760, Note_off_c, 9, 35, 64
1, 401760, Note_on_c, 9, 38, 72
1, 401760, Note_on_c, 9, 57, 72
1, 401760, Note_on_c, 9, 44, 72
1, 402000, Note_off_c, 9, 38, 64
1, 402000, Note_off_c, 9, 57, 64
1, 402000, Note_off_c, 9, 44, 64
1, 402000, Note_on_c, 9, 35, 72
1, 402240, Note_off_c, 9, 35, 64
1, 402240, Note_on_c, 9, 35, 72
1, 402240, Note_on_c, 9, 57, 72
1, 402240, Note_on_c, 9, 44, 72
1, 402480, Note_off_c, 9, 35, 64
1, 402480, Note_off_c, 9, 57, 64
1, 402480, Note_off_c, 9, 44, 64
1, 402480, Note_on_c, 9, 35, 72
1, 402720, Note_off_c, 9, 35, 64
1, 402720, Note_on_c, 9, 38, 72
1, 402720, Note_on_c, 9, 57, 72
1, 402720, Note_on_c, 9, 44, 72
1, 402960, Note_off_c, 9, 38, 64
1, 402960, Note_off_c, 9, 57, 64
1, 402960, Note_off_c, 9, 44, 64
1, 402960, Note_on_c, 9, 35, 72
1, 403200, Note_off_c, 9, 35, 64
1, 403200, Note_on_c, 9, 35, 72
1, 403200, Note_on_c, 9, 44, 72
1, 403440, Note_off_c, 9, 35, 64
1, 403440, Note_off_c, 9, 44, 64
1, 403440, Note_on_c, 9, 35, 72
1, 403680, Note_off_c, 9, 35, 64
1, 403680, Note_on_c, 9, 38, 72
1, 403680, Note_on_c, 9, 44, 72
1, 403920, Note_off_c, 9, 38, 64
1, 403920, Note_off_c, 9, 44, 64
1, 403920, Note_on_c, 9, 35, 72
1, 404160, Note_off_c, 9, 35, 64
1, 404160, Note_on_c, 9, 35, 72
1, 404160, Note_on_c, 9, 44, 72
1, 404400, Note_off_c, 9, 35, 64
1, 404400, Note_off_c, 9, 44, 64
1, 404400, Note_on_c, 9, 35, 72
1, 404640, Note_off_c, 9, 35, 64
1, 404640, Note_on_c, 9, 38, 72
1, 404640, Note_on_c, 9, 44, 72
1, 404880, Note_off_c, 9, 38, 64
1, 404880, Note_off_c, 9, 44, 64
1, 404880, Note_on_c, 9, 35, 72
1, 405120, Note_off_c, 9, 35, 64
1, 405120, Note_on_c, 9, 35, 72
1, 405120, Note_on_c, 9, 44, 72
1, 405360, Note_off_c, 9, 35, 64
1, 405360, Note_off_c, 9, 44, 64
1, 405360, Note_on_c, 9, 35, 72
1, 405600, Note_off_c, 9, 35, 64
1, 405600, Note_on_c, 9, 38, 72
1, 405600, Note_on_c, 9, 44, 72
1, 405840, Note_off_c, 9, 38, 64
1, 405840, Note_off_c, 9, 44, 64
1, 405840, Note_on_c, 9, 35, 72
1, 406080, Note_off_c, 9, 35, 64
1, 406080, Note_on_c, 9, 35, 72
1, 406080, Note_on_c, 9, 44, 72
1, 406320, Note_off_c, 9, 35, 64
1, 406320, Note_off_c, 9, 44, 64
1, 406320, Note_on_c, 9, 35, 72
1, 406560, Note_off_c, 9, 35, 64
1, 406560, Note_on_c, 9, 38, 72
1, 406560, Note_on_c, 9, 44, 72
1, 406800, Note_off_c, 9, 38, 64
1, 406800, Note_off_c, 9, 44, 64
1, 406800, Note_on_c, 9, 35, 72
1, 407040, Note_off_c, 9, 35, 64
1, 407040, Note_on_c, 9, 35, 72
1, 407040, Note_on_c, 9, 57, 72
1, 407040, Note_on_c, 9, 44, 72
1, 407280, Note_off_c, 9, 35, 64
1, 407280, Note_off_c, 9, 57, 64
1, 407280, Note_off_c, 9, 44, 64
1, 407280, Note_on_c, 9, 35, 72
1, 407520, Note_off_c, 9, 35, 64
1, 407520, Note_on_c, 9, 38, 72
1, 407520, Note_on_c, 9, 57, 72
1, 407520, Note_on_c, 9, 44, 72
1, 407760, Note_off_c, 9, 38, 64
1, 407760, Note_off_c, 9, 57, 64
1, 407760, Note_off_c, 9, 44, 64
1, 407760, Note_on_c, 9, 35, 72
1, 408000, Note_off_c, 9, 35, 64
1, 408000, Note_on_c, 9, 35, 72
1, 408000, Note_on_c, 9, 57, 72
1, 408000, Note_on_c, 9, 44, 72
1, 408240, Note_off_c, 9, 35, 64
1, 408240, Note_off_c, 9, 57, 64
1, 408240, Note_off_c, 9, 44, 64
1, 408240, Note_on_c, 9, 35, 72
1, 408480, Note_off_c, 9, 35, 64
1, 408480, Note_on_c, 9, 38, 72
1, 408480, Note_on_c, 9, 57, 72
1, 408480, Note_on_c, 9, 44, 72
1, 408720, Note_off_c, 9, 38, 64
1, 408720, Note_off_c, 9, 57, 64
1, 408720, Note_off_c, 9, 44, 64
1, 408720, Note_on_c, 9, 35, 72
1, 408960, Note_off_c, 9, 35, 64
1, 408960, Note_on_c, 9, 35, 72
1, 408960, Note_on_c, 9, 57, 72
1, 408960, Note_on_c, 9, 44, 72
1, 409200, Note_off_c, 9, 35, 64
1, 409200, Note_off_c, 9, 57, 64
1, 409200, Note_off_c, 9, 44, 64
1, 409200, Note_on_c, 9, 35, 72
1, 409440, Note_off_c, 9, 35, 64
1, 409440, Note_on_c, 9, 38, 72
1, 409440, Note_on_c, 9, 57, 72
1, 409440, Note_on_c, 9, 44, 72
1, 409680, Note_off_c, 9, 38, 64
1, 409680, Note_off_c, 9, 57, 64
1, 409680, Note_off_c, 9, 44, 64
1, 409680, Note_on_c, 9, 35, 72
1, 409920, Note_off_c, 9, 35, 64
1, 409920, Note_on_c, 9, 35, 72
1, 409920, Note_on_c, 9, 57, 72
1, 409920, Note_on_c, 9, 44, 72
1, 410160, Note_off_c, 9, 35, 64
1, 410160, Note_off_c, 9, 57, 64
1, 410160, Note_off_c, 9, 44, 64
1, 410160, Note_on_c, 9, 35, 72
1, 410400, Note_off_c, 9, 35, 64
1, 410400, Note_on_c, 9, 38, 72
1, 410400, Note_on_c, 9, 57, 72
1, 410400, Note_on_c, 9, 44, 72
1, 410640, Note_off_c, 9, 38, 64
1, 410640, Note_off_c, 9, 57, 64
1, 410640, Note_off_c, 9, 44, 64
1, 410640, Note_on_c, 9, 35, 72
1, 410880, Note_off_c, 9, 35, 64
1, 410880, Note_on_c, 9, 35, 72
1, 410880, Note_on_c, 9, 44, 72
1, 411120, Note_off_c, 9, 35, 64
1, 411120, Note_off_c, 9, 44, 64
1, 411120, Note_on_c, 9, 35, 72
1, 411360, Note_off_c, 9, 35, 64
1, 411360, Note_on_c, 9, 38, 72
1, 411360, Note_on_c, 9, 44, 72
1, 411600, Note_off_c, 9, 38, 64
1, 411600, Note_off_c, 9, 44, 64
1, 411600, Note_on_c, 9, 35, 72
1, 411840, Note_off_c, 9, 35, 64
1, 411840, Note_on_c, 9, 35, 72
1, 411840, Note_on_c, 9, 44, 72
1, 412080, Note_off_c, 9, 35, 64
1, 412080, Note_off_c, 9, 44, 64
1, 412080, Note_on_c, 9, 35, 72
1, 412320, Note_off_c, 9, 35, 64
1, 412320, Note_on_c, 9, 38, 72
1, 412320, Note_on_c, 9, 44, 72
1, 412560, Note_off_c, 9, 38, 64
1, 412560, Note_off_c, 9, 44, 64
1, 412560, Note_on_c, 9, 35, 72
1, 412800, Note_off_c, 9, 35, 64
1, 412800, Note_on_c, 9, 35, 72
1, 412800, Note_on_c, 9, 44, 72
1, 413040, Note_off_c, 9, 35, 64
1, 413040, Note_off_c, 9, 44, 64
1, 413040, Note_on_c, 9, 35, 72
1, 413280, Note_off_c, 9, 35, 64
1, 413280, Note_on_c, 9, 38, 72
1, 413280, Note_on_c, 9, 44, 72
1, 413520, Note_off_c, 9, 38, 64
1, 413520, Note_off_c, 9, 44, 64
1, 413520, Note_on_c, 9, 35, 72
1, 413760, Note_off_c, 9, 35, 64
1, 413760, Note_on_c, 9, 35, 72
1, 413760, Note_on_c, 9, 44, 72
1, 414000, Note_off_c, 9, 35, 64
1, 414000, Note_off_c, 9, 44, 64
1, 414000, Note_on_c, 9, 35, 72
1, 414240, Note_off_c, 9, 35, 64
1, 414240, Note_on_c, 9, 38, 72
1, 414240, Note_on_c, 9, 44, 72
1, 414480, Note_off_c, 9, 38, 64
1, 414480, Note_off_c, 9, 44, 64
1, 414480, Note_on_c, 9, 35, 72
1, 414720, Note_off_c, 9, 35, 64
1, 414720, Note_on_c, 9, 35, 72
1, 414720, Note_on_c, 9, 57, 72
1, 414720, Note_on_c, 9, 44, 72
1, 414960, Note_off_c, 9, 35, 64
1, 414960, Note_off_c, 9, 57, 64
1, 414960, Note_off_c, 9, 44, 64
1, 414960, Note_on_c, 9, 35, 72
1, 415200, Note_off_c, 9, 35, 64
1, 415200, Note_on_c, 9, 38, 72
1, 415200, Note_on_c, 9, 57, 72
1, 415200, Note_on_c, 9, 44, 72
1, 415440, Note_off_c, 9, 38, 64
1, 415440, Note_off_c, 9, 57, 64
1, 415440, Note_off_c, 9, 44, 64
1, 415440, Note_on_c, 9, 35, 72
1, 415680, Note_off_c, 9, 35, 64
1, 415680, Note_on_c, 9, 35, 72
1, 415680, Note_on_c, 9, 57, 72
1, 415680, Note_on_c, 9, 44, 72
1, 415920, Note_off_c, 9, 35, 64
1, 415920, Note_off_c, 9, 57, 64
1, 415920, Note_off_c, 9, 44, 64
1, 415920, Note_on_c, 9, 35, 72
1, 416160, Note_off_c, 9, 35, 64
1, 416160, Note_on_c, 9, 38, 72
1, 416160, Note_on_c, 9, 57, 72
1, 416160, Note_on_c, 9, 44, 72
1, 416400, Note_off_c, 9, 38, 64
1, 416400, Note_off_c, 9, 57, 64
1, 416400, Note_off_c, 9, 44, 64
1, 416400, Note_on_c, 9, 35, 72
1, 416640, Note_off_c, 9, 35, 64
1, 416640, Note_on_c, 9, 35, 72
1, 416640, Note_on_c, 9, 57, 72
1, 416640, Note_on_c, 9, 44, 72
1, 416880, Note_off_c, 9, 35, 64
1, 416880, Note_off_c, 9, 57, 64
1, 416880, Note_off_c, 9, 44, 64
1, 416880, Note_on_c, 9, 35, 72
1, 417120, Note_off_c, 9, 35, 64
1, 417120, Note_on_c, 9, 38, 72
1, 417120, Note_on_c, 9, 57, 72
1, 417120, Note_on_c, 9, 44, 72
1, 417360, Note_off_c, 9, 38, 64
1, 417360, Note_off_c, 9, 57, 64
1, 417360, Note_off_c, 9, 44, 64
1, 417360, Note_on_c, 9, 35, 72
1, 417600, Note_off_c, 9, 35, 64
1, 417600, Note_on_c, 9, 35, 72
1, 417600, Note_on_c, 9, 57, 72
1, 417600, Note_on_c, 9, 44, 72
1, 417840, Note_off_c, 9, 35, 64
1, 417840, Note_off_c, 9, 57, 64
1, 417840, Note_off_c, 9, 44, 64
1, 417840, Note_on_c, 9, 35, 72
1, 418080, Note_off_c, 9, 35, 64
1, 418080, Note_on_c, 9, 38, 72
1, 418080, Note_on_c, 9, 57, 72
1, 418080, Note_on_c, 9, 44, 72
1, 418320, Note_off_c, 9, 38, 64
1, 418320, Note_off_c, 9, 57, 64
1, 418320, Note_off_c, 9, 44, 64
1, 418320, Note_on_c, 9, 35, 72
1, 418560, Note_off_c, 9, 35, 64
1, 418560, Note_on_c, 9, 35, 72
1, 418560, Note_on_c, 9, 44, 72
1, 418800, Note_off_c, 9, 35, 64
1, 418800, Note_off_c, 9, 44, 64
1, 418800, Note_on_c, 9, 35, 72
1, 419040, Note_off_c, 9, 35, 64
1, 419040, Note_on_c, 9, 38, 72
1, 419040, Note_on_c, 9, 44, 72
1, 419280, Note_off_c, 9, 38, 64
1, 419280, Note_off_c, 9, 44, 64
1, 419280, Note_on_c, 9, 35, 72
1, 419520, Note_off_c, 9, 35, 64
1, 419520, Note_on_c, 9, 35, 72
1, 419520, Note_on_c, 9, 44, 72
1, 419760, Note_off_c, 9, 35, 64
1, 419760, Note_off_c, 9, 44, 64
1, 419760, Note_on_c, 9, 35, 72
1, 420000, Note_off_c, 9, 35, 64
1, 420000, Note_on_c, 9, 38, 72
1, 420000, Note_on_c, 9, 44, 72
1, 420240, Note_off_c, 9, 38, 64
1, 420240, Note_off_c, 9, 44, 64
1, 420240, Note_on_c, 9, 35, 72
1, 420480, Note_off_c, 9, 35, 64
1, 420480, Note_on_c, 9, 35, 72
1, 420480, Note_on_c, 9, 44, 72
1, 420720, Note_off_c, 9, 35, 64
1, 420720, Note_off_c, 9, 44, 64
1, 420720, Note_on_c, 9, 35, 72
1, 420960, Note_off_c, 9, 35, 64
1, 420960, Note_on_c, 9, 38, 72
1, 420960, Note_on_c, 9, 44, 72
1, 421200, Note_off_c, 9, 38, 64
1, 421200, Note_off_c, 9, 44, 64
1, 421200, Note_on_c, 9, 35, 72
1, 421440, Note_off_c, 9, 35, 64
1, 421440, Note_on_c, 9, 35, 72
1, 421440, Note_on_c, 9, 44, 72
1, 421680, Note_off_c, 9, 35, 64
1, 421680, Note_off_c, 9, 44, 64
1, 421680, Note_on_c, 9, 35, 72
1, 421920, Note_off_c, 9, 35, 64
1, 421920, Note_on_c, 9, 38, 72
1, 421920, Note_on_c, 9, 44, 72
1, 422160, Note_off_c, 9, 38, 64
1, 422160, Note_off_c, 9, 44, 64
1, 422160, Note_on_c, 9, 35, 72
1, 422400, Note_off_c, 9, 35, 64
1, 422400, Note_on_c, 9, 35, 72
1, 422400, Note_on_c, 9, 57, 72
1, 422400, Note_on_c, 9, 44, 72
1, 422640, Note_off_c, 9, 35, 64
1, 422640, Note_off_c, 9, 57, 64
1, 422640, Note_off_c, 9, 44, 64
1, 422640, Note_on_c, 9, 35, 72
1, 422880, Note_off_c, 9, 35, 64
1, 422880, Note_on_c, 9, 38, 72
1, 422880, Note_on_c, 9, 57, 72
1, 422880, Note_on_c, 9, 44, 72
1, 423120, Note_off_c, 9, 38, 64
1, 423120, Note_off_c, 9, 57, 64
1, 423120, Note_off_c, 9, 44, 64
1, 423120, Note_on_c, 9, 35, 72
1, 423360, Note_off_c, 9, 35, 64
1, 423360, Note_on_c, 9, 35, 72
1, 423360, Note_on_c, 9, 57, 72
1, 423360, Note_on_c, 9, 44, 72
1, 423600, Note_off_c, 9, 35, 64
1, 423600, Note_off_c, 9, 57, 64
1, 423600, Note_off_c, 9, 44, 64
1, 423600, Note_on_c, 9, 35, 72
1, 423840, Note_off_c, 9, 35, 64
1, 423840, Note_on_c, 9, 38, 72
1, 423840, Note_on_c, 9, 57, 72
1, 423840, Note_on_c, 9, 44, 72
1, 424080, Note_off_c, 9, 38, 64
1, 424080, Note_off_c, 9, 57, 64
1, 424080, Note_off_c, 9, 44, 64
1, 424080, Note_on_c, 9, 35, 72
1, 424320, Note_off_c, 9, 35, 64
1, 424320, Note_on_c, 9, 35, 72
1, 424320, Note_on_c, 9, 57, 72
1, 424320, Note_on_c, 9, 44, 72
1, 424560, Note_off_c, 9, 35, 64
1, 424560, Note_off_c, 9, 57, 64
1, 424560, Note_off_c, 9, 44, 64
1, 424560, Note_on_c, 9, 35, 72
1, 424800, Note_off_c, 9, 35, 64
1, 424800, Note_on_c, 9, 38, 72
1, 424800, Note_on_c, 9, 57, 72
1, 424800, Note_on_c, 9, 44, 72
1, 425040, Note_off_c, 9, 38, 64
1, 425040, Note_off_c, 9, 57, 64
1, 425040, Note_off_c, 9, 44, 64
1, 425040, Note_on_c, 9, 35, 72
1, 425280, Note_off_c, 9, 35, 64
1, 425280, Note_on_c, 9, 35, 72
1, 425280, Note_on_c, 9, 57, 72
1, 425280, Note_on_c, 9, 44, 72
1, 425520, Note_off_c, 9, 35, 64
1, 425520, Note_off_c, 9, 57, 64
1, 425520, Note_off_c, 9, 44, 64
1, 425520, Note_on_c, 9, 35, 72
1, 425760, Note_off_c, 9, 35, 64
1, 425760, Note_on_c, 9, 38, 72
1, 425760, Note_on_c, 9, 57, 72
1, 425760, Note_on_c, 9, 44, 72
1, 426000, Note_off_c, 9, 38, 64
1, 426000, Note_off_c, 9, 57, 64
1, 426000, Note_off_c, 9, 44, 64
1, 426000, Note_on_c, 9, 35, 72
1, 426240, Note_off_c, 9, 35, 64
1, 426240, Note_on_c, 9, 35, 72
1, 426240, Note_on_c, 9, 44, 72
1, 426480, Note_off_c, 9, 35, 64
1, 426480, Note_off_c, 9, 44, 64
1, 426480, Note_on_c, 9, 35, 72
1, 426720, Note_off_c, 9, 35, 64
1, 426720, Note_on_c, 9, 38, 72
1, 426720, Note_on_c, 9, 44, 72
1, 426960, Note_off_c, 9, 38, 64
1, 426960, Note_off_c, 9, 44, 64
1, 426960, Note_on_c, 9, 35, 72
1, 427200, Note_off_c, 9, 35, 64
1, 427200, Note_on_c, 9, 35, 72
1, 427200, Note_on_c, 9, 44, 72
1, 427440, Note_off_c, 9, 35, 64
1, 427440, Note_off_c, 9, 44, 64
1, 427440, Note_on_c, 9, 35, 72
1, 427680, Note_off_c, 9, 35, 64
1, 427680, Note_on_c, 9, 38, 72
1, 427680, Note_on_c, 9, 44, 72
1, 427920, Note_off_c, 9, 38, 64
1, 427920, Note_off_c, 9, 44, 64
1, 427920, Note_on_c, 9, 35, 72
1, 428160, Note_off_c, 9, 35, 64
1, 428160, Note_on_c, 9, 35, 72
1, 428160, Note_on_c, 9, 44, 72
1, 428400, Note_off_c, 9, 35, 64
1, 428400, Note_off_c, 9, 44, 64
1, 428400, Note_on_c, 9, 35, 72
1, 428640, Note_off_c, 9, 35, 64
1, 428640, Note_on_c, 9, 38, 72
1, 428640, Note_on_c, 9, 44, 72
1, 428880, Note_off_c, 9, 38, 64
1, 428880, Note_off_c, 9, 44, 64
1, 428880, Note_on_c, 9, 35, 72
1, 429120, Note_off_c, 9, 35, 64
1, 429120, Note_on_c, 9, 35, 72
1, 429120, Note_on_c, 9, 44, 72
1, 429360, Note_off_c, 9, 35, 64
1, 429360, Note_off_c, 9, 44, 64
1, 429360, Note_on_c, 9, 35, 72
1, 429600, Note_off_c, 9, 35, 64
1, 429600, Note_on_c, 9, 38, 72
1, 429600, Note_on_c, 9, 44, 72
1, 429840, Note_off_c, 9, 38, 64
1, 429840, Note_off_c, 9, 44, 64
1, 429840, Note_on_c, 9, 35, 72
1, 430080, Note_off_c, 9, 35, 64
1, 430080, Note_on_c, 9, 35, 72
1, 430080, Note_on_c, 9, 57, 72
1, 430080, Note_on_c, 9, 44, 72
1, 430320, Note_off_c, 9, 35, 64
1, 430320, Note_off_c, 9, 57, 64
1, 430320, Note_off_c, 9, 44, 64
1, 430320, Note_on_c, 9, 35, 72
1, 430560, Note_off_c, 9, 35, 64
1, 430560, Note_on_c, 9, 38, 72
1, 430560, Note_on_c, 9, 57, 72
1, 430560, Note_on_c, 9, 44, 72
1, 430800, Note_off_c, 9, 38, 64
1, 430800, Note_off_c, 9, 57, 64
1, 430800, Note_off_c, 9, 44, 64
1, 430800, Note_on_c, 9, 35, 72
1, 431040, Note_off_c, 9, 35, 64
1, 431040, Note_on_c, 9, 35, 72
1, 431040, Note_on_c, 9, 57, 72
1, 431040, Note_on_c, 9, 44, 72
1, 431280, Note_off_c, 9, 35, 64
1, 431280, Note_off_c, 9, 57, 64
1, 431280, Note_off_c, 9, 44, 64
1, 431280, Note_on_c, 9, 35, 72
1, 431520, Note_off_c, 9, 35, 64
1, 431520, Note_on_c, 9, 38, 72
1, 431520, Note_on_c, 9, 57, 72
1, 431520, Note_on_c, 9, 44, 72
1, 431760, Note_off_c, 9, 38, 64
1, 431760, Note_off_c, 9, 57, 64
1, 431760, Note_off_c, 9, 44, 64
1, 431760, Note_on_c, 9, 35, 72
1, 432000, Note_off_c, 9, 35, 64
1, 432000, Note_on_c, 9, 35, 72
1, 432000, Note_on_c, 9, 57, 72
1, 432000, Note_on_c, 9, 44, 72
1, 432240, Note_off_c, 9, 35, 64
1, 432240, Note_off_c, 9, 57, 64
1, 432240, Note_off_c, 9, 44, 64
1, 432240, Note_on_c, 9, 35, 72
1, 432480, Note_off_c, 9, 35, 64
1, 432480, Note_on_c, 9, 38, 72
1, 432480, Note_on_c, 9, 57, 72
1, 432480, Note_on_c, 9, 44, 72
1, 432720, Note_off_c, 9, 38, 64
1, 432720, Note_off_c, 9, 57, 64
1, 432720, Note_off_c, 9, 44, 64
1, 432720, Note_on_c, 9, 35, 72
1, 432960, Note_off_c, 9, 35, 64
1, 432960, Note_on_c, 9, 35, 72
1, 432960, Note_on_c, 9, 57, 72
1, 432960, Note_on_c, 9, 44, 72
1, 433200, Note_off_c, 9, 35, 64
1, 433200, Note_off_c, 9, 57, 64
1, 433200, Note_off_c, 9, 44, 64
1, 433200, Note_on_c, 9, 35, 72
1, 433440, Note_off_c, 9, 35, 64
1, 433440, Note_on_c, 9, 38, 72
1, 433440, Note_on_c, 9, 57, 72
1, 433440, Note_on_c, 9, 44, 72
1, 433680, Note_off_c, 9, 38, 64
1, 433680, Note_off_c, 9, 57, 64
1, 433680, Note_off_c, 9, 44, 64
1, 433680, Note_on_c, 9, 35, 72
1, 433920, Note_off_c, 9, 35, 64
1, 433920, Note_on_c, 9, 35, 72
1, 433920, Note_on_c, 9, 44, 72
1, 434160, Note_off_c, 9, 35, 64
1, 434160, Note_off_c, 9, 44, 64
1, 434160, Note_on_c, 9, 35, 72
1, 434400, Note_off_c, 9, 35, 64
1, 434400, Note_on_c, 9, 38, 72
1, 434400, Note_on_c, 9, 44, 72
1, 434640, Note_off_c, 9, 38, 64
1, 434640, Note_off_c, 9, 44, 64
1, 434640, Note_on_c, 9, 35, 72
1, 434880, Note_off_c, 9, 35, 64
1, 434880, Note_on_c, 9, 35, 72
1, 434880, Note_on_c, 9, 44, 72
1, 435120, Note_off_c, 9, 35, 64
1, 435120, Note_off_c, 9, 44, 64
1, 435120, Note_on_c, 9, 35, 72
1, 435360, Note_off_c, 9, 35, 64
1, 435360, Note_on_c, 9, 38, 72
1, 435360, Note_on_c, 9, 44, 72
1, 435600, Note_off_c, 9, 38, 64
1, 435600, Note_off_c, 9, 44, 64
1, 435600, Note_on_c, 9, 35, 72
1, 435840, Note_off_c, 9, 35, 64
1, 435840, Note_on_c, 9, 35, 72
1, 435840, Note_on_c, 9, 44, 72
1, 436080, Note_off_c, 9, 35, 64
1, 436080, Note_off_c, 9, 44, 64
1, 436080, Note_on_c, 9, 35, 72
1, 436320, Note_off_c, 9, 35, 64
1, 436320, Note_on_c, 9, 38, 72
1, 436320, Note_on_c, 9, 44, 72
1, 436560, Note_off_c, 9, 38, 64
1, 436560, Note_off_c, 9, 44, 64
1, 436560, Note_on_c, 9, 35, 72
1, 436800, Note_off_c, 9, 35, 64
1, 436800, Note_on_c, 9, 35, 72
1, 436800, Note_on_c, 9, 44, 72
1, 437040, Note_off_c, 9, 35, 64
1, 437040, Note_off_c, 9, 44, 64
1, 437040, Note_on_c, 9, 35, 72
1, 437280, Note_off_c, 9, 35, 64
1, 437280, Note_on_c, 9, 38, 72
1, 437280, Note_on_c, 9, 44, 72
1, 437520, Note_off_c, 9, 38, 64
1, 437520, Note_off_c, 9, 44, 64
1, 437520, Note_on_c, 9, 35, 72
1, 437760, Note_off_c, 9, 35, 64
1, 437760, Note_on_c, 9, 35, 72
1, 437760, Note_on_c, 9, 57, 72
1, 437760, Note_on_c, 9, 44, 72
1, 438000, Note_off_c, 9, 35, 64
1, 438000, Note_off_c, 9, 57, 64
1, 438000, Note_off_c, 9, 44, 64
1, 438000, Note_on_c, 9, 35, 72
1, 438240, Note_off_c, 9, 35, 64
1, 438240, Note_on_c, 9, 38, 72
1, 438240, Note_on_c, 9, 57, 72
1, 438240, Note_on_c, 9, 44, 72
1, 438480, Note_off_c, 9, 38, 64
1, 438480, Note_off_c, 9, 57, 64
1, 438480, Note_off_c, 9, 44, 64
1, 438480, Note_on_c, 9, 35, 72
1, 438720, Note_off_c, 9, 35, 64
1, 438720, Note_on_c, 9, 35, 72
1, 438720, Note_on_c, 9, 57, 72
1, 438720, Note_on_c, 9, 44, 72
1, 438960, Note_off_c, 9, 35, 64
1, 438960, Note_off_c, 9, 57, 64
1, 438960, Note_off_c, 9, 44, 64
1, 438960, Note_on_c, 9, 35, 72
1, 439200, Note_off_c, 9, 35, 64
1, 439200, Note_on_c, 9, 38, 72
1, 439200, Note_on_c, 9, 57, 72
1, 439200, Note_on_c, 9, 44, 72
1, 439440, Note_off_c, 9, 38, 64
1, 439440, Note_off_c, 9, 57, 64
1, 439440, Note_off_c, 9, 44, 64
1, 439440, Note_on_c, 9, 35, 72
1, 439680, Note_off_c, 9, 35, 64
1, 439680, Note_on_c, 9, 35, 72
1, 439680, Note_on_c, 9, 57, 72
1, 439680, Note_on_c, 9, 44, 72
1, 439920, Note_off_c, 9, 35, 64
1, 439920, Note_off_c, 9, 57, 64
1, 439920, Note_off_c, 9, 44, 64
1, 439920, Note_on_c, 9, 35, 72
1, 440160, Note_off_c, 9, 35, 64
1, 440160, Note_on_c, 9, 38, 72
1, 440160, Note_on_c, 9, 57, 72
1, 440160, Note_on_c, 9, 44, 72
1, 440400, Note_off_c, 9, 38, 64
1, 440400, Note_off_c, 9, 57, 64
1, 440400, Note_off_c, 9, 44, 64
1, 440400, Note_on_c, 9, 35, 72
1, 440640, Note_off_c, 9, 35, 64
1, 440640, Note_on_c, 9, 35, 72
1, 440640, Note_on_c, 9, 57, 72
1, 440640, Note_on_c, 9, 44, 72
1, 440880, Note_off_c, 9, 35, 64
1, 440880, Note_off_c, 9, 57, 64
1, 440880, Note_off_c, 9, 44, 64
1, 440880, Note_on_c, 9, 35, 72
1, 441120, Note_off_c, 9, 35, 64
1, 441120, Note_on_c, 9, 38, 72
1, 441120, Note_on_c, 9, 57, 72
1, 441120, Note_on_c, 9, 44, 72
1, 441360, Note_off_c, 9, 38, 64
1, 441360, Note_off_c, 9, 57, 64
1, 441360, Note_off_c, 9, 44, 64
1, 441360, Note_on_c, 9, 35, 72
1, 441600, Note_off_c, 9, 35, 64
1, 441600, Note_on_c, 9, 35, 72
1, 441600, Note_on_c, 9, 44, 72
1, 441840, Note_off_c, 9, 35, 64
1, 441840, Note_off_c, 9, 44, 64
1, 441840, Note_on_c, 9, 35, 72
1, 442080, Note_off_c, 9, 35, 64
1, 442080, Note_on_c, 9, 38, 72
1, 442080, Note_on_c, 9, 44, 72
1, 442320, Note_off_c, 9, 38, 64
1, 442320, Note_off_c, 9, 44, 64
1, 442320, Note_on_c, 9, 35, 72
1, 442560, Note_off_c, 9, 35, 64
1, 442560, Note_on_c, 9, 35, 72
1, 442560, Note_on_c, 9, 44, 72
1, 442800, Note_off_c, 9, 35, 64
1, 442800, Note_off_c, 9, 44, 64
1, 442800, Note_on_c, 9, 35, 72
1, 443040, Note_off_c, 9, 35, 64
1, 443040, Note_on_c, 9, 38, 72
1, 443040, Note_on_c, 9, 44, 72
1, 443280, Note_off_c, 9, 38, 64
1, 443280, Note_off_c, 9, 44, 64
1, 443280, Note_on_c, 9, 35, 72
1, 443520, Note_off_c, 9, 35, 64
1, 443520, Note_on_c, 9, 35, 72
1, 443520, Note_on_c, 9, 44, 72
1, 443760, Note_off_c, 9, 35, 64
1, 443760, Note_off_c, 9, 44, 64
1, 443760, Note_on_c, 9, 35, 72
1, 444000, Note_off_c, 9, 35, 64
1, 444000, Note_on_c, 9, 38, 72
1, 444000, Note_on_c, 9, 44, 72
1, 444240, Note_off_c, 9, 38, 64
1, 444240, Note_off_c, 9, 44, 64
1, 444240, Note_on_c, 9, 35, 72
1, 444480, Note_off_c, 9, 35, 64
1, 444480, Note_on_c, 9, 35, 72
1, 444480, Note_on_c, 9, 44, 72
1, 444720, Note_off_c, 9, 35, 64
1, 444720, Note_off_c, 9, 44, 64
1, 444720, Note_on_c, 9, 35, 72
1, 444960, Note_off_c, 9, 35, 64
1, 444960, Note_on_c, 9, 38, 72
1, 444960, Note_on_c, 9, 44, 72
1, 445200, Note_off_c, 9, 38, 64
1, 445200, Note_off_c, 9, 44, 64
1, 445200, Note_on_c, 9, 35, 72
1, 445440, Note_off_c, 9, 35, 64
1, 445440, Note_on_c, 9, 35, 72
1, 445440, Note_on_c, 9, 57, 72
1, 445440, Note_on_c, 9, 44, 72
1, 445680, Note_off_c, 9, 35, 64
1, 445680, Note_off_c, 9, 57, 64
1, 445680, Note_off_c, 9, 44, 64
1, 445680, Note_on_c, 9, 35, 72
1, 445920, Note_off_c, 9, 35, 64
1, 445920, Note_on_c, 9, 38, 72
1, 445920, Note_on_c, 9, 57, 72
1, 445920, Note_on_c, 9, 44, 72
1, 446160, Note_off_c, 9, 38, 64
1, 446160, Note_off_c, 9, 57, 64
1, 446160, Note_off_c, 9, 44, 64
1, 446160, Note_on_c, 9, 35, 72
1, 446400, Note_off_c, 9, 35, 64
1, 446400, Note_on_c, 9, 35, 72
1, 446400, Note_on_c, 9, 57, 72
1, 446400, Note_on_c, 9, 44, 72
1, 446640, Note_off_c, 9, 35, 64
1, 446640, Note_off_c, 9, 57, 64
1, 446640, Note_off_c, 9, 44, 64
1, 446640, Note_on_c, 9, 35, 72
1, 446880, Note_off_c, 9, 35, 64
1, 446880, Note_on_c, 9, 38, 72
1, 446880, Note_on_c, 9, 57, 72
1, 446880, Note_on_c, 9, 44, 72
1, 447120, Note_off_c, 9, 38, 64
1, 447120, Note_off_c, 9, 57, 64
1, 447120, Note_off_c, 9, 44, 64
1, 447120, Note_on_c, 9, 35, 72
1, 447360, Note_off_c, 9, 35, 64
1, 447360, Note_on_c, 9, 35, 72
1, 447360, Note_on_c, 9, 57, 72
1, 447360, Note_on_c, 9, 44, 72
1, 447600, Note_off_c, 9, 35, 64
1, 447600, Note_off_c, 9, 57, 64
1, 447600, Note_off_c, 9, 44, 64
1, 447600, Note_on_c, 9, 35, 72
1, 447840, Note_off_c, 9, 35, 64
1, 447840, Note_on_c, 9, 38, 72
1, 447840, Note_on_c, 9, 57, 72
1, 447840, Note_on_c, 9, 44, 72
1, 448080, Note_off_c, 9, 38, 64
1, 448080, Note_off_c, 9, 57, 64
1, 448080, Note_off_c, 9, 44, 64
1, 448080, Note_on_c, 9, 35, 72
1, 448320, Note_off_c, 9, 35, 64
1, 448320, Note_on_c, 9, 35, 72
1, 448320, Note_on_c, 9, 57, 72
1, 448320, Note_on_c, 9, 44, 72
1, 448560, Note_off_c, 9, 35, 64
1, 448560, Note_off_c, 9, 57, 64
1, 448560, Note_off_c, 9, 44, 64
1, 448560, Note_on_c, 9, 35, 72
1, 448800, Note_off_c, 9, 35, 64
1, 448800, Note_on_c, 9, 38, 72
1, 448800, Note_on_c, 9, 57, 72
1, 448800, Note_on_c, 9, 44, 72
1, 449040, Note_off_c, 9, 38, 64
1, 449040, Note_off_c, 9, 57, 64
1, 449040, Note_off_c, 9, 44, 64
1, 449040, Note_on_c, 9, 35, 72
1, 449280, Note_off_c, 9, 35, 64
1, 449280, Note_on_c, 9, 35, 72
1, 449280, Note_on_c, 9, 44, 72
1, 449520, Note_off_c, 9, 35, 64
1, 449520, Note_off_c, 9, 44, 64
1, 449520, Note_on_c, 9, 35, 72
1, 449760, Note_off_c, 9, 35, 64
1, 449760, Note_on_c, 9, 38, 72
1, 449760, Note_on_c, 9, 44, 72
1, 450000, Note_off_c, 9, 38, 64
1, 450000, Note_off_c, 9, 44, 64
1, 450000, Note_on_c, 9, 35, 72
1, 450240, Note_off_c, 9, 35, 64
1, 450240, Note_on_c, 9, 35, 72
1, 450240, Note_on_c, 9, 44, 72
1, 450480, Note_off_c, 9, 35, 64
1, 450480, Note_off_c, 9, 44, 64
1, 450480, Note_on_c, 9, 35, 72
1, 450720, Note_off_c, 9, 35, 64
1, 450720, Note_on_c, 9, 38, 72
1, 450720, Note_on_c, 9, 44, 72
1, 450960, Note_off_c, 9, 38, 64
1, 450960, Note_off_c, 9, 44, 64
1, 450960, Note_on_c, 9, 35, 72
1, 451200, Note_off_c, 9, 35, 64
1, 451200, Note_on_c, 9, 35, 72
1, 451200, Note_on_c, 9, 44, 72
1, 451440, Note_off_c, 9, 35, 64
1, 451440, Note_off_c, 9, 44, 64
1, 451440, Note_on_c, 9, 35, 72
1, 451680, Note_off_c, 9, 35, 64
1, 451680, Note_on_c, 9, 38, 72
1, 451680, Note_on_c, 9, 44, 72
1, 451920, Note_off_c, 9, 38, 64
1, 451920, Note_off_c, 9, 44, 64
1, 451920, Note_on_c, 9, 35, 72
1, 452160, Note_off_c, 9, 35, 64
1, 452160, Note_on_c, 9, 35, 72
1, 452160, Note_on_c, 9, 44, 72
1, 452400, Note_off_c, 9, 35, 64
1, 452400, Note_off_c, 9, 44, 64
1, 452400, Note_on_c, 9, 35, 72
1, 452640, Note_off_c, 9, 35, 64
1, 452640, Note_on_c, 9, 38, 72
1, 452640, Note_on_c, 9, 44, 72
1, 452880, Note_off_c, 9, 38, 64
1, 452880, Note_off_c, 9, 44, 64
1, 452880, Note_on_c, 9, 35, 72
1, 453120, Note_off_c, 9, 35, 64
1, 453120, Note_on_c, 9, 35, 72
1, 453120, Note_on_c, 9, 57, 72
1, 453120, Note_on_c, 9, 44, 72
1, 453360, Note_off_c, 9, 35, 64
1, 453360, Note_off_c, 9, 57, 64
1, 453360, Note_off_c, 9, 44, 64
1, 453360, Note_on_c, 9, 35, 72
1, 453600, Note_off_c, 9, 35, 64
1, 453600, Note_on_c, 9, 38, 72
1, 453600, Note_on_c, 9, 57, 72
1, 453600, Note_on_c, 9, 44, 72
1, 453840, Note_off_c, 9, 38, 64
1, 453840, Note_off_c, 9, 57, 64
1, 453840, Note_off_c, 9, 44, 64
1, 453840, Note_on_c, 9, 35, 72
1, 454080, Note_off_c, 9, 35, 64
1, 454080, Note_on_c, 9, 35, 72
1, 454080, Note_on_c, 9, 57, 72
1, 454080, Note_on_c, 9, 44, 72
1, 454320, Note_off_c, 9, 35, 64
1, 454320, Note_off_c, 9, 57, 64
1, 454320, Note_off_c, 9, 44, 64
1, 454320, Note_on_c, 9, 35, 72
1, 454560, Note_off_c, 9, 35, 64
1, 454560, Note_on_c, 9, 38, 72
1, 454560, Note_on_c, 9, 57, 72
1, 454560, Note_on_c, 9, 44, 72
1, 454800, Note_off_c, 9, 38, 64
1, 454800, Note_off_c, 9, 57, 64
1, 454800, Note_off_c, 9, 44, 64
1, 454800, Note_on_c, 9, 35, 72
1, 455040, Note_off_c, 9, 35, 64
1, 455040, Note_on_c, 9, 35, 72
1, 455040, Note_on_c, 9, 57, 72
1, 455040, Note_on_c, 9, 44, 72
1, 455280, Note_off_c, 9, 35, 64
1, 455280, Note_off_c, 9, 57, 64
1, 455280, Note_off_c, 9, 44, 64
1, 455280, Note_on_c, 9, 35, 72
1, 455520, Note_off_c, 9, 35, 64
1, 455520, Note_on_c, 9, 38, 72
1, 455520, Note_on_c, 9, 57, 72
1, 455520, Note_on_c, 9, 44, 72
1, 455760, Note_off_c, 9, 38, 64
1, 455760, Note_off_c, 9, 57, 64
1, 455760, Note_off_c, 9, 44, 64
1, 455760, Note_on_c, 9, 35, 72
1, 456000, Note_off_c, 9, 35, 64
1, 456000, Note_on_c, 9, 35, 72
1, 456000, Note_on_c, 9, 57, 72
1, 456000, Note_on_c, 9, 44, 72
1, 456240, Note_off_c, 9, 35, 64
1, 456240, Note_off_c, 9, 57, 64
1, 456240, Note_off_c, 9, 44, 64
1, 456240, Note_on_c, 9, 35, 72
1, 456480, Note_off_c, 9, 35, 64
1, 456480, Note_on_c, 9, 38, 72
1, 456480, Note_on_c, 9, 57, 72
1, 456480, Note_on_c, 9, 44, 72
1, 456720, Note_off_c, 9, 38, 64
1, 456720, Note_off_c, 9, 57, 64
1, 456720, Note_off_c, 9, 44, 64
1, 456720, Note_on_c, 9, 35, 72
1, 456960, Note_off_c, 9, 35, 64
1, 456960, Note_on_c, 9, 35, 72
1, 456960, Note_on_c, 9, 44, 72
1, 457200, Note_off_c, 9, 35, 64
1, 457200, Note_off_c, 9, 44, 64
1, 457200, Note_on_c, 9, 35, 72
1, 457440, Note_off_c, 9, 35, 64
1, 457440, Note_on_c, 9, 38, 72
1, 457440, Note_on_c, 9, 44, 72
1, 457680, Note_off_c, 9, 38, 64
1, 457680, Note_off_c, 9, 44, 64
1, 457680, Note_on_c, 9, 35, 72
1, 457920, Note_off_c, 9, 35, 64
1, 457920, Note_on_c, 9, 35, 72
1, 457920, Note_on_c, 9, 44, 72
1, 458160, Note_off_c, 9, 35, 64
1, 458160, Note_off_c, 9, 44, 64
1, 458160, Note_on_c, 9, 35, 72
1, 458400, Note_off_c, 9, 35, 64
1, 458400, Note_on_c, 9, 38, 72
1, 458400, Note_on_c, 9, 44, 72
1, 458640, Note_off_c, 9, 38, 64
1, 458640, Note_off_c, 9, 44, 64
1, 458640, Note_on_c, 9, 35, 72
1, 458880, Note_off_c, 9, 35, 64
1, 458880, Note_on_c, 9, 35, 72
1, 458880, Note_on_c, 9, 44, 72
1, 459120, Note_off_c, 9, 35, 64
1, 459120, Note_off_c, 9, 44, 64
1, 459120, Note_on_c, 9, 35, 72
1, 459360, Note_off_c, 9, 35, 64
1, 459360, Note_on_c, 9, 38, 72
1, 459360, Note_on_c, 9, 44, 72
1, 459600, Note_off_c, 9, 38, 64
1, 459600, Note_off_c, 9, 44, 64
1, 459600, Note_on_c, 9, 35, 72
1, 459840, Note_off_c, 9, 35, 64
1, 459840, Note_on_c, 9, 35, 72
1, 459840, Note_on_c, 9, 44, 72
1, 460080, Note_off_c, 9, 35, 64
1, 460080, Note_off_c, 9, 44, 64
1, 460080, Note_on_c, 9, 35, 72
1, 460320, Note_off_c, 9, 35, 64
1, 460320, Note_on_c, 9, 38, 72
1, 460320, Note_on_c, 9, 44, 72
1, 460560, Note_off_c, 9, 38, 64
1, 460560, Note_off_c, 9, 44, 64
1, 460560, Note_on_c, 9, 35, 72
1, 460800, Note_off_c, 9, 35, 64
1, 460800, Note_on_c, 9, 35, 72
1, 460800, Note_on_c, 9, 57, 72
1, 460800, Note_on_c, 9, 44, 72
1, 461040, Note_off_c, 9, 35, 64
1, 461040, Note_off_c, 9, 57, 64
1, 461040, Note_off_c, 9, 44, 64
1, 461040, Note_on_c, 9, 35, 72
1, 461280, Note_off_c, 9, 35, 64
1, 461280, Note_on_c, 9, 38, 72
1, 461280, Note_on_c, 9, 57, 72
1, 461280, Note_on_c, 9, 44, 72
1, 461520, Note_off_c, 9, 38, 64
1, 461520, Note_off_c, 9, 57, 64
1, 461520, Note_off_c, 9, 44, 64
1, 461520, Note_on_c, 9, 35, 72
1, 461760, Note_off_c, 9, 35, 64
1, 461760, Note_on_c, 9, 35, 72
1, 461760, Note_on_c, 9, 57, 72
1, 461760, Note_on_c, 9, 44, 72
1, 462000, Note_off_c, 9, 35, 64
1, 462000, Note_off_c, 9, 57, 64
1, 462000, Note_off_c, 9, 44, 64
1, 462000, Note_on_c, 9, 35, 72
1, 462240, Note_off_c, 9, 35, 64
1, 462240, Note_on_c, 9, 38, 72
1, 462240, Note_on_c, 9, 57, 72
1, 462240, Note_on_c, 9, 44, 72
1, 462480, Note_off_c, 9, 38, 64
1, 462480, Note_off_c, 9, 57, 64
1, 462480, Note_off_c, 9, 44, 64
1, 462480, Note_on_c, 9, 35, 72
1, 462720, Note_off_c, 9, 35, 64
1, 462720, Note_on_c, 9, 35, 72
1, 462720, Note_on_c, 9, 57, 72
1, 462720, Note_on_c, 9, 44, 72
1, 462960, Note_off_c, 9, 35, 64
1, 462960, Note_off_c, 9, 57, 64
1, 462960, Note_off_c, 9, 44, 64
1, 462960, Note_on_c, 9, 35, 72
1, 463200, Note_off_c, 9, 35, 64
1, 463200, Note_on_c, 9, 38, 72
1, 463200, Note_on_c, 9, 57, 72
1, 463200, Note_on_c, 9, 44, 72
1, 463440, Note_off_c, 9, 38, 64
1, 463440, Note_off_c, 9, 57, 64
1, 463440, Note_off_c, 9, 44, 64
1, 463440, Note_on_c, 9, 35, 72
1, 463680, Note_off_c, 9, 35, 64
1, 463680, Note_on_c, 9, 35, 72
1, 463680, Note_on_c, 9, 57, 72
1, 463680, Note_on_c, 9, 44, 72
1, 463920, Note_off_c, 9, 35, 64
1, 463920, Note_off_c, 9, 57, 64
1, 463920, Note_off_c, 9, 44, 64
1, 463920, Note_on_c, 9, 35, 72
1, 464160, Note_off_c, 9, 35, 64
1, 464160, Note_on_c, 9, 38, 72
1, 464160, Note_on_c, 9, 57, 72
1, 464160, Note_on_c, 9, 44, 72
1, 464400, Note_off_c, 9, 38, 64
1, 464400, Note_off_c, 9, 57, 64
1, 464400, Note_off_c, 9, 44, 64
1, 464400, Note_on_c, 9, 35, 72
1, 464640, Note_off_c, 9, 35, 64
1, 464640, Note_on_c, 9, 35, 72
1, 464640, Note_on_c, 9, 44, 72
1, 464880, Note_off_c, 9, 35, 64
1, 464880, Note_off_c, 9, 44, 64
1, 464880, Note_on_c, 9, 35, 72
1, 465120, Note_off_c, 9, 35, 64
1, 465120, Note_on_c, 9, 38, 72
1, 465120, Note_on_c, 9, 44, 72
1, 465360, Note_off_c, 9, 38, 64
1, 465360, Note_off_c, 9, 44, 64
1, 465360, Note_on_c, 9, 35, 72
1, 465600, Note_off_c, 9, 35, 64
1, 465600, Note_on_c, 9, 35, 72
1, 465600, Note_on_c, 9, 44, 72
1, 465840, Note_off_c, 9, 35, 64
1, 465840, Note_off_c, 9, 44, 64
1, 465840, Note_on_c, 9, 35, 72
1, 466080, Note_off_c, 9, 35, 64
1, 466080, Note_on_c, 9, 38, 72
1, 466080, Note_on_c, 9, 44, 72
1, 466320, Note_off_c, 9, 38, 64
1, 466320, Note_off_c, 9, 44, 64
1, 466320, Note_on_c, 9, 35, 72
1, 466560, Note_off_c, 9, 35, 64
1, 466560, Note_on_c, 9, 35, 72
1, 466560, Note_on_c, 9, 44, 72
1, 466800, Note_off_c, 9, 35, 64
1, 466800, Note_off_c, 9, 44, 64
1, 466800, Note_on_c, 9, 35, 72
1, 467040, Note_off_c, 9, 35, 64
1, 467040, Note_on_c, 9, 38, 72
1, 467040, Note_on_c, 9, 44, 72
1, 467280, Note_off_c, 9, 38, 64
1, 467280, Note_off_c, 9, 44, 64
1, 467280, Note_on_c, 9, 35, 72
1, 467520, Note_off_c, 9, 35, 64
1, 467520, Note_on_c, 9, 35, 72
1, 467520, Note_on_c, 9, 44, 72
1, 467760, Note_off_c, 9, 35, 64
1, 467760, Note_off_c, 9, 44, 64
1, 467760, Note_on_c, 9, 35, 72
1, 468000, Note_off_c, 9, 35, 64
1, 468000, Note_on_c, 9, 38, 72
1, 468000, Note_on_c, 9, 44, 72
1, 468240, Note_off_c, 9, 38, 64
1, 468240, Note_off_c, 9, 44, 64
1, 468240, Note_on_c, 9, 35, 72
1, 468480, Note_off_c, 9, 35, 64
1, 468480, Note_on_c, 9, 35, 72
1, 468480, Note_on_c, 9, 57, 72
1, 468480, Note_on_c, 9, 44, 72
1, 468720, Note_off_c, 9, 35, 64
1, 468720, Note_off_c, 9, 57, 64
1, 468720, Note_off_c, 9, 44, 64
1, 468720, Note_on_c, 9, 35, 72
1, 468960, Note_off_c, 9, 35, 64
1, 468960, Note_on_c, 9, 38, 72
1, 468960, Note_on_c, 9, 57, 72
1, 468960, Note_on_c, 9, 44, 72
1, 469200, Note_off_c, 9, 38, 64
1, 469200, Note_off_c, 9, 57, 64
1, 469200, Note_off_c, 9, 44, 64
1, 469200, Note_on_c, 9, 35, 72
1, 469440, Note_off_c, 9, 35, 64
1, 469440, Note_on_c, 9, 35, 72
1, 469440, Note_on_c, 9, 57, 72
1, 469440, Note_on_c, 9, 44, 72
1, 469680, Note_off_c, 9, 35, 64
1, 469680, Note_off_c, 9, 57, 64
1, 469680, Note_off_c, 9, 44, 64
1, 469680, Note_on_c, 9, 35, 72
1, 469920, Note_off_c, 9, 35, 64
1, 469920, Note_on_c, 9, 38, 72
1, 469920, Note_on_c, 9, 57, 72
1, 469920, Note_on_c, 9, 44, 72
1, 470160, Note_off_c, 9, 38, 64
1, 470160, Note_off_c, 9, 57, 64
1, 470160, Note_off_c, 9, 44, 64
1, 470160, Note_on_c, 9, 35, 72
1, 470400, Note_off_c, 9, 35, 64
1, 470400, Note_on_c, 9, 35, 72
1, 470400, Note_on_c, 9, 57, 72
1, 470400, Note_on_c, 9, 44, 72
1, 470640, Note_off_c, 9, 35, 64
1, 470640, Note_off_c, 9, 57, 64
1, 470640, Note_off_c, 9, 44, 64
1, 470640, Note_on_c, 9, 35, 72
1, 470880, Note_off_c, 9, 35, 64
1, 470880, Note_on_c, 9, 38, 72
1, 470880, Note_on_c, 9, 57, 72
1, 470880, Note_on_c, 9, 44, 72
1, 471120, Note_off_c, 9, 38, 64
1, 471120, Note_off_c, 9, 57, 64
1, 471120, Note_off_c, 9, 44, 64
1, 471120, Note_on_c, 9, 35, 72
1, 471360, Note_off_c, 9, 35, 64
1, 471360, Note_on_c, 9, 35, 72
1, 471360, Note_on_c, 9, 57, 72
1, 471360, Note_on_c, 9, 44, 72
1, 471600, Note_off_c, 9, 35, 64
1, 471600, Note_off_c, 9, 57, 64
1, 471600, Note_off_c, 9, 44, 64
1, 471600, Note_on_c, 9, 35, 72
1, 471840, Note_off_c, 9, 35, 64
1, 471840, Note_on_c, 9, 38, 72
1, 471840, Note_on_c, 9, 57, 72
1, 471840, Note_on_c, 9, 44, 72
1, 472080, Note_off_c, 9, 38, 64
1, 472080, Note_off_c, 9, 57, 64
1, 472080, Note_off_c, 9, 44, 64
1, 472080, Note_on_c, 9, 35, 72
1, 472320, Note_off_c, 9, 35, 64
1, 472320, Note_on_c, 9, 35, 72
1, 472320, Note_on_c, 9, 44, 72
1, 472560, Note_off_c, 9, 35, 64
1, 472560, Note_off_c, 9, 44, 64
1, 472560, Note_on_c, 9, 35, 72
1, 472800, Note_off_c, 9, 35, 64
1, 472800, Note_on_c, 9, 38, 72
1, 472800, Note_on_c, 9, 44, 72
1, 473040, Note_off_c, 9, 38, 64
1, 473040, Note_off_c, 9, 44, 64
1, 473040, Note_on_c, 9, 35, 72
1, 473280, Note_off_c, 9, 35, 64
1, 473280, Note_on_c, 9, 35, 72
1, 473280, Note_on_c, 9, 44, 72
1, 473520, Note_off_c, 9, 35, 64
1, 473520, Note_off_c, 9, 44, 64
1, 473520, Note_on_c, 9, 35, 72
1, 473760, Note_off_c, 9, 35, 64
1, 473760, Note_on_c, 9, 38, 72
1, 473760, Note_on_c, 9, 44, 72
1, 474000, Note_off_c, 9, 38, 64
1, 474000, Note_off_c, 9, 44, 64
1, 474000, Note_on_c, 9, 35, 72
1, 474240, Note_off_c, 9, 35, 64
1, 474240, Note_on_c, 9, 35, 72
1, 474240, Note_on_c, 9, 44, 72
1, 474480, Note_off_c, 9, 35, 64
1, 474480, Note_off_c, 9, 44, 64
1, 474480, Note_on_c, 9, 35, 72
1, 474720, Note_off_c, 9, 35, 64
1, 474720, Note_on_c, 9, 38, 72
1, 474720, Note_on_c, 9, 44, 72
1, 474960, Note_off_c, 9, 38, 64
1, 474960, Note_off_c, 9, 44, 64
1, 474960, Note_on_c, 9, 35, 72
1, 475200, Note_off_c, 9, 35, 64
1, 475200, Note_on_c, 9, 35, 72
1, 475200, Note_on_c, 9, 44, 72
1, 475440, Note_off_c, 9, 35, 64
1, 475440, Note_off_c, 9, 44, 64
1, 475440, Note_on_c, 9, 35, 72
1, 475680, Note_off_c, 9, 35, 64
1, 475680, Note_on_c, 9, 38, 72
1, 475680, Note_on_c, 9, 44, 72
1, 475920, Note_off_c, 9, 38, 64
1, 475920, Note_off_c, 9, 44, 64
1, 475920, Note_on_c, 9, 35, 72
1, 476160, Note_off_c, 9, 35, 64
1, 476160, Note_on_c, 9, 35, 72
1, 476160, Note_on_c, 9, 57, 72
1, 476160, Note_on_c, 9, 44, 72
1, 476400, Note_off_c, 9, 35, 64
1, 476400, Note_off_c, 9, 57, 64
1, 476400, Note_off_c, 9, 44, 64
1, 476400, Note_on_c, 9, 35, 72
1, 476640, Note_off_c, 9, 35, 64
1, 476640, Note_on_c, 9, 38, 72
1, 476640, Note_on_c, 9, 57, 72
1, 476640, Note_on_c, 9, 44, 72
1, 476880, Note_off_c, 9, 38, 64
1, 476880, Note_off_c, 9, 57, 64
1, 476880, Note_off_c, 9, 44, 64
1, 476880, Note_on_c, 9, 35, 72
1, 477120, Note_off_c, 9, 35, 64
1, 477120, Note_on_c, 9, 35, 72
1, 477120, Note_on_c, 9, 57, 72
1, 477120, Note_on_c, 9, 44, 72
1, 477360, Note_off_c, 9, 35, 64
1, 477360, Note_off_c, 9, 57, 64
1, 477360, Note_off_c, 9, 44, 64
1, 477360, Note_on_c, 9, 35, 72
1, 477600, Note_off_c, 9, 35, 64
1, 477600, Note_on_c, 9, 38, 72
1, 477600, Note_on_c, 9, 57, 72
1, 477600, Note_on_c, 9, 44, 72
1, 477840, Note_off_c, 9, 38, 64
1, 477840, Note_off_c, 9, 57, 64
1, 477840, Note_off_c, 9, 44, 64
1, 477840, Note_on_c, 9, 35, 72
1, 478080, Note_off_c, 9, 35, 64
1, 478080, Note_on_c, 9, 35, 72
1, 478080, Note_on_c, 9, 57, 72
1, 478080, Note_on_c, 9, 44, 72
1, 478320, Note_off_c, 9, 35, 64
1, 478320, Note_off_c, 9, 57, 64
1, 478320, Note_off_c, 9, 44, 64
1, 478320, Note_on_c, 9, 35, 72
1, 478560, Note_off_c, 9, 35, 64
1, 478560, Note_on_c, 9, 38, 72
1, 478560, Note_on_c, 9, 57, 72
1, 478560, Note_on_c, 9, 44, 72
1, 478800, Note_off_c, 9, 38, 64
1, 478800, Note_off_c, 9, 57, 64
1, 478800, Note_off_c, 9, 44, 64
1, 478800, Note_on_c, 9, 35, 72
1, 479040, Note_off_c, 9, 35, 64
1, 479040, Note_on_c, 9, 35, 72
1, 479040, Note_on_c, 9, 57, 72
1, 479040, Note_on_c, 9, 44, 72
1, 479280, Note_off_c, 9, 35, 64
1, 479280, Note_off_c, 9, 57, 64
1, 479280, Note_off_c, 9, 44, 64
1, 479280, Note_on_c, 9, 35, 72
1, 479520, Note_off_c, 9, 35, 64
1, 479520, Note_on_c, 9, 38, 72
1, 479520, Note_on_c, 9, 57, 72
1, 479520, Note_on_c, 9, 44, 72
1, 479760, Note_off_c, 9, 38, 64
1, 479760, Note_off_c, 9, 57, 64
1, 479760, Note_off_c, 9, 44, 64
1, 479760, Note_on_c, 9, 35, 72
1, 480000, Note_off_c, 9, 35, 64
1, 480000, Note_on_c, 9, 35, 72
1, 480000, Note_on_c, 9, 44, 72
1, 480240, Note_off_c, 9, 35, 64
1, 480240, Note_off_c, 9, 44, 64
1, 480240, Note_on_c, 9, 35, 72
1, 480480, Note_off_c, 9, 35, 64
1, 480480, Note_on_c, 9, 38, 72
1, 480480, Note_on_c, 9, 44, 72
1, 480720, Note_off_c, 9, 38, 64
1, 480720, Note_off_c, 9, 44, 64
1, 480720, Note_on_c, 9, 35, 72
1, 480960, Note_off_c, 9, 35, 64
1, 480960, Note_on_c, 9, 35, 72
1, 480960, Note_on_c, 9, 44, 72
1, 481200, Note_off_c, 9, 35, 64
1, 481200, Note_off_c, 9, 44, 64
1, 481200, Note_on_c, 9, 35, 72
1, 481440, Note_off_c, 9, 35, 64
1, 481440, Note_on_c, 9, 38, 72
1, 481440, Note_on_c, 9, 44, 72
1, 481680, Note_off_c, 9, 38, 64
1, 481680, Note_off_c, 9, 44, 64
1, 481680, Note_on_c, 9, 35, 72
1, 481920, Note_off_c, 9, 35, 64
1, 481920, Note_on_c, 9, 35, 72
1, 481920, Note_on_c, 9, 44, 72
1, 482160, Note_off_c, 9, 35, 64
1, 482160, Note_off_c, 9, 44, 64
1, 482160, Note_on_c, 9, 35, 72
1, 482400, Note_off_c, 9, 35, 64
1, 482400, Note_on_c, 9, 38, 72
1, 482400, Note_on_c, 9, 44, 72
1, 482640, Note_off_c, 9, 38, 64
1, 482640, Note_off_c, 9, 44, 64
1, 482640, Note_on_c, 9, 35, 72
1, 482880, Note_off_c, 9, 35, 64
1, 482880, Note_on_c, 9, 35, 72
1, 482880, Note_on_c, 9, 44, 72
1, 483120, Note_off_c, 9, 35, 64
1, 483120, Note_off_c, 9, 44, 64
1, 483120, Note_on_c, 9, 35, 72
1, 483360, Note_off_c, 9, 35, 64
1, 483360, Note_on_c, 9, 38, 72
1, 483360, Note_on_c, 9, 44, 72
1, 483600, Note_off_c, 9, 38, 64
1, 483600, Note_off_c, 9, 44, 64
1, 483600, Note_on_c, 9, 35, 72
1, 483840, Note_off_c, 9, 35, 64
1, 483840, Note_on_c, 9, 35, 72
1, 483840, Note_on_c, 9, 57, 72
1, 483840, Note_on_c, 9, 44, 72
1, 484080, Note_off_c, 9, 35, 64
1, 484080, Note_off_c, 9, 57, 64
1, 484080, Note_off_c, 9, 44, 64
1, 484080, Note_on_c, 9, 35, 72
1, 484320, Note_off_c, 9, 35, 64
1, 484320, Note_on_c, 9, 38, 72
1, 484320, Note_on_c, 9, 57, 72
1, 484320, Note_on_c, 9, 44, 72
1, 484560, Note_off_c, 9, 38, 64
1, 484560, Note_off_c, 9, 57, 64
1, 484560, Note_off_c, 9, 44, 64
1, 484560, Note_on_c, 9, 35, 72
1, 484800, Note_off_c, 9, 35, 64
1, 484800, Note_on_c, 9, 35, 72
1, 484800, Note_on_c, 9, 57, 72
1, 484800, Note_on_c, 9, 44, 72
1, 485040, Note_off_c, 9, 35, 64
1, 485040, Note_off_c, 9, 57, 64
1, 485040, Note_off_c, 9, 44, 64
1, 485040, Note_on_c, 9, 35, 72
1, 485280, Note_off_c, 9, 35, 64
1, 485280, Note_on_c, 9, 38, 72
1, 485280, Note_on_c, 9, 57, 72
1, 485280, Note_on_c, 9, 44, 72
1, 485520, Note_off_c, 9, 38, 64
1, 485520, Note_off_c, 9, 57, 64
1, 485520, Note_off_c, 9, 44, 64
1, 485520, Note_on_c, 9, 35, 72
1, 485760, Note_off_c, 9, 35, 64
1, 485760, Note_on_c, 9, 35, 72
1, 485760, Note_on_c, 9, 57, 72
1, 485760, Note_on_c, 9, 44, 72
1, 486000, Note_off_c, 9, 35, 64
1, 486000, Note_off_c, 9, 57, 64
1, 486000, Note_off_c, 9, 44, 64
1, 486000, Note_on_c, 9, 35, 72
1, 486240, Note_off_c, 9, 35, 64
1, 486240, Note_on_c, 9, 38, 72
1, 486240, Note_on_c, 9, 57, 72
1, 486240, Note_on_c, 9, 44, 72
1, 486480, Note_off_c, 9, 38, 64
1, 486480, Note_off_c, 9, 57, 64
1, 486480, Note_off_c, 9, 44, 64
1, 486480, Note_on_c, 9, 35, 72
1, 486720, Note_off_c, 9, 35, 64
1, 486720, Note_on_c, 9, 35, 72
1, 486720, Note_on_c, 9, 57, 72
1, 486720, Note_on_c, 9, 44, 72
1, 486960, Note_off_c, 9, 35, 64
1, 486960, Note_off_c, 9, 57, 64
1, 486960, Note_off_c, 9, 44, 64
1, 486960, Note_on_c, 9, 35, 72
1, 487200, Note_off_c, 9, 35, 64
1, 487200, Note_on_c, 9, 38, 72
1, 487200, Note_on_c, 9, 57, 72
1, 487200, Note_on_c, 9, 44, 72
1, 487440, Note_off_c, 9, 38, 64
1, 487440, Note_off_c, 9, 57, 64
1, 487440, Note_off_c, 9, 44, 64
1, 487440, Note_on_c, 9, 35, 72
1, 487680, Note_off_c, 9, 35, 64
1, 487680, Note_on_c, 9, 35, 72
1, 487680, Note_on_c, 9, 44, 72
1, 487920, Note_off_c, 9, 35, 64
1, 487920, Note_off_c, 9, 44, 64
1, 487920, Note_on_c, 9, 35, 72
1, 488160, Note_off_c, 9, 35, 64
1, 488160, Note_on_c, 9, 38, 72
1, 488160, Note_on_c, 9, 44, 72
1, 488400, Note_off_c, 9, 38, 64
1, 488400, Note_off_c, 9, 44, 64
1, 488400, Note_on_c, 9, 35, 72
1, 488640, Note_off_c, 9, 35, 64
1, 488640, Note_on_c, 9, 35, 72
1, 488640, Note_on_c, 9, 44, 72
1, 488880, Note_off_c, 9, 35, 64
1, 488880, Note_off_c, 9, 44, 64
1, 488880, Note_on_c, 9, 35, 72
1, 489120, Note_off_c, 9, 35, 64
1, 489120, Note_on_c, 9, 38, 72
1, 489120, Note_on_c, 9, 44, 72
1, 489360, Note_off_c, 9, 38, 64
1, 489360, Note_off_c, 9, 44, 64
1, 489360, Note_on_c, 9, 35, 72
1, 489600, Note_off_c, 9, 35, 64
1, 489600, Note_on_c, 9, 35, 72
1, 489600, Note_on_c, 9, 44, 72
1, 489840, Note_off_c, 9, 35, 64
1, 489840, Note_off_c, 9, 44, 64
1, 489840, Note_on_c, 9, 35, 72
1, 490080, Note_off_c, 9, 35, 64
1, 490080, Note_on_c, 9, 38, 72
1, 490080, Note_on_c, 9, 44, 72
1, 490320, Note_off_c, 9, 38, 64
1, 490320, Note_off_c, 9, 44, 64
1, 490320, Note_on_c, 9, 35, 72
1, 490560, Note_off_c, 9, 35, 64
1, 490560, Note_on_c, 9, 35, 72
1, 490560, Note_on_c, 9, 44, 72
1, 490800, Note_off_c, 9, 35, 64
1, 490800, Note_off_c, 9, 44, 64
1, 490800, Note_on_c, 9, 35, 72
1, 491040, Note_off_c, 9, 35, 64
1, 491040, Note_on_c, 9, 38, 72
1, 491040, Note_on_c, 9, 44, 72
1, 491280, Note_off_c, 9, 38, 64
1, 491280, Note_off_c, 9, 44, 64
1, 491280, Note_on_c, 9, 35, 72
1, 491520, Note_off_c, 9, 35, 64
1, 491520, Note_on_c, 9, 35, 72
1, 491520, Note_on_c, 9, 57, 72
1, 491520, Note_on_c, 9, 44, 72
1, 491760, Note_off_c, 9, 35, 64
1, 491760, Note_off_c, 9, 57, 64
1, 491760, Note_off_c, 9, 44, 64
1, 491760, Note_on_c, 9, 35, 72
1, 492000, Note_off_c, 9, 35, 64
1, 492000, Note_on_c, 9, 38, 72
1, 492000, Note_on_c, 9, 57, 72
1, 492000, Note_on_c, 9, 44, 72
1, 492240, Note_off_c, 9, 38, 64
1, 492240, Note_off_c, 9, 57, 64
1, 492240, Note_off_c, 9, 44, 64
1, 492240, Note_on_c, 9, 35, 72
1, 492480, Note_off_c, 9, 35, 64
1, 492480, Note_on_c, 9, 35, 72
1, 492480, Note_on_c, 9, 57, 72
1, 492480, Note_on_c, 9, 44, 72
1, 492720, Note_off_c, 9, 35, 64
1, 492720, Note_off_c, 9, 57, 64
1, 492720, Note_off_c, 9, 44, 64
1, 492720, Note_on_c, 9, 35, 72
1, 492960, Note_off_c, 9, 35, 64
1, 492960, Note_on_c, 9, 38, 72
1, 492960, Note_on_c, 9, 57, 72
1, 492960, Note_on_c, 9, 44, 72
1, 493200, Note_off_c, 9, 38, 64
1, 493200, Note_off_c, 9, 57, 64
1, 493200, Note_off_c, 9, 44, 64
1, 493200, Note_on_c, 9, 35, 72
1, 493440, Note_off_c, 9, 35, 64
1, 493440, Note_on_c, 9, 35, 72
1, 493440, Note_on_c, 9, 57, 72
1, 493440, Note_on_c, 9, 44, 72
1, 493680, Note_off_c, 9, 35, 64
1, 493680, Note_off_c, 9, 57, 64
1, 493680, Note_off_c, 9, 44, 64
1, 493680, Note_on_c, 9, 35, 72
1, 493920, Note_off_c, 9, 35, 64
1, 493920, Note_on_c, 9, 38, 72
1, 493920, Note_on_c, 9, 57, 72
1, 493920, Note_on_c, 9, 44, 72
1, 494160, Note_off_c, 9, 38, 64
1, 494160, Note_off_c, 9, 57, 64
1, 494160, Note_off_c, 9, 44, 64
1, 494160, Note_on_c, 9, 35, 72
1, 494400, Note_off_c, 9, 35, 64
1, 494400, Note_on_c, 9, 35, 72
1, 494400, Note_on_c, 9, 57, 72
1, 494400, Note_on_c, 9, 44, 72
1, 494640, Note_off_c, 9, 35, 64
1, 494640, Note_off_c, 9, 57, 64
1, 494640, Note_off_c, 9, 44, 64
1, 494640, Note_on_c, 9, 35, 72
1, 494880, Note_off_c, 9, 35, 64
1, 494880, Note_on_c, 9, 38, 72
1, 494880, Note_on_c, 9, 57, 72
1, 494880, Note_on_c, 9, 44, 72
1, 495120, Note_off_c, 9, 38, 64
1, 495120, Note_off_c, 9, 57, 64
1, 495120, Note_off_c, 9, 44, 64
1, 495120, Note_on_c, 9, 35, 72
1, 495360, Note_off_c, 9, 35, 64
1, 495360, Note_on_c, 9, 35, 72
1, 495360, Note_on_c, 9, 44, 72
1, 495600, Note_off_c, 9, 35, 64
1, 495600, Note_off_c, 9, 44, 64
1, 495600, Note_on_c, 9, 35, 72
1, 495840, Note_off_c, 9, 35, 64
1, 495840, Note_on_c, 9, 38, 72
1, 495840, Note_on_c, 9, 44, 72
1, 496080, Note_off_c, 9, 38, 64
1, 496080, Note_off_c, 9, 44, 64
1, 496080, Note_on_c, 9, 35, 72
1, 496320, Note_off_c, 9, 35, 64
1, 496320, Note_on_c, 9, 35, 72
1, 496320, Note_on_c, 9, 44, 72
1, 496560, Note_off_c, 9, 35, 64
1, 496560, Note_off_c, 9, 44, 64
1, 496560, Note_on_c, 9, 35, 72
1, 496800, Note_off_c, 9, 35, 64
1, 496800, Note_on_c, 9, 38, 72
1, 496800, Note_on_c, 9, 44, 72
1, 497040, Note_off_c, 9, 38, 64
1, 497040, Note_off_c, 9, 44, 64
1, 497040, Note_on_c, 9, 35, 72
1, 497280, Note_off_c, 9, 35, 64
1, 497280, Note_on_c, 9, 35, 72
1, 497280, Note_on_c, 9, 44, 72
1, 497520, Note_off_c, 9, 35, 64
1, 497520, Note_off_c, 9, 44, 64
1, 497520, Note_on_c, 9, 35, 72
1, 497760, Note_off_c, 9, 35, 64
1, 497760, Note_on_c, 9, 38, 72
1, 497760, Note_on_c, 9, 44, 72
1, 498000, Note_off_c, 9, 38, 64
1, 498000, Note_off_c, 9, 44, 64
1, 498000, Note_on_c, 9, 35, 72
1, 498240, Note_off_c, 9, 35, 64
1, 498240, Note_on_c, 9, 35, 72
1, 498240, Note_on_c, 9, 44, 72
1, 498480, Note_off_c, 9, 35, 64
1, 498480, Note_off_c, 9, 44, 64
1, 498480, Note_on_c, 9, 35, 72
1, 498720, Note_off_c, 9, 35, 64
1, 498720, Note_on_c, 9, 38, 72
1, 498720, Note_on_c, 9, 44, 72
1, 498960, Note_off_c, 9, 38, 64
1, 498960, Note_off_c, 9, 44, 64
1, 498960, Note_on_c, 9, 35, 72
1, 499200, Note_off_c, 9, 35, 64
1, 499200, Note_on_c, 9, 35, 72
1, 499200, Note_on_c, 9, 57, 72
1, 499200, Note_on_c, 9, 44, 72
1, 499440, Note_off_c, 9, 35, 64
1, 499440, Note_off_c, 9, 57, 64
1, 499440, Note_off_c, 9, 44, 64
1, 499440, Note_on_c, 9, 35, 72
1, 499680, Note_off_c, 9, 35, 64
1, 499680, Note_on_c, 9, 38, 72
1, 499680, Note_on_c, 9, 57, 72
1, 499680, Note_on_c, 9, 44, 72
1, 499920, Note_off_c, 9, 38, 64
1, 499920, Note_off_c, 9, 57, 64
1, 499920, Note_off_c, 9, 44, 64
1, 499920, Note_on_c, 9, 35, 72
1, 500160, Note_off_c, 9, 35, 64
1, 500160, Note_on_c, 9, 35, 72
1, 500160, Note_on_c, 9, 57, 72
1, 500160, Note_on_c, 9, 44, 72
1, 500400, Note_off_c, 9, 35, 64
1, 500400, Note_off_c, 9, 57, 64
1, 500400, Note_off_c, 9, 44, 64
1, 500400, Note_on_c, 9, 35, 72
1, 500640, Note_off_c, 9, 35, 64
1, 500640, Note_on_c, 9, 38, 72
1, 500640, Note_on_c, 9, 57, 72
1, 500640, Note_on_c, 9, 44, 72
1, 500880, Note_off_c, 9, 38, 64
1, 500880, Note_off_c, 9, 57, 64
1, 500880, Note_off_c, 9, 44, 64
1, 500880, Note_on_c, 9, 35, 72
1, 501120, Note_off_c, 9, 35, 64
1, 501120, Note_on_c, 9, 35, 72
1, 501120, Note_on_c, 9, 57, 72
1, 501120, Note_on_c, 9, 44, 72
1, 501360, Note_off_c, 9, 35, 64
1, 501360, Note_off_c, 9, 57, 64
1, 501360, Note_off_c, 9, 44, 64
1, 501360, Note_on_c, 9, 35, 72
1, 501600, Note_off_c, 9, 35, 64
1, 501600, Note_on_c, 9, 38, 72
1, 501600, Note_on_c, 9, 57, 72
1, 501600, Note_on_c, 9, 44, 72
1, 501840, Note_off_c, 9, 38, 64
1, 501840, Note_off_c, 9, 57, 64
1, 501840, Note_off_c, 9, 44, 64
1, 501840, Note_on_c, 9, 35, 72
1, 502080, Note_off_c, 9, 35, 64
1, 502080, Note_on_c, 9, 35, 72
1, 502080, Note_on_c, 9, 57, 72
1, 502080, Note_on_c, 9, 44, 72
1, 502320, Note_off_c, 9, 35, 64
1, 502320, Note_off_c, 9, 57, 64
1, 502320, Note_off_c, 9, 44, 64
1, 502320, Note_on_c, 9, 35, 72
1, 502560, Note_off_c, 9, 35, 64
1, 502560, Note_on_c, 9, 38, 72
1, 502560, Note_on_c, 9, 57, 72
1, 502560, Note_on_c, 9, 44, 72
1, 502800, Note_off_c, 9, 38, 64
1, 502800, Note_off_c, 9, 57, 64
1, 502800, Note_off_c, 9, 44, 64
1, 502800, Note_on_c, 9, 35, 72
1, 503040, Note_off_c, 9, 35, 64
1, 503040, Note_on_c, 9, 35, 72
1, 503040, Note_on_c, 9, 44, 72
1, 503280, Note_off_c, 9, 35, 64
1, 503280, Note_off_c, 9, 44, 64
1, 503280, Note_on_c, 9, 35, 72
1, 503520, Note_off_c, 9, 35, 64
1, 503520, Note_on_c, 9, 38, 72
1, 503520, Note_on_c, 9, 44, 72
1, 503760, Note_off_c, 9, 38, 64
1, 503760, Note_off_c, 9, 44, 64
1, 503760, Note_on_c, 9, 35, 72
1, 504000, Note_off_c, 9, 35, 64
1, 504000, Note_on_c, 9, 35, 72
1, 504000, Note_on_c, 9, 44, 72
1, 504240, Note_off_c, 9, 35, 64
1, 504240, Note_off_c, 9, 44, 64
1, 504240, Note_on_c, 9, 35, 72
1, 504480, Note_off_c, 9, 35, 64
1, 504480, Note_on_c, 9, 38, 72
1, 504480, Note_on_c, 9, 44, 72
1, 504720, Note_off_c, 9, 38, 64
1, 504720, Note_off_c, 9, 44, 64
1, 504720, Note_on_c, 9, 35, 72
1, 504960, Note_off_c, 9, 35, 64
1, 504960, Note_on_c, 9, 35, 72
1, 504960, Note_on_c, 9, 44, 72
1, 505200, Note_off_c, 9, 35, 64
1, 505200, Note_off_c, 9, 44, 64
1, 505200, Note_on_c, 9, 35, 72
1, 505440, Note_off_c, 9, 35, 64
1, 505440, Note_on_c, 9, 38, 72
1, 505440, Note_on_c, 9, 44, 72
1, 505680, Note_off_c, 9, 38, 64
1, 505680, Note_off_c, 9, 44, 64
1, 505680, Note_on_c, 9, 35, 72
1, 505920, Note_off_c, 9, 35, 64
1, 505920, Note_on_c, 9, 35, 72
1, 505920, Note_on_c, 9, 44, 72
1, 506160, Note_off_c, 9, 35, 64
1, 506160, Note_off_c, 9, 44, 64
1, 506160, Note_on_c, 9, 35, 72
1, 506400, Note_off_c, 9, 35, 64
1, 506400, Note_on_c, 9, 38, 72
1, 506400, Note_on_c, 9, 44, 72
1, 506640, Note_off_c, 9, 38, 64
1, 506640, Note_off_c, 9, 44, 64
1, 506640, Note_on_c, 9, 35, 72
1, 506880, Note_off_c, 9, 35, 64
1, 506880, Note_on_c, 9, 35, 72
1, 506880, Note_on_c, 9, 57, 72
1, 506880, Note_on_c, 9, 44, 72
1, 507120, Note_off_c, 9, 35, 64
1, 507120, Note_off_c, 9, 57, 64
1, 507120, Note_off_c, 9, 44, 64
1, 507120, Note_on_c, 9, 35, 72
1, 507360, Note_off_c, 9, 35, 64
1, 507360, Note_on_c, 9, 38, 72
1, 507360, Note_on_c, 9, 57, 72
1, 507360, Note_on_c, 9, 44, 72
1, 507600, Note_off_c, 9, 38, 64
1, 507600, Note_off_c, 9, 57, 64
1, 507600, Note_off_c, 9, 44, 64
1, 507600, Note_on_c, 9, 35, 72
1, 507840, Note_off_c, 9, 35, 64
1, 507840, Note_on_c, 9, 35, 72
1, 507840, Note_on_c, 9, 57, 72
1, 507840, Note_on_c, 9, 44, 72
1, 508080, Note_off_c, 9, 35, 64
1, 508080, Note_off_c, 9, 57, 64
1, 508080, Note_off_c, 9, 44, 64
1, 508080, Note_on_c, 9, 35, 72
1, 508320, Note_off_c, 9, 35, 64
1, 508320, Note_on_c, 9, 38, 72
1, 508320, Note_on_c, 9, 57, 72
1, 508320, Note_on_c, 9, 44, 72
1, 508560, Note_off_c, 9, 38, 64
1, 508560, Note_off_c, 9, 57, 64
1, 508560, Note_off_c, 9, 44, 64
1, 508560, Note_on_c, 9, 35, 72
1, 508800, Note_off_c, 9, 35, 64
1, 508800, Note_on_c, 9, 35, 72
1, 508800, Note_on_c, 9, 57, 72
1, 508800, Note_on_c, 9, 44, 72
1, 509040, Note_off_c, 9, 35, 64
1, 509040, Note_off_c, 9, 57, 64
1, 509040, Note_off_c, 9, 44, 64
1, 509040, Note_on_c, 9, 35, 72
1, 509280, Note_off_c, 9, 35, 64
1, 509280, Note_on_c, 9, 38, 72
1, 509280, Note_on_c, 9, 57, 72
1, 509280, Note_on_c, 9, 44, 72
1, 509520, Note_off_c, 9, 38, 64
1, 509520, Note_off_c, 9, 57, 64
1, 509520, Note_off_c, 9, 44, 64
1, 509520, Note_on_c, 9, 35, 72
1, 509760, Note_off_c, 9, 35, 64
1, 509760, Note_on_c, 9, 35, 72
1, 509760, Note_on_c, 9, 57, 72
1, 509760, Note_on_c, 9, 44, 72
1, 510000, Note_off_c, 9, 35, 64
1, 510000, Note_off_c, 9, 57, 64
1, 510000, Note_off_c, 9, 44, 64
1, 510000, Note_on_c, 9, 35, 72
1, 510240, Note_off_c, 9, 35, 64
1, 510240, Note_on_c, 9, 38, 72
1, 510240, Note_on_c, 9, 57, 72
1, 510240, Note_on_c, 9, 44, 72
1, 510480, Note_off_c, 9, 38, 64
1, 510480, Note_off_c, 9, 57, 64
1, 510480, Note_off_c, 9, 44, 64
1, 510480, Note_on_c, 9, 35, 72
1, 510720, Note_off_c, 9, 35, 64
1, 510720, Note_on_c, 9, 35, 72
1, 510720, Note_on_c, 9, 44, 72
1, 510960, Note_off_c, 9, 35, 64
1, 510960, Note_off_c, 9, 44, 64
1, 510960, Note_on_c, 9, 35, 72
1, 511200, Note_off_c, 9, 35, 64
1, 511200, Note_on_c, 9, 38, 72
1, 511200, Note_on_c, 9, 44, 72
1, 511440, Note_off_c, 9, 38, 64
1, 511440, Note_off_c, 9, 44, 64
1, 511440, Note_on_c, 9, 35, 72
1, 511680, Note_off_c, 9, 35, 64
1, 511680, Note_on_c, 9, 35, 72
1, 511680, Note_on_c, 9, 44, 72
1, 511920, Note_off_c, 9, 35, 64
1, 511920, Note_off_c, 9, 44, 64
1, 511920, Note_on_c, 9, 35, 72
1, 512160, Note_off_c, 9, 35, 64
1, 512160, Note_on_c, 9, 38, 72
1, 512160, Note_on_c, 9, 44, 72
1, 512400, Note_off_c, 9, 38, 64
1, 512400, Note_off_c, 9, 44, 64
1, 512400, Note_on_c, 9, 35, 72
1, 512640, Note_off_c, 9, 35, 64
1, 512640, Note_on_c, 9, 35, 72
1, 512640, Note_on_c, 9, 44, 72
1, 512880, Note_off_c, 9, 35, 64
1, 512880, Note_off_c, 9, 44, 64
1, 512880, Note_on_c, 9, 35, 72
1, 513120, Note_off_c, 9, 35, 64
1, 513120, Note_on_c, 9, 38, 72
1, 513120, Note_on_c, 9, 44, 72
1, 513360, Note_off_c, 9, 38, 64
1, 513360, Note_off_c, 9, 44, 64
1, 513360, Note_on_c, 9, 35, 72
1, 513600, Note_off_c, 9, 35, 64
1, 513600, Note_on_c, 9, 35, 72
1, 513600, Note_on_c, 9, 44, 72
1, 513840, Note_off_c, 9, 35, 64
1, 513840, Note_off_c, 9, 44, 64
1, 513840, Note_on_c, 9, 35, 72
1, 514080, Note_off_c, 9, 35, 64
1, 514080, Note_on_c, 9, 38, 72
1, 514080, Note_on_c, 9, 44, 72
1, 514320, Note_off_c, 9, 38, 64
1, 514320, Note_off_c, 9, 44, 64
1, 514320, Note_on_c, 9, 35, 72
1, 514560, Note_off_c, 9, 35, 64
1, 514560, Note_on_c, 9, 35, 72
1, 514560, Note_on_c, 9, 57, 72
1, 514560, Note_on_c, 9, 44, 72
1, 514800, Note_off_c, 9, 35, 64
1, 514800, Note_off_c, 9, 57, 64
1, 514800, Note_off_c, 9, 44, 64
1, 514800, Note_on_c, 9, 35, 72
1, 515040, Note_off_c, 9, 35, 64
1, 515040, Note_on_c, 9, 38, 72
1, 515040, Note_on_c, 9, 57, 72
1, 515040, Note_on_c, 9, 44, 72
1, 515280, Note_off_c, 9, 38, 64
1, 515280, Note_off_c, 9, 57, 64
1, 515280, Note_off_c, 9, 44, 64
1, 515280, Note_on_c, 9, 35, 72
1, 515520, Note_off_c, 9, 35, 64
1, 515520, Note_on_c, 9, 35, 72
1, 515520, Note_on_c, 9, 57, 72
1, 515520, Note_on_c, 9, 44, 72
1, 515760, Note_off_c, 9, 35, 64
1, 515760, Note_off_c, 9, 57, 64
1, 515760, Note_off_c, 9, 44, 64
1, 515760, Note_on_c, 9, 35, 72
1, 516000, Note_off_c, 9, 35, 64
1, 516000, Note_on_c, 9, 38, 72
1, 516000, Note_on_c, 9, 57, 72
1, 516000, Note_on_c, 9, 44, 72
1, 516240, Note_off_c, 9, 38, 64
1, 516240, Note_off_c, 9, 57, 64
1, 516240, Note_off_c, 9, 44, 64
1, 516240, Note_on_c, 9, 35, 72
1, 516480, Note_off_c, 9, 35, 64
1, 516480, Note_on_c, 9, 35, 72
1, 516480, Note_on_c, 9, 57, 72
1, 516480, Note_on_c, 9, 44, 72
1, 516720, Note_off_c, 9, 35, 64
1, 516720, Note_off_c, 9, 57, 64
1, 516720, Note_off_c, 9, 44, 64
1, 516720, Note_on_c, 9, 35, 72
1, 516960, Note_off_c, 9, 35, 64
1, 516960, Note_on_c, 9, 38, 72
1, 516960, Note_on_c, 9, 57, 72
1, 516960, Note_on_c, 9, 44, 72
1, 517200, Note_off_c, 9, 38, 64
1, 517200, Note_off_c, 9, 57, 64
1, 517200, Note_off_c, 9, 44, 64
1, 517200, Note_on_c, 9, 35, 72
1, 517440, Note_off_c, 9, 35, 64
1, 517440, Note_on_c, 9, 35, 72
1, 517440, Note_on_c, 9, 57, 72
1, 517440, Note_on_c, 9, 44, 72
1, 517680, Note_off_c, 9, 35, 64
1, 517680, Note_off_c, 9, 57, 64
1, 517680, Note_off_c, 9, 44, 64
1, 517680, Note_on_c, 9, 35, 72
1, 517920, Note_off_c, 9, 35, 64
1, 517920, Note_on_c, 9, 38, 72
1, 517920, Note_on_c, 9, 57, 72
1, 517920, Note_on_c, 9, 44, 72
1, 518160, Note_off_c, 9, 38, 64
1, 518160, Note_off_c, 9, 57, 64
1, 518160, Note_off_c, 9, 44, 64
1, 518160, Note_on_c, 9, 35, 72
1, 518400, Note_off_c, 9, 35, 64
1, 518400, Note_on_c, 9, 35, 72
1, 518400, Note_on_c, 9, 44, 72
1, 518640, Note_off_c, 9, 35, 64
1, 518640, Note_off_c, 9, 44, 64
1, 518640, Note_on_c, 9, 35, 72
1, 518880, Note_off_c, 9, 35, 64
1, 518880, Note_on_c, 9, 38, 72
1, 518880, Note_on_c, 9, 44, 72
1, 519120, Note_off_c, 9, 38, 64
1, 519120, Note_off_c, 9, 44, 64
1, 519120, Note_on_c, 9, 35, 72
1, 519360, Note_off_c, 9, 35, 64
1, 519360, Note_on_c, 9, 35, 72
1, 519360, Note_on_c, 9, 44, 72
1, 519600, Note_off_c, 9, 35, 64
1, 519600, Note_off_c, 9, 44, 64
1, 519600, Note_on_c, 9, 35, 72
1, 519840, Note_off_c, 9, 35, 64
1, 519840, Note_on_c, 9, 38, 72
1, 519840, Note_on_c, 9, 44, 72
1, 520080, Note_off_c, 9, 38, 64
1, 520080, Note_off_c, 9, 44, 64
1, 520080, Note_on_c, 9, 35, 72
1, 520320, Note_off_c, 9, 35, 64
1, 520320, Note_on_c, 9, 35, 72
1, 520320, Note_on_c, 9, 44, 72
1, 520560, Note_off_c, 9, 35, 64
1, 520560, Note_off_c, 9, 44, 64
1, 520560, Note_on_c, 9, 35, 72
1, 520800, Note_off_c, 9, 35, 64
1, 520800, Note_on_c, 9, 38, 72
1, 520800, Note_on_c, 9, 44, 72
1, 521040, Note_off_c, 9, 38, 64
1, 521040, Note_off_c, 9, 44, 64
1, 521040, Note_on_c, 9, 35, 72
1, 521280, Note_off_c, 9, 35, 64
1, 521280, Note_on_c, 9, 35, 72
1, 521280, Note_on_c, 9, 44, 72
1, 521520, Note_off_c, 9, 35, 64
1, 521520, Note_off_c, 9, 44, 64
1, 521520, Note_on_c, 9, 35, 72
1, 521760, Note_off_c, 9, 35, 64
1, 521760, Note_on_c, 9, 38, 72
1, 521760, Note_on_c, 9, 44, 72
1, 522000, Note_off_c, 9, 38, 64
1, 522000, Note_off_c, 9, 44, 64
1, 522000, Note_on_c, 9, 35, 72
1, 522240, Note_off_c, 9, 35, 64
1, 522240, Note_on_c, 9, 35, 72
1, 522240, Note_on_c, 9, 57, 72
1, 522240, Note_on_c, 9, 44, 72
1, 522480, Note_off_c, 9, 35, 64
1, 522480, Note_off_c, 9, 57, 64
1, 522480, Note_off_c, 9, 44, 64
1, 522480, Note_on_c, 9, 35, 72
1, 522720, Note_off_c, 9, 35, 64
1, 522720, Note_on_c, 9, 38, 72
1, 522720, Note_on_c, 9, 57, 72
1, 522720, Note_on_c, 9, 44, 72
1, 522960, Note_off_c, 9, 38, 64
1, 522960, Note_off_c, 9, 57, 64
1, 522960, Note_off_c, 9, 44, 64
1, 522960, Note_on_c, 9, 35, 72
1, 523200, Note_off_c, 9, 35, 64
1, 523200, Note_on_c, 9, 35, 72
1, 523200, Note_on_c, 9, 57, 72
1, 523200, Note_on_c, 9, 44, 72
1, 523440, Note_off_c, 9, 35, 64
1, 523440, Note_off_c, 9, 57, 64
1, 523440, Note_off_c, 9, 44, 64
1, 523440, Note_on_c, 9, 35, 72
1, 523680, Note_off_c, 9, 35, 64
1, 523680, Note_on_c, 9, 38, 72
1, 523680, Note_on_c, 9, 57, 72
1, 523680, Note_on_c, 9, 44, 72
1, 523920, Note_off_c, 9, 38, 64
1, 523920, Note_off_c, 9, 57, 64
1, 523920, Note_off_c, 9, 44, 64
1, 523920, Note_on_c, 9, 35, 72
1, 524160, Note_off_c, 9, 35, 64
1, 524160, Note_on_c, 9, 35, 72
1, 524160, Note_on_c, 9, 57, 72
1, 524160, Note_on_c, 9, 44, 72
1, 524400, Note_off_c, 9, 35, 64
1, 524400, Note_off_c, 9, 57, 64
1, 524400, Note_off_c, 9, 44, 64
1, 524400, Note_on_c, 9, 35, 72
1, 524640, Note_off_c, 9, 35, 64
1, 524640, Note_on_c, 9, 38, 72
1, 524640, Note_on_c, 9, 57, 72
1, 524640, Note_on_c, 9, 44, 72
1, 524880, Note_off_c, 9, 38, 64
1, 524880, Note_off_c, 9, 57, 64
1, 524880, Note_off_c, 9, 44, 64
1, 524880, Note_on_c, 9, 35, 72
1, 525120, Note_off_c, 9, 35, 64
1, 525120, Note_on_c, 9, 35, 72
1, 525120, Note_on_c, 9, 57, 72
1, 525120, Note_on_c, 9, 44, 72
1, 525360, Note_off_c, 9, 35, 64
1, 525360, Note_off_c, 9, 57, 64
1, 525360, Note_off_c, 9, 44, 64
1, 525360, Note_on_c, 9, 35, 72
1, 525600, Note_off_c, 9, 35, 64
1, 525600, Note_on_c, 9, 38, 72
1, 525600, Note_on_c, 9, 57, 72
1, 525600, Note_on_c, 9, 44, 72
1, 525840, Note_off_c, 9, 38, 64
1, 525840, Note_off_c, 9, 57, 64
1, 525840, Note_off_c, 9, 44, 64
1, 525840, Note_on_c, 9, 35, 72
1, 526080, Note_off_c, 9, 35, 64
1, 526080, Note_on_c, 9, 35, 72
1, 526080, Note_on_c, 9, 44, 72
1, 526320, Note_off_c, 9, 35, 64
1, 526320, Note_off_c, 9, 44, 64
1, 526320, Note_on_c, 9, 35, 72
1, 526560, Note_off_c, 9, 35, 64
1, 526560, Note_on_c, 9, 38, 72
1, 526560, Note_on_c, 9, 44, 72
1, 526800, Note_off_c, 9, 38, 64
1, 526800, Note_off_c, 9, 44, 64
1, 526800, Note_on_c, 9, 35, 72
1, 527040, Note_off_c, 9, 35, 64
1, 527040, Note_on_c, 9, 35, 72
1, 527040, Note_on_c, 9, 44, 72
1, 527280, Note_off_c, 9, 35, 64
1, 527280, Note_off_c, 9, 44, 64
1, 527280, Note_on_c, 9, 35, 72
1, 527520, Note_off_c, 9, 35, 64
1, 527520, Note_on_c, 9, 38, 72
1, 527520, Note_on_c, 9, 44, 72
1, 527760, Note_off_c, 9, 38, 64
1, 527760, Note_off_c, 9, 44, 64
1, 527760, Note_on_c, 9, 35, 72
1, 528000, Note_off_c, 9, 35, 64
1, 528000, Note_on_c, 9, 35, 72
1, 528000, Note_on_c, 9, 44, 72
1, 528240, Note_off_c, 9, 35, 64
1, 528240, Note_off_c, 9, 44, 64
1, 528240, Note_on_c, 9, 35, 72
1, 528480, Note_off_c, 9, 35, 64
1, 528480, Note_on_c, 9, 38, 72
1, 528480, Note_on_c, 9, 44, 72
1, 528720, Note_off_c, 9, 38, 64
1, 528720, Note_off_c, 9, 44, 64
1, 528720, Note_on_c, 9, 35, 72
1, 528960, Note_off_c, 9, 35, 64
1, 528960, Note_on_c, 9, 35, 72
1, 528960, Note_on_c, 9, 44, 72
1, 529200, Note_off_c, 9, 35, 64
1, 529200, Note_off_c, 9, 44, 64
1, 529200, Note_on_c, 9, 35, 72
1, 529440, Note_off_c, 9, 35, 64
1, 529440, Note_on_c, 9, 38, 72
1, 529440, Note_on_c, 9, 44, 72
1, 529680, Note_off_c, 9, 38, 64
1, 529680, Note_off_c, 9, 44, 64
1, 529680, Note_on_c, 9, 35, 72
1, 529920, Note_off_c, 9, 35, 64
1, 529920, Note_on_c, 9, 35, 72
1, 529920, Note_on_c, 9, 57, 72
1, 529920, Note_on_c, 9, 44, 72
1, 530160, Note_off_c, 9, 35, 64
1, 530160, Note_off_c, 9, 57, 64
1, 530160, Note_off_c, 9, 44, 64
1, 530160, Note_on_c, 9, 35, 72
1, 530400, Note_off_c, 9, 35, 64
1, 530400, Note_on_c, 9, 38, 72
1, 530400, Note_on_c, 9, 57, 72
1, 530400, Note_on_c, 9, 44, 72
1, 530640, Note_off_c, 9, 38, 64
1, 530640, Note_off_c, 9, 57, 64
1, 530640, Note_off_c, 9, 44, 64
1, 530640, Note_on_c, 9, 35, 72
1, 530880, Note_off_c, 9, 35, 64
1, 530880, Note_on_c, 9, 35, 72
1, 530880, Note_on_c, 9, 57, 72
1, 530880, Note_on_c, 9, 44, 72
1, 531120, Note_off_c, 9, 35, 64
1, 531120, Note_off_c, 9, 57, 64
1, 531120, Note_off_c, 9, 44, 64
1, 531120, Note_on_c, 9, 35, 72
1, 531360, Note_off_c, 9, 35, 64
1, 531360, Note_on_c, 9, 38, 72
1, 531360, Note_on_c, 9, 57, 72
1, 531360, Note_on_c, 9, 44, 72
1, 531600, Note_off_c, 9, 38, 64
1, 531600, Note_off_c, 9, 57, 64
1, 531600, Note_off_c, 9, 44, 64
1, 531600, Note_on_c, 9, 35, 72
1, 531840, Note_off_c, 9, 35, 64
1, 531840, Note_on_c, 9, 35, 72
1, 531840, Note_on_c, 9, 57, 72
1, 531840, Note_on_c, 9, 44, 72
1, 532080, Note_off_c, 9, 35, 64
1, 532080, Note_off_c, 9, 57, 64
1, 532080, Note_off_c, 9, 44, 64
1, 532080, Note_on_c, 9, 35, 72
1, 532320, Note_off_c, 9, 35, 64
1, 532320, Note_on_c, 9, 38, 72
1, 532320, Note_on_c, 9, 57, 72
1, 532320, Note_on_c, 9, 44, 72
1, 532560, Note_off_c, 9, 38, 64
1, 532560, Note_off_c, 9, 57, 64
1, 532560, Note_off_c, 9, 44, 64
1, 532560, Note_on_c, 9, 35, 72
1, 532800, Note_off_c, 9, 35, 64
1, 532800, Note_on_c, 9, 35, 72
1, 532800, Note_on_c, 9, 57, 72
1, 532800, Note_on_c, 9, 44, 72
1, 533040, Note_off_c, 9, 35, 64
1, 533040, Note_off_c, 9, 57, 64
1, 533040, Note_off_c, 9, 44, 64
1, 533040, Note_on_c, 9, 35, 72
1, 533280, Note_off_c, 9, 35, 64
1, 533280, Note_on_c, 9, 38, 72
1, 533280, Note_on_c, 9, 57, 72
1, 533280, Note_on_c, 9, 44, 72
1, 533520, Note_off_c, 9, 38, 64
1, 533520, Note_off_c, 9, 57, 64
1, 533520, Note_off_c, 9, 44, 64
1, 533520, Note_on_c, 9, 35, 72
1, 533760, Note_off_c, 9, 35, 64
1, 533760, Note_on_c, 9, 35, 72
1, 533760, Note_on_c, 9, 44, 72
1, 534000, Note_off_c, 9, 35, 64
1, 534000, Note_off_c, 9, 44, 64
1, 534000, Note_on_c, 9, 35, 72
1, 534240, Note_off_c, 9, 35, 64
1, 534240, Note_on_c, 9, 38, 72
1, 534240, Note_on_c, 9, 44, 72
1, 534480, Note_off_c, 9, 38, 64
1, 534480, Note_off_c, 9, 44, 64
1, 534480, Note_on_c, 9, 35, 72
1, 534720, Note_off_c, 9, 35, 64
1, 534720, Note_on_c, 9, 35, 72
1, 534720, Note_on_c, 9, 44, 72
1, 534960, Note_off_c, 9, 35, 64
1, 534960, Note_off_c, 9, 44, 64
1, 534960, Note_on_c, 9, 35, 72
1, 535200, Note_off_c, 9, 35, 64
1, 535200, Note_on_c, 9, 38, 72
1, 535200, Note_on_c, 9, 44, 72
1, 535440, Note_off_c, 9, 38, 64
1, 535440, Note_off_c, 9, 44, 64
1, 535440, Note_on_c, 9, 35, 72
1, 535680, Note_off_c, 9, 35, 64
1, 535680, Note_on_c, 9, 35, 72
1, 535680, Note_on_c, 9, 44, 72
1, 535920, Note_off_c, 9, 35, 64
1, 535920, Note_off_c, 9, 44, 64
1, 535920, Note_on_c, 9, 35, 72
1, 536160, Note_off_c, 9, 35, 64
1, 536160, Note_on_c, 9, 38, 72
1, 536160, Note_on_c, 9, 44, 72
1, 536400, Note_off_c, 9, 38, 64
1, 536400, Note_off_c, 9, 44, 64
1, 536400, Note_on_c, 9, 35, 72
1, 536640, Note_off_c, 9, 35, 64
1, 536640, Note_on_c, 9, 35, 72
1, 536640, Note_on_c, 9, 44, 72
1, 536880, Note_off_c, 9, 35, 64
1, 536880, Note_off_c, 9, 44, 64
1, 536880, Note_on_c, 9, 35, 72
1, 537120, Note_off_c, 9, 35, 64
1, 537120, Note_on_c, 9, 38, 72
1, 537120, Note_on_c, 9, 44, 72
1, 537360, Note_off_c, 9, 38, 64
1, 537360, Note_off_c, 9, 44, 64
1, 537360, Note_on_c, 9, 35, 72
1, 537600, Note_off_c, 9, 35, 64
1, 537600, Note_on_c, 9, 35, 72
1, 537600, Note_on_c, 9, 57, 72
1, 537600, Note_on_c, 9, 44, 72
1, 537840, Note_off_c, 9, 35, 64
1, 537840, Note_off_c, 9, 57, 64
1, 537840, Note_off_c, 9, 44, 64
1, 537840, Note_on_c, 9, 35, 72
1, 538080, Note_off_c, 9, 35, 64
1, 538080, Note_on_c, 9, 38, 72
1, 538080, Note_on_c, 9, 57, 72
1, 538080, Note_on_c, 9, 44, 72
1, 538320, Note_off_c, 9, 38, 64
1, 538320, Note_off_c, 9, 57, 64
1, 538320, Note_off_c, 9, 44, 64
1, 538320, Note_on_c, 9, 35, 72
1, 538560, Note_off_c, 9, 35, 64
1, 538560, Note_on_c, 9, 35, 72
1, 538560, Note_on_c, 9, 57, 72
1, 538560, Note_on_c, 9, 44, 72
1, 538800, Note_off_c, 9, 35, 64
1, 538800, Note_off_c, 9, 57, 64
1, 538800, Note_off_c, 9, 44, 64
1, 538800, Note_on_c, 9, 35, 72
1, 539040, Note_off_c, 9, 35, 64
1, 539040, Note_on_c, 9, 38, 72
1, 539040, Note_on_c, 9, 57, 72
1, 539040, Note_on_c, 9, 44, 72
1, 539280, Note_off_c, 9, 38, 64
1, 539280, Note_off_c, 9, 57, 64
1, 539280, Note_off_c, 9, 44, 64
1, 539280, Note_on_c, 9, 35, 72
1, 539520, Note_off_c, 9, 35, 64
1, 539520, Note_on_c, 9, 35, 72
1, 539520, Note_on_c, 9, 57, 72
1, 539520, Note_on_c, 9, 44, 72
1, 539760, Note_off_c, 9, 35, 64
1, 539760, Note_off_c, 9, 57, 64
1, 539760, Note_off_c, 9, 44, 64
1, 539760, Note_on_c, 9, 35, 72
1, 540000, Note_off_c, 9, 35, 64
1, 540000, Note_on_c, 9, 38, 72
1, 540000, Note_on_c, 9, 57, 72
1, 540000, Note_on_c, 9, 44, 72
1, 540240, Note_off_c, 9, 38, 64
1, 540240, Note_off_c, 9, 57, 64
1, 540240, Note_off_c, 9, 44, 64
1, 540240, Note_on_c, 9, 35, 72
1, 540480, Note_off_c, 9, 35, 64
1, 540480, Note_on_c, 9, 35, 72
1, 540480, Note_on_c, 9, 57, 72
1, 540480, Note_on_c, 9, 44, 72
1, 540720, Note_off_c, 9, 35, 64
1, 540720, Note_off_c, 9, 57, 64
1, 540720, Note_off_c, 9, 44, 64
1, 540720, Note_on_c, 9, 35, 72
1, 540960, Note_off_c, 9, 35, 64
1, 540960, Note_on_c, 9, 38, 72
1, 540960, Note_on_c, 9, 57, 72
1, 540960, Note_on_c, 9, 44, 72
1, 541200, Note_off_c, 9, 38, 64
1, 541200, Note_off_c, 9, 57, 64
1, 541200, Note_off_c, 9, 44, 64
1, 541200, Note_on_c, 9, 35, 72
1, 541440, Note_off_c, 9, 35, 64
1, 541440, Note_on_c, 9, 35, 72
1, 541440, Note_on_c, 9, 44, 72
1, 541680, Note_off_c, 9, 35, 64
1, 541680, Note_off_c, 9, 44, 64
1, 541680, Note_on_c, 9, 35, 72
1, 541920, Note_off_c, 9, 35, 64
1, 541920, Note_on_c, 9, 38, 72
1, 541920, Note_on_c, 9, 44, 72
1, 542160, Note_off_c, 9, 38, 64
1, 542160, Note_off_c, 9, 44, 64
1, 542160, Note_on_c, 9, 35, 72
1, 542400, Note_off_c, 9, 35, 64
1, 542400, Note_on_c, 9, 35, 72
1, 542400, Note_on_c, 9, 44, 72
1, 542640, Note_off_c, 9, 35, 64
1, 542640, Note_off_c, 9, 44, 64
1, 542640, Note_on_c, 9, 35, 72
1, 542880, Note_off_c, 9, 35, 64
1, 542880, Note_on_c, 9, 38, 72
1, 542880, Note_on_c, 9, 44, 72
1, 543120, Note_off_c, 9, 38, 64
1, 543120, Note_off_c, 9, 44, 64
1, 543120, Note_on_c, 9, 35, 72
1, 543360, Note_off_c, 9, 35, 64
1, 543360, Note_on_c, 9, 35, 72
1, 543360, Note_on_c, 9, 44, 72
1, 543600, Note_off_c, 9, 35, 64
1, 543600, Note_off_c, 9, 44, 64
1, 543600, Note_on_c, 9, 35, 72
1, 543840, Note_off_c, 9, 35, 64
1, 543840, Note_on_c, 9, 38, 72
1, 543840, Note_on_c, 9, 44, 72
1, 544080, Note_off_c, 9, 38, 64
1, 544080, Note_off_c, 9, 44, 64
1, 544080, Note_on_c, 9, 35, 72
1, 544320, Note_off_c, 9, 35, 64
1, 544320, Note_on_c, 9, 35, 72
1, 544320, Note_on_c, 9, 44, 72
1, 544560, Note_off_c, 9, 35, 64
1, 544560, Note_off_c, 9, 44, 64
1, 544560, Note_on_c, 9, 35, 72
1, 544800, Note_off_c, 9, 35, 64
1, 544800, Note_on_c, 9, 38, 72
1, 544800, Note_on_c, 9, 44, 72
1, 545040, Note_off_c, 9, 38, 64
1, 545040, Note_off_c, 9, 44, 64
1, 545040, Note_on_c, 9, 35, 72
1, 545280, Note_off_c, 9, 35, 64
1, 545280, Note_on_c, 9, 35, 72
1, 545280, Note_on_c, 9, 57, 72
1, 545280, Note_on_c, 9, 44, 72
1, 545520, Note_off_c, 9, 35, 64
1, 545520, Note_off_c, 9, 57, 64
1, 545520, Note_off_c, 9, 44, 64
1, 545520, Note_on_c, 9, 35, 72
1, 545760, Note_off_c, 9, 35, 64
1, 545760, Note_on_c, 9, 38, 72
1, 545760, Note_on_c, 9, 57, 72
1, 545760, Note_on_c, 9, 44, 72
1, 546000, Note_off_c, 9, 38, 64
1, 546000, Note_off_c, 9, 57, 64
1, 546000, Note_off_c, 9, 44, 64
1, 546000, Note_on_c, 9, 35, 72
1, 546240, Note_off_c, 9, 35, 64
1, 546240, Note_on_c, 9, 35, 72
1, 546240, Note_on_c, 9, 57, 72
1, 546240, Note_on_c, 9, 44, 72
1, 546480, Note_off_c, 9, 35, 64
1, 546480, Note_off_c, 9, 57, 64
1, 546480, Note_off_c, 9, 44, 64
1, 546480, Note_on_c, 9, 35, 72
1, 546720, Note_off_c, 9, 35, 64
1, 546720, Note_on_c, 9, 38, 72
1, 546720, Note_on_c, 9, 57, 72
1, 546720, Note_on_c, 9, 44, 72
1, 546960, Note_off_c, 9, 38, 64
1, 546960, Note_off_c, 9, 57, 64
1, 546960, Note_off_c, 9, 44, 64
1, 546960, Note_on_c, 9, 35, 72
1, 547200, Note_off_c, 9, 35, 64
1, 547200, Note_on_c, 9, 35, 72
1, 547200, Note_on_c, 9, 57, 72
1, 547200, Note_on_c, 9, 44, 72
1, 547440, Note_off_c, 9, 35, 64
1, 547440, Note_off_c, 9, 57, 64
1, 547440, Note_off_c, 9, 44, 64
1, 547440, Note_on_c, 9, 35, 72
1, 547680, Note_off_c, 9, 35, 64
1, 547680, Note_on_c, 9, 38, 72
1, 547680, Note_on_c, 9, 57, 72
1, 547680, Note_on_c, 9, 44, 72
1, 547920, Note_off_c, 9, 38, 64
1, 547920, Note_off_c, 9, 57, 64
1, 547920, Note_off_c, 9, 44, 64
1, 547920, Note_on_c, 9, 35, 72
1, 548160, Note_off_c, 9, 35, 64
1, 548160, Note_on_c, 9, 35, 72
1, 548160, Note_on_c, 9, 57, 72
1, 548160, Note_on_c, 9, 44, 72
1, 548400, Note_off_c, 9, 35, 64
1, 548400, Note_off_c, 9, 57, 64
1, 548400, Note_off_c, 9, 44, 64
1, 548400, Note_on_c, 9, 35, 72
1, 548640, Note_off_c, 9, 35, 64
1, 548640, Note_on_c, 9, 38, 72
1, 548640, Note_on_c, 9, 57, 72
1, 548640, Note_on_c, 9, 44, 72
1, 548880, Note_off_c, 9, 38, 64
1, 548880, Note_off_c, 9, 57, 64
1, 548880, Note_off_c, 9, 44, 64
1, 548880, Note_on_c, 9, 35, 72
1, 549120, Note_off_c, 9, 35, 64
1, 549120, Note_on_c, 9, 35, 72
1, 549120, Note_on_c, 9, 44, 72
1, 549360, Note_off_c, 9, 35, 64
1, 549360, Note_off_c, 9, 44, 64
1, 549360, Note_on_c, 9, 35, 72
1, 549600, Note_off_c, 9, 35, 64
1, 549600, Note_on_c, 9, 38, 72
1, 549600, Note_on_c, 9, 44, 72
1, 549840, Note_off_c, 9, 38, 64
1, 549840, Note_off_c, 9, 44, 64
1, 549840, Note_on_c, 9, 35, 72
1, 550080, Note_off_c, 9, 35, 64
1, 550080, Note_on_c, 9, 35, 72
1, 550080, Note_on_c, 9, 44, 72
1, 550320, Note_off_c, 9, 35, 64
1, 550320, Note_off_c, 9, 44, 64
1, 550320, Note_on_c, 9, 35, 72
1, 550560, Note_off_c, 9, 35, 64
1, 550560, Note_on_c, 9, 38, 72
1, 550560, Note_on_c, 9, 44, 72
1, 550800, Note_off_c, 9, 38, 64
1, 550800, Note_off_c, 9, 44, 64
1, 550800, Note_on_c, 9, 35, 72
1, 551040, Note_off_c, 9, 35, 64
1, 551040, Note_on_c, 9, 35, 72
1, 551040, Note_on_c, 9, 44, 72
1, 551280, Note_off_c, 9, 35, 64
1, 551280, Note_off_c, 9, 44, 64
1, 551280, Note_on_c, 9, 35, 72
1, 551520, Note_off_c, 9, 35, 64
1, 551520, Note_on_c, 9, 38, 72
1, 551520, Note_on_c, 9, 44, 72
1, 551760, Note_off_c, 9, 38, 64
1, 551760, Note_off_c, 9, 44, 64
1, 551760, Note_on_c, 9, 35, 72
1, 552000, Note_off_c, 9, 35, 64
1, 552000, Note_on_c, 9, 35, 72
1, 552000, Note_on_c, 9, 44, 72
1, 552240, Note_off_c, 9, 35, 64
1, 552240, Note_off_c, 9, 44, 64
1, 552240, Note_on_c, 9, 35, 72
1, 552480, Note_off_c, 9, 35, 64
1, 552480, Note_on_c, 9, 38, 72
1, 552480, Note_on_c, 9, 44, 72
1, 552720, Note_off_c, 9, 38, 64
1, 552720, Note_off_c, 9, 44, 64
1, 552720, Note_on_c, 9, 35, 72
1, 552960, Note_off_c, 9, 35, 64
1, 552960, Note_on_c, 9, 35, 72
1, 552960, Note_on_c, 9, 57, 72
1, 552960, Note_on_c, 9, 44, 72
1, 553200, Note_off_c, 9, 35, 64
1, 553200, Note_off_c, 9, 57, 64
1, 553200, Note_off_c, 9, 44, 64
1, 553200, Note_on_c, 9, 35, 72
1, 553440, Note_off_c, 9, 35, 64
1, 553440, Note_on_c, 9, 38, 72
1, 553440, Note_on_c, 9, 57, 72
1, 553440, Note_on_c, 9, 44, 72
1, 553680, Note_off_c, 9, 38, 64
1, 553680, Note_off_c, 9, 57, 64
1, 553680, Note_off_c, 9, 44, 64
1, 553680, Note_on_c, 9, 35, 72
1, 553920, Note_off_c, 9, 35, 64
1, 553920, Note_on_c, 9, 35, 72
1, 553920, Note_on_c, 9, 57, 72
1, 553920, Note_on_c, 9, 44, 72
1, 554160, Note_off_c, 9, 35, 64
1, 554160, Note_off_c, 9, 57, 64
1, 554160, Note_off_c, 9, 44, 64
1, 554160, Note_on_c, 9, 35, 72
1, 554400, Note_off_c, 9, 35, 64
1, 554400, Note_on_c, 9, 38, 72
1, 554400, Note_on_c, 9, 57, 72
1, 554400, Note_on_c, 9, 44, 72
1, 554640, Note_off_c, 9, 38, 64
1, 554640, Note_off_c, 9, 57, 64
1, 554640, Note_off_c, 9, 44, 64
1, 554640, Note_on_c, 9, 35, 72
1, 554880, Note_off_c, 9, 35, 64
1, 554880, Note_on_c, 9, 35, 72
1, 554880, Note_on_c, 9, 57, 72
1, 554880, Note_on_c, 9, 44, 72
1, 555120, Note_off_c, 9, 35, 64
1, 555120, Note_off_c, 9, 57, 64
1, 555120, Note_off_c, 9, 44, 64
1, 555120, Note_on_c, 9, 35, 72
1, 555360, Note_off_c, 9, 35, 64
1, 555360, Note_on_c, 9, 38, 72
1, 555360, Note_on_c, 9, 57, 72
1, 555360, Note_on_c, 9, 44, 72
1, 555600, Note_off_c, 9, 38, 64
1, 555600, Note_off_c, 9, 57, 64
1, 555600, Note_off_c, 9, 44, 64
1, 555600, Note_on_c, 9, 35, 72
1, 555840, Note_off_c, 9, 35, 64
1, 555840, Note_on_c, 9, 35, 72
1, 555840, Note_on_c, 9, 57, 72
1, 555840, Note_on_c, 9, 44, 72
1, 556080, Note_off_c, 9, 35, 64
1, 556080, Note_off_c, 9, 57, 64
1, 556080, Note_off_c, 9, 44, 64
1, 556080, Note_on_c, 9, 35, 72
1, 556320, Note_off_c, 9, 35, 64
1, 556320, Note_on_c, 9, 38, 72
1, 556320, Note_on_c, 9, 57, 72
1, 556320, Note_on_c, 9, 44, 72
1, 556560, Note_off_c, 9, 38, 64
1, 556560, Note_off_c, 9, 57, 64
1, 556560, Note_off_c, 9, 44, 64
1, 556560, Note_on_c, 9, 35, 72
1, 556800, Note_off_c, 9, 35, 64
1, 556800, Note_on_c, 9, 35, 72
1, 556800, Note_on_c, 9, 44, 72
1, 557040, Note_off_c, 9, 35, 64
1, 557040, Note_off_c, 9, 44, 64
1, 557040, Note_on_c, 9, 35, 72
1, 557280, Note_off_c, 9, 35, 64
1, 557280, Note_on_c, 9, 38, 72
1, 557280, Note_on_c, 9, 44, 72
1, 557520, Note_off_c, 9, 38, 64
1, 557520, Note_off_c, 9, 44, 64
1, 557520, Note_on_c, 9, 35, 72
1, 557760, Note_off_c, 9, 35, 64
1, 557760, Note_on_c, 9, 35, 72
1, 557760, Note_on_c, 9, 44, 72
1, 558000, Note_off_c, 9, 35, 64
1, 558000, Note_off_c, 9, 44, 64
1, 558000, Note_on_c, 9, 35, 72
1, 558240, Note_off_c, 9, 35, 64
1, 558240, Note_on_c, 9, 38, 72
1, 558240, Note_on_c, 9, 44, 72
1, 558480, Note_off_c, 9, 38, 64
1, 558480, Note_off_c, 9, 44, 64
1, 558480, Note_on_c, 9, 35, 72
1, 558720, Note_off_c, 9, 35, 64
1, 558720, Note_on_c, 9, 35, 72
1, 558720, Note_on_c, 9, 44, 72
1, 558960, Note_off_c, 9, 35, 64
1, 558960, Note_off_c, 9, 44, 64
1, 558960, Note_on_c, 9, 35, 72
1, 559200, Note_off_c, 9, 35, 64
1, 559200, Note_on_c, 9, 38, 72
1, 559200, Note_on_c, 9, 44, 72
1, 559440, Note_off_c, 9, 38, 64
1, 559440, Note_off_c, 9, 44, 64
1, 559440, Note_on_c, 9, 35, 72
1, 559680, Note_off_c, 9, 35, 64
1, 559680, Note_on_c, 9, 35, 72
1, 559680, Note_on_c, 9, 44, 72
1, 559920, Note_off_c, 9, 35, 64
1, 559920, Note_off_c, 9, 44, 64
1, 559920, Note_on_c, 9, 35, 72
1, 560160, Note_off_c, 9, 35, 64
1, 560160, Note_on_c, 9, 38, 72
1, 560160, Note_on_c, 9, 44, 72
1, 560400, Note_off_c, 9, 38, 64
1, 560400, Note_off_c, 9, 44, 64
1, 560400, Note_on_c, 9, 35, 72
1, 560640, Note_off_c, 9, 35, 64
1, 560640, Note_on_c, 9, 35, 72
1, 560640, Note_on_c, 9, 57, 72
1, 560640, Note_on_c, 9, 44, 72
1, 560880, Note_off_c, 9, 35, 64
1, 560880, Note_off_c, 9, 57, 64
1, 560880, Note_off_c, 9, 44, 64
1, 560880, Note_on_c, 9, 35, 72
1, 561120, Note_off_c, 9, 35, 64
1, 561120, Note_on_c, 9, 38, 72
1, 561120, Note_on_c, 9, 57, 72
1, 561120, Note_on_c, 9, 44, 72
1, 561360, Note_off_c, 9, 38, 64
1, 561360, Note_off_c, 9, 57, 64
1, 561360, Note_off_c, 9, 44, 64
1, 561360, Note_on_c, 9, 35, 72
1, 561600, Note_off_c, 9, 35, 64
1, 561600, Note_on_c, 9, 35, 72
1, 561600, Note_on_c, 9, 57, 72
1, 561600, Note_on_c, 9, 44, 72
1, 561840, Note_off_c, 9, 35, 64
1, 561840, Note_off_c, 9, 57, 64
1, 561840, Note_off_c, 9, 44, 64
1, 561840, Note_on_c, 9, 35, 72
1, 562080, Note_off_c, 9, 35, 64
1, 562080, Note_on_c, 9, 38, 72
1, 562080, Note_on_c, 9, 57, 72
1, 562080, Note_on_c, 9, 44, 72
1, 562320, Note_off_c, 9, 38, 64
1, 562320, Note_off_c, 9, 57, 64
1, 562320, Note_off_c, 9, 44, 64
1, 562320, Note_on_c, 9, 35, 72
1, 562560, Note_off_c, 9, 35, 64
1, 562560, Note_on_c, 9, 35, 72
1, 562560, Note_on_c, 9, 57, 72
1, 562560, Note_on_c, 9, 44, 72
1, 562800, Note_off_c, 9, 35, 64
1, 562800, Note_off_c, 9, 57, 64
1, 562800, Note_off_c, 9, 44, 64
1, 562800, Note_on_c, 9, 35, 72
1, 563040, Note_off_c, 9, 35, 64
1, 563040, Note_on_c, 9, 38, 72
1, 563040, Note_on_c, 9, 57, 72
1, 563040, Note_on_c, 9, 44, 72
1, 563280, Note_off_c, 9, 38, 64
1, 563280, Note_off_c, 9, 57, 64
1, 563280, Note_off_c, 9, 44, 64
1, 563280, Note_on_c, 9, 35, 72
1, 563520, Note_off_c, 9, 35, 64
1, 563520, Note_on_c, 9, 35, 72
1, 563520, Note_on_c, 9, 57, 72
1, 563520, Note_on_c, 9, 44, 72
1, 563760, Note_off_c, 9, 35, 64
1, 563760, Note_off_c, 9, 57, 64
1, 563760, Note_off_c, 9, 44, 64
1, 563760, Note_on_c, 9, 35, 72
1, 564000, Note_off_c, 9, 35, 64
1, 564000, Note_on_c, 9, 38, 72
1, 564000, Note_on_c, 9, 57, 72
1, 564000, Note_on_c, 9, 44, 72
1, 564240, Note_off_c, 9, 38, 64
1, 564240, Note_off_c, 9, 57, 64
1, 564240, Note_off_c, 9, 44, 64
1, 564240, Note_on_c, 9, 35, 72
1, 564480, Note_off_c, 9, 35, 64
1, 564480, Note_on_c, 9, 35, 72
1, 564480, Note_on_c, 9, 44, 72
1, 564720, Note_off_c, 9, 35, 64
1, 564720, Note_off_c, 9, 44, 64
1, 564720, Note_on_c, 9, 35, 72
1, 564960, Note_off_c, 9, 35, 64
1, 564960, Note_on_c, 9, 38, 72
1, 564960, Note_on_c, 9, 44, 72
1, 565200, Note_off_c, 9, 38, 64
1, 565200, Note_off_c, 9, 44, 64
1, 565200, Note_on_c, 9, 35, 72
1, 565440, Note_off_c, 9, 35, 64
1, 565440, Note_on_c, 9, 35, 72
1, 565440, Note_on_c, 9, 44, 72
1, 565680, Note_off_c, 9, 35, 64
1, 565680, Note_off_c, 9, 44, 64
1, 565680, Note_on_c, 9, 35, 72
1, 565920, Note_off_c, 9, 35, 64
1, 565920, Note_on_c, 9, 38, 72
1, 565920, Note_on_c, 9, 44, 72
1, 566160, Note_off_c, 9, 38, 64
1, 566160, Note_off_c, 9, 44, 64
1, 566160, Note_on_c, 9, 35, 72
1, 566400, Note_off_c, 9, 35, 64
1, 566400, Note_on_c, 9, 35, 72
1, 566400, Note_on_c, 9, 44, 72
1, 566640, Note_off_c, 9, 35, 64
1, 566640, Note_off_c, 9, 44, 64
1, 566640, Note_on_c, 9, 35, 72
1, 566880, Note_off_c, 9, 35, 64
1, 566880, Note_on_c, 9, 38, 72
1, 566880, Note_on_c, 9, 44, 72
1, 567120, Note_off_c, 9, 38, 64
1, 567120, Note_off_c, 9, 44, 64
1, 567120, Note_on_c, 9, 35, 72
1, 567360, Note_off_c, 9, 35, 64
1, 567360, Note_on_c, 9, 35, 72
1, 567360, Note_on_c, 9, 44, 72
1, 567600, Note_off_c, 9, 35, 64
1, 567600, Note_off_c, 9, 44, 64
1, 567600, Note_on_c, 9, 35, 72
1, 567840, Note_off_c, 9, 35, 64
1, 567840, Note_on_c, 9, 38, 72
1, 567840, Note_on_c, 9, 44, 72
1, 568080, Note_off_c, 9, 38, 64
1, 568080, Note_off_c, 9, 44, 64
1, 568080, Note_on_c, 9, 35, 72
1, 568320, Note_off_c, 9, 35, 64
1, 568320, Note_on_c, 9, 35, 72
1, 568320, Note_on_c, 9, 57, 72
1, 568320, Note_on_c, 9, 44, 72
1, 568560, Note_off_c, 9, 35, 64
1, 568560, Note_off_c, 9, 57, 64
1, 568560, Note_off_c, 9, 44, 64
1, 568560, Note_on_c, 9, 35, 72
1, 568800, Note_off_c, 9, 35, 64
1, 568800, Note_on_c, 9, 38, 72
1, 568800, Note_on_c, 9, 57, 72
1, 568800, Note_on_c, 9, 44, 72
1, 569040, Note_off_c, 9, 38, 64
1, 569040, Note_off_c, 9, 57, 64
1, 569040, Note_off_c, 9, 44, 64
1, 569040, Note_on_c, 9, 35, 72
1, 569280, Note_off_c, 9, 35, 64
1, 569280, Note_on_c, 9, 35, 72
1, 569280, Note_on_c, 9, 57, 72
1, 569280, Note_on_c, 9, 44, 72
1, 569520, Note_off_c, 9, 35, 64
1, 569520, Note_off_c, 9, 57, 64
1, 569520, Note_off_c, 9, 44, 64
1, 569520, Note_on_c, 9, 35, 72
1, 569760, Note_off_c, 9, 35, 64
1, 569760, Note_on_c, 9, 38, 72
1, 569760, Note_on_c, 9, 57, 72
1, 569760, Note_on_c, 9, 44, 72
1, 570000, Note_off_c, 9, 38, 64
1, 570000, Note_off_c, 9, 57, 64
1, 570000, Note_off_c, 9, 44, 64
1, 570000, Note_on_c, 9, 35, 72
1, 570240, Note_off_c, 9, 35, 64
1, 570240, Note_on_c, 9, 35, 72
1, 570240, Note_on_c, 9, 57, 72
1, 570240, Note_on_c, 9, 44, 72
1, 570480, Note_off_c, 9, 35, 64
1, 570480, Note_off_c, 9, 57, 64
1, 570480, Note_off_c, 9, 44, 64
1, 570480, Note_on_c, 9, 35, 72
1, 570720, Note_off_c, 9, 35, 64
1, 570720, Note_on_c, 9, 38, 72
1, 570720, Note_on_c, 9, 57, 72
1, 570720, Note_on_c, 9, 44, 72
1, 570960, Note_off_c, 9, 38, 64
1, 570960, Note_off_c, 9, 57, 64
1, 570960, Note_off_c, 9, 44, 64
1, 570960, Note_on_c, 9, 35, 72
1, 571200, Note_off_c, 9, 35, 64
1, 571200, Note_on_c, 9, 35, 72
1, 571200, Note_on_c, 9, 57, 72
1, 571200, Note_on_c, 9, 44, 72
1, 571440, Note_off_c, 9, 35, 64
1, 571440, Note_off_c, 9, 57, 64
1, 571440, Note_off_c, 9, 44, 64
1, 571440, Note_on_c, 9, 35, 72
1, 571680, Note_off_c, 9, 35, 64
1, 571680, Note_on_c, 9, 38, 72
1, 571680, Note_on_c, 9, 57, 72
1, 571680, Note_on_c, 9, 44, 72
1, 571920, Note_off_c, 9, 38, 64
1, 571920, Note_off_c, 9, 57, 64
1, 571920, Note_off_c, 9, 44, 64
1, 571920, Note_on_c, 9, 35, 72
1, 572160, Note_off_c, 9, 35, 64
1, 572160, Note_on_c, 9, 35, 72
1, 572160, Note_on_c, 9, 44, 72
1, 572400, Note_off_c, 9, 35, 64
1, 572400, Note_off_c, 9, 44, 64
1, 572400, Note_on_c, 9, 35, 72
1, 572640, Note_off_c, 9, 35, 64
1, 572640, Note_on_c, 9, 38, 72
1, 572640, Note_on_c, 9, 44, 72
1, 572880, Note_off_c, 9, 38, 64
1, 572880, Note_off_c, 9, 44, 64
1, 572880, Note_on_c, 9, 35, 72
1, 573120, Note_off_c, 9, 35, 64
1, 573120, Note_on_c, 9, 35, 72
1, 573120, Note_on_c, 9, 44, 72
1, 573360, Note_off_c, 9, 35, 64
1, 573360, Note_off_c, 9, 44, 64
1, 573360, Note_on_c, 9, 35, 72
1, 573600, Note_off_c, 9, 35, 64
1, 573600, Note_on_c, 9, 38, 72
1, 573600, Note_on_c, 9, 44, 72
1, 573840, Note_off_c, 9, 38, 64
1, 573840, Note_off_c, 9, 44, 64
1, 573840, Note_on_c, 9, 35, 72
1, 574080, Note_off_c, 9, 35, 64
1, 574080, Note_on_c, 9, 35, 72
1, 574080, Note_on_c, 9, 44, 72
1, 574320, Note_off_c, 9, 35, 64
1, 574320, Note_off_c, 9, 44, 64
1, 574320, Note_on_c, 9, 35, 72
1, 574560, Note_off_c, 9, 35, 64
1, 574560, Note_on_c, 9, 38, 72
1, 574560, Note_on_c, 9, 44, 72
1, 574800, Note_off_c, 9, 38, 64
1, 574800, Note_off_c, 9, 44, 64
1, 574800, Note_on_c, 9, 35, 72
1, 575040, Note_off_c, 9, 35, 64
1, 575040, Note_on_c, 9, 35, 72
1, 575040, Note_on_c, 9, 44, 72
1, 575280, Note_off_c, 9, 35, 64
1, 575280, Note_off_c, 9, 44, 64
1, 575280, Note_on_c, 9, 35, 72
1, 575520, Note_off_c, 9, 35, 64
1, 575520, Note_on_c, 9, 38, 72
1, 575520, Note_on_c, 9, 44, 72
1, 575760, Note_off_c, 9, 38, 64
1, 575760, Note_off_c, 9, 44, 64
1, 575760, Note_on_c, 9, 35, 72
1, 576000, Note_off_c, 9, 35, 64
1, 576000, Note_on_c, 9, 35, 72
1, 576000, Note_on_c, 9, 57, 72
1, 576000, Note_on_c, 9, 44, 72
1, 576240, Note_off_c, 9, 35, 64
1, 576240, Note_off_c, 9, 57, 64
1, 576240, Note_off_c, 9, 44, 64
1, 576240, Note_on_c, 9, 35, 72
1, 576480, Note_off_c, 9, 35, 64
1, 576480, Note_on_c, 9, 38, 72
1, 576480, Note_on_c, 9, 57, 72
1, 576480, Note_on_c, 9, 44, 72
1, 576720, Note_off_c, 9, 38, 64
1, 576720, Note_off_c, 9, 57, 64
1, 576720, Note_off_c, 9, 44, 64
1, 576720, Note_on_c, 9, 35, 72
1, 576960, Note_off_c, 9, 35, 64
1, 576960, Note_on_c, 9, 35, 72
1, 576960, Note_on_c, 9, 57, 72
1, 576960, Note_on_c, 9, 44, 72
1, 577200, Note_off_c, 9, 35, 64
1, 577200, Note_off_c, 9, 57, 64
1, 577200, Note_off_c, 9, 44, 64
1, 577200, Note_on_c, 9, 35, 72
1, 577440, Note_off_c, 9, 35, 64
1, 577440, Note_on_c, 9, 38, 72
1, 577440, Note_on_c, 9, 57, 72
1, 577440, Note_on_c, 9, 44, 72
1, 577680, Note_off_c, 9, 38, 64
1, 577680, Note_off_c, 9, 57, 64
1, 577680, Note_off_c, 9, 44, 64
1, 577680, Note_on_c, 9, 35, 72
1, 577920, Note_off_c, 9, 35, 64
1, 577920, Note_on_c, 9, 35, 72
1, 577920, Note_on_c, 9, 57, 72
1, 577920, Note_on_c, 9, 44, 72
1, 578160, Note_off_c, 9, 35, 64
1, 578160, Note_off_c, 9, 57, 64
1, 578160, Note_off_c, 9, 44, 64
1, 578160, Note_on_c, 9, 35, 72
1, 578400, Note_off_c, 9, 35, 64
1, 578400, Note_on_c, 9, 38, 72
1, 578400, Note_on_c, 9, 57, 72
1, 578400, Note_on_c, 9, 44, 72
1, 578640, Note_off_c, 9, 38, 64
1, 578640, Note_off_c, 9, 57, 64
1, 578640, Note_off_c, 9, 44, 64
1, 578640, Note_on_c, 9, 35, 72
1, 578880, Note_off_c, 9, 35, 64
1, 578880, Note_on_c, 9, 35, 72
1, 578880, Note_on_c, 9, 57, 72
1, 578880, Note_on_c, 9, 44, 72
1, 579120, Note_off_c, 9, 35, 64
1, 579120, Note_off_c, 9, 57, 64
1, 579120, Note_off_c, 9, 44, 64
1, 579120, Note_on_c, 9, 35, 72
1, 579360, Note_off_c, 9, 35, 64
1, 579360, Note_on_c, 9, 38, 72
1, 579360, Note_on_c, 9, 57, 72
1, 579360, Note_on_c, 9, 44, 72
1, 579600, Note_off_c, 9, 38, 64
1, 579600, Note_off_c, 9, 57, 64
1, 579600, Note_off_c, 9, 44, 64
1, 579600, Note_on_c, 9, 35, 72
1, 579840, Note_off_c, 9, 35, 64
1, 579840, Note_on_c, 9, 35, 72
1, 579840, Note_on_c, 9, 44, 72
1, 580080, Note_off_c, 9, 35, 64
1, 580080, Note_off_c, 9, 44, 64
1, 580080, Note_on_c, 9, 35, 72
1, 580320, Note_off_c, 9, 35, 64
1, 580320, Note_on_c, 9, 38, 72
1, 580320, Note_on_c, 9, 44, 72
1, 580560, Note_off_c, 9, 38, 64
1, 580560, Note_off_c, 9, 44, 64
1, 580560, Note_on_c, 9, 35, 72
1, 580800, Note_off_c, 9, 35, 64
1, 580800, Note_on_c, 9, 35, 72
1, 580800, Note_on_c, 9, 44, 72
1, 581040, Note_off_c, 9, 35, 64
1, 581040, Note_off_c, 9, 44, 64
1, 581040, Note_on_c, 9, 35, 72
1, 581280, Note_off_c, 9, 35, 64
1, 581280, Note_on_c, 9, 38, 72
1, 581280, Note_on_c, 9, 44, 72
1, 581520, Note_off_c, 9, 38, 64
1, 581520, Note_off_c, 9, 44, 64
1, 581520, Note_on_c, 9, 35, 72
1, 581760, Note_off_c, 9, 35, 64
1, 581760, Note_on_c, 9, 35, 72
1, 581760, Note_on_c, 9, 44, 72
1, 582000, Note_off_c, 9, 35, 64
1, 582000, Note_off_c, 9, 44, 64
1, 582000, Note_on_c, 9, 35, 72
1, 582240, Note_off_c, 9, 35, 64
1, 582240, Note_on_c, 9, 38, 72
1, 582240, Note_on_c, 9, 44, 72
1, 582480, Note_off_c, 9, 38, 64
1, 582480, Note_off_c, 9, 44, 64
1, 582480, Note_on_c, 9, 35, 72
1, 582720, Note_off_c, 9, 35, 64
1, 582720, Note_on_c, 9, 35, 72
1, 582720, Note_on_c, 9, 44, 72
1, 582960, Note_off_c, 9, 35, 64
1, 582960, Note_off_c, 9, 44, 64
1, 582960, Note_on_c, 9, 35, 72
1, 583200, Note_off_c, 9, 35, 64
1, 583200, Note_on_c, 9, 38, 72
1, 583200, Note_on_c, 9, 44, 72
1, 583440, Note_off_c, 9, 38, 64
1, 583440, Note_off_c, 9, 44, 64
1, 583440, Note_on_c, 9, 35, 72
1, 583680, Note_off_c, 9, 35, 64
1, 583680, Note_on_c, 9, 35, 72
1, 583680, Note_on_c, 9, 57, 72
1, 583680, Note_on_c, 9, 44, 72
1, 583920, Note_off_c, 9, 35, 64
1, 583920, Note_off_c, 9, 57, 64
1, 583920, Note_off_c, 9, 44, 64
1, 583920, Note_on_c, 9, 35, 72
1, 584160, Note_off_c, 9, 35, 64
1, 584160, Note_on_c, 9, 38, 72
1, 584160, Note_on_c, 9, 57, 72
1, 584160, Note_on_c, 9, 44, 72
1, 584400, Note_off_c, 9, 38, 64
1, 584400, Note_off_c, 9, 57, 64
1, 584400, Note_off_c, 9, 44, 64
1, 584400, Note_on_c, 9, 35, 72
1, 584640, Note_off_c, 9, 35, 64
1, 584640, Note_on_c, 9, 35, 72
1, 584640, Note_on_c, 9, 57, 72
1, 584640, Note_on_c, 9, 44, 72
1, 584880, Note_off_c, 9, 35, 64
1, 584880, Note_off_c, 9, 57, 64
1, 584880, Note_off_c, 9, 44, 64
1, 584880, Note_on_c, 9, 35, 72
1, 585120, Note_off_c, 9, 35, 64
1, 585120, Note_on_c, 9, 38, 72
1, 585120, Note_on_c, 9, 57, 72
1, 585120, Note_on_c, 9, 44, 72
1, 585360, Note_off_c, 9, 38, 64
1, 585360, Note_off_c, 9, 57, 64
1, 585360, Note_off_c, 9, 44, 64
1, 585360, Note_on_c, 9, 35, 72
1, 585600, Note_off_c, 9, 35, 64
1, 585600, Note_on_c, 9, 35, 72
1, 585600, Note_on_c, 9, 57, 72
1, 585600, Note_on_c, 9, 44, 72
1, 585840, Note_off_c, 9, 35, 64
1, 585840, Note_off_c, 9, 57, 64
1, 585840, Note_off_c, 9, 44, 64
1, 585840, Note_on_c, 9, 35, 72
1, 586080, Note_off_c, 9, 35, 64
1, 586080, Note_on_c, 9, 38, 72
1, 586080, Note_on_c, 9, 57, 72
1, 586080, Note_on_c, 9, 44, 72
1, 586320, Note_off_c, 9, 38, 64
1, 586320, Note_off_c, 9, 57, 64
1, 586320, Note_off_c, 9, 44, 64
1, 586320, Note_on_c, 9, 35, 72
1, 586560, Note_off_c, 9, 35, 64
1, 586560, Note_on_c, 9, 35, 72
1, 586560, Note_on_c, 9, 57, 72
1, 586560, Note_on_c, 9, 44, 72
1, 586800, Note_off_c, 9, 35, 64
1, 586800, Note_off_c, 9, 57, 64
1, 586800, Note_off_c, 9, 44, 64
1, 586800, Note_on_c, 9, 35, 72
1, 587040, Note_off_c, 9, 35, 64
1, 587040, Note_on_c, 9, 38, 72
1, 587040, Note_on_c, 9, 57, 72
1, 587040, Note_on_c, 9, 44, 72
1, 587280, Note_off_c, 9, 38, 64
1, 587280, Note_off_c, 9, 57, 64
1, 587280, Note_off_c, 9, 44, 64
1, 587280, Note_on_c, 9, 35, 72
1, 587520, Note_off_c, 9, 35, 64
1, 587520, Note_on_c, 9, 35, 72
1, 587520, Note_on_c, 9, 44, 72
1, 587760, Note_off_c, 9, 35, 64
1, 587760, Note_off_c, 9, 44, 64
1, 587760, Note_on_c, 9, 35, 72
1, 588000, Note_off_c, 9, 35, 64
1, 588000, Note_on_c, 9, 38, 72
1, 588000, Note_on_c, 9, 44, 72
1, 588240, Note_off_c, 9, 38, 64
1, 588240, Note_off_c, 9, 44, 64
1, 588240, Note_on_c, 9, 35, 72
1, 588480, Note_off_c, 9, 35, 64
1, 588480, Note_on_c, 9, 35, 72
1, 588480, Note_on_c, 9, 44, 72
1, 588720, Note_off_c, 9, 35, 64
1, 588720, Note_off_c, 9, 44, 64
1, 588720, Note_on_c, 9, 35, 72
1, 588960, Note_off_c, 9, 35, 64
1, 588960, Note_on_c, 9, 38, 72
1, 588960, Note_on_c, 9, 44, 72
1, 589200, Note_off_c, 9, 38, 64
1, 589200, Note_off_c, 9, 44, 64
1, 589200, Note_on_c, 9, 35, 72
1, 589440, Note_off_c, 9, 35, 64
1, 589440, Note_on_c, 9, 35, 72
1, 589440, Note_on_c, 9, 44, 72
1, 589680, Note_off_c, 9, 35, 64
1, 589680, Note_off_c, 9, 44, 64
1, 589680, Note_on_c, 9, 35, 72
1, 589920, Note_off_c, 9, 35, 64
1, 589920, Note_on_c, 9, 38, 72
1, 589920, Note_on_c, 9, 44, 72
1, 590160, Note_off_c, 9, 38, 64
1, 590160, Note_off_c, 9, 44, 64
1, 590160, Note_on_c, 9, 35, 72
1, 590400, Note_off_c, 9, 35, 64
1, 590400, Note_on_c, 9, 35, 72
1, 590400, Note_on_c, 9, 44, 72
1, 590640, Note_off_c, 9, 35, 64
1, 590640, Note_off_c, 9, 44, 64
1, 590640, Note_on_c, 9, 35, 72
1, 590880, Note_off_c, 9, 35, 64
1, 590880, Note_on_c, 9, 38, 72
1, 590880, Note_on_c, 9, 44, 72
1, 591120, Note_off_c, 9, 38, 64
1, 591120, Note_off_c, 9, 44, 64
1, 591120, Note_on_c, 9, 35, 72
1, 591360, Note_off_c, 9, 35, 64
1, 591360, Note_on_c, 9, 35, 72
1, 591360, Note_on_c, 9, 57, 72
1, 591360, Note_on_c, 9, 44, 72
1, 591600, Note_off_c, 9, 35, 64
1, 591600, Note_off_c, 9, 57, 64
1, 591600, Note_off_c, 9, 44, 64
1, 591600, Note_on_c, 9, 35, 72
1, 591840, Note_off_c, 9, 35, 64
1, 591840, Note_on_c, 9, 38, 72
1, 591840, Note_on_c, 9, 57, 72
1, 591840, Note_on_c, 9, 44, 72
1, 592080, Note_off_c, 9, 38, 64
1, 592080, Note_off_c, 9, 57, 64
1, 592080, Note_off_c, 9, 44, 64
1, 592080, Note_on_c, 9, 35, 72
1, 592320, Note_off_c, 9, 35, 64
1, 592320, Note_on_c, 9, 35, 72
1, 592320, Note_on_c, 9, 57, 72
1, 592320, Note_on_c, 9, 44, 72
1, 592560, Note_off_c, 9, 35, 64
1, 592560, Note_off_c, 9, 57, 64
1, 592560, Note_off_c, 9, 44, 64
1, 592560, Note_on_c, 9, 35, 72
1, 592800, Note_off_c, 9, 35, 64
1, 592800, Note_on_c, 9, 38, 72
1, 592800, Note_on_c, 9, 57, 72
1, 592800, Note_on_c, 9, 44, 72
1, 593040, Note_off_c, 9, 38, 64
1, 593040, Note_off_c, 9, 57, 64
1, 593040, Note_off_c, 9, 44, 64
1, 593040, Note_on_c, 9, 35, 72
1, 593280, Note_off_c, 9, 35, 64
1, 593280, Note_on_c, 9, 35, 72
1, 593280, Note_on_c, 9, 57, 72
1, 593280, Note_on_c, 9, 44, 72
1, 593520, Note_off_c, 9, 35, 64
1, 593520, Note_off_c, 9, 57, 64
1, 593520, Note_off_c, 9, 44, 64
1, 593520, Note_on_c, 9, 35, 72
1, 593760, Note_off_c, 9, 35, 64
1, 593760, Note_on_c, 9, 38, 72
1, 593760, Note_on_c, 9, 57, 72
1, 593760, Note_on_c, 9, 44, 72
1, 594000, Note_off_c, 9, 38, 64
1, 594000, Note_off_c, 9, 57, 64
1, 594000, Note_off_c, 9, 44, 64
1, 594000, Note_on_c, 9, 35, 72
1, 594240, Note_off_c, 9, 35, 64
1, 594240, Note_on_c, 9, 35, 72
1, 594240, Note_on_c, 9, 57, 72
1, 594240, Note_on_c, 9, 44, 72
1, 594480, Note_off_c, 9, 35, 64
1, 594480, Note_off_c, 9, 57, 64
1, 594480, Note_off_c, 9, 44, 64
1, 594480, Note_on_c, 9, 35, 72
1, 594720, Note_off_c, 9, 35, 64
1, 594720, Note_on_c, 9, 38, 72
1, 594720, Note_on_c, 9, 57, 72
1, 594720, Note_on_c, 9, 44, 72
1, 594960, Note_off_c, 9, 38, 64
1, 594960, Note_off_c, 9, 57, 64
1, 594960, Note_off_c, 9, 44, 64
1, 594960, Note_on_c, 9, 35, 72
1, 595200, Note_off_c, 9, 35, 64
1, 595200, Note_on_c, 9, 35, 72
1, 595200, Note_on_c, 9, 44, 72
1, 595440, Note_off_c, 9, 35, 64
1, 595440, Note_off_c, 9, 44, 64
1, 595440, Note_on_c, 9, 35, 72
1, 595680, Note_off_c, 9, 35, 64
1, 595680, Note_on_c, 9, 38, 72
1, 595680, Note_on_c, 9, 44, 72
1, 595920, Note_off_c, 9, 38, 64
1, 595920, Note_off_c, 9, 44, 64
1, 595920, Note_on_c, 9, 35, 72
1, 596160, Note_off_c, 9, 35, 64
1, 596160, Note_on_c, 9, 35, 72
1, 596160, Note_on_c, 9, 44, 72
1, 596400, Note_off_c, 9, 35, 64
1, 596400, Note_off_c, 9, 44, 64
1, 596400, Note_on_c, 9, 35, 72
1, 596640, Note_off_c, 9, 35, 64
1, 596640, Note_on_c, 9, 38, 72
1, 596640, Note_on_c, 9, 44, 72
1, 596880, Note_off_c, 9, 38, 64
1, 596880, Note_off_c, 9, 44, 64
1, 596880, Note_on_c, 9, 35, 72
1, 597120, Note_off_c, 9, 35, 64
1, 597120, Note_on_c, 9, 35, 72
1, 597120, Note_on_c, 9, 44, 72
1, 597360, Note_off_c, 9, 35, 64
1, 597360, Note_off_c, 9, 44, 64
1, 597360, Note_on_c, 9, 35, 72
1, 597600, Note_off_c, 9, 35, 64
1, 597600, Note_on_c, 9, 38, 72
1, 597600, Note_on_c, 9, 44, 72
1, 597840, Note_off_c, 9, 38, 64
1, 597840, Note_off_c, 9, 44, 64
1, 597840, Note_on_c, 9, 35, 72
1, 598080, Note_off_c, 9, 35, 64
1, 598080, Note_on_c, 9, 35, 72
1, 598080, Note_on_c, 9, 44, 72
1, 598320, Note_off_c, 9, 35, 64
1, 598320, Note_off_c, 9, 44, 64
1, 598320, Note_on_c, 9, 35, 72
1, 598560, Note_off_c, 9, 35, 64
1, 598560, Note_on_c, 9, 38, 72
1, 598560, Note_on_c, 9, 44, 72
1, 598800, Note_off_c, 9, 38, 64
1, 598800, Note_off_c, 9, 44, 64
1, 598800, Note_on_c, 9, 35, 72
1, 599040, Note_off_c, 9, 35, 64
1, 599040, Note_on_c, 9, 35, 72
1, 599040, Note_on_c, 9, 57, 72
1, 599040, Note_on_c, 9, 44, 72
1, 599280, Note_off_c, 9, 35, 64
1, 599280, Note_off_c, 9, 57, 64
1, 599280, Note_off_c, 9, 44, 64
1, 599280, Note_on_c, 9, 35, 72
1, 599520, Note_off_c, 9, 35, 64
1, 599520, Note_on_c, 9, 38, 72
1, 599520, Note_on_c, 9, 57, 72
1, 599520, Note_on_c, 9, 44, 72
1, 599760, Note_off_c, 9, 38, 64
1, 599760, Note_off_c, 9, 57, 64
1, 599760, Note_off_c, 9, 44, 64
1, 599760, Note_on_c, 9, 35, 72
1, 600000, Note_off_c, 9, 35, 64
1, 600000, Note_on_c, 9, 35, 72
1, 600000, Note_on_c, 9, 57, 72
1, 600000, Note_on_c, 9, 44, 72
1, 600240, Note_off_c, 9, 35, 64
1, 600240, Note_off_c, 9, 57, 64
1, 600240, Note_off_c, 9, 44, 64
1, 600240, Note_on_c, 9, 35, 72
1, 600480, Note_off_c, 9, 35, 64
1, 600480, Note_on_c, 9, 38, 72
1, 600480, Note_on_c, 9, 57, 72
1, 600480, Note_on_c, 9, 44, 72
1, 600720, Note_off_c, 9, 38, 64
1, 600720, Note_off_c, 9, 57, 64
1, 600720, Note_off_c, 9, 44, 64
1, 600720, Note_on_c, 9, 35, 72
1, 600960, Note_off_c, 9, 35, 64
1, 600960, Note_on_c, 9, 35, 72
1, 600960, Note_on_c, 9, 57, 72
1, 600960, Note_on_c, 9, 44, 72
1, 601200, Note_off_c, 9, 35, 64
1, 601200, Note_off_c, 9, 57, 64
1, 601200, Note_off_c, 9, 44, 64
1, 601200, Note_on_c, 9, 35, 72
1, 601440, Note_off_c, 9, 35, 64
1, 601440, Note_on_c, 9, 38, 72
1, 601440, Note_on_c, 9, 57, 72
1, 601440, Note_on_c, 9, 44, 72
1, 601680, Note_off_c, 9, 38, 64
1, 601680, Note_off_c, 9, 57, 64
1, 601680, Note_off_c, 9, 44, 64
1, 601680, Note_on_c, 9, 35, 72
1, 601920, Note_off_c, 9, 35, 64
1, 601920, Note_on_c, 9, 35, 72
1, 601920, Note_on_c, 9, 57, 72
1, 601920, Note_on_c, 9, 44, 72
1, 602160, Note_off_c, 9, 35, 64
1, 602160, Note_off_c, 9, 57, 64
1, 602160, Note_off_c, 9, 44, 64
1, 602160, Note_on_c, 9, 35, 72
1, 602400, Note_off_c, 9, 35, 64
1, 602400, Note_on_c, 9, 38, 72
1, 602400, Note_on_c, 9, 57, 72
1, 602400, Note_on_c, 9, 44, 72
1, 602640, Note_off_c, 9, 38, 64
1, 602640, Note_off_c, 9, 57, 64
1, 602640, Note_off_c, 9, 44, 64
1, 602640, Note_on_c, 9, 35, 72
1, 602880, Note_off_c, 9, 35, 64
1, 602880, Note_on_c, 9, 35, 72
1, 602880, Note_on_c, 9, 44, 72
1, 603120, Note_off_c, 9, 35, 64
1, 603120, Note_off_c, 9, 44, 64
1, 603120, Note_on_c, 9, 35, 72
1, 603360, Note_off_c, 9, 35, 64
1, 603360, Note_on_c, 9, 38, 72
1, 603360, Note_on_c, 9, 44, 72
1, 603600, Note_off_c, 9, 38, 64
1, 603600, Note_off_c, 9, 44, 64
1, 603600, Note_on_c, 9, 35, 72
1, 603840, Note_off_c, 9, 35, 64
1, 603840, Note_on_c, 9, 35, 72
1, 603840, Note_on_c, 9, 44, 72
1, 604080, Note_off_c, 9, 35, 64
1, 604080, Note_off_c, 9, 44, 64
1, 604080, Note_on_c, 9, 35, 72
1, 604320, Note_off_c, 9, 35, 64
1, 604320, Note_on_c, 9, 38, 72
1, 604320, Note_on_c, 9, 44, 72
1, 604560, Note_off_c, 9, 38, 64
1, 604560, Note_off_c, 9, 44, 64
1, 604560, Note_on_c, 9, 35, 72
1, 604800, Note_off_c, 9, 35, 64
1, 604800, Note_on_c, 9, 35, 72
1, 604800, Note_on_c, 9, 44, 72
1, 605040, Note_off_c, 9, 35, 64
1, 605040, Note_off_c, 9, 44, 64
1, 605040, Note_on_c, 9, 35, 72
1, 605280, Note_off_c, 9, 35, 64
1, 605280, Note_on_c, 9, 38, 72
1, 605280, Note_on_c, 9, 44, 72
1, 605520, Note_off_c, 9, 38, 64
1, 605520, Note_off_c, 9, 44, 64
1, 605520, Note_on_c, 9, 35, 72
1, 605760, Note_off_c, 9, 35, 64
1, 605760, Note_on_c, 9, 35, 72
1, 605760, Note_on_c, 9, 44, 72
1, 606000, Note_off_c, 9, 35, 64
1, 606000, Note_off_c, 9, 44, 64
1, 606000, Note_on_c, 9, 35, 72
1, 606240, Note_off_c, 9, 35, 64
1, 606240, Note_on_c, 9, 38, 72
1, 606240, Note_on_c, 9, 44, 72
1, 606480, Note_off_c, 9, 38, 64
1, 606480, Note_off_c, 9, 44, 64
1, 606480, Note_on_c, 9, 35, 72
1, 606720, Note_off_c, 9, 35, 64
1, 606720, Note_on_c, 9, 35, 72
1, 606720, Note_on_c, 9, 57, 72
1, 606720, Note_on_c, 9, 44, 72
1, 606960, Note_off_c, 9, 35, 64
1, 606960, Note_off_c, 9, 57, 64
1, 606960, Note_off_c, 9, 44, 64
1, 606960, Note_on_c, 9, 35, 72
1, 607200, Note_off_c, 9, 35, 64
1, 607200, Note_on_c, 9, 38, 72
1, 607200, Note_on_c, 9, 57, 72
1, 607200, Note_on_c, 9, 44, 72
1, 607440, Note_off_c, 9, 38, 64
1, 607440, Note_off_c, 9, 57, 64
1, 607440, Note_off_c, 9, 44, 64
1, 607440, Note_on_c, 9, 35, 72
1, 607680, Note_off_c, 9, 35, 64
1, 607680, Note_on_c, 9, 35, 72
1, 607680, Note_on_c, 9, 57, 72
1, 607680, Note_on_c, 9, 44, 72
1, 607920, Note_off_c, 9, 35, 64
1, 607920, Note_off_c, 9, 57, 64
1, 607920, Note_off_c, 9, 44, 64
1, 607920, Note_on_c, 9, 35, 72
1, 608160, Note_off_c, 9, 35, 64
1, 608160, Note_on_c, 9, 38, 72
1, 608160, Note_on_c, 9, 57, 72
1, 608160, Note_on_c, 9, 44, 72
1, 608400, Note_off_c, 9, 38, 64
1, 608400, Note_off_c, 9, 57, 64
1, 608400, Note_off_c, 9, 44, 64
1, 608400, Note_on_c, 9, 35, 72
1, 608640, Note_off_c, 9, 35, 64
1, 608640, Note_on_c, 9, 35, 72
1, 608640, Note_on_c, 9, 57, 72
1, 608640, Note_on_c, 9, 44, 72
1, 608880, Note_off_c, 9, 35, 64
1, 608880, Note_off_c, 9, 57, 64
1, 608880, Note_off_c, 9, 44, 64
1, 608880, Note_on_c, 9, 35, 72
1, 609120, Note_off_c, 9, 35, 64
1, 609120, Note_on_c, 9, 38, 72
1, 609120, Note_on_c, 9, 57, 72
1, 609120, Note_on_c, 9, 44, 72
1, 609360, Note_off_c, 9, 38, 64
1, 609360, Note_off_c, 9, 57, 64
1, 609360, Note_off_c, 9, 44, 64
1, 609360, Note_on_c, 9, 35, 72
1, 609600, Note_off_c, 9, 35, 64
1, 609600, Note_on_c, 9, 35, 72
1, 609600, Note_on_c, 9, 57, 72
1, 609600, Note_on_c, 9, 44, 72
1, 609840, Note_off_c, 9, 35, 64
1, 609840, Note_off_c, 9, 57, 64
1, 609840, Note_off_c, 9, 44, 64
1, 609840, Note_on_c, 9, 35, 72
1, 610080, Note_off_c, 9, 35, 64
1, 610080, Note_on_c, 9, 38, 72
1, 610080, Note_on_c, 9, 57, 72
1, 610080, Note_on_c, 9, 44, 72
1, 610320, Note_off_c, 9, 38, 64
1, 610320, Note_off_c, 9, 57, 64
1, 610320, Note_off_c, 9, 44, 64
1, 610320, Note_on_c, 9, 35, 72
1, 610560, Note_off_c, 9, 35, 64
1, 610560, Note_on_c, 9, 35, 72
1, 610560, Note_on_c, 9, 44, 72
1, 610800, Note_off_c, 9, 35, 64
1, 610800, Note_off_c, 9, 44, 64
1, 610800, Note_on_c, 9, 35, 72
1, 611040, Note_off_c, 9, 35, 64
1, 611040, Note_on_c, 9, 38, 72
1, 611040, Note_on_c, 9, 44, 72
1, 611280, Note_off_c, 9, 38, 64
1, 611280, Note_off_c, 9, 44, 64
1, 611280, Note_on_c, 9, 35, 72
1, 611520, Note_off_c, 9, 35, 64
1, 611520, Note_on_c, 9, 35, 72
1, 611520, Note_on_c, 9, 44, 72
1, 611760, Note_off_c, 9, 35, 64
1, 611760, Note_off_c, 9, 44, 64
1, 611760, Note_on_c, 9, 35, 72
1, 612000, Note_off_c, 9, 35, 64
1, 612000, Note_on_c, 9, 38, 72
1, 612000, Note_on_c, 9, 44, 72
1, 612240, Note_off_c, 9, 38, 64
1, 612240, Note_off_c, 9, 44, 64
1, 612240, Note_on_c, 9, 35, 72
1, 612480, Note_off_c, 9, 35, 64
1, 612480, Note_on_c, 9, 35, 72
1, 612480, Note_on_c, 9, 44, 72
1, 612720, Note_off_c, 9, 35, 64
1, 612720, Note_off_c, 9, 44, 64
1, 612720, Note_on_c, 9, 35, 72
1, 612960, Note_off_c, 9, 35, 64
1, 612960, Note_on_c, 9, 38, 72
1, 612960, Note_on_c, 9, 44, 72
1, 613200, Note_off_c, 9, 38, 64
1, 613200, Note_off_c, 9, 44, 64
1, 613200, Note_on_c, 9, 35, 72
1, 613440, Note_off_c, 9, 35, 64
1, 613440, Note_on_c, 9, 35, 72
1, 613440, Note_on_c, 9, 44, 72
1, 613680, Note_off_c, 9, 35, 64
1, 613680, Note_off_c, 9, 44, 64
1, 613680, Note_on_c, 9, 35, 72
1, 613920, Note_off_c, 9, 35, 64
1, 613920, Note_on_c, 9, 38, 72
1, 613920, Note_on_c, 9, 44, 72
1, 614160, Note_off_c, 9, 38, 64
1, 614160, Note_off_c, 9, 44, 64
1, 614160, Note_on_c, 9, 35, 72
1, 614400, Note_off_c, 9, 35, 64
1, 614400, Note_on_c, 9, 35, 72
1, 614400, Note_on_c, 9, 57, 72
1, 614400, Note_on_c, 9, 44, 72
1, 614640, Note_off_c, 9, 35, 64
1, 614640, Note_off_c, 9, 57, 64
1, 614640, Note_off_c, 9, 44, 64
1, 614640, Note_on_c, 9, 35, 72
1, 614880, Note_off_c, 9, 35, 64
1, 614880, Note_on_c, 9, 38, 72
1, 614880, Note_on_c, 9, 57, 72
1, 614880, Note_on_c, 9, 44, 72
1, 615120, Note_off_c, 9, 38, 64
1, 615120, Note_off_c, 9, 57, 64
1, 615120, Note_off_c, 9, 44, 64
1, 615120, Note_on_c, 9, 35, 72
1, 615360, Note_off_c, 9, 35, 64
1, 615360, Note_on_c, 9, 35, 72
1, 615360, Note_on_c, 9, 57, 72
1, 615360, Note_on_c, 9, 44, 72
1, 615600, Note_off_c, 9, 35, 64
1, 615600, Note_off_c, 9, 57, 64
1, 615600, Note_off_c, 9, 44, 64
1, 615600, Note_on_c, 9, 35, 72
1, 615840, Note_off_c, 9, 35, 64
1, 615840, Note_on_c, 9, 38, 72
1, 615840, Note_on_c, 9, 57, 72
1, 615840, Note_on_c, 9, 44, 72
1, 616080, Note_off_c, 9, 38, 64
1, 616080, Note_off_c, 9, 57, 64
1, 616080, Note_off_c, 9, 44, 64
1, 616080, Note_on_c, 9, 35, 72
1, 616320, Note_off_c, 9, 35, 64
1, 616320, Note_on_c, 9, 35, 72
1, 616320, Note_on_c, 9, 57, 72
1, 616320, Note_on_c, 9, 44, 72
1, 616560, Note_off_c, 9, 35, 64
1, 616560, Note_off_c, 9, 57, 64
1, 616560, Note_off_c, 9, 44, 64
1, 616560, Note_on_c, 9, 35, 72
1, 616800, Note_off_c, 9, 35, 64
1, 616800, Note_on_c, 9, 38, 72
1, 616800, Note_on_c, 9, 57, 72
1, 616800, Note_on_c, 9, 44, 72
1, 617040, Note_off_c, 9, 38, 64
1, 617040, Note_off_c, 9, 57, 64
1, 617040, Note_off_c, 9, 44, 64
1, 617040, Note_on_c, 9, 35, 72
1, 617280, Note_off_c, 9, 35, 64
1, 617280, Note_on_c, 9, 35, 72
1, 617280, Note_on_c, 9, 57, 72
1, 617280, Note_on_c, 9, 44, 72
1, 617520, Note_off_c, 9, 35, 64
1, 617520, Note_off_c, 9, 57, 64
1, 617520, Note_off_c, 9, 44, 64
1, 617520, Note_on_c, 9, 35, 72
1, 617760, Note_off_c, 9, 35, 64
1, 617760, Note_on_c, 9, 38, 72
1, 617760, Note_on_c, 9, 57, 72
1, 617760, Note_on_c, 9, 44, 72
1, 618000, Note_off_c, 9, 38, 64
1, 618000, Note_off_c, 9, 57, 64
1, 618000, Note_off_c, 9, 44, 64
1, 618000, Note_on_c, 9, 35, 72
1, 618240, Note_off_c, 9, 35, 64
1, 618240, Note_on_c, 9, 35, 72
1, 618240, Note_on_c, 9, 44, 72
1, 618480, Note_off_c, 9, 35, 64
1, 618480, Note_off_c, 9, 44, 64
1, 618480, Note_on_c, 9, 35, 72
1, 618720, Note_off_c, 9, 35, 64
1, 618720, Note_on_c, 9, 38, 72
1, 618720, Note_on_c, 9, 44, 72
1, 618960, Note_off_c, 9, 38, 64
1, 618960, Note_off_c, 9, 44, 64
1, 618960, Note_on_c, 9, 35, 72
1, 619200, Note_off_c, 9, 35, 64
1, 619200, Note_on_c, 9, 35, 72
1, 619200, Note_on_c, 9, 44, 72
1, 619440, Note_off_c, 9, 35, 64
1, 619440, Note_off_c, 9, 44, 64
1, 619440, Note_on_c, 9, 35, 72
1, 619680, Note_off_c, 9, 35, 64
1, 619680, Note_on_c, 9, 38, 72
1, 619680, Note_on_c, 9, 44, 72
1, 619920, Note_off_c, 9, 38, 64
1, 619920, Note_off_c, 9, 44, 64
1, 619920, Note_on_c, 9, 35, 72
1, 620160, Note_off_c, 9, 35, 64
1, 620160, Note_on_c, 9, 35, 72
1, 620160, Note_on_c, 9, 44, 72
1, 620400, Note_off_c, 9, 35, 64
1, 620400, Note_off_c, 9, 44, 64
1, 620400, Note_on_c, 9, 35, 72
1, 620640, Note_off_c, 9, 35, 64
1, 620640, Note_on_c, 9, 38, 72
1, 620640, Note_on_c, 9, 44, 72
1, 620880, Note_off_c, 9, 38, 64
1, 620880, Note_off_c, 9, 44, 64
1, 620880, Note_on_c, 9, 35, 72
1, 621120, Note_off_c, 9, 35, 64
1, 621120, Note_on_c, 9, 35, 72
1, 621120, Note_on_c, 9, 44, 72
1, 621360, Note_off_c, 9, 35, 64
1, 621360, Note_off_c, 9, 44, 64
1, 621360, Note_on_c, 9, 35, 72
1, 621600, Note_off_c, 9, 35, 64
1, 621600, Note_on_c, 9, 38, 72
1, 621600, Note_on_c, 9, 44, 72
1, 621840, Note_off_c, 9, 38, 64
1, 621840, Note_off_c, 9, 44, 64
1, 621840, Note_on_c, 9, 35, 72
1, 622080, Note_off_c, 9, 35, 64
1, 622080, Note_on_c, 9, 35, 72
1, 622080, Note_on_c, 9, 57, 72
1, 622080, Note_on_c, 9, 44, 72
1, 622320, Note_off_c, 9, 35, 64
1, 622320, Note_off_c, 9, 57, 64
1, 622320, Note_off_c, 9, 44, 64
1, 622320, Note_on_c, 9, 35, 72
1, 622560, Note_off_c, 9, 35, 64
1, 622560, Note_on_c, 9, 38, 72
1, 622560, Note_on_c, 9, 57, 72
1, 622560, Note_on_c, 9, 44, 72
1, 622800, Note_off_c, 9, 38, 64
1, 622800, Note_off_c, 9, 57, 64
1, 622800, Note_off_c, 9, 44, 64
1, 622800, Note_on_c, 9, 35, 72
1, 623040, Note_off_c, 9, 35, 64
1, 623040, Note_on_c, 9, 35, 72
1, 623040, Note_on_c, 9, 57, 72
1, 623040, Note_on_c, 9, 44, 72
1, 623280, Note_off_c, 9, 35, 64
1, 623280, Note_off_c, 9, 57, 64
1, 623280, Note_off_c, 9, 44, 64
1, 623280, Note_on_c, 9, 35, 72
1, 623520, Note_off_c, 9, 35, 64
1, 623520, Note_on_c, 9, 38, 72
1, 623520, Note_on_c, 9, 57, 72
1, 623520, Note_on_c, 9, 44, 72
1, 623760, Note_off_c, 9, 38, 64
1, 623760, Note_off_c, 9, 57, 64
1, 623760, Note_off_c, 9, 44, 64
1, 623760, Note_on_c, 9, 35, 72
1, 624000, Note_off_c, 9, 35, 64
1, 624000, Note_on_c, 9, 35, 72
1, 624000, Note_on_c, 9, 57, 72
1, 624000, Note_on_c, 9, 44, 72
1, 624240, Note_off_c, 9, 35, 64
1, 624240, Note_off_c, 9, 57, 64
1, 624240, Note_off_c, 9, 44, 64
1, 624240, Note_on_c, 9, 35, 72
1, 624480, Note_off_c, 9, 35, 64
1, 624480, Note_on_c, 9, 38, 72
1, 624480, Note_on_c, 9, 57, 72
1, 624480, Note_on_c, 9, 44, 72
1, 624720, Note_off_c, 9, 38, 64
1, 624720, Note_off_c, 9, 57, 64
1, 624720, Note_off_c, 9, 44, 64
1, 624720, Note_on_c, 9, 35, 72
1, 624960, Note_off_c, 9, 35, 64
1, 624960, Note_on_c, 9, 35, 72
1, 624960, Note_on_c, 9, 57, 72
1, 624960, Note_on_c, 9, 44, 72
1, 625200, Note_off_c, 9, 35, 64
1, 625200, Note_off_c, 9, 57, 64
1, 625200, Note_off_c, 9, 44, 64
1, 625200, Note_on_c, 9, 35, 72
1, 625440, Note_off_c, 9, 35, 64
1, 625440, Note_on_c, 9, 38, 72
1, 625440, Note_on_c, 9, 57, 72
1, 625440, Note_on_c, 9, 44, 72
1, 625680, Note_off_c, 9, 38, 64
1, 625680, Note_off_c, 9, 57, 64
1, 625680, Note_off_c, 9, 44, 64
1, 625680, Note_on_c, 9, 35, 72
1, 625920, Note_off_c, 9, 35, 64
1, 625920, Note_on_c, 9, 35, 72
1, 625920, Note_on_c, 9, 44, 72
1, 626160, Note_off_c, 9, 35, 64
1, 626160, Note_off_c, 9, 44, 64
1, 626160, Note_on_c, 9, 35, 72
1, 626400, Note_off_c, 9, 35, 64
1, 626400, Note_on_c, 9, 38, 72
1, 626400, Note_on_c, 9, 44, 72
1, 626640, Note_off_c, 9, 38, 64
1, 626640, Note_off_c, 9, 44, 64
1, 626640, Note_on_c, 9, 35, 72
1, 626880, Note_off_c, 9, 35, 64
1, 626880, Note_on_c, 9, 35, 72
1, 626880, Note_on_c, 9, 44, 72
1, 627120, Note_off_c, 9, 35, 64
1, 627120, Note_off_c, 9, 44, 64
1, 627120, Note_on_c, 9, 35, 72
1, 627360, Note_off_c, 9, 35, 64
1, 627360, Note_on_c, 9, 38, 72
1, 627360, Note_on_c, 9, 44, 72
1, 627600, Note_off_c, 9, 38, 64
1, 627600, Note_off_c, 9, 44, 64
1, 627600, Note_on_c, 9, 35, 72
1, 627840, Note_off_c, 9, 35, 64
1, 627840, Note_on_c, 9, 35, 72
1, 627840, Note_on_c, 9, 44, 72
1, 628080, Note_off_c, 9, 35, 64
1, 628080, Note_off_c, 9, 44, 64
1, 628080, Note_on_c, 9, 35, 72
1, 628320, Note_off_c, 9, 35, 64
1, 628320, Note_on_c, 9, 38, 72
1, 628320, Note_on_c, 9, 44, 72
1, 628560, Note_off_c, 9, 38, 64
1, 628560, Note_off_c, 9, 44, 64
1, 628560, Note_on_c, 9, 35, 72
1, 628800, Note_off_c, 9, 35, 64
1, 628800, Note_on_c, 9, 35, 72
1, 628800, Note_on_c, 9, 44, 72
1, 629040, Note_off_c, 9, 35, 64
1, 629040, Note_off_c, 9, 44, 64
1, 629040, Note_on_c, 9, 35, 72
1, 629280, Note_off_c, 9, 35, 64
1, 629280, Note_on_c, 9, 38, 72
1, 629280, Note_on_c, 9, 44, 72
1, 629520, Note_off_c, 9, 38, 64
1, 629520, Note_off_c, 9, 44, 64
1, 629520, Note_on_c, 9, 35, 72
1, 629760, Note_off_c, 9, 35, 64
1, 629760, Note_on_c, 9, 35, 72
1, 629760, Note_on_c, 9, 57, 72
1, 629760, Note_on_c, 9, 44, 72
1, 630000, Note_off_c, 9, 35, 64
1, 630000, Note_off_c, 9, 57, 64
1, 630000, Note_off_c, 9, 44, 64
1, 630000, Note_on_c, 9, 35, 72
1, 630240, Note_off_c, 9, 35, 64
1, 630240, Note_on_c, 9, 38, 72
1, 630240, Note_on_c, 9, 57, 72
1, 630240, Note_on_c, 9, 44, 72
1, 630480, Note_off_c, 9, 38, 64
1, 630480, Note_off_c, 9, 57, 64
1, 630480, Note_off_c, 9, 44, 64
1, 630480, Note_on_c, 9, 35, 72
1, 630720, Note_off_c, 9, 35, 64
1, 630720, Note_on_c, 9, 35, 72
1, 630720, Note_on_c, 9, 57, 72
1, 630720, Note_on_c, 9, 44, 72
1, 630960, Note_off_c, 9, 35, 64
1, 630960, Note_off_c, 9, 57, 64
1, 630960, Note_off_c, 9, 44, 64
1, 630960, Note_on_c, 9, 35, 72
1, 631200, Note_off_c, 9, 35, 64
1, 631200, Note_on_c, 9, 38, 72
1, 631200, Note_on_c, 9, 57, 72
1, 631200, Note_on_c, 9, 44, 72
1, 631440, Note_off_c, 9, 38, 64
1, 631440, Note_off_c, 9, 57, 64
1, 631440, Note_off_c, 9, 44, 64
1, 631440, Note_on_c, 9, 35, 72
1, 631680, Note_off_c, 9, 35, 64
1, 631680, Note_on_c, 9, 35, 72
1, 631680, Note_on_c, 9, 57, 72
1, 631680, Note_on_c, 9, 44, 72
1, 631920, Note_off_c, 9, 35, 64
1, 631920, Note_off_c, 9, 57, 64
1, 631920, Note_off_c, 9, 44, 64
1, 631920, Note_on_c, 9, 35, 72
1, 632160, Note_off_c, 9, 35, 64
1, 632160, Note_on_c, 9, 38, 72
1, 632160, Note_on_c, 9, 57, 72
1, 632160, Note_on_c, 9, 44, 72
1, 632400, Note_off_c, 9, 38, 64
1, 632400, Note_off_c, 9, 57, 64
1, 632400, Note_off_c, 9, 44, 64
1, 632400, Note_on_c, 9, 35, 72
1, 632640, Note_off_c, 9, 35, 64
1, 632640, Note_on_c, 9, 35, 72
1, 632640, Note_on_c, 9, 57, 72
1, 632640, Note_on_c, 9, 44, 72
1, 632880, Note_off_c, 9, 35, 64
1, 632880, Note_off_c, 9, 57, 64
1, 632880, Note_off_c, 9, 44, 64
1, 632880, Note_on_c, 9, 35, 72
1, 633120, Note_off_c, 9, 35, 64
1, 633120, Note_on_c, 9, 38, 72
1, 633120, Note_on_c, 9, 57, 72
1, 633120, Note_on_c, 9, 44, 72
1, 633360, Note_off_c, 9, 38, 64
1, 633360, Note_off_c, 9, 57, 64
1, 633360, Note_off_c, 9, 44, 64
1, 633360, Note_on_c, 9, 35, 72
1, 633600, Note_off_c, 9, 35, 64
1, 633600, Note_on_c, 9, 35, 72
1, 633600, Note_on_c, 9, 44, 72
1, 633840, Note_off_c, 9, 35, 64
1, 633840, Note_off_c, 9, 44, 64
1, 633840, Note_on_c, 9, 35, 72
1, 634080, Note_off_c, 9, 35, 64
1, 634080, Note_on_c, 9, 38, 72
1, 634080, Note_on_c, 9, 44, 72
1, 634320, Note_off_c, 9, 38, 64
1, 634320, Note_off_c, 9, 44, 64
1, 634320, Note_on_c, 9, 35, 72
1, 634560, Note_off_c, 9, 35, 64
1, 634560, Note_on_c, 9, 35, 72
1, 634560, Note_on_c, 9, 44, 72
1, 634800, Note_off_c, 9, 35, 64
1, 634800, Note_off_c, 9, 44, 64
1, 634800, Note_on_c, 9, 35, 72
1, 635040, Note_off_c, 9, 35, 64
1, 635040, Note_on_c, 9, 38, 72
1, 635040, Note_on_c, 9, 44, 72
1, 635280, Note_off_c, 9, 38, 64
1, 635280, Note_off_c, 9, 44, 64
1, 635280, Note_on_c, 9, 35, 72
1, 635520, Note_off_c, 9, 35, 64
1, 635520, Note_on_c, 9, 35, 72
1, 635520, Note_on_c, 9, 44, 72
1, 635760, Note_off_c, 9, 35, 64
1, 635760, Note_off_c, 9, 44, 64
1, 635760, Note_on_c, 9, 35, 72
1, 636000, Note_off_c, 9, 35, 64
1, 636000, Note_on_c, 9, 38, 72
1, 636000, Note_on_c, 9, 44, 72
1, 636240, Note_off_c, 9, 38, 64
1, 636240, Note_off_c, 9, 44, 64
1, 636240, Note_on_c, 9, 35, 72
1, 636480, Note_off_c, 9, 35, 64
1, 636480, Note_on_c, 9, 35, 72
1, 636480, Note_on_c, 9, 44, 72
1, 636720, Note_off_c, 9, 35, 64
1, 636720, Note_off_c, 9, 44, 64
1, 636720, Note_on_c, 9, 35, 72
1, 636960, Note_off_c, 9, 35, 64
1, 636960, Note_on_c, 9, 38, 72
1, 636960, Note_on_c, 9, 44, 72
1, 637200, Note_off_c, 9, 38, 64
1, 637200, Note_off_c, 9, 44, 64
1, 637200, Note_on_c, 9, 35, 72
1, 637440, Note_off_c, 9, 35, 64
1, 637440, Note_on_c, 9, 35, 72
1, 637440, Note_on_c, 9, 57, 72
1, 637440, Note_on_c, 9, 44, 72
1, 637680, Note_off_c, 9, 35, 64
1, 637680, Note_off_c, 9, 57, 64
1, 637680, Note_off_c, 9, 44, 64
1, 637680, Note_on_c, 9, 35, 72
1, 637920, Note_off_c, 9, 35, 64
1, 637920, Note_on_c, 9, 38, 72
1, 637920, Note_on_c, 9, 57, 72
1, 637920, Note_on_c, 9, 44, 72
1, 638160, Note_off_c, 9, 38, 64
1, 638160, Note_off_c, 9, 57, 64
1, 638160, Note_off_c, 9, 44, 64
1, 638160, Note_on_c, 9, 35, 72
1, 638400, Note_off_c, 9, 35, 64
1, 638400, Note_on_c, 9, 35, 72
1, 638400, Note_on_c, 9, 57, 72
1, 638400, Note_on_c, 9, 44, 72
1, 638640, Note_off_c, 9, 35, 64
1, 638640, Note_off_c, 9, 57, 64
1, 638640, Note_off_c, 9, 44, 64
1, 638640, Note_on_c, 9, 35, 72
1, 638880, Note_off_c, 9, 35, 64
1, 638880, Note_on_c, 9, 38, 72
1, 638880, Note_on_c, 9, 57, 72
1, 638880, Note_on_c, 9, 44, 72
1, 639120, Note_off_c, 9, 38, 64
1, 639120, Note_off_c, 9, 57, 64
1, 639120, Note_off_c, 9, 44, 64
1, 639120, Note_on_c, 9, 35, 72
1, 639360, Note_off_c, 9, 35, 64
1, 639360, Note_on_c, 9, 35, 72
1, 639360, Note_on_c, 9, 57, 72
1, 639360, Note_on_c, 9, 44, 72
1, 639600, Note_off_c, 9, 35, 64
1, 639600, Note_off_c, 9, 57, 64
1, 639600, Note_off_c, 9, 44, 64
1, 639600, Note_on_c, 9, 35, 72
1, 639840, Note_off_c, 9, 35, 64
1, 639840, Note_on_c, 9, 38, 72
1, 639840, Note_on_c, 9, 57, 72
1, 639840, Note_on_c, 9, 44, 72
1, 640080, Note_off_c, 9, 38, 64
1, 640080, Note_off_c, 9, 57, 64
1, 640080, Note_off_c, 9, 44, 64
1, 640080, Note_on_c, 9, 35, 72
1, 640320, Note_off_c, 9, 35, 64
1, 640320, Note_on_c, 9, 35, 72
1, 640320, Note_on_c, 9, 57, 72
1, 640320, Note_on_c, 9, 44, 72
1, 640560, Note_off_c, 9, 35, 64
1, 640560, Note_off_c, 9, 57, 64
1, 640560, Note_off_c, 9, 44, 64
1, 640560, Note_on_c, 9, 35, 72
1, 640800, Note_off_c, 9, 35, 64
1, 640800, Note_on_c, 9, 38, 72
1, 640800, Note_on_c, 9, 57, 72
1, 640800, Note_on_c, 9, 44, 72
1, 641040, Note_off_c, 9, 38, 64
1, 641040, Note_off_c, 9, 57, 64
1, 641040, Note_off_c, 9, 44, 64
1, 641040, Note_on_c, 9, 35, 72
1, 641280, Note_off_c, 9, 35, 64
1, 641280, Note_on_c, 9, 35, 72
1, 641280, Note_on_c, 9, 44, 72
1, 641520, Note_off_c, 9, 35, 64
1, 641520, Note_off_c, 9, 44, 64
1, 641520, Note_on_c, 9, 35, 72
1, 641760, Note_off_c, 9, 35, 64
1, 641760, Note_on_c, 9, 38, 72
1, 641760, Note_on_c, 9, 44, 72
1, 642000, Note_off_c, 9, 38, 64
1, 642000, Note_off_c, 9, 44, 64
1, 642000, Note_on_c, 9, 35, 72
1, 642240, Note_off_c, 9, 35, 64
1, 642240, Note_on_c, 9, 35, 72
1, 642240, Note_on_c, 9, 44, 72
1, 642480, Note_off_c, 9, 35, 64
1, 642480, Note_off_c, 9, 44, 64
1, 642480, Note_on_c, 9, 35, 72
1, 642720, Note_off_c, 9, 35, 64
1, 642720, Note_on_c, 9, 38, 72
1, 642720, Note_on_c, 9, 44, 72
1, 642960, Note_off_c, 9, 38, 64
1, 642960, Note_off_c, 9, 44, 64
1, 642960, Note_on_c, 9, 35, 72
1, 643200, Note_off_c, 9, 35, 64
1, 643200, Note_on_c, 9, 35, 72
1, 643200, Note_on_c, 9, 44, 72
1, 643440, Note_off_c, 9, 35, 64
1, 643440, Note_off_c, 9, 44, 64
1, 643440, Note_on_c, 9, 35, 72
1, 643680, Note_off_c, 9, 35, 64
1, 643680, Note_on_c, 9, 38, 72
1, 643680, Note_on_c, 9, 44, 72
1, 643920, Note_off_c, 9, 38, 64
1, 643920, Note_off_c, 9, 44, 64
1, 643920, Note_on_c, 9, 35, 72
1, 644160, Note_off_c, 9, 35, 64
1, 644160, Note_on_c, 9, 35, 72
1, 644160, Note_on_c, 9, 44, 72
1, 644400, Note_off_c, 9, 35, 64
1, 644400, Note_off_c, 9, 44, 64
1, 644400, Note_on_c, 9, 35, 72
1, 644640, Note_off_c, 9, 35, 64
1, 644640, Note_on_c, 9, 38, 72
1, 644640, Note_on_c, 9, 44, 72
1, 644880, Note_off_c, 9, 38, 64
1, 644880, Note_off_c, 9, 44, 64
1, 644880, Note_on_c, 9, 35, 72
1, 645120, Note_off_c, 9, 35, 64
1, 645120, Note_on_c, 9, 35, 72
1, 645120, Note_on_c, 9, 57, 72
1, 645120, Note_on_c, 9, 44, 72
1, 645360, Note_off_c, 9, 35, 64
1, 645360, Note_off_c, 9, 57, 64
1, 645360, Note_off_c, 9, 44, 64
1, 645360, Note_on_c, 9, 35, 72
1, 645600, Note_off_c, 9, 35, 64
1, 645600, Note_on_c, 9, 38, 72
1, 645600, Note_on_c, 9, 57, 72
1, 645600, Note_on_c, 9, 44, 72
1, 645840, Note_off_c, 9, 38, 64
1, 645840, Note_off_c, 9, 57, 64
1, 645840, Note_off_c, 9, 44, 64
1, 645840, Note_on_c, 9, 35, 72
1, 646080, Note_off_c, 9, 35, 64
1, 646080, Note_on_c, 9, 35, 72
1, 646080, Note_on_c, 9, 57, 72
1, 646080, Note_on_c, 9, 44, 72
1, 646320, Note_off_c, 9, 35, 64
1, 646320, Note_off_c, 9, 57, 64
1, 646320, Note_off_c, 9, 44, 64
1, 646320, Note_on_c, 9, 35, 72
1, 646560, Note_off_c, 9, 35, 64
1, 646560, Note_on_c, 9, 38, 72
1, 646560, Note_on_c, 9, 57, 72
1, 646560, Note_on_c, 9, 44, 72
1, 646800, Note_off_c, 9, 38, 64
1, 646800, Note_off_c, 9, 57, 64
1, 646800, Note_off_c, 9, 44, 64
1, 646800, Note_on_c, 9, 35, 72
1, 647040, Note_off_c, 9, 35, 64
1, 647040, Note_on_c, 9, 35, 72
1, 647040, Note_on_c, 9, 57, 72
1, 647040, Note_on_c, 9, 44, 72
1, 647280, Note_off_c, 9, 35, 64
1, 647280, Note_off_c, 9, 57, 64
1, 647280, Note_off_c, 9, 44, 64
1, 647280, Note_on_c, 9, 35, 72
1, 647520, Note_off_c, 9, 35, 64
1, 647520, Note_on_c, 9, 38, 72
1, 647520, Note_on_c, 9, 57, 72
1, 647520, Note_on_c, 9, 44, 72
1, 647760, Note_off_c, 9, 38, 64
1, 647760, Note_off_c, 9, 57, 64
1, 647760, Note_off_c, 9, 44, 64
1, 647760, Note_on_c, 9, 35, 72
1, 648000, Note_off_c, 9, 35, 64
1, 648000, Note_on_c, 9, 35, 72
1, 648000, Note_on_c, 9, 57, 72
1, 648000, Note_on_c, 9, 44, 72
1, 648240, Note_off_c, 9, 35, 64
1, 648240, Note_off_c, 9, 57, 64
1, 648240, Note_off_c, 9, 44, 64
1, 648240, Note_on_c, 9, 35, 72
1, 648480, Note_off_c, 9, 35, 64
1, 648480, Note_on_c, 9, 38, 72
1, 648480, Note_on_c, 9, 57, 72
1, 648480, Note_on_c, 9, 44, 72
1, 648720, Note_off_c, 9, 38, 64
1, 648720, Note_off_c, 9, 57, 64
1, 648720, Note_off_c, 9, 44, 64
1, 648720, Note_on_c, 9, 35, 72
1, 648960, Note_off_c, 9, 35, 64
1, 648960, Note_on_c, 9, 35, 72
1, 648960, Note_on_c, 9, 44, 72
1, 649200, Note_off_c, 9, 35, 64
1, 649200, Note_off_c, 9, 44, 64
1, 649200, Note_on_c, 9, 35, 72
1, 649440, Note_off_c, 9, 35, 64
1, 649440, Note_on_c, 9, 38, 72
1, 649440, Note_on_c, 9, 44, 72
1, 649680, Note_off_c, 9, 38, 64
1, 649680, Note_off_c, 9, 44, 64
1, 649680, Note_on_c, 9, 35, 72
1, 649920, Note_off_c, 9, 35, 64
1, 649920, Note_on_c, 9, 35, 72
1, 649920, Note_on_c, 9, 44, 72
1, 650160, Note_off_c, 9, 35, 64
1, 650160, Note_off_c, 9, 44, 64
1, 650160, Note_on_c, 9, 35, 72
1, 650400, Note_off_c, 9, 35, 64
1, 650400, Note_on_c, 9, 38, 72
1, 650400, Note_on_c, 9, 44, 72
1, 650640, Note_off_c, 9, 38, 64
1, 650640, Note_off_c, 9, 44, 64
1, 650640, Note_on_c, 9, 35, 72
1, 650880, Note_off_c, 9, 35, 64
1, 650880, Note_on_c, 9, 35, 72
1, 650880, Note_on_c, 9, 44, 72
1, 651120, Note_off_c, 9, 35, 64
1, 651120, Note_off_c, 9, 44, 64
1, 651120, Note_on_c, 9, 35, 72
1, 651360, Note_off_c, 9, 35, 64
1, 651360, Note_on_c, 9, 38, 72
1, 651360, Note_on_c, 9, 44, 72
1, 651600, Note_off_c, 9, 38, 64
1, 651600, Note_off_c, 9, 44, 64
1, 651600, Note_on_c, 9, 35, 72
1, 651840, Note_off_c, 9, 35, 64
1, 651840, Note_on_c, 9, 35, 72
1, 651840, Note_on_c, 9, 44, 72
1, 652080, Note_off_c, 9, 35, 64
1, 652080, Note_off_c, 9, 44, 64
1, 652080, Note_on_c, 9, 35, 72
1, 652320, Note_off_c, 9, 35, 64
1, 652320, Note_on_c, 9, 38, 72
1, 652320, Note_on_c, 9, 44, 72
1, 652560, Note_off_c, 9, 38, 64
1, 652560, Note_off_c, 9, 44, 64
1, 652560, Note_on_c, 9, 35, 72
1, 652800, Note_off_c, 9, 35, 64
1, 652800, Note_on_c, 9, 35, 72
1, 652800, Note_on_c, 9, 57, 72
1, 652800, Note_on_c, 9, 44, 72
1, 653040, Note_off_c, 9, 35, 64
1, 653040, Note_off_c, 9, 57, 64
1, 653040, Note_off_c, 9, 44, 64
1, 653040, Note_on_c, 9, 35, 72
1, 653280, Note_off_c, 9, 35, 64
1, 653280, Note_on_c, 9, 38, 72
1, 653280, Note_on_c, 9, 57, 72
1, 653280, Note_on_c, 9, 44, 72
1, 653520, Note_off_c, 9, 38, 64
1, 653520, Note_off_c, 9, 57, 64
1, 653520, Note_off_c, 9, 44, 64
1, 653520, Note_on_c, 9, 35, 72
1, 653760, Note_off_c, 9, 35, 64
1, 653760, Note_on_c, 9, 35, 72
1, 653760, Note_on_c, 9, 57, 72
1, 653760, Note_on_c, 9, 44, 72
1, 654000, Note_off_c, 9, 35, 64
1, 654000, Note_off_c, 9, 57, 64
1, 654000, Note_off_c, 9, 44, 64
1, 654000, Note_on_c, 9, 35, 72
1, 654240, Note_off_c, 9, 35, 64
1, 654240, Note_on_c, 9, 38, 72
1, 654240, Note_on_c, 9, 57, 72
1, 654240, Note_on_c, 9, 44, 72
1, 654480, Note_off_c, 9, 38, 64
1, 654480, Note_off_c, 9, 57, 64
1, 654480, Note_off_c, 9, 44, 64
1, 654480, Note_on_c, 9, 35, 72
1, 654720, Note_off_c, 9, 35, 64
1, 654720, Note_on_c, 9, 35, 72
1, 654720, Note_on_c, 9, 57, 72
1, 654720, Note_on_c, 9, 44, 72
1, 654960, Note_off_c, 9, 35, 64
1, 654960, Note_off_c, 9, 57, 64
1, 654960, Note_off_c, 9, 44, 64
1, 654960, Note_on_c, 9, 35, 72
1, 655200, Note_off_c, 9, 35, 64
1, 655200, Note_on_c, 9, 38, 72
1, 655200, Note_on_c, 9, 57, 72
1, 655200, Note_on_c, 9, 44, 72
1, 655440, Note_off_c, 9, 38, 64
1, 655440, Note_off_c, 9, 57, 64
1, 655440, Note_off_c, 9, 44, 64
1, 655440, Note_on_c, 9, 35, 72
1, 655680, Note_off_c, 9, 35, 64
1, 655680, Note_on_c, 9, 35, 72
1, 655680, Note_on_c, 9, 57, 72
1, 655680, Note_on_c, 9, 44, 72
1, 655920, Note_off_c, 9, 35, 64
1, 655920, Note_off_c, 9, 57, 64
1, 655920, Note_off_c, 9, 44, 64
1, 655920, Note_on_c, 9, 35, 72
1, 656160, Note_off_c, 9, 35, 64
1, 656160, Note_on_c, 9, 38, 72
1, 656160, Note_on_c, 9, 57, 72
1, 656160, Note_on_c, 9, 44, 72
1, 656400, Note_off_c, 9, 38, 64
1, 656400, Note_off_c, 9, 57, 64
1, 656400, Note_off_c, 9, 44, 64
1, 656400, Note_on_c, 9, 35, 72
1, 656640, Note_off_c, 9, 35, 64
1, 656640, Note_on_c, 9, 35, 72
1, 656640, Note_on_c, 9, 44, 72
1, 656880, Note_off_c, 9, 35, 64
1, 656880, Note_off_c, 9, 44, 64
1, 656880, Note_on_c, 9, 35, 72
1, 657120, Note_off_c, 9, 35, 64
1, 657120, Note_on_c, 9, 38, 72
1, 657120, Note_on_c, 9, 44, 72
1, 657360, Note_off_c, 9, 38, 64
1, 657360, Note_off_c, 9, 44, 64
1, 657360, Note_on_c, 9, 35, 72
1, 657600, Note_off_c, 9, 35, 64
1, 657600, Note_on_c, 9, 35, 72
1, 657600, Note_on_c, 9, 44, 72
1, 657840, Note_off_c, 9, 35, 64
1, 657840, Note_off_c, 9, 44, 64
1, 657840, Note_on_c, 9, 35, 72
1, 658080, Note_off_c, 9, 35, 64
1, 658080, Note_on_c, 9, 38, 72
1, 658080, Note_on_c, 9, 44, 72
1, 658320, Note_off_c, 9, 38, 64
1, 658320, Note_off_c, 9, 44, 64
1, 658320, Note_on_c, 9, 35, 72
1, 658560, Note_off_c, 9, 35, 64
1, 658560, Note_on_c, 9, 35, 72
1, 658560, Note_on_c, 9, 44, 72
1, 658800, Note_off_c, 9, 35, 64
1, 658800, Note_off_c, 9, 44, 64
1, 658800, Note_on_c, 9, 35, 72
1, 659040, Note_off_c, 9, 35, 64
1, 659040, Note_on_c, 9, 38, 72
1, 659040, Note_on_c, 9, 44, 72
1, 659280, Note_off_c, 9, 38, 64
1, 659280, Note_off_c, 9, 44, 64
1, 659280, Note_on_c, 9, 35, 72
1, 659520, Note_off_c, 9, 35, 64
1, 659520, Note_on_c, 9, 35, 72
1, 659520, Note_on_c, 9, 44, 72
1, 659760, Note_off_c, 9, 35, 64
1, 659760, Note_off_c, 9, 44, 64
1, 659760, Note_on_c, 9, 35, 72
1, 660000, Note_off_c, 9, 35, 64
1, 660000, Note_on_c, 9, 38, 72
1, 660000, Note_on_c, 9, 44, 72
1, 660240, Note_off_c, 9, 38, 64
1, 660240, Note_off_c, 9, 44, 64
1, 660240, Note_on_c, 9, 35, 72
1, 660480, Note_off_c, 9, 35, 64
1, 660480, Note_on_c, 9, 35, 72
1, 660480, Note_on_c, 9, 57, 72
1, 660480, Note_on_c, 9, 44, 72
1, 660720, Note_off_c, 9, 35, 64
1, 660720, Note_off_c, 9, 57, 64
1, 660720, Note_off_c, 9, 44, 64
1, 660720, Note_on_c, 9, 35, 72
1, 660960, Note_off_c, 9, 35, 64
1, 660960, Note_on_c, 9, 38, 72
1, 660960, Note_on_c, 9, 57, 72
1, 660960, Note_on_c, 9, 44, 72
1, 661200, Note_off_c, 9, 38, 64
1, 661200, Note_off_c, 9, 57, 64
1, 661200, Note_off_c, 9, 44, 64
1, 661200, Note_on_c, 9, 35, 72
1, 661440, Note_off_c, 9, 35, 64
1, 661440, Note_on_c, 9, 35, 72
1, 661440, Note_on_c, 9, 57, 72
1, 661440, Note_on_c, 9, 44, 72
1, 661680, Note_off_c, 9, 35, 64
1, 661680, Note_off_c, 9, 57, 64
1, 661680, Note_off_c, 9, 44, 64
1, 661680, Note_on_c, 9, 35, 72
1, 661920, Note_off_c, 9, 35, 64
1, 661920, Note_on_c, 9, 38, 72
1, 661920, Note_on_c, 9, 57, 72
1, 661920, Note_on_c, 9, 44, 72
1, 662160, Note_off_c, 9, 38, 64
1, 662160, Note_off_c, 9, 57, 64
1, 662160, Note_off_c, 9, 44, 64
1, 662160, Note_on_c, 9, 35, 72
1, 662400, Note_off_c, 9, 35, 64
1, 662400, Note_on_c, 9, 35, 72
1, 662400, Note_on_c, 9, 57, 72
1, 662400, Note_on_c, 9, 44, 72
1, 662640, Note_off_c, 9, 35, 64
1, 662640, Note_off_c, 9, 57, 64
1, 662640, Note_off_c, 9, 44, 64
1, 662640, Note_on_c, 9, 35, 72
1, 662880, Note_off_c, 9, 35, 64
1, 662880, Note_on_c, 9, 38, 72
1, 662880, Note_on_c, 9, 57, 72
1, 662880, Note_on_c, 9, 44, 72
1, 663120, Note_off_c, 9, 38, 64
1, 663120, Note_off_c, 9, 57, 64
1, 663120, Note_off_c, 9, 44, 64
1, 663120, Note_on_c, 9, 35, 72
1, 663360, Note_off_c, 9, 35, 64
1, 663360, Note_on_c, 9, 35, 72
1, 663360, Note_on_c, 9, 57, 72
1, 663360, Note_on_c, 9, 44, 72
1, 663600, Note_off_c, 9, 35, 64
1, 663600, Note_off_c, 9, 57, 64
1, 663600, Note_off_c, 9, 44, 64
1, 663600, Note_on_c, 9, 35, 72
1, 663840, Note_off_c, 9, 35, 64
1, 663840, Note_on_c, 9, 38, 72
1, 663840, Note_on_c, 9, 57, 72
1, 663840, Note_on_c, 9, 44, 72
1, 664080, Note_off_c, 9, 38, 64
1, 664080, Note_off_c, 9, 57, 64
1, 664080, Note_off_c, 9, 44, 64
1, 664080, Note_on_c, 9, 35, 72
1, 664320, Note_off_c, 9, 35, 64
1, 664320, Note_on_c, 9, 35, 72
1, 664320, Note_on_c, 9, 44, 72
1, 664560, Note_off_c, 9, 35, 64
1, 664560, Note_off_c, 9, 44, 64
1, 664560, Note_on_c, 9, 35, 72
1, 664800, Note_off_c, 9, 35, 64
1, 664800, Note_on_c, 9, 38, 72
1, 664800, Note_on_c, 9, 44, 72
1, 665040, Note_off_c, 9, 38, 64
1, 665040, Note_off_c, 9, 44, 64
1, 665040, Note_on_c, 9, 35, 72
1, 665280, Note_off_c, 9, 35, 64
1, 665280, Note_on_c, 9, 35, 72
1, 665280, Note_on_c, 9, 44, 72
1, 665520, Note_off_c, 9, 35, 64
1, 665520, Note_off_c, 9, 44, 64
1, 665520, Note_on_c, 9, 35, 72
1, 665760, Note_off_c, 9, 35, 64
1, 665760, Note_on_c, 9, 38, 72
1, 665760, Note_on_c, 9, 44, 72
1, 666000, Note_off_c, 9, 38, 64
1, 666000, Note_off_c, 9, 44, 64
1, 666000, Note_on_c, 9, 35, 72
1, 666240, Note_off_c, 9, 35, 64
1, 666240, Note_on_c, 9, 35, 72
1, 666240, Note_on_c, 9, 44, 72
1, 666480, Note_off_c, 9, 35, 64
1, 666480, Note_off_c, 9, 44, 64
1, 666480, Note_on_c, 9, 35, 72
1, 666720, Note_off_c, 9, 35, 64
1, 666720, Note_on_c, 9, 38, 72
1, 666720, Note_on_c, 9, 44, 72
1, 666960, Note_off_c, 9, 38, 64
1, 666960, Note_off_c, 9, 44, 64
1, 666960, Note_on_c, 9, 35, 72
1, 667200, Note_off_c, 9, 35, 64
1, 667200, Note_on_c, 9, 35, 72
1, 667200, Note_on_c, 9, 44, 72
1, 667440, Note_off_c, 9, 35, 64
1, 667440, Note_off_c, 9, 44, 64
1, 667440, Note_on_c, 9, 35, 72
1, 667680, Note_off_c, 9, 35, 64
1, 667680, Note_on_c, 9, 38, 72
1, 667680, Note_on_c, 9, 44, 72
1, 667920, Note_off_c, 9, 38, 64
1, 667920, Note_off_c, 9, 44, 64
1, 667920, Note_on_c, 9, 35, 72
1, 668160, Note_off_c, 9, 35, 64
1, 668160, Note_on_c, 9, 35, 72
1, 668160, Note_on_c, 9, 57, 72
1, 668160, Note_on_c, 9, 44, 72
1, 668400, Note_off_c, 9, 35, 64
1, 668400, Note_off_c, 9, 57, 64
1, 668400, Note_off_c, 9, 44, 64
1, 668400, Note_on_c, 9, 35, 72
1, 668640, Note_off_c, 9, 35, 64
1, 668640, Note_on_c, 9, 38, 72
1, 668640, Note_on_c, 9, 57, 72
1, 668640, Note_on_c, 9, 44, 72
1, 668880, Note_off_c, 9, 38, 64
1, 668880, Note_off_c, 9, 57, 64
1, 668880, Note_off_c, 9, 44, 64
1, 668880, Note_on_c, 9, 35, 72
1, 669120, Note_off_c, 9, 35, 64
1, 669120, Note_on_c, 9, 35, 72
1, 669120, Note_on_c, 9, 57, 72
1, 669120, Note_on_c, 9, 44, 72
1, 669360, Note_off_c, 9, 35, 64
1, 669360, Note_off_c, 9, 57, 64
1, 669360, Note_off_c, 9, 44, 64
1, 669360, Note_on_c, 9, 35, 72
1, 669600, Note_off_c, 9, 35, 64
1, 669600, Note_on_c, 9, 38, 72
1, 669600, Note_on_c, 9, 57, 72
1, 669600, Note_on_c, 9, 44, 72
1, 669840, Note_off_c, 9, 38, 64
1, 669840, Note_off_c, 9, 57, 64
1, 669840, Note_off_c, 9, 44, 64
1, 669840, Note_on_c, 9, 35, 72
1, 670080, Note_off_c, 9, 35, 64
1, 670080, Note_on_c, 9, 35, 72
1, 670080, Note_on_c, 9, 57, 72
1, 670080, Note_on_c, 9, 44, 72
1, 670320, Note_off_c, 9, 35, 64
1, 670320, Note_off_c, 9, 57, 64
1, 670320, Note_off_c, 9, 44, 64
1, 670320, Note_on_c, 9, 35, 72
1, 670560, Note_off_c, 9, 35, 64
1, 670560, Note_on_c, 9, 38, 72
1, 670560, Note_on_c, 9, 57, 72
1, 670560, Note_on_c, 9, 44, 72
1, 670800, Note_off_c, 9, 38, 64
1, 670800, Note_off_c, 9, 57, 64
1, 670800, Note_off_c, 9, 44, 64
1, 670800, Note_on_c, 9, 35, 72
1, 671040, Note_off_c, 9, 35, 64
1, 671040, Note_on_c, 9, 35, 72
1, 671040, Note_on_c, 9, 57, 72
1, 671040, Note_on_c, 9, 44, 72
1, 671280, Note_off_c, 9, 35, 64
1, 671280, Note_off_c, 9, 57, 64
1, 671280, Note_off_c, 9, 44, 64
1, 671280, Note_on_c, 9, 35, 72
1, 671520, Note_off_c, 9, 35, 64
1, 671520, Note_on_c, 9, 38, 72
1, 671520, Note_on_c, 9, 57, 72
1, 671520, Note_on_c, 9, 44, 72
1, 671760, Note_off_c, 9, 38, 64
1, 671760, Note_off_c, 9, 57, 64
1, 671760, Note_off_c, 9, 44, 64
1, 671760, Note_on_c, 9, 35, 72
1, 672000, Note_off_c, 9, 35, 64
1, 672000, Note_on_c, 9, 35, 72
1, 672000, Note_on_c, 9, 44, 72
1, 672240, Note_off_c, 9, 35, 64
1, 672240, Note_off_c, 9, 44, 64
1, 672240, Note_on_c, 9, 35, 72
1, 672480, Note_off_c, 9, 35, 64
1, 672480, Note_on_c, 9, 38, 72
1, 672480, Note_on_c, 9, 44, 72
1, 672720, Note_off_c, 9, 38, 64
1, 672720, Note_off_c, 9, 44, 64
1, 672720, Note_on_c, 9, 35, 72
1, 672960, Note_off_c, 9, 35, 64
1, 672960, Note_on_c, 9, 35, 72
1, 672960, Note_on_c, 9, 44, 72
1, 673200, Note_off_c, 9, 35, 64
1, 673200, Note_off_c, 9, 44, 64
1, 673200, Note_on_c, 9, 35, 72
1, 673440, Note_off_c, 9, 35, 64
1, 673440, Note_on_c, 9, 38, 72
1, 673440, Note_on_c, 9, 44, 72
1, 673680, Note_off_c, 9, 38, 64
1, 673680, Note_off_c, 9, 44, 64
1, 673680, Note_on_c, 9, 35, 72
1, 673920, Note_off_c, 9, 35, 64
1, 673920, Note_on_c, 9, 35, 72
1, 673920, Note_on_c, 9, 44, 72
1, 674160, Note_off_c, 9, 35, 64
1, 674160, Note_off_c, 9, 44, 64
1, 674160, Note_on_c, 9, 35, 72
1, 674400, Note_off_c, 9, 35, 64
1, 674400, Note_on_c, 9, 38, 72
1, 674400, Note_on_c, 9, 44, 72
1, 674640, Note_off_c, 9, 38, 64
1, 674640, Note_off_c, 9, 44, 64
1, 674640, Note_on_c, 9, 35, 72
1, 674880, Note_off_c, 9, 35, 64
1, 674880, Note_on_c, 9, 35, 72
1, 674880, Note_on_c, 9, 44, 72
1, 675120, Note_off_c, 9, 35, 64
1, 675120, Note_off_c, 9, 44, 64
1, 675120, Note_on_c, 9, 35, 72
1, 675360, Note_off_c, 9, 35, 64
1, 675360, Note_on_c, 9, 38, 72
1, 675360, Note_on_c, 9, 44, 72
1, 675600, Note_off_c, 9, 38, 64
1, 675600, Note_off_c, 9, 44, 64
1, 675600, Note_on_c, 9, 35, 72
1, 675840, Note_off_c, 9, 35, 64
1, 675840, Note_on_c, 9, 35, 72
1, 675840, Note_on_c, 9, 57, 72
1, 675840, Note_on_c, 9, 44, 72
1, 676080, Note_off_c, 9, 35, 64
1, 676080, Note_off_c, 9, 57, 64
1, 676080, Note_off_c, 9, 44, 64
1, 676080, Note_on_c, 9, 35, 72
1, 676320, Note_off_c, 9, 35, 64
1, 676320, Note_on_c, 9, 38, 72
1, 676320, Note_on_c, 9, 57, 72
1, 676320, Note_on_c, 9, 44, 72
1, 676560, Note_off_c, 9, 38, 64
1, 676560, Note_off_c, 9, 57, 64
1, 676560, Note_off_c, 9, 44, 64
1, 676560, Note_on_c, 9, 35, 72
1, 676800, Note_off_c, 9, 35, 64
1, 676800, Note_on_c, 9, 35, 72
1, 676800, Note_on_c, 9, 57, 72
1, 676800, Note_on_c, 9, 44, 72
1, 677040, Note_off_c, 9, 35, 64
1, 677040, Note_off_c, 9, 57, 64
1, 677040, Note_off_c, 9, 44, 64
1, 677040, Note_on_c, 9, 35, 72
1, 677280, Note_off_c, 9, 35, 64
1, 677280, Note_on_c, 9, 38, 72
1, 677280, Note_on_c, 9, 57, 72
1, 677280, Note_on_c, 9, 44, 72
1, 677520, Note_off_c, 9, 38, 64
1, 677520, Note_off_c, 9, 57, 64
1, 677520, Note_off_c, 9, 44, 64
1, 677520, Note_on_c, 9, 35, 72
1, 677760, Note_off_c, 9, 35, 64
1, 677760, Note_on_c, 9, 35, 72
1, 677760, Note_on_c, 9, 57, 72
1, 677760, Note_on_c, 9, 44, 72
1, 678000, Note_off_c, 9, 35, 64
1, 678000, Note_off_c, 9, 57, 64
1, 678000, Note_off_c, 9, 44, 64
1, 678000, Note_on_c, 9, 35, 72
1, 678240, Note_off_c, 9, 35, 64
1, 678240, Note_on_c, 9, 38, 72
1, 678240, Note_on_c, 9, 57, 72
1, 678240, Note_on_c, 9, 44, 72
1, 678480, Note_off_c, 9, 38, 64
1, 678480, Note_off_c, 9, 57, 64
1, 678480, Note_off_c, 9, 44, 64
1, 678480, Note_on_c, 9, 35, 72
1, 678720, Note_off_c, 9, 35, 64
1, 678720, Note_on_c, 9, 35, 72
1, 678720, Note_on_c, 9, 57, 72
1, 678720, Note_on_c, 9, 44, 72
1, 678960, Note_off_c, 9, 35, 64
1, 678960, Note_off_c, 9, 57, 64
1, 678960, Note_off_c, 9, 44, 64
1, 678960, Note_on_c, 9, 35, 72
1, 679200, Note_off_c, 9, 35, 64
1, 679200, Note_on_c, 9, 38, 72
1, 679200, Note_on_c, 9, 57, 72
1, 679200, Note_on_c, 9, 44, 72
1, 679440, Note_off_c, 9, 38, 64
1, 679440, Note_off_c, 9, 57, 64
1, 679440, Note_off_c, 9, 44, 64
1, 679440, Note_on_c, 9, 35, 72
1, 679680, Note_off_c, 9, 35, 64
1, 679680, Note_on_c, 9, 35, 72
1, 679680, Note_on_c, 9, 44, 72
1, 679920, Note_off_c, 9, 35, 64
1, 679920, Note_off_c, 9, 44, 64
1, 679920, Note_on_c, 9, 35, 72
1, 680160, Note_off_c, 9, 35, 64
1, 680160, Note_on_c, 9, 38, 72
1, 680160, Note_on_c, 9, 44, 72
1, 680400, Note_off_c, 9, 38, 64
1, 680400, Note_off_c, 9, 44, 64
1, 680400, Note_on_c, 9, 35, 72
1, 680640, Note_off_c, 9, 35, 64
1, 680640, Note_on_c, 9, 35, 72
1, 680640, Note_on_c, 9, 44, 72
1, 680880, Note_off_c, 9, 35, 64
1, 680880, Note_off_c, 9, 44, 64
1, 680880, Note_on_c, 9, 35, 72
1, 681120, Note_off_c, 9, 35, 64
1, 681120, Note_on_c, 9, 38, 72
1, 681120, Note_on_c, 9, 44, 72
1, 681360, Note_off_c, 9, 38, 64
1, 681360, Note_off_c, 9, 44, 64
1, 681360, Note_on_c, 9, 35, 72
1, 681600, Note_off_c, 9, 35, 64
1, 681600, Note_on_c, 9, 35, 72
1, 681600, Note_on_c, 9, 44, 72
1, 681840, Note_off_c, 9, 35, 64
1, 681840, Note_off_c, 9, 44, 64
1, 681840, Note_on_c, 9, 35, 72
1, 682080, Note_off_c, 9, 35, 64
1, 682080, Note_on_c, 9, 38, 72
1, 682080, Note_on_c, 9, 44, 72
1, 682320, Note_off_c, 9, 38, 64
1, 682320, Note_off_c, 9, 44, 64
1, 682320, Note_on_c, 9, 35, 72
1, 682560, Note_off_c, 9, 35, 64
1, 682560, Note_on_c, 9, 35, 72
1, 682560, Note_on_c, 9, 44, 72
1, 682800, Note_off_c, 9, 35, 64
1, 682800, Note_off_c, 9, 44, 64
1, 682800, Note_on_c, 9, 35, 72
1, 683040, Note_off_c, 9, 35, 64
1, 683040, Note_on_c, 9, 38, 72
1, 683040, Note_on_c, 9, 44, 72
1, 683280, Note_off_c, 9, 38, 64
1, 683280, Note_off_c, 9, 44, 64
1, 683280, Note_on_c, 9, 35, 72
1, 683520, Note_off_c, 9, 35, 64
1, 683520, Note_on_c, 9, 35, 72
1, 683520, Note_on_c, 9, 57, 72
1, 683520, Note_on_c, 9, 44, 72
1, 683760, Note_off_c, 9, 35, 64
1, 683760, Note_off_c, 9, 57, 64
1, 683760, Note_off_c, 9, 44, 64
1, 683760, Note_on_c, 9, 35, 72
1, 684000, Note_off_c, 9, 35, 64
1, 684000, Note_on_c, 9, 38, 72
1, 684000, Note_on_c, 9, 57, 72
1, 684000, Note_on_c, 9, 44, 72
1, 684240, Note_off_c, 9, 38, 64
1, 684240, Note_off_c, 9, 57, 64
1, 684240, Note_off_c, 9, 44, 64
1, 684240, Note_on_c, 9, 35, 72
1, 684480, Note_off_c, 9, 35, 64
1, 684480, Note_on_c, 9, 35, 72
1, 684480, Note_on_c, 9, 57, 72
1, 684480, Note_on_c, 9, 44, 72
1, 684720, Note_off_c, 9, 35, 64
1, 684720, Note_off_c, 9, 57, 64
1, 684720, Note_off_c, 9, 44, 64
1, 684720, Note_on_c, 9, 35, 72
1, 684960, Note_off_c, 9, 35, 64
1, 684960, Note_on_c, 9, 38, 72
1, 684960, Note_on_c, 9, 57, 72
1, 684960, Note_on_c, 9, 44, 72
1, 685200, Note_off_c, 9, 38, 64
1, 685200, Note_off_c, 9, 57, 64
1, 685200, Note_off_c, 9, 44, 64
1, 685200, Note_on_c, 9, 35, 72
1, 685440, Note_off_c, 9, 35, 64
1, 685440, Note_on_c, 9, 35, 72
1, 685440, Note_on_c, 9, 57, 72
1, 685440, Note_on_c, 9, 44, 72
1, 685680, Note_off_c, 9, 35, 64
1, 685680, Note_off_c, 9, 57, 64
1, 685680, Note_off_c, 9, 44, 64
1, 685680, Note_on_c, 9, 35, 72
1, 685920, Note_off_c, 9, 35, 64
1, 685920, Note_on_c, 9, 38, 72
1, 685920, Note_on_c, 9, 57, 72
1, 685920, Note_on_c, 9, 44, 72
1, 686160, Note_off_c, 9, 38, 64
1, 686160, Note_off_c, 9, 57, 64
1, 686160, Note_off_c, 9, 44, 64
1, 686160, Note_on_c, 9, 35, 72
1, 686400, Note_off_c, 9, 35, 64
1, 686400, Note_on_c, 9, 35, 72
1, 686400, Note_on_c, 9, 57, 72
1, 686400, Note_on_c, 9, 44, 72
1, 686640, Note_off_c, 9, 35, 64
1, 686640, Note_off_c, 9, 57, 64
1, 686640, Note_off_c, 9, 44, 64
1, 686640, Note_on_c, 9, 35, 72
1, 686880, Note_off_c, 9, 35, 64
1, 686880, Note_on_c, 9, 38, 72
1, 686880, Note_on_c, 9, 57, 72
1, 686880, Note_on_c, 9, 44, 72
1, 687120, Note_off_c, 9, 38, 64
1, 687120, Note_off_c, 9, 57, 64
1, 687120, Note_off_c, 9, 44, 64
1, 687120, Note_on_c, 9, 35, 72
1, 687360, Note_off_c, 9, 35, 64
1, 687360, Note_on_c, 9, 35, 72
1, 687360, Note_on_c, 9, 44, 72
1, 687600, Note_off_c, 9, 35, 64
1, 687600, Note_off_c, 9, 44, 64
1, 687600, Note_on_c, 9, 35, 72
1, 687840, Note_off_c, 9, 35, 64
1, 687840, Note_on_c, 9, 38, 72
1, 687840, Note_on_c, 9, 44, 72
1, 688080, Note_off_c, 9, 38, 64
1, 688080, Note_off_c, 9, 44, 64
1, 688080, Note_on_c, 9, 35, 72
1, 688320, Note_off_c, 9, 35, 64
1, 688320, Note_on_c, 9, 35, 72
1, 688320, Note_on_c, 9, 44, 72
1, 688560, Note_off_c, 9, 35, 64
1, 688560, Note_off_c, 9, 44, 64
1, 688560, Note_on_c, 9, 35, 72
1, 688800, Note_off_c, 9, 35, 64
1, 688800, Note_on_c, 9, 38, 72
1, 688800, Note_on_c, 9, 44, 72
1, 689040, Note_off_c, 9, 38, 64
1, 689040, Note_off_c, 9, 44, 64
1, 689040, Note_on_c, 9, 35, 72
1, 689280, Note_off_c, 9, 35, 64
1, 689280, Note_on_c, 9, 35, 72
1, 689280, Note_on_c, 9, 44, 72
1, 689520, Note_off_c, 9, 35, 64
1, 689520, Note_off_c, 9, 44, 64
1, 689520, Note_on_c, 9, 35, 72
1, 689760, Note_off_c, 9, 35, 64
1, 689760, Note_on_c, 9, 38, 72
1, 689760, Note_on_c, 9, 44, 72
1, 690000, Note_off_c, 9, 38, 64
1, 690000, Note_off_c, 9, 44, 64
1, 690000, Note_on_c, 9, 35, 72
1, 690240, Note_off_c, 9, 35, 64
1, 690240, Note_on_c, 9, 35, 72
1, 690240, Note_on_c, 9, 44, 72
1, 690480, Note_off_c, 9, 35, 64
1, 690480, Note_off_c, 9, 44, 64
1, 690480, Note_on_c, 9, 35, 72
1, 690720, Note_off_c, 9, 35, 64
1, 690720, Note_on_c, 9, 38, 72
1, 690720, Note_on_c, 9, 44, 72
1, 690960, Note_off_c, 9, 38, 64
1, 690960, Note_off_c, 9, 44, 64
1, 690960, Note_on_c, 9, 35, 72
1, 691200, Note_off_c, 9, 35, 64
1, 691200, Note_on_c, 9, 35, 72
1, 691200, Note_on_c, 9, 57, 72
1, 691200, Note_on_c, 9, 44, 72
1, 691440, Note_off_c, 9, 35, 64
1, 691440, Note_off_c, 9, 57, 64
1, 691440, Note_off_c, 9, 44, 64
1, 691440, Note_on_c, 9, 35, 72
1, 691680, Note_off_c, 9, 35, 64
1, 691680, Note_on_c, 9, 38, 72
1, 691680, Note_on_c, 9, 57, 72
1, 691680, Note_on_c, 9, 44, 72
1, 691920, Note_off_c, 9, 38, 64
1, 691920, Note_off_c, 9, 57, 64
1, 691920, Note_off_c, 9, 44, 64
1, 691920, Note_on_c, 9, 35, 72
1, 692160, Note_off_c, 9, 35, 64
1, 692160, Note_on_c, 9, 35, 72
1, 692160, Note_on_c, 9, 57, 72
1, 692160, Note_on_c, 9, 44, 72
1, 692400, Note_off_c, 9, 35, 64
1, 692400, Note_off_c, 9, 57, 64
1, 692400, Note_off_c, 9, 44, 64
1, 692400, Note_on_c, 9, 35, 72
1, 692640, Note_off_c, 9, 35, 64
1, 692640, Note_on_c, 9, 38, 72
1, 692640, Note_on_c, 9, 57, 72
1, 692640, Note_on_c, 9, 44, 72
1, 692880, Note_off_c, 9, 38, 64
1, 692880, Note_off_c, 9, 57, 64
1, 692880, Note_off_c, 9, 44, 64
1, 692880, Note_on_c, 9, 35, 72
1, 693120, Note_off_c, 9, 35, 64
1, 693120, Note_on_c, 9, 35, 72
1, 693120, Note_on_c, 9, 57, 72
1, 693120, Note_on_c, 9, 44, 72
1, 693360, Note_off_c, 9, 35, 64
1, 693360, Note_off_c, 9, 57, 64
1, 693360, Note_off_c, 9, 44, 64
1, 693360, Note_on_c, 9, 35, 72
1, 693600, Note_off_c, 9, 35, 64
1, 693600, Note_on_c, 9, 38, 72
1, 693600, Note_on_c, 9, 57, 72
1, 693600, Note_on_c, 9, 44, 72
1, 693840, Note_off_c, 9, 38, 64
1, 693840, Note_off_c, 9, 57, 64
1, 693840, Note_off_c, 9, 44, 64
1, 693840, Note_on_c, 9, 35, 72
1, 694080, Note_off_c, 9, 35, 64
1, 694080, Note_on_c, 9, 35, 72
1, 694080, Note_on_c, 9, 57, 72
1, 694080, Note_on_c, 9, 44, 72
1, 694320, Note_off_c, 9, 35, 64
1, 694320, Note_off_c, 9, 57, 64
1, 694320, Note_off_c, 9, 44, 64
1, 694320, Note_on_c, 9, 35, 72
1, 694560, Note_off_c, 9, 35, 64
1, 694560, Note_on_c, 9, 38, 72
1, 694560, Note_on_c, 9, 57, 72
1, 694560, Note_on_c, 9, 44, 72
1, 694800, Note_off_c, 9, 38, 64
1, 694800, Note_off_c, 9, 57, 64
1, 694800, Note_off_c, 9, 44, 64
1, 694800, Note_on_c, 9, 35, 72
1, 695040, Note_off_c, 9, 35, 64
1, 695040, Note_on_c, 9, 35, 72
1, 695040, Note_on_c, 9, 44, 72
1, 695280, Note_off_c, 9, 35, 64
1, 695280, Note_off_c, 9, 44, 64
1, 695280, Note_on_c, 9, 35, 72
1, 695520, Note_off_c, 9, 35, 64
1, 695520, Note_on_c, 9, 38, 72
1, 695520, Note_on_c, 9, 44, 72
1, 695760, Note_off_c, 9, 38, 64
1, 695760, Note_off_c, 9, 44, 64
1, 695760, Note_on_c, 9, 35, 72
1, 696000, Note_off_c, 9, 35, 64
1, 696000, Note_on_c, 9, 35, 72
1, 696000, Note_on_c, 9, 44, 72
1, 696240, Note_off_c, 9, 35, 64
1, 696240, Note_off_c, 9, 44, 64
1, 696240, Note_on_c, 9, 35, 72
1, 696480, Note_off_c, 9, 35, 64
1, 696480, Note_on_c, 9, 38, 72
1, 696480, Note_on_c, 9, 44, 72
1, 696720, Note_off_c, 9, 38, 64
1, 696720, Note_off_c, 9, 44, 64
1, 696720, Note_on_c, 9, 35, 72
1, 696960, Note_off_c, 9, 35, 64
1, 696960, Note_on_c, 9, 35, 72
1, 696960, Note_on_c, 9, 44, 72
1, 697200, Note_off_c, 9, 35, 64
1, 697200, Note_off_c, 9, 44, 64
1, 697200, Note_on_c, 9, 35, 72
1, 697440, Note_off_c, 9, 35, 64
1, 697440, Note_on_c, 9, 38, 72
1, 697440, Note_on_c, 9, 44, 72
1, 697680, Note_off_c, 9, 38, 64
1, 697680, Note_off_c, 9, 44, 64
1, 697680, Note_on_c, 9, 35, 72
1, 697920, Note_off_c, 9, 35, 64
1, 697920, Note_on_c, 9, 35, 72
1, 697920, Note_on_c, 9, 44, 72
1, 698160, Note_off_c, 9, 35, 64
1, 698160, Note_off_c, 9, 44, 64
1, 698160, Note_on_c, 9, 35, 72
1, 698400, Note_off_c, 9, 35, 64
1, 698400, Note_on_c, 9, 38, 72
1, 698400, Note_on_c, 9, 44, 72
1, 698640, Note_off_c, 9, 38, 64
1, 698640, Note_off_c, 9, 44, 64
1, 698640, Note_on_c, 9, 35, 72
1, 698880, Note_off_c, 9, 35, 64
1, 698880, Note_on_c, 9, 35, 72
1, 698880, Note_on_c, 9, 57, 72
1, 698880, Note_on_c, 9, 44, 72
1, 699120, Note_off_c, 9, 35, 64
1, 699120, Note_off_c, 9, 57, 64
1, 699120, Note_off_c, 9, 44, 64
1, 699120, Note_on_c, 9, 35, 72
1, 699360, Note_off_c, 9, 35, 64
1, 699360, Note_on_c, 9, 38, 72
1, 699360, Note_on_c, 9, 57, 72
1, 699360, Note_on_c, 9, 44, 72
1, 699600, Note_off_c, 9, 38, 64
1, 699600, Note_off_c, 9, 57, 64
1, 699600, Note_off_c, 9, 44, 64
1, 699600, Note_on_c, 9, 35, 72
1, 699840, Note_off_c, 9, 35, 64
1, 699840, Note_on_c, 9, 35, 72
1, 699840, Note_on_c, 9, 57, 72
1, 699840, Note_on_c, 9, 44, 72
1, 700080, Note_off_c, 9, 35, 64
1, 700080, Note_off_c, 9, 57, 64
1, 700080, Note_off_c, 9, 44, 64
1, 700080, Note_on_c, 9, 35, 72
1, 700320, Note_off_c, 9, 35, 64
1, 700320, Note_on_c, 9, 38, 72
1, 700320, Note_on_c, 9, 57, 72
1, 700320, Note_on_c, 9, 44, 72
1, 700560, Note_off_c, 9, 38, 64
1, 700560, Note_off_c, 9, 57, 64
1, 700560, Note_off_c, 9, 44, 64
1, 700560, Note_on_c, 9, 35, 72
1, 700800, Note_off_c, 9, 35, 64
1, 700800, Note_on_c, 9, 35, 72
1, 700800, Note_on_c, 9, 57, 72
1, 700800, Note_on_c, 9, 44, 72
1, 701040, Note_off_c, 9, 35, 64
1, 701040, Note_off_c, 9, 57, 64
1, 701040, Note_off_c, 9, 44, 64
1, 701040, Note_on_c, 9, 35, 72
1, 701280, Note_off_c, 9, 35, 64
1, 701280, Note_on_c, 9, 38, 72
1, 701280, Note_on_c, 9, 57, 72
1, 701280, Note_on_c, 9, 44, 72
1, 701520, Note_off_c, 9, 38, 64
1, 701520, Note_off_c, 9, 57, 64
1, 701520, Note_off_c, 9, 44, 64
1, 701520, Note_on_c, 9, 35, 72
1, 701760, Note_off_c, 9, 35, 64
1, 701760, Note_on_c, 9, 35, 72
1, 701760, Note_on_c, 9, 57, 72
1, 701760, Note_on_c, 9, 44, 72
1, 702000, Note_off_c, 9, 35, 64
1, 702000, Note_off_c, 9, 57, 64
1, 702000, Note_off_c, 9, 44, 64
1, 702000, Note_on_c, 9, 35, 72
1, 702240, Note_off_c, 9, 35, 64
1, 702240, Note_on_c, 9, 38, 72
1, 702240, Note_on_c, 9, 57, 72
1, 702240, Note_on_c, 9, 44, 72
1, 702480, Note_off_c, 9, 38, 64
1, 702480, Note_off_c, 9, 57, 64
1, 702480, Note_off_c, 9, 44, 64
1, 702480, Note_on_c, 9, 35, 72
1, 702720, Note_off_c, 9, 35, 64
1, 702720, Note_on_c, 9, 35, 72
1, 702720, Note_on_c, 9, 44, 72
1, 702960, Note_off_c, 9, 35, 64
1, 702960, Note_off_c, 9, 44, 64
1, 702960, Note_on_c, 9, 35, 72
1, 703200, Note_off_c, 9, 35, 64
1, 703200, Note_on_c, 9, 38, 72
1, 703200, Note_on_c, 9, 44, 72
1, 703440, Note_off_c, 9, 38, 64
1, 703440, Note_off_c, 9, 44, 64
1, 703440, Note_on_c, 9, 35, 72
1, 703680, Note_off_c, 9, 35, 64
1, 703680, Note_on_c, 9, 35, 72
1, 703680, Note_on_c, 9, 44, 72
1, 703920, Note_off_c, 9, 35, 64
1, 703920, Note_off_c, 9, 44, 64
1, 703920, Note_on_c, 9, 35, 72
1, 704160, Note_off_c, 9, 35, 64
1, 704160, Note_on_c, 9, 38, 72
1, 704160, Note_on_c, 9, 44, 72
1, 704400, Note_off_c, 9, 38, 64
1, 704400, Note_off_c, 9, 44, 64
1, 704400, Note_on_c, 9, 35, 72
1, 704640, Note_off_c, 9, 35, 64
1, 704640, Note_on_c, 9, 35, 72
1, 704640, Note_on_c, 9, 44, 72
1, 704880, Note_off_c, 9, 35, 64
1, 704880, Note_off_c, 9, 44, 64
1, 704880, Note_on_c, 9, 35, 72
1, 705120, Note_off_c, 9, 35, 64
1, 705120, Note_on_c, 9, 38, 72
1, 705120, Note_on_c, 9, 44, 72
1, 705360, Note_off_c, 9, 38, 64
1, 705360, Note_off_c, 9, 44, 64
1, 705360, Note_on_c, 9, 35, 72
1, 705600, Note_off_c, 9, 35, 64
1, 705600, Note_on_c, 9, 35, 72
1, 705600, Note_on_c, 9, 44, 72
1, 705840, Note_off_c, 9, 35, 64
1, 705840, Note_off_c, 9, 44, 64
1, 705840, Note_on_c, 9, 35, 72
1, 706080, Note_off_c, 9, 35, 64
1, 706080, Note_on_c, 9, 38, 72
1, 706080, Note_on_c, 9, 44, 72
1, 706320, Note_off_c, 9, 38, 64
1, 706320, Note_off_c, 9, 44, 64
1, 706320, Note_on_c, 9, 35, 72
1, 706560, Note_off_c, 9, 35, 64
1, 706560, Note_on_c, 9, 35, 72
1, 706560, Note_on_c, 9, 57, 72
1, 706560, Note_on_c, 9, 44, 72
1, 706800, Note_off_c, 9, 35, 64
1, 706800, Note_off_c, 9, 57, 64
1, 706800, Note_off_c, 9, 44, 64
1, 706800, Note_on_c, 9, 35, 72
1, 707040, Note_off_c, 9, 35, 64
1, 707040, Note_on_c, 9, 38, 72
1, 707040, Note_on_c, 9, 57, 72
1, 707040, Note_on_c, 9, 44, 72
1, 707280, Note_off_c, 9, 38, 64
1, 707280, Note_off_c, 9, 57, 64
1, 707280, Note_off_c, 9, 44, 64
1, 707280, Note_on_c, 9, 35, 72
1, 707520, Note_off_c, 9, 35, 64
1, 707520, Note_on_c, 9, 35, 72
1, 707520, Note_on_c, 9, 57, 72
1, 707520, Note_on_c, 9, 44, 72
1, 707760, Note_off_c, 9, 35, 64
1, 707760, Note_off_c, 9, 57, 64
1, 707760, Note_off_c, 9, 44, 64
1, 707760, Note_on_c, 9, 35, 72
1, 708000, Note_off_c, 9, 35, 64
1, 708000, Note_on_c, 9, 38, 72
1, 708000, Note_on_c, 9, 57, 72
1, 708000, Note_on_c, 9, 44, 72
1, 708240, Note_off_c, 9, 38, 64
1, 708240, Note_off_c, 9, 57, 64
1, 708240, Note_off_c, 9, 44, 64
1, 708240, Note_on_c, 9, 35, 72
1, 708480, Note_off_c, 9, 35, 64
1, 708480, Note_on_c, 9, 35, 72
1, 708480, Note_on_c, 9, 57, 72
1, 708480, Note_on_c, 9, 44, 72
1, 708720, Note_off_c, 9, 35, 64
1, 708720, Note_off_c, 9, 57, 64
1, 708720, Note_off_c, 9, 44, 64
1, 708720, Note_on_c, 9, 35, 72
1, 708960, Note_off_c, 9, 35, 64
1, 708960, Note_on_c, 9, 38, 72
1, 708960, Note_on_c, 9, 57, 72
1, 708960, Note_on_c, 9, 44, 72
1, 709200, Note_off_c, 9, 38, 64
1, 709200, Note_off_c, 9, 57, 64
1, 709200, Note_off_c, 9, 44, 64
1, 709200, Note_on_c, 9, 35, 72
1, 709440, Note_off_c, 9, 35, 64
1, 709440, Note_on_c, 9, 35, 72
1, 709440, Note_on_c, 9, 57, 72
1, 709440, Note_on_c, 9, 44, 72
1, 709680, Note_off_c, 9, 35, 64
1, 709680, Note_off_c, 9, 57, 64
1, 709680, Note_off_c, 9, 44, 64
1, 709680, Note_on_c, 9, 35, 72
1, 709920, Note_off_c, 9, 35, 64
1, 709920, Note_on_c, 9, 38, 72
1, 709920, Note_on_c, 9, 57, 72
1, 709920, Note_on_c, 9, 44, 72
1, 710160, Note_off_c, 9, 38, 64
1, 710160, Note_off_c, 9, 57, 64
1, 710160, Note_off_c, 9, 44, 64
1, 710160, Note_on_c, 9, 35, 72
1, 710400, Note_off_c, 9, 35, 64
1, 710400, Note_on_c, 9, 35, 72
1, 710400, Note_on_c, 9, 44, 72
1, 710640, Note_off_c, 9, 35, 64
1, 710640, Note_off_c, 9, 44, 64
1, 710640, Note_on_c, 9, 35, 72
1, 710880, Note_off_c, 9, 35, 64
1, 710880, Note_on_c, 9, 38, 72
1, 710880, Note_on_c, 9, 44, 72
1, 711120, Note_off_c, 9, 38, 64
1, 711120, Note_off_c, 9, 44, 64
1, 711120, Note_on_c, 9, 35, 72
1, 711360, Note_off_c, 9, 35, 64
1, 711360, Note_on_c, 9, 35, 72
1, 711360, Note_on_c, 9, 44, 72
1, 711600, Note_off_c, 9, 35, 64
1, 711600, Note_off_c, 9, 44, 64
1, 711600, Note_on_c, 9, 35, 72
1, 711840, Note_off_c, 9, 35, 64
1, 711840, Note_on_c, 9, 38, 72
1, 711840, Note_on_c, 9, 44, 72
1, 712080, Note_off_c, 9, 38, 64
1, 712080, Note_off_c, 9, 44, 64
1, 712080, Note_on_c, 9, 35, 72
1, 712320, Note_off_c, 9, 35, 64
1, 712320, Note_on_c, 9, 35, 72
1, 712320, Note_on_c, 9, 44, 72
1, 712560, Note_off_c, 9, 35, 64
1, 712560, Note_off_c, 9, 44, 64
1, 712560, Note_on_c, 9, 35, 72
1, 712800, Note_off_c, 9, 35, 64
1, 712800, Note_on_c, 9, 38, 72
1, 712800, Note_on_c, 9, 44, 72
1, 713040, Note_off_c, 9, 38, 64
1, 713040, Note_off_c, 9, 44, 64
1, 713040, Note_on_c, 9, 35, 72
1, 713280, Note_off_c, 9, 35, 64
1, 713280, Note_on_c, 9, 35, 72
1, 713280, Note_on_c, 9, 44, 72
1, 713520, Note_off_c, 9, 35, 64
1, 713520, Note_off_c, 9, 44, 64
1, 713520, Note_on_c, 9, 35, 72
1, 713760, Note_off_c, 9, 35, 64
1, 713760, Note_on_c, 9, 38, 72
1, 713760, Note_on_c, 9, 44, 72
1, 714000, Note_off_c, 9, 38, 64
1, 714000, Note_off_c, 9, 44, 64
1, 714000, Note_on_c, 9, 35, 72
1, 714240, Note_off_c, 9, 35, 64
1, 714240, Note_on_c, 9, 35, 72
1, 714240, Note_on_c, 9, 57, 72
1, 714240, Note_on_c, 9, 44, 72
1, 714480, Note_off_c, 9, 35, 64
1, 714480, Note_off_c, 9, 57, 64
1, 714480, Note_off_c, 9, 44, 64
1, 714480, Note_on_c, 9, 35, 72
1, 714720, Note_off_c, 9, 35, 64
1, 714720, Note_on_c, 9, 38, 72
1, 714720, Note_on_c, 9, 57, 72
1, 714720, Note_on_c, 9, 44, 72
1, 714960, Note_off_c, 9, 38, 64
1, 714960, Note_off_c, 9, 57, 64
1, 714960, Note_off_c, 9, 44, 64
1, 714960, Note_on_c, 9, 35, 72
1, 715200, Note_off_c, 9, 35, 64
1, 715200, Note_on_c, 9, 35, 72
1, 715200, Note_on_c, 9, 57, 72
1, 715200, Note_on_c, 9, 44, 72
1, 715440, Note_off_c, 9, 35, 64
1, 715440, Note_off_c, 9, 57, 64
1, 715440, Note_off_c, 9, 44, 64
1, 715440, Note_on_c, 9, 35, 72
1, 715680, Note_off_c, 9, 35, 64
1, 715680, Note_on_c, 9, 38, 72
1, 715680, Note_on_c, 9, 57, 72
1, 715680, Note_on_c, 9, 44, 72
1, 715920, Note_off_c, 9, 38, 64
1, 715920, Note_off_c, 9, 57, 64
1, 715920, Note_off_c, 9, 44, 64
1, 715920, Note_on_c, 9, 35, 72
1, 716160, Note_off_c, 9, 35, 64
1, 716160, Note_on_c, 9, 35, 72
1, 716160, Note_on_c, 9, 57, 72
1, 716160, Note_on_c, 9, 44, 72
1, 716400, Note_off_c, 9, 35, 64
1, 716400, Note_off_c, 9, 57, 64
1, 716400, Note_off_c, 9, 44, 64
1, 716400, Note_on_c, 9, 35, 72
1, 716640, Note_off_c, 9, 35, 64
1, 716640, Note_on_c, 9, 38, 72
1, 716640, Note_on_c, 9, 57, 72
1, 716640, Note_on_c, 9, 44, 72
1, 716880, Note_off_c, 9, 38, 64
1, 716880, Note_off_c, 9, 57, 64
1, 716880, Note_off_c, 9, 44, 64
1, 716880, Note_on_c, 9, 35, 72
1, 717120, Note_off_c, 9, 35, 64
1, 717120, Note_on_c, 9, 35, 72
1, 717120, Note_on_c, 9, 57, 72
1, 717120, Note_on_c, 9, 44, 72
1, 717360, Note_off_c, 9, 35, 64
1, 717360, Note_off_c, 9, 57, 64
1, 717360, Note_off_c, 9, 44, 64
1, 717360, Note_on_c, 9, 35, 72
1, 717600, Note_off_c, 9, 35, 64
1, 717600, Note_on_c, 9, 38, 72
1, 717600, Note_on_c, 9, 57, 72
1, 717600, Note_on_c, 9, 44, 72
1, 717840, Note_off_c, 9, 38, 64
1, 717840, Note_off_c, 9, 57, 64
1, 717840, Note_off_c, 9, 44, 64
1, 717840, Note_on_c, 9, 35, 72
1, 718080, Note_off_c, 9, 35, 64
1, 718080, Note_on_c, 9, 35, 72
1, 718080, Note_on_c, 9, 44, 72
1, 718320, Note_off_c, 9, 35, 64
1, 718320, Note_off_c, 9, 44, 64
1, 718320, Note_on_c, 9, 35, 72
1, 718560, Note_off_c, 9, 35, 64
1, 718560, Note_on_c, 9, 38, 72
1, 718560, Note_on_c, 9, 44, 72
1, 718800, Note_off_c, 9, 38, 64
1, 718800, Note_off_c, 9, 44, 64
1, 718800, Note_on_c, 9, 35, 72
1, 719040, Note_off_c, 9, 35, 64
1, 719040, Note_on_c, 9, 35, 72
1, 719040, Note_on_c, 9, 44, 72
1, 719280, Note_off_c, 9, 35, 64
1, 719280, Note_off_c, 9, 44, 64
1, 719280, Note_on_c, 9, 35, 72
1, 719520, Note_off_c, 9, 35, 64
1, 719520, Note_on_c, 9, 38, 72
1, 719520, Note_on_c, 9, 44, 72
1, 719760, Note_off_c, 9, 38, 64
1, 719760, Note_off_c, 9, 44, 64
1, 719760, Note_on_c, 9, 35, 72
1, 720000, Note_off_c, 9, 35, 64
1, 720000, Note_on_c, 9, 35, 72
1, 720000, Note_on_c, 9, 44, 72
1, 720240, Note_off_c, 9, 35, 64
1, 720240, Note_off_c, 9, 44, 64
1, 720240, Note_on_c, 9, 35, 72
1, 720480, Note_off_c, 9, 35, 64
1, 720480, Note_on_c, 9, 38, 72
1, 720480, Note_on_c, 9, 44, 72
1, 720720, Note_off_c, 9, 38, 64
1, 720720, Note_off_c, 9, 44, 64
1, 720720, Note_on_c, 9, 35, 72
1, 720960, Note_off_c, 9, 35, 64
1, 720960, Note_on_c, 9, 35, 72
1, 720960, Note_on_c, 9, 44, 72
1, 721200, Note_off_c, 9, 35, 64
1, 721200, Note_off_c, 9, 44, 64
1, 721200, Note_on_c, 9, 35, 72
1, 721440, Note_off_c, 9, 35, 64
1, 721440, Note_on_c, 9, 38, 72
1, 721440, Note_on_c, 9, 44, 72
1, 721680, Note_off_c, 9, 38, 64
1, 721680, Note_off_c, 9, 44, 64
1, 721680, Note_on_c, 9, 35, 72
1, 721920, Note_off_c, 9, 35, 64
1, 721920, Note_on_c, 9, 35, 72
1, 721920, Note_on_c, 9, 57, 72
1, 721920, Note_on_c, 9, 44, 72
1, 722160, Note_off_c, 9, 35, 64
1, 722160, Note_off_c, 9, 57, 64
1, 722160, Note_off_c, 9, 44, 64
1, 722160, Note_on_c, 9, 35, 72
1, 722400, Note_off_c, 9, 35, 64
1, 722400, Note_on_c, 9, 38, 72
1, 722400, Note_on_c, 9, 57, 72
1, 722400, Note_on_c, 9, 44, 72
1, 722640, Note_off_c, 9, 38, 64
1, 722640, Note_off_c, 9, 57, 64
1, 722640, Note_off_c, 9, 44, 64
1, 722640, Note_on_c, 9, 35, 72
1, 722880, Note_off_c, 9, 35, 64
1, 722880, Note_on_c, 9, 35, 72
1, 722880, Note_on_c, 9, 57, 72
1, 722880, Note_on_c, 9, 44, 72
1, 723120, Note_off_c, 9, 35, 64
1, 723120, Note_off_c, 9, 57, 64
1, 723120, Note_off_c, 9, 44, 64
1, 723120, Note_on_c, 9, 35, 72
1, 723360, Note_off_c, 9, 35, 64
1, 723360, Note_on_c, 9, 38, 72
1, 723360, Note_on_c, 9, 57, 72
1, 723360, Note_on_c, 9, 44, 72
1, 723600, Note_off_c, 9, 38, 64
1, 723600, Note_off_c, 9, 57, 64
1, 723600, Note_off_c, 9, 44, 64
1, 723600, Note_on_c, 9, 35, 72
1, 723840, Note_off_c, 9, 35, 64
1, 723840, Note_on_c, 9, 35, 72
1, 723840, Note_on_c, 9, 57, 72
1, 723840, Note_on_c, 9, 44, 72
1, 724080, Note_off_c, 9, 35, 64
1, 724080, Note_off_c, 9, 57, 64
1, 724080, Note_off_c, 9, 44, 64
1, 724080, Note_on_c, 9, 35, 72
1, 724320, Note_off_c, 9, 35, 64
1, 724320, Note_on_c, 9, 38, 72
1, 724320, Note_on_c, 9, 57, 72
1, 724320, Note_on_c, 9, 44, 72
1, 724560, Note_off_c, 9, 38, 64
1, 724560, Note_off_c, 9, 57, 64
1, 724560, Note_off_c, 9, 44, 64
1, 724560, Note_on_c, 9, 35, 72
1, 724800, Note_off_c, 9, 35, 64
1, 724800, Note_on_c, 9, 35, 72
1, 724800, Note_on_c, 9, 57, 72
1, 724800, Note_on_c, 9, 44, 72
1, 725040, Note_off_c, 9, 35, 64
1, 725040, Note_off_c, 9, 57, 64
1, 725040, Note_off_c, 9, 44, 64
1, 725040, Note_on_c, 9, 35, 72
1, 725280, Note_off_c, 9, 35, 64
1, 725280, Note_on_c, 9, 38, 72
1, 725280, Note_on_c, 9, 57, 72
1, 725280, Note_on_c, 9, 44, 72
1, 725520, Note_off_c, 9, 38, 64
1, 725520, Note_off_c, 9, 57, 64
1, 725520, Note_off_c, 9, 44, 64
1, 725520, Note_on_c, 9, 35, 72
1, 725760, Note_off_c, 9, 35, 64
1, 725760, Note_on_c, 9, 35, 72
1, 725760, Note_on_c, 9, 44, 72
1, 726000, Note_off_c, 9, 35, 64
1, 726000, Note_off_c, 9, 44, 64
1, 726000, Note_on_c, 9, 35, 72
1, 726240, Note_off_c, 9, 35, 64
1, 726240, Note_on_c, 9, 38, 72
1, 726240, Note_on_c, 9, 44, 72
1, 726480, Note_off_c, 9, 38, 64
1, 726480, Note_off_c, 9, 44, 64
1, 726480, Note_on_c, 9, 35, 72
1, 726720, Note_off_c, 9, 35, 64
1, 726720, Note_on_c, 9, 35, 72
1, 726720, Note_on_c, 9, 44, 72
1, 726960, Note_off_c, 9, 35, 64
1, 726960, Note_off_c, 9, 44, 64
1, 726960, Note_on_c, 9, 35, 72
1, 727200, Note_off_c, 9, 35, 64
1, 727200, Note_on_c, 9, 38, 72
1, 727200, Note_on_c, 9, 44, 72
1, 727440, Note_off_c, 9, 38, 64
1, 727440, Note_off_c, 9, 44, 64
1, 727440, Note_on_c, 9, 35, 72
1, 727680, Note_off_c, 9, 35, 64
1, 727680, Note_on_c, 9, 35, 72
1, 727680, Note_on_c, 9, 44, 72
1, 727920, Note_off_c, 9, 35, 64
1, 727920, Note_off_c, 9, 44, 64
1, 727920, Note_on_c, 9, 35, 72
1, 728160, Note_off_c, 9, 35, 64
1, 728160, Note_on_c, 9, 38, 72
1, 728160, Note_on_c, 9, 44, 72
1, 728400, Note_off_c, 9, 38, 64
1, 728400, Note_off_c, 9, 44, 64
1, 728400, Note_on_c, 9, 35, 72
1, 728640, Note_off_c, 9, 35, 64
1, 728640, Note_on_c, 9, 35, 72
1, 728640, Note_on_c, 9, 44, 72
1, 728880, Note_off_c, 9, 35, 64
1, 728880, Note_off_c, 9, 44, 64
1, 728880, Note_on_c, 9, 35, 72
1, 729120, Note_off_c, 9, 35, 64
1, 729120, Note_on_c, 9, 38, 72
1, 729120, Note_on_c, 9, 44, 72
1, 729360, Note_off_c, 9, 38, 64
1, 729360, Note_off_c, 9, 44, 64
1, 729360, Note_on_c, 9, 35, 72
1, 729600, Note_off_c, 9, 35, 64
1, 729600, Note_on_c, 9, 35, 72
1, 729600, Note_on_c, 9, 57, 72
1, 729600, Note_on_c, 9, 44, 72
1, 729840, Note_off_c, 9, 35, 64
1, 729840, Note_off_c, 9, 57, 64
1, 729840, Note_off_c, 9, 44, 64
1, 729840, Note_on_c, 9, 35, 72
1, 730080, Note_off_c, 9, 35, 64
1, 730080, Note_on_c, 9, 38, 72
1, 730080, Note_on_c, 9, 57, 72
1, 730080, Note_on_c, 9, 44, 72
1, 730320, Note_off_c, 9, 38, 64
1, 730320, Note_off_c, 9, 57, 64
1, 730320, Note_off_c, 9, 44, 64
1, 730320, Note_on_c, 9, 35, 72
1, 730560, Note_off_c, 9, 35, 64
1, 730560, Note_on_c, 9, 35, 72
1, 730560, Note_on_c, 9, 57, 72
1, 730560, Note_on_c, 9, 44, 72
1, 730800, Note_off_c, 9, 35, 64
1, 730800, Note_off_c, 9, 57, 64
1, 730800, Note_off_c, 9, 44, 64
1, 730800, Note_on_c, 9, 35, 72
1, 731040, Note_off_c, 9, 35, 64
1, 731040, Note_on_c, 9, 38, 72
1, 731040, Note_on_c, 9, 57, 72
1, 731040, Note_on_c, 9, 44, 72
1, 731280, Note_off_c, 9, 38, 64
1, 731280, Note_off_c, 9, 57, 64
1, 731280, Note_off_c, 9, 44, 64
1, 731280, Note_on_c, 9, 35, 72
1, 731520, Note_off_c, 9, 35, 64
1, 731520, Note_on_c, 9, 35, 72
1, 731520, Note_on_c, 9, 57, 72
1, 731520, Note_on_c, 9, 44, 72
1, 731760, Note_off_c, 9, 35, 64
1, 731760, Note_off_c, 9, 57, 64
1, 731760, Note_off_c, 9, 44, 64
1, 731760, Note_on_c, 9, 35, 72
1, 732000, Note_off_c, 9, 35, 64
1, 732000, Note_on_c, 9, 38, 72
1, 732000, Note_on_c, 9, 57, 72
1, 732000, Note_on_c, 9, 44, 72
1, 732240, Note_off_c, 9, 38, 64
1, 732240, Note_off_c, 9, 57, 64
1, 732240, Note_off_c, 9, 44, 64
1, 732240, Note_on_c, 9, 35, 72
1, 732480, Note_off_c, 9, 35, 64
1, 732480, Note_on_c, 9, 35, 72
1, 732480, Note_on_c, 9, 57, 72
1, 732480, Note_on_c, 9, 44, 72
1, 732720, Note_off_c, 9, 35, 64
1, 732720, Note_off_c, 9, 57, 64
1, 732720, Note_off_c, 9, 44, 64
1, 732720, Note_on_c, 9, 35, 72
1, 732960, Note_off_c, 9, 35, 64
1, 732960, Note_on_c, 9, 38, 72
1, 732960, Note_on_c, 9, 57, 72
1, 732960, Note_on_c, 9, 44, 72
1, 733200, Note_off_c, 9, 38, 64
1, 733200, Note_off_c, 9, 57, 64
1, 733200, Note_off_c, 9, 44, 64
1, 733200, Note_on_c, 9, 35, 72
1, 733440, Note_off_c, 9, 35, 64
1, 733440, Note_on_c, 9, 35, 72
1, 733440, Note_on_c, 9, 44, 72
1, 733680, Note_off_c, 9, 35, 64
1, 733680, Note_off_c, 9, 44, 64
1, 733680, Note_on_c, 9, 35, 72
1, 733920, Note_off_c, 9, 35, 64
1, 733920, Note_on_c, 9, 38, 72
1, 733920, Note_on_c, 9, 44, 72
1, 734160, Note_off_c, 9, 38, 64
1, 734160, Note_off_c, 9, 44, 64
1, 734160, Note_on_c, 9, 35, 72
1, 734400, Note_off_c, 9, 35, 64
1, 734400, Note_on_c, 9, 35, 72
1, 734400, Note_on_c, 9, 44, 72
1, 734640, Note_off_c, 9, 35, 64
1, 734640, Note_off_c, 9, 44, 64
1, 734640, Note_on_c, 9, 35, 72
1, 734880, Note_off_c, 9, 35, 64
1, 734880, Note_on_c, 9, 38, 72
1, 734880, Note_on_c, 9, 44, 72
1, 735120, Note_off_c, 9, 38, 64
1, 735120, Note_off_c, 9, 44, 64
1, 735120, Note_on_c, 9, 35, 72
1, 735360, Note_off_c, 9, 35, 64
1, 735360, Note_on_c, 9, 35, 72
1, 735360, Note_on_c, 9, 44, 72
1, 735600, Note_off_c, 9, 35, 64
1, 735600, Note_off_c, 9, 44, 64
1, 735600, Note_on_c, 9, 35, 72
1, 735840, Note_off_c, 9, 35, 64
1, 735840, Note_on_c, 9, 38, 72
1, 735840, Note_on_c, 9, 44, 72
1, 736080, Note_off_c, 9, 38, 64
1, 736080, Note_off_c, 9, 44, 64
1, 736080, Note_on_c, 9, 35, 72
1, 736320, Note_off_c, 9, 35, 64
1, 736320, Note_on_c, 9, 35, 72
1, 736320, Note_on_c, 9, 44, 72
1, 736560, Note_off_c, 9, 35, 64
1, 736560, Note_off_c, 9, 44, 64
1, 736560, Note_on_c, 9, 35, 72
1, 736800, Note_off_c, 9, 35, 64
1, 736800, Note_on_c, 9, 38, 72
1, 736800, Note_on_c, 9, 44, 72
1, 737040, Note_off_c, 9, 38, 64
1, 737040, Note_off_c, 9, 44, 64
1, 737040, Note_on_c, 9, 35, 72
1, 737280, Note_off_c, 9, 35, 64
1, 737280, Note_on_c, 9, 35, 72
1, 737280, Note_on_c, 9, 57, 72
1, 737280, Note_on_c, 9, 44, 72
1, 737520, Note_off_c, 9, 35, 64
1, 737520, Note_off_c, 9, 57, 64
1, 737520, Note_off_c, 9, 44, 64
1, 737520, Note_on_c, 9, 35, 72
1, 737760, Note_off_c, 9, 35, 64
1, 737760, Note_on_c, 9, 38, 72
1, 737760, Note_on_c, 9, 57, 72
1, 737760, Note_on_c, 9, 44, 72
1, 738000, Note_off_c, 9, 38, 64
1, 738000, Note_off_c, 9, 57, 64
1, 738000, Note_off_c, 9, 44, 64
1, 738000, Note_on_c, 9, 35, 72
1, 738240, Note_off_c, 9, 35, 64
1, 738240, Note_on_c, 9, 35, 72
1, 738240, Note_on_c, 9, 57, 72
1, 738240, Note_on_c, 9, 44, 72
1, 738480, Note_off_c, 9, 35, 64
1, 738480, Note_off_c, 9, 57, 64
1, 738480, Note_off_c, 9, 44, 64
1, 738480, Note_on_c, 9, 35, 72
1, 738720, Note_off_c, 9, 35, 64
1, 738720, Note_on_c, 9, 38, 72
1, 738720, Note_on_c, 9, 57, 72
1, 738720, Note_on_c, 9, 44, 72
1, 738960, Note_off_c, 9, 38, 64
1, 738960, Note_off_c, 9, 57, 64
1, 738960, Note_off_c, 9, 44, 64
1, 738960, Note_on_c, 9, 35, 72
1, 739200, Note_off_c, 9, 35, 64
1, 739200, Note_on_c, 9, 35, 72
1, 739200, Note_on_c, 9, 57, 72
1, 739200, Note_on_c, 9, 44, 72
1, 739440, Note_off_c, 9, 35, 64
1, 739440, Note_off_c, 9, 57, 64
1, 739440, Note_off_c, 9, 44, 64
1, 739440, Note_on_c, 9, 35, 72
1, 739680, Note_off_c, 9, 35, 64
1, 739680, Note_on_c, 9, 38, 72
1, 739680, Note_on_c, 9, 57, 72
1, 739680, Note_on_c, 9, 44, 72
1, 739920, Note_off_c, 9, 38, 64
1, 739920, Note_off_c, 9, 57, 64
1, 739920, Note_off_c, 9, 44, 64
1, 739920, Note_on_c, 9, 35, 72
1, 740160, Note_off_c, 9, 35, 64
1, 740160, Note_on_c, 9, 35, 72
1, 740160, Note_on_c, 9, 57, 72
1, 740160, Note_on_c, 9, 44, 72
1, 740400, Note_off_c, 9, 35, 64
1, 740400, Note_off_c, 9, 57, 64
1, 740400, Note_off_c, 9, 44, 64
1, 740400, Note_on_c, 9, 35, 72
1, 740640, Note_off_c, 9, 35, 64
1, 740640, Note_on_c, 9, 38, 72
1, 740640, Note_on_c, 9, 57, 72
1, 740640, Note_on_c, 9, 44, 72
1, 740880, Note_off_c, 9, 38, 64
1, 740880, Note_off_c, 9, 57, 64
1, 740880, Note_off_c, 9, 44, 64
1, 740880, Note_on_c, 9, 35, 72
1, 741120, Note_off_c, 9, 35, 64
1, 741120, Note_on_c, 9, 35, 72
1, 741120, Note_on_c, 9, 44, 72
1, 741360, Note_off_c, 9, 35, 64
1, 741360, Note_off_c, 9, 44, 64
1, 741360, Note_on_c, 9, 35, 72
1, 741600, Note_off_c, 9, 35, 64
1, 741600, Note_on_c, 9, 38, 72
1, 741600, Note_on_c, 9, 44, 72
1, 741840, Note_off_c, 9, 38, 64
1, 741840, Note_off_c, 9, 44, 64
1, 741840, Note_on_c, 9, 35, 72
1, 742080, Note_off_c, 9, 35, 64
1, 742080, Note_on_c, 9, 35, 72
1, 742080, Note_on_c, 9, 44, 72
1, 742320, Note_off_c, 9, 35, 64
1, 742320, Note_off_c, 9, 44, 64
1, 742320, Note_on_c, 9, 35, 72
1, 742560, Note_off_c, 9, 35, 64
1, 742560, Note_on_c, 9, 38, 72
1, 742560, Note_on_c, 9, 44, 72
1, 742800, Note_off_c, 9, 38, 64
1, 742800, Note_off_c, 9, 44, 64
1, 742800, Note_on_c, 9, 35, 72
1, 743040, Note_off_c, 9, 35, 64
1, 743040, Note_on_c, 9, 35, 72
1, 743040, Note_on_c, 9, 44, 72
1, 743280, Note_off_c, 9, 35, 64
1, 743280, Note_off_c, 9, 44, 64
1, 743280, Note_on_c, 9, 35, 72
1, 743520, Note_off_c, 9, 35, 64
1, 743520, Note_on_c, 9, 38, 72
1, 743520, Note_on_c, 9, 44, 72
1, 743760, Note_off_c, 9, 38, 64
1, 743760, Note_off_c, 9, 44, 64
1, 743760, Note_on_c, 9, 35, 72
1, 744000, Note_off_c, 9, 35, 64
1, 744000, Note_on_c, 9, 35, 72
1, 744000, Note_on_c, 9, 44, 72
1, 744240, Note_off_c, 9, 35, 64
1, 744240, Note_off_c, 9, 44, 64
1, 744240, Note_on_c, 9, 35, 72
1, 744480, Note_off_c, 9, 35, 64
1, 744480, Note_on_c, 9, 38, 72
1, 744480, Note_on_c, 9, 44, 72
1, 744720, Note_off_c, 9, 38, 64
1, 744720, Note_off_c, 9, 44, 64
1, 744720, Note_on_c, 9, 35, 72
1, 744960, Note_off_c, 9, 35, 64
1, 744960, Note_on_c, 9, 35, 72
1, 744960, Note_on_c, 9, 57, 72
1, 744960, Note_on_c, 9, 44, 72
1, 745200, Note_off_c, 9, 35, 64
1, 745200, Note_off_c, 9, 57, 64
1, 745200, Note_off_c, 9, 44, 64
1, 745200, Note_on_c, 9, 35, 72
1, 745440, Note_off_c, 9, 35, 64
1, 745440, Note_on_c, 9, 38, 72
1, 745440, Note_on_c, 9, 57, 72
1, 745440, Note_on_c, 9, 44, 72
1, 745680, Note_off_c, 9, 38, 64
1, 745680, Note_off_c, 9, 57, 64
1, 745680, Note_off_c, 9, 44, 64
1, 745680, Note_on_c, 9, 35, 72
1, 745920, Note_off_c, 9, 35, 64
1, 745920, Note_on_c, 9, 35, 72
1, 745920, Note_on_c, 9, 57, 72
1, 745920, Note_on_c, 9, 44, 72
1, 746160, Note_off_c, 9, 35, 64
1, 746160, Note_off_c, 9, 57, 64
1, 746160, Note_off_c, 9, 44, 64
1, 746160, Note_on_c, 9, 35, 72
1, 746400, Note_off_c, 9, 35, 64
1, 746400, Note_on_c, 9, 38, 72
1, 746400, Note_on_c, 9, 57, 72
1, 746400, Note_on_c, 9, 44, 72
1, 746640, Note_off_c, 9, 38, 64
1, 746640, Note_off_c, 9, 57, 64
1, 746640, Note_off_c, 9, 44, 64
1, 746640, Note_on_c, 9, 35, 72
1, 746880, Note_off_c, 9, 35, 64
1, 746880, Note_on_c, 9, 35, 72
1, 746880, Note_on_c, 9, 57, 72
1, 746880, Note_on_c, 9, 44, 72
1, 747120, Note_off_c, 9, 35, 64
1, 747120, Note_off_c, 9, 57, 64
1, 747120, Note_off_c, 9, 44, 64
1, 747120, Note_on_c, 9, 35, 72
1, 747360, Note_off_c, 9, 35, 64
1, 747360, Note_on_c, 9, 38, 72
1, 747360, Note_on_c, 9, 57, 72
1, 747360, Note_on_c, 9, 44, 72
1, 747600, Note_off_c, 9, 38, 64
1, 747600, Note_off_c, 9, 57, 64
1, 747600, Note_off_c, 9, 44, 64
1, 747600, Note_on_c, 9, 35, 72
1, 747840, Note_off_c, 9, 35, 64
1, 747840, Note_on_c, 9, 35, 72
1, 747840, Note_on_c, 9, 57, 72
1, 747840, Note_on_c, 9, 44, 72
1, 748080, Note_off_c, 9, 35, 64
1, 748080, Note_off_c, 9, 57, 64
1, 748080, Note_off_c, 9, 44, 64
1, 748080, Note_on_c, 9, 35, 72
1, 748320, Note_off_c, 9, 35, 64
1, 748320, Note_on_c, 9, 38, 72
1, 748320, Note_on_c, 9, 57, 72
1, 748320, Note_on_c, 9, 44, 72
1, 748560, Note_off_c, 9, 38, 64
1, 748560, Note_off_c, 9, 57, 64
1, 748560, Note_off_c, 9, 44, 64
1, 748560, Note_on_c, 9, 35, 72
1, 748800, Note_off_c, 9, 35, 64
1, 748800, Note_on_c, 9, 35, 72
1, 748800, Note_on_c, 9, 44, 72
1, 749040, Note_off_c, 9, 35, 64
1, 749040, Note_off_c, 9, 44, 64
1, 749040, Note_on_c, 9, 35, 72
1, 749280, Note_off_c, 9, 35, 64
1, 749280, Note_on_c, 9, 38, 72
1, 749280, Note_on_c, 9, 44, 72
1, 749520, Note_off_c, 9, 38, 64
1, 749520, Note_off_c, 9, 44, 64
1, 749520, Note_on_c, 9, 35, 72
1, 749760, Note_off_c, 9, 35, 64
1, 749760, Note_on_c, 9, 35, 72
1, 749760, Note_on_c, 9, 44, 72
1, 750000, Note_off_c, 9, 35, 64
1, 750000, Note_off_c, 9, 44, 64
1, 750000, Note_on_c, 9, 35, 72
1, 750240, Note_off_c, 9, 35, 64
1, 750240, Note_on_c, 9, 38, 72
1, 750240, Note_on_c, 9, 44, 72
1, 750480, Note_off_c, 9, 38, 64
1, 750480, Note_off_c, 9, 44, 64
1, 750480, Note_on_c, 9, 35, 72
1, 750720, Note_off_c, 9, 35, 64
1, 750720, Note_on_c, 9, 35, 72
1, 750720, Note_on_c, 9, 44, 72
1, 750960, Note_off_c, 9, 35, 64
1, 750960, Note_off_c, 9, 44, 64
1, 750960, Note_on_c, 9, 35, 72
1, 751200, Note_off_c, 9, 35, 64
1, 751200, Note_on_c, 9, 38, 72
1, 751200, Note_on_c, 9, 44, 72
1, 751440, Note_off_c, 9, 38, 64
1, 751440, Note_off_c, 9, 44, 64
1, 751440, Note_on_c, 9, 35, 72
1, 751680, Note_off_c, 9, 35, 64
1, 751680, Note_on_c, 9, 35, 72
1, 751680, Note_on_c, 9, 44, 72
1, 751920, Note_off_c, 9, 35, 64
1, 751920, Note_off_c, 9, 44, 64
1, 751920, Note_on_c, 9, 35, 72
1, 752160, Note_off_c, 9, 35, 64
1, 752160, Note_on_c, 9, 38, 72
1, 752160, Note_on_c, 9, 44, 72
1, 752400, Note_off_c, 9, 38, 64
1, 752400, Note_off_c, 9, 44, 64
1, 752400, Note_on_c, 9, 35, 72
1, 752640, Note_off_c, 9, 35, 64
1, 752640, Note_on_c, 9, 35, 72
1, 752640, Note_on_c, 9, 57, 72
1, 752640, Note_on_c, 9, 44, 72
1, 752880, Note_off_c, 9, 35, 64
1, 752880, Note_off_c, 9, 57, 64
1, 752880, Note_off_c, 9, 44, 64
1, 752880, Note_on_c, 9, 35, 72
1, 753120, Note_off_c, 9, 35, 64
1, 753120, Note_on_c, 9, 38, 72
1, 753120, Note_on_c, 9, 57, 72
1, 753120, Note_on_c, 9, 44, 72
1, 753360, Note_off_c, 9, 38, 64
1, 753360, Note_off_c, 9, 57, 64
1, 753360, Note_off_c, 9, 44, 64
1, 753360, Note_on_c, 9, 35, 72
1, 753600, Note_off_c, 9, 35, 64
1, 753600, Note_on_c, 9, 35, 72
1, 753600, Note_on_c, 9, 57, 72
1, 753600, Note_on_c, 9, 44, 72
1, 753840, Note_off_c, 9, 35, 64
1, 753840, Note_off_c, 9, 57, 64
1, 753840, Note_off_c, 9, 44, 64
1, 753840, Note_on_c, 9, 35, 72
1, 754080, Note_off_c, 9, 35, 64
1, 754080, Note_on_c, 9, 38, 72
1, 754080, Note_on_c, 9, 57, 72
1, 754080, Note_on_c, 9, 44, 72
1, 754320, Note_off_c, 9, 38, 64
1, 754320, Note_off_c, 9, 57, 64
1, 754320, Note_off_c, 9, 44, 64
1, 754320, Note_on_c, 9, 35, 72
1, 754560, Note_off_c, 9, 35, 64
1, 754560, Note_on_c, 9, 35, 72
1, 754560, Note_on_c, 9, 57, 72
1, 754560, Note_on_c, 9, 44, 72
1, 754800, Note_off_c, 9, 35, 64
1, 754800, Note_off_c, 9, 57, 64
1, 754800, Note_off_c, 9, 44, 64
1, 754800, Note_on_c, 9, 35, 72
1, 755040, Note_off_c, 9, 35, 64
1, 755040, Note_on_c, 9, 38, 72
1, 755040, Note_on_c, 9, 57, 72
1, 755040, Note_on_c, 9, 44, 72
1, 755280, Note_off_c, 9, 38, 64
1, 755280, Note_off_c, 9, 57, 64
1, 755280, Note_off_c, 9, 44, 64
1, 755280, Note_on_c, 9, 35, 72
1, 755520, Note_off_c, 9, 35, 64
1, 755520, Note_on_c, 9, 35, 72
1, 755520, Note_on_c, 9, 57, 72
1, 755520, Note_on_c, 9, 44, 72
1, 755760, Note_off_c, 9, 35, 64
1, 755760, Note_off_c, 9, 57, 64
1, 755760, Note_off_c, 9, 44, 64
1, 755760, Note_on_c, 9, 35, 72
1, 756000, Note_off_c, 9, 35, 64
1, 756000, Note_on_c, 9, 38, 72
1, 756000, Note_on_c, 9, 57, 72
1, 756000, Note_on_c, 9, 44, 72
1, 756240, Note_off_c, 9, 38, 64
1, 756240, Note_off_c, 9, 57, 64
1, 756240, Note_off_c, 9, 44, 64
1, 756240, Note_on_c, 9, 35, 72
1, 756480, Note_off_c, 9, 35, 64
1, 756480, Note_on_c, 9, 35, 72
1, 756480, Note_on_c, 9, 44, 72
1, 756720, Note_off_c, 9, 35, 64
1, 756720, Note_off_c, 9, 44, 64
1, 756720, Note_on_c, 9, 35, 72
1, 756960, Note_off_c, 9, 35, 64
1, 756960, Note_on_c, 9, 38, 72
1, 756960, Note_on_c, 9, 44, 72
1, 757200, Note_off_c, 9, 38, 64
1, 757200, Note_off_c, 9, 44, 64
1, 757200, Note_on_c, 9, 35, 72
1, 757440, Note_off_c, 9, 35, 64
1, 757440, Note_on_c, 9, 35, 72
1, 757440, Note_on_c, 9, 44, 72
1, 757680, Note_off_c, 9, 35, 64
1, 757680, Note_off_c, 9, 44, 64
1, 757680, Note_on_c, 9, 35, 72
1, 757920, Note_off_c, 9, 35, 64
1, 757920, Note_on_c, 9, 38, 72
1, 757920, Note_on_c, 9, 44, 72
1, 758160, Note_off_c, 9, 38, 64
1, 758160, Note_off_c, 9, 44, 64
1, 758160, Note_on_c, 9, 35, 72
1, 758400, Note_off_c, 9, 35, 64
1, 758400, Note_on_c, 9, 35, 72
1, 758400, Note_on_c, 9, 44, 72
1, 758640, Note_off_c, 9, 35, 64
1, 758640, Note_off_c, 9, 44, 64
1, 758640, Note_on_c, 9, 35, 72
1, 758880, Note_off_c, 9, 35, 64
1, 758880, Note_on_c, 9, 38, 72
1, 758880, Note_on_c, 9, 44, 72
1, 759120, Note_off_c, 9, 38, 64
1, 759120, Note_off_c, 9, 44, 64
1, 759120, Note_on_c, 9, 35, 72
1, 759360, Note_off_c, 9, 35, 64
1, 759360, Note_on_c, 9, 35, 72
1, 759360, Note_on_c, 9, 44, 72
1, 759600, Note_off_c, 9, 35, 64
1, 759600, Note_off_c, 9, 44, 64
1, 759600, Note_on_c, 9, 35, 72
1, 759840, Note_off_c, 9, 35, 64
1, 759840, Note_on_c, 9, 38, 72
1, 759840, Note_on_c, 9, 44, 72
1, 760080, Note_off_c, 9, 38, 64
1, 760080, Note_off_c, 9, 44, 64
1, 760080, Note_on_c, 9, 35, 72
1, 760320, Note_off_c, 9, 35, 64
1, 760320, Note_on_c, 9, 35, 72
1, 760320, Note_on_c, 9, 57, 72
1, 760320, Note_on_c, 9, 44, 72
1, 760560, Note_off_c, 9, 35, 64
1, 760560, Note_off_c, 9, 57, 64
1, 760560, Note_off_c, 9, 44, 64
1, 760560, Note_on_c, 9, 35, 72
1, 760800, Note_off_c, 9, 35, 64
1, 760800, Note_on_c, 9, 38, 72
1, 760800, Note_on_c, 9, 57, 72
1, 760800, Note_on_c, 9, 44, 72
1, 761040, Note_off_c, 9, 38, 64
1, 761040, Note_off_c, 9, 57, 64
1, 761040, Note_off_c, 9, 44, 64
1, 761040, Note_on_c, 9, 35, 72
1, 761280, Note_off_c, 9, 35, 64
1, 761280, Note_on_c, 9, 35, 72
1, 761280, Note_on_c, 9, 57, 72
1, 761280, Note_on_c, 9, 44, 72
1, 761520, Note_off_c, 9, 35, 64
1, 761520, Note_off_c, 9, 57, 64
1, 761520, Note_off_c, 9, 44, 64
1, 761520, Note_on_c, 9, 35, 72
1, 761760, Note_off_c, 9, 35, 64
1, 761760, Note_on_c, 9, 38, 72
1, 761760, Note_on_c, 9, 57, 72
1, 761760, Note_on_c, 9, 44, 72
1, 762000, Note_off_c, 9, 38, 64
1, 762000, Note_off_c, 9, 57, 64
1, 762000, Note_off_c, 9, 44, 64
1, 762000, Note_on_c, 9, 35, 72
1, 762240, Note_off_c, 9, 35, 64
1, 762240, Note_on_c, 9, 35, 72
1, 762240, Note_on_c, 9, 57, 72
1, 762240, Note_on_c, 9, 44, 72
1, 762480, Note_off_c, 9, 35, 64
1, 762480, Note_off_c, 9, 57, 64
1, 762480, Note_off_c, 9, 44, 64
1, 762480, Note_on_c, 9, 35, 72
1, 762720, Note_off_c, 9, 35, 64
1, 762720, Note_on_c, 9, 38, 72
1, 762720, Note_on_c, 9, 57, 72
1, 762720, Note_on_c, 9, 44, 72
1, 762960, Note_off_c, 9, 38, 64
1, 762960, Note_off_c, 9, 57, 64
1, 762960, Note_off_c, 9, 44, 64
1, 762960, Note_on_c, 9, 35, 72
1, 763200, Note_off_c, 9, 35, 64
1, 763200, Note_on_c, 9, 35, 72
1, 763200, Note_on_c, 9, 57, 72
1, 763200, Note_on_c, 9, 44, 72
1, 763440, Note_off_c, 9, 35, 64
1, 763440, Note_off_c, 9, 57, 64
1, 763440, Note_off_c, 9, 44, 64
1, 763440, Note_on_c, 9, 35, 72
1, 763680, Note_off_c, 9, 35, 64
1, 763680, Note_on_c, 9, 38, 72
1, 763680, Note_on_c, 9, 57, 72
1, 763680, Note_on_c, 9, 44, 72
1, 763920, Note_off_c, 9, 38, 64
1, 763920, Note_off_c, 9, 57, 64
1, 763920, Note_off_c, 9, 44, 64
1, 763920, Note_on_c, 9, 35, 72
1, 764160, Note_off_c, 9, 35, 64
1, 764160, Note_on_c, 9, 35, 72
1, 764160, Note_on_c, 9, 44, 72
1, 764400, Note_off_c, 9, 35, 64
1, 764400, Note_off_c, 9, 44, 64
1, 764400, Note_on_c, 9, 35, 72
1, 764640, Note_off_c, 9, 35, 64
1, 764640, Note_on_c, 9, 38, 72
1, 764640, Note_on_c, 9, 44, 72
1, 764880, Note_off_c, 9, 38, 64
1, 764880, Note_off_c, 9, 44, 64
1, 764880, Note_on_c, 9, 35, 72
1, 765120, Note_off_c, 9, 35, 64
1, 765120, Note_on_c, 9, 35, 72
1, 765120, Note_on_c, 9, 44, 72
1, 765360, Note_off_c, 9, 35, 64
1, 765360, Note_off_c, 9, 44, 64
1, 765360, Note_on_c, 9, 35, 72
1, 765600, Note_off_c, 9, 35, 64
1, 765600, Note_on_c, 9, 38, 72
1, 765600, Note_on_c, 9, 44, 72
1, 765840, Note_off_c, 9, 38, 64
1, 765840, Note_off_c, 9, 44, 64
1, 765840, Note_on_c, 9, 35, 72
1, 766080, Note_off_c, 9, 35, 64
1, 766080, Note_on_c, 9, 35, 72
1, 766080, Note_on_c, 9, 44, 72
1, 766320, Note_off_c, 9, 35, 64
1, 766320, Note_off_c, 9, 44, 64
1, 766320, Note_on_c, 9, 35, 72
1, 766560, Note_off_c, 9, 35, 64
1, 766560, Note_on_c, 9, 38, 72
1, 766560, Note_on_c, 9, 44, 72
1, 766800, Note_off_c, 9, 38, 64
1, 766800, Note_off_c, 9, 44, 64
1, 766800, Note_on_c, 9, 35, 72
1, 767040, Note_off_c, 9, 35, 64
1, 767040, Note_on_c, 9, 35, 72
1, 767040, Note_on_c, 9, 44, 72
1, 767280, Note_off_c, 9, 35, 64
1, 767280, Note_off_c, 9, 44, 64
1, 767280, Note_on_c, 9, 35, 72
1, 767520, Note_off_c, 9, 35, 64
1, 767520, Note_on_c, 9, 38, 72
1, 767520, Note_on_c, 9, 44, 72
1, 767760, Note_off_c, 9, 38, 64
1, 767760, Note_off_c, 9, 44, 64
1, 767760, Note_on_c, 9, 35, 72
1, 768000, Note_off_c, 9, 35, 64
1, 768000, Note_on_c, 9, 35, 72
1, 768000, Note_on_c, 9, 57, 72
1, 768000, Note_on_c, 9, 44, 72
1, 768240, Note_off_c, 9, 35, 64
1, 768240, Note_off_c, 9, 57, 64
1, 768240, Note_off_c, 9, 44, 64
1, 768240, Note_on_c, 9, 35, 72
1, 768480, Note_off_c, 9, 35, 64
1, 768480, Note_on_c, 9, 38, 72
1, 768480, Note_on_c, 9, 57, 72
1, 768480, Note_on_c, 9, 44, 72
1, 768720, Note_off_c, 9, 38, 64
1, 768720, Note_off_c, 9, 57, 64
1, 768720, Note_off_c, 9, 44, 64
1, 768720, Note_on_c, 9, 35, 72
1, 768960, Note_off_c, 9, 35, 64
1, 768960, Note_on_c, 9, 35, 72
1, 768960, Note_on_c, 9, 57, 72
1, 768960, Note_on_c, 9, 44, 72
1, 769200, Note_off_c, 9, 35, 64
1, 769200, Note_off_c, 9, 57, 64
1, 769200, Note_off_c, 9, 44, 64
1, 769200, Note_on_c, 9, 35, 72
1, 769440, Note_off_c, 9, 35, 64
1, 769440, Note_on_c, 9, 38, 72
1, 769440, Note_on_c, 9, 57, 72
1, 769440, Note_on_c, 9, 44, 72
1, 769680, Note_off_c, 9, 38, 64
1, 769680, Note_off_c, 9, 57, 64
1, 769680, Note_off_c, 9, 44, 64
1, 769680, Note_on_c, 9, 35, 72
1, 769920, Note_off_c, 9, 35, 64
1, 769920, Note_on_c, 9, 35, 72
1, 769920, Note_on_c, 9, 57, 72
1, 769920, Note_on_c, 9, 44, 72
1, 770160, Note_off_c, 9, 35, 64
1, 770160, Note_off_c, 9, 57, 64
1, 770160, Note_off_c, 9, 44, 64
1, 770160, Note_on_c, 9, 35, 72
1, 770400, Note_off_c, 9, 35, 64
1, 770400, Note_on_c, 9, 38, 72
1, 770400, Note_on_c, 9, 57, 72
1, 770400, Note_on_c, 9, 44, 72
1, 770640, Note_off_c, 9, 38, 64
1, 770640, Note_off_c, 9, 57, 64
1, 770640, Note_off_c, 9, 44, 64
1, 770640, Note_on_c, 9, 35, 72
1, 770880, Note_off_c, 9, 35, 64
1, 770880, Note_on_c, 9, 35, 72
1, 770880, Note_on_c, 9, 57, 72
1, 770880, Note_on_c, 9, 44, 72
1, 771120, Note_off_c, 9, 35, 64
1, 771120, Note_off_c, 9, 57, 64
1, 771120, Note_off_c, 9, 44, 64
1, 771120, Note_on_c, 9, 35, 72
1, 771360, Note_off_c, 9, 35, 64
1, 771360, Note_on_c, 9, 38, 72
1, 771360, Note_on_c, 9, 57, 72
1, 771360, Note_on_c, 9, 44, 72
1, 771600, Note_off_c, 9, 38, 64
1, 771600, Note_off_c, 9, 57, 64
1, 771600, Note_off_c, 9, 44, 64
1, 771600, Note_on_c, 9, 35, 72
1, 771840, Note_off_c, 9, 35, 64
1, 771840, Note_on_c, 9, 35, 72
1, 771840, Note_on_c, 9, 44, 72
1, 772080, Note_off_c, 9, 35, 64
1, 772080, Note_off_c, 9, 44, 64
1, 772080, Note_on_c, 9, 35, 72
1, 772320, Note_off_c, 9, 35, 64
1, 772320, Note_on_c, 9, 38, 72
1, 772320, Note_on_c, 9, 44, 72
1, 772560, Note_off_c, 9, 38, 64
1, 772560, Note_off_c, 9, 44, 64
1, 772560, Note_on_c, 9, 35, 72
1, 772800, Note_off_c, 9, 35, 64
1, 772800, Note_on_c, 9, 35, 72
1, 772800, Note_on_c, 9, 44, 72
1, 773040, Note_off_c, 9, 35, 64
1, 773040, Note_off_c, 9, 44, 64
1, 773040, Note_on_c, 9, 35, 72
1, 773280, Note_off_c, 9, 35, 64
1, 773280, Note_on_c, 9, 38, 72
1, 773280, Note_on_c, 9, 44, 72
1, 773520, Note_off_c, 9, 38, 64
1, 773520, Note_off_c, 9, 44, 64
1, 773520, Note_on_c, 9, 35, 72
1, 773760, Note_off_c, 9, 35, 64
1, 773760, Note_on_c, 9, 35, 72
1, 773760, Note_on_c, 9, 44, 72
1, 774000, Note_off_c, 9, 35, 64
1, 774000, Note_off_c, 9, 44, 64
1, 774000, Note_on_c, 9, 35, 72
1, 774240, Note_off_c, 9, 35, 64
1, 774240, Note_on_c, 9, 38, 72
1, 774240, Note_on_c, 9, 44, 72
1, 774480, Note_off_c, 9, 38, 64
1, 774480, Note_off_c, 9, 44, 64
1, 774480, Note_on_c, 9, 35, 72
1, 774720, Note_off_c, 9, 35, 64
1, 774720, Note_on_c, 9, 35, 72
1, 774720, Note_on_c, 9, 44, 72
1, 774960, Note_off_c, 9, 35, 64
1, 774960, Note_off_c, 9, 44, 64
1, 774960, Note_on_c, 9, 35, 72
1, 775200, Note_off_c, 9, 35, 64
1, 775200, Note_on_c, 9, 38, 72
1, 775200, Note_on_c, 9, 44, 72
1, 775440, Note_off_c, 9, 38, 64
1, 775440, Note_off_c, 9, 44, 64
1, 775440, Note_on_c, 9, 35, 72
1, 775680, Note_off_c, 9, 35, 64
1, 775680, Note_on_c, 9, 35, 72
1, 775680, Note_on_c, 9, 57, 72
1, 775680, Note_on_c, 9, 44, 72
1, 775920, Note_off_c, 9, 35, 64
1, 775920, Note_off_c, 9, 57, 64
1, 775920, Note_off_c, 9, 44, 64
1, 775920, Note_on_c, 9, 35, 72
1, 776160, Note_off_c, 9, 35, 64
1, 776160, Note_on_c, 9, 38, 72
1, 776160, Note_on_c, 9, 57, 72
1, 776160, Note_on_c, 9, 44, 72
1, 776400, Note_off_c, 9, 38, 64
1, 776400, Note_off_c, 9, 57, 64
1, 776400, Note_off_c, 9, 44, 64
1, 776400, Note_on_c, 9, 35, 72
1, 776640, Note_off_c, 9, 35, 64
1, 776640, Note_on_c, 9, 35, 72
1, 776640, Note_on_c, 9, 57, 72
1, 776640, Note_on_c, 9, 44, 72
1, 776880, Note_off_c, 9, 35, 64
1, 776880, Note_off_c, 9, 57, 64
1, 776880, Note_off_c, 9, 44, 64
1, 776880, Note_on_c, 9, 35, 72
1, 777120, Note_off_c, 9, 35, 64
1, 777120, Note_on_c, 9, 38, 72
1, 777120, Note_on_c, 9, 57, 72
1, 777120, Note_on_c, 9, 44, 72
1, 777360, Note_off_c, 9, 38, 64
1, 777360, Note_off_c, 9, 57, 64
1, 777360, Note_off_c, 9, 44, 64
1, 777360, Note_on_c, 9, 35, 72
1, 777600, Note_off_c, 9, 35, 64
1, 777600, Note_on_c, 9, 35, 72
1, 777600, Note_on_c, 9, 57, 72
1, 777600, Note_on_c, 9, 44, 72
1, 777840, Note_off_c, 9, 35, 64
1, 777840, Note_off_c, 9, 57, 64
1, 777840, Note_off_c, 9, 44, 64
1, 777840, Note_on_c, 9, 35, 72
1, 778080, Note_off_c, 9, 35, 64
1, 778080, Note_on_c, 9, 38, 72
1, 778080, Note_on_c, 9, 57, 72
1, 778080, Note_on_c, 9, 44, 72
1, 778320, Note_off_c, 9, 38, 64
1, 778320, Note_off_c, 9, 57, 64
1, 778320, Note_off_c, 9, 44, 64
1, 778320, Note_on_c, 9, 35, 72
1, 778560, Note_off_c, 9, 35, 64
1, 778560, Note_on_c, 9, 35, 72
1, 778560, Note_on_c, 9, 57, 72
1, 778560, Note_on_c, 9, 44, 72
1, 778800, Note_off_c, 9, 35, 64
1, 778800, Note_off_c, 9, 57, 64
1, 778800, Note_off_c, 9, 44, 64
1, 778800, Note_on_c, 9, 35, 72
1, 779040, Note_off_c, 9, 35, 64
1, 779040, Note_on_c, 9, 38, 72
1, 779040, Note_on_c, 9, 57, 72
1, 779040, Note_on_c, 9, 44, 72
1, 779280, Note_off_c, 9, 38, 64
1, 779280, Note_off_c, 9, 57, 64
1, 779280, Note_off_c, 9, 44, 64
1, 779280, Note_on_c, 9, 35, 72
1, 779520, Note_off_c, 9, 35, 64
1, 779520, Note_on_c, 9, 35, 72
1, 779520, Note_on_c, 9, 44, 72
1, 779760, Note_off_c, 9, 35, 64
1, 779760, Note_off_c, 9, 44, 64
1, 779760, Note_on_c, 9, 35, 72
1, 780000, Note_off_c, 9, 35, 64
1, 780000, Note_on_c, 9, 38, 72
1, 780000, Note_on_c, 9, 44, 72
1, 780240, Note_off_c, 9, 38, 64
1, 780240, Note_off_c, 9, 44, 64
1, 780240, Note_on_c, 9, 35, 72
1, 780480, Note_off_c, 9, 35, 64
1, 780480, Note_on_c, 9, 35, 72
1, 780480, Note_on_c, 9, 44, 72
1, 780720, Note_off_c, 9, 35, 64
1, 780720, Note_off_c, 9, 44, 64
1, 780720, Note_on_c, 9, 35, 72
1, 780960, Note_off_c, 9, 35, 64
1, 780960, Note_on_c, 9, 38, 72
1, 780960, Note_on_c, 9, 44, 72
1, 781200, Note_off_c, 9, 38, 64
1, 781200, Note_off_c, 9, 44, 64
1, 781200, Note_on_c, 9, 35, 72
1, 781440, Note_off_c, 9, 35, 64
1, 781440, Note_on_c, 9, 35, 72
1, 781440, Note_on_c, 9, 44, 72
1, 781680, Note_off_c, 9, 35, 64
1, 781680, Note_off_c, 9, 44, 64
1, 781680, Note_on_c, 9, 35, 72
1, 781920, Note_off_c, 9, 35, 64
1, 781920, Note_on_c, 9, 38, 72
1, 781920, Note_on_c, 9, 44, 72
1, 782160, Note_off_c, 9, 38, 64
1, 782160, Note_off_c, 9, 44, 64
1, 782160, Note_on_c, 9, 35, 72
1, 782400, Note_off_c, 9, 35, 64
1, 782400, Note_on_c, 9, 35, 72
1, 782400, Note_on_c, 9, 44, 72
1, 782640, Note_off_c, 9, 35, 64
1, 782640, Note_off_c, 9, 44, 64
1, 782640, Note_on_c, 9, 35, 72
1, 782880, Note_off_c, 9, 35, 64
1, 782880, Note_on_c, 9, 38, 72
1, 782880, Note_on_c, 9, 44, 72
1, 783120, Note_off_c, 9, 38, 64
1, 783120, Note_off_c, 9, 44, 64
1, 783120, Note_on_c, 9, 35, 72
1, 783360, Note_off_c, 9, 35, 64
1, 783360, Note_on_c, 9, 35, 72
1, 783360, Note_on_c, 9, 57, 72
1, 783360, Note_on_c, 9, 44, 72
1, 783600, Note_off_c, 9, 35, 64
1, 783600, Note_off_c, 9, 57, 64
1, 783600, Note_off_c, 9, 44, 64
1, 783600, Note_on_c, 9, 35, 72
1, 783840, Note_off_c, 9, 35, 64
1, 783840, Note_on_c, 9, 38, 72
1, 783840, Note_on_c, 9, 57, 72
1, 783840, Note_on_c, 9, 44, 72
1, 784080, Note_off_c, 9, 38, 64
1, 784080, Note_off_c, 9, 57, 64
1, 784080, Note_off_c, 9, 44, 64
1, 784080, Note_on_c, 9, 35, 72
1, 784320, Note_off_c, 9, 35, 64
1, 784320, Note_on_c, 9, 35, 72
1, 784320, Note_on_c, 9, 57, 72
1, 784320, Note_on_c, 9, 44, 72
1, 784560, Note_off_c, 9, 35, 64
1, 784560, Note_off_c, 9, 57, 64
1, 784560, Note_off_c, 9, 44, 64
1, 784560, Note_on_c, 9, 35, 72
1, 784800, Note_off_c, 9, 35, 64
1, 784800, Note_on_c, 9, 38, 72
1, 784800, Note_on_c, 9, 57, 72
1, 784800, Note_on_c, 9, 44, 72
1, 785040, Note_off_c, 9, 38, 64
1, 785040, Note_off_c, 9, 57, 64
1, 785040, Note_off_c, 9, 44, 64
1, 785040, Note_on_c, 9, 35, 72
1, 785280, Note_off_c, 9, 35, 64
1, 785280, Note_on_c, 9, 35, 72
1, 785280, Note_on_c, 9, 57, 72
1, 785280, Note_on_c, 9, 44, 72
1, 785520, Note_off_c, 9, 35, 64
1, 785520, Note_off_c, 9, 57, 64
1, 785520, Note_off_c, 9, 44, 64
1, 785520, Note_on_c, 9, 35, 72
1, 785760, Note_off_c, 9, 35, 64
1, 785760, Note_on_c, 9, 38, 72
1, 785760, Note_on_c, 9, 57, 72
1, 785760, Note_on_c, 9, 44, 72
1, 786000, Note_off_c, 9, 38, 64
1, 786000, Note_off_c, 9, 57, 64
1, 786000, Note_off_c, 9, 44, 64
1, 786000, Note_on_c, 9, 35, 72
1, 786240, Note_off_c, 9, 35, 64
1, 786240, Note_on_c, 9, 35, 72
1, 786240, Note_on_c, 9, 57, 72
1, 786240, Note_on_c, 9, 44, 72
1, 786480, Note_off_c, 9, 35, 64
1, 786480, Note_off_c, 9, 57, 64
1, 786480, Note_off_c, 9, 44, 64
1, 786480, Note_on_c, 9, 35, 72
1, 786720, Note_off_c, 9, 35, 64
1, 786720, Note_on_c, 9, 38, 72
1, 786720, Note_on_c, 9, 57, 72
1, 786720, Note_on_c, 9, 44, 72
1, 786960, Note_off_c, 9, 38, 64
1, 786960, Note_off_c, 9, 57, 64
1, 786960, Note_off_c, 9, 44, 64
1, 786960, Note_on_c, 9, 35, 72
1, 787200, Note_off_c, 9, 35, 64
1, 787200, Note_on_c, 9, 35, 72
1, 787200, Note_on_c, 9, 44, 72
1, 787440, Note_off_c, 9, 35, 64
1, 787440, Note_off_c, 9, 44, 64
1, 787440, Note_on_c, 9, 35, 72
1, 787680, Note_off_c, 9, 35, 64
1, 787680, Note_on_c, 9, 38, 72
1, 787680, Note_on_c, 9, 44, 72
1, 787920, Note_off_c, 9, 38, 64
1, 787920, Note_off_c, 9, 44, 64
1, 787920, Note_on_c, 9, 35, 72
1, 788160, Note_off_c, 9, 35, 64
1, 788160, Note_on_c, 9, 35, 72
1, 788160, Note_on_c, 9, 44, 72
1, 788400, Note_off_c, 9, 35, 64
1, 788400, Note_off_c, 9, 44, 64
1, 788400, Note_on_c, 9, 35, 72
1, 788640, Note_off_c, 9, 35, 64
1, 788640, Note_on_c, 9, 38, 72
1, 788640, Note_on_c, 9, 44, 72
1, 788880, Note_off_c, 9, 38, 64
1, 788880, Note_off_c, 9, 44, 64
1, 788880, Note_on_c, 9, 35, 72
1, 789120, Note_off_c, 9, 35, 64
1, 789120, Note_on_c, 9, 35, 72
1, 789120, Note_on_c, 9, 44, 72
1, 789360, Note_off_c, 9, 35, 64
1, 789360, Note_off_c, 9, 44, 64
1, 789360, Note_on_c, 9, 35, 72
1, 789600, Note_off_c, 9, 35, 64
1, 789600, Note_on_c, 9, 38, 72
1, 789600, Note_on_c, 9, 44, 72
1, 789840, Note_off_c, 9, 38, 64
1, 789840, Note_off_c, 9, 44, 64
1, 789840, Note_on_c, 9, 35, 72
1, 790080, Note_off_c, 9, 35, 64
1, 790080, Note_on_c, 9, 35, 72
1, 790080, Note_on_c, 9, 44, 72
1, 790320, Note_off_c, 9, 35, 64
1, 790320, Note_off_c, 9, 44, 64
1, 790320, Note_on_c, 9, 35, 72
1, 790560, Note_off_c, 9, 35, 64
1, 790560, Note_on_c, 9, 38, 72
1, 790560, Note_on_c, 9, 44, 72
1, 790800, Note_off_c, 9, 38, 64
1, 790800, Note_off_c, 9, 44, 64
1, 790800, Note_on_c, 9, 35, 72
1, 791040, Note_off_c, 9, 35, 64
1, 791040, Note_on_c, 9, 35, 72
1, 791040, Note_on_c, 9, 57, 72
1, 791040, Note_on_c, 9, 44, 72
1, 791280, Note_off_c, 9, 35, 64
1, 791280, Note_off_c, 9, 57, 64
1, 791280, Note_off_c, 9, 44, 64
1, 791280, Note_on_c, 9, 35, 72
1, 791520, Note_off_c, 9, 35, 64
1, 791520, Note_on_c, 9, 38, 72
1, 791520, Note_on_c, 9, 57, 72
1, 791520, Note_on_c, 9, 44, 72
1, 791760, Note_off_c, 9, 38, 64
1, 791760, Note_off_c, 9, 57, 64
1, 791760, Note_off_c, 9, 44, 64
1, 791760, Note_on_c, 9, 35, 72
1, 792000, Note_off_c, 9, 35, 64
1, 792000, Note_on_c, 9, 35, 72
1, 792000, Note_on_c, 9, 57, 72
1, 792000, Note_on_c, 9, 44, 72
1, 792240, Note_off_c, 9, 35, 64
1, 792240, Note_off_c, 9, 57, 64
1, 792240, Note_off_c, 9, 44, 64
1, 792240, Note_on_c, 9, 35, 72
1, 792480, Note_off_c, 9, 35, 64
1, 792480, Note_on_c, 9, 38, 72
1, 792480, Note_on_c, 9, 57, 72
1, 792480, Note_on_c, 9, 44, 72
1, 792720, Note_off_c, 9, 38, 64
1, 792720, Note_off_c, 9, 57, 64
1, 792720, Note_off_c, 9, 44, 64
1, 792720, Note_on_c, 9, 35, 72
1, 792960, Note_off_c, 9, 35, 64
1, 792960, Note_on_c, 9, 35, 72
1, 792960, Note_on_c, 9, 57, 72
1, 792960, Note_on_c, 9, 44, 72
1, 793200, Note_off_c, 9, 35, 64
1, 793200, Note_off_c, 9, 57, 64
1, 793200, Note_off_c, 9, 44, 64
1, 793200, Note_on_c, 9, 35, 72
1, 793440, Note_off_c, 9, 35, 64
1, 793440, Note_on_c, 9, 38, 72
1, 793440, Note_on_c, 9, 57, 72
1, 793440, Note_on_c, 9, 44, 72
1, 793680, Note_off_c, 9, 38, 64
1, 793680, Note_off_c, 9, 57, 64
1, 793680, Note_off_c, 9, 44, 64
1, 793680, Note_on_c, 9, 35, 72
1, 793920, Note_off_c, 9, 35, 64
1, 793920, Note_on_c, 9, 35, 72
1, 793920, Note_on_c, 9, 57, 72
1, 793920, Note_on_c, 9, 44, 72
1, 794160, Note_off_c, 9, 35, 64
1, 794160, Note_off_c, 9, 57, 64
1, 794160, Note_off_c, 9, 44, 64
1, 794160, Note_on_c, 9, 35, 72
1, 794400, Note_off_c, 9, 35, 64
1, 794400, Note_on_c, 9, 38, 72
1, 794400, Note_on_c, 9, 57, 72
1, 794400, Note_on_c, 9, 44, 72
1, 794640, Note_off_c, 9, 38, 64
1, 794640, Note_off_c, 9, 57, 64
1, 794640, Note_off_c, 9, 44, 64
1, 794640, Note_on_c, 9, 35, 72
1, 794880, Note_off_c, 9, 35, 64
1, 794880, Note_on_c, 9, 35, 72
1, 794880, Note_on_c, 9, 44, 72
1, 795120, Note_off_c, 9, 35, 64
1, 795120, Note_off_c, 9, 44, 64
1, 795120, Note_on_c, 9, 35, 72
1, 795360, Note_off_c, 9, 35, 64
1, 795360, Note_on_c, 9, 38, 72
1, 795360, Note_on_c, 9, 44, 72
1, 795600, Note_off_c, 9, 38, 64
1, 795600, Note_off_c, 9, 44, 64
1, 795600, Note_on_c, 9, 35, 72
1, 795840, Note_off_c, 9, 35, 64
1, 795840, Note_on_c, 9, 35, 72
1, 795840, Note_on_c, 9, 44, 72
1, 796080, Note_off_c, 9, 35, 64
1, 796080, Note_off_c, 9, 44, 64
1, 796080, Note_on_c, 9, 35, 72
1, 796320, Note_off_c, 9, 35, 64
1, 796320, Note_on_c, 9, 38, 72
1, 796320, Note_on_c, 9, 44, 72
1, 796560, Note_off_c, 9, 38, 64
1, 796560, Note_off_c, 9, 44, 64
1, 796560, Note_on_c, 9, 35, 72
1, 796800, Note_off_c, 9, 35, 64
1, 796800, Note_on_c, 9, 35, 72
1, 796800, Note_on_c, 9, 44, 72
1, 797040, Note_off_c, 9, 35, 64
1, 797040, Note_off_c, 9, 44, 64
1, 797040, Note_on_c, 9, 35, 72
1, 797280, Note_off_c, 9, 35, 64
1, 797280, Note_on_c, 9, 38, 72
1, 797280, Note_on_c, 9, 44, 72
1, 797520, Note_off_c, 9, 38, 64
1, 797520, Note_off_c, 9, 44, 64
1, 797520, Note_on_c, 9, 35, 72
1, 797760, Note_off_c, 9, 35, 64
1, 797760, Note_on_c, 9, 35, 72
1, 797760, Note_on_c, 9, 44, 72
1, 798000, Note_off_c, 9, 35, 64
1, 798000, Note_off_c, 9, 44, 64
1, 798000, Note_on_c, 9, 35, 72
1, 798240, Note_off_c, 9, 35, 64
1, 798240, Note_on_c, 9, 38, 72
1, 798240, Note_on_c, 9, 44, 72
1, 798480, Note_off_c, 9, 38, 64
1, 798480, Note_off_c, 9, 44, 64
1, 798480, Note_on_c, 9, 35, 72
1, 798720, Note_off_c, 9, 35, 64
1, 798720, Note_on_c, 9, 35, 72
1, 798720, Note_on_c, 9, 57, 72
1, 798720, Note_on_c, 9, 44, 72
1, 798960, Note_off_c, 9, 35, 64
1, 798960, Note_off_c, 9, 57, 64
1, 798960, Note_off_c, 9, 44, 64
1, 798960, Note_on_c, 9, 35, 72
1, 799200, Note_off_c, 9, 35, 64
1, 799200, Note_on_c, 9, 38, 72
1, 799200, Note_on_c, 9, 57, 72
1, 799200, Note_on_c, 9, 44, 72
1, 799440, Note_off_c, 9, 38, 64
1, 799440, Note_off_c, 9, 57, 64
1, 799440, Note_off_c, 9, 44, 64
1, 799440, Note_on_c, 9, 35, 72
1, 799680, Note_off_c, 9, 35, 64
1, 799680, Note_on_c, 9, 35, 72
1, 799680, Note_on_c, 9, 57, 72
1, 799680, Note_on_c, 9, 44, 72
1, 799920, Note_off_c, 9, 35, 64
1, 799920, Note_off_c, 9, 57, 64
1, 799920, Note_off_c, 9, 44, 64
1, 799920, Note_on_c, 9, 35, 72
1, 800160, Note_off_c, 9, 35, 64
1, 800160, Note_on_c, 9, 38, 72
1, 800160, Note_on_c, 9, 57, 72
1, 800160, Note_on_c, 9, 44, 72
1, 800400, Note_off_c, 9, 38, 64
1, 800400, Note_off_c, 9, 57, 64
1, 800400, Note_off_c, 9, 44, 64
1, 800400, Note_on_c, 9, 35, 72
1, 800640, Note_off_c, 9, 35, 64
1, 800640, Note_on_c, 9, 35, 72
1, 800640, Note_on_c, 9, 57, 72
1, 800640, Note_on_c, 9, 44, 72
1, 800880, Note_off_c, 9, 35, 64
1, 800880, Note_off_c, 9, 57, 64
1, 800880, Note_off_c, 9, 44, 64
1, 800880, Note_on_c, 9, 35, 72
1, 801120, Note_off_c, 9, 35, 64
1, 801120, Note_on_c, 9, 38, 72
1, 801120, Note_on_c, 9, 57, 72
1, 801120, Note_on_c, 9, 44, 72
1, 801360, Note_off_c, 9, 38, 64
1, 801360, Note_off_c, 9, 57, 64
1, 801360, Note_off_c, 9, 44, 64
1, 801360, Note_on_c, 9, 35, 72
1, 801600, Note_off_c, 9, 35, 64
1, 801600, Note_on_c, 9, 35, 72
1, 801600, Note_on_c, 9, 57, 72
1, 801600, Note_on_c, 9, 44, 72
1, 801840, Note_off_c, 9, 35, 64
1, 801840, Note_off_c, 9, 57, 64
1, 801840, Note_off_c, 9, 44, 64
1, 801840, Note_on_c, 9, 35, 72
1, 802080, Note_off_c, 9, 35, 64
1, 802080, Note_on_c, 9, 38, 72
1, 802080, Note_on_c, 9, 57, 72
1, 802080, Note_on_c, 9, 44, 72
1, 802320, Note_off_c, 9, 38, 64
1, 802320, Note_off_c, 9, 57, 64
1, 802320, Note_off_c, 9, 44, 64
1, 802320, Note_on_c, 9, 35, 72
1, 802560, Note_off_c, 9, 35, 64
1, 802560, Note_on_c, 9, 35, 72
1, 802560, Note_on_c, 9, 44, 72
1, 802800, Note_off_c, 9, 35, 64
1, 802800, Note_off_c, 9, 44, 64
1, 802800, Note_on_c, 9, 35, 72
1, 803040, Note_off_c, 9, 35, 64
1, 803040, Note_on_c, 9, 38, 72
1, 803040, Note_on_c, 9, 44, 72
1, 803280, Note_off_c, 9, 38, 64
1, 803280, Note_off_c, 9, 44, 64
1, 803280, Note_on_c, 9, 35, 72
1, 803520, Note_off_c, 9, 35, 64
1, 803520, Note_on_c, 9, 35, 72
1, 803520, Note_on_c, 9, 44, 72
1, 803760, Note_off_c, 9, 35, 64
1, 803760, Note_off_c, 9, 44, 64
1, 803760, Note_on_c, 9, 35, 72
1, 804000, Note_off_c, 9, 35, 64
1, 804000, Note_on_c, 9, 38, 72
1, 804000, Note_on_c, 9, 44, 72
1, 804240, Note_off_c, 9, 38, 64
1, 804240, Note_off_c, 9, 44, 64
1, 804240, Note_on_c, 9, 35, 72
1, 804480, Note_off_c, 9, 35, 64
1, 804480, Note_on_c, 9, 35, 72
1, 804480, Note_on_c, 9, 44, 72
1, 804720, Note_off_c, 9, 35, 64
1, 804720, Note_off_c, 9, 44, 64
1, 804720, Note_on_c, 9, 35, 72
1, 804960, Note_off_c, 9, 35, 64
1, 804960, Note_on_c, 9, 38, 72
1, 804960, Note_on_c, 9, 44, 72
1, 805200, Note_off_c, 9, 38, 64
1, 805200, Note_off_c, 9, 44, 64
1, 805200, Note_on_c, 9, 35, 72
1, 805440, Note_off_c, 9, 35, 64
1, 805440, Note_on_c, 9, 35, 72
1, 805440, Note_on_c, 9, 44, 72
1, 805680, Note_off_c, 9, 35, 64
1, 805680, Note_off_c, 9, 44, 64
1, 805680, Note_on_c, 9, 35, 72
1, 805920, Note_off_c, 9, 35, 64
1, 805920, Note_on_c, 9, 38, 72
1, 805920, Note_on_c, 9, 44, 72
1, 806160, Note_off_c, 9, 38, 64
1, 806160, Note_off_c, 9, 44, 64
1, 806160, Note_on_c, 9, 35, 72
1, 806400, Note_off_c, 9, 35, 64
1, 806400, Note_on_c, 9, 35, 72
1, 806400, Note_on_c, 9, 57, 72
1, 806400, Note_on_c, 9, 44, 72
1, 806640, Note_off_c, 9, 35, 64
1, 806640, Note_off_c, 9, 57, 64
1, 806640, Note_off_c, 9, 44, 64
1, 806640, Note_on_c, 9, 35, 72
1, 806880, Note_off_c, 9, 35, 64
1, 806880, Note_on_c, 9, 38, 72
1, 806880, Note_on_c, 9, 57, 72
1, 806880, Note_on_c, 9, 44, 72
1, 807120, Note_off_c, 9, 38, 64
1, 807120, Note_off_c, 9, 57, 64
1, 807120, Note_off_c, 9, 44, 64
1, 807120, Note_on_c, 9, 35, 72
1, 807360, Note_off_c, 9, 35, 64
1, 807360, Note_on_c, 9, 35, 72
1, 807360, Note_on_c, 9, 57, 72
1, 807360, Note_on_c, 9, 44, 72
1, 807600, Note_off_c, 9, 35, 64
1, 807600, Note_off_c, 9, 57, 64
1, 807600, Note_off_c, 9, 44, 64
1, 807600, Note_on_c, 9, 35, 72
1, 807840, Note_off_c, 9, 35, 64
1, 807840, Note_on_c, 9, 38, 72
1, 807840, Note_on_c, 9, 57, 72
1, 807840, Note_on_c, 9, 44, 72
1, 808080, Note_off_c, 9, 38, 64
1, 808080, Note_off_c, 9, 57, 64
1, 808080, Note_off_c, 9, 44, 64
1, 808080, Note_on_c, 9, 35, 72
1, 808320, Note_off_c, 9, 35, 64
1, 808320, Note_on_c, 9, 35, 72
1, 808320, Note_on_c, 9, 57, 72
1, 808320, Note_on_c, 9, 44, 72
1, 808560, Note_off_c, 9, 35, 64
1, 808560, Note_off_c, 9, 57, 64
1, 808560, Note_off_c, 9, 44, 64
1, 808560, Note_on_c, 9, 35, 72
1, 808800, Note_off_c, 9, 35, 64
1, 808800, Note_on_c, 9, 38, 72
1, 808800, Note_on_c, 9, 57, 72
1, 808800, Note_on_c, 9, 44, 72
1, 809040, Note_off_c, 9, 38, 64
1, 809040, Note_off_c, 9, 57, 64
1, 809040, Note_off_c, 9, 44, 64
1, 809040, Note_on_c, 9, 35, 72
1, 809280, Note_off_c, 9, 35, 64
1, 809280, Note_on_c, 9, 35, 72
1, 809280, Note_on_c, 9, 57, 72
1, 809280, Note_on_c, 9, 44, 72
1, 809520, Note_off_c, 9, 35, 64
1, 809520, Note_off_c, 9, 57, 64
1, 809520, Note_off_c, 9, 44, 64
1, 809520, Note_on_c, 9, 35, 72
1, 809760, Note_off_c, 9, 35, 64
1, 809760, Note_on_c, 9, 38, 72
1, 809760, Note_on_c, 9, 57, 72
1, 809760, Note_on_c, 9, 44, 72
1, 810000, Note_off_c, 9, 38, 64
1, 810000, Note_off_c, 9, 57, 64
1, 810000, Note_off_c, 9, 44, 64
1, 810000, Note_on_c, 9, 35, 72
1, 810240, Note_off_c, 9, 35, 64
1, 810240, Note_on_c, 9, 35, 72
1, 810240, Note_on_c, 9, 44, 72
1, 810480, Note_off_c, 9, 35, 64
1, 810480, Note_off_c, 9, 44, 64
1, 810480, Note_on_c, 9, 35, 72
1, 810720, Note_off_c, 9, 35, 64
1, 810720, Note_on_c, 9, 38, 72
1, 810720, Note_on_c, 9, 44, 72
1, 810960, Note_off_c, 9, 38, 64
1, 810960, Note_off_c, 9, 44, 64
1, 810960, Note_on_c, 9, 35, 72
1, 811200, Note_off_c, 9, 35, 64
1, 811200, Note_on_c, 9, 35, 72
1, 811200, Note_on_c, 9, 44, 72
1, 811440, Note_off_c, 9, 35, 64
1, 811440, Note_off_c, 9, 44, 64
1, 811440, Note_on_c, 9, 35, 72
1, 811680, Note_off_c, 9, 35, 64
1, 811680, Note_on_c, 9, 38, 72
1, 811680, Note_on_c, 9, 44, 72
1, 811920, Note_off_c, 9, 38, 64
1, 811920, Note_off_c, 9, 44, 64
1, 811920, Note_on_c, 9, 35, 72
1, 812160, Note_off_c, 9, 35, 64
1, 812160, Note_on_c, 9, 35, 72
1, 812160, Note_on_c, 9, 44, 72
1, 812400, Note_off_c, 9, 35, 64
1, 812400, Note_off_c, 9, 44, 64
1, 812400, Note_on_c, 9, 35, 72
1, 812640, Note_off_c, 9, 35, 64
1, 812640, Note_on_c, 9, 38, 72
1, 812640, Note_on_c, 9, 44, 72
1, 812880, Note_off_c, 9, 38, 64
1, 812880, Note_off_c, 9, 44, 64
1, 812880, Note_on_c, 9, 35, 72
1, 813120, Note_off_c, 9, 35, 64
1, 813120, Note_on_c, 9, 35, 72
1, 813120, Note_on_c, 9, 44, 72
1, 813360, Note_off_c, 9, 35, 64
1, 813360, Note_off_c, 9, 44, 64
1, 813360, Note_on_c, 9, 35, 72
1, 813600, Note_off_c, 9, 35, 64
1, 813600, Note_on_c, 9, 38, 72
1, 813600, Note_on_c, 9, 44, 72
1, 813840, Note_off_c, 9, 38, 64
1, 813840, Note_off_c, 9, 44, 64
1, 813840, Note_on_c, 9, 35, 72
1, 814080, Note_off_c, 9, 35, 64
1, 814080, Note_on_c, 9, 35, 72
1, 814080, Note_on_c, 9, 57, 72
1, 814080, Note_on_c, 9, 44, 72
1, 814320, Note_off_c, 9, 35, 64
1, 814320, Note_off_c, 9, 57, 64
1, 814320, Note_off_c, 9, 44, 64
1, 814320, Note_on_c, 9, 35, 72
1, 814560, Note_off_c, 9, 35, 64
1, 814560, Note_on_c, 9, 38, 72
1, 814560, Note_on_c, 9, 57, 72
1, 814560, Note_on_c, 9, 44, 72
1, 814800, Note_off_c, 9, 38, 64
1, 814800, Note_off_c, 9, 57, 64
1, 814800, Note_off_c, 9, 44, 64
1, 814800, Note_on_c, 9, 35, 72
1, 815040, Note_off_c, 9, 35, 64
1, 815040, Note_on_c, 9, 35, 72
1, 815040, Note_on_c, 9, 57, 72
1, 815040, Note_on_c, 9, 44, 72
1, 815280, Note_off_c, 9, 35, 64
1, 815280, Note_off_c, 9, 57, 64
1, 815280, Note_off_c, 9, 44, 64
1, 815280, Note_on_c, 9, 35, 72
1, 815520, Note_off_c, 9, 35, 64
1, 815520, Note_on_c, 9, 38, 72
1, 815520, Note_on_c, 9, 57, 72
1, 815520, Note_on_c, 9, 44, 72
1, 815760, Note_off_c, 9, 38, 64
1, 815760, Note_off_c, 9, 57, 64
1, 815760, Note_off_c, 9, 44, 64
1, 815760, Note_on_c, 9, 35, 72
1, 816000, Note_off_c, 9, 35, 64
1, 816000, Note_on_c, 9, 35, 72
1, 816000, Note_on_c, 9, 57, 72
1, 816000, Note_on_c, 9, 44, 72
1, 816240, Note_off_c, 9, 35, 64
1, 816240, Note_off_c, 9, 57, 64
1, 816240, Note_off_c, 9, 44, 64
1, 816240, Note_on_c, 9, 35, 72
1, 816480, Note_off_c, 9, 35, 64
1, 816480, Note_on_c, 9, 38, 72
1, 816480, Note_on_c, 9, 57, 72
1, 816480, Note_on_c, 9, 44, 72
1, 816720, Note_off_c, 9, 38, 64
1, 816720, Note_off_c, 9, 57, 64
1, 816720, Note_off_c, 9, 44, 64
1, 816720, Note_on_c, 9, 35, 72
1, 816960, Note_off_c, 9, 35, 64
1, 816960, Note_on_c, 9, 35, 72
1, 816960, Note_on_c, 9, 57, 72
1, 816960, Note_on_c, 9, 44, 72
1, 817200, Note_off_c, 9, 35, 64
1, 817200, Note_off_c, 9, 57, 64
1, 817200, Note_off_c, 9, 44, 64
1, 817200, Note_on_c, 9, 35, 72
1, 817440, Note_off_c, 9, 35, 64
1, 817440, Note_on_c, 9, 38, 72
1, 817440, Note_on_c, 9, 57, 72
1, 817440, Note_on_c, 9, 44, 72
1, 817680, Note_off_c, 9, 38, 64
1, 817680, Note_off_c, 9, 57, 64
1, 817680, Note_off_c, 9, 44, 64
1, 817680, Note_on_c, 9, 35, 72
1, 817920, Note_off_c, 9, 35, 64
1, 817920, Note_on_c, 9, 35, 72
1, 817920, Note_on_c, 9, 44, 72
1, 818160, Note_off_c, 9, 35, 64
1, 818160, Note_off_c, 9, 44, 64
1, 818160, Note_on_c, 9, 35, 72
1, 818400, Note_off_c, 9, 35, 64
1, 818400, Note_on_c, 9, 38, 72
1, 818400, Note_on_c, 9, 44, 72
1, 818640, Note_off_c, 9, 38, 64
1, 818640, Note_off_c, 9, 44, 64
1, 818640, Note_on_c, 9, 35, 72
1, 818880, Note_off_c, 9, 35, 64
1, 818880, Note_on_c, 9, 35, 72
1, 818880, Note_on_c, 9, 44, 72
1, 819120, Note_off_c, 9, 35, 64
1, 819120, Note_off_c, 9, 44, 64
1, 819120, Note_on_c, 9, 35, 72
1, 819360, Note_off_c, 9, 35, 64
1, 819360, Note_on_c, 9, 38, 72
1, 819360, Note_on_c, 9, 44, 72
1, 819600, Note_off_c, 9, 38, 64
1, 819600, Note_off_c, 9, 44, 64
1, 819600, Note_on_c, 9, 35, 72
1, 819840, Note_off_c, 9, 35, 64
1, 819840, Note_on_c, 9, 35, 72
1, 819840, Note_on_c, 9, 44, 72
1, 820080, Note_off_c, 9, 35, 64
1, 820080, Note_off_c, 9, 44, 64
1, 820080, Note_on_c, 9, 35, 72
1, 820320, Note_off_c, 9, 35, 64
1, 820320, Note_on_c, 9, 38, 72
1, 820320, Note_on_c, 9, 44, 72
1, 820560, Note_off_c, 9, 38, 64
1, 820560, Note_off_c, 9, 44, 64
1, 820560, Note_on_c, 9, 35, 72
1, 820800, Note_off_c, 9, 35, 64
1, 820800, Note_on_c, 9, 35, 72
1, 820800, Note_on_c, 9, 44, 72
1, 821040, Note_off_c, 9, 35, 64
1, 821040, Note_off_c, 9, 44, 64
1, 821040, Note_on_c, 9, 35, 72
1, 821280, Note_off_c, 9, 35, 64
1, 821280, Note_on_c, 9, 38, 72
1, 821280, Note_on_c, 9, 44, 72
1, 821520, Note_off_c, 9, 38, 64
1, 821520, Note_off_c, 9, 44, 64
1, 821520, Note_on_c, 9, 35, 72
1, 821760, Note_off_c, 9, 35, 64
1, 821760, Note_on_c, 9, 35, 72
1, 821760, Note_on_c, 9, 57, 72
1, 821760, Note_on_c, 9, 44, 72
1, 822000, Note_off_c, 9, 35, 64
1, 822000, Note_off_c, 9, 57, 64
1, 822000, Note_off_c, 9, 44, 64
1, 822000, Note_on_c, 9, 35, 72
1, 822240, Note_off_c, 9, 35, 64
1, 822240, Note_on_c, 9, 38, 72
1, 822240, Note_on_c, 9, 57, 72
1, 822240, Note_on_c, 9, 44, 72
1, 822480, Note_off_c, 9, 38, 64
1, 822480, Note_off_c, 9, 57, 64
1, 822480, Note_off_c, 9, 44, 64
1, 822480, Note_on_c, 9, 35, 72
1, 822720, Note_off_c, 9, 35, 64
1, 822720, Note_on_c, 9, 35, 72
1, 822720, Note_on_c, 9, 57, 72
1, 822720, Note_on_c, 9, 44, 72
1, 822960, Note_off_c, 9, 35, 64
1, 822960, Note_off_c, 9, 57, 64
1, 822960, Note_off_c, 9, 44, 64
1, 822960, Note_on_c, 9, 35, 72
1, 823200, Note_off_c, 9, 35, 64
1, 823200, Note_on_c, 9, 38, 72
1, 823200, Note_on_c, 9, 57, 72
1, 823200, Note_on_c, 9, 44, 72
1, 823440, Note_off_c, 9, 38, 64
1, 823440, Note_off_c, 9, 57, 64
1, 823440, Note_off_c, 9, 44, 64
1, 823440, Note_on_c, 9, 35, 72
1, 823680, Note_off_c, 9, 35, 64
1, 823680, Note_on_c, 9, 35, 72
1, 823680, Note_on_c, 9, 57, 72
1, 823680, Note_on_c, 9, 44, 72
1, 823920, Note_off_c, 9, 35, 64
1, 823920, Note_off_c, 9, 57, 64
1, 823920, Note_off_c, 9, 44, 64
1, 823920, Note_on_c, 9, 35, 72
1, 824160, Note_off_c, 9, 35, 64
1, 824160, Note_on_c, 9, 38, 72
1, 824160, Note_on_c, 9, 57, 72
1, 824160, Note_on_c, 9, 44, 72
1, 824400, Note_off_c, 9, 38, 64
1, 824400, Note_off_c, 9, 57, 64
1, 824400, Note_off_c, 9, 44, 64
1, 824400, Note_on_c, 9, 35, 72
1, 824640, Note_off_c, 9, 35, 64
1, 824640, Note_on_c, 9, 35, 72
1, 824640, Note_on_c, 9, 57, 72
1, 824640, Note_on_c, 9, 44, 72
1, 824880, Note_off_c, 9, 35, 64
1, 824880, Note_off_c, 9, 57, 64
1, 824880, Note_off_c, 9, 44, 64
1, 824880, Note_on_c, 9, 35, 72
1, 825120, Note_off_c, 9, 35, 64
1, 825120, Note_on_c, 9, 38, 72
1, 825120, Note_on_c, 9, 57, 72
1, 825120, Note_on_c, 9, 44, 72
1, 825360, Note_off_c, 9, 38, 64
1, 825360, Note_off_c, 9, 57, 64
1, 825360, Note_off_c, 9, 44, 64
1, 825360, Note_on_c, 9, 35, 72
1, 825600, Note_off_c, 9, 35, 64
1, 825600, Note_on_c, 9, 35, 72
1, 825600, Note_on_c, 9, 44, 72
1, 825840, Note_off_c, 9, 35, 64
1, 825840, Note_off_c, 9, 44, 64
1, 825840, Note_on_c, 9, 35, 72
1, 826080, Note_off_c, 9, 35, 64
1, 826080, Note_on_c, 9, 38, 72
1, 826080, Note_on_c, 9, 44, 72
1, 826320, Note_off_c, 9, 38, 64
1, 826320, Note_off_c, 9, 44, 64
1, 826320, Note_on_c, 9, 35, 72
1, 826560, Note_off_c, 9, 35, 64
1, 826560, Note_on_c, 9, 35, 72
1, 826560, Note_on_c, 9, 44, 72
1, 826800, Note_off_c, 9, 35, 64
1, 826800, Note_off_c, 9, 44, 64
1, 826800, Note_on_c, 9, 35, 72
1, 827040, Note_off_c, 9, 35, 64
1, 827040, Note_on_c, 9, 38, 72
1, 827040, Note_on_c, 9, 44, 72
1, 827280, Note_off_c, 9, 38, 64
1, 827280, Note_off_c, 9, 44, 64
1, 827280, Note_on_c, 9, 35, 72
1, 827520, Note_off_c, 9, 35, 64
1, 827520, Note_on_c, 9, 35, 72
1, 827520, Note_on_c, 9, 44, 72
1, 827760, Note_off_c, 9, 35, 64
1, 827760, Note_off_c, 9, 44, 64
1, 827760, Note_on_c, 9, 35, 72
1, 828000, Note_off_c, 9, 35, 64
1, 828000, Note_on_c, 9, 38, 72
1, 828000, Note_on_c, 9, 44, 72
1, 828240, Note_off_c, 9, 38, 64
1, 828240, Note_off_c, 9, 44, 64
1, 828240, Note_on_c, 9, 35, 72
1, 828480, Note_off_c, 9, 35, 64
1, 828480, Note_on_c, 9, 35, 72
1, 828480, Note_on_c, 9, 44, 72
1, 828720, Note_off_c, 9, 35, 64
1, 828720, Note_off_c, 9, 44, 64
1, 828720, Note_on_c, 9, 35, 72
1, 828960, Note_off_c, 9, 35, 64
1, 828960, Note_on_c, 9, 38, 72
1, 828960, Note_on_c, 9, 44, 72
1, 829200, Note_off_c, 9, 38, 64
1, 829200, Note_off_c, 9, 44, 64
1, 829200, Note_on_c, 9, 35, 72
1, 829440, Note_off_c, 9, 35, 64
1, 829440, Note_on_c, 9, 35, 72
1, 829440, Note_on_c, 9, 57, 72
1, 829440, Note_on_c, 9, 44, 72
1, 829680, Note_off_c, 9, 35, 64
1, 829680, Note_off_c, 9, 57, 64
1, 829680, Note_off_c, 9, 44, 64
1, 829680, Note_on_c, 9, 35, 72
1, 829920, Note_off_c, 9, 35, 64
1, 829920, Note_on_c, 9, 38, 72
1, 829920, Note_on_c, 9, 57, 72
1, 829920, Note_on_c, 9, 44, 72
1, 830160, Note_off_c, 9, 38, 64
1, 830160, Note_off_c, 9, 57, 64
1, 830160, Note_off_c, 9, 44, 64
1, 830160, Note_on_c, 9, 35, 72
1, 830400, Note_off_c, 9, 35, 64
1, 830400, Note_on_c, 9, 35, 72
1, 830400, Note_on_c, 9, 57, 72
1, 830400, Note_on_c, 9, 44, 72
1, 830640, Note_off_c, 9, 35, 64
1, 830640, Note_off_c, 9, 57, 64
1, 830640, Note_off_c, 9, 44, 64
1, 830640, Note_on_c, 9, 35, 72
1, 830880, Note_off_c, 9, 35, 64
1, 830880, Note_on_c, 9, 38, 72
1, 830880, Note_on_c, 9, 57, 72
1, 830880, Note_on_c, 9, 44, 72
1, 831120, Note_off_c, 9, 38, 64
1, 831120, Note_off_c, 9, 57, 64
1, 831120, Note_off_c, 9, 44, 64
1, 831120, Note_on_c, 9, 35, 72
1, 831360, Note_off_c, 9, 35, 64
1, 831360, Note_on_c, 9, 35, 72
1, 831360, Note_on_c, 9, 57, 72
1, 831360, Note_on_c, 9, 44, 72
1, 831600, Note_off_c, 9, 35, 64
1, 831600, Note_off_c, 9, 57, 64
1, 831600, Note_off_c, 9, 44, 64
1, 831600, Note_on_c, 9, 35, 72
1, 831840, Note_off_c, 9, 35, 64
1, 831840, Note_on_c, 9, 38, 72
1, 831840, Note_on_c, 9, 57, 72
1, 831840, Note_on_c, 9, 44, 72
1, 832080, Note_off_c, 9, 38, 64
1, 832080, Note_off_c, 9, 57, 64
1, 832080, Note_off_c, 9, 44, 64
1, 832080, Note_on_c, 9, 35, 72
1, 832320, Note_off_c, 9, 35, 64
1, 832320, Note_on_c, 9, 35, 72
1, 832320, Note_on_c, 9, 57, 72
1, 832320, Note_on_c, 9, 44, 72
1, 832560, Note_off_c, 9, 35, 64
1, 832560, Note_off_c, 9, 57, 64
1, 832560, Note_off_c, 9, 44, 64
1, 832560, Note_on_c, 9, 35, 72
1, 832800, Note_off_c, 9, 35, 64
1, 832800, Note_on_c, 9, 38, 72
1, 832800, Note_on_c, 9, 57, 72
1, 832800, Note_on_c, 9, 44, 72
1, 833040, Note_off_c, 9, 38, 64
1, 833040, Note_off_c, 9, 57, 64
1, 833040, Note_off_c, 9, 44, 64
1, 833040, Note_on_c, 9, 35, 72
1, 833280, Note_off_c, 9, 35, 64
1, 833280, Note_on_c, 9, 35, 72
1, 833280, Note_on_c, 9, 44, 72
1, 833520, Note_off_c, 9, 35, 64
1, 833520, Note_off_c, 9, 44, 64
1, 833520, Note_on_c, 9, 35, 72
1, 833760, Note_off_c, 9, 35, 64
1, 833760, Note_on_c, 9, 38, 72
1, 833760, Note_on_c, 9, 44, 72
1, 834000, Note_off_c, 9, 38, 64
1, 834000, Note_off_c, 9, 44, 64
1, 834000, Note_on_c, 9, 35, 72
1, 834240, Note_off_c, 9, 35, 64
1, 834240, Note_on_c, 9, 35, 72
1, 834240, Note_on_c, 9, 44, 72
1, 834480, Note_off_c, 9, 35, 64
1, 834480, Note_off_c, 9, 44, 64
1, 834480, Note_on_c, 9, 35, 72
1, 834720, Note_off_c, 9, 35, 64
1, 834720, Note_on_c, 9, 38, 72
1, 834720, Note_on_c, 9, 44, 72
1, 834960, Note_off_c, 9, 38, 64
1, 834960, Note_off_c, 9, 44, 64
1, 834960, Note_on_c, 9, 35, 72
1, 835200, Note_off_c, 9, 35, 64
1, 835200, Note_on_c, 9, 35, 72
1, 835200, Note_on_c, 9, 44, 72
1, 835440, Note_off_c, 9, 35, 64
1, 835440, Note_off_c, 9, 44, 64
1, 835440, Note_on_c, 9, 35, 72
1, 835680, Note_off_c, 9, 35, 64
1, 835680, Note_on_c, 9, 38, 72
1, 835680, Note_on_c, 9, 44, 72
1, 835920, Note_off_c, 9, 38, 64
1, 835920, Note_off_c, 9, 44, 64
1, 835920, Note_on_c, 9, 35, 72
1, 836160, Note_off_c, 9, 35, 64
1, 836160, Note_on_c, 9, 35, 72
1, 836160, Note_on_c, 9, 44, 72
1, 836400, Note_off_c, 9, 35, 64
1, 836400, Note_off_c, 9, 44, 64
1, 836400, Note_on_c, 9, 35, 72
1, 836640, Note_off_c, 9, 35, 64
1, 836640, Note_on_c, 9, 38, 72
1, 836640, Note_on_c, 9, 44, 72
1, 836880, Note_off_c, 9, 38, 64
1, 836880, Note_off_c, 9, 44, 64
1, 836880, Note_on_c, 9, 35, 72
1, 837120, Note_off_c, 9, 35, 64
1, 837120, Note_on_c, 9, 35, 72
1, 837120, Note_on_c, 9, 57, 72
1, 837120, Note_on_c, 9, 44, 72
1, 837360, Note_off_c, 9, 35, 64
1, 837360, Note_off_c, 9, 57, 64
1, 837360, Note_off_c, 9, 44, 64
1, 837360, Note_on_c, 9, 35, 72
1, 837600, Note_off_c, 9, 35, 64
1, 837600, Note_on_c, 9, 38, 72
1, 837600, Note_on_c, 9, 57, 72
1, 837600, Note_on_c, 9, 44, 72
1, 837840, Note_off_c, 9, 38, 64
1, 837840, Note_off_c, 9, 57, 64
1, 837840, Note_off_c, 9, 44, 64
1, 837840, Note_on_c, 9, 35, 72
1, 838080, Note_off_c, 9, 35, 64
1, 838080, Note_on_c, 9, 35, 72
1, 838080, Note_on_c, 9, 57, 72
1, 838080, Note_on_c, 9, 44, 72
1, 838320, Note_off_c, 9, 35, 64
1, 838320, Note_off_c, 9, 57, 64
1, 838320, Note_off_c, 9, 44, 64
1, 838320, Note_on_c, 9, 35, 72
1, 838560, Note_off_c, 9, 35, 64
1, 838560, Note_on_c, 9, 38, 72
1, 838560, Note_on_c, 9, 57, 72
1, 838560, Note_on_c, 9, 44, 72
1, 838800, Note_off_c, 9, 38, 64
1, 838800, Note_off_c, 9, 57, 64
1, 838800, Note_off_c, 9, 44, 64
1, 838800, Note_on_c, 9, 35, 72
1, 839040, Note_off_c, 9, 35, 64
1, 839040, Note_on_c, 9, 35, 72
1, 839040, Note_on_c, 9, 57, 72
1, 839040, Note_on_c, 9, 44, 72
1, 839280, Note_off_c, 9, 35, 64
1, 839280, Note_off_c, 9, 57, 64
1, 839280, Note_off_c, 9, 44, 64
1, 839280, Note_on_c, 9, 35, 72
1, 839520, Note_off_c, 9, 35, 64
1, 839520, Note_on_c, 9, 38, 72
1, 839520, Note_on_c, 9, 57, 72
1, 839520, Note_on_c, 9, 44, 72
1, 839760, Note_off_c, 9, 38, 64
1, 839760, Note_off_c, 9, 57, 64
1, 839760, Note_off_c, 9, 44, 64
1, 839760, Note_on_c, 9, 35, 72
1, 840000, Note_off_c, 9, 35, 64
1, 840000, Note_on_c, 9, 35, 72
1, 840000, Note_on_c, 9, 57, 72
1, 840000, Note_on_c, 9, 44, 72
1, 840240, Note_off_c, 9, 35, 64
1, 840240, Note_off_c, 9, 57, 64
1, 840240, Note_off_c, 9, 44, 64
1, 840240, Note_on_c, 9, 35, 72
1, 840480, Note_off_c, 9, 35, 64
1, 840480, Note_on_c, 9, 38, 72
1, 840480, Note_on_c, 9, 57, 72
1, 840480, Note_on_c, 9, 44, 72
1, 840720, Note_off_c, 9, 38, 64
1, 840720, Note_off_c, 9, 57, 64
1, 840720, Note_off_c, 9, 44, 64
1, 840720, Note_on_c, 9, 35, 72
1, 840960, Note_off_c, 9, 35, 64
1, 840960, Note_on_c, 9, 35, 72
1, 840960, Note_on_c, 9, 44, 72
1, 841200, Note_off_c, 9, 35, 64
1, 841200, Note_off_c, 9, 44, 64
1, 841200, Note_on_c, 9, 35, 72
1, 841440, Note_off_c, 9, 35, 64
1, 841440, Note_on_c, 9, 38, 72
1, 841440, Note_on_c, 9, 44, 72
1, 841680, Note_off_c, 9, 38, 64
1, 841680, Note_off_c, 9, 44, 64
1, 841680, Note_on_c, 9, 35, 72
1, 841920, Note_off_c, 9, 35, 64
1, 841920, Note_on_c, 9, 35, 72
1, 841920, Note_on_c, 9, 44, 72
1, 842160, Note_off_c, 9, 35, 64
1, 842160, Note_off_c, 9, 44, 64
1, 842160, Note_on_c, 9, 35, 72
1, 842400, Note_off_c, 9, 35, 64
1, 842400, Note_on_c, 9, 38, 72
1, 842400, Note_on_c, 9, 44, 72
1, 842640, Note_off_c, 9, 38, 64
1, 842640, Note_off_c, 9, 44, 64
1, 842640, Note_on_c, 9, 35, 72
1, 842880, Note_off_c, 9, 35, 64
1, 842880, Note_on_c, 9, 35, 72
1, 842880, Note_on_c, 9, 44, 72
1, 843120, Note_off_c, 9, 35, 64
1, 843120, Note_off_c, 9, 44, 64
1, 843120, Note_on_c, 9, 35, 72
1, 843360, Note_off_c, 9, 35, 64
1, 843360, Note_on_c, 9, 38, 72
1, 843360, Note_on_c, 9, 44, 72
1, 843600, Note_off_c, 9, 38, 64
1, 843600, Note_off_c, 9, 44, 64
1, 843600, Note_on_c, 9, 35, 72
1, 843840, Note_off_c, 9, 35, 64
1, 843840, Note_on_c, 9, 35, 72
1, 843840, Note_on_c, 9, 44, 72
1, 844080, Note_off_c, 9, 35, 64
1, 844080, Note_off_c, 9, 44, 64
1, 844080, Note_on_c, 9, 35, 72
1, 844320, Note_off_c, 9, 35, 64
1, 844320, Note_on_c, 9, 38, 72
1, 844320, Note_on_c, 9, 44, 72
1, 844560, Note_off_c, 9, 38, 64
1, 844560, Note_off_c, 9, 44, 64
1, 844560, Note_on_c, 9, 35, 72
1, 844800, Note_off_c, 9, 35, 64
1, 844800, Note_on_c, 9, 35, 72
1, 844800, Note_on_c, 9, 57, 72
1, 844800, Note_on_c, 9, 44, 72
1, 845040, Note_off_c, 9, 35, 64
1, 845040, Note_off_c, 9, 57, 64
1, 845040, Note_off_c, 9, 44, 64
1, 845040, Note_on_c, 9, 35, 72
1, 845280, Note_off_c, 9, 35, 64
1, 845280, Note_on_c, 9, 38, 72
1, 845280, Note_on_c, 9, 57, 72
1, 845280, Note_on_c, 9, 44, 72
1, 845520, Note_off_c, 9, 38, 64
1, 845520, Note_off_c, 9, 57, 64
1, 845520, Note_off_c, 9, 44, 64
1, 845520, Note_on_c, 9, 35, 72
1, 845760, Note_off_c, 9, 35, 64
1, 845760, Note_on_c, 9, 35, 72
1, 845760, Note_on_c, 9, 57, 72
1, 845760, Note_on_c, 9, 44, 72
1, 846000, Note_off_c, 9, 35, 64
1, 846000, Note_off_c, 9, 57, 64
1, 846000, Note_off_c, 9, 44, 64
1, 846000, Note_on_c, 9, 35, 72
1, 846240, Note_off_c, 9, 35, 64
1, 846240, Note_on_c, 9, 38, 72
1, 846240, Note_on_c, 9, 57, 72
1, 846240, Note_on_c, 9, 44, 72
1, 846480, Note_off_c, 9, 38, 64
1, 846480, Note_off_c, 9, 57, 64
1, 846480, Note_off_c, 9, 44, 64
1, 846480, Note_on_c, 9, 35, 72
1, 846720, Note_off_c, 9, 35, 64
1, 846720, Note_on_c, 9, 35, 72
1, 846720, Note_on_c, 9, 57, 72
1, 846720, Note_on_c, 9, 44, 72
1, 846960, Note_off_c, 9, 35, 64
1, 846960, Note_off_c, 9, 57, 64
1, 846960, Note_off_c, 9, 44, 64
1, 846960, Note_on_c, 9, 35, 72
1, 847200, Note_off_c, 9, 35, 64
1, 847200, Note_on_c, 9, 38, 72
1, 847200, Note_on_c, 9, 57, 72
1, 847200, Note_on_c, 9, 44, 72
1, 847440, Note_off_c, 9, 38, 64
1, 847440, Note_off_c, 9, 57, 64
1, 847440, Note_off_c, 9, 44, 64
1, 847440, Note_on_c, 9, 35, 72
1, 847680, Note_off_c, 9, 35, 64
1, 847680, Note_on_c, 9, 35, 72
1, 847680, Note_on_c, 9, 57, 72
1, 847680, Note_on_c, 9, 44, 72
1, 847920, Note_off_c, 9, 35, 64
1, 847920, Note_off_c, 9, 57, 64
1, 847920, Note_off_c, 9, 44, 64
1, 847920, Note_on_c, 9, 35, 72
1, 848160, Note_off_c, 9, 35, 64
1, 848160, Note_on_c, 9, 38, 72
1, 848160, Note_on_c, 9, 57, 72
1, 848160, Note_on_c, 9, 44, 72
1, 848400, Note_off_c, 9, 38, 64
1, 848400, Note_off_c, 9, 57, 64
1, 848400, Note_off_c, 9, 44, 64
1, 848400, Note_on_c, 9, 35, 72
1, 848640, Note_off_c, 9, 35, 64
1, 848640, Note_on_c, 9, 35, 72
1, 848640, Note_on_c, 9, 44, 72
1, 848880, Note_off_c, 9, 35, 64
1, 848880, Note_off_c, 9, 44, 64
1, 848880, Note_on_c, 9, 35, 72
1, 849120, Note_off_c, 9, 35, 64
1, 849120, Note_on_c, 9, 38, 72
1, 849120, Note_on_c, 9, 44, 72
1, 849360, Note_off_c, 9, 38, 64
1, 849360, Note_off_c, 9, 44, 64
1, 849360, Note_on_c, 9, 35, 72
1, 849600, Note_off_c, 9, 35, 64
1, 849600, Note_on_c, 9, 35, 72
1, 849600, Note_on_c, 9, 44, 72
1, 849840, Note_off_c, 9, 35, 64
1, 849840, Note_off_c, 9, 44, 64
1, 849840, Note_on_c, 9, 35, 72
1, 850080, Note_off_c, 9, 35, 64
1, 850080, Note_on_c, 9, 38, 72
1, 850080, Note_on_c, 9, 44, 72
1, 850320, Note_off_c, 9, 38, 64
1, 850320, Note_off_c, 9, 44, 64
1, 850320, Note_on_c, 9, 35, 72
1, 850560, Note_off_c, 9, 35, 64
1, 850560, Note_on_c, 9, 35, 72
1, 850560, Note_on_c, 9, 44, 72
1, 850800, Note_off_c, 9, 35, 64
1, 850800, Note_off_c, 9, 44, 64
1, 850800, Note_on_c, 9, 35, 72
1, 851040, Note_off_c, 9, 35, 64
1, 851040, Note_on_c, 9, 38, 72
1, 851040, Note_on_c, 9, 44, 72
1, 851280, Note_off_c, 9, 38, 64
1, 851280, Note_off_c, 9, 44, 64
1, 851280, Note_on_c, 9, 35, 72
1, 851520, Note_off_c, 9, 35, 64
1, 851520, Note_on_c, 9, 35, 72
1, 851520, Note_on_c, 9, 44, 72
1, 851760, Note_off_c, 9, 35, 64
1, 851760, Note_off_c, 9, 44, 64
1, 851760, Note_on_c, 9, 35, 72
1, 852000, Note_off_c, 9, 35, 64
1, 852000, Note_on_c, 9, 38, 72
1, 852000, Note_on_c, 9, 44, 72
1, 852240, Note_off_c, 9, 38, 64
1, 852240, Note_off_c, 9, 44, 64
1, 852240, Note_on_c, 9, 35, 72
1, 852480, Note_off_c, 9, 35, 64
1, 852480, Note_on_c, 9, 35, 72
1, 852480, Note_on_c, 9, 57, 72
1, 852480, Note_on_c, 9, 44, 72
1, 852720, Note_off_c, 9, 35, 64
1, 852720, Note_off_c, 9, 57, 64
1, 852720, Note_off_c, 9, 44, 64
1, 852720, Note_on_c, 9, 35, 72
1, 852960, Note_off_c, 9, 35, 64
1, 852960, Note_on_c, 9, 38, 72
1, 852960, Note_on_c, 9, 57, 72
1, 852960, Note_on_c, 9, 44, 72
1, 853200, Note_off_c, 9, 38, 64
1, 853200, Note_off_c, 9, 57, 64
1, 853200, Note_off_c, 9, 44, 64
1, 853200, Note_on_c, 9, 35, 72
1, 853440, Note_off_c, 9, 35, 64
1, 853440, Note_on_c, 9, 35, 72
1, 853440, Note_on_c, 9, 57, 72
1, 853440, Note_on_c, 9, 44, 72
1, 853680, Note_off_c, 9, 35, 64
1, 853680, Note_off_c, 9, 57, 64
1, 853680, Note_off_c, 9, 44, 64
1, 853680, Note_on_c, 9, 35, 72
1, 853920, Note_off_c, 9, 35, 64
1, 853920, Note_on_c, 9, 38, 72
1, 853920, Note_on_c, 9, 57, 72
1, 853920, Note_on_c, 9, 44, 72
1, 854160, Note_off_c, 9, 38, 64
1, 854160, Note_off_c, 9, 57, 64
1, 854160, Note_off_c, 9, 44, 64
1, 854160, Note_on_c, 9, 35, 72
1, 854400, Note_off_c, 9, 35, 64
1, 854400, Note_on_c, 9, 35, 72
1, 854400, Note_on_c, 9, 57, 72
1, 854400, Note_on_c, 9, 44, 72
1, 854640, Note_off_c, 9, 35, 64
1, 854640, Note_off_c, 9, 57, 64
1, 854640, Note_off_c, 9, 44, 64
1, 854640, Note_on_c, 9, 35, 72
1, 854880, Note_off_c, 9, 35, 64
1, 854880, Note_on_c, 9, 38, 72
1, 854880, Note_on_c, 9, 57, 72
1, 854880, Note_on_c, 9, 44, 72
1, 855120, Note_off_c, 9, 38, 64
1, 855120, Note_off_c, 9, 57, 64
1, 855120, Note_off_c, 9, 44, 64
1, 855120, Note_on_c, 9, 35, 72
1, 855360, Note_off_c, 9, 35, 64
1, 855360, Note_on_c, 9, 35, 72
1, 855360, Note_on_c, 9, 57, 72
1, 855360, Note_on_c, 9, 44, 72
1, 855600, Note_off_c, 9, 35, 64
1, 855600, Note_off_c, 9, 57, 64
1, 855600, Note_off_c, 9, 44, 64
1, 855600, Note_on_c, 9, 35, 72
1, 855840, Note_off_c, 9, 35, 64
1, 855840, Note_on_c, 9, 38, 72
1, 855840, Note_on_c, 9, 57, 72
1, 855840, Note_on_c, 9, 44, 72
1, 856080, Note_off_c, 9, 38, 64
1, 856080, Note_off_c, 9, 57, 64
1, 856080, Note_off_c, 9, 44, 64
1, 856080, Note_on_c, 9, 35, 72
1, 856320, Note_off_c, 9, 35, 64
1, 856320, Note_on_c, 9, 35, 72
1, 856320, Note_on_c, 9, 44, 72
1, 856560, Note_off_c, 9, 35, 64
1, 856560, Note_off_c, 9, 44, 64
1, 856560, Note_on_c, 9, 35, 72
1, 856800, Note_off_c, 9, 35, 64
1, 856800, Note_on_c, 9, 38, 72
1, 856800, Note_on_c, 9, 44, 72
1, 857040, Note_off_c, 9, 38, 64
1, 857040, Note_off_c, 9, 44, 64
1, 857040, Note_on_c, 9, 35, 72
1, 857280, Note_off_c, 9, 35, 64
1, 857280, Note_on_c, 9, 35, 72
1, 857280, Note_on_c, 9, 44, 72
1, 857520, Note_off_c, 9, 35, 64
1, 857520, Note_off_c, 9, 44, 64
1, 857520, Note_on_c, 9, 35, 72
1, 857760, Note_off_c, 9, 35, 64
1, 857760, Note_on_c, 9, 38, 72
1, 857760, Note_on_c, 9, 44, 72
1, 858000, Note_off_c, 9, 38, 64
1, 858000, Note_off_c, 9, 44, 64
1, 858000, Note_on_c, 9, 35, 72
1, 858240, Note_off_c, 9, 35, 64
1, 858240, Note_on_c, 9, 35, 72
1, 858240, Note_on_c, 9, 44, 72
1, 858480, Note_off_c, 9, 35, 64
1, 858480, Note_off_c, 9, 44, 64
1, 858480, Note_on_c, 9, 35, 72
1, 858720, Note_off_c, 9, 35, 64
1, 858720, Note_on_c, 9, 38, 72
1, 858720, Note_on_c, 9, 44, 72
1, 858960, Note_off_c, 9, 38, 64
1, 858960, Note_off_c, 9, 44, 64
1, 858960, Note_on_c, 9, 35, 72
1, 859200, Note_off_c, 9, 35, 64
1, 859200, Note_on_c, 9, 35, 72
1, 859200, Note_on_c, 9, 44, 72
1, 859440, Note_off_c, 9, 35, 64
1, 859440, Note_off_c, 9, 44, 64
1, 859440, Note_on_c, 9, 35, 72
1, 859680, Note_off_c, 9, 35, 64
1, 859680, Note_on_c, 9, 38, 72
1, 859680, Note_on_c, 9, 44, 72
1, 859920, Note_off_c, 9, 38, 64
1, 859920, Note_off_c, 9, 44, 64
1, 859920, Note_on_c, 9, 35, 72
1, 860160, Note_off_c, 9, 35, 64
1, 860160, Note_on_c, 9, 35, 72
1, 860160, Note_on_c, 9, 57, 72
1, 860160, Note_on_c, 9, 44, 72
1, 860400, Note_off_c, 9, 35, 64
1, 860400, Note_off_c, 9, 57, 64
1, 860400, Note_off_c, 9, 44, 64
1, 860400, Note_on_c, 9, 35, 72
1, 860640, Note_off_c, 9, 35, 64
1, 860640, Note_on_c, 9, 38, 72
1, 860640, Note_on_c, 9, 57, 72
1, 860640, Note_on_c, 9, 44, 72
1, 860880, Note_off_c, 9, 38, 64
1, 860880, Note_off_c, 9, 57, 64
1, 860880, Note_off_c, 9, 44, 64
1, 860880, Note_on_c, 9, 35, 72
1, 861120, Note_off_c, 9, 35, 64
1, 861120, Note_on_c, 9, 35, 72
1, 861120, Note_on_c, 9, 57, 72
1, 861120, Note_on_c, 9, 44, 72
1, 861360, Note_off_c, 9, 35, 64
1, 861360, Note_off_c, 9, 57, 64
1, 861360, Note_off_c, 9, 44, 64
1, 861360, Note_on_c, 9, 35, 72
1, 861600, Note_off_c, 9, 35, 64
1, 861600, Note_on_c, 9, 38, 72
1, 861600, Note_on_c, 9, 57, 72
1, 861600, Note_on_c, 9, 44, 72
1, 861840, Note_off_c, 9, 38, 64
1, 861840, Note_off_c, 9, 57, 64
1, 861840, Note_off_c, 9, 44, 64
1, 861840, Note_on_c, 9, 35, 72
1, 862080, Note_off_c, 9, 35, 64
1, 862080, Note_on_c, 9, 35, 72
1, 862080, Note_on_c, 9, 57, 72
1, 862080, Note_on_c, 9, 44, 72
1, 862320, Note_off_c, 9, 35, 64
1, 862320, Note_off_c, 9, 57, 64
1, 862320, Note_off_c, 9, 44, 64
1, 862320, Note_on_c, 9, 35, 72
1, 862560, Note_off_c, 9, 35, 64
1, 862560, Note_on_c, 9, 38, 72
1, 862560, Note_on_c, 9, 57, 72
1, 862560, Note_on_c, 9, 44, 72
1, 862800, Note_off_c, 9, 38, 64
1, 862800, Note_off_c, 9, 57, 64
1, 862800, Note_off_c, 9, 44, 64
1, 862800, Note_on_c, 9, 35, 72
1, 863040, Note_off_c, 9, 35, 64
1, 863040, Note_on_c, 9, 35, 72
1, 863040, Note_on_c, 9, 57, 72
1, 863040, Note_on_c, 9, 44, 72
1, 863280, Note_off_c, 9, 35, 64
1, 863280, Note_off_c, 9, 57, 64
1, 863280, Note_off_c, 9, 44, 64
1, 863280, Note_on_c, 9, 35, 72
1, 863520, Note_off_c, 9, 35, 64
1, 863520, Note_on_c, 9, 38, 72
1, 863520, Note_on_c, 9, 57, 72
1, 863520, Note_on_c, 9, 44, 72
1, 863760, Note_off_c, 9, 38, 64
1, 863760, Note_off_c, 9, 57, 64
1, 863760, Note_off_c, 9, 44, 64
1, 863760, Note_on_c, 9, 35, 72
1, 864000, Note_off_c, 9, 35, 64
1, 864000, Note_on_c, 9, 35, 72
1, 864000, Note_on_c, 9, 44, 72
1, 864240, Note_off_c, 9, 35, 64
1, 864240, Note_off_c, 9, 44, 64
1, 864240, Note_on_c, 9, 35, 72
1, 864480, Note_off_c, 9, 35, 64
1, 864480, Note_on_c, 9, 38, 72
1, 864480, Note_on_c, 9, 44, 72
1, 864720, Note_off_c, 9, 38, 64
1, 864720, Note_off_c, 9, 44, 64
1, 864720, Note_on_c, 9, 35, 72
1, 864960, Note_off_c, 9, 35, 64
1, 864960, Note_on_c, 9, 35, 72
1, 864960, Note_on_c, 9, 44, 72
1, 865200, Note_off_c, 9, 35, 64
1, 865200, Note_off_c, 9, 44, 64
1, 865200, Note_on_c, 9, 35, 72
1, 865440, Note_off_c, 9, 35, 64
1, 865440, Note_on_c, 9, 38, 72
1, 865440, Note_on_c, 9, 44, 72
1, 865680, Note_off_c, 9, 38, 64
1, 865680, Note_off_c, 9, 44, 64
1, 865680, Note_on_c, 9, 35, 72
1, 865920, Note_off_c, 9, 35, 64
1, 865920, Note_on_c, 9, 35, 72
1, 865920, Note_on_c, 9, 44, 72
1, 866160, Note_off_c, 9, 35, 64
1, 866160, Note_off_c, 9, 44, 64
1, 866160, Note_on_c, 9, 35, 72
1, 866400, Note_off_c, 9, 35, 64
1, 866400, Note_on_c, 9, 38, 72
1, 866400, Note_on_c, 9, 44, 72
1, 866640, Note_off_c, 9, 38, 64
1, 866640, Note_off_c, 9, 44, 64
1, 866640, Note_on_c, 9, 35, 72
1, 866880, Note_off_c, 9, 35, 64
1, 866880, Note_on_c, 9, 35, 72
1, 866880, Note_on_c, 9, 44, 72
1, 867120, Note_off_c, 9, 35, 64
1, 867120, Note_off_c, 9, 44, 64
1, 867120, Note_on_c, 9, 35, 72
1, 867360, Note_off_c, 9, 35, 64
1, 867360, Note_on_c, 9, 38, 72
1, 867360, Note_on_c, 9, 44, 72
1, 867600, Note_off_c, 9, 38, 64
1, 867600, Note_off_c, 9, 44, 64
1, 867600, Note_on_c, 9, 35, 72
1, 867840, Note_off_c, 9, 35, 64
1, 867840, Note_on_c, 9, 35, 72
1, 867840, Note_on_c, 9, 57, 72
1, 867840, Note_on_c, 9, 44, 72
1, 868080, Note_off_c, 9, 35, 64
1, 868080, Note_off_c, 9, 57, 64
1, 868080, Note_off_c, 9, 44, 64
1, 868080, Note_on_c, 9, 35, 72
1, 868320, Note_off_c, 9, 35, 64
1, 868320, Note_on_c, 9, 38, 72
1, 868320, Note_on_c, 9, 57, 72
1, 868320, Note_on_c, 9, 44, 72
1, 868560, Note_off_c, 9, 38, 64
1, 868560, Note_off_c, 9, 57, 64
1, 868560, Note_off_c, 9, 44, 64
1, 868560, Note_on_c, 9, 35, 72
1, 868800, Note_off_c, 9, 35, 64
1, 868800, Note_on_c, 9, 35, 72
1, 868800, Note_on_c, 9, 57, 72
1, 868800, Note_on_c, 9, 44, 72
1, 869040, Note_off_c, 9, 35, 64
1, 869040, Note_off_c, 9, 57, 64
1, 869040, Note_off_c, 9, 44, 64
1, 869040, Note_on_c, 9, 35, 72
1, 869280, Note_off_c, 9, 35, 64
1, 869280, Note_on_c, 9, 38, 72
1, 869280, Note_on_c, 9, 57, 72
1, 869280, Note_on_c, 9, 44, 72
1, 869520, Note_off_c, 9, 38, 64
1, 869520, Note_off_c, 9, 57, 64
1, 869520, Note_off_c, 9, 44, 64
1, 869520, Note_on_c, 9, 35, 72
1, 869760, Note_off_c, 9, 35, 64
1, 869760, Note_on_c, 9, 35, 72
1, 869760, Note_on_c, 9, 57, 72
1, 869760, Note_on_c, 9, 44, 72
1, 870000, Note_off_c, 9, 35, 64
1, 870000, Note_off_c, 9, 57, 64
1, 870000, Note_off_c, 9, 44, 64
1, 870000, Note_on_c, 9, 35, 72
1, 870240, Note_off_c, 9, 35, 64
1, 870240, Note_on_c, 9, 38, 72
1, 870240, Note_on_c, 9, 57, 72
1, 870240, Note_on_c, 9, 44, 72
1, 870480, Note_off_c, 9, 38, 64
1, 870480, Note_off_c, 9, 57, 64
1, 870480, Note_off_c, 9, 44, 64
1, 870480, Note_on_c, 9, 35, 72
1, 870720, Note_off_c, 9, 35, 64
1, 870720, Note_on_c, 9, 35, 72
1, 870720, Note_on_c, 9, 57, 72
1, 870720, Note_on_c, 9, 44, 72
1, 870960, Note_off_c, 9, 35, 64
1, 870960, Note_off_c, 9, 57, 64
1, 870960, Note_off_c, 9, 44, 64
1, 870960, Note_on_c, 9, 35, 72
1, 871200, Note_off_c, 9, 35, 64
1, 871200, Note_on_c, 9, 38, 72
1, 871200, Note_on_c, 9, 57, 72
1, 871200, Note_on_c, 9, 44, 72
1, 871440, Note_off_c, 9, 38, 64
1, 871440, Note_off_c, 9, 57, 64
1, 871440, Note_off_c, 9, 44, 64
1, 871440, Note_on_c, 9, 35, 72
1, 871680, Note_off_c, 9, 35, 64
1, 871680, Note_on_c, 9, 35, 72
1, 871680, Note_on_c, 9, 44, 72
1, 871920, Note_off_c, 9, 35, 64
1, 871920, Note_off_c, 9, 44, 64
1, 871920, Note_on_c, 9, 35, 72
1, 872160, Note_off_c, 9, 35, 64
1, 872160, Note_on_c, 9, 38, 72
1, 872160, Note_on_c, 9, 44, 72
1, 872400, Note_off_c, 9, 38, 64
1, 872400, Note_off_c, 9, 44, 64
1, 872400, Note_on_c, 9, 35, 72
1, 872640, Note_off_c, 9, 35, 64
1, 872640, Note_on_c, 9, 35, 72
1, 872640, Note_on_c, 9, 44, 72
1, 872880, Note_off_c, 9, 35, 64
1, 872880, Note_off_c, 9, 44, 64
1, 872880, Note_on_c, 9, 35, 72
1, 873120, Note_off_c, 9, 35, 64
1, 873120, Note_on_c, 9, 38, 72
1, 873120, Note_on_c, 9, 44, 72
1, 873360, Note_off_c, 9, 38, 64
1, 873360, Note_off_c, 9, 44, 64
1, 873360, Note_on_c, 9, 35, 72
1, 873600, Note_off_c, 9, 35, 64
1, 873600, Note_on_c, 9, 35, 72
1, 873600, Note_on_c, 9, 44, 72
1, 873840, Note_off_c, 9, 35, 64
1, 873840, Note_off_c, 9, 44, 64
1, 873840, Note_on_c, 9, 35, 72
1, 874080, Note_off_c, 9, 35, 64
1, 874080, Note_on_c, 9, 38, 72
1, 874080, Note_on_c, 9, 44, 72
1, 874320, Note_off_c, 9, 38, 64
1, 874320, Note_off_c, 9, 44, 64
1, 874320, Note_on_c, 9, 35, 72
1, 874560, Note_off_c, 9, 35, 64
1, 874560, Note_on_c, 9, 35, 72
1, 874560, Note_on_c, 9, 44, 72
1, 874800, Note_off_c, 9, 35, 64
1, 874800, Note_off_c, 9, 44, 64
1, 874800, Note_on_c, 9, 35, 72
1, 875040, Note_off_c, 9, 35, 64
1, 875040, Note_on_c, 9, 38, 72
1, 875040, Note_on_c, 9, 44, 72
1, 875280, Note_off_c, 9, 38, 64
1, 875280, Note_off_c, 9, 44, 64
1, 875280, Note_on_c, 9, 35, 72
1, 875520, Note_off_c, 9, 35, 64
1, 875520, Note_on_c, 9, 35, 72
1, 875520, Note_on_c, 9, 57, 72
1, 875520, Note_on_c, 9, 44, 72
1, 875760, Note_off_c, 9, 35, 64
1, 875760, Note_off_c, 9, 57, 64
1, 875760, Note_off_c, 9, 44, 64
1, 875760, Note_on_c, 9, 35, 72
1, 876000, Note_off_c, 9, 35, 64
1, 876000, Note_on_c, 9, 38, 72
1, 876000, Note_on_c, 9, 57, 72
1, 876000, Note_on_c, 9, 44, 72
1, 876240, Note_off_c, 9, 38, 64
1, 876240, Note_off_c, 9, 57, 64
1, 876240, Note_off_c, 9, 44, 64
1, 876240, Note_on_c, 9, 35, 72
1, 876480, Note_off_c, 9, 35, 64
1, 876480, Note_on_c, 9, 35, 72
1, 876480, Note_on_c, 9, 57, 72
1, 876480, Note_on_c, 9, 44, 72
1, 876720, Note_off_c, 9, 35, 64
1, 876720, Note_off_c, 9, 57, 64
1, 876720, Note_off_c, 9, 44, 64
1, 876720, Note_on_c, 9, 35, 72
1, 876960, Note_off_c, 9, 35, 64
1, 876960, Note_on_c, 9, 38, 72
1, 876960, Note_on_c, 9, 57, 72
1, 876960, Note_on_c, 9, 44, 72
1, 877200, Note_off_c, 9, 38, 64
1, 877200, Note_off_c, 9, 57, 64
1, 877200, Note_off_c, 9, 44, 64
1, 877200, Note_on_c, 9, 35, 72
1, 877440, Note_off_c, 9, 35, 64
1, 877440, Note_on_c, 9, 35, 72
1, 877440, Note_on_c, 9, 57, 72
1, 877440, Note_on_c, 9, 44, 72
1, 877680, Note_off_c, 9, 35, 64
1, 877680, Note_off_c, 9, 57, 64
1, 877680, Note_off_c, 9, 44, 64
1, 877680, Note_on_c, 9, 35, 72
1, 877920, Note_off_c, 9, 35, 64
1, 877920, Note_on_c, 9, 38, 72
1, 877920, Note_on_c, 9, 57, 72
1, 877920, Note_on_c, 9, 44, 72
1, 878160, Note_off_c, 9, 38, 64
1, 878160, Note_off_c, 9, 57, 64
1, 878160, Note_off_c, 9, 44, 64
1, 878160, Note_on_c, 9, 35, 72
1, 878400, Note_off_c, 9, 35, 64
1, 878400, Note_on_c, 9, 35, 72
1, 878400, Note_on_c, 9, 57, 72
1, 878400, Note_on_c, 9, 44, 72
1, 878640, Note_off_c, 9, 35, 64
1, 878640, Note_off_c, 9, 57, 64
1, 878640, Note_off_c, 9, 44, 64
1, 878640, Note_on_c, 9, 35, 72
1, 878880, Note_off_c, 9, 35, 64
1, 878880, Note_on_c, 9, 38, 72
1, 878880, Note_on_c, 9, 57, 72
1, 878880, Note_on_c, 9, 44, 72
1, 879120, Note_off_c, 9, 38, 64
1, 879120, Note_off_c, 9, 57, 64
1, 879120, Note_off_c, 9, 44, 64
1, 879120, Note_on_c, 9, 35, 72
1, 879360, Note_off_c, 9, 35, 64
1, 879360, Note_on_c, 9, 35, 72
1, 879360, Note_on_c, 9, 44, 72
1, 879600, Note_off_c, 9, 35, 64
1, 879600, Note_off_c, 9, 44, 64
1, 879600, Note_on_c, 9, 35, 72
1, 879840, Note_off_c, 9, 35, 64
1, 879840, Note_on_c, 9, 38, 72
1, 879840, Note_on_c, 9, 44, 72
1, 880080, Note_off_c, 9, 38, 64
1, 880080, Note_off_c, 9, 44, 64
1, 880080, Note_on_c, 9, 35, 72
1, 880320, Note_off_c, 9, 35, 64
1, 880320, Note_on_c, 9, 35, 72
1, 880320, Note_on_c, 9, 44, 72
1, 880560, Note_off_c, 9, 35, 64
1, 880560, Note_off_c, 9, 44, 64
1, 880560, Note_on_c, 9, 35, 72
1, 880800, Note_off_c, 9, 35, 64
1, 880800, Note_on_c, 9, 38, 72
1, 880800, Note_on_c, 9, 44, 72
1, 881040, Note_off_c, 9, 38, 64
1, 881040, Note_off_c, 9, 44, 64
1, 881040, Note_on_c, 9, 35, 72
1, 881280, Note_off_c, 9, 35, 64
1, 881280, Note_on_c, 9, 35, 72
1, 881280, Note_on_c, 9, 44, 72
1, 881520, Note_off_c, 9, 35, 64
1, 881520, Note_off_c, 9, 44, 64
1, 881520, Note_on_c, 9, 35, 72
1, 881760, Note_off_c, 9, 35, 64
1, 881760, Note_on_c, 9, 38, 72
1, 881760, Note_on_c, 9, 44, 72
1, 882000, Note_off_c, 9, 38, 64
1, 882000, Note_off_c, 9, 44, 64
1, 882000, Note_on_c, 9, 35, 72
1, 882240, Note_off_c, 9, 35, 64
1, 882240, Note_on_c, 9, 35, 72
1, 882240, Note_on_c, 9, 44, 72
1, 882480, Note_off_c, 9, 35, 64
1, 882480, Note_off_c, 9, 44, 64
1, 882480, Note_on_c, 9, 35, 72
1, 882720, Note_off_c, 9, 35, 64
1, 882720, Note_on_c, 9, 38, 72
1, 882720, Note_on_c, 9, 44, 72
1, 882960, Note_off_c, 9, 38, 64
1, 882960, Note_off_c, 9, 44, 64
1, 882960, Note_on_c, 9, 35, 72
1, 883200, Note_off_c, 9, 35, 64
1, 883200, Note_on_c, 9, 35, 72
1, 883200, Note_on_c, 9, 57, 72
1, 883200, Note_on_c, 9, 44, 72
1, 883440, Note_off_c, 9, 35, 64
1, 883440, Note_off_c, 9, 57, 64
1, 883440, Note_off_c, 9, 44, 64
1, 883440, Note_on_c, 9, 35, 72
1, 883680, Note_off_c, 9, 35, 64
1, 883680, Note_on_c, 9, 38, 72
1, 883680, Note_on_c, 9, 57, 72
1, 883680, Note_on_c, 9, 44, 72
1, 883920, Note_off_c, 9, 38, 64
1, 883920, Note_off_c, 9, 57, 64
1, 883920, Note_off_c, 9, 44, 64
1, 883920, Note_on_c, 9, 35, 72
1, 884160, Note_off_c, 9, 35, 64
1, 884160, Note_on_c, 9, 35, 72
1, 884160, Note_on_c, 9, 57, 72
1, 884160, Note_on_c, 9, 44, 72
1, 884400, Note_off_c, 9, 35, 64
1, 884400, Note_off_c, 9, 57, 64
1, 884400, Note_off_c, 9, 44, 64
1, 884400, Note_on_c, 9, 35, 72
1, 884640, Note_off_c, 9, 35, 64
1, 884640, Note_on_c, 9, 38, 72
1, 884640, Note_on_c, 9, 57, 72
1, 884640, Note_on_c, 9, 44, 72
1, 884880, Note_off_c, 9, 38, 64
1, 884880, Note_off_c, 9, 57, 64
1, 884880, Note_off_c, 9, 44, 64
1, 884880, Note_on_c, 9, 35, 72
1, 885120, Note_off_c, 9, 35, 64
1, 885120, Note_on_c, 9, 35, 72
1, 885120, Note_on_c, 9, 57, 72
1, 885120, Note_on_c, 9, 44, 72
1, 885360, Note_off_c, 9, 35, 64
1, 885360, Note_off_c, 9, 57, 64
1, 885360, Note_off_c, 9, 44, 64
1, 885360, Note_on_c, 9, 35, 72
1, 885600, Note_off_c, 9, 35, 64
1, 885600, Note_on_c, 9, 38, 72
1, 885600, Note_on_c, 9, 57, 72
1, 885600, Note_on_c, 9, 44, 72
1, 885840, Note_off_c, 9, 38, 64
1, 885840, Note_off_c, 9, 57, 64
1, 885840, Note_off_c, 9, 44, 64
1, 885840, Note_on_c, 9, 35, 72
1, 886080, Note_off_c, 9, 35, 64
1, 886080, Note_on_c, 9, 35, 72
1, 886080, Note_on_c, 9, 57, 72
1, 886080, Note_on_c, 9, 44, 72
1, 886320, Note_off_c, 9, 35, 64
1, 886320, Note_off_c, 9, 57, 64
1, 886320, Note_off_c, 9, 44, 64
1, 886320, Note_on_c, 9, 35, 72
1, 886560, Note_off_c, 9, 35, 64
1, 886560, Note_on_c, 9, 38, 72
1, 886560, Note_on_c, 9, 57, 72
1, 886560, Note_on_c, 9, 44, 72
1, 886800, Note_off_c, 9, 38, 64
1, 886800, Note_off_c, 9, 57, 64
1, 886800, Note_off_c, 9, 44, 64
1, 886800, Note_on_c, 9, 35, 72
1, 887040, Note_off_c, 9, 35, 64
1, 887040, Note_on_c, 9, 35, 72
1, 887040, Note_on_c, 9, 44, 72
1, 887280, Note_off_c, 9, 35, 64
1, 887280, Note_off_c, 9, 44, 64
1, 887280, Note_on_c, 9, 35, 72
1, 887520, Note_off_c, 9, 35, 64
1, 887520, Note_on_c, 9, 38, 72
1, 887520, Note_on_c, 9, 44, 72
1, 887760, Note_off_c, 9, 38, 64
1, 887760, Note_off_c, 9, 44, 64
1, 887760, Note_on_c, 9, 35, 72
1, 888000, Note_off_c, 9, 35, 64
1, 888000, Note_on_c, 9, 35, 72
1, 888000, Note_on_c, 9, 44, 72
1, 888240, Note_off_c, 9, 35, 64
1, 888240, Note_off_c, 9, 44, 64
1, 888240, Note_on_c, 9, 35, 72
1, 888480, Note_off_c, 9, 35, 64
1, 888480, Note_on_c, 9, 38, 72
1, 888480, Note_on_c, 9, 44, 72
1, 888720, Note_off_c, 9, 38, 64
1, 888720, Note_off_c, 9, 44, 64
1, 888720, Note_on_c, 9, 35, 72
1, 888960, Note_off_c, 9, 35, 64
1, 888960, Note_on_c, 9, 35, 72
1, 888960, Note_on_c, 9, 44, 72
1, 889200, Note_off_c, 9, 35, 64
1, 889200, Note_off_c, 9, 44, 64
1, 889200, Note_on_c, 9, 35, 72
1, 889440, Note_off_c, 9, 35, 64
1, 889440, Note_on_c, 9, 38, 72
1, 889440, Note_on_c, 9, 44, 72
1, 889680, Note_off_c, 9, 38, 64
1, 889680, Note_off_c, 9, 44, 64
1, 889680, Note_on_c, 9, 35, 72
1, 889920, Note_off_c, 9, 35, 64
1, 889920, Note_on_c, 9, 35, 72
1, 889920, Note_on_c, 9, 44, 72
1, 890160, Note_off_c, 9, 35, 64
1, 890160, Note_off_c, 9, 44, 64
1, 890160, Note_on_c, 9, 35, 72
1, 890400, Note_off_c, 9, 35, 64
1, 890400, Note_on_c, 9, 38, 72
1, 890400, Note_on_c, 9, 44, 72
1, 890640, Note_off_c, 9, 38, 64
1, 890640, Note_off_c, 9, 44, 64
1, 890640, Note_on_c, 9, 35, 72
1, 890880, Note_off_c, 9, 35, 64
1, 890880, Note_on_c, 9, 35, 72
1, 890880, Note_on_c, 9, 57, 72
1, 890880, Note_on_c, 9, 44, 72
1, 891120, Note_off_c, 9, 35, 64
1, 891120, Note_off_c, 9, 57, 64
1, 891120, Note_off_c, 9, 44, 64
1, 891120, Note_on_c, 9, 35, 72
1, 891360, Note_off_c, 9, 35, 64
1, 891360, Note_on_c, 9, 38, 72
1, 891360, Note_on_c, 9, 57, 72
1, 891360, Note_on_c, 9, 44, 72
1, 891600, Note_off_c, 9, 38, 64
1, 891600, Note_off_c, 9, 57, 64
1, 891600, Note_off_c, 9, 44, 64
1, 891600, Note_on_c, 9, 35, 72
1, 891840, Note_off_c, 9, 35, 64
1, 891840, Note_on_c, 9, 35, 72
1, 891840, Note_on_c, 9, 57, 72
1, 891840, Note_on_c, 9, 44, 72
1, 892080, Note_off_c, 9, 35, 64
1, 892080, Note_off_c, 9, 57, 64
1, 892080, Note_off_c, 9, 44, 64
1, 892080, Note_on_c, 9, 35, 72
1, 892320, Note_off_c, 9, 35, 64
1, 892320, Note_on_c, 9, 38, 72
1, 892320, Note_on_c, 9, 57, 72
1, 892320, Note_on_c, 9, 44, 72
1, 892560, Note_off_c, 9, 38, 64
1, 892560, Note_off_c, 9, 57, 64
1, 892560, Note_off_c, 9, 44, 64
1, 892560, Note_on_c, 9, 35, 72
1, 892800, Note_off_c, 9, 35, 64
1, 892800, Note_on_c, 9, 35, 72
1, 892800, Note_on_c, 9, 57, 72
1, 892800, Note_on_c, 9, 44, 72
1, 893040, Note_off_c, 9, 35, 64
1, 893040, Note_off_c, 9, 57, 64
1, 893040, Note_off_c, 9, 44, 64
1, 893040, Note_on_c, 9, 35, 72
1, 893280, Note_off_c, 9, 35, 64
1, 893280, Note_on_c, 9, 38, 72
1, 893280, Note_on_c, 9, 57, 72
1, 893280, Note_on_c, 9, 44, 72
1, 893520, Note_off_c, 9, 38, 64
1, 893520, Note_off_c, 9, 57, 64
1, 893520, Note_off_c, 9, 44, 64
1, 893520, Note_on_c, 9, 35, 72
1, 893760, Note_off_c, 9, 35, 64
1, 893760, Note_on_c, 9, 35, 72
1, 893760, Note_on_c, 9, 57, 72
1, 893760, Note_on_c, 9, 44, 72
1, 894000, Note_off_c, 9, 35, 64
1, 894000, Note_off_c, 9, 57, 64
1, 894000, Note_off_c, 9, 44, 64
1, 894000, Note_on_c, 9, 35, 72
1, 894240, Note_off_c, 9, 35, 64
1, 894240, Note_on_c, 9, 38, 72
1, 894240, Note_on_c, 9, 57, 72
1, 894240, Note_on_c, 9, 44, 72
1, 894480, Note_off_c, 9, 38, 64
1, 894480, Note_off_c, 9, 57, 64
1, 894480, Note_off_c, 9, 44, 64
1, 894480, Note_on_c, 9, 35, 72
1, 894720, Note_off_c, 9, 35, 64
1, 894720, Note_on_c, 9, 35, 72
1, 894720, Note_on_c, 9, 44, 72
1, 894960, Note_off_c, 9, 35, 64
1, 894960, Note_off_c, 9, 44, 64
1, 894960, Note_on_c, 9, 35, 72
1, 895200, Note_off_c, 9, 35, 64
1, 895200, Note_on_c, 9, 38, 72
1, 895200, Note_on_c, 9, 44, 72
1, 895440, Note_off_c, 9, 38, 64
1, 895440, Note_off_c, 9, 44, 64
1, 895440, Note_on_c, 9, 35, 72
1, 895680, Note_off_c, 9, 35, 64
1, 895680, Note_on_c, 9, 35, 72
1, 895680, Note_on_c, 9, 44, 72
1, 895920, Note_off_c, 9, 35, 64
1, 895920, Note_off_c, 9, 44, 64
1, 895920, Note_on_c, 9, 35, 72
1, 896160, Note_off_c, 9, 35, 64
1, 896160, Note_on_c, 9, 38, 72
1, 896160, Note_on_c, 9, 44, 72
1, 896400, Note_off_c, 9, 38, 64
1, 896400, Note_off_c, 9, 44, 64
1, 896400, Note_on_c, 9, 35, 72
1, 896640, Note_off_c, 9, 35, 64
1, 896640, Note_on_c, 9, 35, 72
1, 896640, Note_on_c, 9, 44, 72
1, 896880, Note_off_c, 9, 35, 64
1, 896880, Note_off_c, 9, 44, 64
1, 896880, Note_on_c, 9, 35, 72
1, 897120, Note_off_c, 9, 35, 64
1, 897120, Note_on_c, 9, 38, 72
1, 897120, Note_on_c, 9, 44, 72
1, 897360, Note_off_c, 9, 38, 64
1, 897360, Note_off_c, 9, 44, 64
1, 897360, Note_on_c, 9, 35, 72
1, 897600, Note_off_c, 9, 35, 64
1, 897600, Note_on_c, 9, 35, 72
1, 897600, Note_on_c, 9, 44, 72
1, 897840, Note_off_c, 9, 35, 64
1, 897840, Note_off_c, 9, 44, 64
1, 897840, Note_on_c, 9, 35, 72
1, 898080, Note_off_c, 9, 35, 64
1, 898080, Note_on_c, 9, 38, 72
1, 898080, Note_on_c, 9, 44, 72
1, 898320, Note_off_c, 9, 38, 64
1, 898320, Note_off_c, 9, 44, 64
1, 898320, Note_on_c, 9, 35, 72
1, 898560, Note_off_c, 9, 35, 64
1, 898560, Note_on_c, 9, 35, 72
1, 898560, Note_on_c, 9, 57, 72
1, 898560, Note_on_c, 9, 44, 72
1, 898800, Note_off_c, 9, 35, 64
1, 898800, Note_off_c, 9, 57, 64
1, 898800, Note_off_c, 9, 44, 64
1, 898800, Note_on_c, 9, 35, 72
1, 899040, Note_off_c, 9, 35, 64
1, 899040, Note_on_c, 9, 38, 72
1, 899040, Note_on_c, 9, 57, 72
1, 899040, Note_on_c, 9, 44, 72
1, 899280, Note_off_c, 9, 38, 64
1, 899280, Note_off_c, 9, 57, 64
1, 899280, Note_off_c, 9, 44, 64
1, 899280, Note_on_c, 9, 35, 72
1, 899520, Note_off_c, 9, 35, 64
1, 899520, Note_on_c, 9, 35, 72
1, 899520, Note_on_c, 9, 57, 72
1, 899520, Note_on_c, 9, 44, 72
1, 899760, Note_off_c, 9, 35, 64
1, 899760, Note_off_c, 9, 57, 64
1, 899760, Note_off_c, 9, 44, 64
1, 899760, Note_on_c, 9, 35, 72
1, 900000, Note_off_c, 9, 35, 64
1, 900000, Note_on_c, 9, 38, 72
1, 900000, Note_on_c, 9, 57, 72
1, 900000, Note_on_c, 9, 44, 72
1, 900240, Note_off_c, 9, 38, 64
1, 900240, Note_off_c, 9, 57, 64
1, 900240, Note_off_c, 9, 44, 64
1, 900240, Note_on_c, 9, 35, 72
1, 900480, Note_off_c, 9, 35, 64
1, 900480, Note_on_c, 9, 35, 72
1, 900480, Note_on_c, 9, 57, 72
1, 900480, Note_on_c, 9, 44, 72
1, 900720, Note_off_c, 9, 35, 64
1, 900720, Note_off_c, 9, 57, 64
1, 900720, Note_off_c, 9, 44, 64
1, 900720, Note_on_c, 9, 35, 72
1, 900960, Note_off_c, 9, 35, 64
1, 900960, Note_on_c, 9, 38, 72
1, 900960, Note_on_c, 9, 57, 72
1, 900960, Note_on_c, 9, 44, 72
1, 901200, Note_off_c, 9, 38, 64
1, 901200, Note_off_c, 9, 57, 64
1, 901200, Note_off_c, 9, 44, 64
1, 901200, Note_on_c, 9, 35, 72
1, 901440, Note_off_c, 9, 35, 64
1, 901440, Note_on_c, 9, 35, 72
1, 901440, Note_on_c, 9, 57, 72
1, 901440, Note_on_c, 9, 44, 72
1, 901680, Note_off_c, 9, 35, 64
1, 901680, Note_off_c, 9, 57, 64
1, 901680, Note_off_c, 9, 44, 64
1, 901680, Note_on_c, 9, 35, 72
1, 901920, Note_off_c, 9, 35, 64
1, 901920, Note_on_c, 9, 38, 72
1, 901920, Note_on_c, 9, 57, 72
1, 901920, Note_on_c, 9, 44, 72
1, 902160, Note_off_c, 9, 38, 64
1, 902160, Note_off_c, 9, 57, 64
1, 902160, Note_off_c, 9, 44, 64
1, 902160, Note_on_c, 9, 35, 72
1, 902400, Note_off_c, 9, 35, 64
1, 902400, Note_on_c, 9, 35, 72
1, 902400, Note_on_c, 9, 44, 72
1, 902640, Note_off_c, 9, 35, 64
1, 902640, Note_off_c, 9, 44, 64
1, 902640, Note_on_c, 9, 35, 72
1, 902880, Note_off_c, 9, 35, 64
1, 902880, Note_on_c, 9, 38, 72
1, 902880, Note_on_c, 9, 44, 72
1, 903120, Note_off_c, 9, 38, 64
1, 903120, Note_off_c, 9, 44, 64
1, 903120, Note_on_c, 9, 35, 72
1, 903360, Note_off_c, 9, 35, 64
1, 903360, Note_on_c, 9, 35, 72
1, 903360, Note_on_c, 9, 44, 72
1, 903600, Note_off_c, 9, 35, 64
1, 903600, Note_off_c, 9, 44, 64
1, 903600, Note_on_c, 9, 35, 72
1, 903840, Note_off_c, 9, 35, 64
1, 903840, Note_on_c, 9, 38, 72
1, 903840, Note_on_c, 9, 44, 72
1, 904080, Note_off_c, 9, 38, 64
1, 904080, Note_off_c, 9, 44, 64
1, 904080, Note_on_c, 9, 35, 72
1, 904320, Note_off_c, 9, 35, 64
1, 904320, Note_on_c, 9, 35, 72
1, 904320, Note_on_c, 9, 44, 72
1, 904560, Note_off_c, 9, 35, 64
1, 904560, Note_off_c, 9, 44, 64
1, 904560, Note_on_c, 9, 35, 72
1, 904800, Note_off_c, 9, 35, 64
1, 904800, Note_on_c, 9, 38, 72
1, 904800, Note_on_c, 9, 44, 72
1, 905040, Note_off_c, 9, 38, 64
1, 905040, Note_off_c, 9, 44, 64
1, 905040, Note_on_c, 9, 35, 72
1, 905280, Note_off_c, 9, 35, 64
1, 905280, Note_on_c, 9, 35, 72
1, 905280, Note_on_c, 9, 44, 72
1, 905520, Note_off_c, 9, 35, 64
1, 905520, Note_off_c, 9, 44, 64
1, 905520, Note_on_c, 9, 35, 72
1, 905760, Note_off_c, 9, 35, 64
1, 905760, Note_on_c, 9, 38, 72
1, 905760, Note_on_c, 9, 44, 72
1, 906000, Note_off_c, 9, 38, 64
1, 906000, Note_off_c, 9, 44, 64
1, 906000, Note_on_c, 9, 35, 72
1, 906240, Note_off_c, 9, 35, 64
1, 906240, Note_on_c, 9, 35, 72
1, 906240, Note_on_c, 9, 57, 72
1, 906240, Note_on_c, 9, 44, 72
1, 906480, Note_off_c, 9, 35, 64
1, 906480, Note_off_c, 9, 57, 64
1, 906480, Note_off_c, 9, 44, 64
1, 906480, Note_on_c, 9, 35, 72
1, 906720, Note_off_c, 9, 35, 64
1, 906720, Note_on_c, 9, 38, 72
1, 906720, Note_on_c, 9, 57, 72
1, 906720, Note_on_c, 9, 44, 72
1, 906960, Note_off_c, 9, 38, 64
1, 906960, Note_off_c, 9, 57, 64
1, 906960, Note_off_c, 9, 44, 64
1, 906960, Note_on_c, 9, 35, 72
1, 907200, Note_off_c, 9, 35, 64
1, 907200, Note_on_c, 9, 35, 72
1, 907200, Note_on_c, 9, 57, 72
1, 907200, Note_on_c, 9, 44, 72
1, 907440, Note_off_c, 9, 35, 64
1, 907440, Note_off_c, 9, 57, 64
1, 907440, Note_off_c, 9, 44, 64
1, 907440, Note_on_c, 9, 35, 72
1, 907680, Note_off_c, 9, 35, 64
1, 907680, Note_on_c, 9, 38, 72
1, 907680, Note_on_c, 9, 57, 72
1, 907680, Note_on_c, 9, 44, 72
1, 907920, Note_off_c, 9, 38, 64
1, 907920, Note_off_c, 9, 57, 64
1, 907920, Note_off_c, 9, 44, 64
1, 907920, Note_on_c, 9, 35, 72
1, 908160, Note_off_c, 9, 35, 64
1, 908160, Note_on_c, 9, 35, 72
1, 908160, Note_on_c, 9, 57, 72
1, 908160, Note_on_c, 9, 44, 72
1, 908400, Note_off_c, 9, 35, 64
1, 908400, Note_off_c, 9, 57, 64
1, 908400, Note_off_c, 9, 44, 64
1, 908400, Note_on_c, 9, 35, 72
1, 908640, Note_off_c, 9, 35, 64
1, 908640, Note_on_c, 9, 38, 72
1, 908640, Note_on_c, 9, 57, 72
1, 908640, Note_on_c, 9, 44, 72
1, 908880, Note_off_c, 9, 38, 64
1, 908880, Note_off_c, 9, 57, 64
1, 908880, Note_off_c, 9, 44, 64
1, 908880, Note_on_c, 9, 35, 72
1, 909120, Note_off_c, 9, 35, 64
1, 909120, Note_on_c, 9, 35, 72
1, 909120, Note_on_c, 9, 57, 72
1, 909120, Note_on_c, 9, 44, 72
1, 909360, Note_off_c, 9, 35, 64
1, 909360, Note_off_c, 9, 57, 64
1, 909360, Note_off_c, 9, 44, 64
1, 909360, Note_on_c, 9, 35, 72
1, 909600, Note_off_c, 9, 35, 64
1, 909600, Note_on_c, 9, 38, 72
1, 909600, Note_on_c, 9, 57, 72
1, 909600, Note_on_c, 9, 44, 72
1, 909840, Note_off_c, 9, 38, 64
1, 909840, Note_off_c, 9, 57, 64
1, 909840, Note_off_c, 9, 44, 64
1, 909840, Note_on_c, 9, 35, 72
1, 910080, Note_off_c, 9, 35, 64
1, 910080, Note_on_c, 9, 35, 72
1, 910080, Note_on_c, 9, 44, 72
1, 910320, Note_off_c, 9, 35, 64
1, 910320, Note_off_c, 9, 44, 64
1, 910320, Note_on_c, 9, 35, 72
1, 910560, Note_off_c, 9, 35, 64
1, 910560, Note_on_c, 9, 38, 72
1, 910560, Note_on_c, 9, 44, 72
1, 910800, Note_off_c, 9, 38, 64
1, 910800, Note_off_c, 9, 44, 64
1, 910800, Note_on_c, 9, 35, 72
1, 911040, Note_off_c, 9, 35, 64
1, 911040, Note_on_c, 9, 35, 72
1, 911040, Note_on_c, 9, 44, 72
1, 911280, Note_off_c, 9, 35, 64
1, 911280, Note_off_c, 9, 44, 64
1, 911280, Note_on_c, 9, 35, 72
1, 911520, Note_off_c, 9, 35, 64
1, 911520, Note_on_c, 9, 38, 72
1, 911520, Note_on_c, 9, 44, 72
1, 911760, Note_off_c, 9, 38, 64
1, 911760, Note_off_c, 9, 44, 64
1, 911760, Note_on_c, 9, 35, 72
1, 912000, Note_off_c, 9, 35, 64
1, 912000, Note_on_c, 9, 35, 72
1, 912000, Note_on_c, 9, 44, 72
1, 912240, Note_off_c, 9, 35, 64
1, 912240, Note_off_c, 9, 44, 64
1, 912240, Note_on_c, 9, 35, 72
1, 912480, Note_off_c, 9, 35, 64
1, 912480, Note_on_c, 9, 38, 72
1, 912480, Note_on_c, 9, 44, 72
1, 912720, Note_off_c, 9, 38, 64
1, 912720, Note_off_c, 9, 44, 64
1, 912720, Note_on_c, 9, 35, 72
1, 912960, Note_off_c, 9, 35, 64
1, 912960, Note_on_c, 9, 35, 72
1, 912960, Note_on_c, 9, 44, 72
1, 913200, Note_off_c, 9, 35, 64
1, 913200, Note_off_c, 9, 44, 64
1, 913200, Note_on_c, 9, 35, 72
1, 913440, Note_off_c, 9, 35, 64
1, 913440, Note_on_c, 9, 38, 72
1, 913440, Note_on_c, 9, 44, 72
1, 913680, Note_off_c, 9, 38, 64
1, 913680, Note_off_c, 9, 44, 64
1, 913680, Note_on_c, 9, 35, 72
1, 913920, Note_off_c, 9, 35, 64
1, 913920, Note_on_c, 9, 35, 72
1, 913920, Note_on_c, 9, 57, 72
1, 913920, Note_on_c, 9, 44, 72
1, 914160, Note_off_c, 9, 35, 64
1, 914160, Note_off_c, 9, 57, 64
1, 914160, Note_off_c, 9, 44, 64
1, 914160, Note_on_c, 9, 35, 72
1, 914400, Note_off_c, 9, 35, 64
1, 914400, Note_on_c, 9, 38, 72
1, 914400, Note_on_c, 9, 57, 72
1, 914400, Note_on_c, 9, 44, 72
1, 914640, Note_off_c, 9, 38, 64
1, 914640, Note_off_c, 9, 57, 64
1, 914640, Note_off_c, 9, 44, 64
1, 914640, Note_on_c, 9, 35, 72
1, 914880, Note_off_c, 9, 35, 64
1, 914880, Note_on_c, 9, 35, 72
1, 914880, Note_on_c, 9, 57, 72
1, 914880, Note_on_c, 9, 44, 72
1, 915120, Note_off_c, 9, 35, 64
1, 915120, Note_off_c, 9, 57, 64
1, 915120, Note_off_c, 9, 44, 64
1, 915120, Note_on_c, 9, 35, 72
1, 915360, Note_off_c, 9, 35, 64
1, 915360, Note_on_c, 9, 38, 72
1, 915360, Note_on_c, 9, 57, 72
1, 915360, Note_on_c, 9, 44, 72
1, 915600, Note_off_c, 9, 38, 64
1, 915600, Note_off_c, 9, 57, 64
1, 915600, Note_off_c, 9, 44, 64
1, 915600, Note_on_c, 9, 35, 72
1, 915840, Note_off_c, 9, 35, 64
1, 915840, Note_on_c, 9, 35, 72
1, 915840, Note_on_c, 9, 57, 72
1, 915840, Note_on_c, 9, 44, 72
1, 916080, Note_off_c, 9, 35, 64
1, 916080, Note_off_c, 9, 57, 64
1, 916080, Note_off_c, 9, 44, 64
1, 916080, Note_on_c, 9, 35, 72
1, 916320, Note_off_c, 9, 35, 64
1, 916320, Note_on_c, 9, 38, 72
1, 916320, Note_on_c, 9, 57, 72
1, 916320, Note_on_c, 9, 44, 72
1, 916560, Note_off_c, 9, 38, 64
1, 916560, Note_off_c, 9, 57, 64
1, 916560, Note_off_c, 9, 44, 64
1, 916560, Note_on_c, 9, 35, 72
1, 916800, Note_off_c, 9, 35, 64
1, 916800, Note_on_c, 9, 35, 72
1, 916800, Note_on_c, 9, 57, 72
1, 916800, Note_on_c, 9, 44, 72
1, 917040, Note_off_c, 9, 35, 64
1, 917040, Note_off_c, 9, 57, 64
1, 917040, Note_off_c, 9, 44, 64
1, 917040, Note_on_c, 9, 35, 72
1, 917280, Note_off_c, 9, 35, 64
1, 917280, Note_on_c, 9, 38, 72
1, 917280, Note_on_c, 9, 57, 72
1, 917280, Note_on_c, 9, 44, 72
1, 917520, Note_off_c, 9, 38, 64
1, 917520, Note_off_c, 9, 57, 64
1, 917520, Note_off_c, 9, 44, 64
1, 917520, Note_on_c, 9, 35, 72
1, 917760, Note_off_c, 9, 35, 64
1, 917760, Note_on_c, 9, 35, 72
1, 917760, Note_on_c, 9, 44, 72
1, 918000, Note_off_c, 9, 35, 64
1, 918000, Note_off_c, 9, 44, 64
1, 918000, Note_on_c, 9, 35, 72
1, 918240, Note_off_c, 9, 35, 64
1, 918240, Note_on_c, 9, 38, 72
1, 918240, Note_on_c, 9, 44, 72
1, 918480, Note_off_c, 9, 38, 64
1, 918480, Note_off_c, 9, 44, 64
1, 918480, Note_on_c, 9, 35, 72
1, 918720, Note_off_c, 9, 35, 64
1, 918720, Note_on_c, 9, 35, 72
1, 918720, Note_on_c, 9, 44, 72
1, 918960, Note_off_c, 9, 35, 64
1, 918960, Note_off_c, 9, 44, 64
1, 918960, Note_on_c, 9, 35, 72
1, 919200, Note_off_c, 9, 35, 64
1, 919200, Note_on_c, 9, 38, 72
1, 919200, Note_on_c, 9, 44, 72
1, 919440, Note_off_c, 9, 38, 64
1, 919440, Note_off_c, 9, 44, 64
1, 919440, Note_on_c, 9, 35, 72
1, 919680, Note_off_c, 9, 35, 64
1, 919680, Note_on_c, 9, 35, 72
1, 919680, Note_on_c, 9, 44, 72
1, 919920, Note_off_c, 9, 35, 64
1, 919920, Note_off_c, 9, 44, 64
1, 919920, Note_on_c, 9, 35, 72
1, 920160, Note_off_c, 9, 35, 64
1, 920160, Note_on_c, 9, 38, 72
1, 920160, Note_on_c, 9, 44, 72
1, 920400, Note_off_c, 9, 38, 64
1, 920400, Note_off_c, 9, 44, 64
1, 920400, Note_on_c, 9, 35, 72
1, 920640, Note_off_c, 9, 35, 64
1, 920640, Note_on_c, 9, 35, 72
1, 920640, Note_on_c, 9, 44, 72
1, 920880, Note_off_c, 9, 35, 64
1, 920880, Note_off_c, 9, 44, 64
1, 920880, Note_on_c, 9, 35, 72
1, 921120, Note_off_c, 9, 35, 64
1, 921120, Note_on_c, 9, 38, 72
1, 921120, Note_on_c, 9, 44, 72
1, 921360, Note_off_c, 9, 38, 64
1, 921360, Note_off_c, 9, 44, 64
1, 921360, Note_on_c, 9, 35, 72
1, 921600, Note_off_c, 9, 35, 64
1, 921600, Note_on_c, 9, 35, 72
1, 921600, Note_on_c, 9, 57, 72
1, 921600, Note_on_c, 9, 44, 72
1, 921840, Note_off_c, 9, 35, 64
1, 921840, Note_off_c, 9, 57, 64
1, 921840, Note_off_c, 9, 44, 64
1, 921840, Note_on_c, 9, 35, 72
1, 922080, Note_off_c, 9, 35, 64
1, 922080, Note_on_c, 9, 38, 72
1, 922080, Note_on_c, 9, 57, 72
1, 922080, Note_on_c, 9, 44, 72
1, 922320, Note_off_c, 9, 38, 64
1, 922320, Note_off_c, 9, 57, 64
1, 922320, Note_off_c, 9, 44, 64
1, 922320, Note_on_c, 9, 35, 72
1, 922560, Note_off_c, 9, 35, 64
1, 922560, Note_on_c, 9, 35, 72
1, 922560, Note_on_c, 9, 57, 72
1, 922560, Note_on_c, 9, 44, 72
1, 922800, Note_off_c, 9, 35, 64
1, 922800, Note_off_c, 9, 57, 64
1, 922800, Note_off_c, 9, 44, 64
1, 922800, Note_on_c, 9, 35, 72
1, 923040, Note_off_c, 9, 35, 64
1, 923040, Note_on_c, 9, 38, 72
1, 923040, Note_on_c, 9, 57, 72
1, 923040, Note_on_c, 9, 44, 72
1, 923280, Note_off_c, 9, 38, 64
1, 923280, Note_off_c, 9, 57, 64
1, 923280, Note_off_c, 9, 44, 64
1, 923280, Note_on_c, 9, 35, 72
1, 923520, Note_off_c, 9, 35, 64
1, 923520, Note_on_c, 9, 35, 72
1, 923520, Note_on_c, 9, 57, 72
1, 923520, Note_on_c, 9, 44, 72
1, 923760, Note_off_c, 9, 35, 64
1, 923760, Note_off_c, 9, 57, 64
1, 923760, Note_off_c, 9, 44, 64
1, 923760, Note_on_c, 9, 35, 72
1, 924000, Note_off_c, 9, 35, 64
1, 924000, Note_on_c, 9, 38, 72
1, 924000, Note_on_c, 9, 57, 72
1, 924000, Note_on_c, 9, 44, 72
1, 924240, Note_off_c, 9, 38, 64
1, 924240, Note_off_c, 9, 57, 64
1, 924240, Note_off_c, 9, 44, 64
1, 924240, Note_on_c, 9, 35, 72
1, 924480, Note_off_c, 9, 35, 64
1, 924480, Note_on_c, 9, 35, 72
1, 924480, Note_on_c, 9, 57, 72
1, 924480, Note_on_c, 9, 44, 72
1, 924720, Note_off_c, 9, 35, 64
1, 924720, Note_off_c, 9, 57, 64
1, 924720, Note_off_c, 9, 44, 64
1, 924720, Note_on_c, 9, 35, 72
1, 924960, Note_off_c, 9, 35, 64
1, 924960, Note_on_c, 9, 38, 72
1, 924960, Note_on_c, 9, 57, 72
1, 924960, Note_on_c, 9, 44, 72
1, 925200, Note_off_c, 9, 38, 64
1, 925200, Note_off_c, 9, 57, 64
1, 925200, Note_off_c, 9, 44, 64
1, 925200, Note_on_c, 9, 35, 72
1, 925440, Note_off_c, 9, 35, 64
1, 925440, Note_on_c, 9, 35, 72
1, 925440, Note_on_c, 9, 44, 72
1, 925680, Note_off_c, 9, 35, 64
1, 925680, Note_off_c, 9, 44, 64
1, 925680, Note_on_c, 9, 35, 72
1, 925920, Note_off_c, 9, 35, 64
1, 925920, Note_on_c, 9, 38, 72
1, 925920, Note_on_c, 9, 44, 72
1, 926160, Note_off_c, 9, 38, 64
1, 926160, Note_off_c, 9, 44, 64
1, 926160, Note_on_c, 9, 35, 72
1, 926400, Note_off_c, 9, 35, 64
1, 926400, Note_on_c, 9, 35, 72
1, 926400, Note_on_c, 9, 44, 72
1, 926640, Note_off_c, 9, 35, 64
1, 926640, Note_off_c, 9, 44, 64
1, 926640, Note_on_c, 9, 35, 72
1, 926880, Note_off_c, 9, 35, 64
1, 926880, Note_on_c, 9, 38, 72
1, 926880, Note_on_c, 9, 44, 72
1, 927120, Note_off_c, 9, 38, 64
1, 927120, Note_off_c, 9, 44, 64
1, 927120, Note_on_c, 9, 35, 72
1, 927360, Note_off_c, 9, 35, 64
1, 927360, Note_on_c, 9, 35, 72
1, 927360, Note_on_c, 9, 44, 72
1, 927600, Note_off_c, 9, 35, 64
1, 927600, Note_off_c, 9, 44, 64
1, 927600, Note_on_c, 9, 35, 72
1, 927840, Note_off_c, 9, 35, 64
1, 927840, Note_on_c, 9, 38, 72
1, 927840, Note_on_c, 9, 44, 72
1, 928080, Note_off_c, 9, 38, 64
1, 928080, Note_off_c, 9, 44, 64
1, 928080, Note_on_c, 9, 35, 72
1, 928320, Note_off_c, 9, 35, 64
1, 928320, Note_on_c, 9, 35, 72
1, 928320, Note_on_c, 9, 44, 72
1, 928560, Note_off_c, 9, 35, 64
1, 928560, Note_off_c, 9, 44, 64
1, 928560, Note_on_c, 9, 35, 72
1, 928800, Note_off_c, 9, 35, 64
1, 928800, Note_on_c, 9, 38, 72
1, 928800, Note_on_c, 9, 44, 72
1, 929040, Note_off_c, 9, 38, 64
1, 929040, Note_off_c, 9, 44, 64
1, 929040, Note_on_c, 9, 35, 72
1, 929280, Note_off_c, 9, 35, 64
1, 929280, Note_on_c, 9, 35, 72
1, 929280, Note_on_c, 9, 57, 72
1, 929280, Note_on_c, 9, 44, 72
1, 929520, Note_off_c, 9, 35, 64
1, 929520, Note_off_c, 9, 57, 64
1, 929520, Note_off_c, 9, 44, 64
1, 929520, Note_on_c, 9, 35, 72
1, 929760, Note_off_c, 9, 35, 64
1, 929760, Note_on_c, 9, 38, 72
1, 929760, Note_on_c, 9, 57, 72
1, 929760, Note_on_c, 9, 44, 72
1, 930000, Note_off_c, 9, 38, 64
1, 930000, Note_off_c, 9, 57, 64
1, 930000, Note_off_c, 9, 44, 64
1, 930000, Note_on_c, 9, 35, 72
1, 930240, Note_off_c, 9, 35, 64
1, 930240, Note_on_c, 9, 35, 72
1, 930240, Note_on_c, 9, 57, 72
1, 930240, Note_on_c, 9, 44, 72
1, 930480, Note_off_c, 9, 35, 64
1, 930480, Note_off_c, 9, 57, 64
1, 930480, Note_off_c, 9, 44, 64
1, 930480, Note_on_c, 9, 35, 72
1, 930720, Note_off_c, 9, 35, 64
1, 930720, Note_on_c, 9, 38, 72
1, 930720, Note_on_c, 9, 57, 72
1, 930720, Note_on_c, 9, 44, 72
1, 930960, Note_off_c, 9, 38, 64
1, 930960, Note_off_c, 9, 57, 64
1, 930960, Note_off_c, 9, 44, 64
1, 930960, Note_on_c, 9, 35, 72
1, 931200, Note_off_c, 9, 35, 64
1, 931200, Note_on_c, 9, 35, 72
1, 931200, Note_on_c, 9, 57, 72
1, 931200, Note_on_c, 9, 44, 72
1, 931440, Note_off_c, 9, 35, 64
1, 931440, Note_off_c, 9, 57, 64
1, 931440, Note_off_c, 9, 44, 64
1, 931440, Note_on_c, 9, 35, 72
1, 931680, Note_off_c, 9, 35, 64
1, 931680, Note_on_c, 9, 38, 72
1, 931680, Note_on_c, 9, 57, 72
1, 931680, Note_on_c, 9, 44, 72
1, 931920, Note_off_c, 9, 38, 64
1, 931920, Note_off_c, 9, 57, 64
1, 931920, Note_off_c, 9, 44, 64
1, 931920, Note_on_c, 9, 35, 72
1, 932160, Note_off_c, 9, 35, 64
1, 932160, Note_on_c, 9, 35, 72
1, 932160, Note_on_c, 9, 57, 72
1, 932160, Note_on_c, 9, 44, 72
1, 932400, Note_off_c, 9, 35, 64
1, 932400, Note_off_c, 9, 57, 64
1, 932400, Note_off_c, 9, 44, 64
1, 932400, Note_on_c, 9, 35, 72
1, 932640, Note_off_c, 9, 35, 64
1, 932640, Note_on_c, 9, 38, 72
1, 932640, Note_on_c, 9, 57, 72
1, 932640, Note_on_c, 9, 44, 72
1, 932880, Note_off_c, 9, 38, 64
1, 932880, Note_off_c, 9, 57, 64
1, 932880, Note_off_c, 9, 44, 64
1, 932880, Note_on_c, 9, 35, 72
1, 933120, Note_off_c, 9, 35, 64
1, 933120, Note_on_c, 9, 35, 72
1, 933120, Note_on_c, 9, 44, 72
1, 933360, Note_off_c, 9, 35, 64
1, 933360, Note_off_c, 9, 44, 64
1, 933360, Note_on_c, 9, 35, 72
1, 933600, Note_off_c, 9, 35, 64
1, 933600, Note_on_c, 9, 38, 72
1, 933600, Note_on_c, 9, 44, 72
1, 933840, Note_off_c, 9, 38, 64
1, 933840, Note_off_c, 9, 44, 64
1, 933840, Note_on_c, 9, 35, 72
1, 934080, Note_off_c, 9, 35, 64
1, 934080, Note_on_c, 9, 35, 72
1, 934080, Note_on_c, 9, 44, 72
1, 934320, Note_off_c, 9, 35, 64
1, 934320, Note_off_c, 9, 44, 64
1, 934320, Note_on_c, 9, 35, 72
1, 934560, Note_off_c, 9, 35, 64
1, 934560, Note_on_c, 9, 38, 72
1, 934560, Note_on_c, 9, 44, 72
1, 934800, Note_off_c, 9, 38, 64
1, 934800, Note_off_c, 9, 44, 64
1, 934800, Note_on_c, 9, 35, 72
1, 935040, Note_off_c, 9, 35, 64
1, 935040, Note_on_c, 9, 35, 72
1, 935040, Note_on_c, 9, 44, 72
1, 935280, Note_off_c, 9, 35, 64
1, 935280, Note_off_c, 9, 44, 64
1, 935280, Note_on_c, 9, 35, 72
1, 935520, Note_off_c, 9, 35, 64
1, 935520, Note_on_c, 9, 38, 72
1, 935520, Note_on_c, 9, 44, 72
1, 935760, Note_off_c, 9, 38, 64
1, 935760, Note_off_c, 9, 44, 64
1, 935760, Note_on_c, 9, 35, 72
1, 936000, Note_off_c, 9, 35, 64
1, 936000, Note_on_c, 9, 35, 72
1, 936000, Note_on_c, 9, 44, 72
1, 936240, Note_off_c, 9, 35, 64
1, 936240, Note_off_c, 9, 44, 64
1, 936240, Note_on_c, 9, 35, 72
1, 936480, Note_off_c, 9, 35, 64
1, 936480, Note_on_c, 9, 38, 72
1, 936480, Note_on_c, 9, 44, 72
1, 936720, Note_off_c, 9, 38, 64
1, 936720, Note_off_c, 9, 44, 64
1, 936720, Note_on_c, 9, 35, 72
1, 936960, Note_off_c, 9, 35, 64
1, 936960, Note_on_c, 9, 35, 72
1, 936960, Note_on_c, 9, 57, 72
1, 936960, Note_on_c, 9, 44, 72
1, 937200, Note_off_c, 9, 35, 64
1, 937200, Note_off_c, 9, 57, 64
1, 937200, Note_off_c, 9, 44, 64
1, 937200, Note_on_c, 9, 35, 72
1, 937440, Note_off_c, 9, 35, 64
1, 937440, Note_on_c, 9, 38, 72
1, 937440, Note_on_c, 9, 57, 72
1, 937440, Note_on_c, 9, 44, 72
1, 937680, Note_off_c, 9, 38, 64
1, 937680, Note_off_c, 9, 57, 64
1, 937680, Note_off_c, 9, 44, 64
1, 937680, Note_on_c, 9, 35, 72
1, 937920, Note_off_c, 9, 35, 64
1, 937920, Note_on_c, 9, 35, 72
1, 937920, Note_on_c, 9, 57, 72
1, 937920, Note_on_c, 9, 44, 72
1, 938160, Note_off_c, 9, 35, 64
1, 938160, Note_off_c, 9, 57, 64
1, 938160, Note_off_c, 9, 44, 64
1, 938160, Note_on_c, 9, 35, 72
1, 938400, Note_off_c, 9, 35, 64
1, 938400, Note_on_c, 9, 38, 72
1, 938400, Note_on_c, 9, 57, 72
1, 938400, Note_on_c, 9, 44, 72
1, 938640, Note_off_c, 9, 38, 64
1, 938640, Note_off_c, 9, 57, 64
1, 938640, Note_off_c, 9, 44, 64
1, 938640, Note_on_c, 9, 35, 72
1, 938880, Note_off_c, 9, 35, 64
1, 938880, Note_on_c, 9, 35, 72
1, 938880, Note_on_c, 9, 57, 72
1, 938880, Note_on_c, 9, 44, 72
1, 939120, Note_off_c, 9, 35, 64
1, 939120, Note_off_c, 9, 57, 64
1, 939120, Note_off_c, 9, 44, 64
1, 939120, Note_on_c, 9, 35, 72
1, 939360, Note_off_c, 9, 35, 64
1, 939360, Note_on_c, 9, 38, 72
1, 939360, Note_on_c, 9, 57, 72
1, 939360, Note_on_c, 9, 44, 72
1, 939600, Note_off_c, 9, 38, 64
1, 939600, Note_off_c, 9, 57, 64
1, 939600, Note_off_c, 9, 44, 64
1, 939600, Note_on_c, 9, 35, 72
1, 939840, Note_off_c, 9, 35, 64
1, 939840, Note_on_c, 9, 35, 72
1, 939840, Note_on_c, 9, 57, 72
1, 939840, Note_on_c, 9, 44, 72
1, 940080, Note_off_c, 9, 35, 64
1, 940080, Note_off_c, 9, 57, 64
1, 940080, Note_off_c, 9, 44, 64
1, 940080, Note_on_c, 9, 35, 72
1, 940320, Note_off_c, 9, 35, 64
1, 940320, Note_on_c, 9, 38, 72
1, 940320, Note_on_c, 9, 57, 72
1, 940320, Note_on_c, 9, 44, 72
1, 940560, Note_off_c, 9, 38, 64
1, 940560, Note_off_c, 9, 57, 64
1, 940560, Note_off_c, 9, 44, 64
1, 940560, Note_on_c, 9, 35, 72
1, 940800, Note_off_c, 9, 35, 64
1, 940800, Note_on_c, 9, 35, 72
1, 940800, Note_on_c, 9, 44, 72
1, 941040, Note_off_c, 9, 35, 64
1, 941040, Note_off_c, 9, 44, 64
1, 941040, Note_on_c, 9, 35, 72
1, 941280, Note_off_c, 9, 35, 64
1, 941280, Note_on_c, 9, 38, 72
1, 941280, Note_on_c, 9, 44, 72
1, 941520, Note_off_c, 9, 38, 64
1, 941520, Note_off_c, 9, 44, 64
1, 941520, Note_on_c, 9, 35, 72
1, 941760, Note_off_c, 9, 35, 64
1, 941760, Note_on_c, 9, 35, 72
1, 941760, Note_on_c, 9, 44, 72
1, 942000, Note_off_c, 9, 35, 64
1, 942000, Note_off_c, 9, 44, 64
1, 942000, Note_on_c, 9, 35, 72
1, 942240, Note_off_c, 9, 35, 64
1, 942240, Note_on_c, 9, 38, 72
1, 942240, Note_on_c, 9, 44, 72
1, 942480, Note_off_c, 9, 38, 64
1, 942480, Note_off_c, 9, 44, 64
1, 942480, Note_on_c, 9, 35, 72
1, 942720, Note_off_c, 9, 35, 64
1, 942720, Note_on_c, 9, 35, 72
1, 942720, Note_on_c, 9, 44, 72
1, 942960, Note_off_c, 9, 35, 64
1, 942960, Note_off_c, 9, 44, 64
1, 942960, Note_on_c, 9, 35, 72
1, 943200, Note_off_c, 9, 35, 64
1, 943200, Note_on_c, 9, 38, 72
1, 943200, Note_on_c, 9, 44, 72
1, 943440, Note_off_c, 9, 38, 64
1, 943440, Note_off_c, 9, 44, 64
1, 943440, Note_on_c, 9, 35, 72
1, 943680, Note_off_c, 9, 35, 64
1, 943680, Note_on_c, 9, 35, 72
1, 943680, Note_on_c, 9, 44, 72
1, 943920, Note_off_c, 9, 35, 64
1, 943920, Note_off_c, 9, 44, 64
1, 943920, Note_on_c, 9, 35, 72
1, 944160, Note_off_c, 9, 35, 64
1, 944160, Note_on_c, 9, 38, 72
1, 944160, Note_on_c, 9, 44, 72
1, 944400, Note_off_c, 9, 38, 64
1, 944400, Note_off_c, 9, 44, 64
1, 944400, Note_on_c, 9, 35, 72
1, 944640, Note_off_c, 9, 35, 64
1, 944640, Note_on_c, 9, 35, 72
1, 944640, Note_on_c, 9, 57, 72
1, 944640, Note_on_c, 9, 44, 72
1, 944880, Note_off_c, 9, 35, 64
1, 944880, Note_off_c, 9, 57, 64
1, 944880, Note_off_c, 9, 44, 64
1, 944880, Note_on_c, 9, 35, 72
1, 945120, Note_off_c, 9, 35, 64
1, 945120, Note_on_c, 9, 38, 72
1, 945120, Note_on_c, 9, 57, 72
1, 945120, Note_on_c, 9, 44, 72
1, 945360, Note_off_c, 9, 38, 64
1, 945360, Note_off_c, 9, 57, 64
1, 945360, Note_off_c, 9, 44, 64
1, 945360, Note_on_c, 9, 35, 72
1, 945600, Note_off_c, 9, 35, 64
1, 945600, Note_on_c, 9, 35, 72
1, 945600, Note_on_c, 9, 57, 72
1, 945600, Note_on_c, 9, 44, 72
1, 945840, Note_off_c, 9, 35, 64
1, 945840, Note_off_c, 9, 57, 64
1, 945840, Note_off_c, 9, 44, 64
1, 945840, Note_on_c, 9, 35, 72
1, 946080, Note_off_c, 9, 35, 64
1, 946080, Note_on_c, 9, 38, 72
1, 946080, Note_on_c, 9, 57, 72
1, 946080, Note_on_c, 9, 44, 72
1, 946320, Note_off_c, 9, 38, 64
1, 946320, Note_off_c, 9, 57, 64
1, 946320, Note_off_c, 9, 44, 64
1, 946320, Note_on_c, 9, 35, 72
1, 946560, Note_off_c, 9, 35, 64
1, 946560, Note_on_c, 9, 35, 72
1, 946560, Note_on_c, 9, 57, 72
1, 946560, Note_on_c, 9, 44, 72
1, 946800, Note_off_c, 9, 35, 64
1, 946800, Note_off_c, 9, 57, 64
1, 946800, Note_off_c, 9, 44, 64
1, 946800, Note_on_c, 9, 35, 72
1, 947040, Note_off_c, 9, 35, 64
1, 947040, Note_on_c, 9, 38, 72
1, 947040, Note_on_c, 9, 57, 72
1, 947040, Note_on_c, 9, 44, 72
1, 947280, Note_off_c, 9, 38, 64
1, 947280, Note_off_c, 9, 57, 64
1, 947280, Note_off_c, 9, 44, 64
1, 947280, Note_on_c, 9, 35, 72
1, 947520, Note_off_c, 9, 35, 64
1, 947520, Note_on_c, 9, 35, 72
1, 947520, Note_on_c, 9, 57, 72
1, 947520, Note_on_c, 9, 44, 72
1, 947760, Note_off_c, 9, 35, 64
1, 947760, Note_off_c, 9, 57, 64
1, 947760, Note_off_c, 9, 44, 64
1, 947760, Note_on_c, 9, 35, 72
1, 948000, Note_off_c, 9, 35, 64
1, 948000, Note_on_c, 9, 38, 72
1, 948000, Note_on_c, 9, 57, 72
1, 948000, Note_on_c, 9, 44, 72
1, 948240, Note_off_c, 9, 38, 64
1, 948240, Note_off_c, 9, 57, 64
1, 948240, Note_off_c, 9, 44, 64
1, 948240, Note_on_c, 9, 35, 72
1, 948480, Note_off_c, 9, 35, 64
1, 948480, Note_on_c, 9, 35, 72
1, 948480, Note_on_c, 9, 44, 72
1, 948720, Note_off_c, 9, 35, 64
1, 948720, Note_off_c, 9, 44, 64
1, 948720, Note_on_c, 9, 35, 72
1, 948960, Note_off_c, 9, 35, 64
1, 948960, Note_on_c, 9, 38, 72
1, 948960, Note_on_c, 9, 44, 72
1, 949200, Note_off_c, 9, 38, 64
1, 949200, Note_off_c, 9, 44, 64
1, 949200, Note_on_c, 9, 35, 72
1, 949440, Note_off_c, 9, 35, 64
1, 949440, Note_on_c, 9, 35, 72
1, 949440, Note_on_c, 9, 44, 72
1, 949680, Note_off_c, 9, 35, 64
1, 949680, Note_off_c, 9, 44, 64
1, 949680, Note_on_c, 9, 35, 72
1, 949920, Note_off_c, 9, 35, 64
1, 949920, Note_on_c, 9, 38, 72
1, 949920, Note_on_c, 9, 44, 72
1, 950160, Note_off_c, 9, 38, 64
1, 950160, Note_off_c, 9, 44, 64
1, 950160, Note_on_c, 9, 35, 72
1, 950400, Note_off_c, 9, 35, 64
1, 950400, Note_on_c, 9, 35, 72
1, 950400, Note_on_c, 9, 44, 72
1, 950640, Note_off_c, 9, 35, 64
1, 950640, Note_off_c, 9, 44, 64
1, 950640, Note_on_c, 9, 35, 72
1, 950880, Note_off_c, 9, 35, 64
1, 950880, Note_on_c, 9, 38, 72
1, 950880, Note_on_c, 9, 44, 72
1, 951120, Note_off_c, 9, 38, 64
1, 951120, Note_off_c, 9, 44, 64
1, 951120, Note_on_c, 9, 35, 72
1, 951360, Note_off_c, 9, 35, 64
1, 951360, Note_on_c, 9, 35, 72
1, 951360, Note_on_c, 9, 44, 72
1, 951600, Note_off_c, 9, 35, 64
1, 951600, Note_off_c, 9, 44, 64
1, 951600, Note_on_c, 9, 35, 72
1, 951840, Note_off_c, 9, 35, 64
1, 951840, Note_on_c, 9, 38, 72
1, 951840, Note_on_c, 9, 44, 72
1, 952080, Note_off_c, 9, 38, 64
1, 952080, Note_off_c, 9, 44, 64
1, 952080, Note_on_c, 9, 35, 72
1, 952320, Note_off_c, 9, 35, 64
1, 952320, Note_on_c, 9, 35, 72
1, 952320, Note_on_c, 9, 57, 72
1, 952320, Note_on_c, 9, 44, 72
1, 952560, Note_off_c, 9, 35, 64
1, 952560, Note_off_c, 9, 57, 64
1, 952560, Note_off_c, 9, 44, 64
1, 952560, Note_on_c, 9, 35, 72
1, 952800, Note_off_c, 9, 35, 64
1, 952800, Note_on_c, 9, 38, 72
1, 952800, Note_on_c, 9, 57, 72
1, 952800, Note_on_c, 9, 44, 72
1, 953040, Note_off_c, 9, 38, 64
1, 953040, Note_off_c, 9, 57, 64
1, 953040, Note_off_c, 9, 44, 64
1, 953040, Note_on_c, 9, 35, 72
1, 953280, Note_off_c, 9, 35, 64
1, 953280, Note_on_c, 9, 35, 72
1, 953280, Note_on_c, 9, 57, 72
1, 953280, Note_on_c, 9, 44, 72
1, 953520, Note_off_c, 9, 35, 64
1, 953520, Note_off_c, 9, 57, 64
1, 953520, Note_off_c, 9, 44, 64
1, 953520, Note_on_c, 9, 35, 72
1, 953760, Note_off_c, 9, 35, 64
1, 953760, Note_on_c, 9, 38, 72
1, 953760, Note_on_c, 9, 57, 72
1, 953760, Note_on_c, 9, 44, 72
1, 954000, Note_off_c, 9, 38, 64
1, 954000, Note_off_c, 9, 57, 64
1, 954000, Note_off_c, 9, 44, 64
1, 954000, Note_on_c, 9, 35, 72
1, 954240, Note_off_c, 9, 35, 64
1, 954240, Note_on_c, 9, 35, 72
1, 954240, Note_on_c, 9, 57, 72
1, 954240, Note_on_c, 9, 44, 72
1, 954480, Note_off_c, 9, 35, 64
1, 954480, Note_off_c, 9, 57, 64
1, 954480, Note_off_c, 9, 44, 64
1, 954480, Note_on_c, 9, 35, 72
1, 954720, Note_off_c, 9, 35, 64
1, 954720, Note_on_c, 9, 38, 72
1, 954720, Note_on_c, 9, 57, 72
1, 954720, Note_on_c, 9, 44, 72
1, 954960, Note_off_c, 9, 38, 64
1, 954960, Note_off_c, 9, 57, 64
1, 954960, Note_off_c, 9, 44, 64
1, 954960, Note_on_c, 9, 35, 72
1, 955200, Note_off_c, 9, 35, 64
1, 955200, Note_on_c, 9, 35, 72
1, 955200, Note_on_c, 9, 57, 72
1, 955200, Note_on_c, 9, 44, 72
1, 955440, Note_off_c, 9, 35, 64
1, 955440, Note_off_c, 9, 57, 64
1, 955440, Note_off_c, 9, 44, 64
1, 955440, Note_on_c, 9, 35, 72
1, 955680, Note_off_c, 9, 35, 64
1, 955680, Note_on_c, 9, 38, 72
1, 955680, Note_on_c, 9, 57, 72
1, 955680, Note_on_c, 9, 44, 72
1, 955920, Note_off_c, 9, 38, 64
1, 955920, Note_off_c, 9, 57, 64
1, 955920, Note_off_c, 9, 44, 64
1, 955920, Note_on_c, 9, 35, 72
1, 956160, Note_off_c, 9, 35, 64
1, 956160, Note_on_c, 9, 35, 72
1, 956160, Note_on_c, 9, 44, 72
1, 956400, Note_off_c, 9, 35, 64
1, 956400, Note_off_c, 9, 44, 64
1, 956400, Note_on_c, 9, 35, 72
1, 956640, Note_off_c, 9, 35, 64
1, 956640, Note_on_c, 9, 38, 72
1, 956640, Note_on_c, 9, 44, 72
1, 956880, Note_off_c, 9, 38, 64
1, 956880, Note_off_c, 9, 44, 64
1, 956880, Note_on_c, 9, 35, 72
1, 957120, Note_off_c, 9, 35, 64
1, 957120, Note_on_c, 9, 35, 72
1, 957120, Note_on_c, 9, 44, 72
1, 957360, Note_off_c, 9, 35, 64
1, 957360, Note_off_c, 9, 44, 64
1, 957360, Note_on_c, 9, 35, 72
1, 957600, Note_off_c, 9, 35, 64
1, 957600, Note_on_c, 9, 38, 72
1, 957600, Note_on_c, 9, 44, 72
1, 957840, Note_off_c, 9, 38, 64
1, 957840, Note_off_c, 9, 44, 64
1, 957840, Note_on_c, 9, 35, 72
1, 958080, Note_off_c, 9, 35, 64
1, 958080, Note_on_c, 9, 35, 72
1, 958080, Note_on_c, 9, 44, 72
1, 958320, Note_off_c, 9, 35, 64
1, 958320, Note_off_c, 9, 44, 64
1, 958320, Note_on_c, 9, 35, 72
1, 958560, Note_off_c, 9, 35, 64
1, 958560, Note_on_c, 9, 38, 72
1, 958560, Note_on_c, 9, 44, 72
1, 958800, Note_off_c, 9, 38, 64
1, 958800, Note_off_c, 9, 44, 64
1, 958800, Note_on_c, 9, 35, 72
1, 959040, Note_off_c, 9, 35, 64
1, 959040, Note_on_c, 9, 35, 72
1, 959040, Note_on_c, 9, 44, 72
1, 959280, Note_off_c, 9, 35, 64
1, 959280, Note_off_c, 9, 44, 64
1, 959280, Note_on_c, 9, 35, 72
1, 959520, Note_off_c, 9, 35, 64
1, 959520, Note_on_c, 9, 38, 72
1, 959520, Note_on_c, 9, 44, 72
1, 959760, Note_off_c, 9, 38, 64
1, 959760, Note_off_c, 9, 44, 64
1, 959760, Note_on_c, 9, 35, 72
1, 960000, Note_off_c, 9, 35, 64
1, 960000, Note_on_c, 9, 35, 72
1, 960000, Note_on_c, 9, 57, 72
1, 960000, Note_on_c, 9, 44, 72
1, 960240, Note_off_c, 9, 35, 64
1, 960240, Note_off_c, 9, 57, 64
1, 960240, Note_off_c, 9, 44, 64
1, 960240, Note_on_c, 9, 35, 72
1, 960480, Note_off_c, 9, 35, 64
1, 960480, Note_on_c, 9, 38, 72
1, 960480, Note_on_c, 9, 57, 72
1, 960480, Note_on_c, 9, 44, 72
1, 960720, Note_off_c, 9, 38, 64
1, 960720, Note_off_c, 9, 57, 64
1, 960720, Note_off_c, 9, 44, 64
1, 960720, Note_on_c, 9, 35, 72
1, 960960, Note_off_c, 9, 35, 64
1, 960960, Note_on_c, 9, 35, 72
1, 960960, Note_on_c, 9, 57, 72
1, 960960, Note_on_c, 9, 44, 72
1, 961200, Note_off_c, 9, 35, 64
1, 961200, Note_off_c, 9, 57, 64
1, 961200, Note_off_c, 9, 44, 64
1, 961200, Note_on_c, 9, 35, 72
1, 961440, Note_off_c, 9, 35, 64
1, 961440, Note_on_c, 9, 38, 72
1, 961440, Note_on_c, 9, 57, 72
1, 961440, Note_on_c, 9, 44, 72
1, 961680, Note_off_c, 9, 38, 64
1, 961680, Note_off_c, 9, 57, 64
1, 961680, Note_off_c, 9, 44, 64
1, 961680, Note_on_c, 9, 35, 72
1, 961920, Note_off_c, 9, 35, 64
1, 961920, Note_on_c, 9, 35, 72
1, 961920, Note_on_c, 9, 57, 72
1, 961920, Note_on_c, 9, 44, 72
1, 962160, Note_off_c, 9, 35, 64
1, 962160, Note_off_c, 9, 57, 64
1, 962160, Note_off_c, 9, 44, 64
1, 962160, Note_on_c, 9, 35, 72
1, 962400, Note_off_c, 9, 35, 64
1, 962400, Note_on_c, 9, 38, 72
1, 962400, Note_on_c, 9, 57, 72
1, 962400, Note_on_c, 9, 44, 72
1, 962640, Note_off_c, 9, 38, 64
1, 962640, Note_off_c, 9, 57, 64
1, 962640, Note_off_c, 9, 44, 64
1, 962640, Note_on_c, 9, 35, 72
1, 962880, Note_off_c, 9, 35, 64
1, 962880, Note_on_c, 9, 35, 72
1, 962880, Note_on_c, 9, 57, 72
1, 962880, Note_on_c, 9, 44, 72
1, 963120, Note_off_c, 9, 35, 64
1, 963120, Note_off_c, 9, 57, 64
1, 963120, Note_off_c, 9, 44, 64
1, 963120, Note_on_c, 9, 35, 72
1, 963360, Note_off_c, 9, 35, 64
1, 963360, Note_on_c, 9, 38, 72
1, 963360, Note_on_c, 9, 57, 72
1, 963360, Note_on_c, 9, 44, 72
1, 963600, Note_off_c, 9, 38, 64
1, 963600, Note_off_c, 9, 57, 64
1, 963600, Note_off_c, 9, 44, 64
1, 963600, Note_on_c, 9, 35, 72
1, 963840, Note_off_c, 9, 35, 64
1, 963840, Note_on_c, 9, 35, 72
1, 963840, Note_on_c, 9, 44, 72
1, 964080, Note_off_c, 9, 35, 64
1, 964080, Note_off_c, 9, 44, 64
1, 964080, Note_on_c, 9, 35, 72
1, 964320, Note_off_c, 9, 35, 64
1, 964320, Note_on_c, 9, 38, 72
1, 964320, Note_on_c, 9, 44, 72
1, 964560, Note_off_c, 9, 38, 64
1, 964560, Note_off_c, 9, 44, 64
1, 964560, Note_on_c, 9, 35, 72
1, 964800, Note_off_c, 9, 35, 64
1, 964800, Note_on_c, 9, 35, 72
1, 964800, Note_on_c, 9, 44, 72
1, 965040, Note_off_c, 9, 35, 64
1, 965040, Note_off_c, 9, 44, 64
1, 965040, Note_on_c, 9, 35, 72
1, 965280, Note_off_c, 9, 35, 64
1, 965280, Note_on_c, 9, 38, 72
1, 965280, Note_on_c, 9, 44, 72
1, 965520, Note_off_c, 9, 38, 64
1, 965520, Note_off_c, 9, 44, 64
1, 965520, Note_on_c, 9, 35, 72
1, 965760, Note_off_c, 9, 35, 64
1, 965760, Note_on_c, 9, 35, 72
1, 965760, Note_on_c, 9, 44, 72
1, 966000, Note_off_c, 9, 35, 64
1, 966000, Note_off_c, 9, 44, 64
1, 966000, Note_on_c, 9, 35, 72
1, 966240, Note_off_c, 9, 35, 64
1, 966240, Note_on_c, 9, 38, 72
1, 966240, Note_on_c, 9, 44, 72
1, 966480, Note_off_c, 9, 38, 64
1, 966480, Note_off_c, 9, 44, 64
1, 966480, Note_on_c, 9, 35, 72
1, 966720, Note_off_c, 9, 35, 64
1, 966720, Note_on_c, 9, 35, 72
1, 966720, Note_on_c, 9, 44, 72
1, 966960, Note_off_c, 9, 35, 64
1, 966960, Note_off_c, 9, 44, 64
1, 966960, Note_on_c, 9, 35, 72
1, 967200, Note_off_c, 9, 35, 64
1, 967200, Note_on_c, 9, 38, 72
1, 967200, Note_on_c, 9, 44, 72
1, 967440, Note_off_c, 9, 38, 64
1, 967440, Note_off_c, 9, 44, 64
1, 967440, Note_on_c, 9, 35, 72
1, 967680, Note_off_c, 9, 35, 64
1, 967680, Note_on_c, 9, 35, 72
1, 967680, Note_on_c, 9, 57, 72
1, 967680, Note_on_c, 9, 44, 72
1, 967920, Note_off_c, 9, 35, 64
1, 967920, Note_off_c, 9, 57, 64
1, 967920, Note_off_c, 9, 44, 64
1, 967920, Note_on_c, 9, 35, 72
1, 968160, Note_off_c, 9, 35, 64
1, 968160, Note_on_c, 9, 38, 72
1, 968160, Note_on_c, 9, 57, 72
1, 968160, Note_on_c, 9, 44, 72
1, 968400, Note_off_c, 9, 38, 64
1, 968400, Note_off_c, 9, 57, 64
1, 968400, Note_off_c, 9, 44, 64
1, 968400, Note_on_c, 9, 35, 72
1, 968640, Note_off_c, 9, 35, 64
1, 968640, Note_on_c, 9, 35, 72
1, 968640, Note_on_c, 9, 57, 72
1, 968640, Note_on_c, 9, 44, 72
1, 968880, Note_off_c, 9, 35, 64
1, 968880, Note_off_c, 9, 57, 64
1, 968880, Note_off_c, 9, 44, 64
1, 968880, Note_on_c, 9, 35, 72
1, 969120, Note_off_c, 9, 35, 64
1, 969120, Note_on_c, 9, 38, 72
1, 969120, Note_on_c, 9, 57, 72
1, 969120, Note_on_c, 9, 44, 72
1, 969360, Note_off_c, 9, 38, 64
1, 969360, Note_off_c, 9, 57, 64
1, 969360, Note_off_c, 9, 44, 64
1, 969360, Note_on_c, 9, 35, 72
1, 969600, Note_off_c, 9, 35, 64
1, 969600, Note_on_c, 9, 35, 72
1, 969600, Note_on_c, 9, 57, 72
1, 969600, Note_on_c, 9, 44, 72
1, 969840, Note_off_c, 9, 35, 64
1, 969840, Note_off_c, 9, 57, 64
1, 969840, Note_off_c, 9, 44, 64
1, 969840, Note_on_c, 9, 35, 72
1, 970080, Note_off_c, 9, 35, 64
1, 970080, Note_on_c, 9, 38, 72
1, 970080, Note_on_c, 9, 57, 72
1, 970080, Note_on_c, 9, 44, 72
1, 970320, Note_off_c, 9, 38, 64
1, 970320, Note_off_c, 9, 57, 64
1, 970320, Note_off_c, 9, 44, 64
1, 970320, Note_on_c, 9, 35, 72
1, 970560, Note_off_c, 9, 35, 64
1, 970560, Note_on_c, 9, 35, 72
1, 970560, Note_on_c, 9, 57, 72
1, 970560, Note_on_c, 9, 44, 72
1, 970800, Note_off_c, 9, 35, 64
1, 970800, Note_off_c, 9, 57, 64
1, 970800, Note_off_c, 9, 44, 64
1, 970800, Note_on_c, 9, 35, 72
1, 971040, Note_off_c, 9, 35, 64
1, 971040, Note_on_c, 9, 38, 72
1, 971040, Note_on_c, 9, 57, 72
1, 971040, Note_on_c, 9, 44, 72
1, 971280, Note_off_c, 9, 38, 64
1, 971280, Note_off_c, 9, 57, 64
1, 971280, Note_off_c, 9, 44, 64
1, 971280, Note_on_c, 9, 35, 72
1, 971520, Note_off_c, 9, 35, 64
1, 971520, Note_on_c, 9, 35, 72
1, 971520, Note_on_c, 9, 44, 72
1, 971760, Note_off_c, 9, 35, 64
1, 971760, Note_off_c, 9, 44, 64
1, 971760, Note_on_c, 9, 35, 72
1, 972000, Note_off_c, 9, 35, 64
1, 972000, Note_on_c, 9, 38, 72
1, 972000, Note_on_c, 9, 44, 72
1, 972240, Note_off_c, 9, 38, 64
1, 972240, Note_off_c, 9, 44, 64
1, 972240, Note_on_c, 9, 35, 72
1, 972480, Note_off_c, 9, 35, 64
1, 972480, Note_on_c, 9, 35, 72
1, 972480, Note_on_c, 9, 44, 72
1, 972720, Note_off_c, 9, 35, 64
1, 972720, Note_off_c, 9, 44, 64
1, 972720, Note_on_c, 9, 35, 72
1, 972960, Note_off_c, 9, 35, 64
1, 972960, Note_on_c, 9, 38, 72
1, 972960, Note_on_c, 9, 44, 72
1, 973200, Note_off_c, 9, 38, 64
1, 973200, Note_off_c, 9, 44, 64
1, 973200, Note_on_c, 9, 35, 72
1, 973440, Note_off_c, 9, 35, 64
1, 973440, Note_on_c, 9, 35, 72
1, 973440, Note_on_c, 9, 44, 72
1, 973680, Note_off_c, 9, 35, 64
1, 973680, Note_off_c, 9, 44, 64
1, 973680, Note_on_c, 9, 35, 72
1, 973920, Note_off_c, 9, 35, 64
1, 973920, Note_on_c, 9, 38, 72
1, 973920, Note_on_c, 9, 44, 72
1, 974160, Note_off_c, 9, 38, 64
1, 974160, Note_off_c, 9, 44, 64
1, 974160, Note_on_c, 9, 35, 72
1, 974400, Note_off_c, 9, 35, 64
1, 974400, Note_on_c, 9, 35, 72
1, 974400, Note_on_c, 9, 44, 72
1, 974640, Note_off_c, 9, 35, 64
1, 974640, Note_off_c, 9, 44, 64
1, 974640, Note_on_c, 9, 35, 72
1, 974880, Note_off_c, 9, 35, 64
1, 974880, Note_on_c, 9, 38, 72
1, 974880, Note_on_c, 9, 44, 72
1, 975120, Note_off_c, 9, 38, 64
1, 975120, Note_off_c, 9, 44, 64
1, 975120, Note_on_c, 9, 35, 72
1, 975360, Note_off_c, 9, 35, 64
1, 975360, Note_on_c, 9, 35, 72
1, 975360, Note_on_c, 9, 57, 72
1, 975360, Note_on_c, 9, 44, 72
1, 975600, Note_off_c, 9, 35, 64
1, 975600, Note_off_c, 9, 57, 64
1, 975600, Note_off_c, 9, 44, 64
1, 975600, Note_on_c, 9, 35, 72
1, 975840, Note_off_c, 9, 35, 64
1, 975840, Note_on_c, 9, 38, 72
1, 975840, Note_on_c, 9, 57, 72
1, 975840, Note_on_c, 9, 44, 72
1, 976080, Note_off_c, 9, 38, 64
1, 976080, Note_off_c, 9, 57, 64
1, 976080, Note_off_c, 9, 44, 64
1, 976080, Note_on_c, 9, 35, 72
1, 976320, Note_off_c, 9, 35, 64
1, 976320, Note_on_c, 9, 35, 72
1, 976320, Note_on_c, 9, 57, 72
1, 976320, Note_on_c, 9, 44, 72
1, 976560, Note_off_c, 9, 35, 64
1, 976560, Note_off_c, 9, 57, 64
1, 976560, Note_off_c, 9, 44, 64
1, 976560, Note_on_c, 9, 35, 72
1, 976800, Note_off_c, 9, 35, 64
1, 976800, Note_on_c, 9, 38, 72
1, 976800, Note_on_c, 9, 57, 72
1, 976800, Note_on_c, 9, 44, 72
1, 977040, Note_off_c, 9, 38, 64
1, 977040, Note_off_c, 9, 57, 64
1, 977040, Note_off_c, 9, 44, 64
1, 977040, Note_on_c, 9, 35, 72
1, 977280, Note_off_c, 9, 35, 64
1, 977280, Note_on_c, 9, 35, 72
1, 977280, Note_on_c, 9, 57, 72
1, 977280, Note_on_c, 9, 44, 72
1, 977520, Note_off_c, 9, 35, 64
1, 977520, Note_off_c, 9, 57, 64
1, 977520, Note_off_c, 9, 44, 64
1, 977520, Note_on_c, 9, 35, 72
1, 977760, Note_off_c, 9, 35, 64
1, 977760, Note_on_c, 9, 38, 72
1, 977760, Note_on_c, 9, 57, 72
1, 977760, Note_on_c, 9, 44, 72
1, 978000, Note_off_c, 9, 38, 64
1, 978000, Note_off_c, 9, 57, 64
1, 978000, Note_off_c, 9, 44, 64
1, 978000, Note_on_c, 9, 35, 72
1, 978240, Note_off_c, 9, 35, 64
1, 978240, Note_on_c, 9, 35, 72
1, 978240, Note_on_c, 9, 57, 72
1, 978240, Note_on_c, 9, 44, 72
1, 978480, Note_off_c, 9, 35, 64
1, 978480, Note_off_c, 9, 57, 64
1, 978480, Note_off_c, 9, 44, 64
1, 978480, Note_on_c, 9, 35, 72
1, 978720, Note_off_c, 9, 35, 64
1, 978720, Note_on_c, 9, 38, 72
1, 978720, Note_on_c, 9, 57, 72
1, 978720, Note_on_c, 9, 44, 72
1, 978960, Note_off_c, 9, 38, 64
1, 978960, Note_off_c, 9, 57, 64
1, 978960, Note_off_c, 9, 44, 64
1, 978960, Note_on_c, 9, 35, 72
1, 979200, Note_off_c, 9, 35, 64
1, 979200, Note_on_c, 9, 35, 72
1, 979200, Note_on_c, 9, 44, 72
1, 979440, Note_off_c, 9, 35, 64
1, 979440, Note_off_c, 9, 44, 64
1, 979440, Note_on_c, 9, 35, 72
1, 979680, Note_off_c, 9, 35, 64
1, 979680, Note_on_c, 9, 38, 72
1, 979680, Note_on_c, 9, 44, 72
1, 979920, Note_off_c, 9, 38, 64
1, 979920, Note_off_c, 9, 44, 64
1, 979920, Note_on_c, 9, 35, 72
1, 980160, Note_off_c, 9, 35, 64
1, 980160, Note_on_c, 9, 35, 72
1, 980160, Note_on_c, 9, 44, 72
1, 980400, Note_off_c, 9, 35, 64
1, 980400, Note_off_c, 9, 44, 64
1, 980400, Note_on_c, 9, 35, 72
1, 980640, Note_off_c, 9, 35, 64
1, 980640, Note_on_c, 9, 38, 72
1, 980640, Note_on_c, 9, 44, 72
1, 980880, Note_off_c, 9, 38, 64
1, 980880, Note_off_c, 9, 44, 64
1, 980880, Note_on_c, 9, 35, 72
1, 981120, Note_off_c, 9, 35, 64
1, 981120, Note_on_c, 9, 35, 72
1, 981120, Note_on_c, 9, 44, 72
1, 981360, Note_off_c, 9, 35, 64
1, 981360, Note_off_c, 9, 44, 64
1, 981360, Note_on_c, 9, 35, 72
1, 981600, Note_off_c, 9, 35, 64
1, 981600, Note_on_c, 9, 38, 72
1, 981600, Note_on_c, 9, 44, 72
1, 981840, Note_off_c, 9, 38, 64
1, 981840, Note_off_c, 9, 44, 64
1, 981840, Note_on_c, 9, 35, 72
1, 982080, Note_off_c, 9, 35, 64
1, 982080, Note_on_c, 9, 35, 72
1, 982080, Note_on_c, 9, 44, 72
1, 982320, Note_off_c, 9, 35, 64
1, 982320, Note_off_c, 9, 44, 64
1, 982320, Note_on_c, 9, 35, 72
1, 982560, Note_off_c, 9, 35, 64
1, 982560, Note_on_c, 9, 38, 72
1, 982560, Note_on_c, 9, 44, 72
1, 982800, Note_off_c, 9, 38, 64
1, 982800, Note_off_c, 9, 44, 64
1, 982800, Note_on_c, 9, 35, 72
1, 983040, Note_off_c, 9, 35, 64
1, 983040, Note_on_c, 9, 35, 72
1, 983040, Note_on_c, 9, 57, 72
1, 983040, Note_on_c, 9, 44, 72
1, 983280, Note_off_c, 9, 35, 64
1, 983280, Note_off_c, 9, 57, 64
1, 983280, Note_off_c, 9, 44, 64
1, 983280, Note_on_c, 9, 35, 72
1, 983520, Note_off_c, 9, 35, 64
1, 983520, Note_on_c, 9, 38, 72
1, 983520, Note_on_c, 9, 57, 72
1, 983520, Note_on_c, 9, 44, 72
1, 983760, Note_off_c, 9, 38, 64
1, 983760, Note_off_c, 9, 57, 64
1, 983760, Note_off_c, 9, 44, 64
1, 983760, Note_on_c, 9, 35, 72
1, 984000, Note_off_c, 9, 35, 64
1, 984000, Note_on_c, 9, 35, 72
1, 984000, Note_on_c, 9, 57, 72
1, 984000, Note_on_c, 9, 44, 72
1, 984240, Note_off_c, 9, 35, 64
1, 984240, Note_off_c, 9, 57, 64
1, 984240, Note_off_c, 9, 44, 64
1, 984240, Note_on_c, 9, 35, 72
1, 984480, Note_off_c, 9, 35, 64
1, 984480, Note_on_c, 9, 38, 72
1, 984480, Note_on_c, 9, 57, 72
1, 984480, Note_on_c, 9, 44, 72
1, 984720, Note_off_c, 9, 38, 64
1, 984720, Note_off_c, 9, 57, 64
1, 984720, Note_off_c, 9, 44, 64
1, 984720, Note_on_c, 9, 35, 72
1, 984960, Note_off_c, 9, 35, 64
1, 984960, Note_on_c, 9, 35, 72
1, 984960, Note_on_c, 9, 57, 72
1, 984960, Note_on_c, 9, 44, 72
1, 985200, Note_off_c, 9, 35, 64
1, 985200, Note_off_c, 9, 57, 64
1, 985200, Note_off_c, 9, 44, 64
1, 985200, Note_on_c, 9, 35, 72
1, 985440, Note_off_c, 9, 35, 64
1, 985440, Note_on_c, 9, 38, 72
1, 985440, Note_on_c, 9, 57, 72
1, 985440, Note_on_c, 9, 44, 72
1, 985680, Note_off_c, 9, 38, 64
1, 985680, Note_off_c, 9, 57, 64
1, 985680, Note_off_c, 9, 44, 64
1, 985680, Note_on_c, 9, 35, 72
1, 985920, Note_off_c, 9, 35, 64
1, 985920, Note_on_c, 9, 35, 72
1, 985920, Note_on_c, 9, 57, 72
1, 985920, Note_on_c, 9, 44, 72
1, 986160, Note_off_c, 9, 35, 64
1, 986160, Note_off_c, 9, 57, 64
1, 986160, Note_off_c, 9, 44, 64
1, 986160, Note_on_c, 9, 35, 72
1, 986400, Note_off_c, 9, 35, 64
1, 986400, Note_on_c, 9, 38, 72
1, 986400, Note_on_c, 9, 57, 72
1, 986400, Note_on_c, 9, 44, 72
1, 986640, Note_off_c, 9, 38, 64
1, 986640, Note_off_c, 9, 57, 64
1, 986640, Note_off_c, 9, 44, 64
1, 986640, Note_on_c, 9, 35, 72
1, 986880, Note_off_c, 9, 35, 64
1, 986880, Note_on_c, 9, 35, 72
1, 986880, Note_on_c, 9, 44, 72
1, 987120, Note_off_c, 9, 35, 64
1, 987120, Note_off_c, 9, 44, 64
1, 987120, Note_on_c, 9, 35, 72
1, 987360, Note_off_c, 9, 35, 64
1, 987360, Note_on_c, 9, 38, 72
1, 987360, Note_on_c, 9, 44, 72
1, 987600, Note_off_c, 9, 38, 64
1, 987600, Note_off_c, 9, 44, 64
1, 987600, Note_on_c, 9, 35, 72
1, 987840, Note_off_c, 9, 35, 64
1, 987840, Note_on_c, 9, 35, 72
1, 987840, Note_on_c, 9, 44, 72
1, 988080, Note_off_c, 9, 35, 64
1, 988080, Note_off_c, 9, 44, 64
1, 988080, Note_on_c, 9, 35, 72
1, 988320, Note_off_c, 9, 35, 64
1, 988320, Note_on_c, 9, 38, 72
1, 988320, Note_on_c, 9, 44, 72
1, 988560, Note_off_c, 9, 38, 64
1, 988560, Note_off_c, 9, 44, 64
1, 988560, Note_on_c, 9, 35, 72
1, 988800, Note_off_c, 9, 35, 64
1, 988800, Note_on_c, 9, 35, 72
1, 988800, Note_on_c, 9, 44, 72
1, 989040, Note_off_c, 9, 35, 64
1, 989040, Note_off_c, 9, 44, 64
1, 989040, Note_on_c, 9, 35, 72
1, 989280, Note_off_c, 9, 35, 64
1, 989280, Note_on_c, 9, 38, 72
1, 989280, Note_on_c, 9, 44, 72
1, 989520, Note_off_c, 9, 38, 64
1, 989520, Note_off_c, 9, 44, 64
1, 989520, Note_on_c, 9, 35, 72
1, 989760, Note_off_c, 9, 35, 64
1, 989760, Note_on_c, 9, 35, 72
1, 989760, Note_on_c, 9, 44, 72
1, 990000, Note_off_c, 9, 35, 64
1, 990000, Note_off_c, 9, 44, 64
1, 990000, Note_on_c, 9, 35, 72
1, 990240, Note_off_c, 9, 35, 64
1, 990240, Note_on_c, 9, 38, 72
1, 990240, Note_on_c, 9, 44, 72
1, 990480, Note_off_c, 9, 38, 64
1, 990480, Note_off_c, 9, 44, 64
1, 990480, Note_on_c, 9, 35, 72
1, 990720, Note_off_c, 9, 35, 64
1, 990720, Note_on_c, 9, 35, 72
1, 990720, Note_on_c, 9, 57, 72
1, 990720, Note_on_c, 9, 44, 72
1, 990960, Note_off_c, 9, 35, 64
1, 990960, Note_off_c, 9, 57, 64
1, 990960, Note_off_c, 9, 44, 64
1, 990960, Note_on_c, 9, 35, 72
1, 991200, Note_off_c, 9, 35, 64
1, 991200, Note_on_c, 9, 38, 72
1, 991200, Note_on_c, 9, 57, 72
1, 991200, Note_on_c, 9, 44, 72
1, 991440, Note_off_c, 9, 38, 64
1, 991440, Note_off_c, 9, 57, 64
1, 991440, Note_off_c, 9, 44, 64
1, 991440, Note_on_c, 9, 35, 72
1, 991680, Note_off_c, 9, 35, 64
1, 991680, Note_on_c, 9, 35, 72
1, 991680, Note_on_c, 9, 57, 72
1, 991680, Note_on_c, 9, 44, 72
1, 991920, Note_off_c, 9, 35, 64
1, 991920, Note_off_c, 9, 57, 64
1, 991920, Note_off_c, 9, 44, 64
1, 991920, Note_on_c, 9, 35, 72
1, 992160, Note_off_c, 9, 35, 64
1, 992160, Note_on_c, 9, 38, 72
1, 992160, Note_on_c, 9, 57, 72
1, 992160, Note_on_c, 9, 44, 72
1, 992400, Note_off_c, 9, 38, 64
1, 992400, Note_off_c, 9, 57, 64
1, 992400, Note_off_c, 9, 44, 64
1, 992400, Note_on_c, 9, 35, 72
1, 992640, Note_off_c, 9, 35, 64
1, 992640, Note_on_c, 9, 35, 72
1, 992640, Note_on_c, 9, 57, 72
1, 992640, Note_on_c, 9, 44, 72
1, 992880, Note_off_c, 9, 35, 64
1, 992880, Note_off_c, 9, 57, 64
1, 992880, Note_off_c, 9, 44, 64
1, 992880, Note_on_c, 9, 35, 72
1, 993120, Note_off_c, 9, 35, 64
1, 993120, Note_on_c, 9, 38, 72
1, 993120, Note_on_c, 9, 57, 72
1, 993120, Note_on_c, 9, 44, 72
1, 993360, Note_off_c, 9, 38, 64
1, 993360, Note_off_c, 9, 57, 64
1, 993360, Note_off_c, 9, 44, 64
1, 993360, Note_on_c, 9, 35, 72
1, 993600, Note_off_c, 9, 35, 64
1, 993600, Note_on_c, 9, 35, 72
1, 993600, Note_on_c, 9, 57, 72
1, 993600, Note_on_c, 9, 44, 72
1, 993840, Note_off_c, 9, 35, 64
1, 993840, Note_off_c, 9, 57, 64
1, 993840, Note_off_c, 9, 44, 64
1, 993840, Note_on_c, 9, 35, 72
1, 994080, Note_off_c, 9, 35, 64
1, 994080, Note_on_c, 9, 38, 72
1, 994080, Note_on_c, 9, 57, 72
1, 994080, Note_on_c, 9, 44, 72
1, 994320, Note_off_c, 9, 38, 64
1, 994320, Note_off_c, 9, 57, 64
1, 994320, Note_off_c, 9, 44, 64
1, 994320, Note_on_c, 9, 35, 72
1, 994560, Note_off_c, 9, 35, 64
1, 994560, Note_on_c, 9, 35, 72
1, 994560, Note_on_c, 9, 44, 72
1, 994800, Note_off_c, 9, 35, 64
1, 994800, Note_off_c, 9, 44, 64
1, 994800, Note_on_c, 9, 35, 72
1, 995040, Note_off_c, 9, 35, 64
1, 995040, Note_on_c, 9, 38, 72
1, 995040, Note_on_c, 9, 44, 72
1, 995280, Note_off_c, 9, 38, 64
1, 995280, Note_off_c, 9, 44, 64
1, 995280, Note_on_c, 9, 35, 72
1, 995520, Note_off_c, 9, 35, 64
1, 995520, Note_on_c, 9, 35, 72
1, 995520, Note_on_c, 9, 44, 72
1, 995760, Note_off_c, 9, 35, 64
1, 995760, Note_off_c, 9, 44, 64
1, 995760, Note_on_c, 9, 35, 72
1, 996000, Note_off_c, 9, 35, 64
1, 996000, Note_on_c, 9, 38, 72
1, 996000, Note_on_c, 9, 44, 72
1, 996240, Note_off_c, 9, 38, 64
1, 996240, Note_off_c, 9, 44, 64
1, 996240, Note_on_c, 9, 35, 72
1, 996480, Note_off_c, 9, 35, 64
1, 996480, Note_on_c, 9, 35, 72
1, 996480, Note_on_c, 9, 44, 72
1, 996720, Note_off_c, 9, 35, 64
1, 996720, Note_off_c, 9, 44, 64
1, 996720, Note_on_c, 9, 35, 72
1, 996960, Note_off_c, 9, 35, 64
1, 996960, Note_on_c, 9, 38, 72
1, 996960, Note_on_c, 9, 44, 72
1, 997200, Note_off_c, 9, 38, 64
1, 997200, Note_off_c, 9, 44, 64
1, 997200, Note_on_c, 9, 35, 72
1, 997440, Note_off_c, 9, 35, 64
1, 997440, Note_on_c, 9, 35, 72
1, 997440, Note_on_c, 9, 44, 72
1, 997680, Note_off_c, 9, 35, 64
1, 997680, Note_off_c, 9, 44, 64
1, 997680, Note_on_c, 9, 35, 72
1, 997920, Note_off_c, 9, 35, 64
1, 997920, Note_on_c, 9, 38, 72
1, 997920, Note_on_c, 9, 44, 72
1, 998160, Note_off_c, 9, 38, 64
1, 998160, Note_off_c, 9, 44, 64
1, 998160, Note_on_c, 9, 35, 72
1, 998400, Note_off_c, 9, 35, 64
1, 998400, Note_on_c, 9, 35, 72
1, 998400, Note_on_c, 9, 57, 72
1, 998400, Note_on_c, 9, 44, 72
1, 998640, Note_off_c, 9, 35, 64
1, 998640, Note_off_c, 9, 57, 64
1, 998640, Note_off_c, 9, 44, 64
1, 998640, Note_on_c, 9, 35, 72
1, 998880, Note_off_c, 9, 35, 64
1, 998880, Note_on_c, 9, 38, 72
1, 998880, Note_on_c, 9, 57, 72
1, 998880, Note_on_c, 9, 44, 72
1, 999120, Note_off_c, 9, 38, 64
1, 999120, Note_off_c, 9, 57, 64
1, 999120, Note_off_c, 9, 44, 64
1, 999120, Note_on_c, 9, 35, 72
1, 999360, Note_off_c, 9, 35, 64
1, 999360, Note_on_c, 9, 35, 72
1, 999360, Note_on_c, 9, 57, 72
1, 999360, Note_on_c, 9, 44, 72
1, 999600, Note_off_c, 9, 35, 64
1, 999600, Note_off_c, 9, 57, 64
1, 999600, Note_off_c, 9, 44, 64
1, 999600, Note_on_c, 9, 35, 72
1, 999840, Note_off_c, 9, 35, 64
1, 999840, Note_on_c, 9, 38, 72
1, 999840, Note_on_c, 9, 57, 72
1, 999840, Note_on_c, 9, 44, 72
1, 1000080, Note_off_c, 9, 38, 64
1, 1000080, Note_off_c, 9, 57, 64
1, 1000080, Note_off_c, 9, 44, 64
1, 1000080, Note_on_c, 9, 35, 72
1, 1000320, Note_off_c, 9, 35, 64
1, 1000320, Note_on_c, 9, 35, 72
1, 1000320, Note_on_c, 9, 57, 72
1, 1000320, Note_on_c, 9, 44, 72
1, 1000560, Note_off_c, 9, 35, 64
1, 1000560, Note_off_c, 9, 57, 64
1, 1000560, Note_off_c, 9, 44, 64
1, 1000560, Note_on_c, 9, 35, 72
1, 1000800, Note_off_c, 9, 35, 64
1, 1000800, Note_on_c, 9, 38, 72
1, 1000800, Note_on_c, 9, 57, 72
1, 1000800, Note_on_c, 9, 44, 72
1, 1001040, Note_off_c, 9, 38, 64
1, 1001040, Note_off_c, 9, 57, 64
1, 1001040, Note_off_c, 9, 44, 64
1, 1001040, Note_on_c, 9, 35, 72
1, 1001280, Note_off_c, 9, 35, 64
1, 1001280, Note_on_c, 9, 35, 72
1, 1001280, Note_on_c, 9, 57, 72
1, 1001280, Note_on_c, 9, 44, 72
1, 1001520, Note_off_c, 9, 35, 64
1, 1001520, Note_off_c, 9, 57, 64
1, 1001520, Note_off_c, 9, 44, 64
1, 1001520, Note_on_c, 9, 35, 72
1, 1001760, Note_off_c, 9, 35, 64
1, 1001760, Note_on_c, 9, 38, 72
1, 1001760, Note_on_c, 9, 57, 72
1, 1001760, Note_on_c, 9, 44, 72
1, 1002000, Note_off_c, 9, 38, 64
1, 1002000, Note_off_c, 9, 57, 64
1, 1002000, Note_off_c, 9, 44, 64
1, 1002000, Note_on_c, 9, 35, 72
1, 1002240, Note_off_c, 9, 35, 64
1, 1002240, Note_on_c, 9, 35, 72
1, 1002240, Note_on_c, 9, 44, 72
1, 1002480, Note_off_c, 9, 35, 64
1, 1002480, Note_off_c, 9, 44, 64
1, 1002480, Note_on_c, 9, 35, 72
1, 1002720, Note_off_c, 9, 35, 64
1, 1002720, Note_on_c, 9, 38, 72
1, 1002720, Note_on_c, 9, 44, 72
1, 1002960, Note_off_c, 9, 38, 64
1, 1002960, Note_off_c, 9, 44, 64
1, 1002960, Note_on_c, 9, 35, 72
1, 1003200, Note_off_c, 9, 35, 64
1, 1003200, Note_on_c, 9, 35, 72
1, 1003200, Note_on_c, 9, 44, 72
1, 1003440, Note_off_c, 9, 35, 64
1, 1003440, Note_off_c, 9, 44, 64
1, 1003440, Note_on_c, 9, 35, 72
1, 1003680, Note_off_c, 9, 35, 64
1, 1003680, Note_on_c, 9, 38, 72
1, 1003680, Note_on_c, 9, 44, 72
1, 1003920, Note_off_c, 9, 38, 64
1, 1003920, Note_off_c, 9, 44, 64
1, 1003920, Note_on_c, 9, 35, 72
1, 1004160, Note_off_c, 9, 35, 64
1, 1004160, Note_on_c, 9, 35, 72
1, 1004160, Note_on_c, 9, 44, 72
1, 1004400, Note_off_c, 9, 35, 64
1, 1004400, Note_off_c, 9, 44, 64
1, 1004400, Note_on_c, 9, 35, 72
1, 1004640, Note_off_c, 9, 35, 64
1, 1004640, Note_on_c, 9, 38, 72
1, 1004640, Note_on_c, 9, 44, 72
1, 1004880, Note_off_c, 9, 38, 64
1, 1004880, Note_off_c, 9, 44, 64
1, 1004880, Note_on_c, 9, 35, 72
1, 1005120, Note_off_c, 9, 35, 64
1, 1005120, Note_on_c, 9, 35, 72
1, 1005120, Note_on_c, 9, 44, 72
1, 1005360, Note_off_c, 9, 35, 64
1, 1005360, Note_off_c, 9, 44, 64
1, 1005360, Note_on_c, 9, 35, 72
1, 1005600, Note_off_c, 9, 35, 64
1, 1005600, Note_on_c, 9, 38, 72
1, 1005600, Note_on_c, 9, 44, 72
1, 1005840, Note_off_c, 9, 38, 64
1, 1005840, Note_off_c, 9, 44, 64
1, 1005840, Note_on_c, 9, 35, 72
1, 1006080, Note_off_c, 9, 35, 64
1, 1006080, Note_on_c, 9, 35, 72
1, 1006080, Note_on_c, 9, 57, 72
1, 1006080, Note_on_c, 9, 44, 72
1, 1006320, Note_off_c, 9, 35, 64
1, 1006320, Note_off_c, 9, 57, 64
1, 1006320, Note_off_c, 9, 44, 64
1, 1006320, Note_on_c, 9, 35, 72
1, 1006560, Note_off_c, 9, 35, 64
1, 1006560, Note_on_c, 9, 38, 72
1, 1006560, Note_on_c, 9, 57, 72
1, 1006560, Note_on_c, 9, 44, 72
1, 1006800, Note_off_c, 9, 38, 64
1, 1006800, Note_off_c, 9, 57, 64
1, 1006800, Note_off_c, 9, 44, 64
1, 1006800, Note_on_c, 9, 35, 72
1, 1007040, Note_off_c, 9, 35, 64
1, 1007040, Note_on_c, 9, 35, 72
1, 1007040, Note_on_c, 9, 57, 72
1, 1007040, Note_on_c, 9, 44, 72
1, 1007280, Note_off_c, 9, 35, 64
1, 1007280, Note_off_c, 9, 57, 64
1, 1007280, Note_off_c, 9, 44, 64
1, 1007280, Note_on_c, 9, 35, 72
1, 1007520, Note_off_c, 9, 35, 64
1, 1007520, Note_on_c, 9, 38, 72
1, 1007520, Note_on_c, 9, 57, 72
1, 1007520, Note_on_c, 9, 44, 72
1, 1007760, Note_off_c, 9, 38, 64
1, 1007760, Note_off_c, 9, 57, 64
1, 1007760, Note_off_c, 9, 44, 64
1, 1007760, Note_on_c, 9, 35, 72
1, 1008000, Note_off_c, 9, 35, 64
1, 1008000, Note_on_c, 9, 35, 72
1, 1008000, Note_on_c, 9, 57, 72
1, 1008000, Note_on_c, 9, 44, 72
1, 1008240, Note_off_c, 9, 35, 64
1, 1008240, Note_off_c, 9, 57, 64
1, 1008240, Note_off_c, 9, 44, 64
1, 1008240, Note_on_c, 9, 35, 72
1, 1008480, Note_off_c, 9, 35, 64
1, 1008480, Note_on_c, 9, 38, 72
1, 1008480, Note_on_c, 9, 57, 72
1, 1008480, Note_on_c, 9, 44, 72
1, 1008720, Note_off_c, 9, 38, 64
1, 1008720, Note_off_c, 9, 57, 64
1, 1008720, Note_off_c, 9, 44, 64
1, 1008720, Note_on_c, 9, 35, 72
1, 1008960, Note_off_c, 9, 35, 64
1, 1008960, Note_on_c, 9, 35, 72
1, 1008960, Note_on_c, 9, 57, 72
1, 1008960, Note_on_c, 9, 44, 72
1, 1009200, Note_off_c, 9, 35, 64
1, 1009200, Note_off_c, 9, 57, 64
1, 1009200, Note_off_c, 9, 44, 64
1, 1009200, Note_on_c, 9, 35, 72
1, 1009440, Note_off_c, 9, 35, 64
1, 1009440, Note_on_c, 9, 38, 72
1, 1009440, Note_on_c, 9, 57, 72
1, 1009440, Note_on_c, 9, 44, 72
1, 1009680, Note_off_c, 9, 38, 64
1, 1009680, Note_off_c, 9, 57, 64
1, 1009680, Note_off_c, 9, 44, 64
1, 1009680, Note_on_c, 9, 35, 72
1, 1009920, Note_off_c, 9, 35, 64
1, 1009920, Note_on_c, 9, 35, 72
1, 1009920, Note_on_c, 9, 44, 72
1, 1010160, Note_off_c, 9, 35, 64
1, 1010160, Note_off_c, 9, 44, 64
1, 1010160, Note_on_c, 9, 35, 72
1, 1010400, Note_off_c, 9, 35, 64
1, 1010400, Note_on_c, 9, 38, 72
1, 1010400, Note_on_c, 9, 44, 72
1, 1010640, Note_off_c, 9, 38, 64
1, 1010640, Note_off_c, 9, 44, 64
1, 1010640, Note_on_c, 9, 35, 72
1, 1010880, Note_off_c, 9, 35, 64
1, 1010880, Note_on_c, 9, 35, 72
1, 1010880, Note_on_c, 9, 44, 72
1, 1011120, Note_off_c, 9, 35, 64
1, 1011120, Note_off_c, 9, 44, 64
1, 1011120, Note_on_c, 9, 35, 72
1, 1011360, Note_off_c, 9, 35, 64
1, 1011360, Note_on_c, 9, 38, 72
1, 1011360, Note_on_c, 9, 44, 72
1, 1011600, Note_off_c, 9, 38, 64
1, 1011600, Note_off_c, 9, 44, 64
1, 1011600, Note_on_c, 9, 35, 72
1, 1011840, Note_off_c, 9, 35, 64
1, 1011840, Note_on_c, 9, 35, 72
1, 1011840, Note_on_c, 9, 44, 72
1, 1012080, Note_off_c, 9, 35, 64
1, 1012080, Note_off_c, 9, 44, 64
1, 1012080, Note_on_c, 9, 35, 72
1, 1012320, Note_off_c, 9, 35, 64
1, 1012320, Note_on_c, 9, 38, 72
1, 1012320, Note_on_c, 9, 44, 72
1, 1012560, Note_off_c, 9, 38, 64
1, 1012560, Note_off_c, 9, 44, 64
1, 1012560, Note_on_c, 9, 35, 72
1, 1012800, Note_off_c, 9, 35, 64
1, 1012800, Note_on_c, 9, 35, 72
1, 1012800, Note_on_c, 9, 44, 72
1, 1013040, Note_off_c, 9, 35, 64
1, 1013040, Note_off_c, 9, 44, 64
1, 1013040, Note_on_c, 9, 35, 72
1, 1013280, Note_off_c, 9, 35, 64
1, 1013280, Note_on_c, 9, 38, 72
1, 1013280, Note_on_c, 9, 44, 72
1, 1013520, Note_off_c, 9, 38, 64
1, 1013520, Note_off_c, 9, 44, 64
1, 1013520, Note_on_c, 9, 35, 72
1, 1013760, Note_off_c, 9, 35, 64
1, 1013760, Note_on_c, 9, 35, 72
1, 1013760, Note_on_c, 9, 57, 72
1, 1013760, Note_on_c, 9, 44, 72
1, 1014000, Note_off_c, 9, 35, 64
1, 1014000, Note_off_c, 9, 57, 64
1, 1014000, Note_off_c, 9, 44, 64
1, 1014000, Note_on_c, 9, 35, 72
1, 1014240, Note_off_c, 9, 35, 64
1, 1014240, Note_on_c, 9, 38, 72
1, 1014240, Note_on_c, 9, 57, 72
1, 1014240, Note_on_c, 9, 44, 72
1, 1014480, Note_off_c, 9, 38, 64
1, 1014480, Note_off_c, 9, 57, 64
1, 1014480, Note_off_c, 9, 44, 64
1, 1014480, Note_on_c, 9, 35, 72
1, 1014720, Note_off_c, 9, 35, 64
1, 1014720, Note_on_c, 9, 35, 72
1, 1014720, Note_on_c, 9, 57, 72
1, 1014720, Note_on_c, 9, 44, 72
1, 1014960, Note_off_c, 9, 35, 64
1, 1014960, Note_off_c, 9, 57, 64
1, 1014960, Note_off_c, 9, 44, 64
1, 1014960, Note_on_c, 9, 35, 72
1, 1015200, Note_off_c, 9, 35, 64
1, 1015200, Note_on_c, 9, 38, 72
1, 1015200, Note_on_c, 9, 57, 72
1, 1015200, Note_on_c, 9, 44, 72
1, 1015440, Note_off_c, 9, 38, 64
1, 1015440, Note_off_c, 9, 57, 64
1, 1015440, Note_off_c, 9, 44, 64
1, 1015440, Note_on_c, 9, 35, 72
1, 1015680, Note_off_c, 9, 35, 64
1, 1015680, Note_on_c, 9, 35, 72
1, 1015680, Note_on_c, 9, 57, 72
1, 1015680, Note_on_c, 9, 44, 72
1, 1015920, Note_off_c, 9, 35, 64
1, 1015920, Note_off_c, 9, 57, 64
1, 1015920, Note_off_c, 9, 44, 64
1, 1015920, Note_on_c, 9, 35, 72
1, 1016160, Note_off_c, 9, 35, 64
1, 1016160, Note_on_c, 9, 38, 72
1, 1016160, Note_on_c, 9, 57, 72
1, 1016160, Note_on_c, 9, 44, 72
1, 1016400, Note_off_c, 9, 38, 64
1, 1016400, Note_off_c, 9, 57, 64
1, 1016400, Note_off_c, 9, 44, 64
1, 1016400, Note_on_c, 9, 35, 72
1, 1016640, Note_off_c, 9, 35, 64
1, 1016640, Note_on_c, 9, 35, 72
1, 1016640, Note_on_c, 9, 57, 72
1, 1016640, Note_on_c, 9, 44, 72
1, 1016880, Note_off_c, 9, 35, 64
1, 1016880, Note_off_c, 9, 57, 64
1, 1016880, Note_off_c, 9, 44, 64
1, 1016880, Note_on_c, 9, 35, 72
1, 1017120, Note_off_c, 9, 35, 64
1, 1017120, Note_on_c, 9, 38, 72
1, 1017120, Note_on_c, 9, 57, 72
1, 1017120, Note_on_c, 9, 44, 72
1, 1017360, Note_off_c, 9, 38, 64
1, 1017360, Note_off_c, 9, 57, 64
1, 1017360, Note_off_c, 9, 44, 64
1, 1017360, Note_on_c, 9, 35, 72
1, 1017600, Note_off_c, 9, 35, 64
1, 1017600, Note_on_c, 9, 35, 72
1, 1017600, Note_on_c, 9, 44, 72
1, 1017840, Note_off_c, 9, 35, 64
1, 1017840, Note_off_c, 9, 44, 64
1, 1017840, Note_on_c, 9, 35, 72
1, 1018080, Note_off_c, 9, 35, 64
1, 1018080, Note_on_c, 9, 38, 72
1, 1018080, Note_on_c, 9, 44, 72
1, 1018320, Note_off_c, 9, 38, 64
1, 1018320, Note_off_c, 9, 44, 64
1, 1018320, Note_on_c, 9, 35, 72
1, 1018560, Note_off_c, 9, 35, 64
1, 1018560, Note_on_c, 9, 35, 72
1, 1018560, Note_on_c, 9, 44, 72
1, 1018800, Note_off_c, 9, 35, 64
1, 1018800, Note_off_c, 9, 44, 64
1, 1018800, Note_on_c, 9, 35, 72
1, 1019040, Note_off_c, 9, 35, 64
1, 1019040, Note_on_c, 9, 38, 72
1, 1019040, Note_on_c, 9, 44, 72
1, 1019280, Note_off_c, 9, 38, 64
1, 1019280, Note_off_c, 9, 44, 64
1, 1019280, Note_on_c, 9, 35, 72
1, 1019520, Note_off_c, 9, 35, 64
1, 1019520, Note_on_c, 9, 35, 72
1, 1019520, Note_on_c, 9, 44, 72
1, 1019760, Note_off_c, 9, 35, 64
1, 1019760, Note_off_c, 9, 44, 64
1, 1019760, Note_on_c, 9, 35, 72
1, 1020000, Note_off_c, 9, 35, 64
1, 1020000, Note_on_c, 9, 38, 72
1, 1020000, Note_on_c, 9, 44, 72
1, 1020240, Note_off_c, 9, 38, 64
1, 1020240, Note_off_c, 9, 44, 64
1, 1020240, Note_on_c, 9, 35, 72
1, 1020480, Note_off_c, 9, 35, 64
1, 1020480, Note_on_c, 9, 35, 72
1, 1020480, Note_on_c, 9, 44, 72
1, 1020720, Note_off_c, 9, 35, 64
1, 1020720, Note_off_c, 9, 44, 64
1, 1020720, Note_on_c, 9, 35, 72
1, 1020960, Note_off_c, 9, 35, 64
1, 1020960, Note_on_c, 9, 38, 72
1, 1020960, Note_on_c, 9, 44, 72
1, 1021200, Note_off_c, 9, 38, 64
1, 1021200, Note_off_c, 9, 44, 64
1, 1021200, Note_on_c, 9, 35, 72
1, 1021440, Note_off_c, 9, 35, 64
1, 1021440, Note_on_c, 9, 35, 72
1, 1021440, Note_on_c, 9, 57, 72
1, 1021440, Note_on_c, 9, 44, 72
1, 1021680, Note_off_c, 9, 35, 64
1, 1021680, Note_off_c, 9, 57, 64
1, 1021680, Note_off_c, 9, 44, 64
1, 1021680, Note_on_c, 9, 35, 72
1, 1021920, Note_off_c, 9, 35, 64
1, 1021920, Note_on_c, 9, 38, 72
1, 1021920, Note_on_c, 9, 57, 72
1, 1021920, Note_on_c, 9, 44, 72
1, 1022160, Note_off_c, 9, 38, 64
1, 1022160, Note_off_c, 9, 57, 64
1, 1022160, Note_off_c, 9, 44, 64
1, 1022160, Note_on_c, 9, 35, 72
1, 1022400, Note_off_c, 9, 35, 64
1, 1022400, Note_on_c, 9, 35, 72
1, 1022400, Note_on_c, 9, 57, 72
1, 1022400, Note_on_c, 9, 44, 72
1, 1022640, Note_off_c, 9, 35, 64
1, 1022640, Note_off_c, 9, 57, 64
1, 1022640, Note_off_c, 9, 44, 64
1, 1022640, Note_on_c, 9, 35, 72
1, 1022880, Note_off_c, 9, 35, 64
1, 1022880, Note_on_c, 9, 38, 72
1, 1022880, Note_on_c, 9, 57, 72
1, 1022880, Note_on_c, 9, 44, 72
1, 1023120, Note_off_c, 9, 38, 64
1, 1023120, Note_off_c, 9, 57, 64
1, 1023120, Note_off_c, 9, 44, 64
1, 1023120, Note_on_c, 9, 35, 72
1, 1023360, Note_off_c, 9, 35, 64
1, 1023360, Note_on_c, 9, 35, 72
1, 1023360, Note_on_c, 9, 57, 72
1, 1023360, Note_on_c, 9, 44, 72
1, 1023600, Note_off_c, 9, 35, 64
1, 1023600, Note_off_c, 9, 57, 64
1, 1023600, Note_off_c, 9, 44, 64
1, 1023600, Note_on_c, 9, 35, 72
1, 1023840, Note_off_c, 9, 35, 64
1, 1023840, Note_on_c, 9, 38, 72
1, 1023840, Note_on_c, 9, 57, 72
1, 1023840, Note_on_c, 9, 44, 72
1, 1024080, Note_off_c, 9, 38, 64
1, 1024080, Note_off_c, 9, 57, 64
1, 1024080, Note_off_c, 9, 44, 64
1, 1024080, Note_on_c, 9, 35, 72
1, 1024320, Note_off_c, 9, 35, 64
1, 1024320, Note_on_c, 9, 35, 72
1, 1024320, Note_on_c, 9, 57, 72
1, 1024320, Note_on_c, 9, 44, 72
1, 1024560, Note_off_c, 9, 35, 64
1, 1024560, Note_off_c, 9, 57, 64
1, 1024560, Note_off_c, 9, 44, 64
1, 1024560, Note_on_c, 9, 35, 72
1, 1024800, Note_off_c, 9, 35, 64
1, 1024800, Note_on_c, 9, 38, 72
1, 1024800, Note_on_c, 9, 57, 72
1, 1024800, Note_on_c, 9, 44, 72
1, 1025040, Note_off_c, 9, 38, 64
1, 1025040, Note_off_c, 9, 57, 64
1, 1025040, Note_off_c, 9, 44, 64
1, 1025040, Note_on_c, 9, 35, 72
1, 1025280, Note_off_c, 9, 35, 64
1, 1025280, Note_on_c, 9, 35, 72
1, 1025280, Note_on_c, 9, 44, 72
1, 1025520, Note_off_c, 9, 35, 64
1, 1025520, Note_off_c, 9, 44, 64
1, 1025520, Note_on_c, 9, 35, 72
1, 1025760, Note_off_c, 9, 35, 64
1, 1025760, Note_on_c, 9, 38, 72
1, 1025760, Note_on_c, 9, 44, 72
1, 1026000, Note_off_c, 9, 38, 64
1, 1026000, Note_off_c, 9, 44, 64
1, 1026000, Note_on_c, 9, 35, 72
1, 1026240, Note_off_c, 9, 35, 64
1, 1026240, Note_on_c, 9, 35, 72
1, 1026240, Note_on_c, 9, 44, 72
1, 1026480, Note_off_c, 9, 35, 64
1, 1026480, Note_off_c, 9, 44, 64
1, 1026480, Note_on_c, 9, 35, 72
1, 1026720, Note_off_c, 9, 35, 64
1, 1026720, Note_on_c, 9, 38, 72
1, 1026720, Note_on_c, 9, 44, 72
1, 1026960, Note_off_c, 9, 38, 64
1, 1026960, Note_off_c, 9, 44, 64
1, 1026960, Note_on_c, 9, 35, 72
1, 1027200, Note_off_c, 9, 35, 64
1, 1027200, Note_on_c, 9, 35, 72
1, 1027200, Note_on_c, 9, 44, 72
1, 1027440, Note_off_c, 9, 35, 64
1, 1027440, Note_off_c, 9, 44, 64
1, 1027440, Note_on_c, 9, 35, 72
1, 1027680, Note_off_c, 9, 35, 64
1, 1027680, Note_on_c, 9, 38, 72
1, 1027680, Note_on_c, 9, 44, 72
1, 1027920, Note_off_c, 9, 38, 64
1, 1027920, Note_off_c, 9, 44, 64
1, 1027920, Note_on_c, 9, 35, 72
1, 1028160, Note_off_c, 9, 35, 64
1, 1028160, Note_on_c, 9, 35, 72
1, 1028160, Note_on_c, 9, 44, 72
1, 1028400, Note_off_c, 9, 35, 64
1, 1028400, Note_off_c, 9, 44, 64
1, 1028400, Note_on_c, 9, 35, 72
1, 1028640, Note_off_c, 9, 35, 64
1, 1028640, Note_on_c, 9, 38, 72
1, 1028640, Note_on_c, 9, 44, 72
1, 1028880, Note_off_c, 9, 38, 64
1, 1028880, Note_off_c, 9, 44, 64
1, 1028880, Note_on_c, 9, 35, 72
1, 1029120, Note_off_c, 9, 35, 64
1, 1029120, Note_on_c, 9, 35, 72
1, 1029120, Note_on_c, 9, 57, 72
1, 1029120, Note_on_c, 9, 44, 72
1, 1029360, Note_off_c, 9, 35, 64
1, 1029360, Note_off_c, 9, 57, 64
1, 1029360, Note_off_c, 9, 44, 64
1, 1029360, Note_on_c, 9, 35, 72
1, 1029600, Note_off_c, 9, 35, 64
1, 1029600, Note_on_c, 9, 38, 72
1, 1029600, Note_on_c, 9, 57, 72
1, 1029600, Note_on_c, 9, 44, 72
1, 1029840, Note_off_c, 9, 38, 64
1, 1029840, Note_off_c, 9, 57, 64
1, 1029840, Note_off_c, 9, 44, 64
1, 1029840, Note_on_c, 9, 35, 72
1, 1030080, Note_off_c, 9, 35, 64
1, 1030080, Note_on_c, 9, 35, 72
1, 1030080, Note_on_c, 9, 57, 72
1, 1030080, Note_on_c, 9, 44, 72
1, 1030320, Note_off_c, 9, 35, 64
1, 1030320, Note_off_c, 9, 57, 64
1, 1030320, Note_off_c, 9, 44, 64
1, 1030320, Note_on_c, 9, 35, 72
1, 1030560, Note_off_c, 9, 35, 64
1, 1030560, Note_on_c, 9, 38, 72
1, 1030560, Note_on_c, 9, 57, 72
1, 1030560, Note_on_c, 9, 44, 72
1, 1030800, Note_off_c, 9, 38, 64
1, 1030800, Note_off_c, 9, 57, 64
1, 1030800, Note_off_c, 9, 44, 64
1, 1030800, Note_on_c, 9, 35, 72
1, 1031040, Note_off_c, 9, 35, 64
1, 1031040, Note_on_c, 9, 35, 72
1, 1031040, Note_on_c, 9, 57, 72
1, 1031040, Note_on_c, 9, 44, 72
1, 1031280, Note_off_c, 9, 35, 64
1, 1031280, Note_off_c, 9, 57, 64
1, 1031280, Note_off_c, 9, 44, 64
1, 1031280, Note_on_c, 9, 35, 72
1, 1031520, Note_off_c, 9, 35, 64
1, 1031520, Note_on_c, 9, 38, 72
1, 1031520, Note_on_c, 9, 57, 72
1, 1031520, Note_on_c, 9, 44, 72
1, 1031760, Note_off_c, 9, 38, 64
1, 1031760, Note_off_c, 9, 57, 64
1, 1031760, Note_off_c, 9, 44, 64
1, 1031760, Note_on_c, 9, 35, 72
1, 1032000, Note_off_c, 9, 35, 64
1, 1032000, Note_on_c, 9, 35, 72
1, 1032000, Note_on_c, 9, 57, 72
1, 1032000, Note_on_c, 9, 44, 72
1, 1032240, Note_off_c, 9, 35, 64
1, 1032240, Note_off_c, 9, 57, 64
1, 1032240, Note_off_c, 9, 44, 64
1, 1032240, Note_on_c, 9, 35, 72
1, 1032480, Note_off_c, 9, 35, 64
1, 1032480, Note_on_c, 9, 38, 72
1, 1032480, Note_on_c, 9, 57, 72
1, 1032480, Note_on_c, 9, 44, 72
1, 1032720, Note_off_c, 9, 38, 64
1, 1032720, Note_off_c, 9, 57, 64
1, 1032720, Note_off_c, 9, 44, 64
1, 1032720, Note_on_c, 9, 35, 72
1, 1032960, Note_off_c, 9, 35, 64
1, 1032960, Note_on_c, 9, 35, 72
1, 1032960, Note_on_c, 9, 44, 72
1, 1033200, Note_off_c, 9, 35, 64
1, 1033200, Note_off_c, 9, 44, 64
1, 1033200, Note_on_c, 9, 35, 72
1, 1033440, Note_off_c, 9, 35, 64
1, 1033440, Note_on_c, 9, 38, 72
1, 1033440, Note_on_c, 9, 44, 72
1, 1033680, Note_off_c, 9, 38, 64
1, 1033680, Note_off_c, 9, 44, 64
1, 1033680, Note_on_c, 9, 35, 72
1, 1033920, Note_off_c, 9, 35, 64
1, 1033920, Note_on_c, 9, 35, 72
1, 1033920, Note_on_c, 9, 44, 72
1, 1034160, Note_off_c, 9, 35, 64
1, 1034160, Note_off_c, 9, 44, 64
1, 1034160, Note_on_c, 9, 35, 72
1, 1034400, Note_off_c, 9, 35, 64
1, 1034400, Note_on_c, 9, 38, 72
1, 1034400, Note_on_c, 9, 44, 72
1, 1034640, Note_off_c, 9, 38, 64
1, 1034640, Note_off_c, 9, 44, 64
1, 1034640, Note_on_c, 9, 35, 72
1, 1034880, Note_off_c, 9, 35, 64
1, 1034880, Note_on_c, 9, 35, 72
1, 1034880, Note_on_c, 9, 44, 72
1, 1035120, Note_off_c, 9, 35, 64
1, 1035120, Note_off_c, 9, 44, 64
1, 1035120, Note_on_c, 9, 35, 72
1, 1035360, Note_off_c, 9, 35, 64
1, 1035360, Note_on_c, 9, 38, 72
1, 1035360, Note_on_c, 9, 44, 72
1, 1035600, Note_off_c, 9, 38, 64
1, 1035600, Note_off_c, 9, 44, 64
1, 1035600, Note_on_c, 9, 35, 72
1, 1035840, Note_off_c, 9, 35, 64
1, 1035840, Note_on_c, 9, 35, 72
1, 1035840, Note_on_c, 9, 44, 72
1, 1036080, Note_off_c, 9, 35, 64
1, 1036080, Note_off_c, 9, 44, 64
1, 1036080, Note_on_c, 9, 35, 72
1, 1036320, Note_off_c, 9, 35, 64
1, 1036320, Note_on_c, 9, 38, 72
1, 1036320, Note_on_c, 9, 44, 72
1, 1036560, Note_off_c, 9, 38, 64
1, 1036560, Note_off_c, 9, 44, 64
1, 1036560, Note_on_c, 9, 35, 72
1, 1036800, Note_off_c, 9, 35, 64
1, 1036800, Note_on_c, 9, 35, 72
1, 1036800, Note_on_c, 9, 57, 72
1, 1036800, Note_on_c, 9, 44, 72
1, 1037040, Note_off_c, 9, 35, 64
1, 1037040, Note_off_c, 9, 57, 64
1, 1037040, Note_off_c, 9, 44, 64
1, 1037040, Note_on_c, 9, 35, 72
1, 1037280, Note_off_c, 9, 35, 64
1, 1037280, Note_on_c, 9, 38, 72
1, 1037280, Note_on_c, 9, 57, 72
1, 1037280, Note_on_c, 9, 44, 72
1, 1037520, Note_off_c, 9, 38, 64
1, 1037520, Note_off_c, 9, 57, 64
1, 1037520, Note_off_c, 9, 44, 64
1, 1037520, Note_on_c, 9, 35, 72
1, 1037760, Note_off_c, 9, 35, 64
1, 1037760, Note_on_c, 9, 35, 72
1, 1037760, Note_on_c, 9, 57, 72
1, 1037760, Note_on_c, 9, 44, 72
1, 1038000, Note_off_c, 9, 35, 64
1, 1038000, Note_off_c, 9, 57, 64
1, 1038000, Note_off_c, 9, 44, 64
1, 1038000, Note_on_c, 9, 35, 72
1, 1038240, Note_off_c, 9, 35, 64
1, 1038240, Note_on_c, 9, 38, 72
1, 1038240, Note_on_c, 9, 57, 72
1, 1038240, Note_on_c, 9, 44, 72
1, 1038480, Note_off_c, 9, 38, 64
1, 1038480, Note_off_c, 9, 57, 64
1, 1038480, Note_off_c, 9, 44, 64
1, 1038480, Note_on_c, 9, 35, 72
1, 1038720, Note_off_c, 9, 35, 64
1, 1038720, Note_on_c, 9, 35, 72
1, 1038720, Note_on_c, 9, 57, 72
1, 1038720, Note_on_c, 9, 44, 72
1, 1038960, Note_off_c, 9, 35, 64
1, 1038960, Note_off_c, 9, 57, 64
1, 1038960, Note_off_c, 9, 44, 64
1, 1038960, Note_on_c, 9, 35, 72
1, 1039200, Note_off_c, 9, 35, 64
1, 1039200, Note_on_c, 9, 38, 72
1, 1039200, Note_on_c, 9, 57, 72
1, 1039200, Note_on_c, 9, 44, 72
1, 1039440, Note_off_c, 9, 38, 64
1, 1039440, Note_off_c, 9, 57, 64
1, 1039440, Note_off_c, 9, 44, 64
1, 1039440, Note_on_c, 9, 35, 72
1, 1039680, Note_off_c, 9, 35, 64
1, 1039680, Note_on_c, 9, 35, 72
1, 1039680, Note_on_c, 9, 57, 72
1, 1039680, Note_on_c, 9, 44, 72
1, 1039920, Note_off_c, 9, 35, 64
1, 1039920, Note_off_c, 9, 57, 64
1, 1039920, Note_off_c, 9, 44, 64
1, 1039920, Note_on_c, 9, 35, 72
1, 1040160, Note_off_c, 9, 35, 64
1, 1040160, Note_on_c, 9, 38, 72
1, 1040160, Note_on_c, 9, 57, 72
1, 1040160, Note_on_c, 9, 44, 72
1, 1040400, Note_off_c, 9, 38, 64
1, 1040400, Note_off_c, 9, 57, 64
1, 1040400, Note_off_c, 9, 44, 64
1, 1040400, Note_on_c, 9, 35, 72
1, 1040640, Note_off_c, 9, 35, 64
1, 1040640, Note_on_c, 9, 35, 72
1, 1040640, Note_on_c, 9, 44, 72
1, 1040880, Note_off_c, 9, 35, 64
1, 1040880, Note_off_c, 9, 44, 64
1, 1040880, Note_on_c, 9, 35, 72
1, 1041120, Note_off_c, 9, 35, 64
1, 1041120, Note_on_c, 9, 38, 72
1, 1041120, Note_on_c, 9, 44, 72
1, 1041360, Note_off_c, 9, 38, 64
1, 1041360, Note_off_c, 9, 44, 64
1, 1041360, Note_on_c, 9, 35, 72
1, 1041600, Note_off_c, 9, 35, 64
1, 1041600, Note_on_c, 9, 35, 72
1, 1041600, Note_on_c, 9, 44, 72
1, 1041840, Note_off_c, 9, 35, 64
1, 1041840, Note_off_c, 9, 44, 64
1, 1041840, Note_on_c, 9, 35, 72
1, 1042080, Note_off_c, 9, 35, 64
1, 1042080, Note_on_c, 9, 38, 72
1, 1042080, Note_on_c, 9, 44, 72
1, 1042320, Note_off_c, 9, 38, 64
1, 1042320, Note_off_c, 9, 44, 64
1, 1042320, Note_on_c, 9, 35, 72
1, 1042560, Note_off_c, 9, 35, 64
1, 1042560, Note_on_c, 9, 35, 72
1, 1042560, Note_on_c, 9, 44, 72
1, 1042800, Note_off_c, 9, 35, 64
1, 1042800, Note_off_c, 9, 44, 64
1, 1042800, Note_on_c, 9, 35, 72
1, 1043040, Note_off_c, 9, 35, 64
1, 1043040, Note_on_c, 9, 38, 72
1, 1043040, Note_on_c, 9, 44, 72
1, 1043280, Note_off_c, 9, 38, 64
1, 1043280, Note_off_c, 9, 44, 64
1, 1043280, Note_on_c, 9, 35, 72
1, 1043520, Note_off_c, 9, 35, 64
1, 1043520, Note_on_c, 9, 35, 72
1, 1043520, Note_on_c, 9, 44, 72
1, 1043760, Note_off_c, 9, 35, 64
1, 1043760, Note_off_c, 9, 44, 64
1, 1043760, Note_on_c, 9, 35, 72
1, 1044000, Note_off_c, 9, 35, 64
1, 1044000, Note_on_c, 9, 38, 72
1, 1044000, Note_on_c, 9, 44, 72
1, 1044240, Note_off_c, 9, 38, 64
1, 1044240, Note_off_c, 9, 44, 64
1, 1044240, Note_on_c, 9, 35, 72
1, 1044480, Note_off_c, 9, 35, 64
1, 1044480, Note_on_c, 9, 35, 72
1, 1044480, Note_on_c, 9, 57, 72
1, 1044480, Note_on_c, 9, 44, 72
1, 1044720, Note_off_c, 9, 35, 64
1, 1044720, Note_off_c, 9, 57, 64
1, 1044720, Note_off_c, 9, 44, 64
1, 1044720, Note_on_c, 9, 35, 72
1, 1044960, Note_off_c, 9, 35, 64
1, 1044960, Note_on_c, 9, 38, 72
1, 1044960, Note_on_c, 9, 57, 72
1, 1044960, Note_on_c, 9, 44, 72
1, 1045200, Note_off_c, 9, 38, 64
1, 1045200, Note_off_c, 9, 57, 64
1, 1045200, Note_off_c, 9, 44, 64
1, 1045200, Note_on_c, 9, 35, 72
1, 1045440, Note_off_c, 9, 35, 64
1, 1045440, Note_on_c, 9, 35, 72
1, 1045440, Note_on_c, 9, 57, 72
1, 1045440, Note_on_c, 9, 44, 72
1, 1045680, Note_off_c, 9, 35, 64
1, 1045680, Note_off_c, 9, 57, 64
1, 1045680, Note_off_c, 9, 44, 64
1, 1045680, Note_on_c, 9, 35, 72
1, 1045920, Note_off_c, 9, 35, 64
1, 1045920, Note_on_c, 9, 38, 72
1, 1045920, Note_on_c, 9, 57, 72
1, 1045920, Note_on_c, 9, 44, 72
1, 1046160, Note_off_c, 9, 38, 64
1, 1046160, Note_off_c, 9, 57, 64
1, 1046160, Note_off_c, 9, 44, 64
1, 1046160, Note_on_c, 9, 35, 72
1, 1046400, Note_off_c, 9, 35, 64
1, 1046400, Note_on_c, 9, 35, 72
1, 1046400, Note_on_c, 9, 57, 72
1, 1046400, Note_on_c, 9, 44, 72
1, 1046640, Note_off_c, 9, 35, 64
1, 1046640, Note_off_c, 9, 57, 64
1, 1046640, Note_off_c, 9, 44, 64
1, 1046640, Note_on_c, 9, 35, 72
1, 1046880, Note_off_c, 9, 35, 64
1, 1046880, Note_on_c, 9, 38, 72
1, 1046880, Note_on_c, 9, 57, 72
1, 1046880, Note_on_c, 9, 44, 72
1, 1047120, Note_off_c, 9, 38, 64
1, 1047120, Note_off_c, 9, 57, 64
1, 1047120, Note_off_c, 9, 44, 64
1, 1047120, Note_on_c, 9, 35, 72
1, 1047360, Note_off_c, 9, 35, 64
1, 1047360, Note_on_c, 9, 35, 72
1, 1047360, Note_on_c, 9, 57, 72
1, 1047360, Note_on_c, 9, 44, 72
1, 1047600, Note_off_c, 9, 35, 64
1, 1047600, Note_off_c, 9, 57, 64
1, 1047600, Note_off_c, 9, 44, 64
1, 1047600, Note_on_c, 9, 35, 72
1, 1047840, Note_off_c, 9, 35, 64
1, 1047840, Note_on_c, 9, 38, 72
1, 1047840, Note_on_c, 9, 57, 72
1, 1047840, Note_on_c, 9, 44, 72
1, 1048080, Note_off_c, 9, 38, 64
1, 1048080, Note_off_c, 9, 57, 64
1, 1048080, Note_off_c, 9, 44, 64
1, 1048080, Note_on_c, 9, 35, 72
1, 1048320, Note_off_c, 9, 35, 64
1, 1048320, Note_on_c, 9, 35, 72
1, 1048320, Note_on_c, 9, 44, 72
1, 1048560, Note_off_c, 9, 35, 64
1, 1048560, Note_off_c, 9, 44, 64
1, 1048560, Note_on_c, 9, 35, 72
1, 1048800, Note_off_c, 9, 35, 64
1, 1048800, Note_on_c, 9, 38, 72
1, 1048800, Note_on_c, 9, 44, 72
1, 1049040, Note_off_c, 9, 38, 64
1, 1049040, Note_off_c, 9, 44, 64
1, 1049040, Note_on_c, 9, 35, 72
1, 1049280, Note_off_c, 9, 35, 64
1, 1049280, Note_on_c, 9, 35, 72
1, 1049280, Note_on_c, 9, 44, 72
1, 1049520, Note_off_c, 9, 35, 64
1, 1049520, Note_off_c, 9, 44, 64
1, 1049520, Note_on_c, 9, 35, 72
1, 1049760, Note_off_c, 9, 35, 64
1, 1049760, Note_on_c, 9, 38, 72
1, 1049760, Note_on_c, 9, 44, 72
1, 1050000, Note_off_c, 9, 38, 64
1, 1050000, Note_off_c, 9, 44, 64
1, 1050000, Note_on_c, 9, 35, 72
1, 1050240, Note_off_c, 9, 35, 64
1, 1050240, Note_on_c, 9, 35, 72
1, 1050240, Note_on_c, 9, 44, 72
1, 1050480, Note_off_c, 9, 35, 64
1, 1050480, Note_off_c, 9, 44, 64
1, 1050480, Note_on_c, 9, 35, 72
1, 1050720, Note_off_c, 9, 35, 64
1, 1050720, Note_on_c, 9, 38, 72
1, 1050720, Note_on_c, 9, 44, 72
1, 1050960, Note_off_c, 9, 38, 64
1, 1050960, Note_off_c, 9, 44, 64
1, 1050960, Note_on_c, 9, 35, 72
1, 1051200, Note_off_c, 9, 35, 64
1, 1051200, Note_on_c, 9, 35, 72
1, 1051200, Note_on_c, 9, 44, 72
1, 1051440, Note_off_c, 9, 35, 64
1, 1051440, Note_off_c, 9, 44, 64
1, 1051440, Note_on_c, 9, 35, 72
1, 1051680, Note_off_c, 9, 35, 64
1, 1051680, Note_on_c, 9, 38, 72
1, 1051680, Note_on_c, 9, 44, 72
1, 1051920, Note_off_c, 9, 38, 64
1, 1051920, Note_off_c, 9, 44, 64
1, 1051920, Note_on_c, 9, 35, 72
1, 1052160, Note_off_c, 9, 35, 64
1, 1052160, Note_on_c, 9, 35, 72
1, 1052160, Note_on_c, 9, 57, 72
1, 1052160, Note_on_c, 9, 44, 72
1, 1052400, Note_off_c, 9, 35, 64
1, 1052400, Note_off_c, 9, 57, 64
1, 1052400, Note_off_c, 9, 44, 64
1, 1052400, Note_on_c, 9, 35, 72
1, 1052640, Note_off_c, 9, 35, 64
1, 1052640, Note_on_c, 9, 38, 72
1, 1052640, Note_on_c, 9, 57, 72
1, 1052640, Note_on_c, 9, 44, 72
1, 1052880, Note_off_c, 9, 38, 64
1, 1052880, Note_off_c, 9, 57, 64
1, 1052880, Note_off_c, 9, 44, 64
1, 1052880, Note_on_c, 9, 35, 72
1, 1053120, Note_off_c, 9, 35, 64
1, 1053120, Note_on_c, 9, 35, 72
1, 1053120, Note_on_c, 9, 57, 72
1, 1053120, Note_on_c, 9, 44, 72
1, 1053360, Note_off_c, 9, 35, 64
1, 1053360, Note_off_c, 9, 57, 64
1, 1053360, Note_off_c, 9, 44, 64
1, 1053360, Note_on_c, 9, 35, 72
1, 1053600, Note_off_c, 9, 35, 64
1, 1053600, Note_on_c, 9, 38, 72
1, 1053600, Note_on_c, 9, 57, 72
1, 1053600, Note_on_c, 9, 44, 72
1, 1053840, Note_off_c, 9, 38, 64
1, 1053840, Note_off_c, 9, 57, 64
1, 1053840, Note_off_c, 9, 44, 64
1, 1053840, Note_on_c, 9, 35, 72
1, 1054080, Note_off_c, 9, 35, 64
1, 1054080, Note_on_c, 9, 35, 72
1, 1054080, Note_on_c, 9, 57, 72
1, 1054080, Note_on_c, 9, 44, 72
1, 1054320, Note_off_c, 9, 35, 64
1, 1054320, Note_off_c, 9, 57, 64
1, 1054320, Note_off_c, 9, 44, 64
1, 1054320, Note_on_c, 9, 35, 72
1, 1054560, Note_off_c, 9, 35, 64
1, 1054560, Note_on_c, 9, 38, 72
1, 1054560, Note_on_c, 9, 57, 72
1, 1054560, Note_on_c, 9, 44, 72
1, 1054800, Note_off_c, 9, 38, 64
1, 1054800, Note_off_c, 9, 57, 64
1, 1054800, Note_off_c, 9, 44, 64
1, 1054800, Note_on_c, 9, 35, 72
1, 1055040, Note_off_c, 9, 35, 64
1, 1055040, Note_on_c, 9, 35, 72
1, 1055040, Note_on_c, 9, 57, 72
1, 1055040, Note_on_c, 9, 44, 72
1, 1055280, Note_off_c, 9, 35, 64
1, 1055280, Note_off_c, 9, 57, 64
1, 1055280, Note_off_c, 9, 44, 64
1, 1055280, Note_on_c, 9, 35, 72
1, 1055520, Note_off_c, 9, 35, 64
1, 1055520, Note_on_c, 9, 38, 72
1, 1055520, Note_on_c, 9, 57, 72
1, 1055520, Note_on_c, 9, 44, 72
1, 1055760, Note_off_c, 9, 38, 64
1, 1055760, Note_off_c, 9, 57, 64
1, 1055760, Note_off_c, 9, 44, 64
1, 1055760, Note_on_c, 9, 35, 72
1, 1056000, Note_off_c, 9, 35, 64
1, 1056000, Note_on_c, 9, 35, 72
1, 1056000, Note_on_c, 9, 44, 72
1, 1056240, Note_off_c, 9, 35, 64
1, 1056240, Note_off_c, 9, 44, 64
1, 1056240, Note_on_c, 9, 35, 72
1, 1056480, Note_off_c, 9, 35, 64
1, 1056480, Note_on_c, 9, 38, 72
1, 1056480, Note_on_c, 9, 44, 72
1, 1056720, Note_off_c, 9, 38, 64
1, 1056720, Note_off_c, 9, 44, 64
1, 1056720, Note_on_c, 9, 35, 72
1, 1056960, Note_off_c, 9, 35, 64
1, 1056960, Note_on_c, 9, 35, 72
1, 1056960, Note_on_c, 9, 44, 72
1, 1057200, Note_off_c, 9, 35, 64
1, 1057200, Note_off_c, 9, 44, 64
1, 1057200, Note_on_c, 9, 35, 72
1, 1057440, Note_off_c, 9, 35, 64
1, 1057440, Note_on_c, 9, 38, 72
1, 1057440, Note_on_c, 9, 44, 72
1, 1057680, Note_off_c, 9, 38, 64
1, 1057680, Note_off_c, 9, 44, 64
1, 1057680, Note_on_c, 9, 35, 72
1, 1057920, Note_off_c, 9, 35, 64
1, 1057920, Note_on_c, 9, 35, 72
1, 1057920, Note_on_c, 9, 44, 72
1, 1058160, Note_off_c, 9, 35, 64
1, 1058160, Note_off_c, 9, 44, 64
1, 1058160, Note_on_c, 9, 35, 72
1, 1058400, Note_off_c, 9, 35, 64
1, 1058400, Note_on_c, 9, 38, 72
1, 1058400, Note_on_c, 9, 44, 72
1, 1058640, Note_off_c, 9, 38, 64
1, 1058640, Note_off_c, 9, 44, 64
1, 1058640, Note_on_c, 9, 35, 72
1, 1058880, Note_off_c, 9, 35, 64
1, 1058880, Note_on_c, 9, 35, 72
1, 1058880, Note_on_c, 9, 44, 72
1, 1059120, Note_off_c, 9, 35, 64
1, 1059120, Note_off_c, 9, 44, 64
1, 1059120, Note_on_c, 9, 35, 72
1, 1059360, Note_off_c, 9, 35, 64
1, 1059360, Note_on_c, 9, 38, 72
1, 1059360, Note_on_c, 9, 44, 72
1, 1059600, Note_off_c, 9, 38, 64
1, 1059600, Note_off_c, 9, 44, 64
1, 1059600, Note_on_c, 9, 35, 72
1, 1059840, Note_off_c, 9, 35, 64
1, 1059840, Note_on_c, 9, 35, 72
1, 1059840, Note_on_c, 9, 57, 72
1, 1059840, Note_on_c, 9, 44, 72
1, 1060080, Note_off_c, 9, 35, 64
1, 1060080, Note_off_c, 9, 57, 64
1, 1060080, Note_off_c, 9, 44, 64
1, 1060080, Note_on_c, 9, 35, 72
1, 1060320, Note_off_c, 9, 35, 64
1, 1060320, Note_on_c, 9, 38, 72
1, 1060320, Note_on_c, 9, 57, 72
1, 1060320, Note_on_c, 9, 44, 72
1, 1060560, Note_off_c, 9, 38, 64
1, 1060560, Note_off_c, 9, 57, 64
1, 1060560, Note_off_c, 9, 44, 64
1, 1060560, Note_on_c, 9, 35, 72
1, 1060800, Note_off_c, 9, 35, 64
1, 1060800, Note_on_c, 9, 35, 72
1, 1060800, Note_on_c, 9, 57, 72
1, 1060800, Note_on_c, 9, 44, 72
1, 1061040, Note_off_c, 9, 35, 64
1, 1061040, Note_off_c, 9, 57, 64
1, 1061040, Note_off_c, 9, 44, 64
1, 1061040, Note_on_c, 9, 35, 72
1, 1061280, Note_off_c, 9, 35, 64
1, 1061280, Note_on_c, 9, 38, 72
1, 1061280, Note_on_c, 9, 57, 72
1, 1061280, Note_on_c, 9, 44, 72
1, 1061520, Note_off_c, 9, 38, 64
1, 1061520, Note_off_c, 9, 57, 64
1, 1061520, Note_off_c, 9, 44, 64
1, 1061520, Note_on_c, 9, 35, 72
1, 1061760, Note_off_c, 9, 35, 64
1, 1061760, Note_on_c, 9, 35, 72
1, 1061760, Note_on_c, 9, 57, 72
1, 1061760, Note_on_c, 9, 44, 72
1, 1062000, Note_off_c, 9, 35, 64
1, 1062000, Note_off_c, 9, 57, 64
1, 1062000, Note_off_c, 9, 44, 64
1, 1062000, Note_on_c, 9, 35, 72
1, 1062240, Note_off_c, 9, 35, 64
1, 1062240, Note_on_c, 9, 38, 72
1, 1062240, Note_on_c, 9, 57, 72
1, 1062240, Note_on_c, 9, 44, 72
1, 1062480, Note_off_c, 9, 38, 64
1, 1062480, Note_off_c, 9, 57, 64
1, 1062480, Note_off_c, 9, 44, 64
1, 1062480, Note_on_c, 9, 35, 72
1, 1062720, Note_off_c, 9, 35, 64
1, 1062720, Note_on_c, 9, 35, 72
1, 1062720, Note_on_c, 9, 57, 72
1, 1062720, Note_on_c, 9, 44, 72
1, 1062960, Note_off_c, 9, 35, 64
1, 1062960, Note_off_c, 9, 57, 64
1, 1062960, Note_off_c, 9, 44, 64
1, 1062960, Note_on_c, 9, 35, 72
1, 1063200, Note_off_c, 9, 35, 64
1, 1063200, Note_on_c, 9, 38, 72
1, 1063200, Note_on_c, 9, 57, 72
1, 1063200, Note_on_c, 9, 44, 72
1, 1063440, Note_off_c, 9, 38, 64
1, 1063440, Note_off_c, 9, 57, 64
1, 1063440, Note_off_c, 9, 44, 64
1, 1063440, Note_on_c, 9, 35, 72
1, 1063680, Note_off_c, 9, 35, 64
1, 1063680, Note_on_c, 9, 35, 72
1, 1063680, Note_on_c, 9, 44, 72
1, 1063920, Note_off_c, 9, 35, 64
1, 1063920, Note_off_c, 9, 44, 64
1, 1063920, Note_on_c, 9, 35, 72
1, 1064160, Note_off_c, 9, 35, 64
1, 1064160, Note_on_c, 9, 38, 72
1, 1064160, Note_on_c, 9, 44, 72
1, 1064400, Note_off_c, 9, 38, 64
1, 1064400, Note_off_c, 9, 44, 64
1, 1064400, Note_on_c, 9, 35, 72
1, 1064640, Note_off_c, 9, 35, 64
1, 1064640, Note_on_c, 9, 35, 72
1, 1064640, Note_on_c, 9, 44, 72
1, 1064880, Note_off_c, 9, 35, 64
1, 1064880, Note_off_c, 9, 44, 64
1, 1064880, Note_on_c, 9, 35, 72
1, 1065120, Note_off_c, 9, 35, 64
1, 1065120, Note_on_c, 9, 38, 72
1, 1065120, Note_on_c, 9, 44, 72
1, 1065360, Note_off_c, 9, 38, 64
1, 1065360, Note_off_c, 9, 44, 64
1, 1065360, Note_on_c, 9, 35, 72
1, 1065600, Note_off_c, 9, 35, 64
1, 1065600, Note_on_c, 9, 35, 72
1, 1065600, Note_on_c, 9, 44, 72
1, 1065840, Note_off_c, 9, 35, 64
1, 1065840, Note_off_c, 9, 44, 64
1, 1065840, Note_on_c, 9, 35, 72
1, 1066080, Note_off_c, 9, 35, 64
1, 1066080, Note_on_c, 9, 38, 72
1, 1066080, Note_on_c, 9, 44, 72
1, 1066320, Note_off_c, 9, 38, 64
1, 1066320, Note_off_c, 9, 44, 64
1, 1066320, Note_on_c, 9, 35, 72
1, 1066560, Note_off_c, 9, 35, 64
1, 1066560, Note_on_c, 9, 35, 72
1, 1066560, Note_on_c, 9, 44, 72
1, 1066800, Note_off_c, 9, 35, 64
1, 1066800, Note_off_c, 9, 44, 64
1, 1066800, Note_on_c, 9, 35, 72
1, 1067040, Note_off_c, 9, 35, 64
1, 1067040, Note_on_c, 9, 38, 72
1, 1067040, Note_on_c, 9, 44, 72
1, 1067280, Note_off_c, 9, 38, 64
1, 1067280, Note_off_c, 9, 44, 64
1, 1067280, Note_on_c, 9, 35, 72
1, 1067520, Note_off_c, 9, 35, 64
1, 1067520, Note_on_c, 9, 35, 72
1, 1067520, Note_on_c, 9, 57, 72
1, 1067520, Note_on_c, 9, 44, 72
1, 1067760, Note_off_c, 9, 35, 64
1, 1067760, Note_off_c, 9, 57, 64
1, 1067760, Note_off_c, 9, 44, 64
1, 1067760, Note_on_c, 9, 35, 72
1, 1068000, Note_off_c, 9, 35, 64
1, 1068000, Note_on_c, 9, 38, 72
1, 1068000, Note_on_c, 9, 57, 72
1, 1068000, Note_on_c, 9, 44, 72
1, 1068240, Note_off_c, 9, 38, 64
1, 1068240, Note_off_c, 9, 57, 64
1, 1068240, Note_off_c, 9, 44, 64
1, 1068240, Note_on_c, 9, 35, 72
1, 1068480, Note_off_c, 9, 35, 64
1, 1068480, Note_on_c, 9, 35, 72
1, 1068480, Note_on_c, 9, 57, 72
1, 1068480, Note_on_c, 9, 44, 72
1, 1068720, Note_off_c, 9, 35, 64
1, 1068720, Note_off_c, 9, 57, 64
1, 1068720, Note_off_c, 9, 44, 64
1, 1068720, Note_on_c, 9, 35, 72
1, 1068960, Note_off_c, 9, 35, 64
1, 1068960, Note_on_c, 9, 38, 72
1, 1068960, Note_on_c, 9, 57, 72
1, 1068960, Note_on_c, 9, 44, 72
1, 1069200, Note_off_c, 9, 38, 64
1, 1069200, Note_off_c, 9, 57, 64
1, 1069200, Note_off_c, 9, 44, 64
1, 1069200, Note_on_c, 9, 35, 72
1, 1069440, Note_off_c, 9, 35, 64
1, 1069440, Note_on_c, 9, 35, 72
1, 1069440, Note_on_c, 9, 57, 72
1, 1069440, Note_on_c, 9, 44, 72
1, 1069680, Note_off_c, 9, 35, 64
1, 1069680, Note_off_c, 9, 57, 64
1, 1069680, Note_off_c, 9, 44, 64
1, 1069680, Note_on_c, 9, 35, 72
1, 1069920, Note_off_c, 9, 35, 64
1, 1069920, Note_on_c, 9, 38, 72
1, 1069920, Note_on_c, 9, 57, 72
1, 1069920, Note_on_c, 9, 44, 72
1, 1070160, Note_off_c, 9, 38, 64
1, 1070160, Note_off_c, 9, 57, 64
1, 1070160, Note_off_c, 9, 44, 64
1, 1070160, Note_on_c, 9, 35, 72
1, 1070400, Note_off_c, 9, 35, 64
1, 1070400, Note_on_c, 9, 35, 72
1, 1070400, Note_on_c, 9, 57, 72
1, 1070400, Note_on_c, 9, 44, 72
1, 1070640, Note_off_c, 9, 35, 64
1, 1070640, Note_off_c, 9, 57, 64
1, 1070640, Note_off_c, 9, 44, 64
1, 1070640, Note_on_c, 9, 35, 72
1, 1070880, Note_off_c, 9, 35, 64
1, 1070880, Note_on_c, 9, 38, 72
1, 1070880, Note_on_c, 9, 57, 72
1, 1070880, Note_on_c, 9, 44, 72
1, 1071120, Note_off_c, 9, 38, 64
1, 1071120, Note_off_c, 9, 57, 64
1, 1071120, Note_off_c, 9, 44, 64
1, 1071120, Note_on_c, 9, 35, 72
1, 1071360, Note_off_c, 9, 35, 64
1, 1071360, Note_on_c, 9, 35, 72
1, 1071360, Note_on_c, 9, 44, 72
1, 1071600, Note_off_c, 9, 35, 64
1, 1071600, Note_off_c, 9, 44, 64
1, 1071600, Note_on_c, 9, 35, 72
1, 1071840, Note_off_c, 9, 35, 64
1, 1071840, Note_on_c, 9, 38, 72
1, 1071840, Note_on_c, 9, 44, 72
1, 1072080, Note_off_c, 9, 38, 64
1, 1072080, Note_off_c, 9, 44, 64
1, 1072080, Note_on_c, 9, 35, 72
1, 1072320, Note_off_c, 9, 35, 64
1, 1072320, Note_on_c, 9, 35, 72
1, 1072320, Note_on_c, 9, 44, 72
1, 1072560, Note_off_c, 9, 35, 64
1, 1072560, Note_off_c, 9, 44, 64
1, 1072560, Note_on_c, 9, 35, 72
1, 1072800, Note_off_c, 9, 35, 64
1, 1072800, Note_on_c, 9, 38, 72
1, 1072800, Note_on_c, 9, 44, 72
1, 1073040, Note_off_c, 9, 38, 64
1, 1073040, Note_off_c, 9, 44, 64
1, 1073040, Note_on_c, 9, 35, 72
1, 1073280, Note_off_c, 9, 35, 64
1, 1073280, Note_on_c, 9, 35, 72
1, 1073280, Note_on_c, 9, 44, 72
1, 1073520, Note_off_c, 9, 35, 64
1, 1073520, Note_off_c, 9, 44, 64
1, 1073520, Note_on_c, 9, 35, 72
1, 1073760, Note_off_c, 9, 35, 64
1, 1073760, Note_on_c, 9, 38, 72
1, 1073760, Note_on_c, 9, 44, 72
1, 1074000, Note_off_c, 9, 38, 64
1, 1074000, Note_off_c, 9, 44, 64
1, 1074000, Note_on_c, 9, 35, 72
1, 1074240, Note_off_c, 9, 35, 64
1, 1074240, Note_on_c, 9, 35, 72
1, 1074240, Note_on_c, 9, 44, 72
1, 1074480, Note_off_c, 9, 35, 64
1, 1074480, Note_off_c, 9, 44, 64
1, 1074480, Note_on_c, 9, 35, 72
1, 1074720, Note_off_c, 9, 35, 64
1, 1074720, Note_on_c, 9, 38, 72
1, 1074720, Note_on_c, 9, 44, 72
1, 1074960, Note_off_c, 9, 38, 64
1, 1074960, Note_off_c, 9, 44, 64
1, 1074960, Note_on_c, 9, 35, 72
1, 1075200, Note_off_c, 9, 35, 64
1, 1075200, Note_on_c, 9, 35, 72
1, 1075200, Note_on_c, 9, 57, 72
1, 1075200, Note_on_c, 9, 44, 72
1, 1075440, Note_off_c, 9, 35, 64
1, 1075440, Note_off_c, 9, 57, 64
1, 1075440, Note_off_c, 9, 44, 64
1, 1075440, Note_on_c, 9, 35, 72
1, 1075680, Note_off_c, 9, 35, 64
1, 1075680, Note_on_c, 9, 38, 72
1, 1075680, Note_on_c, 9, 57, 72
1, 1075680, Note_on_c, 9, 44, 72
1, 1075920, Note_off_c, 9, 38, 64
1, 1075920, Note_off_c, 9, 57, 64
1, 1075920, Note_off_c, 9, 44, 64
1, 1075920, Note_on_c, 9, 35, 72
1, 1076160, Note_off_c, 9, 35, 64
1, 1076160, Note_on_c, 9, 35, 72
1, 1076160, Note_on_c, 9, 57, 72
1, 1076160, Note_on_c, 9, 44, 72
1, 1076400, Note_off_c, 9, 35, 64
1, 1076400, Note_off_c, 9, 57, 64
1, 1076400, Note_off_c, 9, 44, 64
1, 1076400, Note_on_c, 9, 35, 72
1, 1076640, Note_off_c, 9, 35, 64
1, 1076640, Note_on_c, 9, 38, 72
1, 1076640, Note_on_c, 9, 57, 72
1, 1076640, Note_on_c, 9, 44, 72
1, 1076880, Note_off_c, 9, 38, 64
1, 1076880, Note_off_c, 9, 57, 64
1, 1076880, Note_off_c, 9, 44, 64
1, 1076880, Note_on_c, 9, 35, 72
1, 1077120, Note_off_c, 9, 35, 64
1, 1077120, Note_on_c, 9, 35, 72
1, 1077120, Note_on_c, 9, 57, 72
1, 1077120, Note_on_c, 9, 44, 72
1, 1077360, Note_off_c, 9, 35, 64
1, 1077360, Note_off_c, 9, 57, 64
1, 1077360, Note_off_c, 9, 44, 64
1, 1077360, Note_on_c, 9, 35, 72
1, 1077600, Note_off_c, 9, 35, 64
1, 1077600, Note_on_c, 9, 38, 72
1, 1077600, Note_on_c, 9, 57, 72
1, 1077600, Note_on_c, 9, 44, 72
1, 1077840, Note_off_c, 9, 38, 64
1, 1077840, Note_off_c, 9, 57, 64
1, 1077840, Note_off_c, 9, 44, 64
1, 1077840, Note_on_c, 9, 35, 72
1, 1078080, Note_off_c, 9, 35, 64
1, 1078080, Note_on_c, 9, 35, 72
1, 1078080, Note_on_c, 9, 57, 72
1, 1078080, Note_on_c, 9, 44, 72
1, 1078320, Note_off_c, 9, 35, 64
1, 1078320, Note_off_c, 9, 57, 64
1, 1078320, Note_off_c, 9, 44, 64
1, 1078320, Note_on_c, 9, 35, 72
1, 1078560, Note_off_c, 9, 35, 64
1, 1078560, Note_on_c, 9, 38, 72
1, 1078560, Note_on_c, 9, 57, 72
1, 1078560, Note_on_c, 9, 44, 72
1, 1078800, Note_off_c, 9, 38, 64
1, 1078800, Note_off_c, 9, 57, 64
1, 1078800, Note_off_c, 9, 44, 64
1, 1078800, Note_on_c, 9, 35, 72
1, 1079040, Note_off_c, 9, 35, 64
1, 1079040, Note_on_c, 9, 35, 72
1, 1079040, Note_on_c, 9, 44, 72
1, 1079280, Note_off_c, 9, 35, 64
1, 1079280, Note_off_c, 9, 44, 64
1, 1079280, Note_on_c, 9, 35, 72
1, 1079520, Note_off_c, 9, 35, 64
1, 1079520, Note_on_c, 9, 38, 72
1, 1079520, Note_on_c, 9, 44, 72
1, 1079760, Note_off_c, 9, 38, 64
1, 1079760, Note_off_c, 9, 44, 64
1, 1079760, Note_on_c, 9, 35, 72
1, 1080000, Note_off_c, 9, 35, 64
1, 1080000, Note_on_c, 9, 35, 72
1, 1080000, Note_on_c, 9, 44, 72
1, 1080240, Note_off_c, 9, 35, 64
1, 1080240, Note_off_c, 9, 44, 64
1, 1080240, Note_on_c, 9, 35, 72
1, 1080480, Note_off_c, 9, 35, 64
1, 1080480, Note_on_c, 9, 38, 72
1, 1080480, Note_on_c, 9, 44, 72
1, 1080720, Note_off_c, 9, 38, 64
1, 1080720, Note_off_c, 9, 44, 64
1, 1080720, Note_on_c, 9, 35, 72
1, 1080960, Note_off_c, 9, 35, 64
1, 1080960, Note_on_c, 9, 35, 72
1, 1080960, Note_on_c, 9, 44, 72
1, 1081200, Note_off_c, 9, 35, 64
1, 1081200, Note_off_c, 9, 44, 64
1, 1081200, Note_on_c, 9, 35, 72
1, 1081440, Note_off_c, 9, 35, 64
1, 1081440, Note_on_c, 9, 38, 72
1, 1081440, Note_on_c, 9, 44, 72
1, 1081680, Note_off_c, 9, 38, 64
1, 1081680, Note_off_c, 9, 44, 64
1, 1081680, Note_on_c, 9, 35, 72
1, 1081920, Note_off_c, 9, 35, 64
1, 1081920, Note_on_c, 9, 35, 72
1, 1081920, Note_on_c, 9, 44, 72
1, 1082160, Note_off_c, 9, 35, 64
1, 1082160, Note_off_c, 9, 44, 64
1, 1082160, Note_on_c, 9, 35, 72
1, 1082400, Note_off_c, 9, 35, 64
1, 1082400, Note_on_c, 9, 38, 72
1, 1082400, Note_on_c, 9, 44, 72
1, 1082640, Note_off_c, 9, 38, 64
1, 1082640, Note_off_c, 9, 44, 64
1, 1082640, Note_on_c, 9, 35, 72
1, 1082880, Note_off_c, 9, 35, 64
1, 1082880, Note_on_c, 9, 35, 72
1, 1082880, Note_on_c, 9, 57, 72
1, 1082880, Note_on_c, 9, 44, 72
1, 1083120, Note_off_c, 9, 35, 64
1, 1083120, Note_off_c, 9, 57, 64
1, 1083120, Note_off_c, 9, 44, 64
1, 1083120, Note_on_c, 9, 35, 72
1, 1083360, Note_off_c, 9, 35, 64
1, 1083360, Note_on_c, 9, 38, 72
1, 1083360, Note_on_c, 9, 57, 72
1, 1083360, Note_on_c, 9, 44, 72
1, 1083600, Note_off_c, 9, 38, 64
1, 1083600, Note_off_c, 9, 57, 64
1, 1083600, Note_off_c, 9, 44, 64
1, 1083600, Note_on_c, 9, 35, 72
1, 1083840, Note_off_c, 9, 35, 64
1, 1083840, Note_on_c, 9, 35, 72
1, 1083840, Note_on_c, 9, 57, 72
1, 1083840, Note_on_c, 9, 44, 72
1, 1084080, Note_off_c, 9, 35, 64
1, 1084080, Note_off_c, 9, 57, 64
1, 1084080, Note_off_c, 9, 44, 64
1, 1084080, Note_on_c, 9, 35, 72
1, 1084320, Note_off_c, 9, 35, 64
1, 1084320, Note_on_c, 9, 38, 72
1, 1084320, Note_on_c, 9, 57, 72
1, 1084320, Note_on_c, 9, 44, 72
1, 1084560, Note_off_c, 9, 38, 64
1, 1084560, Note_off_c, 9, 57, 64
1, 1084560, Note_off_c, 9, 44, 64
1, 1084560, Note_on_c, 9, 35, 72
1, 1084800, Note_off_c, 9, 35, 64
1, 1084800, Note_on_c, 9, 35, 72
1, 1084800, Note_on_c, 9, 57, 72
1, 1084800, Note_on_c, 9, 44, 72
1, 1085040, Note_off_c, 9, 35, 64
1, 1085040, Note_off_c, 9, 57, 64
1, 1085040, Note_off_c, 9, 44, 64
1, 1085040, Note_on_c, 9, 35, 72
1, 1085280, Note_off_c, 9, 35, 64
1, 1085280, Note_on_c, 9, 38, 72
1, 1085280, Note_on_c, 9, 57, 72
1, 1085280, Note_on_c, 9, 44, 72
1, 1085520, Note_off_c, 9, 38, 64
1, 1085520, Note_off_c, 9, 57, 64
1, 1085520, Note_off_c, 9, 44, 64
1, 1085520, Note_on_c, 9, 35, 72
1, 1085760, Note_off_c, 9, 35, 64
1, 1085760, Note_on_c, 9, 35, 72
1, 1085760, Note_on_c, 9, 57, 72
1, 1085760, Note_on_c, 9, 44, 72
1, 1086000, Note_off_c, 9, 35, 64
1, 1086000, Note_off_c, 9, 57, 64
1, 1086000, Note_off_c, 9, 44, 64
1, 1086000, Note_on_c, 9, 35, 72
1, 1086240, Note_off_c, 9, 35, 64
1, 1086240, Note_on_c, 9, 38, 72
1, 1086240, Note_on_c, 9, 57, 72
1, 1086240, Note_on_c, 9, 44, 72
1, 1086480, Note_off_c, 9, 38, 64
1, 1086480, Note_off_c, 9, 57, 64
1, 1086480, Note_off_c, 9, 44, 64
1, 1086480, Note_on_c, 9, 35, 72
1, 1086720, Note_off_c, 9, 35, 64
1, 1086720, Note_on_c, 9, 35, 72
1, 1086720, Note_on_c, 9, 44, 72
1, 1086960, Note_off_c, 9, 35, 64
1, 1086960, Note_off_c, 9, 44, 64
1, 1086960, Note_on_c, 9, 35, 72
1, 1087200, Note_off_c, 9, 35, 64
1, 1087200, Note_on_c, 9, 38, 72
1, 1087200, Note_on_c, 9, 44, 72
1, 1087440, Note_off_c, 9, 38, 64
1, 1087440, Note_off_c, 9, 44, 64
1, 1087440, Note_on_c, 9, 35, 72
1, 1087680, Note_off_c, 9, 35, 64
1, 1087680, Note_on_c, 9, 35, 72
1, 1087680, Note_on_c, 9, 44, 72
1, 1087920, Note_off_c, 9, 35, 64
1, 1087920, Note_off_c, 9, 44, 64
1, 1087920, Note_on_c, 9, 35, 72
1, 1088160, Note_off_c, 9, 35, 64
1, 1088160, Note_on_c, 9, 38, 72
1, 1088160, Note_on_c, 9, 44, 72
1, 1088400, Note_off_c, 9, 38, 64
1, 1088400, Note_off_c, 9, 44, 64
1, 1088400, Note_on_c, 9, 35, 72
1, 1088640, Note_off_c, 9, 35, 64
1, 1088640, Note_on_c, 9, 35, 72
1, 1088640, Note_on_c, 9, 44, 72
1, 1088880, Note_off_c, 9, 35, 64
1, 1088880, Note_off_c, 9, 44, 64
1, 1088880, Note_on_c, 9, 35, 72
1, 1089120, Note_off_c, 9, 35, 64
1, 1089120, Note_on_c, 9, 38, 72
1, 1089120, Note_on_c, 9, 44, 72
1, 1089360, Note_off_c, 9, 38, 64
1, 1089360, Note_off_c, 9, 44, 64
1, 1089360, Note_on_c, 9, 35, 72
1, 1089600, Note_off_c, 9, 35, 64
1, 1089600, Note_on_c, 9, 35, 72
1, 1089600, Note_on_c, 9, 44, 72
1, 1089840, Note_off_c, 9, 35, 64
1, 1089840, Note_off_c, 9, 44, 64
1, 1089840, Note_on_c, 9, 35, 72
1, 1090080, Note_off_c, 9, 35, 64
1, 1090080, Note_on_c, 9, 38, 72
1, 1090080, Note_on_c, 9, 44, 72
1, 1090320, Note_off_c, 9, 38, 64
1, 1090320, Note_off_c, 9, 44, 64
1, 1090320, Note_on_c, 9, 35, 72
1, 1090560, Note_off_c, 9, 35, 64
1, 1090560, Note_on_c, 9, 35, 72
1, 1090560, Note_on_c, 9, 57, 72
1, 1090560, Note_on_c, 9, 44, 72
1, 1090800, Note_off_c, 9, 35, 64
1, 1090800, Note_off_c, 9, 57, 64
1, 1090800, Note_off_c, 9, 44, 64
1, 1090800, Note_on_c, 9, 35, 72
1, 1091040, Note_off_c, 9, 35, 64
1, 1091040, Note_on_c, 9, 38, 72
1, 1091040, Note_on_c, 9, 57, 72
1, 1091040, Note_on_c, 9, 44, 72
1, 1091280, Note_off_c, 9, 38, 64
1, 1091280, Note_off_c, 9, 57, 64
1, 1091280, Note_off_c, 9, 44, 64
1, 1091280, Note_on_c, 9, 35, 72
1, 1091520, Note_off_c, 9, 35, 64
1, 1091520, Note_on_c, 9, 35, 72
1, 1091520, Note_on_c, 9, 57, 72
1, 1091520, Note_on_c, 9, 44, 72
1, 1091760, Note_off_c, 9, 35, 64
1, 1091760, Note_off_c, 9, 57, 64
1, 1091760, Note_off_c, 9, 44, 64
1, 1091760, Note_on_c, 9, 35, 72
1, 1092000, Note_off_c, 9, 35, 64
1, 1092000, Note_on_c, 9, 38, 72
1, 1092000, Note_on_c, 9, 57, 72
1, 1092000, Note_on_c, 9, 44, 72
1, 1092240, Note_off_c, 9, 38, 64
1, 1092240, Note_off_c, 9, 57, 64
1, 1092240, Note_off_c, 9, 44, 64
1, 1092240, Note_on_c, 9, 35, 72
1, 1092480, Note_off_c, 9, 35, 64
1, 1092480, Note_on_c, 9, 35, 72
1, 1092480, Note_on_c, 9, 57, 72
1, 1092480, Note_on_c, 9, 44, 72
1, 1092720, Note_off_c, 9, 35, 64
1, 1092720, Note_off_c, 9, 57, 64
1, 1092720, Note_off_c, 9, 44, 64
1, 1092720, Note_on_c, 9, 35, 72
1, 1092960, Note_off_c, 9, 35, 64
1, 1092960, Note_on_c, 9, 38, 72
1, 1092960, Note_on_c, 9, 57, 72
1, 1092960, Note_on_c, 9, 44, 72
1, 1093200, Note_off_c, 9, 38, 64
1, 1093200, Note_off_c, 9, 57, 64
1, 1093200, Note_off_c, 9, 44, 64
1, 1093200, Note_on_c, 9, 35, 72
1, 1093440, Note_off_c, 9, 35, 64
1, 1093440, Note_on_c, 9, 35, 72
1, 1093440, Note_on_c, 9, 57, 72
1, 1093440, Note_on_c, 9, 44, 72
1, 1093680, Note_off_c, 9, 35, 64
1, 1093680, Note_off_c, 9, 57, 64
1, 1093680, Note_off_c, 9, 44, 64
1, 1093680, Note_on_c, 9, 35, 72
1, 1093920, Note_off_c, 9, 35, 64
1, 1093920, Note_on_c, 9, 38, 72
1, 1093920, Note_on_c, 9, 57, 72
1, 1093920, Note_on_c, 9, 44, 72
1, 1094160, Note_off_c, 9, 38, 64
1, 1094160, Note_off_c, 9, 57, 64
1, 1094160, Note_off_c, 9, 44, 64
1, 1094160, Note_on_c, 9, 35, 72
1, 1094400, Note_off_c, 9, 35, 64
1, 1094400, Note_on_c, 9, 35, 72
1, 1094400, Note_on_c, 9, 44, 72
1, 1094640, Note_off_c, 9, 35, 64
1, 1094640, Note_off_c, 9, 44, 64
1, 1094640, Note_on_c, 9, 35, 72
1, 1094880, Note_off_c, 9, 35, 64
1, 1094880, Note_on_c, 9, 38, 72
1, 1094880, Note_on_c, 9, 44, 72
1, 1095120, Note_off_c, 9, 38, 64
1, 1095120, Note_off_c, 9, 44, 64
1, 1095120, Note_on_c, 9, 35, 72
1, 1095360, Note_off_c, 9, 35, 64
1, 1095360, Note_on_c, 9, 35, 72
1, 1095360, Note_on_c, 9, 44, 72
1, 1095600, Note_off_c, 9, 35, 64
1, 1095600, Note_off_c, 9, 44, 64
1, 1095600, Note_on_c, 9, 35, 72
1, 1095840, Note_off_c, 9, 35, 64
1, 1095840, Note_on_c, 9, 38, 72
1, 1095840, Note_on_c, 9, 44, 72
1, 1096080, Note_off_c, 9, 38, 64
1, 1096080, Note_off_c, 9, 44, 64
1, 1096080, Note_on_c, 9, 35, 72
1, 1096320, Note_off_c, 9, 35, 64
1, 1096320, Note_on_c, 9, 35, 72
1, 1096320, Note_on_c, 9, 44, 72
1, 1096560, Note_off_c, 9, 35, 64
1, 1096560, Note_off_c, 9, 44, 64
1, 1096560, Note_on_c, 9, 35, 72
1, 1096800, Note_off_c, 9, 35, 64
1, 1096800, Note_on_c, 9, 38, 72
1, 1096800, Note_on_c, 9, 44, 72
1, 1097040, Note_off_c, 9, 38, 64
1, 1097040, Note_off_c, 9, 44, 64
1, 1097040, Note_on_c, 9, 35, 72
1, 1097280, Note_off_c, 9, 35, 64
1, 1097280, Note_on_c, 9, 35, 72
1, 1097280, Note_on_c, 9, 44, 72
1, 1097520, Note_off_c, 9, 35, 64
1, 1097520, Note_off_c, 9, 44, 64
1, 1097520, Note_on_c, 9, 35, 72
1, 1097760, Note_off_c, 9, 35, 64
1, 1097760, Note_on_c, 9, 38, 72
1, 1097760, Note_on_c, 9, 44, 72
1, 1098000, Note_off_c, 9, 38, 64
1, 1098000, Note_off_c, 9, 44, 64
1, 1098000, Note_on_c, 9, 35, 72
1, 1098240, Note_off_c, 9, 35, 64
1, 1098240, Note_on_c, 9, 35, 72
1, 1098240, Note_on_c, 9, 57, 72
1, 1098240, Note_on_c, 9, 44, 72
1, 1098480, Note_off_c, 9, 35, 64
1, 1098480, Note_off_c, 9, 57, 64
1, 1098480, Note_off_c, 9, 44, 64
1, 1098480, Note_on_c, 9, 35, 72
1, 1098720, Note_off_c, 9, 35, 64
1, 1098720, Note_on_c, 9, 38, 72
1, 1098720, Note_on_c, 9, 57, 72
1, 1098720, Note_on_c, 9, 44, 72
1, 1098960, Note_off_c, 9, 38, 64
1, 1098960, Note_off_c, 9, 57, 64
1, 1098960, Note_off_c, 9, 44, 64
1, 1098960, Note_on_c, 9, 35, 72
1, 1099200, Note_off_c, 9, 35, 64
1, 1099200, Note_on_c, 9, 35, 72
1, 1099200, Note_on_c, 9, 57, 72
1, 1099200, Note_on_c, 9, 44, 72
1, 1099440, Note_off_c, 9, 35, 64
1, 1099440, Note_off_c, 9, 57, 64
1, 1099440, Note_off_c, 9, 44, 64
1, 1099440, Note_on_c, 9, 35, 72
1, 1099680, Note_off_c, 9, 35, 64
1, 1099680, Note_on_c, 9, 38, 72
1, 1099680, Note_on_c, 9, 57, 72
1, 1099680, Note_on_c, 9, 44, 72
1, 1099920, Note_off_c, 9, 38, 64
1, 1099920, Note_off_c, 9, 57, 64
1, 1099920, Note_off_c, 9, 44, 64
1, 1099920, Note_on_c, 9, 35, 72
1, 1100160, Note_off_c, 9, 35, 64
1, 1100160, Note_on_c, 9, 35, 72
1, 1100160, Note_on_c, 9, 57, 72
1, 1100160, Note_on_c, 9, 44, 72
1, 1100400, Note_off_c, 9, 35, 64
1, 1100400, Note_off_c, 9, 57, 64
1, 1100400, Note_off_c, 9, 44, 64
1, 1100400, Note_on_c, 9, 35, 72
1, 1100640, Note_off_c, 9, 35, 64
1, 1100640, Note_on_c, 9, 38, 72
1, 1100640, Note_on_c, 9, 57, 72
1, 1100640, Note_on_c, 9, 44, 72
1, 1100880, Note_off_c, 9, 38, 64
1, 1100880, Note_off_c, 9, 57, 64
1, 1100880, Note_off_c, 9, 44, 64
1, 1100880, Note_on_c, 9, 35, 72
1, 1101120, Note_off_c, 9, 35, 64
1, 1101120, Note_on_c, 9, 35, 72
1, 1101120, Note_on_c, 9, 57, 72
1, 1101120, Note_on_c, 9, 44, 72
1, 1101360, Note_off_c, 9, 35, 64
1, 1101360, Note_off_c, 9, 57, 64
1, 1101360, Note_off_c, 9, 44, 64
1, 1101360, Note_on_c, 9, 35, 72
1, 1101600, Note_off_c, 9, 35, 64
1, 1101600, Note_on_c, 9, 38, 72
1, 1101600, Note_on_c, 9, 57, 72
1, 1101600, Note_on_c, 9, 44, 72
1, 1101840, Note_off_c, 9, 38, 64
1, 1101840, Note_off_c, 9, 57, 64
1, 1101840, Note_off_c, 9, 44, 64
1, 1101840, Note_on_c, 9, 35, 72
1, 1102080, Note_off_c, 9, 35, 64
1, 1102080, Note_on_c, 9, 35, 72
1, 1102080, Note_on_c, 9, 44, 72
1, 1102320, Note_off_c, 9, 35, 64
1, 1102320, Note_off_c, 9, 44, 64
1, 1102320, Note_on_c, 9, 35, 72
1, 1102560, Note_off_c, 9, 35, 64
1, 1102560, Note_on_c, 9, 38, 72
1, 1102560, Note_on_c, 9, 44, 72
1, 1102800, Note_off_c, 9, 38, 64
1, 1102800, Note_off_c, 9, 44, 64
1, 1102800, Note_on_c, 9, 35, 72
1, 1103040, Note_off_c, 9, 35, 64
1, 1103040, Note_on_c, 9, 35, 72
1, 1103040, Note_on_c, 9, 44, 72
1, 1103280, Note_off_c, 9, 35, 64
1, 1103280, Note_off_c, 9, 44, 64
1, 1103280, Note_on_c, 9, 35, 72
1, 1103520, Note_off_c, 9, 35, 64
1, 1103520, Note_on_c, 9, 38, 72
1, 1103520, Note_on_c, 9, 44, 72
1, 1103760, Note_off_c, 9, 38, 64
1, 1103760, Note_off_c, 9, 44, 64
1, 1103760, Note_on_c, 9, 35, 72
1, 1104000, Note_off_c, 9, 35, 64
1, 1104000, Note_on_c, 9, 35, 72
1, 1104000, Note_on_c, 9, 44, 72
1, 1104240, Note_off_c, 9, 35, 64
1, 1104240, Note_off_c, 9, 44, 64
1, 1104240, Note_on_c, 9, 35, 72
1, 1104480, Note_off_c, 9, 35, 64
1, 1104480, Note_on_c, 9, 38, 72
1, 1104480, Note_on_c, 9, 44, 72
1, 1104720, Note_off_c, 9, 38, 64
1, 1104720, Note_off_c, 9, 44, 64
1, 1104720, Note_on_c, 9, 35, 72
1, 1104960, Note_off_c, 9, 35, 64
1, 1104960, Note_on_c, 9, 35, 72
1, 1104960, Note_on_c, 9, 44, 72
1, 1105200, Note_off_c, 9, 35, 64
1, 1105200, Note_off_c, 9, 44, 64
1, 1105200, Note_on_c, 9, 35, 72
1, 1105440, Note_off_c, 9, 35, 64
1, 1105440, Note_on_c, 9, 38, 72
1, 1105440, Note_on_c, 9, 44, 72
1, 1105680, Note_off_c, 9, 38, 64
1, 1105680, Note_off_c, 9, 44, 64
1, 1105680, Note_on_c, 9, 35, 72
1, 1105920, Note_off_c, 9, 35, 64
1, 1105920, End_track
0, 0, End_of_file