0, 0, Header, 1, 1, 480
1, 0, Start_track
1, 0, Title_t, "Drumkit"
1, 0, Program_c, 9, 0
1, 0, Note_on_c, 9, 38, 80
1, 0, Note_on_c, 9, 45, 80
1, 120, Note_off_c, 9, 38, 64
1, 120, Note_off_c, 9, 45, 64
1, 240, Note_on_c, 9, 35, 80
1, 360, Note_off_c, 9, 35, 64
1, 480, Note_on_c, 9, 35, 80
1, 600, Note_off_c, 9, 35, 64
1, 720, Note_on_c, 9, 35, 80
1, 840, Note_off_c, 9, 35, 64
1, 960, Note_on_c, 9, 38, 80
1, 960, Note_on_c, 9, 45, 80
1, 1080, Note_off_c, 9, 38, 64
1, 1080, Note_off_c, 9, 45, 64
1, 1200, Note_on_c, 9, 35, 80
1, 1320, Note_off_c, 9, 35, 64
1, 1440, Note_on_c, 9, 44, 80
1, 1560, Note_off_c, 9, 44, 64
1, 1920, Note_on_c, 9, 44, 80
1, 2040, Note_off_c, 9, 44, 64
1, 2400, Note_on_c, 9, 44, 80
1, 2520, Note_off_c, 9, 44, 64
1, 2880, Note_on_c, 9, 44, 80
1, 3000, Note_off_c, 9, 44, 64
1, 3360, Note_on_c, 9, 44, 80
1, 3480, Note_off_c, 9, 44, 64
1, 3600, Note_on_c, 9, 35, 80
1, 3720, Note_off_c, 9, 35, 64
1, 3840, Note_on_c, 9, 38, 80
1, 3840, Note_on_c, 9, 45, 80
1, 3960, Note_off_c, 9, 38, 64
1, 3960, Note_off_c, 9, 45, 64
1, 4080, Note_on_c, 9, 35, 80
1, 4200, Note_off_c, 9, 35, 64
1, 4320, Note_on_c, 9, 35, 80
1, 4440, Note_off_c, 9, 35, 64
1, 4560, Note_on_c, 9, 35, 80
1, 4680, Note_off_c, 9, 35, 64
1, 4800, Note_on_c, 9, 38, 80
1, 4800, Note_on_c, 9, 45, 80
1, 4920, Note_off_c, 9, 38, 64
1, 4920, Note_off_c, 9, 45, 64
1, 5040, Note_on_c, 9, 35, 80
1, 5160, Note_off_c, 9, 35, 64
1, 5280, Note_on_c, 9, 44, 80
1, 5400, Note_off_c, 9, 44, 64
1, 5760, Note_on_c, 9, 44, 80
1, 5880, Note_off_c, 9, 44, 64
1, 6240, Note_on_c, 9, 44, 80
1, 6360, Note_off_c, 9, 44, 64
1, 6720, Note_on_c, 9, 44, 80
1, 6840, Note_off_c, 9, 44, 64
1, 7200, Note_on_c, 9, 44, 80
1, 7320, Note_off_c, 9, 44, 64
1, 7440, Note_on_c, 9, 35, 80
1, 7560, Note_off_c, 9, 35, 64
1, 7680, Note_on_c, 9, 38, 80
1, 7680, Note_on_c, 9, 45, 80
1, 7800, Note_off_c, 9, 38, 64
1, 7800, Note_off_c, 9, 45, 64
1, 7920, Note_on_c, 9, 35, 80
1, 8040, Note_off_c, 9, 35, 64
1, 8160, Note_on_c, 9, 35, 80
1, 8280, Note_off_c, 9, 35, 64
1, 8400, Note_on_c, 9, 35, 80
1, 8520, Note_off_c, 9, 35, 64
1, 8640, Note_on_c, 9, 38, 80
1, 8640, Note_on_c, 9, 45, 80
1, 8760, Note_off_c, 9, 38, 64
1, 8760, Note_off_c, 9, 45, 64
1, 8880, Note_on_c, 9, 35, 80
1, 9000, Note_off_c, 9, 35, 64
1, 9120, Note_on_c, 9, 44, 80
1, 9240, Note_off_c, 9, 44, 64
1, 9600, Note_on_c, 9, 44, 80
1, 9720, Note_off_c, 9, 44, 64
1, 10080, Note_on_c, 9, 44, 80
1, 10200, Note_off_c, 9, 44, 64
1, 10560, Note_on_c, 9, 44, 80
1, 10680, Note_off_c, 9, 44, 64
1, 11040, Note_on_c, 9, 44, 80
1, 11160, Note_off_c, 9, 44, 64
1, 11280, Note_on_c, 9, 35, 80
1, 11400, Note_off_c, 9, 35, 64
1, 11520, Note_on_c, 9, 38, 80
1, 11520, Note_on_c, 9, 45, 80
1, 11640, Note_off_c, 9, 38, 64
1, 11640, Note_off_c, 9, 45, 64
1, 11760, Note_on_c, 9, 35, 80
1, 11880, Note_off_c, 9, 35, 64
1, 12000, Note_on_c, 9, 35, 80
1, 12120, Note_off_c, 9, 35, 64
1, 12240, Note_on_c, 9, 35, 80
1, 12360, Note_off_c, 9, 35, 64
1, 12480, Note_on_c, 9, 38, 80
1, 12480, Note_on_c, 9, 45, 80
1, 12600, Note_off_c, 9, 38, 64
1, 12600, Note_off_c, 9, 45, 64
1, 12720, Note_on_c, 9, 35, 80
1, 12840, Note_off_c, 9, 35, 64
1, 12960, Note_on_c, 9, 44, 80
1, 13080, Note_off_c, 9, 44, 64
1, 13440, Note_on_c, 9, 44, 80
1, 13560, Note_off_c, 9, 44, 64
1, 13920, Note_on_c, 9, 44, 80
1, 14040, Note_off_c, 9, 44, 64
1, 14400, Note_on_c, 9, 44, 80
1, 14520, Note_off_c, 9, 44, 64
1, 14880, Note_on_c, 9, 44, 80
1, 15000, Note_off_c, 9, 44, 64
1, 15120, Note_on_c, 9, 35, 80
1, 15240, Note_off_c, 9, 35, 64
1, 15360, Note_on_c, 9, 38, 80
1, 15360, Note_on_c, 9, 45, 80
1, 15480, Note_off_c, 9, 38, 64
1, 15480, Note_off_c, 9, 45, 64
1, 15600, Note_on_c, 9, 35, 80
1, 15720, Note_off_c, 9, 35, 64
1, 15840, Note_on_c, 9, 35, 80
1, 15960, Note_off_c, 9, 35, 64
1, 16080, Note_on_c, 9, 35, 80
1, 16200, Note_off_c, 9, 35, 64
1, 16320, Note_on_c, 9, 38, 80
1, 16320, Note_on_c, 9, 45, 80
1, 16440, Note_off_c, 9, 38, 64
1, 16440, Note_off_c, 9, 45, 64
1, 16560, Note_on_c, 9, 35, 80
1, 16680, Note_off_c, 9, 35, 64
1, 16800, Note_on_c, 9, 44, 80
1, 16920, Note_off_c, 9, 44, 64
1, 17280, Note_on_c, 9, 44, 80
1, 17400, Note_off_c, 9, 44, 64
1, 17760, Note_on_c, 9, 44, 80
1, 17880, Note_off_c, 9, 44, 64
1, 18240, Note_on_c, 9, 44, 80
1, 18360, Note_off_c, 9, 44, 64
1, 18720, Note_on_c, 9, 44, 80
1, 18840, Note_off_c, 9, 44, 64
1, 18960, Note_on_c, 9, 35, 80
1, 19080, Note_off_c, 9, 35, 64
1, 19200, Note_on_c, 9, 38, 80
1, 19200, Note_on_c, 9, 45, 80
1, 19320, Note_off_c, 9, 38, 64
1, 19320, Note_off_c, 9, 45, 64
1, 19440, Note_on_c, 9, 35, 80
1, 19560, Note_off_c, 9, 35, 64
1, 19680, Note_on_c, 9, 35, 80
1, 19800, Note_off_c, 9, 35, 64
1, 19920, Note_on_c, 9, 35, 80
1, 20040, Note_off_c, 9, 35, 64
1, 20160, Note_on_c, 9, 38, 80
1, 20160, Note_on_c, 9, 45, 80
1, 20280, Note_off_c, 9, 38, 64
1, 20280, Note_off_c, 9, 45, 64
1, 20400, Note_on_c, 9, 35, 80
1, 20520, Note_off_c, 9, 35, 64
1, 20640, Note_on_c, 9, 44, 80
1, 20760, Note_off_c, 9, 44, 64
1, 21120, Note_on_c, 9, 44, 80
1, 21240, Note_off_c, 9, 44, 64
1, 21600, Note_on_c, 9, 44, 80
1, 21720, Note_off_c, 9, 44, 64
1, 22080, Note_on_c, 9, 44, 80
1, 22200, Note_off_c, 9, 44, 64
1, 22560, Note_on_c, 9, 44, 80
1, 22680, Note_off_c, 9, 44, 64
1, 22800, Note_on_c, 9, 35, 80
1, 22920, Note_off_c, 9, 35, 64
1, 23040, Note_on_c, 9, 38, 80
1, 23040, Note_on_c, 9, 45, 80
1, 23160, Note_off_c, 9, 38, 64
1, 23160, Note_off_c, 9, 45, 64
1, 23280, Note_on_c, 9, 35, 80
1, 23400, Note_off_c, 9, 35, 64
1, 23520, Note_on_c, 9, 35, 80
1, 23640, Note_off_c, 9, 35, 64
1, 23760, Note_on_c, 9, 35, 80
1, 23880, Note_off_c, 9, 35, 64
1, 24000, Note_on_c, 9, 38, 80
1, 24000, Note_on_c, 9, 45, 80
1, 24120, Note_off_c, 9, 38, 64
1, 24120, Note_off_c, 9, 45, 64
1, 24240, Note_on_c, 9, 35, 80
1, 24360, Note_off_c, 9, 35, 64
1, 24480, Note_on_c, 9, 44, 80
1, 24600, Note_off_c, 9, 44, 64
1, 24960, Note_on_c, 9, 44, 80
1, 25080, Note_off_c, 9, 44, 64
1, 25440, Note_on_c, 9, 44, 80
1, 25560, Note_off_c, 9, 44, 64
1, 25920, Note_on_c, 9, 44, 80
1, 26040, Note_off_c, 9, 44, 64
1, 26400, Note_on_c, 9, 44, 80
1, 26520, Note_off_c, 9, 44, 64
1, 26640, Note_on_c, 9, 35, 80
1, 26760, Note_off_c, 9, 35, 64
1, 26880, Note_on_c, 9, 38, 80
1, 26880, Note_on_c, 9, 45, 80
1, 27000, Note_off_c, 9, 38, 64
1, 27000, Note_off_c, 9, 45, 64
1, 27120, Note_on_c, 9, 35, 80
1, 27240, Note_off_c, 9, 35, 64
1, 27360, Note_on_c, 9, 35, 80
1, 27480, Note_off_c, 9, 35, 64
1, 27600, Note_on_c, 9, 35, 80
1, 27720, Note_off_c, 9, 35, 64
1, 27840, Note_on_c, 9, 38, 80
1, 27840, Note_on_c, 9, 45, 80
1, 27960, Note_off_c, 9, 38, 64
1, 27960, Note_off_c, 9, 45, 64
1, 28080, Note_on_c, 9, 35, 80
1, 28200, Note_off_c, 9, 35, 64
1, 28320, Note_on_c, 9, 44, 80
1, 28440, Note_off_c, 9, 44, 64
1, 28800, Note_on_c, 9, 44, 80
1, 28920, Note_off_c, 9, 44, 64
1, 29280, Note_on_c, 9, 44, 80
1, 29400, Note_off_c, 9, 44, 64
1, 29760, Note_on_c, 9, 44, 80
1, 29880, Note_off_c, 9, 44, 64
1, 30240, Note_on_c, 9, 44, 80
1, 30360, Note_off_c, 9, 44, 64
1, 30480, Note_on_c, 9, 35, 80
1, 30600, Note_off_c, 9, 35, 64
1, 30720, Note_on_c, 9, 38, 80
1, 30720, Note_on_c, 9, 45, 80
1, 30840, Note_off_c, 9, 38, 64
1, 30840, Note_off_c, 9, 45, 64
1, 30960, Note_on_c, 9, 35, 80
1, 31080, Note_off_c, 9, 35, 64
1, 31200, Note_on_c, 9, 35, 80
1, 31320, Note_off_c, 9, 35, 64
1, 31440, Note_on_c, 9, 35, 80
1, 31560, Note_off_c, 9, 35, 64
1, 31680, Note_on_c, 9, 38, 80
1, 31680, Note_on_c, 9, 45, 80
1, 31800, Note_off_c, 9, 38, 64
1, 31800, Note_off_c, 9, 45, 64
1, 31920, Note_on_c, 9, 35, 80
1, 32040, Note_off_c, 9, 35, 64
1, 32160, Note_on_c, 9, 44, 80
1, 32280, Note_off_c, 9, 44, 64
1, 32640, Note_on_c, 9, 44, 80
1, 32760, Note_off_c, 9, 44, 64
1, 33120, Note_on_c, 9, 44, 80
1, 33240, Note_off_c, 9, 44, 64
1, 33600, Note_on_c, 9, 44, 80
1, 33720, Note_off_c, 9, 44, 64
1, 34080, Note_on_c, 9, 44, 80
1, 34200, Note_off_c, 9, 44, 64
1, 34320, Note_on_c, 9, 35, 80
1, 34440, Note_off_c, 9, 35, 64
1, 34560, Note_on_c, 9, 38, 80
1, 34560, Note_on_c, 9, 45, 80
1, 34680, Note_off_c, 9, 38, 64
1, 34680, Note_off_c, 9, 45, 64
1, 34800, Note_on_c, 9, 35, 80
1, 34920, Note_off_c, 9, 35, 64
1, 35040, Note_on_c, 9, 35, 80
1, 35160, Note_off_c, 9, 35, 64
1, 35280, Note_on_c, 9, 35, 80
1, 35400, Note_off_c, 9, 35, 64
1, 35520, Note_on_c, 9, 38, 80
1, 35520, Note_on_c, 9, 45, 80
1, 35640, Note_off_c, 9, 38, 64
1, 35640, Note_off_c, 9, 45, 64
1, 35760, Note_on_c, 9, 35, 80
1, 35880, Note_off_c, 9, 35, 64
1, 36000, Note_on_c, 9, 44, 80
1, 36120, Note_off_c, 9, 44, 64
1, 36480, Note_on_c, 9, 44, 80
1, 36600, Note_off_c, 9, 44, 64
1, 36960, Note_on_c, 9, 44, 80
1, 37080, Note_off_c, 9, 44, 64
1, 37440, Note_on_c, 9, 44, 80
1, 37560, Note_off_c, 9, 44, 64
1, 37920, Note_on_c, 9, 44, 80
1, 38040, Note_off_c, 9, 44, 64
1, 38160, Note_on_c, 9, 35, 80
1, 38280, Note_off_c, 9, 35, 64
1, 38400, Note_on_c, 9, 38, 80
1, 38400, Note_on_c, 9, 45, 80
1, 38520, Note_off_c, 9, 38, 64
1, 38520, Note_off_c, 9, 45, 64
1, 38640, Note_on_c, 9, 35, 80
1, 38760, Note_off_c, 9, 35, 64
1, 38880, Note_on_c, 9, 35, 80
1, 39000, Note_off_c, 9, 35, 64
1, 39120, Note_on_c, 9, 35, 80
1, 39240, Note_off_c, 9, 35, 64
1, 39360, Note_on_c, 9, 38, 80
1, 39360, Note_on_c, 9, 45, 80
1, 39480, Note_off_c, 9, 38, 64
1, 39480, Note_off_c, 9, 45, 64
1, 39600, Note_on_c, 9, 35, 80
1, 39720, Note_off_c, 9, 35, 64
1, 39840, Note_on_c, 9, 44, 80
1, 39960, Note_off_c, 9, 44, 64
1, 40320, Note_on_c, 9, 44, 80
1, 40440, Note_off_c, 9, 44, 64
1, 40800, Note_on_c, 9, 44, 80
1, 40920, Note_off_c, 9, 44, 64
1, 41280, Note_on_c, 9, 44, 80
1, 41400, Note_off_c, 9, 44, 64
1, 41760, Note_on_c, 9, 44, 80
1, 41880, Note_off_c, 9, 44, 64
1, 42240, Note_on_c, 9, 44, 80
1, 42360, Note_off_c, 9, 44, 64
1, 42720, Note_on_c, 9, 44, 80
1, 42840, Note_off_c, 9, 44, 64
1, 43200, Note_on_c, 9, 44, 80
1, 43320, Note_off_c, 9, 44, 64
1, 43680, Note_on_c, 9, 44, 80
1, 43800, Note_off_c, 9, 44, 64
1, 44160, Note_on_c, 9, 44, 80
1, 44280, Note_off_c, 9, 44, 64
1, 44640, Note_on_c, 9, 44, 80
1, 44760, Note_off_c, 9, 44, 64
1, 45120, Note_on_c, 9, 44, 80
1, 45240, Note_off_c, 9, 44, 64
1, 45600, Note_on_c, 9, 44, 80
1, 45720, Note_off_c, 9, 44, 64
1, 45840, Note_on_c, 9, 35, 80
1, 45960, Note_off_c, 9, 35, 64
1, 46080, Note_on_c, 9, 38, 80
1, 46080, Note_on_c, 9, 45, 80
1, 46200, Note_off_c, 9, 38, 64
1, 46200, Note_off_c, 9, 45, 64
1, 46320, Note_on_c, 9, 35, 80
1, 46440, Note_off_c, 9, 35, 64
1, 46560, Note_on_c, 9, 35, 80
1, 46680, Note_off_c, 9, 35, 64
1, 46800, Note_on_c, 9, 35, 80
1, 46920, Note_off_c, 9, 35, 64
1, 47040, Note_on_c, 9, 38, 80
1, 47040, Note_on_c, 9, 45, 80
1, 47160, Note_off_c, 9, 38, 64
1, 47160, Note_off_c, 9, 45, 64
1, 47280, Note_on_c, 9, 35, 80
1, 47280, Note_on_c, 9, 49, 80
1, 47400, Note_off_c, 9, 35, 64
1, 47400, Note_off_c, 9, 49, 64
1, 47520, Note_on_c, 9, 46, 80
1, 47520, Note_on_c, 9, 35, 80
1, 47640, Note_off_c, 9, 46, 64
1, 47640, Note_off_c, 9, 35, 64
1, 48000, Note_on_c, 9, 46, 80
1, 48000, Note_on_c, 9, 38, 80
1, 48120, Note_off_c, 9, 46, 64
1, 48120, Note_off_c, 9, 38, 64
1, 48480, Note_on_c, 9, 35, 80
1, 48480, Note_on_c, 9, 46, 80
1, 48600, Note_off_c, 9, 35, 64
1, 48600, Note_off_c, 9, 46, 64
1, 48960, Note_on_c, 9, 38, 80
1, 48960, Note_on_c, 9, 46, 80
1, 49080, Note_off_c, 9, 38, 64
1, 49080, Note_off_c, 9, 46, 64
1, 49440, Note_on_c, 9, 35, 80
1, 49440, Note_on_c, 9, 46, 80
1, 49560, Note_off_c, 9, 35, 64
1, 49560, Note_off_c, 9, 46, 64
1, 49920, Note_on_c, 9, 38, 80
1, 49920, Note_on_c, 9, 46, 80
1, 50040, Note_off_c, 9, 38, 64
1, 50040, Note_off_c, 9, 46, 64
1, 50400, Note_on_c, 9, 35, 80
1, 50400, Note_on_c, 9, 46, 80
1, 50520, Note_off_c, 9, 35, 64
1, 50520, Note_off_c, 9, 46, 64
1, 50880, Note_on_c, 9, 38, 80
1, 50880, Note_on_c, 9, 46, 80
1, 51000, Note_off_c, 9, 38, 64
1, 51000, Note_off_c, 9, 46, 64
1, 51360, Note_on_c, 9, 35, 80
1, 51360, Note_on_c, 9, 46, 80
1, 51480, Note_off_c, 9, 35, 64
1, 51480, Note_off_c, 9, 46, 64
1, 51840, Note_on_c, 9, 38, 80
1, 51840, Note_on_c, 9, 46, 80
1, 51960, Note_off_c, 9, 38, 64
1, 51960, Note_off_c, 9, 46, 64
1, 52320, Note_on_c, 9, 35, 80
1, 52320, Note_on_c, 9, 46, 80
1, 52440, Note_off_c, 9, 35, 64
1, 52440, Note_off_c, 9, 46, 64
1, 52800, Note_on_c, 9, 38, 80
1, 52800, Note_on_c, 9, 46, 80
1, 52920, Note_off_c, 9, 38, 64
1, 52920, Note_off_c, 9, 46, 64
1, 53280, Note_on_c, 9, 35, 80
1, 53280, Note_on_c, 9, 46, 80
1, 53400, Note_off_c, 9, 35, 64
1, 53400, Note_off_c, 9, 46, 64
1, 53760, Note_on_c, 9, 38, 80
1, 53760, Note_on_c, 9, 46, 80
1, 53880, Note_off_c, 9, 38, 64
1, 53880, Note_off_c, 9, 46, 64
1, 54240, Note_on_c, 9, 35, 80
1, 54240, Note_on_c, 9, 46, 80
1, 54360, Note_off_c, 9, 35, 64
1, 54360, Note_off_c, 9, 46, 64
1, 54720, Note_on_c, 9, 38, 80
1, 54720, Note_on_c, 9, 46, 80
1, 54840, Note_off_c, 9, 38, 64
1, 54840, Note_off_c, 9, 46, 64
1, 55200, Note_on_c, 9, 35, 80
1, 55200, Note_on_c, 9, 46, 80
1, 55320, Note_off_c, 9, 35, 64
1, 55320, Note_off_c, 9, 46, 64
1, 55680, Note_on_c, 9, 38, 80
1, 55680, Note_on_c, 9, 46, 80
1, 55800, Note_off_c, 9, 38, 64
1, 55800, Note_off_c, 9, 46, 64
1, 56160, Note_on_c, 9, 35, 80
1, 56160, Note_on_c, 9, 46, 80
1, 56280, Note_off_c, 9, 35, 64
1, 56280, Note_off_c, 9, 46, 64
1, 56640, Note_on_c, 9, 38, 80
1, 56640, Note_on_c, 9, 46, 80
1, 56760, Note_off_c, 9, 38, 64
1, 56760, Note_off_c, 9, 46, 64
1, 57120, Note_on_c, 9, 35, 80
1, 57120, Note_on_c, 9, 46, 80
1, 57240, Note_off_c, 9, 35, 64
1, 57240, Note_off_c, 9, 46, 64
1, 57600, Note_on_c, 9, 38, 80
1, 57600, Note_on_c, 9, 46, 80
1, 57720, Note_off_c, 9, 38, 64
1, 57720, Note_off_c, 9, 46, 64
1, 58080, Note_on_c, 9, 35, 80
1, 58080, Note_on_c, 9, 46, 80
1, 58200, Note_off_c, 9, 35, 64
1, 58200, Note_off_c, 9, 46, 64
1, 58560, Note_on_c, 9, 38, 80
1, 58560, Note_on_c, 9, 46, 80
1, 58680, Note_off_c, 9, 38, 64
1, 58680, Note_off_c, 9, 46, 64
1, 59040, Note_on_c, 9, 35, 80
1, 59040, Note_on_c, 9, 46, 80
1, 59160, Note_off_c, 9, 35, 64
1, 59160, Note_off_c, 9, 46, 64
1, 59520, Note_on_c, 9, 38, 80
1, 59520, Note_on_c, 9, 46, 80
1, 59640, Note_off_c, 9, 38, 64
1, 59640, Note_off_c, 9, 46, 64
1, 60000, Note_on_c, 9, 35, 80
1, 60000, Note_on_c, 9, 46, 80
1, 60120, Note_off_c, 9, 35, 64
1, 60120, Note_off_c, 9, 46, 64
1, 60480, Note_on_c, 9, 38, 80
1, 60480, Note_on_c, 9, 46, 80
1, 60600, Note_off_c, 9, 38, 64
1, 60600, Note_off_c, 9, 46, 64
1, 60960, Note_on_c, 9, 35, 80
1, 60960, Note_on_c, 9, 46, 80
1, 61080, Note_off_c, 9, 35, 64
1, 61080, Note_off_c, 9, 46, 64
1, 61440, Note_on_c, 9, 38, 80
1, 61440, Note_on_c, 9, 46, 80
1, 61560, Note_off_c, 9, 38, 64
1, 61560, Note_off_c, 9, 46, 64
1, 61920, Note_on_c, 9, 35, 80
1, 61920, Note_on_c, 9, 46, 80
1, 62040, Note_off_c, 9, 35, 64
1, 62040, Note_off_c, 9, 46, 64
1, 62400, Note_on_c, 9, 38, 80
1, 62400, Note_on_c, 9, 46, 80
1, 62520, Note_off_c, 9, 38, 64
1, 62520, Note_off_c, 9, 46, 64
1, 62880, Note_on_c, 9, 35, 80
1, 62880, Note_on_c, 9, 46, 80
1, 63000, Note_off_c, 9, 35, 64
1, 63000, Note_off_c, 9, 46, 64
1, 63360, Note_on_c, 9, 38, 80
1, 63360, Note_on_c, 9, 46, 80
1, 63480, Note_off_c, 9, 38, 64
1, 63480, Note_off_c, 9, 46, 64
1, 63840, Note_on_c, 9, 35, 80
1, 63840, Note_on_c, 9, 46, 80
1, 63960, Note_off_c, 9, 35, 64
1, 63960, Note_off_c, 9, 46, 64
1, 64320, Note_on_c, 9, 38, 80
1, 64320, Note_on_c, 9, 46, 80
1, 64440, Note_off_c, 9, 38, 64
1, 64440, Note_off_c, 9, 46, 64
1, 64800, Note_on_c, 9, 35, 80
1, 64800, Note_on_c, 9, 46, 80
1, 64920, Note_off_c, 9, 35, 64
1, 64920, Note_off_c, 9, 46, 64
1, 65280, Note_on_c, 9, 38, 80
1, 65280, Note_on_c, 9, 46, 80
1, 65400, Note_off_c, 9, 38, 64
1, 65400, Note_off_c, 9, 46, 64
1, 65760, Note_on_c, 9, 35, 80
1, 65760, Note_on_c, 9, 46, 80
1, 65880, Note_off_c, 9, 35, 64
1, 65880, Note_off_c, 9, 46, 64
1, 66240, Note_on_c, 9, 38, 80
1, 66240, Note_on_c, 9, 46, 80
1, 66360, Note_off_c, 9, 38, 64
1, 66360, Note_off_c, 9, 46, 64
1, 66720, Note_on_c, 9, 35, 80
1, 66720, Note_on_c, 9, 46, 80
1, 66840, Note_off_c, 9, 35, 64
1, 66840, Note_off_c, 9, 46, 64
1, 67200, Note_on_c, 9, 38, 80
1, 67200, Note_on_c, 9, 46, 80
1, 67320, Note_off_c, 9, 38, 64
1, 67320, Note_off_c, 9, 46, 64
1, 67680, Note_on_c, 9, 35, 80
1, 67680, Note_on_c, 9, 46, 80
1, 67800, Note_off_c, 9, 35, 64
1, 67800, Note_off_c, 9, 46, 64
1, 68160, Note_on_c, 9, 38, 80
1, 68160, Note_on_c, 9, 46, 80
1, 68280, Note_off_c, 9, 38, 64
1, 68280, Note_off_c, 9, 46, 64
1, 68640, Note_on_c, 9, 35, 80
1, 68640, Note_on_c, 9, 46, 80
1, 68760, Note_off_c, 9, 35, 64
1, 68760, Note_off_c, 9, 46, 64
1, 69120, Note_on_c, 9, 38, 80
1, 69120, Note_on_c, 9, 46, 80
1, 69240, Note_off_c, 9, 38, 64
1, 69240, Note_off_c, 9, 46, 64
1, 69600, Note_on_c, 9, 35, 80
1, 69600, Note_on_c, 9, 46, 80
1, 69720, Note_off_c, 9, 35, 64
1, 69720, Note_off_c, 9, 46, 64
1, 70080, Note_on_c, 9, 38, 80
1, 70080, Note_on_c, 9, 46, 80
1, 70200, Note_off_c, 9, 38, 64
1, 70200, Note_off_c, 9, 46, 64
1, 70560, Note_on_c, 9, 35, 80
1, 70560, Note_on_c, 9, 46, 80
1, 70680, Note_off_c, 9, 35, 64
1, 70680, Note_off_c, 9, 46, 64
1, 71040, Note_on_c, 9, 38, 80
1, 71040, Note_on_c, 9, 46, 80
1, 71160, Note_off_c, 9, 38, 64
1, 71160, Note_off_c, 9, 46, 64
1, 71520, Note_on_c, 9, 35, 80
1, 71520, Note_on_c, 9, 46, 80
1, 71640, Note_off_c, 9, 35, 64
1, 71640, Note_off_c, 9, 46, 64
1, 72000, Note_on_c, 9, 38, 80
1, 72000, Note_on_c, 9, 46, 80
1, 72120, Note_off_c, 9, 38, 64
1, 72120, Note_off_c, 9, 46, 64
1, 72480, Note_on_c, 9, 35, 80
1, 72480, Note_on_c, 9, 46, 80
1, 72600, Note_off_c, 9, 35, 64
1, 72600, Note_off_c, 9, 46, 64
1, 72960, Note_on_c, 9, 38, 80
1, 72960, Note_on_c, 9, 46, 80
1, 73080, Note_off_c, 9, 38, 64
1, 73080, Note_off_c, 9, 46, 64
1, 73440, Note_on_c, 9, 35, 80
1, 73440, Note_on_c, 9, 46, 80
1, 73560, Note_off_c, 9, 35, 64
1, 73560, Note_off_c, 9, 46, 64
1, 73920, Note_on_c, 9, 38, 80
1, 73920, Note_on_c, 9, 46, 80
1, 74040, Note_off_c, 9, 38, 64
1, 74040, Note_off_c, 9, 46, 64
1, 74400, Note_on_c, 9, 35, 80
1, 74400, Note_on_c, 9, 46, 80
1, 74520, Note_off_c, 9, 35, 64
1, 74520, Note_off_c, 9, 46, 64
1, 74880, Note_on_c, 9, 38, 80
1, 74880, Note_on_c, 9, 46, 80
1, 75000, Note_off_c, 9, 38, 64
1, 75000, Note_off_c, 9, 46, 64
1, 75360, Note_on_c, 9, 35, 80
1, 75360, Note_on_c, 9, 46, 80
1, 75480, Note_off_c, 9, 35, 64
1, 75480, Note_off_c, 9, 46, 64
1, 75840, Note_on_c, 9, 38, 80
1, 75840, Note_on_c, 9, 46, 80
1, 75960, Note_off_c, 9, 38, 64
1, 75960, Note_off_c, 9, 46, 64
1, 76320, Note_on_c, 9, 35, 80
1, 76320, Note_on_c, 9, 46, 80
1, 76440, Note_off_c, 9, 35, 64
1, 76440, Note_off_c, 9, 46, 64
1, 76800, Note_on_c, 9, 38, 80
1, 76800, Note_on_c, 9, 46, 80
1, 76920, Note_off_c, 9, 38, 64
1, 76920, Note_off_c, 9, 46, 64
1, 77280, Note_on_c, 9, 35, 80
1, 77280, Note_on_c, 9, 46, 80
1, 77400, Note_off_c, 9, 35, 64
1, 77400, Note_off_c, 9, 46, 64
1, 77760, Note_on_c, 9, 38, 80
1, 77760, Note_on_c, 9, 46, 80
1, 77880, Note_off_c, 9, 38, 64
1, 77880, Note_off_c, 9, 46, 64
1, 78240, Note_on_c, 9, 35, 80
1, 78240, Note_on_c, 9, 46, 80
1, 78360, Note_off_c, 9, 35, 64
1, 78360, Note_off_c, 9, 46, 64
1, 78720, Note_on_c, 9, 38, 80
1, 78720, Note_on_c, 9, 46, 80
1, 78840, Note_off_c, 9, 38, 64
1, 78840, Note_off_c, 9, 46, 64
1, 79200, Note_on_c, 9, 35, 80
1, 79200, Note_on_c, 9, 46, 80
1, 79320, Note_off_c, 9, 35, 64
1, 79320, Note_off_c, 9, 46, 64
1, 79680, Note_on_c, 9, 38, 80
1, 79680, Note_on_c, 9, 46, 80
1, 79800, Note_off_c, 9, 38, 64
1, 79800, Note_off_c, 9, 46, 64
1, 80160, Note_on_c, 9, 35, 80
1, 80160, Note_on_c, 9, 46, 80
1, 80280, Note_off_c, 9, 35, 64
1, 80280, Note_off_c, 9, 46, 64
1, 80640, Note_on_c, 9, 38, 80
1, 80640, Note_on_c, 9, 46, 80
1, 80760, Note_off_c, 9, 38, 64
1, 80760, Note_off_c, 9, 46, 64
1, 81120, Note_on_c, 9, 35, 80
1, 81120, Note_on_c, 9, 46, 80
1, 81240, Note_off_c, 9, 35, 64
1, 81240, Note_off_c, 9, 46, 64
1, 81600, Note_on_c, 9, 38, 80
1, 81600, Note_on_c, 9, 46, 80
1, 81720, Note_off_c, 9, 38, 64
1, 81720, Note_off_c, 9, 46, 64
1, 82080, Note_on_c, 9, 35, 80
1, 82080, Note_on_c, 9, 46, 80
1, 82200, Note_off_c, 9, 35, 64
1, 82200, Note_off_c, 9, 46, 64
1, 82560, Note_on_c, 9, 38, 80
1, 82560, Note_on_c, 9, 46, 80
1, 82680, Note_off_c, 9, 38, 64
1, 82680, Note_off_c, 9, 46, 64
1, 83040, Note_on_c, 9, 35, 80
1, 83040, Note_on_c, 9, 46, 80
1, 83160, Note_off_c, 9, 35, 64
1, 83160, Note_off_c, 9, 46, 64
1, 83520, Note_on_c, 9, 38, 80
1, 83520, Note_on_c, 9, 46, 80
1, 83640, Note_off_c, 9, 38, 64
1, 83640, Note_off_c, 9, 46, 64
1, 84000, Note_on_c, 9, 35, 80
1, 84000, Note_on_c, 9, 46, 80
1, 84120, Note_off_c, 9, 35, 64
1, 84120, Note_off_c, 9, 46, 64
1, 84480, Note_on_c, 9, 38, 80
1, 84480, Note_on_c, 9, 46, 80
1, 84600, Note_off_c, 9, 38, 64
1, 84600, Note_off_c, 9, 46, 64
1, 84960, Note_on_c, 9, 35, 80
1, 84960, Note_on_c, 9, 46, 80
1, 85080, Note_off_c, 9, 35, 64
1, 85080, Note_off_c, 9, 46, 64
1, 85440, Note_on_c, 9, 38, 80
1, 85440, Note_on_c, 9, 46, 80
1, 85560, Note_off_c, 9, 38, 64
1, 85560, Note_off_c, 9, 46, 64
1, 85920, Note_on_c, 9, 35, 80
1, 85920, Note_on_c, 9, 46, 80
1, 86040, Note_off_c, 9, 35, 64
1, 86040, Note_off_c, 9, 46, 64
1, 86400, Note_on_c, 9, 38, 80
1, 86400, Note_on_c, 9, 46, 80
1, 86520, Note_off_c, 9, 38, 64
1, 86520, Note_off_c, 9, 46, 64
1, 86880, Note_on_c, 9, 35, 80
1, 86880, Note_on_c, 9, 46, 80
1, 87000, Note_off_c, 9, 35, 64
1, 87000, Note_off_c, 9, 46, 64
1, 87360, Note_on_c, 9, 38, 80
1, 87360, Note_on_c, 9, 46, 80
1, 87480, Note_off_c, 9, 38, 64
1, 87480, Note_off_c, 9, 46, 64
1, 87840, Note_on_c, 9, 35, 80
1, 87840, Note_on_c, 9, 46, 80
1, 87960, Note_off_c, 9, 35, 64
1, 87960, Note_off_c, 9, 46, 64
1, 88320, Note_on_c, 9, 38, 80
1, 88320, Note_on_c, 9, 46, 80
1, 88440, Note_off_c, 9, 38, 64
1, 88440, Note_off_c, 9, 46, 64
1, 88800, Note_on_c, 9, 35, 80
1, 88800, Note_on_c, 9, 46, 80
1, 88920, Note_off_c, 9, 35, 64
1, 88920, Note_off_c, 9, 46, 64
1, 89280, Note_on_c, 9, 38, 80
1, 89280, Note_on_c, 9, 46, 80
1, 89400, Note_off_c, 9, 38, 64
1, 89400, Note_off_c, 9, 46, 64
1, 89760, Note_on_c, 9, 35, 80
1, 89760, Note_on_c, 9, 46, 80
1, 89880, Note_off_c, 9, 35, 64
1, 89880, Note_off_c, 9, 46, 64
1, 90240, Note_on_c, 9, 38, 80
1, 90240, Note_on_c, 9, 46, 80
1, 90360, Note_off_c, 9, 38, 64
1, 90360, Note_off_c, 9, 46, 64
1, 90720, Note_on_c, 9, 35, 80
1, 90720, Note_on_c, 9, 46, 80
1, 90840, Note_off_c, 9, 35, 64
1, 90840, Note_off_c, 9, 46, 64
1, 91200, Note_on_c, 9, 38, 80
1, 91200, Note_on_c, 9, 46, 80
1, 91320, Note_off_c, 9, 38, 64
1, 91320, Note_off_c, 9, 46, 64
1, 91680, Note_on_c, 9, 35, 80
1, 91680, Note_on_c, 9, 46, 80
1, 91800, Note_off_c, 9, 35, 64
1, 91800, Note_off_c, 9, 46, 64
1, 92160, Note_on_c, 9, 38, 80
1, 92160, Note_on_c, 9, 46, 80
1, 92280, Note_off_c, 9, 38, 64
1, 92280, Note_off_c, 9, 46, 64
1, 92640, Note_on_c, 9, 35, 80
1, 92640, Note_on_c, 9, 46, 80
1, 92760, Note_off_c, 9, 35, 64
1, 92760, Note_off_c, 9, 46, 64
1, 93120, Note_on_c, 9, 38, 80
1, 93120, Note_on_c, 9, 46, 80
1, 93240, Note_off_c, 9, 38, 64
1, 93240, Note_off_c, 9, 46, 64
1, 93240, Note_on_c, 9, 38, 80
1, 93300, Note_off_c, 9, 38, 64
1, 93360, Note_on_c, 9, 38, 80
1, 93420, Note_off_c, 9, 38, 64
1, 93480, Note_on_c, 9, 38, 80
1, 93540, Note_off_c, 9, 38, 64
1, 93600, Note_on_c, 9, 49, 80
1, 93600, Note_on_c, 9, 35, 80
1, 93720, Note_off_c, 9, 49, 64
1, 93720, Note_off_c, 9, 35, 64
1, 94080, Note_on_c, 9, 38, 80
1, 94200, Note_off_c, 9, 38, 64
1, 94320, Note_on_c, 9, 35, 80
1, 94320, Note_on_c, 9, 49, 80
1, 94440, Note_off_c, 9, 35, 64
1, 94440, Note_off_c, 9, 49, 64
1, 94800, Note_on_c, 9, 38, 80
1, 94920, Note_off_c, 9, 38, 64
1, 95040, Note_on_c, 9, 35, 80
1, 95040, Note_on_c, 9, 49, 80
1, 95100, Note_off_c, 9, 35, 64
1, 95100, Note_off_c, 9, 49, 64
1, 95520, Note_on_c, 9, 46, 80
1, 95640, Note_off_c, 9, 46, 64
1, 96000, Note_on_c, 9, 46, 80
1, 96000, Note_on_c, 9, 38, 80
1, 96120, Note_off_c, 9, 46, 64
1, 96120, Note_off_c, 9, 38, 64
1, 96480, Note_on_c, 9, 46, 80
1, 96480, Note_on_c, 9, 35, 80
1, 96600, Note_off_c, 9, 46, 64
1, 96600, Note_off_c, 9, 35, 64
1, 96960, Note_on_c, 9, 46, 80
1, 96960, Note_on_c, 9, 38, 80
1, 97080, Note_off_c, 9, 46, 64
1, 97080, Note_off_c, 9, 38, 64
1, 97440, Note_on_c, 9, 35, 80
1, 97440, Note_on_c, 9, 49, 80
1, 97560, Note_off_c, 9, 35, 64
1, 97560, Note_off_c, 9, 49, 64
1, 97920, Note_on_c, 9, 38, 80
1, 98040, Note_off_c, 9, 38, 64
1, 98160, Note_on_c, 9, 35, 80
1, 98160, Note_on_c, 9, 49, 80
1, 98280, Note_off_c, 9, 35, 64
1, 98280, Note_off_c, 9, 49, 64
1, 98640, Note_on_c, 9, 38, 80
1, 98760, Note_off_c, 9, 38, 64
1, 98880, Note_on_c, 9, 35, 80
1, 98880, Note_on_c, 9, 49, 80
1, 98940, Note_off_c, 9, 35, 64
1, 98940, Note_off_c, 9, 49, 64
1, 99360, Note_on_c, 9, 46, 80
1, 99480, Note_off_c, 9, 46, 64
1, 99840, Note_on_c, 9, 46, 80
1, 99840, Note_on_c, 9, 38, 80
1, 99960, Note_off_c, 9, 46, 64
1, 99960, Note_off_c, 9, 38, 64
1, 100320, Note_on_c, 9, 46, 80
1, 100320, Note_on_c, 9, 35, 80
1, 100440, Note_off_c, 9, 46, 64
1, 100440, Note_off_c, 9, 35, 64
1, 100800, Note_on_c, 9, 46, 80
1, 100800, Note_on_c, 9, 38, 80
1, 100920, Note_off_c, 9, 46, 64
1, 100920, Note_off_c, 9, 38, 64
1, 101280, Note_on_c, 9, 35, 80
1, 101280, Note_on_c, 9, 49, 80
1, 101400, Note_off_c, 9, 35, 64
1, 101400, Note_off_c, 9, 49, 64
1, 101760, Note_on_c, 9, 46, 80
1, 101880, Note_off_c, 9, 46, 64
1, 102240, Note_on_c, 9, 46, 80
1, 102360, Note_off_c, 9, 46, 64
1, 102480, Note_on_c, 9, 35, 80
1, 102540, Note_off_c, 9, 35, 64
1, 102720, Note_on_c, 9, 38, 80
1, 102840, Note_off_c, 9, 38, 64
1, 102960, Note_on_c, 9, 35, 80
1, 102960, Note_on_c, 9, 49, 80
1, 103020, Note_off_c, 9, 35, 64
1, 103020, Note_off_c, 9, 49, 64
1, 103680, Note_on_c, 9, 46, 80
1, 103800, Note_off_c, 9, 46, 64
1, 104160, Note_on_c, 9, 46, 80
1, 104280, Note_off_c, 9, 46, 64
1, 104640, Note_on_c, 9, 46, 80
1, 104760, Note_off_c, 9, 46, 64
1, 105120, Note_on_c, 9, 35, 80
1, 105120, Note_on_c, 9, 49, 80
1, 105240, Note_off_c, 9, 35, 64
1, 105240, Note_off_c, 9, 49, 64
1, 105600, Note_on_c, 9, 46, 80
1, 105720, Note_off_c, 9, 46, 64
1, 106080, Note_on_c, 9, 46, 80
1, 106200, Note_off_c, 9, 46, 64
1, 106320, Note_on_c, 9, 35, 80
1, 106380, Note_off_c, 9, 35, 64
1, 106560, Note_on_c, 9, 38, 80
1, 106680, Note_off_c, 9, 38, 64
1, 106800, Note_on_c, 9, 35, 80
1, 106800, Note_on_c, 9, 49, 80
1, 106860, Note_off_c, 9, 35, 64
1, 106860, Note_off_c, 9, 49, 64
1, 107520, Note_on_c, 9, 46, 80
1, 107640, Note_off_c, 9, 46, 64
1, 108000, Note_on_c, 9, 46, 80
1, 108120, Note_off_c, 9, 46, 64
1, 108480, Note_on_c, 9, 46, 80
1, 108600, Note_off_c, 9, 46, 64
1, 108960, Note_on_c, 9, 35, 80
1, 108960, Note_on_c, 9, 49, 80
1, 109080, Note_off_c, 9, 35, 64
1, 109080, Note_off_c, 9, 49, 64
1, 109440, Note_on_c, 9, 46, 80
1, 109560, Note_off_c, 9, 46, 64
1, 109920, Note_on_c, 9, 46, 80
1, 110040, Note_off_c, 9, 46, 64
1, 110160, Note_on_c, 9, 35, 80
1, 110220, Note_off_c, 9, 35, 64
1, 110400, Note_on_c, 9, 38, 80
1, 110520, Note_off_c, 9, 38, 64
1, 110640, Note_on_c, 9, 35, 80
1, 110640, Note_on_c, 9, 49, 80
1, 110700, Note_off_c, 9, 35, 64
1, 110700, Note_off_c, 9, 49, 64
1, 111360, Note_on_c, 9, 46, 80
1, 111480, Note_off_c, 9, 46, 64
1, 111840, Note_on_c, 9, 46, 80
1, 111960, Note_off_c, 9, 46, 64
1, 112320, Note_on_c, 9, 46, 80
1, 112440, Note_off_c, 9, 46, 64
1, 112440, Note_on_c, 9, 38, 80
1, 112500, Note_off_c, 9, 38, 64
1, 112560, Note_on_c, 9, 38, 80
1, 112620, Note_off_c, 9, 38, 64
1, 112680, Note_on_c, 9, 38, 80
1, 112740, Note_off_c, 9, 38, 64
1, 112800, Note_on_c, 9, 35, 80
1, 112800, Note_on_c, 9, 49, 80
1, 112860, Note_off_c, 9, 35, 64
1, 112860, Note_off_c, 9, 49, 64
1, 113280, Note_on_c, 9, 38, 80
1, 113340, Note_off_c, 9, 38, 64
1, 113520, Note_on_c, 9, 35, 80
1, 113520, Note_on_c, 9, 49, 80
1, 113640, Note_off_c, 9, 35, 64
1, 113640, Note_off_c, 9, 49, 64
1, 114000, Note_on_c, 9, 38, 80
1, 114060, Note_off_c, 9, 38, 64
1, 114240, Note_on_c, 9, 35, 80
1, 114240, Note_on_c, 9, 49, 80
1, 114360, Note_off_c, 9, 35, 64
1, 114360, Note_off_c, 9, 49, 64
1, 114720, Note_on_c, 9, 38, 80
1, 114780, Note_off_c, 9, 38, 64
1, 114960, Note_on_c, 9, 35, 80
1, 114960, Note_on_c, 9, 49, 80
1, 115080, Note_off_c, 9, 35, 64
1, 115080, Note_off_c, 9, 49, 64
1, 115440, Note_on_c, 9, 38, 80
1, 115500, Note_off_c, 9, 38, 64
1, 115680, Note_on_c, 9, 35, 80
1, 115680, Note_on_c, 9, 49, 80
1, 115800, Note_off_c, 9, 35, 64
1, 115800, Note_off_c, 9, 49, 64
1, 116160, Note_on_c, 9, 35, 80
1, 116160, Note_on_c, 9, 49, 80
1, 116280, Note_off_c, 9, 35, 64
1, 116280, Note_off_c, 9, 49, 64
1, 116640, Note_on_c, 9, 35, 80
1, 116640, Note_on_c, 9, 49, 80
1, 116760, Note_off_c, 9, 35, 64
1, 116760, Note_off_c, 9, 49, 64
1, 117120, Note_on_c, 9, 38, 80
1, 117120, Note_on_c, 9, 46, 80
1, 117240, Note_off_c, 9, 38, 64
1, 117240, Note_off_c, 9, 46, 64
1, 117600, Note_on_c, 9, 35, 80
1, 117600, Note_on_c, 9, 46, 80
1, 117720, Note_off_c, 9, 35, 64
1, 117720, Note_off_c, 9, 46, 64
1, 118080, Note_on_c, 9, 38, 80
1, 118080, Note_on_c, 9, 46, 80
1, 118200, Note_off_c, 9, 38, 64
1, 118200, Note_off_c, 9, 46, 64
1, 118560, Note_on_c, 9, 35, 80
1, 118560, Note_on_c, 9, 46, 80
1, 118680, Note_off_c, 9, 35, 64
1, 118680, Note_off_c, 9, 46, 64
1, 119040, Note_on_c, 9, 38, 80
1, 119040, Note_on_c, 9, 46, 80
1, 119160, Note_off_c, 9, 38, 64
1, 119160, Note_off_c, 9, 46, 64
1, 119520, Note_on_c, 9, 35, 80
1, 119520, Note_on_c, 9, 46, 80
1, 119640, Note_off_c, 9, 35, 64
1, 119640, Note_off_c, 9, 46, 64
1, 120000, Note_on_c, 9, 38, 80
1, 120000, Note_on_c, 9, 46, 80
1, 120120, Note_off_c, 9, 38, 64
1, 120120, Note_off_c, 9, 46, 64
1, 120480, Note_on_c, 9, 35, 80
1, 120480, Note_on_c, 9, 46, 80
1, 120600, Note_off_c, 9, 35, 64
1, 120600, Note_off_c, 9, 46, 64
1, 120960, Note_on_c, 9, 38, 80
1, 120960, Note_on_c, 9, 46, 80
1, 121080, Note_off_c, 9, 38, 64
1, 121080, Note_off_c, 9, 46, 64
1, 121440, Note_on_c, 9, 35, 80
1, 121440, Note_on_c, 9, 46, 80
1, 121560, Note_off_c, 9, 35, 64
1, 121560, Note_off_c, 9, 46, 64
1, 121920, Note_on_c, 9, 38, 80
1, 121920, Note_on_c, 9, 46, 80
1, 122040, Note_off_c, 9, 38, 64
1, 122040, Note_off_c, 9, 46, 64
1, 122400, Note_on_c, 9, 35, 80
1, 122400, Note_on_c, 9, 46, 80
1, 122520, Note_off_c, 9, 35, 64
1, 122520, Note_off_c, 9, 46, 64
1, 122880, Note_on_c, 9, 38, 80
1, 122880, Note_on_c, 9, 46, 80
1, 123000, Note_off_c, 9, 38, 64
1, 123000, Note_off_c, 9, 46, 64
1, 123360, Note_on_c, 9, 35, 80
1, 123360, Note_on_c, 9, 46, 80
1, 123480, Note_off_c, 9, 35, 64
1, 123480, Note_off_c, 9, 46, 64
1, 123840, Note_on_c, 9, 38, 80
1, 123840, Note_on_c, 9, 46, 80
1, 123960, Note_off_c, 9, 38, 64
1, 123960, Note_off_c, 9, 46, 64
1, 124320, Note_on_c, 9, 35, 80
1, 124320, Note_on_c, 9, 46, 80
1, 124440, Note_off_c, 9, 35, 64
1, 124440, Note_off_c, 9, 46, 64
1, 124800, Note_on_c, 9, 38, 80
1, 124800, Note_on_c, 9, 46, 80
1, 124920, Note_off_c, 9, 38, 64
1, 124920, Note_off_c, 9, 46, 64
1, 125280, Note_on_c, 9, 35, 80
1, 125280, Note_on_c, 9, 46, 80
1, 125400, Note_off_c, 9, 35, 64
1, 125400, Note_off_c, 9, 46, 64
1, 125760, Note_on_c, 9, 38, 80
1, 125760, Note_on_c, 9, 46, 80
1, 125880, Note_off_c, 9, 38, 64
1, 125880, Note_off_c, 9, 46, 64
1, 126240, Note_on_c, 9, 35, 80
1, 126240, Note_on_c, 9, 46, 80
1, 126360, Note_off_c, 9, 35, 64
1, 126360, Note_off_c, 9, 46, 64
1, 126720, Note_on_c, 9, 38, 80
1, 126720, Note_on_c, 9, 46, 80
1, 126840, Note_off_c, 9, 38, 64
1, 126840, Note_off_c, 9, 46, 64
1, 127200, Note_on_c, 9, 35, 80
1, 127200, Note_on_c, 9, 46, 80
1, 127320, Note_off_c, 9, 35, 64
1, 127320, Note_off_c, 9, 46, 64
1, 127680, Note_on_c, 9, 38, 80
1, 127680, Note_on_c, 9, 46, 80
1, 127800, Note_off_c, 9, 38, 64
1, 127800, Note_off_c, 9, 46, 64
1, 128160, Note_on_c, 9, 35, 80
1, 128160, Note_on_c, 9, 46, 80
1, 128280, Note_off_c, 9, 35, 64
1, 128280, Note_off_c, 9, 46, 64
1, 128640, Note_on_c, 9, 38, 80
1, 128640, Note_on_c, 9, 46, 80
1, 128760, Note_off_c, 9, 38, 64
1, 128760, Note_off_c, 9, 46, 64
1, 129120, Note_on_c, 9, 35, 80
1, 129120, Note_on_c, 9, 46, 80
1, 129240, Note_off_c, 9, 35, 64
1, 129240, Note_off_c, 9, 46, 64
1, 129600, Note_on_c, 9, 38, 80
1, 129600, Note_on_c, 9, 46, 80
1, 129720, Note_off_c, 9, 38, 64
1, 129720, Note_off_c, 9, 46, 64
1, 130080, Note_on_c, 9, 35, 80
1, 130080, Note_on_c, 9, 46, 80
1, 130200, Note_off_c, 9, 35, 64
1, 130200, Note_off_c, 9, 46, 64
1, 130560, Note_on_c, 9, 38, 80
1, 130560, Note_on_c, 9, 46, 80
1, 130680, Note_off_c, 9, 38, 64
1, 130680, Note_off_c, 9, 46, 64
1, 131040, Note_on_c, 9, 35, 80
1, 131040, Note_on_c, 9, 46, 80
1, 131160, Note_off_c, 9, 35, 64
1, 131160, Note_off_c, 9, 46, 64
1, 131520, Note_on_c, 9, 38, 80
1, 131520, Note_on_c, 9, 46, 80
1, 131640, Note_off_c, 9, 38, 64
1, 131640, Note_off_c, 9, 46, 64
1, 132000, Note_on_c, 9, 35, 80
1, 132000, Note_on_c, 9, 46, 80
1, 132120, Note_off_c, 9, 35, 64
1, 132120, Note_off_c, 9, 46, 64
1, 132480, Note_on_c, 9, 38, 80
1, 132480, Note_on_c, 9, 46, 80
1, 132600, Note_off_c, 9, 38, 64
1, 132600, Note_off_c, 9, 46, 64
1, 132960, Note_on_c, 9, 35, 80
1, 132960, Note_on_c, 9, 46, 80
1, 133080, Note_off_c, 9, 35, 64
1, 133080, Note_off_c, 9, 46, 64
1, 133440, Note_on_c, 9, 38, 80
1, 133440, Note_on_c, 9, 46, 80
1, 133560, Note_off_c, 9, 38, 64
1, 133560, Note_off_c, 9, 46, 64
1, 133920, Note_on_c, 9, 35, 80
1, 133920, Note_on_c, 9, 46, 80
1, 134040, Note_off_c, 9, 35, 64
1, 134040, Note_off_c, 9, 46, 64
1, 134400, Note_on_c, 9, 38, 80
1, 134400, Note_on_c, 9, 46, 80
1, 134520, Note_off_c, 9, 38, 64
1, 134520, Note_off_c, 9, 46, 64
1, 134880, Note_on_c, 9, 35, 80
1, 134880, Note_on_c, 9, 46, 80
1, 135000, Note_off_c, 9, 35, 64
1, 135000, Note_off_c, 9, 46, 64
1, 135360, Note_on_c, 9, 38, 80
1, 135360, Note_on_c, 9, 46, 80
1, 135480, Note_off_c, 9, 38, 64
1, 135480, Note_off_c, 9, 46, 64
1, 135840, Note_on_c, 9, 35, 80
1, 135840, Note_on_c, 9, 46, 80
1, 135960, Note_off_c, 9, 35, 64
1, 135960, Note_off_c, 9, 46, 64
1, 136320, Note_on_c, 9, 38, 80
1, 136320, Note_on_c, 9, 46, 80
1, 136440, Note_off_c, 9, 38, 64
1, 136440, Note_off_c, 9, 46, 64
1, 136800, Note_on_c, 9, 35, 80
1, 136800, Note_on_c, 9, 46, 80
1, 136920, Note_off_c, 9, 35, 64
1, 136920, Note_off_c, 9, 46, 64
1, 137280, Note_on_c, 9, 38, 80
1, 137280, Note_on_c, 9, 46, 80
1, 137400, Note_off_c, 9, 38, 64
1, 137400, Note_off_c, 9, 46, 64
1, 137760, Note_on_c, 9, 35, 80
1, 137760, Note_on_c, 9, 46, 80
1, 137880, Note_off_c, 9, 35, 64
1, 137880, Note_off_c, 9, 46, 64
1, 138240, Note_on_c, 9, 38, 80
1, 138240, Note_on_c, 9, 46, 80
1, 138360, Note_off_c, 9, 38, 64
1, 138360, Note_off_c, 9, 46, 64
1, 138720, Note_on_c, 9, 35, 80
1, 138720, Note_on_c, 9, 46, 80
1, 138840, Note_off_c, 9, 35, 64
1, 138840, Note_off_c, 9, 46, 64
1, 139200, Note_on_c, 9, 38, 80
1, 139200, Note_on_c, 9, 46, 80
1, 139320, Note_off_c, 9, 38, 64
1, 139320, Note_off_c, 9, 46, 64
1, 139680, Note_on_c, 9, 35, 80
1, 139680, Note_on_c, 9, 46, 80
1, 139800, Note_off_c, 9, 35, 64
1, 139800, Note_off_c, 9, 46, 64
1, 140160, Note_on_c, 9, 38, 80
1, 140160, Note_on_c, 9, 46, 80
1, 140280, Note_off_c, 9, 38, 64
1, 140280, Note_off_c, 9, 46, 64
1, 140640, Note_on_c, 9, 35, 80
1, 140640, Note_on_c, 9, 46, 80
1, 140760, Note_off_c, 9, 35, 64
1, 140760, Note_off_c, 9, 46, 64
1, 141120, Note_on_c, 9, 38, 80
1, 141120, Note_on_c, 9, 46, 80
1, 141240, Note_off_c, 9, 38, 64
1, 141240, Note_off_c, 9, 46, 64
1, 141600, Note_on_c, 9, 35, 80
1, 141600, Note_on_c, 9, 46, 80
1, 141720, Note_off_c, 9, 35, 64
1, 141720, Note_off_c, 9, 46, 64
1, 142080, Note_on_c, 9, 38, 80
1, 142080, Note_on_c, 9, 46, 80
1, 142200, Note_off_c, 9, 38, 64
1, 142200, Note_off_c, 9, 46, 64
1, 142560, Note_on_c, 9, 35, 80
1, 142560, Note_on_c, 9, 46, 80
1, 142680, Note_off_c, 9, 35, 64
1, 142680, Note_off_c, 9, 46, 64
1, 143040, Note_on_c, 9, 38, 80
1, 143040, Note_on_c, 9, 46, 80
1, 143160, Note_off_c, 9, 38, 64
1, 143160, Note_off_c, 9, 46, 64
1, 143520, Note_on_c, 9, 35, 80
1, 143520, Note_on_c, 9, 46, 80
1, 143640, Note_off_c, 9, 35, 64
1, 143640, Note_off_c, 9, 46, 64
1, 144000, Note_on_c, 9, 38, 80
1, 144000, Note_on_c, 9, 46, 80
1, 144120, Note_off_c, 9, 38, 64
1, 144120, Note_off_c, 9, 46, 64
1, 144480, Note_on_c, 9, 35, 80
1, 144480, Note_on_c, 9, 46, 80
1, 144600, Note_off_c, 9, 35, 64
1, 144600, Note_off_c, 9, 46, 64
1, 144960, Note_on_c, 9, 38, 80
1, 144960, Note_on_c, 9, 46, 80
1, 145080, Note_off_c, 9, 38, 64
1, 145080, Note_off_c, 9, 46, 64
1, 145440, Note_on_c, 9, 35, 80
1, 145440, Note_on_c, 9, 46, 80
1, 145560, Note_off_c, 9, 35, 64
1, 145560, Note_off_c, 9, 46, 64
1, 145920, Note_on_c, 9, 38, 80
1, 145920, Note_on_c, 9, 46, 80
1, 146040, Note_off_c, 9, 38, 64
1, 146040, Note_off_c, 9, 46, 64
1, 146400, Note_on_c, 9, 35, 80
1, 146400, Note_on_c, 9, 46, 80
1, 146520, Note_off_c, 9, 35, 64
1, 146520, Note_off_c, 9, 46, 64
1, 146880, Note_on_c, 9, 38, 80
1, 146880, Note_on_c, 9, 46, 80
1, 147000, Note_off_c, 9, 38, 64
1, 147000, Note_off_c, 9, 46, 64
1, 147360, Note_on_c, 9, 35, 80
1, 147360, Note_on_c, 9, 46, 80
1, 147480, Note_off_c, 9, 35, 64
1, 147480, Note_off_c, 9, 46, 64
1, 147840, Note_on_c, 9, 38, 80
1, 147840, Note_on_c, 9, 46, 80
1, 147960, Note_off_c, 9, 38, 64
1, 147960, Note_off_c, 9, 46, 64
1, 148320, Note_on_c, 9, 35, 80
1, 148320, Note_on_c, 9, 46, 80
1, 148440, Note_off_c, 9, 35, 64
1, 148440, Note_off_c, 9, 46, 64
1, 148800, Note_on_c, 9, 38, 80
1, 148800, Note_on_c, 9, 46, 80
1, 148920, Note_off_c, 9, 38, 64
1, 148920, Note_off_c, 9, 46, 64
1, 149280, Note_on_c, 9, 35, 80
1, 149280, Note_on_c, 9, 46, 80
1, 149400, Note_off_c, 9, 35, 64
1, 149400, Note_off_c, 9, 46, 64
1, 149760, Note_on_c, 9, 38, 80
1, 149760, Note_on_c, 9, 46, 80
1, 149880, Note_off_c, 9, 38, 64
1, 149880, Note_off_c, 9, 46, 64
1, 150240, Note_on_c, 9, 35, 80
1, 150240, Note_on_c, 9, 46, 80
1, 150360, Note_off_c, 9, 35, 64
1, 150360, Note_off_c, 9, 46, 64
1, 150720, Note_on_c, 9, 38, 80
1, 150720, Note_on_c, 9, 46, 80
1, 150840, Note_off_c, 9, 38, 64
1, 150840, Note_off_c, 9, 46, 64
1, 151200, Note_on_c, 9, 35, 80
1, 151200, Note_on_c, 9, 46, 80
1, 151320, Note_off_c, 9, 35, 64
1, 151320, Note_off_c, 9, 46, 64
1, 151680, Note_on_c, 9, 38, 80
1, 151680, Note_on_c, 9, 46, 80
1, 151800, Note_off_c, 9, 38, 64
1, 151800, Note_off_c, 9, 46, 64
1, 152160, Note_on_c, 9, 35, 80
1, 152160, Note_on_c, 9, 46, 80
1, 152280, Note_off_c, 9, 35, 64
1, 152280, Note_off_c, 9, 46, 64
1, 152640, Note_on_c, 9, 38, 80
1, 152640, Note_on_c, 9, 46, 80
1, 152760, Note_off_c, 9, 38, 64
1, 152760, Note_off_c, 9, 46, 64
1, 153120, Note_on_c, 9, 35, 80
1, 153120, Note_on_c, 9, 46, 80
1, 153240, Note_off_c, 9, 35, 64
1, 153240, Note_off_c, 9, 46, 64
1, 153600, Note_on_c, 9, 38, 80
1, 153600, Note_on_c, 9, 46, 80
1, 153720, Note_off_c, 9, 38, 64
1, 153720, Note_off_c, 9, 46, 64
1, 154080, Note_on_c, 9, 35, 80
1, 154080, Note_on_c, 9, 46, 80
1, 154200, Note_off_c, 9, 35, 64
1, 154200, Note_off_c, 9, 46, 64
1, 154560, Note_on_c, 9, 38, 80
1, 154560, Note_on_c, 9, 46, 80
1, 154680, Note_off_c, 9, 38, 64
1, 154680, Note_off_c, 9, 46, 64
1, 154680, Note_on_c, 9, 38, 80
1, 154740, Note_off_c, 9, 38, 64
1, 154800, Note_on_c, 9, 38, 80
1, 154860, Note_off_c, 9, 38, 64
1, 154920, Note_on_c, 9, 38, 80
1, 154980, Note_off_c, 9, 38, 64
1, 155040, Note_on_c, 9, 49, 80
1, 155040, Note_on_c, 9, 35, 80
1, 155160, Note_off_c, 9, 49, 64
1, 155160, Note_off_c, 9, 35, 64
1, 155520, Note_on_c, 9, 38, 80
1, 155640, Note_off_c, 9, 38, 64
1, 155760, Note_on_c, 9, 35, 80
1, 155760, Note_on_c, 9, 49, 80
1, 155880, Note_off_c, 9, 35, 64
1, 155880, Note_off_c, 9, 49, 64
1, 156240, Note_on_c, 9, 38, 80
1, 156360, Note_off_c, 9, 38, 64
1, 156480, Note_on_c, 9, 35, 80
1, 156480, Note_on_c, 9, 49, 80
1, 156540, Note_off_c, 9, 35, 64
1, 156540, Note_off_c, 9, 49, 64
1, 156960, Note_on_c, 9, 46, 80
1, 157080, Note_off_c, 9, 46, 64
1, 157440, Note_on_c, 9, 46, 80
1, 157440, Note_on_c, 9, 38, 80
1, 157560, Note_off_c, 9, 46, 64
1, 157560, Note_off_c, 9, 38, 64
1, 157920, Note_on_c, 9, 46, 80
1, 157920, Note_on_c, 9, 35, 80
1, 158040, Note_off_c, 9, 46, 64
1, 158040, Note_off_c, 9, 35, 64
1, 158400, Note_on_c, 9, 46, 80
1, 158400, Note_on_c, 9, 38, 80
1, 158520, Note_off_c, 9, 46, 64
1, 158520, Note_off_c, 9, 38, 64
1, 158880, Note_on_c, 9, 35, 80
1, 158880, Note_on_c, 9, 49, 80
1, 159000, Note_off_c, 9, 35, 64
1, 159000, Note_off_c, 9, 49, 64
1, 159360, Note_on_c, 9, 38, 80
1, 159480, Note_off_c, 9, 38, 64
1, 159600, Note_on_c, 9, 35, 80
1, 159600, Note_on_c, 9, 49, 80
1, 159720, Note_off_c, 9, 35, 64
1, 159720, Note_off_c, 9, 49, 64
1, 160080, Note_on_c, 9, 38, 80
1, 160200, Note_off_c, 9, 38, 64
1, 160320, Note_on_c, 9, 35, 80
1, 160320, Note_on_c, 9, 49, 80
1, 160380, Note_off_c, 9, 35, 64
1, 160380, Note_off_c, 9, 49, 64
1, 160800, Note_on_c, 9, 46, 80
1, 160920, Note_off_c, 9, 46, 64
1, 161280, Note_on_c, 9, 46, 80
1, 161280, Note_on_c, 9, 38, 80
1, 161400, Note_off_c, 9, 46, 64
1, 161400, Note_off_c, 9, 38, 64
1, 161760, Note_on_c, 9, 46, 80
1, 161760, Note_on_c, 9, 35, 80
1, 161880, Note_off_c, 9, 46, 64
1, 161880, Note_off_c, 9, 35, 64
1, 162240, Note_on_c, 9, 46, 80
1, 162240, Note_on_c, 9, 38, 80
1, 162360, Note_off_c, 9, 46, 64
1, 162360, Note_off_c, 9, 38, 64
1, 162720, Note_on_c, 9, 35, 80
1, 162720, Note_on_c, 9, 49, 80
1, 162840, Note_off_c, 9, 35, 64
1, 162840, Note_off_c, 9, 49, 64
1, 163200, Note_on_c, 9, 46, 80
1, 163320, Note_off_c, 9, 46, 64
1, 163680, Note_on_c, 9, 46, 80
1, 163800, Note_off_c, 9, 46, 64
1, 163920, Note_on_c, 9, 35, 80
1, 163980, Note_off_c, 9, 35, 64
1, 164160, Note_on_c, 9, 38, 80
1, 164280, Note_off_c, 9, 38, 64
1, 164400, Note_on_c, 9, 35, 80
1, 164400, Note_on_c, 9, 49, 80
1, 164460, Note_off_c, 9, 35, 64
1, 164460, Note_off_c, 9, 49, 64
1, 165120, Note_on_c, 9, 46, 80
1, 165240, Note_off_c, 9, 46, 64
1, 165600, Note_on_c, 9, 46, 80
1, 165720, Note_off_c, 9, 46, 64
1, 166080, Note_on_c, 9, 46, 80
1, 166200, Note_off_c, 9, 46, 64
1, 166560, Note_on_c, 9, 35, 80
1, 166560, Note_on_c, 9, 49, 80
1, 166680, Note_off_c, 9, 35, 64
1, 166680, Note_off_c, 9, 49, 64
1, 167040, Note_on_c, 9, 46, 80
1, 167160, Note_off_c, 9, 46, 64
1, 167520, Note_on_c, 9, 46, 80
1, 167640, Note_off_c, 9, 46, 64
1, 167760, Note_on_c, 9, 35, 80
1, 167820, Note_off_c, 9, 35, 64
1, 168000, Note_on_c, 9, 38, 80
1, 168120, Note_off_c, 9, 38, 64
1, 168240, Note_on_c, 9, 35, 80
1, 168240, Note_on_c, 9, 49, 80
1, 168300, Note_off_c, 9, 35, 64
1, 168300, Note_off_c, 9, 49, 64
1, 168960, Note_on_c, 9, 46, 80
1, 169080, Note_off_c, 9, 46, 64
1, 169440, Note_on_c, 9, 46, 80
1, 169560, Note_off_c, 9, 46, 64
1, 169920, Note_on_c, 9, 46, 80
1, 170040, Note_off_c, 9, 46, 64
1, 170400, Note_on_c, 9, 35, 80
1, 170400, Note_on_c, 9, 49, 80
1, 170520, Note_off_c, 9, 35, 64
1, 170520, Note_off_c, 9, 49, 64
1, 170880, Note_on_c, 9, 46, 80
1, 171000, Note_off_c, 9, 46, 64
1, 171360, Note_on_c, 9, 46, 80
1, 171480, Note_off_c, 9, 46, 64
1, 171600, Note_on_c, 9, 35, 80
1, 171660, Note_off_c, 9, 35, 64
1, 171840, Note_on_c, 9, 38, 80
1, 171960, Note_off_c, 9, 38, 64
1, 172080, Note_on_c, 9, 35, 80
1, 172080, Note_on_c, 9, 49, 80
1, 172140, Note_off_c, 9, 35, 64
1, 172140, Note_off_c, 9, 49, 64
1, 172800, Note_on_c, 9, 46, 80
1, 172920, Note_off_c, 9, 46, 64
1, 173040, Note_on_c, 9, 38, 80
1, 173100, Note_off_c, 9, 38, 64
1, 173160, Note_on_c, 9, 38, 80
1, 173220, Note_off_c, 9, 38, 64
1, 173280, Note_on_c, 9, 35, 80
1, 173400, Note_off_c, 9, 35, 64
1, 173400, Note_on_c, 9, 47, 80
1, 173460, Note_off_c, 9, 47, 64
1, 173520, Note_on_c, 9, 47, 80
1, 173580, Note_off_c, 9, 47, 64
1, 173640, Note_on_c, 9, 45, 80
1, 173700, Note_off_c, 9, 45, 64
1, 173760, Note_on_c, 9, 38, 80
1, 173880, Note_off_c, 9, 38, 64
1, 173880, Note_on_c, 9, 38, 80
1, 173940, Note_off_c, 9, 38, 64
1, 174000, Note_on_c, 9, 38, 80
1, 174060, Note_off_c, 9, 38, 64
1, 174120, Note_on_c, 9, 38, 80
1, 174180, Note_off_c, 9, 38, 64
1, 174240, Note_on_c, 9, 35, 80
1, 174240, Note_on_c, 9, 49, 80
1, 174300, Note_off_c, 9, 35, 64
1, 174300, Note_off_c, 9, 49, 64
1, 174720, Note_on_c, 9, 38, 80
1, 174780, Note_off_c, 9, 38, 64
1, 174960, Note_on_c, 9, 35, 80
1, 174960, Note_on_c, 9, 49, 80
1, 175080, Note_off_c, 9, 35, 64
1, 175080, Note_off_c, 9, 49, 64
1, 175440, Note_on_c, 9, 38, 80
1, 175500, Note_off_c, 9, 38, 64
1, 175680, Note_on_c, 9, 35, 80
1, 175680, Note_on_c, 9, 49, 80
1, 175800, Note_off_c, 9, 35, 64
1, 175800, Note_off_c, 9, 49, 64
1, 176160, Note_on_c, 9, 38, 80
1, 176220, Note_off_c, 9, 38, 64
1, 176400, Note_on_c, 9, 35, 80
1, 176400, Note_on_c, 9, 49, 80
1, 176520, Note_off_c, 9, 35, 64
1, 176520, Note_off_c, 9, 49, 64
1, 176880, Note_on_c, 9, 38, 80
1, 176940, Note_off_c, 9, 38, 64
1, 177120, Note_on_c, 9, 35, 80
1, 177120, Note_on_c, 9, 49, 80
1, 177240, Note_off_c, 9, 35, 64
1, 177240, Note_off_c, 9, 49, 64
1, 177600, Note_on_c, 9, 35, 80
1, 177600, Note_on_c, 9, 49, 80
1, 177720, Note_off_c, 9, 35, 64
1, 177720, Note_off_c, 9, 49, 64
1, 178080, Note_on_c, 9, 35, 80
1, 178080, Note_on_c, 9, 49, 80
1, 178200, Note_off_c, 9, 35, 64
1, 178200, Note_off_c, 9, 49, 64
1, 178560, Note_on_c, 9, 46, 80
1, 178560, Note_on_c, 9, 38, 80
1, 178680, Note_off_c, 9, 46, 64
1, 178680, Note_off_c, 9, 38, 64
1, 179040, Note_on_c, 9, 35, 80
1, 179040, Note_on_c, 9, 46, 80
1, 179160, Note_off_c, 9, 35, 64
1, 179160, Note_off_c, 9, 46, 64
1, 179520, Note_on_c, 9, 38, 80
1, 179520, Note_on_c, 9, 46, 80
1, 179640, Note_off_c, 9, 38, 64
1, 179640, Note_off_c, 9, 46, 64
1, 180000, Note_on_c, 9, 35, 80
1, 180000, Note_on_c, 9, 46, 80
1, 180120, Note_off_c, 9, 35, 64
1, 180120, Note_off_c, 9, 46, 64
1, 180480, Note_on_c, 9, 38, 80
1, 180480, Note_on_c, 9, 46, 80
1, 180600, Note_off_c, 9, 38, 64
1, 180600, Note_off_c, 9, 46, 64
1, 180960, Note_on_c, 9, 35, 80
1, 180960, Note_on_c, 9, 46, 80
1, 181080, Note_off_c, 9, 35, 64
1, 181080, Note_off_c, 9, 46, 64
1, 181440, Note_on_c, 9, 38, 80
1, 181440, Note_on_c, 9, 46, 80
1, 181560, Note_off_c, 9, 38, 64
1, 181560, Note_off_c, 9, 46, 64
1, 181920, Note_on_c, 9, 35, 80
1, 181920, Note_on_c, 9, 46, 80
1, 182040, Note_off_c, 9, 35, 64
1, 182040, Note_off_c, 9, 46, 64
1, 182400, Note_on_c, 9, 46, 80
1, 182400, Note_on_c, 9, 38, 80
1, 182520, Note_off_c, 9, 46, 64
1, 182520, Note_off_c, 9, 38, 64
1, 182880, Note_on_c, 9, 35, 80
1, 182880, Note_on_c, 9, 46, 80
1, 183000, Note_off_c, 9, 35, 64
1, 183000, Note_off_c, 9, 46, 64
1, 183360, Note_on_c, 9, 38, 80
1, 183360, Note_on_c, 9, 46, 80
1, 183480, Note_off_c, 9, 38, 64
1, 183480, Note_off_c, 9, 46, 64
1, 183840, Note_on_c, 9, 35, 80
1, 183840, Note_on_c, 9, 46, 80
1, 183960, Note_off_c, 9, 35, 64
1, 183960, Note_off_c, 9, 46, 64
1, 184320, Note_on_c, 9, 38, 80
1, 184320, Note_on_c, 9, 46, 80
1, 184440, Note_off_c, 9, 38, 64
1, 184440, Note_off_c, 9, 46, 64
1, 184800, Note_on_c, 9, 35, 80
1, 184800, Note_on_c, 9, 46, 80
1, 184920, Note_off_c, 9, 35, 64
1, 184920, Note_off_c, 9, 46, 64
1, 185280, Note_on_c, 9, 38, 80
1, 185280, Note_on_c, 9, 46, 80
1, 185400, Note_off_c, 9, 38, 64
1, 185400, Note_off_c, 9, 46, 64
1, 185760, Note_on_c, 9, 35, 80
1, 185760, Note_on_c, 9, 46, 80
1, 185880, Note_off_c, 9, 35, 64
1, 185880, Note_off_c, 9, 46, 64
1, 186240, Note_on_c, 9, 46, 80
1, 186240, Note_on_c, 9, 38, 80
1, 186360, Note_off_c, 9, 46, 64
1, 186360, Note_off_c, 9, 38, 64
1, 186720, Note_on_c, 9, 35, 80
1, 186720, Note_on_c, 9, 46, 80
1, 186840, Note_off_c, 9, 35, 64
1, 186840, Note_off_c, 9, 46, 64
1, 187200, Note_on_c, 9, 38, 80
1, 187200, Note_on_c, 9, 46, 80
1, 187320, Note_off_c, 9, 38, 64
1, 187320, Note_off_c, 9, 46, 64
1, 187680, Note_on_c, 9, 35, 80
1, 187680, Note_on_c, 9, 46, 80
1, 187800, Note_off_c, 9, 35, 64
1, 187800, Note_off_c, 9, 46, 64
1, 188160, Note_on_c, 9, 38, 80
1, 188160, Note_on_c, 9, 46, 80
1, 188280, Note_off_c, 9, 38, 64
1, 188280, Note_off_c, 9, 46, 64
1, 188640, Note_on_c, 9, 35, 80
1, 188640, Note_on_c, 9, 46, 80
1, 188760, Note_off_c, 9, 35, 64
1, 188760, Note_off_c, 9, 46, 64
1, 189120, Note_on_c, 9, 38, 80
1, 189120, Note_on_c, 9, 46, 80
1, 189240, Note_off_c, 9, 38, 64
1, 189240, Note_off_c, 9, 46, 64
1, 189600, Note_on_c, 9, 35, 80
1, 189600, Note_on_c, 9, 46, 80
1, 189720, Note_off_c, 9, 35, 64
1, 189720, Note_off_c, 9, 46, 64
1, 190080, Note_on_c, 9, 46, 80
1, 190080, Note_on_c, 9, 38, 80
1, 190200, Note_off_c, 9, 46, 64
1, 190200, Note_off_c, 9, 38, 64
1, 190560, Note_on_c, 9, 35, 80
1, 190560, Note_on_c, 9, 46, 80
1, 190680, Note_off_c, 9, 35, 64
1, 190680, Note_off_c, 9, 46, 64
1, 191040, Note_on_c, 9, 38, 80
1, 191040, Note_on_c, 9, 46, 80
1, 191160, Note_off_c, 9, 38, 64
1, 191160, Note_off_c, 9, 46, 64
1, 191520, Note_on_c, 9, 35, 80
1, 191520, Note_on_c, 9, 46, 80
1, 191640, Note_off_c, 9, 35, 64
1, 191640, Note_off_c, 9, 46, 64
1, 192000, Note_on_c, 9, 38, 80
1, 192000, Note_on_c, 9, 46, 80
1, 192120, Note_off_c, 9, 38, 64
1, 192120, Note_off_c, 9, 46, 64
1, 192480, Note_on_c, 9, 35, 80
1, 192480, Note_on_c, 9, 46, 80
1, 192600, Note_off_c, 9, 35, 64
1, 192600, Note_off_c, 9, 46, 64
1, 192960, Note_on_c, 9, 38, 80
1, 192960, Note_on_c, 9, 46, 80
1, 193080, Note_off_c, 9, 38, 64
1, 193080, Note_off_c, 9, 46, 64
1, 193440, Note_on_c, 9, 35, 80
1, 193440, Note_on_c, 9, 46, 80
1, 193560, Note_off_c, 9, 35, 64
1, 193560, Note_off_c, 9, 46, 64
1, 193920, Note_on_c, 9, 46, 80
1, 193920, Note_on_c, 9, 38, 80
1, 194040, Note_off_c, 9, 46, 64
1, 194040, Note_off_c, 9, 38, 64
1, 194400, Note_on_c, 9, 35, 80
1, 194400, Note_on_c, 9, 46, 80
1, 194520, Note_off_c, 9, 35, 64
1, 194520, Note_off_c, 9, 46, 64
1, 194880, Note_on_c, 9, 38, 80
1, 194880, Note_on_c, 9, 46, 80
1, 195000, Note_off_c, 9, 38, 64
1, 195000, Note_off_c, 9, 46, 64
1, 195360, Note_on_c, 9, 35, 80
1, 195360, Note_on_c, 9, 46, 80
1, 195480, Note_off_c, 9, 35, 64
1, 195480, Note_off_c, 9, 46, 64
1, 195840, Note_on_c, 9, 38, 80
1, 195840, Note_on_c, 9, 46, 80
1, 195960, Note_off_c, 9, 38, 64
1, 195960, Note_off_c, 9, 46, 64
1, 196320, Note_on_c, 9, 35, 80
1, 196320, Note_on_c, 9, 46, 80
1, 196440, Note_off_c, 9, 35, 64
1, 196440, Note_off_c, 9, 46, 64
1, 196800, Note_on_c, 9, 38, 80
1, 196800, Note_on_c, 9, 46, 80
1, 196920, Note_off_c, 9, 38, 64
1, 196920, Note_off_c, 9, 46, 64
1, 197280, Note_on_c, 9, 35, 80
1, 197280, Note_on_c, 9, 46, 80
1, 197400, Note_off_c, 9, 35, 64
1, 197400, Note_off_c, 9, 46, 64
1, 197760, Note_on_c, 9, 46, 80
1, 197760, Note_on_c, 9, 38, 80
1, 197880, Note_off_c, 9, 46, 64
1, 197880, Note_off_c, 9, 38, 64
1, 198240, Note_on_c, 9, 35, 80
1, 198240, Note_on_c, 9, 46, 80
1, 198360, Note_off_c, 9, 35, 64
1, 198360, Note_off_c, 9, 46, 64
1, 198720, Note_on_c, 9, 38, 80
1, 198720, Note_on_c, 9, 46, 80
1, 198840, Note_off_c, 9, 38, 64
1, 198840, Note_off_c, 9, 46, 64
1, 199200, Note_on_c, 9, 35, 80
1, 199200, Note_on_c, 9, 46, 80
1, 199320, Note_off_c, 9, 35, 64
1, 199320, Note_off_c, 9, 46, 64
1, 199680, Note_on_c, 9, 38, 80
1, 199680, Note_on_c, 9, 46, 80
1, 199800, Note_off_c, 9, 38, 64
1, 199800, Note_off_c, 9, 46, 64
1, 200160, Note_on_c, 9, 35, 80
1, 200160, Note_on_c, 9, 46, 80
1, 200280, Note_off_c, 9, 35, 64
1, 200280, Note_off_c, 9, 46, 64
1, 200640, Note_on_c, 9, 38, 80
1, 200640, Note_on_c, 9, 46, 80
1, 200760, Note_off_c, 9, 38, 64
1, 200760, Note_off_c, 9, 46, 64
1, 201120, Note_on_c, 9, 35, 80
1, 201120, Note_on_c, 9, 46, 80
1, 201240, Note_off_c, 9, 35, 64
1, 201240, Note_off_c, 9, 46, 64
1, 201600, Note_on_c, 9, 46, 80
1, 201600, Note_on_c, 9, 38, 80
1, 201720, Note_off_c, 9, 46, 64
1, 201720, Note_off_c, 9, 38, 64
1, 202080, Note_on_c, 9, 35, 80
1, 202080, Note_on_c, 9, 46, 80
1, 202200, Note_off_c, 9, 35, 64
1, 202200, Note_off_c, 9, 46, 64
1, 202560, Note_on_c, 9, 38, 80
1, 202560, Note_on_c, 9, 46, 80
1, 202680, Note_off_c, 9, 38, 64
1, 202680, Note_off_c, 9, 46, 64
1, 203040, Note_on_c, 9, 35, 80
1, 203040, Note_on_c, 9, 46, 80
1, 203160, Note_off_c, 9, 35, 64
1, 203160, Note_off_c, 9, 46, 64
1, 203520, Note_on_c, 9, 38, 80
1, 203520, Note_on_c, 9, 46, 80
1, 203640, Note_off_c, 9, 38, 64
1, 203640, Note_off_c, 9, 46, 64
1, 204000, Note_on_c, 9, 35, 80
1, 204000, Note_on_c, 9, 46, 80
1, 204120, Note_off_c, 9, 35, 64
1, 204120, Note_off_c, 9, 46, 64
1, 204480, Note_on_c, 9, 38, 80
1, 204480, Note_on_c, 9, 46, 80
1, 204600, Note_off_c, 9, 38, 64
1, 204600, Note_off_c, 9, 46, 64
1, 204960, Note_on_c, 9, 35, 80
1, 204960, Note_on_c, 9, 46, 80
1, 205080, Note_off_c, 9, 35, 64
1, 205080, Note_off_c, 9, 46, 64
1, 205440, Note_on_c, 9, 46, 80
1, 205440, Note_on_c, 9, 38, 80
1, 205560, Note_off_c, 9, 46, 64
1, 205560, Note_off_c, 9, 38, 64
1, 205920, Note_on_c, 9, 35, 80
1, 205920, Note_on_c, 9, 46, 80
1, 206040, Note_off_c, 9, 35, 64
1, 206040, Note_off_c, 9, 46, 64
1, 206400, Note_on_c, 9, 38, 80
1, 206400, Note_on_c, 9, 46, 80
1, 206520, Note_off_c, 9, 38, 64
1, 206520, Note_off_c, 9, 46, 64
1, 206880, Note_on_c, 9, 35, 80
1, 206880, Note_on_c, 9, 46, 80
1, 207000, Note_off_c, 9, 35, 64
1, 207000, Note_off_c, 9, 46, 64
1, 207360, Note_on_c, 9, 38, 80
1, 207360, Note_on_c, 9, 46, 80
1, 207480, Note_off_c, 9, 38, 64
1, 207480, Note_off_c, 9, 46, 64
1, 207840, Note_on_c, 9, 46, 80
1, 207840, Note_on_c, 9, 38, 80
1, 207960, Note_off_c, 9, 46, 64
1, 207960, Note_off_c, 9, 38, 64
1, 208080, Note_on_c, 9, 47, 80
1, 208200, Note_off_c, 9, 47, 64
1, 208200, Note_on_c, 9, 47, 80
1, 208320, Note_off_c, 9, 47, 64
1, 208320, Note_on_c, 9, 47, 80
1, 208440, Note_off_c, 9, 47, 64
1, 208560, Note_on_c, 9, 35, 80
1, 208680, Note_off_c, 9, 35, 64
1, 208800, Note_on_c, 9, 35, 80
1, 208800, Note_on_c, 9, 49, 80
1, 208920, Note_off_c, 9, 35, 64
1, 208920, Note_off_c, 9, 49, 64
1, 209280, Note_on_c, 9, 38, 80
1, 209400, Note_off_c, 9, 38, 64
1, 209520, Note_on_c, 9, 35, 80
1, 209520, Note_on_c, 9, 49, 80
1, 209640, Note_off_c, 9, 35, 64
1, 209640, Note_off_c, 9, 49, 64
1, 210000, Note_on_c, 9, 38, 80
1, 210120, Note_off_c, 9, 38, 64
1, 210240, Note_on_c, 9, 35, 80
1, 210240, Note_on_c, 9, 49, 80
1, 210300, Note_off_c, 9, 35, 64
1, 210300, Note_off_c, 9, 49, 64
1, 210720, Note_on_c, 9, 46, 80
1, 210840, Note_off_c, 9, 46, 64
1, 211200, Note_on_c, 9, 46, 80
1, 211200, Note_on_c, 9, 38, 80
1, 211320, Note_off_c, 9, 46, 64
1, 211320, Note_off_c, 9, 38, 64
1, 211680, Note_on_c, 9, 46, 80
1, 211680, Note_on_c, 9, 35, 80
1, 211800, Note_off_c, 9, 46, 64
1, 211800, Note_off_c, 9, 35, 64
1, 212160, Note_on_c, 9, 46, 80
1, 212160, Note_on_c, 9, 38, 80
1, 212280, Note_off_c, 9, 46, 64
1, 212280, Note_off_c, 9, 38, 64
1, 212640, Note_on_c, 9, 35, 80
1, 212640, Note_on_c, 9, 49, 80
1, 212760, Note_off_c, 9, 35, 64
1, 212760, Note_off_c, 9, 49, 64
1, 213120, Note_on_c, 9, 38, 80
1, 213240, Note_off_c, 9, 38, 64
1, 213360, Note_on_c, 9, 35, 80
1, 213360, Note_on_c, 9, 49, 80
1, 213480, Note_off_c, 9, 35, 64
1, 213480, Note_off_c, 9, 49, 64
1, 213840, Note_on_c, 9, 38, 80
1, 213960, Note_off_c, 9, 38, 64
1, 214080, Note_on_c, 9, 35, 80
1, 214080, Note_on_c, 9, 49, 80
1, 214140, Note_off_c, 9, 35, 64
1, 214140, Note_off_c, 9, 49, 64
1, 214560, Note_on_c, 9, 46, 80
1, 214680, Note_off_c, 9, 46, 64
1, 215040, Note_on_c, 9, 46, 80
1, 215040, Note_on_c, 9, 38, 80
1, 215160, Note_off_c, 9, 46, 64
1, 215160, Note_off_c, 9, 38, 64
1, 215520, Note_on_c, 9, 46, 80
1, 215520, Note_on_c, 9, 35, 80
1, 215640, Note_off_c, 9, 46, 64
1, 215640, Note_off_c, 9, 35, 64
1, 216000, Note_on_c, 9, 46, 80
1, 216000, Note_on_c, 9, 38, 80
1, 216120, Note_off_c, 9, 46, 64
1, 216120, Note_off_c, 9, 38, 64
1, 216480, Note_on_c, 9, 35, 80
1, 216480, Note_on_c, 9, 49, 80
1, 216600, Note_off_c, 9, 35, 64
1, 216600, Note_off_c, 9, 49, 64
1, 216960, Note_on_c, 9, 44, 80
1, 217080, Note_off_c, 9, 44, 64
1, 217440, Note_on_c, 9, 44, 80
1, 217560, Note_off_c, 9, 44, 64
1, 217920, Note_on_c, 9, 44, 80
1, 218040, Note_off_c, 9, 44, 64
1, 218400, Note_on_c, 9, 44, 80
1, 218520, Note_off_c, 9, 44, 64
1, 218640, Note_on_c, 9, 35, 80
1, 218760, Note_off_c, 9, 35, 64
1, 218880, Note_on_c, 9, 38, 80
1, 218880, Note_on_c, 9, 45, 80
1, 219000, Note_off_c, 9, 38, 64
1, 219000, Note_off_c, 9, 45, 64
1, 219120, Note_on_c, 9, 35, 80
1, 219240, Note_off_c, 9, 35, 64
1, 219360, Note_on_c, 9, 35, 80
1, 219480, Note_off_c, 9, 35, 64
1, 219600, Note_on_c, 9, 35, 80
1, 219720, Note_off_c, 9, 35, 64
1, 219840, Note_on_c, 9, 38, 80
1, 219840, Note_on_c, 9, 45, 80
1, 219960, Note_off_c, 9, 38, 64
1, 219960, Note_off_c, 9, 45, 64
1, 220080, Note_on_c, 9, 35, 80
1, 220200, Note_off_c, 9, 35, 64
1, 220320, Note_on_c, 9, 44, 80
1, 220440, Note_off_c, 9, 44, 64
1, 220800, Note_on_c, 9, 44, 80
1, 220920, Note_off_c, 9, 44, 64
1, 221280, Note_on_c, 9, 44, 80
1, 221400, Note_off_c, 9, 44, 64
1, 221760, Note_on_c, 9, 44, 80
1, 221880, Note_off_c, 9, 44, 64
1, 222240, Note_on_c, 9, 44, 80
1, 222360, Note_off_c, 9, 44, 64
1, 222480, Note_on_c, 9, 35, 80
1, 222600, Note_off_c, 9, 35, 64
1, 222720, Note_on_c, 9, 38, 80
1, 222720, Note_on_c, 9, 45, 80
1, 222840, Note_off_c, 9, 38, 64
1, 222840, Note_off_c, 9, 45, 64
1, 222960, Note_on_c, 9, 35, 80
1, 223080, Note_off_c, 9, 35, 64
1, 223200, Note_on_c, 9, 35, 80
1, 223320, Note_off_c, 9, 35, 64
1, 223440, Note_on_c, 9, 35, 80
1, 223560, Note_off_c, 9, 35, 64
1, 223680, Note_on_c, 9, 38, 80
1, 223680, Note_on_c, 9, 45, 80
1, 223800, Note_off_c, 9, 38, 64
1, 223800, Note_off_c, 9, 45, 64
1, 223920, Note_on_c, 9, 35, 80
1, 224040, Note_off_c, 9, 35, 64
1, 224160, Note_on_c, 9, 44, 80
1, 224280, Note_off_c, 9, 44, 64
1, 224640, Note_on_c, 9, 44, 80
1, 224760, Note_off_c, 9, 44, 64
1, 225120, Note_on_c, 9, 44, 80
1, 225240, Note_off_c, 9, 44, 64
1, 225600, Note_on_c, 9, 44, 80
1, 225720, Note_off_c, 9, 44, 64
1, 226080, Note_on_c, 9, 44, 80
1, 226200, Note_off_c, 9, 44, 64
1, 226320, Note_on_c, 9, 35, 80
1, 226440, Note_off_c, 9, 35, 64
1, 226560, Note_on_c, 9, 38, 80
1, 226560, Note_on_c, 9, 45, 80
1, 226680, Note_off_c, 9, 38, 64
1, 226680, Note_off_c, 9, 45, 64
1, 226800, Note_on_c, 9, 35, 80
1, 226920, Note_off_c, 9, 35, 64
1, 227040, Note_on_c, 9, 35, 80
1, 227160, Note_off_c, 9, 35, 64
1, 227280, Note_on_c, 9, 35, 80
1, 227400, Note_off_c, 9, 35, 64
1, 227520, Note_on_c, 9, 38, 80
1, 227520, Note_on_c, 9, 45, 80
1, 227640, Note_off_c, 9, 38, 64
1, 227640, Note_off_c, 9, 45, 64
1, 227760, Note_on_c, 9, 35, 80
1, 227880, Note_off_c, 9, 35, 64
1, 228000, Note_on_c, 9, 44, 80
1, 228120, Note_off_c, 9, 44, 64
1, 228480, Note_on_c, 9, 44, 80
1, 228600, Note_off_c, 9, 44, 64
1, 228960, Note_on_c, 9, 44, 80
1, 229080, Note_off_c, 9, 44, 64
1, 229440, Note_on_c, 9, 44, 80
1, 229560, Note_off_c, 9, 44, 64
1, 229920, Note_on_c, 9, 44, 80
1, 230040, Note_off_c, 9, 44, 64
1, 230160, Note_on_c, 9, 35, 80
1, 230280, Note_off_c, 9, 35, 64
1, 230400, Note_on_c, 9, 38, 80
1, 230400, Note_on_c, 9, 45, 80
1, 230520, Note_off_c, 9, 38, 64
1, 230520, Note_off_c, 9, 45, 64
1, 230640, Note_on_c, 9, 35, 80
1, 230760, Note_off_c, 9, 35, 64
1, 230880, Note_on_c, 9, 35, 80
1, 231000, Note_off_c, 9, 35, 64
1, 231120, Note_on_c, 9, 35, 80
1, 231240, Note_off_c, 9, 35, 64
1, 231360, Note_on_c, 9, 38, 80
1, 231360, Note_on_c, 9, 45, 80
1, 231480, Note_off_c, 9, 38, 64
1, 231480, Note_off_c, 9, 45, 64
1, 231600, Note_on_c, 9, 35, 80
1, 231720, Note_off_c, 9, 35, 64
1, 231840, Note_on_c, 9, 44, 80
1, 231960, Note_off_c, 9, 44, 64
1, 232320, Note_on_c, 9, 44, 80
1, 232440, Note_off_c, 9, 44, 64
1, 232800, Note_on_c, 9, 44, 80
1, 232920, Note_off_c, 9, 44, 64
1, 233280, Note_on_c, 9, 44, 80
1, 233400, Note_off_c, 9, 44, 64
1, 233760, Note_on_c, 9, 44, 80
1, 233880, Note_off_c, 9, 44, 64
1, 234000, Note_on_c, 9, 35, 80
1, 234120, Note_off_c, 9, 35, 64
1, 234240, Note_on_c, 9, 38, 80
1, 234240, Note_on_c, 9, 45, 80
1, 234360, Note_off_c, 9, 38, 64
1, 234360, Note_off_c, 9, 45, 64
1, 234480, Note_on_c, 9, 35, 80
1, 234600, Note_off_c, 9, 35, 64
1, 234720, Note_on_c, 9, 35, 80
1, 234840, Note_off_c, 9, 35, 64
1, 234960, Note_on_c, 9, 35, 80
1, 235080, Note_off_c, 9, 35, 64
1, 235200, Note_on_c, 9, 38, 80
1, 235200, Note_on_c, 9, 45, 80
1, 235320, Note_off_c, 9, 38, 64
1, 235320, Note_off_c, 9, 45, 64
1, 235440, Note_on_c, 9, 35, 80
1, 235560, Note_off_c, 9, 35, 64
1, 235680, Note_on_c, 9, 44, 80
1, 235800, Note_off_c, 9, 44, 64
1, 236160, Note_on_c, 9, 44, 80
1, 236280, Note_off_c, 9, 44, 64
1, 236640, Note_on_c, 9, 44, 80
1, 236760, Note_off_c, 9, 44, 64
1, 237120, Note_on_c, 9, 44, 80
1, 237240, Note_off_c, 9, 44, 64
1, 237600, Note_on_c, 9, 44, 80
1, 237720, Note_off_c, 9, 44, 64
1, 238080, Note_on_c, 9, 44, 80
1, 238200, Note_off_c, 9, 44, 64
1, 238560, Note_on_c, 9, 44, 80
1, 238680, Note_off_c, 9, 44, 64
1, 239040, Note_on_c, 9, 44, 80
1, 239160, Note_off_c, 9, 44, 64
1, 239520, Note_on_c, 9, 44, 80
1, 239640, Note_off_c, 9, 44, 64
1, 240000, Note_on_c, 9, 44, 80
1, 240120, Note_off_c, 9, 44, 64
1, 240480, Note_on_c, 9, 44, 80
1, 240600, Note_off_c, 9, 44, 64
1, 240960, Note_on_c, 9, 44, 80
1, 241080, Note_off_c, 9, 44, 64
1, 241440, Note_on_c, 9, 44, 80
1, 241560, Note_off_c, 9, 44, 64
1, 241680, Note_on_c, 9, 35, 80
1, 241800, Note_off_c, 9, 35, 64
1, 241920, Note_on_c, 9, 44, 80
1, 242040, Note_off_c, 9, 44, 64
1, 242400, Note_on_c, 9, 44, 80
1, 242520, Note_off_c, 9, 44, 64
1, 242880, Note_on_c, 9, 44, 80
1, 243000, Note_off_c, 9, 44, 64
1, 243360, Note_on_c, 9, 44, 80
1, 243480, Note_off_c, 9, 44, 64
1, 243600, Note_on_c, 9, 35, 80
1, 243720, Note_off_c, 9, 35, 64
1, 243840, Note_on_c, 9, 38, 80
1, 243840, Note_on_c, 9, 46, 80
1, 243960, Note_off_c, 9, 38, 64
1, 243960, Note_off_c, 9, 46, 64
1, 244320, Note_on_c, 9, 35, 80
1, 244320, Note_on_c, 9, 46, 80
1, 244440, Note_off_c, 9, 35, 64
1, 244440, Note_off_c, 9, 46, 64
1, 244800, Note_on_c, 9, 38, 80
1, 244800, Note_on_c, 9, 46, 80
1, 244920, Note_off_c, 9, 38, 64
1, 244920, Note_off_c, 9, 46, 64
1, 245280, Note_on_c, 9, 35, 80
1, 245280, Note_on_c, 9, 46, 80
1, 245400, Note_off_c, 9, 35, 64
1, 245400, Note_off_c, 9, 46, 64
1, 245760, Note_on_c, 9, 46, 80
1, 245760, Note_on_c, 9, 38, 80
1, 245880, Note_off_c, 9, 46, 64
1, 245880, Note_off_c, 9, 38, 64
1, 246240, Note_on_c, 9, 35, 80
1, 246240, Note_on_c, 9, 46, 80
1, 246360, Note_off_c, 9, 35, 64
1, 246360, Note_off_c, 9, 46, 64
1, 246720, Note_on_c, 9, 38, 80
1, 246720, Note_on_c, 9, 46, 80
1, 246840, Note_off_c, 9, 38, 64
1, 246840, Note_off_c, 9, 46, 64
1, 247200, Note_on_c, 9, 35, 80
1, 247200, Note_on_c, 9, 46, 80
1, 247320, Note_off_c, 9, 35, 64
1, 247320, Note_off_c, 9, 46, 64
1, 247680, Note_on_c, 9, 38, 80
1, 247680, Note_on_c, 9, 46, 80
1, 247800, Note_off_c, 9, 38, 64
1, 247800, Note_off_c, 9, 46, 64
1, 248160, Note_on_c, 9, 35, 80
1, 248160, Note_on_c, 9, 46, 80
1, 248280, Note_off_c, 9, 35, 64
1, 248280, Note_off_c, 9, 46, 64
1, 248640, Note_on_c, 9, 38, 80
1, 248640, Note_on_c, 9, 46, 80
1, 248760, Note_off_c, 9, 38, 64
1, 248760, Note_off_c, 9, 46, 64
1, 249120, Note_on_c, 9, 35, 80
1, 249120, Note_on_c, 9, 46, 80
1, 249240, Note_off_c, 9, 35, 64
1, 249240, Note_off_c, 9, 46, 64
1, 249600, Note_on_c, 9, 38, 80
1, 249600, Note_on_c, 9, 46, 80
1, 249720, Note_off_c, 9, 38, 64
1, 249720, Note_off_c, 9, 46, 64
1, 250080, Note_on_c, 9, 35, 80
1, 250080, Note_on_c, 9, 46, 80
1, 250200, Note_off_c, 9, 35, 64
1, 250200, Note_off_c, 9, 46, 64
1, 250560, Note_on_c, 9, 38, 80
1, 250560, Note_on_c, 9, 46, 80
1, 250680, Note_off_c, 9, 38, 64
1, 250680, Note_off_c, 9, 46, 64
1, 251040, Note_on_c, 9, 35, 80
1, 251040, Note_on_c, 9, 46, 80
1, 251160, Note_off_c, 9, 35, 64
1, 251160, Note_off_c, 9, 46, 64
1, 251520, Note_on_c, 9, 38, 80
1, 251520, Note_on_c, 9, 46, 80
1, 251640, Note_off_c, 9, 38, 64
1, 251640, Note_off_c, 9, 46, 64
1, 252000, Note_on_c, 9, 35, 80
1, 252000, Note_on_c, 9, 46, 80
1, 252120, Note_off_c, 9, 35, 64
1, 252120, Note_off_c, 9, 46, 64
1, 252480, Note_on_c, 9, 38, 80
1, 252480, Note_on_c, 9, 46, 80
1, 252600, Note_off_c, 9, 38, 64
1, 252600, Note_off_c, 9, 46, 64
1, 252960, Note_on_c, 9, 35, 80
1, 252960, Note_on_c, 9, 46, 80
1, 253080, Note_off_c, 9, 35, 64
1, 253080, Note_off_c, 9, 46, 64
1, 253440, Note_on_c, 9, 38, 80
1, 253440, Note_on_c, 9, 46, 80
1, 253560, Note_off_c, 9, 38, 64
1, 253560, Note_off_c, 9, 46, 64
1, 253920, Note_on_c, 9, 35, 80
1, 253920, Note_on_c, 9, 46, 80
1, 254040, Note_off_c, 9, 35, 64
1, 254040, Note_off_c, 9, 46, 64
1, 254400, Note_on_c, 9, 38, 80
1, 254400, Note_on_c, 9, 46, 80
1, 254520, Note_off_c, 9, 38, 64
1, 254520, Note_off_c, 9, 46, 64
1, 254880, Note_on_c, 9, 35, 80
1, 254880, Note_on_c, 9, 46, 80
1, 255000, Note_off_c, 9, 35, 64
1, 255000, Note_off_c, 9, 46, 64
1, 255360, Note_on_c, 9, 38, 80
1, 255360, Note_on_c, 9, 46, 80
1, 255480, Note_off_c, 9, 38, 64
1, 255480, Note_off_c, 9, 46, 64
1, 255840, Note_on_c, 9, 35, 80
1, 255840, Note_on_c, 9, 46, 80
1, 255960, Note_off_c, 9, 35, 64
1, 255960, Note_off_c, 9, 46, 64
1, 256320, Note_on_c, 9, 38, 80
1, 256320, Note_on_c, 9, 46, 80
1, 256440, Note_off_c, 9, 38, 64
1, 256440, Note_off_c, 9, 46, 64
1, 256800, Note_on_c, 9, 35, 80
1, 256800, Note_on_c, 9, 46, 80
1, 256920, Note_off_c, 9, 35, 64
1, 256920, Note_off_c, 9, 46, 64
1, 257280, Note_on_c, 9, 38, 80
1, 257280, Note_on_c, 9, 46, 80
1, 257400, Note_off_c, 9, 38, 64
1, 257400, Note_off_c, 9, 46, 64
1, 257760, Note_on_c, 9, 35, 80
1, 257760, Note_on_c, 9, 46, 80
1, 257880, Note_off_c, 9, 35, 64
1, 257880, Note_off_c, 9, 46, 64
1, 258240, Note_on_c, 9, 38, 80
1, 258240, Note_on_c, 9, 46, 80
1, 258360, Note_off_c, 9, 38, 64
1, 258360, Note_off_c, 9, 46, 64
1, 258720, Note_on_c, 9, 35, 80
1, 258720, Note_on_c, 9, 46, 80
1, 258840, Note_off_c, 9, 35, 64
1, 258840, Note_off_c, 9, 46, 64
1, 259200, Note_on_c, 9, 38, 80
1, 259200, Note_on_c, 9, 46, 80
1, 259320, Note_off_c, 9, 38, 64
1, 259320, Note_off_c, 9, 46, 64
1, 259680, Note_on_c, 9, 35, 80
1, 259680, Note_on_c, 9, 46, 80
1, 259800, Note_off_c, 9, 35, 64
1, 259800, Note_off_c, 9, 46, 64
1, 260160, Note_on_c, 9, 38, 80
1, 260160, Note_on_c, 9, 46, 80
1, 260280, Note_off_c, 9, 38, 64
1, 260280, Note_off_c, 9, 46, 64
1, 260640, Note_on_c, 9, 35, 80
1, 260640, Note_on_c, 9, 46, 80
1, 260760, Note_off_c, 9, 35, 64
1, 260760, Note_off_c, 9, 46, 64
1, 261120, Note_on_c, 9, 38, 80
1, 261120, Note_on_c, 9, 46, 80
1, 261240, Note_off_c, 9, 38, 64
1, 261240, Note_off_c, 9, 46, 64
1, 261600, Note_on_c, 9, 35, 80
1, 261600, Note_on_c, 9, 46, 80
1, 261720, Note_off_c, 9, 35, 64
1, 261720, Note_off_c, 9, 46, 64
1, 262080, Note_on_c, 9, 38, 80
1, 262080, Note_on_c, 9, 46, 80
1, 262200, Note_off_c, 9, 38, 64
1, 262200, Note_off_c, 9, 46, 64
1, 262560, Note_on_c, 9, 35, 80
1, 262560, Note_on_c, 9, 46, 80
1, 262680, Note_off_c, 9, 35, 64
1, 262680, Note_off_c, 9, 46, 64
1, 263040, Note_on_c, 9, 38, 80
1, 263040, Note_on_c, 9, 46, 80
1, 263160, Note_off_c, 9, 38, 64
1, 263160, Note_off_c, 9, 46, 64
1, 263520, Note_on_c, 9, 35, 80
1, 263520, Note_on_c, 9, 46, 80
1, 263640, Note_off_c, 9, 35, 64
1, 263640, Note_off_c, 9, 46, 64
1, 264000, Note_on_c, 9, 38, 80
1, 264000, Note_on_c, 9, 46, 80
1, 264120, Note_off_c, 9, 38, 64
1, 264120, Note_off_c, 9, 46, 64
1, 264480, Note_on_c, 9, 35, 80
1, 264480, Note_on_c, 9, 46, 80
1, 264600, Note_off_c, 9, 35, 64
1, 264600, Note_off_c, 9, 46, 64
1, 264960, Note_on_c, 9, 38, 80
1, 264960, Note_on_c, 9, 46, 80
1, 265080, Note_off_c, 9, 38, 64
1, 265080, Note_off_c, 9, 46, 64
1, 265440, Note_on_c, 9, 35, 80
1, 265440, Note_on_c, 9, 46, 80
1, 265560, Note_off_c, 9, 35, 64
1, 265560, Note_off_c, 9, 46, 64
1, 265920, Note_on_c, 9, 38, 80
1, 265920, Note_on_c, 9, 46, 80
1, 266040, Note_off_c, 9, 38, 64
1, 266040, Note_off_c, 9, 46, 64
1, 266400, Note_on_c, 9, 35, 80
1, 266400, Note_on_c, 9, 46, 80
1, 266520, Note_off_c, 9, 35, 64
1, 266520, Note_off_c, 9, 46, 64
1, 266880, Note_on_c, 9, 38, 80
1, 266880, Note_on_c, 9, 46, 80
1, 267000, Note_off_c, 9, 38, 64
1, 267000, Note_off_c, 9, 46, 64
1, 267360, Note_on_c, 9, 35, 80
1, 267360, Note_on_c, 9, 46, 80
1, 267480, Note_off_c, 9, 35, 64
1, 267480, Note_off_c, 9, 46, 64
1, 267840, Note_on_c, 9, 38, 80
1, 267840, Note_on_c, 9, 46, 80
1, 267960, Note_off_c, 9, 38, 64
1, 267960, Note_off_c, 9, 46, 64
1, 268320, Note_on_c, 9, 35, 80
1, 268320, Note_on_c, 9, 46, 80
1, 268440, Note_off_c, 9, 35, 64
1, 268440, Note_off_c, 9, 46, 64
1, 268800, Note_on_c, 9, 38, 80
1, 268800, Note_on_c, 9, 46, 80
1, 268920, Note_off_c, 9, 38, 64
1, 268920, Note_off_c, 9, 46, 64
1, 269280, Note_on_c, 9, 35, 80
1, 269280, Note_on_c, 9, 46, 80
1, 269400, Note_off_c, 9, 35, 64
1, 269400, Note_off_c, 9, 46, 64
1, 269760, Note_on_c, 9, 38, 80
1, 269760, Note_on_c, 9, 46, 80
1, 269880, Note_off_c, 9, 38, 64
1, 269880, Note_off_c, 9, 46, 64
1, 270240, Note_on_c, 9, 35, 80
1, 270240, Note_on_c, 9, 46, 80
1, 270360, Note_off_c, 9, 35, 64
1, 270360, Note_off_c, 9, 46, 64
1, 270720, Note_on_c, 9, 38, 80
1, 270720, Note_on_c, 9, 46, 80
1, 270840, Note_off_c, 9, 38, 64
1, 270840, Note_off_c, 9, 46, 64
1, 271200, Note_on_c, 9, 35, 80
1, 271200, Note_on_c, 9, 46, 80
1, 271320, Note_off_c, 9, 35, 64
1, 271320, Note_off_c, 9, 46, 64
1, 271680, Note_on_c, 9, 38, 80
1, 271680, Note_on_c, 9, 46, 80
1, 271800, Note_off_c, 9, 38, 64
1, 271800, Note_off_c, 9, 46, 64
1, 272160, Note_on_c, 9, 35, 80
1, 272160, Note_on_c, 9, 46, 80
1, 272280, Note_off_c, 9, 35, 64
1, 272280, Note_off_c, 9, 46, 64
1, 272400, Note_on_c, 9, 38, 80
1, 272520, Note_off_c, 9, 38, 64
1, 272520, Note_on_c, 9, 38, 80
1, 272640, Note_off_c, 9, 38, 64
1, 272640, Note_on_c, 9, 38, 80
1, 272760, Note_off_c, 9, 38, 64
1, 272880, Note_on_c, 9, 38, 80
1, 273000, Note_off_c, 9, 38, 64
1, 273120, Note_on_c, 9, 38, 80
1, 273240, Note_off_c, 9, 38, 64
1, 273360, Note_on_c, 9, 47, 80
1, 273480, Note_off_c, 9, 47, 64
1, 273480, Note_on_c, 9, 47, 80
1, 273600, Note_off_c, 9, 47, 64
1, 273600, Note_on_c, 9, 47, 80
1, 273720, Note_off_c, 9, 47, 64
1, 273720, Note_on_c, 9, 45, 80
1, 273840, Note_off_c, 9, 45, 64
1, 273840, Note_on_c, 9, 45, 80
1, 273960, Note_off_c, 9, 45, 64
1, 274080, Note_on_c, 9, 35, 80
1, 274080, Note_on_c, 9, 49, 80
1, 274200, Note_off_c, 9, 35, 64
1, 274200, Note_off_c, 9, 49, 64
1, 274560, Note_on_c, 9, 38, 80
1, 274680, Note_off_c, 9, 38, 64
1, 274800, Note_on_c, 9, 35, 80
1, 274800, Note_on_c, 9, 49, 80
1, 274920, Note_off_c, 9, 35, 64
1, 274920, Note_off_c, 9, 49, 64
1, 275280, Note_on_c, 9, 38, 80
1, 275400, Note_off_c, 9, 38, 64
1, 275520, Note_on_c, 9, 35, 80
1, 275520, Note_on_c, 9, 49, 80
1, 275580, Note_off_c, 9, 35, 64
1, 275580, Note_off_c, 9, 49, 64
1, 276000, Note_on_c, 9, 46, 80
1, 276120, Note_off_c, 9, 46, 64
1, 276480, Note_on_c, 9, 46, 80
1, 276480, Note_on_c, 9, 38, 80
1, 276600, Note_off_c, 9, 46, 64
1, 276600, Note_off_c, 9, 38, 64
1, 276960, Note_on_c, 9, 46, 80
1, 276960, Note_on_c, 9, 38, 80
1, 277080, Note_off_c, 9, 46, 64
1, 277080, Note_off_c, 9, 38, 64
1, 277200, Note_on_c, 9, 38, 80
1, 277320, Note_off_c, 9, 38, 64
1, 277320, Note_on_c, 9, 38, 80
1, 277440, Note_off_c, 9, 38, 64
1, 277440, Note_on_c, 9, 47, 80
1, 277560, Note_off_c, 9, 47, 64
1, 277680, Note_on_c, 9, 47, 80
1, 277800, Note_off_c, 9, 47, 64
1, 277920, Note_on_c, 9, 35, 80
1, 277920, Note_on_c, 9, 49, 80
1, 278040, Note_off_c, 9, 35, 64
1, 278040, Note_off_c, 9, 49, 64
1, 278400, Note_on_c, 9, 38, 80
1, 278520, Note_off_c, 9, 38, 64
1, 278640, Note_on_c, 9, 35, 80
1, 278640, Note_on_c, 9, 49, 80
1, 278760, Note_off_c, 9, 35, 64
1, 278760, Note_off_c, 9, 49, 64
1, 279120, Note_on_c, 9, 38, 80
1, 279240, Note_off_c, 9, 38, 64
1, 279360, Note_on_c, 9, 35, 80
1, 279360, Note_on_c, 9, 49, 80
1, 279420, Note_off_c, 9, 35, 64
1, 279420, Note_off_c, 9, 49, 64
1, 279840, Note_on_c, 9, 46, 80
1, 279960, Note_off_c, 9, 46, 64
1, 280320, Note_on_c, 9, 46, 80
1, 280320, Note_on_c, 9, 38, 80
1, 280440, Note_off_c, 9, 46, 64
1, 280440, Note_off_c, 9, 38, 64
1, 280800, Note_on_c, 9, 46, 80
1, 280800, Note_on_c, 9, 35, 80
1, 280920, Note_off_c, 9, 46, 64
1, 280920, Note_off_c, 9, 35, 64
1, 281280, Note_on_c, 9, 46, 80
1, 281280, Note_on_c, 9, 38, 80
1, 281400, Note_off_c, 9, 46, 64
1, 281400, Note_off_c, 9, 38, 64
1, 281760, Note_on_c, 9, 35, 80
1, 281760, Note_on_c, 9, 49, 80
1, 281880, Note_off_c, 9, 35, 64
1, 281880, Note_off_c, 9, 49, 64
1, 282240, Note_on_c, 9, 46, 80
1, 282360, Note_off_c, 9, 46, 64
1, 282720, Note_on_c, 9, 46, 80
1, 282840, Note_off_c, 9, 46, 64
1, 282960, Note_on_c, 9, 35, 80
1, 283020, Note_off_c, 9, 35, 64
1, 283200, Note_on_c, 9, 38, 80
1, 283320, Note_off_c, 9, 38, 64
1, 283440, Note_on_c, 9, 35, 80
1, 283440, Note_on_c, 9, 49, 80
1, 283500, Note_off_c, 9, 35, 64
1, 283500, Note_off_c, 9, 49, 64
1, 284160, Note_on_c, 9, 46, 80
1, 284280, Note_off_c, 9, 46, 64
1, 284640, Note_on_c, 9, 46, 80
1, 284760, Note_off_c, 9, 46, 64
1, 285120, Note_on_c, 9, 46, 80
1, 285240, Note_off_c, 9, 46, 64
1, 285600, Note_on_c, 9, 35, 80
1, 285600, Note_on_c, 9, 49, 80
1, 285720, Note_off_c, 9, 35, 64
1, 285720, Note_off_c, 9, 49, 64
1, 286080, Note_on_c, 9, 46, 80
1, 286200, Note_off_c, 9, 46, 64
1, 286560, Note_on_c, 9, 46, 80
1, 286680, Note_off_c, 9, 46, 64
1, 286800, Note_on_c, 9, 35, 80
1, 286860, Note_off_c, 9, 35, 64
1, 287040, Note_on_c, 9, 38, 80
1, 287160, Note_off_c, 9, 38, 64
1, 287280, Note_on_c, 9, 35, 80
1, 287280, Note_on_c, 9, 49, 80
1, 287340, Note_off_c, 9, 35, 64
1, 287340, Note_off_c, 9, 49, 64
1, 288000, Note_on_c, 9, 46, 80
1, 288120, Note_off_c, 9, 46, 64
1, 288480, Note_on_c, 9, 46, 80
1, 288600, Note_off_c, 9, 46, 64
1, 288960, Note_on_c, 9, 46, 80
1, 289080, Note_off_c, 9, 46, 64
1, 289440, Note_on_c, 9, 35, 80
1, 289440, Note_on_c, 9, 49, 80
1, 289560, Note_off_c, 9, 35, 64
1, 289560, Note_off_c, 9, 49, 64
1, 289920, Note_on_c, 9, 46, 80
1, 290040, Note_off_c, 9, 46, 64
1, 290400, Note_on_c, 9, 46, 80
1, 290520, Note_off_c, 9, 46, 64
1, 290640, Note_on_c, 9, 35, 80
1, 290700, Note_off_c, 9, 35, 64
1, 290880, Note_on_c, 9, 38, 80
1, 291000, Note_off_c, 9, 38, 64
1, 291120, Note_on_c, 9, 35, 80
1, 291120, Note_on_c, 9, 49, 80
1, 291180, Note_off_c, 9, 35, 64
1, 291180, Note_off_c, 9, 49, 64
1, 291840, Note_on_c, 9, 46, 80
1, 291960, Note_off_c, 9, 46, 64
1, 292080, Note_on_c, 9, 38, 80
1, 292140, Note_off_c, 9, 38, 64
1, 292200, Note_on_c, 9, 38, 80
1, 292260, Note_off_c, 9, 38, 64
1, 292320, Note_on_c, 9, 35, 80
1, 292440, Note_off_c, 9, 35, 64
1, 292440, Note_on_c, 9, 47, 80
1, 292500, Note_off_c, 9, 47, 64
1, 292560, Note_on_c, 9, 47, 80
1, 292620, Note_off_c, 9, 47, 64
1, 292680, Note_on_c, 9, 45, 80
1, 292740, Note_off_c, 9, 45, 64
1, 292800, Note_on_c, 9, 38, 80
1, 292920, Note_off_c, 9, 38, 64
1, 292920, Note_on_c, 9, 38, 80
1, 292980, Note_off_c, 9, 38, 64
1, 293040, Note_on_c, 9, 38, 80
1, 293100, Note_off_c, 9, 38, 64
1, 293160, Note_on_c, 9, 38, 80
1, 293220, Note_off_c, 9, 38, 64
1, 293280, Note_on_c, 9, 35, 80
1, 293280, Note_on_c, 9, 49, 80
1, 293340, Note_off_c, 9, 35, 64
1, 293340, Note_off_c, 9, 49, 64
1, 293760, Note_on_c, 9, 38, 80
1, 293820, Note_off_c, 9, 38, 64
1, 294000, Note_on_c, 9, 35, 80
1, 294000, Note_on_c, 9, 49, 80
1, 294120, Note_off_c, 9, 35, 64
1, 294120, Note_off_c, 9, 49, 64
1, 294480, Note_on_c, 9, 38, 80
1, 294540, Note_off_c, 9, 38, 64
1, 294720, Note_on_c, 9, 35, 80
1, 294720, Note_on_c, 9, 49, 80
1, 294840, Note_off_c, 9, 35, 64
1, 294840, Note_off_c, 9, 49, 64
1, 295200, Note_on_c, 9, 38, 80
1, 295260, Note_off_c, 9, 38, 64
1, 295440, Note_on_c, 9, 35, 80
1, 295440, Note_on_c, 9, 49, 80
1, 295560, Note_off_c, 9, 35, 64
1, 295560, Note_off_c, 9, 49, 64
1, 295920, Note_on_c, 9, 38, 80
1, 295980, Note_off_c, 9, 38, 64
1, 296160, Note_on_c, 9, 35, 80
1, 296160, Note_on_c, 9, 49, 80
1, 296280, Note_off_c, 9, 35, 64
1, 296280, Note_off_c, 9, 49, 64
1, 296640, Note_on_c, 9, 35, 80
1, 296640, Note_on_c, 9, 49, 80
1, 296760, Note_off_c, 9, 35, 64
1, 296760, Note_off_c, 9, 49, 64
1, 297120, Note_on_c, 9, 49, 80
1, 297120, Note_on_c, 9, 35, 80
1, 297240, Note_off_c, 9, 49, 64
1, 297240, Note_off_c, 9, 35, 64
1, 297240, Note_on_c, 9, 49, 80
1, 297360, Note_off_c, 9, 49, 64
1, 297360, Note_on_c, 9, 35, 80
1, 297360, Note_on_c, 9, 49, 80
1, 297480, Note_off_c, 9, 35, 64
1, 297480, Note_off_c, 9, 49, 64
1, 297480, Note_on_c, 9, 49, 80
1, 297600, Note_off_c, 9, 49, 64
1, 297600, Note_on_c, 9, 35, 80
1, 297600, Note_on_c, 9, 49, 80
1, 297720, Note_off_c, 9, 35, 64
1, 297720, Note_off_c, 9, 49, 64
1, 297720, Note_on_c, 9, 49, 80
1, 297840, Note_off_c, 9, 49, 64
1, 297840, Note_on_c, 9, 35, 80
1, 297840, Note_on_c, 9, 49, 80
1, 297960, Note_off_c, 9, 35, 64
1, 297960, Note_off_c, 9, 49, 64
1, 297960, Note_on_c, 9, 49, 80
1, 298080, Note_off_c, 9, 49, 64
1, 298080, Note_on_c, 9, 35, 80
1, 298080, Note_on_c, 9, 49, 80
1, 298200, Note_off_c, 9, 35, 64
1, 298200, Note_off_c, 9, 49, 64
1, 298200, Note_on_c, 9, 49, 80
1, 298320, Note_off_c, 9, 49, 64
1, 298320, Note_on_c, 9, 35, 80
1, 298320, Note_on_c, 9, 49, 80
1, 298440, Note_off_c, 9, 35, 64
1, 298440, Note_off_c, 9, 49, 64
1, 298440, Note_on_c, 9, 49, 80
1, 298560, Note_off_c, 9, 49, 64
1, 298560, Note_on_c, 9, 35, 80
1, 298560, Note_on_c, 9, 49, 80
1, 298680, Note_off_c, 9, 35, 64
1, 298680, Note_off_c, 9, 49, 64
1, 298680, Note_on_c, 9, 49, 80
1, 298800, Note_off_c, 9, 49, 64
1, 298800, Note_on_c, 9, 35, 80
1, 298800, Note_on_c, 9, 49, 80
1, 298920, Note_off_c, 9, 35, 64
1, 298920, Note_off_c, 9, 49, 64
1, 298920, Note_on_c, 9, 49, 80
1, 299040, Note_off_c, 9, 49, 64
1, 299040, Note_on_c, 9, 35, 80
1, 299040, Note_on_c, 9, 49, 80
1, 299160, Note_off_c, 9, 35, 64
1, 299160, Note_off_c, 9, 49, 64
1, 299160, Note_on_c, 9, 49, 80
1, 299280, Note_off_c, 9, 49, 64
1, 299280, Note_on_c, 9, 35, 80
1, 299280, Note_on_c, 9, 49, 80
1, 299400, Note_off_c, 9, 35, 64
1, 299400, Note_off_c, 9, 49, 64
1, 299400, Note_on_c, 9, 49, 80
1, 299520, Note_off_c, 9, 49, 64
1, 299520, Note_on_c, 9, 35, 80
1, 299520, Note_on_c, 9, 49, 80
1, 299640, Note_off_c, 9, 35, 64
1, 299640, Note_off_c, 9, 49, 64
1, 299640, Note_on_c, 9, 49, 80
1, 299760, Note_off_c, 9, 49, 64
1, 299760, Note_on_c, 9, 35, 80
1, 299760, Note_on_c, 9, 49, 80
1, 299880, Note_off_c, 9, 35, 64
1, 299880, Note_off_c, 9, 49, 64
1, 299880, Note_on_c, 9, 49, 80
1, 300000, Note_off_c, 9, 49, 64
1, 300000, Note_on_c, 9, 35, 80
1, 300000, Note_on_c, 9, 49, 80
1, 300120, Note_off_c, 9, 35, 64
1, 300120, Note_off_c, 9, 49, 64
1, 300120, Note_on_c, 9, 49, 80
1, 300240, Note_off_c, 9, 49, 64
1, 300240, Note_on_c, 9, 35, 80
1, 300240, Note_on_c, 9, 49, 80
1, 300360, Note_off_c, 9, 35, 64
1, 300360, Note_off_c, 9, 49, 64
1, 300360, Note_on_c, 9, 49, 80
1, 300480, Note_off_c, 9, 49, 64
1, 300480, Note_on_c, 9, 35, 80
1, 300480, Note_on_c, 9, 49, 80
1, 300600, Note_off_c, 9, 35, 64
1, 300600, Note_off_c, 9, 49, 64
1, 300600, Note_on_c, 9, 49, 80
1, 300720, Note_off_c, 9, 49, 64
1, 300720, Note_on_c, 9, 35, 80
1, 300720, Note_on_c, 9, 49, 80
1, 300840, Note_off_c, 9, 35, 64
1, 300840, Note_off_c, 9, 49, 64
1, 300840, Note_on_c, 9, 49, 80
1, 300960, Note_off_c, 9, 49, 64
1, 300960, Note_on_c, 9, 35, 80
1, 300960, Note_on_c, 9, 49, 80
1, 301080, Note_off_c, 9, 35, 64
1, 301080, Note_off_c, 9, 49, 64
1, 301080, Note_on_c, 9, 49, 80
1, 301200, Note_off_c, 9, 49, 64
1, 301200, Note_on_c, 9, 35, 80
1, 301200, Note_on_c, 9, 49, 80
1, 301320, Note_off_c, 9, 35, 64
1, 301320, Note_off_c, 9, 49, 64
1, 301320, Note_on_c, 9, 49, 80
1, 301440, Note_off_c, 9, 49, 64
1, 301440, Note_on_c, 9, 49, 80
1, 301440, Note_on_c, 9, 35, 80
1, 301560, Note_off_c, 9, 49, 64
1, 301560, Note_off_c, 9, 35, 64
1, 301560, Note_on_c, 9, 49, 80
1, 301680, Note_off_c, 9, 49, 64
1, 301680, Note_on_c, 9, 35, 80
1, 301680, Note_on_c, 9, 49, 80
1, 301800, Note_off_c, 9, 35, 64
1, 301800, Note_off_c, 9, 49, 64
1, 301800, Note_on_c, 9, 49, 80
1, 301920, Note_off_c, 9, 49, 64
1, 301920, Note_on_c, 9, 35, 80
1, 301920, Note_on_c, 9, 49, 80
1, 302040, Note_off_c, 9, 35, 64
1, 302040, Note_off_c, 9, 49, 64
1, 302040, Note_on_c, 9, 49, 80
1, 302160, Note_off_c, 9, 49, 64
1, 302160, Note_on_c, 9, 35, 80
1, 302160, Note_on_c, 9, 49, 80
1, 302280, Note_off_c, 9, 35, 64
1, 302280, Note_off_c, 9, 49, 64
1, 302280, Note_on_c, 9, 49, 80
1, 302400, Note_off_c, 9, 49, 64
1, 302400, Note_on_c, 9, 35, 80
1, 302400, Note_on_c, 9, 49, 80
1, 302520, Note_off_c, 9, 35, 64
1, 302520, Note_off_c, 9, 49, 64
1, 302520, Note_on_c, 9, 49, 80
1, 302640, Note_off_c, 9, 49, 64
1, 302640, Note_on_c, 9, 35, 80
1, 302640, Note_on_c, 9, 49, 80
1, 302760, Note_off_c, 9, 35, 64
1, 302760, Note_off_c, 9, 49, 64
1, 302760, Note_on_c, 9, 49, 80
1, 302880, Note_off_c, 9, 49, 64
1, 302880, Note_on_c, 9, 35, 80
1, 302880, Note_on_c, 9, 49, 80
1, 303000, Note_off_c, 9, 35, 64
1, 303000, Note_off_c, 9, 49, 64
1, 303000, Note_on_c, 9, 49, 80
1, 303120, Note_off_c, 9, 49, 64
1, 303120, Note_on_c, 9, 35, 80
1, 303120, Note_on_c, 9, 49, 80
1, 303240, Note_off_c, 9, 35, 64
1, 303240, Note_off_c, 9, 49, 64
1, 303240, Note_on_c, 9, 49, 80
1, 303360, Note_off_c, 9, 49, 64
1, 303360, Note_on_c, 9, 35, 80
1, 303360, Note_on_c, 9, 49, 80
1, 303480, Note_off_c, 9, 35, 64
1, 303480, Note_off_c, 9, 49, 64
1, 303480, Note_on_c, 9, 49, 80
1, 303600, Note_off_c, 9, 49, 64
1, 303600, Note_on_c, 9, 35, 80
1, 303600, Note_on_c, 9, 49, 80
1, 303720, Note_off_c, 9, 35, 64
1, 303720, Note_off_c, 9, 49, 64
1, 303720, Note_on_c, 9, 49, 80
1, 303840, Note_off_c, 9, 49, 64
1, 303840, Note_on_c, 9, 35, 80
1, 303840, Note_on_c, 9, 49, 80
1, 303960, Note_off_c, 9, 35, 64
1, 303960, Note_off_c, 9, 49, 64
1, 303960, Note_on_c, 9, 49, 80
1, 304080, Note_off_c, 9, 49, 64
1, 304080, Note_on_c, 9, 35, 80
1, 304080, Note_on_c, 9, 49, 80
1, 304200, Note_off_c, 9, 35, 64
1, 304200, Note_off_c, 9, 49, 64
1, 304200, Note_on_c, 9, 49, 80
1, 304320, Note_off_c, 9, 49, 64
1, 304320, Note_on_c, 9, 35, 80
1, 304320, Note_on_c, 9, 49, 80
1, 304440, Note_off_c, 9, 35, 64
1, 304440, Note_off_c, 9, 49, 64
1, 304440, Note_on_c, 9, 49, 80
1, 304560, Note_off_c, 9, 49, 64
1, 304560, Note_on_c, 9, 35, 80
1, 304560, Note_on_c, 9, 49, 80
1, 304680, Note_off_c, 9, 35, 64
1, 304680, Note_off_c, 9, 49, 64
1, 304680, Note_on_c, 9, 49, 80
1, 304800, Note_off_c, 9, 49, 64
1, 304800, Note_on_c, 9, 35, 80
1, 304800, Note_on_c, 9, 49, 80
1, 304920, Note_off_c, 9, 35, 64
1, 304920, Note_off_c, 9, 49, 64
1, 304920, Note_on_c, 9, 49, 80
1, 305040, Note_off_c, 9, 49, 64
1, 305040, Note_on_c, 9, 35, 80
1, 305040, Note_on_c, 9, 49, 80
1, 305160, Note_off_c, 9, 35, 64
1, 305160, Note_off_c, 9, 49, 64
1, 305160, Note_on_c, 9, 49, 80
1, 305280, Note_off_c, 9, 49, 64
1, 305280, Note_on_c, 9, 38, 80
1, 305400, Note_off_c, 9, 38, 64
1, 305400, Note_on_c, 9, 35, 80
1, 305520, Note_off_c, 9, 35, 64
1, 305520, Note_on_c, 9, 35, 80
1, 305640, Note_off_c, 9, 35, 64
1, 305640, Note_on_c, 9, 35, 80
1, 305760, Note_off_c, 9, 35, 64
1, 305760, Note_on_c, 9, 38, 80
1, 305880, Note_off_c, 9, 38, 64
1, 305880, Note_on_c, 9, 35, 80
1, 306000, Note_off_c, 9, 35, 64
1, 306000, Note_on_c, 9, 35, 80
1, 306120, Note_off_c, 9, 35, 64
1, 306120, Note_on_c, 9, 35, 80
1, 306240, Note_off_c, 9, 35, 64
1, 306240, Note_on_c, 9, 38, 80
1, 306360, Note_off_c, 9, 38, 64
1, 306360, Note_on_c, 9, 35, 80
1, 306480, Note_off_c, 9, 35, 64
1, 306480, Note_on_c, 9, 35, 80
1, 306600, Note_off_c, 9, 35, 64
1, 306600, Note_on_c, 9, 35, 80
1, 306720, Note_off_c, 9, 35, 64
1, 306720, Note_on_c, 9, 38, 80
1, 306840, Note_off_c, 9, 38, 64
1, 306840, Note_on_c, 9, 35, 80
1, 306960, Note_off_c, 9, 35, 64
1, 306960, Note_on_c, 9, 35, 80
1, 307080, Note_off_c, 9, 35, 64
1, 307080, Note_on_c, 9, 35, 80
1, 307200, Note_off_c, 9, 35, 64
1, 307200, Note_on_c, 9, 35, 80
1, 307200, Note_on_c, 9, 49, 80
1, 307320, Note_off_c, 9, 35, 64
1, 307320, Note_off_c, 9, 49, 64
1, 307320, End_track
0, 0, End_of_file