0, 0, Header, 1, 1, 480
1, 0, Start_track
1, 0, Title_t, "Drumset"
1, 0, Time_signature, 4, 2, 24, 8
1, 0, Key_signature, 0, "major"
1, 0, Tempo, 444444
1, 0, Control_c, 9, 121, 0
1, 0, Program_c, 9, 0
1, 0, Control_c, 9, 7, 100
1, 0, Control_c, 9, 10, 64
1, 0, Control_c, 9, 91, 0
1, 0, Control_c, 9, 93, 0
1, 0, MIDI_port, 1
1, 16800, Note_on_c, 9, 46, 75
1, 16800, Note_on_c, 9, 36, 75
1, 16811, Note_on_c, 9, 46, 0
1, 17039, Note_on_c, 9, 36, 0
1, 17040, Note_on_c, 9, 46, 80
1, 17040, Note_on_c, 9, 36, 80
1, 17051, Note_on_c, 9, 46, 0
1, 17279, Note_on_c, 9, 36, 0
1, 17280, Note_on_c, 9, 46, 85
1, 17280, Note_on_c, 9, 36, 85
1, 17291, Note_on_c, 9, 46, 0
1, 17519, Note_on_c, 9, 36, 0
1, 17520, Note_on_c, 9, 46, 90
1, 17520, Note_on_c, 9, 36, 90
1, 17531, Note_on_c, 9, 46, 0
1, 17759, Note_on_c, 9, 36, 0
1, 17760, Note_on_c, 9, 46, 95
1, 17760, Note_on_c, 9, 36, 95
1, 17771, Note_on_c, 9, 46, 0
1, 17999, Note_on_c, 9, 36, 0
1, 18000, Note_on_c, 9, 46, 100
1, 18000, Note_on_c, 9, 36, 100
1, 18011, Note_on_c, 9, 46, 0
1, 18239, Note_on_c, 9, 36, 0
1, 18240, Note_on_c, 9, 46, 105
1, 18240, Note_on_c, 9, 36, 105
1, 18251, Note_on_c, 9, 46, 0
1, 18479, Note_on_c, 9, 36, 0
1, 18480, Note_on_c, 9, 46, 110
1, 18480, Note_on_c, 9, 36, 110
1, 18491, Note_on_c, 9, 46, 0
1, 18719, Note_on_c, 9, 36, 0
1, 18720, Note_on_c, 9, 46, 115
1, 18720, Note_on_c, 9, 36, 115
1, 18731, Note_on_c, 9, 46, 0
1, 18959, Note_on_c, 9, 36, 0
1, 18960, Note_on_c, 9, 46, 120
1, 18960, Note_on_c, 9, 36, 120
1, 18971, Note_on_c, 9, 46, 0
1, 19199, Note_on_c, 9, 36, 0
1, 19200, Note_on_c, 9, 57, 100
1, 19200, Note_on_c, 9, 36, 110
1, 19224, Note_on_c, 9, 57, 0
1, 19679, Note_on_c, 9, 36, 0
1, 19680, Note_on_c, 9, 38, 120
1, 19680, Note_on_c, 9, 57, 120
1, 19691, Note_on_c, 9, 57, 0
1, 19919, Note_on_c, 9, 38, 0
1, 19920, Note_on_c, 9, 46, 100
1, 19931, Note_on_c, 9, 46, 0
1, 20160, Note_on_c, 9, 46, 100
1, 20160, Note_on_c, 9, 36, 110
1, 20171, Note_on_c, 9, 46, 0
1, 20399, Note_on_c, 9, 36, 0
1, 20400, Note_on_c, 9, 46, 100
1, 20400, Note_on_c, 9, 36, 100
1, 20411, Note_on_c, 9, 46, 0
1, 20639, Note_on_c, 9, 36, 0
1, 20640, Note_on_c, 9, 38, 120
1, 20640, Note_on_c, 9, 57, 120
1, 20651, Note_on_c, 9, 57, 0
1, 20879, Note_on_c, 9, 38, 0
1, 20880, Note_on_c, 9, 46, 100
1, 20891, Note_on_c, 9, 46, 0
1, 21120, Note_on_c, 9, 46, 100
1, 21120, Note_on_c, 9, 36, 110
1, 21131, Note_on_c, 9, 46, 0
1, 21359, Note_on_c, 9, 36, 0
1, 21360, Note_on_c, 9, 46, 100
1, 21360, Note_on_c, 9, 36, 100
1, 21371, Note_on_c, 9, 46, 0
1, 21599, Note_on_c, 9, 36, 0
1, 21600, Note_on_c, 9, 38, 120
1, 21600, Note_on_c, 9, 46, 120
1, 21611, Note_on_c, 9, 46, 0
1, 21839, Note_on_c, 9, 38, 0
1, 21840, Note_on_c, 9, 46, 100
1, 21851, Note_on_c, 9, 46, 0
1, 22080, Note_on_c, 9, 46, 100
1, 22080, Note_on_c, 9, 36, 110
1, 22091, Note_on_c, 9, 46, 0
1, 22319, Note_on_c, 9, 36, 0
1, 22320, Note_on_c, 9, 46, 100
1, 22320, Note_on_c, 9, 36, 100
1, 22331, Note_on_c, 9, 46, 0
1, 22559, Note_on_c, 9, 36, 0
1, 22560, Note_on_c, 9, 38, 120
1, 22560, Note_on_c, 9, 46, 120
1, 22571, Note_on_c, 9, 46, 0
1, 22799, Note_on_c, 9, 38, 0
1, 22800, Note_on_c, 9, 46, 100
1, 22811, Note_on_c, 9, 46, 0
1, 23040, Note_on_c, 9, 57, 120
1, 23040, Note_on_c, 9, 36, 110
1, 23051, Note_on_c, 9, 57, 0
1, 23279, Note_on_c, 9, 36, 0
1, 23280, Note_on_c, 9, 46, 100
1, 23280, Note_on_c, 9, 36, 100
1, 23291, Note_on_c, 9, 46, 0
1, 23519, Note_on_c, 9, 36, 0
1, 23520, Note_on_c, 9, 38, 120
1, 23520, Note_on_c, 9, 46, 120
1, 23531, Note_on_c, 9, 46, 0
1, 23759, Note_on_c, 9, 38, 0
1, 23760, Note_on_c, 9, 46, 100
1, 23771, Note_on_c, 9, 46, 0
1, 24000, Note_on_c, 9, 46, 100
1, 24000, Note_on_c, 9, 36, 110
1, 24011, Note_on_c, 9, 46, 0
1, 24239, Note_on_c, 9, 36, 0
1, 24240, Note_on_c, 9, 46, 100
1, 24240, Note_on_c, 9, 36, 100
1, 24251, Note_on_c, 9, 46, 0
1, 24479, Note_on_c, 9, 36, 0
1, 24480, Note_on_c, 9, 38, 120
1, 24480, Note_on_c, 9, 57, 120
1, 24491, Note_on_c, 9, 57, 0
1, 24719, Note_on_c, 9, 38, 0
1, 24720, Note_on_c, 9, 46, 100
1, 24731, Note_on_c, 9, 46, 0
1, 24960, Note_on_c, 9, 46, 100
1, 24960, Note_on_c, 9, 36, 110
1, 24971, Note_on_c, 9, 46, 0
1, 25199, Note_on_c, 9, 36, 0
1, 25200, Note_on_c, 9, 46, 100
1, 25200, Note_on_c, 9, 36, 100
1, 25211, Note_on_c, 9, 46, 0
1, 25439, Note_on_c, 9, 36, 0
1, 25440, Note_on_c, 9, 38, 120
1, 25440, Note_on_c, 9, 46, 120
1, 25451, Note_on_c, 9, 46, 0
1, 25679, Note_on_c, 9, 38, 0
1, 25680, Note_on_c, 9, 46, 100
1, 25691, Note_on_c, 9, 46, 0
1, 25920, Note_on_c, 9, 46, 100
1, 25920, Note_on_c, 9, 36, 110
1, 25931, Note_on_c, 9, 46, 0
1, 26159, Note_on_c, 9, 36, 0
1, 26160, Note_on_c, 9, 46, 100
1, 26160, Note_on_c, 9, 36, 100
1, 26171, Note_on_c, 9, 46, 0
1, 26399, Note_on_c, 9, 36, 0
1, 26400, Note_on_c, 9, 38, 120
1, 26400, Note_on_c, 9, 46, 120
1, 26411, Note_on_c, 9, 46, 0
1, 26639, Note_on_c, 9, 38, 0
1, 26640, Note_on_c, 9, 46, 100
1, 26651, Note_on_c, 9, 46, 0
1, 26880, Note_on_c, 9, 57, 120
1, 26880, Note_on_c, 9, 36, 110
1, 26891, Note_on_c, 9, 57, 0
1, 27119, Note_on_c, 9, 36, 0
1, 27120, Note_on_c, 9, 46, 100
1, 27120, Note_on_c, 9, 36, 100
1, 27131, Note_on_c, 9, 46, 0
1, 27359, Note_on_c, 9, 36, 0
1, 27360, Note_on_c, 9, 38, 120
1, 27360, Note_on_c, 9, 46, 120
1, 27371, Note_on_c, 9, 46, 0
1, 27599, Note_on_c, 9, 38, 0
1, 27600, Note_on_c, 9, 46, 100
1, 27611, Note_on_c, 9, 46, 0
1, 27840, Note_on_c, 9, 46, 100
1, 27840, Note_on_c, 9, 36, 110
1, 27851, Note_on_c, 9, 46, 0
1, 28079, Note_on_c, 9, 36, 0
1, 28080, Note_on_c, 9, 46, 100
1, 28080, Note_on_c, 9, 36, 100
1, 28091, Note_on_c, 9, 46, 0
1, 28319, Note_on_c, 9, 36, 0
1, 28320, Note_on_c, 9, 38, 120
1, 28320, Note_on_c, 9, 57, 120
1, 28331, Note_on_c, 9, 57, 0
1, 28559, Note_on_c, 9, 38, 0
1, 28560, Note_on_c, 9, 46, 100
1, 28571, Note_on_c, 9, 46, 0
1, 28800, Note_on_c, 9, 46, 100
1, 28800, Note_on_c, 9, 36, 110
1, 28811, Note_on_c, 9, 46, 0
1, 29039, Note_on_c, 9, 36, 0
1, 29040, Note_on_c, 9, 46, 100
1, 29040, Note_on_c, 9, 36, 100
1, 29051, Note_on_c, 9, 46, 0
1, 29279, Note_on_c, 9, 36, 0
1, 29280, Note_on_c, 9, 38, 120
1, 29280, Note_on_c, 9, 46, 120
1, 29291, Note_on_c, 9, 46, 0
1, 29519, Note_on_c, 9, 38, 0
1, 29520, Note_on_c, 9, 46, 100
1, 29531, Note_on_c, 9, 46, 0
1, 29760, Note_on_c, 9, 46, 100
1, 29760, Note_on_c, 9, 36, 110
1, 29771, Note_on_c, 9, 46, 0
1, 29999, Note_on_c, 9, 36, 0
1, 30000, Note_on_c, 9, 46, 100
1, 30000, Note_on_c, 9, 36, 100
1, 30011, Note_on_c, 9, 46, 0
1, 30239, Note_on_c, 9, 36, 0
1, 30240, Note_on_c, 9, 38, 120
1, 30240, Note_on_c, 9, 46, 120
1, 30251, Note_on_c, 9, 46, 0
1, 30479, Note_on_c, 9, 38, 0
1, 30480, Note_on_c, 9, 46, 100
1, 30491, Note_on_c, 9, 46, 0
1, 30720, Note_on_c, 9, 57, 120
1, 30720, Note_on_c, 9, 36, 110
1, 30731, Note_on_c, 9, 57, 0
1, 30959, Note_on_c, 9, 36, 0
1, 30960, Note_on_c, 9, 46, 100
1, 30960, Note_on_c, 9, 36, 100
1, 30971, Note_on_c, 9, 46, 0
1, 31199, Note_on_c, 9, 36, 0
1, 31200, Note_on_c, 9, 38, 120
1, 31200, Note_on_c, 9, 46, 120
1, 31211, Note_on_c, 9, 46, 0
1, 31439, Note_on_c, 9, 38, 0
1, 31440, Note_on_c, 9, 46, 100
1, 31451, Note_on_c, 9, 46, 0
1, 31680, Note_on_c, 9, 46, 100
1, 31680, Note_on_c, 9, 36, 110
1, 31691, Note_on_c, 9, 46, 0
1, 31919, Note_on_c, 9, 36, 0
1, 31920, Note_on_c, 9, 46, 100
1, 31920, Note_on_c, 9, 36, 100
1, 31931, Note_on_c, 9, 46, 0
1, 32159, Note_on_c, 9, 36, 0
1, 32160, Note_on_c, 9, 38, 120
1, 32160, Note_on_c, 9, 57, 120
1, 32171, Note_on_c, 9, 57, 0
1, 32399, Note_on_c, 9, 38, 0
1, 32400, Note_on_c, 9, 46, 100
1, 32411, Note_on_c, 9, 46, 0
1, 32640, Note_on_c, 9, 46, 100
1, 32640, Note_on_c, 9, 36, 110
1, 32651, Note_on_c, 9, 46, 0
1, 32879, Note_on_c, 9, 36, 0
1, 32880, Note_on_c, 9, 46, 100
1, 32880, Note_on_c, 9, 36, 100
1, 32891, Note_on_c, 9, 46, 0
1, 33119, Note_on_c, 9, 36, 0
1, 33120, Note_on_c, 9, 38, 120
1, 33120, Note_on_c, 9, 46, 120
1, 33131, Note_on_c, 9, 46, 0
1, 33359, Note_on_c, 9, 38, 0
1, 33360, Note_on_c, 9, 46, 100
1, 33371, Note_on_c, 9, 46, 0
1, 33600, Note_on_c, 9, 46, 100
1, 33600, Note_on_c, 9, 36, 110
1, 33611, Note_on_c, 9, 46, 0
1, 33839, Note_on_c, 9, 36, 0
1, 33840, Note_on_c, 9, 46, 100
1, 33840, Note_on_c, 9, 36, 100
1, 33851, Note_on_c, 9, 46, 0
1, 34079, Note_on_c, 9, 36, 0
1, 34080, Note_on_c, 9, 38, 120
1, 34080, Note_on_c, 9, 46, 120
1, 34091, Note_on_c, 9, 46, 0
1, 34319, Note_on_c, 9, 38, 0
1, 34320, Note_on_c, 9, 38, 100
1, 34320, Note_on_c, 9, 46, 100
1, 34331, Note_on_c, 9, 46, 0
1, 34559, Note_on_c, 9, 38, 0
1, 34560, Note_on_c, 9, 57, 120
1, 34560, Note_on_c, 9, 36, 110
1, 34571, Note_on_c, 9, 57, 0
1, 34799, Note_on_c, 9, 36, 0
1, 34800, Note_on_c, 9, 46, 100
1, 34800, Note_on_c, 9, 36, 100
1, 34811, Note_on_c, 9, 46, 0
1, 35039, Note_on_c, 9, 36, 0
1, 35040, Note_on_c, 9, 38, 120
1, 35040, Note_on_c, 9, 46, 120
1, 35051, Note_on_c, 9, 46, 0
1, 35279, Note_on_c, 9, 38, 0
1, 35280, Note_on_c, 9, 46, 100
1, 35291, Note_on_c, 9, 46, 0
1, 35520, Note_on_c, 9, 46, 100
1, 35520, Note_on_c, 9, 36, 110
1, 35531, Note_on_c, 9, 46, 0
1, 35759, Note_on_c, 9, 36, 0
1, 35760, Note_on_c, 9, 46, 100
1, 35760, Note_on_c, 9, 36, 100
1, 35771, Note_on_c, 9, 46, 0
1, 35999, Note_on_c, 9, 36, 0
1, 36000, Note_on_c, 9, 38, 120
1, 36000, Note_on_c, 9, 46, 120
1, 36011, Note_on_c, 9, 46, 0
1, 36239, Note_on_c, 9, 38, 0
1, 36240, Note_on_c, 9, 46, 100
1, 36251, Note_on_c, 9, 46, 0
1, 36480, Note_on_c, 9, 46, 100
1, 36480, Note_on_c, 9, 36, 110
1, 36491, Note_on_c, 9, 46, 0
1, 36719, Note_on_c, 9, 36, 0
1, 36720, Note_on_c, 9, 46, 100
1, 36720, Note_on_c, 9, 36, 100
1, 36731, Note_on_c, 9, 46, 0
1, 36959, Note_on_c, 9, 36, 0
1, 36960, Note_on_c, 9, 38, 120
1, 36960, Note_on_c, 9, 46, 120
1, 36971, Note_on_c, 9, 46, 0
1, 37199, Note_on_c, 9, 38, 0
1, 37200, Note_on_c, 9, 46, 100
1, 37211, Note_on_c, 9, 46, 0
1, 37440, Note_on_c, 9, 46, 100
1, 37440, Note_on_c, 9, 36, 110
1, 37451, Note_on_c, 9, 46, 0
1, 37679, Note_on_c, 9, 36, 0
1, 37680, Note_on_c, 9, 46, 100
1, 37680, Note_on_c, 9, 36, 100
1, 37691, Note_on_c, 9, 46, 0
1, 37919, Note_on_c, 9, 36, 0
1, 37920, Note_on_c, 9, 38, 120
1, 37920, Note_on_c, 9, 46, 120
1, 37931, Note_on_c, 9, 46, 0
1, 38159, Note_on_c, 9, 38, 0
1, 38160, Note_on_c, 9, 46, 100
1, 38171, Note_on_c, 9, 46, 0
1, 38400, Note_on_c, 9, 46, 100
1, 38400, Note_on_c, 9, 36, 110
1, 38411, Note_on_c, 9, 46, 0
1, 38639, Note_on_c, 9, 36, 0
1, 38640, Note_on_c, 9, 46, 100
1, 38640, Note_on_c, 9, 36, 100
1, 38651, Note_on_c, 9, 46, 0
1, 38879, Note_on_c, 9, 36, 0
1, 38880, Note_on_c, 9, 38, 120
1, 38880, Note_on_c, 9, 46, 120
1, 38891, Note_on_c, 9, 46, 0
1, 39119, Note_on_c, 9, 38, 0
1, 39120, Note_on_c, 9, 46, 100
1, 39131, Note_on_c, 9, 46, 0
1, 39360, Note_on_c, 9, 46, 100
1, 39360, Note_on_c, 9, 36, 110
1, 39371, Note_on_c, 9, 46, 0
1, 39599, Note_on_c, 9, 36, 0
1, 39600, Note_on_c, 9, 46, 100
1, 39600, Note_on_c, 9, 36, 100
1, 39611, Note_on_c, 9, 46, 0
1, 39839, Note_on_c, 9, 36, 0
1, 39840, Note_on_c, 9, 38, 120
1, 39840, Note_on_c, 9, 46, 120
1, 39851, Note_on_c, 9, 46, 0
1, 40079, Note_on_c, 9, 38, 0
1, 40080, Note_on_c, 9, 46, 100
1, 40091, Note_on_c, 9, 46, 0
1, 40320, Note_on_c, 9, 46, 100
1, 40320, Note_on_c, 9, 36, 110
1, 40331, Note_on_c, 9, 46, 0
1, 40559, Note_on_c, 9, 36, 0
1, 40560, Note_on_c, 9, 46, 100
1, 40560, Note_on_c, 9, 36, 100
1, 40571, Note_on_c, 9, 46, 0
1, 40799, Note_on_c, 9, 36, 0
1, 40800, Note_on_c, 9, 38, 120
1, 40800, Note_on_c, 9, 46, 120
1, 40811, Note_on_c, 9, 46, 0
1, 41039, Note_on_c, 9, 38, 0
1, 41040, Note_on_c, 9, 46, 100
1, 41051, Note_on_c, 9, 46, 0
1, 41280, Note_on_c, 9, 46, 100
1, 41280, Note_on_c, 9, 36, 110
1, 41291, Note_on_c, 9, 46, 0
1, 41519, Note_on_c, 9, 36, 0
1, 41520, Note_on_c, 9, 46, 100
1, 41520, Note_on_c, 9, 36, 100
1, 41531, Note_on_c, 9, 46, 0
1, 41759, Note_on_c, 9, 36, 0
1, 41760, Note_on_c, 9, 38, 120
1, 41760, Note_on_c, 9, 46, 120
1, 41771, Note_on_c, 9, 46, 0
1, 41999, Note_on_c, 9, 38, 0
1, 42000, Note_on_c, 9, 46, 100
1, 42011, Note_on_c, 9, 46, 0
1, 42240, Note_on_c, 9, 46, 100
1, 42240, Note_on_c, 9, 36, 110
1, 42251, Note_on_c, 9, 46, 0
1, 42479, Note_on_c, 9, 36, 0
1, 42480, Note_on_c, 9, 46, 100
1, 42480, Note_on_c, 9, 36, 100
1, 42491, Note_on_c, 9, 46, 0
1, 42719, Note_on_c, 9, 36, 0
1, 42720, Note_on_c, 9, 38, 120
1, 42720, Note_on_c, 9, 46, 120
1, 42731, Note_on_c, 9, 46, 0
1, 42959, Note_on_c, 9, 38, 0
1, 42960, Note_on_c, 9, 46, 100
1, 42971, Note_on_c, 9, 46, 0
1, 43200, Note_on_c, 9, 46, 100
1, 43200, Note_on_c, 9, 36, 110
1, 43211, Note_on_c, 9, 46, 0
1, 43439, Note_on_c, 9, 36, 0
1, 43440, Note_on_c, 9, 46, 100
1, 43440, Note_on_c, 9, 36, 100
1, 43451, Note_on_c, 9, 46, 0
1, 43679, Note_on_c, 9, 36, 0
1, 43680, Note_on_c, 9, 38, 120
1, 43680, Note_on_c, 9, 46, 120
1, 43691, Note_on_c, 9, 46, 0
1, 43919, Note_on_c, 9, 38, 0
1, 43920, Note_on_c, 9, 46, 100
1, 43931, Note_on_c, 9, 46, 0
1, 44160, Note_on_c, 9, 46, 100
1, 44160, Note_on_c, 9, 36, 110
1, 44171, Note_on_c, 9, 46, 0
1, 44399, Note_on_c, 9, 36, 0
1, 44400, Note_on_c, 9, 46, 100
1, 44400, Note_on_c, 9, 36, 100
1, 44411, Note_on_c, 9, 46, 0
1, 44639, Note_on_c, 9, 36, 0
1, 44640, Note_on_c, 9, 38, 120
1, 44640, Note_on_c, 9, 46, 120
1, 44651, Note_on_c, 9, 46, 0
1, 44879, Note_on_c, 9, 38, 0
1, 44880, Note_on_c, 9, 46, 100
1, 44891, Note_on_c, 9, 46, 0
1, 45120, Note_on_c, 9, 46, 100
1, 45120, Note_on_c, 9, 36, 110
1, 45131, Note_on_c, 9, 46, 0
1, 45359, Note_on_c, 9, 36, 0
1, 45360, Note_on_c, 9, 46, 100
1, 45360, Note_on_c, 9, 36, 100
1, 45371, Note_on_c, 9, 46, 0
1, 45599, Note_on_c, 9, 36, 0
1, 45600, Note_on_c, 9, 38, 120
1, 45600, Note_on_c, 9, 46, 120
1, 45611, Note_on_c, 9, 46, 0
1, 45839, Note_on_c, 9, 38, 0
1, 45840, Note_on_c, 9, 46, 100
1, 45851, Note_on_c, 9, 46, 0
1, 46080, Note_on_c, 9, 46, 100
1, 46080, Note_on_c, 9, 36, 110
1, 46091, Note_on_c, 9, 46, 0
1, 46319, Note_on_c, 9, 36, 0
1, 46320, Note_on_c, 9, 46, 100
1, 46320, Note_on_c, 9, 36, 100
1, 46331, Note_on_c, 9, 46, 0
1, 46559, Note_on_c, 9, 36, 0
1, 46560, Note_on_c, 9, 38, 120
1, 46560, Note_on_c, 9, 46, 120
1, 46571, Note_on_c, 9, 46, 0
1, 46799, Note_on_c, 9, 38, 0
1, 46800, Note_on_c, 9, 46, 100
1, 46811, Note_on_c, 9, 46, 0
1, 47040, Note_on_c, 9, 46, 100
1, 47040, Note_on_c, 9, 36, 110
1, 47051, Note_on_c, 9, 46, 0
1, 47279, Note_on_c, 9, 36, 0
1, 47280, Note_on_c, 9, 46, 100
1, 47280, Note_on_c, 9, 36, 100
1, 47291, Note_on_c, 9, 46, 0
1, 47519, Note_on_c, 9, 36, 0
1, 47520, Note_on_c, 9, 38, 120
1, 47520, Note_on_c, 9, 46, 120
1, 47531, Note_on_c, 9, 46, 0
1, 47759, Note_on_c, 9, 38, 0
1, 47760, Note_on_c, 9, 46, 100
1, 47771, Note_on_c, 9, 46, 0
1, 48000, Note_on_c, 9, 46, 85
1, 48000, Note_on_c, 9, 36, 85
1, 48011, Note_on_c, 9, 46, 0
1, 48239, Note_on_c, 9, 36, 0
1, 48240, Note_on_c, 9, 46, 90
1, 48240, Note_on_c, 9, 36, 90
1, 48251, Note_on_c, 9, 46, 0
1, 48479, Note_on_c, 9, 36, 0
1, 48480, Note_on_c, 9, 38, 95
1, 48480, Note_on_c, 9, 46, 95
1, 48480, Note_on_c, 9, 36, 95
1, 48491, Note_on_c, 9, 46, 0
1, 48719, Note_on_c, 9, 38, 0
1, 48719, Note_on_c, 9, 36, 0
1, 48720, Note_on_c, 9, 38, 100
1, 48720, Note_on_c, 9, 46, 100
1, 48720, Note_on_c, 9, 36, 100
1, 48731, Note_on_c, 9, 46, 0
1, 48959, Note_on_c, 9, 38, 0
1, 48959, Note_on_c, 9, 36, 0
1, 48960, Note_on_c, 9, 38, 105
1, 48960, Note_on_c, 9, 46, 105
1, 48960, Note_on_c, 9, 36, 105
1, 48971, Note_on_c, 9, 46, 0
1, 49199, Note_on_c, 9, 38, 0
1, 49199, Note_on_c, 9, 36, 0
1, 49200, Note_on_c, 9, 38, 110
1, 49200, Note_on_c, 9, 46, 110
1, 49200, Note_on_c, 9, 36, 110
1, 49211, Note_on_c, 9, 46, 0
1, 49439, Note_on_c, 9, 38, 0
1, 49439, Note_on_c, 9, 36, 0
1, 49440, Note_on_c, 9, 38, 115
1, 49440, Note_on_c, 9, 46, 115
1, 49440, Note_on_c, 9, 36, 115
1, 49451, Note_on_c, 9, 46, 0
1, 49679, Note_on_c, 9, 38, 0
1, 49679, Note_on_c, 9, 36, 0
1, 49680, Note_on_c, 9, 38, 120
1, 49680, Note_on_c, 9, 46, 120
1, 49680, Note_on_c, 9, 36, 120
1, 49691, Note_on_c, 9, 46, 0
1, 49919, Note_on_c, 9, 38, 0
1, 49919, Note_on_c, 9, 36, 0
1, 49920, Note_on_c, 9, 57, 120
1, 49920, Note_on_c, 9, 36, 110
1, 49944, Note_on_c, 9, 57, 0
1, 50159, Note_on_c, 9, 36, 0
1, 50160, Note_on_c, 9, 36, 100
1, 50399, Note_on_c, 9, 36, 0
1, 50400, Note_on_c, 9, 38, 120
1, 50400, Note_on_c, 9, 57, 120
1, 50411, Note_on_c, 9, 57, 0
1, 50639, Note_on_c, 9, 38, 0
1, 50640, Note_on_c, 9, 51, 100
1, 50651, Note_on_c, 9, 51, 0
1, 50880, Note_on_c, 9, 51, 100
1, 50880, Note_on_c, 9, 36, 110
1, 50891, Note_on_c, 9, 51, 0
1, 51119, Note_on_c, 9, 36, 0
1, 51120, Note_on_c, 9, 51, 100
1, 51120, Note_on_c, 9, 36, 100
1, 51131, Note_on_c, 9, 51, 0
1, 51359, Note_on_c, 9, 36, 0
1, 51360, Note_on_c, 9, 38, 120
1, 51360, Note_on_c, 9, 51, 120
1, 51371, Note_on_c, 9, 51, 0
1, 51599, Note_on_c, 9, 38, 0
1, 51600, Note_on_c, 9, 51, 100
1, 51611, Note_on_c, 9, 51, 0
1, 51840, Note_on_c, 9, 51, 100
1, 51840, Note_on_c, 9, 36, 110
1, 51851, Note_on_c, 9, 51, 0
1, 52079, Note_on_c, 9, 36, 0
1, 52080, Note_on_c, 9, 51, 100
1, 52080, Note_on_c, 9, 36, 100
1, 52091, Note_on_c, 9, 51, 0
1, 52319, Note_on_c, 9, 36, 0
1, 52320, Note_on_c, 9, 38, 120
1, 52320, Note_on_c, 9, 51, 120
1, 52331, Note_on_c, 9, 51, 0
1, 52559, Note_on_c, 9, 38, 0
1, 52560, Note_on_c, 9, 51, 100
1, 52571, Note_on_c, 9, 51, 0
1, 52800, Note_on_c, 9, 51, 100
1, 52800, Note_on_c, 9, 36, 110
1, 52811, Note_on_c, 9, 51, 0
1, 53039, Note_on_c, 9, 36, 0
1, 53040, Note_on_c, 9, 51, 100
1, 53040, Note_on_c, 9, 36, 100
1, 53051, Note_on_c, 9, 51, 0
1, 53279, Note_on_c, 9, 36, 0
1, 53280, Note_on_c, 9, 38, 120
1, 53280, Note_on_c, 9, 51, 120
1, 53291, Note_on_c, 9, 51, 0
1, 53519, Note_on_c, 9, 38, 0
1, 53520, Note_on_c, 9, 51, 100
1, 53531, Note_on_c, 9, 51, 0
1, 53760, Note_on_c, 9, 57, 120
1, 53760, Note_on_c, 9, 36, 110
1, 53784, Note_on_c, 9, 57, 0
1, 53999, Note_on_c, 9, 36, 0
1, 54000, Note_on_c, 9, 36, 100
1, 54239, Note_on_c, 9, 36, 0
1, 54240, Note_on_c, 9, 38, 120
1, 54240, Note_on_c, 9, 57, 120
1, 54251, Note_on_c, 9, 57, 0
1, 54479, Note_on_c, 9, 38, 0
1, 54480, Note_on_c, 9, 51, 100
1, 54491, Note_on_c, 9, 51, 0
1, 54720, Note_on_c, 9, 51, 100
1, 54720, Note_on_c, 9, 36, 110
1, 54731, Note_on_c, 9, 51, 0
1, 54959, Note_on_c, 9, 36, 0
1, 54960, Note_on_c, 9, 51, 100
1, 54960, Note_on_c, 9, 36, 100
1, 54971, Note_on_c, 9, 51, 0
1, 55199, Note_on_c, 9, 36, 0
1, 55200, Note_on_c, 9, 38, 120
1, 55200, Note_on_c, 9, 51, 120
1, 55211, Note_on_c, 9, 51, 0
1, 55439, Note_on_c, 9, 38, 0
1, 55440, Note_on_c, 9, 51, 100
1, 55451, Note_on_c, 9, 51, 0
1, 55680, Note_on_c, 9, 51, 100
1, 55680, Note_on_c, 9, 36, 110
1, 55691, Note_on_c, 9, 51, 0
1, 55919, Note_on_c, 9, 36, 0
1, 55920, Note_on_c, 9, 51, 100
1, 55920, Note_on_c, 9, 36, 100
1, 55931, Note_on_c, 9, 51, 0
1, 56159, Note_on_c, 9, 36, 0
1, 56160, Note_on_c, 9, 38, 120
1, 56160, Note_on_c, 9, 51, 120
1, 56171, Note_on_c, 9, 51, 0
1, 56399, Note_on_c, 9, 38, 0
1, 56400, Note_on_c, 9, 51, 100
1, 56411, Note_on_c, 9, 51, 0
1, 56640, Note_on_c, 9, 51, 100
1, 56640, Note_on_c, 9, 36, 110
1, 56651, Note_on_c, 9, 51, 0
1, 56879, Note_on_c, 9, 36, 0
1, 56880, Note_on_c, 9, 51, 100
1, 56880, Note_on_c, 9, 36, 100
1, 56891, Note_on_c, 9, 51, 0
1, 57119, Note_on_c, 9, 36, 0
1, 57120, Note_on_c, 9, 38, 120
1, 57239, Note_on_c, 9, 38, 0
1, 57240, Note_on_c, 9, 38, 100
1, 57359, Note_on_c, 9, 38, 0
1, 57360, Note_on_c, 9, 51, 100
1, 57371, Note_on_c, 9, 51, 0
1, 57600, Note_on_c, 9, 57, 120
1, 57600, Note_on_c, 9, 36, 110
1, 57624, Note_on_c, 9, 57, 0
1, 57839, Note_on_c, 9, 36, 0
1, 57840, Note_on_c, 9, 36, 100
1, 58079, Note_on_c, 9, 36, 0
1, 58080, Note_on_c, 9, 38, 120
1, 58080, Note_on_c, 9, 57, 120
1, 58091, Note_on_c, 9, 57, 0
1, 58319, Note_on_c, 9, 38, 0
1, 58320, Note_on_c, 9, 51, 100
1, 58331, Note_on_c, 9, 51, 0
1, 58560, Note_on_c, 9, 51, 100
1, 58560, Note_on_c, 9, 36, 110
1, 58571, Note_on_c, 9, 51, 0
1, 58799, Note_on_c, 9, 36, 0
1, 58800, Note_on_c, 9, 51, 100
1, 58800, Note_on_c, 9, 36, 100
1, 58811, Note_on_c, 9, 51, 0
1, 59039, Note_on_c, 9, 36, 0
1, 59040, Note_on_c, 9, 38, 120
1, 59040, Note_on_c, 9, 51, 120
1, 59051, Note_on_c, 9, 51, 0
1, 59279, Note_on_c, 9, 38, 0
1, 59280, Note_on_c, 9, 51, 100
1, 59291, Note_on_c, 9, 51, 0
1, 59520, Note_on_c, 9, 51, 100
1, 59520, Note_on_c, 9, 36, 110
1, 59531, Note_on_c, 9, 51, 0
1, 59759, Note_on_c, 9, 36, 0
1, 59760, Note_on_c, 9, 51, 100
1, 59760, Note_on_c, 9, 36, 100
1, 59771, Note_on_c, 9, 51, 0
1, 59999, Note_on_c, 9, 36, 0
1, 60000, Note_on_c, 9, 38, 120
1, 60000, Note_on_c, 9, 51, 120
1, 60011, Note_on_c, 9, 51, 0
1, 60239, Note_on_c, 9, 38, 0
1, 60240, Note_on_c, 9, 51, 100
1, 60251, Note_on_c, 9, 51, 0
1, 60480, Note_on_c, 9, 51, 100
1, 60480, Note_on_c, 9, 36, 110
1, 60491, Note_on_c, 9, 51, 0
1, 60719, Note_on_c, 9, 36, 0
1, 60720, Note_on_c, 9, 51, 100
1, 60720, Note_on_c, 9, 36, 100
1, 60731, Note_on_c, 9, 51, 0
1, 60959, Note_on_c, 9, 36, 0
1, 60960, Note_on_c, 9, 38, 120
1, 60960, Note_on_c, 9, 51, 120
1, 60971, Note_on_c, 9, 51, 0
1, 61199, Note_on_c, 9, 38, 0
1, 61200, Note_on_c, 9, 51, 100
1, 61211, Note_on_c, 9, 51, 0
1, 61440, Note_on_c, 9, 51, 100
1, 61440, Note_on_c, 9, 36, 110
1, 61451, Note_on_c, 9, 51, 0
1, 61679, Note_on_c, 9, 36, 0
1, 61680, Note_on_c, 9, 51, 100
1, 61680, Note_on_c, 9, 36, 100
1, 61691, Note_on_c, 9, 51, 0
1, 61919, Note_on_c, 9, 36, 0
1, 61920, Note_on_c, 9, 38, 120
1, 61920, Note_on_c, 9, 51, 120
1, 61931, Note_on_c, 9, 51, 0
1, 62159, Note_on_c, 9, 38, 0
1, 62160, Note_on_c, 9, 51, 100
1, 62171, Note_on_c, 9, 51, 0
1, 62400, Note_on_c, 9, 51, 100
1, 62400, Note_on_c, 9, 36, 110
1, 62411, Note_on_c, 9, 51, 0
1, 62639, Note_on_c, 9, 36, 0
1, 62640, Note_on_c, 9, 51, 100
1, 62640, Note_on_c, 9, 36, 100
1, 62651, Note_on_c, 9, 51, 0
1, 62879, Note_on_c, 9, 36, 0
1, 62880, Note_on_c, 9, 38, 120
1, 62880, Note_on_c, 9, 57, 120
1, 62891, Note_on_c, 9, 57, 0
1, 63119, Note_on_c, 9, 38, 0
1, 63120, Note_on_c, 9, 51, 100
1, 63131, Note_on_c, 9, 51, 0
1, 63360, Note_on_c, 9, 51, 100
1, 63360, Note_on_c, 9, 36, 110
1, 63371, Note_on_c, 9, 51, 0
1, 63599, Note_on_c, 9, 36, 0
1, 63600, Note_on_c, 9, 51, 100
1, 63600, Note_on_c, 9, 36, 100
1, 63611, Note_on_c, 9, 51, 0
1, 63839, Note_on_c, 9, 36, 0
1, 63840, Note_on_c, 9, 38, 120
1, 63840, Note_on_c, 9, 51, 120
1, 63851, Note_on_c, 9, 51, 0
1, 64079, Note_on_c, 9, 38, 0
1, 64080, Note_on_c, 9, 51, 100
1, 64091, Note_on_c, 9, 51, 0
1, 64320, Note_on_c, 9, 51, 100
1, 64320, Note_on_c, 9, 36, 110
1, 64331, Note_on_c, 9, 51, 0
1, 64559, Note_on_c, 9, 36, 0
1, 64560, Note_on_c, 9, 51, 100
1, 64560, Note_on_c, 9, 36, 100
1, 64571, Note_on_c, 9, 51, 0
1, 64799, Note_on_c, 9, 36, 0
1, 64800, Note_on_c, 9, 38, 100
1, 64919, Note_on_c, 9, 38, 0
1, 64920, Note_on_c, 9, 38, 110
1, 65039, Note_on_c, 9, 38, 0
1, 65040, Note_on_c, 9, 38, 115
1, 65159, Note_on_c, 9, 38, 0
1, 65160, Note_on_c, 9, 38, 120
1, 65279, Note_on_c, 9, 38, 0
1, 65280, Note_on_c, 9, 57, 120
1, 65280, Note_on_c, 9, 36, 110
1, 65291, Note_on_c, 9, 57, 0
1, 65519, Note_on_c, 9, 36, 0
1, 65520, Note_on_c, 9, 46, 100
1, 65520, Note_on_c, 9, 36, 100
1, 65531, Note_on_c, 9, 46, 0
1, 65759, Note_on_c, 9, 36, 0
1, 65760, Note_on_c, 9, 38, 120
1, 65760, Note_on_c, 9, 46, 120
1, 65771, Note_on_c, 9, 46, 0
1, 65999, Note_on_c, 9, 38, 0
1, 66000, Note_on_c, 9, 46, 100
1, 66011, Note_on_c, 9, 46, 0
1, 66240, Note_on_c, 9, 46, 100
1, 66240, Note_on_c, 9, 36, 110
1, 66251, Note_on_c, 9, 46, 0
1, 66479, Note_on_c, 9, 36, 0
1, 66480, Note_on_c, 9, 46, 100
1, 66480, Note_on_c, 9, 36, 100
1, 66491, Note_on_c, 9, 46, 0
1, 66719, Note_on_c, 9, 36, 0
1, 66720, Note_on_c, 9, 38, 120
1, 66720, Note_on_c, 9, 46, 120
1, 66731, Note_on_c, 9, 46, 0
1, 66959, Note_on_c, 9, 38, 0
1, 66960, Note_on_c, 9, 46, 100
1, 66971, Note_on_c, 9, 46, 0
1, 67200, Note_on_c, 9, 46, 100
1, 67200, Note_on_c, 9, 36, 110
1, 67211, Note_on_c, 9, 46, 0
1, 67439, Note_on_c, 9, 36, 0
1, 67440, Note_on_c, 9, 46, 100
1, 67440, Note_on_c, 9, 36, 100
1, 67451, Note_on_c, 9, 46, 0
1, 67679, Note_on_c, 9, 36, 0
1, 67680, Note_on_c, 9, 38, 120
1, 67680, Note_on_c, 9, 46, 120
1, 67691, Note_on_c, 9, 46, 0
1, 67919, Note_on_c, 9, 38, 0
1, 67920, Note_on_c, 9, 46, 100
1, 67931, Note_on_c, 9, 46, 0
1, 68160, Note_on_c, 9, 46, 100
1, 68160, Note_on_c, 9, 36, 110
1, 68171, Note_on_c, 9, 46, 0
1, 68399, Note_on_c, 9, 36, 0
1, 68400, Note_on_c, 9, 46, 100
1, 68400, Note_on_c, 9, 36, 100
1, 68411, Note_on_c, 9, 46, 0
1, 68639, Note_on_c, 9, 36, 0
1, 68640, Note_on_c, 9, 38, 120
1, 68640, Note_on_c, 9, 46, 120
1, 68651, Note_on_c, 9, 46, 0
1, 68879, Note_on_c, 9, 38, 0
1, 68880, Note_on_c, 9, 46, 100
1, 68891, Note_on_c, 9, 46, 0
1, 69120, Note_on_c, 9, 46, 100
1, 69120, Note_on_c, 9, 36, 110
1, 69131, Note_on_c, 9, 46, 0
1, 69359, Note_on_c, 9, 36, 0
1, 69360, Note_on_c, 9, 46, 100
1, 69360, Note_on_c, 9, 36, 100
1, 69371, Note_on_c, 9, 46, 0
1, 69599, Note_on_c, 9, 36, 0
1, 69600, Note_on_c, 9, 38, 120
1, 69600, Note_on_c, 9, 46, 120
1, 69611, Note_on_c, 9, 46, 0
1, 69839, Note_on_c, 9, 38, 0
1, 69840, Note_on_c, 9, 46, 100
1, 69851, Note_on_c, 9, 46, 0
1, 70080, Note_on_c, 9, 46, 100
1, 70080, Note_on_c, 9, 36, 110
1, 70091, Note_on_c, 9, 46, 0
1, 70319, Note_on_c, 9, 36, 0
1, 70320, Note_on_c, 9, 46, 100
1, 70320, Note_on_c, 9, 36, 100
1, 70331, Note_on_c, 9, 46, 0
1, 70559, Note_on_c, 9, 36, 0
1, 70560, Note_on_c, 9, 38, 120
1, 70560, Note_on_c, 9, 46, 120
1, 70571, Note_on_c, 9, 46, 0
1, 70799, Note_on_c, 9, 38, 0
1, 70800, Note_on_c, 9, 46, 100
1, 70811, Note_on_c, 9, 46, 0
1, 71040, Note_on_c, 9, 46, 100
1, 71040, Note_on_c, 9, 36, 110
1, 71051, Note_on_c, 9, 46, 0
1, 71279, Note_on_c, 9, 36, 0
1, 71280, Note_on_c, 9, 46, 100
1, 71280, Note_on_c, 9, 36, 100
1, 71291, Note_on_c, 9, 46, 0
1, 71519, Note_on_c, 9, 36, 0
1, 71520, Note_on_c, 9, 38, 120
1, 71520, Note_on_c, 9, 46, 120
1, 71531, Note_on_c, 9, 46, 0
1, 71759, Note_on_c, 9, 38, 0
1, 71760, Note_on_c, 9, 46, 100
1, 71771, Note_on_c, 9, 46, 0
1, 72000, Note_on_c, 9, 46, 100
1, 72000, Note_on_c, 9, 36, 110
1, 72011, Note_on_c, 9, 46, 0
1, 72239, Note_on_c, 9, 36, 0
1, 72240, Note_on_c, 9, 46, 100
1, 72240, Note_on_c, 9, 36, 100
1, 72251, Note_on_c, 9, 46, 0
1, 72479, Note_on_c, 9, 36, 0
1, 72480, Note_on_c, 9, 38, 120
1, 72480, Note_on_c, 9, 46, 120
1, 72491, Note_on_c, 9, 46, 0
1, 72719, Note_on_c, 9, 38, 0
1, 72720, Note_on_c, 9, 46, 100
1, 72731, Note_on_c, 9, 46, 0
1, 72960, Note_on_c, 9, 46, 100
1, 72960, Note_on_c, 9, 36, 110
1, 72971, Note_on_c, 9, 46, 0
1, 73199, Note_on_c, 9, 36, 0
1, 73200, Note_on_c, 9, 46, 100
1, 73200, Note_on_c, 9, 36, 100
1, 73211, Note_on_c, 9, 46, 0
1, 73439, Note_on_c, 9, 36, 0
1, 73440, Note_on_c, 9, 38, 120
1, 73440, Note_on_c, 9, 46, 120
1, 73451, Note_on_c, 9, 46, 0
1, 73679, Note_on_c, 9, 38, 0
1, 73680, Note_on_c, 9, 46, 100
1, 73691, Note_on_c, 9, 46, 0
1, 73920, Note_on_c, 9, 46, 100
1, 73920, Note_on_c, 9, 36, 110
1, 73931, Note_on_c, 9, 46, 0
1, 74159, Note_on_c, 9, 36, 0
1, 74160, Note_on_c, 9, 46, 100
1, 74160, Note_on_c, 9, 36, 100
1, 74171, Note_on_c, 9, 46, 0
1, 74399, Note_on_c, 9, 36, 0
1, 74400, Note_on_c, 9, 38, 120
1, 74400, Note_on_c, 9, 46, 120
1, 74411, Note_on_c, 9, 46, 0
1, 74639, Note_on_c, 9, 38, 0
1, 74640, Note_on_c, 9, 46, 100
1, 74651, Note_on_c, 9, 46, 0
1, 74880, Note_on_c, 9, 46, 100
1, 74880, Note_on_c, 9, 36, 110
1, 74891, Note_on_c, 9, 46, 0
1, 75119, Note_on_c, 9, 36, 0
1, 75120, Note_on_c, 9, 46, 100
1, 75120, Note_on_c, 9, 36, 100
1, 75131, Note_on_c, 9, 46, 0
1, 75359, Note_on_c, 9, 36, 0
1, 75360, Note_on_c, 9, 38, 120
1, 75360, Note_on_c, 9, 46, 120
1, 75371, Note_on_c, 9, 46, 0
1, 75599, Note_on_c, 9, 38, 0
1, 75600, Note_on_c, 9, 46, 100
1, 75611, Note_on_c, 9, 46, 0
1, 75840, Note_on_c, 9, 46, 100
1, 75840, Note_on_c, 9, 36, 110
1, 75851, Note_on_c, 9, 46, 0
1, 76079, Note_on_c, 9, 36, 0
1, 76080, Note_on_c, 9, 46, 100
1, 76080, Note_on_c, 9, 36, 100
1, 76091, Note_on_c, 9, 46, 0
1, 76319, Note_on_c, 9, 36, 0
1, 76320, Note_on_c, 9, 38, 120
1, 76320, Note_on_c, 9, 46, 120
1, 76331, Note_on_c, 9, 46, 0
1, 76559, Note_on_c, 9, 38, 0
1, 76560, Note_on_c, 9, 46, 100
1, 76571, Note_on_c, 9, 46, 0
1, 76800, Note_on_c, 9, 46, 100
1, 76800, Note_on_c, 9, 36, 110
1, 76811, Note_on_c, 9, 46, 0
1, 77039, Note_on_c, 9, 36, 0
1, 77040, Note_on_c, 9, 46, 100
1, 77040, Note_on_c, 9, 36, 100
1, 77051, Note_on_c, 9, 46, 0
1, 77279, Note_on_c, 9, 36, 0
1, 77280, Note_on_c, 9, 38, 120
1, 77280, Note_on_c, 9, 46, 120
1, 77291, Note_on_c, 9, 46, 0
1, 77519, Note_on_c, 9, 38, 0
1, 77520, Note_on_c, 9, 46, 100
1, 77531, Note_on_c, 9, 46, 0
1, 77760, Note_on_c, 9, 46, 100
1, 77760, Note_on_c, 9, 36, 110
1, 77771, Note_on_c, 9, 46, 0
1, 77999, Note_on_c, 9, 36, 0
1, 78000, Note_on_c, 9, 46, 100
1, 78000, Note_on_c, 9, 36, 100
1, 78011, Note_on_c, 9, 46, 0
1, 78239, Note_on_c, 9, 36, 0
1, 78240, Note_on_c, 9, 38, 120
1, 78240, Note_on_c, 9, 46, 120
1, 78251, Note_on_c, 9, 46, 0
1, 78479, Note_on_c, 9, 38, 0
1, 78480, Note_on_c, 9, 46, 100
1, 78491, Note_on_c, 9, 46, 0
1, 78720, Note_on_c, 9, 46, 85
1, 78720, Note_on_c, 9, 36, 85
1, 78731, Note_on_c, 9, 46, 0
1, 78959, Note_on_c, 9, 36, 0
1, 78960, Note_on_c, 9, 46, 90
1, 78960, Note_on_c, 9, 36, 90
1, 78971, Note_on_c, 9, 46, 0
1, 79199, Note_on_c, 9, 36, 0
1, 79200, Note_on_c, 9, 38, 95
1, 79200, Note_on_c, 9, 46, 95
1, 79200, Note_on_c, 9, 36, 95
1, 79211, Note_on_c, 9, 46, 0
1, 79439, Note_on_c, 9, 38, 0
1, 79439, Note_on_c, 9, 36, 0
1, 79440, Note_on_c, 9, 38, 100
1, 79440, Note_on_c, 9, 46, 100
1, 79440, Note_on_c, 9, 36, 100
1, 79451, Note_on_c, 9, 46, 0
1, 79679, Note_on_c, 9, 38, 0
1, 79679, Note_on_c, 9, 36, 0
1, 79680, Note_on_c, 9, 38, 105
1, 79680, Note_on_c, 9, 46, 105
1, 79680, Note_on_c, 9, 36, 105
1, 79691, Note_on_c, 9, 46, 0
1, 79919, Note_on_c, 9, 38, 0
1, 79919, Note_on_c, 9, 36, 0
1, 79920, Note_on_c, 9, 38, 110
1, 79920, Note_on_c, 9, 46, 110
1, 79920, Note_on_c, 9, 36, 110
1, 79931, Note_on_c, 9, 46, 0
1, 80159, Note_on_c, 9, 38, 0
1, 80159, Note_on_c, 9, 36, 0
1, 80160, Note_on_c, 9, 38, 115
1, 80160, Note_on_c, 9, 46, 115
1, 80160, Note_on_c, 9, 36, 115
1, 80171, Note_on_c, 9, 46, 0
1, 80399, Note_on_c, 9, 38, 0
1, 80399, Note_on_c, 9, 36, 0
1, 80400, Note_on_c, 9, 38, 120
1, 80400, Note_on_c, 9, 46, 120
1, 80400, Note_on_c, 9, 36, 120
1, 80411, Note_on_c, 9, 46, 0
1, 80639, Note_on_c, 9, 38, 0
1, 80639, Note_on_c, 9, 36, 0
1, 80640, Note_on_c, 9, 57, 120
1, 80640, Note_on_c, 9, 36, 110
1, 80664, Note_on_c, 9, 57, 0
1, 80879, Note_on_c, 9, 36, 0
1, 80880, Note_on_c, 9, 36, 100
1, 81119, Note_on_c, 9, 36, 0
1, 81120, Note_on_c, 9, 38, 120
1, 81120, Note_on_c, 9, 57, 120
1, 81131, Note_on_c, 9, 57, 0
1, 81359, Note_on_c, 9, 38, 0
1, 81360, Note_on_c, 9, 51, 100
1, 81371, Note_on_c, 9, 51, 0
1, 81600, Note_on_c, 9, 51, 100
1, 81600, Note_on_c, 9, 36, 110
1, 81611, Note_on_c, 9, 51, 0
1, 81839, Note_on_c, 9, 36, 0
1, 81840, Note_on_c, 9, 51, 100
1, 81840, Note_on_c, 9, 36, 100
1, 81851, Note_on_c, 9, 51, 0
1, 82079, Note_on_c, 9, 36, 0
1, 82080, Note_on_c, 9, 38, 120
1, 82080, Note_on_c, 9, 51, 120
1, 82091, Note_on_c, 9, 51, 0
1, 82319, Note_on_c, 9, 38, 0
1, 82320, Note_on_c, 9, 51, 100
1, 82331, Note_on_c, 9, 51, 0
1, 82560, Note_on_c, 9, 51, 100
1, 82560, Note_on_c, 9, 36, 110
1, 82571, Note_on_c, 9, 51, 0
1, 82799, Note_on_c, 9, 36, 0
1, 82800, Note_on_c, 9, 51, 100
1, 82800, Note_on_c, 9, 36, 100
1, 82811, Note_on_c, 9, 51, 0
1, 83039, Note_on_c, 9, 36, 0
1, 83040, Note_on_c, 9, 38, 120
1, 83040, Note_on_c, 9, 51, 120
1, 83051, Note_on_c, 9, 51, 0
1, 83279, Note_on_c, 9, 38, 0
1, 83280, Note_on_c, 9, 51, 100
1, 83291, Note_on_c, 9, 51, 0
1, 83520, Note_on_c, 9, 51, 100
1, 83520, Note_on_c, 9, 36, 110
1, 83531, Note_on_c, 9, 51, 0
1, 83759, Note_on_c, 9, 36, 0
1, 83760, Note_on_c, 9, 51, 100
1, 83760, Note_on_c, 9, 36, 100
1, 83771, Note_on_c, 9, 51, 0
1, 83999, Note_on_c, 9, 36, 0
1, 84000, Note_on_c, 9, 38, 120
1, 84000, Note_on_c, 9, 51, 120
1, 84011, Note_on_c, 9, 51, 0
1, 84239, Note_on_c, 9, 38, 0
1, 84240, Note_on_c, 9, 51, 100
1, 84251, Note_on_c, 9, 51, 0
1, 84480, Note_on_c, 9, 57, 120
1, 84480, Note_on_c, 9, 36, 110
1, 84504, Note_on_c, 9, 57, 0
1, 84719, Note_on_c, 9, 36, 0
1, 84720, Note_on_c, 9, 36, 100
1, 84959, Note_on_c, 9, 36, 0
1, 84960, Note_on_c, 9, 38, 120
1, 84960, Note_on_c, 9, 57, 120
1, 84971, Note_on_c, 9, 57, 0
1, 85199, Note_on_c, 9, 38, 0
1, 85200, Note_on_c, 9, 51, 100
1, 85211, Note_on_c, 9, 51, 0
1, 85440, Note_on_c, 9, 51, 100
1, 85440, Note_on_c, 9, 36, 110
1, 85451, Note_on_c, 9, 51, 0
1, 85679, Note_on_c, 9, 36, 0
1, 85680, Note_on_c, 9, 51, 100
1, 85680, Note_on_c, 9, 36, 100
1, 85691, Note_on_c, 9, 51, 0
1, 85919, Note_on_c, 9, 36, 0
1, 85920, Note_on_c, 9, 38, 120
1, 85920, Note_on_c, 9, 51, 120
1, 85931, Note_on_c, 9, 51, 0
1, 86159, Note_on_c, 9, 38, 0
1, 86160, Note_on_c, 9, 51, 100
1, 86171, Note_on_c, 9, 51, 0
1, 86400, Note_on_c, 9, 51, 100
1, 86400, Note_on_c, 9, 36, 110
1, 86411, Note_on_c, 9, 51, 0
1, 86639, Note_on_c, 9, 36, 0
1, 86640, Note_on_c, 9, 51, 100
1, 86640, Note_on_c, 9, 36, 100
1, 86651, Note_on_c, 9, 51, 0
1, 86879, Note_on_c, 9, 36, 0
1, 86880, Note_on_c, 9, 38, 120
1, 86880, Note_on_c, 9, 51, 120
1, 86891, Note_on_c, 9, 51, 0
1, 87119, Note_on_c, 9, 38, 0
1, 87120, Note_on_c, 9, 51, 100
1, 87131, Note_on_c, 9, 51, 0
1, 87360, Note_on_c, 9, 51, 100
1, 87360, Note_on_c, 9, 36, 110
1, 87371, Note_on_c, 9, 51, 0
1, 87599, Note_on_c, 9, 36, 0
1, 87600, Note_on_c, 9, 51, 100
1, 87600, Note_on_c, 9, 36, 100
1, 87611, Note_on_c, 9, 51, 0
1, 87839, Note_on_c, 9, 36, 0
1, 87840, Note_on_c, 9, 38, 120
1, 87959, Note_on_c, 9, 38, 0
1, 87960, Note_on_c, 9, 38, 100
1, 88079, Note_on_c, 9, 38, 0
1, 88080, Note_on_c, 9, 51, 100
1, 88091, Note_on_c, 9, 51, 0
1, 88320, Note_on_c, 9, 57, 120
1, 88320, Note_on_c, 9, 36, 110
1, 88344, Note_on_c, 9, 57, 0
1, 88559, Note_on_c, 9, 36, 0
1, 88560, Note_on_c, 9, 36, 100
1, 88799, Note_on_c, 9, 36, 0
1, 88800, Note_on_c, 9, 38, 120
1, 88800, Note_on_c, 9, 57, 120
1, 88811, Note_on_c, 9, 57, 0
1, 89039, Note_on_c, 9, 38, 0
1, 89040, Note_on_c, 9, 51, 100
1, 89051, Note_on_c, 9, 51, 0
1, 89280, Note_on_c, 9, 51, 100
1, 89280, Note_on_c, 9, 36, 110
1, 89291, Note_on_c, 9, 51, 0
1, 89519, Note_on_c, 9, 36, 0
1, 89520, Note_on_c, 9, 51, 100
1, 89520, Note_on_c, 9, 36, 100
1, 89531, Note_on_c, 9, 51, 0
1, 89759, Note_on_c, 9, 36, 0
1, 89760, Note_on_c, 9, 38, 120
1, 89760, Note_on_c, 9, 51, 120
1, 89771, Note_on_c, 9, 51, 0
1, 89999, Note_on_c, 9, 38, 0
1, 90000, Note_on_c, 9, 51, 100
1, 90011, Note_on_c, 9, 51, 0
1, 90240, Note_on_c, 9, 51, 100
1, 90240, Note_on_c, 9, 36, 110
1, 90251, Note_on_c, 9, 51, 0
1, 90479, Note_on_c, 9, 36, 0
1, 90480, Note_on_c, 9, 51, 100
1, 90480, Note_on_c, 9, 36, 100
1, 90491, Note_on_c, 9, 51, 0
1, 90719, Note_on_c, 9, 36, 0
1, 90720, Note_on_c, 9, 38, 120
1, 90720, Note_on_c, 9, 51, 120
1, 90731, Note_on_c, 9, 51, 0
1, 90959, Note_on_c, 9, 38, 0
1, 90960, Note_on_c, 9, 51, 100
1, 90971, Note_on_c, 9, 51, 0
1, 91200, Note_on_c, 9, 51, 100
1, 91200, Note_on_c, 9, 36, 110
1, 91211, Note_on_c, 9, 51, 0
1, 91439, Note_on_c, 9, 36, 0
1, 91440, Note_on_c, 9, 51, 100
1, 91440, Note_on_c, 9, 36, 100
1, 91451, Note_on_c, 9, 51, 0
1, 91679, Note_on_c, 9, 36, 0
1, 91680, Note_on_c, 9, 38, 120
1, 91680, Note_on_c, 9, 51, 120
1, 91691, Note_on_c, 9, 51, 0
1, 91919, Note_on_c, 9, 38, 0
1, 91920, Note_on_c, 9, 51, 100
1, 91931, Note_on_c, 9, 51, 0
1, 92160, Note_on_c, 9, 51, 100
1, 92160, Note_on_c, 9, 36, 110
1, 92171, Note_on_c, 9, 51, 0
1, 92399, Note_on_c, 9, 36, 0
1, 92400, Note_on_c, 9, 51, 100
1, 92400, Note_on_c, 9, 36, 100
1, 92411, Note_on_c, 9, 51, 0
1, 92639, Note_on_c, 9, 36, 0
1, 92640, Note_on_c, 9, 38, 120
1, 92640, Note_on_c, 9, 51, 120
1, 92651, Note_on_c, 9, 51, 0
1, 92879, Note_on_c, 9, 38, 0
1, 92880, Note_on_c, 9, 51, 100
1, 92891, Note_on_c, 9, 51, 0
1, 93120, Note_on_c, 9, 51, 100
1, 93120, Note_on_c, 9, 36, 110
1, 93131, Note_on_c, 9, 51, 0
1, 93359, Note_on_c, 9, 36, 0
1, 93360, Note_on_c, 9, 51, 100
1, 93360, Note_on_c, 9, 36, 100
1, 93371, Note_on_c, 9, 51, 0
1, 93599, Note_on_c, 9, 36, 0
1, 93600, Note_on_c, 9, 38, 120
1, 93600, Note_on_c, 9, 57, 120
1, 93611, Note_on_c, 9, 57, 0
1, 93839, Note_on_c, 9, 38, 0
1, 93840, Note_on_c, 9, 51, 100
1, 93851, Note_on_c, 9, 51, 0
1, 94080, Note_on_c, 9, 51, 100
1, 94080, Note_on_c, 9, 36, 110
1, 94091, Note_on_c, 9, 51, 0
1, 94319, Note_on_c, 9, 36, 0
1, 94320, Note_on_c, 9, 51, 100
1, 94320, Note_on_c, 9, 36, 100
1, 94331, Note_on_c, 9, 51, 0
1, 94559, Note_on_c, 9, 36, 0
1, 94560, Note_on_c, 9, 38, 120
1, 94560, Note_on_c, 9, 51, 120
1, 94571, Note_on_c, 9, 51, 0
1, 94799, Note_on_c, 9, 38, 0
1, 94800, Note_on_c, 9, 51, 100
1, 94811, Note_on_c, 9, 51, 0
1, 95040, Note_on_c, 9, 51, 100
1, 95040, Note_on_c, 9, 36, 110
1, 95045, Note_on_c, 9, 51, 0
1, 95160, Note_on_c, 9, 38, 90
1, 95279, Note_on_c, 9, 38, 0
1, 95280, Note_on_c, 9, 38, 95
1, 95399, Note_on_c, 9, 38, 0
1, 95400, Note_on_c, 9, 38, 100
1, 95519, Note_on_c, 9, 36, 0
1, 95519, Note_on_c, 9, 38, 0
1, 95520, Note_on_c, 9, 38, 105
1, 95639, Note_on_c, 9, 38, 0
1, 95640, Note_on_c, 9, 38, 110
1, 95759, Note_on_c, 9, 38, 0
1, 95760, Note_on_c, 9, 38, 115
1, 95879, Note_on_c, 9, 38, 0
1, 95880, Note_on_c, 9, 38, 120
1, 95999, Note_on_c, 9, 38, 0
1, 96000, Note_on_c, 9, 57, 120
1, 96000, Note_on_c, 9, 36, 110
1, 96024, Note_on_c, 9, 57, 0
1, 96239, Note_on_c, 9, 36, 0
1, 96240, Note_on_c, 9, 36, 100
1, 96479, Note_on_c, 9, 36, 0
1, 96480, Note_on_c, 9, 38, 120
1, 96480, Note_on_c, 9, 57, 120
1, 96491, Note_on_c, 9, 57, 0
1, 96719, Note_on_c, 9, 38, 0
1, 96720, Note_on_c, 9, 51, 100
1, 96731, Note_on_c, 9, 51, 0
1, 96960, Note_on_c, 9, 51, 100
1, 96960, Note_on_c, 9, 36, 110
1, 96971, Note_on_c, 9, 51, 0
1, 97199, Note_on_c, 9, 36, 0
1, 97200, Note_on_c, 9, 51, 100
1, 97200, Note_on_c, 9, 36, 100
1, 97211, Note_on_c, 9, 51, 0
1, 97439, Note_on_c, 9, 36, 0
1, 97440, Note_on_c, 9, 38, 120
1, 97440, Note_on_c, 9, 51, 120
1, 97451, Note_on_c, 9, 51, 0
1, 97679, Note_on_c, 9, 38, 0
1, 97680, Note_on_c, 9, 51, 100
1, 97691, Note_on_c, 9, 51, 0
1, 97920, Note_on_c, 9, 51, 100
1, 97920, Note_on_c, 9, 36, 110
1, 97931, Note_on_c, 9, 51, 0
1, 98159, Note_on_c, 9, 36, 0
1, 98160, Note_on_c, 9, 51, 100
1, 98160, Note_on_c, 9, 36, 100
1, 98171, Note_on_c, 9, 51, 0
1, 98399, Note_on_c, 9, 36, 0
1, 98400, Note_on_c, 9, 38, 120
1, 98400, Note_on_c, 9, 51, 120
1, 98411, Note_on_c, 9, 51, 0
1, 98639, Note_on_c, 9, 38, 0
1, 98640, Note_on_c, 9, 51, 100
1, 98651, Note_on_c, 9, 51, 0
1, 98880, Note_on_c, 9, 51, 100
1, 98880, Note_on_c, 9, 36, 110
1, 98891, Note_on_c, 9, 51, 0
1, 99119, Note_on_c, 9, 36, 0
1, 99120, Note_on_c, 9, 51, 100
1, 99120, Note_on_c, 9, 36, 100
1, 99131, Note_on_c, 9, 51, 0
1, 99359, Note_on_c, 9, 36, 0
1, 99360, Note_on_c, 9, 38, 120
1, 99360, Note_on_c, 9, 51, 120
1, 99371, Note_on_c, 9, 51, 0
1, 99599, Note_on_c, 9, 38, 0
1, 99600, Note_on_c, 9, 51, 100
1, 99611, Note_on_c, 9, 51, 0
1, 99840, Note_on_c, 9, 51, 100
1, 99840, Note_on_c, 9, 36, 110
1, 99851, Note_on_c, 9, 51, 0
1, 100079, Note_on_c, 9, 36, 0
1, 100080, Note_on_c, 9, 51, 100
1, 100080, Note_on_c, 9, 36, 100
1, 100091, Note_on_c, 9, 51, 0
1, 100319, Note_on_c, 9, 36, 0
1, 100320, Note_on_c, 9, 38, 120
1, 100320, Note_on_c, 9, 51, 120
1, 100331, Note_on_c, 9, 51, 0
1, 100559, Note_on_c, 9, 38, 0
1, 100560, Note_on_c, 9, 51, 100
1, 100571, Note_on_c, 9, 51, 0
1, 100800, Note_on_c, 9, 51, 100
1, 100800, Note_on_c, 9, 36, 110
1, 100811, Note_on_c, 9, 51, 0
1, 101039, Note_on_c, 9, 36, 0
1, 101040, Note_on_c, 9, 51, 100
1, 101040, Note_on_c, 9, 36, 100
1, 101051, Note_on_c, 9, 51, 0
1, 101279, Note_on_c, 9, 36, 0
1, 101280, Note_on_c, 9, 38, 120
1, 101280, Note_on_c, 9, 51, 120
1, 101291, Note_on_c, 9, 51, 0
1, 101519, Note_on_c, 9, 38, 0
1, 101520, Note_on_c, 9, 51, 100
1, 101531, Note_on_c, 9, 51, 0
1, 101760, Note_on_c, 9, 51, 100
1, 101760, Note_on_c, 9, 36, 110
1, 101771, Note_on_c, 9, 51, 0
1, 101999, Note_on_c, 9, 36, 0
1, 102000, Note_on_c, 9, 51, 100
1, 102000, Note_on_c, 9, 36, 100
1, 102011, Note_on_c, 9, 51, 0
1, 102239, Note_on_c, 9, 36, 0
1, 102240, Note_on_c, 9, 38, 120
1, 102240, Note_on_c, 9, 51, 120
1, 102251, Note_on_c, 9, 51, 0
1, 102479, Note_on_c, 9, 38, 0
1, 102480, Note_on_c, 9, 51, 100
1, 102491, Note_on_c, 9, 51, 0
1, 102720, Note_on_c, 9, 51, 100
1, 102720, Note_on_c, 9, 36, 110
1, 102731, Note_on_c, 9, 51, 0
1, 102959, Note_on_c, 9, 36, 0
1, 102960, Note_on_c, 9, 51, 100
1, 102960, Note_on_c, 9, 36, 100
1, 102971, Note_on_c, 9, 51, 0
1, 103199, Note_on_c, 9, 36, 0
1, 103200, Note_on_c, 9, 38, 120
1, 103200, Note_on_c, 9, 51, 120
1, 103211, Note_on_c, 9, 51, 0
1, 103439, Note_on_c, 9, 38, 0
1, 103440, Note_on_c, 9, 51, 100
1, 103451, Note_on_c, 9, 51, 0
1, 103680, Note_on_c, 9, 51, 100
1, 103680, Note_on_c, 9, 36, 110
1, 103691, Note_on_c, 9, 51, 0
1, 103919, Note_on_c, 9, 36, 0
1, 103920, Note_on_c, 9, 51, 100
1, 103920, Note_on_c, 9, 36, 100
1, 103931, Note_on_c, 9, 51, 0
1, 104159, Note_on_c, 9, 36, 0
1, 104160, Note_on_c, 9, 38, 120
1, 104160, Note_on_c, 9, 51, 120
1, 104171, Note_on_c, 9, 51, 0
1, 104399, Note_on_c, 9, 38, 0
1, 104400, Note_on_c, 9, 51, 100
1, 104411, Note_on_c, 9, 51, 0
1, 104640, Note_on_c, 9, 51, 100
1, 104640, Note_on_c, 9, 36, 110
1, 104651, Note_on_c, 9, 51, 0
1, 104879, Note_on_c, 9, 36, 0
1, 104880, Note_on_c, 9, 51, 100
1, 104880, Note_on_c, 9, 36, 100
1, 104891, Note_on_c, 9, 51, 0
1, 105119, Note_on_c, 9, 36, 0
1, 105120, Note_on_c, 9, 38, 120
1, 105120, Note_on_c, 9, 51, 120
1, 105131, Note_on_c, 9, 51, 0
1, 105359, Note_on_c, 9, 38, 0
1, 105360, Note_on_c, 9, 51, 100
1, 105371, Note_on_c, 9, 51, 0
1, 105600, Note_on_c, 9, 51, 100
1, 105600, Note_on_c, 9, 36, 110
1, 105611, Note_on_c, 9, 51, 0
1, 105839, Note_on_c, 9, 36, 0
1, 105840, Note_on_c, 9, 51, 100
1, 105840, Note_on_c, 9, 36, 100
1, 105851, Note_on_c, 9, 51, 0
1, 106079, Note_on_c, 9, 36, 0
1, 106080, Note_on_c, 9, 38, 120
1, 106080, Note_on_c, 9, 51, 120
1, 106091, Note_on_c, 9, 51, 0
1, 106319, Note_on_c, 9, 38, 0
1, 106320, Note_on_c, 9, 51, 100
1, 106331, Note_on_c, 9, 51, 0
1, 106560, Note_on_c, 9, 51, 100
1, 106560, Note_on_c, 9, 36, 110
1, 106571, Note_on_c, 9, 51, 0
1, 106799, Note_on_c, 9, 36, 0
1, 106800, Note_on_c, 9, 51, 100
1, 106800, Note_on_c, 9, 36, 100
1, 106811, Note_on_c, 9, 51, 0
1, 107039, Note_on_c, 9, 36, 0
1, 107040, Note_on_c, 9, 38, 120
1, 107040, Note_on_c, 9, 51, 120
1, 107051, Note_on_c, 9, 51, 0
1, 107279, Note_on_c, 9, 38, 0
1, 107280, Note_on_c, 9, 51, 100
1, 107291, Note_on_c, 9, 51, 0
1, 107520, Note_on_c, 9, 57, 120
1, 107520, Note_on_c, 9, 36, 110
1, 107531, Note_on_c, 9, 57, 0
1, 107759, Note_on_c, 9, 36, 0
1, 107760, Note_on_c, 9, 51, 100
1, 107760, Note_on_c, 9, 36, 100
1, 107771, Note_on_c, 9, 51, 0
1, 107999, Note_on_c, 9, 36, 0
1, 108000, Note_on_c, 9, 38, 120
1, 108000, Note_on_c, 9, 51, 120
1, 108011, Note_on_c, 9, 51, 0
1, 108239, Note_on_c, 9, 38, 0
1, 108240, Note_on_c, 9, 51, 100
1, 108251, Note_on_c, 9, 51, 0
1, 108480, Note_on_c, 9, 51, 100
1, 108480, Note_on_c, 9, 36, 110
1, 108491, Note_on_c, 9, 51, 0
1, 108719, Note_on_c, 9, 36, 0
1, 108720, Note_on_c, 9, 51, 100
1, 108720, Note_on_c, 9, 36, 100
1, 108731, Note_on_c, 9, 51, 0
1, 108959, Note_on_c, 9, 36, 0
1, 108960, Note_on_c, 9, 38, 120
1, 108960, Note_on_c, 9, 51, 120
1, 108971, Note_on_c, 9, 51, 0
1, 109199, Note_on_c, 9, 38, 0
1, 109200, Note_on_c, 9, 51, 100
1, 109211, Note_on_c, 9, 51, 0
1, 109440, Note_on_c, 9, 51, 85
1, 109440, Note_on_c, 9, 36, 85
1, 109451, Note_on_c, 9, 51, 0
1, 109679, Note_on_c, 9, 36, 0
1, 109680, Note_on_c, 9, 51, 90
1, 109680, Note_on_c, 9, 36, 90
1, 109691, Note_on_c, 9, 51, 0
1, 109919, Note_on_c, 9, 36, 0
1, 109920, Note_on_c, 9, 38, 95
1, 109920, Note_on_c, 9, 51, 95
1, 109920, Note_on_c, 9, 36, 95
1, 109931, Note_on_c, 9, 51, 0
1, 110159, Note_on_c, 9, 38, 0
1, 110159, Note_on_c, 9, 36, 0
1, 110160, Note_on_c, 9, 38, 100
1, 110160, Note_on_c, 9, 51, 100
1, 110160, Note_on_c, 9, 36, 100
1, 110171, Note_on_c, 9, 51, 0
1, 110399, Note_on_c, 9, 38, 0
1, 110399, Note_on_c, 9, 36, 0
1, 110400, Note_on_c, 9, 38, 105
1, 110400, Note_on_c, 9, 51, 105
1, 110400, Note_on_c, 9, 36, 105
1, 110411, Note_on_c, 9, 51, 0
1, 110639, Note_on_c, 9, 38, 0
1, 110639, Note_on_c, 9, 36, 0
1, 110640, Note_on_c, 9, 38, 110
1, 110640, Note_on_c, 9, 51, 110
1, 110640, Note_on_c, 9, 36, 110
1, 110651, Note_on_c, 9, 51, 0
1, 110879, Note_on_c, 9, 38, 0
1, 110879, Note_on_c, 9, 36, 0
1, 110880, Note_on_c, 9, 38, 115
1, 110880, Note_on_c, 9, 51, 115
1, 110880, Note_on_c, 9, 36, 115
1, 110891, Note_on_c, 9, 51, 0
1, 111119, Note_on_c, 9, 38, 0
1, 111119, Note_on_c, 9, 36, 0
1, 111120, Note_on_c, 9, 38, 120
1, 111120, Note_on_c, 9, 51, 120
1, 111120, Note_on_c, 9, 36, 120
1, 111131, Note_on_c, 9, 51, 0
1, 111359, Note_on_c, 9, 38, 0
1, 111359, Note_on_c, 9, 36, 0
1, 111360, Note_on_c, 9, 57, 120
1, 111360, Note_on_c, 9, 36, 110
1, 111384, Note_on_c, 9, 57, 0
1, 111599, Note_on_c, 9, 36, 0
1, 111600, Note_on_c, 9, 36, 100
1, 111839, Note_on_c, 9, 36, 0
1, 111840, Note_on_c, 9, 38, 120
1, 111840, Note_on_c, 9, 57, 120
1, 111851, Note_on_c, 9, 57, 0
1, 112079, Note_on_c, 9, 38, 0
1, 112080, Note_on_c, 9, 51, 100
1, 112091, Note_on_c, 9, 51, 0
1, 112320, Note_on_c, 9, 51, 100
1, 112320, Note_on_c, 9, 36, 110
1, 112331, Note_on_c, 9, 51, 0
1, 112559, Note_on_c, 9, 36, 0
1, 112560, Note_on_c, 9, 51, 100
1, 112560, Note_on_c, 9, 36, 100
1, 112571, Note_on_c, 9, 51, 0
1, 112799, Note_on_c, 9, 36, 0
1, 112800, Note_on_c, 9, 38, 120
1, 112800, Note_on_c, 9, 57, 120
1, 112811, Note_on_c, 9, 57, 0
1, 113039, Note_on_c, 9, 38, 0
1, 113040, Note_on_c, 9, 51, 100
1, 113051, Note_on_c, 9, 51, 0
1, 113280, Note_on_c, 9, 51, 100
1, 113280, Note_on_c, 9, 36, 110
1, 113291, Note_on_c, 9, 51, 0
1, 113519, Note_on_c, 9, 36, 0
1, 113520, Note_on_c, 9, 51, 100
1, 113520, Note_on_c, 9, 36, 100
1, 113531, Note_on_c, 9, 51, 0
1, 113759, Note_on_c, 9, 36, 0
1, 113760, Note_on_c, 9, 38, 120
1, 113760, Note_on_c, 9, 51, 120
1, 113771, Note_on_c, 9, 51, 0
1, 113999, Note_on_c, 9, 38, 0
1, 114000, Note_on_c, 9, 51, 100
1, 114011, Note_on_c, 9, 51, 0
1, 114240, Note_on_c, 9, 51, 100
1, 114240, Note_on_c, 9, 36, 110
1, 114251, Note_on_c, 9, 51, 0
1, 114479, Note_on_c, 9, 36, 0
1, 114480, Note_on_c, 9, 51, 100
1, 114480, Note_on_c, 9, 36, 100
1, 114491, Note_on_c, 9, 51, 0
1, 114719, Note_on_c, 9, 36, 0
1, 114720, Note_on_c, 9, 38, 120
1, 114720, Note_on_c, 9, 51, 120
1, 114731, Note_on_c, 9, 51, 0
1, 114959, Note_on_c, 9, 38, 0
1, 114960, Note_on_c, 9, 51, 100
1, 114971, Note_on_c, 9, 51, 0
1, 115200, Note_on_c, 9, 57, 120
1, 115200, Note_on_c, 9, 36, 110
1, 115224, Note_on_c, 9, 57, 0
1, 115439, Note_on_c, 9, 36, 0
1, 115440, Note_on_c, 9, 36, 100
1, 115679, Note_on_c, 9, 36, 0
1, 115680, Note_on_c, 9, 38, 120
1, 115680, Note_on_c, 9, 57, 120
1, 115691, Note_on_c, 9, 57, 0
1, 115919, Note_on_c, 9, 38, 0
1, 115920, Note_on_c, 9, 51, 100
1, 115931, Note_on_c, 9, 51, 0
1, 116160, Note_on_c, 9, 51, 100
1, 116160, Note_on_c, 9, 36, 110
1, 116171, Note_on_c, 9, 51, 0
1, 116399, Note_on_c, 9, 36, 0
1, 116400, Note_on_c, 9, 51, 100
1, 116400, Note_on_c, 9, 36, 100
1, 116411, Note_on_c, 9, 51, 0
1, 116639, Note_on_c, 9, 36, 0
1, 116640, Note_on_c, 9, 38, 120
1, 116640, Note_on_c, 9, 57, 120
1, 116651, Note_on_c, 9, 57, 0
1, 116879, Note_on_c, 9, 38, 0
1, 116880, Note_on_c, 9, 51, 100
1, 116891, Note_on_c, 9, 51, 0
1, 117120, Note_on_c, 9, 51, 100
1, 117120, Note_on_c, 9, 36, 110
1, 117131, Note_on_c, 9, 51, 0
1, 117359, Note_on_c, 9, 36, 0
1, 117360, Note_on_c, 9, 51, 100
1, 117360, Note_on_c, 9, 36, 100
1, 117371, Note_on_c, 9, 51, 0
1, 117599, Note_on_c, 9, 36, 0
1, 117600, Note_on_c, 9, 38, 120
1, 117600, Note_on_c, 9, 51, 120
1, 117611, Note_on_c, 9, 51, 0
1, 117839, Note_on_c, 9, 38, 0
1, 117840, Note_on_c, 9, 51, 100
1, 117851, Note_on_c, 9, 51, 0
1, 118080, Note_on_c, 9, 51, 100
1, 118080, Note_on_c, 9, 36, 110
1, 118091, Note_on_c, 9, 51, 0
1, 118319, Note_on_c, 9, 36, 0
1, 118320, Note_on_c, 9, 51, 100
1, 118320, Note_on_c, 9, 36, 100
1, 118331, Note_on_c, 9, 51, 0
1, 118559, Note_on_c, 9, 36, 0
1, 118560, Note_on_c, 9, 38, 120
1, 118560, Note_on_c, 9, 51, 120
1, 118571, Note_on_c, 9, 51, 0
1, 118799, Note_on_c, 9, 38, 0
1, 118800, Note_on_c, 9, 51, 100
1, 118811, Note_on_c, 9, 51, 0
1, 119040, Note_on_c, 9, 57, 120
1, 119040, Note_on_c, 9, 36, 110
1, 119064, Note_on_c, 9, 57, 0
1, 119279, Note_on_c, 9, 36, 0
1, 119280, Note_on_c, 9, 36, 100
1, 119519, Note_on_c, 9, 36, 0
1, 119520, Note_on_c, 9, 38, 120
1, 119520, Note_on_c, 9, 57, 120
1, 119531, Note_on_c, 9, 57, 0
1, 119759, Note_on_c, 9, 38, 0
1, 119760, Note_on_c, 9, 51, 100
1, 119771, Note_on_c, 9, 51, 0
1, 120000, Note_on_c, 9, 51, 100
1, 120000, Note_on_c, 9, 36, 110
1, 120011, Note_on_c, 9, 51, 0
1, 120239, Note_on_c, 9, 36, 0
1, 120240, Note_on_c, 9, 51, 100
1, 120240, Note_on_c, 9, 36, 100
1, 120251, Note_on_c, 9, 51, 0
1, 120479, Note_on_c, 9, 36, 0
1, 120480, Note_on_c, 9, 38, 120
1, 120480, Note_on_c, 9, 57, 120
1, 120491, Note_on_c, 9, 57, 0
1, 120719, Note_on_c, 9, 38, 0
1, 120720, Note_on_c, 9, 51, 100
1, 120731, Note_on_c, 9, 51, 0
1, 120960, Note_on_c, 9, 51, 100
1, 120960, Note_on_c, 9, 36, 110
1, 120971, Note_on_c, 9, 51, 0
1, 121199, Note_on_c, 9, 36, 0
1, 121200, Note_on_c, 9, 51, 100
1, 121200, Note_on_c, 9, 36, 100
1, 121211, Note_on_c, 9, 51, 0
1, 121439, Note_on_c, 9, 36, 0
1, 121440, Note_on_c, 9, 38, 120
1, 121440, Note_on_c, 9, 51, 120
1, 121451, Note_on_c, 9, 51, 0
1, 121679, Note_on_c, 9, 38, 0
1, 121680, Note_on_c, 9, 51, 100
1, 121691, Note_on_c, 9, 51, 0
1, 121920, Note_on_c, 9, 51, 100
1, 121920, Note_on_c, 9, 36, 110
1, 121931, Note_on_c, 9, 51, 0
1, 122159, Note_on_c, 9, 36, 0
1, 122160, Note_on_c, 9, 51, 100
1, 122160, Note_on_c, 9, 36, 100
1, 122171, Note_on_c, 9, 51, 0
1, 122399, Note_on_c, 9, 36, 0
1, 122400, Note_on_c, 9, 38, 120
1, 122400, Note_on_c, 9, 51, 120
1, 122411, Note_on_c, 9, 51, 0
1, 122639, Note_on_c, 9, 38, 0
1, 122640, Note_on_c, 9, 51, 100
1, 122651, Note_on_c, 9, 51, 0
1, 122880, Note_on_c, 9, 57, 120
1, 122880, Note_on_c, 9, 36, 110
1, 122904, Note_on_c, 9, 57, 0
1, 123119, Note_on_c, 9, 36, 0
1, 123120, Note_on_c, 9, 36, 100
1, 123359, Note_on_c, 9, 36, 0
1, 123360, Note_on_c, 9, 38, 120
1, 123360, Note_on_c, 9, 57, 120
1, 123371, Note_on_c, 9, 57, 0
1, 123599, Note_on_c, 9, 38, 0
1, 123600, Note_on_c, 9, 51, 100
1, 123611, Note_on_c, 9, 51, 0
1, 123840, Note_on_c, 9, 51, 100
1, 123840, Note_on_c, 9, 36, 110
1, 123851, Note_on_c, 9, 51, 0
1, 124079, Note_on_c, 9, 36, 0
1, 124080, Note_on_c, 9, 51, 100
1, 124080, Note_on_c, 9, 36, 100
1, 124091, Note_on_c, 9, 51, 0
1, 124319, Note_on_c, 9, 36, 0
1, 124320, Note_on_c, 9, 38, 120
1, 124320, Note_on_c, 9, 57, 120
1, 124331, Note_on_c, 9, 57, 0
1, 124559, Note_on_c, 9, 38, 0
1, 124560, Note_on_c, 9, 51, 100
1, 124571, Note_on_c, 9, 51, 0
1, 124800, Note_on_c, 9, 51, 100
1, 124800, Note_on_c, 9, 36, 110
1, 124811, Note_on_c, 9, 51, 0
1, 125039, Note_on_c, 9, 36, 0
1, 125040, Note_on_c, 9, 51, 100
1, 125040, Note_on_c, 9, 36, 100
1, 125051, Note_on_c, 9, 51, 0
1, 125279, Note_on_c, 9, 36, 0
1, 125280, Note_on_c, 9, 38, 120
1, 125280, Note_on_c, 9, 51, 120
1, 125291, Note_on_c, 9, 51, 0
1, 125519, Note_on_c, 9, 38, 0
1, 125520, Note_on_c, 9, 51, 100
1, 125531, Note_on_c, 9, 51, 0
1, 125760, Note_on_c, 9, 51, 100
1, 125760, Note_on_c, 9, 36, 110
1, 125771, Note_on_c, 9, 51, 0
1, 125999, Note_on_c, 9, 36, 0
1, 126000, Note_on_c, 9, 51, 100
1, 126000, Note_on_c, 9, 36, 100
1, 126011, Note_on_c, 9, 51, 0
1, 126239, Note_on_c, 9, 36, 0
1, 126240, Note_on_c, 9, 38, 120
1, 126240, Note_on_c, 9, 51, 120
1, 126251, Note_on_c, 9, 51, 0
1, 126479, Note_on_c, 9, 38, 0
1, 126480, Note_on_c, 9, 51, 100
1, 126491, Note_on_c, 9, 51, 0
1, 126720, Note_on_c, 9, 42, 100
1, 126720, Note_on_c, 9, 36, 110
1, 126744, Note_on_c, 9, 42, 0
1, 127199, Note_on_c, 9, 36, 0
1, 127200, Note_on_c, 9, 38, 120
1, 127200, Note_on_c, 9, 42, 120
1, 127211, Note_on_c, 9, 42, 0
1, 127439, Note_on_c, 9, 38, 0
1, 127440, Note_on_c, 9, 42, 100
1, 127451, Note_on_c, 9, 42, 0
1, 127680, Note_on_c, 9, 42, 100
1, 127680, Note_on_c, 9, 36, 110
1, 127691, Note_on_c, 9, 42, 0
1, 127919, Note_on_c, 9, 36, 0
1, 127920, Note_on_c, 9, 42, 100
1, 127920, Note_on_c, 9, 36, 100
1, 127931, Note_on_c, 9, 42, 0
1, 128159, Note_on_c, 9, 36, 0
1, 128160, Note_on_c, 9, 38, 120
1, 128160, Note_on_c, 9, 42, 120
1, 128171, Note_on_c, 9, 42, 0
1, 128399, Note_on_c, 9, 38, 0
1, 128400, Note_on_c, 9, 42, 100
1, 128411, Note_on_c, 9, 42, 0
1, 128640, Note_on_c, 9, 42, 100
1, 128640, Note_on_c, 9, 36, 110
1, 128651, Note_on_c, 9, 42, 0
1, 128879, Note_on_c, 9, 36, 0
1, 128880, Note_on_c, 9, 42, 100
1, 128880, Note_on_c, 9, 36, 100
1, 128891, Note_on_c, 9, 42, 0
1, 129119, Note_on_c, 9, 36, 0
1, 129120, Note_on_c, 9, 38, 120
1, 129120, Note_on_c, 9, 42, 120
1, 129131, Note_on_c, 9, 42, 0
1, 129359, Note_on_c, 9, 38, 0
1, 129360, Note_on_c, 9, 42, 100
1, 129371, Note_on_c, 9, 42, 0
1, 129600, Note_on_c, 9, 42, 100
1, 129600, Note_on_c, 9, 36, 110
1, 129611, Note_on_c, 9, 42, 0
1, 129839, Note_on_c, 9, 36, 0
1, 129840, Note_on_c, 9, 42, 100
1, 129840, Note_on_c, 9, 36, 100
1, 129851, Note_on_c, 9, 42, 0
1, 130079, Note_on_c, 9, 36, 0
1, 130080, Note_on_c, 9, 38, 120
1, 130080, Note_on_c, 9, 42, 120
1, 130091, Note_on_c, 9, 42, 0
1, 130319, Note_on_c, 9, 38, 0
1, 130320, Note_on_c, 9, 42, 100
1, 130331, Note_on_c, 9, 42, 0
1, 130560, Note_on_c, 9, 42, 100
1, 130560, Note_on_c, 9, 36, 110
1, 130571, Note_on_c, 9, 42, 0
1, 130799, Note_on_c, 9, 36, 0
1, 130800, Note_on_c, 9, 42, 100
1, 130800, Note_on_c, 9, 36, 100
1, 130811, Note_on_c, 9, 42, 0
1, 131039, Note_on_c, 9, 36, 0
1, 131040, Note_on_c, 9, 38, 120
1, 131040, Note_on_c, 9, 42, 120
1, 131051, Note_on_c, 9, 42, 0
1, 131279, Note_on_c, 9, 38, 0
1, 131280, Note_on_c, 9, 42, 100
1, 131291, Note_on_c, 9, 42, 0
1, 131520, Note_on_c, 9, 42, 100
1, 131520, Note_on_c, 9, 36, 110
1, 131531, Note_on_c, 9, 42, 0
1, 131759, Note_on_c, 9, 36, 0
1, 131760, Note_on_c, 9, 42, 100
1, 131760, Note_on_c, 9, 36, 100
1, 131771, Note_on_c, 9, 42, 0
1, 131999, Note_on_c, 9, 36, 0
1, 132000, Note_on_c, 9, 38, 120
1, 132000, Note_on_c, 9, 42, 120
1, 132011, Note_on_c, 9, 42, 0
1, 132239, Note_on_c, 9, 38, 0
1, 132240, Note_on_c, 9, 42, 100
1, 132251, Note_on_c, 9, 42, 0
1, 132480, Note_on_c, 9, 42, 100
1, 132480, Note_on_c, 9, 36, 110
1, 132491, Note_on_c, 9, 42, 0
1, 132719, Note_on_c, 9, 36, 0
1, 132720, Note_on_c, 9, 42, 100
1, 132720, Note_on_c, 9, 36, 100
1, 132731, Note_on_c, 9, 42, 0
1, 132959, Note_on_c, 9, 36, 0
1, 132960, Note_on_c, 9, 38, 120
1, 132960, Note_on_c, 9, 42, 120
1, 132971, Note_on_c, 9, 42, 0
1, 133199, Note_on_c, 9, 38, 0
1, 133200, Note_on_c, 9, 42, 100
1, 133211, Note_on_c, 9, 42, 0
1, 133440, Note_on_c, 9, 42, 100
1, 133440, Note_on_c, 9, 36, 110
1, 133451, Note_on_c, 9, 42, 0
1, 133679, Note_on_c, 9, 36, 0
1, 133680, Note_on_c, 9, 42, 100
1, 133680, Note_on_c, 9, 36, 100
1, 133691, Note_on_c, 9, 42, 0
1, 133919, Note_on_c, 9, 36, 0
1, 133920, Note_on_c, 9, 38, 120
1, 133920, Note_on_c, 9, 42, 120
1, 133931, Note_on_c, 9, 42, 0
1, 134159, Note_on_c, 9, 38, 0
1, 134160, Note_on_c, 9, 42, 100
1, 134171, Note_on_c, 9, 42, 0
1, 134400, Note_on_c, 9, 42, 100
1, 134400, Note_on_c, 9, 36, 110
1, 134411, Note_on_c, 9, 42, 0
1, 134639, Note_on_c, 9, 36, 0
1, 134640, Note_on_c, 9, 42, 100
1, 134640, Note_on_c, 9, 36, 100
1, 134651, Note_on_c, 9, 42, 0
1, 134879, Note_on_c, 9, 36, 0
1, 134880, Note_on_c, 9, 38, 120
1, 134880, Note_on_c, 9, 42, 120
1, 134891, Note_on_c, 9, 42, 0
1, 135119, Note_on_c, 9, 38, 0
1, 135120, Note_on_c, 9, 42, 100
1, 135131, Note_on_c, 9, 42, 0
1, 135360, Note_on_c, 9, 42, 100
1, 135360, Note_on_c, 9, 36, 110
1, 135371, Note_on_c, 9, 42, 0
1, 135599, Note_on_c, 9, 36, 0
1, 135600, Note_on_c, 9, 42, 100
1, 135600, Note_on_c, 9, 36, 100
1, 135611, Note_on_c, 9, 42, 0
1, 135839, Note_on_c, 9, 36, 0
1, 135840, Note_on_c, 9, 38, 120
1, 135840, Note_on_c, 9, 42, 120
1, 135851, Note_on_c, 9, 42, 0
1, 136079, Note_on_c, 9, 38, 0
1, 136080, Note_on_c, 9, 42, 100
1, 136091, Note_on_c, 9, 42, 0
1, 136320, Note_on_c, 9, 42, 100
1, 136320, Note_on_c, 9, 36, 110
1, 136331, Note_on_c, 9, 42, 0
1, 136559, Note_on_c, 9, 36, 0
1, 136560, Note_on_c, 9, 42, 100
1, 136560, Note_on_c, 9, 36, 100
1, 136571, Note_on_c, 9, 42, 0
1, 136799, Note_on_c, 9, 36, 0
1, 136800, Note_on_c, 9, 38, 120
1, 136800, Note_on_c, 9, 42, 120
1, 136811, Note_on_c, 9, 42, 0
1, 137039, Note_on_c, 9, 38, 0
1, 137040, Note_on_c, 9, 42, 100
1, 137051, Note_on_c, 9, 42, 0
1, 137280, Note_on_c, 9, 42, 100
1, 137280, Note_on_c, 9, 36, 110
1, 137291, Note_on_c, 9, 42, 0
1, 137519, Note_on_c, 9, 36, 0
1, 137520, Note_on_c, 9, 42, 100
1, 137520, Note_on_c, 9, 36, 100
1, 137531, Note_on_c, 9, 42, 0
1, 137759, Note_on_c, 9, 36, 0
1, 137760, Note_on_c, 9, 38, 120
1, 137760, Note_on_c, 9, 42, 120
1, 137771, Note_on_c, 9, 42, 0
1, 137999, Note_on_c, 9, 38, 0
1, 138000, Note_on_c, 9, 42, 100
1, 138011, Note_on_c, 9, 42, 0
1, 138240, Note_on_c, 9, 42, 100
1, 138240, Note_on_c, 9, 36, 110
1, 138251, Note_on_c, 9, 42, 0
1, 138479, Note_on_c, 9, 36, 0
1, 138480, Note_on_c, 9, 42, 100
1, 138480, Note_on_c, 9, 36, 100
1, 138491, Note_on_c, 9, 42, 0
1, 138719, Note_on_c, 9, 36, 0
1, 138720, Note_on_c, 9, 38, 120
1, 138720, Note_on_c, 9, 42, 120
1, 138731, Note_on_c, 9, 42, 0
1, 138959, Note_on_c, 9, 38, 0
1, 138960, Note_on_c, 9, 42, 100
1, 138971, Note_on_c, 9, 42, 0
1, 139200, Note_on_c, 9, 42, 100
1, 139200, Note_on_c, 9, 36, 110
1, 139211, Note_on_c, 9, 42, 0
1, 139439, Note_on_c, 9, 36, 0
1, 139440, Note_on_c, 9, 42, 100
1, 139440, Note_on_c, 9, 36, 100
1, 139451, Note_on_c, 9, 42, 0
1, 139679, Note_on_c, 9, 36, 0
1, 139680, Note_on_c, 9, 38, 120
1, 139680, Note_on_c, 9, 42, 120
1, 139691, Note_on_c, 9, 42, 0
1, 139919, Note_on_c, 9, 38, 0
1, 139920, Note_on_c, 9, 42, 100
1, 139931, Note_on_c, 9, 42, 0
1, 140160, Note_on_c, 9, 42, 100
1, 140160, Note_on_c, 9, 36, 110
1, 140171, Note_on_c, 9, 42, 0
1, 140399, Note_on_c, 9, 36, 0
1, 140400, Note_on_c, 9, 42, 100
1, 140400, Note_on_c, 9, 36, 100
1, 140411, Note_on_c, 9, 42, 0
1, 140639, Note_on_c, 9, 36, 0
1, 140640, Note_on_c, 9, 38, 120
1, 140640, Note_on_c, 9, 42, 120
1, 140651, Note_on_c, 9, 42, 0
1, 140879, Note_on_c, 9, 38, 0
1, 140880, Note_on_c, 9, 42, 100
1, 140891, Note_on_c, 9, 42, 0
1, 141120, Note_on_c, 9, 42, 100
1, 141120, Note_on_c, 9, 36, 110
1, 141131, Note_on_c, 9, 42, 0
1, 141359, Note_on_c, 9, 36, 0
1, 141360, Note_on_c, 9, 42, 100
1, 141360, Note_on_c, 9, 36, 100
1, 141371, Note_on_c, 9, 42, 0
1, 141599, Note_on_c, 9, 36, 0
1, 141600, Note_on_c, 9, 38, 120
1, 141600, Note_on_c, 9, 42, 120
1, 141611, Note_on_c, 9, 42, 0
1, 141839, Note_on_c, 9, 38, 0
1, 141840, Note_on_c, 9, 42, 100
1, 141851, Note_on_c, 9, 42, 0
1, 142080, Note_on_c, 9, 46, 120
1, 142080, Note_on_c, 9, 36, 110
1, 142091, Note_on_c, 9, 46, 0
1, 142320, Note_on_c, 9, 42, 100
1, 142331, Note_on_c, 9, 42, 0
1, 142559, Note_on_c, 9, 36, 0
1, 142560, Note_on_c, 9, 46, 120
1, 142560, Note_on_c, 9, 36, 110
1, 142571, Note_on_c, 9, 46, 0
1, 142800, Note_on_c, 9, 42, 100
1, 142811, Note_on_c, 9, 42, 0
1, 143039, Note_on_c, 9, 36, 0
1, 143040, Note_on_c, 9, 42, 100
1, 143040, Note_on_c, 9, 36, 110
1, 143051, Note_on_c, 9, 42, 0
1, 143279, Note_on_c, 9, 36, 0
1, 143280, Note_on_c, 9, 42, 100
1, 143280, Note_on_c, 9, 36, 100
1, 143291, Note_on_c, 9, 42, 0
1, 143519, Note_on_c, 9, 36, 0
1, 143520, Note_on_c, 9, 38, 120
1, 143520, Note_on_c, 9, 42, 120
1, 143531, Note_on_c, 9, 42, 0
1, 143759, Note_on_c, 9, 38, 0
1, 143760, Note_on_c, 9, 42, 100
1, 143771, Note_on_c, 9, 42, 0
1, 144000, Note_on_c, 9, 42, 100
1, 144000, Note_on_c, 9, 36, 110
1, 144011, Note_on_c, 9, 42, 0
1, 144239, Note_on_c, 9, 36, 0
1, 144240, Note_on_c, 9, 42, 100
1, 144240, Note_on_c, 9, 36, 100
1, 144251, Note_on_c, 9, 42, 0
1, 144479, Note_on_c, 9, 36, 0
1, 144480, Note_on_c, 9, 38, 120
1, 144480, Note_on_c, 9, 42, 120
1, 144491, Note_on_c, 9, 42, 0
1, 144719, Note_on_c, 9, 38, 0
1, 144720, Note_on_c, 9, 42, 100
1, 144731, Note_on_c, 9, 42, 0
1, 144960, Note_on_c, 9, 42, 100
1, 144960, Note_on_c, 9, 36, 110
1, 144971, Note_on_c, 9, 42, 0
1, 145199, Note_on_c, 9, 36, 0
1, 145200, Note_on_c, 9, 42, 100
1, 145200, Note_on_c, 9, 36, 100
1, 145211, Note_on_c, 9, 42, 0
1, 145439, Note_on_c, 9, 36, 0
1, 145440, Note_on_c, 9, 38, 120
1, 145440, Note_on_c, 9, 42, 120
1, 145451, Note_on_c, 9, 42, 0
1, 145679, Note_on_c, 9, 38, 0
1, 145680, Note_on_c, 9, 42, 100
1, 145691, Note_on_c, 9, 42, 0
1, 145920, Note_on_c, 9, 46, 120
1, 145920, Note_on_c, 9, 36, 110
1, 145931, Note_on_c, 9, 46, 0
1, 146160, Note_on_c, 9, 42, 100
1, 146171, Note_on_c, 9, 42, 0
1, 146399, Note_on_c, 9, 36, 0
1, 146400, Note_on_c, 9, 46, 120
1, 146400, Note_on_c, 9, 36, 110
1, 146411, Note_on_c, 9, 46, 0
1, 146640, Note_on_c, 9, 42, 100
1, 146651, Note_on_c, 9, 42, 0
1, 146879, Note_on_c, 9, 36, 0
1, 146880, Note_on_c, 9, 42, 100
1, 146880, Note_on_c, 9, 36, 110
1, 146891, Note_on_c, 9, 42, 0
1, 147119, Note_on_c, 9, 36, 0
1, 147120, Note_on_c, 9, 42, 100
1, 147120, Note_on_c, 9, 36, 100
1, 147131, Note_on_c, 9, 42, 0
1, 147359, Note_on_c, 9, 36, 0
1, 147360, Note_on_c, 9, 38, 120
1, 147360, Note_on_c, 9, 42, 120
1, 147371, Note_on_c, 9, 42, 0
1, 147599, Note_on_c, 9, 38, 0
1, 147600, Note_on_c, 9, 42, 100
1, 147611, Note_on_c, 9, 42, 0
1, 147840, Note_on_c, 9, 42, 100
1, 147840, Note_on_c, 9, 36, 110
1, 147851, Note_on_c, 9, 42, 0
1, 148079, Note_on_c, 9, 36, 0
1, 148080, Note_on_c, 9, 42, 100
1, 148080, Note_on_c, 9, 36, 100
1, 148091, Note_on_c, 9, 42, 0
1, 148319, Note_on_c, 9, 36, 0
1, 148320, Note_on_c, 9, 38, 120
1, 148320, Note_on_c, 9, 42, 120
1, 148331, Note_on_c, 9, 42, 0
1, 148559, Note_on_c, 9, 38, 0
1, 148560, Note_on_c, 9, 42, 100
1, 148571, Note_on_c, 9, 42, 0
1, 148800, Note_on_c, 9, 42, 100
1, 148800, Note_on_c, 9, 36, 110
1, 148811, Note_on_c, 9, 42, 0
1, 149039, Note_on_c, 9, 36, 0
1, 149040, Note_on_c, 9, 42, 100
1, 149040, Note_on_c, 9, 36, 100
1, 149051, Note_on_c, 9, 42, 0
1, 149279, Note_on_c, 9, 36, 0
1, 149280, Note_on_c, 9, 38, 120
1, 149280, Note_on_c, 9, 42, 120
1, 149291, Note_on_c, 9, 42, 0
1, 149519, Note_on_c, 9, 38, 0
1, 149520, Note_on_c, 9, 42, 100
1, 149531, Note_on_c, 9, 42, 0
1, 149760, Note_on_c, 9, 46, 120
1, 149760, Note_on_c, 9, 36, 110
1, 149771, Note_on_c, 9, 46, 0
1, 150000, Note_on_c, 9, 42, 100
1, 150011, Note_on_c, 9, 42, 0
1, 150239, Note_on_c, 9, 36, 0
1, 150240, Note_on_c, 9, 46, 120
1, 150240, Note_on_c, 9, 36, 110
1, 150251, Note_on_c, 9, 46, 0
1, 150480, Note_on_c, 9, 42, 100
1, 150491, Note_on_c, 9, 42, 0
1, 150719, Note_on_c, 9, 36, 0
1, 150720, Note_on_c, 9, 42, 100
1, 150720, Note_on_c, 9, 36, 110
1, 150731, Note_on_c, 9, 42, 0
1, 150959, Note_on_c, 9, 36, 0
1, 150960, Note_on_c, 9, 42, 100
1, 150960, Note_on_c, 9, 36, 100
1, 150971, Note_on_c, 9, 42, 0
1, 151199, Note_on_c, 9, 36, 0
1, 151200, Note_on_c, 9, 38, 120
1, 151200, Note_on_c, 9, 42, 120
1, 151211, Note_on_c, 9, 42, 0
1, 151439, Note_on_c, 9, 38, 0
1, 151440, Note_on_c, 9, 42, 100
1, 151451, Note_on_c, 9, 42, 0
1, 151680, Note_on_c, 9, 42, 100
1, 151680, Note_on_c, 9, 36, 110
1, 151691, Note_on_c, 9, 42, 0
1, 151919, Note_on_c, 9, 36, 0
1, 151920, Note_on_c, 9, 42, 100
1, 151920, Note_on_c, 9, 36, 100
1, 151931, Note_on_c, 9, 42, 0
1, 152159, Note_on_c, 9, 36, 0
1, 152160, Note_on_c, 9, 38, 120
1, 152160, Note_on_c, 9, 42, 120
1, 152171, Note_on_c, 9, 42, 0
1, 152399, Note_on_c, 9, 38, 0
1, 152400, Note_on_c, 9, 42, 100
1, 152411, Note_on_c, 9, 42, 0
1, 152640, Note_on_c, 9, 42, 100
1, 152640, Note_on_c, 9, 36, 110
1, 152651, Note_on_c, 9, 42, 0
1, 152879, Note_on_c, 9, 36, 0
1, 152880, Note_on_c, 9, 42, 100
1, 152880, Note_on_c, 9, 36, 100
1, 152891, Note_on_c, 9, 42, 0
1, 153119, Note_on_c, 9, 36, 0
1, 153120, Note_on_c, 9, 38, 120
1, 153120, Note_on_c, 9, 42, 120
1, 153131, Note_on_c, 9, 42, 0
1, 153359, Note_on_c, 9, 38, 0
1, 153360, Note_on_c, 9, 42, 100
1, 153371, Note_on_c, 9, 42, 0
1, 153600, Note_on_c, 9, 46, 120
1, 153600, Note_on_c, 9, 36, 110
1, 153611, Note_on_c, 9, 46, 0
1, 153840, Note_on_c, 9, 42, 100
1, 153851, Note_on_c, 9, 42, 0
1, 154079, Note_on_c, 9, 36, 0
1, 154080, Note_on_c, 9, 46, 120
1, 154080, Note_on_c, 9, 36, 110
1, 154091, Note_on_c, 9, 46, 0
1, 154320, Note_on_c, 9, 42, 100
1, 154331, Note_on_c, 9, 42, 0
1, 154559, Note_on_c, 9, 36, 0
1, 154560, Note_on_c, 9, 42, 100
1, 154560, Note_on_c, 9, 36, 110
1, 154571, Note_on_c, 9, 42, 0
1, 154799, Note_on_c, 9, 36, 0
1, 154800, Note_on_c, 9, 42, 100
1, 154800, Note_on_c, 9, 36, 100
1, 154811, Note_on_c, 9, 42, 0
1, 155039, Note_on_c, 9, 36, 0
1, 155040, Note_on_c, 9, 38, 120
1, 155040, Note_on_c, 9, 42, 120
1, 155051, Note_on_c, 9, 42, 0
1, 155279, Note_on_c, 9, 38, 0
1, 155280, Note_on_c, 9, 42, 100
1, 155291, Note_on_c, 9, 42, 0
1, 155520, Note_on_c, 9, 42, 85
1, 155520, Note_on_c, 9, 36, 85
1, 155531, Note_on_c, 9, 42, 0
1, 155759, Note_on_c, 9, 36, 0
1, 155760, Note_on_c, 9, 42, 90
1, 155760, Note_on_c, 9, 36, 90
1, 155771, Note_on_c, 9, 42, 0
1, 155999, Note_on_c, 9, 36, 0
1, 156000, Note_on_c, 9, 38, 95
1, 156000, Note_on_c, 9, 42, 95
1, 156000, Note_on_c, 9, 36, 95
1, 156011, Note_on_c, 9, 42, 0
1, 156239, Note_on_c, 9, 38, 0
1, 156239, Note_on_c, 9, 36, 0
1, 156240, Note_on_c, 9, 38, 100
1, 156240, Note_on_c, 9, 42, 100
1, 156240, Note_on_c, 9, 36, 100
1, 156251, Note_on_c, 9, 42, 0
1, 156479, Note_on_c, 9, 38, 0
1, 156479, Note_on_c, 9, 36, 0
1, 156480, Note_on_c, 9, 38, 105
1, 156480, Note_on_c, 9, 42, 105
1, 156480, Note_on_c, 9, 36, 105
1, 156491, Note_on_c, 9, 42, 0
1, 156719, Note_on_c, 9, 38, 0
1, 156719, Note_on_c, 9, 36, 0
1, 156720, Note_on_c, 9, 38, 110
1, 156720, Note_on_c, 9, 42, 110
1, 156720, Note_on_c, 9, 36, 110
1, 156731, Note_on_c, 9, 42, 0
1, 156959, Note_on_c, 9, 38, 0
1, 156959, Note_on_c, 9, 36, 0
1, 156960, Note_on_c, 9, 38, 115
1, 156960, Note_on_c, 9, 42, 115
1, 156960, Note_on_c, 9, 36, 115
1, 156971, Note_on_c, 9, 42, 0
1, 157199, Note_on_c, 9, 38, 0
1, 157199, Note_on_c, 9, 36, 0
1, 157200, Note_on_c, 9, 38, 120
1, 157200, Note_on_c, 9, 42, 120
1, 157200, Note_on_c, 9, 36, 120
1, 157211, Note_on_c, 9, 42, 0
1, 157439, Note_on_c, 9, 38, 0
1, 157439, Note_on_c, 9, 36, 0
1, 157440, Note_on_c, 9, 57, 120
1, 157440, Note_on_c, 9, 36, 110
1, 157464, Note_on_c, 9, 57, 0
1, 157679, Note_on_c, 9, 36, 0
1, 157680, Note_on_c, 9, 36, 100
1, 157919, Note_on_c, 9, 36, 0
1, 157920, Note_on_c, 9, 38, 120
1, 157920, Note_on_c, 9, 57, 120
1, 157931, Note_on_c, 9, 57, 0
1, 158159, Note_on_c, 9, 38, 0
1, 158160, Note_on_c, 9, 51, 100
1, 158171, Note_on_c, 9, 51, 0
1, 158400, Note_on_c, 9, 51, 100
1, 158400, Note_on_c, 9, 36, 110
1, 158411, Note_on_c, 9, 51, 0
1, 158639, Note_on_c, 9, 36, 0
1, 158640, Note_on_c, 9, 51, 100
1, 158640, Note_on_c, 9, 36, 100
1, 158651, Note_on_c, 9, 51, 0
1, 158879, Note_on_c, 9, 36, 0
1, 158880, Note_on_c, 9, 38, 120
1, 158880, Note_on_c, 9, 51, 120
1, 158891, Note_on_c, 9, 51, 0
1, 159119, Note_on_c, 9, 38, 0
1, 159120, Note_on_c, 9, 51, 100
1, 159131, Note_on_c, 9, 51, 0
1, 159360, Note_on_c, 9, 51, 100
1, 159360, Note_on_c, 9, 36, 110
1, 159371, Note_on_c, 9, 51, 0
1, 159599, Note_on_c, 9, 36, 0
1, 159600, Note_on_c, 9, 51, 100
1, 159600, Note_on_c, 9, 36, 100
1, 159611, Note_on_c, 9, 51, 0
1, 159839, Note_on_c, 9, 36, 0
1, 159840, Note_on_c, 9, 38, 120
1, 159840, Note_on_c, 9, 51, 120
1, 159851, Note_on_c, 9, 51, 0
1, 160079, Note_on_c, 9, 38, 0
1, 160080, Note_on_c, 9, 51, 100
1, 160091, Note_on_c, 9, 51, 0
1, 160320, Note_on_c, 9, 51, 100
1, 160320, Note_on_c, 9, 36, 110
1, 160331, Note_on_c, 9, 51, 0
1, 160559, Note_on_c, 9, 36, 0
1, 160560, Note_on_c, 9, 51, 100
1, 160560, Note_on_c, 9, 36, 100
1, 160571, Note_on_c, 9, 51, 0
1, 160799, Note_on_c, 9, 36, 0
1, 160800, Note_on_c, 9, 38, 120
1, 160800, Note_on_c, 9, 51, 120
1, 160811, Note_on_c, 9, 51, 0
1, 161039, Note_on_c, 9, 38, 0
1, 161040, Note_on_c, 9, 51, 100
1, 161051, Note_on_c, 9, 51, 0
1, 161280, Note_on_c, 9, 57, 120
1, 161280, Note_on_c, 9, 36, 110
1, 161304, Note_on_c, 9, 57, 0
1, 161519, Note_on_c, 9, 36, 0
1, 161520, Note_on_c, 9, 36, 100
1, 161759, Note_on_c, 9, 36, 0
1, 161760, Note_on_c, 9, 38, 120
1, 161760, Note_on_c, 9, 57, 120
1, 161771, Note_on_c, 9, 57, 0
1, 161999, Note_on_c, 9, 38, 0
1, 162000, Note_on_c, 9, 51, 100
1, 162011, Note_on_c, 9, 51, 0
1, 162240, Note_on_c, 9, 51, 100
1, 162240, Note_on_c, 9, 36, 110
1, 162251, Note_on_c, 9, 51, 0
1, 162479, Note_on_c, 9, 36, 0
1, 162480, Note_on_c, 9, 51, 100
1, 162480, Note_on_c, 9, 36, 100
1, 162491, Note_on_c, 9, 51, 0
1, 162719, Note_on_c, 9, 36, 0
1, 162720, Note_on_c, 9, 38, 120
1, 162720, Note_on_c, 9, 51, 120
1, 162731, Note_on_c, 9, 51, 0
1, 162959, Note_on_c, 9, 38, 0
1, 162960, Note_on_c, 9, 51, 100
1, 162971, Note_on_c, 9, 51, 0
1, 163200, Note_on_c, 9, 51, 100
1, 163200, Note_on_c, 9, 36, 110
1, 163211, Note_on_c, 9, 51, 0
1, 163439, Note_on_c, 9, 36, 0
1, 163440, Note_on_c, 9, 51, 100
1, 163440, Note_on_c, 9, 36, 100
1, 163451, Note_on_c, 9, 51, 0
1, 163679, Note_on_c, 9, 36, 0
1, 163680, Note_on_c, 9, 38, 120
1, 163680, Note_on_c, 9, 51, 120
1, 163691, Note_on_c, 9, 51, 0
1, 163919, Note_on_c, 9, 38, 0
1, 163920, Note_on_c, 9, 51, 100
1, 163931, Note_on_c, 9, 51, 0
1, 164160, Note_on_c, 9, 51, 100
1, 164160, Note_on_c, 9, 36, 110
1, 164171, Note_on_c, 9, 51, 0
1, 164399, Note_on_c, 9, 36, 0
1, 164400, Note_on_c, 9, 51, 100
1, 164400, Note_on_c, 9, 36, 100
1, 164411, Note_on_c, 9, 51, 0
1, 164639, Note_on_c, 9, 36, 0
1, 164640, Note_on_c, 9, 38, 120
1, 164759, Note_on_c, 9, 38, 0
1, 164760, Note_on_c, 9, 38, 100
1, 164879, Note_on_c, 9, 38, 0
1, 164880, Note_on_c, 9, 51, 100
1, 164891, Note_on_c, 9, 51, 0
1, 165120, Note_on_c, 9, 57, 120
1, 165120, Note_on_c, 9, 36, 110
1, 165144, Note_on_c, 9, 57, 0
1, 165359, Note_on_c, 9, 36, 0
1, 165360, Note_on_c, 9, 36, 100
1, 165599, Note_on_c, 9, 36, 0
1, 165600, Note_on_c, 9, 38, 120
1, 165600, Note_on_c, 9, 57, 120
1, 165611, Note_on_c, 9, 57, 0
1, 165839, Note_on_c, 9, 38, 0
1, 165840, Note_on_c, 9, 51, 100
1, 165851, Note_on_c, 9, 51, 0
1, 166080, Note_on_c, 9, 51, 100
1, 166080, Note_on_c, 9, 36, 110
1, 166091, Note_on_c, 9, 51, 0
1, 166319, Note_on_c, 9, 36, 0
1, 166320, Note_on_c, 9, 51, 100
1, 166320, Note_on_c, 9, 36, 100
1, 166331, Note_on_c, 9, 51, 0
1, 166559, Note_on_c, 9, 36, 0
1, 166560, Note_on_c, 9, 38, 120
1, 166560, Note_on_c, 9, 51, 120
1, 166571, Note_on_c, 9, 51, 0
1, 166799, Note_on_c, 9, 38, 0
1, 166800, Note_on_c, 9, 51, 100
1, 166811, Note_on_c, 9, 51, 0
1, 167040, Note_on_c, 9, 51, 100
1, 167040, Note_on_c, 9, 36, 110
1, 167051, Note_on_c, 9, 51, 0
1, 167279, Note_on_c, 9, 36, 0
1, 167280, Note_on_c, 9, 51, 100
1, 167280, Note_on_c, 9, 36, 100
1, 167291, Note_on_c, 9, 51, 0
1, 167519, Note_on_c, 9, 36, 0
1, 167520, Note_on_c, 9, 38, 120
1, 167520, Note_on_c, 9, 51, 120
1, 167531, Note_on_c, 9, 51, 0
1, 167759, Note_on_c, 9, 38, 0
1, 167760, Note_on_c, 9, 51, 100
1, 167771, Note_on_c, 9, 51, 0
1, 168000, Note_on_c, 9, 51, 100
1, 168000, Note_on_c, 9, 36, 110
1, 168011, Note_on_c, 9, 51, 0
1, 168239, Note_on_c, 9, 36, 0
1, 168240, Note_on_c, 9, 51, 100
1, 168240, Note_on_c, 9, 36, 100
1, 168251, Note_on_c, 9, 51, 0
1, 168479, Note_on_c, 9, 36, 0
1, 168480, Note_on_c, 9, 38, 120
1, 168480, Note_on_c, 9, 51, 120
1, 168491, Note_on_c, 9, 51, 0
1, 168719, Note_on_c, 9, 38, 0
1, 168720, Note_on_c, 9, 51, 100
1, 168731, Note_on_c, 9, 51, 0
1, 168960, Note_on_c, 9, 51, 100
1, 168960, Note_on_c, 9, 36, 110
1, 168971, Note_on_c, 9, 51, 0
1, 169199, Note_on_c, 9, 36, 0
1, 169200, Note_on_c, 9, 51, 100
1, 169200, Note_on_c, 9, 36, 100
1, 169211, Note_on_c, 9, 51, 0
1, 169439, Note_on_c, 9, 36, 0
1, 169440, Note_on_c, 9, 38, 120
1, 169440, Note_on_c, 9, 51, 120
1, 169451, Note_on_c, 9, 51, 0
1, 169679, Note_on_c, 9, 38, 0
1, 169680, Note_on_c, 9, 51, 100
1, 169691, Note_on_c, 9, 51, 0
1, 169920, Note_on_c, 9, 51, 100
1, 169920, Note_on_c, 9, 36, 110
1, 169931, Note_on_c, 9, 51, 0
1, 170159, Note_on_c, 9, 36, 0
1, 170160, Note_on_c, 9, 51, 100
1, 170160, Note_on_c, 9, 36, 100
1, 170171, Note_on_c, 9, 51, 0
1, 170399, Note_on_c, 9, 36, 0
1, 170400, Note_on_c, 9, 38, 120
1, 170400, Note_on_c, 9, 57, 120
1, 170411, Note_on_c, 9, 57, 0
1, 170639, Note_on_c, 9, 38, 0
1, 170640, Note_on_c, 9, 51, 100
1, 170651, Note_on_c, 9, 51, 0
1, 170880, Note_on_c, 9, 51, 100
1, 170880, Note_on_c, 9, 36, 110
1, 170891, Note_on_c, 9, 51, 0
1, 171119, Note_on_c, 9, 36, 0
1, 171120, Note_on_c, 9, 51, 100
1, 171120, Note_on_c, 9, 36, 100
1, 171131, Note_on_c, 9, 51, 0
1, 171359, Note_on_c, 9, 36, 0
1, 171360, Note_on_c, 9, 38, 120
1, 171360, Note_on_c, 9, 51, 120
1, 171371, Note_on_c, 9, 51, 0
1, 171599, Note_on_c, 9, 38, 0
1, 171600, Note_on_c, 9, 51, 100
1, 171611, Note_on_c, 9, 51, 0
1, 171840, Note_on_c, 9, 57, 120
1, 171840, Note_on_c, 9, 36, 110
1, 171845, Note_on_c, 9, 57, 0
1, 171960, Note_on_c, 9, 38, 90
1, 172079, Note_on_c, 9, 38, 0
1, 172080, Note_on_c, 9, 38, 95
1, 172199, Note_on_c, 9, 38, 0
1, 172200, Note_on_c, 9, 38, 100
1, 172319, Note_on_c, 9, 36, 0
1, 172319, Note_on_c, 9, 38, 0
1, 172320, Note_on_c, 9, 38, 105
1, 172439, Note_on_c, 9, 38, 0
1, 172440, Note_on_c, 9, 38, 110
1, 172559, Note_on_c, 9, 38, 0
1, 172560, Note_on_c, 9, 38, 115
1, 172679, Note_on_c, 9, 38, 0
1, 172680, Note_on_c, 9, 38, 120
1, 172799, Note_on_c, 9, 38, 0
1, 172800, Note_on_c, 9, 57, 120
1, 172800, Note_on_c, 9, 36, 110
1, 172824, Note_on_c, 9, 57, 0
1, 173039, Note_on_c, 9, 36, 0
1, 173040, Note_on_c, 9, 36, 100
1, 173279, Note_on_c, 9, 36, 0
1, 173280, Note_on_c, 9, 38, 120
1, 173280, Note_on_c, 9, 57, 120
1, 173291, Note_on_c, 9, 57, 0
1, 173519, Note_on_c, 9, 38, 0
1, 173520, Note_on_c, 9, 51, 100
1, 173531, Note_on_c, 9, 51, 0
1, 173760, Note_on_c, 9, 51, 100
1, 173760, Note_on_c, 9, 36, 110
1, 173771, Note_on_c, 9, 51, 0
1, 173999, Note_on_c, 9, 36, 0
1, 174000, Note_on_c, 9, 51, 100
1, 174000, Note_on_c, 9, 36, 100
1, 174011, Note_on_c, 9, 51, 0
1, 174239, Note_on_c, 9, 36, 0
1, 174240, Note_on_c, 9, 38, 120
1, 174240, Note_on_c, 9, 57, 120
1, 174251, Note_on_c, 9, 57, 0
1, 174479, Note_on_c, 9, 38, 0
1, 174480, Note_on_c, 9, 51, 100
1, 174491, Note_on_c, 9, 51, 0
1, 174720, Note_on_c, 9, 51, 100
1, 174720, Note_on_c, 9, 36, 110
1, 174731, Note_on_c, 9, 51, 0
1, 174959, Note_on_c, 9, 36, 0
1, 174960, Note_on_c, 9, 51, 100
1, 174960, Note_on_c, 9, 36, 100
1, 174971, Note_on_c, 9, 51, 0
1, 175199, Note_on_c, 9, 36, 0
1, 175200, Note_on_c, 9, 38, 120
1, 175200, Note_on_c, 9, 57, 120
1, 175211, Note_on_c, 9, 57, 0
1, 175439, Note_on_c, 9, 38, 0
1, 175440, Note_on_c, 9, 51, 100
1, 175451, Note_on_c, 9, 51, 0
1, 175680, Note_on_c, 9, 51, 100
1, 175680, Note_on_c, 9, 36, 110
1, 175691, Note_on_c, 9, 51, 0
1, 175919, Note_on_c, 9, 36, 0
1, 175920, Note_on_c, 9, 51, 100
1, 175920, Note_on_c, 9, 36, 100
1, 175931, Note_on_c, 9, 51, 0
1, 176159, Note_on_c, 9, 36, 0
1, 176160, Note_on_c, 9, 38, 120
1, 176160, Note_on_c, 9, 57, 120
1, 176171, Note_on_c, 9, 57, 0
1, 176399, Note_on_c, 9, 38, 0
1, 176400, Note_on_c, 9, 51, 100
1, 176411, Note_on_c, 9, 51, 0
1, 176640, Note_on_c, 9, 57, 120
1, 176640, Note_on_c, 9, 36, 110
1, 176664, Note_on_c, 9, 57, 0
1, 176879, Note_on_c, 9, 36, 0
1, 176880, Note_on_c, 9, 36, 100
1, 177119, Note_on_c, 9, 36, 0
1, 177120, Note_on_c, 9, 38, 120
1, 177120, Note_on_c, 9, 57, 120
1, 177131, Note_on_c, 9, 57, 0
1, 177359, Note_on_c, 9, 38, 0
1, 177360, Note_on_c, 9, 51, 100
1, 177371, Note_on_c, 9, 51, 0
1, 177600, Note_on_c, 9, 51, 100
1, 177600, Note_on_c, 9, 36, 110
1, 177611, Note_on_c, 9, 51, 0
1, 177839, Note_on_c, 9, 36, 0
1, 177840, Note_on_c, 9, 51, 100
1, 177840, Note_on_c, 9, 36, 100
1, 177851, Note_on_c, 9, 51, 0
1, 178079, Note_on_c, 9, 36, 0
1, 178080, Note_on_c, 9, 38, 120
1, 178080, Note_on_c, 9, 57, 120
1, 178091, Note_on_c, 9, 57, 0
1, 178319, Note_on_c, 9, 38, 0
1, 178320, Note_on_c, 9, 51, 100
1, 178331, Note_on_c, 9, 51, 0
1, 178560, Note_on_c, 9, 51, 100
1, 178560, Note_on_c, 9, 36, 110
1, 178571, Note_on_c, 9, 51, 0
1, 178799, Note_on_c, 9, 36, 0
1, 178800, Note_on_c, 9, 51, 100
1, 178800, Note_on_c, 9, 36, 100
1, 178811, Note_on_c, 9, 51, 0
1, 179039, Note_on_c, 9, 36, 0
1, 179040, Note_on_c, 9, 38, 120
1, 179040, Note_on_c, 9, 57, 120
1, 179051, Note_on_c, 9, 57, 0
1, 179279, Note_on_c, 9, 38, 0
1, 179280, Note_on_c, 9, 51, 100
1, 179291, Note_on_c, 9, 51, 0
1, 179520, Note_on_c, 9, 51, 100
1, 179520, Note_on_c, 9, 36, 110
1, 179531, Note_on_c, 9, 51, 0
1, 179759, Note_on_c, 9, 36, 0
1, 179760, Note_on_c, 9, 51, 100
1, 179760, Note_on_c, 9, 36, 100
1, 179771, Note_on_c, 9, 51, 0
1, 179999, Note_on_c, 9, 36, 0
1, 180000, Note_on_c, 9, 38, 120
1, 180000, Note_on_c, 9, 57, 120
1, 180011, Note_on_c, 9, 57, 0
1, 180239, Note_on_c, 9, 38, 0
1, 180240, Note_on_c, 9, 51, 100
1, 180251, Note_on_c, 9, 51, 0
1, 180480, Note_on_c, 9, 57, 120
1, 180480, Note_on_c, 9, 36, 110
1, 180504, Note_on_c, 9, 57, 0
1, 180719, Note_on_c, 9, 36, 0
1, 180720, Note_on_c, 9, 36, 100
1, 180959, Note_on_c, 9, 36, 0
1, 180960, Note_on_c, 9, 38, 120
1, 180960, Note_on_c, 9, 57, 120
1, 180971, Note_on_c, 9, 57, 0
1, 181199, Note_on_c, 9, 38, 0
1, 181200, Note_on_c, 9, 51, 100
1, 181211, Note_on_c, 9, 51, 0
1, 181440, Note_on_c, 9, 51, 100
1, 181440, Note_on_c, 9, 36, 110
1, 181451, Note_on_c, 9, 51, 0
1, 181679, Note_on_c, 9, 36, 0
1, 181680, Note_on_c, 9, 51, 100
1, 181680, Note_on_c, 9, 36, 100
1, 181691, Note_on_c, 9, 51, 0
1, 181919, Note_on_c, 9, 36, 0
1, 181920, Note_on_c, 9, 38, 120
1, 181920, Note_on_c, 9, 57, 120
1, 181931, Note_on_c, 9, 57, 0
1, 182159, Note_on_c, 9, 38, 0
1, 182160, Note_on_c, 9, 51, 100
1, 182171, Note_on_c, 9, 51, 0
1, 182400, Note_on_c, 9, 51, 100
1, 182400, Note_on_c, 9, 36, 110
1, 182411, Note_on_c, 9, 51, 0
1, 182639, Note_on_c, 9, 36, 0
1, 182640, Note_on_c, 9, 51, 100
1, 182640, Note_on_c, 9, 36, 100
1, 182651, Note_on_c, 9, 51, 0
1, 182879, Note_on_c, 9, 36, 0
1, 182880, Note_on_c, 9, 38, 120
1, 182880, Note_on_c, 9, 57, 120
1, 182891, Note_on_c, 9, 57, 0
1, 183119, Note_on_c, 9, 38, 0
1, 183120, Note_on_c, 9, 51, 100
1, 183131, Note_on_c, 9, 51, 0
1, 183360, Note_on_c, 9, 51, 100
1, 183360, Note_on_c, 9, 36, 110
1, 183371, Note_on_c, 9, 51, 0
1, 183599, Note_on_c, 9, 36, 0
1, 183600, Note_on_c, 9, 51, 100
1, 183600, Note_on_c, 9, 36, 100
1, 183611, Note_on_c, 9, 51, 0
1, 183839, Note_on_c, 9, 36, 0
1, 183840, Note_on_c, 9, 38, 120
1, 183840, Note_on_c, 9, 57, 120
1, 183851, Note_on_c, 9, 57, 0
1, 184079, Note_on_c, 9, 38, 0
1, 184080, Note_on_c, 9, 51, 100
1, 184091, Note_on_c, 9, 51, 0
1, 184320, Note_on_c, 9, 57, 120
1, 184320, Note_on_c, 9, 36, 110
1, 184344, Note_on_c, 9, 57, 0
1, 184559, Note_on_c, 9, 36, 0
1, 184560, Note_on_c, 9, 36, 100
1, 184799, Note_on_c, 9, 36, 0
1, 184800, Note_on_c, 9, 38, 120
1, 184800, Note_on_c, 9, 57, 120
1, 184811, Note_on_c, 9, 57, 0
1, 185039, Note_on_c, 9, 38, 0
1, 185040, Note_on_c, 9, 51, 100
1, 185051, Note_on_c, 9, 51, 0
1, 185280, Note_on_c, 9, 51, 100
1, 185280, Note_on_c, 9, 36, 110
1, 185291, Note_on_c, 9, 51, 0
1, 185519, Note_on_c, 9, 36, 0
1, 185520, Note_on_c, 9, 51, 100
1, 185520, Note_on_c, 9, 36, 100
1, 185531, Note_on_c, 9, 51, 0
1, 185759, Note_on_c, 9, 36, 0
1, 185760, Note_on_c, 9, 38, 120
1, 185760, Note_on_c, 9, 57, 120
1, 185771, Note_on_c, 9, 57, 0
1, 185999, Note_on_c, 9, 38, 0
1, 186000, Note_on_c, 9, 51, 100
1, 186011, Note_on_c, 9, 51, 0
1, 186240, Note_on_c, 9, 51, 85
1, 186240, Note_on_c, 9, 36, 85
1, 186251, Note_on_c, 9, 51, 0
1, 186479, Note_on_c, 9, 36, 0
1, 186480, Note_on_c, 9, 51, 90
1, 186480, Note_on_c, 9, 36, 90
1, 186491, Note_on_c, 9, 51, 0
1, 186719, Note_on_c, 9, 36, 0
1, 186720, Note_on_c, 9, 38, 95
1, 186720, Note_on_c, 9, 51, 95
1, 186720, Note_on_c, 9, 36, 95
1, 186731, Note_on_c, 9, 51, 0
1, 186959, Note_on_c, 9, 38, 0
1, 186959, Note_on_c, 9, 36, 0
1, 186960, Note_on_c, 9, 38, 100
1, 186960, Note_on_c, 9, 51, 100
1, 186960, Note_on_c, 9, 36, 100
1, 186971, Note_on_c, 9, 51, 0
1, 187199, Note_on_c, 9, 38, 0
1, 187199, Note_on_c, 9, 36, 0
1, 187200, Note_on_c, 9, 38, 105
1, 187200, Note_on_c, 9, 51, 105
1, 187200, Note_on_c, 9, 36, 105
1, 187211, Note_on_c, 9, 51, 0
1, 187439, Note_on_c, 9, 38, 0
1, 187439, Note_on_c, 9, 36, 0
1, 187440, Note_on_c, 9, 38, 110
1, 187440, Note_on_c, 9, 51, 110
1, 187440, Note_on_c, 9, 36, 110
1, 187451, Note_on_c, 9, 51, 0
1, 187679, Note_on_c, 9, 38, 0
1, 187679, Note_on_c, 9, 36, 0
1, 187680, Note_on_c, 9, 38, 115
1, 187680, Note_on_c, 9, 51, 115
1, 187680, Note_on_c, 9, 36, 115
1, 187691, Note_on_c, 9, 51, 0
1, 187919, Note_on_c, 9, 38, 0
1, 187919, Note_on_c, 9, 36, 0
1, 187920, Note_on_c, 9, 38, 120
1, 187920, Note_on_c, 9, 51, 120
1, 187920, Note_on_c, 9, 36, 120
1, 187931, Note_on_c, 9, 51, 0
1, 188159, Note_on_c, 9, 38, 0
1, 188159, Note_on_c, 9, 36, 0
1, 188160, Note_on_c, 9, 57, 120
1, 188160, Note_on_c, 9, 36, 110
1, 188184, Note_on_c, 9, 57, 0
1, 188399, Note_on_c, 9, 36, 0
1, 188400, Note_on_c, 9, 36, 100
1, 188639, Note_on_c, 9, 36, 0
1, 188640, Note_on_c, 9, 38, 120
1, 188640, Note_on_c, 9, 51, 120
1, 188651, Note_on_c, 9, 51, 0
1, 188879, Note_on_c, 9, 38, 0
1, 188880, Note_on_c, 9, 51, 100
1, 188891, Note_on_c, 9, 51, 0
1, 189120, Note_on_c, 9, 51, 100
1, 189120, Note_on_c, 9, 36, 110
1, 189131, Note_on_c, 9, 51, 0
1, 189359, Note_on_c, 9, 36, 0
1, 189360, Note_on_c, 9, 51, 100
1, 189360, Note_on_c, 9, 36, 100
1, 189371, Note_on_c, 9, 51, 0
1, 189599, Note_on_c, 9, 36, 0
1, 189600, Note_on_c, 9, 38, 120
1, 189600, Note_on_c, 9, 51, 120
1, 189611, Note_on_c, 9, 51, 0
1, 189839, Note_on_c, 9, 38, 0
1, 189840, Note_on_c, 9, 51, 100
1, 189851, Note_on_c, 9, 51, 0
1, 190080, Note_on_c, 9, 51, 100
1, 190080, Note_on_c, 9, 36, 110
1, 190091, Note_on_c, 9, 51, 0
1, 190319, Note_on_c, 9, 36, 0
1, 190320, Note_on_c, 9, 51, 100
1, 190320, Note_on_c, 9, 36, 100
1, 190331, Note_on_c, 9, 51, 0
1, 190559, Note_on_c, 9, 36, 0
1, 190560, Note_on_c, 9, 38, 120
1, 190560, Note_on_c, 9, 51, 120
1, 190571, Note_on_c, 9, 51, 0
1, 190799, Note_on_c, 9, 38, 0
1, 190800, Note_on_c, 9, 51, 100
1, 190811, Note_on_c, 9, 51, 0
1, 191040, Note_on_c, 9, 51, 100
1, 191040, Note_on_c, 9, 36, 110
1, 191051, Note_on_c, 9, 51, 0
1, 191279, Note_on_c, 9, 36, 0
1, 191280, Note_on_c, 9, 51, 100
1, 191280, Note_on_c, 9, 36, 100
1, 191291, Note_on_c, 9, 51, 0
1, 191519, Note_on_c, 9, 36, 0
1, 191520, Note_on_c, 9, 38, 120
1, 191520, Note_on_c, 9, 51, 120
1, 191531, Note_on_c, 9, 51, 0
1, 191759, Note_on_c, 9, 38, 0
1, 191760, Note_on_c, 9, 51, 100
1, 191771, Note_on_c, 9, 51, 0
1, 192000, Note_on_c, 9, 51, 100
1, 192000, Note_on_c, 9, 36, 110
1, 192011, Note_on_c, 9, 51, 0
1, 192239, Note_on_c, 9, 36, 0
1, 192240, Note_on_c, 9, 51, 100
1, 192240, Note_on_c, 9, 36, 100
1, 192251, Note_on_c, 9, 51, 0
1, 192479, Note_on_c, 9, 36, 0
1, 192480, Note_on_c, 9, 38, 120
1, 192480, Note_on_c, 9, 51, 120
1, 192491, Note_on_c, 9, 51, 0
1, 192719, Note_on_c, 9, 38, 0
1, 192720, Note_on_c, 9, 51, 100
1, 192731, Note_on_c, 9, 51, 0
1, 192960, Note_on_c, 9, 51, 100
1, 192960, Note_on_c, 9, 36, 110
1, 192971, Note_on_c, 9, 51, 0
1, 193199, Note_on_c, 9, 36, 0
1, 193200, Note_on_c, 9, 51, 100
1, 193200, Note_on_c, 9, 36, 100
1, 193211, Note_on_c, 9, 51, 0
1, 193439, Note_on_c, 9, 36, 0
1, 193440, Note_on_c, 9, 38, 120
1, 193440, Note_on_c, 9, 51, 120
1, 193451, Note_on_c, 9, 51, 0
1, 193679, Note_on_c, 9, 38, 0
1, 193680, Note_on_c, 9, 51, 100
1, 193691, Note_on_c, 9, 51, 0
1, 193920, Note_on_c, 9, 51, 100
1, 193920, Note_on_c, 9, 36, 110
1, 193931, Note_on_c, 9, 51, 0
1, 194159, Note_on_c, 9, 36, 0
1, 194160, Note_on_c, 9, 51, 100
1, 194160, Note_on_c, 9, 36, 100
1, 194171, Note_on_c, 9, 51, 0
1, 194399, Note_on_c, 9, 36, 0
1, 194400, Note_on_c, 9, 38, 120
1, 194400, Note_on_c, 9, 51, 120
1, 194411, Note_on_c, 9, 51, 0
1, 194639, Note_on_c, 9, 38, 0
1, 194640, Note_on_c, 9, 51, 100
1, 194651, Note_on_c, 9, 51, 0
1, 194880, Note_on_c, 9, 51, 100
1, 194880, Note_on_c, 9, 36, 110
1, 194891, Note_on_c, 9, 51, 0
1, 195119, Note_on_c, 9, 36, 0
1, 195120, Note_on_c, 9, 51, 100
1, 195120, Note_on_c, 9, 36, 100
1, 195131, Note_on_c, 9, 51, 0
1, 195359, Note_on_c, 9, 36, 0
1, 195360, Note_on_c, 9, 38, 120
1, 195360, Note_on_c, 9, 51, 120
1, 195371, Note_on_c, 9, 51, 0
1, 195599, Note_on_c, 9, 38, 0
1, 195600, Note_on_c, 9, 51, 100
1, 195611, Note_on_c, 9, 51, 0
1, 195840, Note_on_c, 9, 51, 100
1, 195840, Note_on_c, 9, 36, 110
1, 195851, Note_on_c, 9, 51, 0
1, 196079, Note_on_c, 9, 36, 0
1, 196080, Note_on_c, 9, 51, 100
1, 196080, Note_on_c, 9, 36, 100
1, 196091, Note_on_c, 9, 51, 0
1, 196319, Note_on_c, 9, 36, 0
1, 196320, Note_on_c, 9, 38, 120
1, 196320, Note_on_c, 9, 51, 120
1, 196331, Note_on_c, 9, 51, 0
1, 196559, Note_on_c, 9, 38, 0
1, 196560, Note_on_c, 9, 51, 100
1, 196571, Note_on_c, 9, 51, 0
1, 196800, Note_on_c, 9, 51, 100
1, 196800, Note_on_c, 9, 36, 110
1, 196811, Note_on_c, 9, 51, 0
1, 197039, Note_on_c, 9, 36, 0
1, 197040, Note_on_c, 9, 51, 100
1, 197040, Note_on_c, 9, 36, 100
1, 197051, Note_on_c, 9, 51, 0
1, 197279, Note_on_c, 9, 36, 0
1, 197280, Note_on_c, 9, 38, 120
1, 197280, Note_on_c, 9, 51, 120
1, 197291, Note_on_c, 9, 51, 0
1, 197519, Note_on_c, 9, 38, 0
1, 197520, Note_on_c, 9, 51, 100
1, 197531, Note_on_c, 9, 51, 0
1, 197760, Note_on_c, 9, 51, 100
1, 197760, Note_on_c, 9, 36, 110
1, 197771, Note_on_c, 9, 51, 0
1, 197999, Note_on_c, 9, 36, 0
1, 198000, Note_on_c, 9, 51, 100
1, 198000, Note_on_c, 9, 36, 100
1, 198011, Note_on_c, 9, 51, 0
1, 198239, Note_on_c, 9, 36, 0
1, 198240, Note_on_c, 9, 38, 120
1, 198240, Note_on_c, 9, 51, 120
1, 198251, Note_on_c, 9, 51, 0
1, 198479, Note_on_c, 9, 38, 0
1, 198480, Note_on_c, 9, 51, 100
1, 198491, Note_on_c, 9, 51, 0
1, 198720, Note_on_c, 9, 51, 100
1, 198720, Note_on_c, 9, 36, 110
1, 198731, Note_on_c, 9, 51, 0
1, 198959, Note_on_c, 9, 36, 0
1, 198960, Note_on_c, 9, 51, 100
1, 198960, Note_on_c, 9, 36, 100
1, 198971, Note_on_c, 9, 51, 0
1, 199199, Note_on_c, 9, 36, 0
1, 199200, Note_on_c, 9, 38, 120
1, 199200, Note_on_c, 9, 51, 120
1, 199211, Note_on_c, 9, 51, 0
1, 199439, Note_on_c, 9, 38, 0
1, 199440, Note_on_c, 9, 51, 100
1, 199451, Note_on_c, 9, 51, 0
1, 199680, Note_on_c, 9, 51, 100
1, 199680, Note_on_c, 9, 36, 110
1, 199691, Note_on_c, 9, 51, 0
1, 199919, Note_on_c, 9, 36, 0
1, 199920, Note_on_c, 9, 51, 100
1, 199920, Note_on_c, 9, 36, 100
1, 199931, Note_on_c, 9, 51, 0
1, 200159, Note_on_c, 9, 36, 0
1, 200160, Note_on_c, 9, 38, 120
1, 200160, Note_on_c, 9, 51, 120
1, 200171, Note_on_c, 9, 51, 0
1, 200399, Note_on_c, 9, 38, 0
1, 200400, Note_on_c, 9, 51, 100
1, 200411, Note_on_c, 9, 51, 0
1, 200640, Note_on_c, 9, 51, 100
1, 200640, Note_on_c, 9, 36, 110
1, 200651, Note_on_c, 9, 51, 0
1, 200879, Note_on_c, 9, 36, 0
1, 200880, Note_on_c, 9, 51, 100
1, 200880, Note_on_c, 9, 36, 100
1, 200891, Note_on_c, 9, 51, 0
1, 201119, Note_on_c, 9, 36, 0
1, 201120, Note_on_c, 9, 38, 120
1, 201120, Note_on_c, 9, 51, 120
1, 201131, Note_on_c, 9, 51, 0
1, 201359, Note_on_c, 9, 38, 0
1, 201360, Note_on_c, 9, 51, 100
1, 201371, Note_on_c, 9, 51, 0
1, 201600, Note_on_c, 9, 38, 120
1, 201840, Note_on_c, 9, 36, 110
1, 202079, Note_on_c, 9, 38, 0
1, 202079, Note_on_c, 9, 36, 0
1, 202080, Note_on_c, 9, 36, 100
1, 202320, Note_on_c, 9, 38, 120
1, 202559, Note_on_c, 9, 36, 0
1, 202559, Note_on_c, 9, 38, 0
1, 202560, Note_on_c, 9, 36, 110
1, 202799, Note_on_c, 9, 36, 0
1, 202800, Note_on_c, 9, 36, 100
1, 203039, Note_on_c, 9, 36, 0
1, 203040, Note_on_c, 9, 38, 120
1, 203280, Note_on_c, 9, 36, 110
1, 203519, Note_on_c, 9, 38, 0
1, 203519, Note_on_c, 9, 36, 0
1, 203520, Note_on_c, 9, 57, 120
1, 203520, Note_on_c, 9, 36, 110
1, 203544, Note_on_c, 9, 57, 0
1, 203999, Note_on_c, 9, 36, 0
1, 204000, Note_on_c, 9, 38, 120
1, 204000, Note_on_c, 9, 57, 120
1, 204011, Note_on_c, 9, 57, 0
1, 204239, Note_on_c, 9, 38, 0
1, 204240, Note_on_c, 9, 51, 100
1, 204251, Note_on_c, 9, 51, 0
1, 204480, Note_on_c, 9, 51, 100
1, 204480, Note_on_c, 9, 36, 110
1, 204491, Note_on_c, 9, 51, 0
1, 204719, Note_on_c, 9, 36, 0
1, 204720, Note_on_c, 9, 51, 100
1, 204720, Note_on_c, 9, 36, 100
1, 204731, Note_on_c, 9, 51, 0
1, 204959, Note_on_c, 9, 36, 0
1, 204960, Note_on_c, 9, 38, 120
1, 204960, Note_on_c, 9, 51, 120
1, 204971, Note_on_c, 9, 51, 0
1, 205199, Note_on_c, 9, 38, 0
1, 205200, Note_on_c, 9, 51, 100
1, 205211, Note_on_c, 9, 51, 0
1, 205440, Note_on_c, 9, 51, 100
1, 205440, Note_on_c, 9, 36, 110
1, 205451, Note_on_c, 9, 51, 0
1, 205679, Note_on_c, 9, 36, 0
1, 205680, Note_on_c, 9, 51, 100
1, 205680, Note_on_c, 9, 36, 100
1, 205691, Note_on_c, 9, 51, 0
1, 205919, Note_on_c, 9, 36, 0
1, 205920, Note_on_c, 9, 38, 120
1, 205920, Note_on_c, 9, 51, 120
1, 205931, Note_on_c, 9, 51, 0
1, 206159, Note_on_c, 9, 38, 0
1, 206160, Note_on_c, 9, 51, 100
1, 206171, Note_on_c, 9, 51, 0
1, 206400, Note_on_c, 9, 51, 100
1, 206400, Note_on_c, 9, 36, 110
1, 206411, Note_on_c, 9, 51, 0
1, 206639, Note_on_c, 9, 36, 0
1, 206640, Note_on_c, 9, 51, 100
1, 206640, Note_on_c, 9, 36, 100
1, 206651, Note_on_c, 9, 51, 0
1, 206879, Note_on_c, 9, 36, 0
1, 206880, Note_on_c, 9, 38, 120
1, 206880, Note_on_c, 9, 51, 120
1, 206891, Note_on_c, 9, 51, 0
1, 207119, Note_on_c, 9, 38, 0
1, 207120, Note_on_c, 9, 51, 100
1, 207131, Note_on_c, 9, 51, 0
1, 207360, Note_on_c, 9, 57, 120
1, 207360, Note_on_c, 9, 36, 110
1, 207384, Note_on_c, 9, 57, 0
1, 207599, Note_on_c, 9, 36, 0
1, 207600, Note_on_c, 9, 36, 100
1, 207839, Note_on_c, 9, 36, 0
1, 207840, Note_on_c, 9, 38, 120
1, 207840, Note_on_c, 9, 51, 120
1, 207851, Note_on_c, 9, 51, 0
1, 208079, Note_on_c, 9, 38, 0
1, 208080, Note_on_c, 9, 51, 100
1, 208091, Note_on_c, 9, 51, 0
1, 208320, Note_on_c, 9, 51, 100
1, 208320, Note_on_c, 9, 36, 110
1, 208331, Note_on_c, 9, 51, 0
1, 208559, Note_on_c, 9, 36, 0
1, 208560, Note_on_c, 9, 51, 100
1, 208560, Note_on_c, 9, 36, 100
1, 208571, Note_on_c, 9, 51, 0
1, 208799, Note_on_c, 9, 36, 0
1, 208800, Note_on_c, 9, 38, 120
1, 208800, Note_on_c, 9, 51, 120
1, 208811, Note_on_c, 9, 51, 0
1, 209039, Note_on_c, 9, 38, 0
1, 209040, Note_on_c, 9, 51, 100
1, 209051, Note_on_c, 9, 51, 0
1, 209280, Note_on_c, 9, 51, 100
1, 209280, Note_on_c, 9, 36, 110
1, 209291, Note_on_c, 9, 51, 0
1, 209519, Note_on_c, 9, 36, 0
1, 209520, Note_on_c, 9, 51, 100
1, 209520, Note_on_c, 9, 36, 100
1, 209531, Note_on_c, 9, 51, 0
1, 209759, Note_on_c, 9, 36, 0
1, 209760, Note_on_c, 9, 38, 120
1, 209760, Note_on_c, 9, 51, 120
1, 209771, Note_on_c, 9, 51, 0
1, 209999, Note_on_c, 9, 38, 0
1, 210000, Note_on_c, 9, 51, 100
1, 210011, Note_on_c, 9, 51, 0
1, 210240, Note_on_c, 9, 51, 100
1, 210240, Note_on_c, 9, 36, 110
1, 210251, Note_on_c, 9, 51, 0
1, 210479, Note_on_c, 9, 36, 0
1, 210480, Note_on_c, 9, 51, 100
1, 210480, Note_on_c, 9, 36, 100
1, 210491, Note_on_c, 9, 51, 0
1, 210719, Note_on_c, 9, 36, 0
1, 210720, Note_on_c, 9, 38, 120
1, 210720, Note_on_c, 9, 51, 120
1, 210731, Note_on_c, 9, 51, 0
1, 210959, Note_on_c, 9, 38, 0
1, 210960, Note_on_c, 9, 51, 100
1, 210971, Note_on_c, 9, 51, 0
1, 211200, Note_on_c, 9, 57, 120
1, 211200, Note_on_c, 9, 36, 110
1, 211224, Note_on_c, 9, 57, 0
1, 211439, Note_on_c, 9, 36, 0
1, 211440, Note_on_c, 9, 36, 100
1, 211679, Note_on_c, 9, 36, 0
1, 211680, Note_on_c, 9, 38, 120
1, 211680, Note_on_c, 9, 51, 120
1, 211691, Note_on_c, 9, 51, 0
1, 211919, Note_on_c, 9, 38, 0
1, 211920, Note_on_c, 9, 51, 100
1, 211931, Note_on_c, 9, 51, 0
1, 212160, Note_on_c, 9, 51, 100
1, 212160, Note_on_c, 9, 36, 110
1, 212171, Note_on_c, 9, 51, 0
1, 212399, Note_on_c, 9, 36, 0
1, 212400, Note_on_c, 9, 51, 100
1, 212400, Note_on_c, 9, 36, 100
1, 212411, Note_on_c, 9, 51, 0
1, 212639, Note_on_c, 9, 36, 0
1, 212640, Note_on_c, 9, 38, 120
1, 212640, Note_on_c, 9, 51, 120
1, 212651, Note_on_c, 9, 51, 0
1, 212879, Note_on_c, 9, 38, 0
1, 212880, Note_on_c, 9, 51, 100
1, 212891, Note_on_c, 9, 51, 0
1, 213120, Note_on_c, 9, 51, 100
1, 213120, Note_on_c, 9, 36, 110
1, 213131, Note_on_c, 9, 51, 0
1, 213359, Note_on_c, 9, 36, 0
1, 213360, Note_on_c, 9, 51, 100
1, 213360, Note_on_c, 9, 36, 100
1, 213371, Note_on_c, 9, 51, 0
1, 213599, Note_on_c, 9, 36, 0
1, 213600, Note_on_c, 9, 38, 120
1, 213600, Note_on_c, 9, 51, 120
1, 213611, Note_on_c, 9, 51, 0
1, 213839, Note_on_c, 9, 38, 0
1, 213840, Note_on_c, 9, 51, 100
1, 213851, Note_on_c, 9, 51, 0
1, 214080, Note_on_c, 9, 51, 100
1, 214080, Note_on_c, 9, 36, 110
1, 214091, Note_on_c, 9, 51, 0
1, 214319, Note_on_c, 9, 36, 0
1, 214320, Note_on_c, 9, 51, 100
1, 214320, Note_on_c, 9, 36, 100
1, 214331, Note_on_c, 9, 51, 0
1, 214559, Note_on_c, 9, 36, 0
1, 214560, Note_on_c, 9, 38, 120
1, 214560, Note_on_c, 9, 51, 120
1, 214571, Note_on_c, 9, 51, 0
1, 214799, Note_on_c, 9, 38, 0
1, 214800, Note_on_c, 9, 51, 100
1, 214811, Note_on_c, 9, 51, 0
1, 215040, Note_on_c, 9, 57, 120
1, 215040, Note_on_c, 9, 36, 110
1, 215064, Note_on_c, 9, 57, 0
1, 215279, Note_on_c, 9, 36, 0
1, 215280, Note_on_c, 9, 36, 100
1, 215519, Note_on_c, 9, 36, 0
1, 215520, Note_on_c, 9, 38, 120
1, 215520, Note_on_c, 9, 51, 120
1, 215531, Note_on_c, 9, 51, 0
1, 215759, Note_on_c, 9, 38, 0
1, 215760, Note_on_c, 9, 51, 100
1, 215771, Note_on_c, 9, 51, 0
1, 216000, Note_on_c, 9, 51, 100
1, 216000, Note_on_c, 9, 36, 110
1, 216011, Note_on_c, 9, 51, 0
1, 216239, Note_on_c, 9, 36, 0
1, 216240, Note_on_c, 9, 51, 100
1, 216240, Note_on_c, 9, 36, 100
1, 216251, Note_on_c, 9, 51, 0
1, 216479, Note_on_c, 9, 36, 0
1, 216480, Note_on_c, 9, 38, 120
1, 216480, Note_on_c, 9, 51, 120
1, 216491, Note_on_c, 9, 51, 0
1, 216719, Note_on_c, 9, 38, 0
1, 216720, Note_on_c, 9, 51, 100
1, 216731, Note_on_c, 9, 51, 0
1, 216960, Note_on_c, 9, 51, 100
1, 216960, Note_on_c, 9, 36, 110
1, 216971, Note_on_c, 9, 51, 0
1, 217200, Note_on_c, 9, 38, 120
1, 217439, Note_on_c, 9, 36, 0
1, 217439, Note_on_c, 9, 38, 0
1, 217440, Note_on_c, 9, 51, 100
1, 217440, Note_on_c, 9, 36, 110
1, 217451, Note_on_c, 9, 51, 0
1, 217679, Note_on_c, 9, 36, 0
1, 217680, Note_on_c, 9, 51, 100
1, 217680, Note_on_c, 9, 36, 100
1, 217691, Note_on_c, 9, 51, 0
1, 217919, Note_on_c, 9, 36, 0
1, 217920, Note_on_c, 9, 38, 120
1, 218159, Note_on_c, 9, 38, 0
1, 218160, Note_on_c, 9, 51, 100
1, 218160, Note_on_c, 9, 36, 100
1, 218171, Note_on_c, 9, 51, 0
1, 218399, Note_on_c, 9, 36, 0
1, 218400, Note_on_c, 9, 38, 80
1, 218639, Note_on_c, 9, 38, 0
1, 218640, Note_on_c, 9, 38, 120
1, 218879, Note_on_c, 9, 38, 0
1, 218880, Note_on_c, 9, 57, 120
1, 218880, Note_on_c, 9, 36, 110
1, 218904, Note_on_c, 9, 57, 0
1, 219119, Note_on_c, 9, 36, 0
1, 219120, Note_on_c, 9, 36, 100
1, 219359, Note_on_c, 9, 36, 0
1, 219360, Note_on_c, 9, 38, 120
1, 219360, Note_on_c, 9, 57, 120
1, 219371, Note_on_c, 9, 57, 0
1, 219599, Note_on_c, 9, 38, 0
1, 219600, Note_on_c, 9, 51, 100
1, 219611, Note_on_c, 9, 51, 0
1, 219840, Note_on_c, 9, 51, 100
1, 219840, Note_on_c, 9, 36, 110
1, 219851, Note_on_c, 9, 51, 0
1, 220079, Note_on_c, 9, 36, 0
1, 220080, Note_on_c, 9, 51, 100
1, 220080, Note_on_c, 9, 36, 100
1, 220091, Note_on_c, 9, 51, 0
1, 220319, Note_on_c, 9, 36, 0
1, 220320, Note_on_c, 9, 38, 120
1, 220320, Note_on_c, 9, 51, 120
1, 220331, Note_on_c, 9, 51, 0
1, 220559, Note_on_c, 9, 38, 0
1, 220560, Note_on_c, 9, 51, 100
1, 220571, Note_on_c, 9, 51, 0
1, 220800, Note_on_c, 9, 51, 100
1, 220800, Note_on_c, 9, 36, 110
1, 220811, Note_on_c, 9, 51, 0
1, 221039, Note_on_c, 9, 36, 0
1, 221040, Note_on_c, 9, 51, 100
1, 221040, Note_on_c, 9, 36, 100
1, 221051, Note_on_c, 9, 51, 0
1, 221279, Note_on_c, 9, 36, 0
1, 221280, Note_on_c, 9, 38, 120
1, 221280, Note_on_c, 9, 57, 120
1, 221291, Note_on_c, 9, 57, 0
1, 221519, Note_on_c, 9, 38, 0
1, 221520, Note_on_c, 9, 51, 100
1, 221520, Note_on_c, 9, 36, 110
1, 221531, Note_on_c, 9, 51, 0
1, 221759, Note_on_c, 9, 36, 0
1, 221760, Note_on_c, 9, 38, 120
1, 221760, Note_on_c, 9, 57, 120
1, 221771, Note_on_c, 9, 57, 0
1, 221999, Note_on_c, 9, 38, 0
1, 222000, Note_on_c, 9, 51, 100
1, 222000, Note_on_c, 9, 36, 110
1, 222011, Note_on_c, 9, 51, 0
1, 222239, Note_on_c, 9, 36, 0
1, 222240, Note_on_c, 9, 38, 80
1, 222240, Note_on_c, 9, 57, 120
1, 222251, Note_on_c, 9, 57, 0
1, 222479, Note_on_c, 9, 38, 0
1, 222480, Note_on_c, 9, 38, 120
1, 222480, Note_on_c, 9, 51, 100
1, 222491, Note_on_c, 9, 51, 0
1, 222719, Note_on_c, 9, 38, 0
1, 222720, Note_on_c, 9, 57, 120
1, 222720, Note_on_c, 9, 36, 110
1, 222744, Note_on_c, 9, 57, 0
1, 222959, Note_on_c, 9, 36, 0
1, 222960, Note_on_c, 9, 36, 100
1, 223199, Note_on_c, 9, 36, 0
1, 223200, Note_on_c, 9, 38, 120
1, 223200, Note_on_c, 9, 57, 120
1, 223211, Note_on_c, 9, 57, 0
1, 223439, Note_on_c, 9, 38, 0
1, 223440, Note_on_c, 9, 51, 100
1, 223451, Note_on_c, 9, 51, 0
1, 223680, Note_on_c, 9, 51, 100
1, 223680, Note_on_c, 9, 36, 110
1, 223691, Note_on_c, 9, 51, 0
1, 223919, Note_on_c, 9, 36, 0
1, 223920, Note_on_c, 9, 51, 100
1, 223920, Note_on_c, 9, 36, 100
1, 223931, Note_on_c, 9, 51, 0
1, 224159, Note_on_c, 9, 36, 0
1, 224160, Note_on_c, 9, 38, 120
1, 224160, Note_on_c, 9, 51, 120
1, 224171, Note_on_c, 9, 51, 0
1, 224399, Note_on_c, 9, 38, 0
1, 224400, Note_on_c, 9, 51, 100
1, 224411, Note_on_c, 9, 51, 0
1, 224640, Note_on_c, 9, 51, 100
1, 224640, Note_on_c, 9, 36, 110
1, 224651, Note_on_c, 9, 51, 0
1, 224879, Note_on_c, 9, 36, 0
1, 224880, Note_on_c, 9, 51, 100
1, 224880, Note_on_c, 9, 36, 100
1, 224891, Note_on_c, 9, 51, 0
1, 225119, Note_on_c, 9, 36, 0
1, 225120, Note_on_c, 9, 38, 120
1, 225120, Note_on_c, 9, 57, 120
1, 225131, Note_on_c, 9, 57, 0
1, 225359, Note_on_c, 9, 38, 0
1, 225360, Note_on_c, 9, 51, 100
1, 225360, Note_on_c, 9, 36, 110
1, 225371, Note_on_c, 9, 51, 0
1, 225599, Note_on_c, 9, 36, 0
1, 225600, Note_on_c, 9, 38, 120
1, 225600, Note_on_c, 9, 57, 120
1, 225611, Note_on_c, 9, 57, 0
1, 225839, Note_on_c, 9, 38, 0
1, 225840, Note_on_c, 9, 51, 100
1, 225840, Note_on_c, 9, 36, 110
1, 225851, Note_on_c, 9, 51, 0
1, 226079, Note_on_c, 9, 36, 0
1, 226080, Note_on_c, 9, 38, 80
1, 226080, Note_on_c, 9, 57, 120
1, 226091, Note_on_c, 9, 57, 0
1, 226319, Note_on_c, 9, 38, 0
1, 226320, Note_on_c, 9, 38, 120
1, 226320, Note_on_c, 9, 51, 100
1, 226331, Note_on_c, 9, 51, 0
1, 226559, Note_on_c, 9, 38, 0
1, 226560, Note_on_c, 9, 57, 120
1, 226560, Note_on_c, 9, 36, 110
1, 226584, Note_on_c, 9, 57, 0
1, 226799, Note_on_c, 9, 36, 0
1, 226800, Note_on_c, 9, 36, 100
1, 227039, Note_on_c, 9, 36, 0
1, 227040, Note_on_c, 9, 38, 120
1, 227040, Note_on_c, 9, 57, 120
1, 227051, Note_on_c, 9, 57, 0
1, 227279, Note_on_c, 9, 38, 0
1, 227280, Note_on_c, 9, 51, 100
1, 227291, Note_on_c, 9, 51, 0
1, 227520, Note_on_c, 9, 51, 100
1, 227520, Note_on_c, 9, 36, 110
1, 227531, Note_on_c, 9, 51, 0
1, 227759, Note_on_c, 9, 36, 0
1, 227760, Note_on_c, 9, 51, 100
1, 227760, Note_on_c, 9, 36, 100
1, 227771, Note_on_c, 9, 51, 0
1, 227999, Note_on_c, 9, 36, 0
1, 228000, Note_on_c, 9, 38, 120
1, 228000, Note_on_c, 9, 51, 120
1, 228011, Note_on_c, 9, 51, 0
1, 228239, Note_on_c, 9, 38, 0
1, 228240, Note_on_c, 9, 51, 100
1, 228251, Note_on_c, 9, 51, 0
1, 228480, Note_on_c, 9, 51, 100
1, 228480, Note_on_c, 9, 36, 110
1, 228491, Note_on_c, 9, 51, 0
1, 228719, Note_on_c, 9, 36, 0
1, 228720, Note_on_c, 9, 51, 100
1, 228720, Note_on_c, 9, 36, 100
1, 228731, Note_on_c, 9, 51, 0
1, 228959, Note_on_c, 9, 36, 0
1, 228960, Note_on_c, 9, 38, 120
1, 228960, Note_on_c, 9, 57, 120
1, 228971, Note_on_c, 9, 57, 0
1, 229199, Note_on_c, 9, 38, 0
1, 229200, Note_on_c, 9, 51, 100
1, 229200, Note_on_c, 9, 36, 110
1, 229211, Note_on_c, 9, 51, 0
1, 229439, Note_on_c, 9, 36, 0
1, 229440, Note_on_c, 9, 38, 120
1, 229440, Note_on_c, 9, 57, 120
1, 229451, Note_on_c, 9, 57, 0
1, 229679, Note_on_c, 9, 38, 0
1, 229680, Note_on_c, 9, 51, 100
1, 229680, Note_on_c, 9, 36, 110
1, 229691, Note_on_c, 9, 51, 0
1, 229919, Note_on_c, 9, 36, 0
1, 229920, Note_on_c, 9, 38, 80
1, 229920, Note_on_c, 9, 57, 120
1, 229931, Note_on_c, 9, 57, 0
1, 230159, Note_on_c, 9, 38, 0
1, 230160, Note_on_c, 9, 38, 120
1, 230160, Note_on_c, 9, 51, 100
1, 230171, Note_on_c, 9, 51, 0
1, 230399, Note_on_c, 9, 38, 0
1, 230400, Note_on_c, 9, 57, 120
1, 230400, Note_on_c, 9, 36, 110
1, 230424, Note_on_c, 9, 57, 0
1, 230639, Note_on_c, 9, 36, 0
1, 230640, Note_on_c, 9, 36, 100
1, 230879, Note_on_c, 9, 36, 0
1, 230880, Note_on_c, 9, 38, 120
1, 230880, Note_on_c, 9, 57, 120
1, 230891, Note_on_c, 9, 57, 0
1, 231119, Note_on_c, 9, 38, 0
1, 231120, Note_on_c, 9, 51, 100
1, 231131, Note_on_c, 9, 51, 0
1, 231360, Note_on_c, 9, 51, 100
1, 231360, Note_on_c, 9, 36, 110
1, 231371, Note_on_c, 9, 51, 0
1, 231599, Note_on_c, 9, 36, 0
1, 231600, Note_on_c, 9, 51, 100
1, 231600, Note_on_c, 9, 36, 100
1, 231611, Note_on_c, 9, 51, 0
1, 231839, Note_on_c, 9, 36, 0
1, 231840, Note_on_c, 9, 38, 120
1, 231840, Note_on_c, 9, 51, 120
1, 231851, Note_on_c, 9, 51, 0
1, 232079, Note_on_c, 9, 38, 0
1, 232080, Note_on_c, 9, 51, 100
1, 232091, Note_on_c, 9, 51, 0
1, 232320, Note_on_c, 9, 51, 100
1, 232320, Note_on_c, 9, 36, 110
1, 232331, Note_on_c, 9, 51, 0
1, 232559, Note_on_c, 9, 36, 0
1, 232560, Note_on_c, 9, 51, 100
1, 232560, Note_on_c, 9, 36, 100
1, 232571, Note_on_c, 9, 51, 0
1, 232799, Note_on_c, 9, 36, 0
1, 232800, Note_on_c, 9, 38, 120
1, 232800, Note_on_c, 9, 57, 120
1, 232811, Note_on_c, 9, 57, 0
1, 233039, Note_on_c, 9, 38, 0
1, 233040, Note_on_c, 9, 51, 100
1, 233040, Note_on_c, 9, 36, 110
1, 233051, Note_on_c, 9, 51, 0
1, 233279, Note_on_c, 9, 36, 0
1, 233280, Note_on_c, 9, 38, 120
1, 233280, Note_on_c, 9, 57, 120
1, 233291, Note_on_c, 9, 57, 0
1, 233519, Note_on_c, 9, 38, 0
1, 233520, Note_on_c, 9, 51, 100
1, 233520, Note_on_c, 9, 36, 110
1, 233531, Note_on_c, 9, 51, 0
1, 233759, Note_on_c, 9, 36, 0
1, 233760, Note_on_c, 9, 38, 80
1, 233760, Note_on_c, 9, 57, 120
1, 233771, Note_on_c, 9, 57, 0
1, 233999, Note_on_c, 9, 38, 0
1, 234000, Note_on_c, 9, 38, 120
1, 234000, Note_on_c, 9, 51, 100
1, 234011, Note_on_c, 9, 51, 0
1, 234239, Note_on_c, 9, 38, 0
1, 234240, Note_on_c, 9, 57, 120
1, 234240, Note_on_c, 9, 36, 110
1, 234251, Note_on_c, 9, 57, 0
1, 234480, Note_on_c, 9, 51, 100
1, 234491, Note_on_c, 9, 51, 0
1, 234719, Note_on_c, 9, 36, 0
1, 234720, Note_on_c, 9, 38, 120
1, 234720, Note_on_c, 9, 51, 120
1, 234731, Note_on_c, 9, 51, 0
1, 234959, Note_on_c, 9, 38, 0
1, 234960, Note_on_c, 9, 57, 120
1, 234960, Note_on_c, 9, 36, 110
1, 234971, Note_on_c, 9, 57, 0
1, 235199, Note_on_c, 9, 36, 0
1, 235440, Note_on_c, 9, 51, 100
1, 235440, Note_on_c, 9, 36, 100
1, 235451, Note_on_c, 9, 51, 0
1, 235679, Note_on_c, 9, 36, 0
1, 235680, Note_on_c, 9, 38, 120
1, 235680, Note_on_c, 9, 57, 120
1, 235691, Note_on_c, 9, 57, 0
1, 235919, Note_on_c, 9, 38, 0
1, 235920, Note_on_c, 9, 51, 100
1, 235931, Note_on_c, 9, 51, 0
1, 236160, Note_on_c, 9, 51, 100
1, 236160, Note_on_c, 9, 36, 110
1, 236165, Note_on_c, 9, 51, 0
1, 236280, Note_on_c, 9, 38, 100
1, 236399, Note_on_c, 9, 38, 0
1, 236400, Note_on_c, 9, 38, 105
1, 236519, Note_on_c, 9, 38, 0
1, 236520, Note_on_c, 9, 38, 110
1, 236639, Note_on_c, 9, 36, 0
1, 236639, Note_on_c, 9, 38, 0
1, 236640, Note_on_c, 9, 38, 115
1, 236759, Note_on_c, 9, 38, 0
1, 236760, Note_on_c, 9, 38, 120
1, 236879, Note_on_c, 9, 38, 0
1, 236880, Note_on_c, 9, 47, 95
1, 236999, Note_on_c, 9, 47, 0
1, 237000, Note_on_c, 9, 47, 100
1, 237119, Note_on_c, 9, 47, 0
1, 237120, Note_on_c, 9, 47, 105
1, 237239, Note_on_c, 9, 47, 0
1, 237240, Note_on_c, 9, 47, 110
1, 237359, Note_on_c, 9, 47, 0
1, 237360, Note_on_c, 9, 47, 115
1, 237479, Note_on_c, 9, 47, 0
1, 237480, Note_on_c, 9, 47, 120
1, 237599, Note_on_c, 9, 47, 0
1, 237600, Note_on_c, 9, 43, 90
1, 237719, Note_on_c, 9, 43, 0
1, 237720, Note_on_c, 9, 43, 100
1, 237839, Note_on_c, 9, 43, 0
1, 237840, Note_on_c, 9, 43, 110
1, 237959, Note_on_c, 9, 43, 0
1, 237960, Note_on_c, 9, 43, 120
1, 238079, Note_on_c, 9, 43, 0
1, 238080, Note_on_c, 9, 57, 120
1, 238080, Note_on_c, 9, 36, 110
1, 238091, Note_on_c, 9, 57, 0
1, 238320, Note_on_c, 9, 51, 100
1, 238331, Note_on_c, 9, 51, 0
1, 238559, Note_on_c, 9, 36, 0
1, 238560, Note_on_c, 9, 38, 120
1, 238560, Note_on_c, 9, 51, 120
1, 238571, Note_on_c, 9, 51, 0
1, 238799, Note_on_c, 9, 38, 0
1, 238800, Note_on_c, 9, 57, 120
1, 238800, Note_on_c, 9, 36, 110
1, 238811, Note_on_c, 9, 57, 0
1, 239039, Note_on_c, 9, 36, 0
1, 239280, Note_on_c, 9, 51, 100
1, 239280, Note_on_c, 9, 36, 100
1, 239291, Note_on_c, 9, 51, 0
1, 239519, Note_on_c, 9, 36, 0
1, 239520, Note_on_c, 9, 38, 120
1, 239520, Note_on_c, 9, 57, 120
1, 239531, Note_on_c, 9, 57, 0
1, 239759, Note_on_c, 9, 38, 0
1, 239760, Note_on_c, 9, 51, 100
1, 239771, Note_on_c, 9, 51, 0
1, 240000, Note_on_c, 9, 47, 110
1, 240119, Note_on_c, 9, 47, 0
1, 240120, Note_on_c, 9, 47, 80
1, 240239, Note_on_c, 9, 47, 0
1, 240240, Note_on_c, 9, 47, 120
1, 240479, Note_on_c, 9, 47, 0
1, 240480, Note_on_c, 9, 47, 110
1, 240599, Note_on_c, 9, 47, 0
1, 240600, Note_on_c, 9, 47, 80
1, 240719, Note_on_c, 9, 47, 0
1, 240720, Note_on_c, 9, 47, 120
1, 240959, Note_on_c, 9, 47, 0
1, 240960, Note_on_c, 9, 43, 110
1, 241079, Note_on_c, 9, 43, 0
1, 241080, Note_on_c, 9, 43, 80
1, 241199, Note_on_c, 9, 43, 0
1, 241200, Note_on_c, 9, 43, 120
1, 241439, Note_on_c, 9, 43, 0
1, 241440, Note_on_c, 9, 43, 110
1, 241559, Note_on_c, 9, 43, 0
1, 241560, Note_on_c, 9, 43, 80
1, 241679, Note_on_c, 9, 43, 0
1, 241680, Note_on_c, 9, 43, 120
1, 241919, Note_on_c, 9, 43, 0
1, 241920, Note_on_c, 9, 57, 120
1, 241920, Note_on_c, 9, 36, 110
1, 241931, Note_on_c, 9, 57, 0
1, 242160, Note_on_c, 9, 51, 100
1, 242171, Note_on_c, 9, 51, 0
1, 242399, Note_on_c, 9, 36, 0
1, 242400, Note_on_c, 9, 38, 120
1, 242400, Note_on_c, 9, 51, 120
1, 242411, Note_on_c, 9, 51, 0
1, 242639, Note_on_c, 9, 38, 0
1, 242640, Note_on_c, 9, 57, 120
1, 242640, Note_on_c, 9, 36, 110
1, 242651, Note_on_c, 9, 57, 0
1, 242879, Note_on_c, 9, 36, 0
1, 243120, Note_on_c, 9, 51, 100
1, 243120, Note_on_c, 9, 36, 100
1, 243131, Note_on_c, 9, 51, 0
1, 243359, Note_on_c, 9, 36, 0
1, 243360, Note_on_c, 9, 38, 120
1, 243360, Note_on_c, 9, 57, 120
1, 243371, Note_on_c, 9, 57, 0
1, 243599, Note_on_c, 9, 38, 0
1, 243600, Note_on_c, 9, 51, 100
1, 243611, Note_on_c, 9, 51, 0
1, 243840, Note_on_c, 9, 43, 110
1, 243959, Note_on_c, 9, 43, 0
1, 243960, Note_on_c, 9, 43, 80
1, 244079, Note_on_c, 9, 43, 0
1, 244080, Note_on_c, 9, 43, 120
1, 244319, Note_on_c, 9, 43, 0
1, 244320, Note_on_c, 9, 43, 110
1, 244439, Note_on_c, 9, 43, 0
1, 244440, Note_on_c, 9, 43, 80
1, 244559, Note_on_c, 9, 43, 0
1, 244560, Note_on_c, 9, 43, 120
1, 244799, Note_on_c, 9, 43, 0
1, 244800, Note_on_c, 9, 47, 110
1, 244919, Note_on_c, 9, 47, 0
1, 244920, Note_on_c, 9, 47, 80
1, 245039, Note_on_c, 9, 47, 0
1, 245040, Note_on_c, 9, 47, 120
1, 245279, Note_on_c, 9, 47, 0
1, 245280, Note_on_c, 9, 47, 110
1, 245399, Note_on_c, 9, 47, 0
1, 245400, Note_on_c, 9, 47, 80
1, 245519, Note_on_c, 9, 47, 0
1, 245520, Note_on_c, 9, 47, 120
1, 245759, Note_on_c, 9, 47, 0
1, 245760, Note_on_c, 9, 57, 120
1, 245760, Note_on_c, 9, 36, 110
1, 245768, Tempo, 447761
1, 245771, Note_on_c, 9, 57, 0
1, 245816, Tempo, 454545
1, 245888, Tempo, 458015
1, 245896, Tempo, 461538
1, 245920, Tempo, 465116
1, 245936, Tempo, 468750
1, 245952, Tempo, 476190
1, 245984, Tempo, 480000
1, 246000, Note_on_c, 9, 51, 100
1, 246011, Note_on_c, 9, 51, 0
1, 246032, Tempo, 487805
1, 246080, Tempo, 491803
1, 246144, Tempo, 500000
1, 246239, Note_on_c, 9, 36, 0
1, 246240, Tempo, 508475
1, 246240, Note_on_c, 9, 38, 120
1, 246240, Note_on_c, 9, 51, 120
1, 246250, Note_on_c, 9, 51, 0
1, 246304, Tempo, 512821
1, 246352, Tempo, 517241
1, 246448, Tempo, 521739
1, 246479, Note_on_c, 9, 38, 0
1, 246480, Note_on_c, 9, 57, 120
1, 246480, Note_on_c, 9, 36, 110
1, 246490, Note_on_c, 9, 57, 0
1, 246496, Tempo, 530973
1, 246584, Tempo, 535714
1, 246664, Tempo, 545455
1, 246719, Note_on_c, 9, 36, 0
1, 246720, Note_on_c, 9, 51, 100
1, 246728, Tempo, 550459
1, 246729, Note_on_c, 9, 51, 0
1, 246776, Tempo, 555556
1, 246840, Tempo, 560748
1, 246904, Tempo, 566038
1, 246968, Tempo, 576923
1, 247040, Note_on_c, 9, 38, 120
1, 247079, Note_on_c, 9, 38, 0
1, 247112, Tempo, 582524
1, 247160, Tempo, 588235
1, 247200, Note_on_c, 9, 38, 120
1, 247208, Tempo, 594059
1, 247288, Tempo, 600000
1, 247368, Tempo, 618557
1, 247416, Tempo, 625000
1, 247439, Note_on_c, 9, 38, 0
1, 247440, Note_on_c, 9, 57, 120
1, 247440, Note_on_c, 9, 36, 110
1, 247448, Note_on_c, 9, 57, 0
1, 247544, Tempo, 638298
1, 247592, Tempo, 645161
1, 247679, Note_on_c, 9, 36, 0
1, 247688, Tempo, 659341
1, 247752, Tempo, 666667
1, 247832, Tempo, 674157
1, 247912, Tempo, 681818
1, 247976, Tempo, 697674
1, 247992, Tempo, 705882
1, 248024, Tempo, 722892
1, 248072, Tempo, 731707
1, 248112, Tempo, 750000
1, 248176, Tempo, 769231
1, 248224, Tempo, 779221
1, 248248, Tempo, 789474
1, 248312, Tempo, 800000
1, 248408, Tempo, 821918
1, 248456, Tempo, 833333
1, 248520, Tempo, 845070
1, 248568, Tempo, 869565
1, 248580, Note_on_c, 9, 47, 110
1, 248639, Note_on_c, 9, 47, 0
1, 248640, Note_on_c, 9, 47, 80
1, 248712, Tempo, 895522
1, 248759, Note_on_c, 9, 47, 0
1, 248760, Note_on_c, 9, 47, 82
1, 248819, Note_on_c, 9, 47, 0
1, 248820, Note_on_c, 9, 47, 82
1, 248848, Tempo, 923077
1, 248879, Note_on_c, 9, 47, 0
1, 248896, Tempo, 937500
1, 248940, Note_on_c, 9, 47, 90
1, 248960, Tempo, 967742
1, 249008, Tempo, 983607
1, 249056, Tempo, 1000000
1, 249059, Note_on_c, 9, 47, 0
1, 249060, Note_on_c, 9, 47, 100
1, 249112, Tempo, 1016949
1, 249119, Note_on_c, 9, 47, 0
1, 249120, Note_on_c, 9, 38, 80
1, 249160, Tempo, 1052632
1, 249179, Note_on_c, 9, 38, 0
1, 249180, Note_on_c, 9, 38, 82
1, 249224, Tempo, 1071429
1, 249239, Note_on_c, 9, 38, 0
1, 249240, Note_on_c, 9, 38, 84
1, 249272, Tempo, 1090909
1, 249312, Tempo, 1111111
1, 249328, Tempo, 1132075
1, 249360, Tempo, 1153846
1, 249360, Note_on_c, 9, 36, 110
1, 249408, Tempo, 1200000
1, 249440, Tempo, 1250000
1, 249488, Tempo, 1304348
1, 249512, Tempo, 1333333
1, 249539, Note_on_c, 9, 36, 0
1, 249540, Note_on_c, 9, 36, 100
1, 249544, Tempo, 1363636
1, 249552, Tempo, 1428571
1, 249592, Tempo, 1500000
1, 249599, Note_on_c, 9, 38, 0
1, 249599, Note_on_c, 9, 36, 0
1, 249600, Note_on_c, 9, 57, 120
1, 249600, Note_on_c, 9, 36, 110
1, 249606, Note_on_c, 9, 57, 0
1, 249608, Tempo, 1578947
1, 250079, Note_on_c, 9, 36, 0
1, 250080, End_track
0, 0, End_of_file
