0, 0, Header, 1, 1, 480
1, 0, Start_track
1, 0, Title_t, "Drumset"
1, 0, Time_signature, 4, 2, 24, 8
1, 0, Key_signature, 0, "major"
1, 0, Tempo, 582524
1, 0, Control_c, 9, 121, 0
1, 0, Program_c, 9, 0
1, 0, Control_c, 9, 7, 100
1, 0, Control_c, 9, 10, 64
1, 0, Control_c, 9, 91, 0
1, 0, Control_c, 9, 93, 0
1, 0, MIDI_port, 1
1, 1920, Note_on_c, 9, 36, 107
1, 2279, Note_on_c, 9, 36, 0
1, 2280, Note_on_c, 9, 44, 90
1, 2283, Note_on_c, 9, 44, 0
1, 2400, Note_on_c, 9, 37, 107
1, 2400, Note_on_c, 9, 38, 107
1, 2400, Note_on_c, 9, 40, 107
1, 2400, Note_on_c, 9, 42, 107
1, 2418, Note_on_c, 9, 37, 0
1, 2418, Note_on_c, 9, 42, 0
1, 2879, Note_on_c, 9, 38, 0
1, 2879, Note_on_c, 9, 40, 0
1, 2880, Note_on_c, 9, 36, 107
1, 3119, Note_on_c, 9, 36, 0
1, 3120, Note_on_c, 9, 36, 107
1, 3240, Note_on_c, 9, 46, 90
1, 3243, Note_on_c, 9, 46, 0
1, 3359, Note_on_c, 9, 36, 0
1, 3360, Note_on_c, 9, 37, 107
1, 3360, Note_on_c, 9, 38, 107
1, 3360, Note_on_c, 9, 40, 107
1, 3360, Note_on_c, 9, 42, 107
1, 3378, Note_on_c, 9, 37, 0
1, 3378, Note_on_c, 9, 42, 0
1, 3839, Note_on_c, 9, 38, 0
1, 3839, Note_on_c, 9, 40, 0
1, 3840, Note_on_c, 9, 36, 107
1, 4199, Note_on_c, 9, 36, 0
1, 4200, Note_on_c, 9, 44, 90
1, 4203, Note_on_c, 9, 44, 0
1, 4320, Note_on_c, 9, 37, 107
1, 4320, Note_on_c, 9, 38, 107
1, 4320, Note_on_c, 9, 40, 107
1, 4320, Note_on_c, 9, 42, 107
1, 4338, Note_on_c, 9, 37, 0
1, 4338, Note_on_c, 9, 42, 0
1, 4799, Note_on_c, 9, 38, 0
1, 4799, Note_on_c, 9, 40, 0
1, 4800, Note_on_c, 9, 36, 107
1, 5039, Note_on_c, 9, 36, 0
1, 5040, Note_on_c, 9, 36, 107
1, 5160, Note_on_c, 9, 46, 90
1, 5163, Note_on_c, 9, 46, 0
1, 5279, Note_on_c, 9, 36, 0
1, 5280, Note_on_c, 9, 37, 107
1, 5280, Note_on_c, 9, 38, 107
1, 5280, Note_on_c, 9, 40, 107
1, 5280, Note_on_c, 9, 42, 107
1, 5298, Note_on_c, 9, 37, 0
1, 5298, Note_on_c, 9, 42, 0
1, 5759, Note_on_c, 9, 38, 0
1, 5759, Note_on_c, 9, 40, 0
1, 5760, Note_on_c, 9, 36, 107
1, 6119, Note_on_c, 9, 36, 0
1, 6120, Note_on_c, 9, 44, 90
1, 6123, Note_on_c, 9, 44, 0
1, 6240, Note_on_c, 9, 37, 107
1, 6240, Note_on_c, 9, 38, 107
1, 6240, Note_on_c, 9, 40, 107
1, 6240, Note_on_c, 9, 42, 107
1, 6258, Note_on_c, 9, 37, 0
1, 6258, Note_on_c, 9, 42, 0
1, 6719, Note_on_c, 9, 38, 0
1, 6719, Note_on_c, 9, 40, 0
1, 6720, Note_on_c, 9, 36, 107
1, 6959, Note_on_c, 9, 36, 0
1, 6960, Note_on_c, 9, 36, 107
1, 7080, Note_on_c, 9, 46, 90
1, 7083, Note_on_c, 9, 46, 0
1, 7199, Note_on_c, 9, 36, 0
1, 7200, Note_on_c, 9, 37, 107
1, 7200, Note_on_c, 9, 38, 107
1, 7200, Note_on_c, 9, 40, 107
1, 7200, Note_on_c, 9, 42, 107
1, 7218, Note_on_c, 9, 37, 0
1, 7218, Note_on_c, 9, 42, 0
1, 7679, Note_on_c, 9, 38, 0
1, 7679, Note_on_c, 9, 40, 0
1, 7680, Note_on_c, 9, 36, 107
1, 8039, Note_on_c, 9, 36, 0
1, 8040, Note_on_c, 9, 44, 90
1, 8043, Note_on_c, 9, 44, 0
1, 8160, Note_on_c, 9, 37, 107
1, 8160, Note_on_c, 9, 38, 107
1, 8160, Note_on_c, 9, 40, 107
1, 8160, Note_on_c, 9, 42, 107
1, 8178, Note_on_c, 9, 37, 0
1, 8178, Note_on_c, 9, 42, 0
1, 8639, Note_on_c, 9, 38, 0
1, 8639, Note_on_c, 9, 40, 0
1, 8640, Note_on_c, 9, 36, 107
1, 8879, Note_on_c, 9, 36, 0
1, 8880, Note_on_c, 9, 36, 107
1, 9000, Note_on_c, 9, 46, 90
1, 9003, Note_on_c, 9, 46, 0
1, 9119, Note_on_c, 9, 36, 0
1, 9120, Note_on_c, 9, 37, 107
1, 9120, Note_on_c, 9, 38, 107
1, 9120, Note_on_c, 9, 40, 107
1, 9120, Note_on_c, 9, 42, 107
1, 9138, Note_on_c, 9, 37, 0
1, 9138, Note_on_c, 9, 42, 0
1, 9599, Note_on_c, 9, 38, 0
1, 9599, Note_on_c, 9, 40, 0
1, 9600, Note_on_c, 9, 36, 107
1, 9959, Note_on_c, 9, 36, 0
1, 9960, Note_on_c, 9, 44, 90
1, 9963, Note_on_c, 9, 44, 0
1, 10080, Note_on_c, 9, 37, 107
1, 10080, Note_on_c, 9, 38, 107
1, 10080, Note_on_c, 9, 40, 107
1, 10080, Note_on_c, 9, 42, 107
1, 10098, Note_on_c, 9, 37, 0
1, 10098, Note_on_c, 9, 42, 0
1, 10559, Note_on_c, 9, 38, 0
1, 10559, Note_on_c, 9, 40, 0
1, 10560, Note_on_c, 9, 36, 107
1, 10799, Note_on_c, 9, 36, 0
1, 10800, Note_on_c, 9, 36, 107
1, 10920, Note_on_c, 9, 46, 90
1, 10923, Note_on_c, 9, 46, 0
1, 11039, Note_on_c, 9, 36, 0
1, 11040, Note_on_c, 9, 37, 107
1, 11040, Note_on_c, 9, 38, 107
1, 11040, Note_on_c, 9, 40, 107
1, 11040, Note_on_c, 9, 42, 107
1, 11058, Note_on_c, 9, 37, 0
1, 11058, Note_on_c, 9, 42, 0
1, 11519, Note_on_c, 9, 38, 0
1, 11519, Note_on_c, 9, 40, 0
1, 11520, Note_on_c, 9, 36, 107
1, 11879, Note_on_c, 9, 36, 0
1, 11880, Note_on_c, 9, 44, 90
1, 11883, Note_on_c, 9, 44, 0
1, 12000, Note_on_c, 9, 37, 107
1, 12000, Note_on_c, 9, 38, 107
1, 12000, Note_on_c, 9, 40, 107
1, 12000, Note_on_c, 9, 42, 107
1, 12018, Note_on_c, 9, 37, 0
1, 12018, Note_on_c, 9, 42, 0
1, 12479, Note_on_c, 9, 38, 0
1, 12479, Note_on_c, 9, 40, 0
1, 12480, Note_on_c, 9, 36, 107
1, 12719, Note_on_c, 9, 36, 0
1, 12720, Note_on_c, 9, 36, 107
1, 12840, Note_on_c, 9, 46, 90
1, 12843, Note_on_c, 9, 46, 0
1, 12959, Note_on_c, 9, 36, 0
1, 12960, Note_on_c, 9, 37, 107
1, 12960, Note_on_c, 9, 38, 107
1, 12960, Note_on_c, 9, 40, 107
1, 12960, Note_on_c, 9, 42, 107
1, 12978, Note_on_c, 9, 37, 0
1, 12978, Note_on_c, 9, 42, 0
1, 13439, Note_on_c, 9, 38, 0
1, 13439, Note_on_c, 9, 40, 0
1, 13440, Note_on_c, 9, 36, 107
1, 13799, Note_on_c, 9, 36, 0
1, 13800, Note_on_c, 9, 44, 90
1, 13803, Note_on_c, 9, 44, 0
1, 13920, Note_on_c, 9, 37, 107
1, 13920, Note_on_c, 9, 38, 107
1, 13920, Note_on_c, 9, 40, 107
1, 13920, Note_on_c, 9, 42, 107
1, 13938, Note_on_c, 9, 37, 0
1, 13938, Note_on_c, 9, 42, 0
1, 14399, Note_on_c, 9, 38, 0
1, 14399, Note_on_c, 9, 40, 0
1, 14400, Note_on_c, 9, 36, 107
1, 14639, Note_on_c, 9, 36, 0
1, 14640, Note_on_c, 9, 36, 107
1, 14760, Note_on_c, 9, 46, 90
1, 14763, Note_on_c, 9, 46, 0
1, 14879, Note_on_c, 9, 36, 0
1, 14880, Note_on_c, 9, 37, 107
1, 14880, Note_on_c, 9, 38, 107
1, 14880, Note_on_c, 9, 40, 107
1, 14880, Note_on_c, 9, 42, 107
1, 14898, Note_on_c, 9, 37, 0
1, 14898, Note_on_c, 9, 42, 0
1, 15359, Note_on_c, 9, 38, 0
1, 15359, Note_on_c, 9, 40, 0
1, 15360, Note_on_c, 9, 36, 107
1, 15719, Note_on_c, 9, 36, 0
1, 15720, Note_on_c, 9, 44, 90
1, 15723, Note_on_c, 9, 44, 0
1, 15840, Note_on_c, 9, 37, 107
1, 15840, Note_on_c, 9, 38, 107
1, 15840, Note_on_c, 9, 40, 107
1, 15840, Note_on_c, 9, 42, 107
1, 15858, Note_on_c, 9, 37, 0
1, 15858, Note_on_c, 9, 42, 0
1, 16319, Note_on_c, 9, 38, 0
1, 16319, Note_on_c, 9, 40, 0
1, 16320, Note_on_c, 9, 36, 107
1, 16559, Note_on_c, 9, 36, 0
1, 16560, Note_on_c, 9, 36, 107
1, 16680, Note_on_c, 9, 46, 90
1, 16683, Note_on_c, 9, 46, 0
1, 16799, Note_on_c, 9, 36, 0
1, 16800, Note_on_c, 9, 37, 107
1, 16800, Note_on_c, 9, 38, 107
1, 16800, Note_on_c, 9, 40, 107
1, 16800, Note_on_c, 9, 42, 107
1, 16818, Note_on_c, 9, 37, 0
1, 16818, Note_on_c, 9, 42, 0
1, 17279, Note_on_c, 9, 38, 0
1, 17279, Note_on_c, 9, 40, 0
1, 17280, Note_on_c, 9, 36, 107
1, 17639, Note_on_c, 9, 36, 0
1, 17640, Note_on_c, 9, 44, 90
1, 17643, Note_on_c, 9, 44, 0
1, 17760, Note_on_c, 9, 37, 107
1, 17760, Note_on_c, 9, 38, 107
1, 17760, Note_on_c, 9, 40, 107
1, 17760, Note_on_c, 9, 42, 107
1, 17778, Note_on_c, 9, 37, 0
1, 17778, Note_on_c, 9, 42, 0
1, 18239, Note_on_c, 9, 38, 0
1, 18239, Note_on_c, 9, 40, 0
1, 18240, Note_on_c, 9, 36, 107
1, 18479, Note_on_c, 9, 36, 0
1, 18480, Note_on_c, 9, 36, 107
1, 18600, Note_on_c, 9, 46, 90
1, 18603, Note_on_c, 9, 46, 0
1, 18719, Note_on_c, 9, 36, 0
1, 18720, Note_on_c, 9, 37, 107
1, 18720, Note_on_c, 9, 38, 107
1, 18720, Note_on_c, 9, 40, 107
1, 18720, Note_on_c, 9, 42, 107
1, 18738, Note_on_c, 9, 37, 0
1, 18738, Note_on_c, 9, 42, 0
1, 19199, Note_on_c, 9, 38, 0
1, 19199, Note_on_c, 9, 40, 0
1, 19200, Note_on_c, 9, 36, 107
1, 19559, Note_on_c, 9, 36, 0
1, 19560, Note_on_c, 9, 44, 90
1, 19563, Note_on_c, 9, 44, 0
1, 19680, Note_on_c, 9, 37, 107
1, 19680, Note_on_c, 9, 38, 107
1, 19680, Note_on_c, 9, 40, 107
1, 19680, Note_on_c, 9, 42, 107
1, 19698, Note_on_c, 9, 37, 0
1, 19698, Note_on_c, 9, 42, 0
1, 20159, Note_on_c, 9, 38, 0
1, 20159, Note_on_c, 9, 40, 0
1, 20160, Note_on_c, 9, 36, 107
1, 20399, Note_on_c, 9, 36, 0
1, 20400, Note_on_c, 9, 36, 107
1, 20520, Note_on_c, 9, 46, 90
1, 20523, Note_on_c, 9, 46, 0
1, 20639, Note_on_c, 9, 36, 0
1, 20640, Note_on_c, 9, 37, 107
1, 20640, Note_on_c, 9, 38, 107
1, 20640, Note_on_c, 9, 40, 107
1, 20640, Note_on_c, 9, 42, 107
1, 20658, Note_on_c, 9, 37, 0
1, 20658, Note_on_c, 9, 42, 0
1, 21119, Note_on_c, 9, 38, 0
1, 21119, Note_on_c, 9, 40, 0
1, 21120, Note_on_c, 9, 36, 107
1, 21479, Note_on_c, 9, 36, 0
1, 21480, Note_on_c, 9, 44, 90
1, 21483, Note_on_c, 9, 44, 0
1, 21600, Note_on_c, 9, 37, 107
1, 21600, Note_on_c, 9, 38, 107
1, 21600, Note_on_c, 9, 40, 107
1, 21600, Note_on_c, 9, 42, 107
1, 21618, Note_on_c, 9, 37, 0
1, 21618, Note_on_c, 9, 42, 0
1, 22079, Note_on_c, 9, 38, 0
1, 22079, Note_on_c, 9, 40, 0
1, 22080, Note_on_c, 9, 36, 107
1, 22319, Note_on_c, 9, 36, 0
1, 22320, Note_on_c, 9, 36, 107
1, 22440, Note_on_c, 9, 46, 90
1, 22443, Note_on_c, 9, 46, 0
1, 22559, Note_on_c, 9, 36, 0
1, 22560, Note_on_c, 9, 37, 107
1, 22560, Note_on_c, 9, 38, 107
1, 22560, Note_on_c, 9, 40, 107
1, 22560, Note_on_c, 9, 42, 107
1, 22578, Note_on_c, 9, 37, 0
1, 22578, Note_on_c, 9, 42, 0
1, 23039, Note_on_c, 9, 38, 0
1, 23039, Note_on_c, 9, 40, 0
1, 23040, Note_on_c, 9, 36, 107
1, 23399, Note_on_c, 9, 36, 0
1, 23400, Note_on_c, 9, 44, 90
1, 23403, Note_on_c, 9, 44, 0
1, 23520, Note_on_c, 9, 37, 107
1, 23520, Note_on_c, 9, 38, 107
1, 23520, Note_on_c, 9, 40, 107
1, 23520, Note_on_c, 9, 42, 107
1, 23538, Note_on_c, 9, 37, 0
1, 23538, Note_on_c, 9, 42, 0
1, 23999, Note_on_c, 9, 38, 0
1, 23999, Note_on_c, 9, 40, 0
1, 24000, Note_on_c, 9, 36, 107
1, 24239, Note_on_c, 9, 36, 0
1, 24240, Note_on_c, 9, 36, 107
1, 24360, Note_on_c, 9, 46, 90
1, 24363, Note_on_c, 9, 46, 0
1, 24479, Note_on_c, 9, 36, 0
1, 24480, Note_on_c, 9, 37, 107
1, 24480, Note_on_c, 9, 38, 107
1, 24480, Note_on_c, 9, 40, 107
1, 24480, Note_on_c, 9, 42, 107
1, 24498, Note_on_c, 9, 37, 0
1, 24498, Note_on_c, 9, 42, 0
1, 24959, Note_on_c, 9, 38, 0
1, 24959, Note_on_c, 9, 40, 0
1, 24960, Note_on_c, 9, 36, 107
1, 25319, Note_on_c, 9, 36, 0
1, 25320, Note_on_c, 9, 44, 90
1, 25323, Note_on_c, 9, 44, 0
1, 25440, Note_on_c, 9, 37, 107
1, 25440, Note_on_c, 9, 38, 107
1, 25440, Note_on_c, 9, 40, 107
1, 25440, Note_on_c, 9, 42, 107
1, 25458, Note_on_c, 9, 37, 0
1, 25458, Note_on_c, 9, 42, 0
1, 25919, Note_on_c, 9, 38, 0
1, 25919, Note_on_c, 9, 40, 0
1, 25920, Note_on_c, 9, 36, 107
1, 26159, Note_on_c, 9, 36, 0
1, 26160, Note_on_c, 9, 36, 107
1, 26280, Note_on_c, 9, 46, 90
1, 26283, Note_on_c, 9, 46, 0
1, 26399, Note_on_c, 9, 36, 0
1, 26400, Note_on_c, 9, 37, 107
1, 26400, Note_on_c, 9, 38, 107
1, 26400, Note_on_c, 9, 40, 107
1, 26400, Note_on_c, 9, 42, 107
1, 26418, Note_on_c, 9, 37, 0
1, 26418, Note_on_c, 9, 42, 0
1, 26879, Note_on_c, 9, 38, 0
1, 26879, Note_on_c, 9, 40, 0
1, 26880, Note_on_c, 9, 36, 107
1, 27239, Note_on_c, 9, 36, 0
1, 27240, Note_on_c, 9, 44, 90
1, 27243, Note_on_c, 9, 44, 0
1, 27360, Note_on_c, 9, 37, 107
1, 27360, Note_on_c, 9, 38, 107
1, 27360, Note_on_c, 9, 40, 107
1, 27360, Note_on_c, 9, 42, 107
1, 27378, Note_on_c, 9, 37, 0
1, 27378, Note_on_c, 9, 42, 0
1, 27839, Note_on_c, 9, 38, 0
1, 27839, Note_on_c, 9, 40, 0
1, 27840, Note_on_c, 9, 36, 107
1, 28079, Note_on_c, 9, 36, 0
1, 28080, Note_on_c, 9, 36, 107
1, 28200, Note_on_c, 9, 46, 90
1, 28203, Note_on_c, 9, 46, 0
1, 28319, Note_on_c, 9, 36, 0
1, 28320, Note_on_c, 9, 37, 107
1, 28320, Note_on_c, 9, 38, 107
1, 28320, Note_on_c, 9, 40, 107
1, 28320, Note_on_c, 9, 42, 107
1, 28338, Note_on_c, 9, 37, 0
1, 28338, Note_on_c, 9, 42, 0
1, 28799, Note_on_c, 9, 38, 0
1, 28799, Note_on_c, 9, 40, 0
1, 28800, Note_on_c, 9, 36, 107
1, 29159, Note_on_c, 9, 36, 0
1, 29160, Note_on_c, 9, 44, 90
1, 29163, Note_on_c, 9, 44, 0
1, 29280, Note_on_c, 9, 37, 107
1, 29280, Note_on_c, 9, 38, 107
1, 29280, Note_on_c, 9, 40, 107
1, 29280, Note_on_c, 9, 42, 107
1, 29298, Note_on_c, 9, 37, 0
1, 29298, Note_on_c, 9, 42, 0
1, 29759, Note_on_c, 9, 38, 0
1, 29759, Note_on_c, 9, 40, 0
1, 29760, Note_on_c, 9, 36, 107
1, 29999, Note_on_c, 9, 36, 0
1, 30000, Note_on_c, 9, 36, 107
1, 30120, Note_on_c, 9, 46, 90
1, 30123, Note_on_c, 9, 46, 0
1, 30239, Note_on_c, 9, 36, 0
1, 30240, Note_on_c, 9, 37, 107
1, 30240, Note_on_c, 9, 38, 107
1, 30240, Note_on_c, 9, 40, 107
1, 30240, Note_on_c, 9, 42, 107
1, 30258, Note_on_c, 9, 37, 0
1, 30258, Note_on_c, 9, 42, 0
1, 30719, Note_on_c, 9, 38, 0
1, 30719, Note_on_c, 9, 40, 0
1, 30720, Note_on_c, 9, 36, 107
1, 31079, Note_on_c, 9, 36, 0
1, 31080, Note_on_c, 9, 44, 90
1, 31083, Note_on_c, 9, 44, 0
1, 31200, Note_on_c, 9, 37, 107
1, 31200, Note_on_c, 9, 38, 107
1, 31200, Note_on_c, 9, 40, 107
1, 31200, Note_on_c, 9, 42, 107
1, 31218, Note_on_c, 9, 37, 0
1, 31218, Note_on_c, 9, 42, 0
1, 31679, Note_on_c, 9, 38, 0
1, 31679, Note_on_c, 9, 40, 0
1, 31680, Note_on_c, 9, 36, 107
1, 31919, Note_on_c, 9, 36, 0
1, 31920, Note_on_c, 9, 36, 107
1, 32040, Note_on_c, 9, 46, 90
1, 32043, Note_on_c, 9, 46, 0
1, 32159, Note_on_c, 9, 36, 0
1, 32160, Note_on_c, 9, 37, 107
1, 32160, Note_on_c, 9, 38, 107
1, 32160, Note_on_c, 9, 40, 107
1, 32160, Note_on_c, 9, 42, 107
1, 32178, Note_on_c, 9, 37, 0
1, 32178, Note_on_c, 9, 42, 0
1, 32639, Note_on_c, 9, 38, 0
1, 32639, Note_on_c, 9, 40, 0
1, 32640, Note_on_c, 9, 36, 107
1, 32999, Note_on_c, 9, 36, 0
1, 33000, Note_on_c, 9, 44, 90
1, 33003, Note_on_c, 9, 44, 0
1, 33120, Note_on_c, 9, 37, 107
1, 33120, Note_on_c, 9, 38, 107
1, 33120, Note_on_c, 9, 40, 107
1, 33120, Note_on_c, 9, 42, 107
1, 33138, Note_on_c, 9, 37, 0
1, 33138, Note_on_c, 9, 42, 0
1, 33599, Note_on_c, 9, 38, 0
1, 33599, Note_on_c, 9, 40, 0
1, 33600, Note_on_c, 9, 36, 107
1, 33839, Note_on_c, 9, 36, 0
1, 33840, Note_on_c, 9, 36, 107
1, 33960, Note_on_c, 9, 46, 90
1, 33963, Note_on_c, 9, 46, 0
1, 34079, Note_on_c, 9, 36, 0
1, 34080, Note_on_c, 9, 37, 107
1, 34080, Note_on_c, 9, 38, 107
1, 34080, Note_on_c, 9, 40, 107
1, 34080, Note_on_c, 9, 42, 107
1, 34098, Note_on_c, 9, 37, 0
1, 34098, Note_on_c, 9, 42, 0
1, 34559, Note_on_c, 9, 38, 0
1, 34559, Note_on_c, 9, 40, 0
1, 34560, Note_on_c, 9, 36, 107
1, 34919, Note_on_c, 9, 36, 0
1, 34920, Note_on_c, 9, 44, 90
1, 34923, Note_on_c, 9, 44, 0
1, 35040, Note_on_c, 9, 37, 107
1, 35040, Note_on_c, 9, 38, 107
1, 35040, Note_on_c, 9, 40, 107
1, 35040, Note_on_c, 9, 42, 107
1, 35058, Note_on_c, 9, 37, 0
1, 35058, Note_on_c, 9, 42, 0
1, 35519, Note_on_c, 9, 38, 0
1, 35519, Note_on_c, 9, 40, 0
1, 35520, Note_on_c, 9, 36, 107
1, 35759, Note_on_c, 9, 36, 0
1, 35760, Note_on_c, 9, 36, 107
1, 35880, Note_on_c, 9, 46, 90
1, 35883, Note_on_c, 9, 46, 0
1, 35999, Note_on_c, 9, 36, 0
1, 36000, Note_on_c, 9, 37, 107
1, 36000, Note_on_c, 9, 38, 107
1, 36000, Note_on_c, 9, 40, 107
1, 36000, Note_on_c, 9, 42, 107
1, 36018, Note_on_c, 9, 37, 0
1, 36018, Note_on_c, 9, 42, 0
1, 36479, Note_on_c, 9, 38, 0
1, 36479, Note_on_c, 9, 40, 0
1, 36480, Note_on_c, 9, 36, 107
1, 36839, Note_on_c, 9, 36, 0
1, 36840, Note_on_c, 9, 44, 90
1, 36843, Note_on_c, 9, 44, 0
1, 36960, Note_on_c, 9, 37, 107
1, 36960, Note_on_c, 9, 38, 107
1, 36960, Note_on_c, 9, 40, 107
1, 36960, Note_on_c, 9, 42, 107
1, 36978, Note_on_c, 9, 37, 0
1, 36978, Note_on_c, 9, 42, 0
1, 37439, Note_on_c, 9, 38, 0
1, 37439, Note_on_c, 9, 40, 0
1, 37440, Note_on_c, 9, 36, 107
1, 37679, Note_on_c, 9, 36, 0
1, 37680, Note_on_c, 9, 36, 107
1, 37800, Note_on_c, 9, 46, 90
1, 37803, Note_on_c, 9, 46, 0
1, 37919, Note_on_c, 9, 36, 0
1, 37920, Note_on_c, 9, 37, 107
1, 37920, Note_on_c, 9, 38, 107
1, 37920, Note_on_c, 9, 40, 107
1, 37920, Note_on_c, 9, 42, 107
1, 37938, Note_on_c, 9, 37, 0
1, 37938, Note_on_c, 9, 42, 0
1, 38399, Note_on_c, 9, 38, 0
1, 38399, Note_on_c, 9, 40, 0
1, 38400, Note_on_c, 9, 36, 107
1, 38759, Note_on_c, 9, 36, 0
1, 38760, Note_on_c, 9, 44, 90
1, 38763, Note_on_c, 9, 44, 0
1, 38880, Note_on_c, 9, 37, 107
1, 38880, Note_on_c, 9, 38, 107
1, 38880, Note_on_c, 9, 40, 107
1, 38880, Note_on_c, 9, 42, 107
1, 38898, Note_on_c, 9, 37, 0
1, 38898, Note_on_c, 9, 42, 0
1, 39359, Note_on_c, 9, 38, 0
1, 39359, Note_on_c, 9, 40, 0
1, 39360, Note_on_c, 9, 36, 107
1, 39599, Note_on_c, 9, 36, 0
1, 39600, Note_on_c, 9, 36, 107
1, 39720, Note_on_c, 9, 46, 90
1, 39723, Note_on_c, 9, 46, 0
1, 39839, Note_on_c, 9, 36, 0
1, 39840, Note_on_c, 9, 37, 107
1, 39840, Note_on_c, 9, 38, 107
1, 39840, Note_on_c, 9, 40, 107
1, 39840, Note_on_c, 9, 42, 107
1, 39858, Note_on_c, 9, 37, 0
1, 39858, Note_on_c, 9, 42, 0
1, 40319, Note_on_c, 9, 38, 0
1, 40319, Note_on_c, 9, 40, 0
1, 40320, Note_on_c, 9, 36, 107
1, 40679, Note_on_c, 9, 36, 0
1, 40680, Note_on_c, 9, 44, 90
1, 40683, Note_on_c, 9, 44, 0
1, 40800, Note_on_c, 9, 37, 107
1, 40800, Note_on_c, 9, 38, 107
1, 40800, Note_on_c, 9, 40, 107
1, 40800, Note_on_c, 9, 42, 107
1, 40818, Note_on_c, 9, 37, 0
1, 40818, Note_on_c, 9, 42, 0
1, 41279, Note_on_c, 9, 38, 0
1, 41279, Note_on_c, 9, 40, 0
1, 41280, Note_on_c, 9, 36, 107
1, 41519, Note_on_c, 9, 36, 0
1, 41520, Note_on_c, 9, 36, 107
1, 41640, Note_on_c, 9, 46, 90
1, 41643, Note_on_c, 9, 46, 0
1, 41759, Note_on_c, 9, 36, 0
1, 41760, Note_on_c, 9, 37, 107
1, 41760, Note_on_c, 9, 38, 107
1, 41760, Note_on_c, 9, 40, 107
1, 41760, Note_on_c, 9, 42, 107
1, 41778, Note_on_c, 9, 37, 0
1, 41778, Note_on_c, 9, 42, 0
1, 42239, Note_on_c, 9, 38, 0
1, 42239, Note_on_c, 9, 40, 0
1, 42240, Note_on_c, 9, 36, 107
1, 42599, Note_on_c, 9, 36, 0
1, 42600, Note_on_c, 9, 44, 90
1, 42603, Note_on_c, 9, 44, 0
1, 42720, Note_on_c, 9, 37, 107
1, 42720, Note_on_c, 9, 38, 107
1, 42720, Note_on_c, 9, 40, 107
1, 42720, Note_on_c, 9, 42, 107
1, 42738, Note_on_c, 9, 37, 0
1, 42738, Note_on_c, 9, 42, 0
1, 43199, Note_on_c, 9, 38, 0
1, 43199, Note_on_c, 9, 40, 0
1, 43200, Note_on_c, 9, 36, 107
1, 43439, Note_on_c, 9, 36, 0
1, 43440, Note_on_c, 9, 36, 107
1, 43560, Note_on_c, 9, 46, 90
1, 43563, Note_on_c, 9, 46, 0
1, 43679, Note_on_c, 9, 36, 0
1, 43680, Note_on_c, 9, 37, 107
1, 43680, Note_on_c, 9, 38, 107
1, 43680, Note_on_c, 9, 40, 107
1, 43680, Note_on_c, 9, 42, 107
1, 43698, Note_on_c, 9, 37, 0
1, 43698, Note_on_c, 9, 42, 0
1, 44159, Note_on_c, 9, 38, 0
1, 44159, Note_on_c, 9, 40, 0
1, 44160, Note_on_c, 9, 36, 107
1, 44519, Note_on_c, 9, 36, 0
1, 44520, Note_on_c, 9, 44, 90
1, 44523, Note_on_c, 9, 44, 0
1, 44640, Note_on_c, 9, 37, 107
1, 44640, Note_on_c, 9, 38, 107
1, 44640, Note_on_c, 9, 40, 107
1, 44640, Note_on_c, 9, 42, 107
1, 44658, Note_on_c, 9, 37, 0
1, 44658, Note_on_c, 9, 42, 0
1, 45119, Note_on_c, 9, 38, 0
1, 45119, Note_on_c, 9, 40, 0
1, 45120, Note_on_c, 9, 36, 107
1, 45359, Note_on_c, 9, 36, 0
1, 45360, Note_on_c, 9, 36, 107
1, 45480, Note_on_c, 9, 46, 90
1, 45483, Note_on_c, 9, 46, 0
1, 45599, Note_on_c, 9, 36, 0
1, 45600, Note_on_c, 9, 37, 107
1, 45600, Note_on_c, 9, 38, 107
1, 45600, Note_on_c, 9, 40, 107
1, 45600, Note_on_c, 9, 42, 107
1, 45618, Note_on_c, 9, 37, 0
1, 45618, Note_on_c, 9, 42, 0
1, 46079, Note_on_c, 9, 38, 0
1, 46079, Note_on_c, 9, 40, 0
1, 46080, Note_on_c, 9, 36, 107
1, 46319, Note_on_c, 9, 36, 0
1, 46320, Note_on_c, 9, 36, 107
1, 46559, Note_on_c, 9, 36, 0
1, 46560, Note_on_c, 9, 41, 107
1, 46560, Note_on_c, 9, 38, 107
1, 46560, Note_on_c, 9, 49, 107
1, 46568, Note_on_c, 9, 49, 0
1, 46799, Note_on_c, 9, 41, 0
1, 46799, Note_on_c, 9, 38, 0
1, 46800, Note_on_c, 9, 41, 107
1, 47039, Note_on_c, 9, 41, 0
1, 47040, Note_on_c, 9, 45, 107
1, 47040, Note_on_c, 9, 36, 107
1, 47279, Note_on_c, 9, 45, 0
1, 47280, Note_on_c, 9, 45, 107
1, 47399, Note_on_c, 9, 45, 0
1, 47400, Note_on_c, 9, 48, 107
1, 47519, Note_on_c, 9, 36, 0
1, 47519, Note_on_c, 9, 48, 0
1, 47520, Note_on_c, 9, 49, 107
1, 47538, Note_on_c, 9, 49, 0
1, 48000, Note_on_c, 9, 36, 107
1, 48359, Note_on_c, 9, 36, 0
1, 48360, Note_on_c, 9, 44, 90
1, 48363, Note_on_c, 9, 44, 0
1, 48480, Note_on_c, 9, 37, 107
1, 48480, Note_on_c, 9, 38, 107
1, 48480, Note_on_c, 9, 40, 107
1, 48480, Note_on_c, 9, 42, 107
1, 48498, Note_on_c, 9, 37, 0
1, 48498, Note_on_c, 9, 42, 0
1, 48959, Note_on_c, 9, 38, 0
1, 48959, Note_on_c, 9, 40, 0
1, 48960, Note_on_c, 9, 36, 107
1, 49199, Note_on_c, 9, 36, 0
1, 49200, Note_on_c, 9, 36, 107
1, 49320, Note_on_c, 9, 46, 90
1, 49323, Note_on_c, 9, 46, 0
1, 49439, Note_on_c, 9, 36, 0
1, 49440, Note_on_c, 9, 37, 107
1, 49440, Note_on_c, 9, 38, 107
1, 49440, Note_on_c, 9, 40, 107
1, 49440, Note_on_c, 9, 42, 107
1, 49458, Note_on_c, 9, 37, 0
1, 49458, Note_on_c, 9, 42, 0
1, 49919, Note_on_c, 9, 38, 0
1, 49919, Note_on_c, 9, 40, 0
1, 49920, Note_on_c, 9, 36, 107
1, 50279, Note_on_c, 9, 36, 0
1, 50280, Note_on_c, 9, 44, 90
1, 50283, Note_on_c, 9, 44, 0
1, 50400, Note_on_c, 9, 37, 107
1, 50400, Note_on_c, 9, 38, 107
1, 50400, Note_on_c, 9, 40, 107
1, 50400, Note_on_c, 9, 42, 107
1, 50418, Note_on_c, 9, 37, 0
1, 50418, Note_on_c, 9, 42, 0
1, 50879, Note_on_c, 9, 38, 0
1, 50879, Note_on_c, 9, 40, 0
1, 50880, Note_on_c, 9, 36, 107
1, 51119, Note_on_c, 9, 36, 0
1, 51120, Note_on_c, 9, 36, 107
1, 51240, Note_on_c, 9, 46, 90
1, 51243, Note_on_c, 9, 46, 0
1, 51359, Note_on_c, 9, 36, 0
1, 51360, Note_on_c, 9, 37, 107
1, 51360, Note_on_c, 9, 38, 107
1, 51360, Note_on_c, 9, 40, 107
1, 51360, Note_on_c, 9, 42, 107
1, 51378, Note_on_c, 9, 37, 0
1, 51378, Note_on_c, 9, 42, 0
1, 51839, Note_on_c, 9, 38, 0
1, 51839, Note_on_c, 9, 40, 0
1, 51840, Note_on_c, 9, 36, 107
1, 52199, Note_on_c, 9, 36, 0
1, 52200, Note_on_c, 9, 44, 90
1, 52203, Note_on_c, 9, 44, 0
1, 52320, Note_on_c, 9, 37, 107
1, 52320, Note_on_c, 9, 38, 107
1, 52320, Note_on_c, 9, 40, 107
1, 52320, Note_on_c, 9, 42, 107
1, 52338, Note_on_c, 9, 37, 0
1, 52338, Note_on_c, 9, 42, 0
1, 52799, Note_on_c, 9, 38, 0
1, 52799, Note_on_c, 9, 40, 0
1, 52800, Note_on_c, 9, 36, 107
1, 53039, Note_on_c, 9, 36, 0
1, 53040, Note_on_c, 9, 36, 107
1, 53160, Note_on_c, 9, 46, 90
1, 53163, Note_on_c, 9, 46, 0
1, 53279, Note_on_c, 9, 36, 0
1, 53280, Note_on_c, 9, 37, 107
1, 53280, Note_on_c, 9, 38, 107
1, 53280, Note_on_c, 9, 40, 107
1, 53280, Note_on_c, 9, 42, 107
1, 53298, Note_on_c, 9, 37, 0
1, 53298, Note_on_c, 9, 42, 0
1, 53759, Note_on_c, 9, 38, 0
1, 53759, Note_on_c, 9, 40, 0
1, 53760, Note_on_c, 9, 36, 107
1, 54119, Note_on_c, 9, 36, 0
1, 54120, Note_on_c, 9, 44, 90
1, 54123, Note_on_c, 9, 44, 0
1, 54240, Note_on_c, 9, 37, 107
1, 54240, Note_on_c, 9, 38, 107
1, 54240, Note_on_c, 9, 40, 107
1, 54240, Note_on_c, 9, 42, 107
1, 54258, Note_on_c, 9, 37, 0
1, 54258, Note_on_c, 9, 42, 0
1, 54719, Note_on_c, 9, 38, 0
1, 54719, Note_on_c, 9, 40, 0
1, 54720, Note_on_c, 9, 36, 107
1, 54959, Note_on_c, 9, 36, 0
1, 54960, Note_on_c, 9, 36, 107
1, 55080, Note_on_c, 9, 46, 90
1, 55083, Note_on_c, 9, 46, 0
1, 55199, Note_on_c, 9, 36, 0
1, 55200, Note_on_c, 9, 37, 107
1, 55200, Note_on_c, 9, 38, 107
1, 55200, Note_on_c, 9, 40, 107
1, 55200, Note_on_c, 9, 42, 107
1, 55218, Note_on_c, 9, 37, 0
1, 55218, Note_on_c, 9, 42, 0
1, 55679, Note_on_c, 9, 38, 0
1, 55679, Note_on_c, 9, 40, 0
1, 55680, Note_on_c, 9, 36, 107
1, 56039, Note_on_c, 9, 36, 0
1, 56040, Note_on_c, 9, 44, 90
1, 56043, Note_on_c, 9, 44, 0
1, 56160, Note_on_c, 9, 37, 107
1, 56160, Note_on_c, 9, 38, 107
1, 56160, Note_on_c, 9, 40, 107
1, 56160, Note_on_c, 9, 42, 107
1, 56178, Note_on_c, 9, 37, 0
1, 56178, Note_on_c, 9, 42, 0
1, 56639, Note_on_c, 9, 38, 0
1, 56639, Note_on_c, 9, 40, 0
1, 56640, Note_on_c, 9, 36, 107
1, 56879, Note_on_c, 9, 36, 0
1, 56880, Note_on_c, 9, 36, 107
1, 57000, Note_on_c, 9, 46, 90
1, 57003, Note_on_c, 9, 46, 0
1, 57119, Note_on_c, 9, 36, 0
1, 57120, Note_on_c, 9, 37, 107
1, 57120, Note_on_c, 9, 38, 107
1, 57120, Note_on_c, 9, 40, 107
1, 57120, Note_on_c, 9, 42, 107
1, 57138, Note_on_c, 9, 37, 0
1, 57138, Note_on_c, 9, 42, 0
1, 57599, Note_on_c, 9, 38, 0
1, 57599, Note_on_c, 9, 40, 0
1, 57600, Note_on_c, 9, 36, 107
1, 57959, Note_on_c, 9, 36, 0
1, 57960, Note_on_c, 9, 44, 90
1, 57963, Note_on_c, 9, 44, 0
1, 58080, Note_on_c, 9, 37, 107
1, 58080, Note_on_c, 9, 38, 107
1, 58080, Note_on_c, 9, 40, 107
1, 58080, Note_on_c, 9, 42, 107
1, 58098, Note_on_c, 9, 37, 0
1, 58098, Note_on_c, 9, 42, 0
1, 58559, Note_on_c, 9, 38, 0
1, 58559, Note_on_c, 9, 40, 0
1, 58560, Note_on_c, 9, 36, 107
1, 58799, Note_on_c, 9, 36, 0
1, 58800, Note_on_c, 9, 36, 107
1, 58920, Note_on_c, 9, 46, 90
1, 58923, Note_on_c, 9, 46, 0
1, 59039, Note_on_c, 9, 36, 0
1, 59040, Note_on_c, 9, 37, 107
1, 59040, Note_on_c, 9, 38, 107
1, 59040, Note_on_c, 9, 40, 107
1, 59040, Note_on_c, 9, 42, 107
1, 59058, Note_on_c, 9, 37, 0
1, 59058, Note_on_c, 9, 42, 0
1, 59519, Note_on_c, 9, 38, 0
1, 59519, Note_on_c, 9, 40, 0
1, 59520, Note_on_c, 9, 36, 107
1, 59879, Note_on_c, 9, 36, 0
1, 59880, Note_on_c, 9, 44, 90
1, 59883, Note_on_c, 9, 44, 0
1, 60000, Note_on_c, 9, 37, 107
1, 60000, Note_on_c, 9, 38, 107
1, 60000, Note_on_c, 9, 40, 107
1, 60000, Note_on_c, 9, 42, 107
1, 60018, Note_on_c, 9, 37, 0
1, 60018, Note_on_c, 9, 42, 0
1, 60479, Note_on_c, 9, 38, 0
1, 60479, Note_on_c, 9, 40, 0
1, 60480, Note_on_c, 9, 36, 107
1, 60719, Note_on_c, 9, 36, 0
1, 60720, Note_on_c, 9, 36, 107
1, 60840, Note_on_c, 9, 46, 90
1, 60843, Note_on_c, 9, 46, 0
1, 60959, Note_on_c, 9, 36, 0
1, 60960, Note_on_c, 9, 37, 107
1, 60960, Note_on_c, 9, 38, 107
1, 60960, Note_on_c, 9, 40, 107
1, 60960, Note_on_c, 9, 42, 107
1, 60978, Note_on_c, 9, 37, 0
1, 60978, Note_on_c, 9, 42, 0
1, 61439, Note_on_c, 9, 38, 0
1, 61439, Note_on_c, 9, 40, 0
1, 61440, Note_on_c, 9, 36, 107
1, 61799, Note_on_c, 9, 36, 0
1, 61800, Note_on_c, 9, 44, 90
1, 61803, Note_on_c, 9, 44, 0
1, 61920, Note_on_c, 9, 37, 107
1, 61920, Note_on_c, 9, 38, 107
1, 61920, Note_on_c, 9, 40, 107
1, 61920, Note_on_c, 9, 42, 107
1, 61938, Note_on_c, 9, 37, 0
1, 61938, Note_on_c, 9, 42, 0
1, 62399, Note_on_c, 9, 38, 0
1, 62399, Note_on_c, 9, 40, 0
1, 62400, Note_on_c, 9, 36, 107
1, 62639, Note_on_c, 9, 36, 0
1, 62640, Note_on_c, 9, 36, 107
1, 62760, Note_on_c, 9, 46, 90
1, 62763, Note_on_c, 9, 46, 0
1, 62879, Note_on_c, 9, 36, 0
1, 62880, Note_on_c, 9, 37, 107
1, 62880, Note_on_c, 9, 38, 107
1, 62880, Note_on_c, 9, 40, 107
1, 62880, Note_on_c, 9, 42, 107
1, 62898, Note_on_c, 9, 37, 0
1, 62898, Note_on_c, 9, 42, 0
1, 63359, Note_on_c, 9, 38, 0
1, 63359, Note_on_c, 9, 40, 0
1, 63360, Note_on_c, 9, 36, 107
1, 63719, Note_on_c, 9, 36, 0
1, 63720, Note_on_c, 9, 44, 90
1, 63723, Note_on_c, 9, 44, 0
1, 63840, Note_on_c, 9, 37, 107
1, 63840, Note_on_c, 9, 38, 107
1, 63840, Note_on_c, 9, 40, 107
1, 63840, Note_on_c, 9, 42, 107
1, 63858, Note_on_c, 9, 37, 0
1, 63858, Note_on_c, 9, 42, 0
1, 64319, Note_on_c, 9, 38, 0
1, 64319, Note_on_c, 9, 40, 0
1, 64320, Note_on_c, 9, 36, 107
1, 64559, Note_on_c, 9, 36, 0
1, 64560, Note_on_c, 9, 36, 107
1, 64680, Note_on_c, 9, 46, 90
1, 64683, Note_on_c, 9, 46, 0
1, 64799, Note_on_c, 9, 36, 0
1, 64800, Note_on_c, 9, 37, 107
1, 64800, Note_on_c, 9, 38, 107
1, 64800, Note_on_c, 9, 40, 107
1, 64800, Note_on_c, 9, 42, 107
1, 64818, Note_on_c, 9, 37, 0
1, 64818, Note_on_c, 9, 42, 0
1, 65279, Note_on_c, 9, 38, 0
1, 65279, Note_on_c, 9, 40, 0
1, 65280, Note_on_c, 9, 36, 107
1, 65639, Note_on_c, 9, 36, 0
1, 65640, Note_on_c, 9, 44, 90
1, 65643, Note_on_c, 9, 44, 0
1, 65760, Note_on_c, 9, 37, 107
1, 65760, Note_on_c, 9, 38, 107
1, 65760, Note_on_c, 9, 40, 107
1, 65760, Note_on_c, 9, 42, 107
1, 65778, Note_on_c, 9, 37, 0
1, 65778, Note_on_c, 9, 42, 0
1, 66239, Note_on_c, 9, 38, 0
1, 66239, Note_on_c, 9, 40, 0
1, 66240, Note_on_c, 9, 36, 107
1, 66479, Note_on_c, 9, 36, 0
1, 66480, Note_on_c, 9, 36, 107
1, 66600, Note_on_c, 9, 46, 90
1, 66603, Note_on_c, 9, 46, 0
1, 66719, Note_on_c, 9, 36, 0
1, 66720, Note_on_c, 9, 37, 107
1, 66720, Note_on_c, 9, 38, 107
1, 66720, Note_on_c, 9, 40, 107
1, 66720, Note_on_c, 9, 42, 107
1, 66738, Note_on_c, 9, 37, 0
1, 66738, Note_on_c, 9, 42, 0
1, 67199, Note_on_c, 9, 38, 0
1, 67199, Note_on_c, 9, 40, 0
1, 67200, Note_on_c, 9, 36, 107
1, 67559, Note_on_c, 9, 36, 0
1, 67560, Note_on_c, 9, 44, 90
1, 67563, Note_on_c, 9, 44, 0
1, 67680, Note_on_c, 9, 37, 107
1, 67680, Note_on_c, 9, 38, 107
1, 67680, Note_on_c, 9, 40, 107
1, 67680, Note_on_c, 9, 42, 107
1, 67698, Note_on_c, 9, 37, 0
1, 67698, Note_on_c, 9, 42, 0
1, 68159, Note_on_c, 9, 38, 0
1, 68159, Note_on_c, 9, 40, 0
1, 68160, Note_on_c, 9, 36, 107
1, 68399, Note_on_c, 9, 36, 0
1, 68400, Note_on_c, 9, 36, 107
1, 68520, Note_on_c, 9, 46, 90
1, 68523, Note_on_c, 9, 46, 0
1, 68639, Note_on_c, 9, 36, 0
1, 68640, Note_on_c, 9, 37, 107
1, 68640, Note_on_c, 9, 38, 107
1, 68640, Note_on_c, 9, 40, 107
1, 68640, Note_on_c, 9, 42, 107
1, 68658, Note_on_c, 9, 37, 0
1, 68658, Note_on_c, 9, 42, 0
1, 69119, Note_on_c, 9, 38, 0
1, 69119, Note_on_c, 9, 40, 0
1, 69120, Note_on_c, 9, 36, 107
1, 69479, Note_on_c, 9, 36, 0
1, 69480, Note_on_c, 9, 44, 90
1, 69483, Note_on_c, 9, 44, 0
1, 69600, Note_on_c, 9, 37, 107
1, 69600, Note_on_c, 9, 38, 107
1, 69600, Note_on_c, 9, 40, 107
1, 69600, Note_on_c, 9, 42, 107
1, 69618, Note_on_c, 9, 37, 0
1, 69618, Note_on_c, 9, 42, 0
1, 70079, Note_on_c, 9, 38, 0
1, 70079, Note_on_c, 9, 40, 0
1, 70080, Note_on_c, 9, 36, 107
1, 70319, Note_on_c, 9, 36, 0
1, 70320, Note_on_c, 9, 36, 107
1, 70440, Note_on_c, 9, 46, 90
1, 70443, Note_on_c, 9, 46, 0
1, 70559, Note_on_c, 9, 36, 0
1, 70560, Note_on_c, 9, 37, 107
1, 70560, Note_on_c, 9, 38, 107
1, 70560, Note_on_c, 9, 40, 107
1, 70560, Note_on_c, 9, 42, 107
1, 70578, Note_on_c, 9, 37, 0
1, 70578, Note_on_c, 9, 42, 0
1, 71039, Note_on_c, 9, 38, 0
1, 71039, Note_on_c, 9, 40, 0
1, 71040, Note_on_c, 9, 36, 107
1, 71399, Note_on_c, 9, 36, 0
1, 71400, Note_on_c, 9, 44, 90
1, 71403, Note_on_c, 9, 44, 0
1, 71520, Note_on_c, 9, 37, 107
1, 71520, Note_on_c, 9, 38, 107
1, 71520, Note_on_c, 9, 40, 107
1, 71520, Note_on_c, 9, 42, 107
1, 71538, Note_on_c, 9, 37, 0
1, 71538, Note_on_c, 9, 42, 0
1, 71999, Note_on_c, 9, 38, 0
1, 71999, Note_on_c, 9, 40, 0
1, 72000, Note_on_c, 9, 36, 107
1, 72239, Note_on_c, 9, 36, 0
1, 72240, Note_on_c, 9, 36, 107
1, 72360, Note_on_c, 9, 46, 90
1, 72363, Note_on_c, 9, 46, 0
1, 72479, Note_on_c, 9, 36, 0
1, 72480, Note_on_c, 9, 37, 107
1, 72480, Note_on_c, 9, 38, 107
1, 72480, Note_on_c, 9, 40, 107
1, 72480, Note_on_c, 9, 42, 107
1, 72498, Note_on_c, 9, 37, 0
1, 72498, Note_on_c, 9, 42, 0
1, 72959, Note_on_c, 9, 38, 0
1, 72959, Note_on_c, 9, 40, 0
1, 72960, Note_on_c, 9, 36, 107
1, 73319, Note_on_c, 9, 36, 0
1, 73320, Note_on_c, 9, 44, 90
1, 73323, Note_on_c, 9, 44, 0
1, 73440, Note_on_c, 9, 37, 107
1, 73440, Note_on_c, 9, 38, 107
1, 73440, Note_on_c, 9, 40, 107
1, 73440, Note_on_c, 9, 42, 107
1, 73458, Note_on_c, 9, 37, 0
1, 73458, Note_on_c, 9, 42, 0
1, 73919, Note_on_c, 9, 38, 0
1, 73919, Note_on_c, 9, 40, 0
1, 73920, Note_on_c, 9, 36, 107
1, 74159, Note_on_c, 9, 36, 0
1, 74160, Note_on_c, 9, 36, 107
1, 74280, Note_on_c, 9, 46, 90
1, 74283, Note_on_c, 9, 46, 0
1, 74399, Note_on_c, 9, 36, 0
1, 74400, Note_on_c, 9, 37, 107
1, 74400, Note_on_c, 9, 38, 107
1, 74400, Note_on_c, 9, 40, 107
1, 74400, Note_on_c, 9, 42, 107
1, 74418, Note_on_c, 9, 37, 0
1, 74418, Note_on_c, 9, 42, 0
1, 74879, Note_on_c, 9, 38, 0
1, 74879, Note_on_c, 9, 40, 0
1, 74880, Note_on_c, 9, 36, 107
1, 75239, Note_on_c, 9, 36, 0
1, 75240, Note_on_c, 9, 44, 90
1, 75243, Note_on_c, 9, 44, 0
1, 75360, Note_on_c, 9, 37, 107
1, 75360, Note_on_c, 9, 38, 107
1, 75360, Note_on_c, 9, 40, 107
1, 75360, Note_on_c, 9, 42, 107
1, 75378, Note_on_c, 9, 37, 0
1, 75378, Note_on_c, 9, 42, 0
1, 75839, Note_on_c, 9, 38, 0
1, 75839, Note_on_c, 9, 40, 0
1, 75840, Note_on_c, 9, 36, 107
1, 76079, Note_on_c, 9, 36, 0
1, 76080, Note_on_c, 9, 36, 107
1, 76200, Note_on_c, 9, 46, 90
1, 76203, Note_on_c, 9, 46, 0
1, 76319, Note_on_c, 9, 36, 0
1, 76320, Note_on_c, 9, 37, 107
1, 76320, Note_on_c, 9, 38, 107
1, 76320, Note_on_c, 9, 40, 107
1, 76320, Note_on_c, 9, 42, 107
1, 76338, Note_on_c, 9, 37, 0
1, 76338, Note_on_c, 9, 42, 0
1, 76799, Note_on_c, 9, 38, 0
1, 76799, Note_on_c, 9, 40, 0
1, 76800, Note_on_c, 9, 36, 107
1, 77159, Note_on_c, 9, 36, 0
1, 77160, Note_on_c, 9, 44, 90
1, 77163, Note_on_c, 9, 44, 0
1, 77280, Note_on_c, 9, 37, 107
1, 77280, Note_on_c, 9, 38, 107
1, 77280, Note_on_c, 9, 40, 107
1, 77280, Note_on_c, 9, 42, 107
1, 77298, Note_on_c, 9, 37, 0
1, 77298, Note_on_c, 9, 42, 0
1, 77759, Note_on_c, 9, 38, 0
1, 77759, Note_on_c, 9, 40, 0
1, 77760, Note_on_c, 9, 36, 107
1, 77999, Note_on_c, 9, 36, 0
1, 78000, Note_on_c, 9, 36, 107
1, 78120, Note_on_c, 9, 46, 90
1, 78123, Note_on_c, 9, 46, 0
1, 78239, Note_on_c, 9, 36, 0
1, 78240, Note_on_c, 9, 37, 107
1, 78240, Note_on_c, 9, 38, 107
1, 78240, Note_on_c, 9, 40, 107
1, 78240, Note_on_c, 9, 42, 107
1, 78258, Note_on_c, 9, 37, 0
1, 78258, Note_on_c, 9, 42, 0
1, 78719, Note_on_c, 9, 38, 0
1, 78719, Note_on_c, 9, 40, 0
1, 78720, Note_on_c, 9, 36, 107
1, 79079, Note_on_c, 9, 36, 0
1, 79080, Note_on_c, 9, 44, 90
1, 79083, Note_on_c, 9, 44, 0
1, 79200, Note_on_c, 9, 37, 107
1, 79200, Note_on_c, 9, 38, 107
1, 79200, Note_on_c, 9, 40, 107
1, 79200, Note_on_c, 9, 42, 107
1, 79218, Note_on_c, 9, 37, 0
1, 79218, Note_on_c, 9, 42, 0
1, 79679, Note_on_c, 9, 38, 0
1, 79679, Note_on_c, 9, 40, 0
1, 79680, Note_on_c, 9, 36, 107
1, 79919, Note_on_c, 9, 36, 0
1, 79920, Note_on_c, 9, 36, 107
1, 80040, Note_on_c, 9, 46, 90
1, 80043, Note_on_c, 9, 46, 0
1, 80159, Note_on_c, 9, 36, 0
1, 80160, Note_on_c, 9, 37, 107
1, 80160, Note_on_c, 9, 38, 107
1, 80160, Note_on_c, 9, 40, 107
1, 80160, Note_on_c, 9, 42, 107
1, 80178, Note_on_c, 9, 37, 0
1, 80178, Note_on_c, 9, 42, 0
1, 80639, Note_on_c, 9, 38, 0
1, 80639, Note_on_c, 9, 40, 0
1, 80640, Note_on_c, 9, 36, 107
1, 80999, Note_on_c, 9, 36, 0
1, 81000, Note_on_c, 9, 44, 90
1, 81003, Note_on_c, 9, 44, 0
1, 81120, Note_on_c, 9, 37, 107
1, 81120, Note_on_c, 9, 38, 107
1, 81120, Note_on_c, 9, 40, 107
1, 81120, Note_on_c, 9, 42, 107
1, 81138, Note_on_c, 9, 37, 0
1, 81138, Note_on_c, 9, 42, 0
1, 81599, Note_on_c, 9, 38, 0
1, 81599, Note_on_c, 9, 40, 0
1, 81600, Note_on_c, 9, 36, 107
1, 81839, Note_on_c, 9, 36, 0
1, 81840, Note_on_c, 9, 36, 107
1, 81960, Note_on_c, 9, 46, 90
1, 81963, Note_on_c, 9, 46, 0
1, 82079, Note_on_c, 9, 36, 0
1, 82080, Note_on_c, 9, 37, 107
1, 82080, Note_on_c, 9, 38, 107
1, 82080, Note_on_c, 9, 40, 107
1, 82080, Note_on_c, 9, 42, 107
1, 82098, Note_on_c, 9, 37, 0
1, 82098, Note_on_c, 9, 42, 0
1, 82559, Note_on_c, 9, 38, 0
1, 82559, Note_on_c, 9, 40, 0
1, 82560, Note_on_c, 9, 36, 107
1, 82919, Note_on_c, 9, 36, 0
1, 82920, Note_on_c, 9, 44, 90
1, 82923, Note_on_c, 9, 44, 0
1, 83040, Note_on_c, 9, 37, 107
1, 83040, Note_on_c, 9, 38, 107
1, 83040, Note_on_c, 9, 40, 107
1, 83040, Note_on_c, 9, 42, 107
1, 83058, Note_on_c, 9, 37, 0
1, 83058, Note_on_c, 9, 42, 0
1, 83519, Note_on_c, 9, 38, 0
1, 83519, Note_on_c, 9, 40, 0
1, 83520, Note_on_c, 9, 36, 107
1, 83759, Note_on_c, 9, 36, 0
1, 83760, Note_on_c, 9, 36, 107
1, 83880, Note_on_c, 9, 46, 90
1, 83883, Note_on_c, 9, 46, 0
1, 83999, Note_on_c, 9, 36, 0
1, 84000, Note_on_c, 9, 37, 107
1, 84000, Note_on_c, 9, 38, 107
1, 84000, Note_on_c, 9, 40, 107
1, 84000, Note_on_c, 9, 42, 107
1, 84018, Note_on_c, 9, 37, 0
1, 84018, Note_on_c, 9, 42, 0
1, 84479, Note_on_c, 9, 38, 0
1, 84479, Note_on_c, 9, 40, 0
1, 84480, Note_on_c, 9, 36, 107
1, 84839, Note_on_c, 9, 36, 0
1, 84840, Note_on_c, 9, 44, 90
1, 84843, Note_on_c, 9, 44, 0
1, 84960, Note_on_c, 9, 37, 107
1, 84960, Note_on_c, 9, 38, 107
1, 84960, Note_on_c, 9, 40, 107
1, 84960, Note_on_c, 9, 42, 107
1, 84978, Note_on_c, 9, 37, 0
1, 84978, Note_on_c, 9, 42, 0
1, 85439, Note_on_c, 9, 38, 0
1, 85439, Note_on_c, 9, 40, 0
1, 85440, Note_on_c, 9, 36, 107
1, 85679, Note_on_c, 9, 36, 0
1, 85680, Note_on_c, 9, 36, 107
1, 85800, Note_on_c, 9, 46, 90
1, 85803, Note_on_c, 9, 46, 0
1, 85919, Note_on_c, 9, 36, 0
1, 85920, Note_on_c, 9, 37, 107
1, 85920, Note_on_c, 9, 38, 107
1, 85920, Note_on_c, 9, 40, 107
1, 85920, Note_on_c, 9, 42, 107
1, 85938, Note_on_c, 9, 37, 0
1, 85938, Note_on_c, 9, 42, 0
1, 86399, Note_on_c, 9, 38, 0
1, 86399, Note_on_c, 9, 40, 0
1, 86400, Note_on_c, 9, 36, 107
1, 86759, Note_on_c, 9, 36, 0
1, 86760, Note_on_c, 9, 44, 90
1, 86763, Note_on_c, 9, 44, 0
1, 86880, Note_on_c, 9, 37, 107
1, 86880, Note_on_c, 9, 38, 107
1, 86880, Note_on_c, 9, 40, 107
1, 86880, Note_on_c, 9, 42, 107
1, 86898, Note_on_c, 9, 37, 0
1, 86898, Note_on_c, 9, 42, 0
1, 87359, Note_on_c, 9, 38, 0
1, 87359, Note_on_c, 9, 40, 0
1, 87360, Note_on_c, 9, 36, 107
1, 87599, Note_on_c, 9, 36, 0
1, 87600, Note_on_c, 9, 36, 107
1, 87720, Note_on_c, 9, 46, 90
1, 87723, Note_on_c, 9, 46, 0
1, 87839, Note_on_c, 9, 36, 0
1, 87840, Note_on_c, 9, 37, 107
1, 87840, Note_on_c, 9, 38, 107
1, 87840, Note_on_c, 9, 40, 107
1, 87840, Note_on_c, 9, 42, 107
1, 87858, Note_on_c, 9, 37, 0
1, 87858, Note_on_c, 9, 42, 0
1, 88319, Note_on_c, 9, 38, 0
1, 88319, Note_on_c, 9, 40, 0
1, 88320, Note_on_c, 9, 36, 107
1, 88679, Note_on_c, 9, 36, 0
1, 88680, Note_on_c, 9, 44, 90
1, 88683, Note_on_c, 9, 44, 0
1, 88800, Note_on_c, 9, 37, 107
1, 88800, Note_on_c, 9, 38, 107
1, 88800, Note_on_c, 9, 40, 107
1, 88800, Note_on_c, 9, 42, 107
1, 88818, Note_on_c, 9, 37, 0
1, 88818, Note_on_c, 9, 42, 0
1, 89279, Note_on_c, 9, 38, 0
1, 89279, Note_on_c, 9, 40, 0
1, 89280, Note_on_c, 9, 36, 107
1, 89519, Note_on_c, 9, 36, 0
1, 89520, Note_on_c, 9, 36, 107
1, 89640, Note_on_c, 9, 46, 90
1, 89643, Note_on_c, 9, 46, 0
1, 89759, Note_on_c, 9, 36, 0
1, 89760, Note_on_c, 9, 37, 107
1, 89760, Note_on_c, 9, 38, 107
1, 89760, Note_on_c, 9, 40, 107
1, 89760, Note_on_c, 9, 42, 107
1, 89778, Note_on_c, 9, 37, 0
1, 89778, Note_on_c, 9, 42, 0
1, 90239, Note_on_c, 9, 38, 0
1, 90239, Note_on_c, 9, 40, 0
1, 90240, Note_on_c, 9, 36, 107
1, 90599, Note_on_c, 9, 36, 0
1, 90600, Note_on_c, 9, 44, 90
1, 90603, Note_on_c, 9, 44, 0
1, 90720, Note_on_c, 9, 37, 107
1, 90720, Note_on_c, 9, 38, 107
1, 90720, Note_on_c, 9, 40, 107
1, 90720, Note_on_c, 9, 42, 107
1, 90738, Note_on_c, 9, 37, 0
1, 90738, Note_on_c, 9, 42, 0
1, 91199, Note_on_c, 9, 38, 0
1, 91199, Note_on_c, 9, 40, 0
1, 91200, Note_on_c, 9, 36, 107
1, 91439, Note_on_c, 9, 36, 0
1, 91440, Note_on_c, 9, 36, 107
1, 91560, Note_on_c, 9, 46, 90
1, 91563, Note_on_c, 9, 46, 0
1, 91679, Note_on_c, 9, 36, 0
1, 91680, Note_on_c, 9, 37, 107
1, 91680, Note_on_c, 9, 38, 107
1, 91680, Note_on_c, 9, 40, 107
1, 91680, Note_on_c, 9, 42, 107
1, 91698, Note_on_c, 9, 37, 0
1, 91698, Note_on_c, 9, 42, 0
1, 92159, Note_on_c, 9, 38, 0
1, 92159, Note_on_c, 9, 40, 0
1, 92160, Note_on_c, 9, 36, 107
1, 92519, Note_on_c, 9, 36, 0
1, 92520, Note_on_c, 9, 44, 90
1, 92523, Note_on_c, 9, 44, 0
1, 92640, Note_on_c, 9, 37, 107
1, 92640, Note_on_c, 9, 38, 107
1, 92640, Note_on_c, 9, 40, 107
1, 92640, Note_on_c, 9, 42, 107
1, 92658, Note_on_c, 9, 37, 0
1, 92658, Note_on_c, 9, 42, 0
1, 93119, Note_on_c, 9, 38, 0
1, 93119, Note_on_c, 9, 40, 0
1, 93120, Note_on_c, 9, 36, 107
1, 93359, Note_on_c, 9, 36, 0
1, 93360, Note_on_c, 9, 36, 107
1, 93480, Note_on_c, 9, 46, 90
1, 93483, Note_on_c, 9, 46, 0
1, 93599, Note_on_c, 9, 36, 0
1, 93600, Note_on_c, 9, 37, 107
1, 93600, Note_on_c, 9, 38, 107
1, 93600, Note_on_c, 9, 40, 107
1, 93600, Note_on_c, 9, 42, 107
1, 93618, Note_on_c, 9, 37, 0
1, 93618, Note_on_c, 9, 42, 0
1, 94079, Note_on_c, 9, 38, 0
1, 94079, Note_on_c, 9, 40, 0
1, 94080, Note_on_c, 9, 36, 107
1, 94439, Note_on_c, 9, 36, 0
1, 94440, Note_on_c, 9, 44, 90
1, 94443, Note_on_c, 9, 44, 0
1, 94560, Note_on_c, 9, 37, 107
1, 94560, Note_on_c, 9, 38, 107
1, 94560, Note_on_c, 9, 40, 107
1, 94560, Note_on_c, 9, 42, 107
1, 94578, Note_on_c, 9, 37, 0
1, 94578, Note_on_c, 9, 42, 0
1, 95039, Note_on_c, 9, 38, 0
1, 95039, Note_on_c, 9, 40, 0
1, 95040, Note_on_c, 9, 36, 107
1, 95279, Note_on_c, 9, 36, 0
1, 95280, Note_on_c, 9, 36, 107
1, 95400, Note_on_c, 9, 46, 90
1, 95403, Note_on_c, 9, 46, 0
1, 95519, Note_on_c, 9, 36, 0
1, 95520, Note_on_c, 9, 37, 107
1, 95520, Note_on_c, 9, 38, 107
1, 95520, Note_on_c, 9, 40, 107
1, 95520, Note_on_c, 9, 42, 107
1, 95538, Note_on_c, 9, 37, 0
1, 95538, Note_on_c, 9, 42, 0
1, 95999, Note_on_c, 9, 38, 0
1, 95999, Note_on_c, 9, 40, 0
1, 96000, Note_on_c, 9, 36, 107
1, 96359, Note_on_c, 9, 36, 0
1, 96360, Note_on_c, 9, 44, 90
1, 96363, Note_on_c, 9, 44, 0
1, 96480, Note_on_c, 9, 37, 107
1, 96480, Note_on_c, 9, 38, 107
1, 96480, Note_on_c, 9, 40, 107
1, 96480, Note_on_c, 9, 42, 107
1, 96498, Note_on_c, 9, 37, 0
1, 96498, Note_on_c, 9, 42, 0
1, 96959, Note_on_c, 9, 38, 0
1, 96959, Note_on_c, 9, 40, 0
1, 96960, Note_on_c, 9, 36, 107
1, 97199, Note_on_c, 9, 36, 0
1, 97200, Note_on_c, 9, 36, 107
1, 97320, Note_on_c, 9, 46, 90
1, 97323, Note_on_c, 9, 46, 0
1, 97439, Note_on_c, 9, 36, 0
1, 97440, Note_on_c, 9, 37, 107
1, 97440, Note_on_c, 9, 38, 107
1, 97440, Note_on_c, 9, 40, 107
1, 97440, Note_on_c, 9, 42, 107
1, 97458, Note_on_c, 9, 37, 0
1, 97458, Note_on_c, 9, 42, 0
1, 97919, Note_on_c, 9, 38, 0
1, 97919, Note_on_c, 9, 40, 0
1, 97920, Note_on_c, 9, 36, 107
1, 98279, Note_on_c, 9, 36, 0
1, 98280, Note_on_c, 9, 44, 90
1, 98283, Note_on_c, 9, 44, 0
1, 98400, Note_on_c, 9, 37, 107
1, 98400, Note_on_c, 9, 38, 107
1, 98400, Note_on_c, 9, 40, 107
1, 98400, Note_on_c, 9, 42, 107
1, 98418, Note_on_c, 9, 37, 0
1, 98418, Note_on_c, 9, 42, 0
1, 98879, Note_on_c, 9, 38, 0
1, 98879, Note_on_c, 9, 40, 0
1, 98880, Note_on_c, 9, 36, 107
1, 99119, Note_on_c, 9, 36, 0
1, 99120, Note_on_c, 9, 36, 107
1, 99240, Note_on_c, 9, 46, 90
1, 99243, Note_on_c, 9, 46, 0
1, 99359, Note_on_c, 9, 36, 0
1, 99360, Note_on_c, 9, 37, 107
1, 99360, Note_on_c, 9, 38, 107
1, 99360, Note_on_c, 9, 40, 107
1, 99360, Note_on_c, 9, 42, 107
1, 99378, Note_on_c, 9, 37, 0
1, 99378, Note_on_c, 9, 42, 0
1, 99839, Note_on_c, 9, 38, 0
1, 99839, Note_on_c, 9, 40, 0
1, 99840, Note_on_c, 9, 36, 107
1, 100199, Note_on_c, 9, 36, 0
1, 100200, Note_on_c, 9, 44, 90
1, 100203, Note_on_c, 9, 44, 0
1, 100320, Note_on_c, 9, 37, 107
1, 100320, Note_on_c, 9, 38, 107
1, 100320, Note_on_c, 9, 40, 107
1, 100320, Note_on_c, 9, 42, 107
1, 100338, Note_on_c, 9, 37, 0
1, 100338, Note_on_c, 9, 42, 0
1, 100799, Note_on_c, 9, 38, 0
1, 100799, Note_on_c, 9, 40, 0
1, 100800, Note_on_c, 9, 36, 107
1, 101039, Note_on_c, 9, 36, 0
1, 101040, Note_on_c, 9, 36, 107
1, 101160, Note_on_c, 9, 46, 90
1, 101163, Note_on_c, 9, 46, 0
1, 101279, Note_on_c, 9, 36, 0
1, 101280, Note_on_c, 9, 37, 107
1, 101280, Note_on_c, 9, 38, 107
1, 101280, Note_on_c, 9, 40, 107
1, 101280, Note_on_c, 9, 42, 107
1, 101298, Note_on_c, 9, 37, 0
1, 101298, Note_on_c, 9, 42, 0
1, 101759, Note_on_c, 9, 38, 0
1, 101759, Note_on_c, 9, 40, 0
1, 101760, Note_on_c, 9, 36, 107
1, 102119, Note_on_c, 9, 36, 0
1, 102120, Note_on_c, 9, 44, 90
1, 102123, Note_on_c, 9, 44, 0
1, 102240, Note_on_c, 9, 37, 107
1, 102240, Note_on_c, 9, 38, 107
1, 102240, Note_on_c, 9, 40, 107
1, 102240, Note_on_c, 9, 42, 107
1, 102258, Note_on_c, 9, 37, 0
1, 102258, Note_on_c, 9, 42, 0
1, 102719, Note_on_c, 9, 38, 0
1, 102719, Note_on_c, 9, 40, 0
1, 102720, Note_on_c, 9, 36, 107
1, 102959, Note_on_c, 9, 36, 0
1, 102960, Note_on_c, 9, 36, 107
1, 103080, Note_on_c, 9, 46, 90
1, 103083, Note_on_c, 9, 46, 0
1, 103199, Note_on_c, 9, 36, 0
1, 103200, Note_on_c, 9, 37, 107
1, 103200, Note_on_c, 9, 38, 107
1, 103200, Note_on_c, 9, 40, 107
1, 103200, Note_on_c, 9, 42, 107
1, 103218, Note_on_c, 9, 37, 0
1, 103218, Note_on_c, 9, 42, 0
1, 103679, Note_on_c, 9, 38, 0
1, 103679, Note_on_c, 9, 40, 0
1, 103680, Note_on_c, 9, 36, 107
1, 104039, Note_on_c, 9, 36, 0
1, 104040, Note_on_c, 9, 44, 90
1, 104043, Note_on_c, 9, 44, 0
1, 104160, Note_on_c, 9, 37, 107
1, 104160, Note_on_c, 9, 38, 107
1, 104160, Note_on_c, 9, 40, 107
1, 104160, Note_on_c, 9, 42, 107
1, 104178, Note_on_c, 9, 37, 0
1, 104178, Note_on_c, 9, 42, 0
1, 104639, Note_on_c, 9, 38, 0
1, 104639, Note_on_c, 9, 40, 0
1, 104640, Note_on_c, 9, 36, 107
1, 104879, Note_on_c, 9, 36, 0
1, 104880, Note_on_c, 9, 36, 107
1, 105000, Note_on_c, 9, 46, 90
1, 105003, Note_on_c, 9, 46, 0
1, 105119, Note_on_c, 9, 36, 0
1, 105120, Note_on_c, 9, 37, 107
1, 105120, Note_on_c, 9, 38, 107
1, 105120, Note_on_c, 9, 40, 107
1, 105120, Note_on_c, 9, 42, 107
1, 105138, Note_on_c, 9, 37, 0
1, 105138, Note_on_c, 9, 42, 0
1, 105599, Note_on_c, 9, 38, 0
1, 105599, Note_on_c, 9, 40, 0
1, 105600, Note_on_c, 9, 36, 107
1, 105959, Note_on_c, 9, 36, 0
1, 105960, Note_on_c, 9, 44, 90
1, 105963, Note_on_c, 9, 44, 0
1, 106080, Note_on_c, 9, 37, 107
1, 106080, Note_on_c, 9, 38, 107
1, 106080, Note_on_c, 9, 40, 107
1, 106080, Note_on_c, 9, 42, 107
1, 106098, Note_on_c, 9, 37, 0
1, 106098, Note_on_c, 9, 42, 0
1, 106559, Note_on_c, 9, 38, 0
1, 106559, Note_on_c, 9, 40, 0
1, 106560, Note_on_c, 9, 36, 107
1, 106799, Note_on_c, 9, 36, 0
1, 106800, Note_on_c, 9, 36, 107
1, 106920, Note_on_c, 9, 46, 90
1, 106923, Note_on_c, 9, 46, 0
1, 107039, Note_on_c, 9, 36, 0
1, 107040, Note_on_c, 9, 37, 107
1, 107040, Note_on_c, 9, 38, 107
1, 107040, Note_on_c, 9, 40, 107
1, 107040, Note_on_c, 9, 42, 107
1, 107058, Note_on_c, 9, 37, 0
1, 107058, Note_on_c, 9, 42, 0
1, 107519, Note_on_c, 9, 38, 0
1, 107519, Note_on_c, 9, 40, 0
1, 107520, Note_on_c, 9, 36, 107
1, 107879, Note_on_c, 9, 36, 0
1, 107880, Note_on_c, 9, 44, 90
1, 107883, Note_on_c, 9, 44, 0
1, 108000, Note_on_c, 9, 37, 107
1, 108000, Note_on_c, 9, 38, 107
1, 108000, Note_on_c, 9, 40, 107
1, 108000, Note_on_c, 9, 42, 107
1, 108018, Note_on_c, 9, 37, 0
1, 108018, Note_on_c, 9, 42, 0
1, 108479, Note_on_c, 9, 38, 0
1, 108479, Note_on_c, 9, 40, 0
1, 108480, Note_on_c, 9, 36, 107
1, 108719, Note_on_c, 9, 36, 0
1, 108720, Note_on_c, 9, 36, 107
1, 108840, Note_on_c, 9, 46, 90
1, 108843, Note_on_c, 9, 46, 0
1, 108959, Note_on_c, 9, 36, 0
1, 108960, Note_on_c, 9, 37, 107
1, 108960, Note_on_c, 9, 38, 107
1, 108960, Note_on_c, 9, 40, 107
1, 108960, Note_on_c, 9, 42, 107
1, 108978, Note_on_c, 9, 37, 0
1, 108978, Note_on_c, 9, 42, 0
1, 109439, Note_on_c, 9, 38, 0
1, 109439, Note_on_c, 9, 40, 0
1, 109440, Note_on_c, 9, 36, 107
1, 109799, Note_on_c, 9, 36, 0
1, 109800, Note_on_c, 9, 44, 90
1, 109803, Note_on_c, 9, 44, 0
1, 109920, Note_on_c, 9, 37, 107
1, 109920, Note_on_c, 9, 38, 107
1, 109920, Note_on_c, 9, 40, 107
1, 109920, Note_on_c, 9, 42, 107
1, 109938, Note_on_c, 9, 37, 0
1, 109938, Note_on_c, 9, 42, 0
1, 110399, Note_on_c, 9, 38, 0
1, 110399, Note_on_c, 9, 40, 0
1, 110400, Note_on_c, 9, 36, 107
1, 110639, Note_on_c, 9, 36, 0
1, 110640, Note_on_c, 9, 36, 107
1, 110760, Note_on_c, 9, 46, 90
1, 110763, Note_on_c, 9, 46, 0
1, 110879, Note_on_c, 9, 36, 0
1, 110880, Note_on_c, 9, 37, 107
1, 110880, Note_on_c, 9, 38, 107
1, 110880, Note_on_c, 9, 40, 107
1, 110880, Note_on_c, 9, 42, 107
1, 110898, Note_on_c, 9, 37, 0
1, 110898, Note_on_c, 9, 42, 0
1, 111359, Note_on_c, 9, 38, 0
1, 111359, Note_on_c, 9, 40, 0
1, 111360, Note_on_c, 9, 36, 107
1, 111719, Note_on_c, 9, 36, 0
1, 111720, Note_on_c, 9, 44, 90
1, 111723, Note_on_c, 9, 44, 0
1, 111840, Note_on_c, 9, 37, 107
1, 111840, Note_on_c, 9, 38, 107
1, 111840, Note_on_c, 9, 40, 107
1, 111840, Note_on_c, 9, 42, 107
1, 111858, Note_on_c, 9, 37, 0
1, 111858, Note_on_c, 9, 42, 0
1, 112319, Note_on_c, 9, 38, 0
1, 112319, Note_on_c, 9, 40, 0
1, 112320, Note_on_c, 9, 36, 107
1, 112559, Note_on_c, 9, 36, 0
1, 112560, Note_on_c, 9, 36, 107
1, 112680, Note_on_c, 9, 46, 90
1, 112683, Note_on_c, 9, 46, 0
1, 112799, Note_on_c, 9, 36, 0
1, 112800, Note_on_c, 9, 37, 107
1, 112800, Note_on_c, 9, 38, 107
1, 112800, Note_on_c, 9, 40, 107
1, 112800, Note_on_c, 9, 42, 107
1, 112818, Note_on_c, 9, 37, 0
1, 112818, Note_on_c, 9, 42, 0
1, 113279, Note_on_c, 9, 38, 0
1, 113279, Note_on_c, 9, 40, 0
1, 113280, Note_on_c, 9, 36, 107
1, 113639, Note_on_c, 9, 36, 0
1, 113640, Note_on_c, 9, 44, 90
1, 113643, Note_on_c, 9, 44, 0
1, 113760, Note_on_c, 9, 37, 107
1, 113760, Note_on_c, 9, 38, 107
1, 113760, Note_on_c, 9, 40, 107
1, 113760, Note_on_c, 9, 42, 107
1, 113778, Note_on_c, 9, 37, 0
1, 113778, Note_on_c, 9, 42, 0
1, 114239, Note_on_c, 9, 38, 0
1, 114239, Note_on_c, 9, 40, 0
1, 114240, Note_on_c, 9, 36, 107
1, 114479, Note_on_c, 9, 36, 0
1, 114480, Note_on_c, 9, 36, 107
1, 114600, Note_on_c, 9, 46, 90
1, 114603, Note_on_c, 9, 46, 0
1, 114719, Note_on_c, 9, 36, 0
1, 114720, Note_on_c, 9, 37, 107
1, 114720, Note_on_c, 9, 38, 107
1, 114720, Note_on_c, 9, 40, 107
1, 114720, Note_on_c, 9, 42, 107
1, 114738, Note_on_c, 9, 37, 0
1, 114738, Note_on_c, 9, 42, 0
1, 115199, Note_on_c, 9, 38, 0
1, 115199, Note_on_c, 9, 40, 0
1, 115200, Note_on_c, 9, 36, 107
1, 115559, Note_on_c, 9, 36, 0
1, 115560, Note_on_c, 9, 44, 90
1, 115563, Note_on_c, 9, 44, 0
1, 115680, Note_on_c, 9, 37, 107
1, 115680, Note_on_c, 9, 38, 107
1, 115680, Note_on_c, 9, 40, 107
1, 115680, Note_on_c, 9, 42, 107
1, 115698, Note_on_c, 9, 37, 0
1, 115698, Note_on_c, 9, 42, 0
1, 116159, Note_on_c, 9, 38, 0
1, 116159, Note_on_c, 9, 40, 0
1, 116160, Note_on_c, 9, 36, 107
1, 116399, Note_on_c, 9, 36, 0
1, 116400, Note_on_c, 9, 36, 107
1, 116520, Note_on_c, 9, 46, 90
1, 116523, Note_on_c, 9, 46, 0
1, 116639, Note_on_c, 9, 36, 0
1, 116640, Note_on_c, 9, 37, 107
1, 116640, Note_on_c, 9, 38, 107
1, 116640, Note_on_c, 9, 40, 107
1, 116640, Note_on_c, 9, 42, 107
1, 116658, Note_on_c, 9, 37, 0
1, 116658, Note_on_c, 9, 42, 0
1, 117119, Note_on_c, 9, 38, 0
1, 117119, Note_on_c, 9, 40, 0
1, 117120, Note_on_c, 9, 36, 107
1, 117479, Note_on_c, 9, 36, 0
1, 117480, Note_on_c, 9, 44, 90
1, 117483, Note_on_c, 9, 44, 0
1, 117600, Note_on_c, 9, 37, 107
1, 117600, Note_on_c, 9, 38, 107
1, 117600, Note_on_c, 9, 40, 107
1, 117600, Note_on_c, 9, 42, 107
1, 117618, Note_on_c, 9, 37, 0
1, 117618, Note_on_c, 9, 42, 0
1, 118079, Note_on_c, 9, 38, 0
1, 118079, Note_on_c, 9, 40, 0
1, 118080, Note_on_c, 9, 36, 107
1, 118319, Note_on_c, 9, 36, 0
1, 118320, Note_on_c, 9, 36, 107
1, 118440, Note_on_c, 9, 46, 90
1, 118443, Note_on_c, 9, 46, 0
1, 118559, Note_on_c, 9, 36, 0
1, 118560, Note_on_c, 9, 37, 107
1, 118560, Note_on_c, 9, 38, 107
1, 118560, Note_on_c, 9, 40, 107
1, 118560, Note_on_c, 9, 42, 107
1, 118578, Note_on_c, 9, 37, 0
1, 118578, Note_on_c, 9, 42, 0
1, 119039, Note_on_c, 9, 38, 0
1, 119039, Note_on_c, 9, 40, 0
1, 119040, Note_on_c, 9, 36, 107
1, 119399, Note_on_c, 9, 36, 0
1, 119400, Note_on_c, 9, 44, 90
1, 119403, Note_on_c, 9, 44, 0
1, 119520, Note_on_c, 9, 37, 107
1, 119520, Note_on_c, 9, 38, 107
1, 119520, Note_on_c, 9, 40, 107
1, 119520, Note_on_c, 9, 42, 107
1, 119538, Note_on_c, 9, 37, 0
1, 119538, Note_on_c, 9, 42, 0
1, 119999, Note_on_c, 9, 38, 0
1, 119999, Note_on_c, 9, 40, 0
1, 120000, Note_on_c, 9, 36, 107
1, 120239, Note_on_c, 9, 36, 0
1, 120240, Note_on_c, 9, 36, 107
1, 120360, Note_on_c, 9, 46, 90
1, 120363, Note_on_c, 9, 46, 0
1, 120479, Note_on_c, 9, 36, 0
1, 120480, Note_on_c, 9, 37, 107
1, 120480, Note_on_c, 9, 38, 107
1, 120480, Note_on_c, 9, 40, 107
1, 120480, Note_on_c, 9, 42, 107
1, 120498, Note_on_c, 9, 37, 0
1, 120498, Note_on_c, 9, 42, 0
1, 120959, Note_on_c, 9, 38, 0
1, 120959, Note_on_c, 9, 40, 0
1, 120960, Note_on_c, 9, 36, 107
1, 121319, Note_on_c, 9, 36, 0
1, 121320, Note_on_c, 9, 44, 90
1, 121323, Note_on_c, 9, 44, 0
1, 121440, Note_on_c, 9, 37, 107
1, 121440, Note_on_c, 9, 38, 107
1, 121440, Note_on_c, 9, 40, 107
1, 121440, Note_on_c, 9, 42, 107
1, 121458, Note_on_c, 9, 37, 0
1, 121458, Note_on_c, 9, 42, 0
1, 121919, Note_on_c, 9, 38, 0
1, 121919, Note_on_c, 9, 40, 0
1, 121920, Note_on_c, 9, 36, 107
1, 122159, Note_on_c, 9, 36, 0
1, 122160, Note_on_c, 9, 36, 107
1, 122280, Note_on_c, 9, 46, 90
1, 122283, Note_on_c, 9, 46, 0
1, 122399, Note_on_c, 9, 36, 0
1, 122400, Note_on_c, 9, 37, 107
1, 122400, Note_on_c, 9, 38, 107
1, 122400, Note_on_c, 9, 40, 107
1, 122400, Note_on_c, 9, 42, 107
1, 122418, Note_on_c, 9, 37, 0
1, 122418, Note_on_c, 9, 42, 0
1, 122879, Note_on_c, 9, 38, 0
1, 122879, Note_on_c, 9, 40, 0
1, 122880, Note_on_c, 9, 36, 107
1, 123239, Note_on_c, 9, 36, 0
1, 123240, Note_on_c, 9, 44, 90
1, 123243, Note_on_c, 9, 44, 0
1, 123360, Note_on_c, 9, 37, 107
1, 123360, Note_on_c, 9, 38, 107
1, 123360, Note_on_c, 9, 40, 107
1, 123360, Note_on_c, 9, 42, 107
1, 123378, Note_on_c, 9, 37, 0
1, 123378, Note_on_c, 9, 42, 0
1, 123839, Note_on_c, 9, 38, 0
1, 123839, Note_on_c, 9, 40, 0
1, 123840, Note_on_c, 9, 36, 107
1, 124079, Note_on_c, 9, 36, 0
1, 124080, Note_on_c, 9, 36, 107
1, 124200, Note_on_c, 9, 46, 90
1, 124203, Note_on_c, 9, 46, 0
1, 124319, Note_on_c, 9, 36, 0
1, 124320, Note_on_c, 9, 37, 107
1, 124320, Note_on_c, 9, 38, 107
1, 124320, Note_on_c, 9, 40, 107
1, 124320, Note_on_c, 9, 42, 107
1, 124338, Note_on_c, 9, 37, 0
1, 124338, Note_on_c, 9, 42, 0
1, 124799, Note_on_c, 9, 38, 0
1, 124799, Note_on_c, 9, 40, 0
1, 124800, Note_on_c, 9, 36, 107
1, 125159, Note_on_c, 9, 36, 0
1, 125160, Note_on_c, 9, 44, 90
1, 125163, Note_on_c, 9, 44, 0
1, 125280, Note_on_c, 9, 37, 107
1, 125280, Note_on_c, 9, 38, 107
1, 125280, Note_on_c, 9, 40, 107
1, 125280, Note_on_c, 9, 42, 107
1, 125298, Note_on_c, 9, 37, 0
1, 125298, Note_on_c, 9, 42, 0
1, 125759, Note_on_c, 9, 38, 0
1, 125759, Note_on_c, 9, 40, 0
1, 125760, Note_on_c, 9, 36, 107
1, 125999, Note_on_c, 9, 36, 0
1, 126000, Note_on_c, 9, 36, 107
1, 126120, Note_on_c, 9, 46, 90
1, 126123, Note_on_c, 9, 46, 0
1, 126239, Note_on_c, 9, 36, 0
1, 126240, Note_on_c, 9, 37, 107
1, 126240, Note_on_c, 9, 38, 107
1, 126240, Note_on_c, 9, 40, 107
1, 126240, Note_on_c, 9, 42, 107
1, 126258, Note_on_c, 9, 37, 0
1, 126258, Note_on_c, 9, 42, 0
1, 126719, Note_on_c, 9, 38, 0
1, 126719, Note_on_c, 9, 40, 0
1, 126720, Note_on_c, 9, 36, 107
1, 127079, Note_on_c, 9, 36, 0
1, 127080, Note_on_c, 9, 44, 90
1, 127083, Note_on_c, 9, 44, 0
1, 127200, Note_on_c, 9, 37, 107
1, 127200, Note_on_c, 9, 38, 107
1, 127200, Note_on_c, 9, 40, 107
1, 127200, Note_on_c, 9, 42, 107
1, 127218, Note_on_c, 9, 37, 0
1, 127218, Note_on_c, 9, 42, 0
1, 127679, Note_on_c, 9, 38, 0
1, 127679, Note_on_c, 9, 40, 0
1, 127680, Note_on_c, 9, 36, 107
1, 127919, Note_on_c, 9, 36, 0
1, 127920, Note_on_c, 9, 36, 107
1, 128040, Note_on_c, 9, 46, 90
1, 128043, Note_on_c, 9, 46, 0
1, 128159, Note_on_c, 9, 36, 0
1, 128160, Note_on_c, 9, 37, 107
1, 128160, Note_on_c, 9, 38, 107
1, 128160, Note_on_c, 9, 40, 107
1, 128160, Note_on_c, 9, 42, 107
1, 128178, Note_on_c, 9, 37, 0
1, 128178, Note_on_c, 9, 42, 0
1, 128639, Note_on_c, 9, 38, 0
1, 128639, Note_on_c, 9, 40, 0
1, 128640, Note_on_c, 9, 36, 107
1, 128999, Note_on_c, 9, 36, 0
1, 129000, Note_on_c, 9, 44, 90
1, 129003, Note_on_c, 9, 44, 0
1, 129120, Note_on_c, 9, 37, 107
1, 129120, Note_on_c, 9, 38, 107
1, 129120, Note_on_c, 9, 40, 107
1, 129120, Note_on_c, 9, 42, 107
1, 129138, Note_on_c, 9, 37, 0
1, 129138, Note_on_c, 9, 42, 0
1, 129599, Note_on_c, 9, 38, 0
1, 129599, Note_on_c, 9, 40, 0
1, 129600, Note_on_c, 9, 36, 107
1, 129839, Note_on_c, 9, 36, 0
1, 129840, Note_on_c, 9, 36, 107
1, 129960, Note_on_c, 9, 46, 90
1, 129963, Note_on_c, 9, 46, 0
1, 130079, Note_on_c, 9, 36, 0
1, 130080, Note_on_c, 9, 37, 107
1, 130080, Note_on_c, 9, 38, 107
1, 130080, Note_on_c, 9, 40, 107
1, 130080, Note_on_c, 9, 42, 107
1, 130098, Note_on_c, 9, 37, 0
1, 130098, Note_on_c, 9, 42, 0
1, 130559, Note_on_c, 9, 38, 0
1, 130559, Note_on_c, 9, 40, 0
1, 130560, Note_on_c, 9, 36, 107
1, 130919, Note_on_c, 9, 36, 0
1, 130920, Note_on_c, 9, 44, 90
1, 130923, Note_on_c, 9, 44, 0
1, 131040, Note_on_c, 9, 37, 107
1, 131040, Note_on_c, 9, 38, 107
1, 131040, Note_on_c, 9, 40, 107
1, 131040, Note_on_c, 9, 42, 107
1, 131058, Note_on_c, 9, 37, 0
1, 131058, Note_on_c, 9, 42, 0
1, 131519, Note_on_c, 9, 38, 0
1, 131519, Note_on_c, 9, 40, 0
1, 131520, Note_on_c, 9, 36, 107
1, 131759, Note_on_c, 9, 36, 0
1, 131760, Note_on_c, 9, 36, 107
1, 131880, Note_on_c, 9, 46, 90
1, 131883, Note_on_c, 9, 46, 0
1, 131999, Note_on_c, 9, 36, 0
1, 132000, Note_on_c, 9, 37, 107
1, 132000, Note_on_c, 9, 38, 107
1, 132000, Note_on_c, 9, 40, 107
1, 132000, Note_on_c, 9, 42, 107
1, 132018, Note_on_c, 9, 37, 0
1, 132018, Note_on_c, 9, 42, 0
1, 132479, Note_on_c, 9, 38, 0
1, 132479, Note_on_c, 9, 40, 0
1, 132480, Note_on_c, 9, 36, 107
1, 132839, Note_on_c, 9, 36, 0
1, 132840, Note_on_c, 9, 44, 90
1, 132843, Note_on_c, 9, 44, 0
1, 132960, Note_on_c, 9, 37, 107
1, 132960, Note_on_c, 9, 38, 107
1, 132960, Note_on_c, 9, 40, 107
1, 132960, Note_on_c, 9, 42, 107
1, 132978, Note_on_c, 9, 37, 0
1, 132978, Note_on_c, 9, 42, 0
1, 133439, Note_on_c, 9, 38, 0
1, 133439, Note_on_c, 9, 40, 0
1, 133440, Note_on_c, 9, 36, 107
1, 133679, Note_on_c, 9, 36, 0
1, 133680, Note_on_c, 9, 36, 107
1, 133800, Note_on_c, 9, 46, 90
1, 133803, Note_on_c, 9, 46, 0
1, 133919, Note_on_c, 9, 36, 0
1, 133920, Note_on_c, 9, 37, 107
1, 133920, Note_on_c, 9, 38, 107
1, 133920, Note_on_c, 9, 40, 107
1, 133920, Note_on_c, 9, 42, 107
1, 133938, Note_on_c, 9, 37, 0
1, 133938, Note_on_c, 9, 42, 0
1, 134399, Note_on_c, 9, 38, 0
1, 134399, Note_on_c, 9, 40, 0
1, 134400, Note_on_c, 9, 36, 107
1, 134759, Note_on_c, 9, 36, 0
1, 134760, Note_on_c, 9, 44, 90
1, 134763, Note_on_c, 9, 44, 0
1, 134880, Note_on_c, 9, 37, 107
1, 134880, Note_on_c, 9, 38, 107
1, 134880, Note_on_c, 9, 40, 107
1, 134880, Note_on_c, 9, 42, 107
1, 134898, Note_on_c, 9, 37, 0
1, 134898, Note_on_c, 9, 42, 0
1, 135359, Note_on_c, 9, 38, 0
1, 135359, Note_on_c, 9, 40, 0
1, 135360, Note_on_c, 9, 36, 107
1, 135599, Note_on_c, 9, 36, 0
1, 135600, Note_on_c, 9, 36, 107
1, 135720, Note_on_c, 9, 46, 90
1, 135723, Note_on_c, 9, 46, 0
1, 135839, Note_on_c, 9, 36, 0
1, 135840, Note_on_c, 9, 37, 107
1, 135840, Note_on_c, 9, 38, 107
1, 135840, Note_on_c, 9, 40, 107
1, 135840, Note_on_c, 9, 42, 107
1, 135858, Note_on_c, 9, 37, 0
1, 135858, Note_on_c, 9, 42, 0
1, 136319, Note_on_c, 9, 38, 0
1, 136319, Note_on_c, 9, 40, 0
1, 136320, Note_on_c, 9, 36, 107
1, 136679, Note_on_c, 9, 36, 0
1, 136680, Note_on_c, 9, 44, 90
1, 136683, Note_on_c, 9, 44, 0
1, 136800, Note_on_c, 9, 37, 107
1, 136800, Note_on_c, 9, 38, 107
1, 136800, Note_on_c, 9, 40, 107
1, 136800, Note_on_c, 9, 42, 107
1, 136818, Note_on_c, 9, 37, 0
1, 136818, Note_on_c, 9, 42, 0
1, 137279, Note_on_c, 9, 38, 0
1, 137279, Note_on_c, 9, 40, 0
1, 137280, Note_on_c, 9, 36, 107
1, 137519, Note_on_c, 9, 36, 0
1, 137520, Note_on_c, 9, 36, 107
1, 137640, Note_on_c, 9, 46, 90
1, 137643, Note_on_c, 9, 46, 0
1, 137759, Note_on_c, 9, 36, 0
1, 137760, Note_on_c, 9, 37, 107
1, 137760, Note_on_c, 9, 38, 107
1, 137760, Note_on_c, 9, 40, 107
1, 137760, Note_on_c, 9, 42, 107
1, 137778, Note_on_c, 9, 37, 0
1, 137778, Note_on_c, 9, 42, 0
1, 138239, Note_on_c, 9, 38, 0
1, 138239, Note_on_c, 9, 40, 0
1, 138240, Note_on_c, 9, 36, 107
1, 138599, Note_on_c, 9, 36, 0
1, 138600, Note_on_c, 9, 44, 90
1, 138603, Note_on_c, 9, 44, 0
1, 138720, Note_on_c, 9, 37, 107
1, 138720, Note_on_c, 9, 38, 107
1, 138720, Note_on_c, 9, 40, 107
1, 138720, Note_on_c, 9, 42, 107
1, 138738, Note_on_c, 9, 37, 0
1, 138738, Note_on_c, 9, 42, 0
1, 139199, Note_on_c, 9, 38, 0
1, 139199, Note_on_c, 9, 40, 0
1, 139200, Note_on_c, 9, 36, 107
1, 139439, Note_on_c, 9, 36, 0
1, 139440, Note_on_c, 9, 36, 107
1, 139560, Note_on_c, 9, 46, 90
1, 139563, Note_on_c, 9, 46, 0
1, 139679, Note_on_c, 9, 36, 0
1, 139680, Note_on_c, 9, 37, 107
1, 139680, Note_on_c, 9, 38, 107
1, 139680, Note_on_c, 9, 40, 107
1, 139680, Note_on_c, 9, 42, 107
1, 139698, Note_on_c, 9, 37, 0
1, 139698, Note_on_c, 9, 42, 0
1, 140159, Note_on_c, 9, 38, 0
1, 140159, Note_on_c, 9, 40, 0
1, 140160, Note_on_c, 9, 36, 107
1, 140519, Note_on_c, 9, 36, 0
1, 140520, Note_on_c, 9, 44, 90
1, 140523, Note_on_c, 9, 44, 0
1, 140640, Note_on_c, 9, 37, 107
1, 140640, Note_on_c, 9, 38, 107
1, 140640, Note_on_c, 9, 40, 107
1, 140640, Note_on_c, 9, 42, 107
1, 140658, Note_on_c, 9, 37, 0
1, 140658, Note_on_c, 9, 42, 0
1, 141119, Note_on_c, 9, 38, 0
1, 141119, Note_on_c, 9, 40, 0
1, 141120, Note_on_c, 9, 36, 107
1, 141359, Note_on_c, 9, 36, 0
1, 141360, Note_on_c, 9, 36, 107
1, 141480, Note_on_c, 9, 46, 90
1, 141483, Note_on_c, 9, 46, 0
1, 141599, Note_on_c, 9, 36, 0
1, 141600, Note_on_c, 9, 37, 107
1, 141600, Note_on_c, 9, 38, 107
1, 141600, Note_on_c, 9, 40, 107
1, 141600, Note_on_c, 9, 42, 107
1, 141618, Note_on_c, 9, 37, 0
1, 141618, Note_on_c, 9, 42, 0
1, 142079, Note_on_c, 9, 38, 0
1, 142079, Note_on_c, 9, 40, 0
1, 142080, Note_on_c, 9, 36, 107
1, 142439, Note_on_c, 9, 36, 0
1, 142440, Note_on_c, 9, 44, 90
1, 142443, Note_on_c, 9, 44, 0
1, 142560, Note_on_c, 9, 37, 107
1, 142560, Note_on_c, 9, 38, 107
1, 142560, Note_on_c, 9, 40, 107
1, 142560, Note_on_c, 9, 42, 107
1, 142578, Note_on_c, 9, 37, 0
1, 142578, Note_on_c, 9, 42, 0
1, 143039, Note_on_c, 9, 38, 0
1, 143039, Note_on_c, 9, 40, 0
1, 143040, Note_on_c, 9, 36, 107
1, 143279, Note_on_c, 9, 36, 0
1, 143280, Note_on_c, 9, 36, 107
1, 143400, Note_on_c, 9, 46, 90
1, 143403, Note_on_c, 9, 46, 0
1, 143519, Note_on_c, 9, 36, 0
1, 143520, Note_on_c, 9, 37, 107
1, 143520, Note_on_c, 9, 38, 107
1, 143520, Note_on_c, 9, 40, 107
1, 143520, Note_on_c, 9, 42, 107
1, 143538, Note_on_c, 9, 37, 0
1, 143538, Note_on_c, 9, 42, 0
1, 143999, Note_on_c, 9, 38, 0
1, 143999, Note_on_c, 9, 40, 0
1, 147840, Note_on_c, 9, 36, 107
1, 148199, Note_on_c, 9, 36, 0
1, 148200, Note_on_c, 9, 44, 90
1, 148203, Note_on_c, 9, 44, 0
1, 148320, Note_on_c, 9, 37, 107
1, 148320, Note_on_c, 9, 38, 107
1, 148320, Note_on_c, 9, 40, 107
1, 148320, Note_on_c, 9, 42, 107
1, 148338, Note_on_c, 9, 37, 0
1, 148338, Note_on_c, 9, 42, 0
1, 148799, Note_on_c, 9, 38, 0
1, 148799, Note_on_c, 9, 40, 0
1, 148800, Note_on_c, 9, 36, 107
1, 149039, Note_on_c, 9, 36, 0
1, 149040, Note_on_c, 9, 36, 107
1, 149160, Note_on_c, 9, 46, 90
1, 149163, Note_on_c, 9, 46, 0
1, 149279, Note_on_c, 9, 36, 0
1, 149280, Note_on_c, 9, 37, 107
1, 149280, Note_on_c, 9, 38, 107
1, 149280, Note_on_c, 9, 40, 107
1, 149280, Note_on_c, 9, 42, 107
1, 149298, Note_on_c, 9, 37, 0
1, 149298, Note_on_c, 9, 42, 0
1, 149759, Note_on_c, 9, 38, 0
1, 149759, Note_on_c, 9, 40, 0
1, 149760, Note_on_c, 9, 36, 107
1, 150119, Note_on_c, 9, 36, 0
1, 150120, Note_on_c, 9, 44, 90
1, 150123, Note_on_c, 9, 44, 0
1, 150240, Note_on_c, 9, 37, 107
1, 150240, Note_on_c, 9, 38, 107
1, 150240, Note_on_c, 9, 40, 107
1, 150240, Note_on_c, 9, 42, 107
1, 150258, Note_on_c, 9, 37, 0
1, 150258, Note_on_c, 9, 42, 0
1, 150719, Note_on_c, 9, 38, 0
1, 150719, Note_on_c, 9, 40, 0
1, 150720, Note_on_c, 9, 36, 107
1, 150959, Note_on_c, 9, 36, 0
1, 150960, Note_on_c, 9, 36, 107
1, 151080, Note_on_c, 9, 46, 90
1, 151083, Note_on_c, 9, 46, 0
1, 151199, Note_on_c, 9, 36, 0
1, 151200, Note_on_c, 9, 37, 107
1, 151200, Note_on_c, 9, 38, 107
1, 151200, Note_on_c, 9, 40, 107
1, 151200, Note_on_c, 9, 42, 107
1, 151218, Note_on_c, 9, 37, 0
1, 151218, Note_on_c, 9, 42, 0
1, 151679, Note_on_c, 9, 38, 0
1, 151679, Note_on_c, 9, 40, 0
1, 151680, Note_on_c, 9, 36, 107
1, 152039, Note_on_c, 9, 36, 0
1, 152040, Note_on_c, 9, 44, 90
1, 152043, Note_on_c, 9, 44, 0
1, 152160, Note_on_c, 9, 37, 107
1, 152160, Note_on_c, 9, 38, 107
1, 152160, Note_on_c, 9, 40, 107
1, 152160, Note_on_c, 9, 42, 107
1, 152178, Note_on_c, 9, 37, 0
1, 152178, Note_on_c, 9, 42, 0
1, 152639, Note_on_c, 9, 38, 0
1, 152639, Note_on_c, 9, 40, 0
1, 152640, Note_on_c, 9, 36, 107
1, 152879, Note_on_c, 9, 36, 0
1, 152880, Note_on_c, 9, 36, 107
1, 153000, Note_on_c, 9, 46, 90
1, 153003, Note_on_c, 9, 46, 0
1, 153119, Note_on_c, 9, 36, 0
1, 153120, Note_on_c, 9, 37, 107
1, 153120, Note_on_c, 9, 38, 107
1, 153120, Note_on_c, 9, 40, 107
1, 153120, Note_on_c, 9, 42, 107
1, 153138, Note_on_c, 9, 37, 0
1, 153138, Note_on_c, 9, 42, 0
1, 153599, Note_on_c, 9, 38, 0
1, 153599, Note_on_c, 9, 40, 0
1, 153600, Note_on_c, 9, 36, 107
1, 153959, Note_on_c, 9, 36, 0
1, 153960, Note_on_c, 9, 44, 90
1, 153963, Note_on_c, 9, 44, 0
1, 154080, Note_on_c, 9, 37, 107
1, 154080, Note_on_c, 9, 38, 107
1, 154080, Note_on_c, 9, 40, 107
1, 154080, Note_on_c, 9, 42, 107
1, 154098, Note_on_c, 9, 37, 0
1, 154098, Note_on_c, 9, 42, 0
1, 154559, Note_on_c, 9, 38, 0
1, 154559, Note_on_c, 9, 40, 0
1, 154560, Note_on_c, 9, 36, 107
1, 154799, Note_on_c, 9, 36, 0
1, 154800, Note_on_c, 9, 36, 107
1, 154920, Note_on_c, 9, 46, 90
1, 154923, Note_on_c, 9, 46, 0
1, 155039, Note_on_c, 9, 36, 0
1, 155040, Note_on_c, 9, 37, 107
1, 155040, Note_on_c, 9, 38, 107
1, 155040, Note_on_c, 9, 40, 107
1, 155040, Note_on_c, 9, 42, 107
1, 155058, Note_on_c, 9, 37, 0
1, 155058, Note_on_c, 9, 42, 0
1, 155519, Note_on_c, 9, 38, 0
1, 155519, Note_on_c, 9, 40, 0
1, 155520, Note_on_c, 9, 36, 107
1, 155879, Note_on_c, 9, 36, 0
1, 155880, Note_on_c, 9, 44, 90
1, 155883, Note_on_c, 9, 44, 0
1, 156000, Note_on_c, 9, 37, 107
1, 156000, Note_on_c, 9, 38, 107
1, 156000, Note_on_c, 9, 40, 107
1, 156000, Note_on_c, 9, 42, 107
1, 156018, Note_on_c, 9, 37, 0
1, 156018, Note_on_c, 9, 42, 0
1, 156479, Note_on_c, 9, 38, 0
1, 156479, Note_on_c, 9, 40, 0
1, 156480, Note_on_c, 9, 36, 107
1, 156719, Note_on_c, 9, 36, 0
1, 156720, Note_on_c, 9, 36, 107
1, 156840, Note_on_c, 9, 46, 90
1, 156843, Note_on_c, 9, 46, 0
1, 156959, Note_on_c, 9, 36, 0
1, 156960, Note_on_c, 9, 37, 107
1, 156960, Note_on_c, 9, 38, 107
1, 156960, Note_on_c, 9, 40, 107
1, 156960, Note_on_c, 9, 42, 107
1, 156978, Note_on_c, 9, 37, 0
1, 156978, Note_on_c, 9, 42, 0
1, 157439, Note_on_c, 9, 38, 0
1, 157439, Note_on_c, 9, 40, 0
1, 157440, Note_on_c, 9, 36, 107
1, 157799, Note_on_c, 9, 36, 0
1, 157800, Note_on_c, 9, 44, 90
1, 157803, Note_on_c, 9, 44, 0
1, 157920, Note_on_c, 9, 37, 107
1, 157920, Note_on_c, 9, 38, 107
1, 157920, Note_on_c, 9, 40, 107
1, 157920, Note_on_c, 9, 42, 107
1, 157938, Note_on_c, 9, 37, 0
1, 157938, Note_on_c, 9, 42, 0
1, 158399, Note_on_c, 9, 38, 0
1, 158399, Note_on_c, 9, 40, 0
1, 158400, Note_on_c, 9, 36, 107
1, 158639, Note_on_c, 9, 36, 0
1, 158640, Note_on_c, 9, 36, 107
1, 158760, Note_on_c, 9, 46, 90
1, 158763, Note_on_c, 9, 46, 0
1, 158879, Note_on_c, 9, 36, 0
1, 158880, Note_on_c, 9, 37, 107
1, 158880, Note_on_c, 9, 38, 107
1, 158880, Note_on_c, 9, 40, 107
1, 158880, Note_on_c, 9, 42, 107
1, 158898, Note_on_c, 9, 37, 0
1, 158898, Note_on_c, 9, 42, 0
1, 159359, Note_on_c, 9, 38, 0
1, 159359, Note_on_c, 9, 40, 0
1, 159360, Note_on_c, 9, 36, 107
1, 159719, Note_on_c, 9, 36, 0
1, 159720, Note_on_c, 9, 44, 90
1, 159723, Note_on_c, 9, 44, 0
1, 159840, Note_on_c, 9, 37, 107
1, 159840, Note_on_c, 9, 38, 107
1, 159840, Note_on_c, 9, 40, 107
1, 159840, Note_on_c, 9, 42, 107
1, 159858, Note_on_c, 9, 37, 0
1, 159858, Note_on_c, 9, 42, 0
1, 160319, Note_on_c, 9, 38, 0
1, 160319, Note_on_c, 9, 40, 0
1, 160320, Note_on_c, 9, 36, 107
1, 160559, Note_on_c, 9, 36, 0
1, 160560, Note_on_c, 9, 36, 107
1, 160680, Note_on_c, 9, 46, 90
1, 160683, Note_on_c, 9, 46, 0
1, 160799, Note_on_c, 9, 36, 0
1, 160800, Note_on_c, 9, 37, 107
1, 160800, Note_on_c, 9, 38, 107
1, 160800, Note_on_c, 9, 40, 107
1, 160800, Note_on_c, 9, 42, 107
1, 160818, Note_on_c, 9, 37, 0
1, 160818, Note_on_c, 9, 42, 0
1, 161279, Note_on_c, 9, 38, 0
1, 161279, Note_on_c, 9, 40, 0
1, 161280, Note_on_c, 9, 36, 107
1, 161639, Note_on_c, 9, 36, 0
1, 161640, Note_on_c, 9, 44, 90
1, 161643, Note_on_c, 9, 44, 0
1, 161760, Note_on_c, 9, 37, 107
1, 161760, Note_on_c, 9, 38, 107
1, 161760, Note_on_c, 9, 40, 107
1, 161760, Note_on_c, 9, 42, 107
1, 161778, Note_on_c, 9, 37, 0
1, 161778, Note_on_c, 9, 42, 0
1, 162239, Note_on_c, 9, 38, 0
1, 162239, Note_on_c, 9, 40, 0
1, 162240, Note_on_c, 9, 36, 107
1, 162479, Note_on_c, 9, 36, 0
1, 162480, Note_on_c, 9, 36, 107
1, 162600, Note_on_c, 9, 46, 90
1, 162603, Note_on_c, 9, 46, 0
1, 162719, Note_on_c, 9, 36, 0
1, 162720, Note_on_c, 9, 37, 107
1, 162720, Note_on_c, 9, 38, 107
1, 162720, Note_on_c, 9, 40, 107
1, 162720, Note_on_c, 9, 42, 107
1, 162738, Note_on_c, 9, 37, 0
1, 162738, Note_on_c, 9, 42, 0
1, 163199, Note_on_c, 9, 38, 0
1, 163199, Note_on_c, 9, 40, 0
1, 163200, Note_on_c, 9, 36, 107
1, 163559, Note_on_c, 9, 36, 0
1, 163560, Note_on_c, 9, 44, 90
1, 163563, Note_on_c, 9, 44, 0
1, 163680, Note_on_c, 9, 37, 107
1, 163680, Note_on_c, 9, 38, 107
1, 163680, Note_on_c, 9, 40, 107
1, 163680, Note_on_c, 9, 42, 107
1, 163698, Note_on_c, 9, 37, 0
1, 163698, Note_on_c, 9, 42, 0
1, 164159, Note_on_c, 9, 38, 0
1, 164159, Note_on_c, 9, 40, 0
1, 164160, Note_on_c, 9, 36, 107
1, 164399, Note_on_c, 9, 36, 0
1, 164400, Note_on_c, 9, 36, 107
1, 164520, Note_on_c, 9, 46, 90
1, 164523, Note_on_c, 9, 46, 0
1, 164639, Note_on_c, 9, 36, 0
1, 164640, Note_on_c, 9, 37, 107
1, 164640, Note_on_c, 9, 38, 107
1, 164640, Note_on_c, 9, 40, 107
1, 164640, Note_on_c, 9, 42, 107
1, 164658, Note_on_c, 9, 37, 0
1, 164658, Note_on_c, 9, 42, 0
1, 165119, Note_on_c, 9, 38, 0
1, 165119, Note_on_c, 9, 40, 0
1, 165120, Note_on_c, 9, 36, 107
1, 165479, Note_on_c, 9, 36, 0
1, 165480, Note_on_c, 9, 44, 90
1, 165483, Note_on_c, 9, 44, 0
1, 165600, Note_on_c, 9, 37, 107
1, 165600, Note_on_c, 9, 38, 107
1, 165600, Note_on_c, 9, 40, 107
1, 165600, Note_on_c, 9, 42, 107
1, 165618, Note_on_c, 9, 37, 0
1, 165618, Note_on_c, 9, 42, 0
1, 166079, Note_on_c, 9, 38, 0
1, 166079, Note_on_c, 9, 40, 0
1, 166080, Note_on_c, 9, 36, 107
1, 166319, Note_on_c, 9, 36, 0
1, 166320, Note_on_c, 9, 36, 107
1, 166440, Note_on_c, 9, 46, 90
1, 166443, Note_on_c, 9, 46, 0
1, 166559, Note_on_c, 9, 36, 0
1, 166560, Note_on_c, 9, 37, 107
1, 166560, Note_on_c, 9, 38, 107
1, 166560, Note_on_c, 9, 40, 107
1, 166560, Note_on_c, 9, 42, 107
1, 166578, Note_on_c, 9, 37, 0
1, 166578, Note_on_c, 9, 42, 0
1, 167039, Note_on_c, 9, 38, 0
1, 167039, Note_on_c, 9, 40, 0
1, 167040, Note_on_c, 9, 36, 107
1, 167399, Note_on_c, 9, 36, 0
1, 167400, Note_on_c, 9, 44, 90
1, 167403, Note_on_c, 9, 44, 0
1, 167520, Note_on_c, 9, 37, 107
1, 167520, Note_on_c, 9, 38, 107
1, 167520, Note_on_c, 9, 40, 107
1, 167520, Note_on_c, 9, 42, 107
1, 167538, Note_on_c, 9, 37, 0
1, 167538, Note_on_c, 9, 42, 0
1, 167999, Note_on_c, 9, 38, 0
1, 167999, Note_on_c, 9, 40, 0
1, 168000, Note_on_c, 9, 36, 107
1, 168239, Note_on_c, 9, 36, 0
1, 168240, Note_on_c, 9, 36, 107
1, 168360, Note_on_c, 9, 46, 90
1, 168363, Note_on_c, 9, 46, 0
1, 168479, Note_on_c, 9, 36, 0
1, 168480, Note_on_c, 9, 37, 107
1, 168480, Note_on_c, 9, 38, 107
1, 168480, Note_on_c, 9, 40, 107
1, 168480, Note_on_c, 9, 42, 107
1, 168498, Note_on_c, 9, 37, 0
1, 168498, Note_on_c, 9, 42, 0
1, 168959, Note_on_c, 9, 38, 0
1, 168959, Note_on_c, 9, 40, 0
1, 168960, Note_on_c, 9, 36, 107
1, 169319, Note_on_c, 9, 36, 0
1, 169320, Note_on_c, 9, 44, 90
1, 169323, Note_on_c, 9, 44, 0
1, 169440, Note_on_c, 9, 37, 107
1, 169440, Note_on_c, 9, 38, 107
1, 169440, Note_on_c, 9, 40, 107
1, 169440, Note_on_c, 9, 42, 107
1, 169458, Note_on_c, 9, 37, 0
1, 169458, Note_on_c, 9, 42, 0
1, 169919, Note_on_c, 9, 38, 0
1, 169919, Note_on_c, 9, 40, 0
1, 169920, Note_on_c, 9, 36, 107
1, 170159, Note_on_c, 9, 36, 0
1, 170160, Note_on_c, 9, 36, 107
1, 170280, Note_on_c, 9, 46, 90
1, 170283, Note_on_c, 9, 46, 0
1, 170399, Note_on_c, 9, 36, 0
1, 170400, Note_on_c, 9, 37, 107
1, 170400, Note_on_c, 9, 38, 107
1, 170400, Note_on_c, 9, 40, 107
1, 170400, Note_on_c, 9, 42, 107
1, 170418, Note_on_c, 9, 37, 0
1, 170418, Note_on_c, 9, 42, 0
1, 170879, Note_on_c, 9, 38, 0
1, 170879, Note_on_c, 9, 40, 0
1, 170880, Note_on_c, 9, 36, 107
1, 171239, Note_on_c, 9, 36, 0
1, 171240, Note_on_c, 9, 44, 90
1, 171243, Note_on_c, 9, 44, 0
1, 171360, Note_on_c, 9, 37, 107
1, 171360, Note_on_c, 9, 38, 107
1, 171360, Note_on_c, 9, 40, 107
1, 171360, Note_on_c, 9, 42, 107
1, 171378, Note_on_c, 9, 37, 0
1, 171378, Note_on_c, 9, 42, 0
1, 171839, Note_on_c, 9, 38, 0
1, 171839, Note_on_c, 9, 40, 0
1, 171840, Note_on_c, 9, 36, 107
1, 172079, Note_on_c, 9, 36, 0
1, 172080, Note_on_c, 9, 36, 107
1, 172200, Note_on_c, 9, 46, 90
1, 172203, Note_on_c, 9, 46, 0
1, 172319, Note_on_c, 9, 36, 0
1, 172320, Note_on_c, 9, 37, 107
1, 172320, Note_on_c, 9, 38, 107
1, 172320, Note_on_c, 9, 40, 107
1, 172320, Note_on_c, 9, 42, 107
1, 172338, Note_on_c, 9, 37, 0
1, 172338, Note_on_c, 9, 42, 0
1, 172799, Note_on_c, 9, 38, 0
1, 172799, Note_on_c, 9, 40, 0
1, 172800, Note_on_c, 9, 36, 107
1, 173159, Note_on_c, 9, 36, 0
1, 173160, Note_on_c, 9, 44, 90
1, 173163, Note_on_c, 9, 44, 0
1, 173280, Note_on_c, 9, 37, 107
1, 173280, Note_on_c, 9, 38, 107
1, 173280, Note_on_c, 9, 40, 107
1, 173280, Note_on_c, 9, 42, 107
1, 173298, Note_on_c, 9, 37, 0
1, 173298, Note_on_c, 9, 42, 0
1, 173759, Note_on_c, 9, 38, 0
1, 173759, Note_on_c, 9, 40, 0
1, 173760, Note_on_c, 9, 36, 107
1, 173999, Note_on_c, 9, 36, 0
1, 174000, Note_on_c, 9, 36, 107
1, 174120, Note_on_c, 9, 46, 90
1, 174123, Note_on_c, 9, 46, 0
1, 174239, Note_on_c, 9, 36, 0
1, 174240, Note_on_c, 9, 37, 107
1, 174240, Note_on_c, 9, 38, 107
1, 174240, Note_on_c, 9, 40, 107
1, 174240, Note_on_c, 9, 42, 107
1, 174258, Note_on_c, 9, 37, 0
1, 174258, Note_on_c, 9, 42, 0
1, 174719, Note_on_c, 9, 38, 0
1, 174719, Note_on_c, 9, 40, 0
1, 174720, Note_on_c, 9, 36, 107
1, 175079, Note_on_c, 9, 36, 0
1, 175080, Note_on_c, 9, 44, 90
1, 175083, Note_on_c, 9, 44, 0
1, 175200, Note_on_c, 9, 37, 107
1, 175200, Note_on_c, 9, 38, 107
1, 175200, Note_on_c, 9, 40, 107
1, 175200, Note_on_c, 9, 42, 107
1, 175218, Note_on_c, 9, 37, 0
1, 175218, Note_on_c, 9, 42, 0
1, 175679, Note_on_c, 9, 38, 0
1, 175679, Note_on_c, 9, 40, 0
1, 175680, Note_on_c, 9, 36, 107
1, 175919, Note_on_c, 9, 36, 0
1, 175920, Note_on_c, 9, 36, 107
1, 176040, Note_on_c, 9, 46, 90
1, 176043, Note_on_c, 9, 46, 0
1, 176159, Note_on_c, 9, 36, 0
1, 176160, Note_on_c, 9, 37, 107
1, 176160, Note_on_c, 9, 38, 107
1, 176160, Note_on_c, 9, 40, 107
1, 176160, Note_on_c, 9, 42, 107
1, 176178, Note_on_c, 9, 37, 0
1, 176178, Note_on_c, 9, 42, 0
1, 176639, Note_on_c, 9, 38, 0
1, 176639, Note_on_c, 9, 40, 0
1, 176640, Note_on_c, 9, 36, 107
1, 176999, Note_on_c, 9, 36, 0
1, 177000, Note_on_c, 9, 44, 90
1, 177003, Note_on_c, 9, 44, 0
1, 177120, Note_on_c, 9, 37, 107
1, 177120, Note_on_c, 9, 38, 107
1, 177120, Note_on_c, 9, 40, 107
1, 177120, Note_on_c, 9, 42, 107
1, 177138, Note_on_c, 9, 37, 0
1, 177138, Note_on_c, 9, 42, 0
1, 177599, Note_on_c, 9, 38, 0
1, 177599, Note_on_c, 9, 40, 0
1, 177600, Note_on_c, 9, 36, 107
1, 177839, Note_on_c, 9, 36, 0
1, 177840, Note_on_c, 9, 36, 107
1, 177960, Note_on_c, 9, 46, 90
1, 177963, Note_on_c, 9, 46, 0
1, 178079, Note_on_c, 9, 36, 0
1, 178080, Note_on_c, 9, 37, 107
1, 178080, Note_on_c, 9, 38, 107
1, 178080, Note_on_c, 9, 40, 107
1, 178080, Note_on_c, 9, 42, 107
1, 178098, Note_on_c, 9, 37, 0
1, 178098, Note_on_c, 9, 42, 0
1, 178559, Note_on_c, 9, 38, 0
1, 178559, Note_on_c, 9, 40, 0
1, 178560, Note_on_c, 9, 36, 107
1, 178919, Note_on_c, 9, 36, 0
1, 178920, Note_on_c, 9, 44, 90
1, 178923, Note_on_c, 9, 44, 0
1, 179040, Note_on_c, 9, 37, 107
1, 179040, Note_on_c, 9, 38, 107
1, 179040, Note_on_c, 9, 40, 107
1, 179040, Note_on_c, 9, 42, 107
1, 179058, Note_on_c, 9, 37, 0
1, 179058, Note_on_c, 9, 42, 0
1, 179519, Note_on_c, 9, 38, 0
1, 179519, Note_on_c, 9, 40, 0
1, 179520, Note_on_c, 9, 36, 107
1, 179759, Note_on_c, 9, 36, 0
1, 179760, Note_on_c, 9, 36, 107
1, 179880, Note_on_c, 9, 46, 90
1, 179883, Note_on_c, 9, 46, 0
1, 179999, Note_on_c, 9, 36, 0
1, 180000, Note_on_c, 9, 37, 107
1, 180000, Note_on_c, 9, 38, 107
1, 180000, Note_on_c, 9, 40, 107
1, 180000, Note_on_c, 9, 42, 107
1, 180018, Note_on_c, 9, 37, 0
1, 180018, Note_on_c, 9, 42, 0
1, 180479, Note_on_c, 9, 38, 0
1, 180479, Note_on_c, 9, 40, 0
1, 180480, Note_on_c, 9, 36, 107
1, 180839, Note_on_c, 9, 36, 0
1, 180840, Note_on_c, 9, 44, 90
1, 180843, Note_on_c, 9, 44, 0
1, 180960, Note_on_c, 9, 37, 107
1, 180960, Note_on_c, 9, 38, 107
1, 180960, Note_on_c, 9, 40, 107
1, 180960, Note_on_c, 9, 42, 107
1, 180978, Note_on_c, 9, 37, 0
1, 180978, Note_on_c, 9, 42, 0
1, 181439, Note_on_c, 9, 38, 0
1, 181439, Note_on_c, 9, 40, 0
1, 181440, Note_on_c, 9, 36, 107
1, 181679, Note_on_c, 9, 36, 0
1, 181680, Note_on_c, 9, 36, 107
1, 181800, Note_on_c, 9, 46, 90
1, 181803, Note_on_c, 9, 46, 0
1, 181919, Note_on_c, 9, 36, 0
1, 181920, Note_on_c, 9, 37, 107
1, 181920, Note_on_c, 9, 38, 107
1, 181920, Note_on_c, 9, 40, 107
1, 181920, Note_on_c, 9, 42, 107
1, 181938, Note_on_c, 9, 37, 0
1, 181938, Note_on_c, 9, 42, 0
1, 182399, Note_on_c, 9, 38, 0
1, 182399, Note_on_c, 9, 40, 0
1, 182400, Note_on_c, 9, 36, 107
1, 182759, Note_on_c, 9, 36, 0
1, 182760, Note_on_c, 9, 44, 90
1, 182763, Note_on_c, 9, 44, 0
1, 182880, Note_on_c, 9, 37, 107
1, 182880, Note_on_c, 9, 38, 107
1, 182880, Note_on_c, 9, 40, 107
1, 182880, Note_on_c, 9, 42, 107
1, 182898, Note_on_c, 9, 37, 0
1, 182898, Note_on_c, 9, 42, 0
1, 183359, Note_on_c, 9, 38, 0
1, 183359, Note_on_c, 9, 40, 0
1, 183360, Note_on_c, 9, 36, 107
1, 183599, Note_on_c, 9, 36, 0
1, 183600, Note_on_c, 9, 36, 107
1, 183720, Note_on_c, 9, 46, 90
1, 183723, Note_on_c, 9, 46, 0
1, 183839, Note_on_c, 9, 36, 0
1, 183840, Note_on_c, 9, 37, 107
1, 183840, Note_on_c, 9, 38, 107
1, 183840, Note_on_c, 9, 40, 107
1, 183840, Note_on_c, 9, 42, 107
1, 183858, Note_on_c, 9, 37, 0
1, 183858, Note_on_c, 9, 42, 0
1, 184319, Note_on_c, 9, 38, 0
1, 184319, Note_on_c, 9, 40, 0
1, 184320, Note_on_c, 9, 36, 107
1, 184679, Note_on_c, 9, 36, 0
1, 184680, Note_on_c, 9, 44, 90
1, 184683, Note_on_c, 9, 44, 0
1, 184800, Note_on_c, 9, 37, 107
1, 184800, Note_on_c, 9, 38, 107
1, 184800, Note_on_c, 9, 40, 107
1, 184800, Note_on_c, 9, 42, 107
1, 184818, Note_on_c, 9, 37, 0
1, 184818, Note_on_c, 9, 42, 0
1, 185279, Note_on_c, 9, 38, 0
1, 185279, Note_on_c, 9, 40, 0
1, 185280, Note_on_c, 9, 36, 107
1, 185519, Note_on_c, 9, 36, 0
1, 185520, Note_on_c, 9, 36, 107
1, 185640, Note_on_c, 9, 46, 90
1, 185643, Note_on_c, 9, 46, 0
1, 185759, Note_on_c, 9, 36, 0
1, 185760, Note_on_c, 9, 37, 107
1, 185760, Note_on_c, 9, 38, 107
1, 185760, Note_on_c, 9, 40, 107
1, 185760, Note_on_c, 9, 42, 107
1, 185778, Note_on_c, 9, 37, 0
1, 185778, Note_on_c, 9, 42, 0
1, 186239, Note_on_c, 9, 38, 0
1, 186239, Note_on_c, 9, 40, 0
1, 186240, Note_on_c, 9, 36, 107
1, 186719, Note_on_c, 9, 36, 0
1, 186720, Note_on_c, 9, 38, 107
1, 186720, Note_on_c, 9, 36, 107
1, 186959, Note_on_c, 9, 38, 0
1, 186960, Note_on_c, 9, 48, 107
1, 187199, Note_on_c, 9, 36, 0
1, 187199, Note_on_c, 9, 48, 0
1, 187200, Note_on_c, 9, 48, 107
1, 187200, Note_on_c, 9, 36, 107
1, 187319, Note_on_c, 9, 48, 0
1, 187320, Note_on_c, 9, 41, 107
1, 187320, Note_on_c, 9, 37, 107
1, 187323, Note_on_c, 9, 37, 0
1, 187439, Note_on_c, 9, 36, 0
1, 187439, Note_on_c, 9, 41, 0
1, 187440, Note_on_c, 9, 41, 107
1, 187440, Note_on_c, 9, 36, 107
1, 187559, Note_on_c, 9, 41, 0
1, 187560, Note_on_c, 9, 37, 107
1, 187560, Note_on_c, 9, 45, 107
1, 187563, Note_on_c, 9, 37, 0
1, 187679, Note_on_c, 9, 36, 0
1, 187679, Note_on_c, 9, 45, 0
1, 187680, Note_on_c, 9, 49, 107
1, 187698, Note_on_c, 9, 49, 0
1, 188160, Note_on_c, 9, 36, 107
1, 188519, Note_on_c, 9, 36, 0
1, 188520, Note_on_c, 9, 44, 90
1, 188523, Note_on_c, 9, 44, 0
1, 188640, Note_on_c, 9, 37, 107
1, 188640, Note_on_c, 9, 38, 107
1, 188640, Note_on_c, 9, 40, 107
1, 188640, Note_on_c, 9, 42, 107
1, 188658, Note_on_c, 9, 37, 0
1, 188658, Note_on_c, 9, 42, 0
1, 189119, Note_on_c, 9, 38, 0
1, 189119, Note_on_c, 9, 40, 0
1, 189120, Note_on_c, 9, 36, 107
1, 189359, Note_on_c, 9, 36, 0
1, 189360, Note_on_c, 9, 36, 107
1, 189480, Note_on_c, 9, 46, 90
1, 189483, Note_on_c, 9, 46, 0
1, 189599, Note_on_c, 9, 36, 0
1, 189600, Note_on_c, 9, 37, 107
1, 189600, Note_on_c, 9, 38, 107
1, 189600, Note_on_c, 9, 40, 107
1, 189600, Note_on_c, 9, 42, 107
1, 189618, Note_on_c, 9, 37, 0
1, 189618, Note_on_c, 9, 42, 0
1, 190079, Note_on_c, 9, 38, 0
1, 190079, Note_on_c, 9, 40, 0
1, 190080, Note_on_c, 9, 36, 107
1, 190439, Note_on_c, 9, 36, 0
1, 190440, Note_on_c, 9, 44, 90
1, 190443, Note_on_c, 9, 44, 0
1, 190560, Note_on_c, 9, 37, 107
1, 190560, Note_on_c, 9, 38, 107
1, 190560, Note_on_c, 9, 40, 107
1, 190560, Note_on_c, 9, 42, 107
1, 190578, Note_on_c, 9, 37, 0
1, 190578, Note_on_c, 9, 42, 0
1, 191039, Note_on_c, 9, 38, 0
1, 191039, Note_on_c, 9, 40, 0
1, 191040, Note_on_c, 9, 36, 107
1, 191279, Note_on_c, 9, 36, 0
1, 191280, Note_on_c, 9, 36, 107
1, 191400, Note_on_c, 9, 46, 90
1, 191403, Note_on_c, 9, 46, 0
1, 191519, Note_on_c, 9, 36, 0
1, 191520, Note_on_c, 9, 37, 107
1, 191520, Note_on_c, 9, 38, 107
1, 191520, Note_on_c, 9, 40, 107
1, 191520, Note_on_c, 9, 42, 107
1, 191538, Note_on_c, 9, 37, 0
1, 191538, Note_on_c, 9, 42, 0
1, 191999, Note_on_c, 9, 38, 0
1, 191999, Note_on_c, 9, 40, 0
1, 192000, Note_on_c, 9, 36, 107
1, 192359, Note_on_c, 9, 36, 0
1, 192360, Note_on_c, 9, 44, 90
1, 192363, Note_on_c, 9, 44, 0
1, 192480, Note_on_c, 9, 37, 107
1, 192480, Note_on_c, 9, 38, 107
1, 192480, Note_on_c, 9, 40, 107
1, 192480, Note_on_c, 9, 42, 107
1, 192498, Note_on_c, 9, 37, 0
1, 192498, Note_on_c, 9, 42, 0
1, 192959, Note_on_c, 9, 38, 0
1, 192959, Note_on_c, 9, 40, 0
1, 192960, Note_on_c, 9, 36, 107
1, 193199, Note_on_c, 9, 36, 0
1, 193200, Note_on_c, 9, 36, 107
1, 193320, Note_on_c, 9, 46, 90
1, 193323, Note_on_c, 9, 46, 0
1, 193439, Note_on_c, 9, 36, 0
1, 193440, Note_on_c, 9, 37, 107
1, 193440, Note_on_c, 9, 38, 107
1, 193440, Note_on_c, 9, 40, 107
1, 193440, Note_on_c, 9, 42, 107
1, 193458, Note_on_c, 9, 37, 0
1, 193458, Note_on_c, 9, 42, 0
1, 193919, Note_on_c, 9, 38, 0
1, 193919, Note_on_c, 9, 40, 0
1, 193920, Note_on_c, 9, 36, 107
1, 194279, Note_on_c, 9, 36, 0
1, 194280, Note_on_c, 9, 44, 90
1, 194283, Note_on_c, 9, 44, 0
1, 194400, Note_on_c, 9, 37, 107
1, 194400, Note_on_c, 9, 38, 107
1, 194400, Note_on_c, 9, 40, 107
1, 194400, Note_on_c, 9, 42, 107
1, 194418, Note_on_c, 9, 37, 0
1, 194418, Note_on_c, 9, 42, 0
1, 194879, Note_on_c, 9, 38, 0
1, 194879, Note_on_c, 9, 40, 0
1, 194880, Note_on_c, 9, 36, 107
1, 195119, Note_on_c, 9, 36, 0
1, 195120, Note_on_c, 9, 36, 107
1, 195240, Note_on_c, 9, 46, 90
1, 195243, Note_on_c, 9, 46, 0
1, 195359, Note_on_c, 9, 36, 0
1, 195360, Note_on_c, 9, 37, 107
1, 195360, Note_on_c, 9, 38, 107
1, 195360, Note_on_c, 9, 40, 107
1, 195360, Note_on_c, 9, 42, 107
1, 195378, Note_on_c, 9, 37, 0
1, 195378, Note_on_c, 9, 42, 0
1, 195839, Note_on_c, 9, 38, 0
1, 195839, Note_on_c, 9, 40, 0
1, 195840, Note_on_c, 9, 36, 107
1, 196199, Note_on_c, 9, 36, 0
1, 196200, Note_on_c, 9, 44, 90
1, 196203, Note_on_c, 9, 44, 0
1, 196320, Note_on_c, 9, 37, 107
1, 196320, Note_on_c, 9, 38, 107
1, 196320, Note_on_c, 9, 40, 107
1, 196320, Note_on_c, 9, 42, 107
1, 196338, Note_on_c, 9, 37, 0
1, 196338, Note_on_c, 9, 42, 0
1, 196799, Note_on_c, 9, 38, 0
1, 196799, Note_on_c, 9, 40, 0
1, 196800, Note_on_c, 9, 36, 107
1, 197039, Note_on_c, 9, 36, 0
1, 197040, Note_on_c, 9, 36, 107
1, 197160, Note_on_c, 9, 46, 90
1, 197163, Note_on_c, 9, 46, 0
1, 197279, Note_on_c, 9, 36, 0
1, 197280, Note_on_c, 9, 37, 107
1, 197280, Note_on_c, 9, 38, 107
1, 197280, Note_on_c, 9, 40, 107
1, 197280, Note_on_c, 9, 42, 107
1, 197298, Note_on_c, 9, 37, 0
1, 197298, Note_on_c, 9, 42, 0
1, 197759, Note_on_c, 9, 38, 0
1, 197759, Note_on_c, 9, 40, 0
1, 197760, Note_on_c, 9, 36, 107
1, 198119, Note_on_c, 9, 36, 0
1, 198120, Note_on_c, 9, 44, 90
1, 198123, Note_on_c, 9, 44, 0
1, 198240, Note_on_c, 9, 37, 107
1, 198240, Note_on_c, 9, 38, 107
1, 198240, Note_on_c, 9, 40, 107
1, 198240, Note_on_c, 9, 42, 107
1, 198258, Note_on_c, 9, 37, 0
1, 198258, Note_on_c, 9, 42, 0
1, 198719, Note_on_c, 9, 38, 0
1, 198719, Note_on_c, 9, 40, 0
1, 198720, Note_on_c, 9, 36, 107
1, 198959, Note_on_c, 9, 36, 0
1, 198960, Note_on_c, 9, 36, 107
1, 199080, Note_on_c, 9, 46, 90
1, 199083, Note_on_c, 9, 46, 0
1, 199199, Note_on_c, 9, 36, 0
1, 199200, Note_on_c, 9, 37, 107
1, 199200, Note_on_c, 9, 38, 107
1, 199200, Note_on_c, 9, 40, 107
1, 199200, Note_on_c, 9, 42, 107
1, 199218, Note_on_c, 9, 37, 0
1, 199218, Note_on_c, 9, 42, 0
1, 199679, Note_on_c, 9, 38, 0
1, 199679, Note_on_c, 9, 40, 0
1, 199680, Note_on_c, 9, 36, 107
1, 200039, Note_on_c, 9, 36, 0
1, 200040, Note_on_c, 9, 44, 90
1, 200043, Note_on_c, 9, 44, 0
1, 200160, Note_on_c, 9, 37, 107
1, 200160, Note_on_c, 9, 38, 107
1, 200160, Note_on_c, 9, 40, 107
1, 200160, Note_on_c, 9, 42, 107
1, 200178, Note_on_c, 9, 37, 0
1, 200178, Note_on_c, 9, 42, 0
1, 200639, Note_on_c, 9, 38, 0
1, 200639, Note_on_c, 9, 40, 0
1, 200640, Note_on_c, 9, 36, 107
1, 200879, Note_on_c, 9, 36, 0
1, 200880, Note_on_c, 9, 36, 107
1, 201000, Note_on_c, 9, 46, 90
1, 201003, Note_on_c, 9, 46, 0
1, 201119, Note_on_c, 9, 36, 0
1, 201120, Note_on_c, 9, 37, 107
1, 201120, Note_on_c, 9, 38, 107
1, 201120, Note_on_c, 9, 40, 107
1, 201120, Note_on_c, 9, 42, 107
1, 201138, Note_on_c, 9, 37, 0
1, 201138, Note_on_c, 9, 42, 0
1, 201599, Note_on_c, 9, 38, 0
1, 201599, Note_on_c, 9, 40, 0
1, 201600, Note_on_c, 9, 36, 107
1, 201959, Note_on_c, 9, 36, 0
1, 201960, Note_on_c, 9, 44, 90
1, 201963, Note_on_c, 9, 44, 0
1, 202080, Note_on_c, 9, 37, 107
1, 202080, Note_on_c, 9, 38, 107
1, 202080, Note_on_c, 9, 40, 107
1, 202080, Note_on_c, 9, 42, 107
1, 202098, Note_on_c, 9, 37, 0
1, 202098, Note_on_c, 9, 42, 0
1, 202559, Note_on_c, 9, 38, 0
1, 202559, Note_on_c, 9, 40, 0
1, 202560, Note_on_c, 9, 36, 107
1, 202799, Note_on_c, 9, 36, 0
1, 202800, Note_on_c, 9, 36, 107
1, 202920, Note_on_c, 9, 46, 90
1, 202923, Note_on_c, 9, 46, 0
1, 203039, Note_on_c, 9, 36, 0
1, 203040, Note_on_c, 9, 37, 107
1, 203040, Note_on_c, 9, 38, 107
1, 203040, Note_on_c, 9, 40, 107
1, 203040, Note_on_c, 9, 42, 107
1, 203058, Note_on_c, 9, 37, 0
1, 203058, Note_on_c, 9, 42, 0
1, 203519, Note_on_c, 9, 38, 0
1, 203519, Note_on_c, 9, 40, 0
1, 203520, Note_on_c, 9, 36, 107
1, 203879, Note_on_c, 9, 36, 0
1, 203880, Note_on_c, 9, 44, 90
1, 203883, Note_on_c, 9, 44, 0
1, 204000, Note_on_c, 9, 37, 107
1, 204000, Note_on_c, 9, 38, 107
1, 204000, Note_on_c, 9, 40, 107
1, 204000, Note_on_c, 9, 42, 107
1, 204018, Note_on_c, 9, 37, 0
1, 204018, Note_on_c, 9, 42, 0
1, 204479, Note_on_c, 9, 38, 0
1, 204479, Note_on_c, 9, 40, 0
1, 204480, Note_on_c, 9, 36, 107
1, 204719, Note_on_c, 9, 36, 0
1, 204720, Note_on_c, 9, 36, 107
1, 204840, Note_on_c, 9, 46, 90
1, 204843, Note_on_c, 9, 46, 0
1, 204959, Note_on_c, 9, 36, 0
1, 204960, Note_on_c, 9, 37, 107
1, 204960, Note_on_c, 9, 38, 107
1, 204960, Note_on_c, 9, 40, 107
1, 204960, Note_on_c, 9, 42, 107
1, 204978, Note_on_c, 9, 37, 0
1, 204978, Note_on_c, 9, 42, 0
1, 205439, Note_on_c, 9, 38, 0
1, 205439, Note_on_c, 9, 40, 0
1, 205440, Note_on_c, 9, 36, 107
1, 205799, Note_on_c, 9, 36, 0
1, 205800, Note_on_c, 9, 44, 90
1, 205803, Note_on_c, 9, 44, 0
1, 205920, Note_on_c, 9, 37, 107
1, 205920, Note_on_c, 9, 38, 107
1, 205920, Note_on_c, 9, 40, 107
1, 205920, Note_on_c, 9, 42, 107
1, 205938, Note_on_c, 9, 37, 0
1, 205938, Note_on_c, 9, 42, 0
1, 206399, Note_on_c, 9, 38, 0
1, 206399, Note_on_c, 9, 40, 0
1, 206400, Note_on_c, 9, 36, 107
1, 206639, Note_on_c, 9, 36, 0
1, 206640, Note_on_c, 9, 36, 107
1, 206760, Note_on_c, 9, 46, 90
1, 206763, Note_on_c, 9, 46, 0
1, 206879, Note_on_c, 9, 36, 0
1, 206880, Note_on_c, 9, 37, 107
1, 206880, Note_on_c, 9, 38, 107
1, 206880, Note_on_c, 9, 40, 107
1, 206880, Note_on_c, 9, 42, 107
1, 206898, Note_on_c, 9, 37, 0
1, 206898, Note_on_c, 9, 42, 0
1, 207359, Note_on_c, 9, 38, 0
1, 207359, Note_on_c, 9, 40, 0
1, 207360, Note_on_c, 9, 36, 107
1, 207719, Note_on_c, 9, 36, 0
1, 207720, Note_on_c, 9, 44, 90
1, 207723, Note_on_c, 9, 44, 0
1, 207840, Note_on_c, 9, 37, 107
1, 207840, Note_on_c, 9, 38, 107
1, 207840, Note_on_c, 9, 40, 107
1, 207840, Note_on_c, 9, 42, 107
1, 207858, Note_on_c, 9, 37, 0
1, 207858, Note_on_c, 9, 42, 0
1, 208319, Note_on_c, 9, 38, 0
1, 208319, Note_on_c, 9, 40, 0
1, 208320, Note_on_c, 9, 36, 107
1, 208559, Note_on_c, 9, 36, 0
1, 208560, Note_on_c, 9, 36, 107
1, 208680, Note_on_c, 9, 46, 90
1, 208683, Note_on_c, 9, 46, 0
1, 208799, Note_on_c, 9, 36, 0
1, 208800, Note_on_c, 9, 37, 107
1, 208800, Note_on_c, 9, 38, 107
1, 208800, Note_on_c, 9, 40, 107
1, 208800, Note_on_c, 9, 42, 107
1, 208818, Note_on_c, 9, 37, 0
1, 208818, Note_on_c, 9, 42, 0
1, 209279, Note_on_c, 9, 38, 0
1, 209279, Note_on_c, 9, 40, 0
1, 209280, Note_on_c, 9, 36, 107
1, 209639, Note_on_c, 9, 36, 0
1, 209640, Note_on_c, 9, 44, 90
1, 209643, Note_on_c, 9, 44, 0
1, 209760, Note_on_c, 9, 37, 107
1, 209760, Note_on_c, 9, 38, 107
1, 209760, Note_on_c, 9, 40, 107
1, 209760, Note_on_c, 9, 42, 107
1, 209778, Note_on_c, 9, 37, 0
1, 209778, Note_on_c, 9, 42, 0
1, 210239, Note_on_c, 9, 38, 0
1, 210239, Note_on_c, 9, 40, 0
1, 210240, Note_on_c, 9, 36, 107
1, 210479, Note_on_c, 9, 36, 0
1, 210480, Note_on_c, 9, 36, 107
1, 210600, Note_on_c, 9, 46, 90
1, 210603, Note_on_c, 9, 46, 0
1, 210719, Note_on_c, 9, 36, 0
1, 210720, Note_on_c, 9, 37, 107
1, 210720, Note_on_c, 9, 38, 107
1, 210720, Note_on_c, 9, 40, 107
1, 210720, Note_on_c, 9, 42, 107
1, 210738, Note_on_c, 9, 37, 0
1, 210738, Note_on_c, 9, 42, 0
1, 211199, Note_on_c, 9, 38, 0
1, 211199, Note_on_c, 9, 40, 0
1, 211200, Note_on_c, 9, 36, 107
1, 211559, Note_on_c, 9, 36, 0
1, 211560, Note_on_c, 9, 44, 90
1, 211563, Note_on_c, 9, 44, 0
1, 211680, Note_on_c, 9, 37, 107
1, 211680, Note_on_c, 9, 38, 107
1, 211680, Note_on_c, 9, 40, 107
1, 211680, Note_on_c, 9, 42, 107
1, 211698, Note_on_c, 9, 37, 0
1, 211698, Note_on_c, 9, 42, 0
1, 212159, Note_on_c, 9, 38, 0
1, 212159, Note_on_c, 9, 40, 0
1, 212160, Note_on_c, 9, 36, 107
1, 212399, Note_on_c, 9, 36, 0
1, 212400, Note_on_c, 9, 36, 107
1, 212520, Note_on_c, 9, 46, 90
1, 212523, Note_on_c, 9, 46, 0
1, 212639, Note_on_c, 9, 36, 0
1, 212640, Note_on_c, 9, 37, 107
1, 212640, Note_on_c, 9, 38, 107
1, 212640, Note_on_c, 9, 40, 107
1, 212640, Note_on_c, 9, 42, 107
1, 212658, Note_on_c, 9, 37, 0
1, 212658, Note_on_c, 9, 42, 0
1, 213119, Note_on_c, 9, 38, 0
1, 213119, Note_on_c, 9, 40, 0
1, 213120, Note_on_c, 9, 36, 107
1, 213479, Note_on_c, 9, 36, 0
1, 213480, Note_on_c, 9, 44, 90
1, 213483, Note_on_c, 9, 44, 0
1, 213600, Note_on_c, 9, 37, 107
1, 213600, Note_on_c, 9, 38, 107
1, 213600, Note_on_c, 9, 40, 107
1, 213600, Note_on_c, 9, 42, 107
1, 213618, Note_on_c, 9, 37, 0
1, 213618, Note_on_c, 9, 42, 0
1, 214079, Note_on_c, 9, 38, 0
1, 214079, Note_on_c, 9, 40, 0
1, 214080, Note_on_c, 9, 36, 107
1, 214319, Note_on_c, 9, 36, 0
1, 214320, Note_on_c, 9, 36, 107
1, 214440, Note_on_c, 9, 46, 90
1, 214443, Note_on_c, 9, 46, 0
1, 214559, Note_on_c, 9, 36, 0
1, 214560, Note_on_c, 9, 37, 107
1, 214560, Note_on_c, 9, 38, 107
1, 214560, Note_on_c, 9, 40, 107
1, 214560, Note_on_c, 9, 42, 107
1, 214578, Note_on_c, 9, 37, 0
1, 214578, Note_on_c, 9, 42, 0
1, 215039, Note_on_c, 9, 38, 0
1, 215039, Note_on_c, 9, 40, 0
1, 215040, Note_on_c, 9, 36, 107
1, 215399, Note_on_c, 9, 36, 0
1, 215400, Note_on_c, 9, 44, 90
1, 215403, Note_on_c, 9, 44, 0
1, 215520, Note_on_c, 9, 37, 107
1, 215520, Note_on_c, 9, 38, 107
1, 215520, Note_on_c, 9, 40, 107
1, 215520, Note_on_c, 9, 42, 107
1, 215538, Note_on_c, 9, 37, 0
1, 215538, Note_on_c, 9, 42, 0
1, 215999, Note_on_c, 9, 38, 0
1, 215999, Note_on_c, 9, 40, 0
1, 216000, Note_on_c, 9, 36, 107
1, 216239, Note_on_c, 9, 36, 0
1, 216240, Note_on_c, 9, 36, 107
1, 216360, Note_on_c, 9, 46, 90
1, 216363, Note_on_c, 9, 46, 0
1, 216479, Note_on_c, 9, 36, 0
1, 216480, Note_on_c, 9, 37, 107
1, 216480, Note_on_c, 9, 38, 107
1, 216480, Note_on_c, 9, 40, 107
1, 216480, Note_on_c, 9, 42, 107
1, 216498, Note_on_c, 9, 37, 0
1, 216498, Note_on_c, 9, 42, 0
1, 216959, Note_on_c, 9, 38, 0
1, 216959, Note_on_c, 9, 40, 0
1, 216960, Note_on_c, 9, 36, 107
1, 217319, Note_on_c, 9, 36, 0
1, 217320, Note_on_c, 9, 44, 90
1, 217323, Note_on_c, 9, 44, 0
1, 217440, Note_on_c, 9, 37, 107
1, 217440, Note_on_c, 9, 38, 107
1, 217440, Note_on_c, 9, 40, 107
1, 217440, Note_on_c, 9, 42, 107
1, 217458, Note_on_c, 9, 37, 0
1, 217458, Note_on_c, 9, 42, 0
1, 217919, Note_on_c, 9, 38, 0
1, 217919, Note_on_c, 9, 40, 0
1, 217920, Note_on_c, 9, 36, 107
1, 218159, Note_on_c, 9, 36, 0
1, 218160, Note_on_c, 9, 36, 107
1, 218280, Note_on_c, 9, 46, 90
1, 218283, Note_on_c, 9, 46, 0
1, 218399, Note_on_c, 9, 36, 0
1, 218400, Note_on_c, 9, 37, 107
1, 218400, Note_on_c, 9, 38, 107
1, 218400, Note_on_c, 9, 40, 107
1, 218400, Note_on_c, 9, 42, 107
1, 218418, Note_on_c, 9, 37, 0
1, 218418, Note_on_c, 9, 42, 0
1, 218879, Note_on_c, 9, 38, 0
1, 218879, Note_on_c, 9, 40, 0
1, 218880, End_track
0, 0, End_of_file
