0, 0, Header, 1, 1, 480
1, 0, Start_track
1, 0, Title_t, "Drumset"
1, 0, Time_signature, 4, 2, 24, 8
1, 0, Key_signature, 0, "major"
1, 0, Tempo, 555556
1, 0, Control_c, 9, 121, 0
1, 0, Program_c, 9, 0
1, 0, Control_c, 9, 7, 100
1, 0, Control_c, 9, 10, 64
1, 0, Control_c, 9, 91, 0
1, 0, Control_c, 9, 93, 0
1, 0, MIDI_port, 0
1, 9120, Note_on_c, 9, 52, 110
1, 9139, Note_on_c, 9, 52, 0
1, 10080, Note_on_c, 9, 52, 110
1, 10099, Note_on_c, 9, 52, 0
1, 11040, Note_on_c, 9, 52, 110
1, 11059, Note_on_c, 9, 52, 0
1, 12000, Note_on_c, 9, 52, 110
1, 12019, Note_on_c, 9, 52, 0
1, 12960, Note_on_c, 9, 52, 110
1, 12979, Note_on_c, 9, 52, 0
1, 13920, Note_on_c, 9, 52, 110
1, 13939, Note_on_c, 9, 52, 0
1, 14880, Note_on_c, 9, 52, 110
1, 14899, Note_on_c, 9, 52, 0
1, 15360, Note_on_c, 9, 35, 110
1, 15719, Note_on_c, 9, 35, 0
1, 15720, Note_on_c, 9, 35, 110
1, 15839, Note_on_c, 9, 35, 0
1, 15840, Note_on_c, 9, 52, 110
1, 15840, Note_on_c, 9, 35, 110
1, 15859, Note_on_c, 9, 52, 0
1, 16199, Note_on_c, 9, 35, 0
1, 16200, Note_on_c, 9, 35, 110
1, 16319, Note_on_c, 9, 35, 0
1, 16320, Note_on_c, 9, 35, 110
1, 16679, Note_on_c, 9, 35, 0
1, 16680, Note_on_c, 9, 35, 110
1, 16799, Note_on_c, 9, 35, 0
1, 16800, Note_on_c, 9, 38, 110
1, 16800, Note_on_c, 9, 55, 110
1, 16809, Note_on_c, 9, 55, 0
1, 17039, Note_on_c, 9, 38, 0
1, 17040, Note_on_c, 9, 38, 110
1, 17159, Note_on_c, 9, 38, 0
1, 17160, Note_on_c, 9, 38, 110
1, 17279, Note_on_c, 9, 38, 0
1, 17280, Note_on_c, 9, 42, 110
1, 17280, Note_on_c, 9, 57, 110
1, 17280, Note_on_c, 9, 36, 110
1, 17289, Note_on_c, 9, 42, 0
1, 17289, Note_on_c, 9, 57, 0
1, 17520, Note_on_c, 9, 42, 110
1, 17529, Note_on_c, 9, 42, 0
1, 17759, Note_on_c, 9, 36, 0
1, 17760, Note_on_c, 9, 38, 110
1, 17760, Note_on_c, 9, 42, 110
1, 17769, Note_on_c, 9, 42, 0
1, 17999, Note_on_c, 9, 38, 0
1, 18000, Note_on_c, 9, 42, 110
1, 18009, Note_on_c, 9, 42, 0
1, 18240, Note_on_c, 9, 42, 110
1, 18240, Note_on_c, 9, 36, 110
1, 18249, Note_on_c, 9, 42, 0
1, 18479, Note_on_c, 9, 36, 0
1, 18480, Note_on_c, 9, 42, 110
1, 18480, Note_on_c, 9, 36, 110
1, 18489, Note_on_c, 9, 42, 0
1, 18719, Note_on_c, 9, 36, 0
1, 18720, Note_on_c, 9, 38, 110
1, 18720, Note_on_c, 9, 42, 110
1, 18729, Note_on_c, 9, 42, 0
1, 18959, Note_on_c, 9, 38, 0
1, 18960, Note_on_c, 9, 42, 110
1, 18969, Note_on_c, 9, 42, 0
1, 19200, Note_on_c, 9, 42, 110
1, 19200, Note_on_c, 9, 36, 110
1, 19209, Note_on_c, 9, 42, 0
1, 19440, Note_on_c, 9, 42, 110
1, 19449, Note_on_c, 9, 42, 0
1, 19679, Note_on_c, 9, 36, 0
1, 19680, Note_on_c, 9, 38, 110
1, 19680, Note_on_c, 9, 42, 110
1, 19689, Note_on_c, 9, 42, 0
1, 19919, Note_on_c, 9, 38, 0
1, 19920, Note_on_c, 9, 42, 110
1, 19929, Note_on_c, 9, 42, 0
1, 20160, Note_on_c, 9, 42, 110
1, 20160, Note_on_c, 9, 36, 110
1, 20169, Note_on_c, 9, 42, 0
1, 20399, Note_on_c, 9, 36, 0
1, 20400, Note_on_c, 9, 42, 110
1, 20400, Note_on_c, 9, 36, 110
1, 20409, Note_on_c, 9, 42, 0
1, 20639, Note_on_c, 9, 36, 0
1, 20640, Note_on_c, 9, 38, 110
1, 20640, Note_on_c, 9, 42, 110
1, 20649, Note_on_c, 9, 42, 0
1, 20879, Note_on_c, 9, 38, 0
1, 20880, Note_on_c, 9, 42, 110
1, 20889, Note_on_c, 9, 42, 0
1, 21120, Note_on_c, 9, 42, 110
1, 21120, Note_on_c, 9, 36, 110
1, 21129, Note_on_c, 9, 42, 0
1, 21360, Note_on_c, 9, 42, 110
1, 21369, Note_on_c, 9, 42, 0
1, 21599, Note_on_c, 9, 36, 0
1, 21600, Note_on_c, 9, 38, 110
1, 21600, Note_on_c, 9, 42, 110
1, 21609, Note_on_c, 9, 42, 0
1, 21839, Note_on_c, 9, 38, 0
1, 21840, Note_on_c, 9, 42, 110
1, 21849, Note_on_c, 9, 42, 0
1, 22080, Note_on_c, 9, 42, 110
1, 22080, Note_on_c, 9, 36, 110
1, 22089, Note_on_c, 9, 42, 0
1, 22319, Note_on_c, 9, 36, 0
1, 22320, Note_on_c, 9, 42, 110
1, 22320, Note_on_c, 9, 36, 110
1, 22329, Note_on_c, 9, 42, 0
1, 22559, Note_on_c, 9, 36, 0
1, 22560, Note_on_c, 9, 38, 110
1, 22560, Note_on_c, 9, 42, 110
1, 22569, Note_on_c, 9, 42, 0
1, 22799, Note_on_c, 9, 38, 0
1, 22800, Note_on_c, 9, 42, 110
1, 22809, Note_on_c, 9, 42, 0
1, 23040, Note_on_c, 9, 42, 110
1, 23040, Note_on_c, 9, 36, 110
1, 23049, Note_on_c, 9, 42, 0
1, 23280, Note_on_c, 9, 42, 110
1, 23289, Note_on_c, 9, 42, 0
1, 23519, Note_on_c, 9, 36, 0
1, 23520, Note_on_c, 9, 38, 110
1, 23520, Note_on_c, 9, 42, 110
1, 23529, Note_on_c, 9, 42, 0
1, 23759, Note_on_c, 9, 38, 0
1, 23760, Note_on_c, 9, 42, 110
1, 23769, Note_on_c, 9, 42, 0
1, 24000, Note_on_c, 9, 42, 110
1, 24000, Note_on_c, 9, 36, 110
1, 24009, Note_on_c, 9, 42, 0
1, 24239, Note_on_c, 9, 36, 0
1, 24240, Note_on_c, 9, 42, 110
1, 24240, Note_on_c, 9, 36, 110
1, 24249, Note_on_c, 9, 42, 0
1, 24479, Note_on_c, 9, 36, 0
1, 24480, Note_on_c, 9, 38, 110
1, 24480, Note_on_c, 9, 42, 110
1, 24489, Note_on_c, 9, 42, 0
1, 24719, Note_on_c, 9, 38, 0
1, 24720, Note_on_c, 9, 42, 110
1, 24729, Note_on_c, 9, 42, 0
1, 24960, Note_on_c, 9, 42, 110
1, 24960, Note_on_c, 9, 36, 110
1, 24969, Note_on_c, 9, 42, 0
1, 25200, Note_on_c, 9, 42, 110
1, 25209, Note_on_c, 9, 42, 0
1, 25439, Note_on_c, 9, 36, 0
1, 25440, Note_on_c, 9, 38, 110
1, 25440, Note_on_c, 9, 42, 110
1, 25449, Note_on_c, 9, 42, 0
1, 25679, Note_on_c, 9, 38, 0
1, 25680, Note_on_c, 9, 42, 110
1, 25689, Note_on_c, 9, 42, 0
1, 25920, Note_on_c, 9, 42, 110
1, 25920, Note_on_c, 9, 36, 110
1, 25929, Note_on_c, 9, 42, 0
1, 26159, Note_on_c, 9, 36, 0
1, 26160, Note_on_c, 9, 42, 110
1, 26160, Note_on_c, 9, 36, 110
1, 26169, Note_on_c, 9, 42, 0
1, 26399, Note_on_c, 9, 36, 0
1, 26400, Note_on_c, 9, 38, 110
1, 26400, Note_on_c, 9, 42, 110
1, 26409, Note_on_c, 9, 42, 0
1, 26639, Note_on_c, 9, 38, 0
1, 26640, Note_on_c, 9, 42, 110
1, 26649, Note_on_c, 9, 42, 0
1, 26880, Note_on_c, 9, 42, 110
1, 26880, Note_on_c, 9, 36, 110
1, 26889, Note_on_c, 9, 42, 0
1, 27120, Note_on_c, 9, 42, 110
1, 27129, Note_on_c, 9, 42, 0
1, 27359, Note_on_c, 9, 36, 0
1, 27360, Note_on_c, 9, 38, 110
1, 27360, Note_on_c, 9, 42, 110
1, 27369, Note_on_c, 9, 42, 0
1, 27599, Note_on_c, 9, 38, 0
1, 27600, Note_on_c, 9, 42, 110
1, 27609, Note_on_c, 9, 42, 0
1, 27840, Note_on_c, 9, 42, 110
1, 27840, Note_on_c, 9, 36, 110
1, 27849, Note_on_c, 9, 42, 0
1, 28079, Note_on_c, 9, 36, 0
1, 28080, Note_on_c, 9, 42, 110
1, 28080, Note_on_c, 9, 36, 110
1, 28089, Note_on_c, 9, 42, 0
1, 28319, Note_on_c, 9, 36, 0
1, 28320, Note_on_c, 9, 38, 110
1, 28320, Note_on_c, 9, 42, 110
1, 28329, Note_on_c, 9, 42, 0
1, 28559, Note_on_c, 9, 38, 0
1, 28560, Note_on_c, 9, 42, 110
1, 28569, Note_on_c, 9, 42, 0
1, 28800, Note_on_c, 9, 42, 110
1, 28800, Note_on_c, 9, 36, 110
1, 28809, Note_on_c, 9, 42, 0
1, 29040, Note_on_c, 9, 42, 110
1, 29049, Note_on_c, 9, 42, 0
1, 29279, Note_on_c, 9, 36, 0
1, 29280, Note_on_c, 9, 38, 110
1, 29280, Note_on_c, 9, 42, 110
1, 29289, Note_on_c, 9, 42, 0
1, 29519, Note_on_c, 9, 38, 0
1, 29520, Note_on_c, 9, 42, 110
1, 29529, Note_on_c, 9, 42, 0
1, 29760, Note_on_c, 9, 42, 110
1, 29760, Note_on_c, 9, 36, 110
1, 29769, Note_on_c, 9, 42, 0
1, 29999, Note_on_c, 9, 36, 0
1, 30000, Note_on_c, 9, 42, 110
1, 30000, Note_on_c, 9, 36, 110
1, 30009, Note_on_c, 9, 42, 0
1, 30239, Note_on_c, 9, 36, 0
1, 30240, Note_on_c, 9, 38, 110
1, 30240, Note_on_c, 9, 42, 110
1, 30249, Note_on_c, 9, 42, 0
1, 30479, Note_on_c, 9, 38, 0
1, 30480, Note_on_c, 9, 42, 110
1, 30489, Note_on_c, 9, 42, 0
1, 30720, Note_on_c, 9, 42, 110
1, 30720, Note_on_c, 9, 36, 110
1, 30729, Note_on_c, 9, 42, 0
1, 30960, Note_on_c, 9, 42, 110
1, 30969, Note_on_c, 9, 42, 0
1, 31199, Note_on_c, 9, 36, 0
1, 31200, Note_on_c, 9, 38, 110
1, 31200, Note_on_c, 9, 42, 110
1, 31209, Note_on_c, 9, 42, 0
1, 31439, Note_on_c, 9, 38, 0
1, 31440, Note_on_c, 9, 42, 110
1, 31449, Note_on_c, 9, 42, 0
1, 31680, Note_on_c, 9, 42, 110
1, 31680, Note_on_c, 9, 36, 110
1, 31689, Note_on_c, 9, 42, 0
1, 31919, Note_on_c, 9, 36, 0
1, 31920, Note_on_c, 9, 42, 110
1, 31920, Note_on_c, 9, 36, 110
1, 31929, Note_on_c, 9, 42, 0
1, 32159, Note_on_c, 9, 36, 0
1, 32160, Note_on_c, 9, 38, 110
1, 32219, Note_on_c, 9, 38, 0
1, 32220, Note_on_c, 9, 38, 110
1, 32279, Note_on_c, 9, 38, 0
1, 32280, Note_on_c, 9, 38, 110
1, 32339, Note_on_c, 9, 38, 0
1, 32340, Note_on_c, 9, 38, 110
1, 32399, Note_on_c, 9, 38, 0
1, 32400, Note_on_c, 9, 38, 110
1, 32459, Note_on_c, 9, 38, 0
1, 32460, Note_on_c, 9, 38, 110
1, 32519, Note_on_c, 9, 38, 0
1, 32520, Note_on_c, 9, 38, 110
1, 32579, Note_on_c, 9, 38, 0
1, 32580, Note_on_c, 9, 38, 110
1, 32639, Note_on_c, 9, 38, 0
1, 32640, Note_on_c, 9, 46, 110
1, 32640, Note_on_c, 9, 55, 110
1, 32640, Note_on_c, 9, 36, 110
1, 32649, Note_on_c, 9, 46, 0
1, 32649, Note_on_c, 9, 55, 0
1, 32880, Note_on_c, 9, 46, 110
1, 32889, Note_on_c, 9, 46, 0
1, 33119, Note_on_c, 9, 36, 0
1, 33120, Note_on_c, 9, 38, 110
1, 33120, Note_on_c, 9, 46, 110
1, 33129, Note_on_c, 9, 46, 0
1, 33359, Note_on_c, 9, 38, 0
1, 33360, Note_on_c, 9, 46, 110
1, 33369, Note_on_c, 9, 46, 0
1, 33600, Note_on_c, 9, 46, 110
1, 33600, Note_on_c, 9, 36, 110
1, 33609, Note_on_c, 9, 46, 0
1, 33839, Note_on_c, 9, 36, 0
1, 33840, Note_on_c, 9, 46, 110
1, 33840, Note_on_c, 9, 36, 110
1, 33849, Note_on_c, 9, 46, 0
1, 34079, Note_on_c, 9, 36, 0
1, 34080, Note_on_c, 9, 41, 110
1, 34080, Note_on_c, 9, 38, 110
1, 34080, Note_on_c, 9, 46, 110
1, 34084, Note_on_c, 9, 46, 0
1, 34199, Note_on_c, 9, 41, 0
1, 34199, Note_on_c, 9, 38, 0
1, 34200, Note_on_c, 9, 41, 110
1, 34319, Note_on_c, 9, 41, 0
1, 34320, Note_on_c, 9, 41, 110
1, 34320, Note_on_c, 9, 46, 110
1, 34324, Note_on_c, 9, 46, 0
1, 34439, Note_on_c, 9, 41, 0
1, 34440, Note_on_c, 9, 41, 110
1, 34559, Note_on_c, 9, 41, 0
1, 34560, Note_on_c, 9, 46, 110
1, 34560, Note_on_c, 9, 36, 110
1, 34569, Note_on_c, 9, 46, 0
1, 34800, Note_on_c, 9, 46, 110
1, 34809, Note_on_c, 9, 46, 0
1, 35039, Note_on_c, 9, 36, 0
1, 35040, Note_on_c, 9, 38, 110
1, 35040, Note_on_c, 9, 46, 110
1, 35049, Note_on_c, 9, 46, 0
1, 35279, Note_on_c, 9, 38, 0
1, 35280, Note_on_c, 9, 46, 110
1, 35289, Note_on_c, 9, 46, 0
1, 35520, Note_on_c, 9, 46, 110
1, 35520, Note_on_c, 9, 36, 110
1, 35529, Note_on_c, 9, 46, 0
1, 35759, Note_on_c, 9, 36, 0
1, 35760, Note_on_c, 9, 46, 110
1, 35760, Note_on_c, 9, 36, 110
1, 35769, Note_on_c, 9, 46, 0
1, 35999, Note_on_c, 9, 36, 0
1, 36000, Note_on_c, 9, 41, 110
1, 36000, Note_on_c, 9, 38, 110
1, 36000, Note_on_c, 9, 46, 110
1, 36004, Note_on_c, 9, 46, 0
1, 36119, Note_on_c, 9, 41, 0
1, 36119, Note_on_c, 9, 38, 0
1, 36120, Note_on_c, 9, 41, 110
1, 36239, Note_on_c, 9, 41, 0
1, 36240, Note_on_c, 9, 41, 110
1, 36240, Note_on_c, 9, 46, 110
1, 36244, Note_on_c, 9, 46, 0
1, 36359, Note_on_c, 9, 41, 0
1, 36360, Note_on_c, 9, 41, 110
1, 36479, Note_on_c, 9, 41, 0
1, 36480, Note_on_c, 9, 46, 110
1, 36480, Note_on_c, 9, 36, 110
1, 36489, Note_on_c, 9, 46, 0
1, 36720, Note_on_c, 9, 46, 110
1, 36729, Note_on_c, 9, 46, 0
1, 36959, Note_on_c, 9, 36, 0
1, 36960, Note_on_c, 9, 38, 110
1, 36960, Note_on_c, 9, 46, 110
1, 36969, Note_on_c, 9, 46, 0
1, 37199, Note_on_c, 9, 38, 0
1, 37200, Note_on_c, 9, 46, 110
1, 37209, Note_on_c, 9, 46, 0
1, 37440, Note_on_c, 9, 46, 110
1, 37440, Note_on_c, 9, 36, 110
1, 37449, Note_on_c, 9, 46, 0
1, 37679, Note_on_c, 9, 36, 0
1, 37680, Note_on_c, 9, 46, 110
1, 37680, Note_on_c, 9, 36, 110
1, 37689, Note_on_c, 9, 46, 0
1, 37919, Note_on_c, 9, 36, 0
1, 37920, Note_on_c, 9, 41, 110
1, 37920, Note_on_c, 9, 38, 110
1, 37920, Note_on_c, 9, 46, 110
1, 37924, Note_on_c, 9, 46, 0
1, 38039, Note_on_c, 9, 41, 0
1, 38039, Note_on_c, 9, 38, 0
1, 38040, Note_on_c, 9, 41, 110
1, 38159, Note_on_c, 9, 41, 0
1, 38160, Note_on_c, 9, 41, 110
1, 38160, Note_on_c, 9, 46, 110
1, 38164, Note_on_c, 9, 46, 0
1, 38279, Note_on_c, 9, 41, 0
1, 38280, Note_on_c, 9, 41, 110
1, 38399, Note_on_c, 9, 41, 0
1, 38400, Note_on_c, 9, 46, 110
1, 38400, Note_on_c, 9, 36, 110
1, 38409, Note_on_c, 9, 46, 0
1, 38640, Note_on_c, 9, 46, 110
1, 38649, Note_on_c, 9, 46, 0
1, 38879, Note_on_c, 9, 36, 0
1, 38880, Note_on_c, 9, 38, 110
1, 38880, Note_on_c, 9, 46, 110
1, 38889, Note_on_c, 9, 46, 0
1, 39119, Note_on_c, 9, 38, 0
1, 39120, Note_on_c, 9, 46, 110
1, 39129, Note_on_c, 9, 46, 0
1, 39360, Note_on_c, 9, 46, 110
1, 39360, Note_on_c, 9, 36, 110
1, 39369, Note_on_c, 9, 46, 0
1, 39599, Note_on_c, 9, 36, 0
1, 39600, Note_on_c, 9, 46, 110
1, 39600, Note_on_c, 9, 36, 110
1, 39609, Note_on_c, 9, 46, 0
1, 39839, Note_on_c, 9, 36, 0
1, 39840, Note_on_c, 9, 41, 110
1, 39840, Note_on_c, 9, 38, 110
1, 39840, Note_on_c, 9, 46, 110
1, 39844, Note_on_c, 9, 46, 0
1, 39959, Note_on_c, 9, 41, 0
1, 39959, Note_on_c, 9, 38, 0
1, 39960, Note_on_c, 9, 41, 110
1, 40079, Note_on_c, 9, 41, 0
1, 40080, Note_on_c, 9, 41, 110
1, 40080, Note_on_c, 9, 46, 110
1, 40084, Note_on_c, 9, 46, 0
1, 40199, Note_on_c, 9, 41, 0
1, 40200, Note_on_c, 9, 41, 110
1, 40319, Note_on_c, 9, 41, 0
1, 40320, Note_on_c, 9, 46, 110
1, 40320, Note_on_c, 9, 55, 110
1, 40320, Note_on_c, 9, 36, 110
1, 40329, Note_on_c, 9, 46, 0
1, 40329, Note_on_c, 9, 55, 0
1, 40560, Note_on_c, 9, 46, 110
1, 40569, Note_on_c, 9, 46, 0
1, 40799, Note_on_c, 9, 36, 0
1, 40800, Note_on_c, 9, 38, 110
1, 40800, Note_on_c, 9, 46, 110
1, 40809, Note_on_c, 9, 46, 0
1, 41039, Note_on_c, 9, 38, 0
1, 41040, Note_on_c, 9, 46, 110
1, 41049, Note_on_c, 9, 46, 0
1, 41280, Note_on_c, 9, 46, 110
1, 41280, Note_on_c, 9, 36, 110
1, 41289, Note_on_c, 9, 46, 0
1, 41519, Note_on_c, 9, 36, 0
1, 41520, Note_on_c, 9, 46, 110
1, 41520, Note_on_c, 9, 36, 110
1, 41529, Note_on_c, 9, 46, 0
1, 41759, Note_on_c, 9, 36, 0
1, 41760, Note_on_c, 9, 41, 110
1, 41760, Note_on_c, 9, 38, 110
1, 41760, Note_on_c, 9, 46, 110
1, 41764, Note_on_c, 9, 46, 0
1, 41879, Note_on_c, 9, 41, 0
1, 41879, Note_on_c, 9, 38, 0
1, 41880, Note_on_c, 9, 41, 110
1, 41999, Note_on_c, 9, 41, 0
1, 42000, Note_on_c, 9, 41, 110
1, 42000, Note_on_c, 9, 46, 110
1, 42004, Note_on_c, 9, 46, 0
1, 42119, Note_on_c, 9, 41, 0
1, 42120, Note_on_c, 9, 41, 110
1, 42239, Note_on_c, 9, 41, 0
1, 42240, Note_on_c, 9, 46, 110
1, 42240, Note_on_c, 9, 36, 110
1, 42249, Note_on_c, 9, 46, 0
1, 42480, Note_on_c, 9, 46, 110
1, 42489, Note_on_c, 9, 46, 0
1, 42719, Note_on_c, 9, 36, 0
1, 42720, Note_on_c, 9, 38, 110
1, 42720, Note_on_c, 9, 46, 110
1, 42729, Note_on_c, 9, 46, 0
1, 42959, Note_on_c, 9, 38, 0
1, 42960, Note_on_c, 9, 46, 110
1, 42969, Note_on_c, 9, 46, 0
1, 43200, Note_on_c, 9, 46, 110
1, 43200, Note_on_c, 9, 36, 110
1, 43209, Note_on_c, 9, 46, 0
1, 43439, Note_on_c, 9, 36, 0
1, 43440, Note_on_c, 9, 46, 110
1, 43440, Note_on_c, 9, 36, 110
1, 43449, Note_on_c, 9, 46, 0
1, 43679, Note_on_c, 9, 36, 0
1, 43680, Note_on_c, 9, 41, 110
1, 43680, Note_on_c, 9, 38, 110
1, 43680, Note_on_c, 9, 46, 110
1, 43684, Note_on_c, 9, 46, 0
1, 43799, Note_on_c, 9, 41, 0
1, 43799, Note_on_c, 9, 38, 0
1, 43800, Note_on_c, 9, 41, 110
1, 43919, Note_on_c, 9, 41, 0
1, 43920, Note_on_c, 9, 41, 110
1, 43920, Note_on_c, 9, 46, 110
1, 43924, Note_on_c, 9, 46, 0
1, 44039, Note_on_c, 9, 41, 0
1, 44040, Note_on_c, 9, 41, 110
1, 44159, Note_on_c, 9, 41, 0
1, 44160, Note_on_c, 9, 46, 110
1, 44160, Note_on_c, 9, 36, 110
1, 44169, Note_on_c, 9, 46, 0
1, 44400, Note_on_c, 9, 46, 110
1, 44409, Note_on_c, 9, 46, 0
1, 44639, Note_on_c, 9, 36, 0
1, 44640, Note_on_c, 9, 38, 110
1, 44640, Note_on_c, 9, 46, 110
1, 44649, Note_on_c, 9, 46, 0
1, 44879, Note_on_c, 9, 38, 0
1, 44880, Note_on_c, 9, 46, 110
1, 44889, Note_on_c, 9, 46, 0
1, 45120, Note_on_c, 9, 46, 110
1, 45120, Note_on_c, 9, 36, 110
1, 45129, Note_on_c, 9, 46, 0
1, 45359, Note_on_c, 9, 36, 0
1, 45360, Note_on_c, 9, 46, 110
1, 45360, Note_on_c, 9, 36, 110
1, 45369, Note_on_c, 9, 46, 0
1, 45599, Note_on_c, 9, 36, 0
1, 45600, Note_on_c, 9, 38, 110
1, 45600, Note_on_c, 9, 46, 110
1, 45609, Note_on_c, 9, 46, 0
1, 45839, Note_on_c, 9, 38, 0
1, 45840, Note_on_c, 9, 46, 110
1, 45849, Note_on_c, 9, 46, 0
1, 46080, Note_on_c, 9, 42, 110
1, 46080, Note_on_c, 9, 35, 110
1, 46089, Note_on_c, 9, 42, 0
1, 46320, Note_on_c, 9, 42, 110
1, 46329, Note_on_c, 9, 42, 0
1, 46439, Note_on_c, 9, 35, 0
1, 46440, Note_on_c, 9, 35, 110
1, 46559, Note_on_c, 9, 35, 0
1, 46560, Note_on_c, 9, 42, 110
1, 46560, Note_on_c, 9, 35, 110
1, 46569, Note_on_c, 9, 42, 0
1, 46800, Note_on_c, 9, 42, 110
1, 46809, Note_on_c, 9, 42, 0
1, 46919, Note_on_c, 9, 35, 0
1, 46920, Note_on_c, 9, 35, 110
1, 47039, Note_on_c, 9, 35, 0
1, 47040, Note_on_c, 9, 42, 110
1, 47040, Note_on_c, 9, 35, 110
1, 47049, Note_on_c, 9, 42, 0
1, 47280, Note_on_c, 9, 42, 110
1, 47289, Note_on_c, 9, 42, 0
1, 47399, Note_on_c, 9, 35, 0
1, 47400, Note_on_c, 9, 35, 110
1, 47519, Note_on_c, 9, 35, 0
1, 47520, Note_on_c, 9, 42, 110
1, 47520, Note_on_c, 9, 35, 110
1, 47529, Note_on_c, 9, 42, 0
1, 47759, Note_on_c, 9, 35, 0
1, 47760, Note_on_c, 9, 42, 110
1, 47760, Note_on_c, 9, 35, 110
1, 47769, Note_on_c, 9, 42, 0
1, 47999, Note_on_c, 9, 35, 0
1, 48000, Note_on_c, 9, 42, 110
1, 48000, Note_on_c, 9, 36, 110
1, 48009, Note_on_c, 9, 42, 0
1, 48240, Note_on_c, 9, 42, 110
1, 48249, Note_on_c, 9, 42, 0
1, 48479, Note_on_c, 9, 36, 0
1, 48480, Note_on_c, 9, 38, 110
1, 48480, Note_on_c, 9, 42, 110
1, 48489, Note_on_c, 9, 42, 0
1, 48719, Note_on_c, 9, 38, 0
1, 48720, Note_on_c, 9, 42, 110
1, 48729, Note_on_c, 9, 42, 0
1, 48960, Note_on_c, 9, 42, 110
1, 48960, Note_on_c, 9, 36, 110
1, 48969, Note_on_c, 9, 42, 0
1, 49199, Note_on_c, 9, 36, 0
1, 49200, Note_on_c, 9, 42, 110
1, 49200, Note_on_c, 9, 36, 110
1, 49209, Note_on_c, 9, 42, 0
1, 49439, Note_on_c, 9, 36, 0
1, 49440, Note_on_c, 9, 38, 110
1, 49440, Note_on_c, 9, 42, 110
1, 49449, Note_on_c, 9, 42, 0
1, 49679, Note_on_c, 9, 38, 0
1, 49680, Note_on_c, 9, 42, 110
1, 49689, Note_on_c, 9, 42, 0
1, 49920, Note_on_c, 9, 42, 110
1, 49920, Note_on_c, 9, 36, 110
1, 49929, Note_on_c, 9, 42, 0
1, 50160, Note_on_c, 9, 42, 110
1, 50169, Note_on_c, 9, 42, 0
1, 50399, Note_on_c, 9, 36, 0
1, 50400, Note_on_c, 9, 38, 110
1, 50400, Note_on_c, 9, 42, 110
1, 50409, Note_on_c, 9, 42, 0
1, 50639, Note_on_c, 9, 38, 0
1, 50640, Note_on_c, 9, 42, 110
1, 50649, Note_on_c, 9, 42, 0
1, 50880, Note_on_c, 9, 42, 110
1, 50880, Note_on_c, 9, 36, 110
1, 50889, Note_on_c, 9, 42, 0
1, 51119, Note_on_c, 9, 36, 0
1, 51120, Note_on_c, 9, 42, 110
1, 51120, Note_on_c, 9, 36, 110
1, 51129, Note_on_c, 9, 42, 0
1, 51359, Note_on_c, 9, 36, 0
1, 51360, Note_on_c, 9, 38, 110
1, 51360, Note_on_c, 9, 42, 110
1, 51369, Note_on_c, 9, 42, 0
1, 51599, Note_on_c, 9, 38, 0
1, 51600, Note_on_c, 9, 42, 110
1, 51609, Note_on_c, 9, 42, 0
1, 51840, Note_on_c, 9, 42, 110
1, 51840, Note_on_c, 9, 36, 110
1, 51849, Note_on_c, 9, 42, 0
1, 52080, Note_on_c, 9, 42, 110
1, 52089, Note_on_c, 9, 42, 0
1, 52319, Note_on_c, 9, 36, 0
1, 52320, Note_on_c, 9, 38, 110
1, 52320, Note_on_c, 9, 42, 110
1, 52329, Note_on_c, 9, 42, 0
1, 52559, Note_on_c, 9, 38, 0
1, 52560, Note_on_c, 9, 42, 110
1, 52569, Note_on_c, 9, 42, 0
1, 52800, Note_on_c, 9, 42, 110
1, 52800, Note_on_c, 9, 36, 110
1, 52809, Note_on_c, 9, 42, 0
1, 53039, Note_on_c, 9, 36, 0
1, 53040, Note_on_c, 9, 42, 110
1, 53040, Note_on_c, 9, 36, 110
1, 53049, Note_on_c, 9, 42, 0
1, 53279, Note_on_c, 9, 36, 0
1, 53280, Note_on_c, 9, 38, 110
1, 53280, Note_on_c, 9, 42, 110
1, 53289, Note_on_c, 9, 42, 0
1, 53519, Note_on_c, 9, 38, 0
1, 53520, Note_on_c, 9, 42, 110
1, 53529, Note_on_c, 9, 42, 0
1, 53760, Note_on_c, 9, 42, 110
1, 53760, Note_on_c, 9, 36, 110
1, 53769, Note_on_c, 9, 42, 0
1, 54000, Note_on_c, 9, 42, 110
1, 54009, Note_on_c, 9, 42, 0
1, 54239, Note_on_c, 9, 36, 0
1, 54240, Note_on_c, 9, 38, 110
1, 54240, Note_on_c, 9, 42, 110
1, 54249, Note_on_c, 9, 42, 0
1, 54479, Note_on_c, 9, 38, 0
1, 54480, Note_on_c, 9, 42, 110
1, 54489, Note_on_c, 9, 42, 0
1, 54720, Note_on_c, 9, 42, 110
1, 54720, Note_on_c, 9, 36, 110
1, 54729, Note_on_c, 9, 42, 0
1, 54959, Note_on_c, 9, 36, 0
1, 54960, Note_on_c, 9, 42, 110
1, 54960, Note_on_c, 9, 36, 110
1, 54969, Note_on_c, 9, 42, 0
1, 55199, Note_on_c, 9, 36, 0
1, 55200, Note_on_c, 9, 38, 110
1, 55200, Note_on_c, 9, 42, 110
1, 55209, Note_on_c, 9, 42, 0
1, 55439, Note_on_c, 9, 38, 0
1, 55440, Note_on_c, 9, 42, 110
1, 55449, Note_on_c, 9, 42, 0
1, 55680, Note_on_c, 9, 42, 110
1, 55680, Note_on_c, 9, 36, 110
1, 55689, Note_on_c, 9, 42, 0
1, 55920, Note_on_c, 9, 42, 110
1, 55929, Note_on_c, 9, 42, 0
1, 56159, Note_on_c, 9, 36, 0
1, 56160, Note_on_c, 9, 38, 110
1, 56160, Note_on_c, 9, 42, 110
1, 56169, Note_on_c, 9, 42, 0
1, 56399, Note_on_c, 9, 38, 0
1, 56400, Note_on_c, 9, 42, 110
1, 56409, Note_on_c, 9, 42, 0
1, 56640, Note_on_c, 9, 42, 110
1, 56640, Note_on_c, 9, 36, 110
1, 56649, Note_on_c, 9, 42, 0
1, 56879, Note_on_c, 9, 36, 0
1, 56880, Note_on_c, 9, 42, 110
1, 56880, Note_on_c, 9, 36, 110
1, 56889, Note_on_c, 9, 42, 0
1, 57119, Note_on_c, 9, 36, 0
1, 57120, Note_on_c, 9, 38, 110
1, 57120, Note_on_c, 9, 42, 110
1, 57129, Note_on_c, 9, 42, 0
1, 57359, Note_on_c, 9, 38, 0
1, 57360, Note_on_c, 9, 42, 110
1, 57369, Note_on_c, 9, 42, 0
1, 57600, Note_on_c, 9, 42, 110
1, 57600, Note_on_c, 9, 36, 110
1, 57609, Note_on_c, 9, 42, 0
1, 57840, Note_on_c, 9, 42, 110
1, 57849, Note_on_c, 9, 42, 0
1, 58079, Note_on_c, 9, 36, 0
1, 58080, Note_on_c, 9, 38, 110
1, 58080, Note_on_c, 9, 42, 110
1, 58089, Note_on_c, 9, 42, 0
1, 58319, Note_on_c, 9, 38, 0
1, 58320, Note_on_c, 9, 42, 110
1, 58329, Note_on_c, 9, 42, 0
1, 58560, Note_on_c, 9, 42, 110
1, 58560, Note_on_c, 9, 36, 110
1, 58569, Note_on_c, 9, 42, 0
1, 58799, Note_on_c, 9, 36, 0
1, 58800, Note_on_c, 9, 42, 110
1, 58800, Note_on_c, 9, 36, 110
1, 58809, Note_on_c, 9, 42, 0
1, 59039, Note_on_c, 9, 36, 0
1, 59040, Note_on_c, 9, 38, 110
1, 59040, Note_on_c, 9, 42, 110
1, 59049, Note_on_c, 9, 42, 0
1, 59279, Note_on_c, 9, 38, 0
1, 59280, Note_on_c, 9, 42, 110
1, 59289, Note_on_c, 9, 42, 0
1, 59520, Note_on_c, 9, 42, 110
1, 59520, Note_on_c, 9, 36, 110
1, 59529, Note_on_c, 9, 42, 0
1, 59760, Note_on_c, 9, 42, 110
1, 59769, Note_on_c, 9, 42, 0
1, 59999, Note_on_c, 9, 36, 0
1, 60000, Note_on_c, 9, 38, 110
1, 60000, Note_on_c, 9, 42, 110
1, 60009, Note_on_c, 9, 42, 0
1, 60239, Note_on_c, 9, 38, 0
1, 60240, Note_on_c, 9, 42, 110
1, 60249, Note_on_c, 9, 42, 0
1, 60480, Note_on_c, 9, 42, 110
1, 60480, Note_on_c, 9, 36, 110
1, 60489, Note_on_c, 9, 42, 0
1, 60719, Note_on_c, 9, 36, 0
1, 60720, Note_on_c, 9, 42, 110
1, 60720, Note_on_c, 9, 36, 110
1, 60729, Note_on_c, 9, 42, 0
1, 60959, Note_on_c, 9, 36, 0
1, 60960, Note_on_c, 9, 38, 110
1, 60960, Note_on_c, 9, 42, 110
1, 60969, Note_on_c, 9, 42, 0
1, 61199, Note_on_c, 9, 38, 0
1, 61200, Note_on_c, 9, 42, 110
1, 61209, Note_on_c, 9, 42, 0
1, 61440, Note_on_c, 9, 42, 110
1, 61440, Note_on_c, 9, 36, 110
1, 61449, Note_on_c, 9, 42, 0
1, 61680, Note_on_c, 9, 42, 110
1, 61689, Note_on_c, 9, 42, 0
1, 61919, Note_on_c, 9, 36, 0
1, 61920, Note_on_c, 9, 38, 110
1, 61920, Note_on_c, 9, 42, 110
1, 61929, Note_on_c, 9, 42, 0
1, 62159, Note_on_c, 9, 38, 0
1, 62160, Note_on_c, 9, 42, 110
1, 62169, Note_on_c, 9, 42, 0
1, 62400, Note_on_c, 9, 42, 110
1, 62400, Note_on_c, 9, 36, 110
1, 62409, Note_on_c, 9, 42, 0
1, 62639, Note_on_c, 9, 36, 0
1, 62640, Note_on_c, 9, 42, 110
1, 62640, Note_on_c, 9, 36, 110
1, 62649, Note_on_c, 9, 42, 0
1, 62879, Note_on_c, 9, 36, 0
1, 62880, Note_on_c, 9, 38, 110
1, 62939, Note_on_c, 9, 38, 0
1, 62940, Note_on_c, 9, 38, 110
1, 62999, Note_on_c, 9, 38, 0
1, 63000, Note_on_c, 9, 38, 110
1, 63059, Note_on_c, 9, 38, 0
1, 63060, Note_on_c, 9, 38, 110
1, 63119, Note_on_c, 9, 38, 0
1, 63120, Note_on_c, 9, 38, 110
1, 63179, Note_on_c, 9, 38, 0
1, 63180, Note_on_c, 9, 38, 110
1, 63239, Note_on_c, 9, 38, 0
1, 63240, Note_on_c, 9, 38, 110
1, 63299, Note_on_c, 9, 38, 0
1, 63300, Note_on_c, 9, 38, 110
1, 63359, Note_on_c, 9, 38, 0
1, 63360, Note_on_c, 9, 46, 110
1, 63360, Note_on_c, 9, 55, 110
1, 63360, Note_on_c, 9, 36, 110
1, 63369, Note_on_c, 9, 46, 0
1, 63369, Note_on_c, 9, 55, 0
1, 63600, Note_on_c, 9, 46, 110
1, 63609, Note_on_c, 9, 46, 0
1, 63839, Note_on_c, 9, 36, 0
1, 63840, Note_on_c, 9, 38, 110
1, 63840, Note_on_c, 9, 46, 110
1, 63849, Note_on_c, 9, 46, 0
1, 64079, Note_on_c, 9, 38, 0
1, 64080, Note_on_c, 9, 46, 110
1, 64089, Note_on_c, 9, 46, 0
1, 64320, Note_on_c, 9, 46, 110
1, 64320, Note_on_c, 9, 36, 110
1, 64329, Note_on_c, 9, 46, 0
1, 64559, Note_on_c, 9, 36, 0
1, 64560, Note_on_c, 9, 46, 110
1, 64560, Note_on_c, 9, 36, 110
1, 64569, Note_on_c, 9, 46, 0
1, 64799, Note_on_c, 9, 36, 0
1, 64800, Note_on_c, 9, 41, 110
1, 64800, Note_on_c, 9, 38, 110
1, 64800, Note_on_c, 9, 46, 110
1, 64804, Note_on_c, 9, 46, 0
1, 64919, Note_on_c, 9, 41, 0
1, 64919, Note_on_c, 9, 38, 0
1, 64920, Note_on_c, 9, 41, 110
1, 65039, Note_on_c, 9, 41, 0
1, 65040, Note_on_c, 9, 41, 110
1, 65040, Note_on_c, 9, 46, 110
1, 65044, Note_on_c, 9, 46, 0
1, 65159, Note_on_c, 9, 41, 0
1, 65160, Note_on_c, 9, 41, 110
1, 65279, Note_on_c, 9, 41, 0
1, 65280, Note_on_c, 9, 46, 110
1, 65280, Note_on_c, 9, 36, 110
1, 65289, Note_on_c, 9, 46, 0
1, 65520, Note_on_c, 9, 46, 110
1, 65529, Note_on_c, 9, 46, 0
1, 65759, Note_on_c, 9, 36, 0
1, 65760, Note_on_c, 9, 38, 110
1, 65760, Note_on_c, 9, 46, 110
1, 65769, Note_on_c, 9, 46, 0
1, 65999, Note_on_c, 9, 38, 0
1, 66000, Note_on_c, 9, 46, 110
1, 66009, Note_on_c, 9, 46, 0
1, 66240, Note_on_c, 9, 46, 110
1, 66240, Note_on_c, 9, 36, 110
1, 66249, Note_on_c, 9, 46, 0
1, 66479, Note_on_c, 9, 36, 0
1, 66480, Note_on_c, 9, 46, 110
1, 66480, Note_on_c, 9, 36, 110
1, 66489, Note_on_c, 9, 46, 0
1, 66719, Note_on_c, 9, 36, 0
1, 66720, Note_on_c, 9, 41, 110
1, 66720, Note_on_c, 9, 38, 110
1, 66720, Note_on_c, 9, 46, 110
1, 66724, Note_on_c, 9, 46, 0
1, 66839, Note_on_c, 9, 41, 0
1, 66839, Note_on_c, 9, 38, 0
1, 66840, Note_on_c, 9, 41, 110
1, 66959, Note_on_c, 9, 41, 0
1, 66960, Note_on_c, 9, 41, 110
1, 66960, Note_on_c, 9, 46, 110
1, 66964, Note_on_c, 9, 46, 0
1, 67079, Note_on_c, 9, 41, 0
1, 67080, Note_on_c, 9, 41, 110
1, 67199, Note_on_c, 9, 41, 0
1, 67200, Note_on_c, 9, 46, 110
1, 67200, Note_on_c, 9, 36, 110
1, 67209, Note_on_c, 9, 46, 0
1, 67440, Note_on_c, 9, 46, 110
1, 67449, Note_on_c, 9, 46, 0
1, 67679, Note_on_c, 9, 36, 0
1, 67680, Note_on_c, 9, 38, 110
1, 67680, Note_on_c, 9, 46, 110
1, 67689, Note_on_c, 9, 46, 0
1, 67919, Note_on_c, 9, 38, 0
1, 67920, Note_on_c, 9, 46, 110
1, 67929, Note_on_c, 9, 46, 0
1, 68160, Note_on_c, 9, 46, 110
1, 68160, Note_on_c, 9, 36, 110
1, 68169, Note_on_c, 9, 46, 0
1, 68399, Note_on_c, 9, 36, 0
1, 68400, Note_on_c, 9, 46, 110
1, 68400, Note_on_c, 9, 36, 110
1, 68409, Note_on_c, 9, 46, 0
1, 68639, Note_on_c, 9, 36, 0
1, 68640, Note_on_c, 9, 41, 110
1, 68640, Note_on_c, 9, 38, 110
1, 68640, Note_on_c, 9, 46, 110
1, 68644, Note_on_c, 9, 46, 0
1, 68759, Note_on_c, 9, 41, 0
1, 68759, Note_on_c, 9, 38, 0
1, 68760, Note_on_c, 9, 41, 110
1, 68879, Note_on_c, 9, 41, 0
1, 68880, Note_on_c, 9, 41, 110
1, 68880, Note_on_c, 9, 46, 110
1, 68884, Note_on_c, 9, 46, 0
1, 68999, Note_on_c, 9, 41, 0
1, 69000, Note_on_c, 9, 41, 110
1, 69119, Note_on_c, 9, 41, 0
1, 69120, Note_on_c, 9, 46, 110
1, 69120, Note_on_c, 9, 36, 110
1, 69129, Note_on_c, 9, 46, 0
1, 69360, Note_on_c, 9, 46, 110
1, 69369, Note_on_c, 9, 46, 0
1, 69599, Note_on_c, 9, 36, 0
1, 69600, Note_on_c, 9, 38, 110
1, 69600, Note_on_c, 9, 46, 110
1, 69609, Note_on_c, 9, 46, 0
1, 69839, Note_on_c, 9, 38, 0
1, 69840, Note_on_c, 9, 46, 110
1, 69849, Note_on_c, 9, 46, 0
1, 70080, Note_on_c, 9, 46, 110
1, 70080, Note_on_c, 9, 36, 110
1, 70089, Note_on_c, 9, 46, 0
1, 70319, Note_on_c, 9, 36, 0
1, 70320, Note_on_c, 9, 46, 110
1, 70320, Note_on_c, 9, 36, 110
1, 70329, Note_on_c, 9, 46, 0
1, 70559, Note_on_c, 9, 36, 0
1, 70560, Note_on_c, 9, 41, 110
1, 70560, Note_on_c, 9, 38, 110
1, 70560, Note_on_c, 9, 46, 110
1, 70564, Note_on_c, 9, 46, 0
1, 70679, Note_on_c, 9, 41, 0
1, 70679, Note_on_c, 9, 38, 0
1, 70680, Note_on_c, 9, 41, 110
1, 70799, Note_on_c, 9, 41, 0
1, 70800, Note_on_c, 9, 41, 110
1, 70800, Note_on_c, 9, 46, 110
1, 70804, Note_on_c, 9, 46, 0
1, 70919, Note_on_c, 9, 41, 0
1, 70920, Note_on_c, 9, 41, 110
1, 71039, Note_on_c, 9, 41, 0
1, 71040, Note_on_c, 9, 46, 110
1, 71040, Note_on_c, 9, 55, 110
1, 71040, Note_on_c, 9, 36, 110
1, 71049, Note_on_c, 9, 46, 0
1, 71049, Note_on_c, 9, 55, 0
1, 71280, Note_on_c, 9, 46, 110
1, 71289, Note_on_c, 9, 46, 0
1, 71519, Note_on_c, 9, 36, 0
1, 71520, Note_on_c, 9, 38, 110
1, 71520, Note_on_c, 9, 46, 110
1, 71529, Note_on_c, 9, 46, 0
1, 71759, Note_on_c, 9, 38, 0
1, 71760, Note_on_c, 9, 46, 110
1, 71769, Note_on_c, 9, 46, 0
1, 72000, Note_on_c, 9, 46, 110
1, 72000, Note_on_c, 9, 36, 110
1, 72009, Note_on_c, 9, 46, 0
1, 72239, Note_on_c, 9, 36, 0
1, 72240, Note_on_c, 9, 46, 110
1, 72240, Note_on_c, 9, 36, 110
1, 72249, Note_on_c, 9, 46, 0
1, 72479, Note_on_c, 9, 36, 0
1, 72480, Note_on_c, 9, 41, 110
1, 72480, Note_on_c, 9, 38, 110
1, 72480, Note_on_c, 9, 46, 110
1, 72484, Note_on_c, 9, 46, 0
1, 72599, Note_on_c, 9, 41, 0
1, 72599, Note_on_c, 9, 38, 0
1, 72600, Note_on_c, 9, 41, 110
1, 72719, Note_on_c, 9, 41, 0
1, 72720, Note_on_c, 9, 41, 110
1, 72720, Note_on_c, 9, 46, 110
1, 72724, Note_on_c, 9, 46, 0
1, 72839, Note_on_c, 9, 41, 0
1, 72840, Note_on_c, 9, 41, 110
1, 72959, Note_on_c, 9, 41, 0
1, 72960, Note_on_c, 9, 46, 110
1, 72960, Note_on_c, 9, 36, 110
1, 72969, Note_on_c, 9, 46, 0
1, 73200, Note_on_c, 9, 46, 110
1, 73209, Note_on_c, 9, 46, 0
1, 73439, Note_on_c, 9, 36, 0
1, 73440, Note_on_c, 9, 38, 110
1, 73440, Note_on_c, 9, 46, 110
1, 73449, Note_on_c, 9, 46, 0
1, 73679, Note_on_c, 9, 38, 0
1, 73680, Note_on_c, 9, 46, 110
1, 73689, Note_on_c, 9, 46, 0
1, 73920, Note_on_c, 9, 46, 110
1, 73920, Note_on_c, 9, 36, 110
1, 73929, Note_on_c, 9, 46, 0
1, 74159, Note_on_c, 9, 36, 0
1, 74160, Note_on_c, 9, 46, 110
1, 74160, Note_on_c, 9, 36, 110
1, 74169, Note_on_c, 9, 46, 0
1, 74399, Note_on_c, 9, 36, 0
1, 74400, Note_on_c, 9, 41, 110
1, 74400, Note_on_c, 9, 38, 110
1, 74400, Note_on_c, 9, 46, 110
1, 74404, Note_on_c, 9, 46, 0
1, 74519, Note_on_c, 9, 41, 0
1, 74519, Note_on_c, 9, 38, 0
1, 74520, Note_on_c, 9, 41, 110
1, 74639, Note_on_c, 9, 41, 0
1, 74640, Note_on_c, 9, 41, 110
1, 74640, Note_on_c, 9, 46, 110
1, 74644, Note_on_c, 9, 46, 0
1, 74759, Note_on_c, 9, 41, 0
1, 74760, Note_on_c, 9, 41, 110
1, 74879, Note_on_c, 9, 41, 0
1, 74880, Note_on_c, 9, 46, 110
1, 74880, Note_on_c, 9, 36, 110
1, 74889, Note_on_c, 9, 46, 0
1, 75120, Note_on_c, 9, 46, 110
1, 75129, Note_on_c, 9, 46, 0
1, 75359, Note_on_c, 9, 36, 0
1, 75360, Note_on_c, 9, 38, 110
1, 75360, Note_on_c, 9, 46, 110
1, 75369, Note_on_c, 9, 46, 0
1, 75599, Note_on_c, 9, 38, 0
1, 75600, Note_on_c, 9, 46, 110
1, 75609, Note_on_c, 9, 46, 0
1, 75840, Note_on_c, 9, 46, 110
1, 75840, Note_on_c, 9, 36, 110
1, 75849, Note_on_c, 9, 46, 0
1, 76079, Note_on_c, 9, 36, 0
1, 76080, Note_on_c, 9, 46, 110
1, 76080, Note_on_c, 9, 36, 110
1, 76089, Note_on_c, 9, 46, 0
1, 76319, Note_on_c, 9, 36, 0
1, 76320, Note_on_c, 9, 38, 110
1, 76320, Note_on_c, 9, 46, 110
1, 76329, Note_on_c, 9, 46, 0
1, 76559, Note_on_c, 9, 38, 0
1, 76560, Note_on_c, 9, 46, 110
1, 76569, Note_on_c, 9, 46, 0
1, 76800, Note_on_c, 9, 42, 110
1, 76800, Note_on_c, 9, 35, 110
1, 76809, Note_on_c, 9, 42, 0
1, 77040, Note_on_c, 9, 42, 110
1, 77049, Note_on_c, 9, 42, 0
1, 77159, Note_on_c, 9, 35, 0
1, 77160, Note_on_c, 9, 35, 110
1, 77279, Note_on_c, 9, 35, 0
1, 77280, Note_on_c, 9, 42, 110
1, 77280, Note_on_c, 9, 35, 110
1, 77289, Note_on_c, 9, 42, 0
1, 77520, Note_on_c, 9, 42, 110
1, 77529, Note_on_c, 9, 42, 0
1, 77639, Note_on_c, 9, 35, 0
1, 77640, Note_on_c, 9, 35, 110
1, 77759, Note_on_c, 9, 35, 0
1, 77760, Note_on_c, 9, 42, 110
1, 77760, Note_on_c, 9, 35, 110
1, 77769, Note_on_c, 9, 42, 0
1, 78000, Note_on_c, 9, 38, 110
1, 78239, Note_on_c, 9, 35, 0
1, 78239, Note_on_c, 9, 38, 0
1, 78240, Note_on_c, 9, 38, 110
1, 78359, Note_on_c, 9, 38, 0
1, 78360, Note_on_c, 9, 38, 110
1, 78479, Note_on_c, 9, 38, 0
1, 78480, Note_on_c, 9, 46, 110
1, 78489, Note_on_c, 9, 46, 0
1, 82560, Note_on_c, 9, 42, 110
1, 82560, Note_on_c, 9, 35, 110
1, 82569, Note_on_c, 9, 42, 0
1, 82800, Note_on_c, 9, 42, 110
1, 82809, Note_on_c, 9, 42, 0
1, 83039, Note_on_c, 9, 35, 0
1, 83040, Note_on_c, 9, 38, 110
1, 83040, Note_on_c, 9, 42, 110
1, 83049, Note_on_c, 9, 42, 0
1, 83279, Note_on_c, 9, 38, 0
1, 83280, Note_on_c, 9, 42, 110
1, 83289, Note_on_c, 9, 42, 0
1, 83400, Note_on_c, 9, 35, 110
1, 83519, Note_on_c, 9, 35, 0
1, 83520, Note_on_c, 9, 42, 110
1, 83520, Note_on_c, 9, 35, 110
1, 83529, Note_on_c, 9, 42, 0
1, 83759, Note_on_c, 9, 35, 0
1, 83760, Note_on_c, 9, 42, 110
1, 83760, Note_on_c, 9, 35, 110
1, 83769, Note_on_c, 9, 42, 0
1, 83999, Note_on_c, 9, 35, 0
1, 84000, Note_on_c, 9, 38, 110
1, 84000, Note_on_c, 9, 42, 110
1, 84009, Note_on_c, 9, 42, 0
1, 84239, Note_on_c, 9, 38, 0
1, 84240, Note_on_c, 9, 42, 110
1, 84249, Note_on_c, 9, 42, 0
1, 84360, Note_on_c, 9, 35, 110
1, 84479, Note_on_c, 9, 35, 0
1, 84480, Note_on_c, 9, 42, 110
1, 84480, Note_on_c, 9, 35, 110
1, 84489, Note_on_c, 9, 42, 0
1, 84720, Note_on_c, 9, 42, 110
1, 84729, Note_on_c, 9, 42, 0
1, 84959, Note_on_c, 9, 35, 0
1, 84960, Note_on_c, 9, 38, 110
1, 84960, Note_on_c, 9, 42, 110
1, 84969, Note_on_c, 9, 42, 0
1, 85199, Note_on_c, 9, 38, 0
1, 85200, Note_on_c, 9, 42, 110
1, 85209, Note_on_c, 9, 42, 0
1, 85320, Note_on_c, 9, 35, 110
1, 85439, Note_on_c, 9, 35, 0
1, 85440, Note_on_c, 9, 42, 110
1, 85440, Note_on_c, 9, 35, 110
1, 85449, Note_on_c, 9, 42, 0
1, 85679, Note_on_c, 9, 35, 0
1, 85680, Note_on_c, 9, 42, 110
1, 85680, Note_on_c, 9, 35, 110
1, 85689, Note_on_c, 9, 42, 0
1, 85919, Note_on_c, 9, 35, 0
1, 85920, Note_on_c, 9, 38, 110
1, 85920, Note_on_c, 9, 42, 110
1, 85929, Note_on_c, 9, 42, 0
1, 86159, Note_on_c, 9, 38, 0
1, 86160, Note_on_c, 9, 42, 110
1, 86169, Note_on_c, 9, 42, 0
1, 86280, Note_on_c, 9, 35, 110
1, 86399, Note_on_c, 9, 35, 0
1, 86400, Note_on_c, 9, 42, 110
1, 86400, Note_on_c, 9, 35, 110
1, 86409, Note_on_c, 9, 42, 0
1, 86640, Note_on_c, 9, 42, 110
1, 86649, Note_on_c, 9, 42, 0
1, 86879, Note_on_c, 9, 35, 0
1, 86880, Note_on_c, 9, 38, 110
1, 86880, Note_on_c, 9, 42, 110
1, 86889, Note_on_c, 9, 42, 0
1, 87119, Note_on_c, 9, 38, 0
1, 87120, Note_on_c, 9, 42, 110
1, 87129, Note_on_c, 9, 42, 0
1, 87240, Note_on_c, 9, 35, 110
1, 87359, Note_on_c, 9, 35, 0
1, 87360, Note_on_c, 9, 42, 110
1, 87360, Note_on_c, 9, 35, 110
1, 87369, Note_on_c, 9, 42, 0
1, 87599, Note_on_c, 9, 35, 0
1, 87600, Note_on_c, 9, 42, 110
1, 87600, Note_on_c, 9, 35, 110
1, 87609, Note_on_c, 9, 42, 0
1, 87839, Note_on_c, 9, 35, 0
1, 87840, Note_on_c, 9, 38, 110
1, 87840, Note_on_c, 9, 42, 110
1, 87849, Note_on_c, 9, 42, 0
1, 88079, Note_on_c, 9, 38, 0
1, 88080, Note_on_c, 9, 42, 110
1, 88089, Note_on_c, 9, 42, 0
1, 88200, Note_on_c, 9, 35, 110
1, 88319, Note_on_c, 9, 35, 0
1, 88320, Note_on_c, 9, 42, 110
1, 88320, Note_on_c, 9, 35, 110
1, 88329, Note_on_c, 9, 42, 0
1, 88560, Note_on_c, 9, 42, 110
1, 88569, Note_on_c, 9, 42, 0
1, 88799, Note_on_c, 9, 35, 0
1, 88800, Note_on_c, 9, 38, 110
1, 88800, Note_on_c, 9, 42, 110
1, 88809, Note_on_c, 9, 42, 0
1, 89039, Note_on_c, 9, 38, 0
1, 89040, Note_on_c, 9, 42, 110
1, 89049, Note_on_c, 9, 42, 0
1, 89160, Note_on_c, 9, 35, 110
1, 89279, Note_on_c, 9, 35, 0
1, 89280, Note_on_c, 9, 42, 110
1, 89280, Note_on_c, 9, 35, 110
1, 89289, Note_on_c, 9, 42, 0
1, 89519, Note_on_c, 9, 35, 0
1, 89520, Note_on_c, 9, 42, 110
1, 89520, Note_on_c, 9, 35, 110
1, 89529, Note_on_c, 9, 42, 0
1, 89759, Note_on_c, 9, 35, 0
1, 89760, Note_on_c, 9, 38, 110
1, 89760, Note_on_c, 9, 42, 110
1, 89769, Note_on_c, 9, 42, 0
1, 89999, Note_on_c, 9, 38, 0
1, 90000, Note_on_c, 9, 42, 110
1, 90009, Note_on_c, 9, 42, 0
1, 90120, Note_on_c, 9, 35, 110
1, 90239, Note_on_c, 9, 35, 0
1, 90240, Note_on_c, 9, 42, 110
1, 90240, Note_on_c, 9, 35, 110
1, 90249, Note_on_c, 9, 42, 0
1, 90480, Note_on_c, 9, 42, 110
1, 90489, Note_on_c, 9, 42, 0
1, 90719, Note_on_c, 9, 35, 0
1, 90720, Note_on_c, 9, 38, 110
1, 90720, Note_on_c, 9, 42, 110
1, 90729, Note_on_c, 9, 42, 0
1, 90959, Note_on_c, 9, 38, 0
1, 90960, Note_on_c, 9, 42, 110
1, 90969, Note_on_c, 9, 42, 0
1, 91080, Note_on_c, 9, 35, 110
1, 91199, Note_on_c, 9, 35, 0
1, 91200, Note_on_c, 9, 42, 110
1, 91200, Note_on_c, 9, 35, 110
1, 91209, Note_on_c, 9, 42, 0
1, 91439, Note_on_c, 9, 35, 0
1, 91440, Note_on_c, 9, 42, 110
1, 91440, Note_on_c, 9, 35, 110
1, 91449, Note_on_c, 9, 42, 0
1, 91679, Note_on_c, 9, 35, 0
1, 91680, Note_on_c, 9, 38, 110
1, 91680, Note_on_c, 9, 42, 110
1, 91689, Note_on_c, 9, 42, 0
1, 91919, Note_on_c, 9, 38, 0
1, 91920, Note_on_c, 9, 42, 110
1, 91929, Note_on_c, 9, 42, 0
1, 92040, Note_on_c, 9, 35, 110
1, 92159, Note_on_c, 9, 35, 0
1, 92160, Note_on_c, 9, 42, 110
1, 92160, Note_on_c, 9, 35, 110
1, 92169, Note_on_c, 9, 42, 0
1, 92400, Note_on_c, 9, 42, 110
1, 92409, Note_on_c, 9, 42, 0
1, 92639, Note_on_c, 9, 35, 0
1, 92640, Note_on_c, 9, 38, 110
1, 92640, Note_on_c, 9, 42, 110
1, 92649, Note_on_c, 9, 42, 0
1, 92879, Note_on_c, 9, 38, 0
1, 92880, Note_on_c, 9, 42, 110
1, 92889, Note_on_c, 9, 42, 0
1, 93000, Note_on_c, 9, 35, 110
1, 93119, Note_on_c, 9, 35, 0
1, 93120, Note_on_c, 9, 38, 110
1, 93239, Note_on_c, 9, 38, 0
1, 93240, Note_on_c, 9, 38, 110
1, 93359, Note_on_c, 9, 38, 0
1, 93360, Note_on_c, 9, 38, 110
1, 93479, Note_on_c, 9, 38, 0
1, 93480, Note_on_c, 9, 38, 110
1, 93599, Note_on_c, 9, 38, 0
1, 93600, Note_on_c, 9, 35, 110
1, 93719, Note_on_c, 9, 35, 0
1, 93720, Note_on_c, 9, 35, 110
1, 93839, Note_on_c, 9, 35, 0
1, 93840, Note_on_c, 9, 35, 110
1, 93959, Note_on_c, 9, 35, 0
1, 93960, Note_on_c, 9, 35, 110
1, 94079, Note_on_c, 9, 35, 0
1, 94080, Note_on_c, 9, 46, 110
1, 94080, Note_on_c, 9, 55, 110
1, 94080, Note_on_c, 9, 36, 110
1, 94089, Note_on_c, 9, 46, 0
1, 94089, Note_on_c, 9, 55, 0
1, 94320, Note_on_c, 9, 46, 110
1, 94329, Note_on_c, 9, 46, 0
1, 94559, Note_on_c, 9, 36, 0
1, 94560, Note_on_c, 9, 38, 110
1, 94560, Note_on_c, 9, 46, 110
1, 94569, Note_on_c, 9, 46, 0
1, 94799, Note_on_c, 9, 38, 0
1, 94800, Note_on_c, 9, 46, 110
1, 94809, Note_on_c, 9, 46, 0
1, 95040, Note_on_c, 9, 46, 110
1, 95040, Note_on_c, 9, 36, 110
1, 95049, Note_on_c, 9, 46, 0
1, 95279, Note_on_c, 9, 36, 0
1, 95280, Note_on_c, 9, 46, 110
1, 95280, Note_on_c, 9, 36, 110
1, 95289, Note_on_c, 9, 46, 0
1, 95519, Note_on_c, 9, 36, 0
1, 95520, Note_on_c, 9, 41, 110
1, 95520, Note_on_c, 9, 38, 110
1, 95520, Note_on_c, 9, 46, 110
1, 95524, Note_on_c, 9, 46, 0
1, 95639, Note_on_c, 9, 41, 0
1, 95639, Note_on_c, 9, 38, 0
1, 95640, Note_on_c, 9, 41, 110
1, 95759, Note_on_c, 9, 41, 0
1, 95760, Note_on_c, 9, 41, 110
1, 95760, Note_on_c, 9, 46, 110
1, 95764, Note_on_c, 9, 46, 0
1, 95879, Note_on_c, 9, 41, 0
1, 95880, Note_on_c, 9, 41, 110
1, 95999, Note_on_c, 9, 41, 0
1, 96000, Note_on_c, 9, 46, 110
1, 96000, Note_on_c, 9, 36, 110
1, 96009, Note_on_c, 9, 46, 0
1, 96240, Note_on_c, 9, 46, 110
1, 96249, Note_on_c, 9, 46, 0
1, 96479, Note_on_c, 9, 36, 0
1, 96480, Note_on_c, 9, 38, 110
1, 96480, Note_on_c, 9, 46, 110
1, 96489, Note_on_c, 9, 46, 0
1, 96719, Note_on_c, 9, 38, 0
1, 96720, Note_on_c, 9, 46, 110
1, 96729, Note_on_c, 9, 46, 0
1, 96960, Note_on_c, 9, 46, 110
1, 96960, Note_on_c, 9, 36, 110
1, 96969, Note_on_c, 9, 46, 0
1, 97199, Note_on_c, 9, 36, 0
1, 97200, Note_on_c, 9, 46, 110
1, 97200, Note_on_c, 9, 36, 110
1, 97209, Note_on_c, 9, 46, 0
1, 97439, Note_on_c, 9, 36, 0
1, 97440, Note_on_c, 9, 41, 110
1, 97440, Note_on_c, 9, 38, 110
1, 97440, Note_on_c, 9, 46, 110
1, 97444, Note_on_c, 9, 46, 0
1, 97559, Note_on_c, 9, 41, 0
1, 97559, Note_on_c, 9, 38, 0
1, 97560, Note_on_c, 9, 41, 110
1, 97679, Note_on_c, 9, 41, 0
1, 97680, Note_on_c, 9, 41, 110
1, 97680, Note_on_c, 9, 46, 110
1, 97684, Note_on_c, 9, 46, 0
1, 97799, Note_on_c, 9, 41, 0
1, 97800, Note_on_c, 9, 41, 110
1, 97919, Note_on_c, 9, 41, 0
1, 97920, Note_on_c, 9, 46, 110
1, 97920, Note_on_c, 9, 36, 110
1, 97929, Note_on_c, 9, 46, 0
1, 98160, Note_on_c, 9, 46, 110
1, 98169, Note_on_c, 9, 46, 0
1, 98399, Note_on_c, 9, 36, 0
1, 98400, Note_on_c, 9, 38, 110
1, 98400, Note_on_c, 9, 46, 110
1, 98409, Note_on_c, 9, 46, 0
1, 98639, Note_on_c, 9, 38, 0
1, 98640, Note_on_c, 9, 46, 110
1, 98649, Note_on_c, 9, 46, 0
1, 98880, Note_on_c, 9, 46, 110
1, 98880, Note_on_c, 9, 36, 110
1, 98889, Note_on_c, 9, 46, 0
1, 99119, Note_on_c, 9, 36, 0
1, 99120, Note_on_c, 9, 46, 110
1, 99120, Note_on_c, 9, 36, 110
1, 99129, Note_on_c, 9, 46, 0
1, 99359, Note_on_c, 9, 36, 0
1, 99360, Note_on_c, 9, 41, 110
1, 99360, Note_on_c, 9, 38, 110
1, 99360, Note_on_c, 9, 46, 110
1, 99364, Note_on_c, 9, 46, 0
1, 99479, Note_on_c, 9, 41, 0
1, 99479, Note_on_c, 9, 38, 0
1, 99480, Note_on_c, 9, 41, 110
1, 99599, Note_on_c, 9, 41, 0
1, 99600, Note_on_c, 9, 41, 110
1, 99600, Note_on_c, 9, 46, 110
1, 99604, Note_on_c, 9, 46, 0
1, 99719, Note_on_c, 9, 41, 0
1, 99720, Note_on_c, 9, 41, 110
1, 99839, Note_on_c, 9, 41, 0
1, 99840, Note_on_c, 9, 46, 110
1, 99840, Note_on_c, 9, 36, 110
1, 99849, Note_on_c, 9, 46, 0
1, 100080, Note_on_c, 9, 46, 110
1, 100089, Note_on_c, 9, 46, 0
1, 100319, Note_on_c, 9, 36, 0
1, 100320, Note_on_c, 9, 38, 110
1, 100320, Note_on_c, 9, 46, 110
1, 100329, Note_on_c, 9, 46, 0
1, 100559, Note_on_c, 9, 38, 0
1, 100560, Note_on_c, 9, 46, 110
1, 100569, Note_on_c, 9, 46, 0
1, 100800, Note_on_c, 9, 46, 110
1, 100800, Note_on_c, 9, 36, 110
1, 100809, Note_on_c, 9, 46, 0
1, 101039, Note_on_c, 9, 36, 0
1, 101040, Note_on_c, 9, 46, 110
1, 101040, Note_on_c, 9, 36, 110
1, 101049, Note_on_c, 9, 46, 0
1, 101279, Note_on_c, 9, 36, 0
1, 101280, Note_on_c, 9, 41, 110
1, 101280, Note_on_c, 9, 38, 110
1, 101280, Note_on_c, 9, 46, 110
1, 101284, Note_on_c, 9, 46, 0
1, 101399, Note_on_c, 9, 41, 0
1, 101399, Note_on_c, 9, 38, 0
1, 101400, Note_on_c, 9, 41, 110
1, 101519, Note_on_c, 9, 41, 0
1, 101520, Note_on_c, 9, 41, 110
1, 101520, Note_on_c, 9, 46, 110
1, 101524, Note_on_c, 9, 46, 0
1, 101639, Note_on_c, 9, 41, 0
1, 101640, Note_on_c, 9, 41, 110
1, 101759, Note_on_c, 9, 41, 0
1, 101760, Note_on_c, 9, 46, 110
1, 101760, Note_on_c, 9, 55, 110
1, 101760, Note_on_c, 9, 36, 110
1, 101769, Note_on_c, 9, 46, 0
1, 101769, Note_on_c, 9, 55, 0
1, 102000, Note_on_c, 9, 46, 110
1, 102009, Note_on_c, 9, 46, 0
1, 102239, Note_on_c, 9, 36, 0
1, 102240, Note_on_c, 9, 38, 110
1, 102240, Note_on_c, 9, 46, 110
1, 102249, Note_on_c, 9, 46, 0
1, 102479, Note_on_c, 9, 38, 0
1, 102480, Note_on_c, 9, 46, 110
1, 102489, Note_on_c, 9, 46, 0
1, 102720, Note_on_c, 9, 46, 110
1, 102720, Note_on_c, 9, 36, 110
1, 102729, Note_on_c, 9, 46, 0
1, 102959, Note_on_c, 9, 36, 0
1, 102960, Note_on_c, 9, 46, 110
1, 102960, Note_on_c, 9, 36, 110
1, 102969, Note_on_c, 9, 46, 0
1, 103199, Note_on_c, 9, 36, 0
1, 103200, Note_on_c, 9, 41, 110
1, 103200, Note_on_c, 9, 38, 110
1, 103200, Note_on_c, 9, 46, 110
1, 103204, Note_on_c, 9, 46, 0
1, 103319, Note_on_c, 9, 41, 0
1, 103319, Note_on_c, 9, 38, 0
1, 103320, Note_on_c, 9, 41, 110
1, 103439, Note_on_c, 9, 41, 0
1, 103440, Note_on_c, 9, 41, 110
1, 103440, Note_on_c, 9, 46, 110
1, 103444, Note_on_c, 9, 46, 0
1, 103559, Note_on_c, 9, 41, 0
1, 103560, Note_on_c, 9, 41, 110
1, 103679, Note_on_c, 9, 41, 0
1, 103680, Note_on_c, 9, 46, 110
1, 103680, Note_on_c, 9, 36, 110
1, 103689, Note_on_c, 9, 46, 0
1, 103920, Note_on_c, 9, 46, 110
1, 103929, Note_on_c, 9, 46, 0
1, 104159, Note_on_c, 9, 36, 0
1, 104160, Note_on_c, 9, 38, 110
1, 104160, Note_on_c, 9, 46, 110
1, 104169, Note_on_c, 9, 46, 0
1, 104399, Note_on_c, 9, 38, 0
1, 104400, Note_on_c, 9, 46, 110
1, 104409, Note_on_c, 9, 46, 0
1, 104640, Note_on_c, 9, 46, 110
1, 104640, Note_on_c, 9, 36, 110
1, 104649, Note_on_c, 9, 46, 0
1, 104879, Note_on_c, 9, 36, 0
1, 104880, Note_on_c, 9, 46, 110
1, 104880, Note_on_c, 9, 36, 110
1, 104889, Note_on_c, 9, 46, 0
1, 105119, Note_on_c, 9, 36, 0
1, 105120, Note_on_c, 9, 41, 110
1, 105120, Note_on_c, 9, 38, 110
1, 105120, Note_on_c, 9, 46, 110
1, 105124, Note_on_c, 9, 46, 0
1, 105239, Note_on_c, 9, 41, 0
1, 105239, Note_on_c, 9, 38, 0
1, 105240, Note_on_c, 9, 41, 110
1, 105359, Note_on_c, 9, 41, 0
1, 105360, Note_on_c, 9, 41, 110
1, 105360, Note_on_c, 9, 46, 110
1, 105364, Note_on_c, 9, 46, 0
1, 105479, Note_on_c, 9, 41, 0
1, 105480, Note_on_c, 9, 41, 110
1, 105599, Note_on_c, 9, 41, 0
1, 105600, Note_on_c, 9, 46, 110
1, 105600, Note_on_c, 9, 36, 110
1, 105609, Note_on_c, 9, 46, 0
1, 105840, Note_on_c, 9, 46, 110
1, 105849, Note_on_c, 9, 46, 0
1, 106079, Note_on_c, 9, 36, 0
1, 106080, Note_on_c, 9, 38, 110
1, 106080, Note_on_c, 9, 46, 110
1, 106089, Note_on_c, 9, 46, 0
1, 106319, Note_on_c, 9, 38, 0
1, 106320, Note_on_c, 9, 46, 110
1, 106329, Note_on_c, 9, 46, 0
1, 106560, Note_on_c, 9, 46, 110
1, 106560, Note_on_c, 9, 36, 110
1, 106569, Note_on_c, 9, 46, 0
1, 106799, Note_on_c, 9, 36, 0
1, 106800, Note_on_c, 9, 46, 110
1, 106800, Note_on_c, 9, 36, 110
1, 106809, Note_on_c, 9, 46, 0
1, 107039, Note_on_c, 9, 36, 0
1, 107040, Note_on_c, 9, 38, 110
1, 107040, Note_on_c, 9, 46, 110
1, 107049, Note_on_c, 9, 46, 0
1, 107279, Note_on_c, 9, 38, 0
1, 107280, Note_on_c, 9, 46, 110
1, 107289, Note_on_c, 9, 46, 0
1, 107520, Note_on_c, 9, 42, 110
1, 107520, Note_on_c, 9, 35, 110
1, 107529, Note_on_c, 9, 42, 0
1, 107760, Note_on_c, 9, 42, 110
1, 107769, Note_on_c, 9, 42, 0
1, 107999, Note_on_c, 9, 35, 0
1, 108000, Note_on_c, 9, 38, 110
1, 108000, Note_on_c, 9, 42, 110
1, 108009, Note_on_c, 9, 42, 0
1, 108239, Note_on_c, 9, 38, 0
1, 108240, Note_on_c, 9, 42, 110
1, 108249, Note_on_c, 9, 42, 0
1, 108360, Note_on_c, 9, 35, 110
1, 108479, Note_on_c, 9, 35, 0
1, 108480, Note_on_c, 9, 42, 110
1, 108480, Note_on_c, 9, 35, 110
1, 108489, Note_on_c, 9, 42, 0
1, 108719, Note_on_c, 9, 35, 0
1, 108720, Note_on_c, 9, 42, 110
1, 108720, Note_on_c, 9, 35, 110
1, 108729, Note_on_c, 9, 42, 0
1, 108959, Note_on_c, 9, 35, 0
1, 108960, Note_on_c, 9, 38, 110
1, 108960, Note_on_c, 9, 42, 110
1, 108969, Note_on_c, 9, 42, 0
1, 109199, Note_on_c, 9, 38, 0
1, 109200, Note_on_c, 9, 42, 110
1, 109209, Note_on_c, 9, 42, 0
1, 109320, Note_on_c, 9, 35, 110
1, 109439, Note_on_c, 9, 35, 0
1, 109440, Note_on_c, 9, 42, 110
1, 109440, Note_on_c, 9, 35, 110
1, 109449, Note_on_c, 9, 42, 0
1, 109680, Note_on_c, 9, 42, 110
1, 109689, Note_on_c, 9, 42, 0
1, 109919, Note_on_c, 9, 35, 0
1, 109920, Note_on_c, 9, 38, 110
1, 109920, Note_on_c, 9, 42, 110
1, 109929, Note_on_c, 9, 42, 0
1, 110159, Note_on_c, 9, 38, 0
1, 110160, Note_on_c, 9, 42, 110
1, 110169, Note_on_c, 9, 42, 0
1, 110280, Note_on_c, 9, 35, 110
1, 110399, Note_on_c, 9, 35, 0
1, 110400, Note_on_c, 9, 42, 110
1, 110400, Note_on_c, 9, 35, 110
1, 110409, Note_on_c, 9, 42, 0
1, 110639, Note_on_c, 9, 35, 0
1, 110640, Note_on_c, 9, 42, 110
1, 110640, Note_on_c, 9, 35, 110
1, 110649, Note_on_c, 9, 42, 0
1, 110879, Note_on_c, 9, 35, 0
1, 110880, Note_on_c, 9, 38, 110
1, 110880, Note_on_c, 9, 42, 110
1, 110889, Note_on_c, 9, 42, 0
1, 111119, Note_on_c, 9, 38, 0
1, 111120, Note_on_c, 9, 42, 110
1, 111129, Note_on_c, 9, 42, 0
1, 111240, Note_on_c, 9, 35, 110
1, 111359, Note_on_c, 9, 35, 0
1, 111360, Note_on_c, 9, 42, 110
1, 111360, Note_on_c, 9, 35, 110
1, 111369, Note_on_c, 9, 42, 0
1, 111600, Note_on_c, 9, 42, 110
1, 111609, Note_on_c, 9, 42, 0
1, 111839, Note_on_c, 9, 35, 0
1, 111840, Note_on_c, 9, 38, 110
1, 111840, Note_on_c, 9, 42, 110
1, 111849, Note_on_c, 9, 42, 0
1, 112079, Note_on_c, 9, 38, 0
1, 112080, Note_on_c, 9, 42, 110
1, 112089, Note_on_c, 9, 42, 0
1, 112200, Note_on_c, 9, 35, 110
1, 112319, Note_on_c, 9, 35, 0
1, 112320, Note_on_c, 9, 42, 110
1, 112320, Note_on_c, 9, 35, 110
1, 112329, Note_on_c, 9, 42, 0
1, 112559, Note_on_c, 9, 35, 0
1, 112560, Note_on_c, 9, 42, 110
1, 112560, Note_on_c, 9, 35, 110
1, 112569, Note_on_c, 9, 42, 0
1, 112799, Note_on_c, 9, 35, 0
1, 112800, Note_on_c, 9, 38, 110
1, 112800, Note_on_c, 9, 42, 110
1, 112809, Note_on_c, 9, 42, 0
1, 113039, Note_on_c, 9, 38, 0
1, 113040, Note_on_c, 9, 42, 110
1, 113049, Note_on_c, 9, 42, 0
1, 113160, Note_on_c, 9, 35, 110
1, 113279, Note_on_c, 9, 35, 0
1, 113280, Note_on_c, 9, 42, 110
1, 113280, Note_on_c, 9, 35, 110
1, 113289, Note_on_c, 9, 42, 0
1, 113520, Note_on_c, 9, 42, 110
1, 113529, Note_on_c, 9, 42, 0
1, 113759, Note_on_c, 9, 35, 0
1, 113760, Note_on_c, 9, 38, 110
1, 113760, Note_on_c, 9, 42, 110
1, 113769, Note_on_c, 9, 42, 0
1, 113999, Note_on_c, 9, 38, 0
1, 114000, Note_on_c, 9, 42, 110
1, 114009, Note_on_c, 9, 42, 0
1, 114120, Note_on_c, 9, 35, 110
1, 114239, Note_on_c, 9, 35, 0
1, 114240, Note_on_c, 9, 42, 110
1, 114240, Note_on_c, 9, 35, 110
1, 114249, Note_on_c, 9, 42, 0
1, 114479, Note_on_c, 9, 35, 0
1, 114480, Note_on_c, 9, 42, 110
1, 114480, Note_on_c, 9, 35, 110
1, 114489, Note_on_c, 9, 42, 0
1, 114719, Note_on_c, 9, 35, 0
1, 114720, Note_on_c, 9, 38, 110
1, 114720, Note_on_c, 9, 42, 110
1, 114729, Note_on_c, 9, 42, 0
1, 114959, Note_on_c, 9, 38, 0
1, 114960, Note_on_c, 9, 42, 110
1, 114969, Note_on_c, 9, 42, 0
1, 115080, Note_on_c, 9, 35, 110
1, 115199, Note_on_c, 9, 35, 0
1, 115200, Note_on_c, 9, 42, 110
1, 115200, Note_on_c, 9, 35, 110
1, 115209, Note_on_c, 9, 42, 0
1, 115440, Note_on_c, 9, 42, 110
1, 115449, Note_on_c, 9, 42, 0
1, 115679, Note_on_c, 9, 35, 0
1, 115680, Note_on_c, 9, 38, 110
1, 115680, Note_on_c, 9, 42, 110
1, 115689, Note_on_c, 9, 42, 0
1, 115919, Note_on_c, 9, 38, 0
1, 115920, Note_on_c, 9, 42, 110
1, 115929, Note_on_c, 9, 42, 0
1, 116040, Note_on_c, 9, 35, 110
1, 116159, Note_on_c, 9, 35, 0
1, 116160, Note_on_c, 9, 42, 110
1, 116160, Note_on_c, 9, 35, 110
1, 116169, Note_on_c, 9, 42, 0
1, 116399, Note_on_c, 9, 35, 0
1, 116400, Note_on_c, 9, 42, 110
1, 116400, Note_on_c, 9, 35, 110
1, 116409, Note_on_c, 9, 42, 0
1, 116639, Note_on_c, 9, 35, 0
1, 116640, Note_on_c, 9, 38, 110
1, 116640, Note_on_c, 9, 42, 110
1, 116649, Note_on_c, 9, 42, 0
1, 116879, Note_on_c, 9, 38, 0
1, 116880, Note_on_c, 9, 42, 110
1, 116889, Note_on_c, 9, 42, 0
1, 117000, Note_on_c, 9, 35, 110
1, 117119, Note_on_c, 9, 35, 0
1, 117120, Note_on_c, 9, 42, 110
1, 117120, Note_on_c, 9, 35, 110
1, 117129, Note_on_c, 9, 42, 0
1, 117360, Note_on_c, 9, 42, 110
1, 117369, Note_on_c, 9, 42, 0
1, 117599, Note_on_c, 9, 35, 0
1, 117600, Note_on_c, 9, 38, 110
1, 117600, Note_on_c, 9, 42, 110
1, 117609, Note_on_c, 9, 42, 0
1, 117839, Note_on_c, 9, 38, 0
1, 117840, Note_on_c, 9, 42, 110
1, 117849, Note_on_c, 9, 42, 0
1, 117960, Note_on_c, 9, 35, 110
1, 118079, Note_on_c, 9, 35, 0
1, 118080, Note_on_c, 9, 42, 110
1, 118080, Note_on_c, 9, 35, 110
1, 118089, Note_on_c, 9, 42, 0
1, 118319, Note_on_c, 9, 35, 0
1, 118320, Note_on_c, 9, 42, 110
1, 118320, Note_on_c, 9, 35, 110
1, 118329, Note_on_c, 9, 42, 0
1, 118559, Note_on_c, 9, 35, 0
1, 118560, Note_on_c, 9, 38, 110
1, 118560, Note_on_c, 9, 42, 110
1, 118569, Note_on_c, 9, 42, 0
1, 118799, Note_on_c, 9, 38, 0
1, 118800, Note_on_c, 9, 42, 110
1, 118809, Note_on_c, 9, 42, 0
1, 118920, Note_on_c, 9, 35, 110
1, 119039, Note_on_c, 9, 35, 0
1, 119040, Note_on_c, 9, 42, 110
1, 119040, Note_on_c, 9, 35, 110
1, 119049, Note_on_c, 9, 42, 0
1, 119280, Note_on_c, 9, 42, 110
1, 119289, Note_on_c, 9, 42, 0
1, 119519, Note_on_c, 9, 35, 0
1, 119520, Note_on_c, 9, 38, 110
1, 119520, Note_on_c, 9, 42, 110
1, 119529, Note_on_c, 9, 42, 0
1, 119759, Note_on_c, 9, 38, 0
1, 119760, Note_on_c, 9, 42, 110
1, 119769, Note_on_c, 9, 42, 0
1, 119880, Note_on_c, 9, 35, 110
1, 119999, Note_on_c, 9, 35, 0
1, 120000, Note_on_c, 9, 42, 110
1, 120000, Note_on_c, 9, 35, 110
1, 120009, Note_on_c, 9, 42, 0
1, 120239, Note_on_c, 9, 35, 0
1, 120240, Note_on_c, 9, 42, 110
1, 120240, Note_on_c, 9, 35, 110
1, 120249, Note_on_c, 9, 42, 0
1, 120479, Note_on_c, 9, 35, 0
1, 120480, Note_on_c, 9, 38, 110
1, 120480, Note_on_c, 9, 42, 110
1, 120489, Note_on_c, 9, 42, 0
1, 120719, Note_on_c, 9, 38, 0
1, 120720, Note_on_c, 9, 46, 110
1, 120729, Note_on_c, 9, 46, 0
1, 120960, Note_on_c, 9, 35, 110
1, 121319, Note_on_c, 9, 35, 0
1, 121320, Note_on_c, 9, 35, 110
1, 121439, Note_on_c, 9, 35, 0
1, 121440, Note_on_c, 9, 35, 110
1, 121799, Note_on_c, 9, 35, 0
1, 121800, Note_on_c, 9, 35, 110
1, 121919, Note_on_c, 9, 35, 0
1, 121920, Note_on_c, 9, 35, 110
1, 122279, Note_on_c, 9, 35, 0
1, 122280, Note_on_c, 9, 35, 110
1, 122399, Note_on_c, 9, 35, 0
1, 122400, Note_on_c, 9, 35, 110
1, 122519, Note_on_c, 9, 35, 0
1, 122520, Note_on_c, 9, 35, 110
1, 122759, Note_on_c, 9, 35, 0
1, 122760, Note_on_c, 9, 35, 110
1, 122879, Note_on_c, 9, 35, 0
1, 122880, Note_on_c, 9, 42, 110
1, 122880, Note_on_c, 9, 35, 110
1, 122889, Note_on_c, 9, 42, 0
1, 123120, Note_on_c, 9, 42, 110
1, 123129, Note_on_c, 9, 42, 0
1, 123359, Note_on_c, 9, 35, 0
1, 123360, Note_on_c, 9, 38, 110
1, 123360, Note_on_c, 9, 42, 110
1, 123369, Note_on_c, 9, 42, 0
1, 123599, Note_on_c, 9, 38, 0
1, 123600, Note_on_c, 9, 42, 110
1, 123609, Note_on_c, 9, 42, 0
1, 123720, Note_on_c, 9, 35, 110
1, 123839, Note_on_c, 9, 35, 0
1, 123840, Note_on_c, 9, 42, 110
1, 123840, Note_on_c, 9, 35, 110
1, 123849, Note_on_c, 9, 42, 0
1, 124079, Note_on_c, 9, 35, 0
1, 124080, Note_on_c, 9, 42, 110
1, 124080, Note_on_c, 9, 35, 110
1, 124089, Note_on_c, 9, 42, 0
1, 124319, Note_on_c, 9, 35, 0
1, 124320, Note_on_c, 9, 38, 110
1, 124320, Note_on_c, 9, 42, 110
1, 124329, Note_on_c, 9, 42, 0
1, 124559, Note_on_c, 9, 38, 0
1, 124560, Note_on_c, 9, 42, 110
1, 124569, Note_on_c, 9, 42, 0
1, 124680, Note_on_c, 9, 35, 110
1, 124799, Note_on_c, 9, 35, 0
1, 124800, Note_on_c, 9, 42, 110
1, 124800, Note_on_c, 9, 35, 110
1, 124809, Note_on_c, 9, 42, 0
1, 125040, Note_on_c, 9, 42, 110
1, 125049, Note_on_c, 9, 42, 0
1, 125279, Note_on_c, 9, 35, 0
1, 125280, Note_on_c, 9, 38, 110
1, 125280, Note_on_c, 9, 42, 110
1, 125289, Note_on_c, 9, 42, 0
1, 125519, Note_on_c, 9, 38, 0
1, 125520, Note_on_c, 9, 42, 110
1, 125529, Note_on_c, 9, 42, 0
1, 125640, Note_on_c, 9, 35, 110
1, 125759, Note_on_c, 9, 35, 0
1, 125760, Note_on_c, 9, 42, 110
1, 125760, Note_on_c, 9, 35, 110
1, 125769, Note_on_c, 9, 42, 0
1, 125999, Note_on_c, 9, 35, 0
1, 126000, Note_on_c, 9, 42, 110
1, 126000, Note_on_c, 9, 35, 110
1, 126009, Note_on_c, 9, 42, 0
1, 126239, Note_on_c, 9, 35, 0
1, 126240, Note_on_c, 9, 38, 110
1, 126240, Note_on_c, 9, 42, 110
1, 126249, Note_on_c, 9, 42, 0
1, 126479, Note_on_c, 9, 38, 0
1, 126480, Note_on_c, 9, 42, 110
1, 126489, Note_on_c, 9, 42, 0
1, 126600, Note_on_c, 9, 35, 110
1, 126719, Note_on_c, 9, 35, 0
1, 126720, Note_on_c, 9, 42, 110
1, 126720, Note_on_c, 9, 35, 110
1, 126729, Note_on_c, 9, 42, 0
1, 126960, Note_on_c, 9, 42, 110
1, 126969, Note_on_c, 9, 42, 0
1, 127199, Note_on_c, 9, 35, 0
1, 127200, Note_on_c, 9, 38, 110
1, 127200, Note_on_c, 9, 42, 110
1, 127209, Note_on_c, 9, 42, 0
1, 127439, Note_on_c, 9, 38, 0
1, 127440, Note_on_c, 9, 42, 110
1, 127449, Note_on_c, 9, 42, 0
1, 127560, Note_on_c, 9, 35, 110
1, 127679, Note_on_c, 9, 35, 0
1, 127680, Note_on_c, 9, 42, 110
1, 127680, Note_on_c, 9, 35, 110
1, 127689, Note_on_c, 9, 42, 0
1, 127919, Note_on_c, 9, 35, 0
1, 127920, Note_on_c, 9, 42, 110
1, 127920, Note_on_c, 9, 35, 110
1, 127929, Note_on_c, 9, 42, 0
1, 128159, Note_on_c, 9, 35, 0
1, 128160, Note_on_c, 9, 38, 110
1, 128160, Note_on_c, 9, 42, 110
1, 128169, Note_on_c, 9, 42, 0
1, 128399, Note_on_c, 9, 38, 0
1, 128400, Note_on_c, 9, 42, 110
1, 128409, Note_on_c, 9, 42, 0
1, 128520, Note_on_c, 9, 35, 110
1, 128639, Note_on_c, 9, 35, 0
1, 128640, Note_on_c, 9, 42, 110
1, 128640, Note_on_c, 9, 35, 110
1, 128649, Note_on_c, 9, 42, 0
1, 128880, Note_on_c, 9, 42, 110
1, 128889, Note_on_c, 9, 42, 0
1, 129119, Note_on_c, 9, 35, 0
1, 129120, Note_on_c, 9, 38, 110
1, 129120, Note_on_c, 9, 42, 110
1, 129129, Note_on_c, 9, 42, 0
1, 129359, Note_on_c, 9, 38, 0
1, 129360, Note_on_c, 9, 42, 110
1, 129369, Note_on_c, 9, 42, 0
1, 129480, Note_on_c, 9, 35, 110
1, 129599, Note_on_c, 9, 35, 0
1, 129600, Note_on_c, 9, 42, 110
1, 129600, Note_on_c, 9, 35, 110
1, 129609, Note_on_c, 9, 42, 0
1, 129839, Note_on_c, 9, 35, 0
1, 129840, Note_on_c, 9, 42, 110
1, 129840, Note_on_c, 9, 35, 110
1, 129849, Note_on_c, 9, 42, 0
1, 130079, Note_on_c, 9, 35, 0
1, 130080, Note_on_c, 9, 38, 110
1, 130080, Note_on_c, 9, 42, 110
1, 130089, Note_on_c, 9, 42, 0
1, 130319, Note_on_c, 9, 38, 0
1, 130320, Note_on_c, 9, 42, 110
1, 130329, Note_on_c, 9, 42, 0
1, 130440, Note_on_c, 9, 35, 110
1, 130559, Note_on_c, 9, 35, 0
1, 130560, Note_on_c, 9, 42, 110
1, 130560, Note_on_c, 9, 35, 110
1, 130569, Note_on_c, 9, 42, 0
1, 130800, Note_on_c, 9, 42, 110
1, 130809, Note_on_c, 9, 42, 0
1, 131039, Note_on_c, 9, 35, 0
1, 131040, Note_on_c, 9, 38, 110
1, 131040, Note_on_c, 9, 42, 110
1, 131049, Note_on_c, 9, 42, 0
1, 131279, Note_on_c, 9, 38, 0
1, 131280, Note_on_c, 9, 42, 110
1, 131289, Note_on_c, 9, 42, 0
1, 131400, Note_on_c, 9, 35, 110
1, 131519, Note_on_c, 9, 35, 0
1, 131520, Note_on_c, 9, 42, 110
1, 131520, Note_on_c, 9, 35, 110
1, 131529, Note_on_c, 9, 42, 0
1, 131759, Note_on_c, 9, 35, 0
1, 131760, Note_on_c, 9, 42, 110
1, 131760, Note_on_c, 9, 35, 110
1, 131769, Note_on_c, 9, 42, 0
1, 131999, Note_on_c, 9, 35, 0
1, 132000, Note_on_c, 9, 38, 110
1, 132000, Note_on_c, 9, 42, 110
1, 132009, Note_on_c, 9, 42, 0
1, 132239, Note_on_c, 9, 38, 0
1, 132240, Note_on_c, 9, 46, 110
1, 132249, Note_on_c, 9, 46, 0
1, 132480, Note_on_c, 9, 42, 110
1, 132480, Note_on_c, 9, 35, 110
1, 132489, Note_on_c, 9, 42, 0
1, 132720, Note_on_c, 9, 42, 110
1, 132729, Note_on_c, 9, 42, 0
1, 132959, Note_on_c, 9, 35, 0
1, 132960, Note_on_c, 9, 38, 110
1, 132960, Note_on_c, 9, 42, 110
1, 132969, Note_on_c, 9, 42, 0
1, 133199, Note_on_c, 9, 38, 0
1, 133200, Note_on_c, 9, 42, 110
1, 133209, Note_on_c, 9, 42, 0
1, 133320, Note_on_c, 9, 35, 110
1, 133439, Note_on_c, 9, 35, 0
1, 133440, Note_on_c, 9, 42, 110
1, 133440, Note_on_c, 9, 35, 110
1, 133449, Note_on_c, 9, 42, 0
1, 133679, Note_on_c, 9, 35, 0
1, 133680, Note_on_c, 9, 42, 110
1, 133680, Note_on_c, 9, 35, 110
1, 133689, Note_on_c, 9, 42, 0
1, 133919, Note_on_c, 9, 35, 0
1, 133920, Note_on_c, 9, 38, 110
1, 133920, Note_on_c, 9, 42, 110
1, 133929, Note_on_c, 9, 42, 0
1, 134159, Note_on_c, 9, 38, 0
1, 134160, Note_on_c, 9, 42, 110
1, 134169, Note_on_c, 9, 42, 0
1, 134280, Note_on_c, 9, 35, 110
1, 134399, Note_on_c, 9, 35, 0
1, 134400, Note_on_c, 9, 42, 110
1, 134400, Note_on_c, 9, 35, 110
1, 134409, Note_on_c, 9, 42, 0
1, 134640, Note_on_c, 9, 42, 110
1, 134649, Note_on_c, 9, 42, 0
1, 134879, Note_on_c, 9, 35, 0
1, 134880, Note_on_c, 9, 38, 110
1, 134880, Note_on_c, 9, 42, 110
1, 134889, Note_on_c, 9, 42, 0
1, 135119, Note_on_c, 9, 38, 0
1, 135120, Note_on_c, 9, 42, 110
1, 135129, Note_on_c, 9, 42, 0
1, 135240, Note_on_c, 9, 35, 110
1, 135359, Note_on_c, 9, 35, 0
1, 135360, Note_on_c, 9, 42, 110
1, 135360, Note_on_c, 9, 35, 110
1, 135369, Note_on_c, 9, 42, 0
1, 135599, Note_on_c, 9, 35, 0
1, 135600, Note_on_c, 9, 42, 110
1, 135600, Note_on_c, 9, 35, 110
1, 135609, Note_on_c, 9, 42, 0
1, 135839, Note_on_c, 9, 35, 0
1, 135840, Note_on_c, 9, 38, 110
1, 135840, Note_on_c, 9, 42, 110
1, 135849, Note_on_c, 9, 42, 0
1, 136079, Note_on_c, 9, 38, 0
1, 136080, Note_on_c, 9, 42, 110
1, 136089, Note_on_c, 9, 42, 0
1, 136200, Note_on_c, 9, 35, 110
1, 136319, Note_on_c, 9, 35, 0
1, 136320, Note_on_c, 9, 42, 110
1, 136320, Note_on_c, 9, 35, 110
1, 136329, Note_on_c, 9, 42, 0
1, 136560, Note_on_c, 9, 42, 110
1, 136569, Note_on_c, 9, 42, 0
1, 136799, Note_on_c, 9, 35, 0
1, 136800, Note_on_c, 9, 38, 110
1, 136800, Note_on_c, 9, 42, 110
1, 136809, Note_on_c, 9, 42, 0
1, 137039, Note_on_c, 9, 38, 0
1, 137040, Note_on_c, 9, 42, 110
1, 137049, Note_on_c, 9, 42, 0
1, 137160, Note_on_c, 9, 35, 110
1, 137279, Note_on_c, 9, 35, 0
1, 137280, Note_on_c, 9, 42, 110
1, 137280, Note_on_c, 9, 35, 110
1, 137289, Note_on_c, 9, 42, 0
1, 137519, Note_on_c, 9, 35, 0
1, 137520, Note_on_c, 9, 42, 110
1, 137520, Note_on_c, 9, 35, 110
1, 137529, Note_on_c, 9, 42, 0
1, 137759, Note_on_c, 9, 35, 0
1, 137760, Note_on_c, 9, 38, 110
1, 137879, Note_on_c, 9, 38, 0
1, 137880, Note_on_c, 9, 38, 110
1, 137999, Note_on_c, 9, 38, 0
1, 138000, Note_on_c, 9, 38, 110
1, 138119, Note_on_c, 9, 38, 0
1, 138120, Note_on_c, 9, 38, 110
1, 138239, Note_on_c, 9, 38, 0
1, 138240, Note_on_c, 9, 46, 110
1, 138240, Note_on_c, 9, 55, 110
1, 138240, Note_on_c, 9, 36, 110
1, 138249, Note_on_c, 9, 46, 0
1, 138249, Note_on_c, 9, 55, 0
1, 138480, Note_on_c, 9, 46, 110
1, 138489, Note_on_c, 9, 46, 0
1, 138719, Note_on_c, 9, 36, 0
1, 138720, Note_on_c, 9, 38, 110
1, 138720, Note_on_c, 9, 46, 110
1, 138729, Note_on_c, 9, 46, 0
1, 138959, Note_on_c, 9, 38, 0
1, 138960, Note_on_c, 9, 46, 110
1, 138969, Note_on_c, 9, 46, 0
1, 139200, Note_on_c, 9, 46, 110
1, 139200, Note_on_c, 9, 36, 110
1, 139209, Note_on_c, 9, 46, 0
1, 139439, Note_on_c, 9, 36, 0
1, 139440, Note_on_c, 9, 46, 110
1, 139440, Note_on_c, 9, 36, 110
1, 139449, Note_on_c, 9, 46, 0
1, 139679, Note_on_c, 9, 36, 0
1, 139680, Note_on_c, 9, 41, 110
1, 139680, Note_on_c, 9, 38, 110
1, 139680, Note_on_c, 9, 46, 110
1, 139684, Note_on_c, 9, 46, 0
1, 139799, Note_on_c, 9, 41, 0
1, 139799, Note_on_c, 9, 38, 0
1, 139800, Note_on_c, 9, 41, 110
1, 139919, Note_on_c, 9, 41, 0
1, 139920, Note_on_c, 9, 41, 110
1, 139920, Note_on_c, 9, 46, 110
1, 139924, Note_on_c, 9, 46, 0
1, 140039, Note_on_c, 9, 41, 0
1, 140040, Note_on_c, 9, 41, 110
1, 140159, Note_on_c, 9, 41, 0
1, 140160, Note_on_c, 9, 46, 110
1, 140160, Note_on_c, 9, 36, 110
1, 140169, Note_on_c, 9, 46, 0
1, 140400, Note_on_c, 9, 46, 110
1, 140409, Note_on_c, 9, 46, 0
1, 140639, Note_on_c, 9, 36, 0
1, 140640, Note_on_c, 9, 38, 110
1, 140640, Note_on_c, 9, 46, 110
1, 140649, Note_on_c, 9, 46, 0
1, 140879, Note_on_c, 9, 38, 0
1, 140880, Note_on_c, 9, 46, 110
1, 140889, Note_on_c, 9, 46, 0
1, 141120, Note_on_c, 9, 46, 110
1, 141120, Note_on_c, 9, 36, 110
1, 141129, Note_on_c, 9, 46, 0
1, 141359, Note_on_c, 9, 36, 0
1, 141360, Note_on_c, 9, 46, 110
1, 141360, Note_on_c, 9, 36, 110
1, 141369, Note_on_c, 9, 46, 0
1, 141599, Note_on_c, 9, 36, 0
1, 141600, Note_on_c, 9, 41, 110
1, 141600, Note_on_c, 9, 38, 110
1, 141600, Note_on_c, 9, 46, 110
1, 141604, Note_on_c, 9, 46, 0
1, 141719, Note_on_c, 9, 41, 0
1, 141719, Note_on_c, 9, 38, 0
1, 141720, Note_on_c, 9, 41, 110
1, 141839, Note_on_c, 9, 41, 0
1, 141840, Note_on_c, 9, 41, 110
1, 141840, Note_on_c, 9, 46, 110
1, 141844, Note_on_c, 9, 46, 0
1, 141959, Note_on_c, 9, 41, 0
1, 141960, Note_on_c, 9, 41, 110
1, 142079, Note_on_c, 9, 41, 0
1, 142080, Note_on_c, 9, 46, 110
1, 142080, Note_on_c, 9, 36, 110
1, 142089, Note_on_c, 9, 46, 0
1, 142320, Note_on_c, 9, 46, 110
1, 142329, Note_on_c, 9, 46, 0
1, 142559, Note_on_c, 9, 36, 0
1, 142560, Note_on_c, 9, 38, 110
1, 142560, Note_on_c, 9, 46, 110
1, 142569, Note_on_c, 9, 46, 0
1, 142799, Note_on_c, 9, 38, 0
1, 142800, Note_on_c, 9, 46, 110
1, 142809, Note_on_c, 9, 46, 0
1, 143040, Note_on_c, 9, 46, 110
1, 143040, Note_on_c, 9, 36, 110
1, 143049, Note_on_c, 9, 46, 0
1, 143279, Note_on_c, 9, 36, 0
1, 143280, Note_on_c, 9, 46, 110
1, 143280, Note_on_c, 9, 36, 110
1, 143289, Note_on_c, 9, 46, 0
1, 143519, Note_on_c, 9, 36, 0
1, 143520, Note_on_c, 9, 41, 110
1, 143520, Note_on_c, 9, 38, 110
1, 143520, Note_on_c, 9, 46, 110
1, 143524, Note_on_c, 9, 46, 0
1, 143639, Note_on_c, 9, 41, 0
1, 143639, Note_on_c, 9, 38, 0
1, 143640, Note_on_c, 9, 41, 110
1, 143759, Note_on_c, 9, 41, 0
1, 143760, Note_on_c, 9, 41, 110
1, 143760, Note_on_c, 9, 46, 110
1, 143764, Note_on_c, 9, 46, 0
1, 143879, Note_on_c, 9, 41, 0
1, 143880, Note_on_c, 9, 41, 110
1, 143999, Note_on_c, 9, 41, 0
1, 144000, Note_on_c, 9, 46, 110
1, 144000, Note_on_c, 9, 36, 110
1, 144009, Note_on_c, 9, 46, 0
1, 144240, Note_on_c, 9, 46, 110
1, 144249, Note_on_c, 9, 46, 0
1, 144479, Note_on_c, 9, 36, 0
1, 144480, Note_on_c, 9, 38, 110
1, 144480, Note_on_c, 9, 46, 110
1, 144489, Note_on_c, 9, 46, 0
1, 144719, Note_on_c, 9, 38, 0
1, 144720, Note_on_c, 9, 46, 110
1, 144729, Note_on_c, 9, 46, 0
1, 144960, Note_on_c, 9, 46, 110
1, 144960, Note_on_c, 9, 36, 110
1, 144969, Note_on_c, 9, 46, 0
1, 145199, Note_on_c, 9, 36, 0
1, 145200, Note_on_c, 9, 46, 110
1, 145200, Note_on_c, 9, 36, 110
1, 145209, Note_on_c, 9, 46, 0
1, 145439, Note_on_c, 9, 36, 0
1, 145440, Note_on_c, 9, 41, 110
1, 145440, Note_on_c, 9, 38, 110
1, 145440, Note_on_c, 9, 46, 110
1, 145444, Note_on_c, 9, 46, 0
1, 145559, Note_on_c, 9, 41, 0
1, 145559, Note_on_c, 9, 38, 0
1, 145560, Note_on_c, 9, 41, 110
1, 145679, Note_on_c, 9, 41, 0
1, 145680, Note_on_c, 9, 41, 110
1, 145680, Note_on_c, 9, 46, 110
1, 145684, Note_on_c, 9, 46, 0
1, 145799, Note_on_c, 9, 41, 0
1, 145800, Note_on_c, 9, 41, 110
1, 145919, Note_on_c, 9, 41, 0
1, 145920, Note_on_c, 9, 46, 110
1, 145920, Note_on_c, 9, 55, 110
1, 145920, Note_on_c, 9, 36, 110
1, 145929, Note_on_c, 9, 46, 0
1, 145929, Note_on_c, 9, 55, 0
1, 146160, Note_on_c, 9, 46, 110
1, 146169, Note_on_c, 9, 46, 0
1, 146399, Note_on_c, 9, 36, 0
1, 146400, Note_on_c, 9, 38, 110
1, 146400, Note_on_c, 9, 46, 110
1, 146409, Note_on_c, 9, 46, 0
1, 146639, Note_on_c, 9, 38, 0
1, 146640, Note_on_c, 9, 46, 110
1, 146649, Note_on_c, 9, 46, 0
1, 146880, Note_on_c, 9, 46, 110
1, 146880, Note_on_c, 9, 36, 110
1, 146889, Note_on_c, 9, 46, 0
1, 147119, Note_on_c, 9, 36, 0
1, 147120, Note_on_c, 9, 46, 110
1, 147120, Note_on_c, 9, 36, 110
1, 147129, Note_on_c, 9, 46, 0
1, 147359, Note_on_c, 9, 36, 0
1, 147360, Note_on_c, 9, 41, 110
1, 147360, Note_on_c, 9, 38, 110
1, 147360, Note_on_c, 9, 46, 110
1, 147364, Note_on_c, 9, 46, 0
1, 147479, Note_on_c, 9, 41, 0
1, 147479, Note_on_c, 9, 38, 0
1, 147480, Note_on_c, 9, 41, 110
1, 147599, Note_on_c, 9, 41, 0
1, 147600, Note_on_c, 9, 41, 110
1, 147600, Note_on_c, 9, 46, 110
1, 147604, Note_on_c, 9, 46, 0
1, 147719, Note_on_c, 9, 41, 0
1, 147720, Note_on_c, 9, 41, 110
1, 147839, Note_on_c, 9, 41, 0
1, 147840, Note_on_c, 9, 46, 110
1, 147840, Note_on_c, 9, 36, 110
1, 147849, Note_on_c, 9, 46, 0
1, 148080, Note_on_c, 9, 46, 110
1, 148089, Note_on_c, 9, 46, 0
1, 148319, Note_on_c, 9, 36, 0
1, 148320, Note_on_c, 9, 38, 110
1, 148320, Note_on_c, 9, 46, 110
1, 148329, Note_on_c, 9, 46, 0
1, 148559, Note_on_c, 9, 38, 0
1, 148560, Note_on_c, 9, 46, 110
1, 148569, Note_on_c, 9, 46, 0
1, 148800, Note_on_c, 9, 46, 110
1, 148800, Note_on_c, 9, 36, 110
1, 148809, Note_on_c, 9, 46, 0
1, 149039, Note_on_c, 9, 36, 0
1, 149040, Note_on_c, 9, 46, 110
1, 149040, Note_on_c, 9, 36, 110
1, 149049, Note_on_c, 9, 46, 0
1, 149279, Note_on_c, 9, 36, 0
1, 149280, Note_on_c, 9, 41, 110
1, 149280, Note_on_c, 9, 38, 110
1, 149280, Note_on_c, 9, 46, 110
1, 149284, Note_on_c, 9, 46, 0
1, 149399, Note_on_c, 9, 41, 0
1, 149399, Note_on_c, 9, 38, 0
1, 149400, Note_on_c, 9, 41, 110
1, 149519, Note_on_c, 9, 41, 0
1, 149520, Note_on_c, 9, 41, 110
1, 149520, Note_on_c, 9, 46, 110
1, 149524, Note_on_c, 9, 46, 0
1, 149639, Note_on_c, 9, 41, 0
1, 149640, Note_on_c, 9, 41, 110
1, 149759, Note_on_c, 9, 41, 0
1, 149760, Note_on_c, 9, 46, 110
1, 149760, Note_on_c, 9, 36, 110
1, 149769, Note_on_c, 9, 46, 0
1, 150000, Note_on_c, 9, 46, 110
1, 150009, Note_on_c, 9, 46, 0
1, 150239, Note_on_c, 9, 36, 0
1, 150240, Note_on_c, 9, 38, 110
1, 150240, Note_on_c, 9, 46, 110
1, 150249, Note_on_c, 9, 46, 0
1, 150479, Note_on_c, 9, 38, 0
1, 150480, Note_on_c, 9, 46, 110
1, 150489, Note_on_c, 9, 46, 0
1, 150720, Note_on_c, 9, 46, 110
1, 150720, Note_on_c, 9, 36, 110
1, 150729, Note_on_c, 9, 46, 0
1, 150959, Note_on_c, 9, 36, 0
1, 150960, Note_on_c, 9, 46, 110
1, 150960, Note_on_c, 9, 36, 110
1, 150969, Note_on_c, 9, 46, 0
1, 151199, Note_on_c, 9, 36, 0
1, 151200, Note_on_c, 9, 41, 110
1, 151200, Note_on_c, 9, 38, 110
1, 151200, Note_on_c, 9, 46, 110
1, 151204, Note_on_c, 9, 46, 0
1, 151319, Note_on_c, 9, 41, 0
1, 151319, Note_on_c, 9, 38, 0
1, 151320, Note_on_c, 9, 41, 110
1, 151439, Note_on_c, 9, 41, 0
1, 151440, Note_on_c, 9, 41, 110
1, 151440, Note_on_c, 9, 46, 110
1, 151444, Note_on_c, 9, 46, 0
1, 151559, Note_on_c, 9, 41, 0
1, 151560, Note_on_c, 9, 41, 110
1, 151679, Note_on_c, 9, 41, 0
1, 151680, Note_on_c, 9, 46, 110
1, 151680, Note_on_c, 9, 36, 110
1, 151689, Note_on_c, 9, 46, 0
1, 151920, Note_on_c, 9, 46, 110
1, 151929, Note_on_c, 9, 46, 0
1, 152159, Note_on_c, 9, 36, 0
1, 152160, Note_on_c, 9, 38, 110
1, 152160, Note_on_c, 9, 46, 110
1, 152169, Note_on_c, 9, 46, 0
1, 152399, Note_on_c, 9, 38, 0
1, 152400, Note_on_c, 9, 46, 110
1, 152409, Note_on_c, 9, 46, 0
1, 152640, Note_on_c, 9, 46, 110
1, 152640, Note_on_c, 9, 36, 110
1, 152649, Note_on_c, 9, 46, 0
1, 152879, Note_on_c, 9, 36, 0
1, 152880, Note_on_c, 9, 46, 110
1, 152880, Note_on_c, 9, 36, 110
1, 152889, Note_on_c, 9, 46, 0
1, 153119, Note_on_c, 9, 36, 0
1, 153120, Note_on_c, 9, 41, 110
1, 153120, Note_on_c, 9, 38, 110
1, 153120, Note_on_c, 9, 46, 110
1, 153124, Note_on_c, 9, 46, 0
1, 153239, Note_on_c, 9, 41, 0
1, 153239, Note_on_c, 9, 38, 0
1, 153240, Note_on_c, 9, 41, 110
1, 153359, Note_on_c, 9, 41, 0
1, 153360, Note_on_c, 9, 41, 110
1, 153360, Note_on_c, 9, 46, 110
1, 153364, Note_on_c, 9, 46, 0
1, 153479, Note_on_c, 9, 41, 0
1, 153480, Note_on_c, 9, 41, 110
1, 153599, Note_on_c, 9, 41, 0
1, 153600, Note_on_c, 9, 46, 110
1, 153600, Note_on_c, 9, 55, 110
1, 153600, Note_on_c, 9, 36, 110
1, 153609, Note_on_c, 9, 46, 0
1, 153609, Note_on_c, 9, 55, 0
1, 153840, Note_on_c, 9, 46, 110
1, 153849, Note_on_c, 9, 46, 0
1, 154079, Note_on_c, 9, 36, 0
1, 154080, Note_on_c, 9, 38, 110
1, 154080, Note_on_c, 9, 46, 110
1, 154089, Note_on_c, 9, 46, 0
1, 154319, Note_on_c, 9, 38, 0
1, 154320, Note_on_c, 9, 46, 110
1, 154329, Note_on_c, 9, 46, 0
1, 154560, Note_on_c, 9, 46, 110
1, 154560, Note_on_c, 9, 36, 110
1, 154569, Note_on_c, 9, 46, 0
1, 154799, Note_on_c, 9, 36, 0
1, 154800, Note_on_c, 9, 46, 110
1, 154800, Note_on_c, 9, 36, 110
1, 154809, Note_on_c, 9, 46, 0
1, 155039, Note_on_c, 9, 36, 0
1, 155040, Note_on_c, 9, 41, 110
1, 155040, Note_on_c, 9, 38, 110
1, 155040, Note_on_c, 9, 46, 110
1, 155044, Note_on_c, 9, 46, 0
1, 155159, Note_on_c, 9, 41, 0
1, 155159, Note_on_c, 9, 38, 0
1, 155160, Note_on_c, 9, 41, 110
1, 155279, Note_on_c, 9, 41, 0
1, 155280, Note_on_c, 9, 41, 110
1, 155280, Note_on_c, 9, 46, 110
1, 155284, Note_on_c, 9, 46, 0
1, 155399, Note_on_c, 9, 41, 0
1, 155400, Note_on_c, 9, 41, 110
1, 155519, Note_on_c, 9, 41, 0
1, 155520, Note_on_c, 9, 46, 110
1, 155520, Note_on_c, 9, 36, 110
1, 155529, Note_on_c, 9, 46, 0
1, 155760, Note_on_c, 9, 46, 110
1, 155769, Note_on_c, 9, 46, 0
1, 155999, Note_on_c, 9, 36, 0
1, 156000, Note_on_c, 9, 38, 110
1, 156000, Note_on_c, 9, 46, 110
1, 156009, Note_on_c, 9, 46, 0
1, 156239, Note_on_c, 9, 38, 0
1, 156240, Note_on_c, 9, 46, 110
1, 156249, Note_on_c, 9, 46, 0
1, 156480, Note_on_c, 9, 46, 110
1, 156480, Note_on_c, 9, 36, 110
1, 156489, Note_on_c, 9, 46, 0
1, 156719, Note_on_c, 9, 36, 0
1, 156720, Note_on_c, 9, 46, 110
1, 156720, Note_on_c, 9, 36, 110
1, 156729, Note_on_c, 9, 46, 0
1, 156959, Note_on_c, 9, 36, 0
1, 156960, Note_on_c, 9, 41, 110
1, 156960, Note_on_c, 9, 38, 110
1, 156960, Note_on_c, 9, 46, 110
1, 156964, Note_on_c, 9, 46, 0
1, 157079, Note_on_c, 9, 41, 0
1, 157079, Note_on_c, 9, 38, 0
1, 157080, Note_on_c, 9, 41, 110
1, 157199, Note_on_c, 9, 41, 0
1, 157200, Note_on_c, 9, 41, 110
1, 157200, Note_on_c, 9, 46, 110
1, 157204, Note_on_c, 9, 46, 0
1, 157319, Note_on_c, 9, 41, 0
1, 157320, Note_on_c, 9, 41, 110
1, 157439, Note_on_c, 9, 41, 0
1, 157440, Note_on_c, 9, 46, 110
1, 157440, Note_on_c, 9, 36, 110
1, 157449, Note_on_c, 9, 46, 0
1, 157680, Note_on_c, 9, 46, 110
1, 157689, Note_on_c, 9, 46, 0
1, 157919, Note_on_c, 9, 36, 0
1, 157920, Note_on_c, 9, 38, 110
1, 157920, Note_on_c, 9, 46, 110
1, 157929, Note_on_c, 9, 46, 0
1, 158159, Note_on_c, 9, 38, 0
1, 158160, Note_on_c, 9, 46, 110
1, 158169, Note_on_c, 9, 46, 0
1, 158400, Note_on_c, 9, 46, 110
1, 158400, Note_on_c, 9, 36, 110
1, 158409, Note_on_c, 9, 46, 0
1, 158639, Note_on_c, 9, 36, 0
1, 158640, Note_on_c, 9, 46, 110
1, 158640, Note_on_c, 9, 36, 110
1, 158649, Note_on_c, 9, 46, 0
1, 158879, Note_on_c, 9, 36, 0
1, 158880, Note_on_c, 9, 41, 110
1, 158880, Note_on_c, 9, 38, 110
1, 158880, Note_on_c, 9, 46, 110
1, 158889, Note_on_c, 9, 46, 0
1, 159119, Note_on_c, 9, 41, 0
1, 159119, Note_on_c, 9, 38, 0
1, 159120, Note_on_c, 9, 41, 110
1, 159359, Note_on_c, 9, 41, 0
1, 159360, Note_on_c, 9, 57, 110
1, 159379, Note_on_c, 9, 57, 0
1, 159380, End_track
0, 0, End_of_file
