0, 0, Header, 1, 1, 480
1, 0, Start_track
1, 0, Title_t, "Drumset"
1, 0, Time_signature, 4, 2, 24, 8
1, 0, Key_signature, 0, "major"
1, 0, Tempo, 500000
1, 0, Control_c, 9, 121, 0
1, 0, Program_c, 9, 0
1, 0, Control_c, 9, 7, 100
1, 0, Control_c, 9, 10, 64
1, 0, Control_c, 9, 91, 0
1, 0, Control_c, 9, 93, 0
1, 0, MIDI_port, 1
1, 1680, Note_on_c, 9, 36, 121
1, 1919, Note_on_c, 9, 36, 0
1, 1920, Note_on_c, 9, 42, 112
1, 1920, Note_on_c, 9, 49, 92
1, 1920, Note_on_c, 9, 36, 121
1, 1930, Note_on_c, 9, 42, 0
1, 1930, Note_on_c, 9, 49, 0
1, 2160, Note_on_c, 9, 42, 83
1, 2170, Note_on_c, 9, 42, 0
1, 2399, Note_on_c, 9, 36, 0
1, 2400, Note_on_c, 9, 40, 127
1, 2400, Note_on_c, 9, 42, 125
1, 2400, Note_on_c, 9, 36, 120
1, 2410, Note_on_c, 9, 42, 0
1, 2639, Note_on_c, 9, 40, 0
1, 2640, Note_on_c, 9, 42, 93
1, 2650, Note_on_c, 9, 42, 0
1, 2879, Note_on_c, 9, 36, 0
1, 2880, Note_on_c, 9, 42, 114
1, 2880, Note_on_c, 9, 36, 120
1, 2890, Note_on_c, 9, 42, 0
1, 3120, Note_on_c, 9, 42, 94
1, 3130, Note_on_c, 9, 42, 0
1, 3359, Note_on_c, 9, 36, 0
1, 3360, Note_on_c, 9, 40, 127
1, 3360, Note_on_c, 9, 42, 126
1, 3360, Note_on_c, 9, 36, 119
1, 3370, Note_on_c, 9, 42, 0
1, 3599, Note_on_c, 9, 40, 0
1, 3600, Note_on_c, 9, 46, 121
1, 3610, Note_on_c, 9, 46, 0
1, 3839, Note_on_c, 9, 36, 0
1, 3840, Note_on_c, 9, 42, 112
1, 3840, Note_on_c, 9, 36, 121
1, 3850, Note_on_c, 9, 42, 0
1, 4080, Note_on_c, 9, 42, 83
1, 4090, Note_on_c, 9, 42, 0
1, 4319, Note_on_c, 9, 36, 0
1, 4320, Note_on_c, 9, 40, 127
1, 4320, Note_on_c, 9, 42, 125
1, 4320, Note_on_c, 9, 36, 120
1, 4330, Note_on_c, 9, 42, 0
1, 4559, Note_on_c, 9, 40, 0
1, 4560, Note_on_c, 9, 42, 93
1, 4570, Note_on_c, 9, 42, 0
1, 4799, Note_on_c, 9, 36, 0
1, 4800, Note_on_c, 9, 42, 114
1, 4800, Note_on_c, 9, 36, 120
1, 4810, Note_on_c, 9, 42, 0
1, 5040, Note_on_c, 9, 42, 94
1, 5050, Note_on_c, 9, 42, 0
1, 5279, Note_on_c, 9, 36, 0
1, 5280, Note_on_c, 9, 40, 127
1, 5280, Note_on_c, 9, 42, 126
1, 5280, Note_on_c, 9, 36, 119
1, 5290, Note_on_c, 9, 42, 0
1, 5519, Note_on_c, 9, 40, 0
1, 5520, Note_on_c, 9, 46, 121
1, 5530, Note_on_c, 9, 46, 0
1, 5759, Note_on_c, 9, 36, 0
1, 5760, Note_on_c, 9, 42, 112
1, 5760, Note_on_c, 9, 36, 121
1, 5770, Note_on_c, 9, 42, 0
1, 6000, Note_on_c, 9, 42, 83
1, 6010, Note_on_c, 9, 42, 0
1, 6239, Note_on_c, 9, 36, 0
1, 6240, Note_on_c, 9, 40, 127
1, 6240, Note_on_c, 9, 42, 125
1, 6240, Note_on_c, 9, 36, 120
1, 6250, Note_on_c, 9, 42, 0
1, 6479, Note_on_c, 9, 40, 0
1, 6480, Note_on_c, 9, 42, 93
1, 6490, Note_on_c, 9, 42, 0
1, 6719, Note_on_c, 9, 36, 0
1, 6720, Note_on_c, 9, 42, 114
1, 6720, Note_on_c, 9, 36, 120
1, 6730, Note_on_c, 9, 42, 0
1, 6960, Note_on_c, 9, 42, 94
1, 6970, Note_on_c, 9, 42, 0
1, 7199, Note_on_c, 9, 36, 0
1, 7200, Note_on_c, 9, 40, 127
1, 7200, Note_on_c, 9, 42, 126
1, 7200, Note_on_c, 9, 36, 119
1, 7210, Note_on_c, 9, 42, 0
1, 7439, Note_on_c, 9, 40, 0
1, 7440, Note_on_c, 9, 46, 121
1, 7450, Note_on_c, 9, 46, 0
1, 7679, Note_on_c, 9, 36, 0
1, 7680, Note_on_c, 9, 42, 112
1, 7680, Note_on_c, 9, 36, 121
1, 7690, Note_on_c, 9, 42, 0
1, 7920, Note_on_c, 9, 42, 83
1, 7930, Note_on_c, 9, 42, 0
1, 8159, Note_on_c, 9, 36, 0
1, 8160, Note_on_c, 9, 40, 127
1, 8160, Note_on_c, 9, 42, 125
1, 8160, Note_on_c, 9, 36, 120
1, 8170, Note_on_c, 9, 42, 0
1, 8399, Note_on_c, 9, 40, 0
1, 8400, Note_on_c, 9, 42, 93
1, 8410, Note_on_c, 9, 42, 0
1, 8639, Note_on_c, 9, 36, 0
1, 8640, Note_on_c, 9, 42, 114
1, 8640, Note_on_c, 9, 36, 120
1, 8650, Note_on_c, 9, 42, 0
1, 8880, Note_on_c, 9, 42, 94
1, 8890, Note_on_c, 9, 42, 0
1, 9119, Note_on_c, 9, 36, 0
1, 9120, Note_on_c, 9, 40, 127
1, 9120, Note_on_c, 9, 42, 126
1, 9120, Note_on_c, 9, 36, 119
1, 9130, Note_on_c, 9, 42, 0
1, 9359, Note_on_c, 9, 40, 0
1, 9360, Note_on_c, 9, 46, 121
1, 9370, Note_on_c, 9, 46, 0
1, 9599, Note_on_c, 9, 36, 0
1, 9600, Note_on_c, 9, 42, 112
1, 9600, Note_on_c, 9, 36, 121
1, 9610, Note_on_c, 9, 42, 0
1, 9840, Note_on_c, 9, 42, 83
1, 9850, Note_on_c, 9, 42, 0
1, 10079, Note_on_c, 9, 36, 0
1, 10080, Note_on_c, 9, 40, 127
1, 10080, Note_on_c, 9, 42, 125
1, 10080, Note_on_c, 9, 36, 120
1, 10090, Note_on_c, 9, 42, 0
1, 10319, Note_on_c, 9, 40, 0
1, 10320, Note_on_c, 9, 42, 93
1, 10330, Note_on_c, 9, 42, 0
1, 10559, Note_on_c, 9, 36, 0
1, 10560, Note_on_c, 9, 42, 114
1, 10560, Note_on_c, 9, 36, 120
1, 10570, Note_on_c, 9, 42, 0
1, 10800, Note_on_c, 9, 42, 94
1, 10810, Note_on_c, 9, 42, 0
1, 11039, Note_on_c, 9, 36, 0
1, 11040, Note_on_c, 9, 40, 127
1, 11040, Note_on_c, 9, 42, 126
1, 11040, Note_on_c, 9, 36, 119
1, 11050, Note_on_c, 9, 42, 0
1, 11279, Note_on_c, 9, 40, 0
1, 11280, Note_on_c, 9, 46, 121
1, 11290, Note_on_c, 9, 46, 0
1, 11519, Note_on_c, 9, 36, 0
1, 11520, Note_on_c, 9, 42, 112
1, 11520, Note_on_c, 9, 36, 121
1, 11530, Note_on_c, 9, 42, 0
1, 11760, Note_on_c, 9, 42, 83
1, 11770, Note_on_c, 9, 42, 0
1, 11999, Note_on_c, 9, 36, 0
1, 12000, Note_on_c, 9, 40, 127
1, 12000, Note_on_c, 9, 42, 125
1, 12000, Note_on_c, 9, 36, 120
1, 12010, Note_on_c, 9, 42, 0
1, 12239, Note_on_c, 9, 40, 0
1, 12240, Note_on_c, 9, 42, 93
1, 12250, Note_on_c, 9, 42, 0
1, 12479, Note_on_c, 9, 36, 0
1, 12480, Note_on_c, 9, 42, 114
1, 12480, Note_on_c, 9, 36, 120
1, 12490, Note_on_c, 9, 42, 0
1, 12720, Note_on_c, 9, 42, 94
1, 12730, Note_on_c, 9, 42, 0
1, 12959, Note_on_c, 9, 36, 0
1, 12960, Note_on_c, 9, 40, 127
1, 12960, Note_on_c, 9, 42, 126
1, 12960, Note_on_c, 9, 36, 119
1, 12970, Note_on_c, 9, 42, 0
1, 13199, Note_on_c, 9, 40, 0
1, 13200, Note_on_c, 9, 46, 121
1, 13210, Note_on_c, 9, 46, 0
1, 13439, Note_on_c, 9, 36, 0
1, 13440, Note_on_c, 9, 42, 112
1, 13440, Note_on_c, 9, 36, 121
1, 13450, Note_on_c, 9, 42, 0
1, 13680, Note_on_c, 9, 42, 83
1, 13690, Note_on_c, 9, 42, 0
1, 13919, Note_on_c, 9, 36, 0
1, 13920, Note_on_c, 9, 40, 127
1, 13920, Note_on_c, 9, 42, 125
1, 13920, Note_on_c, 9, 36, 120
1, 13930, Note_on_c, 9, 42, 0
1, 14159, Note_on_c, 9, 40, 0
1, 14160, Note_on_c, 9, 42, 93
1, 14170, Note_on_c, 9, 42, 0
1, 14399, Note_on_c, 9, 36, 0
1, 14400, Note_on_c, 9, 42, 114
1, 14400, Note_on_c, 9, 36, 120
1, 14410, Note_on_c, 9, 42, 0
1, 14640, Note_on_c, 9, 42, 94
1, 14650, Note_on_c, 9, 42, 0
1, 14879, Note_on_c, 9, 36, 0
1, 14880, Note_on_c, 9, 40, 127
1, 14880, Note_on_c, 9, 42, 126
1, 14880, Note_on_c, 9, 36, 119
1, 14890, Note_on_c, 9, 42, 0
1, 15119, Note_on_c, 9, 40, 0
1, 15120, Note_on_c, 9, 46, 121
1, 15130, Note_on_c, 9, 46, 0
1, 15359, Note_on_c, 9, 36, 0
1, 15360, Note_on_c, 9, 42, 112
1, 15360, Note_on_c, 9, 36, 121
1, 15370, Note_on_c, 9, 42, 0
1, 15600, Note_on_c, 9, 42, 83
1, 15610, Note_on_c, 9, 42, 0
1, 15839, Note_on_c, 9, 36, 0
1, 15840, Note_on_c, 9, 40, 127
1, 15840, Note_on_c, 9, 42, 125
1, 15840, Note_on_c, 9, 36, 120
1, 15850, Note_on_c, 9, 42, 0
1, 16079, Note_on_c, 9, 40, 0
1, 16080, Note_on_c, 9, 42, 93
1, 16090, Note_on_c, 9, 42, 0
1, 16319, Note_on_c, 9, 36, 0
1, 16320, Note_on_c, 9, 42, 114
1, 16320, Note_on_c, 9, 36, 120
1, 16330, Note_on_c, 9, 42, 0
1, 16560, Note_on_c, 9, 42, 94
1, 16570, Note_on_c, 9, 42, 0
1, 16799, Note_on_c, 9, 36, 0
1, 16800, Note_on_c, 9, 40, 127
1, 16800, Note_on_c, 9, 42, 126
1, 16800, Note_on_c, 9, 36, 119
1, 16810, Note_on_c, 9, 42, 0
1, 17039, Note_on_c, 9, 40, 0
1, 17040, Note_on_c, 9, 46, 121
1, 17050, Note_on_c, 9, 46, 0
1, 17279, Note_on_c, 9, 36, 0
1, 17280, Note_on_c, 9, 42, 112
1, 17280, Note_on_c, 9, 36, 121
1, 17290, Note_on_c, 9, 42, 0
1, 17520, Note_on_c, 9, 42, 83
1, 17530, Note_on_c, 9, 42, 0
1, 17759, Note_on_c, 9, 36, 0
1, 17760, Note_on_c, 9, 40, 127
1, 17760, Note_on_c, 9, 42, 125
1, 17760, Note_on_c, 9, 36, 120
1, 17770, Note_on_c, 9, 42, 0
1, 17999, Note_on_c, 9, 40, 0
1, 18000, Note_on_c, 9, 42, 93
1, 18010, Note_on_c, 9, 42, 0
1, 18239, Note_on_c, 9, 36, 0
1, 18240, Note_on_c, 9, 42, 114
1, 18240, Note_on_c, 9, 36, 120
1, 18250, Note_on_c, 9, 42, 0
1, 18480, Note_on_c, 9, 42, 94
1, 18490, Note_on_c, 9, 42, 0
1, 18719, Note_on_c, 9, 36, 0
1, 18720, Note_on_c, 9, 40, 127
1, 18720, Note_on_c, 9, 42, 126
1, 18720, Note_on_c, 9, 36, 119
1, 18730, Note_on_c, 9, 42, 0
1, 18959, Note_on_c, 9, 40, 0
1, 18960, Note_on_c, 9, 46, 121
1, 18970, Note_on_c, 9, 46, 0
1, 19199, Note_on_c, 9, 36, 0
1, 19200, Note_on_c, 9, 42, 112
1, 19200, Note_on_c, 9, 36, 121
1, 19210, Note_on_c, 9, 42, 0
1, 19440, Note_on_c, 9, 42, 83
1, 19450, Note_on_c, 9, 42, 0
1, 19679, Note_on_c, 9, 36, 0
1, 19680, Note_on_c, 9, 40, 127
1, 19680, Note_on_c, 9, 42, 125
1, 19680, Note_on_c, 9, 36, 120
1, 19690, Note_on_c, 9, 42, 0
1, 19919, Note_on_c, 9, 40, 0
1, 19920, Note_on_c, 9, 42, 93
1, 19930, Note_on_c, 9, 42, 0
1, 20159, Note_on_c, 9, 36, 0
1, 20160, Note_on_c, 9, 42, 114
1, 20160, Note_on_c, 9, 36, 120
1, 20170, Note_on_c, 9, 42, 0
1, 20400, Note_on_c, 9, 42, 94
1, 20410, Note_on_c, 9, 42, 0
1, 20639, Note_on_c, 9, 36, 0
1, 20640, Note_on_c, 9, 40, 127
1, 20640, Note_on_c, 9, 42, 126
1, 20640, Note_on_c, 9, 36, 119
1, 20650, Note_on_c, 9, 42, 0
1, 20879, Note_on_c, 9, 40, 0
1, 20880, Note_on_c, 9, 46, 121
1, 20890, Note_on_c, 9, 46, 0
1, 21119, Note_on_c, 9, 36, 0
1, 21120, Note_on_c, 9, 42, 112
1, 21120, Note_on_c, 9, 36, 121
1, 21130, Note_on_c, 9, 42, 0
1, 21360, Note_on_c, 9, 42, 83
1, 21370, Note_on_c, 9, 42, 0
1, 21599, Note_on_c, 9, 36, 0
1, 21600, Note_on_c, 9, 40, 127
1, 21600, Note_on_c, 9, 42, 125
1, 21600, Note_on_c, 9, 36, 120
1, 21610, Note_on_c, 9, 42, 0
1, 21839, Note_on_c, 9, 40, 0
1, 21840, Note_on_c, 9, 42, 93
1, 21850, Note_on_c, 9, 42, 0
1, 22079, Note_on_c, 9, 36, 0
1, 22080, Note_on_c, 9, 42, 114
1, 22080, Note_on_c, 9, 36, 120
1, 22090, Note_on_c, 9, 42, 0
1, 22320, Note_on_c, 9, 42, 94
1, 22330, Note_on_c, 9, 42, 0
1, 22559, Note_on_c, 9, 36, 0
1, 22560, Note_on_c, 9, 40, 127
1, 22560, Note_on_c, 9, 42, 126
1, 22560, Note_on_c, 9, 36, 119
1, 22570, Note_on_c, 9, 42, 0
1, 22799, Note_on_c, 9, 40, 0
1, 22800, Note_on_c, 9, 46, 121
1, 22810, Note_on_c, 9, 46, 0
1, 23039, Note_on_c, 9, 36, 0
1, 23040, Note_on_c, 9, 42, 112
1, 23040, Note_on_c, 9, 36, 121
1, 23050, Note_on_c, 9, 42, 0
1, 23280, Note_on_c, 9, 42, 83
1, 23290, Note_on_c, 9, 42, 0
1, 23519, Note_on_c, 9, 36, 0
1, 23520, Note_on_c, 9, 40, 127
1, 23520, Note_on_c, 9, 42, 125
1, 23520, Note_on_c, 9, 36, 120
1, 23530, Note_on_c, 9, 42, 0
1, 23759, Note_on_c, 9, 40, 0
1, 23760, Note_on_c, 9, 42, 93
1, 23770, Note_on_c, 9, 42, 0
1, 23999, Note_on_c, 9, 36, 0
1, 24000, Note_on_c, 9, 42, 114
1, 24000, Note_on_c, 9, 36, 120
1, 24010, Note_on_c, 9, 42, 0
1, 24240, Note_on_c, 9, 42, 94
1, 24250, Note_on_c, 9, 42, 0
1, 24479, Note_on_c, 9, 36, 0
1, 24480, Note_on_c, 9, 40, 127
1, 24480, Note_on_c, 9, 42, 126
1, 24480, Note_on_c, 9, 36, 119
1, 24490, Note_on_c, 9, 42, 0
1, 24719, Note_on_c, 9, 40, 0
1, 24720, Note_on_c, 9, 46, 121
1, 24730, Note_on_c, 9, 46, 0
1, 24959, Note_on_c, 9, 36, 0
1, 24960, Note_on_c, 9, 42, 112
1, 24960, Note_on_c, 9, 36, 121
1, 24970, Note_on_c, 9, 42, 0
1, 25200, Note_on_c, 9, 42, 83
1, 25210, Note_on_c, 9, 42, 0
1, 25439, Note_on_c, 9, 36, 0
1, 25440, Note_on_c, 9, 40, 127
1, 25440, Note_on_c, 9, 42, 125
1, 25440, Note_on_c, 9, 36, 120
1, 25450, Note_on_c, 9, 42, 0
1, 25679, Note_on_c, 9, 40, 0
1, 25680, Note_on_c, 9, 42, 93
1, 25690, Note_on_c, 9, 42, 0
1, 25919, Note_on_c, 9, 36, 0
1, 25920, Note_on_c, 9, 42, 114
1, 25920, Note_on_c, 9, 36, 120
1, 25930, Note_on_c, 9, 42, 0
1, 26160, Note_on_c, 9, 42, 94
1, 26170, Note_on_c, 9, 42, 0
1, 26399, Note_on_c, 9, 36, 0
1, 26400, Note_on_c, 9, 40, 127
1, 26400, Note_on_c, 9, 42, 126
1, 26400, Note_on_c, 9, 36, 119
1, 26410, Note_on_c, 9, 42, 0
1, 26639, Note_on_c, 9, 40, 0
1, 26640, Note_on_c, 9, 46, 121
1, 26650, Note_on_c, 9, 46, 0
1, 26879, Note_on_c, 9, 36, 0
1, 26880, Note_on_c, 9, 42, 112
1, 26880, Note_on_c, 9, 36, 121
1, 26890, Note_on_c, 9, 42, 0
1, 27120, Note_on_c, 9, 42, 83
1, 27130, Note_on_c, 9, 42, 0
1, 27359, Note_on_c, 9, 36, 0
1, 27360, Note_on_c, 9, 40, 127
1, 27360, Note_on_c, 9, 42, 125
1, 27360, Note_on_c, 9, 36, 120
1, 27370, Note_on_c, 9, 42, 0
1, 27599, Note_on_c, 9, 40, 0
1, 27600, Note_on_c, 9, 42, 93
1, 27610, Note_on_c, 9, 42, 0
1, 27839, Note_on_c, 9, 36, 0
1, 27840, Note_on_c, 9, 42, 114
1, 27840, Note_on_c, 9, 36, 120
1, 27850, Note_on_c, 9, 42, 0
1, 28080, Note_on_c, 9, 42, 94
1, 28090, Note_on_c, 9, 42, 0
1, 28319, Note_on_c, 9, 36, 0
1, 28320, Note_on_c, 9, 40, 127
1, 28320, Note_on_c, 9, 42, 126
1, 28320, Note_on_c, 9, 36, 119
1, 28330, Note_on_c, 9, 42, 0
1, 28559, Note_on_c, 9, 40, 0
1, 28560, Note_on_c, 9, 46, 121
1, 28570, Note_on_c, 9, 46, 0
1, 28799, Note_on_c, 9, 36, 0
1, 28800, Note_on_c, 9, 42, 112
1, 28800, Note_on_c, 9, 36, 121
1, 28810, Note_on_c, 9, 42, 0
1, 29040, Note_on_c, 9, 42, 83
1, 29050, Note_on_c, 9, 42, 0
1, 29279, Note_on_c, 9, 36, 0
1, 29280, Note_on_c, 9, 40, 127
1, 29280, Note_on_c, 9, 42, 125
1, 29280, Note_on_c, 9, 36, 120
1, 29290, Note_on_c, 9, 42, 0
1, 29519, Note_on_c, 9, 40, 0
1, 29520, Note_on_c, 9, 42, 93
1, 29530, Note_on_c, 9, 42, 0
1, 29759, Note_on_c, 9, 36, 0
1, 29760, Note_on_c, 9, 42, 114
1, 29760, Note_on_c, 9, 36, 120
1, 29770, Note_on_c, 9, 42, 0
1, 30000, Note_on_c, 9, 42, 94
1, 30010, Note_on_c, 9, 42, 0
1, 30239, Note_on_c, 9, 36, 0
1, 30240, Note_on_c, 9, 40, 127
1, 30240, Note_on_c, 9, 42, 126
1, 30240, Note_on_c, 9, 36, 119
1, 30250, Note_on_c, 9, 42, 0
1, 30479, Note_on_c, 9, 40, 0
1, 30480, Note_on_c, 9, 46, 121
1, 30490, Note_on_c, 9, 46, 0
1, 30719, Note_on_c, 9, 36, 0
1, 30720, Note_on_c, 9, 42, 112
1, 30720, Note_on_c, 9, 36, 121
1, 30730, Note_on_c, 9, 42, 0
1, 30960, Note_on_c, 9, 42, 83
1, 30970, Note_on_c, 9, 42, 0
1, 31199, Note_on_c, 9, 36, 0
1, 31200, Note_on_c, 9, 40, 127
1, 31200, Note_on_c, 9, 42, 125
1, 31200, Note_on_c, 9, 36, 120
1, 31210, Note_on_c, 9, 42, 0
1, 31439, Note_on_c, 9, 40, 0
1, 31440, Note_on_c, 9, 42, 93
1, 31450, Note_on_c, 9, 42, 0
1, 31679, Note_on_c, 9, 36, 0
1, 31680, Note_on_c, 9, 42, 114
1, 31680, Note_on_c, 9, 36, 120
1, 31690, Note_on_c, 9, 42, 0
1, 31920, Note_on_c, 9, 42, 94
1, 31930, Note_on_c, 9, 42, 0
1, 32159, Note_on_c, 9, 36, 0
1, 32160, Note_on_c, 9, 40, 127
1, 32160, Note_on_c, 9, 42, 126
1, 32160, Note_on_c, 9, 36, 119
1, 32170, Note_on_c, 9, 42, 0
1, 32399, Note_on_c, 9, 40, 0
1, 32400, Note_on_c, 9, 46, 121
1, 32410, Note_on_c, 9, 46, 0
1, 32639, Note_on_c, 9, 36, 0
1, 32640, Note_on_c, 9, 42, 112
1, 32640, Note_on_c, 9, 36, 121
1, 32650, Note_on_c, 9, 42, 0
1, 32880, Note_on_c, 9, 42, 83
1, 32890, Note_on_c, 9, 42, 0
1, 33119, Note_on_c, 9, 36, 0
1, 33120, Note_on_c, 9, 40, 127
1, 33120, Note_on_c, 9, 42, 125
1, 33120, Note_on_c, 9, 36, 120
1, 33130, Note_on_c, 9, 42, 0
1, 33359, Note_on_c, 9, 40, 0
1, 33360, Note_on_c, 9, 42, 93
1, 33370, Note_on_c, 9, 42, 0
1, 33599, Note_on_c, 9, 36, 0
1, 33600, Note_on_c, 9, 42, 114
1, 33600, Note_on_c, 9, 36, 120
1, 33610, Note_on_c, 9, 42, 0
1, 33840, Note_on_c, 9, 42, 94
1, 33850, Note_on_c, 9, 42, 0
1, 34079, Note_on_c, 9, 36, 0
1, 34080, Note_on_c, 9, 40, 127
1, 34080, Note_on_c, 9, 42, 126
1, 34080, Note_on_c, 9, 36, 119
1, 34090, Note_on_c, 9, 42, 0
1, 34319, Note_on_c, 9, 40, 0
1, 34320, Note_on_c, 9, 46, 121
1, 34330, Note_on_c, 9, 46, 0
1, 34559, Note_on_c, 9, 36, 0
1, 34560, Note_on_c, 9, 42, 112
1, 34560, Note_on_c, 9, 36, 121
1, 34570, Note_on_c, 9, 42, 0
1, 34800, Note_on_c, 9, 42, 83
1, 34810, Note_on_c, 9, 42, 0
1, 35039, Note_on_c, 9, 36, 0
1, 35040, Note_on_c, 9, 40, 127
1, 35040, Note_on_c, 9, 42, 125
1, 35040, Note_on_c, 9, 36, 120
1, 35050, Note_on_c, 9, 42, 0
1, 35279, Note_on_c, 9, 40, 0
1, 35280, Note_on_c, 9, 42, 93
1, 35290, Note_on_c, 9, 42, 0
1, 35519, Note_on_c, 9, 36, 0
1, 35520, Note_on_c, 9, 42, 114
1, 35520, Note_on_c, 9, 36, 120
1, 35530, Note_on_c, 9, 42, 0
1, 35760, Note_on_c, 9, 42, 94
1, 35770, Note_on_c, 9, 42, 0
1, 35999, Note_on_c, 9, 36, 0
1, 36000, Note_on_c, 9, 40, 127
1, 36000, Note_on_c, 9, 42, 126
1, 36000, Note_on_c, 9, 36, 119
1, 36010, Note_on_c, 9, 42, 0
1, 36239, Note_on_c, 9, 40, 0
1, 36240, Note_on_c, 9, 46, 121
1, 36250, Note_on_c, 9, 46, 0
1, 36479, Note_on_c, 9, 36, 0
1, 36480, Note_on_c, 9, 42, 112
1, 36480, Note_on_c, 9, 49, 92
1, 36480, Note_on_c, 9, 36, 121
1, 36490, Note_on_c, 9, 42, 0
1, 36490, Note_on_c, 9, 49, 0
1, 36720, Note_on_c, 9, 42, 83
1, 36730, Note_on_c, 9, 42, 0
1, 36959, Note_on_c, 9, 36, 0
1, 36960, Note_on_c, 9, 40, 127
1, 36960, Note_on_c, 9, 42, 125
1, 36960, Note_on_c, 9, 36, 120
1, 36970, Note_on_c, 9, 42, 0
1, 37199, Note_on_c, 9, 40, 0
1, 37200, Note_on_c, 9, 42, 93
1, 37210, Note_on_c, 9, 42, 0
1, 37439, Note_on_c, 9, 36, 0
1, 37440, Note_on_c, 9, 42, 114
1, 37440, Note_on_c, 9, 36, 120
1, 37450, Note_on_c, 9, 42, 0
1, 37680, Note_on_c, 9, 42, 94
1, 37690, Note_on_c, 9, 42, 0
1, 37919, Note_on_c, 9, 36, 0
1, 37920, Note_on_c, 9, 40, 127
1, 37920, Note_on_c, 9, 42, 126
1, 37920, Note_on_c, 9, 36, 119
1, 37930, Note_on_c, 9, 42, 0
1, 38159, Note_on_c, 9, 40, 0
1, 38160, Note_on_c, 9, 46, 121
1, 38170, Note_on_c, 9, 46, 0
1, 38399, Note_on_c, 9, 36, 0
1, 38400, Note_on_c, 9, 42, 112
1, 38400, Note_on_c, 9, 36, 121
1, 38410, Note_on_c, 9, 42, 0
1, 38640, Note_on_c, 9, 42, 83
1, 38650, Note_on_c, 9, 42, 0
1, 38879, Note_on_c, 9, 36, 0
1, 38880, Note_on_c, 9, 40, 127
1, 38880, Note_on_c, 9, 42, 125
1, 38880, Note_on_c, 9, 36, 120
1, 38890, Note_on_c, 9, 42, 0
1, 39119, Note_on_c, 9, 40, 0
1, 39120, Note_on_c, 9, 42, 93
1, 39130, Note_on_c, 9, 42, 0
1, 39359, Note_on_c, 9, 36, 0
1, 39360, Note_on_c, 9, 42, 114
1, 39360, Note_on_c, 9, 36, 120
1, 39370, Note_on_c, 9, 42, 0
1, 39600, Note_on_c, 9, 42, 94
1, 39610, Note_on_c, 9, 42, 0
1, 39839, Note_on_c, 9, 36, 0
1, 39840, Note_on_c, 9, 40, 127
1, 39840, Note_on_c, 9, 42, 126
1, 39840, Note_on_c, 9, 36, 119
1, 39850, Note_on_c, 9, 42, 0
1, 40079, Note_on_c, 9, 40, 0
1, 40080, Note_on_c, 9, 46, 121
1, 40090, Note_on_c, 9, 46, 0
1, 40319, Note_on_c, 9, 36, 0
1, 40320, Note_on_c, 9, 42, 112
1, 40320, Note_on_c, 9, 36, 121
1, 40330, Note_on_c, 9, 42, 0
1, 40560, Note_on_c, 9, 42, 83
1, 40570, Note_on_c, 9, 42, 0
1, 40799, Note_on_c, 9, 36, 0
1, 40800, Note_on_c, 9, 40, 127
1, 40800, Note_on_c, 9, 42, 125
1, 40800, Note_on_c, 9, 36, 120
1, 40810, Note_on_c, 9, 42, 0
1, 41039, Note_on_c, 9, 40, 0
1, 41040, Note_on_c, 9, 42, 93
1, 41050, Note_on_c, 9, 42, 0
1, 41279, Note_on_c, 9, 36, 0
1, 41280, Note_on_c, 9, 42, 114
1, 41280, Note_on_c, 9, 36, 120
1, 41290, Note_on_c, 9, 42, 0
1, 41520, Note_on_c, 9, 42, 94
1, 41530, Note_on_c, 9, 42, 0
1, 41759, Note_on_c, 9, 36, 0
1, 41760, Note_on_c, 9, 40, 127
1, 41760, Note_on_c, 9, 42, 126
1, 41760, Note_on_c, 9, 36, 119
1, 41770, Note_on_c, 9, 42, 0
1, 41999, Note_on_c, 9, 40, 0
1, 42000, Note_on_c, 9, 46, 121
1, 42010, Note_on_c, 9, 46, 0
1, 42239, Note_on_c, 9, 36, 0
1, 42240, Note_on_c, 9, 42, 112
1, 42240, Note_on_c, 9, 36, 121
1, 42250, Note_on_c, 9, 42, 0
1, 42480, Note_on_c, 9, 42, 83
1, 42490, Note_on_c, 9, 42, 0
1, 42719, Note_on_c, 9, 36, 0
1, 42720, Note_on_c, 9, 40, 127
1, 42720, Note_on_c, 9, 42, 125
1, 42720, Note_on_c, 9, 36, 120
1, 42730, Note_on_c, 9, 42, 0
1, 42959, Note_on_c, 9, 40, 0
1, 42960, Note_on_c, 9, 42, 93
1, 42970, Note_on_c, 9, 42, 0
1, 43199, Note_on_c, 9, 36, 0
1, 43200, Note_on_c, 9, 42, 114
1, 43200, Note_on_c, 9, 36, 120
1, 43210, Note_on_c, 9, 42, 0
1, 43440, Note_on_c, 9, 42, 94
1, 43450, Note_on_c, 9, 42, 0
1, 43679, Note_on_c, 9, 36, 0
1, 43680, Note_on_c, 9, 40, 127
1, 43680, Note_on_c, 9, 42, 126
1, 43680, Note_on_c, 9, 36, 119
1, 43690, Note_on_c, 9, 42, 0
1, 43919, Note_on_c, 9, 40, 0
1, 43920, Note_on_c, 9, 46, 121
1, 43930, Note_on_c, 9, 46, 0
1, 44159, Note_on_c, 9, 36, 0
1, 44160, Note_on_c, 9, 42, 112
1, 44160, Note_on_c, 9, 49, 92
1, 44160, Note_on_c, 9, 36, 121
1, 44170, Note_on_c, 9, 42, 0
1, 44170, Note_on_c, 9, 49, 0
1, 44400, Note_on_c, 9, 42, 83
1, 44410, Note_on_c, 9, 42, 0
1, 44639, Note_on_c, 9, 36, 0
1, 44640, Note_on_c, 9, 40, 127
1, 44640, Note_on_c, 9, 42, 125
1, 44640, Note_on_c, 9, 36, 120
1, 44650, Note_on_c, 9, 42, 0
1, 44879, Note_on_c, 9, 40, 0
1, 44880, Note_on_c, 9, 42, 93
1, 44890, Note_on_c, 9, 42, 0
1, 45119, Note_on_c, 9, 36, 0
1, 45120, Note_on_c, 9, 42, 114
1, 45120, Note_on_c, 9, 36, 120
1, 45130, Note_on_c, 9, 42, 0
1, 45360, Note_on_c, 9, 42, 94
1, 45370, Note_on_c, 9, 42, 0
1, 45599, Note_on_c, 9, 36, 0
1, 45600, Note_on_c, 9, 40, 127
1, 45600, Note_on_c, 9, 42, 126
1, 45600, Note_on_c, 9, 36, 119
1, 45610, Note_on_c, 9, 42, 0
1, 45839, Note_on_c, 9, 40, 0
1, 45840, Note_on_c, 9, 46, 121
1, 45850, Note_on_c, 9, 46, 0
1, 46079, Note_on_c, 9, 36, 0
1, 46080, Note_on_c, 9, 42, 112
1, 46080, Note_on_c, 9, 36, 121
1, 46090, Note_on_c, 9, 42, 0
1, 46320, Note_on_c, 9, 42, 83
1, 46330, Note_on_c, 9, 42, 0
1, 46559, Note_on_c, 9, 36, 0
1, 46560, Note_on_c, 9, 40, 127
1, 46560, Note_on_c, 9, 42, 125
1, 46560, Note_on_c, 9, 36, 120
1, 46570, Note_on_c, 9, 42, 0
1, 46799, Note_on_c, 9, 40, 0
1, 46800, Note_on_c, 9, 42, 93
1, 46810, Note_on_c, 9, 42, 0
1, 47039, Note_on_c, 9, 36, 0
1, 47040, Note_on_c, 9, 42, 114
1, 47040, Note_on_c, 9, 36, 120
1, 47050, Note_on_c, 9, 42, 0
1, 47280, Note_on_c, 9, 42, 94
1, 47290, Note_on_c, 9, 42, 0
1, 47519, Note_on_c, 9, 36, 0
1, 47520, Note_on_c, 9, 40, 127
1, 47520, Note_on_c, 9, 42, 126
1, 47520, Note_on_c, 9, 36, 119
1, 47530, Note_on_c, 9, 42, 0
1, 47759, Note_on_c, 9, 40, 0
1, 47760, Note_on_c, 9, 46, 121
1, 47770, Note_on_c, 9, 46, 0
1, 47999, Note_on_c, 9, 36, 0
1, 48000, Note_on_c, 9, 42, 112
1, 48000, Note_on_c, 9, 49, 92
1, 48000, Note_on_c, 9, 36, 121
1, 48010, Note_on_c, 9, 42, 0
1, 48010, Note_on_c, 9, 49, 0
1, 48240, Note_on_c, 9, 42, 83
1, 48250, Note_on_c, 9, 42, 0
1, 48479, Note_on_c, 9, 36, 0
1, 48480, Note_on_c, 9, 40, 127
1, 48480, Note_on_c, 9, 42, 125
1, 48480, Note_on_c, 9, 36, 120
1, 48490, Note_on_c, 9, 42, 0
1, 48719, Note_on_c, 9, 40, 0
1, 48720, Note_on_c, 9, 42, 93
1, 48730, Note_on_c, 9, 42, 0
1, 48959, Note_on_c, 9, 36, 0
1, 48960, Note_on_c, 9, 42, 114
1, 48960, Note_on_c, 9, 36, 120
1, 48970, Note_on_c, 9, 42, 0
1, 49200, Note_on_c, 9, 42, 94
1, 49210, Note_on_c, 9, 42, 0
1, 49439, Note_on_c, 9, 36, 0
1, 49440, Note_on_c, 9, 40, 127
1, 49440, Note_on_c, 9, 42, 126
1, 49440, Note_on_c, 9, 36, 119
1, 49450, Note_on_c, 9, 42, 0
1, 49679, Note_on_c, 9, 40, 0
1, 49680, Note_on_c, 9, 46, 121
1, 49690, Note_on_c, 9, 46, 0
1, 49919, Note_on_c, 9, 36, 0
1, 49920, Note_on_c, 9, 42, 112
1, 49920, Note_on_c, 9, 49, 92
1, 49920, Note_on_c, 9, 36, 121
1, 49930, Note_on_c, 9, 42, 0
1, 49930, Note_on_c, 9, 49, 0
1, 50160, Note_on_c, 9, 42, 83
1, 50170, Note_on_c, 9, 42, 0
1, 50399, Note_on_c, 9, 36, 0
1, 50400, Note_on_c, 9, 40, 127
1, 50400, Note_on_c, 9, 42, 125
1, 50400, Note_on_c, 9, 36, 120
1, 50410, Note_on_c, 9, 42, 0
1, 50639, Note_on_c, 9, 40, 0
1, 50640, Note_on_c, 9, 42, 93
1, 50650, Note_on_c, 9, 42, 0
1, 50879, Note_on_c, 9, 36, 0
1, 50880, Note_on_c, 9, 42, 114
1, 50880, Note_on_c, 9, 36, 120
1, 50890, Note_on_c, 9, 42, 0
1, 51120, Note_on_c, 9, 42, 94
1, 51130, Note_on_c, 9, 42, 0
1, 51359, Note_on_c, 9, 36, 0
1, 51360, Note_on_c, 9, 40, 127
1, 51360, Note_on_c, 9, 42, 126
1, 51360, Note_on_c, 9, 36, 119
1, 51370, Note_on_c, 9, 42, 0
1, 51599, Note_on_c, 9, 40, 0
1, 51600, Note_on_c, 9, 46, 121
1, 51610, Note_on_c, 9, 46, 0
1, 51839, Note_on_c, 9, 36, 0
1, 51840, Note_on_c, 9, 42, 112
1, 51840, Note_on_c, 9, 49, 92
1, 51840, Note_on_c, 9, 36, 121
1, 51850, Note_on_c, 9, 42, 0
1, 51850, Note_on_c, 9, 49, 0
1, 52080, Note_on_c, 9, 42, 83
1, 52090, Note_on_c, 9, 42, 0
1, 52319, Note_on_c, 9, 36, 0
1, 52320, Note_on_c, 9, 40, 127
1, 52320, Note_on_c, 9, 42, 125
1, 52320, Note_on_c, 9, 36, 120
1, 52330, Note_on_c, 9, 42, 0
1, 52559, Note_on_c, 9, 40, 0
1, 52560, Note_on_c, 9, 42, 93
1, 52570, Note_on_c, 9, 42, 0
1, 52799, Note_on_c, 9, 36, 0
1, 52800, Note_on_c, 9, 42, 114
1, 52800, Note_on_c, 9, 36, 120
1, 52810, Note_on_c, 9, 42, 0
1, 53040, Note_on_c, 9, 42, 94
1, 53050, Note_on_c, 9, 42, 0
1, 53279, Note_on_c, 9, 36, 0
1, 53280, Note_on_c, 9, 40, 127
1, 53280, Note_on_c, 9, 42, 126
1, 53280, Note_on_c, 9, 36, 119
1, 53290, Note_on_c, 9, 42, 0
1, 53519, Note_on_c, 9, 40, 0
1, 53520, Note_on_c, 9, 46, 121
1, 53530, Note_on_c, 9, 46, 0
1, 53759, Note_on_c, 9, 36, 0
1, 53760, Note_on_c, 9, 42, 112
1, 53760, Note_on_c, 9, 36, 121
1, 53770, Note_on_c, 9, 42, 0
1, 54000, Note_on_c, 9, 42, 83
1, 54010, Note_on_c, 9, 42, 0
1, 54239, Note_on_c, 9, 36, 0
1, 54240, Note_on_c, 9, 40, 127
1, 54240, Note_on_c, 9, 42, 125
1, 54240, Note_on_c, 9, 36, 120
1, 54250, Note_on_c, 9, 42, 0
1, 54479, Note_on_c, 9, 40, 0
1, 54480, Note_on_c, 9, 42, 93
1, 54490, Note_on_c, 9, 42, 0
1, 54719, Note_on_c, 9, 36, 0
1, 54720, Note_on_c, 9, 42, 114
1, 54720, Note_on_c, 9, 36, 120
1, 54730, Note_on_c, 9, 42, 0
1, 54960, Note_on_c, 9, 42, 94
1, 54970, Note_on_c, 9, 42, 0
1, 55199, Note_on_c, 9, 36, 0
1, 55200, Note_on_c, 9, 40, 127
1, 55200, Note_on_c, 9, 42, 126
1, 55200, Note_on_c, 9, 36, 119
1, 55210, Note_on_c, 9, 42, 0
1, 55439, Note_on_c, 9, 40, 0
1, 55440, Note_on_c, 9, 46, 121
1, 55450, Note_on_c, 9, 46, 0
1, 55679, Note_on_c, 9, 36, 0
1, 55680, Note_on_c, 9, 42, 112
1, 55680, Note_on_c, 9, 49, 92
1, 55680, Note_on_c, 9, 36, 121
1, 55690, Note_on_c, 9, 42, 0
1, 55690, Note_on_c, 9, 49, 0
1, 55920, Note_on_c, 9, 42, 83
1, 55930, Note_on_c, 9, 42, 0
1, 56159, Note_on_c, 9, 36, 0
1, 56160, Note_on_c, 9, 40, 127
1, 56160, Note_on_c, 9, 42, 125
1, 56160, Note_on_c, 9, 36, 120
1, 56170, Note_on_c, 9, 42, 0
1, 56399, Note_on_c, 9, 40, 0
1, 56400, Note_on_c, 9, 42, 93
1, 56410, Note_on_c, 9, 42, 0
1, 56639, Note_on_c, 9, 36, 0
1, 56640, Note_on_c, 9, 42, 114
1, 56640, Note_on_c, 9, 36, 120
1, 56650, Note_on_c, 9, 42, 0
1, 56880, Note_on_c, 9, 42, 94
1, 56890, Note_on_c, 9, 42, 0
1, 57119, Note_on_c, 9, 36, 0
1, 57120, Note_on_c, 9, 40, 127
1, 57120, Note_on_c, 9, 42, 126
1, 57120, Note_on_c, 9, 36, 119
1, 57130, Note_on_c, 9, 42, 0
1, 57359, Note_on_c, 9, 40, 0
1, 57360, Note_on_c, 9, 46, 121
1, 57370, Note_on_c, 9, 46, 0
1, 57599, Note_on_c, 9, 36, 0
1, 57600, Note_on_c, 9, 42, 112
1, 57600, Note_on_c, 9, 49, 92
1, 57600, Note_on_c, 9, 36, 121
1, 57610, Note_on_c, 9, 42, 0
1, 57610, Note_on_c, 9, 49, 0
1, 57840, Note_on_c, 9, 42, 83
1, 57850, Note_on_c, 9, 42, 0
1, 58079, Note_on_c, 9, 36, 0
1, 58080, Note_on_c, 9, 40, 127
1, 58080, Note_on_c, 9, 42, 125
1, 58080, Note_on_c, 9, 36, 120
1, 58090, Note_on_c, 9, 42, 0
1, 58319, Note_on_c, 9, 40, 0
1, 58320, Note_on_c, 9, 42, 93
1, 58330, Note_on_c, 9, 42, 0
1, 58559, Note_on_c, 9, 36, 0
1, 58560, Note_on_c, 9, 42, 114
1, 58560, Note_on_c, 9, 36, 120
1, 58570, Note_on_c, 9, 42, 0
1, 58800, Note_on_c, 9, 42, 94
1, 58810, Note_on_c, 9, 42, 0
1, 59039, Note_on_c, 9, 36, 0
1, 59040, Note_on_c, 9, 40, 127
1, 59040, Note_on_c, 9, 42, 126
1, 59040, Note_on_c, 9, 36, 119
1, 59050, Note_on_c, 9, 42, 0
1, 59279, Note_on_c, 9, 40, 0
1, 59280, Note_on_c, 9, 46, 121
1, 59290, Note_on_c, 9, 46, 0
1, 59519, Note_on_c, 9, 36, 0
1, 59520, Note_on_c, 9, 42, 112
1, 59520, Note_on_c, 9, 36, 121
1, 59530, Note_on_c, 9, 42, 0
1, 59760, Note_on_c, 9, 42, 83
1, 59770, Note_on_c, 9, 42, 0
1, 59999, Note_on_c, 9, 36, 0
1, 60000, Note_on_c, 9, 40, 127
1, 60000, Note_on_c, 9, 42, 125
1, 60000, Note_on_c, 9, 36, 120
1, 60010, Note_on_c, 9, 42, 0
1, 60239, Note_on_c, 9, 40, 0
1, 60240, Note_on_c, 9, 42, 93
1, 60250, Note_on_c, 9, 42, 0
1, 60479, Note_on_c, 9, 36, 0
1, 60480, Note_on_c, 9, 42, 114
1, 60480, Note_on_c, 9, 36, 120
1, 60490, Note_on_c, 9, 42, 0
1, 60720, Note_on_c, 9, 42, 94
1, 60730, Note_on_c, 9, 42, 0
1, 60959, Note_on_c, 9, 36, 0
1, 60960, Note_on_c, 9, 40, 127
1, 60960, Note_on_c, 9, 42, 126
1, 60960, Note_on_c, 9, 36, 119
1, 60970, Note_on_c, 9, 42, 0
1, 61199, Note_on_c, 9, 40, 0
1, 61200, Note_on_c, 9, 46, 121
1, 61210, Note_on_c, 9, 46, 0
1, 61439, Note_on_c, 9, 36, 0
1, 61440, Note_on_c, 9, 42, 112
1, 61440, Note_on_c, 9, 36, 121
1, 61450, Note_on_c, 9, 42, 0
1, 61680, Note_on_c, 9, 42, 83
1, 61690, Note_on_c, 9, 42, 0
1, 61919, Note_on_c, 9, 36, 0
1, 61920, Note_on_c, 9, 40, 127
1, 61920, Note_on_c, 9, 42, 125
1, 61920, Note_on_c, 9, 36, 120
1, 61930, Note_on_c, 9, 42, 0
1, 62159, Note_on_c, 9, 40, 0
1, 62160, Note_on_c, 9, 42, 93
1, 62170, Note_on_c, 9, 42, 0
1, 62399, Note_on_c, 9, 36, 0
1, 62400, Note_on_c, 9, 42, 114
1, 62400, Note_on_c, 9, 36, 120
1, 62410, Note_on_c, 9, 42, 0
1, 62640, Note_on_c, 9, 42, 94
1, 62650, Note_on_c, 9, 42, 0
1, 62879, Note_on_c, 9, 36, 0
1, 62880, Note_on_c, 9, 40, 127
1, 62880, Note_on_c, 9, 42, 126
1, 62880, Note_on_c, 9, 36, 119
1, 62890, Note_on_c, 9, 42, 0
1, 63119, Note_on_c, 9, 40, 0
1, 63120, Note_on_c, 9, 46, 121
1, 63130, Note_on_c, 9, 46, 0
1, 63359, Note_on_c, 9, 36, 0
1, 63360, Note_on_c, 9, 42, 112
1, 63360, Note_on_c, 9, 36, 121
1, 63370, Note_on_c, 9, 42, 0
1, 63600, Note_on_c, 9, 42, 83
1, 63610, Note_on_c, 9, 42, 0
1, 63839, Note_on_c, 9, 36, 0
1, 63840, Note_on_c, 9, 40, 127
1, 63840, Note_on_c, 9, 42, 125
1, 63840, Note_on_c, 9, 36, 120
1, 63850, Note_on_c, 9, 42, 0
1, 64079, Note_on_c, 9, 40, 0
1, 64080, Note_on_c, 9, 42, 93
1, 64090, Note_on_c, 9, 42, 0
1, 64319, Note_on_c, 9, 36, 0
1, 64320, Note_on_c, 9, 42, 114
1, 64320, Note_on_c, 9, 36, 120
1, 64330, Note_on_c, 9, 42, 0
1, 64560, Note_on_c, 9, 42, 94
1, 64570, Note_on_c, 9, 42, 0
1, 64799, Note_on_c, 9, 36, 0
1, 64800, Note_on_c, 9, 40, 127
1, 64800, Note_on_c, 9, 42, 126
1, 64800, Note_on_c, 9, 36, 119
1, 64810, Note_on_c, 9, 42, 0
1, 65039, Note_on_c, 9, 40, 0
1, 65040, Note_on_c, 9, 46, 121
1, 65050, Note_on_c, 9, 46, 0
1, 65279, Note_on_c, 9, 36, 0
1, 65280, Note_on_c, 9, 42, 112
1, 65280, Note_on_c, 9, 36, 121
1, 65290, Note_on_c, 9, 42, 0
1, 65520, Note_on_c, 9, 42, 83
1, 65530, Note_on_c, 9, 42, 0
1, 65759, Note_on_c, 9, 36, 0
1, 65760, Note_on_c, 9, 40, 127
1, 65760, Note_on_c, 9, 42, 125
1, 65760, Note_on_c, 9, 36, 120
1, 65770, Note_on_c, 9, 42, 0
1, 65999, Note_on_c, 9, 40, 0
1, 66000, Note_on_c, 9, 42, 93
1, 66010, Note_on_c, 9, 42, 0
1, 66239, Note_on_c, 9, 36, 0
1, 66240, Note_on_c, 9, 42, 114
1, 66240, Note_on_c, 9, 36, 120
1, 66250, Note_on_c, 9, 42, 0
1, 66480, Note_on_c, 9, 42, 94
1, 66490, Note_on_c, 9, 42, 0
1, 66719, Note_on_c, 9, 36, 0
1, 66720, Note_on_c, 9, 40, 127
1, 66720, Note_on_c, 9, 42, 126
1, 66720, Note_on_c, 9, 36, 119
1, 66730, Note_on_c, 9, 42, 0
1, 66959, Note_on_c, 9, 40, 0
1, 66960, Note_on_c, 9, 46, 121
1, 66970, Note_on_c, 9, 46, 0
1, 67199, Note_on_c, 9, 36, 0
1, 67200, Note_on_c, 9, 42, 112
1, 67200, Note_on_c, 9, 36, 121
1, 67210, Note_on_c, 9, 42, 0
1, 67440, Note_on_c, 9, 42, 83
1, 67450, Note_on_c, 9, 42, 0
1, 67679, Note_on_c, 9, 36, 0
1, 67680, Note_on_c, 9, 40, 127
1, 67680, Note_on_c, 9, 42, 125
1, 67680, Note_on_c, 9, 36, 120
1, 67690, Note_on_c, 9, 42, 0
1, 67919, Note_on_c, 9, 40, 0
1, 67920, Note_on_c, 9, 42, 93
1, 67930, Note_on_c, 9, 42, 0
1, 68159, Note_on_c, 9, 36, 0
1, 68160, Note_on_c, 9, 42, 114
1, 68160, Note_on_c, 9, 36, 120
1, 68170, Note_on_c, 9, 42, 0
1, 68400, Note_on_c, 9, 42, 94
1, 68410, Note_on_c, 9, 42, 0
1, 68639, Note_on_c, 9, 36, 0
1, 68640, Note_on_c, 9, 40, 127
1, 68640, Note_on_c, 9, 42, 126
1, 68640, Note_on_c, 9, 36, 119
1, 68650, Note_on_c, 9, 42, 0
1, 68879, Note_on_c, 9, 40, 0
1, 68880, Note_on_c, 9, 46, 121
1, 68890, Note_on_c, 9, 46, 0
1, 69119, Note_on_c, 9, 36, 0
1, 69120, Note_on_c, 9, 42, 112
1, 69120, Note_on_c, 9, 36, 121
1, 69130, Note_on_c, 9, 42, 0
1, 69360, Note_on_c, 9, 42, 83
1, 69370, Note_on_c, 9, 42, 0
1, 69599, Note_on_c, 9, 36, 0
1, 69600, Note_on_c, 9, 40, 127
1, 69600, Note_on_c, 9, 42, 125
1, 69600, Note_on_c, 9, 36, 120
1, 69610, Note_on_c, 9, 42, 0
1, 69839, Note_on_c, 9, 40, 0
1, 69840, Note_on_c, 9, 42, 93
1, 69850, Note_on_c, 9, 42, 0
1, 70079, Note_on_c, 9, 36, 0
1, 70080, Note_on_c, 9, 42, 114
1, 70080, Note_on_c, 9, 36, 120
1, 70090, Note_on_c, 9, 42, 0
1, 70320, Note_on_c, 9, 42, 94
1, 70330, Note_on_c, 9, 42, 0
1, 70559, Note_on_c, 9, 36, 0
1, 70560, Note_on_c, 9, 40, 127
1, 70560, Note_on_c, 9, 42, 126
1, 70560, Note_on_c, 9, 36, 119
1, 70570, Note_on_c, 9, 42, 0
1, 70799, Note_on_c, 9, 40, 0
1, 70800, Note_on_c, 9, 46, 121
1, 70810, Note_on_c, 9, 46, 0
1, 71039, Note_on_c, 9, 36, 0
1, 71040, Note_on_c, 9, 42, 112
1, 71040, Note_on_c, 9, 36, 121
1, 71050, Note_on_c, 9, 42, 0
1, 71280, Note_on_c, 9, 42, 83
1, 71290, Note_on_c, 9, 42, 0
1, 71519, Note_on_c, 9, 36, 0
1, 71520, Note_on_c, 9, 40, 127
1, 71520, Note_on_c, 9, 42, 125
1, 71520, Note_on_c, 9, 36, 120
1, 71530, Note_on_c, 9, 42, 0
1, 71759, Note_on_c, 9, 40, 0
1, 71760, Note_on_c, 9, 42, 93
1, 71770, Note_on_c, 9, 42, 0
1, 71999, Note_on_c, 9, 36, 0
1, 72000, Note_on_c, 9, 42, 114
1, 72000, Note_on_c, 9, 36, 120
1, 72010, Note_on_c, 9, 42, 0
1, 72240, Note_on_c, 9, 42, 94
1, 72250, Note_on_c, 9, 42, 0
1, 72479, Note_on_c, 9, 36, 0
1, 72480, Note_on_c, 9, 40, 127
1, 72480, Note_on_c, 9, 42, 126
1, 72480, Note_on_c, 9, 36, 119
1, 72490, Note_on_c, 9, 42, 0
1, 72719, Note_on_c, 9, 40, 0
1, 72720, Note_on_c, 9, 46, 121
1, 72730, Note_on_c, 9, 46, 0
1, 72959, Note_on_c, 9, 36, 0
1, 72960, Note_on_c, 9, 42, 112
1, 72960, Note_on_c, 9, 36, 121
1, 72970, Note_on_c, 9, 42, 0
1, 73200, Note_on_c, 9, 42, 83
1, 73210, Note_on_c, 9, 42, 0
1, 73439, Note_on_c, 9, 36, 0
1, 73440, Note_on_c, 9, 40, 127
1, 73440, Note_on_c, 9, 42, 125
1, 73440, Note_on_c, 9, 36, 120
1, 73450, Note_on_c, 9, 42, 0
1, 73679, Note_on_c, 9, 40, 0
1, 73680, Note_on_c, 9, 42, 93
1, 73690, Note_on_c, 9, 42, 0
1, 73919, Note_on_c, 9, 36, 0
1, 73920, Note_on_c, 9, 42, 114
1, 73920, Note_on_c, 9, 36, 120
1, 73930, Note_on_c, 9, 42, 0
1, 74160, Note_on_c, 9, 42, 94
1, 74170, Note_on_c, 9, 42, 0
1, 74399, Note_on_c, 9, 36, 0
1, 74400, Note_on_c, 9, 40, 127
1, 74400, Note_on_c, 9, 42, 126
1, 74400, Note_on_c, 9, 36, 119
1, 74410, Note_on_c, 9, 42, 0
1, 74639, Note_on_c, 9, 40, 0
1, 74640, Note_on_c, 9, 46, 121
1, 74650, Note_on_c, 9, 46, 0
1, 74879, Note_on_c, 9, 36, 0
1, 74880, Note_on_c, 9, 42, 112
1, 74880, Note_on_c, 9, 36, 121
1, 74890, Note_on_c, 9, 42, 0
1, 75120, Note_on_c, 9, 42, 83
1, 75130, Note_on_c, 9, 42, 0
1, 75359, Note_on_c, 9, 36, 0
1, 75360, Note_on_c, 9, 40, 127
1, 75360, Note_on_c, 9, 42, 125
1, 75360, Note_on_c, 9, 36, 120
1, 75370, Note_on_c, 9, 42, 0
1, 75599, Note_on_c, 9, 40, 0
1, 75600, Note_on_c, 9, 42, 93
1, 75610, Note_on_c, 9, 42, 0
1, 75839, Note_on_c, 9, 36, 0
1, 75840, Note_on_c, 9, 42, 114
1, 75840, Note_on_c, 9, 36, 120
1, 75850, Note_on_c, 9, 42, 0
1, 76080, Note_on_c, 9, 42, 94
1, 76090, Note_on_c, 9, 42, 0
1, 76319, Note_on_c, 9, 36, 0
1, 76320, Note_on_c, 9, 40, 127
1, 76320, Note_on_c, 9, 42, 126
1, 76320, Note_on_c, 9, 36, 119
1, 76330, Note_on_c, 9, 42, 0
1, 76559, Note_on_c, 9, 40, 0
1, 76560, Note_on_c, 9, 46, 121
1, 76570, Note_on_c, 9, 46, 0
1, 76799, Note_on_c, 9, 36, 0
1, 76800, Note_on_c, 9, 42, 112
1, 76800, Note_on_c, 9, 36, 121
1, 76810, Note_on_c, 9, 42, 0
1, 77040, Note_on_c, 9, 42, 83
1, 77050, Note_on_c, 9, 42, 0
1, 77279, Note_on_c, 9, 36, 0
1, 77280, Note_on_c, 9, 40, 127
1, 77280, Note_on_c, 9, 42, 125
1, 77280, Note_on_c, 9, 36, 120
1, 77290, Note_on_c, 9, 42, 0
1, 77519, Note_on_c, 9, 40, 0
1, 77520, Note_on_c, 9, 42, 93
1, 77530, Note_on_c, 9, 42, 0
1, 77759, Note_on_c, 9, 36, 0
1, 77760, Note_on_c, 9, 42, 114
1, 77760, Note_on_c, 9, 36, 120
1, 77770, Note_on_c, 9, 42, 0
1, 78000, Note_on_c, 9, 42, 94
1, 78010, Note_on_c, 9, 42, 0
1, 78239, Note_on_c, 9, 36, 0
1, 78240, Note_on_c, 9, 40, 127
1, 78240, Note_on_c, 9, 42, 126
1, 78240, Note_on_c, 9, 36, 119
1, 78250, Note_on_c, 9, 42, 0
1, 78479, Note_on_c, 9, 40, 0
1, 78480, Note_on_c, 9, 46, 121
1, 78490, Note_on_c, 9, 46, 0
1, 78719, Note_on_c, 9, 36, 0
1, 78720, Note_on_c, 9, 42, 112
1, 78720, Note_on_c, 9, 36, 121
1, 78730, Note_on_c, 9, 42, 0
1, 78960, Note_on_c, 9, 42, 83
1, 78970, Note_on_c, 9, 42, 0
1, 79199, Note_on_c, 9, 36, 0
1, 79200, Note_on_c, 9, 40, 127
1, 79200, Note_on_c, 9, 42, 125
1, 79200, Note_on_c, 9, 36, 120
1, 79210, Note_on_c, 9, 42, 0
1, 79439, Note_on_c, 9, 40, 0
1, 79440, Note_on_c, 9, 42, 93
1, 79450, Note_on_c, 9, 42, 0
1, 79679, Note_on_c, 9, 36, 0
1, 79680, Note_on_c, 9, 42, 114
1, 79680, Note_on_c, 9, 36, 120
1, 79690, Note_on_c, 9, 42, 0
1, 79920, Note_on_c, 9, 42, 94
1, 79930, Note_on_c, 9, 42, 0
1, 80159, Note_on_c, 9, 36, 0
1, 80160, Note_on_c, 9, 40, 127
1, 80160, Note_on_c, 9, 42, 126
1, 80160, Note_on_c, 9, 36, 119
1, 80170, Note_on_c, 9, 42, 0
1, 80399, Note_on_c, 9, 40, 0
1, 80400, Note_on_c, 9, 46, 121
1, 80410, Note_on_c, 9, 46, 0
1, 80639, Note_on_c, 9, 36, 0
1, 80640, Note_on_c, 9, 42, 112
1, 80640, Note_on_c, 9, 36, 121
1, 80652, Note_on_c, 9, 42, 0
1, 80928, Note_on_c, 9, 42, 83
1, 80936, Note_on_c, 9, 42, 0
1, 81119, Note_on_c, 9, 36, 0
1, 81216, Note_on_c, 9, 40, 127
1, 81216, Note_on_c, 9, 42, 125
1, 81224, Note_on_c, 9, 42, 0
1, 81240, Note_on_c, 9, 36, 120
1, 81407, Note_on_c, 9, 40, 0
1, 81408, Note_on_c, 9, 42, 93
1, 81416, Note_on_c, 9, 42, 0
1, 81599, Note_on_c, 9, 36, 0
1, 81600, Note_on_c, 9, 42, 114
1, 81600, Note_on_c, 9, 36, 120
1, 81610, Note_on_c, 9, 42, 0
1, 81840, Note_on_c, 9, 42, 94
1, 81850, Note_on_c, 9, 42, 0
1, 82079, Note_on_c, 9, 36, 0
1, 82080, Note_on_c, 9, 40, 127
1, 82080, Note_on_c, 9, 42, 126
1, 82080, Note_on_c, 9, 36, 119
1, 82090, Note_on_c, 9, 42, 0
1, 82319, Note_on_c, 9, 40, 0
1, 82320, Note_on_c, 9, 46, 121
1, 82330, Note_on_c, 9, 46, 0
1, 82559, Note_on_c, 9, 36, 0
1, 82560, Note_on_c, 9, 42, 112
1, 82560, Note_on_c, 9, 36, 121
1, 82570, Note_on_c, 9, 42, 0
1, 82800, Note_on_c, 9, 42, 83
1, 82810, Note_on_c, 9, 42, 0
1, 83039, Note_on_c, 9, 36, 0
1, 83040, Note_on_c, 9, 40, 127
1, 83040, Note_on_c, 9, 42, 125
1, 83040, Note_on_c, 9, 36, 120
1, 83050, Note_on_c, 9, 42, 0
1, 83279, Note_on_c, 9, 40, 0
1, 83280, Note_on_c, 9, 42, 93
1, 83290, Note_on_c, 9, 42, 0
1, 83519, Note_on_c, 9, 36, 0
1, 83520, Note_on_c, 9, 42, 114
1, 83520, Note_on_c, 9, 36, 120
1, 83530, Note_on_c, 9, 42, 0
1, 83760, Note_on_c, 9, 42, 94
1, 83770, Note_on_c, 9, 42, 0
1, 83999, Note_on_c, 9, 36, 0
1, 84000, Note_on_c, 9, 40, 127
1, 84000, Note_on_c, 9, 42, 126
1, 84000, Note_on_c, 9, 36, 119
1, 84010, Note_on_c, 9, 42, 0
1, 84239, Note_on_c, 9, 40, 0
1, 84240, Note_on_c, 9, 46, 121
1, 84250, Note_on_c, 9, 46, 0
1, 84479, Note_on_c, 9, 36, 0
1, 84480, Note_on_c, 9, 42, 112
1, 84480, Note_on_c, 9, 36, 121
1, 84492, Note_on_c, 9, 42, 0
1, 84768, Note_on_c, 9, 42, 83
1, 84776, Note_on_c, 9, 42, 0
1, 84959, Note_on_c, 9, 36, 0
1, 85056, Note_on_c, 9, 40, 127
1, 85056, Note_on_c, 9, 42, 125
1, 85064, Note_on_c, 9, 42, 0
1, 85080, Note_on_c, 9, 36, 120
1, 85247, Note_on_c, 9, 40, 0
1, 85248, Note_on_c, 9, 42, 93
1, 85256, Note_on_c, 9, 42, 0
1, 85439, Note_on_c, 9, 36, 0
1, 85440, Note_on_c, 9, 42, 114
1, 85440, Note_on_c, 9, 36, 120
1, 85450, Note_on_c, 9, 42, 0
1, 85680, Note_on_c, 9, 42, 94
1, 85690, Note_on_c, 9, 42, 0
1, 85919, Note_on_c, 9, 36, 0
1, 85920, Note_on_c, 9, 40, 127
1, 85920, Note_on_c, 9, 42, 126
1, 85920, Note_on_c, 9, 36, 119
1, 85930, Note_on_c, 9, 42, 0
1, 86159, Note_on_c, 9, 40, 0
1, 86160, Note_on_c, 9, 46, 121
1, 86170, Note_on_c, 9, 46, 0
1, 86399, Note_on_c, 9, 36, 0
1, 86400, Note_on_c, 9, 42, 112
1, 86400, Note_on_c, 9, 36, 121
1, 86410, Note_on_c, 9, 42, 0
1, 86640, Note_on_c, 9, 42, 83
1, 86650, Note_on_c, 9, 42, 0
1, 86879, Note_on_c, 9, 36, 0
1, 86880, Note_on_c, 9, 40, 127
1, 86880, Note_on_c, 9, 42, 125
1, 86880, Note_on_c, 9, 36, 120
1, 86890, Note_on_c, 9, 42, 0
1, 87119, Note_on_c, 9, 40, 0
1, 87120, Note_on_c, 9, 42, 93
1, 87130, Note_on_c, 9, 42, 0
1, 87359, Note_on_c, 9, 36, 0
1, 87360, Note_on_c, 9, 42, 114
1, 87360, Note_on_c, 9, 36, 120
1, 87370, Note_on_c, 9, 42, 0
1, 87600, Note_on_c, 9, 42, 94
1, 87610, Note_on_c, 9, 42, 0
1, 87839, Note_on_c, 9, 36, 0
1, 87840, Note_on_c, 9, 40, 127
1, 87840, Note_on_c, 9, 42, 126
1, 87840, Note_on_c, 9, 36, 119
1, 87850, Note_on_c, 9, 42, 0
1, 88079, Note_on_c, 9, 40, 0
1, 88080, Note_on_c, 9, 46, 121
1, 88090, Note_on_c, 9, 46, 0
1, 88319, Note_on_c, 9, 36, 0
1, 88320, Note_on_c, 9, 42, 112
1, 88320, Note_on_c, 9, 36, 121
1, 88332, Note_on_c, 9, 42, 0
1, 88608, Note_on_c, 9, 42, 83
1, 88616, Note_on_c, 9, 42, 0
1, 88799, Note_on_c, 9, 36, 0
1, 88896, Note_on_c, 9, 40, 127
1, 88896, Note_on_c, 9, 42, 125
1, 88904, Note_on_c, 9, 42, 0
1, 88920, Note_on_c, 9, 36, 120
1, 89087, Note_on_c, 9, 40, 0
1, 89088, Note_on_c, 9, 42, 93
1, 89096, Note_on_c, 9, 42, 0
1, 89279, Note_on_c, 9, 36, 0
1, 89280, Note_on_c, 9, 42, 114
1, 89280, Note_on_c, 9, 36, 120
1, 89290, Note_on_c, 9, 42, 0
1, 89520, Note_on_c, 9, 42, 94
1, 89530, Note_on_c, 9, 42, 0
1, 89759, Note_on_c, 9, 36, 0
1, 89760, Note_on_c, 9, 40, 127
1, 89760, Note_on_c, 9, 42, 126
1, 89760, Note_on_c, 9, 36, 119
1, 89770, Note_on_c, 9, 42, 0
1, 89999, Note_on_c, 9, 40, 0
1, 90000, Note_on_c, 9, 46, 121
1, 90010, Note_on_c, 9, 46, 0
1, 90239, Note_on_c, 9, 36, 0
1, 90240, Note_on_c, 9, 42, 112
1, 90240, Note_on_c, 9, 49, 92
1, 90240, Note_on_c, 9, 36, 121
1, 90250, Note_on_c, 9, 42, 0
1, 90250, Note_on_c, 9, 49, 0
1, 90480, Note_on_c, 9, 42, 83
1, 90490, Note_on_c, 9, 42, 0
1, 90719, Note_on_c, 9, 36, 0
1, 90720, Note_on_c, 9, 40, 127
1, 90720, Note_on_c, 9, 42, 125
1, 90720, Note_on_c, 9, 36, 120
1, 90730, Note_on_c, 9, 42, 0
1, 90959, Note_on_c, 9, 40, 0
1, 90960, Note_on_c, 9, 42, 93
1, 90970, Note_on_c, 9, 42, 0
1, 91199, Note_on_c, 9, 36, 0
1, 91200, Note_on_c, 9, 42, 114
1, 91200, Note_on_c, 9, 36, 120
1, 91210, Note_on_c, 9, 42, 0
1, 91440, Note_on_c, 9, 42, 94
1, 91450, Note_on_c, 9, 42, 0
1, 91679, Note_on_c, 9, 36, 0
1, 91680, Note_on_c, 9, 40, 127
1, 91680, Note_on_c, 9, 42, 126
1, 91680, Note_on_c, 9, 36, 119
1, 91690, Note_on_c, 9, 42, 0
1, 91919, Note_on_c, 9, 40, 0
1, 91920, Note_on_c, 9, 46, 121
1, 91930, Note_on_c, 9, 46, 0
1, 92159, Note_on_c, 9, 36, 0
1, 92160, Note_on_c, 9, 42, 112
1, 92160, Note_on_c, 9, 36, 121
1, 92170, Note_on_c, 9, 42, 0
1, 92400, Note_on_c, 9, 42, 83
1, 92410, Note_on_c, 9, 42, 0
1, 92639, Note_on_c, 9, 36, 0
1, 92640, Note_on_c, 9, 40, 127
1, 92640, Note_on_c, 9, 42, 125
1, 92640, Note_on_c, 9, 36, 120
1, 92650, Note_on_c, 9, 42, 0
1, 92879, Note_on_c, 9, 40, 0
1, 92880, Note_on_c, 9, 42, 93
1, 92890, Note_on_c, 9, 42, 0
1, 93119, Note_on_c, 9, 36, 0
1, 93120, Note_on_c, 9, 42, 114
1, 93120, Note_on_c, 9, 36, 120
1, 93130, Note_on_c, 9, 42, 0
1, 93360, Note_on_c, 9, 42, 94
1, 93370, Note_on_c, 9, 42, 0
1, 93599, Note_on_c, 9, 36, 0
1, 93600, Note_on_c, 9, 40, 127
1, 93600, Note_on_c, 9, 42, 126
1, 93600, Note_on_c, 9, 36, 119
1, 93610, Note_on_c, 9, 42, 0
1, 93839, Note_on_c, 9, 40, 0
1, 93840, Note_on_c, 9, 46, 121
1, 93850, Note_on_c, 9, 46, 0
1, 94079, Note_on_c, 9, 36, 0
1, 94080, Note_on_c, 9, 42, 112
1, 94080, Note_on_c, 9, 36, 121
1, 94090, Note_on_c, 9, 42, 0
1, 94320, Note_on_c, 9, 42, 83
1, 94330, Note_on_c, 9, 42, 0
1, 94559, Note_on_c, 9, 36, 0
1, 94560, Note_on_c, 9, 40, 127
1, 94560, Note_on_c, 9, 42, 125
1, 94560, Note_on_c, 9, 36, 120
1, 94570, Note_on_c, 9, 42, 0
1, 94799, Note_on_c, 9, 40, 0
1, 94800, Note_on_c, 9, 42, 93
1, 94810, Note_on_c, 9, 42, 0
1, 95039, Note_on_c, 9, 36, 0
1, 95040, Note_on_c, 9, 42, 114
1, 95040, Note_on_c, 9, 36, 120
1, 95050, Note_on_c, 9, 42, 0
1, 95280, Note_on_c, 9, 42, 94
1, 95290, Note_on_c, 9, 42, 0
1, 95519, Note_on_c, 9, 36, 0
1, 95520, Note_on_c, 9, 40, 127
1, 95520, Note_on_c, 9, 42, 126
1, 95520, Note_on_c, 9, 36, 119
1, 95530, Note_on_c, 9, 42, 0
1, 95759, Note_on_c, 9, 40, 0
1, 95760, Note_on_c, 9, 46, 121
1, 95770, Note_on_c, 9, 46, 0
1, 95999, Note_on_c, 9, 36, 0
1, 96000, Note_on_c, 9, 42, 112
1, 96000, Note_on_c, 9, 36, 121
1, 96010, Note_on_c, 9, 42, 0
1, 96240, Note_on_c, 9, 42, 83
1, 96250, Note_on_c, 9, 42, 0
1, 96479, Note_on_c, 9, 36, 0
1, 96480, Note_on_c, 9, 40, 127
1, 96480, Note_on_c, 9, 42, 125
1, 96480, Note_on_c, 9, 36, 120
1, 96490, Note_on_c, 9, 42, 0
1, 96719, Note_on_c, 9, 40, 0
1, 96720, Note_on_c, 9, 42, 93
1, 96730, Note_on_c, 9, 42, 0
1, 96959, Note_on_c, 9, 36, 0
1, 96960, Note_on_c, 9, 42, 114
1, 96960, Note_on_c, 9, 36, 120
1, 96970, Note_on_c, 9, 42, 0
1, 97200, Note_on_c, 9, 42, 94
1, 97210, Note_on_c, 9, 42, 0
1, 97439, Note_on_c, 9, 36, 0
1, 97440, Note_on_c, 9, 40, 127
1, 97440, Note_on_c, 9, 42, 126
1, 97440, Note_on_c, 9, 36, 119
1, 97450, Note_on_c, 9, 42, 0
1, 97679, Note_on_c, 9, 40, 0
1, 97680, Note_on_c, 9, 46, 121
1, 97690, Note_on_c, 9, 46, 0
1, 97919, Note_on_c, 9, 36, 0
1, 97920, Note_on_c, 9, 42, 112
1, 97920, Note_on_c, 9, 49, 92
1, 97920, Note_on_c, 9, 36, 121
1, 97930, Note_on_c, 9, 42, 0
1, 97930, Note_on_c, 9, 49, 0
1, 98160, Note_on_c, 9, 42, 83
1, 98170, Note_on_c, 9, 42, 0
1, 98399, Note_on_c, 9, 36, 0
1, 98400, Note_on_c, 9, 40, 127
1, 98400, Note_on_c, 9, 42, 125
1, 98400, Note_on_c, 9, 36, 120
1, 98410, Note_on_c, 9, 42, 0
1, 98639, Note_on_c, 9, 40, 0
1, 98640, Note_on_c, 9, 42, 93
1, 98650, Note_on_c, 9, 42, 0
1, 98879, Note_on_c, 9, 36, 0
1, 98880, Note_on_c, 9, 42, 114
1, 98880, Note_on_c, 9, 36, 120
1, 98890, Note_on_c, 9, 42, 0
1, 99120, Note_on_c, 9, 42, 94
1, 99130, Note_on_c, 9, 42, 0
1, 99359, Note_on_c, 9, 36, 0
1, 99360, Note_on_c, 9, 40, 127
1, 99360, Note_on_c, 9, 42, 126
1, 99360, Note_on_c, 9, 36, 119
1, 99370, Note_on_c, 9, 42, 0
1, 99599, Note_on_c, 9, 40, 0
1, 99600, Note_on_c, 9, 46, 121
1, 99610, Note_on_c, 9, 46, 0
1, 99839, Note_on_c, 9, 36, 0
1, 99840, Note_on_c, 9, 42, 112
1, 99840, Note_on_c, 9, 36, 121
1, 99852, Note_on_c, 9, 42, 0
1, 100128, Note_on_c, 9, 42, 83
1, 100136, Note_on_c, 9, 42, 0
1, 100319, Note_on_c, 9, 36, 0
1, 100416, Note_on_c, 9, 40, 127
1, 100416, Note_on_c, 9, 42, 125
1, 100424, Note_on_c, 9, 42, 0
1, 100440, Note_on_c, 9, 36, 120
1, 100607, Note_on_c, 9, 40, 0
1, 100608, Note_on_c, 9, 42, 93
1, 100616, Note_on_c, 9, 42, 0
1, 100799, Note_on_c, 9, 36, 0
1, 100800, Note_on_c, 9, 42, 114
1, 100800, Note_on_c, 9, 36, 120
1, 100810, Note_on_c, 9, 42, 0
1, 101040, Note_on_c, 9, 42, 94
1, 101050, Note_on_c, 9, 42, 0
1, 101279, Note_on_c, 9, 36, 0
1, 101280, Note_on_c, 9, 40, 127
1, 101280, Note_on_c, 9, 42, 126
1, 101280, Note_on_c, 9, 36, 119
1, 101290, Note_on_c, 9, 42, 0
1, 101519, Note_on_c, 9, 40, 0
1, 101520, Note_on_c, 9, 46, 121
1, 101530, Note_on_c, 9, 46, 0
1, 101759, Note_on_c, 9, 36, 0
1, 101760, Note_on_c, 9, 42, 112
1, 101760, Note_on_c, 9, 49, 92
1, 101760, Note_on_c, 9, 36, 121
1, 101770, Note_on_c, 9, 42, 0
1, 101770, Note_on_c, 9, 49, 0
1, 102000, Note_on_c, 9, 42, 83
1, 102010, Note_on_c, 9, 42, 0
1, 102239, Note_on_c, 9, 36, 0
1, 102240, Note_on_c, 9, 40, 127
1, 102240, Note_on_c, 9, 42, 125
1, 102240, Note_on_c, 9, 36, 120
1, 102250, Note_on_c, 9, 42, 0
1, 102479, Note_on_c, 9, 40, 0
1, 102480, Note_on_c, 9, 42, 93
1, 102490, Note_on_c, 9, 42, 0
1, 102719, Note_on_c, 9, 36, 0
1, 102720, Note_on_c, 9, 42, 114
1, 102720, Note_on_c, 9, 36, 120
1, 102730, Note_on_c, 9, 42, 0
1, 102960, Note_on_c, 9, 42, 94
1, 102970, Note_on_c, 9, 42, 0
1, 103199, Note_on_c, 9, 36, 0
1, 103200, Note_on_c, 9, 40, 127
1, 103200, Note_on_c, 9, 42, 126
1, 103200, Note_on_c, 9, 36, 119
1, 103210, Note_on_c, 9, 42, 0
1, 103439, Note_on_c, 9, 40, 0
1, 103440, Note_on_c, 9, 46, 121
1, 103450, Note_on_c, 9, 46, 0
1, 103679, Note_on_c, 9, 36, 0
1, 103680, Note_on_c, 9, 42, 112
1, 103680, Note_on_c, 9, 49, 92
1, 103680, Note_on_c, 9, 36, 121
1, 103690, Note_on_c, 9, 42, 0
1, 103690, Note_on_c, 9, 49, 0
1, 103920, Note_on_c, 9, 42, 83
1, 103930, Note_on_c, 9, 42, 0
1, 104159, Note_on_c, 9, 36, 0
1, 104160, Note_on_c, 9, 40, 127
1, 104160, Note_on_c, 9, 42, 125
1, 104160, Note_on_c, 9, 36, 120
1, 104170, Note_on_c, 9, 42, 0
1, 104399, Note_on_c, 9, 40, 0
1, 104400, Note_on_c, 9, 42, 93
1, 104410, Note_on_c, 9, 42, 0
1, 104639, Note_on_c, 9, 36, 0
1, 104640, Note_on_c, 9, 42, 114
1, 104640, Note_on_c, 9, 36, 120
1, 104650, Note_on_c, 9, 42, 0
1, 104880, Note_on_c, 9, 42, 94
1, 104890, Note_on_c, 9, 42, 0
1, 105119, Note_on_c, 9, 36, 0
1, 105120, Note_on_c, 9, 40, 127
1, 105120, Note_on_c, 9, 42, 126
1, 105120, Note_on_c, 9, 36, 119
1, 105130, Note_on_c, 9, 42, 0
1, 105359, Note_on_c, 9, 40, 0
1, 105360, Note_on_c, 9, 46, 121
1, 105370, Note_on_c, 9, 46, 0
1, 105599, Note_on_c, 9, 36, 0
1, 105600, Note_on_c, 9, 42, 112
1, 105600, Note_on_c, 9, 49, 92
1, 105600, Note_on_c, 9, 36, 121
1, 105610, Note_on_c, 9, 42, 0
1, 105610, Note_on_c, 9, 49, 0
1, 105840, Note_on_c, 9, 42, 83
1, 105850, Note_on_c, 9, 42, 0
1, 106079, Note_on_c, 9, 36, 0
1, 106080, Note_on_c, 9, 40, 127
1, 106080, Note_on_c, 9, 42, 125
1, 106080, Note_on_c, 9, 36, 120
1, 106090, Note_on_c, 9, 42, 0
1, 106319, Note_on_c, 9, 40, 0
1, 106320, Note_on_c, 9, 42, 93
1, 106330, Note_on_c, 9, 42, 0
1, 106559, Note_on_c, 9, 36, 0
1, 106560, Note_on_c, 9, 42, 114
1, 106560, Note_on_c, 9, 36, 120
1, 106570, Note_on_c, 9, 42, 0
1, 106800, Note_on_c, 9, 42, 94
1, 106810, Note_on_c, 9, 42, 0
1, 107039, Note_on_c, 9, 36, 0
1, 107040, Note_on_c, 9, 40, 127
1, 107040, Note_on_c, 9, 42, 126
1, 107040, Note_on_c, 9, 36, 119
1, 107050, Note_on_c, 9, 42, 0
1, 107279, Note_on_c, 9, 40, 0
1, 107280, Note_on_c, 9, 46, 121
1, 107290, Note_on_c, 9, 46, 0
1, 107519, Note_on_c, 9, 36, 0
1, 107520, Note_on_c, 9, 42, 112
1, 107520, Note_on_c, 9, 36, 121
1, 107532, Note_on_c, 9, 42, 0
1, 107808, Note_on_c, 9, 42, 83
1, 107816, Note_on_c, 9, 42, 0
1, 107999, Note_on_c, 9, 36, 0
1, 108096, Note_on_c, 9, 40, 127
1, 108096, Note_on_c, 9, 42, 125
1, 108104, Note_on_c, 9, 42, 0
1, 108120, Note_on_c, 9, 36, 120
1, 108287, Note_on_c, 9, 40, 0
1, 108288, Note_on_c, 9, 42, 93
1, 108296, Note_on_c, 9, 42, 0
1, 108479, Note_on_c, 9, 36, 0
1, 108480, Note_on_c, 9, 42, 114
1, 108480, Note_on_c, 9, 36, 120
1, 108490, Note_on_c, 9, 42, 0
1, 108720, Note_on_c, 9, 42, 94
1, 108730, Note_on_c, 9, 42, 0
1, 108959, Note_on_c, 9, 36, 0
1, 108960, Note_on_c, 9, 40, 127
1, 108960, Note_on_c, 9, 42, 126
1, 108960, Note_on_c, 9, 36, 119
1, 108970, Note_on_c, 9, 42, 0
1, 109199, Note_on_c, 9, 40, 0
1, 109200, Note_on_c, 9, 46, 121
1, 109210, Note_on_c, 9, 46, 0
1, 109439, Note_on_c, 9, 36, 0
1, 109440, Note_on_c, 9, 42, 112
1, 109440, Note_on_c, 9, 49, 92
1, 109440, Note_on_c, 9, 36, 121
1, 109450, Note_on_c, 9, 42, 0
1, 109450, Note_on_c, 9, 49, 0
1, 109680, Note_on_c, 9, 42, 83
1, 109690, Note_on_c, 9, 42, 0
1, 109919, Note_on_c, 9, 36, 0
1, 109920, Note_on_c, 9, 40, 127
1, 109920, Note_on_c, 9, 42, 125
1, 109920, Note_on_c, 9, 36, 120
1, 109930, Note_on_c, 9, 42, 0
1, 110159, Note_on_c, 9, 40, 0
1, 110160, Note_on_c, 9, 42, 93
1, 110170, Note_on_c, 9, 42, 0
1, 110399, Note_on_c, 9, 36, 0
1, 110400, Note_on_c, 9, 42, 114
1, 110400, Note_on_c, 9, 36, 120
1, 110410, Note_on_c, 9, 42, 0
1, 110640, Note_on_c, 9, 42, 94
1, 110650, Note_on_c, 9, 42, 0
1, 110879, Note_on_c, 9, 36, 0
1, 110880, Note_on_c, 9, 40, 127
1, 110880, Note_on_c, 9, 42, 126
1, 110880, Note_on_c, 9, 36, 119
1, 110890, Note_on_c, 9, 42, 0
1, 111119, Note_on_c, 9, 40, 0
1, 111120, Note_on_c, 9, 46, 121
1, 111130, Note_on_c, 9, 46, 0
1, 111359, Note_on_c, 9, 36, 0
1, 111360, Note_on_c, 9, 42, 112
1, 111360, Note_on_c, 9, 49, 92
1, 111360, Note_on_c, 9, 36, 121
1, 111370, Note_on_c, 9, 42, 0
1, 111370, Note_on_c, 9, 49, 0
1, 111600, Note_on_c, 9, 42, 83
1, 111610, Note_on_c, 9, 42, 0
1, 111839, Note_on_c, 9, 36, 0
1, 111840, Note_on_c, 9, 40, 127
1, 111840, Note_on_c, 9, 42, 125
1, 111840, Note_on_c, 9, 36, 120
1, 111850, Note_on_c, 9, 42, 0
1, 112079, Note_on_c, 9, 40, 0
1, 112080, Note_on_c, 9, 42, 93
1, 112090, Note_on_c, 9, 42, 0
1, 112319, Note_on_c, 9, 36, 0
1, 112320, Note_on_c, 9, 42, 114
1, 112320, Note_on_c, 9, 36, 120
1, 112330, Note_on_c, 9, 42, 0
1, 112560, Note_on_c, 9, 42, 94
1, 112570, Note_on_c, 9, 42, 0
1, 112799, Note_on_c, 9, 36, 0
1, 112800, Note_on_c, 9, 40, 127
1, 112800, Note_on_c, 9, 42, 126
1, 112800, Note_on_c, 9, 36, 119
1, 112810, Note_on_c, 9, 42, 0
1, 113039, Note_on_c, 9, 40, 0
1, 113040, Note_on_c, 9, 46, 121
1, 113050, Note_on_c, 9, 46, 0
1, 113279, Note_on_c, 9, 36, 0
1, 113280, Note_on_c, 9, 42, 112
1, 113280, Note_on_c, 9, 49, 92
1, 113280, Note_on_c, 9, 36, 121
1, 113290, Note_on_c, 9, 42, 0
1, 113290, Note_on_c, 9, 49, 0
1, 113520, Note_on_c, 9, 42, 83
1, 113530, Note_on_c, 9, 42, 0
1, 113759, Note_on_c, 9, 36, 0
1, 113760, Note_on_c, 9, 40, 127
1, 113760, Note_on_c, 9, 42, 125
1, 113760, Note_on_c, 9, 36, 120
1, 113770, Note_on_c, 9, 42, 0
1, 113999, Note_on_c, 9, 40, 0
1, 114000, Note_on_c, 9, 42, 93
1, 114010, Note_on_c, 9, 42, 0
1, 114239, Note_on_c, 9, 36, 0
1, 114240, Note_on_c, 9, 42, 114
1, 114240, Note_on_c, 9, 36, 120
1, 114250, Note_on_c, 9, 42, 0
1, 114480, Note_on_c, 9, 42, 94
1, 114490, Note_on_c, 9, 42, 0
1, 114719, Note_on_c, 9, 36, 0
1, 114720, Note_on_c, 9, 40, 127
1, 114720, Note_on_c, 9, 42, 126
1, 114720, Note_on_c, 9, 36, 119
1, 114730, Note_on_c, 9, 42, 0
1, 114959, Note_on_c, 9, 40, 0
1, 114960, Note_on_c, 9, 46, 121
1, 114970, Note_on_c, 9, 46, 0
1, 115199, Note_on_c, 9, 36, 0
1, 115200, Note_on_c, 9, 42, 112
1, 115200, Note_on_c, 9, 36, 121
1, 115210, Note_on_c, 9, 42, 0
1, 115440, Note_on_c, 9, 42, 83
1, 115450, Note_on_c, 9, 42, 0
1, 115679, Note_on_c, 9, 36, 0
1, 115680, Note_on_c, 9, 40, 127
1, 115680, Note_on_c, 9, 42, 125
1, 115680, Note_on_c, 9, 36, 120
1, 115690, Note_on_c, 9, 42, 0
1, 115919, Note_on_c, 9, 40, 0
1, 115920, Note_on_c, 9, 42, 93
1, 115930, Note_on_c, 9, 42, 0
1, 116159, Note_on_c, 9, 36, 0
1, 116160, Note_on_c, 9, 42, 114
1, 116160, Note_on_c, 9, 36, 120
1, 116170, Note_on_c, 9, 42, 0
1, 116400, Note_on_c, 9, 42, 94
1, 116410, Note_on_c, 9, 42, 0
1, 116639, Note_on_c, 9, 36, 0
1, 116640, Note_on_c, 9, 40, 127
1, 116640, Note_on_c, 9, 42, 126
1, 116640, Note_on_c, 9, 36, 119
1, 116650, Note_on_c, 9, 42, 0
1, 116879, Note_on_c, 9, 40, 0
1, 116880, Note_on_c, 9, 46, 121
1, 116890, Note_on_c, 9, 46, 0
1, 117119, Note_on_c, 9, 36, 0
1, 117120, Note_on_c, 9, 42, 111
1, 117120, Note_on_c, 9, 49, 92
1, 117120, Note_on_c, 9, 36, 121
1, 117124, Note_on_c, 9, 42, 0
1, 117124, Note_on_c, 9, 49, 0
1, 117240, Note_on_c, 9, 42, 82
1, 117244, Note_on_c, 9, 42, 0
1, 117360, Note_on_c, 9, 42, 111
1, 117364, Note_on_c, 9, 42, 0
1, 117480, Note_on_c, 9, 42, 85
1, 117484, Note_on_c, 9, 42, 0
1, 117599, Note_on_c, 9, 36, 0
1, 117600, Note_on_c, 9, 42, 115
1, 117600, Note_on_c, 9, 36, 120
1, 117604, Note_on_c, 9, 42, 0
1, 117720, Note_on_c, 9, 42, 82
1, 117724, Note_on_c, 9, 42, 0
1, 117840, Note_on_c, 9, 42, 111
1, 117844, Note_on_c, 9, 42, 0
1, 117960, Note_on_c, 9, 42, 82
1, 117964, Note_on_c, 9, 42, 0
1, 118079, Note_on_c, 9, 36, 0
1, 118080, Note_on_c, 9, 42, 104
1, 118080, Note_on_c, 9, 36, 120
1, 118084, Note_on_c, 9, 42, 0
1, 118200, Note_on_c, 9, 42, 85
1, 118204, Note_on_c, 9, 42, 0
1, 118320, Note_on_c, 9, 42, 111
1, 118324, Note_on_c, 9, 42, 0
1, 118440, Note_on_c, 9, 42, 82
1, 118444, Note_on_c, 9, 42, 0
1, 118559, Note_on_c, 9, 36, 0
1, 118560, Note_on_c, 9, 40, 127
1, 118560, Note_on_c, 9, 42, 116
1, 118560, Note_on_c, 9, 36, 119
1, 118564, Note_on_c, 9, 42, 0
1, 118679, Note_on_c, 9, 40, 0
1, 118680, Note_on_c, 9, 42, 79
1, 118684, Note_on_c, 9, 42, 0
1, 118800, Note_on_c, 9, 46, 111
1, 118810, Note_on_c, 9, 46, 0
1, 119039, Note_on_c, 9, 36, 0
1, 119040, Note_on_c, 9, 42, 108
1, 119040, Note_on_c, 9, 36, 121
1, 119044, Note_on_c, 9, 42, 0
1, 119160, Note_on_c, 9, 42, 79
1, 119164, Note_on_c, 9, 42, 0
1, 119280, Note_on_c, 9, 42, 108
1, 119284, Note_on_c, 9, 42, 0
1, 119400, Note_on_c, 9, 42, 79
1, 119404, Note_on_c, 9, 42, 0
1, 119519, Note_on_c, 9, 36, 0
1, 119520, Note_on_c, 9, 42, 115
1, 119520, Note_on_c, 9, 36, 120
1, 119524, Note_on_c, 9, 42, 0
1, 119640, Note_on_c, 9, 42, 76
1, 119644, Note_on_c, 9, 42, 0
1, 119760, Note_on_c, 9, 42, 111
1, 119764, Note_on_c, 9, 42, 0
1, 119880, Note_on_c, 9, 42, 76
1, 119884, Note_on_c, 9, 42, 0
1, 119999, Note_on_c, 9, 36, 0
1, 120000, Note_on_c, 9, 42, 104
1, 120000, Note_on_c, 9, 36, 120
1, 120005, Note_on_c, 9, 42, 0
1, 120137, Note_on_c, 9, 42, 79
1, 120142, Note_on_c, 9, 42, 0
1, 120274, Note_on_c, 9, 42, 108
1, 120279, Note_on_c, 9, 42, 0
1, 120411, Note_on_c, 9, 42, 82
1, 120416, Note_on_c, 9, 42, 0
1, 120479, Note_on_c, 9, 36, 0
1, 120480, Note_on_c, 9, 36, 119
1, 120549, Note_on_c, 9, 40, 127
1, 120549, Note_on_c, 9, 42, 116
1, 120554, Note_on_c, 9, 42, 0
1, 120685, Note_on_c, 9, 40, 0
1, 120686, Note_on_c, 9, 42, 79
1, 120688, Note_on_c, 9, 42, 0
1, 120754, Note_on_c, 9, 46, 111
1, 120759, Note_on_c, 9, 46, 0
1, 120959, Note_on_c, 9, 36, 0
1, 120960, Note_on_c, 9, 36, 121
1, 121020, Note_on_c, 9, 42, 117
1, 121020, Note_on_c, 9, 49, 92
1, 121024, Note_on_c, 9, 42, 0
1, 121024, Note_on_c, 9, 49, 0
1, 121140, Note_on_c, 9, 42, 79
1, 121141, Note_on_c, 9, 42, 0
1, 121200, Note_on_c, 9, 42, 111
1, 121207, Note_on_c, 9, 42, 0
1, 121380, Note_on_c, 9, 42, 85
1, 121381, Note_on_c, 9, 42, 0
1, 121439, Note_on_c, 9, 36, 0
1, 121440, Note_on_c, 9, 36, 120
1, 121500, Note_on_c, 9, 42, 115
1, 121504, Note_on_c, 9, 42, 0
1, 121620, Note_on_c, 9, 42, 79
1, 121621, Note_on_c, 9, 42, 0
1, 121740, Note_on_c, 9, 42, 117
1, 121744, Note_on_c, 9, 42, 0
1, 121860, Note_on_c, 9, 42, 79
1, 121861, Note_on_c, 9, 42, 0
1, 121919, Note_on_c, 9, 36, 0
1, 121920, Note_on_c, 9, 42, 111
1, 121920, Note_on_c, 9, 36, 120
1, 121924, Note_on_c, 9, 42, 0
1, 122040, Note_on_c, 9, 42, 79
1, 122044, Note_on_c, 9, 42, 0
1, 122190, Note_on_c, 9, 42, 108
1, 122194, Note_on_c, 9, 42, 0
1, 122310, Note_on_c, 9, 42, 82
1, 122311, Note_on_c, 9, 42, 0
1, 122399, Note_on_c, 9, 36, 0
1, 122400, Note_on_c, 9, 40, 127
1, 122400, Note_on_c, 9, 42, 116
1, 122400, Note_on_c, 9, 36, 119
1, 122404, Note_on_c, 9, 42, 0
1, 122519, Note_on_c, 9, 40, 0
1, 122520, Note_on_c, 9, 42, 79
1, 122524, Note_on_c, 9, 42, 0
1, 122640, Note_on_c, 9, 46, 111
1, 122650, Note_on_c, 9, 46, 0
1, 122879, Note_on_c, 9, 36, 0
1, 122880, Note_on_c, 9, 42, 114
1, 122880, Note_on_c, 9, 36, 121
1, 122884, Note_on_c, 9, 42, 0
1, 123000, Note_on_c, 9, 42, 79
1, 123004, Note_on_c, 9, 42, 0
1, 123120, Note_on_c, 9, 42, 111
1, 123124, Note_on_c, 9, 42, 0
1, 123240, Note_on_c, 9, 42, 79
1, 123244, Note_on_c, 9, 42, 0
1, 123359, Note_on_c, 9, 36, 0
1, 123360, Note_on_c, 9, 42, 115
1, 123360, Note_on_c, 9, 36, 120
1, 123364, Note_on_c, 9, 42, 0
1, 123480, Note_on_c, 9, 42, 76
1, 123484, Note_on_c, 9, 42, 0
1, 123600, Note_on_c, 9, 42, 114
1, 123604, Note_on_c, 9, 42, 0
1, 123720, Note_on_c, 9, 42, 76
1, 123724, Note_on_c, 9, 42, 0
1, 123839, Note_on_c, 9, 36, 0
1, 123840, Note_on_c, 9, 42, 104
1, 123840, Note_on_c, 9, 36, 120
1, 123844, Note_on_c, 9, 42, 0
1, 123960, Note_on_c, 9, 42, 76
1, 123964, Note_on_c, 9, 42, 0
1, 124080, Note_on_c, 9, 42, 114
1, 124084, Note_on_c, 9, 42, 0
1, 124200, Note_on_c, 9, 42, 74
1, 124204, Note_on_c, 9, 42, 0
1, 124319, Note_on_c, 9, 36, 0
1, 124320, Note_on_c, 9, 40, 127
1, 124320, Note_on_c, 9, 42, 116
1, 124320, Note_on_c, 9, 36, 119
1, 124324, Note_on_c, 9, 42, 0
1, 124439, Note_on_c, 9, 40, 0
1, 124440, Note_on_c, 9, 42, 74
1, 124444, Note_on_c, 9, 42, 0
1, 124560, Note_on_c, 9, 46, 111
1, 124570, Note_on_c, 9, 46, 0
1, 124799, Note_on_c, 9, 36, 0
1, 124800, Note_on_c, 9, 42, 111
1, 124800, Note_on_c, 9, 49, 92
1, 124800, Note_on_c, 9, 36, 121
1, 124804, Note_on_c, 9, 42, 0
1, 124804, Note_on_c, 9, 49, 0
1, 124920, Note_on_c, 9, 42, 82
1, 124924, Note_on_c, 9, 42, 0
1, 125040, Note_on_c, 9, 42, 111
1, 125044, Note_on_c, 9, 42, 0
1, 125160, Note_on_c, 9, 42, 85
1, 125164, Note_on_c, 9, 42, 0
1, 125279, Note_on_c, 9, 36, 0
1, 125280, Note_on_c, 9, 42, 115
1, 125280, Note_on_c, 9, 36, 120
1, 125284, Note_on_c, 9, 42, 0
1, 125400, Note_on_c, 9, 42, 82
1, 125404, Note_on_c, 9, 42, 0
1, 125520, Note_on_c, 9, 42, 111
1, 125524, Note_on_c, 9, 42, 0
1, 125640, Note_on_c, 9, 42, 82
1, 125644, Note_on_c, 9, 42, 0
1, 125759, Note_on_c, 9, 36, 0
1, 125760, Note_on_c, 9, 42, 104
1, 125760, Note_on_c, 9, 36, 120
1, 125764, Note_on_c, 9, 42, 0
1, 125880, Note_on_c, 9, 42, 85
1, 125884, Note_on_c, 9, 42, 0
1, 126000, Note_on_c, 9, 42, 111
1, 126004, Note_on_c, 9, 42, 0
1, 126120, Note_on_c, 9, 42, 82
1, 126124, Note_on_c, 9, 42, 0
1, 126239, Note_on_c, 9, 36, 0
1, 126240, Note_on_c, 9, 40, 127
1, 126240, Note_on_c, 9, 42, 116
1, 126240, Note_on_c, 9, 36, 119
1, 126244, Note_on_c, 9, 42, 0
1, 126359, Note_on_c, 9, 40, 0
1, 126360, Note_on_c, 9, 42, 79
1, 126364, Note_on_c, 9, 42, 0
1, 126480, Note_on_c, 9, 46, 111
1, 126490, Note_on_c, 9, 46, 0
1, 126719, Note_on_c, 9, 36, 0
1, 126720, Note_on_c, 9, 42, 108
1, 126720, Note_on_c, 9, 36, 121
1, 126724, Note_on_c, 9, 42, 0
1, 126840, Note_on_c, 9, 42, 79
1, 126844, Note_on_c, 9, 42, 0
1, 126960, Note_on_c, 9, 42, 108
1, 126964, Note_on_c, 9, 42, 0
1, 127080, Note_on_c, 9, 42, 79
1, 127084, Note_on_c, 9, 42, 0
1, 127199, Note_on_c, 9, 36, 0
1, 127200, Note_on_c, 9, 42, 115
1, 127200, Note_on_c, 9, 36, 120
1, 127204, Note_on_c, 9, 42, 0
1, 127320, Note_on_c, 9, 42, 76
1, 127324, Note_on_c, 9, 42, 0
1, 127440, Note_on_c, 9, 42, 111
1, 127444, Note_on_c, 9, 42, 0
1, 127560, Note_on_c, 9, 42, 76
1, 127564, Note_on_c, 9, 42, 0
1, 127679, Note_on_c, 9, 36, 0
1, 127680, Note_on_c, 9, 36, 120
1, 127720, Note_on_c, 9, 42, 104
1, 127724, Note_on_c, 9, 42, 0
1, 127840, Note_on_c, 9, 42, 79
1, 127842, Note_on_c, 9, 42, 0
1, 127920, Note_on_c, 9, 42, 108
1, 127927, Note_on_c, 9, 42, 0
1, 128100, Note_on_c, 9, 42, 82
1, 128101, Note_on_c, 9, 42, 0
1, 128159, Note_on_c, 9, 36, 0
1, 128160, Note_on_c, 9, 36, 119
1, 128220, Note_on_c, 9, 40, 127
1, 128220, Note_on_c, 9, 42, 116
1, 128224, Note_on_c, 9, 42, 0
1, 128339, Note_on_c, 9, 40, 0
1, 128340, Note_on_c, 9, 42, 79
1, 128341, Note_on_c, 9, 42, 0
1, 128400, Note_on_c, 9, 46, 111
1, 128410, Note_on_c, 9, 46, 0
1, 128639, Note_on_c, 9, 36, 0
1, 128640, Note_on_c, 9, 36, 121
1, 128700, Note_on_c, 9, 42, 117
1, 128700, Note_on_c, 9, 49, 92
1, 128704, Note_on_c, 9, 42, 0
1, 128704, Note_on_c, 9, 49, 0
1, 128820, Note_on_c, 9, 42, 79
1, 128821, Note_on_c, 9, 42, 0
1, 128910, Note_on_c, 9, 42, 111
1, 128911, Note_on_c, 9, 42, 0
1, 129000, Note_on_c, 9, 42, 85
1, 129004, Note_on_c, 9, 42, 0
1, 129119, Note_on_c, 9, 36, 0
1, 129120, Note_on_c, 9, 42, 115
1, 129120, Note_on_c, 9, 36, 120
1, 129124, Note_on_c, 9, 42, 0
1, 129240, Note_on_c, 9, 42, 79
1, 129244, Note_on_c, 9, 42, 0
1, 129360, Note_on_c, 9, 42, 117
1, 129364, Note_on_c, 9, 42, 0
1, 129480, Note_on_c, 9, 42, 79
1, 129484, Note_on_c, 9, 42, 0
1, 129599, Note_on_c, 9, 36, 0
1, 129600, Note_on_c, 9, 42, 111
1, 129600, Note_on_c, 9, 36, 120
1, 129604, Note_on_c, 9, 42, 0
1, 129720, Note_on_c, 9, 42, 79
1, 129724, Note_on_c, 9, 42, 0
1, 129840, Note_on_c, 9, 42, 108
1, 129844, Note_on_c, 9, 42, 0
1, 129960, Note_on_c, 9, 42, 82
1, 129964, Note_on_c, 9, 42, 0
1, 130079, Note_on_c, 9, 36, 0
1, 130080, Note_on_c, 9, 40, 127
1, 130080, Note_on_c, 9, 42, 116
1, 130080, Note_on_c, 9, 36, 119
1, 130084, Note_on_c, 9, 42, 0
1, 130199, Note_on_c, 9, 40, 0
1, 130200, Note_on_c, 9, 42, 79
1, 130204, Note_on_c, 9, 42, 0
1, 130320, Note_on_c, 9, 46, 111
1, 130330, Note_on_c, 9, 46, 0
1, 130559, Note_on_c, 9, 36, 0
1, 130560, Note_on_c, 9, 42, 114
1, 130560, Note_on_c, 9, 36, 121
1, 130564, Note_on_c, 9, 42, 0
1, 130680, Note_on_c, 9, 42, 79
1, 130684, Note_on_c, 9, 42, 0
1, 130800, Note_on_c, 9, 42, 111
1, 130804, Note_on_c, 9, 42, 0
1, 130920, Note_on_c, 9, 42, 79
1, 130924, Note_on_c, 9, 42, 0
1, 131039, Note_on_c, 9, 36, 0
1, 131040, Note_on_c, 9, 42, 115
1, 131040, Note_on_c, 9, 36, 120
1, 131044, Note_on_c, 9, 42, 0
1, 131160, Note_on_c, 9, 42, 76
1, 131164, Note_on_c, 9, 42, 0
1, 131280, Note_on_c, 9, 42, 114
1, 131284, Note_on_c, 9, 42, 0
1, 131400, Note_on_c, 9, 42, 76
1, 131404, Note_on_c, 9, 42, 0
1, 131519, Note_on_c, 9, 36, 0
1, 131520, Note_on_c, 9, 42, 104
1, 131520, Note_on_c, 9, 36, 120
1, 131524, Note_on_c, 9, 42, 0
1, 131640, Note_on_c, 9, 42, 76
1, 131644, Note_on_c, 9, 42, 0
1, 131760, Note_on_c, 9, 42, 114
1, 131764, Note_on_c, 9, 42, 0
1, 131880, Note_on_c, 9, 42, 74
1, 131884, Note_on_c, 9, 42, 0
1, 131999, Note_on_c, 9, 36, 0
1, 132000, Note_on_c, 9, 36, 119
1, 132040, Note_on_c, 9, 40, 127
1, 132040, Note_on_c, 9, 42, 116
1, 132043, Note_on_c, 9, 42, 0
1, 132119, Note_on_c, 9, 40, 0
1, 132160, Note_on_c, 9, 42, 74
1, 132162, Note_on_c, 9, 42, 0
1, 132240, Note_on_c, 9, 46, 111
1, 132250, Note_on_c, 9, 46, 0
1, 132479, Note_on_c, 9, 36, 0
1, 132480, Note_on_c, 9, 42, 111
1, 132480, Note_on_c, 9, 49, 92
1, 132480, Note_on_c, 9, 36, 121
1, 132490, Note_on_c, 9, 42, 0
1, 132490, Note_on_c, 9, 49, 0
1, 132720, Note_on_c, 9, 42, 82
1, 132724, Note_on_c, 9, 42, 0
1, 132840, Note_on_c, 9, 42, 111
1, 132844, Note_on_c, 9, 42, 0
1, 132959, Note_on_c, 9, 36, 0
1, 132960, Note_on_c, 9, 42, 85
1, 132964, Note_on_c, 9, 42, 0
1, 133080, Note_on_c, 9, 42, 115
1, 133080, Note_on_c, 9, 36, 120
1, 133084, Note_on_c, 9, 42, 0
1, 133200, Note_on_c, 9, 42, 82
1, 133204, Note_on_c, 9, 42, 0
1, 133320, Note_on_c, 9, 42, 111
1, 133324, Note_on_c, 9, 42, 0
1, 133439, Note_on_c, 9, 36, 0
1, 133440, Note_on_c, 9, 42, 82
1, 133444, Note_on_c, 9, 42, 0
1, 133560, Note_on_c, 9, 42, 104
1, 133560, Note_on_c, 9, 36, 120
1, 133564, Note_on_c, 9, 42, 0
1, 133680, Note_on_c, 9, 42, 85
1, 133684, Note_on_c, 9, 42, 0
1, 133800, Note_on_c, 9, 42, 111
1, 133804, Note_on_c, 9, 42, 0
1, 133919, Note_on_c, 9, 36, 0
1, 133920, Note_on_c, 9, 42, 82
1, 133924, Note_on_c, 9, 42, 0
1, 134040, Note_on_c, 9, 40, 127
1, 134040, Note_on_c, 9, 42, 116
1, 134040, Note_on_c, 9, 36, 119
1, 134044, Note_on_c, 9, 42, 0
1, 134159, Note_on_c, 9, 40, 0
1, 134160, Note_on_c, 9, 42, 79
1, 134164, Note_on_c, 9, 42, 0
1, 134280, Note_on_c, 9, 46, 111
1, 134284, Note_on_c, 9, 46, 0
1, 134399, Note_on_c, 9, 36, 0
1, 134520, Note_on_c, 9, 42, 108
1, 134520, Note_on_c, 9, 36, 121
1, 134524, Note_on_c, 9, 42, 0
1, 134640, Note_on_c, 9, 42, 79
1, 134644, Note_on_c, 9, 42, 0
1, 134760, Note_on_c, 9, 42, 108
1, 134764, Note_on_c, 9, 42, 0
1, 134879, Note_on_c, 9, 36, 0
1, 134880, Note_on_c, 9, 42, 79
1, 134884, Note_on_c, 9, 42, 0
1, 135000, Note_on_c, 9, 42, 115
1, 135000, Note_on_c, 9, 36, 120
1, 135004, Note_on_c, 9, 42, 0
1, 135120, Note_on_c, 9, 42, 76
1, 135124, Note_on_c, 9, 42, 0
1, 135240, Note_on_c, 9, 42, 111
1, 135244, Note_on_c, 9, 42, 0
1, 135359, Note_on_c, 9, 36, 0
1, 135360, Note_on_c, 9, 42, 76
1, 135364, Note_on_c, 9, 42, 0
1, 135480, Note_on_c, 9, 42, 104
1, 135480, Note_on_c, 9, 36, 120
1, 135484, Note_on_c, 9, 42, 0
1, 135600, Note_on_c, 9, 42, 79
1, 135604, Note_on_c, 9, 42, 0
1, 135720, Note_on_c, 9, 42, 108
1, 135724, Note_on_c, 9, 42, 0
1, 135839, Note_on_c, 9, 36, 0
1, 135840, Note_on_c, 9, 42, 82
1, 135844, Note_on_c, 9, 42, 0
1, 135960, Note_on_c, 9, 40, 127
1, 135960, Note_on_c, 9, 42, 116
1, 135960, Note_on_c, 9, 36, 119
1, 135961, Note_on_c, 9, 42, 0
1, 136019, Note_on_c, 9, 40, 0
1, 136050, Note_on_c, 9, 42, 79
1, 136054, Note_on_c, 9, 42, 0
1, 136080, Note_on_c, 9, 46, 111
1, 136089, Note_on_c, 9, 46, 0
1, 136319, Note_on_c, 9, 36, 0
1, 136320, Note_on_c, 9, 36, 121
1, 136380, Note_on_c, 9, 42, 117
1, 136380, Note_on_c, 9, 49, 92
1, 136384, Note_on_c, 9, 42, 0
1, 136384, Note_on_c, 9, 49, 0
1, 136500, Note_on_c, 9, 42, 79
1, 136501, Note_on_c, 9, 42, 0
1, 136560, Note_on_c, 9, 42, 111
1, 136564, Note_on_c, 9, 42, 0
1, 136710, Note_on_c, 9, 42, 85
1, 136711, Note_on_c, 9, 42, 0
1, 136799, Note_on_c, 9, 36, 0
1, 136800, Note_on_c, 9, 42, 115
1, 136800, Note_on_c, 9, 36, 120
1, 136804, Note_on_c, 9, 42, 0
1, 136920, Note_on_c, 9, 42, 79
1, 136924, Note_on_c, 9, 42, 0
1, 137040, Note_on_c, 9, 42, 117
1, 137044, Note_on_c, 9, 42, 0
1, 137160, Note_on_c, 9, 42, 79
1, 137164, Note_on_c, 9, 42, 0
1, 137279, Note_on_c, 9, 36, 0
1, 137280, Note_on_c, 9, 42, 111
1, 137280, Note_on_c, 9, 36, 120
1, 137284, Note_on_c, 9, 42, 0
1, 137400, Note_on_c, 9, 42, 79
1, 137404, Note_on_c, 9, 42, 0
1, 137520, Note_on_c, 9, 42, 108
1, 137524, Note_on_c, 9, 42, 0
1, 137640, Note_on_c, 9, 42, 82
1, 137644, Note_on_c, 9, 42, 0
1, 137759, Note_on_c, 9, 36, 0
1, 137760, Note_on_c, 9, 40, 127
1, 137760, Note_on_c, 9, 42, 116
1, 137760, Note_on_c, 9, 36, 119
1, 137764, Note_on_c, 9, 42, 0
1, 137879, Note_on_c, 9, 40, 0
1, 137880, Note_on_c, 9, 42, 79
1, 137884, Note_on_c, 9, 42, 0
1, 138000, Note_on_c, 9, 46, 111
1, 138010, Note_on_c, 9, 46, 0
1, 138239, Note_on_c, 9, 36, 0
1, 138240, Note_on_c, 9, 42, 114
1, 138240, Note_on_c, 9, 36, 121
1, 138244, Note_on_c, 9, 42, 0
1, 138360, Note_on_c, 9, 42, 79
1, 138364, Note_on_c, 9, 42, 0
1, 138480, Note_on_c, 9, 42, 111
1, 138484, Note_on_c, 9, 42, 0
1, 138600, Note_on_c, 9, 42, 79
1, 138604, Note_on_c, 9, 42, 0
1, 138719, Note_on_c, 9, 36, 0
1, 138720, Note_on_c, 9, 42, 115
1, 138720, Note_on_c, 9, 36, 120
1, 138724, Note_on_c, 9, 42, 0
1, 138840, Note_on_c, 9, 42, 76
1, 138844, Note_on_c, 9, 42, 0
1, 138960, Note_on_c, 9, 42, 114
1, 138964, Note_on_c, 9, 42, 0
1, 139080, Note_on_c, 9, 42, 76
1, 139084, Note_on_c, 9, 42, 0
1, 139199, Note_on_c, 9, 36, 0
1, 139200, Note_on_c, 9, 42, 104
1, 139200, Note_on_c, 9, 36, 120
1, 139204, Note_on_c, 9, 42, 0
1, 139320, Note_on_c, 9, 42, 76
1, 139324, Note_on_c, 9, 42, 0
1, 139440, Note_on_c, 9, 42, 114
1, 139444, Note_on_c, 9, 42, 0
1, 139560, Note_on_c, 9, 42, 74
1, 139564, Note_on_c, 9, 42, 0
1, 139679, Note_on_c, 9, 36, 0
1, 139680, Note_on_c, 9, 40, 127
1, 139680, Note_on_c, 9, 42, 116
1, 139680, Note_on_c, 9, 36, 119
1, 139684, Note_on_c, 9, 42, 0
1, 139799, Note_on_c, 9, 40, 0
1, 139800, Note_on_c, 9, 42, 74
1, 139804, Note_on_c, 9, 42, 0
1, 139920, Note_on_c, 9, 46, 111
1, 139930, Note_on_c, 9, 46, 0
1, 140159, Note_on_c, 9, 36, 0
1, 140160, Note_on_c, 9, 42, 111
1, 140160, Note_on_c, 9, 49, 92
1, 140160, Note_on_c, 9, 36, 121
1, 140164, Note_on_c, 9, 42, 0
1, 140164, Note_on_c, 9, 49, 0
1, 140280, Note_on_c, 9, 42, 82
1, 140284, Note_on_c, 9, 42, 0
1, 140400, Note_on_c, 9, 42, 111
1, 140404, Note_on_c, 9, 42, 0
1, 140520, Note_on_c, 9, 42, 85
1, 140524, Note_on_c, 9, 42, 0
1, 140639, Note_on_c, 9, 36, 0
1, 140640, Note_on_c, 9, 42, 115
1, 140640, Note_on_c, 9, 36, 120
1, 140644, Note_on_c, 9, 42, 0
1, 140760, Note_on_c, 9, 42, 82
1, 140764, Note_on_c, 9, 42, 0
1, 140880, Note_on_c, 9, 42, 111
1, 140884, Note_on_c, 9, 42, 0
1, 141000, Note_on_c, 9, 42, 82
1, 141004, Note_on_c, 9, 42, 0
1, 141119, Note_on_c, 9, 36, 0
1, 141120, Note_on_c, 9, 42, 104
1, 141120, Note_on_c, 9, 36, 120
1, 141124, Note_on_c, 9, 42, 0
1, 141240, Note_on_c, 9, 42, 85
1, 141244, Note_on_c, 9, 42, 0
1, 141360, Note_on_c, 9, 42, 111
1, 141364, Note_on_c, 9, 42, 0
1, 141480, Note_on_c, 9, 42, 82
1, 141484, Note_on_c, 9, 42, 0
1, 141599, Note_on_c, 9, 36, 0
1, 141600, Note_on_c, 9, 40, 127
1, 141600, Note_on_c, 9, 42, 116
1, 141600, Note_on_c, 9, 36, 119
1, 141604, Note_on_c, 9, 42, 0
1, 141719, Note_on_c, 9, 40, 0
1, 141720, Note_on_c, 9, 42, 79
1, 141724, Note_on_c, 9, 42, 0
1, 141840, Note_on_c, 9, 46, 111
1, 141850, Note_on_c, 9, 46, 0
1, 142079, Note_on_c, 9, 36, 0
1, 142080, Note_on_c, 9, 42, 108
1, 142080, Note_on_c, 9, 36, 121
1, 142084, Note_on_c, 9, 42, 0
1, 142200, Note_on_c, 9, 42, 79
1, 142204, Note_on_c, 9, 42, 0
1, 142320, Note_on_c, 9, 42, 108
1, 142324, Note_on_c, 9, 42, 0
1, 142440, Note_on_c, 9, 42, 79
1, 142444, Note_on_c, 9, 42, 0
1, 142559, Note_on_c, 9, 36, 0
1, 142560, Note_on_c, 9, 36, 120
1, 142608, Note_on_c, 9, 42, 115
1, 142611, Note_on_c, 9, 42, 0
1, 142704, Note_on_c, 9, 42, 76
1, 142709, Note_on_c, 9, 42, 0
1, 142848, Note_on_c, 9, 42, 111
1, 142851, Note_on_c, 9, 42, 0
1, 142944, Note_on_c, 9, 42, 76
1, 142947, Note_on_c, 9, 42, 0
1, 143039, Note_on_c, 9, 36, 0
1, 143040, Note_on_c, 9, 42, 104
1, 143040, Note_on_c, 9, 36, 120
1, 143047, Note_on_c, 9, 42, 0
1, 143220, Note_on_c, 9, 42, 79
1, 143221, Note_on_c, 9, 42, 0
1, 143340, Note_on_c, 9, 42, 108
1, 143344, Note_on_c, 9, 42, 0
1, 143460, Note_on_c, 9, 42, 82
1, 143461, Note_on_c, 9, 42, 0
1, 143519, Note_on_c, 9, 36, 0
1, 143520, Note_on_c, 9, 40, 127
1, 143520, Note_on_c, 9, 42, 116
1, 143520, Note_on_c, 9, 36, 119
1, 143527, Note_on_c, 9, 42, 0
1, 143699, Note_on_c, 9, 40, 0
1, 143700, Note_on_c, 9, 42, 79
1, 143701, Note_on_c, 9, 42, 0
1, 143760, Note_on_c, 9, 46, 111
1, 143770, Note_on_c, 9, 46, 0
1, 143999, Note_on_c, 9, 36, 0
1, 144000, Note_on_c, 9, 36, 121
1, 144060, Note_on_c, 9, 42, 117
1, 144060, Note_on_c, 9, 49, 92
1, 144064, Note_on_c, 9, 42, 0
1, 144064, Note_on_c, 9, 49, 0
1, 144180, Note_on_c, 9, 42, 79
1, 144181, Note_on_c, 9, 42, 0
1, 144240, Note_on_c, 9, 42, 111
1, 144247, Note_on_c, 9, 42, 0
1, 144420, Note_on_c, 9, 42, 85
1, 144421, Note_on_c, 9, 42, 0
1, 144479, Note_on_c, 9, 36, 0
1, 144480, Note_on_c, 9, 36, 120
1, 144540, Note_on_c, 9, 42, 115
1, 144544, Note_on_c, 9, 42, 0
1, 144660, Note_on_c, 9, 42, 79
1, 144661, Note_on_c, 9, 42, 0
1, 144780, Note_on_c, 9, 42, 117
1, 144784, Note_on_c, 9, 42, 0
1, 144900, Note_on_c, 9, 42, 79
1, 144901, Note_on_c, 9, 42, 0
1, 144959, Note_on_c, 9, 36, 0
1, 144960, Note_on_c, 9, 42, 111
1, 144960, Note_on_c, 9, 36, 120
1, 144967, Note_on_c, 9, 42, 0
1, 145140, Note_on_c, 9, 42, 79
1, 145141, Note_on_c, 9, 42, 0
1, 145260, Note_on_c, 9, 42, 108
1, 145264, Note_on_c, 9, 42, 0
1, 145380, Note_on_c, 9, 42, 82
1, 145381, Note_on_c, 9, 42, 0
1, 145439, Note_on_c, 9, 36, 0
1, 145440, Note_on_c, 9, 40, 127
1, 145440, Note_on_c, 9, 42, 116
1, 145440, Note_on_c, 9, 36, 119
1, 145444, Note_on_c, 9, 42, 0
1, 145559, Note_on_c, 9, 40, 0
1, 145590, Note_on_c, 9, 42, 79
1, 145591, Note_on_c, 9, 42, 0
1, 145680, Note_on_c, 9, 46, 111
1, 145690, Note_on_c, 9, 46, 0
1, 145919, Note_on_c, 9, 36, 0
1, 145920, Note_on_c, 9, 42, 114
1, 145920, Note_on_c, 9, 36, 121
1, 145924, Note_on_c, 9, 42, 0
1, 146040, Note_on_c, 9, 42, 79
1, 146044, Note_on_c, 9, 42, 0
1, 146160, Note_on_c, 9, 42, 111
1, 146164, Note_on_c, 9, 42, 0
1, 146280, Note_on_c, 9, 42, 79
1, 146284, Note_on_c, 9, 42, 0
1, 146399, Note_on_c, 9, 36, 0
1, 146400, Note_on_c, 9, 42, 115
1, 146400, Note_on_c, 9, 36, 120
1, 146404, Note_on_c, 9, 42, 0
1, 146520, Note_on_c, 9, 42, 76
1, 146524, Note_on_c, 9, 42, 0
1, 146640, Note_on_c, 9, 42, 114
1, 146644, Note_on_c, 9, 42, 0
1, 146760, Note_on_c, 9, 42, 76
1, 146764, Note_on_c, 9, 42, 0
1, 146879, Note_on_c, 9, 36, 0
1, 146880, Note_on_c, 9, 42, 104
1, 146880, Note_on_c, 9, 36, 120
1, 146884, Note_on_c, 9, 42, 0
1, 147000, Note_on_c, 9, 42, 76
1, 147004, Note_on_c, 9, 42, 0
1, 147120, Note_on_c, 9, 42, 114
1, 147124, Note_on_c, 9, 42, 0
1, 147240, Note_on_c, 9, 42, 74
1, 147244, Note_on_c, 9, 42, 0
1, 147359, Note_on_c, 9, 36, 0
1, 147360, Note_on_c, 9, 36, 119
1, 147400, Note_on_c, 9, 40, 127
1, 147400, Note_on_c, 9, 42, 116
1, 147403, Note_on_c, 9, 42, 0
1, 147479, Note_on_c, 9, 40, 0
1, 147520, Note_on_c, 9, 42, 74
1, 147522, Note_on_c, 9, 42, 0
1, 147600, Note_on_c, 9, 46, 111
1, 147610, Note_on_c, 9, 46, 0
1, 147839, Note_on_c, 9, 36, 0
1, 147840, Note_on_c, 9, 36, 121
1, 147900, Note_on_c, 9, 42, 111
1, 147900, Note_on_c, 9, 49, 92
1, 147904, Note_on_c, 9, 42, 0
1, 147904, Note_on_c, 9, 49, 0
1, 148020, Note_on_c, 9, 42, 82
1, 148021, Note_on_c, 9, 42, 0
1, 148110, Note_on_c, 9, 42, 111
1, 148111, Note_on_c, 9, 42, 0
1, 148200, Note_on_c, 9, 42, 85
1, 148204, Note_on_c, 9, 42, 0
1, 148319, Note_on_c, 9, 36, 0
1, 148320, Note_on_c, 9, 42, 115
1, 148320, Note_on_c, 9, 36, 120
1, 148324, Note_on_c, 9, 42, 0
1, 148440, Note_on_c, 9, 42, 82
1, 148444, Note_on_c, 9, 42, 0
1, 148560, Note_on_c, 9, 42, 111
1, 148564, Note_on_c, 9, 42, 0
1, 148680, Note_on_c, 9, 42, 82
1, 148684, Note_on_c, 9, 42, 0
1, 148799, Note_on_c, 9, 36, 0
1, 148800, Note_on_c, 9, 42, 104
1, 148800, Note_on_c, 9, 36, 120
1, 148804, Note_on_c, 9, 42, 0
1, 148920, Note_on_c, 9, 42, 85
1, 148924, Note_on_c, 9, 42, 0
1, 149040, Note_on_c, 9, 42, 111
1, 149044, Note_on_c, 9, 42, 0
1, 149160, Note_on_c, 9, 42, 82
1, 149164, Note_on_c, 9, 42, 0
1, 149279, Note_on_c, 9, 36, 0
1, 149280, Note_on_c, 9, 40, 127
1, 149280, Note_on_c, 9, 42, 116
1, 149280, Note_on_c, 9, 36, 119
1, 149284, Note_on_c, 9, 42, 0
1, 149399, Note_on_c, 9, 40, 0
1, 149400, Note_on_c, 9, 42, 79
1, 149404, Note_on_c, 9, 42, 0
1, 149520, Note_on_c, 9, 46, 111
1, 149530, Note_on_c, 9, 46, 0
1, 149759, Note_on_c, 9, 36, 0
1, 149760, Note_on_c, 9, 42, 108
1, 149760, Note_on_c, 9, 36, 121
1, 149764, Note_on_c, 9, 42, 0
1, 149880, Note_on_c, 9, 42, 79
1, 149884, Note_on_c, 9, 42, 0
1, 150000, Note_on_c, 9, 42, 108
1, 150004, Note_on_c, 9, 42, 0
1, 150120, Note_on_c, 9, 42, 79
1, 150124, Note_on_c, 9, 42, 0
1, 150239, Note_on_c, 9, 36, 0
1, 150240, Note_on_c, 9, 42, 115
1, 150240, Note_on_c, 9, 36, 120
1, 150244, Note_on_c, 9, 42, 0
1, 150360, Note_on_c, 9, 42, 76
1, 150364, Note_on_c, 9, 42, 0
1, 150480, Note_on_c, 9, 42, 111
1, 150484, Note_on_c, 9, 42, 0
1, 150600, Note_on_c, 9, 42, 76
1, 150604, Note_on_c, 9, 42, 0
1, 150719, Note_on_c, 9, 36, 0
1, 150720, Note_on_c, 9, 42, 104
1, 150720, Note_on_c, 9, 36, 120
1, 150724, Note_on_c, 9, 42, 0
1, 150840, Note_on_c, 9, 42, 79
1, 150844, Note_on_c, 9, 42, 0
1, 150960, Note_on_c, 9, 42, 108
1, 150964, Note_on_c, 9, 42, 0
1, 151080, Note_on_c, 9, 42, 82
1, 151084, Note_on_c, 9, 42, 0
1, 151199, Note_on_c, 9, 36, 0
1, 151200, Note_on_c, 9, 40, 127
1, 151200, Note_on_c, 9, 42, 116
1, 151200, Note_on_c, 9, 36, 119
1, 151204, Note_on_c, 9, 42, 0
1, 151319, Note_on_c, 9, 40, 0
1, 151320, Note_on_c, 9, 42, 79
1, 151324, Note_on_c, 9, 42, 0
1, 151440, Note_on_c, 9, 46, 111
1, 151450, Note_on_c, 9, 46, 0
1, 151679, Note_on_c, 9, 36, 0
1, 151680, Note_on_c, 9, 42, 117
1, 151680, Note_on_c, 9, 49, 92
1, 151680, Note_on_c, 9, 36, 121
1, 151684, Note_on_c, 9, 42, 0
1, 151684, Note_on_c, 9, 49, 0
1, 151800, Note_on_c, 9, 42, 79
1, 151804, Note_on_c, 9, 42, 0
1, 151960, Note_on_c, 9, 42, 111
1, 151964, Note_on_c, 9, 42, 0
1, 152080, Note_on_c, 9, 42, 85
1, 152082, Note_on_c, 9, 42, 0
1, 152159, Note_on_c, 9, 36, 0
1, 152160, Note_on_c, 9, 36, 120
1, 152220, Note_on_c, 9, 42, 115
1, 152224, Note_on_c, 9, 42, 0
1, 152340, Note_on_c, 9, 42, 79
1, 152341, Note_on_c, 9, 42, 0
1, 152460, Note_on_c, 9, 42, 117
1, 152464, Note_on_c, 9, 42, 0
1, 152580, Note_on_c, 9, 42, 79
1, 152581, Note_on_c, 9, 42, 0
1, 152639, Note_on_c, 9, 36, 0
1, 152640, Note_on_c, 9, 42, 111
1, 152640, Note_on_c, 9, 36, 120
1, 152644, Note_on_c, 9, 42, 0
1, 152790, Note_on_c, 9, 42, 79
1, 152791, Note_on_c, 9, 42, 0
1, 152880, Note_on_c, 9, 42, 108
1, 152884, Note_on_c, 9, 42, 0
1, 153000, Note_on_c, 9, 42, 82
1, 153004, Note_on_c, 9, 42, 0
1, 153119, Note_on_c, 9, 36, 0
1, 153120, Note_on_c, 9, 40, 127
1, 153120, Note_on_c, 9, 42, 116
1, 153120, Note_on_c, 9, 36, 119
1, 153124, Note_on_c, 9, 42, 0
1, 153239, Note_on_c, 9, 40, 0
1, 153240, Note_on_c, 9, 42, 79
1, 153244, Note_on_c, 9, 42, 0
1, 153360, Note_on_c, 9, 46, 111
1, 153370, Note_on_c, 9, 46, 0
1, 153599, Note_on_c, 9, 36, 0
1, 153600, Note_on_c, 9, 42, 114
1, 153600, Note_on_c, 9, 36, 121
1, 153604, Note_on_c, 9, 42, 0
1, 153720, Note_on_c, 9, 42, 79
1, 153724, Note_on_c, 9, 42, 0
1, 153840, Note_on_c, 9, 42, 111
1, 153844, Note_on_c, 9, 42, 0
1, 153960, Note_on_c, 9, 42, 79
1, 153964, Note_on_c, 9, 42, 0
1, 154079, Note_on_c, 9, 36, 0
1, 154080, Note_on_c, 9, 42, 115
1, 154080, Note_on_c, 9, 36, 120
1, 154084, Note_on_c, 9, 42, 0
1, 154200, Note_on_c, 9, 42, 76
1, 154204, Note_on_c, 9, 42, 0
1, 154320, Note_on_c, 9, 42, 114
1, 154324, Note_on_c, 9, 42, 0
1, 154440, Note_on_c, 9, 42, 76
1, 154444, Note_on_c, 9, 42, 0
1, 154559, Note_on_c, 9, 36, 0
1, 154560, Note_on_c, 9, 42, 104
1, 154560, Note_on_c, 9, 36, 120
1, 154564, Note_on_c, 9, 42, 0
1, 154680, Note_on_c, 9, 42, 76
1, 154684, Note_on_c, 9, 42, 0
1, 154800, Note_on_c, 9, 42, 114
1, 154804, Note_on_c, 9, 42, 0
1, 154920, Note_on_c, 9, 42, 74
1, 154924, Note_on_c, 9, 42, 0
1, 155039, Note_on_c, 9, 36, 0
1, 155040, Note_on_c, 9, 40, 127
1, 155040, Note_on_c, 9, 42, 116
1, 155040, Note_on_c, 9, 36, 119
1, 155044, Note_on_c, 9, 42, 0
1, 155159, Note_on_c, 9, 40, 0
1, 155160, Note_on_c, 9, 42, 74
1, 155164, Note_on_c, 9, 42, 0
1, 155280, Note_on_c, 9, 46, 111
1, 155290, Note_on_c, 9, 46, 0
1, 155519, Note_on_c, 9, 36, 0
1, 155520, Note_on_c, 9, 42, 111
1, 155520, Note_on_c, 9, 49, 92
1, 155520, Note_on_c, 9, 36, 121
1, 155524, Note_on_c, 9, 42, 0
1, 155524, Note_on_c, 9, 49, 0
1, 155640, Note_on_c, 9, 42, 82
1, 155644, Note_on_c, 9, 42, 0
1, 155760, Note_on_c, 9, 42, 111
1, 155764, Note_on_c, 9, 42, 0
1, 155880, Note_on_c, 9, 42, 85
1, 155884, Note_on_c, 9, 42, 0
1, 155999, Note_on_c, 9, 36, 0
1, 156000, Note_on_c, 9, 42, 115
1, 156000, Note_on_c, 9, 36, 120
1, 156004, Note_on_c, 9, 42, 0
1, 156120, Note_on_c, 9, 42, 82
1, 156124, Note_on_c, 9, 42, 0
1, 156240, Note_on_c, 9, 42, 111
1, 156244, Note_on_c, 9, 42, 0
1, 156360, Note_on_c, 9, 42, 82
1, 156364, Note_on_c, 9, 42, 0
1, 156479, Note_on_c, 9, 36, 0
1, 156480, Note_on_c, 9, 42, 104
1, 156480, Note_on_c, 9, 36, 120
1, 156484, Note_on_c, 9, 42, 0
1, 156600, Note_on_c, 9, 42, 85
1, 156604, Note_on_c, 9, 42, 0
1, 156720, Note_on_c, 9, 42, 111
1, 156724, Note_on_c, 9, 42, 0
1, 156840, Note_on_c, 9, 42, 82
1, 156844, Note_on_c, 9, 42, 0
1, 156959, Note_on_c, 9, 36, 0
1, 156960, Note_on_c, 9, 40, 127
1, 156960, Note_on_c, 9, 42, 116
1, 156960, Note_on_c, 9, 36, 119
1, 156964, Note_on_c, 9, 42, 0
1, 157079, Note_on_c, 9, 40, 0
1, 157080, Note_on_c, 9, 42, 79
1, 157084, Note_on_c, 9, 42, 0
1, 157200, Note_on_c, 9, 46, 111
1, 157210, Note_on_c, 9, 46, 0
1, 157439, Note_on_c, 9, 36, 0
1, 157440, Note_on_c, 9, 42, 108
1, 157440, Note_on_c, 9, 36, 121
1, 157444, Note_on_c, 9, 42, 0
1, 157560, Note_on_c, 9, 42, 79
1, 157564, Note_on_c, 9, 42, 0
1, 157680, Note_on_c, 9, 42, 108
1, 157684, Note_on_c, 9, 42, 0
1, 157800, Note_on_c, 9, 42, 79
1, 157804, Note_on_c, 9, 42, 0
1, 157919, Note_on_c, 9, 36, 0
1, 157920, Note_on_c, 9, 42, 115
1, 157920, Note_on_c, 9, 36, 120
1, 157924, Note_on_c, 9, 42, 0
1, 158040, Note_on_c, 9, 42, 76
1, 158044, Note_on_c, 9, 42, 0
1, 158160, Note_on_c, 9, 42, 111
1, 158164, Note_on_c, 9, 42, 0
1, 158280, Note_on_c, 9, 42, 76
1, 158284, Note_on_c, 9, 42, 0
1, 158399, Note_on_c, 9, 36, 0
1, 158400, Note_on_c, 9, 42, 104
1, 158400, Note_on_c, 9, 36, 120
1, 158404, Note_on_c, 9, 42, 0
1, 158520, Note_on_c, 9, 42, 79
1, 158524, Note_on_c, 9, 42, 0
1, 158640, Note_on_c, 9, 42, 108
1, 158644, Note_on_c, 9, 42, 0
1, 158760, Note_on_c, 9, 42, 82
1, 158764, Note_on_c, 9, 42, 0
1, 158879, Note_on_c, 9, 36, 0
1, 158880, Note_on_c, 9, 40, 127
1, 158880, Note_on_c, 9, 42, 116
1, 158880, Note_on_c, 9, 36, 119
1, 158884, Note_on_c, 9, 42, 0
1, 158999, Note_on_c, 9, 40, 0
1, 159000, Note_on_c, 9, 42, 79
1, 159004, Note_on_c, 9, 42, 0
1, 159120, Note_on_c, 9, 46, 111
1, 159130, Note_on_c, 9, 46, 0
1, 159359, Note_on_c, 9, 36, 0
1, 159360, Note_on_c, 9, 42, 117
1, 159360, Note_on_c, 9, 49, 92
1, 159360, Note_on_c, 9, 36, 121
1, 159364, Note_on_c, 9, 42, 0
1, 159364, Note_on_c, 9, 49, 0
1, 159480, Note_on_c, 9, 42, 79
1, 159484, Note_on_c, 9, 42, 0
1, 159600, Note_on_c, 9, 42, 111
1, 159604, Note_on_c, 9, 42, 0
1, 159720, Note_on_c, 9, 42, 85
1, 159724, Note_on_c, 9, 42, 0
1, 159839, Note_on_c, 9, 36, 0
1, 159840, Note_on_c, 9, 42, 115
1, 159840, Note_on_c, 9, 36, 120
1, 159844, Note_on_c, 9, 42, 0
1, 159960, Note_on_c, 9, 42, 79
1, 159964, Note_on_c, 9, 42, 0
1, 160080, Note_on_c, 9, 42, 117
1, 160084, Note_on_c, 9, 42, 0
1, 160200, Note_on_c, 9, 42, 79
1, 160204, Note_on_c, 9, 42, 0
1, 160319, Note_on_c, 9, 36, 0
1, 160320, Note_on_c, 9, 42, 111
1, 160320, Note_on_c, 9, 36, 120
1, 160324, Note_on_c, 9, 42, 0
1, 160440, Note_on_c, 9, 42, 79
1, 160444, Note_on_c, 9, 42, 0
1, 160560, Note_on_c, 9, 42, 108
1, 160564, Note_on_c, 9, 42, 0
1, 160680, Note_on_c, 9, 42, 82
1, 160684, Note_on_c, 9, 42, 0
1, 160799, Note_on_c, 9, 36, 0
1, 160800, Note_on_c, 9, 40, 127
1, 160800, Note_on_c, 9, 42, 116
1, 160800, Note_on_c, 9, 36, 119
1, 160804, Note_on_c, 9, 42, 0
1, 160919, Note_on_c, 9, 40, 0
1, 160920, Note_on_c, 9, 42, 79
1, 160924, Note_on_c, 9, 42, 0
1, 161040, Note_on_c, 9, 46, 111
1, 161050, Note_on_c, 9, 46, 0
1, 161279, Note_on_c, 9, 36, 0
1, 161280, Note_on_c, 9, 42, 114
1, 161280, Note_on_c, 9, 36, 121
1, 161284, Note_on_c, 9, 42, 0
1, 161400, Note_on_c, 9, 42, 79
1, 161404, Note_on_c, 9, 42, 0
1, 161520, Note_on_c, 9, 42, 111
1, 161524, Note_on_c, 9, 42, 0
1, 161640, Note_on_c, 9, 42, 79
1, 161644, Note_on_c, 9, 42, 0
1, 161759, Note_on_c, 9, 36, 0
1, 161760, Note_on_c, 9, 42, 115
1, 161760, Note_on_c, 9, 36, 120
1, 161764, Note_on_c, 9, 42, 0
1, 161880, Note_on_c, 9, 42, 76
1, 161884, Note_on_c, 9, 42, 0
1, 162000, Note_on_c, 9, 42, 114
1, 162004, Note_on_c, 9, 42, 0
1, 162120, Note_on_c, 9, 42, 76
1, 162124, Note_on_c, 9, 42, 0
1, 162239, Note_on_c, 9, 36, 0
1, 162240, Note_on_c, 9, 42, 104
1, 162240, Note_on_c, 9, 36, 120
1, 162244, Note_on_c, 9, 42, 0
1, 162360, Note_on_c, 9, 42, 76
1, 162364, Note_on_c, 9, 42, 0
1, 162480, Note_on_c, 9, 42, 114
1, 162484, Note_on_c, 9, 42, 0
1, 162600, Note_on_c, 9, 42, 74
1, 162604, Note_on_c, 9, 42, 0
1, 162719, Note_on_c, 9, 36, 0
1, 162720, Note_on_c, 9, 40, 127
1, 162720, Note_on_c, 9, 42, 116
1, 162720, Note_on_c, 9, 36, 119
1, 162724, Note_on_c, 9, 42, 0
1, 162839, Note_on_c, 9, 40, 0
1, 162840, Note_on_c, 9, 42, 74
1, 162844, Note_on_c, 9, 42, 0
1, 162960, Note_on_c, 9, 46, 111
1, 162970, Note_on_c, 9, 46, 0
1, 163199, Note_on_c, 9, 36, 0
1, 163200, Note_on_c, 9, 42, 111
1, 163200, Note_on_c, 9, 49, 92
1, 163200, Note_on_c, 9, 36, 121
1, 163204, Note_on_c, 9, 42, 0
1, 163204, Note_on_c, 9, 49, 0
1, 163320, Note_on_c, 9, 42, 82
1, 163324, Note_on_c, 9, 42, 0
1, 163440, Note_on_c, 9, 42, 111
1, 163444, Note_on_c, 9, 42, 0
1, 163560, Note_on_c, 9, 42, 85
1, 163564, Note_on_c, 9, 42, 0
1, 163679, Note_on_c, 9, 36, 0
1, 163680, Note_on_c, 9, 42, 115
1, 163680, Note_on_c, 9, 36, 120
1, 163684, Note_on_c, 9, 42, 0
1, 163800, Note_on_c, 9, 42, 82
1, 163804, Note_on_c, 9, 42, 0
1, 163920, Note_on_c, 9, 42, 111
1, 163924, Note_on_c, 9, 42, 0
1, 164040, Note_on_c, 9, 42, 82
1, 164044, Note_on_c, 9, 42, 0
1, 164159, Note_on_c, 9, 36, 0
1, 164160, Note_on_c, 9, 42, 104
1, 164160, Note_on_c, 9, 36, 120
1, 164164, Note_on_c, 9, 42, 0
1, 164280, Note_on_c, 9, 42, 85
1, 164284, Note_on_c, 9, 42, 0
1, 164400, Note_on_c, 9, 42, 111
1, 164404, Note_on_c, 9, 42, 0
1, 164520, Note_on_c, 9, 42, 82
1, 164524, Note_on_c, 9, 42, 0
1, 164639, Note_on_c, 9, 36, 0
1, 164640, Note_on_c, 9, 40, 127
1, 164640, Note_on_c, 9, 42, 116
1, 164640, Note_on_c, 9, 36, 119
1, 164644, Note_on_c, 9, 42, 0
1, 164759, Note_on_c, 9, 40, 0
1, 164760, Note_on_c, 9, 42, 79
1, 164764, Note_on_c, 9, 42, 0
1, 164880, Note_on_c, 9, 46, 111
1, 164890, Note_on_c, 9, 46, 0
1, 165119, Note_on_c, 9, 36, 0
1, 165120, Note_on_c, 9, 42, 108
1, 165120, Note_on_c, 9, 36, 121
1, 165124, Note_on_c, 9, 42, 0
1, 165240, Note_on_c, 9, 42, 79
1, 165244, Note_on_c, 9, 42, 0
1, 165360, Note_on_c, 9, 42, 108
1, 165364, Note_on_c, 9, 42, 0
1, 165480, Note_on_c, 9, 42, 79
1, 165484, Note_on_c, 9, 42, 0
1, 165599, Note_on_c, 9, 36, 0
1, 165600, Note_on_c, 9, 42, 115
1, 165600, Note_on_c, 9, 36, 120
1, 165604, Note_on_c, 9, 42, 0
1, 165720, Note_on_c, 9, 42, 76
1, 165724, Note_on_c, 9, 42, 0
1, 165840, Note_on_c, 9, 42, 111
1, 165844, Note_on_c, 9, 42, 0
1, 165960, Note_on_c, 9, 42, 76
1, 165964, Note_on_c, 9, 42, 0
1, 166079, Note_on_c, 9, 36, 0
1, 166080, Note_on_c, 9, 42, 104
1, 166080, Note_on_c, 9, 36, 120
1, 166084, Note_on_c, 9, 42, 0
1, 166200, Note_on_c, 9, 42, 79
1, 166204, Note_on_c, 9, 42, 0
1, 166320, Note_on_c, 9, 42, 108
1, 166324, Note_on_c, 9, 42, 0
1, 166440, Note_on_c, 9, 42, 82
1, 166444, Note_on_c, 9, 42, 0
1, 166559, Note_on_c, 9, 36, 0
1, 166560, Note_on_c, 9, 40, 127
1, 166560, Note_on_c, 9, 42, 116
1, 166560, Note_on_c, 9, 36, 119
1, 166564, Note_on_c, 9, 42, 0
1, 166679, Note_on_c, 9, 40, 0
1, 166680, Note_on_c, 9, 42, 79
1, 166684, Note_on_c, 9, 42, 0
1, 166800, Note_on_c, 9, 46, 111
1, 166810, Note_on_c, 9, 46, 0
1, 167039, Note_on_c, 9, 36, 0
1, 167040, Note_on_c, 9, 42, 117
1, 167040, Note_on_c, 9, 49, 92
1, 167040, Note_on_c, 9, 36, 121
1, 167044, Note_on_c, 9, 42, 0
1, 167044, Note_on_c, 9, 49, 0
1, 167160, Note_on_c, 9, 42, 79
1, 167164, Note_on_c, 9, 42, 0
1, 167280, Note_on_c, 9, 42, 111
1, 167284, Note_on_c, 9, 42, 0
1, 167400, Note_on_c, 9, 42, 85
1, 167404, Note_on_c, 9, 42, 0
1, 167519, Note_on_c, 9, 36, 0
1, 167520, Note_on_c, 9, 42, 115
1, 167520, Note_on_c, 9, 36, 120
1, 167524, Note_on_c, 9, 42, 0
1, 167640, Note_on_c, 9, 42, 79
1, 167644, Note_on_c, 9, 42, 0
1, 167760, Note_on_c, 9, 42, 117
1, 167764, Note_on_c, 9, 42, 0
1, 167880, Note_on_c, 9, 42, 79
1, 167884, Note_on_c, 9, 42, 0
1, 167999, Note_on_c, 9, 36, 0
1, 168000, Note_on_c, 9, 42, 111
1, 168000, Note_on_c, 9, 36, 120
1, 168004, Note_on_c, 9, 42, 0
1, 168120, Note_on_c, 9, 42, 79
1, 168124, Note_on_c, 9, 42, 0
1, 168240, Note_on_c, 9, 42, 108
1, 168244, Note_on_c, 9, 42, 0
1, 168360, Note_on_c, 9, 42, 82
1, 168364, Note_on_c, 9, 42, 0
1, 168479, Note_on_c, 9, 36, 0
1, 168480, Note_on_c, 9, 40, 127
1, 168480, Note_on_c, 9, 42, 116
1, 168480, Note_on_c, 9, 36, 119
1, 168484, Note_on_c, 9, 42, 0
1, 168599, Note_on_c, 9, 40, 0
1, 168600, Note_on_c, 9, 42, 79
1, 168604, Note_on_c, 9, 42, 0
1, 168720, Note_on_c, 9, 46, 111
1, 168730, Note_on_c, 9, 46, 0
1, 168959, Note_on_c, 9, 36, 0
1, 168960, Note_on_c, 9, 42, 114
1, 168960, Note_on_c, 9, 36, 121
1, 168964, Note_on_c, 9, 42, 0
1, 169080, Note_on_c, 9, 42, 79
1, 169084, Note_on_c, 9, 42, 0
1, 169200, Note_on_c, 9, 42, 111
1, 169204, Note_on_c, 9, 42, 0
1, 169320, Note_on_c, 9, 42, 79
1, 169324, Note_on_c, 9, 42, 0
1, 169439, Note_on_c, 9, 36, 0
1, 169440, Note_on_c, 9, 42, 115
1, 169440, Note_on_c, 9, 36, 120
1, 169444, Note_on_c, 9, 42, 0
1, 169560, Note_on_c, 9, 42, 76
1, 169564, Note_on_c, 9, 42, 0
1, 169680, Note_on_c, 9, 42, 114
1, 169684, Note_on_c, 9, 42, 0
1, 169800, Note_on_c, 9, 42, 76
1, 169804, Note_on_c, 9, 42, 0
1, 169919, Note_on_c, 9, 36, 0
1, 169920, Note_on_c, 9, 42, 104
1, 169920, Note_on_c, 9, 36, 120
1, 169924, Note_on_c, 9, 42, 0
1, 170040, Note_on_c, 9, 42, 76
1, 170044, Note_on_c, 9, 42, 0
1, 170160, Note_on_c, 9, 42, 114
1, 170164, Note_on_c, 9, 42, 0
1, 170280, Note_on_c, 9, 42, 74
1, 170284, Note_on_c, 9, 42, 0
1, 170399, Note_on_c, 9, 36, 0
1, 170400, Note_on_c, 9, 40, 127
1, 170400, Note_on_c, 9, 42, 116
1, 170400, Note_on_c, 9, 36, 119
1, 170404, Note_on_c, 9, 42, 0
1, 170519, Note_on_c, 9, 40, 0
1, 170520, Note_on_c, 9, 42, 74
1, 170524, Note_on_c, 9, 42, 0
1, 170640, Note_on_c, 9, 46, 111
1, 170650, Note_on_c, 9, 46, 0
1, 170879, Note_on_c, 9, 36, 0
1, 170880, Note_on_c, 9, 42, 111
1, 170880, Note_on_c, 9, 49, 92
1, 170880, Note_on_c, 9, 36, 121
1, 170884, Note_on_c, 9, 42, 0
1, 170884, Note_on_c, 9, 49, 0
1, 171000, Note_on_c, 9, 42, 82
1, 171004, Note_on_c, 9, 42, 0
1, 171120, Note_on_c, 9, 42, 111
1, 171124, Note_on_c, 9, 42, 0
1, 171240, Note_on_c, 9, 42, 85
1, 171244, Note_on_c, 9, 42, 0
1, 171359, Note_on_c, 9, 36, 0
1, 171360, Note_on_c, 9, 42, 115
1, 171360, Note_on_c, 9, 36, 120
1, 171364, Note_on_c, 9, 42, 0
1, 171480, Note_on_c, 9, 42, 82
1, 171484, Note_on_c, 9, 42, 0
1, 171600, Note_on_c, 9, 42, 111
1, 171604, Note_on_c, 9, 42, 0
1, 171720, Note_on_c, 9, 42, 82
1, 171724, Note_on_c, 9, 42, 0
1, 171839, Note_on_c, 9, 36, 0
1, 171840, Note_on_c, 9, 42, 104
1, 171840, Note_on_c, 9, 36, 120
1, 171844, Note_on_c, 9, 42, 0
1, 171960, Note_on_c, 9, 42, 85
1, 171964, Note_on_c, 9, 42, 0
1, 172080, Note_on_c, 9, 42, 111
1, 172084, Note_on_c, 9, 42, 0
1, 172200, Note_on_c, 9, 42, 82
1, 172204, Note_on_c, 9, 42, 0
1, 172319, Note_on_c, 9, 36, 0
1, 172320, Note_on_c, 9, 40, 127
1, 172320, Note_on_c, 9, 42, 116
1, 172320, Note_on_c, 9, 36, 119
1, 172324, Note_on_c, 9, 42, 0
1, 172439, Note_on_c, 9, 40, 0
1, 172440, Note_on_c, 9, 42, 79
1, 172444, Note_on_c, 9, 42, 0
1, 172560, Note_on_c, 9, 46, 111
1, 172570, Note_on_c, 9, 46, 0
1, 172799, Note_on_c, 9, 36, 0
1, 172800, Note_on_c, 9, 42, 108
1, 172800, Note_on_c, 9, 36, 121
1, 172804, Note_on_c, 9, 42, 0
1, 172920, Note_on_c, 9, 42, 79
1, 172924, Note_on_c, 9, 42, 0
1, 173040, Note_on_c, 9, 42, 108
1, 173044, Note_on_c, 9, 42, 0
1, 173160, Note_on_c, 9, 42, 79
1, 173164, Note_on_c, 9, 42, 0
1, 173279, Note_on_c, 9, 36, 0
1, 173280, Note_on_c, 9, 42, 115
1, 173280, Note_on_c, 9, 36, 120
1, 173284, Note_on_c, 9, 42, 0
1, 173400, Note_on_c, 9, 42, 76
1, 173404, Note_on_c, 9, 42, 0
1, 173520, Note_on_c, 9, 42, 111
1, 173524, Note_on_c, 9, 42, 0
1, 173640, Note_on_c, 9, 42, 76
1, 173644, Note_on_c, 9, 42, 0
1, 173759, Note_on_c, 9, 36, 0
1, 173760, Note_on_c, 9, 42, 104
1, 173760, Note_on_c, 9, 36, 120
1, 173764, Note_on_c, 9, 42, 0
1, 173880, Note_on_c, 9, 42, 79
1, 173884, Note_on_c, 9, 42, 0
1, 174000, Note_on_c, 9, 42, 108
1, 174004, Note_on_c, 9, 42, 0
1, 174120, Note_on_c, 9, 42, 82
1, 174124, Note_on_c, 9, 42, 0
1, 174239, Note_on_c, 9, 36, 0
1, 174240, Note_on_c, 9, 36, 119
1, 174280, Note_on_c, 9, 40, 127
1, 174280, Note_on_c, 9, 42, 116
1, 174283, Note_on_c, 9, 42, 0
1, 174359, Note_on_c, 9, 40, 0
1, 174400, Note_on_c, 9, 42, 79
1, 174402, Note_on_c, 9, 42, 0
1, 174480, Note_on_c, 9, 46, 111
1, 174490, Note_on_c, 9, 46, 0
1, 174719, Note_on_c, 9, 36, 0
1, 174720, Note_on_c, 9, 42, 112
1, 174720, Note_on_c, 9, 49, 92
1, 174720, Note_on_c, 9, 36, 121
1, 174730, Note_on_c, 9, 42, 0
1, 174730, Note_on_c, 9, 49, 0
1, 174960, Note_on_c, 9, 42, 83
1, 174970, Note_on_c, 9, 42, 0
1, 175199, Note_on_c, 9, 36, 0
1, 175200, Note_on_c, 9, 40, 127
1, 175200, Note_on_c, 9, 42, 125
1, 175200, Note_on_c, 9, 36, 120
1, 175210, Note_on_c, 9, 42, 0
1, 175439, Note_on_c, 9, 40, 0
1, 175440, Note_on_c, 9, 42, 93
1, 175450, Note_on_c, 9, 42, 0
1, 175679, Note_on_c, 9, 36, 0
1, 175680, Note_on_c, 9, 42, 114
1, 175680, Note_on_c, 9, 36, 120
1, 175690, Note_on_c, 9, 42, 0
1, 175920, Note_on_c, 9, 42, 94
1, 175930, Note_on_c, 9, 42, 0
1, 176159, Note_on_c, 9, 36, 0
1, 176160, Note_on_c, 9, 40, 127
1, 176160, Note_on_c, 9, 42, 126
1, 176160, Note_on_c, 9, 36, 119
1, 176170, Note_on_c, 9, 42, 0
1, 176399, Note_on_c, 9, 40, 0
1, 176400, Note_on_c, 9, 46, 121
1, 176410, Note_on_c, 9, 46, 0
1, 176639, Note_on_c, 9, 36, 0
1, 176640, Note_on_c, 9, 40, 127
1, 176640, Note_on_c, 9, 42, 112
1, 176640, Note_on_c, 9, 36, 121
1, 176644, Note_on_c, 9, 42, 0
1, 176759, Note_on_c, 9, 40, 0
1, 176760, Note_on_c, 9, 40, 127
1, 176879, Note_on_c, 9, 40, 0
1, 176880, Note_on_c, 9, 42, 83
1, 176890, Note_on_c, 9, 42, 0
1, 177119, Note_on_c, 9, 36, 0
1, 177120, Note_on_c, 9, 36, 120
1, 177135, Note_on_c, 9, 40, 127
1, 177135, Note_on_c, 9, 42, 125
1, 177136, Note_on_c, 9, 42, 0
1, 177179, Note_on_c, 9, 40, 0
1, 177240, Note_on_c, 9, 40, 127
1, 177359, Note_on_c, 9, 40, 0
1, 177360, Note_on_c, 9, 42, 93
1, 177364, Note_on_c, 9, 42, 0
1, 177495, Note_on_c, 9, 40, 127
1, 177539, Note_on_c, 9, 40, 0
1, 177599, Note_on_c, 9, 36, 0
1, 177600, Note_on_c, 9, 47, 127
1, 177600, Note_on_c, 9, 42, 114
1, 177600, Note_on_c, 9, 36, 120
1, 177604, Note_on_c, 9, 42, 0
1, 177719, Note_on_c, 9, 47, 0
1, 177720, Note_on_c, 9, 45, 127
1, 177839, Note_on_c, 9, 36, 0
1, 177839, Note_on_c, 9, 45, 0
1, 177840, Note_on_c, 9, 42, 94
1, 177840, Note_on_c, 9, 43, 127
1, 177850, Note_on_c, 9, 42, 0
1, 178079, Note_on_c, 9, 43, 0
1, 178080, Note_on_c, 9, 36, 119
1, 178095, Note_on_c, 9, 40, 124
1, 178095, Note_on_c, 9, 42, 126
1, 178096, Note_on_c, 9, 42, 0
1, 178139, Note_on_c, 9, 40, 0
1, 178200, Note_on_c, 9, 40, 127
1, 178319, Note_on_c, 9, 40, 0
1, 178320, Note_on_c, 9, 40, 127
1, 178320, Note_on_c, 9, 42, 121
1, 178324, Note_on_c, 9, 42, 0
1, 178439, Note_on_c, 9, 40, 0
1, 178440, Note_on_c, 9, 40, 127
1, 178559, Note_on_c, 9, 36, 0
1, 178559, Note_on_c, 9, 40, 0
1, 178560, Note_on_c, 9, 49, 92
1, 178560, Note_on_c, 9, 36, 121
1, 178582, Note_on_c, 9, 49, 0
1, 179039, Note_on_c, 9, 36, 0
1, 179040, End_track
0, 0, End_of_file
