0, 0, Header, 1, 1, 480
1, 0, Start_track
1, 0, Title_t, "Drumset"
1, 0, Time_signature, 4, 2, 24, 8
1, 0, Key_signature, 0, "major"
1, 0, Tempo, 372671
1, 0, Control_c, 9, 121, 0
1, 0, Program_c, 9, 0
1, 0, Control_c, 9, 7, 100
1, 0, Control_c, 9, 10, 64
1, 0, Control_c, 9, 91, 0
1, 0, Control_c, 9, 93, 0
1, 0, MIDI_port, 1
1, 15360, Note_on_c, 9, 82, 79
1, 15479, Note_on_c, 9, 82, 0
1, 15480, Note_on_c, 9, 82, 38
1, 15599, Note_on_c, 9, 82, 0
1, 15600, Note_on_c, 9, 82, 79
1, 15719, Note_on_c, 9, 82, 0
1, 15720, Note_on_c, 9, 82, 38
1, 15839, Note_on_c, 9, 82, 0
1, 15840, Note_on_c, 9, 82, 79
1, 15959, Note_on_c, 9, 82, 0
1, 15960, Note_on_c, 9, 82, 38
1, 16079, Note_on_c, 9, 82, 0
1, 16080, Note_on_c, 9, 82, 79
1, 16199, Note_on_c, 9, 82, 0
1, 16200, Note_on_c, 9, 82, 38
1, 16319, Note_on_c, 9, 82, 0
1, 16320, Note_on_c, 9, 82, 79
1, 16439, Note_on_c, 9, 82, 0
1, 16440, Note_on_c, 9, 82, 38
1, 16559, Note_on_c, 9, 82, 0
1, 16560, Note_on_c, 9, 82, 79
1, 16679, Note_on_c, 9, 82, 0
1, 16680, Note_on_c, 9, 82, 38
1, 16799, Note_on_c, 9, 82, 0
1, 16800, Note_on_c, 9, 82, 79
1, 16919, Note_on_c, 9, 82, 0
1, 16920, Note_on_c, 9, 82, 38
1, 17039, Note_on_c, 9, 82, 0
1, 17040, Note_on_c, 9, 82, 79
1, 17159, Note_on_c, 9, 82, 0
1, 17160, Note_on_c, 9, 82, 38
1, 17279, Note_on_c, 9, 82, 0
1, 17280, Note_on_c, 9, 82, 79
1, 17399, Note_on_c, 9, 82, 0
1, 17400, Note_on_c, 9, 82, 38
1, 17519, Note_on_c, 9, 82, 0
1, 17520, Note_on_c, 9, 82, 79
1, 17639, Note_on_c, 9, 82, 0
1, 17640, Note_on_c, 9, 82, 38
1, 17759, Note_on_c, 9, 82, 0
1, 17760, Note_on_c, 9, 82, 79
1, 17879, Note_on_c, 9, 82, 0
1, 17880, Note_on_c, 9, 82, 38
1, 17999, Note_on_c, 9, 82, 0
1, 18000, Note_on_c, 9, 82, 79
1, 18119, Note_on_c, 9, 82, 0
1, 18120, Note_on_c, 9, 82, 38
1, 18239, Note_on_c, 9, 82, 0
1, 18240, Note_on_c, 9, 82, 79
1, 18359, Note_on_c, 9, 82, 0
1, 18360, Note_on_c, 9, 82, 38
1, 18479, Note_on_c, 9, 82, 0
1, 18480, Note_on_c, 9, 82, 79
1, 18599, Note_on_c, 9, 82, 0
1, 18600, Note_on_c, 9, 82, 38
1, 18719, Note_on_c, 9, 82, 0
1, 18720, Note_on_c, 9, 82, 79
1, 18839, Note_on_c, 9, 82, 0
1, 18840, Note_on_c, 9, 82, 38
1, 18959, Note_on_c, 9, 82, 0
1, 18960, Note_on_c, 9, 82, 79
1, 19079, Note_on_c, 9, 82, 0
1, 19080, Note_on_c, 9, 82, 38
1, 19199, Note_on_c, 9, 82, 0
1, 19200, Note_on_c, 9, 82, 79
1, 19319, Note_on_c, 9, 82, 0
1, 19320, Note_on_c, 9, 82, 38
1, 19439, Note_on_c, 9, 82, 0
1, 19440, Note_on_c, 9, 82, 79
1, 19559, Note_on_c, 9, 82, 0
1, 19560, Note_on_c, 9, 82, 38
1, 19679, Note_on_c, 9, 82, 0
1, 19680, Note_on_c, 9, 82, 79
1, 19799, Note_on_c, 9, 82, 0
1, 19800, Note_on_c, 9, 82, 38
1, 19919, Note_on_c, 9, 82, 0
1, 19920, Note_on_c, 9, 82, 79
1, 20039, Note_on_c, 9, 82, 0
1, 20040, Note_on_c, 9, 82, 38
1, 20159, Note_on_c, 9, 82, 0
1, 20160, Note_on_c, 9, 82, 79
1, 20279, Note_on_c, 9, 82, 0
1, 20280, Note_on_c, 9, 82, 38
1, 20399, Note_on_c, 9, 82, 0
1, 20400, Note_on_c, 9, 82, 79
1, 20519, Note_on_c, 9, 82, 0
1, 20520, Note_on_c, 9, 82, 38
1, 20639, Note_on_c, 9, 82, 0
1, 20640, Note_on_c, 9, 82, 79
1, 20759, Note_on_c, 9, 82, 0
1, 20760, Note_on_c, 9, 82, 38
1, 20879, Note_on_c, 9, 82, 0
1, 20880, Note_on_c, 9, 82, 79
1, 20999, Note_on_c, 9, 82, 0
1, 21000, Note_on_c, 9, 82, 38
1, 21119, Note_on_c, 9, 82, 0
1, 21120, Note_on_c, 9, 82, 79
1, 21239, Note_on_c, 9, 82, 0
1, 21240, Note_on_c, 9, 82, 38
1, 21359, Note_on_c, 9, 82, 0
1, 21360, Note_on_c, 9, 82, 79
1, 21479, Note_on_c, 9, 82, 0
1, 21480, Note_on_c, 9, 82, 38
1, 21599, Note_on_c, 9, 82, 0
1, 21600, Note_on_c, 9, 82, 79
1, 21719, Note_on_c, 9, 82, 0
1, 21720, Note_on_c, 9, 82, 38
1, 21839, Note_on_c, 9, 82, 0
1, 21840, Note_on_c, 9, 82, 79
1, 21959, Note_on_c, 9, 82, 0
1, 21960, Note_on_c, 9, 82, 38
1, 22079, Note_on_c, 9, 82, 0
1, 22080, Note_on_c, 9, 82, 79
1, 22199, Note_on_c, 9, 82, 0
1, 22200, Note_on_c, 9, 82, 38
1, 22319, Note_on_c, 9, 82, 0
1, 22320, Note_on_c, 9, 82, 79
1, 22439, Note_on_c, 9, 82, 0
1, 22440, Note_on_c, 9, 82, 38
1, 22559, Note_on_c, 9, 82, 0
1, 22560, Note_on_c, 9, 82, 79
1, 22679, Note_on_c, 9, 82, 0
1, 22680, Note_on_c, 9, 82, 38
1, 22799, Note_on_c, 9, 82, 0
1, 22800, Note_on_c, 9, 82, 79
1, 22919, Note_on_c, 9, 82, 0
1, 22920, Note_on_c, 9, 82, 38
1, 23039, Note_on_c, 9, 82, 0
1, 23040, Note_on_c, 9, 82, 79
1, 23159, Note_on_c, 9, 82, 0
1, 23160, Note_on_c, 9, 82, 38
1, 23279, Note_on_c, 9, 82, 0
1, 23280, Note_on_c, 9, 82, 79
1, 23399, Note_on_c, 9, 82, 0
1, 23400, Note_on_c, 9, 82, 38
1, 23519, Note_on_c, 9, 82, 0
1, 23520, Note_on_c, 9, 82, 79
1, 23639, Note_on_c, 9, 82, 0
1, 23640, Note_on_c, 9, 82, 38
1, 23759, Note_on_c, 9, 82, 0
1, 23760, Note_on_c, 9, 82, 79
1, 23879, Note_on_c, 9, 82, 0
1, 23880, Note_on_c, 9, 82, 38
1, 23999, Note_on_c, 9, 82, 0
1, 24000, Note_on_c, 9, 82, 79
1, 24119, Note_on_c, 9, 82, 0
1, 24120, Note_on_c, 9, 82, 38
1, 24239, Note_on_c, 9, 82, 0
1, 24240, Note_on_c, 9, 82, 79
1, 24359, Note_on_c, 9, 82, 0
1, 24360, Note_on_c, 9, 82, 38
1, 24479, Note_on_c, 9, 82, 0
1, 24480, Note_on_c, 9, 82, 79
1, 24599, Note_on_c, 9, 82, 0
1, 24600, Note_on_c, 9, 82, 38
1, 24719, Note_on_c, 9, 82, 0
1, 24720, Note_on_c, 9, 82, 79
1, 24839, Note_on_c, 9, 82, 0
1, 24840, Note_on_c, 9, 82, 38
1, 24959, Note_on_c, 9, 82, 0
1, 24960, Note_on_c, 9, 82, 79
1, 25079, Note_on_c, 9, 82, 0
1, 25080, Note_on_c, 9, 82, 38
1, 25199, Note_on_c, 9, 82, 0
1, 25200, Note_on_c, 9, 82, 79
1, 25319, Note_on_c, 9, 82, 0
1, 25320, Note_on_c, 9, 82, 38
1, 25439, Note_on_c, 9, 82, 0
1, 25440, Note_on_c, 9, 82, 79
1, 25559, Note_on_c, 9, 82, 0
1, 25560, Note_on_c, 9, 82, 38
1, 25679, Note_on_c, 9, 82, 0
1, 25680, Note_on_c, 9, 82, 79
1, 25799, Note_on_c, 9, 82, 0
1, 25800, Note_on_c, 9, 82, 38
1, 25919, Note_on_c, 9, 82, 0
1, 25920, Note_on_c, 9, 82, 79
1, 26039, Note_on_c, 9, 82, 0
1, 26040, Note_on_c, 9, 82, 38
1, 26159, Note_on_c, 9, 82, 0
1, 26160, Note_on_c, 9, 82, 79
1, 26279, Note_on_c, 9, 82, 0
1, 26280, Note_on_c, 9, 82, 38
1, 26399, Note_on_c, 9, 82, 0
1, 26400, Note_on_c, 9, 82, 79
1, 26519, Note_on_c, 9, 82, 0
1, 26520, Note_on_c, 9, 82, 38
1, 26639, Note_on_c, 9, 82, 0
1, 26640, Note_on_c, 9, 82, 79
1, 26759, Note_on_c, 9, 82, 0
1, 26760, Note_on_c, 9, 82, 38
1, 26879, Note_on_c, 9, 82, 0
1, 26880, Note_on_c, 9, 82, 79
1, 26999, Note_on_c, 9, 82, 0
1, 27000, Note_on_c, 9, 82, 38
1, 27119, Note_on_c, 9, 82, 0
1, 27120, Note_on_c, 9, 82, 79
1, 27239, Note_on_c, 9, 82, 0
1, 27240, Note_on_c, 9, 82, 38
1, 27359, Note_on_c, 9, 82, 0
1, 27360, Note_on_c, 9, 82, 79
1, 27479, Note_on_c, 9, 82, 0
1, 27480, Note_on_c, 9, 82, 38
1, 27599, Note_on_c, 9, 82, 0
1, 27600, Note_on_c, 9, 82, 79
1, 27719, Note_on_c, 9, 82, 0
1, 27720, Note_on_c, 9, 82, 38
1, 27839, Note_on_c, 9, 82, 0
1, 27840, Note_on_c, 9, 82, 79
1, 27959, Note_on_c, 9, 82, 0
1, 27960, Note_on_c, 9, 82, 38
1, 28079, Note_on_c, 9, 82, 0
1, 28080, Note_on_c, 9, 82, 79
1, 28199, Note_on_c, 9, 82, 0
1, 28200, Note_on_c, 9, 82, 38
1, 28319, Note_on_c, 9, 82, 0
1, 28320, Note_on_c, 9, 82, 79
1, 28439, Note_on_c, 9, 82, 0
1, 28440, Note_on_c, 9, 82, 38
1, 28559, Note_on_c, 9, 82, 0
1, 28560, Note_on_c, 9, 82, 79
1, 28679, Note_on_c, 9, 82, 0
1, 28680, Note_on_c, 9, 82, 38
1, 28799, Note_on_c, 9, 82, 0
1, 28800, Note_on_c, 9, 82, 79
1, 28919, Note_on_c, 9, 82, 0
1, 28920, Note_on_c, 9, 82, 38
1, 29039, Note_on_c, 9, 82, 0
1, 29040, Note_on_c, 9, 82, 79
1, 29159, Note_on_c, 9, 82, 0
1, 29160, Note_on_c, 9, 82, 38
1, 29279, Note_on_c, 9, 82, 0
1, 29280, Note_on_c, 9, 82, 79
1, 29399, Note_on_c, 9, 82, 0
1, 29400, Note_on_c, 9, 82, 38
1, 29519, Note_on_c, 9, 82, 0
1, 29520, Note_on_c, 9, 82, 79
1, 29639, Note_on_c, 9, 82, 0
1, 29640, Note_on_c, 9, 82, 38
1, 29759, Note_on_c, 9, 82, 0
1, 29760, Note_on_c, 9, 82, 79
1, 29879, Note_on_c, 9, 82, 0
1, 29880, Note_on_c, 9, 82, 38
1, 29999, Note_on_c, 9, 82, 0
1, 30000, Note_on_c, 9, 82, 79
1, 30119, Note_on_c, 9, 82, 0
1, 30120, Note_on_c, 9, 82, 38
1, 30239, Note_on_c, 9, 82, 0
1, 30240, Note_on_c, 9, 82, 79
1, 30359, Note_on_c, 9, 82, 0
1, 30360, Note_on_c, 9, 82, 38
1, 30479, Note_on_c, 9, 82, 0
1, 30480, Note_on_c, 9, 82, 79
1, 30599, Note_on_c, 9, 82, 0
1, 30600, Note_on_c, 9, 82, 38
1, 30719, Note_on_c, 9, 82, 0
1, 30720, Note_on_c, 9, 82, 79
1, 30839, Note_on_c, 9, 82, 0
1, 30840, Note_on_c, 9, 82, 38
1, 30959, Note_on_c, 9, 82, 0
1, 30960, Note_on_c, 9, 82, 79
1, 31079, Note_on_c, 9, 82, 0
1, 31080, Note_on_c, 9, 82, 38
1, 31199, Note_on_c, 9, 82, 0
1, 31200, Note_on_c, 9, 82, 79
1, 31319, Note_on_c, 9, 82, 0
1, 31320, Note_on_c, 9, 82, 38
1, 31439, Note_on_c, 9, 82, 0
1, 31440, Note_on_c, 9, 82, 79
1, 31559, Note_on_c, 9, 82, 0
1, 31560, Note_on_c, 9, 82, 38
1, 31679, Note_on_c, 9, 82, 0
1, 31680, Note_on_c, 9, 82, 79
1, 31799, Note_on_c, 9, 82, 0
1, 31800, Note_on_c, 9, 82, 38
1, 31919, Note_on_c, 9, 82, 0
1, 31920, Note_on_c, 9, 82, 79
1, 32039, Note_on_c, 9, 82, 0
1, 32040, Note_on_c, 9, 82, 38
1, 32159, Note_on_c, 9, 82, 0
1, 32160, Note_on_c, 9, 82, 79
1, 32279, Note_on_c, 9, 82, 0
1, 32280, Note_on_c, 9, 82, 38
1, 32399, Note_on_c, 9, 82, 0
1, 32400, Note_on_c, 9, 82, 79
1, 32519, Note_on_c, 9, 82, 0
1, 32520, Note_on_c, 9, 82, 38
1, 32639, Note_on_c, 9, 82, 0
1, 32640, Note_on_c, 9, 82, 79
1, 32759, Note_on_c, 9, 82, 0
1, 32760, Note_on_c, 9, 82, 38
1, 32879, Note_on_c, 9, 82, 0
1, 32880, Note_on_c, 9, 82, 79
1, 32999, Note_on_c, 9, 82, 0
1, 33000, Note_on_c, 9, 82, 38
1, 33119, Note_on_c, 9, 82, 0
1, 33120, Note_on_c, 9, 82, 79
1, 33239, Note_on_c, 9, 82, 0
1, 33240, Note_on_c, 9, 82, 38
1, 33359, Note_on_c, 9, 82, 0
1, 33360, Note_on_c, 9, 82, 79
1, 33479, Note_on_c, 9, 82, 0
1, 33480, Note_on_c, 9, 82, 38
1, 33599, Note_on_c, 9, 82, 0
1, 33600, Note_on_c, 9, 82, 79
1, 33719, Note_on_c, 9, 82, 0
1, 33720, Note_on_c, 9, 82, 38
1, 33839, Note_on_c, 9, 82, 0
1, 33840, Note_on_c, 9, 82, 79
1, 33959, Note_on_c, 9, 82, 0
1, 33960, Note_on_c, 9, 82, 38
1, 34079, Note_on_c, 9, 82, 0
1, 34080, Note_on_c, 9, 82, 79
1, 34199, Note_on_c, 9, 82, 0
1, 34200, Note_on_c, 9, 82, 38
1, 34319, Note_on_c, 9, 82, 0
1, 34320, Note_on_c, 9, 82, 79
1, 34439, Note_on_c, 9, 82, 0
1, 34440, Note_on_c, 9, 82, 38
1, 34559, Note_on_c, 9, 82, 0
1, 34560, Note_on_c, 9, 82, 79
1, 34679, Note_on_c, 9, 82, 0
1, 34680, Note_on_c, 9, 82, 38
1, 34799, Note_on_c, 9, 82, 0
1, 34800, Note_on_c, 9, 82, 79
1, 34919, Note_on_c, 9, 82, 0
1, 34920, Note_on_c, 9, 82, 38
1, 35039, Note_on_c, 9, 82, 0
1, 35040, Note_on_c, 9, 82, 79
1, 35159, Note_on_c, 9, 82, 0
1, 35160, Note_on_c, 9, 82, 38
1, 35279, Note_on_c, 9, 82, 0
1, 35280, Note_on_c, 9, 82, 79
1, 35399, Note_on_c, 9, 82, 0
1, 35400, Note_on_c, 9, 82, 38
1, 35519, Note_on_c, 9, 82, 0
1, 35520, Note_on_c, 9, 82, 79
1, 35639, Note_on_c, 9, 82, 0
1, 35640, Note_on_c, 9, 82, 38
1, 35759, Note_on_c, 9, 82, 0
1, 35760, Note_on_c, 9, 82, 79
1, 35879, Note_on_c, 9, 82, 0
1, 35880, Note_on_c, 9, 82, 38
1, 35999, Note_on_c, 9, 82, 0
1, 36000, Note_on_c, 9, 82, 79
1, 36119, Note_on_c, 9, 82, 0
1, 36120, Note_on_c, 9, 82, 38
1, 36239, Note_on_c, 9, 82, 0
1, 36240, Note_on_c, 9, 82, 79
1, 36359, Note_on_c, 9, 82, 0
1, 36360, Note_on_c, 9, 82, 38
1, 36479, Note_on_c, 9, 82, 0
1, 36480, Note_on_c, 9, 82, 79
1, 36599, Note_on_c, 9, 82, 0
1, 36600, Note_on_c, 9, 82, 38
1, 36719, Note_on_c, 9, 82, 0
1, 36720, Note_on_c, 9, 82, 79
1, 36839, Note_on_c, 9, 82, 0
1, 36840, Note_on_c, 9, 82, 38
1, 36959, Note_on_c, 9, 82, 0
1, 36960, Note_on_c, 9, 82, 79
1, 37079, Note_on_c, 9, 82, 0
1, 37080, Note_on_c, 9, 82, 38
1, 37199, Note_on_c, 9, 82, 0
1, 37200, Note_on_c, 9, 82, 79
1, 37319, Note_on_c, 9, 82, 0
1, 37320, Note_on_c, 9, 82, 38
1, 37439, Note_on_c, 9, 82, 0
1, 37440, Note_on_c, 9, 82, 79
1, 37559, Note_on_c, 9, 82, 0
1, 37560, Note_on_c, 9, 82, 38
1, 37679, Note_on_c, 9, 82, 0
1, 37680, Note_on_c, 9, 82, 79
1, 37799, Note_on_c, 9, 82, 0
1, 37800, Note_on_c, 9, 82, 38
1, 37919, Note_on_c, 9, 82, 0
1, 37920, Note_on_c, 9, 82, 79
1, 38039, Note_on_c, 9, 82, 0
1, 38040, Note_on_c, 9, 82, 38
1, 38159, Note_on_c, 9, 82, 0
1, 38160, Note_on_c, 9, 82, 79
1, 38279, Note_on_c, 9, 82, 0
1, 38280, Note_on_c, 9, 82, 38
1, 38399, Note_on_c, 9, 82, 0
1, 38400, Note_on_c, 9, 82, 79
1, 38519, Note_on_c, 9, 82, 0
1, 38520, Note_on_c, 9, 82, 38
1, 38639, Note_on_c, 9, 82, 0
1, 38640, Note_on_c, 9, 82, 79
1, 38759, Note_on_c, 9, 82, 0
1, 38760, Note_on_c, 9, 82, 38
1, 38879, Note_on_c, 9, 82, 0
1, 38880, Note_on_c, 9, 82, 79
1, 38999, Note_on_c, 9, 82, 0
1, 39000, Note_on_c, 9, 82, 38
1, 39119, Note_on_c, 9, 82, 0
1, 39120, Note_on_c, 9, 82, 79
1, 39239, Note_on_c, 9, 82, 0
1, 39240, Note_on_c, 9, 82, 38
1, 39359, Note_on_c, 9, 82, 0
1, 39360, Note_on_c, 9, 82, 79
1, 39479, Note_on_c, 9, 82, 0
1, 39480, Note_on_c, 9, 82, 38
1, 39599, Note_on_c, 9, 82, 0
1, 39600, Note_on_c, 9, 82, 79
1, 39719, Note_on_c, 9, 82, 0
1, 39720, Note_on_c, 9, 82, 38
1, 39839, Note_on_c, 9, 82, 0
1, 39840, Note_on_c, 9, 82, 79
1, 39959, Note_on_c, 9, 82, 0
1, 39960, Note_on_c, 9, 82, 38
1, 40079, Note_on_c, 9, 82, 0
1, 40080, Note_on_c, 9, 82, 79
1, 40199, Note_on_c, 9, 82, 0
1, 40200, Note_on_c, 9, 82, 38
1, 40319, Note_on_c, 9, 82, 0
1, 40320, Note_on_c, 9, 82, 79
1, 40439, Note_on_c, 9, 82, 0
1, 40440, Note_on_c, 9, 82, 38
1, 40559, Note_on_c, 9, 82, 0
1, 40560, Note_on_c, 9, 82, 79
1, 40679, Note_on_c, 9, 82, 0
1, 40680, Note_on_c, 9, 82, 38
1, 40799, Note_on_c, 9, 82, 0
1, 40800, Note_on_c, 9, 82, 79
1, 40919, Note_on_c, 9, 82, 0
1, 40920, Note_on_c, 9, 82, 38
1, 41039, Note_on_c, 9, 82, 0
1, 41040, Note_on_c, 9, 82, 79
1, 41159, Note_on_c, 9, 82, 0
1, 41160, Note_on_c, 9, 82, 38
1, 41279, Note_on_c, 9, 82, 0
1, 41280, Note_on_c, 9, 82, 79
1, 41399, Note_on_c, 9, 82, 0
1, 41400, Note_on_c, 9, 82, 38
1, 41519, Note_on_c, 9, 82, 0
1, 41520, Note_on_c, 9, 82, 79
1, 41639, Note_on_c, 9, 82, 0
1, 41640, Note_on_c, 9, 82, 38
1, 41759, Note_on_c, 9, 82, 0
1, 41760, Note_on_c, 9, 82, 79
1, 41879, Note_on_c, 9, 82, 0
1, 41880, Note_on_c, 9, 82, 38
1, 41999, Note_on_c, 9, 82, 0
1, 42000, Note_on_c, 9, 82, 79
1, 42119, Note_on_c, 9, 82, 0
1, 42120, Note_on_c, 9, 82, 38
1, 42239, Note_on_c, 9, 82, 0
1, 42240, Note_on_c, 9, 82, 79
1, 42359, Note_on_c, 9, 82, 0
1, 42360, Note_on_c, 9, 82, 38
1, 42479, Note_on_c, 9, 82, 0
1, 42480, Note_on_c, 9, 82, 79
1, 42599, Note_on_c, 9, 82, 0
1, 42600, Note_on_c, 9, 82, 38
1, 42719, Note_on_c, 9, 82, 0
1, 42720, Note_on_c, 9, 82, 79
1, 42839, Note_on_c, 9, 82, 0
1, 42840, Note_on_c, 9, 82, 38
1, 42959, Note_on_c, 9, 82, 0
1, 42960, Note_on_c, 9, 82, 79
1, 43079, Note_on_c, 9, 82, 0
1, 43080, Note_on_c, 9, 82, 38
1, 43199, Note_on_c, 9, 82, 0
1, 43200, Note_on_c, 9, 82, 79
1, 43319, Note_on_c, 9, 82, 0
1, 43320, Note_on_c, 9, 82, 38
1, 43439, Note_on_c, 9, 82, 0
1, 43440, Note_on_c, 9, 82, 79
1, 43559, Note_on_c, 9, 82, 0
1, 43560, Note_on_c, 9, 82, 38
1, 43679, Note_on_c, 9, 82, 0
1, 43680, Note_on_c, 9, 82, 79
1, 43799, Note_on_c, 9, 82, 0
1, 43800, Note_on_c, 9, 82, 38
1, 43919, Note_on_c, 9, 82, 0
1, 43920, Note_on_c, 9, 82, 79
1, 44039, Note_on_c, 9, 82, 0
1, 44040, Note_on_c, 9, 82, 38
1, 44159, Note_on_c, 9, 82, 0
1, 44160, Note_on_c, 9, 82, 79
1, 44279, Note_on_c, 9, 82, 0
1, 44280, Note_on_c, 9, 82, 38
1, 44399, Note_on_c, 9, 82, 0
1, 44400, Note_on_c, 9, 82, 79
1, 44519, Note_on_c, 9, 82, 0
1, 44520, Note_on_c, 9, 82, 38
1, 44639, Note_on_c, 9, 82, 0
1, 44640, Note_on_c, 9, 82, 79
1, 44759, Note_on_c, 9, 82, 0
1, 44760, Note_on_c, 9, 82, 38
1, 44879, Note_on_c, 9, 82, 0
1, 44880, Note_on_c, 9, 82, 79
1, 44999, Note_on_c, 9, 82, 0
1, 45000, Note_on_c, 9, 82, 38
1, 45119, Note_on_c, 9, 82, 0
1, 45120, Note_on_c, 9, 82, 79
1, 45239, Note_on_c, 9, 82, 0
1, 45240, Note_on_c, 9, 82, 38
1, 45359, Note_on_c, 9, 82, 0
1, 45360, Note_on_c, 9, 82, 79
1, 45479, Note_on_c, 9, 82, 0
1, 45480, Note_on_c, 9, 82, 38
1, 45599, Note_on_c, 9, 82, 0
1, 45600, Note_on_c, 9, 82, 79
1, 45719, Note_on_c, 9, 82, 0
1, 45720, Note_on_c, 9, 82, 38
1, 45839, Note_on_c, 9, 82, 0
1, 45840, Note_on_c, 9, 82, 79
1, 45959, Note_on_c, 9, 82, 0
1, 45960, Note_on_c, 9, 82, 38
1, 46079, Note_on_c, 9, 82, 0
1, 46080, Note_on_c, 9, 82, 79
1, 46199, Note_on_c, 9, 82, 0
1, 46200, Note_on_c, 9, 82, 38
1, 46319, Note_on_c, 9, 82, 0
1, 46320, Note_on_c, 9, 82, 79
1, 46439, Note_on_c, 9, 82, 0
1, 46440, Note_on_c, 9, 82, 38
1, 46559, Note_on_c, 9, 82, 0
1, 46560, Note_on_c, 9, 82, 79
1, 46679, Note_on_c, 9, 82, 0
1, 46680, Note_on_c, 9, 82, 38
1, 46799, Note_on_c, 9, 82, 0
1, 46800, Note_on_c, 9, 82, 79
1, 46919, Note_on_c, 9, 82, 0
1, 46920, Note_on_c, 9, 82, 38
1, 47039, Note_on_c, 9, 82, 0
1, 47040, Note_on_c, 9, 82, 79
1, 47159, Note_on_c, 9, 82, 0
1, 47160, Note_on_c, 9, 82, 38
1, 47279, Note_on_c, 9, 82, 0
1, 47280, Note_on_c, 9, 82, 79
1, 47399, Note_on_c, 9, 82, 0
1, 47400, Note_on_c, 9, 82, 38
1, 47519, Note_on_c, 9, 82, 0
1, 47520, Note_on_c, 9, 82, 79
1, 47639, Note_on_c, 9, 82, 0
1, 47640, Note_on_c, 9, 82, 38
1, 47759, Note_on_c, 9, 82, 0
1, 47760, Note_on_c, 9, 82, 79
1, 47879, Note_on_c, 9, 82, 0
1, 47880, Note_on_c, 9, 82, 38
1, 47999, Note_on_c, 9, 82, 0
1, 48000, Note_on_c, 9, 82, 79
1, 48119, Note_on_c, 9, 82, 0
1, 48120, Note_on_c, 9, 82, 38
1, 48239, Note_on_c, 9, 82, 0
1, 48240, Note_on_c, 9, 82, 79
1, 48359, Note_on_c, 9, 82, 0
1, 48360, Note_on_c, 9, 82, 38
1, 48479, Note_on_c, 9, 82, 0
1, 48480, Note_on_c, 9, 82, 79
1, 48599, Note_on_c, 9, 82, 0
1, 48600, Note_on_c, 9, 82, 38
1, 48719, Note_on_c, 9, 82, 0
1, 48720, Note_on_c, 9, 82, 79
1, 48839, Note_on_c, 9, 82, 0
1, 48840, Note_on_c, 9, 82, 38
1, 48959, Note_on_c, 9, 82, 0
1, 48960, Note_on_c, 9, 82, 79
1, 49079, Note_on_c, 9, 82, 0
1, 49080, Note_on_c, 9, 82, 38
1, 49199, Note_on_c, 9, 82, 0
1, 49200, Note_on_c, 9, 82, 79
1, 49319, Note_on_c, 9, 82, 0
1, 49320, Note_on_c, 9, 82, 38
1, 49439, Note_on_c, 9, 82, 0
1, 49440, Note_on_c, 9, 82, 79
1, 49559, Note_on_c, 9, 82, 0
1, 49560, Note_on_c, 9, 82, 38
1, 49679, Note_on_c, 9, 82, 0
1, 49680, Note_on_c, 9, 82, 79
1, 49799, Note_on_c, 9, 82, 0
1, 49800, Note_on_c, 9, 82, 38
1, 49919, Note_on_c, 9, 82, 0
1, 49920, Note_on_c, 9, 82, 79
1, 50039, Note_on_c, 9, 82, 0
1, 50040, Note_on_c, 9, 82, 38
1, 50159, Note_on_c, 9, 82, 0
1, 50160, Note_on_c, 9, 82, 79
1, 50279, Note_on_c, 9, 82, 0
1, 50280, Note_on_c, 9, 82, 38
1, 50399, Note_on_c, 9, 82, 0
1, 50400, Note_on_c, 9, 82, 79
1, 50519, Note_on_c, 9, 82, 0
1, 50520, Note_on_c, 9, 82, 38
1, 50639, Note_on_c, 9, 82, 0
1, 50640, Note_on_c, 9, 82, 79
1, 50759, Note_on_c, 9, 82, 0
1, 50760, Note_on_c, 9, 82, 38
1, 50879, Note_on_c, 9, 82, 0
1, 50880, Note_on_c, 9, 82, 79
1, 50999, Note_on_c, 9, 82, 0
1, 51000, Note_on_c, 9, 82, 38
1, 51119, Note_on_c, 9, 82, 0
1, 51120, Note_on_c, 9, 82, 79
1, 51239, Note_on_c, 9, 82, 0
1, 51240, Note_on_c, 9, 82, 38
1, 51359, Note_on_c, 9, 82, 0
1, 51360, Note_on_c, 9, 82, 79
1, 51479, Note_on_c, 9, 82, 0
1, 51480, Note_on_c, 9, 82, 38
1, 51599, Note_on_c, 9, 82, 0
1, 51600, Note_on_c, 9, 82, 79
1, 51719, Note_on_c, 9, 82, 0
1, 51720, Note_on_c, 9, 82, 38
1, 51839, Note_on_c, 9, 82, 0
1, 51840, Note_on_c, 9, 82, 79
1, 51959, Note_on_c, 9, 82, 0
1, 51960, Note_on_c, 9, 82, 38
1, 52079, Note_on_c, 9, 82, 0
1, 52080, Note_on_c, 9, 82, 79
1, 52199, Note_on_c, 9, 82, 0
1, 52200, Note_on_c, 9, 82, 38
1, 52319, Note_on_c, 9, 82, 0
1, 52320, Note_on_c, 9, 82, 79
1, 52439, Note_on_c, 9, 82, 0
1, 52440, Note_on_c, 9, 82, 38
1, 52559, Note_on_c, 9, 82, 0
1, 52560, Note_on_c, 9, 82, 79
1, 52679, Note_on_c, 9, 82, 0
1, 52680, Note_on_c, 9, 82, 38
1, 52799, Note_on_c, 9, 82, 0
1, 52800, Note_on_c, 9, 82, 79
1, 52919, Note_on_c, 9, 82, 0
1, 52920, Note_on_c, 9, 82, 38
1, 53039, Note_on_c, 9, 82, 0
1, 53040, Note_on_c, 9, 82, 79
1, 53159, Note_on_c, 9, 82, 0
1, 53160, Note_on_c, 9, 82, 38
1, 53279, Note_on_c, 9, 82, 0
1, 53280, Note_on_c, 9, 82, 79
1, 53399, Note_on_c, 9, 82, 0
1, 53400, Note_on_c, 9, 82, 38
1, 53519, Note_on_c, 9, 82, 0
1, 53520, Note_on_c, 9, 82, 79
1, 53639, Note_on_c, 9, 82, 0
1, 53640, Note_on_c, 9, 82, 38
1, 53759, Note_on_c, 9, 82, 0
1, 53760, Note_on_c, 9, 82, 79
1, 53879, Note_on_c, 9, 82, 0
1, 53880, Note_on_c, 9, 82, 38
1, 53999, Note_on_c, 9, 82, 0
1, 54000, Note_on_c, 9, 82, 79
1, 54119, Note_on_c, 9, 82, 0
1, 54120, Note_on_c, 9, 82, 38
1, 54239, Note_on_c, 9, 82, 0
1, 54240, Note_on_c, 9, 82, 79
1, 54359, Note_on_c, 9, 82, 0
1, 54360, Note_on_c, 9, 82, 38
1, 54479, Note_on_c, 9, 82, 0
1, 54480, Note_on_c, 9, 82, 79
1, 54599, Note_on_c, 9, 82, 0
1, 54600, Note_on_c, 9, 82, 38
1, 54719, Note_on_c, 9, 82, 0
1, 54720, Note_on_c, 9, 82, 79
1, 54839, Note_on_c, 9, 82, 0
1, 54840, Note_on_c, 9, 82, 38
1, 54959, Note_on_c, 9, 82, 0
1, 54960, Note_on_c, 9, 82, 79
1, 55079, Note_on_c, 9, 82, 0
1, 55080, Note_on_c, 9, 82, 38
1, 55199, Note_on_c, 9, 82, 0
1, 55200, Note_on_c, 9, 82, 79
1, 55319, Note_on_c, 9, 82, 0
1, 55320, Note_on_c, 9, 82, 38
1, 55439, Note_on_c, 9, 82, 0
1, 55440, Note_on_c, 9, 82, 79
1, 55559, Note_on_c, 9, 82, 0
1, 55560, Note_on_c, 9, 82, 38
1, 55679, Note_on_c, 9, 82, 0
1, 55680, Note_on_c, 9, 82, 79
1, 55799, Note_on_c, 9, 82, 0
1, 55800, Note_on_c, 9, 82, 38
1, 55919, Note_on_c, 9, 82, 0
1, 55920, Note_on_c, 9, 82, 79
1, 56039, Note_on_c, 9, 82, 0
1, 56040, Note_on_c, 9, 82, 38
1, 56159, Note_on_c, 9, 82, 0
1, 56160, Note_on_c, 9, 82, 79
1, 56279, Note_on_c, 9, 82, 0
1, 56280, Note_on_c, 9, 82, 38
1, 56399, Note_on_c, 9, 82, 0
1, 56400, Note_on_c, 9, 82, 79
1, 56519, Note_on_c, 9, 82, 0
1, 56520, Note_on_c, 9, 82, 38
1, 56639, Note_on_c, 9, 82, 0
1, 56640, Note_on_c, 9, 82, 79
1, 56759, Note_on_c, 9, 82, 0
1, 56760, Note_on_c, 9, 82, 38
1, 56879, Note_on_c, 9, 82, 0
1, 56880, Note_on_c, 9, 82, 79
1, 56999, Note_on_c, 9, 82, 0
1, 57000, Note_on_c, 9, 82, 38
1, 57119, Note_on_c, 9, 82, 0
1, 57120, Note_on_c, 9, 82, 79
1, 57239, Note_on_c, 9, 82, 0
1, 57240, Note_on_c, 9, 82, 38
1, 57359, Note_on_c, 9, 82, 0
1, 57360, Note_on_c, 9, 82, 79
1, 57479, Note_on_c, 9, 82, 0
1, 57480, Note_on_c, 9, 82, 38
1, 57599, Note_on_c, 9, 82, 0
1, 57600, Note_on_c, 9, 82, 79
1, 57719, Note_on_c, 9, 82, 0
1, 57720, Note_on_c, 9, 82, 38
1, 57839, Note_on_c, 9, 82, 0
1, 57840, Note_on_c, 9, 82, 79
1, 57959, Note_on_c, 9, 82, 0
1, 57960, Note_on_c, 9, 82, 38
1, 58079, Note_on_c, 9, 82, 0
1, 58080, Note_on_c, 9, 82, 79
1, 58199, Note_on_c, 9, 82, 0
1, 58200, Note_on_c, 9, 82, 38
1, 58319, Note_on_c, 9, 82, 0
1, 58320, Note_on_c, 9, 82, 79
1, 58439, Note_on_c, 9, 82, 0
1, 58440, Note_on_c, 9, 82, 38
1, 58559, Note_on_c, 9, 82, 0
1, 58560, Note_on_c, 9, 82, 79
1, 58679, Note_on_c, 9, 82, 0
1, 58680, Note_on_c, 9, 82, 38
1, 58799, Note_on_c, 9, 82, 0
1, 58800, Note_on_c, 9, 82, 79
1, 58919, Note_on_c, 9, 82, 0
1, 58920, Note_on_c, 9, 82, 38
1, 59039, Note_on_c, 9, 82, 0
1, 59040, Note_on_c, 9, 82, 79
1, 59159, Note_on_c, 9, 82, 0
1, 59160, Note_on_c, 9, 82, 38
1, 59279, Note_on_c, 9, 82, 0
1, 59280, Note_on_c, 9, 82, 79
1, 59399, Note_on_c, 9, 82, 0
1, 59400, Note_on_c, 9, 82, 38
1, 59519, Note_on_c, 9, 82, 0
1, 59520, Note_on_c, 9, 82, 79
1, 59639, Note_on_c, 9, 82, 0
1, 59640, Note_on_c, 9, 82, 38
1, 59759, Note_on_c, 9, 82, 0
1, 59760, Note_on_c, 9, 82, 79
1, 59879, Note_on_c, 9, 82, 0
1, 59880, Note_on_c, 9, 82, 38
1, 59999, Note_on_c, 9, 82, 0
1, 60000, Note_on_c, 9, 82, 79
1, 60119, Note_on_c, 9, 82, 0
1, 60120, Note_on_c, 9, 82, 38
1, 60239, Note_on_c, 9, 82, 0
1, 60240, Note_on_c, 9, 82, 79
1, 60359, Note_on_c, 9, 82, 0
1, 60360, Note_on_c, 9, 82, 38
1, 60479, Note_on_c, 9, 82, 0
1, 60480, Note_on_c, 9, 82, 79
1, 60599, Note_on_c, 9, 82, 0
1, 60600, Note_on_c, 9, 82, 38
1, 60719, Note_on_c, 9, 82, 0
1, 60720, Note_on_c, 9, 82, 79
1, 60839, Note_on_c, 9, 82, 0
1, 60840, Note_on_c, 9, 82, 38
1, 60959, Note_on_c, 9, 82, 0
1, 60960, Note_on_c, 9, 82, 79
1, 61079, Note_on_c, 9, 82, 0
1, 61080, Note_on_c, 9, 82, 38
1, 61199, Note_on_c, 9, 82, 0
1, 61200, Note_on_c, 9, 82, 79
1, 61319, Note_on_c, 9, 82, 0
1, 61320, Note_on_c, 9, 82, 38
1, 61439, Note_on_c, 9, 82, 0
1, 61440, Note_on_c, 9, 82, 79
1, 61679, Note_on_c, 9, 82, 0
1, 61680, Note_on_c, 9, 82, 38
1, 61919, Note_on_c, 9, 82, 0
1, 61920, Note_on_c, 9, 82, 79
1, 62159, Note_on_c, 9, 82, 0
1, 62160, Note_on_c, 9, 82, 38
1, 62399, Note_on_c, 9, 82, 0
1, 62400, Note_on_c, 9, 82, 79
1, 62639, Note_on_c, 9, 82, 0
1, 62640, Note_on_c, 9, 82, 38
1, 62879, Note_on_c, 9, 82, 0
1, 62880, Note_on_c, 9, 82, 79
1, 63119, Note_on_c, 9, 82, 0
1, 63120, Note_on_c, 9, 82, 38
1, 63359, Note_on_c, 9, 82, 0
1, 63360, Note_on_c, 9, 82, 79
1, 63599, Note_on_c, 9, 82, 0
1, 63600, Note_on_c, 9, 82, 38
1, 63839, Note_on_c, 9, 82, 0
1, 63840, Note_on_c, 9, 82, 79
1, 64079, Note_on_c, 9, 82, 0
1, 64080, Note_on_c, 9, 82, 38
1, 64319, Note_on_c, 9, 82, 0
1, 64320, Note_on_c, 9, 82, 79
1, 64559, Note_on_c, 9, 82, 0
1, 64560, Note_on_c, 9, 82, 38
1, 64799, Note_on_c, 9, 82, 0
1, 64800, Note_on_c, 9, 82, 79
1, 65039, Note_on_c, 9, 82, 0
1, 65040, Note_on_c, 9, 82, 38
1, 65279, Note_on_c, 9, 82, 0
1, 65280, Note_on_c, 9, 82, 79
1, 65519, Note_on_c, 9, 82, 0
1, 65520, Note_on_c, 9, 82, 38
1, 65759, Note_on_c, 9, 82, 0
1, 65760, Note_on_c, 9, 82, 79
1, 65999, Note_on_c, 9, 82, 0
1, 66000, Note_on_c, 9, 82, 38
1, 66239, Note_on_c, 9, 82, 0
1, 66240, Note_on_c, 9, 82, 79
1, 66479, Note_on_c, 9, 82, 0
1, 66480, Note_on_c, 9, 82, 38
1, 66719, Note_on_c, 9, 82, 0
1, 66720, Note_on_c, 9, 82, 79
1, 66959, Note_on_c, 9, 82, 0
1, 66960, Note_on_c, 9, 82, 38
1, 67199, Note_on_c, 9, 82, 0
1, 67200, Note_on_c, 9, 82, 79
1, 67439, Note_on_c, 9, 82, 0
1, 67440, Note_on_c, 9, 82, 38
1, 67679, Note_on_c, 9, 82, 0
1, 67680, Note_on_c, 9, 82, 79
1, 67919, Note_on_c, 9, 82, 0
1, 67920, Note_on_c, 9, 82, 38
1, 68159, Note_on_c, 9, 82, 0
1, 68160, Note_on_c, 9, 82, 79
1, 68399, Note_on_c, 9, 82, 0
1, 68400, Note_on_c, 9, 82, 38
1, 68639, Note_on_c, 9, 82, 0
1, 68640, Note_on_c, 9, 82, 79
1, 68879, Note_on_c, 9, 82, 0
1, 68880, Note_on_c, 9, 82, 38
1, 69119, Note_on_c, 9, 82, 0
1, 69120, Note_on_c, 9, 82, 79
1, 69359, Note_on_c, 9, 82, 0
1, 69360, Note_on_c, 9, 82, 38
1, 69599, Note_on_c, 9, 82, 0
1, 69600, Note_on_c, 9, 82, 79
1, 69839, Note_on_c, 9, 82, 0
1, 69840, Note_on_c, 9, 82, 38
1, 70079, Note_on_c, 9, 82, 0
1, 70080, Note_on_c, 9, 82, 79
1, 70319, Note_on_c, 9, 82, 0
1, 70320, Note_on_c, 9, 82, 38
1, 70559, Note_on_c, 9, 82, 0
1, 70560, Note_on_c, 9, 82, 79
1, 70799, Note_on_c, 9, 82, 0
1, 70800, Note_on_c, 9, 82, 38
1, 71039, Note_on_c, 9, 82, 0
1, 71040, Note_on_c, 9, 82, 79
1, 71279, Note_on_c, 9, 82, 0
1, 71280, Note_on_c, 9, 82, 38
1, 71519, Note_on_c, 9, 82, 0
1, 71520, Note_on_c, 9, 82, 79
1, 71759, Note_on_c, 9, 82, 0
1, 71760, Note_on_c, 9, 82, 38
1, 71999, Note_on_c, 9, 82, 0
1, 72000, Note_on_c, 9, 82, 79
1, 72239, Note_on_c, 9, 82, 0
1, 72240, Note_on_c, 9, 82, 38
1, 72479, Note_on_c, 9, 82, 0
1, 72480, Note_on_c, 9, 82, 79
1, 72719, Note_on_c, 9, 82, 0
1, 72720, Note_on_c, 9, 82, 38
1, 72959, Note_on_c, 9, 82, 0
1, 72960, Note_on_c, 9, 82, 79
1, 73199, Note_on_c, 9, 82, 0
1, 73200, Note_on_c, 9, 82, 38
1, 73439, Note_on_c, 9, 82, 0
1, 73440, Note_on_c, 9, 82, 79
1, 73679, Note_on_c, 9, 82, 0
1, 73680, Note_on_c, 9, 82, 38
1, 73919, Note_on_c, 9, 82, 0
1, 73920, Note_on_c, 9, 82, 79
1, 74159, Note_on_c, 9, 82, 0
1, 74160, Note_on_c, 9, 82, 38
1, 74399, Note_on_c, 9, 82, 0
1, 74400, Note_on_c, 9, 82, 79
1, 74639, Note_on_c, 9, 82, 0
1, 74640, Note_on_c, 9, 82, 38
1, 74879, Note_on_c, 9, 82, 0
1, 74880, Note_on_c, 9, 82, 79
1, 75119, Note_on_c, 9, 82, 0
1, 75120, Note_on_c, 9, 82, 38
1, 75359, Note_on_c, 9, 82, 0
1, 75360, Note_on_c, 9, 82, 79
1, 75599, Note_on_c, 9, 82, 0
1, 75600, Note_on_c, 9, 82, 38
1, 75839, Note_on_c, 9, 82, 0
1, 75840, Note_on_c, 9, 82, 79
1, 76079, Note_on_c, 9, 82, 0
1, 76080, Note_on_c, 9, 82, 38
1, 76319, Note_on_c, 9, 82, 0
1, 76320, Note_on_c, 9, 82, 79
1, 76559, Note_on_c, 9, 82, 0
1, 76560, Note_on_c, 9, 82, 38
1, 76799, Note_on_c, 9, 82, 0
1, 76800, Note_on_c, 9, 82, 79
1, 77039, Note_on_c, 9, 82, 0
1, 77040, Note_on_c, 9, 82, 38
1, 77279, Note_on_c, 9, 82, 0
1, 77280, Note_on_c, 9, 82, 79
1, 77519, Note_on_c, 9, 82, 0
1, 77520, Note_on_c, 9, 82, 38
1, 77759, Note_on_c, 9, 82, 0
1, 77760, Note_on_c, 9, 82, 79
1, 77999, Note_on_c, 9, 82, 0
1, 78000, Note_on_c, 9, 82, 38
1, 78239, Note_on_c, 9, 82, 0
1, 78240, Note_on_c, 9, 82, 79
1, 78479, Note_on_c, 9, 82, 0
1, 78480, Note_on_c, 9, 82, 38
1, 78719, Note_on_c, 9, 82, 0
1, 78720, Note_on_c, 9, 82, 79
1, 78959, Note_on_c, 9, 82, 0
1, 78960, Note_on_c, 9, 82, 38
1, 79199, Note_on_c, 9, 82, 0
1, 79200, Note_on_c, 9, 82, 79
1, 79439, Note_on_c, 9, 82, 0
1, 79440, Note_on_c, 9, 82, 38
1, 79679, Note_on_c, 9, 82, 0
1, 79680, Note_on_c, 9, 82, 79
1, 79919, Note_on_c, 9, 82, 0
1, 79920, Note_on_c, 9, 82, 38
1, 80159, Note_on_c, 9, 82, 0
1, 80160, Note_on_c, 9, 82, 79
1, 80399, Note_on_c, 9, 82, 0
1, 80400, Note_on_c, 9, 82, 38
1, 80639, Note_on_c, 9, 82, 0
1, 80640, Note_on_c, 9, 82, 79
1, 80879, Note_on_c, 9, 82, 0
1, 80880, Note_on_c, 9, 82, 38
1, 81119, Note_on_c, 9, 82, 0
1, 81120, Note_on_c, 9, 82, 79
1, 81359, Note_on_c, 9, 82, 0
1, 81360, Note_on_c, 9, 82, 38
1, 81599, Note_on_c, 9, 82, 0
1, 81600, Note_on_c, 9, 82, 79
1, 81839, Note_on_c, 9, 82, 0
1, 81840, Note_on_c, 9, 82, 38
1, 82079, Note_on_c, 9, 82, 0
1, 82080, Note_on_c, 9, 82, 79
1, 82319, Note_on_c, 9, 82, 0
1, 82320, Note_on_c, 9, 82, 38
1, 82559, Note_on_c, 9, 82, 0
1, 82560, Note_on_c, 9, 82, 79
1, 82799, Note_on_c, 9, 82, 0
1, 82800, Note_on_c, 9, 82, 38
1, 83039, Note_on_c, 9, 82, 0
1, 83040, Note_on_c, 9, 82, 79
1, 83279, Note_on_c, 9, 82, 0
1, 83280, Note_on_c, 9, 82, 38
1, 83519, Note_on_c, 9, 82, 0
1, 83520, Note_on_c, 9, 82, 79
1, 83759, Note_on_c, 9, 82, 0
1, 83760, Note_on_c, 9, 82, 38
1, 83999, Note_on_c, 9, 82, 0
1, 84000, Note_on_c, 9, 82, 79
1, 84239, Note_on_c, 9, 82, 0
1, 84240, Note_on_c, 9, 82, 38
1, 84479, Note_on_c, 9, 82, 0
1, 84480, Note_on_c, 9, 82, 79
1, 84719, Note_on_c, 9, 82, 0
1, 84720, Note_on_c, 9, 82, 38
1, 84959, Note_on_c, 9, 82, 0
1, 84960, Note_on_c, 9, 82, 79
1, 85199, Note_on_c, 9, 82, 0
1, 85200, Note_on_c, 9, 82, 38
1, 85439, Note_on_c, 9, 82, 0
1, 85440, Note_on_c, 9, 82, 79
1, 85679, Note_on_c, 9, 82, 0
1, 85680, Note_on_c, 9, 82, 38
1, 85919, Note_on_c, 9, 82, 0
1, 85920, Note_on_c, 9, 82, 79
1, 86159, Note_on_c, 9, 82, 0
1, 86160, Note_on_c, 9, 82, 38
1, 86399, Note_on_c, 9, 82, 0
1, 86400, Note_on_c, 9, 82, 79
1, 86639, Note_on_c, 9, 82, 0
1, 86640, Note_on_c, 9, 82, 38
1, 86879, Note_on_c, 9, 82, 0
1, 86880, Note_on_c, 9, 82, 79
1, 87119, Note_on_c, 9, 82, 0
1, 87120, Note_on_c, 9, 82, 38
1, 87359, Note_on_c, 9, 82, 0
1, 87360, Note_on_c, 9, 82, 79
1, 87599, Note_on_c, 9, 82, 0
1, 87600, Note_on_c, 9, 82, 38
1, 87839, Note_on_c, 9, 82, 0
1, 87840, Note_on_c, 9, 82, 79
1, 88079, Note_on_c, 9, 82, 0
1, 88080, Note_on_c, 9, 82, 38
1, 88319, Note_on_c, 9, 82, 0
1, 88320, Note_on_c, 9, 82, 79
1, 88559, Note_on_c, 9, 82, 0
1, 88560, Note_on_c, 9, 82, 38
1, 88799, Note_on_c, 9, 82, 0
1, 88800, Note_on_c, 9, 82, 79
1, 89039, Note_on_c, 9, 82, 0
1, 89040, Note_on_c, 9, 82, 38
1, 89279, Note_on_c, 9, 82, 0
1, 89280, Note_on_c, 9, 82, 79
1, 89519, Note_on_c, 9, 82, 0
1, 89520, Note_on_c, 9, 82, 38
1, 89759, Note_on_c, 9, 82, 0
1, 89760, Note_on_c, 9, 82, 79
1, 89999, Note_on_c, 9, 82, 0
1, 90000, Note_on_c, 9, 82, 38
1, 90239, Note_on_c, 9, 82, 0
1, 90240, Note_on_c, 9, 82, 79
1, 90479, Note_on_c, 9, 82, 0
1, 90480, Note_on_c, 9, 82, 38
1, 90719, Note_on_c, 9, 82, 0
1, 90720, Note_on_c, 9, 82, 79
1, 90959, Note_on_c, 9, 82, 0
1, 90960, Note_on_c, 9, 82, 38
1, 91199, Note_on_c, 9, 82, 0
1, 91200, Note_on_c, 9, 82, 79
1, 91439, Note_on_c, 9, 82, 0
1, 91440, Note_on_c, 9, 82, 38
1, 91679, Note_on_c, 9, 82, 0
1, 91680, Note_on_c, 9, 82, 79
1, 91919, Note_on_c, 9, 82, 0
1, 91920, Note_on_c, 9, 82, 38
1, 92159, Note_on_c, 9, 82, 0
1, 92160, Note_on_c, 9, 82, 79
1, 92399, Note_on_c, 9, 82, 0
1, 92400, Note_on_c, 9, 82, 38
1, 92639, Note_on_c, 9, 82, 0
1, 92640, Note_on_c, 9, 82, 79
1, 92879, Note_on_c, 9, 82, 0
1, 92880, Note_on_c, 9, 82, 38
1, 93119, Note_on_c, 9, 82, 0
1, 93120, Note_on_c, 9, 82, 79
1, 93359, Note_on_c, 9, 82, 0
1, 93360, Note_on_c, 9, 82, 38
1, 93599, Note_on_c, 9, 82, 0
1, 93600, Note_on_c, 9, 82, 79
1, 93839, Note_on_c, 9, 82, 0
1, 93840, Note_on_c, 9, 82, 38
1, 94079, Note_on_c, 9, 82, 0
1, 94080, Note_on_c, 9, 82, 79
1, 94319, Note_on_c, 9, 82, 0
1, 94320, Note_on_c, 9, 82, 38
1, 94559, Note_on_c, 9, 82, 0
1, 94560, Note_on_c, 9, 82, 79
1, 94799, Note_on_c, 9, 82, 0
1, 94800, Note_on_c, 9, 82, 38
1, 95039, Note_on_c, 9, 82, 0
1, 95040, Note_on_c, 9, 82, 79
1, 95279, Note_on_c, 9, 82, 0
1, 95280, Note_on_c, 9, 82, 38
1, 95519, Note_on_c, 9, 82, 0
1, 95520, Note_on_c, 9, 82, 79
1, 95759, Note_on_c, 9, 82, 0
1, 95760, Note_on_c, 9, 82, 38
1, 95999, Note_on_c, 9, 82, 0
1, 96000, Note_on_c, 9, 82, 79
1, 96239, Note_on_c, 9, 82, 0
1, 96240, Note_on_c, 9, 82, 38
1, 96479, Note_on_c, 9, 82, 0
1, 96480, Note_on_c, 9, 82, 79
1, 96719, Note_on_c, 9, 82, 0
1, 96720, Note_on_c, 9, 82, 38
1, 96959, Note_on_c, 9, 82, 0
1, 96960, Note_on_c, 9, 82, 79
1, 97199, Note_on_c, 9, 82, 0
1, 97200, Note_on_c, 9, 82, 38
1, 97439, Note_on_c, 9, 82, 0
1, 97440, Note_on_c, 9, 82, 79
1, 97679, Note_on_c, 9, 82, 0
1, 97680, Note_on_c, 9, 82, 38
1, 97919, Note_on_c, 9, 82, 0
1, 97920, Note_on_c, 9, 82, 79
1, 98159, Note_on_c, 9, 82, 0
1, 98160, Note_on_c, 9, 82, 38
1, 98399, Note_on_c, 9, 82, 0
1, 98400, Note_on_c, 9, 82, 79
1, 98639, Note_on_c, 9, 82, 0
1, 98640, Note_on_c, 9, 82, 38
1, 98879, Note_on_c, 9, 82, 0
1, 98880, Note_on_c, 9, 82, 79
1, 99119, Note_on_c, 9, 82, 0
1, 99120, Note_on_c, 9, 82, 38
1, 99359, Note_on_c, 9, 82, 0
1, 99360, Note_on_c, 9, 82, 79
1, 99599, Note_on_c, 9, 82, 0
1, 99600, Note_on_c, 9, 82, 38
1, 99839, Note_on_c, 9, 82, 0
1, 99840, Note_on_c, 9, 82, 79
1, 100079, Note_on_c, 9, 82, 0
1, 100080, Note_on_c, 9, 82, 38
1, 100319, Note_on_c, 9, 82, 0
1, 100320, Note_on_c, 9, 82, 79
1, 100559, Note_on_c, 9, 82, 0
1, 100560, Note_on_c, 9, 82, 38
1, 100799, Note_on_c, 9, 82, 0
1, 100800, Note_on_c, 9, 82, 79
1, 101039, Note_on_c, 9, 82, 0
1, 101040, Note_on_c, 9, 82, 38
1, 101279, Note_on_c, 9, 82, 0
1, 101280, Note_on_c, 9, 82, 79
1, 101519, Note_on_c, 9, 82, 0
1, 101520, Note_on_c, 9, 82, 38
1, 101759, Note_on_c, 9, 82, 0
1, 101760, Note_on_c, 9, 82, 79
1, 101999, Note_on_c, 9, 82, 0
1, 102000, Note_on_c, 9, 82, 38
1, 102239, Note_on_c, 9, 82, 0
1, 102240, Note_on_c, 9, 82, 79
1, 102479, Note_on_c, 9, 82, 0
1, 102480, Note_on_c, 9, 82, 38
1, 102719, Note_on_c, 9, 82, 0
1, 102720, Note_on_c, 9, 82, 79
1, 102959, Note_on_c, 9, 82, 0
1, 102960, Note_on_c, 9, 82, 38
1, 103199, Note_on_c, 9, 82, 0
1, 103200, Note_on_c, 9, 82, 79
1, 103439, Note_on_c, 9, 82, 0
1, 103440, Note_on_c, 9, 82, 38
1, 103679, Note_on_c, 9, 82, 0
1, 103680, Note_on_c, 9, 82, 79
1, 103919, Note_on_c, 9, 82, 0
1, 103920, Note_on_c, 9, 82, 38
1, 104159, Note_on_c, 9, 82, 0
1, 104160, Note_on_c, 9, 82, 79
1, 104399, Note_on_c, 9, 82, 0
1, 104400, Note_on_c, 9, 82, 38
1, 104639, Note_on_c, 9, 82, 0
1, 104640, Note_on_c, 9, 82, 79
1, 104879, Note_on_c, 9, 82, 0
1, 104880, Note_on_c, 9, 82, 38
1, 105119, Note_on_c, 9, 82, 0
1, 105120, Note_on_c, 9, 82, 79
1, 105359, Note_on_c, 9, 82, 0
1, 105360, Note_on_c, 9, 82, 38
1, 105599, Note_on_c, 9, 82, 0
1, 105600, Note_on_c, 9, 82, 79
1, 105839, Note_on_c, 9, 82, 0
1, 105840, Note_on_c, 9, 82, 38
1, 106079, Note_on_c, 9, 82, 0
1, 106080, Note_on_c, 9, 82, 79
1, 106319, Note_on_c, 9, 82, 0
1, 106320, Note_on_c, 9, 82, 38
1, 106559, Note_on_c, 9, 82, 0
1, 106560, Note_on_c, 9, 82, 79
1, 106799, Note_on_c, 9, 82, 0
1, 106800, Note_on_c, 9, 82, 38
1, 107039, Note_on_c, 9, 82, 0
1, 107040, Note_on_c, 9, 82, 79
1, 107279, Note_on_c, 9, 82, 0
1, 107280, Note_on_c, 9, 82, 38
1, 107519, Note_on_c, 9, 82, 0
1, 107520, Note_on_c, 9, 82, 79
1, 107759, Note_on_c, 9, 82, 0
1, 107760, Note_on_c, 9, 82, 38
1, 107999, Note_on_c, 9, 82, 0
1, 108000, Note_on_c, 9, 82, 79
1, 108239, Note_on_c, 9, 82, 0
1, 108240, Note_on_c, 9, 82, 38
1, 108479, Note_on_c, 9, 82, 0
1, 108480, Note_on_c, 9, 82, 79
1, 108719, Note_on_c, 9, 82, 0
1, 108720, Note_on_c, 9, 82, 38
1, 108959, Note_on_c, 9, 82, 0
1, 108960, Note_on_c, 9, 82, 79
1, 109199, Note_on_c, 9, 82, 0
1, 109200, Note_on_c, 9, 82, 38
1, 109439, Note_on_c, 9, 82, 0
1, 109440, Note_on_c, 9, 82, 79
1, 109679, Note_on_c, 9, 82, 0
1, 109680, Note_on_c, 9, 82, 38
1, 109919, Note_on_c, 9, 82, 0
1, 109920, Note_on_c, 9, 82, 79
1, 110159, Note_on_c, 9, 82, 0
1, 110160, Note_on_c, 9, 82, 38
1, 110399, Note_on_c, 9, 82, 0
1, 110400, Note_on_c, 9, 82, 79
1, 110639, Note_on_c, 9, 82, 0
1, 110640, Note_on_c, 9, 82, 38
1, 110879, Note_on_c, 9, 82, 0
1, 110880, Note_on_c, 9, 82, 79
1, 111119, Note_on_c, 9, 82, 0
1, 111120, Note_on_c, 9, 82, 38
1, 111359, Note_on_c, 9, 82, 0
1, 111360, Note_on_c, 9, 82, 79
1, 111599, Note_on_c, 9, 82, 0
1, 111600, Note_on_c, 9, 82, 38
1, 111839, Note_on_c, 9, 82, 0
1, 111840, Note_on_c, 9, 82, 79
1, 112079, Note_on_c, 9, 82, 0
1, 112080, Note_on_c, 9, 82, 38
1, 112319, Note_on_c, 9, 82, 0
1, 112320, Note_on_c, 9, 82, 79
1, 112559, Note_on_c, 9, 82, 0
1, 112560, Note_on_c, 9, 82, 38
1, 112799, Note_on_c, 9, 82, 0
1, 112800, Note_on_c, 9, 82, 79
1, 113039, Note_on_c, 9, 82, 0
1, 113040, Note_on_c, 9, 82, 38
1, 113279, Note_on_c, 9, 82, 0
1, 113280, Note_on_c, 9, 82, 79
1, 113519, Note_on_c, 9, 82, 0
1, 113520, Note_on_c, 9, 82, 38
1, 113759, Note_on_c, 9, 82, 0
1, 113760, Note_on_c, 9, 82, 79
1, 113999, Note_on_c, 9, 82, 0
1, 114000, Note_on_c, 9, 82, 38
1, 114239, Note_on_c, 9, 82, 0
1, 114240, Note_on_c, 9, 82, 79
1, 114479, Note_on_c, 9, 82, 0
1, 114480, Note_on_c, 9, 82, 38
1, 114719, Note_on_c, 9, 82, 0
1, 114720, Note_on_c, 9, 82, 79
1, 114959, Note_on_c, 9, 82, 0
1, 114960, Note_on_c, 9, 82, 38
1, 115199, Note_on_c, 9, 82, 0
1, 115200, Note_on_c, 9, 82, 79
1, 115439, Note_on_c, 9, 82, 0
1, 115440, Note_on_c, 9, 82, 38
1, 115679, Note_on_c, 9, 82, 0
1, 115680, Note_on_c, 9, 82, 79
1, 115919, Note_on_c, 9, 82, 0
1, 115920, Note_on_c, 9, 82, 38
1, 116159, Note_on_c, 9, 82, 0
1, 116160, Note_on_c, 9, 82, 79
1, 116399, Note_on_c, 9, 82, 0
1, 116400, Note_on_c, 9, 82, 38
1, 116639, Note_on_c, 9, 82, 0
1, 116640, Note_on_c, 9, 82, 79
1, 116879, Note_on_c, 9, 82, 0
1, 116880, Note_on_c, 9, 82, 38
1, 117119, Note_on_c, 9, 82, 0
1, 117120, Note_on_c, 9, 82, 79
1, 117359, Note_on_c, 9, 82, 0
1, 117360, Note_on_c, 9, 82, 38
1, 117599, Note_on_c, 9, 82, 0
1, 117600, Note_on_c, 9, 82, 79
1, 117839, Note_on_c, 9, 82, 0
1, 117840, Note_on_c, 9, 82, 38
1, 118079, Note_on_c, 9, 82, 0
1, 118080, Note_on_c, 9, 82, 79
1, 118319, Note_on_c, 9, 82, 0
1, 118320, Note_on_c, 9, 82, 38
1, 118559, Note_on_c, 9, 82, 0
1, 118560, Note_on_c, 9, 82, 79
1, 118799, Note_on_c, 9, 82, 0
1, 118800, Note_on_c, 9, 82, 38
1, 119039, Note_on_c, 9, 82, 0
1, 119040, Note_on_c, 9, 82, 79
1, 119279, Note_on_c, 9, 82, 0
1, 119280, Note_on_c, 9, 82, 38
1, 119519, Note_on_c, 9, 82, 0
1, 119520, Note_on_c, 9, 82, 79
1, 119759, Note_on_c, 9, 82, 0
1, 119760, Note_on_c, 9, 82, 38
1, 119999, Note_on_c, 9, 82, 0
1, 120000, Note_on_c, 9, 82, 79
1, 120239, Note_on_c, 9, 82, 0
1, 120240, Note_on_c, 9, 82, 38
1, 120479, Note_on_c, 9, 82, 0
1, 120480, Note_on_c, 9, 82, 79
1, 120719, Note_on_c, 9, 82, 0
1, 120720, Note_on_c, 9, 82, 38
1, 120959, Note_on_c, 9, 82, 0
1, 120960, Note_on_c, 9, 82, 79
1, 121199, Note_on_c, 9, 82, 0
1, 121200, Note_on_c, 9, 82, 38
1, 121439, Note_on_c, 9, 82, 0
1, 121440, Note_on_c, 9, 82, 79
1, 121679, Note_on_c, 9, 82, 0
1, 121680, Note_on_c, 9, 82, 38
1, 121919, Note_on_c, 9, 82, 0
1, 121920, Note_on_c, 9, 82, 79
1, 122159, Note_on_c, 9, 82, 0
1, 122160, Note_on_c, 9, 82, 38
1, 122399, Note_on_c, 9, 82, 0
1, 122400, Note_on_c, 9, 82, 79
1, 122639, Note_on_c, 9, 82, 0
1, 122640, Note_on_c, 9, 82, 38
1, 122879, Note_on_c, 9, 82, 0
1, 122880, Note_on_c, 9, 82, 79
1, 123119, Note_on_c, 9, 82, 0
1, 123120, Note_on_c, 9, 82, 38
1, 123359, Note_on_c, 9, 82, 0
1, 123360, Note_on_c, 9, 82, 79
1, 123599, Note_on_c, 9, 82, 0
1, 123600, Note_on_c, 9, 82, 38
1, 123839, Note_on_c, 9, 82, 0
1, 123840, Note_on_c, 9, 82, 79
1, 124079, Note_on_c, 9, 82, 0
1, 124080, Note_on_c, 9, 82, 38
1, 124319, Note_on_c, 9, 82, 0
1, 124320, Note_on_c, 9, 82, 79
1, 124559, Note_on_c, 9, 82, 0
1, 124560, Note_on_c, 9, 82, 38
1, 124799, Note_on_c, 9, 82, 0
1, 124800, Note_on_c, 9, 82, 79
1, 125039, Note_on_c, 9, 82, 0
1, 125040, Note_on_c, 9, 82, 38
1, 125279, Note_on_c, 9, 82, 0
1, 125280, Note_on_c, 9, 82, 79
1, 125519, Note_on_c, 9, 82, 0
1, 125520, Note_on_c, 9, 82, 38
1, 125759, Note_on_c, 9, 82, 0
1, 125760, Note_on_c, 9, 82, 79
1, 125999, Note_on_c, 9, 82, 0
1, 126000, Note_on_c, 9, 82, 38
1, 126239, Note_on_c, 9, 82, 0
1, 126240, Note_on_c, 9, 82, 79
1, 126479, Note_on_c, 9, 82, 0
1, 126480, Note_on_c, 9, 82, 38
1, 126719, Note_on_c, 9, 82, 0
1, 126720, Note_on_c, 9, 82, 79
1, 126959, Note_on_c, 9, 82, 0
1, 126960, Note_on_c, 9, 82, 38
1, 127199, Note_on_c, 9, 82, 0
1, 127200, Note_on_c, 9, 82, 79
1, 127439, Note_on_c, 9, 82, 0
1, 127440, Note_on_c, 9, 82, 38
1, 127679, Note_on_c, 9, 82, 0
1, 127680, Note_on_c, 9, 82, 79
1, 127919, Note_on_c, 9, 82, 0
1, 127920, Note_on_c, 9, 82, 38
1, 128159, Note_on_c, 9, 82, 0
1, 128160, Note_on_c, 9, 82, 79
1, 128399, Note_on_c, 9, 82, 0
1, 128400, Note_on_c, 9, 82, 38
1, 128639, Note_on_c, 9, 82, 0
1, 128640, Note_on_c, 9, 82, 79
1, 128879, Note_on_c, 9, 82, 0
1, 128880, Note_on_c, 9, 82, 38
1, 129119, Note_on_c, 9, 82, 0
1, 129120, Note_on_c, 9, 82, 79
1, 129359, Note_on_c, 9, 82, 0
1, 129360, Note_on_c, 9, 82, 38
1, 129599, Note_on_c, 9, 82, 0
1, 129600, Note_on_c, 9, 82, 79
1, 129839, Note_on_c, 9, 82, 0
1, 129840, Note_on_c, 9, 82, 38
1, 130079, Note_on_c, 9, 82, 0
1, 130080, Note_on_c, 9, 82, 79
1, 130319, Note_on_c, 9, 82, 0
1, 130320, Note_on_c, 9, 82, 38
1, 130559, Note_on_c, 9, 82, 0
1, 130560, Note_on_c, 9, 82, 79
1, 130799, Note_on_c, 9, 82, 0
1, 130800, Note_on_c, 9, 82, 38
1, 131039, Note_on_c, 9, 82, 0
1, 131040, Note_on_c, 9, 82, 79
1, 131279, Note_on_c, 9, 82, 0
1, 131280, Note_on_c, 9, 82, 38
1, 131519, Note_on_c, 9, 82, 0
1, 131520, Note_on_c, 9, 82, 79
1, 131759, Note_on_c, 9, 82, 0
1, 131760, Note_on_c, 9, 82, 38
1, 131999, Note_on_c, 9, 82, 0
1, 132000, Note_on_c, 9, 82, 79
1, 132239, Note_on_c, 9, 82, 0
1, 132240, Note_on_c, 9, 82, 38
1, 132479, Note_on_c, 9, 82, 0
1, 132480, Note_on_c, 9, 82, 79
1, 132719, Note_on_c, 9, 82, 0
1, 132720, Note_on_c, 9, 82, 38
1, 132959, Note_on_c, 9, 82, 0
1, 132960, Note_on_c, 9, 82, 79
1, 133199, Note_on_c, 9, 82, 0
1, 133200, Note_on_c, 9, 82, 38
1, 133439, Note_on_c, 9, 82, 0
1, 133440, Note_on_c, 9, 82, 79
1, 133679, Note_on_c, 9, 82, 0
1, 133680, Note_on_c, 9, 82, 38
1, 133919, Note_on_c, 9, 82, 0
1, 133920, Note_on_c, 9, 82, 79
1, 134159, Note_on_c, 9, 82, 0
1, 134160, Note_on_c, 9, 82, 38
1, 134399, Note_on_c, 9, 82, 0
1, 134400, Note_on_c, 9, 82, 79
1, 134639, Note_on_c, 9, 82, 0
1, 134640, Note_on_c, 9, 82, 38
1, 134879, Note_on_c, 9, 82, 0
1, 134880, Note_on_c, 9, 82, 79
1, 135119, Note_on_c, 9, 82, 0
1, 135120, Note_on_c, 9, 82, 38
1, 135359, Note_on_c, 9, 82, 0
1, 135360, Note_on_c, 9, 82, 79
1, 135599, Note_on_c, 9, 82, 0
1, 135600, Note_on_c, 9, 82, 38
1, 135839, Note_on_c, 9, 82, 0
1, 135840, Note_on_c, 9, 82, 79
1, 136079, Note_on_c, 9, 82, 0
1, 136080, Note_on_c, 9, 82, 38
1, 136319, Note_on_c, 9, 82, 0
1, 136320, Note_on_c, 9, 82, 79
1, 136559, Note_on_c, 9, 82, 0
1, 136560, Note_on_c, 9, 82, 38
1, 136799, Note_on_c, 9, 82, 0
1, 136800, Note_on_c, 9, 82, 79
1, 137039, Note_on_c, 9, 82, 0
1, 137040, Note_on_c, 9, 82, 38
1, 137279, Note_on_c, 9, 82, 0
1, 137280, Note_on_c, 9, 82, 79
1, 137519, Note_on_c, 9, 82, 0
1, 137520, Note_on_c, 9, 82, 38
1, 137759, Note_on_c, 9, 82, 0
1, 137760, Note_on_c, 9, 82, 79
1, 137999, Note_on_c, 9, 82, 0
1, 138000, Note_on_c, 9, 82, 38
1, 138239, Note_on_c, 9, 82, 0
1, 138240, Note_on_c, 9, 82, 79
1, 138479, Note_on_c, 9, 82, 0
1, 138480, Note_on_c, 9, 82, 38
1, 138719, Note_on_c, 9, 82, 0
1, 138720, Note_on_c, 9, 82, 79
1, 138959, Note_on_c, 9, 82, 0
1, 138960, Note_on_c, 9, 82, 38
1, 139199, Note_on_c, 9, 82, 0
1, 139200, Note_on_c, 9, 82, 79
1, 139439, Note_on_c, 9, 82, 0
1, 139440, Note_on_c, 9, 82, 38
1, 139679, Note_on_c, 9, 82, 0
1, 139680, Note_on_c, 9, 82, 79
1, 139919, Note_on_c, 9, 82, 0
1, 139920, Note_on_c, 9, 82, 38
1, 140159, Note_on_c, 9, 82, 0
1, 140160, Note_on_c, 9, 82, 79
1, 140399, Note_on_c, 9, 82, 0
1, 140400, Note_on_c, 9, 82, 38
1, 140639, Note_on_c, 9, 82, 0
1, 140640, Note_on_c, 9, 82, 79
1, 140879, Note_on_c, 9, 82, 0
1, 140880, Note_on_c, 9, 82, 38
1, 141119, Note_on_c, 9, 82, 0
1, 141120, Note_on_c, 9, 82, 79
1, 141359, Note_on_c, 9, 82, 0
1, 141360, Note_on_c, 9, 82, 38
1, 141599, Note_on_c, 9, 82, 0
1, 141600, Note_on_c, 9, 82, 79
1, 141839, Note_on_c, 9, 82, 0
1, 141840, Note_on_c, 9, 82, 38
1, 142079, Note_on_c, 9, 82, 0
1, 142080, Note_on_c, 9, 82, 79
1, 142319, Note_on_c, 9, 82, 0
1, 142320, Note_on_c, 9, 82, 38
1, 142559, Note_on_c, 9, 82, 0
1, 142560, Note_on_c, 9, 82, 79
1, 142799, Note_on_c, 9, 82, 0
1, 142800, Note_on_c, 9, 82, 38
1, 143039, Note_on_c, 9, 82, 0
1, 143040, Note_on_c, 9, 82, 79
1, 143279, Note_on_c, 9, 82, 0
1, 143280, Note_on_c, 9, 82, 38
1, 143519, Note_on_c, 9, 82, 0
1, 143520, Note_on_c, 9, 82, 79
1, 143759, Note_on_c, 9, 82, 0
1, 143760, Note_on_c, 9, 82, 38
1, 143999, Note_on_c, 9, 82, 0
1, 144000, Note_on_c, 9, 82, 79
1, 144239, Note_on_c, 9, 82, 0
1, 144240, Note_on_c, 9, 82, 38
1, 144479, Note_on_c, 9, 82, 0
1, 144480, Note_on_c, 9, 82, 79
1, 144719, Note_on_c, 9, 82, 0
1, 144720, Note_on_c, 9, 82, 38
1, 144959, Note_on_c, 9, 82, 0
1, 144960, Note_on_c, 9, 82, 79
1, 145199, Note_on_c, 9, 82, 0
1, 145200, Note_on_c, 9, 82, 38
1, 145439, Note_on_c, 9, 82, 0
1, 145440, Note_on_c, 9, 82, 79
1, 145679, Note_on_c, 9, 82, 0
1, 145680, Note_on_c, 9, 82, 38
1, 145919, Note_on_c, 9, 82, 0
1, 145920, Note_on_c, 9, 82, 79
1, 146159, Note_on_c, 9, 82, 0
1, 146160, Note_on_c, 9, 82, 38
1, 146399, Note_on_c, 9, 82, 0
1, 146400, Note_on_c, 9, 82, 79
1, 146639, Note_on_c, 9, 82, 0
1, 146640, Note_on_c, 9, 82, 38
1, 146879, Note_on_c, 9, 82, 0
1, 146880, Note_on_c, 9, 82, 79
1, 147119, Note_on_c, 9, 82, 0
1, 147120, Note_on_c, 9, 82, 38
1, 147359, Note_on_c, 9, 82, 0
1, 147360, Note_on_c, 9, 82, 79
1, 147599, Note_on_c, 9, 82, 0
1, 147600, Note_on_c, 9, 82, 38
1, 147839, Note_on_c, 9, 82, 0
1, 147840, Note_on_c, 9, 82, 79
1, 148079, Note_on_c, 9, 82, 0
1, 148080, Note_on_c, 9, 82, 38
1, 148319, Note_on_c, 9, 82, 0
1, 148320, Note_on_c, 9, 82, 79
1, 148559, Note_on_c, 9, 82, 0
1, 148560, Note_on_c, 9, 82, 38
1, 148799, Note_on_c, 9, 82, 0
1, 148800, Note_on_c, 9, 82, 79
1, 149039, Note_on_c, 9, 82, 0
1, 149040, Note_on_c, 9, 82, 38
1, 149279, Note_on_c, 9, 82, 0
1, 149280, Note_on_c, 9, 82, 79
1, 149519, Note_on_c, 9, 82, 0
1, 149520, Note_on_c, 9, 82, 38
1, 149759, Note_on_c, 9, 82, 0
1, 149760, Note_on_c, 9, 82, 79
1, 149999, Note_on_c, 9, 82, 0
1, 150000, Note_on_c, 9, 82, 38
1, 150239, Note_on_c, 9, 82, 0
1, 150240, Note_on_c, 9, 82, 79
1, 150479, Note_on_c, 9, 82, 0
1, 150480, Note_on_c, 9, 82, 38
1, 150719, Note_on_c, 9, 82, 0
1, 150720, Note_on_c, 9, 82, 79
1, 150959, Note_on_c, 9, 82, 0
1, 150960, Note_on_c, 9, 82, 38
1, 151199, Note_on_c, 9, 82, 0
1, 151200, Note_on_c, 9, 82, 79
1, 151439, Note_on_c, 9, 82, 0
1, 151440, Note_on_c, 9, 82, 38
1, 151679, Note_on_c, 9, 82, 0
1, 151680, Note_on_c, 9, 82, 79
1, 151919, Note_on_c, 9, 82, 0
1, 151920, Note_on_c, 9, 82, 38
1, 152159, Note_on_c, 9, 82, 0
1, 152160, Note_on_c, 9, 82, 79
1, 152399, Note_on_c, 9, 82, 0
1, 152400, Note_on_c, 9, 82, 38
1, 152639, Note_on_c, 9, 82, 0
1, 152640, Note_on_c, 9, 82, 79
1, 152879, Note_on_c, 9, 82, 0
1, 152880, Note_on_c, 9, 82, 38
1, 153119, Note_on_c, 9, 82, 0
1, 153120, Note_on_c, 9, 82, 79
1, 153359, Note_on_c, 9, 82, 0
1, 153360, Note_on_c, 9, 82, 38
1, 153599, Note_on_c, 9, 82, 0
1, 153600, Note_on_c, 9, 82, 79
1, 153839, Note_on_c, 9, 82, 0
1, 153840, Note_on_c, 9, 82, 38
1, 154079, Note_on_c, 9, 82, 0
1, 154080, Note_on_c, 9, 82, 79
1, 154319, Note_on_c, 9, 82, 0
1, 154320, Note_on_c, 9, 82, 38
1, 154559, Note_on_c, 9, 82, 0
1, 154560, Note_on_c, 9, 82, 79
1, 154799, Note_on_c, 9, 82, 0
1, 154800, Note_on_c, 9, 82, 38
1, 155039, Note_on_c, 9, 82, 0
1, 155040, Note_on_c, 9, 82, 79
1, 155279, Note_on_c, 9, 82, 0
1, 155280, Note_on_c, 9, 82, 38
1, 155519, Note_on_c, 9, 82, 0
1, 155520, Note_on_c, 9, 82, 79
1, 155759, Note_on_c, 9, 82, 0
1, 155760, Note_on_c, 9, 82, 38
1, 155999, Note_on_c, 9, 82, 0
1, 156000, Note_on_c, 9, 82, 79
1, 156239, Note_on_c, 9, 82, 0
1, 156240, Note_on_c, 9, 82, 38
1, 156479, Note_on_c, 9, 82, 0
1, 156480, Note_on_c, 9, 82, 79
1, 156719, Note_on_c, 9, 82, 0
1, 156720, Note_on_c, 9, 82, 38
1, 156959, Note_on_c, 9, 82, 0
1, 156960, Note_on_c, 9, 82, 79
1, 157199, Note_on_c, 9, 82, 0
1, 157200, Note_on_c, 9, 82, 38
1, 157439, Note_on_c, 9, 82, 0
1, 157440, Note_on_c, 9, 82, 79
1, 157679, Note_on_c, 9, 82, 0
1, 157680, Note_on_c, 9, 82, 38
1, 157919, Note_on_c, 9, 82, 0
1, 157920, Note_on_c, 9, 82, 79
1, 158159, Note_on_c, 9, 82, 0
1, 158160, Note_on_c, 9, 82, 38
1, 158399, Note_on_c, 9, 82, 0
1, 158400, Note_on_c, 9, 82, 79
1, 158639, Note_on_c, 9, 82, 0
1, 158640, Note_on_c, 9, 82, 38
1, 158879, Note_on_c, 9, 82, 0
1, 158880, Note_on_c, 9, 82, 79
1, 159119, Note_on_c, 9, 82, 0
1, 159120, Note_on_c, 9, 82, 38
1, 159359, Note_on_c, 9, 82, 0
1, 159360, Note_on_c, 9, 82, 79
1, 159599, Note_on_c, 9, 82, 0
1, 159600, Note_on_c, 9, 82, 38
1, 159839, Note_on_c, 9, 82, 0
1, 159840, Note_on_c, 9, 82, 79
1, 160079, Note_on_c, 9, 82, 0
1, 160080, Note_on_c, 9, 82, 38
1, 160319, Note_on_c, 9, 82, 0
1, 160320, Note_on_c, 9, 82, 79
1, 160559, Note_on_c, 9, 82, 0
1, 160560, Note_on_c, 9, 82, 38
1, 160799, Note_on_c, 9, 82, 0
1, 160800, Note_on_c, 9, 82, 79
1, 161039, Note_on_c, 9, 82, 0
1, 161040, Note_on_c, 9, 82, 38
1, 161279, Note_on_c, 9, 82, 0
1, 161280, Note_on_c, 9, 82, 79
1, 161519, Note_on_c, 9, 82, 0
1, 161520, Note_on_c, 9, 82, 38
1, 161759, Note_on_c, 9, 82, 0
1, 161760, Note_on_c, 9, 82, 79
1, 161999, Note_on_c, 9, 82, 0
1, 162000, Note_on_c, 9, 82, 38
1, 162239, Note_on_c, 9, 82, 0
1, 162240, Note_on_c, 9, 82, 79
1, 162479, Note_on_c, 9, 82, 0
1, 162480, Note_on_c, 9, 82, 38
1, 162719, Note_on_c, 9, 82, 0
1, 162720, Note_on_c, 9, 82, 79
1, 162959, Note_on_c, 9, 82, 0
1, 162960, Note_on_c, 9, 82, 38
1, 163199, Note_on_c, 9, 82, 0
1, 163200, Note_on_c, 9, 82, 79
1, 163439, Note_on_c, 9, 82, 0
1, 163440, Note_on_c, 9, 82, 38
1, 163679, Note_on_c, 9, 82, 0
1, 163680, Note_on_c, 9, 82, 79
1, 163919, Note_on_c, 9, 82, 0
1, 163920, Note_on_c, 9, 82, 38
1, 164159, Note_on_c, 9, 82, 0
1, 164160, Note_on_c, 9, 82, 79
1, 164399, Note_on_c, 9, 82, 0
1, 164400, Note_on_c, 9, 82, 38
1, 164639, Note_on_c, 9, 82, 0
1, 164640, Note_on_c, 9, 82, 79
1, 164879, Note_on_c, 9, 82, 0
1, 164880, Note_on_c, 9, 82, 38
1, 165119, Note_on_c, 9, 82, 0
1, 165120, Note_on_c, 9, 82, 79
1, 165359, Note_on_c, 9, 82, 0
1, 165360, Note_on_c, 9, 82, 38
1, 165599, Note_on_c, 9, 82, 0
1, 165600, Note_on_c, 9, 82, 79
1, 165839, Note_on_c, 9, 82, 0
1, 165840, Note_on_c, 9, 82, 38
1, 166079, Note_on_c, 9, 82, 0
1, 166080, Note_on_c, 9, 82, 79
1, 166319, Note_on_c, 9, 82, 0
1, 166320, Note_on_c, 9, 82, 38
1, 166559, Note_on_c, 9, 82, 0
1, 166560, Note_on_c, 9, 82, 79
1, 166799, Note_on_c, 9, 82, 0
1, 166800, Note_on_c, 9, 82, 38
1, 167039, Note_on_c, 9, 82, 0
1, 167040, Note_on_c, 9, 82, 79
1, 167279, Note_on_c, 9, 82, 0
1, 167280, Note_on_c, 9, 82, 38
1, 167519, Note_on_c, 9, 82, 0
1, 167520, Note_on_c, 9, 82, 79
1, 167759, Note_on_c, 9, 82, 0
1, 167760, Note_on_c, 9, 82, 38
1, 167999, Note_on_c, 9, 82, 0
1, 168000, Note_on_c, 9, 82, 79
1, 168239, Note_on_c, 9, 82, 0
1, 168240, Note_on_c, 9, 82, 38
1, 168479, Note_on_c, 9, 82, 0
1, 168480, Note_on_c, 9, 82, 79
1, 168719, Note_on_c, 9, 82, 0
1, 168720, Note_on_c, 9, 82, 38
1, 168959, Note_on_c, 9, 82, 0
1, 168960, Note_on_c, 9, 82, 79
1, 169199, Note_on_c, 9, 82, 0
1, 169200, Note_on_c, 9, 82, 38
1, 169439, Note_on_c, 9, 82, 0
1, 169440, Note_on_c, 9, 82, 79
1, 169679, Note_on_c, 9, 82, 0
1, 169680, Note_on_c, 9, 82, 38
1, 169919, Note_on_c, 9, 82, 0
1, 169920, Note_on_c, 9, 82, 79
1, 170159, Note_on_c, 9, 82, 0
1, 170160, Note_on_c, 9, 82, 38
1, 170399, Note_on_c, 9, 82, 0
1, 170400, Note_on_c, 9, 82, 79
1, 170639, Note_on_c, 9, 82, 0
1, 170640, Note_on_c, 9, 82, 38
1, 170879, Note_on_c, 9, 82, 0
1, 170880, Note_on_c, 9, 82, 79
1, 171119, Note_on_c, 9, 82, 0
1, 171120, Note_on_c, 9, 82, 38
1, 171359, Note_on_c, 9, 82, 0
1, 171360, Note_on_c, 9, 82, 79
1, 171599, Note_on_c, 9, 82, 0
1, 171600, Note_on_c, 9, 82, 38
1, 171839, Note_on_c, 9, 82, 0
1, 171840, Note_on_c, 9, 82, 79
1, 172079, Note_on_c, 9, 82, 0
1, 172080, Note_on_c, 9, 82, 38
1, 172319, Note_on_c, 9, 82, 0
1, 172320, Note_on_c, 9, 82, 79
1, 172559, Note_on_c, 9, 82, 0
1, 172560, Note_on_c, 9, 82, 38
1, 172799, Note_on_c, 9, 82, 0
1, 172800, Note_on_c, 9, 82, 79
1, 173039, Note_on_c, 9, 82, 0
1, 173040, Note_on_c, 9, 82, 38
1, 173279, Note_on_c, 9, 82, 0
1, 173280, Note_on_c, 9, 82, 79
1, 173519, Note_on_c, 9, 82, 0
1, 173520, Note_on_c, 9, 82, 38
1, 173759, Note_on_c, 9, 82, 0
1, 173760, Note_on_c, 9, 82, 79
1, 173999, Note_on_c, 9, 82, 0
1, 174000, Note_on_c, 9, 82, 38
1, 174239, Note_on_c, 9, 82, 0
1, 174240, Note_on_c, 9, 82, 79
1, 174479, Note_on_c, 9, 82, 0
1, 174480, Note_on_c, 9, 82, 38
1, 174719, Note_on_c, 9, 82, 0
1, 174720, Note_on_c, 9, 82, 79
1, 174959, Note_on_c, 9, 82, 0
1, 174960, Note_on_c, 9, 82, 38
1, 175199, Note_on_c, 9, 82, 0
1, 175200, Note_on_c, 9, 82, 79
1, 175439, Note_on_c, 9, 82, 0
1, 175440, Note_on_c, 9, 82, 38
1, 175679, Note_on_c, 9, 82, 0
1, 175680, Note_on_c, 9, 82, 79
1, 175919, Note_on_c, 9, 82, 0
1, 175920, Note_on_c, 9, 82, 38
1, 176159, Note_on_c, 9, 82, 0
1, 176160, Note_on_c, 9, 82, 79
1, 176399, Note_on_c, 9, 82, 0
1, 176400, Note_on_c, 9, 82, 38
1, 176639, Note_on_c, 9, 82, 0
1, 176640, Note_on_c, 9, 82, 79
1, 176879, Note_on_c, 9, 82, 0
1, 176880, Note_on_c, 9, 82, 38
1, 177119, Note_on_c, 9, 82, 0
1, 177120, Note_on_c, 9, 82, 79
1, 177359, Note_on_c, 9, 82, 0
1, 177360, Note_on_c, 9, 82, 38
1, 177599, Note_on_c, 9, 82, 0
1, 177600, Note_on_c, 9, 82, 79
1, 177839, Note_on_c, 9, 82, 0
1, 177840, Note_on_c, 9, 82, 38
1, 178079, Note_on_c, 9, 82, 0
1, 178080, Note_on_c, 9, 82, 79
1, 178319, Note_on_c, 9, 82, 0
1, 178320, Note_on_c, 9, 82, 38
1, 178559, Note_on_c, 9, 82, 0
1, 178560, Note_on_c, 9, 82, 79
1, 178799, Note_on_c, 9, 82, 0
1, 178800, Note_on_c, 9, 82, 38
1, 179039, Note_on_c, 9, 82, 0
1, 179040, Note_on_c, 9, 82, 79
1, 179279, Note_on_c, 9, 82, 0
1, 179280, Note_on_c, 9, 82, 38
1, 179519, Note_on_c, 9, 82, 0
1, 179520, Note_on_c, 9, 82, 79
1, 179759, Note_on_c, 9, 82, 0
1, 179760, Note_on_c, 9, 82, 38
1, 179999, Note_on_c, 9, 82, 0
1, 180000, Note_on_c, 9, 82, 79
1, 180239, Note_on_c, 9, 82, 0
1, 180240, Note_on_c, 9, 82, 38
1, 180479, Note_on_c, 9, 82, 0
1, 180480, Note_on_c, 9, 82, 79
1, 180719, Note_on_c, 9, 82, 0
1, 180720, Note_on_c, 9, 82, 38
1, 180959, Note_on_c, 9, 82, 0
1, 180960, Note_on_c, 9, 82, 79
1, 181199, Note_on_c, 9, 82, 0
1, 181200, Note_on_c, 9, 82, 38
1, 181439, Note_on_c, 9, 82, 0
1, 181440, Note_on_c, 9, 82, 79
1, 181679, Note_on_c, 9, 82, 0
1, 181680, Note_on_c, 9, 82, 38
1, 181919, Note_on_c, 9, 82, 0
1, 181920, Note_on_c, 9, 82, 79
1, 182159, Note_on_c, 9, 82, 0
1, 182160, Note_on_c, 9, 82, 38
1, 182399, Note_on_c, 9, 82, 0
1, 182400, Note_on_c, 9, 82, 79
1, 182639, Note_on_c, 9, 82, 0
1, 182640, Note_on_c, 9, 82, 38
1, 182879, Note_on_c, 9, 82, 0
1, 182880, Note_on_c, 9, 82, 79
1, 183119, Note_on_c, 9, 82, 0
1, 183120, Note_on_c, 9, 82, 38
1, 183359, Note_on_c, 9, 82, 0
1, 183360, Note_on_c, 9, 82, 79
1, 183599, Note_on_c, 9, 82, 0
1, 183600, Note_on_c, 9, 82, 38
1, 183839, Note_on_c, 9, 82, 0
1, 183840, Note_on_c, 9, 82, 79
1, 184079, Note_on_c, 9, 82, 0
1, 184080, Note_on_c, 9, 82, 38
1, 184319, Note_on_c, 9, 82, 0
1, 184320, Note_on_c, 9, 82, 79
1, 184559, Note_on_c, 9, 82, 0
1, 184560, Note_on_c, 9, 82, 38
1, 184799, Note_on_c, 9, 82, 0
1, 184800, Note_on_c, 9, 82, 79
1, 185039, Note_on_c, 9, 82, 0
1, 185040, Note_on_c, 9, 82, 38
1, 185279, Note_on_c, 9, 82, 0
1, 185280, Note_on_c, 9, 82, 79
1, 185519, Note_on_c, 9, 82, 0
1, 185520, Note_on_c, 9, 82, 38
1, 185759, Note_on_c, 9, 82, 0
1, 185760, Note_on_c, 9, 82, 79
1, 185999, Note_on_c, 9, 82, 0
1, 186000, Note_on_c, 9, 82, 38
1, 186239, Note_on_c, 9, 82, 0
1, 186240, Note_on_c, 9, 82, 79
1, 186479, Note_on_c, 9, 82, 0
1, 186480, Note_on_c, 9, 82, 38
1, 186719, Note_on_c, 9, 82, 0
1, 186720, Note_on_c, 9, 82, 79
1, 186959, Note_on_c, 9, 82, 0
1, 186960, Note_on_c, 9, 82, 38
1, 187199, Note_on_c, 9, 82, 0
1, 187200, Note_on_c, 9, 82, 79
1, 187439, Note_on_c, 9, 82, 0
1, 187440, Note_on_c, 9, 82, 38
1, 187679, Note_on_c, 9, 82, 0
1, 187680, Note_on_c, 9, 82, 79
1, 187919, Note_on_c, 9, 82, 0
1, 187920, Note_on_c, 9, 82, 38
1, 188159, Note_on_c, 9, 82, 0
1, 188160, Note_on_c, 9, 82, 79
1, 188399, Note_on_c, 9, 82, 0
1, 188400, Note_on_c, 9, 82, 38
1, 188639, Note_on_c, 9, 82, 0
1, 188640, Note_on_c, 9, 82, 79
1, 188879, Note_on_c, 9, 82, 0
1, 188880, Note_on_c, 9, 82, 38
1, 189119, Note_on_c, 9, 82, 0
1, 189120, Note_on_c, 9, 82, 79
1, 189359, Note_on_c, 9, 82, 0
1, 189360, Note_on_c, 9, 82, 38
1, 189599, Note_on_c, 9, 82, 0
1, 189600, Note_on_c, 9, 82, 79
1, 189839, Note_on_c, 9, 82, 0
1, 189840, Note_on_c, 9, 82, 38
1, 190079, Note_on_c, 9, 82, 0
1, 190080, Note_on_c, 9, 82, 79
1, 190319, Note_on_c, 9, 82, 0
1, 190320, Note_on_c, 9, 82, 38
1, 190559, Note_on_c, 9, 82, 0
1, 190560, Note_on_c, 9, 82, 79
1, 190799, Note_on_c, 9, 82, 0
1, 190800, Note_on_c, 9, 82, 38
1, 191039, Note_on_c, 9, 82, 0
1, 191040, Note_on_c, 9, 82, 79
1, 191279, Note_on_c, 9, 82, 0
1, 191280, Note_on_c, 9, 82, 38
1, 191519, Note_on_c, 9, 82, 0
1, 191520, Note_on_c, 9, 82, 79
1, 191759, Note_on_c, 9, 82, 0
1, 191760, Note_on_c, 9, 82, 38
1, 191999, Note_on_c, 9, 82, 0
1, 192000, Note_on_c, 9, 82, 79
1, 192239, Note_on_c, 9, 82, 0
1, 192240, Note_on_c, 9, 82, 38
1, 192479, Note_on_c, 9, 82, 0
1, 192480, Note_on_c, 9, 82, 79
1, 192719, Note_on_c, 9, 82, 0
1, 192720, Note_on_c, 9, 82, 38
1, 192959, Note_on_c, 9, 82, 0
1, 192960, Note_on_c, 9, 82, 79
1, 193199, Note_on_c, 9, 82, 0
1, 193200, Note_on_c, 9, 82, 38
1, 193439, Note_on_c, 9, 82, 0
1, 193440, Note_on_c, 9, 82, 79
1, 193679, Note_on_c, 9, 82, 0
1, 193680, Note_on_c, 9, 82, 38
1, 193919, Note_on_c, 9, 82, 0
1, 193920, Note_on_c, 9, 82, 79
1, 194159, Note_on_c, 9, 82, 0
1, 194160, Note_on_c, 9, 82, 38
1, 194399, Note_on_c, 9, 82, 0
1, 194400, Note_on_c, 9, 82, 79
1, 194639, Note_on_c, 9, 82, 0
1, 194640, Note_on_c, 9, 82, 38
1, 194879, Note_on_c, 9, 82, 0
1, 194880, Note_on_c, 9, 82, 79
1, 195119, Note_on_c, 9, 82, 0
1, 195120, Note_on_c, 9, 82, 38
1, 195359, Note_on_c, 9, 82, 0
1, 195360, Note_on_c, 9, 82, 79
1, 195599, Note_on_c, 9, 82, 0
1, 195600, Note_on_c, 9, 82, 38
1, 195839, Note_on_c, 9, 82, 0
1, 195840, Note_on_c, 9, 82, 79
1, 196079, Note_on_c, 9, 82, 0
1, 196080, Note_on_c, 9, 82, 38
1, 196319, Note_on_c, 9, 82, 0
1, 196320, Note_on_c, 9, 82, 79
1, 196559, Note_on_c, 9, 82, 0
1, 196560, Note_on_c, 9, 82, 38
1, 196799, Note_on_c, 9, 82, 0
1, 196800, Note_on_c, 9, 82, 79
1, 197039, Note_on_c, 9, 82, 0
1, 197040, Note_on_c, 9, 82, 38
1, 197279, Note_on_c, 9, 82, 0
1, 197280, Note_on_c, 9, 82, 79
1, 197519, Note_on_c, 9, 82, 0
1, 197520, Note_on_c, 9, 82, 38
1, 197759, Note_on_c, 9, 82, 0
1, 197760, Note_on_c, 9, 82, 79
1, 197999, Note_on_c, 9, 82, 0
1, 198000, Note_on_c, 9, 82, 38
1, 198239, Note_on_c, 9, 82, 0
1, 198240, Note_on_c, 9, 82, 79
1, 198479, Note_on_c, 9, 82, 0
1, 198480, Note_on_c, 9, 82, 38
1, 198719, Note_on_c, 9, 82, 0
1, 198720, Note_on_c, 9, 82, 79
1, 198959, Note_on_c, 9, 82, 0
1, 198960, Note_on_c, 9, 82, 38
1, 199199, Note_on_c, 9, 82, 0
1, 199200, Note_on_c, 9, 82, 79
1, 199439, Note_on_c, 9, 82, 0
1, 199440, Note_on_c, 9, 82, 38
1, 199679, Note_on_c, 9, 82, 0
1, 199680, Note_on_c, 9, 82, 79
1, 199919, Note_on_c, 9, 82, 0
1, 199920, Note_on_c, 9, 82, 38
1, 200159, Note_on_c, 9, 82, 0
1, 200160, Note_on_c, 9, 82, 79
1, 200399, Note_on_c, 9, 82, 0
1, 200400, Note_on_c, 9, 82, 38
1, 200639, Note_on_c, 9, 82, 0
1, 200640, Note_on_c, 9, 82, 79
1, 200879, Note_on_c, 9, 82, 0
1, 200880, Note_on_c, 9, 82, 38
1, 201119, Note_on_c, 9, 82, 0
1, 201120, Note_on_c, 9, 82, 79
1, 201359, Note_on_c, 9, 82, 0
1, 201360, Note_on_c, 9, 82, 38
1, 201599, Note_on_c, 9, 82, 0
1, 201600, Note_on_c, 9, 82, 79
1, 201839, Note_on_c, 9, 82, 0
1, 201840, Note_on_c, 9, 82, 38
1, 202079, Note_on_c, 9, 82, 0
1, 202080, Note_on_c, 9, 82, 79
1, 202319, Note_on_c, 9, 82, 0
1, 202320, Note_on_c, 9, 82, 38
1, 202559, Note_on_c, 9, 82, 0
1, 202560, Note_on_c, 9, 82, 79
1, 202799, Note_on_c, 9, 82, 0
1, 202800, Note_on_c, 9, 82, 38
1, 203039, Note_on_c, 9, 82, 0
1, 203040, Note_on_c, 9, 82, 79
1, 203279, Note_on_c, 9, 82, 0
1, 203280, Note_on_c, 9, 82, 38
1, 203519, Note_on_c, 9, 82, 0
1, 203520, Note_on_c, 9, 82, 79
1, 203759, Note_on_c, 9, 82, 0
1, 203760, Note_on_c, 9, 82, 38
1, 203999, Note_on_c, 9, 82, 0
1, 204000, Note_on_c, 9, 82, 79
1, 204239, Note_on_c, 9, 82, 0
1, 204240, Note_on_c, 9, 82, 38
1, 204479, Note_on_c, 9, 82, 0
1, 204480, Note_on_c, 9, 82, 79
1, 204719, Note_on_c, 9, 82, 0
1, 204720, Note_on_c, 9, 82, 38
1, 204959, Note_on_c, 9, 82, 0
1, 204960, Note_on_c, 9, 82, 79
1, 205199, Note_on_c, 9, 82, 0
1, 205200, Note_on_c, 9, 82, 38
1, 205439, Note_on_c, 9, 82, 0
1, 205440, Note_on_c, 9, 82, 79
1, 205679, Note_on_c, 9, 82, 0
1, 205680, Note_on_c, 9, 82, 38
1, 205919, Note_on_c, 9, 82, 0
1, 205920, Note_on_c, 9, 82, 79
1, 206159, Note_on_c, 9, 82, 0
1, 206160, Note_on_c, 9, 82, 38
1, 206399, Note_on_c, 9, 82, 0
1, 206400, Note_on_c, 9, 82, 79
1, 206639, Note_on_c, 9, 82, 0
1, 206640, Note_on_c, 9, 82, 38
1, 206879, Note_on_c, 9, 82, 0
1, 206880, Note_on_c, 9, 82, 79
1, 207119, Note_on_c, 9, 82, 0
1, 207120, Note_on_c, 9, 82, 38
1, 207359, Note_on_c, 9, 82, 0
1, 207360, Note_on_c, 9, 82, 79
1, 207599, Note_on_c, 9, 82, 0
1, 207600, Note_on_c, 9, 82, 38
1, 207839, Note_on_c, 9, 82, 0
1, 207840, Note_on_c, 9, 82, 79
1, 208079, Note_on_c, 9, 82, 0
1, 208080, Note_on_c, 9, 82, 38
1, 208319, Note_on_c, 9, 82, 0
1, 208320, Note_on_c, 9, 82, 79
1, 208559, Note_on_c, 9, 82, 0
1, 208560, Note_on_c, 9, 82, 38
1, 208799, Note_on_c, 9, 82, 0
1, 208800, Note_on_c, 9, 82, 79
1, 209039, Note_on_c, 9, 82, 0
1, 209040, Note_on_c, 9, 82, 38
1, 209279, Note_on_c, 9, 82, 0
1, 209280, Note_on_c, 9, 53, 79
1, 209280, Note_on_c, 9, 82, 79
1, 209519, Note_on_c, 9, 53, 0
1, 209519, Note_on_c, 9, 82, 0
1, 209520, Note_on_c, 9, 82, 38
1, 209759, Note_on_c, 9, 82, 0
1, 209760, Note_on_c, 9, 82, 79
1, 209999, Note_on_c, 9, 82, 0
1, 210000, Note_on_c, 9, 82, 38
1, 210239, Note_on_c, 9, 82, 0
1, 210240, Note_on_c, 9, 53, 79
1, 210240, Note_on_c, 9, 82, 79
1, 210479, Note_on_c, 9, 53, 0
1, 210479, Note_on_c, 9, 82, 0
1, 210480, Note_on_c, 9, 82, 38
1, 210719, Note_on_c, 9, 82, 0
1, 210720, Note_on_c, 9, 82, 79
1, 210959, Note_on_c, 9, 82, 0
1, 210960, Note_on_c, 9, 82, 38
1, 211199, Note_on_c, 9, 82, 0
1, 211200, Note_on_c, 9, 53, 79
1, 211200, Note_on_c, 9, 82, 79
1, 211439, Note_on_c, 9, 53, 0
1, 211439, Note_on_c, 9, 82, 0
1, 211440, Note_on_c, 9, 82, 38
1, 211679, Note_on_c, 9, 82, 0
1, 211680, Note_on_c, 9, 82, 79
1, 211919, Note_on_c, 9, 82, 0
1, 211920, Note_on_c, 9, 82, 38
1, 212159, Note_on_c, 9, 82, 0
1, 212160, Note_on_c, 9, 53, 79
1, 212160, Note_on_c, 9, 82, 79
1, 212399, Note_on_c, 9, 53, 0
1, 212399, Note_on_c, 9, 82, 0
1, 212400, Note_on_c, 9, 82, 38
1, 212639, Note_on_c, 9, 82, 0
1, 212640, Note_on_c, 9, 82, 79
1, 212879, Note_on_c, 9, 82, 0
1, 212880, Note_on_c, 9, 82, 38
1, 213119, Note_on_c, 9, 82, 0
1, 213120, Note_on_c, 9, 53, 79
1, 213120, Note_on_c, 9, 82, 79
1, 213359, Note_on_c, 9, 53, 0
1, 213359, Note_on_c, 9, 82, 0
1, 213360, Note_on_c, 9, 82, 38
1, 213599, Note_on_c, 9, 82, 0
1, 213600, Note_on_c, 9, 82, 79
1, 213839, Note_on_c, 9, 82, 0
1, 213840, Note_on_c, 9, 82, 38
1, 214079, Note_on_c, 9, 82, 0
1, 214080, Note_on_c, 9, 53, 79
1, 214080, Note_on_c, 9, 82, 79
1, 214319, Note_on_c, 9, 53, 0
1, 214319, Note_on_c, 9, 82, 0
1, 214320, Note_on_c, 9, 82, 38
1, 214559, Note_on_c, 9, 82, 0
1, 214560, Note_on_c, 9, 82, 79
1, 214799, Note_on_c, 9, 82, 0
1, 214800, Note_on_c, 9, 82, 38
1, 215039, Note_on_c, 9, 82, 0
1, 215040, Note_on_c, 9, 53, 79
1, 215040, Note_on_c, 9, 82, 79
1, 215279, Note_on_c, 9, 53, 0
1, 215279, Note_on_c, 9, 82, 0
1, 215280, Note_on_c, 9, 82, 38
1, 215519, Note_on_c, 9, 82, 0
1, 215520, Note_on_c, 9, 82, 79
1, 215759, Note_on_c, 9, 82, 0
1, 215760, Note_on_c, 9, 82, 38
1, 215999, Note_on_c, 9, 82, 0
1, 216000, Note_on_c, 9, 53, 79
1, 216000, Note_on_c, 9, 82, 79
1, 216239, Note_on_c, 9, 53, 0
1, 216239, Note_on_c, 9, 82, 0
1, 216240, Note_on_c, 9, 82, 38
1, 216479, Note_on_c, 9, 82, 0
1, 216480, Note_on_c, 9, 82, 79
1, 216719, Note_on_c, 9, 82, 0
1, 216720, Note_on_c, 9, 82, 38
1, 216959, Note_on_c, 9, 82, 0
1, 216960, Note_on_c, 9, 53, 79
1, 216960, Note_on_c, 9, 82, 79
1, 217199, Note_on_c, 9, 53, 0
1, 217199, Note_on_c, 9, 82, 0
1, 217200, Note_on_c, 9, 82, 38
1, 217439, Note_on_c, 9, 82, 0
1, 217440, Note_on_c, 9, 82, 79
1, 217679, Note_on_c, 9, 82, 0
1, 217680, Note_on_c, 9, 82, 38
1, 217919, Note_on_c, 9, 82, 0
1, 217920, Note_on_c, 9, 53, 79
1, 217920, Note_on_c, 9, 82, 79
1, 218159, Note_on_c, 9, 53, 0
1, 218159, Note_on_c, 9, 82, 0
1, 218160, Note_on_c, 9, 82, 38
1, 218399, Note_on_c, 9, 82, 0
1, 218400, Note_on_c, 9, 82, 79
1, 218639, Note_on_c, 9, 82, 0
1, 218640, Note_on_c, 9, 82, 38
1, 218879, Note_on_c, 9, 82, 0
1, 218880, Note_on_c, 9, 53, 79
1, 218880, Note_on_c, 9, 82, 79
1, 219119, Note_on_c, 9, 53, 0
1, 219119, Note_on_c, 9, 82, 0
1, 219120, Note_on_c, 9, 82, 38
1, 219359, Note_on_c, 9, 82, 0
1, 219360, Note_on_c, 9, 82, 79
1, 219599, Note_on_c, 9, 82, 0
1, 219600, Note_on_c, 9, 82, 38
1, 219839, Note_on_c, 9, 82, 0
1, 219840, Note_on_c, 9, 53, 79
1, 219840, Note_on_c, 9, 82, 79
1, 220079, Note_on_c, 9, 53, 0
1, 220079, Note_on_c, 9, 82, 0
1, 220080, Note_on_c, 9, 82, 38
1, 220319, Note_on_c, 9, 82, 0
1, 220320, Note_on_c, 9, 82, 79
1, 220559, Note_on_c, 9, 82, 0
1, 220560, Note_on_c, 9, 82, 38
1, 220799, Note_on_c, 9, 82, 0
1, 220800, Note_on_c, 9, 53, 79
1, 220800, Note_on_c, 9, 82, 79
1, 221039, Note_on_c, 9, 53, 0
1, 221039, Note_on_c, 9, 82, 0
1, 221040, Note_on_c, 9, 82, 38
1, 221279, Note_on_c, 9, 82, 0
1, 221280, Note_on_c, 9, 82, 79
1, 221519, Note_on_c, 9, 82, 0
1, 221520, Note_on_c, 9, 82, 38
1, 221759, Note_on_c, 9, 82, 0
1, 221760, Note_on_c, 9, 53, 79
1, 221760, Note_on_c, 9, 82, 79
1, 221999, Note_on_c, 9, 53, 0
1, 221999, Note_on_c, 9, 82, 0
1, 222000, Note_on_c, 9, 82, 38
1, 222239, Note_on_c, 9, 82, 0
1, 222240, Note_on_c, 9, 82, 79
1, 222479, Note_on_c, 9, 82, 0
1, 222480, Note_on_c, 9, 82, 38
1, 222719, Note_on_c, 9, 82, 0
1, 222720, Note_on_c, 9, 53, 79
1, 222720, Note_on_c, 9, 82, 79
1, 222959, Note_on_c, 9, 53, 0
1, 222959, Note_on_c, 9, 82, 0
1, 222960, Note_on_c, 9, 82, 38
1, 223199, Note_on_c, 9, 82, 0
1, 223200, Note_on_c, 9, 82, 79
1, 223439, Note_on_c, 9, 82, 0
1, 223440, Note_on_c, 9, 82, 38
1, 223679, Note_on_c, 9, 82, 0
1, 223680, Note_on_c, 9, 53, 79
1, 223680, Note_on_c, 9, 82, 79
1, 223919, Note_on_c, 9, 53, 0
1, 223919, Note_on_c, 9, 82, 0
1, 223920, Note_on_c, 9, 82, 38
1, 224159, Note_on_c, 9, 82, 0
1, 224160, Note_on_c, 9, 82, 79
1, 224399, Note_on_c, 9, 82, 0
1, 224400, Note_on_c, 9, 82, 38
1, 224639, Note_on_c, 9, 82, 0
1, 224640, Note_on_c, 9, 53, 79
1, 224640, Note_on_c, 9, 82, 79
1, 224879, Note_on_c, 9, 53, 0
1, 224879, Note_on_c, 9, 82, 0
1, 224880, Note_on_c, 9, 82, 38
1, 225119, Note_on_c, 9, 82, 0
1, 225120, Note_on_c, 9, 82, 79
1, 225359, Note_on_c, 9, 82, 0
1, 225360, Note_on_c, 9, 82, 38
1, 225599, Note_on_c, 9, 82, 0
1, 225600, Note_on_c, 9, 53, 79
1, 225600, Note_on_c, 9, 82, 79
1, 225839, Note_on_c, 9, 53, 0
1, 225839, Note_on_c, 9, 82, 0
1, 225840, Note_on_c, 9, 82, 38
1, 226079, Note_on_c, 9, 82, 0
1, 226080, Note_on_c, 9, 82, 79
1, 226319, Note_on_c, 9, 82, 0
1, 226320, Note_on_c, 9, 82, 38
1, 226559, Note_on_c, 9, 82, 0
1, 226560, Note_on_c, 9, 53, 79
1, 226560, Note_on_c, 9, 82, 79
1, 226799, Note_on_c, 9, 53, 0
1, 226799, Note_on_c, 9, 82, 0
1, 226800, Note_on_c, 9, 82, 38
1, 227039, Note_on_c, 9, 82, 0
1, 227040, Note_on_c, 9, 82, 79
1, 227279, Note_on_c, 9, 82, 0
1, 227280, Note_on_c, 9, 82, 38
1, 227519, Note_on_c, 9, 82, 0
1, 227520, Note_on_c, 9, 53, 79
1, 227520, Note_on_c, 9, 82, 79
1, 227759, Note_on_c, 9, 53, 0
1, 227759, Note_on_c, 9, 82, 0
1, 227760, Note_on_c, 9, 82, 38
1, 227999, Note_on_c, 9, 82, 0
1, 228000, Note_on_c, 9, 82, 79
1, 228239, Note_on_c, 9, 82, 0
1, 228240, Note_on_c, 9, 82, 38
1, 228479, Note_on_c, 9, 82, 0
1, 228480, Note_on_c, 9, 53, 79
1, 228480, Note_on_c, 9, 82, 79
1, 228719, Note_on_c, 9, 53, 0
1, 228719, Note_on_c, 9, 82, 0
1, 228720, Note_on_c, 9, 82, 38
1, 228959, Note_on_c, 9, 82, 0
1, 228960, Note_on_c, 9, 82, 79
1, 229199, Note_on_c, 9, 82, 0
1, 229200, Note_on_c, 9, 82, 38
1, 229439, Note_on_c, 9, 82, 0
1, 229440, Note_on_c, 9, 53, 79
1, 229440, Note_on_c, 9, 82, 79
1, 229679, Note_on_c, 9, 53, 0
1, 229679, Note_on_c, 9, 82, 0
1, 229680, Note_on_c, 9, 82, 38
1, 229919, Note_on_c, 9, 82, 0
1, 229920, Note_on_c, 9, 82, 79
1, 230159, Note_on_c, 9, 82, 0
1, 230160, Note_on_c, 9, 82, 38
1, 230399, Note_on_c, 9, 82, 0
1, 230400, Note_on_c, 9, 53, 79
1, 230400, Note_on_c, 9, 82, 79
1, 230639, Note_on_c, 9, 53, 0
1, 230639, Note_on_c, 9, 82, 0
1, 230640, Note_on_c, 9, 82, 38
1, 230879, Note_on_c, 9, 82, 0
1, 230880, Note_on_c, 9, 82, 79
1, 231119, Note_on_c, 9, 82, 0
1, 231120, Note_on_c, 9, 82, 38
1, 231359, Note_on_c, 9, 82, 0
1, 231360, Note_on_c, 9, 53, 79
1, 231360, Note_on_c, 9, 82, 79
1, 231599, Note_on_c, 9, 53, 0
1, 231599, Note_on_c, 9, 82, 0
1, 231600, Note_on_c, 9, 82, 38
1, 231839, Note_on_c, 9, 82, 0
1, 231840, Note_on_c, 9, 82, 79
1, 232079, Note_on_c, 9, 82, 0
1, 232080, Note_on_c, 9, 82, 38
1, 232319, Note_on_c, 9, 82, 0
1, 232320, Note_on_c, 9, 53, 79
1, 232320, Note_on_c, 9, 82, 79
1, 232559, Note_on_c, 9, 53, 0
1, 232559, Note_on_c, 9, 82, 0
1, 232560, Note_on_c, 9, 82, 38
1, 232799, Note_on_c, 9, 82, 0
1, 232800, Note_on_c, 9, 82, 79
1, 233039, Note_on_c, 9, 82, 0
1, 233040, Note_on_c, 9, 82, 38
1, 233279, Note_on_c, 9, 82, 0
1, 233280, Note_on_c, 9, 53, 79
1, 233280, Note_on_c, 9, 82, 79
1, 233519, Note_on_c, 9, 53, 0
1, 233519, Note_on_c, 9, 82, 0
1, 233520, Note_on_c, 9, 82, 38
1, 233759, Note_on_c, 9, 82, 0
1, 233760, Note_on_c, 9, 82, 79
1, 233999, Note_on_c, 9, 82, 0
1, 234000, Note_on_c, 9, 82, 38
1, 234239, Note_on_c, 9, 82, 0
1, 234240, Note_on_c, 9, 53, 79
1, 234240, Note_on_c, 9, 82, 79
1, 234479, Note_on_c, 9, 53, 0
1, 234479, Note_on_c, 9, 82, 0
1, 234480, Note_on_c, 9, 82, 38
1, 234719, Note_on_c, 9, 82, 0
1, 234720, Note_on_c, 9, 82, 79
1, 234959, Note_on_c, 9, 82, 0
1, 234960, Note_on_c, 9, 82, 38
1, 235199, Note_on_c, 9, 82, 0
1, 235200, Note_on_c, 9, 53, 79
1, 235200, Note_on_c, 9, 82, 79
1, 235439, Note_on_c, 9, 53, 0
1, 235439, Note_on_c, 9, 82, 0
1, 235440, Note_on_c, 9, 82, 38
1, 235679, Note_on_c, 9, 82, 0
1, 235680, Note_on_c, 9, 82, 79
1, 235919, Note_on_c, 9, 82, 0
1, 235920, Note_on_c, 9, 82, 38
1, 236159, Note_on_c, 9, 82, 0
1, 236160, Note_on_c, 9, 53, 79
1, 236160, Note_on_c, 9, 82, 79
1, 236399, Note_on_c, 9, 53, 0
1, 236399, Note_on_c, 9, 82, 0
1, 236400, Note_on_c, 9, 82, 38
1, 236639, Note_on_c, 9, 82, 0
1, 236640, Note_on_c, 9, 82, 79
1, 236879, Note_on_c, 9, 82, 0
1, 236880, Note_on_c, 9, 82, 38
1, 237119, Note_on_c, 9, 82, 0
1, 237120, Note_on_c, 9, 53, 79
1, 237120, Note_on_c, 9, 82, 79
1, 237359, Note_on_c, 9, 53, 0
1, 237359, Note_on_c, 9, 82, 0
1, 237360, Note_on_c, 9, 82, 38
1, 237599, Note_on_c, 9, 82, 0
1, 237600, Note_on_c, 9, 82, 79
1, 237839, Note_on_c, 9, 82, 0
1, 237840, Note_on_c, 9, 82, 38
1, 238079, Note_on_c, 9, 82, 0
1, 238080, Note_on_c, 9, 53, 79
1, 238080, Note_on_c, 9, 82, 79
1, 238319, Note_on_c, 9, 53, 0
1, 238319, Note_on_c, 9, 82, 0
1, 238320, Note_on_c, 9, 82, 38
1, 238559, Note_on_c, 9, 82, 0
1, 238560, Note_on_c, 9, 82, 79
1, 238799, Note_on_c, 9, 82, 0
1, 238800, Note_on_c, 9, 82, 38
1, 239039, Note_on_c, 9, 82, 0
1, 239040, Note_on_c, 9, 53, 79
1, 239040, Note_on_c, 9, 82, 79
1, 239279, Note_on_c, 9, 53, 0
1, 239279, Note_on_c, 9, 82, 0
1, 239280, Note_on_c, 9, 82, 38
1, 239519, Note_on_c, 9, 82, 0
1, 239520, Note_on_c, 9, 82, 79
1, 239759, Note_on_c, 9, 82, 0
1, 239760, Note_on_c, 9, 82, 38
1, 239999, Note_on_c, 9, 82, 0
1, 240000, Note_on_c, 9, 53, 79
1, 240000, Note_on_c, 9, 82, 79
1, 240000, Note_on_c, 9, 49, 79
1, 240014, Note_on_c, 9, 49, 0
1, 240239, Note_on_c, 9, 53, 0
1, 240239, Note_on_c, 9, 82, 0
1, 240240, Note_on_c, 9, 82, 38
1, 240479, Note_on_c, 9, 82, 0
1, 240480, Note_on_c, 9, 82, 79
1, 240719, Note_on_c, 9, 82, 0
1, 240720, Note_on_c, 9, 82, 38
1, 240959, Note_on_c, 9, 82, 0
1, 240960, Note_on_c, 9, 53, 79
1, 240960, Note_on_c, 9, 82, 79
1, 241199, Note_on_c, 9, 53, 0
1, 241199, Note_on_c, 9, 82, 0
1, 241200, Note_on_c, 9, 82, 38
1, 241439, Note_on_c, 9, 82, 0
1, 241440, Note_on_c, 9, 82, 79
1, 241679, Note_on_c, 9, 82, 0
1, 241680, Note_on_c, 9, 82, 38
1, 241919, Note_on_c, 9, 82, 0
1, 241920, Note_on_c, 9, 53, 79
1, 241920, Note_on_c, 9, 82, 79
1, 242159, Note_on_c, 9, 53, 0
1, 242159, Note_on_c, 9, 82, 0
1, 242160, Note_on_c, 9, 82, 38
1, 242399, Note_on_c, 9, 82, 0
1, 242400, Note_on_c, 9, 82, 79
1, 242639, Note_on_c, 9, 82, 0
1, 242640, Note_on_c, 9, 82, 38
1, 242879, Note_on_c, 9, 82, 0
1, 242880, Note_on_c, 9, 53, 79
1, 242880, Note_on_c, 9, 82, 79
1, 243119, Note_on_c, 9, 53, 0
1, 243119, Note_on_c, 9, 82, 0
1, 243120, Note_on_c, 9, 82, 38
1, 243359, Note_on_c, 9, 82, 0
1, 243360, Note_on_c, 9, 82, 79
1, 243599, Note_on_c, 9, 82, 0
1, 243600, Note_on_c, 9, 82, 38
1, 243839, Note_on_c, 9, 82, 0
1, 243840, Note_on_c, 9, 53, 79
1, 243840, Note_on_c, 9, 82, 79
1, 244079, Note_on_c, 9, 53, 0
1, 244079, Note_on_c, 9, 82, 0
1, 244080, Note_on_c, 9, 82, 38
1, 244319, Note_on_c, 9, 82, 0
1, 244320, Note_on_c, 9, 82, 79
1, 244559, Note_on_c, 9, 82, 0
1, 244560, Note_on_c, 9, 82, 38
1, 244799, Note_on_c, 9, 82, 0
1, 244800, Note_on_c, 9, 53, 79
1, 244800, Note_on_c, 9, 82, 79
1, 245039, Note_on_c, 9, 53, 0
1, 245039, Note_on_c, 9, 82, 0
1, 245040, Note_on_c, 9, 82, 38
1, 245279, Note_on_c, 9, 82, 0
1, 245280, Note_on_c, 9, 82, 79
1, 245519, Note_on_c, 9, 82, 0
1, 245520, Note_on_c, 9, 82, 38
1, 245759, Note_on_c, 9, 82, 0
1, 245760, Note_on_c, 9, 53, 79
1, 245760, Note_on_c, 9, 82, 79
1, 245999, Note_on_c, 9, 53, 0
1, 245999, Note_on_c, 9, 82, 0
1, 246000, Note_on_c, 9, 82, 38
1, 246239, Note_on_c, 9, 82, 0
1, 246240, Note_on_c, 9, 82, 79
1, 246479, Note_on_c, 9, 82, 0
1, 246480, Note_on_c, 9, 82, 38
1, 246719, Note_on_c, 9, 82, 0
1, 246720, Note_on_c, 9, 53, 79
1, 246720, Note_on_c, 9, 82, 79
1, 246959, Note_on_c, 9, 53, 0
1, 246959, Note_on_c, 9, 82, 0
1, 246960, Note_on_c, 9, 82, 38
1, 247199, Note_on_c, 9, 82, 0
1, 247200, Note_on_c, 9, 41, 79
1, 247200, Note_on_c, 9, 82, 79
1, 247200, Note_on_c, 9, 36, 79
1, 247439, Note_on_c, 9, 41, 0
1, 247439, Note_on_c, 9, 82, 0
1, 247440, Note_on_c, 9, 82, 38
1, 247679, Note_on_c, 9, 36, 0
1, 247679, Note_on_c, 9, 82, 0
1, 247680, Note_on_c, 9, 49, 79
1, 247680, Note_on_c, 9, 57, 79
1, 247680, Note_on_c, 9, 36, 79
1, 247709, Note_on_c, 9, 49, 0
1, 247709, Note_on_c, 9, 57, 0
1, 248159, Note_on_c, 9, 36, 0
1, 248160, Note_on_c, 9, 40, 79
1, 248160, Note_on_c, 9, 53, 79
1, 248400, Note_on_c, 9, 36, 79
1, 248639, Note_on_c, 9, 40, 0
1, 248639, Note_on_c, 9, 53, 0
1, 248639, Note_on_c, 9, 36, 0
1, 248640, Note_on_c, 9, 53, 79
1, 248880, Note_on_c, 9, 36, 79
1, 249119, Note_on_c, 9, 53, 0
1, 249119, Note_on_c, 9, 36, 0
1, 249120, Note_on_c, 9, 40, 79
1, 249120, Note_on_c, 9, 53, 79
1, 249599, Note_on_c, 9, 40, 0
1, 249599, Note_on_c, 9, 53, 0
1, 249600, Note_on_c, 9, 53, 79
1, 249600, Note_on_c, 9, 36, 79
1, 250079, Note_on_c, 9, 53, 0
1, 250079, Note_on_c, 9, 36, 0
1, 250080, Note_on_c, 9, 40, 79
1, 250080, Note_on_c, 9, 53, 79
1, 250320, Note_on_c, 9, 36, 79
1, 250559, Note_on_c, 9, 40, 0
1, 250559, Note_on_c, 9, 53, 0
1, 250559, Note_on_c, 9, 36, 0
1, 250560, Note_on_c, 9, 53, 79
1, 250800, Note_on_c, 9, 36, 79
1, 251039, Note_on_c, 9, 53, 0
1, 251039, Note_on_c, 9, 36, 0
1, 251040, Note_on_c, 9, 40, 79
1, 251040, Note_on_c, 9, 53, 79
1, 251519, Note_on_c, 9, 40, 0
1, 251519, Note_on_c, 9, 53, 0
1, 251520, Note_on_c, 9, 53, 79
1, 251520, Note_on_c, 9, 36, 79
1, 251999, Note_on_c, 9, 53, 0
1, 251999, Note_on_c, 9, 36, 0
1, 252000, Note_on_c, 9, 40, 79
1, 252000, Note_on_c, 9, 53, 79
1, 252240, Note_on_c, 9, 36, 79
1, 252479, Note_on_c, 9, 40, 0
1, 252479, Note_on_c, 9, 53, 0
1, 252479, Note_on_c, 9, 36, 0
1, 252480, Note_on_c, 9, 53, 79
1, 252720, Note_on_c, 9, 36, 79
1, 252959, Note_on_c, 9, 53, 0
1, 252959, Note_on_c, 9, 36, 0
1, 252960, Note_on_c, 9, 40, 79
1, 252960, Note_on_c, 9, 53, 79
1, 253439, Note_on_c, 9, 40, 0
1, 253439, Note_on_c, 9, 53, 0
1, 253440, Note_on_c, 9, 53, 79
1, 253440, Note_on_c, 9, 36, 79
1, 253679, Note_on_c, 9, 36, 0
1, 253680, Note_on_c, 9, 36, 79
1, 253919, Note_on_c, 9, 53, 0
1, 253919, Note_on_c, 9, 36, 0
1, 253920, Note_on_c, 9, 40, 79
1, 253920, Note_on_c, 9, 53, 79
1, 254399, Note_on_c, 9, 40, 0
1, 254399, Note_on_c, 9, 53, 0
1, 254400, Note_on_c, 9, 53, 79
1, 254400, Note_on_c, 9, 36, 79
1, 254639, Note_on_c, 9, 36, 0
1, 254640, Note_on_c, 9, 36, 79
1, 254879, Note_on_c, 9, 53, 0
1, 254879, Note_on_c, 9, 36, 0
1, 254880, Note_on_c, 9, 40, 79
1, 254880, Note_on_c, 9, 53, 79
1, 255359, Note_on_c, 9, 40, 0
1, 255359, Note_on_c, 9, 53, 0
1, 255360, Note_on_c, 9, 49, 79
1, 255360, Note_on_c, 9, 57, 79
1, 255360, Note_on_c, 9, 36, 79
1, 255389, Note_on_c, 9, 49, 0
1, 255389, Note_on_c, 9, 57, 0
1, 255839, Note_on_c, 9, 36, 0
1, 255840, Note_on_c, 9, 40, 79
1, 255840, Note_on_c, 9, 53, 79
1, 256080, Note_on_c, 9, 36, 79
1, 256319, Note_on_c, 9, 40, 0
1, 256319, Note_on_c, 9, 53, 0
1, 256319, Note_on_c, 9, 36, 0
1, 256320, Note_on_c, 9, 53, 79
1, 256560, Note_on_c, 9, 36, 79
1, 256799, Note_on_c, 9, 53, 0
1, 256799, Note_on_c, 9, 36, 0
1, 256800, Note_on_c, 9, 40, 79
1, 256800, Note_on_c, 9, 53, 79
1, 257279, Note_on_c, 9, 40, 0
1, 257279, Note_on_c, 9, 53, 0
1, 257280, Note_on_c, 9, 53, 79
1, 257280, Note_on_c, 9, 36, 79
1, 257759, Note_on_c, 9, 53, 0
1, 257759, Note_on_c, 9, 36, 0
1, 257760, Note_on_c, 9, 40, 79
1, 257760, Note_on_c, 9, 53, 79
1, 258000, Note_on_c, 9, 36, 79
1, 258239, Note_on_c, 9, 40, 0
1, 258239, Note_on_c, 9, 53, 0
1, 258239, Note_on_c, 9, 36, 0
1, 258240, Note_on_c, 9, 53, 79
1, 258480, Note_on_c, 9, 36, 79
1, 258719, Note_on_c, 9, 53, 0
1, 258719, Note_on_c, 9, 36, 0
1, 258720, Note_on_c, 9, 40, 79
1, 258720, Note_on_c, 9, 53, 79
1, 259199, Note_on_c, 9, 40, 0
1, 259199, Note_on_c, 9, 53, 0
1, 259200, Note_on_c, 9, 53, 79
1, 259200, Note_on_c, 9, 36, 79
1, 259679, Note_on_c, 9, 53, 0
1, 259679, Note_on_c, 9, 36, 0
1, 259680, Note_on_c, 9, 40, 79
1, 259680, Note_on_c, 9, 53, 79
1, 259920, Note_on_c, 9, 36, 79
1, 260159, Note_on_c, 9, 40, 0
1, 260159, Note_on_c, 9, 53, 0
1, 260159, Note_on_c, 9, 36, 0
1, 260160, Note_on_c, 9, 53, 79
1, 260400, Note_on_c, 9, 36, 79
1, 260639, Note_on_c, 9, 53, 0
1, 260639, Note_on_c, 9, 36, 0
1, 260640, Note_on_c, 9, 40, 79
1, 260640, Note_on_c, 9, 53, 79
1, 261119, Note_on_c, 9, 40, 0
1, 261119, Note_on_c, 9, 53, 0
1, 261120, Note_on_c, 9, 53, 79
1, 261120, Note_on_c, 9, 36, 79
1, 261359, Note_on_c, 9, 36, 0
1, 261360, Note_on_c, 9, 36, 79
1, 261599, Note_on_c, 9, 53, 0
1, 261599, Note_on_c, 9, 36, 0
1, 261600, Note_on_c, 9, 40, 79
1, 261600, Note_on_c, 9, 53, 79
1, 262079, Note_on_c, 9, 40, 0
1, 262079, Note_on_c, 9, 53, 0
1, 262080, Note_on_c, 9, 53, 79
1, 262080, Note_on_c, 9, 36, 79
1, 262319, Note_on_c, 9, 36, 0
1, 262320, Note_on_c, 9, 36, 79
1, 262559, Note_on_c, 9, 53, 0
1, 262559, Note_on_c, 9, 36, 0
1, 262560, Note_on_c, 9, 40, 79
1, 262560, Note_on_c, 9, 53, 79
1, 263039, Note_on_c, 9, 40, 0
1, 263039, Note_on_c, 9, 53, 0
1, 263040, Note_on_c, 9, 49, 79
1, 263040, Note_on_c, 9, 57, 79
1, 263040, Note_on_c, 9, 36, 79
1, 263069, Note_on_c, 9, 49, 0
1, 263069, Note_on_c, 9, 57, 0
1, 263519, Note_on_c, 9, 36, 0
1, 263520, Note_on_c, 9, 40, 79
1, 263520, Note_on_c, 9, 53, 79
1, 263760, Note_on_c, 9, 36, 79
1, 263999, Note_on_c, 9, 40, 0
1, 263999, Note_on_c, 9, 53, 0
1, 263999, Note_on_c, 9, 36, 0
1, 264000, Note_on_c, 9, 53, 79
1, 264240, Note_on_c, 9, 36, 79
1, 264479, Note_on_c, 9, 53, 0
1, 264479, Note_on_c, 9, 36, 0
1, 264480, Note_on_c, 9, 40, 79
1, 264480, Note_on_c, 9, 53, 79
1, 264959, Note_on_c, 9, 40, 0
1, 264959, Note_on_c, 9, 53, 0
1, 264960, Note_on_c, 9, 53, 79
1, 264960, Note_on_c, 9, 36, 79
1, 265439, Note_on_c, 9, 53, 0
1, 265439, Note_on_c, 9, 36, 0
1, 265440, Note_on_c, 9, 40, 79
1, 265440, Note_on_c, 9, 53, 79
1, 265680, Note_on_c, 9, 36, 79
1, 265919, Note_on_c, 9, 40, 0
1, 265919, Note_on_c, 9, 53, 0
1, 265919, Note_on_c, 9, 36, 0
1, 265920, Note_on_c, 9, 53, 79
1, 266160, Note_on_c, 9, 36, 79
1, 266399, Note_on_c, 9, 53, 0
1, 266399, Note_on_c, 9, 36, 0
1, 266400, Note_on_c, 9, 40, 79
1, 266400, Note_on_c, 9, 53, 79
1, 266879, Note_on_c, 9, 40, 0
1, 266879, Note_on_c, 9, 53, 0
1, 266880, Note_on_c, 9, 53, 79
1, 266880, Note_on_c, 9, 36, 79
1, 267359, Note_on_c, 9, 53, 0
1, 267359, Note_on_c, 9, 36, 0
1, 267360, Note_on_c, 9, 40, 79
1, 267360, Note_on_c, 9, 53, 79
1, 267600, Note_on_c, 9, 36, 79
1, 267839, Note_on_c, 9, 40, 0
1, 267839, Note_on_c, 9, 53, 0
1, 267839, Note_on_c, 9, 36, 0
1, 267840, Note_on_c, 9, 53, 79
1, 268080, Note_on_c, 9, 36, 79
1, 268319, Note_on_c, 9, 53, 0
1, 268319, Note_on_c, 9, 36, 0
1, 268320, Note_on_c, 9, 40, 79
1, 268320, Note_on_c, 9, 53, 79
1, 268799, Note_on_c, 9, 40, 0
1, 268799, Note_on_c, 9, 53, 0
1, 268800, Note_on_c, 9, 53, 79
1, 268800, Note_on_c, 9, 36, 79
1, 269279, Note_on_c, 9, 53, 0
1, 269279, Note_on_c, 9, 36, 0
1, 269280, Note_on_c, 9, 40, 79
1, 269280, Note_on_c, 9, 53, 79
1, 269520, Note_on_c, 9, 36, 79
1, 269759, Note_on_c, 9, 40, 0
1, 269759, Note_on_c, 9, 53, 0
1, 269759, Note_on_c, 9, 36, 0
1, 269760, Note_on_c, 9, 53, 79
1, 270000, Note_on_c, 9, 36, 79
1, 270239, Note_on_c, 9, 53, 0
1, 270239, Note_on_c, 9, 36, 0
1, 270240, Note_on_c, 9, 40, 79
1, 270240, Note_on_c, 9, 53, 79
1, 270719, Note_on_c, 9, 40, 0
1, 270719, Note_on_c, 9, 53, 0
1, 270720, Note_on_c, 9, 53, 79
1, 270720, Note_on_c, 9, 36, 79
1, 271199, Note_on_c, 9, 53, 0
1, 271199, Note_on_c, 9, 36, 0
1, 271200, Note_on_c, 9, 40, 79
1, 271200, Note_on_c, 9, 53, 79
1, 271440, Note_on_c, 9, 36, 79
1, 271679, Note_on_c, 9, 40, 0
1, 271679, Note_on_c, 9, 53, 0
1, 271679, Note_on_c, 9, 36, 0
1, 271680, Note_on_c, 9, 53, 79
1, 271920, Note_on_c, 9, 36, 79
1, 272159, Note_on_c, 9, 53, 0
1, 272159, Note_on_c, 9, 36, 0
1, 272160, Note_on_c, 9, 40, 79
1, 272160, Note_on_c, 9, 53, 79
1, 272639, Note_on_c, 9, 40, 0
1, 272639, Note_on_c, 9, 53, 0
1, 272640, Note_on_c, 9, 53, 79
1, 272640, Note_on_c, 9, 36, 79
1, 273119, Note_on_c, 9, 53, 0
1, 273119, Note_on_c, 9, 36, 0
1, 273120, Note_on_c, 9, 40, 79
1, 273120, Note_on_c, 9, 53, 79
1, 273360, Note_on_c, 9, 36, 79
1, 273599, Note_on_c, 9, 40, 0
1, 273599, Note_on_c, 9, 53, 0
1, 273599, Note_on_c, 9, 36, 0
1, 273600, Note_on_c, 9, 53, 79
1, 273840, Note_on_c, 9, 36, 79
1, 274079, Note_on_c, 9, 53, 0
1, 274079, Note_on_c, 9, 36, 0
1, 274080, Note_on_c, 9, 40, 79
1, 274080, Note_on_c, 9, 53, 79
1, 274559, Note_on_c, 9, 40, 0
1, 274559, Note_on_c, 9, 53, 0
1, 274560, Note_on_c, 9, 53, 79
1, 274560, Note_on_c, 9, 36, 79
1, 275039, Note_on_c, 9, 53, 0
1, 275039, Note_on_c, 9, 36, 0
1, 275040, Note_on_c, 9, 40, 79
1, 275040, Note_on_c, 9, 53, 79
1, 275280, Note_on_c, 9, 36, 79
1, 275519, Note_on_c, 9, 40, 0
1, 275519, Note_on_c, 9, 53, 0
1, 275519, Note_on_c, 9, 36, 0
1, 275520, Note_on_c, 9, 53, 79
1, 275760, Note_on_c, 9, 36, 79
1, 275999, Note_on_c, 9, 53, 0
1, 275999, Note_on_c, 9, 36, 0
1, 276000, Note_on_c, 9, 40, 79
1, 276000, Note_on_c, 9, 53, 79
1, 276479, Note_on_c, 9, 40, 0
1, 276479, Note_on_c, 9, 53, 0
1, 276480, Note_on_c, 9, 53, 79
1, 276480, Note_on_c, 9, 36, 79
1, 276719, Note_on_c, 9, 36, 0
1, 276720, Note_on_c, 9, 36, 79
1, 276959, Note_on_c, 9, 53, 0
1, 276959, Note_on_c, 9, 36, 0
1, 276960, Note_on_c, 9, 40, 79
1, 276960, Note_on_c, 9, 53, 79
1, 277439, Note_on_c, 9, 40, 0
1, 277439, Note_on_c, 9, 53, 0
1, 277440, Note_on_c, 9, 53, 79
1, 277440, Note_on_c, 9, 36, 79
1, 277679, Note_on_c, 9, 36, 0
1, 277680, Note_on_c, 9, 36, 79
1, 277919, Note_on_c, 9, 53, 0
1, 277919, Note_on_c, 9, 36, 0
1, 277920, Note_on_c, 9, 40, 79
1, 277920, Note_on_c, 9, 53, 79
1, 278399, Note_on_c, 9, 40, 0
1, 278399, Note_on_c, 9, 53, 0
1, 278400, Note_on_c, 9, 49, 79
1, 278400, Note_on_c, 9, 57, 79
1, 278400, Note_on_c, 9, 36, 79
1, 278429, Note_on_c, 9, 49, 0
1, 278429, Note_on_c, 9, 57, 0
1, 278879, Note_on_c, 9, 36, 0
1, 278880, Note_on_c, 9, 40, 79
1, 278880, Note_on_c, 9, 53, 79
1, 279120, Note_on_c, 9, 36, 79
1, 279359, Note_on_c, 9, 40, 0
1, 279359, Note_on_c, 9, 53, 0
1, 279359, Note_on_c, 9, 36, 0
1, 279360, Note_on_c, 9, 53, 79
1, 279600, Note_on_c, 9, 36, 79
1, 279839, Note_on_c, 9, 53, 0
1, 279839, Note_on_c, 9, 36, 0
1, 279840, Note_on_c, 9, 40, 79
1, 279840, Note_on_c, 9, 53, 79
1, 280319, Note_on_c, 9, 40, 0
1, 280319, Note_on_c, 9, 53, 0
1, 280320, Note_on_c, 9, 53, 79
1, 280320, Note_on_c, 9, 36, 79
1, 280799, Note_on_c, 9, 53, 0
1, 280799, Note_on_c, 9, 36, 0
1, 280800, Note_on_c, 9, 40, 79
1, 280800, Note_on_c, 9, 53, 79
1, 281040, Note_on_c, 9, 36, 79
1, 281279, Note_on_c, 9, 40, 0
1, 281279, Note_on_c, 9, 53, 0
1, 281279, Note_on_c, 9, 36, 0
1, 281280, Note_on_c, 9, 53, 79
1, 281520, Note_on_c, 9, 36, 79
1, 281759, Note_on_c, 9, 53, 0
1, 281759, Note_on_c, 9, 36, 0
1, 281760, Note_on_c, 9, 40, 79
1, 281760, Note_on_c, 9, 53, 79
1, 282239, Note_on_c, 9, 40, 0
1, 282239, Note_on_c, 9, 53, 0
1, 282240, Note_on_c, 9, 53, 79
1, 282240, Note_on_c, 9, 36, 79
1, 282719, Note_on_c, 9, 53, 0
1, 282719, Note_on_c, 9, 36, 0
1, 282720, Note_on_c, 9, 40, 79
1, 282720, Note_on_c, 9, 53, 79
1, 282960, Note_on_c, 9, 36, 79
1, 283199, Note_on_c, 9, 40, 0
1, 283199, Note_on_c, 9, 53, 0
1, 283199, Note_on_c, 9, 36, 0
1, 283200, Note_on_c, 9, 53, 79
1, 283440, Note_on_c, 9, 36, 79
1, 283679, Note_on_c, 9, 53, 0
1, 283679, Note_on_c, 9, 36, 0
1, 283680, Note_on_c, 9, 40, 79
1, 283680, Note_on_c, 9, 53, 79
1, 284159, Note_on_c, 9, 40, 0
1, 284159, Note_on_c, 9, 53, 0
1, 284160, Note_on_c, 9, 53, 79
1, 284160, Note_on_c, 9, 36, 79
1, 284399, Note_on_c, 9, 36, 0
1, 284400, Note_on_c, 9, 36, 79
1, 284639, Note_on_c, 9, 53, 0
1, 284639, Note_on_c, 9, 36, 0
1, 284640, Note_on_c, 9, 40, 79
1, 284640, Note_on_c, 9, 53, 79
1, 284880, Note_on_c, 9, 36, 79
1, 285119, Note_on_c, 9, 40, 0
1, 285119, Note_on_c, 9, 53, 0
1, 285119, Note_on_c, 9, 36, 0
1, 285120, Note_on_c, 9, 53, 79
1, 285360, Note_on_c, 9, 36, 79
1, 285599, Note_on_c, 9, 53, 0
1, 285599, Note_on_c, 9, 36, 0
1, 285600, Note_on_c, 9, 40, 79
1, 285600, Note_on_c, 9, 53, 79
1, 286079, Note_on_c, 9, 40, 0
1, 286079, Note_on_c, 9, 53, 0
1, 286080, Note_on_c, 9, 49, 79
1, 286080, Note_on_c, 9, 57, 79
1, 286080, Note_on_c, 9, 36, 79
1, 286109, Note_on_c, 9, 49, 0
1, 286109, Note_on_c, 9, 57, 0
1, 286559, Note_on_c, 9, 36, 0
1, 286560, Note_on_c, 9, 40, 79
1, 286560, Note_on_c, 9, 53, 79
1, 286800, Note_on_c, 9, 36, 79
1, 287039, Note_on_c, 9, 40, 0
1, 287039, Note_on_c, 9, 53, 0
1, 287039, Note_on_c, 9, 36, 0
1, 287040, Note_on_c, 9, 53, 79
1, 287280, Note_on_c, 9, 36, 79
1, 287519, Note_on_c, 9, 53, 0
1, 287519, Note_on_c, 9, 36, 0
1, 287520, Note_on_c, 9, 40, 79
1, 287520, Note_on_c, 9, 53, 79
1, 287999, Note_on_c, 9, 40, 0
1, 287999, Note_on_c, 9, 53, 0
1, 288000, Note_on_c, 9, 53, 79
1, 288000, Note_on_c, 9, 36, 79
1, 288479, Note_on_c, 9, 53, 0
1, 288479, Note_on_c, 9, 36, 0
1, 288480, Note_on_c, 9, 40, 79
1, 288480, Note_on_c, 9, 53, 79
1, 288720, Note_on_c, 9, 36, 79
1, 288959, Note_on_c, 9, 40, 0
1, 288959, Note_on_c, 9, 53, 0
1, 288959, Note_on_c, 9, 36, 0
1, 288960, Note_on_c, 9, 53, 79
1, 289200, Note_on_c, 9, 36, 79
1, 289439, Note_on_c, 9, 53, 0
1, 289439, Note_on_c, 9, 36, 0
1, 289440, Note_on_c, 9, 40, 79
1, 289440, Note_on_c, 9, 53, 79
1, 289919, Note_on_c, 9, 40, 0
1, 289919, Note_on_c, 9, 53, 0
1, 289920, Note_on_c, 9, 53, 79
1, 289920, Note_on_c, 9, 36, 79
1, 290159, Note_on_c, 9, 36, 0
1, 290160, Note_on_c, 9, 36, 79
1, 290399, Note_on_c, 9, 53, 0
1, 290399, Note_on_c, 9, 36, 0
1, 290400, Note_on_c, 9, 40, 79
1, 290400, Note_on_c, 9, 53, 79
1, 290640, Note_on_c, 9, 36, 79
1, 290879, Note_on_c, 9, 40, 0
1, 290879, Note_on_c, 9, 53, 0
1, 290879, Note_on_c, 9, 36, 0
1, 290880, Note_on_c, 9, 53, 79
1, 291120, Note_on_c, 9, 36, 79
1, 291359, Note_on_c, 9, 53, 0
1, 291359, Note_on_c, 9, 36, 0
1, 291360, Note_on_c, 9, 40, 79
1, 291360, Note_on_c, 9, 53, 79
1, 291839, Note_on_c, 9, 40, 0
1, 291839, Note_on_c, 9, 53, 0
1, 291840, Note_on_c, 9, 53, 79
1, 291840, Note_on_c, 9, 36, 79
1, 292319, Note_on_c, 9, 53, 0
1, 292319, Note_on_c, 9, 36, 0
1, 292320, Note_on_c, 9, 40, 79
1, 292320, Note_on_c, 9, 53, 79
1, 292560, Note_on_c, 9, 36, 79
1, 292799, Note_on_c, 9, 40, 0
1, 292799, Note_on_c, 9, 53, 0
1, 292799, Note_on_c, 9, 36, 0
1, 292800, Note_on_c, 9, 53, 79
1, 293040, Note_on_c, 9, 36, 79
1, 293279, Note_on_c, 9, 53, 0
1, 293279, Note_on_c, 9, 36, 0
1, 293280, Note_on_c, 9, 40, 79
1, 293280, Note_on_c, 9, 53, 79
1, 293759, Note_on_c, 9, 40, 0
1, 293759, Note_on_c, 9, 53, 0
1, 293760, Note_on_c, 9, 49, 79
1, 293760, Note_on_c, 9, 57, 79
1, 293760, Note_on_c, 9, 36, 79
1, 293789, Note_on_c, 9, 49, 0
1, 293789, Note_on_c, 9, 57, 0
1, 294239, Note_on_c, 9, 36, 0
1, 294240, Note_on_c, 9, 40, 79
1, 294240, Note_on_c, 9, 53, 79
1, 294480, Note_on_c, 9, 36, 79
1, 294719, Note_on_c, 9, 40, 0
1, 294719, Note_on_c, 9, 53, 0
1, 294719, Note_on_c, 9, 36, 0
1, 294720, Note_on_c, 9, 53, 79
1, 294960, Note_on_c, 9, 36, 79
1, 295199, Note_on_c, 9, 53, 0
1, 295199, Note_on_c, 9, 36, 0
1, 295200, Note_on_c, 9, 40, 79
1, 295200, Note_on_c, 9, 53, 79
1, 295679, Note_on_c, 9, 40, 0
1, 295679, Note_on_c, 9, 53, 0
1, 295680, Note_on_c, 9, 53, 79
1, 295680, Note_on_c, 9, 36, 79
1, 296159, Note_on_c, 9, 53, 0
1, 296159, Note_on_c, 9, 36, 0
1, 296160, Note_on_c, 9, 40, 79
1, 296160, Note_on_c, 9, 53, 79
1, 296400, Note_on_c, 9, 36, 79
1, 296639, Note_on_c, 9, 40, 0
1, 296639, Note_on_c, 9, 53, 0
1, 296639, Note_on_c, 9, 36, 0
1, 296640, Note_on_c, 9, 53, 79
1, 296880, Note_on_c, 9, 36, 79
1, 297119, Note_on_c, 9, 53, 0
1, 297119, Note_on_c, 9, 36, 0
1, 297120, Note_on_c, 9, 40, 79
1, 297120, Note_on_c, 9, 53, 79
1, 297599, Note_on_c, 9, 40, 0
1, 297599, Note_on_c, 9, 53, 0
1, 297600, Note_on_c, 9, 53, 79
1, 297600, Note_on_c, 9, 36, 79
1, 298079, Note_on_c, 9, 53, 0
1, 298079, Note_on_c, 9, 36, 0
1, 298080, Note_on_c, 9, 40, 79
1, 298080, Note_on_c, 9, 53, 79
1, 298320, Note_on_c, 9, 36, 79
1, 298559, Note_on_c, 9, 40, 0
1, 298559, Note_on_c, 9, 53, 0
1, 298559, Note_on_c, 9, 36, 0
1, 298560, Note_on_c, 9, 53, 79
1, 298800, Note_on_c, 9, 36, 79
1, 299039, Note_on_c, 9, 53, 0
1, 299039, Note_on_c, 9, 36, 0
1, 299040, Note_on_c, 9, 40, 79
1, 299040, Note_on_c, 9, 53, 79
1, 299519, Note_on_c, 9, 40, 0
1, 299519, Note_on_c, 9, 53, 0
1, 299520, Note_on_c, 9, 53, 79
1, 299520, Note_on_c, 9, 36, 79
1, 299759, Note_on_c, 9, 36, 0
1, 299760, Note_on_c, 9, 36, 79
1, 299999, Note_on_c, 9, 53, 0
1, 299999, Note_on_c, 9, 36, 0
1, 300000, Note_on_c, 9, 40, 79
1, 300000, Note_on_c, 9, 53, 79
1, 300479, Note_on_c, 9, 40, 0
1, 300479, Note_on_c, 9, 53, 0
1, 300480, Note_on_c, 9, 53, 79
1, 300480, Note_on_c, 9, 36, 79
1, 300719, Note_on_c, 9, 36, 0
1, 300720, Note_on_c, 9, 36, 79
1, 300959, Note_on_c, 9, 53, 0
1, 300959, Note_on_c, 9, 36, 0
1, 300960, Note_on_c, 9, 40, 79
1, 300960, Note_on_c, 9, 53, 79
1, 301199, Note_on_c, 9, 40, 0
1, 301199, Note_on_c, 9, 53, 0
1, 301200, Note_on_c, 9, 57, 79
1, 301214, Note_on_c, 9, 57, 0
1, 301440, Note_on_c, 9, 49, 79
1, 301440, Note_on_c, 9, 57, 79
1, 301440, Note_on_c, 9, 36, 79
1, 301469, Note_on_c, 9, 49, 0
1, 301469, Note_on_c, 9, 57, 0
1, 301919, Note_on_c, 9, 36, 0
1, 301920, Note_on_c, 9, 40, 79
1, 301920, Note_on_c, 9, 53, 79
1, 302160, Note_on_c, 9, 36, 79
1, 302399, Note_on_c, 9, 40, 0
1, 302399, Note_on_c, 9, 53, 0
1, 302399, Note_on_c, 9, 36, 0
1, 302400, Note_on_c, 9, 53, 79
1, 302640, Note_on_c, 9, 36, 79
1, 302879, Note_on_c, 9, 53, 0
1, 302879, Note_on_c, 9, 36, 0
1, 302880, Note_on_c, 9, 40, 79
1, 302880, Note_on_c, 9, 53, 79
1, 303359, Note_on_c, 9, 40, 0
1, 303359, Note_on_c, 9, 53, 0
1, 303360, Note_on_c, 9, 53, 79
1, 303360, Note_on_c, 9, 36, 79
1, 303839, Note_on_c, 9, 53, 0
1, 303839, Note_on_c, 9, 36, 0
1, 303840, Note_on_c, 9, 40, 79
1, 303840, Note_on_c, 9, 53, 79
1, 304080, Note_on_c, 9, 36, 79
1, 304319, Note_on_c, 9, 40, 0
1, 304319, Note_on_c, 9, 53, 0
1, 304319, Note_on_c, 9, 36, 0
1, 304320, Note_on_c, 9, 53, 79
1, 304560, Note_on_c, 9, 36, 79
1, 304799, Note_on_c, 9, 53, 0
1, 304799, Note_on_c, 9, 36, 0
1, 304800, Note_on_c, 9, 40, 79
1, 304800, Note_on_c, 9, 53, 79
1, 305279, Note_on_c, 9, 40, 0
1, 305279, Note_on_c, 9, 53, 0
1, 305280, Note_on_c, 9, 53, 79
1, 305280, Note_on_c, 9, 36, 79
1, 305759, Note_on_c, 9, 53, 0
1, 305759, Note_on_c, 9, 36, 0
1, 305760, Note_on_c, 9, 40, 79
1, 305760, Note_on_c, 9, 53, 79
1, 306000, Note_on_c, 9, 36, 79
1, 306239, Note_on_c, 9, 40, 0
1, 306239, Note_on_c, 9, 53, 0
1, 306239, Note_on_c, 9, 36, 0
1, 306240, Note_on_c, 9, 53, 79
1, 306480, Note_on_c, 9, 36, 79
1, 306719, Note_on_c, 9, 53, 0
1, 306719, Note_on_c, 9, 36, 0
1, 306720, Note_on_c, 9, 40, 79
1, 306720, Note_on_c, 9, 53, 79
1, 307199, Note_on_c, 9, 40, 0
1, 307199, Note_on_c, 9, 53, 0
1, 307200, Note_on_c, 9, 53, 79
1, 307200, Note_on_c, 9, 36, 79
1, 307439, Note_on_c, 9, 36, 0
1, 307440, Note_on_c, 9, 36, 79
1, 307559, Note_on_c, 9, 36, 0
1, 307560, Note_on_c, 9, 36, 79
1, 307679, Note_on_c, 9, 53, 0
1, 307679, Note_on_c, 9, 36, 0
1, 307680, Note_on_c, 9, 40, 79
1, 307680, Note_on_c, 9, 53, 79
1, 307920, Note_on_c, 9, 36, 79
1, 308159, Note_on_c, 9, 40, 0
1, 308159, Note_on_c, 9, 53, 0
1, 308159, Note_on_c, 9, 36, 0
1, 308160, Note_on_c, 9, 53, 79
1, 308400, Note_on_c, 9, 36, 79
1, 308639, Note_on_c, 9, 53, 0
1, 308639, Note_on_c, 9, 36, 0
1, 308640, Note_on_c, 9, 40, 79
1, 308640, Note_on_c, 9, 53, 79
1, 309119, Note_on_c, 9, 40, 0
1, 309119, Note_on_c, 9, 53, 0
1, 309120, Note_on_c, 9, 49, 79
1, 309120, Note_on_c, 9, 57, 79
1, 309120, Note_on_c, 9, 36, 79
1, 309149, Note_on_c, 9, 49, 0
1, 309149, Note_on_c, 9, 57, 0
1, 309599, Note_on_c, 9, 36, 0
1, 309600, Note_on_c, 9, 40, 79
1, 309600, Note_on_c, 9, 53, 79
1, 309840, Note_on_c, 9, 36, 79
1, 310079, Note_on_c, 9, 40, 0
1, 310079, Note_on_c, 9, 53, 0
1, 310079, Note_on_c, 9, 36, 0
1, 310080, Note_on_c, 9, 53, 79
1, 310320, Note_on_c, 9, 36, 79
1, 310559, Note_on_c, 9, 53, 0
1, 310559, Note_on_c, 9, 36, 0
1, 310560, Note_on_c, 9, 40, 79
1, 310560, Note_on_c, 9, 53, 79
1, 311039, Note_on_c, 9, 40, 0
1, 311039, Note_on_c, 9, 53, 0
1, 311040, Note_on_c, 9, 53, 79
1, 311040, Note_on_c, 9, 36, 79
1, 311519, Note_on_c, 9, 53, 0
1, 311519, Note_on_c, 9, 36, 0
1, 311520, Note_on_c, 9, 40, 79
1, 311520, Note_on_c, 9, 53, 79
1, 311760, Note_on_c, 9, 36, 79
1, 311999, Note_on_c, 9, 40, 0
1, 311999, Note_on_c, 9, 53, 0
1, 311999, Note_on_c, 9, 36, 0
1, 312000, Note_on_c, 9, 53, 79
1, 312240, Note_on_c, 9, 36, 79
1, 312479, Note_on_c, 9, 53, 0
1, 312479, Note_on_c, 9, 36, 0
1, 312480, Note_on_c, 9, 40, 79
1, 312480, Note_on_c, 9, 53, 79
1, 312959, Note_on_c, 9, 40, 0
1, 312959, Note_on_c, 9, 53, 0
1, 312960, Note_on_c, 9, 53, 79
1, 312960, Note_on_c, 9, 36, 79
1, 313439, Note_on_c, 9, 53, 0
1, 313439, Note_on_c, 9, 36, 0
1, 313440, Note_on_c, 9, 40, 79
1, 313440, Note_on_c, 9, 53, 79
1, 313680, Note_on_c, 9, 36, 79
1, 313919, Note_on_c, 9, 40, 0
1, 313919, Note_on_c, 9, 53, 0
1, 313919, Note_on_c, 9, 36, 0
1, 313920, Note_on_c, 9, 53, 79
1, 314160, Note_on_c, 9, 36, 79
1, 314399, Note_on_c, 9, 53, 0
1, 314399, Note_on_c, 9, 36, 0
1, 314400, Note_on_c, 9, 40, 79
1, 314400, Note_on_c, 9, 53, 79
1, 314879, Note_on_c, 9, 40, 0
1, 314879, Note_on_c, 9, 53, 0
1, 314880, Note_on_c, 9, 53, 79
1, 314880, Note_on_c, 9, 36, 79
1, 315359, Note_on_c, 9, 53, 0
1, 315359, Note_on_c, 9, 36, 0
1, 315360, Note_on_c, 9, 40, 79
1, 315360, Note_on_c, 9, 53, 79
1, 315600, Note_on_c, 9, 36, 79
1, 315839, Note_on_c, 9, 40, 0
1, 315839, Note_on_c, 9, 53, 0
1, 315839, Note_on_c, 9, 36, 0
1, 315840, Note_on_c, 9, 53, 79
1, 316080, Note_on_c, 9, 36, 79
1, 316319, Note_on_c, 9, 53, 0
1, 316319, Note_on_c, 9, 36, 0
1, 316320, Note_on_c, 9, 40, 79
1, 316320, Note_on_c, 9, 53, 79
1, 316320, Note_on_c, 9, 55, 79
1, 316349, Note_on_c, 9, 55, 0
1, 316799, Note_on_c, 9, 40, 0
1, 316799, Note_on_c, 9, 53, 0
1, 316800, Note_on_c, 9, 49, 79
1, 316800, Note_on_c, 9, 57, 79
1, 316800, Note_on_c, 9, 36, 79
1, 316829, Note_on_c, 9, 49, 0
1, 316829, Note_on_c, 9, 57, 0
1, 317279, Note_on_c, 9, 36, 0
1, 317280, Note_on_c, 9, 40, 79
1, 317280, Note_on_c, 9, 53, 79
1, 317520, Note_on_c, 9, 36, 79
1, 317759, Note_on_c, 9, 40, 0
1, 317759, Note_on_c, 9, 53, 0
1, 317759, Note_on_c, 9, 36, 0
1, 317760, Note_on_c, 9, 53, 79
1, 318000, Note_on_c, 9, 36, 79
1, 318239, Note_on_c, 9, 53, 0
1, 318239, Note_on_c, 9, 36, 0
1, 318240, Note_on_c, 9, 40, 79
1, 318240, Note_on_c, 9, 53, 79
1, 318719, Note_on_c, 9, 40, 0
1, 318719, Note_on_c, 9, 53, 0
1, 318720, Note_on_c, 9, 53, 79
1, 318720, Note_on_c, 9, 36, 79
1, 319199, Note_on_c, 9, 53, 0
1, 319199, Note_on_c, 9, 36, 0
1, 319200, Note_on_c, 9, 40, 79
1, 319200, Note_on_c, 9, 53, 79
1, 319440, Note_on_c, 9, 36, 79
1, 319679, Note_on_c, 9, 40, 0
1, 319679, Note_on_c, 9, 53, 0
1, 319679, Note_on_c, 9, 36, 0
1, 319680, Note_on_c, 9, 53, 79
1, 319920, Note_on_c, 9, 36, 79
1, 320159, Note_on_c, 9, 53, 0
1, 320159, Note_on_c, 9, 36, 0
1, 320160, Note_on_c, 9, 40, 79
1, 320160, Note_on_c, 9, 53, 79
1, 320639, Note_on_c, 9, 40, 0
1, 320639, Note_on_c, 9, 53, 0
1, 320640, Note_on_c, 9, 53, 79
1, 320640, Note_on_c, 9, 36, 79
1, 321119, Note_on_c, 9, 53, 0
1, 321119, Note_on_c, 9, 36, 0
1, 321120, Note_on_c, 9, 40, 79
1, 321120, Note_on_c, 9, 53, 79
1, 321360, Note_on_c, 9, 36, 79
1, 321599, Note_on_c, 9, 40, 0
1, 321599, Note_on_c, 9, 53, 0
1, 321599, Note_on_c, 9, 36, 0
1, 321600, Note_on_c, 9, 53, 79
1, 321840, Note_on_c, 9, 36, 79
1, 322079, Note_on_c, 9, 53, 0
1, 322079, Note_on_c, 9, 36, 0
1, 322080, Note_on_c, 9, 40, 79
1, 322080, Note_on_c, 9, 53, 79
1, 322559, Note_on_c, 9, 40, 0
1, 322559, Note_on_c, 9, 53, 0
1, 322560, Note_on_c, 9, 53, 79
1, 322560, Note_on_c, 9, 36, 79
1, 322799, Note_on_c, 9, 36, 0
1, 322800, Note_on_c, 9, 36, 79
1, 323039, Note_on_c, 9, 53, 0
1, 323039, Note_on_c, 9, 36, 0
1, 323040, Note_on_c, 9, 40, 79
1, 323040, Note_on_c, 9, 53, 79
1, 323280, Note_on_c, 9, 36, 79
1, 323519, Note_on_c, 9, 40, 0
1, 323519, Note_on_c, 9, 53, 0
1, 323519, Note_on_c, 9, 36, 0
1, 323520, Note_on_c, 9, 53, 79
1, 323760, Note_on_c, 9, 36, 79
1, 323999, Note_on_c, 9, 53, 0
1, 323999, Note_on_c, 9, 36, 0
1, 324000, Note_on_c, 9, 40, 79
1, 324000, Note_on_c, 9, 53, 79
1, 324239, Note_on_c, 9, 40, 0
1, 324239, Note_on_c, 9, 53, 0
1, 324240, Note_on_c, 9, 57, 79
1, 324254, Note_on_c, 9, 57, 0
1, 324480, Note_on_c, 9, 49, 79
1, 324480, Note_on_c, 9, 57, 79
1, 324480, Note_on_c, 9, 36, 79
1, 324509, Note_on_c, 9, 49, 0
1, 324509, Note_on_c, 9, 57, 0
1, 324959, Note_on_c, 9, 36, 0
1, 324960, Note_on_c, 9, 40, 79
1, 324960, Note_on_c, 9, 53, 79
1, 325200, Note_on_c, 9, 36, 79
1, 325439, Note_on_c, 9, 40, 0
1, 325439, Note_on_c, 9, 53, 0
1, 325439, Note_on_c, 9, 36, 0
1, 325440, Note_on_c, 9, 53, 79
1, 325680, Note_on_c, 9, 36, 79
1, 325919, Note_on_c, 9, 53, 0
1, 325919, Note_on_c, 9, 36, 0
1, 325920, Note_on_c, 9, 40, 79
1, 325920, Note_on_c, 9, 53, 79
1, 326399, Note_on_c, 9, 40, 0
1, 326399, Note_on_c, 9, 53, 0
1, 326400, Note_on_c, 9, 53, 79
1, 326400, Note_on_c, 9, 36, 79
1, 326879, Note_on_c, 9, 53, 0
1, 326879, Note_on_c, 9, 36, 0
1, 326880, Note_on_c, 9, 40, 79
1, 326880, Note_on_c, 9, 53, 79
1, 327120, Note_on_c, 9, 36, 79
1, 327359, Note_on_c, 9, 40, 0
1, 327359, Note_on_c, 9, 53, 0
1, 327359, Note_on_c, 9, 36, 0
1, 327360, Note_on_c, 9, 53, 79
1, 327600, Note_on_c, 9, 36, 79
1, 327839, Note_on_c, 9, 53, 0
1, 327839, Note_on_c, 9, 36, 0
1, 327840, Note_on_c, 9, 40, 79
1, 327840, Note_on_c, 9, 53, 79
1, 328319, Note_on_c, 9, 40, 0
1, 328319, Note_on_c, 9, 53, 0
1, 328320, Note_on_c, 9, 53, 79
1, 328320, Note_on_c, 9, 36, 79
1, 328799, Note_on_c, 9, 53, 0
1, 328799, Note_on_c, 9, 36, 0
1, 328800, Note_on_c, 9, 40, 79
1, 328800, Note_on_c, 9, 53, 79
1, 329040, Note_on_c, 9, 36, 79
1, 329279, Note_on_c, 9, 40, 0
1, 329279, Note_on_c, 9, 53, 0
1, 329279, Note_on_c, 9, 36, 0
1, 329280, Note_on_c, 9, 53, 79
1, 329520, Note_on_c, 9, 36, 79
1, 329759, Note_on_c, 9, 53, 0
1, 329759, Note_on_c, 9, 36, 0
1, 329760, Note_on_c, 9, 40, 79
1, 329760, Note_on_c, 9, 53, 79
1, 330239, Note_on_c, 9, 40, 0
1, 330239, Note_on_c, 9, 53, 0
1, 330240, Note_on_c, 9, 53, 79
1, 330240, Note_on_c, 9, 36, 79
1, 330479, Note_on_c, 9, 36, 0
1, 330480, Note_on_c, 9, 36, 79
1, 330719, Note_on_c, 9, 53, 0
1, 330719, Note_on_c, 9, 36, 0
1, 330720, Note_on_c, 9, 40, 79
1, 330720, Note_on_c, 9, 53, 79
1, 331199, Note_on_c, 9, 40, 0
1, 331199, Note_on_c, 9, 53, 0
1, 331200, Note_on_c, 9, 53, 79
1, 331200, Note_on_c, 9, 36, 79
1, 331439, Note_on_c, 9, 36, 0
1, 331440, Note_on_c, 9, 36, 79
1, 331679, Note_on_c, 9, 53, 0
1, 331679, Note_on_c, 9, 36, 0
1, 331680, Note_on_c, 9, 40, 79
1, 331680, Note_on_c, 9, 53, 79
1, 332159, Note_on_c, 9, 40, 0
1, 332159, Note_on_c, 9, 53, 0
1, 332160, Note_on_c, 9, 49, 79
1, 332160, Note_on_c, 9, 57, 79
1, 332160, Note_on_c, 9, 36, 79
1, 332189, Note_on_c, 9, 49, 0
1, 332189, Note_on_c, 9, 57, 0
1, 332639, Note_on_c, 9, 36, 0
1, 332640, Note_on_c, 9, 40, 79
1, 332640, Note_on_c, 9, 53, 79
1, 332880, Note_on_c, 9, 36, 79
1, 333119, Note_on_c, 9, 40, 0
1, 333119, Note_on_c, 9, 53, 0
1, 333119, Note_on_c, 9, 36, 0
1, 333120, Note_on_c, 9, 53, 79
1, 333360, Note_on_c, 9, 36, 79
1, 333599, Note_on_c, 9, 53, 0
1, 333599, Note_on_c, 9, 36, 0
1, 333600, Note_on_c, 9, 40, 79
1, 333600, Note_on_c, 9, 53, 79
1, 334079, Note_on_c, 9, 40, 0
1, 334079, Note_on_c, 9, 53, 0
1, 334080, Note_on_c, 9, 53, 79
1, 334080, Note_on_c, 9, 36, 79
1, 334559, Note_on_c, 9, 53, 0
1, 334559, Note_on_c, 9, 36, 0
1, 334560, Note_on_c, 9, 40, 79
1, 334560, Note_on_c, 9, 53, 79
1, 334800, Note_on_c, 9, 36, 79
1, 335039, Note_on_c, 9, 40, 0
1, 335039, Note_on_c, 9, 53, 0
1, 335039, Note_on_c, 9, 36, 0
1, 335040, Note_on_c, 9, 53, 79
1, 335280, Note_on_c, 9, 36, 79
1, 335519, Note_on_c, 9, 53, 0
1, 335519, Note_on_c, 9, 36, 0
1, 335520, Note_on_c, 9, 40, 79
1, 335520, Note_on_c, 9, 53, 79
1, 335999, Note_on_c, 9, 40, 0
1, 335999, Note_on_c, 9, 53, 0
1, 336000, Note_on_c, 9, 53, 79
1, 336000, Note_on_c, 9, 36, 79
1, 336479, Note_on_c, 9, 53, 0
1, 336479, Note_on_c, 9, 36, 0
1, 336480, Note_on_c, 9, 40, 79
1, 336480, Note_on_c, 9, 53, 79
1, 336720, Note_on_c, 9, 36, 79
1, 336959, Note_on_c, 9, 40, 0
1, 336959, Note_on_c, 9, 53, 0
1, 336959, Note_on_c, 9, 36, 0
1, 336960, Note_on_c, 9, 53, 79
1, 337200, Note_on_c, 9, 36, 79
1, 337439, Note_on_c, 9, 53, 0
1, 337439, Note_on_c, 9, 36, 0
1, 337440, Note_on_c, 9, 40, 79
1, 337440, Note_on_c, 9, 53, 79
1, 337919, Note_on_c, 9, 40, 0
1, 337919, Note_on_c, 9, 53, 0
1, 337920, Note_on_c, 9, 53, 79
1, 337920, Note_on_c, 9, 36, 79
1, 338159, Note_on_c, 9, 36, 0
1, 338160, Note_on_c, 9, 36, 79
1, 338399, Note_on_c, 9, 53, 0
1, 338399, Note_on_c, 9, 36, 0
1, 338400, Note_on_c, 9, 40, 79
1, 338400, Note_on_c, 9, 53, 79
1, 338879, Note_on_c, 9, 40, 0
1, 338879, Note_on_c, 9, 53, 0
1, 338880, Note_on_c, 9, 53, 79
1, 338880, Note_on_c, 9, 36, 79
1, 339119, Note_on_c, 9, 36, 0
1, 339120, Note_on_c, 9, 36, 79
1, 339359, Note_on_c, 9, 53, 0
1, 339359, Note_on_c, 9, 36, 0
1, 339360, Note_on_c, 9, 40, 79
1, 339360, Note_on_c, 9, 53, 79
1, 339839, Note_on_c, 9, 40, 0
1, 339839, Note_on_c, 9, 53, 0
1, 339840, Note_on_c, 9, 49, 79
1, 339840, Note_on_c, 9, 57, 79
1, 339840, Note_on_c, 9, 36, 79
1, 339869, Note_on_c, 9, 49, 0
1, 339869, Note_on_c, 9, 57, 0
1, 340319, Note_on_c, 9, 36, 0
1, 340320, Note_on_c, 9, 40, 79
1, 340320, Note_on_c, 9, 53, 79
1, 340560, Note_on_c, 9, 36, 79
1, 340799, Note_on_c, 9, 40, 0
1, 340799, Note_on_c, 9, 53, 0
1, 340799, Note_on_c, 9, 36, 0
1, 340800, Note_on_c, 9, 53, 79
1, 341040, Note_on_c, 9, 36, 79
1, 341279, Note_on_c, 9, 53, 0
1, 341279, Note_on_c, 9, 36, 0
1, 341280, Note_on_c, 9, 40, 79
1, 341280, Note_on_c, 9, 53, 79
1, 341759, Note_on_c, 9, 40, 0
1, 341759, Note_on_c, 9, 53, 0
1, 341760, Note_on_c, 9, 53, 79
1, 341760, Note_on_c, 9, 36, 79
1, 342239, Note_on_c, 9, 53, 0
1, 342239, Note_on_c, 9, 36, 0
1, 342240, Note_on_c, 9, 40, 79
1, 342240, Note_on_c, 9, 53, 79
1, 342480, Note_on_c, 9, 36, 79
1, 342719, Note_on_c, 9, 40, 0
1, 342719, Note_on_c, 9, 53, 0
1, 342719, Note_on_c, 9, 36, 0
1, 342720, Note_on_c, 9, 53, 79
1, 342960, Note_on_c, 9, 36, 79
1, 343199, Note_on_c, 9, 53, 0
1, 343199, Note_on_c, 9, 36, 0
1, 343200, Note_on_c, 9, 40, 79
1, 343200, Note_on_c, 9, 53, 79
1, 343679, Note_on_c, 9, 40, 0
1, 343679, Note_on_c, 9, 53, 0
1, 343680, Note_on_c, 9, 53, 79
1, 343680, Note_on_c, 9, 36, 79
1, 343919, Note_on_c, 9, 36, 0
1, 343920, Note_on_c, 9, 36, 79
1, 344159, Note_on_c, 9, 53, 0
1, 344159, Note_on_c, 9, 36, 0
1, 344160, Note_on_c, 9, 40, 79
1, 344160, Note_on_c, 9, 53, 79
1, 344400, Note_on_c, 9, 36, 79
1, 344639, Note_on_c, 9, 40, 0
1, 344639, Note_on_c, 9, 53, 0
1, 344639, Note_on_c, 9, 36, 0
1, 344640, Note_on_c, 9, 53, 79
1, 344880, Note_on_c, 9, 36, 79
1, 345119, Note_on_c, 9, 53, 0
1, 345119, Note_on_c, 9, 36, 0
1, 345120, Note_on_c, 9, 40, 79
1, 345120, Note_on_c, 9, 53, 79
1, 345360, Note_on_c, 9, 36, 79
1, 345599, Note_on_c, 9, 40, 0
1, 345599, Note_on_c, 9, 53, 0
1, 345599, Note_on_c, 9, 36, 0
1, 345600, Note_on_c, 9, 53, 79
1, 345840, Note_on_c, 9, 36, 79
1, 346079, Note_on_c, 9, 53, 0
1, 346079, Note_on_c, 9, 36, 0
1, 346080, Note_on_c, 9, 40, 79
1, 346080, Note_on_c, 9, 53, 79
1, 346559, Note_on_c, 9, 40, 0
1, 346559, Note_on_c, 9, 53, 0
1, 346560, Note_on_c, 9, 53, 79
1, 346800, Note_on_c, 9, 36, 79
1, 347039, Note_on_c, 9, 53, 0
1, 347039, Note_on_c, 9, 36, 0
1, 347040, Note_on_c, 9, 40, 79
1, 347040, Note_on_c, 9, 53, 79
1, 347519, Note_on_c, 9, 40, 0
1, 347519, Note_on_c, 9, 53, 0
1, 347520, Note_on_c, 9, 49, 79
1, 347520, Note_on_c, 9, 57, 79
1, 347520, Note_on_c, 9, 36, 79
1, 347549, Note_on_c, 9, 49, 0
1, 347549, Note_on_c, 9, 57, 0
1, 347999, Note_on_c, 9, 36, 0
1, 348000, Note_on_c, 9, 40, 79
1, 348000, Note_on_c, 9, 53, 79
1, 348240, Note_on_c, 9, 36, 79
1, 348479, Note_on_c, 9, 40, 0
1, 348479, Note_on_c, 9, 53, 0
1, 348479, Note_on_c, 9, 36, 0
1, 348480, Note_on_c, 9, 53, 79
1, 348720, Note_on_c, 9, 36, 79
1, 348959, Note_on_c, 9, 53, 0
1, 348959, Note_on_c, 9, 36, 0
1, 348960, Note_on_c, 9, 40, 79
1, 348960, Note_on_c, 9, 53, 79
1, 349439, Note_on_c, 9, 40, 0
1, 349439, Note_on_c, 9, 53, 0
1, 349440, Note_on_c, 9, 53, 79
1, 349440, Note_on_c, 9, 36, 79
1, 349919, Note_on_c, 9, 53, 0
1, 349919, Note_on_c, 9, 36, 0
1, 349920, Note_on_c, 9, 40, 79
1, 349920, Note_on_c, 9, 53, 79
1, 350160, Note_on_c, 9, 36, 79
1, 350399, Note_on_c, 9, 40, 0
1, 350399, Note_on_c, 9, 53, 0
1, 350399, Note_on_c, 9, 36, 0
1, 350400, Note_on_c, 9, 53, 79
1, 350640, Note_on_c, 9, 36, 79
1, 350879, Note_on_c, 9, 53, 0
1, 350879, Note_on_c, 9, 36, 0
1, 350880, Note_on_c, 9, 40, 79
1, 350880, Note_on_c, 9, 53, 79
1, 351359, Note_on_c, 9, 40, 0
1, 351359, Note_on_c, 9, 53, 0
1, 351360, Note_on_c, 9, 53, 79
1, 351360, Note_on_c, 9, 36, 79
1, 351839, Note_on_c, 9, 53, 0
1, 351839, Note_on_c, 9, 36, 0
1, 351840, Note_on_c, 9, 40, 79
1, 351840, Note_on_c, 9, 53, 79
1, 352080, Note_on_c, 9, 36, 79
1, 352319, Note_on_c, 9, 40, 0
1, 352319, Note_on_c, 9, 53, 0
1, 352319, Note_on_c, 9, 36, 0
1, 352320, Note_on_c, 9, 53, 79
1, 352560, Note_on_c, 9, 36, 79
1, 352799, Note_on_c, 9, 53, 0
1, 352799, Note_on_c, 9, 36, 0
1, 352800, Note_on_c, 9, 40, 79
1, 352800, Note_on_c, 9, 53, 79
1, 353279, Note_on_c, 9, 40, 0
1, 353279, Note_on_c, 9, 53, 0
1, 353280, Note_on_c, 9, 53, 79
1, 353280, Note_on_c, 9, 36, 79
1, 353759, Note_on_c, 9, 53, 0
1, 353759, Note_on_c, 9, 36, 0
1, 353760, Note_on_c, 9, 40, 79
1, 353760, Note_on_c, 9, 53, 79
1, 354000, Note_on_c, 9, 36, 79
1, 354239, Note_on_c, 9, 40, 0
1, 354239, Note_on_c, 9, 53, 0
1, 354239, Note_on_c, 9, 36, 0
1, 354240, Note_on_c, 9, 53, 79
1, 354479, Note_on_c, 9, 53, 0
1, 354480, Note_on_c, 9, 49, 79
1, 354480, Note_on_c, 9, 36, 79
1, 354494, Note_on_c, 9, 49, 0
1, 354719, Note_on_c, 9, 36, 0
1, 354720, Note_on_c, 9, 40, 79
1, 354720, Note_on_c, 9, 52, 79
1, 354749, Note_on_c, 9, 52, 0
1, 355199, Note_on_c, 9, 40, 0
1, 355200, Note_on_c, 9, 49, 79
1, 355200, Note_on_c, 9, 57, 79
1, 355200, Note_on_c, 9, 36, 79
1, 355229, Note_on_c, 9, 49, 0
1, 355229, Note_on_c, 9, 57, 0
1, 355679, Note_on_c, 9, 36, 0
1, 355680, Note_on_c, 9, 40, 79
1, 355680, Note_on_c, 9, 53, 79
1, 355920, Note_on_c, 9, 36, 79
1, 356159, Note_on_c, 9, 40, 0
1, 356159, Note_on_c, 9, 53, 0
1, 356159, Note_on_c, 9, 36, 0
1, 356160, Note_on_c, 9, 53, 79
1, 356400, Note_on_c, 9, 36, 79
1, 356639, Note_on_c, 9, 53, 0
1, 356639, Note_on_c, 9, 36, 0
1, 356640, Note_on_c, 9, 40, 79
1, 356640, Note_on_c, 9, 53, 79
1, 357119, Note_on_c, 9, 40, 0
1, 357119, Note_on_c, 9, 53, 0
1, 357120, Note_on_c, 9, 53, 79
1, 357120, Note_on_c, 9, 36, 79
1, 357599, Note_on_c, 9, 53, 0
1, 357599, Note_on_c, 9, 36, 0
1, 357600, Note_on_c, 9, 40, 79
1, 357600, Note_on_c, 9, 53, 79
1, 357840, Note_on_c, 9, 36, 79
1, 358079, Note_on_c, 9, 40, 0
1, 358079, Note_on_c, 9, 53, 0
1, 358079, Note_on_c, 9, 36, 0
1, 358080, Note_on_c, 9, 53, 79
1, 358320, Note_on_c, 9, 36, 79
1, 358559, Note_on_c, 9, 53, 0
1, 358559, Note_on_c, 9, 36, 0
1, 358560, Note_on_c, 9, 40, 79
1, 358560, Note_on_c, 9, 53, 79
1, 359039, Note_on_c, 9, 40, 0
1, 359039, Note_on_c, 9, 53, 0
1, 359040, Note_on_c, 9, 53, 79
1, 359040, Note_on_c, 9, 36, 79
1, 359519, Note_on_c, 9, 53, 0
1, 359519, Note_on_c, 9, 36, 0
1, 359520, Note_on_c, 9, 40, 79
1, 359520, Note_on_c, 9, 53, 79
1, 359760, Note_on_c, 9, 36, 79
1, 359999, Note_on_c, 9, 40, 0
1, 359999, Note_on_c, 9, 53, 0
1, 359999, Note_on_c, 9, 36, 0
1, 360000, Note_on_c, 9, 53, 79
1, 360240, Note_on_c, 9, 36, 79
1, 360479, Note_on_c, 9, 53, 0
1, 360479, Note_on_c, 9, 36, 0
1, 360480, Note_on_c, 9, 40, 79
1, 360480, Note_on_c, 9, 53, 79
1, 360959, Note_on_c, 9, 40, 0
1, 360959, Note_on_c, 9, 53, 0
1, 360960, Note_on_c, 9, 53, 79
1, 360960, Note_on_c, 9, 36, 79
1, 361199, Note_on_c, 9, 36, 0
1, 361200, Note_on_c, 9, 36, 79
1, 361439, Note_on_c, 9, 53, 0
1, 361439, Note_on_c, 9, 36, 0
1, 361440, Note_on_c, 9, 40, 79
1, 361440, Note_on_c, 9, 53, 79
1, 361919, Note_on_c, 9, 40, 0
1, 361919, Note_on_c, 9, 53, 0
1, 361920, Note_on_c, 9, 53, 79
1, 361920, Note_on_c, 9, 36, 79
1, 362159, Note_on_c, 9, 36, 0
1, 362160, Note_on_c, 9, 36, 79
1, 362399, Note_on_c, 9, 53, 0
1, 362399, Note_on_c, 9, 36, 0
1, 362400, Note_on_c, 9, 40, 79
1, 362400, Note_on_c, 9, 53, 79
1, 362639, Note_on_c, 9, 40, 0
1, 362639, Note_on_c, 9, 53, 0
1, 362640, Note_on_c, 9, 57, 79
1, 362654, Note_on_c, 9, 57, 0
1, 362880, Note_on_c, 9, 49, 79
1, 362880, Note_on_c, 9, 57, 79
1, 362880, Note_on_c, 9, 36, 79
1, 362909, Note_on_c, 9, 49, 0
1, 362909, Note_on_c, 9, 57, 0
1, 363359, Note_on_c, 9, 36, 0
1, 363360, Note_on_c, 9, 40, 79
1, 363360, Note_on_c, 9, 53, 79
1, 363600, Note_on_c, 9, 36, 79
1, 363839, Note_on_c, 9, 40, 0
1, 363839, Note_on_c, 9, 53, 0
1, 363839, Note_on_c, 9, 36, 0
1, 363840, Note_on_c, 9, 53, 79
1, 364080, Note_on_c, 9, 36, 79
1, 364319, Note_on_c, 9, 53, 0
1, 364319, Note_on_c, 9, 36, 0
1, 364320, Note_on_c, 9, 40, 79
1, 364320, Note_on_c, 9, 53, 79
1, 364799, Note_on_c, 9, 40, 0
1, 364799, Note_on_c, 9, 53, 0
1, 364800, Note_on_c, 9, 53, 79
1, 364800, Note_on_c, 9, 36, 79
1, 365279, Note_on_c, 9, 53, 0
1, 365279, Note_on_c, 9, 36, 0
1, 365280, Note_on_c, 9, 40, 79
1, 365280, Note_on_c, 9, 53, 79
1, 365520, Note_on_c, 9, 36, 79
1, 365759, Note_on_c, 9, 40, 0
1, 365759, Note_on_c, 9, 53, 0
1, 365759, Note_on_c, 9, 36, 0
1, 365760, Note_on_c, 9, 53, 79
1, 366000, Note_on_c, 9, 36, 79
1, 366239, Note_on_c, 9, 53, 0
1, 366239, Note_on_c, 9, 36, 0
1, 366240, Note_on_c, 9, 40, 79
1, 366240, Note_on_c, 9, 53, 79
1, 366719, Note_on_c, 9, 40, 0
1, 366719, Note_on_c, 9, 53, 0
1, 366720, Note_on_c, 9, 53, 79
1, 366720, Note_on_c, 9, 36, 79
1, 367199, Note_on_c, 9, 53, 0
1, 367199, Note_on_c, 9, 36, 0
1, 367200, Note_on_c, 9, 40, 79
1, 367200, Note_on_c, 9, 53, 79
1, 367440, Note_on_c, 9, 36, 79
1, 367679, Note_on_c, 9, 40, 0
1, 367679, Note_on_c, 9, 53, 0
1, 367679, Note_on_c, 9, 36, 0
1, 367680, Note_on_c, 9, 53, 79
1, 367920, Note_on_c, 9, 36, 79
1, 368159, Note_on_c, 9, 53, 0
1, 368159, Note_on_c, 9, 36, 0
1, 368160, Note_on_c, 9, 40, 79
1, 368160, Note_on_c, 9, 53, 79
1, 368639, Note_on_c, 9, 40, 0
1, 368639, Note_on_c, 9, 53, 0
1, 368640, Note_on_c, 9, 53, 79
1, 368640, Note_on_c, 9, 36, 79
1, 368879, Note_on_c, 9, 36, 0
1, 368880, Note_on_c, 9, 36, 79
1, 369119, Note_on_c, 9, 53, 0
1, 369119, Note_on_c, 9, 36, 0
1, 369120, Note_on_c, 9, 40, 79
1, 369120, Note_on_c, 9, 53, 79
1, 369599, Note_on_c, 9, 40, 0
1, 369599, Note_on_c, 9, 53, 0
1, 369600, Note_on_c, 9, 53, 79
1, 369600, Note_on_c, 9, 36, 79
1, 369839, Note_on_c, 9, 36, 0
1, 369840, Note_on_c, 9, 36, 79
1, 370079, Note_on_c, 9, 53, 0
1, 370079, Note_on_c, 9, 36, 0
1, 370080, Note_on_c, 9, 40, 79
1, 370080, Note_on_c, 9, 53, 79
1, 370559, Note_on_c, 9, 40, 0
1, 370559, Note_on_c, 9, 53, 0
1, 370560, Note_on_c, 9, 49, 79
1, 370560, Note_on_c, 9, 57, 79
1, 370560, Note_on_c, 9, 36, 79
1, 370589, Note_on_c, 9, 49, 0
1, 370589, Note_on_c, 9, 57, 0
1, 371039, Note_on_c, 9, 36, 0
1, 371040, Note_on_c, 9, 40, 79
1, 371040, Note_on_c, 9, 53, 79
1, 371280, Note_on_c, 9, 36, 79
1, 371519, Note_on_c, 9, 40, 0
1, 371519, Note_on_c, 9, 53, 0
1, 371519, Note_on_c, 9, 36, 0
1, 371520, Note_on_c, 9, 53, 79
1, 371760, Note_on_c, 9, 36, 79
1, 371999, Note_on_c, 9, 53, 0
1, 371999, Note_on_c, 9, 36, 0
1, 372000, Note_on_c, 9, 40, 79
1, 372000, Note_on_c, 9, 53, 79
1, 372000, Note_on_c, 9, 55, 79
1, 372029, Note_on_c, 9, 55, 0
1, 372479, Note_on_c, 9, 40, 0
1, 372479, Note_on_c, 9, 53, 0
1, 372480, Note_on_c, 9, 53, 79
1, 372480, Note_on_c, 9, 36, 79
1, 372959, Note_on_c, 9, 53, 0
1, 372959, Note_on_c, 9, 36, 0
1, 372960, Note_on_c, 9, 40, 79
1, 372960, Note_on_c, 9, 53, 79
1, 373200, Note_on_c, 9, 36, 79
1, 373439, Note_on_c, 9, 40, 0
1, 373439, Note_on_c, 9, 53, 0
1, 373439, Note_on_c, 9, 36, 0
1, 373440, Note_on_c, 9, 53, 79
1, 373680, Note_on_c, 9, 36, 79
1, 373919, Note_on_c, 9, 53, 0
1, 373919, Note_on_c, 9, 36, 0
1, 373920, Note_on_c, 9, 40, 79
1, 373920, Note_on_c, 9, 53, 79
1, 373920, Note_on_c, 9, 55, 79
1, 373949, Note_on_c, 9, 55, 0
1, 374399, Note_on_c, 9, 40, 0
1, 374399, Note_on_c, 9, 53, 0
1, 374400, Note_on_c, 9, 53, 79
1, 374400, Note_on_c, 9, 36, 79
1, 374879, Note_on_c, 9, 53, 0
1, 374879, Note_on_c, 9, 36, 0
1, 374880, Note_on_c, 9, 40, 79
1, 374880, Note_on_c, 9, 53, 79
1, 375120, Note_on_c, 9, 36, 79
1, 375359, Note_on_c, 9, 40, 0
1, 375359, Note_on_c, 9, 53, 0
1, 375359, Note_on_c, 9, 36, 0
1, 375360, Note_on_c, 9, 53, 79
1, 375600, Note_on_c, 9, 36, 79
1, 375839, Note_on_c, 9, 53, 0
1, 375839, Note_on_c, 9, 36, 0
1, 375840, Note_on_c, 9, 40, 79
1, 375840, Note_on_c, 9, 53, 79
1, 375840, Note_on_c, 9, 55, 79
1, 375869, Note_on_c, 9, 55, 0
1, 376319, Note_on_c, 9, 40, 0
1, 376319, Note_on_c, 9, 53, 0
1, 376320, Note_on_c, 9, 53, 79
1, 376320, Note_on_c, 9, 36, 79
1, 376559, Note_on_c, 9, 36, 0
1, 376560, Note_on_c, 9, 36, 79
1, 376799, Note_on_c, 9, 53, 0
1, 376799, Note_on_c, 9, 36, 0
1, 376800, Note_on_c, 9, 40, 79
1, 376800, Note_on_c, 9, 53, 79
1, 377040, Note_on_c, 9, 36, 79
1, 377279, Note_on_c, 9, 40, 0
1, 377279, Note_on_c, 9, 53, 0
1, 377279, Note_on_c, 9, 36, 0
1, 377280, Note_on_c, 9, 53, 79
1, 377519, Note_on_c, 9, 53, 0
1, 377520, Note_on_c, 9, 49, 79
1, 377520, Note_on_c, 9, 36, 79
1, 377534, Note_on_c, 9, 49, 0
1, 377759, Note_on_c, 9, 36, 0
1, 377760, Note_on_c, 9, 40, 79
1, 377760, Note_on_c, 9, 57, 79
1, 377789, Note_on_c, 9, 57, 0
1, 378239, Note_on_c, 9, 40, 0
1, 378240, Note_on_c, 9, 49, 79
1, 378240, Note_on_c, 9, 57, 79
1, 378240, Note_on_c, 9, 36, 79
1, 378269, Note_on_c, 9, 49, 0
1, 378269, Note_on_c, 9, 57, 0
1, 378719, Note_on_c, 9, 36, 0
1, 378720, Note_on_c, 9, 40, 79
1, 378720, Note_on_c, 9, 53, 79
1, 378960, Note_on_c, 9, 36, 79
1, 379199, Note_on_c, 9, 40, 0
1, 379199, Note_on_c, 9, 53, 0
1, 379199, Note_on_c, 9, 36, 0
1, 379200, Note_on_c, 9, 53, 79
1, 379440, Note_on_c, 9, 36, 79
1, 379679, Note_on_c, 9, 53, 0
1, 379679, Note_on_c, 9, 36, 0
1, 379680, Note_on_c, 9, 40, 79
1, 379680, Note_on_c, 9, 53, 79
1, 380159, Note_on_c, 9, 40, 0
1, 380159, Note_on_c, 9, 53, 0
1, 380160, Note_on_c, 9, 53, 79
1, 380160, Note_on_c, 9, 36, 79
1, 380399, Note_on_c, 9, 36, 0
1, 380400, Note_on_c, 9, 36, 79
1, 380639, Note_on_c, 9, 53, 0
1, 380639, Note_on_c, 9, 36, 0
1, 380640, Note_on_c, 9, 40, 79
1, 380640, Note_on_c, 9, 53, 79
1, 380880, Note_on_c, 9, 36, 79
1, 381119, Note_on_c, 9, 40, 0
1, 381119, Note_on_c, 9, 53, 0
1, 381119, Note_on_c, 9, 36, 0
1, 381120, Note_on_c, 9, 53, 79
1, 381360, Note_on_c, 9, 36, 79
1, 381599, Note_on_c, 9, 53, 0
1, 381599, Note_on_c, 9, 36, 0
1, 381600, Note_on_c, 9, 40, 79
1, 381600, Note_on_c, 9, 53, 79
1, 382079, Note_on_c, 9, 40, 0
1, 382079, Note_on_c, 9, 53, 0
1, 382080, Note_on_c, 9, 53, 79
1, 382080, Note_on_c, 9, 36, 79
1, 382559, Note_on_c, 9, 53, 0
1, 382559, Note_on_c, 9, 36, 0
1, 382560, Note_on_c, 9, 40, 79
1, 382560, Note_on_c, 9, 53, 79
1, 382800, Note_on_c, 9, 36, 79
1, 383039, Note_on_c, 9, 40, 0
1, 383039, Note_on_c, 9, 53, 0
1, 383039, Note_on_c, 9, 36, 0
1, 383040, Note_on_c, 9, 53, 79
1, 383280, Note_on_c, 9, 36, 79
1, 383519, Note_on_c, 9, 53, 0
1, 383519, Note_on_c, 9, 36, 0
1, 383520, Note_on_c, 9, 40, 79
1, 383520, Note_on_c, 9, 53, 79
1, 383999, Note_on_c, 9, 40, 0
1, 383999, Note_on_c, 9, 53, 0
1, 384000, Note_on_c, 9, 53, 79
1, 384000, Note_on_c, 9, 36, 79
1, 384479, Note_on_c, 9, 53, 0
1, 384479, Note_on_c, 9, 36, 0
1, 384480, Note_on_c, 9, 40, 79
1, 384480, Note_on_c, 9, 53, 79
1, 384720, Note_on_c, 9, 36, 79
1, 384959, Note_on_c, 9, 40, 0
1, 384959, Note_on_c, 9, 53, 0
1, 384959, Note_on_c, 9, 36, 0
1, 384960, Note_on_c, 9, 53, 79
1, 385200, Note_on_c, 9, 36, 79
1, 385439, Note_on_c, 9, 53, 0
1, 385439, Note_on_c, 9, 36, 0
1, 385440, Note_on_c, 9, 40, 79
1, 385440, Note_on_c, 9, 53, 79
1, 385440, Note_on_c, 9, 49, 79
1, 385469, Note_on_c, 9, 49, 0
1, 385919, Note_on_c, 9, 40, 0
1, 385919, Note_on_c, 9, 53, 0
1, 385920, Note_on_c, 9, 49, 79
1, 385920, Note_on_c, 9, 57, 79
1, 385920, Note_on_c, 9, 36, 79
1, 385949, Note_on_c, 9, 49, 0
1, 385949, Note_on_c, 9, 57, 0
1, 386399, Note_on_c, 9, 36, 0
1, 386400, Note_on_c, 9, 40, 79
1, 386400, Note_on_c, 9, 53, 79
1, 386640, Note_on_c, 9, 36, 79
1, 386879, Note_on_c, 9, 40, 0
1, 386879, Note_on_c, 9, 53, 0
1, 386879, Note_on_c, 9, 36, 0
1, 386880, Note_on_c, 9, 53, 79
1, 387120, Note_on_c, 9, 36, 79
1, 387359, Note_on_c, 9, 53, 0
1, 387359, Note_on_c, 9, 36, 0
1, 387360, Note_on_c, 9, 40, 79
1, 387360, Note_on_c, 9, 53, 79
1, 387839, Note_on_c, 9, 40, 0
1, 387839, Note_on_c, 9, 53, 0
1, 387840, Note_on_c, 9, 53, 79
1, 387840, Note_on_c, 9, 36, 79
1, 388319, Note_on_c, 9, 53, 0
1, 388319, Note_on_c, 9, 36, 0
1, 388320, Note_on_c, 9, 40, 79
1, 388320, Note_on_c, 9, 53, 79
1, 388560, Note_on_c, 9, 36, 79
1, 388799, Note_on_c, 9, 40, 0
1, 388799, Note_on_c, 9, 53, 0
1, 388799, Note_on_c, 9, 36, 0
1, 388800, Note_on_c, 9, 53, 79
1, 389040, Note_on_c, 9, 36, 79
1, 389279, Note_on_c, 9, 53, 0
1, 389279, Note_on_c, 9, 36, 0
1, 389280, Note_on_c, 9, 40, 79
1, 389280, Note_on_c, 9, 53, 79
1, 389759, Note_on_c, 9, 40, 0
1, 389759, Note_on_c, 9, 53, 0
1, 389760, Note_on_c, 9, 53, 79
1, 389760, Note_on_c, 9, 36, 79
1, 390239, Note_on_c, 9, 53, 0
1, 390239, Note_on_c, 9, 36, 0
1, 390240, Note_on_c, 9, 40, 79
1, 390240, Note_on_c, 9, 53, 79
1, 390480, Note_on_c, 9, 36, 79
1, 390719, Note_on_c, 9, 40, 0
1, 390719, Note_on_c, 9, 53, 0
1, 390719, Note_on_c, 9, 36, 0
1, 390720, Note_on_c, 9, 53, 79
1, 390960, Note_on_c, 9, 36, 79
1, 391199, Note_on_c, 9, 53, 0
1, 391199, Note_on_c, 9, 36, 0
1, 391200, Note_on_c, 9, 40, 79
1, 391200, Note_on_c, 9, 53, 79
1, 391679, Note_on_c, 9, 40, 0
1, 391679, Note_on_c, 9, 53, 0
1, 391680, Note_on_c, 9, 53, 79
1, 391680, Note_on_c, 9, 36, 79
1, 391919, Note_on_c, 9, 36, 0
1, 391920, Note_on_c, 9, 36, 79
1, 392159, Note_on_c, 9, 53, 0
1, 392159, Note_on_c, 9, 36, 0
1, 392160, Note_on_c, 9, 40, 79
1, 392160, Note_on_c, 9, 53, 79
1, 392639, Note_on_c, 9, 40, 0
1, 392639, Note_on_c, 9, 53, 0
1, 392640, Note_on_c, 9, 53, 79
1, 392640, Note_on_c, 9, 36, 79
1, 392879, Note_on_c, 9, 36, 0
1, 392880, Note_on_c, 9, 36, 79
1, 393119, Note_on_c, 9, 53, 0
1, 393119, Note_on_c, 9, 36, 0
1, 393120, Note_on_c, 9, 40, 79
1, 393120, Note_on_c, 9, 53, 79
1, 393599, Note_on_c, 9, 40, 0
1, 393599, Note_on_c, 9, 53, 0
1, 393600, Note_on_c, 9, 49, 79
1, 393600, Note_on_c, 9, 57, 79
1, 393600, Note_on_c, 9, 36, 79
1, 393629, Note_on_c, 9, 49, 0
1, 393629, Note_on_c, 9, 57, 0
1, 394079, Note_on_c, 9, 36, 0
1, 394080, Note_on_c, 9, 40, 79
1, 394080, Note_on_c, 9, 53, 79
1, 394320, Note_on_c, 9, 36, 79
1, 394559, Note_on_c, 9, 40, 0
1, 394559, Note_on_c, 9, 53, 0
1, 394559, Note_on_c, 9, 36, 0
1, 394560, Note_on_c, 9, 53, 79
1, 394800, Note_on_c, 9, 36, 79
1, 395039, Note_on_c, 9, 53, 0
1, 395039, Note_on_c, 9, 36, 0
1, 395040, Note_on_c, 9, 40, 79
1, 395040, Note_on_c, 9, 53, 79
1, 395519, Note_on_c, 9, 40, 0
1, 395519, Note_on_c, 9, 53, 0
1, 395520, Note_on_c, 9, 53, 79
1, 395520, Note_on_c, 9, 36, 79
1, 395999, Note_on_c, 9, 53, 0
1, 395999, Note_on_c, 9, 36, 0
1, 396000, Note_on_c, 9, 40, 79
1, 396000, Note_on_c, 9, 53, 79
1, 396240, Note_on_c, 9, 36, 79
1, 396479, Note_on_c, 9, 40, 0
1, 396479, Note_on_c, 9, 53, 0
1, 396479, Note_on_c, 9, 36, 0
1, 396480, Note_on_c, 9, 53, 79
1, 396720, Note_on_c, 9, 36, 79
1, 396959, Note_on_c, 9, 53, 0
1, 396959, Note_on_c, 9, 36, 0
1, 396960, Note_on_c, 9, 40, 79
1, 396960, Note_on_c, 9, 53, 79
1, 397439, Note_on_c, 9, 40, 0
1, 397439, Note_on_c, 9, 53, 0
1, 397440, Note_on_c, 9, 53, 79
1, 397440, Note_on_c, 9, 36, 79
1, 397919, Note_on_c, 9, 53, 0
1, 397919, Note_on_c, 9, 36, 0
1, 397920, Note_on_c, 9, 40, 79
1, 397920, Note_on_c, 9, 53, 79
1, 398160, Note_on_c, 9, 36, 79
1, 398399, Note_on_c, 9, 40, 0
1, 398399, Note_on_c, 9, 53, 0
1, 398399, Note_on_c, 9, 36, 0
1, 398400, Note_on_c, 9, 53, 79
1, 398640, Note_on_c, 9, 36, 79
1, 398879, Note_on_c, 9, 53, 0
1, 398879, Note_on_c, 9, 36, 0
1, 398880, Note_on_c, 9, 40, 79
1, 398880, Note_on_c, 9, 53, 79
1, 399359, Note_on_c, 9, 40, 0
1, 399359, Note_on_c, 9, 53, 0
1, 399360, Note_on_c, 9, 53, 79
1, 399360, Note_on_c, 9, 36, 79
1, 399599, Note_on_c, 9, 36, 0
1, 399600, Note_on_c, 9, 36, 79
1, 399839, Note_on_c, 9, 53, 0
1, 399839, Note_on_c, 9, 36, 0
1, 399840, Note_on_c, 9, 40, 79
1, 399840, Note_on_c, 9, 53, 79
1, 400319, Note_on_c, 9, 40, 0
1, 400319, Note_on_c, 9, 53, 0
1, 400320, Note_on_c, 9, 53, 79
1, 400320, Note_on_c, 9, 36, 79
1, 400559, Note_on_c, 9, 36, 0
1, 400560, Note_on_c, 9, 36, 79
1, 400799, Note_on_c, 9, 53, 0
1, 400799, Note_on_c, 9, 36, 0
1, 400800, Note_on_c, 9, 40, 79
1, 400800, Note_on_c, 9, 53, 79
1, 401279, Note_on_c, 9, 40, 0
1, 401279, Note_on_c, 9, 53, 0
1, 401280, Note_on_c, 9, 53, 79
1, 401280, Note_on_c, 9, 36, 79
1, 401759, Note_on_c, 9, 53, 0
1, 401759, Note_on_c, 9, 36, 0
1, 401760, Note_on_c, 9, 40, 79
1, 401760, Note_on_c, 9, 53, 79
1, 402000, Note_on_c, 9, 36, 79
1, 402239, Note_on_c, 9, 40, 0
1, 402239, Note_on_c, 9, 53, 0
1, 402239, Note_on_c, 9, 36, 0
1, 402240, Note_on_c, 9, 53, 79
1, 402480, Note_on_c, 9, 36, 79
1, 402719, Note_on_c, 9, 53, 0
1, 402719, Note_on_c, 9, 36, 0
1, 402720, Note_on_c, 9, 40, 79
1, 402720, Note_on_c, 9, 53, 79
1, 403199, Note_on_c, 9, 40, 0
1, 403199, Note_on_c, 9, 53, 0
1, 403200, Note_on_c, 9, 53, 79
1, 403200, Note_on_c, 9, 36, 79
1, 403679, Note_on_c, 9, 53, 0
1, 403679, Note_on_c, 9, 36, 0
1, 403680, Note_on_c, 9, 40, 79
1, 403680, Note_on_c, 9, 53, 79
1, 403920, Note_on_c, 9, 36, 79
1, 404159, Note_on_c, 9, 40, 0
1, 404159, Note_on_c, 9, 53, 0
1, 404159, Note_on_c, 9, 36, 0
1, 404160, Note_on_c, 9, 53, 79
1, 404400, Note_on_c, 9, 36, 79
1, 404639, Note_on_c, 9, 53, 0
1, 404639, Note_on_c, 9, 36, 0
1, 404640, Note_on_c, 9, 40, 79
1, 404640, Note_on_c, 9, 53, 79
1, 405119, Note_on_c, 9, 40, 0
1, 405119, Note_on_c, 9, 53, 0
1, 405120, Note_on_c, 9, 53, 79
1, 405120, Note_on_c, 9, 36, 79
1, 405599, Note_on_c, 9, 53, 0
1, 405599, Note_on_c, 9, 36, 0
1, 405600, Note_on_c, 9, 40, 79
1, 405600, Note_on_c, 9, 53, 79
1, 405840, Note_on_c, 9, 36, 79
1, 406079, Note_on_c, 9, 40, 0
1, 406079, Note_on_c, 9, 53, 0
1, 406079, Note_on_c, 9, 36, 0
1, 406080, Note_on_c, 9, 53, 79
1, 406319, Note_on_c, 9, 53, 0
1, 406320, Note_on_c, 9, 40, 79
1, 406559, Note_on_c, 9, 40, 0
1, 406560, Note_on_c, 9, 53, 79
1, 406560, Note_on_c, 9, 36, 79
1, 407039, Note_on_c, 9, 53, 0
1, 407039, Note_on_c, 9, 36, 0
1, 407040, Note_on_c, 9, 40, 79
1, 407040, Note_on_c, 9, 53, 79
1, 407519, Note_on_c, 9, 40, 0
1, 407519, Note_on_c, 9, 53, 0
1, 407520, Note_on_c, 9, 53, 79
1, 407759, Note_on_c, 9, 53, 0
1, 407760, Note_on_c, 9, 40, 79
1, 407999, Note_on_c, 9, 40, 0
1, 408000, Note_on_c, 9, 53, 79
1, 408000, Note_on_c, 9, 36, 79
1, 408479, Note_on_c, 9, 53, 0
1, 408479, Note_on_c, 9, 36, 0
1, 408480, Note_on_c, 9, 41, 79
1, 408480, Note_on_c, 9, 53, 79
1, 408480, Note_on_c, 9, 36, 79
1, 408959, Note_on_c, 9, 41, 0
1, 408959, Note_on_c, 9, 53, 0
1, 408959, Note_on_c, 9, 36, 0
1, 408960, Note_on_c, 9, 82, 79
1, 408960, Note_on_c, 9, 49, 79
1, 408960, Note_on_c, 9, 36, 79
1, 408974, Note_on_c, 9, 49, 0
1, 409199, Note_on_c, 9, 82, 0
1, 409200, Note_on_c, 9, 82, 38
1, 409439, Note_on_c, 9, 36, 0
1, 409439, Note_on_c, 9, 82, 0
1, 409440, Note_on_c, 9, 82, 79
1, 409679, Note_on_c, 9, 82, 0
1, 409680, Note_on_c, 9, 82, 38
1, 409919, Note_on_c, 9, 82, 0
1, 409920, Note_on_c, 9, 82, 79
1, 410159, Note_on_c, 9, 82, 0
1, 410160, Note_on_c, 9, 82, 38
1, 410399, Note_on_c, 9, 82, 0
1, 410400, Note_on_c, 9, 82, 79
1, 410639, Note_on_c, 9, 82, 0
1, 410640, Note_on_c, 9, 82, 38
1, 410879, Note_on_c, 9, 82, 0
1, 410880, Note_on_c, 9, 82, 79
1, 411119, Note_on_c, 9, 82, 0
1, 411120, Note_on_c, 9, 82, 38
1, 411359, Note_on_c, 9, 82, 0
1, 411360, Note_on_c, 9, 82, 79
1, 411599, Note_on_c, 9, 82, 0
1, 411600, Note_on_c, 9, 82, 38
1, 411839, Note_on_c, 9, 82, 0
1, 411840, Note_on_c, 9, 82, 79
1, 412079, Note_on_c, 9, 82, 0
1, 412080, Note_on_c, 9, 82, 38
1, 412319, Note_on_c, 9, 82, 0
1, 412320, Note_on_c, 9, 82, 79
1, 412559, Note_on_c, 9, 82, 0
1, 412560, Note_on_c, 9, 82, 38
1, 412799, Note_on_c, 9, 82, 0
1, 412800, Note_on_c, 9, 82, 79
1, 413039, Note_on_c, 9, 82, 0
1, 413040, Note_on_c, 9, 82, 38
1, 413279, Note_on_c, 9, 82, 0
1, 413280, Note_on_c, 9, 82, 79
1, 413519, Note_on_c, 9, 82, 0
1, 413520, Note_on_c, 9, 82, 38
1, 413759, Note_on_c, 9, 82, 0
1, 413760, Note_on_c, 9, 82, 79
1, 413999, Note_on_c, 9, 82, 0
1, 414000, Note_on_c, 9, 82, 38
1, 414239, Note_on_c, 9, 82, 0
1, 414240, Note_on_c, 9, 82, 79
1, 414479, Note_on_c, 9, 82, 0
1, 414480, Note_on_c, 9, 82, 38
1, 414719, Note_on_c, 9, 82, 0
1, 414720, Note_on_c, 9, 82, 79
1, 414959, Note_on_c, 9, 82, 0
1, 414960, Note_on_c, 9, 82, 38
1, 415199, Note_on_c, 9, 82, 0
1, 415200, Note_on_c, 9, 82, 79
1, 415439, Note_on_c, 9, 82, 0
1, 415440, Note_on_c, 9, 82, 38
1, 415679, Note_on_c, 9, 82, 0
1, 415680, Note_on_c, 9, 82, 79
1, 415919, Note_on_c, 9, 82, 0
1, 415920, Note_on_c, 9, 82, 38
1, 416159, Note_on_c, 9, 82, 0
1, 416160, Note_on_c, 9, 82, 79
1, 416399, Note_on_c, 9, 82, 0
1, 416400, Note_on_c, 9, 82, 38
1, 416639, Note_on_c, 9, 82, 0
1, 416640, Note_on_c, 9, 82, 79
1, 416879, Note_on_c, 9, 82, 0
1, 416880, Note_on_c, 9, 82, 38
1, 417119, Note_on_c, 9, 82, 0
1, 417120, Note_on_c, 9, 82, 79
1, 417359, Note_on_c, 9, 82, 0
1, 417360, Note_on_c, 9, 82, 38
1, 417599, Note_on_c, 9, 82, 0
1, 417600, Note_on_c, 9, 82, 79
1, 417839, Note_on_c, 9, 82, 0
1, 417840, Note_on_c, 9, 82, 38
1, 418079, Note_on_c, 9, 82, 0
1, 418080, Note_on_c, 9, 82, 79
1, 418319, Note_on_c, 9, 82, 0
1, 418320, Note_on_c, 9, 82, 38
1, 418559, Note_on_c, 9, 82, 0
1, 418560, Note_on_c, 9, 82, 79
1, 418799, Note_on_c, 9, 82, 0
1, 418800, Note_on_c, 9, 82, 38
1, 419039, Note_on_c, 9, 82, 0
1, 419040, Note_on_c, 9, 82, 79
1, 419279, Note_on_c, 9, 82, 0
1, 419280, Note_on_c, 9, 82, 38
1, 419519, Note_on_c, 9, 82, 0
1, 419520, Note_on_c, 9, 82, 79
1, 419759, Note_on_c, 9, 82, 0
1, 419760, Note_on_c, 9, 82, 38
1, 419999, Note_on_c, 9, 82, 0
1, 420000, Note_on_c, 9, 82, 79
1, 420239, Note_on_c, 9, 82, 0
1, 420240, Note_on_c, 9, 82, 38
1, 420479, Note_on_c, 9, 82, 0
1, 420480, Note_on_c, 9, 82, 79
1, 420719, Note_on_c, 9, 82, 0
1, 420720, Note_on_c, 9, 82, 38
1, 420959, Note_on_c, 9, 82, 0
1, 420960, Note_on_c, 9, 82, 79
1, 421199, Note_on_c, 9, 82, 0
1, 421200, Note_on_c, 9, 82, 38
1, 421439, Note_on_c, 9, 82, 0
1, 421440, Note_on_c, 9, 82, 79
1, 421679, Note_on_c, 9, 82, 0
1, 421680, Note_on_c, 9, 82, 38
1, 421919, Note_on_c, 9, 82, 0
1, 421920, Note_on_c, 9, 82, 79
1, 422159, Note_on_c, 9, 82, 0
1, 422160, Note_on_c, 9, 82, 38
1, 422399, Note_on_c, 9, 82, 0
1, 422400, Note_on_c, 9, 82, 79
1, 422639, Note_on_c, 9, 82, 0
1, 422640, Note_on_c, 9, 82, 38
1, 422879, Note_on_c, 9, 82, 0
1, 422880, Note_on_c, 9, 82, 79
1, 423119, Note_on_c, 9, 82, 0
1, 423120, Note_on_c, 9, 82, 38
1, 423359, Note_on_c, 9, 82, 0
1, 423360, Note_on_c, 9, 82, 79
1, 423599, Note_on_c, 9, 82, 0
1, 423600, Note_on_c, 9, 82, 38
1, 423839, Note_on_c, 9, 82, 0
1, 423840, Note_on_c, 9, 82, 79
1, 424079, Note_on_c, 9, 82, 0
1, 424080, Note_on_c, 9, 82, 38
1, 424319, Note_on_c, 9, 82, 0
1, 424320, Note_on_c, 9, 82, 79
1, 424559, Note_on_c, 9, 82, 0
1, 424560, Note_on_c, 9, 82, 38
1, 424799, Note_on_c, 9, 82, 0
1, 424800, Note_on_c, 9, 82, 79
1, 425039, Note_on_c, 9, 82, 0
1, 425040, Note_on_c, 9, 82, 38
1, 425279, Note_on_c, 9, 82, 0
1, 425280, Note_on_c, 9, 82, 79
1, 425519, Note_on_c, 9, 82, 0
1, 425520, Note_on_c, 9, 82, 38
1, 425759, Note_on_c, 9, 82, 0
1, 425760, Note_on_c, 9, 82, 79
1, 425999, Note_on_c, 9, 82, 0
1, 426000, Note_on_c, 9, 82, 38
1, 426239, Note_on_c, 9, 82, 0
1, 426240, Note_on_c, 9, 82, 79
1, 426479, Note_on_c, 9, 82, 0
1, 426480, Note_on_c, 9, 82, 38
1, 426719, Note_on_c, 9, 82, 0
1, 426720, Note_on_c, 9, 82, 79
1, 426959, Note_on_c, 9, 82, 0
1, 426960, Note_on_c, 9, 82, 38
1, 427199, Note_on_c, 9, 82, 0
1, 427200, Note_on_c, 9, 82, 79
1, 427439, Note_on_c, 9, 82, 0
1, 427440, Note_on_c, 9, 82, 38
1, 427679, Note_on_c, 9, 82, 0
1, 427680, Note_on_c, 9, 82, 79
1, 427919, Note_on_c, 9, 82, 0
1, 427920, Note_on_c, 9, 82, 38
1, 428159, Note_on_c, 9, 82, 0
1, 428160, Note_on_c, 9, 82, 79
1, 428399, Note_on_c, 9, 82, 0
1, 428400, Note_on_c, 9, 82, 38
1, 428639, Note_on_c, 9, 82, 0
1, 428640, Note_on_c, 9, 82, 79
1, 428879, Note_on_c, 9, 82, 0
1, 428880, Note_on_c, 9, 82, 38
1, 429119, Note_on_c, 9, 82, 0
1, 429120, Note_on_c, 9, 82, 79
1, 429359, Note_on_c, 9, 82, 0
1, 429360, Note_on_c, 9, 82, 38
1, 429599, Note_on_c, 9, 82, 0
1, 429600, Note_on_c, 9, 82, 79
1, 429839, Note_on_c, 9, 82, 0
1, 429840, Note_on_c, 9, 82, 38
1, 430079, Note_on_c, 9, 82, 0
1, 430080, Note_on_c, 9, 82, 79
1, 430319, Note_on_c, 9, 82, 0
1, 430320, Note_on_c, 9, 82, 38
1, 430559, Note_on_c, 9, 82, 0
1, 430560, Note_on_c, 9, 82, 79
1, 430799, Note_on_c, 9, 82, 0
1, 430800, Note_on_c, 9, 82, 38
1, 431039, Note_on_c, 9, 82, 0
1, 431040, Note_on_c, 9, 82, 79
1, 431279, Note_on_c, 9, 82, 0
1, 431280, Note_on_c, 9, 82, 38
1, 431519, Note_on_c, 9, 82, 0
1, 431520, Note_on_c, 9, 82, 79
1, 431759, Note_on_c, 9, 82, 0
1, 431760, Note_on_c, 9, 82, 38
1, 431999, Note_on_c, 9, 82, 0
1, 432000, Note_on_c, 9, 82, 79
1, 432239, Note_on_c, 9, 82, 0
1, 432240, Note_on_c, 9, 82, 38
1, 432479, Note_on_c, 9, 82, 0
1, 432480, Note_on_c, 9, 82, 79
1, 432719, Note_on_c, 9, 82, 0
1, 432720, Note_on_c, 9, 82, 38
1, 432959, Note_on_c, 9, 82, 0
1, 432960, Note_on_c, 9, 82, 79
1, 433199, Note_on_c, 9, 82, 0
1, 433200, Note_on_c, 9, 82, 38
1, 433439, Note_on_c, 9, 82, 0
1, 433440, Note_on_c, 9, 82, 79
1, 433679, Note_on_c, 9, 82, 0
1, 433680, Note_on_c, 9, 82, 38
1, 433919, Note_on_c, 9, 82, 0
1, 433920, Note_on_c, 9, 82, 79
1, 434159, Note_on_c, 9, 82, 0
1, 434160, Note_on_c, 9, 82, 38
1, 434399, Note_on_c, 9, 82, 0
1, 434400, Note_on_c, 9, 82, 79
1, 434639, Note_on_c, 9, 82, 0
1, 434640, Note_on_c, 9, 82, 38
1, 434879, Note_on_c, 9, 82, 0
1, 434880, Note_on_c, 9, 82, 79
1, 435119, Note_on_c, 9, 82, 0
1, 435120, Note_on_c, 9, 82, 38
1, 435359, Note_on_c, 9, 82, 0
1, 435360, Note_on_c, 9, 82, 79
1, 435599, Note_on_c, 9, 82, 0
1, 435600, Note_on_c, 9, 82, 38
1, 435839, Note_on_c, 9, 82, 0
1, 435840, Note_on_c, 9, 82, 79
1, 436079, Note_on_c, 9, 82, 0
1, 436080, Note_on_c, 9, 82, 38
1, 436319, Note_on_c, 9, 82, 0
1, 436320, Note_on_c, 9, 82, 79
1, 436559, Note_on_c, 9, 82, 0
1, 436560, Note_on_c, 9, 82, 38
1, 436799, Note_on_c, 9, 82, 0
1, 436800, Note_on_c, 9, 82, 79
1, 437039, Note_on_c, 9, 82, 0
1, 437040, Note_on_c, 9, 82, 38
1, 437279, Note_on_c, 9, 82, 0
1, 437280, Note_on_c, 9, 82, 79
1, 437519, Note_on_c, 9, 82, 0
1, 437520, Note_on_c, 9, 82, 38
1, 437759, Note_on_c, 9, 82, 0
1, 437760, Note_on_c, 9, 82, 79
1, 437999, Note_on_c, 9, 82, 0
1, 438000, Note_on_c, 9, 82, 38
1, 438239, Note_on_c, 9, 82, 0
1, 438240, Note_on_c, 9, 82, 79
1, 438479, Note_on_c, 9, 82, 0
1, 438480, Note_on_c, 9, 82, 38
1, 438719, Note_on_c, 9, 82, 0
1, 438720, Note_on_c, 9, 82, 79
1, 438959, Note_on_c, 9, 82, 0
1, 438960, Note_on_c, 9, 82, 38
1, 439199, Note_on_c, 9, 82, 0
1, 439200, Note_on_c, 9, 82, 79
1, 439439, Note_on_c, 9, 82, 0
1, 439440, Note_on_c, 9, 40, 63
1, 439440, Note_on_c, 9, 82, 38
1, 439679, Note_on_c, 9, 40, 0
1, 439679, Note_on_c, 9, 82, 0
1, 439680, Note_on_c, 9, 49, 111
1, 439680, Note_on_c, 9, 57, 111
1, 439680, Note_on_c, 9, 36, 111
1, 439709, Note_on_c, 9, 49, 0
1, 439709, Note_on_c, 9, 57, 0
1, 440159, Note_on_c, 9, 36, 0
1, 440160, Note_on_c, 9, 46, 111
1, 440160, Note_on_c, 9, 36, 111
1, 440174, Note_on_c, 9, 46, 0
1, 440400, Note_on_c, 9, 40, 111
1, 440639, Note_on_c, 9, 36, 0
1, 440639, Note_on_c, 9, 40, 0
1, 440640, Note_on_c, 9, 46, 111
1, 440669, Note_on_c, 9, 46, 0
1, 441120, Note_on_c, 9, 46, 111
1, 441120, Note_on_c, 9, 36, 111
1, 441149, Note_on_c, 9, 46, 0
1, 441599, Note_on_c, 9, 36, 0
1, 441600, Note_on_c, 9, 46, 111
1, 441629, Note_on_c, 9, 46, 0
1, 441840, Note_on_c, 9, 36, 111
1, 442079, Note_on_c, 9, 36, 0
1, 442080, Note_on_c, 9, 46, 111
1, 442080, Note_on_c, 9, 36, 111
1, 442109, Note_on_c, 9, 46, 0
1, 442559, Note_on_c, 9, 36, 0
1, 442560, Note_on_c, 9, 40, 111
1, 442560, Note_on_c, 9, 46, 111
1, 442589, Note_on_c, 9, 46, 0
1, 443039, Note_on_c, 9, 40, 0
1, 443040, Note_on_c, 9, 46, 111
1, 443069, Note_on_c, 9, 46, 0
1, 443280, Note_on_c, 9, 36, 111
1, 443519, Note_on_c, 9, 36, 0
1, 443520, Note_on_c, 9, 46, 111
1, 443520, Note_on_c, 9, 36, 111
1, 443549, Note_on_c, 9, 46, 0
1, 443999, Note_on_c, 9, 36, 0
1, 444000, Note_on_c, 9, 46, 111
1, 444000, Note_on_c, 9, 36, 111
1, 444014, Note_on_c, 9, 46, 0
1, 444240, Note_on_c, 9, 40, 111
1, 444479, Note_on_c, 9, 36, 0
1, 444479, Note_on_c, 9, 40, 0
1, 444480, Note_on_c, 9, 46, 111
1, 444509, Note_on_c, 9, 46, 0
1, 444960, Note_on_c, 9, 46, 111
1, 444960, Note_on_c, 9, 36, 111
1, 444989, Note_on_c, 9, 46, 0
1, 445439, Note_on_c, 9, 36, 0
1, 445440, Note_on_c, 9, 46, 111
1, 445469, Note_on_c, 9, 46, 0
1, 445920, Note_on_c, 9, 46, 111
1, 445920, Note_on_c, 9, 36, 111
1, 445949, Note_on_c, 9, 46, 0
1, 446399, Note_on_c, 9, 36, 0
1, 446400, Note_on_c, 9, 40, 111
1, 446400, Note_on_c, 9, 46, 111
1, 446429, Note_on_c, 9, 46, 0
1, 446640, Note_on_c, 9, 36, 111
1, 446879, Note_on_c, 9, 40, 0
1, 446879, Note_on_c, 9, 36, 0
1, 446880, Note_on_c, 9, 46, 111
1, 446894, Note_on_c, 9, 46, 0
1, 447120, Note_on_c, 9, 40, 111
1, 447359, Note_on_c, 9, 40, 0
1, 447360, Note_on_c, 9, 49, 111
1, 447360, Note_on_c, 9, 57, 111
1, 447360, Note_on_c, 9, 36, 111
1, 447389, Note_on_c, 9, 49, 0
1, 447389, Note_on_c, 9, 57, 0
1, 447839, Note_on_c, 9, 36, 0
1, 447840, Note_on_c, 9, 46, 111
1, 447840, Note_on_c, 9, 36, 111
1, 447854, Note_on_c, 9, 46, 0
1, 448080, Note_on_c, 9, 40, 111
1, 448319, Note_on_c, 9, 36, 0
1, 448319, Note_on_c, 9, 40, 0
1, 448320, Note_on_c, 9, 46, 111
1, 448349, Note_on_c, 9, 46, 0
1, 448800, Note_on_c, 9, 46, 111
1, 448800, Note_on_c, 9, 36, 111
1, 448829, Note_on_c, 9, 46, 0
1, 449279, Note_on_c, 9, 36, 0
1, 449280, Note_on_c, 9, 46, 111
1, 449309, Note_on_c, 9, 46, 0
1, 449760, Note_on_c, 9, 46, 111
1, 449760, Note_on_c, 9, 36, 111
1, 449789, Note_on_c, 9, 46, 0
1, 449999, Note_on_c, 9, 36, 0
1, 450000, Note_on_c, 9, 36, 111
1, 450239, Note_on_c, 9, 36, 0
1, 450240, Note_on_c, 9, 40, 111
1, 450240, Note_on_c, 9, 46, 111
1, 450269, Note_on_c, 9, 46, 0
1, 450480, Note_on_c, 9, 36, 111
1, 450719, Note_on_c, 9, 40, 0
1, 450719, Note_on_c, 9, 36, 0
1, 450720, Note_on_c, 9, 46, 111
1, 450749, Note_on_c, 9, 46, 0
1, 451200, Note_on_c, 9, 46, 111
1, 451200, Note_on_c, 9, 36, 111
1, 451229, Note_on_c, 9, 46, 0
1, 451679, Note_on_c, 9, 36, 0
1, 451680, Note_on_c, 9, 46, 111
1, 451680, Note_on_c, 9, 36, 111
1, 451694, Note_on_c, 9, 46, 0
1, 451920, Note_on_c, 9, 40, 111
1, 452159, Note_on_c, 9, 36, 0
1, 452159, Note_on_c, 9, 40, 0
1, 452160, Note_on_c, 9, 46, 111
1, 452189, Note_on_c, 9, 46, 0
1, 452640, Note_on_c, 9, 46, 111
1, 452640, Note_on_c, 9, 36, 111
1, 452669, Note_on_c, 9, 46, 0
1, 453119, Note_on_c, 9, 36, 0
1, 453120, Note_on_c, 9, 46, 111
1, 453149, Note_on_c, 9, 46, 0
1, 453600, Note_on_c, 9, 46, 111
1, 453600, Note_on_c, 9, 36, 111
1, 453629, Note_on_c, 9, 46, 0
1, 454079, Note_on_c, 9, 36, 0
1, 454080, Note_on_c, 9, 40, 111
1, 454080, Note_on_c, 9, 46, 111
1, 454109, Note_on_c, 9, 46, 0
1, 454320, Note_on_c, 9, 36, 111
1, 454559, Note_on_c, 9, 40, 0
1, 454559, Note_on_c, 9, 36, 0
1, 454560, Note_on_c, 9, 46, 111
1, 454574, Note_on_c, 9, 46, 0
1, 454800, Note_on_c, 9, 40, 111
1, 455039, Note_on_c, 9, 40, 0
1, 455040, Note_on_c, 9, 49, 111
1, 455040, Note_on_c, 9, 57, 111
1, 455040, Note_on_c, 9, 36, 111
1, 455069, Note_on_c, 9, 49, 0
1, 455069, Note_on_c, 9, 57, 0
1, 455519, Note_on_c, 9, 36, 0
1, 455520, Note_on_c, 9, 46, 111
1, 455520, Note_on_c, 9, 36, 111
1, 455534, Note_on_c, 9, 46, 0
1, 455760, Note_on_c, 9, 40, 111
1, 455999, Note_on_c, 9, 36, 0
1, 455999, Note_on_c, 9, 40, 0
1, 456000, Note_on_c, 9, 46, 111
1, 456029, Note_on_c, 9, 46, 0
1, 456240, Note_on_c, 9, 36, 111
1, 456479, Note_on_c, 9, 36, 0
1, 456480, Note_on_c, 9, 46, 111
1, 456480, Note_on_c, 9, 36, 111
1, 456509, Note_on_c, 9, 46, 0
1, 456959, Note_on_c, 9, 36, 0
1, 456960, Note_on_c, 9, 46, 111
1, 456989, Note_on_c, 9, 46, 0
1, 457200, Note_on_c, 9, 36, 111
1, 457439, Note_on_c, 9, 36, 0
1, 457440, Note_on_c, 9, 46, 111
1, 457440, Note_on_c, 9, 36, 111
1, 457469, Note_on_c, 9, 46, 0
1, 457919, Note_on_c, 9, 36, 0
1, 457920, Note_on_c, 9, 40, 111
1, 457920, Note_on_c, 9, 46, 111
1, 457949, Note_on_c, 9, 46, 0
1, 458160, Note_on_c, 9, 36, 111
1, 458399, Note_on_c, 9, 40, 0
1, 458399, Note_on_c, 9, 36, 0
1, 458400, Note_on_c, 9, 46, 111
1, 458414, Note_on_c, 9, 46, 0
1, 458640, Note_on_c, 9, 40, 111
1, 458879, Note_on_c, 9, 40, 0
1, 458880, Note_on_c, 9, 46, 111
1, 458880, Note_on_c, 9, 36, 111
1, 458909, Note_on_c, 9, 46, 0
1, 459359, Note_on_c, 9, 36, 0
1, 459360, Note_on_c, 9, 46, 111
1, 459360, Note_on_c, 9, 36, 111
1, 459374, Note_on_c, 9, 46, 0
1, 459600, Note_on_c, 9, 40, 111
1, 459839, Note_on_c, 9, 36, 0
1, 459839, Note_on_c, 9, 40, 0
1, 459840, Note_on_c, 9, 46, 111
1, 459869, Note_on_c, 9, 46, 0
1, 460080, Note_on_c, 9, 36, 111
1, 460319, Note_on_c, 9, 36, 0
1, 460320, Note_on_c, 9, 40, 111
1, 460320, Note_on_c, 9, 46, 111
1, 460349, Note_on_c, 9, 46, 0
1, 460799, Note_on_c, 9, 40, 0
1, 460800, Note_on_c, 9, 46, 111
1, 460800, Note_on_c, 9, 36, 111
1, 460814, Note_on_c, 9, 46, 0
1, 461040, Note_on_c, 9, 40, 111
1, 461279, Note_on_c, 9, 36, 0
1, 461279, Note_on_c, 9, 40, 0
1, 461280, Note_on_c, 9, 46, 111
1, 461309, Note_on_c, 9, 46, 0
1, 461520, Note_on_c, 9, 36, 111
1, 461759, Note_on_c, 9, 36, 0
1, 461760, Note_on_c, 9, 40, 111
1, 461760, Note_on_c, 9, 46, 111
1, 461789, Note_on_c, 9, 46, 0
1, 462239, Note_on_c, 9, 40, 0
1, 462240, Note_on_c, 9, 46, 111
1, 462240, Note_on_c, 9, 36, 111
1, 462254, Note_on_c, 9, 46, 0
1, 462480, Note_on_c, 9, 40, 111
1, 462719, Note_on_c, 9, 36, 0
1, 462719, Note_on_c, 9, 40, 0
1, 462720, Note_on_c, 9, 49, 111
1, 462720, Note_on_c, 9, 57, 111
1, 462720, Note_on_c, 9, 36, 111
1, 462749, Note_on_c, 9, 49, 0
1, 462749, Note_on_c, 9, 57, 0
1, 463199, Note_on_c, 9, 36, 0
1, 463200, Note_on_c, 9, 46, 111
1, 463200, Note_on_c, 9, 36, 111
1, 463214, Note_on_c, 9, 46, 0
1, 463440, Note_on_c, 9, 40, 111
1, 463679, Note_on_c, 9, 36, 0
1, 463679, Note_on_c, 9, 40, 0
1, 463680, Note_on_c, 9, 46, 111
1, 463709, Note_on_c, 9, 46, 0
1, 463920, Note_on_c, 9, 36, 111
1, 464159, Note_on_c, 9, 36, 0
1, 464160, Note_on_c, 9, 46, 111
1, 464160, Note_on_c, 9, 36, 111
1, 464189, Note_on_c, 9, 46, 0
1, 464639, Note_on_c, 9, 36, 0
1, 464640, Note_on_c, 9, 46, 111
1, 464669, Note_on_c, 9, 46, 0
1, 464880, Note_on_c, 9, 36, 111
1, 465119, Note_on_c, 9, 36, 0
1, 465120, Note_on_c, 9, 46, 111
1, 465149, Note_on_c, 9, 46, 0
1, 465360, Note_on_c, 9, 36, 111
1, 465599, Note_on_c, 9, 36, 0
1, 465600, Note_on_c, 9, 40, 111
1, 465600, Note_on_c, 9, 46, 111
1, 465629, Note_on_c, 9, 46, 0
1, 465840, Note_on_c, 9, 36, 111
1, 466079, Note_on_c, 9, 40, 0
1, 466079, Note_on_c, 9, 36, 0
1, 466080, Note_on_c, 9, 46, 111
1, 466094, Note_on_c, 9, 46, 0
1, 466320, Note_on_c, 9, 40, 111
1, 466559, Note_on_c, 9, 40, 0
1, 466560, Note_on_c, 9, 46, 111
1, 466560, Note_on_c, 9, 36, 111
1, 466589, Note_on_c, 9, 46, 0
1, 467039, Note_on_c, 9, 36, 0
1, 467040, Note_on_c, 9, 40, 111
1, 467040, Note_on_c, 9, 46, 111
1, 467069, Note_on_c, 9, 46, 0
1, 467519, Note_on_c, 9, 40, 0
1, 467520, Note_on_c, 9, 46, 111
1, 467520, Note_on_c, 9, 36, 111
1, 467534, Note_on_c, 9, 46, 0
1, 467760, Note_on_c, 9, 40, 111
1, 467999, Note_on_c, 9, 36, 0
1, 467999, Note_on_c, 9, 40, 0
1, 468000, Note_on_c, 9, 46, 111
1, 468000, Note_on_c, 9, 36, 111
1, 468029, Note_on_c, 9, 46, 0
1, 468479, Note_on_c, 9, 36, 0
1, 468480, Note_on_c, 9, 40, 111
1, 468480, Note_on_c, 9, 46, 111
1, 468480, Note_on_c, 9, 36, 111
1, 468509, Note_on_c, 9, 46, 0
1, 468959, Note_on_c, 9, 40, 0
1, 468959, Note_on_c, 9, 36, 0
1, 468960, Note_on_c, 9, 46, 111
1, 468960, Note_on_c, 9, 36, 111
1, 468974, Note_on_c, 9, 46, 0
1, 469200, Note_on_c, 9, 40, 111
1, 469439, Note_on_c, 9, 36, 0
1, 469439, Note_on_c, 9, 40, 0
1, 469440, Note_on_c, 9, 46, 111
1, 469440, Note_on_c, 9, 36, 111
1, 469469, Note_on_c, 9, 46, 0
1, 469919, Note_on_c, 9, 36, 0
1, 469920, Note_on_c, 9, 40, 111
1, 469920, Note_on_c, 9, 46, 111
1, 469920, Note_on_c, 9, 36, 111
1, 469949, Note_on_c, 9, 46, 0
1, 470399, Note_on_c, 9, 40, 0
1, 470399, Note_on_c, 9, 36, 0
1, 470400, Note_on_c, 9, 49, 111
1, 470400, Note_on_c, 9, 57, 111
1, 470400, Note_on_c, 9, 36, 111
1, 470429, Note_on_c, 9, 49, 0
1, 470429, Note_on_c, 9, 57, 0
1, 470639, Note_on_c, 9, 36, 0
1, 470640, Note_on_c, 9, 36, 111
1, 470879, Note_on_c, 9, 36, 0
1, 470880, Note_on_c, 9, 40, 111
1, 470880, Note_on_c, 9, 46, 111
1, 470909, Note_on_c, 9, 46, 0
1, 471120, Note_on_c, 9, 36, 111
1, 471359, Note_on_c, 9, 40, 0
1, 471359, Note_on_c, 9, 36, 0
1, 471360, Note_on_c, 9, 40, 111
1, 471360, Note_on_c, 9, 46, 111
1, 471389, Note_on_c, 9, 46, 0
1, 471600, Note_on_c, 9, 36, 111
1, 471839, Note_on_c, 9, 40, 0
1, 471839, Note_on_c, 9, 36, 0
1, 471840, Note_on_c, 9, 40, 111
1, 471840, Note_on_c, 9, 46, 111
1, 471869, Note_on_c, 9, 46, 0
1, 472080, Note_on_c, 9, 36, 111
1, 472319, Note_on_c, 9, 40, 0
1, 472319, Note_on_c, 9, 36, 0
1, 472320, Note_on_c, 9, 40, 111
1, 472320, Note_on_c, 9, 46, 111
1, 472349, Note_on_c, 9, 46, 0
1, 472560, Note_on_c, 9, 36, 111
1, 472799, Note_on_c, 9, 40, 0
1, 472799, Note_on_c, 9, 36, 0
1, 472800, Note_on_c, 9, 40, 111
1, 472800, Note_on_c, 9, 46, 111
1, 472829, Note_on_c, 9, 46, 0
1, 473040, Note_on_c, 9, 36, 111
1, 473279, Note_on_c, 9, 40, 0
1, 473279, Note_on_c, 9, 36, 0
1, 473280, Note_on_c, 9, 40, 111
1, 473280, Note_on_c, 9, 46, 111
1, 473309, Note_on_c, 9, 46, 0
1, 473520, Note_on_c, 9, 36, 111
1, 473759, Note_on_c, 9, 40, 0
1, 473759, Note_on_c, 9, 36, 0
1, 473760, Note_on_c, 9, 40, 111
1, 473760, Note_on_c, 9, 46, 111
1, 473789, Note_on_c, 9, 46, 0
1, 474000, Note_on_c, 9, 36, 111
1, 474239, Note_on_c, 9, 40, 0
1, 474239, Note_on_c, 9, 36, 0
1, 474240, Note_on_c, 9, 40, 111
1, 474240, Note_on_c, 9, 46, 111
1, 474269, Note_on_c, 9, 46, 0
1, 474480, Note_on_c, 9, 36, 111
1, 474719, Note_on_c, 9, 40, 0
1, 474719, Note_on_c, 9, 36, 0
1, 474720, Note_on_c, 9, 40, 111
1, 474720, Note_on_c, 9, 46, 111
1, 474749, Note_on_c, 9, 46, 0
1, 474960, Note_on_c, 9, 36, 111
1, 475199, Note_on_c, 9, 40, 0
1, 475199, Note_on_c, 9, 36, 0
1, 475200, Note_on_c, 9, 40, 111
1, 475200, Note_on_c, 9, 46, 111
1, 475229, Note_on_c, 9, 46, 0
1, 475440, Note_on_c, 9, 36, 111
1, 475679, Note_on_c, 9, 40, 0
1, 475679, Note_on_c, 9, 36, 0
1, 475680, Note_on_c, 9, 40, 111
1, 475680, Note_on_c, 9, 46, 111
1, 475709, Note_on_c, 9, 46, 0
1, 475920, Note_on_c, 9, 36, 111
1, 476159, Note_on_c, 9, 40, 0
1, 476159, Note_on_c, 9, 36, 0
1, 476160, Note_on_c, 9, 40, 111
1, 476160, Note_on_c, 9, 46, 111
1, 476189, Note_on_c, 9, 46, 0
1, 476400, Note_on_c, 9, 36, 111
1, 476639, Note_on_c, 9, 40, 0
1, 476639, Note_on_c, 9, 36, 0
1, 476640, Note_on_c, 9, 40, 111
1, 476640, Note_on_c, 9, 46, 111
1, 476669, Note_on_c, 9, 46, 0
1, 476880, Note_on_c, 9, 36, 111
1, 477119, Note_on_c, 9, 40, 0
1, 477119, Note_on_c, 9, 36, 0
1, 477120, Note_on_c, 9, 40, 111
1, 477120, Note_on_c, 9, 46, 111
1, 477149, Note_on_c, 9, 46, 0
1, 477360, Note_on_c, 9, 36, 111
1, 477599, Note_on_c, 9, 40, 0
1, 477599, Note_on_c, 9, 36, 0
1, 477600, Note_on_c, 9, 40, 111
1, 477600, Note_on_c, 9, 46, 111
1, 477629, Note_on_c, 9, 46, 0
1, 477840, Note_on_c, 9, 36, 111
1, 478079, Note_on_c, 9, 40, 0
1, 478079, Note_on_c, 9, 36, 0
1, 478080, Note_on_c, 9, 49, 111
1, 478080, Note_on_c, 9, 57, 111
1, 478080, Note_on_c, 9, 36, 111
1, 478109, Note_on_c, 9, 49, 0
1, 478109, Note_on_c, 9, 57, 0
1, 478319, Note_on_c, 9, 36, 0
1, 478320, Note_on_c, 9, 36, 111
1, 478559, Note_on_c, 9, 36, 0
1, 478560, Note_on_c, 9, 40, 111
1, 478560, Note_on_c, 9, 46, 111
1, 478589, Note_on_c, 9, 46, 0
1, 478800, Note_on_c, 9, 36, 111
1, 479039, Note_on_c, 9, 40, 0
1, 479039, Note_on_c, 9, 36, 0
1, 479040, Note_on_c, 9, 40, 111
1, 479040, Note_on_c, 9, 46, 111
1, 479069, Note_on_c, 9, 46, 0
1, 479280, Note_on_c, 9, 36, 111
1, 479519, Note_on_c, 9, 40, 0
1, 479519, Note_on_c, 9, 36, 0
1, 479520, Note_on_c, 9, 40, 111
1, 479520, Note_on_c, 9, 46, 111
1, 479549, Note_on_c, 9, 46, 0
1, 479760, Note_on_c, 9, 36, 111
1, 479999, Note_on_c, 9, 40, 0
1, 479999, Note_on_c, 9, 36, 0
1, 480000, Note_on_c, 9, 40, 111
1, 480000, Note_on_c, 9, 46, 111
1, 480029, Note_on_c, 9, 46, 0
1, 480240, Note_on_c, 9, 36, 111
1, 480479, Note_on_c, 9, 40, 0
1, 480479, Note_on_c, 9, 36, 0
1, 480480, Note_on_c, 9, 40, 111
1, 480480, Note_on_c, 9, 46, 111
1, 480509, Note_on_c, 9, 46, 0
1, 480720, Note_on_c, 9, 36, 111
1, 480959, Note_on_c, 9, 40, 0
1, 480959, Note_on_c, 9, 36, 0
1, 480960, Note_on_c, 9, 40, 111
1, 480960, Note_on_c, 9, 46, 111
1, 480989, Note_on_c, 9, 46, 0
1, 481200, Note_on_c, 9, 36, 111
1, 481439, Note_on_c, 9, 40, 0
1, 481439, Note_on_c, 9, 36, 0
1, 481440, Note_on_c, 9, 40, 111
1, 481440, Note_on_c, 9, 46, 111
1, 481469, Note_on_c, 9, 46, 0
1, 481680, Note_on_c, 9, 36, 111
1, 481919, Note_on_c, 9, 40, 0
1, 481919, Note_on_c, 9, 36, 0
1, 481920, Note_on_c, 9, 40, 111
1, 481920, Note_on_c, 9, 46, 111
1, 481949, Note_on_c, 9, 46, 0
1, 482160, Note_on_c, 9, 36, 111
1, 482399, Note_on_c, 9, 40, 0
1, 482399, Note_on_c, 9, 36, 0
1, 482400, Note_on_c, 9, 40, 111
1, 482400, Note_on_c, 9, 46, 111
1, 482429, Note_on_c, 9, 46, 0
1, 482640, Note_on_c, 9, 36, 111
1, 482879, Note_on_c, 9, 40, 0
1, 482879, Note_on_c, 9, 36, 0
1, 482880, Note_on_c, 9, 40, 111
1, 482880, Note_on_c, 9, 46, 111
1, 482909, Note_on_c, 9, 46, 0
1, 483120, Note_on_c, 9, 36, 111
1, 483359, Note_on_c, 9, 40, 0
1, 483359, Note_on_c, 9, 36, 0
1, 483360, Note_on_c, 9, 40, 111
1, 483360, Note_on_c, 9, 46, 111
1, 483389, Note_on_c, 9, 46, 0
1, 483600, Note_on_c, 9, 36, 111
1, 483839, Note_on_c, 9, 40, 0
1, 483839, Note_on_c, 9, 36, 0
1, 483840, Note_on_c, 9, 40, 111
1, 483840, Note_on_c, 9, 46, 111
1, 483869, Note_on_c, 9, 46, 0
1, 484080, Note_on_c, 9, 36, 111
1, 484319, Note_on_c, 9, 40, 0
1, 484319, Note_on_c, 9, 36, 0
1, 484320, Note_on_c, 9, 40, 111
1, 484320, Note_on_c, 9, 46, 111
1, 484349, Note_on_c, 9, 46, 0
1, 484560, Note_on_c, 9, 36, 111
1, 484799, Note_on_c, 9, 40, 0
1, 484799, Note_on_c, 9, 36, 0
1, 484800, Note_on_c, 9, 40, 111
1, 484800, Note_on_c, 9, 46, 111
1, 484829, Note_on_c, 9, 46, 0
1, 485040, Note_on_c, 9, 36, 111
1, 485279, Note_on_c, 9, 40, 0
1, 485279, Note_on_c, 9, 36, 0
1, 485280, Note_on_c, 9, 40, 111
1, 485280, Note_on_c, 9, 46, 111
1, 485309, Note_on_c, 9, 46, 0
1, 485520, Note_on_c, 9, 36, 111
1, 485759, Note_on_c, 9, 40, 0
1, 485759, Note_on_c, 9, 36, 0
1, 485760, Note_on_c, 9, 49, 111
1, 485760, Note_on_c, 9, 57, 111
1, 485760, Note_on_c, 9, 36, 111
1, 485789, Note_on_c, 9, 49, 0
1, 485789, Note_on_c, 9, 57, 0
1, 485999, Note_on_c, 9, 36, 0
1, 486000, Note_on_c, 9, 36, 111
1, 486239, Note_on_c, 9, 36, 0
1, 486240, Note_on_c, 9, 40, 111
1, 486240, Note_on_c, 9, 46, 111
1, 486269, Note_on_c, 9, 46, 0
1, 486480, Note_on_c, 9, 36, 111
1, 486719, Note_on_c, 9, 40, 0
1, 486719, Note_on_c, 9, 36, 0
1, 486720, Note_on_c, 9, 40, 111
1, 486720, Note_on_c, 9, 46, 111
1, 486749, Note_on_c, 9, 46, 0
1, 486960, Note_on_c, 9, 36, 111
1, 487199, Note_on_c, 9, 40, 0
1, 487199, Note_on_c, 9, 36, 0
1, 487200, Note_on_c, 9, 40, 111
1, 487200, Note_on_c, 9, 46, 111
1, 487229, Note_on_c, 9, 46, 0
1, 487440, Note_on_c, 9, 36, 111
1, 487679, Note_on_c, 9, 40, 0
1, 487679, Note_on_c, 9, 36, 0
1, 487680, Note_on_c, 9, 40, 111
1, 487680, Note_on_c, 9, 46, 111
1, 487709, Note_on_c, 9, 46, 0
1, 487920, Note_on_c, 9, 36, 111
1, 488159, Note_on_c, 9, 40, 0
1, 488159, Note_on_c, 9, 36, 0
1, 488160, Note_on_c, 9, 40, 111
1, 488160, Note_on_c, 9, 46, 111
1, 488189, Note_on_c, 9, 46, 0
1, 488400, Note_on_c, 9, 36, 111
1, 488639, Note_on_c, 9, 40, 0
1, 488639, Note_on_c, 9, 36, 0
1, 488640, Note_on_c, 9, 40, 111
1, 488640, Note_on_c, 9, 46, 111
1, 488669, Note_on_c, 9, 46, 0
1, 488880, Note_on_c, 9, 36, 111
1, 489119, Note_on_c, 9, 40, 0
1, 489119, Note_on_c, 9, 36, 0
1, 489120, Note_on_c, 9, 40, 111
1, 489120, Note_on_c, 9, 46, 111
1, 489149, Note_on_c, 9, 46, 0
1, 489360, Note_on_c, 9, 36, 111
1, 489599, Note_on_c, 9, 40, 0
1, 489599, Note_on_c, 9, 36, 0
1, 489600, Note_on_c, 9, 40, 111
1, 489600, Note_on_c, 9, 46, 111
1, 489629, Note_on_c, 9, 46, 0
1, 489840, Note_on_c, 9, 36, 111
1, 490079, Note_on_c, 9, 40, 0
1, 490079, Note_on_c, 9, 36, 0
1, 490080, Note_on_c, 9, 40, 111
1, 490080, Note_on_c, 9, 46, 111
1, 490109, Note_on_c, 9, 46, 0
1, 490320, Note_on_c, 9, 36, 111
1, 490559, Note_on_c, 9, 40, 0
1, 490559, Note_on_c, 9, 36, 0
1, 490560, Note_on_c, 9, 40, 111
1, 490560, Note_on_c, 9, 46, 111
1, 490589, Note_on_c, 9, 46, 0
1, 490800, Note_on_c, 9, 36, 111
1, 491039, Note_on_c, 9, 40, 0
1, 491039, Note_on_c, 9, 36, 0
1, 491040, Note_on_c, 9, 40, 111
1, 491040, Note_on_c, 9, 46, 111
1, 491069, Note_on_c, 9, 46, 0
1, 491280, Note_on_c, 9, 36, 111
1, 491519, Note_on_c, 9, 40, 0
1, 491519, Note_on_c, 9, 36, 0
1, 491520, Note_on_c, 9, 40, 111
1, 491520, Note_on_c, 9, 46, 111
1, 491549, Note_on_c, 9, 46, 0
1, 491760, Note_on_c, 9, 36, 111
1, 491999, Note_on_c, 9, 40, 0
1, 491999, Note_on_c, 9, 36, 0
1, 492000, Note_on_c, 9, 40, 111
1, 492000, Note_on_c, 9, 46, 111
1, 492029, Note_on_c, 9, 46, 0
1, 492240, Note_on_c, 9, 36, 111
1, 492479, Note_on_c, 9, 40, 0
1, 492479, Note_on_c, 9, 36, 0
1, 492480, Note_on_c, 9, 40, 111
1, 492480, Note_on_c, 9, 46, 111
1, 492509, Note_on_c, 9, 46, 0
1, 492720, Note_on_c, 9, 36, 111
1, 492959, Note_on_c, 9, 40, 0
1, 492959, Note_on_c, 9, 36, 0
1, 492960, Note_on_c, 9, 40, 111
1, 492960, Note_on_c, 9, 46, 111
1, 492989, Note_on_c, 9, 46, 0
1, 493200, Note_on_c, 9, 36, 111
1, 493439, Note_on_c, 9, 40, 0
1, 493439, Note_on_c, 9, 36, 0
1, 493440, Note_on_c, 9, 49, 111
1, 493440, Note_on_c, 9, 57, 111
1, 493440, Note_on_c, 9, 36, 111
1, 493469, Note_on_c, 9, 49, 0
1, 493469, Note_on_c, 9, 57, 0
1, 493679, Note_on_c, 9, 36, 0
1, 493680, Note_on_c, 9, 36, 111
1, 493919, Note_on_c, 9, 36, 0
1, 493920, Note_on_c, 9, 40, 111
1, 493920, Note_on_c, 9, 46, 111
1, 493949, Note_on_c, 9, 46, 0
1, 494160, Note_on_c, 9, 36, 111
1, 494399, Note_on_c, 9, 40, 0
1, 494399, Note_on_c, 9, 36, 0
1, 494400, Note_on_c, 9, 40, 111
1, 494400, Note_on_c, 9, 46, 111
1, 494429, Note_on_c, 9, 46, 0
1, 494640, Note_on_c, 9, 36, 111
1, 494879, Note_on_c, 9, 40, 0
1, 494879, Note_on_c, 9, 36, 0
1, 494880, Note_on_c, 9, 40, 111
1, 494880, Note_on_c, 9, 46, 111
1, 494909, Note_on_c, 9, 46, 0
1, 495120, Note_on_c, 9, 36, 111
1, 495359, Note_on_c, 9, 40, 0
1, 495359, Note_on_c, 9, 36, 0
1, 495360, Note_on_c, 9, 40, 111
1, 495360, Note_on_c, 9, 46, 111
1, 495389, Note_on_c, 9, 46, 0
1, 495600, Note_on_c, 9, 36, 111
1, 495839, Note_on_c, 9, 40, 0
1, 495839, Note_on_c, 9, 36, 0
1, 495840, Note_on_c, 9, 40, 111
1, 495840, Note_on_c, 9, 46, 111
1, 495869, Note_on_c, 9, 46, 0
1, 496080, Note_on_c, 9, 36, 111
1, 496319, Note_on_c, 9, 40, 0
1, 496319, Note_on_c, 9, 36, 0
1, 496320, Note_on_c, 9, 40, 111
1, 496320, Note_on_c, 9, 46, 111
1, 496349, Note_on_c, 9, 46, 0
1, 496560, Note_on_c, 9, 36, 111
1, 496799, Note_on_c, 9, 40, 0
1, 496799, Note_on_c, 9, 36, 0
1, 496800, Note_on_c, 9, 40, 111
1, 496800, Note_on_c, 9, 46, 111
1, 496829, Note_on_c, 9, 46, 0
1, 497040, Note_on_c, 9, 36, 111
1, 497279, Note_on_c, 9, 40, 0
1, 497279, Note_on_c, 9, 36, 0
1, 497280, Note_on_c, 9, 40, 111
1, 497280, Note_on_c, 9, 46, 111
1, 497309, Note_on_c, 9, 46, 0
1, 497520, Note_on_c, 9, 36, 111
1, 497759, Note_on_c, 9, 40, 0
1, 497759, Note_on_c, 9, 36, 0
1, 497760, Note_on_c, 9, 40, 111
1, 497760, Note_on_c, 9, 46, 111
1, 497789, Note_on_c, 9, 46, 0
1, 498000, Note_on_c, 9, 36, 111
1, 498239, Note_on_c, 9, 40, 0
1, 498239, Note_on_c, 9, 36, 0
1, 498240, Note_on_c, 9, 40, 111
1, 498240, Note_on_c, 9, 46, 111
1, 498269, Note_on_c, 9, 46, 0
1, 498480, Note_on_c, 9, 36, 111
1, 498719, Note_on_c, 9, 40, 0
1, 498719, Note_on_c, 9, 36, 0
1, 498720, Note_on_c, 9, 40, 111
1, 498720, Note_on_c, 9, 46, 111
1, 498749, Note_on_c, 9, 46, 0
1, 498960, Note_on_c, 9, 36, 111
1, 499199, Note_on_c, 9, 40, 0
1, 499199, Note_on_c, 9, 36, 0
1, 499200, Note_on_c, 9, 40, 111
1, 499200, Note_on_c, 9, 46, 111
1, 499229, Note_on_c, 9, 46, 0
1, 499440, Note_on_c, 9, 36, 111
1, 499679, Note_on_c, 9, 40, 0
1, 499679, Note_on_c, 9, 36, 0
1, 499680, Note_on_c, 9, 40, 111
1, 499680, Note_on_c, 9, 46, 111
1, 499709, Note_on_c, 9, 46, 0
1, 499920, Note_on_c, 9, 36, 111
1, 500159, Note_on_c, 9, 40, 0
1, 500159, Note_on_c, 9, 36, 0
1, 500160, Note_on_c, 9, 40, 111
1, 500160, Note_on_c, 9, 46, 111
1, 500189, Note_on_c, 9, 46, 0
1, 500400, Note_on_c, 9, 36, 111
1, 500639, Note_on_c, 9, 40, 0
1, 500639, Note_on_c, 9, 36, 0
1, 500640, Note_on_c, 9, 40, 111
1, 500640, Note_on_c, 9, 46, 111
1, 500669, Note_on_c, 9, 46, 0
1, 500880, Note_on_c, 9, 36, 111
1, 501119, Note_on_c, 9, 40, 0
1, 501119, Note_on_c, 9, 36, 0
1, 501120, Note_on_c, 9, 49, 111
1, 501120, Note_on_c, 9, 57, 111
1, 501120, Note_on_c, 9, 36, 111
1, 501149, Note_on_c, 9, 49, 0
1, 501149, Note_on_c, 9, 57, 0
1, 501359, Note_on_c, 9, 36, 0
1, 501360, Note_on_c, 9, 36, 111
1, 501599, Note_on_c, 9, 36, 0
1, 501600, Note_on_c, 9, 40, 111
1, 501600, Note_on_c, 9, 46, 111
1, 501629, Note_on_c, 9, 46, 0
1, 501840, Note_on_c, 9, 36, 111
1, 502079, Note_on_c, 9, 40, 0
1, 502079, Note_on_c, 9, 36, 0
1, 502080, Note_on_c, 9, 40, 111
1, 502080, Note_on_c, 9, 46, 111
1, 502109, Note_on_c, 9, 46, 0
1, 502320, Note_on_c, 9, 36, 111
1, 502559, Note_on_c, 9, 40, 0
1, 502559, Note_on_c, 9, 36, 0
1, 502560, Note_on_c, 9, 40, 111
1, 502560, Note_on_c, 9, 46, 111
1, 502589, Note_on_c, 9, 46, 0
1, 502800, Note_on_c, 9, 36, 111
1, 503039, Note_on_c, 9, 40, 0
1, 503039, Note_on_c, 9, 36, 0
1, 503040, Note_on_c, 9, 40, 111
1, 503040, Note_on_c, 9, 46, 111
1, 503069, Note_on_c, 9, 46, 0
1, 503280, Note_on_c, 9, 36, 111
1, 503519, Note_on_c, 9, 40, 0
1, 503519, Note_on_c, 9, 36, 0
1, 503520, Note_on_c, 9, 40, 111
1, 503520, Note_on_c, 9, 46, 111
1, 503549, Note_on_c, 9, 46, 0
1, 503760, Note_on_c, 9, 36, 111
1, 503999, Note_on_c, 9, 40, 0
1, 503999, Note_on_c, 9, 36, 0
1, 504000, Note_on_c, 9, 40, 111
1, 504000, Note_on_c, 9, 46, 111
1, 504029, Note_on_c, 9, 46, 0
1, 504240, Note_on_c, 9, 36, 111
1, 504479, Note_on_c, 9, 40, 0
1, 504479, Note_on_c, 9, 36, 0
1, 504480, Note_on_c, 9, 40, 111
1, 504480, Note_on_c, 9, 46, 111
1, 504509, Note_on_c, 9, 46, 0
1, 504720, Note_on_c, 9, 36, 111
1, 504959, Note_on_c, 9, 40, 0
1, 504959, Note_on_c, 9, 36, 0
1, 504960, Note_on_c, 9, 40, 111
1, 504960, Note_on_c, 9, 46, 111
1, 504989, Note_on_c, 9, 46, 0
1, 505200, Note_on_c, 9, 36, 111
1, 505439, Note_on_c, 9, 40, 0
1, 505439, Note_on_c, 9, 36, 0
1, 505440, Note_on_c, 9, 40, 111
1, 505440, Note_on_c, 9, 46, 111
1, 505469, Note_on_c, 9, 46, 0
1, 505680, Note_on_c, 9, 36, 111
1, 505919, Note_on_c, 9, 40, 0
1, 505919, Note_on_c, 9, 36, 0
1, 505920, Note_on_c, 9, 40, 111
1, 505920, Note_on_c, 9, 46, 111
1, 505949, Note_on_c, 9, 46, 0
1, 506160, Note_on_c, 9, 36, 111
1, 506399, Note_on_c, 9, 40, 0
1, 506399, Note_on_c, 9, 36, 0
1, 506400, Note_on_c, 9, 40, 111
1, 506400, Note_on_c, 9, 46, 111
1, 506429, Note_on_c, 9, 46, 0
1, 506640, Note_on_c, 9, 36, 111
1, 506879, Note_on_c, 9, 40, 0
1, 506879, Note_on_c, 9, 36, 0
1, 506880, Note_on_c, 9, 40, 111
1, 506880, Note_on_c, 9, 46, 111
1, 506909, Note_on_c, 9, 46, 0
1, 507120, Note_on_c, 9, 36, 111
1, 507359, Note_on_c, 9, 40, 0
1, 507359, Note_on_c, 9, 36, 0
1, 507360, Note_on_c, 9, 40, 111
1, 507360, Note_on_c, 9, 46, 111
1, 507389, Note_on_c, 9, 46, 0
1, 507600, Note_on_c, 9, 36, 111
1, 507839, Note_on_c, 9, 40, 0
1, 507839, Note_on_c, 9, 36, 0
1, 507840, Note_on_c, 9, 40, 111
1, 507840, Note_on_c, 9, 46, 111
1, 507869, Note_on_c, 9, 46, 0
1, 508080, Note_on_c, 9, 36, 111
1, 508319, Note_on_c, 9, 40, 0
1, 508319, Note_on_c, 9, 36, 0
1, 508320, Note_on_c, 9, 40, 111
1, 508320, Note_on_c, 9, 46, 111
1, 508349, Note_on_c, 9, 46, 0
1, 508560, Note_on_c, 9, 36, 111
1, 508799, Note_on_c, 9, 40, 0
1, 508799, Note_on_c, 9, 36, 0
1, 508800, Note_on_c, 9, 49, 111
1, 508800, Note_on_c, 9, 57, 111
1, 508800, Note_on_c, 9, 36, 111
1, 508829, Note_on_c, 9, 49, 0
1, 508829, Note_on_c, 9, 57, 0
1, 509039, Note_on_c, 9, 36, 0
1, 509040, Note_on_c, 9, 36, 111
1, 509279, Note_on_c, 9, 36, 0
1, 509280, Note_on_c, 9, 40, 111
1, 509280, Note_on_c, 9, 46, 111
1, 509309, Note_on_c, 9, 46, 0
1, 509520, Note_on_c, 9, 36, 111
1, 509759, Note_on_c, 9, 40, 0
1, 509759, Note_on_c, 9, 36, 0
1, 509760, Note_on_c, 9, 40, 111
1, 509760, Note_on_c, 9, 46, 111
1, 509789, Note_on_c, 9, 46, 0
1, 510000, Note_on_c, 9, 36, 111
1, 510239, Note_on_c, 9, 40, 0
1, 510239, Note_on_c, 9, 36, 0
1, 510240, Note_on_c, 9, 40, 111
1, 510240, Note_on_c, 9, 46, 111
1, 510269, Note_on_c, 9, 46, 0
1, 510480, Note_on_c, 9, 36, 111
1, 510719, Note_on_c, 9, 40, 0
1, 510719, Note_on_c, 9, 36, 0
1, 510720, Note_on_c, 9, 40, 111
1, 510720, Note_on_c, 9, 46, 111
1, 510749, Note_on_c, 9, 46, 0
1, 510960, Note_on_c, 9, 36, 111
1, 511199, Note_on_c, 9, 40, 0
1, 511199, Note_on_c, 9, 36, 0
1, 511200, Note_on_c, 9, 40, 111
1, 511200, Note_on_c, 9, 46, 111
1, 511229, Note_on_c, 9, 46, 0
1, 511440, Note_on_c, 9, 36, 111
1, 511679, Note_on_c, 9, 40, 0
1, 511679, Note_on_c, 9, 36, 0
1, 511680, Note_on_c, 9, 40, 111
1, 511680, Note_on_c, 9, 46, 111
1, 511709, Note_on_c, 9, 46, 0
1, 511920, Note_on_c, 9, 36, 111
1, 512159, Note_on_c, 9, 40, 0
1, 512159, Note_on_c, 9, 36, 0
1, 512160, Note_on_c, 9, 40, 111
1, 512160, Note_on_c, 9, 46, 111
1, 512189, Note_on_c, 9, 46, 0
1, 512400, Note_on_c, 9, 36, 111
1, 512639, Note_on_c, 9, 40, 0
1, 512639, Note_on_c, 9, 36, 0
1, 512640, Note_on_c, 9, 40, 111
1, 512640, Note_on_c, 9, 46, 111
1, 512669, Note_on_c, 9, 46, 0
1, 512880, Note_on_c, 9, 36, 111
1, 513119, Note_on_c, 9, 40, 0
1, 513119, Note_on_c, 9, 36, 0
1, 513120, Note_on_c, 9, 40, 111
1, 513120, Note_on_c, 9, 46, 111
1, 513149, Note_on_c, 9, 46, 0
1, 513360, Note_on_c, 9, 36, 111
1, 513599, Note_on_c, 9, 40, 0
1, 513599, Note_on_c, 9, 36, 0
1, 513600, Note_on_c, 9, 40, 111
1, 513600, Note_on_c, 9, 46, 111
1, 513629, Note_on_c, 9, 46, 0
1, 513840, Note_on_c, 9, 36, 111
1, 514079, Note_on_c, 9, 40, 0
1, 514079, Note_on_c, 9, 36, 0
1, 514080, Note_on_c, 9, 40, 111
1, 514080, Note_on_c, 9, 46, 111
1, 514109, Note_on_c, 9, 46, 0
1, 514320, Note_on_c, 9, 36, 111
1, 514559, Note_on_c, 9, 40, 0
1, 514559, Note_on_c, 9, 36, 0
1, 514560, Note_on_c, 9, 40, 111
1, 514560, Note_on_c, 9, 46, 111
1, 514589, Note_on_c, 9, 46, 0
1, 514800, Note_on_c, 9, 36, 111
1, 515039, Note_on_c, 9, 40, 0
1, 515039, Note_on_c, 9, 36, 0
1, 515040, Note_on_c, 9, 40, 111
1, 515040, Note_on_c, 9, 46, 111
1, 515069, Note_on_c, 9, 46, 0
1, 515280, Note_on_c, 9, 36, 111
1, 515519, Note_on_c, 9, 40, 0
1, 515519, Note_on_c, 9, 36, 0
1, 515520, Note_on_c, 9, 40, 111
1, 515520, Note_on_c, 9, 46, 111
1, 515549, Note_on_c, 9, 46, 0
1, 515760, Note_on_c, 9, 36, 111
1, 515999, Note_on_c, 9, 40, 0
1, 515999, Note_on_c, 9, 36, 0
1, 516000, Note_on_c, 9, 40, 111
1, 516000, Note_on_c, 9, 46, 111
1, 516029, Note_on_c, 9, 46, 0
1, 516240, Note_on_c, 9, 36, 111
1, 516479, Note_on_c, 9, 40, 0
1, 516479, Note_on_c, 9, 36, 0
1, 516480, Note_on_c, 9, 40, 111
1, 516480, Note_on_c, 9, 46, 111
1, 516509, Note_on_c, 9, 46, 0
1, 516720, Note_on_c, 9, 36, 111
1, 516959, Note_on_c, 9, 40, 0
1, 516959, Note_on_c, 9, 36, 0
1, 516960, Note_on_c, 9, 40, 111
1, 516960, Note_on_c, 9, 46, 111
1, 516989, Note_on_c, 9, 46, 0
1, 517200, Note_on_c, 9, 36, 111
1, 517439, Note_on_c, 9, 40, 0
1, 517439, Note_on_c, 9, 36, 0
1, 517440, Note_on_c, 9, 40, 111
1, 517440, Note_on_c, 9, 46, 111
1, 517469, Note_on_c, 9, 46, 0
1, 517680, Note_on_c, 9, 36, 111
1, 517919, Note_on_c, 9, 40, 0
1, 517919, Note_on_c, 9, 36, 0
1, 517920, Note_on_c, 9, 40, 111
1, 517920, Note_on_c, 9, 46, 111
1, 517949, Note_on_c, 9, 46, 0
1, 518160, Note_on_c, 9, 36, 111
1, 518399, Note_on_c, 9, 40, 0
1, 518399, Note_on_c, 9, 36, 0
1, 518400, Note_on_c, 9, 40, 111
1, 518400, Note_on_c, 9, 46, 111
1, 518429, Note_on_c, 9, 46, 0
1, 518640, Note_on_c, 9, 36, 111
1, 518879, Note_on_c, 9, 40, 0
1, 518879, Note_on_c, 9, 36, 0
1, 518880, Note_on_c, 9, 40, 111
1, 518880, Note_on_c, 9, 46, 111
1, 518909, Note_on_c, 9, 46, 0
1, 519120, Note_on_c, 9, 36, 111
1, 519359, Note_on_c, 9, 40, 0
1, 519359, Note_on_c, 9, 36, 0
1, 519360, Note_on_c, 9, 40, 111
1, 519360, Note_on_c, 9, 46, 111
1, 519389, Note_on_c, 9, 46, 0
1, 519600, Note_on_c, 9, 36, 111
1, 519839, Note_on_c, 9, 40, 0
1, 519839, Note_on_c, 9, 36, 0
1, 519840, Note_on_c, 9, 40, 111
1, 519840, Note_on_c, 9, 46, 111
1, 519869, Note_on_c, 9, 46, 0
1, 520080, Note_on_c, 9, 36, 111
1, 520319, Note_on_c, 9, 40, 0
1, 520319, Note_on_c, 9, 36, 0
1, 520320, Note_on_c, 9, 40, 111
1, 520320, Note_on_c, 9, 46, 111
1, 520349, Note_on_c, 9, 46, 0
1, 520560, Note_on_c, 9, 36, 111
1, 520799, Note_on_c, 9, 40, 0
1, 520799, Note_on_c, 9, 36, 0
1, 520800, Note_on_c, 9, 40, 111
1, 520800, Note_on_c, 9, 46, 111
1, 520829, Note_on_c, 9, 46, 0
1, 521040, Note_on_c, 9, 36, 111
1, 521279, Note_on_c, 9, 40, 0
1, 521279, Note_on_c, 9, 36, 0
1, 521280, Note_on_c, 9, 40, 111
1, 521280, Note_on_c, 9, 46, 111
1, 521309, Note_on_c, 9, 46, 0
1, 521520, Note_on_c, 9, 36, 111
1, 521759, Note_on_c, 9, 40, 0
1, 521759, Note_on_c, 9, 36, 0
1, 521760, Note_on_c, 9, 40, 111
1, 521760, Note_on_c, 9, 46, 111
1, 521789, Note_on_c, 9, 46, 0
1, 522000, Note_on_c, 9, 36, 111
1, 522239, Note_on_c, 9, 40, 0
1, 522239, Note_on_c, 9, 36, 0
1, 522240, Note_on_c, 9, 40, 111
1, 522240, Note_on_c, 9, 46, 111
1, 522269, Note_on_c, 9, 46, 0
1, 522480, Note_on_c, 9, 36, 111
1, 522719, Note_on_c, 9, 40, 0
1, 522719, Note_on_c, 9, 36, 0
1, 522720, Note_on_c, 9, 40, 111
1, 522720, Note_on_c, 9, 46, 111
1, 522749, Note_on_c, 9, 46, 0
1, 522960, Note_on_c, 9, 36, 111
1, 523199, Note_on_c, 9, 40, 0
1, 523199, Note_on_c, 9, 36, 0
1, 523200, Note_on_c, 9, 40, 111
1, 523200, Note_on_c, 9, 46, 111
1, 523229, Note_on_c, 9, 46, 0
1, 523440, Note_on_c, 9, 36, 111
1, 523679, Note_on_c, 9, 40, 0
1, 523679, Note_on_c, 9, 36, 0
1, 523680, Note_on_c, 9, 40, 111
1, 523680, Note_on_c, 9, 46, 111
1, 523709, Note_on_c, 9, 46, 0
1, 523920, Note_on_c, 9, 36, 111
1, 524159, Note_on_c, 9, 40, 0
1, 524159, Note_on_c, 9, 36, 0
1, 524160, Note_on_c, 9, 40, 111
1, 524160, Note_on_c, 9, 46, 111
1, 524189, Note_on_c, 9, 46, 0
1, 524400, Note_on_c, 9, 36, 111
1, 524639, Note_on_c, 9, 40, 0
1, 524639, Note_on_c, 9, 36, 0
1, 524640, Note_on_c, 9, 40, 111
1, 524640, Note_on_c, 9, 46, 111
1, 524669, Note_on_c, 9, 46, 0
1, 524880, Note_on_c, 9, 36, 111
1, 525119, Note_on_c, 9, 40, 0
1, 525119, Note_on_c, 9, 36, 0
1, 525120, Note_on_c, 9, 40, 111
1, 525120, Note_on_c, 9, 46, 111
1, 525149, Note_on_c, 9, 46, 0
1, 525360, Note_on_c, 9, 36, 111
1, 525599, Note_on_c, 9, 40, 0
1, 525599, Note_on_c, 9, 36, 0
1, 525600, Note_on_c, 9, 40, 111
1, 525600, Note_on_c, 9, 46, 111
1, 525629, Note_on_c, 9, 46, 0
1, 525840, Note_on_c, 9, 36, 111
1, 526079, Note_on_c, 9, 40, 0
1, 526079, Note_on_c, 9, 36, 0
1, 526080, Note_on_c, 9, 40, 111
1, 526080, Note_on_c, 9, 46, 111
1, 526109, Note_on_c, 9, 46, 0
1, 526320, Note_on_c, 9, 36, 111
1, 526559, Note_on_c, 9, 40, 0
1, 526559, Note_on_c, 9, 36, 0
1, 526560, Note_on_c, 9, 40, 111
1, 526560, Note_on_c, 9, 46, 111
1, 526589, Note_on_c, 9, 46, 0
1, 526800, Note_on_c, 9, 36, 111
1, 527039, Note_on_c, 9, 40, 0
1, 527039, Note_on_c, 9, 36, 0
1, 527040, Note_on_c, 9, 40, 111
1, 527040, Note_on_c, 9, 46, 111
1, 527069, Note_on_c, 9, 46, 0
1, 527280, Note_on_c, 9, 36, 111
1, 527519, Note_on_c, 9, 40, 0
1, 527519, Note_on_c, 9, 36, 0
1, 527520, Note_on_c, 9, 40, 111
1, 527520, Note_on_c, 9, 46, 111
1, 527549, Note_on_c, 9, 46, 0
1, 527760, Note_on_c, 9, 36, 111
1, 527999, Note_on_c, 9, 40, 0
1, 527999, Note_on_c, 9, 36, 0
1, 528000, Note_on_c, 9, 40, 111
1, 528000, Note_on_c, 9, 46, 111
1, 528029, Note_on_c, 9, 46, 0
1, 528240, Note_on_c, 9, 36, 111
1, 528479, Note_on_c, 9, 40, 0
1, 528479, Note_on_c, 9, 36, 0
1, 528480, Note_on_c, 9, 40, 111
1, 528480, Note_on_c, 9, 46, 111
1, 528509, Note_on_c, 9, 46, 0
1, 528720, Note_on_c, 9, 36, 111
1, 528959, Note_on_c, 9, 40, 0
1, 528959, Note_on_c, 9, 36, 0
1, 528960, Note_on_c, 9, 40, 111
1, 528960, Note_on_c, 9, 46, 111
1, 528989, Note_on_c, 9, 46, 0
1, 529200, Note_on_c, 9, 36, 111
1, 529439, Note_on_c, 9, 40, 0
1, 529439, Note_on_c, 9, 36, 0
1, 529440, Note_on_c, 9, 40, 111
1, 529440, Note_on_c, 9, 46, 111
1, 529469, Note_on_c, 9, 46, 0
1, 529680, Note_on_c, 9, 36, 111
1, 529919, Note_on_c, 9, 40, 0
1, 529919, Note_on_c, 9, 36, 0
1, 529920, Note_on_c, 9, 40, 111
1, 529920, Note_on_c, 9, 46, 111
1, 529949, Note_on_c, 9, 46, 0
1, 530160, Note_on_c, 9, 36, 111
1, 530399, Note_on_c, 9, 40, 0
1, 530399, Note_on_c, 9, 36, 0
1, 530400, Note_on_c, 9, 40, 111
1, 530400, Note_on_c, 9, 46, 111
1, 530429, Note_on_c, 9, 46, 0
1, 530640, Note_on_c, 9, 36, 111
1, 530879, Note_on_c, 9, 40, 0
1, 530879, Note_on_c, 9, 36, 0
1, 530880, Note_on_c, 9, 40, 111
1, 530880, Note_on_c, 9, 46, 111
1, 530894, Note_on_c, 9, 46, 0
1, 531119, Note_on_c, 9, 40, 0
1, 531120, Note_on_c, 9, 49, 111
1, 531120, Note_on_c, 9, 36, 111
1, 531134, Note_on_c, 9, 49, 0
1, 531359, Note_on_c, 9, 36, 0
1, 531360, Note_on_c, 9, 40, 111
1, 531360, Note_on_c, 9, 46, 111
1, 531389, Note_on_c, 9, 46, 0
1, 531600, Note_on_c, 9, 36, 111
1, 531839, Note_on_c, 9, 40, 0
1, 531839, Note_on_c, 9, 36, 0
1, 531840, Note_on_c, 9, 40, 111
1, 531840, Note_on_c, 9, 46, 111
1, 531869, Note_on_c, 9, 46, 0
1, 532080, Note_on_c, 9, 36, 111
1, 532319, Note_on_c, 9, 40, 0
1, 532319, Note_on_c, 9, 36, 0
1, 532320, Note_on_c, 9, 40, 111
1, 532320, Note_on_c, 9, 46, 111
1, 532349, Note_on_c, 9, 46, 0
1, 532560, Note_on_c, 9, 36, 111
1, 532799, Note_on_c, 9, 40, 0
1, 532799, Note_on_c, 9, 36, 0
1, 532800, Note_on_c, 9, 40, 111
1, 532800, Note_on_c, 9, 46, 111
1, 532829, Note_on_c, 9, 46, 0
1, 533040, Note_on_c, 9, 36, 111
1, 533279, Note_on_c, 9, 40, 0
1, 533279, Note_on_c, 9, 36, 0
1, 533280, Note_on_c, 9, 40, 111
1, 533280, Note_on_c, 9, 46, 111
1, 533309, Note_on_c, 9, 46, 0
1, 533520, Note_on_c, 9, 36, 111
1, 533759, Note_on_c, 9, 40, 0
1, 533759, Note_on_c, 9, 36, 0
1, 533760, Note_on_c, 9, 40, 111
1, 533760, Note_on_c, 9, 46, 111
1, 533789, Note_on_c, 9, 46, 0
1, 534000, Note_on_c, 9, 36, 111
1, 534239, Note_on_c, 9, 40, 0
1, 534239, Note_on_c, 9, 36, 0
1, 534240, Note_on_c, 9, 40, 111
1, 534240, Note_on_c, 9, 46, 111
1, 534269, Note_on_c, 9, 46, 0
1, 534480, Note_on_c, 9, 36, 111
1, 534719, Note_on_c, 9, 40, 0
1, 534719, Note_on_c, 9, 36, 0
1, 534720, Note_on_c, 9, 40, 111
1, 534720, Note_on_c, 9, 46, 111
1, 534749, Note_on_c, 9, 46, 0
1, 534960, Note_on_c, 9, 36, 111
1, 535199, Note_on_c, 9, 40, 0
1, 535199, Note_on_c, 9, 36, 0
1, 535200, Note_on_c, 9, 40, 111
1, 535200, Note_on_c, 9, 46, 111
1, 535229, Note_on_c, 9, 46, 0
1, 535440, Note_on_c, 9, 36, 111
1, 535679, Note_on_c, 9, 40, 0
1, 535679, Note_on_c, 9, 36, 0
1, 535680, Note_on_c, 9, 40, 111
1, 535680, Note_on_c, 9, 46, 111
1, 535709, Note_on_c, 9, 46, 0
1, 535920, Note_on_c, 9, 36, 111
1, 536159, Note_on_c, 9, 40, 0
1, 536159, Note_on_c, 9, 36, 0
1, 536160, Note_on_c, 9, 40, 111
1, 536160, Note_on_c, 9, 46, 111
1, 536189, Note_on_c, 9, 46, 0
1, 536400, Note_on_c, 9, 36, 111
1, 536639, Note_on_c, 9, 40, 0
1, 536639, Note_on_c, 9, 36, 0
1, 536640, Note_on_c, 9, 40, 111
1, 536640, Note_on_c, 9, 46, 111
1, 536669, Note_on_c, 9, 46, 0
1, 536880, Note_on_c, 9, 36, 111
1, 537119, Note_on_c, 9, 40, 0
1, 537119, Note_on_c, 9, 36, 0
1, 537120, Note_on_c, 9, 40, 111
1, 537120, Note_on_c, 9, 46, 111
1, 537149, Note_on_c, 9, 46, 0
1, 537360, Note_on_c, 9, 36, 111
1, 537599, Note_on_c, 9, 40, 0
1, 537599, Note_on_c, 9, 36, 0
1, 537600, Note_on_c, 9, 40, 111
1, 537600, Note_on_c, 9, 46, 111
1, 537629, Note_on_c, 9, 46, 0
1, 537840, Note_on_c, 9, 36, 111
1, 538079, Note_on_c, 9, 40, 0
1, 538079, Note_on_c, 9, 36, 0
1, 538080, Note_on_c, 9, 40, 111
1, 538080, Note_on_c, 9, 46, 111
1, 538109, Note_on_c, 9, 46, 0
1, 538320, Note_on_c, 9, 36, 111
1, 538559, Note_on_c, 9, 40, 0
1, 538559, Note_on_c, 9, 36, 0
1, 538560, Note_on_c, 9, 40, 111
1, 538560, Note_on_c, 9, 46, 111
1, 538589, Note_on_c, 9, 46, 0
1, 538800, Note_on_c, 9, 36, 111
1, 539039, Note_on_c, 9, 40, 0
1, 539039, Note_on_c, 9, 36, 0
1, 539040, Note_on_c, 9, 40, 111
1, 539040, Note_on_c, 9, 46, 111
1, 539069, Note_on_c, 9, 46, 0
1, 539280, Note_on_c, 9, 36, 111
1, 539519, Note_on_c, 9, 40, 0
1, 539519, Note_on_c, 9, 36, 0
1, 539520, Note_on_c, 9, 49, 111
1, 539520, Note_on_c, 9, 57, 111
1, 539520, Note_on_c, 9, 36, 111
1, 539549, Note_on_c, 9, 49, 0
1, 539549, Note_on_c, 9, 57, 0
1, 539759, Note_on_c, 9, 36, 0
1, 539760, Note_on_c, 9, 36, 111
1, 539999, Note_on_c, 9, 36, 0
1, 540000, Note_on_c, 9, 40, 111
1, 540000, Note_on_c, 9, 46, 111
1, 540029, Note_on_c, 9, 46, 0
1, 540240, Note_on_c, 9, 36, 111
1, 540479, Note_on_c, 9, 40, 0
1, 540479, Note_on_c, 9, 36, 0
1, 540480, Note_on_c, 9, 40, 111
1, 540480, Note_on_c, 9, 46, 111
1, 540509, Note_on_c, 9, 46, 0
1, 540720, Note_on_c, 9, 36, 111
1, 540959, Note_on_c, 9, 40, 0
1, 540959, Note_on_c, 9, 36, 0
1, 540960, Note_on_c, 9, 40, 111
1, 540960, Note_on_c, 9, 46, 111
1, 540989, Note_on_c, 9, 46, 0
1, 541200, Note_on_c, 9, 36, 111
1, 541439, Note_on_c, 9, 40, 0
1, 541439, Note_on_c, 9, 36, 0
1, 541440, Note_on_c, 9, 40, 111
1, 541440, Note_on_c, 9, 46, 111
1, 541469, Note_on_c, 9, 46, 0
1, 541680, Note_on_c, 9, 36, 111
1, 541919, Note_on_c, 9, 40, 0
1, 541919, Note_on_c, 9, 36, 0
1, 541920, Note_on_c, 9, 40, 111
1, 541920, Note_on_c, 9, 46, 111
1, 541949, Note_on_c, 9, 46, 0
1, 542160, Note_on_c, 9, 36, 111
1, 542399, Note_on_c, 9, 40, 0
1, 542399, Note_on_c, 9, 36, 0
1, 542400, Note_on_c, 9, 40, 111
1, 542400, Note_on_c, 9, 46, 111
1, 542429, Note_on_c, 9, 46, 0
1, 542640, Note_on_c, 9, 36, 111
1, 542879, Note_on_c, 9, 40, 0
1, 542879, Note_on_c, 9, 36, 0
1, 542880, Note_on_c, 9, 40, 111
1, 542880, Note_on_c, 9, 46, 111
1, 542909, Note_on_c, 9, 46, 0
1, 543120, Note_on_c, 9, 36, 111
1, 543359, Note_on_c, 9, 40, 0
1, 543359, Note_on_c, 9, 36, 0
1, 543360, Note_on_c, 9, 40, 111
1, 543360, Note_on_c, 9, 46, 111
1, 543389, Note_on_c, 9, 46, 0
1, 543600, Note_on_c, 9, 36, 111
1, 543839, Note_on_c, 9, 40, 0
1, 543839, Note_on_c, 9, 36, 0
1, 543840, Note_on_c, 9, 40, 111
1, 543840, Note_on_c, 9, 46, 111
1, 543869, Note_on_c, 9, 46, 0
1, 544080, Note_on_c, 9, 36, 111
1, 544319, Note_on_c, 9, 40, 0
1, 544319, Note_on_c, 9, 36, 0
1, 544320, Note_on_c, 9, 40, 111
1, 544320, Note_on_c, 9, 46, 111
1, 544349, Note_on_c, 9, 46, 0
1, 544560, Note_on_c, 9, 36, 111
1, 544799, Note_on_c, 9, 40, 0
1, 544799, Note_on_c, 9, 36, 0
1, 544800, Note_on_c, 9, 40, 111
1, 544800, Note_on_c, 9, 46, 111
1, 544829, Note_on_c, 9, 46, 0
1, 545040, Note_on_c, 9, 36, 111
1, 545279, Note_on_c, 9, 40, 0
1, 545279, Note_on_c, 9, 36, 0
1, 545280, Note_on_c, 9, 40, 111
1, 545280, Note_on_c, 9, 46, 111
1, 545309, Note_on_c, 9, 46, 0
1, 545520, Note_on_c, 9, 36, 111
1, 545759, Note_on_c, 9, 40, 0
1, 545759, Note_on_c, 9, 36, 0
1, 545760, Note_on_c, 9, 40, 111
1, 545760, Note_on_c, 9, 46, 111
1, 545789, Note_on_c, 9, 46, 0
1, 546000, Note_on_c, 9, 36, 111
1, 546239, Note_on_c, 9, 40, 0
1, 546239, Note_on_c, 9, 36, 0
1, 546240, Note_on_c, 9, 40, 111
1, 546240, Note_on_c, 9, 46, 111
1, 546269, Note_on_c, 9, 46, 0
1, 546480, Note_on_c, 9, 36, 111
1, 546719, Note_on_c, 9, 40, 0
1, 546719, Note_on_c, 9, 36, 0
1, 546720, Note_on_c, 9, 40, 111
1, 546720, Note_on_c, 9, 46, 111
1, 546749, Note_on_c, 9, 46, 0
1, 546960, Note_on_c, 9, 36, 111
1, 547199, Note_on_c, 9, 40, 0
1, 547199, Note_on_c, 9, 36, 0
1, 547200, Note_on_c, 9, 49, 111
1, 547200, Note_on_c, 9, 57, 111
1, 547200, Note_on_c, 9, 36, 111
1, 547229, Note_on_c, 9, 49, 0
1, 547229, Note_on_c, 9, 57, 0
1, 547439, Note_on_c, 9, 36, 0
1, 547440, Note_on_c, 9, 36, 111
1, 547679, Note_on_c, 9, 36, 0
1, 547680, Note_on_c, 9, 40, 111
1, 547680, Note_on_c, 9, 46, 111
1, 547709, Note_on_c, 9, 46, 0
1, 547920, Note_on_c, 9, 36, 111
1, 548159, Note_on_c, 9, 40, 0
1, 548159, Note_on_c, 9, 36, 0
1, 548160, Note_on_c, 9, 40, 111
1, 548160, Note_on_c, 9, 46, 111
1, 548189, Note_on_c, 9, 46, 0
1, 548400, Note_on_c, 9, 36, 111
1, 548639, Note_on_c, 9, 40, 0
1, 548639, Note_on_c, 9, 36, 0
1, 548640, Note_on_c, 9, 40, 111
1, 548640, Note_on_c, 9, 46, 111
1, 548669, Note_on_c, 9, 46, 0
1, 548880, Note_on_c, 9, 36, 111
1, 549119, Note_on_c, 9, 40, 0
1, 549119, Note_on_c, 9, 36, 0
1, 549120, Note_on_c, 9, 40, 111
1, 549120, Note_on_c, 9, 46, 111
1, 549149, Note_on_c, 9, 46, 0
1, 549360, Note_on_c, 9, 36, 111
1, 549599, Note_on_c, 9, 40, 0
1, 549599, Note_on_c, 9, 36, 0
1, 549600, Note_on_c, 9, 40, 111
1, 549600, Note_on_c, 9, 46, 111
1, 549629, Note_on_c, 9, 46, 0
1, 549840, Note_on_c, 9, 36, 111
1, 550079, Note_on_c, 9, 40, 0
1, 550079, Note_on_c, 9, 36, 0
1, 550080, Note_on_c, 9, 40, 111
1, 550080, Note_on_c, 9, 46, 111
1, 550109, Note_on_c, 9, 46, 0
1, 550320, Note_on_c, 9, 36, 111
1, 550559, Note_on_c, 9, 40, 0
1, 550559, Note_on_c, 9, 36, 0
1, 550560, Note_on_c, 9, 40, 111
1, 550560, Note_on_c, 9, 46, 111
1, 550589, Note_on_c, 9, 46, 0
1, 550800, Note_on_c, 9, 36, 111
1, 551039, Note_on_c, 9, 40, 0
1, 551039, Note_on_c, 9, 36, 0
1, 551040, Note_on_c, 9, 46, 111
1, 551040, Note_on_c, 9, 36, 111
1, 551069, Note_on_c, 9, 46, 0
1, 551519, Note_on_c, 9, 36, 0
1, 551520, Note_on_c, 9, 46, 111
1, 551520, Note_on_c, 9, 36, 111
1, 551534, Note_on_c, 9, 46, 0
1, 551760, Note_on_c, 9, 40, 111
1, 551999, Note_on_c, 9, 36, 0
1, 551999, Note_on_c, 9, 40, 0
1, 552000, Note_on_c, 9, 46, 111
1, 552029, Note_on_c, 9, 46, 0
1, 552240, Note_on_c, 9, 36, 111
1, 552479, Note_on_c, 9, 36, 0
1, 552480, Note_on_c, 9, 40, 111
1, 552480, Note_on_c, 9, 46, 111
1, 552509, Note_on_c, 9, 46, 0
1, 552959, Note_on_c, 9, 40, 0
1, 552960, Note_on_c, 9, 46, 111
1, 552960, Note_on_c, 9, 36, 111
1, 552974, Note_on_c, 9, 46, 0
1, 553200, Note_on_c, 9, 40, 111
1, 553439, Note_on_c, 9, 36, 0
1, 553439, Note_on_c, 9, 40, 0
1, 553440, Note_on_c, 9, 46, 111
1, 553469, Note_on_c, 9, 46, 0
1, 553680, Note_on_c, 9, 36, 111
1, 553919, Note_on_c, 9, 36, 0
1, 553920, Note_on_c, 9, 40, 111
1, 553920, Note_on_c, 9, 46, 111
1, 553949, Note_on_c, 9, 46, 0
1, 554160, Note_on_c, 9, 36, 111
1, 554399, Note_on_c, 9, 40, 0
1, 554399, Note_on_c, 9, 36, 0
1, 554400, Note_on_c, 9, 40, 111
1, 554400, Note_on_c, 9, 46, 111
1, 554429, Note_on_c, 9, 46, 0
1, 554640, Note_on_c, 9, 36, 111
1, 554879, Note_on_c, 9, 40, 0
1, 554879, Note_on_c, 9, 36, 0
1, 554880, Note_on_c, 9, 49, 111
1, 554880, Note_on_c, 9, 57, 111
1, 554880, Note_on_c, 9, 36, 111
1, 554909, Note_on_c, 9, 49, 0
1, 554909, Note_on_c, 9, 57, 0
1, 555119, Note_on_c, 9, 36, 0
1, 555120, Note_on_c, 9, 36, 111
1, 555359, Note_on_c, 9, 36, 0
1, 555360, Note_on_c, 9, 40, 111
1, 555360, Note_on_c, 9, 46, 111
1, 555389, Note_on_c, 9, 46, 0
1, 555600, Note_on_c, 9, 36, 111
1, 555839, Note_on_c, 9, 40, 0
1, 555839, Note_on_c, 9, 36, 0
1, 555840, Note_on_c, 9, 40, 111
1, 555840, Note_on_c, 9, 46, 111
1, 555869, Note_on_c, 9, 46, 0
1, 556080, Note_on_c, 9, 36, 111
1, 556319, Note_on_c, 9, 40, 0
1, 556319, Note_on_c, 9, 36, 0
1, 556320, Note_on_c, 9, 40, 111
1, 556320, Note_on_c, 9, 46, 111
1, 556349, Note_on_c, 9, 46, 0
1, 556560, Note_on_c, 9, 36, 111
1, 556799, Note_on_c, 9, 40, 0
1, 556799, Note_on_c, 9, 36, 0
1, 556800, Note_on_c, 9, 40, 111
1, 556800, Note_on_c, 9, 46, 111
1, 556829, Note_on_c, 9, 46, 0
1, 557040, Note_on_c, 9, 36, 111
1, 557279, Note_on_c, 9, 40, 0
1, 557279, Note_on_c, 9, 36, 0
1, 557280, Note_on_c, 9, 40, 111
1, 557280, Note_on_c, 9, 46, 111
1, 557309, Note_on_c, 9, 46, 0
1, 557520, Note_on_c, 9, 36, 111
1, 557759, Note_on_c, 9, 40, 0
1, 557759, Note_on_c, 9, 36, 0
1, 557760, Note_on_c, 9, 40, 111
1, 557760, Note_on_c, 9, 46, 111
1, 557789, Note_on_c, 9, 46, 0
1, 558000, Note_on_c, 9, 36, 111
1, 558239, Note_on_c, 9, 40, 0
1, 558239, Note_on_c, 9, 36, 0
1, 558240, Note_on_c, 9, 40, 111
1, 558240, Note_on_c, 9, 46, 111
1, 558269, Note_on_c, 9, 46, 0
1, 558480, Note_on_c, 9, 36, 111
1, 558719, Note_on_c, 9, 40, 0
1, 558719, Note_on_c, 9, 36, 0
1, 558720, Note_on_c, 9, 40, 111
1, 558720, Note_on_c, 9, 46, 111
1, 558749, Note_on_c, 9, 46, 0
1, 558960, Note_on_c, 9, 36, 111
1, 559199, Note_on_c, 9, 40, 0
1, 559199, Note_on_c, 9, 36, 0
1, 559200, Note_on_c, 9, 40, 111
1, 559200, Note_on_c, 9, 46, 111
1, 559229, Note_on_c, 9, 46, 0
1, 559440, Note_on_c, 9, 36, 111
1, 559679, Note_on_c, 9, 40, 0
1, 559679, Note_on_c, 9, 36, 0
1, 559680, Note_on_c, 9, 40, 111
1, 559680, Note_on_c, 9, 46, 111
1, 559709, Note_on_c, 9, 46, 0
1, 559920, Note_on_c, 9, 36, 111
1, 560159, Note_on_c, 9, 40, 0
1, 560159, Note_on_c, 9, 36, 0
1, 560160, Note_on_c, 9, 40, 111
1, 560160, Note_on_c, 9, 46, 111
1, 560189, Note_on_c, 9, 46, 0
1, 560400, Note_on_c, 9, 36, 111
1, 560639, Note_on_c, 9, 40, 0
1, 560639, Note_on_c, 9, 36, 0
1, 560640, Note_on_c, 9, 40, 111
1, 560640, Note_on_c, 9, 46, 111
1, 560669, Note_on_c, 9, 46, 0
1, 560880, Note_on_c, 9, 36, 111
1, 561119, Note_on_c, 9, 40, 0
1, 561119, Note_on_c, 9, 36, 0
1, 561120, Note_on_c, 9, 40, 111
1, 561120, Note_on_c, 9, 46, 111
1, 561149, Note_on_c, 9, 46, 0
1, 561360, Note_on_c, 9, 36, 111
1, 561599, Note_on_c, 9, 40, 0
1, 561599, Note_on_c, 9, 36, 0
1, 561600, Note_on_c, 9, 40, 111
1, 561719, Note_on_c, 9, 40, 0
1, 561720, Note_on_c, 9, 40, 111
1, 561839, Note_on_c, 9, 40, 0
1, 561840, Note_on_c, 9, 45, 111
1, 562079, Note_on_c, 9, 45, 0
1, 562080, Note_on_c, 9, 40, 111
1, 562199, Note_on_c, 9, 40, 0
1, 562200, Note_on_c, 9, 40, 111
1, 562319, Note_on_c, 9, 40, 0
1, 562320, Note_on_c, 9, 40, 111
1, 562439, Note_on_c, 9, 40, 0
1, 562440, Note_on_c, 9, 40, 111
1, 562559, Note_on_c, 9, 40, 0
1, 562560, Note_on_c, 9, 49, 111
1, 562560, Note_on_c, 9, 36, 111
1, 562589, Note_on_c, 9, 49, 0
1, 563039, Note_on_c, 9, 36, 0
1, 563040, Note_on_c, 9, 40, 111
1, 563040, Note_on_c, 9, 46, 111
1, 563069, Note_on_c, 9, 46, 0
1, 563280, Note_on_c, 9, 36, 111
1, 563519, Note_on_c, 9, 40, 0
1, 563519, Note_on_c, 9, 36, 0
1, 563520, Note_on_c, 9, 46, 111
1, 563549, Note_on_c, 9, 46, 0
1, 563760, Note_on_c, 9, 36, 111
1, 563999, Note_on_c, 9, 36, 0
1, 564000, Note_on_c, 9, 40, 111
1, 564000, Note_on_c, 9, 46, 111
1, 564029, Note_on_c, 9, 46, 0
1, 564479, Note_on_c, 9, 40, 0
1, 564480, Note_on_c, 9, 46, 111
1, 564480, Note_on_c, 9, 36, 111
1, 564509, Note_on_c, 9, 46, 0
1, 564719, Note_on_c, 9, 36, 0
1, 564720, Note_on_c, 9, 36, 111
1, 564959, Note_on_c, 9, 36, 0
1, 564960, Note_on_c, 9, 40, 111
1, 564960, Note_on_c, 9, 46, 111
1, 564989, Note_on_c, 9, 46, 0
1, 565200, Note_on_c, 9, 36, 111
1, 565439, Note_on_c, 9, 40, 0
1, 565439, Note_on_c, 9, 36, 0
1, 565440, Note_on_c, 9, 46, 111
1, 565469, Note_on_c, 9, 46, 0
1, 565680, Note_on_c, 9, 36, 111
1, 565919, Note_on_c, 9, 36, 0
1, 565920, Note_on_c, 9, 40, 111
1, 565920, Note_on_c, 9, 46, 111
1, 565949, Note_on_c, 9, 46, 0
1, 566160, Note_on_c, 9, 36, 111
1, 566399, Note_on_c, 9, 40, 0
1, 566399, Note_on_c, 9, 36, 0
1, 566400, Note_on_c, 9, 46, 111
1, 566400, Note_on_c, 9, 36, 111
1, 566429, Note_on_c, 9, 46, 0
1, 566879, Note_on_c, 9, 36, 0
1, 566880, Note_on_c, 9, 40, 111
1, 566880, Note_on_c, 9, 46, 111
1, 566909, Note_on_c, 9, 46, 0
1, 567120, Note_on_c, 9, 36, 111
1, 567359, Note_on_c, 9, 40, 0
1, 567359, Note_on_c, 9, 36, 0
1, 567360, Note_on_c, 9, 46, 111
1, 567389, Note_on_c, 9, 46, 0
1, 567600, Note_on_c, 9, 36, 111
1, 567839, Note_on_c, 9, 36, 0
1, 567840, Note_on_c, 9, 40, 111
1, 567840, Note_on_c, 9, 46, 111
1, 567869, Note_on_c, 9, 46, 0
1, 568319, Note_on_c, 9, 40, 0
1, 568320, Note_on_c, 9, 46, 111
1, 568320, Note_on_c, 9, 36, 111
1, 568349, Note_on_c, 9, 46, 0
1, 568559, Note_on_c, 9, 36, 0
1, 568560, Note_on_c, 9, 36, 111
1, 568799, Note_on_c, 9, 36, 0
1, 568800, Note_on_c, 9, 40, 111
1, 568800, Note_on_c, 9, 46, 111
1, 568829, Note_on_c, 9, 46, 0
1, 569040, Note_on_c, 9, 36, 111
1, 569279, Note_on_c, 9, 40, 0
1, 569279, Note_on_c, 9, 36, 0
1, 569280, Note_on_c, 9, 46, 111
1, 569309, Note_on_c, 9, 46, 0
1, 569520, Note_on_c, 9, 36, 111
1, 569759, Note_on_c, 9, 36, 0
1, 569760, Note_on_c, 9, 40, 111
1, 569760, Note_on_c, 9, 46, 111
1, 569789, Note_on_c, 9, 46, 0
1, 570239, Note_on_c, 9, 40, 0
1, 570240, Note_on_c, 9, 49, 111
1, 570240, Note_on_c, 9, 36, 111
1, 570269, Note_on_c, 9, 49, 0
1, 570719, Note_on_c, 9, 36, 0
1, 570720, Note_on_c, 9, 40, 111
1, 570720, Note_on_c, 9, 46, 111
1, 570749, Note_on_c, 9, 46, 0
1, 570960, Note_on_c, 9, 36, 111
1, 571199, Note_on_c, 9, 40, 0
1, 571199, Note_on_c, 9, 36, 0
1, 571200, Note_on_c, 9, 46, 111
1, 571229, Note_on_c, 9, 46, 0
1, 571440, Note_on_c, 9, 36, 111
1, 571679, Note_on_c, 9, 36, 0
1, 571680, Note_on_c, 9, 40, 111
1, 571680, Note_on_c, 9, 46, 111
1, 571709, Note_on_c, 9, 46, 0
1, 572159, Note_on_c, 9, 40, 0
1, 572160, Note_on_c, 9, 46, 111
1, 572160, Note_on_c, 9, 36, 111
1, 572189, Note_on_c, 9, 46, 0
1, 572399, Note_on_c, 9, 36, 0
1, 572400, Note_on_c, 9, 36, 111
1, 572639, Note_on_c, 9, 36, 0
1, 572640, Note_on_c, 9, 40, 111
1, 572640, Note_on_c, 9, 46, 111
1, 572669, Note_on_c, 9, 46, 0
1, 572880, Note_on_c, 9, 36, 111
1, 573119, Note_on_c, 9, 40, 0
1, 573119, Note_on_c, 9, 36, 0
1, 573120, Note_on_c, 9, 46, 111
1, 573149, Note_on_c, 9, 46, 0
1, 573360, Note_on_c, 9, 36, 111
1, 573599, Note_on_c, 9, 36, 0
1, 573600, Note_on_c, 9, 40, 111
1, 573600, Note_on_c, 9, 46, 111
1, 573629, Note_on_c, 9, 46, 0
1, 573840, Note_on_c, 9, 36, 111
1, 574079, Note_on_c, 9, 40, 0
1, 574079, Note_on_c, 9, 36, 0
1, 574080, Note_on_c, 9, 46, 111
1, 574080, Note_on_c, 9, 36, 111
1, 574109, Note_on_c, 9, 46, 0
1, 574559, Note_on_c, 9, 36, 0
1, 574560, Note_on_c, 9, 40, 111
1, 574560, Note_on_c, 9, 46, 111
1, 574589, Note_on_c, 9, 46, 0
1, 574800, Note_on_c, 9, 36, 111
1, 575039, Note_on_c, 9, 40, 0
1, 575039, Note_on_c, 9, 36, 0
1, 575040, Note_on_c, 9, 46, 111
1, 575069, Note_on_c, 9, 46, 0
1, 575280, Note_on_c, 9, 36, 111
1, 575519, Note_on_c, 9, 36, 0
1, 575520, Note_on_c, 9, 40, 111
1, 575520, Note_on_c, 9, 46, 111
1, 575534, Note_on_c, 9, 46, 0
1, 575759, Note_on_c, 9, 40, 0
1, 575760, Note_on_c, 9, 40, 111
1, 575760, Note_on_c, 9, 46, 111
1, 575774, Note_on_c, 9, 46, 0
1, 575999, Note_on_c, 9, 40, 0
1, 576240, Note_on_c, 9, 36, 111
1, 576479, Note_on_c, 9, 36, 0
1, 576480, Note_on_c, 9, 40, 111
1, 576480, Note_on_c, 9, 46, 111
1, 576509, Note_on_c, 9, 46, 0
1, 576959, Note_on_c, 9, 40, 0
1, 576960, Note_on_c, 9, 36, 111
1, 577200, Note_on_c, 9, 40, 111
1, 577200, Note_on_c, 9, 46, 111
1, 577214, Note_on_c, 9, 46, 0
1, 577439, Note_on_c, 9, 36, 0
1, 577439, Note_on_c, 9, 40, 0
1, 577440, Note_on_c, 9, 36, 111
1, 577680, Note_on_c, 9, 40, 111
1, 577680, Note_on_c, 9, 46, 111
1, 577694, Note_on_c, 9, 46, 0
1, 577919, Note_on_c, 9, 36, 0
1, 577919, Note_on_c, 9, 40, 0
1, 577920, Note_on_c, 9, 49, 111
1, 577920, Note_on_c, 9, 36, 111
1, 577949, Note_on_c, 9, 49, 0
1, 578399, Note_on_c, 9, 36, 0
1, 578400, Note_on_c, 9, 40, 111
1, 578400, Note_on_c, 9, 46, 111
1, 578429, Note_on_c, 9, 46, 0
1, 578640, Note_on_c, 9, 36, 111
1, 578879, Note_on_c, 9, 40, 0
1, 578879, Note_on_c, 9, 36, 0
1, 578880, Note_on_c, 9, 46, 111
1, 578909, Note_on_c, 9, 46, 0
1, 579120, Note_on_c, 9, 36, 111
1, 579359, Note_on_c, 9, 36, 0
1, 579360, Note_on_c, 9, 40, 111
1, 579360, Note_on_c, 9, 46, 111
1, 579389, Note_on_c, 9, 46, 0
1, 579839, Note_on_c, 9, 40, 0
1, 579840, Note_on_c, 9, 46, 111
1, 579840, Note_on_c, 9, 36, 111
1, 579869, Note_on_c, 9, 46, 0
1, 580079, Note_on_c, 9, 36, 0
1, 580080, Note_on_c, 9, 36, 111
1, 580319, Note_on_c, 9, 36, 0
1, 580320, Note_on_c, 9, 40, 111
1, 580320, Note_on_c, 9, 46, 111
1, 580349, Note_on_c, 9, 46, 0
1, 580560, Note_on_c, 9, 36, 111
1, 580799, Note_on_c, 9, 40, 0
1, 580799, Note_on_c, 9, 36, 0
1, 580800, Note_on_c, 9, 46, 111
1, 580829, Note_on_c, 9, 46, 0
1, 581040, Note_on_c, 9, 36, 111
1, 581279, Note_on_c, 9, 36, 0
1, 581280, Note_on_c, 9, 40, 111
1, 581280, Note_on_c, 9, 46, 111
1, 581309, Note_on_c, 9, 46, 0
1, 581520, Note_on_c, 9, 36, 111
1, 581759, Note_on_c, 9, 40, 0
1, 581759, Note_on_c, 9, 36, 0
1, 581760, Note_on_c, 9, 46, 111
1, 581760, Note_on_c, 9, 36, 111
1, 581789, Note_on_c, 9, 46, 0
1, 582239, Note_on_c, 9, 36, 0
1, 582240, Note_on_c, 9, 40, 111
1, 582240, Note_on_c, 9, 46, 111
1, 582269, Note_on_c, 9, 46, 0
1, 582480, Note_on_c, 9, 36, 111
1, 582719, Note_on_c, 9, 40, 0
1, 582719, Note_on_c, 9, 36, 0
1, 582720, Note_on_c, 9, 46, 111
1, 582749, Note_on_c, 9, 46, 0
1, 582960, Note_on_c, 9, 36, 111
1, 583199, Note_on_c, 9, 36, 0
1, 583200, Note_on_c, 9, 40, 111
1, 583200, Note_on_c, 9, 46, 111
1, 583229, Note_on_c, 9, 46, 0
1, 583679, Note_on_c, 9, 40, 0
1, 583680, Note_on_c, 9, 46, 111
1, 583680, Note_on_c, 9, 36, 111
1, 583709, Note_on_c, 9, 46, 0
1, 583919, Note_on_c, 9, 36, 0
1, 583920, Note_on_c, 9, 36, 111
1, 584159, Note_on_c, 9, 36, 0
1, 584160, Note_on_c, 9, 40, 111
1, 584160, Note_on_c, 9, 46, 111
1, 584189, Note_on_c, 9, 46, 0
1, 584400, Note_on_c, 9, 36, 111
1, 584639, Note_on_c, 9, 40, 0
1, 584639, Note_on_c, 9, 36, 0
1, 584640, Note_on_c, 9, 46, 111
1, 584669, Note_on_c, 9, 46, 0
1, 584880, Note_on_c, 9, 36, 111
1, 585119, Note_on_c, 9, 36, 0
1, 585120, Note_on_c, 9, 40, 111
1, 585120, Note_on_c, 9, 46, 111
1, 585149, Note_on_c, 9, 46, 0
1, 585599, Note_on_c, 9, 40, 0
1, 585600, Note_on_c, 9, 49, 111
1, 585600, Note_on_c, 9, 36, 111
1, 585629, Note_on_c, 9, 49, 0
1, 586079, Note_on_c, 9, 36, 0
1, 586080, Note_on_c, 9, 40, 111
1, 586080, Note_on_c, 9, 46, 111
1, 586109, Note_on_c, 9, 46, 0
1, 586320, Note_on_c, 9, 36, 111
1, 586559, Note_on_c, 9, 40, 0
1, 586559, Note_on_c, 9, 36, 0
1, 586560, Note_on_c, 9, 46, 111
1, 586589, Note_on_c, 9, 46, 0
1, 586800, Note_on_c, 9, 36, 111
1, 587039, Note_on_c, 9, 36, 0
1, 587040, Note_on_c, 9, 40, 111
1, 587040, Note_on_c, 9, 46, 111
1, 587069, Note_on_c, 9, 46, 0
1, 587519, Note_on_c, 9, 40, 0
1, 587520, Note_on_c, 9, 46, 111
1, 587520, Note_on_c, 9, 36, 111
1, 587549, Note_on_c, 9, 46, 0
1, 587759, Note_on_c, 9, 36, 0
1, 587760, Note_on_c, 9, 36, 111
1, 587999, Note_on_c, 9, 36, 0
1, 588000, Note_on_c, 9, 40, 111
1, 588000, Note_on_c, 9, 46, 111
1, 588029, Note_on_c, 9, 46, 0
1, 588240, Note_on_c, 9, 36, 111
1, 588479, Note_on_c, 9, 40, 0
1, 588479, Note_on_c, 9, 36, 0
1, 588480, Note_on_c, 9, 46, 111
1, 588509, Note_on_c, 9, 46, 0
1, 588720, Note_on_c, 9, 36, 111
1, 588959, Note_on_c, 9, 36, 0
1, 588960, Note_on_c, 9, 40, 111
1, 588960, Note_on_c, 9, 46, 111
1, 588989, Note_on_c, 9, 46, 0
1, 589200, Note_on_c, 9, 36, 111
1, 589439, Note_on_c, 9, 40, 0
1, 589439, Note_on_c, 9, 36, 0
1, 589440, Note_on_c, 9, 46, 111
1, 589440, Note_on_c, 9, 36, 111
1, 589469, Note_on_c, 9, 46, 0
1, 589919, Note_on_c, 9, 36, 0
1, 589920, Note_on_c, 9, 40, 111
1, 589920, Note_on_c, 9, 46, 111
1, 589949, Note_on_c, 9, 46, 0
1, 590160, Note_on_c, 9, 36, 111
1, 590399, Note_on_c, 9, 40, 0
1, 590399, Note_on_c, 9, 36, 0
1, 590400, Note_on_c, 9, 46, 111
1, 590429, Note_on_c, 9, 46, 0
1, 590640, Note_on_c, 9, 36, 111
1, 590879, Note_on_c, 9, 36, 0
1, 590880, Note_on_c, 9, 40, 111
1, 590880, Note_on_c, 9, 46, 111
1, 590909, Note_on_c, 9, 46, 0
1, 591359, Note_on_c, 9, 40, 0
1, 591360, Note_on_c, 9, 46, 111
1, 591360, Note_on_c, 9, 36, 111
1, 591389, Note_on_c, 9, 46, 0
1, 591599, Note_on_c, 9, 36, 0
1, 591600, Note_on_c, 9, 36, 111
1, 591839, Note_on_c, 9, 36, 0
1, 591840, Note_on_c, 9, 40, 111
1, 591840, Note_on_c, 9, 46, 111
1, 591869, Note_on_c, 9, 46, 0
1, 592080, Note_on_c, 9, 36, 111
1, 592319, Note_on_c, 9, 40, 0
1, 592319, Note_on_c, 9, 36, 0
1, 592320, Note_on_c, 9, 46, 111
1, 592349, Note_on_c, 9, 46, 0
1, 592560, Note_on_c, 9, 36, 111
1, 592799, Note_on_c, 9, 36, 0
1, 592800, Note_on_c, 9, 40, 111
1, 592800, Note_on_c, 9, 46, 111
1, 592814, Note_on_c, 9, 46, 0
1, 593039, Note_on_c, 9, 40, 0
1, 593040, Note_on_c, 9, 49, 111
1, 593054, Note_on_c, 9, 49, 0
1, 593280, Note_on_c, 9, 49, 111
1, 593280, Note_on_c, 9, 36, 111
1, 593309, Note_on_c, 9, 49, 0
1, 593759, Note_on_c, 9, 36, 0
1, 593760, Note_on_c, 9, 40, 111
1, 593760, Note_on_c, 9, 46, 111
1, 593789, Note_on_c, 9, 46, 0
1, 594000, Note_on_c, 9, 36, 111
1, 594239, Note_on_c, 9, 40, 0
1, 594239, Note_on_c, 9, 36, 0
1, 594240, Note_on_c, 9, 46, 111
1, 594269, Note_on_c, 9, 46, 0
1, 594480, Note_on_c, 9, 36, 111
1, 594719, Note_on_c, 9, 36, 0
1, 594720, Note_on_c, 9, 40, 111
1, 594720, Note_on_c, 9, 46, 111
1, 594749, Note_on_c, 9, 46, 0
1, 595199, Note_on_c, 9, 40, 0
1, 595200, Note_on_c, 9, 46, 111
1, 595200, Note_on_c, 9, 36, 111
1, 595229, Note_on_c, 9, 46, 0
1, 595439, Note_on_c, 9, 36, 0
1, 595440, Note_on_c, 9, 36, 111
1, 595679, Note_on_c, 9, 36, 0
1, 595680, Note_on_c, 9, 40, 111
1, 595680, Note_on_c, 9, 46, 111
1, 595709, Note_on_c, 9, 46, 0
1, 595920, Note_on_c, 9, 36, 111
1, 596159, Note_on_c, 9, 40, 0
1, 596159, Note_on_c, 9, 36, 0
1, 596160, Note_on_c, 9, 46, 111
1, 596189, Note_on_c, 9, 46, 0
1, 596400, Note_on_c, 9, 36, 111
1, 596639, Note_on_c, 9, 36, 0
1, 596640, Note_on_c, 9, 40, 111
1, 596640, Note_on_c, 9, 46, 111
1, 596669, Note_on_c, 9, 46, 0
1, 596880, Note_on_c, 9, 36, 111
1, 597119, Note_on_c, 9, 40, 0
1, 597119, Note_on_c, 9, 36, 0
1, 597120, Note_on_c, 9, 46, 111
1, 597120, Note_on_c, 9, 36, 111
1, 597149, Note_on_c, 9, 46, 0
1, 597599, Note_on_c, 9, 36, 0
1, 597600, Note_on_c, 9, 40, 111
1, 597600, Note_on_c, 9, 46, 111
1, 597629, Note_on_c, 9, 46, 0
1, 597840, Note_on_c, 9, 36, 111
1, 598079, Note_on_c, 9, 40, 0
1, 598079, Note_on_c, 9, 36, 0
1, 598080, Note_on_c, 9, 46, 111
1, 598109, Note_on_c, 9, 46, 0
1, 598320, Note_on_c, 9, 36, 111
1, 598559, Note_on_c, 9, 36, 0
1, 598560, Note_on_c, 9, 40, 111
1, 598560, Note_on_c, 9, 46, 111
1, 598589, Note_on_c, 9, 46, 0
1, 599039, Note_on_c, 9, 40, 0
1, 599040, Note_on_c, 9, 46, 111
1, 599040, Note_on_c, 9, 36, 111
1, 599069, Note_on_c, 9, 46, 0
1, 599279, Note_on_c, 9, 36, 0
1, 599280, Note_on_c, 9, 36, 111
1, 599519, Note_on_c, 9, 36, 0
1, 599520, Note_on_c, 9, 40, 111
1, 599520, Note_on_c, 9, 46, 111
1, 599549, Note_on_c, 9, 46, 0
1, 599760, Note_on_c, 9, 36, 111
1, 599999, Note_on_c, 9, 40, 0
1, 599999, Note_on_c, 9, 36, 0
1, 600000, Note_on_c, 9, 46, 111
1, 600029, Note_on_c, 9, 46, 0
1, 600240, Note_on_c, 9, 36, 111
1, 600479, Note_on_c, 9, 36, 0
1, 600480, Note_on_c, 9, 40, 111
1, 600480, Note_on_c, 9, 46, 111
1, 600509, Note_on_c, 9, 46, 0
1, 600959, Note_on_c, 9, 40, 0
1, 600960, Note_on_c, 9, 49, 111
1, 600960, Note_on_c, 9, 36, 111
1, 600989, Note_on_c, 9, 49, 0
1, 601439, Note_on_c, 9, 36, 0
1, 601440, Note_on_c, 9, 40, 111
1, 601440, Note_on_c, 9, 46, 111
1, 601469, Note_on_c, 9, 46, 0
1, 601680, Note_on_c, 9, 36, 111
1, 601919, Note_on_c, 9, 40, 0
1, 601919, Note_on_c, 9, 36, 0
1, 601920, Note_on_c, 9, 46, 111
1, 601949, Note_on_c, 9, 46, 0
1, 602160, Note_on_c, 9, 36, 111
1, 602399, Note_on_c, 9, 36, 0
1, 602400, Note_on_c, 9, 40, 111
1, 602400, Note_on_c, 9, 46, 111
1, 602429, Note_on_c, 9, 46, 0
1, 602879, Note_on_c, 9, 40, 0
1, 602880, Note_on_c, 9, 46, 111
1, 602880, Note_on_c, 9, 36, 111
1, 602909, Note_on_c, 9, 46, 0
1, 603119, Note_on_c, 9, 36, 0
1, 603120, Note_on_c, 9, 36, 111
1, 603359, Note_on_c, 9, 36, 0
1, 603360, Note_on_c, 9, 40, 111
1, 603360, Note_on_c, 9, 46, 111
1, 603389, Note_on_c, 9, 46, 0
1, 603600, Note_on_c, 9, 36, 111
1, 603839, Note_on_c, 9, 40, 0
1, 603839, Note_on_c, 9, 36, 0
1, 603840, Note_on_c, 9, 46, 111
1, 603869, Note_on_c, 9, 46, 0
1, 604080, Note_on_c, 9, 36, 111
1, 604319, Note_on_c, 9, 36, 0
1, 604320, Note_on_c, 9, 40, 111
1, 604320, Note_on_c, 9, 46, 111
1, 604349, Note_on_c, 9, 46, 0
1, 604560, Note_on_c, 9, 36, 111
1, 604799, Note_on_c, 9, 40, 0
1, 604799, Note_on_c, 9, 36, 0
1, 604800, Note_on_c, 9, 46, 111
1, 604800, Note_on_c, 9, 36, 111
1, 604829, Note_on_c, 9, 46, 0
1, 605279, Note_on_c, 9, 36, 0
1, 605280, Note_on_c, 9, 40, 111
1, 605280, Note_on_c, 9, 46, 111
1, 605309, Note_on_c, 9, 46, 0
1, 605520, Note_on_c, 9, 36, 111
1, 605759, Note_on_c, 9, 40, 0
1, 605759, Note_on_c, 9, 36, 0
1, 605760, Note_on_c, 9, 46, 111
1, 605789, Note_on_c, 9, 46, 0
1, 606000, Note_on_c, 9, 36, 111
1, 606239, Note_on_c, 9, 36, 0
1, 606240, Note_on_c, 9, 40, 111
1, 606240, Note_on_c, 9, 46, 111
1, 606269, Note_on_c, 9, 46, 0
1, 606719, Note_on_c, 9, 40, 0
1, 606720, Note_on_c, 9, 46, 111
1, 606720, Note_on_c, 9, 36, 111
1, 606734, Note_on_c, 9, 46, 0
1, 606960, Note_on_c, 9, 40, 111
1, 607199, Note_on_c, 9, 36, 0
1, 607199, Note_on_c, 9, 40, 0
1, 607200, Note_on_c, 9, 46, 111
1, 607229, Note_on_c, 9, 46, 0
1, 607440, Note_on_c, 9, 36, 111
1, 607679, Note_on_c, 9, 36, 0
1, 607680, Note_on_c, 9, 40, 111
1, 607680, Note_on_c, 9, 46, 111
1, 607709, Note_on_c, 9, 46, 0
1, 608159, Note_on_c, 9, 40, 0
1, 608160, Note_on_c, 9, 41, 111
1, 608639, Note_on_c, 9, 41, 0
1, 608640, Tempo, 750000
1, 612420, Note_on_c, 9, 45, 63
1, 612449, Note_on_c, 9, 45, 0
1, 612450, Note_on_c, 9, 45, 63
1, 612479, Note_on_c, 9, 45, 0
1, 612480, Note_on_c, 9, 47, 63
1, 612480, Note_on_c, 9, 44, 31
1, 612486, Note_on_c, 9, 44, 0
1, 612720, Note_on_c, 9, 44, 31
1, 612726, Note_on_c, 9, 44, 0
1, 612839, Note_on_c, 9, 47, 0
1, 612840, Note_on_c, 9, 48, 63
1, 612959, Note_on_c, 9, 48, 0
1, 612960, Note_on_c, 9, 44, 31
1, 612966, Note_on_c, 9, 44, 0
1, 613200, Note_on_c, 9, 48, 63
1, 613200, Note_on_c, 9, 44, 31
1, 613206, Note_on_c, 9, 44, 0
1, 613319, Note_on_c, 9, 48, 0
1, 613320, Note_on_c, 9, 47, 63
1, 613439, Note_on_c, 9, 47, 0
1, 613440, Note_on_c, 9, 45, 63
1, 613440, Note_on_c, 9, 44, 31
1, 613446, Note_on_c, 9, 44, 0
1, 613680, Note_on_c, 9, 44, 31
1, 613686, Note_on_c, 9, 44, 0
1, 613799, Note_on_c, 9, 45, 0
1, 613800, Note_on_c, 9, 45, 63
1, 613919, Note_on_c, 9, 45, 0
1, 613920, Note_on_c, 9, 48, 63
1, 613920, Note_on_c, 9, 44, 31
1, 613926, Note_on_c, 9, 44, 0
1, 614160, Note_on_c, 9, 44, 31
1, 614166, Note_on_c, 9, 44, 0
1, 614279, Note_on_c, 9, 48, 0
1, 614340, Note_on_c, 9, 45, 38
1, 614369, Note_on_c, 9, 45, 0
1, 614370, Note_on_c, 9, 45, 38
1, 614399, Note_on_c, 9, 45, 0
1, 614400, Note_on_c, 9, 47, 63
1, 614400, Note_on_c, 9, 44, 31
1, 614406, Note_on_c, 9, 44, 0
1, 614640, Note_on_c, 9, 44, 31
1, 614646, Note_on_c, 9, 44, 0
1, 614759, Note_on_c, 9, 47, 0
1, 614760, Note_on_c, 9, 48, 63
1, 614879, Note_on_c, 9, 48, 0
1, 614880, Note_on_c, 9, 44, 31
1, 614886, Note_on_c, 9, 44, 0
1, 615120, Note_on_c, 9, 48, 63
1, 615120, Note_on_c, 9, 44, 31
1, 615126, Note_on_c, 9, 44, 0
1, 615239, Note_on_c, 9, 48, 0
1, 615240, Note_on_c, 9, 47, 63
1, 615359, Note_on_c, 9, 47, 0
1, 615360, Note_on_c, 9, 45, 63
1, 615360, Note_on_c, 9, 44, 31
1, 615366, Note_on_c, 9, 44, 0
1, 615600, Note_on_c, 9, 44, 31
1, 615606, Note_on_c, 9, 44, 0
1, 615719, Note_on_c, 9, 45, 0
1, 615720, Note_on_c, 9, 45, 63
1, 615839, Note_on_c, 9, 45, 0
1, 615840, Note_on_c, 9, 48, 63
1, 615840, Note_on_c, 9, 44, 31
1, 615846, Note_on_c, 9, 44, 0
1, 615959, Note_on_c, 9, 48, 0
1, 615960, Note_on_c, 9, 48, 63
1, 616080, Note_on_c, 9, 44, 31
1, 616086, Note_on_c, 9, 44, 0
1, 616199, Note_on_c, 9, 48, 0
1, 616260, Note_on_c, 9, 45, 38
1, 616289, Note_on_c, 9, 45, 0
1, 616290, Note_on_c, 9, 45, 38
1, 616319, Note_on_c, 9, 45, 0
1, 616320, Note_on_c, 9, 47, 63
1, 616320, Note_on_c, 9, 44, 31
1, 616326, Note_on_c, 9, 44, 0
1, 616560, Note_on_c, 9, 44, 31
1, 616566, Note_on_c, 9, 44, 0
1, 616679, Note_on_c, 9, 47, 0
1, 616680, Note_on_c, 9, 48, 63
1, 616799, Note_on_c, 9, 48, 0
1, 616800, Note_on_c, 9, 44, 31
1, 616806, Note_on_c, 9, 44, 0
1, 617040, Note_on_c, 9, 48, 63
1, 617040, Note_on_c, 9, 44, 31
1, 617046, Note_on_c, 9, 44, 0
1, 617159, Note_on_c, 9, 48, 0
1, 617160, Note_on_c, 9, 47, 63
1, 617279, Note_on_c, 9, 47, 0
1, 617280, Note_on_c, 9, 45, 63
1, 617280, Note_on_c, 9, 44, 31
1, 617286, Note_on_c, 9, 44, 0
1, 617520, Note_on_c, 9, 44, 31
1, 617526, Note_on_c, 9, 44, 0
1, 617639, Note_on_c, 9, 45, 0
1, 617640, Note_on_c, 9, 45, 63
1, 617759, Note_on_c, 9, 45, 0
1, 617760, Note_on_c, 9, 48, 63
1, 617760, Note_on_c, 9, 44, 31
1, 617766, Note_on_c, 9, 44, 0
1, 618000, Note_on_c, 9, 44, 31
1, 618006, Note_on_c, 9, 44, 0
1, 618119, Note_on_c, 9, 48, 0
1, 618180, Note_on_c, 9, 45, 38
1, 618209, Note_on_c, 9, 45, 0
1, 618210, Note_on_c, 9, 45, 38
1, 618239, Note_on_c, 9, 45, 0
1, 618240, Note_on_c, 9, 47, 63
1, 618240, Note_on_c, 9, 44, 31
1, 618246, Note_on_c, 9, 44, 0
1, 618480, Note_on_c, 9, 44, 31
1, 618486, Note_on_c, 9, 44, 0
1, 618599, Note_on_c, 9, 47, 0
1, 618600, Note_on_c, 9, 48, 63
1, 618719, Note_on_c, 9, 48, 0
1, 618720, Note_on_c, 9, 44, 31
1, 618726, Note_on_c, 9, 44, 0
1, 618960, Note_on_c, 9, 48, 63
1, 618960, Note_on_c, 9, 44, 31
1, 618966, Note_on_c, 9, 44, 0
1, 619079, Note_on_c, 9, 48, 0
1, 619080, Note_on_c, 9, 47, 63
1, 619199, Note_on_c, 9, 47, 0
1, 619200, Note_on_c, 9, 45, 63
1, 619200, Note_on_c, 9, 44, 31
1, 619206, Note_on_c, 9, 44, 0
1, 619440, Note_on_c, 9, 44, 31
1, 619446, Note_on_c, 9, 44, 0
1, 619559, Note_on_c, 9, 45, 0
1, 619560, Note_on_c, 9, 45, 63
1, 619679, Note_on_c, 9, 45, 0
1, 619680, Note_on_c, 9, 48, 63
1, 619680, Note_on_c, 9, 44, 31
1, 619686, Note_on_c, 9, 44, 0
1, 619799, Note_on_c, 9, 48, 0
1, 619800, Note_on_c, 9, 48, 63
1, 619920, Note_on_c, 9, 44, 31
1, 619926, Note_on_c, 9, 44, 0
1, 620039, Note_on_c, 9, 48, 0
1, 620100, Note_on_c, 9, 45, 38
1, 620129, Note_on_c, 9, 45, 0
1, 620130, Note_on_c, 9, 45, 38
1, 620159, Note_on_c, 9, 45, 0
1, 620160, Note_on_c, 9, 47, 63
1, 620160, Note_on_c, 9, 44, 31
1, 620166, Note_on_c, 9, 44, 0
1, 620400, Note_on_c, 9, 44, 31
1, 620406, Note_on_c, 9, 44, 0
1, 620519, Note_on_c, 9, 47, 0
1, 620520, Note_on_c, 9, 48, 63
1, 620639, Note_on_c, 9, 48, 0
1, 620640, Note_on_c, 9, 44, 31
1, 620646, Note_on_c, 9, 44, 0
1, 620880, Note_on_c, 9, 48, 63
1, 620880, Note_on_c, 9, 44, 31
1, 620886, Note_on_c, 9, 44, 0
1, 620999, Note_on_c, 9, 48, 0
1, 621000, Note_on_c, 9, 47, 63
1, 621119, Note_on_c, 9, 47, 0
1, 621120, Note_on_c, 9, 45, 63
1, 621120, Note_on_c, 9, 44, 31
1, 621126, Note_on_c, 9, 44, 0
1, 621360, Note_on_c, 9, 44, 31
1, 621366, Note_on_c, 9, 44, 0
1, 621479, Note_on_c, 9, 45, 0
1, 621480, Note_on_c, 9, 45, 63
1, 621599, Note_on_c, 9, 45, 0
1, 621600, Note_on_c, 9, 48, 63
1, 621600, Note_on_c, 9, 44, 31
1, 621606, Note_on_c, 9, 44, 0
1, 621840, Note_on_c, 9, 44, 31
1, 621846, Note_on_c, 9, 44, 0
1, 621959, Note_on_c, 9, 48, 0
1, 622020, Note_on_c, 9, 45, 38
1, 622049, Note_on_c, 9, 45, 0
1, 622050, Note_on_c, 9, 45, 38
1, 622079, Note_on_c, 9, 45, 0
1, 622080, Note_on_c, 9, 47, 63
1, 622080, Note_on_c, 9, 44, 31
1, 622086, Note_on_c, 9, 44, 0
1, 622320, Note_on_c, 9, 44, 31
1, 622326, Note_on_c, 9, 44, 0
1, 622439, Note_on_c, 9, 47, 0
1, 622440, Note_on_c, 9, 48, 63
1, 622559, Note_on_c, 9, 48, 0
1, 622560, Note_on_c, 9, 44, 31
1, 622566, Note_on_c, 9, 44, 0
1, 622800, Note_on_c, 9, 48, 63
1, 622800, Note_on_c, 9, 44, 31
1, 622806, Note_on_c, 9, 44, 0
1, 622919, Note_on_c, 9, 48, 0
1, 622920, Note_on_c, 9, 47, 63
1, 623039, Note_on_c, 9, 47, 0
1, 623040, Note_on_c, 9, 45, 63
1, 623040, Note_on_c, 9, 44, 31
1, 623046, Note_on_c, 9, 44, 0
1, 623280, Note_on_c, 9, 44, 31
1, 623286, Note_on_c, 9, 44, 0
1, 623399, Note_on_c, 9, 45, 0
1, 623400, Note_on_c, 9, 45, 63
1, 623519, Note_on_c, 9, 45, 0
1, 623520, Note_on_c, 9, 48, 63
1, 623520, Note_on_c, 9, 44, 31
1, 623526, Note_on_c, 9, 44, 0
1, 623639, Note_on_c, 9, 48, 0
1, 623640, Note_on_c, 9, 48, 63
1, 623760, Note_on_c, 9, 44, 31
1, 623766, Note_on_c, 9, 44, 0
1, 623879, Note_on_c, 9, 48, 0
1, 623940, Note_on_c, 9, 45, 38
1, 623969, Note_on_c, 9, 45, 0
1, 623970, Note_on_c, 9, 45, 38
1, 623999, Note_on_c, 9, 45, 0
1, 624000, Note_on_c, 9, 47, 63
1, 624000, Note_on_c, 9, 44, 31
1, 624006, Note_on_c, 9, 44, 0
1, 624240, Note_on_c, 9, 44, 31
1, 624246, Note_on_c, 9, 44, 0
1, 624359, Note_on_c, 9, 47, 0
1, 624360, Note_on_c, 9, 48, 63
1, 624479, Note_on_c, 9, 48, 0
1, 624480, Note_on_c, 9, 44, 31
1, 624486, Note_on_c, 9, 44, 0
1, 624720, Note_on_c, 9, 48, 63
1, 624720, Note_on_c, 9, 44, 31
1, 624726, Note_on_c, 9, 44, 0
1, 624839, Note_on_c, 9, 48, 0
1, 624840, Note_on_c, 9, 47, 63
1, 624959, Note_on_c, 9, 47, 0
1, 624960, Note_on_c, 9, 45, 63
1, 624960, Note_on_c, 9, 44, 31
1, 624966, Note_on_c, 9, 44, 0
1, 625200, Note_on_c, 9, 44, 31
1, 625206, Note_on_c, 9, 44, 0
1, 625319, Note_on_c, 9, 45, 0
1, 625320, Note_on_c, 9, 45, 63
1, 625439, Note_on_c, 9, 45, 0
1, 625440, Note_on_c, 9, 48, 63
1, 625440, Note_on_c, 9, 44, 31
1, 625446, Note_on_c, 9, 44, 0
1, 625680, Note_on_c, 9, 44, 31
1, 625686, Note_on_c, 9, 44, 0
1, 625799, Note_on_c, 9, 48, 0
1, 625860, Note_on_c, 9, 45, 38
1, 625889, Note_on_c, 9, 45, 0
1, 625890, Note_on_c, 9, 45, 38
1, 625919, Note_on_c, 9, 45, 0
1, 625920, Note_on_c, 9, 47, 63
1, 625920, Note_on_c, 9, 44, 31
1, 625926, Note_on_c, 9, 44, 0
1, 626160, Note_on_c, 9, 44, 31
1, 626166, Note_on_c, 9, 44, 0
1, 626279, Note_on_c, 9, 47, 0
1, 626280, Note_on_c, 9, 48, 63
1, 626399, Note_on_c, 9, 48, 0
1, 626400, Note_on_c, 9, 44, 31
1, 626406, Note_on_c, 9, 44, 0
1, 626640, Note_on_c, 9, 48, 63
1, 626640, Note_on_c, 9, 44, 31
1, 626646, Note_on_c, 9, 44, 0
1, 626759, Note_on_c, 9, 48, 0
1, 626760, Note_on_c, 9, 47, 63
1, 626879, Note_on_c, 9, 47, 0
1, 626880, Note_on_c, 9, 45, 63
1, 626880, Note_on_c, 9, 44, 31
1, 626886, Note_on_c, 9, 44, 0
1, 627120, Note_on_c, 9, 44, 31
1, 627126, Note_on_c, 9, 44, 0
1, 627239, Note_on_c, 9, 45, 0
1, 627240, Note_on_c, 9, 45, 63
1, 627359, Note_on_c, 9, 45, 0
1, 627360, Note_on_c, 9, 48, 63
1, 627360, Note_on_c, 9, 44, 31
1, 627366, Note_on_c, 9, 44, 0
1, 627479, Note_on_c, 9, 48, 0
1, 627480, Note_on_c, 9, 48, 63
1, 627600, Note_on_c, 9, 44, 31
1, 627606, Note_on_c, 9, 44, 0
1, 627719, Note_on_c, 9, 48, 0
1, 627780, Note_on_c, 9, 45, 38
1, 627809, Note_on_c, 9, 45, 0
1, 627810, Note_on_c, 9, 45, 38
1, 627839, Note_on_c, 9, 45, 0
1, 627840, Note_on_c, 9, 47, 63
1, 627840, Note_on_c, 9, 44, 31
1, 627846, Note_on_c, 9, 44, 0
1, 628080, Note_on_c, 9, 44, 31
1, 628086, Note_on_c, 9, 44, 0
1, 628199, Note_on_c, 9, 47, 0
1, 628200, Note_on_c, 9, 48, 63
1, 628319, Note_on_c, 9, 48, 0
1, 628320, Note_on_c, 9, 44, 31
1, 628326, Note_on_c, 9, 44, 0
1, 628560, Note_on_c, 9, 48, 63
1, 628560, Note_on_c, 9, 44, 31
1, 628566, Note_on_c, 9, 44, 0
1, 628679, Note_on_c, 9, 48, 0
1, 628680, Note_on_c, 9, 47, 63
1, 628799, Note_on_c, 9, 47, 0
1, 628800, Note_on_c, 9, 45, 63
1, 628800, Note_on_c, 9, 44, 31
1, 628806, Note_on_c, 9, 44, 0
1, 629040, Note_on_c, 9, 44, 31
1, 629046, Note_on_c, 9, 44, 0
1, 629159, Note_on_c, 9, 45, 0
1, 629160, Note_on_c, 9, 45, 63
1, 629279, Note_on_c, 9, 45, 0
1, 629280, Note_on_c, 9, 48, 63
1, 629280, Note_on_c, 9, 44, 31
1, 629286, Note_on_c, 9, 44, 0
1, 629520, Note_on_c, 9, 44, 31
1, 629526, Note_on_c, 9, 44, 0
1, 629639, Note_on_c, 9, 48, 0
1, 629700, Note_on_c, 9, 45, 38
1, 629729, Note_on_c, 9, 45, 0
1, 629730, Note_on_c, 9, 45, 38
1, 629759, Note_on_c, 9, 45, 0
1, 629760, Note_on_c, 9, 47, 63
1, 629760, Note_on_c, 9, 44, 31
1, 629766, Note_on_c, 9, 44, 0
1, 630000, Note_on_c, 9, 44, 31
1, 630006, Note_on_c, 9, 44, 0
1, 630119, Note_on_c, 9, 47, 0
1, 630120, Note_on_c, 9, 48, 63
1, 630239, Note_on_c, 9, 48, 0
1, 630240, Note_on_c, 9, 44, 31
1, 630246, Note_on_c, 9, 44, 0
1, 630480, Note_on_c, 9, 48, 63
1, 630480, Note_on_c, 9, 44, 31
1, 630486, Note_on_c, 9, 44, 0
1, 630599, Note_on_c, 9, 48, 0
1, 630600, Note_on_c, 9, 47, 63
1, 630719, Note_on_c, 9, 47, 0
1, 630720, Note_on_c, 9, 45, 63
1, 630720, Note_on_c, 9, 44, 31
1, 630726, Note_on_c, 9, 44, 0
1, 630960, Note_on_c, 9, 44, 31
1, 630966, Note_on_c, 9, 44, 0
1, 631079, Note_on_c, 9, 45, 0
1, 631080, Note_on_c, 9, 45, 63
1, 631199, Note_on_c, 9, 45, 0
1, 631200, Note_on_c, 9, 48, 63
1, 631200, Note_on_c, 9, 44, 31
1, 631206, Note_on_c, 9, 44, 0
1, 631319, Note_on_c, 9, 48, 0
1, 631320, Note_on_c, 9, 48, 63
1, 631440, Note_on_c, 9, 44, 31
1, 631446, Note_on_c, 9, 44, 0
1, 631559, Note_on_c, 9, 48, 0
1, 631620, Note_on_c, 9, 45, 38
1, 631649, Note_on_c, 9, 45, 0
1, 631650, Note_on_c, 9, 45, 38
1, 631679, Note_on_c, 9, 45, 0
1, 631680, Note_on_c, 9, 47, 63
1, 631680, Note_on_c, 9, 44, 31
1, 631686, Note_on_c, 9, 44, 0
1, 631920, Note_on_c, 9, 44, 31
1, 631926, Note_on_c, 9, 44, 0
1, 632039, Note_on_c, 9, 47, 0
1, 632040, Note_on_c, 9, 48, 63
1, 632159, Note_on_c, 9, 48, 0
1, 632160, Note_on_c, 9, 44, 31
1, 632166, Note_on_c, 9, 44, 0
1, 632400, Note_on_c, 9, 48, 63
1, 632400, Note_on_c, 9, 44, 31
1, 632406, Note_on_c, 9, 44, 0
1, 632519, Note_on_c, 9, 48, 0
1, 632520, Note_on_c, 9, 47, 63
1, 632639, Note_on_c, 9, 47, 0
1, 632640, Note_on_c, 9, 45, 63
1, 632640, Note_on_c, 9, 44, 31
1, 632646, Note_on_c, 9, 44, 0
1, 632880, Note_on_c, 9, 44, 31
1, 632886, Note_on_c, 9, 44, 0
1, 632999, Note_on_c, 9, 45, 0
1, 633000, Note_on_c, 9, 45, 63
1, 633119, Note_on_c, 9, 45, 0
1, 633120, Note_on_c, 9, 48, 63
1, 633120, Note_on_c, 9, 44, 31
1, 633126, Note_on_c, 9, 44, 0
1, 633360, Note_on_c, 9, 44, 31
1, 633366, Note_on_c, 9, 44, 0
1, 633479, Note_on_c, 9, 48, 0
1, 633540, Note_on_c, 9, 45, 38
1, 633569, Note_on_c, 9, 45, 0
1, 633570, Note_on_c, 9, 45, 38
1, 633599, Note_on_c, 9, 45, 0
1, 633600, Note_on_c, 9, 47, 63
1, 633600, Note_on_c, 9, 44, 31
1, 633606, Note_on_c, 9, 44, 0
1, 633840, Note_on_c, 9, 44, 31
1, 633846, Note_on_c, 9, 44, 0
1, 633959, Note_on_c, 9, 47, 0
1, 633960, Note_on_c, 9, 48, 63
1, 634079, Note_on_c, 9, 48, 0
1, 634080, Note_on_c, 9, 44, 31
1, 634086, Note_on_c, 9, 44, 0
1, 634320, Note_on_c, 9, 48, 63
1, 634320, Note_on_c, 9, 44, 31
1, 634326, Note_on_c, 9, 44, 0
1, 634439, Note_on_c, 9, 48, 0
1, 634440, Note_on_c, 9, 47, 63
1, 634559, Note_on_c, 9, 47, 0
1, 634560, Note_on_c, 9, 45, 63
1, 634560, Note_on_c, 9, 44, 31
1, 634566, Note_on_c, 9, 44, 0
1, 634800, Note_on_c, 9, 44, 31
1, 634806, Note_on_c, 9, 44, 0
1, 634919, Note_on_c, 9, 45, 0
1, 634920, Note_on_c, 9, 45, 63
1, 635039, Note_on_c, 9, 45, 0
1, 635040, Note_on_c, 9, 48, 63
1, 635040, Note_on_c, 9, 44, 31
1, 635046, Note_on_c, 9, 44, 0
1, 635159, Note_on_c, 9, 48, 0
1, 635160, Note_on_c, 9, 48, 63
1, 635280, Note_on_c, 9, 44, 31
1, 635286, Note_on_c, 9, 44, 0
1, 635399, Note_on_c, 9, 48, 0
1, 635460, Note_on_c, 9, 45, 38
1, 635489, Note_on_c, 9, 45, 0
1, 635490, Note_on_c, 9, 45, 38
1, 635519, Note_on_c, 9, 45, 0
1, 635520, Note_on_c, 9, 47, 63
1, 635520, Note_on_c, 9, 44, 31
1, 635526, Note_on_c, 9, 44, 0
1, 635760, Note_on_c, 9, 44, 31
1, 635766, Note_on_c, 9, 44, 0
1, 635879, Note_on_c, 9, 47, 0
1, 635880, Note_on_c, 9, 48, 63
1, 635999, Note_on_c, 9, 48, 0
1, 636000, Note_on_c, 9, 44, 31
1, 636006, Note_on_c, 9, 44, 0
1, 636240, Note_on_c, 9, 48, 63
1, 636240, Note_on_c, 9, 44, 31
1, 636246, Note_on_c, 9, 44, 0
1, 636359, Note_on_c, 9, 48, 0
1, 636360, Note_on_c, 9, 47, 63
1, 636479, Note_on_c, 9, 47, 0
1, 636480, Note_on_c, 9, 45, 63
1, 636480, Note_on_c, 9, 44, 31
1, 636486, Note_on_c, 9, 44, 0
1, 636720, Note_on_c, 9, 44, 31
1, 636726, Note_on_c, 9, 44, 0
1, 636839, Note_on_c, 9, 45, 0
1, 636840, Note_on_c, 9, 45, 63
1, 636959, Note_on_c, 9, 45, 0
1, 636960, Note_on_c, 9, 48, 63
1, 636960, Note_on_c, 9, 44, 31
1, 636966, Note_on_c, 9, 44, 0
1, 637200, Note_on_c, 9, 44, 31
1, 637206, Note_on_c, 9, 44, 0
1, 637319, Note_on_c, 9, 48, 0
1, 637380, Note_on_c, 9, 45, 38
1, 637409, Note_on_c, 9, 45, 0
1, 637410, Note_on_c, 9, 45, 38
1, 637439, Note_on_c, 9, 45, 0
1, 637440, Note_on_c, 9, 47, 63
1, 637440, Note_on_c, 9, 44, 31
1, 637446, Note_on_c, 9, 44, 0
1, 637680, Note_on_c, 9, 44, 31
1, 637686, Note_on_c, 9, 44, 0
1, 637799, Note_on_c, 9, 47, 0
1, 637800, Note_on_c, 9, 48, 63
1, 637919, Note_on_c, 9, 48, 0
1, 637920, Note_on_c, 9, 44, 31
1, 637926, Note_on_c, 9, 44, 0
1, 638160, Note_on_c, 9, 48, 63
1, 638160, Note_on_c, 9, 44, 31
1, 638166, Note_on_c, 9, 44, 0
1, 638279, Note_on_c, 9, 48, 0
1, 638280, Note_on_c, 9, 47, 63
1, 638399, Note_on_c, 9, 47, 0
1, 638400, Note_on_c, 9, 45, 63
1, 638400, Note_on_c, 9, 44, 31
1, 638406, Note_on_c, 9, 44, 0
1, 638640, Note_on_c, 9, 44, 31
1, 638646, Note_on_c, 9, 44, 0
1, 638759, Note_on_c, 9, 45, 0
1, 638760, Note_on_c, 9, 45, 63
1, 638879, Note_on_c, 9, 45, 0
1, 638880, Note_on_c, 9, 48, 63
1, 638880, Note_on_c, 9, 44, 31
1, 638886, Note_on_c, 9, 44, 0
1, 638999, Note_on_c, 9, 48, 0
1, 639000, Note_on_c, 9, 48, 63
1, 639120, Note_on_c, 9, 44, 31
1, 639126, Note_on_c, 9, 44, 0
1, 639239, Note_on_c, 9, 48, 0
1, 639300, Note_on_c, 9, 45, 38
1, 639329, Note_on_c, 9, 45, 0
1, 639330, Note_on_c, 9, 45, 38
1, 639359, Note_on_c, 9, 45, 0
1, 639360, Note_on_c, 9, 47, 63
1, 639360, Note_on_c, 9, 44, 31
1, 639366, Note_on_c, 9, 44, 0
1, 639600, Note_on_c, 9, 44, 31
1, 639606, Note_on_c, 9, 44, 0
1, 639719, Note_on_c, 9, 47, 0
1, 639720, Note_on_c, 9, 48, 63
1, 639839, Note_on_c, 9, 48, 0
1, 639840, Note_on_c, 9, 44, 31
1, 639846, Note_on_c, 9, 44, 0
1, 640080, Note_on_c, 9, 48, 63
1, 640080, Note_on_c, 9, 44, 31
1, 640086, Note_on_c, 9, 44, 0
1, 640199, Note_on_c, 9, 48, 0
1, 640200, Note_on_c, 9, 47, 63
1, 640319, Note_on_c, 9, 47, 0
1, 640320, Note_on_c, 9, 45, 63
1, 640320, Note_on_c, 9, 44, 31
1, 640326, Note_on_c, 9, 44, 0
1, 640560, Note_on_c, 9, 44, 31
1, 640566, Note_on_c, 9, 44, 0
1, 640679, Note_on_c, 9, 45, 0
1, 640680, Note_on_c, 9, 45, 63
1, 640799, Note_on_c, 9, 45, 0
1, 640800, Note_on_c, 9, 48, 63
1, 640800, Note_on_c, 9, 44, 31
1, 640806, Note_on_c, 9, 44, 0
1, 641040, Note_on_c, 9, 44, 31
1, 641046, Note_on_c, 9, 44, 0
1, 641159, Note_on_c, 9, 48, 0
1, 641220, Note_on_c, 9, 45, 38
1, 641249, Note_on_c, 9, 45, 0
1, 641250, Note_on_c, 9, 45, 38
1, 641279, Note_on_c, 9, 45, 0
1, 641280, Note_on_c, 9, 47, 63
1, 641280, Note_on_c, 9, 44, 31
1, 641286, Note_on_c, 9, 44, 0
1, 641520, Note_on_c, 9, 44, 31
1, 641526, Note_on_c, 9, 44, 0
1, 641639, Note_on_c, 9, 47, 0
1, 641640, Note_on_c, 9, 48, 63
1, 641759, Note_on_c, 9, 48, 0
1, 641760, Note_on_c, 9, 44, 31
1, 641766, Note_on_c, 9, 44, 0
1, 642000, Note_on_c, 9, 48, 63
1, 642000, Note_on_c, 9, 44, 31
1, 642006, Note_on_c, 9, 44, 0
1, 642119, Note_on_c, 9, 48, 0
1, 642120, Note_on_c, 9, 47, 63
1, 642239, Note_on_c, 9, 47, 0
1, 642240, Note_on_c, 9, 45, 63
1, 642240, Note_on_c, 9, 44, 31
1, 642246, Note_on_c, 9, 44, 0
1, 642480, Note_on_c, 9, 44, 31
1, 642486, Note_on_c, 9, 44, 0
1, 642599, Note_on_c, 9, 45, 0
1, 642600, Note_on_c, 9, 45, 63
1, 642719, Note_on_c, 9, 45, 0
1, 642720, Note_on_c, 9, 48, 63
1, 642720, Note_on_c, 9, 44, 31
1, 642726, Note_on_c, 9, 44, 0
1, 642839, Note_on_c, 9, 48, 0
1, 642840, Note_on_c, 9, 48, 63
1, 642960, Note_on_c, 9, 44, 31
1, 642966, Note_on_c, 9, 44, 0
1, 643079, Note_on_c, 9, 48, 0
1, 643140, Note_on_c, 9, 45, 38
1, 643169, Note_on_c, 9, 45, 0
1, 643170, Note_on_c, 9, 45, 38
1, 643199, Note_on_c, 9, 45, 0
1, 643200, Note_on_c, 9, 47, 63
1, 643200, Note_on_c, 9, 44, 31
1, 643206, Note_on_c, 9, 44, 0
1, 643440, Note_on_c, 9, 44, 31
1, 643446, Note_on_c, 9, 44, 0
1, 643559, Note_on_c, 9, 47, 0
1, 643560, Note_on_c, 9, 48, 63
1, 643679, Note_on_c, 9, 48, 0
1, 643680, Note_on_c, 9, 44, 31
1, 643686, Note_on_c, 9, 44, 0
1, 643920, Note_on_c, 9, 48, 63
1, 643920, Note_on_c, 9, 44, 31
1, 643926, Note_on_c, 9, 44, 0
1, 644039, Note_on_c, 9, 48, 0
1, 644040, Note_on_c, 9, 47, 63
1, 644159, Note_on_c, 9, 47, 0
1, 644160, Note_on_c, 9, 45, 63
1, 644160, Note_on_c, 9, 44, 31
1, 644166, Note_on_c, 9, 44, 0
1, 644400, Note_on_c, 9, 44, 31
1, 644406, Note_on_c, 9, 44, 0
1, 644519, Note_on_c, 9, 45, 0
1, 644520, Note_on_c, 9, 45, 63
1, 644639, Note_on_c, 9, 45, 0
1, 644640, Note_on_c, 9, 48, 63
1, 644640, Note_on_c, 9, 44, 31
1, 644646, Note_on_c, 9, 44, 0
1, 644880, Note_on_c, 9, 44, 31
1, 644886, Note_on_c, 9, 44, 0
1, 644999, Note_on_c, 9, 48, 0
1, 645060, Note_on_c, 9, 45, 38
1, 645089, Note_on_c, 9, 45, 0
1, 645090, Note_on_c, 9, 45, 38
1, 645119, Note_on_c, 9, 45, 0
1, 645120, Note_on_c, 9, 47, 63
1, 645120, Note_on_c, 9, 44, 31
1, 645126, Note_on_c, 9, 44, 0
1, 645360, Note_on_c, 9, 44, 31
1, 645366, Note_on_c, 9, 44, 0
1, 645479, Note_on_c, 9, 47, 0
1, 645480, Note_on_c, 9, 48, 63
1, 645599, Note_on_c, 9, 48, 0
1, 645600, Note_on_c, 9, 44, 31
1, 645606, Note_on_c, 9, 44, 0
1, 645840, Note_on_c, 9, 48, 63
1, 645840, Note_on_c, 9, 44, 31
1, 645846, Note_on_c, 9, 44, 0
1, 645959, Note_on_c, 9, 48, 0
1, 645960, Note_on_c, 9, 47, 63
1, 646079, Note_on_c, 9, 47, 0
1, 646080, Note_on_c, 9, 45, 63
1, 646080, Note_on_c, 9, 44, 31
1, 646086, Note_on_c, 9, 44, 0
1, 646320, Note_on_c, 9, 44, 31
1, 646326, Note_on_c, 9, 44, 0
1, 646439, Note_on_c, 9, 45, 0
1, 646440, Note_on_c, 9, 45, 63
1, 646559, Note_on_c, 9, 45, 0
1, 646560, Note_on_c, 9, 48, 63
1, 646560, Note_on_c, 9, 44, 31
1, 646566, Note_on_c, 9, 44, 0
1, 646679, Note_on_c, 9, 48, 0
1, 646680, Note_on_c, 9, 48, 63
1, 646800, Note_on_c, 9, 44, 31
1, 646806, Note_on_c, 9, 44, 0
1, 646919, Note_on_c, 9, 48, 0
1, 646980, Note_on_c, 9, 45, 38
1, 647009, Note_on_c, 9, 45, 0
1, 647010, Note_on_c, 9, 45, 38
1, 647039, Note_on_c, 9, 45, 0
1, 647040, Tempo, 372671
1, 647040, Note_on_c, 9, 49, 79
1, 647040, Note_on_c, 9, 57, 79
1, 647040, Note_on_c, 9, 36, 79
1, 647069, Note_on_c, 9, 49, 0
1, 647069, Note_on_c, 9, 57, 0
1, 647519, Note_on_c, 9, 36, 0
1, 647520, Note_on_c, 9, 40, 79
1, 647520, Note_on_c, 9, 53, 79
1, 647760, Note_on_c, 9, 36, 79
1, 647999, Note_on_c, 9, 40, 0
1, 647999, Note_on_c, 9, 53, 0
1, 647999, Note_on_c, 9, 36, 0
1, 648000, Note_on_c, 9, 53, 79
1, 648240, Note_on_c, 9, 36, 79
1, 648479, Note_on_c, 9, 53, 0
1, 648479, Note_on_c, 9, 36, 0
1, 648480, Note_on_c, 9, 40, 79
1, 648480, Note_on_c, 9, 53, 79
1, 648959, Note_on_c, 9, 40, 0
1, 648959, Note_on_c, 9, 53, 0
1, 648960, Note_on_c, 9, 53, 79
1, 648960, Note_on_c, 9, 36, 79
1, 649439, Note_on_c, 9, 53, 0
1, 649439, Note_on_c, 9, 36, 0
1, 649440, Note_on_c, 9, 40, 79
1, 649440, Note_on_c, 9, 53, 79
1, 649680, Note_on_c, 9, 36, 79
1, 649919, Note_on_c, 9, 40, 0
1, 649919, Note_on_c, 9, 53, 0
1, 649919, Note_on_c, 9, 36, 0
1, 649920, Note_on_c, 9, 53, 79
1, 650160, Note_on_c, 9, 36, 79
1, 650399, Note_on_c, 9, 53, 0
1, 650399, Note_on_c, 9, 36, 0
1, 650400, Note_on_c, 9, 40, 79
1, 650400, Note_on_c, 9, 53, 79
1, 650879, Note_on_c, 9, 40, 0
1, 650879, Note_on_c, 9, 53, 0
1, 650880, Note_on_c, 9, 53, 79
1, 650880, Note_on_c, 9, 36, 79
1, 651359, Note_on_c, 9, 53, 0
1, 651359, Note_on_c, 9, 36, 0
1, 651360, Note_on_c, 9, 40, 79
1, 651360, Note_on_c, 9, 53, 79
1, 651600, Note_on_c, 9, 36, 79
1, 651839, Note_on_c, 9, 40, 0
1, 651839, Note_on_c, 9, 53, 0
1, 651839, Note_on_c, 9, 36, 0
1, 651840, Note_on_c, 9, 53, 79
1, 652080, Note_on_c, 9, 36, 79
1, 652319, Note_on_c, 9, 53, 0
1, 652319, Note_on_c, 9, 36, 0
1, 652320, Note_on_c, 9, 40, 79
1, 652320, Note_on_c, 9, 53, 79
1, 652799, Note_on_c, 9, 40, 0
1, 652799, Note_on_c, 9, 53, 0
1, 652800, Note_on_c, 9, 53, 79
1, 652800, Note_on_c, 9, 36, 79
1, 653279, Note_on_c, 9, 53, 0
1, 653279, Note_on_c, 9, 36, 0
1, 653280, Note_on_c, 9, 40, 79
1, 653280, Note_on_c, 9, 53, 79
1, 653520, Note_on_c, 9, 36, 79
1, 653759, Note_on_c, 9, 40, 0
1, 653759, Note_on_c, 9, 53, 0
1, 653759, Note_on_c, 9, 36, 0
1, 653760, Note_on_c, 9, 53, 79
1, 654000, Note_on_c, 9, 36, 79
1, 654239, Note_on_c, 9, 53, 0
1, 654239, Note_on_c, 9, 36, 0
1, 654240, Note_on_c, 9, 40, 79
1, 654240, Note_on_c, 9, 53, 79
1, 654240, Note_on_c, 9, 55, 79
1, 654269, Note_on_c, 9, 55, 0
1, 654719, Note_on_c, 9, 40, 0
1, 654719, Note_on_c, 9, 53, 0
1, 654720, Note_on_c, 9, 49, 79
1, 654720, Note_on_c, 9, 57, 79
1, 654720, Note_on_c, 9, 36, 79
1, 654749, Note_on_c, 9, 49, 0
1, 654749, Note_on_c, 9, 57, 0
1, 655199, Note_on_c, 9, 36, 0
1, 655200, Note_on_c, 9, 40, 79
1, 655200, Note_on_c, 9, 53, 79
1, 655440, Note_on_c, 9, 36, 79
1, 655679, Note_on_c, 9, 40, 0
1, 655679, Note_on_c, 9, 53, 0
1, 655679, Note_on_c, 9, 36, 0
1, 655680, Note_on_c, 9, 53, 79
1, 655920, Note_on_c, 9, 36, 79
1, 656159, Note_on_c, 9, 53, 0
1, 656159, Note_on_c, 9, 36, 0
1, 656160, Note_on_c, 9, 40, 79
1, 656160, Note_on_c, 9, 53, 79
1, 656639, Note_on_c, 9, 40, 0
1, 656639, Note_on_c, 9, 53, 0
1, 656640, Note_on_c, 9, 53, 79
1, 656640, Note_on_c, 9, 36, 79
1, 657119, Note_on_c, 9, 53, 0
1, 657119, Note_on_c, 9, 36, 0
1, 657120, Note_on_c, 9, 40, 79
1, 657120, Note_on_c, 9, 53, 79
1, 657360, Note_on_c, 9, 36, 79
1, 657599, Note_on_c, 9, 40, 0
1, 657599, Note_on_c, 9, 53, 0
1, 657599, Note_on_c, 9, 36, 0
1, 657600, Note_on_c, 9, 53, 79
1, 657840, Note_on_c, 9, 36, 79
1, 658079, Note_on_c, 9, 53, 0
1, 658079, Note_on_c, 9, 36, 0
1, 658080, Note_on_c, 9, 40, 79
1, 658080, Note_on_c, 9, 53, 79
1, 658559, Note_on_c, 9, 40, 0
1, 658559, Note_on_c, 9, 53, 0
1, 658560, Note_on_c, 9, 53, 79
1, 658560, Note_on_c, 9, 36, 79
1, 659039, Note_on_c, 9, 53, 0
1, 659039, Note_on_c, 9, 36, 0
1, 659040, Note_on_c, 9, 40, 79
1, 659040, Note_on_c, 9, 53, 79
1, 659280, Note_on_c, 9, 36, 79
1, 659519, Note_on_c, 9, 40, 0
1, 659519, Note_on_c, 9, 53, 0
1, 659519, Note_on_c, 9, 36, 0
1, 659520, Note_on_c, 9, 53, 79
1, 659760, Note_on_c, 9, 36, 79
1, 659999, Note_on_c, 9, 53, 0
1, 659999, Note_on_c, 9, 36, 0
1, 660000, Note_on_c, 9, 40, 79
1, 660000, Note_on_c, 9, 53, 79
1, 660479, Note_on_c, 9, 40, 0
1, 660479, Note_on_c, 9, 53, 0
1, 660480, Note_on_c, 9, 53, 79
1, 660480, Note_on_c, 9, 36, 79
1, 660719, Note_on_c, 9, 36, 0
1, 660720, Note_on_c, 9, 36, 79
1, 660959, Note_on_c, 9, 53, 0
1, 660959, Note_on_c, 9, 36, 0
1, 660960, Note_on_c, 9, 40, 79
1, 660960, Note_on_c, 9, 53, 79
1, 661200, Note_on_c, 9, 36, 79
1, 661439, Note_on_c, 9, 40, 0
1, 661439, Note_on_c, 9, 53, 0
1, 661439, Note_on_c, 9, 36, 0
1, 661440, Note_on_c, 9, 53, 79
1, 661680, Note_on_c, 9, 36, 79
1, 661919, Note_on_c, 9, 53, 0
1, 661919, Note_on_c, 9, 36, 0
1, 661920, Note_on_c, 9, 40, 79
1, 661920, Note_on_c, 9, 53, 79
1, 662159, Note_on_c, 9, 40, 0
1, 662159, Note_on_c, 9, 53, 0
1, 662160, Note_on_c, 9, 57, 79
1, 662174, Note_on_c, 9, 57, 0
1, 662400, Note_on_c, 9, 49, 79
1, 662400, Note_on_c, 9, 57, 79
1, 662400, Note_on_c, 9, 36, 79
1, 662429, Note_on_c, 9, 49, 0
1, 662429, Note_on_c, 9, 57, 0
1, 662879, Note_on_c, 9, 36, 0
1, 662880, Note_on_c, 9, 40, 79
1, 662880, Note_on_c, 9, 53, 79
1, 663120, Note_on_c, 9, 36, 79
1, 663359, Note_on_c, 9, 40, 0
1, 663359, Note_on_c, 9, 53, 0
1, 663359, Note_on_c, 9, 36, 0
1, 663360, Note_on_c, 9, 53, 79
1, 663600, Note_on_c, 9, 36, 79
1, 663839, Note_on_c, 9, 53, 0
1, 663839, Note_on_c, 9, 36, 0
1, 663840, Note_on_c, 9, 40, 79
1, 663840, Note_on_c, 9, 53, 79
1, 664319, Note_on_c, 9, 40, 0
1, 664319, Note_on_c, 9, 53, 0
1, 664320, Note_on_c, 9, 53, 79
1, 664320, Note_on_c, 9, 36, 79
1, 664799, Note_on_c, 9, 53, 0
1, 664799, Note_on_c, 9, 36, 0
1, 664800, Note_on_c, 9, 40, 79
1, 664800, Note_on_c, 9, 53, 79
1, 665040, Note_on_c, 9, 36, 79
1, 665279, Note_on_c, 9, 40, 0
1, 665279, Note_on_c, 9, 53, 0
1, 665279, Note_on_c, 9, 36, 0
1, 665280, Note_on_c, 9, 53, 79
1, 665520, Note_on_c, 9, 36, 79
1, 665759, Note_on_c, 9, 53, 0
1, 665759, Note_on_c, 9, 36, 0
1, 665760, Note_on_c, 9, 40, 79
1, 665760, Note_on_c, 9, 53, 79
1, 666239, Note_on_c, 9, 40, 0
1, 666239, Note_on_c, 9, 53, 0
1, 666240, Note_on_c, 9, 53, 79
1, 666240, Note_on_c, 9, 36, 79
1, 666719, Note_on_c, 9, 53, 0
1, 666719, Note_on_c, 9, 36, 0
1, 666720, Note_on_c, 9, 40, 79
1, 666720, Note_on_c, 9, 53, 79
1, 666960, Note_on_c, 9, 36, 79
1, 667199, Note_on_c, 9, 40, 0
1, 667199, Note_on_c, 9, 53, 0
1, 667199, Note_on_c, 9, 36, 0
1, 667200, Note_on_c, 9, 53, 79
1, 667440, Note_on_c, 9, 36, 79
1, 667679, Note_on_c, 9, 53, 0
1, 667679, Note_on_c, 9, 36, 0
1, 667680, Note_on_c, 9, 40, 79
1, 667680, Note_on_c, 9, 53, 79
1, 668159, Note_on_c, 9, 40, 0
1, 668159, Note_on_c, 9, 53, 0
1, 668160, Note_on_c, 9, 53, 79
1, 668160, Note_on_c, 9, 36, 79
1, 668399, Note_on_c, 9, 36, 0
1, 668400, Note_on_c, 9, 36, 79
1, 668639, Note_on_c, 9, 53, 0
1, 668639, Note_on_c, 9, 36, 0
1, 668640, Note_on_c, 9, 40, 79
1, 668640, Note_on_c, 9, 53, 79
1, 669119, Note_on_c, 9, 40, 0
1, 669119, Note_on_c, 9, 53, 0
1, 669120, Note_on_c, 9, 53, 79
1, 669120, Note_on_c, 9, 36, 79
1, 669359, Note_on_c, 9, 36, 0
1, 669360, Note_on_c, 9, 36, 79
1, 669599, Note_on_c, 9, 53, 0
1, 669599, Note_on_c, 9, 36, 0
1, 669600, Note_on_c, 9, 40, 79
1, 669600, Note_on_c, 9, 53, 79
1, 670079, Note_on_c, 9, 40, 0
1, 670079, Note_on_c, 9, 53, 0
1, 670080, Note_on_c, 9, 49, 79
1, 670080, Note_on_c, 9, 57, 79
1, 670080, Note_on_c, 9, 36, 79
1, 670109, Note_on_c, 9, 49, 0
1, 670109, Note_on_c, 9, 57, 0
1, 670559, Note_on_c, 9, 36, 0
1, 670560, Note_on_c, 9, 40, 79
1, 670560, Note_on_c, 9, 53, 79
1, 670800, Note_on_c, 9, 36, 79
1, 671039, Note_on_c, 9, 40, 0
1, 671039, Note_on_c, 9, 53, 0
1, 671039, Note_on_c, 9, 36, 0
1, 671040, Note_on_c, 9, 53, 79
1, 671280, Note_on_c, 9, 36, 79
1, 671519, Note_on_c, 9, 53, 0
1, 671519, Note_on_c, 9, 36, 0
1, 671520, Note_on_c, 9, 40, 79
1, 671520, Note_on_c, 9, 53, 79
1, 671999, Note_on_c, 9, 40, 0
1, 671999, Note_on_c, 9, 53, 0
1, 672000, Note_on_c, 9, 53, 79
1, 672000, Note_on_c, 9, 36, 79
1, 672479, Note_on_c, 9, 53, 0
1, 672479, Note_on_c, 9, 36, 0
1, 672480, Note_on_c, 9, 40, 79
1, 672480, Note_on_c, 9, 53, 79
1, 672720, Note_on_c, 9, 36, 79
1, 672959, Note_on_c, 9, 40, 0
1, 672959, Note_on_c, 9, 53, 0
1, 672959, Note_on_c, 9, 36, 0
1, 672960, Note_on_c, 9, 53, 79
1, 673200, Note_on_c, 9, 36, 79
1, 673439, Note_on_c, 9, 53, 0
1, 673439, Note_on_c, 9, 36, 0
1, 673440, Note_on_c, 9, 40, 79
1, 673440, Note_on_c, 9, 53, 79
1, 673919, Note_on_c, 9, 40, 0
1, 673919, Note_on_c, 9, 53, 0
1, 673920, Note_on_c, 9, 53, 79
1, 673920, Note_on_c, 9, 36, 79
1, 674399, Note_on_c, 9, 53, 0
1, 674399, Note_on_c, 9, 36, 0
1, 674400, Note_on_c, 9, 40, 79
1, 674400, Note_on_c, 9, 53, 79
1, 674640, Note_on_c, 9, 36, 79
1, 674879, Note_on_c, 9, 40, 0
1, 674879, Note_on_c, 9, 53, 0
1, 674879, Note_on_c, 9, 36, 0
1, 674880, Note_on_c, 9, 53, 79
1, 675120, Note_on_c, 9, 36, 79
1, 675359, Note_on_c, 9, 53, 0
1, 675359, Note_on_c, 9, 36, 0
1, 675360, Note_on_c, 9, 40, 79
1, 675360, Note_on_c, 9, 53, 79
1, 675839, Note_on_c, 9, 40, 0
1, 675839, Note_on_c, 9, 53, 0
1, 675840, Note_on_c, 9, 53, 79
1, 675840, Note_on_c, 9, 36, 79
1, 676079, Note_on_c, 9, 36, 0
1, 676080, Note_on_c, 9, 36, 79
1, 676319, Note_on_c, 9, 53, 0
1, 676319, Note_on_c, 9, 36, 0
1, 676320, Note_on_c, 9, 40, 79
1, 676320, Note_on_c, 9, 53, 79
1, 676799, Note_on_c, 9, 40, 0
1, 676799, Note_on_c, 9, 53, 0
1, 676800, Note_on_c, 9, 53, 79
1, 676800, Note_on_c, 9, 36, 79
1, 677039, Note_on_c, 9, 36, 0
1, 677040, Note_on_c, 9, 36, 79
1, 677279, Note_on_c, 9, 53, 0
1, 677279, Note_on_c, 9, 36, 0
1, 677280, Note_on_c, 9, 40, 79
1, 677280, Note_on_c, 9, 53, 79
1, 677759, Note_on_c, 9, 40, 0
1, 677759, Note_on_c, 9, 53, 0
1, 677760, Note_on_c, 9, 49, 79
1, 677760, Note_on_c, 9, 57, 79
1, 677760, Note_on_c, 9, 36, 79
1, 677789, Note_on_c, 9, 49, 0
1, 677789, Note_on_c, 9, 57, 0
1, 678239, Note_on_c, 9, 36, 0
1, 678240, Note_on_c, 9, 40, 79
1, 678240, Note_on_c, 9, 53, 79
1, 678480, Note_on_c, 9, 36, 79
1, 678719, Note_on_c, 9, 40, 0
1, 678719, Note_on_c, 9, 53, 0
1, 678719, Note_on_c, 9, 36, 0
1, 678720, Note_on_c, 9, 53, 79
1, 678960, Note_on_c, 9, 36, 79
1, 679199, Note_on_c, 9, 53, 0
1, 679199, Note_on_c, 9, 36, 0
1, 679200, Note_on_c, 9, 40, 79
1, 679200, Note_on_c, 9, 53, 79
1, 679679, Note_on_c, 9, 40, 0
1, 679679, Note_on_c, 9, 53, 0
1, 679680, Note_on_c, 9, 53, 79
1, 679680, Note_on_c, 9, 36, 79
1, 680159, Note_on_c, 9, 53, 0
1, 680159, Note_on_c, 9, 36, 0
1, 680160, Note_on_c, 9, 40, 79
1, 680160, Note_on_c, 9, 53, 79
1, 680400, Note_on_c, 9, 36, 79
1, 680639, Note_on_c, 9, 40, 0
1, 680639, Note_on_c, 9, 53, 0
1, 680639, Note_on_c, 9, 36, 0
1, 680640, Note_on_c, 9, 53, 79
1, 680880, Note_on_c, 9, 36, 79
1, 681119, Note_on_c, 9, 53, 0
1, 681119, Note_on_c, 9, 36, 0
1, 681120, Note_on_c, 9, 40, 79
1, 681120, Note_on_c, 9, 53, 79
1, 681599, Note_on_c, 9, 40, 0
1, 681599, Note_on_c, 9, 53, 0
1, 681600, Note_on_c, 9, 53, 79
1, 681600, Note_on_c, 9, 36, 79
1, 681839, Note_on_c, 9, 36, 0
1, 681840, Note_on_c, 9, 36, 79
1, 682079, Note_on_c, 9, 53, 0
1, 682079, Note_on_c, 9, 36, 0
1, 682080, Note_on_c, 9, 40, 79
1, 682080, Note_on_c, 9, 53, 79
1, 682320, Note_on_c, 9, 36, 79
1, 682559, Note_on_c, 9, 40, 0
1, 682559, Note_on_c, 9, 53, 0
1, 682559, Note_on_c, 9, 36, 0
1, 682560, Note_on_c, 9, 53, 79
1, 682800, Note_on_c, 9, 36, 79
1, 683039, Note_on_c, 9, 53, 0
1, 683039, Note_on_c, 9, 36, 0
1, 683040, Note_on_c, 9, 40, 79
1, 683040, Note_on_c, 9, 53, 79
1, 683280, Note_on_c, 9, 36, 79
1, 683519, Note_on_c, 9, 40, 0
1, 683519, Note_on_c, 9, 53, 0
1, 683519, Note_on_c, 9, 36, 0
1, 683520, Note_on_c, 9, 53, 79
1, 683760, Note_on_c, 9, 36, 79
1, 683999, Note_on_c, 9, 53, 0
1, 683999, Note_on_c, 9, 36, 0
1, 684000, Note_on_c, 9, 40, 79
1, 684000, Note_on_c, 9, 53, 79
1, 684479, Note_on_c, 9, 40, 0
1, 684479, Note_on_c, 9, 53, 0
1, 684480, Note_on_c, 9, 53, 79
1, 684720, Note_on_c, 9, 36, 79
1, 684959, Note_on_c, 9, 53, 0
1, 684959, Note_on_c, 9, 36, 0
1, 684960, Note_on_c, 9, 40, 79
1, 684960, Note_on_c, 9, 53, 79
1, 685439, Note_on_c, 9, 40, 0
1, 685439, Note_on_c, 9, 53, 0
1, 685440, Note_on_c, 9, 49, 79
1, 685440, Note_on_c, 9, 57, 79
1, 685440, Note_on_c, 9, 36, 79
1, 685469, Note_on_c, 9, 49, 0
1, 685469, Note_on_c, 9, 57, 0
1, 685919, Note_on_c, 9, 36, 0
1, 685920, Note_on_c, 9, 40, 79
1, 685920, Note_on_c, 9, 53, 79
1, 686160, Note_on_c, 9, 36, 79
1, 686399, Note_on_c, 9, 40, 0
1, 686399, Note_on_c, 9, 53, 0
1, 686399, Note_on_c, 9, 36, 0
1, 686400, Note_on_c, 9, 53, 79
1, 686640, Note_on_c, 9, 36, 79
1, 686879, Note_on_c, 9, 53, 0
1, 686879, Note_on_c, 9, 36, 0
1, 686880, Note_on_c, 9, 40, 79
1, 686880, Note_on_c, 9, 53, 79
1, 687359, Note_on_c, 9, 40, 0
1, 687359, Note_on_c, 9, 53, 0
1, 687360, Note_on_c, 9, 53, 79
1, 687360, Note_on_c, 9, 36, 79
1, 687839, Note_on_c, 9, 53, 0
1, 687839, Note_on_c, 9, 36, 0
1, 687840, Note_on_c, 9, 40, 79
1, 687840, Note_on_c, 9, 53, 79
1, 688080, Note_on_c, 9, 36, 79
1, 688319, Note_on_c, 9, 40, 0
1, 688319, Note_on_c, 9, 53, 0
1, 688319, Note_on_c, 9, 36, 0
1, 688320, Note_on_c, 9, 53, 79
1, 688560, Note_on_c, 9, 36, 79
1, 688799, Note_on_c, 9, 53, 0
1, 688799, Note_on_c, 9, 36, 0
1, 688800, Note_on_c, 9, 40, 79
1, 688800, Note_on_c, 9, 53, 79
1, 689279, Note_on_c, 9, 40, 0
1, 689279, Note_on_c, 9, 53, 0
1, 689280, Note_on_c, 9, 53, 79
1, 689280, Note_on_c, 9, 36, 79
1, 689759, Note_on_c, 9, 53, 0
1, 689759, Note_on_c, 9, 36, 0
1, 689760, Note_on_c, 9, 40, 79
1, 689760, Note_on_c, 9, 53, 79
1, 690000, Note_on_c, 9, 36, 79
1, 690239, Note_on_c, 9, 40, 0
1, 690239, Note_on_c, 9, 53, 0
1, 690239, Note_on_c, 9, 36, 0
1, 690240, Note_on_c, 9, 53, 79
1, 690480, Note_on_c, 9, 36, 79
1, 690719, Note_on_c, 9, 53, 0
1, 690719, Note_on_c, 9, 36, 0
1, 690720, Note_on_c, 9, 40, 79
1, 690720, Note_on_c, 9, 53, 79
1, 691199, Note_on_c, 9, 40, 0
1, 691199, Note_on_c, 9, 53, 0
1, 691200, Note_on_c, 9, 53, 79
1, 691200, Note_on_c, 9, 36, 79
1, 691679, Note_on_c, 9, 53, 0
1, 691679, Note_on_c, 9, 36, 0
1, 691680, Note_on_c, 9, 40, 79
1, 691680, Note_on_c, 9, 53, 79
1, 691920, Note_on_c, 9, 36, 79
1, 692159, Note_on_c, 9, 40, 0
1, 692159, Note_on_c, 9, 53, 0
1, 692159, Note_on_c, 9, 36, 0
1, 692160, Note_on_c, 9, 53, 79
1, 692399, Note_on_c, 9, 53, 0
1, 692400, Note_on_c, 9, 49, 79
1, 692400, Note_on_c, 9, 36, 79
1, 692414, Note_on_c, 9, 49, 0
1, 692639, Note_on_c, 9, 36, 0
1, 692640, Note_on_c, 9, 40, 79
1, 692640, Note_on_c, 9, 52, 79
1, 692669, Note_on_c, 9, 52, 0
1, 693119, Note_on_c, 9, 40, 0
1, 693120, Note_on_c, 9, 49, 79
1, 693120, Note_on_c, 9, 57, 79
1, 693120, Note_on_c, 9, 36, 79
1, 693149, Note_on_c, 9, 49, 0
1, 693149, Note_on_c, 9, 57, 0
1, 693599, Note_on_c, 9, 36, 0
1, 693600, Note_on_c, 9, 40, 79
1, 693600, Note_on_c, 9, 53, 79
1, 693840, Note_on_c, 9, 36, 79
1, 694079, Note_on_c, 9, 40, 0
1, 694079, Note_on_c, 9, 53, 0
1, 694079, Note_on_c, 9, 36, 0
1, 694080, Note_on_c, 9, 53, 79
1, 694320, Note_on_c, 9, 36, 79
1, 694559, Note_on_c, 9, 53, 0
1, 694559, Note_on_c, 9, 36, 0
1, 694560, Note_on_c, 9, 40, 79
1, 694560, Note_on_c, 9, 53, 79
1, 695039, Note_on_c, 9, 40, 0
1, 695039, Note_on_c, 9, 53, 0
1, 695040, Note_on_c, 9, 53, 79
1, 695040, Note_on_c, 9, 36, 79
1, 695519, Note_on_c, 9, 53, 0
1, 695519, Note_on_c, 9, 36, 0
1, 695520, Note_on_c, 9, 40, 79
1, 695520, Note_on_c, 9, 53, 79
1, 695760, Note_on_c, 9, 36, 79
1, 695999, Note_on_c, 9, 40, 0
1, 695999, Note_on_c, 9, 53, 0
1, 695999, Note_on_c, 9, 36, 0
1, 696000, Note_on_c, 9, 53, 79
1, 696240, Note_on_c, 9, 36, 79
1, 696479, Note_on_c, 9, 53, 0
1, 696479, Note_on_c, 9, 36, 0
1, 696480, Note_on_c, 9, 40, 79
1, 696480, Note_on_c, 9, 53, 79
1, 696959, Note_on_c, 9, 40, 0
1, 696959, Note_on_c, 9, 53, 0
1, 696960, Note_on_c, 9, 53, 79
1, 696960, Note_on_c, 9, 36, 79
1, 697439, Note_on_c, 9, 53, 0
1, 697439, Note_on_c, 9, 36, 0
1, 697440, Note_on_c, 9, 40, 79
1, 697440, Note_on_c, 9, 53, 79
1, 697680, Note_on_c, 9, 36, 79
1, 697919, Note_on_c, 9, 40, 0
1, 697919, Note_on_c, 9, 53, 0
1, 697919, Note_on_c, 9, 36, 0
1, 697920, Note_on_c, 9, 53, 79
1, 698160, Note_on_c, 9, 36, 79
1, 698399, Note_on_c, 9, 53, 0
1, 698399, Note_on_c, 9, 36, 0
1, 698400, Note_on_c, 9, 40, 79
1, 698400, Note_on_c, 9, 53, 79
1, 698879, Note_on_c, 9, 40, 0
1, 698879, Note_on_c, 9, 53, 0
1, 698880, Note_on_c, 9, 53, 79
1, 698880, Note_on_c, 9, 36, 79
1, 699119, Note_on_c, 9, 36, 0
1, 699120, Note_on_c, 9, 36, 79
1, 699359, Note_on_c, 9, 53, 0
1, 699359, Note_on_c, 9, 36, 0
1, 699360, Note_on_c, 9, 40, 79
1, 699360, Note_on_c, 9, 53, 79
1, 699839, Note_on_c, 9, 40, 0
1, 699839, Note_on_c, 9, 53, 0
1, 699840, Note_on_c, 9, 53, 79
1, 699840, Note_on_c, 9, 36, 79
1, 700079, Note_on_c, 9, 36, 0
1, 700080, Note_on_c, 9, 36, 79
1, 700319, Note_on_c, 9, 53, 0
1, 700319, Note_on_c, 9, 36, 0
1, 700320, Note_on_c, 9, 40, 79
1, 700320, Note_on_c, 9, 53, 79
1, 700559, Note_on_c, 9, 40, 0
1, 700559, Note_on_c, 9, 53, 0
1, 700560, Note_on_c, 9, 57, 79
1, 700574, Note_on_c, 9, 57, 0
1, 700800, Note_on_c, 9, 49, 79
1, 700800, Note_on_c, 9, 57, 79
1, 700800, Note_on_c, 9, 36, 79
1, 700829, Note_on_c, 9, 49, 0
1, 700829, Note_on_c, 9, 57, 0
1, 701279, Note_on_c, 9, 36, 0
1, 701280, Note_on_c, 9, 40, 79
1, 701280, Note_on_c, 9, 53, 79
1, 701520, Note_on_c, 9, 36, 79
1, 701759, Note_on_c, 9, 40, 0
1, 701759, Note_on_c, 9, 53, 0
1, 701759, Note_on_c, 9, 36, 0
1, 701760, Note_on_c, 9, 53, 79
1, 702000, Note_on_c, 9, 36, 79
1, 702239, Note_on_c, 9, 53, 0
1, 702239, Note_on_c, 9, 36, 0
1, 702240, Note_on_c, 9, 40, 79
1, 702240, Note_on_c, 9, 53, 79
1, 702719, Note_on_c, 9, 40, 0
1, 702719, Note_on_c, 9, 53, 0
1, 702720, Note_on_c, 9, 53, 79
1, 702720, Note_on_c, 9, 36, 79
1, 703199, Note_on_c, 9, 53, 0
1, 703199, Note_on_c, 9, 36, 0
1, 703200, Note_on_c, 9, 40, 79
1, 703200, Note_on_c, 9, 53, 79
1, 703440, Note_on_c, 9, 36, 79
1, 703679, Note_on_c, 9, 40, 0
1, 703679, Note_on_c, 9, 53, 0
1, 703679, Note_on_c, 9, 36, 0
1, 703680, Note_on_c, 9, 53, 79
1, 703920, Note_on_c, 9, 36, 79
1, 704159, Note_on_c, 9, 53, 0
1, 704159, Note_on_c, 9, 36, 0
1, 704160, Note_on_c, 9, 40, 79
1, 704160, Note_on_c, 9, 53, 79
1, 704639, Note_on_c, 9, 40, 0
1, 704639, Note_on_c, 9, 53, 0
1, 704640, Note_on_c, 9, 53, 79
1, 704640, Note_on_c, 9, 36, 79
1, 705119, Note_on_c, 9, 53, 0
1, 705119, Note_on_c, 9, 36, 0
1, 705120, Note_on_c, 9, 40, 79
1, 705120, Note_on_c, 9, 53, 79
1, 705360, Note_on_c, 9, 36, 79
1, 705599, Note_on_c, 9, 40, 0
1, 705599, Note_on_c, 9, 53, 0
1, 705599, Note_on_c, 9, 36, 0
1, 705600, Note_on_c, 9, 53, 79
1, 705840, Note_on_c, 9, 36, 79
1, 706079, Note_on_c, 9, 53, 0
1, 706079, Note_on_c, 9, 36, 0
1, 706080, Note_on_c, 9, 40, 79
1, 706080, Note_on_c, 9, 53, 79
1, 706559, Note_on_c, 9, 40, 0
1, 706559, Note_on_c, 9, 53, 0
1, 706560, Note_on_c, 9, 53, 79
1, 706560, Note_on_c, 9, 36, 79
1, 706799, Note_on_c, 9, 36, 0
1, 706800, Note_on_c, 9, 36, 79
1, 707039, Note_on_c, 9, 53, 0
1, 707039, Note_on_c, 9, 36, 0
1, 707040, Note_on_c, 9, 40, 79
1, 707040, Note_on_c, 9, 53, 79
1, 707519, Note_on_c, 9, 40, 0
1, 707519, Note_on_c, 9, 53, 0
1, 707520, Note_on_c, 9, 53, 79
1, 707520, Note_on_c, 9, 36, 79
1, 707759, Note_on_c, 9, 36, 0
1, 707760, Note_on_c, 9, 36, 79
1, 707999, Note_on_c, 9, 53, 0
1, 707999, Note_on_c, 9, 36, 0
1, 708000, Note_on_c, 9, 40, 79
1, 708000, Note_on_c, 9, 53, 79
1, 708239, Note_on_c, 9, 40, 0
1, 708239, Note_on_c, 9, 53, 0
1, 708240, Note_on_c, 9, 49, 95
1, 708254, Note_on_c, 9, 49, 0
1, 708480, Note_on_c, 9, 49, 79
1, 708480, Note_on_c, 9, 57, 79
1, 708480, Note_on_c, 9, 36, 79
1, 708509, Note_on_c, 9, 49, 0
1, 708509, Note_on_c, 9, 57, 0
1, 708959, Note_on_c, 9, 36, 0
1, 708960, Note_on_c, 9, 40, 79
1, 708960, Note_on_c, 9, 53, 79
1, 709200, Note_on_c, 9, 36, 79
1, 709439, Note_on_c, 9, 40, 0
1, 709439, Note_on_c, 9, 53, 0
1, 709439, Note_on_c, 9, 36, 0
1, 709440, Note_on_c, 9, 53, 79
1, 709680, Note_on_c, 9, 36, 79
1, 709919, Note_on_c, 9, 53, 0
1, 709919, Note_on_c, 9, 36, 0
1, 709920, Note_on_c, 9, 40, 79
1, 709920, Note_on_c, 9, 53, 79
1, 710399, Note_on_c, 9, 40, 0
1, 710399, Note_on_c, 9, 53, 0
1, 710400, Note_on_c, 9, 53, 79
1, 710400, Note_on_c, 9, 36, 79
1, 710879, Note_on_c, 9, 53, 0
1, 710879, Note_on_c, 9, 36, 0
1, 710880, Note_on_c, 9, 40, 79
1, 710880, Note_on_c, 9, 53, 79
1, 711120, Note_on_c, 9, 36, 79
1, 711359, Note_on_c, 9, 40, 0
1, 711359, Note_on_c, 9, 53, 0
1, 711359, Note_on_c, 9, 36, 0
1, 711360, Note_on_c, 9, 53, 79
1, 711600, Note_on_c, 9, 36, 79
1, 711839, Note_on_c, 9, 53, 0
1, 711839, Note_on_c, 9, 36, 0
1, 711840, Note_on_c, 9, 40, 79
1, 711840, Note_on_c, 9, 53, 79
1, 712319, Note_on_c, 9, 40, 0
1, 712319, Note_on_c, 9, 53, 0
1, 712320, Note_on_c, 9, 53, 79
1, 712320, Note_on_c, 9, 36, 79
1, 712799, Note_on_c, 9, 53, 0
1, 712799, Note_on_c, 9, 36, 0
1, 712800, Note_on_c, 9, 40, 79
1, 712800, Note_on_c, 9, 53, 79
1, 713040, Note_on_c, 9, 36, 79
1, 713279, Note_on_c, 9, 40, 0
1, 713279, Note_on_c, 9, 53, 0
1, 713279, Note_on_c, 9, 36, 0
1, 713280, Note_on_c, 9, 53, 79
1, 713520, Note_on_c, 9, 36, 79
1, 713759, Note_on_c, 9, 53, 0
1, 713759, Note_on_c, 9, 36, 0
1, 713760, Note_on_c, 9, 40, 79
1, 713760, Note_on_c, 9, 53, 79
1, 714239, Note_on_c, 9, 40, 0
1, 714239, Note_on_c, 9, 53, 0
1, 714240, Note_on_c, 9, 53, 79
1, 714240, Note_on_c, 9, 36, 79
1, 714479, Note_on_c, 9, 36, 0
1, 714480, Note_on_c, 9, 36, 79
1, 714719, Note_on_c, 9, 53, 0
1, 714719, Note_on_c, 9, 36, 0
1, 714720, Note_on_c, 9, 40, 79
1, 714720, Note_on_c, 9, 53, 79
1, 715199, Note_on_c, 9, 40, 0
1, 715199, Note_on_c, 9, 53, 0
1, 715200, Note_on_c, 9, 53, 79
1, 715200, Note_on_c, 9, 36, 79
1, 715439, Note_on_c, 9, 36, 0
1, 715440, Note_on_c, 9, 36, 79
1, 715679, Note_on_c, 9, 53, 0
1, 715679, Note_on_c, 9, 36, 0
1, 715680, Note_on_c, 9, 40, 79
1, 715680, Note_on_c, 9, 53, 79
1, 715919, Note_on_c, 9, 40, 0
1, 715919, Note_on_c, 9, 53, 0
1, 715920, Note_on_c, 9, 49, 95
1, 715934, Note_on_c, 9, 49, 0
1, 716160, Note_on_c, 9, 49, 79
1, 716160, Note_on_c, 9, 57, 79
1, 716160, Note_on_c, 9, 36, 79
1, 716189, Note_on_c, 9, 49, 0
1, 716189, Note_on_c, 9, 57, 0
1, 716639, Note_on_c, 9, 36, 0
1, 716640, Note_on_c, 9, 40, 79
1, 716640, Note_on_c, 9, 53, 79
1, 716880, Note_on_c, 9, 36, 79
1, 717119, Note_on_c, 9, 40, 0
1, 717119, Note_on_c, 9, 53, 0
1, 717119, Note_on_c, 9, 36, 0
1, 717120, Note_on_c, 9, 53, 79
1, 717360, Note_on_c, 9, 36, 79
1, 717599, Note_on_c, 9, 53, 0
1, 717599, Note_on_c, 9, 36, 0
1, 717600, Note_on_c, 9, 40, 79
1, 717600, Note_on_c, 9, 53, 79
1, 718079, Note_on_c, 9, 40, 0
1, 718079, Note_on_c, 9, 53, 0
1, 718080, Note_on_c, 9, 53, 79
1, 718080, Note_on_c, 9, 36, 79
1, 718559, Note_on_c, 9, 53, 0
1, 718559, Note_on_c, 9, 36, 0
1, 718560, Note_on_c, 9, 40, 79
1, 718560, Note_on_c, 9, 53, 79
1, 718800, Note_on_c, 9, 36, 79
1, 719039, Note_on_c, 9, 40, 0
1, 719039, Note_on_c, 9, 53, 0
1, 719039, Note_on_c, 9, 36, 0
1, 719040, Note_on_c, 9, 53, 79
1, 719280, Note_on_c, 9, 36, 79
1, 719519, Note_on_c, 9, 53, 0
1, 719519, Note_on_c, 9, 36, 0
1, 719520, Note_on_c, 9, 40, 79
1, 719520, Note_on_c, 9, 53, 79
1, 719999, Note_on_c, 9, 40, 0
1, 719999, Note_on_c, 9, 53, 0
1, 720000, Note_on_c, 9, 53, 79
1, 720000, Note_on_c, 9, 36, 79
1, 720479, Note_on_c, 9, 53, 0
1, 720479, Note_on_c, 9, 36, 0
1, 720480, Note_on_c, 9, 40, 79
1, 720480, Note_on_c, 9, 53, 79
1, 720720, Note_on_c, 9, 36, 79
1, 720959, Note_on_c, 9, 40, 0
1, 720959, Note_on_c, 9, 53, 0
1, 720959, Note_on_c, 9, 36, 0
1, 720960, Note_on_c, 9, 53, 79
1, 721200, Note_on_c, 9, 36, 79
1, 721439, Note_on_c, 9, 53, 0
1, 721439, Note_on_c, 9, 36, 0
1, 721440, Note_on_c, 9, 40, 79
1, 721440, Note_on_c, 9, 53, 79
1, 721919, Note_on_c, 9, 40, 0
1, 721919, Note_on_c, 9, 53, 0
1, 721920, Note_on_c, 9, 53, 79
1, 721920, Note_on_c, 9, 36, 79
1, 722159, Note_on_c, 9, 36, 0
1, 722160, Note_on_c, 9, 36, 79
1, 722399, Note_on_c, 9, 53, 0
1, 722399, Note_on_c, 9, 36, 0
1, 722400, Note_on_c, 9, 40, 79
1, 722400, Note_on_c, 9, 53, 79
1, 722639, Note_on_c, 9, 40, 0
1, 722639, Note_on_c, 9, 53, 0
1, 722640, Note_on_c, 9, 45, 95
1, 722879, Note_on_c, 9, 45, 0
1, 722880, Note_on_c, 9, 45, 95
1, 722880, Note_on_c, 9, 53, 79
1, 723119, Note_on_c, 9, 45, 0
1, 723119, Note_on_c, 9, 53, 0
1, 723120, Note_on_c, 9, 45, 95
1, 723359, Note_on_c, 9, 45, 0
1, 723360, Note_on_c, 9, 40, 79
1, 723360, Note_on_c, 9, 49, 95
1, 723389, Note_on_c, 9, 49, 0
1, 723839, Note_on_c, 9, 40, 0
1, 723840, Note_on_c, 9, 49, 79
1, 723840, Note_on_c, 9, 57, 79
1, 723840, Note_on_c, 9, 36, 79
1, 723869, Note_on_c, 9, 49, 0
1, 723869, Note_on_c, 9, 57, 0
1, 724319, Note_on_c, 9, 36, 0
1, 724320, Note_on_c, 9, 40, 79
1, 724320, Note_on_c, 9, 53, 79
1, 724560, Note_on_c, 9, 36, 79
1, 724799, Note_on_c, 9, 40, 0
1, 724799, Note_on_c, 9, 53, 0
1, 724799, Note_on_c, 9, 36, 0
1, 724800, Note_on_c, 9, 53, 79
1, 725040, Note_on_c, 9, 36, 79
1, 725279, Note_on_c, 9, 53, 0
1, 725279, Note_on_c, 9, 36, 0
1, 725280, Note_on_c, 9, 40, 79
1, 725280, Note_on_c, 9, 53, 79
1, 725759, Note_on_c, 9, 40, 0
1, 725759, Note_on_c, 9, 53, 0
1, 725760, Note_on_c, 9, 53, 79
1, 725760, Note_on_c, 9, 36, 79
1, 726239, Note_on_c, 9, 53, 0
1, 726239, Note_on_c, 9, 36, 0
1, 726240, Note_on_c, 9, 40, 79
1, 726240, Note_on_c, 9, 53, 79
1, 726480, Note_on_c, 9, 36, 79
1, 726719, Note_on_c, 9, 40, 0
1, 726719, Note_on_c, 9, 53, 0
1, 726719, Note_on_c, 9, 36, 0
1, 726720, Note_on_c, 9, 53, 79
1, 726960, Note_on_c, 9, 36, 79
1, 727199, Note_on_c, 9, 53, 0
1, 727199, Note_on_c, 9, 36, 0
1, 727200, Note_on_c, 9, 40, 79
1, 727200, Note_on_c, 9, 53, 79
1, 727679, Note_on_c, 9, 40, 0
1, 727679, Note_on_c, 9, 53, 0
1, 727680, Note_on_c, 9, 53, 79
1, 727680, Note_on_c, 9, 36, 79
1, 728159, Note_on_c, 9, 53, 0
1, 728159, Note_on_c, 9, 36, 0
1, 728160, Note_on_c, 9, 40, 79
1, 728160, Note_on_c, 9, 53, 79
1, 728400, Note_on_c, 9, 36, 79
1, 728639, Note_on_c, 9, 40, 0
1, 728639, Note_on_c, 9, 53, 0
1, 728639, Note_on_c, 9, 36, 0
1, 728640, Note_on_c, 9, 53, 79
1, 728880, Note_on_c, 9, 36, 79
1, 729119, Note_on_c, 9, 53, 0
1, 729119, Note_on_c, 9, 36, 0
1, 729120, Note_on_c, 9, 40, 79
1, 729120, Note_on_c, 9, 53, 79
1, 729599, Note_on_c, 9, 40, 0
1, 729599, Note_on_c, 9, 53, 0
1, 729600, Note_on_c, 9, 53, 79
1, 729600, Note_on_c, 9, 36, 79
1, 729839, Note_on_c, 9, 36, 0
1, 729840, Note_on_c, 9, 36, 79
1, 730079, Note_on_c, 9, 53, 0
1, 730079, Note_on_c, 9, 36, 0
1, 730080, Note_on_c, 9, 40, 79
1, 730080, Note_on_c, 9, 53, 79
1, 730559, Note_on_c, 9, 40, 0
1, 730559, Note_on_c, 9, 53, 0
1, 730560, Note_on_c, 9, 53, 79
1, 730560, Note_on_c, 9, 36, 79
1, 730799, Note_on_c, 9, 36, 0
1, 730800, Note_on_c, 9, 36, 79
1, 731039, Note_on_c, 9, 53, 0
1, 731039, Note_on_c, 9, 36, 0
1, 731040, Note_on_c, 9, 40, 79
1, 731040, Note_on_c, 9, 53, 79
1, 731279, Note_on_c, 9, 40, 0
1, 731279, Note_on_c, 9, 53, 0
1, 731280, Note_on_c, 9, 49, 95
1, 731294, Note_on_c, 9, 49, 0
1, 731520, Note_on_c, 9, 49, 79
1, 731520, Note_on_c, 9, 57, 79
1, 731520, Note_on_c, 9, 36, 79
1, 731549, Note_on_c, 9, 49, 0
1, 731549, Note_on_c, 9, 57, 0
1, 731999, Note_on_c, 9, 36, 0
1, 732000, Note_on_c, 9, 40, 79
1, 732000, Note_on_c, 9, 53, 79
1, 732240, Note_on_c, 9, 36, 79
1, 732479, Note_on_c, 9, 40, 0
1, 732479, Note_on_c, 9, 53, 0
1, 732479, Note_on_c, 9, 36, 0
1, 732480, Note_on_c, 9, 53, 79
1, 732720, Note_on_c, 9, 36, 79
1, 732959, Note_on_c, 9, 53, 0
1, 732959, Note_on_c, 9, 36, 0
1, 732960, Note_on_c, 9, 40, 79
1, 732960, Note_on_c, 9, 53, 79
1, 733439, Note_on_c, 9, 40, 0
1, 733439, Note_on_c, 9, 53, 0
1, 733440, Note_on_c, 9, 53, 79
1, 733440, Note_on_c, 9, 36, 79
1, 733919, Note_on_c, 9, 53, 0
1, 733919, Note_on_c, 9, 36, 0
1, 733920, Note_on_c, 9, 40, 79
1, 733920, Note_on_c, 9, 53, 79
1, 734160, Note_on_c, 9, 36, 79
1, 734399, Note_on_c, 9, 40, 0
1, 734399, Note_on_c, 9, 53, 0
1, 734399, Note_on_c, 9, 36, 0
1, 734400, Note_on_c, 9, 53, 79
1, 734640, Note_on_c, 9, 36, 79
1, 734879, Note_on_c, 9, 53, 0
1, 734879, Note_on_c, 9, 36, 0
1, 734880, Note_on_c, 9, 40, 79
1, 734880, Note_on_c, 9, 53, 79
1, 735359, Note_on_c, 9, 40, 0
1, 735359, Note_on_c, 9, 53, 0
1, 735360, Note_on_c, 9, 53, 79
1, 735360, Note_on_c, 9, 36, 79
1, 735839, Note_on_c, 9, 53, 0
1, 735839, Note_on_c, 9, 36, 0
1, 735840, Note_on_c, 9, 40, 79
1, 735840, Note_on_c, 9, 53, 79
1, 736080, Note_on_c, 9, 36, 79
1, 736319, Note_on_c, 9, 40, 0
1, 736319, Note_on_c, 9, 53, 0
1, 736319, Note_on_c, 9, 36, 0
1, 736320, Note_on_c, 9, 53, 79
1, 736560, Note_on_c, 9, 36, 79
1, 736799, Note_on_c, 9, 53, 0
1, 736799, Note_on_c, 9, 36, 0
1, 736800, Note_on_c, 9, 40, 79
1, 736800, Note_on_c, 9, 53, 79
1, 737279, Note_on_c, 9, 40, 0
1, 737279, Note_on_c, 9, 53, 0
1, 737280, Note_on_c, 9, 53, 79
1, 737280, Note_on_c, 9, 36, 79
1, 737519, Note_on_c, 9, 36, 0
1, 737520, Note_on_c, 9, 36, 79
1, 737759, Note_on_c, 9, 53, 0
1, 737759, Note_on_c, 9, 36, 0
1, 737760, Note_on_c, 9, 40, 79
1, 737760, Note_on_c, 9, 53, 79
1, 738000, Note_on_c, 9, 36, 95
1, 738239, Note_on_c, 9, 40, 0
1, 738239, Note_on_c, 9, 53, 0
1, 738239, Note_on_c, 9, 36, 0
1, 738240, Note_on_c, 9, 40, 95
1, 738240, Note_on_c, 9, 49, 95
1, 738269, Note_on_c, 9, 49, 0
1, 738480, Note_on_c, 9, 36, 79
1, 738719, Note_on_c, 9, 40, 0
1, 738719, Note_on_c, 9, 36, 0
1, 738720, Note_on_c, 9, 40, 79
1, 738720, Note_on_c, 9, 49, 95
1, 738749, Note_on_c, 9, 49, 0
1, 738960, Note_on_c, 9, 36, 95
1, 739199, Note_on_c, 9, 40, 0
1, 739199, Note_on_c, 9, 36, 0
1, 739200, Note_on_c, 9, 49, 79
1, 739200, Note_on_c, 9, 57, 79
1, 739200, Note_on_c, 9, 36, 79
1, 739229, Note_on_c, 9, 49, 0
1, 739229, Note_on_c, 9, 57, 0
1, 739679, Note_on_c, 9, 36, 0
1, 739680, Note_on_c, 9, 40, 79
1, 739680, Note_on_c, 9, 53, 79
1, 739920, Note_on_c, 9, 36, 79
1, 740159, Note_on_c, 9, 40, 0
1, 740159, Note_on_c, 9, 53, 0
1, 740159, Note_on_c, 9, 36, 0
1, 740160, Note_on_c, 9, 53, 79
1, 740400, Note_on_c, 9, 36, 79
1, 740639, Note_on_c, 9, 53, 0
1, 740639, Note_on_c, 9, 36, 0
1, 740640, Note_on_c, 9, 40, 79
1, 740640, Note_on_c, 9, 53, 79
1, 741119, Note_on_c, 9, 40, 0
1, 741119, Note_on_c, 9, 53, 0
1, 741120, Note_on_c, 9, 53, 79
1, 741120, Note_on_c, 9, 36, 79
1, 741599, Note_on_c, 9, 53, 0
1, 741599, Note_on_c, 9, 36, 0
1, 741600, Note_on_c, 9, 40, 79
1, 741600, Note_on_c, 9, 53, 79
1, 741840, Note_on_c, 9, 36, 79
1, 742079, Note_on_c, 9, 40, 0
1, 742079, Note_on_c, 9, 53, 0
1, 742079, Note_on_c, 9, 36, 0
1, 742080, Note_on_c, 9, 53, 79
1, 742320, Note_on_c, 9, 36, 79
1, 742559, Note_on_c, 9, 53, 0
1, 742559, Note_on_c, 9, 36, 0
1, 742560, Note_on_c, 9, 40, 79
1, 742560, Note_on_c, 9, 53, 79
1, 743039, Note_on_c, 9, 40, 0
1, 743039, Note_on_c, 9, 53, 0
1, 743040, Note_on_c, 9, 53, 79
1, 743040, Note_on_c, 9, 36, 79
1, 743519, Note_on_c, 9, 53, 0
1, 743519, Note_on_c, 9, 36, 0
1, 743520, Note_on_c, 9, 40, 79
1, 743520, Note_on_c, 9, 53, 79
1, 743760, Note_on_c, 9, 36, 79
1, 743999, Note_on_c, 9, 40, 0
1, 743999, Note_on_c, 9, 53, 0
1, 743999, Note_on_c, 9, 36, 0
1, 744000, Note_on_c, 9, 53, 79
1, 744240, Note_on_c, 9, 36, 79
1, 744479, Note_on_c, 9, 53, 0
1, 744479, Note_on_c, 9, 36, 0
1, 744480, Note_on_c, 9, 40, 79
1, 744480, Note_on_c, 9, 53, 79
1, 744959, Note_on_c, 9, 40, 0
1, 744959, Note_on_c, 9, 53, 0
1, 744960, Note_on_c, 9, 53, 79
1, 744960, Note_on_c, 9, 36, 79
1, 745199, Note_on_c, 9, 36, 0
1, 745200, Note_on_c, 9, 36, 79
1, 745439, Note_on_c, 9, 53, 0
1, 745439, Note_on_c, 9, 36, 0
1, 745440, Note_on_c, 9, 40, 79
1, 745440, Note_on_c, 9, 53, 79
1, 745919, Note_on_c, 9, 40, 0
1, 745919, Note_on_c, 9, 53, 0
1, 745920, Note_on_c, 9, 53, 79
1, 745920, Note_on_c, 9, 36, 79
1, 746159, Note_on_c, 9, 36, 0
1, 746160, Note_on_c, 9, 36, 79
1, 746399, Note_on_c, 9, 53, 0
1, 746399, Note_on_c, 9, 36, 0
1, 746400, Note_on_c, 9, 40, 79
1, 746400, Note_on_c, 9, 53, 79
1, 746639, Note_on_c, 9, 40, 0
1, 746639, Note_on_c, 9, 53, 0
1, 746640, Note_on_c, 9, 49, 95
1, 746654, Note_on_c, 9, 49, 0
1, 746880, Note_on_c, 9, 49, 79
1, 746880, Note_on_c, 9, 57, 79
1, 746880, Note_on_c, 9, 36, 79
1, 746894, Note_on_c, 9, 49, 0
1, 746894, Note_on_c, 9, 57, 0
1, 747120, Note_on_c, 9, 49, 95
1, 747134, Note_on_c, 9, 49, 0
1, 747359, Note_on_c, 9, 36, 0
1, 747360, Note_on_c, 9, 40, 79
1, 747360, Note_on_c, 9, 53, 79
1, 747600, Note_on_c, 9, 36, 79
1, 747839, Note_on_c, 9, 40, 0
1, 747839, Note_on_c, 9, 53, 0
1, 747839, Note_on_c, 9, 36, 0
1, 747840, Note_on_c, 9, 53, 79
1, 748080, Note_on_c, 9, 36, 79
1, 748319, Note_on_c, 9, 53, 0
1, 748319, Note_on_c, 9, 36, 0
1, 748320, Note_on_c, 9, 40, 79
1, 748320, Note_on_c, 9, 53, 79
1, 748799, Note_on_c, 9, 40, 0
1, 748799, Note_on_c, 9, 53, 0
1, 748800, Note_on_c, 9, 53, 79
1, 748800, Note_on_c, 9, 36, 79
1, 749279, Note_on_c, 9, 53, 0
1, 749279, Note_on_c, 9, 36, 0
1, 749280, Note_on_c, 9, 40, 79
1, 749280, Note_on_c, 9, 53, 79
1, 749520, Note_on_c, 9, 36, 79
1, 749759, Note_on_c, 9, 40, 0
1, 749759, Note_on_c, 9, 53, 0
1, 749759, Note_on_c, 9, 36, 0
1, 749760, Note_on_c, 9, 53, 79
1, 750000, Note_on_c, 9, 36, 79
1, 750239, Note_on_c, 9, 53, 0
1, 750239, Note_on_c, 9, 36, 0
1, 750240, Note_on_c, 9, 40, 79
1, 750240, Note_on_c, 9, 53, 79
1, 750719, Note_on_c, 9, 40, 0
1, 750719, Note_on_c, 9, 53, 0
1, 750720, Note_on_c, 9, 53, 79
1, 750720, Note_on_c, 9, 36, 79
1, 751199, Note_on_c, 9, 53, 0
1, 751199, Note_on_c, 9, 36, 0
1, 751200, Note_on_c, 9, 40, 79
1, 751200, Note_on_c, 9, 53, 79
1, 751440, Note_on_c, 9, 36, 79
1, 751679, Note_on_c, 9, 40, 0
1, 751679, Note_on_c, 9, 53, 0
1, 751679, Note_on_c, 9, 36, 0
1, 751680, Note_on_c, 9, 53, 79
1, 751920, Note_on_c, 9, 36, 79
1, 752159, Note_on_c, 9, 53, 0
1, 752159, Note_on_c, 9, 36, 0
1, 752160, Note_on_c, 9, 40, 79
1, 752160, Note_on_c, 9, 53, 79
1, 752639, Note_on_c, 9, 40, 0
1, 752639, Note_on_c, 9, 53, 0
1, 752640, Note_on_c, 9, 53, 79
1, 752640, Note_on_c, 9, 36, 79
1, 752879, Note_on_c, 9, 36, 0
1, 752880, Note_on_c, 9, 36, 79
1, 753119, Note_on_c, 9, 53, 0
1, 753119, Note_on_c, 9, 36, 0
1, 753120, Note_on_c, 9, 40, 79
1, 753120, Note_on_c, 9, 53, 79
1, 753599, Note_on_c, 9, 40, 0
1, 753599, Note_on_c, 9, 53, 0
1, 753600, Note_on_c, 9, 53, 79
1, 753600, Note_on_c, 9, 36, 79
1, 753839, Note_on_c, 9, 36, 0
1, 753840, Note_on_c, 9, 36, 79
1, 754079, Note_on_c, 9, 53, 0
1, 754079, Note_on_c, 9, 36, 0
1, 754080, Note_on_c, 9, 40, 79
1, 754080, Note_on_c, 9, 53, 79
1, 754319, Note_on_c, 9, 40, 0
1, 754319, Note_on_c, 9, 53, 0
1, 754320, Note_on_c, 9, 49, 95
1, 754334, Note_on_c, 9, 49, 0
1, 754560, Note_on_c, 9, 49, 79
1, 754560, Note_on_c, 9, 57, 79
1, 754560, Note_on_c, 9, 36, 79
1, 754574, Note_on_c, 9, 49, 0
1, 754574, Note_on_c, 9, 57, 0
1, 754800, Note_on_c, 9, 49, 95
1, 754814, Note_on_c, 9, 49, 0
1, 755039, Note_on_c, 9, 36, 0
1, 755040, Note_on_c, 9, 40, 79
1, 755040, Note_on_c, 9, 53, 79
1, 755280, Note_on_c, 9, 36, 79
1, 755519, Note_on_c, 9, 40, 0
1, 755519, Note_on_c, 9, 53, 0
1, 755519, Note_on_c, 9, 36, 0
1, 755520, Note_on_c, 9, 53, 79
1, 755760, Note_on_c, 9, 36, 79
1, 755999, Note_on_c, 9, 53, 0
1, 755999, Note_on_c, 9, 36, 0
1, 756000, Note_on_c, 9, 40, 79
1, 756000, Note_on_c, 9, 53, 79
1, 756479, Note_on_c, 9, 40, 0
1, 756479, Note_on_c, 9, 53, 0
1, 756480, Note_on_c, 9, 53, 79
1, 756480, Note_on_c, 9, 36, 79
1, 756959, Note_on_c, 9, 53, 0
1, 756959, Note_on_c, 9, 36, 0
1, 756960, Note_on_c, 9, 40, 79
1, 756960, Note_on_c, 9, 53, 79
1, 757200, Note_on_c, 9, 36, 79
1, 757439, Note_on_c, 9, 40, 0
1, 757439, Note_on_c, 9, 53, 0
1, 757439, Note_on_c, 9, 36, 0
1, 757440, Note_on_c, 9, 53, 79
1, 757680, Note_on_c, 9, 36, 79
1, 757919, Note_on_c, 9, 53, 0
1, 757919, Note_on_c, 9, 36, 0
1, 757920, Note_on_c, 9, 40, 79
1, 757920, Note_on_c, 9, 53, 79
1, 758399, Note_on_c, 9, 40, 0
1, 758399, Note_on_c, 9, 53, 0
1, 758400, Note_on_c, 9, 53, 79
1, 758400, Note_on_c, 9, 36, 79
1, 758879, Note_on_c, 9, 53, 0
1, 758879, Note_on_c, 9, 36, 0
1, 758880, Note_on_c, 9, 40, 79
1, 758880, Note_on_c, 9, 53, 79
1, 759120, Note_on_c, 9, 36, 79
1, 759359, Note_on_c, 9, 40, 0
1, 759359, Note_on_c, 9, 53, 0
1, 759359, Note_on_c, 9, 36, 0
1, 759360, Note_on_c, 9, 53, 79
1, 759600, Note_on_c, 9, 36, 79
1, 759839, Note_on_c, 9, 53, 0
1, 759839, Note_on_c, 9, 36, 0
1, 759840, Note_on_c, 9, 40, 79
1, 759840, Note_on_c, 9, 53, 79
1, 760319, Note_on_c, 9, 40, 0
1, 760319, Note_on_c, 9, 53, 0
1, 760320, Note_on_c, 9, 53, 79
1, 760320, Note_on_c, 9, 36, 79
1, 760559, Note_on_c, 9, 36, 0
1, 760560, Note_on_c, 9, 36, 79
1, 760799, Note_on_c, 9, 53, 0
1, 760799, Note_on_c, 9, 36, 0
1, 760800, Note_on_c, 9, 40, 79
1, 760800, Note_on_c, 9, 53, 79
1, 761279, Note_on_c, 9, 40, 0
1, 761279, Note_on_c, 9, 53, 0
1, 761280, Note_on_c, 9, 53, 79
1, 761280, Note_on_c, 9, 36, 79
1, 761519, Note_on_c, 9, 36, 0
1, 761520, Note_on_c, 9, 36, 79
1, 761759, Note_on_c, 9, 53, 0
1, 761759, Note_on_c, 9, 36, 0
1, 761760, Note_on_c, 9, 40, 79
1, 761760, Note_on_c, 9, 53, 79
1, 761999, Note_on_c, 9, 40, 0
1, 761999, Note_on_c, 9, 53, 0
1, 762000, Note_on_c, 9, 49, 95
1, 762014, Note_on_c, 9, 49, 0
1, 762240, Note_on_c, 9, 49, 79
1, 762240, Note_on_c, 9, 57, 79
1, 762240, Note_on_c, 9, 36, 79
1, 762269, Note_on_c, 9, 49, 0
1, 762269, Note_on_c, 9, 57, 0
1, 762719, Note_on_c, 9, 36, 0
1, 762720, Note_on_c, 9, 40, 79
1, 762720, Note_on_c, 9, 53, 79
1, 762960, Note_on_c, 9, 36, 79
1, 763199, Note_on_c, 9, 40, 0
1, 763199, Note_on_c, 9, 53, 0
1, 763199, Note_on_c, 9, 36, 0
1, 763200, Note_on_c, 9, 53, 79
1, 763440, Note_on_c, 9, 36, 79
1, 763679, Note_on_c, 9, 53, 0
1, 763679, Note_on_c, 9, 36, 0
1, 763680, Note_on_c, 9, 40, 79
1, 763680, Note_on_c, 9, 53, 79
1, 764159, Note_on_c, 9, 40, 0
1, 764159, Note_on_c, 9, 53, 0
1, 764160, Note_on_c, 9, 53, 79
1, 764160, Note_on_c, 9, 36, 79
1, 764639, Note_on_c, 9, 53, 0
1, 764639, Note_on_c, 9, 36, 0
1, 764640, Note_on_c, 9, 40, 79
1, 764640, Note_on_c, 9, 53, 79
1, 764880, Note_on_c, 9, 36, 79
1, 765119, Note_on_c, 9, 40, 0
1, 765119, Note_on_c, 9, 53, 0
1, 765119, Note_on_c, 9, 36, 0
1, 765120, Note_on_c, 9, 53, 79
1, 765360, Note_on_c, 9, 36, 79
1, 765599, Note_on_c, 9, 53, 0
1, 765599, Note_on_c, 9, 36, 0
1, 765600, Note_on_c, 9, 40, 79
1, 765600, Note_on_c, 9, 53, 79
1, 766079, Note_on_c, 9, 40, 0
1, 766079, Note_on_c, 9, 53, 0
1, 766080, Note_on_c, 9, 53, 79
1, 766080, Note_on_c, 9, 36, 79
1, 766559, Note_on_c, 9, 53, 0
1, 766559, Note_on_c, 9, 36, 0
1, 766560, Note_on_c, 9, 40, 79
1, 766560, Note_on_c, 9, 53, 79
1, 766800, Note_on_c, 9, 36, 79
1, 767039, Note_on_c, 9, 40, 0
1, 767039, Note_on_c, 9, 53, 0
1, 767039, Note_on_c, 9, 36, 0
1, 767040, Note_on_c, 9, 53, 79
1, 767280, Note_on_c, 9, 36, 79
1, 767519, Note_on_c, 9, 53, 0
1, 767519, Note_on_c, 9, 36, 0
1, 767520, Note_on_c, 9, 40, 79
1, 767520, Note_on_c, 9, 53, 79
1, 767999, Note_on_c, 9, 40, 0
1, 767999, Note_on_c, 9, 53, 0
1, 768000, Note_on_c, 9, 53, 79
1, 768000, Note_on_c, 9, 36, 79
1, 768239, Note_on_c, 9, 36, 0
1, 768240, Note_on_c, 9, 36, 95
1, 768359, Note_on_c, 9, 36, 0
1, 768360, Note_on_c, 9, 36, 79
1, 768479, Note_on_c, 9, 53, 0
1, 768479, Note_on_c, 9, 36, 0
1, 768480, Note_on_c, 9, 40, 79
1, 768480, Note_on_c, 9, 53, 79
1, 768720, Note_on_c, 9, 36, 95
1, 768959, Note_on_c, 9, 40, 0
1, 768959, Note_on_c, 9, 53, 0
1, 768959, Note_on_c, 9, 36, 0
1, 768960, Note_on_c, 9, 53, 79
1, 769200, Note_on_c, 9, 36, 79
1, 769439, Note_on_c, 9, 53, 0
1, 769439, Note_on_c, 9, 36, 0
1, 769440, Note_on_c, 9, 40, 79
1, 769440, Note_on_c, 9, 53, 79
1, 769679, Note_on_c, 9, 40, 0
1, 769679, Note_on_c, 9, 53, 0
1, 769680, Note_on_c, 9, 49, 95
1, 769694, Note_on_c, 9, 49, 0
1, 769920, Note_on_c, 9, 49, 79
1, 769920, Note_on_c, 9, 57, 79
1, 769920, Note_on_c, 9, 36, 79
1, 769949, Note_on_c, 9, 49, 0
1, 769949, Note_on_c, 9, 57, 0
1, 770399, Note_on_c, 9, 36, 0
1, 770400, Note_on_c, 9, 40, 79
1, 770400, Note_on_c, 9, 53, 79
1, 770640, Note_on_c, 9, 36, 79
1, 770879, Note_on_c, 9, 40, 0
1, 770879, Note_on_c, 9, 53, 0
1, 770879, Note_on_c, 9, 36, 0
1, 770880, Note_on_c, 9, 53, 79
1, 771120, Note_on_c, 9, 36, 79
1, 771359, Note_on_c, 9, 53, 0
1, 771359, Note_on_c, 9, 36, 0
1, 771360, Note_on_c, 9, 40, 79
1, 771360, Note_on_c, 9, 53, 79
1, 771839, Note_on_c, 9, 40, 0
1, 771839, Note_on_c, 9, 53, 0
1, 771840, Note_on_c, 9, 53, 79
1, 771840, Note_on_c, 9, 36, 79
1, 772319, Note_on_c, 9, 53, 0
1, 772319, Note_on_c, 9, 36, 0
1, 772320, Note_on_c, 9, 40, 79
1, 772320, Note_on_c, 9, 53, 79
1, 772560, Note_on_c, 9, 36, 79
1, 772799, Note_on_c, 9, 40, 0
1, 772799, Note_on_c, 9, 53, 0
1, 772799, Note_on_c, 9, 36, 0
1, 772800, Note_on_c, 9, 53, 79
1, 773040, Note_on_c, 9, 36, 79
1, 773279, Note_on_c, 9, 53, 0
1, 773279, Note_on_c, 9, 36, 0
1, 773280, Note_on_c, 9, 40, 79
1, 773280, Note_on_c, 9, 53, 79
1, 773759, Note_on_c, 9, 40, 0
1, 773759, Note_on_c, 9, 53, 0
1, 773760, Note_on_c, 9, 53, 79
1, 773760, Note_on_c, 9, 36, 79
1, 774239, Note_on_c, 9, 53, 0
1, 774239, Note_on_c, 9, 36, 0
1, 774240, Note_on_c, 9, 40, 79
1, 774240, Note_on_c, 9, 53, 79
1, 774480, Note_on_c, 9, 36, 79
1, 774719, Note_on_c, 9, 40, 0
1, 774719, Note_on_c, 9, 53, 0
1, 774719, Note_on_c, 9, 36, 0
1, 774720, Note_on_c, 9, 53, 79
1, 774960, Note_on_c, 9, 36, 79
1, 775199, Note_on_c, 9, 53, 0
1, 775199, Note_on_c, 9, 36, 0
1, 775200, Note_on_c, 9, 40, 79
1, 775200, Note_on_c, 9, 53, 79
1, 775679, Note_on_c, 9, 40, 0
1, 775679, Note_on_c, 9, 53, 0
1, 775680, Note_on_c, 9, 53, 79
1, 775680, Note_on_c, 9, 36, 79
1, 775919, Note_on_c, 9, 36, 0
1, 775920, Note_on_c, 9, 36, 79
1, 776159, Note_on_c, 9, 53, 0
1, 776159, Note_on_c, 9, 36, 0
1, 776160, Note_on_c, 9, 40, 79
1, 776160, Note_on_c, 9, 53, 79
1, 776639, Note_on_c, 9, 40, 0
1, 776639, Note_on_c, 9, 53, 0
1, 776640, Note_on_c, 9, 53, 79
1, 776640, Note_on_c, 9, 36, 79
1, 776879, Note_on_c, 9, 36, 0
1, 776880, Note_on_c, 9, 36, 79
1, 777119, Note_on_c, 9, 53, 0
1, 777119, Note_on_c, 9, 36, 0
1, 777120, Note_on_c, 9, 40, 79
1, 777120, Note_on_c, 9, 53, 79
1, 777599, Note_on_c, 9, 40, 0
1, 777599, Note_on_c, 9, 53, 0
1, 777600, Note_on_c, 9, 49, 79
1, 777600, Note_on_c, 9, 57, 79
1, 777600, Note_on_c, 9, 36, 79
1, 777629, Note_on_c, 9, 49, 0
1, 777629, Note_on_c, 9, 57, 0
1, 778079, Note_on_c, 9, 36, 0
1, 778080, Note_on_c, 9, 40, 79
1, 778080, Note_on_c, 9, 53, 79
1, 778320, Note_on_c, 9, 36, 79
1, 778559, Note_on_c, 9, 40, 0
1, 778559, Note_on_c, 9, 53, 0
1, 778559, Note_on_c, 9, 36, 0
1, 778560, Note_on_c, 9, 53, 79
1, 778800, Note_on_c, 9, 36, 79
1, 779039, Note_on_c, 9, 53, 0
1, 779039, Note_on_c, 9, 36, 0
1, 779040, Note_on_c, 9, 40, 79
1, 779040, Note_on_c, 9, 53, 79
1, 779519, Note_on_c, 9, 40, 0
1, 779519, Note_on_c, 9, 53, 0
1, 779520, Note_on_c, 9, 53, 79
1, 779520, Note_on_c, 9, 36, 79
1, 779999, Note_on_c, 9, 53, 0
1, 779999, Note_on_c, 9, 36, 0
1, 780000, Note_on_c, 9, 40, 79
1, 780000, Note_on_c, 9, 53, 79
1, 780240, Note_on_c, 9, 36, 79
1, 780479, Note_on_c, 9, 40, 0
1, 780479, Note_on_c, 9, 53, 0
1, 780479, Note_on_c, 9, 36, 0
1, 780480, Note_on_c, 9, 53, 79
1, 780720, Note_on_c, 9, 36, 79
1, 780959, Note_on_c, 9, 53, 0
1, 780959, Note_on_c, 9, 36, 0
1, 780960, Note_on_c, 9, 40, 79
1, 780960, Note_on_c, 9, 53, 79
1, 781439, Note_on_c, 9, 40, 0
1, 781439, Note_on_c, 9, 53, 0
1, 781440, Note_on_c, 9, 53, 79
1, 781440, Note_on_c, 9, 36, 79
1, 781679, Note_on_c, 9, 36, 0
1, 781680, Note_on_c, 9, 36, 95
1, 781919, Note_on_c, 9, 53, 0
1, 781919, Note_on_c, 9, 36, 0
1, 781920, Note_on_c, 9, 40, 79
1, 781920, Note_on_c, 9, 53, 79
1, 782160, Note_on_c, 9, 36, 79
1, 782399, Note_on_c, 9, 40, 0
1, 782399, Note_on_c, 9, 53, 0
1, 782399, Note_on_c, 9, 36, 0
1, 782400, Note_on_c, 9, 53, 79
1, 782640, Note_on_c, 9, 36, 79
1, 782879, Note_on_c, 9, 53, 0
1, 782879, Note_on_c, 9, 36, 0
1, 782880, Note_on_c, 9, 40, 79
1, 782880, Note_on_c, 9, 53, 79
1, 783359, Note_on_c, 9, 40, 0
1, 783359, Note_on_c, 9, 53, 0
1, 783360, Note_on_c, 9, 53, 79
1, 783360, Note_on_c, 9, 36, 79
1, 783599, Note_on_c, 9, 36, 0
1, 783600, Note_on_c, 9, 36, 79
1, 783839, Note_on_c, 9, 53, 0
1, 783839, Note_on_c, 9, 36, 0
1, 783840, Note_on_c, 9, 40, 79
1, 783840, Note_on_c, 9, 53, 79
1, 784319, Note_on_c, 9, 40, 0
1, 784319, Note_on_c, 9, 53, 0
1, 784320, Note_on_c, 9, 53, 79
1, 784320, Note_on_c, 9, 36, 79
1, 784559, Note_on_c, 9, 36, 0
1, 784560, Note_on_c, 9, 36, 79
1, 784799, Note_on_c, 9, 53, 0
1, 784799, Note_on_c, 9, 36, 0
1, 784800, Note_on_c, 9, 40, 79
1, 784800, Note_on_c, 9, 53, 79
1, 785039, Note_on_c, 9, 40, 0
1, 785039, Note_on_c, 9, 53, 0
1, 785040, Note_on_c, 9, 49, 95
1, 785054, Note_on_c, 9, 49, 0
1, 785280, Note_on_c, 9, 49, 79
1, 785280, Note_on_c, 9, 57, 79
1, 785280, Note_on_c, 9, 36, 79
1, 785309, Note_on_c, 9, 49, 0
1, 785309, Note_on_c, 9, 57, 0
1, 785759, Note_on_c, 9, 36, 0
1, 785760, Note_on_c, 9, 40, 79
1, 785760, Note_on_c, 9, 53, 79
1, 786000, Note_on_c, 9, 36, 79
1, 786239, Note_on_c, 9, 40, 0
1, 786239, Note_on_c, 9, 53, 0
1, 786239, Note_on_c, 9, 36, 0
1, 786240, Note_on_c, 9, 53, 79
1, 786480, Note_on_c, 9, 36, 79
1, 786719, Note_on_c, 9, 53, 0
1, 786719, Note_on_c, 9, 36, 0
1, 786720, Note_on_c, 9, 40, 79
1, 786720, Note_on_c, 9, 53, 79
1, 787199, Note_on_c, 9, 40, 0
1, 787199, Note_on_c, 9, 53, 0
1, 787200, Note_on_c, 9, 53, 79
1, 787200, Note_on_c, 9, 36, 79
1, 787679, Note_on_c, 9, 53, 0
1, 787679, Note_on_c, 9, 36, 0
1, 787680, Note_on_c, 9, 40, 79
1, 787680, Note_on_c, 9, 53, 79
1, 787920, Note_on_c, 9, 36, 79
1, 788159, Note_on_c, 9, 40, 0
1, 788159, Note_on_c, 9, 53, 0
1, 788159, Note_on_c, 9, 36, 0
1, 788160, Note_on_c, 9, 53, 79
1, 788400, Note_on_c, 9, 36, 79
1, 788639, Note_on_c, 9, 53, 0
1, 788639, Note_on_c, 9, 36, 0
1, 788640, Note_on_c, 9, 40, 79
1, 788640, Note_on_c, 9, 53, 79
1, 789119, Note_on_c, 9, 40, 0
1, 789119, Note_on_c, 9, 53, 0
1, 789120, Note_on_c, 9, 53, 79
1, 789120, Note_on_c, 9, 36, 79
1, 789599, Note_on_c, 9, 53, 0
1, 789599, Note_on_c, 9, 36, 0
1, 789600, Note_on_c, 9, 40, 79
1, 789600, Note_on_c, 9, 53, 79
1, 789840, Note_on_c, 9, 36, 79
1, 790079, Note_on_c, 9, 40, 0
1, 790079, Note_on_c, 9, 53, 0
1, 790079, Note_on_c, 9, 36, 0
1, 790080, Note_on_c, 9, 53, 79
1, 790320, Note_on_c, 9, 36, 79
1, 790559, Note_on_c, 9, 53, 0
1, 790559, Note_on_c, 9, 36, 0
1, 790560, Note_on_c, 9, 40, 79
1, 790560, Note_on_c, 9, 53, 79
1, 791039, Note_on_c, 9, 40, 0
1, 791039, Note_on_c, 9, 53, 0
1, 791040, Note_on_c, 9, 53, 79
1, 791040, Note_on_c, 9, 36, 79
1, 791279, Note_on_c, 9, 36, 0
1, 791280, Note_on_c, 9, 36, 79
1, 791519, Note_on_c, 9, 53, 0
1, 791519, Note_on_c, 9, 36, 0
1, 791520, Note_on_c, 9, 40, 79
1, 791520, Note_on_c, 9, 53, 79
1, 791999, Note_on_c, 9, 40, 0
1, 791999, Note_on_c, 9, 53, 0
1, 792000, Note_on_c, 9, 53, 79
1, 792000, Note_on_c, 9, 36, 79
1, 792239, Note_on_c, 9, 36, 0
1, 792240, Note_on_c, 9, 36, 79
1, 792479, Note_on_c, 9, 53, 0
1, 792479, Note_on_c, 9, 36, 0
1, 792480, Note_on_c, 9, 40, 79
1, 792480, Note_on_c, 9, 53, 79
1, 792959, Note_on_c, 9, 40, 0
1, 792959, Note_on_c, 9, 53, 0
1, 792960, Note_on_c, 9, 49, 79
1, 792960, Note_on_c, 9, 57, 79
1, 792960, Note_on_c, 9, 36, 79
1, 792989, Note_on_c, 9, 49, 0
1, 792989, Note_on_c, 9, 57, 0
1, 793439, Note_on_c, 9, 36, 0
1, 793440, Note_on_c, 9, 40, 79
1, 793440, Note_on_c, 9, 53, 79
1, 793680, Note_on_c, 9, 36, 79
1, 793919, Note_on_c, 9, 40, 0
1, 793919, Note_on_c, 9, 53, 0
1, 793919, Note_on_c, 9, 36, 0
1, 793920, Note_on_c, 9, 53, 79
1, 794160, Note_on_c, 9, 36, 79
1, 794399, Note_on_c, 9, 53, 0
1, 794399, Note_on_c, 9, 36, 0
1, 794400, Note_on_c, 9, 40, 79
1, 794400, Note_on_c, 9, 53, 79
1, 794879, Note_on_c, 9, 40, 0
1, 794879, Note_on_c, 9, 53, 0
1, 794880, Note_on_c, 9, 53, 79
1, 794880, Note_on_c, 9, 36, 79
1, 795359, Note_on_c, 9, 53, 0
1, 795359, Note_on_c, 9, 36, 0
1, 795360, Note_on_c, 9, 40, 79
1, 795360, Note_on_c, 9, 53, 79
1, 795600, Note_on_c, 9, 36, 79
1, 795839, Note_on_c, 9, 40, 0
1, 795839, Note_on_c, 9, 53, 0
1, 795839, Note_on_c, 9, 36, 0
1, 795840, Note_on_c, 9, 53, 79
1, 796080, Note_on_c, 9, 36, 79
1, 796319, Note_on_c, 9, 53, 0
1, 796319, Note_on_c, 9, 36, 0
1, 796320, Note_on_c, 9, 40, 79
1, 796320, Note_on_c, 9, 53, 79
1, 796799, Note_on_c, 9, 40, 0
1, 796799, Note_on_c, 9, 53, 0
1, 796800, Note_on_c, 9, 53, 79
1, 796800, Note_on_c, 9, 36, 79
1, 797279, Note_on_c, 9, 53, 0
1, 797279, Note_on_c, 9, 36, 0
1, 797280, Note_on_c, 9, 40, 79
1, 797280, Note_on_c, 9, 53, 79
1, 797520, Note_on_c, 9, 36, 79
1, 797759, Note_on_c, 9, 40, 0
1, 797759, Note_on_c, 9, 53, 0
1, 797759, Note_on_c, 9, 36, 0
1, 797760, Note_on_c, 9, 53, 79
1, 798000, Note_on_c, 9, 36, 79
1, 798239, Note_on_c, 9, 53, 0
1, 798239, Note_on_c, 9, 36, 0
1, 798240, Note_on_c, 9, 40, 79
1, 798240, Note_on_c, 9, 53, 79
1, 798719, Note_on_c, 9, 40, 0
1, 798719, Note_on_c, 9, 53, 0
1, 798720, Note_on_c, 9, 53, 79
1, 798720, Note_on_c, 9, 36, 79
1, 798959, Note_on_c, 9, 36, 0
1, 798960, Note_on_c, 9, 36, 79
1, 799199, Note_on_c, 9, 53, 0
1, 799199, Note_on_c, 9, 36, 0
1, 799200, Note_on_c, 9, 40, 79
1, 799200, Note_on_c, 9, 53, 79
1, 799679, Note_on_c, 9, 40, 0
1, 799679, Note_on_c, 9, 53, 0
1, 799680, Note_on_c, 9, 53, 79
1, 799680, Note_on_c, 9, 36, 79
1, 799919, Note_on_c, 9, 36, 0
1, 799920, Note_on_c, 9, 36, 79
1, 800159, Note_on_c, 9, 53, 0
1, 800159, Note_on_c, 9, 36, 0
1, 800160, Note_on_c, 9, 40, 79
1, 800160, Note_on_c, 9, 53, 79
1, 800639, Note_on_c, 9, 40, 0
1, 800639, Note_on_c, 9, 53, 0
1, 800640, Note_on_c, 9, 49, 79
1, 800640, Note_on_c, 9, 57, 79
1, 800640, Note_on_c, 9, 36, 79
1, 800669, Note_on_c, 9, 49, 0
1, 800669, Note_on_c, 9, 57, 0
1, 801119, Note_on_c, 9, 36, 0
1, 801120, Note_on_c, 9, 40, 79
1, 801120, Note_on_c, 9, 53, 79
1, 801360, Note_on_c, 9, 36, 79
1, 801599, Note_on_c, 9, 40, 0
1, 801599, Note_on_c, 9, 53, 0
1, 801599, Note_on_c, 9, 36, 0
1, 801600, Note_on_c, 9, 53, 79
1, 801840, Note_on_c, 9, 36, 79
1, 802079, Note_on_c, 9, 53, 0
1, 802079, Note_on_c, 9, 36, 0
1, 802080, Note_on_c, 9, 40, 79
1, 802080, Note_on_c, 9, 53, 79
1, 802559, Note_on_c, 9, 40, 0
1, 802559, Note_on_c, 9, 53, 0
1, 802560, Note_on_c, 9, 53, 79
1, 802560, Note_on_c, 9, 36, 79
1, 803039, Note_on_c, 9, 53, 0
1, 803039, Note_on_c, 9, 36, 0
1, 803040, Note_on_c, 9, 40, 79
1, 803040, Note_on_c, 9, 53, 79
1, 803280, Note_on_c, 9, 36, 79
1, 803519, Note_on_c, 9, 40, 0
1, 803519, Note_on_c, 9, 53, 0
1, 803519, Note_on_c, 9, 36, 0
1, 803520, Note_on_c, 9, 53, 79
1, 803760, Note_on_c, 9, 36, 79
1, 803999, Note_on_c, 9, 53, 0
1, 803999, Note_on_c, 9, 36, 0
1, 804000, Note_on_c, 9, 40, 79
1, 804000, Note_on_c, 9, 53, 79
1, 804479, Note_on_c, 9, 40, 0
1, 804479, Note_on_c, 9, 53, 0
1, 804480, Note_on_c, 9, 53, 79
1, 804480, Note_on_c, 9, 36, 79
1, 804959, Note_on_c, 9, 53, 0
1, 804959, Note_on_c, 9, 36, 0
1, 804960, Note_on_c, 9, 40, 79
1, 804960, Note_on_c, 9, 53, 79
1, 805200, Note_on_c, 9, 36, 79
1, 805439, Note_on_c, 9, 40, 0
1, 805439, Note_on_c, 9, 53, 0
1, 805439, Note_on_c, 9, 36, 0
1, 805440, Note_on_c, 9, 53, 79
1, 805680, Note_on_c, 9, 36, 79
1, 805919, Note_on_c, 9, 53, 0
1, 805919, Note_on_c, 9, 36, 0
1, 805920, Note_on_c, 9, 40, 79
1, 805920, Note_on_c, 9, 53, 79
1, 806399, Note_on_c, 9, 40, 0
1, 806399, Note_on_c, 9, 53, 0
1, 806400, Note_on_c, 9, 53, 79
1, 806400, Note_on_c, 9, 36, 79
1, 806639, Note_on_c, 9, 36, 0
1, 806640, Note_on_c, 9, 36, 79
1, 806879, Note_on_c, 9, 53, 0
1, 806879, Note_on_c, 9, 36, 0
1, 806880, Note_on_c, 9, 40, 79
1, 806880, Note_on_c, 9, 53, 79
1, 807359, Note_on_c, 9, 40, 0
1, 807359, Note_on_c, 9, 53, 0
1, 807360, Note_on_c, 9, 53, 79
1, 807360, Note_on_c, 9, 36, 79
1, 807599, Note_on_c, 9, 36, 0
1, 807600, Note_on_c, 9, 36, 79
1, 807839, Note_on_c, 9, 53, 0
1, 807839, Note_on_c, 9, 36, 0
1, 807840, Note_on_c, 9, 40, 79
1, 807840, Note_on_c, 9, 53, 79
1, 808319, Note_on_c, 9, 40, 0
1, 808319, Note_on_c, 9, 53, 0
1, 808320, Note_on_c, 9, 49, 79
1, 808320, Note_on_c, 9, 57, 79
1, 808320, Note_on_c, 9, 36, 79
1, 808349, Note_on_c, 9, 49, 0
1, 808349, Note_on_c, 9, 57, 0
1, 808799, Note_on_c, 9, 36, 0
1, 808800, Note_on_c, 9, 40, 79
1, 808800, Note_on_c, 9, 53, 79
1, 809040, Note_on_c, 9, 36, 79
1, 809279, Note_on_c, 9, 40, 0
1, 809279, Note_on_c, 9, 53, 0
1, 809279, Note_on_c, 9, 36, 0
1, 809280, Note_on_c, 9, 53, 79
1, 809520, Note_on_c, 9, 36, 79
1, 809759, Note_on_c, 9, 53, 0
1, 809759, Note_on_c, 9, 36, 0
1, 809760, Note_on_c, 9, 40, 79
1, 809760, Note_on_c, 9, 53, 79
1, 810239, Note_on_c, 9, 40, 0
1, 810239, Note_on_c, 9, 53, 0
1, 810240, Note_on_c, 9, 53, 79
1, 810240, Note_on_c, 9, 36, 79
1, 810719, Note_on_c, 9, 53, 0
1, 810719, Note_on_c, 9, 36, 0
1, 810720, Note_on_c, 9, 40, 79
1, 810720, Note_on_c, 9, 53, 79
1, 810960, Note_on_c, 9, 36, 79
1, 811199, Note_on_c, 9, 40, 0
1, 811199, Note_on_c, 9, 53, 0
1, 811199, Note_on_c, 9, 36, 0
1, 811200, Note_on_c, 9, 53, 79
1, 811440, Note_on_c, 9, 36, 79
1, 811679, Note_on_c, 9, 53, 0
1, 811679, Note_on_c, 9, 36, 0
1, 811680, Note_on_c, 9, 40, 79
1, 811680, Note_on_c, 9, 53, 79
1, 812159, Note_on_c, 9, 40, 0
1, 812159, Note_on_c, 9, 53, 0
1, 812160, Note_on_c, 9, 53, 79
1, 812160, Note_on_c, 9, 36, 79
1, 812639, Note_on_c, 9, 53, 0
1, 812639, Note_on_c, 9, 36, 0
1, 812640, Note_on_c, 9, 40, 79
1, 812640, Note_on_c, 9, 53, 79
1, 812880, Note_on_c, 9, 36, 79
1, 813119, Note_on_c, 9, 40, 0
1, 813119, Note_on_c, 9, 53, 0
1, 813119, Note_on_c, 9, 36, 0
1, 813120, Note_on_c, 9, 53, 79
1, 813360, Note_on_c, 9, 36, 79
1, 813599, Note_on_c, 9, 53, 0
1, 813599, Note_on_c, 9, 36, 0
1, 813600, Note_on_c, 9, 40, 79
1, 813600, Note_on_c, 9, 53, 79
1, 814079, Note_on_c, 9, 40, 0
1, 814079, Note_on_c, 9, 53, 0
1, 814080, Note_on_c, 9, 53, 79
1, 814080, Note_on_c, 9, 36, 79
1, 814319, Note_on_c, 9, 36, 0
1, 814320, Note_on_c, 9, 36, 79
1, 814559, Note_on_c, 9, 53, 0
1, 814559, Note_on_c, 9, 36, 0
1, 814560, Note_on_c, 9, 40, 79
1, 814560, Note_on_c, 9, 53, 79
1, 815039, Note_on_c, 9, 40, 0
1, 815039, Note_on_c, 9, 53, 0
1, 815040, Note_on_c, 9, 53, 79
1, 815040, Note_on_c, 9, 36, 79
1, 815279, Note_on_c, 9, 36, 0
1, 815280, Note_on_c, 9, 36, 79
1, 815519, Note_on_c, 9, 53, 0
1, 815519, Note_on_c, 9, 36, 0
1, 815520, Note_on_c, 9, 40, 79
1, 815520, Note_on_c, 9, 53, 79
1, 815759, Note_on_c, 9, 40, 0
1, 815759, Note_on_c, 9, 53, 0
1, 815760, Note_on_c, 9, 49, 95
1, 815774, Note_on_c, 9, 49, 0
1, 816000, Note_on_c, 9, 49, 79
1, 816000, Note_on_c, 9, 57, 79
1, 816000, Note_on_c, 9, 36, 79
1, 816029, Note_on_c, 9, 49, 0
1, 816029, Note_on_c, 9, 57, 0
1, 816479, Note_on_c, 9, 36, 0
1, 816480, Note_on_c, 9, 40, 79
1, 816480, Note_on_c, 9, 53, 79
1, 816720, Note_on_c, 9, 36, 79
1, 816959, Note_on_c, 9, 40, 0
1, 816959, Note_on_c, 9, 53, 0
1, 816959, Note_on_c, 9, 36, 0
1, 816960, Note_on_c, 9, 53, 79
1, 817200, Note_on_c, 9, 36, 79
1, 817439, Note_on_c, 9, 53, 0
1, 817439, Note_on_c, 9, 36, 0
1, 817440, Note_on_c, 9, 40, 79
1, 817440, Note_on_c, 9, 53, 79
1, 817919, Note_on_c, 9, 40, 0
1, 817919, Note_on_c, 9, 53, 0
1, 817920, Note_on_c, 9, 53, 79
1, 817920, Note_on_c, 9, 36, 79
1, 818399, Note_on_c, 9, 53, 0
1, 818399, Note_on_c, 9, 36, 0
1, 818400, Note_on_c, 9, 40, 79
1, 818400, Note_on_c, 9, 53, 79
1, 818640, Note_on_c, 9, 36, 79
1, 818879, Note_on_c, 9, 40, 0
1, 818879, Note_on_c, 9, 53, 0
1, 818879, Note_on_c, 9, 36, 0
1, 818880, Note_on_c, 9, 53, 79
1, 819120, Note_on_c, 9, 36, 79
1, 819359, Note_on_c, 9, 53, 0
1, 819359, Note_on_c, 9, 36, 0
1, 819360, Note_on_c, 9, 40, 79
1, 819360, Note_on_c, 9, 53, 79
1, 819839, Note_on_c, 9, 40, 0
1, 819839, Note_on_c, 9, 53, 0
1, 819840, Note_on_c, 9, 53, 79
1, 819840, Note_on_c, 9, 36, 79
1, 820319, Note_on_c, 9, 53, 0
1, 820319, Note_on_c, 9, 36, 0
1, 820320, Note_on_c, 9, 40, 79
1, 820320, Note_on_c, 9, 53, 79
1, 820560, Note_on_c, 9, 36, 79
1, 820799, Note_on_c, 9, 40, 0
1, 820799, Note_on_c, 9, 53, 0
1, 820799, Note_on_c, 9, 36, 0
1, 820800, Note_on_c, 9, 53, 79
1, 821040, Note_on_c, 9, 36, 79
1, 821279, Note_on_c, 9, 53, 0
1, 821279, Note_on_c, 9, 36, 0
1, 821280, Note_on_c, 9, 40, 79
1, 821280, Note_on_c, 9, 53, 79
1, 821759, Note_on_c, 9, 40, 0
1, 821759, Note_on_c, 9, 53, 0
1, 821760, Note_on_c, 9, 53, 79
1, 821760, Note_on_c, 9, 36, 79
1, 821999, Note_on_c, 9, 36, 0
1, 822000, Note_on_c, 9, 36, 79
1, 822239, Note_on_c, 9, 53, 0
1, 822239, Note_on_c, 9, 36, 0
1, 822240, Note_on_c, 9, 40, 79
1, 822240, Note_on_c, 9, 53, 79
1, 822719, Note_on_c, 9, 40, 0
1, 822719, Note_on_c, 9, 53, 0
1, 822720, Note_on_c, 9, 53, 79
1, 822720, Note_on_c, 9, 36, 79
1, 822959, Note_on_c, 9, 36, 0
1, 822960, Note_on_c, 9, 36, 79
1, 823199, Note_on_c, 9, 53, 0
1, 823199, Note_on_c, 9, 36, 0
1, 823200, Note_on_c, 9, 40, 79
1, 823200, Note_on_c, 9, 53, 79
1, 823679, Note_on_c, 9, 40, 0
1, 823679, Note_on_c, 9, 53, 0
1, 823680, End_track
0, 0, End_of_file
