0, 0, Header, 1, 1, 480
1, 0, Start_track
1, 0, Title_t, "Drumset"
1, 0, Time_signature, 4, 2, 24, 8
1, 0, Key_signature, 0, "major"
1, 0, Tempo, 431655
1, 0, Control_c, 9, 121, 0
1, 0, Program_c, 9, 0
1, 0, Control_c, 9, 7, 100
1, 0, Control_c, 9, 10, 64
1, 0, Control_c, 9, 91, 0
1, 0, Control_c, 9, 93, 0
1, 0, MIDI_port, 0
1, 14880, Note_on_c, 9, 39, 126
1, 15359, Note_on_c, 9, 39, 0
1, 16800, Note_on_c, 9, 39, 126
1, 17279, Note_on_c, 9, 39, 0
1, 18720, Note_on_c, 9, 39, 126
1, 19199, Note_on_c, 9, 39, 0
1, 20640, Note_on_c, 9, 39, 126
1, 21119, Note_on_c, 9, 39, 0
1, 22560, Note_on_c, 9, 39, 126
1, 23039, Note_on_c, 9, 39, 0
1, 24480, Note_on_c, 9, 39, 126
1, 24959, Note_on_c, 9, 39, 0
1, 25200, Note_on_c, 9, 69, 76
1, 25439, Note_on_c, 9, 69, 0
1, 25440, Note_on_c, 9, 69, 89
1, 25919, Note_on_c, 9, 69, 0
1, 25920, Note_on_c, 9, 69, 85
1, 26399, Note_on_c, 9, 69, 0
1, 26400, Note_on_c, 9, 39, 126
1, 26639, Note_on_c, 9, 39, 0
1, 26640, Note_on_c, 9, 69, 81
1, 26879, Note_on_c, 9, 69, 0
1, 26880, Note_on_c, 9, 69, 90
1, 27359, Note_on_c, 9, 69, 0
1, 27360, Note_on_c, 9, 69, 93
1, 27839, Note_on_c, 9, 69, 0
1, 28080, Note_on_c, 9, 38, 123
1, 28319, Note_on_c, 9, 38, 0
1, 28320, Note_on_c, 9, 38, 125
1, 28339, Note_on_c, 9, 38, 0
1, 28340, Note_on_c, 9, 39, 126
1, 28379, Note_on_c, 9, 39, 0
1, 28560, Note_on_c, 9, 38, 105
1, 28560, Note_on_c, 9, 49, 123
1, 28560, Note_on_c, 9, 36, 107
1, 28572, Note_on_c, 9, 49, 0
1, 28799, Note_on_c, 9, 38, 0
1, 28799, Note_on_c, 9, 36, 0
1, 28800, Note_on_c, 9, 42, 110
1, 28800, Note_on_c, 9, 36, 90
1, 28812, Note_on_c, 9, 42, 0
1, 29040, Note_on_c, 9, 42, 50
1, 29052, Note_on_c, 9, 42, 0
1, 29279, Note_on_c, 9, 36, 0
1, 29280, Note_on_c, 9, 38, 115
1, 29280, Note_on_c, 9, 42, 110
1, 29292, Note_on_c, 9, 42, 0
1, 29519, Note_on_c, 9, 38, 0
1, 29520, Note_on_c, 9, 42, 50
1, 29532, Note_on_c, 9, 42, 0
1, 29760, Note_on_c, 9, 42, 110
1, 29760, Note_on_c, 9, 36, 90
1, 29772, Note_on_c, 9, 42, 0
1, 30000, Note_on_c, 9, 42, 50
1, 30012, Note_on_c, 9, 42, 0
1, 30239, Note_on_c, 9, 36, 0
1, 30240, Note_on_c, 9, 38, 115
1, 30240, Note_on_c, 9, 42, 110
1, 30240, Note_on_c, 9, 42, 0
1, 30259, Note_on_c, 9, 38, 0
1, 30260, Note_on_c, 9, 39, 127
1, 30299, Note_on_c, 9, 39, 0
1, 30480, Note_on_c, 9, 42, 50
1, 30492, Note_on_c, 9, 42, 0
1, 30720, Note_on_c, 9, 42, 110
1, 30720, Note_on_c, 9, 36, 90
1, 30732, Note_on_c, 9, 42, 0
1, 30960, Note_on_c, 9, 42, 50
1, 30972, Note_on_c, 9, 42, 0
1, 31199, Note_on_c, 9, 36, 0
1, 31200, Note_on_c, 9, 38, 115
1, 31200, Note_on_c, 9, 42, 110
1, 31200, Note_on_c, 9, 36, 90
1, 31212, Note_on_c, 9, 42, 0
1, 31439, Note_on_c, 9, 38, 0
1, 31440, Note_on_c, 9, 42, 50
1, 31452, Note_on_c, 9, 42, 0
1, 31679, Note_on_c, 9, 36, 0
1, 31680, Note_on_c, 9, 42, 110
1, 31692, Note_on_c, 9, 42, 0
1, 31920, Note_on_c, 9, 42, 50
1, 31920, Note_on_c, 9, 36, 90
1, 31932, Note_on_c, 9, 42, 0
1, 32159, Note_on_c, 9, 36, 0
1, 32160, Note_on_c, 9, 38, 115
1, 32160, Note_on_c, 9, 42, 110
1, 32160, Note_on_c, 9, 42, 0
1, 32179, Note_on_c, 9, 38, 0
1, 32180, Note_on_c, 9, 39, 127
1, 32219, Note_on_c, 9, 39, 0
1, 32400, Note_on_c, 9, 42, 50
1, 32412, Note_on_c, 9, 42, 0
1, 32640, Note_on_c, 9, 42, 110
1, 32640, Note_on_c, 9, 36, 90
1, 32652, Note_on_c, 9, 42, 0
1, 32880, Note_on_c, 9, 42, 50
1, 32892, Note_on_c, 9, 42, 0
1, 33119, Note_on_c, 9, 36, 0
1, 33120, Note_on_c, 9, 38, 115
1, 33120, Note_on_c, 9, 42, 110
1, 33132, Note_on_c, 9, 42, 0
1, 33359, Note_on_c, 9, 38, 0
1, 33360, Note_on_c, 9, 42, 50
1, 33372, Note_on_c, 9, 42, 0
1, 33600, Note_on_c, 9, 42, 110
1, 33600, Note_on_c, 9, 36, 90
1, 33612, Note_on_c, 9, 42, 0
1, 33840, Note_on_c, 9, 42, 50
1, 33852, Note_on_c, 9, 42, 0
1, 34079, Note_on_c, 9, 36, 0
1, 34080, Note_on_c, 9, 38, 115
1, 34080, Note_on_c, 9, 42, 110
1, 34080, Note_on_c, 9, 42, 0
1, 34099, Note_on_c, 9, 38, 0
1, 34100, Note_on_c, 9, 39, 127
1, 34139, Note_on_c, 9, 39, 0
1, 34320, Note_on_c, 9, 42, 50
1, 34332, Note_on_c, 9, 42, 0
1, 34560, Note_on_c, 9, 42, 110
1, 34560, Note_on_c, 9, 36, 90
1, 34572, Note_on_c, 9, 42, 0
1, 34800, Note_on_c, 9, 42, 50
1, 34812, Note_on_c, 9, 42, 0
1, 35039, Note_on_c, 9, 36, 0
1, 35040, Note_on_c, 9, 38, 115
1, 35040, Note_on_c, 9, 42, 110
1, 35040, Note_on_c, 9, 36, 90
1, 35052, Note_on_c, 9, 42, 0
1, 35279, Note_on_c, 9, 38, 0
1, 35280, Note_on_c, 9, 42, 50
1, 35292, Note_on_c, 9, 42, 0
1, 35519, Note_on_c, 9, 36, 0
1, 35520, Note_on_c, 9, 42, 110
1, 35532, Note_on_c, 9, 42, 0
1, 35760, Note_on_c, 9, 42, 50
1, 35760, Note_on_c, 9, 36, 90
1, 35772, Note_on_c, 9, 42, 0
1, 35999, Note_on_c, 9, 36, 0
1, 36000, Note_on_c, 9, 38, 115
1, 36000, Note_on_c, 9, 42, 110
1, 36000, Note_on_c, 9, 42, 0
1, 36019, Note_on_c, 9, 38, 0
1, 36020, Note_on_c, 9, 39, 127
1, 36059, Note_on_c, 9, 39, 0
1, 36240, Note_on_c, 9, 42, 50
1, 36252, Note_on_c, 9, 42, 0
1, 36480, Note_on_c, 9, 42, 110
1, 36480, Note_on_c, 9, 36, 90
1, 36492, Note_on_c, 9, 42, 0
1, 36720, Note_on_c, 9, 42, 50
1, 36732, Note_on_c, 9, 42, 0
1, 36959, Note_on_c, 9, 36, 0
1, 36960, Note_on_c, 9, 38, 115
1, 36960, Note_on_c, 9, 42, 110
1, 36972, Note_on_c, 9, 42, 0
1, 37199, Note_on_c, 9, 38, 0
1, 37200, Note_on_c, 9, 42, 50
1, 37212, Note_on_c, 9, 42, 0
1, 37440, Note_on_c, 9, 42, 110
1, 37440, Note_on_c, 9, 36, 90
1, 37452, Note_on_c, 9, 42, 0
1, 37680, Note_on_c, 9, 42, 50
1, 37692, Note_on_c, 9, 42, 0
1, 37919, Note_on_c, 9, 36, 0
1, 37920, Note_on_c, 9, 38, 115
1, 37920, Note_on_c, 9, 42, 110
1, 37920, Note_on_c, 9, 42, 0
1, 37939, Note_on_c, 9, 38, 0
1, 37940, Note_on_c, 9, 39, 127
1, 37979, Note_on_c, 9, 39, 0
1, 38160, Note_on_c, 9, 42, 50
1, 38172, Note_on_c, 9, 42, 0
1, 38400, Note_on_c, 9, 42, 110
1, 38400, Note_on_c, 9, 36, 90
1, 38412, Note_on_c, 9, 42, 0
1, 38640, Note_on_c, 9, 42, 50
1, 38652, Note_on_c, 9, 42, 0
1, 38879, Note_on_c, 9, 36, 0
1, 38880, Note_on_c, 9, 38, 115
1, 38880, Note_on_c, 9, 42, 110
1, 38880, Note_on_c, 9, 36, 90
1, 38892, Note_on_c, 9, 42, 0
1, 39119, Note_on_c, 9, 38, 0
1, 39120, Note_on_c, 9, 42, 50
1, 39132, Note_on_c, 9, 42, 0
1, 39359, Note_on_c, 9, 36, 0
1, 39360, Note_on_c, 9, 42, 110
1, 39372, Note_on_c, 9, 42, 0
1, 39600, Note_on_c, 9, 42, 50
1, 39600, Note_on_c, 9, 36, 90
1, 39612, Note_on_c, 9, 42, 0
1, 39839, Note_on_c, 9, 36, 0
1, 39840, Note_on_c, 9, 38, 115
1, 39840, Note_on_c, 9, 42, 110
1, 39840, Note_on_c, 9, 42, 0
1, 39859, Note_on_c, 9, 38, 0
1, 39860, Note_on_c, 9, 39, 127
1, 39899, Note_on_c, 9, 39, 0
1, 40080, Note_on_c, 9, 42, 50
1, 40092, Note_on_c, 9, 42, 0
1, 40320, Note_on_c, 9, 42, 110
1, 40320, Note_on_c, 9, 36, 90
1, 40332, Note_on_c, 9, 42, 0
1, 40560, Note_on_c, 9, 42, 50
1, 40572, Note_on_c, 9, 42, 0
1, 40799, Note_on_c, 9, 36, 0
1, 40800, Note_on_c, 9, 38, 115
1, 40800, Note_on_c, 9, 42, 110
1, 40812, Note_on_c, 9, 42, 0
1, 41039, Note_on_c, 9, 38, 0
1, 41040, Note_on_c, 9, 42, 50
1, 41052, Note_on_c, 9, 42, 0
1, 41280, Note_on_c, 9, 42, 110
1, 41280, Note_on_c, 9, 36, 90
1, 41292, Note_on_c, 9, 42, 0
1, 41520, Note_on_c, 9, 42, 50
1, 41532, Note_on_c, 9, 42, 0
1, 41759, Note_on_c, 9, 36, 0
1, 41760, Note_on_c, 9, 38, 115
1, 41760, Note_on_c, 9, 42, 110
1, 41760, Note_on_c, 9, 42, 0
1, 41779, Note_on_c, 9, 38, 0
1, 41780, Note_on_c, 9, 39, 127
1, 41819, Note_on_c, 9, 39, 0
1, 42000, Note_on_c, 9, 42, 50
1, 42012, Note_on_c, 9, 42, 0
1, 42240, Note_on_c, 9, 42, 110
1, 42240, Note_on_c, 9, 36, 90
1, 42252, Note_on_c, 9, 42, 0
1, 42480, Note_on_c, 9, 42, 50
1, 42492, Note_on_c, 9, 42, 0
1, 42719, Note_on_c, 9, 36, 0
1, 42720, Note_on_c, 9, 38, 115
1, 42720, Note_on_c, 9, 42, 110
1, 42720, Note_on_c, 9, 36, 90
1, 42732, Note_on_c, 9, 42, 0
1, 42959, Note_on_c, 9, 38, 0
1, 42960, Note_on_c, 9, 42, 50
1, 42972, Note_on_c, 9, 42, 0
1, 43199, Note_on_c, 9, 36, 0
1, 43200, Note_on_c, 9, 42, 110
1, 43212, Note_on_c, 9, 42, 0
1, 43440, Note_on_c, 9, 42, 50
1, 43440, Note_on_c, 9, 36, 90
1, 43452, Note_on_c, 9, 42, 0
1, 43679, Note_on_c, 9, 36, 0
1, 43680, Note_on_c, 9, 38, 115
1, 43680, Note_on_c, 9, 42, 110
1, 43680, Note_on_c, 9, 42, 0
1, 43699, Note_on_c, 9, 38, 0
1, 43700, Note_on_c, 9, 39, 127
1, 43739, Note_on_c, 9, 39, 0
1, 43920, Note_on_c, 9, 42, 50
1, 43932, Note_on_c, 9, 42, 0
1, 44160, Note_on_c, 9, 57, 80
1, 44160, Note_on_c, 9, 36, 90
1, 44172, Note_on_c, 9, 57, 0
1, 44400, Note_on_c, 9, 42, 50
1, 44412, Note_on_c, 9, 42, 0
1, 44639, Note_on_c, 9, 36, 0
1, 44640, Note_on_c, 9, 38, 115
1, 44640, Note_on_c, 9, 42, 110
1, 44652, Note_on_c, 9, 42, 0
1, 44879, Note_on_c, 9, 38, 0
1, 44880, Note_on_c, 9, 42, 50
1, 44892, Note_on_c, 9, 42, 0
1, 45120, Note_on_c, 9, 42, 110
1, 45120, Note_on_c, 9, 36, 90
1, 45132, Note_on_c, 9, 42, 0
1, 45360, Note_on_c, 9, 42, 50
1, 45372, Note_on_c, 9, 42, 0
1, 45599, Note_on_c, 9, 36, 0
1, 45600, Note_on_c, 9, 38, 115
1, 45600, Note_on_c, 9, 42, 110
1, 45600, Note_on_c, 9, 42, 0
1, 45619, Note_on_c, 9, 38, 0
1, 45620, Note_on_c, 9, 39, 127
1, 45659, Note_on_c, 9, 39, 0
1, 45840, Note_on_c, 9, 42, 50
1, 45852, Note_on_c, 9, 42, 0
1, 46080, Note_on_c, 9, 42, 110
1, 46080, Note_on_c, 9, 36, 90
1, 46092, Note_on_c, 9, 42, 0
1, 46320, Note_on_c, 9, 42, 50
1, 46332, Note_on_c, 9, 42, 0
1, 46559, Note_on_c, 9, 36, 0
1, 46560, Note_on_c, 9, 38, 115
1, 46560, Note_on_c, 9, 42, 110
1, 46560, Note_on_c, 9, 36, 90
1, 46572, Note_on_c, 9, 42, 0
1, 46799, Note_on_c, 9, 38, 0
1, 46800, Note_on_c, 9, 42, 50
1, 46812, Note_on_c, 9, 42, 0
1, 47039, Note_on_c, 9, 36, 0
1, 47040, Note_on_c, 9, 42, 110
1, 47052, Note_on_c, 9, 42, 0
1, 47280, Note_on_c, 9, 42, 50
1, 47280, Note_on_c, 9, 36, 90
1, 47292, Note_on_c, 9, 42, 0
1, 47519, Note_on_c, 9, 36, 0
1, 47520, Note_on_c, 9, 38, 115
1, 47520, Note_on_c, 9, 42, 110
1, 47520, Note_on_c, 9, 42, 0
1, 47539, Note_on_c, 9, 38, 0
1, 47540, Note_on_c, 9, 39, 127
1, 47579, Note_on_c, 9, 39, 0
1, 47760, Note_on_c, 9, 42, 50
1, 47772, Note_on_c, 9, 42, 0
1, 48000, Note_on_c, 9, 42, 110
1, 48000, Note_on_c, 9, 36, 90
1, 48012, Note_on_c, 9, 42, 0
1, 48240, Note_on_c, 9, 42, 50
1, 48252, Note_on_c, 9, 42, 0
1, 48479, Note_on_c, 9, 36, 0
1, 48480, Note_on_c, 9, 38, 115
1, 48480, Note_on_c, 9, 42, 110
1, 48492, Note_on_c, 9, 42, 0
1, 48719, Note_on_c, 9, 38, 0
1, 48720, Note_on_c, 9, 42, 50
1, 48732, Note_on_c, 9, 42, 0
1, 48960, Note_on_c, 9, 42, 110
1, 48960, Note_on_c, 9, 36, 90
1, 48972, Note_on_c, 9, 42, 0
1, 49200, Note_on_c, 9, 42, 50
1, 49212, Note_on_c, 9, 42, 0
1, 49439, Note_on_c, 9, 36, 0
1, 49440, Note_on_c, 9, 38, 115
1, 49440, Note_on_c, 9, 42, 110
1, 49440, Note_on_c, 9, 42, 0
1, 49459, Note_on_c, 9, 38, 0
1, 49460, Note_on_c, 9, 39, 127
1, 49499, Note_on_c, 9, 39, 0
1, 49680, Note_on_c, 9, 42, 50
1, 49692, Note_on_c, 9, 42, 0
1, 49920, Note_on_c, 9, 42, 110
1, 49920, Note_on_c, 9, 36, 90
1, 49932, Note_on_c, 9, 42, 0
1, 50160, Note_on_c, 9, 42, 50
1, 50172, Note_on_c, 9, 42, 0
1, 50399, Note_on_c, 9, 36, 0
1, 50400, Note_on_c, 9, 38, 115
1, 50400, Note_on_c, 9, 42, 110
1, 50400, Note_on_c, 9, 36, 90
1, 50412, Note_on_c, 9, 42, 0
1, 50639, Note_on_c, 9, 38, 0
1, 50640, Note_on_c, 9, 42, 50
1, 50652, Note_on_c, 9, 42, 0
1, 50879, Note_on_c, 9, 36, 0
1, 50880, Note_on_c, 9, 42, 110
1, 50892, Note_on_c, 9, 42, 0
1, 51120, Note_on_c, 9, 42, 50
1, 51120, Note_on_c, 9, 36, 90
1, 51132, Note_on_c, 9, 42, 0
1, 51359, Note_on_c, 9, 36, 0
1, 51360, Note_on_c, 9, 38, 115
1, 51360, Note_on_c, 9, 42, 110
1, 51360, Note_on_c, 9, 42, 0
1, 51379, Note_on_c, 9, 38, 0
1, 51380, Note_on_c, 9, 39, 127
1, 51419, Note_on_c, 9, 39, 0
1, 51600, Note_on_c, 9, 42, 50
1, 51612, Note_on_c, 9, 42, 0
1, 51840, Note_on_c, 9, 42, 110
1, 51840, Note_on_c, 9, 36, 90
1, 51852, Note_on_c, 9, 42, 0
1, 52080, Note_on_c, 9, 42, 50
1, 52092, Note_on_c, 9, 42, 0
1, 52319, Note_on_c, 9, 36, 0
1, 52320, Note_on_c, 9, 38, 115
1, 52320, Note_on_c, 9, 42, 110
1, 52332, Note_on_c, 9, 42, 0
1, 52559, Note_on_c, 9, 38, 0
1, 52560, Note_on_c, 9, 42, 50
1, 52572, Note_on_c, 9, 42, 0
1, 52800, Note_on_c, 9, 42, 110
1, 52800, Note_on_c, 9, 36, 90
1, 52812, Note_on_c, 9, 42, 0
1, 53040, Note_on_c, 9, 42, 50
1, 53052, Note_on_c, 9, 42, 0
1, 53279, Note_on_c, 9, 36, 0
1, 53280, Note_on_c, 9, 38, 115
1, 53280, Note_on_c, 9, 42, 110
1, 53280, Note_on_c, 9, 42, 0
1, 53299, Note_on_c, 9, 38, 0
1, 53300, Note_on_c, 9, 39, 127
1, 53339, Note_on_c, 9, 39, 0
1, 53520, Note_on_c, 9, 42, 50
1, 53532, Note_on_c, 9, 42, 0
1, 53760, Note_on_c, 9, 42, 110
1, 53760, Note_on_c, 9, 36, 90
1, 53772, Note_on_c, 9, 42, 0
1, 54000, Note_on_c, 9, 42, 50
1, 54012, Note_on_c, 9, 42, 0
1, 54239, Note_on_c, 9, 36, 0
1, 54240, Note_on_c, 9, 38, 115
1, 54240, Note_on_c, 9, 42, 110
1, 54240, Note_on_c, 9, 36, 90
1, 54252, Note_on_c, 9, 42, 0
1, 54479, Note_on_c, 9, 38, 0
1, 54480, Note_on_c, 9, 42, 50
1, 54492, Note_on_c, 9, 42, 0
1, 54719, Note_on_c, 9, 36, 0
1, 54720, Note_on_c, 9, 42, 110
1, 54732, Note_on_c, 9, 42, 0
1, 54960, Note_on_c, 9, 42, 50
1, 54960, Note_on_c, 9, 36, 90
1, 54972, Note_on_c, 9, 42, 0
1, 55199, Note_on_c, 9, 36, 0
1, 55200, Note_on_c, 9, 38, 115
1, 55200, Note_on_c, 9, 42, 110
1, 55200, Note_on_c, 9, 42, 0
1, 55219, Note_on_c, 9, 38, 0
1, 55220, Note_on_c, 9, 39, 127
1, 55259, Note_on_c, 9, 39, 0
1, 55440, Note_on_c, 9, 42, 50
1, 55452, Note_on_c, 9, 42, 0
1, 55680, Note_on_c, 9, 42, 110
1, 55680, Note_on_c, 9, 36, 90
1, 55692, Note_on_c, 9, 42, 0
1, 55920, Note_on_c, 9, 42, 50
1, 55932, Note_on_c, 9, 42, 0
1, 56159, Note_on_c, 9, 36, 0
1, 56160, Note_on_c, 9, 38, 115
1, 56160, Note_on_c, 9, 42, 110
1, 56172, Note_on_c, 9, 42, 0
1, 56399, Note_on_c, 9, 38, 0
1, 56400, Note_on_c, 9, 42, 50
1, 56412, Note_on_c, 9, 42, 0
1, 56640, Note_on_c, 9, 42, 110
1, 56640, Note_on_c, 9, 36, 90
1, 56652, Note_on_c, 9, 42, 0
1, 56880, Note_on_c, 9, 42, 50
1, 56892, Note_on_c, 9, 42, 0
1, 57119, Note_on_c, 9, 36, 0
1, 57120, Note_on_c, 9, 38, 115
1, 57120, Note_on_c, 9, 42, 110
1, 57120, Note_on_c, 9, 42, 0
1, 57139, Note_on_c, 9, 38, 0
1, 57140, Note_on_c, 9, 39, 127
1, 57179, Note_on_c, 9, 39, 0
1, 57360, Note_on_c, 9, 42, 50
1, 57372, Note_on_c, 9, 42, 0
1, 57600, Note_on_c, 9, 42, 110
1, 57600, Note_on_c, 9, 36, 90
1, 57612, Note_on_c, 9, 42, 0
1, 57840, Note_on_c, 9, 42, 50
1, 57852, Note_on_c, 9, 42, 0
1, 58079, Note_on_c, 9, 36, 0
1, 58080, Note_on_c, 9, 38, 115
1, 58080, Note_on_c, 9, 42, 110
1, 58080, Note_on_c, 9, 36, 90
1, 58092, Note_on_c, 9, 42, 0
1, 58319, Note_on_c, 9, 38, 0
1, 58320, Note_on_c, 9, 42, 50
1, 58332, Note_on_c, 9, 42, 0
1, 58559, Note_on_c, 9, 36, 0
1, 58560, Note_on_c, 9, 42, 110
1, 58572, Note_on_c, 9, 42, 0
1, 58800, Note_on_c, 9, 42, 50
1, 58800, Note_on_c, 9, 36, 90
1, 58812, Note_on_c, 9, 42, 0
1, 59039, Note_on_c, 9, 36, 0
1, 59040, Note_on_c, 9, 38, 115
1, 59040, Note_on_c, 9, 42, 110
1, 59040, Note_on_c, 9, 42, 0
1, 59059, Note_on_c, 9, 38, 0
1, 59060, Note_on_c, 9, 39, 127
1, 59099, Note_on_c, 9, 39, 0
1, 59280, Note_on_c, 9, 42, 50
1, 59292, Note_on_c, 9, 42, 0
1, 59520, Note_on_c, 9, 49, 88
1, 59520, Note_on_c, 9, 36, 90
1, 59532, Note_on_c, 9, 49, 0
1, 59760, Note_on_c, 9, 42, 50
1, 59772, Note_on_c, 9, 42, 0
1, 59999, Note_on_c, 9, 36, 0
1, 60000, Note_on_c, 9, 38, 115
1, 60000, Note_on_c, 9, 42, 110
1, 60012, Note_on_c, 9, 42, 0
1, 60239, Note_on_c, 9, 38, 0
1, 60240, Note_on_c, 9, 42, 50
1, 60252, Note_on_c, 9, 42, 0
1, 60480, Note_on_c, 9, 42, 110
1, 60480, Note_on_c, 9, 36, 90
1, 60492, Note_on_c, 9, 42, 0
1, 60720, Note_on_c, 9, 42, 50
1, 60732, Note_on_c, 9, 42, 0
1, 60959, Note_on_c, 9, 36, 0
1, 60960, Note_on_c, 9, 38, 115
1, 60960, Note_on_c, 9, 42, 110
1, 60960, Note_on_c, 9, 42, 0
1, 60979, Note_on_c, 9, 38, 0
1, 60980, Note_on_c, 9, 39, 127
1, 61019, Note_on_c, 9, 39, 0
1, 61200, Note_on_c, 9, 42, 50
1, 61212, Note_on_c, 9, 42, 0
1, 61440, Note_on_c, 9, 42, 110
1, 61440, Note_on_c, 9, 36, 90
1, 61452, Note_on_c, 9, 42, 0
1, 61680, Note_on_c, 9, 42, 50
1, 61692, Note_on_c, 9, 42, 0
1, 61919, Note_on_c, 9, 36, 0
1, 61920, Note_on_c, 9, 38, 115
1, 61920, Note_on_c, 9, 42, 110
1, 61920, Note_on_c, 9, 36, 90
1, 61932, Note_on_c, 9, 42, 0
1, 62159, Note_on_c, 9, 38, 0
1, 62160, Note_on_c, 9, 42, 50
1, 62172, Note_on_c, 9, 42, 0
1, 62399, Note_on_c, 9, 36, 0
1, 62400, Note_on_c, 9, 42, 110
1, 62412, Note_on_c, 9, 42, 0
1, 62640, Note_on_c, 9, 42, 50
1, 62640, Note_on_c, 9, 36, 90
1, 62652, Note_on_c, 9, 42, 0
1, 62879, Note_on_c, 9, 36, 0
1, 62880, Note_on_c, 9, 38, 115
1, 62880, Note_on_c, 9, 42, 110
1, 62880, Note_on_c, 9, 42, 0
1, 62899, Note_on_c, 9, 38, 0
1, 62900, Note_on_c, 9, 39, 127
1, 62939, Note_on_c, 9, 39, 0
1, 63120, Note_on_c, 9, 42, 50
1, 63132, Note_on_c, 9, 42, 0
1, 63360, Note_on_c, 9, 42, 110
1, 63360, Note_on_c, 9, 36, 90
1, 63372, Note_on_c, 9, 42, 0
1, 63600, Note_on_c, 9, 42, 50
1, 63612, Note_on_c, 9, 42, 0
1, 63839, Note_on_c, 9, 36, 0
1, 63840, Note_on_c, 9, 38, 115
1, 63840, Note_on_c, 9, 42, 110
1, 63852, Note_on_c, 9, 42, 0
1, 64079, Note_on_c, 9, 38, 0
1, 64080, Note_on_c, 9, 42, 50
1, 64092, Note_on_c, 9, 42, 0
1, 64320, Note_on_c, 9, 42, 110
1, 64320, Note_on_c, 9, 36, 90
1, 64332, Note_on_c, 9, 42, 0
1, 64560, Note_on_c, 9, 42, 50
1, 64572, Note_on_c, 9, 42, 0
1, 64799, Note_on_c, 9, 36, 0
1, 64800, Note_on_c, 9, 38, 115
1, 64800, Note_on_c, 9, 42, 110
1, 64800, Note_on_c, 9, 42, 0
1, 64819, Note_on_c, 9, 38, 0
1, 64820, Note_on_c, 9, 39, 127
1, 64859, Note_on_c, 9, 39, 0
1, 65040, Note_on_c, 9, 42, 50
1, 65052, Note_on_c, 9, 42, 0
1, 65280, Note_on_c, 9, 42, 110
1, 65280, Note_on_c, 9, 36, 90
1, 65292, Note_on_c, 9, 42, 0
1, 65520, Note_on_c, 9, 42, 50
1, 65532, Note_on_c, 9, 42, 0
1, 65759, Note_on_c, 9, 36, 0
1, 65760, Note_on_c, 9, 38, 115
1, 65760, Note_on_c, 9, 42, 110
1, 65760, Note_on_c, 9, 36, 90
1, 65772, Note_on_c, 9, 42, 0
1, 65999, Note_on_c, 9, 38, 0
1, 66000, Note_on_c, 9, 42, 50
1, 66012, Note_on_c, 9, 42, 0
1, 66239, Note_on_c, 9, 36, 0
1, 66240, Note_on_c, 9, 42, 110
1, 66252, Note_on_c, 9, 42, 0
1, 66480, Note_on_c, 9, 42, 50
1, 66480, Note_on_c, 9, 36, 90
1, 66492, Note_on_c, 9, 42, 0
1, 66719, Note_on_c, 9, 36, 0
1, 66720, Note_on_c, 9, 38, 115
1, 66720, Note_on_c, 9, 42, 110
1, 66720, Note_on_c, 9, 42, 0
1, 66739, Note_on_c, 9, 38, 0
1, 66740, Note_on_c, 9, 39, 127
1, 66779, Note_on_c, 9, 39, 0
1, 66960, Note_on_c, 9, 42, 50
1, 66972, Note_on_c, 9, 42, 0
1, 67200, Note_on_c, 9, 42, 110
1, 67200, Note_on_c, 9, 36, 90
1, 67212, Note_on_c, 9, 42, 0
1, 67440, Note_on_c, 9, 42, 50
1, 67452, Note_on_c, 9, 42, 0
1, 67679, Note_on_c, 9, 36, 0
1, 67680, Note_on_c, 9, 38, 115
1, 67680, Note_on_c, 9, 42, 110
1, 67692, Note_on_c, 9, 42, 0
1, 67919, Note_on_c, 9, 38, 0
1, 67920, Note_on_c, 9, 42, 50
1, 67932, Note_on_c, 9, 42, 0
1, 68160, Note_on_c, 9, 42, 110
1, 68160, Note_on_c, 9, 36, 90
1, 68172, Note_on_c, 9, 42, 0
1, 68400, Note_on_c, 9, 42, 50
1, 68412, Note_on_c, 9, 42, 0
1, 68639, Note_on_c, 9, 36, 0
1, 68640, Note_on_c, 9, 38, 115
1, 68640, Note_on_c, 9, 42, 110
1, 68640, Note_on_c, 9, 42, 0
1, 68659, Note_on_c, 9, 38, 0
1, 68660, Note_on_c, 9, 39, 127
1, 68699, Note_on_c, 9, 39, 0
1, 68880, Note_on_c, 9, 42, 50
1, 68892, Note_on_c, 9, 42, 0
1, 69120, Note_on_c, 9, 42, 110
1, 69120, Note_on_c, 9, 36, 90
1, 69132, Note_on_c, 9, 42, 0
1, 69360, Note_on_c, 9, 42, 50
1, 69372, Note_on_c, 9, 42, 0
1, 69599, Note_on_c, 9, 36, 0
1, 69600, Note_on_c, 9, 38, 115
1, 69600, Note_on_c, 9, 42, 110
1, 69600, Note_on_c, 9, 36, 90
1, 69612, Note_on_c, 9, 42, 0
1, 69839, Note_on_c, 9, 38, 0
1, 69840, Note_on_c, 9, 42, 50
1, 69852, Note_on_c, 9, 42, 0
1, 70079, Note_on_c, 9, 36, 0
1, 70080, Note_on_c, 9, 42, 110
1, 70092, Note_on_c, 9, 42, 0
1, 70320, Note_on_c, 9, 42, 50
1, 70320, Note_on_c, 9, 36, 90
1, 70332, Note_on_c, 9, 42, 0
1, 70559, Note_on_c, 9, 36, 0
1, 70560, Note_on_c, 9, 38, 115
1, 70560, Note_on_c, 9, 42, 110
1, 70560, Note_on_c, 9, 42, 0
1, 70579, Note_on_c, 9, 38, 0
1, 70580, Note_on_c, 9, 39, 127
1, 70619, Note_on_c, 9, 39, 0
1, 70800, Note_on_c, 9, 42, 50
1, 70812, Note_on_c, 9, 42, 0
1, 71040, Note_on_c, 9, 42, 110
1, 71040, Note_on_c, 9, 36, 90
1, 71052, Note_on_c, 9, 42, 0
1, 71280, Note_on_c, 9, 42, 50
1, 71292, Note_on_c, 9, 42, 0
1, 71519, Note_on_c, 9, 36, 0
1, 71520, Note_on_c, 9, 38, 115
1, 71520, Note_on_c, 9, 42, 110
1, 71532, Note_on_c, 9, 42, 0
1, 71759, Note_on_c, 9, 38, 0
1, 71760, Note_on_c, 9, 42, 50
1, 71772, Note_on_c, 9, 42, 0
1, 72000, Note_on_c, 9, 42, 110
1, 72000, Note_on_c, 9, 36, 90
1, 72012, Note_on_c, 9, 42, 0
1, 72240, Note_on_c, 9, 42, 50
1, 72252, Note_on_c, 9, 42, 0
1, 72479, Note_on_c, 9, 36, 0
1, 72480, Note_on_c, 9, 38, 115
1, 72480, Note_on_c, 9, 42, 110
1, 72480, Note_on_c, 9, 42, 0
1, 72499, Note_on_c, 9, 38, 0
1, 72500, Note_on_c, 9, 39, 127
1, 72539, Note_on_c, 9, 39, 0
1, 72720, Note_on_c, 9, 42, 50
1, 72732, Note_on_c, 9, 42, 0
1, 72960, Note_on_c, 9, 42, 110
1, 72960, Note_on_c, 9, 36, 90
1, 72972, Note_on_c, 9, 42, 0
1, 73200, Note_on_c, 9, 42, 50
1, 73212, Note_on_c, 9, 42, 0
1, 73439, Note_on_c, 9, 36, 0
1, 73440, Note_on_c, 9, 38, 115
1, 73440, Note_on_c, 9, 42, 110
1, 73440, Note_on_c, 9, 36, 90
1, 73452, Note_on_c, 9, 42, 0
1, 73679, Note_on_c, 9, 38, 0
1, 73680, Note_on_c, 9, 42, 50
1, 73692, Note_on_c, 9, 42, 0
1, 73919, Note_on_c, 9, 36, 0
1, 73920, Note_on_c, 9, 42, 110
1, 73932, Note_on_c, 9, 42, 0
1, 74160, Note_on_c, 9, 42, 50
1, 74160, Note_on_c, 9, 36, 90
1, 74172, Note_on_c, 9, 42, 0
1, 74399, Note_on_c, 9, 36, 0
1, 74400, Note_on_c, 9, 38, 115
1, 74400, Note_on_c, 9, 42, 110
1, 74400, Note_on_c, 9, 42, 0
1, 74419, Note_on_c, 9, 38, 0
1, 74420, Note_on_c, 9, 39, 127
1, 74459, Note_on_c, 9, 39, 0
1, 74640, Note_on_c, 9, 57, 90
1, 74640, Note_on_c, 9, 36, 90
1, 74652, Note_on_c, 9, 57, 0
1, 74879, Note_on_c, 9, 36, 0
1, 74880, Note_on_c, 9, 42, 110
1, 74880, Note_on_c, 9, 36, 90
1, 74892, Note_on_c, 9, 42, 0
1, 75120, Note_on_c, 9, 42, 50
1, 75132, Note_on_c, 9, 42, 0
1, 75359, Note_on_c, 9, 36, 0
1, 75360, Note_on_c, 9, 38, 115
1, 75360, Note_on_c, 9, 42, 110
1, 75372, Note_on_c, 9, 42, 0
1, 75599, Note_on_c, 9, 38, 0
1, 75600, Note_on_c, 9, 42, 50
1, 75612, Note_on_c, 9, 42, 0
1, 75840, Note_on_c, 9, 42, 110
1, 75840, Note_on_c, 9, 36, 90
1, 75852, Note_on_c, 9, 42, 0
1, 76080, Note_on_c, 9, 42, 50
1, 76092, Note_on_c, 9, 42, 0
1, 76319, Note_on_c, 9, 36, 0
1, 76320, Note_on_c, 9, 38, 115
1, 76320, Note_on_c, 9, 42, 110
1, 76320, Note_on_c, 9, 42, 0
1, 76339, Note_on_c, 9, 38, 0
1, 76340, Note_on_c, 9, 39, 127
1, 76379, Note_on_c, 9, 39, 0
1, 76560, Note_on_c, 9, 42, 50
1, 76572, Note_on_c, 9, 42, 0
1, 76800, Note_on_c, 9, 42, 110
1, 76800, Note_on_c, 9, 36, 90
1, 76812, Note_on_c, 9, 42, 0
1, 77040, Note_on_c, 9, 42, 50
1, 77052, Note_on_c, 9, 42, 0
1, 77279, Note_on_c, 9, 36, 0
1, 77280, Note_on_c, 9, 38, 115
1, 77280, Note_on_c, 9, 42, 110
1, 77280, Note_on_c, 9, 36, 90
1, 77292, Note_on_c, 9, 42, 0
1, 77519, Note_on_c, 9, 38, 0
1, 77520, Note_on_c, 9, 42, 50
1, 77532, Note_on_c, 9, 42, 0
1, 77759, Note_on_c, 9, 36, 0
1, 77760, Note_on_c, 9, 42, 110
1, 77772, Note_on_c, 9, 42, 0
1, 78000, Note_on_c, 9, 42, 50
1, 78000, Note_on_c, 9, 36, 90
1, 78012, Note_on_c, 9, 42, 0
1, 78239, Note_on_c, 9, 36, 0
1, 78240, Note_on_c, 9, 38, 115
1, 78240, Note_on_c, 9, 42, 110
1, 78240, Note_on_c, 9, 42, 0
1, 78259, Note_on_c, 9, 38, 0
1, 78260, Note_on_c, 9, 39, 127
1, 78299, Note_on_c, 9, 39, 0
1, 78480, Note_on_c, 9, 42, 50
1, 78492, Note_on_c, 9, 42, 0
1, 78720, Note_on_c, 9, 42, 110
1, 78720, Note_on_c, 9, 36, 90
1, 78732, Note_on_c, 9, 42, 0
1, 78960, Note_on_c, 9, 42, 50
1, 78972, Note_on_c, 9, 42, 0
1, 79199, Note_on_c, 9, 36, 0
1, 79200, Note_on_c, 9, 38, 115
1, 79200, Note_on_c, 9, 42, 110
1, 79212, Note_on_c, 9, 42, 0
1, 79439, Note_on_c, 9, 38, 0
1, 79440, Note_on_c, 9, 42, 50
1, 79452, Note_on_c, 9, 42, 0
1, 79680, Note_on_c, 9, 42, 110
1, 79680, Note_on_c, 9, 36, 90
1, 79692, Note_on_c, 9, 42, 0
1, 79920, Note_on_c, 9, 42, 50
1, 79932, Note_on_c, 9, 42, 0
1, 80159, Note_on_c, 9, 36, 0
1, 80160, Note_on_c, 9, 38, 115
1, 80160, Note_on_c, 9, 42, 110
1, 80160, Note_on_c, 9, 42, 0
1, 80179, Note_on_c, 9, 38, 0
1, 80180, Note_on_c, 9, 39, 127
1, 80219, Note_on_c, 9, 39, 0
1, 80400, Note_on_c, 9, 42, 50
1, 80412, Note_on_c, 9, 42, 0
1, 80640, Note_on_c, 9, 42, 110
1, 80640, Note_on_c, 9, 36, 90
1, 80652, Note_on_c, 9, 42, 0
1, 80880, Note_on_c, 9, 42, 50
1, 80892, Note_on_c, 9, 42, 0
1, 81119, Note_on_c, 9, 36, 0
1, 81120, Note_on_c, 9, 38, 115
1, 81120, Note_on_c, 9, 42, 110
1, 81120, Note_on_c, 9, 36, 90
1, 81132, Note_on_c, 9, 42, 0
1, 81359, Note_on_c, 9, 38, 0
1, 81360, Note_on_c, 9, 42, 50
1, 81372, Note_on_c, 9, 42, 0
1, 81599, Note_on_c, 9, 36, 0
1, 81600, Note_on_c, 9, 42, 110
1, 81612, Note_on_c, 9, 42, 0
1, 81840, Note_on_c, 9, 42, 50
1, 81840, Note_on_c, 9, 36, 90
1, 81852, Note_on_c, 9, 42, 0
1, 82079, Note_on_c, 9, 36, 0
1, 82080, Note_on_c, 9, 38, 115
1, 82080, Note_on_c, 9, 42, 110
1, 82080, Note_on_c, 9, 42, 0
1, 82099, Note_on_c, 9, 38, 0
1, 82100, Note_on_c, 9, 39, 127
1, 82139, Note_on_c, 9, 39, 0
1, 82320, Note_on_c, 9, 42, 50
1, 82332, Note_on_c, 9, 42, 0
1, 82560, Note_on_c, 9, 42, 110
1, 82560, Note_on_c, 9, 36, 90
1, 82572, Note_on_c, 9, 42, 0
1, 82800, Note_on_c, 9, 42, 50
1, 82812, Note_on_c, 9, 42, 0
1, 83039, Note_on_c, 9, 36, 0
1, 83040, Note_on_c, 9, 38, 115
1, 83040, Note_on_c, 9, 42, 110
1, 83052, Note_on_c, 9, 42, 0
1, 83279, Note_on_c, 9, 38, 0
1, 83280, Note_on_c, 9, 42, 50
1, 83292, Note_on_c, 9, 42, 0
1, 83520, Note_on_c, 9, 42, 110
1, 83520, Note_on_c, 9, 36, 90
1, 83532, Note_on_c, 9, 42, 0
1, 83760, Note_on_c, 9, 42, 50
1, 83772, Note_on_c, 9, 42, 0
1, 83999, Note_on_c, 9, 36, 0
1, 84000, Note_on_c, 9, 38, 115
1, 84000, Note_on_c, 9, 42, 110
1, 84000, Note_on_c, 9, 42, 0
1, 84019, Note_on_c, 9, 38, 0
1, 84020, Note_on_c, 9, 39, 127
1, 84059, Note_on_c, 9, 39, 0
1, 84240, Note_on_c, 9, 42, 50
1, 84252, Note_on_c, 9, 42, 0
1, 84480, Note_on_c, 9, 42, 110
1, 84480, Note_on_c, 9, 36, 90
1, 84492, Note_on_c, 9, 42, 0
1, 84720, Note_on_c, 9, 42, 50
1, 84732, Note_on_c, 9, 42, 0
1, 84959, Note_on_c, 9, 36, 0
1, 84960, Note_on_c, 9, 38, 115
1, 84960, Note_on_c, 9, 42, 110
1, 84960, Note_on_c, 9, 36, 90
1, 84972, Note_on_c, 9, 42, 0
1, 85199, Note_on_c, 9, 38, 0
1, 85200, Note_on_c, 9, 42, 50
1, 85212, Note_on_c, 9, 42, 0
1, 85439, Note_on_c, 9, 36, 0
1, 85440, Note_on_c, 9, 42, 110
1, 85452, Note_on_c, 9, 42, 0
1, 85680, Note_on_c, 9, 42, 50
1, 85680, Note_on_c, 9, 36, 90
1, 85692, Note_on_c, 9, 42, 0
1, 85919, Note_on_c, 9, 36, 0
1, 85920, Note_on_c, 9, 38, 115
1, 85920, Note_on_c, 9, 42, 110
1, 85920, Note_on_c, 9, 42, 0
1, 85939, Note_on_c, 9, 38, 0
1, 85940, Note_on_c, 9, 39, 127
1, 85979, Note_on_c, 9, 39, 0
1, 86160, Note_on_c, 9, 42, 50
1, 86172, Note_on_c, 9, 42, 0
1, 86400, Note_on_c, 9, 42, 110
1, 86400, Note_on_c, 9, 36, 90
1, 86412, Note_on_c, 9, 42, 0
1, 86640, Note_on_c, 9, 42, 50
1, 86652, Note_on_c, 9, 42, 0
1, 86879, Note_on_c, 9, 36, 0
1, 86880, Note_on_c, 9, 38, 115
1, 86880, Note_on_c, 9, 42, 110
1, 86892, Note_on_c, 9, 42, 0
1, 87119, Note_on_c, 9, 38, 0
1, 87120, Note_on_c, 9, 42, 50
1, 87132, Note_on_c, 9, 42, 0
1, 87360, Note_on_c, 9, 42, 110
1, 87360, Note_on_c, 9, 36, 90
1, 87372, Note_on_c, 9, 42, 0
1, 87600, Note_on_c, 9, 42, 50
1, 87612, Note_on_c, 9, 42, 0
1, 87839, Note_on_c, 9, 36, 0
1, 87840, Note_on_c, 9, 38, 115
1, 87840, Note_on_c, 9, 42, 110
1, 87840, Note_on_c, 9, 42, 0
1, 87859, Note_on_c, 9, 38, 0
1, 87860, Note_on_c, 9, 39, 127
1, 87899, Note_on_c, 9, 39, 0
1, 88080, Note_on_c, 9, 42, 50
1, 88092, Note_on_c, 9, 42, 0
1, 88320, Note_on_c, 9, 42, 110
1, 88320, Note_on_c, 9, 36, 90
1, 88332, Note_on_c, 9, 42, 0
1, 88560, Note_on_c, 9, 42, 50
1, 88572, Note_on_c, 9, 42, 0
1, 88799, Note_on_c, 9, 36, 0
1, 88800, Note_on_c, 9, 38, 115
1, 88800, Note_on_c, 9, 42, 110
1, 88800, Note_on_c, 9, 36, 90
1, 88812, Note_on_c, 9, 42, 0
1, 89039, Note_on_c, 9, 38, 0
1, 89040, Note_on_c, 9, 42, 50
1, 89052, Note_on_c, 9, 42, 0
1, 89279, Note_on_c, 9, 36, 0
1, 89280, Note_on_c, 9, 42, 110
1, 89292, Note_on_c, 9, 42, 0
1, 89520, Note_on_c, 9, 42, 50
1, 89520, Note_on_c, 9, 36, 90
1, 89532, Note_on_c, 9, 42, 0
1, 89759, Note_on_c, 9, 36, 0
1, 89760, Note_on_c, 9, 38, 115
1, 89760, Note_on_c, 9, 42, 110
1, 89760, Note_on_c, 9, 42, 0
1, 89779, Note_on_c, 9, 38, 0
1, 89780, Note_on_c, 9, 39, 127
1, 89819, Note_on_c, 9, 39, 0
1, 90000, Note_on_c, 9, 42, 50
1, 90012, Note_on_c, 9, 42, 0
1, 90240, Note_on_c, 9, 57, 80
1, 90240, Note_on_c, 9, 36, 90
1, 90252, Note_on_c, 9, 57, 0
1, 90480, Note_on_c, 9, 42, 50
1, 90492, Note_on_c, 9, 42, 0
1, 90719, Note_on_c, 9, 36, 0
1, 90720, Note_on_c, 9, 38, 115
1, 90720, Note_on_c, 9, 42, 110
1, 90732, Note_on_c, 9, 42, 0
1, 90959, Note_on_c, 9, 38, 0
1, 90960, Note_on_c, 9, 42, 50
1, 90972, Note_on_c, 9, 42, 0
1, 91200, Note_on_c, 9, 42, 110
1, 91200, Note_on_c, 9, 36, 90
1, 91212, Note_on_c, 9, 42, 0
1, 91440, Note_on_c, 9, 42, 50
1, 91452, Note_on_c, 9, 42, 0
1, 91679, Note_on_c, 9, 36, 0
1, 91680, Note_on_c, 9, 38, 115
1, 91680, Note_on_c, 9, 42, 110
1, 91680, Note_on_c, 9, 42, 0
1, 91699, Note_on_c, 9, 38, 0
1, 91700, Note_on_c, 9, 39, 127
1, 91739, Note_on_c, 9, 39, 0
1, 91920, Note_on_c, 9, 42, 50
1, 91932, Note_on_c, 9, 42, 0
1, 92160, Note_on_c, 9, 42, 110
1, 92160, Note_on_c, 9, 36, 90
1, 92172, Note_on_c, 9, 42, 0
1, 92400, Note_on_c, 9, 42, 50
1, 92412, Note_on_c, 9, 42, 0
1, 92639, Note_on_c, 9, 36, 0
1, 92640, Note_on_c, 9, 38, 115
1, 92640, Note_on_c, 9, 42, 110
1, 92640, Note_on_c, 9, 36, 90
1, 92652, Note_on_c, 9, 42, 0
1, 92879, Note_on_c, 9, 38, 0
1, 92880, Note_on_c, 9, 42, 50
1, 92892, Note_on_c, 9, 42, 0
1, 93119, Note_on_c, 9, 36, 0
1, 93120, Note_on_c, 9, 42, 110
1, 93132, Note_on_c, 9, 42, 0
1, 93360, Note_on_c, 9, 42, 50
1, 93360, Note_on_c, 9, 36, 90
1, 93372, Note_on_c, 9, 42, 0
1, 93599, Note_on_c, 9, 36, 0
1, 93600, Note_on_c, 9, 38, 115
1, 93600, Note_on_c, 9, 42, 110
1, 93600, Note_on_c, 9, 42, 0
1, 93619, Note_on_c, 9, 38, 0
1, 93620, Note_on_c, 9, 39, 127
1, 93659, Note_on_c, 9, 39, 0
1, 93840, Note_on_c, 9, 42, 50
1, 93852, Note_on_c, 9, 42, 0
1, 94080, Note_on_c, 9, 42, 110
1, 94080, Note_on_c, 9, 36, 90
1, 94092, Note_on_c, 9, 42, 0
1, 94320, Note_on_c, 9, 42, 50
1, 94332, Note_on_c, 9, 42, 0
1, 94559, Note_on_c, 9, 36, 0
1, 94560, Note_on_c, 9, 38, 115
1, 94560, Note_on_c, 9, 42, 110
1, 94572, Note_on_c, 9, 42, 0
1, 94799, Note_on_c, 9, 38, 0
1, 94800, Note_on_c, 9, 42, 50
1, 94812, Note_on_c, 9, 42, 0
1, 95040, Note_on_c, 9, 42, 110
1, 95040, Note_on_c, 9, 36, 90
1, 95052, Note_on_c, 9, 42, 0
1, 95280, Note_on_c, 9, 42, 50
1, 95292, Note_on_c, 9, 42, 0
1, 95519, Note_on_c, 9, 36, 0
1, 95520, Note_on_c, 9, 38, 115
1, 95520, Note_on_c, 9, 42, 110
1, 95520, Note_on_c, 9, 42, 0
1, 95539, Note_on_c, 9, 38, 0
1, 95540, Note_on_c, 9, 39, 127
1, 95579, Note_on_c, 9, 39, 0
1, 95760, Note_on_c, 9, 42, 50
1, 95772, Note_on_c, 9, 42, 0
1, 96000, Note_on_c, 9, 42, 110
1, 96000, Note_on_c, 9, 36, 90
1, 96012, Note_on_c, 9, 42, 0
1, 96240, Note_on_c, 9, 42, 50
1, 96252, Note_on_c, 9, 42, 0
1, 96479, Note_on_c, 9, 36, 0
1, 96480, Note_on_c, 9, 38, 115
1, 96480, Note_on_c, 9, 42, 110
1, 96480, Note_on_c, 9, 36, 90
1, 96492, Note_on_c, 9, 42, 0
1, 96719, Note_on_c, 9, 38, 0
1, 96720, Note_on_c, 9, 42, 50
1, 96732, Note_on_c, 9, 42, 0
1, 96959, Note_on_c, 9, 36, 0
1, 96960, Note_on_c, 9, 28, 120
1, 96960, Note_on_c, 9, 42, 90
1, 96972, Note_on_c, 9, 42, 0
1, 97199, Note_on_c, 9, 28, 0
1, 97200, Note_on_c, 9, 42, 50
1, 97200, Note_on_c, 9, 36, 90
1, 97212, Note_on_c, 9, 42, 0
1, 97439, Note_on_c, 9, 36, 0
1, 97440, Note_on_c, 9, 38, 115
1, 97440, Note_on_c, 9, 42, 110
1, 97440, Note_on_c, 9, 42, 0
1, 97459, Note_on_c, 9, 38, 0
1, 97460, Note_on_c, 9, 39, 127
1, 97499, Note_on_c, 9, 39, 0
1, 97680, Note_on_c, 9, 42, 50
1, 97692, Note_on_c, 9, 42, 0
1, 97920, Note_on_c, 9, 57, 80
1, 97920, Note_on_c, 9, 36, 90
1, 97932, Note_on_c, 9, 57, 0
1, 98160, Note_on_c, 9, 42, 50
1, 98172, Note_on_c, 9, 42, 0
1, 98399, Note_on_c, 9, 36, 0
1, 98400, Note_on_c, 9, 38, 115
1, 98400, Note_on_c, 9, 42, 110
1, 98412, Note_on_c, 9, 42, 0
1, 98639, Note_on_c, 9, 38, 0
1, 98640, Note_on_c, 9, 42, 50
1, 98652, Note_on_c, 9, 42, 0
1, 98880, Note_on_c, 9, 42, 110
1, 98880, Note_on_c, 9, 36, 90
1, 98892, Note_on_c, 9, 42, 0
1, 99120, Note_on_c, 9, 42, 50
1, 99132, Note_on_c, 9, 42, 0
1, 99359, Note_on_c, 9, 36, 0
1, 99360, Note_on_c, 9, 38, 115
1, 99360, Note_on_c, 9, 42, 110
1, 99360, Note_on_c, 9, 42, 0
1, 99379, Note_on_c, 9, 38, 0
1, 99380, Note_on_c, 9, 39, 127
1, 99419, Note_on_c, 9, 39, 0
1, 99600, Note_on_c, 9, 42, 50
1, 99612, Note_on_c, 9, 42, 0
1, 99840, Note_on_c, 9, 42, 110
1, 99840, Note_on_c, 9, 36, 90
1, 99852, Note_on_c, 9, 42, 0
1, 100080, Note_on_c, 9, 42, 50
1, 100092, Note_on_c, 9, 42, 0
1, 100319, Note_on_c, 9, 36, 0
1, 100320, Note_on_c, 9, 38, 115
1, 100320, Note_on_c, 9, 42, 110
1, 100320, Note_on_c, 9, 36, 90
1, 100332, Note_on_c, 9, 42, 0
1, 100559, Note_on_c, 9, 38, 0
1, 100560, Note_on_c, 9, 42, 50
1, 100572, Note_on_c, 9, 42, 0
1, 100799, Note_on_c, 9, 36, 0
1, 100800, Note_on_c, 9, 42, 110
1, 100812, Note_on_c, 9, 42, 0
1, 101040, Note_on_c, 9, 42, 50
1, 101040, Note_on_c, 9, 36, 90
1, 101052, Note_on_c, 9, 42, 0
1, 101279, Note_on_c, 9, 36, 0
1, 101280, Note_on_c, 9, 38, 115
1, 101280, Note_on_c, 9, 42, 110
1, 101280, Note_on_c, 9, 42, 0
1, 101299, Note_on_c, 9, 38, 0
1, 101300, Note_on_c, 9, 39, 127
1, 101339, Note_on_c, 9, 39, 0
1, 101520, Note_on_c, 9, 42, 50
1, 101532, Note_on_c, 9, 42, 0
1, 101760, Note_on_c, 9, 42, 110
1, 101760, Note_on_c, 9, 36, 90
1, 101772, Note_on_c, 9, 42, 0
1, 102000, Note_on_c, 9, 42, 50
1, 102012, Note_on_c, 9, 42, 0
1, 102239, Note_on_c, 9, 36, 0
1, 102240, Note_on_c, 9, 38, 115
1, 102240, Note_on_c, 9, 42, 110
1, 102252, Note_on_c, 9, 42, 0
1, 102479, Note_on_c, 9, 38, 0
1, 102480, Note_on_c, 9, 42, 50
1, 102492, Note_on_c, 9, 42, 0
1, 102720, Note_on_c, 9, 42, 110
1, 102720, Note_on_c, 9, 36, 90
1, 102732, Note_on_c, 9, 42, 0
1, 102960, Note_on_c, 9, 42, 50
1, 102972, Note_on_c, 9, 42, 0
1, 103199, Note_on_c, 9, 36, 0
1, 103200, Note_on_c, 9, 38, 115
1, 103200, Note_on_c, 9, 42, 110
1, 103200, Note_on_c, 9, 42, 0
1, 103219, Note_on_c, 9, 38, 0
1, 103220, Note_on_c, 9, 39, 127
1, 103259, Note_on_c, 9, 39, 0
1, 103440, Note_on_c, 9, 42, 50
1, 103452, Note_on_c, 9, 42, 0
1, 103680, Note_on_c, 9, 42, 110
1, 103680, Note_on_c, 9, 36, 90
1, 103692, Note_on_c, 9, 42, 0
1, 103920, Note_on_c, 9, 42, 50
1, 103932, Note_on_c, 9, 42, 0
1, 104159, Note_on_c, 9, 36, 0
1, 104160, Note_on_c, 9, 38, 115
1, 104160, Note_on_c, 9, 42, 110
1, 104160, Note_on_c, 9, 36, 90
1, 104172, Note_on_c, 9, 42, 0
1, 104399, Note_on_c, 9, 38, 0
1, 104400, Note_on_c, 9, 42, 50
1, 104412, Note_on_c, 9, 42, 0
1, 104639, Note_on_c, 9, 36, 0
1, 104640, Note_on_c, 9, 42, 110
1, 104652, Note_on_c, 9, 42, 0
1, 104880, Note_on_c, 9, 42, 50
1, 104880, Note_on_c, 9, 36, 90
1, 104892, Note_on_c, 9, 42, 0
1, 105119, Note_on_c, 9, 36, 0
1, 105120, Note_on_c, 9, 38, 115
1, 105120, Note_on_c, 9, 42, 110
1, 105120, Note_on_c, 9, 42, 0
1, 105139, Note_on_c, 9, 38, 0
1, 105140, Note_on_c, 9, 39, 127
1, 105179, Note_on_c, 9, 39, 0
1, 105360, Note_on_c, 9, 42, 50
1, 105372, Note_on_c, 9, 42, 0
1, 105600, Note_on_c, 9, 42, 110
1, 105600, Note_on_c, 9, 36, 90
1, 105612, Note_on_c, 9, 42, 0
1, 105840, Note_on_c, 9, 42, 50
1, 105852, Note_on_c, 9, 42, 0
1, 106079, Note_on_c, 9, 36, 0
1, 106080, Note_on_c, 9, 38, 115
1, 106080, Note_on_c, 9, 42, 110
1, 106092, Note_on_c, 9, 42, 0
1, 106319, Note_on_c, 9, 38, 0
1, 106320, Note_on_c, 9, 42, 50
1, 106332, Note_on_c, 9, 42, 0
1, 106560, Note_on_c, 9, 42, 110
1, 106560, Note_on_c, 9, 36, 90
1, 106572, Note_on_c, 9, 42, 0
1, 106800, Note_on_c, 9, 42, 50
1, 106812, Note_on_c, 9, 42, 0
1, 107039, Note_on_c, 9, 36, 0
1, 107040, Note_on_c, 9, 38, 115
1, 107040, Note_on_c, 9, 42, 110
1, 107040, Note_on_c, 9, 42, 0
1, 107059, Note_on_c, 9, 38, 0
1, 107060, Note_on_c, 9, 39, 127
1, 107099, Note_on_c, 9, 39, 0
1, 107280, Note_on_c, 9, 42, 50
1, 107292, Note_on_c, 9, 42, 0
1, 107520, Note_on_c, 9, 42, 110
1, 107520, Note_on_c, 9, 36, 90
1, 107532, Note_on_c, 9, 42, 0
1, 107760, Note_on_c, 9, 42, 50
1, 107772, Note_on_c, 9, 42, 0
1, 107999, Note_on_c, 9, 36, 0
1, 108000, Note_on_c, 9, 38, 115
1, 108000, Note_on_c, 9, 42, 110
1, 108000, Note_on_c, 9, 36, 90
1, 108012, Note_on_c, 9, 42, 0
1, 108239, Note_on_c, 9, 38, 0
1, 108240, Note_on_c, 9, 42, 50
1, 108252, Note_on_c, 9, 42, 0
1, 108479, Note_on_c, 9, 36, 0
1, 108480, Note_on_c, 9, 42, 110
1, 108492, Note_on_c, 9, 42, 0
1, 108720, Note_on_c, 9, 42, 50
1, 108720, Note_on_c, 9, 36, 90
1, 108732, Note_on_c, 9, 42, 0
1, 108959, Note_on_c, 9, 36, 0
1, 108960, Note_on_c, 9, 38, 115
1, 108960, Note_on_c, 9, 42, 110
1, 108960, Note_on_c, 9, 42, 0
1, 108979, Note_on_c, 9, 38, 0
1, 108980, Note_on_c, 9, 39, 127
1, 109019, Note_on_c, 9, 39, 0
1, 109200, Note_on_c, 9, 42, 50
1, 109212, Note_on_c, 9, 42, 0
1, 109440, Note_on_c, 9, 42, 110
1, 109440, Note_on_c, 9, 36, 90
1, 109452, Note_on_c, 9, 42, 0
1, 109680, Note_on_c, 9, 42, 50
1, 109692, Note_on_c, 9, 42, 0
1, 109919, Note_on_c, 9, 36, 0
1, 109920, Note_on_c, 9, 38, 115
1, 109920, Note_on_c, 9, 42, 110
1, 109932, Note_on_c, 9, 42, 0
1, 110159, Note_on_c, 9, 38, 0
1, 110160, Note_on_c, 9, 42, 50
1, 110172, Note_on_c, 9, 42, 0
1, 110400, Note_on_c, 9, 42, 110
1, 110400, Note_on_c, 9, 36, 90
1, 110412, Note_on_c, 9, 42, 0
1, 110640, Note_on_c, 9, 42, 50
1, 110652, Note_on_c, 9, 42, 0
1, 110879, Note_on_c, 9, 36, 0
1, 110880, Note_on_c, 9, 38, 115
1, 110880, Note_on_c, 9, 42, 110
1, 110880, Note_on_c, 9, 42, 0
1, 110899, Note_on_c, 9, 38, 0
1, 110900, Note_on_c, 9, 39, 127
1, 110939, Note_on_c, 9, 39, 0
1, 111120, Note_on_c, 9, 42, 50
1, 111132, Note_on_c, 9, 42, 0
1, 111360, Note_on_c, 9, 42, 110
1, 111360, Note_on_c, 9, 36, 90
1, 111372, Note_on_c, 9, 42, 0
1, 111600, Note_on_c, 9, 42, 50
1, 111612, Note_on_c, 9, 42, 0
1, 111839, Note_on_c, 9, 36, 0
1, 111840, Note_on_c, 9, 38, 115
1, 111840, Note_on_c, 9, 42, 110
1, 111840, Note_on_c, 9, 36, 90
1, 111852, Note_on_c, 9, 42, 0
1, 112079, Note_on_c, 9, 38, 0
1, 112080, Note_on_c, 9, 42, 50
1, 112092, Note_on_c, 9, 42, 0
1, 112319, Note_on_c, 9, 36, 0
1, 112320, Note_on_c, 9, 42, 110
1, 112332, Note_on_c, 9, 42, 0
1, 112560, Note_on_c, 9, 42, 50
1, 112560, Note_on_c, 9, 36, 90
1, 112572, Note_on_c, 9, 42, 0
1, 112799, Note_on_c, 9, 36, 0
1, 112800, Note_on_c, 9, 38, 115
1, 112800, Note_on_c, 9, 42, 110
1, 112800, Note_on_c, 9, 42, 0
1, 112819, Note_on_c, 9, 38, 0
1, 112820, Note_on_c, 9, 39, 127
1, 112859, Note_on_c, 9, 39, 0
1, 113040, Note_on_c, 9, 42, 50
1, 113052, Note_on_c, 9, 42, 0
1, 113280, Note_on_c, 9, 49, 80
1, 113280, Note_on_c, 9, 36, 90
1, 113292, Note_on_c, 9, 49, 0
1, 113520, Note_on_c, 9, 42, 50
1, 113532, Note_on_c, 9, 42, 0
1, 113759, Note_on_c, 9, 36, 0
1, 113760, Note_on_c, 9, 38, 115
1, 113760, Note_on_c, 9, 42, 110
1, 113772, Note_on_c, 9, 42, 0
1, 113999, Note_on_c, 9, 38, 0
1, 114000, Note_on_c, 9, 42, 50
1, 114012, Note_on_c, 9, 42, 0
1, 114240, Note_on_c, 9, 42, 110
1, 114240, Note_on_c, 9, 36, 90
1, 114252, Note_on_c, 9, 42, 0
1, 114480, Note_on_c, 9, 42, 50
1, 114492, Note_on_c, 9, 42, 0
1, 114719, Note_on_c, 9, 36, 0
1, 114720, Note_on_c, 9, 38, 115
1, 114720, Note_on_c, 9, 42, 110
1, 114720, Note_on_c, 9, 42, 0
1, 114739, Note_on_c, 9, 38, 0
1, 114740, Note_on_c, 9, 39, 127
1, 114779, Note_on_c, 9, 39, 0
1, 114960, Note_on_c, 9, 42, 50
1, 114972, Note_on_c, 9, 42, 0
1, 115200, Note_on_c, 9, 42, 110
1, 115200, Note_on_c, 9, 36, 90
1, 115212, Note_on_c, 9, 42, 0
1, 115440, Note_on_c, 9, 42, 50
1, 115452, Note_on_c, 9, 42, 0
1, 115679, Note_on_c, 9, 36, 0
1, 115680, Note_on_c, 9, 38, 115
1, 115680, Note_on_c, 9, 42, 110
1, 115680, Note_on_c, 9, 36, 90
1, 115692, Note_on_c, 9, 42, 0
1, 115919, Note_on_c, 9, 38, 0
1, 115920, Note_on_c, 9, 42, 50
1, 115932, Note_on_c, 9, 42, 0
1, 116159, Note_on_c, 9, 36, 0
1, 116160, Note_on_c, 9, 42, 110
1, 116172, Note_on_c, 9, 42, 0
1, 116400, Note_on_c, 9, 42, 50
1, 116400, Note_on_c, 9, 36, 90
1, 116412, Note_on_c, 9, 42, 0
1, 116639, Note_on_c, 9, 36, 0
1, 116640, Note_on_c, 9, 38, 115
1, 116640, Note_on_c, 9, 42, 110
1, 116640, Note_on_c, 9, 42, 0
1, 116659, Note_on_c, 9, 38, 0
1, 116660, Note_on_c, 9, 39, 127
1, 116699, Note_on_c, 9, 39, 0
1, 116880, Note_on_c, 9, 42, 50
1, 116892, Note_on_c, 9, 42, 0
1, 117120, Note_on_c, 9, 42, 110
1, 117120, Note_on_c, 9, 36, 90
1, 117132, Note_on_c, 9, 42, 0
1, 117360, Note_on_c, 9, 42, 50
1, 117372, Note_on_c, 9, 42, 0
1, 117599, Note_on_c, 9, 36, 0
1, 117600, Note_on_c, 9, 38, 115
1, 117600, Note_on_c, 9, 42, 110
1, 117612, Note_on_c, 9, 42, 0
1, 117839, Note_on_c, 9, 38, 0
1, 117840, Note_on_c, 9, 42, 50
1, 117852, Note_on_c, 9, 42, 0
1, 118080, Note_on_c, 9, 42, 110
1, 118080, Note_on_c, 9, 36, 90
1, 118092, Note_on_c, 9, 42, 0
1, 118320, Note_on_c, 9, 42, 50
1, 118332, Note_on_c, 9, 42, 0
1, 118559, Note_on_c, 9, 36, 0
1, 118560, Note_on_c, 9, 38, 115
1, 118560, Note_on_c, 9, 42, 110
1, 118560, Note_on_c, 9, 42, 0
1, 118579, Note_on_c, 9, 38, 0
1, 118580, Note_on_c, 9, 39, 127
1, 118619, Note_on_c, 9, 39, 0
1, 118800, Note_on_c, 9, 42, 50
1, 118812, Note_on_c, 9, 42, 0
1, 119040, Note_on_c, 9, 42, 110
1, 119040, Note_on_c, 9, 36, 90
1, 119052, Note_on_c, 9, 42, 0
1, 119280, Note_on_c, 9, 42, 50
1, 119292, Note_on_c, 9, 42, 0
1, 119519, Note_on_c, 9, 36, 0
1, 119520, Note_on_c, 9, 38, 115
1, 119520, Note_on_c, 9, 42, 110
1, 119520, Note_on_c, 9, 36, 90
1, 119532, Note_on_c, 9, 42, 0
1, 119759, Note_on_c, 9, 38, 0
1, 119760, Note_on_c, 9, 42, 50
1, 119772, Note_on_c, 9, 42, 0
1, 119999, Note_on_c, 9, 36, 0
1, 120000, Note_on_c, 9, 42, 110
1, 120012, Note_on_c, 9, 42, 0
1, 120240, Note_on_c, 9, 42, 50
1, 120240, Note_on_c, 9, 36, 90
1, 120252, Note_on_c, 9, 42, 0
1, 120479, Note_on_c, 9, 36, 0
1, 120480, Note_on_c, 9, 38, 115
1, 120480, Note_on_c, 9, 42, 110
1, 120480, Note_on_c, 9, 42, 0
1, 120499, Note_on_c, 9, 38, 0
1, 120500, Note_on_c, 9, 39, 127
1, 120539, Note_on_c, 9, 39, 0
1, 120720, Note_on_c, 9, 42, 50
1, 120732, Note_on_c, 9, 42, 0
1, 120960, Note_on_c, 9, 42, 110
1, 120960, Note_on_c, 9, 36, 90
1, 120972, Note_on_c, 9, 42, 0
1, 121200, Note_on_c, 9, 42, 50
1, 121212, Note_on_c, 9, 42, 0
1, 121439, Note_on_c, 9, 36, 0
1, 121440, Note_on_c, 9, 38, 115
1, 121440, Note_on_c, 9, 42, 110
1, 121452, Note_on_c, 9, 42, 0
1, 121679, Note_on_c, 9, 38, 0
1, 121680, Note_on_c, 9, 42, 50
1, 121692, Note_on_c, 9, 42, 0
1, 121920, Note_on_c, 9, 42, 110
1, 121920, Note_on_c, 9, 36, 90
1, 121932, Note_on_c, 9, 42, 0
1, 122160, Note_on_c, 9, 42, 50
1, 122172, Note_on_c, 9, 42, 0
1, 122399, Note_on_c, 9, 36, 0
1, 122400, Note_on_c, 9, 38, 115
1, 122400, Note_on_c, 9, 42, 110
1, 122400, Note_on_c, 9, 42, 0
1, 122419, Note_on_c, 9, 38, 0
1, 122420, Note_on_c, 9, 39, 127
1, 122459, Note_on_c, 9, 39, 0
1, 122640, Note_on_c, 9, 42, 50
1, 122652, Note_on_c, 9, 42, 0
1, 122880, Note_on_c, 9, 42, 110
1, 122880, Note_on_c, 9, 36, 90
1, 122892, Note_on_c, 9, 42, 0
1, 123120, Note_on_c, 9, 42, 50
1, 123132, Note_on_c, 9, 42, 0
1, 123359, Note_on_c, 9, 36, 0
1, 123360, Note_on_c, 9, 38, 115
1, 123360, Note_on_c, 9, 42, 110
1, 123360, Note_on_c, 9, 36, 90
1, 123372, Note_on_c, 9, 42, 0
1, 123599, Note_on_c, 9, 38, 0
1, 123600, Note_on_c, 9, 42, 50
1, 123612, Note_on_c, 9, 42, 0
1, 123839, Note_on_c, 9, 36, 0
1, 123840, Note_on_c, 9, 42, 110
1, 123852, Note_on_c, 9, 42, 0
1, 124080, Note_on_c, 9, 42, 50
1, 124080, Note_on_c, 9, 36, 90
1, 124092, Note_on_c, 9, 42, 0
1, 124319, Note_on_c, 9, 36, 0
1, 124320, Note_on_c, 9, 38, 115
1, 124320, Note_on_c, 9, 42, 110
1, 124320, Note_on_c, 9, 42, 0
1, 124339, Note_on_c, 9, 38, 0
1, 124340, Note_on_c, 9, 39, 127
1, 124379, Note_on_c, 9, 39, 0
1, 124560, Note_on_c, 9, 42, 50
1, 124572, Note_on_c, 9, 42, 0
1, 124800, Note_on_c, 9, 42, 110
1, 124800, Note_on_c, 9, 36, 90
1, 124812, Note_on_c, 9, 42, 0
1, 125040, Note_on_c, 9, 42, 50
1, 125052, Note_on_c, 9, 42, 0
1, 125279, Note_on_c, 9, 36, 0
1, 125280, Note_on_c, 9, 38, 115
1, 125280, Note_on_c, 9, 42, 110
1, 125292, Note_on_c, 9, 42, 0
1, 125519, Note_on_c, 9, 38, 0
1, 125520, Note_on_c, 9, 42, 50
1, 125532, Note_on_c, 9, 42, 0
1, 125760, Note_on_c, 9, 42, 110
1, 125760, Note_on_c, 9, 36, 90
1, 125772, Note_on_c, 9, 42, 0
1, 126000, Note_on_c, 9, 42, 50
1, 126012, Note_on_c, 9, 42, 0
1, 126239, Note_on_c, 9, 36, 0
1, 126240, Note_on_c, 9, 38, 115
1, 126240, Note_on_c, 9, 42, 110
1, 126240, Note_on_c, 9, 42, 0
1, 126259, Note_on_c, 9, 38, 0
1, 126260, Note_on_c, 9, 39, 127
1, 126299, Note_on_c, 9, 39, 0
1, 126480, Note_on_c, 9, 42, 50
1, 126492, Note_on_c, 9, 42, 0
1, 126720, Note_on_c, 9, 42, 110
1, 126720, Note_on_c, 9, 36, 90
1, 126732, Note_on_c, 9, 42, 0
1, 126960, Note_on_c, 9, 42, 50
1, 126972, Note_on_c, 9, 42, 0
1, 127199, Note_on_c, 9, 36, 0
1, 127200, Note_on_c, 9, 38, 115
1, 127200, Note_on_c, 9, 42, 110
1, 127200, Note_on_c, 9, 36, 90
1, 127212, Note_on_c, 9, 42, 0
1, 127439, Note_on_c, 9, 38, 0
1, 127440, Note_on_c, 9, 42, 50
1, 127452, Note_on_c, 9, 42, 0
1, 127679, Note_on_c, 9, 36, 0
1, 127680, Note_on_c, 9, 42, 110
1, 127692, Note_on_c, 9, 42, 0
1, 127920, Note_on_c, 9, 42, 50
1, 127920, Note_on_c, 9, 36, 90
1, 127932, Note_on_c, 9, 42, 0
1, 128159, Note_on_c, 9, 36, 0
1, 128160, Note_on_c, 9, 38, 115
1, 128160, Note_on_c, 9, 42, 110
1, 128160, Note_on_c, 9, 42, 0
1, 128179, Note_on_c, 9, 38, 0
1, 128180, Note_on_c, 9, 39, 127
1, 128219, Note_on_c, 9, 39, 0
1, 128400, Note_on_c, 9, 46, 90
1, 128400, Note_on_c, 9, 36, 90
1, 128412, Note_on_c, 9, 46, 0
1, 128639, Note_on_c, 9, 36, 0
1, 128640, Note_on_c, 9, 57, 85
1, 128640, Note_on_c, 9, 36, 90
1, 128652, Note_on_c, 9, 57, 0
1, 128880, Note_on_c, 9, 42, 50
1, 128892, Note_on_c, 9, 42, 0
1, 129119, Note_on_c, 9, 36, 0
1, 129120, Note_on_c, 9, 38, 115
1, 129120, Note_on_c, 9, 42, 110
1, 129132, Note_on_c, 9, 42, 0
1, 129359, Note_on_c, 9, 38, 0
1, 129360, Note_on_c, 9, 42, 50
1, 129372, Note_on_c, 9, 42, 0
1, 129600, Note_on_c, 9, 42, 110
1, 129600, Note_on_c, 9, 36, 90
1, 129612, Note_on_c, 9, 42, 0
1, 129840, Note_on_c, 9, 42, 50
1, 129852, Note_on_c, 9, 42, 0
1, 130079, Note_on_c, 9, 36, 0
1, 130080, Note_on_c, 9, 38, 115
1, 130080, Note_on_c, 9, 42, 110
1, 130080, Note_on_c, 9, 42, 0
1, 130099, Note_on_c, 9, 38, 0
1, 130100, Note_on_c, 9, 39, 127
1, 130139, Note_on_c, 9, 39, 0
1, 130320, Note_on_c, 9, 42, 50
1, 130332, Note_on_c, 9, 42, 0
1, 130560, Note_on_c, 9, 42, 110
1, 130560, Note_on_c, 9, 36, 90
1, 130572, Note_on_c, 9, 42, 0
1, 130800, Note_on_c, 9, 42, 50
1, 130812, Note_on_c, 9, 42, 0
1, 131039, Note_on_c, 9, 36, 0
1, 131040, Note_on_c, 9, 38, 115
1, 131040, Note_on_c, 9, 42, 110
1, 131040, Note_on_c, 9, 36, 90
1, 131052, Note_on_c, 9, 42, 0
1, 131279, Note_on_c, 9, 38, 0
1, 131280, Note_on_c, 9, 42, 50
1, 131292, Note_on_c, 9, 42, 0
1, 131519, Note_on_c, 9, 36, 0
1, 131520, Note_on_c, 9, 42, 110
1, 131532, Note_on_c, 9, 42, 0
1, 131760, Note_on_c, 9, 42, 50
1, 131760, Note_on_c, 9, 36, 90
1, 131772, Note_on_c, 9, 42, 0
1, 131999, Note_on_c, 9, 36, 0
1, 132000, Note_on_c, 9, 38, 115
1, 132000, Note_on_c, 9, 42, 110
1, 132000, Note_on_c, 9, 42, 0
1, 132019, Note_on_c, 9, 38, 0
1, 132020, Note_on_c, 9, 39, 127
1, 132059, Note_on_c, 9, 39, 0
1, 132240, Note_on_c, 9, 42, 50
1, 132252, Note_on_c, 9, 42, 0
1, 132480, Note_on_c, 9, 42, 110
1, 132480, Note_on_c, 9, 36, 90
1, 132492, Note_on_c, 9, 42, 0
1, 132720, Note_on_c, 9, 42, 50
1, 132732, Note_on_c, 9, 42, 0
1, 132959, Note_on_c, 9, 36, 0
1, 132960, Note_on_c, 9, 38, 115
1, 132960, Note_on_c, 9, 42, 110
1, 132972, Note_on_c, 9, 42, 0
1, 133199, Note_on_c, 9, 38, 0
1, 133200, Note_on_c, 9, 42, 50
1, 133212, Note_on_c, 9, 42, 0
1, 133440, Note_on_c, 9, 42, 110
1, 133440, Note_on_c, 9, 36, 90
1, 133452, Note_on_c, 9, 42, 0
1, 133680, Note_on_c, 9, 42, 50
1, 133692, Note_on_c, 9, 42, 0
1, 133919, Note_on_c, 9, 36, 0
1, 133920, Note_on_c, 9, 38, 115
1, 133920, Note_on_c, 9, 42, 110
1, 133920, Note_on_c, 9, 42, 0
1, 133939, Note_on_c, 9, 38, 0
1, 133940, Note_on_c, 9, 39, 127
1, 133979, Note_on_c, 9, 39, 0
1, 134160, Note_on_c, 9, 42, 50
1, 134172, Note_on_c, 9, 42, 0
1, 134400, Note_on_c, 9, 42, 110
1, 134400, Note_on_c, 9, 36, 90
1, 134412, Note_on_c, 9, 42, 0
1, 134640, Note_on_c, 9, 42, 50
1, 134652, Note_on_c, 9, 42, 0
1, 134879, Note_on_c, 9, 36, 0
1, 134880, Note_on_c, 9, 38, 115
1, 134880, Note_on_c, 9, 42, 110
1, 134880, Note_on_c, 9, 36, 90
1, 134892, Note_on_c, 9, 42, 0
1, 135119, Note_on_c, 9, 38, 0
1, 135120, Note_on_c, 9, 42, 50
1, 135132, Note_on_c, 9, 42, 0
1, 135359, Note_on_c, 9, 36, 0
1, 135360, Note_on_c, 9, 42, 110
1, 135372, Note_on_c, 9, 42, 0
1, 135600, Note_on_c, 9, 42, 50
1, 135600, Note_on_c, 9, 36, 90
1, 135612, Note_on_c, 9, 42, 0
1, 135839, Note_on_c, 9, 36, 0
1, 135840, Note_on_c, 9, 38, 115
1, 135840, Note_on_c, 9, 42, 110
1, 135840, Note_on_c, 9, 42, 0
1, 135859, Note_on_c, 9, 38, 0
1, 135860, Note_on_c, 9, 39, 127
1, 135899, Note_on_c, 9, 39, 0
1, 136080, Note_on_c, 9, 42, 50
1, 136092, Note_on_c, 9, 42, 0
1, 136320, Note_on_c, 9, 42, 110
1, 136320, Note_on_c, 9, 36, 90
1, 136332, Note_on_c, 9, 42, 0
1, 136560, Note_on_c, 9, 42, 50
1, 136572, Note_on_c, 9, 42, 0
1, 136799, Note_on_c, 9, 36, 0
1, 136800, Note_on_c, 9, 38, 115
1, 136800, Note_on_c, 9, 42, 110
1, 136812, Note_on_c, 9, 42, 0
1, 137039, Note_on_c, 9, 38, 0
1, 137040, Note_on_c, 9, 42, 50
1, 137052, Note_on_c, 9, 42, 0
1, 137280, Note_on_c, 9, 42, 110
1, 137280, Note_on_c, 9, 36, 90
1, 137292, Note_on_c, 9, 42, 0
1, 137520, Note_on_c, 9, 42, 50
1, 137532, Note_on_c, 9, 42, 0
1, 137759, Note_on_c, 9, 36, 0
1, 137760, Note_on_c, 9, 38, 115
1, 137760, Note_on_c, 9, 42, 110
1, 137760, Note_on_c, 9, 42, 0
1, 137779, Note_on_c, 9, 38, 0
1, 137780, Note_on_c, 9, 39, 127
1, 137819, Note_on_c, 9, 39, 0
1, 138000, Note_on_c, 9, 42, 50
1, 138012, Note_on_c, 9, 42, 0
1, 138240, Note_on_c, 9, 42, 110
1, 138240, Note_on_c, 9, 36, 90
1, 138252, Note_on_c, 9, 42, 0
1, 138480, Note_on_c, 9, 42, 50
1, 138492, Note_on_c, 9, 42, 0
1, 138719, Note_on_c, 9, 36, 0
1, 138720, Note_on_c, 9, 38, 115
1, 138720, Note_on_c, 9, 42, 110
1, 138720, Note_on_c, 9, 36, 90
1, 138732, Note_on_c, 9, 42, 0
1, 138959, Note_on_c, 9, 38, 0
1, 138960, Note_on_c, 9, 42, 50
1, 138972, Note_on_c, 9, 42, 0
1, 139199, Note_on_c, 9, 36, 0
1, 139200, Note_on_c, 9, 42, 110
1, 139212, Note_on_c, 9, 42, 0
1, 139440, Note_on_c, 9, 42, 50
1, 139440, Note_on_c, 9, 36, 90
1, 139452, Note_on_c, 9, 42, 0
1, 139679, Note_on_c, 9, 36, 0
1, 139680, Note_on_c, 9, 38, 115
1, 139680, Note_on_c, 9, 42, 110
1, 139680, Note_on_c, 9, 42, 0
1, 139699, Note_on_c, 9, 38, 0
1, 139700, Note_on_c, 9, 39, 127
1, 139739, Note_on_c, 9, 39, 0
1, 139920, Note_on_c, 9, 42, 50
1, 139932, Note_on_c, 9, 42, 0
1, 140160, Note_on_c, 9, 42, 110
1, 140160, Note_on_c, 9, 36, 90
1, 140172, Note_on_c, 9, 42, 0
1, 140400, Note_on_c, 9, 42, 50
1, 140412, Note_on_c, 9, 42, 0
1, 140639, Note_on_c, 9, 36, 0
1, 140640, Note_on_c, 9, 38, 115
1, 140640, Note_on_c, 9, 42, 110
1, 140652, Note_on_c, 9, 42, 0
1, 140879, Note_on_c, 9, 38, 0
1, 140880, Note_on_c, 9, 42, 50
1, 140892, Note_on_c, 9, 42, 0
1, 141120, Note_on_c, 9, 42, 110
1, 141120, Note_on_c, 9, 36, 90
1, 141132, Note_on_c, 9, 42, 0
1, 141360, Note_on_c, 9, 42, 50
1, 141372, Note_on_c, 9, 42, 0
1, 141599, Note_on_c, 9, 36, 0
1, 141600, Note_on_c, 9, 38, 115
1, 141600, Note_on_c, 9, 42, 110
1, 141600, Note_on_c, 9, 42, 0
1, 141619, Note_on_c, 9, 38, 0
1, 141620, Note_on_c, 9, 39, 127
1, 141659, Note_on_c, 9, 39, 0
1, 141840, Note_on_c, 9, 42, 50
1, 141852, Note_on_c, 9, 42, 0
1, 142080, Note_on_c, 9, 42, 110
1, 142080, Note_on_c, 9, 36, 90
1, 142092, Note_on_c, 9, 42, 0
1, 142320, Note_on_c, 9, 42, 50
1, 142332, Note_on_c, 9, 42, 0
1, 142559, Note_on_c, 9, 36, 0
1, 142560, Note_on_c, 9, 38, 115
1, 142560, Note_on_c, 9, 42, 110
1, 142560, Note_on_c, 9, 36, 90
1, 142572, Note_on_c, 9, 42, 0
1, 142799, Note_on_c, 9, 38, 0
1, 142800, Note_on_c, 9, 42, 50
1, 142812, Note_on_c, 9, 42, 0
1, 143039, Note_on_c, 9, 36, 0
1, 143040, Note_on_c, 9, 42, 110
1, 143052, Note_on_c, 9, 42, 0
1, 143280, Note_on_c, 9, 42, 50
1, 143280, Note_on_c, 9, 36, 90
1, 143292, Note_on_c, 9, 42, 0
1, 143519, Note_on_c, 9, 36, 0
1, 143520, Note_on_c, 9, 38, 115
1, 143520, Note_on_c, 9, 42, 110
1, 143520, Note_on_c, 9, 42, 0
1, 143539, Note_on_c, 9, 38, 0
1, 143540, Note_on_c, 9, 39, 127
1, 143579, Note_on_c, 9, 39, 0
1, 143760, Note_on_c, 9, 42, 50
1, 143772, Note_on_c, 9, 42, 0
1, 144000, Note_on_c, 9, 42, 110
1, 144000, Note_on_c, 9, 36, 90
1, 144012, Note_on_c, 9, 42, 0
1, 144240, Note_on_c, 9, 42, 50
1, 144252, Note_on_c, 9, 42, 0
1, 144479, Note_on_c, 9, 36, 0
1, 144480, Note_on_c, 9, 38, 115
1, 144480, Note_on_c, 9, 42, 110
1, 144492, Note_on_c, 9, 42, 0
1, 144719, Note_on_c, 9, 38, 0
1, 144720, Note_on_c, 9, 42, 50
1, 144732, Note_on_c, 9, 42, 0
1, 144960, Note_on_c, 9, 42, 110
1, 144960, Note_on_c, 9, 36, 90
1, 144972, Note_on_c, 9, 42, 0
1, 145200, Note_on_c, 9, 42, 50
1, 145212, Note_on_c, 9, 42, 0
1, 145439, Note_on_c, 9, 36, 0
1, 145440, Note_on_c, 9, 38, 115
1, 145440, Note_on_c, 9, 42, 110
1, 145440, Note_on_c, 9, 42, 0
1, 145459, Note_on_c, 9, 38, 0
1, 145460, Note_on_c, 9, 39, 127
1, 145499, Note_on_c, 9, 39, 0
1, 145680, Note_on_c, 9, 42, 50
1, 145692, Note_on_c, 9, 42, 0
1, 145920, Note_on_c, 9, 42, 110
1, 145920, Note_on_c, 9, 36, 90
1, 145932, Note_on_c, 9, 42, 0
1, 146160, Note_on_c, 9, 42, 50
1, 146172, Note_on_c, 9, 42, 0
1, 146399, Note_on_c, 9, 36, 0
1, 146400, Note_on_c, 9, 38, 115
1, 146400, Note_on_c, 9, 42, 110
1, 146400, Note_on_c, 9, 36, 90
1, 146412, Note_on_c, 9, 42, 0
1, 146639, Note_on_c, 9, 38, 0
1, 146640, Note_on_c, 9, 42, 50
1, 146652, Note_on_c, 9, 42, 0
1, 146879, Note_on_c, 9, 36, 0
1, 146880, Note_on_c, 9, 42, 110
1, 146892, Note_on_c, 9, 42, 0
1, 147120, Note_on_c, 9, 42, 50
1, 147120, Note_on_c, 9, 36, 90
1, 147132, Note_on_c, 9, 42, 0
1, 147359, Note_on_c, 9, 36, 0
1, 147360, Note_on_c, 9, 38, 115
1, 147360, Note_on_c, 9, 42, 110
1, 147360, Note_on_c, 9, 42, 0
1, 147379, Note_on_c, 9, 38, 0
1, 147380, Note_on_c, 9, 39, 127
1, 147419, Note_on_c, 9, 39, 0
1, 147600, Note_on_c, 9, 42, 50
1, 147612, Note_on_c, 9, 42, 0
1, 147840, Note_on_c, 9, 42, 110
1, 147840, Note_on_c, 9, 36, 90
1, 147852, Note_on_c, 9, 42, 0
1, 148080, Note_on_c, 9, 42, 50
1, 148092, Note_on_c, 9, 42, 0
1, 148319, Note_on_c, 9, 36, 0
1, 148320, Note_on_c, 9, 38, 115
1, 148320, Note_on_c, 9, 42, 110
1, 148332, Note_on_c, 9, 42, 0
1, 148559, Note_on_c, 9, 38, 0
1, 148560, Note_on_c, 9, 42, 50
1, 148572, Note_on_c, 9, 42, 0
1, 148800, Note_on_c, 9, 42, 110
1, 148800, Note_on_c, 9, 36, 90
1, 148812, Note_on_c, 9, 42, 0
1, 149040, Note_on_c, 9, 42, 50
1, 149052, Note_on_c, 9, 42, 0
1, 149279, Note_on_c, 9, 36, 0
1, 149280, Note_on_c, 9, 38, 115
1, 149280, Note_on_c, 9, 42, 110
1, 149280, Note_on_c, 9, 42, 0
1, 149299, Note_on_c, 9, 38, 0
1, 149300, Note_on_c, 9, 39, 127
1, 149339, Note_on_c, 9, 39, 0
1, 149520, Note_on_c, 9, 42, 50
1, 149532, Note_on_c, 9, 42, 0
1, 149760, Note_on_c, 9, 42, 110
1, 149760, Note_on_c, 9, 36, 90
1, 149772, Note_on_c, 9, 42, 0
1, 150000, Note_on_c, 9, 42, 50
1, 150012, Note_on_c, 9, 42, 0
1, 150239, Note_on_c, 9, 36, 0
1, 150240, Note_on_c, 9, 38, 115
1, 150240, Note_on_c, 9, 42, 110
1, 150240, Note_on_c, 9, 36, 90
1, 150252, Note_on_c, 9, 42, 0
1, 150479, Note_on_c, 9, 38, 0
1, 150480, Note_on_c, 9, 42, 50
1, 150492, Note_on_c, 9, 42, 0
1, 150719, Note_on_c, 9, 36, 0
1, 150720, Note_on_c, 9, 42, 110
1, 150732, Note_on_c, 9, 42, 0
1, 150960, Note_on_c, 9, 42, 50
1, 150960, Note_on_c, 9, 36, 90
1, 150972, Note_on_c, 9, 42, 0
1, 151199, Note_on_c, 9, 36, 0
1, 151200, Note_on_c, 9, 38, 115
1, 151200, Note_on_c, 9, 42, 110
1, 151200, Note_on_c, 9, 42, 0
1, 151219, Note_on_c, 9, 38, 0
1, 151220, Note_on_c, 9, 39, 127
1, 151259, Note_on_c, 9, 39, 0
1, 151440, Note_on_c, 9, 42, 50
1, 151452, Note_on_c, 9, 42, 0
1, 151680, Note_on_c, 9, 42, 110
1, 151680, Note_on_c, 9, 36, 90
1, 151692, Note_on_c, 9, 42, 0
1, 151920, Note_on_c, 9, 42, 50
1, 151932, Note_on_c, 9, 42, 0
1, 152159, Note_on_c, 9, 36, 0
1, 152160, Note_on_c, 9, 38, 115
1, 152160, Note_on_c, 9, 42, 110
1, 152172, Note_on_c, 9, 42, 0
1, 152399, Note_on_c, 9, 38, 0
1, 152400, Note_on_c, 9, 42, 50
1, 152412, Note_on_c, 9, 42, 0
1, 152640, Note_on_c, 9, 42, 110
1, 152640, Note_on_c, 9, 36, 90
1, 152652, Note_on_c, 9, 42, 0
1, 152880, Note_on_c, 9, 42, 50
1, 152892, Note_on_c, 9, 42, 0
1, 153119, Note_on_c, 9, 36, 0
1, 153120, Note_on_c, 9, 38, 115
1, 153120, Note_on_c, 9, 42, 110
1, 153120, Note_on_c, 9, 42, 0
1, 153139, Note_on_c, 9, 38, 0
1, 153140, Note_on_c, 9, 39, 127
1, 153179, Note_on_c, 9, 39, 0
1, 153360, Note_on_c, 9, 42, 50
1, 153372, Note_on_c, 9, 42, 0
1, 153600, Note_on_c, 9, 42, 110
1, 153600, Note_on_c, 9, 36, 90
1, 153612, Note_on_c, 9, 42, 0
1, 153840, Note_on_c, 9, 42, 50
1, 153852, Note_on_c, 9, 42, 0
1, 154079, Note_on_c, 9, 36, 0
1, 154080, Note_on_c, 9, 38, 115
1, 154080, Note_on_c, 9, 42, 110
1, 154080, Note_on_c, 9, 36, 90
1, 154092, Note_on_c, 9, 42, 0
1, 154319, Note_on_c, 9, 38, 0
1, 154320, Note_on_c, 9, 42, 50
1, 154332, Note_on_c, 9, 42, 0
1, 154559, Note_on_c, 9, 36, 0
1, 154560, Note_on_c, 9, 42, 110
1, 154572, Note_on_c, 9, 42, 0
1, 154800, Note_on_c, 9, 42, 50
1, 154800, Note_on_c, 9, 36, 90
1, 154812, Note_on_c, 9, 42, 0
1, 155039, Note_on_c, 9, 36, 0
1, 155040, Note_on_c, 9, 38, 115
1, 155040, Note_on_c, 9, 42, 110
1, 155040, Note_on_c, 9, 42, 0
1, 155059, Note_on_c, 9, 38, 0
1, 155060, Note_on_c, 9, 39, 127
1, 155099, Note_on_c, 9, 39, 0
1, 155280, Note_on_c, 9, 42, 50
1, 155292, Note_on_c, 9, 42, 0
1, 155520, Note_on_c, 9, 42, 110
1, 155520, Note_on_c, 9, 36, 90
1, 155532, Note_on_c, 9, 42, 0
1, 155760, Note_on_c, 9, 42, 50
1, 155772, Note_on_c, 9, 42, 0
1, 155999, Note_on_c, 9, 36, 0
1, 156000, Note_on_c, 9, 38, 115
1, 156000, Note_on_c, 9, 42, 110
1, 156012, Note_on_c, 9, 42, 0
1, 156239, Note_on_c, 9, 38, 0
1, 156240, Note_on_c, 9, 42, 50
1, 156252, Note_on_c, 9, 42, 0
1, 156480, Note_on_c, 9, 42, 110
1, 156480, Note_on_c, 9, 36, 90
1, 156492, Note_on_c, 9, 42, 0
1, 156720, Note_on_c, 9, 42, 50
1, 156732, Note_on_c, 9, 42, 0
1, 156959, Note_on_c, 9, 36, 0
1, 156960, Note_on_c, 9, 38, 115
1, 156960, Note_on_c, 9, 42, 110
1, 156960, Note_on_c, 9, 42, 0
1, 156979, Note_on_c, 9, 38, 0
1, 156980, Note_on_c, 9, 39, 127
1, 157019, Note_on_c, 9, 39, 0
1, 157200, Note_on_c, 9, 42, 50
1, 157212, Note_on_c, 9, 42, 0
1, 157440, Note_on_c, 9, 42, 110
1, 157440, Note_on_c, 9, 36, 90
1, 157452, Note_on_c, 9, 42, 0
1, 157680, Note_on_c, 9, 42, 50
1, 157692, Note_on_c, 9, 42, 0
1, 157919, Note_on_c, 9, 36, 0
1, 157920, Note_on_c, 9, 38, 115
1, 157920, Note_on_c, 9, 42, 110
1, 157920, Note_on_c, 9, 36, 90
1, 157932, Note_on_c, 9, 42, 0
1, 158159, Note_on_c, 9, 38, 0
1, 158160, Note_on_c, 9, 42, 50
1, 158172, Note_on_c, 9, 42, 0
1, 158399, Note_on_c, 9, 36, 0
1, 158400, Note_on_c, 9, 42, 110
1, 158412, Note_on_c, 9, 42, 0
1, 158640, Note_on_c, 9, 42, 50
1, 158640, Note_on_c, 9, 36, 90
1, 158652, Note_on_c, 9, 42, 0
1, 158879, Note_on_c, 9, 36, 0
1, 158880, Note_on_c, 9, 38, 115
1, 158880, Note_on_c, 9, 42, 110
1, 158880, Note_on_c, 9, 42, 0
1, 158899, Note_on_c, 9, 38, 0
1, 158900, Note_on_c, 9, 39, 127
1, 158939, Note_on_c, 9, 39, 0
1, 159120, Note_on_c, 9, 42, 50
1, 159132, Note_on_c, 9, 42, 0
1, 159360, Note_on_c, 9, 57, 90
1, 159360, Note_on_c, 9, 36, 90
1, 159372, Note_on_c, 9, 57, 0
1, 159600, Note_on_c, 9, 42, 50
1, 159612, Note_on_c, 9, 42, 0
1, 159839, Note_on_c, 9, 36, 0
1, 159840, Note_on_c, 9, 38, 115
1, 159840, Note_on_c, 9, 42, 110
1, 159852, Note_on_c, 9, 42, 0
1, 160079, Note_on_c, 9, 38, 0
1, 160080, Note_on_c, 9, 42, 50
1, 160092, Note_on_c, 9, 42, 0
1, 160320, Note_on_c, 9, 42, 110
1, 160320, Note_on_c, 9, 36, 90
1, 160332, Note_on_c, 9, 42, 0
1, 160560, Note_on_c, 9, 42, 50
1, 160572, Note_on_c, 9, 42, 0
1, 160799, Note_on_c, 9, 36, 0
1, 160800, Note_on_c, 9, 38, 115
1, 160800, Note_on_c, 9, 42, 110
1, 160800, Note_on_c, 9, 42, 0
1, 160819, Note_on_c, 9, 38, 0
1, 160820, Note_on_c, 9, 39, 127
1, 160859, Note_on_c, 9, 39, 0
1, 161040, Note_on_c, 9, 42, 50
1, 161052, Note_on_c, 9, 42, 0
1, 161280, Note_on_c, 9, 42, 110
1, 161280, Note_on_c, 9, 36, 90
1, 161292, Note_on_c, 9, 42, 0
1, 161520, Note_on_c, 9, 42, 50
1, 161532, Note_on_c, 9, 42, 0
1, 161759, Note_on_c, 9, 36, 0
1, 161760, Note_on_c, 9, 38, 115
1, 161760, Note_on_c, 9, 42, 110
1, 161760, Note_on_c, 9, 36, 90
1, 161772, Note_on_c, 9, 42, 0
1, 161999, Note_on_c, 9, 38, 0
1, 162000, Note_on_c, 9, 42, 50
1, 162012, Note_on_c, 9, 42, 0
1, 162239, Note_on_c, 9, 36, 0
1, 162240, Note_on_c, 9, 42, 110
1, 162252, Note_on_c, 9, 42, 0
1, 162480, Note_on_c, 9, 42, 50
1, 162480, Note_on_c, 9, 36, 90
1, 162492, Note_on_c, 9, 42, 0
1, 162719, Note_on_c, 9, 36, 0
1, 162720, Note_on_c, 9, 38, 115
1, 162720, Note_on_c, 9, 42, 110
1, 162720, Note_on_c, 9, 42, 0
1, 162739, Note_on_c, 9, 38, 0
1, 162740, Note_on_c, 9, 39, 127
1, 162779, Note_on_c, 9, 39, 0
1, 162960, Note_on_c, 9, 42, 50
1, 162972, Note_on_c, 9, 42, 0
1, 163200, Note_on_c, 9, 42, 110
1, 163200, Note_on_c, 9, 36, 90
1, 163212, Note_on_c, 9, 42, 0
1, 163440, Note_on_c, 9, 42, 50
1, 163452, Note_on_c, 9, 42, 0
1, 163679, Note_on_c, 9, 36, 0
1, 163680, Note_on_c, 9, 38, 115
1, 163680, Note_on_c, 9, 42, 110
1, 163692, Note_on_c, 9, 42, 0
1, 163919, Note_on_c, 9, 38, 0
1, 163920, Note_on_c, 9, 42, 50
1, 163932, Note_on_c, 9, 42, 0
1, 164160, Note_on_c, 9, 42, 110
1, 164160, Note_on_c, 9, 36, 90
1, 164172, Note_on_c, 9, 42, 0
1, 164400, Note_on_c, 9, 42, 50
1, 164412, Note_on_c, 9, 42, 0
1, 164639, Note_on_c, 9, 36, 0
1, 164640, Note_on_c, 9, 38, 115
1, 164640, Note_on_c, 9, 42, 110
1, 164640, Note_on_c, 9, 42, 0
1, 164659, Note_on_c, 9, 38, 0
1, 164660, Note_on_c, 9, 39, 127
1, 164699, Note_on_c, 9, 39, 0
1, 164880, Note_on_c, 9, 42, 50
1, 164892, Note_on_c, 9, 42, 0
1, 165120, Note_on_c, 9, 42, 110
1, 165120, Note_on_c, 9, 36, 90
1, 165132, Note_on_c, 9, 42, 0
1, 165360, Note_on_c, 9, 42, 50
1, 165372, Note_on_c, 9, 42, 0
1, 165599, Note_on_c, 9, 36, 0
1, 165600, Note_on_c, 9, 38, 115
1, 165600, Note_on_c, 9, 42, 110
1, 165600, Note_on_c, 9, 36, 90
1, 165612, Note_on_c, 9, 42, 0
1, 165839, Note_on_c, 9, 38, 0
1, 165840, Note_on_c, 9, 42, 50
1, 165852, Note_on_c, 9, 42, 0
1, 166079, Note_on_c, 9, 36, 0
1, 166080, Note_on_c, 9, 42, 110
1, 166092, Note_on_c, 9, 42, 0
1, 166320, Note_on_c, 9, 42, 50
1, 166320, Note_on_c, 9, 36, 90
1, 166332, Note_on_c, 9, 42, 0
1, 166559, Note_on_c, 9, 36, 0
1, 166560, Note_on_c, 9, 38, 115
1, 166560, Note_on_c, 9, 42, 110
1, 166560, Note_on_c, 9, 42, 0
1, 166579, Note_on_c, 9, 38, 0
1, 166580, Note_on_c, 9, 39, 127
1, 166619, Note_on_c, 9, 39, 0
1, 166800, Note_on_c, 9, 42, 50
1, 166812, Note_on_c, 9, 42, 0
1, 167040, Note_on_c, 9, 42, 110
1, 167040, Note_on_c, 9, 36, 90
1, 167052, Note_on_c, 9, 42, 0
1, 167280, Note_on_c, 9, 69, 64
1, 167280, Note_on_c, 9, 42, 50
1, 167292, Note_on_c, 9, 42, 0
1, 167519, Note_on_c, 9, 36, 0
1, 167519, Note_on_c, 9, 69, 0
1, 167520, Note_on_c, 9, 38, 115
1, 167520, Note_on_c, 9, 69, 80
1, 167520, Note_on_c, 9, 42, 110
1, 167532, Note_on_c, 9, 42, 0
1, 167759, Note_on_c, 9, 38, 0
1, 167759, Note_on_c, 9, 69, 0
1, 167760, Note_on_c, 9, 42, 50
1, 167772, Note_on_c, 9, 42, 0
1, 168000, Note_on_c, 9, 69, 80
1, 168000, Note_on_c, 9, 42, 110
1, 168000, Note_on_c, 9, 36, 90
1, 168012, Note_on_c, 9, 42, 0
1, 168239, Note_on_c, 9, 69, 0
1, 168240, Note_on_c, 9, 69, 71
1, 168240, Note_on_c, 9, 42, 50
1, 168252, Note_on_c, 9, 42, 0
1, 168479, Note_on_c, 9, 36, 0
1, 168479, Note_on_c, 9, 69, 0
1, 168480, Note_on_c, 9, 38, 115
1, 168480, Note_on_c, 9, 42, 110
1, 168480, Note_on_c, 9, 42, 0
1, 168499, Note_on_c, 9, 38, 0
1, 168500, Note_on_c, 9, 39, 127
1, 168539, Note_on_c, 9, 39, 0
1, 168720, Note_on_c, 9, 69, 73
1, 168720, Note_on_c, 9, 42, 50
1, 168732, Note_on_c, 9, 42, 0
1, 168959, Note_on_c, 9, 69, 0
1, 168960, Note_on_c, 9, 69, 78
1, 168960, Note_on_c, 9, 42, 110
1, 168960, Note_on_c, 9, 36, 90
1, 168972, Note_on_c, 9, 42, 0
1, 169199, Note_on_c, 9, 69, 0
1, 169200, Note_on_c, 9, 42, 50
1, 169212, Note_on_c, 9, 42, 0
1, 169439, Note_on_c, 9, 36, 0
1, 169440, Note_on_c, 9, 38, 115
1, 169440, Note_on_c, 9, 69, 78
1, 169440, Note_on_c, 9, 42, 110
1, 169440, Note_on_c, 9, 36, 90
1, 169452, Note_on_c, 9, 42, 0
1, 169679, Note_on_c, 9, 38, 0
1, 169679, Note_on_c, 9, 69, 0
1, 169680, Note_on_c, 9, 69, 75
1, 169680, Note_on_c, 9, 42, 50
1, 169692, Note_on_c, 9, 42, 0
1, 169919, Note_on_c, 9, 36, 0
1, 169919, Note_on_c, 9, 69, 0
1, 169920, Note_on_c, 9, 42, 110
1, 169932, Note_on_c, 9, 42, 0
1, 170160, Note_on_c, 9, 42, 50
1, 170160, Note_on_c, 9, 36, 90
1, 170172, Note_on_c, 9, 42, 0
1, 170399, Note_on_c, 9, 36, 0
1, 170400, Note_on_c, 9, 38, 115
1, 170400, Note_on_c, 9, 42, 110
1, 170400, Note_on_c, 9, 42, 0
1, 170419, Note_on_c, 9, 38, 0
1, 170420, Note_on_c, 9, 39, 127
1, 170459, Note_on_c, 9, 39, 0
1, 170640, Note_on_c, 9, 42, 50
1, 170652, Note_on_c, 9, 42, 0
1, 170880, Note_on_c, 9, 42, 110
1, 170880, Note_on_c, 9, 36, 90
1, 170892, Note_on_c, 9, 42, 0
1, 171120, Note_on_c, 9, 69, 63
1, 171120, Note_on_c, 9, 42, 50
1, 171132, Note_on_c, 9, 42, 0
1, 171359, Note_on_c, 9, 36, 0
1, 171359, Note_on_c, 9, 69, 0
1, 171360, Note_on_c, 9, 38, 115
1, 171360, Note_on_c, 9, 69, 77
1, 171360, Note_on_c, 9, 42, 110
1, 171372, Note_on_c, 9, 42, 0
1, 171599, Note_on_c, 9, 38, 0
1, 171599, Note_on_c, 9, 69, 0
1, 171600, Note_on_c, 9, 42, 50
1, 171612, Note_on_c, 9, 42, 0
1, 171840, Note_on_c, 9, 69, 78
1, 171840, Note_on_c, 9, 42, 110
1, 171840, Note_on_c, 9, 36, 90
1, 171852, Note_on_c, 9, 42, 0
1, 172079, Note_on_c, 9, 69, 0
1, 172080, Note_on_c, 9, 69, 81
1, 172080, Note_on_c, 9, 42, 50
1, 172092, Note_on_c, 9, 42, 0
1, 172319, Note_on_c, 9, 36, 0
1, 172319, Note_on_c, 9, 69, 0
1, 172320, Note_on_c, 9, 38, 115
1, 172320, Note_on_c, 9, 42, 110
1, 172320, Note_on_c, 9, 42, 0
1, 172339, Note_on_c, 9, 38, 0
1, 172340, Note_on_c, 9, 39, 127
1, 172379, Note_on_c, 9, 39, 0
1, 172560, Note_on_c, 9, 69, 80
1, 172560, Note_on_c, 9, 42, 50
1, 172572, Note_on_c, 9, 42, 0
1, 172799, Note_on_c, 9, 69, 0
1, 172800, Note_on_c, 9, 69, 82
1, 172800, Note_on_c, 9, 42, 110
1, 172800, Note_on_c, 9, 36, 90
1, 172812, Note_on_c, 9, 42, 0
1, 173039, Note_on_c, 9, 69, 0
1, 173040, Note_on_c, 9, 42, 50
1, 173052, Note_on_c, 9, 42, 0
1, 173279, Note_on_c, 9, 36, 0
1, 173280, Note_on_c, 9, 38, 115
1, 173280, Note_on_c, 9, 69, 71
1, 173280, Note_on_c, 9, 42, 110
1, 173280, Note_on_c, 9, 36, 90
1, 173292, Note_on_c, 9, 42, 0
1, 173519, Note_on_c, 9, 38, 0
1, 173519, Note_on_c, 9, 69, 0
1, 173520, Note_on_c, 9, 69, 74
1, 173520, Note_on_c, 9, 42, 50
1, 173532, Note_on_c, 9, 42, 0
1, 173759, Note_on_c, 9, 36, 0
1, 173759, Note_on_c, 9, 69, 0
1, 173760, Note_on_c, 9, 42, 110
1, 173772, Note_on_c, 9, 42, 0
1, 174000, Note_on_c, 9, 42, 50
1, 174000, Note_on_c, 9, 36, 90
1, 174012, Note_on_c, 9, 42, 0
1, 174239, Note_on_c, 9, 36, 0
1, 174240, Note_on_c, 9, 38, 115
1, 174240, Note_on_c, 9, 42, 110
1, 174240, Note_on_c, 9, 42, 0
1, 174259, Note_on_c, 9, 38, 0
1, 174260, Note_on_c, 9, 39, 127
1, 174299, Note_on_c, 9, 39, 0
1, 174480, Note_on_c, 9, 42, 50
1, 174492, Note_on_c, 9, 42, 0
1, 174720, Note_on_c, 9, 42, 110
1, 174720, Note_on_c, 9, 36, 90
1, 174732, Note_on_c, 9, 42, 0
1, 174960, Note_on_c, 9, 42, 50
1, 174972, Note_on_c, 9, 42, 0
1, 175199, Note_on_c, 9, 36, 0
1, 175200, Note_on_c, 9, 38, 115
1, 175200, Note_on_c, 9, 42, 110
1, 175212, Note_on_c, 9, 42, 0
1, 175439, Note_on_c, 9, 38, 0
1, 175440, Note_on_c, 9, 42, 50
1, 175452, Note_on_c, 9, 42, 0
1, 175680, Note_on_c, 9, 42, 110
1, 175680, Note_on_c, 9, 36, 90
1, 175692, Note_on_c, 9, 42, 0
1, 175920, Note_on_c, 9, 42, 50
1, 175932, Note_on_c, 9, 42, 0
1, 176159, Note_on_c, 9, 36, 0
1, 176160, Note_on_c, 9, 38, 115
1, 176160, Note_on_c, 9, 42, 110
1, 176160, Note_on_c, 9, 42, 0
1, 176179, Note_on_c, 9, 38, 0
1, 176180, Note_on_c, 9, 39, 127
1, 176219, Note_on_c, 9, 39, 0
1, 176400, Note_on_c, 9, 42, 50
1, 176412, Note_on_c, 9, 42, 0
1, 176640, Note_on_c, 9, 42, 110
1, 176640, Note_on_c, 9, 36, 90
1, 176652, Note_on_c, 9, 42, 0
1, 176880, Note_on_c, 9, 42, 50
1, 176892, Note_on_c, 9, 42, 0
1, 177119, Note_on_c, 9, 36, 0
1, 177120, Note_on_c, 9, 38, 115
1, 177120, Note_on_c, 9, 42, 110
1, 177120, Note_on_c, 9, 36, 90
1, 177132, Note_on_c, 9, 42, 0
1, 177359, Note_on_c, 9, 38, 0
1, 177360, Note_on_c, 9, 42, 50
1, 177372, Note_on_c, 9, 42, 0
1, 177599, Note_on_c, 9, 36, 0
1, 177600, Note_on_c, 9, 42, 110
1, 177612, Note_on_c, 9, 42, 0
1, 177840, Note_on_c, 9, 42, 50
1, 177840, Note_on_c, 9, 36, 90
1, 177852, Note_on_c, 9, 42, 0
1, 178079, Note_on_c, 9, 36, 0
1, 178080, Note_on_c, 9, 38, 115
1, 178080, Note_on_c, 9, 42, 110
1, 178080, Note_on_c, 9, 42, 0
1, 178099, Note_on_c, 9, 38, 0
1, 178100, Note_on_c, 9, 39, 127
1, 178139, Note_on_c, 9, 39, 0
1, 178320, Note_on_c, 9, 42, 50
1, 178332, Note_on_c, 9, 42, 0
1, 178560, Note_on_c, 9, 42, 110
1, 178560, Note_on_c, 9, 36, 90
1, 178572, Note_on_c, 9, 42, 0
1, 178800, Note_on_c, 9, 42, 50
1, 178812, Note_on_c, 9, 42, 0
1, 179039, Note_on_c, 9, 36, 0
1, 179040, Note_on_c, 9, 38, 115
1, 179040, Note_on_c, 9, 42, 110
1, 179052, Note_on_c, 9, 42, 0
1, 179279, Note_on_c, 9, 38, 0
1, 179280, Note_on_c, 9, 42, 50
1, 179292, Note_on_c, 9, 42, 0
1, 179520, Note_on_c, 9, 42, 110
1, 179520, Note_on_c, 9, 36, 90
1, 179532, Note_on_c, 9, 42, 0
1, 179760, Note_on_c, 9, 42, 50
1, 179772, Note_on_c, 9, 42, 0
1, 179999, Note_on_c, 9, 36, 0
1, 180000, Note_on_c, 9, 38, 115
1, 180000, Note_on_c, 9, 42, 110
1, 180000, Note_on_c, 9, 42, 0
1, 180019, Note_on_c, 9, 38, 0
1, 180020, Note_on_c, 9, 39, 127
1, 180059, Note_on_c, 9, 39, 0
1, 180240, Note_on_c, 9, 42, 50
1, 180252, Note_on_c, 9, 42, 0
1, 180480, Note_on_c, 9, 42, 110
1, 180480, Note_on_c, 9, 36, 90
1, 180492, Note_on_c, 9, 42, 0
1, 180720, Note_on_c, 9, 42, 50
1, 180732, Note_on_c, 9, 42, 0
1, 180959, Note_on_c, 9, 36, 0
1, 180960, Note_on_c, 9, 38, 115
1, 180960, Note_on_c, 9, 42, 110
1, 180960, Note_on_c, 9, 36, 90
1, 180972, Note_on_c, 9, 42, 0
1, 181199, Note_on_c, 9, 38, 0
1, 181200, Note_on_c, 9, 42, 50
1, 181212, Note_on_c, 9, 42, 0
1, 181439, Note_on_c, 9, 36, 0
1, 181440, Note_on_c, 9, 42, 110
1, 181452, Note_on_c, 9, 42, 0
1, 181680, Note_on_c, 9, 42, 50
1, 181680, Note_on_c, 9, 36, 90
1, 181692, Note_on_c, 9, 42, 0
1, 181919, Note_on_c, 9, 36, 0
1, 181920, Note_on_c, 9, 38, 115
1, 181920, Note_on_c, 9, 42, 110
1, 181920, Note_on_c, 9, 42, 0
1, 181939, Note_on_c, 9, 38, 0
1, 181940, Note_on_c, 9, 39, 127
1, 181979, Note_on_c, 9, 39, 0
1, 182160, Note_on_c, 9, 42, 50
1, 182172, Note_on_c, 9, 42, 0
1, 182400, Note_on_c, 9, 42, 110
1, 182400, Note_on_c, 9, 36, 90
1, 182412, Note_on_c, 9, 42, 0
1, 182640, Note_on_c, 9, 69, 65
1, 182640, Note_on_c, 9, 42, 50
1, 182652, Note_on_c, 9, 42, 0
1, 182879, Note_on_c, 9, 36, 0
1, 182879, Note_on_c, 9, 69, 0
1, 182880, Note_on_c, 9, 38, 115
1, 182880, Note_on_c, 9, 69, 70
1, 182880, Note_on_c, 9, 42, 110
1, 182892, Note_on_c, 9, 42, 0
1, 183119, Note_on_c, 9, 38, 0
1, 183119, Note_on_c, 9, 69, 0
1, 183120, Note_on_c, 9, 42, 50
1, 183132, Note_on_c, 9, 42, 0
1, 183360, Note_on_c, 9, 69, 71
1, 183360, Note_on_c, 9, 42, 110
1, 183360, Note_on_c, 9, 36, 90
1, 183372, Note_on_c, 9, 42, 0
1, 183599, Note_on_c, 9, 69, 0
1, 183600, Note_on_c, 9, 69, 64
1, 183600, Note_on_c, 9, 42, 50
1, 183612, Note_on_c, 9, 42, 0
1, 183839, Note_on_c, 9, 36, 0
1, 183839, Note_on_c, 9, 69, 0
1, 183840, Note_on_c, 9, 38, 115
1, 183840, Note_on_c, 9, 42, 110
1, 183840, Note_on_c, 9, 42, 0
1, 183859, Note_on_c, 9, 38, 0
1, 183860, Note_on_c, 9, 39, 127
1, 183899, Note_on_c, 9, 39, 0
1, 184080, Note_on_c, 9, 69, 75
1, 184080, Note_on_c, 9, 42, 50
1, 184092, Note_on_c, 9, 42, 0
1, 184319, Note_on_c, 9, 69, 0
1, 184320, Note_on_c, 9, 69, 75
1, 184320, Note_on_c, 9, 42, 110
1, 184320, Note_on_c, 9, 36, 90
1, 184332, Note_on_c, 9, 42, 0
1, 184559, Note_on_c, 9, 69, 0
1, 184560, Note_on_c, 9, 42, 50
1, 184572, Note_on_c, 9, 42, 0
1, 184799, Note_on_c, 9, 36, 0
1, 184800, Note_on_c, 9, 38, 115
1, 184800, Note_on_c, 9, 69, 77
1, 184800, Note_on_c, 9, 42, 110
1, 184800, Note_on_c, 9, 36, 90
1, 184812, Note_on_c, 9, 42, 0
1, 185039, Note_on_c, 9, 38, 0
1, 185039, Note_on_c, 9, 69, 0
1, 185040, Note_on_c, 9, 69, 78
1, 185040, Note_on_c, 9, 42, 50
1, 185052, Note_on_c, 9, 42, 0
1, 185279, Note_on_c, 9, 36, 0
1, 185279, Note_on_c, 9, 69, 0
1, 185280, Note_on_c, 9, 42, 110
1, 185292, Note_on_c, 9, 42, 0
1, 185520, Note_on_c, 9, 42, 50
1, 185520, Note_on_c, 9, 36, 90
1, 185532, Note_on_c, 9, 42, 0
1, 185759, Note_on_c, 9, 36, 0
1, 185760, Note_on_c, 9, 38, 115
1, 185760, Note_on_c, 9, 42, 110
1, 185760, Note_on_c, 9, 42, 0
1, 185779, Note_on_c, 9, 38, 0
1, 185780, Note_on_c, 9, 39, 127
1, 185819, Note_on_c, 9, 39, 0
1, 186000, Note_on_c, 9, 42, 50
1, 186012, Note_on_c, 9, 42, 0
1, 186240, Note_on_c, 9, 42, 110
1, 186240, Note_on_c, 9, 36, 90
1, 186252, Note_on_c, 9, 42, 0
1, 186480, Note_on_c, 9, 69, 68
1, 186480, Note_on_c, 9, 42, 50
1, 186492, Note_on_c, 9, 42, 0
1, 186719, Note_on_c, 9, 36, 0
1, 186719, Note_on_c, 9, 69, 0
1, 186720, Note_on_c, 9, 38, 115
1, 186720, Note_on_c, 9, 69, 82
1, 186720, Note_on_c, 9, 42, 110
1, 186732, Note_on_c, 9, 42, 0
1, 186959, Note_on_c, 9, 38, 0
1, 186959, Note_on_c, 9, 69, 0
1, 186960, Note_on_c, 9, 42, 50
1, 186972, Note_on_c, 9, 42, 0
1, 187200, Note_on_c, 9, 69, 73
1, 187200, Note_on_c, 9, 42, 110
1, 187200, Note_on_c, 9, 36, 90
1, 187212, Note_on_c, 9, 42, 0
1, 187439, Note_on_c, 9, 69, 0
1, 187440, Note_on_c, 9, 69, 75
1, 187440, Note_on_c, 9, 42, 50
1, 187452, Note_on_c, 9, 42, 0
1, 187679, Note_on_c, 9, 36, 0
1, 187679, Note_on_c, 9, 69, 0
1, 187680, Note_on_c, 9, 38, 115
1, 187680, Note_on_c, 9, 42, 110
1, 187680, Note_on_c, 9, 42, 0
1, 187699, Note_on_c, 9, 38, 0
1, 187700, Note_on_c, 9, 39, 127
1, 187739, Note_on_c, 9, 39, 0
1, 187920, Note_on_c, 9, 69, 83
1, 187920, Note_on_c, 9, 42, 50
1, 187932, Note_on_c, 9, 42, 0
1, 188159, Note_on_c, 9, 69, 0
1, 188160, Note_on_c, 9, 69, 80
1, 188160, Note_on_c, 9, 42, 110
1, 188160, Note_on_c, 9, 36, 90
1, 188172, Note_on_c, 9, 42, 0
1, 188399, Note_on_c, 9, 69, 0
1, 188400, Note_on_c, 9, 42, 50
1, 188412, Note_on_c, 9, 42, 0
1, 188639, Note_on_c, 9, 36, 0
1, 188640, Note_on_c, 9, 38, 115
1, 188640, Note_on_c, 9, 69, 81
1, 188640, Note_on_c, 9, 42, 110
1, 188640, Note_on_c, 9, 36, 90
1, 188652, Note_on_c, 9, 42, 0
1, 188879, Note_on_c, 9, 38, 0
1, 188879, Note_on_c, 9, 69, 0
1, 188880, Note_on_c, 9, 69, 77
1, 188880, Note_on_c, 9, 42, 50
1, 188892, Note_on_c, 9, 42, 0
1, 189119, Note_on_c, 9, 36, 0
1, 189119, Note_on_c, 9, 69, 0
1, 189120, Note_on_c, 9, 42, 110
1, 189132, Note_on_c, 9, 42, 0
1, 189360, Note_on_c, 9, 42, 50
1, 189360, Note_on_c, 9, 36, 90
1, 189372, Note_on_c, 9, 42, 0
1, 189599, Note_on_c, 9, 36, 0
1, 189600, Note_on_c, 9, 38, 115
1, 189600, Note_on_c, 9, 42, 110
1, 189600, Note_on_c, 9, 42, 0
1, 189619, Note_on_c, 9, 38, 0
1, 189620, Note_on_c, 9, 39, 127
1, 189659, Note_on_c, 9, 39, 0
1, 189840, Note_on_c, 9, 52, 80
1, 189840, Note_on_c, 9, 36, 90
1, 189852, Note_on_c, 9, 52, 0
1, 190079, Note_on_c, 9, 36, 0
1, 190080, Note_on_c, 9, 42, 80
1, 190080, Note_on_c, 9, 52, 1
1, 190080, Note_on_c, 9, 36, 90
1, 190092, Note_on_c, 9, 42, 0
1, 190092, Note_on_c, 9, 52, 0
1, 190320, Note_on_c, 9, 42, 50
1, 190332, Note_on_c, 9, 42, 0
1, 190559, Note_on_c, 9, 36, 0
1, 190560, Note_on_c, 9, 38, 115
1, 190560, Note_on_c, 9, 42, 110
1, 190572, Note_on_c, 9, 42, 0
1, 190799, Note_on_c, 9, 38, 0
1, 190800, Note_on_c, 9, 42, 50
1, 190812, Note_on_c, 9, 42, 0
1, 191040, Note_on_c, 9, 42, 110
1, 191040, Note_on_c, 9, 36, 90
1, 191052, Note_on_c, 9, 42, 0
1, 191280, Note_on_c, 9, 42, 50
1, 191292, Note_on_c, 9, 42, 0
1, 191519, Note_on_c, 9, 36, 0
1, 191520, Note_on_c, 9, 38, 115
1, 191520, Note_on_c, 9, 42, 110
1, 191520, Note_on_c, 9, 42, 0
1, 191539, Note_on_c, 9, 38, 0
1, 191540, Note_on_c, 9, 39, 127
1, 191579, Note_on_c, 9, 39, 0
1, 191760, Note_on_c, 9, 42, 50
1, 191772, Note_on_c, 9, 42, 0
1, 192000, Note_on_c, 9, 42, 110
1, 192000, Note_on_c, 9, 36, 90
1, 192012, Note_on_c, 9, 42, 0
1, 192240, Note_on_c, 9, 42, 50
1, 192252, Note_on_c, 9, 42, 0
1, 192479, Note_on_c, 9, 36, 0
1, 192480, Note_on_c, 9, 38, 115
1, 192480, Note_on_c, 9, 42, 110
1, 192480, Note_on_c, 9, 36, 90
1, 192492, Note_on_c, 9, 42, 0
1, 192719, Note_on_c, 9, 38, 0
1, 192720, Note_on_c, 9, 42, 50
1, 192732, Note_on_c, 9, 42, 0
1, 192959, Note_on_c, 9, 36, 0
1, 192960, Note_on_c, 9, 42, 110
1, 192972, Note_on_c, 9, 42, 0
1, 193200, Note_on_c, 9, 42, 50
1, 193200, Note_on_c, 9, 36, 90
1, 193212, Note_on_c, 9, 42, 0
1, 193439, Note_on_c, 9, 36, 0
1, 193440, Note_on_c, 9, 38, 115
1, 193440, Note_on_c, 9, 42, 110
1, 193440, Note_on_c, 9, 42, 0
1, 193459, Note_on_c, 9, 38, 0
1, 193460, Note_on_c, 9, 39, 127
1, 193499, Note_on_c, 9, 39, 0
1, 193680, Note_on_c, 9, 42, 50
1, 193692, Note_on_c, 9, 42, 0
1, 193920, Note_on_c, 9, 42, 110
1, 193920, Note_on_c, 9, 36, 90
1, 193932, Note_on_c, 9, 42, 0
1, 194160, Note_on_c, 9, 42, 50
1, 194172, Note_on_c, 9, 42, 0
1, 194399, Note_on_c, 9, 36, 0
1, 194400, Note_on_c, 9, 38, 115
1, 194400, Note_on_c, 9, 42, 110
1, 194412, Note_on_c, 9, 42, 0
1, 194639, Note_on_c, 9, 38, 0
1, 194640, Note_on_c, 9, 42, 50
1, 194652, Note_on_c, 9, 42, 0
1, 194880, Note_on_c, 9, 42, 110
1, 194880, Note_on_c, 9, 36, 90
1, 194892, Note_on_c, 9, 42, 0
1, 195120, Note_on_c, 9, 42, 50
1, 195132, Note_on_c, 9, 42, 0
1, 195359, Note_on_c, 9, 36, 0
1, 195360, Note_on_c, 9, 38, 115
1, 195360, Note_on_c, 9, 42, 110
1, 195360, Note_on_c, 9, 42, 0
1, 195379, Note_on_c, 9, 38, 0
1, 195380, Note_on_c, 9, 39, 127
1, 195419, Note_on_c, 9, 39, 0
1, 195600, Note_on_c, 9, 42, 50
1, 195612, Note_on_c, 9, 42, 0
1, 195840, Note_on_c, 9, 42, 110
1, 195840, Note_on_c, 9, 36, 90
1, 195852, Note_on_c, 9, 42, 0
1, 196080, Note_on_c, 9, 42, 50
1, 196092, Note_on_c, 9, 42, 0
1, 196319, Note_on_c, 9, 36, 0
1, 196320, Note_on_c, 9, 38, 115
1, 196320, Note_on_c, 9, 42, 110
1, 196320, Note_on_c, 9, 36, 90
1, 196332, Note_on_c, 9, 42, 0
1, 196559, Note_on_c, 9, 38, 0
1, 196560, Note_on_c, 9, 42, 50
1, 196572, Note_on_c, 9, 42, 0
1, 196799, Note_on_c, 9, 36, 0
1, 196800, Note_on_c, 9, 42, 110
1, 196812, Note_on_c, 9, 42, 0
1, 197040, Note_on_c, 9, 42, 50
1, 197040, Note_on_c, 9, 36, 90
1, 197052, Note_on_c, 9, 42, 0
1, 197279, Note_on_c, 9, 36, 0
1, 197280, Note_on_c, 9, 38, 115
1, 197280, Note_on_c, 9, 42, 110
1, 197280, Note_on_c, 9, 42, 0
1, 197299, Note_on_c, 9, 38, 0
1, 197300, Note_on_c, 9, 39, 127
1, 197339, Note_on_c, 9, 39, 0
1, 197520, Note_on_c, 9, 42, 50
1, 197532, Note_on_c, 9, 42, 0
1, 197760, Note_on_c, 9, 42, 110
1, 197760, Note_on_c, 9, 36, 90
1, 197772, Note_on_c, 9, 42, 0
1, 198000, Note_on_c, 9, 42, 50
1, 198012, Note_on_c, 9, 42, 0
1, 198239, Note_on_c, 9, 36, 0
1, 198240, Note_on_c, 9, 38, 115
1, 198240, Note_on_c, 9, 42, 110
1, 198252, Note_on_c, 9, 42, 0
1, 198479, Note_on_c, 9, 38, 0
1, 198480, Note_on_c, 9, 42, 50
1, 198492, Note_on_c, 9, 42, 0
1, 198720, Note_on_c, 9, 42, 110
1, 198720, Note_on_c, 9, 36, 90
1, 198732, Note_on_c, 9, 42, 0
1, 198960, Note_on_c, 9, 42, 50
1, 198972, Note_on_c, 9, 42, 0
1, 199199, Note_on_c, 9, 36, 0
1, 199200, Note_on_c, 9, 38, 115
1, 199200, Note_on_c, 9, 42, 110
1, 199200, Note_on_c, 9, 42, 0
1, 199219, Note_on_c, 9, 38, 0
1, 199220, Note_on_c, 9, 39, 127
1, 199259, Note_on_c, 9, 39, 0
1, 199440, Note_on_c, 9, 42, 50
1, 199452, Note_on_c, 9, 42, 0
1, 199680, Note_on_c, 9, 42, 110
1, 199680, Note_on_c, 9, 36, 90
1, 199692, Note_on_c, 9, 42, 0
1, 199920, Note_on_c, 9, 42, 50
1, 199932, Note_on_c, 9, 42, 0
1, 200159, Note_on_c, 9, 36, 0
1, 200160, Note_on_c, 9, 38, 115
1, 200160, Note_on_c, 9, 42, 110
1, 200160, Note_on_c, 9, 36, 90
1, 200172, Note_on_c, 9, 42, 0
1, 200399, Note_on_c, 9, 38, 0
1, 200400, Note_on_c, 9, 42, 50
1, 200412, Note_on_c, 9, 42, 0
1, 200639, Note_on_c, 9, 36, 0
1, 200640, Note_on_c, 9, 42, 110
1, 200652, Note_on_c, 9, 42, 0
1, 200880, Note_on_c, 9, 42, 50
1, 200880, Note_on_c, 9, 36, 90
1, 200892, Note_on_c, 9, 42, 0
1, 201119, Note_on_c, 9, 36, 0
1, 201120, Note_on_c, 9, 38, 115
1, 201120, Note_on_c, 9, 42, 110
1, 201120, Note_on_c, 9, 42, 0
1, 201139, Note_on_c, 9, 38, 0
1, 201140, Note_on_c, 9, 39, 127
1, 201179, Note_on_c, 9, 39, 0
1, 201360, Note_on_c, 9, 42, 50
1, 201372, Note_on_c, 9, 42, 0
1, 201600, Note_on_c, 9, 42, 110
1, 201600, Note_on_c, 9, 36, 90
1, 201612, Note_on_c, 9, 42, 0
1, 201840, Note_on_c, 9, 42, 50
1, 201852, Note_on_c, 9, 42, 0
1, 202079, Note_on_c, 9, 36, 0
1, 202080, Note_on_c, 9, 38, 115
1, 202080, Note_on_c, 9, 42, 110
1, 202092, Note_on_c, 9, 42, 0
1, 202319, Note_on_c, 9, 38, 0
1, 202320, Note_on_c, 9, 42, 50
1, 202332, Note_on_c, 9, 42, 0
1, 202560, Note_on_c, 9, 42, 110
1, 202560, Note_on_c, 9, 36, 90
1, 202572, Note_on_c, 9, 42, 0
1, 202800, Note_on_c, 9, 42, 50
1, 202812, Note_on_c, 9, 42, 0
1, 203039, Note_on_c, 9, 36, 0
1, 203040, Note_on_c, 9, 38, 115
1, 203040, Note_on_c, 9, 42, 110
1, 203040, Note_on_c, 9, 42, 0
1, 203059, Note_on_c, 9, 38, 0
1, 203060, Note_on_c, 9, 39, 127
1, 203099, Note_on_c, 9, 39, 0
1, 203280, Note_on_c, 9, 42, 50
1, 203292, Note_on_c, 9, 42, 0
1, 203520, Note_on_c, 9, 42, 110
1, 203520, Note_on_c, 9, 36, 90
1, 203532, Note_on_c, 9, 42, 0
1, 203760, Note_on_c, 9, 42, 50
1, 203772, Note_on_c, 9, 42, 0
1, 203999, Note_on_c, 9, 36, 0
1, 204000, Note_on_c, 9, 38, 115
1, 204000, Note_on_c, 9, 42, 110
1, 204000, Note_on_c, 9, 36, 90
1, 204012, Note_on_c, 9, 42, 0
1, 204239, Note_on_c, 9, 38, 0
1, 204240, Note_on_c, 9, 42, 50
1, 204252, Note_on_c, 9, 42, 0
1, 204479, Note_on_c, 9, 36, 0
1, 204480, Note_on_c, 9, 42, 110
1, 204492, Note_on_c, 9, 42, 0
1, 204720, Note_on_c, 9, 42, 50
1, 204720, Note_on_c, 9, 36, 90
1, 204732, Note_on_c, 9, 42, 0
1, 204959, Note_on_c, 9, 36, 0
1, 204960, Note_on_c, 9, 38, 115
1, 204960, Note_on_c, 9, 42, 110
1, 204960, Note_on_c, 9, 42, 0
1, 204979, Note_on_c, 9, 38, 0
1, 204980, Note_on_c, 9, 39, 127
1, 205019, Note_on_c, 9, 39, 0
1, 205200, Note_on_c, 9, 42, 50
1, 205212, Note_on_c, 9, 42, 0
1, 205440, Note_on_c, 9, 49, 90
1, 205440, Note_on_c, 9, 36, 90
1, 205452, Note_on_c, 9, 49, 0
1, 205680, Note_on_c, 9, 42, 50
1, 205692, Note_on_c, 9, 42, 0
1, 205919, Note_on_c, 9, 36, 0
1, 205920, Note_on_c, 9, 38, 115
1, 205920, Note_on_c, 9, 42, 110
1, 205932, Note_on_c, 9, 42, 0
1, 206159, Note_on_c, 9, 38, 0
1, 206160, Note_on_c, 9, 42, 50
1, 206172, Note_on_c, 9, 42, 0
1, 206400, Note_on_c, 9, 42, 110
1, 206400, Note_on_c, 9, 36, 90
1, 206412, Note_on_c, 9, 42, 0
1, 206640, Note_on_c, 9, 42, 50
1, 206652, Note_on_c, 9, 42, 0
1, 206879, Note_on_c, 9, 36, 0
1, 206880, Note_on_c, 9, 38, 115
1, 206880, Note_on_c, 9, 42, 110
1, 206880, Note_on_c, 9, 42, 0
1, 206899, Note_on_c, 9, 38, 0
1, 206900, Note_on_c, 9, 39, 127
1, 206939, Note_on_c, 9, 39, 0
1, 207120, Note_on_c, 9, 42, 50
1, 207132, Note_on_c, 9, 42, 0
1, 207360, Note_on_c, 9, 42, 110
1, 207360, Note_on_c, 9, 36, 90
1, 207372, Note_on_c, 9, 42, 0
1, 207600, Note_on_c, 9, 42, 50
1, 207612, Note_on_c, 9, 42, 0
1, 207839, Note_on_c, 9, 36, 0
1, 207840, Note_on_c, 9, 38, 115
1, 207840, Note_on_c, 9, 42, 110
1, 207840, Note_on_c, 9, 36, 90
1, 207852, Note_on_c, 9, 42, 0
1, 208079, Note_on_c, 9, 38, 0
1, 208080, Note_on_c, 9, 42, 50
1, 208092, Note_on_c, 9, 42, 0
1, 208319, Note_on_c, 9, 36, 0
1, 208320, Note_on_c, 9, 42, 110
1, 208332, Note_on_c, 9, 42, 0
1, 208560, Note_on_c, 9, 42, 50
1, 208560, Note_on_c, 9, 36, 90
1, 208572, Note_on_c, 9, 42, 0
1, 208799, Note_on_c, 9, 36, 0
1, 208800, Note_on_c, 9, 38, 115
1, 208800, Note_on_c, 9, 42, 110
1, 208800, Note_on_c, 9, 42, 0
1, 208819, Note_on_c, 9, 38, 0
1, 208820, Note_on_c, 9, 39, 127
1, 208859, Note_on_c, 9, 39, 0
1, 209040, Note_on_c, 9, 42, 50
1, 209052, Note_on_c, 9, 42, 0
1, 209280, Note_on_c, 9, 42, 110
1, 209280, Note_on_c, 9, 36, 90
1, 209292, Note_on_c, 9, 42, 0
1, 209520, Note_on_c, 9, 42, 50
1, 209532, Note_on_c, 9, 42, 0
1, 209759, Note_on_c, 9, 36, 0
1, 209760, Note_on_c, 9, 38, 115
1, 209760, Note_on_c, 9, 42, 110
1, 209772, Note_on_c, 9, 42, 0
1, 209999, Note_on_c, 9, 38, 0
1, 210000, Note_on_c, 9, 42, 50
1, 210012, Note_on_c, 9, 42, 0
1, 210240, Note_on_c, 9, 42, 110
1, 210240, Note_on_c, 9, 36, 90
1, 210252, Note_on_c, 9, 42, 0
1, 210480, Note_on_c, 9, 42, 50
1, 210492, Note_on_c, 9, 42, 0
1, 210719, Note_on_c, 9, 36, 0
1, 210720, Note_on_c, 9, 38, 115
1, 210720, Note_on_c, 9, 42, 110
1, 210720, Note_on_c, 9, 42, 0
1, 210739, Note_on_c, 9, 38, 0
1, 210740, Note_on_c, 9, 39, 127
1, 210779, Note_on_c, 9, 39, 0
1, 210960, Note_on_c, 9, 42, 50
1, 210972, Note_on_c, 9, 42, 0
1, 211200, Note_on_c, 9, 42, 110
1, 211200, Note_on_c, 9, 36, 90
1, 211212, Note_on_c, 9, 42, 0
1, 211440, Note_on_c, 9, 42, 50
1, 211452, Note_on_c, 9, 42, 0
1, 211679, Note_on_c, 9, 36, 0
1, 211680, Note_on_c, 9, 38, 115
1, 211680, Note_on_c, 9, 42, 110
1, 211680, Note_on_c, 9, 36, 90
1, 211692, Note_on_c, 9, 42, 0
1, 211919, Note_on_c, 9, 38, 0
1, 211920, Note_on_c, 9, 42, 50
1, 211932, Note_on_c, 9, 42, 0
1, 212159, Note_on_c, 9, 36, 0
1, 212160, Note_on_c, 9, 42, 110
1, 212172, Note_on_c, 9, 42, 0
1, 212400, Note_on_c, 9, 42, 50
1, 212400, Note_on_c, 9, 36, 90
1, 212412, Note_on_c, 9, 42, 0
1, 212639, Note_on_c, 9, 36, 0
1, 212640, Note_on_c, 9, 38, 115
1, 212640, Note_on_c, 9, 42, 110
1, 212640, Note_on_c, 9, 42, 0
1, 212659, Note_on_c, 9, 38, 0
1, 212660, Note_on_c, 9, 39, 127
1, 212699, Note_on_c, 9, 39, 0
1, 212880, Note_on_c, 9, 42, 50
1, 212892, Note_on_c, 9, 42, 0
1, 213120, Note_on_c, 9, 42, 110
1, 213120, Note_on_c, 9, 36, 90
1, 213132, Note_on_c, 9, 42, 0
1, 213360, Note_on_c, 9, 42, 50
1, 213372, Note_on_c, 9, 42, 0
1, 213599, Note_on_c, 9, 36, 0
1, 213600, Note_on_c, 9, 38, 115
1, 213600, Note_on_c, 9, 42, 110
1, 213612, Note_on_c, 9, 42, 0
1, 213839, Note_on_c, 9, 38, 0
1, 213840, Note_on_c, 9, 42, 50
1, 213852, Note_on_c, 9, 42, 0
1, 214080, Note_on_c, 9, 42, 110
1, 214080, Note_on_c, 9, 36, 90
1, 214092, Note_on_c, 9, 42, 0
1, 214320, Note_on_c, 9, 42, 50
1, 214332, Note_on_c, 9, 42, 0
1, 214559, Note_on_c, 9, 36, 0
1, 214560, Note_on_c, 9, 38, 115
1, 214560, Note_on_c, 9, 42, 110
1, 214560, Note_on_c, 9, 42, 0
1, 214579, Note_on_c, 9, 38, 0
1, 214580, Note_on_c, 9, 39, 127
1, 214619, Note_on_c, 9, 39, 0
1, 214800, Note_on_c, 9, 42, 50
1, 214812, Note_on_c, 9, 42, 0
1, 215040, Note_on_c, 9, 42, 110
1, 215040, Note_on_c, 9, 36, 90
1, 215052, Note_on_c, 9, 42, 0
1, 215280, Note_on_c, 9, 42, 50
1, 215292, Note_on_c, 9, 42, 0
1, 215519, Note_on_c, 9, 36, 0
1, 215520, Note_on_c, 9, 38, 115
1, 215520, Note_on_c, 9, 42, 110
1, 215520, Note_on_c, 9, 36, 90
1, 215532, Note_on_c, 9, 42, 0
1, 215759, Note_on_c, 9, 38, 0
1, 215760, Note_on_c, 9, 42, 50
1, 215772, Note_on_c, 9, 42, 0
1, 215999, Note_on_c, 9, 36, 0
1, 216000, Note_on_c, 9, 42, 110
1, 216012, Note_on_c, 9, 42, 0
1, 216240, Note_on_c, 9, 42, 50
1, 216240, Note_on_c, 9, 36, 90
1, 216252, Note_on_c, 9, 42, 0
1, 216479, Note_on_c, 9, 36, 0
1, 216480, Note_on_c, 9, 38, 115
1, 216480, Note_on_c, 9, 42, 110
1, 216480, Note_on_c, 9, 42, 0
1, 216499, Note_on_c, 9, 38, 0
1, 216500, Note_on_c, 9, 39, 127
1, 216539, Note_on_c, 9, 39, 0
1, 216720, Note_on_c, 9, 42, 50
1, 216732, Note_on_c, 9, 42, 0
1, 216960, Note_on_c, 9, 42, 110
1, 216960, Note_on_c, 9, 36, 90
1, 216972, Note_on_c, 9, 42, 0
1, 217200, Note_on_c, 9, 42, 50
1, 217212, Note_on_c, 9, 42, 0
1, 217439, Note_on_c, 9, 36, 0
1, 217440, Note_on_c, 9, 38, 115
1, 217440, Note_on_c, 9, 42, 110
1, 217452, Note_on_c, 9, 42, 0
1, 217679, Note_on_c, 9, 38, 0
1, 217680, Note_on_c, 9, 42, 50
1, 217692, Note_on_c, 9, 42, 0
1, 217920, Note_on_c, 9, 42, 110
1, 217920, Note_on_c, 9, 36, 90
1, 217932, Note_on_c, 9, 42, 0
1, 218160, Note_on_c, 9, 42, 50
1, 218172, Note_on_c, 9, 42, 0
1, 218399, Note_on_c, 9, 36, 0
1, 218400, Note_on_c, 9, 38, 115
1, 218400, Note_on_c, 9, 42, 110
1, 218400, Note_on_c, 9, 42, 0
1, 218419, Note_on_c, 9, 38, 0
1, 218420, Note_on_c, 9, 39, 127
1, 218459, Note_on_c, 9, 39, 0
1, 218640, Note_on_c, 9, 42, 50
1, 218652, Note_on_c, 9, 42, 0
1, 218880, Note_on_c, 9, 42, 110
1, 218880, Note_on_c, 9, 36, 90
1, 218892, Note_on_c, 9, 42, 0
1, 219120, Note_on_c, 9, 42, 50
1, 219132, Note_on_c, 9, 42, 0
1, 219359, Note_on_c, 9, 36, 0
1, 219360, Note_on_c, 9, 38, 115
1, 219360, Note_on_c, 9, 42, 110
1, 219360, Note_on_c, 9, 36, 90
1, 219372, Note_on_c, 9, 42, 0
1, 219599, Note_on_c, 9, 38, 0
1, 219600, Note_on_c, 9, 42, 50
1, 219612, Note_on_c, 9, 42, 0
1, 219839, Note_on_c, 9, 36, 0
1, 219840, Note_on_c, 9, 42, 110
1, 219852, Note_on_c, 9, 42, 0
1, 220080, Note_on_c, 9, 42, 50
1, 220080, Note_on_c, 9, 36, 90
1, 220092, Note_on_c, 9, 42, 0
1, 220319, Note_on_c, 9, 36, 0
1, 220320, Note_on_c, 9, 38, 115
1, 220320, Note_on_c, 9, 42, 110
1, 220320, Note_on_c, 9, 42, 0
1, 220339, Note_on_c, 9, 38, 0
1, 220340, Note_on_c, 9, 39, 127
1, 220379, Note_on_c, 9, 39, 0
1, 220560, Note_on_c, 9, 55, 120
1, 220560, Note_on_c, 9, 36, 90
1, 220572, Note_on_c, 9, 55, 0
1, 220799, Note_on_c, 9, 36, 0
1, 220800, Note_on_c, 9, 42, 110
1, 220800, Note_on_c, 9, 36, 90
1, 220812, Note_on_c, 9, 42, 0
1, 221040, Note_on_c, 9, 42, 50
1, 221052, Note_on_c, 9, 42, 0
1, 221279, Note_on_c, 9, 36, 0
1, 221280, Note_on_c, 9, 38, 115
1, 221280, Note_on_c, 9, 42, 110
1, 221292, Note_on_c, 9, 42, 0
1, 221519, Note_on_c, 9, 38, 0
1, 221520, Note_on_c, 9, 42, 50
1, 221532, Note_on_c, 9, 42, 0
1, 221760, Note_on_c, 9, 42, 110
1, 221760, Note_on_c, 9, 36, 90
1, 221772, Note_on_c, 9, 42, 0
1, 222000, Note_on_c, 9, 42, 50
1, 222012, Note_on_c, 9, 42, 0
1, 222239, Note_on_c, 9, 36, 0
1, 222240, Note_on_c, 9, 38, 115
1, 222240, Note_on_c, 9, 42, 110
1, 222240, Note_on_c, 9, 42, 0
1, 222259, Note_on_c, 9, 38, 0
1, 222260, Note_on_c, 9, 39, 127
1, 222299, Note_on_c, 9, 39, 0
1, 222480, Note_on_c, 9, 42, 50
1, 222492, Note_on_c, 9, 42, 0
1, 222720, Note_on_c, 9, 42, 110
1, 222720, Note_on_c, 9, 36, 90
1, 222732, Note_on_c, 9, 42, 0
1, 222960, Note_on_c, 9, 42, 50
1, 222972, Note_on_c, 9, 42, 0
1, 223199, Note_on_c, 9, 36, 0
1, 223200, Note_on_c, 9, 38, 115
1, 223200, Note_on_c, 9, 42, 110
1, 223200, Note_on_c, 9, 36, 90
1, 223212, Note_on_c, 9, 42, 0
1, 223439, Note_on_c, 9, 38, 0
1, 223440, Note_on_c, 9, 42, 50
1, 223452, Note_on_c, 9, 42, 0
1, 223679, Note_on_c, 9, 36, 0
1, 223680, Note_on_c, 9, 42, 110
1, 223692, Note_on_c, 9, 42, 0
1, 223920, Note_on_c, 9, 42, 50
1, 223920, Note_on_c, 9, 36, 90
1, 223932, Note_on_c, 9, 42, 0
1, 224159, Note_on_c, 9, 36, 0
1, 224160, Note_on_c, 9, 38, 115
1, 224160, Note_on_c, 9, 42, 110
1, 224160, Note_on_c, 9, 42, 0
1, 224179, Note_on_c, 9, 38, 0
1, 224180, Note_on_c, 9, 39, 127
1, 224219, Note_on_c, 9, 39, 0
1, 224400, Note_on_c, 9, 42, 50
1, 224412, Note_on_c, 9, 42, 0
1, 224640, Note_on_c, 9, 42, 110
1, 224640, Note_on_c, 9, 36, 90
1, 224652, Note_on_c, 9, 42, 0
1, 224880, Note_on_c, 9, 42, 50
1, 224892, Note_on_c, 9, 42, 0
1, 225119, Note_on_c, 9, 36, 0
1, 225120, Note_on_c, 9, 38, 115
1, 225120, Note_on_c, 9, 42, 110
1, 225132, Note_on_c, 9, 42, 0
1, 225359, Note_on_c, 9, 38, 0
1, 225360, Note_on_c, 9, 42, 50
1, 225372, Note_on_c, 9, 42, 0
1, 225600, Note_on_c, 9, 42, 110
1, 225600, Note_on_c, 9, 36, 90
1, 225612, Note_on_c, 9, 42, 0
1, 225840, Note_on_c, 9, 42, 50
1, 225852, Note_on_c, 9, 42, 0
1, 226079, Note_on_c, 9, 36, 0
1, 226080, Note_on_c, 9, 38, 115
1, 226080, Note_on_c, 9, 42, 110
1, 226080, Note_on_c, 9, 42, 0
1, 226099, Note_on_c, 9, 38, 0
1, 226100, Note_on_c, 9, 39, 127
1, 226139, Note_on_c, 9, 39, 0
1, 226320, Note_on_c, 9, 42, 50
1, 226332, Note_on_c, 9, 42, 0
1, 226560, Note_on_c, 9, 42, 110
1, 226560, Note_on_c, 9, 36, 90
1, 226572, Note_on_c, 9, 42, 0
1, 226800, Note_on_c, 9, 42, 50
1, 226812, Note_on_c, 9, 42, 0
1, 227039, Note_on_c, 9, 36, 0
1, 227040, Note_on_c, 9, 38, 115
1, 227040, Note_on_c, 9, 42, 110
1, 227040, Note_on_c, 9, 36, 90
1, 227052, Note_on_c, 9, 42, 0
1, 227279, Note_on_c, 9, 38, 0
1, 227280, Note_on_c, 9, 42, 50
1, 227292, Note_on_c, 9, 42, 0
1, 227519, Note_on_c, 9, 36, 0
1, 227520, Note_on_c, 9, 42, 110
1, 227532, Note_on_c, 9, 42, 0
1, 227760, Note_on_c, 9, 42, 50
1, 227760, Note_on_c, 9, 36, 90
1, 227772, Note_on_c, 9, 42, 0
1, 227999, Note_on_c, 9, 36, 0
1, 228000, Note_on_c, 9, 38, 115
1, 228000, Note_on_c, 9, 42, 110
1, 228000, Note_on_c, 9, 42, 0
1, 228019, Note_on_c, 9, 38, 0
1, 228020, Note_on_c, 9, 39, 127
1, 228059, Note_on_c, 9, 39, 0
1, 228240, Note_on_c, 9, 42, 50
1, 228252, Note_on_c, 9, 42, 0
1, 228480, Note_on_c, 9, 42, 110
1, 228480, Note_on_c, 9, 36, 90
1, 228492, Note_on_c, 9, 42, 0
1, 228720, Note_on_c, 9, 42, 50
1, 228732, Note_on_c, 9, 42, 0
1, 228959, Note_on_c, 9, 36, 0
1, 228960, Note_on_c, 9, 38, 115
1, 228960, Note_on_c, 9, 42, 110
1, 228972, Note_on_c, 9, 42, 0
1, 229199, Note_on_c, 9, 38, 0
1, 229200, Note_on_c, 9, 42, 50
1, 229212, Note_on_c, 9, 42, 0
1, 229440, Note_on_c, 9, 42, 110
1, 229440, Note_on_c, 9, 36, 90
1, 229452, Note_on_c, 9, 42, 0
1, 229680, Note_on_c, 9, 42, 50
1, 229692, Note_on_c, 9, 42, 0
1, 229919, Note_on_c, 9, 36, 0
1, 229920, Note_on_c, 9, 38, 115
1, 229920, Note_on_c, 9, 42, 110
1, 229920, Note_on_c, 9, 42, 0
1, 229939, Note_on_c, 9, 38, 0
1, 229940, Note_on_c, 9, 39, 127
1, 229979, Note_on_c, 9, 39, 0
1, 230160, Note_on_c, 9, 42, 50
1, 230172, Note_on_c, 9, 42, 0
1, 230400, Note_on_c, 9, 42, 110
1, 230400, Note_on_c, 9, 36, 90
1, 230412, Note_on_c, 9, 42, 0
1, 230640, Note_on_c, 9, 42, 50
1, 230652, Note_on_c, 9, 42, 0
1, 230879, Note_on_c, 9, 36, 0
1, 230880, Note_on_c, 9, 38, 115
1, 230880, Note_on_c, 9, 42, 110
1, 230880, Note_on_c, 9, 36, 90
1, 230892, Note_on_c, 9, 42, 0
1, 231119, Note_on_c, 9, 38, 0
1, 231120, Note_on_c, 9, 42, 50
1, 231132, Note_on_c, 9, 42, 0
1, 231359, Note_on_c, 9, 36, 0
1, 231360, Note_on_c, 9, 42, 110
1, 231372, Note_on_c, 9, 42, 0
1, 231600, Note_on_c, 9, 42, 50
1, 231600, Note_on_c, 9, 36, 90
1, 231612, Note_on_c, 9, 42, 0
1, 231839, Note_on_c, 9, 36, 0
1, 231840, Note_on_c, 9, 38, 115
1, 231840, Note_on_c, 9, 42, 110
1, 231840, Note_on_c, 9, 42, 0
1, 231859, Note_on_c, 9, 38, 0
1, 231860, Note_on_c, 9, 39, 127
1, 231899, Note_on_c, 9, 39, 0
1, 232080, Note_on_c, 9, 42, 50
1, 232092, Note_on_c, 9, 42, 0
1, 232320, Note_on_c, 9, 42, 110
1, 232320, Note_on_c, 9, 36, 90
1, 232332, Note_on_c, 9, 42, 0
1, 232560, Note_on_c, 9, 42, 50
1, 232572, Note_on_c, 9, 42, 0
1, 232799, Note_on_c, 9, 36, 0
1, 232800, Note_on_c, 9, 38, 115
1, 232800, Note_on_c, 9, 42, 110
1, 232812, Note_on_c, 9, 42, 0
1, 233039, Note_on_c, 9, 38, 0
1, 233040, Note_on_c, 9, 42, 50
1, 233052, Note_on_c, 9, 42, 0
1, 233280, Note_on_c, 9, 42, 110
1, 233280, Note_on_c, 9, 36, 90
1, 233292, Note_on_c, 9, 42, 0
1, 233520, Note_on_c, 9, 42, 50
1, 233532, Note_on_c, 9, 42, 0
1, 233759, Note_on_c, 9, 36, 0
1, 233760, Note_on_c, 9, 38, 115
1, 233760, Note_on_c, 9, 42, 110
1, 233760, Note_on_c, 9, 42, 0
1, 233779, Note_on_c, 9, 38, 0
1, 233780, Note_on_c, 9, 39, 127
1, 233819, Note_on_c, 9, 39, 0
1, 234000, Note_on_c, 9, 42, 50
1, 234012, Note_on_c, 9, 42, 0
1, 234240, Note_on_c, 9, 42, 110
1, 234240, Note_on_c, 9, 36, 90
1, 234252, Note_on_c, 9, 42, 0
1, 234480, Note_on_c, 9, 42, 50
1, 234492, Note_on_c, 9, 42, 0
1, 234719, Note_on_c, 9, 36, 0
1, 234720, Note_on_c, 9, 38, 115
1, 234720, Note_on_c, 9, 42, 110
1, 234720, Note_on_c, 9, 36, 90
1, 234732, Note_on_c, 9, 42, 0
1, 234959, Note_on_c, 9, 38, 0
1, 234960, Note_on_c, 9, 42, 50
1, 234972, Note_on_c, 9, 42, 0
1, 235199, Note_on_c, 9, 36, 0
1, 235200, Note_on_c, 9, 42, 110
1, 235212, Note_on_c, 9, 42, 0
1, 235440, Note_on_c, 9, 42, 50
1, 235440, Note_on_c, 9, 36, 90
1, 235452, Note_on_c, 9, 42, 0
1, 235679, Note_on_c, 9, 36, 0
1, 235680, Note_on_c, 9, 38, 115
1, 235680, Note_on_c, 9, 42, 110
1, 235680, Note_on_c, 9, 42, 0
1, 235699, Note_on_c, 9, 38, 0
1, 235700, Note_on_c, 9, 39, 127
1, 235739, Note_on_c, 9, 39, 0
1, 235920, Note_on_c, 9, 42, 50
1, 235932, Note_on_c, 9, 42, 0
1, 236160, Note_on_c, 9, 42, 110
1, 236160, Note_on_c, 9, 36, 90
1, 236172, Note_on_c, 9, 42, 0
1, 236400, Note_on_c, 9, 42, 50
1, 236412, Note_on_c, 9, 42, 0
1, 236639, Note_on_c, 9, 36, 0
1, 236640, Note_on_c, 9, 38, 115
1, 236640, Note_on_c, 9, 42, 110
1, 236652, Note_on_c, 9, 42, 0
1, 236879, Note_on_c, 9, 38, 0
1, 236880, Note_on_c, 9, 42, 50
1, 236892, Note_on_c, 9, 42, 0
1, 237120, Note_on_c, 9, 42, 110
1, 237120, Note_on_c, 9, 36, 90
1, 237132, Note_on_c, 9, 42, 0
1, 237360, Note_on_c, 9, 42, 50
1, 237372, Note_on_c, 9, 42, 0
1, 237599, Note_on_c, 9, 36, 0
1, 237600, Note_on_c, 9, 38, 115
1, 237600, Note_on_c, 9, 42, 110
1, 237600, Note_on_c, 9, 42, 0
1, 237619, Note_on_c, 9, 38, 0
1, 237620, Note_on_c, 9, 39, 127
1, 237659, Note_on_c, 9, 39, 0
1, 237840, Note_on_c, 9, 42, 50
1, 237852, Note_on_c, 9, 42, 0
1, 238080, Note_on_c, 9, 42, 110
1, 238080, Note_on_c, 9, 36, 90
1, 238092, Note_on_c, 9, 42, 0
1, 238320, Note_on_c, 9, 42, 50
1, 238332, Note_on_c, 9, 42, 0
1, 238559, Note_on_c, 9, 36, 0
1, 238560, Note_on_c, 9, 38, 115
1, 238560, Note_on_c, 9, 42, 110
1, 238560, Note_on_c, 9, 36, 90
1, 238572, Note_on_c, 9, 42, 0
1, 238799, Note_on_c, 9, 38, 0
1, 238800, Note_on_c, 9, 42, 50
1, 238812, Note_on_c, 9, 42, 0
1, 239039, Note_on_c, 9, 36, 0
1, 239040, Note_on_c, 9, 42, 110
1, 239052, Note_on_c, 9, 42, 0
1, 239280, Note_on_c, 9, 42, 50
1, 239280, Note_on_c, 9, 36, 90
1, 239292, Note_on_c, 9, 42, 0
1, 239519, Note_on_c, 9, 36, 0
1, 239520, Note_on_c, 9, 38, 115
1, 239520, Note_on_c, 9, 42, 110
1, 239520, Note_on_c, 9, 42, 0
1, 239539, Note_on_c, 9, 38, 0
1, 239540, Note_on_c, 9, 39, 127
1, 239579, Note_on_c, 9, 39, 0
1, 239760, Note_on_c, 9, 42, 50
1, 239772, Note_on_c, 9, 42, 0
1, 240000, Note_on_c, 9, 42, 110
1, 240000, Note_on_c, 9, 36, 90
1, 240012, Note_on_c, 9, 42, 0
1, 240240, Note_on_c, 9, 42, 50
1, 240252, Note_on_c, 9, 42, 0
1, 240479, Note_on_c, 9, 36, 0
1, 240480, Note_on_c, 9, 38, 115
1, 240480, Note_on_c, 9, 42, 110
1, 240492, Note_on_c, 9, 42, 0
1, 240719, Note_on_c, 9, 38, 0
1, 240720, Note_on_c, 9, 42, 50
1, 240732, Note_on_c, 9, 42, 0
1, 240960, Note_on_c, 9, 42, 110
1, 240960, Note_on_c, 9, 36, 90
1, 240972, Note_on_c, 9, 42, 0
1, 241200, Note_on_c, 9, 42, 50
1, 241212, Note_on_c, 9, 42, 0
1, 241439, Note_on_c, 9, 36, 0
1, 241440, Note_on_c, 9, 38, 115
1, 241440, Note_on_c, 9, 42, 110
1, 241440, Note_on_c, 9, 42, 0
1, 241459, Note_on_c, 9, 38, 0
1, 241460, Note_on_c, 9, 39, 127
1, 241499, Note_on_c, 9, 39, 0
1, 241680, Note_on_c, 9, 42, 50
1, 241692, Note_on_c, 9, 42, 0
1, 241920, Note_on_c, 9, 42, 110
1, 241920, Note_on_c, 9, 36, 90
1, 241932, Note_on_c, 9, 42, 0
1, 242160, Note_on_c, 9, 42, 50
1, 242172, Note_on_c, 9, 42, 0
1, 242399, Note_on_c, 9, 36, 0
1, 242400, Note_on_c, 9, 38, 115
1, 242400, Note_on_c, 9, 42, 110
1, 242400, Note_on_c, 9, 36, 90
1, 242412, Note_on_c, 9, 42, 0
1, 242639, Note_on_c, 9, 38, 0
1, 242640, Note_on_c, 9, 42, 50
1, 242652, Note_on_c, 9, 42, 0
1, 242879, Note_on_c, 9, 36, 0
1, 242880, Note_on_c, 9, 42, 110
1, 242892, Note_on_c, 9, 42, 0
1, 243120, Note_on_c, 9, 42, 50
1, 243120, Note_on_c, 9, 36, 90
1, 243132, Note_on_c, 9, 42, 0
1, 243359, Note_on_c, 9, 36, 0
1, 243360, Note_on_c, 9, 38, 115
1, 243360, Note_on_c, 9, 42, 110
1, 243360, Note_on_c, 9, 42, 0
1, 243379, Note_on_c, 9, 38, 0
1, 243380, Note_on_c, 9, 39, 127
1, 243419, Note_on_c, 9, 39, 0
1, 243600, Note_on_c, 9, 42, 50
1, 243612, Note_on_c, 9, 42, 0
1, 243840, Note_on_c, 9, 42, 110
1, 243840, Note_on_c, 9, 36, 90
1, 243852, Note_on_c, 9, 42, 0
1, 244080, Note_on_c, 9, 42, 50
1, 244092, Note_on_c, 9, 42, 0
1, 244319, Note_on_c, 9, 36, 0
1, 244320, Note_on_c, 9, 38, 115
1, 244320, Note_on_c, 9, 42, 110
1, 244332, Note_on_c, 9, 42, 0
1, 244559, Note_on_c, 9, 38, 0
1, 244560, Note_on_c, 9, 42, 50
1, 244572, Note_on_c, 9, 42, 0
1, 244800, Note_on_c, 9, 42, 110
1, 244800, Note_on_c, 9, 36, 90
1, 244812, Note_on_c, 9, 42, 0
1, 245040, Note_on_c, 9, 42, 50
1, 245052, Note_on_c, 9, 42, 0
1, 245279, Note_on_c, 9, 36, 0
1, 245280, Note_on_c, 9, 38, 115
1, 245280, Note_on_c, 9, 42, 110
1, 245280, Note_on_c, 9, 42, 0
1, 245299, Note_on_c, 9, 38, 0
1, 245300, Note_on_c, 9, 39, 127
1, 245339, Note_on_c, 9, 39, 0
1, 245520, Note_on_c, 9, 42, 50
1, 245532, Note_on_c, 9, 42, 0
1, 245760, Note_on_c, 9, 42, 110
1, 245760, Note_on_c, 9, 36, 90
1, 245772, Note_on_c, 9, 42, 0
1, 246000, Note_on_c, 9, 42, 50
1, 246012, Note_on_c, 9, 42, 0
1, 246239, Note_on_c, 9, 36, 0
1, 246240, Note_on_c, 9, 38, 115
1, 246240, Note_on_c, 9, 42, 110
1, 246240, Note_on_c, 9, 36, 90
1, 246252, Note_on_c, 9, 42, 0
1, 246479, Note_on_c, 9, 38, 0
1, 246480, Note_on_c, 9, 42, 50
1, 246492, Note_on_c, 9, 42, 0
1, 246719, Note_on_c, 9, 36, 0
1, 246720, Note_on_c, 9, 42, 110
1, 246732, Note_on_c, 9, 42, 0
1, 246960, Note_on_c, 9, 42, 50
1, 246960, Note_on_c, 9, 36, 90
1, 246972, Note_on_c, 9, 42, 0
1, 247199, Note_on_c, 9, 36, 0
1, 247200, Note_on_c, 9, 38, 115
1, 247200, Note_on_c, 9, 42, 110
1, 247200, Note_on_c, 9, 42, 0
1, 247219, Note_on_c, 9, 38, 0
1, 247220, Note_on_c, 9, 39, 127
1, 247259, Note_on_c, 9, 39, 0
1, 247440, Note_on_c, 9, 42, 50
1, 247452, Note_on_c, 9, 42, 0
1, 247680, Note_on_c, 9, 42, 110
1, 247680, Note_on_c, 9, 36, 90
1, 247692, Note_on_c, 9, 42, 0
1, 247920, Note_on_c, 9, 42, 50
1, 247932, Note_on_c, 9, 42, 0
1, 248159, Note_on_c, 9, 36, 0
1, 248160, Note_on_c, 9, 38, 115
1, 248160, Note_on_c, 9, 42, 110
1, 248172, Note_on_c, 9, 42, 0
1, 248399, Note_on_c, 9, 38, 0
1, 248400, Note_on_c, 9, 42, 50
1, 248412, Note_on_c, 9, 42, 0
1, 248640, Note_on_c, 9, 42, 110
1, 248640, Note_on_c, 9, 36, 90
1, 248652, Note_on_c, 9, 42, 0
1, 248880, Note_on_c, 9, 42, 50
1, 248892, Note_on_c, 9, 42, 0
1, 249119, Note_on_c, 9, 36, 0
1, 249120, Note_on_c, 9, 38, 115
1, 249120, Note_on_c, 9, 42, 110
1, 249120, Note_on_c, 9, 42, 0
1, 249139, Note_on_c, 9, 38, 0
1, 249140, Note_on_c, 9, 39, 127
1, 249179, Note_on_c, 9, 39, 0
1, 249360, Note_on_c, 9, 42, 50
1, 249372, Note_on_c, 9, 42, 0
1, 249600, Note_on_c, 9, 42, 110
1, 249600, Note_on_c, 9, 36, 90
1, 249612, Note_on_c, 9, 42, 0
1, 249840, Note_on_c, 9, 42, 50
1, 249852, Note_on_c, 9, 42, 0
1, 250079, Note_on_c, 9, 36, 0
1, 250080, Note_on_c, 9, 38, 115
1, 250080, Note_on_c, 9, 42, 110
1, 250080, Note_on_c, 9, 36, 90
1, 250092, Note_on_c, 9, 42, 0
1, 250319, Note_on_c, 9, 38, 0
1, 250320, Note_on_c, 9, 42, 50
1, 250332, Note_on_c, 9, 42, 0
1, 250559, Note_on_c, 9, 36, 0
1, 250560, Note_on_c, 9, 42, 110
1, 250572, Note_on_c, 9, 42, 0
1, 250800, Note_on_c, 9, 42, 50
1, 250800, Note_on_c, 9, 36, 90
1, 250812, Note_on_c, 9, 42, 0
1, 251039, Note_on_c, 9, 36, 0
1, 251040, Note_on_c, 9, 38, 115
1, 251040, Note_on_c, 9, 42, 110
1, 251040, Note_on_c, 9, 42, 0
1, 251059, Note_on_c, 9, 38, 0
1, 251060, Note_on_c, 9, 39, 127
1, 251099, Note_on_c, 9, 39, 0
1, 251280, Note_on_c, 9, 55, 127
1, 251280, Note_on_c, 9, 36, 90
1, 251292, Note_on_c, 9, 55, 0
1, 251519, Note_on_c, 9, 36, 0
1, 251520, Note_on_c, 9, 49, 90
1, 251520, Note_on_c, 9, 36, 90
1, 251532, Note_on_c, 9, 49, 0
1, 251760, Note_on_c, 9, 42, 50
1, 251772, Note_on_c, 9, 42, 0
1, 251999, Note_on_c, 9, 36, 0
1, 252000, Note_on_c, 9, 38, 115
1, 252000, Note_on_c, 9, 42, 110
1, 252012, Note_on_c, 9, 42, 0
1, 252239, Note_on_c, 9, 38, 0
1, 252240, Note_on_c, 9, 42, 50
1, 252252, Note_on_c, 9, 42, 0
1, 252480, Note_on_c, 9, 42, 110
1, 252480, Note_on_c, 9, 36, 90
1, 252492, Note_on_c, 9, 42, 0
1, 252720, Note_on_c, 9, 42, 50
1, 252732, Note_on_c, 9, 42, 0
1, 252959, Note_on_c, 9, 36, 0
1, 252960, Note_on_c, 9, 38, 115
1, 252960, Note_on_c, 9, 42, 110
1, 252960, Note_on_c, 9, 42, 0
1, 252979, Note_on_c, 9, 38, 0
1, 252980, Note_on_c, 9, 39, 127
1, 253019, Note_on_c, 9, 39, 0
1, 253200, Note_on_c, 9, 42, 50
1, 253212, Note_on_c, 9, 42, 0
1, 253440, Note_on_c, 9, 42, 110
1, 253440, Note_on_c, 9, 36, 90
1, 253452, Note_on_c, 9, 42, 0
1, 253680, Note_on_c, 9, 42, 50
1, 253692, Note_on_c, 9, 42, 0
1, 253919, Note_on_c, 9, 36, 0
1, 253920, Note_on_c, 9, 38, 115
1, 253920, Note_on_c, 9, 42, 110
1, 253920, Note_on_c, 9, 36, 90
1, 253932, Note_on_c, 9, 42, 0
1, 254159, Note_on_c, 9, 38, 0
1, 254160, Note_on_c, 9, 42, 50
1, 254172, Note_on_c, 9, 42, 0
1, 254399, Note_on_c, 9, 36, 0
1, 254400, Note_on_c, 9, 42, 110
1, 254412, Note_on_c, 9, 42, 0
1, 254640, Note_on_c, 9, 42, 50
1, 254640, Note_on_c, 9, 36, 90
1, 254652, Note_on_c, 9, 42, 0
1, 254879, Note_on_c, 9, 36, 0
1, 254880, Note_on_c, 9, 38, 115
1, 254880, Note_on_c, 9, 42, 110
1, 254880, Note_on_c, 9, 42, 0
1, 254899, Note_on_c, 9, 38, 0
1, 254900, Note_on_c, 9, 39, 127
1, 254939, Note_on_c, 9, 39, 0
1, 255120, Note_on_c, 9, 42, 50
1, 255132, Note_on_c, 9, 42, 0
1, 255360, Note_on_c, 9, 42, 110
1, 255360, Note_on_c, 9, 36, 90
1, 255372, Note_on_c, 9, 42, 0
1, 255600, Note_on_c, 9, 42, 50
1, 255612, Note_on_c, 9, 42, 0
1, 255839, Note_on_c, 9, 36, 0
1, 255840, Note_on_c, 9, 38, 115
1, 255840, Note_on_c, 9, 42, 110
1, 255852, Note_on_c, 9, 42, 0
1, 256079, Note_on_c, 9, 38, 0
1, 256080, Note_on_c, 9, 42, 50
1, 256092, Note_on_c, 9, 42, 0
1, 256320, Note_on_c, 9, 42, 110
1, 256320, Note_on_c, 9, 36, 90
1, 256332, Note_on_c, 9, 42, 0
1, 256560, Note_on_c, 9, 42, 50
1, 256572, Note_on_c, 9, 42, 0
1, 256799, Note_on_c, 9, 36, 0
1, 256800, Note_on_c, 9, 38, 115
1, 256800, Note_on_c, 9, 42, 110
1, 256800, Note_on_c, 9, 42, 0
1, 256819, Note_on_c, 9, 38, 0
1, 256820, Note_on_c, 9, 39, 127
1, 256859, Note_on_c, 9, 39, 0
1, 257040, Note_on_c, 9, 42, 50
1, 257052, Note_on_c, 9, 42, 0
1, 257280, Note_on_c, 9, 42, 110
1, 257280, Note_on_c, 9, 36, 90
1, 257292, Note_on_c, 9, 42, 0
1, 257520, Note_on_c, 9, 42, 50
1, 257532, Note_on_c, 9, 42, 0
1, 257759, Note_on_c, 9, 36, 0
1, 257760, Note_on_c, 9, 38, 115
1, 257760, Note_on_c, 9, 42, 110
1, 257760, Note_on_c, 9, 36, 90
1, 257772, Note_on_c, 9, 42, 0
1, 257999, Note_on_c, 9, 38, 0
1, 258000, Note_on_c, 9, 42, 50
1, 258012, Note_on_c, 9, 42, 0
1, 258239, Note_on_c, 9, 36, 0
1, 258240, Note_on_c, 9, 42, 110
1, 258252, Note_on_c, 9, 42, 0
1, 258480, Note_on_c, 9, 42, 50
1, 258480, Note_on_c, 9, 36, 90
1, 258492, Note_on_c, 9, 42, 0
1, 258719, Note_on_c, 9, 36, 0
1, 258720, Note_on_c, 9, 38, 115
1, 258720, Note_on_c, 9, 42, 110
1, 258720, Note_on_c, 9, 42, 0
1, 258739, Note_on_c, 9, 38, 0
1, 258740, Note_on_c, 9, 39, 127
1, 258779, Note_on_c, 9, 39, 0
1, 258960, Note_on_c, 9, 42, 50
1, 258960, Note_on_c, 9, 36, 90
1, 258972, Note_on_c, 9, 42, 0
1, 259199, Note_on_c, 9, 36, 0
1, 259200, Note_on_c, 9, 42, 110
1, 259200, Note_on_c, 9, 36, 90
1, 259212, Note_on_c, 9, 42, 0
1, 259440, Note_on_c, 9, 42, 50
1, 259452, Note_on_c, 9, 42, 0
1, 259679, Note_on_c, 9, 36, 0
1, 259680, Note_on_c, 9, 38, 115
1, 259680, Note_on_c, 9, 42, 110
1, 259692, Note_on_c, 9, 42, 0
1, 259919, Note_on_c, 9, 38, 0
1, 259920, Note_on_c, 9, 42, 50
1, 259932, Note_on_c, 9, 42, 0
1, 260160, Note_on_c, 9, 42, 110
1, 260160, Note_on_c, 9, 36, 90
1, 260172, Note_on_c, 9, 42, 0
1, 260400, Note_on_c, 9, 42, 50
1, 260412, Note_on_c, 9, 42, 0
1, 260639, Note_on_c, 9, 36, 0
1, 260640, Note_on_c, 9, 38, 115
1, 260640, Note_on_c, 9, 42, 110
1, 260640, Note_on_c, 9, 42, 0
1, 260659, Note_on_c, 9, 38, 0
1, 260660, Note_on_c, 9, 39, 127
1, 260699, Note_on_c, 9, 39, 0
1, 260880, Note_on_c, 9, 42, 50
1, 260892, Note_on_c, 9, 42, 0
1, 261120, Note_on_c, 9, 42, 110
1, 261120, Note_on_c, 9, 36, 90
1, 261132, Note_on_c, 9, 42, 0
1, 261360, Note_on_c, 9, 42, 50
1, 261372, Note_on_c, 9, 42, 0
1, 261599, Note_on_c, 9, 36, 0
1, 261600, Note_on_c, 9, 38, 115
1, 261600, Note_on_c, 9, 42, 110
1, 261600, Note_on_c, 9, 36, 90
1, 261612, Note_on_c, 9, 42, 0
1, 261839, Note_on_c, 9, 38, 0
1, 261840, Note_on_c, 9, 42, 50
1, 261852, Note_on_c, 9, 42, 0
1, 262079, Note_on_c, 9, 36, 0
1, 262080, Note_on_c, 9, 42, 110
1, 262092, Note_on_c, 9, 42, 0
1, 262320, Note_on_c, 9, 42, 50
1, 262320, Note_on_c, 9, 36, 90
1, 262332, Note_on_c, 9, 42, 0
1, 262559, Note_on_c, 9, 36, 0
1, 262560, Note_on_c, 9, 38, 115
1, 262560, Note_on_c, 9, 42, 110
1, 262560, Note_on_c, 9, 42, 0
1, 262579, Note_on_c, 9, 38, 0
1, 262580, Note_on_c, 9, 39, 127
1, 262619, Note_on_c, 9, 39, 0
1, 262800, Note_on_c, 9, 42, 50
1, 262812, Note_on_c, 9, 42, 0
1, 263040, Note_on_c, 9, 42, 110
1, 263040, Note_on_c, 9, 36, 90
1, 263052, Note_on_c, 9, 42, 0
1, 263280, Note_on_c, 9, 42, 50
1, 263292, Note_on_c, 9, 42, 0
1, 263519, Note_on_c, 9, 36, 0
1, 263520, Note_on_c, 9, 38, 115
1, 263520, Note_on_c, 9, 42, 110
1, 263532, Note_on_c, 9, 42, 0
1, 263759, Note_on_c, 9, 38, 0
1, 263760, Note_on_c, 9, 42, 50
1, 263772, Note_on_c, 9, 42, 0
1, 264000, Note_on_c, 9, 42, 110
1, 264000, Note_on_c, 9, 36, 90
1, 264012, Note_on_c, 9, 42, 0
1, 264240, Note_on_c, 9, 42, 50
1, 264252, Note_on_c, 9, 42, 0
1, 264479, Note_on_c, 9, 36, 0
1, 264480, Note_on_c, 9, 38, 115
1, 264480, Note_on_c, 9, 42, 110
1, 264480, Note_on_c, 9, 42, 0
1, 264499, Note_on_c, 9, 38, 0
1, 264500, Note_on_c, 9, 39, 127
1, 264539, Note_on_c, 9, 39, 0
1, 264720, Note_on_c, 9, 42, 50
1, 264732, Note_on_c, 9, 42, 0
1, 264960, Note_on_c, 9, 42, 110
1, 264960, Note_on_c, 9, 36, 90
1, 264972, Note_on_c, 9, 42, 0
1, 265200, Note_on_c, 9, 42, 50
1, 265212, Note_on_c, 9, 42, 0
1, 265439, Note_on_c, 9, 36, 0
1, 265440, Note_on_c, 9, 38, 115
1, 265440, Note_on_c, 9, 42, 110
1, 265440, Note_on_c, 9, 36, 90
1, 265452, Note_on_c, 9, 42, 0
1, 265679, Note_on_c, 9, 38, 0
1, 265680, Note_on_c, 9, 42, 50
1, 265692, Note_on_c, 9, 42, 0
1, 265919, Note_on_c, 9, 36, 0
1, 265920, Note_on_c, 9, 42, 110
1, 265932, Note_on_c, 9, 42, 0
1, 266160, Note_on_c, 9, 42, 50
1, 266160, Note_on_c, 9, 36, 90
1, 266172, Note_on_c, 9, 42, 0
1, 266399, Note_on_c, 9, 36, 0
1, 266400, Note_on_c, 9, 38, 115
1, 266400, Note_on_c, 9, 42, 110
1, 266400, Note_on_c, 9, 42, 0
1, 266419, Note_on_c, 9, 38, 0
1, 266420, Note_on_c, 9, 39, 127
1, 266459, Note_on_c, 9, 39, 0
1, 266640, Note_on_c, 9, 42, 50
1, 266652, Note_on_c, 9, 42, 0
1, 266880, Note_on_c, 9, 42, 110
1, 266880, Note_on_c, 9, 36, 90
1, 266892, Note_on_c, 9, 42, 0
1, 267120, Note_on_c, 9, 42, 50
1, 267132, Note_on_c, 9, 42, 0
1, 267359, Note_on_c, 9, 36, 0
1, 267360, Note_on_c, 9, 38, 115
1, 267360, Note_on_c, 9, 42, 110
1, 267372, Note_on_c, 9, 42, 0
1, 267599, Note_on_c, 9, 38, 0
1, 267600, Note_on_c, 9, 42, 50
1, 267612, Note_on_c, 9, 42, 0
1, 267840, Note_on_c, 9, 42, 110
1, 267840, Note_on_c, 9, 36, 90
1, 267852, Note_on_c, 9, 42, 0
1, 268080, Note_on_c, 9, 42, 50
1, 268092, Note_on_c, 9, 42, 0
1, 268319, Note_on_c, 9, 36, 0
1, 268320, Note_on_c, 9, 38, 115
1, 268320, Note_on_c, 9, 42, 110
1, 268320, Note_on_c, 9, 42, 0
1, 268339, Note_on_c, 9, 38, 0
1, 268340, Note_on_c, 9, 39, 127
1, 268379, Note_on_c, 9, 39, 0
1, 268560, Note_on_c, 9, 42, 50
1, 268572, Note_on_c, 9, 42, 0
1, 268800, Note_on_c, 9, 42, 110
1, 268800, Note_on_c, 9, 36, 90
1, 268812, Note_on_c, 9, 42, 0
1, 269040, Note_on_c, 9, 42, 50
1, 269052, Note_on_c, 9, 42, 0
1, 269279, Note_on_c, 9, 36, 0
1, 269280, Note_on_c, 9, 38, 115
1, 269280, Note_on_c, 9, 42, 110
1, 269280, Note_on_c, 9, 36, 90
1, 269292, Note_on_c, 9, 42, 0
1, 269519, Note_on_c, 9, 38, 0
1, 269520, Note_on_c, 9, 42, 50
1, 269532, Note_on_c, 9, 42, 0
1, 269759, Note_on_c, 9, 36, 0
1, 269760, Note_on_c, 9, 42, 110
1, 269772, Note_on_c, 9, 42, 0
1, 270000, Note_on_c, 9, 42, 50
1, 270000, Note_on_c, 9, 36, 90
1, 270012, Note_on_c, 9, 42, 0
1, 270239, Note_on_c, 9, 36, 0
1, 270240, Note_on_c, 9, 38, 115
1, 270240, Note_on_c, 9, 42, 110
1, 270240, Note_on_c, 9, 42, 0
1, 270259, Note_on_c, 9, 38, 0
1, 270260, Note_on_c, 9, 39, 127
1, 270299, Note_on_c, 9, 39, 0
1, 270480, Note_on_c, 9, 42, 50
1, 270492, Note_on_c, 9, 42, 0
1, 270720, Note_on_c, 9, 42, 110
1, 270720, Note_on_c, 9, 36, 90
1, 270732, Note_on_c, 9, 42, 0
1, 270960, Note_on_c, 9, 42, 50
1, 270972, Note_on_c, 9, 42, 0
1, 271199, Note_on_c, 9, 36, 0
1, 271200, Note_on_c, 9, 38, 115
1, 271200, Note_on_c, 9, 42, 110
1, 271212, Note_on_c, 9, 42, 0
1, 271439, Note_on_c, 9, 38, 0
1, 271440, Note_on_c, 9, 42, 50
1, 271452, Note_on_c, 9, 42, 0
1, 271680, Note_on_c, 9, 42, 110
1, 271680, Note_on_c, 9, 36, 90
1, 271692, Note_on_c, 9, 42, 0
1, 271920, Note_on_c, 9, 42, 50
1, 271932, Note_on_c, 9, 42, 0
1, 272159, Note_on_c, 9, 36, 0
1, 272160, Note_on_c, 9, 38, 115
1, 272160, Note_on_c, 9, 42, 110
1, 272160, Note_on_c, 9, 42, 0
1, 272179, Note_on_c, 9, 38, 0
1, 272180, Note_on_c, 9, 39, 127
1, 272219, Note_on_c, 9, 39, 0
1, 272400, Note_on_c, 9, 42, 50
1, 272412, Note_on_c, 9, 42, 0
1, 272640, Note_on_c, 9, 42, 110
1, 272640, Note_on_c, 9, 36, 90
1, 272652, Note_on_c, 9, 42, 0
1, 272880, Note_on_c, 9, 42, 50
1, 272892, Note_on_c, 9, 42, 0
1, 273119, Note_on_c, 9, 36, 0
1, 273120, Note_on_c, 9, 38, 115
1, 273120, Note_on_c, 9, 42, 110
1, 273120, Note_on_c, 9, 36, 90
1, 273132, Note_on_c, 9, 42, 0
1, 273359, Note_on_c, 9, 38, 0
1, 273360, Note_on_c, 9, 42, 50
1, 273372, Note_on_c, 9, 42, 0
1, 273599, Note_on_c, 9, 36, 0
1, 273600, Note_on_c, 9, 42, 110
1, 273612, Note_on_c, 9, 42, 0
1, 273840, Note_on_c, 9, 42, 50
1, 273840, Note_on_c, 9, 36, 90
1, 273852, Note_on_c, 9, 42, 0
1, 274079, Note_on_c, 9, 36, 0
1, 274080, Note_on_c, 9, 38, 115
1, 274080, Note_on_c, 9, 42, 110
1, 274080, Note_on_c, 9, 42, 0
1, 274099, Note_on_c, 9, 38, 0
1, 274100, Note_on_c, 9, 39, 127
1, 274139, Note_on_c, 9, 39, 0
1, 274320, Note_on_c, 9, 42, 50
1, 274332, Note_on_c, 9, 42, 0
1, 274560, Note_on_c, 9, 42, 110
1, 274560, Note_on_c, 9, 36, 90
1, 274572, Note_on_c, 9, 42, 0
1, 274800, Note_on_c, 9, 42, 50
1, 274812, Note_on_c, 9, 42, 0
1, 275039, Note_on_c, 9, 36, 0
1, 275040, Note_on_c, 9, 38, 115
1, 275040, Note_on_c, 9, 42, 110
1, 275052, Note_on_c, 9, 42, 0
1, 275279, Note_on_c, 9, 38, 0
1, 275280, Note_on_c, 9, 42, 50
1, 275292, Note_on_c, 9, 42, 0
1, 275520, Note_on_c, 9, 42, 110
1, 275520, Note_on_c, 9, 36, 90
1, 275532, Note_on_c, 9, 42, 0
1, 275760, Note_on_c, 9, 42, 50
1, 275772, Note_on_c, 9, 42, 0
1, 275999, Note_on_c, 9, 36, 0
1, 276000, Note_on_c, 9, 38, 115
1, 276000, Note_on_c, 9, 42, 110
1, 276000, Note_on_c, 9, 42, 0
1, 276019, Note_on_c, 9, 38, 0
1, 276020, Note_on_c, 9, 39, 127
1, 276059, Note_on_c, 9, 39, 0
1, 276240, Note_on_c, 9, 42, 50
1, 276252, Note_on_c, 9, 42, 0
1, 276480, Note_on_c, 9, 42, 110
1, 276480, Note_on_c, 9, 36, 90
1, 276492, Note_on_c, 9, 42, 0
1, 276720, Note_on_c, 9, 42, 50
1, 276732, Note_on_c, 9, 42, 0
1, 276959, Note_on_c, 9, 36, 0
1, 276960, Note_on_c, 9, 38, 115
1, 276960, Note_on_c, 9, 42, 110
1, 276960, Note_on_c, 9, 36, 90
1, 276972, Note_on_c, 9, 42, 0
1, 277199, Note_on_c, 9, 38, 0
1, 277200, Note_on_c, 9, 42, 50
1, 277212, Note_on_c, 9, 42, 0
1, 277439, Note_on_c, 9, 36, 0
1, 277440, Note_on_c, 9, 42, 110
1, 277452, Note_on_c, 9, 42, 0
1, 277680, Note_on_c, 9, 42, 50
1, 277680, Note_on_c, 9, 36, 90
1, 277692, Note_on_c, 9, 42, 0
1, 277919, Note_on_c, 9, 36, 0
1, 277920, Note_on_c, 9, 38, 115
1, 277920, Note_on_c, 9, 42, 110
1, 277920, Note_on_c, 9, 42, 0
1, 277939, Note_on_c, 9, 38, 0
1, 277940, Note_on_c, 9, 39, 127
1, 277979, Note_on_c, 9, 39, 0
1, 278160, Note_on_c, 9, 42, 50
1, 278172, Note_on_c, 9, 42, 0
1, 278400, Note_on_c, 9, 42, 110
1, 278400, Note_on_c, 9, 36, 90
1, 278412, Note_on_c, 9, 42, 0
1, 278640, Note_on_c, 9, 42, 50
1, 278652, Note_on_c, 9, 42, 0
1, 278879, Note_on_c, 9, 36, 0
1, 278880, Note_on_c, 9, 38, 115
1, 278880, Note_on_c, 9, 42, 110
1, 278892, Note_on_c, 9, 42, 0
1, 279119, Note_on_c, 9, 38, 0
1, 279120, Note_on_c, 9, 42, 50
1, 279132, Note_on_c, 9, 42, 0
1, 279360, Note_on_c, 9, 42, 110
1, 279360, Note_on_c, 9, 36, 90
1, 279372, Note_on_c, 9, 42, 0
1, 279600, Note_on_c, 9, 42, 50
1, 279612, Note_on_c, 9, 42, 0
1, 279839, Note_on_c, 9, 36, 0
1, 279840, Note_on_c, 9, 38, 115
1, 279840, Note_on_c, 9, 42, 110
1, 279840, Note_on_c, 9, 42, 0
1, 279859, Note_on_c, 9, 38, 0
1, 279860, Note_on_c, 9, 39, 127
1, 279899, Note_on_c, 9, 39, 0
1, 280080, Note_on_c, 9, 42, 50
1, 280092, Note_on_c, 9, 42, 0
1, 280320, Note_on_c, 9, 42, 110
1, 280320, Note_on_c, 9, 36, 90
1, 280332, Note_on_c, 9, 42, 0
1, 280560, Note_on_c, 9, 42, 50
1, 280572, Note_on_c, 9, 42, 0
1, 280799, Note_on_c, 9, 36, 0
1, 280800, Note_on_c, 9, 38, 115
1, 280800, Note_on_c, 9, 42, 110
1, 280800, Note_on_c, 9, 36, 90
1, 280812, Note_on_c, 9, 42, 0
1, 281039, Note_on_c, 9, 38, 0
1, 281040, Note_on_c, 9, 42, 50
1, 281052, Note_on_c, 9, 42, 0
1, 281279, Note_on_c, 9, 36, 0
1, 281280, Note_on_c, 9, 42, 110
1, 281292, Note_on_c, 9, 42, 0
1, 281520, Note_on_c, 9, 42, 50
1, 281520, Note_on_c, 9, 36, 90
1, 281532, Note_on_c, 9, 42, 0
1, 281759, Note_on_c, 9, 36, 0
1, 281760, Note_on_c, 9, 38, 115
1, 281760, Note_on_c, 9, 42, 110
1, 281760, Note_on_c, 9, 42, 0
1, 281779, Note_on_c, 9, 38, 0
1, 281780, Note_on_c, 9, 39, 127
1, 281819, Note_on_c, 9, 39, 0
1, 282000, Note_on_c, 9, 42, 50
1, 282012, Note_on_c, 9, 42, 0
1, 282013, End_track
0, 0, End_of_file
