0, 0, Header, 1, 1, 480
1, 0, Start_track
1, 0, Title_t, "Drumset"
1, 0, Time_signature, 4, 2, 24, 8
1, 0, Key_signature, 0, "major"
1, 0, Tempo, 1000000
1, 0, Control_c, 9, 121, 0
1, 0, Program_c, 9, 0
1, 0, Control_c, 9, 7, 100
1, 0, Control_c, 9, 10, 64
1, 0, Control_c, 9, 91, 0
1, 0, Control_c, 9, 93, 0
1, 0, MIDI_port, 0
1, 25440, Note_on_c, 9, 54, 110
1, 25919, Note_on_c, 9, 54, 0
1, 27360, Note_on_c, 9, 54, 105
1, 27839, Note_on_c, 9, 54, 0
1, 29280, Note_on_c, 9, 54, 112
1, 29759, Note_on_c, 9, 54, 0
1, 31200, Note_on_c, 9, 54, 104
1, 31679, Note_on_c, 9, 54, 0
1, 32640, Note_on_c, 9, 42, 110
1, 32640, Note_on_c, 9, 36, 127
1, 32641, Note_on_c, 9, 42, 0
1, 32800, Note_on_c, 9, 42, 65
1, 32800, Note_on_c, 9, 42, 0
1, 32960, Note_on_c, 9, 42, 65
1, 32960, Note_on_c, 9, 42, 0
1, 33119, Note_on_c, 9, 36, 0
1, 33120, Note_on_c, 9, 37, 127
1, 33120, Note_on_c, 9, 42, 100
1, 33121, Note_on_c, 9, 37, 0
1, 33121, Note_on_c, 9, 42, 0
1, 33280, Note_on_c, 9, 42, 65
1, 33280, Note_on_c, 9, 42, 0
1, 33440, Note_on_c, 9, 42, 64
1, 33440, Note_on_c, 9, 42, 0
1, 33600, Note_on_c, 9, 42, 87
1, 33601, Note_on_c, 9, 42, 0
1, 33760, Note_on_c, 9, 42, 63
1, 33760, Note_on_c, 9, 42, 0
1, 33920, Note_on_c, 9, 42, 62
1, 33920, Note_on_c, 9, 42, 0
1, 34080, Note_on_c, 9, 37, 127
1, 34080, Note_on_c, 9, 42, 87
1, 34081, Note_on_c, 9, 37, 0
1, 34081, Note_on_c, 9, 42, 0
1, 34240, Note_on_c, 9, 42, 68
1, 34240, Note_on_c, 9, 42, 0
1, 34400, Note_on_c, 9, 42, 72
1, 34400, Note_on_c, 9, 42, 0
1, 34560, Note_on_c, 9, 42, 96
1, 34560, Note_on_c, 9, 36, 127
1, 34561, Note_on_c, 9, 42, 0
1, 34720, Note_on_c, 9, 42, 67
1, 34720, Note_on_c, 9, 42, 0
1, 34880, Note_on_c, 9, 42, 72
1, 34880, Note_on_c, 9, 42, 0
1, 35039, Note_on_c, 9, 36, 0
1, 35040, Note_on_c, 9, 37, 127
1, 35040, Note_on_c, 9, 42, 102
1, 35041, Note_on_c, 9, 37, 0
1, 35041, Note_on_c, 9, 42, 0
1, 35200, Note_on_c, 9, 42, 67
1, 35200, Note_on_c, 9, 42, 0
1, 35360, Note_on_c, 9, 42, 63
1, 35360, Note_on_c, 9, 42, 0
1, 35520, Note_on_c, 9, 42, 91
1, 35521, Note_on_c, 9, 42, 0
1, 35680, Note_on_c, 9, 42, 64
1, 35680, Note_on_c, 9, 42, 0
1, 35840, Note_on_c, 9, 42, 65
1, 35840, Note_on_c, 9, 42, 0
1, 36000, Note_on_c, 9, 37, 127
1, 36000, Note_on_c, 9, 42, 99
1, 36001, Note_on_c, 9, 37, 0
1, 36001, Note_on_c, 9, 42, 0
1, 36160, Note_on_c, 9, 42, 79
1, 36160, Note_on_c, 9, 42, 0
1, 36320, Note_on_c, 9, 44, 100
1, 36320, Note_on_c, 9, 44, 0
1, 36320, Note_on_c, 9, 36, 127
1, 36359, Note_on_c, 9, 36, 0
1, 36480, Note_on_c, 9, 42, 103
1, 36480, Note_on_c, 9, 36, 127
1, 36481, Note_on_c, 9, 42, 0
1, 36640, Note_on_c, 9, 42, 69
1, 36640, Note_on_c, 9, 42, 0
1, 36800, Note_on_c, 9, 42, 70
1, 36800, Note_on_c, 9, 42, 0
1, 36959, Note_on_c, 9, 36, 0
1, 36960, Note_on_c, 9, 37, 127
1, 36960, Note_on_c, 9, 42, 97
1, 36961, Note_on_c, 9, 37, 0
1, 36961, Note_on_c, 9, 42, 0
1, 37120, Note_on_c, 9, 42, 64
1, 37120, Note_on_c, 9, 42, 0
1, 37280, Note_on_c, 9, 42, 59
1, 37280, Note_on_c, 9, 42, 0
1, 37440, Note_on_c, 9, 42, 80
1, 37441, Note_on_c, 9, 42, 0
1, 37600, Note_on_c, 9, 42, 59
1, 37600, Note_on_c, 9, 42, 0
1, 37760, Note_on_c, 9, 42, 66
1, 37760, Note_on_c, 9, 42, 0
1, 37920, Note_on_c, 9, 37, 127
1, 37920, Note_on_c, 9, 42, 100
1, 37921, Note_on_c, 9, 37, 0
1, 37921, Note_on_c, 9, 42, 0
1, 38080, Note_on_c, 9, 42, 70
1, 38080, Note_on_c, 9, 42, 0
1, 38240, Note_on_c, 9, 42, 70
1, 38240, Note_on_c, 9, 42, 0
1, 38240, Note_on_c, 9, 36, 127
1, 38399, Note_on_c, 9, 36, 0
1, 38400, Note_on_c, 9, 42, 99
1, 38400, Note_on_c, 9, 36, 127
1, 38401, Note_on_c, 9, 42, 0
1, 38560, Note_on_c, 9, 42, 73
1, 38560, Note_on_c, 9, 42, 0
1, 38720, Note_on_c, 9, 42, 75
1, 38720, Note_on_c, 9, 42, 0
1, 38879, Note_on_c, 9, 36, 0
1, 38880, Note_on_c, 9, 37, 127
1, 38880, Note_on_c, 9, 42, 98
1, 38881, Note_on_c, 9, 37, 0
1, 38881, Note_on_c, 9, 42, 0
1, 39040, Note_on_c, 9, 42, 66
1, 39040, Note_on_c, 9, 42, 0
1, 39200, Note_on_c, 9, 42, 80
1, 39200, Note_on_c, 9, 42, 0
1, 39360, Note_on_c, 9, 42, 91
1, 39361, Note_on_c, 9, 42, 0
1, 39520, Note_on_c, 9, 42, 74
1, 39520, Note_on_c, 9, 42, 0
1, 39680, Note_on_c, 9, 42, 70
1, 39680, Note_on_c, 9, 42, 0
1, 39840, Note_on_c, 9, 37, 127
1, 39840, Note_on_c, 9, 42, 98
1, 39841, Note_on_c, 9, 37, 0
1, 39841, Note_on_c, 9, 42, 0
1, 40000, Note_on_c, 9, 42, 66
1, 40000, Note_on_c, 9, 42, 0
1, 40000, Note_on_c, 9, 36, 127
1, 40159, Note_on_c, 9, 36, 0
1, 40160, Note_on_c, 9, 42, 93
1, 40160, Note_on_c, 9, 42, 0
1, 40160, Note_on_c, 9, 36, 127
1, 40319, Note_on_c, 9, 36, 0
1, 40320, Note_on_c, 9, 42, 100
1, 40320, Note_on_c, 9, 36, 127
1, 40321, Note_on_c, 9, 42, 0
1, 40480, Note_on_c, 9, 42, 68
1, 40480, Note_on_c, 9, 42, 0
1, 40640, Note_on_c, 9, 42, 73
1, 40640, Note_on_c, 9, 42, 0
1, 40799, Note_on_c, 9, 36, 0
1, 40800, Note_on_c, 9, 37, 127
1, 40800, Note_on_c, 9, 42, 100
1, 40801, Note_on_c, 9, 37, 0
1, 40801, Note_on_c, 9, 42, 0
1, 40960, Note_on_c, 9, 42, 83
1, 40960, Note_on_c, 9, 42, 0
1, 41120, Note_on_c, 9, 42, 78
1, 41120, Note_on_c, 9, 42, 0
1, 41280, Note_on_c, 9, 42, 89
1, 41281, Note_on_c, 9, 42, 0
1, 41440, Note_on_c, 9, 42, 81
1, 41440, Note_on_c, 9, 42, 0
1, 41600, Note_on_c, 9, 42, 77
1, 41600, Note_on_c, 9, 42, 0
1, 41760, Note_on_c, 9, 37, 127
1, 41760, Note_on_c, 9, 42, 103
1, 41761, Note_on_c, 9, 37, 0
1, 41761, Note_on_c, 9, 42, 0
1, 41920, Note_on_c, 9, 42, 77
1, 41920, Note_on_c, 9, 42, 0
1, 41920, Note_on_c, 9, 36, 127
1, 42079, Note_on_c, 9, 36, 0
1, 42080, Note_on_c, 9, 42, 104
1, 42080, Note_on_c, 9, 42, 0
1, 42080, Note_on_c, 9, 36, 127
1, 42239, Note_on_c, 9, 36, 0
1, 42240, Note_on_c, 9, 42, 115
1, 42240, Note_on_c, 9, 36, 127
1, 42241, Note_on_c, 9, 42, 0
1, 42400, Note_on_c, 9, 42, 83
1, 42400, Note_on_c, 9, 42, 0
1, 42560, Note_on_c, 9, 42, 64
1, 42560, Note_on_c, 9, 42, 0
1, 42719, Note_on_c, 9, 36, 0
1, 42720, Note_on_c, 9, 38, 127
1, 42720, Note_on_c, 9, 42, 110
1, 42721, Note_on_c, 9, 42, 0
1, 42839, Note_on_c, 9, 38, 0
1, 42880, Note_on_c, 9, 42, 78
1, 42880, Note_on_c, 9, 42, 0
1, 43040, Note_on_c, 9, 42, 73
1, 43040, Note_on_c, 9, 42, 0
1, 43040, Note_on_c, 9, 36, 127
1, 43199, Note_on_c, 9, 36, 0
1, 43200, Note_on_c, 9, 42, 106
1, 43200, Note_on_c, 9, 36, 127
1, 43201, Note_on_c, 9, 42, 0
1, 43360, Note_on_c, 9, 42, 70
1, 43360, Note_on_c, 9, 42, 0
1, 43520, Note_on_c, 9, 42, 71
1, 43520, Note_on_c, 9, 42, 0
1, 43679, Note_on_c, 9, 36, 0
1, 43680, Note_on_c, 9, 38, 127
1, 43680, Note_on_c, 9, 42, 112
1, 43681, Note_on_c, 9, 42, 0
1, 43799, Note_on_c, 9, 38, 0
1, 43840, Note_on_c, 9, 42, 72
1, 43840, Note_on_c, 9, 42, 0
1, 44000, Note_on_c, 9, 44, 80
1, 44000, Note_on_c, 9, 44, 0
1, 44160, Note_on_c, 9, 42, 105
1, 44160, Note_on_c, 9, 36, 127
1, 44161, Note_on_c, 9, 42, 0
1, 44320, Note_on_c, 9, 42, 72
1, 44320, Note_on_c, 9, 42, 0
1, 44480, Note_on_c, 9, 42, 71
1, 44480, Note_on_c, 9, 42, 0
1, 44639, Note_on_c, 9, 36, 0
1, 44640, Note_on_c, 9, 38, 127
1, 44640, Note_on_c, 9, 42, 108
1, 44641, Note_on_c, 9, 42, 0
1, 44759, Note_on_c, 9, 38, 0
1, 44800, Note_on_c, 9, 42, 73
1, 44800, Note_on_c, 9, 42, 0
1, 44960, Note_on_c, 9, 42, 87
1, 44960, Note_on_c, 9, 42, 0
1, 44960, Note_on_c, 9, 36, 127
1, 45119, Note_on_c, 9, 36, 0
1, 45120, Note_on_c, 9, 42, 108
1, 45120, Note_on_c, 9, 36, 127
1, 45121, Note_on_c, 9, 42, 0
1, 45280, Note_on_c, 9, 42, 72
1, 45280, Note_on_c, 9, 42, 0
1, 45440, Note_on_c, 9, 42, 72
1, 45440, Note_on_c, 9, 42, 0
1, 45599, Note_on_c, 9, 36, 0
1, 45600, Note_on_c, 9, 38, 127
1, 45600, Note_on_c, 9, 42, 110
1, 45602, Note_on_c, 9, 42, 0
1, 45759, Note_on_c, 9, 38, 0
1, 45760, Note_on_c, 9, 42, 84
1, 45760, Note_on_c, 9, 42, 0
1, 45920, Note_on_c, 9, 44, 103
1, 45920, Note_on_c, 9, 44, 0
1, 46080, Note_on_c, 9, 42, 104
1, 46080, Note_on_c, 9, 36, 127
1, 46081, Note_on_c, 9, 42, 0
1, 46240, Note_on_c, 9, 42, 81
1, 46240, Note_on_c, 9, 42, 0
1, 46400, Note_on_c, 9, 42, 78
1, 46400, Note_on_c, 9, 42, 0
1, 46559, Note_on_c, 9, 36, 0
1, 46560, Note_on_c, 9, 38, 127
1, 46560, Note_on_c, 9, 42, 110
1, 46561, Note_on_c, 9, 42, 0
1, 46679, Note_on_c, 9, 38, 0
1, 46720, Note_on_c, 9, 42, 82
1, 46720, Note_on_c, 9, 42, 0
1, 46880, Note_on_c, 9, 42, 94
1, 46880, Note_on_c, 9, 42, 0
1, 46880, Note_on_c, 9, 36, 127
1, 47039, Note_on_c, 9, 36, 0
1, 47040, Note_on_c, 9, 42, 112
1, 47040, Note_on_c, 9, 36, 127
1, 47041, Note_on_c, 9, 42, 0
1, 47200, Note_on_c, 9, 42, 80
1, 47200, Note_on_c, 9, 42, 0
1, 47360, Note_on_c, 9, 42, 73
1, 47360, Note_on_c, 9, 42, 0
1, 47519, Note_on_c, 9, 36, 0
1, 47520, Note_on_c, 9, 38, 127
1, 47520, Note_on_c, 9, 42, 112
1, 47521, Note_on_c, 9, 42, 0
1, 47639, Note_on_c, 9, 38, 0
1, 47680, Note_on_c, 9, 42, 88
1, 47680, Note_on_c, 9, 42, 0
1, 47840, Note_on_c, 9, 44, 98
1, 47840, Note_on_c, 9, 44, 0
1, 48000, Note_on_c, 9, 42, 127
1, 48000, Note_on_c, 9, 49, 115
1, 48000, Note_on_c, 9, 36, 127
1, 48001, Note_on_c, 9, 42, 0
1, 48001, Note_on_c, 9, 49, 0
1, 48160, Note_on_c, 9, 42, 69
1, 48160, Note_on_c, 9, 42, 0
1, 48320, Note_on_c, 9, 42, 72
1, 48320, Note_on_c, 9, 42, 0
1, 48479, Note_on_c, 9, 36, 0
1, 48480, Note_on_c, 9, 38, 127
1, 48480, Note_on_c, 9, 42, 115
1, 48480, Note_on_c, 9, 49, 114
1, 48481, Note_on_c, 9, 42, 0
1, 48481, Note_on_c, 9, 49, 0
1, 48599, Note_on_c, 9, 38, 0
1, 48640, Note_on_c, 9, 42, 93
1, 48640, Note_on_c, 9, 42, 0
1, 48800, Note_on_c, 9, 44, 112
1, 48800, Note_on_c, 9, 44, 0
1, 48960, Note_on_c, 9, 42, 127
1, 48960, Note_on_c, 9, 49, 127
1, 48960, Note_on_c, 9, 36, 127
1, 48961, Note_on_c, 9, 42, 0
1, 48961, Note_on_c, 9, 49, 0
1, 49120, Note_on_c, 9, 42, 77
1, 49120, Note_on_c, 9, 42, 0
1, 49280, Note_on_c, 9, 42, 76
1, 49280, Note_on_c, 9, 42, 0
1, 49439, Note_on_c, 9, 36, 0
1, 49440, Note_on_c, 9, 38, 127
1, 49440, Note_on_c, 9, 42, 112
1, 49441, Note_on_c, 9, 42, 0
1, 49559, Note_on_c, 9, 38, 0
1, 49600, Note_on_c, 9, 42, 70
1, 49600, Note_on_c, 9, 42, 0
1, 49760, Note_on_c, 9, 42, 87
1, 49760, Note_on_c, 9, 42, 0
1, 49760, Note_on_c, 9, 36, 127
1, 49919, Note_on_c, 9, 36, 0
1, 49920, Note_on_c, 9, 42, 115
1, 49920, Note_on_c, 9, 36, 127
1, 49921, Note_on_c, 9, 42, 0
1, 50080, Note_on_c, 9, 42, 73
1, 50080, Note_on_c, 9, 42, 0
1, 50240, Note_on_c, 9, 42, 70
1, 50240, Note_on_c, 9, 42, 0
1, 50320, Note_on_c, 9, 38, 127
1, 50339, Note_on_c, 9, 38, 0
1, 50399, Note_on_c, 9, 36, 0
1, 50400, Note_on_c, 9, 38, 127
1, 50559, Note_on_c, 9, 38, 0
1, 50560, Note_on_c, 9, 48, 127
1, 50639, Note_on_c, 9, 48, 0
1, 50720, Note_on_c, 9, 45, 127
1, 50720, Note_on_c, 9, 36, 127
1, 50799, Note_on_c, 9, 45, 0
1, 50800, Note_on_c, 9, 41, 127
1, 50879, Note_on_c, 9, 36, 0
1, 50879, Note_on_c, 9, 41, 0
1, 50880, Note_on_c, 9, 42, 112
1, 50880, Note_on_c, 9, 49, 127
1, 50880, Note_on_c, 9, 36, 127
1, 50881, Note_on_c, 9, 42, 0
1, 50881, Note_on_c, 9, 49, 0
1, 51040, Note_on_c, 9, 42, 69
1, 51040, Note_on_c, 9, 42, 0
1, 51200, Note_on_c, 9, 42, 77
1, 51200, Note_on_c, 9, 42, 0
1, 51359, Note_on_c, 9, 36, 0
1, 51360, Note_on_c, 9, 38, 127
1, 51360, Note_on_c, 9, 42, 115
1, 51361, Note_on_c, 9, 42, 0
1, 51479, Note_on_c, 9, 38, 0
1, 51520, Note_on_c, 9, 42, 68
1, 51520, Note_on_c, 9, 42, 0
1, 51680, Note_on_c, 9, 42, 95
1, 51680, Note_on_c, 9, 42, 0
1, 51680, Note_on_c, 9, 36, 127
1, 51839, Note_on_c, 9, 36, 0
1, 51840, Note_on_c, 9, 42, 112
1, 51840, Note_on_c, 9, 36, 127
1, 51841, Note_on_c, 9, 42, 0
1, 52000, Note_on_c, 9, 42, 79
1, 52000, Note_on_c, 9, 42, 0
1, 52160, Note_on_c, 9, 42, 75
1, 52160, Note_on_c, 9, 42, 0
1, 52319, Note_on_c, 9, 36, 0
1, 52320, Note_on_c, 9, 38, 127
1, 52320, Note_on_c, 9, 42, 110
1, 52321, Note_on_c, 9, 42, 0
1, 52439, Note_on_c, 9, 38, 0
1, 52480, Note_on_c, 9, 42, 79
1, 52480, Note_on_c, 9, 42, 0
1, 52640, Note_on_c, 9, 42, 90
1, 52640, Note_on_c, 9, 42, 0
1, 52640, Note_on_c, 9, 36, 127
1, 52799, Note_on_c, 9, 36, 0
1, 52800, Note_on_c, 9, 42, 110
1, 52800, Note_on_c, 9, 36, 127
1, 52801, Note_on_c, 9, 42, 0
1, 52960, Note_on_c, 9, 42, 65
1, 52960, Note_on_c, 9, 42, 0
1, 53120, Note_on_c, 9, 42, 76
1, 53120, Note_on_c, 9, 42, 0
1, 53279, Note_on_c, 9, 36, 0
1, 53280, Note_on_c, 9, 38, 127
1, 53280, Note_on_c, 9, 42, 112
1, 53281, Note_on_c, 9, 42, 0
1, 53399, Note_on_c, 9, 38, 0
1, 53440, Note_on_c, 9, 42, 64
1, 53440, Note_on_c, 9, 42, 0
1, 53600, Note_on_c, 9, 42, 94
1, 53600, Note_on_c, 9, 42, 0
1, 53600, Note_on_c, 9, 36, 127
1, 53759, Note_on_c, 9, 36, 0
1, 53760, Note_on_c, 9, 42, 110
1, 53760, Note_on_c, 9, 36, 127
1, 53761, Note_on_c, 9, 42, 0
1, 53920, Note_on_c, 9, 42, 71
1, 53920, Note_on_c, 9, 42, 0
1, 54080, Note_on_c, 9, 42, 76
1, 54080, Note_on_c, 9, 42, 0
1, 54239, Note_on_c, 9, 36, 0
1, 54240, Note_on_c, 9, 38, 127
1, 54240, Note_on_c, 9, 42, 112
1, 54242, Note_on_c, 9, 42, 0
1, 54399, Note_on_c, 9, 38, 0
1, 54400, Note_on_c, 9, 42, 83
1, 54400, Note_on_c, 9, 42, 0
1, 54560, Note_on_c, 9, 44, 103
1, 54560, Note_on_c, 9, 44, 0
1, 54720, Note_on_c, 9, 42, 108
1, 54720, Note_on_c, 9, 49, 114
1, 54720, Note_on_c, 9, 36, 127
1, 54721, Note_on_c, 9, 42, 0
1, 54721, Note_on_c, 9, 49, 0
1, 54880, Note_on_c, 9, 42, 73
1, 54880, Note_on_c, 9, 42, 0
1, 55040, Note_on_c, 9, 42, 69
1, 55040, Note_on_c, 9, 42, 0
1, 55199, Note_on_c, 9, 36, 0
1, 55200, Note_on_c, 9, 38, 127
1, 55200, Note_on_c, 9, 42, 112
1, 55201, Note_on_c, 9, 42, 0
1, 55319, Note_on_c, 9, 38, 0
1, 55360, Note_on_c, 9, 42, 72
1, 55360, Note_on_c, 9, 42, 0
1, 55520, Note_on_c, 9, 42, 93
1, 55520, Note_on_c, 9, 42, 0
1, 55520, Note_on_c, 9, 36, 127
1, 55679, Note_on_c, 9, 36, 0
1, 55680, Note_on_c, 9, 42, 112
1, 55680, Note_on_c, 9, 36, 127
1, 55681, Note_on_c, 9, 42, 0
1, 55840, Note_on_c, 9, 42, 69
1, 55840, Note_on_c, 9, 42, 0
1, 56000, Note_on_c, 9, 42, 79
1, 56000, Note_on_c, 9, 42, 0
1, 56159, Note_on_c, 9, 36, 0
1, 56160, Note_on_c, 9, 38, 127
1, 56160, Note_on_c, 9, 42, 110
1, 56161, Note_on_c, 9, 42, 0
1, 56279, Note_on_c, 9, 38, 0
1, 56320, Note_on_c, 9, 42, 65
1, 56320, Note_on_c, 9, 42, 0
1, 56480, Note_on_c, 9, 42, 77
1, 56480, Note_on_c, 9, 42, 0
1, 56640, Note_on_c, 9, 42, 108
1, 56640, Note_on_c, 9, 36, 127
1, 56641, Note_on_c, 9, 42, 0
1, 56800, Note_on_c, 9, 42, 64
1, 56800, Note_on_c, 9, 42, 0
1, 56960, Note_on_c, 9, 42, 63
1, 56960, Note_on_c, 9, 42, 0
1, 57119, Note_on_c, 9, 36, 0
1, 57120, Note_on_c, 9, 38, 127
1, 57120, Note_on_c, 9, 42, 108
1, 57121, Note_on_c, 9, 42, 0
1, 57239, Note_on_c, 9, 38, 0
1, 57280, Note_on_c, 9, 42, 65
1, 57280, Note_on_c, 9, 42, 0
1, 57440, Note_on_c, 9, 42, 104
1, 57440, Note_on_c, 9, 42, 0
1, 57440, Note_on_c, 9, 36, 127
1, 57599, Note_on_c, 9, 36, 0
1, 57600, Note_on_c, 9, 42, 119
1, 57600, Note_on_c, 9, 36, 127
1, 57601, Note_on_c, 9, 42, 0
1, 57760, Note_on_c, 9, 42, 72
1, 57760, Note_on_c, 9, 42, 0
1, 57920, Note_on_c, 9, 48, 119
1, 57920, Note_on_c, 9, 42, 87
1, 57920, Note_on_c, 9, 42, 0
1, 57959, Note_on_c, 9, 48, 0
1, 58079, Note_on_c, 9, 36, 0
1, 58080, Note_on_c, 9, 38, 127
1, 58080, Note_on_c, 9, 48, 127
1, 58080, Note_on_c, 9, 42, 110
1, 58081, Note_on_c, 9, 42, 0
1, 58199, Note_on_c, 9, 38, 0
1, 58199, Note_on_c, 9, 48, 0
1, 58240, Note_on_c, 9, 38, 127
1, 58240, Note_on_c, 9, 45, 127
1, 58240, Note_on_c, 9, 42, 96
1, 58240, Note_on_c, 9, 42, 0
1, 58259, Note_on_c, 9, 38, 0
1, 58259, Note_on_c, 9, 45, 0
1, 58400, Note_on_c, 9, 41, 126
1, 58400, Note_on_c, 9, 38, 127
1, 58400, Note_on_c, 9, 42, 112
1, 58400, Note_on_c, 9, 42, 0
1, 58439, Note_on_c, 9, 41, 0
1, 58439, Note_on_c, 9, 38, 0
1, 58560, Note_on_c, 9, 42, 112
1, 58560, Note_on_c, 9, 49, 125
1, 58560, Note_on_c, 9, 36, 127
1, 58561, Note_on_c, 9, 42, 0
1, 58561, Note_on_c, 9, 49, 0
1, 58720, Note_on_c, 9, 42, 75
1, 58720, Note_on_c, 9, 42, 0
1, 58880, Note_on_c, 9, 42, 74
1, 58880, Note_on_c, 9, 42, 0
1, 59039, Note_on_c, 9, 36, 0
1, 59040, Note_on_c, 9, 38, 127
1, 59040, Note_on_c, 9, 42, 115
1, 59041, Note_on_c, 9, 42, 0
1, 59159, Note_on_c, 9, 38, 0
1, 59200, Note_on_c, 9, 42, 71
1, 59200, Note_on_c, 9, 42, 0
1, 59360, Note_on_c, 9, 42, 98
1, 59360, Note_on_c, 9, 42, 0
1, 59360, Note_on_c, 9, 36, 127
1, 59519, Note_on_c, 9, 36, 0
1, 59520, Note_on_c, 9, 42, 115
1, 59520, Note_on_c, 9, 36, 127
1, 59521, Note_on_c, 9, 42, 0
1, 59680, Note_on_c, 9, 42, 65
1, 59680, Note_on_c, 9, 42, 0
1, 59840, Note_on_c, 9, 42, 67
1, 59840, Note_on_c, 9, 42, 0
1, 59999, Note_on_c, 9, 36, 0
1, 60000, Note_on_c, 9, 38, 127
1, 60000, Note_on_c, 9, 42, 112
1, 60002, Note_on_c, 9, 42, 0
1, 60159, Note_on_c, 9, 38, 0
1, 60160, Note_on_c, 9, 42, 76
1, 60160, Note_on_c, 9, 42, 0
1, 60320, Note_on_c, 9, 44, 93
1, 60320, Note_on_c, 9, 44, 0
1, 60480, Note_on_c, 9, 42, 108
1, 60480, Note_on_c, 9, 36, 127
1, 60481, Note_on_c, 9, 42, 0
1, 60640, Note_on_c, 9, 42, 77
1, 60640, Note_on_c, 9, 42, 0
1, 60800, Note_on_c, 9, 42, 80
1, 60800, Note_on_c, 9, 42, 0
1, 60959, Note_on_c, 9, 36, 0
1, 60960, Note_on_c, 9, 38, 127
1, 60960, Note_on_c, 9, 42, 106
1, 60961, Note_on_c, 9, 42, 0
1, 61079, Note_on_c, 9, 38, 0
1, 61120, Note_on_c, 9, 42, 89
1, 61120, Note_on_c, 9, 42, 0
1, 61280, Note_on_c, 9, 42, 102
1, 61280, Note_on_c, 9, 42, 0
1, 61280, Note_on_c, 9, 36, 127
1, 61439, Note_on_c, 9, 36, 0
1, 61440, Note_on_c, 9, 42, 110
1, 61440, Note_on_c, 9, 36, 127
1, 61441, Note_on_c, 9, 42, 0
1, 61600, Note_on_c, 9, 42, 77
1, 61600, Note_on_c, 9, 42, 0
1, 61760, Note_on_c, 9, 42, 76
1, 61760, Note_on_c, 9, 42, 0
1, 61919, Note_on_c, 9, 36, 0
1, 61920, Note_on_c, 9, 38, 127
1, 61920, Note_on_c, 9, 42, 110
1, 61922, Note_on_c, 9, 42, 0
1, 62079, Note_on_c, 9, 38, 0
1, 62080, Note_on_c, 9, 42, 91
1, 62080, Note_on_c, 9, 42, 0
1, 62240, Note_on_c, 9, 44, 98
1, 62240, Note_on_c, 9, 44, 0
1, 62400, Note_on_c, 9, 42, 123
1, 62400, Note_on_c, 9, 49, 125
1, 62400, Note_on_c, 9, 36, 127
1, 62410, Note_on_c, 9, 42, 0
1, 62410, Note_on_c, 9, 49, 0
1, 62879, Note_on_c, 9, 36, 0
1, 62880, Note_on_c, 9, 42, 115
1, 62880, Note_on_c, 9, 49, 127
1, 62880, Note_on_c, 9, 36, 127
1, 62890, Note_on_c, 9, 42, 0
1, 62890, Note_on_c, 9, 49, 0
1, 63359, Note_on_c, 9, 36, 0
1, 63360, Note_on_c, 9, 42, 108
1, 63360, Note_on_c, 9, 49, 118
1, 63360, Note_on_c, 9, 36, 127
1, 63364, Note_on_c, 9, 42, 0
1, 63364, Note_on_c, 9, 49, 0
1, 63680, Note_on_c, 9, 42, 57
1, 63680, Note_on_c, 9, 42, 0
1, 63839, Note_on_c, 9, 36, 0
1, 63840, Note_on_c, 9, 42, 93
1, 63844, Note_on_c, 9, 42, 0
1, 64160, Note_on_c, 9, 42, 55
1, 64160, Note_on_c, 9, 42, 0
1, 64320, Note_on_c, 9, 42, 74
1, 64324, Note_on_c, 9, 42, 0
1, 64640, Note_on_c, 9, 42, 59
1, 64640, Note_on_c, 9, 42, 0
1, 64800, Note_on_c, 9, 42, 70
1, 64801, Note_on_c, 9, 42, 0
1, 64960, Note_on_c, 9, 42, 72
1, 64960, Note_on_c, 9, 42, 0
1, 65040, Note_on_c, 9, 45, 107
1, 65119, Note_on_c, 9, 45, 0
1, 65120, Note_on_c, 9, 41, 107
1, 65120, Note_on_c, 9, 44, 86
1, 65120, Note_on_c, 9, 44, 0
1, 65159, Note_on_c, 9, 41, 0
1, 65280, Note_on_c, 9, 42, 110
1, 65280, Note_on_c, 9, 49, 97
1, 65280, Note_on_c, 9, 36, 127
1, 65281, Note_on_c, 9, 42, 0
1, 65281, Note_on_c, 9, 49, 0
1, 65440, Note_on_c, 9, 42, 69
1, 65440, Note_on_c, 9, 42, 0
1, 65600, Note_on_c, 9, 42, 64
1, 65600, Note_on_c, 9, 42, 0
1, 65759, Note_on_c, 9, 36, 0
1, 65760, Note_on_c, 9, 38, 127
1, 65760, Note_on_c, 9, 42, 112
1, 65761, Note_on_c, 9, 42, 0
1, 65879, Note_on_c, 9, 38, 0
1, 65920, Note_on_c, 9, 42, 65
1, 65920, Note_on_c, 9, 42, 0
1, 66080, Note_on_c, 9, 42, 76
1, 66080, Note_on_c, 9, 42, 0
1, 66240, Note_on_c, 9, 42, 110
1, 66240, Note_on_c, 9, 36, 127
1, 66241, Note_on_c, 9, 42, 0
1, 66400, Note_on_c, 9, 42, 70
1, 66400, Note_on_c, 9, 42, 0
1, 66560, Note_on_c, 9, 42, 63
1, 66560, Note_on_c, 9, 42, 0
1, 66719, Note_on_c, 9, 36, 0
1, 66720, Note_on_c, 9, 38, 127
1, 66720, Note_on_c, 9, 42, 106
1, 66721, Note_on_c, 9, 42, 0
1, 66839, Note_on_c, 9, 38, 0
1, 66880, Note_on_c, 9, 42, 66
1, 66880, Note_on_c, 9, 42, 0
1, 67040, Note_on_c, 9, 42, 88
1, 67040, Note_on_c, 9, 42, 0
1, 67040, Note_on_c, 9, 36, 127
1, 67199, Note_on_c, 9, 36, 0
1, 67200, Note_on_c, 9, 42, 112
1, 67200, Note_on_c, 9, 36, 127
1, 67201, Note_on_c, 9, 42, 0
1, 67360, Note_on_c, 9, 42, 74
1, 67360, Note_on_c, 9, 42, 0
1, 67520, Note_on_c, 9, 42, 64
1, 67520, Note_on_c, 9, 42, 0
1, 67679, Note_on_c, 9, 36, 0
1, 67680, Note_on_c, 9, 38, 127
1, 67680, Note_on_c, 9, 42, 110
1, 67681, Note_on_c, 9, 42, 0
1, 67799, Note_on_c, 9, 38, 0
1, 67840, Note_on_c, 9, 42, 66
1, 67840, Note_on_c, 9, 42, 0
1, 68000, Note_on_c, 9, 42, 71
1, 68000, Note_on_c, 9, 42, 0
1, 68160, Note_on_c, 9, 42, 110
1, 68160, Note_on_c, 9, 36, 127
1, 68161, Note_on_c, 9, 42, 0
1, 68320, Note_on_c, 9, 42, 65
1, 68320, Note_on_c, 9, 42, 0
1, 68480, Note_on_c, 9, 42, 64
1, 68480, Note_on_c, 9, 42, 0
1, 68639, Note_on_c, 9, 36, 0
1, 68640, Note_on_c, 9, 38, 127
1, 68640, Note_on_c, 9, 42, 110
1, 68642, Note_on_c, 9, 42, 0
1, 68799, Note_on_c, 9, 38, 0
1, 68800, Note_on_c, 9, 42, 74
1, 68800, Note_on_c, 9, 42, 0
1, 68960, Note_on_c, 9, 44, 103
1, 68960, Note_on_c, 9, 44, 0
1, 68960, Note_on_c, 9, 36, 127
1, 68999, Note_on_c, 9, 36, 0
1, 69120, Note_on_c, 9, 42, 108
1, 69120, Note_on_c, 9, 36, 127
1, 69121, Note_on_c, 9, 42, 0
1, 69280, Note_on_c, 9, 42, 66
1, 69280, Note_on_c, 9, 42, 0
1, 69440, Note_on_c, 9, 42, 66
1, 69440, Note_on_c, 9, 42, 0
1, 69599, Note_on_c, 9, 36, 0
1, 69600, Note_on_c, 9, 38, 127
1, 69600, Note_on_c, 9, 42, 108
1, 69601, Note_on_c, 9, 42, 0
1, 69719, Note_on_c, 9, 38, 0
1, 69760, Note_on_c, 9, 42, 66
1, 69760, Note_on_c, 9, 42, 0
1, 69920, Note_on_c, 9, 42, 66
1, 69920, Note_on_c, 9, 42, 0
1, 70080, Note_on_c, 9, 42, 105
1, 70080, Note_on_c, 9, 36, 127
1, 70081, Note_on_c, 9, 42, 0
1, 70240, Note_on_c, 9, 42, 64
1, 70240, Note_on_c, 9, 42, 0
1, 70400, Note_on_c, 9, 42, 69
1, 70400, Note_on_c, 9, 42, 0
1, 70559, Note_on_c, 9, 36, 0
1, 70560, Note_on_c, 9, 38, 127
1, 70560, Note_on_c, 9, 42, 110
1, 70561, Note_on_c, 9, 42, 0
1, 70679, Note_on_c, 9, 38, 0
1, 70720, Note_on_c, 9, 42, 70
1, 70720, Note_on_c, 9, 42, 0
1, 70880, Note_on_c, 9, 42, 77
1, 70880, Note_on_c, 9, 42, 0
1, 70880, Note_on_c, 9, 36, 127
1, 71039, Note_on_c, 9, 36, 0
1, 71040, Note_on_c, 9, 42, 110
1, 71040, Note_on_c, 9, 36, 127
1, 71041, Note_on_c, 9, 42, 0
1, 71200, Note_on_c, 9, 42, 70
1, 71200, Note_on_c, 9, 42, 0
1, 71360, Note_on_c, 9, 42, 72
1, 71360, Note_on_c, 9, 42, 0
1, 71519, Note_on_c, 9, 36, 0
1, 71520, Note_on_c, 9, 38, 127
1, 71520, Note_on_c, 9, 42, 112
1, 71521, Note_on_c, 9, 42, 0
1, 71639, Note_on_c, 9, 38, 0
1, 71680, Note_on_c, 9, 42, 63
1, 71680, Note_on_c, 9, 42, 0
1, 71840, Note_on_c, 9, 42, 74
1, 71840, Note_on_c, 9, 42, 0
1, 72000, Note_on_c, 9, 42, 110
1, 72000, Note_on_c, 9, 36, 127
1, 72001, Note_on_c, 9, 42, 0
1, 72160, Note_on_c, 9, 42, 75
1, 72160, Note_on_c, 9, 42, 0
1, 72320, Note_on_c, 9, 42, 66
1, 72320, Note_on_c, 9, 42, 0
1, 72479, Note_on_c, 9, 36, 0
1, 72480, Note_on_c, 9, 38, 127
1, 72480, Note_on_c, 9, 42, 105
1, 72481, Note_on_c, 9, 42, 0
1, 72599, Note_on_c, 9, 38, 0
1, 72640, Note_on_c, 9, 42, 65
1, 72640, Note_on_c, 9, 42, 0
1, 72640, Note_on_c, 9, 36, 127
1, 72799, Note_on_c, 9, 36, 0
1, 72800, Note_on_c, 9, 42, 106
1, 72800, Note_on_c, 9, 42, 0
1, 72800, Note_on_c, 9, 36, 127
1, 72959, Note_on_c, 9, 36, 0
1, 72960, Note_on_c, 9, 42, 115
1, 72960, Note_on_c, 9, 36, 127
1, 72961, Note_on_c, 9, 42, 0
1, 73120, Note_on_c, 9, 42, 59
1, 73120, Note_on_c, 9, 42, 0
1, 73280, Note_on_c, 9, 42, 71
1, 73280, Note_on_c, 9, 42, 0
1, 73439, Note_on_c, 9, 36, 0
1, 73440, Note_on_c, 9, 38, 127
1, 73440, Note_on_c, 9, 42, 112
1, 73441, Note_on_c, 9, 42, 0
1, 73559, Note_on_c, 9, 38, 0
1, 73600, Note_on_c, 9, 42, 65
1, 73600, Note_on_c, 9, 42, 0
1, 73760, Note_on_c, 9, 42, 76
1, 73760, Note_on_c, 9, 42, 0
1, 73760, Note_on_c, 9, 36, 127
1, 73919, Note_on_c, 9, 36, 0
1, 73920, Note_on_c, 9, 42, 112
1, 73920, Note_on_c, 9, 36, 127
1, 73921, Note_on_c, 9, 42, 0
1, 74080, Note_on_c, 9, 42, 65
1, 74080, Note_on_c, 9, 42, 0
1, 74240, Note_on_c, 9, 42, 76
1, 74240, Note_on_c, 9, 42, 0
1, 74399, Note_on_c, 9, 36, 0
1, 74400, Note_on_c, 9, 38, 127
1, 74400, Note_on_c, 9, 42, 110
1, 74402, Note_on_c, 9, 42, 0
1, 74559, Note_on_c, 9, 38, 0
1, 74560, Note_on_c, 9, 42, 71
1, 74560, Note_on_c, 9, 42, 0
1, 74720, Note_on_c, 9, 44, 103
1, 74720, Note_on_c, 9, 44, 0
1, 74880, Note_on_c, 9, 42, 100
1, 74880, Note_on_c, 9, 36, 127
1, 74881, Note_on_c, 9, 42, 0
1, 75040, Note_on_c, 9, 42, 72
1, 75040, Note_on_c, 9, 42, 0
1, 75200, Note_on_c, 9, 42, 65
1, 75200, Note_on_c, 9, 42, 0
1, 75359, Note_on_c, 9, 36, 0
1, 75360, Note_on_c, 9, 38, 127
1, 75360, Note_on_c, 9, 42, 110
1, 75361, Note_on_c, 9, 42, 0
1, 75479, Note_on_c, 9, 38, 0
1, 75520, Note_on_c, 9, 42, 67
1, 75520, Note_on_c, 9, 42, 0
1, 75680, Note_on_c, 9, 42, 71
1, 75680, Note_on_c, 9, 42, 0
1, 75680, Note_on_c, 9, 36, 127
1, 75839, Note_on_c, 9, 36, 0
1, 75840, Note_on_c, 9, 42, 112
1, 75840, Note_on_c, 9, 36, 127
1, 75841, Note_on_c, 9, 42, 0
1, 76000, Note_on_c, 9, 42, 64
1, 76000, Note_on_c, 9, 42, 0
1, 76160, Note_on_c, 9, 42, 82
1, 76160, Note_on_c, 9, 42, 0
1, 76319, Note_on_c, 9, 36, 0
1, 76320, Note_on_c, 9, 38, 127
1, 76320, Note_on_c, 9, 42, 110
1, 76321, Note_on_c, 9, 42, 0
1, 76439, Note_on_c, 9, 38, 0
1, 76480, Note_on_c, 9, 42, 69
1, 76480, Note_on_c, 9, 42, 0
1, 76640, Note_on_c, 9, 42, 70
1, 76640, Note_on_c, 9, 42, 0
1, 76800, Note_on_c, 9, 42, 108
1, 76800, Note_on_c, 9, 36, 127
1, 76801, Note_on_c, 9, 42, 0
1, 76960, Note_on_c, 9, 42, 70
1, 76960, Note_on_c, 9, 42, 0
1, 77120, Note_on_c, 9, 42, 75
1, 77120, Note_on_c, 9, 42, 0
1, 77279, Note_on_c, 9, 36, 0
1, 77280, Note_on_c, 9, 38, 127
1, 77280, Note_on_c, 9, 42, 106
1, 77281, Note_on_c, 9, 42, 0
1, 77399, Note_on_c, 9, 38, 0
1, 77440, Note_on_c, 9, 42, 70
1, 77440, Note_on_c, 9, 42, 0
1, 77600, Note_on_c, 9, 42, 96
1, 77600, Note_on_c, 9, 42, 0
1, 77600, Note_on_c, 9, 36, 127
1, 77759, Note_on_c, 9, 36, 0
1, 77760, Note_on_c, 9, 42, 106
1, 77760, Note_on_c, 9, 36, 127
1, 77761, Note_on_c, 9, 42, 0
1, 77920, Note_on_c, 9, 42, 80
1, 77920, Note_on_c, 9, 42, 0
1, 78080, Note_on_c, 9, 42, 82
1, 78080, Note_on_c, 9, 42, 0
1, 78239, Note_on_c, 9, 36, 0
1, 78240, Note_on_c, 9, 38, 127
1, 78240, Note_on_c, 9, 42, 106
1, 78241, Note_on_c, 9, 42, 0
1, 78359, Note_on_c, 9, 38, 0
1, 78400, Note_on_c, 9, 42, 66
1, 78400, Note_on_c, 9, 42, 0
1, 78400, Note_on_c, 9, 36, 127
1, 78559, Note_on_c, 9, 36, 0
1, 78560, Note_on_c, 9, 42, 105
1, 78560, Note_on_c, 9, 42, 0
1, 78560, Note_on_c, 9, 36, 127
1, 78719, Note_on_c, 9, 36, 0
1, 78720, Note_on_c, 9, 42, 115
1, 78720, Note_on_c, 9, 36, 127
1, 78721, Note_on_c, 9, 42, 0
1, 78880, Note_on_c, 9, 42, 74
1, 78880, Note_on_c, 9, 42, 0
1, 79040, Note_on_c, 9, 42, 68
1, 79040, Note_on_c, 9, 42, 0
1, 79199, Note_on_c, 9, 36, 0
1, 79200, Note_on_c, 9, 38, 127
1, 79200, Note_on_c, 9, 42, 108
1, 79201, Note_on_c, 9, 42, 0
1, 79319, Note_on_c, 9, 38, 0
1, 79360, Note_on_c, 9, 42, 71
1, 79360, Note_on_c, 9, 42, 0
1, 79520, Note_on_c, 9, 42, 90
1, 79520, Note_on_c, 9, 42, 0
1, 79520, Note_on_c, 9, 36, 127
1, 79679, Note_on_c, 9, 36, 0
1, 79680, Note_on_c, 9, 42, 110
1, 79680, Note_on_c, 9, 36, 127
1, 79681, Note_on_c, 9, 42, 0
1, 79840, Note_on_c, 9, 42, 74
1, 79840, Note_on_c, 9, 42, 0
1, 80000, Note_on_c, 9, 42, 73
1, 80000, Note_on_c, 9, 42, 0
1, 80159, Note_on_c, 9, 36, 0
1, 80160, Note_on_c, 9, 38, 127
1, 80160, Note_on_c, 9, 42, 110
1, 80162, Note_on_c, 9, 42, 0
1, 80319, Note_on_c, 9, 38, 0
1, 80320, Note_on_c, 9, 42, 90
1, 80320, Note_on_c, 9, 42, 0
1, 80480, Note_on_c, 9, 44, 106
1, 80480, Note_on_c, 9, 44, 0
1, 80480, Note_on_c, 9, 36, 127
1, 80519, Note_on_c, 9, 36, 0
1, 80640, Note_on_c, 9, 42, 119
1, 80640, Note_on_c, 9, 49, 122
1, 80640, Note_on_c, 9, 36, 127
1, 80641, Note_on_c, 9, 42, 0
1, 80641, Note_on_c, 9, 49, 0
1, 80800, Note_on_c, 9, 42, 81
1, 80800, Note_on_c, 9, 42, 0
1, 80879, Note_on_c, 9, 36, 0
1, 80960, Note_on_c, 9, 44, 100
1, 80960, Note_on_c, 9, 44, 0
1, 81120, Note_on_c, 9, 38, 127
1, 81120, Note_on_c, 9, 42, 119
1, 81120, Note_on_c, 9, 49, 127
1, 81122, Note_on_c, 9, 42, 0
1, 81122, Note_on_c, 9, 49, 0
1, 81279, Note_on_c, 9, 38, 0
1, 81280, Note_on_c, 9, 42, 90
1, 81280, Note_on_c, 9, 42, 0
1, 81440, Note_on_c, 9, 44, 119
1, 81440, Note_on_c, 9, 44, 0
1, 81440, Note_on_c, 9, 36, 127
1, 81479, Note_on_c, 9, 36, 0
1, 81600, Note_on_c, 9, 42, 112
1, 81600, Note_on_c, 9, 49, 127
1, 81600, Note_on_c, 9, 36, 127
1, 81601, Note_on_c, 9, 42, 0
1, 81601, Note_on_c, 9, 49, 0
1, 81760, Note_on_c, 9, 48, 127
1, 81760, Note_on_c, 9, 42, 80
1, 81760, Note_on_c, 9, 42, 0
1, 81779, Note_on_c, 9, 48, 0
1, 81840, Note_on_c, 9, 48, 127
1, 81919, Note_on_c, 9, 48, 0
1, 81920, Note_on_c, 9, 45, 127
1, 81920, Note_on_c, 9, 42, 82
1, 81920, Note_on_c, 9, 42, 0
1, 81959, Note_on_c, 9, 45, 0
1, 82079, Note_on_c, 9, 36, 0
1, 82080, Note_on_c, 9, 42, 87
1, 82081, Note_on_c, 9, 42, 0
1, 82240, Note_on_c, 9, 38, 127
1, 82240, Note_on_c, 9, 42, 115
1, 82240, Note_on_c, 9, 42, 0
1, 82259, Note_on_c, 9, 38, 0
1, 82400, Note_on_c, 9, 48, 127
1, 82400, Note_on_c, 9, 42, 91
1, 82400, Note_on_c, 9, 42, 0
1, 82479, Note_on_c, 9, 48, 0
1, 82480, Note_on_c, 9, 48, 127
1, 82559, Note_on_c, 9, 48, 0
1, 82560, Note_on_c, 9, 45, 127
1, 82560, Note_on_c, 9, 42, 88
1, 82562, Note_on_c, 9, 42, 0
1, 82719, Note_on_c, 9, 45, 0
1, 82720, Note_on_c, 9, 38, 127
1, 82720, Note_on_c, 9, 48, 127
1, 82720, Note_on_c, 9, 42, 119
1, 82720, Note_on_c, 9, 42, 0
1, 82799, Note_on_c, 9, 38, 0
1, 82799, Note_on_c, 9, 48, 0
1, 82800, Note_on_c, 9, 48, 127
1, 82879, Note_on_c, 9, 48, 0
1, 82880, Note_on_c, 9, 42, 86
1, 82880, Note_on_c, 9, 42, 0
1, 82960, Note_on_c, 9, 45, 127
1, 82979, Note_on_c, 9, 45, 0
1, 83040, Note_on_c, 9, 45, 127
1, 83040, Note_on_c, 9, 42, 108
1, 83040, Note_on_c, 9, 36, 127
1, 83042, Note_on_c, 9, 42, 0
1, 83199, Note_on_c, 9, 45, 0
1, 83200, Note_on_c, 9, 41, 127
1, 83200, Note_on_c, 9, 42, 92
1, 83200, Note_on_c, 9, 42, 0
1, 83279, Note_on_c, 9, 41, 0
1, 83280, Note_on_c, 9, 41, 127
1, 83359, Note_on_c, 9, 36, 0
1, 83359, Note_on_c, 9, 41, 0
1, 83360, Note_on_c, 9, 41, 127
1, 83360, Note_on_c, 9, 42, 119
1, 83360, Note_on_c, 9, 42, 0
1, 83360, Note_on_c, 9, 36, 127
1, 83399, Note_on_c, 9, 41, 0
1, 83519, Note_on_c, 9, 36, 0
1, 83520, Note_on_c, 9, 42, 115
1, 83520, Note_on_c, 9, 49, 127
1, 83520, Note_on_c, 9, 36, 127
1, 83521, Note_on_c, 9, 42, 0
1, 83521, Note_on_c, 9, 49, 0
1, 83680, Note_on_c, 9, 42, 76
1, 83680, Note_on_c, 9, 42, 0
1, 83840, Note_on_c, 9, 42, 66
1, 83840, Note_on_c, 9, 42, 0
1, 83999, Note_on_c, 9, 36, 0
1, 84000, Note_on_c, 9, 38, 127
1, 84000, Note_on_c, 9, 42, 115
1, 84001, Note_on_c, 9, 42, 0
1, 84119, Note_on_c, 9, 38, 0
1, 84160, Note_on_c, 9, 42, 65
1, 84160, Note_on_c, 9, 42, 0
1, 84320, Note_on_c, 9, 42, 97
1, 84320, Note_on_c, 9, 42, 0
1, 84320, Note_on_c, 9, 36, 127
1, 84479, Note_on_c, 9, 36, 0
1, 84480, Note_on_c, 9, 42, 119
1, 84480, Note_on_c, 9, 36, 127
1, 84481, Note_on_c, 9, 42, 0
1, 84640, Note_on_c, 9, 42, 70
1, 84640, Note_on_c, 9, 42, 0
1, 84800, Note_on_c, 9, 42, 78
1, 84800, Note_on_c, 9, 42, 0
1, 84959, Note_on_c, 9, 36, 0
1, 84960, Note_on_c, 9, 38, 127
1, 84960, Note_on_c, 9, 42, 119
1, 84961, Note_on_c, 9, 42, 0
1, 85079, Note_on_c, 9, 38, 0
1, 85120, Note_on_c, 9, 42, 73
1, 85120, Note_on_c, 9, 42, 0
1, 85280, Note_on_c, 9, 42, 79
1, 85280, Note_on_c, 9, 42, 0
1, 85440, Note_on_c, 9, 42, 112
1, 85440, Note_on_c, 9, 36, 127
1, 85441, Note_on_c, 9, 42, 0
1, 85600, Note_on_c, 9, 42, 68
1, 85600, Note_on_c, 9, 42, 0
1, 85760, Note_on_c, 9, 42, 70
1, 85760, Note_on_c, 9, 42, 0
1, 85919, Note_on_c, 9, 36, 0
1, 85920, Note_on_c, 9, 38, 127
1, 85920, Note_on_c, 9, 42, 112
1, 85921, Note_on_c, 9, 42, 0
1, 86039, Note_on_c, 9, 38, 0
1, 86080, Note_on_c, 9, 42, 62
1, 86080, Note_on_c, 9, 42, 0
1, 86240, Note_on_c, 9, 42, 103
1, 86240, Note_on_c, 9, 42, 0
1, 86240, Note_on_c, 9, 36, 127
1, 86399, Note_on_c, 9, 36, 0
1, 86400, Note_on_c, 9, 42, 115
1, 86400, Note_on_c, 9, 36, 127
1, 86401, Note_on_c, 9, 42, 0
1, 86560, Note_on_c, 9, 42, 79
1, 86560, Note_on_c, 9, 42, 0
1, 86720, Note_on_c, 9, 42, 79
1, 86720, Note_on_c, 9, 42, 0
1, 86879, Note_on_c, 9, 36, 0
1, 86880, Note_on_c, 9, 38, 127
1, 86880, Note_on_c, 9, 42, 115
1, 86882, Note_on_c, 9, 42, 0
1, 87039, Note_on_c, 9, 38, 0
1, 87040, Note_on_c, 9, 42, 87
1, 87040, Note_on_c, 9, 42, 0
1, 87200, Note_on_c, 9, 44, 106
1, 87200, Note_on_c, 9, 44, 0
1, 87360, Note_on_c, 9, 42, 110
1, 87360, Note_on_c, 9, 49, 127
1, 87360, Note_on_c, 9, 36, 127
1, 87361, Note_on_c, 9, 42, 0
1, 87361, Note_on_c, 9, 49, 0
1, 87520, Note_on_c, 9, 42, 73
1, 87520, Note_on_c, 9, 42, 0
1, 87680, Note_on_c, 9, 42, 80
1, 87680, Note_on_c, 9, 42, 0
1, 87839, Note_on_c, 9, 36, 0
1, 87840, Note_on_c, 9, 38, 127
1, 87840, Note_on_c, 9, 42, 115
1, 87841, Note_on_c, 9, 42, 0
1, 87959, Note_on_c, 9, 38, 0
1, 88000, Note_on_c, 9, 42, 75
1, 88000, Note_on_c, 9, 42, 0
1, 88160, Note_on_c, 9, 42, 97
1, 88160, Note_on_c, 9, 42, 0
1, 88160, Note_on_c, 9, 36, 127
1, 88319, Note_on_c, 9, 36, 0
1, 88320, Note_on_c, 9, 42, 110
1, 88320, Note_on_c, 9, 36, 127
1, 88321, Note_on_c, 9, 42, 0
1, 88480, Note_on_c, 9, 42, 67
1, 88480, Note_on_c, 9, 42, 0
1, 88640, Note_on_c, 9, 42, 80
1, 88640, Note_on_c, 9, 42, 0
1, 88799, Note_on_c, 9, 36, 0
1, 88800, Note_on_c, 9, 38, 127
1, 88800, Note_on_c, 9, 42, 115
1, 88801, Note_on_c, 9, 42, 0
1, 88919, Note_on_c, 9, 38, 0
1, 88960, Note_on_c, 9, 42, 75
1, 88960, Note_on_c, 9, 42, 0
1, 89120, Note_on_c, 9, 42, 81
1, 89120, Note_on_c, 9, 42, 0
1, 89280, Note_on_c, 9, 42, 115
1, 89280, Note_on_c, 9, 36, 127
1, 89281, Note_on_c, 9, 42, 0
1, 89440, Note_on_c, 9, 42, 60
1, 89440, Note_on_c, 9, 42, 0
1, 89600, Note_on_c, 9, 42, 79
1, 89600, Note_on_c, 9, 42, 0
1, 89759, Note_on_c, 9, 36, 0
1, 89760, Note_on_c, 9, 38, 127
1, 89760, Note_on_c, 9, 42, 115
1, 89761, Note_on_c, 9, 42, 0
1, 89879, Note_on_c, 9, 38, 0
1, 89920, Note_on_c, 9, 42, 70
1, 89920, Note_on_c, 9, 42, 0
1, 90080, Note_on_c, 9, 42, 105
1, 90080, Note_on_c, 9, 42, 0
1, 90080, Note_on_c, 9, 36, 127
1, 90239, Note_on_c, 9, 36, 0
1, 90240, Note_on_c, 9, 42, 119
1, 90240, Note_on_c, 9, 36, 127
1, 90241, Note_on_c, 9, 42, 0
1, 90400, Note_on_c, 9, 42, 72
1, 90400, Note_on_c, 9, 42, 0
1, 90560, Note_on_c, 9, 42, 81
1, 90560, Note_on_c, 9, 42, 0
1, 90719, Note_on_c, 9, 36, 0
1, 90720, Note_on_c, 9, 38, 127
1, 90720, Note_on_c, 9, 48, 127
1, 90720, Note_on_c, 9, 42, 115
1, 90721, Note_on_c, 9, 42, 0
1, 90839, Note_on_c, 9, 38, 0
1, 90839, Note_on_c, 9, 48, 0
1, 90880, Note_on_c, 9, 38, 127
1, 90880, Note_on_c, 9, 45, 127
1, 90880, Note_on_c, 9, 42, 71
1, 90880, Note_on_c, 9, 42, 0
1, 90899, Note_on_c, 9, 38, 0
1, 90899, Note_on_c, 9, 45, 0
1, 91040, Note_on_c, 9, 41, 127
1, 91040, Note_on_c, 9, 38, 127
1, 91040, Note_on_c, 9, 42, 119
1, 91040, Note_on_c, 9, 42, 0
1, 91079, Note_on_c, 9, 41, 0
1, 91079, Note_on_c, 9, 38, 0
1, 91200, Note_on_c, 9, 42, 112
1, 91200, Note_on_c, 9, 49, 127
1, 91200, Note_on_c, 9, 36, 127
1, 91201, Note_on_c, 9, 42, 0
1, 91201, Note_on_c, 9, 49, 0
1, 91360, Note_on_c, 9, 42, 80
1, 91360, Note_on_c, 9, 42, 0
1, 91520, Note_on_c, 9, 42, 64
1, 91520, Note_on_c, 9, 42, 0
1, 91679, Note_on_c, 9, 36, 0
1, 91680, Note_on_c, 9, 38, 127
1, 91680, Note_on_c, 9, 42, 119
1, 91681, Note_on_c, 9, 42, 0
1, 91799, Note_on_c, 9, 38, 0
1, 91840, Note_on_c, 9, 42, 73
1, 91840, Note_on_c, 9, 42, 0
1, 92000, Note_on_c, 9, 42, 87
1, 92000, Note_on_c, 9, 42, 0
1, 92000, Note_on_c, 9, 36, 127
1, 92159, Note_on_c, 9, 36, 0
1, 92160, Note_on_c, 9, 42, 123
1, 92160, Note_on_c, 9, 36, 127
1, 92161, Note_on_c, 9, 42, 0
1, 92320, Note_on_c, 9, 42, 65
1, 92320, Note_on_c, 9, 42, 0
1, 92480, Note_on_c, 9, 42, 76
1, 92480, Note_on_c, 9, 42, 0
1, 92639, Note_on_c, 9, 36, 0
1, 92640, Note_on_c, 9, 38, 127
1, 92640, Note_on_c, 9, 42, 115
1, 92642, Note_on_c, 9, 42, 0
1, 92799, Note_on_c, 9, 38, 0
1, 92800, Note_on_c, 9, 42, 89
1, 92800, Note_on_c, 9, 42, 0
1, 92960, Note_on_c, 9, 44, 108
1, 92960, Note_on_c, 9, 44, 0
1, 92960, Note_on_c, 9, 36, 127
1, 92999, Note_on_c, 9, 36, 0
1, 93120, Note_on_c, 9, 42, 119
1, 93120, Note_on_c, 9, 36, 127
1, 93121, Note_on_c, 9, 42, 0
1, 93280, Note_on_c, 9, 42, 68
1, 93280, Note_on_c, 9, 42, 0
1, 93440, Note_on_c, 9, 42, 62
1, 93440, Note_on_c, 9, 42, 0
1, 93599, Note_on_c, 9, 36, 0
1, 93600, Note_on_c, 9, 38, 127
1, 93600, Note_on_c, 9, 42, 112
1, 93601, Note_on_c, 9, 42, 0
1, 93719, Note_on_c, 9, 38, 0
1, 93760, Note_on_c, 9, 42, 75
1, 93760, Note_on_c, 9, 42, 0
1, 93920, Note_on_c, 9, 42, 91
1, 93920, Note_on_c, 9, 42, 0
1, 94080, Note_on_c, 9, 42, 112
1, 94080, Note_on_c, 9, 36, 127
1, 94081, Note_on_c, 9, 42, 0
1, 94240, Note_on_c, 9, 42, 72
1, 94240, Note_on_c, 9, 42, 0
1, 94400, Note_on_c, 9, 42, 80
1, 94400, Note_on_c, 9, 42, 0
1, 94559, Note_on_c, 9, 36, 0
1, 94560, Note_on_c, 9, 38, 127
1, 94560, Note_on_c, 9, 42, 115
1, 94561, Note_on_c, 9, 42, 0
1, 94679, Note_on_c, 9, 38, 0
1, 94720, Note_on_c, 9, 42, 82
1, 94720, Note_on_c, 9, 42, 0
1, 94720, Note_on_c, 9, 36, 127
1, 94879, Note_on_c, 9, 36, 0
1, 94880, Note_on_c, 9, 42, 108
1, 94880, Note_on_c, 9, 42, 0
1, 94880, Note_on_c, 9, 36, 127
1, 95039, Note_on_c, 9, 36, 0
1, 95040, Note_on_c, 9, 42, 112
1, 95040, Note_on_c, 9, 49, 127
1, 95040, Note_on_c, 9, 36, 127
1, 95041, Note_on_c, 9, 42, 0
1, 95041, Note_on_c, 9, 49, 0
1, 95200, Note_on_c, 9, 42, 85
1, 95200, Note_on_c, 9, 42, 0
1, 95359, Note_on_c, 9, 36, 0
1, 95360, Note_on_c, 9, 42, 106
1, 95360, Note_on_c, 9, 42, 0
1, 95360, Note_on_c, 9, 36, 127
1, 95519, Note_on_c, 9, 36, 0
1, 95520, Note_on_c, 9, 38, 127
1, 95520, Note_on_c, 9, 42, 115
1, 95520, Note_on_c, 9, 49, 127
1, 95521, Note_on_c, 9, 42, 0
1, 95521, Note_on_c, 9, 49, 0
1, 95639, Note_on_c, 9, 38, 0
1, 95680, Note_on_c, 9, 42, 85
1, 95680, Note_on_c, 9, 42, 0
1, 95840, Note_on_c, 9, 42, 115
1, 95840, Note_on_c, 9, 42, 0
1, 95840, Note_on_c, 9, 36, 127
1, 95999, Note_on_c, 9, 36, 0
1, 96000, Note_on_c, 9, 42, 123
1, 96000, Note_on_c, 9, 49, 127
1, 96000, Note_on_c, 9, 36, 127
1, 96001, Note_on_c, 9, 42, 0
1, 96001, Note_on_c, 9, 49, 0
1, 96160, Note_on_c, 9, 42, 65
1, 96160, Note_on_c, 9, 42, 0
1, 96319, Note_on_c, 9, 36, 0
1, 96320, Note_on_c, 9, 42, 99
1, 96320, Note_on_c, 9, 42, 0
1, 96320, Note_on_c, 9, 36, 127
1, 96479, Note_on_c, 9, 36, 0
1, 96480, Note_on_c, 9, 38, 127
1, 96480, Note_on_c, 9, 42, 119
1, 96481, Note_on_c, 9, 42, 0
1, 96599, Note_on_c, 9, 38, 0
1, 96640, Note_on_c, 9, 42, 73
1, 96640, Note_on_c, 9, 42, 0
1, 96800, Note_on_c, 9, 42, 97
1, 96800, Note_on_c, 9, 42, 0
1, 96800, Note_on_c, 9, 36, 127
1, 96959, Note_on_c, 9, 36, 0
1, 96960, Note_on_c, 9, 48, 127
1, 96960, Note_on_c, 9, 42, 112
1, 96960, Note_on_c, 9, 36, 127
1, 96961, Note_on_c, 9, 42, 0
1, 97079, Note_on_c, 9, 48, 0
1, 97120, Note_on_c, 9, 42, 87
1, 97120, Note_on_c, 9, 42, 0
1, 97200, Note_on_c, 9, 48, 127
1, 97279, Note_on_c, 9, 48, 0
1, 97280, Note_on_c, 9, 38, 127
1, 97280, Note_on_c, 9, 48, 127
1, 97280, Note_on_c, 9, 42, 97
1, 97280, Note_on_c, 9, 42, 0
1, 97319, Note_on_c, 9, 38, 0
1, 97319, Note_on_c, 9, 48, 0
1, 97439, Note_on_c, 9, 36, 0
1, 97440, Note_on_c, 9, 38, 127
1, 97440, Note_on_c, 9, 48, 127
1, 97440, Note_on_c, 9, 42, 110
1, 97441, Note_on_c, 9, 42, 0
1, 97559, Note_on_c, 9, 38, 0
1, 97559, Note_on_c, 9, 48, 0
1, 97600, Note_on_c, 9, 45, 127
1, 97600, Note_on_c, 9, 42, 75
1, 97600, Note_on_c, 9, 42, 0
1, 97619, Note_on_c, 9, 45, 0
1, 97680, Note_on_c, 9, 45, 127
1, 97759, Note_on_c, 9, 45, 0
1, 97760, Note_on_c, 9, 41, 127
1, 97760, Note_on_c, 9, 38, 127
1, 97839, Note_on_c, 9, 41, 0
1, 97839, Note_on_c, 9, 38, 0
1, 97840, Note_on_c, 9, 41, 127
1, 97919, Note_on_c, 9, 41, 0
1, 97920, Note_on_c, 9, 42, 115
1, 97920, Note_on_c, 9, 49, 127
1, 97920, Note_on_c, 9, 36, 127
1, 97921, Note_on_c, 9, 42, 0
1, 97921, Note_on_c, 9, 49, 0
1, 98079, Note_on_c, 9, 36, 0
1, 98080, Note_on_c, 9, 42, 75
1, 98080, Note_on_c, 9, 42, 0
1, 98080, Note_on_c, 9, 36, 127
1, 98239, Note_on_c, 9, 36, 0
1, 98240, Note_on_c, 9, 42, 64
1, 98240, Note_on_c, 9, 42, 0
1, 98240, Note_on_c, 9, 36, 127
1, 98399, Note_on_c, 9, 36, 0
1, 98400, Note_on_c, 9, 42, 106
1, 98400, Note_on_c, 9, 36, 127
1, 98401, Note_on_c, 9, 42, 0
1, 98559, Note_on_c, 9, 36, 0
1, 98560, Note_on_c, 9, 42, 84
1, 98560, Note_on_c, 9, 42, 0
1, 98560, Note_on_c, 9, 36, 127
1, 98719, Note_on_c, 9, 36, 0
1, 98720, Note_on_c, 9, 42, 94
1, 98720, Note_on_c, 9, 42, 0
1, 98720, Note_on_c, 9, 36, 127
1, 98879, Note_on_c, 9, 36, 0
1, 98880, Note_on_c, 9, 38, 127
1, 99039, Note_on_c, 9, 38, 0
1, 99040, Note_on_c, 9, 38, 127
1, 99040, Note_on_c, 9, 45, 112
1, 99040, Note_on_c, 9, 48, 110
1, 99199, Note_on_c, 9, 38, 0
1, 99199, Note_on_c, 9, 45, 0
1, 99199, Note_on_c, 9, 48, 0
1, 99200, Note_on_c, 9, 38, 127
1, 99200, Note_on_c, 9, 45, 127
1, 99200, Note_on_c, 9, 48, 127
1, 99359, Note_on_c, 9, 38, 0
1, 99359, Note_on_c, 9, 45, 0
1, 99359, Note_on_c, 9, 48, 0
1, 99360, Note_on_c, 9, 38, 127
1, 99360, Note_on_c, 9, 45, 127
1, 99360, Note_on_c, 9, 48, 127
1, 99519, Note_on_c, 9, 38, 0
1, 99519, Note_on_c, 9, 45, 0
1, 99519, Note_on_c, 9, 48, 0
1, 99520, Note_on_c, 9, 41, 127
1, 99520, Note_on_c, 9, 45, 127
1, 99599, Note_on_c, 9, 41, 0
1, 99599, Note_on_c, 9, 45, 0
1, 99600, Note_on_c, 9, 41, 127
1, 99600, Note_on_c, 9, 45, 127
1, 99679, Note_on_c, 9, 41, 0
1, 99679, Note_on_c, 9, 45, 0
1, 99680, Note_on_c, 9, 41, 127
1, 99680, Note_on_c, 9, 45, 127
1, 99680, Note_on_c, 9, 36, 127
1, 99719, Note_on_c, 9, 41, 0
1, 99719, Note_on_c, 9, 45, 0
1, 99719, Note_on_c, 9, 36, 0
1, 99760, Note_on_c, 9, 41, 127
1, 99760, Note_on_c, 9, 45, 127
1, 99839, Note_on_c, 9, 41, 0
1, 99839, Note_on_c, 9, 45, 0
1, 99840, Note_on_c, 9, 42, 115
1, 99840, Note_on_c, 9, 49, 127
1, 99840, Note_on_c, 9, 36, 127
1, 99841, Note_on_c, 9, 42, 0
1, 99841, Note_on_c, 9, 49, 0
1, 100000, Note_on_c, 9, 42, 71
1, 100000, Note_on_c, 9, 42, 0
1, 100160, Note_on_c, 9, 42, 59
1, 100160, Note_on_c, 9, 42, 0
1, 100319, Note_on_c, 9, 36, 0
1, 100320, Note_on_c, 9, 38, 127
1, 100320, Note_on_c, 9, 42, 119
1, 100321, Note_on_c, 9, 42, 0
1, 100439, Note_on_c, 9, 38, 0
1, 100480, Note_on_c, 9, 42, 66
1, 100480, Note_on_c, 9, 42, 0
1, 100640, Note_on_c, 9, 42, 105
1, 100640, Note_on_c, 9, 42, 0
1, 100640, Note_on_c, 9, 36, 127
1, 100799, Note_on_c, 9, 36, 0
1, 100800, Note_on_c, 9, 42, 115
1, 100800, Note_on_c, 9, 36, 127
1, 100801, Note_on_c, 9, 42, 0
1, 100960, Note_on_c, 9, 42, 71
1, 100960, Note_on_c, 9, 42, 0
1, 101120, Note_on_c, 9, 42, 85
1, 101120, Note_on_c, 9, 42, 0
1, 101279, Note_on_c, 9, 36, 0
1, 101280, Note_on_c, 9, 38, 127
1, 101280, Note_on_c, 9, 42, 127
1, 101282, Note_on_c, 9, 42, 0
1, 101439, Note_on_c, 9, 38, 0
1, 101440, Note_on_c, 9, 42, 83
1, 101440, Note_on_c, 9, 42, 0
1, 101600, Note_on_c, 9, 44, 115
1, 101600, Note_on_c, 9, 44, 0
1, 101600, Note_on_c, 9, 36, 127
1, 101639, Note_on_c, 9, 36, 0
1, 101760, Note_on_c, 9, 42, 115
1, 101760, Note_on_c, 9, 36, 127
1, 101761, Note_on_c, 9, 42, 0
1, 101920, Note_on_c, 9, 42, 71
1, 101920, Note_on_c, 9, 42, 0
1, 102080, Note_on_c, 9, 42, 79
1, 102080, Note_on_c, 9, 42, 0
1, 102239, Note_on_c, 9, 36, 0
1, 102240, Note_on_c, 9, 38, 127
1, 102240, Note_on_c, 9, 42, 119
1, 102241, Note_on_c, 9, 42, 0
1, 102359, Note_on_c, 9, 38, 0
1, 102400, Note_on_c, 9, 42, 66
1, 102400, Note_on_c, 9, 42, 0
1, 102560, Note_on_c, 9, 42, 104
1, 102560, Note_on_c, 9, 42, 0
1, 102560, Note_on_c, 9, 36, 127
1, 102719, Note_on_c, 9, 36, 0
1, 102720, Note_on_c, 9, 42, 119
1, 102720, Note_on_c, 9, 36, 127
1, 102721, Note_on_c, 9, 42, 0
1, 102880, Note_on_c, 9, 42, 80
1, 102880, Note_on_c, 9, 42, 0
1, 103040, Note_on_c, 9, 42, 77
1, 103040, Note_on_c, 9, 42, 0
1, 103199, Note_on_c, 9, 36, 0
1, 103200, Note_on_c, 9, 38, 127
1, 103200, Note_on_c, 9, 48, 104
1, 103200, Note_on_c, 9, 42, 115
1, 103201, Note_on_c, 9, 42, 0
1, 103319, Note_on_c, 9, 38, 0
1, 103319, Note_on_c, 9, 48, 0
1, 103360, Note_on_c, 9, 38, 127
1, 103360, Note_on_c, 9, 45, 116
1, 103360, Note_on_c, 9, 42, 112
1, 103360, Note_on_c, 9, 42, 0
1, 103379, Note_on_c, 9, 38, 0
1, 103379, Note_on_c, 9, 45, 0
1, 103520, Note_on_c, 9, 41, 127
1, 103520, Note_on_c, 9, 38, 127
1, 103520, Note_on_c, 9, 42, 115
1, 103520, Note_on_c, 9, 42, 0
1, 103559, Note_on_c, 9, 41, 0
1, 103559, Note_on_c, 9, 38, 0
1, 103680, Note_on_c, 9, 42, 119
1, 103680, Note_on_c, 9, 49, 127
1, 103680, Note_on_c, 9, 36, 127
1, 103681, Note_on_c, 9, 42, 0
1, 103681, Note_on_c, 9, 49, 0
1, 103840, Note_on_c, 9, 42, 86
1, 103840, Note_on_c, 9, 42, 0
1, 104000, Note_on_c, 9, 42, 88
1, 104000, Note_on_c, 9, 42, 0
1, 104159, Note_on_c, 9, 36, 0
1, 104160, Note_on_c, 9, 38, 127
1, 104160, Note_on_c, 9, 42, 127
1, 104161, Note_on_c, 9, 42, 0
1, 104279, Note_on_c, 9, 38, 0
1, 104320, Note_on_c, 9, 42, 74
1, 104320, Note_on_c, 9, 42, 0
1, 104480, Note_on_c, 9, 42, 104
1, 104480, Note_on_c, 9, 42, 0
1, 104480, Note_on_c, 9, 36, 127
1, 104519, Note_on_c, 9, 36, 0
1, 104640, Note_on_c, 9, 42, 119
1, 104640, Note_on_c, 9, 36, 127
1, 104641, Note_on_c, 9, 42, 0
1, 104800, Note_on_c, 9, 42, 74
1, 104800, Note_on_c, 9, 42, 0
1, 104960, Note_on_c, 9, 42, 82
1, 104960, Note_on_c, 9, 42, 0
1, 105119, Note_on_c, 9, 36, 0
1, 105120, Note_on_c, 9, 38, 127
1, 105120, Note_on_c, 9, 42, 119
1, 105121, Note_on_c, 9, 42, 0
1, 105239, Note_on_c, 9, 38, 0
1, 105280, Note_on_c, 9, 42, 94
1, 105280, Note_on_c, 9, 42, 0
1, 105440, Note_on_c, 9, 44, 115
1, 105440, Note_on_c, 9, 44, 0
1, 105440, Note_on_c, 9, 36, 127
1, 105479, Note_on_c, 9, 36, 0
1, 105600, Note_on_c, 9, 42, 123
1, 105600, Note_on_c, 9, 49, 127
1, 105600, Note_on_c, 9, 36, 127
1, 105601, Note_on_c, 9, 42, 0
1, 105601, Note_on_c, 9, 49, 0
1, 105760, Note_on_c, 9, 42, 69
1, 105760, Note_on_c, 9, 42, 0
1, 105919, Note_on_c, 9, 36, 0
1, 105920, Note_on_c, 9, 42, 119
1, 105920, Note_on_c, 9, 42, 0
1, 105920, Note_on_c, 9, 36, 127
1, 106079, Note_on_c, 9, 36, 0
1, 106080, Note_on_c, 9, 38, 127
1, 106080, Note_on_c, 9, 42, 127
1, 106080, Note_on_c, 9, 49, 127
1, 106081, Note_on_c, 9, 42, 0
1, 106081, Note_on_c, 9, 49, 0
1, 106199, Note_on_c, 9, 38, 0
1, 106240, Note_on_c, 9, 42, 80
1, 106240, Note_on_c, 9, 42, 0
1, 106400, Note_on_c, 9, 42, 123
1, 106400, Note_on_c, 9, 42, 0
1, 106400, Note_on_c, 9, 36, 127
1, 106559, Note_on_c, 9, 36, 0
1, 106560, Note_on_c, 9, 41, 104
1, 106560, Note_on_c, 9, 45, 100
1, 106560, Note_on_c, 9, 42, 98
1, 106560, Note_on_c, 9, 36, 127
1, 106561, Note_on_c, 9, 42, 0
1, 106679, Note_on_c, 9, 41, 0
1, 106679, Note_on_c, 9, 45, 0
1, 106719, Note_on_c, 9, 36, 0
1, 106720, Note_on_c, 9, 41, 107
1, 106720, Note_on_c, 9, 45, 106
1, 106720, Note_on_c, 9, 42, 87
1, 106720, Note_on_c, 9, 42, 0
1, 106720, Note_on_c, 9, 36, 127
1, 106739, Note_on_c, 9, 41, 0
1, 106739, Note_on_c, 9, 45, 0
1, 106879, Note_on_c, 9, 36, 0
1, 106880, Note_on_c, 9, 41, 112
1, 106880, Note_on_c, 9, 45, 117
1, 106880, Note_on_c, 9, 42, 104
1, 106880, Note_on_c, 9, 42, 0
1, 106880, Note_on_c, 9, 36, 127
1, 106919, Note_on_c, 9, 41, 0
1, 106919, Note_on_c, 9, 45, 0
1, 107039, Note_on_c, 9, 36, 0
1, 107040, Note_on_c, 9, 41, 126
1, 107040, Note_on_c, 9, 45, 126
1, 107040, Note_on_c, 9, 42, 115
1, 107040, Note_on_c, 9, 36, 127
1, 107042, Note_on_c, 9, 42, 0
1, 107199, Note_on_c, 9, 41, 0
1, 107199, Note_on_c, 9, 45, 0
1, 107199, Note_on_c, 9, 36, 0
1, 107200, Note_on_c, 9, 41, 124
1, 107200, Note_on_c, 9, 45, 127
1, 107200, Note_on_c, 9, 42, 103
1, 107200, Note_on_c, 9, 36, 127
1, 107202, Note_on_c, 9, 42, 0
1, 107359, Note_on_c, 9, 41, 0
1, 107359, Note_on_c, 9, 45, 0
1, 107359, Note_on_c, 9, 36, 0
1, 107360, Note_on_c, 9, 41, 127
1, 107360, Note_on_c, 9, 45, 127
1, 107360, Note_on_c, 9, 42, 110
1, 107360, Note_on_c, 9, 36, 127
1, 107362, Note_on_c, 9, 42, 0
1, 107519, Note_on_c, 9, 41, 0
1, 107519, Note_on_c, 9, 45, 0
1, 107519, Note_on_c, 9, 36, 0
1, 107520, Note_on_c, 9, 38, 127
1, 107520, Note_on_c, 9, 48, 127
1, 107520, Note_on_c, 9, 36, 127
1, 107599, Note_on_c, 9, 38, 0
1, 107599, Note_on_c, 9, 48, 0
1, 107600, Note_on_c, 9, 48, 127
1, 107639, Note_on_c, 9, 48, 0
1, 107760, Note_on_c, 9, 48, 127
1, 107839, Note_on_c, 9, 36, 0
1, 107839, Note_on_c, 9, 48, 0
1, 107840, Note_on_c, 9, 38, 127
1, 107840, Note_on_c, 9, 48, 127
1, 107840, Note_on_c, 9, 36, 127
1, 107879, Note_on_c, 9, 38, 0
1, 107879, Note_on_c, 9, 48, 0
1, 107999, Note_on_c, 9, 36, 0
1, 108000, Note_on_c, 9, 38, 127
1, 108000, Note_on_c, 9, 45, 127
1, 108000, Note_on_c, 9, 36, 127
1, 108159, Note_on_c, 9, 38, 0
1, 108159, Note_on_c, 9, 45, 0
1, 108159, Note_on_c, 9, 36, 0
1, 108160, Note_on_c, 9, 45, 127
1, 108160, Note_on_c, 9, 36, 127
1, 108239, Note_on_c, 9, 45, 0
1, 108239, Note_on_c, 9, 36, 0
1, 108320, Note_on_c, 9, 41, 127
1, 108320, Note_on_c, 9, 38, 127
1, 108399, Note_on_c, 9, 41, 0
1, 108399, Note_on_c, 9, 38, 0
1, 108400, Note_on_c, 9, 41, 127
1, 108479, Note_on_c, 9, 41, 0
1, 108480, Note_on_c, 9, 51, 127
1, 108480, Note_on_c, 9, 49, 127
1, 108480, Note_on_c, 9, 36, 127
1, 108481, Note_on_c, 9, 51, 0
1, 108481, Note_on_c, 9, 49, 0
1, 108640, Note_on_c, 9, 51, 73
1, 108640, Note_on_c, 9, 51, 0
1, 108800, Note_on_c, 9, 51, 87
1, 108800, Note_on_c, 9, 51, 0
1, 108959, Note_on_c, 9, 36, 0
1, 108960, Note_on_c, 9, 38, 127
1, 108960, Note_on_c, 9, 51, 127
1, 108961, Note_on_c, 9, 51, 0
1, 109079, Note_on_c, 9, 38, 0
1, 109120, Note_on_c, 9, 51, 80
1, 109120, Note_on_c, 9, 51, 0
1, 109280, Note_on_c, 9, 51, 103
1, 109280, Note_on_c, 9, 51, 0
1, 109280, Note_on_c, 9, 36, 127
1, 109439, Note_on_c, 9, 36, 0
1, 109440, Note_on_c, 9, 51, 127
1, 109440, Note_on_c, 9, 36, 127
1, 109441, Note_on_c, 9, 51, 0
1, 109600, Note_on_c, 9, 51, 81
1, 109600, Note_on_c, 9, 51, 0
1, 109760, Note_on_c, 9, 51, 81
1, 109760, Note_on_c, 9, 51, 0
1, 109919, Note_on_c, 9, 36, 0
1, 109920, Note_on_c, 9, 38, 127
1, 109920, Note_on_c, 9, 51, 127
1, 109921, Note_on_c, 9, 51, 0
1, 110039, Note_on_c, 9, 38, 0
1, 110080, Note_on_c, 9, 51, 56
1, 110080, Note_on_c, 9, 51, 0
1, 110240, Note_on_c, 9, 51, 100
1, 110240, Note_on_c, 9, 51, 0
1, 110400, Note_on_c, 9, 51, 119
1, 110400, Note_on_c, 9, 36, 127
1, 110401, Note_on_c, 9, 51, 0
1, 110560, Note_on_c, 9, 51, 85
1, 110560, Note_on_c, 9, 51, 0
1, 110720, Note_on_c, 9, 51, 76
1, 110720, Note_on_c, 9, 51, 0
1, 110879, Note_on_c, 9, 36, 0
1, 110880, Note_on_c, 9, 38, 127
1, 110880, Note_on_c, 9, 51, 123
1, 110881, Note_on_c, 9, 51, 0
1, 110999, Note_on_c, 9, 38, 0
1, 111040, Note_on_c, 9, 51, 76
1, 111040, Note_on_c, 9, 51, 0
1, 111200, Note_on_c, 9, 51, 106
1, 111200, Note_on_c, 9, 51, 0
1, 111200, Note_on_c, 9, 36, 127
1, 111359, Note_on_c, 9, 36, 0
1, 111360, Note_on_c, 9, 51, 127
1, 111360, Note_on_c, 9, 36, 127
1, 111361, Note_on_c, 9, 51, 0
1, 111520, Note_on_c, 9, 51, 86
1, 111520, Note_on_c, 9, 51, 0
1, 111680, Note_on_c, 9, 51, 102
1, 111680, Note_on_c, 9, 51, 0
1, 111839, Note_on_c, 9, 36, 0
1, 111840, Note_on_c, 9, 38, 127
1, 111840, Note_on_c, 9, 51, 123
1, 111841, Note_on_c, 9, 51, 0
1, 111959, Note_on_c, 9, 38, 0
1, 112000, Note_on_c, 9, 51, 91
1, 112000, Note_on_c, 9, 51, 0
1, 112160, Note_on_c, 9, 51, 91
1, 112160, Note_on_c, 9, 51, 0
1, 112320, Note_on_c, 9, 51, 123
1, 112320, Note_on_c, 9, 49, 127
1, 112320, Note_on_c, 9, 36, 127
1, 112321, Note_on_c, 9, 51, 0
1, 112321, Note_on_c, 9, 49, 0
1, 112480, Note_on_c, 9, 51, 84
1, 112480, Note_on_c, 9, 51, 0
1, 112640, Note_on_c, 9, 51, 82
1, 112640, Note_on_c, 9, 51, 0
1, 112799, Note_on_c, 9, 36, 0
1, 112800, Note_on_c, 9, 38, 127
1, 112800, Note_on_c, 9, 51, 123
1, 112801, Note_on_c, 9, 51, 0
1, 112919, Note_on_c, 9, 38, 0
1, 112960, Note_on_c, 9, 51, 82
1, 112960, Note_on_c, 9, 51, 0
1, 113120, Note_on_c, 9, 51, 95
1, 113120, Note_on_c, 9, 51, 0
1, 113120, Note_on_c, 9, 36, 127
1, 113279, Note_on_c, 9, 36, 0
1, 113280, Note_on_c, 9, 51, 123
1, 113280, Note_on_c, 9, 36, 127
1, 113281, Note_on_c, 9, 51, 0
1, 113440, Note_on_c, 9, 51, 87
1, 113440, Note_on_c, 9, 51, 0
1, 113600, Note_on_c, 9, 51, 82
1, 113600, Note_on_c, 9, 51, 0
1, 113759, Note_on_c, 9, 36, 0
1, 113760, Note_on_c, 9, 38, 127
1, 113760, Note_on_c, 9, 51, 123
1, 113761, Note_on_c, 9, 51, 0
1, 113879, Note_on_c, 9, 38, 0
1, 113920, Note_on_c, 9, 51, 79
1, 113920, Note_on_c, 9, 51, 0
1, 114080, Note_on_c, 9, 51, 85
1, 114080, Note_on_c, 9, 51, 0
1, 114240, Note_on_c, 9, 51, 123
1, 114240, Note_on_c, 9, 36, 127
1, 114241, Note_on_c, 9, 51, 0
1, 114400, Note_on_c, 9, 51, 76
1, 114400, Note_on_c, 9, 51, 0
1, 114560, Note_on_c, 9, 51, 82
1, 114560, Note_on_c, 9, 51, 0
1, 114719, Note_on_c, 9, 36, 0
1, 114720, Note_on_c, 9, 38, 127
1, 114720, Note_on_c, 9, 51, 127
1, 114721, Note_on_c, 9, 51, 0
1, 114839, Note_on_c, 9, 38, 0
1, 114880, Note_on_c, 9, 51, 83
1, 114880, Note_on_c, 9, 51, 0
1, 115040, Note_on_c, 9, 51, 106
1, 115040, Note_on_c, 9, 51, 0
1, 115040, Note_on_c, 9, 36, 127
1, 115199, Note_on_c, 9, 36, 0
1, 115200, Note_on_c, 9, 51, 119
1, 115200, Note_on_c, 9, 36, 127
1, 115201, Note_on_c, 9, 51, 0
1, 115360, Note_on_c, 9, 38, 127
1, 115360, Note_on_c, 9, 51, 123
1, 115360, Note_on_c, 9, 51, 0
1, 115379, Note_on_c, 9, 38, 0
1, 115520, Note_on_c, 9, 51, 97
1, 115520, Note_on_c, 9, 51, 0
1, 115679, Note_on_c, 9, 36, 0
1, 115680, Note_on_c, 9, 38, 127
1, 115680, Note_on_c, 9, 48, 127
1, 115680, Note_on_c, 9, 51, 127
1, 115682, Note_on_c, 9, 51, 0
1, 115839, Note_on_c, 9, 38, 0
1, 115839, Note_on_c, 9, 48, 0
1, 115840, Note_on_c, 9, 45, 127
1, 115840, Note_on_c, 9, 51, 97
1, 115840, Note_on_c, 9, 51, 0
1, 115919, Note_on_c, 9, 45, 0
1, 116000, Note_on_c, 9, 41, 127
1, 116000, Note_on_c, 9, 38, 127
1, 116000, Note_on_c, 9, 51, 127
1, 116000, Note_on_c, 9, 51, 0
1, 116079, Note_on_c, 9, 41, 0
1, 116079, Note_on_c, 9, 38, 0
1, 116080, Note_on_c, 9, 41, 127
1, 116159, Note_on_c, 9, 41, 0
1, 116160, Note_on_c, 9, 51, 127
1, 116160, Note_on_c, 9, 49, 127
1, 116160, Note_on_c, 9, 36, 127
1, 116161, Note_on_c, 9, 51, 0
1, 116161, Note_on_c, 9, 49, 0
1, 116320, Note_on_c, 9, 51, 83
1, 116320, Note_on_c, 9, 51, 0
1, 116480, Note_on_c, 9, 51, 87
1, 116480, Note_on_c, 9, 51, 0
1, 116639, Note_on_c, 9, 36, 0
1, 116640, Note_on_c, 9, 38, 127
1, 116640, Note_on_c, 9, 51, 127
1, 116641, Note_on_c, 9, 51, 0
1, 116759, Note_on_c, 9, 38, 0
1, 116800, Note_on_c, 9, 51, 91
1, 116800, Note_on_c, 9, 51, 0
1, 116960, Note_on_c, 9, 51, 106
1, 116960, Note_on_c, 9, 51, 0
1, 116960, Note_on_c, 9, 36, 127
1, 117119, Note_on_c, 9, 36, 0
1, 117120, Note_on_c, 9, 51, 127
1, 117120, Note_on_c, 9, 36, 127
1, 117121, Note_on_c, 9, 51, 0
1, 117280, Note_on_c, 9, 51, 88
1, 117280, Note_on_c, 9, 51, 0
1, 117440, Note_on_c, 9, 51, 91
1, 117440, Note_on_c, 9, 51, 0
1, 117599, Note_on_c, 9, 36, 0
1, 117600, Note_on_c, 9, 38, 127
1, 117600, Note_on_c, 9, 51, 127
1, 117601, Note_on_c, 9, 51, 0
1, 117719, Note_on_c, 9, 38, 0
1, 117760, Note_on_c, 9, 51, 95
1, 117760, Note_on_c, 9, 51, 0
1, 117920, Note_on_c, 9, 51, 110
1, 117920, Note_on_c, 9, 51, 0
1, 118080, Note_on_c, 9, 51, 123
1, 118080, Note_on_c, 9, 36, 127
1, 118081, Note_on_c, 9, 51, 0
1, 118240, Note_on_c, 9, 51, 82
1, 118240, Note_on_c, 9, 51, 0
1, 118400, Note_on_c, 9, 51, 77
1, 118400, Note_on_c, 9, 51, 0
1, 118559, Note_on_c, 9, 36, 0
1, 118560, Note_on_c, 9, 38, 127
1, 118560, Note_on_c, 9, 51, 119
1, 118561, Note_on_c, 9, 51, 0
1, 118679, Note_on_c, 9, 38, 0
1, 118720, Note_on_c, 9, 51, 87
1, 118720, Note_on_c, 9, 51, 0
1, 118880, Note_on_c, 9, 51, 119
1, 118880, Note_on_c, 9, 51, 0
1, 118880, Note_on_c, 9, 36, 127
1, 119039, Note_on_c, 9, 36, 0
1, 119040, Note_on_c, 9, 51, 127
1, 119040, Note_on_c, 9, 36, 127
1, 119041, Note_on_c, 9, 51, 0
1, 119200, Note_on_c, 9, 51, 86
1, 119200, Note_on_c, 9, 51, 0
1, 119360, Note_on_c, 9, 51, 88
1, 119360, Note_on_c, 9, 51, 0
1, 119519, Note_on_c, 9, 36, 0
1, 119520, Note_on_c, 9, 38, 127
1, 119520, Note_on_c, 9, 51, 127
1, 119521, Note_on_c, 9, 51, 0
1, 119639, Note_on_c, 9, 38, 0
1, 119680, Note_on_c, 9, 51, 80
1, 119680, Note_on_c, 9, 51, 0
1, 119840, Note_on_c, 9, 51, 112
1, 119840, Note_on_c, 9, 51, 0
1, 120000, Note_on_c, 9, 51, 127
1, 120000, Note_on_c, 9, 49, 127
1, 120000, Note_on_c, 9, 36, 127
1, 120010, Note_on_c, 9, 51, 0
1, 120010, Note_on_c, 9, 49, 0
1, 120479, Note_on_c, 9, 36, 0
1, 120480, Note_on_c, 9, 51, 119
1, 120480, Note_on_c, 9, 49, 127
1, 120480, Note_on_c, 9, 36, 127
1, 120490, Note_on_c, 9, 51, 0
1, 120490, Note_on_c, 9, 49, 0
1, 120959, Note_on_c, 9, 36, 0
1, 120960, Note_on_c, 9, 51, 119
1, 120960, Note_on_c, 9, 49, 127
1, 120960, Note_on_c, 9, 36, 127
1, 120970, Note_on_c, 9, 51, 0
1, 120970, Note_on_c, 9, 49, 0
1, 121439, Note_on_c, 9, 36, 0
1, 121440, Note_on_c, 9, 42, 102
1, 121450, Note_on_c, 9, 42, 0
1, 122400, Note_on_c, 9, 42, 92
1, 122410, Note_on_c, 9, 42, 0
1, 136320, Note_on_c, 9, 49, 127
1, 136320, Note_on_c, 9, 44, 127
1, 136320, Note_on_c, 9, 36, 127
1, 136330, Note_on_c, 9, 49, 0
1, 136330, Note_on_c, 9, 44, 0
1, 136799, Note_on_c, 9, 36, 0
1, 136800, Note_on_c, 9, 49, 127
1, 136800, Note_on_c, 9, 44, 127
1, 136800, Note_on_c, 9, 36, 127
1, 136810, Note_on_c, 9, 49, 0
1, 136810, Note_on_c, 9, 44, 0
1, 137279, Note_on_c, 9, 36, 0
1, 137280, Note_on_c, 9, 42, 119
1, 137280, Note_on_c, 9, 42, 0
1, 137280, Note_on_c, 9, 36, 127
1, 137295, Note_on_c, 9, 49, 127
1, 137297, Note_on_c, 9, 49, 0
1, 137445, Note_on_c, 9, 42, 85
1, 137445, Note_on_c, 9, 42, 0
1, 137599, Note_on_c, 9, 36, 0
1, 137600, Note_on_c, 9, 36, 127
1, 137640, Note_on_c, 9, 38, 127
1, 137759, Note_on_c, 9, 38, 0
1, 137919, Note_on_c, 9, 36, 0
1, 137920, Note_on_c, 9, 38, 127
1, 137920, Note_on_c, 9, 49, 127
1, 137920, Note_on_c, 9, 49, 0
1, 137920, Note_on_c, 9, 36, 127
1, 137939, Note_on_c, 9, 38, 0
1, 138239, Note_on_c, 9, 36, 0
1, 138240, Note_on_c, 9, 41, 127
1, 138240, Note_on_c, 9, 38, 127
1, 138240, Note_on_c, 9, 49, 127
1, 138240, Note_on_c, 9, 36, 127
1, 138241, Note_on_c, 9, 49, 0
1, 138359, Note_on_c, 9, 41, 0
1, 138359, Note_on_c, 9, 38, 0
1, 138390, Note_on_c, 9, 41, 101
1, 138449, Note_on_c, 9, 41, 0
1, 138480, Note_on_c, 9, 41, 97
1, 138480, Note_on_c, 9, 38, 127
1, 138480, Note_on_c, 9, 45, 94
1, 138559, Note_on_c, 9, 36, 0
1, 138560, Note_on_c, 9, 36, 127
1, 138719, Note_on_c, 9, 41, 0
1, 138719, Note_on_c, 9, 38, 0
1, 138719, Note_on_c, 9, 45, 0
1, 138719, Note_on_c, 9, 36, 0
1, 138720, Note_on_c, 9, 41, 116
1, 138720, Note_on_c, 9, 38, 127
1, 138720, Note_on_c, 9, 45, 123
1, 138720, Note_on_c, 9, 36, 127
1, 138839, Note_on_c, 9, 41, 0
1, 138839, Note_on_c, 9, 38, 0
1, 138839, Note_on_c, 9, 45, 0
1, 138870, Note_on_c, 9, 41, 127
1, 138870, Note_on_c, 9, 38, 127
1, 138870, Note_on_c, 9, 45, 127
1, 138929, Note_on_c, 9, 41, 0
1, 138929, Note_on_c, 9, 38, 0
1, 138930, Note_on_c, 9, 38, 127
1, 138959, Note_on_c, 9, 45, 0
1, 138959, Note_on_c, 9, 38, 0
1, 138960, Note_on_c, 9, 41, 123
1, 138960, Note_on_c, 9, 38, 127
1, 138960, Note_on_c, 9, 45, 127
1, 139199, Note_on_c, 9, 36, 0
1, 139199, Note_on_c, 9, 41, 0
1, 139199, Note_on_c, 9, 38, 0
1, 139199, Note_on_c, 9, 45, 0
1, 139200, Note_on_c, 9, 48, 127
1, 139200, Note_on_c, 9, 36, 127
1, 139279, Note_on_c, 9, 48, 0
1, 139280, Note_on_c, 9, 48, 127
1, 139319, Note_on_c, 9, 48, 0
1, 139359, Note_on_c, 9, 36, 0
1, 139360, Note_on_c, 9, 36, 127
1, 139440, Note_on_c, 9, 48, 127
1, 139519, Note_on_c, 9, 36, 0
1, 139519, Note_on_c, 9, 48, 0
1, 139520, Note_on_c, 9, 48, 127
1, 139520, Note_on_c, 9, 36, 127
1, 139559, Note_on_c, 9, 48, 0
1, 139665, Note_on_c, 9, 48, 127
1, 139665, Note_on_c, 9, 50, 102
1, 139679, Note_on_c, 9, 36, 0
1, 139679, Note_on_c, 9, 50, 0
1, 139680, Note_on_c, 9, 36, 127
1, 139724, Note_on_c, 9, 48, 0
1, 139740, Note_on_c, 9, 45, 127
1, 139799, Note_on_c, 9, 45, 0
1, 139830, Note_on_c, 9, 45, 116
1, 139839, Note_on_c, 9, 36, 0
1, 139840, Note_on_c, 9, 36, 127
1, 139889, Note_on_c, 9, 45, 0
1, 139920, Note_on_c, 9, 45, 127
1, 139979, Note_on_c, 9, 45, 0
1, 139980, Note_on_c, 9, 41, 127
1, 139999, Note_on_c, 9, 36, 0
1, 140000, Note_on_c, 9, 36, 127
1, 140039, Note_on_c, 9, 41, 0
1, 140070, Note_on_c, 9, 41, 127
1, 140129, Note_on_c, 9, 41, 0
1, 140130, Note_on_c, 9, 42, 123
1, 140130, Note_on_c, 9, 42, 0
1, 140130, Note_on_c, 9, 49, 127
1, 140130, Note_on_c, 9, 49, 0
1, 140159, Note_on_c, 9, 36, 0
1, 140160, Note_on_c, 9, 36, 127
1, 140320, Note_on_c, 9, 42, 84
1, 140320, Note_on_c, 9, 42, 0
1, 140480, Note_on_c, 9, 42, 80
1, 140480, Note_on_c, 9, 42, 0
1, 140639, Note_on_c, 9, 36, 0
1, 140640, Note_on_c, 9, 38, 127
1, 140640, Note_on_c, 9, 42, 123
1, 140640, Note_on_c, 9, 36, 127
1, 140641, Note_on_c, 9, 42, 0
1, 140759, Note_on_c, 9, 38, 0
1, 140800, Note_on_c, 9, 42, 87
1, 140800, Note_on_c, 9, 42, 0
1, 140959, Note_on_c, 9, 36, 0
1, 140960, Note_on_c, 9, 42, 106
1, 140960, Note_on_c, 9, 42, 0
1, 140960, Note_on_c, 9, 36, 127
1, 141119, Note_on_c, 9, 36, 0
1, 141120, Note_on_c, 9, 42, 119
1, 141120, Note_on_c, 9, 36, 127
1, 141121, Note_on_c, 9, 42, 0
1, 141280, Note_on_c, 9, 42, 84
1, 141280, Note_on_c, 9, 42, 0
1, 141440, Note_on_c, 9, 42, 85
1, 141440, Note_on_c, 9, 42, 0
1, 141599, Note_on_c, 9, 36, 0
1, 141600, Note_on_c, 9, 38, 127
1, 141600, Note_on_c, 9, 42, 123
1, 141601, Note_on_c, 9, 42, 0
1, 141719, Note_on_c, 9, 38, 0
1, 141760, Note_on_c, 9, 42, 83
1, 141760, Note_on_c, 9, 42, 0
1, 141920, Note_on_c, 9, 42, 81
1, 141920, Note_on_c, 9, 42, 0
1, 142080, Note_on_c, 9, 42, 123
1, 142080, Note_on_c, 9, 36, 127
1, 142081, Note_on_c, 9, 42, 0
1, 142240, Note_on_c, 9, 42, 80
1, 142240, Note_on_c, 9, 42, 0
1, 142400, Note_on_c, 9, 42, 81
1, 142400, Note_on_c, 9, 42, 0
1, 142559, Note_on_c, 9, 36, 0
1, 142560, Note_on_c, 9, 38, 127
1, 142560, Note_on_c, 9, 42, 123
1, 142561, Note_on_c, 9, 42, 0
1, 142679, Note_on_c, 9, 38, 0
1, 142720, Note_on_c, 9, 42, 71
1, 142720, Note_on_c, 9, 42, 0
1, 142880, Note_on_c, 9, 42, 106
1, 142880, Note_on_c, 9, 42, 0
1, 142880, Note_on_c, 9, 36, 127
1, 143039, Note_on_c, 9, 36, 0
1, 143040, Note_on_c, 9, 42, 119
1, 143040, Note_on_c, 9, 36, 127
1, 143041, Note_on_c, 9, 42, 0
1, 143200, Note_on_c, 9, 42, 75
1, 143200, Note_on_c, 9, 42, 0
1, 143360, Note_on_c, 9, 42, 76
1, 143360, Note_on_c, 9, 42, 0
1, 143519, Note_on_c, 9, 36, 0
1, 143520, Note_on_c, 9, 38, 127
1, 143520, Note_on_c, 9, 42, 119
1, 143521, Note_on_c, 9, 42, 0
1, 143639, Note_on_c, 9, 38, 0
1, 143680, Note_on_c, 9, 38, 127
1, 143680, Note_on_c, 9, 42, 66
1, 143680, Note_on_c, 9, 42, 0
1, 143699, Note_on_c, 9, 38, 0
1, 143840, Note_on_c, 9, 38, 127
1, 143840, Note_on_c, 9, 42, 115
1, 143840, Note_on_c, 9, 42, 0
1, 143879, Note_on_c, 9, 38, 0
1, 144000, Note_on_c, 9, 42, 119
1, 144000, Note_on_c, 9, 49, 115
1, 144000, Note_on_c, 9, 36, 127
1, 144001, Note_on_c, 9, 42, 0
1, 144001, Note_on_c, 9, 49, 0
1, 144160, Note_on_c, 9, 42, 82
1, 144160, Note_on_c, 9, 42, 0
1, 144320, Note_on_c, 9, 42, 76
1, 144320, Note_on_c, 9, 42, 0
1, 144479, Note_on_c, 9, 36, 0
1, 144480, Note_on_c, 9, 38, 127
1, 144480, Note_on_c, 9, 42, 123
1, 144481, Note_on_c, 9, 42, 0
1, 144599, Note_on_c, 9, 38, 0
1, 144640, Note_on_c, 9, 42, 75
1, 144640, Note_on_c, 9, 42, 0
1, 144800, Note_on_c, 9, 42, 102
1, 144800, Note_on_c, 9, 42, 0
1, 144800, Note_on_c, 9, 36, 127
1, 144959, Note_on_c, 9, 36, 0
1, 144960, Note_on_c, 9, 42, 119
1, 144960, Note_on_c, 9, 36, 127
1, 144961, Note_on_c, 9, 42, 0
1, 145120, Note_on_c, 9, 42, 78
1, 145120, Note_on_c, 9, 42, 0
1, 145280, Note_on_c, 9, 42, 78
1, 145280, Note_on_c, 9, 42, 0
1, 145439, Note_on_c, 9, 36, 0
1, 145440, Note_on_c, 9, 38, 127
1, 145440, Note_on_c, 9, 42, 119
1, 145442, Note_on_c, 9, 42, 0
1, 145599, Note_on_c, 9, 38, 0
1, 145600, Note_on_c, 9, 42, 83
1, 145600, Note_on_c, 9, 42, 0
1, 145760, Note_on_c, 9, 44, 99
1, 145760, Note_on_c, 9, 44, 0
1, 145920, Note_on_c, 9, 42, 108
1, 145920, Note_on_c, 9, 36, 127
1, 145921, Note_on_c, 9, 42, 0
1, 146080, Note_on_c, 9, 42, 71
1, 146080, Note_on_c, 9, 42, 0
1, 146240, Note_on_c, 9, 42, 79
1, 146240, Note_on_c, 9, 42, 0
1, 146399, Note_on_c, 9, 36, 0
1, 146400, Note_on_c, 9, 38, 127
1, 146400, Note_on_c, 9, 42, 115
1, 146401, Note_on_c, 9, 42, 0
1, 146519, Note_on_c, 9, 38, 0
1, 146560, Note_on_c, 9, 42, 73
1, 146560, Note_on_c, 9, 42, 0
1, 146720, Note_on_c, 9, 42, 105
1, 146720, Note_on_c, 9, 42, 0
1, 146720, Note_on_c, 9, 36, 127
1, 146879, Note_on_c, 9, 36, 0
1, 146880, Note_on_c, 9, 42, 123
1, 146880, Note_on_c, 9, 36, 127
1, 146881, Note_on_c, 9, 42, 0
1, 147040, Note_on_c, 9, 42, 81
1, 147040, Note_on_c, 9, 42, 0
1, 147060, Note_on_c, 9, 48, 106
1, 147119, Note_on_c, 9, 48, 0
1, 147120, Note_on_c, 9, 48, 123
1, 147199, Note_on_c, 9, 48, 0
1, 147200, Note_on_c, 9, 48, 116
1, 147200, Note_on_c, 9, 42, 87
1, 147200, Note_on_c, 9, 42, 0
1, 147239, Note_on_c, 9, 48, 0
1, 147359, Note_on_c, 9, 36, 0
1, 147360, Note_on_c, 9, 38, 127
1, 147360, Note_on_c, 9, 48, 123
1, 147360, Note_on_c, 9, 42, 119
1, 147360, Note_on_c, 9, 42, 0
1, 147439, Note_on_c, 9, 38, 0
1, 147439, Note_on_c, 9, 48, 0
1, 147440, Note_on_c, 9, 48, 127
1, 147479, Note_on_c, 9, 48, 0
1, 147520, Note_on_c, 9, 45, 111
1, 147520, Note_on_c, 9, 42, 102
1, 147520, Note_on_c, 9, 42, 0
1, 147539, Note_on_c, 9, 45, 0
1, 147600, Note_on_c, 9, 45, 123
1, 147679, Note_on_c, 9, 45, 0
1, 147680, Note_on_c, 9, 45, 127
1, 147680, Note_on_c, 9, 44, 115
1, 147680, Note_on_c, 9, 44, 0
1, 147719, Note_on_c, 9, 45, 0
1, 147750, Note_on_c, 9, 41, 123
1, 147809, Note_on_c, 9, 41, 0
1, 147840, Note_on_c, 9, 42, 115
1, 147840, Note_on_c, 9, 49, 127
1, 147840, Note_on_c, 9, 36, 127
1, 147841, Note_on_c, 9, 42, 0
1, 147841, Note_on_c, 9, 49, 0
1, 148000, Note_on_c, 9, 42, 81
1, 148000, Note_on_c, 9, 42, 0
1, 148160, Note_on_c, 9, 42, 78
1, 148160, Note_on_c, 9, 42, 0
1, 148319, Note_on_c, 9, 36, 0
1, 148320, Note_on_c, 9, 38, 127
1, 148320, Note_on_c, 9, 42, 119
1, 148321, Note_on_c, 9, 42, 0
1, 148439, Note_on_c, 9, 38, 0
1, 148480, Note_on_c, 9, 42, 80
1, 148480, Note_on_c, 9, 42, 0
1, 148640, Note_on_c, 9, 42, 94
1, 148640, Note_on_c, 9, 42, 0
1, 148640, Note_on_c, 9, 36, 127
1, 148799, Note_on_c, 9, 36, 0
1, 148800, Note_on_c, 9, 42, 115
1, 148800, Note_on_c, 9, 36, 127
1, 148801, Note_on_c, 9, 42, 0
1, 148960, Note_on_c, 9, 42, 71
1, 148960, Note_on_c, 9, 42, 0
1, 149120, Note_on_c, 9, 42, 68
1, 149120, Note_on_c, 9, 42, 0
1, 149279, Note_on_c, 9, 36, 0
1, 149280, Note_on_c, 9, 38, 127
1, 149280, Note_on_c, 9, 42, 115
1, 149281, Note_on_c, 9, 42, 0
1, 149399, Note_on_c, 9, 38, 0
1, 149440, Note_on_c, 9, 42, 74
1, 149440, Note_on_c, 9, 42, 0
1, 149600, Note_on_c, 9, 42, 80
1, 149600, Note_on_c, 9, 42, 0
1, 149760, Note_on_c, 9, 42, 115
1, 149760, Note_on_c, 9, 36, 127
1, 149761, Note_on_c, 9, 42, 0
1, 149920, Note_on_c, 9, 42, 74
1, 149920, Note_on_c, 9, 42, 0
1, 150080, Note_on_c, 9, 42, 77
1, 150080, Note_on_c, 9, 42, 0
1, 150239, Note_on_c, 9, 36, 0
1, 150240, Note_on_c, 9, 38, 127
1, 150240, Note_on_c, 9, 42, 119
1, 150241, Note_on_c, 9, 42, 0
1, 150359, Note_on_c, 9, 38, 0
1, 150400, Note_on_c, 9, 42, 86
1, 150400, Note_on_c, 9, 42, 0
1, 150560, Note_on_c, 9, 42, 115
1, 150560, Note_on_c, 9, 42, 0
1, 150560, Note_on_c, 9, 36, 127
1, 150719, Note_on_c, 9, 36, 0
1, 150720, Note_on_c, 9, 42, 127
1, 150720, Note_on_c, 9, 36, 127
1, 150721, Note_on_c, 9, 42, 0
1, 150880, Note_on_c, 9, 42, 85
1, 150880, Note_on_c, 9, 42, 0
1, 151040, Note_on_c, 9, 42, 90
1, 151040, Note_on_c, 9, 42, 0
1, 151199, Note_on_c, 9, 36, 0
1, 151200, Note_on_c, 9, 38, 127
1, 151200, Note_on_c, 9, 42, 115
1, 151202, Note_on_c, 9, 42, 0
1, 151359, Note_on_c, 9, 38, 0
1, 151360, Note_on_c, 9, 38, 127
1, 151360, Note_on_c, 9, 42, 108
1, 151360, Note_on_c, 9, 42, 0
1, 151439, Note_on_c, 9, 38, 0
1, 151520, Note_on_c, 9, 44, 115
1, 151520, Note_on_c, 9, 44, 0
1, 151680, Note_on_c, 9, 42, 119
1, 151680, Note_on_c, 9, 42, 0
1, 151680, Note_on_c, 9, 36, 127
1, 151695, Note_on_c, 9, 49, 105
1, 151697, Note_on_c, 9, 49, 0
1, 151845, Note_on_c, 9, 42, 79
1, 151845, Note_on_c, 9, 42, 0
1, 151999, Note_on_c, 9, 36, 0
1, 152000, Note_on_c, 9, 42, 104
1, 152000, Note_on_c, 9, 42, 0
1, 152000, Note_on_c, 9, 36, 127
1, 152159, Note_on_c, 9, 36, 0
1, 152160, Note_on_c, 9, 38, 127
1, 152160, Note_on_c, 9, 42, 123
1, 152160, Note_on_c, 9, 49, 119
1, 152162, Note_on_c, 9, 42, 0
1, 152162, Note_on_c, 9, 49, 0
1, 152319, Note_on_c, 9, 38, 0
1, 152320, Note_on_c, 9, 42, 87
1, 152322, Note_on_c, 9, 42, 0
1, 152480, Note_on_c, 9, 42, 123
1, 152480, Note_on_c, 9, 36, 127
1, 152482, Note_on_c, 9, 42, 0
1, 152639, Note_on_c, 9, 36, 0
1, 152640, Note_on_c, 9, 42, 123
1, 152640, Note_on_c, 9, 49, 127
1, 152640, Note_on_c, 9, 36, 127
1, 152641, Note_on_c, 9, 42, 0
1, 152641, Note_on_c, 9, 49, 0
1, 152800, Note_on_c, 9, 42, 80
1, 152800, Note_on_c, 9, 42, 0
1, 152960, Note_on_c, 9, 42, 78
1, 152960, Note_on_c, 9, 42, 0
1, 153119, Note_on_c, 9, 36, 0
1, 153120, Note_on_c, 9, 38, 127
1, 153120, Note_on_c, 9, 42, 119
1, 153121, Note_on_c, 9, 42, 0
1, 153239, Note_on_c, 9, 38, 0
1, 153280, Note_on_c, 9, 42, 81
1, 153280, Note_on_c, 9, 42, 0
1, 153440, Note_on_c, 9, 42, 106
1, 153440, Note_on_c, 9, 42, 0
1, 153440, Note_on_c, 9, 36, 127
1, 153599, Note_on_c, 9, 36, 0
1, 153600, Note_on_c, 9, 42, 127
1, 153600, Note_on_c, 9, 36, 127
1, 153601, Note_on_c, 9, 42, 0
1, 153760, Note_on_c, 9, 42, 87
1, 153760, Note_on_c, 9, 42, 0
1, 153915, Note_on_c, 9, 38, 127
1, 153915, Note_on_c, 9, 48, 127
1, 153915, Note_on_c, 9, 42, 112
1, 153915, Note_on_c, 9, 42, 0
1, 153959, Note_on_c, 9, 38, 0
1, 153959, Note_on_c, 9, 48, 0
1, 154079, Note_on_c, 9, 36, 0
1, 154080, Note_on_c, 9, 38, 127
1, 154080, Note_on_c, 9, 48, 127
1, 154080, Note_on_c, 9, 42, 127
1, 154081, Note_on_c, 9, 42, 0
1, 154199, Note_on_c, 9, 38, 0
1, 154199, Note_on_c, 9, 48, 0
1, 154230, Note_on_c, 9, 42, 92
1, 154230, Note_on_c, 9, 42, 0
1, 154245, Note_on_c, 9, 48, 89
1, 154304, Note_on_c, 9, 48, 0
1, 154335, Note_on_c, 9, 48, 127
1, 154379, Note_on_c, 9, 48, 0
1, 154380, Note_on_c, 9, 38, 127
1, 154380, Note_on_c, 9, 48, 127
1, 154559, Note_on_c, 9, 38, 0
1, 154559, Note_on_c, 9, 48, 0
1, 154560, Note_on_c, 9, 38, 127
1, 154560, Note_on_c, 9, 48, 127
1, 154560, Note_on_c, 9, 36, 127
1, 154639, Note_on_c, 9, 38, 0
1, 154639, Note_on_c, 9, 48, 0
1, 154640, Note_on_c, 9, 38, 127
1, 154719, Note_on_c, 9, 38, 0
1, 154720, Note_on_c, 9, 38, 127
1, 154720, Note_on_c, 9, 48, 114
1, 154799, Note_on_c, 9, 38, 0
1, 154799, Note_on_c, 9, 48, 0
1, 154800, Note_on_c, 9, 48, 127
1, 154879, Note_on_c, 9, 36, 0
1, 154879, Note_on_c, 9, 48, 0
1, 154880, Note_on_c, 9, 38, 127
1, 154880, Note_on_c, 9, 45, 127
1, 154880, Note_on_c, 9, 36, 127
1, 154919, Note_on_c, 9, 38, 0
1, 154919, Note_on_c, 9, 45, 0
1, 154950, Note_on_c, 9, 45, 123
1, 155009, Note_on_c, 9, 45, 0
1, 155039, Note_on_c, 9, 36, 0
1, 155040, Note_on_c, 9, 38, 127
1, 155040, Note_on_c, 9, 45, 127
1, 155040, Note_on_c, 9, 36, 127
1, 155099, Note_on_c, 9, 38, 0
1, 155099, Note_on_c, 9, 45, 0
1, 155100, Note_on_c, 9, 45, 127
1, 155159, Note_on_c, 9, 45, 0
1, 155190, Note_on_c, 9, 45, 127
1, 155279, Note_on_c, 9, 45, 0
1, 155280, Note_on_c, 9, 41, 127
1, 155359, Note_on_c, 9, 41, 0
1, 155360, Note_on_c, 9, 41, 127
1, 155439, Note_on_c, 9, 41, 0
1, 155440, Note_on_c, 9, 41, 127
1, 155519, Note_on_c, 9, 36, 0
1, 155519, Note_on_c, 9, 41, 0
1, 155520, Note_on_c, 9, 51, 127
1, 155520, Note_on_c, 9, 49, 127
1, 155520, Note_on_c, 9, 36, 127
1, 155523, Note_on_c, 9, 51, 0
1, 155523, Note_on_c, 9, 49, 0
1, 155700, Note_on_c, 9, 51, 96
1, 155700, Note_on_c, 9, 51, 0
1, 155840, Note_on_c, 9, 51, 106
1, 155840, Note_on_c, 9, 51, 0
1, 155999, Note_on_c, 9, 36, 0
1, 156000, Note_on_c, 9, 38, 127
1, 156000, Note_on_c, 9, 51, 127
1, 156001, Note_on_c, 9, 51, 0
1, 156119, Note_on_c, 9, 38, 0
1, 156160, Note_on_c, 9, 51, 87
1, 156160, Note_on_c, 9, 51, 0
1, 156320, Note_on_c, 9, 51, 127
1, 156320, Note_on_c, 9, 51, 0
1, 156320, Note_on_c, 9, 36, 127
1, 156479, Note_on_c, 9, 36, 0
1, 156480, Note_on_c, 9, 51, 127
1, 156480, Note_on_c, 9, 36, 127
1, 156481, Note_on_c, 9, 51, 0
1, 156640, Note_on_c, 9, 51, 89
1, 156640, Note_on_c, 9, 51, 0
1, 156800, Note_on_c, 9, 51, 97
1, 156800, Note_on_c, 9, 51, 0
1, 156959, Note_on_c, 9, 36, 0
1, 156960, Note_on_c, 9, 38, 127
1, 156960, Note_on_c, 9, 51, 127
1, 156961, Note_on_c, 9, 51, 0
1, 157079, Note_on_c, 9, 38, 0
1, 157120, Note_on_c, 9, 51, 85
1, 157120, Note_on_c, 9, 51, 0
1, 157280, Note_on_c, 9, 51, 97
1, 157280, Note_on_c, 9, 51, 0
1, 157280, Note_on_c, 9, 36, 127
1, 157439, Note_on_c, 9, 36, 0
1, 157440, Note_on_c, 9, 51, 127
1, 157440, Note_on_c, 9, 36, 127
1, 157441, Note_on_c, 9, 51, 0
1, 157600, Note_on_c, 9, 51, 87
1, 157600, Note_on_c, 9, 51, 0
1, 157760, Note_on_c, 9, 51, 87
1, 157760, Note_on_c, 9, 51, 0
1, 157919, Note_on_c, 9, 36, 0
1, 157920, Note_on_c, 9, 38, 127
1, 157920, Note_on_c, 9, 51, 123
1, 157921, Note_on_c, 9, 51, 0
1, 158039, Note_on_c, 9, 38, 0
1, 158080, Note_on_c, 9, 51, 89
1, 158080, Note_on_c, 9, 51, 0
1, 158240, Note_on_c, 9, 51, 115
1, 158240, Note_on_c, 9, 51, 0
1, 158240, Note_on_c, 9, 36, 127
1, 158399, Note_on_c, 9, 36, 0
1, 158400, Note_on_c, 9, 51, 119
1, 158400, Note_on_c, 9, 36, 127
1, 158401, Note_on_c, 9, 51, 0
1, 158560, Note_on_c, 9, 51, 88
1, 158560, Note_on_c, 9, 51, 0
1, 158720, Note_on_c, 9, 51, 94
1, 158720, Note_on_c, 9, 51, 0
1, 158879, Note_on_c, 9, 36, 0
1, 158880, Note_on_c, 9, 38, 127
1, 158880, Note_on_c, 9, 51, 123
1, 158882, Note_on_c, 9, 51, 0
1, 159039, Note_on_c, 9, 38, 0
1, 159040, Note_on_c, 9, 38, 127
1, 159040, Note_on_c, 9, 51, 123
1, 159042, Note_on_c, 9, 51, 0
1, 159199, Note_on_c, 9, 38, 0
1, 159200, Note_on_c, 9, 38, 127
1, 159200, Note_on_c, 9, 51, 123
1, 159202, Note_on_c, 9, 51, 0
1, 159359, Note_on_c, 9, 38, 0
1, 159360, Note_on_c, 9, 51, 127
1, 159360, Note_on_c, 9, 49, 127
1, 159360, Note_on_c, 9, 36, 127
1, 159361, Note_on_c, 9, 51, 0
1, 159361, Note_on_c, 9, 49, 0
1, 159520, Note_on_c, 9, 51, 91
1, 159520, Note_on_c, 9, 51, 0
1, 159680, Note_on_c, 9, 51, 85
1, 159680, Note_on_c, 9, 51, 0
1, 159839, Note_on_c, 9, 36, 0
1, 159840, Note_on_c, 9, 38, 127
1, 159840, Note_on_c, 9, 51, 127
1, 159841, Note_on_c, 9, 51, 0
1, 159959, Note_on_c, 9, 38, 0
1, 160000, Note_on_c, 9, 51, 90
1, 160000, Note_on_c, 9, 51, 0
1, 160160, Note_on_c, 9, 51, 123
1, 160160, Note_on_c, 9, 51, 0
1, 160160, Note_on_c, 9, 36, 127
1, 160199, Note_on_c, 9, 36, 0
1, 160320, Note_on_c, 9, 51, 127
1, 160320, Note_on_c, 9, 36, 127
1, 160321, Note_on_c, 9, 51, 0
1, 160480, Note_on_c, 9, 51, 91
1, 160480, Note_on_c, 9, 51, 0
1, 160640, Note_on_c, 9, 51, 95
1, 160640, Note_on_c, 9, 51, 0
1, 160799, Note_on_c, 9, 36, 0
1, 160800, Note_on_c, 9, 38, 127
1, 160800, Note_on_c, 9, 51, 127
1, 160801, Note_on_c, 9, 51, 0
1, 160919, Note_on_c, 9, 38, 0
1, 160960, Note_on_c, 9, 51, 84
1, 160960, Note_on_c, 9, 51, 0
1, 161120, Note_on_c, 9, 51, 88
1, 161120, Note_on_c, 9, 51, 0
1, 161280, Note_on_c, 9, 51, 127
1, 161280, Note_on_c, 9, 36, 127
1, 161281, Note_on_c, 9, 51, 0
1, 161440, Note_on_c, 9, 51, 77
1, 161440, Note_on_c, 9, 51, 0
1, 161600, Note_on_c, 9, 51, 83
1, 161600, Note_on_c, 9, 51, 0
1, 161759, Note_on_c, 9, 36, 0
1, 161760, Note_on_c, 9, 38, 127
1, 161760, Note_on_c, 9, 51, 127
1, 161761, Note_on_c, 9, 51, 0
1, 161879, Note_on_c, 9, 38, 0
1, 161920, Note_on_c, 9, 51, 90
1, 161920, Note_on_c, 9, 51, 0
1, 162080, Note_on_c, 9, 51, 112
1, 162080, Note_on_c, 9, 51, 0
1, 162080, Note_on_c, 9, 36, 127
1, 162239, Note_on_c, 9, 36, 0
1, 162240, Note_on_c, 9, 51, 127
1, 162240, Note_on_c, 9, 36, 127
1, 162241, Note_on_c, 9, 51, 0
1, 162400, Note_on_c, 9, 51, 87
1, 162400, Note_on_c, 9, 51, 0
1, 162560, Note_on_c, 9, 51, 90
1, 162560, Note_on_c, 9, 51, 0
1, 162719, Note_on_c, 9, 36, 0
1, 162720, Note_on_c, 9, 38, 127
1, 162720, Note_on_c, 9, 48, 127
1, 162720, Note_on_c, 9, 51, 123
1, 162722, Note_on_c, 9, 51, 0
1, 162839, Note_on_c, 9, 38, 0
1, 162839, Note_on_c, 9, 48, 0
1, 162885, Note_on_c, 9, 45, 127
1, 162885, Note_on_c, 9, 51, 92
1, 162887, Note_on_c, 9, 51, 0
1, 162944, Note_on_c, 9, 45, 0
1, 163050, Note_on_c, 9, 41, 123
1, 163050, Note_on_c, 9, 38, 127
1, 163050, Note_on_c, 9, 51, 127
1, 163050, Note_on_c, 9, 51, 0
1, 163169, Note_on_c, 9, 41, 0
1, 163169, Note_on_c, 9, 38, 0
1, 163200, Note_on_c, 9, 51, 127
1, 163200, Note_on_c, 9, 49, 115
1, 163200, Note_on_c, 9, 36, 127
1, 163201, Note_on_c, 9, 51, 0
1, 163201, Note_on_c, 9, 49, 0
1, 163360, Note_on_c, 9, 51, 91
1, 163360, Note_on_c, 9, 51, 0
1, 163520, Note_on_c, 9, 51, 85
1, 163520, Note_on_c, 9, 51, 0
1, 163679, Note_on_c, 9, 36, 0
1, 163680, Note_on_c, 9, 38, 127
1, 163680, Note_on_c, 9, 51, 127
1, 163681, Note_on_c, 9, 51, 0
1, 163799, Note_on_c, 9, 38, 0
1, 163840, Note_on_c, 9, 51, 88
1, 163840, Note_on_c, 9, 51, 0
1, 164000, Note_on_c, 9, 51, 94
1, 164000, Note_on_c, 9, 51, 0
1, 164160, Note_on_c, 9, 51, 119
1, 164160, Note_on_c, 9, 36, 127
1, 164161, Note_on_c, 9, 51, 0
1, 164320, Note_on_c, 9, 51, 88
1, 164320, Note_on_c, 9, 51, 0
1, 164480, Note_on_c, 9, 51, 92
1, 164480, Note_on_c, 9, 51, 0
1, 164639, Note_on_c, 9, 36, 0
1, 164640, Note_on_c, 9, 38, 127
1, 164640, Note_on_c, 9, 51, 123
1, 164641, Note_on_c, 9, 51, 0
1, 164759, Note_on_c, 9, 38, 0
1, 164800, Note_on_c, 9, 51, 87
1, 164800, Note_on_c, 9, 51, 0
1, 164960, Note_on_c, 9, 51, 90
1, 164960, Note_on_c, 9, 51, 0
1, 164960, Note_on_c, 9, 36, 127
1, 165119, Note_on_c, 9, 36, 0
1, 165120, Note_on_c, 9, 51, 127
1, 165120, Note_on_c, 9, 36, 127
1, 165121, Note_on_c, 9, 51, 0
1, 165280, Note_on_c, 9, 51, 82
1, 165280, Note_on_c, 9, 51, 0
1, 165440, Note_on_c, 9, 51, 72
1, 165440, Note_on_c, 9, 51, 0
1, 165599, Note_on_c, 9, 36, 0
1, 165600, Note_on_c, 9, 38, 127
1, 165600, Note_on_c, 9, 51, 127
1, 165601, Note_on_c, 9, 51, 0
1, 165719, Note_on_c, 9, 38, 0
1, 165760, Note_on_c, 9, 51, 82
1, 165760, Note_on_c, 9, 51, 0
1, 165920, Note_on_c, 9, 51, 91
1, 165920, Note_on_c, 9, 51, 0
1, 166080, Note_on_c, 9, 51, 127
1, 166080, Note_on_c, 9, 36, 127
1, 166081, Note_on_c, 9, 51, 0
1, 166240, Note_on_c, 9, 51, 75
1, 166240, Note_on_c, 9, 51, 0
1, 166400, Note_on_c, 9, 51, 87
1, 166400, Note_on_c, 9, 51, 0
1, 166559, Note_on_c, 9, 36, 0
1, 166560, Note_on_c, 9, 38, 127
1, 166560, Note_on_c, 9, 51, 127
1, 166562, Note_on_c, 9, 51, 0
1, 166719, Note_on_c, 9, 38, 0
1, 166720, Note_on_c, 9, 51, 99
1, 166722, Note_on_c, 9, 51, 0
1, 166880, Note_on_c, 9, 51, 123
1, 166880, Note_on_c, 9, 36, 127
1, 166882, Note_on_c, 9, 51, 0
1, 167039, Note_on_c, 9, 36, 0
1, 167040, Note_on_c, 9, 49, 127
1, 167040, Note_on_c, 9, 44, 108
1, 167040, Note_on_c, 9, 36, 127
1, 167041, Note_on_c, 9, 49, 0
1, 167050, Note_on_c, 9, 44, 0
1, 167200, Note_on_c, 9, 42, 95
1, 167200, Note_on_c, 9, 42, 0
1, 167360, Note_on_c, 9, 42, 80
1, 167360, Note_on_c, 9, 42, 0
1, 167519, Note_on_c, 9, 36, 0
1, 167520, Note_on_c, 9, 49, 112
1, 167520, Note_on_c, 9, 44, 112
1, 167520, Note_on_c, 9, 36, 127
1, 167521, Note_on_c, 9, 49, 0
1, 167530, Note_on_c, 9, 44, 0
1, 167680, Note_on_c, 9, 42, 95
1, 167680, Note_on_c, 9, 42, 0
1, 167840, Note_on_c, 9, 42, 87
1, 167840, Note_on_c, 9, 42, 0
1, 167999, Note_on_c, 9, 36, 0
1, 168000, Note_on_c, 9, 42, 112
1, 168000, Note_on_c, 9, 49, 106
1, 168000, Note_on_c, 9, 36, 127
1, 168010, Note_on_c, 9, 42, 0
1, 168010, Note_on_c, 9, 49, 0
1, 168479, Note_on_c, 9, 36, 0
1, 168480, End_track
0, 0, End_of_file
