0, 0, Header, 1, 1, 480
1, 0, Start_track
1, 0, Title_t, "Drumset"
1, 0, Time_signature, 4, 2, 24, 8
1, 0, Key_signature, 0, "major"
1, 0, Tempo, 517241
1, 0, Control_c, 9, 121, 0
1, 0, Program_c, 9, 0
1, 0, Control_c, 9, 7, 123
1, 0, Control_c, 9, 10, 64
1, 0, Control_c, 9, 91, 0
1, 0, Control_c, 9, 93, 0
1, 0, MIDI_port, 0
1, 1920, Note_on_c, 9, 42, 54
1, 1920, Note_on_c, 9, 36, 105
1, 1930, Note_on_c, 9, 42, 0
1, 2160, Note_on_c, 9, 42, 69
1, 2170, Note_on_c, 9, 42, 0
1, 2399, Note_on_c, 9, 36, 0
1, 2400, Note_on_c, 9, 40, 113
1, 2400, Note_on_c, 9, 42, 49
1, 2410, Note_on_c, 9, 42, 0
1, 2639, Note_on_c, 9, 40, 0
1, 2640, Note_on_c, 9, 42, 79
1, 2650, Note_on_c, 9, 42, 0
1, 2880, Note_on_c, 9, 42, 46
1, 2880, Note_on_c, 9, 36, 105
1, 2890, Note_on_c, 9, 42, 0
1, 3120, Note_on_c, 9, 42, 74
1, 3130, Note_on_c, 9, 42, 0
1, 3359, Note_on_c, 9, 36, 0
1, 3360, Note_on_c, 9, 40, 113
1, 3360, Note_on_c, 9, 42, 46
1, 3370, Note_on_c, 9, 42, 0
1, 3599, Note_on_c, 9, 40, 0
1, 3600, Note_on_c, 9, 42, 79
1, 3610, Note_on_c, 9, 42, 0
1, 3840, Note_on_c, 9, 42, 42
1, 3840, Note_on_c, 9, 36, 105
1, 3850, Note_on_c, 9, 42, 0
1, 4080, Note_on_c, 9, 42, 69
1, 4090, Note_on_c, 9, 42, 0
1, 4319, Note_on_c, 9, 36, 0
1, 4320, Note_on_c, 9, 40, 112
1, 4320, Note_on_c, 9, 42, 54
1, 4330, Note_on_c, 9, 42, 0
1, 4559, Note_on_c, 9, 40, 0
1, 4560, Note_on_c, 9, 42, 74
1, 4570, Note_on_c, 9, 42, 0
1, 4800, Note_on_c, 9, 42, 57
1, 4800, Note_on_c, 9, 36, 105
1, 4810, Note_on_c, 9, 42, 0
1, 5040, Note_on_c, 9, 42, 69
1, 5050, Note_on_c, 9, 42, 0
1, 5279, Note_on_c, 9, 36, 0
1, 5280, Note_on_c, 9, 40, 113
1, 5280, Note_on_c, 9, 42, 57
1, 5290, Note_on_c, 9, 42, 0
1, 5519, Note_on_c, 9, 40, 0
1, 5520, Note_on_c, 9, 42, 79
1, 5530, Note_on_c, 9, 42, 0
1, 5760, Note_on_c, 9, 82, 62
1, 5760, Note_on_c, 9, 42, 54
1, 5760, Note_on_c, 9, 36, 105
1, 5770, Note_on_c, 9, 42, 0
1, 5999, Note_on_c, 9, 82, 0
1, 6000, Note_on_c, 9, 82, 55
1, 6000, Note_on_c, 9, 42, 69
1, 6010, Note_on_c, 9, 42, 0
1, 6239, Note_on_c, 9, 36, 0
1, 6239, Note_on_c, 9, 82, 0
1, 6240, Note_on_c, 9, 40, 113
1, 6240, Note_on_c, 9, 82, 55
1, 6240, Note_on_c, 9, 42, 49
1, 6250, Note_on_c, 9, 42, 0
1, 6479, Note_on_c, 9, 40, 0
1, 6479, Note_on_c, 9, 82, 0
1, 6480, Note_on_c, 9, 82, 51
1, 6480, Note_on_c, 9, 42, 79
1, 6490, Note_on_c, 9, 42, 0
1, 6719, Note_on_c, 9, 82, 0
1, 6720, Note_on_c, 9, 82, 58
1, 6720, Note_on_c, 9, 42, 46
1, 6720, Note_on_c, 9, 36, 105
1, 6730, Note_on_c, 9, 42, 0
1, 6959, Note_on_c, 9, 82, 0
1, 6960, Note_on_c, 9, 82, 47
1, 6960, Note_on_c, 9, 42, 74
1, 6970, Note_on_c, 9, 42, 0
1, 7199, Note_on_c, 9, 36, 0
1, 7199, Note_on_c, 9, 82, 0
1, 7200, Note_on_c, 9, 40, 113
1, 7200, Note_on_c, 9, 82, 62
1, 7200, Note_on_c, 9, 42, 46
1, 7210, Note_on_c, 9, 42, 0
1, 7439, Note_on_c, 9, 40, 0
1, 7439, Note_on_c, 9, 82, 0
1, 7440, Note_on_c, 9, 82, 58
1, 7440, Note_on_c, 9, 42, 79
1, 7450, Note_on_c, 9, 42, 0
1, 7679, Note_on_c, 9, 82, 0
1, 7680, Note_on_c, 9, 82, 56
1, 7680, Note_on_c, 9, 42, 42
1, 7680, Note_on_c, 9, 36, 105
1, 7690, Note_on_c, 9, 42, 0
1, 7919, Note_on_c, 9, 82, 0
1, 7920, Note_on_c, 9, 82, 46
1, 7920, Note_on_c, 9, 42, 69
1, 7930, Note_on_c, 9, 42, 0
1, 8159, Note_on_c, 9, 36, 0
1, 8159, Note_on_c, 9, 82, 0
1, 8160, Note_on_c, 9, 40, 112
1, 8160, Note_on_c, 9, 82, 64
1, 8160, Note_on_c, 9, 42, 54
1, 8170, Note_on_c, 9, 42, 0
1, 8399, Note_on_c, 9, 40, 0
1, 8399, Note_on_c, 9, 82, 0
1, 8400, Note_on_c, 9, 82, 53
1, 8400, Note_on_c, 9, 42, 74
1, 8410, Note_on_c, 9, 42, 0
1, 8639, Note_on_c, 9, 82, 0
1, 8640, Note_on_c, 9, 82, 62
1, 8640, Note_on_c, 9, 42, 57
1, 8640, Note_on_c, 9, 36, 105
1, 8650, Note_on_c, 9, 42, 0
1, 8879, Note_on_c, 9, 82, 0
1, 8880, Note_on_c, 9, 82, 60
1, 8880, Note_on_c, 9, 42, 69
1, 8890, Note_on_c, 9, 42, 0
1, 9119, Note_on_c, 9, 36, 0
1, 9119, Note_on_c, 9, 82, 0
1, 9120, Note_on_c, 9, 40, 113
1, 9120, Note_on_c, 9, 82, 68
1, 9120, Note_on_c, 9, 42, 57
1, 9130, Note_on_c, 9, 42, 0
1, 9359, Note_on_c, 9, 40, 0
1, 9359, Note_on_c, 9, 82, 0
1, 9360, Note_on_c, 9, 82, 50
1, 9360, Note_on_c, 9, 42, 79
1, 9370, Note_on_c, 9, 42, 0
1, 9599, Note_on_c, 9, 82, 0
1, 9600, Note_on_c, 9, 82, 68
1, 9600, Note_on_c, 9, 42, 54
1, 9600, Note_on_c, 9, 36, 105
1, 9610, Note_on_c, 9, 42, 0
1, 9839, Note_on_c, 9, 82, 0
1, 9840, Note_on_c, 9, 82, 58
1, 9840, Note_on_c, 9, 42, 69
1, 9850, Note_on_c, 9, 42, 0
1, 10079, Note_on_c, 9, 36, 0
1, 10079, Note_on_c, 9, 82, 0
1, 10080, Note_on_c, 9, 40, 113
1, 10080, Note_on_c, 9, 82, 66
1, 10080, Note_on_c, 9, 42, 49
1, 10090, Note_on_c, 9, 42, 0
1, 10319, Note_on_c, 9, 40, 0
1, 10319, Note_on_c, 9, 82, 0
1, 10320, Note_on_c, 9, 82, 60
1, 10320, Note_on_c, 9, 42, 79
1, 10330, Note_on_c, 9, 42, 0
1, 10559, Note_on_c, 9, 82, 0
1, 10560, Note_on_c, 9, 82, 56
1, 10560, Note_on_c, 9, 42, 46
1, 10560, Note_on_c, 9, 36, 105
1, 10570, Note_on_c, 9, 42, 0
1, 10799, Note_on_c, 9, 82, 0
1, 10800, Note_on_c, 9, 82, 60
1, 10800, Note_on_c, 9, 42, 74
1, 10810, Note_on_c, 9, 42, 0
1, 11039, Note_on_c, 9, 36, 0
1, 11039, Note_on_c, 9, 82, 0
1, 11040, Note_on_c, 9, 40, 113
1, 11040, Note_on_c, 9, 82, 64
1, 11040, Note_on_c, 9, 42, 46
1, 11050, Note_on_c, 9, 42, 0
1, 11279, Note_on_c, 9, 40, 0
1, 11279, Note_on_c, 9, 82, 0
1, 11280, Note_on_c, 9, 69, 100
1, 11280, Note_on_c, 9, 82, 64
1, 11280, Note_on_c, 9, 42, 79
1, 11290, Note_on_c, 9, 42, 0
1, 11519, Note_on_c, 9, 69, 0
1, 11519, Note_on_c, 9, 82, 0
1, 11520, Note_on_c, 9, 69, 113
1, 11520, Note_on_c, 9, 82, 66
1, 11520, Note_on_c, 9, 42, 42
1, 11520, Note_on_c, 9, 36, 105
1, 11530, Note_on_c, 9, 42, 0
1, 11759, Note_on_c, 9, 69, 0
1, 11759, Note_on_c, 9, 82, 0
1, 11760, Note_on_c, 9, 69, 117
1, 11760, Note_on_c, 9, 82, 64
1, 11760, Note_on_c, 9, 42, 69
1, 11770, Note_on_c, 9, 42, 0
1, 11999, Note_on_c, 9, 36, 0
1, 11999, Note_on_c, 9, 69, 0
1, 11999, Note_on_c, 9, 82, 0
1, 12000, Note_on_c, 9, 40, 112
1, 12000, Note_on_c, 9, 69, 93
1, 12000, Note_on_c, 9, 82, 62
1, 12000, Note_on_c, 9, 42, 54
1, 12010, Note_on_c, 9, 42, 0
1, 12239, Note_on_c, 9, 40, 0
1, 12239, Note_on_c, 9, 69, 0
1, 12239, Note_on_c, 9, 82, 0
1, 12240, Note_on_c, 9, 69, 80
1, 12240, Note_on_c, 9, 82, 64
1, 12240, Note_on_c, 9, 42, 74
1, 12250, Note_on_c, 9, 42, 0
1, 12479, Note_on_c, 9, 69, 0
1, 12479, Note_on_c, 9, 82, 0
1, 12480, Note_on_c, 9, 82, 64
1, 12480, Note_on_c, 9, 42, 57
1, 12480, Note_on_c, 9, 36, 105
1, 12490, Note_on_c, 9, 42, 0
1, 12719, Note_on_c, 9, 82, 0
1, 12720, Note_on_c, 9, 82, 68
1, 12720, Note_on_c, 9, 42, 69
1, 12730, Note_on_c, 9, 42, 0
1, 12959, Note_on_c, 9, 36, 0
1, 12959, Note_on_c, 9, 82, 0
1, 12960, Note_on_c, 9, 40, 113
1, 12960, Note_on_c, 9, 82, 62
1, 12960, Note_on_c, 9, 42, 57
1, 12970, Note_on_c, 9, 42, 0
1, 13199, Note_on_c, 9, 40, 0
1, 13199, Note_on_c, 9, 82, 0
1, 13200, Note_on_c, 9, 82, 64
1, 13200, Note_on_c, 9, 42, 79
1, 13210, Note_on_c, 9, 42, 0
1, 13439, Note_on_c, 9, 82, 0
1, 13440, Note_on_c, 9, 82, 62
1, 13440, Note_on_c, 9, 42, 54
1, 13440, Note_on_c, 9, 36, 105
1, 13450, Note_on_c, 9, 42, 0
1, 13679, Note_on_c, 9, 82, 0
1, 13680, Note_on_c, 9, 82, 55
1, 13680, Note_on_c, 9, 42, 69
1, 13690, Note_on_c, 9, 42, 0
1, 13919, Note_on_c, 9, 36, 0
1, 13919, Note_on_c, 9, 82, 0
1, 13920, Note_on_c, 9, 40, 113
1, 13920, Note_on_c, 9, 82, 55
1, 13920, Note_on_c, 9, 42, 49
1, 13930, Note_on_c, 9, 42, 0
1, 14159, Note_on_c, 9, 40, 0
1, 14159, Note_on_c, 9, 82, 0
1, 14160, Note_on_c, 9, 82, 51
1, 14160, Note_on_c, 9, 42, 79
1, 14170, Note_on_c, 9, 42, 0
1, 14399, Note_on_c, 9, 82, 0
1, 14400, Note_on_c, 9, 82, 58
1, 14400, Note_on_c, 9, 42, 46
1, 14400, Note_on_c, 9, 36, 105
1, 14410, Note_on_c, 9, 42, 0
1, 14639, Note_on_c, 9, 82, 0
1, 14640, Note_on_c, 9, 82, 47
1, 14640, Note_on_c, 9, 42, 74
1, 14650, Note_on_c, 9, 42, 0
1, 14879, Note_on_c, 9, 36, 0
1, 14879, Note_on_c, 9, 82, 0
1, 14880, Note_on_c, 9, 40, 113
1, 14880, Note_on_c, 9, 82, 62
1, 14880, Note_on_c, 9, 42, 46
1, 14890, Note_on_c, 9, 42, 0
1, 15119, Note_on_c, 9, 40, 0
1, 15119, Note_on_c, 9, 82, 0
1, 15120, Note_on_c, 9, 82, 58
1, 15120, Note_on_c, 9, 42, 79
1, 15130, Note_on_c, 9, 42, 0
1, 15359, Note_on_c, 9, 82, 0
1, 15360, Note_on_c, 9, 82, 56
1, 15360, Note_on_c, 9, 42, 42
1, 15360, Note_on_c, 9, 36, 105
1, 15370, Note_on_c, 9, 42, 0
1, 15599, Note_on_c, 9, 82, 0
1, 15600, Note_on_c, 9, 82, 46
1, 15600, Note_on_c, 9, 42, 69
1, 15610, Note_on_c, 9, 42, 0
1, 15839, Note_on_c, 9, 36, 0
1, 15839, Note_on_c, 9, 82, 0
1, 15840, Note_on_c, 9, 40, 112
1, 15840, Note_on_c, 9, 82, 64
1, 15840, Note_on_c, 9, 42, 54
1, 15850, Note_on_c, 9, 42, 0
1, 16079, Note_on_c, 9, 40, 0
1, 16079, Note_on_c, 9, 82, 0
1, 16080, Note_on_c, 9, 82, 53
1, 16080, Note_on_c, 9, 42, 74
1, 16090, Note_on_c, 9, 42, 0
1, 16319, Note_on_c, 9, 82, 0
1, 16320, Note_on_c, 9, 82, 62
1, 16320, Note_on_c, 9, 42, 57
1, 16320, Note_on_c, 9, 36, 105
1, 16330, Note_on_c, 9, 42, 0
1, 16559, Note_on_c, 9, 82, 0
1, 16560, Note_on_c, 9, 82, 60
1, 16560, Note_on_c, 9, 42, 69
1, 16570, Note_on_c, 9, 42, 0
1, 16799, Note_on_c, 9, 36, 0
1, 16799, Note_on_c, 9, 82, 0
1, 16800, Note_on_c, 9, 40, 113
1, 16800, Note_on_c, 9, 82, 68
1, 16800, Note_on_c, 9, 42, 57
1, 16810, Note_on_c, 9, 42, 0
1, 17039, Note_on_c, 9, 40, 0
1, 17039, Note_on_c, 9, 82, 0
1, 17040, Note_on_c, 9, 82, 50
1, 17040, Note_on_c, 9, 42, 79
1, 17050, Note_on_c, 9, 42, 0
1, 17279, Note_on_c, 9, 82, 0
1, 17280, Note_on_c, 9, 82, 68
1, 17280, Note_on_c, 9, 42, 54
1, 17280, Note_on_c, 9, 36, 105
1, 17290, Note_on_c, 9, 42, 0
1, 17519, Note_on_c, 9, 82, 0
1, 17520, Note_on_c, 9, 82, 58
1, 17520, Note_on_c, 9, 42, 69
1, 17530, Note_on_c, 9, 42, 0
1, 17759, Note_on_c, 9, 36, 0
1, 17759, Note_on_c, 9, 82, 0
1, 17760, Note_on_c, 9, 40, 113
1, 17760, Note_on_c, 9, 82, 66
1, 17760, Note_on_c, 9, 42, 49
1, 17770, Note_on_c, 9, 42, 0
1, 17999, Note_on_c, 9, 40, 0
1, 17999, Note_on_c, 9, 82, 0
1, 18000, Note_on_c, 9, 82, 60
1, 18000, Note_on_c, 9, 42, 79
1, 18010, Note_on_c, 9, 42, 0
1, 18239, Note_on_c, 9, 82, 0
1, 18240, Note_on_c, 9, 82, 56
1, 18240, Note_on_c, 9, 42, 46
1, 18240, Note_on_c, 9, 36, 105
1, 18250, Note_on_c, 9, 42, 0
1, 18479, Note_on_c, 9, 82, 0
1, 18480, Note_on_c, 9, 82, 60
1, 18480, Note_on_c, 9, 42, 74
1, 18490, Note_on_c, 9, 42, 0
1, 18719, Note_on_c, 9, 36, 0
1, 18719, Note_on_c, 9, 82, 0
1, 18720, Note_on_c, 9, 40, 113
1, 18720, Note_on_c, 9, 82, 64
1, 18720, Note_on_c, 9, 42, 46
1, 18730, Note_on_c, 9, 42, 0
1, 18959, Note_on_c, 9, 40, 0
1, 18959, Note_on_c, 9, 82, 0
1, 18960, Note_on_c, 9, 82, 64
1, 18960, Note_on_c, 9, 42, 79
1, 18970, Note_on_c, 9, 42, 0
1, 19199, Note_on_c, 9, 82, 0
1, 19200, Note_on_c, 9, 82, 66
1, 19200, Note_on_c, 9, 42, 42
1, 19200, Note_on_c, 9, 36, 105
1, 19210, Note_on_c, 9, 42, 0
1, 19439, Note_on_c, 9, 82, 0
1, 19440, Note_on_c, 9, 82, 64
1, 19440, Note_on_c, 9, 42, 69
1, 19450, Note_on_c, 9, 42, 0
1, 19679, Note_on_c, 9, 36, 0
1, 19679, Note_on_c, 9, 82, 0
1, 19680, Note_on_c, 9, 40, 112
1, 19680, Note_on_c, 9, 82, 62
1, 19680, Note_on_c, 9, 42, 54
1, 19690, Note_on_c, 9, 42, 0
1, 19919, Note_on_c, 9, 40, 0
1, 19919, Note_on_c, 9, 82, 0
1, 19920, Note_on_c, 9, 82, 64
1, 19920, Note_on_c, 9, 42, 74
1, 19930, Note_on_c, 9, 42, 0
1, 20159, Note_on_c, 9, 82, 0
1, 20160, Note_on_c, 9, 82, 64
1, 20160, Note_on_c, 9, 42, 57
1, 20160, Note_on_c, 9, 36, 105
1, 20170, Note_on_c, 9, 42, 0
1, 20399, Note_on_c, 9, 82, 0
1, 20400, Note_on_c, 9, 82, 68
1, 20400, Note_on_c, 9, 42, 69
1, 20410, Note_on_c, 9, 42, 0
1, 20639, Note_on_c, 9, 36, 0
1, 20639, Note_on_c, 9, 82, 0
1, 20640, Note_on_c, 9, 40, 113
1, 20640, Note_on_c, 9, 82, 62
1, 20640, Note_on_c, 9, 42, 57
1, 20650, Note_on_c, 9, 42, 0
1, 20879, Note_on_c, 9, 40, 0
1, 20879, Note_on_c, 9, 82, 0
1, 20880, Note_on_c, 9, 82, 64
1, 20880, Note_on_c, 9, 42, 79
1, 20890, Note_on_c, 9, 42, 0
1, 21119, Note_on_c, 9, 82, 0
1, 21120, Note_on_c, 9, 82, 62
1, 21120, Note_on_c, 9, 42, 54
1, 21120, Note_on_c, 9, 36, 105
1, 21130, Note_on_c, 9, 42, 0
1, 21359, Note_on_c, 9, 82, 0
1, 21360, Note_on_c, 9, 82, 55
1, 21360, Note_on_c, 9, 42, 69
1, 21370, Note_on_c, 9, 42, 0
1, 21599, Note_on_c, 9, 36, 0
1, 21599, Note_on_c, 9, 82, 0
1, 21600, Note_on_c, 9, 40, 113
1, 21600, Note_on_c, 9, 82, 55
1, 21600, Note_on_c, 9, 42, 49
1, 21610, Note_on_c, 9, 42, 0
1, 21839, Note_on_c, 9, 40, 0
1, 21839, Note_on_c, 9, 82, 0
1, 21840, Note_on_c, 9, 82, 51
1, 21840, Note_on_c, 9, 42, 79
1, 21850, Note_on_c, 9, 42, 0
1, 22079, Note_on_c, 9, 82, 0
1, 22080, Note_on_c, 9, 82, 58
1, 22080, Note_on_c, 9, 42, 46
1, 22080, Note_on_c, 9, 36, 105
1, 22090, Note_on_c, 9, 42, 0
1, 22319, Note_on_c, 9, 82, 0
1, 22320, Note_on_c, 9, 82, 47
1, 22320, Note_on_c, 9, 42, 74
1, 22330, Note_on_c, 9, 42, 0
1, 22559, Note_on_c, 9, 36, 0
1, 22559, Note_on_c, 9, 82, 0
1, 22560, Note_on_c, 9, 40, 113
1, 22560, Note_on_c, 9, 82, 62
1, 22560, Note_on_c, 9, 42, 46
1, 22570, Note_on_c, 9, 42, 0
1, 22799, Note_on_c, 9, 40, 0
1, 22799, Note_on_c, 9, 82, 0
1, 22800, Note_on_c, 9, 82, 58
1, 22800, Note_on_c, 9, 42, 79
1, 22810, Note_on_c, 9, 42, 0
1, 23039, Note_on_c, 9, 82, 0
1, 23040, Note_on_c, 9, 82, 56
1, 23040, Note_on_c, 9, 42, 42
1, 23040, Note_on_c, 9, 36, 105
1, 23050, Note_on_c, 9, 42, 0
1, 23279, Note_on_c, 9, 82, 0
1, 23280, Note_on_c, 9, 82, 46
1, 23280, Note_on_c, 9, 42, 69
1, 23290, Note_on_c, 9, 42, 0
1, 23519, Note_on_c, 9, 36, 0
1, 23519, Note_on_c, 9, 82, 0
1, 23520, Note_on_c, 9, 40, 112
1, 23520, Note_on_c, 9, 82, 64
1, 23520, Note_on_c, 9, 42, 54
1, 23530, Note_on_c, 9, 42, 0
1, 23759, Note_on_c, 9, 40, 0
1, 23759, Note_on_c, 9, 82, 0
1, 23760, Note_on_c, 9, 82, 53
1, 23760, Note_on_c, 9, 42, 74
1, 23770, Note_on_c, 9, 42, 0
1, 23999, Note_on_c, 9, 82, 0
1, 24000, Note_on_c, 9, 82, 62
1, 24000, Note_on_c, 9, 42, 57
1, 24000, Note_on_c, 9, 36, 105
1, 24010, Note_on_c, 9, 42, 0
1, 24239, Note_on_c, 9, 82, 0
1, 24240, Note_on_c, 9, 82, 60
1, 24240, Note_on_c, 9, 42, 69
1, 24250, Note_on_c, 9, 42, 0
1, 24479, Note_on_c, 9, 36, 0
1, 24479, Note_on_c, 9, 82, 0
1, 24480, Note_on_c, 9, 40, 113
1, 24480, Note_on_c, 9, 82, 68
1, 24480, Note_on_c, 9, 42, 57
1, 24490, Note_on_c, 9, 42, 0
1, 24719, Note_on_c, 9, 40, 0
1, 24719, Note_on_c, 9, 82, 0
1, 24720, Note_on_c, 9, 82, 50
1, 24720, Note_on_c, 9, 42, 79
1, 24730, Note_on_c, 9, 42, 0
1, 24959, Note_on_c, 9, 82, 0
1, 24960, Note_on_c, 9, 82, 68
1, 24960, Note_on_c, 9, 42, 54
1, 24960, Note_on_c, 9, 36, 105
1, 24970, Note_on_c, 9, 42, 0
1, 25199, Note_on_c, 9, 82, 0
1, 25200, Note_on_c, 9, 82, 58
1, 25200, Note_on_c, 9, 42, 69
1, 25210, Note_on_c, 9, 42, 0
1, 25439, Note_on_c, 9, 36, 0
1, 25439, Note_on_c, 9, 82, 0
1, 25440, Note_on_c, 9, 40, 113
1, 25440, Note_on_c, 9, 82, 66
1, 25440, Note_on_c, 9, 85, 94
1, 25440, Note_on_c, 9, 42, 49
1, 25450, Note_on_c, 9, 42, 0
1, 25679, Note_on_c, 9, 40, 0
1, 25679, Note_on_c, 9, 82, 0
1, 25679, Note_on_c, 9, 85, 0
1, 25680, Note_on_c, 9, 82, 60
1, 25680, Note_on_c, 9, 42, 79
1, 25690, Note_on_c, 9, 42, 0
1, 25919, Note_on_c, 9, 82, 0
1, 25920, Note_on_c, 9, 82, 56
1, 25920, Note_on_c, 9, 42, 46
1, 25920, Note_on_c, 9, 36, 105
1, 25930, Note_on_c, 9, 42, 0
1, 26159, Note_on_c, 9, 82, 0
1, 26160, Note_on_c, 9, 82, 60
1, 26160, Note_on_c, 9, 42, 74
1, 26170, Note_on_c, 9, 42, 0
1, 26399, Note_on_c, 9, 36, 0
1, 26399, Note_on_c, 9, 82, 0
1, 26400, Note_on_c, 9, 40, 113
1, 26400, Note_on_c, 9, 82, 64
1, 26400, Note_on_c, 9, 85, 94
1, 26400, Note_on_c, 9, 42, 46
1, 26410, Note_on_c, 9, 42, 0
1, 26639, Note_on_c, 9, 40, 0
1, 26639, Note_on_c, 9, 82, 0
1, 26639, Note_on_c, 9, 85, 0
1, 26640, Note_on_c, 9, 82, 64
1, 26640, Note_on_c, 9, 42, 79
1, 26650, Note_on_c, 9, 42, 0
1, 26879, Note_on_c, 9, 82, 0
1, 26880, Note_on_c, 9, 82, 66
1, 26880, Note_on_c, 9, 42, 42
1, 26880, Note_on_c, 9, 36, 105
1, 26890, Note_on_c, 9, 42, 0
1, 27119, Note_on_c, 9, 82, 0
1, 27120, Note_on_c, 9, 82, 64
1, 27120, Note_on_c, 9, 42, 69
1, 27130, Note_on_c, 9, 42, 0
1, 27359, Note_on_c, 9, 36, 0
1, 27359, Note_on_c, 9, 82, 0
1, 27360, Note_on_c, 9, 40, 112
1, 27360, Note_on_c, 9, 82, 62
1, 27360, Note_on_c, 9, 42, 54
1, 27370, Note_on_c, 9, 42, 0
1, 27599, Note_on_c, 9, 40, 0
1, 27599, Note_on_c, 9, 82, 0
1, 27600, Note_on_c, 9, 82, 64
1, 27600, Note_on_c, 9, 42, 74
1, 27610, Note_on_c, 9, 42, 0
1, 27839, Note_on_c, 9, 82, 0
1, 27840, Note_on_c, 9, 82, 64
1, 27840, Note_on_c, 9, 42, 57
1, 27840, Note_on_c, 9, 36, 105
1, 27850, Note_on_c, 9, 42, 0
1, 28079, Note_on_c, 9, 82, 0
1, 28080, Note_on_c, 9, 82, 68
1, 28080, Note_on_c, 9, 42, 69
1, 28090, Note_on_c, 9, 42, 0
1, 28319, Note_on_c, 9, 36, 0
1, 28319, Note_on_c, 9, 82, 0
1, 28320, Note_on_c, 9, 40, 113
1, 28320, Note_on_c, 9, 82, 62
1, 28320, Note_on_c, 9, 42, 57
1, 28330, Note_on_c, 9, 42, 0
1, 28559, Note_on_c, 9, 40, 0
1, 28559, Note_on_c, 9, 82, 0
1, 28560, Note_on_c, 9, 82, 64
1, 28560, Note_on_c, 9, 42, 79
1, 28570, Note_on_c, 9, 42, 0
1, 28799, Note_on_c, 9, 82, 0
1, 28800, Note_on_c, 9, 82, 62
1, 28800, Note_on_c, 9, 42, 54
1, 28800, Note_on_c, 9, 36, 105
1, 28810, Note_on_c, 9, 42, 0
1, 29039, Note_on_c, 9, 82, 0
1, 29040, Note_on_c, 9, 82, 55
1, 29040, Note_on_c, 9, 42, 69
1, 29050, Note_on_c, 9, 42, 0
1, 29279, Note_on_c, 9, 36, 0
1, 29279, Note_on_c, 9, 82, 0
1, 29280, Note_on_c, 9, 40, 113
1, 29280, Note_on_c, 9, 82, 55
1, 29280, Note_on_c, 9, 42, 49
1, 29290, Note_on_c, 9, 42, 0
1, 29519, Note_on_c, 9, 40, 0
1, 29519, Note_on_c, 9, 82, 0
1, 29520, Note_on_c, 9, 82, 51
1, 29520, Note_on_c, 9, 42, 79
1, 29530, Note_on_c, 9, 42, 0
1, 29759, Note_on_c, 9, 82, 0
1, 29760, Note_on_c, 9, 82, 58
1, 29760, Note_on_c, 9, 42, 46
1, 29760, Note_on_c, 9, 36, 105
1, 29770, Note_on_c, 9, 42, 0
1, 29999, Note_on_c, 9, 82, 0
1, 30000, Note_on_c, 9, 82, 47
1, 30000, Note_on_c, 9, 42, 74
1, 30010, Note_on_c, 9, 42, 0
1, 30239, Note_on_c, 9, 36, 0
1, 30239, Note_on_c, 9, 82, 0
1, 30240, Note_on_c, 9, 40, 113
1, 30240, Note_on_c, 9, 82, 62
1, 30240, Note_on_c, 9, 42, 46
1, 30250, Note_on_c, 9, 42, 0
1, 30479, Note_on_c, 9, 40, 0
1, 30479, Note_on_c, 9, 82, 0
1, 30480, Note_on_c, 9, 82, 58
1, 30480, Note_on_c, 9, 42, 79
1, 30490, Note_on_c, 9, 42, 0
1, 30719, Note_on_c, 9, 82, 0
1, 30720, Note_on_c, 9, 82, 56
1, 30720, Note_on_c, 9, 42, 42
1, 30720, Note_on_c, 9, 36, 105
1, 30730, Note_on_c, 9, 42, 0
1, 30959, Note_on_c, 9, 82, 0
1, 30960, Note_on_c, 9, 82, 46
1, 30960, Note_on_c, 9, 42, 69
1, 30970, Note_on_c, 9, 42, 0
1, 31199, Note_on_c, 9, 36, 0
1, 31199, Note_on_c, 9, 82, 0
1, 31200, Note_on_c, 9, 40, 112
1, 31200, Note_on_c, 9, 82, 64
1, 31200, Note_on_c, 9, 42, 54
1, 31210, Note_on_c, 9, 42, 0
1, 31439, Note_on_c, 9, 40, 0
1, 31439, Note_on_c, 9, 82, 0
1, 31440, Note_on_c, 9, 82, 53
1, 31440, Note_on_c, 9, 42, 74
1, 31450, Note_on_c, 9, 42, 0
1, 31679, Note_on_c, 9, 82, 0
1, 31680, Note_on_c, 9, 82, 62
1, 31680, Note_on_c, 9, 42, 57
1, 31680, Note_on_c, 9, 36, 105
1, 31690, Note_on_c, 9, 42, 0
1, 31919, Note_on_c, 9, 82, 0
1, 31920, Note_on_c, 9, 82, 60
1, 31920, Note_on_c, 9, 42, 69
1, 31930, Note_on_c, 9, 42, 0
1, 32159, Note_on_c, 9, 36, 0
1, 32159, Note_on_c, 9, 82, 0
1, 32160, Note_on_c, 9, 40, 113
1, 32160, Note_on_c, 9, 82, 68
1, 32160, Note_on_c, 9, 42, 57
1, 32170, Note_on_c, 9, 42, 0
1, 32399, Note_on_c, 9, 40, 0
1, 32399, Note_on_c, 9, 82, 0
1, 32400, Note_on_c, 9, 82, 50
1, 32400, Note_on_c, 9, 42, 79
1, 32410, Note_on_c, 9, 42, 0
1, 32639, Note_on_c, 9, 82, 0
1, 32640, Note_on_c, 9, 82, 68
1, 32640, Note_on_c, 9, 42, 54
1, 32640, Note_on_c, 9, 36, 105
1, 32650, Note_on_c, 9, 42, 0
1, 32879, Note_on_c, 9, 82, 0
1, 32880, Note_on_c, 9, 82, 58
1, 32880, Note_on_c, 9, 42, 69
1, 32890, Note_on_c, 9, 42, 0
1, 33119, Note_on_c, 9, 36, 0
1, 33119, Note_on_c, 9, 82, 0
1, 33120, Note_on_c, 9, 40, 113
1, 33120, Note_on_c, 9, 82, 66
1, 33120, Note_on_c, 9, 42, 49
1, 33130, Note_on_c, 9, 42, 0
1, 33359, Note_on_c, 9, 40, 0
1, 33359, Note_on_c, 9, 82, 0
1, 33360, Note_on_c, 9, 82, 60
1, 33360, Note_on_c, 9, 42, 79
1, 33370, Note_on_c, 9, 42, 0
1, 33599, Note_on_c, 9, 82, 0
1, 33600, Note_on_c, 9, 82, 56
1, 33600, Note_on_c, 9, 42, 46
1, 33600, Note_on_c, 9, 36, 105
1, 33610, Note_on_c, 9, 42, 0
1, 33839, Note_on_c, 9, 82, 0
1, 33840, Note_on_c, 9, 82, 60
1, 33840, Note_on_c, 9, 42, 74
1, 33850, Note_on_c, 9, 42, 0
1, 34079, Note_on_c, 9, 36, 0
1, 34079, Note_on_c, 9, 82, 0
1, 34080, Note_on_c, 9, 40, 113
1, 34080, Note_on_c, 9, 82, 64
1, 34080, Note_on_c, 9, 42, 46
1, 34090, Note_on_c, 9, 42, 0
1, 34319, Note_on_c, 9, 40, 0
1, 34319, Note_on_c, 9, 82, 0
1, 34320, Note_on_c, 9, 82, 64
1, 34320, Note_on_c, 9, 42, 79
1, 34330, Note_on_c, 9, 42, 0
1, 34559, Note_on_c, 9, 82, 0
1, 34560, Note_on_c, 9, 82, 66
1, 34560, Note_on_c, 9, 42, 42
1, 34560, Note_on_c, 9, 36, 105
1, 34570, Note_on_c, 9, 42, 0
1, 34799, Note_on_c, 9, 82, 0
1, 34800, Note_on_c, 9, 82, 64
1, 34800, Note_on_c, 9, 42, 69
1, 34810, Note_on_c, 9, 42, 0
1, 35039, Note_on_c, 9, 36, 0
1, 35039, Note_on_c, 9, 82, 0
1, 35040, Note_on_c, 9, 40, 112
1, 35040, Note_on_c, 9, 82, 62
1, 35040, Note_on_c, 9, 42, 54
1, 35050, Note_on_c, 9, 42, 0
1, 35279, Note_on_c, 9, 40, 0
1, 35279, Note_on_c, 9, 82, 0
1, 35280, Note_on_c, 9, 82, 64
1, 35280, Note_on_c, 9, 42, 74
1, 35290, Note_on_c, 9, 42, 0
1, 35519, Note_on_c, 9, 82, 0
1, 35520, Note_on_c, 9, 82, 64
1, 35520, Note_on_c, 9, 42, 57
1, 35520, Note_on_c, 9, 36, 105
1, 35530, Note_on_c, 9, 42, 0
1, 35759, Note_on_c, 9, 82, 0
1, 35760, Note_on_c, 9, 82, 68
1, 35760, Note_on_c, 9, 42, 69
1, 35770, Note_on_c, 9, 42, 0
1, 35999, Note_on_c, 9, 36, 0
1, 35999, Note_on_c, 9, 82, 0
1, 36000, Note_on_c, 9, 40, 113
1, 36000, Note_on_c, 9, 82, 62
1, 36000, Note_on_c, 9, 42, 57
1, 36010, Note_on_c, 9, 42, 0
1, 36239, Note_on_c, 9, 40, 0
1, 36239, Note_on_c, 9, 82, 0
1, 36240, Note_on_c, 9, 82, 64
1, 36240, Note_on_c, 9, 42, 79
1, 36250, Note_on_c, 9, 42, 0
1, 36479, Note_on_c, 9, 82, 0
1, 36480, Note_on_c, 9, 82, 62
1, 36480, Note_on_c, 9, 42, 54
1, 36480, Note_on_c, 9, 36, 105
1, 36490, Note_on_c, 9, 42, 0
1, 36719, Note_on_c, 9, 82, 0
1, 36720, Note_on_c, 9, 82, 55
1, 36720, Note_on_c, 9, 42, 69
1, 36730, Note_on_c, 9, 42, 0
1, 36959, Note_on_c, 9, 36, 0
1, 36959, Note_on_c, 9, 82, 0
1, 36960, Note_on_c, 9, 40, 113
1, 36960, Note_on_c, 9, 82, 55
1, 36960, Note_on_c, 9, 42, 49
1, 36970, Note_on_c, 9, 42, 0
1, 37199, Note_on_c, 9, 40, 0
1, 37199, Note_on_c, 9, 82, 0
1, 37200, Note_on_c, 9, 82, 51
1, 37200, Note_on_c, 9, 42, 79
1, 37210, Note_on_c, 9, 42, 0
1, 37439, Note_on_c, 9, 82, 0
1, 37440, Note_on_c, 9, 82, 58
1, 37440, Note_on_c, 9, 42, 46
1, 37440, Note_on_c, 9, 36, 105
1, 37450, Note_on_c, 9, 42, 0
1, 37679, Note_on_c, 9, 82, 0
1, 37680, Note_on_c, 9, 82, 47
1, 37680, Note_on_c, 9, 42, 74
1, 37690, Note_on_c, 9, 42, 0
1, 37919, Note_on_c, 9, 36, 0
1, 37919, Note_on_c, 9, 82, 0
1, 37920, Note_on_c, 9, 40, 113
1, 37920, Note_on_c, 9, 82, 62
1, 37920, Note_on_c, 9, 42, 46
1, 37930, Note_on_c, 9, 42, 0
1, 38159, Note_on_c, 9, 40, 0
1, 38159, Note_on_c, 9, 82, 0
1, 38160, Note_on_c, 9, 82, 58
1, 38160, Note_on_c, 9, 42, 79
1, 38170, Note_on_c, 9, 42, 0
1, 38399, Note_on_c, 9, 82, 0
1, 38400, Note_on_c, 9, 82, 56
1, 38400, Note_on_c, 9, 42, 42
1, 38400, Note_on_c, 9, 36, 105
1, 38410, Note_on_c, 9, 42, 0
1, 38639, Note_on_c, 9, 82, 0
1, 38640, Note_on_c, 9, 82, 46
1, 38640, Note_on_c, 9, 42, 69
1, 38650, Note_on_c, 9, 42, 0
1, 38879, Note_on_c, 9, 36, 0
1, 38879, Note_on_c, 9, 82, 0
1, 38880, Note_on_c, 9, 40, 112
1, 38880, Note_on_c, 9, 82, 64
1, 38880, Note_on_c, 9, 42, 54
1, 38890, Note_on_c, 9, 42, 0
1, 39119, Note_on_c, 9, 40, 0
1, 39119, Note_on_c, 9, 82, 0
1, 39120, Note_on_c, 9, 82, 53
1, 39120, Note_on_c, 9, 42, 74
1, 39130, Note_on_c, 9, 42, 0
1, 39359, Note_on_c, 9, 82, 0
1, 39360, Note_on_c, 9, 82, 62
1, 39360, Note_on_c, 9, 42, 57
1, 39360, Note_on_c, 9, 36, 105
1, 39370, Note_on_c, 9, 42, 0
1, 39599, Note_on_c, 9, 82, 0
1, 39600, Note_on_c, 9, 82, 60
1, 39600, Note_on_c, 9, 42, 69
1, 39610, Note_on_c, 9, 42, 0
1, 39839, Note_on_c, 9, 36, 0
1, 39839, Note_on_c, 9, 82, 0
1, 39840, Note_on_c, 9, 40, 113
1, 39840, Note_on_c, 9, 82, 68
1, 39840, Note_on_c, 9, 42, 57
1, 39850, Note_on_c, 9, 42, 0
1, 40079, Note_on_c, 9, 40, 0
1, 40079, Note_on_c, 9, 82, 0
1, 40080, Note_on_c, 9, 82, 50
1, 40080, Note_on_c, 9, 42, 79
1, 40090, Note_on_c, 9, 42, 0
1, 40319, Note_on_c, 9, 82, 0
1, 40320, Note_on_c, 9, 82, 68
1, 40320, Note_on_c, 9, 42, 54
1, 40320, Note_on_c, 9, 36, 105
1, 40330, Note_on_c, 9, 42, 0
1, 40559, Note_on_c, 9, 82, 0
1, 40560, Note_on_c, 9, 82, 58
1, 40560, Note_on_c, 9, 42, 69
1, 40570, Note_on_c, 9, 42, 0
1, 40799, Note_on_c, 9, 36, 0
1, 40799, Note_on_c, 9, 82, 0
1, 40800, Note_on_c, 9, 40, 113
1, 40800, Note_on_c, 9, 82, 66
1, 40800, Note_on_c, 9, 42, 49
1, 40810, Note_on_c, 9, 42, 0
1, 41039, Note_on_c, 9, 40, 0
1, 41039, Note_on_c, 9, 82, 0
1, 41040, Note_on_c, 9, 82, 60
1, 41040, Note_on_c, 9, 42, 79
1, 41050, Note_on_c, 9, 42, 0
1, 41279, Note_on_c, 9, 82, 0
1, 41280, Note_on_c, 9, 82, 56
1, 41280, Note_on_c, 9, 42, 46
1, 41280, Note_on_c, 9, 36, 105
1, 41290, Note_on_c, 9, 42, 0
1, 41519, Note_on_c, 9, 82, 0
1, 41520, Note_on_c, 9, 82, 60
1, 41520, Note_on_c, 9, 42, 74
1, 41530, Note_on_c, 9, 42, 0
1, 41759, Note_on_c, 9, 36, 0
1, 41759, Note_on_c, 9, 82, 0
1, 41760, Note_on_c, 9, 40, 113
1, 41760, Note_on_c, 9, 82, 64
1, 41760, Note_on_c, 9, 42, 46
1, 41770, Note_on_c, 9, 42, 0
1, 41999, Note_on_c, 9, 40, 0
1, 41999, Note_on_c, 9, 82, 0
1, 42000, Note_on_c, 9, 82, 64
1, 42000, Note_on_c, 9, 42, 79
1, 42010, Note_on_c, 9, 42, 0
1, 42239, Note_on_c, 9, 82, 0
1, 42240, Note_on_c, 9, 82, 66
1, 42240, Note_on_c, 9, 42, 42
1, 42240, Note_on_c, 9, 36, 105
1, 42250, Note_on_c, 9, 42, 0
1, 42479, Note_on_c, 9, 82, 0
1, 42480, Note_on_c, 9, 82, 64
1, 42480, Note_on_c, 9, 42, 69
1, 42490, Note_on_c, 9, 42, 0
1, 42719, Note_on_c, 9, 36, 0
1, 42719, Note_on_c, 9, 82, 0
1, 42720, Note_on_c, 9, 40, 112
1, 42720, Note_on_c, 9, 82, 62
1, 42720, Note_on_c, 9, 42, 54
1, 42730, Note_on_c, 9, 42, 0
1, 42959, Note_on_c, 9, 40, 0
1, 42959, Note_on_c, 9, 82, 0
1, 42960, Note_on_c, 9, 82, 64
1, 42960, Note_on_c, 9, 42, 74
1, 42970, Note_on_c, 9, 42, 0
1, 43199, Note_on_c, 9, 82, 0
1, 43200, Note_on_c, 9, 82, 64
1, 43200, Note_on_c, 9, 42, 57
1, 43200, Note_on_c, 9, 36, 105
1, 43210, Note_on_c, 9, 42, 0
1, 43439, Note_on_c, 9, 82, 0
1, 43440, Note_on_c, 9, 82, 68
1, 43440, Note_on_c, 9, 42, 69
1, 43450, Note_on_c, 9, 42, 0
1, 43679, Note_on_c, 9, 36, 0
1, 43679, Note_on_c, 9, 82, 0
1, 43680, Note_on_c, 9, 40, 113
1, 43680, Note_on_c, 9, 82, 62
1, 43680, Note_on_c, 9, 42, 57
1, 43690, Note_on_c, 9, 42, 0
1, 43919, Note_on_c, 9, 40, 0
1, 43919, Note_on_c, 9, 82, 0
1, 43920, Note_on_c, 9, 82, 64
1, 43920, Note_on_c, 9, 42, 79
1, 43930, Note_on_c, 9, 42, 0
1, 44159, Note_on_c, 9, 82, 0
1, 44160, Note_on_c, 9, 82, 62
1, 44160, Note_on_c, 9, 42, 54
1, 44160, Note_on_c, 9, 36, 105
1, 44170, Note_on_c, 9, 42, 0
1, 44399, Note_on_c, 9, 82, 0
1, 44400, Note_on_c, 9, 82, 55
1, 44400, Note_on_c, 9, 42, 69
1, 44410, Note_on_c, 9, 42, 0
1, 44639, Note_on_c, 9, 36, 0
1, 44639, Note_on_c, 9, 82, 0
1, 44640, Note_on_c, 9, 40, 113
1, 44640, Note_on_c, 9, 82, 55
1, 44640, Note_on_c, 9, 42, 49
1, 44650, Note_on_c, 9, 42, 0
1, 44879, Note_on_c, 9, 40, 0
1, 44879, Note_on_c, 9, 82, 0
1, 44880, Note_on_c, 9, 82, 51
1, 44880, Note_on_c, 9, 42, 79
1, 44890, Note_on_c, 9, 42, 0
1, 45119, Note_on_c, 9, 82, 0
1, 45120, Note_on_c, 9, 82, 58
1, 45120, Note_on_c, 9, 42, 46
1, 45120, Note_on_c, 9, 36, 105
1, 45130, Note_on_c, 9, 42, 0
1, 45359, Note_on_c, 9, 82, 0
1, 45360, Note_on_c, 9, 82, 47
1, 45360, Note_on_c, 9, 42, 74
1, 45370, Note_on_c, 9, 42, 0
1, 45599, Note_on_c, 9, 36, 0
1, 45599, Note_on_c, 9, 82, 0
1, 45600, Note_on_c, 9, 40, 113
1, 45600, Note_on_c, 9, 82, 62
1, 45600, Note_on_c, 9, 42, 46
1, 45610, Note_on_c, 9, 42, 0
1, 45839, Note_on_c, 9, 40, 0
1, 45839, Note_on_c, 9, 82, 0
1, 45840, Note_on_c, 9, 82, 58
1, 45840, Note_on_c, 9, 42, 79
1, 45850, Note_on_c, 9, 42, 0
1, 46079, Note_on_c, 9, 82, 0
1, 46080, Note_on_c, 9, 82, 56
1, 46080, Note_on_c, 9, 42, 42
1, 46080, Note_on_c, 9, 36, 105
1, 46090, Note_on_c, 9, 42, 0
1, 46319, Note_on_c, 9, 82, 0
1, 46320, Note_on_c, 9, 82, 46
1, 46320, Note_on_c, 9, 42, 69
1, 46330, Note_on_c, 9, 42, 0
1, 46559, Note_on_c, 9, 36, 0
1, 46559, Note_on_c, 9, 82, 0
1, 46560, Note_on_c, 9, 40, 112
1, 46560, Note_on_c, 9, 82, 64
1, 46560, Note_on_c, 9, 42, 54
1, 46570, Note_on_c, 9, 42, 0
1, 46799, Note_on_c, 9, 40, 0
1, 46799, Note_on_c, 9, 82, 0
1, 46800, Note_on_c, 9, 82, 53
1, 46800, Note_on_c, 9, 42, 74
1, 46810, Note_on_c, 9, 42, 0
1, 47039, Note_on_c, 9, 82, 0
1, 47040, Note_on_c, 9, 82, 62
1, 47040, Note_on_c, 9, 42, 57
1, 47040, Note_on_c, 9, 36, 105
1, 47050, Note_on_c, 9, 42, 0
1, 47279, Note_on_c, 9, 82, 0
1, 47280, Note_on_c, 9, 82, 60
1, 47280, Note_on_c, 9, 42, 69
1, 47290, Note_on_c, 9, 42, 0
1, 47519, Note_on_c, 9, 36, 0
1, 47519, Note_on_c, 9, 82, 0
1, 47520, Note_on_c, 9, 40, 113
1, 47520, Note_on_c, 9, 82, 68
1, 47520, Note_on_c, 9, 42, 57
1, 47530, Note_on_c, 9, 42, 0
1, 47759, Note_on_c, 9, 40, 0
1, 47759, Note_on_c, 9, 82, 0
1, 47760, Note_on_c, 9, 82, 50
1, 47760, Note_on_c, 9, 42, 79
1, 47770, Note_on_c, 9, 42, 0
1, 47999, Note_on_c, 9, 82, 0
1, 48000, Note_on_c, 9, 82, 68
1, 48000, Note_on_c, 9, 42, 54
1, 48000, Note_on_c, 9, 36, 105
1, 48010, Note_on_c, 9, 42, 0
1, 48239, Note_on_c, 9, 82, 0
1, 48240, Note_on_c, 9, 82, 58
1, 48240, Note_on_c, 9, 42, 69
1, 48250, Note_on_c, 9, 42, 0
1, 48479, Note_on_c, 9, 36, 0
1, 48479, Note_on_c, 9, 82, 0
1, 48480, Note_on_c, 9, 40, 113
1, 48480, Note_on_c, 9, 82, 66
1, 48480, Note_on_c, 9, 42, 49
1, 48490, Note_on_c, 9, 42, 0
1, 48719, Note_on_c, 9, 40, 0
1, 48719, Note_on_c, 9, 82, 0
1, 48720, Note_on_c, 9, 82, 60
1, 48720, Note_on_c, 9, 42, 79
1, 48730, Note_on_c, 9, 42, 0
1, 48959, Note_on_c, 9, 82, 0
1, 48960, Note_on_c, 9, 82, 56
1, 48960, Note_on_c, 9, 42, 46
1, 48960, Note_on_c, 9, 36, 105
1, 48970, Note_on_c, 9, 42, 0
1, 49199, Note_on_c, 9, 82, 0
1, 49200, Note_on_c, 9, 82, 60
1, 49200, Note_on_c, 9, 42, 74
1, 49210, Note_on_c, 9, 42, 0
1, 49439, Note_on_c, 9, 36, 0
1, 49439, Note_on_c, 9, 82, 0
1, 49440, Note_on_c, 9, 40, 113
1, 49440, Note_on_c, 9, 82, 64
1, 49440, Note_on_c, 9, 42, 46
1, 49450, Note_on_c, 9, 42, 0
1, 49679, Note_on_c, 9, 40, 0
1, 49679, Note_on_c, 9, 82, 0
1, 49680, Note_on_c, 9, 82, 64
1, 49680, Note_on_c, 9, 42, 79
1, 49690, Note_on_c, 9, 42, 0
1, 49919, Note_on_c, 9, 82, 0
1, 49920, Note_on_c, 9, 82, 66
1, 49920, Note_on_c, 9, 42, 42
1, 49920, Note_on_c, 9, 36, 105
1, 49930, Note_on_c, 9, 42, 0
1, 50159, Note_on_c, 9, 82, 0
1, 50160, Note_on_c, 9, 82, 64
1, 50160, Note_on_c, 9, 42, 69
1, 50170, Note_on_c, 9, 42, 0
1, 50399, Note_on_c, 9, 36, 0
1, 50399, Note_on_c, 9, 82, 0
1, 50400, Note_on_c, 9, 40, 112
1, 50400, Note_on_c, 9, 82, 62
1, 50400, Note_on_c, 9, 42, 54
1, 50410, Note_on_c, 9, 42, 0
1, 50639, Note_on_c, 9, 40, 0
1, 50639, Note_on_c, 9, 82, 0
1, 50640, Note_on_c, 9, 82, 64
1, 50640, Note_on_c, 9, 42, 74
1, 50650, Note_on_c, 9, 42, 0
1, 50879, Note_on_c, 9, 82, 0
1, 50880, Note_on_c, 9, 82, 64
1, 50880, Note_on_c, 9, 42, 57
1, 50880, Note_on_c, 9, 36, 105
1, 50890, Note_on_c, 9, 42, 0
1, 51119, Note_on_c, 9, 82, 0
1, 51120, Note_on_c, 9, 82, 68
1, 51120, Note_on_c, 9, 42, 69
1, 51130, Note_on_c, 9, 42, 0
1, 51359, Note_on_c, 9, 36, 0
1, 51359, Note_on_c, 9, 82, 0
1, 51360, Note_on_c, 9, 40, 113
1, 51360, Note_on_c, 9, 82, 62
1, 51360, Note_on_c, 9, 42, 57
1, 51370, Note_on_c, 9, 42, 0
1, 51599, Note_on_c, 9, 40, 0
1, 51599, Note_on_c, 9, 82, 0
1, 51600, Note_on_c, 9, 82, 64
1, 51600, Note_on_c, 9, 42, 79
1, 51610, Note_on_c, 9, 42, 0
1, 51839, Note_on_c, 9, 82, 0
1, 51840, Note_on_c, 9, 82, 62
1, 51840, Note_on_c, 9, 42, 54
1, 51840, Note_on_c, 9, 36, 105
1, 51850, Note_on_c, 9, 42, 0
1, 52079, Note_on_c, 9, 82, 0
1, 52080, Note_on_c, 9, 82, 55
1, 52080, Note_on_c, 9, 42, 69
1, 52090, Note_on_c, 9, 42, 0
1, 52319, Note_on_c, 9, 36, 0
1, 52319, Note_on_c, 9, 82, 0
1, 52320, Note_on_c, 9, 40, 113
1, 52320, Note_on_c, 9, 82, 55
1, 52320, Note_on_c, 9, 42, 49
1, 52330, Note_on_c, 9, 42, 0
1, 52559, Note_on_c, 9, 40, 0
1, 52559, Note_on_c, 9, 82, 0
1, 52560, Note_on_c, 9, 82, 51
1, 52560, Note_on_c, 9, 42, 79
1, 52570, Note_on_c, 9, 42, 0
1, 52799, Note_on_c, 9, 82, 0
1, 52800, Note_on_c, 9, 82, 58
1, 52800, Note_on_c, 9, 42, 46
1, 52800, Note_on_c, 9, 36, 105
1, 52810, Note_on_c, 9, 42, 0
1, 53039, Note_on_c, 9, 82, 0
1, 53040, Note_on_c, 9, 82, 47
1, 53040, Note_on_c, 9, 42, 74
1, 53050, Note_on_c, 9, 42, 0
1, 53279, Note_on_c, 9, 36, 0
1, 53279, Note_on_c, 9, 82, 0
1, 53280, Note_on_c, 9, 40, 113
1, 53280, Note_on_c, 9, 82, 62
1, 53280, Note_on_c, 9, 42, 46
1, 53290, Note_on_c, 9, 42, 0
1, 53519, Note_on_c, 9, 40, 0
1, 53519, Note_on_c, 9, 82, 0
1, 53520, Note_on_c, 9, 82, 58
1, 53520, Note_on_c, 9, 42, 79
1, 53530, Note_on_c, 9, 42, 0
1, 53759, Note_on_c, 9, 82, 0
1, 53760, Note_on_c, 9, 82, 56
1, 53760, Note_on_c, 9, 42, 42
1, 53760, Note_on_c, 9, 36, 105
1, 53770, Note_on_c, 9, 42, 0
1, 53999, Note_on_c, 9, 82, 0
1, 54000, Note_on_c, 9, 82, 46
1, 54000, Note_on_c, 9, 42, 69
1, 54010, Note_on_c, 9, 42, 0
1, 54239, Note_on_c, 9, 36, 0
1, 54239, Note_on_c, 9, 82, 0
1, 54240, Note_on_c, 9, 40, 112
1, 54240, Note_on_c, 9, 82, 64
1, 54240, Note_on_c, 9, 42, 54
1, 54250, Note_on_c, 9, 42, 0
1, 54479, Note_on_c, 9, 40, 0
1, 54479, Note_on_c, 9, 82, 0
1, 54480, Note_on_c, 9, 82, 53
1, 54480, Note_on_c, 9, 42, 74
1, 54490, Note_on_c, 9, 42, 0
1, 54719, Note_on_c, 9, 82, 0
1, 54720, Note_on_c, 9, 82, 62
1, 54720, Note_on_c, 9, 42, 57
1, 54720, Note_on_c, 9, 36, 105
1, 54730, Note_on_c, 9, 42, 0
1, 54959, Note_on_c, 9, 82, 0
1, 54960, Note_on_c, 9, 82, 60
1, 54960, Note_on_c, 9, 42, 69
1, 54970, Note_on_c, 9, 42, 0
1, 55199, Note_on_c, 9, 36, 0
1, 55199, Note_on_c, 9, 82, 0
1, 55200, Note_on_c, 9, 40, 113
1, 55200, Note_on_c, 9, 82, 68
1, 55200, Note_on_c, 9, 42, 57
1, 55210, Note_on_c, 9, 42, 0
1, 55439, Note_on_c, 9, 40, 0
1, 55439, Note_on_c, 9, 82, 0
1, 55440, Note_on_c, 9, 82, 50
1, 55440, Note_on_c, 9, 42, 79
1, 55450, Note_on_c, 9, 42, 0
1, 55679, Note_on_c, 9, 82, 0
1, 55680, Note_on_c, 9, 82, 68
1, 55680, Note_on_c, 9, 42, 54
1, 55680, Note_on_c, 9, 36, 105
1, 55690, Note_on_c, 9, 42, 0
1, 55919, Note_on_c, 9, 82, 0
1, 55920, Note_on_c, 9, 82, 58
1, 55920, Note_on_c, 9, 42, 69
1, 55930, Note_on_c, 9, 42, 0
1, 56159, Note_on_c, 9, 36, 0
1, 56159, Note_on_c, 9, 82, 0
1, 56160, Note_on_c, 9, 40, 113
1, 56160, Note_on_c, 9, 82, 66
1, 56160, Note_on_c, 9, 42, 49
1, 56170, Note_on_c, 9, 42, 0
1, 56399, Note_on_c, 9, 40, 0
1, 56399, Note_on_c, 9, 82, 0
1, 56400, Note_on_c, 9, 82, 60
1, 56400, Note_on_c, 9, 42, 79
1, 56410, Note_on_c, 9, 42, 0
1, 56639, Note_on_c, 9, 82, 0
1, 56640, Note_on_c, 9, 82, 56
1, 56640, Note_on_c, 9, 42, 46
1, 56640, Note_on_c, 9, 36, 105
1, 56650, Note_on_c, 9, 42, 0
1, 56879, Note_on_c, 9, 82, 0
1, 56880, Note_on_c, 9, 82, 60
1, 56880, Note_on_c, 9, 42, 74
1, 56890, Note_on_c, 9, 42, 0
1, 57119, Note_on_c, 9, 36, 0
1, 57119, Note_on_c, 9, 82, 0
1, 57120, Note_on_c, 9, 40, 113
1, 57120, Note_on_c, 9, 82, 64
1, 57120, Note_on_c, 9, 42, 46
1, 57130, Note_on_c, 9, 42, 0
1, 57359, Note_on_c, 9, 40, 0
1, 57359, Note_on_c, 9, 82, 0
1, 57360, Note_on_c, 9, 82, 64
1, 57360, Note_on_c, 9, 42, 79
1, 57370, Note_on_c, 9, 42, 0
1, 57599, Note_on_c, 9, 82, 0
1, 57600, Note_on_c, 9, 82, 66
1, 57600, Note_on_c, 9, 42, 42
1, 57600, Note_on_c, 9, 36, 105
1, 57610, Note_on_c, 9, 42, 0
1, 57839, Note_on_c, 9, 82, 0
1, 57840, Note_on_c, 9, 82, 64
1, 57840, Note_on_c, 9, 42, 69
1, 57850, Note_on_c, 9, 42, 0
1, 58079, Note_on_c, 9, 36, 0
1, 58079, Note_on_c, 9, 82, 0
1, 58080, Note_on_c, 9, 40, 112
1, 58080, Note_on_c, 9, 82, 62
1, 58080, Note_on_c, 9, 42, 54
1, 58090, Note_on_c, 9, 42, 0
1, 58319, Note_on_c, 9, 40, 0
1, 58319, Note_on_c, 9, 82, 0
1, 58320, Note_on_c, 9, 82, 64
1, 58320, Note_on_c, 9, 42, 74
1, 58330, Note_on_c, 9, 42, 0
1, 58559, Note_on_c, 9, 82, 0
1, 58560, Note_on_c, 9, 82, 64
1, 58560, Note_on_c, 9, 42, 57
1, 58560, Note_on_c, 9, 36, 105
1, 58570, Note_on_c, 9, 42, 0
1, 58799, Note_on_c, 9, 82, 0
1, 58800, Note_on_c, 9, 82, 68
1, 58800, Note_on_c, 9, 42, 69
1, 58810, Note_on_c, 9, 42, 0
1, 59039, Note_on_c, 9, 36, 0
1, 59039, Note_on_c, 9, 82, 0
1, 59040, Note_on_c, 9, 40, 113
1, 59040, Note_on_c, 9, 82, 62
1, 59040, Note_on_c, 9, 42, 57
1, 59050, Note_on_c, 9, 42, 0
1, 59279, Note_on_c, 9, 40, 0
1, 59279, Note_on_c, 9, 82, 0
1, 59280, Note_on_c, 9, 82, 64
1, 59280, Note_on_c, 9, 42, 79
1, 59290, Note_on_c, 9, 42, 0
1, 59519, Note_on_c, 9, 82, 0
1, 59520, Note_on_c, 9, 82, 62
1, 59520, Note_on_c, 9, 42, 54
1, 59520, Note_on_c, 9, 36, 105
1, 59530, Note_on_c, 9, 42, 0
1, 59759, Note_on_c, 9, 82, 0
1, 59760, Note_on_c, 9, 82, 55
1, 59760, Note_on_c, 9, 42, 69
1, 59770, Note_on_c, 9, 42, 0
1, 59999, Note_on_c, 9, 36, 0
1, 59999, Note_on_c, 9, 82, 0
1, 60000, Note_on_c, 9, 40, 113
1, 60000, Note_on_c, 9, 82, 55
1, 60000, Note_on_c, 9, 42, 49
1, 60010, Note_on_c, 9, 42, 0
1, 60239, Note_on_c, 9, 40, 0
1, 60239, Note_on_c, 9, 82, 0
1, 60240, Note_on_c, 9, 82, 51
1, 60240, Note_on_c, 9, 42, 79
1, 60250, Note_on_c, 9, 42, 0
1, 60479, Note_on_c, 9, 82, 0
1, 60480, Note_on_c, 9, 82, 58
1, 60480, Note_on_c, 9, 42, 46
1, 60480, Note_on_c, 9, 36, 105
1, 60490, Note_on_c, 9, 42, 0
1, 60719, Note_on_c, 9, 82, 0
1, 60720, Note_on_c, 9, 82, 47
1, 60720, Note_on_c, 9, 42, 74
1, 60730, Note_on_c, 9, 42, 0
1, 60959, Note_on_c, 9, 36, 0
1, 60959, Note_on_c, 9, 82, 0
1, 60960, Note_on_c, 9, 40, 113
1, 60960, Note_on_c, 9, 82, 62
1, 60960, Note_on_c, 9, 42, 46
1, 60970, Note_on_c, 9, 42, 0
1, 61199, Note_on_c, 9, 40, 0
1, 61199, Note_on_c, 9, 82, 0
1, 61200, Note_on_c, 9, 82, 58
1, 61200, Note_on_c, 9, 42, 79
1, 61210, Note_on_c, 9, 42, 0
1, 61439, Note_on_c, 9, 82, 0
1, 61440, Note_on_c, 9, 82, 56
1, 61440, Note_on_c, 9, 42, 42
1, 61440, Note_on_c, 9, 36, 105
1, 61450, Note_on_c, 9, 42, 0
1, 61679, Note_on_c, 9, 82, 0
1, 61680, Note_on_c, 9, 82, 46
1, 61680, Note_on_c, 9, 42, 69
1, 61690, Note_on_c, 9, 42, 0
1, 61919, Note_on_c, 9, 36, 0
1, 61919, Note_on_c, 9, 82, 0
1, 61920, Note_on_c, 9, 40, 112
1, 61920, Note_on_c, 9, 82, 64
1, 61920, Note_on_c, 9, 42, 54
1, 61930, Note_on_c, 9, 42, 0
1, 62159, Note_on_c, 9, 40, 0
1, 62159, Note_on_c, 9, 82, 0
1, 62160, Note_on_c, 9, 82, 53
1, 62160, Note_on_c, 9, 42, 74
1, 62170, Note_on_c, 9, 42, 0
1, 62399, Note_on_c, 9, 82, 0
1, 62400, Note_on_c, 9, 82, 62
1, 62400, Note_on_c, 9, 42, 57
1, 62400, Note_on_c, 9, 36, 105
1, 62410, Note_on_c, 9, 42, 0
1, 62639, Note_on_c, 9, 82, 0
1, 62640, Note_on_c, 9, 82, 60
1, 62640, Note_on_c, 9, 42, 69
1, 62650, Note_on_c, 9, 42, 0
1, 62879, Note_on_c, 9, 36, 0
1, 62879, Note_on_c, 9, 82, 0
1, 62880, Note_on_c, 9, 40, 113
1, 62880, Note_on_c, 9, 82, 68
1, 62880, Note_on_c, 9, 42, 57
1, 62890, Note_on_c, 9, 42, 0
1, 63119, Note_on_c, 9, 40, 0
1, 63119, Note_on_c, 9, 82, 0
1, 63120, Note_on_c, 9, 82, 50
1, 63120, Note_on_c, 9, 42, 79
1, 63130, Note_on_c, 9, 42, 0
1, 63359, Note_on_c, 9, 82, 0
1, 63360, Note_on_c, 9, 82, 68
1, 63360, Note_on_c, 9, 42, 54
1, 63360, Note_on_c, 9, 36, 105
1, 63370, Note_on_c, 9, 42, 0
1, 63599, Note_on_c, 9, 82, 0
1, 63600, Note_on_c, 9, 82, 58
1, 63600, Note_on_c, 9, 42, 69
1, 63610, Note_on_c, 9, 42, 0
1, 63839, Note_on_c, 9, 36, 0
1, 63839, Note_on_c, 9, 82, 0
1, 63840, Note_on_c, 9, 40, 113
1, 63840, Note_on_c, 9, 82, 66
1, 63840, Note_on_c, 9, 42, 49
1, 63850, Note_on_c, 9, 42, 0
1, 64079, Note_on_c, 9, 40, 0
1, 64079, Note_on_c, 9, 82, 0
1, 64080, Note_on_c, 9, 82, 60
1, 64080, Note_on_c, 9, 42, 79
1, 64090, Note_on_c, 9, 42, 0
1, 64319, Note_on_c, 9, 82, 0
1, 64320, Note_on_c, 9, 82, 56
1, 64320, Note_on_c, 9, 42, 46
1, 64320, Note_on_c, 9, 36, 105
1, 64330, Note_on_c, 9, 42, 0
1, 64559, Note_on_c, 9, 82, 0
1, 64560, Note_on_c, 9, 82, 60
1, 64560, Note_on_c, 9, 42, 74
1, 64570, Note_on_c, 9, 42, 0
1, 64799, Note_on_c, 9, 36, 0
1, 64799, Note_on_c, 9, 82, 0
1, 64800, Note_on_c, 9, 40, 113
1, 64800, Note_on_c, 9, 82, 64
1, 64800, Note_on_c, 9, 42, 46
1, 64810, Note_on_c, 9, 42, 0
1, 65039, Note_on_c, 9, 40, 0
1, 65039, Note_on_c, 9, 82, 0
1, 65040, Note_on_c, 9, 40, 117
1, 65040, Note_on_c, 9, 46, 94
1, 65040, Note_on_c, 9, 82, 64
1, 65044, Note_on_c, 9, 46, 0
1, 65159, Note_on_c, 9, 40, 0
1, 65159, Note_on_c, 9, 82, 0
1, 65160, Note_on_c, 9, 40, 121
1, 65279, Note_on_c, 9, 40, 0
1, 65280, Note_on_c, 9, 82, 66
1, 65280, Note_on_c, 9, 42, 42
1, 65280, Note_on_c, 9, 36, 105
1, 65290, Note_on_c, 9, 42, 0
1, 65519, Note_on_c, 9, 82, 0
1, 65520, Note_on_c, 9, 82, 64
1, 65520, Note_on_c, 9, 42, 69
1, 65530, Note_on_c, 9, 42, 0
1, 65759, Note_on_c, 9, 36, 0
1, 65759, Note_on_c, 9, 82, 0
1, 65760, Note_on_c, 9, 40, 112
1, 65760, Note_on_c, 9, 82, 62
1, 65760, Note_on_c, 9, 42, 54
1, 65770, Note_on_c, 9, 42, 0
1, 65999, Note_on_c, 9, 40, 0
1, 65999, Note_on_c, 9, 82, 0
1, 66000, Note_on_c, 9, 82, 64
1, 66000, Note_on_c, 9, 42, 74
1, 66010, Note_on_c, 9, 42, 0
1, 66239, Note_on_c, 9, 82, 0
1, 66240, Note_on_c, 9, 82, 64
1, 66240, Note_on_c, 9, 42, 57
1, 66240, Note_on_c, 9, 36, 105
1, 66250, Note_on_c, 9, 42, 0
1, 66479, Note_on_c, 9, 82, 0
1, 66480, Note_on_c, 9, 82, 68
1, 66480, Note_on_c, 9, 42, 69
1, 66490, Note_on_c, 9, 42, 0
1, 66719, Note_on_c, 9, 36, 0
1, 66719, Note_on_c, 9, 82, 0
1, 66720, Note_on_c, 9, 40, 113
1, 66720, Note_on_c, 9, 82, 62
1, 66720, Note_on_c, 9, 42, 57
1, 66730, Note_on_c, 9, 42, 0
1, 66959, Note_on_c, 9, 40, 0
1, 66959, Note_on_c, 9, 82, 0
1, 66960, Note_on_c, 9, 82, 64
1, 66960, Note_on_c, 9, 42, 79
1, 66970, Note_on_c, 9, 42, 0
1, 67199, Note_on_c, 9, 82, 0
1, 67200, Note_on_c, 9, 82, 62
1, 67200, Note_on_c, 9, 42, 54
1, 67200, Note_on_c, 9, 36, 105
1, 67210, Note_on_c, 9, 42, 0
1, 67439, Note_on_c, 9, 82, 0
1, 67440, Note_on_c, 9, 82, 55
1, 67440, Note_on_c, 9, 42, 69
1, 67450, Note_on_c, 9, 42, 0
1, 67679, Note_on_c, 9, 36, 0
1, 67679, Note_on_c, 9, 82, 0
1, 67680, Note_on_c, 9, 40, 113
1, 67680, Note_on_c, 9, 82, 55
1, 67680, Note_on_c, 9, 42, 49
1, 67690, Note_on_c, 9, 42, 0
1, 67919, Note_on_c, 9, 40, 0
1, 67919, Note_on_c, 9, 82, 0
1, 67920, Note_on_c, 9, 82, 51
1, 67920, Note_on_c, 9, 42, 79
1, 67930, Note_on_c, 9, 42, 0
1, 68159, Note_on_c, 9, 82, 0
1, 68160, Note_on_c, 9, 82, 58
1, 68160, Note_on_c, 9, 42, 46
1, 68160, Note_on_c, 9, 36, 105
1, 68170, Note_on_c, 9, 42, 0
1, 68399, Note_on_c, 9, 82, 0
1, 68400, Note_on_c, 9, 82, 47
1, 68400, Note_on_c, 9, 42, 74
1, 68410, Note_on_c, 9, 42, 0
1, 68639, Note_on_c, 9, 36, 0
1, 68639, Note_on_c, 9, 82, 0
1, 68640, Note_on_c, 9, 40, 113
1, 68640, Note_on_c, 9, 82, 62
1, 68640, Note_on_c, 9, 42, 46
1, 68640, Note_on_c, 9, 52, 84
1, 68650, Note_on_c, 9, 42, 0
1, 68650, Note_on_c, 9, 52, 0
1, 68879, Note_on_c, 9, 40, 0
1, 68879, Note_on_c, 9, 82, 0
1, 68880, Note_on_c, 9, 46, 98
1, 68880, Note_on_c, 9, 82, 58
1, 68890, Note_on_c, 9, 46, 0
1, 69119, Note_on_c, 9, 82, 0
1, 69120, Note_on_c, 9, 82, 56
1, 69120, Note_on_c, 9, 42, 42
1, 69120, Note_on_c, 9, 36, 105
1, 69130, Note_on_c, 9, 42, 0
1, 69359, Note_on_c, 9, 82, 0
1, 69360, Note_on_c, 9, 82, 46
1, 69360, Note_on_c, 9, 42, 69
1, 69370, Note_on_c, 9, 42, 0
1, 69599, Note_on_c, 9, 36, 0
1, 69599, Note_on_c, 9, 82, 0
1, 69600, Note_on_c, 9, 40, 112
1, 69600, Note_on_c, 9, 82, 64
1, 69600, Note_on_c, 9, 42, 54
1, 69610, Note_on_c, 9, 42, 0
1, 69839, Note_on_c, 9, 40, 0
1, 69839, Note_on_c, 9, 82, 0
1, 69840, Note_on_c, 9, 82, 53
1, 69840, Note_on_c, 9, 42, 74
1, 69850, Note_on_c, 9, 42, 0
1, 70079, Note_on_c, 9, 82, 0
1, 70080, Note_on_c, 9, 82, 62
1, 70080, Note_on_c, 9, 42, 57
1, 70080, Note_on_c, 9, 36, 105
1, 70090, Note_on_c, 9, 42, 0
1, 70319, Note_on_c, 9, 82, 0
1, 70320, Note_on_c, 9, 82, 60
1, 70320, Note_on_c, 9, 42, 69
1, 70330, Note_on_c, 9, 42, 0
1, 70559, Note_on_c, 9, 36, 0
1, 70559, Note_on_c, 9, 82, 0
1, 70560, Note_on_c, 9, 40, 113
1, 70560, Note_on_c, 9, 82, 68
1, 70560, Note_on_c, 9, 42, 57
1, 70570, Note_on_c, 9, 42, 0
1, 70799, Note_on_c, 9, 40, 0
1, 70799, Note_on_c, 9, 82, 0
1, 70800, Note_on_c, 9, 82, 50
1, 70800, Note_on_c, 9, 42, 79
1, 70810, Note_on_c, 9, 42, 0
1, 71039, Note_on_c, 9, 82, 0
1, 71040, Note_on_c, 9, 82, 68
1, 71040, Note_on_c, 9, 42, 54
1, 71040, Note_on_c, 9, 36, 105
1, 71050, Note_on_c, 9, 42, 0
1, 71279, Note_on_c, 9, 82, 0
1, 71280, Note_on_c, 9, 82, 58
1, 71280, Note_on_c, 9, 42, 69
1, 71290, Note_on_c, 9, 42, 0
1, 71519, Note_on_c, 9, 36, 0
1, 71519, Note_on_c, 9, 82, 0
1, 71520, Note_on_c, 9, 40, 113
1, 71520, Note_on_c, 9, 82, 66
1, 71520, Note_on_c, 9, 42, 49
1, 71530, Note_on_c, 9, 42, 0
1, 71759, Note_on_c, 9, 40, 0
1, 71759, Note_on_c, 9, 82, 0
1, 71760, Note_on_c, 9, 82, 60
1, 71760, Note_on_c, 9, 42, 79
1, 71770, Note_on_c, 9, 42, 0
1, 71999, Note_on_c, 9, 82, 0
1, 72000, Note_on_c, 9, 82, 56
1, 72000, Note_on_c, 9, 42, 46
1, 72000, Note_on_c, 9, 36, 105
1, 72010, Note_on_c, 9, 42, 0
1, 72239, Note_on_c, 9, 82, 0
1, 72240, Note_on_c, 9, 82, 60
1, 72240, Note_on_c, 9, 42, 74
1, 72250, Note_on_c, 9, 42, 0
1, 72479, Note_on_c, 9, 36, 0
1, 72479, Note_on_c, 9, 82, 0
1, 72480, Note_on_c, 9, 40, 113
1, 72480, Note_on_c, 9, 82, 64
1, 72480, Note_on_c, 9, 42, 46
1, 72480, Note_on_c, 9, 52, 84
1, 72490, Note_on_c, 9, 42, 0
1, 72490, Note_on_c, 9, 52, 0
1, 72719, Note_on_c, 9, 40, 0
1, 72719, Note_on_c, 9, 82, 0
1, 72720, Note_on_c, 9, 46, 103
1, 72720, Note_on_c, 9, 82, 64
1, 72730, Note_on_c, 9, 46, 0
1, 72959, Note_on_c, 9, 82, 0
1, 72960, Note_on_c, 9, 82, 66
1, 72960, Note_on_c, 9, 42, 42
1, 72960, Note_on_c, 9, 36, 105
1, 72970, Note_on_c, 9, 42, 0
1, 73199, Note_on_c, 9, 82, 0
1, 73200, Note_on_c, 9, 82, 64
1, 73200, Note_on_c, 9, 42, 69
1, 73210, Note_on_c, 9, 42, 0
1, 73439, Note_on_c, 9, 36, 0
1, 73439, Note_on_c, 9, 82, 0
1, 73440, Note_on_c, 9, 40, 112
1, 73440, Note_on_c, 9, 82, 62
1, 73440, Note_on_c, 9, 42, 54
1, 73450, Note_on_c, 9, 42, 0
1, 73679, Note_on_c, 9, 40, 0
1, 73679, Note_on_c, 9, 82, 0
1, 73680, Note_on_c, 9, 82, 64
1, 73680, Note_on_c, 9, 42, 74
1, 73690, Note_on_c, 9, 42, 0
1, 73919, Note_on_c, 9, 82, 0
1, 73920, Note_on_c, 9, 82, 64
1, 73920, Note_on_c, 9, 42, 57
1, 73920, Note_on_c, 9, 36, 105
1, 73930, Note_on_c, 9, 42, 0
1, 74159, Note_on_c, 9, 82, 0
1, 74160, Note_on_c, 9, 82, 68
1, 74160, Note_on_c, 9, 42, 69
1, 74170, Note_on_c, 9, 42, 0
1, 74399, Note_on_c, 9, 36, 0
1, 74399, Note_on_c, 9, 82, 0
1, 74400, Note_on_c, 9, 40, 113
1, 74400, Note_on_c, 9, 82, 62
1, 74400, Note_on_c, 9, 42, 57
1, 74410, Note_on_c, 9, 42, 0
1, 74639, Note_on_c, 9, 40, 0
1, 74639, Note_on_c, 9, 82, 0
1, 74640, Note_on_c, 9, 82, 64
1, 74640, Note_on_c, 9, 42, 79
1, 74650, Note_on_c, 9, 42, 0
1, 74879, Note_on_c, 9, 82, 0
1, 74880, Note_on_c, 9, 82, 62
1, 74880, Note_on_c, 9, 42, 54
1, 74880, Note_on_c, 9, 36, 105
1, 74890, Note_on_c, 9, 42, 0
1, 75119, Note_on_c, 9, 82, 0
1, 75120, Note_on_c, 9, 82, 55
1, 75120, Note_on_c, 9, 42, 69
1, 75130, Note_on_c, 9, 42, 0
1, 75359, Note_on_c, 9, 36, 0
1, 75359, Note_on_c, 9, 82, 0
1, 75360, Note_on_c, 9, 40, 113
1, 75360, Note_on_c, 9, 82, 55
1, 75360, Note_on_c, 9, 42, 49
1, 75370, Note_on_c, 9, 42, 0
1, 75599, Note_on_c, 9, 40, 0
1, 75599, Note_on_c, 9, 82, 0
1, 75600, Note_on_c, 9, 82, 51
1, 75600, Note_on_c, 9, 42, 79
1, 75610, Note_on_c, 9, 42, 0
1, 75839, Note_on_c, 9, 82, 0
1, 75840, Note_on_c, 9, 82, 58
1, 75840, Note_on_c, 9, 42, 46
1, 75840, Note_on_c, 9, 36, 105
1, 75850, Note_on_c, 9, 42, 0
1, 76079, Note_on_c, 9, 82, 0
1, 76080, Note_on_c, 9, 82, 47
1, 76080, Note_on_c, 9, 42, 74
1, 76090, Note_on_c, 9, 42, 0
1, 76319, Note_on_c, 9, 36, 0
1, 76319, Note_on_c, 9, 82, 0
1, 76320, Note_on_c, 9, 40, 113
1, 76320, Note_on_c, 9, 82, 62
1, 76320, Note_on_c, 9, 42, 46
1, 76320, Note_on_c, 9, 52, 84
1, 76330, Note_on_c, 9, 42, 0
1, 76330, Note_on_c, 9, 52, 0
1, 76559, Note_on_c, 9, 40, 0
1, 76559, Note_on_c, 9, 82, 0
1, 76560, Note_on_c, 9, 46, 101
1, 76560, Note_on_c, 9, 82, 58
1, 76570, Note_on_c, 9, 46, 0
1, 76799, Note_on_c, 9, 82, 0
1, 76800, Note_on_c, 9, 82, 56
1, 76800, Note_on_c, 9, 42, 36
1, 76800, Note_on_c, 9, 36, 105
1, 76810, Note_on_c, 9, 42, 0
1, 77039, Note_on_c, 9, 82, 0
1, 77040, Note_on_c, 9, 82, 46
1, 77040, Note_on_c, 9, 42, 34
1, 77050, Note_on_c, 9, 42, 0
1, 77279, Note_on_c, 9, 36, 0
1, 77279, Note_on_c, 9, 82, 0
1, 77280, Note_on_c, 9, 40, 112
1, 77280, Note_on_c, 9, 82, 64
1, 77280, Note_on_c, 9, 42, 59
1, 77290, Note_on_c, 9, 42, 0
1, 77519, Note_on_c, 9, 40, 0
1, 77519, Note_on_c, 9, 82, 0
1, 77520, Note_on_c, 9, 46, 89
1, 77520, Note_on_c, 9, 82, 53
1, 77530, Note_on_c, 9, 46, 0
1, 77759, Note_on_c, 9, 82, 0
1, 77760, Note_on_c, 9, 82, 62
1, 77760, Note_on_c, 9, 42, 62
1, 77760, Note_on_c, 9, 36, 105
1, 77770, Note_on_c, 9, 42, 0
1, 77999, Note_on_c, 9, 82, 0
1, 78000, Note_on_c, 9, 82, 60
1, 78000, Note_on_c, 9, 42, 49
1, 78010, Note_on_c, 9, 42, 0
1, 78239, Note_on_c, 9, 36, 0
1, 78239, Note_on_c, 9, 82, 0
1, 78240, Note_on_c, 9, 40, 113
1, 78240, Note_on_c, 9, 82, 68
1, 78240, Note_on_c, 9, 42, 59
1, 78250, Note_on_c, 9, 42, 0
1, 78479, Note_on_c, 9, 40, 0
1, 78479, Note_on_c, 9, 82, 0
1, 78480, Note_on_c, 9, 46, 99
1, 78480, Note_on_c, 9, 82, 50
1, 78490, Note_on_c, 9, 46, 0
1, 78719, Note_on_c, 9, 82, 0
1, 78720, Note_on_c, 9, 82, 68
1, 78720, Note_on_c, 9, 42, 62
1, 78720, Note_on_c, 9, 36, 105
1, 78730, Note_on_c, 9, 42, 0
1, 78959, Note_on_c, 9, 82, 0
1, 78960, Note_on_c, 9, 82, 58
1, 78960, Note_on_c, 9, 42, 47
1, 78970, Note_on_c, 9, 42, 0
1, 79199, Note_on_c, 9, 36, 0
1, 79199, Note_on_c, 9, 82, 0
1, 79200, Note_on_c, 9, 40, 113
1, 79200, Note_on_c, 9, 82, 66
1, 79200, Note_on_c, 9, 42, 59
1, 79210, Note_on_c, 9, 42, 0
1, 79439, Note_on_c, 9, 40, 0
1, 79439, Note_on_c, 9, 82, 0
1, 79440, Note_on_c, 9, 46, 94
1, 79440, Note_on_c, 9, 82, 60
1, 79450, Note_on_c, 9, 46, 0
1, 79679, Note_on_c, 9, 82, 0
1, 79680, Note_on_c, 9, 82, 56
1, 79680, Note_on_c, 9, 42, 62
1, 79680, Note_on_c, 9, 36, 105
1, 79690, Note_on_c, 9, 42, 0
1, 79919, Note_on_c, 9, 82, 0
1, 79920, Note_on_c, 9, 82, 60
1, 79920, Note_on_c, 9, 42, 49
1, 79930, Note_on_c, 9, 42, 0
1, 80159, Note_on_c, 9, 36, 0
1, 80159, Note_on_c, 9, 82, 0
1, 80160, Note_on_c, 9, 40, 113
1, 80160, Note_on_c, 9, 82, 64
1, 80160, Note_on_c, 9, 42, 56
1, 80160, Note_on_c, 9, 52, 84
1, 80170, Note_on_c, 9, 42, 0
1, 80170, Note_on_c, 9, 52, 0
1, 80399, Note_on_c, 9, 40, 0
1, 80399, Note_on_c, 9, 82, 0
1, 80400, Note_on_c, 9, 46, 94
1, 80400, Note_on_c, 9, 82, 64
1, 80410, Note_on_c, 9, 46, 0
1, 80639, Note_on_c, 9, 82, 0
1, 80640, Note_on_c, 9, 82, 66
1, 80640, Note_on_c, 9, 42, 42
1, 80640, Note_on_c, 9, 57, 75
1, 80640, Note_on_c, 9, 36, 105
1, 80650, Note_on_c, 9, 42, 0
1, 80650, Note_on_c, 9, 57, 0
1, 80879, Note_on_c, 9, 82, 0
1, 80880, Note_on_c, 9, 82, 64
1, 80880, Note_on_c, 9, 42, 69
1, 80890, Note_on_c, 9, 42, 0
1, 81119, Note_on_c, 9, 36, 0
1, 81119, Note_on_c, 9, 82, 0
1, 81120, Note_on_c, 9, 40, 112
1, 81120, Note_on_c, 9, 39, 110
1, 81120, Note_on_c, 9, 82, 62
1, 81120, Note_on_c, 9, 42, 54
1, 81130, Note_on_c, 9, 42, 0
1, 81359, Note_on_c, 9, 40, 0
1, 81359, Note_on_c, 9, 39, 0
1, 81359, Note_on_c, 9, 82, 0
1, 81360, Note_on_c, 9, 82, 64
1, 81360, Note_on_c, 9, 42, 74
1, 81370, Note_on_c, 9, 42, 0
1, 81599, Note_on_c, 9, 82, 0
1, 81600, Note_on_c, 9, 82, 64
1, 81600, Note_on_c, 9, 42, 57
1, 81600, Note_on_c, 9, 36, 105
1, 81610, Note_on_c, 9, 42, 0
1, 81839, Note_on_c, 9, 82, 0
1, 81840, Note_on_c, 9, 82, 68
1, 81840, Note_on_c, 9, 42, 69
1, 81850, Note_on_c, 9, 42, 0
1, 82079, Note_on_c, 9, 36, 0
1, 82079, Note_on_c, 9, 82, 0
1, 82080, Note_on_c, 9, 40, 113
1, 82080, Note_on_c, 9, 39, 110
1, 82080, Note_on_c, 9, 82, 62
1, 82080, Note_on_c, 9, 42, 57
1, 82090, Note_on_c, 9, 42, 0
1, 82319, Note_on_c, 9, 40, 0
1, 82319, Note_on_c, 9, 39, 0
1, 82319, Note_on_c, 9, 82, 0
1, 82320, Note_on_c, 9, 82, 64
1, 82320, Note_on_c, 9, 42, 79
1, 82330, Note_on_c, 9, 42, 0
1, 82559, Note_on_c, 9, 82, 0
1, 82560, Note_on_c, 9, 82, 62
1, 82560, Note_on_c, 9, 42, 54
1, 82560, Note_on_c, 9, 36, 105
1, 82570, Note_on_c, 9, 42, 0
1, 82799, Note_on_c, 9, 82, 0
1, 82800, Note_on_c, 9, 82, 55
1, 82800, Note_on_c, 9, 42, 69
1, 82810, Note_on_c, 9, 42, 0
1, 83039, Note_on_c, 9, 36, 0
1, 83039, Note_on_c, 9, 82, 0
1, 83040, Note_on_c, 9, 40, 113
1, 83040, Note_on_c, 9, 39, 110
1, 83040, Note_on_c, 9, 82, 55
1, 83040, Note_on_c, 9, 42, 49
1, 83050, Note_on_c, 9, 42, 0
1, 83279, Note_on_c, 9, 40, 0
1, 83279, Note_on_c, 9, 39, 0
1, 83279, Note_on_c, 9, 82, 0
1, 83280, Note_on_c, 9, 82, 51
1, 83280, Note_on_c, 9, 42, 79
1, 83290, Note_on_c, 9, 42, 0
1, 83519, Note_on_c, 9, 82, 0
1, 83520, Note_on_c, 9, 82, 58
1, 83520, Note_on_c, 9, 42, 46
1, 83520, Note_on_c, 9, 36, 105
1, 83530, Note_on_c, 9, 42, 0
1, 83759, Note_on_c, 9, 82, 0
1, 83760, Note_on_c, 9, 82, 47
1, 83760, Note_on_c, 9, 42, 74
1, 83764, Note_on_c, 9, 42, 0
1, 83879, Note_on_c, 9, 82, 0
1, 83880, Note_on_c, 9, 45, 97
1, 83999, Note_on_c, 9, 36, 0
1, 83999, Note_on_c, 9, 45, 0
1, 84000, Note_on_c, 9, 40, 113
1, 84000, Note_on_c, 9, 39, 110
1, 84000, Note_on_c, 9, 82, 62
1, 84000, Note_on_c, 9, 42, 46
1, 84000, Note_on_c, 9, 43, 103
1, 84010, Note_on_c, 9, 42, 0
1, 84239, Note_on_c, 9, 40, 0
1, 84239, Note_on_c, 9, 39, 0
1, 84239, Note_on_c, 9, 82, 0
1, 84240, Note_on_c, 9, 82, 66
1, 84240, Note_on_c, 9, 42, 79
1, 84244, Note_on_c, 9, 42, 0
1, 84359, Note_on_c, 9, 82, 0
1, 84360, Note_on_c, 9, 82, 69
1, 84479, Note_on_c, 9, 43, 0
1, 84479, Note_on_c, 9, 82, 0
1, 84480, Note_on_c, 9, 82, 56
1, 84480, Note_on_c, 9, 42, 42
1, 84480, Note_on_c, 9, 36, 105
1, 84490, Note_on_c, 9, 42, 0
1, 84719, Note_on_c, 9, 82, 0
1, 84720, Note_on_c, 9, 82, 46
1, 84720, Note_on_c, 9, 42, 69
1, 84730, Note_on_c, 9, 42, 0
1, 84959, Note_on_c, 9, 36, 0
1, 84959, Note_on_c, 9, 82, 0
1, 84960, Note_on_c, 9, 40, 112
1, 84960, Note_on_c, 9, 39, 110
1, 84960, Note_on_c, 9, 82, 64
1, 84960, Note_on_c, 9, 42, 54
1, 84970, Note_on_c, 9, 42, 0
1, 85199, Note_on_c, 9, 40, 0
1, 85199, Note_on_c, 9, 39, 0
1, 85199, Note_on_c, 9, 82, 0
1, 85200, Note_on_c, 9, 82, 53
1, 85200, Note_on_c, 9, 42, 74
1, 85210, Note_on_c, 9, 42, 0
1, 85439, Note_on_c, 9, 82, 0
1, 85440, Note_on_c, 9, 82, 62
1, 85440, Note_on_c, 9, 42, 57
1, 85440, Note_on_c, 9, 36, 105
1, 85450, Note_on_c, 9, 42, 0
1, 85679, Note_on_c, 9, 82, 0
1, 85680, Note_on_c, 9, 82, 60
1, 85680, Note_on_c, 9, 42, 69
1, 85690, Note_on_c, 9, 42, 0
1, 85919, Note_on_c, 9, 36, 0
1, 85919, Note_on_c, 9, 82, 0
1, 85920, Note_on_c, 9, 40, 113
1, 85920, Note_on_c, 9, 39, 110
1, 85920, Note_on_c, 9, 82, 68
1, 85920, Note_on_c, 9, 42, 57
1, 85930, Note_on_c, 9, 42, 0
1, 86159, Note_on_c, 9, 40, 0
1, 86159, Note_on_c, 9, 39, 0
1, 86159, Note_on_c, 9, 82, 0
1, 86160, Note_on_c, 9, 82, 50
1, 86160, Note_on_c, 9, 42, 79
1, 86170, Note_on_c, 9, 42, 0
1, 86399, Note_on_c, 9, 82, 0
1, 86400, Note_on_c, 9, 82, 68
1, 86400, Note_on_c, 9, 42, 54
1, 86400, Note_on_c, 9, 36, 105
1, 86410, Note_on_c, 9, 42, 0
1, 86639, Note_on_c, 9, 82, 0
1, 86640, Note_on_c, 9, 82, 58
1, 86640, Note_on_c, 9, 42, 69
1, 86650, Note_on_c, 9, 42, 0
1, 86879, Note_on_c, 9, 36, 0
1, 86879, Note_on_c, 9, 82, 0
1, 86880, Note_on_c, 9, 40, 113
1, 86880, Note_on_c, 9, 39, 110
1, 86880, Note_on_c, 9, 82, 66
1, 86880, Note_on_c, 9, 42, 49
1, 86890, Note_on_c, 9, 42, 0
1, 87119, Note_on_c, 9, 40, 0
1, 87119, Note_on_c, 9, 39, 0
1, 87119, Note_on_c, 9, 82, 0
1, 87120, Note_on_c, 9, 82, 60
1, 87120, Note_on_c, 9, 42, 79
1, 87130, Note_on_c, 9, 42, 0
1, 87359, Note_on_c, 9, 82, 0
1, 87360, Note_on_c, 9, 82, 56
1, 87360, Note_on_c, 9, 42, 46
1, 87360, Note_on_c, 9, 36, 105
1, 87370, Note_on_c, 9, 42, 0
1, 87599, Note_on_c, 9, 82, 0
1, 87600, Note_on_c, 9, 82, 60
1, 87600, Note_on_c, 9, 42, 74
1, 87610, Note_on_c, 9, 42, 0
1, 87839, Note_on_c, 9, 36, 0
1, 87839, Note_on_c, 9, 82, 0
1, 87840, Note_on_c, 9, 40, 113
1, 87840, Note_on_c, 9, 39, 110
1, 87840, Note_on_c, 9, 82, 64
1, 87840, Note_on_c, 9, 42, 46
1, 87850, Note_on_c, 9, 42, 0
1, 88079, Note_on_c, 9, 40, 0
1, 88079, Note_on_c, 9, 39, 0
1, 88079, Note_on_c, 9, 82, 0
1, 88080, Note_on_c, 9, 82, 64
1, 88080, Note_on_c, 9, 42, 79
1, 88090, Note_on_c, 9, 42, 0
1, 88319, Note_on_c, 9, 82, 0
1, 88320, Note_on_c, 9, 82, 66
1, 88320, Note_on_c, 9, 42, 42
1, 88320, Note_on_c, 9, 36, 105
1, 88330, Note_on_c, 9, 42, 0
1, 88559, Note_on_c, 9, 82, 0
1, 88560, Note_on_c, 9, 82, 64
1, 88560, Note_on_c, 9, 42, 69
1, 88570, Note_on_c, 9, 42, 0
1, 88799, Note_on_c, 9, 36, 0
1, 88799, Note_on_c, 9, 82, 0
1, 88800, Note_on_c, 9, 40, 112
1, 88800, Note_on_c, 9, 39, 110
1, 88800, Note_on_c, 9, 82, 62
1, 88800, Note_on_c, 9, 42, 54
1, 88810, Note_on_c, 9, 42, 0
1, 89039, Note_on_c, 9, 40, 0
1, 89039, Note_on_c, 9, 39, 0
1, 89039, Note_on_c, 9, 82, 0
1, 89040, Note_on_c, 9, 82, 64
1, 89040, Note_on_c, 9, 42, 74
1, 89050, Note_on_c, 9, 42, 0
1, 89279, Note_on_c, 9, 82, 0
1, 89280, Note_on_c, 9, 82, 64
1, 89280, Note_on_c, 9, 42, 57
1, 89280, Note_on_c, 9, 36, 105
1, 89290, Note_on_c, 9, 42, 0
1, 89519, Note_on_c, 9, 82, 0
1, 89520, Note_on_c, 9, 82, 68
1, 89520, Note_on_c, 9, 42, 69
1, 89530, Note_on_c, 9, 42, 0
1, 89759, Note_on_c, 9, 36, 0
1, 89759, Note_on_c, 9, 82, 0
1, 89760, Note_on_c, 9, 40, 113
1, 89760, Note_on_c, 9, 39, 110
1, 89760, Note_on_c, 9, 82, 62
1, 89760, Note_on_c, 9, 42, 57
1, 89770, Note_on_c, 9, 42, 0
1, 89999, Note_on_c, 9, 40, 0
1, 89999, Note_on_c, 9, 39, 0
1, 89999, Note_on_c, 9, 82, 0
1, 90000, Note_on_c, 9, 82, 64
1, 90000, Note_on_c, 9, 42, 79
1, 90010, Note_on_c, 9, 42, 0
1, 90239, Note_on_c, 9, 82, 0
1, 90240, Note_on_c, 9, 82, 62
1, 90240, Note_on_c, 9, 42, 54
1, 90240, Note_on_c, 9, 36, 105
1, 90250, Note_on_c, 9, 42, 0
1, 90479, Note_on_c, 9, 82, 0
1, 90480, Note_on_c, 9, 82, 55
1, 90480, Note_on_c, 9, 42, 69
1, 90490, Note_on_c, 9, 42, 0
1, 90719, Note_on_c, 9, 36, 0
1, 90719, Note_on_c, 9, 82, 0
1, 90720, Note_on_c, 9, 40, 113
1, 90720, Note_on_c, 9, 39, 110
1, 90720, Note_on_c, 9, 82, 55
1, 90720, Note_on_c, 9, 42, 49
1, 90730, Note_on_c, 9, 42, 0
1, 90959, Note_on_c, 9, 40, 0
1, 90959, Note_on_c, 9, 39, 0
1, 90959, Note_on_c, 9, 82, 0
1, 90960, Note_on_c, 9, 82, 51
1, 90960, Note_on_c, 9, 42, 79
1, 90970, Note_on_c, 9, 42, 0
1, 91199, Note_on_c, 9, 82, 0
1, 91200, Note_on_c, 9, 82, 58
1, 91200, Note_on_c, 9, 42, 46
1, 91200, Note_on_c, 9, 36, 105
1, 91210, Note_on_c, 9, 42, 0
1, 91439, Note_on_c, 9, 82, 0
1, 91440, Note_on_c, 9, 82, 47
1, 91440, Note_on_c, 9, 42, 74
1, 91450, Note_on_c, 9, 42, 0
1, 91679, Note_on_c, 9, 36, 0
1, 91679, Note_on_c, 9, 82, 0
1, 91680, Note_on_c, 9, 40, 113
1, 91680, Note_on_c, 9, 39, 110
1, 91680, Note_on_c, 9, 82, 62
1, 91680, Note_on_c, 9, 42, 46
1, 91690, Note_on_c, 9, 42, 0
1, 91919, Note_on_c, 9, 40, 0
1, 91919, Note_on_c, 9, 39, 0
1, 91919, Note_on_c, 9, 82, 0
1, 91920, Note_on_c, 9, 82, 58
1, 91920, Note_on_c, 9, 42, 79
1, 91930, Note_on_c, 9, 42, 0
1, 92159, Note_on_c, 9, 82, 0
1, 92160, Note_on_c, 9, 82, 56
1, 92160, Note_on_c, 9, 42, 42
1, 92160, Note_on_c, 9, 36, 105
1, 92170, Note_on_c, 9, 42, 0
1, 92399, Note_on_c, 9, 82, 0
1, 92400, Note_on_c, 9, 82, 46
1, 92400, Note_on_c, 9, 42, 69
1, 92410, Note_on_c, 9, 42, 0
1, 92639, Note_on_c, 9, 36, 0
1, 92639, Note_on_c, 9, 82, 0
1, 92640, Note_on_c, 9, 40, 112
1, 92640, Note_on_c, 9, 39, 110
1, 92640, Note_on_c, 9, 82, 64
1, 92640, Note_on_c, 9, 42, 54
1, 92650, Note_on_c, 9, 42, 0
1, 92879, Note_on_c, 9, 40, 0
1, 92879, Note_on_c, 9, 39, 0
1, 92879, Note_on_c, 9, 82, 0
1, 92880, Note_on_c, 9, 82, 53
1, 92880, Note_on_c, 9, 42, 74
1, 92890, Note_on_c, 9, 42, 0
1, 93119, Note_on_c, 9, 82, 0
1, 93120, Note_on_c, 9, 82, 62
1, 93120, Note_on_c, 9, 42, 57
1, 93120, Note_on_c, 9, 36, 105
1, 93130, Note_on_c, 9, 42, 0
1, 93359, Note_on_c, 9, 82, 0
1, 93360, Note_on_c, 9, 82, 60
1, 93360, Note_on_c, 9, 42, 69
1, 93370, Note_on_c, 9, 42, 0
1, 93599, Note_on_c, 9, 36, 0
1, 93599, Note_on_c, 9, 82, 0
1, 93600, Note_on_c, 9, 40, 113
1, 93600, Note_on_c, 9, 39, 110
1, 93600, Note_on_c, 9, 82, 68
1, 93600, Note_on_c, 9, 42, 57
1, 93610, Note_on_c, 9, 42, 0
1, 93839, Note_on_c, 9, 40, 0
1, 93839, Note_on_c, 9, 39, 0
1, 93839, Note_on_c, 9, 82, 0
1, 93840, Note_on_c, 9, 82, 50
1, 93840, Note_on_c, 9, 42, 79
1, 93850, Note_on_c, 9, 42, 0
1, 94079, Note_on_c, 9, 82, 0
1, 94080, Note_on_c, 9, 82, 68
1, 94080, Note_on_c, 9, 42, 54
1, 94080, Note_on_c, 9, 36, 105
1, 94090, Note_on_c, 9, 42, 0
1, 94319, Note_on_c, 9, 82, 0
1, 94320, Note_on_c, 9, 82, 58
1, 94320, Note_on_c, 9, 42, 69
1, 94330, Note_on_c, 9, 42, 0
1, 94559, Note_on_c, 9, 36, 0
1, 94559, Note_on_c, 9, 82, 0
1, 94560, Note_on_c, 9, 40, 113
1, 94560, Note_on_c, 9, 39, 110
1, 94560, Note_on_c, 9, 82, 66
1, 94560, Note_on_c, 9, 42, 49
1, 94570, Note_on_c, 9, 42, 0
1, 94799, Note_on_c, 9, 40, 0
1, 94799, Note_on_c, 9, 39, 0
1, 94799, Note_on_c, 9, 82, 0
1, 94800, Note_on_c, 9, 82, 60
1, 94800, Note_on_c, 9, 42, 79
1, 94810, Note_on_c, 9, 42, 0
1, 95039, Note_on_c, 9, 82, 0
1, 95040, Note_on_c, 9, 82, 56
1, 95040, Note_on_c, 9, 42, 46
1, 95040, Note_on_c, 9, 36, 105
1, 95050, Note_on_c, 9, 42, 0
1, 95279, Note_on_c, 9, 82, 0
1, 95280, Note_on_c, 9, 82, 60
1, 95280, Note_on_c, 9, 42, 74
1, 95290, Note_on_c, 9, 42, 0
1, 95519, Note_on_c, 9, 36, 0
1, 95519, Note_on_c, 9, 82, 0
1, 95520, Note_on_c, 9, 40, 113
1, 95520, Note_on_c, 9, 39, 110
1, 95520, Note_on_c, 9, 82, 64
1, 95520, Note_on_c, 9, 42, 46
1, 95530, Note_on_c, 9, 42, 0
1, 95759, Note_on_c, 9, 40, 0
1, 95759, Note_on_c, 9, 39, 0
1, 95759, Note_on_c, 9, 82, 0
1, 95760, Note_on_c, 9, 82, 64
1, 95760, Note_on_c, 9, 42, 79
1, 95770, Note_on_c, 9, 42, 0
1, 95999, Note_on_c, 9, 82, 0
1, 96000, Note_on_c, 9, 82, 66
1, 96000, Note_on_c, 9, 42, 42
1, 96000, Note_on_c, 9, 36, 105
1, 96010, Note_on_c, 9, 42, 0
1, 96239, Note_on_c, 9, 82, 0
1, 96240, Note_on_c, 9, 82, 64
1, 96240, Note_on_c, 9, 42, 69
1, 96250, Note_on_c, 9, 42, 0
1, 96479, Note_on_c, 9, 36, 0
1, 96479, Note_on_c, 9, 82, 0
1, 96480, Note_on_c, 9, 40, 112
1, 96480, Note_on_c, 9, 39, 110
1, 96480, Note_on_c, 9, 82, 62
1, 96480, Note_on_c, 9, 42, 54
1, 96490, Note_on_c, 9, 42, 0
1, 96719, Note_on_c, 9, 40, 0
1, 96719, Note_on_c, 9, 39, 0
1, 96719, Note_on_c, 9, 82, 0
1, 96720, Note_on_c, 9, 82, 64
1, 96720, Note_on_c, 9, 42, 74
1, 96730, Note_on_c, 9, 42, 0
1, 96959, Note_on_c, 9, 82, 0
1, 96960, Note_on_c, 9, 82, 64
1, 96960, Note_on_c, 9, 42, 57
1, 96960, Note_on_c, 9, 36, 105
1, 96970, Note_on_c, 9, 42, 0
1, 97199, Note_on_c, 9, 82, 0
1, 97200, Note_on_c, 9, 82, 68
1, 97200, Note_on_c, 9, 42, 69
1, 97210, Note_on_c, 9, 42, 0
1, 97439, Note_on_c, 9, 36, 0
1, 97439, Note_on_c, 9, 82, 0
1, 97440, Note_on_c, 9, 40, 113
1, 97440, Note_on_c, 9, 39, 110
1, 97440, Note_on_c, 9, 82, 62
1, 97440, Note_on_c, 9, 42, 57
1, 97450, Note_on_c, 9, 42, 0
1, 97679, Note_on_c, 9, 40, 0
1, 97679, Note_on_c, 9, 39, 0
1, 97679, Note_on_c, 9, 82, 0
1, 97680, Note_on_c, 9, 82, 64
1, 97680, Note_on_c, 9, 42, 79
1, 97690, Note_on_c, 9, 42, 0
1, 97919, Note_on_c, 9, 82, 0
1, 97920, Note_on_c, 9, 82, 62
1, 97920, Note_on_c, 9, 42, 54
1, 97920, Note_on_c, 9, 36, 105
1, 97930, Note_on_c, 9, 42, 0
1, 98159, Note_on_c, 9, 82, 0
1, 98160, Note_on_c, 9, 82, 55
1, 98160, Note_on_c, 9, 42, 69
1, 98170, Note_on_c, 9, 42, 0
1, 98399, Note_on_c, 9, 36, 0
1, 98399, Note_on_c, 9, 82, 0
1, 98400, Note_on_c, 9, 40, 113
1, 98400, Note_on_c, 9, 39, 110
1, 98400, Note_on_c, 9, 82, 55
1, 98400, Note_on_c, 9, 42, 49
1, 98410, Note_on_c, 9, 42, 0
1, 98639, Note_on_c, 9, 40, 0
1, 98639, Note_on_c, 9, 39, 0
1, 98639, Note_on_c, 9, 82, 0
1, 98640, Note_on_c, 9, 82, 51
1, 98640, Note_on_c, 9, 42, 79
1, 98650, Note_on_c, 9, 42, 0
1, 98879, Note_on_c, 9, 82, 0
1, 98880, Note_on_c, 9, 82, 58
1, 98880, Note_on_c, 9, 42, 46
1, 98880, Note_on_c, 9, 36, 105
1, 98890, Note_on_c, 9, 42, 0
1, 99119, Note_on_c, 9, 82, 0
1, 99120, Note_on_c, 9, 82, 47
1, 99120, Note_on_c, 9, 42, 74
1, 99130, Note_on_c, 9, 42, 0
1, 99359, Note_on_c, 9, 36, 0
1, 99359, Note_on_c, 9, 82, 0
1, 99360, Note_on_c, 9, 40, 113
1, 99360, Note_on_c, 9, 39, 110
1, 99360, Note_on_c, 9, 82, 62
1, 99360, Note_on_c, 9, 42, 46
1, 99370, Note_on_c, 9, 42, 0
1, 99599, Note_on_c, 9, 40, 0
1, 99599, Note_on_c, 9, 39, 0
1, 99599, Note_on_c, 9, 82, 0
1, 99600, Note_on_c, 9, 82, 58
1, 99600, Note_on_c, 9, 42, 79
1, 99610, Note_on_c, 9, 42, 0
1, 99839, Note_on_c, 9, 82, 0
1, 99840, Note_on_c, 9, 82, 56
1, 99840, Note_on_c, 9, 42, 42
1, 99840, Note_on_c, 9, 36, 105
1, 99850, Note_on_c, 9, 42, 0
1, 100079, Note_on_c, 9, 82, 0
1, 100080, Note_on_c, 9, 82, 46
1, 100080, Note_on_c, 9, 42, 69
1, 100090, Note_on_c, 9, 42, 0
1, 100319, Note_on_c, 9, 36, 0
1, 100319, Note_on_c, 9, 82, 0
1, 100320, Note_on_c, 9, 40, 112
1, 100320, Note_on_c, 9, 39, 110
1, 100320, Note_on_c, 9, 82, 64
1, 100320, Note_on_c, 9, 42, 54
1, 100330, Note_on_c, 9, 42, 0
1, 100559, Note_on_c, 9, 40, 0
1, 100559, Note_on_c, 9, 39, 0
1, 100559, Note_on_c, 9, 82, 0
1, 100560, Note_on_c, 9, 82, 53
1, 100560, Note_on_c, 9, 42, 74
1, 100570, Note_on_c, 9, 42, 0
1, 100799, Note_on_c, 9, 82, 0
1, 100800, Note_on_c, 9, 82, 62
1, 100800, Note_on_c, 9, 42, 57
1, 100800, Note_on_c, 9, 36, 105
1, 100810, Note_on_c, 9, 42, 0
1, 101039, Note_on_c, 9, 82, 0
1, 101040, Note_on_c, 9, 82, 60
1, 101040, Note_on_c, 9, 42, 69
1, 101050, Note_on_c, 9, 42, 0
1, 101279, Note_on_c, 9, 36, 0
1, 101279, Note_on_c, 9, 82, 0
1, 101280, Note_on_c, 9, 40, 113
1, 101280, Note_on_c, 9, 39, 110
1, 101280, Note_on_c, 9, 82, 68
1, 101280, Note_on_c, 9, 42, 57
1, 101290, Note_on_c, 9, 42, 0
1, 101519, Note_on_c, 9, 40, 0
1, 101519, Note_on_c, 9, 39, 0
1, 101519, Note_on_c, 9, 82, 0
1, 101520, Note_on_c, 9, 82, 50
1, 101520, Note_on_c, 9, 42, 79
1, 101530, Note_on_c, 9, 42, 0
1, 101759, Note_on_c, 9, 82, 0
1, 101760, Note_on_c, 9, 82, 68
1, 101760, Note_on_c, 9, 42, 54
1, 101760, Note_on_c, 9, 36, 105
1, 101770, Note_on_c, 9, 42, 0
1, 101999, Note_on_c, 9, 82, 0
1, 102000, Note_on_c, 9, 82, 58
1, 102000, Note_on_c, 9, 42, 69
1, 102010, Note_on_c, 9, 42, 0
1, 102239, Note_on_c, 9, 36, 0
1, 102239, Note_on_c, 9, 82, 0
1, 102240, Note_on_c, 9, 40, 113
1, 102240, Note_on_c, 9, 39, 110
1, 102240, Note_on_c, 9, 82, 66
1, 102240, Note_on_c, 9, 42, 49
1, 102250, Note_on_c, 9, 42, 0
1, 102479, Note_on_c, 9, 40, 0
1, 102479, Note_on_c, 9, 39, 0
1, 102479, Note_on_c, 9, 82, 0
1, 102480, Note_on_c, 9, 82, 60
1, 102480, Note_on_c, 9, 42, 79
1, 102490, Note_on_c, 9, 42, 0
1, 102719, Note_on_c, 9, 82, 0
1, 102720, Note_on_c, 9, 82, 56
1, 102720, Note_on_c, 9, 42, 46
1, 102720, Note_on_c, 9, 36, 105
1, 102730, Note_on_c, 9, 42, 0
1, 102959, Note_on_c, 9, 82, 0
1, 102960, Note_on_c, 9, 82, 60
1, 102960, Note_on_c, 9, 42, 74
1, 102970, Note_on_c, 9, 42, 0
1, 103199, Note_on_c, 9, 36, 0
1, 103199, Note_on_c, 9, 82, 0
1, 103200, Note_on_c, 9, 40, 113
1, 103200, Note_on_c, 9, 39, 110
1, 103200, Note_on_c, 9, 82, 64
1, 103200, Note_on_c, 9, 42, 46
1, 103210, Note_on_c, 9, 42, 0
1, 103439, Note_on_c, 9, 40, 0
1, 103439, Note_on_c, 9, 39, 0
1, 103439, Note_on_c, 9, 82, 0
1, 103440, Note_on_c, 9, 46, 99
1, 103440, Note_on_c, 9, 82, 64
1, 103450, Note_on_c, 9, 46, 0
1, 103679, Note_on_c, 9, 82, 0
1, 103680, Note_on_c, 9, 82, 66
1, 103680, Note_on_c, 9, 42, 42
1, 103680, Note_on_c, 9, 36, 105
1, 103690, Note_on_c, 9, 42, 0
1, 103919, Note_on_c, 9, 82, 0
1, 103920, Note_on_c, 9, 82, 64
1, 103920, Note_on_c, 9, 42, 69
1, 103930, Note_on_c, 9, 42, 0
1, 104159, Note_on_c, 9, 36, 0
1, 104159, Note_on_c, 9, 82, 0
1, 104160, Note_on_c, 9, 40, 112
1, 104160, Note_on_c, 9, 82, 62
1, 104160, Note_on_c, 9, 42, 54
1, 104170, Note_on_c, 9, 42, 0
1, 104399, Note_on_c, 9, 40, 0
1, 104399, Note_on_c, 9, 82, 0
1, 104400, Note_on_c, 9, 82, 64
1, 104400, Note_on_c, 9, 42, 74
1, 104410, Note_on_c, 9, 42, 0
1, 104639, Note_on_c, 9, 82, 0
1, 104640, Note_on_c, 9, 82, 64
1, 104640, Note_on_c, 9, 42, 57
1, 104640, Note_on_c, 9, 36, 105
1, 104650, Note_on_c, 9, 42, 0
1, 104879, Note_on_c, 9, 82, 0
1, 104880, Note_on_c, 9, 82, 68
1, 104880, Note_on_c, 9, 42, 69
1, 104890, Note_on_c, 9, 42, 0
1, 105119, Note_on_c, 9, 36, 0
1, 105119, Note_on_c, 9, 82, 0
1, 105120, Note_on_c, 9, 40, 113
1, 105120, Note_on_c, 9, 82, 62
1, 105120, Note_on_c, 9, 42, 57
1, 105130, Note_on_c, 9, 42, 0
1, 105359, Note_on_c, 9, 40, 0
1, 105359, Note_on_c, 9, 82, 0
1, 105360, Note_on_c, 9, 82, 64
1, 105360, Note_on_c, 9, 42, 79
1, 105370, Note_on_c, 9, 42, 0
1, 105599, Note_on_c, 9, 82, 0
1, 105600, Note_on_c, 9, 82, 62
1, 105600, Note_on_c, 9, 42, 54
1, 105600, Note_on_c, 9, 36, 105
1, 105610, Note_on_c, 9, 42, 0
1, 105839, Note_on_c, 9, 82, 0
1, 105840, Note_on_c, 9, 82, 55
1, 105840, Note_on_c, 9, 42, 69
1, 105850, Note_on_c, 9, 42, 0
1, 106079, Note_on_c, 9, 36, 0
1, 106079, Note_on_c, 9, 82, 0
1, 106080, Note_on_c, 9, 40, 113
1, 106080, Note_on_c, 9, 82, 55
1, 106080, Note_on_c, 9, 42, 49
1, 106090, Note_on_c, 9, 42, 0
1, 106319, Note_on_c, 9, 40, 0
1, 106319, Note_on_c, 9, 82, 0
1, 106320, Note_on_c, 9, 82, 51
1, 106320, Note_on_c, 9, 42, 79
1, 106330, Note_on_c, 9, 42, 0
1, 106559, Note_on_c, 9, 82, 0
1, 106560, Note_on_c, 9, 82, 58
1, 106560, Note_on_c, 9, 42, 46
1, 106560, Note_on_c, 9, 36, 105
1, 106570, Note_on_c, 9, 42, 0
1, 106799, Note_on_c, 9, 82, 0
1, 106800, Note_on_c, 9, 82, 47
1, 106800, Note_on_c, 9, 42, 74
1, 106810, Note_on_c, 9, 42, 0
1, 107039, Note_on_c, 9, 36, 0
1, 107039, Note_on_c, 9, 82, 0
1, 107040, Note_on_c, 9, 40, 113
1, 107040, Note_on_c, 9, 82, 62
1, 107040, Note_on_c, 9, 42, 46
1, 107050, Note_on_c, 9, 42, 0
1, 107279, Note_on_c, 9, 40, 0
1, 107279, Note_on_c, 9, 82, 0
1, 107280, Note_on_c, 9, 82, 58
1, 107280, Note_on_c, 9, 42, 79
1, 107290, Note_on_c, 9, 42, 0
1, 107519, Note_on_c, 9, 82, 0
1, 107520, Note_on_c, 9, 82, 56
1, 107520, Note_on_c, 9, 42, 42
1, 107520, Note_on_c, 9, 36, 105
1, 107530, Note_on_c, 9, 42, 0
1, 107759, Note_on_c, 9, 82, 0
1, 107760, Note_on_c, 9, 82, 46
1, 107760, Note_on_c, 9, 42, 69
1, 107770, Note_on_c, 9, 42, 0
1, 107999, Note_on_c, 9, 36, 0
1, 107999, Note_on_c, 9, 82, 0
1, 108000, Note_on_c, 9, 40, 112
1, 108000, Note_on_c, 9, 82, 64
1, 108000, Note_on_c, 9, 42, 54
1, 108010, Note_on_c, 9, 42, 0
1, 108239, Note_on_c, 9, 40, 0
1, 108239, Note_on_c, 9, 82, 0
1, 108240, Note_on_c, 9, 82, 53
1, 108240, Note_on_c, 9, 42, 74
1, 108250, Note_on_c, 9, 42, 0
1, 108479, Note_on_c, 9, 82, 0
1, 108480, Note_on_c, 9, 82, 62
1, 108480, Note_on_c, 9, 42, 57
1, 108480, Note_on_c, 9, 36, 105
1, 108490, Note_on_c, 9, 42, 0
1, 108719, Note_on_c, 9, 82, 0
1, 108720, Note_on_c, 9, 82, 60
1, 108720, Note_on_c, 9, 42, 69
1, 108730, Note_on_c, 9, 42, 0
1, 108959, Note_on_c, 9, 36, 0
1, 108959, Note_on_c, 9, 82, 0
1, 108960, Note_on_c, 9, 40, 113
1, 108960, Note_on_c, 9, 82, 68
1, 108960, Note_on_c, 9, 42, 57
1, 108970, Note_on_c, 9, 42, 0
1, 109199, Note_on_c, 9, 40, 0
1, 109199, Note_on_c, 9, 82, 0
1, 109200, Note_on_c, 9, 82, 50
1, 109200, Note_on_c, 9, 42, 79
1, 109210, Note_on_c, 9, 42, 0
1, 109439, Note_on_c, 9, 82, 0
1, 109440, Note_on_c, 9, 82, 68
1, 109440, Note_on_c, 9, 42, 54
1, 109440, Note_on_c, 9, 36, 105
1, 109450, Note_on_c, 9, 42, 0
1, 109679, Note_on_c, 9, 82, 0
1, 109680, Note_on_c, 9, 82, 58
1, 109680, Note_on_c, 9, 42, 69
1, 109690, Note_on_c, 9, 42, 0
1, 109919, Note_on_c, 9, 36, 0
1, 109919, Note_on_c, 9, 82, 0
1, 109920, Note_on_c, 9, 40, 113
1, 109920, Note_on_c, 9, 82, 66
1, 109920, Note_on_c, 9, 42, 49
1, 109930, Note_on_c, 9, 42, 0
1, 110159, Note_on_c, 9, 40, 0
1, 110159, Note_on_c, 9, 82, 0
1, 110160, Note_on_c, 9, 82, 60
1, 110160, Note_on_c, 9, 42, 79
1, 110170, Note_on_c, 9, 42, 0
1, 110399, Note_on_c, 9, 82, 0
1, 110400, Note_on_c, 9, 82, 56
1, 110400, Note_on_c, 9, 42, 46
1, 110400, Note_on_c, 9, 36, 105
1, 110410, Note_on_c, 9, 42, 0
1, 110639, Note_on_c, 9, 82, 0
1, 110640, Note_on_c, 9, 82, 60
1, 110640, Note_on_c, 9, 42, 74
1, 110650, Note_on_c, 9, 42, 0
1, 110879, Note_on_c, 9, 36, 0
1, 110879, Note_on_c, 9, 82, 0
1, 110880, Note_on_c, 9, 40, 113
1, 110880, Note_on_c, 9, 82, 64
1, 110880, Note_on_c, 9, 42, 46
1, 110890, Note_on_c, 9, 42, 0
1, 111119, Note_on_c, 9, 40, 0
1, 111119, Note_on_c, 9, 82, 0
1, 111120, Note_on_c, 9, 82, 64
1, 111120, Note_on_c, 9, 42, 79
1, 111130, Note_on_c, 9, 42, 0
1, 111359, Note_on_c, 9, 82, 0
1, 111360, Note_on_c, 9, 82, 66
1, 111360, Note_on_c, 9, 42, 42
1, 111360, Note_on_c, 9, 36, 105
1, 111370, Note_on_c, 9, 42, 0
1, 111599, Note_on_c, 9, 82, 0
1, 111600, Note_on_c, 9, 82, 64
1, 111600, Note_on_c, 9, 42, 69
1, 111610, Note_on_c, 9, 42, 0
1, 111839, Note_on_c, 9, 36, 0
1, 111839, Note_on_c, 9, 82, 0
1, 111840, Note_on_c, 9, 40, 112
1, 111840, Note_on_c, 9, 82, 62
1, 111840, Note_on_c, 9, 42, 54
1, 111850, Note_on_c, 9, 42, 0
1, 112079, Note_on_c, 9, 40, 0
1, 112079, Note_on_c, 9, 82, 0
1, 112080, Note_on_c, 9, 82, 64
1, 112080, Note_on_c, 9, 42, 74
1, 112090, Note_on_c, 9, 42, 0
1, 112319, Note_on_c, 9, 82, 0
1, 112320, Note_on_c, 9, 82, 64
1, 112320, Note_on_c, 9, 42, 57
1, 112320, Note_on_c, 9, 36, 105
1, 112330, Note_on_c, 9, 42, 0
1, 112559, Note_on_c, 9, 82, 0
1, 112560, Note_on_c, 9, 82, 68
1, 112560, Note_on_c, 9, 42, 69
1, 112570, Note_on_c, 9, 42, 0
1, 112799, Note_on_c, 9, 36, 0
1, 112799, Note_on_c, 9, 82, 0
1, 112800, Note_on_c, 9, 40, 113
1, 112800, Note_on_c, 9, 82, 62
1, 112800, Note_on_c, 9, 42, 57
1, 112810, Note_on_c, 9, 42, 0
1, 113039, Note_on_c, 9, 40, 0
1, 113039, Note_on_c, 9, 82, 0
1, 113040, Note_on_c, 9, 82, 64
1, 113040, Note_on_c, 9, 42, 79
1, 113050, Note_on_c, 9, 42, 0
1, 113279, Note_on_c, 9, 82, 0
1, 113280, Note_on_c, 9, 82, 62
1, 113280, Note_on_c, 9, 42, 54
1, 113280, Note_on_c, 9, 36, 105
1, 113290, Note_on_c, 9, 42, 0
1, 113519, Note_on_c, 9, 82, 0
1, 113520, Note_on_c, 9, 82, 55
1, 113520, Note_on_c, 9, 42, 69
1, 113530, Note_on_c, 9, 42, 0
1, 113759, Note_on_c, 9, 36, 0
1, 113759, Note_on_c, 9, 82, 0
1, 113760, Note_on_c, 9, 40, 113
1, 113760, Note_on_c, 9, 82, 55
1, 113760, Note_on_c, 9, 42, 49
1, 113770, Note_on_c, 9, 42, 0
1, 113999, Note_on_c, 9, 40, 0
1, 113999, Note_on_c, 9, 82, 0
1, 114000, Note_on_c, 9, 82, 51
1, 114000, Note_on_c, 9, 42, 79
1, 114010, Note_on_c, 9, 42, 0
1, 114239, Note_on_c, 9, 82, 0
1, 114240, Note_on_c, 9, 82, 58
1, 114240, Note_on_c, 9, 42, 46
1, 114240, Note_on_c, 9, 36, 105
1, 114250, Note_on_c, 9, 42, 0
1, 114479, Note_on_c, 9, 82, 0
1, 114480, Note_on_c, 9, 82, 47
1, 114480, Note_on_c, 9, 42, 74
1, 114490, Note_on_c, 9, 42, 0
1, 114719, Note_on_c, 9, 36, 0
1, 114719, Note_on_c, 9, 82, 0
1, 114720, Note_on_c, 9, 40, 113
1, 114720, Note_on_c, 9, 82, 62
1, 114720, Note_on_c, 9, 42, 46
1, 114730, Note_on_c, 9, 42, 0
1, 114959, Note_on_c, 9, 40, 0
1, 114959, Note_on_c, 9, 82, 0
1, 114960, Note_on_c, 9, 82, 58
1, 114960, Note_on_c, 9, 42, 79
1, 114970, Note_on_c, 9, 42, 0
1, 115199, Note_on_c, 9, 82, 0
1, 115200, Note_on_c, 9, 82, 56
1, 115200, Note_on_c, 9, 42, 42
1, 115200, Note_on_c, 9, 36, 105
1, 115210, Note_on_c, 9, 42, 0
1, 115439, Note_on_c, 9, 82, 0
1, 115440, Note_on_c, 9, 82, 46
1, 115440, Note_on_c, 9, 42, 69
1, 115450, Note_on_c, 9, 42, 0
1, 115679, Note_on_c, 9, 36, 0
1, 115679, Note_on_c, 9, 82, 0
1, 115680, Note_on_c, 9, 40, 112
1, 115680, Note_on_c, 9, 82, 64
1, 115680, Note_on_c, 9, 42, 54
1, 115690, Note_on_c, 9, 42, 0
1, 115919, Note_on_c, 9, 40, 0
1, 115919, Note_on_c, 9, 82, 0
1, 115920, Note_on_c, 9, 82, 53
1, 115920, Note_on_c, 9, 42, 74
1, 115930, Note_on_c, 9, 42, 0
1, 116159, Note_on_c, 9, 82, 0
1, 116160, Note_on_c, 9, 82, 62
1, 116160, Note_on_c, 9, 42, 57
1, 116160, Note_on_c, 9, 36, 105
1, 116170, Note_on_c, 9, 42, 0
1, 116399, Note_on_c, 9, 82, 0
1, 116400, Note_on_c, 9, 82, 60
1, 116400, Note_on_c, 9, 42, 69
1, 116410, Note_on_c, 9, 42, 0
1, 116639, Note_on_c, 9, 36, 0
1, 116639, Note_on_c, 9, 82, 0
1, 116640, Note_on_c, 9, 40, 113
1, 116640, Note_on_c, 9, 82, 68
1, 116640, Note_on_c, 9, 42, 57
1, 116650, Note_on_c, 9, 42, 0
1, 116879, Note_on_c, 9, 40, 0
1, 116879, Note_on_c, 9, 82, 0
1, 116880, Note_on_c, 9, 82, 50
1, 116880, Note_on_c, 9, 42, 79
1, 116890, Note_on_c, 9, 42, 0
1, 117119, Note_on_c, 9, 82, 0
1, 117120, Note_on_c, 9, 82, 68
1, 117120, Note_on_c, 9, 42, 54
1, 117120, Note_on_c, 9, 36, 105
1, 117130, Note_on_c, 9, 42, 0
1, 117359, Note_on_c, 9, 82, 0
1, 117360, Note_on_c, 9, 82, 58
1, 117360, Note_on_c, 9, 42, 69
1, 117370, Note_on_c, 9, 42, 0
1, 117599, Note_on_c, 9, 36, 0
1, 117599, Note_on_c, 9, 82, 0
1, 117600, Note_on_c, 9, 40, 113
1, 117600, Note_on_c, 9, 82, 66
1, 117600, Note_on_c, 9, 42, 49
1, 117610, Note_on_c, 9, 42, 0
1, 117839, Note_on_c, 9, 40, 0
1, 117839, Note_on_c, 9, 82, 0
1, 117840, Note_on_c, 9, 82, 60
1, 117840, Note_on_c, 9, 42, 79
1, 117850, Note_on_c, 9, 42, 0
1, 118079, Note_on_c, 9, 82, 0
1, 118080, Note_on_c, 9, 82, 56
1, 118080, Note_on_c, 9, 42, 46
1, 118080, Note_on_c, 9, 36, 105
1, 118090, Note_on_c, 9, 42, 0
1, 118319, Note_on_c, 9, 82, 0
1, 118320, Note_on_c, 9, 82, 60
1, 118320, Note_on_c, 9, 42, 74
1, 118330, Note_on_c, 9, 42, 0
1, 118559, Note_on_c, 9, 36, 0
1, 118559, Note_on_c, 9, 82, 0
1, 118560, Note_on_c, 9, 40, 113
1, 118560, Note_on_c, 9, 82, 64
1, 118560, Note_on_c, 9, 42, 46
1, 118570, Note_on_c, 9, 42, 0
1, 118799, Note_on_c, 9, 40, 0
1, 118799, Note_on_c, 9, 82, 0
1, 118800, Note_on_c, 9, 82, 64
1, 118800, Note_on_c, 9, 42, 79
1, 118810, Note_on_c, 9, 42, 0
1, 119039, Note_on_c, 9, 82, 0
1, 119040, Note_on_c, 9, 82, 66
1, 119040, Note_on_c, 9, 42, 42
1, 119040, Note_on_c, 9, 36, 105
1, 119050, Note_on_c, 9, 42, 0
1, 119279, Note_on_c, 9, 82, 0
1, 119280, Note_on_c, 9, 82, 64
1, 119280, Note_on_c, 9, 42, 69
1, 119290, Note_on_c, 9, 42, 0
1, 119519, Note_on_c, 9, 36, 0
1, 119519, Note_on_c, 9, 82, 0
1, 119520, Note_on_c, 9, 40, 112
1, 119520, Note_on_c, 9, 82, 62
1, 119520, Note_on_c, 9, 42, 54
1, 119530, Note_on_c, 9, 42, 0
1, 119759, Note_on_c, 9, 40, 0
1, 119759, Note_on_c, 9, 82, 0
1, 119760, Note_on_c, 9, 82, 64
1, 119760, Note_on_c, 9, 42, 74
1, 119770, Note_on_c, 9, 42, 0
1, 119999, Note_on_c, 9, 82, 0
1, 120000, Note_on_c, 9, 82, 64
1, 120000, Note_on_c, 9, 42, 57
1, 120000, Note_on_c, 9, 36, 105
1, 120010, Note_on_c, 9, 42, 0
1, 120239, Note_on_c, 9, 82, 0
1, 120240, Note_on_c, 9, 82, 68
1, 120240, Note_on_c, 9, 42, 69
1, 120250, Note_on_c, 9, 42, 0
1, 120479, Note_on_c, 9, 36, 0
1, 120479, Note_on_c, 9, 82, 0
1, 120480, Note_on_c, 9, 40, 113
1, 120480, Note_on_c, 9, 82, 62
1, 120480, Note_on_c, 9, 42, 57
1, 120490, Note_on_c, 9, 42, 0
1, 120719, Note_on_c, 9, 40, 0
1, 120719, Note_on_c, 9, 82, 0
1, 120720, Note_on_c, 9, 82, 64
1, 120720, Note_on_c, 9, 42, 79
1, 120730, Note_on_c, 9, 42, 0
1, 120959, Note_on_c, 9, 82, 0
1, 120960, Note_on_c, 9, 82, 62
1, 120960, Note_on_c, 9, 42, 54
1, 120960, Note_on_c, 9, 36, 105
1, 120970, Note_on_c, 9, 42, 0
1, 121199, Note_on_c, 9, 82, 0
1, 121200, Note_on_c, 9, 82, 55
1, 121200, Note_on_c, 9, 42, 69
1, 121210, Note_on_c, 9, 42, 0
1, 121439, Note_on_c, 9, 36, 0
1, 121439, Note_on_c, 9, 82, 0
1, 121440, Note_on_c, 9, 40, 113
1, 121440, Note_on_c, 9, 82, 55
1, 121440, Note_on_c, 9, 42, 49
1, 121450, Note_on_c, 9, 42, 0
1, 121679, Note_on_c, 9, 40, 0
1, 121679, Note_on_c, 9, 82, 0
1, 121680, Note_on_c, 9, 82, 51
1, 121680, Note_on_c, 9, 42, 79
1, 121690, Note_on_c, 9, 42, 0
1, 121919, Note_on_c, 9, 82, 0
1, 121920, Note_on_c, 9, 82, 58
1, 121920, Note_on_c, 9, 42, 46
1, 121920, Note_on_c, 9, 36, 105
1, 121930, Note_on_c, 9, 42, 0
1, 122159, Note_on_c, 9, 82, 0
1, 122160, Note_on_c, 9, 82, 47
1, 122160, Note_on_c, 9, 42, 74
1, 122170, Note_on_c, 9, 42, 0
1, 122399, Note_on_c, 9, 36, 0
1, 122399, Note_on_c, 9, 82, 0
1, 122400, Note_on_c, 9, 40, 113
1, 122400, Note_on_c, 9, 82, 62
1, 122400, Note_on_c, 9, 42, 46
1, 122410, Note_on_c, 9, 42, 0
1, 122639, Note_on_c, 9, 40, 0
1, 122639, Note_on_c, 9, 82, 0
1, 122640, Note_on_c, 9, 82, 58
1, 122640, Note_on_c, 9, 42, 79
1, 122650, Note_on_c, 9, 42, 0
1, 122879, Note_on_c, 9, 82, 0
1, 122880, Note_on_c, 9, 82, 56
1, 122880, Note_on_c, 9, 42, 42
1, 122880, Note_on_c, 9, 36, 105
1, 122890, Note_on_c, 9, 42, 0
1, 123119, Note_on_c, 9, 82, 0
1, 123120, Note_on_c, 9, 82, 46
1, 123120, Note_on_c, 9, 42, 69
1, 123130, Note_on_c, 9, 42, 0
1, 123359, Note_on_c, 9, 36, 0
1, 123359, Note_on_c, 9, 82, 0
1, 123360, Note_on_c, 9, 40, 112
1, 123360, Note_on_c, 9, 82, 64
1, 123360, Note_on_c, 9, 42, 54
1, 123370, Note_on_c, 9, 42, 0
1, 123599, Note_on_c, 9, 40, 0
1, 123599, Note_on_c, 9, 82, 0
1, 123600, Note_on_c, 9, 82, 53
1, 123600, Note_on_c, 9, 42, 74
1, 123610, Note_on_c, 9, 42, 0
1, 123839, Note_on_c, 9, 82, 0
1, 123840, Note_on_c, 9, 82, 62
1, 123840, Note_on_c, 9, 42, 57
1, 123840, Note_on_c, 9, 36, 105
1, 123850, Note_on_c, 9, 42, 0
1, 124079, Note_on_c, 9, 82, 0
1, 124080, Note_on_c, 9, 82, 60
1, 124080, Note_on_c, 9, 42, 69
1, 124090, Note_on_c, 9, 42, 0
1, 124319, Note_on_c, 9, 36, 0
1, 124319, Note_on_c, 9, 82, 0
1, 124320, Note_on_c, 9, 40, 113
1, 124320, Note_on_c, 9, 82, 68
1, 124320, Note_on_c, 9, 42, 57
1, 124330, Note_on_c, 9, 42, 0
1, 124559, Note_on_c, 9, 40, 0
1, 124559, Note_on_c, 9, 82, 0
1, 124560, Note_on_c, 9, 82, 50
1, 124560, Note_on_c, 9, 42, 79
1, 124570, Note_on_c, 9, 42, 0
1, 124799, Note_on_c, 9, 82, 0
1, 124800, Note_on_c, 9, 82, 68
1, 124800, Note_on_c, 9, 42, 54
1, 124800, Note_on_c, 9, 36, 105
1, 124810, Note_on_c, 9, 42, 0
1, 125039, Note_on_c, 9, 82, 0
1, 125040, Note_on_c, 9, 82, 58
1, 125040, Note_on_c, 9, 42, 69
1, 125050, Note_on_c, 9, 42, 0
1, 125279, Note_on_c, 9, 36, 0
1, 125279, Note_on_c, 9, 82, 0
1, 125280, Note_on_c, 9, 40, 113
1, 125280, Note_on_c, 9, 82, 66
1, 125280, Note_on_c, 9, 42, 49
1, 125290, Note_on_c, 9, 42, 0
1, 125519, Note_on_c, 9, 40, 0
1, 125519, Note_on_c, 9, 82, 0
1, 125520, Note_on_c, 9, 82, 60
1, 125520, Note_on_c, 9, 42, 79
1, 125530, Note_on_c, 9, 42, 0
1, 125759, Note_on_c, 9, 82, 0
1, 125760, Note_on_c, 9, 82, 56
1, 125760, Note_on_c, 9, 42, 46
1, 125760, Note_on_c, 9, 36, 105
1, 125770, Note_on_c, 9, 42, 0
1, 125999, Note_on_c, 9, 82, 0
1, 126000, Note_on_c, 9, 82, 60
1, 126000, Note_on_c, 9, 42, 74
1, 126010, Note_on_c, 9, 42, 0
1, 126239, Note_on_c, 9, 36, 0
1, 126239, Note_on_c, 9, 82, 0
1, 126240, Note_on_c, 9, 40, 113
1, 126240, Note_on_c, 9, 82, 64
1, 126240, Note_on_c, 9, 42, 46
1, 126250, Note_on_c, 9, 42, 0
1, 126479, Note_on_c, 9, 40, 0
1, 126479, Note_on_c, 9, 82, 0
1, 126480, Note_on_c, 9, 46, 99
1, 126480, Note_on_c, 9, 82, 64
1, 126490, Note_on_c, 9, 46, 0
1, 126719, Note_on_c, 9, 82, 0
1, 126720, Note_on_c, 9, 82, 66
1, 126720, Note_on_c, 9, 42, 42
1, 126720, Note_on_c, 9, 36, 105
1, 126730, Note_on_c, 9, 42, 0
1, 126959, Note_on_c, 9, 82, 0
1, 126960, Note_on_c, 9, 82, 64
1, 126960, Note_on_c, 9, 42, 69
1, 126970, Note_on_c, 9, 42, 0
1, 127199, Note_on_c, 9, 36, 0
1, 127199, Note_on_c, 9, 82, 0
1, 127200, Note_on_c, 9, 40, 112
1, 127200, Note_on_c, 9, 82, 62
1, 127200, Note_on_c, 9, 42, 54
1, 127210, Note_on_c, 9, 42, 0
1, 127439, Note_on_c, 9, 40, 0
1, 127439, Note_on_c, 9, 82, 0
1, 127440, Note_on_c, 9, 82, 64
1, 127440, Note_on_c, 9, 42, 74
1, 127450, Note_on_c, 9, 42, 0
1, 127679, Note_on_c, 9, 82, 0
1, 127680, Note_on_c, 9, 82, 64
1, 127680, Note_on_c, 9, 42, 57
1, 127680, Note_on_c, 9, 36, 105
1, 127690, Note_on_c, 9, 42, 0
1, 127919, Note_on_c, 9, 82, 0
1, 127920, Note_on_c, 9, 82, 68
1, 127920, Note_on_c, 9, 42, 69
1, 127930, Note_on_c, 9, 42, 0
1, 128159, Note_on_c, 9, 36, 0
1, 128159, Note_on_c, 9, 82, 0
1, 128160, Note_on_c, 9, 40, 113
1, 128160, Note_on_c, 9, 82, 62
1, 128160, Note_on_c, 9, 42, 57
1, 128170, Note_on_c, 9, 42, 0
1, 128399, Note_on_c, 9, 40, 0
1, 128399, Note_on_c, 9, 82, 0
1, 128400, Note_on_c, 9, 82, 64
1, 128400, Note_on_c, 9, 42, 79
1, 128410, Note_on_c, 9, 42, 0
1, 128639, Note_on_c, 9, 82, 0
1, 128640, Note_on_c, 9, 82, 62
1, 128640, Note_on_c, 9, 42, 54
1, 128640, Note_on_c, 9, 36, 105
1, 128650, Note_on_c, 9, 42, 0
1, 128879, Note_on_c, 9, 82, 0
1, 128880, Note_on_c, 9, 82, 55
1, 128880, Note_on_c, 9, 42, 69
1, 128890, Note_on_c, 9, 42, 0
1, 129119, Note_on_c, 9, 36, 0
1, 129119, Note_on_c, 9, 82, 0
1, 129120, Note_on_c, 9, 40, 113
1, 129120, Note_on_c, 9, 82, 55
1, 129120, Note_on_c, 9, 42, 49
1, 129130, Note_on_c, 9, 42, 0
1, 129359, Note_on_c, 9, 40, 0
1, 129359, Note_on_c, 9, 82, 0
1, 129360, Note_on_c, 9, 82, 51
1, 129360, Note_on_c, 9, 42, 79
1, 129370, Note_on_c, 9, 42, 0
1, 129599, Note_on_c, 9, 82, 0
1, 129600, Note_on_c, 9, 82, 58
1, 129600, Note_on_c, 9, 42, 46
1, 129600, Note_on_c, 9, 36, 105
1, 129610, Note_on_c, 9, 42, 0
1, 129839, Note_on_c, 9, 82, 0
1, 129840, Note_on_c, 9, 82, 47
1, 129840, Note_on_c, 9, 42, 74
1, 129850, Note_on_c, 9, 42, 0
1, 130079, Note_on_c, 9, 36, 0
1, 130079, Note_on_c, 9, 82, 0
1, 130080, Note_on_c, 9, 40, 113
1, 130080, Note_on_c, 9, 82, 62
1, 130080, Note_on_c, 9, 42, 46
1, 130090, Note_on_c, 9, 42, 0
1, 130319, Note_on_c, 9, 40, 0
1, 130319, Note_on_c, 9, 82, 0
1, 130320, Note_on_c, 9, 82, 58
1, 130320, Note_on_c, 9, 42, 79
1, 130330, Note_on_c, 9, 42, 0
1, 130559, Note_on_c, 9, 82, 0
1, 130560, Note_on_c, 9, 82, 56
1, 130560, Note_on_c, 9, 42, 42
1, 130560, Note_on_c, 9, 36, 105
1, 130570, Note_on_c, 9, 42, 0
1, 130799, Note_on_c, 9, 82, 0
1, 130800, Note_on_c, 9, 82, 46
1, 130800, Note_on_c, 9, 42, 69
1, 130810, Note_on_c, 9, 42, 0
1, 131039, Note_on_c, 9, 36, 0
1, 131039, Note_on_c, 9, 82, 0
1, 131040, Note_on_c, 9, 40, 112
1, 131040, Note_on_c, 9, 82, 64
1, 131040, Note_on_c, 9, 42, 54
1, 131050, Note_on_c, 9, 42, 0
1, 131279, Note_on_c, 9, 40, 0
1, 131279, Note_on_c, 9, 82, 0
1, 131280, Note_on_c, 9, 82, 53
1, 131280, Note_on_c, 9, 42, 74
1, 131290, Note_on_c, 9, 42, 0
1, 131519, Note_on_c, 9, 82, 0
1, 131520, Note_on_c, 9, 82, 62
1, 131520, Note_on_c, 9, 42, 57
1, 131520, Note_on_c, 9, 36, 105
1, 131530, Note_on_c, 9, 42, 0
1, 131759, Note_on_c, 9, 82, 0
1, 131760, Note_on_c, 9, 82, 60
1, 131760, Note_on_c, 9, 42, 69
1, 131770, Note_on_c, 9, 42, 0
1, 131999, Note_on_c, 9, 36, 0
1, 131999, Note_on_c, 9, 82, 0
1, 132000, Note_on_c, 9, 40, 113
1, 132000, Note_on_c, 9, 82, 68
1, 132000, Note_on_c, 9, 42, 57
1, 132010, Note_on_c, 9, 42, 0
1, 132239, Note_on_c, 9, 40, 0
1, 132239, Note_on_c, 9, 82, 0
1, 132240, Note_on_c, 9, 82, 50
1, 132240, Note_on_c, 9, 42, 79
1, 132250, Note_on_c, 9, 42, 0
1, 132479, Note_on_c, 9, 82, 0
1, 132480, Note_on_c, 9, 82, 68
1, 132480, Note_on_c, 9, 42, 54
1, 132480, Note_on_c, 9, 36, 105
1, 132490, Note_on_c, 9, 42, 0
1, 132719, Note_on_c, 9, 82, 0
1, 132720, Note_on_c, 9, 82, 58
1, 132720, Note_on_c, 9, 42, 69
1, 132730, Note_on_c, 9, 42, 0
1, 132959, Note_on_c, 9, 36, 0
1, 132959, Note_on_c, 9, 82, 0
1, 132960, Note_on_c, 9, 40, 113
1, 132960, Note_on_c, 9, 82, 66
1, 132960, Note_on_c, 9, 42, 49
1, 132970, Note_on_c, 9, 42, 0
1, 133199, Note_on_c, 9, 40, 0
1, 133199, Note_on_c, 9, 82, 0
1, 133200, Note_on_c, 9, 82, 60
1, 133200, Note_on_c, 9, 42, 79
1, 133210, Note_on_c, 9, 42, 0
1, 133439, Note_on_c, 9, 82, 0
1, 133440, Note_on_c, 9, 82, 56
1, 133440, Note_on_c, 9, 42, 46
1, 133440, Note_on_c, 9, 36, 105
1, 133450, Note_on_c, 9, 42, 0
1, 133679, Note_on_c, 9, 82, 0
1, 133680, Note_on_c, 9, 82, 60
1, 133680, Note_on_c, 9, 42, 74
1, 133690, Note_on_c, 9, 42, 0
1, 133919, Note_on_c, 9, 36, 0
1, 133919, Note_on_c, 9, 82, 0
1, 133920, Note_on_c, 9, 40, 113
1, 133920, Note_on_c, 9, 82, 64
1, 133920, Note_on_c, 9, 42, 46
1, 133930, Note_on_c, 9, 42, 0
1, 134159, Note_on_c, 9, 40, 0
1, 134159, Note_on_c, 9, 82, 0
1, 134160, Note_on_c, 9, 82, 64
1, 134160, Note_on_c, 9, 42, 79
1, 134170, Note_on_c, 9, 42, 0
1, 134399, Note_on_c, 9, 82, 0
1, 134400, Note_on_c, 9, 82, 66
1, 134400, Note_on_c, 9, 42, 42
1, 134400, Note_on_c, 9, 36, 105
1, 134410, Note_on_c, 9, 42, 0
1, 134639, Note_on_c, 9, 82, 0
1, 134640, Note_on_c, 9, 82, 64
1, 134640, Note_on_c, 9, 42, 69
1, 134650, Note_on_c, 9, 42, 0
1, 134879, Note_on_c, 9, 36, 0
1, 134879, Note_on_c, 9, 82, 0
1, 134880, Note_on_c, 9, 40, 112
1, 134880, Note_on_c, 9, 82, 62
1, 134880, Note_on_c, 9, 42, 54
1, 134890, Note_on_c, 9, 42, 0
1, 135119, Note_on_c, 9, 40, 0
1, 135119, Note_on_c, 9, 82, 0
1, 135120, Note_on_c, 9, 82, 64
1, 135120, Note_on_c, 9, 42, 74
1, 135130, Note_on_c, 9, 42, 0
1, 135359, Note_on_c, 9, 82, 0
1, 135360, Note_on_c, 9, 82, 64
1, 135360, Note_on_c, 9, 42, 57
1, 135360, Note_on_c, 9, 36, 105
1, 135370, Note_on_c, 9, 42, 0
1, 135599, Note_on_c, 9, 82, 0
1, 135600, Note_on_c, 9, 82, 68
1, 135600, Note_on_c, 9, 42, 69
1, 135610, Note_on_c, 9, 42, 0
1, 135839, Note_on_c, 9, 36, 0
1, 135839, Note_on_c, 9, 82, 0
1, 135840, Note_on_c, 9, 40, 113
1, 135840, Note_on_c, 9, 82, 62
1, 135840, Note_on_c, 9, 42, 57
1, 135850, Note_on_c, 9, 42, 0
1, 136079, Note_on_c, 9, 40, 0
1, 136079, Note_on_c, 9, 82, 0
1, 136080, Note_on_c, 9, 82, 64
1, 136080, Note_on_c, 9, 42, 79
1, 136090, Note_on_c, 9, 42, 0
1, 136319, Note_on_c, 9, 82, 0
1, 136320, Note_on_c, 9, 82, 62
1, 136320, Note_on_c, 9, 42, 54
1, 136320, Note_on_c, 9, 36, 105
1, 136330, Note_on_c, 9, 42, 0
1, 136559, Note_on_c, 9, 82, 0
1, 136560, Note_on_c, 9, 82, 55
1, 136560, Note_on_c, 9, 42, 69
1, 136570, Note_on_c, 9, 42, 0
1, 136799, Note_on_c, 9, 36, 0
1, 136799, Note_on_c, 9, 82, 0
1, 136800, Note_on_c, 9, 40, 113
1, 136800, Note_on_c, 9, 82, 55
1, 136800, Note_on_c, 9, 42, 49
1, 136810, Note_on_c, 9, 42, 0
1, 137039, Note_on_c, 9, 40, 0
1, 137039, Note_on_c, 9, 82, 0
1, 137040, Note_on_c, 9, 82, 51
1, 137040, Note_on_c, 9, 42, 79
1, 137050, Note_on_c, 9, 42, 0
1, 137279, Note_on_c, 9, 82, 0
1, 137280, Note_on_c, 9, 82, 58
1, 137280, Note_on_c, 9, 42, 46
1, 137280, Note_on_c, 9, 36, 105
1, 137290, Note_on_c, 9, 42, 0
1, 137519, Note_on_c, 9, 82, 0
1, 137520, Note_on_c, 9, 82, 47
1, 137520, Note_on_c, 9, 42, 74
1, 137530, Note_on_c, 9, 42, 0
1, 137759, Note_on_c, 9, 36, 0
1, 137759, Note_on_c, 9, 82, 0
1, 137760, Note_on_c, 9, 40, 113
1, 137760, Note_on_c, 9, 82, 62
1, 137760, Note_on_c, 9, 42, 46
1, 137770, Note_on_c, 9, 42, 0
1, 137999, Note_on_c, 9, 40, 0
1, 137999, Note_on_c, 9, 82, 0
1, 138000, Note_on_c, 9, 82, 58
1, 138000, Note_on_c, 9, 42, 79
1, 138010, Note_on_c, 9, 42, 0
1, 138239, Note_on_c, 9, 82, 0
1, 138240, Note_on_c, 9, 82, 56
1, 138240, Note_on_c, 9, 42, 42
1, 138240, Note_on_c, 9, 36, 105
1, 138250, Note_on_c, 9, 42, 0
1, 138479, Note_on_c, 9, 82, 0
1, 138480, Note_on_c, 9, 82, 46
1, 138480, Note_on_c, 9, 42, 69
1, 138490, Note_on_c, 9, 42, 0
1, 138719, Note_on_c, 9, 36, 0
1, 138719, Note_on_c, 9, 82, 0
1, 138720, Note_on_c, 9, 40, 112
1, 138720, Note_on_c, 9, 82, 64
1, 138720, Note_on_c, 9, 42, 54
1, 138730, Note_on_c, 9, 42, 0
1, 138959, Note_on_c, 9, 40, 0
1, 138959, Note_on_c, 9, 82, 0
1, 138960, Note_on_c, 9, 82, 53
1, 138960, Note_on_c, 9, 42, 74
1, 138970, Note_on_c, 9, 42, 0
1, 139199, Note_on_c, 9, 82, 0
1, 139200, Note_on_c, 9, 82, 62
1, 139200, Note_on_c, 9, 42, 57
1, 139200, Note_on_c, 9, 36, 105
1, 139210, Note_on_c, 9, 42, 0
1, 139439, Note_on_c, 9, 82, 0
1, 139440, Note_on_c, 9, 82, 60
1, 139440, Note_on_c, 9, 42, 69
1, 139450, Note_on_c, 9, 42, 0
1, 139679, Note_on_c, 9, 36, 0
1, 139679, Note_on_c, 9, 82, 0
1, 139680, Note_on_c, 9, 40, 113
1, 139680, Note_on_c, 9, 82, 68
1, 139680, Note_on_c, 9, 42, 57
1, 139690, Note_on_c, 9, 42, 0
1, 139919, Note_on_c, 9, 40, 0
1, 139919, Note_on_c, 9, 82, 0
1, 139920, Note_on_c, 9, 82, 50
1, 139920, Note_on_c, 9, 42, 79
1, 139930, Note_on_c, 9, 42, 0
1, 140159, Note_on_c, 9, 82, 0
1, 140160, Note_on_c, 9, 82, 68
1, 140160, Note_on_c, 9, 42, 54
1, 140160, Note_on_c, 9, 36, 105
1, 140170, Note_on_c, 9, 42, 0
1, 140399, Note_on_c, 9, 82, 0
1, 140400, Note_on_c, 9, 82, 58
1, 140400, Note_on_c, 9, 42, 69
1, 140410, Note_on_c, 9, 42, 0
1, 140639, Note_on_c, 9, 36, 0
1, 140639, Note_on_c, 9, 82, 0
1, 140640, Note_on_c, 9, 40, 113
1, 140640, Note_on_c, 9, 82, 66
1, 140640, Note_on_c, 9, 42, 49
1, 140650, Note_on_c, 9, 42, 0
1, 140879, Note_on_c, 9, 40, 0
1, 140879, Note_on_c, 9, 82, 0
1, 140880, Note_on_c, 9, 82, 60
1, 140880, Note_on_c, 9, 42, 79
1, 140890, Note_on_c, 9, 42, 0
1, 141119, Note_on_c, 9, 82, 0
1, 141120, Note_on_c, 9, 82, 56
1, 141120, Note_on_c, 9, 42, 46
1, 141120, Note_on_c, 9, 36, 105
1, 141130, Note_on_c, 9, 42, 0
1, 141359, Note_on_c, 9, 82, 0
1, 141360, Note_on_c, 9, 82, 60
1, 141360, Note_on_c, 9, 42, 74
1, 141370, Note_on_c, 9, 42, 0
1, 141599, Note_on_c, 9, 36, 0
1, 141599, Note_on_c, 9, 82, 0
1, 141600, Note_on_c, 9, 40, 113
1, 141600, Note_on_c, 9, 82, 64
1, 141600, Note_on_c, 9, 42, 46
1, 141610, Note_on_c, 9, 42, 0
1, 141839, Note_on_c, 9, 40, 0
1, 141839, Note_on_c, 9, 82, 0
1, 141840, Note_on_c, 9, 40, 117
1, 141840, Note_on_c, 9, 46, 100
1, 141840, Note_on_c, 9, 82, 64
1, 141844, Note_on_c, 9, 46, 0
1, 141959, Note_on_c, 9, 40, 0
1, 141959, Note_on_c, 9, 82, 0
1, 141960, Note_on_c, 9, 40, 121
1, 142079, Note_on_c, 9, 40, 0
1, 142080, Note_on_c, 9, 82, 66
1, 142080, Note_on_c, 9, 42, 42
1, 142080, Note_on_c, 9, 36, 105
1, 142090, Note_on_c, 9, 42, 0
1, 142319, Note_on_c, 9, 82, 0
1, 142320, Note_on_c, 9, 82, 64
1, 142320, Note_on_c, 9, 42, 69
1, 142330, Note_on_c, 9, 42, 0
1, 142559, Note_on_c, 9, 36, 0
1, 142559, Note_on_c, 9, 82, 0
1, 142560, Note_on_c, 9, 40, 112
1, 142560, Note_on_c, 9, 82, 62
1, 142560, Note_on_c, 9, 42, 54
1, 142570, Note_on_c, 9, 42, 0
1, 142799, Note_on_c, 9, 40, 0
1, 142799, Note_on_c, 9, 82, 0
1, 142800, Note_on_c, 9, 82, 64
1, 142800, Note_on_c, 9, 42, 74
1, 142810, Note_on_c, 9, 42, 0
1, 143039, Note_on_c, 9, 82, 0
1, 143040, Note_on_c, 9, 82, 64
1, 143040, Note_on_c, 9, 42, 57
1, 143040, Note_on_c, 9, 36, 105
1, 143050, Note_on_c, 9, 42, 0
1, 143279, Note_on_c, 9, 82, 0
1, 143280, Note_on_c, 9, 82, 68
1, 143280, Note_on_c, 9, 42, 69
1, 143290, Note_on_c, 9, 42, 0
1, 143519, Note_on_c, 9, 36, 0
1, 143519, Note_on_c, 9, 82, 0
1, 143520, Note_on_c, 9, 40, 113
1, 143520, Note_on_c, 9, 82, 62
1, 143520, Note_on_c, 9, 42, 57
1, 143530, Note_on_c, 9, 42, 0
1, 143759, Note_on_c, 9, 40, 0
1, 143759, Note_on_c, 9, 82, 0
1, 143760, Note_on_c, 9, 82, 64
1, 143760, Note_on_c, 9, 42, 79
1, 143770, Note_on_c, 9, 42, 0
1, 143999, Note_on_c, 9, 82, 0
1, 144000, Note_on_c, 9, 82, 62
1, 144000, Note_on_c, 9, 42, 54
1, 144000, Note_on_c, 9, 36, 105
1, 144010, Note_on_c, 9, 42, 0
1, 144239, Note_on_c, 9, 82, 0
1, 144240, Note_on_c, 9, 82, 55
1, 144240, Note_on_c, 9, 42, 69
1, 144250, Note_on_c, 9, 42, 0
1, 144479, Note_on_c, 9, 36, 0
1, 144479, Note_on_c, 9, 82, 0
1, 144480, Note_on_c, 9, 40, 113
1, 144480, Note_on_c, 9, 82, 55
1, 144480, Note_on_c, 9, 42, 49
1, 144490, Note_on_c, 9, 42, 0
1, 144719, Note_on_c, 9, 40, 0
1, 144719, Note_on_c, 9, 82, 0
1, 144720, Note_on_c, 9, 82, 51
1, 144720, Note_on_c, 9, 42, 79
1, 144730, Note_on_c, 9, 42, 0
1, 144959, Note_on_c, 9, 82, 0
1, 144960, Note_on_c, 9, 82, 58
1, 144960, Note_on_c, 9, 42, 46
1, 144960, Note_on_c, 9, 36, 105
1, 144970, Note_on_c, 9, 42, 0
1, 145199, Note_on_c, 9, 82, 0
1, 145200, Note_on_c, 9, 82, 47
1, 145200, Note_on_c, 9, 42, 74
1, 145210, Note_on_c, 9, 42, 0
1, 145439, Note_on_c, 9, 36, 0
1, 145439, Note_on_c, 9, 82, 0
1, 145440, Note_on_c, 9, 40, 113
1, 145440, Note_on_c, 9, 82, 62
1, 145440, Note_on_c, 9, 42, 46
1, 145440, Note_on_c, 9, 52, 99
1, 145450, Note_on_c, 9, 42, 0
1, 145450, Note_on_c, 9, 52, 0
1, 145679, Note_on_c, 9, 40, 0
1, 145679, Note_on_c, 9, 82, 0
1, 145680, Note_on_c, 9, 46, 99
1, 145680, Note_on_c, 9, 82, 58
1, 145690, Note_on_c, 9, 46, 0
1, 145919, Note_on_c, 9, 82, 0
1, 145920, Note_on_c, 9, 82, 56
1, 145920, Note_on_c, 9, 42, 42
1, 145920, Note_on_c, 9, 36, 105
1, 145930, Note_on_c, 9, 42, 0
1, 146159, Note_on_c, 9, 82, 0
1, 146160, Note_on_c, 9, 82, 46
1, 146160, Note_on_c, 9, 42, 69
1, 146170, Note_on_c, 9, 42, 0
1, 146399, Note_on_c, 9, 36, 0
1, 146399, Note_on_c, 9, 82, 0
1, 146400, Note_on_c, 9, 40, 112
1, 146400, Note_on_c, 9, 82, 64
1, 146400, Note_on_c, 9, 42, 54
1, 146410, Note_on_c, 9, 42, 0
1, 146639, Note_on_c, 9, 40, 0
1, 146639, Note_on_c, 9, 82, 0
1, 146640, Note_on_c, 9, 82, 53
1, 146640, Note_on_c, 9, 42, 74
1, 146650, Note_on_c, 9, 42, 0
1, 146879, Note_on_c, 9, 82, 0
1, 146880, Note_on_c, 9, 82, 62
1, 146880, Note_on_c, 9, 42, 57
1, 146880, Note_on_c, 9, 36, 105
1, 146890, Note_on_c, 9, 42, 0
1, 147119, Note_on_c, 9, 82, 0
1, 147120, Note_on_c, 9, 82, 60
1, 147120, Note_on_c, 9, 42, 69
1, 147130, Note_on_c, 9, 42, 0
1, 147359, Note_on_c, 9, 36, 0
1, 147359, Note_on_c, 9, 82, 0
1, 147360, Note_on_c, 9, 40, 113
1, 147360, Note_on_c, 9, 82, 68
1, 147360, Note_on_c, 9, 42, 57
1, 147370, Note_on_c, 9, 42, 0
1, 147599, Note_on_c, 9, 40, 0
1, 147599, Note_on_c, 9, 82, 0
1, 147600, Note_on_c, 9, 82, 50
1, 147600, Note_on_c, 9, 42, 79
1, 147610, Note_on_c, 9, 42, 0
1, 147839, Note_on_c, 9, 82, 0
1, 147840, Note_on_c, 9, 82, 68
1, 147840, Note_on_c, 9, 42, 54
1, 147840, Note_on_c, 9, 36, 105
1, 147850, Note_on_c, 9, 42, 0
1, 148079, Note_on_c, 9, 82, 0
1, 148080, Note_on_c, 9, 82, 58
1, 148080, Note_on_c, 9, 42, 69
1, 148090, Note_on_c, 9, 42, 0
1, 148319, Note_on_c, 9, 36, 0
1, 148319, Note_on_c, 9, 82, 0
1, 148320, Note_on_c, 9, 40, 113
1, 148320, Note_on_c, 9, 82, 66
1, 148320, Note_on_c, 9, 42, 49
1, 148330, Note_on_c, 9, 42, 0
1, 148559, Note_on_c, 9, 40, 0
1, 148559, Note_on_c, 9, 82, 0
1, 148560, Note_on_c, 9, 82, 60
1, 148560, Note_on_c, 9, 42, 79
1, 148570, Note_on_c, 9, 42, 0
1, 148799, Note_on_c, 9, 82, 0
1, 148800, Note_on_c, 9, 82, 56
1, 148800, Note_on_c, 9, 42, 46
1, 148800, Note_on_c, 9, 36, 105
1, 148810, Note_on_c, 9, 42, 0
1, 149039, Note_on_c, 9, 82, 0
1, 149040, Note_on_c, 9, 82, 60
1, 149040, Note_on_c, 9, 42, 74
1, 149050, Note_on_c, 9, 42, 0
1, 149279, Note_on_c, 9, 36, 0
1, 149279, Note_on_c, 9, 82, 0
1, 149280, Note_on_c, 9, 40, 113
1, 149280, Note_on_c, 9, 82, 64
1, 149280, Note_on_c, 9, 42, 46
1, 149280, Note_on_c, 9, 52, 99
1, 149290, Note_on_c, 9, 42, 0
1, 149290, Note_on_c, 9, 52, 0
1, 149519, Note_on_c, 9, 40, 0
1, 149519, Note_on_c, 9, 82, 0
1, 149520, Note_on_c, 9, 46, 99
1, 149520, Note_on_c, 9, 82, 64
1, 149530, Note_on_c, 9, 46, 0
1, 149759, Note_on_c, 9, 82, 0
1, 149760, Note_on_c, 9, 82, 66
1, 149760, Note_on_c, 9, 42, 42
1, 149760, Note_on_c, 9, 36, 105
1, 149770, Note_on_c, 9, 42, 0
1, 149999, Note_on_c, 9, 82, 0
1, 150000, Note_on_c, 9, 82, 64
1, 150000, Note_on_c, 9, 42, 69
1, 150010, Note_on_c, 9, 42, 0
1, 150239, Note_on_c, 9, 36, 0
1, 150239, Note_on_c, 9, 82, 0
1, 150240, Note_on_c, 9, 40, 112
1, 150240, Note_on_c, 9, 82, 62
1, 150240, Note_on_c, 9, 42, 54
1, 150250, Note_on_c, 9, 42, 0
1, 150479, Note_on_c, 9, 40, 0
1, 150479, Note_on_c, 9, 82, 0
1, 150480, Note_on_c, 9, 82, 64
1, 150480, Note_on_c, 9, 42, 74
1, 150490, Note_on_c, 9, 42, 0
1, 150719, Note_on_c, 9, 82, 0
1, 150720, Note_on_c, 9, 82, 64
1, 150720, Note_on_c, 9, 42, 57
1, 150720, Note_on_c, 9, 36, 105
1, 150730, Note_on_c, 9, 42, 0
1, 150959, Note_on_c, 9, 82, 0
1, 150960, Note_on_c, 9, 82, 68
1, 150960, Note_on_c, 9, 42, 69
1, 150970, Note_on_c, 9, 42, 0
1, 151199, Note_on_c, 9, 36, 0
1, 151199, Note_on_c, 9, 82, 0
1, 151200, Note_on_c, 9, 40, 113
1, 151200, Note_on_c, 9, 82, 62
1, 151200, Note_on_c, 9, 42, 57
1, 151210, Note_on_c, 9, 42, 0
1, 151439, Note_on_c, 9, 40, 0
1, 151439, Note_on_c, 9, 82, 0
1, 151440, Note_on_c, 9, 82, 64
1, 151440, Note_on_c, 9, 42, 79
1, 151450, Note_on_c, 9, 42, 0
1, 151679, Note_on_c, 9, 82, 0
1, 151680, Note_on_c, 9, 82, 62
1, 151680, Note_on_c, 9, 42, 54
1, 151680, Note_on_c, 9, 36, 105
1, 151690, Note_on_c, 9, 42, 0
1, 151919, Note_on_c, 9, 82, 0
1, 151920, Note_on_c, 9, 82, 55
1, 151920, Note_on_c, 9, 42, 69
1, 151930, Note_on_c, 9, 42, 0
1, 152159, Note_on_c, 9, 36, 0
1, 152159, Note_on_c, 9, 82, 0
1, 152160, Note_on_c, 9, 40, 113
1, 152160, Note_on_c, 9, 82, 55
1, 152160, Note_on_c, 9, 42, 49
1, 152170, Note_on_c, 9, 42, 0
1, 152399, Note_on_c, 9, 40, 0
1, 152399, Note_on_c, 9, 82, 0
1, 152400, Note_on_c, 9, 82, 51
1, 152400, Note_on_c, 9, 42, 79
1, 152410, Note_on_c, 9, 42, 0
1, 152639, Note_on_c, 9, 82, 0
1, 152640, Note_on_c, 9, 82, 58
1, 152640, Note_on_c, 9, 42, 46
1, 152640, Note_on_c, 9, 36, 105
1, 152650, Note_on_c, 9, 42, 0
1, 152879, Note_on_c, 9, 82, 0
1, 152880, Note_on_c, 9, 82, 47
1, 152880, Note_on_c, 9, 42, 74
1, 152890, Note_on_c, 9, 42, 0
1, 153119, Note_on_c, 9, 36, 0
1, 153119, Note_on_c, 9, 82, 0
1, 153120, Note_on_c, 9, 40, 113
1, 153120, Note_on_c, 9, 82, 62
1, 153120, Note_on_c, 9, 42, 46
1, 153120, Note_on_c, 9, 52, 99
1, 153130, Note_on_c, 9, 42, 0
1, 153130, Note_on_c, 9, 52, 0
1, 153359, Note_on_c, 9, 40, 0
1, 153359, Note_on_c, 9, 82, 0
1, 153360, Note_on_c, 9, 46, 99
1, 153360, Note_on_c, 9, 82, 58
1, 153370, Note_on_c, 9, 46, 0
1, 153599, Note_on_c, 9, 82, 0
1, 153600, Note_on_c, 9, 82, 56
1, 153600, Note_on_c, 9, 42, 49
1, 153600, Note_on_c, 9, 36, 105
1, 153610, Note_on_c, 9, 42, 0
1, 153839, Note_on_c, 9, 82, 0
1, 153840, Note_on_c, 9, 82, 46
1, 153840, Note_on_c, 9, 42, 38
1, 153850, Note_on_c, 9, 42, 0
1, 154079, Note_on_c, 9, 36, 0
1, 154079, Note_on_c, 9, 82, 0
1, 154080, Note_on_c, 9, 40, 112
1, 154080, Note_on_c, 9, 82, 64
1, 154080, Note_on_c, 9, 42, 51
1, 154090, Note_on_c, 9, 42, 0
1, 154319, Note_on_c, 9, 40, 0
1, 154319, Note_on_c, 9, 82, 0
1, 154320, Note_on_c, 9, 46, 89
1, 154320, Note_on_c, 9, 82, 53
1, 154330, Note_on_c, 9, 46, 0
1, 154559, Note_on_c, 9, 82, 0
1, 154560, Note_on_c, 9, 82, 62
1, 154560, Note_on_c, 9, 42, 59
1, 154560, Note_on_c, 9, 36, 105
1, 154570, Note_on_c, 9, 42, 0
1, 154799, Note_on_c, 9, 82, 0
1, 154800, Note_on_c, 9, 82, 60
1, 154800, Note_on_c, 9, 42, 36
1, 154810, Note_on_c, 9, 42, 0
1, 155039, Note_on_c, 9, 36, 0
1, 155039, Note_on_c, 9, 82, 0
1, 155040, Note_on_c, 9, 40, 113
1, 155040, Note_on_c, 9, 82, 68
1, 155040, Note_on_c, 9, 42, 62
1, 155050, Note_on_c, 9, 42, 0
1, 155279, Note_on_c, 9, 40, 0
1, 155279, Note_on_c, 9, 82, 0
1, 155280, Note_on_c, 9, 46, 94
1, 155280, Note_on_c, 9, 82, 50
1, 155290, Note_on_c, 9, 46, 0
1, 155519, Note_on_c, 9, 82, 0
1, 155520, Note_on_c, 9, 82, 68
1, 155520, Note_on_c, 9, 42, 59
1, 155520, Note_on_c, 9, 36, 105
1, 155530, Note_on_c, 9, 42, 0
1, 155759, Note_on_c, 9, 82, 0
1, 155760, Note_on_c, 9, 46, 94
1, 155760, Note_on_c, 9, 82, 58
1, 155770, Note_on_c, 9, 46, 0
1, 155999, Note_on_c, 9, 36, 0
1, 155999, Note_on_c, 9, 82, 0
1, 156000, Note_on_c, 9, 40, 113
1, 156000, Note_on_c, 9, 82, 66
1, 156000, Note_on_c, 9, 42, 56
1, 156010, Note_on_c, 9, 42, 0
1, 156239, Note_on_c, 9, 40, 0
1, 156239, Note_on_c, 9, 82, 0
1, 156240, Note_on_c, 9, 46, 89
1, 156240, Note_on_c, 9, 82, 60
1, 156250, Note_on_c, 9, 46, 0
1, 156479, Note_on_c, 9, 82, 0
1, 156480, Note_on_c, 9, 82, 56
1, 156480, Note_on_c, 9, 42, 66
1, 156480, Note_on_c, 9, 36, 105
1, 156490, Note_on_c, 9, 42, 0
1, 156719, Note_on_c, 9, 82, 0
1, 156720, Note_on_c, 9, 46, 94
1, 156720, Note_on_c, 9, 82, 60
1, 156730, Note_on_c, 9, 46, 0
1, 156959, Note_on_c, 9, 36, 0
1, 156959, Note_on_c, 9, 82, 0
1, 156960, Note_on_c, 9, 40, 113
1, 156960, Note_on_c, 9, 82, 64
1, 156960, Note_on_c, 9, 42, 62
1, 156960, Note_on_c, 9, 52, 92
1, 156970, Note_on_c, 9, 42, 0
1, 156970, Note_on_c, 9, 52, 0
1, 157199, Note_on_c, 9, 40, 0
1, 157199, Note_on_c, 9, 82, 0
1, 157200, Note_on_c, 9, 46, 94
1, 157200, Note_on_c, 9, 82, 64
1, 157210, Note_on_c, 9, 46, 0
1, 157439, Note_on_c, 9, 82, 0
1, 157440, Note_on_c, 9, 82, 66
1, 157440, Note_on_c, 9, 42, 42
1, 157440, Note_on_c, 9, 57, 78
1, 157440, Note_on_c, 9, 36, 105
1, 157450, Note_on_c, 9, 42, 0
1, 157450, Note_on_c, 9, 57, 0
1, 157679, Note_on_c, 9, 82, 0
1, 157680, Note_on_c, 9, 82, 64
1, 157680, Note_on_c, 9, 42, 69
1, 157690, Note_on_c, 9, 42, 0
1, 157919, Note_on_c, 9, 36, 0
1, 157919, Note_on_c, 9, 82, 0
1, 157920, Note_on_c, 9, 40, 112
1, 157920, Note_on_c, 9, 39, 110
1, 157920, Note_on_c, 9, 82, 62
1, 157920, Note_on_c, 9, 42, 54
1, 157920, Note_on_c, 9, 52, 72
1, 157930, Note_on_c, 9, 42, 0
1, 157930, Note_on_c, 9, 52, 0
1, 158159, Note_on_c, 9, 40, 0
1, 158159, Note_on_c, 9, 39, 0
1, 158159, Note_on_c, 9, 82, 0
1, 158160, Note_on_c, 9, 82, 64
1, 158160, Note_on_c, 9, 42, 74
1, 158170, Note_on_c, 9, 42, 0
1, 158399, Note_on_c, 9, 82, 0
1, 158400, Note_on_c, 9, 82, 64
1, 158400, Note_on_c, 9, 42, 57
1, 158400, Note_on_c, 9, 36, 105
1, 158410, Note_on_c, 9, 42, 0
1, 158639, Note_on_c, 9, 82, 0
1, 158640, Note_on_c, 9, 82, 68
1, 158640, Note_on_c, 9, 42, 69
1, 158650, Note_on_c, 9, 42, 0
1, 158879, Note_on_c, 9, 36, 0
1, 158879, Note_on_c, 9, 82, 0
1, 158880, Note_on_c, 9, 40, 113
1, 158880, Note_on_c, 9, 39, 110
1, 158880, Note_on_c, 9, 82, 62
1, 158880, Note_on_c, 9, 42, 57
1, 158890, Note_on_c, 9, 42, 0
1, 159119, Note_on_c, 9, 40, 0
1, 159119, Note_on_c, 9, 39, 0
1, 159119, Note_on_c, 9, 82, 0
1, 159120, Note_on_c, 9, 82, 64
1, 159120, Note_on_c, 9, 42, 79
1, 159130, Note_on_c, 9, 42, 0
1, 159359, Note_on_c, 9, 82, 0
1, 159360, Note_on_c, 9, 82, 62
1, 159360, Note_on_c, 9, 42, 54
1, 159360, Note_on_c, 9, 36, 105
1, 159370, Note_on_c, 9, 42, 0
1, 159599, Note_on_c, 9, 82, 0
1, 159600, Note_on_c, 9, 82, 55
1, 159600, Note_on_c, 9, 42, 69
1, 159610, Note_on_c, 9, 42, 0
1, 159839, Note_on_c, 9, 36, 0
1, 159839, Note_on_c, 9, 82, 0
1, 159840, Note_on_c, 9, 40, 113
1, 159840, Note_on_c, 9, 39, 110
1, 159840, Note_on_c, 9, 82, 55
1, 159840, Note_on_c, 9, 42, 49
1, 159850, Note_on_c, 9, 42, 0
1, 160079, Note_on_c, 9, 40, 0
1, 160079, Note_on_c, 9, 39, 0
1, 160079, Note_on_c, 9, 82, 0
1, 160080, Note_on_c, 9, 82, 51
1, 160080, Note_on_c, 9, 42, 79
1, 160090, Note_on_c, 9, 42, 0
1, 160319, Note_on_c, 9, 82, 0
1, 160320, Note_on_c, 9, 82, 58
1, 160320, Note_on_c, 9, 42, 46
1, 160320, Note_on_c, 9, 36, 105
1, 160330, Note_on_c, 9, 42, 0
1, 160559, Note_on_c, 9, 82, 0
1, 160560, Note_on_c, 9, 82, 47
1, 160560, Note_on_c, 9, 42, 74
1, 160564, Note_on_c, 9, 42, 0
1, 160679, Note_on_c, 9, 82, 0
1, 160680, Note_on_c, 9, 45, 97
1, 160799, Note_on_c, 9, 36, 0
1, 160799, Note_on_c, 9, 45, 0
1, 160800, Note_on_c, 9, 40, 113
1, 160800, Note_on_c, 9, 39, 110
1, 160800, Note_on_c, 9, 82, 62
1, 160800, Note_on_c, 9, 42, 46
1, 160800, Note_on_c, 9, 43, 103
1, 160810, Note_on_c, 9, 42, 0
1, 161039, Note_on_c, 9, 40, 0
1, 161039, Note_on_c, 9, 39, 0
1, 161039, Note_on_c, 9, 82, 0
1, 161040, Note_on_c, 9, 82, 58
1, 161040, Note_on_c, 9, 42, 79
1, 161050, Note_on_c, 9, 42, 0
1, 161279, Note_on_c, 9, 43, 0
1, 161279, Note_on_c, 9, 82, 0
1, 161280, Note_on_c, 9, 82, 56
1, 161280, Note_on_c, 9, 42, 42
1, 161280, Note_on_c, 9, 36, 105
1, 161290, Note_on_c, 9, 42, 0
1, 161519, Note_on_c, 9, 82, 0
1, 161520, Note_on_c, 9, 82, 46
1, 161520, Note_on_c, 9, 42, 69
1, 161530, Note_on_c, 9, 42, 0
1, 161759, Note_on_c, 9, 36, 0
1, 161759, Note_on_c, 9, 82, 0
1, 161760, Note_on_c, 9, 40, 112
1, 161760, Note_on_c, 9, 39, 110
1, 161760, Note_on_c, 9, 82, 64
1, 161760, Note_on_c, 9, 42, 54
1, 161770, Note_on_c, 9, 42, 0
1, 161999, Note_on_c, 9, 40, 0
1, 161999, Note_on_c, 9, 39, 0
1, 161999, Note_on_c, 9, 82, 0
1, 162000, Note_on_c, 9, 82, 53
1, 162000, Note_on_c, 9, 42, 74
1, 162010, Note_on_c, 9, 42, 0
1, 162239, Note_on_c, 9, 82, 0
1, 162240, Note_on_c, 9, 82, 62
1, 162240, Note_on_c, 9, 42, 57
1, 162240, Note_on_c, 9, 36, 105
1, 162250, Note_on_c, 9, 42, 0
1, 162479, Note_on_c, 9, 82, 0
1, 162480, Note_on_c, 9, 82, 60
1, 162480, Note_on_c, 9, 42, 69
1, 162490, Note_on_c, 9, 42, 0
1, 162719, Note_on_c, 9, 36, 0
1, 162719, Note_on_c, 9, 82, 0
1, 162720, Note_on_c, 9, 40, 113
1, 162720, Note_on_c, 9, 39, 110
1, 162720, Note_on_c, 9, 82, 68
1, 162720, Note_on_c, 9, 42, 57
1, 162730, Note_on_c, 9, 42, 0
1, 162959, Note_on_c, 9, 40, 0
1, 162959, Note_on_c, 9, 39, 0
1, 162959, Note_on_c, 9, 82, 0
1, 162960, Note_on_c, 9, 82, 50
1, 162960, Note_on_c, 9, 42, 79
1, 162970, Note_on_c, 9, 42, 0
1, 163199, Note_on_c, 9, 82, 0
1, 163200, Note_on_c, 9, 82, 68
1, 163200, Note_on_c, 9, 42, 54
1, 163200, Note_on_c, 9, 36, 105
1, 163210, Note_on_c, 9, 42, 0
1, 163439, Note_on_c, 9, 82, 0
1, 163440, Note_on_c, 9, 82, 58
1, 163440, Note_on_c, 9, 42, 69
1, 163450, Note_on_c, 9, 42, 0
1, 163679, Note_on_c, 9, 36, 0
1, 163679, Note_on_c, 9, 82, 0
1, 163680, Note_on_c, 9, 40, 113
1, 163680, Note_on_c, 9, 39, 110
1, 163680, Note_on_c, 9, 82, 66
1, 163680, Note_on_c, 9, 42, 49
1, 163690, Note_on_c, 9, 42, 0
1, 163919, Note_on_c, 9, 40, 0
1, 163919, Note_on_c, 9, 39, 0
1, 163919, Note_on_c, 9, 82, 0
1, 163920, Note_on_c, 9, 82, 60
1, 163920, Note_on_c, 9, 42, 79
1, 163930, Note_on_c, 9, 42, 0
1, 164159, Note_on_c, 9, 82, 0
1, 164160, Note_on_c, 9, 82, 56
1, 164160, Note_on_c, 9, 42, 46
1, 164160, Note_on_c, 9, 36, 105
1, 164170, Note_on_c, 9, 42, 0
1, 164399, Note_on_c, 9, 82, 0
1, 164400, Note_on_c, 9, 82, 60
1, 164400, Note_on_c, 9, 42, 74
1, 164410, Note_on_c, 9, 42, 0
1, 164639, Note_on_c, 9, 36, 0
1, 164639, Note_on_c, 9, 82, 0
1, 164640, Note_on_c, 9, 40, 113
1, 164640, Note_on_c, 9, 39, 110
1, 164640, Note_on_c, 9, 82, 64
1, 164640, Note_on_c, 9, 42, 46
1, 164650, Note_on_c, 9, 42, 0
1, 164879, Note_on_c, 9, 40, 0
1, 164879, Note_on_c, 9, 39, 0
1, 164879, Note_on_c, 9, 82, 0
1, 164880, Note_on_c, 9, 82, 64
1, 164880, Note_on_c, 9, 42, 79
1, 164890, Note_on_c, 9, 42, 0
1, 165119, Note_on_c, 9, 82, 0
1, 165120, Note_on_c, 9, 82, 66
1, 165120, Note_on_c, 9, 42, 42
1, 165120, Note_on_c, 9, 36, 105
1, 165130, Note_on_c, 9, 42, 0
1, 165359, Note_on_c, 9, 82, 0
1, 165360, Note_on_c, 9, 82, 64
1, 165360, Note_on_c, 9, 42, 69
1, 165370, Note_on_c, 9, 42, 0
1, 165599, Note_on_c, 9, 36, 0
1, 165599, Note_on_c, 9, 82, 0
1, 165600, Note_on_c, 9, 40, 112
1, 165600, Note_on_c, 9, 39, 110
1, 165600, Note_on_c, 9, 82, 62
1, 165600, Note_on_c, 9, 42, 54
1, 165610, Note_on_c, 9, 42, 0
1, 165839, Note_on_c, 9, 40, 0
1, 165839, Note_on_c, 9, 39, 0
1, 165839, Note_on_c, 9, 82, 0
1, 165840, Note_on_c, 9, 82, 64
1, 165840, Note_on_c, 9, 42, 74
1, 165850, Note_on_c, 9, 42, 0
1, 166079, Note_on_c, 9, 82, 0
1, 166080, Note_on_c, 9, 82, 64
1, 166080, Note_on_c, 9, 42, 57
1, 166080, Note_on_c, 9, 36, 105
1, 166090, Note_on_c, 9, 42, 0
1, 166319, Note_on_c, 9, 82, 0
1, 166320, Note_on_c, 9, 82, 68
1, 166320, Note_on_c, 9, 42, 69
1, 166330, Note_on_c, 9, 42, 0
1, 166559, Note_on_c, 9, 36, 0
1, 166559, Note_on_c, 9, 82, 0
1, 166560, Note_on_c, 9, 40, 113
1, 166560, Note_on_c, 9, 39, 110
1, 166560, Note_on_c, 9, 82, 62
1, 166560, Note_on_c, 9, 42, 57
1, 166570, Note_on_c, 9, 42, 0
1, 166799, Note_on_c, 9, 40, 0
1, 166799, Note_on_c, 9, 39, 0
1, 166799, Note_on_c, 9, 82, 0
1, 166800, Note_on_c, 9, 82, 64
1, 166800, Note_on_c, 9, 42, 79
1, 166810, Note_on_c, 9, 42, 0
1, 167039, Note_on_c, 9, 82, 0
1, 167040, Note_on_c, 9, 82, 62
1, 167040, Note_on_c, 9, 42, 54
1, 167040, Note_on_c, 9, 36, 105
1, 167050, Note_on_c, 9, 42, 0
1, 167279, Note_on_c, 9, 82, 0
1, 167280, Note_on_c, 9, 82, 55
1, 167280, Note_on_c, 9, 42, 69
1, 167290, Note_on_c, 9, 42, 0
1, 167519, Note_on_c, 9, 36, 0
1, 167519, Note_on_c, 9, 82, 0
1, 167520, Note_on_c, 9, 40, 113
1, 167520, Note_on_c, 9, 39, 110
1, 167520, Note_on_c, 9, 82, 55
1, 167520, Note_on_c, 9, 42, 49
1, 167530, Note_on_c, 9, 42, 0
1, 167759, Note_on_c, 9, 40, 0
1, 167759, Note_on_c, 9, 39, 0
1, 167759, Note_on_c, 9, 82, 0
1, 167760, Note_on_c, 9, 82, 51
1, 167760, Note_on_c, 9, 42, 79
1, 167770, Note_on_c, 9, 42, 0
1, 167999, Note_on_c, 9, 82, 0
1, 168000, Note_on_c, 9, 82, 58
1, 168000, Note_on_c, 9, 42, 46
1, 168000, Note_on_c, 9, 36, 105
1, 168010, Note_on_c, 9, 42, 0
1, 168239, Note_on_c, 9, 82, 0
1, 168240, Note_on_c, 9, 82, 47
1, 168240, Note_on_c, 9, 42, 74
1, 168250, Note_on_c, 9, 42, 0
1, 168479, Note_on_c, 9, 36, 0
1, 168479, Note_on_c, 9, 82, 0
1, 168480, Note_on_c, 9, 40, 113
1, 168480, Note_on_c, 9, 39, 110
1, 168480, Note_on_c, 9, 82, 62
1, 168480, Note_on_c, 9, 42, 46
1, 168490, Note_on_c, 9, 42, 0
1, 168719, Note_on_c, 9, 40, 0
1, 168719, Note_on_c, 9, 39, 0
1, 168719, Note_on_c, 9, 82, 0
1, 168720, Note_on_c, 9, 82, 58
1, 168720, Note_on_c, 9, 42, 79
1, 168730, Note_on_c, 9, 42, 0
1, 168959, Note_on_c, 9, 82, 0
1, 168960, Note_on_c, 9, 82, 56
1, 168960, Note_on_c, 9, 42, 42
1, 168960, Note_on_c, 9, 36, 105
1, 168970, Note_on_c, 9, 42, 0
1, 169199, Note_on_c, 9, 82, 0
1, 169200, Note_on_c, 9, 82, 46
1, 169200, Note_on_c, 9, 42, 69
1, 169210, Note_on_c, 9, 42, 0
1, 169439, Note_on_c, 9, 36, 0
1, 169439, Note_on_c, 9, 82, 0
1, 169440, Note_on_c, 9, 40, 112
1, 169440, Note_on_c, 9, 39, 110
1, 169440, Note_on_c, 9, 82, 64
1, 169440, Note_on_c, 9, 42, 54
1, 169450, Note_on_c, 9, 42, 0
1, 169679, Note_on_c, 9, 40, 0
1, 169679, Note_on_c, 9, 39, 0
1, 169679, Note_on_c, 9, 82, 0
1, 169680, Note_on_c, 9, 82, 53
1, 169680, Note_on_c, 9, 42, 74
1, 169690, Note_on_c, 9, 42, 0
1, 169919, Note_on_c, 9, 82, 0
1, 169920, Note_on_c, 9, 82, 62
1, 169920, Note_on_c, 9, 42, 57
1, 169920, Note_on_c, 9, 36, 105
1, 169930, Note_on_c, 9, 42, 0
1, 170159, Note_on_c, 9, 82, 0
1, 170160, Note_on_c, 9, 82, 60
1, 170160, Note_on_c, 9, 42, 69
1, 170170, Note_on_c, 9, 42, 0
1, 170399, Note_on_c, 9, 36, 0
1, 170399, Note_on_c, 9, 82, 0
1, 170400, Note_on_c, 9, 40, 113
1, 170400, Note_on_c, 9, 39, 110
1, 170400, Note_on_c, 9, 82, 68
1, 170400, Note_on_c, 9, 42, 57
1, 170410, Note_on_c, 9, 42, 0
1, 170639, Note_on_c, 9, 40, 0
1, 170639, Note_on_c, 9, 39, 0
1, 170639, Note_on_c, 9, 82, 0
1, 170640, Note_on_c, 9, 82, 50
1, 170640, Note_on_c, 9, 42, 79
1, 170650, Note_on_c, 9, 42, 0
1, 170879, Note_on_c, 9, 82, 0
1, 170880, Note_on_c, 9, 82, 68
1, 170880, Note_on_c, 9, 42, 54
1, 170880, Note_on_c, 9, 36, 105
1, 170890, Note_on_c, 9, 42, 0
1, 171119, Note_on_c, 9, 82, 0
1, 171120, Note_on_c, 9, 82, 58
1, 171120, Note_on_c, 9, 42, 69
1, 171130, Note_on_c, 9, 42, 0
1, 171359, Note_on_c, 9, 36, 0
1, 171359, Note_on_c, 9, 82, 0
1, 171360, Note_on_c, 9, 40, 113
1, 171360, Note_on_c, 9, 39, 110
1, 171360, Note_on_c, 9, 82, 66
1, 171360, Note_on_c, 9, 42, 49
1, 171370, Note_on_c, 9, 42, 0
1, 171599, Note_on_c, 9, 40, 0
1, 171599, Note_on_c, 9, 39, 0
1, 171599, Note_on_c, 9, 82, 0
1, 171600, Note_on_c, 9, 82, 60
1, 171600, Note_on_c, 9, 42, 79
1, 171610, Note_on_c, 9, 42, 0
1, 171839, Note_on_c, 9, 82, 0
1, 171840, Note_on_c, 9, 82, 56
1, 171840, Note_on_c, 9, 42, 46
1, 171840, Note_on_c, 9, 36, 105
1, 171850, Note_on_c, 9, 42, 0
1, 172079, Note_on_c, 9, 82, 0
1, 172080, Note_on_c, 9, 82, 60
1, 172080, Note_on_c, 9, 42, 74
1, 172084, Note_on_c, 9, 42, 0
1, 172199, Note_on_c, 9, 82, 0
1, 172200, Note_on_c, 9, 45, 97
1, 172319, Note_on_c, 9, 36, 0
1, 172319, Note_on_c, 9, 45, 0
1, 172320, Note_on_c, 9, 40, 113
1, 172320, Note_on_c, 9, 39, 110
1, 172320, Note_on_c, 9, 82, 64
1, 172320, Note_on_c, 9, 42, 46
1, 172320, Note_on_c, 9, 43, 103
1, 172330, Note_on_c, 9, 42, 0
1, 172559, Note_on_c, 9, 40, 0
1, 172559, Note_on_c, 9, 39, 0
1, 172559, Note_on_c, 9, 82, 0
1, 172560, Note_on_c, 9, 82, 64
1, 172560, Note_on_c, 9, 42, 79
1, 172570, Note_on_c, 9, 42, 0
1, 172799, Note_on_c, 9, 43, 0
1, 172799, Note_on_c, 9, 82, 0
1, 172800, Note_on_c, 9, 82, 66
1, 172800, Note_on_c, 9, 42, 42
1, 172800, Note_on_c, 9, 36, 105
1, 172810, Note_on_c, 9, 42, 0
1, 173039, Note_on_c, 9, 82, 0
1, 173040, Note_on_c, 9, 82, 64
1, 173040, Note_on_c, 9, 42, 69
1, 173050, Note_on_c, 9, 42, 0
1, 173279, Note_on_c, 9, 36, 0
1, 173279, Note_on_c, 9, 82, 0
1, 173280, Note_on_c, 9, 40, 112
1, 173280, Note_on_c, 9, 39, 110
1, 173280, Note_on_c, 9, 82, 62
1, 173280, Note_on_c, 9, 42, 54
1, 173290, Note_on_c, 9, 42, 0
1, 173519, Note_on_c, 9, 40, 0
1, 173519, Note_on_c, 9, 39, 0
1, 173519, Note_on_c, 9, 82, 0
1, 173520, Note_on_c, 9, 82, 64
1, 173520, Note_on_c, 9, 42, 74
1, 173530, Note_on_c, 9, 42, 0
1, 173759, Note_on_c, 9, 82, 0
1, 173760, Note_on_c, 9, 82, 64
1, 173760, Note_on_c, 9, 42, 57
1, 173760, Note_on_c, 9, 36, 105
1, 173770, Note_on_c, 9, 42, 0
1, 173999, Note_on_c, 9, 82, 0
1, 174000, Note_on_c, 9, 82, 68
1, 174000, Note_on_c, 9, 42, 69
1, 174010, Note_on_c, 9, 42, 0
1, 174239, Note_on_c, 9, 36, 0
1, 174239, Note_on_c, 9, 82, 0
1, 174240, Note_on_c, 9, 40, 113
1, 174240, Note_on_c, 9, 39, 110
1, 174240, Note_on_c, 9, 82, 62
1, 174240, Note_on_c, 9, 42, 57
1, 174250, Note_on_c, 9, 42, 0
1, 174479, Note_on_c, 9, 40, 0
1, 174479, Note_on_c, 9, 39, 0
1, 174479, Note_on_c, 9, 82, 0
1, 174480, Note_on_c, 9, 82, 64
1, 174480, Note_on_c, 9, 42, 79
1, 174490, Note_on_c, 9, 42, 0
1, 174719, Note_on_c, 9, 82, 0
1, 174720, Note_on_c, 9, 82, 62
1, 174720, Note_on_c, 9, 42, 54
1, 174720, Note_on_c, 9, 36, 105
1, 174730, Note_on_c, 9, 42, 0
1, 174959, Note_on_c, 9, 82, 0
1, 174960, Note_on_c, 9, 82, 55
1, 174960, Note_on_c, 9, 42, 69
1, 174970, Note_on_c, 9, 42, 0
1, 175199, Note_on_c, 9, 36, 0
1, 175199, Note_on_c, 9, 82, 0
1, 175200, Note_on_c, 9, 40, 113
1, 175200, Note_on_c, 9, 39, 110
1, 175200, Note_on_c, 9, 82, 55
1, 175200, Note_on_c, 9, 42, 49
1, 175210, Note_on_c, 9, 42, 0
1, 175439, Note_on_c, 9, 40, 0
1, 175439, Note_on_c, 9, 39, 0
1, 175439, Note_on_c, 9, 82, 0
1, 175440, Note_on_c, 9, 82, 51
1, 175440, Note_on_c, 9, 42, 79
1, 175450, Note_on_c, 9, 42, 0
1, 175679, Note_on_c, 9, 82, 0
1, 175680, Note_on_c, 9, 82, 58
1, 175680, Note_on_c, 9, 42, 46
1, 175680, Note_on_c, 9, 36, 105
1, 175690, Note_on_c, 9, 42, 0
1, 175919, Note_on_c, 9, 82, 0
1, 175920, Note_on_c, 9, 82, 47
1, 175920, Note_on_c, 9, 42, 74
1, 175924, Note_on_c, 9, 42, 0
1, 176039, Note_on_c, 9, 82, 0
1, 176040, Note_on_c, 9, 45, 97
1, 176159, Note_on_c, 9, 36, 0
1, 176159, Note_on_c, 9, 45, 0
1, 176160, Note_on_c, 9, 40, 113
1, 176160, Note_on_c, 9, 39, 110
1, 176160, Note_on_c, 9, 82, 62
1, 176160, Note_on_c, 9, 42, 46
1, 176160, Note_on_c, 9, 43, 103
1, 176170, Note_on_c, 9, 42, 0
1, 176399, Note_on_c, 9, 40, 0
1, 176399, Note_on_c, 9, 39, 0
1, 176399, Note_on_c, 9, 82, 0
1, 176400, Note_on_c, 9, 82, 58
1, 176400, Note_on_c, 9, 42, 79
1, 176410, Note_on_c, 9, 42, 0
1, 176639, Note_on_c, 9, 43, 0
1, 176639, Note_on_c, 9, 82, 0
1, 176640, Note_on_c, 9, 82, 56
1, 176640, Note_on_c, 9, 42, 42
1, 176640, Note_on_c, 9, 36, 105
1, 176650, Note_on_c, 9, 42, 0
1, 176879, Note_on_c, 9, 82, 0
1, 176880, Note_on_c, 9, 82, 46
1, 176880, Note_on_c, 9, 42, 69
1, 176890, Note_on_c, 9, 42, 0
1, 177119, Note_on_c, 9, 36, 0
1, 177119, Note_on_c, 9, 82, 0
1, 177120, Note_on_c, 9, 40, 112
1, 177120, Note_on_c, 9, 39, 110
1, 177120, Note_on_c, 9, 82, 64
1, 177120, Note_on_c, 9, 42, 54
1, 177130, Note_on_c, 9, 42, 0
1, 177359, Note_on_c, 9, 40, 0
1, 177359, Note_on_c, 9, 39, 0
1, 177359, Note_on_c, 9, 82, 0
1, 177360, Note_on_c, 9, 82, 53
1, 177360, Note_on_c, 9, 42, 74
1, 177370, Note_on_c, 9, 42, 0
1, 177599, Note_on_c, 9, 82, 0
1, 177600, Note_on_c, 9, 82, 62
1, 177600, Note_on_c, 9, 42, 57
1, 177600, Note_on_c, 9, 36, 105
1, 177610, Note_on_c, 9, 42, 0
1, 177839, Note_on_c, 9, 82, 0
1, 177840, Note_on_c, 9, 82, 60
1, 177840, Note_on_c, 9, 42, 69
1, 177850, Note_on_c, 9, 42, 0
1, 178079, Note_on_c, 9, 36, 0
1, 178079, Note_on_c, 9, 82, 0
1, 178080, Note_on_c, 9, 40, 113
1, 178080, Note_on_c, 9, 39, 110
1, 178080, Note_on_c, 9, 82, 68
1, 178080, Note_on_c, 9, 42, 57
1, 178090, Note_on_c, 9, 42, 0
1, 178319, Note_on_c, 9, 40, 0
1, 178319, Note_on_c, 9, 39, 0
1, 178319, Note_on_c, 9, 82, 0
1, 178320, Note_on_c, 9, 82, 50
1, 178320, Note_on_c, 9, 42, 79
1, 178330, Note_on_c, 9, 42, 0
1, 178559, Note_on_c, 9, 82, 0
1, 178560, Note_on_c, 9, 82, 68
1, 178560, Note_on_c, 9, 42, 54
1, 178560, Note_on_c, 9, 36, 105
1, 178570, Note_on_c, 9, 42, 0
1, 178799, Note_on_c, 9, 82, 0
1, 178800, Note_on_c, 9, 82, 58
1, 178800, Note_on_c, 9, 42, 69
1, 178810, Note_on_c, 9, 42, 0
1, 179039, Note_on_c, 9, 36, 0
1, 179039, Note_on_c, 9, 82, 0
1, 179040, Note_on_c, 9, 40, 113
1, 179040, Note_on_c, 9, 39, 110
1, 179040, Note_on_c, 9, 82, 66
1, 179040, Note_on_c, 9, 42, 49
1, 179050, Note_on_c, 9, 42, 0
1, 179279, Note_on_c, 9, 40, 0
1, 179279, Note_on_c, 9, 39, 0
1, 179279, Note_on_c, 9, 82, 0
1, 179280, Note_on_c, 9, 82, 60
1, 179280, Note_on_c, 9, 42, 79
1, 179290, Note_on_c, 9, 42, 0
1, 179519, Note_on_c, 9, 82, 0
1, 179520, Note_on_c, 9, 82, 56
1, 179520, Note_on_c, 9, 42, 46
1, 179520, Note_on_c, 9, 36, 105
1, 179530, Note_on_c, 9, 42, 0
1, 179759, Note_on_c, 9, 82, 0
1, 179760, Note_on_c, 9, 82, 60
1, 179760, Note_on_c, 9, 42, 74
1, 179770, Note_on_c, 9, 42, 0
1, 179999, Note_on_c, 9, 36, 0
1, 179999, Note_on_c, 9, 82, 0
1, 180000, Note_on_c, 9, 40, 113
1, 180000, Note_on_c, 9, 39, 110
1, 180000, Note_on_c, 9, 82, 64
1, 180000, Note_on_c, 9, 42, 46
1, 180010, Note_on_c, 9, 42, 0
1, 180239, Note_on_c, 9, 40, 0
1, 180239, Note_on_c, 9, 39, 0
1, 180239, Note_on_c, 9, 82, 0
1, 180240, Note_on_c, 9, 46, 100
1, 180240, Note_on_c, 9, 82, 64
1, 180250, Note_on_c, 9, 46, 0
1, 180479, Note_on_c, 9, 82, 0
1, 180480, Note_on_c, 9, 82, 66
1, 180480, Note_on_c, 9, 42, 42
1, 180480, Note_on_c, 9, 36, 105
1, 180490, Note_on_c, 9, 42, 0
1, 180719, Note_on_c, 9, 82, 0
1, 180720, Note_on_c, 9, 82, 64
1, 180720, Note_on_c, 9, 42, 69
1, 180730, Note_on_c, 9, 42, 0
1, 180959, Note_on_c, 9, 36, 0
1, 180959, Note_on_c, 9, 82, 0
1, 180960, Note_on_c, 9, 40, 112
1, 180960, Note_on_c, 9, 39, 110
1, 180960, Note_on_c, 9, 82, 62
1, 180960, Note_on_c, 9, 42, 54
1, 180970, Note_on_c, 9, 42, 0
1, 181199, Note_on_c, 9, 40, 0
1, 181199, Note_on_c, 9, 39, 0
1, 181199, Note_on_c, 9, 82, 0
1, 181200, Note_on_c, 9, 82, 64
1, 181200, Note_on_c, 9, 42, 74
1, 181210, Note_on_c, 9, 42, 0
1, 181439, Note_on_c, 9, 82, 0
1, 181440, Note_on_c, 9, 82, 64
1, 181440, Note_on_c, 9, 42, 57
1, 181440, Note_on_c, 9, 36, 105
1, 181450, Note_on_c, 9, 42, 0
1, 181679, Note_on_c, 9, 82, 0
1, 181680, Note_on_c, 9, 82, 68
1, 181680, Note_on_c, 9, 42, 69
1, 181690, Note_on_c, 9, 42, 0
1, 181919, Note_on_c, 9, 36, 0
1, 181919, Note_on_c, 9, 82, 0
1, 181920, Note_on_c, 9, 40, 113
1, 181920, Note_on_c, 9, 39, 110
1, 181920, Note_on_c, 9, 82, 62
1, 181920, Note_on_c, 9, 42, 57
1, 181930, Note_on_c, 9, 42, 0
1, 182159, Note_on_c, 9, 40, 0
1, 182159, Note_on_c, 9, 39, 0
1, 182159, Note_on_c, 9, 82, 0
1, 182160, Note_on_c, 9, 82, 64
1, 182160, Note_on_c, 9, 42, 79
1, 182170, Note_on_c, 9, 42, 0
1, 182399, Note_on_c, 9, 82, 0
1, 182400, Note_on_c, 9, 82, 62
1, 182400, Note_on_c, 9, 42, 54
1, 182400, Note_on_c, 9, 36, 105
1, 182410, Note_on_c, 9, 42, 0
1, 182639, Note_on_c, 9, 82, 0
1, 182640, Note_on_c, 9, 82, 55
1, 182640, Note_on_c, 9, 42, 69
1, 182650, Note_on_c, 9, 42, 0
1, 182879, Note_on_c, 9, 36, 0
1, 182879, Note_on_c, 9, 82, 0
1, 182880, Note_on_c, 9, 40, 113
1, 182880, Note_on_c, 9, 39, 110
1, 182880, Note_on_c, 9, 82, 55
1, 182880, Note_on_c, 9, 42, 49
1, 182890, Note_on_c, 9, 42, 0
1, 183119, Note_on_c, 9, 40, 0
1, 183119, Note_on_c, 9, 39, 0
1, 183119, Note_on_c, 9, 82, 0
1, 183120, Note_on_c, 9, 82, 51
1, 183120, Note_on_c, 9, 42, 79
1, 183130, Note_on_c, 9, 42, 0
1, 183359, Note_on_c, 9, 82, 0
1, 183360, Note_on_c, 9, 82, 58
1, 183360, Note_on_c, 9, 42, 46
1, 183360, Note_on_c, 9, 36, 105
1, 183370, Note_on_c, 9, 42, 0
1, 183599, Note_on_c, 9, 82, 0
1, 183600, Note_on_c, 9, 82, 47
1, 183600, Note_on_c, 9, 42, 74
1, 183610, Note_on_c, 9, 42, 0
1, 183839, Note_on_c, 9, 36, 0
1, 183839, Note_on_c, 9, 82, 0
1, 183840, Note_on_c, 9, 40, 113
1, 183840, Note_on_c, 9, 39, 110
1, 183840, Note_on_c, 9, 82, 62
1, 183840, Note_on_c, 9, 42, 46
1, 183850, Note_on_c, 9, 42, 0
1, 184079, Note_on_c, 9, 40, 0
1, 184079, Note_on_c, 9, 39, 0
1, 184079, Note_on_c, 9, 82, 0
1, 184080, Note_on_c, 9, 82, 58
1, 184080, Note_on_c, 9, 42, 79
1, 184090, Note_on_c, 9, 42, 0
1, 184319, Note_on_c, 9, 82, 0
1, 184320, Note_on_c, 9, 82, 56
1, 184320, Note_on_c, 9, 42, 42
1, 184320, Note_on_c, 9, 36, 105
1, 184330, Note_on_c, 9, 42, 0
1, 184559, Note_on_c, 9, 82, 0
1, 184560, Note_on_c, 9, 82, 46
1, 184560, Note_on_c, 9, 42, 69
1, 184570, Note_on_c, 9, 42, 0
1, 184799, Note_on_c, 9, 36, 0
1, 184799, Note_on_c, 9, 82, 0
1, 184800, Note_on_c, 9, 40, 112
1, 184800, Note_on_c, 9, 39, 110
1, 184800, Note_on_c, 9, 82, 64
1, 184800, Note_on_c, 9, 42, 54
1, 184810, Note_on_c, 9, 42, 0
1, 185039, Note_on_c, 9, 40, 0
1, 185039, Note_on_c, 9, 39, 0
1, 185039, Note_on_c, 9, 82, 0
1, 185040, Note_on_c, 9, 82, 53
1, 185040, Note_on_c, 9, 42, 74
1, 185050, Note_on_c, 9, 42, 0
1, 185279, Note_on_c, 9, 82, 0
1, 185280, Note_on_c, 9, 82, 62
1, 185280, Note_on_c, 9, 42, 57
1, 185280, Note_on_c, 9, 36, 105
1, 185290, Note_on_c, 9, 42, 0
1, 185519, Note_on_c, 9, 82, 0
1, 185520, Note_on_c, 9, 82, 60
1, 185520, Note_on_c, 9, 42, 69
1, 185530, Note_on_c, 9, 42, 0
1, 185759, Note_on_c, 9, 36, 0
1, 185759, Note_on_c, 9, 82, 0
1, 185760, Note_on_c, 9, 40, 113
1, 185760, Note_on_c, 9, 39, 110
1, 185760, Note_on_c, 9, 82, 68
1, 185760, Note_on_c, 9, 42, 57
1, 185770, Note_on_c, 9, 42, 0
1, 185999, Note_on_c, 9, 40, 0
1, 185999, Note_on_c, 9, 39, 0
1, 185999, Note_on_c, 9, 82, 0
1, 186000, Note_on_c, 9, 82, 50
1, 186000, Note_on_c, 9, 42, 79
1, 186010, Note_on_c, 9, 42, 0
1, 186239, Note_on_c, 9, 82, 0
1, 186240, Note_on_c, 9, 82, 68
1, 186240, Note_on_c, 9, 42, 54
1, 186240, Note_on_c, 9, 36, 105
1, 186250, Note_on_c, 9, 42, 0
1, 186479, Note_on_c, 9, 82, 0
1, 186480, Note_on_c, 9, 82, 58
1, 186480, Note_on_c, 9, 42, 69
1, 186490, Note_on_c, 9, 42, 0
1, 186719, Note_on_c, 9, 36, 0
1, 186719, Note_on_c, 9, 82, 0
1, 186720, Note_on_c, 9, 40, 113
1, 186720, Note_on_c, 9, 39, 110
1, 186720, Note_on_c, 9, 82, 66
1, 186720, Note_on_c, 9, 42, 49
1, 186730, Note_on_c, 9, 42, 0
1, 186959, Note_on_c, 9, 40, 0
1, 186959, Note_on_c, 9, 39, 0
1, 186959, Note_on_c, 9, 82, 0
1, 186960, Note_on_c, 9, 82, 60
1, 186960, Note_on_c, 9, 42, 79
1, 186970, Note_on_c, 9, 42, 0
1, 187199, Note_on_c, 9, 82, 0
1, 187200, Note_on_c, 9, 82, 56
1, 187200, Note_on_c, 9, 42, 46
1, 187200, Note_on_c, 9, 36, 105
1, 187210, Note_on_c, 9, 42, 0
1, 187439, Note_on_c, 9, 82, 0
1, 187440, Note_on_c, 9, 82, 60
1, 187440, Note_on_c, 9, 42, 74
1, 187450, Note_on_c, 9, 42, 0
1, 187679, Note_on_c, 9, 36, 0
1, 187679, Note_on_c, 9, 82, 0
1, 187680, Note_on_c, 9, 40, 113
1, 187680, Note_on_c, 9, 39, 110
1, 187680, Note_on_c, 9, 82, 64
1, 187680, Note_on_c, 9, 42, 46
1, 187690, Note_on_c, 9, 42, 0
1, 187919, Note_on_c, 9, 40, 0
1, 187919, Note_on_c, 9, 39, 0
1, 187919, Note_on_c, 9, 82, 0
1, 187920, Note_on_c, 9, 82, 64
1, 187920, Note_on_c, 9, 42, 79
1, 187930, Note_on_c, 9, 42, 0
1, 188159, Note_on_c, 9, 82, 0
1, 188160, Note_on_c, 9, 82, 66
1, 188160, Note_on_c, 9, 42, 42
1, 188160, Note_on_c, 9, 36, 105
1, 188170, Note_on_c, 9, 42, 0
1, 188399, Note_on_c, 9, 82, 0
1, 188400, Note_on_c, 9, 82, 64
1, 188400, Note_on_c, 9, 42, 69
1, 188410, Note_on_c, 9, 42, 0
1, 188639, Note_on_c, 9, 36, 0
1, 188639, Note_on_c, 9, 82, 0
1, 188640, Note_on_c, 9, 40, 112
1, 188640, Note_on_c, 9, 39, 110
1, 188640, Note_on_c, 9, 82, 62
1, 188640, Note_on_c, 9, 42, 54
1, 188650, Note_on_c, 9, 42, 0
1, 188879, Note_on_c, 9, 40, 0
1, 188879, Note_on_c, 9, 39, 0
1, 188879, Note_on_c, 9, 82, 0
1, 188880, Note_on_c, 9, 82, 64
1, 188880, Note_on_c, 9, 42, 74
1, 188890, Note_on_c, 9, 42, 0
1, 189119, Note_on_c, 9, 82, 0
1, 189120, Note_on_c, 9, 82, 64
1, 189120, Note_on_c, 9, 42, 57
1, 189120, Note_on_c, 9, 36, 105
1, 189130, Note_on_c, 9, 42, 0
1, 189359, Note_on_c, 9, 82, 0
1, 189360, Note_on_c, 9, 82, 68
1, 189360, Note_on_c, 9, 42, 69
1, 189370, Note_on_c, 9, 42, 0
1, 189599, Note_on_c, 9, 36, 0
1, 189599, Note_on_c, 9, 82, 0
1, 189600, Note_on_c, 9, 40, 113
1, 189600, Note_on_c, 9, 39, 110
1, 189600, Note_on_c, 9, 82, 62
1, 189600, Note_on_c, 9, 42, 57
1, 189610, Note_on_c, 9, 42, 0
1, 189839, Note_on_c, 9, 40, 0
1, 189839, Note_on_c, 9, 39, 0
1, 189839, Note_on_c, 9, 82, 0
1, 189840, Note_on_c, 9, 82, 64
1, 189840, Note_on_c, 9, 42, 79
1, 189850, Note_on_c, 9, 42, 0
1, 190079, Note_on_c, 9, 82, 0
1, 190080, Note_on_c, 9, 82, 62
1, 190080, Note_on_c, 9, 42, 54
1, 190080, Note_on_c, 9, 36, 105
1, 190090, Note_on_c, 9, 42, 0
1, 190319, Note_on_c, 9, 82, 0
1, 190320, Note_on_c, 9, 82, 55
1, 190320, Note_on_c, 9, 42, 69
1, 190330, Note_on_c, 9, 42, 0
1, 190559, Note_on_c, 9, 36, 0
1, 190559, Note_on_c, 9, 82, 0
1, 190560, Note_on_c, 9, 40, 113
1, 190560, Note_on_c, 9, 39, 110
1, 190560, Note_on_c, 9, 82, 55
1, 190560, Note_on_c, 9, 42, 49
1, 190570, Note_on_c, 9, 42, 0
1, 190799, Note_on_c, 9, 40, 0
1, 190799, Note_on_c, 9, 39, 0
1, 190799, Note_on_c, 9, 82, 0
1, 190800, Note_on_c, 9, 82, 51
1, 190800, Note_on_c, 9, 42, 79
1, 190810, Note_on_c, 9, 42, 0
1, 191039, Note_on_c, 9, 82, 0
1, 191040, Note_on_c, 9, 82, 58
1, 191040, Note_on_c, 9, 42, 46
1, 191040, Note_on_c, 9, 36, 105
1, 191050, Note_on_c, 9, 42, 0
1, 191279, Note_on_c, 9, 82, 0
1, 191280, Note_on_c, 9, 82, 47
1, 191280, Note_on_c, 9, 42, 74
1, 191290, Note_on_c, 9, 42, 0
1, 191519, Note_on_c, 9, 36, 0
1, 191519, Note_on_c, 9, 82, 0
1, 191520, Note_on_c, 9, 40, 113
1, 191520, Note_on_c, 9, 39, 110
1, 191520, Note_on_c, 9, 82, 62
1, 191520, Note_on_c, 9, 42, 46
1, 191530, Note_on_c, 9, 42, 0
1, 191759, Note_on_c, 9, 40, 0
1, 191759, Note_on_c, 9, 39, 0
1, 191759, Note_on_c, 9, 82, 0
1, 191760, Note_on_c, 9, 82, 58
1, 191760, Note_on_c, 9, 42, 79
1, 191770, Note_on_c, 9, 42, 0
1, 191999, Note_on_c, 9, 82, 0
1, 192000, Note_on_c, 9, 82, 56
1, 192000, Note_on_c, 9, 42, 42
1, 192000, Note_on_c, 9, 36, 105
1, 192010, Note_on_c, 9, 42, 0
1, 192239, Note_on_c, 9, 82, 0
1, 192240, Note_on_c, 9, 82, 46
1, 192240, Note_on_c, 9, 42, 69
1, 192250, Note_on_c, 9, 42, 0
1, 192479, Note_on_c, 9, 36, 0
1, 192479, Note_on_c, 9, 82, 0
1, 192480, Note_on_c, 9, 40, 112
1, 192480, Note_on_c, 9, 39, 110
1, 192480, Note_on_c, 9, 82, 64
1, 192480, Note_on_c, 9, 42, 54
1, 192490, Note_on_c, 9, 42, 0
1, 192719, Note_on_c, 9, 40, 0
1, 192719, Note_on_c, 9, 39, 0
1, 192719, Note_on_c, 9, 82, 0
1, 192720, Note_on_c, 9, 82, 53
1, 192720, Note_on_c, 9, 42, 74
1, 192730, Note_on_c, 9, 42, 0
1, 192959, Note_on_c, 9, 82, 0
1, 192960, Note_on_c, 9, 82, 62
1, 192960, Note_on_c, 9, 42, 57
1, 192960, Note_on_c, 9, 36, 105
1, 192970, Note_on_c, 9, 42, 0
1, 193199, Note_on_c, 9, 82, 0
1, 193200, Note_on_c, 9, 82, 60
1, 193200, Note_on_c, 9, 42, 69
1, 193210, Note_on_c, 9, 42, 0
1, 193439, Note_on_c, 9, 36, 0
1, 193439, Note_on_c, 9, 82, 0
1, 193440, Note_on_c, 9, 40, 113
1, 193440, Note_on_c, 9, 39, 110
1, 193440, Note_on_c, 9, 82, 68
1, 193440, Note_on_c, 9, 42, 57
1, 193450, Note_on_c, 9, 42, 0
1, 193679, Note_on_c, 9, 40, 0
1, 193679, Note_on_c, 9, 39, 0
1, 193679, Note_on_c, 9, 82, 0
1, 193680, Note_on_c, 9, 82, 50
1, 193680, Note_on_c, 9, 42, 79
1, 193690, Note_on_c, 9, 42, 0
1, 193919, Note_on_c, 9, 82, 0
1, 193920, Note_on_c, 9, 82, 68
1, 193920, Note_on_c, 9, 42, 54
1, 193920, Note_on_c, 9, 36, 105
1, 193930, Note_on_c, 9, 42, 0
1, 194159, Note_on_c, 9, 82, 0
1, 194160, Note_on_c, 9, 82, 58
1, 194160, Note_on_c, 9, 42, 69
1, 194170, Note_on_c, 9, 42, 0
1, 194399, Note_on_c, 9, 36, 0
1, 194399, Note_on_c, 9, 82, 0
1, 194400, Note_on_c, 9, 40, 113
1, 194400, Note_on_c, 9, 39, 110
1, 194400, Note_on_c, 9, 82, 66
1, 194400, Note_on_c, 9, 42, 49
1, 194410, Note_on_c, 9, 42, 0
1, 194639, Note_on_c, 9, 40, 0
1, 194639, Note_on_c, 9, 39, 0
1, 194639, Note_on_c, 9, 82, 0
1, 194640, Note_on_c, 9, 82, 60
1, 194640, Note_on_c, 9, 42, 79
1, 194650, Note_on_c, 9, 42, 0
1, 194879, Note_on_c, 9, 82, 0
1, 194880, Note_on_c, 9, 82, 56
1, 194880, Note_on_c, 9, 42, 46
1, 194880, Note_on_c, 9, 36, 105
1, 194890, Note_on_c, 9, 42, 0
1, 195119, Note_on_c, 9, 82, 0
1, 195120, Note_on_c, 9, 82, 60
1, 195120, Note_on_c, 9, 42, 74
1, 195124, Note_on_c, 9, 42, 0
1, 195239, Note_on_c, 9, 82, 0
1, 195240, Note_on_c, 9, 45, 97
1, 195359, Note_on_c, 9, 36, 0
1, 195359, Note_on_c, 9, 45, 0
1, 195360, Note_on_c, 9, 40, 113
1, 195360, Note_on_c, 9, 39, 110
1, 195360, Note_on_c, 9, 82, 64
1, 195360, Note_on_c, 9, 42, 46
1, 195360, Note_on_c, 9, 43, 103
1, 195370, Note_on_c, 9, 42, 0
1, 195599, Note_on_c, 9, 40, 0
1, 195599, Note_on_c, 9, 39, 0
1, 195599, Note_on_c, 9, 82, 0
1, 195600, Note_on_c, 9, 46, 100
1, 195600, Note_on_c, 9, 82, 64
1, 195610, Note_on_c, 9, 46, 0
1, 195839, Note_on_c, 9, 43, 0
1, 195839, Note_on_c, 9, 82, 0
1, 195840, Note_on_c, 9, 82, 66
1, 195840, Note_on_c, 9, 42, 42
1, 195840, Note_on_c, 9, 36, 105
1, 195850, Note_on_c, 9, 42, 0
1, 196079, Note_on_c, 9, 82, 0
1, 196080, Note_on_c, 9, 82, 64
1, 196080, Note_on_c, 9, 42, 69
1, 196090, Note_on_c, 9, 42, 0
1, 196319, Note_on_c, 9, 36, 0
1, 196319, Note_on_c, 9, 82, 0
1, 196320, Note_on_c, 9, 40, 112
1, 196320, Note_on_c, 9, 39, 110
1, 196320, Note_on_c, 9, 82, 62
1, 196320, Note_on_c, 9, 42, 54
1, 196330, Note_on_c, 9, 42, 0
1, 196559, Note_on_c, 9, 40, 0
1, 196559, Note_on_c, 9, 39, 0
1, 196559, Note_on_c, 9, 82, 0
1, 196560, Note_on_c, 9, 82, 64
1, 196560, Note_on_c, 9, 42, 74
1, 196570, Note_on_c, 9, 42, 0
1, 196799, Note_on_c, 9, 82, 0
1, 196800, Note_on_c, 9, 82, 64
1, 196800, Note_on_c, 9, 42, 57
1, 196800, Note_on_c, 9, 36, 105
1, 196810, Note_on_c, 9, 42, 0
1, 197039, Note_on_c, 9, 82, 0
1, 197040, Note_on_c, 9, 82, 68
1, 197040, Note_on_c, 9, 42, 69
1, 197050, Note_on_c, 9, 42, 0
1, 197279, Note_on_c, 9, 36, 0
1, 197279, Note_on_c, 9, 82, 0
1, 197280, Note_on_c, 9, 40, 113
1, 197280, Note_on_c, 9, 39, 110
1, 197280, Note_on_c, 9, 82, 62
1, 197280, Note_on_c, 9, 42, 57
1, 197290, Note_on_c, 9, 42, 0
1, 197519, Note_on_c, 9, 40, 0
1, 197519, Note_on_c, 9, 39, 0
1, 197519, Note_on_c, 9, 82, 0
1, 197520, Note_on_c, 9, 82, 64
1, 197520, Note_on_c, 9, 42, 79
1, 197530, Note_on_c, 9, 42, 0
1, 197759, Note_on_c, 9, 82, 0
1, 197760, Note_on_c, 9, 82, 62
1, 197760, Note_on_c, 9, 42, 54
1, 197760, Note_on_c, 9, 36, 105
1, 197770, Note_on_c, 9, 42, 0
1, 197999, Note_on_c, 9, 82, 0
1, 198000, Note_on_c, 9, 82, 55
1, 198000, Note_on_c, 9, 42, 69
1, 198010, Note_on_c, 9, 42, 0
1, 198239, Note_on_c, 9, 36, 0
1, 198239, Note_on_c, 9, 82, 0
1, 198240, Note_on_c, 9, 40, 113
1, 198240, Note_on_c, 9, 39, 110
1, 198240, Note_on_c, 9, 82, 55
1, 198240, Note_on_c, 9, 42, 49
1, 198250, Note_on_c, 9, 42, 0
1, 198479, Note_on_c, 9, 40, 0
1, 198479, Note_on_c, 9, 39, 0
1, 198479, Note_on_c, 9, 82, 0
1, 198480, Note_on_c, 9, 82, 51
1, 198480, Note_on_c, 9, 42, 79
1, 198490, Note_on_c, 9, 42, 0
1, 198719, Note_on_c, 9, 82, 0
1, 198720, Note_on_c, 9, 82, 58
1, 198720, Note_on_c, 9, 42, 46
1, 198720, Note_on_c, 9, 36, 105
1, 198730, Note_on_c, 9, 42, 0
1, 198959, Note_on_c, 9, 82, 0
1, 198960, Note_on_c, 9, 82, 47
1, 198960, Note_on_c, 9, 42, 74
1, 198970, Note_on_c, 9, 42, 0
1, 199199, Note_on_c, 9, 36, 0
1, 199199, Note_on_c, 9, 82, 0
1, 199200, Note_on_c, 9, 40, 113
1, 199200, Note_on_c, 9, 39, 110
1, 199200, Note_on_c, 9, 82, 62
1, 199200, Note_on_c, 9, 42, 46
1, 199210, Note_on_c, 9, 42, 0
1, 199439, Note_on_c, 9, 40, 0
1, 199439, Note_on_c, 9, 39, 0
1, 199439, Note_on_c, 9, 82, 0
1, 199440, Note_on_c, 9, 82, 58
1, 199440, Note_on_c, 9, 42, 79
1, 199450, Note_on_c, 9, 42, 0
1, 199679, Note_on_c, 9, 82, 0
1, 199680, Note_on_c, 9, 82, 56
1, 199680, Note_on_c, 9, 42, 42
1, 199680, Note_on_c, 9, 36, 105
1, 199690, Note_on_c, 9, 42, 0
1, 199919, Note_on_c, 9, 82, 0
1, 199920, Note_on_c, 9, 82, 46
1, 199920, Note_on_c, 9, 42, 69
1, 199930, Note_on_c, 9, 42, 0
1, 200159, Note_on_c, 9, 36, 0
1, 200159, Note_on_c, 9, 82, 0
1, 200160, Note_on_c, 9, 40, 112
1, 200160, Note_on_c, 9, 39, 110
1, 200160, Note_on_c, 9, 82, 64
1, 200160, Note_on_c, 9, 42, 54
1, 200170, Note_on_c, 9, 42, 0
1, 200399, Note_on_c, 9, 40, 0
1, 200399, Note_on_c, 9, 39, 0
1, 200399, Note_on_c, 9, 82, 0
1, 200400, Note_on_c, 9, 82, 53
1, 200400, Note_on_c, 9, 42, 74
1, 200410, Note_on_c, 9, 42, 0
1, 200639, Note_on_c, 9, 82, 0
1, 200640, Note_on_c, 9, 82, 62
1, 200640, Note_on_c, 9, 42, 57
1, 200640, Note_on_c, 9, 36, 105
1, 200650, Note_on_c, 9, 42, 0
1, 200879, Note_on_c, 9, 82, 0
1, 200880, Note_on_c, 9, 82, 60
1, 200880, Note_on_c, 9, 42, 69
1, 200890, Note_on_c, 9, 42, 0
1, 201119, Note_on_c, 9, 36, 0
1, 201119, Note_on_c, 9, 82, 0
1, 201120, Note_on_c, 9, 40, 113
1, 201120, Note_on_c, 9, 39, 110
1, 201120, Note_on_c, 9, 82, 68
1, 201120, Note_on_c, 9, 42, 57
1, 201130, Note_on_c, 9, 42, 0
1, 201359, Note_on_c, 9, 40, 0
1, 201359, Note_on_c, 9, 39, 0
1, 201359, Note_on_c, 9, 82, 0
1, 201360, Note_on_c, 9, 82, 50
1, 201360, Note_on_c, 9, 42, 79
1, 201370, Note_on_c, 9, 42, 0
1, 201599, Note_on_c, 9, 82, 0
1, 201600, Note_on_c, 9, 82, 68
1, 201600, Note_on_c, 9, 42, 54
1, 201600, Note_on_c, 9, 36, 105
1, 201610, Note_on_c, 9, 42, 0
1, 201839, Note_on_c, 9, 82, 0
1, 201840, Note_on_c, 9, 82, 58
1, 201840, Note_on_c, 9, 42, 69
1, 201850, Note_on_c, 9, 42, 0
1, 202079, Note_on_c, 9, 36, 0
1, 202079, Note_on_c, 9, 82, 0
1, 202080, Note_on_c, 9, 40, 113
1, 202080, Note_on_c, 9, 39, 110
1, 202080, Note_on_c, 9, 82, 66
1, 202080, Note_on_c, 9, 42, 49
1, 202090, Note_on_c, 9, 42, 0
1, 202319, Note_on_c, 9, 40, 0
1, 202319, Note_on_c, 9, 39, 0
1, 202319, Note_on_c, 9, 82, 0
1, 202320, Note_on_c, 9, 82, 60
1, 202320, Note_on_c, 9, 42, 79
1, 202330, Note_on_c, 9, 42, 0
1, 202559, Note_on_c, 9, 82, 0
1, 202560, Note_on_c, 9, 82, 56
1, 202560, Note_on_c, 9, 42, 46
1, 202560, Note_on_c, 9, 36, 105
1, 202570, Note_on_c, 9, 42, 0
1, 202799, Note_on_c, 9, 82, 0
1, 202800, Note_on_c, 9, 82, 60
1, 202800, Note_on_c, 9, 42, 74
1, 202810, Note_on_c, 9, 42, 0
1, 203039, Note_on_c, 9, 36, 0
1, 203039, Note_on_c, 9, 82, 0
1, 203040, Note_on_c, 9, 40, 113
1, 203040, Note_on_c, 9, 39, 110
1, 203040, Note_on_c, 9, 82, 64
1, 203040, Note_on_c, 9, 42, 46
1, 203050, Note_on_c, 9, 42, 0
1, 203279, Note_on_c, 9, 40, 0
1, 203279, Note_on_c, 9, 39, 0
1, 203279, Note_on_c, 9, 82, 0
1, 203280, Note_on_c, 9, 82, 64
1, 203280, Note_on_c, 9, 42, 79
1, 203290, Note_on_c, 9, 42, 0
1, 203519, Note_on_c, 9, 82, 0
1, 203520, Note_on_c, 9, 82, 66
1, 203520, Note_on_c, 9, 42, 42
1, 203520, Note_on_c, 9, 36, 105
1, 203530, Note_on_c, 9, 42, 0
1, 203759, Note_on_c, 9, 82, 0
1, 203760, Note_on_c, 9, 82, 64
1, 203760, Note_on_c, 9, 42, 69
1, 203770, Note_on_c, 9, 42, 0
1, 203999, Note_on_c, 9, 36, 0
1, 203999, Note_on_c, 9, 82, 0
1, 204000, Note_on_c, 9, 40, 112
1, 204000, Note_on_c, 9, 39, 110
1, 204000, Note_on_c, 9, 82, 62
1, 204000, Note_on_c, 9, 42, 54
1, 204010, Note_on_c, 9, 42, 0
1, 204239, Note_on_c, 9, 40, 0
1, 204239, Note_on_c, 9, 39, 0
1, 204239, Note_on_c, 9, 82, 0
1, 204240, Note_on_c, 9, 82, 64
1, 204240, Note_on_c, 9, 42, 74
1, 204250, Note_on_c, 9, 42, 0
1, 204479, Note_on_c, 9, 82, 0
1, 204480, Note_on_c, 9, 82, 64
1, 204480, Note_on_c, 9, 42, 57
1, 204480, Note_on_c, 9, 36, 105
1, 204490, Note_on_c, 9, 42, 0
1, 204719, Note_on_c, 9, 82, 0
1, 204720, Note_on_c, 9, 82, 68
1, 204720, Note_on_c, 9, 42, 69
1, 204730, Note_on_c, 9, 42, 0
1, 204959, Note_on_c, 9, 36, 0
1, 204959, Note_on_c, 9, 82, 0
1, 204960, Note_on_c, 9, 40, 113
1, 204960, Note_on_c, 9, 39, 110
1, 204960, Note_on_c, 9, 82, 62
1, 204960, Note_on_c, 9, 42, 57
1, 204970, Note_on_c, 9, 42, 0
1, 205199, Note_on_c, 9, 40, 0
1, 205199, Note_on_c, 9, 39, 0
1, 205199, Note_on_c, 9, 82, 0
1, 205200, Note_on_c, 9, 82, 64
1, 205200, Note_on_c, 9, 42, 79
1, 205210, Note_on_c, 9, 42, 0
1, 205439, Note_on_c, 9, 82, 0
1, 205440, Note_on_c, 9, 82, 62
1, 205440, Note_on_c, 9, 42, 54
1, 205440, Note_on_c, 9, 36, 105
1, 205450, Note_on_c, 9, 42, 0
1, 205679, Note_on_c, 9, 82, 0
1, 205680, Note_on_c, 9, 82, 55
1, 205680, Note_on_c, 9, 42, 69
1, 205690, Note_on_c, 9, 42, 0
1, 205919, Note_on_c, 9, 36, 0
1, 205919, Note_on_c, 9, 82, 0
1, 205920, Note_on_c, 9, 40, 113
1, 205920, Note_on_c, 9, 39, 110
1, 205920, Note_on_c, 9, 82, 55
1, 205920, Note_on_c, 9, 42, 49
1, 205930, Note_on_c, 9, 42, 0
1, 206159, Note_on_c, 9, 40, 0
1, 206159, Note_on_c, 9, 39, 0
1, 206159, Note_on_c, 9, 82, 0
1, 206160, Note_on_c, 9, 82, 51
1, 206160, Note_on_c, 9, 42, 79
1, 206170, Note_on_c, 9, 42, 0
1, 206399, Note_on_c, 9, 82, 0
1, 206400, Note_on_c, 9, 82, 58
1, 206400, Note_on_c, 9, 42, 46
1, 206400, Note_on_c, 9, 36, 105
1, 206410, Note_on_c, 9, 42, 0
1, 206639, Note_on_c, 9, 82, 0
1, 206640, Note_on_c, 9, 82, 47
1, 206640, Note_on_c, 9, 42, 74
1, 206644, Note_on_c, 9, 42, 0
1, 206759, Note_on_c, 9, 82, 0
1, 206760, Note_on_c, 9, 45, 97
1, 206879, Note_on_c, 9, 36, 0
1, 206879, Note_on_c, 9, 45, 0
1, 206880, Note_on_c, 9, 40, 113
1, 206880, Note_on_c, 9, 39, 110
1, 206880, Note_on_c, 9, 82, 62
1, 206880, Note_on_c, 9, 42, 46
1, 206880, Note_on_c, 9, 43, 103
1, 206890, Note_on_c, 9, 42, 0
1, 207119, Note_on_c, 9, 40, 0
1, 207119, Note_on_c, 9, 39, 0
1, 207119, Note_on_c, 9, 82, 0
1, 207120, Note_on_c, 9, 82, 58
1, 207120, Note_on_c, 9, 42, 79
1, 207130, Note_on_c, 9, 42, 0
1, 207359, Note_on_c, 9, 43, 0
1, 207359, Note_on_c, 9, 82, 0
1, 207360, Note_on_c, 9, 82, 56
1, 207360, Note_on_c, 9, 42, 42
1, 207360, Note_on_c, 9, 36, 105
1, 207370, Note_on_c, 9, 42, 0
1, 207599, Note_on_c, 9, 82, 0
1, 207600, Note_on_c, 9, 82, 46
1, 207600, Note_on_c, 9, 42, 69
1, 207610, Note_on_c, 9, 42, 0
1, 207839, Note_on_c, 9, 36, 0
1, 207839, Note_on_c, 9, 82, 0
1, 207840, Note_on_c, 9, 40, 112
1, 207840, Note_on_c, 9, 39, 110
1, 207840, Note_on_c, 9, 82, 64
1, 207840, Note_on_c, 9, 42, 54
1, 207850, Note_on_c, 9, 42, 0
1, 208079, Note_on_c, 9, 40, 0
1, 208079, Note_on_c, 9, 39, 0
1, 208079, Note_on_c, 9, 82, 0
1, 208080, Note_on_c, 9, 82, 53
1, 208080, Note_on_c, 9, 42, 74
1, 208090, Note_on_c, 9, 42, 0
1, 208319, Note_on_c, 9, 82, 0
1, 208320, Note_on_c, 9, 82, 62
1, 208320, Note_on_c, 9, 42, 57
1, 208320, Note_on_c, 9, 36, 105
1, 208330, Note_on_c, 9, 42, 0
1, 208559, Note_on_c, 9, 82, 0
1, 208560, Note_on_c, 9, 82, 60
1, 208560, Note_on_c, 9, 42, 69
1, 208570, Note_on_c, 9, 42, 0
1, 208799, Note_on_c, 9, 36, 0
1, 208799, Note_on_c, 9, 82, 0
1, 208800, Note_on_c, 9, 40, 113
1, 208800, Note_on_c, 9, 39, 110
1, 208800, Note_on_c, 9, 82, 68
1, 208800, Note_on_c, 9, 42, 57
1, 208810, Note_on_c, 9, 42, 0
1, 209039, Note_on_c, 9, 40, 0
1, 209039, Note_on_c, 9, 39, 0
1, 209039, Note_on_c, 9, 82, 0
1, 209040, Note_on_c, 9, 82, 50
1, 209040, Note_on_c, 9, 42, 79
1, 209050, Note_on_c, 9, 42, 0
1, 209279, Note_on_c, 9, 82, 0
1, 209280, Note_on_c, 9, 82, 68
1, 209280, Note_on_c, 9, 42, 54
1, 209280, Note_on_c, 9, 36, 105
1, 209290, Note_on_c, 9, 42, 0
1, 209519, Note_on_c, 9, 82, 0
1, 209520, Note_on_c, 9, 82, 58
1, 209520, Note_on_c, 9, 42, 69
1, 209530, Note_on_c, 9, 42, 0
1, 209759, Note_on_c, 9, 36, 0
1, 209759, Note_on_c, 9, 82, 0
1, 209760, Note_on_c, 9, 40, 113
1, 209760, Note_on_c, 9, 39, 110
1, 209760, Note_on_c, 9, 82, 66
1, 209760, Note_on_c, 9, 42, 49
1, 209770, Note_on_c, 9, 42, 0
1, 209999, Note_on_c, 9, 40, 0
1, 209999, Note_on_c, 9, 39, 0
1, 209999, Note_on_c, 9, 82, 0
1, 210000, Note_on_c, 9, 82, 60
1, 210000, Note_on_c, 9, 42, 79
1, 210010, Note_on_c, 9, 42, 0
1, 210239, Note_on_c, 9, 82, 0
1, 210240, Note_on_c, 9, 82, 56
1, 210240, Note_on_c, 9, 42, 46
1, 210240, Note_on_c, 9, 36, 105
1, 210250, Note_on_c, 9, 42, 0
1, 210479, Note_on_c, 9, 82, 0
1, 210480, Note_on_c, 9, 82, 60
1, 210480, Note_on_c, 9, 42, 74
1, 210490, Note_on_c, 9, 42, 0
1, 210719, Note_on_c, 9, 36, 0
1, 210719, Note_on_c, 9, 82, 0
1, 210720, Note_on_c, 9, 40, 113
1, 210720, Note_on_c, 9, 39, 110
1, 210720, Note_on_c, 9, 82, 64
1, 210720, Note_on_c, 9, 42, 46
1, 210730, Note_on_c, 9, 42, 0
1, 210959, Note_on_c, 9, 40, 0
1, 210959, Note_on_c, 9, 39, 0
1, 210959, Note_on_c, 9, 82, 0
1, 210960, Note_on_c, 9, 82, 64
1, 210960, Note_on_c, 9, 42, 79
1, 210970, Note_on_c, 9, 42, 0
1, 211199, Note_on_c, 9, 82, 0
1, 211200, Note_on_c, 9, 82, 66
1, 211200, Note_on_c, 9, 42, 42
1, 211200, Note_on_c, 9, 36, 105
1, 211210, Note_on_c, 9, 42, 0
1, 211439, Note_on_c, 9, 82, 0
1, 211440, Note_on_c, 9, 82, 64
1, 211440, Note_on_c, 9, 42, 69
1, 211450, Note_on_c, 9, 42, 0
1, 211679, Note_on_c, 9, 36, 0
1, 211679, Note_on_c, 9, 82, 0
1, 211680, Note_on_c, 9, 40, 112
1, 211680, Note_on_c, 9, 39, 110
1, 211680, Note_on_c, 9, 82, 62
1, 211680, Note_on_c, 9, 42, 54
1, 211690, Note_on_c, 9, 42, 0
1, 211919, Note_on_c, 9, 40, 0
1, 211919, Note_on_c, 9, 39, 0
1, 211919, Note_on_c, 9, 82, 0
1, 211920, Note_on_c, 9, 82, 64
1, 211920, Note_on_c, 9, 42, 74
1, 211930, Note_on_c, 9, 42, 0
1, 212159, Note_on_c, 9, 82, 0
1, 212160, Note_on_c, 9, 82, 64
1, 212160, Note_on_c, 9, 42, 57
1, 212160, Note_on_c, 9, 36, 105
1, 212170, Note_on_c, 9, 42, 0
1, 212399, Note_on_c, 9, 82, 0
1, 212400, Note_on_c, 9, 82, 68
1, 212400, Note_on_c, 9, 42, 69
1, 212410, Note_on_c, 9, 42, 0
1, 212639, Note_on_c, 9, 36, 0
1, 212639, Note_on_c, 9, 82, 0
1, 212640, Note_on_c, 9, 40, 113
1, 212640, Note_on_c, 9, 39, 110
1, 212640, Note_on_c, 9, 82, 62
1, 212640, Note_on_c, 9, 42, 57
1, 212650, Note_on_c, 9, 42, 0
1, 212879, Note_on_c, 9, 40, 0
1, 212879, Note_on_c, 9, 39, 0
1, 212879, Note_on_c, 9, 82, 0
1, 212880, Note_on_c, 9, 82, 64
1, 212880, Note_on_c, 9, 42, 79
1, 212890, Note_on_c, 9, 42, 0
1, 213119, Note_on_c, 9, 82, 0
1, 213120, Note_on_c, 9, 82, 62
1, 213120, Note_on_c, 9, 42, 54
1, 213120, Note_on_c, 9, 36, 105
1, 213130, Note_on_c, 9, 42, 0
1, 213359, Note_on_c, 9, 82, 0
1, 213360, Note_on_c, 9, 82, 55
1, 213360, Note_on_c, 9, 42, 69
1, 213370, Note_on_c, 9, 42, 0
1, 213599, Note_on_c, 9, 36, 0
1, 213599, Note_on_c, 9, 82, 0
1, 213600, Note_on_c, 9, 40, 113
1, 213600, Note_on_c, 9, 39, 110
1, 213600, Note_on_c, 9, 82, 55
1, 213600, Note_on_c, 9, 42, 49
1, 213610, Note_on_c, 9, 42, 0
1, 213839, Note_on_c, 9, 40, 0
1, 213839, Note_on_c, 9, 39, 0
1, 213839, Note_on_c, 9, 82, 0
1, 213840, Note_on_c, 9, 82, 51
1, 213840, Note_on_c, 9, 42, 79
1, 213850, Note_on_c, 9, 42, 0
1, 214079, Note_on_c, 9, 82, 0
1, 214080, Note_on_c, 9, 82, 58
1, 214080, Note_on_c, 9, 42, 46
1, 214080, Note_on_c, 9, 36, 105
1, 214090, Note_on_c, 9, 42, 0
1, 214319, Note_on_c, 9, 82, 0
1, 214320, Note_on_c, 9, 82, 47
1, 214320, Note_on_c, 9, 42, 74
1, 214330, Note_on_c, 9, 42, 0
1, 214559, Note_on_c, 9, 36, 0
1, 214559, Note_on_c, 9, 82, 0
1, 214560, Note_on_c, 9, 40, 113
1, 214560, Note_on_c, 9, 39, 110
1, 214560, Note_on_c, 9, 82, 62
1, 214560, Note_on_c, 9, 42, 46
1, 214570, Note_on_c, 9, 42, 0
1, 214799, Note_on_c, 9, 40, 0
1, 214799, Note_on_c, 9, 39, 0
1, 214799, Note_on_c, 9, 82, 0
1, 214800, Note_on_c, 9, 82, 58
1, 214800, Note_on_c, 9, 42, 79
1, 214810, Note_on_c, 9, 42, 0
1, 215039, Note_on_c, 9, 82, 0
1, 215040, Note_on_c, 9, 82, 56
1, 215040, Note_on_c, 9, 42, 42
1, 215040, Note_on_c, 9, 36, 105
1, 215050, Note_on_c, 9, 42, 0
1, 215279, Note_on_c, 9, 82, 0
1, 215280, Note_on_c, 9, 82, 46
1, 215280, Note_on_c, 9, 42, 69
1, 215290, Note_on_c, 9, 42, 0
1, 215519, Note_on_c, 9, 36, 0
1, 215519, Note_on_c, 9, 82, 0
1, 215520, Note_on_c, 9, 40, 112
1, 215520, Note_on_c, 9, 39, 110
1, 215520, Note_on_c, 9, 82, 64
1, 215520, Note_on_c, 9, 42, 54
1, 215530, Note_on_c, 9, 42, 0
1, 215759, Note_on_c, 9, 40, 0
1, 215759, Note_on_c, 9, 39, 0
1, 215759, Note_on_c, 9, 82, 0
1, 215760, Note_on_c, 9, 82, 53
1, 215760, Note_on_c, 9, 42, 74
1, 215770, Note_on_c, 9, 42, 0
1, 215999, Note_on_c, 9, 82, 0
1, 216000, Note_on_c, 9, 82, 62
1, 216000, Note_on_c, 9, 42, 57
1, 216000, Note_on_c, 9, 36, 105
1, 216010, Note_on_c, 9, 42, 0
1, 216239, Note_on_c, 9, 82, 0
1, 216240, Note_on_c, 9, 82, 60
1, 216240, Note_on_c, 9, 42, 69
1, 216250, Note_on_c, 9, 42, 0
1, 216479, Note_on_c, 9, 36, 0
1, 216479, Note_on_c, 9, 82, 0
1, 216480, Note_on_c, 9, 40, 113
1, 216480, Note_on_c, 9, 39, 110
1, 216480, Note_on_c, 9, 82, 68
1, 216480, Note_on_c, 9, 42, 57
1, 216490, Note_on_c, 9, 42, 0
1, 216719, Note_on_c, 9, 40, 0
1, 216719, Note_on_c, 9, 39, 0
1, 216719, Note_on_c, 9, 82, 0
1, 216720, Note_on_c, 9, 82, 50
1, 216720, Note_on_c, 9, 42, 79
1, 216730, Note_on_c, 9, 42, 0
1, 216959, Note_on_c, 9, 82, 0
1, 216960, Note_on_c, 9, 82, 68
1, 216960, Note_on_c, 9, 42, 54
1, 216960, Note_on_c, 9, 36, 105
1, 216970, Note_on_c, 9, 42, 0
1, 217199, Note_on_c, 9, 82, 0
1, 217200, Note_on_c, 9, 82, 58
1, 217200, Note_on_c, 9, 42, 69
1, 217210, Note_on_c, 9, 42, 0
1, 217439, Note_on_c, 9, 36, 0
1, 217439, Note_on_c, 9, 82, 0
1, 217440, Note_on_c, 9, 40, 113
1, 217440, Note_on_c, 9, 39, 110
1, 217440, Note_on_c, 9, 82, 66
1, 217440, Note_on_c, 9, 42, 49
1, 217450, Note_on_c, 9, 42, 0
1, 217679, Note_on_c, 9, 40, 0
1, 217679, Note_on_c, 9, 39, 0
1, 217679, Note_on_c, 9, 82, 0
1, 217680, Note_on_c, 9, 82, 60
1, 217680, Note_on_c, 9, 42, 79
1, 217690, Note_on_c, 9, 42, 0
1, 217919, Note_on_c, 9, 82, 0
1, 217920, Note_on_c, 9, 82, 56
1, 217920, Note_on_c, 9, 42, 46
1, 217920, Note_on_c, 9, 36, 105
1, 217930, Note_on_c, 9, 42, 0
1, 218159, Note_on_c, 9, 82, 0
1, 218160, Note_on_c, 9, 82, 60
1, 218160, Note_on_c, 9, 42, 74
1, 218164, Note_on_c, 9, 42, 0
1, 218279, Note_on_c, 9, 82, 0
1, 218280, Note_on_c, 9, 45, 97
1, 218399, Note_on_c, 9, 36, 0
1, 218399, Note_on_c, 9, 45, 0
1, 218400, Note_on_c, 9, 40, 113
1, 218400, Note_on_c, 9, 39, 110
1, 218400, Note_on_c, 9, 82, 64
1, 218400, Note_on_c, 9, 42, 46
1, 218400, Note_on_c, 9, 43, 103
1, 218410, Note_on_c, 9, 42, 0
1, 218639, Note_on_c, 9, 40, 0
1, 218639, Note_on_c, 9, 39, 0
1, 218639, Note_on_c, 9, 82, 0
1, 218640, Note_on_c, 9, 46, 99
1, 218640, Note_on_c, 9, 82, 64
1, 218650, Note_on_c, 9, 46, 0
1, 218879, Note_on_c, 9, 43, 0
1, 218879, Note_on_c, 9, 82, 0
1, 218880, Note_on_c, 9, 82, 66
1, 218880, Note_on_c, 9, 42, 42
1, 218880, Note_on_c, 9, 36, 105
1, 218890, Note_on_c, 9, 42, 0
1, 219119, Note_on_c, 9, 82, 0
1, 219120, Note_on_c, 9, 82, 64
1, 219120, Note_on_c, 9, 42, 69
1, 219130, Note_on_c, 9, 42, 0
1, 219359, Note_on_c, 9, 36, 0
1, 219359, Note_on_c, 9, 82, 0
1, 219360, Note_on_c, 9, 40, 112
1, 219360, Note_on_c, 9, 39, 110
1, 219360, Note_on_c, 9, 82, 62
1, 219360, Note_on_c, 9, 42, 54
1, 219370, Note_on_c, 9, 42, 0
1, 219599, Note_on_c, 9, 40, 0
1, 219599, Note_on_c, 9, 39, 0
1, 219599, Note_on_c, 9, 82, 0
1, 219600, Note_on_c, 9, 82, 64
1, 219600, Note_on_c, 9, 42, 74
1, 219610, Note_on_c, 9, 42, 0
1, 219839, Note_on_c, 9, 82, 0
1, 219840, Note_on_c, 9, 82, 64
1, 219840, Note_on_c, 9, 42, 57
1, 219840, Note_on_c, 9, 36, 105
1, 219850, Note_on_c, 9, 42, 0
1, 220079, Note_on_c, 9, 82, 0
1, 220080, Note_on_c, 9, 82, 68
1, 220080, Note_on_c, 9, 42, 69
1, 220090, Note_on_c, 9, 42, 0
1, 220319, Note_on_c, 9, 36, 0
1, 220319, Note_on_c, 9, 82, 0
1, 220320, Note_on_c, 9, 40, 113
1, 220320, Note_on_c, 9, 39, 110
1, 220320, Note_on_c, 9, 82, 62
1, 220320, Note_on_c, 9, 42, 57
1, 220330, Note_on_c, 9, 42, 0
1, 220559, Note_on_c, 9, 40, 0
1, 220559, Note_on_c, 9, 39, 0
1, 220559, Note_on_c, 9, 82, 0
1, 220560, Note_on_c, 9, 82, 64
1, 220560, Note_on_c, 9, 42, 79
1, 220570, Note_on_c, 9, 42, 0
1, 220799, Note_on_c, 9, 82, 0
1, 220800, Note_on_c, 9, 82, 62
1, 220800, Note_on_c, 9, 42, 54
1, 220800, Note_on_c, 9, 36, 105
1, 220810, Note_on_c, 9, 42, 0
1, 221039, Note_on_c, 9, 82, 0
1, 221040, Note_on_c, 9, 82, 55
1, 221040, Note_on_c, 9, 42, 69
1, 221050, Note_on_c, 9, 42, 0
1, 221279, Note_on_c, 9, 36, 0
1, 221279, Note_on_c, 9, 82, 0
1, 221280, Note_on_c, 9, 40, 113
1, 221280, Note_on_c, 9, 39, 110
1, 221280, Note_on_c, 9, 82, 55
1, 221280, Note_on_c, 9, 42, 49
1, 221290, Note_on_c, 9, 42, 0
1, 221519, Note_on_c, 9, 40, 0
1, 221519, Note_on_c, 9, 39, 0
1, 221519, Note_on_c, 9, 82, 0
1, 221520, Note_on_c, 9, 82, 51
1, 221520, Note_on_c, 9, 42, 79
1, 221530, Note_on_c, 9, 42, 0
1, 221759, Note_on_c, 9, 82, 0
1, 221760, Note_on_c, 9, 82, 58
1, 221760, Note_on_c, 9, 42, 46
1, 221760, Note_on_c, 9, 36, 105
1, 221770, Note_on_c, 9, 42, 0
1, 221999, Note_on_c, 9, 82, 0
1, 222000, Note_on_c, 9, 82, 47
1, 222000, Note_on_c, 9, 42, 74
1, 222004, Note_on_c, 9, 42, 0
1, 222119, Note_on_c, 9, 82, 0
1, 222120, Note_on_c, 9, 45, 97
1, 222239, Note_on_c, 9, 36, 0
1, 222239, Note_on_c, 9, 45, 0
1, 222240, Note_on_c, 9, 40, 113
1, 222240, Note_on_c, 9, 39, 110
1, 222240, Note_on_c, 9, 82, 62
1, 222240, Note_on_c, 9, 42, 46
1, 222240, Note_on_c, 9, 43, 103
1, 222250, Note_on_c, 9, 42, 0
1, 222479, Note_on_c, 9, 40, 0
1, 222479, Note_on_c, 9, 39, 0
1, 222479, Note_on_c, 9, 82, 0
1, 222480, Note_on_c, 9, 82, 58
1, 222480, Note_on_c, 9, 42, 79
1, 222490, Note_on_c, 9, 42, 0
1, 222719, Note_on_c, 9, 43, 0
1, 222719, Note_on_c, 9, 82, 0
1, 222720, Note_on_c, 9, 82, 56
1, 222720, Note_on_c, 9, 42, 42
1, 222720, Note_on_c, 9, 36, 105
1, 222730, Note_on_c, 9, 42, 0
1, 222959, Note_on_c, 9, 82, 0
1, 222960, Note_on_c, 9, 82, 46
1, 222960, Note_on_c, 9, 42, 69
1, 222970, Note_on_c, 9, 42, 0
1, 223199, Note_on_c, 9, 36, 0
1, 223199, Note_on_c, 9, 82, 0
1, 223200, Note_on_c, 9, 40, 112
1, 223200, Note_on_c, 9, 39, 110
1, 223200, Note_on_c, 9, 82, 64
1, 223200, Note_on_c, 9, 42, 54
1, 223210, Note_on_c, 9, 42, 0
1, 223439, Note_on_c, 9, 40, 0
1, 223439, Note_on_c, 9, 39, 0
1, 223439, Note_on_c, 9, 82, 0
1, 223440, Note_on_c, 9, 82, 53
1, 223440, Note_on_c, 9, 42, 74
1, 223450, Note_on_c, 9, 42, 0
1, 223679, Note_on_c, 9, 82, 0
1, 223680, Note_on_c, 9, 82, 62
1, 223680, Note_on_c, 9, 42, 57
1, 223680, Note_on_c, 9, 36, 105
1, 223690, Note_on_c, 9, 42, 0
1, 223919, Note_on_c, 9, 82, 0
1, 223920, Note_on_c, 9, 82, 60
1, 223920, Note_on_c, 9, 42, 69
1, 223930, Note_on_c, 9, 42, 0
1, 224159, Note_on_c, 9, 36, 0
1, 224159, Note_on_c, 9, 82, 0
1, 224160, Note_on_c, 9, 40, 113
1, 224160, Note_on_c, 9, 39, 110
1, 224160, Note_on_c, 9, 82, 68
1, 224160, Note_on_c, 9, 42, 57
1, 224170, Note_on_c, 9, 42, 0
1, 224399, Note_on_c, 9, 40, 0
1, 224399, Note_on_c, 9, 39, 0
1, 224399, Note_on_c, 9, 82, 0
1, 224400, Note_on_c, 9, 82, 50
1, 224400, Note_on_c, 9, 42, 79
1, 224410, Note_on_c, 9, 42, 0
1, 224639, Note_on_c, 9, 82, 0
1, 224640, Note_on_c, 9, 82, 68
1, 224640, Note_on_c, 9, 42, 54
1, 224640, Note_on_c, 9, 36, 105
1, 224650, Note_on_c, 9, 42, 0
1, 224879, Note_on_c, 9, 82, 0
1, 224880, Note_on_c, 9, 82, 58
1, 224880, Note_on_c, 9, 42, 69
1, 224890, Note_on_c, 9, 42, 0
1, 225119, Note_on_c, 9, 36, 0
1, 225119, Note_on_c, 9, 82, 0
1, 225120, Note_on_c, 9, 40, 113
1, 225120, Note_on_c, 9, 39, 110
1, 225120, Note_on_c, 9, 82, 66
1, 225120, Note_on_c, 9, 42, 49
1, 225130, Note_on_c, 9, 42, 0
1, 225359, Note_on_c, 9, 40, 0
1, 225359, Note_on_c, 9, 39, 0
1, 225359, Note_on_c, 9, 82, 0
1, 225360, Note_on_c, 9, 82, 60
1, 225360, Note_on_c, 9, 42, 79
1, 225370, Note_on_c, 9, 42, 0
1, 225599, Note_on_c, 9, 82, 0
1, 225600, Note_on_c, 9, 82, 56
1, 225600, Note_on_c, 9, 42, 46
1, 225600, Note_on_c, 9, 36, 105
1, 225610, Note_on_c, 9, 42, 0
1, 225839, Note_on_c, 9, 82, 0
1, 225840, Note_on_c, 9, 82, 60
1, 225840, Note_on_c, 9, 42, 74
1, 225850, Note_on_c, 9, 42, 0
1, 226079, Note_on_c, 9, 36, 0
1, 226079, Note_on_c, 9, 82, 0
1, 226080, Note_on_c, 9, 40, 113
1, 226080, Note_on_c, 9, 39, 110
1, 226080, Note_on_c, 9, 82, 64
1, 226080, Note_on_c, 9, 42, 46
1, 226090, Note_on_c, 9, 42, 0
1, 226319, Note_on_c, 9, 40, 0
1, 226319, Note_on_c, 9, 39, 0
1, 226319, Note_on_c, 9, 82, 0
1, 226320, Note_on_c, 9, 46, 99
1, 226320, Note_on_c, 9, 82, 64
1, 226330, Note_on_c, 9, 46, 0
1, 226559, Note_on_c, 9, 82, 0
1, 226560, Note_on_c, 9, 82, 66
1, 226560, Note_on_c, 9, 42, 42
1, 226560, Note_on_c, 9, 36, 105
1, 226570, Note_on_c, 9, 42, 0
1, 226799, Note_on_c, 9, 82, 0
1, 226800, Note_on_c, 9, 82, 64
1, 226800, Note_on_c, 9, 42, 69
1, 226810, Note_on_c, 9, 42, 0
1, 227039, Note_on_c, 9, 36, 0
1, 227039, Note_on_c, 9, 82, 0
1, 227040, Note_on_c, 9, 40, 112
1, 227040, Note_on_c, 9, 39, 110
1, 227040, Note_on_c, 9, 82, 62
1, 227040, Note_on_c, 9, 42, 54
1, 227050, Note_on_c, 9, 42, 0
1, 227279, Note_on_c, 9, 40, 0
1, 227279, Note_on_c, 9, 39, 0
1, 227279, Note_on_c, 9, 82, 0
1, 227280, Note_on_c, 9, 82, 64
1, 227280, Note_on_c, 9, 42, 74
1, 227290, Note_on_c, 9, 42, 0
1, 227519, Note_on_c, 9, 82, 0
1, 227520, Note_on_c, 9, 82, 64
1, 227520, Note_on_c, 9, 42, 57
1, 227520, Note_on_c, 9, 36, 105
1, 227530, Note_on_c, 9, 42, 0
1, 227759, Note_on_c, 9, 82, 0
1, 227760, Note_on_c, 9, 82, 68
1, 227760, Note_on_c, 9, 42, 69
1, 227770, Note_on_c, 9, 42, 0
1, 227999, Note_on_c, 9, 36, 0
1, 227999, Note_on_c, 9, 82, 0
1, 228000, Note_on_c, 9, 40, 113
1, 228000, Note_on_c, 9, 39, 110
1, 228000, Note_on_c, 9, 82, 62
1, 228000, Note_on_c, 9, 42, 57
1, 228010, Note_on_c, 9, 42, 0
1, 228239, Note_on_c, 9, 40, 0
1, 228239, Note_on_c, 9, 39, 0
1, 228239, Note_on_c, 9, 82, 0
1, 228240, Note_on_c, 9, 82, 64
1, 228240, Note_on_c, 9, 42, 79
1, 228250, Note_on_c, 9, 42, 0
1, 228479, Note_on_c, 9, 82, 0
1, 228480, Note_on_c, 9, 82, 62
1, 228480, Note_on_c, 9, 42, 54
1, 228480, Note_on_c, 9, 36, 105
1, 228490, Note_on_c, 9, 42, 0
1, 228719, Note_on_c, 9, 82, 0
1, 228720, Note_on_c, 9, 82, 55
1, 228720, Note_on_c, 9, 42, 69
1, 228730, Note_on_c, 9, 42, 0
1, 228959, Note_on_c, 9, 36, 0
1, 228959, Note_on_c, 9, 82, 0
1, 228960, Note_on_c, 9, 40, 113
1, 228960, Note_on_c, 9, 39, 110
1, 228960, Note_on_c, 9, 82, 55
1, 228960, Note_on_c, 9, 42, 49
1, 228970, Note_on_c, 9, 42, 0
1, 229199, Note_on_c, 9, 40, 0
1, 229199, Note_on_c, 9, 39, 0
1, 229199, Note_on_c, 9, 82, 0
1, 229200, Note_on_c, 9, 82, 51
1, 229200, Note_on_c, 9, 42, 79
1, 229210, Note_on_c, 9, 42, 0
1, 229439, Note_on_c, 9, 82, 0
1, 229440, Note_on_c, 9, 82, 58
1, 229440, Note_on_c, 9, 42, 46
1, 229440, Note_on_c, 9, 36, 105
1, 229450, Note_on_c, 9, 42, 0
1, 229679, Note_on_c, 9, 82, 0
1, 229680, Note_on_c, 9, 82, 47
1, 229680, Note_on_c, 9, 42, 74
1, 229690, Note_on_c, 9, 42, 0
1, 229919, Note_on_c, 9, 36, 0
1, 229919, Note_on_c, 9, 82, 0
1, 229920, Note_on_c, 9, 40, 113
1, 229920, Note_on_c, 9, 39, 110
1, 229920, Note_on_c, 9, 82, 62
1, 229920, Note_on_c, 9, 42, 46
1, 229930, Note_on_c, 9, 42, 0
1, 230159, Note_on_c, 9, 40, 0
1, 230159, Note_on_c, 9, 39, 0
1, 230159, Note_on_c, 9, 82, 0
1, 230160, Note_on_c, 9, 82, 58
1, 230160, Note_on_c, 9, 42, 79
1, 230170, Note_on_c, 9, 42, 0
1, 230399, Note_on_c, 9, 82, 0
1, 230400, Note_on_c, 9, 82, 56
1, 230400, Note_on_c, 9, 42, 42
1, 230400, Note_on_c, 9, 36, 105
1, 230410, Note_on_c, 9, 42, 0
1, 230639, Note_on_c, 9, 82, 0
1, 230640, Note_on_c, 9, 82, 46
1, 230640, Note_on_c, 9, 42, 69
1, 230650, Note_on_c, 9, 42, 0
1, 230879, Note_on_c, 9, 36, 0
1, 230879, Note_on_c, 9, 82, 0
1, 230880, Note_on_c, 9, 40, 112
1, 230880, Note_on_c, 9, 39, 110
1, 230880, Note_on_c, 9, 82, 64
1, 230880, Note_on_c, 9, 42, 54
1, 230890, Note_on_c, 9, 42, 0
1, 231119, Note_on_c, 9, 40, 0
1, 231119, Note_on_c, 9, 39, 0
1, 231119, Note_on_c, 9, 82, 0
1, 231120, Note_on_c, 9, 82, 53
1, 231120, Note_on_c, 9, 42, 74
1, 231130, Note_on_c, 9, 42, 0
1, 231359, Note_on_c, 9, 82, 0
1, 231360, Note_on_c, 9, 82, 62
1, 231360, Note_on_c, 9, 42, 57
1, 231360, Note_on_c, 9, 36, 105
1, 231370, Note_on_c, 9, 42, 0
1, 231599, Note_on_c, 9, 82, 0
1, 231600, Note_on_c, 9, 82, 60
1, 231600, Note_on_c, 9, 42, 69
1, 231610, Note_on_c, 9, 42, 0
1, 231839, Note_on_c, 9, 36, 0
1, 231839, Note_on_c, 9, 82, 0
1, 231840, Note_on_c, 9, 40, 113
1, 231840, Note_on_c, 9, 39, 110
1, 231840, Note_on_c, 9, 82, 68
1, 231840, Note_on_c, 9, 42, 57
1, 231850, Note_on_c, 9, 42, 0
1, 232079, Note_on_c, 9, 40, 0
1, 232079, Note_on_c, 9, 39, 0
1, 232079, Note_on_c, 9, 82, 0
1, 232080, Note_on_c, 9, 82, 50
1, 232080, Note_on_c, 9, 42, 79
1, 232090, Note_on_c, 9, 42, 0
1, 232319, Note_on_c, 9, 82, 0
1, 232320, Note_on_c, 9, 82, 68
1, 232320, Note_on_c, 9, 42, 54
1, 232320, Note_on_c, 9, 36, 105
1, 232330, Note_on_c, 9, 42, 0
1, 232559, Note_on_c, 9, 82, 0
1, 232560, Note_on_c, 9, 82, 58
1, 232560, Note_on_c, 9, 42, 69
1, 232570, Note_on_c, 9, 42, 0
1, 232799, Note_on_c, 9, 36, 0
1, 232799, Note_on_c, 9, 82, 0
1, 232800, Note_on_c, 9, 40, 113
1, 232800, Note_on_c, 9, 39, 110
1, 232800, Note_on_c, 9, 82, 66
1, 232800, Note_on_c, 9, 42, 49
1, 232810, Note_on_c, 9, 42, 0
1, 233039, Note_on_c, 9, 40, 0
1, 233039, Note_on_c, 9, 39, 0
1, 233039, Note_on_c, 9, 82, 0
1, 233040, Note_on_c, 9, 82, 60
1, 233040, Note_on_c, 9, 42, 79
1, 233050, Note_on_c, 9, 42, 0
1, 233279, Note_on_c, 9, 82, 0
1, 233280, Note_on_c, 9, 82, 56
1, 233280, Note_on_c, 9, 42, 46
1, 233280, Note_on_c, 9, 36, 105
1, 233290, Note_on_c, 9, 42, 0
1, 233519, Note_on_c, 9, 82, 0
1, 233520, Note_on_c, 9, 82, 60
1, 233520, Note_on_c, 9, 42, 74
1, 233530, Note_on_c, 9, 42, 0
1, 233759, Note_on_c, 9, 36, 0
1, 233759, Note_on_c, 9, 82, 0
1, 233760, Note_on_c, 9, 40, 113
1, 233760, Note_on_c, 9, 39, 110
1, 233760, Note_on_c, 9, 82, 64
1, 233760, Note_on_c, 9, 42, 46
1, 233770, Note_on_c, 9, 42, 0
1, 233999, Note_on_c, 9, 40, 0
1, 233999, Note_on_c, 9, 39, 0
1, 233999, Note_on_c, 9, 82, 0
1, 234000, Note_on_c, 9, 46, 99
1, 234000, Note_on_c, 9, 82, 64
1, 234010, Note_on_c, 9, 46, 0
1, 234239, Note_on_c, 9, 82, 0
1, 234240, Note_on_c, 9, 82, 66
1, 234240, Note_on_c, 9, 42, 42
1, 234240, Note_on_c, 9, 36, 105
1, 234250, Note_on_c, 9, 42, 0
1, 234479, Note_on_c, 9, 82, 0
1, 234480, Note_on_c, 9, 82, 64
1, 234480, Note_on_c, 9, 42, 69
1, 234490, Note_on_c, 9, 42, 0
1, 234719, Note_on_c, 9, 36, 0
1, 234719, Note_on_c, 9, 82, 0
1, 234720, Note_on_c, 9, 40, 112
1, 234720, Note_on_c, 9, 39, 110
1, 234720, Note_on_c, 9, 82, 62
1, 234720, Note_on_c, 9, 42, 54
1, 234730, Note_on_c, 9, 42, 0
1, 234959, Note_on_c, 9, 40, 0
1, 234959, Note_on_c, 9, 39, 0
1, 234959, Note_on_c, 9, 82, 0
1, 234960, Note_on_c, 9, 82, 64
1, 234960, Note_on_c, 9, 42, 74
1, 234970, Note_on_c, 9, 42, 0
1, 235199, Note_on_c, 9, 82, 0
1, 235200, Note_on_c, 9, 82, 64
1, 235200, Note_on_c, 9, 42, 57
1, 235200, Note_on_c, 9, 36, 105
1, 235210, Note_on_c, 9, 42, 0
1, 235439, Note_on_c, 9, 82, 0
1, 235440, Note_on_c, 9, 82, 68
1, 235440, Note_on_c, 9, 42, 69
1, 235450, Note_on_c, 9, 42, 0
1, 235679, Note_on_c, 9, 36, 0
1, 235679, Note_on_c, 9, 82, 0
1, 235680, Note_on_c, 9, 40, 113
1, 235680, Note_on_c, 9, 39, 110
1, 235680, Note_on_c, 9, 82, 62
1, 235680, Note_on_c, 9, 42, 57
1, 235690, Note_on_c, 9, 42, 0
1, 235919, Note_on_c, 9, 40, 0
1, 235919, Note_on_c, 9, 39, 0
1, 235919, Note_on_c, 9, 82, 0
1, 235920, Note_on_c, 9, 82, 64
1, 235920, Note_on_c, 9, 42, 79
1, 235930, Note_on_c, 9, 42, 0
1, 236159, Note_on_c, 9, 82, 0
1, 236160, Note_on_c, 9, 82, 62
1, 236160, Note_on_c, 9, 42, 54
1, 236160, Note_on_c, 9, 36, 105
1, 236170, Note_on_c, 9, 42, 0
1, 236399, Note_on_c, 9, 82, 0
1, 236400, Note_on_c, 9, 82, 55
1, 236400, Note_on_c, 9, 42, 69
1, 236410, Note_on_c, 9, 42, 0
1, 236639, Note_on_c, 9, 36, 0
1, 236639, Note_on_c, 9, 82, 0
1, 236640, Note_on_c, 9, 40, 113
1, 236640, Note_on_c, 9, 39, 110
1, 236640, Note_on_c, 9, 82, 55
1, 236640, Note_on_c, 9, 42, 49
1, 236650, Note_on_c, 9, 42, 0
1, 236879, Note_on_c, 9, 40, 0
1, 236879, Note_on_c, 9, 39, 0
1, 236879, Note_on_c, 9, 82, 0
1, 236880, Note_on_c, 9, 82, 51
1, 236880, Note_on_c, 9, 42, 79
1, 236890, Note_on_c, 9, 42, 0
1, 237119, Note_on_c, 9, 82, 0
1, 237120, Note_on_c, 9, 82, 58
1, 237120, Note_on_c, 9, 42, 46
1, 237120, Note_on_c, 9, 36, 105
1, 237130, Note_on_c, 9, 42, 0
1, 237359, Note_on_c, 9, 82, 0
1, 237360, Note_on_c, 9, 82, 47
1, 237360, Note_on_c, 9, 42, 74
1, 237370, Note_on_c, 9, 42, 0
1, 237599, Note_on_c, 9, 36, 0
1, 237599, Note_on_c, 9, 82, 0
1, 237600, Note_on_c, 9, 40, 113
1, 237600, Note_on_c, 9, 39, 110
1, 237600, Note_on_c, 9, 82, 62
1, 237600, Note_on_c, 9, 42, 46
1, 237610, Note_on_c, 9, 42, 0
1, 237839, Note_on_c, 9, 40, 0
1, 237839, Note_on_c, 9, 39, 0
1, 237839, Note_on_c, 9, 82, 0
1, 237840, Note_on_c, 9, 82, 58
1, 237840, Note_on_c, 9, 42, 79
1, 237850, Note_on_c, 9, 42, 0
1, 238079, Note_on_c, 9, 82, 0
1, 238080, Note_on_c, 9, 82, 56
1, 238080, Note_on_c, 9, 42, 42
1, 238080, Note_on_c, 9, 36, 105
1, 238090, Note_on_c, 9, 42, 0
1, 238319, Note_on_c, 9, 82, 0
1, 238320, Note_on_c, 9, 82, 46
1, 238320, Note_on_c, 9, 42, 69
1, 238330, Note_on_c, 9, 42, 0
1, 238559, Note_on_c, 9, 36, 0
1, 238559, Note_on_c, 9, 82, 0
1, 238560, Note_on_c, 9, 40, 112
1, 238560, Note_on_c, 9, 39, 110
1, 238560, Note_on_c, 9, 82, 64
1, 238560, Note_on_c, 9, 42, 54
1, 238570, Note_on_c, 9, 42, 0
1, 238799, Note_on_c, 9, 40, 0
1, 238799, Note_on_c, 9, 39, 0
1, 238799, Note_on_c, 9, 82, 0
1, 238800, Note_on_c, 9, 82, 53
1, 238800, Note_on_c, 9, 42, 74
1, 238810, Note_on_c, 9, 42, 0
1, 239039, Note_on_c, 9, 82, 0
1, 239040, Note_on_c, 9, 82, 62
1, 239040, Note_on_c, 9, 42, 57
1, 239040, Note_on_c, 9, 36, 105
1, 239050, Note_on_c, 9, 42, 0
1, 239279, Note_on_c, 9, 82, 0
1, 239280, Note_on_c, 9, 82, 60
1, 239280, Note_on_c, 9, 42, 69
1, 239290, Note_on_c, 9, 42, 0
1, 239519, Note_on_c, 9, 36, 0
1, 239519, Note_on_c, 9, 82, 0
1, 239520, Note_on_c, 9, 40, 113
1, 239520, Note_on_c, 9, 39, 110
1, 239520, Note_on_c, 9, 82, 68
1, 239520, Note_on_c, 9, 42, 57
1, 239530, Note_on_c, 9, 42, 0
1, 239759, Note_on_c, 9, 40, 0
1, 239759, Note_on_c, 9, 39, 0
1, 239759, Note_on_c, 9, 82, 0
1, 239760, Note_on_c, 9, 82, 50
1, 239760, Note_on_c, 9, 42, 79
1, 239770, Note_on_c, 9, 42, 0
1, 239999, Note_on_c, 9, 82, 0
1, 240000, Note_on_c, 9, 82, 68
1, 240000, Note_on_c, 9, 42, 54
1, 240000, Note_on_c, 9, 36, 105
1, 240010, Note_on_c, 9, 42, 0
1, 240239, Note_on_c, 9, 82, 0
1, 240240, Note_on_c, 9, 82, 58
1, 240240, Note_on_c, 9, 42, 69
1, 240250, Note_on_c, 9, 42, 0
1, 240479, Note_on_c, 9, 36, 0
1, 240479, Note_on_c, 9, 82, 0
1, 240480, Note_on_c, 9, 40, 113
1, 240480, Note_on_c, 9, 39, 110
1, 240480, Note_on_c, 9, 82, 66
1, 240480, Note_on_c, 9, 42, 49
1, 240490, Note_on_c, 9, 42, 0
1, 240719, Note_on_c, 9, 40, 0
1, 240719, Note_on_c, 9, 39, 0
1, 240719, Note_on_c, 9, 82, 0
1, 240720, Note_on_c, 9, 82, 60
1, 240720, Note_on_c, 9, 42, 79
1, 240730, Note_on_c, 9, 42, 0
1, 240959, Note_on_c, 9, 82, 0
1, 240960, Note_on_c, 9, 82, 56
1, 240960, Note_on_c, 9, 42, 46
1, 240960, Note_on_c, 9, 36, 105
1, 240970, Note_on_c, 9, 42, 0
1, 241199, Note_on_c, 9, 82, 0
1, 241200, Note_on_c, 9, 82, 60
1, 241200, Note_on_c, 9, 42, 74
1, 241204, Note_on_c, 9, 42, 0
1, 241319, Note_on_c, 9, 82, 0
1, 241320, Note_on_c, 9, 45, 97
1, 241439, Note_on_c, 9, 36, 0
1, 241439, Note_on_c, 9, 45, 0
1, 241440, Note_on_c, 9, 40, 113
1, 241440, Note_on_c, 9, 39, 110
1, 241440, Note_on_c, 9, 82, 64
1, 241440, Note_on_c, 9, 42, 46
1, 241440, Note_on_c, 9, 43, 103
1, 241450, Note_on_c, 9, 42, 0
1, 241679, Note_on_c, 9, 40, 0
1, 241679, Note_on_c, 9, 39, 0
1, 241679, Note_on_c, 9, 82, 0
1, 241680, Note_on_c, 9, 46, 99
1, 241680, Note_on_c, 9, 82, 64
1, 241690, Note_on_c, 9, 46, 0
1, 241919, Note_on_c, 9, 43, 0
1, 241919, Note_on_c, 9, 82, 0
1, 241920, Note_on_c, 9, 82, 66
1, 241920, Note_on_c, 9, 42, 42
1, 241920, Note_on_c, 9, 36, 105
1, 241930, Note_on_c, 9, 42, 0
1, 242159, Note_on_c, 9, 82, 0
1, 242160, Note_on_c, 9, 82, 64
1, 242160, Note_on_c, 9, 42, 69
1, 242170, Note_on_c, 9, 42, 0
1, 242399, Note_on_c, 9, 36, 0
1, 242399, Note_on_c, 9, 82, 0
1, 242400, Note_on_c, 9, 40, 112
1, 242400, Note_on_c, 9, 39, 110
1, 242400, Note_on_c, 9, 82, 62
1, 242400, Note_on_c, 9, 42, 54
1, 242410, Note_on_c, 9, 42, 0
1, 242639, Note_on_c, 9, 40, 0
1, 242639, Note_on_c, 9, 39, 0
1, 242639, Note_on_c, 9, 82, 0
1, 242640, Note_on_c, 9, 82, 64
1, 242640, Note_on_c, 9, 42, 74
1, 242650, Note_on_c, 9, 42, 0
1, 242879, Note_on_c, 9, 82, 0
1, 242880, Note_on_c, 9, 82, 64
1, 242880, Note_on_c, 9, 42, 57
1, 242880, Note_on_c, 9, 36, 105
1, 242890, Note_on_c, 9, 42, 0
1, 243119, Note_on_c, 9, 82, 0
1, 243120, Note_on_c, 9, 82, 68
1, 243120, Note_on_c, 9, 42, 69
1, 243130, Note_on_c, 9, 42, 0
1, 243359, Note_on_c, 9, 36, 0
1, 243359, Note_on_c, 9, 82, 0
1, 243360, Note_on_c, 9, 40, 113
1, 243360, Note_on_c, 9, 39, 110
1, 243360, Note_on_c, 9, 82, 62
1, 243360, Note_on_c, 9, 42, 57
1, 243370, Note_on_c, 9, 42, 0
1, 243599, Note_on_c, 9, 40, 0
1, 243599, Note_on_c, 9, 39, 0
1, 243599, Note_on_c, 9, 82, 0
1, 243600, Note_on_c, 9, 82, 64
1, 243600, Note_on_c, 9, 42, 74
1, 243610, Note_on_c, 9, 42, 0
1, 243839, Note_on_c, 9, 82, 0
1, 243840, Note_on_c, 9, 82, 62
1, 243840, Note_on_c, 9, 42, 54
1, 243840, Note_on_c, 9, 36, 105
1, 243850, Note_on_c, 9, 42, 0
1, 244079, Note_on_c, 9, 82, 0
1, 244080, Note_on_c, 9, 82, 55
1, 244080, Note_on_c, 9, 42, 69
1, 244090, Note_on_c, 9, 42, 0
1, 244319, Note_on_c, 9, 36, 0
1, 244319, Note_on_c, 9, 82, 0
1, 244320, Note_on_c, 9, 40, 113
1, 244320, Note_on_c, 9, 39, 110
1, 244320, Note_on_c, 9, 82, 55
1, 244320, Note_on_c, 9, 42, 49
1, 244330, Note_on_c, 9, 42, 0
1, 244559, Note_on_c, 9, 40, 0
1, 244559, Note_on_c, 9, 39, 0
1, 244559, Note_on_c, 9, 82, 0
1, 244560, Note_on_c, 9, 82, 51
1, 244560, Note_on_c, 9, 42, 79
1, 244570, Note_on_c, 9, 42, 0
1, 244799, Note_on_c, 9, 82, 0
1, 244800, Note_on_c, 9, 82, 58
1, 244800, Note_on_c, 9, 42, 46
1, 244800, Note_on_c, 9, 36, 105
1, 244810, Note_on_c, 9, 42, 0
1, 245039, Note_on_c, 9, 82, 0
1, 245040, Note_on_c, 9, 82, 47
1, 245040, Note_on_c, 9, 42, 74
1, 245044, Note_on_c, 9, 42, 0
1, 245159, Note_on_c, 9, 82, 0
1, 245160, Note_on_c, 9, 45, 97
1, 245279, Note_on_c, 9, 36, 0
1, 245279, Note_on_c, 9, 45, 0
1, 245280, Note_on_c, 9, 40, 113
1, 245280, Note_on_c, 9, 39, 110
1, 245280, Note_on_c, 9, 82, 62
1, 245280, Note_on_c, 9, 42, 46
1, 245280, Note_on_c, 9, 43, 103
1, 245290, Note_on_c, 9, 42, 0
1, 245519, Note_on_c, 9, 40, 0
1, 245519, Note_on_c, 9, 39, 0
1, 245519, Note_on_c, 9, 82, 0
1, 245520, Note_on_c, 9, 82, 58
1, 245520, Note_on_c, 9, 42, 79
1, 245530, Note_on_c, 9, 42, 0
1, 245759, Note_on_c, 9, 43, 0
1, 245759, Note_on_c, 9, 82, 0
1, 245760, Note_on_c, 9, 82, 56
1, 245760, Note_on_c, 9, 42, 42
1, 245760, Note_on_c, 9, 36, 105
1, 245770, Note_on_c, 9, 42, 0
1, 245999, Note_on_c, 9, 82, 0
1, 246000, Note_on_c, 9, 82, 46
1, 246000, Note_on_c, 9, 42, 69
1, 246010, Note_on_c, 9, 42, 0
1, 246239, Note_on_c, 9, 36, 0
1, 246239, Note_on_c, 9, 82, 0
1, 246240, Note_on_c, 9, 40, 112
1, 246240, Note_on_c, 9, 39, 110
1, 246240, Note_on_c, 9, 82, 64
1, 246240, Note_on_c, 9, 42, 54
1, 246250, Note_on_c, 9, 42, 0
1, 246479, Note_on_c, 9, 40, 0
1, 246479, Note_on_c, 9, 39, 0
1, 246479, Note_on_c, 9, 82, 0
1, 246480, Note_on_c, 9, 82, 53
1, 246480, Note_on_c, 9, 42, 74
1, 246490, Note_on_c, 9, 42, 0
1, 246719, Note_on_c, 9, 82, 0
1, 246720, Note_on_c, 9, 82, 62
1, 246720, Note_on_c, 9, 42, 57
1, 246720, Note_on_c, 9, 36, 105
1, 246730, Note_on_c, 9, 42, 0
1, 246959, Note_on_c, 9, 82, 0
1, 246960, Note_on_c, 9, 82, 60
1, 246960, Note_on_c, 9, 42, 69
1, 246970, Note_on_c, 9, 42, 0
1, 247199, Note_on_c, 9, 36, 0
1, 247199, Note_on_c, 9, 82, 0
1, 247200, Note_on_c, 9, 40, 113
1, 247200, Note_on_c, 9, 39, 110
1, 247200, Note_on_c, 9, 82, 68
1, 247200, Note_on_c, 9, 42, 57
1, 247210, Note_on_c, 9, 42, 0
1, 247439, Note_on_c, 9, 40, 0
1, 247439, Note_on_c, 9, 39, 0
1, 247439, Note_on_c, 9, 82, 0
1, 247440, Note_on_c, 9, 82, 50
1, 247440, Note_on_c, 9, 42, 79
1, 247450, Note_on_c, 9, 42, 0
1, 247679, Note_on_c, 9, 82, 0
1, 247680, Note_on_c, 9, 82, 68
1, 247680, Note_on_c, 9, 42, 54
1, 247680, Note_on_c, 9, 36, 105
1, 247690, Note_on_c, 9, 42, 0
1, 247919, Note_on_c, 9, 82, 0
1, 247920, Note_on_c, 9, 82, 58
1, 247920, Note_on_c, 9, 42, 69
1, 247930, Note_on_c, 9, 42, 0
1, 248159, Note_on_c, 9, 36, 0
1, 248159, Note_on_c, 9, 82, 0
1, 248160, Note_on_c, 9, 40, 113
1, 248160, Note_on_c, 9, 39, 110
1, 248160, Note_on_c, 9, 82, 66
1, 248160, Note_on_c, 9, 42, 49
1, 248170, Note_on_c, 9, 42, 0
1, 248399, Note_on_c, 9, 40, 0
1, 248399, Note_on_c, 9, 39, 0
1, 248399, Note_on_c, 9, 82, 0
1, 248400, Note_on_c, 9, 82, 60
1, 248400, Note_on_c, 9, 42, 79
1, 248410, Note_on_c, 9, 42, 0
1, 248639, Note_on_c, 9, 82, 0
1, 248640, Note_on_c, 9, 82, 56
1, 248640, Note_on_c, 9, 42, 46
1, 248640, Note_on_c, 9, 36, 105
1, 248650, Note_on_c, 9, 42, 0
1, 248879, Note_on_c, 9, 82, 0
1, 248880, Note_on_c, 9, 82, 60
1, 248880, Note_on_c, 9, 42, 74
1, 248884, Note_on_c, 9, 42, 0
1, 248999, Note_on_c, 9, 82, 0
1, 249000, Note_on_c, 9, 45, 97
1, 249119, Note_on_c, 9, 36, 0
1, 249119, Note_on_c, 9, 45, 0
1, 249120, Note_on_c, 9, 40, 113
1, 249120, Note_on_c, 9, 39, 110
1, 249120, Note_on_c, 9, 82, 64
1, 249120, Note_on_c, 9, 42, 46
1, 249120, Note_on_c, 9, 43, 103
1, 249130, Note_on_c, 9, 42, 0
1, 249359, Note_on_c, 9, 40, 0
1, 249359, Note_on_c, 9, 39, 0
1, 249359, Note_on_c, 9, 82, 0
1, 249360, Note_on_c, 9, 46, 99
1, 249360, Note_on_c, 9, 82, 64
1, 249370, Note_on_c, 9, 46, 0
1, 249599, Note_on_c, 9, 43, 0
1, 249599, Note_on_c, 9, 82, 0
1, 249600, Note_on_c, 9, 82, 66
1, 249600, Note_on_c, 9, 42, 42
1, 249600, Note_on_c, 9, 36, 105
1, 249610, Note_on_c, 9, 42, 0
1, 249839, Note_on_c, 9, 82, 0
1, 249840, Note_on_c, 9, 82, 64
1, 249840, Note_on_c, 9, 42, 69
1, 249850, Note_on_c, 9, 42, 0
1, 250079, Note_on_c, 9, 36, 0
1, 250079, Note_on_c, 9, 82, 0
1, 250080, Note_on_c, 9, 40, 112
1, 250080, Note_on_c, 9, 39, 110
1, 250080, Note_on_c, 9, 82, 62
1, 250080, Note_on_c, 9, 42, 54
1, 250090, Note_on_c, 9, 42, 0
1, 250319, Note_on_c, 9, 40, 0
1, 250319, Note_on_c, 9, 39, 0
1, 250319, Note_on_c, 9, 82, 0
1, 250320, Note_on_c, 9, 82, 64
1, 250320, Note_on_c, 9, 42, 74
1, 250330, Note_on_c, 9, 42, 0
1, 250559, Note_on_c, 9, 82, 0
1, 250560, Note_on_c, 9, 82, 64
1, 250560, Note_on_c, 9, 42, 57
1, 250560, Note_on_c, 9, 36, 105
1, 250570, Note_on_c, 9, 42, 0
1, 250799, Note_on_c, 9, 82, 0
1, 250800, Note_on_c, 9, 82, 68
1, 250800, Note_on_c, 9, 42, 69
1, 250810, Note_on_c, 9, 42, 0
1, 251039, Note_on_c, 9, 36, 0
1, 251039, Note_on_c, 9, 82, 0
1, 251040, Note_on_c, 9, 40, 113
1, 251040, Note_on_c, 9, 39, 110
1, 251040, Note_on_c, 9, 82, 62
1, 251040, Note_on_c, 9, 42, 57
1, 251050, Note_on_c, 9, 42, 0
1, 251279, Note_on_c, 9, 40, 0
1, 251279, Note_on_c, 9, 39, 0
1, 251279, Note_on_c, 9, 82, 0
1, 251280, Note_on_c, 9, 82, 64
1, 251280, Note_on_c, 9, 42, 79
1, 251290, Note_on_c, 9, 42, 0
1, 251519, Note_on_c, 9, 82, 0
1, 251520, Note_on_c, 9, 82, 62
1, 251520, Note_on_c, 9, 42, 54
1, 251520, Note_on_c, 9, 36, 105
1, 251530, Note_on_c, 9, 42, 0
1, 251759, Note_on_c, 9, 82, 0
1, 251760, Note_on_c, 9, 82, 55
1, 251760, Note_on_c, 9, 42, 69
1, 251770, Note_on_c, 9, 42, 0
1, 251999, Note_on_c, 9, 36, 0
1, 251999, Note_on_c, 9, 82, 0
1, 252000, Note_on_c, 9, 40, 113
1, 252000, Note_on_c, 9, 39, 110
1, 252000, Note_on_c, 9, 82, 55
1, 252000, Note_on_c, 9, 42, 49
1, 252010, Note_on_c, 9, 42, 0
1, 252239, Note_on_c, 9, 40, 0
1, 252239, Note_on_c, 9, 39, 0
1, 252239, Note_on_c, 9, 82, 0
1, 252240, Note_on_c, 9, 82, 51
1, 252240, Note_on_c, 9, 42, 79
1, 252250, Note_on_c, 9, 42, 0
1, 252479, Note_on_c, 9, 82, 0
1, 252480, Note_on_c, 9, 82, 58
1, 252480, Note_on_c, 9, 42, 46
1, 252480, Note_on_c, 9, 36, 105
1, 252490, Note_on_c, 9, 42, 0
1, 252719, Note_on_c, 9, 82, 0
1, 252720, Note_on_c, 9, 82, 47
1, 252720, Note_on_c, 9, 42, 74
1, 252730, Note_on_c, 9, 42, 0
1, 252959, Note_on_c, 9, 36, 0
1, 252959, Note_on_c, 9, 82, 0
1, 252960, Note_on_c, 9, 40, 113
1, 252960, Note_on_c, 9, 39, 110
1, 252960, Note_on_c, 9, 82, 62
1, 252960, Note_on_c, 9, 42, 46
1, 252970, Note_on_c, 9, 42, 0
1, 253199, Note_on_c, 9, 40, 0
1, 253199, Note_on_c, 9, 39, 0
1, 253199, Note_on_c, 9, 82, 0
1, 253200, Note_on_c, 9, 82, 58
1, 253200, Note_on_c, 9, 42, 79
1, 253210, Note_on_c, 9, 42, 0
1, 253439, Note_on_c, 9, 82, 0
1, 253440, Note_on_c, 9, 82, 56
1, 253440, Note_on_c, 9, 42, 42
1, 253440, Note_on_c, 9, 36, 105
1, 253450, Note_on_c, 9, 42, 0
1, 253679, Note_on_c, 9, 82, 0
1, 253680, Note_on_c, 9, 82, 46
1, 253680, Note_on_c, 9, 42, 69
1, 253690, Note_on_c, 9, 42, 0
1, 253919, Note_on_c, 9, 36, 0
1, 253919, Note_on_c, 9, 82, 0
1, 253920, Note_on_c, 9, 40, 112
1, 253920, Note_on_c, 9, 39, 110
1, 253920, Note_on_c, 9, 82, 64
1, 253920, Note_on_c, 9, 42, 54
1, 253930, Note_on_c, 9, 42, 0
1, 254159, Note_on_c, 9, 40, 0
1, 254159, Note_on_c, 9, 39, 0
1, 254159, Note_on_c, 9, 82, 0
1, 254160, Note_on_c, 9, 82, 53
1, 254160, Note_on_c, 9, 42, 74
1, 254170, Note_on_c, 9, 42, 0
1, 254399, Note_on_c, 9, 82, 0
1, 254400, Note_on_c, 9, 82, 62
1, 254400, Note_on_c, 9, 42, 57
1, 254400, Note_on_c, 9, 36, 105
1, 254410, Note_on_c, 9, 42, 0
1, 254639, Note_on_c, 9, 82, 0
1, 254640, Note_on_c, 9, 82, 60
1, 254640, Note_on_c, 9, 42, 69
1, 254650, Note_on_c, 9, 42, 0
1, 254879, Note_on_c, 9, 36, 0
1, 254879, Note_on_c, 9, 82, 0
1, 254880, Note_on_c, 9, 40, 113
1, 254880, Note_on_c, 9, 39, 110
1, 254880, Note_on_c, 9, 82, 68
1, 254880, Note_on_c, 9, 42, 57
1, 254890, Note_on_c, 9, 42, 0
1, 255119, Note_on_c, 9, 40, 0
1, 255119, Note_on_c, 9, 39, 0
1, 255119, Note_on_c, 9, 82, 0
1, 255120, Note_on_c, 9, 82, 50
1, 255120, Note_on_c, 9, 42, 79
1, 255130, Note_on_c, 9, 42, 0
1, 255359, Note_on_c, 9, 82, 0
1, 255360, Note_on_c, 9, 82, 68
1, 255360, Note_on_c, 9, 42, 54
1, 255360, Note_on_c, 9, 36, 105
1, 255370, Note_on_c, 9, 42, 0
1, 255599, Note_on_c, 9, 82, 0
1, 255600, Note_on_c, 9, 82, 58
1, 255600, Note_on_c, 9, 42, 69
1, 255610, Note_on_c, 9, 42, 0
1, 255839, Note_on_c, 9, 36, 0
1, 255839, Note_on_c, 9, 82, 0
1, 255840, Note_on_c, 9, 40, 113
1, 255840, Note_on_c, 9, 39, 110
1, 255840, Note_on_c, 9, 82, 66
1, 255840, Note_on_c, 9, 42, 49
1, 255850, Note_on_c, 9, 42, 0
1, 256079, Note_on_c, 9, 40, 0
1, 256079, Note_on_c, 9, 39, 0
1, 256079, Note_on_c, 9, 82, 0
1, 256080, Note_on_c, 9, 82, 60
1, 256080, Note_on_c, 9, 42, 79
1, 256090, Note_on_c, 9, 42, 0
1, 256319, Note_on_c, 9, 82, 0
1, 256320, Note_on_c, 9, 82, 56
1, 256320, Note_on_c, 9, 42, 46
1, 256320, Note_on_c, 9, 36, 105
1, 256330, Note_on_c, 9, 42, 0
1, 256559, Note_on_c, 9, 82, 0
1, 256560, Note_on_c, 9, 82, 60
1, 256560, Note_on_c, 9, 42, 74
1, 256570, Note_on_c, 9, 42, 0
1, 256799, Note_on_c, 9, 36, 0
1, 256799, Note_on_c, 9, 82, 0
1, 256800, Note_on_c, 9, 40, 113
1, 256800, Note_on_c, 9, 39, 110
1, 256800, Note_on_c, 9, 82, 64
1, 256800, Note_on_c, 9, 42, 46
1, 256810, Note_on_c, 9, 42, 0
1, 257039, Note_on_c, 9, 40, 0
1, 257039, Note_on_c, 9, 39, 0
1, 257039, Note_on_c, 9, 82, 0
1, 257040, Note_on_c, 9, 82, 64
1, 257040, Note_on_c, 9, 42, 79
1, 257050, Note_on_c, 9, 42, 0
1, 257279, Note_on_c, 9, 82, 0
1, 257280, Note_on_c, 9, 82, 66
1, 257280, Note_on_c, 9, 42, 42
1, 257280, Note_on_c, 9, 36, 105
1, 257290, Note_on_c, 9, 42, 0
1, 257519, Note_on_c, 9, 82, 0
1, 257520, Note_on_c, 9, 82, 64
1, 257520, Note_on_c, 9, 42, 69
1, 257530, Note_on_c, 9, 42, 0
1, 257759, Note_on_c, 9, 36, 0
1, 257759, Note_on_c, 9, 82, 0
1, 257760, Note_on_c, 9, 40, 112
1, 257760, Note_on_c, 9, 39, 110
1, 257760, Note_on_c, 9, 82, 62
1, 257760, Note_on_c, 9, 42, 54
1, 257770, Note_on_c, 9, 42, 0
1, 257999, Note_on_c, 9, 40, 0
1, 257999, Note_on_c, 9, 39, 0
1, 257999, Note_on_c, 9, 82, 0
1, 258000, Note_on_c, 9, 82, 64
1, 258000, Note_on_c, 9, 42, 74
1, 258010, Note_on_c, 9, 42, 0
1, 258239, Note_on_c, 9, 82, 0
1, 258240, Note_on_c, 9, 82, 64
1, 258240, Note_on_c, 9, 42, 57
1, 258240, Note_on_c, 9, 36, 105
1, 258250, Note_on_c, 9, 42, 0
1, 258479, Note_on_c, 9, 82, 0
1, 258480, Note_on_c, 9, 82, 68
1, 258480, Note_on_c, 9, 42, 69
1, 258490, Note_on_c, 9, 42, 0
1, 258719, Note_on_c, 9, 36, 0
1, 258719, Note_on_c, 9, 82, 0
1, 258720, Note_on_c, 9, 40, 113
1, 258720, Note_on_c, 9, 39, 110
1, 258720, Note_on_c, 9, 82, 62
1, 258720, Note_on_c, 9, 42, 57
1, 258730, Note_on_c, 9, 42, 0
1, 258959, Note_on_c, 9, 40, 0
1, 258959, Note_on_c, 9, 39, 0
1, 258959, Note_on_c, 9, 82, 0
1, 258960, Note_on_c, 9, 82, 64
1, 258960, Note_on_c, 9, 42, 79
1, 258970, Note_on_c, 9, 42, 0
1, 259199, Note_on_c, 9, 82, 0
1, 259200, Note_on_c, 9, 82, 62
1, 259200, Note_on_c, 9, 42, 54
1, 259200, Note_on_c, 9, 36, 105
1, 259210, Note_on_c, 9, 42, 0
1, 259439, Note_on_c, 9, 82, 0
1, 259440, Note_on_c, 9, 82, 55
1, 259440, Note_on_c, 9, 42, 69
1, 259450, Note_on_c, 9, 42, 0
1, 259679, Note_on_c, 9, 36, 0
1, 259679, Note_on_c, 9, 82, 0
1, 259680, Note_on_c, 9, 40, 113
1, 259680, Note_on_c, 9, 39, 110
1, 259680, Note_on_c, 9, 82, 55
1, 259680, Note_on_c, 9, 42, 49
1, 259690, Note_on_c, 9, 42, 0
1, 259919, Note_on_c, 9, 40, 0
1, 259919, Note_on_c, 9, 39, 0
1, 259919, Note_on_c, 9, 82, 0
1, 259920, Note_on_c, 9, 82, 51
1, 259920, Note_on_c, 9, 42, 79
1, 259930, Note_on_c, 9, 42, 0
1, 260159, Note_on_c, 9, 82, 0
1, 260160, Note_on_c, 9, 82, 58
1, 260160, Note_on_c, 9, 42, 46
1, 260160, Note_on_c, 9, 36, 105
1, 260170, Note_on_c, 9, 42, 0
1, 260399, Note_on_c, 9, 82, 0
1, 260400, Note_on_c, 9, 82, 47
1, 260400, Note_on_c, 9, 42, 74
1, 260404, Note_on_c, 9, 42, 0
1, 260519, Note_on_c, 9, 82, 0
1, 260520, Note_on_c, 9, 45, 97
1, 260639, Note_on_c, 9, 36, 0
1, 260639, Note_on_c, 9, 45, 0
1, 260640, Note_on_c, 9, 40, 113
1, 260640, Note_on_c, 9, 39, 110
1, 260640, Note_on_c, 9, 82, 62
1, 260640, Note_on_c, 9, 42, 46
1, 260640, Note_on_c, 9, 43, 103
1, 260650, Note_on_c, 9, 42, 0
1, 260879, Note_on_c, 9, 40, 0
1, 260879, Note_on_c, 9, 39, 0
1, 260879, Note_on_c, 9, 82, 0
1, 260880, Note_on_c, 9, 46, 99
1, 260880, Note_on_c, 9, 82, 58
1, 260890, Note_on_c, 9, 46, 0
1, 261119, Note_on_c, 9, 43, 0
1, 261119, Note_on_c, 9, 82, 0
1, 261120, Note_on_c, 9, 82, 56
1, 261120, Note_on_c, 9, 42, 42
1, 261120, Note_on_c, 9, 36, 105
1, 261130, Note_on_c, 9, 42, 0
1, 261359, Note_on_c, 9, 82, 0
1, 261360, Note_on_c, 9, 82, 46
1, 261360, Note_on_c, 9, 42, 69
1, 261370, Note_on_c, 9, 42, 0
1, 261599, Note_on_c, 9, 36, 0
1, 261599, Note_on_c, 9, 82, 0
1, 261600, Note_on_c, 9, 40, 112
1, 261600, Note_on_c, 9, 39, 110
1, 261600, Note_on_c, 9, 82, 64
1, 261600, Note_on_c, 9, 42, 54
1, 261610, Note_on_c, 9, 42, 0
1, 261839, Note_on_c, 9, 40, 0
1, 261839, Note_on_c, 9, 39, 0
1, 261839, Note_on_c, 9, 82, 0
1, 261840, Note_on_c, 9, 82, 53
1, 261840, Note_on_c, 9, 42, 74
1, 261850, Note_on_c, 9, 42, 0
1, 262079, Note_on_c, 9, 82, 0
1, 262080, Note_on_c, 9, 82, 62
1, 262080, Note_on_c, 9, 42, 57
1, 262080, Note_on_c, 9, 36, 105
1, 262090, Note_on_c, 9, 42, 0
1, 262319, Note_on_c, 9, 82, 0
1, 262320, Note_on_c, 9, 82, 60
1, 262320, Note_on_c, 9, 42, 69
1, 262330, Note_on_c, 9, 42, 0
1, 262559, Note_on_c, 9, 36, 0
1, 262559, Note_on_c, 9, 82, 0
1, 262560, Note_on_c, 9, 40, 113
1, 262560, Note_on_c, 9, 39, 110
1, 262560, Note_on_c, 9, 82, 68
1, 262560, Note_on_c, 9, 42, 57
1, 262570, Note_on_c, 9, 42, 0
1, 262799, Note_on_c, 9, 40, 0
1, 262799, Note_on_c, 9, 39, 0
1, 262799, Note_on_c, 9, 82, 0
1, 262800, Note_on_c, 9, 82, 50
1, 262800, Note_on_c, 9, 42, 74
1, 262810, Note_on_c, 9, 42, 0
1, 263039, Note_on_c, 9, 82, 0
1, 263040, Note_on_c, 9, 82, 68
1, 263040, Note_on_c, 9, 42, 59
1, 263040, Note_on_c, 9, 36, 105
1, 263050, Note_on_c, 9, 42, 0
1, 263279, Note_on_c, 9, 82, 0
1, 263280, Note_on_c, 9, 82, 58
1, 263280, Note_on_c, 9, 42, 74
1, 263290, Note_on_c, 9, 42, 0
1, 263519, Note_on_c, 9, 36, 0
1, 263519, Note_on_c, 9, 82, 0
1, 263520, Note_on_c, 9, 40, 113
1, 263520, Note_on_c, 9, 39, 110
1, 263520, Note_on_c, 9, 82, 66
1, 263520, Note_on_c, 9, 42, 54
1, 263530, Note_on_c, 9, 42, 0
1, 263759, Note_on_c, 9, 40, 0
1, 263759, Note_on_c, 9, 39, 0
1, 263759, Note_on_c, 9, 82, 0
1, 263760, Note_on_c, 9, 82, 60
1, 263760, Note_on_c, 9, 42, 84
1, 263770, Note_on_c, 9, 42, 0
1, 263999, Note_on_c, 9, 82, 0
1, 264000, Note_on_c, 9, 82, 56
1, 264000, Note_on_c, 9, 42, 51
1, 264000, Note_on_c, 9, 36, 105
1, 264010, Note_on_c, 9, 42, 0
1, 264239, Note_on_c, 9, 82, 0
1, 264240, Note_on_c, 9, 82, 60
1, 264240, Note_on_c, 9, 42, 79
1, 264250, Note_on_c, 9, 42, 0
1, 264479, Note_on_c, 9, 36, 0
1, 264479, Note_on_c, 9, 82, 0
1, 264480, Note_on_c, 9, 40, 113
1, 264480, Note_on_c, 9, 39, 110
1, 264480, Note_on_c, 9, 82, 64
1, 264480, Note_on_c, 9, 42, 51
1, 264490, Note_on_c, 9, 42, 0
1, 264719, Note_on_c, 9, 40, 0
1, 264719, Note_on_c, 9, 39, 0
1, 264719, Note_on_c, 9, 82, 0
1, 264720, Note_on_c, 9, 46, 104
1, 264720, Note_on_c, 9, 82, 64
1, 264730, Note_on_c, 9, 46, 0
1, 264959, Note_on_c, 9, 82, 0
1, 264960, Note_on_c, 9, 82, 68
1, 264960, Note_on_c, 9, 42, 59
1, 264960, Note_on_c, 9, 36, 105
1, 264970, Note_on_c, 9, 42, 0
1, 265199, Note_on_c, 9, 82, 0
1, 265200, Note_on_c, 9, 82, 58
1, 265200, Note_on_c, 9, 42, 74
1, 265210, Note_on_c, 9, 42, 0
1, 265439, Note_on_c, 9, 36, 0
1, 265439, Note_on_c, 9, 82, 0
1, 265440, Note_on_c, 9, 40, 113
1, 265440, Note_on_c, 9, 39, 110
1, 265440, Note_on_c, 9, 82, 66
1, 265440, Note_on_c, 9, 42, 54
1, 265450, Note_on_c, 9, 42, 0
1, 265679, Note_on_c, 9, 40, 0
1, 265679, Note_on_c, 9, 39, 0
1, 265679, Note_on_c, 9, 82, 0
1, 265680, Note_on_c, 9, 82, 60
1, 265680, Note_on_c, 9, 42, 84
1, 265690, Note_on_c, 9, 42, 0
1, 265919, Note_on_c, 9, 82, 0
1, 265920, Note_on_c, 9, 82, 56
1, 265920, Note_on_c, 9, 42, 51
1, 265920, Note_on_c, 9, 36, 105
1, 265930, Note_on_c, 9, 42, 0
1, 266159, Note_on_c, 9, 82, 0
1, 266160, Note_on_c, 9, 82, 60
1, 266160, Note_on_c, 9, 42, 79
1, 266170, Note_on_c, 9, 42, 0
1, 266399, Note_on_c, 9, 36, 0
1, 266399, Note_on_c, 9, 82, 0
1, 266400, Note_on_c, 9, 40, 113
1, 266400, Note_on_c, 9, 39, 110
1, 266400, Note_on_c, 9, 82, 64
1, 266400, Note_on_c, 9, 42, 51
1, 266410, Note_on_c, 9, 42, 0
1, 266639, Note_on_c, 9, 40, 0
1, 266639, Note_on_c, 9, 39, 0
1, 266639, Note_on_c, 9, 82, 0
1, 266640, Note_on_c, 9, 82, 64
1, 266640, Note_on_c, 9, 42, 84
1, 266650, Note_on_c, 9, 42, 0
1, 266879, Note_on_c, 9, 82, 0
1, 266880, Note_on_c, 9, 82, 65
1, 266880, Note_on_c, 9, 42, 59
1, 266880, Note_on_c, 9, 36, 105
1, 266890, Note_on_c, 9, 42, 0
1, 267119, Note_on_c, 9, 82, 0
1, 267120, Note_on_c, 9, 82, 43
1, 267120, Note_on_c, 9, 42, 74
1, 267130, Note_on_c, 9, 42, 0
1, 267359, Note_on_c, 9, 36, 0
1, 267359, Note_on_c, 9, 82, 0
1, 267360, Note_on_c, 9, 40, 113
1, 267360, Note_on_c, 9, 39, 110
1, 267360, Note_on_c, 9, 82, 67
1, 267360, Note_on_c, 9, 42, 54
1, 267370, Note_on_c, 9, 42, 0
1, 267599, Note_on_c, 9, 40, 0
1, 267599, Note_on_c, 9, 39, 0
1, 267599, Note_on_c, 9, 82, 0
1, 267600, Note_on_c, 9, 82, 60
1, 267600, Note_on_c, 9, 42, 84
1, 267604, Note_on_c, 9, 42, 0
1, 267719, Note_on_c, 9, 82, 0
1, 267720, Note_on_c, 9, 82, 65
1, 267839, Note_on_c, 9, 82, 0
1, 267840, Note_on_c, 9, 82, 65
1, 267840, Note_on_c, 9, 42, 51
1, 267840, Note_on_c, 9, 36, 105
1, 267850, Note_on_c, 9, 42, 0
1, 268079, Note_on_c, 9, 82, 0
1, 268080, Note_on_c, 9, 82, 65
1, 268080, Note_on_c, 9, 42, 79
1, 268084, Note_on_c, 9, 42, 0
1, 268199, Note_on_c, 9, 82, 0
1, 268200, Note_on_c, 9, 82, 70
1, 268319, Note_on_c, 9, 36, 0
1, 268319, Note_on_c, 9, 82, 0
1, 268320, Note_on_c, 9, 40, 71
1, 268320, Note_on_c, 9, 39, 78
1, 268320, Note_on_c, 9, 82, 77
1, 268320, Note_on_c, 9, 42, 51
1, 268330, Note_on_c, 9, 42, 0
1, 268559, Note_on_c, 9, 40, 0
1, 268559, Note_on_c, 9, 39, 0
1, 268559, Note_on_c, 9, 82, 0
1, 268560, Note_on_c, 9, 82, 50
1, 268560, Note_on_c, 9, 42, 84
1, 268564, Note_on_c, 9, 42, 0
1, 268679, Note_on_c, 9, 82, 0
1, 268680, Note_on_c, 9, 82, 60
1, 268799, Note_on_c, 9, 82, 0
1, 268800, Note_on_c, 9, 82, 16
1, 268800, Note_on_c, 9, 42, 18
1, 268800, Note_on_c, 9, 36, 39
1, 268810, Note_on_c, 9, 42, 0
1, 269039, Note_on_c, 9, 82, 0
1, 269040, Note_on_c, 9, 82, 8
1, 269040, Note_on_c, 9, 42, 10
1, 269050, Note_on_c, 9, 42, 0
1, 269279, Note_on_c, 9, 36, 0
1, 269279, Note_on_c, 9, 82, 0
1, 269280, Note_on_c, 9, 40, 23
1, 269280, Note_on_c, 9, 39, 62
1, 269280, Note_on_c, 9, 82, 6
1, 269280, Note_on_c, 9, 42, 6
1, 269290, Note_on_c, 9, 42, 0
1, 269519, Note_on_c, 9, 40, 0
1, 269519, Note_on_c, 9, 39, 0
1, 269519, Note_on_c, 9, 82, 0
1, 269520, Note_on_c, 9, 82, 6
1, 269520, Note_on_c, 9, 42, 2
1, 269530, Note_on_c, 9, 42, 0
1, 269759, Note_on_c, 9, 82, 0
1, 269760, Note_on_c, 9, 82, 6
1, 269760, Note_on_c, 9, 42, 1
1, 269760, Note_on_c, 9, 36, 27
1, 269770, Note_on_c, 9, 42, 0
1, 269999, Note_on_c, 9, 82, 0
1, 270000, Note_on_c, 9, 82, 6
1, 270000, Note_on_c, 9, 42, 1
1, 270010, Note_on_c, 9, 42, 0
1, 270239, Note_on_c, 9, 36, 0
1, 270239, Note_on_c, 9, 82, 0
1, 270240, Note_on_c, 9, 40, 15
1, 270240, Note_on_c, 9, 39, 46
1, 270240, Note_on_c, 9, 82, 6
1, 270240, Note_on_c, 9, 42, 1
1, 270250, Note_on_c, 9, 42, 0
1, 270479, Note_on_c, 9, 40, 0
1, 270479, Note_on_c, 9, 39, 0
1, 270479, Note_on_c, 9, 82, 0
1, 270480, Note_on_c, 9, 82, 6
1, 270480, Note_on_c, 9, 42, 1
1, 270490, Note_on_c, 9, 42, 0
1, 270719, Note_on_c, 9, 82, 0
1, 270720, End_track
0, 0, End_of_file
