0, 0, Header, 1, 1, 480
1, 0, Start_track
1, 0, Title_t, "Drumset"
1, 0, Time_signature, 4, 2, 24, 8
1, 0, Key_signature, 0, "major"
1, 0, Tempo, 495868
1, 0, Control_c, 9, 121, 0
1, 0, Program_c, 9, 0
1, 0, Control_c, 9, 7, 100
1, 0, Control_c, 9, 10, 64
1, 0, Control_c, 9, 91, 0
1, 0, Control_c, 9, 93, 0
1, 0, MIDI_port, 0
1, 1650, Note_on_c, 9, 51, 36
1, 1650, Note_on_c, 9, 51, 0
1, 1740, Note_on_c, 9, 51, 44
1, 1741, Note_on_c, 9, 51, 0
1, 1800, Note_on_c, 9, 51, 43
1, 1801, Note_on_c, 9, 51, 0
1, 1860, Note_on_c, 9, 51, 56
1, 1861, Note_on_c, 9, 51, 0
1, 1920, Note_on_c, 9, 51, 51
1, 1922, Note_on_c, 9, 51, 0
1, 2000, Note_on_c, 9, 51, 58
1, 2000, Note_on_c, 9, 51, 0
1, 2060, Note_on_c, 9, 51, 55
1, 2061, Note_on_c, 9, 51, 0
1, 2120, Note_on_c, 9, 51, 60
1, 2120, Note_on_c, 9, 51, 0
1, 2180, Note_on_c, 9, 51, 55
1, 2181, Note_on_c, 9, 51, 0
1, 2240, Note_on_c, 9, 51, 58
1, 2240, Note_on_c, 9, 51, 0
1, 2280, Note_on_c, 9, 51, 54
1, 2281, Note_on_c, 9, 51, 0
1, 2340, Note_on_c, 9, 51, 60
1, 2341, Note_on_c, 9, 51, 0
1, 2400, Note_on_c, 9, 51, 58
1, 2401, Note_on_c, 9, 51, 0
1, 2460, Note_on_c, 9, 51, 60
1, 2461, Note_on_c, 9, 51, 0
1, 2505, Note_on_c, 9, 51, 61
1, 2505, Note_on_c, 9, 51, 0
1, 2520, Note_on_c, 9, 51, 62
1, 2521, Note_on_c, 9, 51, 0
1, 2600, Note_on_c, 9, 51, 64
1, 2600, Note_on_c, 9, 51, 0
1, 2620, Note_on_c, 9, 51, 60
1, 2620, Note_on_c, 9, 51, 0
1, 2685, Note_on_c, 9, 51, 61
1, 2685, Note_on_c, 9, 51, 0
1, 2730, Note_on_c, 9, 51, 61
1, 2730, Note_on_c, 9, 51, 0
1, 2760, Note_on_c, 9, 51, 61
1, 2761, Note_on_c, 9, 51, 0
1, 2835, Note_on_c, 9, 51, 63
1, 2836, Note_on_c, 9, 51, 0
1, 2880, Note_on_c, 9, 51, 66
1, 2880, Note_on_c, 9, 51, 0
1, 2920, Note_on_c, 9, 51, 71
1, 2920, Note_on_c, 9, 51, 0
1, 2970, Note_on_c, 9, 51, 75
1, 2970, Note_on_c, 9, 51, 0
1, 3000, Note_on_c, 9, 51, 76
1, 3001, Note_on_c, 9, 51, 0
1, 3060, Note_on_c, 9, 51, 78
1, 3061, Note_on_c, 9, 51, 0
1, 3120, Note_on_c, 9, 51, 80
1, 3121, Note_on_c, 9, 51, 0
1, 3168, Note_on_c, 9, 51, 82
1, 3169, Note_on_c, 9, 51, 0
1, 3216, Note_on_c, 9, 51, 84
1, 3217, Note_on_c, 9, 51, 0
1, 3264, Note_on_c, 9, 51, 88
1, 3265, Note_on_c, 9, 51, 0
1, 3312, Note_on_c, 9, 51, 93
1, 3313, Note_on_c, 9, 51, 0
1, 3360, Note_on_c, 9, 51, 100
1, 3360, Note_on_c, 9, 55, 100
1, 3360, Note_on_c, 9, 35, 99
1, 3382, Note_on_c, 9, 51, 0
1, 3382, Note_on_c, 9, 55, 0
1, 3599, Note_on_c, 9, 35, 0
1, 3600, Note_on_c, 9, 35, 95
1, 3839, Note_on_c, 9, 35, 0
1, 3840, Note_on_c, 9, 80, 93
1, 3840, Note_on_c, 9, 42, 57
1, 3850, Note_on_c, 9, 42, 0
1, 4079, Note_on_c, 9, 80, 0
1, 4080, Note_on_c, 9, 42, 59
1, 4080, Note_on_c, 9, 35, 93
1, 4081, Note_on_c, 9, 42, 0
1, 4140, Note_on_c, 9, 42, 42
1, 4141, Note_on_c, 9, 42, 0
1, 4200, Note_on_c, 9, 42, 57
1, 4201, Note_on_c, 9, 42, 0
1, 4260, Note_on_c, 9, 42, 47
1, 4261, Note_on_c, 9, 42, 0
1, 4319, Note_on_c, 9, 35, 0
1, 4320, Note_on_c, 9, 42, 65
1, 4320, Note_on_c, 9, 35, 100
1, 4324, Note_on_c, 9, 42, 0
1, 4440, Note_on_c, 9, 42, 44
1, 4444, Note_on_c, 9, 42, 0
1, 4560, Note_on_c, 9, 42, 57
1, 4564, Note_on_c, 9, 42, 0
1, 4680, Note_on_c, 9, 42, 43
1, 4684, Note_on_c, 9, 42, 0
1, 4799, Note_on_c, 9, 35, 0
1, 4800, Note_on_c, 9, 80, 101
1, 4800, Note_on_c, 9, 42, 60
1, 4804, Note_on_c, 9, 42, 0
1, 4919, Note_on_c, 9, 80, 0
1, 4920, Note_on_c, 9, 42, 40
1, 4924, Note_on_c, 9, 42, 0
1, 5040, Note_on_c, 9, 42, 61
1, 5041, Note_on_c, 9, 42, 0
1, 5100, Note_on_c, 9, 54, 17
1, 5129, Note_on_c, 9, 54, 0
1, 5130, Note_on_c, 9, 54, 25
1, 5130, Note_on_c, 9, 55, 77
1, 5130, Note_on_c, 9, 55, 0
1, 5159, Note_on_c, 9, 54, 0
1, 5184, Note_on_c, 9, 54, 28
1, 5207, Note_on_c, 9, 54, 0
1, 5208, Note_on_c, 9, 54, 33
1, 5231, Note_on_c, 9, 54, 0
1, 5232, Note_on_c, 9, 54, 34
1, 5255, Note_on_c, 9, 54, 0
1, 5256, Note_on_c, 9, 54, 38
1, 5279, Note_on_c, 9, 54, 0
1, 5280, Note_on_c, 9, 54, 45
1, 5280, Note_on_c, 9, 55, 80
1, 5280, Note_on_c, 9, 35, 96
1, 5283, Note_on_c, 9, 55, 0
1, 5369, Note_on_c, 9, 54, 0
1, 5370, Note_on_c, 9, 42, 61
1, 5370, Note_on_c, 9, 42, 0
1, 5459, Note_on_c, 9, 35, 0
1, 5460, Note_on_c, 9, 42, 39
1, 5460, Note_on_c, 9, 35, 91
1, 5461, Note_on_c, 9, 42, 0
1, 5519, Note_on_c, 9, 35, 0
1, 5565, Note_on_c, 9, 42, 57
1, 5565, Note_on_c, 9, 42, 0
1, 5640, Note_on_c, 9, 80, 101
1, 5640, Note_on_c, 9, 42, 55
1, 5644, Note_on_c, 9, 42, 0
1, 5759, Note_on_c, 9, 80, 0
1, 5760, Note_on_c, 9, 42, 63
1, 5763, Note_on_c, 9, 42, 0
1, 5850, Note_on_c, 9, 42, 66
1, 5850, Note_on_c, 9, 42, 0
1, 5850, Note_on_c, 9, 35, 86
1, 5879, Note_on_c, 9, 35, 0
1, 5910, Note_on_c, 9, 42, 55
1, 5910, Note_on_c, 9, 42, 0
1, 5940, Note_on_c, 9, 42, 56
1, 5941, Note_on_c, 9, 42, 0
1, 6000, Note_on_c, 9, 42, 61
1, 6000, Note_on_c, 9, 42, 0
1, 6040, Note_on_c, 9, 42, 61
1, 6042, Note_on_c, 9, 42, 0
1, 6060, Note_on_c, 9, 35, 92
1, 6150, Note_on_c, 9, 42, 55
1, 6153, Note_on_c, 9, 42, 0
1, 6239, Note_on_c, 9, 35, 0
1, 6240, Note_on_c, 9, 42, 56
1, 6243, Note_on_c, 9, 42, 0
1, 6330, Note_on_c, 9, 42, 56
1, 6330, Note_on_c, 9, 42, 0
1, 6420, Note_on_c, 9, 46, 78
1, 6420, Note_on_c, 9, 80, 97
1, 6421, Note_on_c, 9, 46, 0
1, 6479, Note_on_c, 9, 80, 0
1, 6630, Note_on_c, 9, 55, 73
1, 6633, Note_on_c, 9, 55, 0
1, 6720, Note_on_c, 9, 55, 70
1, 6723, Note_on_c, 9, 55, 0
1, 6810, Note_on_c, 9, 49, 79
1, 6810, Note_on_c, 9, 49, 0
1, 6810, Note_on_c, 9, 55, 72
1, 6810, Note_on_c, 9, 55, 0
1, 6810, Note_on_c, 9, 35, 95
1, 6839, Note_on_c, 9, 35, 0
1, 6900, Note_on_c, 9, 42, 60
1, 6901, Note_on_c, 9, 42, 0
1, 7005, Note_on_c, 9, 42, 44
1, 7005, Note_on_c, 9, 42, 0
1, 7020, Note_on_c, 9, 35, 88
1, 7080, Note_on_c, 9, 42, 48
1, 7084, Note_on_c, 9, 42, 0
1, 7199, Note_on_c, 9, 35, 0
1, 7200, Note_on_c, 9, 80, 101
1, 7200, Note_on_c, 9, 42, 41
1, 7204, Note_on_c, 9, 42, 0
1, 7319, Note_on_c, 9, 80, 0
1, 7320, Note_on_c, 9, 42, 53
1, 7324, Note_on_c, 9, 42, 0
1, 7440, Note_on_c, 9, 42, 70
1, 7440, Note_on_c, 9, 35, 86
1, 7441, Note_on_c, 9, 42, 0
1, 7500, Note_on_c, 9, 42, 49
1, 7501, Note_on_c, 9, 42, 0
1, 7560, Note_on_c, 9, 42, 61
1, 7561, Note_on_c, 9, 42, 0
1, 7620, Note_on_c, 9, 42, 59
1, 7621, Note_on_c, 9, 42, 0
1, 7679, Note_on_c, 9, 35, 0
1, 7680, Note_on_c, 9, 42, 61
1, 7680, Note_on_c, 9, 35, 93
1, 7684, Note_on_c, 9, 42, 0
1, 7800, Note_on_c, 9, 42, 44
1, 7804, Note_on_c, 9, 42, 0
1, 7920, Note_on_c, 9, 42, 60
1, 7924, Note_on_c, 9, 42, 0
1, 8040, Note_on_c, 9, 42, 50
1, 8044, Note_on_c, 9, 42, 0
1, 8159, Note_on_c, 9, 35, 0
1, 8160, Note_on_c, 9, 46, 84
1, 8160, Note_on_c, 9, 80, 97
1, 8170, Note_on_c, 9, 46, 0
1, 8399, Note_on_c, 9, 80, 0
1, 8400, Note_on_c, 9, 54, 16
1, 8459, Note_on_c, 9, 54, 0
1, 8460, Note_on_c, 9, 54, 18
1, 8489, Note_on_c, 9, 54, 0
1, 8490, Note_on_c, 9, 54, 22
1, 8519, Note_on_c, 9, 54, 0
1, 8535, Note_on_c, 9, 54, 26
1, 8564, Note_on_c, 9, 54, 0
1, 8565, Note_on_c, 9, 54, 29
1, 8579, Note_on_c, 9, 54, 0
1, 8595, Note_on_c, 9, 54, 33
1, 8624, Note_on_c, 9, 54, 0
1, 8625, Note_on_c, 9, 54, 38
1, 8639, Note_on_c, 9, 54, 0
1, 8640, Note_on_c, 9, 54, 41
1, 8640, Note_on_c, 9, 42, 72
1, 8640, Note_on_c, 9, 35, 95
1, 8644, Note_on_c, 9, 42, 0
1, 8759, Note_on_c, 9, 54, 0
1, 8760, Note_on_c, 9, 42, 37
1, 8764, Note_on_c, 9, 42, 0
1, 8880, Note_on_c, 9, 42, 33
1, 8884, Note_on_c, 9, 42, 0
1, 9000, Note_on_c, 9, 42, 28
1, 9004, Note_on_c, 9, 42, 0
1, 9119, Note_on_c, 9, 35, 0
1, 9120, Note_on_c, 9, 80, 97
1, 9120, Note_on_c, 9, 42, 83
1, 9124, Note_on_c, 9, 42, 0
1, 9239, Note_on_c, 9, 80, 0
1, 9240, Note_on_c, 9, 42, 17
1, 9244, Note_on_c, 9, 42, 0
1, 9360, Note_on_c, 9, 42, 37
1, 9360, Note_on_c, 9, 35, 88
1, 9364, Note_on_c, 9, 42, 0
1, 9480, Note_on_c, 9, 42, 35
1, 9484, Note_on_c, 9, 42, 0
1, 9599, Note_on_c, 9, 35, 0
1, 9600, Note_on_c, 9, 42, 78
1, 9600, Note_on_c, 9, 35, 100
1, 9604, Note_on_c, 9, 42, 0
1, 9720, Note_on_c, 9, 42, 24
1, 9724, Note_on_c, 9, 42, 0
1, 9840, Note_on_c, 9, 42, 35
1, 9844, Note_on_c, 9, 42, 0
1, 9960, Note_on_c, 9, 42, 28
1, 9964, Note_on_c, 9, 42, 0
1, 10079, Note_on_c, 9, 35, 0
1, 10080, Note_on_c, 9, 46, 66
1, 10080, Note_on_c, 9, 46, 0
1, 10080, Note_on_c, 9, 51, 48
1, 10080, Note_on_c, 9, 51, 0
1, 10080, Note_on_c, 9, 80, 93
1, 10103, Note_on_c, 9, 80, 0
1, 10104, Note_on_c, 9, 51, 47
1, 10105, Note_on_c, 9, 51, 0
1, 10152, Note_on_c, 9, 51, 49
1, 10152, Note_on_c, 9, 51, 0
1, 10176, Note_on_c, 9, 51, 49
1, 10176, Note_on_c, 9, 51, 0
1, 10230, Note_on_c, 9, 51, 50
1, 10230, Note_on_c, 9, 51, 0
1, 10260, Note_on_c, 9, 51, 52
1, 10261, Note_on_c, 9, 51, 0
1, 10320, Note_on_c, 9, 51, 55
1, 10320, Note_on_c, 9, 51, 0
1, 10350, Note_on_c, 9, 51, 57
1, 10350, Note_on_c, 9, 51, 0
1, 10380, Note_on_c, 9, 51, 61
1, 10381, Note_on_c, 9, 51, 0
1, 10440, Note_on_c, 9, 51, 66
1, 10441, Note_on_c, 9, 51, 0
1, 10500, Note_on_c, 9, 51, 100
1, 10501, Note_on_c, 9, 51, 0
1, 10560, Note_on_c, 9, 42, 53
1, 10560, Note_on_c, 9, 35, 95
1, 10564, Note_on_c, 9, 42, 0
1, 10680, Note_on_c, 9, 42, 30
1, 10684, Note_on_c, 9, 42, 0
1, 10800, Note_on_c, 9, 42, 42
1, 10804, Note_on_c, 9, 42, 0
1, 10920, Note_on_c, 9, 46, 66
1, 10924, Note_on_c, 9, 46, 0
1, 11039, Note_on_c, 9, 35, 0
1, 11040, Note_on_c, 9, 80, 93
1, 11040, Note_on_c, 9, 42, 48
1, 11050, Note_on_c, 9, 42, 0
1, 11279, Note_on_c, 9, 80, 0
1, 11280, Note_on_c, 9, 42, 49
1, 11284, Note_on_c, 9, 42, 0
1, 11400, Note_on_c, 9, 42, 48
1, 11404, Note_on_c, 9, 42, 0
1, 11520, Note_on_c, 9, 42, 44
1, 11520, Note_on_c, 9, 35, 95
1, 11524, Note_on_c, 9, 42, 0
1, 11640, Note_on_c, 9, 42, 44
1, 11644, Note_on_c, 9, 42, 0
1, 11760, Note_on_c, 9, 42, 44
1, 11764, Note_on_c, 9, 42, 0
1, 11880, Note_on_c, 9, 42, 44
1, 11884, Note_on_c, 9, 42, 0
1, 11999, Note_on_c, 9, 35, 0
1, 12000, Note_on_c, 9, 46, 69
1, 12000, Note_on_c, 9, 80, 101
1, 12010, Note_on_c, 9, 46, 0
1, 12239, Note_on_c, 9, 80, 0
1, 12260, Note_on_c, 9, 54, 15
1, 12269, Note_on_c, 9, 54, 0
1, 12280, Note_on_c, 9, 54, 17
1, 12319, Note_on_c, 9, 54, 0
1, 12320, Note_on_c, 9, 54, 24
1, 12359, Note_on_c, 9, 54, 0
1, 12360, Note_on_c, 9, 54, 32
1, 12389, Note_on_c, 9, 54, 0
1, 12390, Note_on_c, 9, 54, 37
1, 12419, Note_on_c, 9, 54, 0
1, 12420, Note_on_c, 9, 54, 41
1, 12449, Note_on_c, 9, 54, 0
1, 12450, Note_on_c, 9, 54, 45
1, 12479, Note_on_c, 9, 54, 0
1, 12480, Note_on_c, 9, 54, 46
1, 12480, Note_on_c, 9, 42, 59
1, 12480, Note_on_c, 9, 42, 0
1, 12480, Note_on_c, 9, 35, 96
1, 12509, Note_on_c, 9, 54, 0
1, 12510, Note_on_c, 9, 54, 49
1, 12599, Note_on_c, 9, 54, 0
1, 12600, Note_on_c, 9, 42, 35
1, 12604, Note_on_c, 9, 42, 0
1, 12720, Note_on_c, 9, 42, 44
1, 12724, Note_on_c, 9, 42, 0
1, 12840, Note_on_c, 9, 46, 69
1, 12844, Note_on_c, 9, 46, 0
1, 12959, Note_on_c, 9, 35, 0
1, 12960, Note_on_c, 9, 80, 93
1, 12960, Note_on_c, 9, 42, 50
1, 12970, Note_on_c, 9, 42, 0
1, 13199, Note_on_c, 9, 80, 0
1, 13224, Note_on_c, 9, 42, 54
1, 13224, Note_on_c, 9, 42, 0
1, 13272, Note_on_c, 9, 42, 43
1, 13274, Note_on_c, 9, 42, 0
1, 13344, Note_on_c, 9, 42, 51
1, 13345, Note_on_c, 9, 42, 0
1, 13392, Note_on_c, 9, 42, 48
1, 13393, Note_on_c, 9, 42, 0
1, 13440, Note_on_c, 9, 42, 61
1, 13440, Note_on_c, 9, 35, 95
1, 13444, Note_on_c, 9, 42, 0
1, 13560, Note_on_c, 9, 42, 48
1, 13564, Note_on_c, 9, 42, 0
1, 13679, Note_on_c, 9, 35, 0
1, 13680, Note_on_c, 9, 42, 56
1, 13680, Note_on_c, 9, 35, 100
1, 13684, Note_on_c, 9, 42, 0
1, 13800, Note_on_c, 9, 42, 43
1, 13804, Note_on_c, 9, 42, 0
1, 13919, Note_on_c, 9, 35, 0
1, 13920, Note_on_c, 9, 80, 97
1, 13920, Note_on_c, 9, 42, 61
1, 13924, Note_on_c, 9, 42, 0
1, 14039, Note_on_c, 9, 80, 0
1, 14040, Note_on_c, 9, 42, 49
1, 14044, Note_on_c, 9, 42, 0
1, 14160, Note_on_c, 9, 42, 54
1, 14164, Note_on_c, 9, 42, 0
1, 14280, Note_on_c, 9, 55, 75
1, 14284, Note_on_c, 9, 55, 0
1, 14400, Note_on_c, 9, 55, 85
1, 14400, Note_on_c, 9, 35, 99
1, 14404, Note_on_c, 9, 55, 0
1, 14520, Note_on_c, 9, 42, 49
1, 14524, Note_on_c, 9, 42, 0
1, 14640, Note_on_c, 9, 42, 44
1, 14644, Note_on_c, 9, 42, 0
1, 14760, Note_on_c, 9, 42, 53
1, 14764, Note_on_c, 9, 42, 0
1, 14879, Note_on_c, 9, 35, 0
1, 14880, Note_on_c, 9, 80, 93
1, 14880, Note_on_c, 9, 42, 45
1, 14884, Note_on_c, 9, 42, 0
1, 14999, Note_on_c, 9, 80, 0
1, 15000, Note_on_c, 9, 42, 49
1, 15004, Note_on_c, 9, 42, 0
1, 15120, Note_on_c, 9, 42, 44
1, 15124, Note_on_c, 9, 42, 0
1, 15240, Note_on_c, 9, 42, 48
1, 15244, Note_on_c, 9, 42, 0
1, 15360, Note_on_c, 9, 42, 53
1, 15360, Note_on_c, 9, 35, 92
1, 15364, Note_on_c, 9, 42, 0
1, 15480, Note_on_c, 9, 42, 43
1, 15484, Note_on_c, 9, 42, 0
1, 15599, Note_on_c, 9, 35, 0
1, 15600, Note_on_c, 9, 42, 45
1, 15600, Note_on_c, 9, 35, 93
1, 15604, Note_on_c, 9, 42, 0
1, 15720, Note_on_c, 9, 42, 44
1, 15724, Note_on_c, 9, 42, 0
1, 15839, Note_on_c, 9, 35, 0
1, 15840, Note_on_c, 9, 80, 93
1, 15840, Note_on_c, 9, 42, 49
1, 15844, Note_on_c, 9, 42, 0
1, 15959, Note_on_c, 9, 80, 0
1, 15960, Note_on_c, 9, 42, 56
1, 15964, Note_on_c, 9, 42, 0
1, 16080, Note_on_c, 9, 42, 59
1, 16084, Note_on_c, 9, 42, 0
1, 16200, Note_on_c, 9, 55, 77
1, 16204, Note_on_c, 9, 55, 0
1, 16320, Note_on_c, 9, 55, 89
1, 16320, Note_on_c, 9, 35, 98
1, 16324, Note_on_c, 9, 55, 0
1, 16440, Note_on_c, 9, 42, 63
1, 16444, Note_on_c, 9, 42, 0
1, 16560, Note_on_c, 9, 42, 37
1, 16564, Note_on_c, 9, 42, 0
1, 16680, Note_on_c, 9, 42, 39
1, 16684, Note_on_c, 9, 42, 0
1, 16799, Note_on_c, 9, 35, 0
1, 16800, Note_on_c, 9, 80, 97
1, 16800, Note_on_c, 9, 42, 35
1, 16804, Note_on_c, 9, 42, 0
1, 16919, Note_on_c, 9, 80, 0
1, 16920, Note_on_c, 9, 42, 44
1, 16924, Note_on_c, 9, 42, 0
1, 17040, Note_on_c, 9, 42, 37
1, 17040, Note_on_c, 9, 35, 95
1, 17044, Note_on_c, 9, 42, 0
1, 17160, Note_on_c, 9, 42, 49
1, 17164, Note_on_c, 9, 42, 0
1, 17279, Note_on_c, 9, 35, 0
1, 17280, Note_on_c, 9, 42, 44
1, 17280, Note_on_c, 9, 35, 96
1, 17284, Note_on_c, 9, 42, 0
1, 17400, Note_on_c, 9, 42, 49
1, 17404, Note_on_c, 9, 42, 0
1, 17520, Note_on_c, 9, 42, 48
1, 17524, Note_on_c, 9, 42, 0
1, 17640, Note_on_c, 9, 42, 49
1, 17644, Note_on_c, 9, 42, 0
1, 17759, Note_on_c, 9, 35, 0
1, 17760, Note_on_c, 9, 46, 70
1, 17760, Note_on_c, 9, 80, 87
1, 17770, Note_on_c, 9, 46, 0
1, 17999, Note_on_c, 9, 80, 0
1, 18000, Note_on_c, 9, 55, 92
1, 18010, Note_on_c, 9, 55, 0
1, 18240, Note_on_c, 9, 55, 74
1, 18240, Note_on_c, 9, 35, 96
1, 18244, Note_on_c, 9, 55, 0
1, 18360, Note_on_c, 9, 42, 47
1, 18364, Note_on_c, 9, 42, 0
1, 18480, Note_on_c, 9, 42, 42
1, 18484, Note_on_c, 9, 42, 0
1, 18600, Note_on_c, 9, 42, 44
1, 18604, Note_on_c, 9, 42, 0
1, 18719, Note_on_c, 9, 35, 0
1, 18720, Note_on_c, 9, 80, 90
1, 18720, Note_on_c, 9, 42, 43
1, 18724, Note_on_c, 9, 42, 0
1, 18839, Note_on_c, 9, 80, 0
1, 18840, Note_on_c, 9, 42, 39
1, 18844, Note_on_c, 9, 42, 0
1, 18960, Note_on_c, 9, 42, 43
1, 18964, Note_on_c, 9, 42, 0
1, 19080, Note_on_c, 9, 42, 41
1, 19084, Note_on_c, 9, 42, 0
1, 19200, Note_on_c, 9, 42, 44
1, 19200, Note_on_c, 9, 35, 95
1, 19204, Note_on_c, 9, 42, 0
1, 19320, Note_on_c, 9, 42, 49
1, 19324, Note_on_c, 9, 42, 0
1, 19440, Note_on_c, 9, 42, 53
1, 19444, Note_on_c, 9, 42, 0
1, 19560, Note_on_c, 9, 42, 55
1, 19564, Note_on_c, 9, 42, 0
1, 19679, Note_on_c, 9, 35, 0
1, 19680, Note_on_c, 9, 46, 67
1, 19680, Note_on_c, 9, 80, 93
1, 19690, Note_on_c, 9, 46, 0
1, 19919, Note_on_c, 9, 80, 0
1, 19935, Note_on_c, 9, 54, 20
1, 19964, Note_on_c, 9, 54, 0
1, 19965, Note_on_c, 9, 54, 23
1, 19979, Note_on_c, 9, 54, 0
1, 19995, Note_on_c, 9, 54, 29
1, 20024, Note_on_c, 9, 54, 0
1, 20025, Note_on_c, 9, 54, 35
1, 20039, Note_on_c, 9, 54, 0
1, 20040, Note_on_c, 9, 54, 38
1, 20069, Note_on_c, 9, 54, 0
1, 20070, Note_on_c, 9, 54, 40
1, 20099, Note_on_c, 9, 54, 0
1, 20100, Note_on_c, 9, 54, 43
1, 20129, Note_on_c, 9, 54, 0
1, 20130, Note_on_c, 9, 54, 44
1, 20159, Note_on_c, 9, 54, 0
1, 20160, Note_on_c, 9, 54, 46
1, 20160, Note_on_c, 9, 49, 60
1, 20160, Note_on_c, 9, 55, 67
1, 20160, Note_on_c, 9, 35, 96
1, 20164, Note_on_c, 9, 49, 0
1, 20164, Note_on_c, 9, 55, 0
1, 20279, Note_on_c, 9, 54, 0
1, 20280, Note_on_c, 9, 42, 40
1, 20284, Note_on_c, 9, 42, 0
1, 20400, Note_on_c, 9, 42, 43
1, 20404, Note_on_c, 9, 42, 0
1, 20520, Note_on_c, 9, 42, 47
1, 20524, Note_on_c, 9, 42, 0
1, 20639, Note_on_c, 9, 35, 0
1, 20640, Note_on_c, 9, 42, 39
1, 20640, Note_on_c, 9, 42, 0
1, 20670, Note_on_c, 9, 80, 90
1, 20759, Note_on_c, 9, 80, 0
1, 20760, Note_on_c, 9, 42, 40
1, 20764, Note_on_c, 9, 42, 0
1, 20880, Note_on_c, 9, 42, 40
1, 20884, Note_on_c, 9, 42, 0
1, 21000, Note_on_c, 9, 42, 42
1, 21004, Note_on_c, 9, 42, 0
1, 21120, Note_on_c, 9, 42, 44
1, 21120, Note_on_c, 9, 49, 63
1, 21120, Note_on_c, 9, 55, 62
1, 21120, Note_on_c, 9, 35, 95
1, 21124, Note_on_c, 9, 42, 0
1, 21124, Note_on_c, 9, 49, 0
1, 21124, Note_on_c, 9, 55, 0
1, 21240, Note_on_c, 9, 42, 48
1, 21244, Note_on_c, 9, 42, 0
1, 21360, Note_on_c, 9, 42, 38
1, 21364, Note_on_c, 9, 42, 0
1, 21480, Note_on_c, 9, 42, 47
1, 21484, Note_on_c, 9, 42, 0
1, 21599, Note_on_c, 9, 35, 0
1, 21600, Note_on_c, 9, 80, 93
1, 21600, Note_on_c, 9, 42, 49
1, 21604, Note_on_c, 9, 42, 0
1, 21719, Note_on_c, 9, 80, 0
1, 21720, Note_on_c, 9, 42, 43
1, 21724, Note_on_c, 9, 42, 0
1, 21840, Note_on_c, 9, 42, 44
1, 21844, Note_on_c, 9, 42, 0
1, 21960, Note_on_c, 9, 42, 49
1, 21964, Note_on_c, 9, 42, 0
1, 22080, Note_on_c, 9, 49, 66
1, 22080, Note_on_c, 9, 35, 96
1, 22084, Note_on_c, 9, 49, 0
1, 22200, Note_on_c, 9, 42, 44
1, 22204, Note_on_c, 9, 42, 0
1, 22320, Note_on_c, 9, 42, 41
1, 22324, Note_on_c, 9, 42, 0
1, 22440, Note_on_c, 9, 42, 39
1, 22444, Note_on_c, 9, 42, 0
1, 22559, Note_on_c, 9, 35, 0
1, 22560, Note_on_c, 9, 80, 97
1, 22560, Note_on_c, 9, 42, 42
1, 22564, Note_on_c, 9, 42, 0
1, 22679, Note_on_c, 9, 80, 0
1, 22680, Note_on_c, 9, 42, 39
1, 22684, Note_on_c, 9, 42, 0
1, 22800, Note_on_c, 9, 42, 40
1, 22804, Note_on_c, 9, 42, 0
1, 22920, Note_on_c, 9, 42, 41
1, 22924, Note_on_c, 9, 42, 0
1, 23040, Note_on_c, 9, 42, 44
1, 23040, Note_on_c, 9, 35, 95
1, 23044, Note_on_c, 9, 42, 0
1, 23160, Note_on_c, 9, 42, 44
1, 23164, Note_on_c, 9, 42, 0
1, 23280, Note_on_c, 9, 42, 44
1, 23284, Note_on_c, 9, 42, 0
1, 23400, Note_on_c, 9, 42, 38
1, 23404, Note_on_c, 9, 42, 0
1, 23519, Note_on_c, 9, 35, 0
1, 23520, Note_on_c, 9, 46, 61
1, 23520, Note_on_c, 9, 80, 93
1, 23530, Note_on_c, 9, 46, 0
1, 23759, Note_on_c, 9, 80, 0
1, 23760, Note_on_c, 9, 35, 98
1, 23787, Note_on_c, 9, 54, 12
1, 23813, Note_on_c, 9, 54, 0
1, 23813, Note_on_c, 9, 54, 15
1, 23839, Note_on_c, 9, 54, 0
1, 23840, Note_on_c, 9, 54, 26
1, 23866, Note_on_c, 9, 54, 0
1, 23867, Note_on_c, 9, 54, 33
1, 23893, Note_on_c, 9, 54, 0
1, 23893, Note_on_c, 9, 54, 36
1, 23919, Note_on_c, 9, 54, 0
1, 23920, Note_on_c, 9, 54, 39
1, 23946, Note_on_c, 9, 54, 0
1, 23947, Note_on_c, 9, 54, 40
1, 23973, Note_on_c, 9, 54, 0
1, 23973, Note_on_c, 9, 54, 42
1, 23999, Note_on_c, 9, 35, 0
1, 23999, Note_on_c, 9, 54, 0
1, 24000, Note_on_c, 9, 54, 44
1, 24000, Note_on_c, 9, 49, 69
1, 24000, Note_on_c, 9, 49, 0
1, 24000, Note_on_c, 9, 55, 65
1, 24000, Note_on_c, 9, 55, 0
1, 24000, Note_on_c, 9, 35, 99
1, 24039, Note_on_c, 9, 54, 0
1, 24040, Note_on_c, 9, 54, 49
1, 24059, Note_on_c, 9, 54, 0
1, 24479, Note_on_c, 9, 35, 0
1, 24480, Note_on_c, 9, 42, 37
1, 24502, Note_on_c, 9, 42, 0
1, 33600, Note_on_c, 9, 51, 99
1, 33600, Note_on_c, 9, 35, 107
1, 33622, Note_on_c, 9, 51, 0
1, 34079, Note_on_c, 9, 35, 0
1, 35340, Note_on_c, 9, 51, 94
1, 35340, Note_on_c, 9, 35, 101
1, 35347, Note_on_c, 9, 51, 0
1, 35519, Note_on_c, 9, 35, 0
1, 36960, Note_on_c, 9, 51, 106
1, 36960, Note_on_c, 9, 35, 99
1, 36982, Note_on_c, 9, 51, 0
1, 37439, Note_on_c, 9, 35, 0
1, 38880, Note_on_c, 9, 35, 105
1, 39359, Note_on_c, 9, 35, 0
1, 39360, Note_on_c, 9, 53, 80
1, 39839, Note_on_c, 9, 53, 0
1, 40320, Note_on_c, 9, 38, 127
1, 40799, Note_on_c, 9, 38, 0
1, 40800, Note_on_c, 9, 55, 105
1, 40800, Note_on_c, 9, 35, 98
1, 40810, Note_on_c, 9, 55, 0
1, 41040, Note_on_c, 9, 42, 52
1, 41044, Note_on_c, 9, 42, 0
1, 41160, Note_on_c, 9, 42, 49
1, 41164, Note_on_c, 9, 42, 0
1, 41279, Note_on_c, 9, 35, 0
1, 41280, Note_on_c, 9, 80, 78
1, 41280, Note_on_c, 9, 42, 44
1, 41290, Note_on_c, 9, 42, 0
1, 41519, Note_on_c, 9, 80, 0
1, 41520, Note_on_c, 9, 42, 49
1, 41524, Note_on_c, 9, 42, 0
1, 41640, Note_on_c, 9, 42, 36
1, 41644, Note_on_c, 9, 42, 0
1, 41760, Note_on_c, 9, 42, 43
1, 41760, Note_on_c, 9, 35, 99
1, 41770, Note_on_c, 9, 42, 0
1, 42000, Note_on_c, 9, 42, 62
1, 42004, Note_on_c, 9, 42, 0
1, 42120, Note_on_c, 9, 42, 44
1, 42124, Note_on_c, 9, 42, 0
1, 42239, Note_on_c, 9, 35, 0
1, 42240, Note_on_c, 9, 46, 63
1, 42240, Note_on_c, 9, 80, 63
1, 42250, Note_on_c, 9, 46, 0
1, 42479, Note_on_c, 9, 80, 0
1, 42480, Note_on_c, 9, 42, 47
1, 42484, Note_on_c, 9, 42, 0
1, 42600, Note_on_c, 9, 55, 89
1, 42604, Note_on_c, 9, 55, 0
1, 42720, Note_on_c, 9, 55, 93
1, 42720, Note_on_c, 9, 35, 99
1, 42730, Note_on_c, 9, 55, 0
1, 42960, Note_on_c, 9, 42, 50
1, 42964, Note_on_c, 9, 42, 0
1, 43080, Note_on_c, 9, 46, 55
1, 43084, Note_on_c, 9, 46, 0
1, 43199, Note_on_c, 9, 35, 0
1, 43200, Note_on_c, 9, 80, 71
1, 43200, Note_on_c, 9, 42, 41
1, 43210, Note_on_c, 9, 42, 0
1, 43439, Note_on_c, 9, 80, 0
1, 43470, Note_on_c, 9, 42, 51
1, 43473, Note_on_c, 9, 42, 0
1, 43710, Note_on_c, 9, 42, 46
1, 43710, Note_on_c, 9, 35, 98
1, 43713, Note_on_c, 9, 42, 0
1, 43950, Note_on_c, 9, 42, 46
1, 43953, Note_on_c, 9, 42, 0
1, 44159, Note_on_c, 9, 35, 0
1, 44160, Note_on_c, 9, 80, 67
1, 44160, Note_on_c, 9, 42, 59
1, 44164, Note_on_c, 9, 42, 0
1, 44279, Note_on_c, 9, 80, 0
1, 44280, Note_on_c, 9, 42, 53
1, 44284, Note_on_c, 9, 42, 0
1, 44400, Note_on_c, 9, 42, 57
1, 44404, Note_on_c, 9, 42, 0
1, 44520, Note_on_c, 9, 42, 51
1, 44524, Note_on_c, 9, 42, 0
1, 44640, Note_on_c, 9, 49, 63
1, 44640, Note_on_c, 9, 55, 64
1, 44640, Note_on_c, 9, 35, 96
1, 44650, Note_on_c, 9, 49, 0
1, 44650, Note_on_c, 9, 55, 0
1, 44880, Note_on_c, 9, 42, 56
1, 44884, Note_on_c, 9, 42, 0
1, 45000, Note_on_c, 9, 46, 60
1, 45004, Note_on_c, 9, 46, 0
1, 45119, Note_on_c, 9, 35, 0
1, 45120, Note_on_c, 9, 80, 73
1, 45120, Note_on_c, 9, 42, 53
1, 45124, Note_on_c, 9, 42, 0
1, 45239, Note_on_c, 9, 80, 0
1, 45240, Note_on_c, 9, 42, 43
1, 45244, Note_on_c, 9, 42, 0
1, 45360, Note_on_c, 9, 42, 38
1, 45364, Note_on_c, 9, 42, 0
1, 45480, Note_on_c, 9, 42, 35
1, 45484, Note_on_c, 9, 42, 0
1, 45600, Note_on_c, 9, 42, 41
1, 45600, Note_on_c, 9, 35, 99
1, 45604, Note_on_c, 9, 42, 0
1, 45720, Note_on_c, 9, 42, 39
1, 45724, Note_on_c, 9, 42, 0
1, 45840, Note_on_c, 9, 42, 42
1, 45844, Note_on_c, 9, 42, 0
1, 45960, Note_on_c, 9, 42, 45
1, 45964, Note_on_c, 9, 42, 0
1, 46079, Note_on_c, 9, 35, 0
1, 46080, Note_on_c, 9, 46, 64
1, 46080, Note_on_c, 9, 80, 69
1, 46080, Note_on_c, 9, 55, 92
1, 46102, Note_on_c, 9, 46, 0
1, 46102, Note_on_c, 9, 55, 0
1, 46559, Note_on_c, 9, 80, 0
1, 46560, Note_on_c, 9, 42, 62
1, 46560, Note_on_c, 9, 35, 99
1, 46564, Note_on_c, 9, 42, 0
1, 46710, Note_on_c, 9, 42, 45
1, 46713, Note_on_c, 9, 42, 0
1, 46800, Note_on_c, 9, 42, 55
1, 46804, Note_on_c, 9, 42, 0
1, 46920, Note_on_c, 9, 46, 67
1, 46924, Note_on_c, 9, 46, 0
1, 47039, Note_on_c, 9, 35, 0
1, 47040, Note_on_c, 9, 80, 63
1, 47040, Note_on_c, 9, 42, 51
1, 47044, Note_on_c, 9, 42, 0
1, 47159, Note_on_c, 9, 80, 0
1, 47190, Note_on_c, 9, 42, 47
1, 47193, Note_on_c, 9, 42, 0
1, 47310, Note_on_c, 9, 42, 43
1, 47313, Note_on_c, 9, 42, 0
1, 47430, Note_on_c, 9, 42, 39
1, 47433, Note_on_c, 9, 42, 0
1, 47520, Note_on_c, 9, 35, 102
1, 47535, Note_on_c, 9, 42, 51
1, 47536, Note_on_c, 9, 42, 0
1, 47640, Note_on_c, 9, 42, 46
1, 47644, Note_on_c, 9, 42, 0
1, 47760, Note_on_c, 9, 42, 46
1, 47764, Note_on_c, 9, 42, 0
1, 47880, Note_on_c, 9, 42, 52
1, 47884, Note_on_c, 9, 42, 0
1, 47999, Note_on_c, 9, 35, 0
1, 48000, Note_on_c, 9, 38, 127
1, 48000, Note_on_c, 9, 80, 73
1, 48239, Note_on_c, 9, 38, 0
1, 48239, Note_on_c, 9, 80, 0
1, 48240, Note_on_c, 9, 38, 127
1, 48359, Note_on_c, 9, 38, 0
1, 48360, Note_on_c, 9, 38, 127
1, 48479, Note_on_c, 9, 38, 0
1, 48480, Note_on_c, 9, 49, 96
1, 48480, Note_on_c, 9, 35, 102
1, 48490, Note_on_c, 9, 49, 0
1, 48720, Note_on_c, 9, 42, 51
1, 48730, Note_on_c, 9, 42, 0
1, 48959, Note_on_c, 9, 35, 0
1, 48960, Note_on_c, 9, 37, 121
1, 48960, Note_on_c, 9, 42, 52
1, 48970, Note_on_c, 9, 37, 0
1, 48970, Note_on_c, 9, 42, 0
1, 49200, Note_on_c, 9, 42, 43
1, 49210, Note_on_c, 9, 42, 0
1, 49440, Note_on_c, 9, 42, 46
1, 49450, Note_on_c, 9, 42, 0
1, 49680, Note_on_c, 9, 42, 42
1, 49690, Note_on_c, 9, 42, 0
1, 49920, Note_on_c, 9, 37, 115
1, 49920, Note_on_c, 9, 42, 52
1, 49930, Note_on_c, 9, 37, 0
1, 49930, Note_on_c, 9, 42, 0
1, 50160, Note_on_c, 9, 42, 41
1, 50160, Note_on_c, 9, 35, 88
1, 50170, Note_on_c, 9, 42, 0
1, 50399, Note_on_c, 9, 35, 0
1, 50430, Note_on_c, 9, 42, 46
1, 50430, Note_on_c, 9, 35, 102
1, 50433, Note_on_c, 9, 42, 0
1, 50640, Note_on_c, 9, 42, 46
1, 50650, Note_on_c, 9, 42, 0
1, 50879, Note_on_c, 9, 35, 0
1, 50880, Note_on_c, 9, 37, 106
1, 50880, Note_on_c, 9, 42, 52
1, 50890, Note_on_c, 9, 37, 0
1, 50890, Note_on_c, 9, 42, 0
1, 51120, Note_on_c, 9, 42, 50
1, 51130, Note_on_c, 9, 42, 0
1, 51360, Note_on_c, 9, 42, 50
1, 51370, Note_on_c, 9, 42, 0
1, 51600, Note_on_c, 9, 42, 44
1, 51610, Note_on_c, 9, 42, 0
1, 51840, Note_on_c, 9, 37, 104
1, 51840, Note_on_c, 9, 42, 52
1, 51850, Note_on_c, 9, 37, 0
1, 51850, Note_on_c, 9, 42, 0
1, 52080, Note_on_c, 9, 42, 47
1, 52090, Note_on_c, 9, 42, 0
1, 52350, Note_on_c, 9, 42, 46
1, 52350, Note_on_c, 9, 35, 101
1, 52353, Note_on_c, 9, 42, 0
1, 52560, Note_on_c, 9, 42, 46
1, 52570, Note_on_c, 9, 42, 0
1, 52799, Note_on_c, 9, 35, 0
1, 52800, Note_on_c, 9, 37, 109
1, 52800, Note_on_c, 9, 42, 53
1, 52810, Note_on_c, 9, 37, 0
1, 52810, Note_on_c, 9, 42, 0
1, 53040, Note_on_c, 9, 42, 47
1, 53050, Note_on_c, 9, 42, 0
1, 53280, Note_on_c, 9, 42, 55
1, 53290, Note_on_c, 9, 42, 0
1, 53520, Note_on_c, 9, 42, 51
1, 53530, Note_on_c, 9, 42, 0
1, 53760, Note_on_c, 9, 37, 112
1, 53760, Note_on_c, 9, 42, 49
1, 53770, Note_on_c, 9, 37, 0
1, 53770, Note_on_c, 9, 42, 0
1, 54000, Note_on_c, 9, 42, 50
1, 54000, Note_on_c, 9, 35, 93
1, 54010, Note_on_c, 9, 42, 0
1, 54239, Note_on_c, 9, 35, 0
1, 54240, Note_on_c, 9, 42, 52
1, 54240, Note_on_c, 9, 35, 103
1, 54250, Note_on_c, 9, 42, 0
1, 54480, Note_on_c, 9, 42, 48
1, 54490, Note_on_c, 9, 42, 0
1, 54719, Note_on_c, 9, 35, 0
1, 54720, Note_on_c, 9, 37, 115
1, 54720, Note_on_c, 9, 42, 45
1, 54730, Note_on_c, 9, 37, 0
1, 54730, Note_on_c, 9, 42, 0
1, 54960, Note_on_c, 9, 42, 46
1, 54970, Note_on_c, 9, 42, 0
1, 55200, Note_on_c, 9, 42, 49
1, 55210, Note_on_c, 9, 42, 0
1, 55440, Note_on_c, 9, 42, 46
1, 55450, Note_on_c, 9, 42, 0
1, 55680, Note_on_c, 9, 37, 112
1, 55680, Note_on_c, 9, 42, 50
1, 55690, Note_on_c, 9, 37, 0
1, 55690, Note_on_c, 9, 42, 0
1, 55920, Note_on_c, 9, 42, 52
1, 55930, Note_on_c, 9, 42, 0
1, 56160, Note_on_c, 9, 49, 89
1, 56160, Note_on_c, 9, 35, 101
1, 56170, Note_on_c, 9, 49, 0
1, 56400, Note_on_c, 9, 42, 52
1, 56410, Note_on_c, 9, 42, 0
1, 56639, Note_on_c, 9, 35, 0
1, 56640, Note_on_c, 9, 37, 115
1, 56640, Note_on_c, 9, 42, 47
1, 56650, Note_on_c, 9, 37, 0
1, 56650, Note_on_c, 9, 42, 0
1, 56880, Note_on_c, 9, 42, 49
1, 56890, Note_on_c, 9, 42, 0
1, 57120, Note_on_c, 9, 42, 52
1, 57130, Note_on_c, 9, 42, 0
1, 57360, Note_on_c, 9, 42, 46
1, 57370, Note_on_c, 9, 42, 0
1, 57600, Note_on_c, 9, 37, 109
1, 57600, Note_on_c, 9, 42, 49
1, 57610, Note_on_c, 9, 37, 0
1, 57610, Note_on_c, 9, 42, 0
1, 57840, Note_on_c, 9, 42, 50
1, 57850, Note_on_c, 9, 42, 0
1, 58080, Note_on_c, 9, 42, 52
1, 58080, Note_on_c, 9, 35, 99
1, 58090, Note_on_c, 9, 42, 0
1, 58320, Note_on_c, 9, 42, 52
1, 58330, Note_on_c, 9, 42, 0
1, 58559, Note_on_c, 9, 35, 0
1, 58560, Note_on_c, 9, 37, 106
1, 58560, Note_on_c, 9, 42, 51
1, 58570, Note_on_c, 9, 37, 0
1, 58570, Note_on_c, 9, 42, 0
1, 58800, Note_on_c, 9, 42, 51
1, 58810, Note_on_c, 9, 42, 0
1, 59040, Note_on_c, 9, 42, 50
1, 59050, Note_on_c, 9, 42, 0
1, 59280, Note_on_c, 9, 42, 49
1, 59290, Note_on_c, 9, 42, 0
1, 59520, Note_on_c, 9, 37, 89
1, 59520, Note_on_c, 9, 42, 52
1, 59530, Note_on_c, 9, 37, 0
1, 59530, Note_on_c, 9, 42, 0
1, 59760, Note_on_c, 9, 42, 51
1, 59770, Note_on_c, 9, 42, 0
1, 60000, Note_on_c, 9, 42, 51
1, 60000, Note_on_c, 9, 35, 106
1, 60010, Note_on_c, 9, 42, 0
1, 60240, Note_on_c, 9, 42, 52
1, 60250, Note_on_c, 9, 42, 0
1, 60479, Note_on_c, 9, 35, 0
1, 60480, Note_on_c, 9, 37, 98
1, 60480, Note_on_c, 9, 42, 52
1, 60490, Note_on_c, 9, 37, 0
1, 60490, Note_on_c, 9, 42, 0
1, 60720, Note_on_c, 9, 42, 50
1, 60730, Note_on_c, 9, 42, 0
1, 60990, Note_on_c, 9, 42, 52
1, 60993, Note_on_c, 9, 42, 0
1, 61230, Note_on_c, 9, 42, 55
1, 61233, Note_on_c, 9, 42, 0
1, 61470, Note_on_c, 9, 37, 104
1, 61470, Note_on_c, 9, 42, 46
1, 61473, Note_on_c, 9, 37, 0
1, 61473, Note_on_c, 9, 42, 0
1, 61710, Note_on_c, 9, 42, 53
1, 61713, Note_on_c, 9, 42, 0
1, 61920, Note_on_c, 9, 42, 48
1, 61920, Note_on_c, 9, 35, 101
1, 61930, Note_on_c, 9, 42, 0
1, 62160, Note_on_c, 9, 42, 46
1, 62170, Note_on_c, 9, 42, 0
1, 62399, Note_on_c, 9, 35, 0
1, 62400, Note_on_c, 9, 37, 115
1, 62400, Note_on_c, 9, 42, 47
1, 62410, Note_on_c, 9, 37, 0
1, 62410, Note_on_c, 9, 42, 0
1, 62640, Note_on_c, 9, 42, 52
1, 62650, Note_on_c, 9, 42, 0
1, 62880, Note_on_c, 9, 42, 48
1, 62902, Note_on_c, 9, 42, 0
1, 63120, Note_on_c, 9, 35, 112
1, 63239, Note_on_c, 9, 35, 0
1, 63240, Note_on_c, 9, 35, 106
1, 63359, Note_on_c, 9, 35, 0
1, 63360, Note_on_c, 9, 38, 127
1, 63360, Note_on_c, 9, 40, 116
1, 63839, Note_on_c, 9, 38, 0
1, 63839, Note_on_c, 9, 40, 0
1, 63870, Note_on_c, 9, 54, 62
1, 63870, Note_on_c, 9, 49, 84
1, 63870, Note_on_c, 9, 35, 106
1, 63873, Note_on_c, 9, 49, 0
1, 63959, Note_on_c, 9, 54, 0
1, 63990, Note_on_c, 9, 54, 42
1, 64079, Note_on_c, 9, 54, 0
1, 64080, Note_on_c, 9, 54, 38
1, 64199, Note_on_c, 9, 35, 0
1, 64199, Note_on_c, 9, 54, 0
1, 64200, Note_on_c, 9, 35, 110
1, 64215, Note_on_c, 9, 54, 35
1, 64259, Note_on_c, 9, 54, 0
1, 64319, Note_on_c, 9, 35, 0
1, 64320, Note_on_c, 9, 38, 114
1, 64320, Note_on_c, 9, 54, 61
1, 64320, Note_on_c, 9, 53, 114
1, 64320, Note_on_c, 9, 42, 53
1, 64324, Note_on_c, 9, 42, 0
1, 64439, Note_on_c, 9, 38, 0
1, 64439, Note_on_c, 9, 54, 0
1, 64439, Note_on_c, 9, 53, 0
1, 64440, Note_on_c, 9, 54, 33
1, 64559, Note_on_c, 9, 54, 0
1, 64560, Note_on_c, 9, 54, 34
1, 64560, Note_on_c, 9, 35, 107
1, 64679, Note_on_c, 9, 54, 0
1, 64680, Note_on_c, 9, 54, 39
1, 64799, Note_on_c, 9, 35, 0
1, 64799, Note_on_c, 9, 54, 0
1, 64800, Note_on_c, 9, 54, 48
1, 64800, Note_on_c, 9, 53, 112
1, 64919, Note_on_c, 9, 54, 0
1, 64919, Note_on_c, 9, 53, 0
1, 64920, Note_on_c, 9, 54, 30
1, 65039, Note_on_c, 9, 54, 0
1, 65040, Note_on_c, 9, 54, 37
1, 65040, Note_on_c, 9, 35, 110
1, 65159, Note_on_c, 9, 54, 0
1, 65160, Note_on_c, 9, 54, 41
1, 65279, Note_on_c, 9, 35, 0
1, 65279, Note_on_c, 9, 54, 0
1, 65280, Note_on_c, 9, 38, 109
1, 65280, Note_on_c, 9, 54, 47
1, 65280, Note_on_c, 9, 53, 111
1, 65399, Note_on_c, 9, 38, 0
1, 65399, Note_on_c, 9, 54, 0
1, 65399, Note_on_c, 9, 53, 0
1, 65400, Note_on_c, 9, 54, 40
1, 65519, Note_on_c, 9, 54, 0
1, 65520, Note_on_c, 9, 54, 41
1, 65639, Note_on_c, 9, 54, 0
1, 65640, Note_on_c, 9, 54, 38
1, 65759, Note_on_c, 9, 54, 0
1, 65760, Note_on_c, 9, 54, 46
1, 65760, Note_on_c, 9, 53, 107
1, 65760, Note_on_c, 9, 35, 112
1, 65879, Note_on_c, 9, 54, 0
1, 65879, Note_on_c, 9, 53, 0
1, 65880, Note_on_c, 9, 54, 34
1, 65999, Note_on_c, 9, 54, 0
1, 66000, Note_on_c, 9, 54, 38
1, 66119, Note_on_c, 9, 35, 0
1, 66119, Note_on_c, 9, 54, 0
1, 66120, Note_on_c, 9, 54, 41
1, 66120, Note_on_c, 9, 35, 110
1, 66239, Note_on_c, 9, 54, 0
1, 66239, Note_on_c, 9, 35, 0
1, 66240, Note_on_c, 9, 38, 116
1, 66240, Note_on_c, 9, 54, 53
1, 66240, Note_on_c, 9, 53, 100
1, 66359, Note_on_c, 9, 38, 0
1, 66359, Note_on_c, 9, 54, 0
1, 66359, Note_on_c, 9, 53, 0
1, 66360, Note_on_c, 9, 54, 38
1, 66479, Note_on_c, 9, 54, 0
1, 66480, Note_on_c, 9, 54, 34
1, 66480, Note_on_c, 9, 35, 107
1, 66599, Note_on_c, 9, 54, 0
1, 66600, Note_on_c, 9, 54, 36
1, 66719, Note_on_c, 9, 35, 0
1, 66719, Note_on_c, 9, 54, 0
1, 66720, Note_on_c, 9, 54, 44
1, 66720, Note_on_c, 9, 53, 105
1, 66839, Note_on_c, 9, 54, 0
1, 66839, Note_on_c, 9, 53, 0
1, 66840, Note_on_c, 9, 54, 38
1, 66959, Note_on_c, 9, 54, 0
1, 66960, Note_on_c, 9, 35, 106
1, 66975, Note_on_c, 9, 54, 41
1, 67019, Note_on_c, 9, 54, 0
1, 67110, Note_on_c, 9, 54, 38
1, 67199, Note_on_c, 9, 35, 0
1, 67199, Note_on_c, 9, 54, 0
1, 67230, Note_on_c, 9, 38, 114
1, 67230, Note_on_c, 9, 54, 41
1, 67230, Note_on_c, 9, 53, 107
1, 67319, Note_on_c, 9, 38, 0
1, 67319, Note_on_c, 9, 54, 0
1, 67319, Note_on_c, 9, 53, 0
1, 67350, Note_on_c, 9, 54, 33
1, 67439, Note_on_c, 9, 54, 0
1, 67470, Note_on_c, 9, 54, 47
1, 67559, Note_on_c, 9, 54, 0
1, 67560, Note_on_c, 9, 54, 41
1, 67679, Note_on_c, 9, 54, 0
1, 67680, Note_on_c, 9, 54, 45
1, 67680, Note_on_c, 9, 53, 105
1, 67680, Note_on_c, 9, 35, 110
1, 67799, Note_on_c, 9, 54, 0
1, 67799, Note_on_c, 9, 53, 0
1, 67800, Note_on_c, 9, 54, 31
1, 67919, Note_on_c, 9, 54, 0
1, 67920, Note_on_c, 9, 54, 37
1, 68039, Note_on_c, 9, 35, 0
1, 68039, Note_on_c, 9, 54, 0
1, 68040, Note_on_c, 9, 54, 37
1, 68040, Note_on_c, 9, 35, 116
1, 68159, Note_on_c, 9, 54, 0
1, 68159, Note_on_c, 9, 35, 0
1, 68160, Note_on_c, 9, 38, 117
1, 68160, Note_on_c, 9, 54, 46
1, 68160, Note_on_c, 9, 53, 110
1, 68279, Note_on_c, 9, 38, 0
1, 68279, Note_on_c, 9, 54, 0
1, 68279, Note_on_c, 9, 53, 0
1, 68280, Note_on_c, 9, 54, 41
1, 68399, Note_on_c, 9, 54, 0
1, 68400, Note_on_c, 9, 54, 44
1, 68400, Note_on_c, 9, 35, 101
1, 68519, Note_on_c, 9, 54, 0
1, 68520, Note_on_c, 9, 54, 28
1, 68639, Note_on_c, 9, 35, 0
1, 68639, Note_on_c, 9, 54, 0
1, 68640, Note_on_c, 9, 54, 43
1, 68640, Note_on_c, 9, 53, 108
1, 68759, Note_on_c, 9, 54, 0
1, 68759, Note_on_c, 9, 53, 0
1, 68760, Note_on_c, 9, 54, 37
1, 68879, Note_on_c, 9, 54, 0
1, 68880, Note_on_c, 9, 54, 41
1, 68880, Note_on_c, 9, 35, 111
1, 68999, Note_on_c, 9, 54, 0
1, 69030, Note_on_c, 9, 54, 46
1, 69119, Note_on_c, 9, 35, 0
1, 69119, Note_on_c, 9, 54, 0
1, 69150, Note_on_c, 9, 38, 111
1, 69150, Note_on_c, 9, 54, 42
1, 69150, Note_on_c, 9, 53, 111
1, 69239, Note_on_c, 9, 38, 0
1, 69239, Note_on_c, 9, 54, 0
1, 69239, Note_on_c, 9, 53, 0
1, 69270, Note_on_c, 9, 54, 41
1, 69359, Note_on_c, 9, 54, 0
1, 69360, Note_on_c, 9, 54, 41
1, 69479, Note_on_c, 9, 54, 0
1, 69480, Note_on_c, 9, 54, 35
1, 69599, Note_on_c, 9, 54, 0
1, 69600, Note_on_c, 9, 54, 46
1, 69600, Note_on_c, 9, 53, 107
1, 69600, Note_on_c, 9, 35, 109
1, 69719, Note_on_c, 9, 54, 0
1, 69719, Note_on_c, 9, 53, 0
1, 69720, Note_on_c, 9, 54, 41
1, 69839, Note_on_c, 9, 54, 0
1, 69840, Note_on_c, 9, 54, 40
1, 69959, Note_on_c, 9, 35, 0
1, 69959, Note_on_c, 9, 54, 0
1, 69960, Note_on_c, 9, 54, 41
1, 69960, Note_on_c, 9, 35, 107
1, 70079, Note_on_c, 9, 54, 0
1, 70079, Note_on_c, 9, 35, 0
1, 70080, Note_on_c, 9, 38, 118
1, 70080, Note_on_c, 9, 54, 44
1, 70080, Note_on_c, 9, 53, 104
1, 70199, Note_on_c, 9, 38, 0
1, 70199, Note_on_c, 9, 54, 0
1, 70199, Note_on_c, 9, 53, 0
1, 70200, Note_on_c, 9, 54, 41
1, 70319, Note_on_c, 9, 54, 0
1, 70320, Note_on_c, 9, 38, 109
1, 70320, Note_on_c, 9, 54, 38
1, 70320, Note_on_c, 9, 35, 107
1, 70439, Note_on_c, 9, 38, 0
1, 70439, Note_on_c, 9, 54, 0
1, 70440, Note_on_c, 9, 54, 40
1, 70559, Note_on_c, 9, 35, 0
1, 70559, Note_on_c, 9, 54, 0
1, 70560, Note_on_c, 9, 54, 48
1, 70560, Note_on_c, 9, 53, 107
1, 70679, Note_on_c, 9, 54, 0
1, 70679, Note_on_c, 9, 53, 0
1, 70680, Note_on_c, 9, 38, 92
1, 70680, Note_on_c, 9, 54, 40
1, 70799, Note_on_c, 9, 38, 0
1, 70799, Note_on_c, 9, 54, 0
1, 70800, Note_on_c, 9, 54, 47
1, 70800, Note_on_c, 9, 35, 107
1, 70919, Note_on_c, 9, 54, 0
1, 70919, Note_on_c, 9, 35, 0
1, 70920, Note_on_c, 9, 54, 43
1, 70920, Note_on_c, 9, 35, 112
1, 71039, Note_on_c, 9, 54, 0
1, 71039, Note_on_c, 9, 35, 0
1, 71040, Note_on_c, 9, 38, 110
1, 71040, Note_on_c, 9, 54, 47
1, 71040, Note_on_c, 9, 53, 103
1, 71159, Note_on_c, 9, 38, 0
1, 71159, Note_on_c, 9, 54, 0
1, 71159, Note_on_c, 9, 53, 0
1, 71160, Note_on_c, 9, 54, 47
1, 71279, Note_on_c, 9, 54, 0
1, 71280, Note_on_c, 9, 38, 118
1, 71280, Note_on_c, 9, 54, 42
1, 71399, Note_on_c, 9, 38, 0
1, 71399, Note_on_c, 9, 54, 0
1, 71400, Note_on_c, 9, 38, 114
1, 71400, Note_on_c, 9, 54, 36
1, 71519, Note_on_c, 9, 38, 0
1, 71519, Note_on_c, 9, 54, 0
1, 71520, Note_on_c, 9, 54, 42
1, 71520, Note_on_c, 9, 49, 114
1, 71520, Note_on_c, 9, 35, 107
1, 71524, Note_on_c, 9, 49, 0
1, 71639, Note_on_c, 9, 54, 0
1, 71640, Note_on_c, 9, 54, 38
1, 71759, Note_on_c, 9, 54, 0
1, 71760, Note_on_c, 9, 54, 41
1, 71879, Note_on_c, 9, 35, 0
1, 71879, Note_on_c, 9, 54, 0
1, 71910, Note_on_c, 9, 54, 34
1, 71910, Note_on_c, 9, 35, 107
1, 71999, Note_on_c, 9, 54, 0
1, 71999, Note_on_c, 9, 35, 0
1, 72000, Note_on_c, 9, 38, 112
1, 72000, Note_on_c, 9, 54, 46
1, 72000, Note_on_c, 9, 53, 107
1, 72119, Note_on_c, 9, 38, 0
1, 72119, Note_on_c, 9, 54, 0
1, 72119, Note_on_c, 9, 53, 0
1, 72120, Note_on_c, 9, 54, 41
1, 72239, Note_on_c, 9, 54, 0
1, 72240, Note_on_c, 9, 54, 43
1, 72240, Note_on_c, 9, 35, 109
1, 72359, Note_on_c, 9, 54, 0
1, 72360, Note_on_c, 9, 54, 41
1, 72479, Note_on_c, 9, 35, 0
1, 72479, Note_on_c, 9, 54, 0
1, 72480, Note_on_c, 9, 54, 43
1, 72480, Note_on_c, 9, 53, 101
1, 72599, Note_on_c, 9, 54, 0
1, 72599, Note_on_c, 9, 53, 0
1, 72600, Note_on_c, 9, 54, 38
1, 72719, Note_on_c, 9, 54, 0
1, 72720, Note_on_c, 9, 54, 43
1, 72720, Note_on_c, 9, 35, 105
1, 72839, Note_on_c, 9, 54, 0
1, 72840, Note_on_c, 9, 54, 41
1, 72959, Note_on_c, 9, 35, 0
1, 72959, Note_on_c, 9, 54, 0
1, 72960, Note_on_c, 9, 38, 104
1, 72960, Note_on_c, 9, 54, 45
1, 72960, Note_on_c, 9, 53, 106
1, 73079, Note_on_c, 9, 38, 0
1, 73079, Note_on_c, 9, 54, 0
1, 73079, Note_on_c, 9, 53, 0
1, 73080, Note_on_c, 9, 54, 38
1, 73199, Note_on_c, 9, 54, 0
1, 73200, Note_on_c, 9, 54, 46
1, 73319, Note_on_c, 9, 54, 0
1, 73320, Note_on_c, 9, 54, 40
1, 73439, Note_on_c, 9, 54, 0
1, 73440, Note_on_c, 9, 54, 41
1, 73440, Note_on_c, 9, 53, 97
1, 73440, Note_on_c, 9, 49, 90
1, 73440, Note_on_c, 9, 35, 107
1, 73444, Note_on_c, 9, 49, 0
1, 73559, Note_on_c, 9, 54, 0
1, 73559, Note_on_c, 9, 53, 0
1, 73560, Note_on_c, 9, 54, 47
1, 73679, Note_on_c, 9, 54, 0
1, 73680, Note_on_c, 9, 54, 40
1, 73799, Note_on_c, 9, 35, 0
1, 73799, Note_on_c, 9, 54, 0
1, 73800, Note_on_c, 9, 54, 36
1, 73800, Note_on_c, 9, 35, 110
1, 73919, Note_on_c, 9, 54, 0
1, 73919, Note_on_c, 9, 35, 0
1, 73920, Note_on_c, 9, 38, 106
1, 73920, Note_on_c, 9, 54, 46
1, 73920, Note_on_c, 9, 53, 99
1, 74039, Note_on_c, 9, 38, 0
1, 74039, Note_on_c, 9, 54, 0
1, 74039, Note_on_c, 9, 53, 0
1, 74040, Note_on_c, 9, 54, 40
1, 74159, Note_on_c, 9, 54, 0
1, 74160, Note_on_c, 9, 54, 39
1, 74160, Note_on_c, 9, 35, 105
1, 74279, Note_on_c, 9, 54, 0
1, 74280, Note_on_c, 9, 54, 44
1, 74399, Note_on_c, 9, 35, 0
1, 74399, Note_on_c, 9, 54, 0
1, 74400, Note_on_c, 9, 54, 38
1, 74400, Note_on_c, 9, 53, 97
1, 74519, Note_on_c, 9, 54, 0
1, 74519, Note_on_c, 9, 53, 0
1, 74520, Note_on_c, 9, 54, 37
1, 74639, Note_on_c, 9, 54, 0
1, 74640, Note_on_c, 9, 54, 41
1, 74640, Note_on_c, 9, 35, 107
1, 74759, Note_on_c, 9, 54, 0
1, 74760, Note_on_c, 9, 54, 41
1, 74879, Note_on_c, 9, 35, 0
1, 74879, Note_on_c, 9, 54, 0
1, 74880, Note_on_c, 9, 38, 110
1, 74880, Note_on_c, 9, 54, 41
1, 74880, Note_on_c, 9, 53, 102
1, 74999, Note_on_c, 9, 38, 0
1, 74999, Note_on_c, 9, 54, 0
1, 74999, Note_on_c, 9, 53, 0
1, 75000, Note_on_c, 9, 54, 41
1, 75119, Note_on_c, 9, 54, 0
1, 75120, Note_on_c, 9, 54, 46
1, 75239, Note_on_c, 9, 54, 0
1, 75240, Note_on_c, 9, 38, 114
1, 75240, Note_on_c, 9, 54, 40
1, 75359, Note_on_c, 9, 38, 0
1, 75359, Note_on_c, 9, 54, 0
1, 75360, Note_on_c, 9, 54, 46
1, 75360, Note_on_c, 9, 53, 95
1, 75360, Note_on_c, 9, 49, 94
1, 75360, Note_on_c, 9, 35, 102
1, 75364, Note_on_c, 9, 49, 0
1, 75479, Note_on_c, 9, 54, 0
1, 75479, Note_on_c, 9, 53, 0
1, 75480, Note_on_c, 9, 54, 36
1, 75599, Note_on_c, 9, 54, 0
1, 75600, Note_on_c, 9, 54, 38
1, 75719, Note_on_c, 9, 35, 0
1, 75719, Note_on_c, 9, 54, 0
1, 75720, Note_on_c, 9, 54, 38
1, 75720, Note_on_c, 9, 35, 105
1, 75839, Note_on_c, 9, 54, 0
1, 75839, Note_on_c, 9, 35, 0
1, 75840, Note_on_c, 9, 38, 110
1, 75840, Note_on_c, 9, 54, 41
1, 75840, Note_on_c, 9, 53, 101
1, 75959, Note_on_c, 9, 38, 0
1, 75959, Note_on_c, 9, 54, 0
1, 75959, Note_on_c, 9, 53, 0
1, 75960, Note_on_c, 9, 54, 40
1, 76079, Note_on_c, 9, 54, 0
1, 76080, Note_on_c, 9, 54, 41
1, 76080, Note_on_c, 9, 35, 103
1, 76199, Note_on_c, 9, 54, 0
1, 76200, Note_on_c, 9, 54, 36
1, 76319, Note_on_c, 9, 35, 0
1, 76319, Note_on_c, 9, 54, 0
1, 76320, Note_on_c, 9, 54, 43
1, 76320, Note_on_c, 9, 53, 101
1, 76439, Note_on_c, 9, 54, 0
1, 76439, Note_on_c, 9, 53, 0
1, 76440, Note_on_c, 9, 54, 41
1, 76559, Note_on_c, 9, 54, 0
1, 76560, Note_on_c, 9, 54, 35
1, 76560, Note_on_c, 9, 35, 106
1, 76679, Note_on_c, 9, 54, 0
1, 76680, Note_on_c, 9, 54, 38
1, 76799, Note_on_c, 9, 35, 0
1, 76799, Note_on_c, 9, 54, 0
1, 76800, Note_on_c, 9, 38, 109
1, 76800, Note_on_c, 9, 54, 41
1, 76800, Note_on_c, 9, 53, 104
1, 76919, Note_on_c, 9, 38, 0
1, 76919, Note_on_c, 9, 54, 0
1, 76919, Note_on_c, 9, 53, 0
1, 76920, Note_on_c, 9, 54, 41
1, 77039, Note_on_c, 9, 54, 0
1, 77040, Note_on_c, 9, 54, 39
1, 77159, Note_on_c, 9, 54, 0
1, 77175, Note_on_c, 9, 54, 42
1, 77219, Note_on_c, 9, 54, 0
1, 77280, Note_on_c, 9, 54, 45
1, 77280, Note_on_c, 9, 49, 94
1, 77280, Note_on_c, 9, 55, 98
1, 77284, Note_on_c, 9, 49, 0
1, 77284, Note_on_c, 9, 55, 0
1, 77295, Note_on_c, 9, 35, 110
1, 77399, Note_on_c, 9, 54, 0
1, 77430, Note_on_c, 9, 54, 34
1, 77519, Note_on_c, 9, 35, 0
1, 77519, Note_on_c, 9, 54, 0
1, 77550, Note_on_c, 9, 54, 41
1, 77550, Note_on_c, 9, 46, 77
1, 77553, Note_on_c, 9, 46, 0
1, 77639, Note_on_c, 9, 54, 0
1, 77670, Note_on_c, 9, 54, 39
1, 77759, Note_on_c, 9, 54, 0
1, 77760, Note_on_c, 9, 38, 116
1, 77760, Note_on_c, 9, 40, 110
1, 77789, Note_on_c, 9, 38, 0
1, 77789, Note_on_c, 9, 40, 0
1, 77790, Note_on_c, 9, 54, 45
1, 77790, Note_on_c, 9, 42, 45
1, 77793, Note_on_c, 9, 42, 0
1, 77879, Note_on_c, 9, 54, 0
1, 77910, Note_on_c, 9, 54, 42
1, 77999, Note_on_c, 9, 54, 0
1, 78000, Note_on_c, 9, 38, 112
1, 78000, Note_on_c, 9, 40, 110
1, 78000, Note_on_c, 9, 54, 43
1, 78119, Note_on_c, 9, 38, 0
1, 78119, Note_on_c, 9, 40, 0
1, 78119, Note_on_c, 9, 54, 0
1, 78120, Note_on_c, 9, 54, 41
1, 78239, Note_on_c, 9, 54, 0
1, 78240, Note_on_c, 9, 54, 42
1, 78255, Note_on_c, 9, 35, 110
1, 78299, Note_on_c, 9, 35, 0
1, 78359, Note_on_c, 9, 54, 0
1, 78360, Note_on_c, 9, 54, 40
1, 78360, Note_on_c, 9, 35, 105
1, 78479, Note_on_c, 9, 54, 0
1, 78480, Note_on_c, 9, 38, 118
1, 78480, Note_on_c, 9, 54, 41
1, 78599, Note_on_c, 9, 38, 0
1, 78599, Note_on_c, 9, 54, 0
1, 78600, Note_on_c, 9, 54, 41
1, 78719, Note_on_c, 9, 35, 0
1, 78719, Note_on_c, 9, 54, 0
1, 78720, Note_on_c, 9, 38, 116
1, 78720, Note_on_c, 9, 54, 48
1, 78839, Note_on_c, 9, 38, 0
1, 78839, Note_on_c, 9, 54, 0
1, 78840, Note_on_c, 9, 54, 46
1, 78840, Note_on_c, 9, 48, 112
1, 78959, Note_on_c, 9, 54, 0
1, 78959, Note_on_c, 9, 48, 0
1, 78960, Note_on_c, 9, 54, 47
1, 78960, Note_on_c, 9, 47, 87
1, 79079, Note_on_c, 9, 54, 0
1, 79079, Note_on_c, 9, 47, 0
1, 79080, Note_on_c, 9, 41, 109
1, 79080, Note_on_c, 9, 54, 59
1, 79199, Note_on_c, 9, 41, 0
1, 79199, Note_on_c, 9, 54, 0
1, 79200, Note_on_c, 9, 54, 12
1, 79200, Note_on_c, 9, 49, 114
1, 79200, Note_on_c, 9, 35, 103
1, 79202, Note_on_c, 9, 49, 0
1, 79259, Note_on_c, 9, 54, 0
1, 79290, Note_on_c, 9, 54, 12
1, 79349, Note_on_c, 9, 54, 0
1, 79350, Note_on_c, 9, 54, 15
1, 79409, Note_on_c, 9, 54, 0
1, 79410, Note_on_c, 9, 54, 19
1, 79439, Note_on_c, 9, 54, 0
1, 79455, Note_on_c, 9, 54, 22
1, 79499, Note_on_c, 9, 54, 0
1, 79500, Note_on_c, 9, 54, 25
1, 79559, Note_on_c, 9, 54, 0
1, 79560, Note_on_c, 9, 54, 27
1, 79560, Note_on_c, 9, 46, 70
1, 79561, Note_on_c, 9, 46, 0
1, 79619, Note_on_c, 9, 54, 0
1, 79620, Note_on_c, 9, 54, 28
1, 79679, Note_on_c, 9, 35, 0
1, 79679, Note_on_c, 9, 54, 0
1, 79680, Note_on_c, 9, 54, 30
1, 79709, Note_on_c, 9, 54, 0
1, 79710, Note_on_c, 9, 54, 30
1, 79710, Note_on_c, 9, 80, 78
1, 79710, Note_on_c, 9, 42, 42
1, 79711, Note_on_c, 9, 42, 0
1, 79769, Note_on_c, 9, 54, 0
1, 79769, Note_on_c, 9, 80, 0
1, 79770, Note_on_c, 9, 54, 30
1, 79799, Note_on_c, 9, 54, 0
1, 79830, Note_on_c, 9, 54, 29
1, 79859, Note_on_c, 9, 54, 0
1, 79860, Note_on_c, 9, 54, 28
1, 79919, Note_on_c, 9, 54, 0
1, 79920, Note_on_c, 9, 54, 28
1, 79967, Note_on_c, 9, 54, 0
1, 79968, Note_on_c, 9, 54, 26
1, 79968, Note_on_c, 9, 42, 41
1, 79969, Note_on_c, 9, 42, 0
1, 80015, Note_on_c, 9, 54, 0
1, 80016, Note_on_c, 9, 54, 24
1, 80063, Note_on_c, 9, 54, 0
1, 80064, Note_on_c, 9, 54, 24
1, 80111, Note_on_c, 9, 54, 0
1, 80112, Note_on_c, 9, 54, 24
1, 80159, Note_on_c, 9, 54, 0
1, 80160, Note_on_c, 9, 54, 26
1, 80205, Note_on_c, 9, 35, 103
1, 80219, Note_on_c, 9, 54, 0
1, 80220, Note_on_c, 9, 54, 27
1, 80220, Note_on_c, 9, 42, 45
1, 80220, Note_on_c, 9, 42, 0
1, 80249, Note_on_c, 9, 54, 0
1, 80250, Note_on_c, 9, 54, 29
1, 80279, Note_on_c, 9, 54, 0
1, 80280, Note_on_c, 9, 54, 30
1, 80339, Note_on_c, 9, 54, 0
1, 80340, Note_on_c, 9, 54, 31
1, 80369, Note_on_c, 9, 54, 0
1, 80370, Note_on_c, 9, 54, 32
1, 80399, Note_on_c, 9, 35, 0
1, 80399, Note_on_c, 9, 54, 0
1, 80400, Note_on_c, 9, 54, 34
1, 80459, Note_on_c, 9, 54, 0
1, 80460, Note_on_c, 9, 54, 34
1, 80460, Note_on_c, 9, 42, 46
1, 80461, Note_on_c, 9, 42, 0
1, 80519, Note_on_c, 9, 54, 0
1, 80520, Note_on_c, 9, 54, 32
1, 80549, Note_on_c, 9, 54, 0
1, 80550, Note_on_c, 9, 54, 30
1, 80579, Note_on_c, 9, 54, 0
1, 80580, Note_on_c, 9, 54, 28
1, 80639, Note_on_c, 9, 54, 0
1, 80640, Note_on_c, 9, 54, 26
1, 80679, Note_on_c, 9, 54, 0
1, 80680, Note_on_c, 9, 54, 23
1, 80719, Note_on_c, 9, 54, 0
1, 80720, Note_on_c, 9, 54, 22
1, 80720, Note_on_c, 9, 80, 73
1, 80720, Note_on_c, 9, 42, 45
1, 80720, Note_on_c, 9, 42, 0
1, 80759, Note_on_c, 9, 54, 0
1, 80759, Note_on_c, 9, 80, 0
1, 80760, Note_on_c, 9, 54, 20
1, 80789, Note_on_c, 9, 54, 0
1, 80790, Note_on_c, 9, 54, 19
1, 80819, Note_on_c, 9, 54, 0
1, 80820, Note_on_c, 9, 54, 19
1, 80879, Note_on_c, 9, 54, 0
1, 80880, Note_on_c, 9, 54, 18
1, 80909, Note_on_c, 9, 54, 0
1, 80910, Note_on_c, 9, 54, 18
1, 80939, Note_on_c, 9, 54, 0
1, 80940, Note_on_c, 9, 54, 16
1, 80940, Note_on_c, 9, 42, 39
1, 80940, Note_on_c, 9, 42, 0
1, 80979, Note_on_c, 9, 54, 0
1, 80980, Note_on_c, 9, 54, 16
1, 80999, Note_on_c, 9, 54, 0
1, 81030, Note_on_c, 9, 54, 15
1, 81059, Note_on_c, 9, 54, 0
1, 81060, Note_on_c, 9, 54, 15
1, 81119, Note_on_c, 9, 54, 0
1, 81120, Note_on_c, 9, 54, 18
1, 81179, Note_on_c, 9, 54, 0
1, 81180, Note_on_c, 9, 54, 20
1, 81180, Note_on_c, 9, 42, 43
1, 81181, Note_on_c, 9, 42, 0
1, 81209, Note_on_c, 9, 54, 0
1, 81210, Note_on_c, 9, 54, 25
1, 81210, Note_on_c, 9, 35, 106
1, 81269, Note_on_c, 9, 54, 0
1, 81270, Note_on_c, 9, 54, 26
1, 81299, Note_on_c, 9, 54, 0
1, 81300, Note_on_c, 9, 54, 26
1, 81359, Note_on_c, 9, 54, 0
1, 81360, Note_on_c, 9, 54, 27
1, 81389, Note_on_c, 9, 54, 0
1, 81390, Note_on_c, 9, 54, 27
1, 81419, Note_on_c, 9, 54, 0
1, 81420, Note_on_c, 9, 54, 26
1, 81479, Note_on_c, 9, 54, 0
1, 81480, Note_on_c, 9, 54, 25
1, 81480, Note_on_c, 9, 42, 40
1, 81481, Note_on_c, 9, 42, 0
1, 81539, Note_on_c, 9, 54, 0
1, 81540, Note_on_c, 9, 54, 24
1, 81569, Note_on_c, 9, 54, 0
1, 81570, Note_on_c, 9, 54, 23
1, 81599, Note_on_c, 9, 35, 0
1, 81599, Note_on_c, 9, 54, 0
1, 81600, Note_on_c, 9, 54, 22
1, 81659, Note_on_c, 9, 54, 0
1, 81660, Note_on_c, 9, 54, 23
1, 81719, Note_on_c, 9, 54, 0
1, 81720, Note_on_c, 9, 54, 23
1, 81720, Note_on_c, 9, 80, 73
1, 81720, Note_on_c, 9, 42, 41
1, 81720, Note_on_c, 9, 42, 0
1, 81749, Note_on_c, 9, 54, 0
1, 81749, Note_on_c, 9, 80, 0
1, 81750, Note_on_c, 9, 54, 22
1, 81779, Note_on_c, 9, 54, 0
1, 81780, Note_on_c, 9, 54, 21
1, 81839, Note_on_c, 9, 54, 0
1, 81840, Note_on_c, 9, 54, 19
1, 81869, Note_on_c, 9, 54, 0
1, 81870, Note_on_c, 9, 54, 17
1, 81899, Note_on_c, 9, 54, 0
1, 81900, Note_on_c, 9, 54, 15
1, 81959, Note_on_c, 9, 54, 0
1, 81960, Note_on_c, 9, 54, 14
1, 81960, Note_on_c, 9, 42, 41
1, 81960, Note_on_c, 9, 42, 0
1, 81999, Note_on_c, 9, 54, 0
1, 82000, Note_on_c, 9, 54, 14
1, 82039, Note_on_c, 9, 54, 0
1, 82040, Note_on_c, 9, 54, 14
1, 82079, Note_on_c, 9, 54, 0
1, 82080, Note_on_c, 9, 54, 13
1, 82109, Note_on_c, 9, 54, 0
1, 82110, Note_on_c, 9, 54, 12
1, 82139, Note_on_c, 9, 54, 0
1, 82140, Note_on_c, 9, 54, 12
1, 82169, Note_on_c, 9, 54, 0
1, 82185, Note_on_c, 9, 54, 14
1, 82185, Note_on_c, 9, 42, 41
1, 82189, Note_on_c, 9, 42, 0
1, 82199, Note_on_c, 9, 54, 0
1, 82200, Note_on_c, 9, 35, 101
1, 82380, Note_on_c, 9, 42, 43
1, 82387, Note_on_c, 9, 42, 0
1, 82559, Note_on_c, 9, 35, 0
1, 82560, Note_on_c, 9, 38, 120
1, 82560, Note_on_c, 9, 80, 78
1, 82560, Note_on_c, 9, 42, 46
1, 82570, Note_on_c, 9, 42, 0
1, 82799, Note_on_c, 9, 38, 0
1, 82799, Note_on_c, 9, 80, 0
1, 82834, Note_on_c, 9, 51, 56
1, 82834, Note_on_c, 9, 51, 0
1, 82869, Note_on_c, 9, 51, 53
1, 82869, Note_on_c, 9, 51, 0
1, 82903, Note_on_c, 9, 51, 64
1, 82903, Note_on_c, 9, 51, 0
1, 82920, Note_on_c, 9, 35, 92
1, 82937, Note_on_c, 9, 51, 73
1, 82937, Note_on_c, 9, 51, 0
1, 82971, Note_on_c, 9, 51, 80
1, 82971, Note_on_c, 9, 51, 0
1, 83006, Note_on_c, 9, 51, 80
1, 83006, Note_on_c, 9, 51, 0
1, 83039, Note_on_c, 9, 35, 0
1, 83040, Note_on_c, 9, 51, 86
1, 83040, Note_on_c, 9, 51, 0
1, 83070, Note_on_c, 9, 49, 34
1, 83070, Note_on_c, 9, 52, 54
1, 83070, Note_on_c, 9, 35, 107
1, 83073, Note_on_c, 9, 49, 0
1, 83073, Note_on_c, 9, 52, 0
1, 83280, Note_on_c, 9, 42, 48
1, 83290, Note_on_c, 9, 42, 0
1, 83519, Note_on_c, 9, 35, 0
1, 83520, Note_on_c, 9, 38, 110
1, 83520, Note_on_c, 9, 42, 43
1, 83530, Note_on_c, 9, 42, 0
1, 83759, Note_on_c, 9, 38, 0
1, 83775, Note_on_c, 9, 42, 41
1, 83784, Note_on_c, 9, 42, 0
1, 84030, Note_on_c, 9, 42, 35
1, 84033, Note_on_c, 9, 42, 0
1, 84240, Note_on_c, 9, 42, 41
1, 84240, Note_on_c, 9, 35, 99
1, 84250, Note_on_c, 9, 42, 0
1, 84479, Note_on_c, 9, 35, 0
1, 84480, Note_on_c, 9, 38, 110
1, 84480, Note_on_c, 9, 54, 87
1, 84480, Note_on_c, 9, 42, 40
1, 84490, Note_on_c, 9, 42, 0
1, 84719, Note_on_c, 9, 38, 0
1, 84719, Note_on_c, 9, 54, 0
1, 84720, Note_on_c, 9, 42, 39
1, 84730, Note_on_c, 9, 42, 0
1, 84960, Note_on_c, 9, 42, 42
1, 84960, Note_on_c, 9, 35, 99
1, 84970, Note_on_c, 9, 42, 0
1, 85200, Note_on_c, 9, 42, 39
1, 85210, Note_on_c, 9, 42, 0
1, 85439, Note_on_c, 9, 35, 0
1, 85440, Note_on_c, 9, 38, 112
1, 85440, Note_on_c, 9, 42, 39
1, 85450, Note_on_c, 9, 42, 0
1, 85679, Note_on_c, 9, 38, 0
1, 85680, Note_on_c, 9, 42, 39
1, 85690, Note_on_c, 9, 42, 0
1, 85920, Note_on_c, 9, 42, 37
1, 85930, Note_on_c, 9, 42, 0
1, 86160, Note_on_c, 9, 42, 41
1, 86160, Note_on_c, 9, 35, 106
1, 86170, Note_on_c, 9, 42, 0
1, 86399, Note_on_c, 9, 35, 0
1, 86400, Note_on_c, 9, 38, 104
1, 86400, Note_on_c, 9, 54, 90
1, 86400, Note_on_c, 9, 42, 42
1, 86410, Note_on_c, 9, 42, 0
1, 86639, Note_on_c, 9, 38, 0
1, 86639, Note_on_c, 9, 54, 0
1, 86640, Note_on_c, 9, 42, 36
1, 86650, Note_on_c, 9, 42, 0
1, 86880, Note_on_c, 9, 42, 33
1, 86880, Note_on_c, 9, 35, 101
1, 86890, Note_on_c, 9, 42, 0
1, 87120, Note_on_c, 9, 42, 38
1, 87130, Note_on_c, 9, 42, 0
1, 87359, Note_on_c, 9, 35, 0
1, 87360, Note_on_c, 9, 38, 109
1, 87360, Note_on_c, 9, 42, 43
1, 87370, Note_on_c, 9, 42, 0
1, 87599, Note_on_c, 9, 38, 0
1, 87600, Note_on_c, 9, 42, 36
1, 87610, Note_on_c, 9, 42, 0
1, 87840, Note_on_c, 9, 42, 41
1, 87850, Note_on_c, 9, 42, 0
1, 88080, Note_on_c, 9, 42, 39
1, 88080, Note_on_c, 9, 35, 102
1, 88090, Note_on_c, 9, 42, 0
1, 88319, Note_on_c, 9, 35, 0
1, 88320, Note_on_c, 9, 38, 112
1, 88320, Note_on_c, 9, 54, 77
1, 88320, Note_on_c, 9, 42, 41
1, 88330, Note_on_c, 9, 42, 0
1, 88559, Note_on_c, 9, 38, 0
1, 88559, Note_on_c, 9, 54, 0
1, 88560, Note_on_c, 9, 42, 37
1, 88570, Note_on_c, 9, 42, 0
1, 88800, Note_on_c, 9, 42, 39
1, 88800, Note_on_c, 9, 35, 100
1, 88810, Note_on_c, 9, 42, 0
1, 89040, Note_on_c, 9, 42, 41
1, 89050, Note_on_c, 9, 42, 0
1, 89279, Note_on_c, 9, 35, 0
1, 89280, Note_on_c, 9, 38, 114
1, 89280, Note_on_c, 9, 42, 42
1, 89290, Note_on_c, 9, 42, 0
1, 89519, Note_on_c, 9, 38, 0
1, 89520, Note_on_c, 9, 42, 39
1, 89530, Note_on_c, 9, 42, 0
1, 89760, Note_on_c, 9, 42, 43
1, 89770, Note_on_c, 9, 42, 0
1, 90000, Note_on_c, 9, 42, 34
1, 90000, Note_on_c, 9, 35, 102
1, 90001, Note_on_c, 9, 42, 0
1, 90060, Note_on_c, 9, 54, 21
1, 90119, Note_on_c, 9, 54, 0
1, 90120, Note_on_c, 9, 54, 22
1, 90149, Note_on_c, 9, 54, 0
1, 90150, Note_on_c, 9, 54, 25
1, 90179, Note_on_c, 9, 54, 0
1, 90180, Note_on_c, 9, 54, 30
1, 90209, Note_on_c, 9, 54, 0
1, 90210, Note_on_c, 9, 54, 33
1, 90239, Note_on_c, 9, 35, 0
1, 90239, Note_on_c, 9, 54, 0
1, 90240, Note_on_c, 9, 54, 37
1, 90269, Note_on_c, 9, 54, 0
1, 90270, Note_on_c, 9, 38, 110
1, 90270, Note_on_c, 9, 54, 40
1, 90270, Note_on_c, 9, 42, 42
1, 90273, Note_on_c, 9, 42, 0
1, 90359, Note_on_c, 9, 38, 0
1, 90359, Note_on_c, 9, 54, 0
1, 90480, Note_on_c, 9, 42, 41
1, 90484, Note_on_c, 9, 42, 0
1, 90600, Note_on_c, 9, 38, 120
1, 90719, Note_on_c, 9, 38, 0
1, 90720, Note_on_c, 9, 49, 63
1, 90720, Note_on_c, 9, 55, 62
1, 90720, Note_on_c, 9, 35, 102
1, 90730, Note_on_c, 9, 49, 0
1, 90730, Note_on_c, 9, 55, 0
1, 90960, Note_on_c, 9, 42, 40
1, 90970, Note_on_c, 9, 42, 0
1, 91199, Note_on_c, 9, 35, 0
1, 91200, Note_on_c, 9, 38, 109
1, 91200, Note_on_c, 9, 42, 39
1, 91210, Note_on_c, 9, 42, 0
1, 91439, Note_on_c, 9, 38, 0
1, 91440, Note_on_c, 9, 42, 39
1, 91450, Note_on_c, 9, 42, 0
1, 91710, Note_on_c, 9, 42, 39
1, 91713, Note_on_c, 9, 42, 0
1, 91920, Note_on_c, 9, 42, 38
1, 91920, Note_on_c, 9, 35, 107
1, 91930, Note_on_c, 9, 42, 0
1, 92159, Note_on_c, 9, 35, 0
1, 92160, Note_on_c, 9, 38, 112
1, 92160, Note_on_c, 9, 54, 79
1, 92160, Note_on_c, 9, 42, 42
1, 92170, Note_on_c, 9, 42, 0
1, 92399, Note_on_c, 9, 38, 0
1, 92399, Note_on_c, 9, 54, 0
1, 92400, Note_on_c, 9, 42, 39
1, 92410, Note_on_c, 9, 42, 0
1, 92640, Note_on_c, 9, 42, 40
1, 92640, Note_on_c, 9, 35, 106
1, 92650, Note_on_c, 9, 42, 0
1, 92880, Note_on_c, 9, 42, 35
1, 92890, Note_on_c, 9, 42, 0
1, 93119, Note_on_c, 9, 35, 0
1, 93120, Note_on_c, 9, 38, 109
1, 93120, Note_on_c, 9, 42, 43
1, 93130, Note_on_c, 9, 42, 0
1, 93359, Note_on_c, 9, 38, 0
1, 93360, Note_on_c, 9, 42, 41
1, 93370, Note_on_c, 9, 42, 0
1, 93600, Note_on_c, 9, 42, 41
1, 93610, Note_on_c, 9, 42, 0
1, 93840, Note_on_c, 9, 42, 38
1, 93840, Note_on_c, 9, 35, 106
1, 93850, Note_on_c, 9, 42, 0
1, 94079, Note_on_c, 9, 35, 0
1, 94080, Note_on_c, 9, 38, 110
1, 94080, Note_on_c, 9, 54, 81
1, 94080, Note_on_c, 9, 42, 41
1, 94090, Note_on_c, 9, 42, 0
1, 94319, Note_on_c, 9, 38, 0
1, 94319, Note_on_c, 9, 54, 0
1, 94320, Note_on_c, 9, 42, 40
1, 94330, Note_on_c, 9, 42, 0
1, 94560, Note_on_c, 9, 42, 41
1, 94560, Note_on_c, 9, 35, 102
1, 94570, Note_on_c, 9, 42, 0
1, 94800, Note_on_c, 9, 42, 40
1, 94810, Note_on_c, 9, 42, 0
1, 95039, Note_on_c, 9, 35, 0
1, 95040, Note_on_c, 9, 38, 114
1, 95040, Note_on_c, 9, 42, 43
1, 95050, Note_on_c, 9, 42, 0
1, 95279, Note_on_c, 9, 38, 0
1, 95280, Note_on_c, 9, 42, 36
1, 95290, Note_on_c, 9, 42, 0
1, 95520, Note_on_c, 9, 42, 37
1, 95530, Note_on_c, 9, 42, 0
1, 95760, Note_on_c, 9, 42, 37
1, 95760, Note_on_c, 9, 35, 102
1, 95770, Note_on_c, 9, 42, 0
1, 95999, Note_on_c, 9, 35, 0
1, 96000, Note_on_c, 9, 38, 112
1, 96000, Note_on_c, 9, 54, 87
1, 96000, Note_on_c, 9, 42, 40
1, 96010, Note_on_c, 9, 42, 0
1, 96239, Note_on_c, 9, 38, 0
1, 96239, Note_on_c, 9, 54, 0
1, 96240, Note_on_c, 9, 42, 39
1, 96250, Note_on_c, 9, 42, 0
1, 96480, Note_on_c, 9, 42, 42
1, 96480, Note_on_c, 9, 35, 106
1, 96490, Note_on_c, 9, 42, 0
1, 96720, Note_on_c, 9, 42, 34
1, 96730, Note_on_c, 9, 42, 0
1, 96959, Note_on_c, 9, 35, 0
1, 96960, Note_on_c, 9, 38, 118
1, 96960, Note_on_c, 9, 42, 43
1, 96970, Note_on_c, 9, 42, 0
1, 97199, Note_on_c, 9, 38, 0
1, 97200, Note_on_c, 9, 42, 37
1, 97210, Note_on_c, 9, 42, 0
1, 97440, Note_on_c, 9, 42, 45
1, 97447, Note_on_c, 9, 42, 0
1, 97650, Note_on_c, 9, 54, 22
1, 97679, Note_on_c, 9, 54, 0
1, 97680, Note_on_c, 9, 54, 24
1, 97695, Note_on_c, 9, 35, 106
1, 97739, Note_on_c, 9, 54, 0
1, 97739, Note_on_c, 9, 35, 0
1, 97740, Note_on_c, 9, 54, 26
1, 97769, Note_on_c, 9, 54, 0
1, 97785, Note_on_c, 9, 54, 30
1, 97829, Note_on_c, 9, 54, 0
1, 97830, Note_on_c, 9, 54, 31
1, 97830, Note_on_c, 9, 35, 98
1, 97889, Note_on_c, 9, 54, 0
1, 97890, Note_on_c, 9, 54, 33
1, 97919, Note_on_c, 9, 35, 0
1, 97919, Note_on_c, 9, 54, 0
1, 97920, Note_on_c, 9, 54, 35
1, 97949, Note_on_c, 9, 54, 0
1, 97950, Note_on_c, 9, 38, 105
1, 97950, Note_on_c, 9, 40, 108
1, 97950, Note_on_c, 9, 54, 40
1, 98399, Note_on_c, 9, 38, 0
1, 98399, Note_on_c, 9, 40, 0
1, 98399, Note_on_c, 9, 54, 0
1, 98460, Note_on_c, 9, 54, 71
1, 98460, Note_on_c, 9, 53, 85
1, 98460, Note_on_c, 9, 49, 72
1, 98460, Note_on_c, 9, 35, 102
1, 98464, Note_on_c, 9, 49, 0
1, 98579, Note_on_c, 9, 54, 0
1, 98579, Note_on_c, 9, 53, 0
1, 98580, Note_on_c, 9, 54, 31
1, 98639, Note_on_c, 9, 35, 0
1, 98639, Note_on_c, 9, 54, 0
1, 98700, Note_on_c, 9, 54, 27
1, 98759, Note_on_c, 9, 54, 0
1, 98760, Note_on_c, 9, 54, 36
1, 98760, Note_on_c, 9, 35, 107
1, 98879, Note_on_c, 9, 54, 0
1, 98879, Note_on_c, 9, 35, 0
1, 98880, Note_on_c, 9, 38, 112
1, 98880, Note_on_c, 9, 54, 61
1, 98880, Note_on_c, 9, 53, 103
1, 98999, Note_on_c, 9, 38, 0
1, 98999, Note_on_c, 9, 54, 0
1, 98999, Note_on_c, 9, 53, 0
1, 99000, Note_on_c, 9, 54, 30
1, 99119, Note_on_c, 9, 54, 0
1, 99120, Note_on_c, 9, 54, 34
1, 99120, Note_on_c, 9, 35, 102
1, 99239, Note_on_c, 9, 54, 0
1, 99240, Note_on_c, 9, 54, 38
1, 99359, Note_on_c, 9, 35, 0
1, 99359, Note_on_c, 9, 54, 0
1, 99360, Note_on_c, 9, 54, 51
1, 99360, Note_on_c, 9, 53, 100
1, 99479, Note_on_c, 9, 54, 0
1, 99479, Note_on_c, 9, 53, 0
1, 99480, Note_on_c, 9, 54, 33
1, 99599, Note_on_c, 9, 54, 0
1, 99600, Note_on_c, 9, 54, 43
1, 99600, Note_on_c, 9, 35, 103
1, 99719, Note_on_c, 9, 54, 0
1, 99720, Note_on_c, 9, 54, 37
1, 99839, Note_on_c, 9, 35, 0
1, 99839, Note_on_c, 9, 54, 0
1, 99840, Note_on_c, 9, 38, 107
1, 99840, Note_on_c, 9, 54, 58
1, 99840, Note_on_c, 9, 53, 102
1, 99959, Note_on_c, 9, 38, 0
1, 99959, Note_on_c, 9, 54, 0
1, 99959, Note_on_c, 9, 53, 0
1, 99960, Note_on_c, 9, 54, 38
1, 100079, Note_on_c, 9, 54, 0
1, 100080, Note_on_c, 9, 54, 40
1, 100199, Note_on_c, 9, 54, 0
1, 100200, Note_on_c, 9, 54, 38
1, 100319, Note_on_c, 9, 54, 0
1, 100320, Note_on_c, 9, 54, 53
1, 100320, Note_on_c, 9, 53, 99
1, 100320, Note_on_c, 9, 35, 105
1, 100439, Note_on_c, 9, 54, 0
1, 100439, Note_on_c, 9, 53, 0
1, 100440, Note_on_c, 9, 54, 31
1, 100559, Note_on_c, 9, 54, 0
1, 100560, Note_on_c, 9, 54, 38
1, 100679, Note_on_c, 9, 35, 0
1, 100679, Note_on_c, 9, 54, 0
1, 100680, Note_on_c, 9, 54, 36
1, 100680, Note_on_c, 9, 35, 105
1, 100799, Note_on_c, 9, 54, 0
1, 100799, Note_on_c, 9, 35, 0
1, 100800, Note_on_c, 9, 38, 109
1, 100800, Note_on_c, 9, 54, 53
1, 100800, Note_on_c, 9, 53, 101
1, 100919, Note_on_c, 9, 38, 0
1, 100919, Note_on_c, 9, 54, 0
1, 100919, Note_on_c, 9, 53, 0
1, 100920, Note_on_c, 9, 54, 34
1, 101039, Note_on_c, 9, 54, 0
1, 101040, Note_on_c, 9, 54, 42
1, 101040, Note_on_c, 9, 35, 103
1, 101159, Note_on_c, 9, 54, 0
1, 101160, Note_on_c, 9, 54, 35
1, 101279, Note_on_c, 9, 35, 0
1, 101279, Note_on_c, 9, 54, 0
1, 101280, Note_on_c, 9, 54, 58
1, 101280, Note_on_c, 9, 53, 104
1, 101399, Note_on_c, 9, 54, 0
1, 101399, Note_on_c, 9, 53, 0
1, 101400, Note_on_c, 9, 54, 34
1, 101519, Note_on_c, 9, 54, 0
1, 101535, Note_on_c, 9, 54, 36
1, 101535, Note_on_c, 9, 35, 101
1, 101579, Note_on_c, 9, 54, 0
1, 101670, Note_on_c, 9, 54, 33
1, 101759, Note_on_c, 9, 35, 0
1, 101759, Note_on_c, 9, 54, 0
1, 101790, Note_on_c, 9, 38, 110
1, 101790, Note_on_c, 9, 54, 61
1, 101790, Note_on_c, 9, 53, 102
1, 101879, Note_on_c, 9, 38, 0
1, 101879, Note_on_c, 9, 54, 0
1, 101879, Note_on_c, 9, 53, 0
1, 101880, Note_on_c, 9, 54, 32
1, 101999, Note_on_c, 9, 54, 0
1, 102000, Note_on_c, 9, 54, 41
1, 102119, Note_on_c, 9, 54, 0
1, 102120, Note_on_c, 9, 54, 36
1, 102239, Note_on_c, 9, 54, 0
1, 102240, Note_on_c, 9, 54, 59
1, 102240, Note_on_c, 9, 49, 91
1, 102240, Note_on_c, 9, 55, 91
1, 102240, Note_on_c, 9, 35, 103
1, 102244, Note_on_c, 9, 49, 0
1, 102244, Note_on_c, 9, 55, 0
1, 102359, Note_on_c, 9, 54, 0
1, 102360, Note_on_c, 9, 54, 23
1, 102479, Note_on_c, 9, 54, 0
1, 102480, Note_on_c, 9, 54, 46
1, 102599, Note_on_c, 9, 35, 0
1, 102599, Note_on_c, 9, 54, 0
1, 102600, Note_on_c, 9, 54, 36
1, 102600, Note_on_c, 9, 35, 100
1, 102719, Note_on_c, 9, 54, 0
1, 102719, Note_on_c, 9, 35, 0
1, 102720, Note_on_c, 9, 38, 106
1, 102720, Note_on_c, 9, 54, 57
1, 102720, Note_on_c, 9, 53, 100
1, 102839, Note_on_c, 9, 38, 0
1, 102839, Note_on_c, 9, 54, 0
1, 102839, Note_on_c, 9, 53, 0
1, 102840, Note_on_c, 9, 54, 41
1, 102959, Note_on_c, 9, 54, 0
1, 102960, Note_on_c, 9, 54, 45
1, 102960, Note_on_c, 9, 35, 99
1, 103079, Note_on_c, 9, 54, 0
1, 103080, Note_on_c, 9, 54, 35
1, 103199, Note_on_c, 9, 35, 0
1, 103199, Note_on_c, 9, 54, 0
1, 103200, Note_on_c, 9, 54, 57
1, 103200, Note_on_c, 9, 53, 100
1, 103319, Note_on_c, 9, 54, 0
1, 103319, Note_on_c, 9, 53, 0
1, 103320, Note_on_c, 9, 54, 36
1, 103439, Note_on_c, 9, 54, 0
1, 103440, Note_on_c, 9, 54, 47
1, 103440, Note_on_c, 9, 35, 103
1, 103559, Note_on_c, 9, 54, 0
1, 103560, Note_on_c, 9, 54, 38
1, 103679, Note_on_c, 9, 35, 0
1, 103679, Note_on_c, 9, 54, 0
1, 103680, Note_on_c, 9, 38, 112
1, 103680, Note_on_c, 9, 54, 58
1, 103680, Note_on_c, 9, 53, 101
1, 103799, Note_on_c, 9, 38, 0
1, 103799, Note_on_c, 9, 54, 0
1, 103799, Note_on_c, 9, 53, 0
1, 103800, Note_on_c, 9, 54, 37
1, 103919, Note_on_c, 9, 54, 0
1, 103920, Note_on_c, 9, 54, 47
1, 104039, Note_on_c, 9, 54, 0
1, 104040, Note_on_c, 9, 54, 34
1, 104159, Note_on_c, 9, 54, 0
1, 104160, Note_on_c, 9, 54, 57
1, 104160, Note_on_c, 9, 53, 100
1, 104160, Note_on_c, 9, 35, 105
1, 104279, Note_on_c, 9, 54, 0
1, 104279, Note_on_c, 9, 53, 0
1, 104280, Note_on_c, 9, 54, 33
1, 104399, Note_on_c, 9, 54, 0
1, 104400, Note_on_c, 9, 54, 50
1, 104519, Note_on_c, 9, 54, 0
1, 104520, Note_on_c, 9, 54, 38
1, 104639, Note_on_c, 9, 35, 0
1, 104639, Note_on_c, 9, 54, 0
1, 104640, Note_on_c, 9, 38, 107
1, 104640, Note_on_c, 9, 54, 53
1, 104640, Note_on_c, 9, 53, 97
1, 104759, Note_on_c, 9, 38, 0
1, 104759, Note_on_c, 9, 54, 0
1, 104759, Note_on_c, 9, 53, 0
1, 104760, Note_on_c, 9, 54, 44
1, 104879, Note_on_c, 9, 54, 0
1, 104880, Note_on_c, 9, 54, 48
1, 104999, Note_on_c, 9, 54, 0
1, 105000, Note_on_c, 9, 54, 38
1, 105119, Note_on_c, 9, 54, 0
1, 105120, Note_on_c, 9, 54, 61
1, 105120, Note_on_c, 9, 53, 101
1, 105239, Note_on_c, 9, 54, 0
1, 105239, Note_on_c, 9, 53, 0
1, 105240, Note_on_c, 9, 38, 110
1, 105240, Note_on_c, 9, 54, 29
1, 105359, Note_on_c, 9, 38, 0
1, 105359, Note_on_c, 9, 54, 0
1, 105360, Note_on_c, 9, 54, 47
1, 105360, Note_on_c, 9, 35, 110
1, 105479, Note_on_c, 9, 54, 0
1, 105479, Note_on_c, 9, 35, 0
1, 105480, Note_on_c, 9, 54, 44
1, 105480, Note_on_c, 9, 35, 109
1, 105599, Note_on_c, 9, 54, 0
1, 105599, Note_on_c, 9, 35, 0
1, 105630, Note_on_c, 9, 38, 118
1, 105630, Note_on_c, 9, 54, 58
1, 105630, Note_on_c, 9, 53, 106
1, 105719, Note_on_c, 9, 38, 0
1, 105719, Note_on_c, 9, 54, 0
1, 105719, Note_on_c, 9, 53, 0
1, 105720, Note_on_c, 9, 54, 41
1, 105839, Note_on_c, 9, 54, 0
1, 105840, Note_on_c, 9, 38, 114
1, 105840, Note_on_c, 9, 54, 52
1, 105959, Note_on_c, 9, 38, 0
1, 105959, Note_on_c, 9, 54, 0
1, 105960, Note_on_c, 9, 38, 112
1, 105960, Note_on_c, 9, 54, 41
1, 106079, Note_on_c, 9, 38, 0
1, 106079, Note_on_c, 9, 54, 0
1, 106080, Note_on_c, 9, 54, 61
1, 106080, Note_on_c, 9, 49, 98
1, 106080, Note_on_c, 9, 55, 97
1, 106080, Note_on_c, 9, 35, 113
1, 106084, Note_on_c, 9, 49, 0
1, 106084, Note_on_c, 9, 55, 0
1, 106199, Note_on_c, 9, 54, 0
1, 106200, Note_on_c, 9, 54, 36
1, 106319, Note_on_c, 9, 54, 0
1, 106320, Note_on_c, 9, 54, 41
1, 106439, Note_on_c, 9, 35, 0
1, 106439, Note_on_c, 9, 54, 0
1, 106440, Note_on_c, 9, 54, 38
1, 106455, Note_on_c, 9, 35, 105
1, 106499, Note_on_c, 9, 35, 0
1, 106559, Note_on_c, 9, 54, 0
1, 106560, Note_on_c, 9, 38, 110
1, 106560, Note_on_c, 9, 54, 52
1, 106560, Note_on_c, 9, 55, 107
1, 106564, Note_on_c, 9, 55, 0
1, 106679, Note_on_c, 9, 38, 0
1, 106679, Note_on_c, 9, 54, 0
1, 106680, Note_on_c, 9, 54, 40
1, 106799, Note_on_c, 9, 54, 0
1, 106800, Note_on_c, 9, 54, 54
1, 106800, Note_on_c, 9, 35, 100
1, 106919, Note_on_c, 9, 54, 0
1, 106920, Note_on_c, 9, 54, 33
1, 107039, Note_on_c, 9, 35, 0
1, 107039, Note_on_c, 9, 54, 0
1, 107040, Note_on_c, 9, 54, 57
1, 107040, Note_on_c, 9, 53, 96
1, 107159, Note_on_c, 9, 54, 0
1, 107159, Note_on_c, 9, 53, 0
1, 107160, Note_on_c, 9, 54, 38
1, 107279, Note_on_c, 9, 54, 0
1, 107280, Note_on_c, 9, 54, 51
1, 107280, Note_on_c, 9, 35, 102
1, 107399, Note_on_c, 9, 54, 0
1, 107400, Note_on_c, 9, 54, 36
1, 107519, Note_on_c, 9, 35, 0
1, 107519, Note_on_c, 9, 54, 0
1, 107520, Note_on_c, 9, 38, 110
1, 107520, Note_on_c, 9, 54, 57
1, 107520, Note_on_c, 9, 53, 99
1, 107639, Note_on_c, 9, 38, 0
1, 107639, Note_on_c, 9, 54, 0
1, 107639, Note_on_c, 9, 53, 0
1, 107640, Note_on_c, 9, 54, 38
1, 107759, Note_on_c, 9, 54, 0
1, 107760, Note_on_c, 9, 54, 54
1, 107879, Note_on_c, 9, 54, 0
1, 107880, Note_on_c, 9, 54, 39
1, 107999, Note_on_c, 9, 54, 0
1, 108000, Note_on_c, 9, 54, 59
1, 108000, Note_on_c, 9, 49, 90
1, 108000, Note_on_c, 9, 55, 92
1, 108000, Note_on_c, 9, 35, 106
1, 108004, Note_on_c, 9, 49, 0
1, 108004, Note_on_c, 9, 55, 0
1, 108119, Note_on_c, 9, 54, 0
1, 108120, Note_on_c, 9, 54, 32
1, 108239, Note_on_c, 9, 54, 0
1, 108240, Note_on_c, 9, 54, 41
1, 108359, Note_on_c, 9, 35, 0
1, 108359, Note_on_c, 9, 54, 0
1, 108360, Note_on_c, 9, 54, 35
1, 108360, Note_on_c, 9, 35, 105
1, 108479, Note_on_c, 9, 54, 0
1, 108479, Note_on_c, 9, 35, 0
1, 108480, Note_on_c, 9, 38, 118
1, 108480, Note_on_c, 9, 54, 61
1, 108480, Note_on_c, 9, 53, 100
1, 108599, Note_on_c, 9, 38, 0
1, 108599, Note_on_c, 9, 54, 0
1, 108599, Note_on_c, 9, 53, 0
1, 108600, Note_on_c, 9, 54, 39
1, 108719, Note_on_c, 9, 54, 0
1, 108720, Note_on_c, 9, 54, 50
1, 108720, Note_on_c, 9, 35, 106
1, 108839, Note_on_c, 9, 54, 0
1, 108840, Note_on_c, 9, 54, 38
1, 108959, Note_on_c, 9, 35, 0
1, 108959, Note_on_c, 9, 54, 0
1, 108960, Note_on_c, 9, 54, 58
1, 108960, Note_on_c, 9, 53, 102
1, 109079, Note_on_c, 9, 54, 0
1, 109079, Note_on_c, 9, 53, 0
1, 109080, Note_on_c, 9, 54, 36
1, 109199, Note_on_c, 9, 54, 0
1, 109200, Note_on_c, 9, 54, 53
1, 109200, Note_on_c, 9, 35, 103
1, 109319, Note_on_c, 9, 54, 0
1, 109320, Note_on_c, 9, 54, 23
1, 109439, Note_on_c, 9, 35, 0
1, 109439, Note_on_c, 9, 54, 0
1, 109440, Note_on_c, 9, 38, 118
1, 109440, Note_on_c, 9, 54, 58
1, 109440, Note_on_c, 9, 53, 105
1, 109559, Note_on_c, 9, 38, 0
1, 109559, Note_on_c, 9, 54, 0
1, 109559, Note_on_c, 9, 53, 0
1, 109560, Note_on_c, 9, 54, 32
1, 109679, Note_on_c, 9, 54, 0
1, 109680, Note_on_c, 9, 38, 106
1, 109680, Note_on_c, 9, 54, 54
1, 109799, Note_on_c, 9, 38, 0
1, 109799, Note_on_c, 9, 54, 0
1, 109800, Note_on_c, 9, 38, 104
1, 109800, Note_on_c, 9, 54, 45
1, 109919, Note_on_c, 9, 38, 0
1, 109919, Note_on_c, 9, 54, 0
1, 109920, Note_on_c, 9, 54, 54
1, 109920, Note_on_c, 9, 49, 99
1, 109920, Note_on_c, 9, 35, 106
1, 109924, Note_on_c, 9, 49, 0
1, 110039, Note_on_c, 9, 54, 0
1, 110040, Note_on_c, 9, 54, 41
1, 110159, Note_on_c, 9, 54, 0
1, 110160, Note_on_c, 9, 54, 48
1, 110279, Note_on_c, 9, 35, 0
1, 110279, Note_on_c, 9, 54, 0
1, 110280, Note_on_c, 9, 54, 41
1, 110280, Note_on_c, 9, 35, 105
1, 110399, Note_on_c, 9, 54, 0
1, 110399, Note_on_c, 9, 35, 0
1, 110400, Note_on_c, 9, 38, 109
1, 110400, Note_on_c, 9, 54, 62
1, 110400, Note_on_c, 9, 49, 94
1, 110400, Note_on_c, 9, 55, 92
1, 110404, Note_on_c, 9, 49, 0
1, 110404, Note_on_c, 9, 55, 0
1, 110519, Note_on_c, 9, 38, 0
1, 110519, Note_on_c, 9, 54, 0
1, 110520, Note_on_c, 9, 54, 31
1, 110639, Note_on_c, 9, 54, 0
1, 110640, Note_on_c, 9, 54, 51
1, 110640, Note_on_c, 9, 35, 99
1, 110759, Note_on_c, 9, 54, 0
1, 110760, Note_on_c, 9, 54, 39
1, 110879, Note_on_c, 9, 35, 0
1, 110879, Note_on_c, 9, 54, 0
1, 110880, Note_on_c, 9, 54, 55
1, 110880, Note_on_c, 9, 53, 95
1, 110999, Note_on_c, 9, 54, 0
1, 110999, Note_on_c, 9, 53, 0
1, 111000, Note_on_c, 9, 54, 32
1, 111119, Note_on_c, 9, 54, 0
1, 111120, Note_on_c, 9, 54, 53
1, 111120, Note_on_c, 9, 35, 101
1, 111239, Note_on_c, 9, 54, 0
1, 111240, Note_on_c, 9, 54, 41
1, 111359, Note_on_c, 9, 35, 0
1, 111359, Note_on_c, 9, 54, 0
1, 111360, Note_on_c, 9, 38, 110
1, 111360, Note_on_c, 9, 54, 58
1, 111360, Note_on_c, 9, 53, 106
1, 111479, Note_on_c, 9, 38, 0
1, 111479, Note_on_c, 9, 54, 0
1, 111479, Note_on_c, 9, 53, 0
1, 111480, Note_on_c, 9, 54, 36
1, 111599, Note_on_c, 9, 54, 0
1, 111600, Note_on_c, 9, 54, 47
1, 111719, Note_on_c, 9, 54, 0
1, 111720, Note_on_c, 9, 54, 43
1, 111839, Note_on_c, 9, 54, 0
1, 111870, Note_on_c, 9, 54, 59
1, 111870, Note_on_c, 9, 49, 94
1, 111870, Note_on_c, 9, 55, 101
1, 111870, Note_on_c, 9, 35, 106
1, 111873, Note_on_c, 9, 49, 0
1, 111873, Note_on_c, 9, 55, 0
1, 111959, Note_on_c, 9, 54, 0
1, 111990, Note_on_c, 9, 54, 35
1, 112079, Note_on_c, 9, 54, 0
1, 112080, Note_on_c, 9, 54, 51
1, 112199, Note_on_c, 9, 54, 0
1, 112200, Note_on_c, 9, 54, 37
1, 112319, Note_on_c, 9, 35, 0
1, 112319, Note_on_c, 9, 54, 0
1, 112320, Note_on_c, 9, 38, 114
1, 112320, Note_on_c, 9, 54, 59
1, 112320, Note_on_c, 9, 53, 101
1, 112439, Note_on_c, 9, 38, 0
1, 112439, Note_on_c, 9, 54, 0
1, 112439, Note_on_c, 9, 53, 0
1, 112440, Note_on_c, 9, 54, 41
1, 112559, Note_on_c, 9, 54, 0
1, 112560, Note_on_c, 9, 38, 109
1, 112560, Note_on_c, 9, 54, 45
1, 112560, Note_on_c, 9, 43, 92
1, 112679, Note_on_c, 9, 38, 0
1, 112679, Note_on_c, 9, 54, 0
1, 112680, Note_on_c, 9, 54, 42
1, 112799, Note_on_c, 9, 43, 0
1, 112799, Note_on_c, 9, 54, 0
1, 112800, Note_on_c, 9, 41, 106
1, 112800, Note_on_c, 9, 38, 112
1, 112800, Note_on_c, 9, 54, 64
1, 112919, Note_on_c, 9, 41, 0
1, 112919, Note_on_c, 9, 38, 0
1, 112919, Note_on_c, 9, 54, 0
1, 112920, Note_on_c, 9, 54, 39
1, 113039, Note_on_c, 9, 54, 0
1, 113040, Note_on_c, 9, 54, 47
1, 113040, Note_on_c, 9, 43, 98
1, 113159, Note_on_c, 9, 54, 0
1, 113160, Note_on_c, 9, 54, 41
1, 113279, Note_on_c, 9, 43, 0
1, 113279, Note_on_c, 9, 54, 0
1, 113280, Note_on_c, 9, 54, 61
1, 113280, Note_on_c, 9, 48, 102
1, 113399, Note_on_c, 9, 54, 0
1, 113399, Note_on_c, 9, 48, 0
1, 113400, Note_on_c, 9, 54, 47
1, 113400, Note_on_c, 9, 47, 100
1, 113519, Note_on_c, 9, 54, 0
1, 113519, Note_on_c, 9, 47, 0
1, 113520, Note_on_c, 9, 54, 57
1, 113520, Note_on_c, 9, 43, 104
1, 113639, Note_on_c, 9, 54, 0
1, 113640, Note_on_c, 9, 41, 118
1, 113640, Note_on_c, 9, 54, 59
1, 113759, Note_on_c, 9, 43, 0
1, 113759, Note_on_c, 9, 41, 0
1, 113759, Note_on_c, 9, 54, 0
1, 113760, Note_on_c, 9, 54, 71
1, 113760, Note_on_c, 9, 49, 101
1, 113776, Note_on_c, 9, 49, 0
1, 113790, Note_on_c, 9, 35, 102
1, 114119, Note_on_c, 9, 54, 0
1, 114120, Note_on_c, 9, 46, 57
1, 114124, Note_on_c, 9, 46, 0
1, 114239, Note_on_c, 9, 35, 0
1, 114240, Note_on_c, 9, 54, 24
1, 114269, Note_on_c, 9, 54, 0
1, 114270, Note_on_c, 9, 54, 24
1, 114270, Note_on_c, 9, 80, 73
1, 114270, Note_on_c, 9, 42, 51
1, 114270, Note_on_c, 9, 42, 0
1, 114299, Note_on_c, 9, 54, 0
1, 114300, Note_on_c, 9, 54, 23
1, 114359, Note_on_c, 9, 80, 0
1, 114359, Note_on_c, 9, 54, 0
1, 114360, Note_on_c, 9, 54, 23
1, 114399, Note_on_c, 9, 54, 0
1, 114400, Note_on_c, 9, 54, 24
1, 114419, Note_on_c, 9, 54, 0
1, 114450, Note_on_c, 9, 54, 25
1, 114479, Note_on_c, 9, 54, 0
1, 114504, Note_on_c, 9, 54, 25
1, 114527, Note_on_c, 9, 54, 0
1, 114528, Note_on_c, 9, 54, 26
1, 114528, Note_on_c, 9, 42, 41
1, 114529, Note_on_c, 9, 42, 0
1, 114575, Note_on_c, 9, 54, 0
1, 114576, Note_on_c, 9, 54, 26
1, 114623, Note_on_c, 9, 54, 0
1, 114624, Note_on_c, 9, 54, 27
1, 114671, Note_on_c, 9, 54, 0
1, 114672, Note_on_c, 9, 54, 28
1, 114719, Note_on_c, 9, 54, 0
1, 114720, Note_on_c, 9, 54, 31
1, 114765, Note_on_c, 9, 35, 95
1, 114779, Note_on_c, 9, 54, 0
1, 114780, Note_on_c, 9, 54, 30
1, 114780, Note_on_c, 9, 42, 39
1, 114780, Note_on_c, 9, 42, 0
1, 114780, Note_on_c, 9, 55, 115
1, 114780, Note_on_c, 9, 55, 0
1, 114809, Note_on_c, 9, 54, 0
1, 114810, Note_on_c, 9, 54, 32
1, 114839, Note_on_c, 9, 54, 0
1, 114840, Note_on_c, 9, 54, 34
1, 114899, Note_on_c, 9, 54, 0
1, 114900, Note_on_c, 9, 54, 35
1, 114959, Note_on_c, 9, 35, 0
1, 114959, Note_on_c, 9, 54, 0
1, 114960, Note_on_c, 9, 54, 35
1, 114989, Note_on_c, 9, 54, 0
1, 114990, Note_on_c, 9, 54, 35
1, 115019, Note_on_c, 9, 54, 0
1, 115020, Note_on_c, 9, 54, 35
1, 115020, Note_on_c, 9, 42, 38
1, 115021, Note_on_c, 9, 42, 0
1, 115079, Note_on_c, 9, 54, 0
1, 115080, Note_on_c, 9, 54, 35
1, 115109, Note_on_c, 9, 54, 0
1, 115110, Note_on_c, 9, 54, 30
1, 115169, Note_on_c, 9, 54, 0
1, 115170, Note_on_c, 9, 54, 28
1, 115199, Note_on_c, 9, 54, 0
1, 115200, Note_on_c, 9, 54, 27
1, 115239, Note_on_c, 9, 54, 0
1, 115240, Note_on_c, 9, 54, 28
1, 115279, Note_on_c, 9, 54, 0
1, 115280, Note_on_c, 9, 54, 29
1, 115280, Note_on_c, 9, 80, 75
1, 115280, Note_on_c, 9, 42, 43
1, 115280, Note_on_c, 9, 42, 0
1, 115319, Note_on_c, 9, 54, 0
1, 115319, Note_on_c, 9, 80, 0
1, 115320, Note_on_c, 9, 54, 30
1, 115379, Note_on_c, 9, 54, 0
1, 115380, Note_on_c, 9, 54, 31
1, 115409, Note_on_c, 9, 54, 0
1, 115410, Note_on_c, 9, 54, 31
1, 115439, Note_on_c, 9, 54, 0
1, 115455, Note_on_c, 9, 54, 29
1, 115469, Note_on_c, 9, 54, 0
1, 115470, Note_on_c, 9, 54, 28
1, 115499, Note_on_c, 9, 54, 0
1, 115500, Note_on_c, 9, 54, 27
1, 115559, Note_on_c, 9, 54, 0
1, 115560, Note_on_c, 9, 54, 26
1, 115560, Note_on_c, 9, 42, 43
1, 115560, Note_on_c, 9, 42, 0
1, 115589, Note_on_c, 9, 54, 0
1, 115590, Note_on_c, 9, 54, 26
1, 115619, Note_on_c, 9, 54, 0
1, 115620, Note_on_c, 9, 54, 26
1, 115679, Note_on_c, 9, 54, 0
1, 115680, Note_on_c, 9, 54, 26
1, 115709, Note_on_c, 9, 54, 0
1, 115710, Note_on_c, 9, 54, 27
1, 115739, Note_on_c, 9, 54, 0
1, 115740, Note_on_c, 9, 54, 28
1, 115769, Note_on_c, 9, 54, 0
1, 115770, Note_on_c, 9, 54, 28
1, 115799, Note_on_c, 9, 54, 0
1, 115800, Note_on_c, 9, 54, 29
1, 115800, Note_on_c, 9, 35, 99
1, 115819, Note_on_c, 9, 54, 0
1, 115820, Note_on_c, 9, 54, 29
1, 115820, Note_on_c, 9, 55, 113
1, 115820, Note_on_c, 9, 55, 0
1, 115859, Note_on_c, 9, 54, 0
1, 115890, Note_on_c, 9, 54, 30
1, 115919, Note_on_c, 9, 54, 0
1, 115940, Note_on_c, 9, 54, 28
1, 115959, Note_on_c, 9, 54, 0
1, 115960, Note_on_c, 9, 54, 26
1, 115979, Note_on_c, 9, 54, 0
1, 115980, Note_on_c, 9, 54, 30
1, 116009, Note_on_c, 9, 54, 0
1, 116010, Note_on_c, 9, 54, 26
1, 116069, Note_on_c, 9, 54, 0
1, 116070, Note_on_c, 9, 54, 26
1, 116099, Note_on_c, 9, 54, 0
1, 116100, Note_on_c, 9, 54, 26
1, 116159, Note_on_c, 9, 35, 0
1, 116159, Note_on_c, 9, 54, 0
1, 116160, Note_on_c, 9, 54, 27
1, 116189, Note_on_c, 9, 54, 0
1, 116190, Note_on_c, 9, 54, 29
1, 116219, Note_on_c, 9, 54, 0
1, 116220, Note_on_c, 9, 54, 31
1, 116220, Note_on_c, 9, 46, 56
1, 116221, Note_on_c, 9, 46, 0
1, 116279, Note_on_c, 9, 54, 0
1, 116295, Note_on_c, 9, 54, 31
1, 116339, Note_on_c, 9, 54, 0
1, 116340, Note_on_c, 9, 54, 29
1, 116340, Note_on_c, 9, 80, 73
1, 116340, Note_on_c, 9, 42, 47
1, 116341, Note_on_c, 9, 42, 0
1, 116399, Note_on_c, 9, 54, 0
1, 116399, Note_on_c, 9, 80, 0
1, 116400, Note_on_c, 9, 54, 31
1, 116459, Note_on_c, 9, 54, 0
1, 116460, Note_on_c, 9, 54, 28
1, 116519, Note_on_c, 9, 54, 0
1, 116520, Note_on_c, 9, 54, 23
1, 116549, Note_on_c, 9, 54, 0
1, 116550, Note_on_c, 9, 54, 23
1, 116579, Note_on_c, 9, 54, 0
1, 116580, Note_on_c, 9, 54, 20
1, 116639, Note_on_c, 9, 54, 0
1, 116640, Note_on_c, 9, 54, 20
1, 116640, Note_on_c, 9, 42, 39
1, 116641, Note_on_c, 9, 42, 0
1, 116699, Note_on_c, 9, 54, 0
1, 116700, Note_on_c, 9, 54, 23
1, 116729, Note_on_c, 9, 54, 0
1, 116730, Note_on_c, 9, 54, 23
1, 116759, Note_on_c, 9, 54, 0
1, 116760, Note_on_c, 9, 54, 23
1, 116819, Note_on_c, 9, 54, 0
1, 116820, Note_on_c, 9, 54, 22
1, 116865, Note_on_c, 9, 35, 95
1, 116879, Note_on_c, 9, 54, 0
1, 116880, Note_on_c, 9, 54, 20
1, 116880, Note_on_c, 9, 42, 43
1, 116880, Note_on_c, 9, 55, 115
1, 116890, Note_on_c, 9, 42, 0
1, 116890, Note_on_c, 9, 55, 0
1, 117119, Note_on_c, 9, 35, 0
1, 117119, Note_on_c, 9, 54, 0
1, 117120, Note_on_c, 9, 42, 41
1, 117130, Note_on_c, 9, 42, 0
1, 117360, Note_on_c, 9, 80, 63
1, 117360, Note_on_c, 9, 42, 45
1, 117360, Note_on_c, 9, 55, 122
1, 117370, Note_on_c, 9, 42, 0
1, 117370, Note_on_c, 9, 55, 0
1, 117599, Note_on_c, 9, 80, 0
1, 117600, Note_on_c, 9, 42, 46
1, 117603, Note_on_c, 9, 42, 0
1, 117705, Note_on_c, 9, 54, 12
1, 117719, Note_on_c, 9, 54, 0
1, 117720, Note_on_c, 9, 54, 12
1, 117779, Note_on_c, 9, 54, 0
1, 117780, Note_on_c, 9, 54, 12
1, 117809, Note_on_c, 9, 54, 0
1, 117810, Note_on_c, 9, 54, 12
1, 117839, Note_on_c, 9, 54, 0
1, 117840, Note_on_c, 9, 54, 12
1, 117840, Note_on_c, 9, 55, 102
1, 117840, Note_on_c, 9, 35, 95
1, 117841, Note_on_c, 9, 55, 0
1, 117899, Note_on_c, 9, 54, 0
1, 117900, Note_on_c, 9, 54, 12
1, 117959, Note_on_c, 9, 54, 0
1, 117960, Note_on_c, 9, 54, 12
1, 117989, Note_on_c, 9, 54, 0
1, 117990, Note_on_c, 9, 54, 12
1, 118019, Note_on_c, 9, 54, 0
1, 118020, Note_on_c, 9, 54, 15
1, 118079, Note_on_c, 9, 35, 0
1, 118079, Note_on_c, 9, 54, 0
1, 118080, Note_on_c, 9, 54, 17
1, 118139, Note_on_c, 9, 54, 0
1, 118140, Note_on_c, 9, 54, 20
1, 118169, Note_on_c, 9, 54, 0
1, 118170, Note_on_c, 9, 54, 22
1, 118199, Note_on_c, 9, 54, 0
1, 118200, Note_on_c, 9, 54, 24
1, 118259, Note_on_c, 9, 54, 0
1, 118260, Note_on_c, 9, 54, 24
1, 118260, Note_on_c, 9, 46, 61
1, 118261, Note_on_c, 9, 46, 0
1, 118319, Note_on_c, 9, 54, 0
1, 118320, Note_on_c, 9, 54, 24
1, 118349, Note_on_c, 9, 54, 0
1, 118350, Note_on_c, 9, 54, 24
1, 118350, Note_on_c, 9, 80, 69
1, 118350, Note_on_c, 9, 42, 40
1, 118350, Note_on_c, 9, 42, 0
1, 118379, Note_on_c, 9, 54, 0
1, 118379, Note_on_c, 9, 80, 0
1, 118380, Note_on_c, 9, 54, 23
1, 118439, Note_on_c, 9, 54, 0
1, 118440, Note_on_c, 9, 54, 23
1, 118469, Note_on_c, 9, 54, 0
1, 118470, Note_on_c, 9, 54, 23
1, 118499, Note_on_c, 9, 54, 0
1, 118500, Note_on_c, 9, 54, 24
1, 118559, Note_on_c, 9, 54, 0
1, 118560, Note_on_c, 9, 54, 24
1, 118619, Note_on_c, 9, 54, 0
1, 118620, Note_on_c, 9, 54, 23
1, 118620, Note_on_c, 9, 42, 43
1, 118620, Note_on_c, 9, 42, 0
1, 118649, Note_on_c, 9, 54, 0
1, 118650, Note_on_c, 9, 54, 22
1, 118679, Note_on_c, 9, 54, 0
1, 118680, Note_on_c, 9, 54, 21
1, 118739, Note_on_c, 9, 54, 0
1, 118740, Note_on_c, 9, 54, 21
1, 118769, Note_on_c, 9, 54, 0
1, 118770, Note_on_c, 9, 54, 20
1, 118799, Note_on_c, 9, 54, 0
1, 118800, Note_on_c, 9, 54, 20
1, 118845, Note_on_c, 9, 35, 95
1, 118859, Note_on_c, 9, 54, 0
1, 118860, Note_on_c, 9, 54, 20
1, 118860, Note_on_c, 9, 42, 41
1, 118860, Note_on_c, 9, 42, 0
1, 118860, Note_on_c, 9, 55, 105
1, 118860, Note_on_c, 9, 55, 0
1, 118889, Note_on_c, 9, 54, 0
1, 118890, Note_on_c, 9, 54, 20
1, 118919, Note_on_c, 9, 54, 0
1, 118920, Note_on_c, 9, 54, 20
1, 118959, Note_on_c, 9, 54, 0
1, 118960, Note_on_c, 9, 54, 20
1, 118999, Note_on_c, 9, 54, 0
1, 119000, Note_on_c, 9, 54, 21
1, 119039, Note_on_c, 9, 35, 0
1, 119039, Note_on_c, 9, 54, 0
1, 119040, Note_on_c, 9, 54, 21
1, 119079, Note_on_c, 9, 54, 0
1, 119080, Note_on_c, 9, 54, 21
1, 119119, Note_on_c, 9, 54, 0
1, 119120, Note_on_c, 9, 54, 21
1, 119120, Note_on_c, 9, 42, 39
1, 119120, Note_on_c, 9, 42, 0
1, 119159, Note_on_c, 9, 54, 0
1, 119160, Note_on_c, 9, 54, 21
1, 119189, Note_on_c, 9, 54, 0
1, 119190, Note_on_c, 9, 54, 20
1, 119219, Note_on_c, 9, 54, 0
1, 119220, Note_on_c, 9, 54, 19
1, 119249, Note_on_c, 9, 54, 0
1, 119250, Note_on_c, 9, 54, 18
1, 119279, Note_on_c, 9, 54, 0
1, 119280, Note_on_c, 9, 54, 17
1, 119309, Note_on_c, 9, 54, 0
1, 119310, Note_on_c, 9, 54, 16
1, 119339, Note_on_c, 9, 54, 0
1, 119340, Note_on_c, 9, 54, 16
1, 119369, Note_on_c, 9, 54, 0
1, 119385, Note_on_c, 9, 54, 16
1, 119399, Note_on_c, 9, 54, 0
1, 119400, Note_on_c, 9, 54, 16
1, 119400, Note_on_c, 9, 80, 73
1, 119400, Note_on_c, 9, 42, 43
1, 119400, Note_on_c, 9, 55, 104
1, 119402, Note_on_c, 9, 42, 0
1, 119402, Note_on_c, 9, 55, 0
1, 119479, Note_on_c, 9, 54, 0
1, 119479, Note_on_c, 9, 80, 0
1, 119480, Note_on_c, 9, 54, 16
1, 119519, Note_on_c, 9, 54, 0
1, 119520, Note_on_c, 9, 54, 18
1, 119579, Note_on_c, 9, 54, 0
1, 119580, Note_on_c, 9, 54, 19
1, 119609, Note_on_c, 9, 54, 0
1, 119610, Note_on_c, 9, 54, 22
1, 119639, Note_on_c, 9, 54, 0
1, 119640, Note_on_c, 9, 54, 23
1, 119640, Note_on_c, 9, 42, 50
1, 119641, Note_on_c, 9, 42, 0
1, 119699, Note_on_c, 9, 54, 0
1, 119700, Note_on_c, 9, 54, 24
1, 119759, Note_on_c, 9, 54, 0
1, 119760, Note_on_c, 9, 54, 24
1, 119789, Note_on_c, 9, 54, 0
1, 119790, Note_on_c, 9, 54, 24
1, 119849, Note_on_c, 9, 54, 0
1, 119850, Note_on_c, 9, 54, 24
1, 119879, Note_on_c, 9, 54, 0
1, 119880, Note_on_c, 9, 54, 24
1, 119939, Note_on_c, 9, 54, 0
1, 119940, Note_on_c, 9, 54, 25
1, 119940, Note_on_c, 9, 49, 85
1, 119940, Note_on_c, 9, 55, 93
1, 119940, Note_on_c, 9, 35, 101
1, 119941, Note_on_c, 9, 49, 0
1, 119941, Note_on_c, 9, 55, 0
1, 119999, Note_on_c, 9, 54, 0
1, 119999, Note_on_c, 9, 35, 0
1, 120000, Note_on_c, 9, 54, 27
1, 120059, Note_on_c, 9, 54, 0
1, 120060, Note_on_c, 9, 54, 27
1, 120089, Note_on_c, 9, 54, 0
1, 120090, Note_on_c, 9, 54, 26
1, 120119, Note_on_c, 9, 54, 0
1, 120120, Note_on_c, 9, 54, 24
1, 120179, Note_on_c, 9, 54, 0
1, 120180, Note_on_c, 9, 54, 21
1, 120209, Note_on_c, 9, 54, 0
1, 120210, Note_on_c, 9, 54, 19
1, 120210, Note_on_c, 9, 46, 65
1, 120210, Note_on_c, 9, 46, 0
1, 120299, Note_on_c, 9, 54, 0
1, 120300, Note_on_c, 9, 54, 18
1, 120329, Note_on_c, 9, 54, 0
1, 120330, Note_on_c, 9, 54, 17
1, 120330, Note_on_c, 9, 46, 70
1, 120332, Note_on_c, 9, 46, 0
1, 120359, Note_on_c, 9, 54, 0
1, 120360, Note_on_c, 9, 54, 17
1, 120419, Note_on_c, 9, 54, 0
1, 120420, Note_on_c, 9, 54, 16
1, 120449, Note_on_c, 9, 54, 0
1, 120450, Note_on_c, 9, 54, 15
1, 120479, Note_on_c, 9, 54, 0
1, 120480, Note_on_c, 9, 38, 104
1, 120480, Note_on_c, 9, 54, 13
1, 120480, Note_on_c, 9, 80, 69
1, 120480, Note_on_c, 9, 42, 60
1, 120480, Note_on_c, 9, 42, 0
1, 120513, Note_on_c, 9, 54, 0
1, 120530, Note_on_c, 9, 38, 0
1, 120530, Note_on_c, 9, 80, 0
1, 120531, Note_on_c, 9, 54, 12
1, 120564, Note_on_c, 9, 54, 0
1, 120566, Note_on_c, 9, 54, 12
1, 120616, Note_on_c, 9, 54, 0
1, 120617, Note_on_c, 9, 54, 12
1, 120650, Note_on_c, 9, 54, 0
1, 120651, Note_on_c, 9, 54, 12
1, 120667, Note_on_c, 9, 54, 0
1, 120669, Note_on_c, 9, 54, 12
1, 120719, Note_on_c, 9, 54, 0
1, 120720, Note_on_c, 9, 38, 104
1, 120720, Note_on_c, 9, 54, 12
1, 120749, Note_on_c, 9, 38, 0
1, 120749, Note_on_c, 9, 54, 0
1, 120750, Note_on_c, 9, 54, 12
1, 120779, Note_on_c, 9, 54, 0
1, 120780, Note_on_c, 9, 54, 12
1, 120959, Note_on_c, 9, 54, 0
1, 120960, Note_on_c, 9, 54, 47
1, 120960, Note_on_c, 9, 35, 102
1, 121079, Note_on_c, 9, 54, 0
1, 121080, Note_on_c, 9, 38, 103
1, 121199, Note_on_c, 9, 38, 0
1, 121200, Note_on_c, 9, 38, 116
1, 121200, Note_on_c, 9, 54, 53
1, 121439, Note_on_c, 9, 35, 0
1, 121439, Note_on_c, 9, 38, 0
1, 121439, Note_on_c, 9, 54, 0
1, 121440, Note_on_c, 9, 38, 90
1, 121440, Note_on_c, 9, 54, 57
1, 121559, Note_on_c, 9, 38, 0
1, 121559, Note_on_c, 9, 54, 0
1, 121560, Note_on_c, 9, 38, 96
1, 121679, Note_on_c, 9, 38, 0
1, 121680, Note_on_c, 9, 38, 116
1, 121680, Note_on_c, 9, 54, 71
1, 121799, Note_on_c, 9, 38, 0
1, 121799, Note_on_c, 9, 54, 0
1, 121800, Note_on_c, 9, 38, 118
1, 121919, Note_on_c, 9, 38, 0
1, 121920, Note_on_c, 9, 54, 67
1, 121920, Note_on_c, 9, 49, 127
1, 121920, Note_on_c, 9, 35, 105
1, 121924, Note_on_c, 9, 49, 0
1, 122039, Note_on_c, 9, 54, 0
1, 122040, Note_on_c, 9, 54, 48
1, 122159, Note_on_c, 9, 54, 0
1, 122160, Note_on_c, 9, 54, 48
1, 122279, Note_on_c, 9, 35, 0
1, 122279, Note_on_c, 9, 54, 0
1, 122280, Note_on_c, 9, 54, 39
1, 122280, Note_on_c, 9, 35, 107
1, 122399, Note_on_c, 9, 54, 0
1, 122399, Note_on_c, 9, 35, 0
1, 122400, Note_on_c, 9, 38, 112
1, 122400, Note_on_c, 9, 54, 61
1, 122400, Note_on_c, 9, 53, 99
1, 122519, Note_on_c, 9, 38, 0
1, 122519, Note_on_c, 9, 54, 0
1, 122519, Note_on_c, 9, 53, 0
1, 122520, Note_on_c, 9, 54, 34
1, 122639, Note_on_c, 9, 54, 0
1, 122640, Note_on_c, 9, 54, 44
1, 122640, Note_on_c, 9, 35, 109
1, 122759, Note_on_c, 9, 54, 0
1, 122760, Note_on_c, 9, 54, 38
1, 122879, Note_on_c, 9, 35, 0
1, 122879, Note_on_c, 9, 54, 0
1, 122880, Note_on_c, 9, 54, 59
1, 122880, Note_on_c, 9, 53, 100
1, 122999, Note_on_c, 9, 54, 0
1, 122999, Note_on_c, 9, 53, 0
1, 123000, Note_on_c, 9, 54, 35
1, 123119, Note_on_c, 9, 54, 0
1, 123120, Note_on_c, 9, 54, 47
1, 123120, Note_on_c, 9, 35, 96
1, 123239, Note_on_c, 9, 54, 0
1, 123240, Note_on_c, 9, 54, 34
1, 123359, Note_on_c, 9, 35, 0
1, 123359, Note_on_c, 9, 54, 0
1, 123360, Note_on_c, 9, 38, 112
1, 123360, Note_on_c, 9, 54, 58
1, 123360, Note_on_c, 9, 53, 98
1, 123479, Note_on_c, 9, 38, 0
1, 123479, Note_on_c, 9, 54, 0
1, 123479, Note_on_c, 9, 53, 0
1, 123480, Note_on_c, 9, 54, 36
1, 123599, Note_on_c, 9, 54, 0
1, 123600, Note_on_c, 9, 54, 52
1, 123719, Note_on_c, 9, 54, 0
1, 123720, Note_on_c, 9, 54, 39
1, 123839, Note_on_c, 9, 54, 0
1, 123840, Note_on_c, 9, 54, 61
1, 123840, Note_on_c, 9, 53, 107
1, 123840, Note_on_c, 9, 35, 105
1, 123959, Note_on_c, 9, 54, 0
1, 123959, Note_on_c, 9, 53, 0
1, 123960, Note_on_c, 9, 54, 36
1, 124079, Note_on_c, 9, 54, 0
1, 124080, Note_on_c, 9, 54, 44
1, 124199, Note_on_c, 9, 35, 0
1, 124199, Note_on_c, 9, 54, 0
1, 124200, Note_on_c, 9, 54, 36
1, 124200, Note_on_c, 9, 35, 102
1, 124319, Note_on_c, 9, 54, 0
1, 124319, Note_on_c, 9, 35, 0
1, 124320, Note_on_c, 9, 38, 110
1, 124320, Note_on_c, 9, 54, 61
1, 124320, Note_on_c, 9, 53, 106
1, 124439, Note_on_c, 9, 38, 0
1, 124439, Note_on_c, 9, 54, 0
1, 124439, Note_on_c, 9, 53, 0
1, 124440, Note_on_c, 9, 54, 24
1, 124559, Note_on_c, 9, 54, 0
1, 124560, Note_on_c, 9, 54, 50
1, 124560, Note_on_c, 9, 35, 102
1, 124679, Note_on_c, 9, 54, 0
1, 124680, Note_on_c, 9, 54, 38
1, 124799, Note_on_c, 9, 35, 0
1, 124799, Note_on_c, 9, 54, 0
1, 124800, Note_on_c, 9, 54, 58
1, 124800, Note_on_c, 9, 53, 104
1, 124919, Note_on_c, 9, 54, 0
1, 124919, Note_on_c, 9, 53, 0
1, 124920, Note_on_c, 9, 54, 31
1, 125039, Note_on_c, 9, 54, 0
1, 125040, Note_on_c, 9, 54, 47
1, 125040, Note_on_c, 9, 35, 100
1, 125159, Note_on_c, 9, 54, 0
1, 125160, Note_on_c, 9, 54, 33
1, 125279, Note_on_c, 9, 35, 0
1, 125279, Note_on_c, 9, 54, 0
1, 125280, Note_on_c, 9, 38, 110
1, 125280, Note_on_c, 9, 54, 57
1, 125280, Note_on_c, 9, 53, 100
1, 125399, Note_on_c, 9, 38, 0
1, 125399, Note_on_c, 9, 54, 0
1, 125399, Note_on_c, 9, 53, 0
1, 125400, Note_on_c, 9, 54, 41
1, 125519, Note_on_c, 9, 54, 0
1, 125520, Note_on_c, 9, 38, 116
1, 125520, Note_on_c, 9, 54, 48
1, 125639, Note_on_c, 9, 38, 0
1, 125639, Note_on_c, 9, 54, 0
1, 125640, Note_on_c, 9, 38, 116
1, 125640, Note_on_c, 9, 54, 38
1, 125759, Note_on_c, 9, 38, 0
1, 125759, Note_on_c, 9, 54, 0
1, 125760, Note_on_c, 9, 54, 61
1, 125760, Note_on_c, 9, 53, 101
1, 125760, Note_on_c, 9, 35, 103
1, 125879, Note_on_c, 9, 54, 0
1, 125879, Note_on_c, 9, 53, 0
1, 125880, Note_on_c, 9, 54, 30
1, 125999, Note_on_c, 9, 54, 0
1, 126000, Note_on_c, 9, 54, 39
1, 126119, Note_on_c, 9, 35, 0
1, 126119, Note_on_c, 9, 54, 0
1, 126120, Note_on_c, 9, 54, 36
1, 126120, Note_on_c, 9, 35, 103
1, 126239, Note_on_c, 9, 54, 0
1, 126239, Note_on_c, 9, 35, 0
1, 126240, Note_on_c, 9, 38, 109
1, 126240, Note_on_c, 9, 54, 62
1, 126240, Note_on_c, 9, 53, 106
1, 126359, Note_on_c, 9, 38, 0
1, 126359, Note_on_c, 9, 54, 0
1, 126359, Note_on_c, 9, 53, 0
1, 126360, Note_on_c, 9, 54, 31
1, 126479, Note_on_c, 9, 54, 0
1, 126480, Note_on_c, 9, 54, 45
1, 126480, Note_on_c, 9, 35, 101
1, 126599, Note_on_c, 9, 54, 0
1, 126600, Note_on_c, 9, 54, 36
1, 126719, Note_on_c, 9, 35, 0
1, 126719, Note_on_c, 9, 54, 0
1, 126720, Note_on_c, 9, 54, 61
1, 126720, Note_on_c, 9, 53, 105
1, 126839, Note_on_c, 9, 54, 0
1, 126839, Note_on_c, 9, 53, 0
1, 126840, Note_on_c, 9, 54, 38
1, 126959, Note_on_c, 9, 54, 0
1, 126960, Note_on_c, 9, 54, 54
1, 126960, Note_on_c, 9, 35, 105
1, 127079, Note_on_c, 9, 54, 0
1, 127080, Note_on_c, 9, 54, 34
1, 127199, Note_on_c, 9, 35, 0
1, 127199, Note_on_c, 9, 54, 0
1, 127200, Note_on_c, 9, 38, 114
1, 127200, Note_on_c, 9, 54, 57
1, 127200, Note_on_c, 9, 53, 107
1, 127319, Note_on_c, 9, 38, 0
1, 127319, Note_on_c, 9, 54, 0
1, 127319, Note_on_c, 9, 53, 0
1, 127320, Note_on_c, 9, 54, 37
1, 127439, Note_on_c, 9, 54, 0
1, 127440, Note_on_c, 9, 54, 51
1, 127559, Note_on_c, 9, 54, 0
1, 127560, Note_on_c, 9, 54, 36
1, 127679, Note_on_c, 9, 54, 0
1, 127680, Note_on_c, 9, 54, 61
1, 127680, Note_on_c, 9, 49, 104
1, 127680, Note_on_c, 9, 35, 99
1, 127684, Note_on_c, 9, 49, 0
1, 127799, Note_on_c, 9, 54, 0
1, 127800, Note_on_c, 9, 54, 37
1, 127919, Note_on_c, 9, 54, 0
1, 127920, Note_on_c, 9, 54, 52
1, 128039, Note_on_c, 9, 35, 0
1, 128039, Note_on_c, 9, 54, 0
1, 128040, Note_on_c, 9, 54, 30
1, 128040, Note_on_c, 9, 35, 105
1, 128159, Note_on_c, 9, 54, 0
1, 128159, Note_on_c, 9, 35, 0
1, 128160, Note_on_c, 9, 38, 109
1, 128160, Note_on_c, 9, 54, 59
1, 128160, Note_on_c, 9, 46, 61
1, 128164, Note_on_c, 9, 46, 0
1, 128279, Note_on_c, 9, 38, 0
1, 128279, Note_on_c, 9, 54, 0
1, 128280, Note_on_c, 9, 54, 37
1, 128399, Note_on_c, 9, 54, 0
1, 128400, Note_on_c, 9, 38, 116
1, 128400, Note_on_c, 9, 54, 51
1, 128400, Note_on_c, 9, 46, 58
1, 128404, Note_on_c, 9, 46, 0
1, 128519, Note_on_c, 9, 38, 0
1, 128519, Note_on_c, 9, 54, 0
1, 128550, Note_on_c, 9, 54, 41
1, 128639, Note_on_c, 9, 54, 0
1, 128670, Note_on_c, 9, 54, 59
1, 128670, Note_on_c, 9, 46, 57
1, 128670, Note_on_c, 9, 35, 101
1, 128673, Note_on_c, 9, 46, 0
1, 128759, Note_on_c, 9, 54, 0
1, 128790, Note_on_c, 9, 38, 110
1, 128790, Note_on_c, 9, 54, 38
1, 128849, Note_on_c, 9, 38, 0
1, 128849, Note_on_c, 9, 54, 0
1, 128850, Note_on_c, 9, 38, 100
1, 128879, Note_on_c, 9, 38, 0
1, 128910, Note_on_c, 9, 38, 105
1, 128910, Note_on_c, 9, 54, 53
1, 128999, Note_on_c, 9, 38, 0
1, 128999, Note_on_c, 9, 54, 0
1, 129000, Note_on_c, 9, 38, 108
1, 129000, Note_on_c, 9, 54, 38
1, 129119, Note_on_c, 9, 35, 0
1, 129119, Note_on_c, 9, 38, 0
1, 129119, Note_on_c, 9, 54, 0
1, 129120, Note_on_c, 9, 38, 127
1, 129120, Note_on_c, 9, 54, 61
1, 129120, Note_on_c, 9, 46, 58
1, 129124, Note_on_c, 9, 46, 0
1, 129239, Note_on_c, 9, 38, 0
1, 129239, Note_on_c, 9, 54, 0
1, 129240, Note_on_c, 9, 54, 35
1, 129240, Note_on_c, 9, 47, 110
1, 129359, Note_on_c, 9, 54, 0
1, 129359, Note_on_c, 9, 47, 0
1, 129360, Note_on_c, 9, 45, 99
1, 129360, Note_on_c, 9, 54, 47
1, 129479, Note_on_c, 9, 45, 0
1, 129479, Note_on_c, 9, 54, 0
1, 129480, Note_on_c, 9, 54, 33
1, 129480, Note_on_c, 9, 43, 110
1, 129599, Note_on_c, 9, 54, 0
1, 129599, Note_on_c, 9, 43, 0
1, 129600, Note_on_c, 9, 54, 61
1, 129600, Note_on_c, 9, 49, 100
1, 129600, Note_on_c, 9, 35, 105
1, 129604, Note_on_c, 9, 49, 0
1, 129719, Note_on_c, 9, 54, 0
1, 129720, Note_on_c, 9, 54, 31
1, 129839, Note_on_c, 9, 54, 0
1, 129840, Note_on_c, 9, 54, 41
1, 129959, Note_on_c, 9, 35, 0
1, 129959, Note_on_c, 9, 54, 0
1, 129975, Note_on_c, 9, 54, 37
1, 129975, Note_on_c, 9, 35, 103
1, 130019, Note_on_c, 9, 54, 0
1, 130019, Note_on_c, 9, 35, 0
1, 130080, Note_on_c, 9, 38, 107
1, 130080, Note_on_c, 9, 54, 62
1, 130080, Note_on_c, 9, 53, 107
1, 130199, Note_on_c, 9, 38, 0
1, 130199, Note_on_c, 9, 54, 0
1, 130199, Note_on_c, 9, 53, 0
1, 130200, Note_on_c, 9, 54, 41
1, 130319, Note_on_c, 9, 54, 0
1, 130320, Note_on_c, 9, 54, 52
1, 130320, Note_on_c, 9, 35, 98
1, 130439, Note_on_c, 9, 54, 0
1, 130440, Note_on_c, 9, 54, 37
1, 130559, Note_on_c, 9, 35, 0
1, 130559, Note_on_c, 9, 54, 0
1, 130560, Note_on_c, 9, 54, 61
1, 130560, Note_on_c, 9, 53, 104
1, 130679, Note_on_c, 9, 54, 0
1, 130679, Note_on_c, 9, 53, 0
1, 130680, Note_on_c, 9, 54, 34
1, 130799, Note_on_c, 9, 54, 0
1, 130800, Note_on_c, 9, 54, 48
1, 130800, Note_on_c, 9, 35, 102
1, 130919, Note_on_c, 9, 54, 0
1, 130920, Note_on_c, 9, 54, 38
1, 131039, Note_on_c, 9, 35, 0
1, 131039, Note_on_c, 9, 54, 0
1, 131040, Note_on_c, 9, 38, 118
1, 131040, Note_on_c, 9, 54, 58
1, 131040, Note_on_c, 9, 53, 107
1, 131159, Note_on_c, 9, 38, 0
1, 131159, Note_on_c, 9, 54, 0
1, 131159, Note_on_c, 9, 53, 0
1, 131160, Note_on_c, 9, 54, 41
1, 131279, Note_on_c, 9, 54, 0
1, 131280, Note_on_c, 9, 54, 47
1, 131399, Note_on_c, 9, 54, 0
1, 131400, Note_on_c, 9, 54, 35
1, 131519, Note_on_c, 9, 54, 0
1, 131520, Note_on_c, 9, 54, 53
1, 131520, Note_on_c, 9, 49, 102
1, 131520, Note_on_c, 9, 35, 101
1, 131524, Note_on_c, 9, 49, 0
1, 131639, Note_on_c, 9, 54, 0
1, 131640, Note_on_c, 9, 54, 34
1, 131759, Note_on_c, 9, 54, 0
1, 131760, Note_on_c, 9, 54, 46
1, 131879, Note_on_c, 9, 35, 0
1, 131879, Note_on_c, 9, 54, 0
1, 131880, Note_on_c, 9, 54, 39
1, 131880, Note_on_c, 9, 35, 103
1, 131999, Note_on_c, 9, 54, 0
1, 131999, Note_on_c, 9, 35, 0
1, 132000, Note_on_c, 9, 38, 112
1, 132000, Note_on_c, 9, 54, 59
1, 132000, Note_on_c, 9, 53, 100
1, 132119, Note_on_c, 9, 38, 0
1, 132119, Note_on_c, 9, 54, 0
1, 132119, Note_on_c, 9, 53, 0
1, 132120, Note_on_c, 9, 54, 33
1, 132239, Note_on_c, 9, 54, 0
1, 132240, Note_on_c, 9, 54, 50
1, 132240, Note_on_c, 9, 35, 94
1, 132359, Note_on_c, 9, 54, 0
1, 132360, Note_on_c, 9, 54, 38
1, 132479, Note_on_c, 9, 35, 0
1, 132479, Note_on_c, 9, 54, 0
1, 132480, Note_on_c, 9, 54, 58
1, 132480, Note_on_c, 9, 53, 103
1, 132599, Note_on_c, 9, 54, 0
1, 132599, Note_on_c, 9, 53, 0
1, 132600, Note_on_c, 9, 54, 41
1, 132719, Note_on_c, 9, 54, 0
1, 132720, Note_on_c, 9, 54, 51
1, 132720, Note_on_c, 9, 35, 105
1, 132839, Note_on_c, 9, 54, 0
1, 132840, Note_on_c, 9, 54, 39
1, 132959, Note_on_c, 9, 35, 0
1, 132959, Note_on_c, 9, 54, 0
1, 132960, Note_on_c, 9, 38, 114
1, 132960, Note_on_c, 9, 54, 57
1, 132960, Note_on_c, 9, 53, 106
1, 133079, Note_on_c, 9, 38, 0
1, 133079, Note_on_c, 9, 54, 0
1, 133079, Note_on_c, 9, 53, 0
1, 133110, Note_on_c, 9, 54, 41
1, 133199, Note_on_c, 9, 54, 0
1, 133260, Note_on_c, 9, 38, 116
1, 133260, Note_on_c, 9, 54, 47
1, 133319, Note_on_c, 9, 38, 0
1, 133319, Note_on_c, 9, 54, 0
1, 133320, Note_on_c, 9, 38, 114
1, 133379, Note_on_c, 9, 38, 0
1, 133380, Note_on_c, 9, 38, 111
1, 133380, Note_on_c, 9, 54, 41
1, 133439, Note_on_c, 9, 38, 0
1, 133439, Note_on_c, 9, 54, 0
1, 133440, Note_on_c, 9, 38, 111
1, 133440, Note_on_c, 9, 35, 101
1, 133479, Note_on_c, 9, 38, 0
1, 133480, Note_on_c, 9, 54, 58
1, 133480, Note_on_c, 9, 49, 101
1, 133482, Note_on_c, 9, 49, 0
1, 133559, Note_on_c, 9, 54, 0
1, 133605, Note_on_c, 9, 54, 40
1, 133619, Note_on_c, 9, 54, 0
1, 133710, Note_on_c, 9, 54, 47
1, 133799, Note_on_c, 9, 35, 0
1, 133799, Note_on_c, 9, 54, 0
1, 133800, Note_on_c, 9, 54, 41
1, 133800, Note_on_c, 9, 35, 101
1, 133919, Note_on_c, 9, 54, 0
1, 133919, Note_on_c, 9, 35, 0
1, 133920, Note_on_c, 9, 38, 112
1, 133920, Note_on_c, 9, 54, 62
1, 133920, Note_on_c, 9, 53, 98
1, 134039, Note_on_c, 9, 38, 0
1, 134039, Note_on_c, 9, 54, 0
1, 134039, Note_on_c, 9, 53, 0
1, 134040, Note_on_c, 9, 54, 42
1, 134159, Note_on_c, 9, 54, 0
1, 134160, Note_on_c, 9, 54, 47
1, 134160, Note_on_c, 9, 35, 103
1, 134279, Note_on_c, 9, 54, 0
1, 134280, Note_on_c, 9, 54, 38
1, 134399, Note_on_c, 9, 35, 0
1, 134399, Note_on_c, 9, 54, 0
1, 134400, Note_on_c, 9, 54, 61
1, 134400, Note_on_c, 9, 53, 95
1, 134519, Note_on_c, 9, 54, 0
1, 134519, Note_on_c, 9, 53, 0
1, 134520, Note_on_c, 9, 54, 41
1, 134639, Note_on_c, 9, 54, 0
1, 134640, Note_on_c, 9, 54, 47
1, 134640, Note_on_c, 9, 35, 102
1, 134759, Note_on_c, 9, 54, 0
1, 134760, Note_on_c, 9, 54, 41
1, 134879, Note_on_c, 9, 35, 0
1, 134879, Note_on_c, 9, 54, 0
1, 134880, Note_on_c, 9, 38, 112
1, 134880, Note_on_c, 9, 54, 58
1, 134880, Note_on_c, 9, 53, 108
1, 134999, Note_on_c, 9, 38, 0
1, 134999, Note_on_c, 9, 54, 0
1, 134999, Note_on_c, 9, 53, 0
1, 135000, Note_on_c, 9, 54, 40
1, 135119, Note_on_c, 9, 54, 0
1, 135120, Note_on_c, 9, 54, 54
1, 135239, Note_on_c, 9, 54, 0
1, 135240, Note_on_c, 9, 54, 41
1, 135359, Note_on_c, 9, 54, 0
1, 135360, Note_on_c, 9, 54, 54
1, 135360, Note_on_c, 9, 49, 85
1, 135360, Note_on_c, 9, 35, 103
1, 135364, Note_on_c, 9, 49, 0
1, 135479, Note_on_c, 9, 54, 0
1, 135480, Note_on_c, 9, 38, 71
1, 135480, Note_on_c, 9, 54, 45
1, 135599, Note_on_c, 9, 38, 0
1, 135599, Note_on_c, 9, 54, 0
1, 135600, Note_on_c, 9, 38, 76
1, 135600, Note_on_c, 9, 54, 48
1, 135719, Note_on_c, 9, 38, 0
1, 135719, Note_on_c, 9, 54, 0
1, 135720, Note_on_c, 9, 38, 79
1, 135720, Note_on_c, 9, 54, 53
1, 135839, Note_on_c, 9, 35, 0
1, 135839, Note_on_c, 9, 38, 0
1, 135839, Note_on_c, 9, 54, 0
1, 135840, Note_on_c, 9, 54, 61
1, 135840, Note_on_c, 9, 50, 100
1, 135959, Note_on_c, 9, 54, 0
1, 135959, Note_on_c, 9, 50, 0
1, 135960, Note_on_c, 9, 48, 86
1, 136079, Note_on_c, 9, 48, 0
1, 136080, Note_on_c, 9, 45, 93
1, 136200, Note_on_c, 9, 43, 104
1, 136319, Note_on_c, 9, 45, 0
1, 136319, Note_on_c, 9, 43, 0
1, 136320, Note_on_c, 9, 38, 110
1, 136349, Note_on_c, 9, 38, 0
1, 136350, Note_on_c, 9, 38, 127
1, 136350, Note_on_c, 9, 54, 65
1, 136799, Note_on_c, 9, 38, 0
1, 136799, Note_on_c, 9, 54, 0
1, 136800, Note_on_c, 9, 35, 115
1, 137279, Note_on_c, 9, 35, 0
1, 137280, Note_on_c, 9, 54, 12
1, 137280, Note_on_c, 9, 55, 112
1, 137280, Note_on_c, 9, 35, 103
1, 137282, Note_on_c, 9, 55, 0
1, 137339, Note_on_c, 9, 54, 0
1, 137370, Note_on_c, 9, 54, 12
1, 137399, Note_on_c, 9, 54, 0
1, 137430, Note_on_c, 9, 54, 15
1, 137489, Note_on_c, 9, 54, 0
1, 137490, Note_on_c, 9, 54, 19
1, 137519, Note_on_c, 9, 54, 0
1, 137540, Note_on_c, 9, 54, 22
1, 137599, Note_on_c, 9, 54, 0
1, 137600, Note_on_c, 9, 54, 25
1, 137639, Note_on_c, 9, 54, 0
1, 137640, Note_on_c, 9, 54, 27
1, 137670, Note_on_c, 9, 46, 65
1, 137670, Note_on_c, 9, 46, 0
1, 137699, Note_on_c, 9, 54, 0
1, 137700, Note_on_c, 9, 54, 28
1, 137759, Note_on_c, 9, 35, 0
1, 137759, Note_on_c, 9, 54, 0
1, 137760, Note_on_c, 9, 54, 30
1, 137789, Note_on_c, 9, 54, 0
1, 137790, Note_on_c, 9, 54, 30
1, 137790, Note_on_c, 9, 80, 78
1, 137790, Note_on_c, 9, 42, 44
1, 137791, Note_on_c, 9, 42, 0
1, 137849, Note_on_c, 9, 54, 0
1, 137849, Note_on_c, 9, 80, 0
1, 137850, Note_on_c, 9, 54, 30
1, 137879, Note_on_c, 9, 54, 0
1, 137910, Note_on_c, 9, 54, 29
1, 137939, Note_on_c, 9, 54, 0
1, 137940, Note_on_c, 9, 54, 28
1, 137999, Note_on_c, 9, 54, 0
1, 138000, Note_on_c, 9, 54, 28
1, 138047, Note_on_c, 9, 54, 0
1, 138048, Note_on_c, 9, 54, 26
1, 138048, Note_on_c, 9, 42, 41
1, 138049, Note_on_c, 9, 42, 0
1, 138095, Note_on_c, 9, 54, 0
1, 138096, Note_on_c, 9, 54, 24
1, 138143, Note_on_c, 9, 54, 0
1, 138144, Note_on_c, 9, 54, 24
1, 138191, Note_on_c, 9, 54, 0
1, 138192, Note_on_c, 9, 54, 24
1, 138239, Note_on_c, 9, 54, 0
1, 138240, Note_on_c, 9, 54, 26
1, 138279, Note_on_c, 9, 54, 0
1, 138280, Note_on_c, 9, 54, 27
1, 138280, Note_on_c, 9, 42, 44
1, 138280, Note_on_c, 9, 42, 0
1, 138300, Note_on_c, 9, 35, 106
1, 138319, Note_on_c, 9, 54, 0
1, 138320, Note_on_c, 9, 54, 29
1, 138359, Note_on_c, 9, 54, 0
1, 138360, Note_on_c, 9, 54, 30
1, 138419, Note_on_c, 9, 54, 0
1, 138420, Note_on_c, 9, 54, 31
1, 138449, Note_on_c, 9, 54, 0
1, 138450, Note_on_c, 9, 54, 32
1, 138479, Note_on_c, 9, 35, 0
1, 138479, Note_on_c, 9, 54, 0
1, 138480, Note_on_c, 9, 54, 34
1, 138539, Note_on_c, 9, 54, 0
1, 138540, Note_on_c, 9, 54, 34
1, 138540, Note_on_c, 9, 42, 43
1, 138541, Note_on_c, 9, 42, 0
1, 138599, Note_on_c, 9, 54, 0
1, 138600, Note_on_c, 9, 54, 32
1, 138629, Note_on_c, 9, 54, 0
1, 138630, Note_on_c, 9, 54, 30
1, 138659, Note_on_c, 9, 54, 0
1, 138660, Note_on_c, 9, 54, 28
1, 138719, Note_on_c, 9, 54, 0
1, 138720, Note_on_c, 9, 54, 26
1, 138759, Note_on_c, 9, 54, 0
1, 138760, Note_on_c, 9, 54, 23
1, 138799, Note_on_c, 9, 54, 0
1, 138800, Note_on_c, 9, 54, 22
1, 138800, Note_on_c, 9, 80, 69
1, 138800, Note_on_c, 9, 42, 47
1, 138800, Note_on_c, 9, 42, 0
1, 138839, Note_on_c, 9, 54, 0
1, 138839, Note_on_c, 9, 80, 0
1, 138840, Note_on_c, 9, 54, 20
1, 138899, Note_on_c, 9, 54, 0
1, 138900, Note_on_c, 9, 54, 19
1, 138929, Note_on_c, 9, 54, 0
1, 138930, Note_on_c, 9, 54, 19
1, 138959, Note_on_c, 9, 54, 0
1, 138960, Note_on_c, 9, 54, 18
1, 139019, Note_on_c, 9, 54, 0
1, 139020, Note_on_c, 9, 54, 18
1, 139079, Note_on_c, 9, 54, 0
1, 139080, Note_on_c, 9, 54, 18
1, 139080, Note_on_c, 9, 42, 46
1, 139080, Note_on_c, 9, 42, 0
1, 139109, Note_on_c, 9, 54, 0
1, 139110, Note_on_c, 9, 54, 18
1, 139139, Note_on_c, 9, 54, 0
1, 139140, Note_on_c, 9, 54, 19
1, 139199, Note_on_c, 9, 54, 0
1, 139200, Note_on_c, 9, 54, 20
1, 139200, Note_on_c, 9, 55, 100
1, 139200, Note_on_c, 9, 55, 0
1, 139229, Note_on_c, 9, 54, 0
1, 139245, Note_on_c, 9, 54, 21
1, 139289, Note_on_c, 9, 54, 0
1, 139290, Note_on_c, 9, 54, 21
1, 139319, Note_on_c, 9, 54, 0
1, 139320, Note_on_c, 9, 54, 21
1, 139320, Note_on_c, 9, 55, 102
1, 139321, Note_on_c, 9, 55, 0
1, 139335, Note_on_c, 9, 35, 101
1, 139379, Note_on_c, 9, 54, 0
1, 139379, Note_on_c, 9, 35, 0
1, 139395, Note_on_c, 9, 54, 20
1, 139439, Note_on_c, 9, 54, 0
1, 139440, Note_on_c, 9, 54, 19
1, 139499, Note_on_c, 9, 54, 0
1, 139500, Note_on_c, 9, 54, 19
1, 139529, Note_on_c, 9, 54, 0
1, 139530, Note_on_c, 9, 54, 17
1, 139589, Note_on_c, 9, 54, 0
1, 139590, Note_on_c, 9, 54, 16
1, 139619, Note_on_c, 9, 54, 0
1, 139620, Note_on_c, 9, 54, 14
1, 139679, Note_on_c, 9, 54, 0
1, 139680, Note_on_c, 9, 54, 13
1, 139719, Note_on_c, 9, 54, 0
1, 139720, Note_on_c, 9, 54, 12
1, 139759, Note_on_c, 9, 54, 0
1, 139760, Note_on_c, 9, 54, 12
1, 139760, Note_on_c, 9, 46, 64
1, 139760, Note_on_c, 9, 46, 0
1, 139799, Note_on_c, 9, 54, 0
1, 139830, Note_on_c, 9, 54, 12
1, 139859, Note_on_c, 9, 54, 0
1, 139860, Note_on_c, 9, 54, 12
1, 139860, Note_on_c, 9, 80, 73
1, 139860, Note_on_c, 9, 42, 35
1, 139861, Note_on_c, 9, 42, 0
1, 139919, Note_on_c, 9, 54, 0
1, 139919, Note_on_c, 9, 80, 0
1, 139920, Note_on_c, 9, 54, 12
1, 139979, Note_on_c, 9, 54, 0
1, 139980, Note_on_c, 9, 54, 12
1, 140009, Note_on_c, 9, 54, 0
1, 140010, Note_on_c, 9, 54, 12
1, 140039, Note_on_c, 9, 54, 0
1, 140040, Note_on_c, 9, 54, 12
1, 140099, Note_on_c, 9, 54, 0
1, 140100, Note_on_c, 9, 54, 12
1, 140159, Note_on_c, 9, 54, 0
1, 140160, Note_on_c, 9, 54, 12
1, 140160, Note_on_c, 9, 42, 39
1, 140160, Note_on_c, 9, 42, 0
1, 140189, Note_on_c, 9, 54, 0
1, 140190, Note_on_c, 9, 54, 12
1, 140219, Note_on_c, 9, 54, 0
1, 140220, Note_on_c, 9, 54, 12
1, 140279, Note_on_c, 9, 54, 0
1, 140280, Note_on_c, 9, 54, 12
1, 140309, Note_on_c, 9, 54, 0
1, 140310, Note_on_c, 9, 54, 12
1, 140339, Note_on_c, 9, 54, 0
1, 140340, Note_on_c, 9, 54, 12
1, 140369, Note_on_c, 9, 54, 0
1, 140385, Note_on_c, 9, 54, 12
1, 140385, Note_on_c, 9, 42, 43
1, 140385, Note_on_c, 9, 35, 96
1, 140395, Note_on_c, 9, 42, 0
1, 140639, Note_on_c, 9, 54, 0
1, 140639, Note_on_c, 9, 35, 0
1, 140640, Note_on_c, 9, 42, 43
1, 140650, Note_on_c, 9, 42, 0
1, 140880, Note_on_c, 9, 46, 61
1, 140880, Note_on_c, 9, 80, 67
1, 140890, Note_on_c, 9, 46, 0
1, 141119, Note_on_c, 9, 80, 0
1, 141300, Note_on_c, 9, 55, 106
1, 141300, Note_on_c, 9, 35, 100
1, 141309, Note_on_c, 9, 55, 0
1, 141359, Note_on_c, 9, 35, 0
1, 141585, Note_on_c, 9, 46, 65
1, 141588, Note_on_c, 9, 46, 0
1, 141690, Note_on_c, 9, 54, 24
1, 141719, Note_on_c, 9, 54, 0
1, 141720, Note_on_c, 9, 54, 24
1, 141720, Note_on_c, 9, 80, 71
1, 141720, Note_on_c, 9, 42, 49
1, 141721, Note_on_c, 9, 42, 0
1, 141779, Note_on_c, 9, 54, 0
1, 141779, Note_on_c, 9, 80, 0
1, 141780, Note_on_c, 9, 54, 23
1, 141809, Note_on_c, 9, 54, 0
1, 141825, Note_on_c, 9, 54, 23
1, 141899, Note_on_c, 9, 54, 0
1, 141900, Note_on_c, 9, 54, 24
1, 141929, Note_on_c, 9, 54, 0
1, 141930, Note_on_c, 9, 54, 25
1, 141959, Note_on_c, 9, 54, 0
1, 141975, Note_on_c, 9, 54, 25
1, 142019, Note_on_c, 9, 54, 0
1, 142020, Note_on_c, 9, 54, 26
1, 142020, Note_on_c, 9, 42, 39
1, 142021, Note_on_c, 9, 42, 0
1, 142079, Note_on_c, 9, 54, 0
1, 142080, Note_on_c, 9, 54, 26
1, 142139, Note_on_c, 9, 54, 0
1, 142140, Note_on_c, 9, 54, 27
1, 142169, Note_on_c, 9, 54, 0
1, 142170, Note_on_c, 9, 54, 28
1, 142199, Note_on_c, 9, 54, 0
1, 142230, Note_on_c, 9, 54, 31
1, 142259, Note_on_c, 9, 54, 0
1, 142260, Note_on_c, 9, 54, 30
1, 142260, Note_on_c, 9, 42, 43
1, 142261, Note_on_c, 9, 42, 0
1, 142275, Note_on_c, 9, 35, 100
1, 142319, Note_on_c, 9, 54, 0
1, 142319, Note_on_c, 9, 35, 0
1, 142320, Note_on_c, 9, 54, 32
1, 142379, Note_on_c, 9, 54, 0
1, 142380, Note_on_c, 9, 54, 34
1, 142409, Note_on_c, 9, 54, 0
1, 142410, Note_on_c, 9, 54, 35
1, 142454, Note_on_c, 9, 54, 0
1, 142455, Note_on_c, 9, 54, 35
1, 142499, Note_on_c, 9, 54, 0
1, 142500, Note_on_c, 9, 54, 35
1, 142559, Note_on_c, 9, 54, 0
1, 142560, Note_on_c, 9, 54, 35
1, 142560, Note_on_c, 9, 42, 39
1, 142561, Note_on_c, 9, 42, 0
1, 142619, Note_on_c, 9, 54, 0
1, 142620, Note_on_c, 9, 54, 35
1, 142649, Note_on_c, 9, 54, 0
1, 142650, Note_on_c, 9, 54, 30
1, 142679, Note_on_c, 9, 54, 0
1, 142680, Note_on_c, 9, 54, 28
1, 142739, Note_on_c, 9, 54, 0
1, 142740, Note_on_c, 9, 54, 27
1, 142769, Note_on_c, 9, 54, 0
1, 142770, Note_on_c, 9, 54, 28
1, 142799, Note_on_c, 9, 54, 0
1, 142800, Note_on_c, 9, 54, 29
1, 142800, Note_on_c, 9, 80, 67
1, 142800, Note_on_c, 9, 42, 41
1, 142800, Note_on_c, 9, 42, 0
1, 142833, Note_on_c, 9, 54, 0
1, 142833, Note_on_c, 9, 80, 0
1, 142851, Note_on_c, 9, 54, 30
1, 142884, Note_on_c, 9, 54, 0
1, 142886, Note_on_c, 9, 54, 31
1, 142936, Note_on_c, 9, 54, 0
1, 142937, Note_on_c, 9, 54, 31
1, 142970, Note_on_c, 9, 54, 0
1, 142971, Note_on_c, 9, 54, 29
1, 143004, Note_on_c, 9, 54, 0
1, 143006, Note_on_c, 9, 54, 28
1, 143039, Note_on_c, 9, 54, 0
1, 143040, Note_on_c, 9, 54, 27
1, 143069, Note_on_c, 9, 54, 0
1, 143070, Note_on_c, 9, 54, 26
1, 143070, Note_on_c, 9, 42, 42
1, 143071, Note_on_c, 9, 42, 0
1, 143129, Note_on_c, 9, 54, 0
1, 143130, Note_on_c, 9, 54, 26
1, 143159, Note_on_c, 9, 54, 0
1, 143160, Note_on_c, 9, 54, 26
1, 143219, Note_on_c, 9, 54, 0
1, 143220, Note_on_c, 9, 54, 26
1, 143220, Note_on_c, 9, 55, 107
1, 143220, Note_on_c, 9, 55, 0
1, 143249, Note_on_c, 9, 54, 0
1, 143250, Note_on_c, 9, 54, 27
1, 143279, Note_on_c, 9, 54, 0
1, 143280, Note_on_c, 9, 54, 28
1, 143309, Note_on_c, 9, 54, 0
1, 143310, Note_on_c, 9, 54, 28
1, 143339, Note_on_c, 9, 54, 0
1, 143340, Note_on_c, 9, 54, 29
1, 143340, Note_on_c, 9, 35, 101
1, 143354, Note_on_c, 9, 54, 0
1, 143355, Note_on_c, 9, 54, 29
1, 143355, Note_on_c, 9, 55, 100
1, 143356, Note_on_c, 9, 55, 0
1, 143399, Note_on_c, 9, 54, 0
1, 143400, Note_on_c, 9, 54, 30
1, 143439, Note_on_c, 9, 54, 0
1, 143440, Note_on_c, 9, 54, 30
1, 143459, Note_on_c, 9, 54, 0
1, 143490, Note_on_c, 9, 54, 28
1, 143519, Note_on_c, 9, 35, 0
1, 143519, Note_on_c, 9, 54, 0
1, 143520, Note_on_c, 9, 54, 26
1, 143567, Note_on_c, 9, 54, 0
1, 143568, Note_on_c, 9, 54, 26
1, 143615, Note_on_c, 9, 54, 0
1, 143616, Note_on_c, 9, 54, 26
1, 143663, Note_on_c, 9, 54, 0
1, 143664, Note_on_c, 9, 54, 26
1, 143711, Note_on_c, 9, 54, 0
1, 143712, Note_on_c, 9, 54, 27
1, 143759, Note_on_c, 9, 54, 0
1, 143760, Note_on_c, 9, 54, 29
1, 143789, Note_on_c, 9, 54, 0
1, 143790, Note_on_c, 9, 54, 31
1, 143790, Note_on_c, 9, 46, 53
1, 143791, Note_on_c, 9, 46, 0
1, 143849, Note_on_c, 9, 54, 0
1, 143850, Note_on_c, 9, 54, 31
1, 143879, Note_on_c, 9, 54, 0
1, 143900, Note_on_c, 9, 54, 29
1, 143900, Note_on_c, 9, 80, 75
1, 143900, Note_on_c, 9, 42, 45
1, 143900, Note_on_c, 9, 42, 0
1, 143939, Note_on_c, 9, 80, 0
1, 143959, Note_on_c, 9, 54, 0
1, 143960, Note_on_c, 9, 54, 31
1, 143999, Note_on_c, 9, 54, 0
1, 144000, Note_on_c, 9, 54, 28
1, 144059, Note_on_c, 9, 54, 0
1, 144060, Note_on_c, 9, 54, 23
1, 144089, Note_on_c, 9, 54, 0
1, 144090, Note_on_c, 9, 54, 23
1, 144119, Note_on_c, 9, 54, 0
1, 144120, Note_on_c, 9, 54, 20
1, 144179, Note_on_c, 9, 54, 0
1, 144180, Note_on_c, 9, 54, 20
1, 144180, Note_on_c, 9, 42, 39
1, 144181, Note_on_c, 9, 42, 0
1, 144239, Note_on_c, 9, 54, 0
1, 144240, Note_on_c, 9, 54, 23
1, 144269, Note_on_c, 9, 54, 0
1, 144270, Note_on_c, 9, 54, 23
1, 144299, Note_on_c, 9, 54, 0
1, 144300, Note_on_c, 9, 54, 23
1, 144359, Note_on_c, 9, 54, 0
1, 144360, Note_on_c, 9, 54, 22
1, 144419, Note_on_c, 9, 54, 0
1, 144420, Note_on_c, 9, 54, 20
1, 144420, Note_on_c, 9, 42, 48
1, 144420, Note_on_c, 9, 35, 99
1, 144421, Note_on_c, 9, 42, 0
1, 144479, Note_on_c, 9, 54, 0
1, 144479, Note_on_c, 9, 35, 0
1, 144660, Note_on_c, 9, 42, 44
1, 144661, Note_on_c, 9, 42, 0
1, 144795, Note_on_c, 9, 42, 48
1, 144800, Note_on_c, 9, 42, 0
1, 144930, Note_on_c, 9, 46, 68
1, 144930, Note_on_c, 9, 46, 0
1, 145290, Note_on_c, 9, 54, 33
1, 145319, Note_on_c, 9, 54, 0
1, 145344, Note_on_c, 9, 54, 40
1, 145367, Note_on_c, 9, 54, 0
1, 145368, Note_on_c, 9, 54, 56
1, 145391, Note_on_c, 9, 54, 0
1, 145392, Note_on_c, 9, 54, 58
1, 145415, Note_on_c, 9, 54, 0
1, 145416, Note_on_c, 9, 54, 57
1, 145416, Note_on_c, 9, 49, 62
1, 145416, Note_on_c, 9, 49, 0
1, 145416, Note_on_c, 9, 55, 65
1, 145416, Note_on_c, 9, 55, 0
1, 145425, Note_on_c, 9, 35, 101
1, 145439, Note_on_c, 9, 54, 0
1, 145440, Note_on_c, 9, 54, 60
1, 145679, Note_on_c, 9, 54, 0
1, 145680, Note_on_c, 9, 38, 71
1, 145919, Note_on_c, 9, 35, 0
1, 145919, Note_on_c, 9, 38, 0
1, 145935, Note_on_c, 9, 38, 73
1, 146339, Note_on_c, 9, 38, 0
1, 146340, Note_on_c, 9, 38, 28
1, 146369, Note_on_c, 9, 38, 0
1, 146370, Note_on_c, 9, 38, 30
1, 146399, Note_on_c, 9, 38, 0
1, 146400, Note_on_c, 9, 38, 32
1, 146419, Note_on_c, 9, 38, 0
1, 146420, Note_on_c, 9, 38, 38
1, 146439, Note_on_c, 9, 38, 0
1, 146440, Note_on_c, 9, 38, 58
1, 146459, Note_on_c, 9, 38, 0
1, 146520, Note_on_c, 9, 38, 62
1, 146639, Note_on_c, 9, 38, 0
1, 146640, Note_on_c, 9, 38, 66
1, 146729, Note_on_c, 9, 38, 0
1, 146730, Note_on_c, 9, 38, 65
1, 146759, Note_on_c, 9, 38, 0
1, 146820, Note_on_c, 9, 38, 79
1, 146879, Note_on_c, 9, 38, 0
1, 147180, Note_on_c, 9, 38, 25
1, 147239, Note_on_c, 9, 38, 0
1, 147240, Note_on_c, 9, 38, 26
1, 147269, Note_on_c, 9, 38, 0
1, 147270, Note_on_c, 9, 38, 31
1, 147299, Note_on_c, 9, 38, 0
1, 147300, Note_on_c, 9, 38, 36
1, 147329, Note_on_c, 9, 38, 0
1, 147330, Note_on_c, 9, 38, 44
1, 147359, Note_on_c, 9, 38, 0
1, 147360, Note_on_c, 9, 38, 73
1, 147599, Note_on_c, 9, 38, 0
1, 147600, Note_on_c, 9, 38, 67
1, 147839, Note_on_c, 9, 38, 0
1, 147840, Note_on_c, 9, 38, 87
1, 148199, Note_on_c, 9, 38, 0
1, 148230, Note_on_c, 9, 38, 31
1, 148259, Note_on_c, 9, 38, 0
1, 148260, Note_on_c, 9, 38, 35
1, 148289, Note_on_c, 9, 38, 0
1, 148290, Note_on_c, 9, 38, 36
1, 148319, Note_on_c, 9, 38, 0
1, 148320, Note_on_c, 9, 38, 52
1, 148349, Note_on_c, 9, 38, 0
1, 148350, Note_on_c, 9, 38, 79
1, 148439, Note_on_c, 9, 38, 0
1, 148470, Note_on_c, 9, 38, 62
1, 148559, Note_on_c, 9, 38, 0
1, 148560, Note_on_c, 9, 38, 64
1, 148679, Note_on_c, 9, 38, 0
1, 148695, Note_on_c, 9, 38, 66
1, 148739, Note_on_c, 9, 38, 0
1, 148800, Note_on_c, 9, 38, 73
1, 149159, Note_on_c, 9, 38, 0
1, 149160, Note_on_c, 9, 38, 30
1, 149189, Note_on_c, 9, 38, 0
1, 149190, Note_on_c, 9, 38, 31
1, 149219, Note_on_c, 9, 38, 0
1, 149220, Note_on_c, 9, 38, 34
1, 149249, Note_on_c, 9, 38, 0
1, 149250, Note_on_c, 9, 38, 38
1, 149279, Note_on_c, 9, 38, 0
1, 149280, Note_on_c, 9, 38, 44
1, 149309, Note_on_c, 9, 38, 0
1, 149310, Note_on_c, 9, 38, 60
1, 149399, Note_on_c, 9, 38, 0
1, 149520, Note_on_c, 9, 38, 62
1, 149759, Note_on_c, 9, 38, 0
1, 149760, Note_on_c, 9, 38, 87
1, 150119, Note_on_c, 9, 38, 0
1, 150150, Note_on_c, 9, 38, 31
1, 150179, Note_on_c, 9, 38, 0
1, 150180, Note_on_c, 9, 38, 35
1, 150209, Note_on_c, 9, 38, 0
1, 150210, Note_on_c, 9, 38, 36
1, 150239, Note_on_c, 9, 38, 0
1, 150240, Note_on_c, 9, 38, 52
1, 150269, Note_on_c, 9, 38, 0
1, 150270, Note_on_c, 9, 38, 79
1, 150359, Note_on_c, 9, 38, 0
1, 150390, Note_on_c, 9, 38, 62
1, 150479, Note_on_c, 9, 38, 0
1, 150480, Note_on_c, 9, 38, 64
1, 150599, Note_on_c, 9, 38, 0
1, 150615, Note_on_c, 9, 38, 66
1, 150659, Note_on_c, 9, 38, 0
1, 150720, Note_on_c, 9, 38, 73
1, 151079, Note_on_c, 9, 38, 0
1, 151110, Note_on_c, 9, 38, 30
1, 151139, Note_on_c, 9, 38, 0
1, 151140, Note_on_c, 9, 38, 33
1, 151169, Note_on_c, 9, 38, 0
1, 151170, Note_on_c, 9, 38, 35
1, 151199, Note_on_c, 9, 38, 0
1, 151200, Note_on_c, 9, 38, 38
1, 151229, Note_on_c, 9, 38, 0
1, 151230, Note_on_c, 9, 38, 40
1, 151259, Note_on_c, 9, 38, 0
1, 151260, Note_on_c, 9, 38, 66
1, 151439, Note_on_c, 9, 38, 0
1, 151440, Note_on_c, 9, 38, 62
1, 151679, Note_on_c, 9, 38, 0
1, 151680, Note_on_c, 9, 38, 87
1, 152039, Note_on_c, 9, 38, 0
1, 152070, Note_on_c, 9, 38, 31
1, 152099, Note_on_c, 9, 38, 0
1, 152100, Note_on_c, 9, 38, 35
1, 152129, Note_on_c, 9, 38, 0
1, 152130, Note_on_c, 9, 38, 36
1, 152159, Note_on_c, 9, 38, 0
1, 152160, Note_on_c, 9, 38, 52
1, 152189, Note_on_c, 9, 38, 0
1, 152190, Note_on_c, 9, 38, 79
1, 152279, Note_on_c, 9, 38, 0
1, 152310, Note_on_c, 9, 38, 62
1, 152399, Note_on_c, 9, 38, 0
1, 152400, Note_on_c, 9, 38, 64
1, 152519, Note_on_c, 9, 38, 0
1, 152535, Note_on_c, 9, 38, 66
1, 152579, Note_on_c, 9, 38, 0
1, 152640, Note_on_c, 9, 38, 73
1, 152879, Note_on_c, 9, 38, 0
1, 152910, Note_on_c, 9, 38, 59
1, 152939, Note_on_c, 9, 38, 0
1, 152940, Note_on_c, 9, 38, 46
1, 152999, Note_on_c, 9, 38, 0
1, 153000, Note_on_c, 9, 38, 35
1, 153029, Note_on_c, 9, 38, 0
1, 153030, Note_on_c, 9, 38, 39
1, 153059, Note_on_c, 9, 38, 0
1, 153060, Note_on_c, 9, 38, 45
1, 153119, Note_on_c, 9, 38, 0
1, 153120, Note_on_c, 9, 38, 51
1, 153149, Note_on_c, 9, 38, 0
1, 153150, Note_on_c, 9, 38, 59
1, 153150, Note_on_c, 9, 35, 107
1, 153239, Note_on_c, 9, 38, 0
1, 153360, Note_on_c, 9, 38, 62
1, 153599, Note_on_c, 9, 35, 0
1, 153599, Note_on_c, 9, 38, 0
1, 153615, Note_on_c, 9, 38, 87
1, 154019, Note_on_c, 9, 38, 0
1, 154020, Note_on_c, 9, 38, 31
1, 154049, Note_on_c, 9, 38, 0
1, 154065, Note_on_c, 9, 38, 35
1, 154079, Note_on_c, 9, 38, 0
1, 154080, Note_on_c, 9, 38, 36
1, 154109, Note_on_c, 9, 38, 0
1, 154110, Note_on_c, 9, 38, 52
1, 154139, Note_on_c, 9, 38, 0
1, 154140, Note_on_c, 9, 38, 79
1, 154259, Note_on_c, 9, 38, 0
1, 154260, Note_on_c, 9, 38, 62
1, 154319, Note_on_c, 9, 38, 0
1, 154350, Note_on_c, 9, 38, 64
1, 154439, Note_on_c, 9, 38, 0
1, 154440, Note_on_c, 9, 38, 66
1, 154559, Note_on_c, 9, 38, 0
1, 154560, Note_on_c, 9, 38, 73
1, 154919, Note_on_c, 9, 38, 0
1, 154920, Note_on_c, 9, 38, 29
1, 154949, Note_on_c, 9, 38, 0
1, 154950, Note_on_c, 9, 38, 32
1, 154979, Note_on_c, 9, 38, 0
1, 154980, Note_on_c, 9, 38, 37
1, 155009, Note_on_c, 9, 38, 0
1, 155010, Note_on_c, 9, 38, 42
1, 155039, Note_on_c, 9, 38, 0
1, 155040, Note_on_c, 9, 38, 47
1, 155069, Note_on_c, 9, 38, 0
1, 155070, Note_on_c, 9, 38, 63
1, 155070, Note_on_c, 9, 35, 106
1, 155159, Note_on_c, 9, 38, 0
1, 155310, Note_on_c, 9, 38, 62
1, 155399, Note_on_c, 9, 38, 0
1, 155519, Note_on_c, 9, 35, 0
1, 155520, Note_on_c, 9, 38, 87
1, 155879, Note_on_c, 9, 38, 0
1, 155910, Note_on_c, 9, 38, 31
1, 155939, Note_on_c, 9, 38, 0
1, 155955, Note_on_c, 9, 38, 35
1, 155969, Note_on_c, 9, 38, 0
1, 155970, Note_on_c, 9, 38, 36
1, 155999, Note_on_c, 9, 38, 0
1, 156000, Note_on_c, 9, 38, 52
1, 156029, Note_on_c, 9, 38, 0
1, 156030, Note_on_c, 9, 38, 79
1, 156119, Note_on_c, 9, 38, 0
1, 156150, Note_on_c, 9, 38, 62
1, 156239, Note_on_c, 9, 38, 0
1, 156240, Note_on_c, 9, 38, 64
1, 156359, Note_on_c, 9, 38, 0
1, 156375, Note_on_c, 9, 38, 66
1, 156419, Note_on_c, 9, 38, 0
1, 156480, Note_on_c, 9, 38, 73
1, 156839, Note_on_c, 9, 38, 0
1, 156870, Note_on_c, 9, 38, 27
1, 156884, Note_on_c, 9, 38, 0
1, 156885, Note_on_c, 9, 38, 30
1, 156899, Note_on_c, 9, 38, 0
1, 156900, Note_on_c, 9, 38, 31
1, 156929, Note_on_c, 9, 38, 0
1, 156930, Note_on_c, 9, 38, 33
1, 156959, Note_on_c, 9, 38, 0
1, 156960, Note_on_c, 9, 38, 41
1, 156989, Note_on_c, 9, 38, 0
1, 156990, Note_on_c, 9, 38, 63
1, 156990, Note_on_c, 9, 35, 102
1, 157079, Note_on_c, 9, 38, 0
1, 157200, Note_on_c, 9, 38, 62
1, 157439, Note_on_c, 9, 35, 0
1, 157439, Note_on_c, 9, 38, 0
1, 157440, Note_on_c, 9, 38, 87
1, 157799, Note_on_c, 9, 38, 0
1, 157830, Note_on_c, 9, 38, 31
1, 157859, Note_on_c, 9, 38, 0
1, 157860, Note_on_c, 9, 38, 35
1, 157889, Note_on_c, 9, 38, 0
1, 157890, Note_on_c, 9, 38, 36
1, 157919, Note_on_c, 9, 38, 0
1, 157920, Note_on_c, 9, 38, 52
1, 157949, Note_on_c, 9, 38, 0
1, 157950, Note_on_c, 9, 38, 79
1, 158039, Note_on_c, 9, 38, 0
1, 158070, Note_on_c, 9, 38, 62
1, 158159, Note_on_c, 9, 38, 0
1, 158160, Note_on_c, 9, 38, 64
1, 158279, Note_on_c, 9, 38, 0
1, 158280, Note_on_c, 9, 38, 66
1, 158399, Note_on_c, 9, 38, 0
1, 158400, Note_on_c, 9, 38, 73
1, 158759, Note_on_c, 9, 38, 0
1, 158760, Note_on_c, 9, 38, 30
1, 158779, Note_on_c, 9, 38, 0
1, 158780, Note_on_c, 9, 38, 31
1, 158819, Note_on_c, 9, 38, 0
1, 158820, Note_on_c, 9, 38, 34
1, 158849, Note_on_c, 9, 38, 0
1, 158850, Note_on_c, 9, 38, 38
1, 158879, Note_on_c, 9, 38, 0
1, 158880, Note_on_c, 9, 38, 46
1, 158909, Note_on_c, 9, 38, 0
1, 158910, Note_on_c, 9, 38, 69
1, 158910, Note_on_c, 9, 35, 102
1, 158999, Note_on_c, 9, 38, 0
1, 159120, Note_on_c, 9, 38, 62
1, 159359, Note_on_c, 9, 35, 0
1, 159359, Note_on_c, 9, 38, 0
1, 159360, Note_on_c, 9, 38, 87
1, 159719, Note_on_c, 9, 38, 0
1, 159750, Note_on_c, 9, 38, 31
1, 159779, Note_on_c, 9, 38, 0
1, 159780, Note_on_c, 9, 38, 35
1, 159809, Note_on_c, 9, 38, 0
1, 159810, Note_on_c, 9, 38, 36
1, 159839, Note_on_c, 9, 38, 0
1, 159840, Note_on_c, 9, 38, 52
1, 159869, Note_on_c, 9, 38, 0
1, 159870, Note_on_c, 9, 38, 79
1, 159959, Note_on_c, 9, 38, 0
1, 159990, Note_on_c, 9, 38, 62
1, 160079, Note_on_c, 9, 38, 0
1, 160080, Note_on_c, 9, 38, 64
1, 160199, Note_on_c, 9, 38, 0
1, 160215, Note_on_c, 9, 38, 66
1, 160259, Note_on_c, 9, 38, 0
1, 160320, Note_on_c, 9, 38, 73
1, 160559, Note_on_c, 9, 38, 0
1, 160560, Note_on_c, 9, 38, 64
1, 160589, Note_on_c, 9, 38, 0
1, 160590, Note_on_c, 9, 38, 63
1, 160619, Note_on_c, 9, 38, 0
1, 160620, Note_on_c, 9, 38, 37
1, 160649, Note_on_c, 9, 38, 0
1, 160650, Note_on_c, 9, 38, 40
1, 160679, Note_on_c, 9, 38, 0
1, 160680, Note_on_c, 9, 38, 43
1, 160719, Note_on_c, 9, 38, 0
1, 160720, Note_on_c, 9, 38, 46
1, 160739, Note_on_c, 9, 38, 0
1, 160770, Note_on_c, 9, 38, 65
1, 160799, Note_on_c, 9, 38, 0
1, 160800, Note_on_c, 9, 38, 71
1, 160800, Note_on_c, 9, 35, 95
1, 161039, Note_on_c, 9, 38, 0
1, 161040, Note_on_c, 9, 38, 62
1, 161279, Note_on_c, 9, 35, 0
1, 161279, Note_on_c, 9, 38, 0
1, 161280, Note_on_c, 9, 38, 87
1, 161639, Note_on_c, 9, 38, 0
1, 161670, Note_on_c, 9, 38, 31
1, 161699, Note_on_c, 9, 38, 0
1, 161715, Note_on_c, 9, 38, 35
1, 161729, Note_on_c, 9, 38, 0
1, 161730, Note_on_c, 9, 38, 36
1, 161759, Note_on_c, 9, 38, 0
1, 161760, Note_on_c, 9, 38, 52
1, 161799, Note_on_c, 9, 38, 0
1, 161800, Note_on_c, 9, 38, 79
1, 161819, Note_on_c, 9, 38, 0
1, 161940, Note_on_c, 9, 38, 62
1, 162089, Note_on_c, 9, 38, 0
1, 162090, Note_on_c, 9, 38, 64
1, 162239, Note_on_c, 9, 38, 0
1, 162240, Note_on_c, 9, 38, 66
1, 162359, Note_on_c, 9, 38, 0
1, 162360, Note_on_c, 9, 38, 73
1, 162719, Note_on_c, 9, 38, 0
1, 162720, Note_on_c, 9, 38, 30
1, 162749, Note_on_c, 9, 38, 0
1, 162750, Note_on_c, 9, 38, 35
1, 162779, Note_on_c, 9, 38, 0
1, 162780, Note_on_c, 9, 38, 42
1, 162794, Note_on_c, 9, 38, 0
1, 162795, Note_on_c, 9, 38, 45
1, 162809, Note_on_c, 9, 38, 0
1, 162810, Note_on_c, 9, 38, 70
1, 162810, Note_on_c, 9, 35, 102
1, 162839, Note_on_c, 9, 38, 0
1, 163020, Note_on_c, 9, 38, 62
1, 163199, Note_on_c, 9, 35, 0
1, 163199, Note_on_c, 9, 38, 0
1, 163200, Note_on_c, 9, 38, 87
1, 163559, Note_on_c, 9, 38, 0
1, 163590, Note_on_c, 9, 38, 31
1, 163619, Note_on_c, 9, 38, 0
1, 163620, Note_on_c, 9, 38, 35
1, 163649, Note_on_c, 9, 38, 0
1, 163650, Note_on_c, 9, 38, 36
1, 163679, Note_on_c, 9, 38, 0
1, 163680, Note_on_c, 9, 38, 52
1, 163709, Note_on_c, 9, 38, 0
1, 163710, Note_on_c, 9, 38, 79
1, 163799, Note_on_c, 9, 38, 0
1, 163830, Note_on_c, 9, 38, 62
1, 163919, Note_on_c, 9, 38, 0
1, 163950, Note_on_c, 9, 38, 64
1, 164039, Note_on_c, 9, 38, 0
1, 164070, Note_on_c, 9, 38, 66
1, 164159, Note_on_c, 9, 38, 0
1, 164190, Note_on_c, 9, 38, 73
1, 164519, Note_on_c, 9, 38, 0
1, 164550, Note_on_c, 9, 38, 127
1, 164639, Note_on_c, 9, 38, 0
1, 164670, Note_on_c, 9, 38, 127
1, 165119, Note_on_c, 9, 38, 0
1, 165240, Note_on_c, 9, 38, 127
1, 165359, Note_on_c, 9, 38, 0
1, 165360, Note_on_c, 9, 38, 127
1, 165599, Note_on_c, 9, 38, 0
1, 165810, Note_on_c, 9, 38, 123
1, 165839, Note_on_c, 9, 38, 0
1, 165840, Note_on_c, 9, 38, 127
1, 166079, Note_on_c, 9, 38, 0
1, 166080, Note_on_c, 9, 38, 127
1, 166199, Note_on_c, 9, 38, 0
1, 166200, Note_on_c, 9, 38, 121
1, 166319, Note_on_c, 9, 38, 0
1, 166320, Note_on_c, 9, 38, 127
1, 166439, Note_on_c, 9, 38, 0
1, 166440, Note_on_c, 9, 38, 127
1, 166529, Note_on_c, 9, 38, 0
1, 166545, Note_on_c, 9, 54, 67
1, 166545, Note_on_c, 9, 49, 92
1, 166545, Note_on_c, 9, 55, 100
1, 166548, Note_on_c, 9, 49, 0
1, 166548, Note_on_c, 9, 55, 0
1, 166560, Note_on_c, 9, 35, 102
1, 166604, Note_on_c, 9, 54, 0
1, 166680, Note_on_c, 9, 54, 41
1, 166799, Note_on_c, 9, 54, 0
1, 166800, Note_on_c, 9, 54, 52
1, 166889, Note_on_c, 9, 35, 0
1, 166905, Note_on_c, 9, 35, 100
1, 166919, Note_on_c, 9, 54, 0
1, 166920, Note_on_c, 9, 54, 47
1, 167039, Note_on_c, 9, 35, 0
1, 167039, Note_on_c, 9, 54, 0
1, 167040, Note_on_c, 9, 38, 114
1, 167040, Note_on_c, 9, 54, 64
1, 167040, Note_on_c, 9, 53, 97
1, 167159, Note_on_c, 9, 38, 0
1, 167159, Note_on_c, 9, 54, 0
1, 167159, Note_on_c, 9, 53, 0
1, 167160, Note_on_c, 9, 54, 34
1, 167279, Note_on_c, 9, 54, 0
1, 167280, Note_on_c, 9, 54, 47
1, 167280, Note_on_c, 9, 35, 102
1, 167399, Note_on_c, 9, 54, 0
1, 167400, Note_on_c, 9, 54, 45
1, 167519, Note_on_c, 9, 35, 0
1, 167519, Note_on_c, 9, 54, 0
1, 167520, Note_on_c, 9, 54, 61
1, 167520, Note_on_c, 9, 53, 95
1, 167639, Note_on_c, 9, 54, 0
1, 167639, Note_on_c, 9, 53, 0
1, 167640, Note_on_c, 9, 54, 35
1, 167759, Note_on_c, 9, 54, 0
1, 167760, Note_on_c, 9, 54, 47
1, 167760, Note_on_c, 9, 35, 98
1, 167879, Note_on_c, 9, 54, 0
1, 167910, Note_on_c, 9, 54, 34
1, 167999, Note_on_c, 9, 35, 0
1, 167999, Note_on_c, 9, 54, 0
1, 168030, Note_on_c, 9, 38, 114
1, 168030, Note_on_c, 9, 54, 57
1, 168030, Note_on_c, 9, 53, 97
1, 168119, Note_on_c, 9, 38, 0
1, 168119, Note_on_c, 9, 54, 0
1, 168119, Note_on_c, 9, 53, 0
1, 168150, Note_on_c, 9, 54, 29
1, 168239, Note_on_c, 9, 54, 0
1, 168270, Note_on_c, 9, 54, 45
1, 168359, Note_on_c, 9, 54, 0
1, 168360, Note_on_c, 9, 54, 44
1, 168479, Note_on_c, 9, 54, 0
1, 168480, Note_on_c, 9, 54, 59
1, 168480, Note_on_c, 9, 53, 98
1, 168480, Note_on_c, 9, 35, 99
1, 168599, Note_on_c, 9, 54, 0
1, 168599, Note_on_c, 9, 53, 0
1, 168600, Note_on_c, 9, 54, 36
1, 168719, Note_on_c, 9, 54, 0
1, 168720, Note_on_c, 9, 54, 47
1, 168839, Note_on_c, 9, 35, 0
1, 168839, Note_on_c, 9, 54, 0
1, 168840, Note_on_c, 9, 54, 41
1, 168840, Note_on_c, 9, 35, 103
1, 168959, Note_on_c, 9, 54, 0
1, 168959, Note_on_c, 9, 35, 0
1, 168960, Note_on_c, 9, 38, 103
1, 168960, Note_on_c, 9, 54, 53
1, 168960, Note_on_c, 9, 53, 97
1, 169079, Note_on_c, 9, 38, 0
1, 169079, Note_on_c, 9, 54, 0
1, 169079, Note_on_c, 9, 53, 0
1, 169080, Note_on_c, 9, 54, 38
1, 169199, Note_on_c, 9, 54, 0
1, 169200, Note_on_c, 9, 54, 48
1, 169200, Note_on_c, 9, 35, 96
1, 169319, Note_on_c, 9, 54, 0
1, 169320, Note_on_c, 9, 54, 20
1, 169439, Note_on_c, 9, 35, 0
1, 169439, Note_on_c, 9, 54, 0
1, 169440, Note_on_c, 9, 54, 53
1, 169440, Note_on_c, 9, 53, 100
1, 169559, Note_on_c, 9, 54, 0
1, 169559, Note_on_c, 9, 53, 0
1, 169560, Note_on_c, 9, 54, 38
1, 169679, Note_on_c, 9, 54, 0
1, 169680, Note_on_c, 9, 54, 51
1, 169680, Note_on_c, 9, 35, 101
1, 169799, Note_on_c, 9, 54, 0
1, 169830, Note_on_c, 9, 54, 35
1, 169919, Note_on_c, 9, 35, 0
1, 169919, Note_on_c, 9, 54, 0
1, 169950, Note_on_c, 9, 38, 114
1, 169950, Note_on_c, 9, 54, 54
1, 169950, Note_on_c, 9, 53, 100
1, 170039, Note_on_c, 9, 38, 0
1, 170039, Note_on_c, 9, 54, 0
1, 170039, Note_on_c, 9, 53, 0
1, 170070, Note_on_c, 9, 54, 37
1, 170159, Note_on_c, 9, 54, 0
1, 170220, Note_on_c, 9, 54, 50
1, 170324, Note_on_c, 9, 54, 0
1, 170325, Note_on_c, 9, 54, 40
1, 170399, Note_on_c, 9, 54, 0
1, 170430, Note_on_c, 9, 54, 59
1, 170430, Note_on_c, 9, 49, 87
1, 170430, Note_on_c, 9, 55, 84
1, 170430, Note_on_c, 9, 35, 99
1, 170433, Note_on_c, 9, 49, 0
1, 170433, Note_on_c, 9, 55, 0
1, 170519, Note_on_c, 9, 54, 0
1, 170580, Note_on_c, 9, 54, 36
1, 170639, Note_on_c, 9, 54, 0
1, 170670, Note_on_c, 9, 54, 42
1, 170759, Note_on_c, 9, 35, 0
1, 170759, Note_on_c, 9, 54, 0
1, 170760, Note_on_c, 9, 54, 34
1, 170760, Note_on_c, 9, 35, 100
1, 170879, Note_on_c, 9, 54, 0
1, 170879, Note_on_c, 9, 35, 0
1, 170880, Note_on_c, 9, 38, 110
1, 170880, Note_on_c, 9, 54, 58
1, 170880, Note_on_c, 9, 53, 97
1, 170999, Note_on_c, 9, 38, 0
1, 170999, Note_on_c, 9, 54, 0
1, 170999, Note_on_c, 9, 53, 0
1, 171000, Note_on_c, 9, 54, 26
1, 171119, Note_on_c, 9, 54, 0
1, 171120, Note_on_c, 9, 54, 44
1, 171120, Note_on_c, 9, 35, 101
1, 171239, Note_on_c, 9, 54, 0
1, 171240, Note_on_c, 9, 54, 39
1, 171359, Note_on_c, 9, 35, 0
1, 171359, Note_on_c, 9, 54, 0
1, 171360, Note_on_c, 9, 54, 54
1, 171360, Note_on_c, 9, 53, 95
1, 171479, Note_on_c, 9, 54, 0
1, 171479, Note_on_c, 9, 53, 0
1, 171480, Note_on_c, 9, 54, 31
1, 171599, Note_on_c, 9, 54, 0
1, 171600, Note_on_c, 9, 54, 47
1, 171600, Note_on_c, 9, 35, 101
1, 171719, Note_on_c, 9, 54, 0
1, 171720, Note_on_c, 9, 54, 33
1, 171839, Note_on_c, 9, 35, 0
1, 171839, Note_on_c, 9, 54, 0
1, 171840, Note_on_c, 9, 38, 118
1, 171840, Note_on_c, 9, 54, 55
1, 171840, Note_on_c, 9, 53, 99
1, 171959, Note_on_c, 9, 38, 0
1, 171959, Note_on_c, 9, 54, 0
1, 171959, Note_on_c, 9, 53, 0
1, 171960, Note_on_c, 9, 54, 36
1, 172079, Note_on_c, 9, 54, 0
1, 172080, Note_on_c, 9, 54, 31
1, 172199, Note_on_c, 9, 54, 0
1, 172200, Note_on_c, 9, 54, 36
1, 172319, Note_on_c, 9, 54, 0
1, 172320, Note_on_c, 9, 54, 59
1, 172320, Note_on_c, 9, 49, 85
1, 172320, Note_on_c, 9, 55, 87
1, 172320, Note_on_c, 9, 35, 102
1, 172324, Note_on_c, 9, 49, 0
1, 172324, Note_on_c, 9, 55, 0
1, 172439, Note_on_c, 9, 54, 0
1, 172440, Note_on_c, 9, 54, 32
1, 172559, Note_on_c, 9, 54, 0
1, 172560, Note_on_c, 9, 54, 50
1, 172679, Note_on_c, 9, 35, 0
1, 172679, Note_on_c, 9, 54, 0
1, 172680, Note_on_c, 9, 54, 35
1, 172680, Note_on_c, 9, 46, 56
1, 172680, Note_on_c, 9, 35, 101
1, 172684, Note_on_c, 9, 46, 0
1, 172799, Note_on_c, 9, 54, 0
1, 172799, Note_on_c, 9, 35, 0
1, 172800, Note_on_c, 9, 38, 110
1, 172800, Note_on_c, 9, 54, 59
1, 172800, Note_on_c, 9, 46, 53
1, 172804, Note_on_c, 9, 46, 0
1, 172919, Note_on_c, 9, 38, 0
1, 172919, Note_on_c, 9, 54, 0
1, 172920, Note_on_c, 9, 54, 34
1, 173039, Note_on_c, 9, 54, 0
1, 173040, Note_on_c, 9, 38, 106
1, 173040, Note_on_c, 9, 54, 47
1, 173040, Note_on_c, 9, 46, 48
1, 173044, Note_on_c, 9, 46, 0
1, 173159, Note_on_c, 9, 38, 0
1, 173159, Note_on_c, 9, 54, 0
1, 173160, Note_on_c, 9, 54, 36
1, 173279, Note_on_c, 9, 54, 0
1, 173280, Note_on_c, 9, 54, 58
1, 173280, Note_on_c, 9, 46, 44
1, 173280, Note_on_c, 9, 35, 96
1, 173284, Note_on_c, 9, 46, 0
1, 173399, Note_on_c, 9, 54, 0
1, 173400, Note_on_c, 9, 38, 92
1, 173400, Note_on_c, 9, 54, 36
1, 173519, Note_on_c, 9, 38, 0
1, 173519, Note_on_c, 9, 54, 0
1, 173520, Note_on_c, 9, 38, 109
1, 173520, Note_on_c, 9, 54, 47
1, 173639, Note_on_c, 9, 38, 0
1, 173639, Note_on_c, 9, 54, 0
1, 173640, Note_on_c, 9, 54, 35
1, 173759, Note_on_c, 9, 35, 0
1, 173759, Note_on_c, 9, 54, 0
1, 173760, Note_on_c, 9, 38, 116
1, 173760, Note_on_c, 9, 54, 57
1, 173879, Note_on_c, 9, 38, 0
1, 173879, Note_on_c, 9, 54, 0
1, 173880, Note_on_c, 9, 54, 41
1, 173999, Note_on_c, 9, 54, 0
1, 174000, Note_on_c, 9, 38, 107
1, 174000, Note_on_c, 9, 54, 43
1, 174119, Note_on_c, 9, 38, 0
1, 174119, Note_on_c, 9, 54, 0
1, 174120, Note_on_c, 9, 38, 112
1, 174120, Note_on_c, 9, 54, 41
1, 174239, Note_on_c, 9, 38, 0
1, 174239, Note_on_c, 9, 54, 0
1, 174240, Note_on_c, 9, 54, 59
1, 174240, Note_on_c, 9, 49, 101
1, 174240, Note_on_c, 9, 35, 100
1, 174244, Note_on_c, 9, 49, 0
1, 174359, Note_on_c, 9, 54, 0
1, 174360, Note_on_c, 9, 54, 33
1, 174479, Note_on_c, 9, 54, 0
1, 174480, Note_on_c, 9, 54, 50
1, 174599, Note_on_c, 9, 35, 0
1, 174599, Note_on_c, 9, 54, 0
1, 174600, Note_on_c, 9, 54, 31
1, 174600, Note_on_c, 9, 35, 103
1, 174719, Note_on_c, 9, 54, 0
1, 174719, Note_on_c, 9, 35, 0
1, 174720, Note_on_c, 9, 38, 110
1, 174720, Note_on_c, 9, 54, 55
1, 174720, Note_on_c, 9, 53, 95
1, 174839, Note_on_c, 9, 38, 0
1, 174839, Note_on_c, 9, 54, 0
1, 174839, Note_on_c, 9, 53, 0
1, 174840, Note_on_c, 9, 54, 32
1, 174959, Note_on_c, 9, 54, 0
1, 174960, Note_on_c, 9, 54, 51
1, 174960, Note_on_c, 9, 35, 95
1, 175079, Note_on_c, 9, 54, 0
1, 175080, Note_on_c, 9, 54, 36
1, 175199, Note_on_c, 9, 35, 0
1, 175199, Note_on_c, 9, 54, 0
1, 175200, Note_on_c, 9, 54, 59
1, 175200, Note_on_c, 9, 53, 97
1, 175319, Note_on_c, 9, 54, 0
1, 175319, Note_on_c, 9, 53, 0
1, 175320, Note_on_c, 9, 54, 21
1, 175439, Note_on_c, 9, 54, 0
1, 175440, Note_on_c, 9, 54, 47
1, 175440, Note_on_c, 9, 35, 99
1, 175559, Note_on_c, 9, 54, 0
1, 175560, Note_on_c, 9, 54, 33
1, 175679, Note_on_c, 9, 35, 0
1, 175679, Note_on_c, 9, 54, 0
1, 175680, Note_on_c, 9, 38, 104
1, 175680, Note_on_c, 9, 54, 59
1, 175680, Note_on_c, 9, 53, 95
1, 175799, Note_on_c, 9, 38, 0
1, 175799, Note_on_c, 9, 54, 0
1, 175799, Note_on_c, 9, 53, 0
1, 175800, Note_on_c, 9, 54, 33
1, 175919, Note_on_c, 9, 54, 0
1, 175920, Note_on_c, 9, 54, 50
1, 176039, Note_on_c, 9, 54, 0
1, 176040, Note_on_c, 9, 54, 24
1, 176159, Note_on_c, 9, 54, 0
1, 176160, Note_on_c, 9, 54, 50
1, 176160, Note_on_c, 9, 53, 99
1, 176160, Note_on_c, 9, 35, 95
1, 176279, Note_on_c, 9, 54, 0
1, 176279, Note_on_c, 9, 53, 0
1, 176280, Note_on_c, 9, 54, 38
1, 176399, Note_on_c, 9, 54, 0
1, 176400, Note_on_c, 9, 54, 45
1, 176519, Note_on_c, 9, 35, 0
1, 176519, Note_on_c, 9, 54, 0
1, 176520, Note_on_c, 9, 54, 36
1, 176520, Note_on_c, 9, 35, 95
1, 176639, Note_on_c, 9, 54, 0
1, 176639, Note_on_c, 9, 35, 0
1, 176640, Note_on_c, 9, 38, 110
1, 176640, Note_on_c, 9, 54, 61
1, 176640, Note_on_c, 9, 53, 97
1, 176759, Note_on_c, 9, 38, 0
1, 176759, Note_on_c, 9, 54, 0
1, 176759, Note_on_c, 9, 53, 0
1, 176760, Note_on_c, 9, 54, 34
1, 176879, Note_on_c, 9, 54, 0
1, 176880, Note_on_c, 9, 54, 47
1, 176880, Note_on_c, 9, 35, 96
1, 176999, Note_on_c, 9, 54, 0
1, 177000, Note_on_c, 9, 54, 30
1, 177119, Note_on_c, 9, 35, 0
1, 177119, Note_on_c, 9, 54, 0
1, 177120, Note_on_c, 9, 54, 55
1, 177120, Note_on_c, 9, 53, 106
1, 177239, Note_on_c, 9, 54, 0
1, 177239, Note_on_c, 9, 53, 0
1, 177240, Note_on_c, 9, 54, 35
1, 177359, Note_on_c, 9, 54, 0
1, 177360, Note_on_c, 9, 54, 47
1, 177360, Note_on_c, 9, 35, 100
1, 177479, Note_on_c, 9, 54, 0
1, 177480, Note_on_c, 9, 54, 37
1, 177599, Note_on_c, 9, 35, 0
1, 177599, Note_on_c, 9, 54, 0
1, 177600, Note_on_c, 9, 38, 110
1, 177600, Note_on_c, 9, 54, 57
1, 177600, Note_on_c, 9, 53, 102
1, 177719, Note_on_c, 9, 38, 0
1, 177719, Note_on_c, 9, 54, 0
1, 177719, Note_on_c, 9, 53, 0
1, 177750, Note_on_c, 9, 54, 28
1, 177839, Note_on_c, 9, 54, 0
1, 177900, Note_on_c, 9, 38, 97
1, 177900, Note_on_c, 9, 54, 48
1, 178019, Note_on_c, 9, 38, 0
1, 178019, Note_on_c, 9, 54, 0
1, 178020, Note_on_c, 9, 38, 112
1, 178020, Note_on_c, 9, 54, 36
1, 178079, Note_on_c, 9, 38, 0
1, 178079, Note_on_c, 9, 54, 0
1, 178140, Note_on_c, 9, 54, 57
1, 178140, Note_on_c, 9, 49, 93
1, 178140, Note_on_c, 9, 55, 89
1, 178140, Note_on_c, 9, 35, 102
1, 178144, Note_on_c, 9, 49, 0
1, 178144, Note_on_c, 9, 55, 0
1, 178259, Note_on_c, 9, 54, 0
1, 178260, Note_on_c, 9, 54, 34
1, 178319, Note_on_c, 9, 35, 0
1, 178319, Note_on_c, 9, 54, 0
1, 178350, Note_on_c, 9, 54, 51
1, 178439, Note_on_c, 9, 54, 0
1, 178440, Note_on_c, 9, 54, 36
1, 178455, Note_on_c, 9, 35, 100
1, 178499, Note_on_c, 9, 35, 0
1, 178559, Note_on_c, 9, 54, 0
1, 178560, Note_on_c, 9, 38, 112
1, 178560, Note_on_c, 9, 54, 57
1, 178560, Note_on_c, 9, 49, 98
1, 178560, Note_on_c, 9, 55, 97
1, 178564, Note_on_c, 9, 49, 0
1, 178564, Note_on_c, 9, 55, 0
1, 178679, Note_on_c, 9, 38, 0
1, 178679, Note_on_c, 9, 54, 0
1, 178680, Note_on_c, 9, 54, 27
1, 178799, Note_on_c, 9, 54, 0
1, 178800, Note_on_c, 9, 54, 52
1, 178800, Note_on_c, 9, 35, 96
1, 178919, Note_on_c, 9, 54, 0
1, 178920, Note_on_c, 9, 54, 41
1, 179039, Note_on_c, 9, 35, 0
1, 179039, Note_on_c, 9, 54, 0
1, 179040, Note_on_c, 9, 54, 58
1, 179040, Note_on_c, 9, 53, 97
1, 179159, Note_on_c, 9, 54, 0
1, 179159, Note_on_c, 9, 53, 0
1, 179160, Note_on_c, 9, 54, 36
1, 179279, Note_on_c, 9, 54, 0
1, 179280, Note_on_c, 9, 54, 47
1, 179295, Note_on_c, 9, 35, 96
1, 179399, Note_on_c, 9, 54, 0
1, 179400, Note_on_c, 9, 54, 36
1, 179519, Note_on_c, 9, 35, 0
1, 179519, Note_on_c, 9, 54, 0
1, 179520, Note_on_c, 9, 38, 114
1, 179520, Note_on_c, 9, 54, 57
1, 179520, Note_on_c, 9, 53, 104
1, 179639, Note_on_c, 9, 38, 0
1, 179639, Note_on_c, 9, 54, 0
1, 179639, Note_on_c, 9, 53, 0
1, 179640, Note_on_c, 9, 54, 35
1, 179759, Note_on_c, 9, 54, 0
1, 179760, Note_on_c, 9, 54, 36
1, 179879, Note_on_c, 9, 54, 0
1, 179880, Note_on_c, 9, 54, 38
1, 179999, Note_on_c, 9, 54, 0
1, 180000, Note_on_c, 9, 54, 52
1, 180000, Note_on_c, 9, 46, 60
1, 180000, Note_on_c, 9, 35, 105
1, 180004, Note_on_c, 9, 46, 0
1, 180119, Note_on_c, 9, 54, 0
1, 180120, Note_on_c, 9, 38, 112
1, 180120, Note_on_c, 9, 54, 34
1, 180179, Note_on_c, 9, 38, 0
1, 180209, Note_on_c, 9, 54, 0
1, 180210, Note_on_c, 9, 38, 102
1, 180239, Note_on_c, 9, 38, 0
1, 180240, Note_on_c, 9, 38, 96
1, 180240, Note_on_c, 9, 54, 47
1, 180359, Note_on_c, 9, 38, 0
1, 180359, Note_on_c, 9, 54, 0
1, 180360, Note_on_c, 9, 38, 120
1, 180360, Note_on_c, 9, 54, 34
1, 180479, Note_on_c, 9, 35, 0
1, 180479, Note_on_c, 9, 38, 0
1, 180479, Note_on_c, 9, 54, 0
1, 180480, Note_on_c, 9, 54, 53
1, 180480, Note_on_c, 9, 46, 56
1, 180480, Note_on_c, 9, 35, 106
1, 180484, Note_on_c, 9, 46, 0
1, 180599, Note_on_c, 9, 54, 0
1, 180599, Note_on_c, 9, 35, 0
1, 180600, Note_on_c, 9, 54, 38
1, 180600, Note_on_c, 9, 46, 56
1, 180600, Note_on_c, 9, 35, 89
1, 180604, Note_on_c, 9, 46, 0
1, 180719, Note_on_c, 9, 54, 0
1, 180720, Note_on_c, 9, 38, 112
1, 180720, Note_on_c, 9, 54, 47
1, 180839, Note_on_c, 9, 35, 0
1, 180839, Note_on_c, 9, 38, 0
1, 180839, Note_on_c, 9, 54, 0
1, 180840, Note_on_c, 9, 54, 36
1, 180840, Note_on_c, 9, 46, 51
1, 180840, Note_on_c, 9, 35, 106
1, 180844, Note_on_c, 9, 46, 0
1, 180959, Note_on_c, 9, 54, 0
1, 180959, Note_on_c, 9, 35, 0
1, 180960, Note_on_c, 9, 54, 57
1, 180960, Note_on_c, 9, 46, 59
1, 180960, Note_on_c, 9, 35, 99
1, 180964, Note_on_c, 9, 46, 0
1, 181079, Note_on_c, 9, 54, 0
1, 181100, Note_on_c, 9, 38, 103
1, 181100, Note_on_c, 9, 54, 34
1, 181159, Note_on_c, 9, 38, 0
1, 181159, Note_on_c, 9, 54, 0
1, 181160, Note_on_c, 9, 38, 108
1, 181199, Note_on_c, 9, 38, 0
1, 181200, Note_on_c, 9, 38, 120
1, 181200, Note_on_c, 9, 54, 46
1, 181319, Note_on_c, 9, 38, 0
1, 181319, Note_on_c, 9, 54, 0
1, 181320, Note_on_c, 9, 54, 31
1, 181439, Note_on_c, 9, 35, 0
1, 181439, Note_on_c, 9, 54, 0
1, 181440, Note_on_c, 9, 38, 122
1, 181440, Note_on_c, 9, 54, 54
1, 181440, Note_on_c, 9, 46, 56
1, 181443, Note_on_c, 9, 46, 0
1, 181529, Note_on_c, 9, 38, 0
1, 181529, Note_on_c, 9, 54, 0
1, 181530, Note_on_c, 9, 47, 102
1, 181559, Note_on_c, 9, 47, 0
1, 181575, Note_on_c, 9, 45, 95
1, 181575, Note_on_c, 9, 54, 33
1, 181619, Note_on_c, 9, 45, 0
1, 181619, Note_on_c, 9, 54, 0
1, 181680, Note_on_c, 9, 43, 72
1, 181710, Note_on_c, 9, 38, 122
1, 181710, Note_on_c, 9, 54, 48
1, 181710, Note_on_c, 9, 46, 50
1, 181713, Note_on_c, 9, 46, 0
1, 181799, Note_on_c, 9, 38, 0
1, 181799, Note_on_c, 9, 54, 0
1, 181820, Note_on_c, 9, 45, 85
1, 181839, Note_on_c, 9, 45, 0
1, 181840, Note_on_c, 9, 54, 34
1, 181844, Note_on_c, 9, 43, 0
1, 181845, Note_on_c, 9, 43, 99
1, 181919, Note_on_c, 9, 54, 0
1, 181919, Note_on_c, 9, 43, 0
1, 181920, Note_on_c, 9, 41, 88
1, 181959, Note_on_c, 9, 41, 0
1, 181960, Note_on_c, 9, 54, 57
1, 181960, Note_on_c, 9, 49, 91
1, 181962, Note_on_c, 9, 49, 0
1, 181980, Note_on_c, 9, 35, 101
1, 182039, Note_on_c, 9, 54, 0
1, 182085, Note_on_c, 9, 54, 34
1, 182099, Note_on_c, 9, 54, 0
1, 182159, Note_on_c, 9, 35, 0
1, 182190, Note_on_c, 9, 54, 41
1, 182279, Note_on_c, 9, 54, 0
1, 182280, Note_on_c, 9, 54, 29
1, 182280, Note_on_c, 9, 35, 105
1, 182399, Note_on_c, 9, 54, 0
1, 182399, Note_on_c, 9, 35, 0
1, 182400, Note_on_c, 9, 38, 103
1, 182400, Note_on_c, 9, 54, 58
1, 182519, Note_on_c, 9, 38, 0
1, 182519, Note_on_c, 9, 54, 0
1, 182520, Note_on_c, 9, 54, 38
1, 182639, Note_on_c, 9, 54, 0
1, 182640, Note_on_c, 9, 54, 45
1, 182640, Note_on_c, 9, 55, 111
1, 182640, Note_on_c, 9, 35, 106
1, 182644, Note_on_c, 9, 55, 0
1, 182759, Note_on_c, 9, 54, 0
1, 182760, Note_on_c, 9, 54, 35
1, 182879, Note_on_c, 9, 35, 0
1, 182879, Note_on_c, 9, 54, 0
1, 182880, Note_on_c, 9, 54, 54
1, 182880, Note_on_c, 9, 55, 99
1, 182884, Note_on_c, 9, 55, 0
1, 182999, Note_on_c, 9, 54, 0
1, 183000, Note_on_c, 9, 54, 31
1, 183119, Note_on_c, 9, 54, 0
1, 183120, Note_on_c, 9, 54, 48
1, 183120, Note_on_c, 9, 35, 106
1, 183239, Note_on_c, 9, 54, 0
1, 183240, Note_on_c, 9, 54, 29
1, 183359, Note_on_c, 9, 35, 0
1, 183359, Note_on_c, 9, 54, 0
1, 183360, Note_on_c, 9, 38, 107
1, 183360, Note_on_c, 9, 54, 59
1, 183360, Note_on_c, 9, 55, 107
1, 183364, Note_on_c, 9, 55, 0
1, 183479, Note_on_c, 9, 38, 0
1, 183479, Note_on_c, 9, 54, 0
1, 183510, Note_on_c, 9, 54, 34
1, 183599, Note_on_c, 9, 54, 0
1, 183630, Note_on_c, 9, 54, 47
1, 183764, Note_on_c, 9, 54, 0
1, 183765, Note_on_c, 9, 54, 36
1, 183839, Note_on_c, 9, 54, 0
1, 183900, Note_on_c, 9, 54, 57
1, 183900, Note_on_c, 9, 53, 107
1, 183900, Note_on_c, 9, 35, 109
1, 184019, Note_on_c, 9, 54, 0
1, 184019, Note_on_c, 9, 53, 0
1, 184020, Note_on_c, 9, 54, 38
1, 184079, Note_on_c, 9, 35, 0
1, 184079, Note_on_c, 9, 54, 0
1, 184110, Note_on_c, 9, 54, 54
1, 184199, Note_on_c, 9, 54, 0
1, 184200, Note_on_c, 9, 54, 28
1, 184200, Note_on_c, 9, 35, 106
1, 184319, Note_on_c, 9, 54, 0
1, 184319, Note_on_c, 9, 35, 0
1, 184320, Note_on_c, 9, 38, 110
1, 184320, Note_on_c, 9, 54, 55
1, 184320, Note_on_c, 9, 53, 101
1, 184439, Note_on_c, 9, 38, 0
1, 184439, Note_on_c, 9, 54, 0
1, 184439, Note_on_c, 9, 53, 0
1, 184440, Note_on_c, 9, 54, 36
1, 184559, Note_on_c, 9, 54, 0
1, 184560, Note_on_c, 9, 54, 47
1, 184575, Note_on_c, 9, 35, 102
1, 184679, Note_on_c, 9, 54, 0
1, 184680, Note_on_c, 9, 54, 29
1, 184799, Note_on_c, 9, 35, 0
1, 184799, Note_on_c, 9, 54, 0
1, 184800, Note_on_c, 9, 54, 57
1, 184800, Note_on_c, 9, 53, 104
1, 184919, Note_on_c, 9, 54, 0
1, 184919, Note_on_c, 9, 53, 0
1, 184920, Note_on_c, 9, 54, 23
1, 185039, Note_on_c, 9, 54, 0
1, 185040, Note_on_c, 9, 54, 47
1, 185040, Note_on_c, 9, 35, 102
1, 185159, Note_on_c, 9, 54, 0
1, 185160, Note_on_c, 9, 54, 33
1, 185279, Note_on_c, 9, 35, 0
1, 185279, Note_on_c, 9, 54, 0
1, 185280, Note_on_c, 9, 38, 100
1, 185280, Note_on_c, 9, 54, 58
1, 185280, Note_on_c, 9, 53, 100
1, 185399, Note_on_c, 9, 38, 0
1, 185399, Note_on_c, 9, 54, 0
1, 185399, Note_on_c, 9, 53, 0
1, 185400, Note_on_c, 9, 54, 39
1, 185519, Note_on_c, 9, 54, 0
1, 185520, Note_on_c, 9, 54, 52
1, 185639, Note_on_c, 9, 54, 0
1, 185640, Note_on_c, 9, 54, 39
1, 185759, Note_on_c, 9, 54, 0
1, 185760, Note_on_c, 9, 54, 65
1, 185760, Note_on_c, 9, 53, 102
1, 185760, Note_on_c, 9, 49, 88
1, 185760, Note_on_c, 9, 35, 98
1, 185764, Note_on_c, 9, 49, 0
1, 185879, Note_on_c, 9, 54, 0
1, 185879, Note_on_c, 9, 53, 0
1, 185880, Note_on_c, 9, 54, 34
1, 185999, Note_on_c, 9, 54, 0
1, 186000, Note_on_c, 9, 54, 54
1, 186119, Note_on_c, 9, 35, 0
1, 186119, Note_on_c, 9, 54, 0
1, 186120, Note_on_c, 9, 54, 48
1, 186120, Note_on_c, 9, 35, 102
1, 186239, Note_on_c, 9, 54, 0
1, 186239, Note_on_c, 9, 35, 0
1, 186240, Note_on_c, 9, 38, 109
1, 186240, Note_on_c, 9, 54, 57
1, 186240, Note_on_c, 9, 53, 101
1, 186240, Note_on_c, 9, 49, 94
1, 186244, Note_on_c, 9, 49, 0
1, 186359, Note_on_c, 9, 38, 0
1, 186359, Note_on_c, 9, 54, 0
1, 186359, Note_on_c, 9, 53, 0
1, 186360, Note_on_c, 9, 54, 47
1, 186479, Note_on_c, 9, 54, 0
1, 186480, Note_on_c, 9, 54, 47
1, 186480, Note_on_c, 9, 35, 96
1, 186599, Note_on_c, 9, 54, 0
1, 186600, Note_on_c, 9, 54, 47
1, 186719, Note_on_c, 9, 35, 0
1, 186719, Note_on_c, 9, 54, 0
1, 186720, Note_on_c, 9, 54, 54
1, 186720, Note_on_c, 9, 53, 106
1, 186839, Note_on_c, 9, 54, 0
1, 186839, Note_on_c, 9, 53, 0
1, 186840, Note_on_c, 9, 54, 40
1, 186959, Note_on_c, 9, 54, 0
1, 186960, Note_on_c, 9, 54, 47
1, 186960, Note_on_c, 9, 35, 102
1, 187079, Note_on_c, 9, 54, 0
1, 187095, Note_on_c, 9, 54, 41
1, 187139, Note_on_c, 9, 54, 0
1, 187199, Note_on_c, 9, 35, 0
1, 187200, Note_on_c, 9, 38, 107
1, 187200, Note_on_c, 9, 54, 61
1, 187200, Note_on_c, 9, 53, 95
1, 187200, Note_on_c, 9, 49, 82
1, 187204, Note_on_c, 9, 49, 0
1, 187319, Note_on_c, 9, 38, 0
1, 187319, Note_on_c, 9, 54, 0
1, 187319, Note_on_c, 9, 53, 0
1, 187320, Note_on_c, 9, 54, 43
1, 187439, Note_on_c, 9, 54, 0
1, 187440, Note_on_c, 9, 54, 50
1, 187440, Note_on_c, 9, 53, 106
1, 187440, Note_on_c, 9, 49, 94
1, 187444, Note_on_c, 9, 49, 0
1, 187559, Note_on_c, 9, 54, 0
1, 187559, Note_on_c, 9, 53, 0
1, 187560, Note_on_c, 9, 54, 39
1, 187679, Note_on_c, 9, 54, 0
1, 187680, Note_on_c, 9, 54, 61
1, 187680, Note_on_c, 9, 53, 111
1, 187680, Note_on_c, 9, 49, 106
1, 187680, Note_on_c, 9, 35, 103
1, 187684, Note_on_c, 9, 49, 0
1, 187799, Note_on_c, 9, 54, 0
1, 187799, Note_on_c, 9, 53, 0
1, 187800, Note_on_c, 9, 54, 37
1, 187919, Note_on_c, 9, 54, 0
1, 187920, Note_on_c, 9, 54, 41
1, 187920, Note_on_c, 9, 46, 63
1, 187924, Note_on_c, 9, 46, 0
1, 188039, Note_on_c, 9, 35, 0
1, 188039, Note_on_c, 9, 54, 0
1, 188040, Note_on_c, 9, 38, 99
1, 188040, Note_on_c, 9, 54, 41
1, 188055, Note_on_c, 9, 35, 102
1, 188099, Note_on_c, 9, 35, 0
1, 188159, Note_on_c, 9, 38, 0
1, 188159, Note_on_c, 9, 54, 0
1, 188160, Note_on_c, 9, 38, 110
1, 188160, Note_on_c, 9, 54, 62
1, 188249, Note_on_c, 9, 38, 0
1, 188249, Note_on_c, 9, 54, 0
1, 188250, Note_on_c, 9, 38, 93
1, 188279, Note_on_c, 9, 38, 0
1, 188300, Note_on_c, 9, 54, 35
1, 188319, Note_on_c, 9, 54, 0
1, 188320, Note_on_c, 9, 38, 102
1, 188399, Note_on_c, 9, 38, 0
1, 188400, Note_on_c, 9, 38, 127
1, 188400, Note_on_c, 9, 54, 39
1, 188400, Note_on_c, 9, 46, 59
1, 188400, Note_on_c, 9, 35, 99
1, 188403, Note_on_c, 9, 46, 0
1, 188489, Note_on_c, 9, 38, 0
1, 188489, Note_on_c, 9, 54, 0
1, 188490, Note_on_c, 9, 45, 92
1, 188519, Note_on_c, 9, 45, 0
1, 188520, Note_on_c, 9, 54, 31
1, 188579, Note_on_c, 9, 35, 0
1, 188580, Note_on_c, 9, 43, 96
1, 188639, Note_on_c, 9, 54, 0
1, 188639, Note_on_c, 9, 43, 0
1, 188640, Note_on_c, 9, 38, 127
1, 188640, Note_on_c, 9, 54, 58
1, 188729, Note_on_c, 9, 38, 0
1, 188729, Note_on_c, 9, 54, 0
1, 188730, Note_on_c, 9, 38, 92
1, 188759, Note_on_c, 9, 38, 0
1, 188760, Note_on_c, 9, 54, 41
1, 188760, Note_on_c, 9, 46, 62
1, 188760, Note_on_c, 9, 46, 0
1, 188799, Note_on_c, 9, 54, 0
1, 188800, Note_on_c, 9, 47, 98
1, 188879, Note_on_c, 9, 47, 0
1, 188880, Note_on_c, 9, 38, 127
1, 188880, Note_on_c, 9, 54, 40
1, 188969, Note_on_c, 9, 38, 0
1, 188969, Note_on_c, 9, 54, 0
1, 188970, Note_on_c, 9, 38, 90
1, 188999, Note_on_c, 9, 38, 0
1, 189000, Note_on_c, 9, 54, 35
1, 189060, Note_on_c, 9, 43, 104
1, 189119, Note_on_c, 9, 54, 0
1, 189119, Note_on_c, 9, 43, 0
1, 189120, Note_on_c, 9, 38, 127
1, 189120, Note_on_c, 9, 54, 59
1, 189120, Note_on_c, 9, 35, 102
1, 189209, Note_on_c, 9, 38, 0
1, 189209, Note_on_c, 9, 54, 0
1, 189210, Note_on_c, 9, 45, 86
1, 189239, Note_on_c, 9, 45, 0
1, 189240, Note_on_c, 9, 54, 40
1, 189299, Note_on_c, 9, 35, 0
1, 189300, Note_on_c, 9, 43, 95
1, 189359, Note_on_c, 9, 54, 0
1, 189360, Note_on_c, 9, 38, 127
1, 189360, Note_on_c, 9, 54, 47
1, 189449, Note_on_c, 9, 43, 0
1, 189450, Note_on_c, 9, 43, 102
1, 189479, Note_on_c, 9, 38, 0
1, 189479, Note_on_c, 9, 54, 0
1, 189479, Note_on_c, 9, 43, 0
1, 189480, Note_on_c, 9, 54, 38
1, 189519, Note_on_c, 9, 54, 0
1, 189520, Note_on_c, 9, 41, 106
1, 189599, Note_on_c, 9, 41, 0
1, 189600, Note_on_c, 9, 54, 57
1, 189600, Note_on_c, 9, 49, 89
1, 189600, Note_on_c, 9, 55, 99
1, 189600, Note_on_c, 9, 35, 103
1, 189604, Note_on_c, 9, 49, 0
1, 189604, Note_on_c, 9, 55, 0
1, 189719, Note_on_c, 9, 54, 0
1, 189720, Note_on_c, 9, 54, 38
1, 189839, Note_on_c, 9, 54, 0
1, 189840, Note_on_c, 9, 54, 47
1, 189959, Note_on_c, 9, 35, 0
1, 189959, Note_on_c, 9, 54, 0
1, 189960, Note_on_c, 9, 54, 42
1, 189960, Note_on_c, 9, 35, 96
1, 190079, Note_on_c, 9, 54, 0
1, 190079, Note_on_c, 9, 35, 0
1, 190080, Note_on_c, 9, 38, 106
1, 190080, Note_on_c, 9, 54, 59
1, 190080, Note_on_c, 9, 53, 100
1, 190199, Note_on_c, 9, 38, 0
1, 190199, Note_on_c, 9, 54, 0
1, 190199, Note_on_c, 9, 53, 0
1, 190200, Note_on_c, 9, 54, 36
1, 190319, Note_on_c, 9, 54, 0
1, 190320, Note_on_c, 9, 54, 48
1, 190320, Note_on_c, 9, 55, 107
1, 190320, Note_on_c, 9, 35, 102
1, 190324, Note_on_c, 9, 55, 0
1, 190439, Note_on_c, 9, 54, 0
1, 190440, Note_on_c, 9, 54, 38
1, 190559, Note_on_c, 9, 35, 0
1, 190559, Note_on_c, 9, 54, 0
1, 190560, Note_on_c, 9, 54, 59
1, 190679, Note_on_c, 9, 54, 0
1, 190680, Note_on_c, 9, 54, 38
1, 190799, Note_on_c, 9, 54, 0
1, 190800, Note_on_c, 9, 54, 43
1, 190800, Note_on_c, 9, 35, 98
1, 190919, Note_on_c, 9, 54, 0
1, 190920, Note_on_c, 9, 54, 38
1, 191039, Note_on_c, 9, 35, 0
1, 191039, Note_on_c, 9, 54, 0
1, 191040, Note_on_c, 9, 38, 109
1, 191040, Note_on_c, 9, 54, 54
1, 191040, Note_on_c, 9, 53, 107
1, 191159, Note_on_c, 9, 38, 0
1, 191159, Note_on_c, 9, 54, 0
1, 191159, Note_on_c, 9, 53, 0
1, 191160, Note_on_c, 9, 54, 37
1, 191279, Note_on_c, 9, 54, 0
1, 191280, Note_on_c, 9, 38, 103
1, 191280, Note_on_c, 9, 54, 43
1, 191399, Note_on_c, 9, 38, 0
1, 191399, Note_on_c, 9, 54, 0
1, 191400, Note_on_c, 9, 38, 112
1, 191400, Note_on_c, 9, 54, 36
1, 191519, Note_on_c, 9, 38, 0
1, 191519, Note_on_c, 9, 54, 0
1, 191520, Note_on_c, 9, 54, 61
1, 191520, Note_on_c, 9, 49, 89
1, 191520, Note_on_c, 9, 55, 94
1, 191520, Note_on_c, 9, 35, 100
1, 191524, Note_on_c, 9, 49, 0
1, 191524, Note_on_c, 9, 55, 0
1, 191639, Note_on_c, 9, 54, 0
1, 191640, Note_on_c, 9, 54, 38
1, 191759, Note_on_c, 9, 54, 0
1, 191760, Note_on_c, 9, 54, 42
1, 191879, Note_on_c, 9, 35, 0
1, 191879, Note_on_c, 9, 54, 0
1, 191880, Note_on_c, 9, 54, 39
1, 191895, Note_on_c, 9, 35, 101
1, 191939, Note_on_c, 9, 35, 0
1, 191999, Note_on_c, 9, 54, 0
1, 192000, Note_on_c, 9, 38, 112
1, 192000, Note_on_c, 9, 54, 62
1, 192000, Note_on_c, 9, 53, 106
1, 192119, Note_on_c, 9, 38, 0
1, 192119, Note_on_c, 9, 54, 0
1, 192119, Note_on_c, 9, 53, 0
1, 192120, Note_on_c, 9, 54, 36
1, 192239, Note_on_c, 9, 54, 0
1, 192240, Note_on_c, 9, 54, 47
1, 192240, Note_on_c, 9, 35, 96
1, 192359, Note_on_c, 9, 54, 0
1, 192360, Note_on_c, 9, 54, 31
1, 192479, Note_on_c, 9, 35, 0
1, 192479, Note_on_c, 9, 54, 0
1, 192480, Note_on_c, 9, 54, 61
1, 192480, Note_on_c, 9, 53, 100
1, 192599, Note_on_c, 9, 54, 0
1, 192599, Note_on_c, 9, 53, 0
1, 192600, Note_on_c, 9, 54, 33
1, 192719, Note_on_c, 9, 54, 0
1, 192720, Note_on_c, 9, 54, 47
1, 192720, Note_on_c, 9, 35, 103
1, 192839, Note_on_c, 9, 54, 0
1, 192840, Note_on_c, 9, 54, 34
1, 192959, Note_on_c, 9, 35, 0
1, 192959, Note_on_c, 9, 54, 0
1, 192960, Note_on_c, 9, 38, 116
1, 192960, Note_on_c, 9, 54, 62
1, 192960, Note_on_c, 9, 53, 100
1, 193079, Note_on_c, 9, 38, 0
1, 193079, Note_on_c, 9, 54, 0
1, 193079, Note_on_c, 9, 53, 0
1, 193080, Note_on_c, 9, 54, 36
1, 193199, Note_on_c, 9, 54, 0
1, 193200, Note_on_c, 9, 38, 96
1, 193200, Note_on_c, 9, 54, 48
1, 193319, Note_on_c, 9, 38, 0
1, 193319, Note_on_c, 9, 54, 0
1, 193320, Note_on_c, 9, 38, 106
1, 193320, Note_on_c, 9, 54, 41
1, 193439, Note_on_c, 9, 38, 0
1, 193439, Note_on_c, 9, 54, 0
1, 193440, Note_on_c, 9, 54, 62
1, 193440, Note_on_c, 9, 49, 85
1, 193440, Note_on_c, 9, 55, 92
1, 193440, Note_on_c, 9, 35, 98
1, 193444, Note_on_c, 9, 49, 0
1, 193444, Note_on_c, 9, 55, 0
1, 193559, Note_on_c, 9, 54, 0
1, 193560, Note_on_c, 9, 54, 38
1, 193679, Note_on_c, 9, 54, 0
1, 193680, Note_on_c, 9, 54, 46
1, 193799, Note_on_c, 9, 35, 0
1, 193799, Note_on_c, 9, 54, 0
1, 193800, Note_on_c, 9, 54, 29
1, 193800, Note_on_c, 9, 35, 99
1, 193919, Note_on_c, 9, 54, 0
1, 193919, Note_on_c, 9, 35, 0
1, 193920, Note_on_c, 9, 38, 114
1, 193920, Note_on_c, 9, 54, 59
1, 193920, Note_on_c, 9, 53, 100
1, 194039, Note_on_c, 9, 38, 0
1, 194039, Note_on_c, 9, 54, 0
1, 194039, Note_on_c, 9, 53, 0
1, 194040, Note_on_c, 9, 54, 36
1, 194159, Note_on_c, 9, 54, 0
1, 194160, Note_on_c, 9, 54, 50
1, 194160, Note_on_c, 9, 35, 102
1, 194279, Note_on_c, 9, 54, 0
1, 194280, Note_on_c, 9, 54, 29
1, 194399, Note_on_c, 9, 35, 0
1, 194399, Note_on_c, 9, 54, 0
1, 194400, Note_on_c, 9, 54, 65
1, 194400, Note_on_c, 9, 53, 99
1, 194519, Note_on_c, 9, 54, 0
1, 194519, Note_on_c, 9, 53, 0
1, 194520, Note_on_c, 9, 54, 34
1, 194639, Note_on_c, 9, 54, 0
1, 194640, Note_on_c, 9, 54, 47
1, 194640, Note_on_c, 9, 35, 103
1, 194759, Note_on_c, 9, 54, 0
1, 194760, Note_on_c, 9, 54, 41
1, 194879, Note_on_c, 9, 35, 0
1, 194879, Note_on_c, 9, 54, 0
1, 194880, Note_on_c, 9, 38, 102
1, 194880, Note_on_c, 9, 54, 59
1, 194880, Note_on_c, 9, 53, 99
1, 194999, Note_on_c, 9, 38, 0
1, 194999, Note_on_c, 9, 54, 0
1, 194999, Note_on_c, 9, 53, 0
1, 195000, Note_on_c, 9, 38, 92
1, 195000, Note_on_c, 9, 54, 41
1, 195119, Note_on_c, 9, 38, 0
1, 195119, Note_on_c, 9, 54, 0
1, 195120, Note_on_c, 9, 38, 92
1, 195120, Note_on_c, 9, 54, 53
1, 195239, Note_on_c, 9, 38, 0
1, 195239, Note_on_c, 9, 54, 0
1, 195240, Note_on_c, 9, 38, 118
1, 195240, Note_on_c, 9, 54, 52
1, 195359, Note_on_c, 9, 38, 0
1, 195359, Note_on_c, 9, 54, 0
1, 195360, Note_on_c, 9, 54, 58
1, 195360, Note_on_c, 9, 49, 105
1, 195360, Note_on_c, 9, 35, 101
1, 195376, Note_on_c, 9, 49, 0
1, 195719, Note_on_c, 9, 54, 0
1, 195750, Note_on_c, 9, 46, 57
1, 195753, Note_on_c, 9, 46, 0
1, 195839, Note_on_c, 9, 35, 0
1, 195840, Note_on_c, 9, 54, 12
1, 195869, Note_on_c, 9, 54, 0
1, 195870, Note_on_c, 9, 54, 12
1, 195870, Note_on_c, 9, 80, 71
1, 195870, Note_on_c, 9, 42, 43
1, 195871, Note_on_c, 9, 42, 0
1, 195929, Note_on_c, 9, 54, 0
1, 195929, Note_on_c, 9, 80, 0
1, 195930, Note_on_c, 9, 54, 12
1, 195959, Note_on_c, 9, 54, 0
1, 195960, Note_on_c, 9, 54, 12
1, 196019, Note_on_c, 9, 54, 0
1, 196020, Note_on_c, 9, 54, 12
1, 196064, Note_on_c, 9, 54, 0
1, 196065, Note_on_c, 9, 54, 12
1, 196079, Note_on_c, 9, 54, 0
1, 196080, Note_on_c, 9, 54, 12
1, 196139, Note_on_c, 9, 54, 0
1, 196140, Note_on_c, 9, 54, 12
1, 196140, Note_on_c, 9, 42, 33
1, 196141, Note_on_c, 9, 42, 0
1, 196199, Note_on_c, 9, 54, 0
1, 196215, Note_on_c, 9, 54, 12
1, 196259, Note_on_c, 9, 54, 0
1, 196260, Note_on_c, 9, 54, 13
1, 196319, Note_on_c, 9, 54, 0
1, 196320, Note_on_c, 9, 54, 13
1, 196349, Note_on_c, 9, 54, 0
1, 196365, Note_on_c, 9, 54, 13
1, 196425, Note_on_c, 9, 35, 98
1, 196439, Note_on_c, 9, 54, 0
1, 196440, Note_on_c, 9, 54, 14
1, 196440, Note_on_c, 9, 42, 42
1, 196440, Note_on_c, 9, 42, 0
1, 196469, Note_on_c, 9, 54, 0
1, 196470, Note_on_c, 9, 54, 15
1, 196514, Note_on_c, 9, 54, 0
1, 196515, Note_on_c, 9, 54, 16
1, 196559, Note_on_c, 9, 54, 0
1, 196560, Note_on_c, 9, 54, 18
1, 196607, Note_on_c, 9, 54, 0
1, 196608, Note_on_c, 9, 54, 20
1, 196655, Note_on_c, 9, 54, 0
1, 196656, Note_on_c, 9, 54, 21
1, 196703, Note_on_c, 9, 54, 0
1, 196704, Note_on_c, 9, 54, 21
1, 196704, Note_on_c, 9, 42, 40
1, 196705, Note_on_c, 9, 42, 0
1, 196751, Note_on_c, 9, 54, 0
1, 196752, Note_on_c, 9, 54, 22
1, 196799, Note_on_c, 9, 35, 0
1, 196799, Note_on_c, 9, 54, 0
1, 196800, Note_on_c, 9, 54, 23
1, 196859, Note_on_c, 9, 54, 0
1, 196860, Note_on_c, 9, 54, 23
1, 196889, Note_on_c, 9, 54, 0
1, 196890, Note_on_c, 9, 54, 23
1, 196919, Note_on_c, 9, 54, 0
1, 196920, Note_on_c, 9, 54, 23
1, 196979, Note_on_c, 9, 54, 0
1, 196980, Note_on_c, 9, 54, 22
1, 196980, Note_on_c, 9, 46, 57
1, 196980, Note_on_c, 9, 46, 0
1, 196980, Note_on_c, 9, 80, 67
1, 197009, Note_on_c, 9, 54, 0
1, 197009, Note_on_c, 9, 80, 0
1, 197010, Note_on_c, 9, 54, 22
1, 197039, Note_on_c, 9, 54, 0
1, 197040, Note_on_c, 9, 54, 22
1, 197099, Note_on_c, 9, 54, 0
1, 197100, Note_on_c, 9, 54, 21
1, 197129, Note_on_c, 9, 54, 0
1, 197130, Note_on_c, 9, 54, 21
1, 197159, Note_on_c, 9, 54, 0
1, 197160, Note_on_c, 9, 54, 21
1, 197199, Note_on_c, 9, 54, 0
1, 197200, Note_on_c, 9, 54, 21
1, 197239, Note_on_c, 9, 54, 0
1, 197240, Note_on_c, 9, 54, 21
1, 197279, Note_on_c, 9, 54, 0
1, 197280, Note_on_c, 9, 54, 21
1, 197319, Note_on_c, 9, 54, 0
1, 197320, Note_on_c, 9, 54, 21
1, 197359, Note_on_c, 9, 54, 0
1, 197360, Note_on_c, 9, 54, 20
1, 197399, Note_on_c, 9, 54, 0
1, 197400, Note_on_c, 9, 54, 20
1, 197429, Note_on_c, 9, 54, 0
1, 197430, Note_on_c, 9, 54, 20
1, 197459, Note_on_c, 9, 54, 0
1, 197460, Note_on_c, 9, 54, 19
1, 197489, Note_on_c, 9, 54, 0
1, 197490, Note_on_c, 9, 54, 19
1, 197519, Note_on_c, 9, 54, 0
1, 197520, Note_on_c, 9, 54, 19
1, 197520, Note_on_c, 9, 42, 59
1, 197520, Note_on_c, 9, 42, 0
1, 197520, Note_on_c, 9, 35, 100
1, 197549, Note_on_c, 9, 54, 0
1, 197550, Note_on_c, 9, 54, 20
1, 197579, Note_on_c, 9, 54, 0
1, 197580, Note_on_c, 9, 54, 21
1, 197619, Note_on_c, 9, 54, 0
1, 197620, Note_on_c, 9, 54, 23
1, 197639, Note_on_c, 9, 54, 0
1, 197670, Note_on_c, 9, 54, 24
1, 197699, Note_on_c, 9, 54, 0
1, 197700, Note_on_c, 9, 54, 24
1, 197759, Note_on_c, 9, 35, 0
1, 197759, Note_on_c, 9, 54, 0
1, 197760, Note_on_c, 9, 54, 25
1, 197819, Note_on_c, 9, 54, 0
1, 197820, Note_on_c, 9, 54, 24
1, 197849, Note_on_c, 9, 54, 0
1, 197850, Note_on_c, 9, 54, 23
1, 197879, Note_on_c, 9, 54, 0
1, 197880, Note_on_c, 9, 54, 23
1, 197880, Note_on_c, 9, 46, 62
1, 197881, Note_on_c, 9, 46, 0
1, 197939, Note_on_c, 9, 54, 0
1, 197940, Note_on_c, 9, 54, 22
1, 197999, Note_on_c, 9, 54, 0
1, 198000, Note_on_c, 9, 54, 22
1, 198029, Note_on_c, 9, 54, 0
1, 198030, Note_on_c, 9, 54, 21
1, 198030, Note_on_c, 9, 80, 69
1, 198030, Note_on_c, 9, 42, 51
1, 198031, Note_on_c, 9, 42, 0
1, 198089, Note_on_c, 9, 54, 0
1, 198089, Note_on_c, 9, 80, 0
1, 198090, Note_on_c, 9, 54, 20
1, 198119, Note_on_c, 9, 54, 0
1, 198120, Note_on_c, 9, 54, 20
1, 198179, Note_on_c, 9, 54, 0
1, 198180, Note_on_c, 9, 54, 21
1, 198180, Note_on_c, 9, 55, 107
1, 198181, Note_on_c, 9, 55, 0
1, 198239, Note_on_c, 9, 54, 0
1, 198240, Note_on_c, 9, 54, 22
1, 198279, Note_on_c, 9, 54, 0
1, 198280, Note_on_c, 9, 54, 23
1, 198319, Note_on_c, 9, 54, 0
1, 198320, Note_on_c, 9, 54, 23
1, 198320, Note_on_c, 9, 55, 85
1, 198320, Note_on_c, 9, 55, 0
1, 198359, Note_on_c, 9, 54, 0
1, 198360, Note_on_c, 9, 54, 23
1, 198419, Note_on_c, 9, 54, 0
1, 198420, Note_on_c, 9, 54, 21
1, 198464, Note_on_c, 9, 54, 0
1, 198465, Note_on_c, 9, 54, 20
1, 198539, Note_on_c, 9, 54, 0
1, 198540, Note_on_c, 9, 54, 19
1, 198599, Note_on_c, 9, 54, 0
1, 198600, Note_on_c, 9, 54, 18
1, 198600, Note_on_c, 9, 42, 41
1, 198600, Note_on_c, 9, 42, 0
1, 198600, Note_on_c, 9, 35, 94
1, 198629, Note_on_c, 9, 54, 0
1, 198630, Note_on_c, 9, 54, 18
1, 198674, Note_on_c, 9, 54, 0
1, 198675, Note_on_c, 9, 54, 18
1, 198719, Note_on_c, 9, 35, 0
1, 198719, Note_on_c, 9, 54, 0
1, 198720, Note_on_c, 9, 54, 18
1, 198779, Note_on_c, 9, 54, 0
1, 198780, Note_on_c, 9, 54, 18
1, 198809, Note_on_c, 9, 54, 0
1, 198810, Note_on_c, 9, 54, 19
1, 198839, Note_on_c, 9, 54, 0
1, 198840, Note_on_c, 9, 54, 20
1, 198840, Note_on_c, 9, 42, 39
1, 198841, Note_on_c, 9, 42, 0
1, 198899, Note_on_c, 9, 54, 0
1, 198900, Note_on_c, 9, 54, 22
1, 198959, Note_on_c, 9, 54, 0
1, 198960, Note_on_c, 9, 54, 23
1, 199007, Note_on_c, 9, 54, 0
1, 199008, Note_on_c, 9, 54, 25
1, 199055, Note_on_c, 9, 54, 0
1, 199056, Note_on_c, 9, 54, 25
1, 199103, Note_on_c, 9, 54, 0
1, 199104, Note_on_c, 9, 54, 25
1, 199127, Note_on_c, 9, 54, 0
1, 199128, Note_on_c, 9, 54, 25
1, 199128, Note_on_c, 9, 80, 59
1, 199128, Note_on_c, 9, 42, 43
1, 199130, Note_on_c, 9, 42, 0
1, 199199, Note_on_c, 9, 54, 0
1, 199199, Note_on_c, 9, 80, 0
1, 199200, Note_on_c, 9, 54, 25
1, 199259, Note_on_c, 9, 54, 0
1, 199260, Note_on_c, 9, 54, 24
1, 199319, Note_on_c, 9, 54, 0
1, 199320, Note_on_c, 9, 54, 23
1, 199349, Note_on_c, 9, 54, 0
1, 199350, Note_on_c, 9, 54, 23
1, 199379, Note_on_c, 9, 54, 0
1, 199380, Note_on_c, 9, 54, 22
1, 199380, Note_on_c, 9, 42, 43
1, 199381, Note_on_c, 9, 42, 0
1, 199439, Note_on_c, 9, 54, 0
1, 199440, Note_on_c, 9, 54, 21
1, 199484, Note_on_c, 9, 54, 0
1, 199485, Note_on_c, 9, 54, 20
1, 199559, Note_on_c, 9, 54, 0
1, 199560, Note_on_c, 9, 54, 20
1, 199560, Note_on_c, 9, 55, 92
1, 199560, Note_on_c, 9, 55, 0
1, 199589, Note_on_c, 9, 54, 0
1, 199590, Note_on_c, 9, 54, 19
1, 199619, Note_on_c, 9, 54, 0
1, 199635, Note_on_c, 9, 54, 19
1, 199679, Note_on_c, 9, 54, 0
1, 199680, Note_on_c, 9, 54, 19
1, 199680, Note_on_c, 9, 49, 81
1, 199680, Note_on_c, 9, 49, 0
1, 199680, Note_on_c, 9, 35, 93
1, 199709, Note_on_c, 9, 54, 0
1, 199710, Note_on_c, 9, 54, 19
1, 199739, Note_on_c, 9, 54, 0
1, 199740, Note_on_c, 9, 54, 20
1, 199799, Note_on_c, 9, 54, 0
1, 199800, Note_on_c, 9, 54, 21
1, 199829, Note_on_c, 9, 54, 0
1, 199830, Note_on_c, 9, 54, 21
1, 199859, Note_on_c, 9, 54, 0
1, 199860, Note_on_c, 9, 54, 21
1, 199919, Note_on_c, 9, 54, 0
1, 199920, Note_on_c, 9, 54, 21
1, 199936, Note_on_c, 9, 54, 0
1, 199954, Note_on_c, 9, 54, 21
1, 199970, Note_on_c, 9, 54, 0
1, 199971, Note_on_c, 9, 54, 21
1, 200021, Note_on_c, 9, 54, 0
1, 200023, Note_on_c, 9, 54, 21
1, 200056, Note_on_c, 9, 54, 0
1, 200057, Note_on_c, 9, 54, 21
1, 200090, Note_on_c, 9, 54, 0
1, 200091, Note_on_c, 9, 54, 21
1, 200124, Note_on_c, 9, 54, 0
1, 200126, Note_on_c, 9, 54, 22
1, 200159, Note_on_c, 9, 35, 0
1, 200159, Note_on_c, 9, 54, 0
1, 200160, Note_on_c, 9, 54, 22
1, 200189, Note_on_c, 9, 54, 0
1, 200190, Note_on_c, 9, 54, 22
1, 200190, Note_on_c, 9, 80, 69
1, 200190, Note_on_c, 9, 42, 45
1, 200191, Note_on_c, 9, 42, 0
1, 200219, Note_on_c, 9, 54, 0
1, 200219, Note_on_c, 9, 80, 0
1, 200220, Note_on_c, 9, 54, 21
1, 200249, Note_on_c, 9, 54, 0
1, 200250, Note_on_c, 9, 54, 20
1, 200279, Note_on_c, 9, 54, 0
1, 200280, Note_on_c, 9, 54, 19
1, 200309, Note_on_c, 9, 54, 0
1, 200310, Note_on_c, 9, 54, 18
1, 200339, Note_on_c, 9, 54, 0
1, 200340, Note_on_c, 9, 54, 17
1, 200369, Note_on_c, 9, 54, 0
1, 200385, Note_on_c, 9, 54, 16
1, 200399, Note_on_c, 9, 54, 0
1, 200400, Note_on_c, 9, 54, 15
1, 200459, Note_on_c, 9, 54, 0
1, 200460, Note_on_c, 9, 54, 12
1, 200499, Note_on_c, 9, 54, 0
1, 200500, Note_on_c, 9, 54, 12
1, 200519, Note_on_c, 9, 54, 0
1, 200550, Note_on_c, 9, 54, 12
1, 200579, Note_on_c, 9, 54, 0
1, 200580, Note_on_c, 9, 54, 12
1, 200639, Note_on_c, 9, 54, 0
1, 200640, Note_on_c, 9, 54, 12
1, 200669, Note_on_c, 9, 54, 0
1, 200685, Note_on_c, 9, 54, 12
1, 200699, Note_on_c, 9, 54, 0
1, 200700, Note_on_c, 9, 54, 12
1, 200700, Note_on_c, 9, 42, 45
1, 200700, Note_on_c, 9, 35, 98
1, 200707, Note_on_c, 9, 42, 0
1, 200879, Note_on_c, 9, 54, 0
1, 200879, Note_on_c, 9, 35, 0
1, 201120, Note_on_c, 9, 80, 69
1, 201120, Note_on_c, 9, 42, 49
1, 201130, Note_on_c, 9, 42, 0
1, 201359, Note_on_c, 9, 80, 0
1, 201360, Note_on_c, 9, 55, 84
1, 201364, Note_on_c, 9, 55, 0
1, 201480, Note_on_c, 9, 55, 87
1, 201484, Note_on_c, 9, 55, 0
1, 201600, Note_on_c, 9, 55, 99
1, 201600, Note_on_c, 9, 35, 102
1, 201622, Note_on_c, 9, 55, 0
1, 202079, Note_on_c, 9, 35, 0
1, 202080, End_track
0, 0, End_of_file
