0, 0, Header, 1, 1, 480
1, 0, Start_track
1, 0, Title_t, "Drumset"
1, 0, Time_signature, 2, 2, 24, 8
1, 0, Key_signature, 0, "major"
1, 0, Tempo, 833333
1, 0, Control_c, 9, 121, 0
1, 0, Program_c, 9, 0
1, 0, Control_c, 9, 7, 100
1, 0, Control_c, 9, 10, 64
1, 0, Control_c, 9, 91, 0
1, 0, Control_c, 9, 93, 0
1, 0, MIDI_port, 0
1, 46560, Note_on_c, 9, 45, 111
1, 46560, Note_on_c, 9, 35, 111
1, 46679, Note_on_c, 9, 45, 0
1, 46679, Note_on_c, 9, 35, 0
1, 46680, Note_on_c, 9, 45, 113
1, 46680, Note_on_c, 9, 35, 113
1, 46799, Note_on_c, 9, 45, 0
1, 46799, Note_on_c, 9, 35, 0
1, 46800, Note_on_c, 9, 45, 114
1, 46800, Note_on_c, 9, 35, 114
1, 46919, Note_on_c, 9, 45, 0
1, 46919, Note_on_c, 9, 35, 0
1, 46920, Note_on_c, 9, 45, 115
1, 46920, Note_on_c, 9, 35, 115
1, 47039, Note_on_c, 9, 45, 0
1, 47039, Note_on_c, 9, 35, 0
1, 47040, Note_on_c, 9, 45, 116
1, 47040, Note_on_c, 9, 35, 116
1, 47159, Note_on_c, 9, 45, 0
1, 47159, Note_on_c, 9, 35, 0
1, 47160, Note_on_c, 9, 45, 117
1, 47160, Note_on_c, 9, 35, 117
1, 47279, Note_on_c, 9, 45, 0
1, 47279, Note_on_c, 9, 35, 0
1, 47280, Note_on_c, 9, 45, 118
1, 47280, Note_on_c, 9, 35, 118
1, 47399, Note_on_c, 9, 45, 0
1, 47399, Note_on_c, 9, 35, 0
1, 47400, Note_on_c, 9, 45, 119
1, 47400, Note_on_c, 9, 35, 119
1, 47519, Note_on_c, 9, 45, 0
1, 47519, Note_on_c, 9, 35, 0
1, 47520, Note_on_c, 9, 35, 121
1, 47520, Note_on_c, 9, 43, 121
1, 47639, Note_on_c, 9, 35, 0
1, 47639, Note_on_c, 9, 43, 0
1, 47640, Note_on_c, 9, 35, 122
1, 47640, Note_on_c, 9, 43, 122
1, 47759, Note_on_c, 9, 35, 0
1, 47759, Note_on_c, 9, 43, 0
1, 47760, Note_on_c, 9, 35, 123
1, 47760, Note_on_c, 9, 43, 123
1, 47879, Note_on_c, 9, 35, 0
1, 47879, Note_on_c, 9, 43, 0
1, 47880, Note_on_c, 9, 35, 123
1, 47880, Note_on_c, 9, 43, 123
1, 47999, Note_on_c, 9, 35, 0
1, 47999, Note_on_c, 9, 43, 0
1, 48000, Note_on_c, 9, 49, 124
1, 48000, Note_on_c, 9, 35, 124
1, 48005, Note_on_c, 9, 49, 0
1, 48240, Note_on_c, 9, 51, 120
1, 48245, Note_on_c, 9, 51, 0
1, 48479, Note_on_c, 9, 35, 0
1, 48480, Note_on_c, 9, 40, 124
1, 48480, Note_on_c, 9, 51, 122
1, 48480, Note_on_c, 9, 42, 122
1, 48485, Note_on_c, 9, 51, 0
1, 48485, Note_on_c, 9, 42, 0
1, 48719, Note_on_c, 9, 40, 0
1, 48720, Note_on_c, 9, 51, 120
1, 48720, Note_on_c, 9, 35, 117
1, 48725, Note_on_c, 9, 51, 0
1, 48959, Note_on_c, 9, 35, 0
1, 48960, Note_on_c, 9, 51, 122
1, 48960, Note_on_c, 9, 35, 123
1, 48965, Note_on_c, 9, 51, 0
1, 49200, Note_on_c, 9, 51, 117
1, 49205, Note_on_c, 9, 51, 0
1, 49439, Note_on_c, 9, 35, 0
1, 49440, Note_on_c, 9, 40, 124
1, 49440, Note_on_c, 9, 51, 123
1, 49440, Note_on_c, 9, 42, 123
1, 49445, Note_on_c, 9, 51, 0
1, 49445, Note_on_c, 9, 42, 0
1, 49679, Note_on_c, 9, 40, 0
1, 49680, Note_on_c, 9, 51, 118
1, 49685, Note_on_c, 9, 51, 0
1, 49920, Note_on_c, 9, 51, 122
1, 49920, Note_on_c, 9, 35, 124
1, 49925, Note_on_c, 9, 51, 0
1, 50160, Note_on_c, 9, 51, 119
1, 50165, Note_on_c, 9, 51, 0
1, 50399, Note_on_c, 9, 35, 0
1, 50400, Note_on_c, 9, 40, 124
1, 50400, Note_on_c, 9, 51, 123
1, 50400, Note_on_c, 9, 42, 123
1, 50405, Note_on_c, 9, 51, 0
1, 50405, Note_on_c, 9, 42, 0
1, 50639, Note_on_c, 9, 40, 0
1, 50640, Note_on_c, 9, 51, 120
1, 50640, Note_on_c, 9, 35, 121
1, 50645, Note_on_c, 9, 51, 0
1, 50879, Note_on_c, 9, 35, 0
1, 50880, Note_on_c, 9, 51, 122
1, 50880, Note_on_c, 9, 35, 124
1, 50885, Note_on_c, 9, 51, 0
1, 51120, Note_on_c, 9, 51, 120
1, 51125, Note_on_c, 9, 51, 0
1, 51359, Note_on_c, 9, 35, 0
1, 51360, Note_on_c, 9, 40, 124
1, 51360, Note_on_c, 9, 51, 123
1, 51360, Note_on_c, 9, 42, 124
1, 51365, Note_on_c, 9, 51, 0
1, 51365, Note_on_c, 9, 42, 0
1, 51599, Note_on_c, 9, 40, 0
1, 51600, Note_on_c, 9, 51, 113
1, 51600, Note_on_c, 9, 35, 116
1, 51605, Note_on_c, 9, 51, 0
1, 51839, Note_on_c, 9, 35, 0
1, 51840, Note_on_c, 9, 49, 122
1, 51840, Note_on_c, 9, 35, 124
1, 51845, Note_on_c, 9, 49, 0
1, 52080, Note_on_c, 9, 51, 118
1, 52085, Note_on_c, 9, 51, 0
1, 52319, Note_on_c, 9, 35, 0
1, 52320, Note_on_c, 9, 40, 124
1, 52320, Note_on_c, 9, 51, 123
1, 52320, Note_on_c, 9, 42, 123
1, 52325, Note_on_c, 9, 51, 0
1, 52325, Note_on_c, 9, 42, 0
1, 52559, Note_on_c, 9, 40, 0
1, 52560, Note_on_c, 9, 49, 120
1, 52560, Note_on_c, 9, 35, 118
1, 52565, Note_on_c, 9, 49, 0
1, 52799, Note_on_c, 9, 35, 0
1, 52800, Note_on_c, 9, 49, 123
1, 52800, Note_on_c, 9, 35, 123
1, 52805, Note_on_c, 9, 49, 0
1, 53040, Note_on_c, 9, 51, 119
1, 53045, Note_on_c, 9, 51, 0
1, 53279, Note_on_c, 9, 35, 0
1, 53280, Note_on_c, 9, 40, 124
1, 53280, Note_on_c, 9, 51, 123
1, 53280, Note_on_c, 9, 42, 123
1, 53285, Note_on_c, 9, 51, 0
1, 53285, Note_on_c, 9, 42, 0
1, 53519, Note_on_c, 9, 40, 0
1, 53520, Note_on_c, 9, 51, 120
1, 53520, Note_on_c, 9, 35, 117
1, 53525, Note_on_c, 9, 51, 0
1, 53759, Note_on_c, 9, 35, 0
1, 53760, Note_on_c, 9, 51, 123
1, 53760, Note_on_c, 9, 35, 123
1, 53765, Note_on_c, 9, 51, 0
1, 54000, Note_on_c, 9, 51, 119
1, 54005, Note_on_c, 9, 51, 0
1, 54239, Note_on_c, 9, 35, 0
1, 54240, Note_on_c, 9, 40, 124
1, 54240, Note_on_c, 9, 51, 124
1, 54240, Note_on_c, 9, 42, 121
1, 54245, Note_on_c, 9, 51, 0
1, 54245, Note_on_c, 9, 42, 0
1, 54479, Note_on_c, 9, 40, 0
1, 54480, Note_on_c, 9, 51, 120
1, 54480, Note_on_c, 9, 35, 122
1, 54485, Note_on_c, 9, 51, 0
1, 54719, Note_on_c, 9, 35, 0
1, 54720, Note_on_c, 9, 51, 122
1, 54720, Note_on_c, 9, 35, 124
1, 54725, Note_on_c, 9, 51, 0
1, 54960, Note_on_c, 9, 40, 124
1, 54960, Note_on_c, 9, 51, 120
1, 54965, Note_on_c, 9, 51, 0
1, 55199, Note_on_c, 9, 35, 0
1, 55199, Note_on_c, 9, 40, 0
1, 55200, Note_on_c, 9, 40, 124
1, 55200, Note_on_c, 9, 42, 121
1, 55205, Note_on_c, 9, 42, 0
1, 55320, Note_on_c, 9, 43, 123
1, 55439, Note_on_c, 9, 40, 0
1, 55439, Note_on_c, 9, 43, 0
1, 55440, Note_on_c, 9, 45, 122
1, 55440, Note_on_c, 9, 35, 124
1, 55679, Note_on_c, 9, 45, 0
1, 55679, Note_on_c, 9, 35, 0
1, 55680, Note_on_c, 9, 49, 124
1, 55680, Note_on_c, 9, 35, 123
1, 55685, Note_on_c, 9, 49, 0
1, 55920, Note_on_c, 9, 51, 122
1, 55925, Note_on_c, 9, 51, 0
1, 56159, Note_on_c, 9, 35, 0
1, 56160, Note_on_c, 9, 40, 124
1, 56160, Note_on_c, 9, 51, 123
1, 56160, Note_on_c, 9, 42, 123
1, 56165, Note_on_c, 9, 51, 0
1, 56165, Note_on_c, 9, 42, 0
1, 56399, Note_on_c, 9, 40, 0
1, 56400, Note_on_c, 9, 51, 119
1, 56400, Note_on_c, 9, 35, 120
1, 56405, Note_on_c, 9, 51, 0
1, 56639, Note_on_c, 9, 35, 0
1, 56640, Note_on_c, 9, 51, 122
1, 56640, Note_on_c, 9, 35, 124
1, 56645, Note_on_c, 9, 51, 0
1, 56880, Note_on_c, 9, 51, 117
1, 56885, Note_on_c, 9, 51, 0
1, 57119, Note_on_c, 9, 35, 0
1, 57120, Note_on_c, 9, 40, 124
1, 57120, Note_on_c, 9, 51, 123
1, 57120, Note_on_c, 9, 42, 122
1, 57125, Note_on_c, 9, 51, 0
1, 57125, Note_on_c, 9, 42, 0
1, 57359, Note_on_c, 9, 40, 0
1, 57360, Note_on_c, 9, 51, 115
1, 57360, Note_on_c, 9, 35, 122
1, 57365, Note_on_c, 9, 51, 0
1, 57599, Note_on_c, 9, 35, 0
1, 57600, Note_on_c, 9, 51, 122
1, 57600, Note_on_c, 9, 35, 124
1, 57605, Note_on_c, 9, 51, 0
1, 57840, Note_on_c, 9, 51, 119
1, 57845, Note_on_c, 9, 51, 0
1, 58079, Note_on_c, 9, 35, 0
1, 58080, Note_on_c, 9, 40, 124
1, 58080, Note_on_c, 9, 51, 124
1, 58080, Note_on_c, 9, 42, 121
1, 58085, Note_on_c, 9, 51, 0
1, 58085, Note_on_c, 9, 42, 0
1, 58319, Note_on_c, 9, 40, 0
1, 58320, Note_on_c, 9, 42, 120
1, 58320, Note_on_c, 9, 35, 121
1, 58325, Note_on_c, 9, 42, 0
1, 58559, Note_on_c, 9, 35, 0
1, 58560, Note_on_c, 9, 49, 123
1, 58560, Note_on_c, 9, 35, 124
1, 58572, Note_on_c, 9, 49, 0
1, 59039, Note_on_c, 9, 35, 0
1, 59520, Note_on_c, 9, 49, 123
1, 59520, Note_on_c, 9, 35, 124
1, 59532, Note_on_c, 9, 49, 0
1, 59999, Note_on_c, 9, 35, 0
1, 61680, Note_on_c, 9, 42, 121
1, 61685, Note_on_c, 9, 42, 0
1, 61920, Note_on_c, 9, 40, 122
1, 62040, Note_on_c, 9, 43, 119
1, 62159, Note_on_c, 9, 40, 0
1, 62160, Note_on_c, 9, 45, 117
1, 62399, Note_on_c, 9, 43, 0
1, 62399, Note_on_c, 9, 45, 0
1, 62400, Note_on_c, 9, 49, 124
1, 62400, Note_on_c, 9, 35, 124
1, 62412, Note_on_c, 9, 49, 0
1, 62879, Note_on_c, 9, 35, 0
1, 62880, Note_on_c, 9, 40, 124
1, 62880, Note_on_c, 9, 42, 122
1, 62885, Note_on_c, 9, 42, 0
1, 63119, Note_on_c, 9, 40, 0
1, 63120, Note_on_c, 9, 42, 116
1, 63120, Note_on_c, 9, 35, 119
1, 63125, Note_on_c, 9, 42, 0
1, 63359, Note_on_c, 9, 35, 0
1, 63360, Note_on_c, 9, 42, 122
1, 63360, Note_on_c, 9, 35, 124
1, 63365, Note_on_c, 9, 42, 0
1, 63600, Note_on_c, 9, 42, 114
1, 63605, Note_on_c, 9, 42, 0
1, 63839, Note_on_c, 9, 35, 0
1, 63840, Note_on_c, 9, 40, 124
1, 63840, Note_on_c, 9, 42, 123
1, 63845, Note_on_c, 9, 42, 0
1, 64079, Note_on_c, 9, 40, 0
1, 64080, Note_on_c, 9, 42, 114
1, 64085, Note_on_c, 9, 42, 0
1, 64320, Note_on_c, 9, 42, 122
1, 64320, Note_on_c, 9, 35, 123
1, 64325, Note_on_c, 9, 42, 0
1, 64560, Note_on_c, 9, 42, 113
1, 64565, Note_on_c, 9, 42, 0
1, 64799, Note_on_c, 9, 35, 0
1, 64800, Note_on_c, 9, 40, 124
1, 64800, Note_on_c, 9, 42, 122
1, 64805, Note_on_c, 9, 42, 0
1, 65039, Note_on_c, 9, 40, 0
1, 65040, Note_on_c, 9, 42, 116
1, 65040, Note_on_c, 9, 35, 121
1, 65045, Note_on_c, 9, 42, 0
1, 65279, Note_on_c, 9, 35, 0
1, 65280, Note_on_c, 9, 42, 120
1, 65280, Note_on_c, 9, 35, 123
1, 65285, Note_on_c, 9, 42, 0
1, 65520, Note_on_c, 9, 42, 115
1, 65525, Note_on_c, 9, 42, 0
1, 65759, Note_on_c, 9, 35, 0
1, 65760, Note_on_c, 9, 40, 124
1, 65760, Note_on_c, 9, 42, 121
1, 65762, Note_on_c, 9, 42, 0
1, 65879, Note_on_c, 9, 40, 0
1, 65880, Note_on_c, 9, 42, 120
1, 65882, Note_on_c, 9, 42, 0
1, 66000, Note_on_c, 9, 46, 120
1, 66005, Note_on_c, 9, 46, 0
1, 66240, Note_on_c, 9, 49, 123
1, 66240, Note_on_c, 9, 35, 123
1, 66245, Note_on_c, 9, 49, 0
1, 66480, Note_on_c, 9, 42, 113
1, 66485, Note_on_c, 9, 42, 0
1, 66719, Note_on_c, 9, 35, 0
1, 66720, Note_on_c, 9, 40, 124
1, 66720, Note_on_c, 9, 42, 123
1, 66725, Note_on_c, 9, 42, 0
1, 66959, Note_on_c, 9, 40, 0
1, 66960, Note_on_c, 9, 42, 117
1, 66960, Note_on_c, 9, 35, 120
1, 66965, Note_on_c, 9, 42, 0
1, 67199, Note_on_c, 9, 35, 0
1, 67200, Note_on_c, 9, 42, 115
1, 67200, Note_on_c, 9, 35, 123
1, 67205, Note_on_c, 9, 42, 0
1, 67440, Note_on_c, 9, 42, 114
1, 67445, Note_on_c, 9, 42, 0
1, 67679, Note_on_c, 9, 35, 0
1, 67680, Note_on_c, 9, 40, 124
1, 67680, Note_on_c, 9, 42, 123
1, 67685, Note_on_c, 9, 42, 0
1, 67919, Note_on_c, 9, 40, 0
1, 67920, Note_on_c, 9, 42, 114
1, 67925, Note_on_c, 9, 42, 0
1, 68160, Note_on_c, 9, 42, 120
1, 68160, Note_on_c, 9, 35, 123
1, 68165, Note_on_c, 9, 42, 0
1, 68400, Note_on_c, 9, 42, 115
1, 68405, Note_on_c, 9, 42, 0
1, 68639, Note_on_c, 9, 35, 0
1, 68640, Note_on_c, 9, 40, 124
1, 68640, Note_on_c, 9, 42, 123
1, 68645, Note_on_c, 9, 42, 0
1, 68879, Note_on_c, 9, 40, 0
1, 68880, Note_on_c, 9, 42, 116
1, 68880, Note_on_c, 9, 35, 121
1, 68885, Note_on_c, 9, 42, 0
1, 69119, Note_on_c, 9, 35, 0
1, 69120, Note_on_c, 9, 42, 121
1, 69120, Note_on_c, 9, 35, 123
1, 69125, Note_on_c, 9, 42, 0
1, 69360, Note_on_c, 9, 42, 116
1, 69365, Note_on_c, 9, 42, 0
1, 69599, Note_on_c, 9, 35, 0
1, 69600, Note_on_c, 9, 40, 124
1, 69600, Note_on_c, 9, 42, 123
1, 69605, Note_on_c, 9, 42, 0
1, 69839, Note_on_c, 9, 40, 0
1, 69840, Note_on_c, 9, 42, 116
1, 69845, Note_on_c, 9, 42, 0
1, 70080, Note_on_c, 9, 42, 120
1, 70080, Note_on_c, 9, 35, 124
1, 70085, Note_on_c, 9, 42, 0
1, 70320, Note_on_c, 9, 42, 116
1, 70325, Note_on_c, 9, 42, 0
1, 70559, Note_on_c, 9, 35, 0
1, 70560, Note_on_c, 9, 40, 124
1, 70560, Note_on_c, 9, 42, 123
1, 70565, Note_on_c, 9, 42, 0
1, 70799, Note_on_c, 9, 40, 0
1, 70800, Note_on_c, 9, 42, 117
1, 70800, Note_on_c, 9, 35, 120
1, 70805, Note_on_c, 9, 42, 0
1, 71039, Note_on_c, 9, 35, 0
1, 71040, Note_on_c, 9, 42, 120
1, 71040, Note_on_c, 9, 35, 123
1, 71045, Note_on_c, 9, 42, 0
1, 71280, Note_on_c, 9, 42, 113
1, 71285, Note_on_c, 9, 42, 0
1, 71519, Note_on_c, 9, 35, 0
1, 71520, Note_on_c, 9, 40, 124
1, 71520, Note_on_c, 9, 42, 122
1, 71525, Note_on_c, 9, 42, 0
1, 71759, Note_on_c, 9, 40, 0
1, 71760, Note_on_c, 9, 42, 118
1, 71765, Note_on_c, 9, 42, 0
1, 72000, Note_on_c, 9, 42, 120
1, 72000, Note_on_c, 9, 35, 123
1, 72005, Note_on_c, 9, 42, 0
1, 72240, Note_on_c, 9, 42, 113
1, 72245, Note_on_c, 9, 42, 0
1, 72479, Note_on_c, 9, 35, 0
1, 72480, Note_on_c, 9, 40, 124
1, 72480, Note_on_c, 9, 42, 122
1, 72485, Note_on_c, 9, 42, 0
1, 72719, Note_on_c, 9, 40, 0
1, 72720, Note_on_c, 9, 46, 120
1, 72720, Note_on_c, 9, 35, 121
1, 72725, Note_on_c, 9, 46, 0
1, 72959, Note_on_c, 9, 35, 0
1, 72960, Note_on_c, 9, 42, 121
1, 72960, Note_on_c, 9, 35, 123
1, 72965, Note_on_c, 9, 42, 0
1, 73200, Note_on_c, 9, 40, 124
1, 73439, Note_on_c, 9, 35, 0
1, 73439, Note_on_c, 9, 40, 0
1, 73440, Note_on_c, 9, 42, 116
1, 73440, Note_on_c, 9, 43, 124
1, 73442, Note_on_c, 9, 42, 0
1, 73560, Note_on_c, 9, 45, 122
1, 73679, Note_on_c, 9, 43, 0
1, 73680, Note_on_c, 9, 35, 123
1, 73919, Note_on_c, 9, 45, 0
1, 73919, Note_on_c, 9, 35, 0
1, 73920, Note_on_c, 9, 49, 122
1, 73920, Note_on_c, 9, 35, 123
1, 73925, Note_on_c, 9, 49, 0
1, 74160, Note_on_c, 9, 42, 111
1, 74165, Note_on_c, 9, 42, 0
1, 74399, Note_on_c, 9, 35, 0
1, 74400, Note_on_c, 9, 40, 123
1, 74400, Note_on_c, 9, 42, 122
1, 74405, Note_on_c, 9, 42, 0
1, 74639, Note_on_c, 9, 40, 0
1, 74640, Note_on_c, 9, 42, 113
1, 74640, Note_on_c, 9, 35, 121
1, 74645, Note_on_c, 9, 42, 0
1, 74879, Note_on_c, 9, 35, 0
1, 74880, Note_on_c, 9, 42, 120
1, 74880, Note_on_c, 9, 35, 124
1, 74885, Note_on_c, 9, 42, 0
1, 75120, Note_on_c, 9, 42, 115
1, 75125, Note_on_c, 9, 42, 0
1, 75359, Note_on_c, 9, 35, 0
1, 75360, Note_on_c, 9, 40, 124
1, 75360, Note_on_c, 9, 42, 123
1, 75365, Note_on_c, 9, 42, 0
1, 75599, Note_on_c, 9, 40, 0
1, 75600, Note_on_c, 9, 42, 116
1, 75605, Note_on_c, 9, 42, 0
1, 75840, Note_on_c, 9, 42, 121
1, 75840, Note_on_c, 9, 35, 124
1, 75845, Note_on_c, 9, 42, 0
1, 76080, Note_on_c, 9, 42, 116
1, 76085, Note_on_c, 9, 42, 0
1, 76319, Note_on_c, 9, 35, 0
1, 76320, Note_on_c, 9, 40, 124
1, 76320, Note_on_c, 9, 42, 122
1, 76325, Note_on_c, 9, 42, 0
1, 76559, Note_on_c, 9, 40, 0
1, 76560, Note_on_c, 9, 42, 115
1, 76560, Note_on_c, 9, 35, 118
1, 76565, Note_on_c, 9, 42, 0
1, 76799, Note_on_c, 9, 35, 0
1, 76800, Note_on_c, 9, 42, 121
1, 76800, Note_on_c, 9, 35, 124
1, 76805, Note_on_c, 9, 42, 0
1, 77040, Note_on_c, 9, 42, 113
1, 77045, Note_on_c, 9, 42, 0
1, 77279, Note_on_c, 9, 35, 0
1, 77280, Note_on_c, 9, 40, 124
1, 77280, Note_on_c, 9, 42, 122
1, 77292, Note_on_c, 9, 42, 0
1, 77520, Note_on_c, 9, 35, 120
1, 77520, Note_on_c, 9, 43, 121
1, 77759, Note_on_c, 9, 40, 0
1, 77759, Note_on_c, 9, 35, 0
1, 77759, Note_on_c, 9, 43, 0
1, 77760, Note_on_c, 9, 49, 123
1, 77760, Note_on_c, 9, 35, 123
1, 77765, Note_on_c, 9, 49, 0
1, 78000, Note_on_c, 9, 46, 120
1, 78005, Note_on_c, 9, 46, 0
1, 78239, Note_on_c, 9, 35, 0
1, 78240, Note_on_c, 9, 40, 124
1, 78240, Note_on_c, 9, 46, 121
1, 78245, Note_on_c, 9, 46, 0
1, 78479, Note_on_c, 9, 40, 0
1, 78480, Note_on_c, 9, 49, 124
1, 78480, Note_on_c, 9, 35, 123
1, 78485, Note_on_c, 9, 49, 0
1, 78719, Note_on_c, 9, 35, 0
1, 78720, Note_on_c, 9, 49, 124
1, 78720, Note_on_c, 9, 35, 124
1, 78725, Note_on_c, 9, 49, 0
1, 78960, Note_on_c, 9, 46, 119
1, 78965, Note_on_c, 9, 46, 0
1, 79079, Note_on_c, 9, 35, 0
1, 79080, Note_on_c, 9, 35, 120
1, 79199, Note_on_c, 9, 35, 0
1, 79200, Note_on_c, 9, 40, 124
1, 79200, Note_on_c, 9, 49, 124
1, 79205, Note_on_c, 9, 49, 0
1, 79439, Note_on_c, 9, 40, 0
1, 79440, Note_on_c, 9, 46, 119
1, 79440, Note_on_c, 9, 35, 123
1, 79445, Note_on_c, 9, 46, 0
1, 79679, Note_on_c, 9, 35, 0
1, 79680, Note_on_c, 9, 49, 124
1, 79680, Note_on_c, 9, 35, 124
1, 79685, Note_on_c, 9, 49, 0
1, 79920, Note_on_c, 9, 46, 121
1, 79925, Note_on_c, 9, 46, 0
1, 80159, Note_on_c, 9, 35, 0
1, 80160, Note_on_c, 9, 40, 124
1, 80160, Note_on_c, 9, 46, 120
1, 80165, Note_on_c, 9, 46, 0
1, 80399, Note_on_c, 9, 40, 0
1, 80400, Note_on_c, 9, 46, 120
1, 80400, Note_on_c, 9, 35, 124
1, 80405, Note_on_c, 9, 46, 0
1, 80639, Note_on_c, 9, 35, 0
1, 80640, Note_on_c, 9, 40, 124
1, 80640, Note_on_c, 9, 46, 123
1, 80652, Note_on_c, 9, 46, 0
1, 80880, Note_on_c, 9, 35, 124
1, 81119, Note_on_c, 9, 40, 0
1, 81119, Note_on_c, 9, 35, 0
1, 81120, Note_on_c, 9, 40, 124
1, 81120, Note_on_c, 9, 42, 120
1, 81125, Note_on_c, 9, 42, 0
1, 81240, Note_on_c, 9, 43, 123
1, 81359, Note_on_c, 9, 40, 0
1, 81359, Note_on_c, 9, 43, 0
1, 81360, Note_on_c, 9, 45, 124
1, 81360, Note_on_c, 9, 35, 123
1, 81599, Note_on_c, 9, 45, 0
1, 81599, Note_on_c, 9, 35, 0
1, 81600, Note_on_c, 9, 49, 123
1, 81600, Note_on_c, 9, 35, 124
1, 81605, Note_on_c, 9, 49, 0
1, 81840, Note_on_c, 9, 51, 120
1, 81845, Note_on_c, 9, 51, 0
1, 82079, Note_on_c, 9, 35, 0
1, 82080, Note_on_c, 9, 40, 124
1, 82080, Note_on_c, 9, 51, 122
1, 82080, Note_on_c, 9, 42, 122
1, 82085, Note_on_c, 9, 51, 0
1, 82085, Note_on_c, 9, 42, 0
1, 82319, Note_on_c, 9, 40, 0
1, 82320, Note_on_c, 9, 51, 120
1, 82320, Note_on_c, 9, 35, 117
1, 82325, Note_on_c, 9, 51, 0
1, 82559, Note_on_c, 9, 35, 0
1, 82560, Note_on_c, 9, 51, 122
1, 82560, Note_on_c, 9, 35, 123
1, 82565, Note_on_c, 9, 51, 0
1, 82800, Note_on_c, 9, 51, 117
1, 82805, Note_on_c, 9, 51, 0
1, 83039, Note_on_c, 9, 35, 0
1, 83040, Note_on_c, 9, 40, 124
1, 83040, Note_on_c, 9, 51, 123
1, 83040, Note_on_c, 9, 42, 123
1, 83045, Note_on_c, 9, 51, 0
1, 83045, Note_on_c, 9, 42, 0
1, 83279, Note_on_c, 9, 40, 0
1, 83280, Note_on_c, 9, 51, 118
1, 83285, Note_on_c, 9, 51, 0
1, 83520, Note_on_c, 9, 51, 122
1, 83520, Note_on_c, 9, 35, 124
1, 83525, Note_on_c, 9, 51, 0
1, 83760, Note_on_c, 9, 51, 119
1, 83765, Note_on_c, 9, 51, 0
1, 83999, Note_on_c, 9, 35, 0
1, 84000, Note_on_c, 9, 40, 124
1, 84000, Note_on_c, 9, 51, 123
1, 84000, Note_on_c, 9, 42, 123
1, 84005, Note_on_c, 9, 51, 0
1, 84005, Note_on_c, 9, 42, 0
1, 84239, Note_on_c, 9, 40, 0
1, 84240, Note_on_c, 9, 51, 120
1, 84240, Note_on_c, 9, 35, 121
1, 84245, Note_on_c, 9, 51, 0
1, 84479, Note_on_c, 9, 35, 0
1, 84480, Note_on_c, 9, 51, 122
1, 84480, Note_on_c, 9, 35, 124
1, 84485, Note_on_c, 9, 51, 0
1, 84720, Note_on_c, 9, 51, 120
1, 84725, Note_on_c, 9, 51, 0
1, 84959, Note_on_c, 9, 35, 0
1, 84960, Note_on_c, 9, 40, 124
1, 84960, Note_on_c, 9, 51, 123
1, 84960, Note_on_c, 9, 42, 124
1, 84965, Note_on_c, 9, 51, 0
1, 84965, Note_on_c, 9, 42, 0
1, 85199, Note_on_c, 9, 40, 0
1, 85200, Note_on_c, 9, 51, 113
1, 85200, Note_on_c, 9, 35, 116
1, 85205, Note_on_c, 9, 51, 0
1, 85439, Note_on_c, 9, 35, 0
1, 85440, Note_on_c, 9, 51, 122
1, 85440, Note_on_c, 9, 35, 124
1, 85445, Note_on_c, 9, 51, 0
1, 85680, Note_on_c, 9, 51, 118
1, 85685, Note_on_c, 9, 51, 0
1, 85919, Note_on_c, 9, 35, 0
1, 85920, Note_on_c, 9, 40, 124
1, 85920, Note_on_c, 9, 51, 123
1, 85920, Note_on_c, 9, 42, 123
1, 85925, Note_on_c, 9, 51, 0
1, 85925, Note_on_c, 9, 42, 0
1, 86159, Note_on_c, 9, 40, 0
1, 86160, Note_on_c, 9, 51, 120
1, 86160, Note_on_c, 9, 35, 118
1, 86165, Note_on_c, 9, 51, 0
1, 86399, Note_on_c, 9, 35, 0
1, 86400, Note_on_c, 9, 51, 123
1, 86400, Note_on_c, 9, 35, 123
1, 86405, Note_on_c, 9, 51, 0
1, 86640, Note_on_c, 9, 51, 119
1, 86645, Note_on_c, 9, 51, 0
1, 86879, Note_on_c, 9, 35, 0
1, 86880, Note_on_c, 9, 40, 124
1, 86880, Note_on_c, 9, 51, 123
1, 86880, Note_on_c, 9, 42, 123
1, 86885, Note_on_c, 9, 51, 0
1, 86885, Note_on_c, 9, 42, 0
1, 87119, Note_on_c, 9, 40, 0
1, 87120, Note_on_c, 9, 51, 120
1, 87120, Note_on_c, 9, 35, 117
1, 87125, Note_on_c, 9, 51, 0
1, 87359, Note_on_c, 9, 35, 0
1, 87360, Note_on_c, 9, 51, 123
1, 87360, Note_on_c, 9, 35, 123
1, 87365, Note_on_c, 9, 51, 0
1, 87600, Note_on_c, 9, 51, 119
1, 87605, Note_on_c, 9, 51, 0
1, 87839, Note_on_c, 9, 35, 0
1, 87840, Note_on_c, 9, 40, 124
1, 87840, Note_on_c, 9, 51, 124
1, 87840, Note_on_c, 9, 42, 121
1, 87845, Note_on_c, 9, 51, 0
1, 87845, Note_on_c, 9, 42, 0
1, 88079, Note_on_c, 9, 40, 0
1, 88080, Note_on_c, 9, 51, 120
1, 88080, Note_on_c, 9, 35, 122
1, 88085, Note_on_c, 9, 51, 0
1, 88319, Note_on_c, 9, 35, 0
1, 88320, Note_on_c, 9, 51, 122
1, 88320, Note_on_c, 9, 35, 124
1, 88325, Note_on_c, 9, 51, 0
1, 88560, Note_on_c, 9, 40, 124
1, 88560, Note_on_c, 9, 51, 120
1, 88565, Note_on_c, 9, 51, 0
1, 88799, Note_on_c, 9, 35, 0
1, 88799, Note_on_c, 9, 40, 0
1, 88800, Note_on_c, 9, 40, 124
1, 88800, Note_on_c, 9, 42, 121
1, 88805, Note_on_c, 9, 42, 0
1, 88920, Note_on_c, 9, 43, 123
1, 89039, Note_on_c, 9, 40, 0
1, 89039, Note_on_c, 9, 43, 0
1, 89040, Note_on_c, 9, 45, 122
1, 89040, Note_on_c, 9, 35, 124
1, 89279, Note_on_c, 9, 45, 0
1, 89279, Note_on_c, 9, 35, 0
1, 89280, Note_on_c, 9, 49, 122
1, 89280, Note_on_c, 9, 35, 123
1, 89285, Note_on_c, 9, 49, 0
1, 89520, Note_on_c, 9, 51, 120
1, 89525, Note_on_c, 9, 51, 0
1, 89759, Note_on_c, 9, 35, 0
1, 89760, Note_on_c, 9, 40, 124
1, 89760, Note_on_c, 9, 51, 122
1, 89760, Note_on_c, 9, 42, 122
1, 89765, Note_on_c, 9, 51, 0
1, 89765, Note_on_c, 9, 42, 0
1, 89999, Note_on_c, 9, 40, 0
1, 90000, Note_on_c, 9, 51, 120
1, 90000, Note_on_c, 9, 35, 118
1, 90005, Note_on_c, 9, 51, 0
1, 90239, Note_on_c, 9, 35, 0
1, 90240, Note_on_c, 9, 51, 123
1, 90240, Note_on_c, 9, 35, 123
1, 90245, Note_on_c, 9, 51, 0
1, 90480, Note_on_c, 9, 51, 119
1, 90485, Note_on_c, 9, 51, 0
1, 90719, Note_on_c, 9, 35, 0
1, 90720, Note_on_c, 9, 40, 124
1, 90720, Note_on_c, 9, 51, 123
1, 90720, Note_on_c, 9, 42, 123
1, 90725, Note_on_c, 9, 51, 0
1, 90725, Note_on_c, 9, 42, 0
1, 90959, Note_on_c, 9, 40, 0
1, 90960, Note_on_c, 9, 51, 118
1, 90960, Note_on_c, 9, 35, 114
1, 90965, Note_on_c, 9, 51, 0
1, 91199, Note_on_c, 9, 35, 0
1, 91200, Note_on_c, 9, 51, 123
1, 91200, Note_on_c, 9, 35, 124
1, 91205, Note_on_c, 9, 51, 0
1, 91440, Note_on_c, 9, 51, 114
1, 91445, Note_on_c, 9, 51, 0
1, 91679, Note_on_c, 9, 35, 0
1, 91680, Note_on_c, 9, 40, 124
1, 91680, Note_on_c, 9, 51, 123
1, 91680, Note_on_c, 9, 42, 122
1, 91685, Note_on_c, 9, 51, 0
1, 91685, Note_on_c, 9, 42, 0
1, 91919, Note_on_c, 9, 40, 0
1, 91920, Note_on_c, 9, 51, 115
1, 91920, Note_on_c, 9, 35, 114
1, 91925, Note_on_c, 9, 51, 0
1, 92159, Note_on_c, 9, 35, 0
1, 92160, Note_on_c, 9, 51, 122
1, 92160, Note_on_c, 9, 35, 124
1, 92165, Note_on_c, 9, 51, 0
1, 92400, Note_on_c, 9, 51, 115
1, 92405, Note_on_c, 9, 51, 0
1, 92639, Note_on_c, 9, 35, 0
1, 92640, Note_on_c, 9, 40, 123
1, 92640, Note_on_c, 9, 51, 122
1, 92640, Note_on_c, 9, 42, 124
1, 92645, Note_on_c, 9, 51, 0
1, 92645, Note_on_c, 9, 42, 0
1, 92879, Note_on_c, 9, 40, 0
1, 92880, Note_on_c, 9, 51, 121
1, 92880, Note_on_c, 9, 35, 118
1, 92885, Note_on_c, 9, 51, 0
1, 93119, Note_on_c, 9, 35, 0
1, 93120, Note_on_c, 9, 49, 123
1, 93120, Note_on_c, 9, 35, 124
1, 93125, Note_on_c, 9, 49, 0
1, 93360, Note_on_c, 9, 51, 120
1, 93365, Note_on_c, 9, 51, 0
1, 93599, Note_on_c, 9, 35, 0
1, 93600, Note_on_c, 9, 40, 124
1, 93600, Note_on_c, 9, 51, 124
1, 93600, Note_on_c, 9, 42, 123
1, 93612, Note_on_c, 9, 51, 0
1, 93612, Note_on_c, 9, 42, 0
1, 93840, Note_on_c, 9, 35, 120
1, 94079, Note_on_c, 9, 40, 0
1, 94079, Note_on_c, 9, 35, 0
1, 94080, Note_on_c, 9, 51, 123
1, 94080, Note_on_c, 9, 35, 123
1, 94092, Note_on_c, 9, 51, 0
1, 94559, Note_on_c, 9, 35, 0
1, 94560, Note_on_c, 9, 40, 124
1, 94560, Note_on_c, 9, 51, 123
1, 94560, Note_on_c, 9, 42, 123
1, 94565, Note_on_c, 9, 51, 0
1, 94565, Note_on_c, 9, 42, 0
1, 94799, Note_on_c, 9, 40, 0
1, 94800, Note_on_c, 9, 51, 120
1, 94805, Note_on_c, 9, 51, 0
1, 95040, Note_on_c, 9, 49, 123
1, 95040, Note_on_c, 9, 35, 124
1, 95045, Note_on_c, 9, 49, 0
1, 95280, Note_on_c, 9, 51, 117
1, 95285, Note_on_c, 9, 51, 0
1, 95519, Note_on_c, 9, 35, 0
1, 95520, Note_on_c, 9, 40, 123
1, 95520, Note_on_c, 9, 51, 123
1, 95520, Note_on_c, 9, 42, 124
1, 95525, Note_on_c, 9, 51, 0
1, 95525, Note_on_c, 9, 42, 0
1, 95759, Note_on_c, 9, 40, 0
1, 95760, Note_on_c, 9, 51, 120
1, 95760, Note_on_c, 9, 35, 119
1, 95765, Note_on_c, 9, 51, 0
1, 95999, Note_on_c, 9, 35, 0
1, 96000, Note_on_c, 9, 51, 123
1, 96000, Note_on_c, 9, 35, 122
1, 96005, Note_on_c, 9, 51, 0
1, 96240, Note_on_c, 9, 40, 123
1, 96240, Note_on_c, 9, 51, 122
1, 96240, Note_on_c, 9, 42, 123
1, 96245, Note_on_c, 9, 51, 0
1, 96245, Note_on_c, 9, 42, 0
1, 96479, Note_on_c, 9, 35, 0
1, 96479, Note_on_c, 9, 40, 0
1, 96480, Note_on_c, 9, 40, 123
1, 96599, Note_on_c, 9, 40, 0
1, 96600, Note_on_c, 9, 51, 123
1, 96600, Note_on_c, 9, 43, 122
1, 96602, Note_on_c, 9, 51, 0
1, 96719, Note_on_c, 9, 43, 0
1, 96720, Note_on_c, 9, 45, 122
1, 96720, Note_on_c, 9, 42, 123
1, 96720, Note_on_c, 9, 35, 123
1, 96725, Note_on_c, 9, 42, 0
1, 96959, Note_on_c, 9, 45, 0
1, 96959, Note_on_c, 9, 35, 0
1, 96960, Note_on_c, 9, 49, 123
1, 96960, Note_on_c, 9, 35, 123
1, 96972, Note_on_c, 9, 49, 0
1, 97439, Note_on_c, 9, 35, 0
1, 97440, Note_on_c, 9, 40, 124
1, 97440, Note_on_c, 9, 51, 123
1, 97440, Note_on_c, 9, 42, 123
1, 97445, Note_on_c, 9, 51, 0
1, 97445, Note_on_c, 9, 42, 0
1, 97679, Note_on_c, 9, 40, 0
1, 97680, Note_on_c, 9, 51, 121
1, 97680, Note_on_c, 9, 35, 116
1, 97685, Note_on_c, 9, 51, 0
1, 97919, Note_on_c, 9, 35, 0
1, 97920, Note_on_c, 9, 49, 123
1, 97920, Note_on_c, 9, 35, 123
1, 97925, Note_on_c, 9, 49, 0
1, 98160, Note_on_c, 9, 51, 120
1, 98165, Note_on_c, 9, 51, 0
1, 98399, Note_on_c, 9, 35, 0
1, 98400, Note_on_c, 9, 40, 124
1, 98400, Note_on_c, 9, 51, 123
1, 98400, Note_on_c, 9, 42, 123
1, 98405, Note_on_c, 9, 51, 0
1, 98405, Note_on_c, 9, 42, 0
1, 98639, Note_on_c, 9, 40, 0
1, 98640, Note_on_c, 9, 51, 122
1, 98640, Note_on_c, 9, 35, 121
1, 98645, Note_on_c, 9, 51, 0
1, 98879, Note_on_c, 9, 35, 0
1, 98880, Note_on_c, 9, 49, 123
1, 98880, Note_on_c, 9, 35, 124
1, 98885, Note_on_c, 9, 49, 0
1, 99120, Note_on_c, 9, 51, 118
1, 99125, Note_on_c, 9, 51, 0
1, 99359, Note_on_c, 9, 35, 0
1, 99360, Note_on_c, 9, 40, 124
1, 99360, Note_on_c, 9, 51, 123
1, 99360, Note_on_c, 9, 42, 123
1, 99365, Note_on_c, 9, 51, 0
1, 99365, Note_on_c, 9, 42, 0
1, 99599, Note_on_c, 9, 40, 0
1, 99600, Note_on_c, 9, 51, 120
1, 99600, Note_on_c, 9, 35, 121
1, 99605, Note_on_c, 9, 51, 0
1, 99839, Note_on_c, 9, 35, 0
1, 99840, Note_on_c, 9, 51, 123
1, 99840, Note_on_c, 9, 35, 124
1, 99845, Note_on_c, 9, 51, 0
1, 100080, Note_on_c, 9, 51, 120
1, 100085, Note_on_c, 9, 51, 0
1, 100319, Note_on_c, 9, 35, 0
1, 100320, Note_on_c, 9, 40, 124
1, 100320, Note_on_c, 9, 51, 124
1, 100320, Note_on_c, 9, 42, 123
1, 100325, Note_on_c, 9, 51, 0
1, 100325, Note_on_c, 9, 42, 0
1, 100559, Note_on_c, 9, 40, 0
1, 100560, Note_on_c, 9, 51, 122
1, 100560, Note_on_c, 9, 35, 123
1, 100565, Note_on_c, 9, 51, 0
1, 100799, Note_on_c, 9, 35, 0
1, 100800, Note_on_c, 9, 49, 123
1, 100800, Note_on_c, 9, 35, 123
1, 100805, Note_on_c, 9, 49, 0
1, 101040, Note_on_c, 9, 51, 121
1, 101045, Note_on_c, 9, 51, 0
1, 101279, Note_on_c, 9, 35, 0
1, 101280, Note_on_c, 9, 40, 123
1, 101280, Note_on_c, 9, 51, 123
1, 101280, Note_on_c, 9, 42, 123
1, 101285, Note_on_c, 9, 51, 0
1, 101285, Note_on_c, 9, 42, 0
1, 101519, Note_on_c, 9, 40, 0
1, 101520, Note_on_c, 9, 40, 122
1, 101639, Note_on_c, 9, 40, 0
1, 101640, Note_on_c, 9, 40, 124
1, 101759, Note_on_c, 9, 40, 0
1, 101760, Note_on_c, 9, 49, 120
1, 101760, Note_on_c, 9, 35, 124
1, 101772, Note_on_c, 9, 49, 0
1, 102239, Note_on_c, 9, 35, 0
1, 102240, Note_on_c, 9, 40, 124
1, 102240, Note_on_c, 9, 57, 121
1, 102252, Note_on_c, 9, 57, 0
1, 102719, Note_on_c, 9, 40, 0
1, 102720, Note_on_c, 9, 49, 121
1, 102720, Note_on_c, 9, 35, 124
1, 102732, Note_on_c, 9, 49, 0
1, 103199, Note_on_c, 9, 35, 0
1, 103200, Note_on_c, 9, 40, 124
1, 103200, Note_on_c, 9, 51, 122
1, 103202, Note_on_c, 9, 51, 0
1, 103319, Note_on_c, 9, 40, 0
1, 103320, Note_on_c, 9, 52, 122
1, 103320, Note_on_c, 9, 35, 123
1, 103322, Note_on_c, 9, 52, 0
1, 103439, Note_on_c, 9, 35, 0
1, 103500, Note_on_c, 9, 49, 120
1, 103500, Note_on_c, 9, 35, 124
1, 103504, Note_on_c, 9, 49, 0
1, 103679, Note_on_c, 9, 35, 0
1, 103680, Note_on_c, 9, 57, 121
1, 103680, Note_on_c, 9, 35, 124
1, 103692, Note_on_c, 9, 57, 0
1, 104159, Note_on_c, 9, 35, 0
1, 104160, Note_on_c, 9, 40, 124
1, 104160, Note_on_c, 9, 49, 123
1, 104160, Note_on_c, 9, 43, 124
1, 104172, Note_on_c, 9, 49, 0
1, 104639, Note_on_c, 9, 40, 0
1, 104639, Note_on_c, 9, 43, 0
1, 104640, Note_on_c, 9, 40, 124
1, 104659, Note_on_c, 9, 40, 0
1, 104660, Note_on_c, 9, 40, 123
1, 104699, Note_on_c, 9, 40, 0
1, 104880, Note_on_c, 9, 81, 103
1, 105119, Note_on_c, 9, 81, 0
1, 105120, Note_on_c, 9, 81, 103
1, 105359, Note_on_c, 9, 81, 0
1, 105360, Note_on_c, 9, 81, 104
1, 105599, Note_on_c, 9, 81, 0
1, 105600, Note_on_c, 9, 81, 103
1, 105839, Note_on_c, 9, 81, 0
1, 105840, Note_on_c, 9, 81, 104
1, 106079, Note_on_c, 9, 81, 0
1, 106080, Note_on_c, 9, 81, 104
1, 106319, Note_on_c, 9, 81, 0
1, 106320, Note_on_c, 9, 81, 104
1, 106559, Note_on_c, 9, 81, 0
1, 106560, Note_on_c, 9, 81, 104
1, 106799, Note_on_c, 9, 81, 0
1, 106800, Note_on_c, 9, 81, 104
1, 107039, Note_on_c, 9, 81, 0
1, 107040, Note_on_c, 9, 81, 104
1, 107279, Note_on_c, 9, 81, 0
1, 107280, Note_on_c, 9, 81, 106
1, 107519, Note_on_c, 9, 81, 0
1, 107520, Note_on_c, 9, 81, 102
1, 107759, Note_on_c, 9, 81, 0
1, 107760, Note_on_c, 9, 81, 104
1, 107999, Note_on_c, 9, 81, 0
1, 108000, Note_on_c, 9, 81, 102
1, 108239, Note_on_c, 9, 81, 0
1, 108240, Note_on_c, 9, 81, 103
1, 108479, Note_on_c, 9, 81, 0
1, 108480, Note_on_c, 9, 81, 103
1, 108719, Note_on_c, 9, 81, 0
1, 108720, Note_on_c, 9, 81, 104
1, 108959, Note_on_c, 9, 81, 0
1, 108990, Note_on_c, 9, 81, 103
1, 109079, Note_on_c, 9, 81, 0
1, 109230, Note_on_c, 9, 81, 105
1, 109319, Note_on_c, 9, 81, 0
1, 109440, Note_on_c, 9, 81, 103
1, 109679, Note_on_c, 9, 81, 0
1, 109680, Note_on_c, 9, 81, 102
1, 109919, Note_on_c, 9, 81, 0
1, 109920, Note_on_c, 9, 81, 103
1, 110159, Note_on_c, 9, 81, 0
1, 110160, Note_on_c, 9, 81, 104
1, 110399, Note_on_c, 9, 81, 0
1, 110400, Note_on_c, 9, 45, 123
1, 110400, Note_on_c, 9, 47, 118
1, 110400, Note_on_c, 9, 35, 123
1, 110414, Note_on_c, 9, 47, 0
1, 110415, Note_on_c, 9, 81, 102
1, 110459, Note_on_c, 9, 81, 0
1, 110519, Note_on_c, 9, 45, 0
1, 110519, Note_on_c, 9, 35, 0
1, 110520, Note_on_c, 9, 45, 123
1, 110520, Note_on_c, 9, 35, 123
1, 110535, Note_on_c, 9, 81, 99
1, 110579, Note_on_c, 9, 81, 0
1, 110639, Note_on_c, 9, 45, 0
1, 110639, Note_on_c, 9, 35, 0
1, 110640, Note_on_c, 9, 45, 124
1, 110640, Note_on_c, 9, 81, 104
1, 110640, Note_on_c, 9, 35, 123
1, 110729, Note_on_c, 9, 45, 0
1, 110729, Note_on_c, 9, 81, 0
1, 110730, Note_on_c, 9, 45, 122
1, 110730, Note_on_c, 9, 81, 110
1, 110759, Note_on_c, 9, 35, 0
1, 110760, Note_on_c, 9, 35, 123
1, 110849, Note_on_c, 9, 45, 0
1, 110849, Note_on_c, 9, 81, 0
1, 110879, Note_on_c, 9, 35, 0
1, 110880, Note_on_c, 9, 81, 114
1, 110880, Note_on_c, 9, 35, 124
1, 110880, Note_on_c, 9, 43, 124
1, 111119, Note_on_c, 9, 81, 0
1, 111119, Note_on_c, 9, 35, 0
1, 111119, Note_on_c, 9, 43, 0
1, 111120, Note_on_c, 9, 45, 121
1, 111120, Note_on_c, 9, 81, 109
1, 111120, Note_on_c, 9, 35, 124
1, 111120, Note_on_c, 9, 43, 123
1, 111359, Note_on_c, 9, 45, 0
1, 111359, Note_on_c, 9, 81, 0
1, 111359, Note_on_c, 9, 35, 0
1, 111359, Note_on_c, 9, 43, 0
1, 111360, Note_on_c, 9, 81, 108
1, 111360, Note_on_c, 9, 35, 124
1, 111360, Note_on_c, 9, 43, 123
1, 111449, Note_on_c, 9, 81, 0
1, 111450, Note_on_c, 9, 81, 106
1, 111479, Note_on_c, 9, 35, 0
1, 111479, Note_on_c, 9, 43, 0
1, 111480, Note_on_c, 9, 35, 123
1, 111480, Note_on_c, 9, 43, 123
1, 111569, Note_on_c, 9, 81, 0
1, 111570, Note_on_c, 9, 81, 108
1, 111599, Note_on_c, 9, 35, 0
1, 111599, Note_on_c, 9, 43, 0
1, 111600, Note_on_c, 9, 35, 123
1, 111600, Note_on_c, 9, 43, 123
1, 111689, Note_on_c, 9, 81, 0
1, 111690, Note_on_c, 9, 81, 111
1, 111719, Note_on_c, 9, 35, 0
1, 111719, Note_on_c, 9, 43, 0
1, 111720, Note_on_c, 9, 35, 122
1, 111720, Note_on_c, 9, 43, 123
1, 111809, Note_on_c, 9, 81, 0
1, 111839, Note_on_c, 9, 35, 0
1, 111839, Note_on_c, 9, 43, 0
1, 111840, Note_on_c, 9, 45, 124
1, 111840, Note_on_c, 9, 81, 112
1, 111840, Note_on_c, 9, 35, 123
1, 112079, Note_on_c, 9, 45, 0
1, 112079, Note_on_c, 9, 81, 0
1, 112079, Note_on_c, 9, 35, 0
1, 112080, Note_on_c, 9, 81, 112
1, 112080, Note_on_c, 9, 35, 124
1, 112080, Note_on_c, 9, 43, 124
1, 112319, Note_on_c, 9, 81, 0
1, 112319, Note_on_c, 9, 35, 0
1, 112319, Note_on_c, 9, 43, 0
1, 112320, Note_on_c, 9, 40, 124
1, 112320, Note_on_c, 9, 81, 117
1, 112320, Note_on_c, 9, 35, 124
1, 112799, Note_on_c, 9, 40, 0
1, 112799, Note_on_c, 9, 81, 0
1, 112799, Note_on_c, 9, 35, 0
1, 118800, Note_on_c, 9, 81, 114
1, 118800, Note_on_c, 9, 35, 123
1, 118800, Note_on_c, 9, 43, 123
1, 119039, Note_on_c, 9, 81, 0
1, 119039, Note_on_c, 9, 35, 0
1, 119039, Note_on_c, 9, 43, 0
1, 119040, Note_on_c, 9, 81, 108
1, 119040, Note_on_c, 9, 35, 122
1, 119040, Note_on_c, 9, 43, 122
1, 119159, Note_on_c, 9, 81, 0
1, 119159, Note_on_c, 9, 35, 0
1, 119159, Note_on_c, 9, 43, 0
1, 119160, Note_on_c, 9, 81, 108
1, 119160, Note_on_c, 9, 35, 121
1, 119160, Note_on_c, 9, 43, 121
1, 119279, Note_on_c, 9, 81, 0
1, 119279, Note_on_c, 9, 35, 0
1, 119279, Note_on_c, 9, 43, 0
1, 119280, Note_on_c, 9, 81, 111
1, 119280, Note_on_c, 9, 35, 122
1, 119280, Note_on_c, 9, 43, 121
1, 119519, Note_on_c, 9, 81, 0
1, 119519, Note_on_c, 9, 35, 0
1, 119519, Note_on_c, 9, 43, 0
1, 119520, Note_on_c, 9, 35, 123
1, 119520, Note_on_c, 9, 43, 123
1, 119550, Note_on_c, 9, 81, 113
1, 119639, Note_on_c, 9, 81, 0
1, 119759, Note_on_c, 9, 35, 0
1, 119759, Note_on_c, 9, 43, 0
1, 119760, Note_on_c, 9, 45, 122
1, 119760, Note_on_c, 9, 35, 123
1, 119775, Note_on_c, 9, 81, 111
1, 119819, Note_on_c, 9, 81, 0
1, 119879, Note_on_c, 9, 45, 0
1, 119879, Note_on_c, 9, 35, 0
1, 119880, Note_on_c, 9, 45, 120
1, 119880, Note_on_c, 9, 35, 121
1, 119895, Note_on_c, 9, 81, 109
1, 119939, Note_on_c, 9, 81, 0
1, 119999, Note_on_c, 9, 45, 0
1, 119999, Note_on_c, 9, 35, 0
1, 120000, Note_on_c, 9, 81, 110
1, 120000, Note_on_c, 9, 35, 124
1, 120000, Note_on_c, 9, 43, 123
1, 120239, Note_on_c, 9, 81, 0
1, 120239, Note_on_c, 9, 35, 0
1, 120239, Note_on_c, 9, 43, 0
1, 120240, Note_on_c, 9, 41, 123
1, 120240, Note_on_c, 9, 81, 113
1, 120240, Note_on_c, 9, 35, 122
1, 120359, Note_on_c, 9, 41, 0
1, 120359, Note_on_c, 9, 81, 0
1, 120359, Note_on_c, 9, 35, 0
1, 120360, Note_on_c, 9, 41, 121
1, 120360, Note_on_c, 9, 81, 107
1, 120360, Note_on_c, 9, 35, 122
1, 120479, Note_on_c, 9, 41, 0
1, 120479, Note_on_c, 9, 81, 0
1, 120479, Note_on_c, 9, 35, 0
1, 120480, Note_on_c, 9, 81, 109
1, 120480, Note_on_c, 9, 35, 124
1, 120480, Note_on_c, 9, 43, 123
1, 120719, Note_on_c, 9, 81, 0
1, 120719, Note_on_c, 9, 35, 0
1, 120719, Note_on_c, 9, 43, 0
1, 120720, Note_on_c, 9, 81, 114
1, 120720, Note_on_c, 9, 49, 123
1, 120720, Note_on_c, 9, 35, 124
1, 120725, Note_on_c, 9, 49, 0
1, 120959, Note_on_c, 9, 81, 0
1, 120959, Note_on_c, 9, 35, 0
1, 120960, Note_on_c, 9, 81, 108
1, 120960, Note_on_c, 9, 35, 121
1, 120960, Note_on_c, 9, 43, 121
1, 121079, Note_on_c, 9, 81, 0
1, 121079, Note_on_c, 9, 35, 0
1, 121079, Note_on_c, 9, 43, 0
1, 121080, Note_on_c, 9, 81, 106
1, 121080, Note_on_c, 9, 35, 124
1, 121080, Note_on_c, 9, 43, 124
1, 121199, Note_on_c, 9, 81, 0
1, 121199, Note_on_c, 9, 35, 0
1, 121199, Note_on_c, 9, 43, 0
1, 121200, Note_on_c, 9, 81, 113
1, 121200, Note_on_c, 9, 57, 123
1, 121200, Note_on_c, 9, 35, 124
1, 121205, Note_on_c, 9, 57, 0
1, 121439, Note_on_c, 9, 81, 0
1, 121439, Note_on_c, 9, 35, 0
1, 121440, Note_on_c, 9, 35, 120
1, 121440, Note_on_c, 9, 43, 120
1, 121455, Note_on_c, 9, 81, 114
1, 121499, Note_on_c, 9, 81, 0
1, 121559, Note_on_c, 9, 35, 0
1, 121559, Note_on_c, 9, 43, 0
1, 121560, Note_on_c, 9, 81, 111
1, 121560, Note_on_c, 9, 35, 123
1, 121560, Note_on_c, 9, 43, 123
1, 121679, Note_on_c, 9, 81, 0
1, 121679, Note_on_c, 9, 35, 0
1, 121679, Note_on_c, 9, 43, 0
1, 121680, Note_on_c, 9, 49, 124
1, 121680, Note_on_c, 9, 35, 124
1, 121685, Note_on_c, 9, 49, 0
1, 121695, Note_on_c, 9, 81, 116
1, 121919, Note_on_c, 9, 35, 0
1, 121919, Note_on_c, 9, 81, 0
1, 121920, Note_on_c, 9, 35, 123
1, 121920, Note_on_c, 9, 43, 123
1, 121950, Note_on_c, 9, 81, 115
1, 122039, Note_on_c, 9, 35, 0
1, 122039, Note_on_c, 9, 43, 0
1, 122039, Note_on_c, 9, 81, 0
1, 122040, Note_on_c, 9, 81, 112
1, 122040, Note_on_c, 9, 35, 124
1, 122040, Note_on_c, 9, 43, 123
1, 122159, Note_on_c, 9, 81, 0
1, 122159, Note_on_c, 9, 35, 0
1, 122159, Note_on_c, 9, 43, 0
1, 122160, Note_on_c, 9, 46, 123
1, 122160, Note_on_c, 9, 35, 124
1, 122165, Note_on_c, 9, 46, 0
1, 122175, Note_on_c, 9, 81, 117
1, 122399, Note_on_c, 9, 35, 0
1, 122399, Note_on_c, 9, 81, 0
1, 125280, Note_on_c, 9, 49, 123
1, 125280, Note_on_c, 9, 35, 124
1, 125285, Note_on_c, 9, 49, 0
1, 125295, Note_on_c, 9, 81, 111
1, 125519, Note_on_c, 9, 35, 0
1, 125519, Note_on_c, 9, 81, 0
1, 125520, Note_on_c, 9, 52, 123
1, 125520, Note_on_c, 9, 35, 124
1, 125525, Note_on_c, 9, 52, 0
1, 125535, Note_on_c, 9, 81, 117
1, 125759, Note_on_c, 9, 35, 0
1, 125759, Note_on_c, 9, 81, 0
1, 125760, Note_on_c, 9, 49, 122
1, 125760, Note_on_c, 9, 35, 124
1, 125765, Note_on_c, 9, 49, 0
1, 125775, Note_on_c, 9, 81, 117
1, 125999, Note_on_c, 9, 35, 0
1, 125999, Note_on_c, 9, 81, 0
1, 126000, Note_on_c, 9, 57, 123
1, 126000, Note_on_c, 9, 35, 124
1, 126005, Note_on_c, 9, 57, 0
1, 126015, Note_on_c, 9, 81, 119
1, 126239, Note_on_c, 9, 35, 0
1, 126239, Note_on_c, 9, 81, 0
1, 126360, Note_on_c, 9, 81, 104
1, 126479, Note_on_c, 9, 81, 0
1, 126480, Note_on_c, 9, 81, 108
1, 126599, Note_on_c, 9, 81, 0
1, 126600, Note_on_c, 9, 81, 113
1, 126719, Note_on_c, 9, 81, 0
1, 126720, Note_on_c, 9, 81, 116
1, 126839, Note_on_c, 9, 81, 0
1, 126840, Note_on_c, 9, 81, 118
1, 126959, Note_on_c, 9, 81, 0
1, 126960, Note_on_c, 9, 81, 120
1, 127079, Note_on_c, 9, 81, 0
1, 127080, Note_on_c, 9, 49, 123
1, 127080, Note_on_c, 9, 35, 122
1, 127082, Note_on_c, 9, 49, 0
1, 127199, Note_on_c, 9, 35, 0
1, 127200, Note_on_c, 9, 57, 122
1, 127200, Note_on_c, 9, 35, 124
1, 127202, Note_on_c, 9, 57, 0
1, 127319, Note_on_c, 9, 35, 0
1, 127320, Note_on_c, 9, 49, 123
1, 127320, Note_on_c, 9, 35, 124
1, 127329, Note_on_c, 9, 49, 0
1, 127679, Note_on_c, 9, 35, 0
1, 127680, Note_on_c, 9, 81, 122
1, 127680, Note_on_c, 9, 35, 124
1, 127680, Note_on_c, 9, 43, 124
1, 127919, Note_on_c, 9, 81, 0
1, 127919, Note_on_c, 9, 35, 0
1, 127919, Note_on_c, 9, 43, 0
1, 127920, Note_on_c, 9, 81, 118
1, 127920, Note_on_c, 9, 35, 124
1, 127920, Note_on_c, 9, 43, 124
1, 128159, Note_on_c, 9, 81, 0
1, 128159, Note_on_c, 9, 35, 0
1, 128159, Note_on_c, 9, 43, 0
1, 128160, Note_on_c, 9, 81, 116
1, 128160, Note_on_c, 9, 35, 124
1, 128160, Note_on_c, 9, 43, 124
1, 128399, Note_on_c, 9, 81, 0
1, 128399, Note_on_c, 9, 35, 0
1, 128399, Note_on_c, 9, 43, 0
1, 128400, Note_on_c, 9, 49, 123
1, 128400, Note_on_c, 9, 35, 124
1, 128405, Note_on_c, 9, 49, 0
1, 128415, Note_on_c, 9, 81, 118
1, 128639, Note_on_c, 9, 35, 0
1, 128639, Note_on_c, 9, 81, 0
1, 128730, Note_on_c, 9, 81, 100
1, 128849, Note_on_c, 9, 81, 0
1, 128880, Note_on_c, 9, 81, 107
1, 128969, Note_on_c, 9, 81, 0
1, 128985, Note_on_c, 9, 81, 114
1, 129089, Note_on_c, 9, 81, 0
1, 129105, Note_on_c, 9, 81, 118
1, 129209, Note_on_c, 9, 81, 0
1, 129210, Note_on_c, 9, 81, 118
1, 129329, Note_on_c, 9, 81, 0
1, 129360, Note_on_c, 9, 81, 119
1, 129480, Note_on_c, 9, 35, 124
1, 129480, Note_on_c, 9, 43, 123
1, 129599, Note_on_c, 9, 81, 0
1, 129599, Note_on_c, 9, 35, 0
1, 129599, Note_on_c, 9, 43, 0
1, 129600, Note_on_c, 9, 35, 124
1, 129600, Note_on_c, 9, 43, 124
1, 129719, Note_on_c, 9, 35, 0
1, 129719, Note_on_c, 9, 43, 0
1, 129720, Note_on_c, 9, 35, 124
1, 129720, Note_on_c, 9, 43, 124
1, 129900, Note_on_c, 9, 81, 102
1, 129959, Note_on_c, 9, 81, 0
1, 129990, Note_on_c, 9, 81, 106
1, 130079, Note_on_c, 9, 35, 0
1, 130079, Note_on_c, 9, 43, 0
1, 130079, Note_on_c, 9, 81, 0
1, 130080, Note_on_c, 9, 81, 117
1, 130199, Note_on_c, 9, 81, 0
1, 130200, Note_on_c, 9, 81, 118
1, 130319, Note_on_c, 9, 81, 0
1, 130320, Note_on_c, 9, 81, 121
1, 130440, Note_on_c, 9, 35, 123
1, 130440, Note_on_c, 9, 43, 124
1, 130559, Note_on_c, 9, 81, 0
1, 130559, Note_on_c, 9, 35, 0
1, 130559, Note_on_c, 9, 43, 0
1, 130560, Note_on_c, 9, 35, 124
1, 130560, Note_on_c, 9, 43, 124
1, 130679, Note_on_c, 9, 35, 0
1, 130679, Note_on_c, 9, 43, 0
1, 130680, Note_on_c, 9, 35, 124
1, 130680, Note_on_c, 9, 43, 124
1, 130830, Note_on_c, 9, 81, 104
1, 130919, Note_on_c, 9, 81, 0
1, 130920, Note_on_c, 9, 81, 110
1, 131039, Note_on_c, 9, 35, 0
1, 131039, Note_on_c, 9, 43, 0
1, 131039, Note_on_c, 9, 81, 0
1, 131055, Note_on_c, 9, 81, 118
1, 131099, Note_on_c, 9, 81, 0
1, 131160, Note_on_c, 9, 81, 118
1, 131279, Note_on_c, 9, 81, 0
1, 131280, Note_on_c, 9, 81, 121
1, 131519, Note_on_c, 9, 81, 0
1, 133080, Note_on_c, 9, 81, 118
1, 133080, Note_on_c, 9, 35, 123
1, 133080, Note_on_c, 9, 43, 124
1, 133319, Note_on_c, 9, 81, 0
1, 133319, Note_on_c, 9, 35, 0
1, 133319, Note_on_c, 9, 43, 0
1, 133320, Note_on_c, 9, 45, 124
1, 133320, Note_on_c, 9, 81, 121
1, 133320, Note_on_c, 9, 35, 124
1, 133320, Note_on_c, 9, 43, 124
1, 133439, Note_on_c, 9, 45, 0
1, 133439, Note_on_c, 9, 81, 0
1, 133439, Note_on_c, 9, 35, 0
1, 133439, Note_on_c, 9, 43, 0
1, 133560, Note_on_c, 9, 45, 124
1, 133560, Note_on_c, 9, 35, 124
1, 133575, Note_on_c, 9, 81, 121
1, 133619, Note_on_c, 9, 81, 0
1, 133799, Note_on_c, 9, 45, 0
1, 133799, Note_on_c, 9, 35, 0
1, 133800, Note_on_c, 9, 81, 119
1, 133800, Note_on_c, 9, 35, 124
1, 133800, Note_on_c, 9, 43, 124
1, 133919, Note_on_c, 9, 81, 0
1, 133919, Note_on_c, 9, 35, 0
1, 133919, Note_on_c, 9, 43, 0
1, 134040, Note_on_c, 9, 45, 124
1, 134040, Note_on_c, 9, 81, 120
1, 134040, Note_on_c, 9, 35, 124
1, 134279, Note_on_c, 9, 45, 0
1, 134279, Note_on_c, 9, 81, 0
1, 134279, Note_on_c, 9, 35, 0
1, 134280, Note_on_c, 9, 81, 120
1, 134280, Note_on_c, 9, 35, 124
1, 134280, Note_on_c, 9, 43, 124
1, 134399, Note_on_c, 9, 81, 0
1, 134399, Note_on_c, 9, 35, 0
1, 134399, Note_on_c, 9, 43, 0
1, 134520, Note_on_c, 9, 81, 120
1, 134520, Note_on_c, 9, 49, 123
1, 134520, Note_on_c, 9, 35, 124
1, 134529, Note_on_c, 9, 49, 0
1, 134879, Note_on_c, 9, 81, 0
1, 134879, Note_on_c, 9, 35, 0
1, 135720, Note_on_c, 9, 81, 103
1, 135839, Note_on_c, 9, 81, 0
1, 135840, Note_on_c, 9, 81, 103
1, 135959, Note_on_c, 9, 81, 0
1, 135960, Note_on_c, 9, 81, 114
1, 136079, Note_on_c, 9, 81, 0
1, 136080, Note_on_c, 9, 81, 117
1, 136199, Note_on_c, 9, 81, 0
1, 136200, Note_on_c, 9, 81, 117
1, 136319, Note_on_c, 9, 81, 0
1, 136320, Note_on_c, 9, 81, 118
1, 136439, Note_on_c, 9, 81, 0
1, 136440, Note_on_c, 9, 81, 120
1, 136799, Note_on_c, 9, 81, 0
1, 136920, Note_on_c, 9, 49, 123
1, 136920, Note_on_c, 9, 35, 123
1, 136924, Note_on_c, 9, 49, 0
1, 136935, Note_on_c, 9, 81, 120
1, 136979, Note_on_c, 9, 81, 0
1, 137160, Note_on_c, 9, 81, 106
1, 137279, Note_on_c, 9, 35, 0
1, 137279, Note_on_c, 9, 81, 0
1, 137280, Note_on_c, 9, 57, 119
1, 137280, Note_on_c, 9, 35, 119
1, 137282, Note_on_c, 9, 57, 0
1, 137399, Note_on_c, 9, 35, 0
1, 137400, Note_on_c, 9, 81, 117
1, 137400, Note_on_c, 9, 52, 124
1, 137400, Note_on_c, 9, 35, 122
1, 137405, Note_on_c, 9, 52, 0
1, 137639, Note_on_c, 9, 81, 0
1, 137670, Note_on_c, 9, 81, 116
1, 137759, Note_on_c, 9, 35, 0
1, 137759, Note_on_c, 9, 81, 0
1, 137880, Note_on_c, 9, 55, 127
1, 137880, Note_on_c, 9, 35, 124
1, 137884, Note_on_c, 9, 55, 0
1, 137895, Note_on_c, 9, 81, 118
1, 137939, Note_on_c, 9, 81, 0
1, 138119, Note_on_c, 9, 35, 0
1, 138120, Note_on_c, 9, 49, 123
1, 138120, Note_on_c, 9, 35, 123
1, 138121, Note_on_c, 9, 49, 0
1, 138135, Note_on_c, 9, 81, 116
1, 138179, Note_on_c, 9, 81, 0
1, 138239, Note_on_c, 9, 35, 0
1, 138360, Note_on_c, 9, 57, 123
1, 138360, Note_on_c, 9, 35, 124
1, 138364, Note_on_c, 9, 57, 0
1, 138375, Note_on_c, 9, 81, 119
1, 138419, Note_on_c, 9, 81, 0
1, 138600, Note_on_c, 9, 81, 118
1, 138719, Note_on_c, 9, 35, 0
1, 138719, Note_on_c, 9, 81, 0
1, 138840, Note_on_c, 9, 49, 123
1, 138840, Note_on_c, 9, 35, 124
1, 138844, Note_on_c, 9, 49, 0
1, 138870, Note_on_c, 9, 81, 117
1, 138959, Note_on_c, 9, 81, 0
1, 139079, Note_on_c, 9, 35, 0
1, 139080, Note_on_c, 9, 81, 115
1, 139080, Note_on_c, 9, 35, 123
1, 139199, Note_on_c, 9, 81, 0
1, 139199, Note_on_c, 9, 35, 0
1, 139320, Note_on_c, 9, 81, 117
1, 139320, Note_on_c, 9, 35, 123
1, 139559, Note_on_c, 9, 81, 0
1, 139559, Note_on_c, 9, 35, 0
1, 139560, Note_on_c, 9, 81, 116
1, 139560, Note_on_c, 9, 35, 123
1, 139679, Note_on_c, 9, 81, 0
1, 139679, Note_on_c, 9, 35, 0
1, 139800, Note_on_c, 9, 81, 107
1, 139800, Note_on_c, 9, 57, 123
1, 139800, Note_on_c, 9, 35, 124
1, 139805, Note_on_c, 9, 57, 0
1, 140039, Note_on_c, 9, 81, 0
1, 140039, Note_on_c, 9, 35, 0
1, 140040, Note_on_c, 9, 81, 110
1, 140040, Note_on_c, 9, 35, 123
1, 140159, Note_on_c, 9, 81, 0
1, 140159, Note_on_c, 9, 35, 0
1, 140280, Note_on_c, 9, 81, 111
1, 140280, Note_on_c, 9, 35, 124
1, 140519, Note_on_c, 9, 81, 0
1, 140519, Note_on_c, 9, 35, 0
1, 140520, Note_on_c, 9, 81, 112
1, 140520, Note_on_c, 9, 35, 123
1, 140639, Note_on_c, 9, 81, 0
1, 140639, Note_on_c, 9, 35, 0
1, 140760, Note_on_c, 9, 81, 113
1, 140760, Note_on_c, 9, 49, 123
1, 140760, Note_on_c, 9, 35, 123
1, 140765, Note_on_c, 9, 49, 0
1, 140999, Note_on_c, 9, 81, 0
1, 140999, Note_on_c, 9, 35, 0
1, 141000, Note_on_c, 9, 81, 112
1, 141000, Note_on_c, 9, 35, 122
1, 141119, Note_on_c, 9, 81, 0
1, 141119, Note_on_c, 9, 35, 0
1, 141240, Note_on_c, 9, 81, 111
1, 141240, Note_on_c, 9, 35, 123
1, 141479, Note_on_c, 9, 81, 0
1, 141479, Note_on_c, 9, 35, 0
1, 141480, Note_on_c, 9, 81, 111
1, 141480, Note_on_c, 9, 35, 123
1, 141599, Note_on_c, 9, 81, 0
1, 141599, Note_on_c, 9, 35, 0
1, 141660, Note_on_c, 9, 81, 115
1, 141719, Note_on_c, 9, 81, 0
1, 141720, Note_on_c, 9, 49, 124
1, 141720, Note_on_c, 9, 49, 0
1, 141720, Note_on_c, 9, 35, 124
1, 141780, Note_on_c, 9, 81, 102
1, 141839, Note_on_c, 9, 81, 0
1, 141840, Note_on_c, 9, 81, 112
1, 141929, Note_on_c, 9, 81, 0
1, 141930, Note_on_c, 9, 81, 105
1, 142004, Note_on_c, 9, 81, 0
1, 142005, Note_on_c, 9, 81, 115
1, 142079, Note_on_c, 9, 35, 0
1, 142079, Note_on_c, 9, 81, 0
1, 142190, Tempo, 416667
1, 142560, Note_on_c, 9, 40, 119
1, 142719, Note_on_c, 9, 40, 0
1, 142720, Note_on_c, 9, 40, 122
1, 142799, Note_on_c, 9, 40, 0
1, 142880, Note_on_c, 9, 45, 122
1, 143039, Note_on_c, 9, 45, 0
1, 143040, Note_on_c, 9, 49, 122
1, 143040, Note_on_c, 9, 35, 121
1, 143066, Note_on_c, 9, 49, 0
1, 143399, Note_on_c, 9, 35, 0
1, 143400, Note_on_c, 9, 35, 120
1, 143519, Note_on_c, 9, 35, 0
1, 143520, Note_on_c, 9, 40, 121
1, 143520, Note_on_c, 9, 51, 122
1, 143520, Note_on_c, 9, 42, 121
1, 143546, Note_on_c, 9, 51, 0
1, 143546, Note_on_c, 9, 42, 0
1, 143999, Note_on_c, 9, 40, 0
1, 144000, Note_on_c, 9, 51, 122
1, 144000, Note_on_c, 9, 35, 121
1, 144026, Note_on_c, 9, 51, 0
1, 144359, Note_on_c, 9, 35, 0
1, 144360, Note_on_c, 9, 35, 120
1, 144479, Note_on_c, 9, 35, 0
1, 144480, Note_on_c, 9, 40, 121
1, 144480, Note_on_c, 9, 51, 121
1, 144480, Note_on_c, 9, 42, 121
1, 144506, Note_on_c, 9, 51, 0
1, 144506, Note_on_c, 9, 42, 0
1, 144959, Note_on_c, 9, 40, 0
1, 144960, Note_on_c, 9, 51, 122
1, 144960, Note_on_c, 9, 35, 120
1, 144986, Note_on_c, 9, 51, 0
1, 145319, Note_on_c, 9, 35, 0
1, 145320, Note_on_c, 9, 35, 121
1, 145439, Note_on_c, 9, 35, 0
1, 145440, Note_on_c, 9, 40, 123
1, 145440, Note_on_c, 9, 51, 122
1, 145440, Note_on_c, 9, 42, 121
1, 145466, Note_on_c, 9, 51, 0
1, 145466, Note_on_c, 9, 42, 0
1, 145919, Note_on_c, 9, 40, 0
1, 145920, Note_on_c, 9, 51, 121
1, 145920, Note_on_c, 9, 35, 121
1, 145946, Note_on_c, 9, 51, 0
1, 146279, Note_on_c, 9, 35, 0
1, 146280, Note_on_c, 9, 35, 121
1, 146399, Note_on_c, 9, 35, 0
1, 146400, Note_on_c, 9, 40, 123
1, 146400, Note_on_c, 9, 51, 122
1, 146400, Note_on_c, 9, 42, 121
1, 146426, Note_on_c, 9, 51, 0
1, 146426, Note_on_c, 9, 42, 0
1, 146720, Note_on_c, 9, 35, 120
1, 146879, Note_on_c, 9, 40, 0
1, 146879, Note_on_c, 9, 35, 0
1, 146880, Note_on_c, 9, 51, 122
1, 146880, Note_on_c, 9, 35, 122
1, 146906, Note_on_c, 9, 51, 0
1, 147239, Note_on_c, 9, 35, 0
1, 147240, Note_on_c, 9, 35, 122
1, 147359, Note_on_c, 9, 35, 0
1, 147360, Note_on_c, 9, 40, 124
1, 147360, Note_on_c, 9, 51, 122
1, 147360, Note_on_c, 9, 42, 122
1, 147386, Note_on_c, 9, 51, 0
1, 147386, Note_on_c, 9, 42, 0
1, 147839, Note_on_c, 9, 40, 0
1, 147840, Note_on_c, 9, 51, 122
1, 147840, Note_on_c, 9, 35, 121
1, 147866, Note_on_c, 9, 51, 0
1, 148199, Note_on_c, 9, 35, 0
1, 148200, Note_on_c, 9, 35, 123
1, 148319, Note_on_c, 9, 35, 0
1, 148320, Note_on_c, 9, 40, 123
1, 148320, Note_on_c, 9, 51, 122
1, 148320, Note_on_c, 9, 42, 121
1, 148346, Note_on_c, 9, 51, 0
1, 148346, Note_on_c, 9, 42, 0
1, 148799, Note_on_c, 9, 40, 0
1, 148800, Note_on_c, 9, 51, 122
1, 148800, Note_on_c, 9, 35, 121
1, 148826, Note_on_c, 9, 51, 0
1, 149039, Note_on_c, 9, 35, 0
1, 149040, Note_on_c, 9, 35, 123
1, 149279, Note_on_c, 9, 35, 0
1, 149280, Note_on_c, 9, 40, 123
1, 149280, Note_on_c, 9, 51, 122
1, 149280, Note_on_c, 9, 42, 121
1, 149306, Note_on_c, 9, 51, 0
1, 149306, Note_on_c, 9, 42, 0
1, 149759, Note_on_c, 9, 40, 0
1, 149760, Note_on_c, 9, 51, 122
1, 149760, Note_on_c, 9, 35, 121
1, 149769, Note_on_c, 9, 51, 0
1, 149940, Note_on_c, 9, 40, 122
1, 149999, Note_on_c, 9, 40, 0
1, 150060, Note_on_c, 9, 40, 121
1, 150239, Note_on_c, 9, 35, 0
1, 150239, Note_on_c, 9, 40, 0
1, 150240, Note_on_c, 9, 51, 123
1, 150240, Note_on_c, 9, 42, 121
1, 150240, Note_on_c, 9, 43, 122
1, 150248, Note_on_c, 9, 51, 0
1, 150248, Note_on_c, 9, 42, 0
1, 150400, Note_on_c, 9, 40, 121
1, 150559, Note_on_c, 9, 40, 0
1, 150560, Note_on_c, 9, 45, 123
1, 150719, Note_on_c, 9, 43, 0
1, 150719, Note_on_c, 9, 45, 0
1, 150720, Note_on_c, 9, 49, 123
1, 150720, Note_on_c, 9, 35, 124
1, 150746, Note_on_c, 9, 49, 0
1, 150959, Note_on_c, 9, 35, 0
1, 150960, Note_on_c, 9, 35, 119
1, 151199, Note_on_c, 9, 35, 0
1, 151200, Note_on_c, 9, 40, 123
1, 151200, Note_on_c, 9, 46, 122
1, 151200, Note_on_c, 9, 42, 122
1, 151226, Note_on_c, 9, 46, 0
1, 151226, Note_on_c, 9, 42, 0
1, 151679, Note_on_c, 9, 40, 0
1, 151680, Note_on_c, 9, 46, 122
1, 151680, Note_on_c, 9, 35, 122
1, 151706, Note_on_c, 9, 46, 0
1, 151919, Note_on_c, 9, 35, 0
1, 151920, Note_on_c, 9, 35, 120
1, 152159, Note_on_c, 9, 35, 0
1, 152160, Note_on_c, 9, 40, 123
1, 152160, Note_on_c, 9, 46, 122
1, 152160, Note_on_c, 9, 42, 122
1, 152186, Note_on_c, 9, 46, 0
1, 152186, Note_on_c, 9, 42, 0
1, 152639, Note_on_c, 9, 40, 0
1, 152640, Note_on_c, 9, 46, 122
1, 152640, Note_on_c, 9, 35, 118
1, 152666, Note_on_c, 9, 46, 0
1, 152879, Note_on_c, 9, 35, 0
1, 152880, Note_on_c, 9, 35, 121
1, 153119, Note_on_c, 9, 35, 0
1, 153120, Note_on_c, 9, 40, 123
1, 153120, Note_on_c, 9, 46, 123
1, 153146, Note_on_c, 9, 46, 0
1, 153599, Note_on_c, 9, 40, 0
1, 153600, Note_on_c, 9, 46, 123
1, 153600, Note_on_c, 9, 35, 123
1, 153626, Note_on_c, 9, 46, 0
1, 153959, Note_on_c, 9, 35, 0
1, 153960, Note_on_c, 9, 35, 122
1, 154079, Note_on_c, 9, 35, 0
1, 154080, Note_on_c, 9, 40, 123
1, 154080, Note_on_c, 9, 46, 123
1, 154106, Note_on_c, 9, 46, 0
1, 154559, Note_on_c, 9, 40, 0
1, 154560, Note_on_c, 9, 46, 123
1, 154560, Note_on_c, 9, 35, 123
1, 154586, Note_on_c, 9, 46, 0
1, 154799, Note_on_c, 9, 35, 0
1, 154800, Note_on_c, 9, 35, 121
1, 155039, Note_on_c, 9, 35, 0
1, 155040, Note_on_c, 9, 40, 123
1, 155040, Note_on_c, 9, 46, 122
1, 155066, Note_on_c, 9, 46, 0
1, 155519, Note_on_c, 9, 40, 0
1, 155520, Note_on_c, 9, 46, 122
1, 155520, Note_on_c, 9, 35, 123
1, 155546, Note_on_c, 9, 46, 0
1, 155759, Note_on_c, 9, 35, 0
1, 155760, Note_on_c, 9, 35, 123
1, 155999, Note_on_c, 9, 35, 0
1, 156000, Note_on_c, 9, 40, 123
1, 156000, Note_on_c, 9, 46, 122
1, 156026, Note_on_c, 9, 46, 0
1, 156320, Note_on_c, 9, 35, 123
1, 156479, Note_on_c, 9, 40, 0
1, 156479, Note_on_c, 9, 35, 0
1, 156480, Note_on_c, 9, 46, 122
1, 156480, Note_on_c, 9, 35, 123
1, 156489, Note_on_c, 9, 46, 0
1, 156660, Note_on_c, 9, 40, 123
1, 156719, Note_on_c, 9, 40, 0
1, 156780, Note_on_c, 9, 40, 122
1, 156959, Note_on_c, 9, 35, 0
1, 156959, Note_on_c, 9, 40, 0
1, 156960, Note_on_c, 9, 40, 122
1, 156960, Note_on_c, 9, 46, 122
1, 156977, Note_on_c, 9, 46, 0
1, 157120, Note_on_c, 9, 35, 123
1, 157279, Note_on_c, 9, 40, 0
1, 157280, Note_on_c, 9, 40, 124
1, 157280, Note_on_c, 9, 49, 124
1, 157288, Note_on_c, 9, 49, 0
1, 157439, Note_on_c, 9, 35, 0
1, 157439, Note_on_c, 9, 40, 0
1, 158080, Note_on_c, 9, 40, 123
1, 158239, Note_on_c, 9, 40, 0
1, 158240, Note_on_c, 9, 40, 123
1, 158399, Note_on_c, 9, 40, 0
1, 158400, Note_on_c, 9, 49, 122
1, 158400, Note_on_c, 9, 35, 124
1, 158426, Note_on_c, 9, 49, 0
1, 158639, Note_on_c, 9, 35, 0
1, 158640, Note_on_c, 9, 35, 122
1, 158879, Note_on_c, 9, 35, 0
1, 158880, Note_on_c, 9, 40, 124
1, 158880, Note_on_c, 9, 46, 122
1, 158906, Note_on_c, 9, 46, 0
1, 159200, Note_on_c, 9, 35, 121
1, 159359, Note_on_c, 9, 40, 0
1, 159359, Note_on_c, 9, 35, 0
1, 159360, Note_on_c, 9, 46, 122
1, 159360, Note_on_c, 9, 35, 120
1, 159386, Note_on_c, 9, 46, 0
1, 159599, Note_on_c, 9, 35, 0
1, 159600, Note_on_c, 9, 35, 121
1, 159839, Note_on_c, 9, 35, 0
1, 159840, Note_on_c, 9, 40, 123
1, 159840, Note_on_c, 9, 46, 122
1, 159866, Note_on_c, 9, 46, 0
1, 160160, Note_on_c, 9, 35, 116
1, 160319, Note_on_c, 9, 40, 0
1, 160319, Note_on_c, 9, 35, 0
1, 160320, Note_on_c, 9, 46, 122
1, 160320, Note_on_c, 9, 35, 123
1, 160346, Note_on_c, 9, 46, 0
1, 160679, Note_on_c, 9, 35, 0
1, 160680, Note_on_c, 9, 35, 121
1, 160799, Note_on_c, 9, 35, 0
1, 160800, Note_on_c, 9, 40, 123
1, 160800, Note_on_c, 9, 46, 122
1, 160826, Note_on_c, 9, 46, 0
1, 161120, Note_on_c, 9, 35, 121
1, 161279, Note_on_c, 9, 40, 0
1, 161279, Note_on_c, 9, 35, 0
1, 161280, Note_on_c, 9, 46, 122
1, 161280, Note_on_c, 9, 35, 121
1, 161306, Note_on_c, 9, 46, 0
1, 161639, Note_on_c, 9, 35, 0
1, 161640, Note_on_c, 9, 35, 122
1, 161759, Note_on_c, 9, 35, 0
1, 161760, Note_on_c, 9, 40, 123
1, 161760, Note_on_c, 9, 46, 122
1, 161768, Note_on_c, 9, 46, 0
1, 161919, Note_on_c, 9, 40, 0
1, 161920, Note_on_c, 9, 40, 122
1, 162079, Note_on_c, 9, 40, 0
1, 162080, Note_on_c, 9, 40, 121
1, 162239, Note_on_c, 9, 40, 0
1, 162240, Note_on_c, 9, 49, 122
1, 162240, Note_on_c, 9, 35, 123
1, 162266, Note_on_c, 9, 49, 0
1, 162479, Note_on_c, 9, 35, 0
1, 162480, Note_on_c, 9, 35, 121
1, 162719, Note_on_c, 9, 35, 0
1, 162720, Note_on_c, 9, 40, 124
1, 162720, Note_on_c, 9, 46, 123
1, 162746, Note_on_c, 9, 46, 0
1, 163040, Note_on_c, 9, 35, 120
1, 163199, Note_on_c, 9, 40, 0
1, 163199, Note_on_c, 9, 35, 0
1, 163200, Note_on_c, 9, 46, 122
1, 163200, Note_on_c, 9, 35, 121
1, 163226, Note_on_c, 9, 46, 0
1, 163439, Note_on_c, 9, 35, 0
1, 163440, Note_on_c, 9, 35, 123
1, 163679, Note_on_c, 9, 35, 0
1, 163680, Note_on_c, 9, 40, 123
1, 163680, Note_on_c, 9, 46, 123
1, 163697, Note_on_c, 9, 46, 0
1, 163860, Note_on_c, 9, 43, 121
1, 163919, Note_on_c, 9, 43, 0
1, 163999, Note_on_c, 9, 40, 0
1, 164000, Note_on_c, 9, 45, 121
1, 164159, Note_on_c, 9, 45, 0
1, 164160, Note_on_c, 9, 49, 122
1, 164160, Note_on_c, 9, 35, 124
1, 164186, Note_on_c, 9, 49, 0
1, 164519, Note_on_c, 9, 35, 0
1, 164520, Note_on_c, 9, 35, 123
1, 164639, Note_on_c, 9, 35, 0
1, 164640, Note_on_c, 9, 40, 124
1, 164640, Note_on_c, 9, 46, 123
1, 164666, Note_on_c, 9, 46, 0
1, 164960, Note_on_c, 9, 35, 121
1, 165119, Note_on_c, 9, 40, 0
1, 165119, Note_on_c, 9, 35, 0
1, 165120, Note_on_c, 9, 46, 122
1, 165120, Note_on_c, 9, 35, 121
1, 165146, Note_on_c, 9, 46, 0
1, 165479, Note_on_c, 9, 35, 0
1, 165480, Note_on_c, 9, 35, 123
1, 165599, Note_on_c, 9, 35, 0
1, 165600, Note_on_c, 9, 40, 124
1, 165600, Note_on_c, 9, 46, 122
1, 165626, Note_on_c, 9, 46, 0
1, 165920, Note_on_c, 9, 35, 121
1, 166079, Note_on_c, 9, 40, 0
1, 166079, Note_on_c, 9, 35, 0
1, 166080, Note_on_c, 9, 49, 123
1, 166080, Note_on_c, 9, 35, 122
1, 166106, Note_on_c, 9, 49, 0
1, 166439, Note_on_c, 9, 35, 0
1, 166440, Note_on_c, 9, 35, 121
1, 166559, Note_on_c, 9, 35, 0
1, 166560, Note_on_c, 9, 40, 123
1, 166560, Note_on_c, 9, 46, 122
1, 166586, Note_on_c, 9, 46, 0
1, 166880, Note_on_c, 9, 35, 121
1, 167039, Note_on_c, 9, 40, 0
1, 167039, Note_on_c, 9, 35, 0
1, 167040, Note_on_c, 9, 46, 122
1, 167040, Note_on_c, 9, 35, 121
1, 167066, Note_on_c, 9, 46, 0
1, 167279, Note_on_c, 9, 35, 0
1, 167280, Note_on_c, 9, 35, 121
1, 167519, Note_on_c, 9, 35, 0
1, 167520, Note_on_c, 9, 40, 124
1, 167520, Note_on_c, 9, 46, 122
1, 167546, Note_on_c, 9, 46, 0
1, 167840, Note_on_c, 9, 35, 122
1, 167999, Note_on_c, 9, 40, 0
1, 167999, Note_on_c, 9, 35, 0
1, 168000, Note_on_c, 9, 46, 122
1, 168000, Note_on_c, 9, 35, 121
1, 168026, Note_on_c, 9, 46, 0
1, 168239, Note_on_c, 9, 35, 0
1, 168240, Note_on_c, 9, 35, 121
1, 168479, Note_on_c, 9, 35, 0
1, 168480, Note_on_c, 9, 40, 123
1, 168480, Note_on_c, 9, 46, 122
1, 168506, Note_on_c, 9, 46, 0
1, 168800, Note_on_c, 9, 35, 120
1, 168959, Note_on_c, 9, 40, 0
1, 168959, Note_on_c, 9, 35, 0
1, 168960, Note_on_c, 9, 46, 122
1, 168960, Note_on_c, 9, 35, 121
1, 168986, Note_on_c, 9, 46, 0
1, 169319, Note_on_c, 9, 35, 0
1, 169320, Note_on_c, 9, 35, 121
1, 169439, Note_on_c, 9, 35, 0
1, 169440, Note_on_c, 9, 40, 124
1, 169440, Note_on_c, 9, 46, 122
1, 169466, Note_on_c, 9, 46, 0
1, 169760, Note_on_c, 9, 35, 121
1, 169919, Note_on_c, 9, 40, 0
1, 169919, Note_on_c, 9, 35, 0
1, 169920, Note_on_c, 9, 46, 122
1, 169920, Note_on_c, 9, 35, 123
1, 169946, Note_on_c, 9, 46, 0
1, 170159, Note_on_c, 9, 35, 0
1, 170160, Note_on_c, 9, 35, 121
1, 170399, Note_on_c, 9, 35, 0
1, 170400, Note_on_c, 9, 40, 123
1, 170400, Note_on_c, 9, 46, 122
1, 170426, Note_on_c, 9, 46, 0
1, 170720, Note_on_c, 9, 35, 123
1, 170879, Note_on_c, 9, 40, 0
1, 170879, Note_on_c, 9, 35, 0
1, 170880, Note_on_c, 9, 46, 121
1, 170880, Note_on_c, 9, 35, 122
1, 170906, Note_on_c, 9, 46, 0
1, 171239, Note_on_c, 9, 35, 0
1, 171240, Note_on_c, 9, 35, 123
1, 171359, Note_on_c, 9, 35, 0
1, 171360, Note_on_c, 9, 40, 123
1, 171360, Note_on_c, 9, 46, 121
1, 171386, Note_on_c, 9, 46, 0
1, 171680, Note_on_c, 9, 35, 123
1, 171839, Note_on_c, 9, 40, 0
1, 171839, Note_on_c, 9, 35, 0
1, 171840, Note_on_c, 9, 49, 123
1, 171840, Note_on_c, 9, 35, 124
1, 171866, Note_on_c, 9, 49, 0
1, 172199, Note_on_c, 9, 35, 0
1, 172200, Note_on_c, 9, 35, 123
1, 172319, Note_on_c, 9, 35, 0
1, 172320, Note_on_c, 9, 40, 123
1, 172320, Note_on_c, 9, 46, 122
1, 172346, Note_on_c, 9, 46, 0
1, 172640, Note_on_c, 9, 35, 124
1, 172799, Note_on_c, 9, 40, 0
1, 172799, Note_on_c, 9, 35, 0
1, 172800, Note_on_c, 9, 49, 123
1, 172826, Note_on_c, 9, 49, 0
1, 173120, Note_on_c, 9, 35, 123
1, 173279, Note_on_c, 9, 35, 0
1, 173280, Note_on_c, 9, 40, 123
1, 173280, Note_on_c, 9, 46, 122
1, 173306, Note_on_c, 9, 46, 0
1, 173600, Note_on_c, 9, 35, 121
1, 173759, Note_on_c, 9, 40, 0
1, 173759, Note_on_c, 9, 35, 0
1, 173760, Note_on_c, 9, 49, 123
1, 173760, Note_on_c, 9, 35, 122
1, 173786, Note_on_c, 9, 49, 0
1, 174119, Note_on_c, 9, 35, 0
1, 174120, Note_on_c, 9, 35, 124
1, 174239, Note_on_c, 9, 35, 0
1, 174240, Note_on_c, 9, 40, 124
1, 174240, Note_on_c, 9, 46, 122
1, 174266, Note_on_c, 9, 46, 0
1, 174719, Note_on_c, 9, 40, 0
1, 174720, Note_on_c, 9, 49, 123
1, 174720, Note_on_c, 9, 35, 123
1, 174746, Note_on_c, 9, 49, 0
1, 174959, Note_on_c, 9, 35, 0
1, 175020, Note_on_c, 9, 35, 123
1, 175199, Note_on_c, 9, 35, 0
1, 175200, Note_on_c, 9, 40, 124
1, 175200, Note_on_c, 9, 46, 122
1, 175208, Note_on_c, 9, 46, 0
1, 175320, Note_on_c, 9, 35, 124
1, 175359, Note_on_c, 9, 40, 0
1, 175360, Note_on_c, 9, 49, 123
1, 175368, Note_on_c, 9, 49, 0
1, 175520, Note_on_c, 9, 40, 123
1, 175520, Note_on_c, 9, 46, 123
1, 175528, Note_on_c, 9, 46, 0
1, 175679, Note_on_c, 9, 35, 0
1, 175679, Note_on_c, 9, 40, 0
1, 175680, Note_on_c, 9, 49, 123
1, 175680, Note_on_c, 9, 35, 123
1, 175706, Note_on_c, 9, 49, 0
1, 175919, Note_on_c, 9, 35, 0
1, 175920, Note_on_c, 9, 35, 121
1, 176159, Note_on_c, 9, 35, 0
1, 176160, Note_on_c, 9, 40, 123
1, 176160, Note_on_c, 9, 46, 122
1, 176186, Note_on_c, 9, 46, 0
1, 176639, Note_on_c, 9, 40, 0
1, 176640, Note_on_c, 9, 46, 122
1, 176640, Note_on_c, 9, 35, 123
1, 176666, Note_on_c, 9, 46, 0
1, 176999, Note_on_c, 9, 35, 0
1, 177000, Note_on_c, 9, 35, 121
1, 177119, Note_on_c, 9, 35, 0
1, 177120, Note_on_c, 9, 40, 123
1, 177120, Note_on_c, 9, 46, 122
1, 177146, Note_on_c, 9, 46, 0
1, 177599, Note_on_c, 9, 40, 0
1, 177600, Note_on_c, 9, 46, 123
1, 177600, Note_on_c, 9, 35, 123
1, 177626, Note_on_c, 9, 46, 0
1, 177839, Note_on_c, 9, 35, 0
1, 177840, Note_on_c, 9, 35, 120
1, 178079, Note_on_c, 9, 35, 0
1, 178080, Note_on_c, 9, 40, 123
1, 178080, Note_on_c, 9, 46, 123
1, 178106, Note_on_c, 9, 46, 0
1, 178559, Note_on_c, 9, 40, 0
1, 178560, Note_on_c, 9, 46, 123
1, 178560, Note_on_c, 9, 35, 121
1, 178586, Note_on_c, 9, 46, 0
1, 178799, Note_on_c, 9, 35, 0
1, 178800, Note_on_c, 9, 35, 122
1, 179039, Note_on_c, 9, 35, 0
1, 179040, Note_on_c, 9, 40, 123
1, 179040, Note_on_c, 9, 46, 122
1, 179066, Note_on_c, 9, 46, 0
1, 179519, Note_on_c, 9, 40, 0
1, 179520, Note_on_c, 9, 46, 122
1, 179520, Note_on_c, 9, 35, 123
1, 179546, Note_on_c, 9, 46, 0
1, 179759, Note_on_c, 9, 35, 0
1, 179760, Note_on_c, 9, 35, 122
1, 179999, Note_on_c, 9, 35, 0
1, 180000, Note_on_c, 9, 40, 123
1, 180000, Note_on_c, 9, 46, 122
1, 180026, Note_on_c, 9, 46, 0
1, 180479, Note_on_c, 9, 40, 0
1, 180480, Note_on_c, 9, 46, 122
1, 180480, Note_on_c, 9, 35, 123
1, 180506, Note_on_c, 9, 46, 0
1, 180719, Note_on_c, 9, 35, 0
1, 180720, Note_on_c, 9, 35, 123
1, 180959, Note_on_c, 9, 35, 0
1, 180960, Note_on_c, 9, 40, 123
1, 180960, Note_on_c, 9, 46, 123
1, 180986, Note_on_c, 9, 46, 0
1, 181439, Note_on_c, 9, 40, 0
1, 181440, Note_on_c, 9, 49, 123
1, 181440, Note_on_c, 9, 35, 123
1, 181466, Note_on_c, 9, 49, 0
1, 181679, Note_on_c, 9, 35, 0
1, 181680, Note_on_c, 9, 35, 123
1, 181919, Note_on_c, 9, 35, 0
1, 181920, Note_on_c, 9, 40, 123
1, 181920, Note_on_c, 9, 46, 122
1, 181946, Note_on_c, 9, 46, 0
1, 182399, Note_on_c, 9, 40, 0
1, 182400, Note_on_c, 9, 46, 122
1, 182400, Note_on_c, 9, 35, 122
1, 182426, Note_on_c, 9, 46, 0
1, 182759, Note_on_c, 9, 35, 0
1, 182760, Note_on_c, 9, 35, 123
1, 182879, Note_on_c, 9, 35, 0
1, 182880, Note_on_c, 9, 40, 123
1, 182880, Note_on_c, 9, 46, 123
1, 182897, Note_on_c, 9, 46, 0
1, 183000, Note_on_c, 9, 43, 121
1, 183199, Note_on_c, 9, 40, 0
1, 183200, Note_on_c, 9, 45, 122
1, 183359, Note_on_c, 9, 43, 0
1, 183359, Note_on_c, 9, 45, 0
1, 183360, Note_on_c, 9, 49, 122
1, 183360, Note_on_c, 9, 35, 122
1, 183386, Note_on_c, 9, 49, 0
1, 183839, Note_on_c, 9, 35, 0
1, 183840, Note_on_c, 9, 40, 124
1, 183999, Note_on_c, 9, 40, 0
1, 184000, Note_on_c, 9, 40, 123
1, 184200, Note_on_c, 9, 43, 121
1, 184319, Note_on_c, 9, 40, 0
1, 184319, Note_on_c, 9, 43, 0
1, 184320, Note_on_c, 9, 49, 121
1, 184320, Note_on_c, 9, 35, 121
1, 184346, Note_on_c, 9, 49, 0
1, 184799, Note_on_c, 9, 35, 0
1, 184800, Note_on_c, 9, 40, 122
1, 184960, Note_on_c, 9, 43, 121
1, 185119, Note_on_c, 9, 40, 0
1, 185119, Note_on_c, 9, 43, 0
1, 185120, Note_on_c, 9, 57, 122
1, 185120, Note_on_c, 9, 35, 122
1, 185128, Note_on_c, 9, 57, 0
1, 185279, Note_on_c, 9, 35, 0
1, 185280, Note_on_c, 9, 49, 122
1, 185280, Note_on_c, 9, 35, 122
1, 185306, Note_on_c, 9, 49, 0
1, 185759, Note_on_c, 9, 35, 0
1, 185760, Note_on_c, 9, 46, 122
1, 185786, Note_on_c, 9, 46, 0
1, 186720, Note_on_c, 9, 46, 123
1, 186746, Note_on_c, 9, 46, 0
1, 187200, Note_on_c, 9, 35, 124
1, 187200, Note_on_c, 9, 43, 123
1, 187679, Note_on_c, 9, 35, 0
1, 187679, Note_on_c, 9, 43, 0
1, 187680, Note_on_c, 9, 46, 122
1, 187706, Note_on_c, 9, 46, 0
1, 188640, Note_on_c, 9, 46, 122
1, 188666, Note_on_c, 9, 46, 0
1, 189120, Note_on_c, 9, 49, 123
1, 189120, Note_on_c, 9, 35, 124
1, 189146, Note_on_c, 9, 49, 0
1, 189599, Note_on_c, 9, 35, 0
1, 196800, Note_on_c, 9, 52, 123
1, 196800, Note_on_c, 9, 35, 124
1, 196805, Tempo, 833333
1, 196812, Note_on_c, 9, 52, 0
1, 197040, Note_on_c, 9, 46, 120
1, 197045, Note_on_c, 9, 46, 0
1, 197279, Note_on_c, 9, 35, 0
1, 197280, Note_on_c, 9, 40, 124
1, 197280, Note_on_c, 9, 46, 122
1, 197285, Note_on_c, 9, 46, 0
1, 197519, Note_on_c, 9, 40, 0
1, 197520, Note_on_c, 9, 46, 119
1, 197520, Note_on_c, 9, 35, 121
1, 197525, Note_on_c, 9, 46, 0
1, 197759, Note_on_c, 9, 35, 0
1, 197760, Note_on_c, 9, 49, 123
1, 197760, Note_on_c, 9, 35, 124
1, 197765, Note_on_c, 9, 49, 0
1, 198000, Note_on_c, 9, 46, 119
1, 198005, Note_on_c, 9, 46, 0
1, 198239, Note_on_c, 9, 35, 0
1, 198240, Note_on_c, 9, 40, 124
1, 198240, Note_on_c, 9, 46, 122
1, 198245, Note_on_c, 9, 46, 0
1, 198479, Note_on_c, 9, 40, 0
1, 198480, Note_on_c, 9, 46, 120
1, 198480, Note_on_c, 9, 35, 120
1, 198485, Note_on_c, 9, 46, 0
1, 198719, Note_on_c, 9, 35, 0
1, 198720, Note_on_c, 9, 57, 123
1, 198720, Note_on_c, 9, 35, 124
1, 198725, Note_on_c, 9, 57, 0
1, 198960, Note_on_c, 9, 46, 119
1, 198965, Note_on_c, 9, 46, 0
1, 199199, Note_on_c, 9, 35, 0
1, 199200, Note_on_c, 9, 40, 124
1, 199200, Note_on_c, 9, 46, 122
1, 199205, Note_on_c, 9, 46, 0
1, 199439, Note_on_c, 9, 40, 0
1, 199440, Note_on_c, 9, 46, 122
1, 199440, Note_on_c, 9, 35, 120
1, 199445, Note_on_c, 9, 46, 0
1, 199679, Note_on_c, 9, 35, 0
1, 199680, Note_on_c, 9, 49, 122
1, 199680, Note_on_c, 9, 35, 123
1, 199692, Note_on_c, 9, 49, 0
1, 200159, Note_on_c, 9, 35, 0
1, 200160, Note_on_c, 9, 52, 123
1, 200160, Note_on_c, 9, 35, 124
1, 200172, Note_on_c, 9, 52, 0
1, 200639, Note_on_c, 9, 35, 0
1, 200640, Note_on_c, 9, 55, 127
1, 200640, Note_on_c, 9, 35, 124
1, 200652, Note_on_c, 9, 55, 0
1, 201119, Note_on_c, 9, 35, 0
1, 201120, Note_on_c, 9, 57, 123
1, 201120, Note_on_c, 9, 35, 124
1, 201132, Note_on_c, 9, 57, 0
1, 201599, Note_on_c, 9, 35, 0
1, 201600, Note_on_c, 9, 52, 123
1, 201600, Note_on_c, 9, 35, 124
1, 201612, Note_on_c, 9, 52, 0
1, 202079, Note_on_c, 9, 35, 0
1, 202080, Note_on_c, 9, 49, 123
1, 202080, Note_on_c, 9, 35, 123
1, 202092, Note_on_c, 9, 49, 0
1, 202559, Note_on_c, 9, 35, 0
1, 202560, Note_on_c, 9, 57, 123
1, 202560, Note_on_c, 9, 35, 124
1, 202572, Note_on_c, 9, 57, 0
1, 203039, Note_on_c, 9, 35, 0
1, 203040, Note_on_c, 9, 40, 124
1, 203040, Note_on_c, 9, 46, 122
1, 203045, Note_on_c, 9, 46, 0
1, 203279, Note_on_c, 9, 40, 0
1, 203280, Note_on_c, 9, 46, 112
1, 203280, Note_on_c, 9, 35, 123
1, 203285, Note_on_c, 9, 46, 0
1, 203519, Note_on_c, 9, 35, 0
1, 203520, Note_on_c, 9, 46, 122
1, 203520, Note_on_c, 9, 35, 124
1, 203525, Note_on_c, 9, 46, 0
1, 203760, Note_on_c, 9, 46, 112
1, 203765, Note_on_c, 9, 46, 0
1, 203999, Note_on_c, 9, 35, 0
1, 204000, Note_on_c, 9, 40, 123
1, 204000, Note_on_c, 9, 46, 122
1, 204005, Note_on_c, 9, 46, 0
1, 204120, Note_on_c, 9, 43, 122
1, 204239, Note_on_c, 9, 40, 0
1, 204239, Note_on_c, 9, 43, 0
1, 204240, Note_on_c, 9, 45, 122
1, 204240, Note_on_c, 9, 35, 124
1, 204479, Note_on_c, 9, 45, 0
1, 204479, Note_on_c, 9, 35, 0
1, 204480, Note_on_c, 9, 49, 123
1, 204480, Note_on_c, 9, 35, 124
1, 204485, Note_on_c, 9, 49, 0
1, 204720, Note_on_c, 9, 46, 111
1, 204725, Note_on_c, 9, 46, 0
1, 204959, Note_on_c, 9, 35, 0
1, 204960, Note_on_c, 9, 40, 122
1, 204960, Note_on_c, 9, 46, 122
1, 204965, Note_on_c, 9, 46, 0
1, 205199, Note_on_c, 9, 40, 0
1, 205200, Note_on_c, 9, 46, 114
1, 205200, Note_on_c, 9, 35, 123
1, 205205, Note_on_c, 9, 46, 0
1, 205439, Note_on_c, 9, 35, 0
1, 205440, Note_on_c, 9, 46, 122
1, 205440, Note_on_c, 9, 35, 123
1, 205445, Note_on_c, 9, 46, 0
1, 205680, Note_on_c, 9, 46, 111
1, 205685, Note_on_c, 9, 46, 0
1, 205919, Note_on_c, 9, 35, 0
1, 205920, Note_on_c, 9, 40, 124
1, 205920, Note_on_c, 9, 46, 123
1, 205925, Note_on_c, 9, 46, 0
1, 206159, Note_on_c, 9, 40, 0
1, 206160, Note_on_c, 9, 46, 120
1, 206160, Note_on_c, 9, 35, 123
1, 206165, Note_on_c, 9, 46, 0
1, 206399, Note_on_c, 9, 35, 0
1, 206400, Note_on_c, 9, 49, 122
1, 206400, Note_on_c, 9, 35, 123
1, 206412, Note_on_c, 9, 49, 0
1, 206879, Note_on_c, 9, 35, 0
1, 206880, Note_on_c, 9, 40, 123
1, 206880, Note_on_c, 9, 42, 122
1, 206885, Note_on_c, 9, 42, 0
1, 207119, Note_on_c, 9, 40, 0
1, 207120, Note_on_c, 9, 42, 117
1, 207120, Note_on_c, 9, 35, 118
1, 207125, Note_on_c, 9, 42, 0
1, 207359, Note_on_c, 9, 35, 0
1, 207360, Note_on_c, 9, 42, 121
1, 207360, Note_on_c, 9, 35, 122
1, 207365, Note_on_c, 9, 42, 0
1, 207600, Note_on_c, 9, 42, 111
1, 207605, Note_on_c, 9, 42, 0
1, 207839, Note_on_c, 9, 35, 0
1, 207840, Note_on_c, 9, 40, 124
1, 207840, Note_on_c, 9, 42, 123
1, 207845, Note_on_c, 9, 42, 0
1, 208079, Note_on_c, 9, 40, 0
1, 208080, Note_on_c, 9, 42, 113
1, 208085, Note_on_c, 9, 42, 0
1, 208320, Note_on_c, 9, 42, 122
1, 208320, Note_on_c, 9, 35, 123
1, 208325, Note_on_c, 9, 42, 0
1, 208560, Note_on_c, 9, 42, 114
1, 208565, Note_on_c, 9, 42, 0
1, 208799, Note_on_c, 9, 35, 0
1, 208800, Note_on_c, 9, 40, 124
1, 208800, Note_on_c, 9, 42, 122
1, 208805, Note_on_c, 9, 42, 0
1, 209039, Note_on_c, 9, 40, 0
1, 209040, Note_on_c, 9, 42, 117
1, 209040, Note_on_c, 9, 35, 123
1, 209045, Note_on_c, 9, 42, 0
1, 209279, Note_on_c, 9, 35, 0
1, 209280, Note_on_c, 9, 42, 122
1, 209280, Note_on_c, 9, 35, 123
1, 209285, Note_on_c, 9, 42, 0
1, 209520, Note_on_c, 9, 46, 121
1, 209525, Note_on_c, 9, 46, 0
1, 209759, Note_on_c, 9, 35, 0
1, 209760, Note_on_c, 9, 40, 124
1, 209760, Note_on_c, 9, 42, 122
1, 209765, Note_on_c, 9, 42, 0
1, 209999, Note_on_c, 9, 40, 0
1, 210000, Note_on_c, 9, 46, 122
1, 210000, Note_on_c, 9, 35, 123
1, 210005, Note_on_c, 9, 46, 0
1, 210239, Note_on_c, 9, 35, 0
1, 210240, Note_on_c, 9, 49, 122
1, 210240, Note_on_c, 9, 35, 124
1, 210252, Note_on_c, 9, 49, 0
1, 210719, Note_on_c, 9, 35, 0
1, 211200, Note_on_c, 9, 57, 123
1, 211200, Note_on_c, 9, 35, 124
1, 211212, Note_on_c, 9, 57, 0
1, 211679, Note_on_c, 9, 35, 0
1, 212160, Note_on_c, 9, 51, 120
1, 212165, Note_on_c, 9, 51, 0
1, 212400, Note_on_c, 9, 51, 119
1, 212405, Note_on_c, 9, 51, 0
1, 212760, Note_on_c, 9, 51, 120
1, 212769, Note_on_c, 9, 51, 0
1, 213120, Note_on_c, 9, 49, 123
1, 213120, Note_on_c, 9, 35, 124
1, 213132, Note_on_c, 9, 49, 0
1, 213599, Note_on_c, 9, 35, 0
1, 215040, Note_on_c, 9, 52, 119
1, 215040, Note_on_c, 9, 35, 122
1, 215052, Note_on_c, 9, 52, 0
1, 215519, Note_on_c, 9, 35, 0
1, 215520, Note_on_c, 9, 51, 119
1, 215532, Note_on_c, 9, 51, 0
1, 215760, Note_on_c, 9, 35, 121
1, 215999, Note_on_c, 9, 35, 0
1, 216000, Note_on_c, 9, 51, 119
1, 216000, Note_on_c, 9, 35, 123
1, 216012, Note_on_c, 9, 51, 0
1, 216479, Note_on_c, 9, 35, 0
1, 216480, Note_on_c, 9, 51, 119
1, 216492, Note_on_c, 9, 51, 0
1, 216960, Note_on_c, 9, 51, 119
1, 216960, Note_on_c, 9, 35, 122
1, 216972, Note_on_c, 9, 51, 0
1, 217439, Note_on_c, 9, 35, 0
1, 217440, Note_on_c, 9, 51, 119
1, 217452, Note_on_c, 9, 51, 0
1, 217680, Note_on_c, 9, 35, 117
1, 217919, Note_on_c, 9, 35, 0
1, 217920, Note_on_c, 9, 51, 120
1, 217920, Note_on_c, 9, 35, 122
1, 217932, Note_on_c, 9, 51, 0
1, 218399, Note_on_c, 9, 35, 0
1, 218400, Note_on_c, 9, 51, 119
1, 218412, Note_on_c, 9, 51, 0
1, 218880, Note_on_c, 9, 51, 119
1, 218880, Note_on_c, 9, 35, 121
1, 218892, Note_on_c, 9, 51, 0
1, 219359, Note_on_c, 9, 35, 0
1, 219360, Note_on_c, 9, 51, 119
1, 219372, Note_on_c, 9, 51, 0
1, 219840, Note_on_c, 9, 51, 120
1, 219840, Note_on_c, 9, 35, 120
1, 219852, Note_on_c, 9, 51, 0
1, 220319, Note_on_c, 9, 35, 0
1, 220320, Note_on_c, 9, 51, 118
1, 220332, Note_on_c, 9, 51, 0
1, 220560, Note_on_c, 9, 35, 118
1, 220799, Note_on_c, 9, 35, 0
1, 220800, Note_on_c, 9, 51, 118
1, 220800, Note_on_c, 9, 35, 121
1, 220812, Note_on_c, 9, 51, 0
1, 221280, Note_on_c, 9, 51, 118
1, 221292, Note_on_c, 9, 51, 0
1, 221760, Note_on_c, 9, 51, 118
1, 221772, Note_on_c, 9, 51, 0
1, 222240, Note_on_c, 9, 51, 119
1, 222252, Note_on_c, 9, 51, 0
1, 222720, Note_on_c, 9, 51, 118
1, 222732, Note_on_c, 9, 51, 0
1, 223200, Note_on_c, 9, 51, 108
1, 223212, Note_on_c, 9, 51, 0
1, 223680, Note_on_c, 9, 49, 117
1, 223705, Note_on_c, 9, 49, 0
1, 224639, Note_on_c, 9, 35, 0
1, 224640, End_track
0, 0, End_of_file
