0, 0, Header, 1, 1, 480
1, 0, Start_track
1, 0, Title_t, "Drumset"
1, 0, Time_signature, 4, 2, 24, 8
1, 0, Key_signature, 0, "major"
1, 0, Tempo, 759493
1, 0, Control_c, 9, 121, 0
1, 0, Program_c, 9, 0
1, 0, Control_c, 9, 7, 120
1, 0, Control_c, 9, 10, 64
1, 0, Control_c, 9, 91, 0
1, 0, Control_c, 9, 93, 0
1, 0, MIDI_port, 0
1, 66720, Note_on_c, 9, 42, 94
1, 66726, Note_on_c, 9, 42, 0
1, 66960, Note_on_c, 9, 46, 72
1, 66966, Note_on_c, 9, 46, 0
1, 67200, Note_on_c, 9, 42, 78
1, 67200, Note_on_c, 9, 36, 93
1, 67206, Note_on_c, 9, 42, 0
1, 67440, Note_on_c, 9, 42, 62
1, 67446, Note_on_c, 9, 42, 0
1, 67679, Note_on_c, 9, 36, 0
1, 67680, Note_on_c, 9, 37, 127
1, 67680, Note_on_c, 9, 42, 78
1, 67686, Note_on_c, 9, 37, 0
1, 67686, Note_on_c, 9, 42, 0
1, 67920, Note_on_c, 9, 42, 59
1, 67926, Note_on_c, 9, 42, 0
1, 68160, Note_on_c, 9, 42, 70
1, 68160, Note_on_c, 9, 36, 93
1, 68166, Note_on_c, 9, 42, 0
1, 68400, Note_on_c, 9, 42, 58
1, 68406, Note_on_c, 9, 42, 0
1, 68639, Note_on_c, 9, 36, 0
1, 68640, Note_on_c, 9, 37, 127
1, 68640, Note_on_c, 9, 42, 70
1, 68646, Note_on_c, 9, 37, 0
1, 68646, Note_on_c, 9, 42, 0
1, 68880, Note_on_c, 9, 42, 53
1, 68886, Note_on_c, 9, 42, 0
1, 69120, Note_on_c, 9, 42, 62
1, 69120, Note_on_c, 9, 36, 93
1, 69126, Note_on_c, 9, 42, 0
1, 69360, Note_on_c, 9, 42, 55
1, 69366, Note_on_c, 9, 42, 0
1, 69599, Note_on_c, 9, 36, 0
1, 69600, Note_on_c, 9, 37, 127
1, 69600, Note_on_c, 9, 42, 74
1, 69606, Note_on_c, 9, 37, 0
1, 69606, Note_on_c, 9, 42, 0
1, 69840, Note_on_c, 9, 42, 60
1, 69846, Note_on_c, 9, 42, 0
1, 69960, Note_on_c, 9, 36, 54
1, 70079, Note_on_c, 9, 36, 0
1, 70080, Note_on_c, 9, 42, 61
1, 70080, Note_on_c, 9, 36, 93
1, 70086, Note_on_c, 9, 42, 0
1, 70320, Note_on_c, 9, 42, 61
1, 70326, Note_on_c, 9, 42, 0
1, 70559, Note_on_c, 9, 36, 0
1, 70560, Note_on_c, 9, 37, 127
1, 70560, Note_on_c, 9, 42, 74
1, 70566, Note_on_c, 9, 37, 0
1, 70566, Note_on_c, 9, 42, 0
1, 70800, Note_on_c, 9, 46, 84
1, 70806, Note_on_c, 9, 46, 0
1, 71040, Note_on_c, 9, 42, 70
1, 71040, Note_on_c, 9, 36, 93
1, 71046, Note_on_c, 9, 42, 0
1, 71280, Note_on_c, 9, 42, 46
1, 71286, Note_on_c, 9, 42, 0
1, 71519, Note_on_c, 9, 36, 0
1, 71520, Note_on_c, 9, 37, 127
1, 71520, Note_on_c, 9, 42, 66
1, 71526, Note_on_c, 9, 37, 0
1, 71526, Note_on_c, 9, 42, 0
1, 71760, Note_on_c, 9, 42, 62
1, 71766, Note_on_c, 9, 42, 0
1, 72000, Note_on_c, 9, 42, 70
1, 72000, Note_on_c, 9, 36, 93
1, 72006, Note_on_c, 9, 42, 0
1, 72240, Note_on_c, 9, 42, 62
1, 72246, Note_on_c, 9, 42, 0
1, 72479, Note_on_c, 9, 36, 0
1, 72480, Note_on_c, 9, 37, 127
1, 72480, Note_on_c, 9, 42, 78
1, 72486, Note_on_c, 9, 37, 0
1, 72486, Note_on_c, 9, 42, 0
1, 72720, Note_on_c, 9, 42, 61
1, 72722, Note_on_c, 9, 42, 0
1, 72840, Note_on_c, 9, 42, 64
1, 72842, Note_on_c, 9, 42, 0
1, 72960, Note_on_c, 9, 42, 70
1, 72960, Note_on_c, 9, 36, 93
1, 72966, Note_on_c, 9, 42, 0
1, 73200, Note_on_c, 9, 42, 58
1, 73206, Note_on_c, 9, 42, 0
1, 73439, Note_on_c, 9, 36, 0
1, 73440, Note_on_c, 9, 37, 127
1, 73440, Note_on_c, 9, 42, 78
1, 73446, Note_on_c, 9, 37, 0
1, 73446, Note_on_c, 9, 42, 0
1, 73680, Note_on_c, 9, 42, 74
1, 73686, Note_on_c, 9, 42, 0
1, 73920, Note_on_c, 9, 42, 62
1, 73920, Note_on_c, 9, 36, 93
1, 73926, Note_on_c, 9, 42, 0
1, 74160, Note_on_c, 9, 42, 61
1, 74166, Note_on_c, 9, 42, 0
1, 74399, Note_on_c, 9, 36, 0
1, 74400, Note_on_c, 9, 37, 127
1, 74400, Note_on_c, 9, 42, 78
1, 74406, Note_on_c, 9, 37, 0
1, 74406, Note_on_c, 9, 42, 0
1, 74640, Note_on_c, 9, 46, 79
1, 74640, Note_on_c, 9, 36, 75
1, 74646, Note_on_c, 9, 46, 0
1, 74879, Note_on_c, 9, 36, 0
1, 74880, Note_on_c, 9, 42, 78
1, 74880, Note_on_c, 9, 36, 93
1, 74886, Note_on_c, 9, 42, 0
1, 75120, Note_on_c, 9, 42, 62
1, 75126, Note_on_c, 9, 42, 0
1, 75359, Note_on_c, 9, 36, 0
1, 75360, Note_on_c, 9, 37, 127
1, 75360, Note_on_c, 9, 42, 78
1, 75366, Note_on_c, 9, 37, 0
1, 75366, Note_on_c, 9, 42, 0
1, 75600, Note_on_c, 9, 42, 59
1, 75606, Note_on_c, 9, 42, 0
1, 75840, Note_on_c, 9, 42, 70
1, 75840, Note_on_c, 9, 36, 93
1, 75846, Note_on_c, 9, 42, 0
1, 76080, Note_on_c, 9, 42, 58
1, 76086, Note_on_c, 9, 42, 0
1, 76319, Note_on_c, 9, 36, 0
1, 76320, Note_on_c, 9, 37, 127
1, 76320, Note_on_c, 9, 42, 70
1, 76326, Note_on_c, 9, 37, 0
1, 76326, Note_on_c, 9, 42, 0
1, 76560, Note_on_c, 9, 42, 53
1, 76562, Note_on_c, 9, 42, 0
1, 76680, Note_on_c, 9, 42, 54
1, 76682, Note_on_c, 9, 42, 0
1, 76800, Note_on_c, 9, 42, 62
1, 76800, Note_on_c, 9, 36, 93
1, 76806, Note_on_c, 9, 42, 0
1, 77040, Note_on_c, 9, 42, 55
1, 77046, Note_on_c, 9, 42, 0
1, 77279, Note_on_c, 9, 36, 0
1, 77280, Note_on_c, 9, 37, 127
1, 77280, Note_on_c, 9, 42, 74
1, 77286, Note_on_c, 9, 37, 0
1, 77286, Note_on_c, 9, 42, 0
1, 77520, Note_on_c, 9, 42, 60
1, 77526, Note_on_c, 9, 42, 0
1, 77760, Note_on_c, 9, 42, 61
1, 77760, Note_on_c, 9, 36, 93
1, 77766, Note_on_c, 9, 42, 0
1, 78000, Note_on_c, 9, 42, 61
1, 78006, Note_on_c, 9, 42, 0
1, 78239, Note_on_c, 9, 36, 0
1, 78240, Note_on_c, 9, 37, 127
1, 78240, Note_on_c, 9, 42, 74
1, 78246, Note_on_c, 9, 37, 0
1, 78246, Note_on_c, 9, 42, 0
1, 78480, Note_on_c, 9, 46, 74
1, 78486, Note_on_c, 9, 46, 0
1, 78720, Note_on_c, 9, 42, 70
1, 78720, Note_on_c, 9, 36, 93
1, 78726, Note_on_c, 9, 42, 0
1, 78960, Note_on_c, 9, 42, 46
1, 78966, Note_on_c, 9, 42, 0
1, 79199, Note_on_c, 9, 36, 0
1, 79200, Note_on_c, 9, 37, 127
1, 79200, Note_on_c, 9, 42, 66
1, 79206, Note_on_c, 9, 37, 0
1, 79206, Note_on_c, 9, 42, 0
1, 79440, Note_on_c, 9, 42, 62
1, 79446, Note_on_c, 9, 42, 0
1, 79680, Note_on_c, 9, 42, 70
1, 79680, Note_on_c, 9, 36, 93
1, 79686, Note_on_c, 9, 42, 0
1, 79920, Note_on_c, 9, 42, 62
1, 79926, Note_on_c, 9, 42, 0
1, 80159, Note_on_c, 9, 36, 0
1, 80160, Note_on_c, 9, 37, 127
1, 80160, Note_on_c, 9, 42, 78
1, 80166, Note_on_c, 9, 37, 0
1, 80166, Note_on_c, 9, 42, 0
1, 80400, Note_on_c, 9, 42, 61
1, 80402, Note_on_c, 9, 42, 0
1, 80520, Note_on_c, 9, 42, 64
1, 80522, Note_on_c, 9, 42, 0
1, 80640, Note_on_c, 9, 42, 70
1, 80640, Note_on_c, 9, 36, 93
1, 80646, Note_on_c, 9, 42, 0
1, 80880, Note_on_c, 9, 42, 58
1, 80886, Note_on_c, 9, 42, 0
1, 81119, Note_on_c, 9, 36, 0
1, 81120, Note_on_c, 9, 37, 127
1, 81120, Note_on_c, 9, 42, 78
1, 81126, Note_on_c, 9, 37, 0
1, 81126, Note_on_c, 9, 42, 0
1, 81360, Note_on_c, 9, 42, 74
1, 81362, Note_on_c, 9, 42, 0
1, 81480, Note_on_c, 9, 42, 54
1, 81482, Note_on_c, 9, 42, 0
1, 81600, Note_on_c, 9, 42, 62
1, 81600, Note_on_c, 9, 36, 93
1, 81606, Note_on_c, 9, 42, 0
1, 81840, Note_on_c, 9, 46, 79
1, 81846, Note_on_c, 9, 46, 0
1, 82079, Note_on_c, 9, 36, 0
1, 82080, Note_on_c, 9, 37, 127
1, 82080, Note_on_c, 9, 42, 78
1, 82086, Note_on_c, 9, 37, 0
1, 82086, Note_on_c, 9, 42, 0
1, 82320, Note_on_c, 9, 42, 61
1, 82320, Note_on_c, 9, 36, 75
1, 82326, Note_on_c, 9, 42, 0
1, 82559, Note_on_c, 9, 36, 0
1, 82560, Note_on_c, 9, 42, 78
1, 82560, Note_on_c, 9, 36, 93
1, 82566, Note_on_c, 9, 42, 0
1, 82800, Note_on_c, 9, 42, 62
1, 82806, Note_on_c, 9, 42, 0
1, 83039, Note_on_c, 9, 36, 0
1, 83040, Note_on_c, 9, 37, 127
1, 83040, Note_on_c, 9, 42, 78
1, 83046, Note_on_c, 9, 37, 0
1, 83046, Note_on_c, 9, 42, 0
1, 83280, Note_on_c, 9, 42, 59
1, 83286, Note_on_c, 9, 42, 0
1, 83520, Note_on_c, 9, 42, 70
1, 83520, Note_on_c, 9, 36, 93
1, 83526, Note_on_c, 9, 42, 0
1, 83760, Note_on_c, 9, 42, 58
1, 83766, Note_on_c, 9, 42, 0
1, 83999, Note_on_c, 9, 36, 0
1, 84000, Note_on_c, 9, 37, 127
1, 84000, Note_on_c, 9, 42, 70
1, 84006, Note_on_c, 9, 37, 0
1, 84006, Note_on_c, 9, 42, 0
1, 84240, Note_on_c, 9, 42, 63
1, 84242, Note_on_c, 9, 42, 0
1, 84360, Note_on_c, 9, 42, 63
1, 84362, Note_on_c, 9, 42, 0
1, 84480, Note_on_c, 9, 42, 62
1, 84480, Note_on_c, 9, 36, 93
1, 84486, Note_on_c, 9, 42, 0
1, 84720, Note_on_c, 9, 42, 55
1, 84726, Note_on_c, 9, 42, 0
1, 84959, Note_on_c, 9, 36, 0
1, 84960, Note_on_c, 9, 37, 127
1, 84960, Note_on_c, 9, 42, 74
1, 84966, Note_on_c, 9, 37, 0
1, 84966, Note_on_c, 9, 42, 0
1, 85200, Note_on_c, 9, 42, 60
1, 85206, Note_on_c, 9, 42, 0
1, 85440, Note_on_c, 9, 42, 61
1, 85440, Note_on_c, 9, 36, 93
1, 85446, Note_on_c, 9, 42, 0
1, 85680, Note_on_c, 9, 42, 61
1, 85686, Note_on_c, 9, 42, 0
1, 85919, Note_on_c, 9, 36, 0
1, 85920, Note_on_c, 9, 37, 127
1, 85920, Note_on_c, 9, 42, 74
1, 85926, Note_on_c, 9, 37, 0
1, 85926, Note_on_c, 9, 42, 0
1, 86160, Note_on_c, 9, 46, 74
1, 86166, Note_on_c, 9, 46, 0
1, 86400, Note_on_c, 9, 42, 70
1, 86400, Note_on_c, 9, 36, 93
1, 86406, Note_on_c, 9, 42, 0
1, 86640, Note_on_c, 9, 42, 46
1, 86646, Note_on_c, 9, 42, 0
1, 86879, Note_on_c, 9, 36, 0
1, 86880, Note_on_c, 9, 37, 127
1, 86880, Note_on_c, 9, 42, 66
1, 86886, Note_on_c, 9, 37, 0
1, 86886, Note_on_c, 9, 42, 0
1, 87120, Note_on_c, 9, 42, 62
1, 87126, Note_on_c, 9, 42, 0
1, 87360, Note_on_c, 9, 42, 70
1, 87360, Note_on_c, 9, 36, 93
1, 87366, Note_on_c, 9, 42, 0
1, 87600, Note_on_c, 9, 42, 62
1, 87606, Note_on_c, 9, 42, 0
1, 87839, Note_on_c, 9, 36, 0
1, 87840, Note_on_c, 9, 37, 127
1, 87840, Note_on_c, 9, 42, 78
1, 87846, Note_on_c, 9, 37, 0
1, 87846, Note_on_c, 9, 42, 0
1, 88080, Note_on_c, 9, 42, 61
1, 88082, Note_on_c, 9, 42, 0
1, 88200, Note_on_c, 9, 42, 64
1, 88202, Note_on_c, 9, 42, 0
1, 88320, Note_on_c, 9, 42, 70
1, 88320, Note_on_c, 9, 36, 93
1, 88326, Note_on_c, 9, 42, 0
1, 88560, Note_on_c, 9, 42, 58
1, 88566, Note_on_c, 9, 42, 0
1, 88799, Note_on_c, 9, 36, 0
1, 88800, Note_on_c, 9, 37, 127
1, 88800, Note_on_c, 9, 42, 78
1, 88806, Note_on_c, 9, 37, 0
1, 88806, Note_on_c, 9, 42, 0
1, 89040, Note_on_c, 9, 42, 74
1, 89046, Note_on_c, 9, 42, 0
1, 89280, Note_on_c, 9, 42, 62
1, 89280, Note_on_c, 9, 36, 93
1, 89286, Note_on_c, 9, 42, 0
1, 89520, Note_on_c, 9, 42, 61
1, 89526, Note_on_c, 9, 42, 0
1, 89759, Note_on_c, 9, 36, 0
1, 89760, Note_on_c, 9, 37, 127
1, 89760, Note_on_c, 9, 42, 78
1, 89766, Note_on_c, 9, 37, 0
1, 89766, Note_on_c, 9, 42, 0
1, 90000, Note_on_c, 9, 46, 79
1, 90000, Note_on_c, 9, 36, 75
1, 90006, Note_on_c, 9, 46, 0
1, 90239, Note_on_c, 9, 36, 0
1, 90240, Note_on_c, 9, 36, 93
1, 90480, Note_on_c, 9, 42, 62
1, 90486, Note_on_c, 9, 42, 0
1, 90719, Note_on_c, 9, 36, 0
1, 90720, Note_on_c, 9, 37, 127
1, 90720, Note_on_c, 9, 42, 78
1, 90726, Note_on_c, 9, 37, 0
1, 90726, Note_on_c, 9, 42, 0
1, 90960, Note_on_c, 9, 42, 59
1, 90966, Note_on_c, 9, 42, 0
1, 91200, Note_on_c, 9, 42, 70
1, 91200, Note_on_c, 9, 36, 93
1, 91206, Note_on_c, 9, 42, 0
1, 91440, Note_on_c, 9, 42, 58
1, 91446, Note_on_c, 9, 42, 0
1, 91679, Note_on_c, 9, 36, 0
1, 91680, Note_on_c, 9, 37, 127
1, 91680, Note_on_c, 9, 42, 70
1, 91686, Note_on_c, 9, 37, 0
1, 91686, Note_on_c, 9, 42, 0
1, 91920, Note_on_c, 9, 42, 63
1, 91926, Note_on_c, 9, 42, 0
1, 92160, Note_on_c, 9, 42, 62
1, 92160, Note_on_c, 9, 36, 93
1, 92166, Note_on_c, 9, 42, 0
1, 92400, Note_on_c, 9, 42, 55
1, 92406, Note_on_c, 9, 42, 0
1, 92639, Note_on_c, 9, 36, 0
1, 92640, Note_on_c, 9, 37, 127
1, 92640, Note_on_c, 9, 42, 74
1, 92646, Note_on_c, 9, 37, 0
1, 92646, Note_on_c, 9, 42, 0
1, 92880, Note_on_c, 9, 42, 60
1, 92882, Note_on_c, 9, 42, 0
1, 93000, Note_on_c, 9, 42, 63
1, 93002, Note_on_c, 9, 42, 0
1, 93120, Note_on_c, 9, 42, 61
1, 93120, Note_on_c, 9, 36, 93
1, 93126, Note_on_c, 9, 42, 0
1, 93360, Note_on_c, 9, 42, 61
1, 93366, Note_on_c, 9, 42, 0
1, 93599, Note_on_c, 9, 36, 0
1, 93600, Note_on_c, 9, 37, 127
1, 93600, Note_on_c, 9, 42, 74
1, 93606, Note_on_c, 9, 37, 0
1, 93606, Note_on_c, 9, 42, 0
1, 93840, Note_on_c, 9, 46, 74
1, 93846, Note_on_c, 9, 46, 0
1, 94080, Note_on_c, 9, 59, 90
1, 94080, Note_on_c, 9, 42, 78
1, 94080, Note_on_c, 9, 55, 90
1, 94080, Note_on_c, 9, 36, 93
1, 94086, Note_on_c, 9, 59, 0
1, 94086, Note_on_c, 9, 42, 0
1, 94086, Note_on_c, 9, 55, 0
1, 94320, Note_on_c, 9, 42, 62
1, 94326, Note_on_c, 9, 42, 0
1, 94559, Note_on_c, 9, 36, 0
1, 94560, Note_on_c, 9, 37, 127
1, 94560, Note_on_c, 9, 42, 78
1, 94566, Note_on_c, 9, 37, 0
1, 94566, Note_on_c, 9, 42, 0
1, 94800, Note_on_c, 9, 42, 59
1, 94806, Note_on_c, 9, 42, 0
1, 95040, Note_on_c, 9, 42, 70
1, 95040, Note_on_c, 9, 36, 93
1, 95046, Note_on_c, 9, 42, 0
1, 95280, Note_on_c, 9, 42, 58
1, 95286, Note_on_c, 9, 42, 0
1, 95519, Note_on_c, 9, 36, 0
1, 95520, Note_on_c, 9, 37, 127
1, 95520, Note_on_c, 9, 42, 70
1, 95526, Note_on_c, 9, 37, 0
1, 95526, Note_on_c, 9, 42, 0
1, 95760, Note_on_c, 9, 42, 53
1, 95766, Note_on_c, 9, 42, 0
1, 96000, Note_on_c, 9, 42, 62
1, 96000, Note_on_c, 9, 36, 93
1, 96006, Note_on_c, 9, 42, 0
1, 96240, Note_on_c, 9, 42, 55
1, 96246, Note_on_c, 9, 42, 0
1, 96479, Note_on_c, 9, 36, 0
1, 96480, Note_on_c, 9, 37, 127
1, 96480, Note_on_c, 9, 42, 74
1, 96486, Note_on_c, 9, 37, 0
1, 96486, Note_on_c, 9, 42, 0
1, 96720, Note_on_c, 9, 42, 60
1, 96726, Note_on_c, 9, 42, 0
1, 96960, Note_on_c, 9, 42, 61
1, 96960, Note_on_c, 9, 36, 93
1, 96966, Note_on_c, 9, 42, 0
1, 97200, Note_on_c, 9, 42, 61
1, 97202, Note_on_c, 9, 42, 0
1, 97320, Note_on_c, 9, 46, 84
1, 97322, Note_on_c, 9, 46, 0
1, 97439, Note_on_c, 9, 36, 0
1, 97440, Note_on_c, 9, 37, 127
1, 97440, Note_on_c, 9, 42, 74
1, 97446, Note_on_c, 9, 37, 0
1, 97446, Note_on_c, 9, 42, 0
1, 97680, Note_on_c, 9, 46, 74
1, 97686, Note_on_c, 9, 46, 0
1, 97920, Note_on_c, 9, 42, 70
1, 97920, Note_on_c, 9, 36, 93
1, 97926, Note_on_c, 9, 42, 0
1, 98160, Note_on_c, 9, 42, 46
1, 98166, Note_on_c, 9, 42, 0
1, 98399, Note_on_c, 9, 36, 0
1, 98400, Note_on_c, 9, 37, 127
1, 98400, Note_on_c, 9, 42, 66
1, 98406, Note_on_c, 9, 37, 0
1, 98406, Note_on_c, 9, 42, 0
1, 98640, Note_on_c, 9, 42, 62
1, 98646, Note_on_c, 9, 42, 0
1, 98880, Note_on_c, 9, 42, 70
1, 98880, Note_on_c, 9, 36, 93
1, 98886, Note_on_c, 9, 42, 0
1, 99120, Note_on_c, 9, 42, 62
1, 99126, Note_on_c, 9, 42, 0
1, 99359, Note_on_c, 9, 36, 0
1, 99360, Note_on_c, 9, 37, 127
1, 99360, Note_on_c, 9, 46, 78
1, 99370, Note_on_c, 9, 37, 0
1, 99370, Note_on_c, 9, 46, 0
1, 99820, Note_on_c, 9, 59, 77
1, 99820, Note_on_c, 9, 59, 0
1, 99840, Note_on_c, 9, 51, 84
1, 99853, Note_on_c, 9, 51, 0
1, 100320, Note_on_c, 9, 42, 86
1, 100333, Note_on_c, 9, 42, 0
1, 104880, Note_on_c, 9, 42, 81
1, 104882, Note_on_c, 9, 42, 0
1, 105000, Note_on_c, 9, 42, 63
1, 105002, Note_on_c, 9, 42, 0
1, 105120, Note_on_c, 9, 46, 72
1, 105133, Note_on_c, 9, 46, 0
1, 105600, Note_on_c, 9, 42, 78
1, 105600, Note_on_c, 9, 36, 93
1, 105606, Note_on_c, 9, 42, 0
1, 105840, Note_on_c, 9, 42, 62
1, 105846, Note_on_c, 9, 42, 0
1, 106079, Note_on_c, 9, 36, 0
1, 106080, Note_on_c, 9, 37, 127
1, 106080, Note_on_c, 9, 42, 78
1, 106086, Note_on_c, 9, 37, 0
1, 106086, Note_on_c, 9, 42, 0
1, 106320, Note_on_c, 9, 42, 59
1, 106326, Note_on_c, 9, 42, 0
1, 106560, Note_on_c, 9, 42, 70
1, 106560, Note_on_c, 9, 36, 93
1, 106566, Note_on_c, 9, 42, 0
1, 106800, Note_on_c, 9, 42, 58
1, 106806, Note_on_c, 9, 42, 0
1, 107039, Note_on_c, 9, 36, 0
1, 107040, Note_on_c, 9, 37, 127
1, 107040, Note_on_c, 9, 42, 70
1, 107046, Note_on_c, 9, 37, 0
1, 107046, Note_on_c, 9, 42, 0
1, 107280, Note_on_c, 9, 42, 61
1, 107282, Note_on_c, 9, 42, 0
1, 107400, Note_on_c, 9, 42, 61
1, 107402, Note_on_c, 9, 42, 0
1, 107520, Note_on_c, 9, 42, 70
1, 107520, Note_on_c, 9, 36, 93
1, 107526, Note_on_c, 9, 42, 0
1, 107760, Note_on_c, 9, 42, 55
1, 107766, Note_on_c, 9, 42, 0
1, 107999, Note_on_c, 9, 36, 0
1, 108000, Note_on_c, 9, 37, 127
1, 108000, Note_on_c, 9, 42, 74
1, 108006, Note_on_c, 9, 37, 0
1, 108006, Note_on_c, 9, 42, 0
1, 108240, Note_on_c, 9, 42, 60
1, 108246, Note_on_c, 9, 42, 0
1, 108480, Note_on_c, 9, 42, 61
1, 108480, Note_on_c, 9, 36, 93
1, 108486, Note_on_c, 9, 42, 0
1, 108720, Note_on_c, 9, 42, 61
1, 108726, Note_on_c, 9, 42, 0
1, 108959, Note_on_c, 9, 36, 0
1, 108960, Note_on_c, 9, 37, 127
1, 108960, Note_on_c, 9, 42, 74
1, 108966, Note_on_c, 9, 37, 0
1, 108966, Note_on_c, 9, 42, 0
1, 109200, Note_on_c, 9, 46, 84
1, 109206, Note_on_c, 9, 46, 0
1, 109440, Note_on_c, 9, 42, 70
1, 109440, Note_on_c, 9, 36, 93
1, 109446, Note_on_c, 9, 42, 0
1, 109680, Note_on_c, 9, 42, 46
1, 109686, Note_on_c, 9, 42, 0
1, 109919, Note_on_c, 9, 36, 0
1, 109920, Note_on_c, 9, 37, 127
1, 109920, Note_on_c, 9, 42, 66
1, 109926, Note_on_c, 9, 37, 0
1, 109926, Note_on_c, 9, 42, 0
1, 110160, Note_on_c, 9, 42, 62
1, 110166, Note_on_c, 9, 42, 0
1, 110400, Note_on_c, 9, 42, 70
1, 110400, Note_on_c, 9, 36, 93
1, 110406, Note_on_c, 9, 42, 0
1, 110640, Note_on_c, 9, 42, 62
1, 110646, Note_on_c, 9, 42, 0
1, 110879, Note_on_c, 9, 36, 0
1, 110880, Note_on_c, 9, 37, 127
1, 110880, Note_on_c, 9, 42, 78
1, 110886, Note_on_c, 9, 37, 0
1, 110886, Note_on_c, 9, 42, 0
1, 111120, Note_on_c, 9, 42, 61
1, 111122, Note_on_c, 9, 42, 0
1, 111240, Note_on_c, 9, 42, 64
1, 111242, Note_on_c, 9, 42, 0
1, 111360, Note_on_c, 9, 42, 70
1, 111360, Note_on_c, 9, 36, 93
1, 111366, Note_on_c, 9, 42, 0
1, 111600, Note_on_c, 9, 42, 58
1, 111606, Note_on_c, 9, 42, 0
1, 111839, Note_on_c, 9, 36, 0
1, 111840, Note_on_c, 9, 37, 127
1, 111840, Note_on_c, 9, 42, 78
1, 111846, Note_on_c, 9, 37, 0
1, 111846, Note_on_c, 9, 42, 0
1, 112080, Note_on_c, 9, 42, 74
1, 112082, Note_on_c, 9, 42, 0
1, 112200, Note_on_c, 9, 42, 65
1, 112202, Note_on_c, 9, 42, 0
1, 112320, Note_on_c, 9, 42, 62
1, 112320, Note_on_c, 9, 36, 93
1, 112326, Note_on_c, 9, 42, 0
1, 112560, Note_on_c, 9, 46, 79
1, 112566, Note_on_c, 9, 46, 0
1, 112799, Note_on_c, 9, 36, 0
1, 112800, Note_on_c, 9, 37, 127
1, 112800, Note_on_c, 9, 42, 78
1, 112806, Note_on_c, 9, 37, 0
1, 112806, Note_on_c, 9, 42, 0
1, 113040, Note_on_c, 9, 42, 61
1, 113040, Note_on_c, 9, 36, 75
1, 113046, Note_on_c, 9, 42, 0
1, 113279, Note_on_c, 9, 36, 0
1, 113280, Note_on_c, 9, 42, 78
1, 113280, Note_on_c, 9, 36, 93
1, 113286, Note_on_c, 9, 42, 0
1, 113520, Note_on_c, 9, 42, 62
1, 113526, Note_on_c, 9, 42, 0
1, 113759, Note_on_c, 9, 36, 0
1, 113760, Note_on_c, 9, 37, 127
1, 113760, Note_on_c, 9, 42, 78
1, 113766, Note_on_c, 9, 37, 0
1, 113766, Note_on_c, 9, 42, 0
1, 114000, Note_on_c, 9, 42, 59
1, 114006, Note_on_c, 9, 42, 0
1, 114240, Note_on_c, 9, 42, 70
1, 114240, Note_on_c, 9, 36, 93
1, 114246, Note_on_c, 9, 42, 0
1, 114480, Note_on_c, 9, 42, 58
1, 114486, Note_on_c, 9, 42, 0
1, 114719, Note_on_c, 9, 36, 0
1, 114720, Note_on_c, 9, 37, 127
1, 114720, Note_on_c, 9, 42, 70
1, 114726, Note_on_c, 9, 37, 0
1, 114726, Note_on_c, 9, 42, 0
1, 114960, Note_on_c, 9, 42, 53
1, 114966, Note_on_c, 9, 42, 0
1, 115200, Note_on_c, 9, 42, 62
1, 115200, Note_on_c, 9, 36, 93
1, 115206, Note_on_c, 9, 42, 0
1, 115440, Note_on_c, 9, 42, 55
1, 115446, Note_on_c, 9, 42, 0
1, 115679, Note_on_c, 9, 36, 0
1, 115680, Note_on_c, 9, 37, 127
1, 115680, Note_on_c, 9, 42, 74
1, 115686, Note_on_c, 9, 37, 0
1, 115686, Note_on_c, 9, 42, 0
1, 115920, Note_on_c, 9, 42, 60
1, 115922, Note_on_c, 9, 42, 0
1, 116040, Note_on_c, 9, 42, 58
1, 116042, Note_on_c, 9, 42, 0
1, 116160, Note_on_c, 9, 42, 61
1, 116160, Note_on_c, 9, 36, 93
1, 116166, Note_on_c, 9, 42, 0
1, 116400, Note_on_c, 9, 42, 61
1, 116406, Note_on_c, 9, 42, 0
1, 116639, Note_on_c, 9, 36, 0
1, 116640, Note_on_c, 9, 37, 127
1, 116640, Note_on_c, 9, 42, 74
1, 116646, Note_on_c, 9, 37, 0
1, 116646, Note_on_c, 9, 42, 0
1, 116880, Note_on_c, 9, 46, 74
1, 116886, Note_on_c, 9, 46, 0
1, 117120, Note_on_c, 9, 42, 70
1, 117120, Note_on_c, 9, 36, 93
1, 117126, Note_on_c, 9, 42, 0
1, 117360, Note_on_c, 9, 42, 46
1, 117366, Note_on_c, 9, 42, 0
1, 117599, Note_on_c, 9, 36, 0
1, 117600, Note_on_c, 9, 37, 127
1, 117600, Note_on_c, 9, 42, 66
1, 117606, Note_on_c, 9, 37, 0
1, 117606, Note_on_c, 9, 42, 0
1, 117840, Note_on_c, 9, 42, 62
1, 117846, Note_on_c, 9, 42, 0
1, 118080, Note_on_c, 9, 42, 70
1, 118080, Note_on_c, 9, 36, 93
1, 118086, Note_on_c, 9, 42, 0
1, 118320, Note_on_c, 9, 42, 62
1, 118326, Note_on_c, 9, 42, 0
1, 118559, Note_on_c, 9, 36, 0
1, 118560, Note_on_c, 9, 37, 127
1, 118560, Note_on_c, 9, 42, 78
1, 118566, Note_on_c, 9, 37, 0
1, 118566, Note_on_c, 9, 42, 0
1, 118800, Note_on_c, 9, 42, 61
1, 118802, Note_on_c, 9, 42, 0
1, 118920, Note_on_c, 9, 42, 64
1, 118922, Note_on_c, 9, 42, 0
1, 119040, Note_on_c, 9, 42, 70
1, 119040, Note_on_c, 9, 36, 93
1, 119046, Note_on_c, 9, 42, 0
1, 119280, Note_on_c, 9, 42, 58
1, 119286, Note_on_c, 9, 42, 0
1, 119519, Note_on_c, 9, 36, 0
1, 119520, Note_on_c, 9, 37, 127
1, 119520, Note_on_c, 9, 42, 78
1, 119526, Note_on_c, 9, 37, 0
1, 119526, Note_on_c, 9, 42, 0
1, 119760, Note_on_c, 9, 42, 74
1, 119762, Note_on_c, 9, 42, 0
1, 119880, Note_on_c, 9, 42, 54
1, 119882, Note_on_c, 9, 42, 0
1, 120000, Note_on_c, 9, 42, 62
1, 120000, Note_on_c, 9, 36, 93
1, 120006, Note_on_c, 9, 42, 0
1, 120240, Note_on_c, 9, 42, 61
1, 120246, Note_on_c, 9, 42, 0
1, 120479, Note_on_c, 9, 36, 0
1, 120480, Note_on_c, 9, 37, 127
1, 120480, Note_on_c, 9, 46, 79
1, 120493, Note_on_c, 9, 37, 0
1, 120493, Note_on_c, 9, 46, 0
1, 120720, Note_on_c, 9, 36, 75
1, 120959, Note_on_c, 9, 36, 0
1, 120960, Note_on_c, 9, 59, 90
1, 120960, Note_on_c, 9, 49, 65
1, 120960, Note_on_c, 9, 55, 90
1, 120960, Note_on_c, 9, 36, 93
1, 120966, Note_on_c, 9, 59, 0
1, 120966, Note_on_c, 9, 49, 0
1, 120966, Note_on_c, 9, 55, 0
1, 121200, Note_on_c, 9, 42, 62
1, 121206, Note_on_c, 9, 42, 0
1, 121439, Note_on_c, 9, 36, 0
1, 121440, Note_on_c, 9, 37, 127
1, 121440, Note_on_c, 9, 42, 78
1, 121446, Note_on_c, 9, 37, 0
1, 121446, Note_on_c, 9, 42, 0
1, 121680, Note_on_c, 9, 42, 59
1, 121686, Note_on_c, 9, 42, 0
1, 121920, Note_on_c, 9, 42, 70
1, 121920, Note_on_c, 9, 36, 93
1, 121926, Note_on_c, 9, 42, 0
1, 122160, Note_on_c, 9, 42, 58
1, 122166, Note_on_c, 9, 42, 0
1, 122399, Note_on_c, 9, 36, 0
1, 122400, Note_on_c, 9, 37, 127
1, 122400, Note_on_c, 9, 42, 70
1, 122406, Note_on_c, 9, 37, 0
1, 122406, Note_on_c, 9, 42, 0
1, 122640, Note_on_c, 9, 42, 67
1, 122642, Note_on_c, 9, 42, 0
1, 122760, Note_on_c, 9, 42, 67
1, 122762, Note_on_c, 9, 42, 0
1, 122880, Note_on_c, 9, 42, 67
1, 122880, Note_on_c, 9, 36, 93
1, 122886, Note_on_c, 9, 42, 0
1, 123120, Note_on_c, 9, 42, 55
1, 123126, Note_on_c, 9, 42, 0
1, 123359, Note_on_c, 9, 36, 0
1, 123360, Note_on_c, 9, 37, 127
1, 123360, Note_on_c, 9, 42, 74
1, 123366, Note_on_c, 9, 37, 0
1, 123366, Note_on_c, 9, 42, 0
1, 123600, Note_on_c, 9, 42, 60
1, 123606, Note_on_c, 9, 42, 0
1, 123840, Note_on_c, 9, 42, 61
1, 123840, Note_on_c, 9, 36, 93
1, 123846, Note_on_c, 9, 42, 0
1, 124080, Note_on_c, 9, 42, 61
1, 124086, Note_on_c, 9, 42, 0
1, 124319, Note_on_c, 9, 36, 0
1, 124320, Note_on_c, 9, 37, 127
1, 124320, Note_on_c, 9, 42, 74
1, 124326, Note_on_c, 9, 37, 0
1, 124326, Note_on_c, 9, 42, 0
1, 124560, Note_on_c, 9, 46, 74
1, 124566, Note_on_c, 9, 46, 0
1, 124800, Note_on_c, 9, 42, 70
1, 124800, Note_on_c, 9, 36, 93
1, 124806, Note_on_c, 9, 42, 0
1, 125040, Note_on_c, 9, 42, 46
1, 125046, Note_on_c, 9, 42, 0
1, 125279, Note_on_c, 9, 36, 0
1, 125280, Note_on_c, 9, 37, 127
1, 125280, Note_on_c, 9, 42, 66
1, 125286, Note_on_c, 9, 37, 0
1, 125286, Note_on_c, 9, 42, 0
1, 125520, Note_on_c, 9, 42, 62
1, 125526, Note_on_c, 9, 42, 0
1, 125760, Note_on_c, 9, 42, 70
1, 125760, Note_on_c, 9, 36, 93
1, 125766, Note_on_c, 9, 42, 0
1, 126000, Note_on_c, 9, 42, 62
1, 126006, Note_on_c, 9, 42, 0
1, 126239, Note_on_c, 9, 36, 0
1, 126240, Note_on_c, 9, 37, 127
1, 126240, Note_on_c, 9, 42, 61
1, 126246, Note_on_c, 9, 37, 0
1, 126246, Note_on_c, 9, 42, 0
1, 126480, Note_on_c, 9, 42, 61
1, 126482, Note_on_c, 9, 42, 0
1, 126600, Note_on_c, 9, 42, 63
1, 126602, Note_on_c, 9, 42, 0
1, 126720, Note_on_c, 9, 42, 67
1, 126720, Note_on_c, 9, 36, 93
1, 126726, Note_on_c, 9, 42, 0
1, 126960, Note_on_c, 9, 42, 46
1, 126966, Note_on_c, 9, 42, 0
1, 127199, Note_on_c, 9, 36, 0
1, 127200, Note_on_c, 9, 37, 127
1, 127200, Note_on_c, 9, 42, 66
1, 127206, Note_on_c, 9, 37, 0
1, 127206, Note_on_c, 9, 42, 0
1, 127440, Note_on_c, 9, 42, 62
1, 127446, Note_on_c, 9, 42, 0
1, 127680, Note_on_c, 9, 42, 70
1, 127680, Note_on_c, 9, 36, 93
1, 127686, Note_on_c, 9, 42, 0
1, 127920, Note_on_c, 9, 42, 62
1, 127922, Note_on_c, 9, 42, 0
1, 128040, Note_on_c, 9, 46, 70
1, 128042, Note_on_c, 9, 46, 0
1, 128159, Note_on_c, 9, 36, 0
1, 128160, Note_on_c, 9, 37, 127
1, 128160, Note_on_c, 9, 42, 61
1, 128166, Note_on_c, 9, 37, 0
1, 128166, Note_on_c, 9, 42, 0
1, 128400, Note_on_c, 9, 46, 79
1, 128406, Note_on_c, 9, 46, 0
1, 128640, Note_on_c, 9, 42, 78
1, 128640, Note_on_c, 9, 36, 93
1, 128646, Note_on_c, 9, 42, 0
1, 128880, Note_on_c, 9, 42, 62
1, 128886, Note_on_c, 9, 42, 0
1, 129119, Note_on_c, 9, 36, 0
1, 129120, Note_on_c, 9, 37, 127
1, 129120, Note_on_c, 9, 42, 78
1, 129126, Note_on_c, 9, 37, 0
1, 129126, Note_on_c, 9, 42, 0
1, 129360, Note_on_c, 9, 42, 72
1, 129362, Note_on_c, 9, 42, 0
1, 129480, Note_on_c, 9, 42, 72
1, 129482, Note_on_c, 9, 42, 0
1, 129600, Note_on_c, 9, 42, 70
1, 129600, Note_on_c, 9, 36, 93
1, 129606, Note_on_c, 9, 42, 0
1, 129840, Note_on_c, 9, 42, 58
1, 129846, Note_on_c, 9, 42, 0
1, 130079, Note_on_c, 9, 36, 0
1, 130080, Note_on_c, 9, 37, 127
1, 130080, Note_on_c, 9, 42, 70
1, 130086, Note_on_c, 9, 37, 0
1, 130086, Note_on_c, 9, 42, 0
1, 130320, Note_on_c, 9, 42, 53
1, 130326, Note_on_c, 9, 42, 0
1, 130560, Note_on_c, 9, 42, 62
1, 130560, Note_on_c, 9, 36, 93
1, 130566, Note_on_c, 9, 42, 0
1, 130800, Note_on_c, 9, 42, 55
1, 130806, Note_on_c, 9, 42, 0
1, 131039, Note_on_c, 9, 36, 0
1, 131040, Note_on_c, 9, 37, 127
1, 131040, Note_on_c, 9, 42, 74
1, 131046, Note_on_c, 9, 37, 0
1, 131046, Note_on_c, 9, 42, 0
1, 131280, Note_on_c, 9, 42, 60
1, 131282, Note_on_c, 9, 42, 0
1, 131400, Note_on_c, 9, 42, 63
1, 131402, Note_on_c, 9, 42, 0
1, 131520, Note_on_c, 9, 42, 61
1, 131520, Note_on_c, 9, 36, 93
1, 131526, Note_on_c, 9, 42, 0
1, 131760, Note_on_c, 9, 42, 61
1, 131766, Note_on_c, 9, 42, 0
1, 131999, Note_on_c, 9, 36, 0
1, 132000, Note_on_c, 9, 37, 127
1, 132000, Note_on_c, 9, 42, 74
1, 132006, Note_on_c, 9, 37, 0
1, 132006, Note_on_c, 9, 42, 0
1, 132240, Note_on_c, 9, 46, 74
1, 132246, Note_on_c, 9, 46, 0
1, 132480, Note_on_c, 9, 59, 70
1, 132480, Note_on_c, 9, 42, 70
1, 132480, Note_on_c, 9, 55, 77
1, 132480, Note_on_c, 9, 36, 93
1, 132486, Note_on_c, 9, 59, 0
1, 132486, Note_on_c, 9, 42, 0
1, 132486, Note_on_c, 9, 55, 0
1, 132720, Note_on_c, 9, 42, 63
1, 132726, Note_on_c, 9, 42, 0
1, 132959, Note_on_c, 9, 36, 0
1, 132960, Note_on_c, 9, 37, 127
1, 132960, Note_on_c, 9, 42, 66
1, 132966, Note_on_c, 9, 37, 0
1, 132966, Note_on_c, 9, 42, 0
1, 133200, Note_on_c, 9, 42, 62
1, 133202, Note_on_c, 9, 42, 0
1, 133320, Note_on_c, 9, 42, 63
1, 133322, Note_on_c, 9, 42, 0
1, 133440, Note_on_c, 9, 42, 70
1, 133440, Note_on_c, 9, 36, 93
1, 133446, Note_on_c, 9, 42, 0
1, 133680, Note_on_c, 9, 42, 62
1, 133686, Note_on_c, 9, 42, 0
1, 133919, Note_on_c, 9, 36, 0
1, 133920, Note_on_c, 9, 37, 127
1, 133920, Note_on_c, 9, 46, 78
1, 133930, Note_on_c, 9, 37, 0
1, 133930, Note_on_c, 9, 46, 0
1, 134380, Note_on_c, 9, 59, 77
1, 134380, Note_on_c, 9, 59, 0
1, 134400, Note_on_c, 9, 51, 84
1, 134413, Note_on_c, 9, 51, 0
1, 134880, Note_on_c, 9, 42, 86
1, 134893, Note_on_c, 9, 42, 0
1, 139680, Note_on_c, 9, 37, 127
1, 139680, Note_on_c, 9, 42, 63
1, 139686, Note_on_c, 9, 37, 0
1, 139686, Note_on_c, 9, 42, 0
1, 139920, Note_on_c, 9, 46, 72
1, 139926, Note_on_c, 9, 46, 0
1, 140160, Note_on_c, 9, 42, 78
1, 140160, Note_on_c, 9, 36, 93
1, 140166, Note_on_c, 9, 42, 0
1, 140400, Note_on_c, 9, 42, 62
1, 140406, Note_on_c, 9, 42, 0
1, 140639, Note_on_c, 9, 36, 0
1, 140640, Note_on_c, 9, 37, 127
1, 140640, Note_on_c, 9, 42, 78
1, 140646, Note_on_c, 9, 37, 0
1, 140646, Note_on_c, 9, 42, 0
1, 140880, Note_on_c, 9, 42, 59
1, 140882, Note_on_c, 9, 42, 0
1, 141000, Note_on_c, 9, 42, 61
1, 141002, Note_on_c, 9, 42, 0
1, 141120, Note_on_c, 9, 42, 70
1, 141120, Note_on_c, 9, 36, 93
1, 141126, Note_on_c, 9, 42, 0
1, 141360, Note_on_c, 9, 42, 58
1, 141366, Note_on_c, 9, 42, 0
1, 141599, Note_on_c, 9, 36, 0
1, 141600, Note_on_c, 9, 37, 127
1, 141600, Note_on_c, 9, 42, 70
1, 141606, Note_on_c, 9, 37, 0
1, 141606, Note_on_c, 9, 42, 0
1, 141840, Note_on_c, 9, 42, 61
1, 141846, Note_on_c, 9, 42, 0
1, 142080, Note_on_c, 9, 42, 70
1, 142080, Note_on_c, 9, 36, 93
1, 142086, Note_on_c, 9, 42, 0
1, 142320, Note_on_c, 9, 42, 55
1, 142326, Note_on_c, 9, 42, 0
1, 142559, Note_on_c, 9, 36, 0
1, 142560, Note_on_c, 9, 37, 127
1, 142560, Note_on_c, 9, 42, 74
1, 142566, Note_on_c, 9, 37, 0
1, 142566, Note_on_c, 9, 42, 0
1, 142800, Note_on_c, 9, 42, 60
1, 142802, Note_on_c, 9, 42, 0
1, 142920, Note_on_c, 9, 42, 58
1, 142922, Note_on_c, 9, 42, 0
1, 143040, Note_on_c, 9, 42, 61
1, 143040, Note_on_c, 9, 36, 93
1, 143046, Note_on_c, 9, 42, 0
1, 143280, Note_on_c, 9, 42, 61
1, 143286, Note_on_c, 9, 42, 0
1, 143519, Note_on_c, 9, 36, 0
1, 143520, Note_on_c, 9, 37, 127
1, 143520, Note_on_c, 9, 42, 74
1, 143526, Note_on_c, 9, 37, 0
1, 143526, Note_on_c, 9, 42, 0
1, 143760, Note_on_c, 9, 46, 84
1, 143766, Note_on_c, 9, 46, 0
1, 144000, Note_on_c, 9, 42, 70
1, 144000, Note_on_c, 9, 36, 93
1, 144006, Note_on_c, 9, 42, 0
1, 144240, Note_on_c, 9, 42, 46
1, 144246, Note_on_c, 9, 42, 0
1, 144479, Note_on_c, 9, 36, 0
1, 144480, Note_on_c, 9, 37, 127
1, 144480, Note_on_c, 9, 42, 66
1, 144486, Note_on_c, 9, 37, 0
1, 144486, Note_on_c, 9, 42, 0
1, 144720, Note_on_c, 9, 42, 62
1, 144726, Note_on_c, 9, 42, 0
1, 144960, Note_on_c, 9, 42, 70
1, 144960, Note_on_c, 9, 36, 93
1, 144966, Note_on_c, 9, 42, 0
1, 145200, Note_on_c, 9, 42, 62
1, 145206, Note_on_c, 9, 42, 0
1, 145439, Note_on_c, 9, 36, 0
1, 145440, Note_on_c, 9, 37, 127
1, 145440, Note_on_c, 9, 42, 78
1, 145446, Note_on_c, 9, 37, 0
1, 145446, Note_on_c, 9, 42, 0
1, 145680, Note_on_c, 9, 42, 61
1, 145682, Note_on_c, 9, 42, 0
1, 145800, Note_on_c, 9, 42, 64
1, 145802, Note_on_c, 9, 42, 0
1, 145920, Note_on_c, 9, 42, 70
1, 145920, Note_on_c, 9, 36, 93
1, 145926, Note_on_c, 9, 42, 0
1, 146160, Note_on_c, 9, 42, 58
1, 146166, Note_on_c, 9, 42, 0
1, 146399, Note_on_c, 9, 36, 0
1, 146400, Note_on_c, 9, 37, 127
1, 146400, Note_on_c, 9, 42, 78
1, 146406, Note_on_c, 9, 37, 0
1, 146406, Note_on_c, 9, 42, 0
1, 146640, Note_on_c, 9, 42, 74
1, 146646, Note_on_c, 9, 42, 0
1, 146880, Note_on_c, 9, 42, 62
1, 146880, Note_on_c, 9, 36, 93
1, 146886, Note_on_c, 9, 42, 0
1, 147120, Note_on_c, 9, 46, 79
1, 147126, Note_on_c, 9, 46, 0
1, 147359, Note_on_c, 9, 36, 0
1, 147360, Note_on_c, 9, 37, 127
1, 147360, Note_on_c, 9, 42, 78
1, 147366, Note_on_c, 9, 37, 0
1, 147366, Note_on_c, 9, 42, 0
1, 147600, Note_on_c, 9, 41, 84
1, 147839, Note_on_c, 9, 41, 0
1, 147840, Note_on_c, 9, 42, 78
1, 147840, Note_on_c, 9, 36, 93
1, 147846, Note_on_c, 9, 42, 0
1, 148080, Note_on_c, 9, 42, 62
1, 148086, Note_on_c, 9, 42, 0
1, 148319, Note_on_c, 9, 36, 0
1, 148320, Note_on_c, 9, 37, 127
1, 148320, Note_on_c, 9, 42, 78
1, 148326, Note_on_c, 9, 37, 0
1, 148326, Note_on_c, 9, 42, 0
1, 148560, Note_on_c, 9, 42, 59
1, 148566, Note_on_c, 9, 42, 0
1, 148800, Note_on_c, 9, 42, 70
1, 148800, Note_on_c, 9, 36, 93
1, 148806, Note_on_c, 9, 42, 0
1, 149040, Note_on_c, 9, 42, 58
1, 149046, Note_on_c, 9, 42, 0
1, 149279, Note_on_c, 9, 36, 0
1, 149280, Note_on_c, 9, 37, 127
1, 149280, Note_on_c, 9, 42, 70
1, 149286, Note_on_c, 9, 37, 0
1, 149286, Note_on_c, 9, 42, 0
1, 149520, Note_on_c, 9, 42, 58
1, 149522, Note_on_c, 9, 42, 0
1, 149640, Note_on_c, 9, 42, 58
1, 149642, Note_on_c, 9, 42, 0
1, 149760, Note_on_c, 9, 42, 62
1, 149760, Note_on_c, 9, 36, 93
1, 149766, Note_on_c, 9, 42, 0
1, 150000, Note_on_c, 9, 42, 55
1, 150006, Note_on_c, 9, 42, 0
1, 150239, Note_on_c, 9, 36, 0
1, 150240, Note_on_c, 9, 37, 127
1, 150240, Note_on_c, 9, 42, 74
1, 150246, Note_on_c, 9, 37, 0
1, 150246, Note_on_c, 9, 42, 0
1, 150480, Note_on_c, 9, 42, 60
1, 150486, Note_on_c, 9, 42, 0
1, 150720, Note_on_c, 9, 42, 61
1, 150720, Note_on_c, 9, 36, 93
1, 150726, Note_on_c, 9, 42, 0
1, 150960, Note_on_c, 9, 42, 61
1, 150966, Note_on_c, 9, 42, 0
1, 151199, Note_on_c, 9, 36, 0
1, 151200, Note_on_c, 9, 37, 127
1, 151200, Note_on_c, 9, 42, 74
1, 151206, Note_on_c, 9, 37, 0
1, 151206, Note_on_c, 9, 42, 0
1, 151440, Note_on_c, 9, 46, 74
1, 151446, Note_on_c, 9, 46, 0
1, 151680, Note_on_c, 9, 42, 70
1, 151680, Note_on_c, 9, 36, 93
1, 151686, Note_on_c, 9, 42, 0
1, 151920, Note_on_c, 9, 42, 46
1, 151926, Note_on_c, 9, 42, 0
1, 152159, Note_on_c, 9, 36, 0
1, 152160, Note_on_c, 9, 37, 127
1, 152160, Note_on_c, 9, 42, 66
1, 152166, Note_on_c, 9, 37, 0
1, 152166, Note_on_c, 9, 42, 0
1, 152400, Note_on_c, 9, 42, 62
1, 152402, Note_on_c, 9, 42, 0
1, 152520, Note_on_c, 9, 42, 64
1, 152522, Note_on_c, 9, 42, 0
1, 152640, Note_on_c, 9, 42, 70
1, 152640, Note_on_c, 9, 36, 93
1, 152646, Note_on_c, 9, 42, 0
1, 152880, Note_on_c, 9, 42, 62
1, 152886, Note_on_c, 9, 42, 0
1, 153119, Note_on_c, 9, 36, 0
1, 153120, Note_on_c, 9, 37, 127
1, 153120, Note_on_c, 9, 42, 78
1, 153126, Note_on_c, 9, 37, 0
1, 153126, Note_on_c, 9, 42, 0
1, 153360, Note_on_c, 9, 42, 61
1, 153360, Note_on_c, 9, 36, 75
1, 153366, Note_on_c, 9, 42, 0
1, 153599, Note_on_c, 9, 36, 0
1, 153600, Note_on_c, 9, 42, 70
1, 153600, Note_on_c, 9, 36, 93
1, 153606, Note_on_c, 9, 42, 0
1, 153840, Note_on_c, 9, 42, 58
1, 153846, Note_on_c, 9, 42, 0
1, 154079, Note_on_c, 9, 36, 0
1, 154080, Note_on_c, 9, 37, 127
1, 154080, Note_on_c, 9, 42, 78
1, 154086, Note_on_c, 9, 37, 0
1, 154086, Note_on_c, 9, 42, 0
1, 154320, Note_on_c, 9, 42, 74
1, 154326, Note_on_c, 9, 42, 0
1, 154560, Note_on_c, 9, 42, 62
1, 154560, Note_on_c, 9, 36, 93
1, 154566, Note_on_c, 9, 42, 0
1, 154800, Note_on_c, 9, 42, 61
1, 154806, Note_on_c, 9, 42, 0
1, 155039, Note_on_c, 9, 36, 0
1, 155040, Note_on_c, 9, 37, 127
1, 155040, Note_on_c, 9, 42, 78
1, 155046, Note_on_c, 9, 37, 0
1, 155046, Note_on_c, 9, 42, 0
1, 155280, Note_on_c, 9, 46, 79
1, 155286, Note_on_c, 9, 46, 0
1, 155520, Note_on_c, 9, 42, 78
1, 155520, Note_on_c, 9, 36, 93
1, 155526, Note_on_c, 9, 42, 0
1, 155760, Note_on_c, 9, 42, 62
1, 155766, Note_on_c, 9, 42, 0
1, 155999, Note_on_c, 9, 36, 0
1, 156000, Note_on_c, 9, 37, 127
1, 156000, Note_on_c, 9, 42, 78
1, 156006, Note_on_c, 9, 37, 0
1, 156006, Note_on_c, 9, 42, 0
1, 156240, Note_on_c, 9, 42, 59
1, 156246, Note_on_c, 9, 42, 0
1, 156480, Note_on_c, 9, 42, 70
1, 156480, Note_on_c, 9, 36, 93
1, 156486, Note_on_c, 9, 42, 0
1, 156720, Note_on_c, 9, 42, 58
1, 156726, Note_on_c, 9, 42, 0
1, 156959, Note_on_c, 9, 36, 0
1, 156960, Note_on_c, 9, 37, 127
1, 156960, Note_on_c, 9, 42, 70
1, 156966, Note_on_c, 9, 37, 0
1, 156966, Note_on_c, 9, 42, 0
1, 157200, Note_on_c, 9, 42, 63
1, 157202, Note_on_c, 9, 42, 0
1, 157320, Note_on_c, 9, 42, 63
1, 157322, Note_on_c, 9, 42, 0
1, 157440, Note_on_c, 9, 42, 62
1, 157440, Note_on_c, 9, 36, 93
1, 157446, Note_on_c, 9, 42, 0
1, 157680, Note_on_c, 9, 42, 55
1, 157686, Note_on_c, 9, 42, 0
1, 157919, Note_on_c, 9, 36, 0
1, 157920, Note_on_c, 9, 37, 127
1, 157920, Note_on_c, 9, 42, 74
1, 157926, Note_on_c, 9, 37, 0
1, 157926, Note_on_c, 9, 42, 0
1, 158160, Note_on_c, 9, 42, 60
1, 158166, Note_on_c, 9, 42, 0
1, 158400, Note_on_c, 9, 42, 61
1, 158400, Note_on_c, 9, 36, 93
1, 158406, Note_on_c, 9, 42, 0
1, 158640, Note_on_c, 9, 42, 61
1, 158646, Note_on_c, 9, 42, 0
1, 158879, Note_on_c, 9, 36, 0
1, 158880, Note_on_c, 9, 37, 127
1, 158880, Note_on_c, 9, 42, 74
1, 158886, Note_on_c, 9, 37, 0
1, 158886, Note_on_c, 9, 42, 0
1, 159120, Note_on_c, 9, 46, 74
1, 159126, Note_on_c, 9, 46, 0
1, 159360, Note_on_c, 9, 42, 70
1, 159360, Note_on_c, 9, 36, 93
1, 159366, Note_on_c, 9, 42, 0
1, 159600, Note_on_c, 9, 42, 46
1, 159606, Note_on_c, 9, 42, 0
1, 159839, Note_on_c, 9, 36, 0
1, 159840, Note_on_c, 9, 37, 127
1, 159840, Note_on_c, 9, 42, 66
1, 159846, Note_on_c, 9, 37, 0
1, 159846, Note_on_c, 9, 42, 0
1, 160080, Note_on_c, 9, 42, 62
1, 160082, Note_on_c, 9, 42, 0
1, 160200, Note_on_c, 9, 42, 64
1, 160202, Note_on_c, 9, 42, 0
1, 160320, Note_on_c, 9, 42, 70
1, 160320, Note_on_c, 9, 36, 93
1, 160326, Note_on_c, 9, 42, 0
1, 160560, Note_on_c, 9, 42, 62
1, 160566, Note_on_c, 9, 42, 0
1, 160799, Note_on_c, 9, 36, 0
1, 160800, Note_on_c, 9, 37, 127
1, 160800, Note_on_c, 9, 42, 78
1, 160806, Note_on_c, 9, 37, 0
1, 160806, Note_on_c, 9, 42, 0
1, 161040, Note_on_c, 9, 42, 61
1, 161046, Note_on_c, 9, 42, 0
1, 161280, Note_on_c, 9, 42, 70
1, 161280, Note_on_c, 9, 36, 93
1, 161286, Note_on_c, 9, 42, 0
1, 161520, Note_on_c, 9, 42, 58
1, 161526, Note_on_c, 9, 42, 0
1, 161759, Note_on_c, 9, 36, 0
1, 161760, Note_on_c, 9, 37, 127
1, 161760, Note_on_c, 9, 42, 78
1, 161766, Note_on_c, 9, 37, 0
1, 161766, Note_on_c, 9, 42, 0
1, 162000, Note_on_c, 9, 42, 74
1, 162006, Note_on_c, 9, 42, 0
1, 162240, Note_on_c, 9, 46, 54
1, 162240, Note_on_c, 9, 36, 93
1, 162250, Note_on_c, 9, 46, 0
1, 162600, Note_on_c, 9, 46, 54
1, 162602, Note_on_c, 9, 46, 0
1, 162719, Note_on_c, 9, 36, 0
1, 162720, Note_on_c, 9, 37, 127
1, 162720, Note_on_c, 9, 42, 78
1, 162726, Note_on_c, 9, 37, 0
1, 162726, Note_on_c, 9, 42, 0
1, 162960, Note_on_c, 9, 46, 79
1, 162966, Note_on_c, 9, 46, 0
1, 163200, Note_on_c, 9, 42, 70
1, 163200, Note_on_c, 9, 36, 93
1, 163206, Note_on_c, 9, 42, 0
1, 163440, Note_on_c, 9, 42, 62
1, 163446, Note_on_c, 9, 42, 0
1, 163679, Note_on_c, 9, 36, 0
1, 163680, Note_on_c, 9, 37, 127
1, 163680, Note_on_c, 9, 42, 78
1, 163686, Note_on_c, 9, 37, 0
1, 163686, Note_on_c, 9, 42, 0
1, 163920, Note_on_c, 9, 42, 59
1, 163926, Note_on_c, 9, 42, 0
1, 164160, Note_on_c, 9, 42, 70
1, 164160, Note_on_c, 9, 36, 93
1, 164166, Note_on_c, 9, 42, 0
1, 164400, Note_on_c, 9, 42, 58
1, 164406, Note_on_c, 9, 42, 0
1, 164639, Note_on_c, 9, 36, 0
1, 164640, Note_on_c, 9, 37, 127
1, 164640, Note_on_c, 9, 42, 70
1, 164646, Note_on_c, 9, 37, 0
1, 164646, Note_on_c, 9, 42, 0
1, 164880, Note_on_c, 9, 42, 63
1, 164886, Note_on_c, 9, 42, 0
1, 165120, Note_on_c, 9, 42, 62
1, 165120, Note_on_c, 9, 36, 93
1, 165126, Note_on_c, 9, 42, 0
1, 165360, Note_on_c, 9, 42, 55
1, 165366, Note_on_c, 9, 42, 0
1, 165599, Note_on_c, 9, 36, 0
1, 165600, Note_on_c, 9, 37, 127
1, 165600, Note_on_c, 9, 42, 74
1, 165606, Note_on_c, 9, 37, 0
1, 165606, Note_on_c, 9, 42, 0
1, 165840, Note_on_c, 9, 46, 84
1, 165846, Note_on_c, 9, 46, 0
1, 166080, Note_on_c, 9, 42, 61
1, 166080, Note_on_c, 9, 36, 93
1, 166086, Note_on_c, 9, 42, 0
1, 166320, Note_on_c, 9, 42, 61
1, 166326, Note_on_c, 9, 42, 0
1, 166559, Note_on_c, 9, 36, 0
1, 166560, Note_on_c, 9, 37, 127
1, 166560, Note_on_c, 9, 42, 74
1, 166570, Note_on_c, 9, 37, 0
1, 166570, Note_on_c, 9, 42, 0
1, 166800, Note_on_c, 9, 43, 70
1, 166920, Note_on_c, 9, 41, 70
1, 167039, Note_on_c, 9, 43, 0
1, 167039, Note_on_c, 9, 41, 0
1, 167040, Note_on_c, 9, 59, 90
1, 167040, Note_on_c, 9, 49, 65
1, 167040, Note_on_c, 9, 55, 90
1, 167040, Note_on_c, 9, 36, 93
1, 167046, Note_on_c, 9, 59, 0
1, 167046, Note_on_c, 9, 49, 0
1, 167046, Note_on_c, 9, 55, 0
1, 167280, Note_on_c, 9, 42, 62
1, 167286, Note_on_c, 9, 42, 0
1, 167519, Note_on_c, 9, 36, 0
1, 167520, Note_on_c, 9, 37, 127
1, 167520, Note_on_c, 9, 42, 78
1, 167526, Note_on_c, 9, 37, 0
1, 167526, Note_on_c, 9, 42, 0
1, 167760, Note_on_c, 9, 42, 59
1, 167762, Note_on_c, 9, 42, 0
1, 167880, Note_on_c, 9, 42, 67
1, 167882, Note_on_c, 9, 42, 0
1, 168000, Note_on_c, 9, 42, 70
1, 168000, Note_on_c, 9, 36, 93
1, 168006, Note_on_c, 9, 42, 0
1, 168240, Note_on_c, 9, 42, 58
1, 168246, Note_on_c, 9, 42, 0
1, 168479, Note_on_c, 9, 36, 0
1, 168480, Note_on_c, 9, 37, 127
1, 168480, Note_on_c, 9, 54, 127
1, 168480, Note_on_c, 9, 42, 70
1, 168486, Note_on_c, 9, 37, 0
1, 168486, Note_on_c, 9, 42, 0
1, 168719, Note_on_c, 9, 54, 0
1, 168720, Note_on_c, 9, 42, 74
1, 168726, Note_on_c, 9, 42, 0
1, 168960, Note_on_c, 9, 42, 67
1, 168960, Note_on_c, 9, 36, 93
1, 168966, Note_on_c, 9, 42, 0
1, 169200, Note_on_c, 9, 42, 55
1, 169206, Note_on_c, 9, 42, 0
1, 169439, Note_on_c, 9, 36, 0
1, 169440, Note_on_c, 9, 37, 127
1, 169440, Note_on_c, 9, 42, 74
1, 169446, Note_on_c, 9, 37, 0
1, 169446, Note_on_c, 9, 42, 0
1, 169680, Note_on_c, 9, 42, 60
1, 169686, Note_on_c, 9, 42, 0
1, 169920, Note_on_c, 9, 42, 61
1, 169920, Note_on_c, 9, 36, 93
1, 169926, Note_on_c, 9, 42, 0
1, 170160, Note_on_c, 9, 42, 74
1, 170162, Note_on_c, 9, 42, 0
1, 170280, Note_on_c, 9, 42, 74
1, 170282, Note_on_c, 9, 42, 0
1, 170399, Note_on_c, 9, 36, 0
1, 170400, Note_on_c, 9, 37, 127
1, 170400, Note_on_c, 9, 54, 127
1, 170400, Note_on_c, 9, 42, 74
1, 170406, Note_on_c, 9, 37, 0
1, 170406, Note_on_c, 9, 42, 0
1, 170639, Note_on_c, 9, 54, 0
1, 170640, Note_on_c, 9, 46, 74
1, 170646, Note_on_c, 9, 46, 0
1, 170880, Note_on_c, 9, 42, 70
1, 170880, Note_on_c, 9, 36, 93
1, 170886, Note_on_c, 9, 42, 0
1, 171120, Note_on_c, 9, 42, 46
1, 171126, Note_on_c, 9, 42, 0
1, 171359, Note_on_c, 9, 36, 0
1, 171360, Note_on_c, 9, 37, 127
1, 171360, Note_on_c, 9, 42, 66
1, 171366, Note_on_c, 9, 37, 0
1, 171366, Note_on_c, 9, 42, 0
1, 171600, Note_on_c, 9, 42, 62
1, 171602, Note_on_c, 9, 42, 0
1, 171720, Note_on_c, 9, 42, 65
1, 171722, Note_on_c, 9, 42, 0
1, 171840, Note_on_c, 9, 42, 70
1, 171840, Note_on_c, 9, 36, 93
1, 171846, Note_on_c, 9, 42, 0
1, 172080, Note_on_c, 9, 42, 62
1, 172086, Note_on_c, 9, 42, 0
1, 172319, Note_on_c, 9, 36, 0
1, 172320, Note_on_c, 9, 37, 127
1, 172320, Note_on_c, 9, 54, 127
1, 172320, Note_on_c, 9, 42, 61
1, 172326, Note_on_c, 9, 37, 0
1, 172326, Note_on_c, 9, 42, 0
1, 172559, Note_on_c, 9, 54, 0
1, 172560, Note_on_c, 9, 42, 61
1, 172562, Note_on_c, 9, 42, 0
1, 172680, Note_on_c, 9, 42, 63
1, 172682, Note_on_c, 9, 42, 0
1, 172800, Note_on_c, 9, 42, 67
1, 172800, Note_on_c, 9, 36, 93
1, 172806, Note_on_c, 9, 42, 0
1, 173040, Note_on_c, 9, 42, 56
1, 173046, Note_on_c, 9, 42, 0
1, 173279, Note_on_c, 9, 36, 0
1, 173280, Note_on_c, 9, 37, 127
1, 173280, Note_on_c, 9, 42, 66
1, 173286, Note_on_c, 9, 37, 0
1, 173286, Note_on_c, 9, 42, 0
1, 173520, Note_on_c, 9, 42, 62
1, 173522, Note_on_c, 9, 42, 0
1, 173640, Note_on_c, 9, 42, 65
1, 173642, Note_on_c, 9, 42, 0
1, 173760, Note_on_c, 9, 42, 70
1, 173760, Note_on_c, 9, 36, 93
1, 173766, Note_on_c, 9, 42, 0
1, 174000, Note_on_c, 9, 46, 70
1, 174006, Note_on_c, 9, 46, 0
1, 174239, Note_on_c, 9, 36, 0
1, 174240, Note_on_c, 9, 37, 127
1, 174240, Note_on_c, 9, 54, 127
1, 174240, Note_on_c, 9, 42, 61
1, 174246, Note_on_c, 9, 37, 0
1, 174246, Note_on_c, 9, 42, 0
1, 174479, Note_on_c, 9, 54, 0
1, 174480, Note_on_c, 9, 46, 79
1, 174486, Note_on_c, 9, 46, 0
1, 174720, Note_on_c, 9, 59, 74
1, 174720, Note_on_c, 9, 55, 74
1, 174720, Note_on_c, 9, 36, 93
1, 174726, Note_on_c, 9, 59, 0
1, 174726, Note_on_c, 9, 55, 0
1, 174960, Note_on_c, 9, 42, 62
1, 174966, Note_on_c, 9, 42, 0
1, 175199, Note_on_c, 9, 36, 0
1, 175200, Note_on_c, 9, 37, 127
1, 175200, Note_on_c, 9, 42, 78
1, 175206, Note_on_c, 9, 37, 0
1, 175206, Note_on_c, 9, 42, 0
1, 175440, Note_on_c, 9, 42, 59
1, 175442, Note_on_c, 9, 42, 0
1, 175560, Note_on_c, 9, 42, 67
1, 175562, Note_on_c, 9, 42, 0
1, 175680, Note_on_c, 9, 42, 70
1, 175680, Note_on_c, 9, 36, 93
1, 175686, Note_on_c, 9, 42, 0
1, 175920, Note_on_c, 9, 42, 58
1, 175926, Note_on_c, 9, 42, 0
1, 176159, Note_on_c, 9, 36, 0
1, 176160, Note_on_c, 9, 37, 127
1, 176160, Note_on_c, 9, 54, 127
1, 176160, Note_on_c, 9, 42, 70
1, 176166, Note_on_c, 9, 37, 0
1, 176166, Note_on_c, 9, 42, 0
1, 176399, Note_on_c, 9, 54, 0
1, 176400, Note_on_c, 9, 42, 74
1, 176402, Note_on_c, 9, 42, 0
1, 176520, Note_on_c, 9, 42, 67
1, 176522, Note_on_c, 9, 42, 0
1, 176640, Note_on_c, 9, 42, 67
1, 176640, Note_on_c, 9, 36, 93
1, 176646, Note_on_c, 9, 42, 0
1, 176880, Note_on_c, 9, 42, 67
1, 176882, Note_on_c, 9, 42, 0
1, 177000, Note_on_c, 9, 46, 58
1, 177002, Note_on_c, 9, 46, 0
1, 177119, Note_on_c, 9, 36, 0
1, 177120, Note_on_c, 9, 37, 127
1, 177120, Note_on_c, 9, 42, 74
1, 177122, Note_on_c, 9, 37, 0
1, 177122, Note_on_c, 9, 42, 0
1, 177240, Note_on_c, 9, 42, 67
1, 177242, Note_on_c, 9, 42, 0
1, 177360, Note_on_c, 9, 46, 84
1, 177366, Note_on_c, 9, 46, 0
1, 177600, Note_on_c, 9, 51, 84
1, 177600, Note_on_c, 9, 55, 65
1, 177600, Note_on_c, 9, 36, 93
1, 177613, Note_on_c, 9, 51, 0
1, 177613, Note_on_c, 9, 55, 0
1, 178079, Note_on_c, 9, 36, 0
1, 178080, Note_on_c, 9, 37, 127
1, 178080, Note_on_c, 9, 59, 90
1, 178080, Note_on_c, 9, 55, 65
1, 178086, Note_on_c, 9, 37, 0
1, 178086, Note_on_c, 9, 59, 0
1, 178086, Note_on_c, 9, 55, 0
1, 178320, Note_on_c, 9, 46, 74
1, 178326, Note_on_c, 9, 46, 0
1, 178560, Note_on_c, 9, 42, 70
1, 178560, Note_on_c, 9, 36, 93
1, 178566, Note_on_c, 9, 42, 0
1, 178800, Note_on_c, 9, 42, 46
1, 178806, Note_on_c, 9, 42, 0
1, 179039, Note_on_c, 9, 36, 0
1, 179040, Note_on_c, 9, 37, 127
1, 179040, Note_on_c, 9, 42, 66
1, 179046, Note_on_c, 9, 37, 0
1, 179046, Note_on_c, 9, 42, 0
1, 179280, Note_on_c, 9, 42, 62
1, 179282, Note_on_c, 9, 42, 0
1, 179400, Note_on_c, 9, 42, 65
1, 179402, Note_on_c, 9, 42, 0
1, 179520, Note_on_c, 9, 42, 70
1, 179520, Note_on_c, 9, 36, 93
1, 179526, Note_on_c, 9, 42, 0
1, 179760, Note_on_c, 9, 42, 62
1, 179766, Note_on_c, 9, 42, 0
1, 179999, Note_on_c, 9, 36, 0
1, 180000, Note_on_c, 9, 37, 127
1, 180000, Note_on_c, 9, 54, 127
1, 180000, Note_on_c, 9, 42, 61
1, 180006, Note_on_c, 9, 37, 0
1, 180006, Note_on_c, 9, 42, 0
1, 180239, Note_on_c, 9, 54, 0
1, 180240, Note_on_c, 9, 42, 61
1, 180242, Note_on_c, 9, 42, 0
1, 180360, Note_on_c, 9, 42, 63
1, 180362, Note_on_c, 9, 42, 0
1, 180480, Note_on_c, 9, 42, 67
1, 180480, Note_on_c, 9, 36, 93
1, 180486, Note_on_c, 9, 42, 0
1, 180720, Note_on_c, 9, 42, 56
1, 180726, Note_on_c, 9, 42, 0
1, 180959, Note_on_c, 9, 36, 0
1, 180960, Note_on_c, 9, 37, 127
1, 180960, Note_on_c, 9, 42, 66
1, 180966, Note_on_c, 9, 37, 0
1, 180966, Note_on_c, 9, 42, 0
1, 181200, Note_on_c, 9, 42, 62
1, 181206, Note_on_c, 9, 42, 0
1, 181440, Note_on_c, 9, 42, 70
1, 181440, Note_on_c, 9, 36, 93
1, 181442, Note_on_c, 9, 42, 0
1, 181560, Note_on_c, 9, 37, 127
1, 181562, Note_on_c, 9, 37, 0
1, 181680, Note_on_c, 9, 42, 63
1, 181682, Note_on_c, 9, 42, 0
1, 181800, Note_on_c, 9, 42, 63
1, 181802, Note_on_c, 9, 42, 0
1, 181919, Note_on_c, 9, 36, 0
1, 181920, Note_on_c, 9, 37, 127
1, 181920, Note_on_c, 9, 54, 127
1, 181922, Note_on_c, 9, 37, 0
1, 182039, Note_on_c, 9, 54, 0
1, 182040, Note_on_c, 9, 42, 72
1, 182042, Note_on_c, 9, 42, 0
1, 182160, Note_on_c, 9, 41, 84
1, 182399, Note_on_c, 9, 41, 0
1, 182400, Note_on_c, 9, 42, 67
1, 182400, Note_on_c, 9, 36, 93
1, 182406, Note_on_c, 9, 42, 0
1, 182640, Note_on_c, 9, 42, 62
1, 182646, Note_on_c, 9, 42, 0
1, 182879, Note_on_c, 9, 36, 0
1, 182880, Note_on_c, 9, 37, 127
1, 182880, Note_on_c, 9, 42, 78
1, 182886, Note_on_c, 9, 37, 0
1, 182886, Note_on_c, 9, 42, 0
1, 183120, Note_on_c, 9, 42, 59
1, 183122, Note_on_c, 9, 42, 0
1, 183240, Note_on_c, 9, 42, 67
1, 183242, Note_on_c, 9, 42, 0
1, 183360, Note_on_c, 9, 42, 70
1, 183360, Note_on_c, 9, 36, 93
1, 183366, Note_on_c, 9, 42, 0
1, 183600, Note_on_c, 9, 42, 58
1, 183606, Note_on_c, 9, 42, 0
1, 183839, Note_on_c, 9, 36, 0
1, 183840, Note_on_c, 9, 37, 127
1, 183840, Note_on_c, 9, 54, 127
1, 183840, Note_on_c, 9, 42, 70
1, 183846, Note_on_c, 9, 37, 0
1, 183846, Note_on_c, 9, 42, 0
1, 184079, Note_on_c, 9, 54, 0
1, 184080, Note_on_c, 9, 42, 74
1, 184082, Note_on_c, 9, 42, 0
1, 184200, Note_on_c, 9, 46, 84
1, 184202, Note_on_c, 9, 46, 0
1, 184320, Note_on_c, 9, 42, 67
1, 184320, Note_on_c, 9, 36, 93
1, 184326, Note_on_c, 9, 42, 0
1, 184560, Note_on_c, 9, 42, 55
1, 184566, Note_on_c, 9, 42, 0
1, 184799, Note_on_c, 9, 36, 0
1, 184800, Note_on_c, 9, 37, 127
1, 184800, Note_on_c, 9, 42, 74
1, 184806, Note_on_c, 9, 37, 0
1, 184806, Note_on_c, 9, 42, 0
1, 185040, Note_on_c, 9, 42, 60
1, 185042, Note_on_c, 9, 42, 0
1, 185160, Note_on_c, 9, 42, 67
1, 185162, Note_on_c, 9, 42, 0
1, 185280, Note_on_c, 9, 42, 61
1, 185280, Note_on_c, 9, 36, 93
1, 185286, Note_on_c, 9, 42, 0
1, 185520, Note_on_c, 9, 42, 74
1, 185526, Note_on_c, 9, 42, 0
1, 185639, Note_on_c, 9, 36, 0
1, 185640, Note_on_c, 9, 36, 75
1, 185759, Note_on_c, 9, 36, 0
1, 185760, Note_on_c, 9, 37, 127
1, 185760, Note_on_c, 9, 54, 127
1, 185760, Note_on_c, 9, 42, 74
1, 185766, Note_on_c, 9, 37, 0
1, 185766, Note_on_c, 9, 42, 0
1, 185999, Note_on_c, 9, 54, 0
1, 186000, Note_on_c, 9, 46, 74
1, 186006, Note_on_c, 9, 46, 0
1, 186240, Note_on_c, 9, 42, 70
1, 186240, Note_on_c, 9, 36, 93
1, 186246, Note_on_c, 9, 42, 0
1, 186480, Note_on_c, 9, 42, 46
1, 186486, Note_on_c, 9, 42, 0
1, 186719, Note_on_c, 9, 36, 0
1, 186720, Note_on_c, 9, 37, 127
1, 186720, Note_on_c, 9, 42, 66
1, 186726, Note_on_c, 9, 37, 0
1, 186726, Note_on_c, 9, 42, 0
1, 186960, Note_on_c, 9, 42, 62
1, 186962, Note_on_c, 9, 42, 0
1, 187080, Note_on_c, 9, 42, 65
1, 187082, Note_on_c, 9, 42, 0
1, 187200, Note_on_c, 9, 42, 70
1, 187200, Note_on_c, 9, 36, 93
1, 187206, Note_on_c, 9, 42, 0
1, 187440, Note_on_c, 9, 42, 62
1, 187446, Note_on_c, 9, 42, 0
1, 187679, Note_on_c, 9, 36, 0
1, 187680, Note_on_c, 9, 37, 127
1, 187680, Note_on_c, 9, 54, 127
1, 187680, Note_on_c, 9, 42, 61
1, 187686, Note_on_c, 9, 37, 0
1, 187686, Note_on_c, 9, 42, 0
1, 187919, Note_on_c, 9, 54, 0
1, 187920, Note_on_c, 9, 42, 61
1, 187922, Note_on_c, 9, 42, 0
1, 188040, Note_on_c, 9, 42, 63
1, 188042, Note_on_c, 9, 42, 0
1, 188160, Note_on_c, 9, 42, 67
1, 188160, Note_on_c, 9, 36, 93
1, 188166, Note_on_c, 9, 42, 0
1, 188400, Note_on_c, 9, 42, 56
1, 188406, Note_on_c, 9, 42, 0
1, 188639, Note_on_c, 9, 36, 0
1, 188640, Note_on_c, 9, 37, 127
1, 188640, Note_on_c, 9, 42, 66
1, 188646, Note_on_c, 9, 37, 0
1, 188646, Note_on_c, 9, 42, 0
1, 188880, Note_on_c, 9, 42, 62
1, 188882, Note_on_c, 9, 42, 0
1, 189000, Note_on_c, 9, 42, 65
1, 189002, Note_on_c, 9, 42, 0
1, 189120, Note_on_c, 9, 42, 70
1, 189120, Note_on_c, 9, 36, 93
1, 189122, Note_on_c, 9, 42, 0
1, 189240, Note_on_c, 9, 46, 81
1, 189242, Note_on_c, 9, 46, 0
1, 189360, Note_on_c, 9, 42, 61
1, 189366, Note_on_c, 9, 42, 0
1, 189599, Note_on_c, 9, 36, 0
1, 189600, Note_on_c, 9, 37, 127
1, 189600, Note_on_c, 9, 54, 127
1, 189600, Note_on_c, 9, 42, 61
1, 189606, Note_on_c, 9, 37, 0
1, 189606, Note_on_c, 9, 42, 0
1, 189839, Note_on_c, 9, 54, 0
1, 189840, Note_on_c, 9, 41, 84
1, 189840, Note_on_c, 9, 42, 54
1, 189846, Note_on_c, 9, 42, 0
1, 190079, Note_on_c, 9, 41, 0
1, 190080, Note_on_c, 9, 42, 59
1, 190080, Note_on_c, 9, 36, 93
1, 190086, Note_on_c, 9, 42, 0
1, 190320, Note_on_c, 9, 42, 62
1, 190326, Note_on_c, 9, 42, 0
1, 190559, Note_on_c, 9, 36, 0
1, 190560, Note_on_c, 9, 37, 127
1, 190560, Note_on_c, 9, 42, 78
1, 190566, Note_on_c, 9, 37, 0
1, 190566, Note_on_c, 9, 42, 0
1, 190800, Note_on_c, 9, 42, 59
1, 190802, Note_on_c, 9, 42, 0
1, 190920, Note_on_c, 9, 42, 67
1, 190922, Note_on_c, 9, 42, 0
1, 191040, Note_on_c, 9, 42, 70
1, 191040, Note_on_c, 9, 36, 93
1, 191046, Note_on_c, 9, 42, 0
1, 191280, Note_on_c, 9, 42, 58
1, 191286, Note_on_c, 9, 42, 0
1, 191519, Note_on_c, 9, 36, 0
1, 191520, Note_on_c, 9, 37, 127
1, 191520, Note_on_c, 9, 54, 127
1, 191520, Note_on_c, 9, 42, 70
1, 191526, Note_on_c, 9, 37, 0
1, 191526, Note_on_c, 9, 42, 0
1, 191759, Note_on_c, 9, 54, 0
1, 191760, Note_on_c, 9, 42, 74
1, 191762, Note_on_c, 9, 42, 0
1, 191880, Note_on_c, 9, 42, 67
1, 191882, Note_on_c, 9, 42, 0
1, 192000, Note_on_c, 9, 42, 67
1, 192000, Note_on_c, 9, 36, 93
1, 192006, Note_on_c, 9, 42, 0
1, 192240, Note_on_c, 9, 42, 67
1, 192242, Note_on_c, 9, 42, 0
1, 192360, Note_on_c, 9, 46, 58
1, 192362, Note_on_c, 9, 46, 0
1, 192479, Note_on_c, 9, 36, 0
1, 192480, Note_on_c, 9, 37, 127
1, 192480, Note_on_c, 9, 42, 74
1, 192482, Note_on_c, 9, 37, 0
1, 192482, Note_on_c, 9, 42, 0
1, 192600, Note_on_c, 9, 42, 67
1, 192602, Note_on_c, 9, 42, 0
1, 192720, Note_on_c, 9, 46, 84
1, 192726, Note_on_c, 9, 46, 0
1, 192960, Note_on_c, 9, 51, 84
1, 192960, Note_on_c, 9, 55, 65
1, 192960, Note_on_c, 9, 36, 93
1, 192973, Note_on_c, 9, 51, 0
1, 192973, Note_on_c, 9, 55, 0
1, 193439, Note_on_c, 9, 36, 0
1, 193440, Note_on_c, 9, 37, 127
1, 193440, Note_on_c, 9, 59, 90
1, 193440, Note_on_c, 9, 55, 65
1, 193453, Note_on_c, 9, 37, 0
1, 193453, Note_on_c, 9, 59, 0
1, 193453, Note_on_c, 9, 55, 0
1, 193454, End_track
0, 0, End_of_file
