0, 0, Header, 1, 1, 480
1, 0, Start_track
1, 0, Title_t, "Drumset"
1, 0, Time_signature, 4, 2, 24, 8
1, 0, Key_signature, 0, "major"
1, 0, Tempo, 625000
1, 0, Control_c, 9, 121, 0
1, 0, Program_c, 9, 0
1, 0, Control_c, 9, 7, 100
1, 0, Control_c, 9, 10, 64
1, 0, Control_c, 9, 91, 0
1, 0, Control_c, 9, 93, 0
1, 0, MIDI_port, 0
1, 11340, Note_on_c, 9, 40, 50
1, 11399, Note_on_c, 9, 40, 0
1, 11400, Note_on_c, 9, 40, 50
1, 11459, Note_on_c, 9, 40, 0
1, 11460, Note_on_c, 9, 40, 50
1, 11519, Note_on_c, 9, 40, 0
1, 11520, Note_on_c, 9, 36, 110
1, 11999, Note_on_c, 9, 36, 0
1, 12000, Note_on_c, 9, 40, 110
1, 12119, Note_on_c, 9, 40, 0
1, 12120, Note_on_c, 9, 40, 62
1, 12359, Note_on_c, 9, 40, 0
1, 12360, Note_on_c, 9, 40, 62
1, 12479, Note_on_c, 9, 40, 0
1, 12600, Note_on_c, 9, 40, 75
1, 12720, Note_on_c, 9, 36, 110
1, 12959, Note_on_c, 9, 40, 0
1, 12959, Note_on_c, 9, 36, 0
1, 12960, Note_on_c, 9, 40, 110
1, 13199, Note_on_c, 9, 40, 0
1, 13260, Note_on_c, 9, 40, 50
1, 13319, Note_on_c, 9, 40, 0
1, 13320, Note_on_c, 9, 40, 50
1, 13379, Note_on_c, 9, 40, 0
1, 13380, Note_on_c, 9, 40, 50
1, 13439, Note_on_c, 9, 40, 0
1, 13440, Note_on_c, 9, 36, 110
1, 13919, Note_on_c, 9, 36, 0
1, 13920, Note_on_c, 9, 40, 110
1, 14039, Note_on_c, 9, 40, 0
1, 14040, Note_on_c, 9, 40, 62
1, 14279, Note_on_c, 9, 40, 0
1, 14280, Note_on_c, 9, 40, 62
1, 14399, Note_on_c, 9, 40, 0
1, 14520, Note_on_c, 9, 40, 75
1, 14640, Note_on_c, 9, 36, 110
1, 14879, Note_on_c, 9, 40, 0
1, 14879, Note_on_c, 9, 36, 0
1, 14880, Note_on_c, 9, 40, 110
1, 15119, Note_on_c, 9, 40, 0
1, 15180, Note_on_c, 9, 40, 50
1, 15239, Note_on_c, 9, 40, 0
1, 15240, Note_on_c, 9, 40, 50
1, 15299, Note_on_c, 9, 40, 0
1, 15300, Note_on_c, 9, 40, 50
1, 15359, Note_on_c, 9, 40, 0
1, 15360, Note_on_c, 9, 36, 110
1, 15839, Note_on_c, 9, 36, 0
1, 15840, Note_on_c, 9, 40, 110
1, 15959, Note_on_c, 9, 40, 0
1, 15960, Note_on_c, 9, 40, 62
1, 16199, Note_on_c, 9, 40, 0
1, 16200, Note_on_c, 9, 40, 62
1, 16319, Note_on_c, 9, 40, 0
1, 16440, Note_on_c, 9, 40, 75
1, 16560, Note_on_c, 9, 36, 110
1, 16799, Note_on_c, 9, 40, 0
1, 16799, Note_on_c, 9, 36, 0
1, 16800, Note_on_c, 9, 40, 110
1, 17039, Note_on_c, 9, 40, 0
1, 17100, Note_on_c, 9, 40, 50
1, 17159, Note_on_c, 9, 40, 0
1, 17160, Note_on_c, 9, 40, 50
1, 17219, Note_on_c, 9, 40, 0
1, 17220, Note_on_c, 9, 40, 50
1, 17279, Note_on_c, 9, 40, 0
1, 17280, Note_on_c, 9, 36, 110
1, 17759, Note_on_c, 9, 36, 0
1, 17760, Note_on_c, 9, 40, 110
1, 17879, Note_on_c, 9, 40, 0
1, 17880, Note_on_c, 9, 40, 62
1, 18119, Note_on_c, 9, 40, 0
1, 18120, Note_on_c, 9, 40, 62
1, 18239, Note_on_c, 9, 40, 0
1, 18360, Note_on_c, 9, 40, 75
1, 18480, Note_on_c, 9, 36, 110
1, 18719, Note_on_c, 9, 40, 0
1, 18719, Note_on_c, 9, 36, 0
1, 18720, Note_on_c, 9, 40, 110
1, 19199, Note_on_c, 9, 40, 0
1, 19200, Note_on_c, 9, 36, 110
1, 19679, Note_on_c, 9, 36, 0
1, 19680, Note_on_c, 9, 40, 110
1, 19799, Note_on_c, 9, 40, 0
1, 19800, Note_on_c, 9, 40, 62
1, 20039, Note_on_c, 9, 40, 0
1, 20040, Note_on_c, 9, 40, 62
1, 20159, Note_on_c, 9, 40, 0
1, 20280, Note_on_c, 9, 40, 75
1, 20400, Note_on_c, 9, 36, 110
1, 20639, Note_on_c, 9, 40, 0
1, 20639, Note_on_c, 9, 36, 0
1, 20640, Note_on_c, 9, 40, 110
1, 20879, Note_on_c, 9, 40, 0
1, 20940, Note_on_c, 9, 40, 50
1, 20999, Note_on_c, 9, 40, 0
1, 21000, Note_on_c, 9, 40, 50
1, 21059, Note_on_c, 9, 40, 0
1, 21060, Note_on_c, 9, 40, 50
1, 21119, Note_on_c, 9, 40, 0
1, 21120, Note_on_c, 9, 36, 110
1, 21599, Note_on_c, 9, 36, 0
1, 21600, Note_on_c, 9, 40, 110
1, 21719, Note_on_c, 9, 40, 0
1, 21720, Note_on_c, 9, 40, 62
1, 21959, Note_on_c, 9, 40, 0
1, 21960, Note_on_c, 9, 40, 62
1, 22079, Note_on_c, 9, 40, 0
1, 22200, Note_on_c, 9, 40, 75
1, 22320, Note_on_c, 9, 36, 110
1, 22559, Note_on_c, 9, 40, 0
1, 22559, Note_on_c, 9, 36, 0
1, 22560, Note_on_c, 9, 40, 110
1, 22799, Note_on_c, 9, 40, 0
1, 22860, Note_on_c, 9, 40, 50
1, 22919, Note_on_c, 9, 40, 0
1, 22920, Note_on_c, 9, 40, 50
1, 22979, Note_on_c, 9, 40, 0
1, 22980, Note_on_c, 9, 40, 50
1, 23039, Note_on_c, 9, 40, 0
1, 23040, Note_on_c, 9, 36, 110
1, 23519, Note_on_c, 9, 36, 0
1, 23520, Note_on_c, 9, 40, 110
1, 23639, Note_on_c, 9, 40, 0
1, 23640, Note_on_c, 9, 40, 62
1, 23879, Note_on_c, 9, 40, 0
1, 23880, Note_on_c, 9, 40, 62
1, 23999, Note_on_c, 9, 40, 0
1, 24120, Note_on_c, 9, 40, 75
1, 24240, Note_on_c, 9, 36, 110
1, 24479, Note_on_c, 9, 40, 0
1, 24479, Note_on_c, 9, 36, 0
1, 24480, Note_on_c, 9, 40, 110
1, 24719, Note_on_c, 9, 40, 0
1, 24780, Note_on_c, 9, 40, 50
1, 24839, Note_on_c, 9, 40, 0
1, 24840, Note_on_c, 9, 40, 50
1, 24899, Note_on_c, 9, 40, 0
1, 24900, Note_on_c, 9, 40, 50
1, 24959, Note_on_c, 9, 40, 0
1, 24960, Note_on_c, 9, 36, 110
1, 25439, Note_on_c, 9, 36, 0
1, 25440, Note_on_c, 9, 40, 110
1, 25559, Note_on_c, 9, 40, 0
1, 25560, Note_on_c, 9, 40, 62
1, 25799, Note_on_c, 9, 40, 0
1, 25800, Note_on_c, 9, 40, 62
1, 25919, Note_on_c, 9, 40, 0
1, 26040, Note_on_c, 9, 40, 75
1, 26160, Note_on_c, 9, 36, 110
1, 26399, Note_on_c, 9, 40, 0
1, 26399, Note_on_c, 9, 36, 0
1, 26400, Note_on_c, 9, 40, 110
1, 26879, Note_on_c, 9, 40, 0
1, 26880, Note_on_c, 9, 36, 110
1, 27359, Note_on_c, 9, 36, 0
1, 27360, Note_on_c, 9, 40, 110
1, 27839, Note_on_c, 9, 40, 0
1, 27840, Note_on_c, 9, 36, 110
1, 28319, Note_on_c, 9, 36, 0
1, 28320, Note_on_c, 9, 40, 110
1, 28799, Note_on_c, 9, 40, 0
1, 28800, Note_on_c, 9, 36, 110
1, 29279, Note_on_c, 9, 36, 0
1, 29280, Note_on_c, 9, 40, 110
1, 29759, Note_on_c, 9, 40, 0
1, 29760, Note_on_c, 9, 36, 110
1, 30239, Note_on_c, 9, 36, 0
1, 30240, Note_on_c, 9, 40, 110
1, 30719, Note_on_c, 9, 40, 0
1, 30720, Note_on_c, 9, 36, 110
1, 31199, Note_on_c, 9, 36, 0
1, 31200, Note_on_c, 9, 40, 110
1, 31319, Note_on_c, 9, 40, 0
1, 31320, Note_on_c, 9, 40, 62
1, 31559, Note_on_c, 9, 40, 0
1, 31560, Note_on_c, 9, 40, 62
1, 31679, Note_on_c, 9, 40, 0
1, 31800, Note_on_c, 9, 40, 75
1, 31920, Note_on_c, 9, 36, 110
1, 32159, Note_on_c, 9, 40, 0
1, 32159, Note_on_c, 9, 36, 0
1, 32160, Note_on_c, 9, 40, 110
1, 32399, Note_on_c, 9, 40, 0
1, 32460, Note_on_c, 9, 40, 50
1, 32519, Note_on_c, 9, 40, 0
1, 32520, Note_on_c, 9, 40, 50
1, 32579, Note_on_c, 9, 40, 0
1, 32580, Note_on_c, 9, 40, 50
1, 32639, Note_on_c, 9, 40, 0
1, 32640, Note_on_c, 9, 36, 110
1, 33119, Note_on_c, 9, 36, 0
1, 33120, Note_on_c, 9, 40, 110
1, 33239, Note_on_c, 9, 40, 0
1, 33240, Note_on_c, 9, 40, 62
1, 33479, Note_on_c, 9, 40, 0
1, 33480, Note_on_c, 9, 40, 62
1, 33599, Note_on_c, 9, 40, 0
1, 33720, Note_on_c, 9, 40, 75
1, 33840, Note_on_c, 9, 36, 110
1, 34079, Note_on_c, 9, 40, 0
1, 34079, Note_on_c, 9, 36, 0
1, 34080, Note_on_c, 9, 40, 110
1, 34319, Note_on_c, 9, 40, 0
1, 34380, Note_on_c, 9, 40, 50
1, 34439, Note_on_c, 9, 40, 0
1, 34440, Note_on_c, 9, 40, 50
1, 34499, Note_on_c, 9, 40, 0
1, 34500, Note_on_c, 9, 40, 50
1, 34559, Note_on_c, 9, 40, 0
1, 34560, Note_on_c, 9, 36, 110
1, 35039, Note_on_c, 9, 36, 0
1, 35040, Note_on_c, 9, 40, 110
1, 35159, Note_on_c, 9, 40, 0
1, 35160, Note_on_c, 9, 40, 62
1, 35399, Note_on_c, 9, 40, 0
1, 35400, Note_on_c, 9, 40, 62
1, 35519, Note_on_c, 9, 40, 0
1, 35640, Note_on_c, 9, 40, 75
1, 35760, Note_on_c, 9, 36, 110
1, 35999, Note_on_c, 9, 40, 0
1, 35999, Note_on_c, 9, 36, 0
1, 36000, Note_on_c, 9, 40, 110
1, 36239, Note_on_c, 9, 40, 0
1, 36300, Note_on_c, 9, 40, 50
1, 36359, Note_on_c, 9, 40, 0
1, 36360, Note_on_c, 9, 40, 50
1, 36419, Note_on_c, 9, 40, 0
1, 36420, Note_on_c, 9, 40, 50
1, 36479, Note_on_c, 9, 40, 0
1, 36480, Note_on_c, 9, 36, 110
1, 36959, Note_on_c, 9, 36, 0
1, 36960, Note_on_c, 9, 40, 110
1, 37079, Note_on_c, 9, 40, 0
1, 37080, Note_on_c, 9, 40, 62
1, 37319, Note_on_c, 9, 40, 0
1, 37320, Note_on_c, 9, 40, 62
1, 37439, Note_on_c, 9, 40, 0
1, 37560, Note_on_c, 9, 40, 75
1, 37680, Note_on_c, 9, 36, 110
1, 37919, Note_on_c, 9, 40, 0
1, 37919, Note_on_c, 9, 36, 0
1, 37920, Note_on_c, 9, 40, 110
1, 38159, Note_on_c, 9, 40, 0
1, 38220, Note_on_c, 9, 40, 50
1, 38279, Note_on_c, 9, 40, 0
1, 38280, Note_on_c, 9, 40, 50
1, 38339, Note_on_c, 9, 40, 0
1, 38340, Note_on_c, 9, 40, 50
1, 38399, Note_on_c, 9, 40, 0
1, 38400, Note_on_c, 9, 36, 110
1, 38879, Note_on_c, 9, 36, 0
1, 38880, Note_on_c, 9, 40, 110
1, 38999, Note_on_c, 9, 40, 0
1, 39000, Note_on_c, 9, 40, 62
1, 39239, Note_on_c, 9, 40, 0
1, 39240, Note_on_c, 9, 40, 62
1, 39359, Note_on_c, 9, 40, 0
1, 39480, Note_on_c, 9, 40, 75
1, 39600, Note_on_c, 9, 36, 110
1, 39839, Note_on_c, 9, 40, 0
1, 39839, Note_on_c, 9, 36, 0
1, 39840, Note_on_c, 9, 40, 110
1, 40079, Note_on_c, 9, 40, 0
1, 40140, Note_on_c, 9, 40, 50
1, 40199, Note_on_c, 9, 40, 0
1, 40200, Note_on_c, 9, 40, 50
1, 40259, Note_on_c, 9, 40, 0
1, 40260, Note_on_c, 9, 40, 50
1, 40319, Note_on_c, 9, 40, 0
1, 40320, Note_on_c, 9, 36, 110
1, 40799, Note_on_c, 9, 36, 0
1, 40800, Note_on_c, 9, 40, 110
1, 40919, Note_on_c, 9, 40, 0
1, 40920, Note_on_c, 9, 40, 62
1, 41159, Note_on_c, 9, 40, 0
1, 41160, Note_on_c, 9, 40, 62
1, 41279, Note_on_c, 9, 40, 0
1, 41400, Note_on_c, 9, 40, 75
1, 41520, Note_on_c, 9, 36, 110
1, 41759, Note_on_c, 9, 40, 0
1, 41759, Note_on_c, 9, 36, 0
1, 41760, Note_on_c, 9, 40, 110
1, 41999, Note_on_c, 9, 40, 0
1, 42060, Note_on_c, 9, 40, 50
1, 42119, Note_on_c, 9, 40, 0
1, 42120, Note_on_c, 9, 40, 50
1, 42179, Note_on_c, 9, 40, 0
1, 42180, Note_on_c, 9, 40, 50
1, 42239, Note_on_c, 9, 40, 0
1, 42240, Note_on_c, 9, 36, 110
1, 42719, Note_on_c, 9, 36, 0
1, 42720, Note_on_c, 9, 40, 110
1, 42839, Note_on_c, 9, 40, 0
1, 42840, Note_on_c, 9, 40, 62
1, 43079, Note_on_c, 9, 40, 0
1, 43080, Note_on_c, 9, 40, 62
1, 43199, Note_on_c, 9, 40, 0
1, 43320, Note_on_c, 9, 40, 75
1, 43440, Note_on_c, 9, 36, 110
1, 43679, Note_on_c, 9, 40, 0
1, 43679, Note_on_c, 9, 36, 0
1, 43680, Note_on_c, 9, 40, 110
1, 43919, Note_on_c, 9, 40, 0
1, 43980, Note_on_c, 9, 40, 50
1, 44039, Note_on_c, 9, 40, 0
1, 44040, Note_on_c, 9, 40, 50
1, 44099, Note_on_c, 9, 40, 0
1, 44100, Note_on_c, 9, 40, 50
1, 44159, Note_on_c, 9, 40, 0
1, 44160, Note_on_c, 9, 36, 110
1, 44639, Note_on_c, 9, 36, 0
1, 44640, Note_on_c, 9, 40, 110
1, 44759, Note_on_c, 9, 40, 0
1, 44760, Note_on_c, 9, 40, 62
1, 44999, Note_on_c, 9, 40, 0
1, 45000, Note_on_c, 9, 40, 62
1, 45119, Note_on_c, 9, 40, 0
1, 45240, Note_on_c, 9, 40, 75
1, 45360, Note_on_c, 9, 36, 110
1, 45599, Note_on_c, 9, 40, 0
1, 45599, Note_on_c, 9, 36, 0
1, 45600, Note_on_c, 9, 40, 110
1, 46079, Note_on_c, 9, 40, 0
1, 46080, Note_on_c, 9, 36, 110
1, 46559, Note_on_c, 9, 36, 0
1, 46560, Note_on_c, 9, 40, 110
1, 47039, Note_on_c, 9, 40, 0
1, 47040, Note_on_c, 9, 36, 110
1, 47519, Note_on_c, 9, 36, 0
1, 47520, Note_on_c, 9, 40, 110
1, 47999, Note_on_c, 9, 40, 0
1, 48000, Note_on_c, 9, 36, 110
1, 48479, Note_on_c, 9, 36, 0
1, 48480, Note_on_c, 9, 40, 110
1, 48959, Note_on_c, 9, 40, 0
1, 48960, Note_on_c, 9, 36, 110
1, 49320, Note_on_c, 9, 40, 107
1, 49439, Note_on_c, 9, 36, 0
1, 49439, Note_on_c, 9, 40, 0
1, 49440, Note_on_c, 9, 40, 127
1, 49680, Note_on_c, 9, 36, 100
1, 49919, Note_on_c, 9, 40, 0
1, 49919, Note_on_c, 9, 36, 0
1, 49920, Note_on_c, 9, 36, 110
1, 50399, Note_on_c, 9, 36, 0
1, 50400, Note_on_c, 9, 40, 118
1, 50519, Note_on_c, 9, 40, 0
1, 50520, Note_on_c, 9, 40, 62
1, 50640, Note_on_c, 9, 36, 100
1, 50759, Note_on_c, 9, 40, 0
1, 50760, Note_on_c, 9, 40, 119
1, 50879, Note_on_c, 9, 36, 0
1, 50879, Note_on_c, 9, 40, 0
1, 50880, Note_on_c, 9, 36, 100
1, 51000, Note_on_c, 9, 40, 110
1, 51119, Note_on_c, 9, 36, 0
1, 51120, Note_on_c, 9, 36, 110
1, 51359, Note_on_c, 9, 40, 0
1, 51359, Note_on_c, 9, 36, 0
1, 51360, Note_on_c, 9, 40, 118
1, 51599, Note_on_c, 9, 40, 0
1, 51660, Note_on_c, 9, 40, 50
1, 51719, Note_on_c, 9, 40, 0
1, 51720, Note_on_c, 9, 40, 50
1, 51779, Note_on_c, 9, 40, 0
1, 51780, Note_on_c, 9, 40, 50
1, 51839, Note_on_c, 9, 40, 0
1, 51840, Note_on_c, 9, 36, 110
1, 52319, Note_on_c, 9, 36, 0
1, 52320, Note_on_c, 9, 40, 118
1, 52439, Note_on_c, 9, 40, 0
1, 52440, Note_on_c, 9, 40, 62
1, 52560, Note_on_c, 9, 36, 100
1, 52679, Note_on_c, 9, 40, 0
1, 52680, Note_on_c, 9, 40, 119
1, 52799, Note_on_c, 9, 36, 0
1, 52799, Note_on_c, 9, 40, 0
1, 52800, Note_on_c, 9, 36, 100
1, 52920, Note_on_c, 9, 40, 110
1, 53039, Note_on_c, 9, 36, 0
1, 53040, Note_on_c, 9, 36, 110
1, 53279, Note_on_c, 9, 40, 0
1, 53279, Note_on_c, 9, 36, 0
1, 53280, Note_on_c, 9, 40, 118
1, 53519, Note_on_c, 9, 40, 0
1, 53580, Note_on_c, 9, 40, 50
1, 53639, Note_on_c, 9, 40, 0
1, 53640, Note_on_c, 9, 40, 50
1, 53699, Note_on_c, 9, 40, 0
1, 53700, Note_on_c, 9, 40, 50
1, 53759, Note_on_c, 9, 40, 0
1, 53760, Note_on_c, 9, 36, 110
1, 54239, Note_on_c, 9, 36, 0
1, 54240, Note_on_c, 9, 40, 118
1, 54359, Note_on_c, 9, 40, 0
1, 54360, Note_on_c, 9, 40, 62
1, 54480, Note_on_c, 9, 36, 100
1, 54599, Note_on_c, 9, 40, 0
1, 54600, Note_on_c, 9, 40, 119
1, 54719, Note_on_c, 9, 36, 0
1, 54719, Note_on_c, 9, 40, 0
1, 54720, Note_on_c, 9, 36, 100
1, 54840, Note_on_c, 9, 40, 110
1, 54959, Note_on_c, 9, 36, 0
1, 54960, Note_on_c, 9, 36, 110
1, 55199, Note_on_c, 9, 40, 0
1, 55199, Note_on_c, 9, 36, 0
1, 55200, Note_on_c, 9, 40, 118
1, 55439, Note_on_c, 9, 40, 0
1, 55500, Note_on_c, 9, 40, 50
1, 55559, Note_on_c, 9, 40, 0
1, 55560, Note_on_c, 9, 40, 50
1, 55619, Note_on_c, 9, 40, 0
1, 55620, Note_on_c, 9, 40, 50
1, 55679, Note_on_c, 9, 40, 0
1, 55680, Note_on_c, 9, 36, 110
1, 56159, Note_on_c, 9, 36, 0
1, 56160, Note_on_c, 9, 40, 118
1, 56279, Note_on_c, 9, 40, 0
1, 56280, Note_on_c, 9, 40, 62
1, 56400, Note_on_c, 9, 36, 100
1, 56519, Note_on_c, 9, 40, 0
1, 56520, Note_on_c, 9, 40, 119
1, 56639, Note_on_c, 9, 36, 0
1, 56639, Note_on_c, 9, 40, 0
1, 56640, Note_on_c, 9, 36, 100
1, 56760, Note_on_c, 9, 40, 110
1, 56879, Note_on_c, 9, 36, 0
1, 56880, Note_on_c, 9, 36, 110
1, 57119, Note_on_c, 9, 40, 0
1, 57119, Note_on_c, 9, 36, 0
1, 57120, Note_on_c, 9, 40, 118
1, 57359, Note_on_c, 9, 40, 0
1, 57420, Note_on_c, 9, 40, 50
1, 57479, Note_on_c, 9, 40, 0
1, 57480, Note_on_c, 9, 40, 50
1, 57539, Note_on_c, 9, 40, 0
1, 57540, Note_on_c, 9, 40, 50
1, 57599, Note_on_c, 9, 40, 0
1, 57600, Note_on_c, 9, 36, 110
1, 58079, Note_on_c, 9, 36, 0
1, 58080, Note_on_c, 9, 40, 118
1, 58199, Note_on_c, 9, 40, 0
1, 58200, Note_on_c, 9, 40, 62
1, 58320, Note_on_c, 9, 36, 100
1, 58439, Note_on_c, 9, 40, 0
1, 58440, Note_on_c, 9, 40, 119
1, 58559, Note_on_c, 9, 36, 0
1, 58559, Note_on_c, 9, 40, 0
1, 58560, Note_on_c, 9, 36, 100
1, 58680, Note_on_c, 9, 40, 110
1, 58799, Note_on_c, 9, 36, 0
1, 58800, Note_on_c, 9, 36, 110
1, 59039, Note_on_c, 9, 40, 0
1, 59039, Note_on_c, 9, 36, 0
1, 59040, Note_on_c, 9, 40, 118
1, 59279, Note_on_c, 9, 40, 0
1, 59340, Note_on_c, 9, 40, 50
1, 59399, Note_on_c, 9, 40, 0
1, 59400, Note_on_c, 9, 40, 50
1, 59459, Note_on_c, 9, 40, 0
1, 59460, Note_on_c, 9, 40, 50
1, 59519, Note_on_c, 9, 40, 0
1, 59520, Note_on_c, 9, 36, 110
1, 59999, Note_on_c, 9, 36, 0
1, 60000, Note_on_c, 9, 40, 118
1, 60119, Note_on_c, 9, 40, 0
1, 60120, Note_on_c, 9, 40, 62
1, 60240, Note_on_c, 9, 36, 100
1, 60359, Note_on_c, 9, 40, 0
1, 60360, Note_on_c, 9, 40, 119
1, 60479, Note_on_c, 9, 36, 0
1, 60479, Note_on_c, 9, 40, 0
1, 60480, Note_on_c, 9, 36, 100
1, 60600, Note_on_c, 9, 40, 110
1, 60719, Note_on_c, 9, 36, 0
1, 60720, Note_on_c, 9, 36, 110
1, 60959, Note_on_c, 9, 40, 0
1, 60959, Note_on_c, 9, 36, 0
1, 60960, Note_on_c, 9, 40, 118
1, 61199, Note_on_c, 9, 40, 0
1, 61260, Note_on_c, 9, 40, 50
1, 61319, Note_on_c, 9, 40, 0
1, 61320, Note_on_c, 9, 40, 50
1, 61379, Note_on_c, 9, 40, 0
1, 61380, Note_on_c, 9, 40, 50
1, 61439, Note_on_c, 9, 40, 0
1, 61440, Note_on_c, 9, 36, 110
1, 61919, Note_on_c, 9, 36, 0
1, 61920, Note_on_c, 9, 40, 118
1, 62039, Note_on_c, 9, 40, 0
1, 62040, Note_on_c, 9, 40, 62
1, 62160, Note_on_c, 9, 36, 100
1, 62279, Note_on_c, 9, 40, 0
1, 62280, Note_on_c, 9, 40, 119
1, 62399, Note_on_c, 9, 36, 0
1, 62399, Note_on_c, 9, 40, 0
1, 62400, Note_on_c, 9, 36, 100
1, 62520, Note_on_c, 9, 40, 110
1, 62639, Note_on_c, 9, 36, 0
1, 62640, Note_on_c, 9, 36, 110
1, 62879, Note_on_c, 9, 40, 0
1, 62879, Note_on_c, 9, 36, 0
1, 62880, Note_on_c, 9, 40, 118
1, 63119, Note_on_c, 9, 40, 0
1, 63180, Note_on_c, 9, 40, 50
1, 63239, Note_on_c, 9, 40, 0
1, 63240, Note_on_c, 9, 40, 50
1, 63299, Note_on_c, 9, 40, 0
1, 63300, Note_on_c, 9, 40, 50
1, 63359, Note_on_c, 9, 40, 0
1, 63360, Note_on_c, 9, 36, 110
1, 63839, Note_on_c, 9, 36, 0
1, 63840, Note_on_c, 9, 40, 118
1, 63959, Note_on_c, 9, 40, 0
1, 63960, Note_on_c, 9, 40, 62
1, 64080, Note_on_c, 9, 36, 100
1, 64199, Note_on_c, 9, 40, 0
1, 64200, Note_on_c, 9, 40, 119
1, 64319, Note_on_c, 9, 36, 0
1, 64319, Note_on_c, 9, 40, 0
1, 64320, Note_on_c, 9, 36, 100
1, 64440, Note_on_c, 9, 40, 110
1, 64559, Note_on_c, 9, 36, 0
1, 64560, Note_on_c, 9, 36, 110
1, 64799, Note_on_c, 9, 40, 0
1, 64799, Note_on_c, 9, 36, 0
1, 64800, Note_on_c, 9, 40, 118
1, 65039, Note_on_c, 9, 40, 0
1, 65100, Note_on_c, 9, 40, 50
1, 65159, Note_on_c, 9, 40, 0
1, 65160, Note_on_c, 9, 40, 50
1, 65219, Note_on_c, 9, 40, 0
1, 65220, Note_on_c, 9, 40, 50
1, 65279, Note_on_c, 9, 40, 0
1, 65280, Note_on_c, 9, 36, 110
1, 65759, Note_on_c, 9, 36, 0
1, 65760, Note_on_c, 9, 40, 118
1, 65879, Note_on_c, 9, 40, 0
1, 65880, Note_on_c, 9, 40, 62
1, 66000, Note_on_c, 9, 36, 100
1, 66119, Note_on_c, 9, 40, 0
1, 66120, Note_on_c, 9, 40, 119
1, 66239, Note_on_c, 9, 36, 0
1, 66239, Note_on_c, 9, 40, 0
1, 66240, Note_on_c, 9, 36, 100
1, 66360, Note_on_c, 9, 40, 110
1, 66479, Note_on_c, 9, 36, 0
1, 66480, Note_on_c, 9, 36, 110
1, 66719, Note_on_c, 9, 40, 0
1, 66719, Note_on_c, 9, 36, 0
1, 66720, Note_on_c, 9, 40, 118
1, 66959, Note_on_c, 9, 40, 0
1, 67020, Note_on_c, 9, 40, 50
1, 67079, Note_on_c, 9, 40, 0
1, 67080, Note_on_c, 9, 40, 50
1, 67139, Note_on_c, 9, 40, 0
1, 67140, Note_on_c, 9, 40, 50
1, 67199, Note_on_c, 9, 40, 0
1, 67200, Note_on_c, 9, 36, 110
1, 67679, Note_on_c, 9, 36, 0
1, 67680, Note_on_c, 9, 40, 118
1, 67799, Note_on_c, 9, 40, 0
1, 67800, Note_on_c, 9, 40, 62
1, 67920, Note_on_c, 9, 36, 100
1, 68039, Note_on_c, 9, 40, 0
1, 68040, Note_on_c, 9, 40, 119
1, 68159, Note_on_c, 9, 36, 0
1, 68159, Note_on_c, 9, 40, 0
1, 68160, Note_on_c, 9, 36, 100
1, 68280, Note_on_c, 9, 40, 110
1, 68399, Note_on_c, 9, 36, 0
1, 68400, Note_on_c, 9, 36, 110
1, 68639, Note_on_c, 9, 40, 0
1, 68639, Note_on_c, 9, 36, 0
1, 68640, Note_on_c, 9, 40, 118
1, 68879, Note_on_c, 9, 40, 0
1, 68940, Note_on_c, 9, 40, 50
1, 68999, Note_on_c, 9, 40, 0
1, 69000, Note_on_c, 9, 40, 50
1, 69059, Note_on_c, 9, 40, 0
1, 69060, Note_on_c, 9, 40, 50
1, 69119, Note_on_c, 9, 40, 0
1, 69120, Note_on_c, 9, 36, 110
1, 69599, Note_on_c, 9, 36, 0
1, 69600, Note_on_c, 9, 40, 118
1, 69719, Note_on_c, 9, 40, 0
1, 69720, Note_on_c, 9, 40, 62
1, 69840, Note_on_c, 9, 36, 100
1, 69959, Note_on_c, 9, 40, 0
1, 69960, Note_on_c, 9, 40, 119
1, 70079, Note_on_c, 9, 36, 0
1, 70079, Note_on_c, 9, 40, 0
1, 70080, Note_on_c, 9, 36, 100
1, 70200, Note_on_c, 9, 40, 110
1, 70319, Note_on_c, 9, 36, 0
1, 70320, Note_on_c, 9, 36, 110
1, 70559, Note_on_c, 9, 40, 0
1, 70559, Note_on_c, 9, 36, 0
1, 70560, Note_on_c, 9, 40, 118
1, 70799, Note_on_c, 9, 40, 0
1, 70860, Note_on_c, 9, 40, 50
1, 70919, Note_on_c, 9, 40, 0
1, 70920, Note_on_c, 9, 40, 50
1, 70979, Note_on_c, 9, 40, 0
1, 70980, Note_on_c, 9, 40, 50
1, 71039, Note_on_c, 9, 40, 0
1, 71040, Note_on_c, 9, 36, 110
1, 71519, Note_on_c, 9, 36, 0
1, 71520, Note_on_c, 9, 40, 118
1, 71639, Note_on_c, 9, 40, 0
1, 71640, Note_on_c, 9, 40, 62
1, 71760, Note_on_c, 9, 36, 123
1, 71999, Note_on_c, 9, 40, 0
1, 71999, Note_on_c, 9, 36, 0
1, 72000, Note_on_c, 9, 36, 123
1, 72240, Note_on_c, 9, 40, 100
1, 72359, Note_on_c, 9, 40, 0
1, 72360, Note_on_c, 9, 40, 103
1, 72479, Note_on_c, 9, 36, 0
1, 72479, Note_on_c, 9, 40, 0
1, 72480, Note_on_c, 9, 40, 107
1, 72599, Note_on_c, 9, 40, 0
1, 72600, Note_on_c, 9, 40, 110
1, 72719, Note_on_c, 9, 40, 0
1, 72720, Note_on_c, 9, 40, 114
1, 72839, Note_on_c, 9, 40, 0
1, 72840, Note_on_c, 9, 40, 117
1, 72959, Note_on_c, 9, 40, 0
1, 72960, Note_on_c, 9, 36, 110
1, 73439, Note_on_c, 9, 36, 0
1, 73440, Note_on_c, 9, 40, 118
1, 73919, Note_on_c, 9, 40, 0
1, 73920, Note_on_c, 9, 36, 100
1, 74399, Note_on_c, 9, 36, 0
1, 74400, Note_on_c, 9, 40, 118
1, 74639, Note_on_c, 9, 40, 0
1, 74700, Note_on_c, 9, 40, 60
1, 74759, Note_on_c, 9, 40, 0
1, 74760, Note_on_c, 9, 40, 60
1, 74819, Note_on_c, 9, 40, 0
1, 74820, Note_on_c, 9, 40, 60
1, 74879, Note_on_c, 9, 40, 0
1, 74880, Note_on_c, 9, 36, 110
1, 75359, Note_on_c, 9, 36, 0
1, 75360, Note_on_c, 9, 40, 118
1, 75599, Note_on_c, 9, 40, 0
1, 75660, Note_on_c, 9, 40, 60
1, 75719, Note_on_c, 9, 40, 0
1, 75720, Note_on_c, 9, 40, 60
1, 75779, Note_on_c, 9, 40, 0
1, 75780, Note_on_c, 9, 40, 60
1, 75839, Note_on_c, 9, 40, 0
1, 75840, Note_on_c, 9, 36, 100
1, 76319, Note_on_c, 9, 36, 0
1, 76320, Note_on_c, 9, 40, 118
1, 76559, Note_on_c, 9, 40, 0
1, 76620, Note_on_c, 9, 40, 60
1, 76679, Note_on_c, 9, 40, 0
1, 76680, Note_on_c, 9, 40, 60
1, 76739, Note_on_c, 9, 40, 0
1, 76740, Note_on_c, 9, 40, 60
1, 76799, Note_on_c, 9, 40, 0
1, 76800, Note_on_c, 9, 36, 110
1, 77279, Note_on_c, 9, 36, 0
1, 77280, Note_on_c, 9, 40, 118
1, 77519, Note_on_c, 9, 40, 0
1, 77580, Note_on_c, 9, 40, 60
1, 77639, Note_on_c, 9, 40, 0
1, 77640, Note_on_c, 9, 40, 60
1, 77699, Note_on_c, 9, 40, 0
1, 77700, Note_on_c, 9, 40, 60
1, 77759, Note_on_c, 9, 40, 0
1, 77760, Note_on_c, 9, 40, 100
1, 77999, Note_on_c, 9, 40, 0
1, 78000, Note_on_c, 9, 55, 68
1, 78000, Note_on_c, 9, 36, 100
1, 78008, Note_on_c, 9, 55, 0
1, 78239, Note_on_c, 9, 36, 0
1, 78240, Note_on_c, 9, 55, 92
1, 78240, Note_on_c, 9, 36, 100
1, 78248, Note_on_c, 9, 55, 0
1, 78479, Note_on_c, 9, 36, 0
1, 78480, Note_on_c, 9, 55, 112
1, 78480, Note_on_c, 9, 36, 100
1, 78488, Note_on_c, 9, 55, 0
1, 78719, Note_on_c, 9, 36, 0
1, 80460, Note_on_c, 9, 40, 50
1, 80519, Note_on_c, 9, 40, 0
1, 80520, Note_on_c, 9, 40, 50
1, 80579, Note_on_c, 9, 40, 0
1, 80580, Note_on_c, 9, 40, 50
1, 80639, Note_on_c, 9, 40, 0
1, 80640, Note_on_c, 9, 36, 110
1, 81119, Note_on_c, 9, 36, 0
1, 81120, Note_on_c, 9, 40, 110
1, 81239, Note_on_c, 9, 40, 0
1, 81240, Note_on_c, 9, 40, 62
1, 81479, Note_on_c, 9, 40, 0
1, 81480, Note_on_c, 9, 40, 62
1, 81599, Note_on_c, 9, 40, 0
1, 81720, Note_on_c, 9, 40, 75
1, 81840, Note_on_c, 9, 36, 110
1, 82079, Note_on_c, 9, 40, 0
1, 82079, Note_on_c, 9, 36, 0
1, 82080, Note_on_c, 9, 40, 110
1, 82319, Note_on_c, 9, 40, 0
1, 82380, Note_on_c, 9, 40, 50
1, 82439, Note_on_c, 9, 40, 0
1, 82440, Note_on_c, 9, 40, 50
1, 82499, Note_on_c, 9, 40, 0
1, 82500, Note_on_c, 9, 40, 50
1, 82559, Note_on_c, 9, 40, 0
1, 82560, Note_on_c, 9, 36, 110
1, 83039, Note_on_c, 9, 36, 0
1, 83040, Note_on_c, 9, 40, 110
1, 83159, Note_on_c, 9, 40, 0
1, 83160, Note_on_c, 9, 40, 62
1, 83399, Note_on_c, 9, 40, 0
1, 83400, Note_on_c, 9, 40, 62
1, 83519, Note_on_c, 9, 40, 0
1, 83640, Note_on_c, 9, 40, 75
1, 83760, Note_on_c, 9, 36, 110
1, 83999, Note_on_c, 9, 40, 0
1, 83999, Note_on_c, 9, 36, 0
1, 84000, Note_on_c, 9, 40, 110
1, 84239, Note_on_c, 9, 40, 0
1, 84300, Note_on_c, 9, 40, 50
1, 84359, Note_on_c, 9, 40, 0
1, 84360, Note_on_c, 9, 40, 50
1, 84419, Note_on_c, 9, 40, 0
1, 84420, Note_on_c, 9, 40, 50
1, 84479, Note_on_c, 9, 40, 0
1, 84480, Note_on_c, 9, 36, 110
1, 84959, Note_on_c, 9, 36, 0
1, 84960, Note_on_c, 9, 40, 110
1, 85079, Note_on_c, 9, 40, 0
1, 85080, Note_on_c, 9, 40, 62
1, 85319, Note_on_c, 9, 40, 0
1, 85320, Note_on_c, 9, 40, 62
1, 85439, Note_on_c, 9, 40, 0
1, 85560, Note_on_c, 9, 40, 75
1, 85680, Note_on_c, 9, 36, 110
1, 85919, Note_on_c, 9, 40, 0
1, 85919, Note_on_c, 9, 36, 0
1, 85920, Note_on_c, 9, 40, 110
1, 86159, Note_on_c, 9, 40, 0
1, 86220, Note_on_c, 9, 40, 50
1, 86279, Note_on_c, 9, 40, 0
1, 86280, Note_on_c, 9, 40, 50
1, 86339, Note_on_c, 9, 40, 0
1, 86340, Note_on_c, 9, 40, 50
1, 86399, Note_on_c, 9, 40, 0
1, 86400, Note_on_c, 9, 36, 110
1, 86879, Note_on_c, 9, 36, 0
1, 86880, Note_on_c, 9, 40, 110
1, 86999, Note_on_c, 9, 40, 0
1, 87000, Note_on_c, 9, 40, 62
1, 87239, Note_on_c, 9, 40, 0
1, 87240, Note_on_c, 9, 40, 62
1, 87359, Note_on_c, 9, 40, 0
1, 87480, Note_on_c, 9, 40, 75
1, 87600, Note_on_c, 9, 36, 110
1, 87839, Note_on_c, 9, 40, 0
1, 87839, Note_on_c, 9, 36, 0
1, 87840, Note_on_c, 9, 40, 110
1, 88319, Note_on_c, 9, 40, 0
1, 88320, Note_on_c, 9, 36, 110
1, 88799, Note_on_c, 9, 36, 0
1, 88800, Note_on_c, 9, 40, 110
1, 88919, Note_on_c, 9, 40, 0
1, 88920, Note_on_c, 9, 40, 62
1, 89159, Note_on_c, 9, 40, 0
1, 89160, Note_on_c, 9, 40, 62
1, 89279, Note_on_c, 9, 40, 0
1, 89400, Note_on_c, 9, 40, 75
1, 89520, Note_on_c, 9, 36, 110
1, 89759, Note_on_c, 9, 40, 0
1, 89759, Note_on_c, 9, 36, 0
1, 89760, Note_on_c, 9, 40, 110
1, 89999, Note_on_c, 9, 40, 0
1, 90060, Note_on_c, 9, 40, 50
1, 90119, Note_on_c, 9, 40, 0
1, 90120, Note_on_c, 9, 40, 50
1, 90179, Note_on_c, 9, 40, 0
1, 90180, Note_on_c, 9, 40, 50
1, 90239, Note_on_c, 9, 40, 0
1, 90240, Note_on_c, 9, 36, 110
1, 90719, Note_on_c, 9, 36, 0
1, 90720, Note_on_c, 9, 40, 110
1, 90839, Note_on_c, 9, 40, 0
1, 90840, Note_on_c, 9, 40, 62
1, 91079, Note_on_c, 9, 40, 0
1, 91080, Note_on_c, 9, 40, 62
1, 91199, Note_on_c, 9, 40, 0
1, 91320, Note_on_c, 9, 40, 75
1, 91440, Note_on_c, 9, 36, 110
1, 91679, Note_on_c, 9, 40, 0
1, 91679, Note_on_c, 9, 36, 0
1, 91680, Note_on_c, 9, 40, 110
1, 91919, Note_on_c, 9, 40, 0
1, 91980, Note_on_c, 9, 40, 50
1, 92039, Note_on_c, 9, 40, 0
1, 92040, Note_on_c, 9, 40, 50
1, 92099, Note_on_c, 9, 40, 0
1, 92100, Note_on_c, 9, 40, 50
1, 92159, Note_on_c, 9, 40, 0
1, 92160, Note_on_c, 9, 36, 110
1, 92639, Note_on_c, 9, 36, 0
1, 92640, Note_on_c, 9, 40, 110
1, 92759, Note_on_c, 9, 40, 0
1, 92760, Note_on_c, 9, 40, 62
1, 92999, Note_on_c, 9, 40, 0
1, 93000, Note_on_c, 9, 40, 62
1, 93119, Note_on_c, 9, 40, 0
1, 93240, Note_on_c, 9, 40, 75
1, 93360, Note_on_c, 9, 36, 110
1, 93599, Note_on_c, 9, 40, 0
1, 93599, Note_on_c, 9, 36, 0
1, 93600, Note_on_c, 9, 40, 110
1, 93839, Note_on_c, 9, 40, 0
1, 93900, Note_on_c, 9, 40, 50
1, 93959, Note_on_c, 9, 40, 0
1, 93960, Note_on_c, 9, 40, 50
1, 94019, Note_on_c, 9, 40, 0
1, 94020, Note_on_c, 9, 40, 50
1, 94079, Note_on_c, 9, 40, 0
1, 94080, Note_on_c, 9, 36, 110
1, 94559, Note_on_c, 9, 36, 0
1, 94560, Note_on_c, 9, 40, 110
1, 94679, Note_on_c, 9, 40, 0
1, 94680, Note_on_c, 9, 40, 62
1, 94919, Note_on_c, 9, 40, 0
1, 94920, Note_on_c, 9, 40, 62
1, 95039, Note_on_c, 9, 40, 0
1, 95160, Note_on_c, 9, 40, 75
1, 95280, Note_on_c, 9, 36, 110
1, 95519, Note_on_c, 9, 40, 0
1, 95519, Note_on_c, 9, 36, 0
1, 95520, Note_on_c, 9, 40, 110
1, 95999, Note_on_c, 9, 40, 0
1, 96000, Note_on_c, 9, 36, 110
1, 96479, Note_on_c, 9, 36, 0
1, 96480, Note_on_c, 9, 40, 110
1, 96959, Note_on_c, 9, 40, 0
1, 96960, Note_on_c, 9, 36, 110
1, 97439, Note_on_c, 9, 36, 0
1, 97440, Note_on_c, 9, 40, 110
1, 97919, Note_on_c, 9, 40, 0
1, 97920, Note_on_c, 9, 36, 110
1, 98399, Note_on_c, 9, 36, 0
1, 98400, Note_on_c, 9, 40, 110
1, 98879, Note_on_c, 9, 40, 0
1, 98880, Note_on_c, 9, 36, 110
1, 99359, Note_on_c, 9, 36, 0
1, 99360, Note_on_c, 9, 40, 110
1, 99839, Note_on_c, 9, 40, 0
1, 99840, Note_on_c, 9, 36, 110
1, 100319, Note_on_c, 9, 36, 0
1, 100320, Note_on_c, 9, 40, 110
1, 100439, Note_on_c, 9, 40, 0
1, 100440, Note_on_c, 9, 40, 62
1, 100679, Note_on_c, 9, 40, 0
1, 100680, Note_on_c, 9, 40, 62
1, 100799, Note_on_c, 9, 40, 0
1, 100920, Note_on_c, 9, 40, 75
1, 101040, Note_on_c, 9, 36, 110
1, 101279, Note_on_c, 9, 40, 0
1, 101279, Note_on_c, 9, 36, 0
1, 101280, Note_on_c, 9, 40, 110
1, 101519, Note_on_c, 9, 40, 0
1, 101580, Note_on_c, 9, 40, 50
1, 101639, Note_on_c, 9, 40, 0
1, 101640, Note_on_c, 9, 40, 50
1, 101699, Note_on_c, 9, 40, 0
1, 101700, Note_on_c, 9, 40, 50
1, 101759, Note_on_c, 9, 40, 0
1, 101760, Note_on_c, 9, 36, 110
1, 102239, Note_on_c, 9, 36, 0
1, 102240, Note_on_c, 9, 40, 110
1, 102359, Note_on_c, 9, 40, 0
1, 102360, Note_on_c, 9, 40, 62
1, 102599, Note_on_c, 9, 40, 0
1, 102600, Note_on_c, 9, 40, 62
1, 102719, Note_on_c, 9, 40, 0
1, 102840, Note_on_c, 9, 40, 75
1, 102960, Note_on_c, 9, 36, 110
1, 103199, Note_on_c, 9, 40, 0
1, 103199, Note_on_c, 9, 36, 0
1, 103200, Note_on_c, 9, 40, 110
1, 103439, Note_on_c, 9, 40, 0
1, 103500, Note_on_c, 9, 40, 50
1, 103559, Note_on_c, 9, 40, 0
1, 103560, Note_on_c, 9, 40, 50
1, 103619, Note_on_c, 9, 40, 0
1, 103620, Note_on_c, 9, 40, 50
1, 103679, Note_on_c, 9, 40, 0
1, 103680, Note_on_c, 9, 36, 110
1, 104159, Note_on_c, 9, 36, 0
1, 104160, Note_on_c, 9, 40, 110
1, 104279, Note_on_c, 9, 40, 0
1, 104280, Note_on_c, 9, 40, 62
1, 104519, Note_on_c, 9, 40, 0
1, 104520, Note_on_c, 9, 40, 62
1, 104639, Note_on_c, 9, 40, 0
1, 104760, Note_on_c, 9, 40, 75
1, 104880, Note_on_c, 9, 36, 110
1, 105119, Note_on_c, 9, 40, 0
1, 105119, Note_on_c, 9, 36, 0
1, 105120, Note_on_c, 9, 40, 110
1, 105359, Note_on_c, 9, 40, 0
1, 105420, Note_on_c, 9, 40, 50
1, 105479, Note_on_c, 9, 40, 0
1, 105480, Note_on_c, 9, 40, 50
1, 105539, Note_on_c, 9, 40, 0
1, 105540, Note_on_c, 9, 40, 50
1, 105599, Note_on_c, 9, 40, 0
1, 105600, Note_on_c, 9, 36, 110
1, 106079, Note_on_c, 9, 36, 0
1, 106080, Note_on_c, 9, 40, 110
1, 106199, Note_on_c, 9, 40, 0
1, 106200, Note_on_c, 9, 40, 62
1, 106439, Note_on_c, 9, 40, 0
1, 106440, Note_on_c, 9, 40, 62
1, 106559, Note_on_c, 9, 40, 0
1, 106680, Note_on_c, 9, 40, 75
1, 106800, Note_on_c, 9, 36, 110
1, 107039, Note_on_c, 9, 40, 0
1, 107039, Note_on_c, 9, 36, 0
1, 107040, Note_on_c, 9, 40, 110
1, 107279, Note_on_c, 9, 40, 0
1, 107340, Note_on_c, 9, 40, 50
1, 107399, Note_on_c, 9, 40, 0
1, 107400, Note_on_c, 9, 40, 50
1, 107459, Note_on_c, 9, 40, 0
1, 107460, Note_on_c, 9, 40, 50
1, 107519, Note_on_c, 9, 40, 0
1, 107520, Note_on_c, 9, 36, 110
1, 107999, Note_on_c, 9, 36, 0
1, 108000, Note_on_c, 9, 40, 110
1, 108119, Note_on_c, 9, 40, 0
1, 108120, Note_on_c, 9, 40, 62
1, 108359, Note_on_c, 9, 40, 0
1, 108360, Note_on_c, 9, 40, 62
1, 108479, Note_on_c, 9, 40, 0
1, 108600, Note_on_c, 9, 40, 75
1, 108720, Note_on_c, 9, 36, 110
1, 108959, Note_on_c, 9, 40, 0
1, 108959, Note_on_c, 9, 36, 0
1, 108960, Note_on_c, 9, 40, 110
1, 109199, Note_on_c, 9, 40, 0
1, 109260, Note_on_c, 9, 40, 50
1, 109319, Note_on_c, 9, 40, 0
1, 109320, Note_on_c, 9, 40, 50
1, 109379, Note_on_c, 9, 40, 0
1, 109380, Note_on_c, 9, 40, 50
1, 109439, Note_on_c, 9, 40, 0
1, 109440, Note_on_c, 9, 36, 110
1, 109919, Note_on_c, 9, 36, 0
1, 109920, Note_on_c, 9, 40, 110
1, 110039, Note_on_c, 9, 40, 0
1, 110040, Note_on_c, 9, 40, 62
1, 110279, Note_on_c, 9, 40, 0
1, 110280, Note_on_c, 9, 40, 62
1, 110399, Note_on_c, 9, 40, 0
1, 110520, Note_on_c, 9, 40, 75
1, 110640, Note_on_c, 9, 36, 110
1, 110879, Note_on_c, 9, 40, 0
1, 110879, Note_on_c, 9, 36, 0
1, 110880, Note_on_c, 9, 40, 110
1, 111119, Note_on_c, 9, 40, 0
1, 111180, Note_on_c, 9, 40, 50
1, 111239, Note_on_c, 9, 40, 0
1, 111240, Note_on_c, 9, 40, 50
1, 111299, Note_on_c, 9, 40, 0
1, 111300, Note_on_c, 9, 40, 50
1, 111359, Note_on_c, 9, 40, 0
1, 111360, Note_on_c, 9, 36, 110
1, 111839, Note_on_c, 9, 36, 0
1, 111840, Note_on_c, 9, 40, 110
1, 111959, Note_on_c, 9, 40, 0
1, 111960, Note_on_c, 9, 40, 62
1, 112199, Note_on_c, 9, 40, 0
1, 112200, Note_on_c, 9, 40, 62
1, 112319, Note_on_c, 9, 40, 0
1, 112440, Note_on_c, 9, 40, 75
1, 112560, Note_on_c, 9, 36, 110
1, 112799, Note_on_c, 9, 40, 0
1, 112799, Note_on_c, 9, 36, 0
1, 112800, Note_on_c, 9, 40, 110
1, 113039, Note_on_c, 9, 40, 0
1, 113100, Note_on_c, 9, 40, 50
1, 113159, Note_on_c, 9, 40, 0
1, 113160, Note_on_c, 9, 40, 50
1, 113219, Note_on_c, 9, 40, 0
1, 113220, Note_on_c, 9, 40, 50
1, 113279, Note_on_c, 9, 40, 0
1, 113280, Note_on_c, 9, 36, 110
1, 113759, Note_on_c, 9, 36, 0
1, 113760, Note_on_c, 9, 40, 110
1, 113879, Note_on_c, 9, 40, 0
1, 113880, Note_on_c, 9, 40, 62
1, 114119, Note_on_c, 9, 40, 0
1, 114120, Note_on_c, 9, 40, 62
1, 114239, Note_on_c, 9, 40, 0
1, 114360, Note_on_c, 9, 40, 75
1, 114480, Note_on_c, 9, 36, 110
1, 114719, Note_on_c, 9, 40, 0
1, 114719, Note_on_c, 9, 36, 0
1, 114720, Note_on_c, 9, 40, 110
1, 115199, Note_on_c, 9, 40, 0
1, 115200, Note_on_c, 9, 36, 110
1, 115679, Note_on_c, 9, 36, 0
1, 115680, Note_on_c, 9, 40, 110
1, 116159, Note_on_c, 9, 40, 0
1, 116160, Note_on_c, 9, 36, 110
1, 116639, Note_on_c, 9, 36, 0
1, 116640, Note_on_c, 9, 40, 110
1, 117119, Note_on_c, 9, 40, 0
1, 117120, Note_on_c, 9, 36, 110
1, 117599, Note_on_c, 9, 36, 0
1, 117600, Note_on_c, 9, 40, 110
1, 118079, Note_on_c, 9, 40, 0
1, 118080, Note_on_c, 9, 36, 110
1, 118440, Note_on_c, 9, 40, 107
1, 118559, Note_on_c, 9, 36, 0
1, 118559, Note_on_c, 9, 40, 0
1, 118560, Note_on_c, 9, 40, 127
1, 118800, Note_on_c, 9, 36, 100
1, 119039, Note_on_c, 9, 40, 0
1, 119039, Note_on_c, 9, 36, 0
1, 119040, Note_on_c, 9, 36, 110
1, 119519, Note_on_c, 9, 36, 0
1, 119520, Note_on_c, 9, 40, 118
1, 119639, Note_on_c, 9, 40, 0
1, 119640, Note_on_c, 9, 40, 62
1, 119760, Note_on_c, 9, 36, 100
1, 119879, Note_on_c, 9, 40, 0
1, 119880, Note_on_c, 9, 40, 119
1, 119999, Note_on_c, 9, 36, 0
1, 119999, Note_on_c, 9, 40, 0
1, 120000, Note_on_c, 9, 36, 100
1, 120120, Note_on_c, 9, 40, 110
1, 120239, Note_on_c, 9, 36, 0
1, 120240, Note_on_c, 9, 36, 110
1, 120479, Note_on_c, 9, 40, 0
1, 120479, Note_on_c, 9, 36, 0
1, 120480, Note_on_c, 9, 40, 118
1, 120719, Note_on_c, 9, 40, 0
1, 120780, Note_on_c, 9, 40, 50
1, 120839, Note_on_c, 9, 40, 0
1, 120840, Note_on_c, 9, 40, 50
1, 120899, Note_on_c, 9, 40, 0
1, 120900, Note_on_c, 9, 40, 50
1, 120959, Note_on_c, 9, 40, 0
1, 120960, Note_on_c, 9, 36, 110
1, 121439, Note_on_c, 9, 36, 0
1, 121440, Note_on_c, 9, 40, 118
1, 121559, Note_on_c, 9, 40, 0
1, 121560, Note_on_c, 9, 40, 62
1, 121680, Note_on_c, 9, 36, 100
1, 121799, Note_on_c, 9, 40, 0
1, 121800, Note_on_c, 9, 40, 119
1, 121919, Note_on_c, 9, 36, 0
1, 121919, Note_on_c, 9, 40, 0
1, 121920, Note_on_c, 9, 36, 100
1, 122040, Note_on_c, 9, 40, 110
1, 122159, Note_on_c, 9, 36, 0
1, 122160, Note_on_c, 9, 36, 110
1, 122399, Note_on_c, 9, 40, 0
1, 122399, Note_on_c, 9, 36, 0
1, 122400, Note_on_c, 9, 40, 118
1, 122639, Note_on_c, 9, 40, 0
1, 122700, Note_on_c, 9, 40, 50
1, 122759, Note_on_c, 9, 40, 0
1, 122760, Note_on_c, 9, 40, 50
1, 122819, Note_on_c, 9, 40, 0
1, 122820, Note_on_c, 9, 40, 50
1, 122879, Note_on_c, 9, 40, 0
1, 122880, Note_on_c, 9, 36, 110
1, 123359, Note_on_c, 9, 36, 0
1, 123360, Note_on_c, 9, 40, 118
1, 123479, Note_on_c, 9, 40, 0
1, 123480, Note_on_c, 9, 40, 62
1, 123600, Note_on_c, 9, 36, 100
1, 123719, Note_on_c, 9, 40, 0
1, 123720, Note_on_c, 9, 40, 119
1, 123839, Note_on_c, 9, 36, 0
1, 123839, Note_on_c, 9, 40, 0
1, 123840, Note_on_c, 9, 36, 100
1, 123960, Note_on_c, 9, 40, 110
1, 124079, Note_on_c, 9, 36, 0
1, 124080, Note_on_c, 9, 36, 110
1, 124319, Note_on_c, 9, 40, 0
1, 124319, Note_on_c, 9, 36, 0
1, 124320, Note_on_c, 9, 40, 118
1, 124559, Note_on_c, 9, 40, 0
1, 124620, Note_on_c, 9, 40, 50
1, 124679, Note_on_c, 9, 40, 0
1, 124680, Note_on_c, 9, 40, 50
1, 124739, Note_on_c, 9, 40, 0
1, 124740, Note_on_c, 9, 40, 50
1, 124799, Note_on_c, 9, 40, 0
1, 124800, Note_on_c, 9, 36, 110
1, 125279, Note_on_c, 9, 36, 0
1, 125280, Note_on_c, 9, 40, 118
1, 125399, Note_on_c, 9, 40, 0
1, 125400, Note_on_c, 9, 40, 62
1, 125520, Note_on_c, 9, 36, 100
1, 125639, Note_on_c, 9, 40, 0
1, 125640, Note_on_c, 9, 40, 119
1, 125759, Note_on_c, 9, 36, 0
1, 125759, Note_on_c, 9, 40, 0
1, 125760, Note_on_c, 9, 36, 100
1, 125880, Note_on_c, 9, 40, 110
1, 125999, Note_on_c, 9, 36, 0
1, 126000, Note_on_c, 9, 36, 110
1, 126239, Note_on_c, 9, 40, 0
1, 126239, Note_on_c, 9, 36, 0
1, 126240, Note_on_c, 9, 40, 118
1, 126479, Note_on_c, 9, 40, 0
1, 126540, Note_on_c, 9, 40, 50
1, 126599, Note_on_c, 9, 40, 0
1, 126600, Note_on_c, 9, 40, 50
1, 126659, Note_on_c, 9, 40, 0
1, 126660, Note_on_c, 9, 40, 50
1, 126719, Note_on_c, 9, 40, 0
1, 126720, Note_on_c, 9, 36, 110
1, 127199, Note_on_c, 9, 36, 0
1, 127200, Note_on_c, 9, 40, 118
1, 127319, Note_on_c, 9, 40, 0
1, 127320, Note_on_c, 9, 40, 62
1, 127440, Note_on_c, 9, 36, 100
1, 127559, Note_on_c, 9, 40, 0
1, 127560, Note_on_c, 9, 40, 119
1, 127679, Note_on_c, 9, 36, 0
1, 127679, Note_on_c, 9, 40, 0
1, 127680, Note_on_c, 9, 36, 100
1, 127800, Note_on_c, 9, 40, 110
1, 127919, Note_on_c, 9, 36, 0
1, 127920, Note_on_c, 9, 36, 110
1, 128159, Note_on_c, 9, 40, 0
1, 128159, Note_on_c, 9, 36, 0
1, 128160, Note_on_c, 9, 40, 118
1, 128399, Note_on_c, 9, 40, 0
1, 128460, Note_on_c, 9, 40, 50
1, 128519, Note_on_c, 9, 40, 0
1, 128520, Note_on_c, 9, 40, 50
1, 128579, Note_on_c, 9, 40, 0
1, 128580, Note_on_c, 9, 40, 50
1, 128639, Note_on_c, 9, 40, 0
1, 128640, Note_on_c, 9, 36, 110
1, 129119, Note_on_c, 9, 36, 0
1, 129120, Note_on_c, 9, 40, 118
1, 129239, Note_on_c, 9, 40, 0
1, 129240, Note_on_c, 9, 40, 62
1, 129360, Note_on_c, 9, 36, 100
1, 129479, Note_on_c, 9, 40, 0
1, 129480, Note_on_c, 9, 40, 119
1, 129599, Note_on_c, 9, 36, 0
1, 129599, Note_on_c, 9, 40, 0
1, 129600, Note_on_c, 9, 36, 100
1, 129720, Note_on_c, 9, 40, 110
1, 129839, Note_on_c, 9, 36, 0
1, 129840, Note_on_c, 9, 36, 110
1, 130079, Note_on_c, 9, 40, 0
1, 130079, Note_on_c, 9, 36, 0
1, 130080, Note_on_c, 9, 40, 118
1, 130319, Note_on_c, 9, 40, 0
1, 130380, Note_on_c, 9, 40, 50
1, 130439, Note_on_c, 9, 40, 0
1, 130440, Note_on_c, 9, 40, 50
1, 130499, Note_on_c, 9, 40, 0
1, 130500, Note_on_c, 9, 40, 50
1, 130559, Note_on_c, 9, 40, 0
1, 130560, Note_on_c, 9, 36, 110
1, 131039, Note_on_c, 9, 36, 0
1, 131040, Note_on_c, 9, 40, 118
1, 131159, Note_on_c, 9, 40, 0
1, 131160, Note_on_c, 9, 40, 62
1, 131280, Note_on_c, 9, 36, 100
1, 131399, Note_on_c, 9, 40, 0
1, 131400, Note_on_c, 9, 40, 119
1, 131519, Note_on_c, 9, 36, 0
1, 131519, Note_on_c, 9, 40, 0
1, 131520, Note_on_c, 9, 36, 100
1, 131640, Note_on_c, 9, 40, 110
1, 131759, Note_on_c, 9, 36, 0
1, 131760, Note_on_c, 9, 36, 110
1, 131999, Note_on_c, 9, 40, 0
1, 131999, Note_on_c, 9, 36, 0
1, 132000, Note_on_c, 9, 40, 118
1, 132239, Note_on_c, 9, 40, 0
1, 132300, Note_on_c, 9, 40, 50
1, 132359, Note_on_c, 9, 40, 0
1, 132360, Note_on_c, 9, 40, 50
1, 132419, Note_on_c, 9, 40, 0
1, 132420, Note_on_c, 9, 40, 50
1, 132479, Note_on_c, 9, 40, 0
1, 132480, Note_on_c, 9, 36, 110
1, 132959, Note_on_c, 9, 36, 0
1, 132960, Note_on_c, 9, 40, 118
1, 133079, Note_on_c, 9, 40, 0
1, 133080, Note_on_c, 9, 40, 62
1, 133200, Note_on_c, 9, 36, 100
1, 133319, Note_on_c, 9, 40, 0
1, 133320, Note_on_c, 9, 40, 119
1, 133439, Note_on_c, 9, 36, 0
1, 133439, Note_on_c, 9, 40, 0
1, 133440, Note_on_c, 9, 36, 100
1, 133560, Note_on_c, 9, 40, 110
1, 133679, Note_on_c, 9, 36, 0
1, 133680, Note_on_c, 9, 36, 110
1, 133919, Note_on_c, 9, 40, 0
1, 133919, Note_on_c, 9, 36, 0
1, 133920, Note_on_c, 9, 40, 118
1, 134159, Note_on_c, 9, 40, 0
1, 134220, Note_on_c, 9, 40, 50
1, 134279, Note_on_c, 9, 40, 0
1, 134280, Note_on_c, 9, 40, 50
1, 134339, Note_on_c, 9, 40, 0
1, 134340, Note_on_c, 9, 40, 50
1, 134399, Note_on_c, 9, 40, 0
1, 134400, Note_on_c, 9, 36, 110
1, 134879, Note_on_c, 9, 36, 0
1, 134880, Note_on_c, 9, 40, 118
1, 134999, Note_on_c, 9, 40, 0
1, 135000, Note_on_c, 9, 40, 62
1, 135120, Note_on_c, 9, 36, 100
1, 135239, Note_on_c, 9, 40, 0
1, 135240, Note_on_c, 9, 40, 119
1, 135359, Note_on_c, 9, 36, 0
1, 135359, Note_on_c, 9, 40, 0
1, 135360, Note_on_c, 9, 36, 100
1, 135480, Note_on_c, 9, 40, 110
1, 135599, Note_on_c, 9, 36, 0
1, 135600, Note_on_c, 9, 36, 110
1, 135839, Note_on_c, 9, 40, 0
1, 135839, Note_on_c, 9, 36, 0
1, 135840, Note_on_c, 9, 40, 118
1, 136079, Note_on_c, 9, 40, 0
1, 136140, Note_on_c, 9, 40, 50
1, 136199, Note_on_c, 9, 40, 0
1, 136200, Note_on_c, 9, 40, 50
1, 136259, Note_on_c, 9, 40, 0
1, 136260, Note_on_c, 9, 40, 50
1, 136319, Note_on_c, 9, 40, 0
1, 136320, Note_on_c, 9, 36, 110
1, 136799, Note_on_c, 9, 36, 0
1, 136800, Note_on_c, 9, 40, 118
1, 136919, Note_on_c, 9, 40, 0
1, 136920, Note_on_c, 9, 40, 62
1, 137040, Note_on_c, 9, 36, 100
1, 137159, Note_on_c, 9, 40, 0
1, 137160, Note_on_c, 9, 40, 119
1, 137279, Note_on_c, 9, 36, 0
1, 137279, Note_on_c, 9, 40, 0
1, 137280, Note_on_c, 9, 36, 100
1, 137400, Note_on_c, 9, 40, 110
1, 137519, Note_on_c, 9, 36, 0
1, 137520, Note_on_c, 9, 36, 110
1, 137759, Note_on_c, 9, 40, 0
1, 137759, Note_on_c, 9, 36, 0
1, 137760, Note_on_c, 9, 40, 118
1, 137999, Note_on_c, 9, 40, 0
1, 138060, Note_on_c, 9, 40, 50
1, 138119, Note_on_c, 9, 40, 0
1, 138120, Note_on_c, 9, 40, 50
1, 138179, Note_on_c, 9, 40, 0
1, 138180, Note_on_c, 9, 40, 50
1, 138239, Note_on_c, 9, 40, 0
1, 138240, Note_on_c, 9, 36, 110
1, 138719, Note_on_c, 9, 36, 0
1, 138720, Note_on_c, 9, 40, 118
1, 138839, Note_on_c, 9, 40, 0
1, 138840, Note_on_c, 9, 40, 62
1, 138960, Note_on_c, 9, 36, 100
1, 139079, Note_on_c, 9, 40, 0
1, 139080, Note_on_c, 9, 40, 119
1, 139199, Note_on_c, 9, 36, 0
1, 139199, Note_on_c, 9, 40, 0
1, 139200, Note_on_c, 9, 36, 100
1, 139320, Note_on_c, 9, 40, 110
1, 139439, Note_on_c, 9, 36, 0
1, 139440, Note_on_c, 9, 36, 110
1, 139679, Note_on_c, 9, 40, 0
1, 139679, Note_on_c, 9, 36, 0
1, 139680, Note_on_c, 9, 40, 118
1, 139919, Note_on_c, 9, 40, 0
1, 139980, Note_on_c, 9, 40, 50
1, 140039, Note_on_c, 9, 40, 0
1, 140040, Note_on_c, 9, 40, 50
1, 140099, Note_on_c, 9, 40, 0
1, 140100, Note_on_c, 9, 40, 50
1, 140159, Note_on_c, 9, 40, 0
1, 140160, Note_on_c, 9, 36, 110
1, 140639, Note_on_c, 9, 36, 0
1, 140640, Note_on_c, 9, 40, 118
1, 140759, Note_on_c, 9, 40, 0
1, 140760, Note_on_c, 9, 40, 62
1, 140880, Note_on_c, 9, 36, 123
1, 141119, Note_on_c, 9, 40, 0
1, 141119, Note_on_c, 9, 36, 0
1, 141120, Note_on_c, 9, 36, 123
1, 141360, Note_on_c, 9, 40, 100
1, 141479, Note_on_c, 9, 40, 0
1, 141480, Note_on_c, 9, 40, 103
1, 141599, Note_on_c, 9, 36, 0
1, 141599, Note_on_c, 9, 40, 0
1, 141600, Note_on_c, 9, 40, 107
1, 141719, Note_on_c, 9, 40, 0
1, 141720, Note_on_c, 9, 40, 110
1, 141839, Note_on_c, 9, 40, 0
1, 141840, Note_on_c, 9, 40, 114
1, 141959, Note_on_c, 9, 40, 0
1, 141960, Note_on_c, 9, 40, 117
1, 142079, Note_on_c, 9, 40, 0
1, 142080, Note_on_c, 9, 36, 110
1, 142559, Note_on_c, 9, 36, 0
1, 142560, Note_on_c, 9, 40, 118
1, 143039, Note_on_c, 9, 40, 0
1, 143040, Note_on_c, 9, 36, 100
1, 143519, Note_on_c, 9, 36, 0
1, 143520, Note_on_c, 9, 40, 118
1, 143759, Note_on_c, 9, 40, 0
1, 143820, Note_on_c, 9, 40, 60
1, 143879, Note_on_c, 9, 40, 0
1, 143880, Note_on_c, 9, 40, 60
1, 143939, Note_on_c, 9, 40, 0
1, 143940, Note_on_c, 9, 40, 60
1, 143999, Note_on_c, 9, 40, 0
1, 144000, Note_on_c, 9, 36, 110
1, 144479, Note_on_c, 9, 36, 0
1, 144480, Note_on_c, 9, 40, 118
1, 144719, Note_on_c, 9, 40, 0
1, 144780, Note_on_c, 9, 40, 60
1, 144839, Note_on_c, 9, 40, 0
1, 144840, Note_on_c, 9, 40, 60
1, 144899, Note_on_c, 9, 40, 0
1, 144900, Note_on_c, 9, 40, 60
1, 144959, Note_on_c, 9, 40, 0
1, 144960, Note_on_c, 9, 36, 100
1, 145439, Note_on_c, 9, 36, 0
1, 145440, Note_on_c, 9, 40, 118
1, 145679, Note_on_c, 9, 40, 0
1, 145740, Note_on_c, 9, 40, 60
1, 145799, Note_on_c, 9, 40, 0
1, 145800, Note_on_c, 9, 40, 60
1, 145859, Note_on_c, 9, 40, 0
1, 145860, Note_on_c, 9, 40, 60
1, 145919, Note_on_c, 9, 40, 0
1, 145920, Note_on_c, 9, 36, 110
1, 146399, Note_on_c, 9, 36, 0
1, 146400, Note_on_c, 9, 40, 118
1, 146879, Note_on_c, 9, 40, 0
1, 146880, Note_on_c, 9, 36, 100
1, 147119, Note_on_c, 9, 36, 0
1, 147120, Note_on_c, 9, 36, 100
1, 147359, Note_on_c, 9, 36, 0
1, 147360, Note_on_c, 9, 40, 118
1, 147599, Note_on_c, 9, 40, 0
1, 147600, Note_on_c, 9, 40, 100
1, 147659, Note_on_c, 9, 40, 0
1, 147660, Note_on_c, 9, 40, 60
1, 147719, Note_on_c, 9, 40, 0
1, 147720, Note_on_c, 9, 40, 60
1, 147779, Note_on_c, 9, 40, 0
1, 147780, Note_on_c, 9, 40, 60
1, 147839, Note_on_c, 9, 40, 0
1, 147840, Note_on_c, 9, 36, 110
1, 148319, Note_on_c, 9, 36, 0
1, 148320, Note_on_c, 9, 40, 118
1, 148559, Note_on_c, 9, 40, 0
1, 148620, Note_on_c, 9, 40, 60
1, 148679, Note_on_c, 9, 40, 0
1, 148680, Note_on_c, 9, 40, 60
1, 148739, Note_on_c, 9, 40, 0
1, 148740, Note_on_c, 9, 40, 60
1, 148799, Note_on_c, 9, 40, 0
1, 148800, Note_on_c, 9, 36, 100
1, 149279, Note_on_c, 9, 36, 0
1, 149280, Note_on_c, 9, 40, 118
1, 149519, Note_on_c, 9, 40, 0
1, 149580, Note_on_c, 9, 40, 60
1, 149639, Note_on_c, 9, 40, 0
1, 149640, Note_on_c, 9, 40, 60
1, 149699, Note_on_c, 9, 40, 0
1, 149700, Note_on_c, 9, 40, 60
1, 149759, Note_on_c, 9, 40, 0
1, 149760, Note_on_c, 9, 36, 110
1, 150239, Note_on_c, 9, 36, 0
1, 150240, Note_on_c, 9, 40, 118
1, 150719, Note_on_c, 9, 40, 0
1, 150720, Note_on_c, 9, 36, 100
1, 151199, Note_on_c, 9, 36, 0
1, 151200, Note_on_c, 9, 40, 118
1, 151439, Note_on_c, 9, 40, 0
1, 151500, Note_on_c, 9, 40, 60
1, 151559, Note_on_c, 9, 40, 0
1, 151560, Note_on_c, 9, 40, 60
1, 151619, Note_on_c, 9, 40, 0
1, 151620, Note_on_c, 9, 40, 60
1, 151679, Note_on_c, 9, 40, 0
1, 151680, Note_on_c, 9, 36, 110
1, 152159, Note_on_c, 9, 36, 0
1, 152160, Note_on_c, 9, 40, 118
1, 152399, Note_on_c, 9, 40, 0
1, 152460, Note_on_c, 9, 40, 60
1, 152519, Note_on_c, 9, 40, 0
1, 152520, Note_on_c, 9, 40, 60
1, 152579, Note_on_c, 9, 40, 0
1, 152580, Note_on_c, 9, 40, 60
1, 152639, Note_on_c, 9, 40, 0
1, 152640, Note_on_c, 9, 36, 100
1, 153119, Note_on_c, 9, 36, 0
1, 153120, Note_on_c, 9, 40, 118
1, 153359, Note_on_c, 9, 40, 0
1, 153420, Note_on_c, 9, 40, 60
1, 153479, Note_on_c, 9, 40, 0
1, 153480, Note_on_c, 9, 40, 60
1, 153539, Note_on_c, 9, 40, 0
1, 153540, Note_on_c, 9, 40, 60
1, 153599, Note_on_c, 9, 40, 0
1, 153600, Note_on_c, 9, 36, 110
1, 154079, Note_on_c, 9, 36, 0
1, 154080, Note_on_c, 9, 40, 118
1, 154319, Note_on_c, 9, 40, 0
1, 154380, Note_on_c, 9, 40, 60
1, 154439, Note_on_c, 9, 40, 0
1, 154440, Note_on_c, 9, 40, 60
1, 154499, Note_on_c, 9, 40, 0
1, 154500, Note_on_c, 9, 40, 60
1, 154559, Note_on_c, 9, 40, 0
1, 154560, Note_on_c, 9, 40, 100
1, 154799, Note_on_c, 9, 40, 0
1, 154800, Note_on_c, 9, 55, 68
1, 154800, Note_on_c, 9, 36, 100
1, 154808, Note_on_c, 9, 55, 0
1, 155039, Note_on_c, 9, 36, 0
1, 155040, Note_on_c, 9, 55, 92
1, 155040, Note_on_c, 9, 36, 100
1, 155048, Note_on_c, 9, 55, 0
1, 155279, Note_on_c, 9, 36, 0
1, 155280, Note_on_c, 9, 55, 112
1, 155280, Note_on_c, 9, 36, 100
1, 155288, Note_on_c, 9, 55, 0
1, 155519, Note_on_c, 9, 36, 0
1, 157260, Note_on_c, 9, 40, 50
1, 157319, Note_on_c, 9, 40, 0
1, 157320, Note_on_c, 9, 40, 50
1, 157379, Note_on_c, 9, 40, 0
1, 157380, Note_on_c, 9, 40, 50
1, 157439, Note_on_c, 9, 40, 0
1, 157440, Note_on_c, 9, 36, 110
1, 157919, Note_on_c, 9, 36, 0
1, 157920, Note_on_c, 9, 40, 110
1, 158039, Note_on_c, 9, 40, 0
1, 158040, Note_on_c, 9, 40, 62
1, 158279, Note_on_c, 9, 40, 0
1, 158280, Note_on_c, 9, 40, 62
1, 158399, Note_on_c, 9, 40, 0
1, 158520, Note_on_c, 9, 40, 75
1, 158640, Note_on_c, 9, 36, 110
1, 158879, Note_on_c, 9, 40, 0
1, 158879, Note_on_c, 9, 36, 0
1, 158880, Note_on_c, 9, 40, 110
1, 159119, Note_on_c, 9, 40, 0
1, 159180, Note_on_c, 9, 40, 50
1, 159239, Note_on_c, 9, 40, 0
1, 159240, Note_on_c, 9, 40, 50
1, 159299, Note_on_c, 9, 40, 0
1, 159300, Note_on_c, 9, 40, 50
1, 159359, Note_on_c, 9, 40, 0
1, 159360, Note_on_c, 9, 36, 110
1, 159839, Note_on_c, 9, 36, 0
1, 159840, Note_on_c, 9, 40, 110
1, 159959, Note_on_c, 9, 40, 0
1, 159960, Note_on_c, 9, 40, 62
1, 160199, Note_on_c, 9, 40, 0
1, 160200, Note_on_c, 9, 40, 62
1, 160319, Note_on_c, 9, 40, 0
1, 160440, Note_on_c, 9, 40, 75
1, 160560, Note_on_c, 9, 36, 110
1, 160799, Note_on_c, 9, 40, 0
1, 160799, Note_on_c, 9, 36, 0
1, 160800, Note_on_c, 9, 40, 110
1, 161039, Note_on_c, 9, 40, 0
1, 161100, Note_on_c, 9, 40, 50
1, 161159, Note_on_c, 9, 40, 0
1, 161160, Note_on_c, 9, 40, 50
1, 161219, Note_on_c, 9, 40, 0
1, 161220, Note_on_c, 9, 40, 50
1, 161279, Note_on_c, 9, 40, 0
1, 161280, Note_on_c, 9, 36, 110
1, 161759, Note_on_c, 9, 36, 0
1, 161760, Note_on_c, 9, 40, 110
1, 161879, Note_on_c, 9, 40, 0
1, 161880, Note_on_c, 9, 40, 62
1, 162119, Note_on_c, 9, 40, 0
1, 162120, Note_on_c, 9, 40, 62
1, 162239, Note_on_c, 9, 40, 0
1, 162360, Note_on_c, 9, 40, 75
1, 162480, Note_on_c, 9, 36, 110
1, 162719, Note_on_c, 9, 40, 0
1, 162719, Note_on_c, 9, 36, 0
1, 162720, Note_on_c, 9, 40, 110
1, 162959, Note_on_c, 9, 40, 0
1, 163020, Note_on_c, 9, 40, 50
1, 163079, Note_on_c, 9, 40, 0
1, 163080, Note_on_c, 9, 40, 50
1, 163139, Note_on_c, 9, 40, 0
1, 163140, Note_on_c, 9, 40, 50
1, 163199, Note_on_c, 9, 40, 0
1, 163200, Note_on_c, 9, 36, 110
1, 163679, Note_on_c, 9, 36, 0
1, 163680, Note_on_c, 9, 40, 110
1, 163799, Note_on_c, 9, 40, 0
1, 163800, Note_on_c, 9, 40, 62
1, 164039, Note_on_c, 9, 40, 0
1, 164040, Note_on_c, 9, 40, 62
1, 164159, Note_on_c, 9, 40, 0
1, 164280, Note_on_c, 9, 40, 75
1, 164400, Note_on_c, 9, 36, 110
1, 164639, Note_on_c, 9, 40, 0
1, 164639, Note_on_c, 9, 36, 0
1, 164640, Note_on_c, 9, 40, 110
1, 165119, Note_on_c, 9, 40, 0
1, 165120, Note_on_c, 9, 36, 110
1, 165599, Note_on_c, 9, 36, 0
1, 165600, Note_on_c, 9, 40, 110
1, 166079, Note_on_c, 9, 40, 0
1, 166080, Note_on_c, 9, 36, 110
1, 166559, Note_on_c, 9, 36, 0
1, 166560, Note_on_c, 9, 40, 110
1, 166799, Note_on_c, 9, 40, 0
1, 166860, Note_on_c, 9, 40, 50
1, 166919, Note_on_c, 9, 40, 0
1, 166920, Note_on_c, 9, 40, 50
1, 166979, Note_on_c, 9, 40, 0
1, 166980, Note_on_c, 9, 40, 50
1, 167039, Note_on_c, 9, 40, 0
1, 167040, Note_on_c, 9, 36, 110
1, 167519, Note_on_c, 9, 36, 0
1, 167520, Note_on_c, 9, 40, 110
1, 167999, Note_on_c, 9, 40, 0
1, 168000, Note_on_c, 9, 36, 110
1, 168479, Note_on_c, 9, 36, 0
1, 168480, Note_on_c, 9, 40, 110
1, 168719, Note_on_c, 9, 40, 0
1, 168780, Note_on_c, 9, 40, 50
1, 168839, Note_on_c, 9, 40, 0
1, 168840, Note_on_c, 9, 40, 50
1, 168899, Note_on_c, 9, 40, 0
1, 168900, Note_on_c, 9, 40, 50
1, 168959, Note_on_c, 9, 40, 0
1, 168960, Note_on_c, 9, 49, 100
1, 168960, Note_on_c, 9, 36, 110
1, 168977, Note_on_c, 9, 49, 0
1, 169439, Note_on_c, 9, 36, 0
1, 169440, Note_on_c, 9, 40, 110
1, 169559, Note_on_c, 9, 40, 0
1, 169560, Note_on_c, 9, 40, 62
1, 169799, Note_on_c, 9, 40, 0
1, 169800, Note_on_c, 9, 40, 62
1, 169919, Note_on_c, 9, 40, 0
1, 170040, Note_on_c, 9, 40, 75
1, 170160, Note_on_c, 9, 36, 110
1, 170399, Note_on_c, 9, 40, 0
1, 170399, Note_on_c, 9, 36, 0
1, 170400, Note_on_c, 9, 40, 110
1, 170639, Note_on_c, 9, 40, 0
1, 170700, Note_on_c, 9, 40, 50
1, 170759, Note_on_c, 9, 40, 0
1, 170760, Note_on_c, 9, 40, 50
1, 170819, Note_on_c, 9, 40, 0
1, 170820, Note_on_c, 9, 40, 50
1, 170879, Note_on_c, 9, 40, 0
1, 170880, Note_on_c, 9, 36, 110
1, 171359, Note_on_c, 9, 36, 0
1, 171360, Note_on_c, 9, 40, 110
1, 171479, Note_on_c, 9, 40, 0
1, 171480, Note_on_c, 9, 40, 62
1, 171719, Note_on_c, 9, 40, 0
1, 171720, Note_on_c, 9, 40, 62
1, 171839, Note_on_c, 9, 40, 0
1, 171960, Note_on_c, 9, 40, 75
1, 172080, Note_on_c, 9, 36, 110
1, 172319, Note_on_c, 9, 40, 0
1, 172319, Note_on_c, 9, 36, 0
1, 172320, Note_on_c, 9, 40, 110
1, 172799, Note_on_c, 9, 40, 0
1, 172800, Note_on_c, 9, 36, 110
1, 173279, Note_on_c, 9, 36, 0
1, 173280, Note_on_c, 9, 40, 110
1, 173759, Note_on_c, 9, 40, 0
1, 173760, Note_on_c, 9, 36, 110
1, 174239, Note_on_c, 9, 36, 0
1, 174240, Note_on_c, 9, 40, 110
1, 174719, Note_on_c, 9, 40, 0
1, 174720, Note_on_c, 9, 36, 110
1, 175199, Note_on_c, 9, 36, 0
1, 175200, Note_on_c, 9, 40, 110
1, 175679, Note_on_c, 9, 40, 0
1, 175680, Note_on_c, 9, 36, 110
1, 176159, Note_on_c, 9, 36, 0
1, 176160, Note_on_c, 9, 40, 110
1, 176639, Note_on_c, 9, 40, 0
1, 176640, Note_on_c, 9, 36, 110
1, 177119, Note_on_c, 9, 36, 0
1, 177120, Note_on_c, 9, 40, 110
1, 177239, Note_on_c, 9, 40, 0
1, 177240, Note_on_c, 9, 40, 62
1, 177479, Note_on_c, 9, 40, 0
1, 177480, Note_on_c, 9, 40, 62
1, 177599, Note_on_c, 9, 40, 0
1, 177720, Note_on_c, 9, 40, 75
1, 177840, Note_on_c, 9, 36, 110
1, 178079, Note_on_c, 9, 40, 0
1, 178079, Note_on_c, 9, 36, 0
1, 178080, Note_on_c, 9, 40, 110
1, 178319, Note_on_c, 9, 40, 0
1, 178380, Note_on_c, 9, 40, 50
1, 178439, Note_on_c, 9, 40, 0
1, 178440, Note_on_c, 9, 40, 50
1, 178499, Note_on_c, 9, 40, 0
1, 178500, Note_on_c, 9, 40, 50
1, 178559, Note_on_c, 9, 40, 0
1, 178560, Note_on_c, 9, 36, 110
1, 179039, Note_on_c, 9, 36, 0
1, 179040, Note_on_c, 9, 40, 110
1, 179159, Note_on_c, 9, 40, 0
1, 179160, Note_on_c, 9, 40, 62
1, 179399, Note_on_c, 9, 40, 0
1, 179400, Note_on_c, 9, 40, 62
1, 179519, Note_on_c, 9, 40, 0
1, 179640, Note_on_c, 9, 40, 75
1, 179760, Note_on_c, 9, 36, 110
1, 179999, Note_on_c, 9, 40, 0
1, 179999, Note_on_c, 9, 36, 0
1, 180000, Note_on_c, 9, 40, 110
1, 180239, Note_on_c, 9, 40, 0
1, 180300, Note_on_c, 9, 40, 50
1, 180359, Note_on_c, 9, 40, 0
1, 180360, Note_on_c, 9, 40, 50
1, 180419, Note_on_c, 9, 40, 0
1, 180420, Note_on_c, 9, 40, 50
1, 180479, Note_on_c, 9, 40, 0
1, 180480, Note_on_c, 9, 36, 110
1, 180959, Note_on_c, 9, 36, 0
1, 180960, Note_on_c, 9, 40, 110
1, 181079, Note_on_c, 9, 40, 0
1, 181080, Note_on_c, 9, 40, 62
1, 181319, Note_on_c, 9, 40, 0
1, 181320, Note_on_c, 9, 40, 62
1, 181439, Note_on_c, 9, 40, 0
1, 181560, Note_on_c, 9, 40, 75
1, 181680, Note_on_c, 9, 36, 110
1, 181919, Note_on_c, 9, 40, 0
1, 181919, Note_on_c, 9, 36, 0
1, 181920, Note_on_c, 9, 40, 110
1, 182159, Note_on_c, 9, 40, 0
1, 182220, Note_on_c, 9, 40, 50
1, 182279, Note_on_c, 9, 40, 0
1, 182280, Note_on_c, 9, 40, 50
1, 182339, Note_on_c, 9, 40, 0
1, 182340, Note_on_c, 9, 40, 50
1, 182399, Note_on_c, 9, 40, 0
1, 182400, Note_on_c, 9, 36, 110
1, 182879, Note_on_c, 9, 36, 0
1, 182880, Note_on_c, 9, 40, 110
1, 182999, Note_on_c, 9, 40, 0
1, 183000, Note_on_c, 9, 40, 62
1, 183239, Note_on_c, 9, 40, 0
1, 183240, Note_on_c, 9, 40, 62
1, 183359, Note_on_c, 9, 40, 0
1, 183480, Note_on_c, 9, 40, 75
1, 183600, Note_on_c, 9, 36, 110
1, 183839, Note_on_c, 9, 40, 0
1, 183839, Note_on_c, 9, 36, 0
1, 183840, Note_on_c, 9, 40, 110
1, 184079, Note_on_c, 9, 40, 0
1, 184140, Note_on_c, 9, 40, 50
1, 184199, Note_on_c, 9, 40, 0
1, 184200, Note_on_c, 9, 40, 50
1, 184259, Note_on_c, 9, 40, 0
1, 184260, Note_on_c, 9, 40, 50
1, 184319, Note_on_c, 9, 40, 0
1, 184320, Note_on_c, 9, 36, 110
1, 184799, Note_on_c, 9, 36, 0
1, 184800, Note_on_c, 9, 40, 110
1, 184919, Note_on_c, 9, 40, 0
1, 184920, Note_on_c, 9, 40, 62
1, 185159, Note_on_c, 9, 40, 0
1, 185160, Note_on_c, 9, 40, 62
1, 185279, Note_on_c, 9, 40, 0
1, 185400, Note_on_c, 9, 40, 75
1, 185520, Note_on_c, 9, 36, 110
1, 185759, Note_on_c, 9, 40, 0
1, 185759, Note_on_c, 9, 36, 0
1, 185760, Note_on_c, 9, 40, 110
1, 185999, Note_on_c, 9, 40, 0
1, 186060, Note_on_c, 9, 40, 50
1, 186119, Note_on_c, 9, 40, 0
1, 186120, Note_on_c, 9, 40, 50
1, 186179, Note_on_c, 9, 40, 0
1, 186180, Note_on_c, 9, 40, 50
1, 186239, Note_on_c, 9, 40, 0
1, 186240, Note_on_c, 9, 36, 110
1, 186719, Note_on_c, 9, 36, 0
1, 186720, Note_on_c, 9, 40, 110
1, 186839, Note_on_c, 9, 40, 0
1, 186840, Note_on_c, 9, 40, 62
1, 187079, Note_on_c, 9, 40, 0
1, 187080, Note_on_c, 9, 40, 62
1, 187199, Note_on_c, 9, 40, 0
1, 187320, Note_on_c, 9, 40, 75
1, 187440, Note_on_c, 9, 36, 110
1, 187679, Note_on_c, 9, 40, 0
1, 187679, Note_on_c, 9, 36, 0
1, 187680, Note_on_c, 9, 40, 110
1, 187919, Note_on_c, 9, 40, 0
1, 187980, Note_on_c, 9, 40, 50
1, 188039, Note_on_c, 9, 40, 0
1, 188040, Note_on_c, 9, 40, 50
1, 188099, Note_on_c, 9, 40, 0
1, 188100, Note_on_c, 9, 40, 50
1, 188159, Note_on_c, 9, 40, 0
1, 188160, Note_on_c, 9, 49, 100
1, 188160, Note_on_c, 9, 36, 100
1, 188177, Note_on_c, 9, 49, 0
1, 188639, Note_on_c, 9, 36, 0
1, 195660, Note_on_c, 9, 40, 50
1, 195719, Note_on_c, 9, 40, 0
1, 195720, Note_on_c, 9, 40, 50
1, 195779, Note_on_c, 9, 40, 0
1, 195780, Note_on_c, 9, 40, 50
1, 195839, Note_on_c, 9, 40, 0
1, 195840, Note_on_c, 9, 36, 110
1, 196319, Note_on_c, 9, 36, 0
1, 196320, Note_on_c, 9, 40, 110
1, 196439, Note_on_c, 9, 40, 0
1, 196440, Note_on_c, 9, 40, 62
1, 196679, Note_on_c, 9, 40, 0
1, 196680, Note_on_c, 9, 40, 62
1, 196799, Note_on_c, 9, 40, 0
1, 196920, Note_on_c, 9, 40, 75
1, 197040, Note_on_c, 9, 36, 110
1, 197279, Note_on_c, 9, 40, 0
1, 197279, Note_on_c, 9, 36, 0
1, 197280, Note_on_c, 9, 40, 110
1, 197519, Note_on_c, 9, 40, 0
1, 197580, Note_on_c, 9, 40, 50
1, 197639, Note_on_c, 9, 40, 0
1, 197640, Note_on_c, 9, 40, 50
1, 197699, Note_on_c, 9, 40, 0
1, 197700, Note_on_c, 9, 40, 50
1, 197759, Note_on_c, 9, 40, 0
1, 197760, Note_on_c, 9, 36, 110
1, 198239, Note_on_c, 9, 36, 0
1, 198240, Note_on_c, 9, 40, 110
1, 198359, Note_on_c, 9, 40, 0
1, 198360, Note_on_c, 9, 40, 62
1, 198599, Note_on_c, 9, 40, 0
1, 198600, Note_on_c, 9, 40, 62
1, 198719, Note_on_c, 9, 40, 0
1, 198840, Note_on_c, 9, 40, 75
1, 198960, Note_on_c, 9, 36, 110
1, 199199, Note_on_c, 9, 40, 0
1, 199199, Note_on_c, 9, 36, 0
1, 199200, Note_on_c, 9, 40, 110
1, 199439, Note_on_c, 9, 40, 0
1, 199500, Note_on_c, 9, 40, 50
1, 199559, Note_on_c, 9, 40, 0
1, 199560, Note_on_c, 9, 40, 50
1, 199619, Note_on_c, 9, 40, 0
1, 199620, Note_on_c, 9, 40, 50
1, 199679, Note_on_c, 9, 40, 0
1, 199680, Note_on_c, 9, 36, 110
1, 200159, Note_on_c, 9, 36, 0
1, 200160, Note_on_c, 9, 40, 110
1, 200279, Note_on_c, 9, 40, 0
1, 200280, Note_on_c, 9, 40, 62
1, 200519, Note_on_c, 9, 40, 0
1, 200520, Note_on_c, 9, 40, 62
1, 200639, Note_on_c, 9, 40, 0
1, 200760, Note_on_c, 9, 40, 75
1, 200880, Note_on_c, 9, 36, 110
1, 201119, Note_on_c, 9, 40, 0
1, 201119, Note_on_c, 9, 36, 0
1, 201120, Note_on_c, 9, 40, 110
1, 201359, Note_on_c, 9, 40, 0
1, 201420, Note_on_c, 9, 40, 50
1, 201479, Note_on_c, 9, 40, 0
1, 201480, Note_on_c, 9, 40, 50
1, 201539, Note_on_c, 9, 40, 0
1, 201540, Note_on_c, 9, 40, 50
1, 201599, Note_on_c, 9, 40, 0
1, 201600, Note_on_c, 9, 36, 110
1, 202079, Note_on_c, 9, 36, 0
1, 202080, Note_on_c, 9, 40, 110
1, 202199, Note_on_c, 9, 40, 0
1, 202200, Note_on_c, 9, 40, 62
1, 202439, Note_on_c, 9, 40, 0
1, 202440, Note_on_c, 9, 40, 62
1, 202559, Note_on_c, 9, 40, 0
1, 202680, Note_on_c, 9, 40, 75
1, 202800, Note_on_c, 9, 36, 110
1, 203039, Note_on_c, 9, 40, 0
1, 203039, Note_on_c, 9, 36, 0
1, 203040, Note_on_c, 9, 40, 110
1, 203519, Note_on_c, 9, 40, 0
1, 203520, Note_on_c, 9, 36, 110
1, 203999, Note_on_c, 9, 36, 0
1, 204000, Note_on_c, 9, 40, 110
1, 204479, Note_on_c, 9, 40, 0
1, 204480, Note_on_c, 9, 36, 110
1, 204959, Note_on_c, 9, 36, 0
1, 204960, Note_on_c, 9, 40, 110
1, 205439, Note_on_c, 9, 40, 0
1, 205440, Note_on_c, 9, 36, 110
1, 205919, Note_on_c, 9, 36, 0
1, 205920, Note_on_c, 9, 40, 110
1, 206399, Note_on_c, 9, 40, 0
1, 206400, Note_on_c, 9, 36, 110
1, 206879, Note_on_c, 9, 36, 0
1, 206880, Note_on_c, 9, 40, 110
1, 207359, Note_on_c, 9, 40, 0
1, 207360, Note_on_c, 9, 36, 110
1, 207839, Note_on_c, 9, 36, 0
1, 207840, Note_on_c, 9, 40, 110
1, 207959, Note_on_c, 9, 40, 0
1, 207960, Note_on_c, 9, 40, 62
1, 208199, Note_on_c, 9, 40, 0
1, 208200, Note_on_c, 9, 40, 62
1, 208319, Note_on_c, 9, 40, 0
1, 208440, Note_on_c, 9, 40, 75
1, 208560, Note_on_c, 9, 36, 110
1, 208799, Note_on_c, 9, 40, 0
1, 208799, Note_on_c, 9, 36, 0
1, 208800, Note_on_c, 9, 40, 110
1, 209039, Note_on_c, 9, 40, 0
1, 209100, Note_on_c, 9, 40, 50
1, 209159, Note_on_c, 9, 40, 0
1, 209160, Note_on_c, 9, 40, 50
1, 209219, Note_on_c, 9, 40, 0
1, 209220, Note_on_c, 9, 40, 50
1, 209279, Note_on_c, 9, 40, 0
1, 209280, Note_on_c, 9, 36, 110
1, 209759, Note_on_c, 9, 36, 0
1, 209760, Note_on_c, 9, 40, 110
1, 209879, Note_on_c, 9, 40, 0
1, 209880, Note_on_c, 9, 40, 62
1, 210119, Note_on_c, 9, 40, 0
1, 210120, Note_on_c, 9, 40, 62
1, 210239, Note_on_c, 9, 40, 0
1, 210360, Note_on_c, 9, 40, 75
1, 210480, Note_on_c, 9, 36, 110
1, 210719, Note_on_c, 9, 40, 0
1, 210719, Note_on_c, 9, 36, 0
1, 210720, Note_on_c, 9, 40, 110
1, 210959, Note_on_c, 9, 40, 0
1, 211020, Note_on_c, 9, 40, 50
1, 211079, Note_on_c, 9, 40, 0
1, 211080, Note_on_c, 9, 40, 50
1, 211139, Note_on_c, 9, 40, 0
1, 211140, Note_on_c, 9, 40, 50
1, 211199, Note_on_c, 9, 40, 0
1, 211200, Note_on_c, 9, 36, 110
1, 211679, Note_on_c, 9, 36, 0
1, 211680, Note_on_c, 9, 40, 110
1, 211799, Note_on_c, 9, 40, 0
1, 211800, Note_on_c, 9, 40, 62
1, 212039, Note_on_c, 9, 40, 0
1, 212040, Note_on_c, 9, 40, 62
1, 212159, Note_on_c, 9, 40, 0
1, 212280, Note_on_c, 9, 40, 75
1, 212400, Note_on_c, 9, 36, 110
1, 212639, Note_on_c, 9, 40, 0
1, 212639, Note_on_c, 9, 36, 0
1, 212640, Note_on_c, 9, 40, 110
1, 212879, Note_on_c, 9, 40, 0
1, 212940, Note_on_c, 9, 40, 50
1, 212999, Note_on_c, 9, 40, 0
1, 213000, Note_on_c, 9, 40, 50
1, 213059, Note_on_c, 9, 40, 0
1, 213060, Note_on_c, 9, 40, 50
1, 213119, Note_on_c, 9, 40, 0
1, 213120, Note_on_c, 9, 36, 110
1, 213599, Note_on_c, 9, 36, 0
1, 213600, Note_on_c, 9, 40, 110
1, 213719, Note_on_c, 9, 40, 0
1, 213720, Note_on_c, 9, 40, 62
1, 213959, Note_on_c, 9, 40, 0
1, 213960, Note_on_c, 9, 40, 62
1, 214079, Note_on_c, 9, 40, 0
1, 214200, Note_on_c, 9, 40, 75
1, 214320, Note_on_c, 9, 36, 110
1, 214559, Note_on_c, 9, 40, 0
1, 214559, Note_on_c, 9, 36, 0
1, 214560, Note_on_c, 9, 40, 110
1, 214799, Note_on_c, 9, 40, 0
1, 214860, Note_on_c, 9, 40, 50
1, 214919, Note_on_c, 9, 40, 0
1, 214920, Note_on_c, 9, 40, 50
1, 214979, Note_on_c, 9, 40, 0
1, 214980, Note_on_c, 9, 40, 50
1, 215039, Note_on_c, 9, 40, 0
1, 215040, Note_on_c, 9, 36, 110
1, 215519, Note_on_c, 9, 36, 0
1, 215520, Note_on_c, 9, 40, 110
1, 215639, Note_on_c, 9, 40, 0
1, 215640, Note_on_c, 9, 40, 62
1, 215879, Note_on_c, 9, 40, 0
1, 215880, Note_on_c, 9, 40, 62
1, 215999, Note_on_c, 9, 40, 0
1, 216120, Note_on_c, 9, 40, 75
1, 216240, Note_on_c, 9, 36, 110
1, 216479, Note_on_c, 9, 40, 0
1, 216479, Note_on_c, 9, 36, 0
1, 216480, Note_on_c, 9, 40, 110
1, 216719, Note_on_c, 9, 40, 0
1, 216780, Note_on_c, 9, 40, 50
1, 216839, Note_on_c, 9, 40, 0
1, 216840, Note_on_c, 9, 40, 50
1, 216899, Note_on_c, 9, 40, 0
1, 216900, Note_on_c, 9, 40, 50
1, 216959, Note_on_c, 9, 40, 0
1, 216960, Note_on_c, 9, 36, 110
1, 217439, Note_on_c, 9, 36, 0
1, 217440, Note_on_c, 9, 40, 110
1, 217559, Note_on_c, 9, 40, 0
1, 217560, Note_on_c, 9, 40, 62
1, 217799, Note_on_c, 9, 40, 0
1, 217800, Note_on_c, 9, 40, 62
1, 217919, Note_on_c, 9, 40, 0
1, 218040, Note_on_c, 9, 40, 75
1, 218160, Note_on_c, 9, 36, 110
1, 218399, Note_on_c, 9, 40, 0
1, 218399, Note_on_c, 9, 36, 0
1, 218400, Note_on_c, 9, 40, 110
1, 218639, Note_on_c, 9, 40, 0
1, 218700, Note_on_c, 9, 40, 50
1, 218759, Note_on_c, 9, 40, 0
1, 218760, Note_on_c, 9, 40, 50
1, 218819, Note_on_c, 9, 40, 0
1, 218820, Note_on_c, 9, 40, 50
1, 218879, Note_on_c, 9, 40, 0
1, 218880, Note_on_c, 9, 36, 110
1, 219359, Note_on_c, 9, 36, 0
1, 219360, Note_on_c, 9, 40, 110
1, 219479, Note_on_c, 9, 40, 0
1, 219480, Note_on_c, 9, 40, 62
1, 219719, Note_on_c, 9, 40, 0
1, 219720, Note_on_c, 9, 40, 62
1, 219839, Note_on_c, 9, 40, 0
1, 219960, Note_on_c, 9, 40, 75
1, 220080, Note_on_c, 9, 36, 110
1, 220319, Note_on_c, 9, 40, 0
1, 220319, Note_on_c, 9, 36, 0
1, 220320, Note_on_c, 9, 40, 110
1, 220559, Note_on_c, 9, 40, 0
1, 220620, Note_on_c, 9, 40, 50
1, 220679, Note_on_c, 9, 40, 0
1, 220680, Note_on_c, 9, 40, 50
1, 220739, Note_on_c, 9, 40, 0
1, 220740, Note_on_c, 9, 40, 50
1, 220799, Note_on_c, 9, 40, 0
1, 220800, Note_on_c, 9, 36, 110
1, 221279, Note_on_c, 9, 36, 0
1, 221280, Note_on_c, 9, 40, 110
1, 221399, Note_on_c, 9, 40, 0
1, 221400, Note_on_c, 9, 40, 62
1, 221639, Note_on_c, 9, 40, 0
1, 221640, Note_on_c, 9, 40, 62
1, 221759, Note_on_c, 9, 40, 0
1, 221880, Note_on_c, 9, 40, 75
1, 222000, Note_on_c, 9, 36, 110
1, 222239, Note_on_c, 9, 40, 0
1, 222239, Note_on_c, 9, 36, 0
1, 222240, Note_on_c, 9, 40, 110
1, 222719, Note_on_c, 9, 40, 0
1, 222720, Note_on_c, 9, 36, 110
1, 223199, Note_on_c, 9, 36, 0
1, 223200, Note_on_c, 9, 40, 110
1, 223679, Note_on_c, 9, 40, 0
1, 223680, Note_on_c, 9, 36, 110
1, 224159, Note_on_c, 9, 36, 0
1, 224160, Note_on_c, 9, 40, 110
1, 224639, Note_on_c, 9, 40, 0
1, 224640, Note_on_c, 9, 36, 110
1, 225119, Note_on_c, 9, 36, 0
1, 225120, Note_on_c, 9, 40, 110
1, 225599, Note_on_c, 9, 40, 0
1, 225600, Note_on_c, 9, 36, 110
1, 225960, Note_on_c, 9, 40, 107
1, 226079, Note_on_c, 9, 36, 0
1, 226079, Note_on_c, 9, 40, 0
1, 226080, Note_on_c, 9, 40, 127
1, 226320, Note_on_c, 9, 36, 100
1, 226559, Note_on_c, 9, 40, 0
1, 226559, Note_on_c, 9, 36, 0
1, 226560, Note_on_c, 9, 36, 110
1, 227039, Note_on_c, 9, 36, 0
1, 227040, Note_on_c, 9, 40, 118
1, 227159, Note_on_c, 9, 40, 0
1, 227160, Note_on_c, 9, 40, 62
1, 227280, Note_on_c, 9, 36, 100
1, 227399, Note_on_c, 9, 40, 0
1, 227400, Note_on_c, 9, 40, 119
1, 227519, Note_on_c, 9, 36, 0
1, 227519, Note_on_c, 9, 40, 0
1, 227520, Note_on_c, 9, 36, 100
1, 227640, Note_on_c, 9, 40, 110
1, 227759, Note_on_c, 9, 36, 0
1, 227760, Note_on_c, 9, 36, 110
1, 227999, Note_on_c, 9, 40, 0
1, 227999, Note_on_c, 9, 36, 0
1, 228000, Note_on_c, 9, 40, 118
1, 228239, Note_on_c, 9, 40, 0
1, 228300, Note_on_c, 9, 40, 50
1, 228359, Note_on_c, 9, 40, 0
1, 228360, Note_on_c, 9, 40, 50
1, 228419, Note_on_c, 9, 40, 0
1, 228420, Note_on_c, 9, 40, 50
1, 228479, Note_on_c, 9, 40, 0
1, 228480, Note_on_c, 9, 36, 110
1, 228959, Note_on_c, 9, 36, 0
1, 228960, Note_on_c, 9, 40, 118
1, 229079, Note_on_c, 9, 40, 0
1, 229080, Note_on_c, 9, 40, 62
1, 229200, Note_on_c, 9, 36, 100
1, 229319, Note_on_c, 9, 40, 0
1, 229320, Note_on_c, 9, 40, 119
1, 229439, Note_on_c, 9, 36, 0
1, 229439, Note_on_c, 9, 40, 0
1, 229440, Note_on_c, 9, 36, 100
1, 229560, Note_on_c, 9, 40, 110
1, 229679, Note_on_c, 9, 36, 0
1, 229680, Note_on_c, 9, 36, 110
1, 229919, Note_on_c, 9, 40, 0
1, 229919, Note_on_c, 9, 36, 0
1, 229920, Note_on_c, 9, 40, 118
1, 230159, Note_on_c, 9, 40, 0
1, 230220, Note_on_c, 9, 40, 50
1, 230279, Note_on_c, 9, 40, 0
1, 230280, Note_on_c, 9, 40, 50
1, 230339, Note_on_c, 9, 40, 0
1, 230340, Note_on_c, 9, 40, 50
1, 230399, Note_on_c, 9, 40, 0
1, 230400, Note_on_c, 9, 36, 110
1, 230879, Note_on_c, 9, 36, 0
1, 230880, Note_on_c, 9, 40, 118
1, 230999, Note_on_c, 9, 40, 0
1, 231000, Note_on_c, 9, 40, 62
1, 231120, Note_on_c, 9, 36, 100
1, 231239, Note_on_c, 9, 40, 0
1, 231240, Note_on_c, 9, 40, 119
1, 231359, Note_on_c, 9, 36, 0
1, 231359, Note_on_c, 9, 40, 0
1, 231360, Note_on_c, 9, 36, 100
1, 231480, Note_on_c, 9, 40, 110
1, 231599, Note_on_c, 9, 36, 0
1, 231600, Note_on_c, 9, 36, 110
1, 231839, Note_on_c, 9, 40, 0
1, 231839, Note_on_c, 9, 36, 0
1, 231840, Note_on_c, 9, 40, 118
1, 232079, Note_on_c, 9, 40, 0
1, 232140, Note_on_c, 9, 40, 50
1, 232199, Note_on_c, 9, 40, 0
1, 232200, Note_on_c, 9, 40, 50
1, 232259, Note_on_c, 9, 40, 0
1, 232260, Note_on_c, 9, 40, 50
1, 232319, Note_on_c, 9, 40, 0
1, 232320, Note_on_c, 9, 36, 110
1, 232799, Note_on_c, 9, 36, 0
1, 232800, Note_on_c, 9, 40, 118
1, 232919, Note_on_c, 9, 40, 0
1, 232920, Note_on_c, 9, 40, 62
1, 233040, Note_on_c, 9, 36, 100
1, 233159, Note_on_c, 9, 40, 0
1, 233160, Note_on_c, 9, 40, 119
1, 233279, Note_on_c, 9, 36, 0
1, 233279, Note_on_c, 9, 40, 0
1, 233280, Note_on_c, 9, 36, 100
1, 233400, Note_on_c, 9, 40, 110
1, 233519, Note_on_c, 9, 36, 0
1, 233520, Note_on_c, 9, 36, 110
1, 233759, Note_on_c, 9, 40, 0
1, 233759, Note_on_c, 9, 36, 0
1, 233760, Note_on_c, 9, 40, 118
1, 233999, Note_on_c, 9, 40, 0
1, 234060, Note_on_c, 9, 40, 50
1, 234119, Note_on_c, 9, 40, 0
1, 234120, Note_on_c, 9, 40, 50
1, 234179, Note_on_c, 9, 40, 0
1, 234180, Note_on_c, 9, 40, 50
1, 234239, Note_on_c, 9, 40, 0
1, 234240, Note_on_c, 9, 36, 110
1, 234719, Note_on_c, 9, 36, 0
1, 234720, Note_on_c, 9, 40, 118
1, 234839, Note_on_c, 9, 40, 0
1, 234840, Note_on_c, 9, 40, 62
1, 234960, Note_on_c, 9, 36, 100
1, 235079, Note_on_c, 9, 40, 0
1, 235080, Note_on_c, 9, 40, 119
1, 235199, Note_on_c, 9, 36, 0
1, 235199, Note_on_c, 9, 40, 0
1, 235200, Note_on_c, 9, 36, 100
1, 235320, Note_on_c, 9, 40, 110
1, 235439, Note_on_c, 9, 36, 0
1, 235440, Note_on_c, 9, 36, 110
1, 235679, Note_on_c, 9, 40, 0
1, 235679, Note_on_c, 9, 36, 0
1, 235680, Note_on_c, 9, 40, 118
1, 235919, Note_on_c, 9, 40, 0
1, 235980, Note_on_c, 9, 40, 50
1, 236039, Note_on_c, 9, 40, 0
1, 236040, Note_on_c, 9, 40, 50
1, 236099, Note_on_c, 9, 40, 0
1, 236100, Note_on_c, 9, 40, 50
1, 236159, Note_on_c, 9, 40, 0
1, 236160, Note_on_c, 9, 36, 110
1, 236639, Note_on_c, 9, 36, 0
1, 236640, Note_on_c, 9, 40, 118
1, 236759, Note_on_c, 9, 40, 0
1, 236760, Note_on_c, 9, 40, 62
1, 236880, Note_on_c, 9, 36, 100
1, 236999, Note_on_c, 9, 40, 0
1, 237000, Note_on_c, 9, 40, 119
1, 237119, Note_on_c, 9, 36, 0
1, 237119, Note_on_c, 9, 40, 0
1, 237120, Note_on_c, 9, 36, 100
1, 237240, Note_on_c, 9, 40, 110
1, 237359, Note_on_c, 9, 36, 0
1, 237360, Note_on_c, 9, 36, 110
1, 237599, Note_on_c, 9, 40, 0
1, 237599, Note_on_c, 9, 36, 0
1, 237600, Note_on_c, 9, 40, 118
1, 237839, Note_on_c, 9, 40, 0
1, 237900, Note_on_c, 9, 40, 50
1, 237959, Note_on_c, 9, 40, 0
1, 237960, Note_on_c, 9, 40, 50
1, 238019, Note_on_c, 9, 40, 0
1, 238020, Note_on_c, 9, 40, 50
1, 238079, Note_on_c, 9, 40, 0
1, 238080, Note_on_c, 9, 36, 110
1, 238559, Note_on_c, 9, 36, 0
1, 238560, Note_on_c, 9, 40, 118
1, 238679, Note_on_c, 9, 40, 0
1, 238680, Note_on_c, 9, 40, 62
1, 238800, Note_on_c, 9, 36, 100
1, 238919, Note_on_c, 9, 40, 0
1, 238920, Note_on_c, 9, 40, 119
1, 239039, Note_on_c, 9, 36, 0
1, 239039, Note_on_c, 9, 40, 0
1, 239040, Note_on_c, 9, 36, 100
1, 239160, Note_on_c, 9, 40, 110
1, 239279, Note_on_c, 9, 36, 0
1, 239280, Note_on_c, 9, 36, 110
1, 239519, Note_on_c, 9, 40, 0
1, 239519, Note_on_c, 9, 36, 0
1, 239520, Note_on_c, 9, 40, 118
1, 239759, Note_on_c, 9, 40, 0
1, 239820, Note_on_c, 9, 40, 50
1, 239879, Note_on_c, 9, 40, 0
1, 239880, Note_on_c, 9, 40, 50
1, 239939, Note_on_c, 9, 40, 0
1, 239940, Note_on_c, 9, 40, 50
1, 239999, Note_on_c, 9, 40, 0
1, 240000, Note_on_c, 9, 36, 110
1, 240479, Note_on_c, 9, 36, 0
1, 240480, Note_on_c, 9, 40, 118
1, 240599, Note_on_c, 9, 40, 0
1, 240600, Note_on_c, 9, 40, 62
1, 240720, Note_on_c, 9, 36, 100
1, 240839, Note_on_c, 9, 40, 0
1, 240840, Note_on_c, 9, 40, 119
1, 240959, Note_on_c, 9, 36, 0
1, 240959, Note_on_c, 9, 40, 0
1, 240960, Note_on_c, 9, 36, 100
1, 241080, Note_on_c, 9, 40, 110
1, 241199, Note_on_c, 9, 36, 0
1, 241200, Note_on_c, 9, 36, 110
1, 241439, Note_on_c, 9, 40, 0
1, 241439, Note_on_c, 9, 36, 0
1, 241440, Note_on_c, 9, 40, 118
1, 241679, Note_on_c, 9, 40, 0
1, 241740, Note_on_c, 9, 40, 50
1, 241799, Note_on_c, 9, 40, 0
1, 241800, Note_on_c, 9, 40, 50
1, 241859, Note_on_c, 9, 40, 0
1, 241860, Note_on_c, 9, 40, 50
1, 241919, Note_on_c, 9, 40, 0
1, 241920, Note_on_c, 9, 36, 110
1, 242399, Note_on_c, 9, 36, 0
1, 242400, Note_on_c, 9, 40, 118
1, 242519, Note_on_c, 9, 40, 0
1, 242520, Note_on_c, 9, 40, 62
1, 242640, Note_on_c, 9, 36, 100
1, 242759, Note_on_c, 9, 40, 0
1, 242760, Note_on_c, 9, 40, 119
1, 242879, Note_on_c, 9, 36, 0
1, 242879, Note_on_c, 9, 40, 0
1, 242880, Note_on_c, 9, 36, 100
1, 243000, Note_on_c, 9, 40, 110
1, 243119, Note_on_c, 9, 36, 0
1, 243120, Note_on_c, 9, 36, 110
1, 243359, Note_on_c, 9, 40, 0
1, 243359, Note_on_c, 9, 36, 0
1, 243360, Note_on_c, 9, 40, 118
1, 243599, Note_on_c, 9, 40, 0
1, 243660, Note_on_c, 9, 40, 50
1, 243719, Note_on_c, 9, 40, 0
1, 243720, Note_on_c, 9, 40, 50
1, 243779, Note_on_c, 9, 40, 0
1, 243780, Note_on_c, 9, 40, 50
1, 243839, Note_on_c, 9, 40, 0
1, 243840, Note_on_c, 9, 36, 110
1, 244319, Note_on_c, 9, 36, 0
1, 244320, Note_on_c, 9, 40, 118
1, 244439, Note_on_c, 9, 40, 0
1, 244440, Note_on_c, 9, 40, 62
1, 244560, Note_on_c, 9, 36, 100
1, 244679, Note_on_c, 9, 40, 0
1, 244680, Note_on_c, 9, 40, 119
1, 244799, Note_on_c, 9, 36, 0
1, 244799, Note_on_c, 9, 40, 0
1, 244800, Note_on_c, 9, 36, 100
1, 244920, Note_on_c, 9, 40, 110
1, 245039, Note_on_c, 9, 36, 0
1, 245040, Note_on_c, 9, 36, 110
1, 245279, Note_on_c, 9, 40, 0
1, 245279, Note_on_c, 9, 36, 0
1, 245280, Note_on_c, 9, 40, 118
1, 245519, Note_on_c, 9, 40, 0
1, 245580, Note_on_c, 9, 40, 50
1, 245639, Note_on_c, 9, 40, 0
1, 245640, Note_on_c, 9, 40, 50
1, 245699, Note_on_c, 9, 40, 0
1, 245700, Note_on_c, 9, 40, 50
1, 245759, Note_on_c, 9, 40, 0
1, 245760, Note_on_c, 9, 36, 110
1, 246239, Note_on_c, 9, 36, 0
1, 246240, Note_on_c, 9, 40, 118
1, 246359, Note_on_c, 9, 40, 0
1, 246360, Note_on_c, 9, 40, 62
1, 246480, Note_on_c, 9, 36, 100
1, 246599, Note_on_c, 9, 40, 0
1, 246600, Note_on_c, 9, 40, 119
1, 246719, Note_on_c, 9, 36, 0
1, 246719, Note_on_c, 9, 40, 0
1, 246720, Note_on_c, 9, 36, 100
1, 246840, Note_on_c, 9, 40, 110
1, 246959, Note_on_c, 9, 36, 0
1, 246960, Note_on_c, 9, 36, 110
1, 247199, Note_on_c, 9, 40, 0
1, 247199, Note_on_c, 9, 36, 0
1, 247200, Note_on_c, 9, 40, 118
1, 247439, Note_on_c, 9, 40, 0
1, 247500, Note_on_c, 9, 40, 50
1, 247559, Note_on_c, 9, 40, 0
1, 247560, Note_on_c, 9, 40, 50
1, 247619, Note_on_c, 9, 40, 0
1, 247620, Note_on_c, 9, 40, 50
1, 247679, Note_on_c, 9, 40, 0
1, 247680, Note_on_c, 9, 36, 110
1, 248159, Note_on_c, 9, 36, 0
1, 248160, Note_on_c, 9, 40, 118
1, 248279, Note_on_c, 9, 40, 0
1, 248280, Note_on_c, 9, 40, 62
1, 248400, Note_on_c, 9, 36, 123
1, 248639, Note_on_c, 9, 40, 0
1, 248639, Note_on_c, 9, 36, 0
1, 248640, Note_on_c, 9, 36, 123
1, 248880, Note_on_c, 9, 40, 100
1, 248999, Note_on_c, 9, 40, 0
1, 249000, Note_on_c, 9, 40, 103
1, 249119, Note_on_c, 9, 36, 0
1, 249119, Note_on_c, 9, 40, 0
1, 249120, Note_on_c, 9, 40, 107
1, 249239, Note_on_c, 9, 40, 0
1, 249240, Note_on_c, 9, 40, 110
1, 249359, Note_on_c, 9, 40, 0
1, 249360, Note_on_c, 9, 40, 114
1, 249479, Note_on_c, 9, 40, 0
1, 249480, Note_on_c, 9, 40, 117
1, 249599, Note_on_c, 9, 40, 0
1, 249600, Note_on_c, 9, 36, 110
1, 250079, Note_on_c, 9, 36, 0
1, 250080, Note_on_c, 9, 40, 118
1, 250559, Note_on_c, 9, 40, 0
1, 250560, Note_on_c, 9, 36, 100
1, 251039, Note_on_c, 9, 36, 0
1, 251040, Note_on_c, 9, 40, 118
1, 251279, Note_on_c, 9, 40, 0
1, 251340, Note_on_c, 9, 40, 60
1, 251399, Note_on_c, 9, 40, 0
1, 251400, Note_on_c, 9, 40, 60
1, 251459, Note_on_c, 9, 40, 0
1, 251460, Note_on_c, 9, 40, 60
1, 251519, Note_on_c, 9, 40, 0
1, 251520, Note_on_c, 9, 36, 110
1, 251999, Note_on_c, 9, 36, 0
1, 252000, Note_on_c, 9, 40, 118
1, 252239, Note_on_c, 9, 40, 0
1, 252300, Note_on_c, 9, 40, 60
1, 252359, Note_on_c, 9, 40, 0
1, 252360, Note_on_c, 9, 40, 60
1, 252419, Note_on_c, 9, 40, 0
1, 252420, Note_on_c, 9, 40, 60
1, 252479, Note_on_c, 9, 40, 0
1, 252480, Note_on_c, 9, 36, 100
1, 252959, Note_on_c, 9, 36, 0
1, 252960, Note_on_c, 9, 40, 118
1, 253199, Note_on_c, 9, 40, 0
1, 253260, Note_on_c, 9, 40, 60
1, 253319, Note_on_c, 9, 40, 0
1, 253320, Note_on_c, 9, 40, 60
1, 253379, Note_on_c, 9, 40, 0
1, 253380, Note_on_c, 9, 40, 60
1, 253439, Note_on_c, 9, 40, 0
1, 253440, Note_on_c, 9, 36, 110
1, 253919, Note_on_c, 9, 36, 0
1, 253920, Note_on_c, 9, 40, 118
1, 254399, Note_on_c, 9, 40, 0
1, 254400, Note_on_c, 9, 36, 100
1, 254639, Note_on_c, 9, 36, 0
1, 254640, Note_on_c, 9, 36, 100
1, 254879, Note_on_c, 9, 36, 0
1, 254880, Note_on_c, 9, 40, 118
1, 255119, Note_on_c, 9, 40, 0
1, 255120, Note_on_c, 9, 40, 100
1, 255179, Note_on_c, 9, 40, 0
1, 255180, Note_on_c, 9, 40, 60
1, 255239, Note_on_c, 9, 40, 0
1, 255240, Note_on_c, 9, 40, 60
1, 255299, Note_on_c, 9, 40, 0
1, 255300, Note_on_c, 9, 40, 60
1, 255359, Note_on_c, 9, 40, 0
1, 255360, Note_on_c, 9, 36, 110
1, 255839, Note_on_c, 9, 36, 0
1, 255840, Note_on_c, 9, 40, 118
1, 256079, Note_on_c, 9, 40, 0
1, 256140, Note_on_c, 9, 40, 60
1, 256199, Note_on_c, 9, 40, 0
1, 256200, Note_on_c, 9, 40, 60
1, 256259, Note_on_c, 9, 40, 0
1, 256260, Note_on_c, 9, 40, 60
1, 256319, Note_on_c, 9, 40, 0
1, 256320, Note_on_c, 9, 36, 100
1, 256799, Note_on_c, 9, 36, 0
1, 256800, Note_on_c, 9, 40, 118
1, 257039, Note_on_c, 9, 40, 0
1, 257100, Note_on_c, 9, 40, 60
1, 257159, Note_on_c, 9, 40, 0
1, 257160, Note_on_c, 9, 40, 60
1, 257219, Note_on_c, 9, 40, 0
1, 257220, Note_on_c, 9, 40, 60
1, 257279, Note_on_c, 9, 40, 0
1, 257280, Note_on_c, 9, 36, 110
1, 257759, Note_on_c, 9, 36, 0
1, 257760, Note_on_c, 9, 40, 118
1, 258239, Note_on_c, 9, 40, 0
1, 258240, Note_on_c, 9, 36, 100
1, 258719, Note_on_c, 9, 36, 0
1, 258720, Note_on_c, 9, 40, 118
1, 258959, Note_on_c, 9, 40, 0
1, 259020, Note_on_c, 9, 40, 60
1, 259079, Note_on_c, 9, 40, 0
1, 259080, Note_on_c, 9, 40, 60
1, 259139, Note_on_c, 9, 40, 0
1, 259140, Note_on_c, 9, 40, 60
1, 259199, Note_on_c, 9, 40, 0
1, 259200, Note_on_c, 9, 36, 110
1, 259679, Note_on_c, 9, 36, 0
1, 259680, Note_on_c, 9, 40, 118
1, 259919, Note_on_c, 9, 40, 0
1, 259980, Note_on_c, 9, 40, 60
1, 260039, Note_on_c, 9, 40, 0
1, 260040, Note_on_c, 9, 40, 60
1, 260099, Note_on_c, 9, 40, 0
1, 260100, Note_on_c, 9, 40, 60
1, 260159, Note_on_c, 9, 40, 0
1, 260160, Note_on_c, 9, 36, 100
1, 260639, Note_on_c, 9, 36, 0
1, 260640, Note_on_c, 9, 40, 118
1, 260879, Note_on_c, 9, 40, 0
1, 260940, Note_on_c, 9, 40, 60
1, 260999, Note_on_c, 9, 40, 0
1, 261000, Note_on_c, 9, 40, 60
1, 261059, Note_on_c, 9, 40, 0
1, 261060, Note_on_c, 9, 40, 60
1, 261119, Note_on_c, 9, 40, 0
1, 261120, Note_on_c, 9, 36, 110
1, 261599, Note_on_c, 9, 36, 0
1, 261600, Note_on_c, 9, 40, 118
1, 261839, Note_on_c, 9, 40, 0
1, 261900, Note_on_c, 9, 40, 60
1, 261959, Note_on_c, 9, 40, 0
1, 261960, Note_on_c, 9, 40, 60
1, 262019, Note_on_c, 9, 40, 0
1, 262020, Note_on_c, 9, 40, 60
1, 262079, Note_on_c, 9, 40, 0
1, 262080, Note_on_c, 9, 40, 100
1, 262319, Note_on_c, 9, 40, 0
1, 262320, Note_on_c, 9, 55, 68
1, 262320, Note_on_c, 9, 36, 100
1, 262328, Note_on_c, 9, 55, 0
1, 262559, Note_on_c, 9, 36, 0
1, 262560, Note_on_c, 9, 55, 92
1, 262560, Note_on_c, 9, 36, 100
1, 262568, Note_on_c, 9, 55, 0
1, 262799, Note_on_c, 9, 36, 0
1, 262800, Note_on_c, 9, 55, 112
1, 262800, Note_on_c, 9, 36, 100
1, 262808, Note_on_c, 9, 55, 0
1, 263039, Note_on_c, 9, 36, 0
1, 263040, End_track
0, 0, End_of_file
