0, 0, Header, 1, 1, 480
1, 0, Start_track
1, 0, Title_t, "Drumset"
1, 0, Time_signature, 4, 2, 24, 8
1, 0, Key_signature, 0, "major"
1, 0, Tempo, 576923
1, 0, Control_c, 9, 121, 0
1, 0, Program_c, 9, 0
1, 0, Control_c, 9, 7, 100
1, 0, Control_c, 9, 10, 64
1, 0, Control_c, 9, 91, 0
1, 0, Control_c, 9, 93, 0
1, 0, MIDI_port, 0
1, 240, Note_on_c, 9, 42, 96
1, 240, Note_on_c, 9, 35, 96
1, 243, Note_on_c, 9, 42, 0
1, 360, Note_on_c, 9, 42, 96
1, 363, Note_on_c, 9, 42, 0
1, 479, Note_on_c, 9, 35, 0
1, 480, Note_on_c, 9, 42, 96
1, 483, Note_on_c, 9, 42, 0
1, 600, Note_on_c, 9, 42, 96
1, 603, Note_on_c, 9, 42, 0
1, 720, Note_on_c, 9, 38, 96
1, 720, Note_on_c, 9, 42, 96
1, 723, Note_on_c, 9, 42, 0
1, 839, Note_on_c, 9, 38, 0
1, 840, Note_on_c, 9, 42, 96
1, 843, Note_on_c, 9, 42, 0
1, 960, Note_on_c, 9, 42, 96
1, 963, Note_on_c, 9, 42, 0
1, 1080, Note_on_c, 9, 42, 96
1, 1083, Note_on_c, 9, 42, 0
1, 1200, Note_on_c, 9, 42, 96
1, 1203, Note_on_c, 9, 42, 0
1, 1320, Note_on_c, 9, 42, 96
1, 1323, Note_on_c, 9, 42, 0
1, 1440, Note_on_c, 9, 38, 96
1, 1440, Note_on_c, 9, 42, 96
1, 1443, Note_on_c, 9, 42, 0
1, 1559, Note_on_c, 9, 38, 0
1, 1560, Note_on_c, 9, 42, 96
1, 1563, Note_on_c, 9, 42, 0
1, 1680, Note_on_c, 9, 42, 96
1, 1683, Note_on_c, 9, 42, 0
1, 1800, Note_on_c, 9, 42, 96
1, 1803, Note_on_c, 9, 42, 0
1, 1920, Note_on_c, 9, 46, 96
1, 1928, Note_on_c, 9, 46, 0
1, 2160, Note_on_c, 9, 42, 96
1, 2163, Note_on_c, 9, 42, 0
1, 2280, Note_on_c, 9, 42, 96
1, 2283, Note_on_c, 9, 42, 0
1, 2400, Note_on_c, 9, 42, 96
1, 2400, Note_on_c, 9, 35, 96
1, 2403, Note_on_c, 9, 42, 0
1, 2520, Note_on_c, 9, 42, 96
1, 2523, Note_on_c, 9, 42, 0
1, 2640, Note_on_c, 9, 38, 96
1, 2640, Note_on_c, 9, 42, 96
1, 2643, Note_on_c, 9, 42, 0
1, 2759, Note_on_c, 9, 38, 0
1, 2760, Note_on_c, 9, 42, 96
1, 2763, Note_on_c, 9, 42, 0
1, 2879, Note_on_c, 9, 35, 0
1, 2880, Note_on_c, 9, 42, 96
1, 2883, Note_on_c, 9, 42, 0
1, 3000, Note_on_c, 9, 42, 96
1, 3003, Note_on_c, 9, 42, 0
1, 3120, Note_on_c, 9, 42, 96
1, 3123, Note_on_c, 9, 42, 0
1, 3240, Note_on_c, 9, 42, 96
1, 3243, Note_on_c, 9, 42, 0
1, 3360, Note_on_c, 9, 38, 96
1, 3360, Note_on_c, 9, 42, 96
1, 3363, Note_on_c, 9, 42, 0
1, 3479, Note_on_c, 9, 38, 0
1, 3480, Note_on_c, 9, 42, 96
1, 3483, Note_on_c, 9, 42, 0
1, 3600, Note_on_c, 9, 42, 96
1, 3603, Note_on_c, 9, 42, 0
1, 3720, Note_on_c, 9, 42, 96
1, 3723, Note_on_c, 9, 42, 0
1, 3840, Note_on_c, 9, 42, 96
1, 3843, Note_on_c, 9, 42, 0
1, 3960, Note_on_c, 9, 42, 96
1, 3963, Note_on_c, 9, 42, 0
1, 4080, Note_on_c, 9, 42, 96
1, 4080, Note_on_c, 9, 35, 96
1, 4083, Note_on_c, 9, 42, 0
1, 4200, Note_on_c, 9, 42, 96
1, 4203, Note_on_c, 9, 42, 0
1, 4319, Note_on_c, 9, 35, 0
1, 4320, Note_on_c, 9, 42, 96
1, 4323, Note_on_c, 9, 42, 0
1, 4440, Note_on_c, 9, 42, 96
1, 4443, Note_on_c, 9, 42, 0
1, 4560, Note_on_c, 9, 38, 96
1, 4560, Note_on_c, 9, 42, 96
1, 4563, Note_on_c, 9, 42, 0
1, 4679, Note_on_c, 9, 38, 0
1, 4680, Note_on_c, 9, 42, 96
1, 4683, Note_on_c, 9, 42, 0
1, 4800, Note_on_c, 9, 42, 96
1, 4803, Note_on_c, 9, 42, 0
1, 4920, Note_on_c, 9, 42, 96
1, 4923, Note_on_c, 9, 42, 0
1, 5040, Note_on_c, 9, 42, 96
1, 5043, Note_on_c, 9, 42, 0
1, 5160, Note_on_c, 9, 42, 96
1, 5163, Note_on_c, 9, 42, 0
1, 5280, Note_on_c, 9, 38, 96
1, 5280, Note_on_c, 9, 42, 96
1, 5283, Note_on_c, 9, 42, 0
1, 5399, Note_on_c, 9, 38, 0
1, 5400, Note_on_c, 9, 42, 96
1, 5403, Note_on_c, 9, 42, 0
1, 5520, Note_on_c, 9, 42, 96
1, 5523, Note_on_c, 9, 42, 0
1, 5640, Note_on_c, 9, 42, 96
1, 5643, Note_on_c, 9, 42, 0
1, 5760, Note_on_c, 9, 46, 96
1, 5768, Note_on_c, 9, 46, 0
1, 6000, Note_on_c, 9, 42, 96
1, 6003, Note_on_c, 9, 42, 0
1, 6120, Note_on_c, 9, 42, 96
1, 6123, Note_on_c, 9, 42, 0
1, 6240, Note_on_c, 9, 42, 96
1, 6240, Note_on_c, 9, 35, 96
1, 6243, Note_on_c, 9, 42, 0
1, 6360, Note_on_c, 9, 42, 96
1, 6363, Note_on_c, 9, 42, 0
1, 6480, Note_on_c, 9, 38, 96
1, 6480, Note_on_c, 9, 42, 96
1, 6483, Note_on_c, 9, 42, 0
1, 6599, Note_on_c, 9, 38, 0
1, 6600, Note_on_c, 9, 42, 96
1, 6603, Note_on_c, 9, 42, 0
1, 6719, Note_on_c, 9, 35, 0
1, 6720, Note_on_c, 9, 42, 96
1, 6723, Note_on_c, 9, 42, 0
1, 6840, Note_on_c, 9, 42, 96
1, 6843, Note_on_c, 9, 42, 0
1, 6960, Note_on_c, 9, 42, 96
1, 6963, Note_on_c, 9, 42, 0
1, 7080, Note_on_c, 9, 42, 96
1, 7083, Note_on_c, 9, 42, 0
1, 7200, Note_on_c, 9, 38, 96
1, 7200, Note_on_c, 9, 42, 96
1, 7203, Note_on_c, 9, 42, 0
1, 7319, Note_on_c, 9, 38, 0
1, 7320, Note_on_c, 9, 42, 96
1, 7323, Note_on_c, 9, 42, 0
1, 7440, Note_on_c, 9, 42, 96
1, 7443, Note_on_c, 9, 42, 0
1, 7560, Note_on_c, 9, 42, 96
1, 7563, Note_on_c, 9, 42, 0
1, 7680, Note_on_c, 9, 42, 96
1, 7683, Note_on_c, 9, 42, 0
1, 7800, Note_on_c, 9, 42, 96
1, 7803, Note_on_c, 9, 42, 0
1, 7920, Note_on_c, 9, 42, 96
1, 7920, Note_on_c, 9, 35, 96
1, 7923, Note_on_c, 9, 42, 0
1, 8040, Note_on_c, 9, 42, 96
1, 8043, Note_on_c, 9, 42, 0
1, 8159, Note_on_c, 9, 35, 0
1, 8160, Note_on_c, 9, 42, 96
1, 8163, Note_on_c, 9, 42, 0
1, 8280, Note_on_c, 9, 42, 96
1, 8283, Note_on_c, 9, 42, 0
1, 8400, Note_on_c, 9, 38, 96
1, 8400, Note_on_c, 9, 42, 96
1, 8403, Note_on_c, 9, 42, 0
1, 8519, Note_on_c, 9, 38, 0
1, 8520, Note_on_c, 9, 42, 96
1, 8523, Note_on_c, 9, 42, 0
1, 8640, Note_on_c, 9, 42, 96
1, 8643, Note_on_c, 9, 42, 0
1, 8760, Note_on_c, 9, 42, 96
1, 8763, Note_on_c, 9, 42, 0
1, 8880, Note_on_c, 9, 42, 96
1, 8883, Note_on_c, 9, 42, 0
1, 9000, Note_on_c, 9, 42, 96
1, 9003, Note_on_c, 9, 42, 0
1, 9120, Note_on_c, 9, 38, 96
1, 9120, Note_on_c, 9, 42, 96
1, 9123, Note_on_c, 9, 42, 0
1, 9239, Note_on_c, 9, 38, 0
1, 9240, Note_on_c, 9, 42, 96
1, 9243, Note_on_c, 9, 42, 0
1, 9360, Note_on_c, 9, 42, 96
1, 9363, Note_on_c, 9, 42, 0
1, 9480, Note_on_c, 9, 42, 96
1, 9483, Note_on_c, 9, 42, 0
1, 9600, Note_on_c, 9, 46, 96
1, 9608, Note_on_c, 9, 46, 0
1, 9840, Note_on_c, 9, 42, 96
1, 9843, Note_on_c, 9, 42, 0
1, 9960, Note_on_c, 9, 42, 96
1, 9963, Note_on_c, 9, 42, 0
1, 10080, Note_on_c, 9, 42, 96
1, 10080, Note_on_c, 9, 35, 96
1, 10083, Note_on_c, 9, 42, 0
1, 10200, Note_on_c, 9, 42, 96
1, 10203, Note_on_c, 9, 42, 0
1, 10320, Note_on_c, 9, 38, 96
1, 10320, Note_on_c, 9, 42, 96
1, 10323, Note_on_c, 9, 42, 0
1, 10439, Note_on_c, 9, 38, 0
1, 10440, Note_on_c, 9, 42, 96
1, 10443, Note_on_c, 9, 42, 0
1, 10559, Note_on_c, 9, 35, 0
1, 10560, Note_on_c, 9, 42, 96
1, 10563, Note_on_c, 9, 42, 0
1, 10680, Note_on_c, 9, 42, 96
1, 10683, Note_on_c, 9, 42, 0
1, 10800, Note_on_c, 9, 42, 96
1, 10803, Note_on_c, 9, 42, 0
1, 10920, Note_on_c, 9, 42, 96
1, 10923, Note_on_c, 9, 42, 0
1, 11040, Note_on_c, 9, 38, 96
1, 11040, Note_on_c, 9, 42, 96
1, 11043, Note_on_c, 9, 42, 0
1, 11159, Note_on_c, 9, 38, 0
1, 11160, Note_on_c, 9, 42, 96
1, 11163, Note_on_c, 9, 42, 0
1, 11280, Note_on_c, 9, 42, 96
1, 11283, Note_on_c, 9, 42, 0
1, 11400, Note_on_c, 9, 42, 96
1, 11403, Note_on_c, 9, 42, 0
1, 11520, Note_on_c, 9, 42, 96
1, 11523, Note_on_c, 9, 42, 0
1, 11640, Note_on_c, 9, 42, 96
1, 11643, Note_on_c, 9, 42, 0
1, 11760, Note_on_c, 9, 42, 96
1, 11760, Note_on_c, 9, 35, 96
1, 11763, Note_on_c, 9, 42, 0
1, 11880, Note_on_c, 9, 42, 96
1, 11883, Note_on_c, 9, 42, 0
1, 11999, Note_on_c, 9, 35, 0
1, 12000, Note_on_c, 9, 42, 96
1, 12003, Note_on_c, 9, 42, 0
1, 12120, Note_on_c, 9, 42, 96
1, 12123, Note_on_c, 9, 42, 0
1, 12240, Note_on_c, 9, 38, 96
1, 12240, Note_on_c, 9, 42, 96
1, 12243, Note_on_c, 9, 42, 0
1, 12359, Note_on_c, 9, 38, 0
1, 12360, Note_on_c, 9, 42, 96
1, 12363, Note_on_c, 9, 42, 0
1, 12480, Note_on_c, 9, 42, 96
1, 12483, Note_on_c, 9, 42, 0
1, 12600, Note_on_c, 9, 42, 96
1, 12603, Note_on_c, 9, 42, 0
1, 12720, Note_on_c, 9, 42, 96
1, 12723, Note_on_c, 9, 42, 0
1, 12840, Note_on_c, 9, 42, 96
1, 12843, Note_on_c, 9, 42, 0
1, 12960, Note_on_c, 9, 38, 96
1, 12960, Note_on_c, 9, 42, 96
1, 12963, Note_on_c, 9, 42, 0
1, 13079, Note_on_c, 9, 38, 0
1, 13080, Note_on_c, 9, 42, 96
1, 13083, Note_on_c, 9, 42, 0
1, 13200, Note_on_c, 9, 42, 96
1, 13203, Note_on_c, 9, 42, 0
1, 13320, Note_on_c, 9, 42, 96
1, 13323, Note_on_c, 9, 42, 0
1, 13440, Note_on_c, 9, 46, 96
1, 13448, Note_on_c, 9, 46, 0
1, 13680, Note_on_c, 9, 42, 96
1, 13683, Note_on_c, 9, 42, 0
1, 13800, Note_on_c, 9, 42, 96
1, 13803, Note_on_c, 9, 42, 0
1, 13920, Note_on_c, 9, 42, 96
1, 13920, Note_on_c, 9, 35, 96
1, 13923, Note_on_c, 9, 42, 0
1, 14040, Note_on_c, 9, 42, 96
1, 14043, Note_on_c, 9, 42, 0
1, 14160, Note_on_c, 9, 38, 96
1, 14160, Note_on_c, 9, 42, 96
1, 14163, Note_on_c, 9, 42, 0
1, 14279, Note_on_c, 9, 38, 0
1, 14280, Note_on_c, 9, 42, 96
1, 14283, Note_on_c, 9, 42, 0
1, 14399, Note_on_c, 9, 35, 0
1, 14400, Note_on_c, 9, 42, 96
1, 14403, Note_on_c, 9, 42, 0
1, 14520, Note_on_c, 9, 42, 96
1, 14523, Note_on_c, 9, 42, 0
1, 14640, Note_on_c, 9, 42, 96
1, 14643, Note_on_c, 9, 42, 0
1, 14760, Note_on_c, 9, 42, 96
1, 14763, Note_on_c, 9, 42, 0
1, 14880, Note_on_c, 9, 38, 96
1, 14880, Note_on_c, 9, 42, 96
1, 14883, Note_on_c, 9, 42, 0
1, 14999, Note_on_c, 9, 38, 0
1, 15000, Note_on_c, 9, 42, 96
1, 15003, Note_on_c, 9, 42, 0
1, 15120, Note_on_c, 9, 42, 96
1, 15123, Note_on_c, 9, 42, 0
1, 15240, Note_on_c, 9, 42, 96
1, 15243, Note_on_c, 9, 42, 0
1, 15360, Note_on_c, 9, 42, 96
1, 15363, Note_on_c, 9, 42, 0
1, 15480, Note_on_c, 9, 42, 96
1, 15483, Note_on_c, 9, 42, 0
1, 15600, Note_on_c, 9, 49, 96
1, 15600, Note_on_c, 9, 35, 96
1, 15608, Note_on_c, 9, 49, 0
1, 15839, Note_on_c, 9, 35, 0
1, 15840, Note_on_c, 9, 46, 81
1, 15848, Note_on_c, 9, 46, 0
1, 16080, Note_on_c, 9, 38, 96
1, 16080, Note_on_c, 9, 46, 96
1, 16088, Note_on_c, 9, 46, 0
1, 16319, Note_on_c, 9, 38, 0
1, 16320, Note_on_c, 9, 46, 96
1, 16328, Note_on_c, 9, 46, 0
1, 16560, Note_on_c, 9, 46, 96
1, 16560, Note_on_c, 9, 35, 96
1, 16568, Note_on_c, 9, 46, 0
1, 16799, Note_on_c, 9, 35, 0
1, 16800, Note_on_c, 9, 38, 96
1, 16800, Note_on_c, 9, 46, 96
1, 16808, Note_on_c, 9, 46, 0
1, 17039, Note_on_c, 9, 38, 0
1, 17040, Note_on_c, 9, 46, 96
1, 17048, Note_on_c, 9, 46, 0
1, 17280, Note_on_c, 9, 46, 96
1, 17288, Note_on_c, 9, 46, 0
1, 17520, Note_on_c, 9, 46, 96
1, 17520, Note_on_c, 9, 35, 96
1, 17528, Note_on_c, 9, 46, 0
1, 17759, Note_on_c, 9, 35, 0
1, 17760, Note_on_c, 9, 46, 96
1, 17760, Note_on_c, 9, 35, 96
1, 17768, Note_on_c, 9, 46, 0
1, 18000, Note_on_c, 9, 38, 96
1, 18000, Note_on_c, 9, 46, 96
1, 18008, Note_on_c, 9, 46, 0
1, 18239, Note_on_c, 9, 35, 0
1, 18239, Note_on_c, 9, 38, 0
1, 18240, Note_on_c, 9, 46, 96
1, 18248, Note_on_c, 9, 46, 0
1, 18480, Note_on_c, 9, 46, 96
1, 18480, Note_on_c, 9, 35, 96
1, 18488, Note_on_c, 9, 46, 0
1, 18719, Note_on_c, 9, 35, 0
1, 18720, Note_on_c, 9, 38, 96
1, 18720, Note_on_c, 9, 46, 96
1, 18728, Note_on_c, 9, 46, 0
1, 18959, Note_on_c, 9, 38, 0
1, 18960, Note_on_c, 9, 46, 96
1, 18968, Note_on_c, 9, 46, 0
1, 19200, Note_on_c, 9, 46, 96
1, 19208, Note_on_c, 9, 46, 0
1, 19440, Note_on_c, 9, 46, 96
1, 19440, Note_on_c, 9, 35, 96
1, 19448, Note_on_c, 9, 46, 0
1, 19679, Note_on_c, 9, 35, 0
1, 19680, Note_on_c, 9, 46, 96
1, 19688, Note_on_c, 9, 46, 0
1, 19920, Note_on_c, 9, 38, 96
1, 19920, Note_on_c, 9, 46, 96
1, 19928, Note_on_c, 9, 46, 0
1, 20159, Note_on_c, 9, 38, 0
1, 20160, Note_on_c, 9, 46, 96
1, 20168, Note_on_c, 9, 46, 0
1, 20400, Note_on_c, 9, 46, 96
1, 20400, Note_on_c, 9, 35, 96
1, 20408, Note_on_c, 9, 46, 0
1, 20639, Note_on_c, 9, 35, 0
1, 20640, Note_on_c, 9, 38, 96
1, 20640, Note_on_c, 9, 46, 96
1, 20648, Note_on_c, 9, 46, 0
1, 20879, Note_on_c, 9, 38, 0
1, 20880, Note_on_c, 9, 46, 96
1, 20888, Note_on_c, 9, 46, 0
1, 21120, Note_on_c, 9, 46, 96
1, 21128, Note_on_c, 9, 46, 0
1, 21360, Note_on_c, 9, 38, 96
1, 21360, Note_on_c, 9, 46, 96
1, 21368, Note_on_c, 9, 46, 0
1, 21480, Note_on_c, 9, 35, 96
1, 21599, Note_on_c, 9, 38, 0
1, 21599, Note_on_c, 9, 35, 0
1, 21600, Note_on_c, 9, 46, 96
1, 21600, Note_on_c, 9, 35, 96
1, 21608, Note_on_c, 9, 46, 0
1, 21839, Note_on_c, 9, 35, 0
1, 21840, Note_on_c, 9, 46, 96
1, 21840, Note_on_c, 9, 35, 96
1, 21848, Note_on_c, 9, 46, 0
1, 22079, Note_on_c, 9, 35, 0
1, 22080, Note_on_c, 9, 38, 96
1, 22080, Note_on_c, 9, 46, 96
1, 22088, Note_on_c, 9, 46, 0
1, 22200, Note_on_c, 9, 35, 96
1, 22319, Note_on_c, 9, 38, 0
1, 22319, Note_on_c, 9, 35, 0
1, 22320, Note_on_c, 9, 46, 96
1, 22320, Note_on_c, 9, 35, 96
1, 22328, Note_on_c, 9, 46, 0
1, 22559, Note_on_c, 9, 35, 0
1, 22560, Note_on_c, 9, 46, 96
1, 22560, Note_on_c, 9, 35, 96
1, 22568, Note_on_c, 9, 46, 0
1, 22800, Note_on_c, 9, 38, 96
1, 22800, Note_on_c, 9, 57, 96
1, 22808, Note_on_c, 9, 57, 0
1, 23039, Note_on_c, 9, 35, 0
1, 23039, Note_on_c, 9, 38, 0
1, 23280, Note_on_c, 9, 46, 96
1, 23280, Note_on_c, 9, 35, 96
1, 23288, Note_on_c, 9, 46, 0
1, 23519, Note_on_c, 9, 35, 0
1, 23520, Note_on_c, 9, 46, 96
1, 23528, Note_on_c, 9, 46, 0
1, 23760, Note_on_c, 9, 38, 96
1, 23760, Note_on_c, 9, 46, 96
1, 23768, Note_on_c, 9, 46, 0
1, 23999, Note_on_c, 9, 38, 0
1, 24000, Note_on_c, 9, 46, 96
1, 24008, Note_on_c, 9, 46, 0
1, 24240, Note_on_c, 9, 46, 96
1, 24240, Note_on_c, 9, 35, 96
1, 24248, Note_on_c, 9, 46, 0
1, 24479, Note_on_c, 9, 35, 0
1, 24480, Note_on_c, 9, 38, 96
1, 24480, Note_on_c, 9, 46, 96
1, 24488, Note_on_c, 9, 46, 0
1, 24719, Note_on_c, 9, 38, 0
1, 24720, Note_on_c, 9, 46, 96
1, 24728, Note_on_c, 9, 46, 0
1, 24960, Note_on_c, 9, 46, 96
1, 24968, Note_on_c, 9, 46, 0
1, 25200, Note_on_c, 9, 46, 96
1, 25200, Note_on_c, 9, 35, 96
1, 25208, Note_on_c, 9, 46, 0
1, 25439, Note_on_c, 9, 35, 0
1, 25440, Note_on_c, 9, 46, 96
1, 25440, Note_on_c, 9, 35, 96
1, 25448, Note_on_c, 9, 46, 0
1, 25680, Note_on_c, 9, 38, 96
1, 25680, Note_on_c, 9, 46, 96
1, 25688, Note_on_c, 9, 46, 0
1, 25919, Note_on_c, 9, 35, 0
1, 25919, Note_on_c, 9, 38, 0
1, 25920, Note_on_c, 9, 46, 96
1, 25928, Note_on_c, 9, 46, 0
1, 26160, Note_on_c, 9, 46, 96
1, 26160, Note_on_c, 9, 35, 96
1, 26168, Note_on_c, 9, 46, 0
1, 26399, Note_on_c, 9, 35, 0
1, 26400, Note_on_c, 9, 38, 96
1, 26400, Note_on_c, 9, 46, 96
1, 26408, Note_on_c, 9, 46, 0
1, 26639, Note_on_c, 9, 38, 0
1, 26640, Note_on_c, 9, 46, 96
1, 26648, Note_on_c, 9, 46, 0
1, 26880, Note_on_c, 9, 46, 96
1, 26888, Note_on_c, 9, 46, 0
1, 27120, Note_on_c, 9, 46, 96
1, 27120, Note_on_c, 9, 35, 96
1, 27128, Note_on_c, 9, 46, 0
1, 27359, Note_on_c, 9, 35, 0
1, 27360, Note_on_c, 9, 46, 96
1, 27368, Note_on_c, 9, 46, 0
1, 27600, Note_on_c, 9, 38, 96
1, 27600, Note_on_c, 9, 46, 96
1, 27608, Note_on_c, 9, 46, 0
1, 27839, Note_on_c, 9, 38, 0
1, 27840, Note_on_c, 9, 46, 96
1, 27848, Note_on_c, 9, 46, 0
1, 28080, Note_on_c, 9, 46, 96
1, 28080, Note_on_c, 9, 35, 96
1, 28088, Note_on_c, 9, 46, 0
1, 28319, Note_on_c, 9, 35, 0
1, 28320, Note_on_c, 9, 38, 96
1, 28320, Note_on_c, 9, 46, 96
1, 28328, Note_on_c, 9, 46, 0
1, 28559, Note_on_c, 9, 38, 0
1, 28560, Note_on_c, 9, 46, 96
1, 28568, Note_on_c, 9, 46, 0
1, 28800, Note_on_c, 9, 46, 96
1, 28808, Note_on_c, 9, 46, 0
1, 29040, Note_on_c, 9, 38, 96
1, 29040, Note_on_c, 9, 46, 96
1, 29048, Note_on_c, 9, 46, 0
1, 29160, Note_on_c, 9, 35, 96
1, 29279, Note_on_c, 9, 38, 0
1, 29279, Note_on_c, 9, 35, 0
1, 29280, Note_on_c, 9, 46, 96
1, 29280, Note_on_c, 9, 35, 96
1, 29288, Note_on_c, 9, 46, 0
1, 29519, Note_on_c, 9, 35, 0
1, 29520, Note_on_c, 9, 46, 96
1, 29520, Note_on_c, 9, 35, 96
1, 29528, Note_on_c, 9, 46, 0
1, 29759, Note_on_c, 9, 35, 0
1, 29760, Note_on_c, 9, 38, 96
1, 29760, Note_on_c, 9, 46, 96
1, 29768, Note_on_c, 9, 46, 0
1, 29880, Note_on_c, 9, 35, 96
1, 29999, Note_on_c, 9, 38, 0
1, 29999, Note_on_c, 9, 35, 0
1, 30000, Note_on_c, 9, 46, 96
1, 30000, Note_on_c, 9, 35, 96
1, 30008, Note_on_c, 9, 46, 0
1, 30239, Note_on_c, 9, 35, 0
1, 30240, Note_on_c, 9, 46, 96
1, 30240, Note_on_c, 9, 35, 96
1, 30248, Note_on_c, 9, 46, 0
1, 30480, Note_on_c, 9, 38, 96
1, 30480, Note_on_c, 9, 46, 96
1, 30488, Note_on_c, 9, 46, 0
1, 30719, Note_on_c, 9, 35, 0
1, 30719, Note_on_c, 9, 38, 0
1, 30720, Note_on_c, 9, 46, 96
1, 30720, Note_on_c, 9, 35, 96
1, 30728, Note_on_c, 9, 46, 0
1, 30959, Note_on_c, 9, 35, 0
1, 30960, Note_on_c, 9, 42, 96
1, 30960, Note_on_c, 9, 55, 96
1, 30960, Note_on_c, 9, 35, 96
1, 30963, Note_on_c, 9, 42, 0
1, 30963, Note_on_c, 9, 55, 0
1, 31080, Note_on_c, 9, 42, 96
1, 31083, Note_on_c, 9, 42, 0
1, 31199, Note_on_c, 9, 35, 0
1, 31200, Note_on_c, 9, 42, 96
1, 31203, Note_on_c, 9, 42, 0
1, 31320, Note_on_c, 9, 42, 96
1, 31323, Note_on_c, 9, 42, 0
1, 31440, Note_on_c, 9, 38, 96
1, 31440, Note_on_c, 9, 42, 96
1, 31443, Note_on_c, 9, 42, 0
1, 31559, Note_on_c, 9, 38, 0
1, 31560, Note_on_c, 9, 42, 96
1, 31563, Note_on_c, 9, 42, 0
1, 31680, Note_on_c, 9, 42, 96
1, 31683, Note_on_c, 9, 42, 0
1, 31800, Note_on_c, 9, 42, 96
1, 31803, Note_on_c, 9, 42, 0
1, 31920, Note_on_c, 9, 42, 96
1, 31920, Note_on_c, 9, 35, 96
1, 31923, Note_on_c, 9, 42, 0
1, 32040, Note_on_c, 9, 42, 96
1, 32043, Note_on_c, 9, 42, 0
1, 32159, Note_on_c, 9, 35, 0
1, 32160, Note_on_c, 9, 38, 96
1, 32160, Note_on_c, 9, 42, 96
1, 32163, Note_on_c, 9, 42, 0
1, 32279, Note_on_c, 9, 38, 0
1, 32280, Note_on_c, 9, 42, 96
1, 32283, Note_on_c, 9, 42, 0
1, 32400, Note_on_c, 9, 42, 96
1, 32403, Note_on_c, 9, 42, 0
1, 32520, Note_on_c, 9, 42, 96
1, 32523, Note_on_c, 9, 42, 0
1, 32640, Note_on_c, 9, 42, 96
1, 32643, Note_on_c, 9, 42, 0
1, 32760, Note_on_c, 9, 42, 96
1, 32763, Note_on_c, 9, 42, 0
1, 32880, Note_on_c, 9, 42, 96
1, 32880, Note_on_c, 9, 35, 96
1, 32883, Note_on_c, 9, 42, 0
1, 33000, Note_on_c, 9, 42, 96
1, 33003, Note_on_c, 9, 42, 0
1, 33119, Note_on_c, 9, 35, 0
1, 33120, Note_on_c, 9, 42, 96
1, 33120, Note_on_c, 9, 35, 96
1, 33123, Note_on_c, 9, 42, 0
1, 33240, Note_on_c, 9, 42, 96
1, 33243, Note_on_c, 9, 42, 0
1, 33360, Note_on_c, 9, 38, 96
1, 33360, Note_on_c, 9, 42, 96
1, 33363, Note_on_c, 9, 42, 0
1, 33479, Note_on_c, 9, 38, 0
1, 33480, Note_on_c, 9, 42, 96
1, 33483, Note_on_c, 9, 42, 0
1, 33599, Note_on_c, 9, 35, 0
1, 33600, Note_on_c, 9, 42, 96
1, 33603, Note_on_c, 9, 42, 0
1, 33720, Note_on_c, 9, 42, 96
1, 33723, Note_on_c, 9, 42, 0
1, 33840, Note_on_c, 9, 42, 96
1, 33840, Note_on_c, 9, 35, 96
1, 33843, Note_on_c, 9, 42, 0
1, 33960, Note_on_c, 9, 42, 96
1, 33963, Note_on_c, 9, 42, 0
1, 34079, Note_on_c, 9, 35, 0
1, 34080, Note_on_c, 9, 38, 96
1, 34080, Note_on_c, 9, 42, 96
1, 34083, Note_on_c, 9, 42, 0
1, 34199, Note_on_c, 9, 38, 0
1, 34200, Note_on_c, 9, 42, 96
1, 34203, Note_on_c, 9, 42, 0
1, 34320, Note_on_c, 9, 42, 96
1, 34323, Note_on_c, 9, 42, 0
1, 34440, Note_on_c, 9, 42, 96
1, 34443, Note_on_c, 9, 42, 0
1, 34560, Note_on_c, 9, 42, 96
1, 34563, Note_on_c, 9, 42, 0
1, 34680, Note_on_c, 9, 42, 96
1, 34683, Note_on_c, 9, 42, 0
1, 34800, Note_on_c, 9, 42, 96
1, 34800, Note_on_c, 9, 35, 96
1, 34803, Note_on_c, 9, 42, 0
1, 34920, Note_on_c, 9, 42, 96
1, 34923, Note_on_c, 9, 42, 0
1, 35039, Note_on_c, 9, 35, 0
1, 35040, Note_on_c, 9, 42, 96
1, 35043, Note_on_c, 9, 42, 0
1, 35160, Note_on_c, 9, 42, 96
1, 35163, Note_on_c, 9, 42, 0
1, 35280, Note_on_c, 9, 38, 96
1, 35280, Note_on_c, 9, 42, 96
1, 35283, Note_on_c, 9, 42, 0
1, 35399, Note_on_c, 9, 38, 0
1, 35400, Note_on_c, 9, 42, 96
1, 35403, Note_on_c, 9, 42, 0
1, 35520, Note_on_c, 9, 42, 96
1, 35523, Note_on_c, 9, 42, 0
1, 35640, Note_on_c, 9, 42, 96
1, 35643, Note_on_c, 9, 42, 0
1, 35760, Note_on_c, 9, 42, 96
1, 35760, Note_on_c, 9, 35, 96
1, 35763, Note_on_c, 9, 42, 0
1, 35880, Note_on_c, 9, 42, 96
1, 35883, Note_on_c, 9, 42, 0
1, 35999, Note_on_c, 9, 35, 0
1, 36000, Note_on_c, 9, 38, 96
1, 36000, Note_on_c, 9, 42, 96
1, 36003, Note_on_c, 9, 42, 0
1, 36119, Note_on_c, 9, 38, 0
1, 36120, Note_on_c, 9, 42, 96
1, 36123, Note_on_c, 9, 42, 0
1, 36240, Note_on_c, 9, 42, 96
1, 36243, Note_on_c, 9, 42, 0
1, 36360, Note_on_c, 9, 42, 96
1, 36363, Note_on_c, 9, 42, 0
1, 36480, Note_on_c, 9, 42, 96
1, 36483, Note_on_c, 9, 42, 0
1, 36600, Note_on_c, 9, 42, 96
1, 36603, Note_on_c, 9, 42, 0
1, 36720, Note_on_c, 9, 38, 96
1, 36720, Note_on_c, 9, 42, 96
1, 36723, Note_on_c, 9, 42, 0
1, 36839, Note_on_c, 9, 38, 0
1, 36840, Note_on_c, 9, 42, 96
1, 36840, Note_on_c, 9, 35, 96
1, 36843, Note_on_c, 9, 42, 0
1, 36959, Note_on_c, 9, 35, 0
1, 36960, Note_on_c, 9, 42, 96
1, 36960, Note_on_c, 9, 35, 96
1, 36963, Note_on_c, 9, 42, 0
1, 37080, Note_on_c, 9, 42, 96
1, 37083, Note_on_c, 9, 42, 0
1, 37199, Note_on_c, 9, 35, 0
1, 37200, Note_on_c, 9, 42, 96
1, 37200, Note_on_c, 9, 35, 96
1, 37203, Note_on_c, 9, 42, 0
1, 37320, Note_on_c, 9, 42, 96
1, 37323, Note_on_c, 9, 42, 0
1, 37439, Note_on_c, 9, 35, 0
1, 37440, Note_on_c, 9, 38, 96
1, 37440, Note_on_c, 9, 42, 96
1, 37443, Note_on_c, 9, 42, 0
1, 37559, Note_on_c, 9, 38, 0
1, 37560, Note_on_c, 9, 42, 96
1, 37560, Note_on_c, 9, 35, 96
1, 37563, Note_on_c, 9, 42, 0
1, 37679, Note_on_c, 9, 35, 0
1, 37680, Note_on_c, 9, 42, 96
1, 37680, Note_on_c, 9, 35, 96
1, 37683, Note_on_c, 9, 42, 0
1, 37800, Note_on_c, 9, 42, 96
1, 37803, Note_on_c, 9, 42, 0
1, 37919, Note_on_c, 9, 35, 0
1, 37920, Note_on_c, 9, 42, 96
1, 37920, Note_on_c, 9, 35, 96
1, 37923, Note_on_c, 9, 42, 0
1, 38040, Note_on_c, 9, 42, 96
1, 38043, Note_on_c, 9, 42, 0
1, 38160, Note_on_c, 9, 38, 96
1, 38160, Note_on_c, 9, 42, 96
1, 38163, Note_on_c, 9, 42, 0
1, 38279, Note_on_c, 9, 38, 0
1, 38280, Note_on_c, 9, 42, 96
1, 38283, Note_on_c, 9, 42, 0
1, 38399, Note_on_c, 9, 35, 0
1, 38400, Note_on_c, 9, 42, 96
1, 38403, Note_on_c, 9, 42, 0
1, 38520, Note_on_c, 9, 42, 96
1, 38523, Note_on_c, 9, 42, 0
1, 38640, Note_on_c, 9, 42, 96
1, 38640, Note_on_c, 9, 35, 96
1, 38648, Note_on_c, 9, 42, 0
1, 38879, Note_on_c, 9, 35, 0
1, 38880, Note_on_c, 9, 42, 96
1, 38888, Note_on_c, 9, 42, 0
1, 39120, Note_on_c, 9, 39, 96
1, 39120, Note_on_c, 9, 42, 96
1, 39128, Note_on_c, 9, 42, 0
1, 39359, Note_on_c, 9, 39, 0
1, 39360, Note_on_c, 9, 42, 96
1, 39368, Note_on_c, 9, 42, 0
1, 39600, Note_on_c, 9, 42, 96
1, 39600, Note_on_c, 9, 35, 96
1, 39608, Note_on_c, 9, 42, 0
1, 39839, Note_on_c, 9, 35, 0
1, 39840, Note_on_c, 9, 39, 96
1, 39840, Note_on_c, 9, 42, 96
1, 39848, Note_on_c, 9, 42, 0
1, 40079, Note_on_c, 9, 39, 0
1, 40080, Note_on_c, 9, 42, 96
1, 40088, Note_on_c, 9, 42, 0
1, 40320, Note_on_c, 9, 42, 96
1, 40328, Note_on_c, 9, 42, 0
1, 40560, Note_on_c, 9, 42, 96
1, 40560, Note_on_c, 9, 35, 96
1, 40568, Note_on_c, 9, 42, 0
1, 40799, Note_on_c, 9, 35, 0
1, 40800, Note_on_c, 9, 42, 96
1, 40808, Note_on_c, 9, 42, 0
1, 41040, Note_on_c, 9, 39, 96
1, 41040, Note_on_c, 9, 42, 96
1, 41048, Note_on_c, 9, 42, 0
1, 41279, Note_on_c, 9, 39, 0
1, 41280, Note_on_c, 9, 42, 96
1, 41288, Note_on_c, 9, 42, 0
1, 41520, Note_on_c, 9, 42, 96
1, 41520, Note_on_c, 9, 35, 96
1, 41528, Note_on_c, 9, 42, 0
1, 41759, Note_on_c, 9, 35, 0
1, 41760, Note_on_c, 9, 39, 96
1, 41760, Note_on_c, 9, 42, 96
1, 41768, Note_on_c, 9, 42, 0
1, 41999, Note_on_c, 9, 39, 0
1, 42000, Note_on_c, 9, 42, 96
1, 42008, Note_on_c, 9, 42, 0
1, 42240, Note_on_c, 9, 42, 96
1, 42248, Note_on_c, 9, 42, 0
1, 42480, Note_on_c, 9, 42, 96
1, 42480, Note_on_c, 9, 35, 96
1, 42488, Note_on_c, 9, 42, 0
1, 42719, Note_on_c, 9, 35, 0
1, 42720, Note_on_c, 9, 42, 96
1, 42728, Note_on_c, 9, 42, 0
1, 42960, Note_on_c, 9, 39, 96
1, 42960, Note_on_c, 9, 42, 96
1, 42968, Note_on_c, 9, 42, 0
1, 43199, Note_on_c, 9, 39, 0
1, 43200, Note_on_c, 9, 42, 96
1, 43208, Note_on_c, 9, 42, 0
1, 43440, Note_on_c, 9, 42, 96
1, 43440, Note_on_c, 9, 35, 96
1, 43448, Note_on_c, 9, 42, 0
1, 43679, Note_on_c, 9, 35, 0
1, 43680, Note_on_c, 9, 39, 96
1, 43680, Note_on_c, 9, 42, 96
1, 43688, Note_on_c, 9, 42, 0
1, 43919, Note_on_c, 9, 39, 0
1, 43920, Note_on_c, 9, 42, 96
1, 43928, Note_on_c, 9, 42, 0
1, 44160, Note_on_c, 9, 42, 96
1, 44168, Note_on_c, 9, 42, 0
1, 44400, Note_on_c, 9, 42, 96
1, 44400, Note_on_c, 9, 35, 96
1, 44408, Note_on_c, 9, 42, 0
1, 44639, Note_on_c, 9, 35, 0
1, 44640, Note_on_c, 9, 42, 96
1, 44648, Note_on_c, 9, 42, 0
1, 44880, Note_on_c, 9, 39, 96
1, 44880, Note_on_c, 9, 42, 96
1, 44888, Note_on_c, 9, 42, 0
1, 45119, Note_on_c, 9, 39, 0
1, 45120, Note_on_c, 9, 42, 96
1, 45128, Note_on_c, 9, 42, 0
1, 45360, Note_on_c, 9, 42, 96
1, 45360, Note_on_c, 9, 35, 96
1, 45368, Note_on_c, 9, 42, 0
1, 45599, Note_on_c, 9, 35, 0
1, 45600, Note_on_c, 9, 39, 96
1, 45600, Note_on_c, 9, 42, 96
1, 45608, Note_on_c, 9, 42, 0
1, 45839, Note_on_c, 9, 39, 0
1, 45840, Note_on_c, 9, 42, 96
1, 45848, Note_on_c, 9, 42, 0
1, 46080, Note_on_c, 9, 42, 96
1, 46088, Note_on_c, 9, 42, 0
1, 46320, Note_on_c, 9, 42, 96
1, 46320, Note_on_c, 9, 35, 96
1, 46328, Note_on_c, 9, 42, 0
1, 46559, Note_on_c, 9, 35, 0
1, 46560, Note_on_c, 9, 42, 96
1, 46568, Note_on_c, 9, 42, 0
1, 46800, Note_on_c, 9, 39, 96
1, 46800, Note_on_c, 9, 42, 96
1, 46808, Note_on_c, 9, 42, 0
1, 47039, Note_on_c, 9, 39, 0
1, 47040, Note_on_c, 9, 42, 96
1, 47048, Note_on_c, 9, 42, 0
1, 47280, Note_on_c, 9, 42, 96
1, 47280, Note_on_c, 9, 35, 96
1, 47288, Note_on_c, 9, 42, 0
1, 47519, Note_on_c, 9, 35, 0
1, 47520, Note_on_c, 9, 39, 96
1, 47520, Note_on_c, 9, 42, 96
1, 47528, Note_on_c, 9, 42, 0
1, 47759, Note_on_c, 9, 39, 0
1, 47760, Note_on_c, 9, 42, 96
1, 47768, Note_on_c, 9, 42, 0
1, 48000, Note_on_c, 9, 42, 96
1, 48008, Note_on_c, 9, 42, 0
1, 48240, Note_on_c, 9, 42, 96
1, 48240, Note_on_c, 9, 35, 96
1, 48248, Note_on_c, 9, 42, 0
1, 48479, Note_on_c, 9, 35, 0
1, 48480, Note_on_c, 9, 42, 96
1, 48488, Note_on_c, 9, 42, 0
1, 48720, Note_on_c, 9, 39, 96
1, 48720, Note_on_c, 9, 42, 96
1, 48728, Note_on_c, 9, 42, 0
1, 48959, Note_on_c, 9, 39, 0
1, 48960, Note_on_c, 9, 42, 96
1, 48968, Note_on_c, 9, 42, 0
1, 49200, Note_on_c, 9, 42, 96
1, 49200, Note_on_c, 9, 35, 96
1, 49208, Note_on_c, 9, 42, 0
1, 49439, Note_on_c, 9, 35, 0
1, 49440, Note_on_c, 9, 39, 96
1, 49440, Note_on_c, 9, 42, 96
1, 49448, Note_on_c, 9, 42, 0
1, 49679, Note_on_c, 9, 39, 0
1, 49680, Note_on_c, 9, 42, 96
1, 49688, Note_on_c, 9, 42, 0
1, 49920, Note_on_c, 9, 42, 96
1, 49928, Note_on_c, 9, 42, 0
1, 50160, Note_on_c, 9, 42, 96
1, 50160, Note_on_c, 9, 35, 96
1, 50168, Note_on_c, 9, 42, 0
1, 50399, Note_on_c, 9, 35, 0
1, 50400, Note_on_c, 9, 42, 96
1, 50408, Note_on_c, 9, 42, 0
1, 50640, Note_on_c, 9, 39, 96
1, 50640, Note_on_c, 9, 42, 96
1, 50648, Note_on_c, 9, 42, 0
1, 50879, Note_on_c, 9, 39, 0
1, 50880, Note_on_c, 9, 42, 96
1, 50888, Note_on_c, 9, 42, 0
1, 51120, Note_on_c, 9, 42, 96
1, 51120, Note_on_c, 9, 35, 96
1, 51128, Note_on_c, 9, 42, 0
1, 51359, Note_on_c, 9, 35, 0
1, 51360, Note_on_c, 9, 39, 96
1, 51360, Note_on_c, 9, 42, 96
1, 51368, Note_on_c, 9, 42, 0
1, 51599, Note_on_c, 9, 39, 0
1, 51600, Note_on_c, 9, 42, 96
1, 51608, Note_on_c, 9, 42, 0
1, 51840, Note_on_c, 9, 42, 96
1, 51848, Note_on_c, 9, 42, 0
1, 52080, Note_on_c, 9, 42, 96
1, 52080, Note_on_c, 9, 35, 96
1, 52088, Note_on_c, 9, 42, 0
1, 52319, Note_on_c, 9, 35, 0
1, 52320, Note_on_c, 9, 42, 96
1, 52328, Note_on_c, 9, 42, 0
1, 52560, Note_on_c, 9, 39, 96
1, 52560, Note_on_c, 9, 42, 96
1, 52568, Note_on_c, 9, 42, 0
1, 52799, Note_on_c, 9, 39, 0
1, 52800, Note_on_c, 9, 42, 96
1, 52808, Note_on_c, 9, 42, 0
1, 53040, Note_on_c, 9, 42, 96
1, 53040, Note_on_c, 9, 35, 96
1, 53048, Note_on_c, 9, 42, 0
1, 53279, Note_on_c, 9, 35, 0
1, 53280, Note_on_c, 9, 39, 96
1, 53280, Note_on_c, 9, 42, 96
1, 53288, Note_on_c, 9, 42, 0
1, 53519, Note_on_c, 9, 39, 0
1, 53520, Note_on_c, 9, 42, 96
1, 53528, Note_on_c, 9, 42, 0
1, 53760, Note_on_c, 9, 42, 96
1, 53768, Note_on_c, 9, 42, 0
1, 54000, Note_on_c, 9, 42, 96
1, 54000, Note_on_c, 9, 35, 96
1, 54003, Note_on_c, 9, 42, 0
1, 54120, Note_on_c, 9, 42, 96
1, 54123, Note_on_c, 9, 42, 0
1, 54239, Note_on_c, 9, 35, 0
1, 54240, Note_on_c, 9, 42, 96
1, 54243, Note_on_c, 9, 42, 0
1, 54360, Note_on_c, 9, 42, 96
1, 54363, Note_on_c, 9, 42, 0
1, 54480, Note_on_c, 9, 40, 96
1, 54480, Note_on_c, 9, 42, 96
1, 54483, Note_on_c, 9, 42, 0
1, 54599, Note_on_c, 9, 40, 0
1, 54600, Note_on_c, 9, 42, 96
1, 54603, Note_on_c, 9, 42, 0
1, 54720, Note_on_c, 9, 42, 96
1, 54723, Note_on_c, 9, 42, 0
1, 54840, Note_on_c, 9, 42, 96
1, 54843, Note_on_c, 9, 42, 0
1, 54960, Note_on_c, 9, 42, 96
1, 54960, Note_on_c, 9, 35, 96
1, 54963, Note_on_c, 9, 42, 0
1, 55080, Note_on_c, 9, 42, 96
1, 55083, Note_on_c, 9, 42, 0
1, 55199, Note_on_c, 9, 35, 0
1, 55200, Note_on_c, 9, 40, 96
1, 55200, Note_on_c, 9, 42, 96
1, 55203, Note_on_c, 9, 42, 0
1, 55319, Note_on_c, 9, 40, 0
1, 55320, Note_on_c, 9, 42, 96
1, 55323, Note_on_c, 9, 42, 0
1, 55440, Note_on_c, 9, 42, 96
1, 55443, Note_on_c, 9, 42, 0
1, 55560, Note_on_c, 9, 42, 96
1, 55563, Note_on_c, 9, 42, 0
1, 55680, Note_on_c, 9, 42, 96
1, 55683, Note_on_c, 9, 42, 0
1, 55800, Note_on_c, 9, 42, 96
1, 55803, Note_on_c, 9, 42, 0
1, 55920, Note_on_c, 9, 42, 96
1, 55920, Note_on_c, 9, 35, 96
1, 55923, Note_on_c, 9, 42, 0
1, 56040, Note_on_c, 9, 42, 96
1, 56043, Note_on_c, 9, 42, 0
1, 56159, Note_on_c, 9, 35, 0
1, 56160, Note_on_c, 9, 42, 96
1, 56160, Note_on_c, 9, 35, 96
1, 56163, Note_on_c, 9, 42, 0
1, 56280, Note_on_c, 9, 42, 96
1, 56283, Note_on_c, 9, 42, 0
1, 56400, Note_on_c, 9, 40, 96
1, 56400, Note_on_c, 9, 42, 96
1, 56403, Note_on_c, 9, 42, 0
1, 56519, Note_on_c, 9, 40, 0
1, 56520, Note_on_c, 9, 42, 96
1, 56523, Note_on_c, 9, 42, 0
1, 56639, Note_on_c, 9, 35, 0
1, 56640, Note_on_c, 9, 42, 96
1, 56643, Note_on_c, 9, 42, 0
1, 56760, Note_on_c, 9, 42, 96
1, 56763, Note_on_c, 9, 42, 0
1, 56880, Note_on_c, 9, 42, 96
1, 56880, Note_on_c, 9, 35, 96
1, 56883, Note_on_c, 9, 42, 0
1, 57000, Note_on_c, 9, 42, 96
1, 57003, Note_on_c, 9, 42, 0
1, 57119, Note_on_c, 9, 35, 0
1, 57120, Note_on_c, 9, 40, 96
1, 57120, Note_on_c, 9, 42, 96
1, 57123, Note_on_c, 9, 42, 0
1, 57239, Note_on_c, 9, 40, 0
1, 57240, Note_on_c, 9, 42, 96
1, 57243, Note_on_c, 9, 42, 0
1, 57360, Note_on_c, 9, 42, 96
1, 57363, Note_on_c, 9, 42, 0
1, 57480, Note_on_c, 9, 42, 96
1, 57483, Note_on_c, 9, 42, 0
1, 57600, Note_on_c, 9, 42, 96
1, 57603, Note_on_c, 9, 42, 0
1, 57720, Note_on_c, 9, 42, 96
1, 57723, Note_on_c, 9, 42, 0
1, 57840, Note_on_c, 9, 42, 96
1, 57840, Note_on_c, 9, 35, 96
1, 57843, Note_on_c, 9, 42, 0
1, 57960, Note_on_c, 9, 42, 96
1, 57963, Note_on_c, 9, 42, 0
1, 58079, Note_on_c, 9, 35, 0
1, 58080, Note_on_c, 9, 42, 96
1, 58083, Note_on_c, 9, 42, 0
1, 58200, Note_on_c, 9, 42, 96
1, 58203, Note_on_c, 9, 42, 0
1, 58320, Note_on_c, 9, 40, 96
1, 58320, Note_on_c, 9, 42, 96
1, 58323, Note_on_c, 9, 42, 0
1, 58439, Note_on_c, 9, 40, 0
1, 58440, Note_on_c, 9, 42, 96
1, 58443, Note_on_c, 9, 42, 0
1, 58560, Note_on_c, 9, 42, 96
1, 58563, Note_on_c, 9, 42, 0
1, 58680, Note_on_c, 9, 42, 96
1, 58683, Note_on_c, 9, 42, 0
1, 58800, Note_on_c, 9, 42, 96
1, 58800, Note_on_c, 9, 35, 96
1, 58803, Note_on_c, 9, 42, 0
1, 58920, Note_on_c, 9, 42, 96
1, 58923, Note_on_c, 9, 42, 0
1, 59039, Note_on_c, 9, 35, 0
1, 59040, Note_on_c, 9, 40, 96
1, 59040, Note_on_c, 9, 42, 96
1, 59043, Note_on_c, 9, 42, 0
1, 59159, Note_on_c, 9, 40, 0
1, 59160, Note_on_c, 9, 42, 96
1, 59163, Note_on_c, 9, 42, 0
1, 59280, Note_on_c, 9, 42, 96
1, 59283, Note_on_c, 9, 42, 0
1, 59400, Note_on_c, 9, 42, 96
1, 59403, Note_on_c, 9, 42, 0
1, 59520, Note_on_c, 9, 42, 96
1, 59523, Note_on_c, 9, 42, 0
1, 59640, Note_on_c, 9, 42, 96
1, 59643, Note_on_c, 9, 42, 0
1, 59760, Note_on_c, 9, 42, 96
1, 59760, Note_on_c, 9, 35, 96
1, 59763, Note_on_c, 9, 42, 0
1, 59880, Note_on_c, 9, 42, 96
1, 59883, Note_on_c, 9, 42, 0
1, 59999, Note_on_c, 9, 35, 0
1, 60000, Note_on_c, 9, 42, 96
1, 60000, Note_on_c, 9, 35, 96
1, 60003, Note_on_c, 9, 42, 0
1, 60120, Note_on_c, 9, 42, 96
1, 60123, Note_on_c, 9, 42, 0
1, 60240, Note_on_c, 9, 40, 96
1, 60240, Note_on_c, 9, 42, 96
1, 60243, Note_on_c, 9, 42, 0
1, 60359, Note_on_c, 9, 40, 0
1, 60360, Note_on_c, 9, 42, 96
1, 60363, Note_on_c, 9, 42, 0
1, 60479, Note_on_c, 9, 35, 0
1, 60480, Note_on_c, 9, 42, 96
1, 60483, Note_on_c, 9, 42, 0
1, 60600, Note_on_c, 9, 42, 96
1, 60603, Note_on_c, 9, 42, 0
1, 60720, Note_on_c, 9, 42, 96
1, 60720, Note_on_c, 9, 35, 96
1, 60723, Note_on_c, 9, 42, 0
1, 60840, Note_on_c, 9, 42, 96
1, 60843, Note_on_c, 9, 42, 0
1, 60959, Note_on_c, 9, 35, 0
1, 60960, Note_on_c, 9, 40, 96
1, 60960, Note_on_c, 9, 42, 96
1, 60963, Note_on_c, 9, 42, 0
1, 61079, Note_on_c, 9, 40, 0
1, 61080, Note_on_c, 9, 42, 96
1, 61083, Note_on_c, 9, 42, 0
1, 61200, Note_on_c, 9, 42, 96
1, 61203, Note_on_c, 9, 42, 0
1, 61320, Note_on_c, 9, 42, 96
1, 61323, Note_on_c, 9, 42, 0
1, 61440, Note_on_c, 9, 42, 96
1, 61443, Note_on_c, 9, 42, 0
1, 61560, Note_on_c, 9, 42, 96
1, 61563, Note_on_c, 9, 42, 0
1, 61680, Note_on_c, 9, 42, 96
1, 61680, Note_on_c, 9, 35, 96
1, 61683, Note_on_c, 9, 42, 0
1, 61800, Note_on_c, 9, 42, 96
1, 61803, Note_on_c, 9, 42, 0
1, 61919, Note_on_c, 9, 35, 0
1, 61920, Note_on_c, 9, 42, 96
1, 61923, Note_on_c, 9, 42, 0
1, 62040, Note_on_c, 9, 42, 96
1, 62043, Note_on_c, 9, 42, 0
1, 62160, Note_on_c, 9, 40, 96
1, 62160, Note_on_c, 9, 42, 96
1, 62163, Note_on_c, 9, 42, 0
1, 62279, Note_on_c, 9, 40, 0
1, 62280, Note_on_c, 9, 42, 96
1, 62283, Note_on_c, 9, 42, 0
1, 62400, Note_on_c, 9, 42, 96
1, 62403, Note_on_c, 9, 42, 0
1, 62520, Note_on_c, 9, 42, 96
1, 62523, Note_on_c, 9, 42, 0
1, 62640, Note_on_c, 9, 42, 96
1, 62640, Note_on_c, 9, 35, 96
1, 62643, Note_on_c, 9, 42, 0
1, 62760, Note_on_c, 9, 42, 96
1, 62763, Note_on_c, 9, 42, 0
1, 62879, Note_on_c, 9, 35, 0
1, 62880, Note_on_c, 9, 40, 96
1, 62880, Note_on_c, 9, 42, 96
1, 62883, Note_on_c, 9, 42, 0
1, 62999, Note_on_c, 9, 40, 0
1, 63000, Note_on_c, 9, 42, 96
1, 63003, Note_on_c, 9, 42, 0
1, 63120, Note_on_c, 9, 42, 96
1, 63123, Note_on_c, 9, 42, 0
1, 63240, Note_on_c, 9, 42, 96
1, 63243, Note_on_c, 9, 42, 0
1, 63360, Note_on_c, 9, 42, 96
1, 63363, Note_on_c, 9, 42, 0
1, 63480, Note_on_c, 9, 42, 96
1, 63483, Note_on_c, 9, 42, 0
1, 63600, Note_on_c, 9, 42, 96
1, 63600, Note_on_c, 9, 35, 96
1, 63603, Note_on_c, 9, 42, 0
1, 63720, Note_on_c, 9, 42, 96
1, 63723, Note_on_c, 9, 42, 0
1, 63839, Note_on_c, 9, 35, 0
1, 63840, Note_on_c, 9, 42, 96
1, 63840, Note_on_c, 9, 35, 96
1, 63843, Note_on_c, 9, 42, 0
1, 63960, Note_on_c, 9, 42, 96
1, 63963, Note_on_c, 9, 42, 0
1, 64080, Note_on_c, 9, 40, 96
1, 64080, Note_on_c, 9, 42, 96
1, 64083, Note_on_c, 9, 42, 0
1, 64199, Note_on_c, 9, 40, 0
1, 64200, Note_on_c, 9, 42, 96
1, 64203, Note_on_c, 9, 42, 0
1, 64319, Note_on_c, 9, 35, 0
1, 64320, Note_on_c, 9, 42, 96
1, 64323, Note_on_c, 9, 42, 0
1, 64440, Note_on_c, 9, 42, 96
1, 64443, Note_on_c, 9, 42, 0
1, 64560, Note_on_c, 9, 42, 96
1, 64560, Note_on_c, 9, 35, 96
1, 64563, Note_on_c, 9, 42, 0
1, 64680, Note_on_c, 9, 42, 96
1, 64683, Note_on_c, 9, 42, 0
1, 64799, Note_on_c, 9, 35, 0
1, 64800, Note_on_c, 9, 40, 96
1, 64800, Note_on_c, 9, 42, 96
1, 64803, Note_on_c, 9, 42, 0
1, 64919, Note_on_c, 9, 40, 0
1, 64920, Note_on_c, 9, 42, 96
1, 64923, Note_on_c, 9, 42, 0
1, 65040, Note_on_c, 9, 42, 96
1, 65043, Note_on_c, 9, 42, 0
1, 65160, Note_on_c, 9, 42, 96
1, 65163, Note_on_c, 9, 42, 0
1, 65280, Note_on_c, 9, 42, 96
1, 65283, Note_on_c, 9, 42, 0
1, 65400, Note_on_c, 9, 42, 96
1, 65403, Note_on_c, 9, 42, 0
1, 65520, Note_on_c, 9, 42, 96
1, 65520, Note_on_c, 9, 35, 96
1, 65523, Note_on_c, 9, 42, 0
1, 65640, Note_on_c, 9, 42, 96
1, 65643, Note_on_c, 9, 42, 0
1, 65759, Note_on_c, 9, 35, 0
1, 65760, Note_on_c, 9, 42, 96
1, 65763, Note_on_c, 9, 42, 0
1, 65880, Note_on_c, 9, 42, 96
1, 65883, Note_on_c, 9, 42, 0
1, 66000, Note_on_c, 9, 40, 96
1, 66000, Note_on_c, 9, 42, 96
1, 66003, Note_on_c, 9, 42, 0
1, 66119, Note_on_c, 9, 40, 0
1, 66120, Note_on_c, 9, 42, 96
1, 66123, Note_on_c, 9, 42, 0
1, 66240, Note_on_c, 9, 42, 96
1, 66243, Note_on_c, 9, 42, 0
1, 66360, Note_on_c, 9, 42, 96
1, 66363, Note_on_c, 9, 42, 0
1, 66480, Note_on_c, 9, 46, 96
1, 66480, Note_on_c, 9, 35, 96
1, 66483, Note_on_c, 9, 46, 0
1, 66600, Note_on_c, 9, 42, 96
1, 66603, Note_on_c, 9, 42, 0
1, 66719, Note_on_c, 9, 35, 0
1, 66720, Note_on_c, 9, 40, 96
1, 66720, Note_on_c, 9, 46, 96
1, 66723, Note_on_c, 9, 46, 0
1, 66839, Note_on_c, 9, 40, 0
1, 66840, Note_on_c, 9, 42, 96
1, 66843, Note_on_c, 9, 42, 0
1, 66960, Note_on_c, 9, 46, 96
1, 66963, Note_on_c, 9, 46, 0
1, 67080, Note_on_c, 9, 42, 96
1, 67083, Note_on_c, 9, 42, 0
1, 67200, Note_on_c, 9, 46, 96
1, 67203, Note_on_c, 9, 46, 0
1, 67320, Note_on_c, 9, 42, 96
1, 67323, Note_on_c, 9, 42, 0
1, 67440, Note_on_c, 9, 46, 96
1, 67440, Note_on_c, 9, 35, 96
1, 67443, Note_on_c, 9, 46, 0
1, 67560, Note_on_c, 9, 42, 96
1, 67563, Note_on_c, 9, 42, 0
1, 67679, Note_on_c, 9, 35, 0
1, 67680, Note_on_c, 9, 46, 96
1, 67680, Note_on_c, 9, 35, 96
1, 67683, Note_on_c, 9, 46, 0
1, 67800, Note_on_c, 9, 42, 96
1, 67803, Note_on_c, 9, 42, 0
1, 67920, Note_on_c, 9, 40, 96
1, 67920, Note_on_c, 9, 46, 96
1, 67928, Note_on_c, 9, 46, 0
1, 68159, Note_on_c, 9, 35, 0
1, 68159, Note_on_c, 9, 40, 0
1, 68160, Note_on_c, 9, 46, 96
1, 68168, Note_on_c, 9, 46, 0
1, 68400, Note_on_c, 9, 46, 96
1, 68400, Note_on_c, 9, 35, 96
1, 68408, Note_on_c, 9, 46, 0
1, 68639, Note_on_c, 9, 35, 0
1, 68640, Note_on_c, 9, 40, 96
1, 68640, Note_on_c, 9, 46, 96
1, 68648, Note_on_c, 9, 46, 0
1, 68879, Note_on_c, 9, 40, 0
1, 68880, Note_on_c, 9, 46, 96
1, 68888, Note_on_c, 9, 46, 0
1, 69360, Note_on_c, 9, 49, 96
1, 69360, Note_on_c, 9, 35, 96
1, 69368, Note_on_c, 9, 49, 0
1, 69599, Note_on_c, 9, 35, 0
1, 69600, Note_on_c, 9, 46, 96
1, 69608, Note_on_c, 9, 46, 0
1, 69840, Note_on_c, 9, 38, 96
1, 69840, Note_on_c, 9, 46, 96
1, 69848, Note_on_c, 9, 46, 0
1, 70079, Note_on_c, 9, 38, 0
1, 70080, Note_on_c, 9, 46, 96
1, 70088, Note_on_c, 9, 46, 0
1, 70320, Note_on_c, 9, 46, 96
1, 70320, Note_on_c, 9, 35, 96
1, 70328, Note_on_c, 9, 46, 0
1, 70559, Note_on_c, 9, 35, 0
1, 70560, Note_on_c, 9, 38, 96
1, 70560, Note_on_c, 9, 46, 96
1, 70568, Note_on_c, 9, 46, 0
1, 70799, Note_on_c, 9, 38, 0
1, 70800, Note_on_c, 9, 46, 96
1, 70808, Note_on_c, 9, 46, 0
1, 71040, Note_on_c, 9, 46, 96
1, 71048, Note_on_c, 9, 46, 0
1, 71280, Note_on_c, 9, 46, 96
1, 71280, Note_on_c, 9, 35, 96
1, 71288, Note_on_c, 9, 46, 0
1, 71519, Note_on_c, 9, 35, 0
1, 71520, Note_on_c, 9, 46, 96
1, 71520, Note_on_c, 9, 35, 96
1, 71528, Note_on_c, 9, 46, 0
1, 71760, Note_on_c, 9, 38, 96
1, 71760, Note_on_c, 9, 46, 96
1, 71768, Note_on_c, 9, 46, 0
1, 71999, Note_on_c, 9, 35, 0
1, 71999, Note_on_c, 9, 38, 0
1, 72000, Note_on_c, 9, 46, 96
1, 72008, Note_on_c, 9, 46, 0
1, 72240, Note_on_c, 9, 46, 96
1, 72240, Note_on_c, 9, 35, 96
1, 72248, Note_on_c, 9, 46, 0
1, 72479, Note_on_c, 9, 35, 0
1, 72480, Note_on_c, 9, 38, 96
1, 72480, Note_on_c, 9, 46, 96
1, 72488, Note_on_c, 9, 46, 0
1, 72719, Note_on_c, 9, 38, 0
1, 72720, Note_on_c, 9, 46, 96
1, 72728, Note_on_c, 9, 46, 0
1, 72960, Note_on_c, 9, 46, 96
1, 72968, Note_on_c, 9, 46, 0
1, 73200, Note_on_c, 9, 46, 96
1, 73200, Note_on_c, 9, 35, 96
1, 73208, Note_on_c, 9, 46, 0
1, 73439, Note_on_c, 9, 35, 0
1, 73440, Note_on_c, 9, 46, 96
1, 73448, Note_on_c, 9, 46, 0
1, 73680, Note_on_c, 9, 38, 96
1, 73680, Note_on_c, 9, 46, 96
1, 73688, Note_on_c, 9, 46, 0
1, 73919, Note_on_c, 9, 38, 0
1, 73920, Note_on_c, 9, 46, 96
1, 73928, Note_on_c, 9, 46, 0
1, 74160, Note_on_c, 9, 46, 96
1, 74160, Note_on_c, 9, 35, 96
1, 74168, Note_on_c, 9, 46, 0
1, 74399, Note_on_c, 9, 35, 0
1, 74400, Note_on_c, 9, 38, 96
1, 74400, Note_on_c, 9, 46, 96
1, 74408, Note_on_c, 9, 46, 0
1, 74639, Note_on_c, 9, 38, 0
1, 74640, Note_on_c, 9, 46, 96
1, 74648, Note_on_c, 9, 46, 0
1, 74880, Note_on_c, 9, 46, 96
1, 74888, Note_on_c, 9, 46, 0
1, 75120, Note_on_c, 9, 38, 96
1, 75120, Note_on_c, 9, 46, 96
1, 75128, Note_on_c, 9, 46, 0
1, 75240, Note_on_c, 9, 35, 96
1, 75359, Note_on_c, 9, 38, 0
1, 75359, Note_on_c, 9, 35, 0
1, 75360, Note_on_c, 9, 46, 96
1, 75360, Note_on_c, 9, 35, 96
1, 75368, Note_on_c, 9, 46, 0
1, 75599, Note_on_c, 9, 35, 0
1, 75600, Note_on_c, 9, 46, 96
1, 75600, Note_on_c, 9, 35, 96
1, 75608, Note_on_c, 9, 46, 0
1, 75839, Note_on_c, 9, 35, 0
1, 75840, Note_on_c, 9, 38, 96
1, 75840, Note_on_c, 9, 46, 96
1, 75848, Note_on_c, 9, 46, 0
1, 75960, Note_on_c, 9, 35, 96
1, 76079, Note_on_c, 9, 38, 0
1, 76079, Note_on_c, 9, 35, 0
1, 76080, Note_on_c, 9, 46, 96
1, 76080, Note_on_c, 9, 35, 96
1, 76088, Note_on_c, 9, 46, 0
1, 76319, Note_on_c, 9, 35, 0
1, 76320, Note_on_c, 9, 46, 96
1, 76320, Note_on_c, 9, 35, 96
1, 76328, Note_on_c, 9, 46, 0
1, 76560, Note_on_c, 9, 38, 96
1, 76560, Note_on_c, 9, 57, 96
1, 76568, Note_on_c, 9, 57, 0
1, 76799, Note_on_c, 9, 35, 0
1, 76799, Note_on_c, 9, 38, 0
1, 77040, Note_on_c, 9, 46, 96
1, 77040, Note_on_c, 9, 35, 96
1, 77048, Note_on_c, 9, 46, 0
1, 77279, Note_on_c, 9, 35, 0
1, 77280, Note_on_c, 9, 46, 96
1, 77288, Note_on_c, 9, 46, 0
1, 77520, Note_on_c, 9, 38, 96
1, 77520, Note_on_c, 9, 46, 96
1, 77528, Note_on_c, 9, 46, 0
1, 77759, Note_on_c, 9, 38, 0
1, 77760, Note_on_c, 9, 46, 96
1, 77768, Note_on_c, 9, 46, 0
1, 78000, Note_on_c, 9, 46, 96
1, 78000, Note_on_c, 9, 35, 96
1, 78008, Note_on_c, 9, 46, 0
1, 78239, Note_on_c, 9, 35, 0
1, 78240, Note_on_c, 9, 38, 96
1, 78240, Note_on_c, 9, 46, 96
1, 78248, Note_on_c, 9, 46, 0
1, 78479, Note_on_c, 9, 38, 0
1, 78480, Note_on_c, 9, 46, 96
1, 78488, Note_on_c, 9, 46, 0
1, 78720, Note_on_c, 9, 46, 96
1, 78728, Note_on_c, 9, 46, 0
1, 78960, Note_on_c, 9, 46, 96
1, 78960, Note_on_c, 9, 35, 96
1, 78968, Note_on_c, 9, 46, 0
1, 79199, Note_on_c, 9, 35, 0
1, 79200, Note_on_c, 9, 46, 96
1, 79200, Note_on_c, 9, 35, 96
1, 79208, Note_on_c, 9, 46, 0
1, 79440, Note_on_c, 9, 38, 96
1, 79440, Note_on_c, 9, 46, 96
1, 79448, Note_on_c, 9, 46, 0
1, 79679, Note_on_c, 9, 35, 0
1, 79679, Note_on_c, 9, 38, 0
1, 79680, Note_on_c, 9, 46, 96
1, 79688, Note_on_c, 9, 46, 0
1, 79920, Note_on_c, 9, 46, 96
1, 79920, Note_on_c, 9, 35, 96
1, 79928, Note_on_c, 9, 46, 0
1, 80159, Note_on_c, 9, 35, 0
1, 80160, Note_on_c, 9, 38, 96
1, 80160, Note_on_c, 9, 46, 96
1, 80168, Note_on_c, 9, 46, 0
1, 80399, Note_on_c, 9, 38, 0
1, 80400, Note_on_c, 9, 46, 96
1, 80408, Note_on_c, 9, 46, 0
1, 80640, Note_on_c, 9, 46, 96
1, 80648, Note_on_c, 9, 46, 0
1, 80880, Note_on_c, 9, 46, 96
1, 80880, Note_on_c, 9, 35, 96
1, 80888, Note_on_c, 9, 46, 0
1, 81119, Note_on_c, 9, 35, 0
1, 81120, Note_on_c, 9, 46, 96
1, 81128, Note_on_c, 9, 46, 0
1, 81360, Note_on_c, 9, 38, 96
1, 81360, Note_on_c, 9, 46, 96
1, 81368, Note_on_c, 9, 46, 0
1, 81599, Note_on_c, 9, 38, 0
1, 81600, Note_on_c, 9, 46, 96
1, 81608, Note_on_c, 9, 46, 0
1, 81840, Note_on_c, 9, 46, 96
1, 81840, Note_on_c, 9, 35, 96
1, 81848, Note_on_c, 9, 46, 0
1, 82079, Note_on_c, 9, 35, 0
1, 82080, Note_on_c, 9, 38, 96
1, 82080, Note_on_c, 9, 46, 96
1, 82088, Note_on_c, 9, 46, 0
1, 82319, Note_on_c, 9, 38, 0
1, 82320, Note_on_c, 9, 46, 96
1, 82328, Note_on_c, 9, 46, 0
1, 82560, Note_on_c, 9, 46, 96
1, 82568, Note_on_c, 9, 46, 0
1, 82800, Note_on_c, 9, 38, 96
1, 82800, Note_on_c, 9, 46, 96
1, 82808, Note_on_c, 9, 46, 0
1, 82920, Note_on_c, 9, 35, 96
1, 83039, Note_on_c, 9, 38, 0
1, 83039, Note_on_c, 9, 35, 0
1, 83040, Note_on_c, 9, 46, 96
1, 83040, Note_on_c, 9, 35, 96
1, 83048, Note_on_c, 9, 46, 0
1, 83279, Note_on_c, 9, 35, 0
1, 83280, Note_on_c, 9, 46, 96
1, 83280, Note_on_c, 9, 35, 96
1, 83288, Note_on_c, 9, 46, 0
1, 83519, Note_on_c, 9, 35, 0
1, 83520, Note_on_c, 9, 38, 96
1, 83520, Note_on_c, 9, 46, 96
1, 83528, Note_on_c, 9, 46, 0
1, 83640, Note_on_c, 9, 35, 96
1, 83759, Note_on_c, 9, 38, 0
1, 83759, Note_on_c, 9, 35, 0
1, 83760, Note_on_c, 9, 46, 96
1, 83760, Note_on_c, 9, 35, 96
1, 83768, Note_on_c, 9, 46, 0
1, 83999, Note_on_c, 9, 35, 0
1, 84000, Note_on_c, 9, 46, 96
1, 84000, Note_on_c, 9, 35, 96
1, 84008, Note_on_c, 9, 46, 0
1, 84240, Note_on_c, 9, 38, 96
1, 84240, Note_on_c, 9, 46, 96
1, 84248, Note_on_c, 9, 46, 0
1, 84479, Note_on_c, 9, 35, 0
1, 84479, Note_on_c, 9, 38, 0
1, 84480, Note_on_c, 9, 46, 96
1, 84480, Note_on_c, 9, 35, 96
1, 84488, Note_on_c, 9, 46, 0
1, 84719, Note_on_c, 9, 35, 0
1, 84720, Note_on_c, 9, 42, 96
1, 84720, Note_on_c, 9, 35, 96
1, 84728, Note_on_c, 9, 42, 0
1, 84959, Note_on_c, 9, 35, 0
1, 84960, Note_on_c, 9, 42, 96
1, 84968, Note_on_c, 9, 42, 0
1, 85200, Note_on_c, 9, 39, 96
1, 85200, Note_on_c, 9, 42, 96
1, 85208, Note_on_c, 9, 42, 0
1, 85439, Note_on_c, 9, 39, 0
1, 85440, Note_on_c, 9, 42, 96
1, 85448, Note_on_c, 9, 42, 0
1, 85680, Note_on_c, 9, 42, 96
1, 85680, Note_on_c, 9, 35, 96
1, 85688, Note_on_c, 9, 42, 0
1, 85919, Note_on_c, 9, 35, 0
1, 85920, Note_on_c, 9, 39, 96
1, 85920, Note_on_c, 9, 42, 96
1, 85928, Note_on_c, 9, 42, 0
1, 86159, Note_on_c, 9, 39, 0
1, 86160, Note_on_c, 9, 42, 96
1, 86168, Note_on_c, 9, 42, 0
1, 86400, Note_on_c, 9, 42, 96
1, 86408, Note_on_c, 9, 42, 0
1, 86640, Note_on_c, 9, 42, 96
1, 86640, Note_on_c, 9, 35, 96
1, 86648, Note_on_c, 9, 42, 0
1, 86879, Note_on_c, 9, 35, 0
1, 86880, Note_on_c, 9, 42, 96
1, 86888, Note_on_c, 9, 42, 0
1, 87120, Note_on_c, 9, 39, 96
1, 87120, Note_on_c, 9, 42, 96
1, 87128, Note_on_c, 9, 42, 0
1, 87359, Note_on_c, 9, 39, 0
1, 87360, Note_on_c, 9, 42, 96
1, 87368, Note_on_c, 9, 42, 0
1, 87600, Note_on_c, 9, 42, 96
1, 87600, Note_on_c, 9, 35, 96
1, 87608, Note_on_c, 9, 42, 0
1, 87839, Note_on_c, 9, 35, 0
1, 87840, Note_on_c, 9, 39, 96
1, 87840, Note_on_c, 9, 42, 96
1, 87848, Note_on_c, 9, 42, 0
1, 88079, Note_on_c, 9, 39, 0
1, 88080, Note_on_c, 9, 42, 96
1, 88088, Note_on_c, 9, 42, 0
1, 88320, Note_on_c, 9, 42, 96
1, 88328, Note_on_c, 9, 42, 0
1, 88560, Note_on_c, 9, 42, 96
1, 88560, Note_on_c, 9, 35, 96
1, 88568, Note_on_c, 9, 42, 0
1, 88799, Note_on_c, 9, 35, 0
1, 88800, Note_on_c, 9, 42, 96
1, 88808, Note_on_c, 9, 42, 0
1, 89040, Note_on_c, 9, 39, 96
1, 89040, Note_on_c, 9, 42, 96
1, 89048, Note_on_c, 9, 42, 0
1, 89279, Note_on_c, 9, 39, 0
1, 89280, Note_on_c, 9, 42, 96
1, 89288, Note_on_c, 9, 42, 0
1, 89520, Note_on_c, 9, 42, 96
1, 89520, Note_on_c, 9, 35, 96
1, 89528, Note_on_c, 9, 42, 0
1, 89759, Note_on_c, 9, 35, 0
1, 89760, Note_on_c, 9, 39, 96
1, 89760, Note_on_c, 9, 42, 96
1, 89768, Note_on_c, 9, 42, 0
1, 89999, Note_on_c, 9, 39, 0
1, 90000, Note_on_c, 9, 42, 96
1, 90008, Note_on_c, 9, 42, 0
1, 90240, Note_on_c, 9, 42, 96
1, 90248, Note_on_c, 9, 42, 0
1, 90480, Note_on_c, 9, 42, 96
1, 90480, Note_on_c, 9, 35, 96
1, 90488, Note_on_c, 9, 42, 0
1, 90719, Note_on_c, 9, 35, 0
1, 90720, Note_on_c, 9, 42, 96
1, 90728, Note_on_c, 9, 42, 0
1, 90960, Note_on_c, 9, 39, 96
1, 90960, Note_on_c, 9, 42, 96
1, 90968, Note_on_c, 9, 42, 0
1, 91199, Note_on_c, 9, 39, 0
1, 91200, Note_on_c, 9, 42, 96
1, 91208, Note_on_c, 9, 42, 0
1, 91440, Note_on_c, 9, 42, 96
1, 91440, Note_on_c, 9, 35, 96
1, 91448, Note_on_c, 9, 42, 0
1, 91679, Note_on_c, 9, 35, 0
1, 91680, Note_on_c, 9, 39, 96
1, 91680, Note_on_c, 9, 42, 96
1, 91698, Note_on_c, 9, 42, 0
1, 92159, Note_on_c, 9, 39, 0
1, 92400, Note_on_c, 9, 42, 96
1, 92400, Note_on_c, 9, 35, 96
1, 92408, Note_on_c, 9, 42, 0
1, 92639, Note_on_c, 9, 35, 0
1, 92640, Note_on_c, 9, 42, 96
1, 92648, Note_on_c, 9, 42, 0
1, 92880, Note_on_c, 9, 39, 96
1, 92880, Note_on_c, 9, 42, 96
1, 92888, Note_on_c, 9, 42, 0
1, 93119, Note_on_c, 9, 39, 0
1, 93120, Note_on_c, 9, 42, 96
1, 93128, Note_on_c, 9, 42, 0
1, 93360, Note_on_c, 9, 42, 96
1, 93360, Note_on_c, 9, 35, 96
1, 93368, Note_on_c, 9, 42, 0
1, 93599, Note_on_c, 9, 35, 0
1, 93600, Note_on_c, 9, 39, 96
1, 93600, Note_on_c, 9, 42, 96
1, 93608, Note_on_c, 9, 42, 0
1, 93839, Note_on_c, 9, 39, 0
1, 93840, Note_on_c, 9, 42, 96
1, 93848, Note_on_c, 9, 42, 0
1, 94080, Note_on_c, 9, 42, 96
1, 94088, Note_on_c, 9, 42, 0
1, 94320, Note_on_c, 9, 42, 96
1, 94320, Note_on_c, 9, 35, 96
1, 94328, Note_on_c, 9, 42, 0
1, 94559, Note_on_c, 9, 35, 0
1, 94560, Note_on_c, 9, 42, 96
1, 94568, Note_on_c, 9, 42, 0
1, 94800, Note_on_c, 9, 39, 96
1, 94800, Note_on_c, 9, 42, 96
1, 94808, Note_on_c, 9, 42, 0
1, 95039, Note_on_c, 9, 39, 0
1, 95040, Note_on_c, 9, 42, 96
1, 95048, Note_on_c, 9, 42, 0
1, 95280, Note_on_c, 9, 42, 96
1, 95280, Note_on_c, 9, 35, 96
1, 95288, Note_on_c, 9, 42, 0
1, 95519, Note_on_c, 9, 35, 0
1, 95520, Note_on_c, 9, 39, 96
1, 95520, Note_on_c, 9, 42, 96
1, 95528, Note_on_c, 9, 42, 0
1, 95759, Note_on_c, 9, 39, 0
1, 95760, Note_on_c, 9, 42, 96
1, 95768, Note_on_c, 9, 42, 0
1, 96000, Note_on_c, 9, 42, 96
1, 96008, Note_on_c, 9, 42, 0
1, 96240, Note_on_c, 9, 42, 96
1, 96240, Note_on_c, 9, 35, 96
1, 96248, Note_on_c, 9, 42, 0
1, 96479, Note_on_c, 9, 35, 0
1, 96480, Note_on_c, 9, 42, 96
1, 96488, Note_on_c, 9, 42, 0
1, 96720, Note_on_c, 9, 39, 96
1, 96720, Note_on_c, 9, 42, 96
1, 96728, Note_on_c, 9, 42, 0
1, 96959, Note_on_c, 9, 39, 0
1, 96960, Note_on_c, 9, 42, 96
1, 96968, Note_on_c, 9, 42, 0
1, 97200, Note_on_c, 9, 42, 96
1, 97200, Note_on_c, 9, 35, 96
1, 97208, Note_on_c, 9, 42, 0
1, 97439, Note_on_c, 9, 35, 0
1, 97440, Note_on_c, 9, 39, 96
1, 97440, Note_on_c, 9, 42, 96
1, 97448, Note_on_c, 9, 42, 0
1, 97679, Note_on_c, 9, 39, 0
1, 97680, Note_on_c, 9, 42, 96
1, 97688, Note_on_c, 9, 42, 0
1, 97920, Note_on_c, 9, 42, 96
1, 97928, Note_on_c, 9, 42, 0
1, 98160, Note_on_c, 9, 42, 96
1, 98160, Note_on_c, 9, 35, 96
1, 98168, Note_on_c, 9, 42, 0
1, 98399, Note_on_c, 9, 35, 0
1, 98400, Note_on_c, 9, 42, 96
1, 98408, Note_on_c, 9, 42, 0
1, 98640, Note_on_c, 9, 39, 96
1, 98640, Note_on_c, 9, 42, 96
1, 98648, Note_on_c, 9, 42, 0
1, 98879, Note_on_c, 9, 39, 0
1, 98880, Note_on_c, 9, 42, 96
1, 98888, Note_on_c, 9, 42, 0
1, 99120, Note_on_c, 9, 42, 96
1, 99120, Note_on_c, 9, 35, 96
1, 99128, Note_on_c, 9, 42, 0
1, 99359, Note_on_c, 9, 35, 0
1, 99360, Note_on_c, 9, 39, 96
1, 99360, Note_on_c, 9, 42, 96
1, 99368, Note_on_c, 9, 42, 0
1, 99599, Note_on_c, 9, 39, 0
1, 99600, Note_on_c, 9, 42, 96
1, 99608, Note_on_c, 9, 42, 0
1, 99840, Note_on_c, 9, 42, 96
1, 99848, Note_on_c, 9, 42, 0
1, 100080, Note_on_c, 9, 42, 96
1, 100080, Note_on_c, 9, 35, 96
1, 100083, Note_on_c, 9, 42, 0
1, 100200, Note_on_c, 9, 42, 96
1, 100203, Note_on_c, 9, 42, 0
1, 100319, Note_on_c, 9, 35, 0
1, 100320, Note_on_c, 9, 42, 96
1, 100323, Note_on_c, 9, 42, 0
1, 100440, Note_on_c, 9, 42, 96
1, 100443, Note_on_c, 9, 42, 0
1, 100560, Note_on_c, 9, 40, 96
1, 100560, Note_on_c, 9, 42, 96
1, 100563, Note_on_c, 9, 42, 0
1, 100679, Note_on_c, 9, 40, 0
1, 100680, Note_on_c, 9, 42, 96
1, 100683, Note_on_c, 9, 42, 0
1, 100800, Note_on_c, 9, 42, 96
1, 100803, Note_on_c, 9, 42, 0
1, 100920, Note_on_c, 9, 42, 96
1, 100923, Note_on_c, 9, 42, 0
1, 101040, Note_on_c, 9, 42, 96
1, 101040, Note_on_c, 9, 35, 96
1, 101043, Note_on_c, 9, 42, 0
1, 101160, Note_on_c, 9, 42, 96
1, 101163, Note_on_c, 9, 42, 0
1, 101279, Note_on_c, 9, 35, 0
1, 101280, Note_on_c, 9, 40, 96
1, 101280, Note_on_c, 9, 42, 96
1, 101283, Note_on_c, 9, 42, 0
1, 101399, Note_on_c, 9, 40, 0
1, 101400, Note_on_c, 9, 42, 96
1, 101403, Note_on_c, 9, 42, 0
1, 101520, Note_on_c, 9, 42, 96
1, 101523, Note_on_c, 9, 42, 0
1, 101640, Note_on_c, 9, 42, 96
1, 101643, Note_on_c, 9, 42, 0
1, 101760, Note_on_c, 9, 42, 96
1, 101763, Note_on_c, 9, 42, 0
1, 101880, Note_on_c, 9, 42, 96
1, 101883, Note_on_c, 9, 42, 0
1, 102000, Note_on_c, 9, 42, 96
1, 102000, Note_on_c, 9, 35, 96
1, 102003, Note_on_c, 9, 42, 0
1, 102120, Note_on_c, 9, 42, 96
1, 102123, Note_on_c, 9, 42, 0
1, 102239, Note_on_c, 9, 35, 0
1, 102240, Note_on_c, 9, 42, 96
1, 102240, Note_on_c, 9, 35, 96
1, 102243, Note_on_c, 9, 42, 0
1, 102360, Note_on_c, 9, 42, 96
1, 102363, Note_on_c, 9, 42, 0
1, 102480, Note_on_c, 9, 40, 96
1, 102480, Note_on_c, 9, 42, 96
1, 102483, Note_on_c, 9, 42, 0
1, 102599, Note_on_c, 9, 40, 0
1, 102600, Note_on_c, 9, 42, 96
1, 102603, Note_on_c, 9, 42, 0
1, 102719, Note_on_c, 9, 35, 0
1, 102720, Note_on_c, 9, 42, 96
1, 102723, Note_on_c, 9, 42, 0
1, 102840, Note_on_c, 9, 42, 96
1, 102843, Note_on_c, 9, 42, 0
1, 102960, Note_on_c, 9, 42, 96
1, 102960, Note_on_c, 9, 35, 96
1, 102963, Note_on_c, 9, 42, 0
1, 103080, Note_on_c, 9, 42, 96
1, 103083, Note_on_c, 9, 42, 0
1, 103199, Note_on_c, 9, 35, 0
1, 103200, Note_on_c, 9, 40, 96
1, 103200, Note_on_c, 9, 42, 96
1, 103203, Note_on_c, 9, 42, 0
1, 103319, Note_on_c, 9, 40, 0
1, 103320, Note_on_c, 9, 42, 96
1, 103323, Note_on_c, 9, 42, 0
1, 103440, Note_on_c, 9, 42, 96
1, 103443, Note_on_c, 9, 42, 0
1, 103560, Note_on_c, 9, 42, 96
1, 103563, Note_on_c, 9, 42, 0
1, 103680, Note_on_c, 9, 42, 96
1, 103683, Note_on_c, 9, 42, 0
1, 103800, Note_on_c, 9, 42, 96
1, 103803, Note_on_c, 9, 42, 0
1, 103920, Note_on_c, 9, 42, 96
1, 103920, Note_on_c, 9, 35, 96
1, 103923, Note_on_c, 9, 42, 0
1, 104040, Note_on_c, 9, 42, 96
1, 104043, Note_on_c, 9, 42, 0
1, 104159, Note_on_c, 9, 35, 0
1, 104160, Note_on_c, 9, 42, 96
1, 104163, Note_on_c, 9, 42, 0
1, 104280, Note_on_c, 9, 42, 96
1, 104283, Note_on_c, 9, 42, 0
1, 104400, Note_on_c, 9, 40, 96
1, 104400, Note_on_c, 9, 42, 96
1, 104403, Note_on_c, 9, 42, 0
1, 104519, Note_on_c, 9, 40, 0
1, 104520, Note_on_c, 9, 42, 96
1, 104523, Note_on_c, 9, 42, 0
1, 104640, Note_on_c, 9, 42, 96
1, 104643, Note_on_c, 9, 42, 0
1, 104760, Note_on_c, 9, 42, 96
1, 104763, Note_on_c, 9, 42, 0
1, 104880, Note_on_c, 9, 42, 96
1, 104880, Note_on_c, 9, 35, 96
1, 104883, Note_on_c, 9, 42, 0
1, 105000, Note_on_c, 9, 42, 96
1, 105003, Note_on_c, 9, 42, 0
1, 105119, Note_on_c, 9, 35, 0
1, 105120, Note_on_c, 9, 40, 96
1, 105120, Note_on_c, 9, 42, 96
1, 105123, Note_on_c, 9, 42, 0
1, 105239, Note_on_c, 9, 40, 0
1, 105240, Note_on_c, 9, 42, 96
1, 105243, Note_on_c, 9, 42, 0
1, 105360, Note_on_c, 9, 42, 96
1, 105363, Note_on_c, 9, 42, 0
1, 105480, Note_on_c, 9, 42, 96
1, 105483, Note_on_c, 9, 42, 0
1, 105600, Note_on_c, 9, 42, 96
1, 105603, Note_on_c, 9, 42, 0
1, 105720, Note_on_c, 9, 42, 96
1, 105723, Note_on_c, 9, 42, 0
1, 105840, Note_on_c, 9, 42, 96
1, 105840, Note_on_c, 9, 35, 96
1, 105843, Note_on_c, 9, 42, 0
1, 105960, Note_on_c, 9, 42, 96
1, 105963, Note_on_c, 9, 42, 0
1, 106079, Note_on_c, 9, 35, 0
1, 106080, Note_on_c, 9, 42, 96
1, 106080, Note_on_c, 9, 35, 96
1, 106083, Note_on_c, 9, 42, 0
1, 106200, Note_on_c, 9, 42, 96
1, 106203, Note_on_c, 9, 42, 0
1, 106320, Note_on_c, 9, 40, 96
1, 106320, Note_on_c, 9, 42, 96
1, 106323, Note_on_c, 9, 42, 0
1, 106439, Note_on_c, 9, 40, 0
1, 106440, Note_on_c, 9, 42, 96
1, 106443, Note_on_c, 9, 42, 0
1, 106559, Note_on_c, 9, 35, 0
1, 106560, Note_on_c, 9, 42, 96
1, 106563, Note_on_c, 9, 42, 0
1, 106680, Note_on_c, 9, 42, 96
1, 106683, Note_on_c, 9, 42, 0
1, 106800, Note_on_c, 9, 42, 96
1, 106800, Note_on_c, 9, 35, 96
1, 106803, Note_on_c, 9, 42, 0
1, 106920, Note_on_c, 9, 42, 96
1, 106923, Note_on_c, 9, 42, 0
1, 107039, Note_on_c, 9, 35, 0
1, 107040, Note_on_c, 9, 40, 96
1, 107040, Note_on_c, 9, 42, 96
1, 107043, Note_on_c, 9, 42, 0
1, 107159, Note_on_c, 9, 40, 0
1, 107160, Note_on_c, 9, 42, 96
1, 107163, Note_on_c, 9, 42, 0
1, 107280, Note_on_c, 9, 42, 96
1, 107283, Note_on_c, 9, 42, 0
1, 107400, Note_on_c, 9, 42, 96
1, 107403, Note_on_c, 9, 42, 0
1, 107520, Note_on_c, 9, 42, 96
1, 107523, Note_on_c, 9, 42, 0
1, 107640, Note_on_c, 9, 42, 96
1, 107643, Note_on_c, 9, 42, 0
1, 107760, Note_on_c, 9, 42, 96
1, 107760, Note_on_c, 9, 35, 96
1, 107763, Note_on_c, 9, 42, 0
1, 107880, Note_on_c, 9, 42, 96
1, 107883, Note_on_c, 9, 42, 0
1, 107999, Note_on_c, 9, 35, 0
1, 108000, Note_on_c, 9, 42, 96
1, 108003, Note_on_c, 9, 42, 0
1, 108120, Note_on_c, 9, 42, 96
1, 108123, Note_on_c, 9, 42, 0
1, 108240, Note_on_c, 9, 40, 96
1, 108240, Note_on_c, 9, 42, 96
1, 108243, Note_on_c, 9, 42, 0
1, 108359, Note_on_c, 9, 40, 0
1, 108360, Note_on_c, 9, 42, 96
1, 108363, Note_on_c, 9, 42, 0
1, 108480, Note_on_c, 9, 42, 96
1, 108483, Note_on_c, 9, 42, 0
1, 108600, Note_on_c, 9, 42, 96
1, 108603, Note_on_c, 9, 42, 0
1, 108720, Note_on_c, 9, 42, 96
1, 108720, Note_on_c, 9, 35, 96
1, 108723, Note_on_c, 9, 42, 0
1, 108840, Note_on_c, 9, 42, 96
1, 108843, Note_on_c, 9, 42, 0
1, 108959, Note_on_c, 9, 35, 0
1, 108960, Note_on_c, 9, 40, 96
1, 108960, Note_on_c, 9, 42, 96
1, 108963, Note_on_c, 9, 42, 0
1, 109079, Note_on_c, 9, 40, 0
1, 109080, Note_on_c, 9, 42, 96
1, 109083, Note_on_c, 9, 42, 0
1, 109200, Note_on_c, 9, 42, 96
1, 109203, Note_on_c, 9, 42, 0
1, 109320, Note_on_c, 9, 42, 96
1, 109323, Note_on_c, 9, 42, 0
1, 109440, Note_on_c, 9, 42, 96
1, 109443, Note_on_c, 9, 42, 0
1, 109560, Note_on_c, 9, 42, 96
1, 109563, Note_on_c, 9, 42, 0
1, 109680, Note_on_c, 9, 42, 96
1, 109680, Note_on_c, 9, 35, 96
1, 109683, Note_on_c, 9, 42, 0
1, 109800, Note_on_c, 9, 42, 96
1, 109803, Note_on_c, 9, 42, 0
1, 109919, Note_on_c, 9, 35, 0
1, 109920, Note_on_c, 9, 42, 96
1, 109920, Note_on_c, 9, 35, 96
1, 109923, Note_on_c, 9, 42, 0
1, 110040, Note_on_c, 9, 42, 96
1, 110043, Note_on_c, 9, 42, 0
1, 110160, Note_on_c, 9, 40, 96
1, 110160, Note_on_c, 9, 42, 96
1, 110163, Note_on_c, 9, 42, 0
1, 110279, Note_on_c, 9, 40, 0
1, 110280, Note_on_c, 9, 42, 96
1, 110283, Note_on_c, 9, 42, 0
1, 110399, Note_on_c, 9, 35, 0
1, 110400, Note_on_c, 9, 42, 96
1, 110403, Note_on_c, 9, 42, 0
1, 110520, Note_on_c, 9, 42, 96
1, 110523, Note_on_c, 9, 42, 0
1, 110640, Note_on_c, 9, 42, 96
1, 110640, Note_on_c, 9, 35, 96
1, 110643, Note_on_c, 9, 42, 0
1, 110760, Note_on_c, 9, 42, 96
1, 110763, Note_on_c, 9, 42, 0
1, 110879, Note_on_c, 9, 35, 0
1, 110880, Note_on_c, 9, 40, 96
1, 110880, Note_on_c, 9, 42, 96
1, 110883, Note_on_c, 9, 42, 0
1, 110999, Note_on_c, 9, 40, 0
1, 111000, Note_on_c, 9, 42, 96
1, 111003, Note_on_c, 9, 42, 0
1, 111120, Note_on_c, 9, 42, 96
1, 111123, Note_on_c, 9, 42, 0
1, 111240, Note_on_c, 9, 42, 96
1, 111243, Note_on_c, 9, 42, 0
1, 111360, Note_on_c, 9, 42, 96
1, 111363, Note_on_c, 9, 42, 0
1, 111480, Note_on_c, 9, 42, 96
1, 111483, Note_on_c, 9, 42, 0
1, 111600, Note_on_c, 9, 42, 96
1, 111600, Note_on_c, 9, 35, 96
1, 111603, Note_on_c, 9, 42, 0
1, 111720, Note_on_c, 9, 42, 96
1, 111723, Note_on_c, 9, 42, 0
1, 111839, Note_on_c, 9, 35, 0
1, 111840, Note_on_c, 9, 42, 96
1, 111843, Note_on_c, 9, 42, 0
1, 111960, Note_on_c, 9, 42, 96
1, 111963, Note_on_c, 9, 42, 0
1, 112080, Note_on_c, 9, 40, 96
1, 112080, Note_on_c, 9, 42, 96
1, 112083, Note_on_c, 9, 42, 0
1, 112199, Note_on_c, 9, 40, 0
1, 112200, Note_on_c, 9, 42, 96
1, 112203, Note_on_c, 9, 42, 0
1, 112320, Note_on_c, 9, 42, 96
1, 112323, Note_on_c, 9, 42, 0
1, 112440, Note_on_c, 9, 42, 96
1, 112443, Note_on_c, 9, 42, 0
1, 112560, Note_on_c, 9, 46, 96
1, 112560, Note_on_c, 9, 35, 96
1, 112563, Note_on_c, 9, 46, 0
1, 112680, Note_on_c, 9, 42, 96
1, 112683, Note_on_c, 9, 42, 0
1, 112799, Note_on_c, 9, 35, 0
1, 112800, Note_on_c, 9, 40, 96
1, 112800, Note_on_c, 9, 46, 96
1, 112803, Note_on_c, 9, 46, 0
1, 112919, Note_on_c, 9, 40, 0
1, 112920, Note_on_c, 9, 42, 96
1, 112923, Note_on_c, 9, 42, 0
1, 113040, Note_on_c, 9, 46, 96
1, 113043, Note_on_c, 9, 46, 0
1, 113160, Note_on_c, 9, 42, 96
1, 113163, Note_on_c, 9, 42, 0
1, 113280, Note_on_c, 9, 46, 96
1, 113283, Note_on_c, 9, 46, 0
1, 113400, Note_on_c, 9, 42, 96
1, 113403, Note_on_c, 9, 42, 0
1, 113520, Note_on_c, 9, 46, 96
1, 113520, Note_on_c, 9, 35, 96
1, 113523, Note_on_c, 9, 46, 0
1, 113640, Note_on_c, 9, 42, 96
1, 113643, Note_on_c, 9, 42, 0
1, 113759, Note_on_c, 9, 35, 0
1, 113760, Note_on_c, 9, 46, 96
1, 113760, Note_on_c, 9, 35, 96
1, 113763, Note_on_c, 9, 46, 0
1, 113880, Note_on_c, 9, 42, 96
1, 113883, Note_on_c, 9, 42, 0
1, 114000, Note_on_c, 9, 40, 96
1, 114000, Note_on_c, 9, 46, 96
1, 114008, Note_on_c, 9, 46, 0
1, 114239, Note_on_c, 9, 35, 0
1, 114239, Note_on_c, 9, 40, 0
1, 114240, Note_on_c, 9, 46, 96
1, 114248, Note_on_c, 9, 46, 0
1, 114480, Note_on_c, 9, 46, 96
1, 114480, Note_on_c, 9, 35, 96
1, 114488, Note_on_c, 9, 46, 0
1, 114719, Note_on_c, 9, 35, 0
1, 114720, Note_on_c, 9, 40, 96
1, 114720, Note_on_c, 9, 46, 96
1, 114728, Note_on_c, 9, 46, 0
1, 114959, Note_on_c, 9, 40, 0
1, 114960, Note_on_c, 9, 46, 96
1, 114968, Note_on_c, 9, 46, 0
1, 115200, Note_on_c, 9, 46, 96
1, 115208, Note_on_c, 9, 46, 0
1, 115440, Note_on_c, 9, 46, 96
1, 115440, Note_on_c, 9, 35, 96
1, 115448, Note_on_c, 9, 46, 0
1, 115679, Note_on_c, 9, 35, 0
1, 115680, Note_on_c, 9, 46, 96
1, 115688, Note_on_c, 9, 46, 0
1, 115920, Note_on_c, 9, 40, 96
1, 115920, Note_on_c, 9, 46, 96
1, 115928, Note_on_c, 9, 46, 0
1, 116159, Note_on_c, 9, 40, 0
1, 117360, Note_on_c, 9, 49, 96
1, 117360, Note_on_c, 9, 35, 96
1, 117368, Note_on_c, 9, 49, 0
1, 117599, Note_on_c, 9, 35, 0
1, 117600, Note_on_c, 9, 46, 96
1, 117608, Note_on_c, 9, 46, 0
1, 117840, Note_on_c, 9, 38, 96
1, 117840, Note_on_c, 9, 46, 96
1, 117848, Note_on_c, 9, 46, 0
1, 118079, Note_on_c, 9, 38, 0
1, 118080, Note_on_c, 9, 46, 96
1, 118088, Note_on_c, 9, 46, 0
1, 118320, Note_on_c, 9, 46, 96
1, 118320, Note_on_c, 9, 35, 96
1, 118328, Note_on_c, 9, 46, 0
1, 118559, Note_on_c, 9, 35, 0
1, 118560, Note_on_c, 9, 38, 96
1, 118560, Note_on_c, 9, 46, 96
1, 118568, Note_on_c, 9, 46, 0
1, 118799, Note_on_c, 9, 38, 0
1, 118800, Note_on_c, 9, 46, 96
1, 118808, Note_on_c, 9, 46, 0
1, 119040, Note_on_c, 9, 46, 96
1, 119048, Note_on_c, 9, 46, 0
1, 119280, Note_on_c, 9, 46, 96
1, 119280, Note_on_c, 9, 35, 96
1, 119288, Note_on_c, 9, 46, 0
1, 119519, Note_on_c, 9, 35, 0
1, 119520, Note_on_c, 9, 46, 96
1, 119520, Note_on_c, 9, 35, 96
1, 119528, Note_on_c, 9, 46, 0
1, 119760, Note_on_c, 9, 38, 96
1, 119760, Note_on_c, 9, 46, 96
1, 119768, Note_on_c, 9, 46, 0
1, 119999, Note_on_c, 9, 35, 0
1, 119999, Note_on_c, 9, 38, 0
1, 120000, Note_on_c, 9, 46, 96
1, 120008, Note_on_c, 9, 46, 0
1, 120240, Note_on_c, 9, 46, 96
1, 120240, Note_on_c, 9, 35, 96
1, 120248, Note_on_c, 9, 46, 0
1, 120479, Note_on_c, 9, 35, 0
1, 120480, Note_on_c, 9, 38, 96
1, 120480, Note_on_c, 9, 46, 96
1, 120488, Note_on_c, 9, 46, 0
1, 120719, Note_on_c, 9, 38, 0
1, 120720, Note_on_c, 9, 46, 96
1, 120728, Note_on_c, 9, 46, 0
1, 120960, Note_on_c, 9, 46, 96
1, 120968, Note_on_c, 9, 46, 0
1, 121200, Note_on_c, 9, 46, 96
1, 121200, Note_on_c, 9, 35, 96
1, 121208, Note_on_c, 9, 46, 0
1, 121439, Note_on_c, 9, 35, 0
1, 121440, Note_on_c, 9, 46, 96
1, 121448, Note_on_c, 9, 46, 0
1, 121680, Note_on_c, 9, 38, 96
1, 121680, Note_on_c, 9, 46, 96
1, 121688, Note_on_c, 9, 46, 0
1, 121919, Note_on_c, 9, 38, 0
1, 121920, Note_on_c, 9, 46, 96
1, 121928, Note_on_c, 9, 46, 0
1, 122160, Note_on_c, 9, 46, 96
1, 122160, Note_on_c, 9, 35, 96
1, 122168, Note_on_c, 9, 46, 0
1, 122399, Note_on_c, 9, 35, 0
1, 122400, Note_on_c, 9, 38, 96
1, 122400, Note_on_c, 9, 46, 96
1, 122408, Note_on_c, 9, 46, 0
1, 122639, Note_on_c, 9, 38, 0
1, 122640, Note_on_c, 9, 46, 96
1, 122648, Note_on_c, 9, 46, 0
1, 122880, Note_on_c, 9, 46, 96
1, 122888, Note_on_c, 9, 46, 0
1, 123120, Note_on_c, 9, 38, 96
1, 123120, Note_on_c, 9, 46, 96
1, 123128, Note_on_c, 9, 46, 0
1, 123240, Note_on_c, 9, 35, 96
1, 123359, Note_on_c, 9, 38, 0
1, 123359, Note_on_c, 9, 35, 0
1, 123360, Note_on_c, 9, 46, 96
1, 123360, Note_on_c, 9, 35, 96
1, 123368, Note_on_c, 9, 46, 0
1, 123599, Note_on_c, 9, 35, 0
1, 123600, Note_on_c, 9, 46, 96
1, 123600, Note_on_c, 9, 35, 96
1, 123608, Note_on_c, 9, 46, 0
1, 123839, Note_on_c, 9, 35, 0
1, 123840, Note_on_c, 9, 38, 96
1, 123840, Note_on_c, 9, 46, 96
1, 123848, Note_on_c, 9, 46, 0
1, 123960, Note_on_c, 9, 35, 96
1, 124079, Note_on_c, 9, 38, 0
1, 124079, Note_on_c, 9, 35, 0
1, 124080, Note_on_c, 9, 46, 96
1, 124080, Note_on_c, 9, 35, 96
1, 124088, Note_on_c, 9, 46, 0
1, 124319, Note_on_c, 9, 35, 0
1, 124320, Note_on_c, 9, 46, 96
1, 124320, Note_on_c, 9, 35, 96
1, 124328, Note_on_c, 9, 46, 0
1, 124560, Note_on_c, 9, 38, 96
1, 124560, Note_on_c, 9, 57, 96
1, 124568, Note_on_c, 9, 57, 0
1, 124799, Note_on_c, 9, 35, 0
1, 124799, Note_on_c, 9, 38, 0
1, 125040, Note_on_c, 9, 46, 96
1, 125040, Note_on_c, 9, 35, 96
1, 125048, Note_on_c, 9, 46, 0
1, 125279, Note_on_c, 9, 35, 0
1, 125280, Note_on_c, 9, 46, 96
1, 125288, Note_on_c, 9, 46, 0
1, 125520, Note_on_c, 9, 38, 96
1, 125520, Note_on_c, 9, 46, 96
1, 125528, Note_on_c, 9, 46, 0
1, 125759, Note_on_c, 9, 38, 0
1, 125760, Note_on_c, 9, 46, 96
1, 125768, Note_on_c, 9, 46, 0
1, 126000, Note_on_c, 9, 46, 96
1, 126000, Note_on_c, 9, 35, 96
1, 126008, Note_on_c, 9, 46, 0
1, 126239, Note_on_c, 9, 35, 0
1, 126240, Note_on_c, 9, 38, 96
1, 126240, Note_on_c, 9, 46, 96
1, 126248, Note_on_c, 9, 46, 0
1, 126479, Note_on_c, 9, 38, 0
1, 126480, Note_on_c, 9, 46, 96
1, 126488, Note_on_c, 9, 46, 0
1, 126720, Note_on_c, 9, 46, 96
1, 126728, Note_on_c, 9, 46, 0
1, 126960, Note_on_c, 9, 46, 96
1, 126960, Note_on_c, 9, 35, 96
1, 126968, Note_on_c, 9, 46, 0
1, 127199, Note_on_c, 9, 35, 0
1, 127200, Note_on_c, 9, 46, 96
1, 127200, Note_on_c, 9, 35, 96
1, 127208, Note_on_c, 9, 46, 0
1, 127440, Note_on_c, 9, 38, 96
1, 127440, Note_on_c, 9, 46, 96
1, 127448, Note_on_c, 9, 46, 0
1, 127679, Note_on_c, 9, 35, 0
1, 127679, Note_on_c, 9, 38, 0
1, 127680, Note_on_c, 9, 46, 96
1, 127688, Note_on_c, 9, 46, 0
1, 127920, Note_on_c, 9, 46, 96
1, 127920, Note_on_c, 9, 35, 96
1, 127928, Note_on_c, 9, 46, 0
1, 128159, Note_on_c, 9, 35, 0
1, 128160, Note_on_c, 9, 38, 96
1, 128160, Note_on_c, 9, 46, 96
1, 128168, Note_on_c, 9, 46, 0
1, 128399, Note_on_c, 9, 38, 0
1, 128400, Note_on_c, 9, 46, 96
1, 128408, Note_on_c, 9, 46, 0
1, 128640, Note_on_c, 9, 46, 96
1, 128648, Note_on_c, 9, 46, 0
1, 128880, Note_on_c, 9, 46, 96
1, 128880, Note_on_c, 9, 35, 96
1, 128888, Note_on_c, 9, 46, 0
1, 129119, Note_on_c, 9, 35, 0
1, 129120, Note_on_c, 9, 46, 96
1, 129128, Note_on_c, 9, 46, 0
1, 129360, Note_on_c, 9, 38, 96
1, 129360, Note_on_c, 9, 46, 96
1, 129368, Note_on_c, 9, 46, 0
1, 129599, Note_on_c, 9, 38, 0
1, 129600, Note_on_c, 9, 46, 96
1, 129608, Note_on_c, 9, 46, 0
1, 129840, Note_on_c, 9, 46, 96
1, 129840, Note_on_c, 9, 35, 96
1, 129848, Note_on_c, 9, 46, 0
1, 130079, Note_on_c, 9, 35, 0
1, 130080, Note_on_c, 9, 38, 96
1, 130080, Note_on_c, 9, 46, 96
1, 130088, Note_on_c, 9, 46, 0
1, 130319, Note_on_c, 9, 38, 0
1, 130320, Note_on_c, 9, 46, 96
1, 130328, Note_on_c, 9, 46, 0
1, 130560, Note_on_c, 9, 46, 96
1, 130568, Note_on_c, 9, 46, 0
1, 130800, Note_on_c, 9, 38, 96
1, 130800, Note_on_c, 9, 46, 96
1, 130808, Note_on_c, 9, 46, 0
1, 130920, Note_on_c, 9, 35, 96
1, 131039, Note_on_c, 9, 38, 0
1, 131039, Note_on_c, 9, 35, 0
1, 131040, Note_on_c, 9, 46, 96
1, 131040, Note_on_c, 9, 35, 96
1, 131048, Note_on_c, 9, 46, 0
1, 131279, Note_on_c, 9, 35, 0
1, 131280, Note_on_c, 9, 46, 96
1, 131280, Note_on_c, 9, 35, 96
1, 131288, Note_on_c, 9, 46, 0
1, 131519, Note_on_c, 9, 35, 0
1, 131520, Note_on_c, 9, 38, 96
1, 131520, Note_on_c, 9, 46, 96
1, 131528, Note_on_c, 9, 46, 0
1, 131640, Note_on_c, 9, 35, 96
1, 131759, Note_on_c, 9, 38, 0
1, 131759, Note_on_c, 9, 35, 0
1, 131760, Note_on_c, 9, 46, 96
1, 131760, Note_on_c, 9, 35, 96
1, 131768, Note_on_c, 9, 46, 0
1, 131999, Note_on_c, 9, 35, 0
1, 132000, Note_on_c, 9, 46, 96
1, 132000, Note_on_c, 9, 35, 96
1, 132008, Note_on_c, 9, 46, 0
1, 132240, Note_on_c, 9, 38, 96
1, 132240, Note_on_c, 9, 46, 96
1, 132248, Note_on_c, 9, 46, 0
1, 132479, Note_on_c, 9, 35, 0
1, 132479, Note_on_c, 9, 38, 0
1, 132480, Note_on_c, 9, 46, 96
1, 132480, Note_on_c, 9, 35, 96
1, 132488, Note_on_c, 9, 46, 0
1, 132719, Note_on_c, 9, 35, 0
1, 132720, Note_on_c, 9, 49, 96
1, 132720, Note_on_c, 9, 35, 96
1, 132728, Note_on_c, 9, 49, 0
1, 132959, Note_on_c, 9, 35, 0
1, 132960, Note_on_c, 9, 46, 96
1, 132968, Note_on_c, 9, 46, 0
1, 133200, Note_on_c, 9, 38, 96
1, 133200, Note_on_c, 9, 46, 96
1, 133208, Note_on_c, 9, 46, 0
1, 133439, Note_on_c, 9, 38, 0
1, 133440, Note_on_c, 9, 46, 96
1, 133448, Note_on_c, 9, 46, 0
1, 133680, Note_on_c, 9, 46, 96
1, 133680, Note_on_c, 9, 35, 96
1, 133688, Note_on_c, 9, 46, 0
1, 133919, Note_on_c, 9, 35, 0
1, 133920, Note_on_c, 9, 38, 96
1, 133920, Note_on_c, 9, 46, 96
1, 133928, Note_on_c, 9, 46, 0
1, 134159, Note_on_c, 9, 38, 0
1, 134160, Note_on_c, 9, 46, 96
1, 134168, Note_on_c, 9, 46, 0
1, 134400, Note_on_c, 9, 46, 96
1, 134408, Note_on_c, 9, 46, 0
1, 134640, Note_on_c, 9, 46, 96
1, 134640, Note_on_c, 9, 35, 96
1, 134648, Note_on_c, 9, 46, 0
1, 134879, Note_on_c, 9, 35, 0
1, 134880, Note_on_c, 9, 46, 96
1, 134880, Note_on_c, 9, 35, 96
1, 134888, Note_on_c, 9, 46, 0
1, 135120, Note_on_c, 9, 38, 96
1, 135120, Note_on_c, 9, 46, 96
1, 135128, Note_on_c, 9, 46, 0
1, 135359, Note_on_c, 9, 35, 0
1, 135359, Note_on_c, 9, 38, 0
1, 135360, Note_on_c, 9, 46, 96
1, 135368, Note_on_c, 9, 46, 0
1, 135600, Note_on_c, 9, 46, 96
1, 135600, Note_on_c, 9, 35, 96
1, 135608, Note_on_c, 9, 46, 0
1, 135839, Note_on_c, 9, 35, 0
1, 135840, Note_on_c, 9, 38, 96
1, 135840, Note_on_c, 9, 46, 96
1, 135848, Note_on_c, 9, 46, 0
1, 136079, Note_on_c, 9, 38, 0
1, 136080, Note_on_c, 9, 46, 96
1, 136088, Note_on_c, 9, 46, 0
1, 136320, Note_on_c, 9, 46, 96
1, 136328, Note_on_c, 9, 46, 0
1, 136560, Note_on_c, 9, 46, 96
1, 136560, Note_on_c, 9, 35, 96
1, 136568, Note_on_c, 9, 46, 0
1, 136799, Note_on_c, 9, 35, 0
1, 136800, Note_on_c, 9, 46, 96
1, 136808, Note_on_c, 9, 46, 0
1, 137040, Note_on_c, 9, 38, 96
1, 137040, Note_on_c, 9, 46, 96
1, 137048, Note_on_c, 9, 46, 0
1, 137279, Note_on_c, 9, 38, 0
1, 137280, Note_on_c, 9, 46, 96
1, 137288, Note_on_c, 9, 46, 0
1, 137520, Note_on_c, 9, 46, 96
1, 137520, Note_on_c, 9, 35, 96
1, 137528, Note_on_c, 9, 46, 0
1, 137759, Note_on_c, 9, 35, 0
1, 137760, Note_on_c, 9, 38, 96
1, 137760, Note_on_c, 9, 46, 96
1, 137768, Note_on_c, 9, 46, 0
1, 137999, Note_on_c, 9, 38, 0
1, 138000, Note_on_c, 9, 46, 96
1, 138008, Note_on_c, 9, 46, 0
1, 138240, Note_on_c, 9, 46, 96
1, 138248, Note_on_c, 9, 46, 0
1, 138480, Note_on_c, 9, 38, 96
1, 138480, Note_on_c, 9, 46, 96
1, 138488, Note_on_c, 9, 46, 0
1, 138600, Note_on_c, 9, 35, 96
1, 138719, Note_on_c, 9, 38, 0
1, 138719, Note_on_c, 9, 35, 0
1, 138720, Note_on_c, 9, 46, 96
1, 138720, Note_on_c, 9, 35, 96
1, 138728, Note_on_c, 9, 46, 0
1, 138959, Note_on_c, 9, 35, 0
1, 138960, Note_on_c, 9, 46, 96
1, 138960, Note_on_c, 9, 35, 96
1, 138968, Note_on_c, 9, 46, 0
1, 139199, Note_on_c, 9, 35, 0
1, 139200, Note_on_c, 9, 38, 96
1, 139200, Note_on_c, 9, 46, 96
1, 139208, Note_on_c, 9, 46, 0
1, 139320, Note_on_c, 9, 35, 96
1, 139439, Note_on_c, 9, 38, 0
1, 139439, Note_on_c, 9, 35, 0
1, 139440, Note_on_c, 9, 46, 96
1, 139440, Note_on_c, 9, 35, 96
1, 139448, Note_on_c, 9, 46, 0
1, 139679, Note_on_c, 9, 35, 0
1, 139680, Note_on_c, 9, 46, 96
1, 139680, Note_on_c, 9, 35, 96
1, 139688, Note_on_c, 9, 46, 0
1, 139920, Note_on_c, 9, 38, 96
1, 139920, Note_on_c, 9, 57, 96
1, 139928, Note_on_c, 9, 57, 0
1, 140159, Note_on_c, 9, 35, 0
1, 140159, Note_on_c, 9, 38, 0
1, 140400, Note_on_c, 9, 46, 96
1, 140400, Note_on_c, 9, 35, 96
1, 140408, Note_on_c, 9, 46, 0
1, 140639, Note_on_c, 9, 35, 0
1, 140640, Note_on_c, 9, 46, 96
1, 140648, Note_on_c, 9, 46, 0
1, 140880, Note_on_c, 9, 38, 96
1, 140880, Note_on_c, 9, 46, 96
1, 140888, Note_on_c, 9, 46, 0
1, 141119, Note_on_c, 9, 38, 0
1, 141120, Note_on_c, 9, 46, 96
1, 141128, Note_on_c, 9, 46, 0
1, 141360, Note_on_c, 9, 46, 96
1, 141360, Note_on_c, 9, 35, 96
1, 141368, Note_on_c, 9, 46, 0
1, 141599, Note_on_c, 9, 35, 0
1, 141600, Note_on_c, 9, 38, 96
1, 141600, Note_on_c, 9, 46, 96
1, 141608, Note_on_c, 9, 46, 0
1, 141839, Note_on_c, 9, 38, 0
1, 141840, Note_on_c, 9, 46, 96
1, 141848, Note_on_c, 9, 46, 0
1, 142080, Note_on_c, 9, 46, 96
1, 142088, Note_on_c, 9, 46, 0
1, 142320, Note_on_c, 9, 46, 96
1, 142320, Note_on_c, 9, 35, 96
1, 142328, Note_on_c, 9, 46, 0
1, 142559, Note_on_c, 9, 35, 0
1, 142560, Note_on_c, 9, 46, 96
1, 142560, Note_on_c, 9, 35, 96
1, 142568, Note_on_c, 9, 46, 0
1, 142800, Note_on_c, 9, 38, 96
1, 142800, Note_on_c, 9, 46, 96
1, 142808, Note_on_c, 9, 46, 0
1, 143039, Note_on_c, 9, 35, 0
1, 143039, Note_on_c, 9, 38, 0
1, 143040, Note_on_c, 9, 46, 96
1, 143048, Note_on_c, 9, 46, 0
1, 143280, Note_on_c, 9, 46, 96
1, 143280, Note_on_c, 9, 35, 96
1, 143288, Note_on_c, 9, 46, 0
1, 143519, Note_on_c, 9, 35, 0
1, 143520, Note_on_c, 9, 38, 96
1, 143520, Note_on_c, 9, 46, 96
1, 143528, Note_on_c, 9, 46, 0
1, 143759, Note_on_c, 9, 38, 0
1, 143760, Note_on_c, 9, 46, 96
1, 143768, Note_on_c, 9, 46, 0
1, 144000, Note_on_c, 9, 46, 96
1, 144008, Note_on_c, 9, 46, 0
1, 144240, Note_on_c, 9, 46, 96
1, 144240, Note_on_c, 9, 35, 96
1, 144248, Note_on_c, 9, 46, 0
1, 144479, Note_on_c, 9, 35, 0
1, 144480, Note_on_c, 9, 46, 96
1, 144488, Note_on_c, 9, 46, 0
1, 144720, Note_on_c, 9, 38, 96
1, 144720, Note_on_c, 9, 46, 96
1, 144728, Note_on_c, 9, 46, 0
1, 144959, Note_on_c, 9, 38, 0
1, 144960, Note_on_c, 9, 46, 96
1, 144968, Note_on_c, 9, 46, 0
1, 145200, Note_on_c, 9, 46, 96
1, 145200, Note_on_c, 9, 35, 96
1, 145208, Note_on_c, 9, 46, 0
1, 145439, Note_on_c, 9, 35, 0
1, 145440, Note_on_c, 9, 38, 96
1, 145440, Note_on_c, 9, 46, 96
1, 145448, Note_on_c, 9, 46, 0
1, 145679, Note_on_c, 9, 38, 0
1, 145680, Note_on_c, 9, 46, 96
1, 145688, Note_on_c, 9, 46, 0
1, 145920, Note_on_c, 9, 46, 96
1, 145928, Note_on_c, 9, 46, 0
1, 146160, Note_on_c, 9, 38, 96
1, 146160, Note_on_c, 9, 46, 96
1, 146168, Note_on_c, 9, 46, 0
1, 146280, Note_on_c, 9, 35, 96
1, 146399, Note_on_c, 9, 38, 0
1, 146399, Note_on_c, 9, 35, 0
1, 146400, Note_on_c, 9, 46, 96
1, 146400, Note_on_c, 9, 35, 96
1, 146408, Note_on_c, 9, 46, 0
1, 146639, Note_on_c, 9, 35, 0
1, 146640, Note_on_c, 9, 46, 96
1, 146640, Note_on_c, 9, 35, 96
1, 146648, Note_on_c, 9, 46, 0
1, 146879, Note_on_c, 9, 35, 0
1, 146880, Note_on_c, 9, 38, 96
1, 146880, Note_on_c, 9, 46, 96
1, 146888, Note_on_c, 9, 46, 0
1, 147000, Note_on_c, 9, 35, 96
1, 147119, Note_on_c, 9, 38, 0
1, 147119, Note_on_c, 9, 35, 0
1, 147120, Note_on_c, 9, 46, 96
1, 147120, Note_on_c, 9, 35, 96
1, 147128, Note_on_c, 9, 46, 0
1, 147359, Note_on_c, 9, 35, 0
1, 147360, Note_on_c, 9, 46, 96
1, 147360, Note_on_c, 9, 35, 96
1, 147368, Note_on_c, 9, 46, 0
1, 147600, Note_on_c, 9, 38, 96
1, 147600, Note_on_c, 9, 46, 96
1, 147608, Note_on_c, 9, 46, 0
1, 147839, Note_on_c, 9, 35, 0
1, 147839, Note_on_c, 9, 38, 0
1, 147840, Note_on_c, 9, 46, 96
1, 147840, Note_on_c, 9, 35, 96
1, 147848, Note_on_c, 9, 46, 0
1, 148079, Note_on_c, 9, 35, 0
1, 148080, Note_on_c, 9, 49, 96
1, 148080, Note_on_c, 9, 35, 96
1, 148088, Note_on_c, 9, 49, 0
1, 148319, Note_on_c, 9, 35, 0
1, 148320, Note_on_c, 9, 46, 96
1, 148328, Note_on_c, 9, 46, 0
1, 148560, Note_on_c, 9, 38, 96
1, 148560, Note_on_c, 9, 46, 96
1, 148568, Note_on_c, 9, 46, 0
1, 148799, Note_on_c, 9, 38, 0
1, 148800, Note_on_c, 9, 46, 96
1, 148808, Note_on_c, 9, 46, 0
1, 149040, Note_on_c, 9, 46, 96
1, 149040, Note_on_c, 9, 35, 96
1, 149048, Note_on_c, 9, 46, 0
1, 149279, Note_on_c, 9, 35, 0
1, 149280, Note_on_c, 9, 38, 96
1, 149280, Note_on_c, 9, 46, 96
1, 149288, Note_on_c, 9, 46, 0
1, 149519, Note_on_c, 9, 38, 0
1, 149520, Note_on_c, 9, 46, 96
1, 149528, Note_on_c, 9, 46, 0
1, 149760, Note_on_c, 9, 46, 96
1, 149768, Note_on_c, 9, 46, 0
1, 150000, Note_on_c, 9, 46, 96
1, 150000, Note_on_c, 9, 35, 96
1, 150008, Note_on_c, 9, 46, 0
1, 150239, Note_on_c, 9, 35, 0
1, 150240, Note_on_c, 9, 46, 96
1, 150240, Note_on_c, 9, 35, 96
1, 150248, Note_on_c, 9, 46, 0
1, 150480, Note_on_c, 9, 38, 96
1, 150480, Note_on_c, 9, 46, 96
1, 150488, Note_on_c, 9, 46, 0
1, 150719, Note_on_c, 9, 35, 0
1, 150719, Note_on_c, 9, 38, 0
1, 150720, Note_on_c, 9, 46, 96
1, 150728, Note_on_c, 9, 46, 0
1, 150960, Note_on_c, 9, 46, 96
1, 150960, Note_on_c, 9, 35, 96
1, 150968, Note_on_c, 9, 46, 0
1, 151199, Note_on_c, 9, 35, 0
1, 151200, Note_on_c, 9, 38, 96
1, 151200, Note_on_c, 9, 46, 96
1, 151208, Note_on_c, 9, 46, 0
1, 151439, Note_on_c, 9, 38, 0
1, 151440, Note_on_c, 9, 46, 96
1, 151448, Note_on_c, 9, 46, 0
1, 151680, Note_on_c, 9, 46, 96
1, 151688, Note_on_c, 9, 46, 0
1, 151920, Note_on_c, 9, 46, 96
1, 151920, Note_on_c, 9, 35, 96
1, 151928, Note_on_c, 9, 46, 0
1, 152159, Note_on_c, 9, 35, 0
1, 152160, Note_on_c, 9, 46, 96
1, 152168, Note_on_c, 9, 46, 0
1, 152400, Note_on_c, 9, 38, 96
1, 152400, Note_on_c, 9, 46, 96
1, 152408, Note_on_c, 9, 46, 0
1, 152639, Note_on_c, 9, 38, 0
1, 152640, Note_on_c, 9, 46, 96
1, 152648, Note_on_c, 9, 46, 0
1, 152880, Note_on_c, 9, 46, 96
1, 152880, Note_on_c, 9, 35, 96
1, 152888, Note_on_c, 9, 46, 0
1, 153119, Note_on_c, 9, 35, 0
1, 153120, Note_on_c, 9, 38, 96
1, 153120, Note_on_c, 9, 46, 96
1, 153128, Note_on_c, 9, 46, 0
1, 153359, Note_on_c, 9, 38, 0
1, 153360, Note_on_c, 9, 46, 96
1, 153368, Note_on_c, 9, 46, 0
1, 153600, Note_on_c, 9, 46, 96
1, 153608, Note_on_c, 9, 46, 0
1, 153840, Note_on_c, 9, 38, 96
1, 153840, Note_on_c, 9, 46, 96
1, 153848, Note_on_c, 9, 46, 0
1, 153960, Note_on_c, 9, 35, 96
1, 154079, Note_on_c, 9, 38, 0
1, 154079, Note_on_c, 9, 35, 0
1, 154080, Note_on_c, 9, 46, 96
1, 154080, Note_on_c, 9, 35, 96
1, 154088, Note_on_c, 9, 46, 0
1, 154319, Note_on_c, 9, 35, 0
1, 154320, Note_on_c, 9, 46, 96
1, 154320, Note_on_c, 9, 35, 96
1, 154328, Note_on_c, 9, 46, 0
1, 154559, Note_on_c, 9, 35, 0
1, 154560, Note_on_c, 9, 38, 96
1, 154560, Note_on_c, 9, 46, 96
1, 154568, Note_on_c, 9, 46, 0
1, 154680, Note_on_c, 9, 35, 96
1, 154799, Note_on_c, 9, 38, 0
1, 154799, Note_on_c, 9, 35, 0
1, 154800, Note_on_c, 9, 46, 96
1, 154800, Note_on_c, 9, 35, 96
1, 154808, Note_on_c, 9, 46, 0
1, 155039, Note_on_c, 9, 35, 0
1, 155040, Note_on_c, 9, 46, 96
1, 155040, Note_on_c, 9, 35, 96
1, 155048, Note_on_c, 9, 46, 0
1, 155280, Note_on_c, 9, 38, 96
1, 155280, Note_on_c, 9, 57, 96
1, 155288, Note_on_c, 9, 57, 0
1, 155519, Note_on_c, 9, 35, 0
1, 155519, Note_on_c, 9, 38, 0
1, 155760, Note_on_c, 9, 46, 96
1, 155760, Note_on_c, 9, 35, 96
1, 155768, Note_on_c, 9, 46, 0
1, 155999, Note_on_c, 9, 35, 0
1, 156000, Note_on_c, 9, 46, 96
1, 156008, Note_on_c, 9, 46, 0
1, 156240, Note_on_c, 9, 38, 96
1, 156240, Note_on_c, 9, 46, 96
1, 156248, Note_on_c, 9, 46, 0
1, 156479, Note_on_c, 9, 38, 0
1, 156480, Note_on_c, 9, 46, 96
1, 156488, Note_on_c, 9, 46, 0
1, 156720, Note_on_c, 9, 46, 96
1, 156720, Note_on_c, 9, 35, 96
1, 156728, Note_on_c, 9, 46, 0
1, 156959, Note_on_c, 9, 35, 0
1, 156960, Note_on_c, 9, 38, 96
1, 156960, Note_on_c, 9, 46, 96
1, 156968, Note_on_c, 9, 46, 0
1, 157199, Note_on_c, 9, 38, 0
1, 157200, Note_on_c, 9, 46, 96
1, 157208, Note_on_c, 9, 46, 0
1, 157440, Note_on_c, 9, 46, 96
1, 157448, Note_on_c, 9, 46, 0
1, 157680, Note_on_c, 9, 46, 96
1, 157680, Note_on_c, 9, 35, 96
1, 157688, Note_on_c, 9, 46, 0
1, 157919, Note_on_c, 9, 35, 0
1, 157920, Note_on_c, 9, 46, 96
1, 157920, Note_on_c, 9, 35, 96
1, 157928, Note_on_c, 9, 46, 0
1, 158160, Note_on_c, 9, 38, 96
1, 158160, Note_on_c, 9, 46, 96
1, 158168, Note_on_c, 9, 46, 0
1, 158399, Note_on_c, 9, 35, 0
1, 158399, Note_on_c, 9, 38, 0
1, 158400, Note_on_c, 9, 46, 96
1, 158408, Note_on_c, 9, 46, 0
1, 158640, Note_on_c, 9, 46, 96
1, 158640, Note_on_c, 9, 35, 96
1, 158648, Note_on_c, 9, 46, 0
1, 158879, Note_on_c, 9, 35, 0
1, 158880, Note_on_c, 9, 38, 96
1, 158880, Note_on_c, 9, 46, 96
1, 158888, Note_on_c, 9, 46, 0
1, 159119, Note_on_c, 9, 38, 0
1, 159120, Note_on_c, 9, 46, 96
1, 159128, Note_on_c, 9, 46, 0
1, 159360, Note_on_c, 9, 46, 96
1, 159368, Note_on_c, 9, 46, 0
1, 159600, Note_on_c, 9, 46, 96
1, 159600, Note_on_c, 9, 35, 96
1, 159608, Note_on_c, 9, 46, 0
1, 159839, Note_on_c, 9, 35, 0
1, 159840, Note_on_c, 9, 46, 96
1, 159848, Note_on_c, 9, 46, 0
1, 160080, Note_on_c, 9, 38, 96
1, 160080, Note_on_c, 9, 46, 96
1, 160088, Note_on_c, 9, 46, 0
1, 160319, Note_on_c, 9, 38, 0
1, 160320, Note_on_c, 9, 46, 96
1, 160328, Note_on_c, 9, 46, 0
1, 160560, Note_on_c, 9, 46, 96
1, 160560, Note_on_c, 9, 35, 96
1, 160568, Note_on_c, 9, 46, 0
1, 160799, Note_on_c, 9, 35, 0
1, 160800, Note_on_c, 9, 38, 96
1, 160800, Note_on_c, 9, 46, 96
1, 160808, Note_on_c, 9, 46, 0
1, 161039, Note_on_c, 9, 38, 0
1, 161040, Note_on_c, 9, 46, 96
1, 161048, Note_on_c, 9, 46, 0
1, 161280, Note_on_c, 9, 46, 96
1, 161288, Note_on_c, 9, 46, 0
1, 161520, Note_on_c, 9, 38, 96
1, 161520, Note_on_c, 9, 46, 96
1, 161528, Note_on_c, 9, 46, 0
1, 161640, Note_on_c, 9, 35, 96
1, 161759, Note_on_c, 9, 38, 0
1, 161759, Note_on_c, 9, 35, 0
1, 161760, Note_on_c, 9, 46, 96
1, 161760, Note_on_c, 9, 35, 96
1, 161768, Note_on_c, 9, 46, 0
1, 161999, Note_on_c, 9, 35, 0
1, 162000, Note_on_c, 9, 46, 96
1, 162000, Note_on_c, 9, 35, 96
1, 162008, Note_on_c, 9, 46, 0
1, 162239, Note_on_c, 9, 35, 0
1, 162240, Note_on_c, 9, 38, 96
1, 162240, Note_on_c, 9, 46, 96
1, 162248, Note_on_c, 9, 46, 0
1, 162360, Note_on_c, 9, 35, 96
1, 162479, Note_on_c, 9, 38, 0
1, 162479, Note_on_c, 9, 35, 0
1, 162480, Note_on_c, 9, 46, 96
1, 162480, Note_on_c, 9, 35, 96
1, 162488, Note_on_c, 9, 46, 0
1, 162719, Note_on_c, 9, 35, 0
1, 162720, Note_on_c, 9, 46, 96
1, 162720, Note_on_c, 9, 35, 96
1, 162728, Note_on_c, 9, 46, 0
1, 162960, Note_on_c, 9, 38, 96
1, 162960, Note_on_c, 9, 46, 96
1, 162968, Note_on_c, 9, 46, 0
1, 163199, Note_on_c, 9, 35, 0
1, 163199, Note_on_c, 9, 38, 0
1, 163200, Note_on_c, 9, 46, 96
1, 163200, Note_on_c, 9, 35, 96
1, 163208, Note_on_c, 9, 46, 0
1, 163440, Note_on_c, 9, 38, 96
1, 163440, Note_on_c, 9, 46, 96
1, 163448, Note_on_c, 9, 46, 0
1, 163559, Note_on_c, 9, 35, 0
1, 163560, Note_on_c, 9, 35, 96
1, 163679, Note_on_c, 9, 38, 0
1, 163679, Note_on_c, 9, 35, 0
1, 163680, Note_on_c, 9, 46, 96
1, 163680, Note_on_c, 9, 35, 96
1, 163688, Note_on_c, 9, 46, 0
1, 163919, Note_on_c, 9, 35, 0
1, 163920, Note_on_c, 9, 46, 96
1, 163920, Note_on_c, 9, 35, 96
1, 163928, Note_on_c, 9, 46, 0
1, 164159, Note_on_c, 9, 35, 0
1, 164160, Note_on_c, 9, 38, 96
1, 164160, Note_on_c, 9, 46, 96
1, 164168, Note_on_c, 9, 46, 0
1, 164280, Note_on_c, 9, 35, 96
1, 164399, Note_on_c, 9, 38, 0
1, 164399, Note_on_c, 9, 35, 0
1, 164400, Note_on_c, 9, 46, 96
1, 164400, Note_on_c, 9, 35, 96
1, 164408, Note_on_c, 9, 46, 0
1, 164639, Note_on_c, 9, 35, 0
1, 164640, Note_on_c, 9, 46, 96
1, 164640, Note_on_c, 9, 35, 96
1, 164648, Note_on_c, 9, 46, 0
1, 164880, Note_on_c, 9, 38, 96
1, 164880, Note_on_c, 9, 46, 96
1, 164888, Note_on_c, 9, 46, 0
1, 165119, Note_on_c, 9, 35, 0
1, 165119, Note_on_c, 9, 38, 0
1, 165120, Note_on_c, 9, 46, 96
1, 165120, Note_on_c, 9, 35, 96
1, 165138, Note_on_c, 9, 46, 0
1, 165599, Note_on_c, 9, 35, 0
1, 165600, End_track
0, 0, End_of_file
