0, 0, Header, 1, 1, 480
1, 0, Start_track
1, 0, Title_t, "Drumset"
1, 0, Time_signature, 4, 2, 24, 8
1, 0, Key_signature, 0, "major"
1, 0, Tempo, 895522
1, 0, Control_c, 9, 121, 0
1, 0, Program_c, 9, 0
1, 0, Control_c, 9, 7, 100
1, 0, Control_c, 9, 10, 64
1, 0, Control_c, 9, 91, 0
1, 0, Control_c, 9, 93, 0
1, 0, MIDI_port, 0
1, 0, Note_on_c, 9, 45, 127
1, 119, Note_on_c, 9, 45, 0
1, 120, Note_on_c, 9, 45, 104
1, 239, Note_on_c, 9, 45, 0
1, 240, Note_on_c, 9, 42, 127
1, 245, Note_on_c, 9, 42, 0
1, 720, Note_on_c, 9, 42, 119
1, 725, Note_on_c, 9, 42, 0
1, 960, Note_on_c, 9, 45, 127
1, 1079, Note_on_c, 9, 45, 0
1, 1080, Note_on_c, 9, 45, 104
1, 1199, Note_on_c, 9, 45, 0
1, 1200, Note_on_c, 9, 42, 121
1, 1205, Note_on_c, 9, 42, 0
1, 1440, Note_on_c, 9, 45, 127
1, 1559, Note_on_c, 9, 45, 0
1, 1560, Note_on_c, 9, 45, 106
1, 1679, Note_on_c, 9, 45, 0
1, 1680, Note_on_c, 9, 42, 122
1, 1685, Note_on_c, 9, 42, 0
1, 1920, Note_on_c, 9, 45, 127
1, 2039, Note_on_c, 9, 45, 0
1, 2040, Note_on_c, 9, 45, 98
1, 2159, Note_on_c, 9, 45, 0
1, 2160, Note_on_c, 9, 42, 115
1, 2165, Note_on_c, 9, 42, 0
1, 2640, Note_on_c, 9, 42, 127
1, 2645, Note_on_c, 9, 42, 0
1, 2880, Note_on_c, 9, 45, 127
1, 2999, Note_on_c, 9, 45, 0
1, 3000, Note_on_c, 9, 45, 103
1, 3119, Note_on_c, 9, 45, 0
1, 3120, Note_on_c, 9, 42, 126
1, 3125, Note_on_c, 9, 42, 0
1, 3360, Note_on_c, 9, 45, 127
1, 3479, Note_on_c, 9, 45, 0
1, 3480, Note_on_c, 9, 45, 100
1, 3599, Note_on_c, 9, 45, 0
1, 3600, Note_on_c, 9, 42, 118
1, 3605, Note_on_c, 9, 42, 0
1, 3840, Note_on_c, 9, 45, 127
1, 3959, Note_on_c, 9, 45, 0
1, 3960, Note_on_c, 9, 45, 104
1, 4079, Note_on_c, 9, 45, 0
1, 4080, Note_on_c, 9, 42, 127
1, 4085, Note_on_c, 9, 42, 0
1, 4560, Note_on_c, 9, 42, 119
1, 4565, Note_on_c, 9, 42, 0
1, 4800, Note_on_c, 9, 45, 127
1, 4919, Note_on_c, 9, 45, 0
1, 4920, Note_on_c, 9, 45, 104
1, 5039, Note_on_c, 9, 45, 0
1, 5040, Note_on_c, 9, 42, 121
1, 5045, Note_on_c, 9, 42, 0
1, 5280, Note_on_c, 9, 45, 127
1, 5399, Note_on_c, 9, 45, 0
1, 5400, Note_on_c, 9, 45, 106
1, 5519, Note_on_c, 9, 45, 0
1, 5520, Note_on_c, 9, 42, 122
1, 5525, Note_on_c, 9, 42, 0
1, 5632, Tempo, 909091
1, 5760, Note_on_c, 9, 45, 127
1, 5879, Note_on_c, 9, 45, 0
1, 5880, Note_on_c, 9, 45, 98
1, 5999, Note_on_c, 9, 45, 0
1, 6000, Note_on_c, 9, 42, 115
1, 6005, Note_on_c, 9, 42, 0
1, 6480, Note_on_c, 9, 42, 127
1, 6485, Note_on_c, 9, 42, 0
1, 6720, Note_on_c, 9, 45, 127
1, 6839, Note_on_c, 9, 45, 0
1, 6840, Note_on_c, 9, 45, 103
1, 6959, Note_on_c, 9, 45, 0
1, 6960, Note_on_c, 9, 42, 126
1, 6965, Note_on_c, 9, 42, 0
1, 7200, Note_on_c, 9, 45, 127
1, 7319, Note_on_c, 9, 45, 0
1, 7320, Note_on_c, 9, 45, 100
1, 7439, Note_on_c, 9, 45, 0
1, 7440, Note_on_c, 9, 42, 118
1, 7445, Note_on_c, 9, 42, 0
1, 7680, Note_on_c, 9, 38, 127
1, 7680, Note_on_c, 9, 45, 127
1, 7680, Note_on_c, 9, 49, 127
1, 7680, Note_on_c, 9, 36, 127
1, 7682, Note_on_c, 9, 49, 0
1, 7799, Note_on_c, 9, 38, 0
1, 7799, Note_on_c, 9, 45, 0
1, 7799, Note_on_c, 9, 36, 0
1, 7800, Note_on_c, 9, 38, 104
1, 7800, Note_on_c, 9, 45, 104
1, 7800, Note_on_c, 9, 49, 104
1, 7800, Note_on_c, 9, 36, 104
1, 7802, Note_on_c, 9, 49, 0
1, 7919, Note_on_c, 9, 38, 0
1, 7919, Note_on_c, 9, 45, 0
1, 7919, Note_on_c, 9, 36, 0
1, 7920, Note_on_c, 9, 36, 127
1, 8159, Note_on_c, 9, 36, 0
1, 8160, Note_on_c, 9, 36, 127
1, 8399, Note_on_c, 9, 36, 0
1, 8400, Note_on_c, 9, 36, 119
1, 8639, Note_on_c, 9, 36, 0
1, 8640, Note_on_c, 9, 45, 127
1, 8640, Note_on_c, 9, 36, 127
1, 8759, Note_on_c, 9, 45, 0
1, 8760, Note_on_c, 9, 45, 104
1, 8879, Note_on_c, 9, 36, 0
1, 8879, Note_on_c, 9, 45, 0
1, 8880, Note_on_c, 9, 36, 121
1, 9119, Note_on_c, 9, 36, 0
1, 9120, Note_on_c, 9, 45, 127
1, 9120, Note_on_c, 9, 36, 127
1, 9239, Note_on_c, 9, 45, 0
1, 9240, Note_on_c, 9, 45, 106
1, 9359, Note_on_c, 9, 36, 0
1, 9359, Note_on_c, 9, 45, 0
1, 9360, Note_on_c, 9, 36, 122
1, 9599, Note_on_c, 9, 36, 0
1, 9600, Note_on_c, 9, 38, 127
1, 9600, Note_on_c, 9, 45, 127
1, 9600, Note_on_c, 9, 49, 127
1, 9600, Note_on_c, 9, 36, 127
1, 9602, Note_on_c, 9, 49, 0
1, 9719, Note_on_c, 9, 38, 0
1, 9719, Note_on_c, 9, 45, 0
1, 9719, Note_on_c, 9, 36, 0
1, 9720, Note_on_c, 9, 38, 98
1, 9720, Note_on_c, 9, 45, 98
1, 9720, Note_on_c, 9, 49, 98
1, 9720, Note_on_c, 9, 36, 98
1, 9722, Note_on_c, 9, 49, 0
1, 9839, Note_on_c, 9, 38, 0
1, 9839, Note_on_c, 9, 45, 0
1, 9839, Note_on_c, 9, 36, 0
1, 9840, Note_on_c, 9, 36, 115
1, 10079, Note_on_c, 9, 36, 0
1, 10080, Note_on_c, 9, 36, 127
1, 10319, Note_on_c, 9, 36, 0
1, 10320, Note_on_c, 9, 36, 127
1, 10559, Note_on_c, 9, 36, 0
1, 10560, Note_on_c, 9, 45, 127
1, 10560, Note_on_c, 9, 36, 127
1, 10679, Note_on_c, 9, 45, 0
1, 10680, Note_on_c, 9, 45, 103
1, 10799, Note_on_c, 9, 36, 0
1, 10799, Note_on_c, 9, 45, 0
1, 10800, Note_on_c, 9, 36, 126
1, 11039, Note_on_c, 9, 36, 0
1, 11040, Note_on_c, 9, 45, 127
1, 11040, Note_on_c, 9, 36, 127
1, 11159, Note_on_c, 9, 45, 0
1, 11160, Note_on_c, 9, 45, 100
1, 11279, Note_on_c, 9, 36, 0
1, 11279, Note_on_c, 9, 45, 0
1, 11280, Note_on_c, 9, 36, 118
1, 11519, Note_on_c, 9, 36, 0
1, 11520, Note_on_c, 9, 38, 127
1, 11520, Note_on_c, 9, 45, 127
1, 11520, Note_on_c, 9, 49, 127
1, 11520, Note_on_c, 9, 36, 127
1, 11522, Note_on_c, 9, 49, 0
1, 11639, Note_on_c, 9, 38, 0
1, 11639, Note_on_c, 9, 45, 0
1, 11639, Note_on_c, 9, 36, 0
1, 11640, Note_on_c, 9, 38, 104
1, 11640, Note_on_c, 9, 45, 104
1, 11640, Note_on_c, 9, 49, 104
1, 11640, Note_on_c, 9, 36, 104
1, 11642, Note_on_c, 9, 49, 0
1, 11759, Note_on_c, 9, 38, 0
1, 11759, Note_on_c, 9, 45, 0
1, 11759, Note_on_c, 9, 36, 0
1, 11760, Note_on_c, 9, 36, 127
1, 11999, Note_on_c, 9, 36, 0
1, 12000, Note_on_c, 9, 36, 127
1, 12239, Note_on_c, 9, 36, 0
1, 12240, Note_on_c, 9, 36, 119
1, 12479, Note_on_c, 9, 36, 0
1, 12480, Note_on_c, 9, 45, 127
1, 12480, Note_on_c, 9, 36, 127
1, 12599, Note_on_c, 9, 45, 0
1, 12600, Note_on_c, 9, 45, 104
1, 12719, Note_on_c, 9, 36, 0
1, 12719, Note_on_c, 9, 45, 0
1, 12720, Note_on_c, 9, 36, 121
1, 12959, Note_on_c, 9, 36, 0
1, 12960, Note_on_c, 9, 45, 127
1, 12960, Note_on_c, 9, 36, 127
1, 13079, Note_on_c, 9, 45, 0
1, 13080, Note_on_c, 9, 45, 106
1, 13199, Note_on_c, 9, 36, 0
1, 13199, Note_on_c, 9, 45, 0
1, 13200, Note_on_c, 9, 36, 122
1, 13439, Note_on_c, 9, 36, 0
1, 13440, Note_on_c, 9, 38, 127
1, 13440, Note_on_c, 9, 45, 127
1, 13440, Note_on_c, 9, 49, 127
1, 13440, Note_on_c, 9, 36, 127
1, 13442, Note_on_c, 9, 49, 0
1, 13559, Note_on_c, 9, 38, 0
1, 13559, Note_on_c, 9, 45, 0
1, 13559, Note_on_c, 9, 36, 0
1, 13560, Note_on_c, 9, 38, 98
1, 13560, Note_on_c, 9, 45, 98
1, 13560, Note_on_c, 9, 49, 98
1, 13560, Note_on_c, 9, 36, 98
1, 13562, Note_on_c, 9, 49, 0
1, 13679, Note_on_c, 9, 38, 0
1, 13679, Note_on_c, 9, 45, 0
1, 13679, Note_on_c, 9, 36, 0
1, 13680, Note_on_c, 9, 36, 115
1, 13919, Note_on_c, 9, 36, 0
1, 13920, Note_on_c, 9, 36, 127
1, 14159, Note_on_c, 9, 36, 0
1, 14160, Note_on_c, 9, 36, 127
1, 14399, Note_on_c, 9, 36, 0
1, 14400, Note_on_c, 9, 38, 127
1, 14400, Note_on_c, 9, 47, 127
1, 14459, Note_on_c, 9, 38, 0
1, 14459, Note_on_c, 9, 47, 0
1, 14460, Note_on_c, 9, 45, 127
1, 14580, Note_on_c, 9, 43, 127
1, 14639, Note_on_c, 9, 45, 0
1, 14639, Note_on_c, 9, 43, 0
1, 14640, Note_on_c, 9, 38, 126
1, 14640, Note_on_c, 9, 42, 126
1, 14640, Note_on_c, 9, 36, 126
1, 14640, Note_on_c, 9, 43, 126
1, 14645, Note_on_c, 9, 42, 0
1, 14759, Note_on_c, 9, 36, 0
1, 14759, Note_on_c, 9, 43, 0
1, 14760, Note_on_c, 9, 43, 123
1, 14879, Note_on_c, 9, 38, 0
1, 14879, Note_on_c, 9, 43, 0
1, 14880, Note_on_c, 9, 38, 127
1, 14880, Note_on_c, 9, 43, 127
1, 14939, Note_on_c, 9, 43, 0
1, 14940, Note_on_c, 9, 43, 127
1, 15059, Note_on_c, 9, 43, 0
1, 15060, Note_on_c, 9, 43, 127
1, 15119, Note_on_c, 9, 38, 0
1, 15119, Note_on_c, 9, 43, 0
1, 15120, Note_on_c, 9, 41, 118
1, 15120, Note_on_c, 9, 38, 118
1, 15120, Note_on_c, 9, 42, 118
1, 15120, Note_on_c, 9, 36, 118
1, 15123, Note_on_c, 9, 42, 0
1, 15179, Note_on_c, 9, 36, 0
1, 15180, Note_on_c, 9, 43, 127
1, 15239, Note_on_c, 9, 43, 0
1, 15240, Note_on_c, 9, 43, 112
1, 15299, Note_on_c, 9, 41, 0
1, 15299, Note_on_c, 9, 38, 0
1, 15300, Note_on_c, 9, 41, 127
1, 15359, Note_on_c, 9, 43, 0
1, 15359, Note_on_c, 9, 41, 0
1, 15360, Note_on_c, 9, 38, 127
1, 15360, Note_on_c, 9, 49, 127
1, 15360, Note_on_c, 9, 49, 0
1, 15419, Note_on_c, 9, 38, 0
1, 15420, Note_on_c, 9, 42, 127
1, 15420, Note_on_c, 9, 42, 0
1, 15480, Note_on_c, 9, 42, 104
1, 15480, Note_on_c, 9, 42, 0
1, 15540, Note_on_c, 9, 42, 127
1, 15540, Note_on_c, 9, 42, 0
1, 15600, Note_on_c, 9, 38, 127
1, 15600, Note_on_c, 9, 42, 127
1, 15602, Note_on_c, 9, 42, 0
1, 15719, Note_on_c, 9, 38, 0
1, 15720, Note_on_c, 9, 42, 107
1, 15720, Note_on_c, 9, 42, 0
1, 15780, Note_on_c, 9, 42, 127
1, 15780, Note_on_c, 9, 42, 0
1, 15840, Note_on_c, 9, 36, 127
1, 15960, Note_on_c, 9, 42, 97
1, 15960, Note_on_c, 9, 42, 0
1, 16020, Note_on_c, 9, 42, 127
1, 16020, Note_on_c, 9, 42, 0
1, 16079, Note_on_c, 9, 36, 0
1, 16080, Note_on_c, 9, 38, 119
1, 16199, Note_on_c, 9, 38, 0
1, 16200, Note_on_c, 9, 42, 127
1, 16200, Note_on_c, 9, 42, 0
1, 16260, Note_on_c, 9, 42, 127
1, 16260, Note_on_c, 9, 42, 0
1, 16320, Note_on_c, 9, 36, 127
1, 16380, Note_on_c, 9, 42, 127
1, 16380, Note_on_c, 9, 42, 0
1, 16440, Note_on_c, 9, 42, 104
1, 16440, Note_on_c, 9, 42, 0
1, 16500, Note_on_c, 9, 42, 127
1, 16500, Note_on_c, 9, 42, 0
1, 16559, Note_on_c, 9, 36, 0
1, 16560, Note_on_c, 9, 38, 121
1, 16560, Note_on_c, 9, 42, 121
1, 16562, Note_on_c, 9, 42, 0
1, 16679, Note_on_c, 9, 38, 0
1, 16680, Note_on_c, 9, 42, 124
1, 16680, Note_on_c, 9, 42, 0
1, 16740, Note_on_c, 9, 42, 127
1, 16740, Note_on_c, 9, 42, 0
1, 16800, Note_on_c, 9, 36, 127
1, 16920, Note_on_c, 9, 42, 106
1, 16920, Note_on_c, 9, 42, 0
1, 16980, Note_on_c, 9, 42, 127
1, 16980, Note_on_c, 9, 42, 0
1, 17039, Note_on_c, 9, 36, 0
1, 17040, Note_on_c, 9, 38, 122
1, 17159, Note_on_c, 9, 38, 0
1, 17160, Note_on_c, 9, 42, 127
1, 17160, Note_on_c, 9, 42, 0
1, 17220, Note_on_c, 9, 42, 127
1, 17220, Note_on_c, 9, 42, 0
1, 17280, Note_on_c, 9, 49, 127
1, 17280, Note_on_c, 9, 49, 0
1, 17280, Note_on_c, 9, 36, 127
1, 17340, Note_on_c, 9, 42, 127
1, 17340, Note_on_c, 9, 42, 0
1, 17400, Note_on_c, 9, 42, 98
1, 17400, Note_on_c, 9, 42, 0
1, 17460, Note_on_c, 9, 42, 127
1, 17460, Note_on_c, 9, 42, 0
1, 17519, Note_on_c, 9, 36, 0
1, 17520, Note_on_c, 9, 38, 115
1, 17520, Note_on_c, 9, 42, 115
1, 17522, Note_on_c, 9, 42, 0
1, 17639, Note_on_c, 9, 38, 0
1, 17640, Note_on_c, 9, 42, 114
1, 17640, Note_on_c, 9, 42, 0
1, 17700, Note_on_c, 9, 42, 127
1, 17700, Note_on_c, 9, 42, 0
1, 17760, Note_on_c, 9, 36, 127
1, 17880, Note_on_c, 9, 42, 97
1, 17880, Note_on_c, 9, 42, 0
1, 17940, Note_on_c, 9, 42, 127
1, 17940, Note_on_c, 9, 42, 0
1, 17999, Note_on_c, 9, 36, 0
1, 18000, Note_on_c, 9, 38, 127
1, 18119, Note_on_c, 9, 38, 0
1, 18120, Note_on_c, 9, 42, 127
1, 18120, Note_on_c, 9, 42, 0
1, 18180, Note_on_c, 9, 42, 127
1, 18180, Note_on_c, 9, 42, 0
1, 18240, Note_on_c, 9, 36, 127
1, 18300, Note_on_c, 9, 42, 127
1, 18300, Note_on_c, 9, 42, 0
1, 18360, Note_on_c, 9, 42, 103
1, 18360, Note_on_c, 9, 42, 0
1, 18420, Note_on_c, 9, 42, 127
1, 18420, Note_on_c, 9, 42, 0
1, 18479, Note_on_c, 9, 36, 0
1, 18480, Note_on_c, 9, 38, 126
1, 18480, Note_on_c, 9, 42, 126
1, 18482, Note_on_c, 9, 42, 0
1, 18599, Note_on_c, 9, 38, 0
1, 18600, Note_on_c, 9, 42, 123
1, 18600, Note_on_c, 9, 42, 0
1, 18660, Note_on_c, 9, 42, 127
1, 18660, Note_on_c, 9, 42, 0
1, 18720, Note_on_c, 9, 36, 127
1, 18840, Note_on_c, 9, 42, 100
1, 18840, Note_on_c, 9, 42, 0
1, 18900, Note_on_c, 9, 38, 127
1, 18900, Note_on_c, 9, 42, 127
1, 18900, Note_on_c, 9, 42, 0
1, 18959, Note_on_c, 9, 36, 0
1, 18959, Note_on_c, 9, 38, 0
1, 18960, Note_on_c, 9, 38, 118
1, 18960, Note_on_c, 9, 36, 118
1, 19019, Note_on_c, 9, 38, 0
1, 19020, Note_on_c, 9, 38, 127
1, 19079, Note_on_c, 9, 38, 0
1, 19080, Note_on_c, 9, 38, 112
1, 19139, Note_on_c, 9, 38, 0
1, 19140, Note_on_c, 9, 38, 127
1, 19199, Note_on_c, 9, 36, 0
1, 19199, Note_on_c, 9, 38, 0
1, 19200, Note_on_c, 9, 49, 127
1, 19200, Note_on_c, 9, 49, 0
1, 19200, Note_on_c, 9, 36, 127
1, 19260, Note_on_c, 9, 42, 127
1, 19260, Note_on_c, 9, 42, 0
1, 19320, Note_on_c, 9, 42, 104
1, 19320, Note_on_c, 9, 42, 0
1, 19380, Note_on_c, 9, 42, 127
1, 19380, Note_on_c, 9, 42, 0
1, 19439, Note_on_c, 9, 36, 0
1, 19440, Note_on_c, 9, 38, 127
1, 19440, Note_on_c, 9, 42, 127
1, 19442, Note_on_c, 9, 42, 0
1, 19559, Note_on_c, 9, 38, 0
1, 19560, Note_on_c, 9, 42, 107
1, 19560, Note_on_c, 9, 42, 0
1, 19620, Note_on_c, 9, 42, 127
1, 19620, Note_on_c, 9, 42, 0
1, 19680, Note_on_c, 9, 36, 127
1, 19800, Note_on_c, 9, 42, 97
1, 19800, Note_on_c, 9, 42, 0
1, 19860, Note_on_c, 9, 42, 127
1, 19860, Note_on_c, 9, 42, 0
1, 19919, Note_on_c, 9, 36, 0
1, 19920, Note_on_c, 9, 38, 119
1, 20039, Note_on_c, 9, 38, 0
1, 20040, Note_on_c, 9, 42, 127
1, 20040, Note_on_c, 9, 42, 0
1, 20100, Note_on_c, 9, 42, 127
1, 20100, Note_on_c, 9, 42, 0
1, 20160, Note_on_c, 9, 36, 127
1, 20220, Note_on_c, 9, 42, 127
1, 20220, Note_on_c, 9, 42, 0
1, 20280, Note_on_c, 9, 42, 104
1, 20280, Note_on_c, 9, 42, 0
1, 20340, Note_on_c, 9, 42, 127
1, 20340, Note_on_c, 9, 42, 0
1, 20399, Note_on_c, 9, 36, 0
1, 20400, Note_on_c, 9, 38, 121
1, 20400, Note_on_c, 9, 42, 121
1, 20402, Note_on_c, 9, 42, 0
1, 20519, Note_on_c, 9, 38, 0
1, 20520, Note_on_c, 9, 42, 124
1, 20520, Note_on_c, 9, 42, 0
1, 20580, Note_on_c, 9, 42, 127
1, 20580, Note_on_c, 9, 42, 0
1, 20640, Note_on_c, 9, 36, 127
1, 20760, Note_on_c, 9, 42, 106
1, 20760, Note_on_c, 9, 42, 0
1, 20820, Note_on_c, 9, 42, 127
1, 20820, Note_on_c, 9, 42, 0
1, 20879, Note_on_c, 9, 36, 0
1, 20880, Note_on_c, 9, 38, 122
1, 20999, Note_on_c, 9, 38, 0
1, 21000, Note_on_c, 9, 42, 127
1, 21000, Note_on_c, 9, 42, 0
1, 21060, Note_on_c, 9, 42, 127
1, 21060, Note_on_c, 9, 42, 0
1, 21120, Note_on_c, 9, 36, 127
1, 21180, Note_on_c, 9, 42, 127
1, 21180, Note_on_c, 9, 42, 0
1, 21240, Note_on_c, 9, 42, 98
1, 21240, Note_on_c, 9, 42, 0
1, 21300, Note_on_c, 9, 42, 127
1, 21300, Note_on_c, 9, 42, 0
1, 21359, Note_on_c, 9, 36, 0
1, 21360, Note_on_c, 9, 38, 115
1, 21360, Note_on_c, 9, 42, 115
1, 21362, Note_on_c, 9, 42, 0
1, 21479, Note_on_c, 9, 38, 0
1, 21480, Note_on_c, 9, 42, 114
1, 21480, Note_on_c, 9, 42, 0
1, 21540, Note_on_c, 9, 42, 127
1, 21540, Note_on_c, 9, 42, 0
1, 21600, Note_on_c, 9, 36, 127
1, 21720, Note_on_c, 9, 42, 97
1, 21720, Note_on_c, 9, 42, 0
1, 21780, Note_on_c, 9, 42, 127
1, 21780, Note_on_c, 9, 42, 0
1, 21839, Note_on_c, 9, 36, 0
1, 21840, Note_on_c, 9, 38, 127
1, 21959, Note_on_c, 9, 38, 0
1, 21960, Note_on_c, 9, 42, 127
1, 21960, Note_on_c, 9, 42, 0
1, 22020, Note_on_c, 9, 42, 127
1, 22020, Note_on_c, 9, 42, 0
1, 22080, Note_on_c, 9, 36, 127
1, 22140, Note_on_c, 9, 42, 127
1, 22140, Note_on_c, 9, 42, 0
1, 22200, Note_on_c, 9, 42, 103
1, 22200, Note_on_c, 9, 42, 0
1, 22260, Note_on_c, 9, 42, 127
1, 22260, Note_on_c, 9, 42, 0
1, 22319, Note_on_c, 9, 36, 0
1, 22320, Note_on_c, 9, 38, 126
1, 22320, Note_on_c, 9, 42, 126
1, 22322, Note_on_c, 9, 42, 0
1, 22439, Note_on_c, 9, 38, 0
1, 22440, Note_on_c, 9, 42, 123
1, 22440, Note_on_c, 9, 42, 0
1, 22500, Note_on_c, 9, 42, 127
1, 22500, Note_on_c, 9, 42, 0
1, 22560, Note_on_c, 9, 36, 127
1, 22680, Note_on_c, 9, 42, 100
1, 22680, Note_on_c, 9, 42, 0
1, 22740, Note_on_c, 9, 38, 127
1, 22740, Note_on_c, 9, 42, 127
1, 22740, Note_on_c, 9, 42, 0
1, 22799, Note_on_c, 9, 36, 0
1, 22799, Note_on_c, 9, 38, 0
1, 22800, Note_on_c, 9, 38, 118
1, 22859, Note_on_c, 9, 38, 0
1, 22860, Note_on_c, 9, 38, 127
1, 22919, Note_on_c, 9, 38, 0
1, 22920, Note_on_c, 9, 38, 112
1, 22979, Note_on_c, 9, 38, 0
1, 22980, Note_on_c, 9, 38, 127
1, 23039, Note_on_c, 9, 38, 0
1, 23040, Note_on_c, 9, 49, 127
1, 23040, Note_on_c, 9, 49, 0
1, 23040, Note_on_c, 9, 36, 127
1, 23100, Note_on_c, 9, 42, 127
1, 23100, Note_on_c, 9, 42, 0
1, 23160, Note_on_c, 9, 42, 104
1, 23160, Note_on_c, 9, 42, 0
1, 23220, Note_on_c, 9, 42, 127
1, 23220, Note_on_c, 9, 42, 0
1, 23279, Note_on_c, 9, 36, 0
1, 23280, Note_on_c, 9, 38, 127
1, 23280, Note_on_c, 9, 42, 127
1, 23282, Note_on_c, 9, 42, 0
1, 23399, Note_on_c, 9, 38, 0
1, 23400, Note_on_c, 9, 42, 107
1, 23400, Note_on_c, 9, 42, 0
1, 23460, Note_on_c, 9, 42, 127
1, 23460, Note_on_c, 9, 42, 0
1, 23520, Note_on_c, 9, 36, 127
1, 23640, Note_on_c, 9, 42, 97
1, 23640, Note_on_c, 9, 42, 0
1, 23700, Note_on_c, 9, 42, 127
1, 23700, Note_on_c, 9, 42, 0
1, 23759, Note_on_c, 9, 36, 0
1, 23760, Note_on_c, 9, 38, 119
1, 23879, Note_on_c, 9, 38, 0
1, 23880, Note_on_c, 9, 42, 127
1, 23880, Note_on_c, 9, 42, 0
1, 23940, Note_on_c, 9, 42, 127
1, 23940, Note_on_c, 9, 42, 0
1, 24000, Note_on_c, 9, 36, 127
1, 24060, Note_on_c, 9, 42, 127
1, 24060, Note_on_c, 9, 42, 0
1, 24120, Note_on_c, 9, 42, 104
1, 24120, Note_on_c, 9, 42, 0
1, 24180, Note_on_c, 9, 42, 127
1, 24180, Note_on_c, 9, 42, 0
1, 24239, Note_on_c, 9, 36, 0
1, 24240, Note_on_c, 9, 38, 121
1, 24240, Note_on_c, 9, 42, 121
1, 24242, Note_on_c, 9, 42, 0
1, 24359, Note_on_c, 9, 38, 0
1, 24360, Note_on_c, 9, 42, 124
1, 24360, Note_on_c, 9, 42, 0
1, 24420, Note_on_c, 9, 42, 127
1, 24420, Note_on_c, 9, 42, 0
1, 24480, Note_on_c, 9, 36, 127
1, 24600, Note_on_c, 9, 42, 106
1, 24600, Note_on_c, 9, 42, 0
1, 24660, Note_on_c, 9, 42, 127
1, 24660, Note_on_c, 9, 42, 0
1, 24719, Note_on_c, 9, 36, 0
1, 24720, Note_on_c, 9, 38, 122
1, 24839, Note_on_c, 9, 38, 0
1, 24840, Note_on_c, 9, 42, 127
1, 24840, Note_on_c, 9, 42, 0
1, 24900, Note_on_c, 9, 42, 127
1, 24900, Note_on_c, 9, 42, 0
1, 24960, Note_on_c, 9, 36, 127
1, 25020, Note_on_c, 9, 42, 127
1, 25020, Note_on_c, 9, 42, 0
1, 25080, Note_on_c, 9, 42, 98
1, 25080, Note_on_c, 9, 42, 0
1, 25140, Note_on_c, 9, 42, 127
1, 25140, Note_on_c, 9, 42, 0
1, 25199, Note_on_c, 9, 36, 0
1, 25200, Note_on_c, 9, 38, 115
1, 25200, Note_on_c, 9, 42, 115
1, 25202, Note_on_c, 9, 42, 0
1, 25319, Note_on_c, 9, 38, 0
1, 25320, Note_on_c, 9, 42, 114
1, 25320, Note_on_c, 9, 42, 0
1, 25380, Note_on_c, 9, 42, 127
1, 25380, Note_on_c, 9, 42, 0
1, 25440, Note_on_c, 9, 36, 127
1, 25560, Note_on_c, 9, 42, 97
1, 25560, Note_on_c, 9, 42, 0
1, 25620, Note_on_c, 9, 42, 127
1, 25620, Note_on_c, 9, 42, 0
1, 25679, Note_on_c, 9, 36, 0
1, 25680, Note_on_c, 9, 38, 127
1, 25799, Note_on_c, 9, 38, 0
1, 25800, Note_on_c, 9, 42, 127
1, 25800, Note_on_c, 9, 42, 0
1, 25860, Note_on_c, 9, 42, 127
1, 25860, Note_on_c, 9, 42, 0
1, 25920, Note_on_c, 9, 36, 127
1, 25980, Note_on_c, 9, 42, 127
1, 25980, Note_on_c, 9, 42, 0
1, 26040, Note_on_c, 9, 42, 103
1, 26040, Note_on_c, 9, 42, 0
1, 26100, Note_on_c, 9, 42, 127
1, 26100, Note_on_c, 9, 42, 0
1, 26159, Note_on_c, 9, 36, 0
1, 26160, Note_on_c, 9, 38, 126
1, 26160, Note_on_c, 9, 42, 126
1, 26162, Note_on_c, 9, 42, 0
1, 26279, Note_on_c, 9, 38, 0
1, 26280, Note_on_c, 9, 42, 123
1, 26280, Note_on_c, 9, 42, 0
1, 26340, Note_on_c, 9, 42, 127
1, 26340, Note_on_c, 9, 42, 0
1, 26400, Note_on_c, 9, 36, 127
1, 26520, Note_on_c, 9, 42, 100
1, 26520, Note_on_c, 9, 42, 0
1, 26580, Note_on_c, 9, 38, 127
1, 26639, Note_on_c, 9, 36, 0
1, 26639, Note_on_c, 9, 38, 0
1, 26640, Note_on_c, 9, 38, 118
1, 26699, Note_on_c, 9, 38, 0
1, 26700, Note_on_c, 9, 38, 127
1, 26759, Note_on_c, 9, 38, 0
1, 26760, Note_on_c, 9, 38, 112
1, 26819, Note_on_c, 9, 38, 0
1, 26820, Note_on_c, 9, 38, 127
1, 26879, Note_on_c, 9, 38, 0
1, 26880, Note_on_c, 9, 49, 127
1, 26880, Note_on_c, 9, 49, 0
1, 26880, Note_on_c, 9, 36, 127
1, 26940, Note_on_c, 9, 42, 127
1, 26940, Note_on_c, 9, 42, 0
1, 27000, Note_on_c, 9, 42, 104
1, 27000, Note_on_c, 9, 42, 0
1, 27060, Note_on_c, 9, 42, 127
1, 27060, Note_on_c, 9, 42, 0
1, 27119, Note_on_c, 9, 36, 0
1, 27120, Note_on_c, 9, 38, 127
1, 27120, Note_on_c, 9, 42, 127
1, 27122, Note_on_c, 9, 42, 0
1, 27239, Note_on_c, 9, 38, 0
1, 27240, Note_on_c, 9, 42, 107
1, 27240, Note_on_c, 9, 42, 0
1, 27300, Note_on_c, 9, 42, 127
1, 27300, Note_on_c, 9, 42, 0
1, 27360, Note_on_c, 9, 36, 127
1, 27480, Note_on_c, 9, 42, 97
1, 27480, Note_on_c, 9, 42, 0
1, 27540, Note_on_c, 9, 42, 127
1, 27540, Note_on_c, 9, 42, 0
1, 27599, Note_on_c, 9, 36, 0
1, 27600, Note_on_c, 9, 38, 119
1, 27719, Note_on_c, 9, 38, 0
1, 27720, Note_on_c, 9, 42, 127
1, 27720, Note_on_c, 9, 42, 0
1, 27780, Note_on_c, 9, 42, 127
1, 27780, Note_on_c, 9, 42, 0
1, 27840, Note_on_c, 9, 36, 127
1, 27900, Note_on_c, 9, 42, 127
1, 27900, Note_on_c, 9, 42, 0
1, 27960, Note_on_c, 9, 42, 104
1, 27960, Note_on_c, 9, 42, 0
1, 28020, Note_on_c, 9, 42, 127
1, 28020, Note_on_c, 9, 42, 0
1, 28079, Note_on_c, 9, 36, 0
1, 28080, Note_on_c, 9, 38, 121
1, 28080, Note_on_c, 9, 42, 121
1, 28082, Note_on_c, 9, 42, 0
1, 28199, Note_on_c, 9, 38, 0
1, 28200, Note_on_c, 9, 42, 124
1, 28200, Note_on_c, 9, 42, 0
1, 28260, Note_on_c, 9, 42, 127
1, 28260, Note_on_c, 9, 42, 0
1, 28320, Note_on_c, 9, 36, 127
1, 28440, Note_on_c, 9, 42, 106
1, 28440, Note_on_c, 9, 42, 0
1, 28500, Note_on_c, 9, 42, 127
1, 28500, Note_on_c, 9, 42, 0
1, 28559, Note_on_c, 9, 36, 0
1, 28560, Note_on_c, 9, 38, 122
1, 28679, Note_on_c, 9, 38, 0
1, 28680, Note_on_c, 9, 42, 127
1, 28680, Note_on_c, 9, 42, 0
1, 28740, Note_on_c, 9, 42, 127
1, 28740, Note_on_c, 9, 42, 0
1, 28800, Note_on_c, 9, 36, 127
1, 28860, Note_on_c, 9, 42, 127
1, 28860, Note_on_c, 9, 42, 0
1, 28920, Note_on_c, 9, 42, 98
1, 28920, Note_on_c, 9, 42, 0
1, 28980, Note_on_c, 9, 42, 127
1, 28980, Note_on_c, 9, 42, 0
1, 29039, Note_on_c, 9, 36, 0
1, 29040, Note_on_c, 9, 38, 115
1, 29040, Note_on_c, 9, 42, 115
1, 29042, Note_on_c, 9, 42, 0
1, 29159, Note_on_c, 9, 38, 0
1, 29160, Note_on_c, 9, 42, 114
1, 29160, Note_on_c, 9, 42, 0
1, 29220, Note_on_c, 9, 42, 127
1, 29220, Note_on_c, 9, 42, 0
1, 29280, Note_on_c, 9, 36, 127
1, 29400, Note_on_c, 9, 42, 97
1, 29400, Note_on_c, 9, 42, 0
1, 29460, Note_on_c, 9, 42, 127
1, 29460, Note_on_c, 9, 42, 0
1, 29519, Note_on_c, 9, 36, 0
1, 29520, Note_on_c, 9, 38, 127
1, 29639, Note_on_c, 9, 38, 0
1, 29640, Note_on_c, 9, 42, 127
1, 29640, Note_on_c, 9, 42, 0
1, 29700, Note_on_c, 9, 42, 127
1, 29700, Note_on_c, 9, 42, 0
1, 29760, Note_on_c, 9, 36, 127
1, 29820, Note_on_c, 9, 42, 127
1, 29820, Note_on_c, 9, 42, 0
1, 29880, Note_on_c, 9, 42, 103
1, 29880, Note_on_c, 9, 42, 0
1, 29940, Note_on_c, 9, 42, 127
1, 29940, Note_on_c, 9, 42, 0
1, 29999, Note_on_c, 9, 36, 0
1, 30000, Note_on_c, 9, 38, 126
1, 30000, Note_on_c, 9, 42, 126
1, 30002, Note_on_c, 9, 42, 0
1, 30119, Note_on_c, 9, 38, 0
1, 30120, Note_on_c, 9, 42, 123
1, 30120, Note_on_c, 9, 42, 0
1, 30180, Note_on_c, 9, 42, 127
1, 30180, Note_on_c, 9, 42, 0
1, 30240, Note_on_c, 9, 36, 127
1, 30360, Note_on_c, 9, 42, 100
1, 30360, Note_on_c, 9, 42, 0
1, 30420, Note_on_c, 9, 38, 127
1, 30420, Note_on_c, 9, 42, 127
1, 30420, Note_on_c, 9, 42, 0
1, 30479, Note_on_c, 9, 36, 0
1, 30479, Note_on_c, 9, 38, 0
1, 30480, Note_on_c, 9, 38, 118
1, 30539, Note_on_c, 9, 38, 0
1, 30540, Note_on_c, 9, 38, 127
1, 30599, Note_on_c, 9, 38, 0
1, 30600, Note_on_c, 9, 38, 112
1, 30600, Note_on_c, 9, 57, 112
1, 30600, Note_on_c, 9, 57, 0
1, 30659, Note_on_c, 9, 38, 0
1, 30660, Note_on_c, 9, 38, 127
1, 30660, Note_on_c, 9, 42, 127
1, 30660, Note_on_c, 9, 42, 0
1, 30719, Note_on_c, 9, 38, 0
1, 30720, Note_on_c, 9, 49, 127
1, 30720, Note_on_c, 9, 49, 0
1, 30720, Note_on_c, 9, 36, 127
1, 30780, Note_on_c, 9, 42, 127
1, 30780, Note_on_c, 9, 42, 0
1, 30840, Note_on_c, 9, 42, 104
1, 30840, Note_on_c, 9, 42, 0
1, 30900, Note_on_c, 9, 42, 127
1, 30900, Note_on_c, 9, 42, 0
1, 30959, Note_on_c, 9, 36, 0
1, 30960, Note_on_c, 9, 38, 127
1, 30960, Note_on_c, 9, 42, 127
1, 30962, Note_on_c, 9, 42, 0
1, 31079, Note_on_c, 9, 38, 0
1, 31080, Note_on_c, 9, 42, 107
1, 31080, Note_on_c, 9, 42, 0
1, 31140, Note_on_c, 9, 42, 127
1, 31140, Note_on_c, 9, 42, 0
1, 31200, Note_on_c, 9, 36, 127
1, 31320, Note_on_c, 9, 42, 97
1, 31320, Note_on_c, 9, 42, 0
1, 31380, Note_on_c, 9, 42, 127
1, 31380, Note_on_c, 9, 42, 0
1, 31439, Note_on_c, 9, 36, 0
1, 31440, Note_on_c, 9, 38, 119
1, 31559, Note_on_c, 9, 38, 0
1, 31560, Note_on_c, 9, 42, 127
1, 31560, Note_on_c, 9, 42, 0
1, 31620, Note_on_c, 9, 42, 127
1, 31620, Note_on_c, 9, 42, 0
1, 31680, Note_on_c, 9, 36, 127
1, 31740, Note_on_c, 9, 42, 127
1, 31740, Note_on_c, 9, 42, 0
1, 31800, Note_on_c, 9, 42, 104
1, 31800, Note_on_c, 9, 42, 0
1, 31860, Note_on_c, 9, 42, 127
1, 31860, Note_on_c, 9, 42, 0
1, 31919, Note_on_c, 9, 36, 0
1, 31920, Note_on_c, 9, 38, 121
1, 31920, Note_on_c, 9, 42, 121
1, 31922, Note_on_c, 9, 42, 0
1, 32039, Note_on_c, 9, 38, 0
1, 32040, Note_on_c, 9, 42, 124
1, 32040, Note_on_c, 9, 42, 0
1, 32100, Note_on_c, 9, 42, 127
1, 32100, Note_on_c, 9, 42, 0
1, 32160, Note_on_c, 9, 36, 127
1, 32280, Note_on_c, 9, 42, 106
1, 32280, Note_on_c, 9, 42, 0
1, 32340, Note_on_c, 9, 42, 127
1, 32340, Note_on_c, 9, 42, 0
1, 32399, Note_on_c, 9, 36, 0
1, 32400, Note_on_c, 9, 38, 122
1, 32519, Note_on_c, 9, 38, 0
1, 32520, Note_on_c, 9, 42, 127
1, 32520, Note_on_c, 9, 42, 0
1, 32580, Note_on_c, 9, 42, 127
1, 32580, Note_on_c, 9, 42, 0
1, 32640, Note_on_c, 9, 36, 127
1, 32700, Note_on_c, 9, 42, 127
1, 32700, Note_on_c, 9, 42, 0
1, 32760, Note_on_c, 9, 42, 98
1, 32760, Note_on_c, 9, 42, 0
1, 32820, Note_on_c, 9, 42, 127
1, 32820, Note_on_c, 9, 42, 0
1, 32879, Note_on_c, 9, 36, 0
1, 32880, Note_on_c, 9, 38, 115
1, 32880, Note_on_c, 9, 42, 115
1, 32882, Note_on_c, 9, 42, 0
1, 32999, Note_on_c, 9, 38, 0
1, 33000, Note_on_c, 9, 42, 114
1, 33000, Note_on_c, 9, 42, 0
1, 33060, Note_on_c, 9, 42, 127
1, 33060, Note_on_c, 9, 42, 0
1, 33120, Note_on_c, 9, 36, 127
1, 33240, Note_on_c, 9, 42, 97
1, 33240, Note_on_c, 9, 42, 0
1, 33300, Note_on_c, 9, 42, 127
1, 33300, Note_on_c, 9, 42, 0
1, 33359, Note_on_c, 9, 36, 0
1, 33360, Note_on_c, 9, 38, 127
1, 33479, Note_on_c, 9, 38, 0
1, 33480, Note_on_c, 9, 42, 127
1, 33480, Note_on_c, 9, 42, 0
1, 33540, Note_on_c, 9, 42, 127
1, 33540, Note_on_c, 9, 42, 0
1, 33600, Note_on_c, 9, 36, 127
1, 33660, Note_on_c, 9, 42, 127
1, 33660, Note_on_c, 9, 42, 0
1, 33720, Note_on_c, 9, 42, 103
1, 33720, Note_on_c, 9, 42, 0
1, 33780, Note_on_c, 9, 42, 127
1, 33780, Note_on_c, 9, 42, 0
1, 33839, Note_on_c, 9, 36, 0
1, 33840, Note_on_c, 9, 38, 126
1, 33840, Note_on_c, 9, 42, 126
1, 33842, Note_on_c, 9, 42, 0
1, 33959, Note_on_c, 9, 38, 0
1, 33960, Note_on_c, 9, 42, 123
1, 33960, Note_on_c, 9, 42, 0
1, 34020, Note_on_c, 9, 42, 127
1, 34020, Note_on_c, 9, 42, 0
1, 34080, Note_on_c, 9, 36, 127
1, 34200, Note_on_c, 9, 42, 100
1, 34200, Note_on_c, 9, 42, 0
1, 34260, Note_on_c, 9, 42, 127
1, 34260, Note_on_c, 9, 42, 0
1, 34319, Note_on_c, 9, 36, 0
1, 34320, Note_on_c, 9, 38, 118
1, 34379, Note_on_c, 9, 38, 0
1, 34380, Note_on_c, 9, 38, 127
1, 34439, Note_on_c, 9, 38, 0
1, 34440, Note_on_c, 9, 38, 112
1, 34499, Note_on_c, 9, 38, 0
1, 34500, Note_on_c, 9, 38, 127
1, 34559, Note_on_c, 9, 38, 0
1, 34560, Note_on_c, 9, 42, 127
1, 34560, Note_on_c, 9, 49, 127
1, 34560, Note_on_c, 9, 36, 127
1, 34562, Note_on_c, 9, 42, 0
1, 34562, Note_on_c, 9, 49, 0
1, 34679, Note_on_c, 9, 36, 0
1, 34680, Note_on_c, 9, 42, 104
1, 34680, Note_on_c, 9, 36, 104
1, 34682, Note_on_c, 9, 42, 0
1, 34799, Note_on_c, 9, 36, 0
1, 34800, Note_on_c, 9, 38, 127
1, 34800, Note_on_c, 9, 42, 127
1, 34802, Note_on_c, 9, 42, 0
1, 34919, Note_on_c, 9, 38, 0
1, 34920, Note_on_c, 9, 42, 107
1, 34922, Note_on_c, 9, 42, 0
1, 35040, Note_on_c, 9, 42, 127
1, 35040, Note_on_c, 9, 36, 127
1, 35042, Note_on_c, 9, 42, 0
1, 35160, Note_on_c, 9, 42, 97
1, 35162, Note_on_c, 9, 42, 0
1, 35279, Note_on_c, 9, 36, 0
1, 35280, Note_on_c, 9, 38, 119
1, 35280, Note_on_c, 9, 42, 119
1, 35282, Note_on_c, 9, 42, 0
1, 35399, Note_on_c, 9, 38, 0
1, 35400, Note_on_c, 9, 42, 127
1, 35402, Note_on_c, 9, 42, 0
1, 35520, Note_on_c, 9, 42, 127
1, 35520, Note_on_c, 9, 36, 127
1, 35522, Note_on_c, 9, 42, 0
1, 35640, Note_on_c, 9, 42, 104
1, 35642, Note_on_c, 9, 42, 0
1, 35759, Note_on_c, 9, 36, 0
1, 35760, Note_on_c, 9, 38, 121
1, 35760, Note_on_c, 9, 42, 121
1, 35762, Note_on_c, 9, 42, 0
1, 35879, Note_on_c, 9, 38, 0
1, 35880, Note_on_c, 9, 42, 124
1, 35882, Note_on_c, 9, 42, 0
1, 36000, Note_on_c, 9, 42, 127
1, 36000, Note_on_c, 9, 36, 127
1, 36002, Note_on_c, 9, 42, 0
1, 36120, Note_on_c, 9, 42, 106
1, 36122, Note_on_c, 9, 42, 0
1, 36239, Note_on_c, 9, 36, 0
1, 36240, Note_on_c, 9, 38, 122
1, 36240, Note_on_c, 9, 42, 122
1, 36242, Note_on_c, 9, 42, 0
1, 36359, Note_on_c, 9, 38, 0
1, 36360, Note_on_c, 9, 42, 127
1, 36362, Note_on_c, 9, 42, 0
1, 36480, Note_on_c, 9, 42, 127
1, 36480, Note_on_c, 9, 49, 127
1, 36480, Note_on_c, 9, 36, 127
1, 36482, Note_on_c, 9, 42, 0
1, 36482, Note_on_c, 9, 49, 0
1, 36600, Note_on_c, 9, 42, 98
1, 36602, Note_on_c, 9, 42, 0
1, 36719, Note_on_c, 9, 36, 0
1, 36720, Note_on_c, 9, 38, 115
1, 36720, Note_on_c, 9, 42, 115
1, 36722, Note_on_c, 9, 42, 0
1, 36839, Note_on_c, 9, 38, 0
1, 36840, Note_on_c, 9, 42, 114
1, 36842, Note_on_c, 9, 42, 0
1, 36960, Note_on_c, 9, 42, 127
1, 36960, Note_on_c, 9, 36, 127
1, 36962, Note_on_c, 9, 42, 0
1, 37080, Note_on_c, 9, 42, 97
1, 37082, Note_on_c, 9, 42, 0
1, 37199, Note_on_c, 9, 36, 0
1, 37200, Note_on_c, 9, 38, 127
1, 37200, Note_on_c, 9, 42, 127
1, 37202, Note_on_c, 9, 42, 0
1, 37319, Note_on_c, 9, 38, 0
1, 37320, Note_on_c, 9, 42, 127
1, 37322, Note_on_c, 9, 42, 0
1, 37440, Note_on_c, 9, 42, 127
1, 37440, Note_on_c, 9, 36, 127
1, 37442, Note_on_c, 9, 42, 0
1, 37560, Note_on_c, 9, 42, 103
1, 37562, Note_on_c, 9, 42, 0
1, 37679, Note_on_c, 9, 36, 0
1, 37680, Note_on_c, 9, 38, 126
1, 37680, Note_on_c, 9, 42, 126
1, 37682, Note_on_c, 9, 42, 0
1, 37799, Note_on_c, 9, 38, 0
1, 37800, Note_on_c, 9, 42, 123
1, 37802, Note_on_c, 9, 42, 0
1, 37920, Note_on_c, 9, 42, 127
1, 37920, Note_on_c, 9, 36, 127
1, 37922, Note_on_c, 9, 42, 0
1, 38040, Note_on_c, 9, 42, 100
1, 38042, Note_on_c, 9, 42, 0
1, 38159, Note_on_c, 9, 36, 0
1, 38160, Note_on_c, 9, 38, 118
1, 38160, Note_on_c, 9, 42, 118
1, 38162, Note_on_c, 9, 42, 0
1, 38279, Note_on_c, 9, 38, 0
1, 38280, Note_on_c, 9, 42, 112
1, 38282, Note_on_c, 9, 42, 0
1, 38400, Note_on_c, 9, 42, 127
1, 38400, Note_on_c, 9, 49, 127
1, 38400, Note_on_c, 9, 36, 127
1, 38402, Note_on_c, 9, 42, 0
1, 38402, Note_on_c, 9, 49, 0
1, 38520, Note_on_c, 9, 42, 104
1, 38522, Note_on_c, 9, 42, 0
1, 38639, Note_on_c, 9, 36, 0
1, 38640, Note_on_c, 9, 38, 127
1, 38640, Note_on_c, 9, 42, 127
1, 38642, Note_on_c, 9, 42, 0
1, 38759, Note_on_c, 9, 38, 0
1, 38760, Note_on_c, 9, 42, 107
1, 38762, Note_on_c, 9, 42, 0
1, 38880, Note_on_c, 9, 42, 127
1, 38880, Note_on_c, 9, 36, 127
1, 38882, Note_on_c, 9, 42, 0
1, 39000, Note_on_c, 9, 42, 97
1, 39002, Note_on_c, 9, 42, 0
1, 39119, Note_on_c, 9, 36, 0
1, 39120, Note_on_c, 9, 38, 119
1, 39120, Note_on_c, 9, 42, 119
1, 39122, Note_on_c, 9, 42, 0
1, 39239, Note_on_c, 9, 38, 0
1, 39240, Note_on_c, 9, 42, 127
1, 39242, Note_on_c, 9, 42, 0
1, 39360, Note_on_c, 9, 42, 127
1, 39360, Note_on_c, 9, 36, 127
1, 39362, Note_on_c, 9, 42, 0
1, 39480, Note_on_c, 9, 42, 104
1, 39482, Note_on_c, 9, 42, 0
1, 39599, Note_on_c, 9, 36, 0
1, 39600, Note_on_c, 9, 38, 121
1, 39600, Note_on_c, 9, 42, 121
1, 39602, Note_on_c, 9, 42, 0
1, 39719, Note_on_c, 9, 38, 0
1, 39720, Note_on_c, 9, 42, 124
1, 39722, Note_on_c, 9, 42, 0
1, 39840, Note_on_c, 9, 42, 127
1, 39840, Note_on_c, 9, 36, 127
1, 39842, Note_on_c, 9, 42, 0
1, 39960, Note_on_c, 9, 42, 106
1, 39962, Note_on_c, 9, 42, 0
1, 40079, Note_on_c, 9, 36, 0
1, 40080, Note_on_c, 9, 38, 122
1, 40080, Note_on_c, 9, 42, 122
1, 40082, Note_on_c, 9, 42, 0
1, 40199, Note_on_c, 9, 38, 0
1, 40200, Note_on_c, 9, 42, 127
1, 40202, Note_on_c, 9, 42, 0
1, 40320, Note_on_c, 9, 42, 127
1, 40320, Note_on_c, 9, 36, 127
1, 40322, Note_on_c, 9, 42, 0
1, 40440, Note_on_c, 9, 42, 98
1, 40442, Note_on_c, 9, 42, 0
1, 40559, Note_on_c, 9, 36, 0
1, 40560, Note_on_c, 9, 38, 115
1, 40560, Note_on_c, 9, 42, 115
1, 40562, Note_on_c, 9, 42, 0
1, 40679, Note_on_c, 9, 38, 0
1, 40680, Note_on_c, 9, 42, 114
1, 40682, Note_on_c, 9, 42, 0
1, 40800, Note_on_c, 9, 42, 127
1, 40800, Note_on_c, 9, 36, 127
1, 40802, Note_on_c, 9, 42, 0
1, 40920, Note_on_c, 9, 42, 97
1, 40922, Note_on_c, 9, 42, 0
1, 41039, Note_on_c, 9, 36, 0
1, 41040, Note_on_c, 9, 38, 127
1, 41040, Note_on_c, 9, 42, 127
1, 41042, Note_on_c, 9, 42, 0
1, 41159, Note_on_c, 9, 38, 0
1, 41160, Note_on_c, 9, 42, 127
1, 41162, Note_on_c, 9, 42, 0
1, 41280, Note_on_c, 9, 42, 127
1, 41280, Note_on_c, 9, 36, 127
1, 41282, Note_on_c, 9, 42, 0
1, 41400, Note_on_c, 9, 42, 103
1, 41402, Note_on_c, 9, 42, 0
1, 41519, Note_on_c, 9, 36, 0
1, 41520, Note_on_c, 9, 38, 126
1, 41520, Note_on_c, 9, 42, 126
1, 41522, Note_on_c, 9, 42, 0
1, 41639, Note_on_c, 9, 38, 0
1, 41640, Note_on_c, 9, 42, 123
1, 41642, Note_on_c, 9, 42, 0
1, 41760, Note_on_c, 9, 38, 127
1, 41760, Note_on_c, 9, 42, 127
1, 41760, Note_on_c, 9, 36, 127
1, 41762, Note_on_c, 9, 42, 0
1, 41879, Note_on_c, 9, 38, 0
1, 41879, Note_on_c, 9, 36, 0
1, 41880, Note_on_c, 9, 42, 100
1, 41880, Note_on_c, 9, 36, 100
1, 41882, Note_on_c, 9, 42, 0
1, 41999, Note_on_c, 9, 36, 0
1, 42000, Note_on_c, 9, 38, 118
1, 42000, Note_on_c, 9, 42, 118
1, 42002, Note_on_c, 9, 42, 0
1, 42119, Note_on_c, 9, 38, 0
1, 42120, Note_on_c, 9, 38, 112
1, 42120, Note_on_c, 9, 42, 112
1, 42122, Note_on_c, 9, 42, 0
1, 42239, Note_on_c, 9, 38, 0
1, 42240, Note_on_c, 9, 42, 127
1, 42240, Note_on_c, 9, 49, 127
1, 42240, Note_on_c, 9, 36, 127
1, 42242, Note_on_c, 9, 42, 0
1, 42242, Note_on_c, 9, 49, 0
1, 42360, Note_on_c, 9, 42, 104
1, 42362, Note_on_c, 9, 42, 0
1, 42479, Note_on_c, 9, 36, 0
1, 42480, Note_on_c, 9, 38, 127
1, 42480, Note_on_c, 9, 42, 127
1, 42482, Note_on_c, 9, 42, 0
1, 42599, Note_on_c, 9, 38, 0
1, 42600, Note_on_c, 9, 42, 107
1, 42602, Note_on_c, 9, 42, 0
1, 42720, Note_on_c, 9, 42, 127
1, 42720, Note_on_c, 9, 36, 127
1, 42722, Note_on_c, 9, 42, 0
1, 42840, Note_on_c, 9, 42, 97
1, 42842, Note_on_c, 9, 42, 0
1, 42959, Note_on_c, 9, 36, 0
1, 42960, Note_on_c, 9, 38, 119
1, 42960, Note_on_c, 9, 42, 119
1, 42962, Note_on_c, 9, 42, 0
1, 43079, Note_on_c, 9, 38, 0
1, 43080, Note_on_c, 9, 42, 127
1, 43082, Note_on_c, 9, 42, 0
1, 43200, Note_on_c, 9, 42, 127
1, 43200, Note_on_c, 9, 36, 127
1, 43202, Note_on_c, 9, 42, 0
1, 43320, Note_on_c, 9, 42, 104
1, 43322, Note_on_c, 9, 42, 0
1, 43439, Note_on_c, 9, 36, 0
1, 43440, Note_on_c, 9, 38, 121
1, 43440, Note_on_c, 9, 42, 121
1, 43442, Note_on_c, 9, 42, 0
1, 43559, Note_on_c, 9, 38, 0
1, 43560, Note_on_c, 9, 42, 124
1, 43562, Note_on_c, 9, 42, 0
1, 43680, Note_on_c, 9, 42, 127
1, 43680, Note_on_c, 9, 36, 127
1, 43682, Note_on_c, 9, 42, 0
1, 43800, Note_on_c, 9, 42, 106
1, 43802, Note_on_c, 9, 42, 0
1, 43919, Note_on_c, 9, 36, 0
1, 43920, Note_on_c, 9, 38, 122
1, 43920, Note_on_c, 9, 42, 122
1, 43922, Note_on_c, 9, 42, 0
1, 44039, Note_on_c, 9, 38, 0
1, 44040, Note_on_c, 9, 42, 127
1, 44042, Note_on_c, 9, 42, 0
1, 44160, Note_on_c, 9, 42, 127
1, 44160, Note_on_c, 9, 36, 127
1, 44162, Note_on_c, 9, 42, 0
1, 44280, Note_on_c, 9, 42, 98
1, 44282, Note_on_c, 9, 42, 0
1, 44399, Note_on_c, 9, 36, 0
1, 44400, Note_on_c, 9, 38, 115
1, 44400, Note_on_c, 9, 42, 115
1, 44402, Note_on_c, 9, 42, 0
1, 44519, Note_on_c, 9, 38, 0
1, 44520, Note_on_c, 9, 42, 114
1, 44522, Note_on_c, 9, 42, 0
1, 44640, Note_on_c, 9, 42, 127
1, 44640, Note_on_c, 9, 36, 127
1, 44642, Note_on_c, 9, 42, 0
1, 44760, Note_on_c, 9, 42, 97
1, 44762, Note_on_c, 9, 42, 0
1, 44879, Note_on_c, 9, 36, 0
1, 44880, Note_on_c, 9, 38, 127
1, 44880, Note_on_c, 9, 42, 127
1, 44882, Note_on_c, 9, 42, 0
1, 44999, Note_on_c, 9, 38, 0
1, 45000, Note_on_c, 9, 42, 127
1, 45000, Note_on_c, 9, 49, 127
1, 45002, Note_on_c, 9, 42, 0
1, 45002, Note_on_c, 9, 49, 0
1, 45120, Note_on_c, 9, 42, 127
1, 45120, Note_on_c, 9, 36, 127
1, 45122, Note_on_c, 9, 42, 0
1, 45240, Note_on_c, 9, 42, 103
1, 45242, Note_on_c, 9, 42, 0
1, 45359, Note_on_c, 9, 36, 0
1, 45360, Note_on_c, 9, 38, 126
1, 45360, Note_on_c, 9, 42, 126
1, 45362, Note_on_c, 9, 42, 0
1, 45479, Note_on_c, 9, 38, 0
1, 45480, Note_on_c, 9, 42, 123
1, 45480, Note_on_c, 9, 49, 123
1, 45482, Note_on_c, 9, 42, 0
1, 45482, Note_on_c, 9, 49, 0
1, 45600, Note_on_c, 9, 42, 127
1, 45600, Note_on_c, 9, 36, 127
1, 45602, Note_on_c, 9, 42, 0
1, 45720, Note_on_c, 9, 42, 100
1, 45722, Note_on_c, 9, 42, 0
1, 45839, Note_on_c, 9, 36, 0
1, 45840, Note_on_c, 9, 38, 118
1, 45840, Note_on_c, 9, 42, 118
1, 45842, Note_on_c, 9, 42, 0
1, 45959, Note_on_c, 9, 38, 0
1, 45960, Note_on_c, 9, 42, 112
1, 45962, Note_on_c, 9, 42, 0
1, 46080, Note_on_c, 9, 42, 127
1, 46080, Note_on_c, 9, 49, 127
1, 46080, Note_on_c, 9, 36, 127
1, 46082, Note_on_c, 9, 42, 0
1, 46082, Note_on_c, 9, 49, 0
1, 46200, Note_on_c, 9, 42, 104
1, 46202, Note_on_c, 9, 42, 0
1, 46319, Note_on_c, 9, 36, 0
1, 46320, Note_on_c, 9, 38, 127
1, 46320, Note_on_c, 9, 42, 127
1, 46322, Note_on_c, 9, 42, 0
1, 46439, Note_on_c, 9, 38, 0
1, 46440, Note_on_c, 9, 42, 107
1, 46442, Note_on_c, 9, 42, 0
1, 46560, Note_on_c, 9, 42, 127
1, 46560, Note_on_c, 9, 36, 127
1, 46562, Note_on_c, 9, 42, 0
1, 46680, Note_on_c, 9, 42, 97
1, 46682, Note_on_c, 9, 42, 0
1, 46799, Note_on_c, 9, 36, 0
1, 46800, Note_on_c, 9, 38, 119
1, 46800, Note_on_c, 9, 42, 119
1, 46802, Note_on_c, 9, 42, 0
1, 46919, Note_on_c, 9, 38, 0
1, 46920, Note_on_c, 9, 42, 127
1, 46922, Note_on_c, 9, 42, 0
1, 47040, Note_on_c, 9, 38, 127
1, 47040, Note_on_c, 9, 47, 127
1, 47099, Note_on_c, 9, 38, 0
1, 47099, Note_on_c, 9, 47, 0
1, 47100, Note_on_c, 9, 45, 127
1, 47220, Note_on_c, 9, 43, 127
1, 47279, Note_on_c, 9, 45, 0
1, 47279, Note_on_c, 9, 43, 0
1, 47280, Note_on_c, 9, 38, 121
1, 47280, Note_on_c, 9, 42, 121
1, 47280, Note_on_c, 9, 36, 121
1, 47280, Note_on_c, 9, 43, 121
1, 47285, Note_on_c, 9, 42, 0
1, 47399, Note_on_c, 9, 36, 0
1, 47399, Note_on_c, 9, 43, 0
1, 47400, Note_on_c, 9, 43, 124
1, 47519, Note_on_c, 9, 38, 0
1, 47519, Note_on_c, 9, 43, 0
1, 47520, Note_on_c, 9, 38, 127
1, 47520, Note_on_c, 9, 43, 127
1, 47579, Note_on_c, 9, 43, 0
1, 47580, Note_on_c, 9, 43, 127
1, 47699, Note_on_c, 9, 43, 0
1, 47700, Note_on_c, 9, 43, 127
1, 47759, Note_on_c, 9, 38, 0
1, 47759, Note_on_c, 9, 43, 0
1, 47760, Note_on_c, 9, 41, 122
1, 47760, Note_on_c, 9, 38, 122
1, 47760, Note_on_c, 9, 42, 122
1, 47760, Note_on_c, 9, 36, 122
1, 47763, Note_on_c, 9, 42, 0
1, 47819, Note_on_c, 9, 36, 0
1, 47820, Note_on_c, 9, 43, 127
1, 47879, Note_on_c, 9, 43, 0
1, 47880, Note_on_c, 9, 43, 127
1, 47939, Note_on_c, 9, 41, 0
1, 47939, Note_on_c, 9, 38, 0
1, 47940, Note_on_c, 9, 41, 127
1, 47999, Note_on_c, 9, 43, 0
1, 47999, Note_on_c, 9, 41, 0
1, 48000, Note_on_c, 9, 38, 127
1, 48000, Note_on_c, 9, 49, 127
1, 48000, Note_on_c, 9, 49, 0
1, 48059, Note_on_c, 9, 38, 0
1, 48060, Note_on_c, 9, 42, 127
1, 48060, Note_on_c, 9, 42, 0
1, 48120, Note_on_c, 9, 42, 98
1, 48120, Note_on_c, 9, 42, 0
1, 48180, Note_on_c, 9, 42, 127
1, 48180, Note_on_c, 9, 42, 0
1, 48240, Note_on_c, 9, 38, 115
1, 48240, Note_on_c, 9, 42, 115
1, 48242, Note_on_c, 9, 42, 0
1, 48359, Note_on_c, 9, 38, 0
1, 48360, Note_on_c, 9, 42, 114
1, 48360, Note_on_c, 9, 42, 0
1, 48420, Note_on_c, 9, 42, 127
1, 48420, Note_on_c, 9, 42, 0
1, 48480, Note_on_c, 9, 36, 127
1, 48600, Note_on_c, 9, 42, 97
1, 48600, Note_on_c, 9, 42, 0
1, 48660, Note_on_c, 9, 42, 127
1, 48660, Note_on_c, 9, 42, 0
1, 48719, Note_on_c, 9, 36, 0
1, 48720, Note_on_c, 9, 38, 127
1, 48839, Note_on_c, 9, 38, 0
1, 48840, Note_on_c, 9, 42, 127
1, 48840, Note_on_c, 9, 42, 0
1, 48900, Note_on_c, 9, 42, 127
1, 48900, Note_on_c, 9, 42, 0
1, 48960, Note_on_c, 9, 36, 127
1, 49020, Note_on_c, 9, 42, 127
1, 49020, Note_on_c, 9, 42, 0
1, 49080, Note_on_c, 9, 42, 103
1, 49080, Note_on_c, 9, 42, 0
1, 49140, Note_on_c, 9, 42, 127
1, 49140, Note_on_c, 9, 42, 0
1, 49199, Note_on_c, 9, 36, 0
1, 49200, Note_on_c, 9, 38, 126
1, 49200, Note_on_c, 9, 42, 126
1, 49202, Note_on_c, 9, 42, 0
1, 49319, Note_on_c, 9, 38, 0
1, 49320, Note_on_c, 9, 42, 123
1, 49320, Note_on_c, 9, 42, 0
1, 49380, Note_on_c, 9, 42, 127
1, 49380, Note_on_c, 9, 42, 0
1, 49440, Note_on_c, 9, 36, 127
1, 49560, Note_on_c, 9, 42, 100
1, 49560, Note_on_c, 9, 42, 0
1, 49620, Note_on_c, 9, 42, 127
1, 49620, Note_on_c, 9, 42, 0
1, 49679, Note_on_c, 9, 36, 0
1, 49680, Note_on_c, 9, 38, 118
1, 49799, Note_on_c, 9, 38, 0
1, 49800, Note_on_c, 9, 42, 112
1, 49800, Note_on_c, 9, 42, 0
1, 49860, Note_on_c, 9, 42, 127
1, 49860, Note_on_c, 9, 42, 0
1, 49920, Note_on_c, 9, 49, 127
1, 49920, Note_on_c, 9, 49, 0
1, 49920, Note_on_c, 9, 36, 127
1, 49980, Note_on_c, 9, 42, 127
1, 49980, Note_on_c, 9, 42, 0
1, 50040, Note_on_c, 9, 42, 104
1, 50040, Note_on_c, 9, 42, 0
1, 50100, Note_on_c, 9, 42, 127
1, 50100, Note_on_c, 9, 42, 0
1, 50159, Note_on_c, 9, 36, 0
1, 50160, Note_on_c, 9, 38, 127
1, 50160, Note_on_c, 9, 42, 127
1, 50162, Note_on_c, 9, 42, 0
1, 50279, Note_on_c, 9, 38, 0
1, 50280, Note_on_c, 9, 42, 107
1, 50280, Note_on_c, 9, 42, 0
1, 50340, Note_on_c, 9, 42, 127
1, 50340, Note_on_c, 9, 42, 0
1, 50400, Note_on_c, 9, 36, 127
1, 50520, Note_on_c, 9, 42, 97
1, 50520, Note_on_c, 9, 42, 0
1, 50580, Note_on_c, 9, 42, 127
1, 50580, Note_on_c, 9, 42, 0
1, 50639, Note_on_c, 9, 36, 0
1, 50640, Note_on_c, 9, 38, 119
1, 50759, Note_on_c, 9, 38, 0
1, 50760, Note_on_c, 9, 42, 127
1, 50760, Note_on_c, 9, 42, 0
1, 50820, Note_on_c, 9, 42, 127
1, 50820, Note_on_c, 9, 42, 0
1, 50880, Note_on_c, 9, 36, 127
1, 50940, Note_on_c, 9, 42, 127
1, 50940, Note_on_c, 9, 42, 0
1, 51000, Note_on_c, 9, 42, 104
1, 51000, Note_on_c, 9, 42, 0
1, 51060, Note_on_c, 9, 42, 127
1, 51060, Note_on_c, 9, 42, 0
1, 51119, Note_on_c, 9, 36, 0
1, 51120, Note_on_c, 9, 38, 121
1, 51120, Note_on_c, 9, 42, 121
1, 51122, Note_on_c, 9, 42, 0
1, 51239, Note_on_c, 9, 38, 0
1, 51240, Note_on_c, 9, 42, 124
1, 51240, Note_on_c, 9, 42, 0
1, 51300, Note_on_c, 9, 42, 127
1, 51300, Note_on_c, 9, 42, 0
1, 51360, Note_on_c, 9, 36, 127
1, 51480, Note_on_c, 9, 42, 106
1, 51480, Note_on_c, 9, 42, 0
1, 51540, Note_on_c, 9, 38, 127
1, 51540, Note_on_c, 9, 42, 127
1, 51540, Note_on_c, 9, 42, 0
1, 51599, Note_on_c, 9, 36, 0
1, 51599, Note_on_c, 9, 38, 0
1, 51600, Note_on_c, 9, 38, 122
1, 51659, Note_on_c, 9, 38, 0
1, 51660, Note_on_c, 9, 38, 127
1, 51719, Note_on_c, 9, 38, 0
1, 51720, Note_on_c, 9, 38, 127
1, 51779, Note_on_c, 9, 38, 0
1, 51780, Note_on_c, 9, 38, 127
1, 51839, Note_on_c, 9, 38, 0
1, 51840, Note_on_c, 9, 49, 127
1, 51840, Note_on_c, 9, 49, 0
1, 51840, Note_on_c, 9, 36, 127
1, 51900, Note_on_c, 9, 42, 127
1, 51900, Note_on_c, 9, 42, 0
1, 51960, Note_on_c, 9, 42, 98
1, 51960, Note_on_c, 9, 42, 0
1, 52020, Note_on_c, 9, 42, 127
1, 52020, Note_on_c, 9, 42, 0
1, 52079, Note_on_c, 9, 36, 0
1, 52080, Note_on_c, 9, 38, 115
1, 52080, Note_on_c, 9, 42, 115
1, 52082, Note_on_c, 9, 42, 0
1, 52199, Note_on_c, 9, 38, 0
1, 52200, Note_on_c, 9, 42, 114
1, 52200, Note_on_c, 9, 42, 0
1, 52260, Note_on_c, 9, 42, 127
1, 52260, Note_on_c, 9, 42, 0
1, 52320, Note_on_c, 9, 36, 127
1, 52440, Note_on_c, 9, 42, 97
1, 52440, Note_on_c, 9, 42, 0
1, 52500, Note_on_c, 9, 42, 127
1, 52500, Note_on_c, 9, 42, 0
1, 52559, Note_on_c, 9, 36, 0
1, 52560, Note_on_c, 9, 38, 127
1, 52679, Note_on_c, 9, 38, 0
1, 52680, Note_on_c, 9, 42, 127
1, 52680, Note_on_c, 9, 42, 0
1, 52740, Note_on_c, 9, 42, 127
1, 52740, Note_on_c, 9, 42, 0
1, 52800, Note_on_c, 9, 36, 127
1, 52860, Note_on_c, 9, 42, 127
1, 52860, Note_on_c, 9, 42, 0
1, 52920, Note_on_c, 9, 42, 103
1, 52920, Note_on_c, 9, 42, 0
1, 52980, Note_on_c, 9, 42, 127
1, 52980, Note_on_c, 9, 42, 0
1, 53039, Note_on_c, 9, 36, 0
1, 53040, Note_on_c, 9, 38, 126
1, 53040, Note_on_c, 9, 42, 126
1, 53042, Note_on_c, 9, 42, 0
1, 53159, Note_on_c, 9, 38, 0
1, 53160, Note_on_c, 9, 42, 123
1, 53160, Note_on_c, 9, 42, 0
1, 53220, Note_on_c, 9, 42, 127
1, 53220, Note_on_c, 9, 42, 0
1, 53280, Note_on_c, 9, 36, 127
1, 53400, Note_on_c, 9, 42, 100
1, 53400, Note_on_c, 9, 42, 0
1, 53460, Note_on_c, 9, 42, 127
1, 53460, Note_on_c, 9, 42, 0
1, 53519, Note_on_c, 9, 36, 0
1, 53520, Note_on_c, 9, 38, 118
1, 53639, Note_on_c, 9, 38, 0
1, 53640, Note_on_c, 9, 42, 112
1, 53640, Note_on_c, 9, 42, 0
1, 53700, Note_on_c, 9, 42, 127
1, 53700, Note_on_c, 9, 42, 0
1, 53760, Note_on_c, 9, 36, 127
1, 53820, Note_on_c, 9, 42, 127
1, 53820, Note_on_c, 9, 42, 0
1, 53880, Note_on_c, 9, 42, 104
1, 53880, Note_on_c, 9, 42, 0
1, 53940, Note_on_c, 9, 42, 127
1, 53940, Note_on_c, 9, 42, 0
1, 53999, Note_on_c, 9, 36, 0
1, 54000, Note_on_c, 9, 38, 127
1, 54000, Note_on_c, 9, 42, 127
1, 54002, Note_on_c, 9, 42, 0
1, 54119, Note_on_c, 9, 38, 0
1, 54120, Note_on_c, 9, 42, 107
1, 54120, Note_on_c, 9, 42, 0
1, 54180, Note_on_c, 9, 42, 127
1, 54180, Note_on_c, 9, 42, 0
1, 54240, Note_on_c, 9, 36, 127
1, 54360, Note_on_c, 9, 42, 97
1, 54360, Note_on_c, 9, 42, 0
1, 54420, Note_on_c, 9, 42, 127
1, 54420, Note_on_c, 9, 42, 0
1, 54479, Note_on_c, 9, 36, 0
1, 54480, Note_on_c, 9, 38, 119
1, 54599, Note_on_c, 9, 38, 0
1, 54600, Note_on_c, 9, 42, 127
1, 54600, Note_on_c, 9, 42, 0
1, 54660, Note_on_c, 9, 42, 127
1, 54660, Note_on_c, 9, 42, 0
1, 54720, Note_on_c, 9, 36, 127
1, 54780, Note_on_c, 9, 42, 127
1, 54780, Note_on_c, 9, 42, 0
1, 54840, Note_on_c, 9, 42, 104
1, 54840, Note_on_c, 9, 42, 0
1, 54900, Note_on_c, 9, 42, 127
1, 54900, Note_on_c, 9, 42, 0
1, 54959, Note_on_c, 9, 36, 0
1, 54960, Note_on_c, 9, 38, 121
1, 54960, Note_on_c, 9, 42, 121
1, 54962, Note_on_c, 9, 42, 0
1, 55079, Note_on_c, 9, 38, 0
1, 55080, Note_on_c, 9, 42, 124
1, 55080, Note_on_c, 9, 42, 0
1, 55140, Note_on_c, 9, 42, 127
1, 55140, Note_on_c, 9, 42, 0
1, 55200, Note_on_c, 9, 36, 127
1, 55320, Note_on_c, 9, 42, 106
1, 55320, Note_on_c, 9, 42, 0
1, 55380, Note_on_c, 9, 38, 127
1, 55380, Note_on_c, 9, 42, 127
1, 55380, Note_on_c, 9, 42, 0
1, 55439, Note_on_c, 9, 36, 0
1, 55439, Note_on_c, 9, 38, 0
1, 55440, Note_on_c, 9, 38, 122
1, 55499, Note_on_c, 9, 38, 0
1, 55500, Note_on_c, 9, 38, 127
1, 55559, Note_on_c, 9, 38, 0
1, 55560, Note_on_c, 9, 38, 127
1, 55619, Note_on_c, 9, 38, 0
1, 55620, Note_on_c, 9, 38, 127
1, 55679, Note_on_c, 9, 38, 0
1, 55680, Note_on_c, 9, 49, 127
1, 55680, Note_on_c, 9, 49, 0
1, 55680, Note_on_c, 9, 36, 127
1, 55740, Note_on_c, 9, 42, 127
1, 55740, Note_on_c, 9, 42, 0
1, 55800, Note_on_c, 9, 42, 98
1, 55800, Note_on_c, 9, 42, 0
1, 55860, Note_on_c, 9, 42, 127
1, 55860, Note_on_c, 9, 42, 0
1, 55919, Note_on_c, 9, 36, 0
1, 55920, Note_on_c, 9, 38, 115
1, 55920, Note_on_c, 9, 42, 115
1, 55922, Note_on_c, 9, 42, 0
1, 56039, Note_on_c, 9, 38, 0
1, 56040, Note_on_c, 9, 42, 114
1, 56040, Note_on_c, 9, 42, 0
1, 56100, Note_on_c, 9, 42, 127
1, 56100, Note_on_c, 9, 42, 0
1, 56160, Note_on_c, 9, 36, 127
1, 56280, Note_on_c, 9, 42, 97
1, 56280, Note_on_c, 9, 42, 0
1, 56340, Note_on_c, 9, 42, 127
1, 56340, Note_on_c, 9, 42, 0
1, 56399, Note_on_c, 9, 36, 0
1, 56400, Note_on_c, 9, 38, 127
1, 56519, Note_on_c, 9, 38, 0
1, 56520, Note_on_c, 9, 42, 127
1, 56520, Note_on_c, 9, 42, 0
1, 56580, Note_on_c, 9, 42, 127
1, 56580, Note_on_c, 9, 42, 0
1, 56640, Note_on_c, 9, 36, 127
1, 56700, Note_on_c, 9, 42, 127
1, 56700, Note_on_c, 9, 42, 0
1, 56760, Note_on_c, 9, 42, 103
1, 56760, Note_on_c, 9, 42, 0
1, 56820, Note_on_c, 9, 42, 127
1, 56820, Note_on_c, 9, 42, 0
1, 56879, Note_on_c, 9, 36, 0
1, 56880, Note_on_c, 9, 38, 126
1, 56880, Note_on_c, 9, 42, 126
1, 56882, Note_on_c, 9, 42, 0
1, 56999, Note_on_c, 9, 38, 0
1, 57000, Note_on_c, 9, 42, 123
1, 57000, Note_on_c, 9, 42, 0
1, 57060, Note_on_c, 9, 42, 127
1, 57060, Note_on_c, 9, 42, 0
1, 57120, Note_on_c, 9, 36, 127
1, 57240, Note_on_c, 9, 42, 100
1, 57240, Note_on_c, 9, 42, 0
1, 57300, Note_on_c, 9, 42, 127
1, 57300, Note_on_c, 9, 42, 0
1, 57359, Note_on_c, 9, 36, 0
1, 57360, Note_on_c, 9, 38, 118
1, 57479, Note_on_c, 9, 38, 0
1, 57480, Note_on_c, 9, 42, 112
1, 57480, Note_on_c, 9, 42, 0
1, 57540, Note_on_c, 9, 42, 127
1, 57540, Note_on_c, 9, 42, 0
1, 57600, Note_on_c, 9, 36, 127
1, 57660, Note_on_c, 9, 42, 127
1, 57660, Note_on_c, 9, 42, 0
1, 57720, Note_on_c, 9, 42, 104
1, 57720, Note_on_c, 9, 42, 0
1, 57780, Note_on_c, 9, 42, 127
1, 57780, Note_on_c, 9, 42, 0
1, 57839, Note_on_c, 9, 36, 0
1, 57840, Note_on_c, 9, 38, 127
1, 57840, Note_on_c, 9, 42, 127
1, 57842, Note_on_c, 9, 42, 0
1, 57959, Note_on_c, 9, 38, 0
1, 57960, Note_on_c, 9, 42, 107
1, 57960, Note_on_c, 9, 42, 0
1, 58020, Note_on_c, 9, 42, 127
1, 58020, Note_on_c, 9, 42, 0
1, 58080, Note_on_c, 9, 36, 127
1, 58200, Note_on_c, 9, 42, 97
1, 58200, Note_on_c, 9, 42, 0
1, 58260, Note_on_c, 9, 42, 127
1, 58260, Note_on_c, 9, 42, 0
1, 58319, Note_on_c, 9, 36, 0
1, 58320, Note_on_c, 9, 38, 119
1, 58439, Note_on_c, 9, 38, 0
1, 58440, Note_on_c, 9, 42, 127
1, 58440, Note_on_c, 9, 42, 0
1, 58500, Note_on_c, 9, 42, 127
1, 58500, Note_on_c, 9, 42, 0
1, 58560, Note_on_c, 9, 36, 127
1, 58620, Note_on_c, 9, 42, 127
1, 58620, Note_on_c, 9, 42, 0
1, 58680, Note_on_c, 9, 42, 104
1, 58680, Note_on_c, 9, 42, 0
1, 58740, Note_on_c, 9, 42, 127
1, 58740, Note_on_c, 9, 42, 0
1, 58799, Note_on_c, 9, 36, 0
1, 58800, Note_on_c, 9, 38, 121
1, 58800, Note_on_c, 9, 42, 121
1, 58802, Note_on_c, 9, 42, 0
1, 58919, Note_on_c, 9, 38, 0
1, 58920, Note_on_c, 9, 42, 124
1, 58920, Note_on_c, 9, 42, 0
1, 58980, Note_on_c, 9, 42, 127
1, 58980, Note_on_c, 9, 42, 0
1, 59040, Note_on_c, 9, 36, 127
1, 59160, Note_on_c, 9, 42, 106
1, 59160, Note_on_c, 9, 42, 0
1, 59220, Note_on_c, 9, 38, 127
1, 59279, Note_on_c, 9, 36, 0
1, 59279, Note_on_c, 9, 38, 0
1, 59280, Note_on_c, 9, 38, 122
1, 59339, Note_on_c, 9, 38, 0
1, 59340, Note_on_c, 9, 38, 127
1, 59399, Note_on_c, 9, 38, 0
1, 59400, Note_on_c, 9, 38, 127
1, 59459, Note_on_c, 9, 38, 0
1, 59460, Note_on_c, 9, 38, 127
1, 59519, Note_on_c, 9, 38, 0
1, 59520, Note_on_c, 9, 49, 127
1, 59520, Note_on_c, 9, 49, 0
1, 59520, Note_on_c, 9, 36, 127
1, 59580, Note_on_c, 9, 42, 127
1, 59580, Note_on_c, 9, 42, 0
1, 59640, Note_on_c, 9, 42, 98
1, 59640, Note_on_c, 9, 42, 0
1, 59700, Note_on_c, 9, 42, 127
1, 59700, Note_on_c, 9, 42, 0
1, 59759, Note_on_c, 9, 36, 0
1, 59760, Note_on_c, 9, 38, 115
1, 59760, Note_on_c, 9, 42, 115
1, 59762, Note_on_c, 9, 42, 0
1, 59879, Note_on_c, 9, 38, 0
1, 59880, Note_on_c, 9, 42, 114
1, 59880, Note_on_c, 9, 42, 0
1, 59940, Note_on_c, 9, 42, 127
1, 59940, Note_on_c, 9, 42, 0
1, 60000, Note_on_c, 9, 36, 127
1, 60120, Note_on_c, 9, 42, 97
1, 60120, Note_on_c, 9, 42, 0
1, 60180, Note_on_c, 9, 42, 127
1, 60180, Note_on_c, 9, 42, 0
1, 60239, Note_on_c, 9, 36, 0
1, 60240, Note_on_c, 9, 38, 127
1, 60359, Note_on_c, 9, 38, 0
1, 60360, Note_on_c, 9, 42, 127
1, 60360, Note_on_c, 9, 42, 0
1, 60420, Note_on_c, 9, 42, 127
1, 60420, Note_on_c, 9, 42, 0
1, 60480, Note_on_c, 9, 36, 127
1, 60540, Note_on_c, 9, 42, 127
1, 60540, Note_on_c, 9, 42, 0
1, 60600, Note_on_c, 9, 42, 103
1, 60600, Note_on_c, 9, 42, 0
1, 60660, Note_on_c, 9, 42, 127
1, 60660, Note_on_c, 9, 42, 0
1, 60719, Note_on_c, 9, 36, 0
1, 60720, Note_on_c, 9, 38, 126
1, 60720, Note_on_c, 9, 42, 126
1, 60722, Note_on_c, 9, 42, 0
1, 60839, Note_on_c, 9, 38, 0
1, 60840, Note_on_c, 9, 42, 123
1, 60840, Note_on_c, 9, 42, 0
1, 60900, Note_on_c, 9, 42, 127
1, 60900, Note_on_c, 9, 42, 0
1, 60960, Note_on_c, 9, 36, 127
1, 61080, Note_on_c, 9, 42, 100
1, 61080, Note_on_c, 9, 42, 0
1, 61140, Note_on_c, 9, 42, 127
1, 61140, Note_on_c, 9, 42, 0
1, 61199, Note_on_c, 9, 36, 0
1, 61200, Note_on_c, 9, 38, 118
1, 61319, Note_on_c, 9, 38, 0
1, 61320, Note_on_c, 9, 42, 112
1, 61320, Note_on_c, 9, 42, 0
1, 61380, Note_on_c, 9, 42, 127
1, 61380, Note_on_c, 9, 42, 0
1, 61440, Note_on_c, 9, 36, 127
1, 61500, Note_on_c, 9, 42, 127
1, 61500, Note_on_c, 9, 42, 0
1, 61560, Note_on_c, 9, 42, 104
1, 61560, Note_on_c, 9, 42, 0
1, 61620, Note_on_c, 9, 42, 127
1, 61620, Note_on_c, 9, 42, 0
1, 61679, Note_on_c, 9, 36, 0
1, 61680, Note_on_c, 9, 38, 127
1, 61680, Note_on_c, 9, 42, 127
1, 61682, Note_on_c, 9, 42, 0
1, 61799, Note_on_c, 9, 38, 0
1, 61800, Note_on_c, 9, 42, 107
1, 61800, Note_on_c, 9, 42, 0
1, 61860, Note_on_c, 9, 42, 127
1, 61860, Note_on_c, 9, 42, 0
1, 61920, Note_on_c, 9, 36, 127
1, 62040, Note_on_c, 9, 42, 97
1, 62040, Note_on_c, 9, 42, 0
1, 62100, Note_on_c, 9, 42, 127
1, 62100, Note_on_c, 9, 42, 0
1, 62159, Note_on_c, 9, 36, 0
1, 62160, Note_on_c, 9, 38, 119
1, 62279, Note_on_c, 9, 38, 0
1, 62280, Note_on_c, 9, 42, 127
1, 62280, Note_on_c, 9, 42, 0
1, 62340, Note_on_c, 9, 42, 127
1, 62340, Note_on_c, 9, 42, 0
1, 62400, Note_on_c, 9, 36, 127
1, 62460, Note_on_c, 9, 42, 127
1, 62460, Note_on_c, 9, 42, 0
1, 62520, Note_on_c, 9, 42, 104
1, 62520, Note_on_c, 9, 42, 0
1, 62580, Note_on_c, 9, 42, 127
1, 62580, Note_on_c, 9, 42, 0
1, 62639, Note_on_c, 9, 36, 0
1, 62640, Note_on_c, 9, 38, 121
1, 62640, Note_on_c, 9, 42, 121
1, 62642, Note_on_c, 9, 42, 0
1, 62759, Note_on_c, 9, 38, 0
1, 62760, Note_on_c, 9, 42, 124
1, 62760, Note_on_c, 9, 42, 0
1, 62820, Note_on_c, 9, 42, 127
1, 62820, Note_on_c, 9, 42, 0
1, 62880, Note_on_c, 9, 36, 127
1, 63000, Note_on_c, 9, 42, 106
1, 63000, Note_on_c, 9, 42, 0
1, 63060, Note_on_c, 9, 38, 127
1, 63060, Note_on_c, 9, 42, 127
1, 63060, Note_on_c, 9, 42, 0
1, 63119, Note_on_c, 9, 36, 0
1, 63119, Note_on_c, 9, 38, 0
1, 63120, Note_on_c, 9, 38, 122
1, 63179, Note_on_c, 9, 38, 0
1, 63180, Note_on_c, 9, 38, 127
1, 63239, Note_on_c, 9, 38, 0
1, 63240, Note_on_c, 9, 38, 127
1, 63240, Note_on_c, 9, 57, 127
1, 63240, Note_on_c, 9, 57, 0
1, 63299, Note_on_c, 9, 38, 0
1, 63300, Note_on_c, 9, 38, 127
1, 63300, Note_on_c, 9, 42, 127
1, 63300, Note_on_c, 9, 42, 0
1, 63359, Note_on_c, 9, 38, 0
1, 63360, Note_on_c, 9, 49, 127
1, 63360, Note_on_c, 9, 49, 0
1, 63360, Note_on_c, 9, 36, 127
1, 63420, Note_on_c, 9, 42, 127
1, 63420, Note_on_c, 9, 42, 0
1, 63480, Note_on_c, 9, 42, 98
1, 63480, Note_on_c, 9, 42, 0
1, 63540, Note_on_c, 9, 42, 127
1, 63540, Note_on_c, 9, 42, 0
1, 63599, Note_on_c, 9, 36, 0
1, 63600, Note_on_c, 9, 38, 115
1, 63600, Note_on_c, 9, 42, 115
1, 63602, Note_on_c, 9, 42, 0
1, 63719, Note_on_c, 9, 38, 0
1, 63720, Note_on_c, 9, 42, 114
1, 63720, Note_on_c, 9, 42, 0
1, 63780, Note_on_c, 9, 42, 127
1, 63780, Note_on_c, 9, 42, 0
1, 63840, Note_on_c, 9, 36, 127
1, 63960, Note_on_c, 9, 42, 97
1, 63960, Note_on_c, 9, 42, 0
1, 64020, Note_on_c, 9, 42, 127
1, 64020, Note_on_c, 9, 42, 0
1, 64079, Note_on_c, 9, 36, 0
1, 64080, Note_on_c, 9, 38, 127
1, 64199, Note_on_c, 9, 38, 0
1, 64200, Note_on_c, 9, 42, 127
1, 64200, Note_on_c, 9, 42, 0
1, 64260, Note_on_c, 9, 42, 127
1, 64260, Note_on_c, 9, 42, 0
1, 64320, Note_on_c, 9, 36, 127
1, 64380, Note_on_c, 9, 42, 127
1, 64380, Note_on_c, 9, 42, 0
1, 64440, Note_on_c, 9, 42, 103
1, 64440, Note_on_c, 9, 42, 0
1, 64500, Note_on_c, 9, 42, 127
1, 64500, Note_on_c, 9, 42, 0
1, 64559, Note_on_c, 9, 36, 0
1, 64560, Note_on_c, 9, 38, 126
1, 64560, Note_on_c, 9, 42, 126
1, 64562, Note_on_c, 9, 42, 0
1, 64679, Note_on_c, 9, 38, 0
1, 64680, Note_on_c, 9, 42, 123
1, 64680, Note_on_c, 9, 42, 0
1, 64740, Note_on_c, 9, 42, 127
1, 64740, Note_on_c, 9, 42, 0
1, 64800, Note_on_c, 9, 36, 127
1, 64920, Note_on_c, 9, 42, 100
1, 64920, Note_on_c, 9, 42, 0
1, 64980, Note_on_c, 9, 42, 127
1, 64980, Note_on_c, 9, 42, 0
1, 65039, Note_on_c, 9, 36, 0
1, 65040, Note_on_c, 9, 38, 118
1, 65159, Note_on_c, 9, 38, 0
1, 65160, Note_on_c, 9, 42, 112
1, 65160, Note_on_c, 9, 42, 0
1, 65220, Note_on_c, 9, 42, 127
1, 65220, Note_on_c, 9, 42, 0
1, 65280, Note_on_c, 9, 36, 127
1, 65340, Note_on_c, 9, 42, 127
1, 65340, Note_on_c, 9, 42, 0
1, 65400, Note_on_c, 9, 42, 104
1, 65400, Note_on_c, 9, 42, 0
1, 65460, Note_on_c, 9, 42, 127
1, 65460, Note_on_c, 9, 42, 0
1, 65519, Note_on_c, 9, 36, 0
1, 65520, Note_on_c, 9, 38, 127
1, 65520, Note_on_c, 9, 42, 127
1, 65522, Note_on_c, 9, 42, 0
1, 65639, Note_on_c, 9, 38, 0
1, 65640, Note_on_c, 9, 42, 107
1, 65640, Note_on_c, 9, 42, 0
1, 65700, Note_on_c, 9, 42, 127
1, 65700, Note_on_c, 9, 42, 0
1, 65760, Note_on_c, 9, 36, 127
1, 65880, Note_on_c, 9, 42, 97
1, 65880, Note_on_c, 9, 42, 0
1, 65940, Note_on_c, 9, 42, 127
1, 65940, Note_on_c, 9, 42, 0
1, 65999, Note_on_c, 9, 36, 0
1, 66000, Note_on_c, 9, 38, 119
1, 66119, Note_on_c, 9, 38, 0
1, 66120, Note_on_c, 9, 42, 127
1, 66120, Note_on_c, 9, 42, 0
1, 66180, Note_on_c, 9, 42, 127
1, 66180, Note_on_c, 9, 42, 0
1, 66240, Note_on_c, 9, 36, 127
1, 66300, Note_on_c, 9, 42, 127
1, 66300, Note_on_c, 9, 42, 0
1, 66360, Note_on_c, 9, 42, 104
1, 66360, Note_on_c, 9, 42, 0
1, 66420, Note_on_c, 9, 42, 127
1, 66420, Note_on_c, 9, 42, 0
1, 66479, Note_on_c, 9, 36, 0
1, 66480, Note_on_c, 9, 38, 121
1, 66480, Note_on_c, 9, 42, 121
1, 66482, Note_on_c, 9, 42, 0
1, 66599, Note_on_c, 9, 38, 0
1, 66600, Note_on_c, 9, 42, 124
1, 66600, Note_on_c, 9, 42, 0
1, 66660, Note_on_c, 9, 42, 127
1, 66660, Note_on_c, 9, 42, 0
1, 66720, Note_on_c, 9, 36, 127
1, 66840, Note_on_c, 9, 42, 106
1, 66840, Note_on_c, 9, 42, 0
1, 66900, Note_on_c, 9, 42, 127
1, 66900, Note_on_c, 9, 42, 0
1, 66959, Note_on_c, 9, 36, 0
1, 66960, Note_on_c, 9, 38, 122
1, 67019, Note_on_c, 9, 38, 0
1, 67020, Note_on_c, 9, 38, 127
1, 67079, Note_on_c, 9, 38, 0
1, 67080, Note_on_c, 9, 38, 127
1, 67139, Note_on_c, 9, 38, 0
1, 67140, Note_on_c, 9, 38, 127
1, 67199, Note_on_c, 9, 38, 0
1, 67200, Note_on_c, 9, 42, 127
1, 67200, Note_on_c, 9, 49, 127
1, 67200, Note_on_c, 9, 36, 127
1, 67202, Note_on_c, 9, 42, 0
1, 67202, Note_on_c, 9, 49, 0
1, 67319, Note_on_c, 9, 36, 0
1, 67320, Note_on_c, 9, 42, 98
1, 67320, Note_on_c, 9, 36, 98
1, 67322, Note_on_c, 9, 42, 0
1, 67439, Note_on_c, 9, 36, 0
1, 67440, Note_on_c, 9, 38, 115
1, 67440, Note_on_c, 9, 42, 115
1, 67442, Note_on_c, 9, 42, 0
1, 67559, Note_on_c, 9, 38, 0
1, 67560, Note_on_c, 9, 42, 114
1, 67562, Note_on_c, 9, 42, 0
1, 67680, Note_on_c, 9, 42, 127
1, 67680, Note_on_c, 9, 36, 127
1, 67682, Note_on_c, 9, 42, 0
1, 67800, Note_on_c, 9, 42, 97
1, 67802, Note_on_c, 9, 42, 0
1, 67919, Note_on_c, 9, 36, 0
1, 67920, Note_on_c, 9, 38, 127
1, 67920, Note_on_c, 9, 42, 127
1, 67922, Note_on_c, 9, 42, 0
1, 68039, Note_on_c, 9, 38, 0
1, 68040, Note_on_c, 9, 42, 127
1, 68042, Note_on_c, 9, 42, 0
1, 68160, Note_on_c, 9, 42, 127
1, 68160, Note_on_c, 9, 36, 127
1, 68162, Note_on_c, 9, 42, 0
1, 68280, Note_on_c, 9, 42, 103
1, 68282, Note_on_c, 9, 42, 0
1, 68399, Note_on_c, 9, 36, 0
1, 68400, Note_on_c, 9, 38, 126
1, 68400, Note_on_c, 9, 42, 126
1, 68402, Note_on_c, 9, 42, 0
1, 68519, Note_on_c, 9, 38, 0
1, 68520, Note_on_c, 9, 42, 123
1, 68522, Note_on_c, 9, 42, 0
1, 68640, Note_on_c, 9, 42, 127
1, 68640, Note_on_c, 9, 36, 127
1, 68642, Note_on_c, 9, 42, 0
1, 68760, Note_on_c, 9, 42, 100
1, 68762, Note_on_c, 9, 42, 0
1, 68879, Note_on_c, 9, 36, 0
1, 68880, Note_on_c, 9, 38, 118
1, 68880, Note_on_c, 9, 42, 118
1, 68882, Note_on_c, 9, 42, 0
1, 68999, Note_on_c, 9, 38, 0
1, 69000, Note_on_c, 9, 42, 112
1, 69002, Note_on_c, 9, 42, 0
1, 69120, Note_on_c, 9, 42, 127
1, 69120, Note_on_c, 9, 49, 127
1, 69120, Note_on_c, 9, 36, 127
1, 69122, Note_on_c, 9, 42, 0
1, 69122, Note_on_c, 9, 49, 0
1, 69240, Note_on_c, 9, 42, 104
1, 69242, Note_on_c, 9, 42, 0
1, 69359, Note_on_c, 9, 36, 0
1, 69360, Note_on_c, 9, 38, 127
1, 69360, Note_on_c, 9, 42, 127
1, 69362, Note_on_c, 9, 42, 0
1, 69479, Note_on_c, 9, 38, 0
1, 69480, Note_on_c, 9, 42, 107
1, 69482, Note_on_c, 9, 42, 0
1, 69600, Note_on_c, 9, 42, 127
1, 69600, Note_on_c, 9, 36, 127
1, 69602, Note_on_c, 9, 42, 0
1, 69720, Note_on_c, 9, 42, 97
1, 69722, Note_on_c, 9, 42, 0
1, 69839, Note_on_c, 9, 36, 0
1, 69840, Note_on_c, 9, 38, 119
1, 69840, Note_on_c, 9, 42, 119
1, 69842, Note_on_c, 9, 42, 0
1, 69959, Note_on_c, 9, 38, 0
1, 69960, Note_on_c, 9, 42, 127
1, 69962, Note_on_c, 9, 42, 0
1, 70080, Note_on_c, 9, 42, 127
1, 70080, Note_on_c, 9, 36, 127
1, 70082, Note_on_c, 9, 42, 0
1, 70200, Note_on_c, 9, 42, 104
1, 70202, Note_on_c, 9, 42, 0
1, 70319, Note_on_c, 9, 36, 0
1, 70320, Note_on_c, 9, 38, 121
1, 70320, Note_on_c, 9, 42, 121
1, 70322, Note_on_c, 9, 42, 0
1, 70439, Note_on_c, 9, 38, 0
1, 70440, Note_on_c, 9, 42, 124
1, 70442, Note_on_c, 9, 42, 0
1, 70560, Note_on_c, 9, 42, 127
1, 70560, Note_on_c, 9, 36, 127
1, 70562, Note_on_c, 9, 42, 0
1, 70680, Note_on_c, 9, 42, 106
1, 70682, Note_on_c, 9, 42, 0
1, 70799, Note_on_c, 9, 36, 0
1, 70800, Note_on_c, 9, 38, 122
1, 70800, Note_on_c, 9, 42, 122
1, 70802, Note_on_c, 9, 42, 0
1, 70919, Note_on_c, 9, 38, 0
1, 70920, Note_on_c, 9, 42, 127
1, 70922, Note_on_c, 9, 42, 0
1, 71040, Note_on_c, 9, 42, 127
1, 71040, Note_on_c, 9, 36, 127
1, 71042, Note_on_c, 9, 42, 0
1, 71160, Note_on_c, 9, 42, 98
1, 71162, Note_on_c, 9, 42, 0
1, 71279, Note_on_c, 9, 36, 0
1, 71280, Note_on_c, 9, 38, 115
1, 71280, Note_on_c, 9, 42, 115
1, 71282, Note_on_c, 9, 42, 0
1, 71399, Note_on_c, 9, 38, 0
1, 71400, Note_on_c, 9, 42, 114
1, 71402, Note_on_c, 9, 42, 0
1, 71520, Note_on_c, 9, 42, 127
1, 71520, Note_on_c, 9, 36, 127
1, 71522, Note_on_c, 9, 42, 0
1, 71640, Note_on_c, 9, 42, 97
1, 71642, Note_on_c, 9, 42, 0
1, 71759, Note_on_c, 9, 36, 0
1, 71760, Note_on_c, 9, 38, 127
1, 71760, Note_on_c, 9, 42, 127
1, 71762, Note_on_c, 9, 42, 0
1, 71879, Note_on_c, 9, 38, 0
1, 71880, Note_on_c, 9, 42, 127
1, 71882, Note_on_c, 9, 42, 0
1, 72000, Note_on_c, 9, 42, 127
1, 72000, Note_on_c, 9, 49, 127
1, 72000, Note_on_c, 9, 36, 127
1, 72002, Note_on_c, 9, 42, 0
1, 72002, Note_on_c, 9, 49, 0
1, 72120, Note_on_c, 9, 42, 103
1, 72122, Note_on_c, 9, 42, 0
1, 72239, Note_on_c, 9, 36, 0
1, 72240, Note_on_c, 9, 38, 126
1, 72240, Note_on_c, 9, 42, 126
1, 72242, Note_on_c, 9, 42, 0
1, 72359, Note_on_c, 9, 38, 0
1, 72360, Note_on_c, 9, 42, 123
1, 72362, Note_on_c, 9, 42, 0
1, 72480, Note_on_c, 9, 42, 127
1, 72480, Note_on_c, 9, 36, 127
1, 72482, Note_on_c, 9, 42, 0
1, 72600, Note_on_c, 9, 42, 100
1, 72602, Note_on_c, 9, 42, 0
1, 72719, Note_on_c, 9, 36, 0
1, 72720, Note_on_c, 9, 38, 118
1, 72720, Note_on_c, 9, 42, 118
1, 72722, Note_on_c, 9, 42, 0
1, 72839, Note_on_c, 9, 38, 0
1, 72840, Note_on_c, 9, 42, 112
1, 72842, Note_on_c, 9, 42, 0
1, 72960, Note_on_c, 9, 38, 127
1, 72960, Note_on_c, 9, 42, 127
1, 72960, Note_on_c, 9, 49, 127
1, 72962, Note_on_c, 9, 42, 0
1, 72962, Note_on_c, 9, 49, 0
1, 73079, Note_on_c, 9, 38, 0
1, 73080, Note_on_c, 9, 42, 104
1, 73080, Note_on_c, 9, 36, 104
1, 73082, Note_on_c, 9, 42, 0
1, 73199, Note_on_c, 9, 36, 0
1, 73200, Note_on_c, 9, 38, 127
1, 73200, Note_on_c, 9, 42, 127
1, 73202, Note_on_c, 9, 42, 0
1, 73319, Note_on_c, 9, 38, 0
1, 73320, Note_on_c, 9, 42, 107
1, 73320, Note_on_c, 9, 36, 107
1, 73322, Note_on_c, 9, 42, 0
1, 73439, Note_on_c, 9, 36, 0
1, 73440, Note_on_c, 9, 38, 127
1, 73440, Note_on_c, 9, 42, 127
1, 73440, Note_on_c, 9, 36, 127
1, 73442, Note_on_c, 9, 42, 0
1, 73559, Note_on_c, 9, 38, 0
1, 73559, Note_on_c, 9, 36, 0
1, 73560, Note_on_c, 9, 42, 97
1, 73560, Note_on_c, 9, 36, 97
1, 73562, Note_on_c, 9, 42, 0
1, 73679, Note_on_c, 9, 36, 0
1, 73680, Note_on_c, 9, 38, 119
1, 73680, Note_on_c, 9, 42, 119
1, 73682, Note_on_c, 9, 42, 0
1, 73799, Note_on_c, 9, 38, 0
1, 73800, Note_on_c, 9, 42, 127
1, 73802, Note_on_c, 9, 42, 0
1, 73920, Note_on_c, 9, 38, 127
1, 73920, Note_on_c, 9, 42, 127
1, 73920, Note_on_c, 9, 36, 127
1, 73922, Note_on_c, 9, 42, 0
1, 74039, Note_on_c, 9, 38, 0
1, 74039, Note_on_c, 9, 36, 0
1, 74040, Note_on_c, 9, 42, 104
1, 74040, Note_on_c, 9, 36, 104
1, 74042, Note_on_c, 9, 42, 0
1, 74159, Note_on_c, 9, 36, 0
1, 74160, Note_on_c, 9, 38, 121
1, 74160, Note_on_c, 9, 42, 121
1, 74162, Note_on_c, 9, 42, 0
1, 74279, Note_on_c, 9, 38, 0
1, 74280, Note_on_c, 9, 42, 124
1, 74280, Note_on_c, 9, 36, 124
1, 74282, Note_on_c, 9, 42, 0
1, 74399, Note_on_c, 9, 36, 0
1, 74400, Note_on_c, 9, 38, 127
1, 74400, Note_on_c, 9, 42, 127
1, 74400, Note_on_c, 9, 42, 0
1, 74400, Note_on_c, 9, 36, 127
1, 74459, Note_on_c, 9, 38, 0
1, 74460, Note_on_c, 9, 38, 127
1, 74519, Note_on_c, 9, 36, 0
1, 74519, Note_on_c, 9, 38, 0
1, 74520, Note_on_c, 9, 42, 106
1, 74520, Note_on_c, 9, 36, 106
1, 74522, Note_on_c, 9, 42, 0
1, 74639, Note_on_c, 9, 36, 0
1, 74640, Note_on_c, 9, 38, 122
1, 74640, Note_on_c, 9, 42, 122
1, 74642, Note_on_c, 9, 42, 0
1, 74759, Note_on_c, 9, 38, 0
1, 74760, Note_on_c, 9, 42, 127
1, 74760, Note_on_c, 9, 36, 127
1, 74762, Note_on_c, 9, 42, 0
1, 74879, Note_on_c, 9, 36, 0
1, 74880, Note_on_c, 9, 42, 127
1, 74880, Note_on_c, 9, 49, 127
1, 74880, Note_on_c, 9, 36, 127
1, 74882, Note_on_c, 9, 42, 0
1, 74882, Note_on_c, 9, 49, 0
1, 75000, Note_on_c, 9, 42, 98
1, 75002, Note_on_c, 9, 42, 0
1, 75119, Note_on_c, 9, 36, 0
1, 75120, Note_on_c, 9, 38, 115
1, 75120, Note_on_c, 9, 42, 115
1, 75122, Note_on_c, 9, 42, 0
1, 75239, Note_on_c, 9, 38, 0
1, 75240, Note_on_c, 9, 42, 114
1, 75242, Note_on_c, 9, 42, 0
1, 75360, Note_on_c, 9, 42, 127
1, 75360, Note_on_c, 9, 36, 127
1, 75362, Note_on_c, 9, 42, 0
1, 75480, Note_on_c, 9, 42, 97
1, 75482, Note_on_c, 9, 42, 0
1, 75599, Note_on_c, 9, 36, 0
1, 75600, Note_on_c, 9, 38, 127
1, 75600, Note_on_c, 9, 42, 127
1, 75602, Note_on_c, 9, 42, 0
1, 75719, Note_on_c, 9, 38, 0
1, 75720, Note_on_c, 9, 42, 127
1, 75722, Note_on_c, 9, 42, 0
1, 75840, Note_on_c, 9, 42, 127
1, 75840, Note_on_c, 9, 36, 127
1, 75842, Note_on_c, 9, 42, 0
1, 75960, Note_on_c, 9, 42, 103
1, 75962, Note_on_c, 9, 42, 0
1, 76079, Note_on_c, 9, 36, 0
1, 76080, Note_on_c, 9, 38, 126
1, 76080, Note_on_c, 9, 42, 126
1, 76082, Note_on_c, 9, 42, 0
1, 76199, Note_on_c, 9, 38, 0
1, 76200, Note_on_c, 9, 42, 123
1, 76202, Note_on_c, 9, 42, 0
1, 76320, Note_on_c, 9, 42, 127
1, 76320, Note_on_c, 9, 36, 127
1, 76322, Note_on_c, 9, 42, 0
1, 76440, Note_on_c, 9, 42, 100
1, 76442, Note_on_c, 9, 42, 0
1, 76559, Note_on_c, 9, 36, 0
1, 76560, Note_on_c, 9, 38, 118
1, 76560, Note_on_c, 9, 42, 118
1, 76562, Note_on_c, 9, 42, 0
1, 76679, Note_on_c, 9, 38, 0
1, 76680, Note_on_c, 9, 42, 112
1, 76682, Note_on_c, 9, 42, 0
1, 76800, Note_on_c, 9, 42, 127
1, 76800, Note_on_c, 9, 36, 127
1, 76802, Note_on_c, 9, 42, 0
1, 76920, Note_on_c, 9, 42, 104
1, 76922, Note_on_c, 9, 42, 0
1, 77039, Note_on_c, 9, 36, 0
1, 77040, Note_on_c, 9, 38, 127
1, 77040, Note_on_c, 9, 42, 127
1, 77042, Note_on_c, 9, 42, 0
1, 77159, Note_on_c, 9, 38, 0
1, 77160, Note_on_c, 9, 42, 107
1, 77162, Note_on_c, 9, 42, 0
1, 77280, Note_on_c, 9, 42, 127
1, 77280, Note_on_c, 9, 36, 127
1, 77282, Note_on_c, 9, 42, 0
1, 77400, Note_on_c, 9, 42, 97
1, 77402, Note_on_c, 9, 42, 0
1, 77519, Note_on_c, 9, 36, 0
1, 77520, Note_on_c, 9, 38, 119
1, 77520, Note_on_c, 9, 42, 119
1, 77522, Note_on_c, 9, 42, 0
1, 77639, Note_on_c, 9, 38, 0
1, 77640, Note_on_c, 9, 42, 127
1, 77642, Note_on_c, 9, 42, 0
1, 77760, Note_on_c, 9, 42, 127
1, 77760, Note_on_c, 9, 36, 127
1, 77762, Note_on_c, 9, 42, 0
1, 77880, Note_on_c, 9, 42, 104
1, 77882, Note_on_c, 9, 42, 0
1, 77999, Note_on_c, 9, 36, 0
1, 78000, Note_on_c, 9, 38, 121
1, 78000, Note_on_c, 9, 42, 121
1, 78002, Note_on_c, 9, 42, 0
1, 78119, Note_on_c, 9, 38, 0
1, 78120, Note_on_c, 9, 42, 124
1, 78122, Note_on_c, 9, 42, 0
1, 78240, Note_on_c, 9, 42, 127
1, 78240, Note_on_c, 9, 36, 127
1, 78242, Note_on_c, 9, 42, 0
1, 78360, Note_on_c, 9, 42, 106
1, 78362, Note_on_c, 9, 42, 0
1, 78479, Note_on_c, 9, 36, 0
1, 78480, Note_on_c, 9, 38, 122
1, 78480, Note_on_c, 9, 42, 122
1, 78482, Note_on_c, 9, 42, 0
1, 78599, Note_on_c, 9, 38, 0
1, 78600, Note_on_c, 9, 42, 127
1, 78602, Note_on_c, 9, 42, 0
1, 78720, Note_on_c, 9, 42, 127
1, 78720, Note_on_c, 9, 36, 127
1, 78722, Note_on_c, 9, 42, 0
1, 78840, Note_on_c, 9, 42, 98
1, 78842, Note_on_c, 9, 42, 0
1, 78959, Note_on_c, 9, 36, 0
1, 78960, Note_on_c, 9, 38, 115
1, 78960, Note_on_c, 9, 42, 115
1, 78962, Note_on_c, 9, 42, 0
1, 79079, Note_on_c, 9, 38, 0
1, 79080, Note_on_c, 9, 42, 114
1, 79082, Note_on_c, 9, 42, 0
1, 79200, Note_on_c, 9, 42, 127
1, 79200, Note_on_c, 9, 36, 127
1, 79202, Note_on_c, 9, 42, 0
1, 79320, Note_on_c, 9, 42, 97
1, 79322, Note_on_c, 9, 42, 0
1, 79439, Note_on_c, 9, 36, 0
1, 79440, Note_on_c, 9, 38, 127
1, 79440, Note_on_c, 9, 42, 127
1, 79442, Note_on_c, 9, 42, 0
1, 79559, Note_on_c, 9, 38, 0
1, 79560, Note_on_c, 9, 42, 127
1, 79562, Note_on_c, 9, 42, 0
1, 79680, Note_on_c, 9, 42, 127
1, 79680, Note_on_c, 9, 36, 127
1, 79682, Note_on_c, 9, 42, 0
1, 79800, Note_on_c, 9, 42, 103
1, 79802, Note_on_c, 9, 42, 0
1, 79919, Note_on_c, 9, 36, 0
1, 79920, Note_on_c, 9, 38, 126
1, 79920, Note_on_c, 9, 42, 126
1, 79922, Note_on_c, 9, 42, 0
1, 80039, Note_on_c, 9, 38, 0
1, 80040, Note_on_c, 9, 42, 123
1, 80042, Note_on_c, 9, 42, 0
1, 80160, Note_on_c, 9, 42, 127
1, 80160, Note_on_c, 9, 36, 127
1, 80162, Note_on_c, 9, 42, 0
1, 80280, Note_on_c, 9, 42, 100
1, 80282, Note_on_c, 9, 42, 0
1, 80399, Note_on_c, 9, 36, 0
1, 80400, Note_on_c, 9, 38, 118
1, 80400, Note_on_c, 9, 42, 118
1, 80402, Note_on_c, 9, 42, 0
1, 80519, Note_on_c, 9, 38, 0
1, 80520, Note_on_c, 9, 42, 112
1, 80520, Note_on_c, 9, 36, 112
1, 80522, Note_on_c, 9, 42, 0
1, 80639, Note_on_c, 9, 36, 0
1, 80640, Note_on_c, 9, 38, 127
1, 80640, Note_on_c, 9, 45, 127
1, 80640, Note_on_c, 9, 49, 127
1, 80640, Note_on_c, 9, 49, 0
1, 80640, Note_on_c, 9, 36, 127
1, 80699, Note_on_c, 9, 38, 0
1, 80699, Note_on_c, 9, 45, 0
1, 80700, Note_on_c, 9, 45, 127
1, 80759, Note_on_c, 9, 36, 0
1, 80759, Note_on_c, 9, 45, 0
1, 80760, Note_on_c, 9, 38, 104
1, 80760, Note_on_c, 9, 45, 104
1, 80760, Note_on_c, 9, 49, 104
1, 80760, Note_on_c, 9, 43, 104
1, 80762, Note_on_c, 9, 49, 0
1, 80879, Note_on_c, 9, 38, 0
1, 80879, Note_on_c, 9, 45, 0
1, 80879, Note_on_c, 9, 43, 0
1, 80880, Note_on_c, 9, 47, 127
1, 80880, Note_on_c, 9, 42, 127
1, 80880, Note_on_c, 9, 42, 0
1, 80880, Note_on_c, 9, 36, 127
1, 80939, Note_on_c, 9, 47, 0
1, 80940, Note_on_c, 9, 45, 127
1, 80999, Note_on_c, 9, 45, 0
1, 81000, Note_on_c, 9, 41, 107
1, 81119, Note_on_c, 9, 36, 0
1, 81119, Note_on_c, 9, 41, 0
1, 81120, Note_on_c, 9, 47, 127
1, 81120, Note_on_c, 9, 36, 127
1, 81179, Note_on_c, 9, 47, 0
1, 81180, Note_on_c, 9, 45, 127
1, 81239, Note_on_c, 9, 36, 0
1, 81240, Note_on_c, 9, 43, 97
1, 81359, Note_on_c, 9, 45, 0
1, 81359, Note_on_c, 9, 43, 0
1, 81360, Note_on_c, 9, 47, 119
1, 81360, Note_on_c, 9, 42, 119
1, 81360, Note_on_c, 9, 42, 0
1, 81360, Note_on_c, 9, 36, 119
1, 81419, Note_on_c, 9, 47, 0
1, 81420, Note_on_c, 9, 45, 127
1, 81479, Note_on_c, 9, 36, 0
1, 81480, Note_on_c, 9, 43, 127
1, 81599, Note_on_c, 9, 45, 0
1, 81599, Note_on_c, 9, 43, 0
1, 81600, Note_on_c, 9, 47, 127
1, 81600, Note_on_c, 9, 36, 127
1, 81659, Note_on_c, 9, 47, 0
1, 81660, Note_on_c, 9, 45, 127
1, 81719, Note_on_c, 9, 36, 0
1, 81719, Note_on_c, 9, 45, 0
1, 81720, Note_on_c, 9, 45, 104
1, 81720, Note_on_c, 9, 43, 104
1, 81839, Note_on_c, 9, 45, 0
1, 81839, Note_on_c, 9, 43, 0
1, 81840, Note_on_c, 9, 47, 121
1, 81840, Note_on_c, 9, 42, 121
1, 81840, Note_on_c, 9, 42, 0
1, 81840, Note_on_c, 9, 36, 121
1, 81899, Note_on_c, 9, 47, 0
1, 81900, Note_on_c, 9, 45, 127
1, 81959, Note_on_c, 9, 36, 0
1, 81960, Note_on_c, 9, 43, 124
1, 82079, Note_on_c, 9, 45, 0
1, 82079, Note_on_c, 9, 43, 0
1, 82080, Note_on_c, 9, 47, 127
1, 82080, Note_on_c, 9, 36, 127
1, 82139, Note_on_c, 9, 47, 0
1, 82140, Note_on_c, 9, 45, 127
1, 82199, Note_on_c, 9, 36, 0
1, 82199, Note_on_c, 9, 45, 0
1, 82200, Note_on_c, 9, 45, 106
1, 82200, Note_on_c, 9, 43, 106
1, 82319, Note_on_c, 9, 45, 0
1, 82319, Note_on_c, 9, 43, 0
1, 82320, Note_on_c, 9, 47, 122
1, 82320, Note_on_c, 9, 42, 122
1, 82320, Note_on_c, 9, 42, 0
1, 82320, Note_on_c, 9, 36, 122
1, 82379, Note_on_c, 9, 47, 0
1, 82380, Note_on_c, 9, 45, 127
1, 82439, Note_on_c, 9, 36, 0
1, 82440, Note_on_c, 9, 43, 127
1, 82559, Note_on_c, 9, 45, 0
1, 82559, Note_on_c, 9, 43, 0
1, 82560, Note_on_c, 9, 47, 127
1, 82560, Note_on_c, 9, 36, 127
1, 82619, Note_on_c, 9, 47, 0
1, 82620, Note_on_c, 9, 45, 127
1, 82679, Note_on_c, 9, 36, 0
1, 82679, Note_on_c, 9, 45, 0
1, 82680, Note_on_c, 9, 45, 98
1, 82680, Note_on_c, 9, 43, 98
1, 82799, Note_on_c, 9, 45, 0
1, 82799, Note_on_c, 9, 43, 0
1, 82800, Note_on_c, 9, 47, 115
1, 82800, Note_on_c, 9, 42, 115
1, 82800, Note_on_c, 9, 42, 0
1, 82800, Note_on_c, 9, 36, 115
1, 82859, Note_on_c, 9, 47, 0
1, 82860, Note_on_c, 9, 45, 127
1, 82919, Note_on_c, 9, 36, 0
1, 82920, Note_on_c, 9, 43, 114
1, 83039, Note_on_c, 9, 45, 0
1, 83039, Note_on_c, 9, 43, 0
1, 83040, Note_on_c, 9, 47, 127
1, 83040, Note_on_c, 9, 36, 127
1, 83099, Note_on_c, 9, 47, 0
1, 83100, Note_on_c, 9, 45, 127
1, 83159, Note_on_c, 9, 36, 0
1, 83160, Note_on_c, 9, 43, 97
1, 83279, Note_on_c, 9, 45, 0
1, 83279, Note_on_c, 9, 43, 0
1, 83280, Note_on_c, 9, 47, 127
1, 83280, Note_on_c, 9, 42, 127
1, 83280, Note_on_c, 9, 42, 0
1, 83280, Note_on_c, 9, 36, 127
1, 83339, Note_on_c, 9, 47, 0
1, 83340, Note_on_c, 9, 45, 127
1, 83399, Note_on_c, 9, 36, 0
1, 83400, Note_on_c, 9, 43, 127
1, 83519, Note_on_c, 9, 45, 0
1, 83519, Note_on_c, 9, 43, 0
1, 83520, Note_on_c, 9, 47, 127
1, 83520, Note_on_c, 9, 36, 127
1, 83579, Note_on_c, 9, 47, 0
1, 83580, Note_on_c, 9, 45, 127
1, 83639, Note_on_c, 9, 36, 0
1, 83639, Note_on_c, 9, 45, 0
1, 83640, Note_on_c, 9, 45, 103
1, 83640, Note_on_c, 9, 43, 103
1, 83759, Note_on_c, 9, 45, 0
1, 83759, Note_on_c, 9, 43, 0
1, 83760, Note_on_c, 9, 47, 126
1, 83760, Note_on_c, 9, 42, 126
1, 83760, Note_on_c, 9, 42, 0
1, 83760, Note_on_c, 9, 36, 126
1, 83819, Note_on_c, 9, 47, 0
1, 83820, Note_on_c, 9, 45, 127
1, 83879, Note_on_c, 9, 36, 0
1, 83880, Note_on_c, 9, 43, 123
1, 83999, Note_on_c, 9, 45, 0
1, 83999, Note_on_c, 9, 43, 0
1, 84000, Note_on_c, 9, 47, 127
1, 84000, Note_on_c, 9, 36, 127
1, 84059, Note_on_c, 9, 47, 0
1, 84060, Note_on_c, 9, 45, 127
1, 84119, Note_on_c, 9, 36, 0
1, 84119, Note_on_c, 9, 45, 0
1, 84120, Note_on_c, 9, 45, 100
1, 84120, Note_on_c, 9, 43, 100
1, 84239, Note_on_c, 9, 45, 0
1, 84239, Note_on_c, 9, 43, 0
1, 84240, Note_on_c, 9, 47, 118
1, 84240, Note_on_c, 9, 42, 118
1, 84240, Note_on_c, 9, 42, 0
1, 84240, Note_on_c, 9, 36, 118
1, 84299, Note_on_c, 9, 47, 0
1, 84300, Note_on_c, 9, 45, 127
1, 84359, Note_on_c, 9, 36, 0
1, 84360, Note_on_c, 9, 43, 112
1, 84479, Note_on_c, 9, 45, 0
1, 84479, Note_on_c, 9, 43, 0
1, 84480, Note_on_c, 9, 38, 127
1, 84480, Note_on_c, 9, 45, 127
1, 84480, Note_on_c, 9, 49, 127
1, 84480, Note_on_c, 9, 49, 0
1, 84480, Note_on_c, 9, 36, 127
1, 84539, Note_on_c, 9, 38, 0
1, 84539, Note_on_c, 9, 45, 0
1, 84540, Note_on_c, 9, 45, 127
1, 84599, Note_on_c, 9, 36, 0
1, 84599, Note_on_c, 9, 45, 0
1, 84600, Note_on_c, 9, 38, 104
1, 84600, Note_on_c, 9, 45, 104
1, 84600, Note_on_c, 9, 49, 104
1, 84600, Note_on_c, 9, 43, 104
1, 84602, Note_on_c, 9, 49, 0
1, 84719, Note_on_c, 9, 38, 0
1, 84719, Note_on_c, 9, 45, 0
1, 84719, Note_on_c, 9, 43, 0
1, 84720, Note_on_c, 9, 47, 127
1, 84720, Note_on_c, 9, 42, 127
1, 84720, Note_on_c, 9, 42, 0
1, 84720, Note_on_c, 9, 36, 127
1, 84779, Note_on_c, 9, 47, 0
1, 84780, Note_on_c, 9, 45, 127
1, 84839, Note_on_c, 9, 45, 0
1, 84840, Note_on_c, 9, 41, 107
1, 84959, Note_on_c, 9, 36, 0
1, 84959, Note_on_c, 9, 41, 0
1, 84960, Note_on_c, 9, 47, 127
1, 84960, Note_on_c, 9, 36, 127
1, 85019, Note_on_c, 9, 47, 0
1, 85020, Note_on_c, 9, 45, 127
1, 85079, Note_on_c, 9, 36, 0
1, 85080, Note_on_c, 9, 43, 97
1, 85199, Note_on_c, 9, 45, 0
1, 85199, Note_on_c, 9, 43, 0
1, 85200, Note_on_c, 9, 47, 119
1, 85200, Note_on_c, 9, 42, 119
1, 85200, Note_on_c, 9, 42, 0
1, 85200, Note_on_c, 9, 36, 119
1, 85259, Note_on_c, 9, 47, 0
1, 85260, Note_on_c, 9, 45, 127
1, 85319, Note_on_c, 9, 36, 0
1, 85320, Note_on_c, 9, 43, 127
1, 85439, Note_on_c, 9, 45, 0
1, 85439, Note_on_c, 9, 43, 0
1, 85440, Note_on_c, 9, 47, 127
1, 85440, Note_on_c, 9, 36, 127
1, 85499, Note_on_c, 9, 47, 0
1, 85500, Note_on_c, 9, 45, 127
1, 85559, Note_on_c, 9, 36, 0
1, 85559, Note_on_c, 9, 45, 0
1, 85560, Note_on_c, 9, 45, 104
1, 85560, Note_on_c, 9, 43, 104
1, 85679, Note_on_c, 9, 45, 0
1, 85679, Note_on_c, 9, 43, 0
1, 85680, Note_on_c, 9, 47, 121
1, 85680, Note_on_c, 9, 42, 121
1, 85680, Note_on_c, 9, 42, 0
1, 85680, Note_on_c, 9, 36, 121
1, 85739, Note_on_c, 9, 47, 0
1, 85740, Note_on_c, 9, 45, 127
1, 85799, Note_on_c, 9, 36, 0
1, 85800, Note_on_c, 9, 43, 124
1, 85919, Note_on_c, 9, 45, 0
1, 85919, Note_on_c, 9, 43, 0
1, 85920, Note_on_c, 9, 47, 127
1, 85920, Note_on_c, 9, 36, 127
1, 85979, Note_on_c, 9, 47, 0
1, 85980, Note_on_c, 9, 45, 127
1, 86039, Note_on_c, 9, 36, 0
1, 86039, Note_on_c, 9, 45, 0
1, 86040, Note_on_c, 9, 45, 106
1, 86040, Note_on_c, 9, 43, 106
1, 86159, Note_on_c, 9, 45, 0
1, 86159, Note_on_c, 9, 43, 0
1, 86160, Note_on_c, 9, 47, 122
1, 86160, Note_on_c, 9, 42, 122
1, 86160, Note_on_c, 9, 42, 0
1, 86160, Note_on_c, 9, 36, 122
1, 86219, Note_on_c, 9, 47, 0
1, 86220, Note_on_c, 9, 45, 127
1, 86279, Note_on_c, 9, 36, 0
1, 86280, Note_on_c, 9, 43, 127
1, 86399, Note_on_c, 9, 45, 0
1, 86399, Note_on_c, 9, 43, 0
1, 86400, Note_on_c, 9, 47, 127
1, 86400, Note_on_c, 9, 36, 127
1, 86459, Note_on_c, 9, 47, 0
1, 86460, Note_on_c, 9, 45, 127
1, 86519, Note_on_c, 9, 36, 0
1, 86519, Note_on_c, 9, 45, 0
1, 86520, Note_on_c, 9, 45, 98
1, 86520, Note_on_c, 9, 43, 98
1, 86639, Note_on_c, 9, 45, 0
1, 86639, Note_on_c, 9, 43, 0
1, 86640, Note_on_c, 9, 47, 115
1, 86640, Note_on_c, 9, 42, 115
1, 86640, Note_on_c, 9, 42, 0
1, 86640, Note_on_c, 9, 36, 115
1, 86699, Note_on_c, 9, 47, 0
1, 86700, Note_on_c, 9, 45, 127
1, 86759, Note_on_c, 9, 36, 0
1, 86760, Note_on_c, 9, 43, 114
1, 86879, Note_on_c, 9, 45, 0
1, 86879, Note_on_c, 9, 43, 0
1, 86880, Note_on_c, 9, 47, 127
1, 86880, Note_on_c, 9, 36, 127
1, 86939, Note_on_c, 9, 47, 0
1, 86940, Note_on_c, 9, 45, 127
1, 86999, Note_on_c, 9, 36, 0
1, 87000, Note_on_c, 9, 43, 97
1, 87119, Note_on_c, 9, 45, 0
1, 87119, Note_on_c, 9, 43, 0
1, 87120, Note_on_c, 9, 47, 127
1, 87120, Note_on_c, 9, 42, 127
1, 87120, Note_on_c, 9, 42, 0
1, 87120, Note_on_c, 9, 36, 127
1, 87179, Note_on_c, 9, 47, 0
1, 87180, Note_on_c, 9, 45, 127
1, 87239, Note_on_c, 9, 36, 0
1, 87240, Note_on_c, 9, 43, 127
1, 87359, Note_on_c, 9, 45, 0
1, 87359, Note_on_c, 9, 43, 0
1, 87360, Note_on_c, 9, 38, 127
1, 87360, Note_on_c, 9, 47, 127
1, 87360, Note_on_c, 9, 36, 127
1, 87419, Note_on_c, 9, 38, 0
1, 87419, Note_on_c, 9, 47, 0
1, 87420, Note_on_c, 9, 45, 127
1, 87539, Note_on_c, 9, 36, 0
1, 87540, Note_on_c, 9, 43, 127
1, 87599, Note_on_c, 9, 45, 0
1, 87599, Note_on_c, 9, 43, 0
1, 87600, Note_on_c, 9, 38, 126
1, 87600, Note_on_c, 9, 42, 126
1, 87600, Note_on_c, 9, 36, 126
1, 87600, Note_on_c, 9, 43, 126
1, 87605, Note_on_c, 9, 42, 0
1, 87719, Note_on_c, 9, 36, 0
1, 87719, Note_on_c, 9, 43, 0
1, 87720, Note_on_c, 9, 43, 123
1, 87839, Note_on_c, 9, 38, 0
1, 87839, Note_on_c, 9, 43, 0
1, 87840, Note_on_c, 9, 38, 127
1, 87840, Note_on_c, 9, 43, 127
1, 87899, Note_on_c, 9, 43, 0
1, 87900, Note_on_c, 9, 43, 127
1, 88019, Note_on_c, 9, 43, 0
1, 88020, Note_on_c, 9, 43, 127
1, 88079, Note_on_c, 9, 38, 0
1, 88079, Note_on_c, 9, 43, 0
1, 88080, Note_on_c, 9, 41, 118
1, 88080, Note_on_c, 9, 38, 118
1, 88080, Note_on_c, 9, 42, 118
1, 88080, Note_on_c, 9, 36, 118
1, 88083, Note_on_c, 9, 42, 0
1, 88139, Note_on_c, 9, 36, 0
1, 88140, Note_on_c, 9, 43, 127
1, 88199, Note_on_c, 9, 43, 0
1, 88200, Note_on_c, 9, 43, 112
1, 88259, Note_on_c, 9, 41, 0
1, 88259, Note_on_c, 9, 38, 0
1, 88260, Note_on_c, 9, 41, 127
1, 88319, Note_on_c, 9, 43, 0
1, 88319, Note_on_c, 9, 41, 0
1, 88320, Tempo, 454545
1, 88320, Note_on_c, 9, 49, 127
1, 88320, Note_on_c, 9, 36, 127
1, 88331, Note_on_c, 9, 49, 0
1, 88559, Note_on_c, 9, 36, 0
1, 88560, Note_on_c, 9, 46, 127
1, 88560, Note_on_c, 9, 36, 127
1, 88571, Note_on_c, 9, 46, 0
1, 88799, Note_on_c, 9, 36, 0
1, 88800, Note_on_c, 9, 38, 127
1, 88800, Note_on_c, 9, 46, 127
1, 88811, Note_on_c, 9, 46, 0
1, 89039, Note_on_c, 9, 38, 0
1, 89040, Note_on_c, 9, 46, 119
1, 89040, Note_on_c, 9, 36, 119
1, 89051, Note_on_c, 9, 46, 0
1, 89279, Note_on_c, 9, 36, 0
1, 89280, Note_on_c, 9, 46, 127
1, 89280, Note_on_c, 9, 36, 127
1, 89291, Note_on_c, 9, 46, 0
1, 89519, Note_on_c, 9, 36, 0
1, 89520, Note_on_c, 9, 46, 121
1, 89520, Note_on_c, 9, 36, 121
1, 89531, Note_on_c, 9, 46, 0
1, 89759, Note_on_c, 9, 36, 0
1, 89760, Note_on_c, 9, 38, 127
1, 89760, Note_on_c, 9, 46, 127
1, 89771, Note_on_c, 9, 46, 0
1, 89999, Note_on_c, 9, 38, 0
1, 90000, Note_on_c, 9, 38, 122
1, 90000, Note_on_c, 9, 46, 122
1, 90011, Note_on_c, 9, 46, 0
1, 90239, Note_on_c, 9, 38, 0
1, 90240, Note_on_c, 9, 49, 127
1, 90240, Note_on_c, 9, 36, 127
1, 90251, Note_on_c, 9, 49, 0
1, 90479, Note_on_c, 9, 36, 0
1, 90480, Note_on_c, 9, 46, 115
1, 90480, Note_on_c, 9, 36, 115
1, 90491, Note_on_c, 9, 46, 0
1, 90719, Note_on_c, 9, 36, 0
1, 90720, Note_on_c, 9, 38, 127
1, 90720, Note_on_c, 9, 46, 127
1, 90731, Note_on_c, 9, 46, 0
1, 90959, Note_on_c, 9, 38, 0
1, 90960, Note_on_c, 9, 46, 127
1, 90960, Note_on_c, 9, 36, 127
1, 90971, Note_on_c, 9, 46, 0
1, 91199, Note_on_c, 9, 36, 0
1, 91200, Note_on_c, 9, 46, 127
1, 91200, Note_on_c, 9, 36, 127
1, 91211, Note_on_c, 9, 46, 0
1, 91439, Note_on_c, 9, 36, 0
1, 91440, Note_on_c, 9, 46, 126
1, 91440, Note_on_c, 9, 36, 126
1, 91451, Note_on_c, 9, 46, 0
1, 91679, Note_on_c, 9, 36, 0
1, 91680, Note_on_c, 9, 38, 127
1, 91680, Note_on_c, 9, 46, 127
1, 91691, Note_on_c, 9, 46, 0
1, 91919, Note_on_c, 9, 38, 0
1, 91920, Note_on_c, 9, 38, 118
1, 91920, Note_on_c, 9, 46, 118
1, 91931, Note_on_c, 9, 46, 0
1, 92159, Note_on_c, 9, 38, 0
1, 92160, Note_on_c, 9, 49, 127
1, 92160, Note_on_c, 9, 36, 127
1, 92171, Note_on_c, 9, 49, 0
1, 92399, Note_on_c, 9, 36, 0
1, 92400, Note_on_c, 9, 46, 127
1, 92400, Note_on_c, 9, 36, 127
1, 92411, Note_on_c, 9, 46, 0
1, 92639, Note_on_c, 9, 36, 0
1, 92640, Note_on_c, 9, 38, 127
1, 92640, Note_on_c, 9, 46, 127
1, 92651, Note_on_c, 9, 46, 0
1, 92879, Note_on_c, 9, 38, 0
1, 92880, Note_on_c, 9, 46, 119
1, 92880, Note_on_c, 9, 36, 119
1, 92891, Note_on_c, 9, 46, 0
1, 93119, Note_on_c, 9, 36, 0
1, 93120, Note_on_c, 9, 46, 127
1, 93120, Note_on_c, 9, 36, 127
1, 93131, Note_on_c, 9, 46, 0
1, 93359, Note_on_c, 9, 36, 0
1, 93360, Note_on_c, 9, 46, 121
1, 93360, Note_on_c, 9, 36, 121
1, 93371, Note_on_c, 9, 46, 0
1, 93599, Note_on_c, 9, 36, 0
1, 93600, Note_on_c, 9, 38, 127
1, 93600, Note_on_c, 9, 46, 127
1, 93611, Note_on_c, 9, 46, 0
1, 93839, Note_on_c, 9, 38, 0
1, 93840, Note_on_c, 9, 46, 122
1, 93840, Note_on_c, 9, 36, 122
1, 93851, Note_on_c, 9, 46, 0
1, 94079, Note_on_c, 9, 36, 0
1, 94080, Tempo, 909091
1, 94080, Note_on_c, 9, 49, 127
1, 94080, Note_on_c, 9, 36, 127
1, 94085, Note_on_c, 9, 49, 0
1, 94199, Note_on_c, 9, 36, 0
1, 94200, Note_on_c, 9, 36, 98
1, 94319, Note_on_c, 9, 36, 0
1, 94320, Note_on_c, 9, 38, 115
1, 94320, Note_on_c, 9, 46, 115
1, 94325, Note_on_c, 9, 46, 0
1, 94440, Note_on_c, 9, 36, 114
1, 94559, Note_on_c, 9, 38, 0
1, 94559, Note_on_c, 9, 36, 0
1, 94560, Note_on_c, 9, 46, 127
1, 94560, Note_on_c, 9, 36, 127
1, 94562, Note_on_c, 9, 46, 0
1, 94680, Note_on_c, 9, 38, 97
1, 94799, Note_on_c, 9, 36, 0
1, 94799, Note_on_c, 9, 38, 0
1, 94800, Note_on_c, 9, 46, 127
1, 94800, Note_on_c, 9, 36, 127
1, 94805, Note_on_c, 9, 46, 0
1, 94919, Note_on_c, 9, 36, 0
1, 94920, Note_on_c, 9, 36, 127
1, 95039, Note_on_c, 9, 36, 0
1, 95040, Note_on_c, 9, 46, 127
1, 95040, Note_on_c, 9, 36, 127
1, 95045, Note_on_c, 9, 46, 0
1, 95279, Note_on_c, 9, 36, 0
1, 95280, Note_on_c, 9, 38, 126
1, 95280, Note_on_c, 9, 46, 126
1, 95285, Note_on_c, 9, 46, 0
1, 95519, Note_on_c, 9, 38, 0
1, 95520, Note_on_c, 9, 46, 127
1, 95520, Note_on_c, 9, 36, 127
1, 95525, Note_on_c, 9, 46, 0
1, 95759, Note_on_c, 9, 36, 0
1, 95760, Note_on_c, 9, 38, 118
1, 95760, Note_on_c, 9, 46, 118
1, 95765, Note_on_c, 9, 46, 0
1, 95999, Note_on_c, 9, 38, 0
1, 96000, Note_on_c, 9, 49, 127
1, 96000, Note_on_c, 9, 36, 127
1, 96005, Note_on_c, 9, 49, 0
1, 96239, Note_on_c, 9, 36, 0
1, 96240, Note_on_c, 9, 38, 127
1, 96240, Note_on_c, 9, 46, 127
1, 96245, Note_on_c, 9, 46, 0
1, 96479, Note_on_c, 9, 38, 0
1, 96480, Note_on_c, 9, 46, 127
1, 96480, Note_on_c, 9, 36, 127
1, 96485, Note_on_c, 9, 46, 0
1, 96719, Note_on_c, 9, 36, 0
1, 96720, Note_on_c, 9, 38, 119
1, 96720, Note_on_c, 9, 46, 119
1, 96725, Note_on_c, 9, 46, 0
1, 96959, Note_on_c, 9, 38, 0
1, 96960, Note_on_c, 9, 49, 127
1, 96960, Note_on_c, 9, 36, 127
1, 96965, Note_on_c, 9, 49, 0
1, 97199, Note_on_c, 9, 36, 0
1, 97200, Note_on_c, 9, 38, 121
1, 97200, Note_on_c, 9, 46, 121
1, 97205, Note_on_c, 9, 46, 0
1, 97439, Note_on_c, 9, 38, 0
1, 97440, Note_on_c, 9, 46, 127
1, 97440, Note_on_c, 9, 36, 127
1, 97445, Note_on_c, 9, 46, 0
1, 97679, Note_on_c, 9, 36, 0
1, 97680, Note_on_c, 9, 38, 122
1, 97680, Note_on_c, 9, 46, 122
1, 97685, Note_on_c, 9, 46, 0
1, 97919, Note_on_c, 9, 38, 0
1, 97920, Note_on_c, 9, 49, 127
1, 97920, Note_on_c, 9, 36, 127
1, 97925, Note_on_c, 9, 49, 0
1, 98159, Note_on_c, 9, 36, 0
1, 98160, Note_on_c, 9, 38, 115
1, 98160, Note_on_c, 9, 46, 115
1, 98165, Note_on_c, 9, 46, 0
1, 98399, Note_on_c, 9, 38, 0
1, 98400, Note_on_c, 9, 46, 127
1, 98400, Note_on_c, 9, 36, 127
1, 98405, Note_on_c, 9, 46, 0
1, 98639, Note_on_c, 9, 36, 0
1, 98640, Note_on_c, 9, 38, 127
1, 98640, Note_on_c, 9, 46, 127
1, 98645, Note_on_c, 9, 46, 0
1, 98879, Note_on_c, 9, 38, 0
1, 98880, Tempo, 454545
1, 98880, Note_on_c, 9, 49, 127
1, 98880, Note_on_c, 9, 36, 127
1, 98891, Note_on_c, 9, 49, 0
1, 99119, Note_on_c, 9, 36, 0
1, 99120, Note_on_c, 9, 46, 126
1, 99120, Note_on_c, 9, 36, 126
1, 99131, Note_on_c, 9, 46, 0
1, 99359, Note_on_c, 9, 36, 0
1, 99360, Note_on_c, 9, 38, 127
1, 99360, Note_on_c, 9, 46, 127
1, 99371, Note_on_c, 9, 46, 0
1, 99599, Note_on_c, 9, 38, 0
1, 99600, Note_on_c, 9, 46, 118
1, 99600, Note_on_c, 9, 36, 118
1, 99611, Note_on_c, 9, 46, 0
1, 99839, Note_on_c, 9, 36, 0
1, 99840, Note_on_c, 9, 46, 127
1, 99840, Note_on_c, 9, 36, 127
1, 99851, Note_on_c, 9, 46, 0
1, 100079, Note_on_c, 9, 36, 0
1, 100080, Note_on_c, 9, 46, 127
1, 100080, Note_on_c, 9, 36, 127
1, 100091, Note_on_c, 9, 46, 0
1, 100319, Note_on_c, 9, 36, 0
1, 100320, Note_on_c, 9, 38, 127
1, 100320, Note_on_c, 9, 46, 127
1, 100331, Note_on_c, 9, 46, 0
1, 100559, Note_on_c, 9, 38, 0
1, 100560, Note_on_c, 9, 38, 119
1, 100560, Note_on_c, 9, 46, 119
1, 100571, Note_on_c, 9, 46, 0
1, 100799, Note_on_c, 9, 38, 0
1, 100800, Note_on_c, 9, 49, 127
1, 100800, Note_on_c, 9, 36, 127
1, 100811, Note_on_c, 9, 49, 0
1, 101039, Note_on_c, 9, 36, 0
1, 101040, Note_on_c, 9, 46, 121
1, 101040, Note_on_c, 9, 36, 121
1, 101051, Note_on_c, 9, 46, 0
1, 101279, Note_on_c, 9, 36, 0
1, 101280, Note_on_c, 9, 38, 127
1, 101280, Note_on_c, 9, 46, 127
1, 101291, Note_on_c, 9, 46, 0
1, 101519, Note_on_c, 9, 38, 0
1, 101520, Note_on_c, 9, 46, 122
1, 101520, Note_on_c, 9, 36, 122
1, 101531, Note_on_c, 9, 46, 0
1, 101759, Note_on_c, 9, 36, 0
1, 101760, Note_on_c, 9, 46, 127
1, 101760, Note_on_c, 9, 36, 127
1, 101771, Note_on_c, 9, 46, 0
1, 101999, Note_on_c, 9, 36, 0
1, 102000, Note_on_c, 9, 46, 115
1, 102000, Note_on_c, 9, 36, 115
1, 102011, Note_on_c, 9, 46, 0
1, 102239, Note_on_c, 9, 36, 0
1, 102240, Note_on_c, 9, 38, 127
1, 102240, Note_on_c, 9, 46, 127
1, 102251, Note_on_c, 9, 46, 0
1, 102479, Note_on_c, 9, 38, 0
1, 102480, Note_on_c, 9, 38, 127
1, 102480, Note_on_c, 9, 46, 127
1, 102491, Note_on_c, 9, 46, 0
1, 102719, Note_on_c, 9, 38, 0
1, 102720, Note_on_c, 9, 49, 127
1, 102720, Note_on_c, 9, 36, 127
1, 102731, Note_on_c, 9, 49, 0
1, 102959, Note_on_c, 9, 36, 0
1, 102960, Note_on_c, 9, 46, 126
1, 102960, Note_on_c, 9, 36, 126
1, 102971, Note_on_c, 9, 46, 0
1, 103199, Note_on_c, 9, 36, 0
1, 103200, Note_on_c, 9, 38, 127
1, 103200, Note_on_c, 9, 46, 127
1, 103211, Note_on_c, 9, 46, 0
1, 103439, Note_on_c, 9, 38, 0
1, 103440, Note_on_c, 9, 46, 118
1, 103440, Note_on_c, 9, 36, 118
1, 103451, Note_on_c, 9, 46, 0
1, 103679, Note_on_c, 9, 36, 0
1, 103680, Note_on_c, 9, 46, 127
1, 103680, Note_on_c, 9, 36, 127
1, 103691, Note_on_c, 9, 46, 0
1, 103919, Note_on_c, 9, 36, 0
1, 103920, Note_on_c, 9, 46, 127
1, 103920, Note_on_c, 9, 36, 127
1, 103931, Note_on_c, 9, 46, 0
1, 104159, Note_on_c, 9, 36, 0
1, 104160, Note_on_c, 9, 38, 127
1, 104160, Note_on_c, 9, 46, 127
1, 104171, Note_on_c, 9, 46, 0
1, 104399, Note_on_c, 9, 38, 0
1, 104400, Note_on_c, 9, 38, 119
1, 104400, Note_on_c, 9, 46, 119
1, 104411, Note_on_c, 9, 46, 0
1, 104639, Note_on_c, 9, 38, 0
1, 104640, Tempo, 909091
1, 104640, Note_on_c, 9, 49, 127
1, 104640, Note_on_c, 9, 36, 127
1, 104642, Note_on_c, 9, 49, 0
1, 104759, Note_on_c, 9, 36, 0
1, 104760, Note_on_c, 9, 46, 104
1, 104760, Note_on_c, 9, 36, 104
1, 104762, Note_on_c, 9, 46, 0
1, 104879, Note_on_c, 9, 36, 0
1, 104880, Note_on_c, 9, 38, 121
1, 104880, Note_on_c, 9, 46, 121
1, 104882, Note_on_c, 9, 46, 0
1, 104999, Note_on_c, 9, 38, 0
1, 105000, Note_on_c, 9, 46, 124
1, 105000, Note_on_c, 9, 36, 124
1, 105002, Note_on_c, 9, 46, 0
1, 105119, Note_on_c, 9, 36, 0
1, 105120, Note_on_c, 9, 46, 127
1, 105120, Note_on_c, 9, 36, 127
1, 105122, Note_on_c, 9, 46, 0
1, 105239, Note_on_c, 9, 36, 0
1, 105240, Note_on_c, 9, 46, 106
1, 105240, Note_on_c, 9, 36, 106
1, 105242, Note_on_c, 9, 46, 0
1, 105359, Note_on_c, 9, 36, 0
1, 105360, Note_on_c, 9, 38, 122
1, 105360, Note_on_c, 9, 46, 122
1, 105362, Note_on_c, 9, 46, 0
1, 105479, Note_on_c, 9, 38, 0
1, 105480, Note_on_c, 9, 38, 127
1, 105480, Note_on_c, 9, 46, 127
1, 105482, Note_on_c, 9, 46, 0
1, 105599, Note_on_c, 9, 38, 0
1, 105600, Note_on_c, 9, 49, 127
1, 105600, Note_on_c, 9, 36, 127
1, 105602, Note_on_c, 9, 49, 0
1, 105719, Note_on_c, 9, 36, 0
1, 105720, Note_on_c, 9, 46, 98
1, 105720, Note_on_c, 9, 36, 98
1, 105722, Note_on_c, 9, 46, 0
1, 105839, Note_on_c, 9, 36, 0
1, 105840, Note_on_c, 9, 38, 115
1, 105840, Note_on_c, 9, 46, 115
1, 105842, Note_on_c, 9, 46, 0
1, 105959, Note_on_c, 9, 38, 0
1, 105960, Note_on_c, 9, 46, 114
1, 105960, Note_on_c, 9, 36, 114
1, 105962, Note_on_c, 9, 46, 0
1, 106079, Note_on_c, 9, 36, 0
1, 106080, Note_on_c, 9, 46, 127
1, 106080, Note_on_c, 9, 36, 127
1, 106082, Note_on_c, 9, 46, 0
1, 106199, Note_on_c, 9, 36, 0
1, 106200, Note_on_c, 9, 46, 97
1, 106200, Note_on_c, 9, 36, 97
1, 106202, Note_on_c, 9, 46, 0
1, 106319, Note_on_c, 9, 36, 0
1, 106320, Note_on_c, 9, 38, 127
1, 106320, Note_on_c, 9, 46, 127
1, 106322, Note_on_c, 9, 46, 0
1, 106439, Note_on_c, 9, 38, 0
1, 106440, Note_on_c, 9, 46, 127
1, 106440, Note_on_c, 9, 36, 127
1, 106442, Note_on_c, 9, 46, 0
1, 106559, Note_on_c, 9, 36, 0
1, 106560, Note_on_c, 9, 49, 127
1, 106560, Note_on_c, 9, 36, 127
1, 106562, Note_on_c, 9, 49, 0
1, 106679, Note_on_c, 9, 36, 0
1, 106680, Note_on_c, 9, 46, 103
1, 106680, Note_on_c, 9, 36, 103
1, 106682, Note_on_c, 9, 46, 0
1, 106799, Note_on_c, 9, 36, 0
1, 106800, Note_on_c, 9, 38, 126
1, 106800, Note_on_c, 9, 46, 126
1, 106802, Note_on_c, 9, 46, 0
1, 106919, Note_on_c, 9, 38, 0
1, 106920, Note_on_c, 9, 46, 123
1, 106920, Note_on_c, 9, 36, 123
1, 106922, Note_on_c, 9, 46, 0
1, 107039, Note_on_c, 9, 36, 0
1, 107040, Note_on_c, 9, 46, 127
1, 107040, Note_on_c, 9, 36, 127
1, 107042, Note_on_c, 9, 46, 0
1, 107159, Note_on_c, 9, 36, 0
1, 107160, Note_on_c, 9, 46, 100
1, 107160, Note_on_c, 9, 36, 100
1, 107162, Note_on_c, 9, 46, 0
1, 107279, Note_on_c, 9, 36, 0
1, 107280, Note_on_c, 9, 38, 118
1, 107280, Note_on_c, 9, 46, 118
1, 107282, Note_on_c, 9, 46, 0
1, 107399, Note_on_c, 9, 38, 0
1, 107400, Note_on_c, 9, 46, 112
1, 107400, Note_on_c, 9, 36, 112
1, 107402, Note_on_c, 9, 46, 0
1, 107519, Note_on_c, 9, 36, 0
1, 107520, Note_on_c, 9, 49, 127
1, 107520, Note_on_c, 9, 36, 127
1, 107522, Note_on_c, 9, 49, 0
1, 107639, Note_on_c, 9, 36, 0
1, 107640, Note_on_c, 9, 46, 104
1, 107640, Note_on_c, 9, 36, 104
1, 107642, Note_on_c, 9, 46, 0
1, 107759, Note_on_c, 9, 36, 0
1, 107760, Note_on_c, 9, 38, 127
1, 107760, Note_on_c, 9, 46, 127
1, 107762, Note_on_c, 9, 46, 0
1, 107879, Note_on_c, 9, 38, 0
1, 107880, Note_on_c, 9, 46, 107
1, 107880, Note_on_c, 9, 36, 107
1, 107882, Note_on_c, 9, 46, 0
1, 107999, Note_on_c, 9, 36, 0
1, 108000, Note_on_c, 9, 46, 127
1, 108000, Note_on_c, 9, 36, 127
1, 108002, Note_on_c, 9, 46, 0
1, 108119, Note_on_c, 9, 36, 0
1, 108120, Note_on_c, 9, 46, 97
1, 108120, Note_on_c, 9, 36, 97
1, 108122, Note_on_c, 9, 46, 0
1, 108239, Note_on_c, 9, 36, 0
1, 108240, Note_on_c, 9, 38, 119
1, 108240, Note_on_c, 9, 46, 119
1, 108242, Note_on_c, 9, 46, 0
1, 108359, Note_on_c, 9, 38, 0
1, 108360, Note_on_c, 9, 46, 127
1, 108360, Note_on_c, 9, 36, 127
1, 108362, Note_on_c, 9, 46, 0
1, 108479, Note_on_c, 9, 36, 0
1, 108480, Note_on_c, 9, 49, 127
1, 108480, Note_on_c, 9, 36, 127
1, 108482, Note_on_c, 9, 49, 0
1, 108599, Note_on_c, 9, 36, 0
1, 108600, Note_on_c, 9, 46, 104
1, 108600, Note_on_c, 9, 36, 104
1, 108602, Note_on_c, 9, 46, 0
1, 108719, Note_on_c, 9, 36, 0
1, 108720, Note_on_c, 9, 38, 121
1, 108720, Note_on_c, 9, 46, 121
1, 108722, Note_on_c, 9, 46, 0
1, 108839, Note_on_c, 9, 38, 0
1, 108840, Note_on_c, 9, 46, 124
1, 108840, Note_on_c, 9, 36, 124
1, 108842, Note_on_c, 9, 46, 0
1, 108959, Note_on_c, 9, 36, 0
1, 108960, Note_on_c, 9, 46, 127
1, 108960, Note_on_c, 9, 36, 127
1, 108962, Note_on_c, 9, 46, 0
1, 109079, Note_on_c, 9, 36, 0
1, 109080, Note_on_c, 9, 46, 106
1, 109080, Note_on_c, 9, 36, 106
1, 109082, Note_on_c, 9, 46, 0
1, 109199, Note_on_c, 9, 36, 0
1, 109200, Note_on_c, 9, 38, 122
1, 109200, Note_on_c, 9, 46, 122
1, 109202, Note_on_c, 9, 46, 0
1, 109319, Note_on_c, 9, 38, 0
1, 109320, Note_on_c, 9, 46, 127
1, 109320, Note_on_c, 9, 36, 127
1, 109322, Note_on_c, 9, 46, 0
1, 109439, Note_on_c, 9, 36, 0
1, 109440, Note_on_c, 9, 45, 127
1, 109559, Note_on_c, 9, 45, 0
1, 109560, Note_on_c, 9, 45, 98
1, 109679, Note_on_c, 9, 45, 0
1, 109680, Note_on_c, 9, 42, 115
1, 109685, Note_on_c, 9, 42, 0
1, 110160, Note_on_c, 9, 42, 127
1, 110165, Note_on_c, 9, 42, 0
1, 110400, Note_on_c, 9, 45, 127
1, 110519, Note_on_c, 9, 45, 0
1, 110520, Note_on_c, 9, 45, 103
1, 110639, Note_on_c, 9, 45, 0
1, 110640, Note_on_c, 9, 42, 126
1, 110645, Note_on_c, 9, 42, 0
1, 110880, Note_on_c, 9, 45, 127
1, 110999, Note_on_c, 9, 45, 0
1, 111000, Note_on_c, 9, 45, 100
1, 111119, Note_on_c, 9, 45, 0
1, 111120, Note_on_c, 9, 42, 118
1, 111125, Note_on_c, 9, 42, 0
1, 111360, Note_on_c, 9, 45, 127
1, 111479, Note_on_c, 9, 45, 0
1, 111480, Note_on_c, 9, 45, 104
1, 111599, Note_on_c, 9, 45, 0
1, 111600, Note_on_c, 9, 42, 127
1, 111605, Note_on_c, 9, 42, 0
1, 112080, Note_on_c, 9, 42, 119
1, 112085, Note_on_c, 9, 42, 0
1, 112320, Note_on_c, 9, 45, 127
1, 112439, Note_on_c, 9, 45, 0
1, 112440, Note_on_c, 9, 45, 104
1, 112559, Note_on_c, 9, 45, 0
1, 112560, Note_on_c, 9, 42, 121
1, 112565, Note_on_c, 9, 42, 0
1, 112800, Note_on_c, 9, 45, 127
1, 112919, Note_on_c, 9, 45, 0
1, 112920, Note_on_c, 9, 45, 106
1, 113039, Note_on_c, 9, 45, 0
1, 113040, Note_on_c, 9, 42, 122
1, 113045, Note_on_c, 9, 42, 0
1, 113280, Note_on_c, 9, 45, 127
1, 113399, Note_on_c, 9, 45, 0
1, 113400, Note_on_c, 9, 45, 98
1, 113519, Note_on_c, 9, 45, 0
1, 113520, Note_on_c, 9, 42, 115
1, 113525, Note_on_c, 9, 42, 0
1, 114000, Note_on_c, 9, 42, 127
1, 114005, Note_on_c, 9, 42, 0
1, 114240, Note_on_c, 9, 45, 127
1, 114359, Note_on_c, 9, 45, 0
1, 114360, Note_on_c, 9, 45, 103
1, 114479, Note_on_c, 9, 45, 0
1, 114480, Note_on_c, 9, 42, 126
1, 114485, Note_on_c, 9, 42, 0
1, 114720, Note_on_c, 9, 45, 127
1, 114839, Note_on_c, 9, 45, 0
1, 114840, Note_on_c, 9, 45, 100
1, 114959, Note_on_c, 9, 45, 0
1, 114960, Note_on_c, 9, 42, 118
1, 114965, Note_on_c, 9, 42, 0
1, 115200, Note_on_c, 9, 45, 127
1, 115319, Note_on_c, 9, 45, 0
1, 115320, Note_on_c, 9, 45, 104
1, 115439, Note_on_c, 9, 45, 0
1, 115440, Note_on_c, 9, 42, 127
1, 115445, Note_on_c, 9, 42, 0
1, 115680, Note_on_c, 9, 42, 127
1, 115685, Note_on_c, 9, 42, 0
1, 115920, Note_on_c, 9, 42, 119
1, 115925, Note_on_c, 9, 42, 0
1, 116160, Note_on_c, 9, 38, 127
1, 116160, Note_on_c, 9, 47, 127
1, 116219, Note_on_c, 9, 38, 0
1, 116219, Note_on_c, 9, 47, 0
1, 116220, Note_on_c, 9, 45, 127
1, 116340, Note_on_c, 9, 43, 127
1, 116399, Note_on_c, 9, 45, 0
1, 116399, Note_on_c, 9, 43, 0
1, 116400, Note_on_c, 9, 38, 121
1, 116400, Note_on_c, 9, 42, 121
1, 116400, Note_on_c, 9, 36, 121
1, 116400, Note_on_c, 9, 43, 121
1, 116405, Note_on_c, 9, 42, 0
1, 116519, Note_on_c, 9, 36, 0
1, 116519, Note_on_c, 9, 43, 0
1, 116520, Note_on_c, 9, 43, 124
1, 116639, Note_on_c, 9, 38, 0
1, 116639, Note_on_c, 9, 43, 0
1, 116640, Note_on_c, 9, 38, 127
1, 116640, Note_on_c, 9, 43, 127
1, 116699, Note_on_c, 9, 43, 0
1, 116700, Note_on_c, 9, 43, 127
1, 116819, Note_on_c, 9, 43, 0
1, 116820, Note_on_c, 9, 43, 127
1, 116879, Note_on_c, 9, 38, 0
1, 116879, Note_on_c, 9, 43, 0
1, 116880, Note_on_c, 9, 41, 122
1, 116880, Note_on_c, 9, 38, 122
1, 116880, Note_on_c, 9, 42, 122
1, 116880, Note_on_c, 9, 36, 122
1, 116883, Note_on_c, 9, 42, 0
1, 116939, Note_on_c, 9, 36, 0
1, 116940, Note_on_c, 9, 43, 127
1, 116999, Note_on_c, 9, 43, 0
1, 117000, Note_on_c, 9, 43, 127
1, 117059, Note_on_c, 9, 41, 0
1, 117059, Note_on_c, 9, 38, 0
1, 117060, Note_on_c, 9, 41, 127
1, 117119, Note_on_c, 9, 43, 0
1, 117119, Note_on_c, 9, 41, 0
1, 117120, Note_on_c, 9, 38, 127
1, 117120, Note_on_c, 9, 57, 127
1, 117120, Note_on_c, 9, 57, 0
1, 117179, Note_on_c, 9, 38, 0
1, 117180, Note_on_c, 9, 42, 127
1, 117180, Note_on_c, 9, 42, 0
1, 117240, Note_on_c, 9, 42, 98
1, 117240, Note_on_c, 9, 42, 0
1, 117300, Note_on_c, 9, 42, 127
1, 117300, Note_on_c, 9, 42, 0
1, 117360, Note_on_c, 9, 38, 115
1, 117360, Note_on_c, 9, 42, 115
1, 117360, Note_on_c, 9, 49, 115
1, 117362, Note_on_c, 9, 42, 0
1, 117362, Note_on_c, 9, 49, 0
1, 117479, Note_on_c, 9, 38, 0
1, 117480, Note_on_c, 9, 42, 114
1, 117480, Note_on_c, 9, 42, 0
1, 117540, Note_on_c, 9, 42, 127
1, 117540, Note_on_c, 9, 42, 0
1, 117600, Note_on_c, 9, 36, 127
1, 117720, Note_on_c, 9, 42, 97
1, 117720, Note_on_c, 9, 42, 0
1, 117780, Note_on_c, 9, 42, 127
1, 117780, Note_on_c, 9, 42, 0
1, 117839, Note_on_c, 9, 36, 0
1, 117840, Note_on_c, 9, 38, 127
1, 117959, Note_on_c, 9, 38, 0
1, 117960, Note_on_c, 9, 42, 127
1, 117960, Note_on_c, 9, 42, 0
1, 118020, Note_on_c, 9, 42, 127
1, 118020, Note_on_c, 9, 42, 0
1, 118080, Note_on_c, 9, 36, 127
1, 118140, Note_on_c, 9, 42, 127
1, 118140, Note_on_c, 9, 42, 0
1, 118200, Note_on_c, 9, 42, 103
1, 118200, Note_on_c, 9, 42, 0
1, 118260, Note_on_c, 9, 42, 127
1, 118260, Note_on_c, 9, 42, 0
1, 118319, Note_on_c, 9, 36, 0
1, 118320, Note_on_c, 9, 38, 126
1, 118320, Note_on_c, 9, 42, 126
1, 118322, Note_on_c, 9, 42, 0
1, 118439, Note_on_c, 9, 38, 0
1, 118440, Note_on_c, 9, 42, 123
1, 118440, Note_on_c, 9, 42, 0
1, 118500, Note_on_c, 9, 42, 127
1, 118500, Note_on_c, 9, 42, 0
1, 118560, Note_on_c, 9, 36, 127
1, 118680, Note_on_c, 9, 42, 100
1, 118680, Note_on_c, 9, 42, 0
1, 118740, Note_on_c, 9, 42, 127
1, 118740, Note_on_c, 9, 42, 0
1, 118799, Note_on_c, 9, 36, 0
1, 118800, Note_on_c, 9, 38, 118
1, 118919, Note_on_c, 9, 38, 0
1, 118920, Note_on_c, 9, 38, 112
1, 118920, Note_on_c, 9, 42, 112
1, 118920, Note_on_c, 9, 42, 0
1, 118979, Note_on_c, 9, 38, 0
1, 118980, Note_on_c, 9, 38, 127
1, 118980, Note_on_c, 9, 42, 127
1, 118980, Note_on_c, 9, 42, 0
1, 119039, Note_on_c, 9, 38, 0
1, 119040, Note_on_c, 9, 49, 127
1, 119040, Note_on_c, 9, 49, 0
1, 119040, Note_on_c, 9, 36, 127
1, 119100, Note_on_c, 9, 42, 127
1, 119100, Note_on_c, 9, 42, 0
1, 119160, Note_on_c, 9, 42, 104
1, 119160, Note_on_c, 9, 42, 0
1, 119220, Note_on_c, 9, 42, 127
1, 119220, Note_on_c, 9, 42, 0
1, 119279, Note_on_c, 9, 36, 0
1, 119280, Note_on_c, 9, 38, 127
1, 119280, Note_on_c, 9, 42, 127
1, 119282, Note_on_c, 9, 42, 0
1, 119399, Note_on_c, 9, 38, 0
1, 119400, Note_on_c, 9, 42, 107
1, 119400, Note_on_c, 9, 42, 0
1, 119460, Note_on_c, 9, 42, 127
1, 119460, Note_on_c, 9, 42, 0
1, 119520, Note_on_c, 9, 36, 127
1, 119640, Note_on_c, 9, 42, 97
1, 119640, Note_on_c, 9, 42, 0
1, 119700, Note_on_c, 9, 42, 127
1, 119700, Note_on_c, 9, 42, 0
1, 119759, Note_on_c, 9, 36, 0
1, 119760, Note_on_c, 9, 38, 119
1, 119879, Note_on_c, 9, 38, 0
1, 119880, Note_on_c, 9, 42, 127
1, 119880, Note_on_c, 9, 42, 0
1, 119940, Note_on_c, 9, 42, 127
1, 119940, Note_on_c, 9, 42, 0
1, 120000, Note_on_c, 9, 36, 127
1, 120060, Note_on_c, 9, 42, 127
1, 120060, Note_on_c, 9, 42, 0
1, 120120, Note_on_c, 9, 42, 104
1, 120120, Note_on_c, 9, 42, 0
1, 120180, Note_on_c, 9, 42, 127
1, 120180, Note_on_c, 9, 42, 0
1, 120239, Note_on_c, 9, 36, 0
1, 120240, Note_on_c, 9, 38, 121
1, 120240, Note_on_c, 9, 42, 121
1, 120242, Note_on_c, 9, 42, 0
1, 120359, Note_on_c, 9, 38, 0
1, 120360, Note_on_c, 9, 42, 124
1, 120360, Note_on_c, 9, 42, 0
1, 120420, Note_on_c, 9, 42, 127
1, 120420, Note_on_c, 9, 42, 0
1, 120480, Note_on_c, 9, 36, 127
1, 120600, Note_on_c, 9, 42, 106
1, 120600, Note_on_c, 9, 42, 0
1, 120660, Note_on_c, 9, 38, 127
1, 120660, Note_on_c, 9, 42, 127
1, 120660, Note_on_c, 9, 42, 0
1, 120719, Note_on_c, 9, 36, 0
1, 120719, Note_on_c, 9, 38, 0
1, 120720, Note_on_c, 9, 38, 122
1, 120720, Note_on_c, 9, 36, 122
1, 120779, Note_on_c, 9, 38, 0
1, 120780, Note_on_c, 9, 38, 127
1, 120839, Note_on_c, 9, 38, 0
1, 120840, Note_on_c, 9, 38, 127
1, 120899, Note_on_c, 9, 38, 0
1, 120900, Note_on_c, 9, 38, 127
1, 120959, Note_on_c, 9, 36, 0
1, 120959, Note_on_c, 9, 38, 0
1, 120960, Note_on_c, 9, 49, 127
1, 120960, Note_on_c, 9, 49, 0
1, 120960, Note_on_c, 9, 36, 127
1, 121020, Note_on_c, 9, 42, 127
1, 121020, Note_on_c, 9, 42, 0
1, 121080, Note_on_c, 9, 42, 98
1, 121080, Note_on_c, 9, 42, 0
1, 121140, Note_on_c, 9, 42, 127
1, 121140, Note_on_c, 9, 42, 0
1, 121199, Note_on_c, 9, 36, 0
1, 121200, Note_on_c, 9, 38, 115
1, 121200, Note_on_c, 9, 42, 115
1, 121202, Note_on_c, 9, 42, 0
1, 121319, Note_on_c, 9, 38, 0
1, 121320, Note_on_c, 9, 42, 114
1, 121320, Note_on_c, 9, 42, 0
1, 121380, Note_on_c, 9, 42, 127
1, 121380, Note_on_c, 9, 42, 0
1, 121440, Note_on_c, 9, 36, 127
1, 121560, Note_on_c, 9, 42, 97
1, 121560, Note_on_c, 9, 42, 0
1, 121620, Note_on_c, 9, 42, 127
1, 121620, Note_on_c, 9, 42, 0
1, 121679, Note_on_c, 9, 36, 0
1, 121680, Note_on_c, 9, 38, 127
1, 121799, Note_on_c, 9, 38, 0
1, 121800, Note_on_c, 9, 42, 127
1, 121800, Note_on_c, 9, 42, 0
1, 121860, Note_on_c, 9, 42, 127
1, 121860, Note_on_c, 9, 42, 0
1, 121920, Note_on_c, 9, 36, 127
1, 121980, Note_on_c, 9, 42, 127
1, 121980, Note_on_c, 9, 42, 0
1, 122040, Note_on_c, 9, 42, 103
1, 122040, Note_on_c, 9, 42, 0
1, 122100, Note_on_c, 9, 42, 127
1, 122100, Note_on_c, 9, 42, 0
1, 122159, Note_on_c, 9, 36, 0
1, 122160, Note_on_c, 9, 38, 126
1, 122160, Note_on_c, 9, 42, 126
1, 122162, Note_on_c, 9, 42, 0
1, 122279, Note_on_c, 9, 38, 0
1, 122280, Note_on_c, 9, 42, 123
1, 122280, Note_on_c, 9, 42, 0
1, 122340, Note_on_c, 9, 42, 127
1, 122340, Note_on_c, 9, 42, 0
1, 122400, Note_on_c, 9, 36, 127
1, 122520, Note_on_c, 9, 42, 100
1, 122520, Note_on_c, 9, 42, 0
1, 122580, Note_on_c, 9, 42, 127
1, 122580, Note_on_c, 9, 42, 0
1, 122639, Note_on_c, 9, 36, 0
1, 122640, Note_on_c, 9, 38, 118
1, 122759, Note_on_c, 9, 38, 0
1, 122760, Note_on_c, 9, 42, 112
1, 122760, Note_on_c, 9, 42, 0
1, 122820, Note_on_c, 9, 42, 127
1, 122820, Note_on_c, 9, 42, 0
1, 122880, Note_on_c, 9, 36, 127
1, 122940, Note_on_c, 9, 42, 127
1, 122940, Note_on_c, 9, 42, 0
1, 123000, Note_on_c, 9, 42, 104
1, 123000, Note_on_c, 9, 42, 0
1, 123060, Note_on_c, 9, 42, 127
1, 123060, Note_on_c, 9, 42, 0
1, 123119, Note_on_c, 9, 36, 0
1, 123120, Note_on_c, 9, 38, 127
1, 123120, Note_on_c, 9, 42, 127
1, 123122, Note_on_c, 9, 42, 0
1, 123239, Note_on_c, 9, 38, 0
1, 123240, Note_on_c, 9, 42, 107
1, 123240, Note_on_c, 9, 42, 0
1, 123300, Note_on_c, 9, 42, 127
1, 123300, Note_on_c, 9, 42, 0
1, 123360, Note_on_c, 9, 36, 127
1, 123480, Note_on_c, 9, 42, 97
1, 123480, Note_on_c, 9, 42, 0
1, 123540, Note_on_c, 9, 42, 127
1, 123540, Note_on_c, 9, 42, 0
1, 123599, Note_on_c, 9, 36, 0
1, 123600, Note_on_c, 9, 38, 119
1, 123719, Note_on_c, 9, 38, 0
1, 123720, Note_on_c, 9, 42, 127
1, 123720, Note_on_c, 9, 42, 0
1, 123780, Note_on_c, 9, 42, 127
1, 123780, Note_on_c, 9, 42, 0
1, 123840, Note_on_c, 9, 36, 127
1, 123900, Note_on_c, 9, 42, 127
1, 123900, Note_on_c, 9, 42, 0
1, 123960, Note_on_c, 9, 42, 104
1, 123960, Note_on_c, 9, 42, 0
1, 124020, Note_on_c, 9, 42, 127
1, 124020, Note_on_c, 9, 42, 0
1, 124079, Note_on_c, 9, 36, 0
1, 124080, Note_on_c, 9, 38, 121
1, 124080, Note_on_c, 9, 42, 121
1, 124082, Note_on_c, 9, 42, 0
1, 124199, Note_on_c, 9, 38, 0
1, 124200, Note_on_c, 9, 42, 124
1, 124200, Note_on_c, 9, 42, 0
1, 124260, Note_on_c, 9, 42, 127
1, 124260, Note_on_c, 9, 42, 0
1, 124320, Note_on_c, 9, 36, 127
1, 124440, Note_on_c, 9, 42, 106
1, 124440, Note_on_c, 9, 42, 0
1, 124500, Note_on_c, 9, 38, 127
1, 124500, Note_on_c, 9, 42, 127
1, 124500, Note_on_c, 9, 42, 0
1, 124559, Note_on_c, 9, 36, 0
1, 124559, Note_on_c, 9, 38, 0
1, 124560, Note_on_c, 9, 38, 122
1, 124619, Note_on_c, 9, 38, 0
1, 124620, Note_on_c, 9, 38, 127
1, 124679, Note_on_c, 9, 38, 0
1, 124680, Note_on_c, 9, 38, 127
1, 124739, Note_on_c, 9, 38, 0
1, 124740, Note_on_c, 9, 38, 127
1, 124799, Note_on_c, 9, 38, 0
1, 124800, Note_on_c, 9, 49, 127
1, 124800, Note_on_c, 9, 49, 0
1, 124800, Note_on_c, 9, 36, 127
1, 124860, Note_on_c, 9, 42, 127
1, 124860, Note_on_c, 9, 42, 0
1, 124920, Note_on_c, 9, 42, 98
1, 124920, Note_on_c, 9, 42, 0
1, 124980, Note_on_c, 9, 42, 127
1, 124980, Note_on_c, 9, 42, 0
1, 125039, Note_on_c, 9, 36, 0
1, 125040, Note_on_c, 9, 38, 115
1, 125040, Note_on_c, 9, 42, 115
1, 125042, Note_on_c, 9, 42, 0
1, 125159, Note_on_c, 9, 38, 0
1, 125160, Note_on_c, 9, 42, 114
1, 125160, Note_on_c, 9, 42, 0
1, 125220, Note_on_c, 9, 42, 127
1, 125220, Note_on_c, 9, 42, 0
1, 125280, Note_on_c, 9, 36, 127
1, 125400, Note_on_c, 9, 42, 97
1, 125400, Note_on_c, 9, 42, 0
1, 125460, Note_on_c, 9, 42, 127
1, 125460, Note_on_c, 9, 42, 0
1, 125519, Note_on_c, 9, 36, 0
1, 125520, Note_on_c, 9, 38, 127
1, 125639, Note_on_c, 9, 38, 0
1, 125640, Note_on_c, 9, 42, 127
1, 125640, Note_on_c, 9, 42, 0
1, 125700, Note_on_c, 9, 42, 127
1, 125700, Note_on_c, 9, 42, 0
1, 125760, Note_on_c, 9, 36, 127
1, 125820, Note_on_c, 9, 42, 127
1, 125820, Note_on_c, 9, 42, 0
1, 125880, Note_on_c, 9, 42, 103
1, 125880, Note_on_c, 9, 42, 0
1, 125940, Note_on_c, 9, 42, 127
1, 125940, Note_on_c, 9, 42, 0
1, 125999, Note_on_c, 9, 36, 0
1, 126000, Note_on_c, 9, 38, 126
1, 126000, Note_on_c, 9, 42, 126
1, 126002, Note_on_c, 9, 42, 0
1, 126119, Note_on_c, 9, 38, 0
1, 126120, Note_on_c, 9, 42, 123
1, 126120, Note_on_c, 9, 42, 0
1, 126180, Note_on_c, 9, 42, 127
1, 126180, Note_on_c, 9, 42, 0
1, 126240, Note_on_c, 9, 36, 127
1, 126360, Note_on_c, 9, 42, 100
1, 126360, Note_on_c, 9, 42, 0
1, 126420, Note_on_c, 9, 42, 127
1, 126420, Note_on_c, 9, 42, 0
1, 126479, Note_on_c, 9, 36, 0
1, 126480, Note_on_c, 9, 38, 118
1, 126599, Note_on_c, 9, 38, 0
1, 126600, Note_on_c, 9, 42, 112
1, 126600, Note_on_c, 9, 42, 0
1, 126660, Note_on_c, 9, 42, 127
1, 126660, Note_on_c, 9, 42, 0
1, 126720, Note_on_c, 9, 36, 127
1, 126780, Note_on_c, 9, 42, 127
1, 126780, Note_on_c, 9, 42, 0
1, 126840, Note_on_c, 9, 42, 104
1, 126840, Note_on_c, 9, 42, 0
1, 126900, Note_on_c, 9, 42, 127
1, 126900, Note_on_c, 9, 42, 0
1, 126959, Note_on_c, 9, 36, 0
1, 126960, Note_on_c, 9, 38, 127
1, 126960, Note_on_c, 9, 42, 127
1, 126962, Note_on_c, 9, 42, 0
1, 127079, Note_on_c, 9, 38, 0
1, 127080, Note_on_c, 9, 42, 107
1, 127080, Note_on_c, 9, 42, 0
1, 127140, Note_on_c, 9, 42, 127
1, 127140, Note_on_c, 9, 42, 0
1, 127200, Note_on_c, 9, 36, 127
1, 127320, Note_on_c, 9, 42, 97
1, 127320, Note_on_c, 9, 42, 0
1, 127380, Note_on_c, 9, 42, 127
1, 127380, Note_on_c, 9, 42, 0
1, 127439, Note_on_c, 9, 36, 0
1, 127440, Note_on_c, 9, 38, 119
1, 127559, Note_on_c, 9, 38, 0
1, 127560, Note_on_c, 9, 42, 127
1, 127560, Note_on_c, 9, 42, 0
1, 127620, Note_on_c, 9, 42, 127
1, 127620, Note_on_c, 9, 42, 0
1, 127680, Note_on_c, 9, 36, 127
1, 127740, Note_on_c, 9, 42, 127
1, 127740, Note_on_c, 9, 42, 0
1, 127800, Note_on_c, 9, 42, 104
1, 127800, Note_on_c, 9, 42, 0
1, 127860, Note_on_c, 9, 42, 127
1, 127860, Note_on_c, 9, 42, 0
1, 127919, Note_on_c, 9, 36, 0
1, 127920, Note_on_c, 9, 38, 121
1, 127920, Note_on_c, 9, 42, 121
1, 127922, Note_on_c, 9, 42, 0
1, 128039, Note_on_c, 9, 38, 0
1, 128040, Note_on_c, 9, 42, 124
1, 128040, Note_on_c, 9, 42, 0
1, 128100, Note_on_c, 9, 42, 127
1, 128100, Note_on_c, 9, 42, 0
1, 128160, Note_on_c, 9, 36, 127
1, 128280, Note_on_c, 9, 42, 106
1, 128280, Note_on_c, 9, 42, 0
1, 128340, Note_on_c, 9, 38, 127
1, 128399, Note_on_c, 9, 36, 0
1, 128399, Note_on_c, 9, 38, 0
1, 128400, Note_on_c, 9, 38, 122
1, 128459, Note_on_c, 9, 38, 0
1, 128460, Note_on_c, 9, 38, 127
1, 128519, Note_on_c, 9, 38, 0
1, 128520, Note_on_c, 9, 38, 127
1, 128579, Note_on_c, 9, 38, 0
1, 128580, Note_on_c, 9, 38, 127
1, 128639, Note_on_c, 9, 38, 0
1, 128640, Note_on_c, 9, 49, 127
1, 128640, Note_on_c, 9, 49, 0
1, 128640, Note_on_c, 9, 36, 127
1, 128700, Note_on_c, 9, 42, 127
1, 128700, Note_on_c, 9, 42, 0
1, 128760, Note_on_c, 9, 42, 98
1, 128760, Note_on_c, 9, 42, 0
1, 128820, Note_on_c, 9, 42, 127
1, 128820, Note_on_c, 9, 42, 0
1, 128879, Note_on_c, 9, 36, 0
1, 128880, Note_on_c, 9, 38, 115
1, 128880, Note_on_c, 9, 42, 115
1, 128882, Note_on_c, 9, 42, 0
1, 128999, Note_on_c, 9, 38, 0
1, 129000, Note_on_c, 9, 42, 114
1, 129000, Note_on_c, 9, 42, 0
1, 129060, Note_on_c, 9, 42, 127
1, 129060, Note_on_c, 9, 42, 0
1, 129120, Note_on_c, 9, 36, 127
1, 129240, Note_on_c, 9, 42, 97
1, 129240, Note_on_c, 9, 42, 0
1, 129300, Note_on_c, 9, 42, 127
1, 129300, Note_on_c, 9, 42, 0
1, 129359, Note_on_c, 9, 36, 0
1, 129360, Note_on_c, 9, 38, 127
1, 129479, Note_on_c, 9, 38, 0
1, 129480, Note_on_c, 9, 42, 127
1, 129480, Note_on_c, 9, 42, 0
1, 129540, Note_on_c, 9, 42, 127
1, 129540, Note_on_c, 9, 42, 0
1, 129600, Note_on_c, 9, 36, 127
1, 129660, Note_on_c, 9, 42, 127
1, 129660, Note_on_c, 9, 42, 0
1, 129720, Note_on_c, 9, 42, 103
1, 129720, Note_on_c, 9, 42, 0
1, 129780, Note_on_c, 9, 42, 127
1, 129780, Note_on_c, 9, 42, 0
1, 129839, Note_on_c, 9, 36, 0
1, 129840, Note_on_c, 9, 38, 126
1, 129840, Note_on_c, 9, 42, 126
1, 129842, Note_on_c, 9, 42, 0
1, 129959, Note_on_c, 9, 38, 0
1, 129960, Note_on_c, 9, 42, 123
1, 129960, Note_on_c, 9, 42, 0
1, 130020, Note_on_c, 9, 42, 127
1, 130020, Note_on_c, 9, 42, 0
1, 130080, Note_on_c, 9, 36, 127
1, 130200, Note_on_c, 9, 42, 100
1, 130200, Note_on_c, 9, 42, 0
1, 130260, Note_on_c, 9, 42, 127
1, 130260, Note_on_c, 9, 42, 0
1, 130319, Note_on_c, 9, 36, 0
1, 130320, Note_on_c, 9, 38, 118
1, 130439, Note_on_c, 9, 38, 0
1, 130440, Note_on_c, 9, 42, 112
1, 130440, Note_on_c, 9, 42, 0
1, 130500, Note_on_c, 9, 42, 127
1, 130500, Note_on_c, 9, 42, 0
1, 130560, Note_on_c, 9, 36, 127
1, 130620, Note_on_c, 9, 42, 127
1, 130620, Note_on_c, 9, 42, 0
1, 130680, Note_on_c, 9, 42, 104
1, 130680, Note_on_c, 9, 42, 0
1, 130740, Note_on_c, 9, 42, 127
1, 130740, Note_on_c, 9, 42, 0
1, 130799, Note_on_c, 9, 36, 0
1, 130800, Note_on_c, 9, 38, 127
1, 130800, Note_on_c, 9, 42, 127
1, 130802, Note_on_c, 9, 42, 0
1, 130919, Note_on_c, 9, 38, 0
1, 130920, Note_on_c, 9, 42, 107
1, 130920, Note_on_c, 9, 42, 0
1, 130980, Note_on_c, 9, 42, 127
1, 130980, Note_on_c, 9, 42, 0
1, 131040, Note_on_c, 9, 36, 127
1, 131160, Note_on_c, 9, 42, 97
1, 131160, Note_on_c, 9, 42, 0
1, 131220, Note_on_c, 9, 42, 127
1, 131220, Note_on_c, 9, 42, 0
1, 131279, Note_on_c, 9, 36, 0
1, 131280, Note_on_c, 9, 38, 119
1, 131399, Note_on_c, 9, 38, 0
1, 131400, Note_on_c, 9, 42, 127
1, 131400, Note_on_c, 9, 42, 0
1, 131460, Note_on_c, 9, 42, 127
1, 131460, Note_on_c, 9, 42, 0
1, 131520, Note_on_c, 9, 36, 127
1, 131580, Note_on_c, 9, 42, 127
1, 131580, Note_on_c, 9, 42, 0
1, 131640, Note_on_c, 9, 42, 104
1, 131640, Note_on_c, 9, 42, 0
1, 131700, Note_on_c, 9, 42, 127
1, 131700, Note_on_c, 9, 42, 0
1, 131759, Note_on_c, 9, 36, 0
1, 131760, Note_on_c, 9, 38, 121
1, 131760, Note_on_c, 9, 42, 121
1, 131762, Note_on_c, 9, 42, 0
1, 131879, Note_on_c, 9, 38, 0
1, 131880, Note_on_c, 9, 42, 124
1, 131880, Note_on_c, 9, 42, 0
1, 131940, Note_on_c, 9, 42, 127
1, 131940, Note_on_c, 9, 42, 0
1, 132000, Note_on_c, 9, 36, 127
1, 132120, Note_on_c, 9, 42, 106
1, 132120, Note_on_c, 9, 42, 0
1, 132180, Note_on_c, 9, 38, 127
1, 132180, Note_on_c, 9, 42, 127
1, 132180, Note_on_c, 9, 42, 0
1, 132239, Note_on_c, 9, 36, 0
1, 132239, Note_on_c, 9, 38, 0
1, 132240, Note_on_c, 9, 38, 122
1, 132299, Note_on_c, 9, 38, 0
1, 132300, Note_on_c, 9, 38, 127
1, 132359, Note_on_c, 9, 38, 0
1, 132360, Note_on_c, 9, 38, 127
1, 132360, Note_on_c, 9, 57, 127
1, 132360, Note_on_c, 9, 57, 0
1, 132419, Note_on_c, 9, 38, 0
1, 132420, Note_on_c, 9, 38, 127
1, 132420, Note_on_c, 9, 42, 127
1, 132420, Note_on_c, 9, 42, 0
1, 132479, Note_on_c, 9, 38, 0
1, 132480, Note_on_c, 9, 49, 127
1, 132480, Note_on_c, 9, 49, 0
1, 132480, Note_on_c, 9, 36, 127
1, 132540, Note_on_c, 9, 42, 127
1, 132540, Note_on_c, 9, 42, 0
1, 132600, Note_on_c, 9, 42, 98
1, 132600, Note_on_c, 9, 42, 0
1, 132660, Note_on_c, 9, 42, 127
1, 132660, Note_on_c, 9, 42, 0
1, 132719, Note_on_c, 9, 36, 0
1, 132720, Note_on_c, 9, 38, 115
1, 132720, Note_on_c, 9, 42, 115
1, 132722, Note_on_c, 9, 42, 0
1, 132839, Note_on_c, 9, 38, 0
1, 132840, Note_on_c, 9, 42, 114
1, 132840, Note_on_c, 9, 42, 0
1, 132900, Note_on_c, 9, 42, 127
1, 132900, Note_on_c, 9, 42, 0
1, 132960, Note_on_c, 9, 36, 127
1, 133080, Note_on_c, 9, 42, 97
1, 133080, Note_on_c, 9, 42, 0
1, 133140, Note_on_c, 9, 42, 127
1, 133140, Note_on_c, 9, 42, 0
1, 133199, Note_on_c, 9, 36, 0
1, 133200, Note_on_c, 9, 38, 127
1, 133319, Note_on_c, 9, 38, 0
1, 133320, Note_on_c, 9, 42, 127
1, 133320, Note_on_c, 9, 42, 0
1, 133380, Note_on_c, 9, 42, 127
1, 133380, Note_on_c, 9, 42, 0
1, 133440, Note_on_c, 9, 36, 127
1, 133500, Note_on_c, 9, 42, 127
1, 133500, Note_on_c, 9, 42, 0
1, 133560, Note_on_c, 9, 42, 103
1, 133560, Note_on_c, 9, 42, 0
1, 133620, Note_on_c, 9, 42, 127
1, 133620, Note_on_c, 9, 42, 0
1, 133679, Note_on_c, 9, 36, 0
1, 133680, Note_on_c, 9, 38, 126
1, 133680, Note_on_c, 9, 42, 126
1, 133682, Note_on_c, 9, 42, 0
1, 133799, Note_on_c, 9, 38, 0
1, 133800, Note_on_c, 9, 42, 123
1, 133800, Note_on_c, 9, 42, 0
1, 133860, Note_on_c, 9, 42, 127
1, 133860, Note_on_c, 9, 42, 0
1, 133920, Note_on_c, 9, 36, 127
1, 134040, Note_on_c, 9, 42, 100
1, 134040, Note_on_c, 9, 42, 0
1, 134100, Note_on_c, 9, 42, 127
1, 134100, Note_on_c, 9, 42, 0
1, 134159, Note_on_c, 9, 36, 0
1, 134160, Note_on_c, 9, 38, 118
1, 134279, Note_on_c, 9, 38, 0
1, 134280, Note_on_c, 9, 42, 112
1, 134280, Note_on_c, 9, 42, 0
1, 134340, Note_on_c, 9, 42, 127
1, 134340, Note_on_c, 9, 42, 0
1, 134400, Note_on_c, 9, 36, 127
1, 134460, Note_on_c, 9, 42, 127
1, 134460, Note_on_c, 9, 42, 0
1, 134520, Note_on_c, 9, 42, 104
1, 134520, Note_on_c, 9, 42, 0
1, 134580, Note_on_c, 9, 42, 127
1, 134580, Note_on_c, 9, 42, 0
1, 134639, Note_on_c, 9, 36, 0
1, 134640, Note_on_c, 9, 38, 127
1, 134640, Note_on_c, 9, 42, 127
1, 134642, Note_on_c, 9, 42, 0
1, 134759, Note_on_c, 9, 38, 0
1, 134760, Note_on_c, 9, 42, 107
1, 134760, Note_on_c, 9, 42, 0
1, 134820, Note_on_c, 9, 42, 127
1, 134820, Note_on_c, 9, 42, 0
1, 134880, Note_on_c, 9, 36, 127
1, 135000, Note_on_c, 9, 42, 97
1, 135000, Note_on_c, 9, 42, 0
1, 135060, Note_on_c, 9, 42, 127
1, 135060, Note_on_c, 9, 42, 0
1, 135119, Note_on_c, 9, 36, 0
1, 135120, Note_on_c, 9, 38, 119
1, 135239, Note_on_c, 9, 38, 0
1, 135240, Note_on_c, 9, 42, 127
1, 135240, Note_on_c, 9, 42, 0
1, 135300, Note_on_c, 9, 42, 127
1, 135300, Note_on_c, 9, 42, 0
1, 135360, Note_on_c, 9, 36, 127
1, 135420, Note_on_c, 9, 42, 127
1, 135420, Note_on_c, 9, 42, 0
1, 135480, Note_on_c, 9, 42, 104
1, 135480, Note_on_c, 9, 42, 0
1, 135540, Note_on_c, 9, 42, 127
1, 135540, Note_on_c, 9, 42, 0
1, 135599, Note_on_c, 9, 36, 0
1, 135600, Note_on_c, 9, 38, 121
1, 135600, Note_on_c, 9, 42, 121
1, 135602, Note_on_c, 9, 42, 0
1, 135719, Note_on_c, 9, 38, 0
1, 135720, Note_on_c, 9, 42, 124
1, 135720, Note_on_c, 9, 42, 0
1, 135780, Note_on_c, 9, 42, 127
1, 135780, Note_on_c, 9, 42, 0
1, 135840, Note_on_c, 9, 36, 127
1, 135960, Note_on_c, 9, 42, 106
1, 135960, Note_on_c, 9, 42, 0
1, 136020, Note_on_c, 9, 42, 127
1, 136020, Note_on_c, 9, 42, 0
1, 136079, Note_on_c, 9, 36, 0
1, 136080, Note_on_c, 9, 38, 122
1, 136139, Note_on_c, 9, 38, 0
1, 136140, Note_on_c, 9, 38, 127
1, 136199, Note_on_c, 9, 38, 0
1, 136200, Note_on_c, 9, 38, 127
1, 136259, Note_on_c, 9, 38, 0
1, 136260, Note_on_c, 9, 38, 127
1, 136319, Note_on_c, 9, 38, 0
1, 136320, Note_on_c, 9, 42, 127
1, 136320, Note_on_c, 9, 49, 127
1, 136320, Note_on_c, 9, 36, 127
1, 136322, Note_on_c, 9, 42, 0
1, 136322, Note_on_c, 9, 49, 0
1, 136439, Note_on_c, 9, 36, 0
1, 136440, Note_on_c, 9, 42, 98
1, 136440, Note_on_c, 9, 36, 98
1, 136442, Note_on_c, 9, 42, 0
1, 136559, Note_on_c, 9, 36, 0
1, 136560, Note_on_c, 9, 38, 115
1, 136560, Note_on_c, 9, 42, 115
1, 136562, Note_on_c, 9, 42, 0
1, 136679, Note_on_c, 9, 38, 0
1, 136680, Note_on_c, 9, 42, 114
1, 136682, Note_on_c, 9, 42, 0
1, 136800, Note_on_c, 9, 42, 127
1, 136800, Note_on_c, 9, 36, 127
1, 136802, Note_on_c, 9, 42, 0
1, 136920, Note_on_c, 9, 42, 97
1, 136922, Note_on_c, 9, 42, 0
1, 137039, Note_on_c, 9, 36, 0
1, 137040, Note_on_c, 9, 38, 127
1, 137040, Note_on_c, 9, 42, 127
1, 137042, Note_on_c, 9, 42, 0
1, 137159, Note_on_c, 9, 38, 0
1, 137160, Note_on_c, 9, 42, 127
1, 137162, Note_on_c, 9, 42, 0
1, 137280, Note_on_c, 9, 42, 127
1, 137280, Note_on_c, 9, 36, 127
1, 137282, Note_on_c, 9, 42, 0
1, 137400, Note_on_c, 9, 42, 103
1, 137402, Note_on_c, 9, 42, 0
1, 137519, Note_on_c, 9, 36, 0
1, 137520, Note_on_c, 9, 38, 126
1, 137520, Note_on_c, 9, 42, 126
1, 137522, Note_on_c, 9, 42, 0
1, 137639, Note_on_c, 9, 38, 0
1, 137640, Note_on_c, 9, 42, 123
1, 137642, Note_on_c, 9, 42, 0
1, 137760, Note_on_c, 9, 42, 127
1, 137760, Note_on_c, 9, 36, 127
1, 137762, Note_on_c, 9, 42, 0
1, 137880, Note_on_c, 9, 42, 100
1, 137882, Note_on_c, 9, 42, 0
1, 137999, Note_on_c, 9, 36, 0
1, 138000, Note_on_c, 9, 38, 118
1, 138000, Note_on_c, 9, 42, 118
1, 138002, Note_on_c, 9, 42, 0
1, 138119, Note_on_c, 9, 38, 0
1, 138120, Note_on_c, 9, 42, 112
1, 138122, Note_on_c, 9, 42, 0
1, 138240, Note_on_c, 9, 42, 127
1, 138240, Note_on_c, 9, 49, 127
1, 138240, Note_on_c, 9, 36, 127
1, 138242, Note_on_c, 9, 42, 0
1, 138242, Note_on_c, 9, 49, 0
1, 138360, Note_on_c, 9, 42, 104
1, 138362, Note_on_c, 9, 42, 0
1, 138479, Note_on_c, 9, 36, 0
1, 138480, Note_on_c, 9, 38, 127
1, 138480, Note_on_c, 9, 42, 127
1, 138482, Note_on_c, 9, 42, 0
1, 138599, Note_on_c, 9, 38, 0
1, 138600, Note_on_c, 9, 42, 107
1, 138602, Note_on_c, 9, 42, 0
1, 138720, Note_on_c, 9, 42, 127
1, 138720, Note_on_c, 9, 36, 127
1, 138722, Note_on_c, 9, 42, 0
1, 138840, Note_on_c, 9, 42, 97
1, 138842, Note_on_c, 9, 42, 0
1, 138959, Note_on_c, 9, 36, 0
1, 138960, Note_on_c, 9, 38, 119
1, 138960, Note_on_c, 9, 42, 119
1, 138962, Note_on_c, 9, 42, 0
1, 139079, Note_on_c, 9, 38, 0
1, 139080, Note_on_c, 9, 42, 127
1, 139082, Note_on_c, 9, 42, 0
1, 139200, Note_on_c, 9, 42, 127
1, 139200, Note_on_c, 9, 36, 127
1, 139202, Note_on_c, 9, 42, 0
1, 139320, Note_on_c, 9, 42, 104
1, 139322, Note_on_c, 9, 42, 0
1, 139439, Note_on_c, 9, 36, 0
1, 139440, Note_on_c, 9, 38, 121
1, 139440, Note_on_c, 9, 42, 121
1, 139442, Note_on_c, 9, 42, 0
1, 139559, Note_on_c, 9, 38, 0
1, 139560, Note_on_c, 9, 42, 124
1, 139562, Note_on_c, 9, 42, 0
1, 139680, Note_on_c, 9, 42, 127
1, 139680, Note_on_c, 9, 36, 127
1, 139682, Note_on_c, 9, 42, 0
1, 139800, Note_on_c, 9, 42, 106
1, 139802, Note_on_c, 9, 42, 0
1, 139919, Note_on_c, 9, 36, 0
1, 139920, Note_on_c, 9, 38, 122
1, 139920, Note_on_c, 9, 42, 122
1, 139922, Note_on_c, 9, 42, 0
1, 140039, Note_on_c, 9, 38, 0
1, 140040, Note_on_c, 9, 42, 127
1, 140042, Note_on_c, 9, 42, 0
1, 140160, Note_on_c, 9, 42, 127
1, 140160, Note_on_c, 9, 36, 127
1, 140162, Note_on_c, 9, 42, 0
1, 140280, Note_on_c, 9, 42, 98
1, 140282, Note_on_c, 9, 42, 0
1, 140399, Note_on_c, 9, 36, 0
1, 140400, Note_on_c, 9, 38, 115
1, 140400, Note_on_c, 9, 42, 115
1, 140402, Note_on_c, 9, 42, 0
1, 140519, Note_on_c, 9, 38, 0
1, 140520, Note_on_c, 9, 42, 114
1, 140522, Note_on_c, 9, 42, 0
1, 140640, Note_on_c, 9, 42, 127
1, 140640, Note_on_c, 9, 36, 127
1, 140642, Note_on_c, 9, 42, 0
1, 140760, Note_on_c, 9, 42, 97
1, 140762, Note_on_c, 9, 42, 0
1, 140879, Note_on_c, 9, 36, 0
1, 140880, Note_on_c, 9, 38, 127
1, 140880, Note_on_c, 9, 42, 127
1, 140882, Note_on_c, 9, 42, 0
1, 140999, Note_on_c, 9, 38, 0
1, 141000, Note_on_c, 9, 42, 127
1, 141002, Note_on_c, 9, 42, 0
1, 141120, Note_on_c, 9, 42, 127
1, 141120, Note_on_c, 9, 36, 127
1, 141122, Note_on_c, 9, 42, 0
1, 141240, Note_on_c, 9, 42, 103
1, 141242, Note_on_c, 9, 42, 0
1, 141359, Note_on_c, 9, 36, 0
1, 141360, Note_on_c, 9, 38, 126
1, 141360, Note_on_c, 9, 42, 126
1, 141362, Note_on_c, 9, 42, 0
1, 141479, Note_on_c, 9, 38, 0
1, 141480, Note_on_c, 9, 42, 123
1, 141482, Note_on_c, 9, 42, 0
1, 141600, Note_on_c, 9, 42, 127
1, 141600, Note_on_c, 9, 36, 127
1, 141602, Note_on_c, 9, 42, 0
1, 141720, Note_on_c, 9, 42, 100
1, 141722, Note_on_c, 9, 42, 0
1, 141839, Note_on_c, 9, 36, 0
1, 141840, Note_on_c, 9, 38, 118
1, 141840, Note_on_c, 9, 42, 118
1, 141842, Note_on_c, 9, 42, 0
1, 141959, Note_on_c, 9, 38, 0
1, 141960, Note_on_c, 9, 42, 112
1, 141962, Note_on_c, 9, 42, 0
1, 142080, Note_on_c, 9, 38, 127
1, 142080, Note_on_c, 9, 42, 127
1, 142080, Note_on_c, 9, 49, 127
1, 142082, Note_on_c, 9, 42, 0
1, 142082, Note_on_c, 9, 49, 0
1, 142140, Note_on_c, 9, 36, 127
1, 142199, Note_on_c, 9, 38, 0
1, 142200, Note_on_c, 9, 38, 104
1, 142200, Note_on_c, 9, 42, 104
1, 142202, Note_on_c, 9, 42, 0
1, 142259, Note_on_c, 9, 36, 0
1, 142260, Note_on_c, 9, 36, 127
1, 142319, Note_on_c, 9, 38, 0
1, 142319, Note_on_c, 9, 36, 0
1, 142320, Note_on_c, 9, 38, 127
1, 142320, Note_on_c, 9, 42, 127
1, 142322, Note_on_c, 9, 42, 0
1, 142380, Note_on_c, 9, 36, 127
1, 142439, Note_on_c, 9, 38, 0
1, 142440, Note_on_c, 9, 38, 107
1, 142440, Note_on_c, 9, 42, 107
1, 142442, Note_on_c, 9, 42, 0
1, 142499, Note_on_c, 9, 36, 0
1, 142500, Note_on_c, 9, 36, 127
1, 142559, Note_on_c, 9, 38, 0
1, 142559, Note_on_c, 9, 36, 0
1, 142560, Note_on_c, 9, 38, 127
1, 142560, Note_on_c, 9, 42, 127
1, 142562, Note_on_c, 9, 42, 0
1, 142620, Note_on_c, 9, 36, 127
1, 142679, Note_on_c, 9, 38, 0
1, 142680, Note_on_c, 9, 38, 97
1, 142680, Note_on_c, 9, 42, 97
1, 142682, Note_on_c, 9, 42, 0
1, 142739, Note_on_c, 9, 36, 0
1, 142740, Note_on_c, 9, 36, 127
1, 142799, Note_on_c, 9, 38, 0
1, 142799, Note_on_c, 9, 36, 0
1, 142800, Note_on_c, 9, 38, 119
1, 142800, Note_on_c, 9, 42, 119
1, 142802, Note_on_c, 9, 42, 0
1, 142860, Note_on_c, 9, 36, 127
1, 142919, Note_on_c, 9, 38, 0
1, 142920, Note_on_c, 9, 38, 127
1, 142920, Note_on_c, 9, 42, 127
1, 142922, Note_on_c, 9, 42, 0
1, 142979, Note_on_c, 9, 36, 0
1, 142980, Note_on_c, 9, 36, 127
1, 143039, Note_on_c, 9, 38, 0
1, 143039, Note_on_c, 9, 36, 0
1, 143040, Note_on_c, 9, 38, 127
1, 143040, Note_on_c, 9, 42, 127
1, 143040, Note_on_c, 9, 36, 127
1, 143040, Note_on_c, 9, 43, 127
1, 143042, Note_on_c, 9, 42, 0
1, 143099, Note_on_c, 9, 36, 0
1, 143099, Note_on_c, 9, 43, 0
1, 143100, Note_on_c, 9, 43, 127
1, 143159, Note_on_c, 9, 38, 0
1, 143159, Note_on_c, 9, 43, 0
1, 143160, Note_on_c, 9, 41, 104
1, 143160, Note_on_c, 9, 42, 104
1, 143160, Note_on_c, 9, 42, 0
1, 143160, Note_on_c, 9, 36, 104
1, 143219, Note_on_c, 9, 41, 0
1, 143220, Note_on_c, 9, 38, 127
1, 143279, Note_on_c, 9, 36, 0
1, 143279, Note_on_c, 9, 38, 0
1, 143280, Note_on_c, 9, 38, 121
1, 143280, Note_on_c, 9, 42, 121
1, 143280, Note_on_c, 9, 42, 0
1, 143339, Note_on_c, 9, 38, 0
1, 143340, Note_on_c, 9, 38, 127
1, 143399, Note_on_c, 9, 38, 0
1, 143400, Note_on_c, 9, 38, 124
1, 143400, Note_on_c, 9, 42, 124
1, 143400, Note_on_c, 9, 42, 0
1, 143400, Note_on_c, 9, 36, 124
1, 143400, Note_on_c, 9, 43, 124
1, 143459, Note_on_c, 9, 38, 0
1, 143460, Note_on_c, 9, 41, 127
1, 143460, Note_on_c, 9, 38, 127
1, 143519, Note_on_c, 9, 36, 0
1, 143519, Note_on_c, 9, 43, 0
1, 143519, Note_on_c, 9, 41, 0
1, 143519, Note_on_c, 9, 38, 0
1, 143520, Note_on_c, 9, 38, 127
1, 143520, Note_on_c, 9, 42, 127
1, 143520, Note_on_c, 9, 42, 0
1, 143520, Note_on_c, 9, 36, 127
1, 143579, Note_on_c, 9, 38, 0
1, 143580, Note_on_c, 9, 41, 127
1, 143580, Note_on_c, 9, 38, 127
1, 143639, Note_on_c, 9, 36, 0
1, 143639, Note_on_c, 9, 41, 0
1, 143639, Note_on_c, 9, 38, 0
1, 143640, Note_on_c, 9, 42, 106
1, 143640, Note_on_c, 9, 42, 0
1, 143640, Note_on_c, 9, 36, 106
1, 143640, Note_on_c, 9, 43, 106
1, 143700, Note_on_c, 9, 41, 127
1, 143700, Note_on_c, 9, 38, 127
1, 143759, Note_on_c, 9, 36, 0
1, 143759, Note_on_c, 9, 43, 0
1, 143759, Note_on_c, 9, 41, 0
1, 143759, Note_on_c, 9, 38, 0
1, 143760, Note_on_c, 9, 38, 122
1, 143760, Note_on_c, 9, 42, 122
1, 143760, Note_on_c, 9, 42, 0
1, 143819, Note_on_c, 9, 38, 0
1, 143820, Note_on_c, 9, 38, 127
1, 143879, Note_on_c, 9, 38, 0
1, 143880, Note_on_c, 9, 42, 127
1, 143880, Note_on_c, 9, 36, 127
1, 143882, Note_on_c, 9, 42, 0
1, 143999, Note_on_c, 9, 36, 0
1, 144000, Note_on_c, 9, 42, 127
1, 144000, Note_on_c, 9, 49, 127
1, 144000, Note_on_c, 9, 36, 127
1, 144002, Note_on_c, 9, 42, 0
1, 144002, Note_on_c, 9, 49, 0
1, 144120, Note_on_c, 9, 42, 98
1, 144122, Note_on_c, 9, 42, 0
1, 144239, Note_on_c, 9, 36, 0
1, 144240, Note_on_c, 9, 38, 115
1, 144240, Note_on_c, 9, 42, 115
1, 144242, Note_on_c, 9, 42, 0
1, 144359, Note_on_c, 9, 38, 0
1, 144360, Note_on_c, 9, 42, 114
1, 144362, Note_on_c, 9, 42, 0
1, 144480, Note_on_c, 9, 42, 127
1, 144480, Note_on_c, 9, 36, 127
1, 144482, Note_on_c, 9, 42, 0
1, 144600, Note_on_c, 9, 42, 97
1, 144602, Note_on_c, 9, 42, 0
1, 144719, Note_on_c, 9, 36, 0
1, 144720, Note_on_c, 9, 38, 127
1, 144720, Note_on_c, 9, 42, 127
1, 144722, Note_on_c, 9, 42, 0
1, 144839, Note_on_c, 9, 38, 0
1, 144840, Note_on_c, 9, 42, 127
1, 144842, Note_on_c, 9, 42, 0
1, 144960, Note_on_c, 9, 42, 127
1, 144960, Note_on_c, 9, 36, 127
1, 144962, Note_on_c, 9, 42, 0
1, 145080, Note_on_c, 9, 42, 103
1, 145082, Note_on_c, 9, 42, 0
1, 145199, Note_on_c, 9, 36, 0
1, 145200, Note_on_c, 9, 38, 126
1, 145200, Note_on_c, 9, 42, 126
1, 145202, Note_on_c, 9, 42, 0
1, 145319, Note_on_c, 9, 38, 0
1, 145320, Note_on_c, 9, 42, 123
1, 145322, Note_on_c, 9, 42, 0
1, 145440, Note_on_c, 9, 42, 127
1, 145440, Note_on_c, 9, 36, 127
1, 145442, Note_on_c, 9, 42, 0
1, 145560, Note_on_c, 9, 42, 100
1, 145562, Note_on_c, 9, 42, 0
1, 145679, Note_on_c, 9, 36, 0
1, 145680, Note_on_c, 9, 38, 118
1, 145680, Note_on_c, 9, 42, 118
1, 145682, Note_on_c, 9, 42, 0
1, 145799, Note_on_c, 9, 38, 0
1, 145800, Note_on_c, 9, 42, 112
1, 145802, Note_on_c, 9, 42, 0
1, 145920, Note_on_c, 9, 42, 127
1, 145920, Note_on_c, 9, 36, 127
1, 145922, Note_on_c, 9, 42, 0
1, 146040, Note_on_c, 9, 42, 104
1, 146042, Note_on_c, 9, 42, 0
1, 146159, Note_on_c, 9, 36, 0
1, 146160, Note_on_c, 9, 38, 127
1, 146160, Note_on_c, 9, 42, 127
1, 146162, Note_on_c, 9, 42, 0
1, 146279, Note_on_c, 9, 38, 0
1, 146280, Note_on_c, 9, 42, 107
1, 146282, Note_on_c, 9, 42, 0
1, 146400, Note_on_c, 9, 42, 127
1, 146400, Note_on_c, 9, 36, 127
1, 146402, Note_on_c, 9, 42, 0
1, 146520, Note_on_c, 9, 42, 97
1, 146522, Note_on_c, 9, 42, 0
1, 146639, Note_on_c, 9, 36, 0
1, 146640, Note_on_c, 9, 38, 119
1, 146640, Note_on_c, 9, 42, 119
1, 146642, Note_on_c, 9, 42, 0
1, 146759, Note_on_c, 9, 38, 0
1, 146760, Note_on_c, 9, 42, 127
1, 146762, Note_on_c, 9, 42, 0
1, 146880, Note_on_c, 9, 42, 127
1, 146880, Note_on_c, 9, 36, 127
1, 146882, Note_on_c, 9, 42, 0
1, 147000, Note_on_c, 9, 42, 104
1, 147002, Note_on_c, 9, 42, 0
1, 147119, Note_on_c, 9, 36, 0
1, 147120, Note_on_c, 9, 38, 121
1, 147120, Note_on_c, 9, 42, 121
1, 147122, Note_on_c, 9, 42, 0
1, 147239, Note_on_c, 9, 38, 0
1, 147240, Note_on_c, 9, 42, 124
1, 147242, Note_on_c, 9, 42, 0
1, 147360, Note_on_c, 9, 42, 127
1, 147360, Note_on_c, 9, 36, 127
1, 147362, Note_on_c, 9, 42, 0
1, 147480, Note_on_c, 9, 42, 106
1, 147482, Note_on_c, 9, 42, 0
1, 147599, Note_on_c, 9, 36, 0
1, 147600, Note_on_c, 9, 38, 122
1, 147600, Note_on_c, 9, 42, 122
1, 147602, Note_on_c, 9, 42, 0
1, 147719, Note_on_c, 9, 38, 0
1, 147720, Note_on_c, 9, 42, 127
1, 147722, Note_on_c, 9, 42, 0
1, 147840, Note_on_c, 9, 42, 127
1, 147840, Note_on_c, 9, 36, 127
1, 147842, Note_on_c, 9, 42, 0
1, 147960, Note_on_c, 9, 42, 98
1, 147962, Note_on_c, 9, 42, 0
1, 148079, Note_on_c, 9, 36, 0
1, 148080, Note_on_c, 9, 38, 115
1, 148080, Note_on_c, 9, 42, 115
1, 148082, Note_on_c, 9, 42, 0
1, 148199, Note_on_c, 9, 38, 0
1, 148200, Note_on_c, 9, 42, 114
1, 148202, Note_on_c, 9, 42, 0
1, 148320, Note_on_c, 9, 42, 127
1, 148320, Note_on_c, 9, 36, 127
1, 148322, Note_on_c, 9, 42, 0
1, 148440, Note_on_c, 9, 42, 97
1, 148442, Note_on_c, 9, 42, 0
1, 148559, Note_on_c, 9, 36, 0
1, 148560, Note_on_c, 9, 38, 127
1, 148560, Note_on_c, 9, 42, 127
1, 148562, Note_on_c, 9, 42, 0
1, 148679, Note_on_c, 9, 38, 0
1, 148680, Note_on_c, 9, 42, 127
1, 148682, Note_on_c, 9, 42, 0
1, 148800, Note_on_c, 9, 42, 127
1, 148800, Note_on_c, 9, 36, 127
1, 148802, Note_on_c, 9, 42, 0
1, 148920, Note_on_c, 9, 42, 103
1, 148922, Note_on_c, 9, 42, 0
1, 149039, Note_on_c, 9, 36, 0
1, 149040, Note_on_c, 9, 38, 126
1, 149040, Note_on_c, 9, 42, 126
1, 149042, Note_on_c, 9, 42, 0
1, 149159, Note_on_c, 9, 38, 0
1, 149160, Note_on_c, 9, 42, 123
1, 149162, Note_on_c, 9, 42, 0
1, 149280, Note_on_c, 9, 42, 127
1, 149280, Note_on_c, 9, 36, 127
1, 149282, Note_on_c, 9, 42, 0
1, 149400, Note_on_c, 9, 42, 100
1, 149402, Note_on_c, 9, 42, 0
1, 149519, Note_on_c, 9, 36, 0
1, 149520, Note_on_c, 9, 38, 118
1, 149520, Note_on_c, 9, 42, 118
1, 149522, Note_on_c, 9, 42, 0
1, 149639, Note_on_c, 9, 38, 0
1, 149640, Note_on_c, 9, 42, 112
1, 149642, Note_on_c, 9, 42, 0
1, 149760, Note_on_c, 9, 45, 127
1, 149760, Note_on_c, 9, 36, 127
1, 149819, Note_on_c, 9, 45, 0
1, 149820, Note_on_c, 9, 45, 127
1, 149879, Note_on_c, 9, 36, 0
1, 149879, Note_on_c, 9, 45, 0
1, 149880, Note_on_c, 9, 45, 104
1, 149880, Note_on_c, 9, 43, 104
1, 149999, Note_on_c, 9, 45, 0
1, 149999, Note_on_c, 9, 43, 0
1, 150000, Note_on_c, 9, 45, 127
1, 150000, Note_on_c, 9, 42, 127
1, 150000, Note_on_c, 9, 42, 0
1, 150000, Note_on_c, 9, 36, 127
1, 150059, Note_on_c, 9, 45, 0
1, 150060, Note_on_c, 9, 45, 127
1, 150119, Note_on_c, 9, 45, 0
1, 150120, Note_on_c, 9, 41, 107
1, 150239, Note_on_c, 9, 36, 0
1, 150239, Note_on_c, 9, 41, 0
1, 150240, Note_on_c, 9, 45, 127
1, 150240, Note_on_c, 9, 36, 127
1, 150299, Note_on_c, 9, 45, 0
1, 150300, Note_on_c, 9, 45, 127
1, 150359, Note_on_c, 9, 36, 0
1, 150360, Note_on_c, 9, 43, 97
1, 150479, Note_on_c, 9, 45, 0
1, 150479, Note_on_c, 9, 43, 0
1, 150480, Note_on_c, 9, 45, 119
1, 150480, Note_on_c, 9, 42, 119
1, 150480, Note_on_c, 9, 42, 0
1, 150480, Note_on_c, 9, 36, 119
1, 150539, Note_on_c, 9, 45, 0
1, 150540, Note_on_c, 9, 45, 127
1, 150599, Note_on_c, 9, 36, 0
1, 150600, Note_on_c, 9, 43, 127
1, 150719, Note_on_c, 9, 45, 0
1, 150719, Note_on_c, 9, 43, 0
1, 150720, Note_on_c, 9, 45, 127
1, 150720, Note_on_c, 9, 36, 127
1, 150779, Note_on_c, 9, 45, 0
1, 150780, Note_on_c, 9, 45, 127
1, 150839, Note_on_c, 9, 36, 0
1, 150839, Note_on_c, 9, 45, 0
1, 150840, Note_on_c, 9, 45, 104
1, 150840, Note_on_c, 9, 43, 104
1, 150959, Note_on_c, 9, 45, 0
1, 150959, Note_on_c, 9, 43, 0
1, 150960, Note_on_c, 9, 45, 121
1, 150960, Note_on_c, 9, 42, 121
1, 150960, Note_on_c, 9, 42, 0
1, 150960, Note_on_c, 9, 36, 121
1, 151019, Note_on_c, 9, 45, 0
1, 151020, Note_on_c, 9, 45, 127
1, 151079, Note_on_c, 9, 36, 0
1, 151080, Note_on_c, 9, 43, 124
1, 151199, Note_on_c, 9, 45, 0
1, 151199, Note_on_c, 9, 43, 0
1, 151200, Note_on_c, 9, 45, 127
1, 151200, Note_on_c, 9, 36, 127
1, 151259, Note_on_c, 9, 45, 0
1, 151260, Note_on_c, 9, 45, 127
1, 151319, Note_on_c, 9, 36, 0
1, 151319, Note_on_c, 9, 45, 0
1, 151320, Note_on_c, 9, 45, 106
1, 151320, Note_on_c, 9, 43, 106
1, 151439, Note_on_c, 9, 45, 0
1, 151439, Note_on_c, 9, 43, 0
1, 151440, Note_on_c, 9, 45, 122
1, 151440, Note_on_c, 9, 42, 122
1, 151440, Note_on_c, 9, 42, 0
1, 151440, Note_on_c, 9, 36, 122
1, 151499, Note_on_c, 9, 45, 0
1, 151500, Note_on_c, 9, 45, 127
1, 151559, Note_on_c, 9, 36, 0
1, 151560, Note_on_c, 9, 43, 127
1, 151679, Note_on_c, 9, 45, 0
1, 151679, Note_on_c, 9, 43, 0
1, 151680, Note_on_c, 9, 45, 127
1, 151680, Note_on_c, 9, 36, 127
1, 151739, Note_on_c, 9, 45, 0
1, 151740, Note_on_c, 9, 45, 127
1, 151799, Note_on_c, 9, 36, 0
1, 151799, Note_on_c, 9, 45, 0
1, 151800, Note_on_c, 9, 45, 98
1, 151800, Note_on_c, 9, 43, 98
1, 151919, Note_on_c, 9, 45, 0
1, 151919, Note_on_c, 9, 43, 0
1, 151920, Note_on_c, 9, 45, 115
1, 151920, Note_on_c, 9, 42, 115
1, 151920, Note_on_c, 9, 42, 0
1, 151920, Note_on_c, 9, 36, 115
1, 151979, Note_on_c, 9, 45, 0
1, 151980, Note_on_c, 9, 45, 127
1, 152039, Note_on_c, 9, 36, 0
1, 152040, Note_on_c, 9, 43, 114
1, 152159, Note_on_c, 9, 45, 0
1, 152159, Note_on_c, 9, 43, 0
1, 152160, Note_on_c, 9, 45, 127
1, 152160, Note_on_c, 9, 36, 127
1, 152219, Note_on_c, 9, 45, 0
1, 152220, Note_on_c, 9, 45, 127
1, 152279, Note_on_c, 9, 36, 0
1, 152280, Note_on_c, 9, 43, 97
1, 152399, Note_on_c, 9, 45, 0
1, 152399, Note_on_c, 9, 43, 0
1, 152400, Note_on_c, 9, 45, 127
1, 152400, Note_on_c, 9, 42, 127
1, 152400, Note_on_c, 9, 42, 0
1, 152400, Note_on_c, 9, 36, 127
1, 152459, Note_on_c, 9, 45, 0
1, 152460, Note_on_c, 9, 45, 127
1, 152519, Note_on_c, 9, 36, 0
1, 152520, Note_on_c, 9, 43, 127
1, 152639, Note_on_c, 9, 45, 0
1, 152639, Note_on_c, 9, 43, 0
1, 152640, Note_on_c, 9, 45, 127
1, 152640, Note_on_c, 9, 36, 127
1, 152699, Note_on_c, 9, 45, 0
1, 152700, Note_on_c, 9, 45, 127
1, 152759, Note_on_c, 9, 36, 0
1, 152759, Note_on_c, 9, 45, 0
1, 152760, Note_on_c, 9, 45, 103
1, 152760, Note_on_c, 9, 43, 103
1, 152879, Note_on_c, 9, 45, 0
1, 152879, Note_on_c, 9, 43, 0
1, 152880, Note_on_c, 9, 45, 126
1, 152880, Note_on_c, 9, 42, 126
1, 152880, Note_on_c, 9, 42, 0
1, 152880, Note_on_c, 9, 36, 126
1, 152939, Note_on_c, 9, 45, 0
1, 152940, Note_on_c, 9, 45, 127
1, 152999, Note_on_c, 9, 36, 0
1, 153000, Note_on_c, 9, 43, 123
1, 153119, Note_on_c, 9, 45, 0
1, 153119, Note_on_c, 9, 43, 0
1, 153120, Note_on_c, 9, 45, 127
1, 153120, Note_on_c, 9, 36, 127
1, 153179, Note_on_c, 9, 45, 0
1, 153180, Note_on_c, 9, 45, 127
1, 153239, Note_on_c, 9, 36, 0
1, 153239, Note_on_c, 9, 45, 0
1, 153240, Note_on_c, 9, 45, 100
1, 153240, Note_on_c, 9, 43, 100
1, 153359, Note_on_c, 9, 45, 0
1, 153359, Note_on_c, 9, 43, 0
1, 153360, Note_on_c, 9, 45, 118
1, 153360, Note_on_c, 9, 42, 118
1, 153360, Note_on_c, 9, 42, 0
1, 153360, Note_on_c, 9, 36, 118
1, 153419, Note_on_c, 9, 45, 0
1, 153420, Note_on_c, 9, 45, 127
1, 153479, Note_on_c, 9, 36, 0
1, 153480, Note_on_c, 9, 43, 112
1, 153599, Note_on_c, 9, 45, 0
1, 153599, Note_on_c, 9, 43, 0
1, 153600, Note_on_c, 9, 45, 127
1, 153600, Note_on_c, 9, 36, 127
1, 153659, Note_on_c, 9, 45, 0
1, 153660, Note_on_c, 9, 45, 127
1, 153719, Note_on_c, 9, 36, 0
1, 153719, Note_on_c, 9, 45, 0
1, 153720, Note_on_c, 9, 45, 104
1, 153720, Note_on_c, 9, 43, 104
1, 153839, Note_on_c, 9, 45, 0
1, 153839, Note_on_c, 9, 43, 0
1, 153840, Note_on_c, 9, 45, 127
1, 153840, Note_on_c, 9, 42, 127
1, 153840, Note_on_c, 9, 42, 0
1, 153840, Note_on_c, 9, 36, 127
1, 153899, Note_on_c, 9, 45, 0
1, 153900, Note_on_c, 9, 45, 127
1, 153959, Note_on_c, 9, 45, 0
1, 153960, Note_on_c, 9, 41, 107
1, 154079, Note_on_c, 9, 36, 0
1, 154079, Note_on_c, 9, 41, 0
1, 154080, Note_on_c, 9, 45, 127
1, 154080, Note_on_c, 9, 36, 127
1, 154139, Note_on_c, 9, 45, 0
1, 154140, Note_on_c, 9, 45, 127
1, 154199, Note_on_c, 9, 36, 0
1, 154200, Note_on_c, 9, 43, 97
1, 154319, Note_on_c, 9, 45, 0
1, 154319, Note_on_c, 9, 43, 0
1, 154320, Note_on_c, 9, 45, 119
1, 154320, Note_on_c, 9, 42, 119
1, 154320, Note_on_c, 9, 42, 0
1, 154320, Note_on_c, 9, 36, 119
1, 154379, Note_on_c, 9, 45, 0
1, 154380, Note_on_c, 9, 45, 127
1, 154439, Note_on_c, 9, 36, 0
1, 154440, Note_on_c, 9, 43, 127
1, 154559, Note_on_c, 9, 45, 0
1, 154559, Note_on_c, 9, 43, 0
1, 154560, Note_on_c, 9, 45, 127
1, 154560, Note_on_c, 9, 36, 127
1, 154619, Note_on_c, 9, 45, 0
1, 154620, Note_on_c, 9, 45, 127
1, 154679, Note_on_c, 9, 36, 0
1, 154679, Note_on_c, 9, 45, 0
1, 154680, Note_on_c, 9, 45, 104
1, 154680, Note_on_c, 9, 43, 104
1, 154799, Note_on_c, 9, 45, 0
1, 154799, Note_on_c, 9, 43, 0
1, 154800, Note_on_c, 9, 45, 121
1, 154800, Note_on_c, 9, 42, 121
1, 154800, Note_on_c, 9, 42, 0
1, 154800, Note_on_c, 9, 36, 121
1, 154859, Note_on_c, 9, 45, 0
1, 154860, Note_on_c, 9, 45, 127
1, 154919, Note_on_c, 9, 36, 0
1, 154920, Note_on_c, 9, 43, 124
1, 155039, Note_on_c, 9, 45, 0
1, 155039, Note_on_c, 9, 43, 0
1, 155040, Note_on_c, 9, 45, 127
1, 155040, Note_on_c, 9, 36, 127
1, 155099, Note_on_c, 9, 45, 0
1, 155100, Note_on_c, 9, 45, 127
1, 155159, Note_on_c, 9, 36, 0
1, 155159, Note_on_c, 9, 45, 0
1, 155160, Note_on_c, 9, 45, 106
1, 155160, Note_on_c, 9, 43, 106
1, 155279, Note_on_c, 9, 45, 0
1, 155279, Note_on_c, 9, 43, 0
1, 155280, Note_on_c, 9, 45, 122
1, 155280, Note_on_c, 9, 42, 122
1, 155280, Note_on_c, 9, 42, 0
1, 155280, Note_on_c, 9, 36, 122
1, 155339, Note_on_c, 9, 45, 0
1, 155340, Note_on_c, 9, 45, 127
1, 155399, Note_on_c, 9, 36, 0
1, 155400, Note_on_c, 9, 43, 127
1, 155519, Note_on_c, 9, 45, 0
1, 155519, Note_on_c, 9, 43, 0
1, 155520, Note_on_c, 9, 45, 127
1, 155520, Note_on_c, 9, 36, 127
1, 155579, Note_on_c, 9, 45, 0
1, 155580, Note_on_c, 9, 45, 127
1, 155639, Note_on_c, 9, 36, 0
1, 155639, Note_on_c, 9, 45, 0
1, 155640, Note_on_c, 9, 45, 98
1, 155640, Note_on_c, 9, 43, 98
1, 155759, Note_on_c, 9, 45, 0
1, 155759, Note_on_c, 9, 43, 0
1, 155760, Note_on_c, 9, 45, 115
1, 155760, Note_on_c, 9, 42, 115
1, 155760, Note_on_c, 9, 42, 0
1, 155760, Note_on_c, 9, 36, 115
1, 155819, Note_on_c, 9, 45, 0
1, 155820, Note_on_c, 9, 45, 127
1, 155879, Note_on_c, 9, 36, 0
1, 155880, Note_on_c, 9, 43, 114
1, 155999, Note_on_c, 9, 45, 0
1, 155999, Note_on_c, 9, 43, 0
1, 156000, Note_on_c, 9, 45, 127
1, 156000, Note_on_c, 9, 36, 127
1, 156059, Note_on_c, 9, 45, 0
1, 156060, Note_on_c, 9, 45, 127
1, 156119, Note_on_c, 9, 36, 0
1, 156120, Note_on_c, 9, 43, 97
1, 156239, Note_on_c, 9, 45, 0
1, 156239, Note_on_c, 9, 43, 0
1, 156240, Note_on_c, 9, 45, 127
1, 156240, Note_on_c, 9, 42, 127
1, 156240, Note_on_c, 9, 42, 0
1, 156240, Note_on_c, 9, 36, 127
1, 156299, Note_on_c, 9, 45, 0
1, 156300, Note_on_c, 9, 45, 127
1, 156359, Note_on_c, 9, 36, 0
1, 156360, Note_on_c, 9, 43, 127
1, 156479, Note_on_c, 9, 45, 0
1, 156479, Note_on_c, 9, 43, 0
1, 156480, Note_on_c, 9, 45, 127
1, 156480, Note_on_c, 9, 36, 127
1, 156539, Note_on_c, 9, 45, 0
1, 156540, Note_on_c, 9, 45, 127
1, 156599, Note_on_c, 9, 36, 0
1, 156599, Note_on_c, 9, 45, 0
1, 156600, Note_on_c, 9, 45, 103
1, 156600, Note_on_c, 9, 43, 103
1, 156719, Note_on_c, 9, 45, 0
1, 156719, Note_on_c, 9, 43, 0
1, 156720, Note_on_c, 9, 45, 126
1, 156720, Note_on_c, 9, 42, 126
1, 156720, Note_on_c, 9, 42, 0
1, 156720, Note_on_c, 9, 36, 126
1, 156779, Note_on_c, 9, 45, 0
1, 156780, Note_on_c, 9, 45, 127
1, 156839, Note_on_c, 9, 36, 0
1, 156840, Note_on_c, 9, 43, 123
1, 156959, Note_on_c, 9, 45, 0
1, 156959, Note_on_c, 9, 43, 0
1, 156960, Note_on_c, 9, 45, 127
1, 156960, Note_on_c, 9, 36, 127
1, 157019, Note_on_c, 9, 45, 0
1, 157020, Note_on_c, 9, 45, 127
1, 157079, Note_on_c, 9, 36, 0
1, 157080, Note_on_c, 9, 43, 100
1, 157199, Note_on_c, 9, 45, 0
1, 157199, Note_on_c, 9, 43, 0
1, 157200, Note_on_c, 9, 45, 118
1, 157200, Note_on_c, 9, 42, 118
1, 157200, Note_on_c, 9, 42, 0
1, 157200, Note_on_c, 9, 36, 118
1, 157259, Note_on_c, 9, 45, 0
1, 157260, Note_on_c, 9, 45, 127
1, 157319, Note_on_c, 9, 36, 0
1, 157320, Note_on_c, 9, 43, 112
1, 157439, Note_on_c, 9, 45, 0
1, 157439, Note_on_c, 9, 43, 0
1, 157440, Note_on_c, 9, 45, 127
1, 157440, Note_on_c, 9, 36, 127
1, 157499, Note_on_c, 9, 45, 0
1, 157500, Note_on_c, 9, 45, 127
1, 157559, Note_on_c, 9, 36, 0
1, 157559, Note_on_c, 9, 45, 0
1, 157560, Note_on_c, 9, 45, 104
1, 157560, Note_on_c, 9, 43, 104
1, 157679, Note_on_c, 9, 45, 0
1, 157679, Note_on_c, 9, 43, 0
1, 157680, Note_on_c, 9, 45, 127
1, 157680, Note_on_c, 9, 42, 127
1, 157680, Note_on_c, 9, 42, 0
1, 157680, Note_on_c, 9, 36, 127
1, 157739, Note_on_c, 9, 45, 0
1, 157740, Note_on_c, 9, 45, 127
1, 157799, Note_on_c, 9, 45, 0
1, 157800, Note_on_c, 9, 41, 107
1, 157919, Note_on_c, 9, 36, 0
1, 157919, Note_on_c, 9, 41, 0
1, 157920, Note_on_c, 9, 45, 127
1, 157920, Note_on_c, 9, 36, 127
1, 157979, Note_on_c, 9, 45, 0
1, 157980, Note_on_c, 9, 45, 127
1, 158039, Note_on_c, 9, 36, 0
1, 158040, Note_on_c, 9, 43, 97
1, 158159, Note_on_c, 9, 45, 0
1, 158159, Note_on_c, 9, 43, 0
1, 158160, Note_on_c, 9, 45, 119
1, 158160, Note_on_c, 9, 42, 119
1, 158160, Note_on_c, 9, 42, 0
1, 158160, Note_on_c, 9, 36, 119
1, 158219, Note_on_c, 9, 45, 0
1, 158220, Note_on_c, 9, 45, 127
1, 158279, Note_on_c, 9, 36, 0
1, 158280, Note_on_c, 9, 43, 127
1, 158399, Note_on_c, 9, 45, 0
1, 158399, Note_on_c, 9, 43, 0
1, 158400, Note_on_c, 9, 45, 127
1, 158400, Note_on_c, 9, 36, 127
1, 158459, Note_on_c, 9, 45, 0
1, 158460, Note_on_c, 9, 45, 127
1, 158519, Note_on_c, 9, 36, 0
1, 158519, Note_on_c, 9, 45, 0
1, 158520, Note_on_c, 9, 45, 104
1, 158520, Note_on_c, 9, 43, 104
1, 158639, Note_on_c, 9, 45, 0
1, 158639, Note_on_c, 9, 43, 0
1, 158640, Note_on_c, 9, 45, 121
1, 158640, Note_on_c, 9, 42, 121
1, 158640, Note_on_c, 9, 42, 0
1, 158640, Note_on_c, 9, 36, 121
1, 158699, Note_on_c, 9, 45, 0
1, 158700, Note_on_c, 9, 45, 127
1, 158759, Note_on_c, 9, 36, 0
1, 158760, Note_on_c, 9, 43, 124
1, 158879, Note_on_c, 9, 45, 0
1, 158879, Note_on_c, 9, 43, 0
1, 158880, Note_on_c, 9, 45, 127
1, 158880, Note_on_c, 9, 36, 127
1, 158939, Note_on_c, 9, 45, 0
1, 158940, Note_on_c, 9, 45, 127
1, 158999, Note_on_c, 9, 36, 0
1, 158999, Note_on_c, 9, 45, 0
1, 159000, Note_on_c, 9, 45, 106
1, 159000, Note_on_c, 9, 43, 106
1, 159119, Note_on_c, 9, 45, 0
1, 159119, Note_on_c, 9, 43, 0
1, 159120, Note_on_c, 9, 45, 122
1, 159120, Note_on_c, 9, 42, 122
1, 159120, Note_on_c, 9, 42, 0
1, 159120, Note_on_c, 9, 36, 122
1, 159179, Note_on_c, 9, 45, 0
1, 159180, Note_on_c, 9, 45, 127
1, 159239, Note_on_c, 9, 36, 0
1, 159240, Note_on_c, 9, 43, 127
1, 159359, Note_on_c, 9, 45, 0
1, 159359, Note_on_c, 9, 43, 0
1, 159360, Note_on_c, 9, 45, 127
1, 159360, Note_on_c, 9, 36, 127
1, 159419, Note_on_c, 9, 45, 0
1, 159420, Note_on_c, 9, 45, 127
1, 159479, Note_on_c, 9, 36, 0
1, 159479, Note_on_c, 9, 45, 0
1, 159480, Note_on_c, 9, 45, 98
1, 159480, Note_on_c, 9, 43, 98
1, 159599, Note_on_c, 9, 45, 0
1, 159599, Note_on_c, 9, 43, 0
1, 159600, Note_on_c, 9, 45, 115
1, 159600, Note_on_c, 9, 42, 115
1, 159600, Note_on_c, 9, 42, 0
1, 159600, Note_on_c, 9, 36, 115
1, 159659, Note_on_c, 9, 45, 0
1, 159660, Note_on_c, 9, 45, 127
1, 159719, Note_on_c, 9, 36, 0
1, 159720, Note_on_c, 9, 43, 114
1, 159839, Note_on_c, 9, 45, 0
1, 159839, Note_on_c, 9, 43, 0
1, 159840, Note_on_c, 9, 45, 127
1, 159840, Note_on_c, 9, 36, 127
1, 159899, Note_on_c, 9, 45, 0
1, 159900, Note_on_c, 9, 45, 125
1, 159959, Note_on_c, 9, 36, 0
1, 159960, Note_on_c, 9, 43, 97
1, 160079, Note_on_c, 9, 45, 0
1, 160079, Note_on_c, 9, 43, 0
1, 160080, Note_on_c, 9, 45, 127
1, 160080, Note_on_c, 9, 42, 127
1, 160080, Note_on_c, 9, 42, 0
1, 160080, Note_on_c, 9, 36, 127
1, 160139, Note_on_c, 9, 45, 0
1, 160140, Note_on_c, 9, 45, 122
1, 160199, Note_on_c, 9, 36, 0
1, 160200, Note_on_c, 9, 43, 127
1, 160319, Note_on_c, 9, 45, 0
1, 160319, Note_on_c, 9, 43, 0
1, 160320, Note_on_c, 9, 45, 127
1, 160320, Note_on_c, 9, 36, 127
1, 160379, Note_on_c, 9, 45, 0
1, 160380, Note_on_c, 9, 45, 120
1, 160439, Note_on_c, 9, 36, 0
1, 160439, Note_on_c, 9, 45, 0
1, 160440, Note_on_c, 9, 45, 103
1, 160440, Note_on_c, 9, 43, 103
1, 160559, Note_on_c, 9, 45, 0
1, 160559, Note_on_c, 9, 43, 0
1, 160560, Note_on_c, 9, 45, 126
1, 160560, Note_on_c, 9, 42, 126
1, 160560, Note_on_c, 9, 42, 0
1, 160560, Note_on_c, 9, 36, 126
1, 160619, Note_on_c, 9, 45, 0
1, 160620, Note_on_c, 9, 45, 117
1, 160679, Note_on_c, 9, 36, 0
1, 160680, Note_on_c, 9, 43, 123
1, 160799, Note_on_c, 9, 45, 0
1, 160799, Note_on_c, 9, 43, 0
1, 160800, Note_on_c, 9, 45, 127
1, 160800, Note_on_c, 9, 36, 127
1, 160859, Note_on_c, 9, 45, 0
1, 160860, Note_on_c, 9, 45, 114
1, 160919, Note_on_c, 9, 36, 0
1, 160919, Note_on_c, 9, 45, 0
1, 160920, Note_on_c, 9, 45, 100
1, 160920, Note_on_c, 9, 43, 100
1, 161039, Note_on_c, 9, 45, 0
1, 161039, Note_on_c, 9, 43, 0
1, 161040, Note_on_c, 9, 45, 118
1, 161040, Note_on_c, 9, 42, 118
1, 161040, Note_on_c, 9, 42, 0
1, 161040, Note_on_c, 9, 36, 118
1, 161099, Note_on_c, 9, 45, 0
1, 161100, Note_on_c, 9, 45, 113
1, 161159, Note_on_c, 9, 36, 0
1, 161160, Note_on_c, 9, 43, 112
1, 161279, Note_on_c, 9, 45, 0
1, 161279, Note_on_c, 9, 43, 0
1, 161280, Note_on_c, 9, 45, 127
1, 161280, Note_on_c, 9, 36, 127
1, 161339, Note_on_c, 9, 45, 0
1, 161340, Note_on_c, 9, 45, 110
1, 161399, Note_on_c, 9, 36, 0
1, 161399, Note_on_c, 9, 45, 0
1, 161400, Note_on_c, 9, 45, 104
1, 161400, Note_on_c, 9, 43, 104
1, 161519, Note_on_c, 9, 45, 0
1, 161519, Note_on_c, 9, 43, 0
1, 161520, Note_on_c, 9, 45, 108
1, 161520, Note_on_c, 9, 42, 108
1, 161520, Note_on_c, 9, 42, 0
1, 161520, Note_on_c, 9, 36, 108
1, 161579, Note_on_c, 9, 45, 0
1, 161580, Note_on_c, 9, 45, 107
1, 161639, Note_on_c, 9, 45, 0
1, 161640, Note_on_c, 9, 41, 107
1, 161759, Note_on_c, 9, 36, 0
1, 161759, Note_on_c, 9, 41, 0
1, 161760, Note_on_c, 9, 45, 127
1, 161760, Note_on_c, 9, 36, 127
1, 161819, Note_on_c, 9, 45, 0
1, 161820, Note_on_c, 9, 45, 104
1, 161879, Note_on_c, 9, 36, 0
1, 161880, Note_on_c, 9, 43, 97
1, 161999, Note_on_c, 9, 45, 0
1, 161999, Note_on_c, 9, 43, 0
1, 162000, Note_on_c, 9, 45, 119
1, 162000, Note_on_c, 9, 42, 119
1, 162000, Note_on_c, 9, 42, 0
1, 162000, Note_on_c, 9, 36, 119
1, 162059, Note_on_c, 9, 45, 0
1, 162060, Note_on_c, 9, 45, 103
1, 162119, Note_on_c, 9, 36, 0
1, 162120, Note_on_c, 9, 43, 127
1, 162239, Note_on_c, 9, 45, 0
1, 162239, Note_on_c, 9, 43, 0
1, 162240, Note_on_c, 9, 45, 127
1, 162240, Note_on_c, 9, 36, 127
1, 162299, Note_on_c, 9, 45, 0
1, 162300, Note_on_c, 9, 45, 100
1, 162359, Note_on_c, 9, 36, 0
1, 162359, Note_on_c, 9, 45, 0
1, 162360, Note_on_c, 9, 45, 104
1, 162360, Note_on_c, 9, 43, 104
1, 162479, Note_on_c, 9, 45, 0
1, 162479, Note_on_c, 9, 43, 0
1, 162480, Note_on_c, 9, 45, 121
1, 162480, Note_on_c, 9, 42, 121
1, 162480, Note_on_c, 9, 42, 0
1, 162480, Note_on_c, 9, 36, 121
1, 162539, Note_on_c, 9, 45, 0
1, 162540, Note_on_c, 9, 45, 97
1, 162599, Note_on_c, 9, 36, 0
1, 162600, Note_on_c, 9, 43, 124
1, 162719, Note_on_c, 9, 45, 0
1, 162719, Note_on_c, 9, 43, 0
1, 162720, Note_on_c, 9, 45, 127
1, 162720, Note_on_c, 9, 36, 127
1, 162779, Note_on_c, 9, 45, 0
1, 162780, Note_on_c, 9, 45, 94
1, 162839, Note_on_c, 9, 36, 0
1, 162839, Note_on_c, 9, 45, 0
1, 162840, Note_on_c, 9, 45, 106
1, 162840, Note_on_c, 9, 43, 106
1, 162959, Note_on_c, 9, 45, 0
1, 162959, Note_on_c, 9, 43, 0
1, 162960, Note_on_c, 9, 45, 122
1, 162960, Note_on_c, 9, 42, 122
1, 162960, Note_on_c, 9, 42, 0
1, 162960, Note_on_c, 9, 36, 122
1, 163019, Note_on_c, 9, 45, 0
1, 163020, Note_on_c, 9, 45, 92
1, 163079, Note_on_c, 9, 36, 0
1, 163080, Note_on_c, 9, 43, 127
1, 163199, Note_on_c, 9, 45, 0
1, 163199, Note_on_c, 9, 43, 0
1, 163200, Note_on_c, 9, 45, 127
1, 163200, Note_on_c, 9, 36, 127
1, 163259, Note_on_c, 9, 45, 0
1, 163260, Note_on_c, 9, 45, 90
1, 163319, Note_on_c, 9, 36, 0
1, 163319, Note_on_c, 9, 45, 0
1, 163320, Note_on_c, 9, 45, 98
1, 163320, Note_on_c, 9, 43, 98
1, 163439, Note_on_c, 9, 45, 0
1, 163439, Note_on_c, 9, 43, 0
1, 163440, Note_on_c, 9, 45, 115
1, 163440, Note_on_c, 9, 42, 115
1, 163440, Note_on_c, 9, 42, 0
1, 163440, Note_on_c, 9, 36, 115
1, 163499, Note_on_c, 9, 45, 0
1, 163500, Note_on_c, 9, 45, 87
1, 163559, Note_on_c, 9, 36, 0
1, 163560, Note_on_c, 9, 43, 114
1, 163679, Note_on_c, 9, 45, 0
1, 163679, Note_on_c, 9, 43, 0
1, 163680, Note_on_c, 9, 45, 127
1, 163680, Note_on_c, 9, 36, 127
1, 163739, Note_on_c, 9, 45, 0
1, 163740, Note_on_c, 9, 45, 85
1, 163799, Note_on_c, 9, 36, 0
1, 163800, Note_on_c, 9, 43, 97
1, 163919, Note_on_c, 9, 45, 0
1, 163919, Note_on_c, 9, 43, 0
1, 163920, Note_on_c, 9, 45, 127
1, 163920, Note_on_c, 9, 42, 127
1, 163920, Note_on_c, 9, 42, 0
1, 163920, Note_on_c, 9, 36, 127
1, 163979, Note_on_c, 9, 45, 0
1, 163980, Note_on_c, 9, 45, 82
1, 164039, Note_on_c, 9, 36, 0
1, 164040, Note_on_c, 9, 43, 127
1, 164159, Note_on_c, 9, 45, 0
1, 164159, Note_on_c, 9, 43, 0
1, 164160, Note_on_c, 9, 45, 127
1, 164160, Note_on_c, 9, 36, 127
1, 164219, Note_on_c, 9, 45, 0
1, 164220, Note_on_c, 9, 45, 79
1, 164279, Note_on_c, 9, 36, 0
1, 164279, Note_on_c, 9, 45, 0
1, 164280, Note_on_c, 9, 45, 103
1, 164280, Note_on_c, 9, 43, 103
1, 164399, Note_on_c, 9, 45, 0
1, 164399, Note_on_c, 9, 43, 0
1, 164400, Note_on_c, 9, 45, 126
1, 164400, Note_on_c, 9, 42, 126
1, 164400, Note_on_c, 9, 42, 0
1, 164400, Note_on_c, 9, 36, 126
1, 164459, Note_on_c, 9, 45, 0
1, 164460, Note_on_c, 9, 45, 78
1, 164519, Note_on_c, 9, 36, 0
1, 164520, Note_on_c, 9, 43, 123
1, 164639, Note_on_c, 9, 45, 0
1, 164639, Note_on_c, 9, 43, 0
1, 164640, Note_on_c, 9, 45, 127
1, 164640, Note_on_c, 9, 36, 127
1, 164699, Note_on_c, 9, 45, 0
1, 164700, Note_on_c, 9, 45, 75
1, 164759, Note_on_c, 9, 36, 0
1, 164760, Note_on_c, 9, 43, 100
1, 164879, Note_on_c, 9, 45, 0
1, 164879, Note_on_c, 9, 43, 0
1, 164880, Note_on_c, 9, 45, 118
1, 164880, Note_on_c, 9, 42, 118
1, 164880, Note_on_c, 9, 42, 0
1, 164880, Note_on_c, 9, 36, 118
1, 164939, Note_on_c, 9, 45, 0
1, 164940, Note_on_c, 9, 45, 72
1, 164999, Note_on_c, 9, 36, 0
1, 165000, Note_on_c, 9, 43, 112
1, 165119, Note_on_c, 9, 45, 0
1, 165119, Note_on_c, 9, 43, 0
1, 165120, End_track
0, 0, End_of_file
