0, 0, Header, 1, 1, 480
1, 0, Start_track
1, 0, Title_t, "Drumset"
1, 0, Time_signature, 4, 2, 24, 8
1, 0, Key_signature, 0, "major"
1, 0, Tempo, 526316
1, 0, Control_c, 9, 121, 0
1, 0, Program_c, 9, 0
1, 0, Control_c, 9, 7, 110
1, 0, Control_c, 9, 10, 64
1, 0, Control_c, 9, 91, 0
1, 0, Control_c, 9, 93, 0
1, 0, MIDI_port, 0
1, 0, Note_on_c, 9, 40, 127
1, 239, Note_on_c, 9, 40, 0
1, 240, Note_on_c, 9, 40, 39
1, 479, Note_on_c, 9, 40, 0
1, 480, Note_on_c, 9, 42, 121
1, 480, Note_on_c, 9, 49, 111
1, 480, Note_on_c, 9, 36, 75
1, 489, Note_on_c, 9, 42, 0
1, 489, Note_on_c, 9, 49, 0
1, 599, Note_on_c, 9, 36, 0
1, 600, Note_on_c, 9, 44, 91
1, 615, Note_on_c, 9, 44, 0
1, 720, Note_on_c, 9, 46, 103
1, 729, Note_on_c, 9, 46, 0
1, 960, Note_on_c, 9, 40, 101
1, 960, Note_on_c, 9, 42, 103
1, 969, Note_on_c, 9, 42, 0
1, 1080, Note_on_c, 9, 44, 103
1, 1084, Note_on_c, 9, 44, 0
1, 1199, Note_on_c, 9, 40, 0
1, 1200, Note_on_c, 9, 46, 112
1, 1200, Note_on_c, 9, 57, 112
1, 1200, Note_on_c, 9, 36, 75
1, 1209, Note_on_c, 9, 46, 0
1, 1209, Note_on_c, 9, 57, 0
1, 1439, Note_on_c, 9, 36, 0
1, 1440, Note_on_c, 9, 42, 72
1, 1449, Note_on_c, 9, 42, 0
1, 1560, Note_on_c, 9, 44, 103
1, 1569, Note_on_c, 9, 44, 0
1, 1680, Note_on_c, 9, 42, 84
1, 1689, Note_on_c, 9, 42, 0
1, 1800, Note_on_c, 9, 44, 83
1, 1804, Note_on_c, 9, 44, 0
1, 1920, Note_on_c, 9, 40, 107
1, 1920, Note_on_c, 9, 46, 113
1, 1924, Note_on_c, 9, 46, 0
1, 2039, Note_on_c, 9, 40, 0
1, 2040, Note_on_c, 9, 42, 95
1, 2044, Note_on_c, 9, 42, 0
1, 2160, Note_on_c, 9, 46, 112
1, 2164, Note_on_c, 9, 46, 0
1, 2280, Note_on_c, 9, 42, 95
1, 2284, Note_on_c, 9, 42, 0
1, 2400, Note_on_c, 9, 42, 109
1, 2400, Note_on_c, 9, 36, 75
1, 2409, Note_on_c, 9, 42, 0
1, 2519, Note_on_c, 9, 36, 0
1, 2520, Note_on_c, 9, 44, 72
1, 2529, Note_on_c, 9, 44, 0
1, 2640, Note_on_c, 9, 42, 69
1, 2649, Note_on_c, 9, 42, 0
1, 2760, Note_on_c, 9, 44, 103
1, 2760, Note_on_c, 9, 36, 75
1, 2764, Note_on_c, 9, 44, 0
1, 2879, Note_on_c, 9, 36, 0
1, 2880, Note_on_c, 9, 40, 107
1, 2880, Note_on_c, 9, 42, 121
1, 2884, Note_on_c, 9, 42, 0
1, 2999, Note_on_c, 9, 40, 0
1, 3000, Note_on_c, 9, 46, 90
1, 3004, Note_on_c, 9, 46, 0
1, 3120, Note_on_c, 9, 42, 103
1, 3120, Note_on_c, 9, 36, 75
1, 3129, Note_on_c, 9, 42, 0
1, 3239, Note_on_c, 9, 36, 0
1, 3240, Note_on_c, 9, 44, 121
1, 3244, Note_on_c, 9, 44, 0
1, 3360, Note_on_c, 9, 42, 96
1, 3360, Note_on_c, 9, 36, 75
1, 3369, Note_on_c, 9, 42, 0
1, 3479, Note_on_c, 9, 36, 0
1, 3480, Note_on_c, 9, 44, 115
1, 3489, Note_on_c, 9, 44, 0
1, 3600, Note_on_c, 9, 42, 96
1, 3609, Note_on_c, 9, 42, 0
1, 3720, Note_on_c, 9, 44, 90
1, 3724, Note_on_c, 9, 44, 0
1, 3840, Note_on_c, 9, 40, 107
1, 3840, Note_on_c, 9, 42, 103
1, 3849, Note_on_c, 9, 42, 0
1, 3960, Note_on_c, 9, 44, 121
1, 3969, Note_on_c, 9, 44, 0
1, 4079, Note_on_c, 9, 40, 0
1, 4080, Note_on_c, 9, 46, 48
1, 4089, Note_on_c, 9, 46, 0
1, 4200, Note_on_c, 9, 44, 115
1, 4204, Note_on_c, 9, 44, 0
1, 4320, Note_on_c, 9, 49, 114
1, 4320, Note_on_c, 9, 44, 63
1, 4320, Note_on_c, 9, 36, 75
1, 4324, Note_on_c, 9, 49, 0
1, 4329, Note_on_c, 9, 44, 0
1, 4440, Note_on_c, 9, 42, 63
1, 4449, Note_on_c, 9, 42, 0
1, 4559, Note_on_c, 9, 36, 0
1, 4560, Note_on_c, 9, 44, 84
1, 4569, Note_on_c, 9, 44, 0
1, 4680, Note_on_c, 9, 42, 115
1, 4684, Note_on_c, 9, 42, 0
1, 4800, Note_on_c, 9, 40, 109
1, 4800, Note_on_c, 9, 44, 96
1, 4809, Note_on_c, 9, 44, 0
1, 4919, Note_on_c, 9, 40, 0
1, 4920, Note_on_c, 9, 42, 121
1, 4924, Note_on_c, 9, 42, 0
1, 5040, Note_on_c, 9, 57, 125
1, 5040, Note_on_c, 9, 36, 75
1, 5044, Note_on_c, 9, 57, 0
1, 5160, Note_on_c, 9, 42, 84
1, 5164, Note_on_c, 9, 42, 0
1, 5279, Note_on_c, 9, 36, 0
1, 5280, Note_on_c, 9, 44, 72
1, 5284, Note_on_c, 9, 44, 0
1, 5400, Note_on_c, 9, 44, 103
1, 5415, Note_on_c, 9, 44, 0
1, 5520, Note_on_c, 9, 42, 103
1, 5524, Note_on_c, 9, 42, 0
1, 5640, Note_on_c, 9, 46, 121
1, 5644, Note_on_c, 9, 46, 0
1, 5760, Note_on_c, 9, 40, 117
1, 5760, Note_on_c, 9, 42, 103
1, 5764, Note_on_c, 9, 42, 0
1, 5879, Note_on_c, 9, 40, 0
1, 5880, Note_on_c, 9, 42, 115
1, 5884, Note_on_c, 9, 42, 0
1, 6000, Note_on_c, 9, 46, 121
1, 6004, Note_on_c, 9, 46, 0
1, 6120, Note_on_c, 9, 42, 109
1, 6124, Note_on_c, 9, 42, 0
1, 6240, Note_on_c, 9, 49, 119
1, 6240, Note_on_c, 9, 36, 75
1, 6244, Note_on_c, 9, 49, 0
1, 6360, Note_on_c, 9, 42, 90
1, 6364, Note_on_c, 9, 42, 0
1, 6419, Note_on_c, 9, 36, 0
1, 6420, Note_on_c, 9, 44, 78
1, 6421, Note_on_c, 9, 44, 0
1, 6480, Note_on_c, 9, 42, 115
1, 6484, Note_on_c, 9, 42, 0
1, 6600, Note_on_c, 9, 46, 121
1, 6604, Note_on_c, 9, 46, 0
1, 6720, Note_on_c, 9, 40, 107
1, 6720, Note_on_c, 9, 42, 90
1, 6729, Note_on_c, 9, 42, 0
1, 6840, Note_on_c, 9, 44, 115
1, 6844, Note_on_c, 9, 44, 0
1, 6959, Note_on_c, 9, 40, 0
1, 6960, Note_on_c, 9, 42, 115
1, 6960, Note_on_c, 9, 57, 112
1, 6960, Note_on_c, 9, 36, 75
1, 6964, Note_on_c, 9, 42, 0
1, 6964, Note_on_c, 9, 57, 0
1, 7080, Note_on_c, 9, 46, 109
1, 7084, Note_on_c, 9, 46, 0
1, 7199, Note_on_c, 9, 36, 0
1, 7200, Note_on_c, 9, 42, 109
1, 7209, Note_on_c, 9, 42, 0
1, 7320, Note_on_c, 9, 44, 103
1, 7329, Note_on_c, 9, 44, 0
1, 7440, Note_on_c, 9, 42, 103
1, 7447, Note_on_c, 9, 42, 0
1, 7560, Note_on_c, 9, 44, 103
1, 7564, Note_on_c, 9, 44, 0
1, 7650, Note_on_c, 9, 38, 95
1, 7679, Note_on_c, 9, 38, 0
1, 7680, Note_on_c, 9, 40, 121
1, 7799, Note_on_c, 9, 40, 0
1, 7800, Note_on_c, 9, 47, 96
1, 7919, Note_on_c, 9, 47, 0
1, 7920, Note_on_c, 9, 45, 113
1, 8039, Note_on_c, 9, 45, 0
1, 8040, Note_on_c, 9, 45, 91
1, 8159, Note_on_c, 9, 45, 0
1, 8160, Note_on_c, 9, 42, 109
1, 8160, Note_on_c, 9, 57, 116
1, 8160, Note_on_c, 9, 36, 75
1, 8169, Note_on_c, 9, 42, 0
1, 8169, Note_on_c, 9, 57, 0
1, 8279, Note_on_c, 9, 36, 0
1, 8280, Note_on_c, 9, 44, 62
1, 8289, Note_on_c, 9, 44, 0
1, 8400, Note_on_c, 9, 42, 70
1, 8409, Note_on_c, 9, 42, 0
1, 8520, Note_on_c, 9, 44, 70
1, 8524, Note_on_c, 9, 44, 0
1, 8640, Note_on_c, 9, 40, 107
1, 8640, Note_on_c, 9, 42, 84
1, 8649, Note_on_c, 9, 42, 0
1, 8760, Note_on_c, 9, 44, 72
1, 8764, Note_on_c, 9, 44, 0
1, 8879, Note_on_c, 9, 40, 0
1, 8880, Note_on_c, 9, 42, 115
1, 8880, Note_on_c, 9, 49, 107
1, 8880, Note_on_c, 9, 36, 75
1, 8889, Note_on_c, 9, 42, 0
1, 8889, Note_on_c, 9, 49, 0
1, 8999, Note_on_c, 9, 36, 0
1, 9000, Note_on_c, 9, 44, 84
1, 9004, Note_on_c, 9, 44, 0
1, 9120, Note_on_c, 9, 42, 69
1, 9129, Note_on_c, 9, 42, 0
1, 9240, Note_on_c, 9, 44, 78
1, 9249, Note_on_c, 9, 44, 0
1, 9360, Note_on_c, 9, 42, 90
1, 9369, Note_on_c, 9, 42, 0
1, 9480, Note_on_c, 9, 44, 63
1, 9484, Note_on_c, 9, 44, 0
1, 9600, Note_on_c, 9, 40, 107
1, 9600, Note_on_c, 9, 42, 103
1, 9604, Note_on_c, 9, 42, 0
1, 9719, Note_on_c, 9, 40, 0
1, 9720, Note_on_c, 9, 46, 109
1, 9724, Note_on_c, 9, 46, 0
1, 9840, Note_on_c, 9, 42, 78
1, 9844, Note_on_c, 9, 42, 0
1, 9960, Note_on_c, 9, 46, 103
1, 9964, Note_on_c, 9, 46, 0
1, 10080, Note_on_c, 9, 42, 103
1, 10080, Note_on_c, 9, 36, 75
1, 10089, Note_on_c, 9, 42, 0
1, 10199, Note_on_c, 9, 36, 0
1, 10200, Note_on_c, 9, 44, 58
1, 10209, Note_on_c, 9, 44, 0
1, 10320, Note_on_c, 9, 42, 69
1, 10329, Note_on_c, 9, 42, 0
1, 10440, Note_on_c, 9, 44, 65
1, 10440, Note_on_c, 9, 36, 75
1, 10444, Note_on_c, 9, 44, 0
1, 10559, Note_on_c, 9, 36, 0
1, 10560, Note_on_c, 9, 40, 107
1, 10560, Note_on_c, 9, 42, 109
1, 10569, Note_on_c, 9, 42, 0
1, 10680, Note_on_c, 9, 44, 65
1, 10684, Note_on_c, 9, 44, 0
1, 10799, Note_on_c, 9, 40, 0
1, 10800, Note_on_c, 9, 42, 72
1, 10800, Note_on_c, 9, 36, 75
1, 10804, Note_on_c, 9, 42, 0
1, 10920, Note_on_c, 9, 46, 109
1, 10924, Note_on_c, 9, 46, 0
1, 11039, Note_on_c, 9, 36, 0
1, 11040, Note_on_c, 9, 42, 90
1, 11040, Note_on_c, 9, 36, 75
1, 11044, Note_on_c, 9, 42, 0
1, 11160, Note_on_c, 9, 42, 103
1, 11169, Note_on_c, 9, 42, 0
1, 11279, Note_on_c, 9, 36, 0
1, 11280, Note_on_c, 9, 44, 121
1, 11289, Note_on_c, 9, 44, 0
1, 11400, Note_on_c, 9, 42, 103
1, 11404, Note_on_c, 9, 42, 0
1, 11520, Note_on_c, 9, 40, 107
1, 11520, Note_on_c, 9, 46, 115
1, 11524, Note_on_c, 9, 46, 0
1, 11639, Note_on_c, 9, 40, 0
1, 11640, Note_on_c, 9, 42, 103
1, 11644, Note_on_c, 9, 42, 0
1, 11760, Note_on_c, 9, 46, 48
1, 11760, Note_on_c, 9, 47, 62
1, 11764, Note_on_c, 9, 46, 0
1, 11879, Note_on_c, 9, 47, 0
1, 11880, Note_on_c, 9, 42, 103
1, 11884, Note_on_c, 9, 42, 0
1, 12000, Note_on_c, 9, 42, 103
1, 12000, Note_on_c, 9, 49, 121
1, 12000, Note_on_c, 9, 36, 75
1, 12009, Note_on_c, 9, 42, 0
1, 12009, Note_on_c, 9, 49, 0
1, 12119, Note_on_c, 9, 36, 0
1, 12120, Note_on_c, 9, 44, 69
1, 12129, Note_on_c, 9, 44, 0
1, 12240, Note_on_c, 9, 42, 84
1, 12249, Note_on_c, 9, 42, 0
1, 12360, Note_on_c, 9, 44, 63
1, 12364, Note_on_c, 9, 44, 0
1, 12480, Note_on_c, 9, 40, 107
1, 12480, Note_on_c, 9, 42, 96
1, 12484, Note_on_c, 9, 42, 0
1, 12599, Note_on_c, 9, 40, 0
1, 12600, Note_on_c, 9, 46, 103
1, 12604, Note_on_c, 9, 46, 0
1, 12720, Note_on_c, 9, 42, 103
1, 12720, Note_on_c, 9, 57, 112
1, 12720, Note_on_c, 9, 36, 75
1, 12729, Note_on_c, 9, 42, 0
1, 12729, Note_on_c, 9, 57, 0
1, 12839, Note_on_c, 9, 36, 0
1, 12840, Note_on_c, 9, 44, 65
1, 12844, Note_on_c, 9, 44, 0
1, 12960, Note_on_c, 9, 42, 84
1, 12969, Note_on_c, 9, 42, 0
1, 13080, Note_on_c, 9, 44, 67
1, 13095, Note_on_c, 9, 44, 0
1, 13200, Note_on_c, 9, 42, 63
1, 13204, Note_on_c, 9, 42, 0
1, 13320, Note_on_c, 9, 46, 96
1, 13324, Note_on_c, 9, 46, 0
1, 13440, Note_on_c, 9, 40, 107
1, 13440, Note_on_c, 9, 42, 103
1, 13444, Note_on_c, 9, 42, 0
1, 13559, Note_on_c, 9, 40, 0
1, 13560, Note_on_c, 9, 46, 109
1, 13564, Note_on_c, 9, 46, 0
1, 13680, Note_on_c, 9, 42, 90
1, 13684, Note_on_c, 9, 42, 0
1, 13800, Note_on_c, 9, 46, 96
1, 13804, Note_on_c, 9, 46, 0
1, 13920, Note_on_c, 9, 42, 103
1, 13920, Note_on_c, 9, 57, 114
1, 13920, Note_on_c, 9, 36, 75
1, 13929, Note_on_c, 9, 42, 0
1, 13929, Note_on_c, 9, 57, 0
1, 14039, Note_on_c, 9, 36, 0
1, 14040, Note_on_c, 9, 44, 63
1, 14049, Note_on_c, 9, 44, 0
1, 14160, Note_on_c, 9, 42, 90
1, 14169, Note_on_c, 9, 42, 0
1, 14280, Note_on_c, 9, 44, 90
1, 14284, Note_on_c, 9, 44, 0
1, 14400, Note_on_c, 9, 40, 107
1, 14400, Note_on_c, 9, 42, 103
1, 14409, Note_on_c, 9, 42, 0
1, 14520, Note_on_c, 9, 44, 63
1, 14524, Note_on_c, 9, 44, 0
1, 14639, Note_on_c, 9, 40, 0
1, 14640, Note_on_c, 9, 42, 84
1, 14640, Note_on_c, 9, 49, 108
1, 14640, Note_on_c, 9, 36, 75
1, 14644, Note_on_c, 9, 42, 0
1, 14644, Note_on_c, 9, 49, 0
1, 14760, Note_on_c, 9, 46, 84
1, 14764, Note_on_c, 9, 46, 0
1, 14879, Note_on_c, 9, 36, 0
1, 14880, Note_on_c, 9, 42, 90
1, 14889, Note_on_c, 9, 42, 0
1, 15000, Note_on_c, 9, 44, 103
1, 15009, Note_on_c, 9, 44, 0
1, 15120, Note_on_c, 9, 40, 107
1, 15120, Note_on_c, 9, 42, 90
1, 15129, Note_on_c, 9, 42, 0
1, 15240, Note_on_c, 9, 44, 103
1, 15244, Note_on_c, 9, 44, 0
1, 15359, Note_on_c, 9, 40, 0
1, 15360, Note_on_c, 9, 40, 107
1, 15360, Note_on_c, 9, 42, 96
1, 15364, Note_on_c, 9, 42, 0
1, 15479, Note_on_c, 9, 40, 0
1, 15480, Note_on_c, 9, 46, 96
1, 15484, Note_on_c, 9, 46, 0
1, 15600, Note_on_c, 9, 40, 107
1, 15600, Note_on_c, 9, 42, 103
1, 15609, Note_on_c, 9, 42, 0
1, 15720, Note_on_c, 9, 44, 109
1, 15724, Note_on_c, 9, 44, 0
1, 15839, Note_on_c, 9, 40, 0
1, 15840, Note_on_c, 9, 42, 115
1, 15840, Note_on_c, 9, 52, 108
1, 15840, Note_on_c, 9, 36, 90
1, 15849, Note_on_c, 9, 42, 0
1, 15849, Note_on_c, 9, 52, 0
1, 16080, Note_on_c, 9, 42, 48
1, 16089, Note_on_c, 9, 42, 0
1, 16319, Note_on_c, 9, 36, 0
1, 16320, Note_on_c, 9, 40, 107
1, 16320, Note_on_c, 9, 42, 64
1, 16329, Note_on_c, 9, 42, 0
1, 16559, Note_on_c, 9, 40, 0
1, 16560, Note_on_c, 9, 42, 50
1, 16560, Note_on_c, 9, 36, 75
1, 16569, Note_on_c, 9, 42, 0
1, 16799, Note_on_c, 9, 36, 0
1, 16800, Note_on_c, 9, 42, 37
1, 16800, Note_on_c, 9, 36, 75
1, 16809, Note_on_c, 9, 42, 0
1, 17040, Note_on_c, 9, 42, 36
1, 17049, Note_on_c, 9, 42, 0
1, 17279, Note_on_c, 9, 36, 0
1, 17280, Note_on_c, 9, 40, 107
1, 17280, Note_on_c, 9, 42, 62
1, 17289, Note_on_c, 9, 42, 0
1, 17519, Note_on_c, 9, 40, 0
1, 17520, Note_on_c, 9, 42, 48
1, 17529, Note_on_c, 9, 42, 0
1, 17760, Note_on_c, 9, 42, 43
1, 17760, Note_on_c, 9, 36, 75
1, 17769, Note_on_c, 9, 42, 0
1, 18000, Note_on_c, 9, 42, 48
1, 18009, Note_on_c, 9, 42, 0
1, 18119, Note_on_c, 9, 36, 0
1, 18120, Note_on_c, 9, 36, 75
1, 18239, Note_on_c, 9, 36, 0
1, 18240, Note_on_c, 9, 40, 107
1, 18240, Note_on_c, 9, 42, 64
1, 18249, Note_on_c, 9, 42, 0
1, 18479, Note_on_c, 9, 40, 0
1, 18480, Note_on_c, 9, 42, 50
1, 18480, Note_on_c, 9, 36, 75
1, 18489, Note_on_c, 9, 42, 0
1, 18719, Note_on_c, 9, 36, 0
1, 18720, Note_on_c, 9, 42, 37
1, 18720, Note_on_c, 9, 36, 75
1, 18729, Note_on_c, 9, 42, 0
1, 18960, Note_on_c, 9, 42, 36
1, 18969, Note_on_c, 9, 42, 0
1, 19199, Note_on_c, 9, 36, 0
1, 19200, Note_on_c, 9, 40, 107
1, 19200, Note_on_c, 9, 42, 62
1, 19209, Note_on_c, 9, 42, 0
1, 19439, Note_on_c, 9, 40, 0
1, 19440, Note_on_c, 9, 46, 48
1, 19449, Note_on_c, 9, 46, 0
1, 19680, Note_on_c, 9, 42, 43
1, 19680, Note_on_c, 9, 36, 75
1, 19689, Note_on_c, 9, 42, 0
1, 19920, Note_on_c, 9, 42, 48
1, 19929, Note_on_c, 9, 42, 0
1, 20159, Note_on_c, 9, 36, 0
1, 20160, Note_on_c, 9, 40, 107
1, 20160, Note_on_c, 9, 42, 64
1, 20169, Note_on_c, 9, 42, 0
1, 20399, Note_on_c, 9, 40, 0
1, 20400, Note_on_c, 9, 42, 50
1, 20400, Note_on_c, 9, 36, 75
1, 20409, Note_on_c, 9, 42, 0
1, 20639, Note_on_c, 9, 36, 0
1, 20640, Note_on_c, 9, 42, 37
1, 20640, Note_on_c, 9, 36, 75
1, 20649, Note_on_c, 9, 42, 0
1, 20880, Note_on_c, 9, 42, 36
1, 20889, Note_on_c, 9, 42, 0
1, 21119, Note_on_c, 9, 36, 0
1, 21120, Note_on_c, 9, 40, 107
1, 21120, Note_on_c, 9, 42, 62
1, 21129, Note_on_c, 9, 42, 0
1, 21359, Note_on_c, 9, 40, 0
1, 21360, Note_on_c, 9, 42, 48
1, 21369, Note_on_c, 9, 42, 0
1, 21600, Note_on_c, 9, 42, 43
1, 21600, Note_on_c, 9, 36, 75
1, 21609, Note_on_c, 9, 42, 0
1, 21840, Note_on_c, 9, 42, 48
1, 21849, Note_on_c, 9, 42, 0
1, 21959, Note_on_c, 9, 36, 0
1, 21960, Note_on_c, 9, 36, 75
1, 22079, Note_on_c, 9, 36, 0
1, 22080, Note_on_c, 9, 40, 107
1, 22080, Note_on_c, 9, 42, 64
1, 22089, Note_on_c, 9, 42, 0
1, 22319, Note_on_c, 9, 40, 0
1, 22320, Note_on_c, 9, 42, 50
1, 22320, Note_on_c, 9, 36, 75
1, 22329, Note_on_c, 9, 42, 0
1, 22559, Note_on_c, 9, 36, 0
1, 22560, Note_on_c, 9, 42, 37
1, 22560, Note_on_c, 9, 36, 75
1, 22569, Note_on_c, 9, 42, 0
1, 22800, Note_on_c, 9, 42, 36
1, 22809, Note_on_c, 9, 42, 0
1, 23039, Note_on_c, 9, 36, 0
1, 23040, Note_on_c, 9, 40, 107
1, 23040, Note_on_c, 9, 42, 62
1, 23049, Note_on_c, 9, 42, 0
1, 23279, Note_on_c, 9, 40, 0
1, 23280, Note_on_c, 9, 42, 48
1, 23289, Note_on_c, 9, 42, 0
1, 23520, Note_on_c, 9, 42, 43
1, 23520, Note_on_c, 9, 36, 75
1, 23529, Note_on_c, 9, 42, 0
1, 23760, Note_on_c, 9, 42, 48
1, 23769, Note_on_c, 9, 42, 0
1, 23999, Note_on_c, 9, 36, 0
1, 24000, Note_on_c, 9, 40, 107
1, 24000, Note_on_c, 9, 42, 64
1, 24009, Note_on_c, 9, 42, 0
1, 24239, Note_on_c, 9, 40, 0
1, 24240, Note_on_c, 9, 42, 50
1, 24240, Note_on_c, 9, 36, 75
1, 24249, Note_on_c, 9, 42, 0
1, 24479, Note_on_c, 9, 36, 0
1, 24480, Note_on_c, 9, 42, 37
1, 24480, Note_on_c, 9, 36, 75
1, 24489, Note_on_c, 9, 42, 0
1, 24720, Note_on_c, 9, 42, 36
1, 24729, Note_on_c, 9, 42, 0
1, 24959, Note_on_c, 9, 36, 0
1, 24960, Note_on_c, 9, 40, 107
1, 24960, Note_on_c, 9, 42, 62
1, 24969, Note_on_c, 9, 42, 0
1, 25199, Note_on_c, 9, 40, 0
1, 25200, Note_on_c, 9, 42, 48
1, 25209, Note_on_c, 9, 42, 0
1, 25440, Note_on_c, 9, 42, 43
1, 25440, Note_on_c, 9, 36, 75
1, 25449, Note_on_c, 9, 42, 0
1, 25680, Note_on_c, 9, 42, 48
1, 25689, Note_on_c, 9, 42, 0
1, 25799, Note_on_c, 9, 36, 0
1, 25800, Note_on_c, 9, 36, 75
1, 25919, Note_on_c, 9, 36, 0
1, 25920, Note_on_c, 9, 40, 107
1, 25920, Note_on_c, 9, 42, 64
1, 25929, Note_on_c, 9, 42, 0
1, 26159, Note_on_c, 9, 40, 0
1, 26160, Note_on_c, 9, 42, 50
1, 26160, Note_on_c, 9, 36, 75
1, 26169, Note_on_c, 9, 42, 0
1, 26399, Note_on_c, 9, 36, 0
1, 26400, Note_on_c, 9, 42, 37
1, 26400, Note_on_c, 9, 36, 75
1, 26409, Note_on_c, 9, 42, 0
1, 26640, Note_on_c, 9, 42, 36
1, 26649, Note_on_c, 9, 42, 0
1, 26879, Note_on_c, 9, 36, 0
1, 26880, Note_on_c, 9, 40, 107
1, 26880, Note_on_c, 9, 42, 62
1, 26889, Note_on_c, 9, 42, 0
1, 27119, Note_on_c, 9, 40, 0
1, 27120, Note_on_c, 9, 46, 48
1, 27129, Note_on_c, 9, 46, 0
1, 27360, Note_on_c, 9, 42, 43
1, 27360, Note_on_c, 9, 36, 75
1, 27369, Note_on_c, 9, 42, 0
1, 27600, Note_on_c, 9, 42, 48
1, 27609, Note_on_c, 9, 42, 0
1, 27839, Note_on_c, 9, 36, 0
1, 27840, Note_on_c, 9, 40, 107
1, 27840, Note_on_c, 9, 42, 64
1, 27849, Note_on_c, 9, 42, 0
1, 28079, Note_on_c, 9, 40, 0
1, 28080, Note_on_c, 9, 42, 50
1, 28080, Note_on_c, 9, 36, 75
1, 28089, Note_on_c, 9, 42, 0
1, 28319, Note_on_c, 9, 36, 0
1, 28320, Note_on_c, 9, 42, 37
1, 28320, Note_on_c, 9, 36, 75
1, 28329, Note_on_c, 9, 42, 0
1, 28560, Note_on_c, 9, 42, 36
1, 28569, Note_on_c, 9, 42, 0
1, 28799, Note_on_c, 9, 36, 0
1, 28800, Note_on_c, 9, 40, 107
1, 28800, Note_on_c, 9, 42, 62
1, 28809, Note_on_c, 9, 42, 0
1, 29039, Note_on_c, 9, 40, 0
1, 29040, Note_on_c, 9, 42, 48
1, 29049, Note_on_c, 9, 42, 0
1, 29280, Note_on_c, 9, 42, 43
1, 29280, Note_on_c, 9, 36, 75
1, 29289, Note_on_c, 9, 42, 0
1, 29520, Note_on_c, 9, 42, 48
1, 29529, Note_on_c, 9, 42, 0
1, 29639, Note_on_c, 9, 36, 0
1, 29640, Note_on_c, 9, 36, 75
1, 29759, Note_on_c, 9, 36, 0
1, 29760, Note_on_c, 9, 40, 107
1, 29760, Note_on_c, 9, 42, 64
1, 29769, Note_on_c, 9, 42, 0
1, 29999, Note_on_c, 9, 40, 0
1, 30000, Note_on_c, 9, 42, 50
1, 30000, Note_on_c, 9, 36, 75
1, 30009, Note_on_c, 9, 42, 0
1, 30239, Note_on_c, 9, 36, 0
1, 30240, Note_on_c, 9, 42, 37
1, 30240, Note_on_c, 9, 36, 75
1, 30249, Note_on_c, 9, 42, 0
1, 30480, Note_on_c, 9, 42, 36
1, 30489, Note_on_c, 9, 42, 0
1, 30719, Note_on_c, 9, 36, 0
1, 30720, Note_on_c, 9, 40, 107
1, 30720, Note_on_c, 9, 42, 62
1, 30729, Note_on_c, 9, 42, 0
1, 30959, Note_on_c, 9, 40, 0
1, 30960, Note_on_c, 9, 42, 48
1, 30969, Note_on_c, 9, 42, 0
1, 31200, Note_on_c, 9, 42, 43
1, 31200, Note_on_c, 9, 36, 75
1, 31209, Note_on_c, 9, 42, 0
1, 31440, Note_on_c, 9, 42, 48
1, 31449, Note_on_c, 9, 42, 0
1, 31679, Note_on_c, 9, 36, 0
1, 31680, Note_on_c, 9, 40, 107
1, 31680, Note_on_c, 9, 42, 64
1, 31689, Note_on_c, 9, 42, 0
1, 31919, Note_on_c, 9, 40, 0
1, 31920, Note_on_c, 9, 42, 50
1, 31920, Note_on_c, 9, 36, 75
1, 31929, Note_on_c, 9, 42, 0
1, 32159, Note_on_c, 9, 36, 0
1, 32160, Note_on_c, 9, 42, 37
1, 32160, Note_on_c, 9, 36, 75
1, 32169, Note_on_c, 9, 42, 0
1, 32400, Note_on_c, 9, 42, 36
1, 32409, Note_on_c, 9, 42, 0
1, 32639, Note_on_c, 9, 36, 0
1, 32640, Note_on_c, 9, 40, 107
1, 32640, Note_on_c, 9, 42, 62
1, 32649, Note_on_c, 9, 42, 0
1, 32879, Note_on_c, 9, 40, 0
1, 32880, Note_on_c, 9, 42, 48
1, 32889, Note_on_c, 9, 42, 0
1, 33120, Note_on_c, 9, 42, 43
1, 33120, Note_on_c, 9, 36, 75
1, 33129, Note_on_c, 9, 42, 0
1, 33360, Note_on_c, 9, 42, 48
1, 33369, Note_on_c, 9, 42, 0
1, 33479, Note_on_c, 9, 36, 0
1, 33480, Note_on_c, 9, 36, 75
1, 33599, Note_on_c, 9, 36, 0
1, 33600, Note_on_c, 9, 40, 107
1, 33600, Note_on_c, 9, 42, 64
1, 33609, Note_on_c, 9, 42, 0
1, 33839, Note_on_c, 9, 40, 0
1, 33840, Note_on_c, 9, 42, 50
1, 33840, Note_on_c, 9, 36, 75
1, 33849, Note_on_c, 9, 42, 0
1, 34079, Note_on_c, 9, 36, 0
1, 34080, Note_on_c, 9, 42, 37
1, 34080, Note_on_c, 9, 36, 75
1, 34089, Note_on_c, 9, 42, 0
1, 34320, Note_on_c, 9, 42, 36
1, 34329, Note_on_c, 9, 42, 0
1, 34559, Note_on_c, 9, 36, 0
1, 34560, Note_on_c, 9, 40, 107
1, 34560, Note_on_c, 9, 42, 62
1, 34569, Note_on_c, 9, 42, 0
1, 34799, Note_on_c, 9, 40, 0
1, 34800, Note_on_c, 9, 46, 48
1, 34809, Note_on_c, 9, 46, 0
1, 35040, Note_on_c, 9, 42, 43
1, 35040, Note_on_c, 9, 36, 75
1, 35049, Note_on_c, 9, 42, 0
1, 35280, Note_on_c, 9, 42, 48
1, 35289, Note_on_c, 9, 42, 0
1, 35519, Note_on_c, 9, 36, 0
1, 35520, Note_on_c, 9, 40, 107
1, 35520, Note_on_c, 9, 42, 64
1, 35529, Note_on_c, 9, 42, 0
1, 35759, Note_on_c, 9, 40, 0
1, 35760, Note_on_c, 9, 42, 50
1, 35760, Note_on_c, 9, 36, 75
1, 35769, Note_on_c, 9, 42, 0
1, 35999, Note_on_c, 9, 36, 0
1, 36000, Note_on_c, 9, 42, 37
1, 36000, Note_on_c, 9, 36, 75
1, 36009, Note_on_c, 9, 42, 0
1, 36240, Note_on_c, 9, 42, 36
1, 36249, Note_on_c, 9, 42, 0
1, 36479, Note_on_c, 9, 36, 0
1, 36480, Note_on_c, 9, 40, 107
1, 36480, Note_on_c, 9, 42, 62
1, 36489, Note_on_c, 9, 42, 0
1, 36719, Note_on_c, 9, 40, 0
1, 36720, Note_on_c, 9, 42, 48
1, 36729, Note_on_c, 9, 42, 0
1, 36960, Note_on_c, 9, 42, 43
1, 36960, Note_on_c, 9, 36, 75
1, 36969, Note_on_c, 9, 42, 0
1, 37200, Note_on_c, 9, 42, 48
1, 37209, Note_on_c, 9, 42, 0
1, 37319, Note_on_c, 9, 36, 0
1, 37320, Note_on_c, 9, 36, 75
1, 37439, Note_on_c, 9, 36, 0
1, 37440, Note_on_c, 9, 40, 107
1, 37440, Note_on_c, 9, 42, 64
1, 37449, Note_on_c, 9, 42, 0
1, 37679, Note_on_c, 9, 40, 0
1, 37680, Note_on_c, 9, 42, 50
1, 37680, Note_on_c, 9, 36, 75
1, 37689, Note_on_c, 9, 42, 0
1, 37919, Note_on_c, 9, 36, 0
1, 37920, Note_on_c, 9, 42, 37
1, 37920, Note_on_c, 9, 36, 75
1, 37929, Note_on_c, 9, 42, 0
1, 38160, Note_on_c, 9, 42, 36
1, 38169, Note_on_c, 9, 42, 0
1, 38399, Note_on_c, 9, 36, 0
1, 38400, Note_on_c, 9, 40, 107
1, 38400, Note_on_c, 9, 42, 62
1, 38409, Note_on_c, 9, 42, 0
1, 38639, Note_on_c, 9, 40, 0
1, 38640, Note_on_c, 9, 42, 48
1, 38649, Note_on_c, 9, 42, 0
1, 38880, Note_on_c, 9, 42, 43
1, 38880, Note_on_c, 9, 36, 75
1, 38889, Note_on_c, 9, 42, 0
1, 39120, Note_on_c, 9, 42, 48
1, 39129, Note_on_c, 9, 42, 0
1, 39359, Note_on_c, 9, 36, 0
1, 39360, Note_on_c, 9, 40, 107
1, 39360, Note_on_c, 9, 42, 64
1, 39369, Note_on_c, 9, 42, 0
1, 39599, Note_on_c, 9, 40, 0
1, 39600, Note_on_c, 9, 42, 50
1, 39600, Note_on_c, 9, 36, 75
1, 39609, Note_on_c, 9, 42, 0
1, 39839, Note_on_c, 9, 36, 0
1, 39840, Note_on_c, 9, 42, 37
1, 39840, Note_on_c, 9, 36, 75
1, 39849, Note_on_c, 9, 42, 0
1, 40080, Note_on_c, 9, 42, 36
1, 40089, Note_on_c, 9, 42, 0
1, 40319, Note_on_c, 9, 36, 0
1, 40320, Note_on_c, 9, 40, 107
1, 40320, Note_on_c, 9, 42, 62
1, 40329, Note_on_c, 9, 42, 0
1, 40559, Note_on_c, 9, 40, 0
1, 40560, Note_on_c, 9, 42, 48
1, 40569, Note_on_c, 9, 42, 0
1, 40800, Note_on_c, 9, 42, 43
1, 40800, Note_on_c, 9, 36, 75
1, 40809, Note_on_c, 9, 42, 0
1, 41040, Note_on_c, 9, 42, 48
1, 41049, Note_on_c, 9, 42, 0
1, 41159, Note_on_c, 9, 36, 0
1, 41160, Note_on_c, 9, 36, 75
1, 41279, Note_on_c, 9, 36, 0
1, 41280, Note_on_c, 9, 40, 107
1, 41280, Note_on_c, 9, 42, 64
1, 41289, Note_on_c, 9, 42, 0
1, 41519, Note_on_c, 9, 40, 0
1, 41520, Note_on_c, 9, 42, 50
1, 41520, Note_on_c, 9, 36, 75
1, 41529, Note_on_c, 9, 42, 0
1, 41759, Note_on_c, 9, 36, 0
1, 41760, Note_on_c, 9, 42, 37
1, 41760, Note_on_c, 9, 36, 75
1, 41769, Note_on_c, 9, 42, 0
1, 42000, Note_on_c, 9, 42, 36
1, 42009, Note_on_c, 9, 42, 0
1, 42239, Note_on_c, 9, 36, 0
1, 42240, Note_on_c, 9, 40, 107
1, 42240, Note_on_c, 9, 42, 62
1, 42249, Note_on_c, 9, 42, 0
1, 42479, Note_on_c, 9, 40, 0
1, 42480, Note_on_c, 9, 46, 48
1, 42489, Note_on_c, 9, 46, 0
1, 42720, Note_on_c, 9, 42, 43
1, 42720, Note_on_c, 9, 36, 75
1, 42729, Note_on_c, 9, 42, 0
1, 42960, Note_on_c, 9, 42, 48
1, 42969, Note_on_c, 9, 42, 0
1, 43199, Note_on_c, 9, 36, 0
1, 43200, Note_on_c, 9, 40, 107
1, 43200, Note_on_c, 9, 42, 64
1, 43209, Note_on_c, 9, 42, 0
1, 43439, Note_on_c, 9, 40, 0
1, 43440, Note_on_c, 9, 42, 50
1, 43440, Note_on_c, 9, 36, 75
1, 43449, Note_on_c, 9, 42, 0
1, 43679, Note_on_c, 9, 36, 0
1, 43680, Note_on_c, 9, 42, 37
1, 43680, Note_on_c, 9, 36, 75
1, 43689, Note_on_c, 9, 42, 0
1, 43920, Note_on_c, 9, 42, 36
1, 43929, Note_on_c, 9, 42, 0
1, 44159, Note_on_c, 9, 36, 0
1, 44160, Note_on_c, 9, 40, 107
1, 44160, Note_on_c, 9, 42, 62
1, 44169, Note_on_c, 9, 42, 0
1, 44399, Note_on_c, 9, 40, 0
1, 44400, Note_on_c, 9, 42, 48
1, 44409, Note_on_c, 9, 42, 0
1, 44640, Note_on_c, 9, 42, 43
1, 44640, Note_on_c, 9, 36, 75
1, 44649, Note_on_c, 9, 42, 0
1, 44880, Note_on_c, 9, 42, 48
1, 44889, Note_on_c, 9, 42, 0
1, 44999, Note_on_c, 9, 36, 0
1, 45000, Note_on_c, 9, 36, 75
1, 45119, Note_on_c, 9, 36, 0
1, 45120, Note_on_c, 9, 40, 107
1, 45120, Note_on_c, 9, 42, 64
1, 45129, Note_on_c, 9, 42, 0
1, 45240, Note_on_c, 9, 36, 75
1, 45359, Note_on_c, 9, 40, 0
1, 45360, Note_on_c, 9, 42, 50
1, 45369, Note_on_c, 9, 42, 0
1, 45599, Note_on_c, 9, 36, 0
1, 45600, Note_on_c, 9, 42, 37
1, 45600, Note_on_c, 9, 36, 75
1, 45609, Note_on_c, 9, 42, 0
1, 45840, Note_on_c, 9, 50, 96
1, 46079, Note_on_c, 9, 36, 0
1, 46079, Note_on_c, 9, 50, 0
1, 46080, Note_on_c, 9, 40, 91
1, 46139, Note_on_c, 9, 40, 0
1, 46160, Note_on_c, 9, 48, 97
1, 46199, Note_on_c, 9, 48, 0
1, 46240, Note_on_c, 9, 47, 84
1, 46259, Note_on_c, 9, 47, 0
1, 46320, Note_on_c, 9, 40, 95
1, 46559, Note_on_c, 9, 40, 0
1, 46560, Note_on_c, 9, 49, 103
1, 46560, Note_on_c, 9, 36, 75
1, 46569, Note_on_c, 9, 49, 0
1, 46800, Note_on_c, 9, 42, 48
1, 46809, Note_on_c, 9, 42, 0
1, 47039, Note_on_c, 9, 36, 0
1, 47040, Note_on_c, 9, 40, 107
1, 47040, Note_on_c, 9, 42, 64
1, 47049, Note_on_c, 9, 42, 0
1, 47279, Note_on_c, 9, 40, 0
1, 47280, Note_on_c, 9, 42, 50
1, 47280, Note_on_c, 9, 36, 75
1, 47289, Note_on_c, 9, 42, 0
1, 47519, Note_on_c, 9, 36, 0
1, 47520, Note_on_c, 9, 42, 37
1, 47529, Note_on_c, 9, 42, 0
1, 47760, Note_on_c, 9, 42, 36
1, 47760, Note_on_c, 9, 36, 91
1, 47764, Note_on_c, 9, 42, 0
1, 47880, Note_on_c, 9, 40, 107
1, 47999, Note_on_c, 9, 36, 0
1, 47999, Note_on_c, 9, 40, 0
1, 48000, Note_on_c, 9, 42, 62
1, 48009, Note_on_c, 9, 42, 0
1, 48120, Note_on_c, 9, 36, 63
1, 48239, Note_on_c, 9, 36, 0
1, 48240, Note_on_c, 9, 42, 48
1, 48240, Note_on_c, 9, 36, 63
1, 48249, Note_on_c, 9, 42, 0
1, 48359, Note_on_c, 9, 36, 0
1, 48360, Note_on_c, 9, 44, 70
1, 48364, Note_on_c, 9, 44, 0
1, 48480, Note_on_c, 9, 46, 79
1, 48480, Note_on_c, 9, 36, 75
1, 48489, Note_on_c, 9, 46, 0
1, 48720, Note_on_c, 9, 42, 48
1, 48729, Note_on_c, 9, 42, 0
1, 48839, Note_on_c, 9, 36, 0
1, 48840, Note_on_c, 9, 36, 75
1, 48959, Note_on_c, 9, 36, 0
1, 48960, Note_on_c, 9, 40, 107
1, 48960, Note_on_c, 9, 42, 64
1, 48969, Note_on_c, 9, 42, 0
1, 49199, Note_on_c, 9, 40, 0
1, 49200, Note_on_c, 9, 42, 50
1, 49200, Note_on_c, 9, 36, 75
1, 49209, Note_on_c, 9, 42, 0
1, 49439, Note_on_c, 9, 36, 0
1, 49440, Note_on_c, 9, 42, 37
1, 49440, Note_on_c, 9, 36, 75
1, 49449, Note_on_c, 9, 42, 0
1, 49680, Note_on_c, 9, 42, 36
1, 49689, Note_on_c, 9, 42, 0
1, 49919, Note_on_c, 9, 36, 0
1, 49920, Note_on_c, 9, 40, 107
1, 49920, Note_on_c, 9, 42, 62
1, 49929, Note_on_c, 9, 42, 0
1, 50159, Note_on_c, 9, 40, 0
1, 50160, Note_on_c, 9, 46, 48
1, 50169, Note_on_c, 9, 46, 0
1, 50400, Note_on_c, 9, 42, 43
1, 50400, Note_on_c, 9, 36, 75
1, 50409, Note_on_c, 9, 42, 0
1, 50640, Note_on_c, 9, 42, 48
1, 50649, Note_on_c, 9, 42, 0
1, 50879, Note_on_c, 9, 36, 0
1, 50880, Note_on_c, 9, 40, 107
1, 50880, Note_on_c, 9, 42, 64
1, 50900, Note_on_c, 9, 42, 0
1, 51120, Note_on_c, 9, 44, 87
1, 51120, Note_on_c, 9, 36, 75
1, 51129, Note_on_c, 9, 44, 0
1, 51359, Note_on_c, 9, 40, 0
1, 51359, Note_on_c, 9, 36, 0
1, 51360, Note_on_c, 9, 52, 106
1, 51360, Note_on_c, 9, 36, 102
1, 51369, Note_on_c, 9, 52, 0
1, 51600, Note_on_c, 9, 42, 36
1, 51609, Note_on_c, 9, 42, 0
1, 51839, Note_on_c, 9, 36, 0
1, 51840, Note_on_c, 9, 40, 107
1, 51840, Note_on_c, 9, 42, 62
1, 51849, Note_on_c, 9, 42, 0
1, 52079, Note_on_c, 9, 40, 0
1, 52080, Note_on_c, 9, 42, 48
1, 52089, Note_on_c, 9, 42, 0
1, 52320, Note_on_c, 9, 42, 43
1, 52320, Note_on_c, 9, 36, 75
1, 52329, Note_on_c, 9, 42, 0
1, 52560, Note_on_c, 9, 42, 48
1, 52569, Note_on_c, 9, 42, 0
1, 52679, Note_on_c, 9, 36, 0
1, 52680, Note_on_c, 9, 36, 75
1, 52799, Note_on_c, 9, 36, 0
1, 52800, Note_on_c, 9, 40, 107
1, 52800, Note_on_c, 9, 42, 64
1, 52820, Note_on_c, 9, 42, 0
1, 53040, Note_on_c, 9, 44, 98
1, 53040, Note_on_c, 9, 36, 99
1, 53049, Note_on_c, 9, 44, 0
1, 53279, Note_on_c, 9, 40, 0
1, 53279, Note_on_c, 9, 36, 0
1, 53280, Note_on_c, 9, 52, 115
1, 53280, Note_on_c, 9, 36, 98
1, 53289, Note_on_c, 9, 52, 0
1, 53520, Note_on_c, 9, 42, 36
1, 53529, Note_on_c, 9, 42, 0
1, 53759, Note_on_c, 9, 36, 0
1, 53760, Note_on_c, 9, 40, 107
1, 53760, Note_on_c, 9, 46, 83
1, 53769, Note_on_c, 9, 46, 0
1, 53999, Note_on_c, 9, 40, 0
1, 54000, Note_on_c, 9, 42, 48
1, 54009, Note_on_c, 9, 42, 0
1, 54240, Note_on_c, 9, 42, 43
1, 54240, Note_on_c, 9, 36, 75
1, 54249, Note_on_c, 9, 42, 0
1, 54480, Note_on_c, 9, 42, 48
1, 54489, Note_on_c, 9, 42, 0
1, 54719, Note_on_c, 9, 36, 0
1, 54720, Note_on_c, 9, 40, 107
1, 54720, Note_on_c, 9, 42, 64
1, 54729, Note_on_c, 9, 42, 0
1, 54959, Note_on_c, 9, 40, 0
1, 54960, Note_on_c, 9, 42, 50
1, 54960, Note_on_c, 9, 36, 75
1, 54969, Note_on_c, 9, 42, 0
1, 55199, Note_on_c, 9, 36, 0
1, 55200, Note_on_c, 9, 42, 37
1, 55209, Note_on_c, 9, 42, 0
1, 55440, Note_on_c, 9, 42, 36
1, 55440, Note_on_c, 9, 36, 75
1, 55444, Note_on_c, 9, 42, 0
1, 55560, Note_on_c, 9, 40, 107
1, 55679, Note_on_c, 9, 36, 0
1, 55679, Note_on_c, 9, 40, 0
1, 55680, Note_on_c, 9, 42, 62
1, 55689, Note_on_c, 9, 42, 0
1, 55800, Note_on_c, 9, 36, 75
1, 55920, Note_on_c, 9, 42, 97
1, 55929, Note_on_c, 9, 42, 0
1, 56039, Note_on_c, 9, 36, 0
1, 56040, Note_on_c, 9, 44, 48
1, 56040, Note_on_c, 9, 36, 54
1, 56044, Note_on_c, 9, 44, 0
1, 56159, Note_on_c, 9, 36, 0
1, 56160, Note_on_c, 9, 52, 76
1, 56160, Note_on_c, 9, 36, 95
1, 56169, Note_on_c, 9, 52, 0
1, 56400, Note_on_c, 9, 42, 48
1, 56409, Note_on_c, 9, 42, 0
1, 56519, Note_on_c, 9, 36, 0
1, 56520, Note_on_c, 9, 36, 75
1, 56639, Note_on_c, 9, 36, 0
1, 56640, Note_on_c, 9, 40, 107
1, 56640, Note_on_c, 9, 42, 64
1, 56649, Note_on_c, 9, 42, 0
1, 56879, Note_on_c, 9, 40, 0
1, 56880, Note_on_c, 9, 42, 50
1, 56880, Note_on_c, 9, 36, 75
1, 56889, Note_on_c, 9, 42, 0
1, 57119, Note_on_c, 9, 36, 0
1, 57120, Note_on_c, 9, 42, 37
1, 57120, Note_on_c, 9, 36, 75
1, 57129, Note_on_c, 9, 42, 0
1, 57360, Note_on_c, 9, 42, 36
1, 57369, Note_on_c, 9, 42, 0
1, 57599, Note_on_c, 9, 36, 0
1, 57600, Note_on_c, 9, 40, 107
1, 57600, Note_on_c, 9, 42, 62
1, 57609, Note_on_c, 9, 42, 0
1, 57839, Note_on_c, 9, 40, 0
1, 57840, Note_on_c, 9, 46, 48
1, 57849, Note_on_c, 9, 46, 0
1, 58080, Note_on_c, 9, 42, 43
1, 58080, Note_on_c, 9, 36, 75
1, 58089, Note_on_c, 9, 42, 0
1, 58320, Note_on_c, 9, 42, 48
1, 58329, Note_on_c, 9, 42, 0
1, 58559, Note_on_c, 9, 36, 0
1, 58560, Note_on_c, 9, 40, 107
1, 58560, Note_on_c, 9, 42, 64
1, 58580, Note_on_c, 9, 42, 0
1, 58800, Note_on_c, 9, 44, 94
1, 58800, Note_on_c, 9, 36, 75
1, 58809, Note_on_c, 9, 44, 0
1, 59039, Note_on_c, 9, 40, 0
1, 59039, Note_on_c, 9, 36, 0
1, 59040, Note_on_c, 9, 52, 93
1, 59040, Note_on_c, 9, 36, 91
1, 59049, Note_on_c, 9, 52, 0
1, 59280, Note_on_c, 9, 42, 36
1, 59289, Note_on_c, 9, 42, 0
1, 59519, Note_on_c, 9, 36, 0
1, 59520, Note_on_c, 9, 40, 107
1, 59520, Note_on_c, 9, 42, 62
1, 59529, Note_on_c, 9, 42, 0
1, 59759, Note_on_c, 9, 40, 0
1, 59760, Note_on_c, 9, 42, 48
1, 59769, Note_on_c, 9, 42, 0
1, 60000, Note_on_c, 9, 42, 43
1, 60000, Note_on_c, 9, 36, 75
1, 60009, Note_on_c, 9, 42, 0
1, 60240, Note_on_c, 9, 42, 48
1, 60249, Note_on_c, 9, 42, 0
1, 60359, Note_on_c, 9, 36, 0
1, 60360, Note_on_c, 9, 36, 75
1, 60479, Note_on_c, 9, 36, 0
1, 60480, Note_on_c, 9, 40, 107
1, 60480, Note_on_c, 9, 42, 64
1, 60500, Note_on_c, 9, 42, 0
1, 60720, Note_on_c, 9, 44, 97
1, 60720, Note_on_c, 9, 36, 75
1, 60729, Note_on_c, 9, 44, 0
1, 60959, Note_on_c, 9, 40, 0
1, 60959, Note_on_c, 9, 36, 0
1, 60960, Note_on_c, 9, 57, 83
1, 60960, Note_on_c, 9, 36, 93
1, 60969, Note_on_c, 9, 57, 0
1, 61200, Note_on_c, 9, 40, 109
1, 61319, Note_on_c, 9, 40, 0
1, 61320, Note_on_c, 9, 40, 90
1, 61439, Note_on_c, 9, 36, 0
1, 61439, Note_on_c, 9, 40, 0
1, 61440, Note_on_c, 9, 40, 108
1, 61499, Note_on_c, 9, 40, 0
1, 61520, Note_on_c, 9, 50, 115
1, 61559, Note_on_c, 9, 50, 0
1, 61600, Note_on_c, 9, 47, 99
1, 61619, Note_on_c, 9, 47, 0
1, 61680, Note_on_c, 9, 40, 108
1, 61799, Note_on_c, 9, 40, 0
1, 61800, Note_on_c, 9, 40, 90
1, 61919, Note_on_c, 9, 40, 0
1, 61920, Note_on_c, 9, 42, 39
1, 61920, Note_on_c, 9, 49, 69
1, 61920, Note_on_c, 9, 36, 75
1, 61929, Note_on_c, 9, 42, 0
1, 61929, Note_on_c, 9, 49, 0
1, 62160, Note_on_c, 9, 42, 53
1, 62169, Note_on_c, 9, 42, 0
1, 62399, Note_on_c, 9, 36, 0
1, 62400, Note_on_c, 9, 42, 33
1, 62400, Note_on_c, 9, 42, 0
1, 62415, Note_on_c, 9, 40, 107
1, 62639, Note_on_c, 9, 40, 0
1, 62640, Note_on_c, 9, 42, 56
1, 62640, Note_on_c, 9, 36, 75
1, 62649, Note_on_c, 9, 42, 0
1, 62865, Note_on_c, 9, 42, 27
1, 62865, Note_on_c, 9, 42, 0
1, 62879, Note_on_c, 9, 36, 0
1, 62880, Note_on_c, 9, 36, 75
1, 63120, Note_on_c, 9, 42, 59
1, 63129, Note_on_c, 9, 42, 0
1, 63359, Note_on_c, 9, 36, 0
1, 63360, Note_on_c, 9, 42, 33
1, 63360, Note_on_c, 9, 42, 0
1, 63375, Note_on_c, 9, 40, 107
1, 63599, Note_on_c, 9, 40, 0
1, 63615, Note_on_c, 9, 42, 53
1, 63624, Note_on_c, 9, 42, 0
1, 63840, Note_on_c, 9, 36, 75
1, 63855, Note_on_c, 9, 42, 39
1, 63864, Note_on_c, 9, 42, 0
1, 64080, Note_on_c, 9, 42, 53
1, 64089, Note_on_c, 9, 42, 0
1, 64199, Note_on_c, 9, 36, 0
1, 64200, Note_on_c, 9, 36, 75
1, 64319, Note_on_c, 9, 36, 0
1, 64320, Note_on_c, 9, 42, 33
1, 64320, Note_on_c, 9, 42, 0
1, 64335, Note_on_c, 9, 40, 107
1, 64559, Note_on_c, 9, 40, 0
1, 64560, Note_on_c, 9, 42, 56
1, 64560, Note_on_c, 9, 36, 75
1, 64569, Note_on_c, 9, 42, 0
1, 64785, Note_on_c, 9, 42, 27
1, 64785, Note_on_c, 9, 42, 0
1, 64799, Note_on_c, 9, 36, 0
1, 64800, Note_on_c, 9, 36, 75
1, 65040, Note_on_c, 9, 42, 59
1, 65049, Note_on_c, 9, 42, 0
1, 65279, Note_on_c, 9, 36, 0
1, 65280, Note_on_c, 9, 42, 33
1, 65280, Note_on_c, 9, 42, 0
1, 65295, Note_on_c, 9, 40, 107
1, 65519, Note_on_c, 9, 40, 0
1, 65535, Note_on_c, 9, 42, 53
1, 65544, Note_on_c, 9, 42, 0
1, 65760, Note_on_c, 9, 49, 69
1, 65760, Note_on_c, 9, 49, 0
1, 65760, Note_on_c, 9, 36, 75
1, 65775, Note_on_c, 9, 42, 39
1, 65784, Note_on_c, 9, 42, 0
1, 66000, Note_on_c, 9, 42, 53
1, 66009, Note_on_c, 9, 42, 0
1, 66239, Note_on_c, 9, 36, 0
1, 66240, Note_on_c, 9, 42, 33
1, 66240, Note_on_c, 9, 42, 0
1, 66255, Note_on_c, 9, 40, 107
1, 66479, Note_on_c, 9, 40, 0
1, 66480, Note_on_c, 9, 42, 56
1, 66480, Note_on_c, 9, 36, 75
1, 66489, Note_on_c, 9, 42, 0
1, 66705, Note_on_c, 9, 42, 27
1, 66705, Note_on_c, 9, 42, 0
1, 66719, Note_on_c, 9, 36, 0
1, 66720, Note_on_c, 9, 36, 75
1, 66960, Note_on_c, 9, 42, 59
1, 66969, Note_on_c, 9, 42, 0
1, 67199, Note_on_c, 9, 36, 0
1, 67200, Note_on_c, 9, 42, 33
1, 67200, Note_on_c, 9, 42, 0
1, 67215, Note_on_c, 9, 40, 101
1, 67439, Note_on_c, 9, 40, 0
1, 67455, Note_on_c, 9, 42, 53
1, 67464, Note_on_c, 9, 42, 0
1, 67680, Note_on_c, 9, 36, 75
1, 67695, Note_on_c, 9, 42, 39
1, 67704, Note_on_c, 9, 42, 0
1, 67920, Note_on_c, 9, 42, 53
1, 67929, Note_on_c, 9, 42, 0
1, 68039, Note_on_c, 9, 36, 0
1, 68040, Note_on_c, 9, 36, 75
1, 68159, Note_on_c, 9, 36, 0
1, 68160, Note_on_c, 9, 42, 33
1, 68160, Note_on_c, 9, 42, 0
1, 68175, Note_on_c, 9, 40, 107
1, 68399, Note_on_c, 9, 40, 0
1, 68400, Note_on_c, 9, 42, 56
1, 68400, Note_on_c, 9, 36, 75
1, 68409, Note_on_c, 9, 42, 0
1, 68625, Note_on_c, 9, 42, 27
1, 68625, Note_on_c, 9, 42, 0
1, 68639, Note_on_c, 9, 36, 0
1, 68640, Note_on_c, 9, 36, 75
1, 68880, Note_on_c, 9, 42, 59
1, 68889, Note_on_c, 9, 42, 0
1, 69119, Note_on_c, 9, 36, 0
1, 69120, Note_on_c, 9, 42, 33
1, 69120, Note_on_c, 9, 42, 0
1, 69135, Note_on_c, 9, 40, 107
1, 69359, Note_on_c, 9, 40, 0
1, 69375, Note_on_c, 9, 42, 53
1, 69384, Note_on_c, 9, 42, 0
1, 69600, Note_on_c, 9, 49, 69
1, 69600, Note_on_c, 9, 49, 0
1, 69600, Note_on_c, 9, 36, 75
1, 69615, Note_on_c, 9, 42, 39
1, 69624, Note_on_c, 9, 42, 0
1, 69840, Note_on_c, 9, 42, 53
1, 69849, Note_on_c, 9, 42, 0
1, 70079, Note_on_c, 9, 36, 0
1, 70080, Note_on_c, 9, 42, 33
1, 70080, Note_on_c, 9, 42, 0
1, 70095, Note_on_c, 9, 40, 107
1, 70320, Note_on_c, 9, 44, 72
1, 70320, Note_on_c, 9, 36, 75
1, 70329, Note_on_c, 9, 44, 0
1, 70544, Note_on_c, 9, 40, 0
1, 70545, Note_on_c, 9, 46, 70
1, 70545, Note_on_c, 9, 46, 0
1, 70559, Note_on_c, 9, 36, 0
1, 70560, Note_on_c, 9, 36, 76
1, 70800, Note_on_c, 9, 42, 68
1, 70809, Note_on_c, 9, 42, 0
1, 71039, Note_on_c, 9, 36, 0
1, 71040, Note_on_c, 9, 42, 33
1, 71040, Note_on_c, 9, 42, 0
1, 71055, Note_on_c, 9, 40, 107
1, 71279, Note_on_c, 9, 40, 0
1, 71295, Note_on_c, 9, 42, 53
1, 71304, Note_on_c, 9, 42, 0
1, 71520, Note_on_c, 9, 36, 75
1, 71535, Note_on_c, 9, 42, 39
1, 71544, Note_on_c, 9, 42, 0
1, 71760, Note_on_c, 9, 42, 53
1, 71769, Note_on_c, 9, 42, 0
1, 71879, Note_on_c, 9, 36, 0
1, 71880, Note_on_c, 9, 36, 75
1, 71999, Note_on_c, 9, 36, 0
1, 72000, Note_on_c, 9, 42, 33
1, 72000, Note_on_c, 9, 42, 0
1, 72015, Note_on_c, 9, 40, 107
1, 72240, Note_on_c, 9, 44, 67
1, 72240, Note_on_c, 9, 36, 75
1, 72249, Note_on_c, 9, 44, 0
1, 72464, Note_on_c, 9, 40, 0
1, 72465, Note_on_c, 9, 46, 83
1, 72465, Note_on_c, 9, 46, 0
1, 72479, Note_on_c, 9, 36, 0
1, 72480, Note_on_c, 9, 36, 75
1, 72720, Note_on_c, 9, 42, 59
1, 72729, Note_on_c, 9, 42, 0
1, 72959, Note_on_c, 9, 36, 0
1, 72960, Note_on_c, 9, 42, 33
1, 72960, Note_on_c, 9, 42, 0
1, 72975, Note_on_c, 9, 40, 107
1, 73199, Note_on_c, 9, 40, 0
1, 73215, Note_on_c, 9, 42, 53
1, 73224, Note_on_c, 9, 42, 0
1, 73440, Note_on_c, 9, 49, 69
1, 73440, Note_on_c, 9, 49, 0
1, 73440, Note_on_c, 9, 36, 75
1, 73455, Note_on_c, 9, 42, 39
1, 73464, Note_on_c, 9, 42, 0
1, 73680, Note_on_c, 9, 42, 53
1, 73689, Note_on_c, 9, 42, 0
1, 73919, Note_on_c, 9, 36, 0
1, 73920, Note_on_c, 9, 42, 33
1, 73920, Note_on_c, 9, 42, 0
1, 73935, Note_on_c, 9, 40, 107
1, 74160, Note_on_c, 9, 44, 56
1, 74160, Note_on_c, 9, 36, 75
1, 74169, Note_on_c, 9, 44, 0
1, 74384, Note_on_c, 9, 40, 0
1, 74385, Note_on_c, 9, 46, 89
1, 74385, Note_on_c, 9, 46, 0
1, 74399, Note_on_c, 9, 36, 0
1, 74400, Note_on_c, 9, 36, 75
1, 74640, Note_on_c, 9, 42, 59
1, 74649, Note_on_c, 9, 42, 0
1, 74879, Note_on_c, 9, 36, 0
1, 74880, Note_on_c, 9, 42, 33
1, 74880, Note_on_c, 9, 42, 0
1, 74895, Note_on_c, 9, 40, 107
1, 75119, Note_on_c, 9, 40, 0
1, 75135, Note_on_c, 9, 44, 53
1, 75144, Note_on_c, 9, 44, 0
1, 75360, Note_on_c, 9, 36, 75
1, 75375, Note_on_c, 9, 52, 83
1, 75384, Note_on_c, 9, 52, 0
1, 75600, Note_on_c, 9, 42, 53
1, 75609, Note_on_c, 9, 42, 0
1, 75719, Note_on_c, 9, 36, 0
1, 75720, Note_on_c, 9, 36, 75
1, 75839, Note_on_c, 9, 36, 0
1, 75840, Note_on_c, 9, 42, 33
1, 75840, Note_on_c, 9, 42, 0
1, 75855, Note_on_c, 9, 40, 107
1, 76080, Note_on_c, 9, 44, 56
1, 76080, Note_on_c, 9, 36, 75
1, 76089, Note_on_c, 9, 44, 0
1, 76304, Note_on_c, 9, 40, 0
1, 76305, Note_on_c, 9, 46, 73
1, 76305, Note_on_c, 9, 46, 0
1, 76319, Note_on_c, 9, 36, 0
1, 76320, Note_on_c, 9, 36, 75
1, 76455, Note_on_c, 9, 40, 107
1, 76499, Note_on_c, 9, 40, 0
1, 76560, Note_on_c, 9, 42, 59
1, 76569, Note_on_c, 9, 42, 0
1, 76799, Note_on_c, 9, 36, 0
1, 76800, Note_on_c, 9, 42, 33
1, 76800, Note_on_c, 9, 42, 0
1, 76815, Note_on_c, 9, 40, 107
1, 77039, Note_on_c, 9, 40, 0
1, 77055, Note_on_c, 9, 40, 90
1, 77055, Note_on_c, 9, 42, 53
1, 77056, Note_on_c, 9, 42, 0
1, 77099, Note_on_c, 9, 40, 0
1, 77120, Note_on_c, 9, 48, 70
1, 77159, Note_on_c, 9, 48, 0
1, 77200, Note_on_c, 9, 47, 70
1, 77219, Note_on_c, 9, 47, 0
1, 77280, Note_on_c, 9, 49, 86
1, 77280, Note_on_c, 9, 36, 91
1, 77289, Note_on_c, 9, 49, 0
1, 77520, Note_on_c, 9, 42, 53
1, 77529, Note_on_c, 9, 42, 0
1, 77759, Note_on_c, 9, 36, 0
1, 77760, Note_on_c, 9, 42, 33
1, 77760, Note_on_c, 9, 42, 0
1, 77775, Note_on_c, 9, 40, 107
1, 77999, Note_on_c, 9, 40, 0
1, 78000, Note_on_c, 9, 42, 56
1, 78000, Note_on_c, 9, 36, 75
1, 78009, Note_on_c, 9, 42, 0
1, 78225, Note_on_c, 9, 42, 27
1, 78225, Note_on_c, 9, 42, 0
1, 78239, Note_on_c, 9, 36, 0
1, 78240, Note_on_c, 9, 36, 75
1, 78480, Note_on_c, 9, 42, 59
1, 78489, Note_on_c, 9, 42, 0
1, 78719, Note_on_c, 9, 36, 0
1, 78720, Note_on_c, 9, 42, 33
1, 78720, Note_on_c, 9, 42, 0
1, 78735, Note_on_c, 9, 40, 107
1, 78959, Note_on_c, 9, 40, 0
1, 78975, Note_on_c, 9, 42, 53
1, 78984, Note_on_c, 9, 42, 0
1, 79200, Note_on_c, 9, 36, 75
1, 79215, Note_on_c, 9, 42, 39
1, 79224, Note_on_c, 9, 42, 0
1, 79440, Note_on_c, 9, 42, 53
1, 79449, Note_on_c, 9, 42, 0
1, 79559, Note_on_c, 9, 36, 0
1, 79560, Note_on_c, 9, 36, 75
1, 79679, Note_on_c, 9, 36, 0
1, 79680, Note_on_c, 9, 42, 33
1, 79680, Note_on_c, 9, 42, 0
1, 79695, Note_on_c, 9, 40, 107
1, 79919, Note_on_c, 9, 40, 0
1, 79920, Note_on_c, 9, 42, 56
1, 79920, Note_on_c, 9, 36, 75
1, 79929, Note_on_c, 9, 42, 0
1, 80145, Note_on_c, 9, 42, 27
1, 80145, Note_on_c, 9, 42, 0
1, 80159, Note_on_c, 9, 36, 0
1, 80160, Note_on_c, 9, 36, 75
1, 80400, Note_on_c, 9, 42, 59
1, 80409, Note_on_c, 9, 42, 0
1, 80639, Note_on_c, 9, 36, 0
1, 80640, Note_on_c, 9, 42, 33
1, 80640, Note_on_c, 9, 42, 0
1, 80655, Note_on_c, 9, 40, 107
1, 80879, Note_on_c, 9, 40, 0
1, 80895, Note_on_c, 9, 42, 53
1, 80904, Note_on_c, 9, 42, 0
1, 81120, Note_on_c, 9, 36, 75
1, 81135, Note_on_c, 9, 42, 39
1, 81144, Note_on_c, 9, 42, 0
1, 81360, Note_on_c, 9, 42, 53
1, 81369, Note_on_c, 9, 42, 0
1, 81599, Note_on_c, 9, 36, 0
1, 81600, Note_on_c, 9, 42, 33
1, 81600, Note_on_c, 9, 42, 0
1, 81615, Note_on_c, 9, 40, 107
1, 81839, Note_on_c, 9, 40, 0
1, 81840, Note_on_c, 9, 42, 56
1, 81840, Note_on_c, 9, 36, 75
1, 81849, Note_on_c, 9, 42, 0
1, 82065, Note_on_c, 9, 42, 27
1, 82065, Note_on_c, 9, 42, 0
1, 82079, Note_on_c, 9, 36, 0
1, 82080, Note_on_c, 9, 36, 75
1, 82320, Note_on_c, 9, 42, 59
1, 82329, Note_on_c, 9, 42, 0
1, 82559, Note_on_c, 9, 36, 0
1, 82560, Note_on_c, 9, 42, 33
1, 82560, Note_on_c, 9, 42, 0
1, 82575, Note_on_c, 9, 40, 107
1, 82799, Note_on_c, 9, 40, 0
1, 82815, Note_on_c, 9, 42, 53
1, 82824, Note_on_c, 9, 42, 0
1, 83040, Note_on_c, 9, 36, 75
1, 83055, Note_on_c, 9, 42, 39
1, 83064, Note_on_c, 9, 42, 0
1, 83280, Note_on_c, 9, 42, 53
1, 83289, Note_on_c, 9, 42, 0
1, 83399, Note_on_c, 9, 36, 0
1, 83400, Note_on_c, 9, 36, 75
1, 83519, Note_on_c, 9, 36, 0
1, 83520, Note_on_c, 9, 42, 33
1, 83520, Note_on_c, 9, 42, 0
1, 83535, Note_on_c, 9, 40, 107
1, 83759, Note_on_c, 9, 40, 0
1, 83760, Note_on_c, 9, 42, 56
1, 83760, Note_on_c, 9, 36, 75
1, 83769, Note_on_c, 9, 42, 0
1, 83985, Note_on_c, 9, 42, 27
1, 83985, Note_on_c, 9, 42, 0
1, 83999, Note_on_c, 9, 36, 0
1, 84000, Note_on_c, 9, 36, 75
1, 84240, Note_on_c, 9, 42, 59
1, 84249, Note_on_c, 9, 42, 0
1, 84479, Note_on_c, 9, 36, 0
1, 84480, Note_on_c, 9, 42, 33
1, 84480, Note_on_c, 9, 42, 0
1, 84495, Note_on_c, 9, 40, 107
1, 84719, Note_on_c, 9, 40, 0
1, 84735, Note_on_c, 9, 42, 53
1, 84744, Note_on_c, 9, 42, 0
1, 84960, Note_on_c, 9, 36, 75
1, 84975, Note_on_c, 9, 42, 39
1, 84984, Note_on_c, 9, 42, 0
1, 85200, Note_on_c, 9, 42, 53
1, 85209, Note_on_c, 9, 42, 0
1, 85439, Note_on_c, 9, 36, 0
1, 85440, Note_on_c, 9, 42, 33
1, 85440, Note_on_c, 9, 42, 0
1, 85455, Note_on_c, 9, 40, 107
1, 85680, Note_on_c, 9, 44, 56
1, 85680, Note_on_c, 9, 36, 75
1, 85689, Note_on_c, 9, 44, 0
1, 85904, Note_on_c, 9, 40, 0
1, 85905, Note_on_c, 9, 46, 76
1, 85905, Note_on_c, 9, 46, 0
1, 85919, Note_on_c, 9, 36, 0
1, 85920, Note_on_c, 9, 36, 75
1, 86160, Note_on_c, 9, 42, 59
1, 86169, Note_on_c, 9, 42, 0
1, 86399, Note_on_c, 9, 36, 0
1, 86400, Note_on_c, 9, 42, 33
1, 86400, Note_on_c, 9, 42, 0
1, 86415, Note_on_c, 9, 40, 107
1, 86639, Note_on_c, 9, 40, 0
1, 86655, Note_on_c, 9, 42, 53
1, 86664, Note_on_c, 9, 42, 0
1, 86880, Note_on_c, 9, 36, 75
1, 86895, Note_on_c, 9, 42, 39
1, 86904, Note_on_c, 9, 42, 0
1, 87120, Note_on_c, 9, 42, 53
1, 87129, Note_on_c, 9, 42, 0
1, 87239, Note_on_c, 9, 36, 0
1, 87240, Note_on_c, 9, 36, 75
1, 87359, Note_on_c, 9, 36, 0
1, 87360, Note_on_c, 9, 42, 33
1, 87360, Note_on_c, 9, 42, 0
1, 87375, Note_on_c, 9, 40, 107
1, 87600, Note_on_c, 9, 44, 56
1, 87600, Note_on_c, 9, 36, 75
1, 87609, Note_on_c, 9, 44, 0
1, 87824, Note_on_c, 9, 40, 0
1, 87825, Note_on_c, 9, 46, 68
1, 87825, Note_on_c, 9, 46, 0
1, 87839, Note_on_c, 9, 36, 0
1, 87840, Note_on_c, 9, 36, 75
1, 88080, Note_on_c, 9, 42, 59
1, 88089, Note_on_c, 9, 42, 0
1, 88319, Note_on_c, 9, 36, 0
1, 88320, Note_on_c, 9, 42, 33
1, 88320, Note_on_c, 9, 42, 0
1, 88335, Note_on_c, 9, 40, 107
1, 88559, Note_on_c, 9, 40, 0
1, 88575, Note_on_c, 9, 42, 53
1, 88584, Note_on_c, 9, 42, 0
1, 88800, Note_on_c, 9, 36, 75
1, 88815, Note_on_c, 9, 42, 39
1, 88824, Note_on_c, 9, 42, 0
1, 89040, Note_on_c, 9, 42, 53
1, 89049, Note_on_c, 9, 42, 0
1, 89279, Note_on_c, 9, 36, 0
1, 89280, Note_on_c, 9, 42, 33
1, 89280, Note_on_c, 9, 42, 0
1, 89295, Note_on_c, 9, 40, 107
1, 89519, Note_on_c, 9, 40, 0
1, 89520, Note_on_c, 9, 42, 56
1, 89520, Note_on_c, 9, 36, 75
1, 89529, Note_on_c, 9, 42, 0
1, 89745, Note_on_c, 9, 46, 70
1, 89745, Note_on_c, 9, 46, 0
1, 89759, Note_on_c, 9, 36, 0
1, 89760, Note_on_c, 9, 36, 75
1, 90000, Note_on_c, 9, 42, 59
1, 90009, Note_on_c, 9, 42, 0
1, 90239, Note_on_c, 9, 36, 0
1, 90240, Note_on_c, 9, 42, 33
1, 90240, Note_on_c, 9, 42, 0
1, 90255, Note_on_c, 9, 40, 107
1, 90479, Note_on_c, 9, 40, 0
1, 90495, Note_on_c, 9, 44, 53
1, 90504, Note_on_c, 9, 44, 0
1, 90720, Note_on_c, 9, 36, 75
1, 90735, Note_on_c, 9, 46, 73
1, 90744, Note_on_c, 9, 46, 0
1, 90960, Note_on_c, 9, 42, 53
1, 90969, Note_on_c, 9, 42, 0
1, 91079, Note_on_c, 9, 36, 0
1, 91080, Note_on_c, 9, 36, 75
1, 91199, Note_on_c, 9, 36, 0
1, 91200, Note_on_c, 9, 42, 33
1, 91200, Note_on_c, 9, 42, 0
1, 91215, Note_on_c, 9, 40, 107
1, 91439, Note_on_c, 9, 40, 0
1, 91440, Note_on_c, 9, 46, 83
1, 91440, Note_on_c, 9, 36, 75
1, 91449, Note_on_c, 9, 46, 0
1, 91665, Note_on_c, 9, 42, 27
1, 91665, Note_on_c, 9, 42, 0
1, 91679, Note_on_c, 9, 36, 0
1, 91680, Note_on_c, 9, 36, 75
1, 91919, Note_on_c, 9, 36, 0
1, 91920, Note_on_c, 9, 44, 59
1, 91929, Note_on_c, 9, 44, 0
1, 92160, Note_on_c, 9, 46, 75
1, 92160, Note_on_c, 9, 46, 0
1, 92175, Note_on_c, 9, 40, 107
1, 92399, Note_on_c, 9, 40, 0
1, 92415, Note_on_c, 9, 42, 53
1, 92424, Note_on_c, 9, 42, 0
1, 92640, Note_on_c, 9, 42, 43
1, 92640, Note_on_c, 9, 49, 68
1, 92640, Note_on_c, 9, 36, 75
1, 92649, Note_on_c, 9, 42, 0
1, 92649, Note_on_c, 9, 49, 0
1, 92880, Note_on_c, 9, 42, 48
1, 92889, Note_on_c, 9, 42, 0
1, 93119, Note_on_c, 9, 36, 0
1, 93120, Note_on_c, 9, 40, 101
1, 93120, Note_on_c, 9, 42, 64
1, 93129, Note_on_c, 9, 42, 0
1, 93359, Note_on_c, 9, 40, 0
1, 93360, Note_on_c, 9, 42, 50
1, 93360, Note_on_c, 9, 49, 74
1, 93360, Note_on_c, 9, 36, 75
1, 93369, Note_on_c, 9, 42, 0
1, 93369, Note_on_c, 9, 49, 0
1, 93599, Note_on_c, 9, 36, 0
1, 93600, Note_on_c, 9, 42, 37
1, 93609, Note_on_c, 9, 42, 0
1, 93840, Note_on_c, 9, 42, 36
1, 93849, Note_on_c, 9, 42, 0
1, 94080, Note_on_c, 9, 40, 107
1, 94080, Note_on_c, 9, 42, 62
1, 94089, Note_on_c, 9, 42, 0
1, 94319, Note_on_c, 9, 40, 0
1, 94320, Note_on_c, 9, 42, 48
1, 94329, Note_on_c, 9, 42, 0
1, 94560, Note_on_c, 9, 42, 43
1, 94560, Note_on_c, 9, 36, 75
1, 94569, Note_on_c, 9, 42, 0
1, 94800, Note_on_c, 9, 42, 48
1, 94809, Note_on_c, 9, 42, 0
1, 94919, Note_on_c, 9, 36, 0
1, 94920, Note_on_c, 9, 36, 75
1, 95039, Note_on_c, 9, 36, 0
1, 95040, Note_on_c, 9, 40, 107
1, 95040, Note_on_c, 9, 42, 64
1, 95049, Note_on_c, 9, 42, 0
1, 95279, Note_on_c, 9, 40, 0
1, 95280, Note_on_c, 9, 42, 50
1, 95280, Note_on_c, 9, 36, 75
1, 95289, Note_on_c, 9, 42, 0
1, 95519, Note_on_c, 9, 36, 0
1, 95520, Note_on_c, 9, 42, 37
1, 95520, Note_on_c, 9, 36, 75
1, 95529, Note_on_c, 9, 42, 0
1, 95760, Note_on_c, 9, 42, 36
1, 95769, Note_on_c, 9, 42, 0
1, 95999, Note_on_c, 9, 36, 0
1, 96000, Note_on_c, 9, 40, 107
1, 96000, Note_on_c, 9, 42, 62
1, 96009, Note_on_c, 9, 42, 0
1, 96239, Note_on_c, 9, 40, 0
1, 96240, Note_on_c, 9, 46, 48
1, 96249, Note_on_c, 9, 46, 0
1, 96480, Note_on_c, 9, 42, 43
1, 96480, Note_on_c, 9, 49, 76
1, 96480, Note_on_c, 9, 36, 75
1, 96489, Note_on_c, 9, 42, 0
1, 96489, Note_on_c, 9, 49, 0
1, 96720, Note_on_c, 9, 42, 48
1, 96729, Note_on_c, 9, 42, 0
1, 96959, Note_on_c, 9, 36, 0
1, 96960, Note_on_c, 9, 40, 107
1, 96960, Note_on_c, 9, 42, 64
1, 96969, Note_on_c, 9, 42, 0
1, 97199, Note_on_c, 9, 40, 0
1, 97200, Note_on_c, 9, 42, 50
1, 97200, Note_on_c, 9, 49, 72
1, 97200, Note_on_c, 9, 36, 75
1, 97209, Note_on_c, 9, 42, 0
1, 97209, Note_on_c, 9, 49, 0
1, 97439, Note_on_c, 9, 36, 0
1, 97440, Note_on_c, 9, 42, 37
1, 97449, Note_on_c, 9, 42, 0
1, 97680, Note_on_c, 9, 42, 36
1, 97689, Note_on_c, 9, 42, 0
1, 97920, Note_on_c, 9, 40, 107
1, 97920, Note_on_c, 9, 42, 62
1, 97929, Note_on_c, 9, 42, 0
1, 98159, Note_on_c, 9, 40, 0
1, 98160, Note_on_c, 9, 42, 48
1, 98169, Note_on_c, 9, 42, 0
1, 98400, Note_on_c, 9, 42, 43
1, 98400, Note_on_c, 9, 49, 72
1, 98400, Note_on_c, 9, 36, 75
1, 98409, Note_on_c, 9, 42, 0
1, 98409, Note_on_c, 9, 49, 0
1, 98640, Note_on_c, 9, 42, 48
1, 98649, Note_on_c, 9, 42, 0
1, 98879, Note_on_c, 9, 36, 0
1, 98880, Note_on_c, 9, 40, 107
1, 98880, Note_on_c, 9, 42, 64
1, 98889, Note_on_c, 9, 42, 0
1, 99119, Note_on_c, 9, 40, 0
1, 99120, Note_on_c, 9, 42, 50
1, 99120, Note_on_c, 9, 49, 70
1, 99120, Note_on_c, 9, 36, 75
1, 99129, Note_on_c, 9, 42, 0
1, 99129, Note_on_c, 9, 49, 0
1, 99359, Note_on_c, 9, 36, 0
1, 99360, Note_on_c, 9, 42, 37
1, 99369, Note_on_c, 9, 42, 0
1, 99600, Note_on_c, 9, 42, 36
1, 99609, Note_on_c, 9, 42, 0
1, 99840, Note_on_c, 9, 40, 107
1, 99840, Note_on_c, 9, 47, 95
1, 99840, Note_on_c, 9, 42, 62
1, 99844, Note_on_c, 9, 42, 0
1, 99959, Note_on_c, 9, 40, 0
1, 99959, Note_on_c, 9, 47, 0
1, 99960, Note_on_c, 9, 45, 78
1, 100079, Note_on_c, 9, 45, 0
1, 100080, Note_on_c, 9, 41, 61
1, 100080, Note_on_c, 9, 42, 48
1, 100084, Note_on_c, 9, 42, 0
1, 100199, Note_on_c, 9, 41, 0
1, 100200, Note_on_c, 9, 41, 52
1, 100319, Note_on_c, 9, 41, 0
1, 100320, Note_on_c, 9, 42, 43
1, 100320, Note_on_c, 9, 49, 68
1, 100320, Note_on_c, 9, 36, 75
1, 100329, Note_on_c, 9, 42, 0
1, 100329, Note_on_c, 9, 49, 0
1, 100560, Note_on_c, 9, 42, 48
1, 100569, Note_on_c, 9, 42, 0
1, 100799, Note_on_c, 9, 36, 0
1, 100800, Note_on_c, 9, 40, 107
1, 100800, Note_on_c, 9, 42, 64
1, 100809, Note_on_c, 9, 42, 0
1, 101039, Note_on_c, 9, 40, 0
1, 101040, Note_on_c, 9, 42, 50
1, 101040, Note_on_c, 9, 49, 74
1, 101040, Note_on_c, 9, 36, 75
1, 101049, Note_on_c, 9, 42, 0
1, 101049, Note_on_c, 9, 49, 0
1, 101279, Note_on_c, 9, 36, 0
1, 101280, Note_on_c, 9, 42, 37
1, 101289, Note_on_c, 9, 42, 0
1, 101520, Note_on_c, 9, 42, 36
1, 101529, Note_on_c, 9, 42, 0
1, 101760, Note_on_c, 9, 40, 107
1, 101760, Note_on_c, 9, 42, 62
1, 101769, Note_on_c, 9, 42, 0
1, 101999, Note_on_c, 9, 40, 0
1, 102000, Note_on_c, 9, 42, 48
1, 102009, Note_on_c, 9, 42, 0
1, 102240, Note_on_c, 9, 42, 43
1, 102240, Note_on_c, 9, 36, 75
1, 102249, Note_on_c, 9, 42, 0
1, 102480, Note_on_c, 9, 42, 48
1, 102489, Note_on_c, 9, 42, 0
1, 102599, Note_on_c, 9, 36, 0
1, 102600, Note_on_c, 9, 36, 75
1, 102719, Note_on_c, 9, 36, 0
1, 102720, Note_on_c, 9, 40, 107
1, 102720, Note_on_c, 9, 42, 64
1, 102729, Note_on_c, 9, 42, 0
1, 102959, Note_on_c, 9, 40, 0
1, 102960, Note_on_c, 9, 42, 50
1, 102960, Note_on_c, 9, 36, 75
1, 102969, Note_on_c, 9, 42, 0
1, 103199, Note_on_c, 9, 36, 0
1, 103200, Note_on_c, 9, 42, 37
1, 103200, Note_on_c, 9, 36, 75
1, 103209, Note_on_c, 9, 42, 0
1, 103440, Note_on_c, 9, 42, 36
1, 103449, Note_on_c, 9, 42, 0
1, 103679, Note_on_c, 9, 36, 0
1, 103680, Note_on_c, 9, 40, 107
1, 103680, Note_on_c, 9, 42, 62
1, 103689, Note_on_c, 9, 42, 0
1, 103919, Note_on_c, 9, 40, 0
1, 103920, Note_on_c, 9, 46, 48
1, 103929, Note_on_c, 9, 46, 0
1, 104160, Note_on_c, 9, 42, 43
1, 104160, Note_on_c, 9, 49, 76
1, 104160, Note_on_c, 9, 36, 75
1, 104169, Note_on_c, 9, 42, 0
1, 104169, Note_on_c, 9, 49, 0
1, 104400, Note_on_c, 9, 42, 48
1, 104409, Note_on_c, 9, 42, 0
1, 104639, Note_on_c, 9, 36, 0
1, 104640, Note_on_c, 9, 40, 107
1, 104640, Note_on_c, 9, 42, 64
1, 104649, Note_on_c, 9, 42, 0
1, 104879, Note_on_c, 9, 40, 0
1, 104880, Note_on_c, 9, 42, 50
1, 104880, Note_on_c, 9, 49, 72
1, 104880, Note_on_c, 9, 36, 75
1, 104889, Note_on_c, 9, 42, 0
1, 104889, Note_on_c, 9, 49, 0
1, 105119, Note_on_c, 9, 36, 0
1, 105120, Note_on_c, 9, 42, 37
1, 105129, Note_on_c, 9, 42, 0
1, 105360, Note_on_c, 9, 42, 36
1, 105369, Note_on_c, 9, 42, 0
1, 105600, Note_on_c, 9, 40, 107
1, 105600, Note_on_c, 9, 42, 62
1, 105609, Note_on_c, 9, 42, 0
1, 105839, Note_on_c, 9, 40, 0
1, 105840, Note_on_c, 9, 42, 48
1, 105849, Note_on_c, 9, 42, 0
1, 106080, Note_on_c, 9, 42, 43
1, 106080, Note_on_c, 9, 49, 72
1, 106080, Note_on_c, 9, 36, 75
1, 106089, Note_on_c, 9, 42, 0
1, 106089, Note_on_c, 9, 49, 0
1, 106320, Note_on_c, 9, 42, 48
1, 106329, Note_on_c, 9, 42, 0
1, 106559, Note_on_c, 9, 36, 0
1, 106560, Note_on_c, 9, 40, 107
1, 106560, Note_on_c, 9, 42, 64
1, 106569, Note_on_c, 9, 42, 0
1, 106799, Note_on_c, 9, 40, 0
1, 106800, Note_on_c, 9, 42, 50
1, 106800, Note_on_c, 9, 49, 70
1, 106800, Note_on_c, 9, 36, 75
1, 106809, Note_on_c, 9, 42, 0
1, 106809, Note_on_c, 9, 49, 0
1, 107039, Note_on_c, 9, 36, 0
1, 107040, Note_on_c, 9, 42, 37
1, 107049, Note_on_c, 9, 42, 0
1, 107280, Note_on_c, 9, 40, 107
1, 107280, Note_on_c, 9, 42, 36
1, 107289, Note_on_c, 9, 42, 0
1, 107519, Note_on_c, 9, 40, 0
1, 107520, Note_on_c, 9, 40, 107
1, 107520, Note_on_c, 9, 42, 62
1, 107529, Note_on_c, 9, 42, 0
1, 107759, Note_on_c, 9, 40, 0
1, 107760, Note_on_c, 9, 40, 107
1, 107760, Note_on_c, 9, 42, 48
1, 107769, Note_on_c, 9, 42, 0
1, 107999, Note_on_c, 9, 40, 0
1, 108000, Note_on_c, 9, 42, 43
1, 108000, Note_on_c, 9, 36, 75
1, 108009, Note_on_c, 9, 42, 0
1, 108240, Note_on_c, 9, 42, 48
1, 108249, Note_on_c, 9, 42, 0
1, 108479, Note_on_c, 9, 36, 0
1, 108480, Note_on_c, 9, 40, 107
1, 108480, Note_on_c, 9, 42, 64
1, 108489, Note_on_c, 9, 42, 0
1, 108719, Note_on_c, 9, 40, 0
1, 108720, Note_on_c, 9, 42, 50
1, 108720, Note_on_c, 9, 36, 75
1, 108729, Note_on_c, 9, 42, 0
1, 108959, Note_on_c, 9, 36, 0
1, 108960, Note_on_c, 9, 42, 37
1, 108960, Note_on_c, 9, 36, 75
1, 108969, Note_on_c, 9, 42, 0
1, 109200, Note_on_c, 9, 42, 36
1, 109209, Note_on_c, 9, 42, 0
1, 109439, Note_on_c, 9, 36, 0
1, 109440, Note_on_c, 9, 40, 107
1, 109440, Note_on_c, 9, 42, 62
1, 109449, Note_on_c, 9, 42, 0
1, 109679, Note_on_c, 9, 40, 0
1, 109680, Note_on_c, 9, 42, 48
1, 109689, Note_on_c, 9, 42, 0
1, 109920, Note_on_c, 9, 42, 43
1, 109920, Note_on_c, 9, 36, 75
1, 109929, Note_on_c, 9, 42, 0
1, 110160, Note_on_c, 9, 42, 48
1, 110169, Note_on_c, 9, 42, 0
1, 110279, Note_on_c, 9, 36, 0
1, 110280, Note_on_c, 9, 36, 75
1, 110399, Note_on_c, 9, 36, 0
1, 110400, Note_on_c, 9, 40, 107
1, 110400, Note_on_c, 9, 42, 64
1, 110409, Note_on_c, 9, 42, 0
1, 110639, Note_on_c, 9, 40, 0
1, 110640, Note_on_c, 9, 42, 50
1, 110640, Note_on_c, 9, 36, 75
1, 110649, Note_on_c, 9, 42, 0
1, 110879, Note_on_c, 9, 36, 0
1, 110880, Note_on_c, 9, 42, 37
1, 110880, Note_on_c, 9, 36, 75
1, 110889, Note_on_c, 9, 42, 0
1, 111120, Note_on_c, 9, 42, 36
1, 111129, Note_on_c, 9, 42, 0
1, 111359, Note_on_c, 9, 36, 0
1, 111360, Note_on_c, 9, 40, 107
1, 111360, Note_on_c, 9, 42, 62
1, 111369, Note_on_c, 9, 42, 0
1, 111599, Note_on_c, 9, 40, 0
1, 111600, Note_on_c, 9, 46, 48
1, 111609, Note_on_c, 9, 46, 0
1, 111840, Note_on_c, 9, 42, 43
1, 111840, Note_on_c, 9, 36, 75
1, 111849, Note_on_c, 9, 42, 0
1, 112080, Note_on_c, 9, 42, 48
1, 112089, Note_on_c, 9, 42, 0
1, 112319, Note_on_c, 9, 36, 0
1, 112320, Note_on_c, 9, 40, 107
1, 112320, Note_on_c, 9, 42, 64
1, 112329, Note_on_c, 9, 42, 0
1, 112559, Note_on_c, 9, 40, 0
1, 112560, Note_on_c, 9, 42, 50
1, 112560, Note_on_c, 9, 36, 75
1, 112569, Note_on_c, 9, 42, 0
1, 112799, Note_on_c, 9, 36, 0
1, 112800, Note_on_c, 9, 42, 37
1, 112800, Note_on_c, 9, 36, 75
1, 112809, Note_on_c, 9, 42, 0
1, 113040, Note_on_c, 9, 42, 36
1, 113049, Note_on_c, 9, 42, 0
1, 113279, Note_on_c, 9, 36, 0
1, 113280, Note_on_c, 9, 40, 107
1, 113280, Note_on_c, 9, 42, 62
1, 113289, Note_on_c, 9, 42, 0
1, 113519, Note_on_c, 9, 40, 0
1, 113520, Note_on_c, 9, 42, 48
1, 113529, Note_on_c, 9, 42, 0
1, 113760, Note_on_c, 9, 42, 43
1, 113760, Note_on_c, 9, 36, 75
1, 113769, Note_on_c, 9, 42, 0
1, 114000, Note_on_c, 9, 42, 48
1, 114009, Note_on_c, 9, 42, 0
1, 114119, Note_on_c, 9, 36, 0
1, 114120, Note_on_c, 9, 36, 75
1, 114239, Note_on_c, 9, 36, 0
1, 114240, Note_on_c, 9, 40, 107
1, 114240, Note_on_c, 9, 42, 64
1, 114249, Note_on_c, 9, 42, 0
1, 114479, Note_on_c, 9, 40, 0
1, 114480, Note_on_c, 9, 42, 50
1, 114480, Note_on_c, 9, 36, 75
1, 114489, Note_on_c, 9, 42, 0
1, 114719, Note_on_c, 9, 36, 0
1, 114720, Note_on_c, 9, 42, 37
1, 114720, Note_on_c, 9, 36, 75
1, 114729, Note_on_c, 9, 42, 0
1, 114960, Note_on_c, 9, 42, 36
1, 114969, Note_on_c, 9, 42, 0
1, 115199, Note_on_c, 9, 36, 0
1, 115200, Note_on_c, 9, 40, 107
1, 115200, Note_on_c, 9, 42, 62
1, 115209, Note_on_c, 9, 42, 0
1, 115439, Note_on_c, 9, 40, 0
1, 115440, Note_on_c, 9, 42, 48
1, 115449, Note_on_c, 9, 42, 0
1, 115680, Note_on_c, 9, 42, 43
1, 115680, Note_on_c, 9, 36, 75
1, 115689, Note_on_c, 9, 42, 0
1, 115920, Note_on_c, 9, 42, 48
1, 115929, Note_on_c, 9, 42, 0
1, 116159, Note_on_c, 9, 36, 0
1, 116160, Note_on_c, 9, 40, 107
1, 116160, Note_on_c, 9, 42, 64
1, 116169, Note_on_c, 9, 42, 0
1, 116399, Note_on_c, 9, 40, 0
1, 116400, Note_on_c, 9, 42, 50
1, 116400, Note_on_c, 9, 36, 75
1, 116409, Note_on_c, 9, 42, 0
1, 116639, Note_on_c, 9, 36, 0
1, 116640, Note_on_c, 9, 42, 37
1, 116640, Note_on_c, 9, 36, 75
1, 116649, Note_on_c, 9, 42, 0
1, 116880, Note_on_c, 9, 42, 36
1, 116889, Note_on_c, 9, 42, 0
1, 117119, Note_on_c, 9, 36, 0
1, 117120, Note_on_c, 9, 40, 107
1, 117120, Note_on_c, 9, 42, 62
1, 117129, Note_on_c, 9, 42, 0
1, 117359, Note_on_c, 9, 40, 0
1, 117360, Note_on_c, 9, 42, 48
1, 117369, Note_on_c, 9, 42, 0
1, 117600, Note_on_c, 9, 42, 43
1, 117600, Note_on_c, 9, 36, 75
1, 117609, Note_on_c, 9, 42, 0
1, 117840, Note_on_c, 9, 42, 48
1, 117849, Note_on_c, 9, 42, 0
1, 117959, Note_on_c, 9, 36, 0
1, 117960, Note_on_c, 9, 36, 75
1, 118079, Note_on_c, 9, 36, 0
1, 118080, Note_on_c, 9, 40, 107
1, 118080, Note_on_c, 9, 42, 64
1, 118089, Note_on_c, 9, 42, 0
1, 118319, Note_on_c, 9, 40, 0
1, 118320, Note_on_c, 9, 42, 50
1, 118320, Note_on_c, 9, 36, 75
1, 118329, Note_on_c, 9, 42, 0
1, 118559, Note_on_c, 9, 36, 0
1, 118560, Note_on_c, 9, 42, 37
1, 118560, Note_on_c, 9, 36, 75
1, 118569, Note_on_c, 9, 42, 0
1, 118800, Note_on_c, 9, 42, 36
1, 118809, Note_on_c, 9, 42, 0
1, 119039, Note_on_c, 9, 36, 0
1, 119040, Note_on_c, 9, 40, 107
1, 119040, Note_on_c, 9, 42, 62
1, 119049, Note_on_c, 9, 42, 0
1, 119279, Note_on_c, 9, 40, 0
1, 119280, Note_on_c, 9, 46, 48
1, 119289, Note_on_c, 9, 46, 0
1, 119520, Note_on_c, 9, 42, 43
1, 119520, Note_on_c, 9, 36, 75
1, 119529, Note_on_c, 9, 42, 0
1, 119760, Note_on_c, 9, 42, 48
1, 119769, Note_on_c, 9, 42, 0
1, 119999, Note_on_c, 9, 36, 0
1, 120000, Note_on_c, 9, 40, 107
1, 120000, Note_on_c, 9, 42, 64
1, 120009, Note_on_c, 9, 42, 0
1, 120239, Note_on_c, 9, 40, 0
1, 120240, Note_on_c, 9, 42, 50
1, 120240, Note_on_c, 9, 36, 75
1, 120249, Note_on_c, 9, 42, 0
1, 120479, Note_on_c, 9, 36, 0
1, 120480, Note_on_c, 9, 42, 37
1, 120480, Note_on_c, 9, 36, 75
1, 120489, Note_on_c, 9, 42, 0
1, 120720, Note_on_c, 9, 42, 36
1, 120729, Note_on_c, 9, 42, 0
1, 120959, Note_on_c, 9, 36, 0
1, 120960, Note_on_c, 9, 40, 107
1, 120960, Note_on_c, 9, 42, 62
1, 120969, Note_on_c, 9, 42, 0
1, 121199, Note_on_c, 9, 40, 0
1, 121200, Note_on_c, 9, 42, 48
1, 121209, Note_on_c, 9, 42, 0
1, 121440, Note_on_c, 9, 42, 43
1, 121440, Note_on_c, 9, 36, 75
1, 121449, Note_on_c, 9, 42, 0
1, 121680, Note_on_c, 9, 42, 48
1, 121689, Note_on_c, 9, 42, 0
1, 121799, Note_on_c, 9, 36, 0
1, 121800, Note_on_c, 9, 36, 75
1, 121919, Note_on_c, 9, 36, 0
1, 121920, Note_on_c, 9, 40, 107
1, 121920, Note_on_c, 9, 42, 64
1, 121929, Note_on_c, 9, 42, 0
1, 122159, Note_on_c, 9, 40, 0
1, 122160, Note_on_c, 9, 42, 50
1, 122160, Note_on_c, 9, 36, 75
1, 122169, Note_on_c, 9, 42, 0
1, 122399, Note_on_c, 9, 36, 0
1, 122400, Note_on_c, 9, 42, 37
1, 122400, Note_on_c, 9, 36, 75
1, 122409, Note_on_c, 9, 42, 0
1, 122640, Note_on_c, 9, 42, 36
1, 122649, Note_on_c, 9, 42, 0
1, 122879, Note_on_c, 9, 36, 0
1, 122880, Note_on_c, 9, 40, 107
1, 122880, Note_on_c, 9, 42, 62
1, 122889, Note_on_c, 9, 42, 0
1, 123119, Note_on_c, 9, 40, 0
1, 123120, Note_on_c, 9, 42, 48
1, 123129, Note_on_c, 9, 42, 0
1, 123360, Note_on_c, 9, 42, 43
1, 123360, Note_on_c, 9, 36, 75
1, 123369, Note_on_c, 9, 42, 0
1, 123600, Note_on_c, 9, 42, 48
1, 123609, Note_on_c, 9, 42, 0
1, 123839, Note_on_c, 9, 36, 0
1, 123840, Note_on_c, 9, 40, 107
1, 123840, Note_on_c, 9, 42, 64
1, 123849, Note_on_c, 9, 42, 0
1, 124079, Note_on_c, 9, 40, 0
1, 124080, Note_on_c, 9, 42, 50
1, 124080, Note_on_c, 9, 36, 75
1, 124089, Note_on_c, 9, 42, 0
1, 124319, Note_on_c, 9, 36, 0
1, 124320, Note_on_c, 9, 42, 37
1, 124320, Note_on_c, 9, 36, 75
1, 124329, Note_on_c, 9, 42, 0
1, 124560, Note_on_c, 9, 42, 36
1, 124569, Note_on_c, 9, 42, 0
1, 124799, Note_on_c, 9, 36, 0
1, 124800, Note_on_c, 9, 40, 107
1, 124800, Note_on_c, 9, 42, 62
1, 124809, Note_on_c, 9, 42, 0
1, 125039, Note_on_c, 9, 40, 0
1, 125040, Note_on_c, 9, 42, 48
1, 125049, Note_on_c, 9, 42, 0
1, 125280, Note_on_c, 9, 42, 43
1, 125280, Note_on_c, 9, 36, 75
1, 125289, Note_on_c, 9, 42, 0
1, 125520, Note_on_c, 9, 42, 48
1, 125529, Note_on_c, 9, 42, 0
1, 125639, Note_on_c, 9, 36, 0
1, 125640, Note_on_c, 9, 36, 75
1, 125759, Note_on_c, 9, 36, 0
1, 125760, Note_on_c, 9, 40, 107
1, 125760, Note_on_c, 9, 42, 64
1, 125769, Note_on_c, 9, 42, 0
1, 125999, Note_on_c, 9, 40, 0
1, 126000, Note_on_c, 9, 42, 50
1, 126000, Note_on_c, 9, 36, 75
1, 126009, Note_on_c, 9, 42, 0
1, 126239, Note_on_c, 9, 36, 0
1, 126240, Note_on_c, 9, 42, 37
1, 126240, Note_on_c, 9, 36, 75
1, 126249, Note_on_c, 9, 42, 0
1, 126480, Note_on_c, 9, 42, 36
1, 126489, Note_on_c, 9, 42, 0
1, 126719, Note_on_c, 9, 36, 0
1, 126720, Note_on_c, 9, 40, 107
1, 126720, Note_on_c, 9, 42, 62
1, 126729, Note_on_c, 9, 42, 0
1, 126959, Note_on_c, 9, 40, 0
1, 126960, Note_on_c, 9, 46, 48
1, 126969, Note_on_c, 9, 46, 0
1, 127200, Note_on_c, 9, 42, 43
1, 127200, Note_on_c, 9, 36, 75
1, 127209, Note_on_c, 9, 42, 0
1, 127440, Note_on_c, 9, 42, 48
1, 127449, Note_on_c, 9, 42, 0
1, 127679, Note_on_c, 9, 36, 0
1, 127680, Note_on_c, 9, 40, 107
1, 127680, Note_on_c, 9, 42, 64
1, 127689, Note_on_c, 9, 42, 0
1, 127919, Note_on_c, 9, 40, 0
1, 127920, Note_on_c, 9, 42, 50
1, 127920, Note_on_c, 9, 36, 75
1, 127929, Note_on_c, 9, 42, 0
1, 128159, Note_on_c, 9, 36, 0
1, 128160, Note_on_c, 9, 42, 37
1, 128160, Note_on_c, 9, 36, 75
1, 128169, Note_on_c, 9, 42, 0
1, 128400, Note_on_c, 9, 42, 36
1, 128409, Note_on_c, 9, 42, 0
1, 128639, Note_on_c, 9, 36, 0
1, 128640, Note_on_c, 9, 40, 107
1, 128640, Note_on_c, 9, 42, 62
1, 128649, Note_on_c, 9, 42, 0
1, 128879, Note_on_c, 9, 40, 0
1, 128880, Note_on_c, 9, 42, 48
1, 128889, Note_on_c, 9, 42, 0
1, 129120, Note_on_c, 9, 42, 43
1, 129120, Note_on_c, 9, 36, 75
1, 129129, Note_on_c, 9, 42, 0
1, 129360, Note_on_c, 9, 42, 48
1, 129369, Note_on_c, 9, 42, 0
1, 129479, Note_on_c, 9, 36, 0
1, 129480, Note_on_c, 9, 36, 75
1, 129599, Note_on_c, 9, 36, 0
1, 129600, Note_on_c, 9, 40, 107
1, 129600, Note_on_c, 9, 42, 64
1, 129609, Note_on_c, 9, 42, 0
1, 129839, Note_on_c, 9, 40, 0
1, 129840, Note_on_c, 9, 42, 50
1, 129840, Note_on_c, 9, 36, 75
1, 129849, Note_on_c, 9, 42, 0
1, 130079, Note_on_c, 9, 36, 0
1, 130080, Note_on_c, 9, 42, 37
1, 130080, Note_on_c, 9, 36, 75
1, 130089, Note_on_c, 9, 42, 0
1, 130320, Note_on_c, 9, 42, 36
1, 130329, Note_on_c, 9, 42, 0
1, 130559, Note_on_c, 9, 36, 0
1, 130560, Note_on_c, 9, 40, 107
1, 130560, Note_on_c, 9, 42, 62
1, 130569, Note_on_c, 9, 42, 0
1, 130799, Note_on_c, 9, 40, 0
1, 130800, Note_on_c, 9, 42, 48
1, 130809, Note_on_c, 9, 42, 0
1, 131040, Note_on_c, 9, 42, 43
1, 131040, Note_on_c, 9, 36, 75
1, 131049, Note_on_c, 9, 42, 0
1, 131280, Note_on_c, 9, 42, 48
1, 131289, Note_on_c, 9, 42, 0
1, 131519, Note_on_c, 9, 36, 0
1, 131520, Note_on_c, 9, 40, 107
1, 131520, Note_on_c, 9, 42, 64
1, 131529, Note_on_c, 9, 42, 0
1, 131759, Note_on_c, 9, 40, 0
1, 131760, Note_on_c, 9, 42, 50
1, 131760, Note_on_c, 9, 36, 75
1, 131769, Note_on_c, 9, 42, 0
1, 131999, Note_on_c, 9, 36, 0
1, 132000, Note_on_c, 9, 42, 37
1, 132000, Note_on_c, 9, 36, 75
1, 132009, Note_on_c, 9, 42, 0
1, 132240, Note_on_c, 9, 42, 36
1, 132249, Note_on_c, 9, 42, 0
1, 132479, Note_on_c, 9, 36, 0
1, 132480, Note_on_c, 9, 40, 107
1, 132480, Note_on_c, 9, 42, 62
1, 132489, Note_on_c, 9, 42, 0
1, 132719, Note_on_c, 9, 40, 0
1, 132720, Note_on_c, 9, 42, 48
1, 132729, Note_on_c, 9, 42, 0
1, 132960, Note_on_c, 9, 42, 43
1, 132960, Note_on_c, 9, 36, 75
1, 132969, Note_on_c, 9, 42, 0
1, 133200, Note_on_c, 9, 42, 48
1, 133209, Note_on_c, 9, 42, 0
1, 133319, Note_on_c, 9, 36, 0
1, 133320, Note_on_c, 9, 36, 75
1, 133439, Note_on_c, 9, 36, 0
1, 133440, Note_on_c, 9, 40, 107
1, 133440, Note_on_c, 9, 42, 64
1, 133449, Note_on_c, 9, 42, 0
1, 133679, Note_on_c, 9, 40, 0
1, 133680, Note_on_c, 9, 42, 50
1, 133680, Note_on_c, 9, 36, 75
1, 133689, Note_on_c, 9, 42, 0
1, 133919, Note_on_c, 9, 36, 0
1, 133920, Note_on_c, 9, 42, 37
1, 133920, Note_on_c, 9, 36, 75
1, 133929, Note_on_c, 9, 42, 0
1, 134160, Note_on_c, 9, 42, 36
1, 134169, Note_on_c, 9, 42, 0
1, 134399, Note_on_c, 9, 36, 0
1, 134400, Note_on_c, 9, 40, 107
1, 134400, Note_on_c, 9, 42, 62
1, 134409, Note_on_c, 9, 42, 0
1, 134639, Note_on_c, 9, 40, 0
1, 134640, Note_on_c, 9, 46, 48
1, 134649, Note_on_c, 9, 46, 0
1, 134880, Note_on_c, 9, 42, 43
1, 134880, Note_on_c, 9, 36, 75
1, 134889, Note_on_c, 9, 42, 0
1, 135120, Note_on_c, 9, 42, 48
1, 135129, Note_on_c, 9, 42, 0
1, 135359, Note_on_c, 9, 36, 0
1, 135360, Note_on_c, 9, 40, 107
1, 135360, Note_on_c, 9, 42, 64
1, 135369, Note_on_c, 9, 42, 0
1, 135599, Note_on_c, 9, 40, 0
1, 135600, Note_on_c, 9, 42, 50
1, 135600, Note_on_c, 9, 36, 75
1, 135609, Note_on_c, 9, 42, 0
1, 135839, Note_on_c, 9, 36, 0
1, 135840, Note_on_c, 9, 42, 37
1, 135840, Note_on_c, 9, 36, 75
1, 135849, Note_on_c, 9, 42, 0
1, 136080, Note_on_c, 9, 42, 36
1, 136089, Note_on_c, 9, 42, 0
1, 136319, Note_on_c, 9, 36, 0
1, 136320, Note_on_c, 9, 40, 107
1, 136320, Note_on_c, 9, 42, 62
1, 136329, Note_on_c, 9, 42, 0
1, 136559, Note_on_c, 9, 40, 0
1, 136560, Note_on_c, 9, 42, 48
1, 136569, Note_on_c, 9, 42, 0
1, 136800, Note_on_c, 9, 42, 43
1, 136800, Note_on_c, 9, 36, 75
1, 136809, Note_on_c, 9, 42, 0
1, 137040, Note_on_c, 9, 42, 48
1, 137049, Note_on_c, 9, 42, 0
1, 137159, Note_on_c, 9, 36, 0
1, 137160, Note_on_c, 9, 36, 75
1, 137279, Note_on_c, 9, 36, 0
1, 137280, Note_on_c, 9, 40, 107
1, 137280, Note_on_c, 9, 42, 64
1, 137289, Note_on_c, 9, 42, 0
1, 137519, Note_on_c, 9, 40, 0
1, 137520, Note_on_c, 9, 42, 50
1, 137520, Note_on_c, 9, 36, 75
1, 137529, Note_on_c, 9, 42, 0
1, 137759, Note_on_c, 9, 36, 0
1, 137760, Note_on_c, 9, 42, 37
1, 137760, Note_on_c, 9, 36, 75
1, 137769, Note_on_c, 9, 42, 0
1, 138000, Note_on_c, 9, 42, 36
1, 138009, Note_on_c, 9, 42, 0
1, 138239, Note_on_c, 9, 36, 0
1, 138240, Note_on_c, 9, 40, 107
1, 138240, Note_on_c, 9, 42, 62
1, 138249, Note_on_c, 9, 42, 0
1, 138479, Note_on_c, 9, 40, 0
1, 138480, Note_on_c, 9, 42, 48
1, 138489, Note_on_c, 9, 42, 0
1, 138720, Note_on_c, 9, 42, 43
1, 138720, Note_on_c, 9, 36, 75
1, 138729, Note_on_c, 9, 42, 0
1, 138960, Note_on_c, 9, 42, 48
1, 138969, Note_on_c, 9, 42, 0
1, 139199, Note_on_c, 9, 36, 0
1, 139200, Note_on_c, 9, 40, 107
1, 139200, Note_on_c, 9, 42, 64
1, 139209, Note_on_c, 9, 42, 0
1, 139439, Note_on_c, 9, 40, 0
1, 139440, Note_on_c, 9, 42, 50
1, 139440, Note_on_c, 9, 36, 75
1, 139449, Note_on_c, 9, 42, 0
1, 139679, Note_on_c, 9, 36, 0
1, 139680, Note_on_c, 9, 42, 37
1, 139689, Note_on_c, 9, 42, 0
1, 139920, Note_on_c, 9, 42, 36
1, 139929, Note_on_c, 9, 42, 0
1, 140160, Note_on_c, 9, 40, 107
1, 140160, Note_on_c, 9, 42, 62
1, 140169, Note_on_c, 9, 42, 0
1, 140399, Note_on_c, 9, 40, 0
1, 140400, Note_on_c, 9, 42, 48
1, 140409, Note_on_c, 9, 42, 0
1, 140640, Note_on_c, 9, 42, 43
1, 140640, Note_on_c, 9, 36, 75
1, 140649, Note_on_c, 9, 42, 0
1, 140880, Note_on_c, 9, 42, 48
1, 140889, Note_on_c, 9, 42, 0
1, 140999, Note_on_c, 9, 36, 0
1, 141000, Note_on_c, 9, 36, 75
1, 141119, Note_on_c, 9, 36, 0
1, 141120, Note_on_c, 9, 40, 107
1, 141120, Note_on_c, 9, 42, 64
1, 141129, Note_on_c, 9, 42, 0
1, 141359, Note_on_c, 9, 40, 0
1, 141360, Note_on_c, 9, 42, 50
1, 141360, Note_on_c, 9, 36, 75
1, 141369, Note_on_c, 9, 42, 0
1, 141599, Note_on_c, 9, 36, 0
1, 141600, Note_on_c, 9, 42, 37
1, 141600, Note_on_c, 9, 36, 75
1, 141609, Note_on_c, 9, 42, 0
1, 141840, Note_on_c, 9, 42, 36
1, 141849, Note_on_c, 9, 42, 0
1, 142079, Note_on_c, 9, 36, 0
1, 142080, Note_on_c, 9, 40, 107
1, 142080, Note_on_c, 9, 42, 62
1, 142089, Note_on_c, 9, 42, 0
1, 142319, Note_on_c, 9, 40, 0
1, 142320, Note_on_c, 9, 46, 48
1, 142329, Note_on_c, 9, 46, 0
1, 142560, Note_on_c, 9, 42, 43
1, 142560, Note_on_c, 9, 36, 75
1, 142569, Note_on_c, 9, 42, 0
1, 142800, Note_on_c, 9, 42, 48
1, 142809, Note_on_c, 9, 42, 0
1, 143039, Note_on_c, 9, 36, 0
1, 143040, Note_on_c, 9, 40, 107
1, 143040, Note_on_c, 9, 42, 64
1, 143049, Note_on_c, 9, 42, 0
1, 143279, Note_on_c, 9, 40, 0
1, 143280, Note_on_c, 9, 42, 50
1, 143280, Note_on_c, 9, 36, 75
1, 143289, Note_on_c, 9, 42, 0
1, 143519, Note_on_c, 9, 36, 0
1, 143520, Note_on_c, 9, 42, 37
1, 143529, Note_on_c, 9, 42, 0
1, 143760, Note_on_c, 9, 42, 36
1, 143769, Note_on_c, 9, 42, 0
1, 144000, Note_on_c, 9, 40, 107
1, 144000, Note_on_c, 9, 42, 62
1, 144009, Note_on_c, 9, 42, 0
1, 144239, Note_on_c, 9, 40, 0
1, 144240, Note_on_c, 9, 42, 48
1, 144249, Note_on_c, 9, 42, 0
1, 144480, Note_on_c, 9, 42, 43
1, 144480, Note_on_c, 9, 36, 75
1, 144489, Note_on_c, 9, 42, 0
1, 144720, Note_on_c, 9, 42, 48
1, 144729, Note_on_c, 9, 42, 0
1, 144839, Note_on_c, 9, 36, 0
1, 144840, Note_on_c, 9, 36, 75
1, 144959, Note_on_c, 9, 36, 0
1, 144960, Note_on_c, 9, 40, 107
1, 144960, Note_on_c, 9, 42, 64
1, 144969, Note_on_c, 9, 42, 0
1, 145199, Note_on_c, 9, 40, 0
1, 145200, Note_on_c, 9, 42, 50
1, 145200, Note_on_c, 9, 36, 75
1, 145209, Note_on_c, 9, 42, 0
1, 145439, Note_on_c, 9, 36, 0
1, 145440, Note_on_c, 9, 42, 37
1, 145440, Note_on_c, 9, 36, 75
1, 145449, Note_on_c, 9, 42, 0
1, 145680, Note_on_c, 9, 42, 36
1, 145689, Note_on_c, 9, 42, 0
1, 145919, Note_on_c, 9, 36, 0
1, 145920, Note_on_c, 9, 40, 107
1, 145920, Note_on_c, 9, 42, 62
1, 145929, Note_on_c, 9, 42, 0
1, 146159, Note_on_c, 9, 40, 0
1, 146160, Note_on_c, 9, 42, 48
1, 146169, Note_on_c, 9, 42, 0
1, 146400, Note_on_c, 9, 42, 43
1, 146400, Note_on_c, 9, 36, 75
1, 146409, Note_on_c, 9, 42, 0
1, 146640, Note_on_c, 9, 42, 48
1, 146649, Note_on_c, 9, 42, 0
1, 146879, Note_on_c, 9, 36, 0
1, 146880, Note_on_c, 9, 40, 107
1, 146880, Note_on_c, 9, 42, 64
1, 146889, Note_on_c, 9, 42, 0
1, 147119, Note_on_c, 9, 40, 0
1, 147120, Note_on_c, 9, 42, 50
1, 147120, Note_on_c, 9, 36, 75
1, 147129, Note_on_c, 9, 42, 0
1, 147359, Note_on_c, 9, 36, 0
1, 147360, Note_on_c, 9, 42, 37
1, 147369, Note_on_c, 9, 42, 0
1, 147600, Note_on_c, 9, 42, 36
1, 147609, Note_on_c, 9, 42, 0
1, 147840, Note_on_c, 9, 40, 107
1, 147840, Note_on_c, 9, 42, 62
1, 147849, Note_on_c, 9, 42, 0
1, 148079, Note_on_c, 9, 40, 0
1, 148080, Note_on_c, 9, 42, 48
1, 148089, Note_on_c, 9, 42, 0
1, 148320, Note_on_c, 9, 42, 43
1, 148320, Note_on_c, 9, 36, 75
1, 148329, Note_on_c, 9, 42, 0
1, 148560, Note_on_c, 9, 42, 48
1, 148569, Note_on_c, 9, 42, 0
1, 148679, Note_on_c, 9, 36, 0
1, 148680, Note_on_c, 9, 36, 75
1, 148799, Note_on_c, 9, 36, 0
1, 148800, Note_on_c, 9, 40, 107
1, 148800, Note_on_c, 9, 42, 64
1, 148809, Note_on_c, 9, 42, 0
1, 149039, Note_on_c, 9, 40, 0
1, 149040, Note_on_c, 9, 42, 50
1, 149040, Note_on_c, 9, 36, 75
1, 149049, Note_on_c, 9, 42, 0
1, 149279, Note_on_c, 9, 36, 0
1, 149280, Note_on_c, 9, 42, 37
1, 149280, Note_on_c, 9, 36, 75
1, 149289, Note_on_c, 9, 42, 0
1, 149520, Note_on_c, 9, 42, 36
1, 149529, Note_on_c, 9, 42, 0
1, 149759, Note_on_c, 9, 36, 0
1, 149760, Note_on_c, 9, 40, 107
1, 149760, Note_on_c, 9, 42, 62
1, 149769, Note_on_c, 9, 42, 0
1, 149999, Note_on_c, 9, 40, 0
1, 150000, Note_on_c, 9, 46, 48
1, 150009, Note_on_c, 9, 46, 0
1, 150240, Note_on_c, 9, 42, 43
1, 150240, Note_on_c, 9, 36, 75
1, 150249, Note_on_c, 9, 42, 0
1, 150480, Note_on_c, 9, 42, 48
1, 150489, Note_on_c, 9, 42, 0
1, 150719, Note_on_c, 9, 36, 0
1, 150720, Note_on_c, 9, 40, 107
1, 150720, Note_on_c, 9, 42, 64
1, 150729, Note_on_c, 9, 42, 0
1, 150959, Note_on_c, 9, 40, 0
1, 150960, Note_on_c, 9, 42, 50
1, 150960, Note_on_c, 9, 36, 75
1, 150969, Note_on_c, 9, 42, 0
1, 151199, Note_on_c, 9, 36, 0
1, 151200, Note_on_c, 9, 42, 37
1, 151209, Note_on_c, 9, 42, 0
1, 151440, Note_on_c, 9, 42, 36
1, 151449, Note_on_c, 9, 42, 0
1, 151680, Note_on_c, 9, 40, 107
1, 151680, Note_on_c, 9, 42, 62
1, 151689, Note_on_c, 9, 42, 0
1, 151919, Note_on_c, 9, 40, 0
1, 151920, Note_on_c, 9, 42, 48
1, 151929, Note_on_c, 9, 42, 0
1, 152160, Note_on_c, 9, 42, 43
1, 152160, Note_on_c, 9, 36, 75
1, 152169, Note_on_c, 9, 42, 0
1, 152400, Note_on_c, 9, 42, 48
1, 152409, Note_on_c, 9, 42, 0
1, 152519, Note_on_c, 9, 36, 0
1, 152520, Note_on_c, 9, 36, 75
1, 152639, Note_on_c, 9, 36, 0
1, 152640, Note_on_c, 9, 40, 107
1, 152640, Note_on_c, 9, 42, 64
1, 152649, Note_on_c, 9, 42, 0
1, 152879, Note_on_c, 9, 40, 0
1, 152880, Note_on_c, 9, 42, 50
1, 152880, Note_on_c, 9, 36, 75
1, 152889, Note_on_c, 9, 42, 0
1, 153119, Note_on_c, 9, 36, 0
1, 153120, Note_on_c, 9, 42, 37
1, 153120, Note_on_c, 9, 36, 75
1, 153129, Note_on_c, 9, 42, 0
1, 153360, Note_on_c, 9, 42, 36
1, 153369, Note_on_c, 9, 42, 0
1, 153599, Note_on_c, 9, 36, 0
1, 153600, Note_on_c, 9, 40, 107
1, 153600, Note_on_c, 9, 42, 62
1, 153609, Note_on_c, 9, 42, 0
1, 153839, Note_on_c, 9, 40, 0
1, 153840, Note_on_c, 9, 42, 48
1, 153849, Note_on_c, 9, 42, 0
1, 154080, Note_on_c, 9, 42, 43
1, 154080, Note_on_c, 9, 36, 75
1, 154089, Note_on_c, 9, 42, 0
1, 154320, Note_on_c, 9, 42, 48
1, 154329, Note_on_c, 9, 42, 0
1, 154559, Note_on_c, 9, 36, 0
1, 154560, Note_on_c, 9, 40, 107
1, 154560, Note_on_c, 9, 42, 64
1, 154569, Note_on_c, 9, 42, 0
1, 154799, Note_on_c, 9, 40, 0
1, 154800, Note_on_c, 9, 42, 50
1, 154800, Note_on_c, 9, 36, 75
1, 154809, Note_on_c, 9, 42, 0
1, 155039, Note_on_c, 9, 36, 0
1, 155040, Note_on_c, 9, 42, 37
1, 155049, Note_on_c, 9, 42, 0
1, 155280, Note_on_c, 9, 42, 36
1, 155289, Note_on_c, 9, 42, 0
1, 155520, Note_on_c, 9, 40, 107
1, 155520, Note_on_c, 9, 42, 62
1, 155529, Note_on_c, 9, 42, 0
1, 155759, Note_on_c, 9, 40, 0
1, 155760, Note_on_c, 9, 42, 48
1, 155769, Note_on_c, 9, 42, 0
1, 156000, Note_on_c, 9, 42, 43
1, 156000, Note_on_c, 9, 36, 75
1, 156009, Note_on_c, 9, 42, 0
1, 156240, Note_on_c, 9, 42, 48
1, 156249, Note_on_c, 9, 42, 0
1, 156359, Note_on_c, 9, 36, 0
1, 156360, Note_on_c, 9, 36, 75
1, 156479, Note_on_c, 9, 36, 0
1, 156480, Note_on_c, 9, 40, 107
1, 156480, Note_on_c, 9, 42, 64
1, 156489, Note_on_c, 9, 42, 0
1, 156719, Note_on_c, 9, 40, 0
1, 156720, Note_on_c, 9, 42, 50
1, 156720, Note_on_c, 9, 36, 75
1, 156729, Note_on_c, 9, 42, 0
1, 156959, Note_on_c, 9, 36, 0
1, 156960, Note_on_c, 9, 42, 37
1, 156960, Note_on_c, 9, 36, 75
1, 156969, Note_on_c, 9, 42, 0
1, 157200, Note_on_c, 9, 42, 36
1, 157209, Note_on_c, 9, 42, 0
1, 157439, Note_on_c, 9, 36, 0
1, 157440, Note_on_c, 9, 40, 107
1, 157440, Note_on_c, 9, 42, 62
1, 157449, Note_on_c, 9, 42, 0
1, 157679, Note_on_c, 9, 40, 0
1, 157680, Note_on_c, 9, 46, 48
1, 157689, Note_on_c, 9, 46, 0
1, 157920, Note_on_c, 9, 42, 43
1, 157920, Note_on_c, 9, 36, 75
1, 157929, Note_on_c, 9, 42, 0
1, 158160, Note_on_c, 9, 42, 48
1, 158169, Note_on_c, 9, 42, 0
1, 158399, Note_on_c, 9, 36, 0
1, 158400, Note_on_c, 9, 40, 107
1, 158400, Note_on_c, 9, 42, 64
1, 158409, Note_on_c, 9, 42, 0
1, 158639, Note_on_c, 9, 40, 0
1, 158640, Note_on_c, 9, 42, 50
1, 158640, Note_on_c, 9, 36, 75
1, 158649, Note_on_c, 9, 42, 0
1, 158879, Note_on_c, 9, 36, 0
1, 158880, Note_on_c, 9, 42, 37
1, 158889, Note_on_c, 9, 42, 0
1, 159120, Note_on_c, 9, 42, 36
1, 159129, Note_on_c, 9, 42, 0
1, 159360, Note_on_c, 9, 40, 107
1, 159360, Note_on_c, 9, 42, 62
1, 159369, Note_on_c, 9, 42, 0
1, 159599, Note_on_c, 9, 40, 0
1, 159600, Note_on_c, 9, 42, 48
1, 159609, Note_on_c, 9, 42, 0
1, 159840, Note_on_c, 9, 42, 43
1, 159840, Note_on_c, 9, 36, 75
1, 159849, Note_on_c, 9, 42, 0
1, 160080, Note_on_c, 9, 42, 48
1, 160089, Note_on_c, 9, 42, 0
1, 160199, Note_on_c, 9, 36, 0
1, 160200, Note_on_c, 9, 36, 75
1, 160319, Note_on_c, 9, 36, 0
1, 160320, Note_on_c, 9, 40, 107
1, 160320, Note_on_c, 9, 42, 64
1, 160329, Note_on_c, 9, 42, 0
1, 160559, Note_on_c, 9, 40, 0
1, 160560, Note_on_c, 9, 42, 50
1, 160560, Note_on_c, 9, 36, 75
1, 160569, Note_on_c, 9, 42, 0
1, 160799, Note_on_c, 9, 36, 0
1, 160800, Note_on_c, 9, 42, 37
1, 160800, Note_on_c, 9, 36, 75
1, 160809, Note_on_c, 9, 42, 0
1, 161040, Note_on_c, 9, 42, 36
1, 161049, Note_on_c, 9, 42, 0
1, 161279, Note_on_c, 9, 36, 0
1, 161280, Note_on_c, 9, 40, 107
1, 161280, Note_on_c, 9, 42, 62
1, 161289, Note_on_c, 9, 42, 0
1, 161519, Note_on_c, 9, 40, 0
1, 161520, Note_on_c, 9, 42, 48
1, 161529, Note_on_c, 9, 42, 0
1, 161760, Note_on_c, 9, 42, 43
1, 161760, Note_on_c, 9, 36, 75
1, 161769, Note_on_c, 9, 42, 0
1, 162000, Note_on_c, 9, 42, 48
1, 162009, Note_on_c, 9, 42, 0
1, 162239, Note_on_c, 9, 36, 0
1, 162240, Note_on_c, 9, 40, 107
1, 162240, Note_on_c, 9, 42, 64
1, 162249, Note_on_c, 9, 42, 0
1, 162479, Note_on_c, 9, 40, 0
1, 162480, Note_on_c, 9, 42, 50
1, 162480, Note_on_c, 9, 36, 75
1, 162489, Note_on_c, 9, 42, 0
1, 162719, Note_on_c, 9, 36, 0
1, 162720, Note_on_c, 9, 42, 37
1, 162729, Note_on_c, 9, 42, 0
1, 162960, Note_on_c, 9, 42, 36
1, 162969, Note_on_c, 9, 42, 0
1, 163200, Note_on_c, 9, 40, 107
1, 163200, Note_on_c, 9, 42, 62
1, 163209, Note_on_c, 9, 42, 0
1, 163439, Note_on_c, 9, 40, 0
1, 163440, Note_on_c, 9, 42, 48
1, 163449, Note_on_c, 9, 42, 0
1, 163680, Note_on_c, 9, 42, 43
1, 163680, Note_on_c, 9, 36, 75
1, 163689, Note_on_c, 9, 42, 0
1, 163920, Note_on_c, 9, 42, 48
1, 163929, Note_on_c, 9, 42, 0
1, 164039, Note_on_c, 9, 36, 0
1, 164040, Note_on_c, 9, 36, 75
1, 164159, Note_on_c, 9, 36, 0
1, 164160, Note_on_c, 9, 40, 107
1, 164160, Note_on_c, 9, 42, 64
1, 164169, Note_on_c, 9, 42, 0
1, 164399, Note_on_c, 9, 40, 0
1, 164400, Note_on_c, 9, 42, 50
1, 164400, Note_on_c, 9, 36, 75
1, 164409, Note_on_c, 9, 42, 0
1, 164639, Note_on_c, 9, 36, 0
1, 164640, Note_on_c, 9, 42, 37
1, 164640, Note_on_c, 9, 36, 75
1, 164649, Note_on_c, 9, 42, 0
1, 164880, Note_on_c, 9, 42, 36
1, 164889, Note_on_c, 9, 42, 0
1, 165119, Note_on_c, 9, 36, 0
1, 165120, Note_on_c, 9, 40, 107
1, 165120, Note_on_c, 9, 42, 62
1, 165129, Note_on_c, 9, 42, 0
1, 165359, Note_on_c, 9, 40, 0
1, 165360, Note_on_c, 9, 46, 48
1, 165369, Note_on_c, 9, 46, 0
1, 165600, Note_on_c, 9, 42, 43
1, 165600, Note_on_c, 9, 36, 75
1, 165609, Note_on_c, 9, 42, 0
1, 165840, Note_on_c, 9, 42, 48
1, 165849, Note_on_c, 9, 42, 0
1, 166079, Note_on_c, 9, 36, 0
1, 166080, Note_on_c, 9, 40, 107
1, 166080, Note_on_c, 9, 42, 64
1, 166089, Note_on_c, 9, 42, 0
1, 166319, Note_on_c, 9, 40, 0
1, 166320, Note_on_c, 9, 42, 50
1, 166320, Note_on_c, 9, 36, 75
1, 166329, Note_on_c, 9, 42, 0
1, 166559, Note_on_c, 9, 36, 0
1, 166560, Note_on_c, 9, 42, 37
1, 166569, Note_on_c, 9, 42, 0
1, 166800, Note_on_c, 9, 42, 36
1, 166809, Note_on_c, 9, 42, 0
1, 167040, Note_on_c, 9, 40, 107
1, 167040, Note_on_c, 9, 42, 62
1, 167049, Note_on_c, 9, 42, 0
1, 167279, Note_on_c, 9, 40, 0
1, 167280, Note_on_c, 9, 42, 48
1, 167289, Note_on_c, 9, 42, 0
1, 167520, Note_on_c, 9, 42, 43
1, 167520, Note_on_c, 9, 36, 75
1, 167529, Note_on_c, 9, 42, 0
1, 167760, Note_on_c, 9, 42, 48
1, 167769, Note_on_c, 9, 42, 0
1, 167879, Note_on_c, 9, 36, 0
1, 167880, Note_on_c, 9, 36, 75
1, 167999, Note_on_c, 9, 36, 0
1, 168000, Note_on_c, 9, 40, 107
1, 168000, Note_on_c, 9, 42, 64
1, 168009, Note_on_c, 9, 42, 0
1, 168239, Note_on_c, 9, 40, 0
1, 168240, Note_on_c, 9, 42, 50
1, 168240, Note_on_c, 9, 36, 75
1, 168249, Note_on_c, 9, 42, 0
1, 168479, Note_on_c, 9, 36, 0
1, 168480, Note_on_c, 9, 42, 37
1, 168480, Note_on_c, 9, 36, 75
1, 168489, Note_on_c, 9, 42, 0
1, 168720, Note_on_c, 9, 42, 36
1, 168729, Note_on_c, 9, 42, 0
1, 168959, Note_on_c, 9, 36, 0
1, 168960, Note_on_c, 9, 40, 107
1, 168960, Note_on_c, 9, 42, 62
1, 168969, Note_on_c, 9, 42, 0
1, 169199, Note_on_c, 9, 40, 0
1, 169200, Note_on_c, 9, 42, 48
1, 169209, Note_on_c, 9, 42, 0
1, 169440, Note_on_c, 9, 40, 107
1, 169919, Note_on_c, 9, 40, 0
1, 169920, Note_on_c, 9, 42, 72
1, 169920, Note_on_c, 9, 36, 75
1, 169929, Note_on_c, 9, 42, 0
1, 170160, Note_on_c, 9, 42, 50
1, 170169, Note_on_c, 9, 42, 0
1, 170399, Note_on_c, 9, 36, 0
1, 170400, Note_on_c, 9, 42, 70
1, 170400, Note_on_c, 9, 36, 75
1, 170409, Note_on_c, 9, 42, 0
1, 170640, Note_on_c, 9, 42, 50
1, 170649, Note_on_c, 9, 42, 0
1, 170879, Note_on_c, 9, 36, 0
1, 170880, Note_on_c, 9, 42, 66
1, 170880, Note_on_c, 9, 36, 75
1, 170889, Note_on_c, 9, 42, 0
1, 171120, Note_on_c, 9, 42, 50
1, 171129, Note_on_c, 9, 42, 0
1, 171359, Note_on_c, 9, 36, 0
1, 171360, Note_on_c, 9, 42, 68
1, 171360, Note_on_c, 9, 36, 75
1, 171364, Note_on_c, 9, 42, 0
1, 171480, Note_on_c, 9, 42, 31
1, 171484, Note_on_c, 9, 42, 0
1, 171600, Note_on_c, 9, 42, 50
1, 171604, Note_on_c, 9, 42, 0
1, 171720, Note_on_c, 9, 42, 29
1, 171724, Note_on_c, 9, 42, 0
1, 171839, Note_on_c, 9, 36, 0
1, 171840, Note_on_c, 9, 42, 70
1, 171840, Note_on_c, 9, 36, 75
1, 171844, Note_on_c, 9, 42, 0
1, 171960, Note_on_c, 9, 42, 29
1, 171964, Note_on_c, 9, 42, 0
1, 172080, Note_on_c, 9, 42, 41
1, 172084, Note_on_c, 9, 42, 0
1, 172200, Note_on_c, 9, 42, 26
1, 172204, Note_on_c, 9, 42, 0
1, 172319, Note_on_c, 9, 36, 0
1, 172320, Note_on_c, 9, 42, 66
1, 172320, Note_on_c, 9, 36, 75
1, 172324, Note_on_c, 9, 42, 0
1, 172440, Note_on_c, 9, 42, 23
1, 172444, Note_on_c, 9, 42, 0
1, 172560, Note_on_c, 9, 42, 58
1, 172564, Note_on_c, 9, 42, 0
1, 172680, Note_on_c, 9, 42, 26
1, 172684, Note_on_c, 9, 42, 0
1, 172799, Note_on_c, 9, 36, 0
1, 172800, Note_on_c, 9, 42, 70
1, 172800, Note_on_c, 9, 36, 75
1, 172804, Note_on_c, 9, 42, 0
1, 172920, Note_on_c, 9, 42, 26
1, 172929, Note_on_c, 9, 42, 0
1, 173039, Note_on_c, 9, 36, 0
1, 173040, Note_on_c, 9, 44, 75
1, 173049, Note_on_c, 9, 44, 0
1, 173160, Note_on_c, 9, 42, 29
1, 173164, Note_on_c, 9, 42, 0
1, 173280, Note_on_c, 9, 42, 68
1, 173280, Note_on_c, 9, 36, 75
1, 173284, Note_on_c, 9, 42, 0
1, 173400, Note_on_c, 9, 42, 31
1, 173404, Note_on_c, 9, 42, 0
1, 173520, Note_on_c, 9, 42, 50
1, 173524, Note_on_c, 9, 42, 0
1, 173640, Note_on_c, 9, 42, 29
1, 173644, Note_on_c, 9, 42, 0
1, 173759, Note_on_c, 9, 36, 0
1, 173760, Note_on_c, 9, 42, 70
1, 173760, Note_on_c, 9, 36, 75
1, 173764, Note_on_c, 9, 42, 0
1, 173880, Note_on_c, 9, 42, 29
1, 173884, Note_on_c, 9, 42, 0
1, 174000, Note_on_c, 9, 42, 41
1, 174004, Note_on_c, 9, 42, 0
1, 174120, Note_on_c, 9, 42, 26
1, 174124, Note_on_c, 9, 42, 0
1, 174239, Note_on_c, 9, 36, 0
1, 174240, Note_on_c, 9, 42, 66
1, 174240, Note_on_c, 9, 36, 75
1, 174244, Note_on_c, 9, 42, 0
1, 174360, Note_on_c, 9, 42, 23
1, 174364, Note_on_c, 9, 42, 0
1, 174480, Note_on_c, 9, 42, 58
1, 174484, Note_on_c, 9, 42, 0
1, 174600, Note_on_c, 9, 42, 26
1, 174604, Note_on_c, 9, 42, 0
1, 174719, Note_on_c, 9, 36, 0
1, 174720, Note_on_c, 9, 42, 70
1, 174720, Note_on_c, 9, 36, 75
1, 174724, Note_on_c, 9, 42, 0
1, 174840, Note_on_c, 9, 42, 26
1, 174844, Note_on_c, 9, 42, 0
1, 174960, Note_on_c, 9, 42, 52
1, 174964, Note_on_c, 9, 42, 0
1, 175080, Note_on_c, 9, 42, 29
1, 175084, Note_on_c, 9, 42, 0
1, 175199, Note_on_c, 9, 36, 0
1, 175200, Note_on_c, 9, 42, 68
1, 175200, Note_on_c, 9, 36, 75
1, 175204, Note_on_c, 9, 42, 0
1, 175320, Note_on_c, 9, 42, 31
1, 175324, Note_on_c, 9, 42, 0
1, 175440, Note_on_c, 9, 42, 50
1, 175444, Note_on_c, 9, 42, 0
1, 175560, Note_on_c, 9, 42, 29
1, 175564, Note_on_c, 9, 42, 0
1, 175679, Note_on_c, 9, 36, 0
1, 175680, Note_on_c, 9, 42, 70
1, 175680, Note_on_c, 9, 36, 75
1, 175684, Note_on_c, 9, 42, 0
1, 175800, Note_on_c, 9, 42, 29
1, 175804, Note_on_c, 9, 42, 0
1, 175920, Note_on_c, 9, 42, 41
1, 175924, Note_on_c, 9, 42, 0
1, 176040, Note_on_c, 9, 42, 26
1, 176044, Note_on_c, 9, 42, 0
1, 176159, Note_on_c, 9, 36, 0
1, 176160, Note_on_c, 9, 48, 127
1, 176160, Note_on_c, 9, 50, 104
1, 176160, Note_on_c, 9, 42, 66
1, 176160, Note_on_c, 9, 36, 75
1, 176164, Note_on_c, 9, 42, 0
1, 176279, Note_on_c, 9, 48, 0
1, 176279, Note_on_c, 9, 50, 0
1, 176280, Note_on_c, 9, 42, 23
1, 176284, Note_on_c, 9, 42, 0
1, 176400, Note_on_c, 9, 42, 58
1, 176404, Note_on_c, 9, 42, 0
1, 176520, Note_on_c, 9, 45, 112
1, 176520, Note_on_c, 9, 48, 116
1, 176520, Note_on_c, 9, 42, 26
1, 176524, Note_on_c, 9, 42, 0
1, 176639, Note_on_c, 9, 36, 0
1, 176639, Note_on_c, 9, 45, 0
1, 176639, Note_on_c, 9, 48, 0
1, 176640, Note_on_c, 9, 42, 70
1, 176640, Note_on_c, 9, 36, 75
1, 176644, Note_on_c, 9, 42, 0
1, 176760, Note_on_c, 9, 42, 26
1, 176764, Note_on_c, 9, 42, 0
1, 176880, Note_on_c, 9, 41, 99
1, 176880, Note_on_c, 9, 45, 109
1, 176880, Note_on_c, 9, 42, 52
1, 176884, Note_on_c, 9, 42, 0
1, 176999, Note_on_c, 9, 41, 0
1, 176999, Note_on_c, 9, 45, 0
1, 177000, Note_on_c, 9, 42, 29
1, 177004, Note_on_c, 9, 42, 0
1, 177119, Note_on_c, 9, 36, 0
1, 177120, Note_on_c, 9, 41, 90
1, 177120, Note_on_c, 9, 45, 117
1, 177120, Note_on_c, 9, 42, 68
1, 177120, Note_on_c, 9, 36, 75
1, 177124, Note_on_c, 9, 42, 0
1, 177239, Note_on_c, 9, 41, 0
1, 177239, Note_on_c, 9, 45, 0
1, 177240, Note_on_c, 9, 42, 31
1, 177244, Note_on_c, 9, 42, 0
1, 177360, Note_on_c, 9, 42, 50
1, 177364, Note_on_c, 9, 42, 0
1, 177480, Note_on_c, 9, 42, 29
1, 177484, Note_on_c, 9, 42, 0
1, 177599, Note_on_c, 9, 36, 0
1, 177600, Note_on_c, 9, 42, 70
1, 177600, Note_on_c, 9, 36, 75
1, 177604, Note_on_c, 9, 42, 0
1, 177720, Note_on_c, 9, 42, 29
1, 177724, Note_on_c, 9, 42, 0
1, 177840, Note_on_c, 9, 42, 41
1, 177844, Note_on_c, 9, 42, 0
1, 177960, Note_on_c, 9, 42, 26
1, 177964, Note_on_c, 9, 42, 0
1, 178079, Note_on_c, 9, 36, 0
1, 178080, Note_on_c, 9, 42, 66
1, 178080, Note_on_c, 9, 36, 75
1, 178084, Note_on_c, 9, 42, 0
1, 178200, Note_on_c, 9, 42, 23
1, 178204, Note_on_c, 9, 42, 0
1, 178320, Note_on_c, 9, 42, 58
1, 178324, Note_on_c, 9, 42, 0
1, 178440, Note_on_c, 9, 42, 26
1, 178444, Note_on_c, 9, 42, 0
1, 178559, Note_on_c, 9, 36, 0
1, 178560, Note_on_c, 9, 42, 70
1, 178560, Note_on_c, 9, 36, 75
1, 178564, Note_on_c, 9, 42, 0
1, 178680, Note_on_c, 9, 42, 26
1, 178684, Note_on_c, 9, 42, 0
1, 178800, Note_on_c, 9, 42, 52
1, 178804, Note_on_c, 9, 42, 0
1, 178920, Note_on_c, 9, 42, 29
1, 178924, Note_on_c, 9, 42, 0
1, 179039, Note_on_c, 9, 36, 0
1, 179040, Note_on_c, 9, 42, 68
1, 179040, Note_on_c, 9, 36, 75
1, 179044, Note_on_c, 9, 42, 0
1, 179160, Note_on_c, 9, 42, 31
1, 179164, Note_on_c, 9, 42, 0
1, 179280, Note_on_c, 9, 42, 50
1, 179284, Note_on_c, 9, 42, 0
1, 179400, Note_on_c, 9, 42, 29
1, 179404, Note_on_c, 9, 42, 0
1, 179519, Note_on_c, 9, 36, 0
1, 179520, Note_on_c, 9, 42, 70
1, 179520, Note_on_c, 9, 36, 75
1, 179524, Note_on_c, 9, 42, 0
1, 179640, Note_on_c, 9, 42, 29
1, 179644, Note_on_c, 9, 42, 0
1, 179760, Note_on_c, 9, 42, 41
1, 179764, Note_on_c, 9, 42, 0
1, 179880, Note_on_c, 9, 42, 26
1, 179884, Note_on_c, 9, 42, 0
1, 179999, Note_on_c, 9, 36, 0
1, 180000, Note_on_c, 9, 48, 110
1, 180000, Note_on_c, 9, 50, 109
1, 180000, Note_on_c, 9, 42, 66
1, 180000, Note_on_c, 9, 36, 75
1, 180004, Note_on_c, 9, 42, 0
1, 180119, Note_on_c, 9, 48, 0
1, 180119, Note_on_c, 9, 50, 0
1, 180120, Note_on_c, 9, 42, 23
1, 180124, Note_on_c, 9, 42, 0
1, 180240, Note_on_c, 9, 42, 58
1, 180244, Note_on_c, 9, 42, 0
1, 180360, Note_on_c, 9, 45, 91
1, 180360, Note_on_c, 9, 48, 107
1, 180360, Note_on_c, 9, 42, 26
1, 180364, Note_on_c, 9, 42, 0
1, 180479, Note_on_c, 9, 36, 0
1, 180479, Note_on_c, 9, 45, 0
1, 180479, Note_on_c, 9, 48, 0
1, 180480, Note_on_c, 9, 42, 70
1, 180480, Note_on_c, 9, 36, 75
1, 180484, Note_on_c, 9, 42, 0
1, 180600, Note_on_c, 9, 42, 26
1, 180604, Note_on_c, 9, 42, 0
1, 180720, Note_on_c, 9, 41, 103
1, 180720, Note_on_c, 9, 45, 76
1, 180839, Note_on_c, 9, 41, 0
1, 180839, Note_on_c, 9, 45, 0
1, 180840, Note_on_c, 9, 42, 29
1, 180844, Note_on_c, 9, 42, 0
1, 180959, Note_on_c, 9, 36, 0
1, 180960, Note_on_c, 9, 41, 87
1, 180960, Note_on_c, 9, 45, 120
1, 180960, Note_on_c, 9, 42, 68
1, 180960, Note_on_c, 9, 36, 75
1, 180964, Note_on_c, 9, 42, 0
1, 181079, Note_on_c, 9, 41, 0
1, 181079, Note_on_c, 9, 45, 0
1, 181080, Note_on_c, 9, 42, 31
1, 181084, Note_on_c, 9, 42, 0
1, 181200, Note_on_c, 9, 42, 50
1, 181204, Note_on_c, 9, 42, 0
1, 181320, Note_on_c, 9, 42, 29
1, 181324, Note_on_c, 9, 42, 0
1, 181439, Note_on_c, 9, 36, 0
1, 181440, Note_on_c, 9, 42, 70
1, 181440, Note_on_c, 9, 36, 75
1, 181444, Note_on_c, 9, 42, 0
1, 181560, Note_on_c, 9, 42, 29
1, 181564, Note_on_c, 9, 42, 0
1, 181680, Note_on_c, 9, 42, 41
1, 181684, Note_on_c, 9, 42, 0
1, 181800, Note_on_c, 9, 42, 26
1, 181804, Note_on_c, 9, 42, 0
1, 181919, Note_on_c, 9, 36, 0
1, 181920, Note_on_c, 9, 42, 66
1, 181920, Note_on_c, 9, 36, 75
1, 181924, Note_on_c, 9, 42, 0
1, 182040, Note_on_c, 9, 42, 23
1, 182044, Note_on_c, 9, 42, 0
1, 182160, Note_on_c, 9, 42, 58
1, 182164, Note_on_c, 9, 42, 0
1, 182280, Note_on_c, 9, 42, 26
1, 182284, Note_on_c, 9, 42, 0
1, 182399, Note_on_c, 9, 36, 0
1, 182400, Note_on_c, 9, 42, 70
1, 182400, Note_on_c, 9, 36, 75
1, 182404, Note_on_c, 9, 42, 0
1, 182520, Note_on_c, 9, 42, 26
1, 182524, Note_on_c, 9, 42, 0
1, 182640, Note_on_c, 9, 42, 52
1, 182644, Note_on_c, 9, 42, 0
1, 182760, Note_on_c, 9, 42, 29
1, 182764, Note_on_c, 9, 42, 0
1, 182879, Note_on_c, 9, 36, 0
1, 182880, Note_on_c, 9, 42, 68
1, 182880, Note_on_c, 9, 36, 75
1, 182884, Note_on_c, 9, 42, 0
1, 183000, Note_on_c, 9, 42, 31
1, 183004, Note_on_c, 9, 42, 0
1, 183120, Note_on_c, 9, 50, 105
1, 183120, Note_on_c, 9, 42, 50
1, 183124, Note_on_c, 9, 42, 0
1, 183239, Note_on_c, 9, 50, 0
1, 183240, Note_on_c, 9, 50, 72
1, 183240, Note_on_c, 9, 42, 29
1, 183244, Note_on_c, 9, 42, 0
1, 183359, Note_on_c, 9, 36, 0
1, 183359, Note_on_c, 9, 50, 0
1, 183360, Note_on_c, 9, 42, 70
1, 183360, Note_on_c, 9, 36, 75
1, 183364, Note_on_c, 9, 42, 0
1, 183480, Note_on_c, 9, 48, 91
1, 183480, Note_on_c, 9, 42, 29
1, 183484, Note_on_c, 9, 42, 0
1, 183599, Note_on_c, 9, 48, 0
1, 183600, Note_on_c, 9, 48, 78
1, 183600, Note_on_c, 9, 42, 41
1, 183604, Note_on_c, 9, 42, 0
1, 183719, Note_on_c, 9, 48, 0
1, 183720, Note_on_c, 9, 42, 26
1, 183724, Note_on_c, 9, 42, 0
1, 183839, Note_on_c, 9, 36, 0
1, 183840, Note_on_c, 9, 48, 127
1, 183840, Note_on_c, 9, 42, 66
1, 183840, Note_on_c, 9, 36, 75
1, 183844, Note_on_c, 9, 42, 0
1, 183959, Note_on_c, 9, 48, 0
1, 183960, Note_on_c, 9, 47, 98
1, 183960, Note_on_c, 9, 42, 23
1, 183964, Note_on_c, 9, 42, 0
1, 184079, Note_on_c, 9, 47, 0
1, 184080, Note_on_c, 9, 42, 58
1, 184084, Note_on_c, 9, 42, 0
1, 184200, Note_on_c, 9, 45, 92
1, 184200, Note_on_c, 9, 42, 26
1, 184204, Note_on_c, 9, 42, 0
1, 184319, Note_on_c, 9, 36, 0
1, 184319, Note_on_c, 9, 45, 0
1, 184320, Note_on_c, 9, 45, 127
1, 184320, Note_on_c, 9, 42, 70
1, 184320, Note_on_c, 9, 36, 75
1, 184324, Note_on_c, 9, 42, 0
1, 184439, Note_on_c, 9, 45, 0
1, 184440, Note_on_c, 9, 42, 26
1, 184444, Note_on_c, 9, 42, 0
1, 184560, Note_on_c, 9, 41, 87
1, 184560, Note_on_c, 9, 42, 52
1, 184563, Note_on_c, 9, 42, 0
1, 184649, Note_on_c, 9, 41, 0
1, 184650, Note_on_c, 9, 48, 63
1, 184679, Note_on_c, 9, 48, 0
1, 184680, Note_on_c, 9, 42, 29
1, 184680, Note_on_c, 9, 42, 0
1, 184710, Note_on_c, 9, 41, 88
1, 184799, Note_on_c, 9, 36, 0
1, 184799, Note_on_c, 9, 41, 0
1, 184800, Note_on_c, 9, 41, 108
1, 184800, Note_on_c, 9, 42, 68
1, 184800, Note_on_c, 9, 36, 75
1, 184804, Note_on_c, 9, 42, 0
1, 184919, Note_on_c, 9, 41, 0
1, 184920, Note_on_c, 9, 42, 31
1, 184924, Note_on_c, 9, 42, 0
1, 185040, Note_on_c, 9, 42, 50
1, 185044, Note_on_c, 9, 42, 0
1, 185160, Note_on_c, 9, 42, 29
1, 185164, Note_on_c, 9, 42, 0
1, 185279, Note_on_c, 9, 36, 0
1, 185280, Note_on_c, 9, 42, 70
1, 185280, Note_on_c, 9, 36, 75
1, 185284, Note_on_c, 9, 42, 0
1, 185400, Note_on_c, 9, 42, 29
1, 185404, Note_on_c, 9, 42, 0
1, 185520, Note_on_c, 9, 42, 41
1, 185524, Note_on_c, 9, 42, 0
1, 185640, Note_on_c, 9, 42, 26
1, 185644, Note_on_c, 9, 42, 0
1, 185759, Note_on_c, 9, 36, 0
1, 185760, Note_on_c, 9, 48, 108
1, 185760, Note_on_c, 9, 50, 97
1, 185760, Note_on_c, 9, 42, 66
1, 185760, Note_on_c, 9, 36, 75
1, 185764, Note_on_c, 9, 42, 0
1, 185879, Note_on_c, 9, 48, 0
1, 185879, Note_on_c, 9, 50, 0
1, 185880, Note_on_c, 9, 42, 23
1, 185884, Note_on_c, 9, 42, 0
1, 186000, Note_on_c, 9, 42, 58
1, 186004, Note_on_c, 9, 42, 0
1, 186120, Note_on_c, 9, 45, 109
1, 186120, Note_on_c, 9, 48, 77
1, 186120, Note_on_c, 9, 42, 26
1, 186124, Note_on_c, 9, 42, 0
1, 186239, Note_on_c, 9, 36, 0
1, 186239, Note_on_c, 9, 45, 0
1, 186239, Note_on_c, 9, 48, 0
1, 186240, Note_on_c, 9, 42, 70
1, 186240, Note_on_c, 9, 36, 75
1, 186244, Note_on_c, 9, 42, 0
1, 186360, Note_on_c, 9, 42, 26
1, 186364, Note_on_c, 9, 42, 0
1, 186480, Note_on_c, 9, 41, 69
1, 186480, Note_on_c, 9, 45, 88
1, 186599, Note_on_c, 9, 41, 0
1, 186599, Note_on_c, 9, 45, 0
1, 186600, Note_on_c, 9, 42, 29
1, 186604, Note_on_c, 9, 42, 0
1, 186719, Note_on_c, 9, 36, 0
1, 186720, Note_on_c, 9, 41, 89
1, 186720, Note_on_c, 9, 45, 120
1, 186720, Note_on_c, 9, 36, 75
1, 186839, Note_on_c, 9, 41, 0
1, 186839, Note_on_c, 9, 45, 0
1, 186840, Note_on_c, 9, 42, 31
1, 186844, Note_on_c, 9, 42, 0
1, 186960, Note_on_c, 9, 42, 50
1, 186964, Note_on_c, 9, 42, 0
1, 187080, Note_on_c, 9, 42, 29
1, 187084, Note_on_c, 9, 42, 0
1, 187199, Note_on_c, 9, 36, 0
1, 187200, Note_on_c, 9, 42, 70
1, 187200, Note_on_c, 9, 36, 75
1, 187204, Note_on_c, 9, 42, 0
1, 187320, Note_on_c, 9, 42, 29
1, 187324, Note_on_c, 9, 42, 0
1, 187440, Note_on_c, 9, 42, 41
1, 187444, Note_on_c, 9, 42, 0
1, 187560, Note_on_c, 9, 42, 26
1, 187564, Note_on_c, 9, 42, 0
1, 187679, Note_on_c, 9, 36, 0
1, 187680, Note_on_c, 9, 48, 100
1, 187680, Note_on_c, 9, 42, 66
1, 187680, Note_on_c, 9, 36, 75
1, 187684, Note_on_c, 9, 42, 0
1, 187799, Note_on_c, 9, 48, 0
1, 187800, Note_on_c, 9, 50, 49
1, 187800, Note_on_c, 9, 42, 23
1, 187804, Note_on_c, 9, 42, 0
1, 187919, Note_on_c, 9, 50, 0
1, 187920, Note_on_c, 9, 45, 47
1, 187920, Note_on_c, 9, 42, 58
1, 187924, Note_on_c, 9, 42, 0
1, 188039, Note_on_c, 9, 45, 0
1, 188040, Note_on_c, 9, 48, 111
1, 188040, Note_on_c, 9, 42, 26
1, 188044, Note_on_c, 9, 42, 0
1, 188159, Note_on_c, 9, 36, 0
1, 188159, Note_on_c, 9, 48, 0
1, 188160, Note_on_c, 9, 45, 43
1, 188160, Note_on_c, 9, 42, 70
1, 188160, Note_on_c, 9, 36, 75
1, 188164, Note_on_c, 9, 42, 0
1, 188279, Note_on_c, 9, 45, 0
1, 188280, Note_on_c, 9, 50, 45
1, 188280, Note_on_c, 9, 42, 26
1, 188284, Note_on_c, 9, 42, 0
1, 188399, Note_on_c, 9, 50, 0
1, 188400, Note_on_c, 9, 41, 48
1, 188400, Note_on_c, 9, 42, 52
1, 188404, Note_on_c, 9, 42, 0
1, 188519, Note_on_c, 9, 41, 0
1, 188520, Note_on_c, 9, 50, 45
1, 188520, Note_on_c, 9, 42, 29
1, 188524, Note_on_c, 9, 42, 0
1, 188639, Note_on_c, 9, 36, 0
1, 188639, Note_on_c, 9, 50, 0
1, 188640, Note_on_c, 9, 41, 118
1, 188640, Note_on_c, 9, 42, 68
1, 188640, Note_on_c, 9, 36, 75
1, 188644, Note_on_c, 9, 42, 0
1, 188759, Note_on_c, 9, 41, 0
1, 188760, Note_on_c, 9, 50, 43
1, 188760, Note_on_c, 9, 42, 31
1, 188764, Note_on_c, 9, 42, 0
1, 188879, Note_on_c, 9, 50, 0
1, 188880, Note_on_c, 9, 45, 44
1, 188880, Note_on_c, 9, 42, 50
1, 188884, Note_on_c, 9, 42, 0
1, 188999, Note_on_c, 9, 45, 0
1, 189000, Note_on_c, 9, 50, 56
1, 189000, Note_on_c, 9, 42, 29
1, 189004, Note_on_c, 9, 42, 0
1, 189119, Note_on_c, 9, 36, 0
1, 189119, Note_on_c, 9, 50, 0
1, 189120, Note_on_c, 9, 42, 70
1, 189120, Note_on_c, 9, 36, 75
1, 189124, Note_on_c, 9, 42, 0
1, 189240, Note_on_c, 9, 50, 53
1, 189240, Note_on_c, 9, 42, 29
1, 189244, Note_on_c, 9, 42, 0
1, 189359, Note_on_c, 9, 50, 0
1, 189360, Note_on_c, 9, 48, 79
1, 189360, Note_on_c, 9, 42, 41
1, 189364, Note_on_c, 9, 42, 0
1, 189479, Note_on_c, 9, 48, 0
1, 189480, Note_on_c, 9, 50, 47
1, 189480, Note_on_c, 9, 42, 26
1, 189484, Note_on_c, 9, 42, 0
1, 189599, Note_on_c, 9, 36, 0
1, 189599, Note_on_c, 9, 50, 0
1, 189600, Note_on_c, 9, 45, 116
1, 189600, Note_on_c, 9, 42, 66
1, 189600, Note_on_c, 9, 36, 75
1, 189604, Note_on_c, 9, 42, 0
1, 189719, Note_on_c, 9, 45, 0
1, 189720, Note_on_c, 9, 50, 51
1, 189720, Note_on_c, 9, 42, 23
1, 189724, Note_on_c, 9, 42, 0
1, 189839, Note_on_c, 9, 50, 0
1, 189840, Note_on_c, 9, 45, 42
1, 189959, Note_on_c, 9, 45, 0
1, 189960, Note_on_c, 9, 48, 77
1, 189960, Note_on_c, 9, 42, 26
1, 189964, Note_on_c, 9, 42, 0
1, 190079, Note_on_c, 9, 36, 0
1, 190079, Note_on_c, 9, 48, 0
1, 190080, Note_on_c, 9, 45, 56
1, 190080, Note_on_c, 9, 42, 70
1, 190080, Note_on_c, 9, 36, 75
1, 190084, Note_on_c, 9, 42, 0
1, 190199, Note_on_c, 9, 45, 0
1, 190200, Note_on_c, 9, 50, 54
1, 190200, Note_on_c, 9, 42, 26
1, 190204, Note_on_c, 9, 42, 0
1, 190319, Note_on_c, 9, 50, 0
1, 190320, Note_on_c, 9, 48, 88
1, 190320, Note_on_c, 9, 42, 52
1, 190324, Note_on_c, 9, 42, 0
1, 190439, Note_on_c, 9, 48, 0
1, 190440, Note_on_c, 9, 42, 29
1, 190444, Note_on_c, 9, 42, 0
1, 190559, Note_on_c, 9, 36, 0
1, 190560, Note_on_c, 9, 42, 68
1, 190560, Note_on_c, 9, 42, 0
1, 190560, Note_on_c, 9, 36, 75
1, 190575, Note_on_c, 9, 50, 103
1, 190604, Note_on_c, 9, 50, 0
1, 190605, Note_on_c, 9, 50, 127
1, 190619, Note_on_c, 9, 50, 0
1, 190680, Note_on_c, 9, 42, 31
1, 190684, Note_on_c, 9, 42, 0
1, 190800, Note_on_c, 9, 42, 50
1, 190803, Note_on_c, 9, 42, 0
1, 190905, Note_on_c, 9, 48, 96
1, 190919, Note_on_c, 9, 48, 0
1, 190920, Note_on_c, 9, 42, 29
1, 190920, Note_on_c, 9, 42, 0
1, 190950, Note_on_c, 9, 48, 113
1, 191039, Note_on_c, 9, 36, 0
1, 191039, Note_on_c, 9, 48, 0
1, 191040, Note_on_c, 9, 42, 70
1, 191040, Note_on_c, 9, 36, 75
1, 191044, Note_on_c, 9, 42, 0
1, 191160, Note_on_c, 9, 42, 29
1, 191163, Note_on_c, 9, 42, 0
1, 191250, Note_on_c, 9, 45, 107
1, 191279, Note_on_c, 9, 45, 0
1, 191280, Note_on_c, 9, 42, 41
1, 191280, Note_on_c, 9, 42, 0
1, 191295, Note_on_c, 9, 45, 119
1, 191339, Note_on_c, 9, 45, 0
1, 191400, Note_on_c, 9, 42, 26
1, 191403, Note_on_c, 9, 42, 0
1, 191505, Note_on_c, 9, 50, 123
1, 191519, Note_on_c, 9, 36, 0
1, 191520, Note_on_c, 9, 42, 66
1, 191520, Note_on_c, 9, 36, 75
1, 191521, Note_on_c, 9, 42, 0
1, 191579, Note_on_c, 9, 50, 0
1, 191580, Note_on_c, 9, 50, 71
1, 191639, Note_on_c, 9, 50, 0
1, 191640, Note_on_c, 9, 42, 23
1, 191640, Note_on_c, 9, 42, 0
1, 191660, Note_on_c, 9, 50, 58
1, 191699, Note_on_c, 9, 50, 0
1, 191745, Note_on_c, 9, 50, 94
1, 191804, Note_on_c, 9, 50, 0
1, 191805, Note_on_c, 9, 50, 50
1, 191819, Note_on_c, 9, 50, 0
1, 191880, Note_on_c, 9, 42, 26
1, 191880, Note_on_c, 9, 42, 0
1, 191895, Note_on_c, 9, 50, 84
1, 191939, Note_on_c, 9, 50, 0
1, 191980, Note_on_c, 9, 48, 124
1, 191999, Note_on_c, 9, 36, 0
1, 191999, Note_on_c, 9, 48, 0
1, 192000, Note_on_c, 9, 42, 70
1, 192000, Note_on_c, 9, 36, 75
1, 192001, Note_on_c, 9, 42, 0
1, 192060, Note_on_c, 9, 48, 73
1, 192119, Note_on_c, 9, 48, 0
1, 192120, Note_on_c, 9, 42, 26
1, 192120, Note_on_c, 9, 42, 0
1, 192135, Note_on_c, 9, 45, 59
1, 192179, Note_on_c, 9, 45, 0
1, 192220, Note_on_c, 9, 45, 108
1, 192239, Note_on_c, 9, 45, 0
1, 192240, Note_on_c, 9, 41, 33
1, 192299, Note_on_c, 9, 41, 0
1, 192300, Note_on_c, 9, 41, 65
1, 192359, Note_on_c, 9, 41, 0
1, 192360, Note_on_c, 9, 42, 29
1, 192360, Note_on_c, 9, 42, 0
1, 192375, Note_on_c, 9, 41, 113
1, 192419, Note_on_c, 9, 41, 0
1, 192479, Note_on_c, 9, 36, 0
1, 192480, Note_on_c, 9, 41, 124
1, 192480, Note_on_c, 9, 42, 68
1, 192480, Note_on_c, 9, 36, 75
1, 192484, Note_on_c, 9, 42, 0
1, 192599, Note_on_c, 9, 41, 0
1, 192600, Note_on_c, 9, 42, 31
1, 192604, Note_on_c, 9, 42, 0
1, 192720, Note_on_c, 9, 42, 50
1, 192724, Note_on_c, 9, 42, 0
1, 192840, Note_on_c, 9, 42, 29
1, 192844, Note_on_c, 9, 42, 0
1, 192959, Note_on_c, 9, 36, 0
1, 192960, Note_on_c, 9, 42, 70
1, 192960, Note_on_c, 9, 36, 75
1, 192964, Note_on_c, 9, 42, 0
1, 193080, Note_on_c, 9, 42, 29
1, 193084, Note_on_c, 9, 42, 0
1, 193200, Note_on_c, 9, 42, 41
1, 193204, Note_on_c, 9, 42, 0
1, 193320, Note_on_c, 9, 42, 26
1, 193324, Note_on_c, 9, 42, 0
1, 193439, Note_on_c, 9, 36, 0
1, 193440, Note_on_c, 9, 42, 66
1, 193440, Note_on_c, 9, 36, 75
1, 193444, Note_on_c, 9, 42, 0
1, 193560, Note_on_c, 9, 42, 23
1, 193564, Note_on_c, 9, 42, 0
1, 193680, Note_on_c, 9, 48, 120
1, 193680, Note_on_c, 9, 50, 94
1, 193680, Note_on_c, 9, 42, 58
1, 193684, Note_on_c, 9, 42, 0
1, 193799, Note_on_c, 9, 48, 0
1, 193799, Note_on_c, 9, 50, 0
1, 193800, Note_on_c, 9, 42, 26
1, 193804, Note_on_c, 9, 42, 0
1, 193919, Note_on_c, 9, 36, 0
1, 193920, Note_on_c, 9, 42, 70
1, 193920, Note_on_c, 9, 36, 75
1, 193924, Note_on_c, 9, 42, 0
1, 194040, Note_on_c, 9, 45, 89
1, 194040, Note_on_c, 9, 48, 85
1, 194040, Note_on_c, 9, 42, 26
1, 194044, Note_on_c, 9, 42, 0
1, 194159, Note_on_c, 9, 45, 0
1, 194159, Note_on_c, 9, 48, 0
1, 194160, Note_on_c, 9, 42, 52
1, 194164, Note_on_c, 9, 42, 0
1, 194280, Note_on_c, 9, 42, 29
1, 194284, Note_on_c, 9, 42, 0
1, 194399, Note_on_c, 9, 36, 0
1, 194400, Note_on_c, 9, 41, 88
1, 194400, Note_on_c, 9, 45, 126
1, 194400, Note_on_c, 9, 42, 68
1, 194400, Note_on_c, 9, 36, 75
1, 194404, Note_on_c, 9, 42, 0
1, 194519, Note_on_c, 9, 41, 0
1, 194519, Note_on_c, 9, 45, 0
1, 194520, Note_on_c, 9, 42, 31
1, 194524, Note_on_c, 9, 42, 0
1, 194640, Note_on_c, 9, 42, 50
1, 194644, Note_on_c, 9, 42, 0
1, 194760, Note_on_c, 9, 42, 29
1, 194764, Note_on_c, 9, 42, 0
1, 194879, Note_on_c, 9, 36, 0
1, 194880, Note_on_c, 9, 42, 70
1, 194880, Note_on_c, 9, 36, 75
1, 194884, Note_on_c, 9, 42, 0
1, 195000, Note_on_c, 9, 42, 29
1, 195004, Note_on_c, 9, 42, 0
1, 195120, Note_on_c, 9, 42, 41
1, 195124, Note_on_c, 9, 42, 0
1, 195240, Note_on_c, 9, 42, 26
1, 195244, Note_on_c, 9, 42, 0
1, 195359, Note_on_c, 9, 36, 0
1, 195360, Note_on_c, 9, 42, 66
1, 195360, Note_on_c, 9, 36, 75
1, 195364, Note_on_c, 9, 42, 0
1, 195480, Note_on_c, 9, 42, 23
1, 195489, Note_on_c, 9, 42, 0
1, 195720, Note_on_c, 9, 42, 26
1, 195724, Note_on_c, 9, 42, 0
1, 195839, Note_on_c, 9, 36, 0
1, 195840, Note_on_c, 9, 36, 83
1, 195960, Note_on_c, 9, 42, 26
1, 195964, Note_on_c, 9, 42, 0
1, 196080, Note_on_c, 9, 41, 49
1, 196080, Note_on_c, 9, 45, 51
1, 196080, Note_on_c, 9, 42, 52
1, 196084, Note_on_c, 9, 42, 0
1, 196199, Note_on_c, 9, 41, 0
1, 196199, Note_on_c, 9, 45, 0
1, 196200, Note_on_c, 9, 42, 29
1, 196204, Note_on_c, 9, 42, 0
1, 196319, Note_on_c, 9, 36, 0
1, 196320, Note_on_c, 9, 41, 72
1, 196320, Note_on_c, 9, 45, 87
1, 196320, Note_on_c, 9, 42, 68
1, 196320, Note_on_c, 9, 36, 75
1, 196324, Note_on_c, 9, 42, 0
1, 196439, Note_on_c, 9, 41, 0
1, 196439, Note_on_c, 9, 45, 0
1, 196440, Note_on_c, 9, 42, 31
1, 196444, Note_on_c, 9, 42, 0
1, 196560, Note_on_c, 9, 42, 50
1, 196564, Note_on_c, 9, 42, 0
1, 196680, Note_on_c, 9, 42, 29
1, 196684, Note_on_c, 9, 42, 0
1, 196799, Note_on_c, 9, 36, 0
1, 196800, Note_on_c, 9, 42, 70
1, 196800, Note_on_c, 9, 36, 75
1, 196804, Note_on_c, 9, 42, 0
1, 196920, Note_on_c, 9, 42, 29
1, 196924, Note_on_c, 9, 42, 0
1, 197040, Note_on_c, 9, 42, 41
1, 197044, Note_on_c, 9, 42, 0
1, 197160, Note_on_c, 9, 42, 26
1, 197164, Note_on_c, 9, 42, 0
1, 197279, Note_on_c, 9, 36, 0
1, 197280, Note_on_c, 9, 42, 66
1, 197280, Note_on_c, 9, 36, 75
1, 197284, Note_on_c, 9, 42, 0
1, 197400, Note_on_c, 9, 42, 23
1, 197404, Note_on_c, 9, 42, 0
1, 197520, Note_on_c, 9, 42, 58
1, 197521, Note_on_c, 9, 42, 0
1, 197580, Note_on_c, 9, 40, 84
1, 197639, Note_on_c, 9, 40, 0
1, 197640, Note_on_c, 9, 40, 87
1, 197640, Note_on_c, 9, 42, 26
1, 197641, Note_on_c, 9, 42, 0
1, 197699, Note_on_c, 9, 40, 0
1, 197700, Note_on_c, 9, 40, 62
1, 197759, Note_on_c, 9, 36, 0
1, 197759, Note_on_c, 9, 40, 0
1, 197760, Note_on_c, 9, 40, 97
1, 197760, Note_on_c, 9, 42, 70
1, 197760, Note_on_c, 9, 36, 75
1, 197764, Note_on_c, 9, 42, 0
1, 197879, Note_on_c, 9, 40, 0
1, 197880, Note_on_c, 9, 40, 70
1, 197880, Note_on_c, 9, 42, 26
1, 197884, Note_on_c, 9, 42, 0
1, 197999, Note_on_c, 9, 40, 0
1, 198000, Note_on_c, 9, 40, 74
1, 198000, Note_on_c, 9, 42, 52
1, 198004, Note_on_c, 9, 42, 0
1, 198119, Note_on_c, 9, 40, 0
1, 198120, Note_on_c, 9, 40, 66
1, 198120, Note_on_c, 9, 42, 29
1, 198124, Note_on_c, 9, 42, 0
1, 198239, Note_on_c, 9, 36, 0
1, 198239, Note_on_c, 9, 40, 0
1, 198240, Note_on_c, 9, 40, 98
1, 198240, Note_on_c, 9, 42, 68
1, 198240, Note_on_c, 9, 36, 75
1, 198244, Note_on_c, 9, 42, 0
1, 198359, Note_on_c, 9, 40, 0
1, 198360, Note_on_c, 9, 42, 31
1, 198364, Note_on_c, 9, 42, 0
1, 198480, Note_on_c, 9, 40, 88
1, 198480, Note_on_c, 9, 42, 50
1, 198484, Note_on_c, 9, 42, 0
1, 198599, Note_on_c, 9, 40, 0
1, 198600, Note_on_c, 9, 40, 68
1, 198600, Note_on_c, 9, 42, 29
1, 198604, Note_on_c, 9, 42, 0
1, 198719, Note_on_c, 9, 36, 0
1, 198719, Note_on_c, 9, 40, 0
1, 198720, Note_on_c, 9, 40, 100
1, 198720, Note_on_c, 9, 42, 70
1, 198720, Note_on_c, 9, 36, 75
1, 198724, Note_on_c, 9, 42, 0
1, 198839, Note_on_c, 9, 40, 0
1, 198840, Note_on_c, 9, 40, 82
1, 198840, Note_on_c, 9, 42, 29
1, 198844, Note_on_c, 9, 42, 0
1, 198959, Note_on_c, 9, 36, 0
1, 198959, Note_on_c, 9, 40, 0
1, 198960, Note_on_c, 9, 42, 41
1, 198960, Note_on_c, 9, 44, 86
1, 198964, Note_on_c, 9, 42, 0
1, 198969, Note_on_c, 9, 44, 0
1, 199080, Note_on_c, 9, 42, 26
1, 199084, Note_on_c, 9, 42, 0
1, 199200, Note_on_c, 9, 40, 102
1, 199200, Note_on_c, 9, 42, 66
1, 199200, Note_on_c, 9, 36, 75
1, 199204, Note_on_c, 9, 42, 0
1, 199319, Note_on_c, 9, 40, 0
1, 199320, Note_on_c, 9, 40, 80
1, 199320, Note_on_c, 9, 42, 23
1, 199324, Note_on_c, 9, 42, 0
1, 199439, Note_on_c, 9, 36, 0
1, 199439, Note_on_c, 9, 40, 0
1, 199440, Note_on_c, 9, 42, 58
1, 199440, Note_on_c, 9, 44, 80
1, 199444, Note_on_c, 9, 42, 0
1, 199449, Note_on_c, 9, 44, 0
1, 199560, Note_on_c, 9, 42, 26
1, 199564, Note_on_c, 9, 42, 0
1, 199680, Note_on_c, 9, 40, 99
1, 199680, Note_on_c, 9, 42, 70
1, 199680, Note_on_c, 9, 36, 75
1, 199684, Note_on_c, 9, 42, 0
1, 199799, Note_on_c, 9, 40, 0
1, 199800, Note_on_c, 9, 40, 73
1, 199800, Note_on_c, 9, 42, 26
1, 199804, Note_on_c, 9, 42, 0
1, 199919, Note_on_c, 9, 40, 0
1, 199920, Note_on_c, 9, 41, 79
1, 199920, Note_on_c, 9, 42, 52
1, 199924, Note_on_c, 9, 42, 0
1, 200039, Note_on_c, 9, 41, 0
1, 200040, Note_on_c, 9, 41, 69
1, 200040, Note_on_c, 9, 42, 29
1, 200044, Note_on_c, 9, 42, 0
1, 200159, Note_on_c, 9, 36, 0
1, 200159, Note_on_c, 9, 41, 0
1, 200160, Note_on_c, 9, 49, 102
1, 200160, Note_on_c, 9, 36, 75
1, 200169, Note_on_c, 9, 49, 0
1, 200400, Note_on_c, 9, 42, 48
1, 200409, Note_on_c, 9, 42, 0
1, 200639, Note_on_c, 9, 36, 0
1, 200640, Note_on_c, 9, 40, 107
1, 200640, Note_on_c, 9, 42, 64
1, 200649, Note_on_c, 9, 42, 0
1, 200879, Note_on_c, 9, 40, 0
1, 200880, Note_on_c, 9, 42, 50
1, 200880, Note_on_c, 9, 36, 75
1, 200889, Note_on_c, 9, 42, 0
1, 201119, Note_on_c, 9, 36, 0
1, 201120, Note_on_c, 9, 42, 37
1, 201129, Note_on_c, 9, 42, 0
1, 201360, Note_on_c, 9, 42, 36
1, 201369, Note_on_c, 9, 42, 0
1, 201600, Note_on_c, 9, 40, 107
1, 201600, Note_on_c, 9, 42, 62
1, 201609, Note_on_c, 9, 42, 0
1, 201839, Note_on_c, 9, 40, 0
1, 201840, Note_on_c, 9, 42, 48
1, 201849, Note_on_c, 9, 42, 0
1, 202080, Note_on_c, 9, 42, 43
1, 202080, Note_on_c, 9, 36, 75
1, 202089, Note_on_c, 9, 42, 0
1, 202320, Note_on_c, 9, 42, 48
1, 202329, Note_on_c, 9, 42, 0
1, 202439, Note_on_c, 9, 36, 0
1, 202440, Note_on_c, 9, 36, 75
1, 202559, Note_on_c, 9, 36, 0
1, 202560, Note_on_c, 9, 40, 107
1, 202560, Note_on_c, 9, 42, 64
1, 202569, Note_on_c, 9, 42, 0
1, 202799, Note_on_c, 9, 40, 0
1, 202800, Note_on_c, 9, 42, 50
1, 202800, Note_on_c, 9, 36, 75
1, 202809, Note_on_c, 9, 42, 0
1, 203039, Note_on_c, 9, 36, 0
1, 203040, Note_on_c, 9, 42, 37
1, 203040, Note_on_c, 9, 36, 75
1, 203049, Note_on_c, 9, 42, 0
1, 203280, Note_on_c, 9, 42, 36
1, 203289, Note_on_c, 9, 42, 0
1, 203519, Note_on_c, 9, 36, 0
1, 203520, Note_on_c, 9, 40, 107
1, 203520, Note_on_c, 9, 42, 62
1, 203529, Note_on_c, 9, 42, 0
1, 203759, Note_on_c, 9, 40, 0
1, 203760, Note_on_c, 9, 46, 48
1, 203769, Note_on_c, 9, 46, 0
1, 204000, Note_on_c, 9, 42, 43
1, 204000, Note_on_c, 9, 36, 75
1, 204009, Note_on_c, 9, 42, 0
1, 204240, Note_on_c, 9, 42, 48
1, 204249, Note_on_c, 9, 42, 0
1, 204479, Note_on_c, 9, 36, 0
1, 204480, Note_on_c, 9, 40, 107
1, 204480, Note_on_c, 9, 42, 64
1, 204489, Note_on_c, 9, 42, 0
1, 204719, Note_on_c, 9, 40, 0
1, 204720, Note_on_c, 9, 42, 50
1, 204720, Note_on_c, 9, 36, 75
1, 204729, Note_on_c, 9, 42, 0
1, 204959, Note_on_c, 9, 36, 0
1, 204960, Note_on_c, 9, 42, 37
1, 204969, Note_on_c, 9, 42, 0
1, 205200, Note_on_c, 9, 42, 36
1, 205209, Note_on_c, 9, 42, 0
1, 205440, Note_on_c, 9, 40, 107
1, 205440, Note_on_c, 9, 42, 62
1, 205449, Note_on_c, 9, 42, 0
1, 205679, Note_on_c, 9, 40, 0
1, 205680, Note_on_c, 9, 42, 48
1, 205689, Note_on_c, 9, 42, 0
1, 205920, Note_on_c, 9, 42, 43
1, 205920, Note_on_c, 9, 36, 75
1, 205929, Note_on_c, 9, 42, 0
1, 206160, Note_on_c, 9, 42, 48
1, 206169, Note_on_c, 9, 42, 0
1, 206279, Note_on_c, 9, 36, 0
1, 206280, Note_on_c, 9, 36, 75
1, 206399, Note_on_c, 9, 36, 0
1, 206400, Note_on_c, 9, 40, 104
1, 206400, Note_on_c, 9, 42, 64
1, 206409, Note_on_c, 9, 42, 0
1, 206639, Note_on_c, 9, 40, 0
1, 206640, Note_on_c, 9, 42, 50
1, 206640, Note_on_c, 9, 36, 75
1, 206649, Note_on_c, 9, 42, 0
1, 206879, Note_on_c, 9, 36, 0
1, 206880, Note_on_c, 9, 42, 37
1, 206880, Note_on_c, 9, 36, 75
1, 206889, Note_on_c, 9, 42, 0
1, 207120, Note_on_c, 9, 42, 36
1, 207124, Note_on_c, 9, 42, 0
1, 207240, Note_on_c, 9, 40, 55
1, 207359, Note_on_c, 9, 36, 0
1, 207359, Note_on_c, 9, 40, 0
1, 207360, Note_on_c, 9, 40, 107
1, 207360, Note_on_c, 9, 42, 62
1, 207369, Note_on_c, 9, 42, 0
1, 207599, Note_on_c, 9, 40, 0
1, 207600, Note_on_c, 9, 42, 48
1, 207609, Note_on_c, 9, 42, 0
1, 207840, Note_on_c, 9, 42, 43
1, 207840, Note_on_c, 9, 36, 75
1, 207849, Note_on_c, 9, 42, 0
1, 208080, Note_on_c, 9, 42, 48
1, 208089, Note_on_c, 9, 42, 0
1, 208319, Note_on_c, 9, 36, 0
1, 208320, Note_on_c, 9, 40, 107
1, 208320, Note_on_c, 9, 42, 64
1, 208329, Note_on_c, 9, 42, 0
1, 208559, Note_on_c, 9, 40, 0
1, 208560, Note_on_c, 9, 42, 50
1, 208560, Note_on_c, 9, 36, 75
1, 208569, Note_on_c, 9, 42, 0
1, 208799, Note_on_c, 9, 36, 0
1, 208800, Note_on_c, 9, 42, 37
1, 208809, Note_on_c, 9, 42, 0
1, 209040, Note_on_c, 9, 42, 36
1, 209049, Note_on_c, 9, 42, 0
1, 209280, Note_on_c, 9, 40, 107
1, 209280, Note_on_c, 9, 42, 62
1, 209289, Note_on_c, 9, 42, 0
1, 209519, Note_on_c, 9, 40, 0
1, 209520, Note_on_c, 9, 42, 48
1, 209529, Note_on_c, 9, 42, 0
1, 209760, Note_on_c, 9, 42, 43
1, 209760, Note_on_c, 9, 36, 75
1, 209769, Note_on_c, 9, 42, 0
1, 210000, Note_on_c, 9, 42, 48
1, 210009, Note_on_c, 9, 42, 0
1, 210119, Note_on_c, 9, 36, 0
1, 210120, Note_on_c, 9, 36, 75
1, 210239, Note_on_c, 9, 36, 0
1, 210240, Note_on_c, 9, 40, 107
1, 210240, Note_on_c, 9, 42, 64
1, 210249, Note_on_c, 9, 42, 0
1, 210479, Note_on_c, 9, 40, 0
1, 210480, Note_on_c, 9, 42, 50
1, 210480, Note_on_c, 9, 36, 75
1, 210489, Note_on_c, 9, 42, 0
1, 210719, Note_on_c, 9, 36, 0
1, 210720, Note_on_c, 9, 42, 37
1, 210720, Note_on_c, 9, 36, 75
1, 210729, Note_on_c, 9, 42, 0
1, 210960, Note_on_c, 9, 42, 36
1, 210969, Note_on_c, 9, 42, 0
1, 211199, Note_on_c, 9, 36, 0
1, 211200, Note_on_c, 9, 40, 107
1, 211200, Note_on_c, 9, 42, 62
1, 211209, Note_on_c, 9, 42, 0
1, 211439, Note_on_c, 9, 40, 0
1, 211440, Note_on_c, 9, 46, 48
1, 211449, Note_on_c, 9, 46, 0
1, 211680, Note_on_c, 9, 42, 43
1, 211680, Note_on_c, 9, 36, 75
1, 211689, Note_on_c, 9, 42, 0
1, 211920, Note_on_c, 9, 42, 48
1, 211929, Note_on_c, 9, 42, 0
1, 212159, Note_on_c, 9, 36, 0
1, 212160, Note_on_c, 9, 40, 107
1, 212160, Note_on_c, 9, 42, 64
1, 212169, Note_on_c, 9, 42, 0
1, 212399, Note_on_c, 9, 40, 0
1, 212400, Note_on_c, 9, 42, 50
1, 212400, Note_on_c, 9, 36, 75
1, 212409, Note_on_c, 9, 42, 0
1, 212639, Note_on_c, 9, 36, 0
1, 212640, Note_on_c, 9, 42, 37
1, 212649, Note_on_c, 9, 42, 0
1, 212880, Note_on_c, 9, 42, 36
1, 212889, Note_on_c, 9, 42, 0
1, 213120, Note_on_c, 9, 40, 107
1, 213120, Note_on_c, 9, 42, 62
1, 213129, Note_on_c, 9, 42, 0
1, 213359, Note_on_c, 9, 40, 0
1, 213360, Note_on_c, 9, 42, 48
1, 213369, Note_on_c, 9, 42, 0
1, 213600, Note_on_c, 9, 42, 43
1, 213600, Note_on_c, 9, 36, 75
1, 213609, Note_on_c, 9, 42, 0
1, 213840, Note_on_c, 9, 42, 48
1, 213849, Note_on_c, 9, 42, 0
1, 213959, Note_on_c, 9, 36, 0
1, 213960, Note_on_c, 9, 36, 75
1, 214079, Note_on_c, 9, 36, 0
1, 214080, Note_on_c, 9, 40, 107
1, 214080, Note_on_c, 9, 42, 64
1, 214089, Note_on_c, 9, 42, 0
1, 214319, Note_on_c, 9, 40, 0
1, 214320, Note_on_c, 9, 42, 50
1, 214320, Note_on_c, 9, 36, 75
1, 214329, Note_on_c, 9, 42, 0
1, 214559, Note_on_c, 9, 36, 0
1, 214560, Note_on_c, 9, 42, 37
1, 214560, Note_on_c, 9, 36, 75
1, 214569, Note_on_c, 9, 42, 0
1, 214800, Note_on_c, 9, 40, 58
1, 214800, Note_on_c, 9, 42, 36
1, 214804, Note_on_c, 9, 42, 0
1, 214919, Note_on_c, 9, 40, 0
1, 214920, Note_on_c, 9, 40, 84
1, 215039, Note_on_c, 9, 36, 0
1, 215039, Note_on_c, 9, 40, 0
1, 215040, Note_on_c, 9, 40, 107
1, 215040, Note_on_c, 9, 42, 62
1, 215049, Note_on_c, 9, 42, 0
1, 215279, Note_on_c, 9, 40, 0
1, 215280, Note_on_c, 9, 42, 48
1, 215289, Note_on_c, 9, 42, 0
1, 215520, Note_on_c, 9, 42, 43
1, 215520, Note_on_c, 9, 36, 75
1, 215529, Note_on_c, 9, 42, 0
1, 215760, Note_on_c, 9, 42, 48
1, 215769, Note_on_c, 9, 42, 0
1, 215999, Note_on_c, 9, 36, 0
1, 216000, Note_on_c, 9, 40, 107
1, 216000, Note_on_c, 9, 42, 64
1, 216009, Note_on_c, 9, 42, 0
1, 216239, Note_on_c, 9, 40, 0
1, 216240, Note_on_c, 9, 42, 50
1, 216240, Note_on_c, 9, 36, 75
1, 216249, Note_on_c, 9, 42, 0
1, 216479, Note_on_c, 9, 36, 0
1, 216480, Note_on_c, 9, 42, 37
1, 216489, Note_on_c, 9, 42, 0
1, 216720, Note_on_c, 9, 42, 36
1, 216729, Note_on_c, 9, 42, 0
1, 216960, Note_on_c, 9, 40, 107
1, 216960, Note_on_c, 9, 42, 62
1, 216969, Note_on_c, 9, 42, 0
1, 217199, Note_on_c, 9, 40, 0
1, 217200, Note_on_c, 9, 42, 48
1, 217209, Note_on_c, 9, 42, 0
1, 217440, Note_on_c, 9, 42, 43
1, 217440, Note_on_c, 9, 36, 75
1, 217449, Note_on_c, 9, 42, 0
1, 217680, Note_on_c, 9, 42, 48
1, 217684, Note_on_c, 9, 42, 0
1, 217799, Note_on_c, 9, 36, 0
1, 217800, Note_on_c, 9, 40, 52
1, 217800, Note_on_c, 9, 36, 75
1, 217919, Note_on_c, 9, 40, 0
1, 217919, Note_on_c, 9, 36, 0
1, 217920, Note_on_c, 9, 40, 107
1, 217920, Note_on_c, 9, 42, 64
1, 217929, Note_on_c, 9, 42, 0
1, 218159, Note_on_c, 9, 40, 0
1, 218160, Note_on_c, 9, 42, 50
1, 218160, Note_on_c, 9, 36, 75
1, 218169, Note_on_c, 9, 42, 0
1, 218399, Note_on_c, 9, 36, 0
1, 218400, Note_on_c, 9, 42, 37
1, 218400, Note_on_c, 9, 36, 75
1, 218409, Note_on_c, 9, 42, 0
1, 218640, Note_on_c, 9, 42, 36
1, 218649, Note_on_c, 9, 42, 0
1, 218879, Note_on_c, 9, 36, 0
1, 218880, Note_on_c, 9, 40, 107
1, 218880, Note_on_c, 9, 42, 62
1, 218889, Note_on_c, 9, 42, 0
1, 219119, Note_on_c, 9, 40, 0
1, 219120, Note_on_c, 9, 46, 48
1, 219129, Note_on_c, 9, 46, 0
1, 219360, Note_on_c, 9, 42, 43
1, 219360, Note_on_c, 9, 36, 75
1, 219369, Note_on_c, 9, 42, 0
1, 219600, Note_on_c, 9, 42, 48
1, 219609, Note_on_c, 9, 42, 0
1, 219839, Note_on_c, 9, 36, 0
1, 219840, Note_on_c, 9, 40, 107
1, 219840, Note_on_c, 9, 42, 64
1, 219849, Note_on_c, 9, 42, 0
1, 220079, Note_on_c, 9, 40, 0
1, 220080, Note_on_c, 9, 42, 50
1, 220080, Note_on_c, 9, 36, 75
1, 220089, Note_on_c, 9, 42, 0
1, 220319, Note_on_c, 9, 36, 0
1, 220320, Note_on_c, 9, 42, 37
1, 220329, Note_on_c, 9, 42, 0
1, 220560, Note_on_c, 9, 42, 36
1, 220569, Note_on_c, 9, 42, 0
1, 220800, Note_on_c, 9, 40, 107
1, 220800, Note_on_c, 9, 42, 62
1, 220809, Note_on_c, 9, 42, 0
1, 221039, Note_on_c, 9, 40, 0
1, 221040, Note_on_c, 9, 42, 48
1, 221049, Note_on_c, 9, 42, 0
1, 221280, Note_on_c, 9, 42, 43
1, 221280, Note_on_c, 9, 36, 75
1, 221289, Note_on_c, 9, 42, 0
1, 221520, Note_on_c, 9, 42, 48
1, 221529, Note_on_c, 9, 42, 0
1, 221639, Note_on_c, 9, 36, 0
1, 221640, Note_on_c, 9, 36, 75
1, 221759, Note_on_c, 9, 36, 0
1, 221760, Note_on_c, 9, 40, 107
1, 221760, Note_on_c, 9, 42, 64
1, 221769, Note_on_c, 9, 42, 0
1, 221999, Note_on_c, 9, 40, 0
1, 222000, Note_on_c, 9, 42, 50
1, 222000, Note_on_c, 9, 36, 75
1, 222009, Note_on_c, 9, 42, 0
1, 222239, Note_on_c, 9, 36, 0
1, 222240, Note_on_c, 9, 42, 37
1, 222240, Note_on_c, 9, 36, 75
1, 222249, Note_on_c, 9, 42, 0
1, 222480, Note_on_c, 9, 42, 36
1, 222489, Note_on_c, 9, 42, 0
1, 222719, Note_on_c, 9, 36, 0
1, 222720, Note_on_c, 9, 40, 69
1, 222720, Note_on_c, 9, 42, 62
1, 222724, Note_on_c, 9, 42, 0
1, 222839, Note_on_c, 9, 40, 0
1, 222840, Note_on_c, 9, 40, 84
1, 222959, Note_on_c, 9, 40, 0
1, 222960, Note_on_c, 9, 40, 107
1, 222960, Note_on_c, 9, 42, 48
1, 222969, Note_on_c, 9, 42, 0
1, 223199, Note_on_c, 9, 40, 0
1, 223200, Note_on_c, 9, 42, 43
1, 223200, Note_on_c, 9, 36, 75
1, 223209, Note_on_c, 9, 42, 0
1, 223440, Note_on_c, 9, 42, 48
1, 223449, Note_on_c, 9, 42, 0
1, 223679, Note_on_c, 9, 36, 0
1, 223680, Note_on_c, 9, 40, 107
1, 223680, Note_on_c, 9, 42, 64
1, 223689, Note_on_c, 9, 42, 0
1, 223919, Note_on_c, 9, 40, 0
1, 223920, Note_on_c, 9, 42, 50
1, 223920, Note_on_c, 9, 36, 75
1, 223929, Note_on_c, 9, 42, 0
1, 224159, Note_on_c, 9, 36, 0
1, 224160, Note_on_c, 9, 42, 37
1, 224169, Note_on_c, 9, 42, 0
1, 224400, Note_on_c, 9, 42, 36
1, 224409, Note_on_c, 9, 42, 0
1, 224640, Note_on_c, 9, 40, 107
1, 224640, Note_on_c, 9, 42, 62
1, 224649, Note_on_c, 9, 42, 0
1, 224879, Note_on_c, 9, 40, 0
1, 224880, Note_on_c, 9, 42, 48
1, 224889, Note_on_c, 9, 42, 0
1, 225120, Note_on_c, 9, 42, 43
1, 225120, Note_on_c, 9, 36, 75
1, 225129, Note_on_c, 9, 42, 0
1, 225360, Note_on_c, 9, 42, 48
1, 225369, Note_on_c, 9, 42, 0
1, 225479, Note_on_c, 9, 36, 0
1, 225480, Note_on_c, 9, 36, 75
1, 225599, Note_on_c, 9, 36, 0
1, 225600, Note_on_c, 9, 40, 107
1, 225600, Note_on_c, 9, 42, 64
1, 225609, Note_on_c, 9, 42, 0
1, 225839, Note_on_c, 9, 40, 0
1, 225840, Note_on_c, 9, 42, 50
1, 225840, Note_on_c, 9, 36, 75
1, 225849, Note_on_c, 9, 42, 0
1, 226079, Note_on_c, 9, 36, 0
1, 226080, Note_on_c, 9, 42, 37
1, 226080, Note_on_c, 9, 36, 75
1, 226089, Note_on_c, 9, 42, 0
1, 226320, Note_on_c, 9, 42, 36
1, 226329, Note_on_c, 9, 42, 0
1, 226559, Note_on_c, 9, 36, 0
1, 226560, Note_on_c, 9, 40, 107
1, 226560, Note_on_c, 9, 42, 62
1, 226569, Note_on_c, 9, 42, 0
1, 226799, Note_on_c, 9, 40, 0
1, 226800, Note_on_c, 9, 46, 48
1, 226809, Note_on_c, 9, 46, 0
1, 227040, Note_on_c, 9, 42, 43
1, 227040, Note_on_c, 9, 36, 75
1, 227049, Note_on_c, 9, 42, 0
1, 227280, Note_on_c, 9, 42, 48
1, 227289, Note_on_c, 9, 42, 0
1, 227519, Note_on_c, 9, 36, 0
1, 227520, Note_on_c, 9, 40, 107
1, 227520, Note_on_c, 9, 42, 64
1, 227529, Note_on_c, 9, 42, 0
1, 227759, Note_on_c, 9, 40, 0
1, 227760, Note_on_c, 9, 42, 50
1, 227760, Note_on_c, 9, 36, 75
1, 227769, Note_on_c, 9, 42, 0
1, 227999, Note_on_c, 9, 36, 0
1, 228000, Note_on_c, 9, 42, 37
1, 228009, Note_on_c, 9, 42, 0
1, 228240, Note_on_c, 9, 42, 36
1, 228249, Note_on_c, 9, 42, 0
1, 228480, Note_on_c, 9, 40, 107
1, 228480, Note_on_c, 9, 42, 62
1, 228489, Note_on_c, 9, 42, 0
1, 228719, Note_on_c, 9, 40, 0
1, 228720, Note_on_c, 9, 42, 48
1, 228729, Note_on_c, 9, 42, 0
1, 228960, Note_on_c, 9, 42, 43
1, 228960, Note_on_c, 9, 36, 75
1, 228969, Note_on_c, 9, 42, 0
1, 229200, Note_on_c, 9, 42, 48
1, 229209, Note_on_c, 9, 42, 0
1, 229319, Note_on_c, 9, 36, 0
1, 229320, Note_on_c, 9, 36, 75
1, 229439, Note_on_c, 9, 36, 0
1, 229440, Note_on_c, 9, 40, 107
1, 229440, Note_on_c, 9, 42, 64
1, 229449, Note_on_c, 9, 42, 0
1, 229679, Note_on_c, 9, 40, 0
1, 229680, Note_on_c, 9, 42, 50
1, 229680, Note_on_c, 9, 36, 75
1, 229689, Note_on_c, 9, 42, 0
1, 229919, Note_on_c, 9, 36, 0
1, 229920, Note_on_c, 9, 42, 37
1, 229920, Note_on_c, 9, 36, 75
1, 229929, Note_on_c, 9, 42, 0
1, 230160, Note_on_c, 9, 40, 66
1, 230160, Note_on_c, 9, 42, 36
1, 230164, Note_on_c, 9, 42, 0
1, 230279, Note_on_c, 9, 40, 0
1, 230280, Note_on_c, 9, 40, 81
1, 230399, Note_on_c, 9, 36, 0
1, 230399, Note_on_c, 9, 40, 0
1, 230400, Note_on_c, 9, 40, 107
1, 230400, Note_on_c, 9, 42, 62
1, 230409, Note_on_c, 9, 42, 0
1, 230639, Note_on_c, 9, 40, 0
1, 230640, Note_on_c, 9, 42, 48
1, 230649, Note_on_c, 9, 42, 0
1, 230880, Note_on_c, 9, 42, 43
1, 230880, Note_on_c, 9, 36, 75
1, 230889, Note_on_c, 9, 42, 0
1, 231120, Note_on_c, 9, 42, 48
1, 231129, Note_on_c, 9, 42, 0
1, 231359, Note_on_c, 9, 36, 0
1, 231360, Note_on_c, 9, 40, 107
1, 231360, Note_on_c, 9, 42, 64
1, 231369, Note_on_c, 9, 42, 0
1, 231599, Note_on_c, 9, 40, 0
1, 231600, Note_on_c, 9, 42, 50
1, 231600, Note_on_c, 9, 36, 75
1, 231609, Note_on_c, 9, 42, 0
1, 231839, Note_on_c, 9, 36, 0
1, 231840, Note_on_c, 9, 42, 37
1, 231849, Note_on_c, 9, 42, 0
1, 232080, Note_on_c, 9, 42, 36
1, 232089, Note_on_c, 9, 42, 0
1, 232320, Note_on_c, 9, 40, 107
1, 232320, Note_on_c, 9, 42, 62
1, 232329, Note_on_c, 9, 42, 0
1, 232559, Note_on_c, 9, 40, 0
1, 232560, Note_on_c, 9, 42, 48
1, 232569, Note_on_c, 9, 42, 0
1, 232800, Note_on_c, 9, 42, 43
1, 232800, Note_on_c, 9, 36, 75
1, 232809, Note_on_c, 9, 42, 0
1, 233040, Note_on_c, 9, 42, 48
1, 233049, Note_on_c, 9, 42, 0
1, 233159, Note_on_c, 9, 36, 0
1, 233160, Note_on_c, 9, 36, 75
1, 233279, Note_on_c, 9, 36, 0
1, 233280, Note_on_c, 9, 40, 107
1, 233280, Note_on_c, 9, 42, 64
1, 233289, Note_on_c, 9, 42, 0
1, 233519, Note_on_c, 9, 40, 0
1, 233520, Note_on_c, 9, 42, 50
1, 233520, Note_on_c, 9, 36, 75
1, 233529, Note_on_c, 9, 42, 0
1, 233759, Note_on_c, 9, 36, 0
1, 233760, End_track
0, 0, End_of_file
