0, 0, Header, 1, 1, 480
1, 0, Start_track
1, 0, Title_t, "Drumset"
1, 0, Time_signature, 4, 2, 24, 8
1, 0, Key_signature, 0, "major"
1, 0, Tempo, 681818
1, 0, Control_c, 9, 121, 0
1, 0, Program_c, 9, 0
1, 0, Control_c, 9, 7, 100
1, 0, Control_c, 9, 10, 64
1, 0, Control_c, 9, 91, 0
1, 0, Control_c, 9, 93, 0
1, 0, MIDI_port, 0
1, 90, Note_on_c, 9, 42, 50
1, 102, Note_on_c, 9, 42, 0
1, 555, Note_on_c, 9, 42, 40
1, 567, Note_on_c, 9, 42, 0
1, 1035, Note_on_c, 9, 42, 40
1, 1047, Note_on_c, 9, 42, 0
1, 1500, Note_on_c, 9, 42, 40
1, 1505, Note_on_c, 9, 42, 0
1, 24960, Tempo, 384615
1, 25905, Note_on_c, 9, 42, 74
1, 25905, Note_on_c, 9, 42, 0
1, 26400, Note_on_c, 9, 42, 84
1, 26428, Note_on_c, 9, 42, 0
1, 26880, Note_on_c, 9, 42, 81
1, 26908, Note_on_c, 9, 42, 0
1, 27360, Note_on_c, 9, 42, 79
1, 27388, Note_on_c, 9, 42, 0
1, 27840, Note_on_c, 9, 42, 81
1, 27868, Note_on_c, 9, 42, 0
1, 28365, Note_on_c, 9, 46, 73
1, 28375, Note_on_c, 9, 46, 0
1, 28800, Note_on_c, 9, 46, 84
1, 28828, Note_on_c, 9, 46, 0
1, 29040, Note_on_c, 9, 43, 121
1, 29279, Note_on_c, 9, 43, 0
1, 29280, Note_on_c, 9, 45, 125
1, 29369, Note_on_c, 9, 45, 0
1, 29385, Note_on_c, 9, 45, 122
1, 29505, Note_on_c, 9, 43, 122
1, 29609, Note_on_c, 9, 43, 0
1, 29610, Note_on_c, 9, 43, 127
1, 29639, Note_on_c, 9, 43, 0
1, 29759, Note_on_c, 9, 45, 0
1, 29760, Note_on_c, 9, 36, 105
1, 29775, Note_on_c, 9, 49, 65
1, 29787, Note_on_c, 9, 49, 0
1, 30239, Note_on_c, 9, 36, 0
1, 30240, Note_on_c, 9, 42, 67
1, 30240, Note_on_c, 9, 42, 0
1, 30270, Note_on_c, 9, 38, 110
1, 30480, Note_on_c, 9, 44, 61
1, 30493, Note_on_c, 9, 44, 0
1, 30719, Note_on_c, 9, 38, 0
1, 30735, Note_on_c, 9, 44, 87
1, 30735, Note_on_c, 9, 36, 107
1, 30747, Note_on_c, 9, 44, 0
1, 30959, Note_on_c, 9, 36, 0
1, 30990, Note_on_c, 9, 44, 67
1, 30990, Note_on_c, 9, 44, 0
1, 31005, Note_on_c, 9, 36, 107
1, 31199, Note_on_c, 9, 36, 0
1, 31245, Note_on_c, 9, 38, 110
1, 31260, Note_on_c, 9, 44, 67
1, 31270, Note_on_c, 9, 44, 0
1, 31439, Note_on_c, 9, 38, 0
1, 31470, Note_on_c, 9, 36, 96
1, 31484, Note_on_c, 9, 36, 0
1, 31485, Note_on_c, 9, 44, 82
1, 31495, Note_on_c, 9, 44, 0
1, 31710, Note_on_c, 9, 44, 93
1, 31710, Note_on_c, 9, 36, 106
1, 31714, Note_on_c, 9, 44, 0
1, 31799, Note_on_c, 9, 36, 0
1, 31935, Note_on_c, 9, 44, 79
1, 31935, Note_on_c, 9, 36, 98
1, 31947, Note_on_c, 9, 44, 0
1, 32159, Note_on_c, 9, 36, 0
1, 32160, Note_on_c, 9, 44, 87
1, 32173, Note_on_c, 9, 44, 0
1, 32175, Note_on_c, 9, 38, 100
1, 32399, Note_on_c, 9, 38, 0
1, 32415, Note_on_c, 9, 44, 84
1, 32415, Note_on_c, 9, 36, 95
1, 32427, Note_on_c, 9, 44, 0
1, 32639, Note_on_c, 9, 36, 0
1, 32640, Note_on_c, 9, 44, 101
1, 32640, Note_on_c, 9, 44, 0
1, 32670, Note_on_c, 9, 36, 113
1, 32759, Note_on_c, 9, 36, 0
1, 32895, Note_on_c, 9, 44, 67
1, 32895, Note_on_c, 9, 44, 0
1, 32925, Note_on_c, 9, 36, 103
1, 33119, Note_on_c, 9, 36, 0
1, 33150, Note_on_c, 9, 44, 85
1, 33154, Note_on_c, 9, 44, 0
1, 33165, Note_on_c, 9, 38, 96
1, 33359, Note_on_c, 9, 38, 0
1, 33390, Note_on_c, 9, 44, 77
1, 33390, Note_on_c, 9, 36, 95
1, 33394, Note_on_c, 9, 44, 0
1, 33479, Note_on_c, 9, 36, 0
1, 33615, Note_on_c, 9, 44, 84
1, 33615, Note_on_c, 9, 44, 0
1, 33630, Note_on_c, 9, 36, 105
1, 33719, Note_on_c, 9, 36, 0
1, 33870, Note_on_c, 9, 44, 50
1, 33870, Note_on_c, 9, 36, 107
1, 33874, Note_on_c, 9, 44, 0
1, 33959, Note_on_c, 9, 36, 0
1, 34095, Note_on_c, 9, 44, 78
1, 34107, Note_on_c, 9, 44, 0
1, 34110, Note_on_c, 9, 38, 103
1, 34335, Note_on_c, 9, 44, 63
1, 34335, Note_on_c, 9, 44, 0
1, 34350, Note_on_c, 9, 36, 87
1, 34439, Note_on_c, 9, 36, 0
1, 34559, Note_on_c, 9, 38, 0
1, 34590, Note_on_c, 9, 44, 101
1, 34590, Note_on_c, 9, 44, 0
1, 34605, Note_on_c, 9, 36, 109
1, 34799, Note_on_c, 9, 36, 0
1, 34830, Note_on_c, 9, 44, 84
1, 34830, Note_on_c, 9, 36, 98
1, 34834, Note_on_c, 9, 44, 0
1, 34919, Note_on_c, 9, 36, 0
1, 35070, Note_on_c, 9, 38, 100
1, 35070, Note_on_c, 9, 44, 81
1, 35074, Note_on_c, 9, 44, 0
1, 35280, Note_on_c, 9, 44, 84
1, 35280, Note_on_c, 9, 44, 0
1, 35295, Note_on_c, 9, 36, 98
1, 35519, Note_on_c, 9, 38, 0
1, 35519, Note_on_c, 9, 36, 0
1, 35520, Note_on_c, 9, 44, 87
1, 35520, Note_on_c, 9, 44, 0
1, 35550, Note_on_c, 9, 36, 115
1, 35639, Note_on_c, 9, 36, 0
1, 35760, Note_on_c, 9, 44, 70
1, 35760, Note_on_c, 9, 44, 0
1, 35790, Note_on_c, 9, 36, 100
1, 35879, Note_on_c, 9, 36, 0
1, 36000, Note_on_c, 9, 44, 68
1, 36013, Note_on_c, 9, 44, 0
1, 36030, Note_on_c, 9, 38, 100
1, 36255, Note_on_c, 9, 44, 67
1, 36255, Note_on_c, 9, 44, 0
1, 36285, Note_on_c, 9, 36, 95
1, 36479, Note_on_c, 9, 38, 0
1, 36479, Note_on_c, 9, 36, 0
1, 36510, Note_on_c, 9, 44, 89
1, 36510, Note_on_c, 9, 44, 0
1, 36525, Note_on_c, 9, 36, 100
1, 36719, Note_on_c, 9, 36, 0
1, 36750, Note_on_c, 9, 36, 101
1, 36839, Note_on_c, 9, 36, 0
1, 36975, Note_on_c, 9, 38, 103
1, 36975, Note_on_c, 9, 44, 62
1, 36987, Note_on_c, 9, 44, 0
1, 37199, Note_on_c, 9, 38, 0
1, 37200, Note_on_c, 9, 44, 68
1, 37200, Note_on_c, 9, 44, 0
1, 37215, Note_on_c, 9, 36, 94
1, 37439, Note_on_c, 9, 36, 0
1, 37455, Note_on_c, 9, 44, 89
1, 37455, Note_on_c, 9, 36, 111
1, 37467, Note_on_c, 9, 44, 0
1, 37679, Note_on_c, 9, 36, 0
1, 37695, Note_on_c, 9, 44, 73
1, 37695, Note_on_c, 9, 36, 103
1, 37707, Note_on_c, 9, 44, 0
1, 37919, Note_on_c, 9, 36, 0
1, 37935, Note_on_c, 9, 38, 104
1, 37935, Note_on_c, 9, 44, 67
1, 37947, Note_on_c, 9, 44, 0
1, 38159, Note_on_c, 9, 38, 0
1, 38175, Note_on_c, 9, 44, 68
1, 38175, Note_on_c, 9, 36, 96
1, 38187, Note_on_c, 9, 44, 0
1, 38399, Note_on_c, 9, 36, 0
1, 38430, Note_on_c, 9, 44, 91
1, 38430, Note_on_c, 9, 36, 116
1, 38434, Note_on_c, 9, 44, 0
1, 38519, Note_on_c, 9, 36, 0
1, 38655, Note_on_c, 9, 44, 73
1, 38655, Note_on_c, 9, 44, 0
1, 38670, Note_on_c, 9, 36, 101
1, 38759, Note_on_c, 9, 36, 0
1, 38895, Note_on_c, 9, 44, 87
1, 38907, Note_on_c, 9, 44, 0
1, 38910, Note_on_c, 9, 38, 103
1, 39120, Note_on_c, 9, 44, 85
1, 39120, Note_on_c, 9, 44, 0
1, 39135, Note_on_c, 9, 36, 89
1, 39359, Note_on_c, 9, 38, 0
1, 39359, Note_on_c, 9, 36, 0
1, 39375, Note_on_c, 9, 49, 74
1, 39387, Note_on_c, 9, 49, 0
1, 39390, Note_on_c, 9, 36, 118
1, 39839, Note_on_c, 9, 36, 0
1, 39870, Note_on_c, 9, 38, 116
1, 39870, Note_on_c, 9, 44, 64
1, 39874, Note_on_c, 9, 44, 0
1, 40095, Note_on_c, 9, 44, 66
1, 40107, Note_on_c, 9, 44, 0
1, 40319, Note_on_c, 9, 38, 0
1, 40350, Note_on_c, 9, 44, 85
1, 40350, Note_on_c, 9, 44, 0
1, 40365, Note_on_c, 9, 36, 103
1, 40559, Note_on_c, 9, 36, 0
1, 40575, Note_on_c, 9, 44, 61
1, 40575, Note_on_c, 9, 44, 0
1, 40590, Note_on_c, 9, 36, 98
1, 40679, Note_on_c, 9, 36, 0
1, 40815, Note_on_c, 9, 44, 81
1, 40827, Note_on_c, 9, 44, 0
1, 40830, Note_on_c, 9, 38, 108
1, 41055, Note_on_c, 9, 44, 78
1, 41055, Note_on_c, 9, 44, 0
1, 41070, Note_on_c, 9, 36, 87
1, 41159, Note_on_c, 9, 36, 0
1, 41279, Note_on_c, 9, 38, 0
1, 41295, Note_on_c, 9, 44, 101
1, 41295, Note_on_c, 9, 44, 0
1, 41310, Note_on_c, 9, 36, 106
1, 41399, Note_on_c, 9, 36, 0
1, 41520, Note_on_c, 9, 44, 62
1, 41520, Note_on_c, 9, 44, 0
1, 41550, Note_on_c, 9, 36, 98
1, 41639, Note_on_c, 9, 36, 0
1, 41760, Note_on_c, 9, 44, 75
1, 41773, Note_on_c, 9, 44, 0
1, 41775, Note_on_c, 9, 38, 109
1, 41999, Note_on_c, 9, 38, 0
1, 42000, Note_on_c, 9, 44, 68
1, 42000, Note_on_c, 9, 44, 0
1, 42015, Note_on_c, 9, 36, 95
1, 42239, Note_on_c, 9, 36, 0
1, 42255, Note_on_c, 9, 44, 89
1, 42255, Note_on_c, 9, 44, 0
1, 42270, Note_on_c, 9, 36, 103
1, 42359, Note_on_c, 9, 36, 0
1, 42495, Note_on_c, 9, 44, 75
1, 42495, Note_on_c, 9, 44, 0
1, 42510, Note_on_c, 9, 36, 100
1, 42599, Note_on_c, 9, 36, 0
1, 42735, Note_on_c, 9, 44, 85
1, 42747, Note_on_c, 9, 44, 0
1, 42750, Note_on_c, 9, 38, 103
1, 42975, Note_on_c, 9, 44, 78
1, 42975, Note_on_c, 9, 44, 0
1, 42990, Note_on_c, 9, 36, 91
1, 43079, Note_on_c, 9, 36, 0
1, 43199, Note_on_c, 9, 38, 0
1, 43230, Note_on_c, 9, 44, 87
1, 43230, Note_on_c, 9, 44, 0
1, 43245, Note_on_c, 9, 36, 115
1, 43439, Note_on_c, 9, 36, 0
1, 43455, Note_on_c, 9, 44, 67
1, 43455, Note_on_c, 9, 44, 0
1, 43470, Note_on_c, 9, 36, 100
1, 43559, Note_on_c, 9, 36, 0
1, 43680, Note_on_c, 9, 44, 74
1, 43693, Note_on_c, 9, 44, 0
1, 43710, Note_on_c, 9, 38, 100
1, 43935, Note_on_c, 9, 44, 75
1, 43935, Note_on_c, 9, 44, 0
1, 43950, Note_on_c, 9, 36, 96
1, 44039, Note_on_c, 9, 36, 0
1, 44159, Note_on_c, 9, 38, 0
1, 44175, Note_on_c, 9, 44, 87
1, 44175, Note_on_c, 9, 44, 0
1, 44190, Note_on_c, 9, 36, 106
1, 44279, Note_on_c, 9, 36, 0
1, 44400, Note_on_c, 9, 44, 74
1, 44400, Note_on_c, 9, 44, 0
1, 44415, Note_on_c, 9, 36, 103
1, 44639, Note_on_c, 9, 36, 0
1, 44640, Note_on_c, 9, 44, 77
1, 44653, Note_on_c, 9, 44, 0
1, 44655, Note_on_c, 9, 38, 101
1, 44879, Note_on_c, 9, 38, 0
1, 44895, Note_on_c, 9, 44, 72
1, 44895, Note_on_c, 9, 36, 92
1, 44907, Note_on_c, 9, 44, 0
1, 45119, Note_on_c, 9, 36, 0
1, 45135, Note_on_c, 9, 44, 89
1, 45135, Note_on_c, 9, 44, 0
1, 45150, Note_on_c, 9, 36, 120
1, 45239, Note_on_c, 9, 36, 0
1, 45375, Note_on_c, 9, 44, 74
1, 45375, Note_on_c, 9, 36, 96
1, 45387, Note_on_c, 9, 44, 0
1, 45599, Note_on_c, 9, 36, 0
1, 45630, Note_on_c, 9, 38, 98
1, 45855, Note_on_c, 9, 44, 84
1, 45855, Note_on_c, 9, 44, 0
1, 45870, Note_on_c, 9, 36, 95
1, 45959, Note_on_c, 9, 36, 0
1, 46079, Note_on_c, 9, 38, 0
1, 46095, Note_on_c, 9, 44, 66
1, 46095, Note_on_c, 9, 44, 0
1, 46110, Note_on_c, 9, 36, 118
1, 46199, Note_on_c, 9, 36, 0
1, 46335, Note_on_c, 9, 44, 66
1, 46335, Note_on_c, 9, 44, 0
1, 46350, Note_on_c, 9, 36, 103
1, 46439, Note_on_c, 9, 36, 0
1, 46590, Note_on_c, 9, 38, 103
1, 46590, Note_on_c, 9, 44, 66
1, 46594, Note_on_c, 9, 44, 0
1, 46815, Note_on_c, 9, 44, 73
1, 46815, Note_on_c, 9, 36, 96
1, 46827, Note_on_c, 9, 44, 0
1, 47039, Note_on_c, 9, 38, 0
1, 47039, Note_on_c, 9, 36, 0
1, 47070, Note_on_c, 9, 44, 85
1, 47070, Note_on_c, 9, 36, 117
1, 47074, Note_on_c, 9, 44, 0
1, 47159, Note_on_c, 9, 36, 0
1, 47295, Note_on_c, 9, 44, 61
1, 47295, Note_on_c, 9, 44, 0
1, 47310, Note_on_c, 9, 36, 103
1, 47399, Note_on_c, 9, 36, 0
1, 47535, Note_on_c, 9, 38, 108
1, 47535, Note_on_c, 9, 44, 77
1, 47547, Note_on_c, 9, 44, 0
1, 47759, Note_on_c, 9, 38, 0
1, 47760, Note_on_c, 9, 44, 74
1, 47760, Note_on_c, 9, 44, 0
1, 47775, Note_on_c, 9, 36, 101
1, 47999, Note_on_c, 9, 36, 0
1, 48015, Note_on_c, 9, 44, 67
1, 48015, Note_on_c, 9, 36, 107
1, 48027, Note_on_c, 9, 44, 0
1, 48239, Note_on_c, 9, 36, 0
1, 48255, Note_on_c, 9, 44, 65
1, 48255, Note_on_c, 9, 36, 104
1, 48267, Note_on_c, 9, 44, 0
1, 48479, Note_on_c, 9, 36, 0
1, 48480, Note_on_c, 9, 44, 54
1, 48493, Note_on_c, 9, 44, 0
1, 48495, Note_on_c, 9, 38, 103
1, 48719, Note_on_c, 9, 38, 0
1, 48720, Note_on_c, 9, 36, 100
1, 48734, Note_on_c, 9, 36, 0
1, 48735, Note_on_c, 9, 44, 73
1, 48747, Note_on_c, 9, 44, 0
1, 48960, Note_on_c, 9, 36, 115
1, 48975, Note_on_c, 9, 49, 73
1, 48987, Note_on_c, 9, 49, 0
1, 49439, Note_on_c, 9, 36, 0
1, 49455, Note_on_c, 9, 44, 65
1, 49467, Note_on_c, 9, 44, 0
1, 49470, Note_on_c, 9, 38, 110
1, 49695, Note_on_c, 9, 44, 56
1, 49707, Note_on_c, 9, 44, 0
1, 49919, Note_on_c, 9, 38, 0
1, 49935, Note_on_c, 9, 44, 82
1, 49935, Note_on_c, 9, 44, 0
1, 49950, Note_on_c, 9, 36, 110
1, 50039, Note_on_c, 9, 36, 0
1, 50160, Note_on_c, 9, 44, 61
1, 50160, Note_on_c, 9, 44, 0
1, 50190, Note_on_c, 9, 36, 103
1, 50279, Note_on_c, 9, 36, 0
1, 50415, Note_on_c, 9, 44, 61
1, 50427, Note_on_c, 9, 44, 0
1, 50430, Note_on_c, 9, 38, 100
1, 50655, Note_on_c, 9, 44, 58
1, 50655, Note_on_c, 9, 36, 100
1, 50667, Note_on_c, 9, 44, 0
1, 50879, Note_on_c, 9, 38, 0
1, 50879, Note_on_c, 9, 36, 0
1, 50910, Note_on_c, 9, 44, 84
1, 50910, Note_on_c, 9, 36, 117
1, 50914, Note_on_c, 9, 44, 0
1, 50999, Note_on_c, 9, 36, 0
1, 51135, Note_on_c, 9, 44, 53
1, 51135, Note_on_c, 9, 44, 0
1, 51150, Note_on_c, 9, 36, 103
1, 51239, Note_on_c, 9, 36, 0
1, 51375, Note_on_c, 9, 38, 109
1, 51375, Note_on_c, 9, 44, 75
1, 51387, Note_on_c, 9, 44, 0
1, 51599, Note_on_c, 9, 38, 0
1, 51615, Note_on_c, 9, 44, 66
1, 51615, Note_on_c, 9, 36, 95
1, 51627, Note_on_c, 9, 44, 0
1, 51839, Note_on_c, 9, 36, 0
1, 51855, Note_on_c, 9, 44, 74
1, 51855, Note_on_c, 9, 36, 110
1, 51867, Note_on_c, 9, 44, 0
1, 52079, Note_on_c, 9, 36, 0
1, 52095, Note_on_c, 9, 44, 70
1, 52095, Note_on_c, 9, 44, 0
1, 52110, Note_on_c, 9, 36, 103
1, 52199, Note_on_c, 9, 36, 0
1, 52335, Note_on_c, 9, 38, 114
1, 52335, Note_on_c, 9, 44, 75
1, 52347, Note_on_c, 9, 44, 0
1, 52559, Note_on_c, 9, 38, 0
1, 52560, Note_on_c, 9, 36, 103
1, 52574, Note_on_c, 9, 36, 0
1, 52575, Note_on_c, 9, 44, 81
1, 52587, Note_on_c, 9, 44, 0
1, 52815, Note_on_c, 9, 49, 67
1, 52815, Note_on_c, 9, 36, 111
1, 52827, Note_on_c, 9, 49, 0
1, 53039, Note_on_c, 9, 36, 0
1, 53055, Note_on_c, 9, 36, 101
1, 53279, Note_on_c, 9, 36, 0
1, 53280, Note_on_c, 9, 44, 79
1, 53293, Note_on_c, 9, 44, 0
1, 53295, Note_on_c, 9, 38, 108
1, 53519, Note_on_c, 9, 38, 0
1, 53520, Note_on_c, 9, 44, 64
1, 53533, Note_on_c, 9, 44, 0
1, 53775, Note_on_c, 9, 44, 67
1, 53775, Note_on_c, 9, 44, 0
1, 53790, Note_on_c, 9, 36, 106
1, 53879, Note_on_c, 9, 36, 0
1, 54015, Note_on_c, 9, 44, 85
1, 54015, Note_on_c, 9, 44, 0
1, 54030, Note_on_c, 9, 36, 103
1, 54119, Note_on_c, 9, 36, 0
1, 54270, Note_on_c, 9, 38, 104
1, 54270, Note_on_c, 9, 44, 67
1, 54274, Note_on_c, 9, 44, 0
1, 54495, Note_on_c, 9, 36, 100
1, 54509, Note_on_c, 9, 36, 0
1, 54510, Note_on_c, 9, 44, 61
1, 54514, Note_on_c, 9, 44, 0
1, 54719, Note_on_c, 9, 38, 0
1, 54735, Note_on_c, 9, 44, 77
1, 54735, Note_on_c, 9, 44, 0
1, 54750, Note_on_c, 9, 36, 116
1, 54839, Note_on_c, 9, 36, 0
1, 54990, Note_on_c, 9, 44, 77
1, 54990, Note_on_c, 9, 36, 101
1, 54994, Note_on_c, 9, 44, 0
1, 55079, Note_on_c, 9, 36, 0
1, 55230, Note_on_c, 9, 44, 66
1, 55234, Note_on_c, 9, 44, 0
1, 55245, Note_on_c, 9, 38, 103
1, 55439, Note_on_c, 9, 38, 0
1, 55470, Note_on_c, 9, 44, 85
1, 55470, Note_on_c, 9, 36, 95
1, 55474, Note_on_c, 9, 44, 0
1, 55559, Note_on_c, 9, 36, 0
1, 55695, Note_on_c, 9, 44, 89
1, 55695, Note_on_c, 9, 36, 105
1, 55707, Note_on_c, 9, 44, 0
1, 55919, Note_on_c, 9, 36, 0
1, 55935, Note_on_c, 9, 44, 82
1, 55935, Note_on_c, 9, 36, 100
1, 55947, Note_on_c, 9, 44, 0
1, 56159, Note_on_c, 9, 36, 0
1, 56175, Note_on_c, 9, 38, 103
1, 56175, Note_on_c, 9, 44, 70
1, 56187, Note_on_c, 9, 44, 0
1, 56399, Note_on_c, 9, 38, 0
1, 56415, Note_on_c, 9, 44, 82
1, 56415, Note_on_c, 9, 36, 94
1, 56427, Note_on_c, 9, 44, 0
1, 56639, Note_on_c, 9, 36, 0
1, 56655, Note_on_c, 9, 44, 82
1, 56655, Note_on_c, 9, 36, 121
1, 56667, Note_on_c, 9, 44, 0
1, 56879, Note_on_c, 9, 36, 0
1, 56880, Note_on_c, 9, 36, 102
1, 56894, Note_on_c, 9, 36, 0
1, 56895, Note_on_c, 9, 44, 61
1, 56907, Note_on_c, 9, 44, 0
1, 57120, Note_on_c, 9, 38, 99
1, 57120, Note_on_c, 9, 44, 67
1, 57133, Note_on_c, 9, 44, 0
1, 57360, Note_on_c, 9, 36, 100
1, 57374, Note_on_c, 9, 36, 0
1, 57375, Note_on_c, 9, 44, 67
1, 57387, Note_on_c, 9, 44, 0
1, 57599, Note_on_c, 9, 38, 0
1, 57630, Note_on_c, 9, 44, 68
1, 57630, Note_on_c, 9, 36, 109
1, 57634, Note_on_c, 9, 44, 0
1, 57719, Note_on_c, 9, 36, 0
1, 57870, Note_on_c, 9, 44, 74
1, 57870, Note_on_c, 9, 36, 101
1, 57874, Note_on_c, 9, 44, 0
1, 57959, Note_on_c, 9, 36, 0
1, 58095, Note_on_c, 9, 44, 72
1, 58107, Note_on_c, 9, 44, 0
1, 58110, Note_on_c, 9, 38, 102
1, 58350, Note_on_c, 9, 44, 74
1, 58350, Note_on_c, 9, 36, 107
1, 58354, Note_on_c, 9, 44, 0
1, 58439, Note_on_c, 9, 36, 0
1, 58559, Note_on_c, 9, 38, 0
1, 58590, Note_on_c, 9, 44, 46
1, 58590, Note_on_c, 9, 36, 111
1, 58594, Note_on_c, 9, 44, 0
1, 58679, Note_on_c, 9, 36, 0
1, 58830, Note_on_c, 9, 44, 56
1, 58830, Note_on_c, 9, 36, 95
1, 58834, Note_on_c, 9, 44, 0
1, 58919, Note_on_c, 9, 36, 0
1, 59055, Note_on_c, 9, 44, 72
1, 59067, Note_on_c, 9, 44, 0
1, 59070, Note_on_c, 9, 38, 100
1, 59280, Note_on_c, 9, 44, 82
1, 59280, Note_on_c, 9, 44, 0
1, 59310, Note_on_c, 9, 36, 90
1, 59399, Note_on_c, 9, 36, 0
1, 59519, Note_on_c, 9, 38, 0
1, 59535, Note_on_c, 9, 44, 73
1, 59535, Note_on_c, 9, 44, 0
1, 59550, Note_on_c, 9, 36, 103
1, 59639, Note_on_c, 9, 36, 0
1, 59790, Note_on_c, 9, 44, 78
1, 59790, Note_on_c, 9, 44, 0
1, 59805, Note_on_c, 9, 36, 103
1, 59999, Note_on_c, 9, 36, 0
1, 60030, Note_on_c, 9, 44, 78
1, 60034, Note_on_c, 9, 44, 0
1, 60045, Note_on_c, 9, 38, 113
1, 60239, Note_on_c, 9, 38, 0
1, 60255, Note_on_c, 9, 44, 67
1, 60255, Note_on_c, 9, 44, 0
1, 60270, Note_on_c, 9, 36, 96
1, 60359, Note_on_c, 9, 36, 0
1, 60495, Note_on_c, 9, 36, 110
1, 60509, Note_on_c, 9, 36, 0
1, 60510, Note_on_c, 9, 44, 97
1, 60514, Note_on_c, 9, 44, 0
1, 60735, Note_on_c, 9, 44, 78
1, 60735, Note_on_c, 9, 44, 0
1, 60750, Note_on_c, 9, 36, 100
1, 60839, Note_on_c, 9, 36, 0
1, 60975, Note_on_c, 9, 44, 85
1, 60987, Note_on_c, 9, 44, 0
1, 60990, Note_on_c, 9, 38, 106
1, 61215, Note_on_c, 9, 36, 77
1, 61229, Note_on_c, 9, 36, 0
1, 61230, Note_on_c, 9, 44, 72
1, 61234, Note_on_c, 9, 44, 0
1, 61439, Note_on_c, 9, 38, 0
1, 61470, Note_on_c, 9, 44, 74
1, 61470, Note_on_c, 9, 44, 0
1, 61485, Note_on_c, 9, 36, 110
1, 61679, Note_on_c, 9, 36, 0
1, 61695, Note_on_c, 9, 44, 71
1, 61695, Note_on_c, 9, 44, 0
1, 61725, Note_on_c, 9, 36, 96
1, 61919, Note_on_c, 9, 36, 0
1, 61935, Note_on_c, 9, 44, 72
1, 61947, Note_on_c, 9, 44, 0
1, 61950, Note_on_c, 9, 38, 101
1, 62175, Note_on_c, 9, 44, 67
1, 62175, Note_on_c, 9, 44, 0
1, 62190, Note_on_c, 9, 36, 95
1, 62279, Note_on_c, 9, 36, 0
1, 62399, Note_on_c, 9, 38, 0
1, 62415, Note_on_c, 9, 44, 85
1, 62415, Note_on_c, 9, 44, 0
1, 62430, Note_on_c, 9, 36, 117
1, 62519, Note_on_c, 9, 36, 0
1, 62655, Note_on_c, 9, 44, 61
1, 62655, Note_on_c, 9, 44, 0
1, 62670, Note_on_c, 9, 36, 101
1, 62759, Note_on_c, 9, 36, 0
1, 62895, Note_on_c, 9, 44, 81
1, 62907, Note_on_c, 9, 44, 0
1, 62910, Note_on_c, 9, 38, 103
1, 63135, Note_on_c, 9, 44, 70
1, 63135, Note_on_c, 9, 44, 0
1, 63150, Note_on_c, 9, 36, 85
1, 63239, Note_on_c, 9, 36, 0
1, 63359, Note_on_c, 9, 38, 0
1, 63375, Note_on_c, 9, 44, 74
1, 63375, Note_on_c, 9, 44, 0
1, 63405, Note_on_c, 9, 36, 110
1, 63599, Note_on_c, 9, 36, 0
1, 63630, Note_on_c, 9, 44, 67
1, 63630, Note_on_c, 9, 44, 0
1, 63645, Note_on_c, 9, 36, 101
1, 63839, Note_on_c, 9, 36, 0
1, 63885, Note_on_c, 9, 44, 79
1, 63895, Note_on_c, 9, 44, 0
1, 63900, Note_on_c, 9, 38, 100
1, 64079, Note_on_c, 9, 38, 0
1, 64110, Note_on_c, 9, 44, 79
1, 64110, Note_on_c, 9, 44, 0
1, 64125, Note_on_c, 9, 36, 90
1, 64319, Note_on_c, 9, 36, 0
1, 64335, Note_on_c, 9, 49, 72
1, 64347, Note_on_c, 9, 49, 0
1, 64350, Note_on_c, 9, 36, 110
1, 64439, Note_on_c, 9, 36, 0
1, 64590, Note_on_c, 9, 36, 107
1, 64679, Note_on_c, 9, 36, 0
1, 64815, Note_on_c, 9, 44, 66
1, 64827, Note_on_c, 9, 44, 0
1, 64830, Note_on_c, 9, 38, 115
1, 65055, Note_on_c, 9, 44, 75
1, 65067, Note_on_c, 9, 44, 0
1, 65279, Note_on_c, 9, 38, 0
1, 65310, Note_on_c, 9, 44, 79
1, 65310, Note_on_c, 9, 44, 0
1, 65325, Note_on_c, 9, 36, 107
1, 65519, Note_on_c, 9, 36, 0
1, 65550, Note_on_c, 9, 44, 59
1, 65550, Note_on_c, 9, 36, 103
1, 65554, Note_on_c, 9, 44, 0
1, 65639, Note_on_c, 9, 36, 0
1, 65790, Note_on_c, 9, 44, 67
1, 65794, Note_on_c, 9, 44, 0
1, 65805, Note_on_c, 9, 38, 113
1, 65999, Note_on_c, 9, 38, 0
1, 66060, Note_on_c, 9, 44, 73
1, 66070, Note_on_c, 9, 44, 0
1, 66315, Note_on_c, 9, 44, 84
1, 66315, Note_on_c, 9, 36, 105
1, 66325, Note_on_c, 9, 44, 0
1, 66524, Note_on_c, 9, 36, 0
1, 66525, Note_on_c, 9, 81, 105
1, 66525, Note_on_c, 9, 44, 56
1, 66525, Note_on_c, 9, 36, 100
1, 66535, Note_on_c, 9, 44, 0
1, 66719, Note_on_c, 9, 81, 0
1, 66719, Note_on_c, 9, 36, 0
1, 66720, Note_on_c, 9, 81, 111
1, 66720, Note_on_c, 9, 44, 67
1, 66733, Note_on_c, 9, 44, 0
1, 66734, Note_on_c, 9, 81, 0
1, 66735, Note_on_c, 9, 38, 118
1, 66959, Note_on_c, 9, 38, 0
1, 66975, Note_on_c, 9, 44, 66
1, 66987, Note_on_c, 9, 44, 0
1, 67230, Note_on_c, 9, 81, 111
1, 67230, Note_on_c, 9, 44, 72
1, 67230, Note_on_c, 9, 36, 107
1, 67234, Note_on_c, 9, 44, 0
1, 67319, Note_on_c, 9, 81, 0
1, 67319, Note_on_c, 9, 36, 0
1, 67455, Note_on_c, 9, 81, 119
1, 67455, Note_on_c, 9, 44, 66
1, 67455, Note_on_c, 9, 36, 102
1, 67467, Note_on_c, 9, 44, 0
1, 67679, Note_on_c, 9, 81, 0
1, 67679, Note_on_c, 9, 36, 0
1, 67695, Note_on_c, 9, 38, 109
1, 67695, Note_on_c, 9, 44, 73
1, 67707, Note_on_c, 9, 44, 0
1, 67919, Note_on_c, 9, 38, 0
1, 67935, Note_on_c, 9, 44, 65
1, 67947, Note_on_c, 9, 44, 0
1, 68175, Note_on_c, 9, 44, 66
1, 68175, Note_on_c, 9, 44, 0
1, 68190, Note_on_c, 9, 36, 101
1, 68279, Note_on_c, 9, 36, 0
1, 68415, Note_on_c, 9, 44, 59
1, 68415, Note_on_c, 9, 36, 105
1, 68427, Note_on_c, 9, 44, 0
1, 68639, Note_on_c, 9, 36, 0
1, 68640, Note_on_c, 9, 44, 61
1, 68653, Note_on_c, 9, 44, 0
1, 68655, Note_on_c, 9, 38, 110
1, 68669, Note_on_c, 9, 38, 0
1, 68670, Note_on_c, 9, 54, 70
1, 68895, Note_on_c, 9, 44, 68
1, 68907, Note_on_c, 9, 44, 0
1, 69119, Note_on_c, 9, 54, 0
1, 69150, Note_on_c, 9, 44, 67
1, 69150, Note_on_c, 9, 44, 0
1, 69165, Note_on_c, 9, 36, 106
1, 69359, Note_on_c, 9, 36, 0
1, 69375, Note_on_c, 9, 44, 65
1, 69375, Note_on_c, 9, 36, 108
1, 69387, Note_on_c, 9, 44, 0
1, 69599, Note_on_c, 9, 36, 0
1, 69600, Note_on_c, 9, 38, 108
1, 69600, Note_on_c, 9, 44, 61
1, 69612, Note_on_c, 9, 44, 0
1, 69614, Note_on_c, 9, 38, 0
1, 69615, Note_on_c, 9, 54, 79
1, 69825, Note_on_c, 9, 44, 63
1, 69825, Note_on_c, 9, 44, 0
1, 69839, Note_on_c, 9, 54, 0
1, 69855, Note_on_c, 9, 36, 114
1, 70079, Note_on_c, 9, 36, 0
1, 70080, Note_on_c, 9, 44, 99
1, 70093, Note_on_c, 9, 44, 0
1, 70320, Note_on_c, 9, 44, 66
1, 70320, Note_on_c, 9, 44, 0
1, 70335, Note_on_c, 9, 36, 106
1, 70559, Note_on_c, 9, 36, 0
1, 70560, Note_on_c, 9, 44, 60
1, 70573, Note_on_c, 9, 44, 0
1, 70575, Note_on_c, 9, 38, 110
1, 70575, Note_on_c, 9, 54, 74
1, 70799, Note_on_c, 9, 38, 0
1, 70799, Note_on_c, 9, 54, 0
1, 70830, Note_on_c, 9, 44, 52
1, 70834, Note_on_c, 9, 44, 0
1, 71070, Note_on_c, 9, 44, 62
1, 71070, Note_on_c, 9, 36, 103
1, 71074, Note_on_c, 9, 44, 0
1, 71159, Note_on_c, 9, 36, 0
1, 71295, Note_on_c, 9, 44, 62
1, 71295, Note_on_c, 9, 44, 0
1, 71310, Note_on_c, 9, 36, 110
1, 71399, Note_on_c, 9, 36, 0
1, 71535, Note_on_c, 9, 38, 113
1, 71535, Note_on_c, 9, 54, 85
1, 71535, Note_on_c, 9, 44, 61
1, 71547, Note_on_c, 9, 44, 0
1, 71759, Note_on_c, 9, 38, 0
1, 71759, Note_on_c, 9, 54, 0
1, 71760, Note_on_c, 9, 44, 62
1, 71760, Note_on_c, 9, 44, 0
1, 71775, Note_on_c, 9, 36, 98
1, 71999, Note_on_c, 9, 36, 0
1, 72015, Note_on_c, 9, 44, 87
1, 72015, Note_on_c, 9, 36, 117
1, 72027, Note_on_c, 9, 44, 0
1, 72239, Note_on_c, 9, 36, 0
1, 72255, Note_on_c, 9, 44, 74
1, 72267, Note_on_c, 9, 44, 0
1, 72510, Note_on_c, 9, 38, 113
1, 72510, Note_on_c, 9, 54, 72
1, 72510, Note_on_c, 9, 44, 78
1, 72514, Note_on_c, 9, 44, 0
1, 72735, Note_on_c, 9, 44, 71
1, 72747, Note_on_c, 9, 44, 0
1, 72959, Note_on_c, 9, 38, 0
1, 72959, Note_on_c, 9, 54, 0
1, 72975, Note_on_c, 9, 44, 84
1, 72975, Note_on_c, 9, 44, 0
1, 72990, Note_on_c, 9, 36, 106
1, 73079, Note_on_c, 9, 36, 0
1, 73215, Note_on_c, 9, 44, 74
1, 73215, Note_on_c, 9, 44, 0
1, 73230, Note_on_c, 9, 36, 104
1, 73319, Note_on_c, 9, 36, 0
1, 73455, Note_on_c, 9, 54, 82
1, 73469, Note_on_c, 9, 54, 0
1, 73470, Note_on_c, 9, 38, 118
1, 73470, Note_on_c, 9, 44, 77
1, 73474, Note_on_c, 9, 44, 0
1, 73710, Note_on_c, 9, 44, 71
1, 73714, Note_on_c, 9, 44, 0
1, 73919, Note_on_c, 9, 38, 0
1, 73950, Note_on_c, 9, 44, 89
1, 73950, Note_on_c, 9, 44, 0
1, 73965, Note_on_c, 9, 36, 111
1, 74159, Note_on_c, 9, 36, 0
1, 74190, Note_on_c, 9, 44, 72
1, 74194, Note_on_c, 9, 44, 0
1, 74415, Note_on_c, 9, 38, 113
1, 74429, Note_on_c, 9, 38, 0
1, 74430, Note_on_c, 9, 54, 81
1, 74430, Note_on_c, 9, 44, 72
1, 74434, Note_on_c, 9, 44, 0
1, 74670, Note_on_c, 9, 44, 81
1, 74670, Note_on_c, 9, 36, 104
1, 74674, Note_on_c, 9, 44, 0
1, 74759, Note_on_c, 9, 36, 0
1, 74879, Note_on_c, 9, 54, 0
1, 74895, Note_on_c, 9, 44, 67
1, 74907, Note_on_c, 9, 44, 0
1, 75135, Note_on_c, 9, 44, 73
1, 75135, Note_on_c, 9, 36, 103
1, 75147, Note_on_c, 9, 44, 0
1, 75359, Note_on_c, 9, 36, 0
1, 75360, Note_on_c, 9, 38, 116
1, 75360, Note_on_c, 9, 54, 87
1, 75360, Note_on_c, 9, 44, 75
1, 75373, Note_on_c, 9, 44, 0
1, 75600, Note_on_c, 9, 44, 70
1, 75600, Note_on_c, 9, 36, 97
1, 75613, Note_on_c, 9, 44, 0
1, 75839, Note_on_c, 9, 38, 0
1, 75839, Note_on_c, 9, 54, 0
1, 75839, Note_on_c, 9, 36, 0
1, 75840, Note_on_c, 9, 44, 91
1, 75840, Note_on_c, 9, 44, 0
1, 75870, Note_on_c, 9, 36, 121
1, 75959, Note_on_c, 9, 36, 0
1, 76095, Note_on_c, 9, 44, 70
1, 76107, Note_on_c, 9, 44, 0
1, 76335, Note_on_c, 9, 38, 109
1, 76335, Note_on_c, 9, 54, 84
1, 76335, Note_on_c, 9, 44, 75
1, 76347, Note_on_c, 9, 44, 0
1, 76559, Note_on_c, 9, 38, 0
1, 76559, Note_on_c, 9, 54, 0
1, 76560, Note_on_c, 9, 44, 62
1, 76560, Note_on_c, 9, 44, 0
1, 76590, Note_on_c, 9, 36, 110
1, 76679, Note_on_c, 9, 36, 0
1, 76815, Note_on_c, 9, 44, 74
1, 76827, Note_on_c, 9, 44, 0
1, 77040, Note_on_c, 9, 44, 61
1, 77040, Note_on_c, 9, 44, 0
1, 77070, Note_on_c, 9, 36, 101
1, 77159, Note_on_c, 9, 36, 0
1, 77280, Note_on_c, 9, 54, 81
1, 77280, Note_on_c, 9, 44, 67
1, 77293, Note_on_c, 9, 44, 0
1, 77294, Note_on_c, 9, 54, 0
1, 77295, Note_on_c, 9, 38, 111
1, 77519, Note_on_c, 9, 38, 0
1, 77520, Note_on_c, 9, 44, 67
1, 77520, Note_on_c, 9, 36, 98
1, 77533, Note_on_c, 9, 44, 0
1, 77759, Note_on_c, 9, 36, 0
1, 77760, Note_on_c, 9, 44, 82
1, 77773, Note_on_c, 9, 44, 0
1, 78000, Note_on_c, 9, 44, 61
1, 78000, Note_on_c, 9, 44, 0
1, 78015, Note_on_c, 9, 36, 98
1, 78239, Note_on_c, 9, 36, 0
1, 78255, Note_on_c, 9, 38, 111
1, 78255, Note_on_c, 9, 54, 85
1, 78255, Note_on_c, 9, 44, 71
1, 78267, Note_on_c, 9, 44, 0
1, 78479, Note_on_c, 9, 38, 0
1, 78479, Note_on_c, 9, 54, 0
1, 78495, Note_on_c, 9, 44, 67
1, 78507, Note_on_c, 9, 44, 0
1, 78750, Note_on_c, 9, 44, 75
1, 78750, Note_on_c, 9, 36, 103
1, 78754, Note_on_c, 9, 44, 0
1, 78839, Note_on_c, 9, 36, 0
1, 78975, Note_on_c, 9, 44, 62
1, 78975, Note_on_c, 9, 44, 0
1, 78990, Note_on_c, 9, 36, 100
1, 79079, Note_on_c, 9, 36, 0
1, 79215, Note_on_c, 9, 38, 105
1, 79215, Note_on_c, 9, 54, 84
1, 79215, Note_on_c, 9, 44, 65
1, 79227, Note_on_c, 9, 44, 0
1, 79439, Note_on_c, 9, 38, 0
1, 79439, Note_on_c, 9, 54, 0
1, 79455, Note_on_c, 9, 44, 67
1, 79455, Note_on_c, 9, 36, 100
1, 79467, Note_on_c, 9, 44, 0
1, 79679, Note_on_c, 9, 36, 0
1, 79695, Note_on_c, 9, 44, 89
1, 79695, Note_on_c, 9, 44, 0
1, 79710, Note_on_c, 9, 36, 118
1, 79799, Note_on_c, 9, 36, 0
1, 79920, Note_on_c, 9, 44, 67
1, 79920, Note_on_c, 9, 44, 0
1, 79935, Note_on_c, 9, 36, 104
1, 80159, Note_on_c, 9, 36, 0
1, 80160, Note_on_c, 9, 44, 67
1, 80173, Note_on_c, 9, 44, 0
1, 80175, Note_on_c, 9, 38, 113
1, 80175, Note_on_c, 9, 54, 78
1, 80399, Note_on_c, 9, 38, 0
1, 80399, Note_on_c, 9, 54, 0
1, 80415, Note_on_c, 9, 44, 67
1, 80427, Note_on_c, 9, 44, 0
1, 80670, Note_on_c, 9, 44, 73
1, 80670, Note_on_c, 9, 36, 108
1, 80674, Note_on_c, 9, 44, 0
1, 80759, Note_on_c, 9, 36, 0
1, 80895, Note_on_c, 9, 44, 58
1, 80895, Note_on_c, 9, 44, 0
1, 80910, Note_on_c, 9, 36, 103
1, 80999, Note_on_c, 9, 36, 0
1, 81135, Note_on_c, 9, 54, 81
1, 81135, Note_on_c, 9, 44, 67
1, 81147, Note_on_c, 9, 44, 0
1, 81149, Note_on_c, 9, 54, 0
1, 81150, Note_on_c, 9, 38, 110
1, 81375, Note_on_c, 9, 44, 67
1, 81387, Note_on_c, 9, 44, 0
1, 81599, Note_on_c, 9, 38, 0
1, 81615, Note_on_c, 9, 36, 104
1, 81629, Note_on_c, 9, 36, 0
1, 81630, Note_on_c, 9, 44, 84
1, 81634, Note_on_c, 9, 44, 0
1, 81870, Note_on_c, 9, 44, 67
1, 81870, Note_on_c, 9, 36, 103
1, 81874, Note_on_c, 9, 44, 0
1, 81959, Note_on_c, 9, 36, 0
1, 82110, Note_on_c, 9, 54, 82
1, 82124, Note_on_c, 9, 54, 0
1, 82125, Note_on_c, 9, 38, 113
1, 82125, Note_on_c, 9, 44, 72
1, 82137, Note_on_c, 9, 44, 0
1, 82319, Note_on_c, 9, 38, 0
1, 82365, Note_on_c, 9, 44, 68
1, 82375, Note_on_c, 9, 44, 0
1, 82605, Note_on_c, 9, 36, 90
1, 82619, Note_on_c, 9, 36, 0
1, 82620, Note_on_c, 9, 44, 72
1, 82630, Note_on_c, 9, 44, 0
1, 82830, Note_on_c, 9, 36, 108
1, 82844, Note_on_c, 9, 36, 0
1, 82845, Note_on_c, 9, 44, 87
1, 82855, Note_on_c, 9, 44, 0
1, 83055, Note_on_c, 9, 38, 107
1, 83069, Note_on_c, 9, 38, 0
1, 83070, Note_on_c, 9, 54, 85
1, 83129, Note_on_c, 9, 54, 0
1, 83145, Note_on_c, 9, 38, 86
1, 83159, Note_on_c, 9, 38, 0
1, 83220, Note_on_c, 9, 38, 83
1, 83279, Note_on_c, 9, 38, 0
1, 83310, Note_on_c, 9, 38, 127
1, 83399, Note_on_c, 9, 38, 0
1, 83550, Note_on_c, 9, 36, 117
1, 83564, Note_on_c, 9, 36, 0
1, 83565, Note_on_c, 9, 44, 89
1, 83575, Note_on_c, 9, 44, 0
1, 83790, Note_on_c, 9, 44, 61
1, 83794, Note_on_c, 9, 44, 0
1, 84000, Note_on_c, 9, 38, 108
1, 84015, Note_on_c, 9, 44, 84
1, 84027, Note_on_c, 9, 44, 0
1, 84029, Note_on_c, 9, 38, 0
1, 84030, Note_on_c, 9, 54, 84
1, 84240, Note_on_c, 9, 44, 67
1, 84240, Note_on_c, 9, 44, 0
1, 84255, Note_on_c, 9, 36, 110
1, 84479, Note_on_c, 9, 54, 0
1, 84479, Note_on_c, 9, 36, 0
1, 84480, Note_on_c, 9, 44, 91
1, 84493, Note_on_c, 9, 44, 0
1, 84720, Note_on_c, 9, 44, 66
1, 84720, Note_on_c, 9, 36, 103
1, 84733, Note_on_c, 9, 44, 0
1, 84959, Note_on_c, 9, 36, 0
1, 84960, Note_on_c, 9, 54, 82
1, 84960, Note_on_c, 9, 44, 75
1, 84972, Note_on_c, 9, 44, 0
1, 84974, Note_on_c, 9, 54, 0
1, 84975, Note_on_c, 9, 38, 113
1, 85185, Note_on_c, 9, 44, 67
1, 85185, Note_on_c, 9, 44, 0
1, 85199, Note_on_c, 9, 38, 0
1, 85200, Note_on_c, 9, 36, 107
1, 85439, Note_on_c, 9, 36, 0
1, 85440, Note_on_c, 9, 44, 75
1, 85453, Note_on_c, 9, 44, 0
1, 85680, Note_on_c, 9, 36, 101
1, 85694, Note_on_c, 9, 36, 0
1, 85695, Note_on_c, 9, 44, 61
1, 85707, Note_on_c, 9, 44, 0
1, 85935, Note_on_c, 9, 38, 114
1, 85935, Note_on_c, 9, 54, 81
1, 85935, Note_on_c, 9, 44, 87
1, 85947, Note_on_c, 9, 44, 0
1, 86159, Note_on_c, 9, 38, 0
1, 86159, Note_on_c, 9, 54, 0
1, 86175, Note_on_c, 9, 44, 63
1, 86187, Note_on_c, 9, 44, 0
1, 86415, Note_on_c, 9, 44, 95
1, 86415, Note_on_c, 9, 44, 0
1, 86430, Note_on_c, 9, 36, 107
1, 86519, Note_on_c, 9, 36, 0
1, 86655, Note_on_c, 9, 44, 65
1, 86655, Note_on_c, 9, 36, 108
1, 86667, Note_on_c, 9, 44, 0
1, 86879, Note_on_c, 9, 36, 0
1, 86880, Note_on_c, 9, 44, 58
1, 86893, Note_on_c, 9, 44, 0
1, 86895, Note_on_c, 9, 54, 77
1, 86909, Note_on_c, 9, 54, 0
1, 86910, Note_on_c, 9, 38, 111
1, 87120, Note_on_c, 9, 44, 55
1, 87133, Note_on_c, 9, 44, 0
1, 87359, Note_on_c, 9, 38, 0
1, 87375, Note_on_c, 9, 44, 93
1, 87375, Note_on_c, 9, 36, 107
1, 87387, Note_on_c, 9, 44, 0
1, 87599, Note_on_c, 9, 36, 0
1, 87615, Note_on_c, 9, 44, 67
1, 87627, Note_on_c, 9, 44, 0
1, 87855, Note_on_c, 9, 38, 103
1, 87855, Note_on_c, 9, 54, 73
1, 87885, Note_on_c, 9, 44, 63
1, 87895, Note_on_c, 9, 44, 0
1, 88079, Note_on_c, 9, 38, 0
1, 88079, Note_on_c, 9, 54, 0
1, 88095, Note_on_c, 9, 44, 62
1, 88095, Note_on_c, 9, 44, 0
1, 88110, Note_on_c, 9, 36, 105
1, 88199, Note_on_c, 9, 36, 0
1, 88335, Note_on_c, 9, 44, 66
1, 88347, Note_on_c, 9, 44, 0
1, 88575, Note_on_c, 9, 44, 67
1, 88575, Note_on_c, 9, 36, 106
1, 88587, Note_on_c, 9, 44, 0
1, 88799, Note_on_c, 9, 36, 0
1, 88800, Note_on_c, 9, 38, 105
1, 88800, Note_on_c, 9, 54, 78
1, 88815, Note_on_c, 9, 44, 75
1, 88827, Note_on_c, 9, 44, 0
1, 89040, Note_on_c, 9, 44, 62
1, 89040, Note_on_c, 9, 36, 114
1, 89053, Note_on_c, 9, 44, 0
1, 89279, Note_on_c, 9, 38, 0
1, 89279, Note_on_c, 9, 54, 0
1, 89279, Note_on_c, 9, 36, 0
1, 89280, Note_on_c, 9, 44, 70
1, 89293, Note_on_c, 9, 44, 0
1, 89520, Note_on_c, 9, 44, 61
1, 89520, Note_on_c, 9, 44, 0
1, 89535, Note_on_c, 9, 36, 105
1, 89759, Note_on_c, 9, 36, 0
1, 89775, Note_on_c, 9, 38, 110
1, 89775, Note_on_c, 9, 54, 79
1, 89775, Note_on_c, 9, 44, 68
1, 89787, Note_on_c, 9, 44, 0
1, 89999, Note_on_c, 9, 38, 0
1, 89999, Note_on_c, 9, 54, 0
1, 90030, Note_on_c, 9, 44, 60
1, 90034, Note_on_c, 9, 44, 0
1, 90270, Note_on_c, 9, 44, 70
1, 90270, Note_on_c, 9, 36, 102
1, 90274, Note_on_c, 9, 44, 0
1, 90359, Note_on_c, 9, 36, 0
1, 90495, Note_on_c, 9, 44, 72
1, 90495, Note_on_c, 9, 44, 0
1, 90510, Note_on_c, 9, 36, 100
1, 90599, Note_on_c, 9, 36, 0
1, 90735, Note_on_c, 9, 38, 106
1, 90735, Note_on_c, 9, 54, 70
1, 90735, Note_on_c, 9, 44, 68
1, 90747, Note_on_c, 9, 44, 0
1, 90959, Note_on_c, 9, 38, 0
1, 90959, Note_on_c, 9, 54, 0
1, 90990, Note_on_c, 9, 44, 74
1, 90994, Note_on_c, 9, 44, 0
1, 91215, Note_on_c, 9, 44, 87
1, 91215, Note_on_c, 9, 36, 100
1, 91227, Note_on_c, 9, 44, 0
1, 91439, Note_on_c, 9, 36, 0
1, 91455, Note_on_c, 9, 44, 66
1, 91455, Note_on_c, 9, 36, 104
1, 91467, Note_on_c, 9, 44, 0
1, 91679, Note_on_c, 9, 36, 0
1, 91680, Note_on_c, 9, 54, 63
1, 91695, Note_on_c, 9, 44, 75
1, 91707, Note_on_c, 9, 44, 0
1, 91724, Note_on_c, 9, 54, 0
1, 91725, Note_on_c, 9, 38, 109
1, 91919, Note_on_c, 9, 38, 0
1, 91950, Note_on_c, 9, 44, 71
1, 91954, Note_on_c, 9, 44, 0
1, 92190, Note_on_c, 9, 44, 74
1, 92190, Note_on_c, 9, 44, 0
1, 92205, Note_on_c, 9, 36, 101
1, 92399, Note_on_c, 9, 36, 0
1, 92430, Note_on_c, 9, 44, 75
1, 92430, Note_on_c, 9, 36, 102
1, 92434, Note_on_c, 9, 44, 0
1, 92519, Note_on_c, 9, 36, 0
1, 92655, Note_on_c, 9, 54, 81
1, 92669, Note_on_c, 9, 54, 0
1, 92670, Note_on_c, 9, 38, 115
1, 92670, Note_on_c, 9, 44, 95
1, 92674, Note_on_c, 9, 44, 0
1, 92895, Note_on_c, 9, 36, 96
1, 92909, Note_on_c, 9, 36, 0
1, 92910, Note_on_c, 9, 44, 65
1, 92914, Note_on_c, 9, 44, 0
1, 93119, Note_on_c, 9, 38, 0
1, 93135, Note_on_c, 9, 49, 67
1, 93135, Note_on_c, 9, 36, 113
1, 93147, Note_on_c, 9, 49, 0
1, 93359, Note_on_c, 9, 36, 0
1, 93600, Note_on_c, 9, 38, 110
1, 93614, Note_on_c, 9, 38, 0
1, 93615, Note_on_c, 9, 54, 89
1, 93615, Note_on_c, 9, 44, 58
1, 93627, Note_on_c, 9, 44, 0
1, 93839, Note_on_c, 9, 54, 0
1, 93840, Note_on_c, 9, 44, 78
1, 93853, Note_on_c, 9, 44, 0
1, 94080, Note_on_c, 9, 44, 81
1, 94080, Note_on_c, 9, 44, 0
1, 94095, Note_on_c, 9, 36, 100
1, 94319, Note_on_c, 9, 36, 0
1, 94320, Note_on_c, 9, 44, 63
1, 94320, Note_on_c, 9, 36, 106
1, 94333, Note_on_c, 9, 44, 0
1, 94559, Note_on_c, 9, 36, 0
1, 94605, Note_on_c, 9, 54, 79
1, 94605, Note_on_c, 9, 44, 65
1, 94617, Note_on_c, 9, 44, 0
1, 94619, Note_on_c, 9, 54, 0
1, 94620, Note_on_c, 9, 38, 113
1, 94799, Note_on_c, 9, 38, 0
1, 94845, Note_on_c, 9, 44, 75
1, 94855, Note_on_c, 9, 44, 0
1, 95070, Note_on_c, 9, 36, 101
1, 95084, Note_on_c, 9, 36, 0
1, 95085, Note_on_c, 9, 44, 91
1, 95095, Note_on_c, 9, 44, 0
1, 95310, Note_on_c, 9, 44, 68
1, 95310, Note_on_c, 9, 44, 0
1, 95325, Note_on_c, 9, 36, 98
1, 95519, Note_on_c, 9, 36, 0
1, 95535, Note_on_c, 9, 44, 61
1, 95547, Note_on_c, 9, 44, 0
1, 95565, Note_on_c, 9, 38, 111
1, 95565, Note_on_c, 9, 54, 81
1, 95759, Note_on_c, 9, 38, 0
1, 95759, Note_on_c, 9, 54, 0
1, 95790, Note_on_c, 9, 44, 52
1, 95794, Note_on_c, 9, 44, 0
1, 96030, Note_on_c, 9, 44, 97
1, 96030, Note_on_c, 9, 36, 110
1, 96056, Note_on_c, 9, 44, 0
1, 96255, Note_on_c, 9, 38, 93
1, 96299, Note_on_c, 9, 38, 0
1, 96330, Note_on_c, 9, 38, 88
1, 96404, Note_on_c, 9, 38, 0
1, 96405, Note_on_c, 9, 38, 98
1, 96419, Note_on_c, 9, 38, 0
1, 96479, Note_on_c, 9, 36, 0
1, 96510, Note_on_c, 9, 54, 78
1, 96524, Note_on_c, 9, 54, 0
1, 96525, Note_on_c, 9, 38, 116
1, 96719, Note_on_c, 9, 38, 0
1, 96750, Note_on_c, 9, 38, 107
1, 96839, Note_on_c, 9, 38, 0
1, 96975, Note_on_c, 9, 36, 108
1, 96989, Note_on_c, 9, 36, 0
1, 96990, Note_on_c, 9, 44, 67
1, 96994, Note_on_c, 9, 44, 0
1, 97215, Note_on_c, 9, 44, 50
1, 97227, Note_on_c, 9, 44, 0
1, 97455, Note_on_c, 9, 38, 110
1, 97470, Note_on_c, 9, 44, 58
1, 97474, Note_on_c, 9, 44, 0
1, 97679, Note_on_c, 9, 38, 0
1, 97710, Note_on_c, 9, 44, 67
1, 97714, Note_on_c, 9, 44, 0
1, 97950, Note_on_c, 9, 36, 103
1, 97964, Note_on_c, 9, 36, 0
1, 97965, Note_on_c, 9, 44, 68
1, 97975, Note_on_c, 9, 44, 0
1, 98190, Note_on_c, 9, 44, 67
1, 98190, Note_on_c, 9, 44, 0
1, 98205, Note_on_c, 9, 36, 103
1, 98399, Note_on_c, 9, 36, 0
1, 98430, Note_on_c, 9, 44, 75
1, 98434, Note_on_c, 9, 44, 0
1, 98460, Note_on_c, 9, 38, 114
1, 98639, Note_on_c, 9, 38, 0
1, 98655, Note_on_c, 9, 44, 79
1, 98667, Note_on_c, 9, 44, 0
1, 98895, Note_on_c, 9, 44, 91
1, 98895, Note_on_c, 9, 44, 0
1, 98910, Note_on_c, 9, 36, 109
1, 98999, Note_on_c, 9, 36, 0
1, 99135, Note_on_c, 9, 44, 67
1, 99147, Note_on_c, 9, 44, 0
1, 99360, Note_on_c, 9, 44, 73
1, 99373, Note_on_c, 9, 44, 0
1, 99375, Note_on_c, 9, 38, 110
1, 99599, Note_on_c, 9, 38, 0
1, 99600, Note_on_c, 9, 44, 72
1, 99613, Note_on_c, 9, 44, 0
1, 99855, Note_on_c, 9, 44, 70
1, 99855, Note_on_c, 9, 36, 109
1, 99867, Note_on_c, 9, 44, 0
1, 100079, Note_on_c, 9, 36, 0
1, 100095, Note_on_c, 9, 44, 68
1, 100095, Note_on_c, 9, 44, 0
1, 100110, Note_on_c, 9, 36, 105
1, 100199, Note_on_c, 9, 36, 0
1, 100335, Note_on_c, 9, 38, 110
1, 100335, Note_on_c, 9, 44, 77
1, 100347, Note_on_c, 9, 44, 0
1, 100559, Note_on_c, 9, 38, 0
1, 100575, Note_on_c, 9, 44, 67
1, 100587, Note_on_c, 9, 44, 0
1, 100830, Note_on_c, 9, 44, 99
1, 100830, Note_on_c, 9, 36, 107
1, 100834, Note_on_c, 9, 44, 0
1, 100919, Note_on_c, 9, 36, 0
1, 101070, Note_on_c, 9, 44, 74
1, 101070, Note_on_c, 9, 44, 0
1, 101085, Note_on_c, 9, 36, 105
1, 101279, Note_on_c, 9, 36, 0
1, 101310, Note_on_c, 9, 44, 73
1, 101314, Note_on_c, 9, 44, 0
1, 101325, Note_on_c, 9, 38, 115
1, 101519, Note_on_c, 9, 38, 0
1, 101535, Note_on_c, 9, 44, 73
1, 101547, Note_on_c, 9, 44, 0
1, 101760, Note_on_c, 9, 44, 79
1, 101760, Note_on_c, 9, 44, 0
1, 101775, Note_on_c, 9, 36, 103
1, 101999, Note_on_c, 9, 36, 0
1, 102030, Note_on_c, 9, 44, 79
1, 102030, Note_on_c, 9, 36, 105
1, 102034, Note_on_c, 9, 44, 0
1, 102119, Note_on_c, 9, 36, 0
1, 102270, Note_on_c, 9, 38, 116
1, 102270, Note_on_c, 9, 44, 79
1, 102274, Note_on_c, 9, 44, 0
1, 102510, Note_on_c, 9, 44, 67
1, 102514, Note_on_c, 9, 44, 0
1, 102719, Note_on_c, 9, 38, 0
1, 102765, Note_on_c, 9, 44, 104
1, 102765, Note_on_c, 9, 36, 110
1, 102777, Note_on_c, 9, 44, 0
1, 103004, Note_on_c, 9, 36, 0
1, 103005, Note_on_c, 9, 44, 67
1, 103005, Note_on_c, 9, 44, 0
1, 103020, Note_on_c, 9, 36, 106
1, 103199, Note_on_c, 9, 36, 0
1, 103245, Note_on_c, 9, 44, 75
1, 103255, Note_on_c, 9, 44, 0
1, 103275, Note_on_c, 9, 38, 114
1, 103470, Note_on_c, 9, 44, 66
1, 103474, Note_on_c, 9, 44, 0
1, 103679, Note_on_c, 9, 38, 0
1, 103710, Note_on_c, 9, 44, 79
1, 103710, Note_on_c, 9, 36, 104
1, 103714, Note_on_c, 9, 44, 0
1, 103799, Note_on_c, 9, 36, 0
1, 103950, Note_on_c, 9, 44, 64
1, 103950, Note_on_c, 9, 36, 105
1, 103954, Note_on_c, 9, 44, 0
1, 104039, Note_on_c, 9, 36, 0
1, 104190, Note_on_c, 9, 38, 116
1, 104190, Note_on_c, 9, 44, 60
1, 104194, Note_on_c, 9, 44, 0
1, 104430, Note_on_c, 9, 44, 60
1, 104434, Note_on_c, 9, 44, 0
1, 104639, Note_on_c, 9, 38, 0
1, 104670, Note_on_c, 9, 36, 105
1, 104684, Note_on_c, 9, 36, 0
1, 104685, Note_on_c, 9, 44, 93
1, 104695, Note_on_c, 9, 44, 0
1, 104910, Note_on_c, 9, 44, 61
1, 104910, Note_on_c, 9, 36, 103
1, 104914, Note_on_c, 9, 44, 0
1, 104999, Note_on_c, 9, 36, 0
1, 105150, Note_on_c, 9, 38, 110
1, 105165, Note_on_c, 9, 44, 78
1, 105175, Note_on_c, 9, 44, 0
1, 105390, Note_on_c, 9, 44, 72
1, 105394, Note_on_c, 9, 44, 0
1, 105599, Note_on_c, 9, 38, 0
1, 105630, Note_on_c, 9, 44, 77
1, 105630, Note_on_c, 9, 36, 99
1, 105634, Note_on_c, 9, 44, 0
1, 105719, Note_on_c, 9, 36, 0
1, 105840, Note_on_c, 9, 44, 67
1, 105840, Note_on_c, 9, 44, 0
1, 105855, Note_on_c, 9, 36, 103
1, 106079, Note_on_c, 9, 36, 0
1, 106080, Note_on_c, 9, 44, 85
1, 106093, Note_on_c, 9, 44, 0
1, 106095, Note_on_c, 9, 38, 111
1, 106319, Note_on_c, 9, 38, 0
1, 106335, Note_on_c, 9, 44, 77
1, 106335, Note_on_c, 9, 36, 96
1, 106347, Note_on_c, 9, 44, 0
1, 106559, Note_on_c, 9, 36, 0
1, 106575, Note_on_c, 9, 49, 71
1, 106587, Note_on_c, 9, 49, 0
1, 106590, Note_on_c, 9, 36, 118
1, 107039, Note_on_c, 9, 36, 0
1, 107085, Note_on_c, 9, 38, 120
1, 107085, Note_on_c, 9, 44, 61
1, 107097, Note_on_c, 9, 44, 0
1, 107279, Note_on_c, 9, 38, 0
1, 107325, Note_on_c, 9, 44, 82
1, 107335, Note_on_c, 9, 44, 0
1, 107565, Note_on_c, 9, 44, 87
1, 107565, Note_on_c, 9, 36, 101
1, 107575, Note_on_c, 9, 44, 0
1, 107759, Note_on_c, 9, 36, 0
1, 107790, Note_on_c, 9, 44, 72
1, 107790, Note_on_c, 9, 44, 0
1, 107820, Note_on_c, 9, 36, 113
1, 107999, Note_on_c, 9, 36, 0
1, 108045, Note_on_c, 9, 38, 106
1, 108045, Note_on_c, 9, 44, 54
1, 108055, Note_on_c, 9, 44, 0
1, 108239, Note_on_c, 9, 38, 0
1, 108270, Note_on_c, 9, 44, 73
1, 108270, Note_on_c, 9, 44, 0
1, 108285, Note_on_c, 9, 36, 87
1, 108479, Note_on_c, 9, 36, 0
1, 108495, Note_on_c, 9, 44, 85
1, 108495, Note_on_c, 9, 36, 127
1, 108507, Note_on_c, 9, 44, 0
1, 108719, Note_on_c, 9, 36, 0
1, 108735, Note_on_c, 9, 44, 79
1, 108735, Note_on_c, 9, 44, 0
1, 108750, Note_on_c, 9, 36, 103
1, 108839, Note_on_c, 9, 36, 0
1, 108975, Note_on_c, 9, 44, 74
1, 108987, Note_on_c, 9, 44, 0
1, 108990, Note_on_c, 9, 38, 110
1, 109215, Note_on_c, 9, 44, 70
1, 109227, Note_on_c, 9, 44, 0
1, 109439, Note_on_c, 9, 38, 0
1, 109455, Note_on_c, 9, 36, 106
1, 109469, Note_on_c, 9, 36, 0
1, 109470, Note_on_c, 9, 44, 74
1, 109474, Note_on_c, 9, 44, 0
1, 109695, Note_on_c, 9, 44, 67
1, 109695, Note_on_c, 9, 36, 105
1, 109707, Note_on_c, 9, 44, 0
1, 109919, Note_on_c, 9, 36, 0
1, 109920, Note_on_c, 9, 38, 116
1, 109920, Note_on_c, 9, 44, 74
1, 109933, Note_on_c, 9, 44, 0
1, 110160, Note_on_c, 9, 44, 67
1, 110173, Note_on_c, 9, 44, 0
1, 110399, Note_on_c, 9, 38, 0
1, 110415, Note_on_c, 9, 44, 93
1, 110415, Note_on_c, 9, 44, 0
1, 110445, Note_on_c, 9, 36, 108
1, 110639, Note_on_c, 9, 36, 0
1, 110670, Note_on_c, 9, 44, 67
1, 110670, Note_on_c, 9, 44, 0
1, 110685, Note_on_c, 9, 36, 105
1, 110879, Note_on_c, 9, 36, 0
1, 110910, Note_on_c, 9, 44, 78
1, 110923, Note_on_c, 9, 44, 0
1, 110925, Note_on_c, 9, 38, 113
1, 111119, Note_on_c, 9, 38, 0
1, 111165, Note_on_c, 9, 44, 74
1, 111175, Note_on_c, 9, 44, 0
1, 111375, Note_on_c, 9, 44, 68
1, 111375, Note_on_c, 9, 36, 109
1, 111387, Note_on_c, 9, 44, 0
1, 111599, Note_on_c, 9, 36, 0
1, 111630, Note_on_c, 9, 44, 78
1, 111630, Note_on_c, 9, 36, 108
1, 111634, Note_on_c, 9, 44, 0
1, 111719, Note_on_c, 9, 36, 0
1, 111855, Note_on_c, 9, 44, 85
1, 111867, Note_on_c, 9, 44, 0
1, 111870, Note_on_c, 9, 38, 109
1, 112095, Note_on_c, 9, 44, 75
1, 112107, Note_on_c, 9, 44, 0
1, 112319, Note_on_c, 9, 38, 0
1, 112335, Note_on_c, 9, 36, 105
1, 112349, Note_on_c, 9, 36, 0
1, 112350, Note_on_c, 9, 44, 89
1, 112354, Note_on_c, 9, 44, 0
1, 112575, Note_on_c, 9, 36, 103
1, 112589, Note_on_c, 9, 36, 0
1, 112590, Note_on_c, 9, 44, 72
1, 112594, Note_on_c, 9, 44, 0
1, 112815, Note_on_c, 9, 44, 73
1, 112827, Note_on_c, 9, 44, 0
1, 112830, Note_on_c, 9, 38, 118
1, 113055, Note_on_c, 9, 44, 72
1, 113067, Note_on_c, 9, 44, 0
1, 113279, Note_on_c, 9, 38, 0
1, 113295, Note_on_c, 9, 44, 73
1, 113295, Note_on_c, 9, 44, 0
1, 113310, Note_on_c, 9, 36, 103
1, 113399, Note_on_c, 9, 36, 0
1, 113550, Note_on_c, 9, 44, 67
1, 113550, Note_on_c, 9, 36, 106
1, 113554, Note_on_c, 9, 44, 0
1, 113639, Note_on_c, 9, 36, 0
1, 113790, Note_on_c, 9, 38, 115
1, 113790, Note_on_c, 9, 44, 68
1, 113794, Note_on_c, 9, 44, 0
1, 114030, Note_on_c, 9, 44, 61
1, 114034, Note_on_c, 9, 44, 0
1, 114239, Note_on_c, 9, 38, 0
1, 114255, Note_on_c, 9, 44, 73
1, 114255, Note_on_c, 9, 36, 109
1, 114267, Note_on_c, 9, 44, 0
1, 114479, Note_on_c, 9, 36, 0
1, 114495, Note_on_c, 9, 44, 71
1, 114495, Note_on_c, 9, 44, 0
1, 114510, Note_on_c, 9, 36, 100
1, 114599, Note_on_c, 9, 36, 0
1, 114735, Note_on_c, 9, 44, 87
1, 114747, Note_on_c, 9, 44, 0
1, 114750, Note_on_c, 9, 38, 115
1, 114960, Note_on_c, 9, 44, 67
1, 114973, Note_on_c, 9, 44, 0
1, 115199, Note_on_c, 9, 38, 0
1, 115200, Note_on_c, 9, 44, 72
1, 115200, Note_on_c, 9, 44, 0
1, 115215, Note_on_c, 9, 36, 100
1, 115439, Note_on_c, 9, 36, 0
1, 115440, Note_on_c, 9, 44, 70
1, 115440, Note_on_c, 9, 44, 0
1, 115455, Note_on_c, 9, 36, 110
1, 115679, Note_on_c, 9, 36, 0
1, 115680, Note_on_c, 9, 44, 81
1, 115693, Note_on_c, 9, 44, 0
1, 115695, Note_on_c, 9, 38, 116
1, 115919, Note_on_c, 9, 38, 0
1, 115920, Note_on_c, 9, 44, 61
1, 115933, Note_on_c, 9, 44, 0
1, 116160, Note_on_c, 9, 44, 85
1, 116160, Note_on_c, 9, 44, 0
1, 116190, Note_on_c, 9, 36, 110
1, 116279, Note_on_c, 9, 36, 0
1, 116415, Note_on_c, 9, 44, 68
1, 116427, Note_on_c, 9, 44, 0
1, 116655, Note_on_c, 9, 44, 59
1, 116667, Note_on_c, 9, 44, 0
1, 116670, Note_on_c, 9, 38, 110
1, 116895, Note_on_c, 9, 44, 63
1, 116907, Note_on_c, 9, 44, 0
1, 117119, Note_on_c, 9, 38, 0
1, 117135, Note_on_c, 9, 44, 63
1, 117135, Note_on_c, 9, 44, 0
1, 117150, Note_on_c, 9, 36, 109
1, 117239, Note_on_c, 9, 36, 0
1, 117375, Note_on_c, 9, 44, 55
1, 117375, Note_on_c, 9, 36, 110
1, 117387, Note_on_c, 9, 44, 0
1, 117599, Note_on_c, 9, 36, 0
1, 117615, Note_on_c, 9, 38, 113
1, 117615, Note_on_c, 9, 44, 60
1, 117627, Note_on_c, 9, 44, 0
1, 117839, Note_on_c, 9, 38, 0
1, 117855, Note_on_c, 9, 44, 62
1, 117855, Note_on_c, 9, 36, 98
1, 117867, Note_on_c, 9, 44, 0
1, 118079, Note_on_c, 9, 36, 0
1, 118095, Note_on_c, 9, 44, 101
1, 118095, Note_on_c, 9, 36, 113
1, 118107, Note_on_c, 9, 44, 0
1, 118319, Note_on_c, 9, 36, 0
1, 118350, Note_on_c, 9, 44, 71
1, 118350, Note_on_c, 9, 36, 103
1, 118354, Note_on_c, 9, 44, 0
1, 118439, Note_on_c, 9, 36, 0
1, 118590, Note_on_c, 9, 38, 110
1, 118605, Note_on_c, 9, 44, 63
1, 118615, Note_on_c, 9, 44, 0
1, 118830, Note_on_c, 9, 44, 61
1, 118830, Note_on_c, 9, 36, 99
1, 118834, Note_on_c, 9, 44, 0
1, 118919, Note_on_c, 9, 36, 0
1, 119039, Note_on_c, 9, 38, 0
1, 119070, Note_on_c, 9, 44, 73
1, 119070, Note_on_c, 9, 36, 117
1, 119074, Note_on_c, 9, 44, 0
1, 119159, Note_on_c, 9, 36, 0
1, 119295, Note_on_c, 9, 44, 67
1, 119295, Note_on_c, 9, 44, 0
1, 119310, Note_on_c, 9, 36, 110
1, 119399, Note_on_c, 9, 36, 0
1, 119535, Note_on_c, 9, 38, 110
1, 119550, Note_on_c, 9, 44, 72
1, 119554, Note_on_c, 9, 44, 0
1, 119759, Note_on_c, 9, 38, 0
1, 119760, Note_on_c, 9, 36, 91
1, 119774, Note_on_c, 9, 36, 0
1, 119775, Note_on_c, 9, 44, 78
1, 119787, Note_on_c, 9, 44, 0
1, 120015, Note_on_c, 9, 44, 91
1, 120015, Note_on_c, 9, 36, 113
1, 120027, Note_on_c, 9, 44, 0
1, 120239, Note_on_c, 9, 36, 0
1, 120255, Note_on_c, 9, 44, 67
1, 120255, Note_on_c, 9, 36, 102
1, 120267, Note_on_c, 9, 44, 0
1, 120479, Note_on_c, 9, 36, 0
1, 120495, Note_on_c, 9, 38, 105
1, 120495, Note_on_c, 9, 44, 64
1, 120507, Note_on_c, 9, 44, 0
1, 120719, Note_on_c, 9, 38, 0
1, 120750, Note_on_c, 9, 44, 65
1, 120750, Note_on_c, 9, 36, 99
1, 120754, Note_on_c, 9, 44, 0
1, 120839, Note_on_c, 9, 36, 0
1, 120990, Note_on_c, 9, 44, 77
1, 120990, Note_on_c, 9, 44, 0
1, 121005, Note_on_c, 9, 36, 110
1, 121199, Note_on_c, 9, 36, 0
1, 121215, Note_on_c, 9, 44, 71
1, 121215, Note_on_c, 9, 36, 104
1, 121227, Note_on_c, 9, 44, 0
1, 121439, Note_on_c, 9, 36, 0
1, 121440, Note_on_c, 9, 38, 104
1, 121455, Note_on_c, 9, 44, 70
1, 121467, Note_on_c, 9, 44, 0
1, 121680, Note_on_c, 9, 44, 63
1, 121680, Note_on_c, 9, 44, 0
1, 121695, Note_on_c, 9, 36, 94
1, 121919, Note_on_c, 9, 38, 0
1, 121919, Note_on_c, 9, 36, 0
1, 121935, Note_on_c, 9, 44, 93
1, 121935, Note_on_c, 9, 36, 115
1, 121947, Note_on_c, 9, 44, 0
1, 122159, Note_on_c, 9, 36, 0
1, 122190, Note_on_c, 9, 44, 65
1, 122190, Note_on_c, 9, 36, 94
1, 122194, Note_on_c, 9, 44, 0
1, 122279, Note_on_c, 9, 36, 0
1, 122445, Note_on_c, 9, 38, 111
1, 122445, Note_on_c, 9, 44, 57
1, 122455, Note_on_c, 9, 44, 0
1, 122639, Note_on_c, 9, 38, 0
1, 122655, Note_on_c, 9, 44, 63
1, 122655, Note_on_c, 9, 44, 0
1, 122670, Note_on_c, 9, 36, 91
1, 122759, Note_on_c, 9, 36, 0
1, 122895, Note_on_c, 9, 44, 75
1, 122895, Note_on_c, 9, 36, 105
1, 122907, Note_on_c, 9, 44, 0
1, 123119, Note_on_c, 9, 36, 0
1, 123150, Note_on_c, 9, 44, 68
1, 123150, Note_on_c, 9, 36, 84
1, 123154, Note_on_c, 9, 44, 0
1, 123239, Note_on_c, 9, 36, 0
1, 123390, Note_on_c, 9, 44, 75
1, 123394, Note_on_c, 9, 44, 0
1, 123405, Note_on_c, 9, 38, 109
1, 123599, Note_on_c, 9, 38, 0
1, 123630, Note_on_c, 9, 44, 77
1, 123630, Note_on_c, 9, 36, 92
1, 123634, Note_on_c, 9, 44, 0
1, 123719, Note_on_c, 9, 36, 0
1, 123870, Note_on_c, 9, 44, 101
1, 123870, Note_on_c, 9, 36, 110
1, 123874, Note_on_c, 9, 44, 0
1, 123959, Note_on_c, 9, 36, 0
1, 124110, Note_on_c, 9, 44, 70
1, 124110, Note_on_c, 9, 44, 0
1, 124125, Note_on_c, 9, 36, 95
1, 124319, Note_on_c, 9, 36, 0
1, 124365, Note_on_c, 9, 38, 113
1, 124365, Note_on_c, 9, 44, 68
1, 124375, Note_on_c, 9, 44, 0
1, 124559, Note_on_c, 9, 38, 0
1, 124590, Note_on_c, 9, 44, 67
1, 124590, Note_on_c, 9, 44, 0
1, 124605, Note_on_c, 9, 36, 94
1, 124799, Note_on_c, 9, 36, 0
1, 124830, Note_on_c, 9, 44, 84
1, 124830, Note_on_c, 9, 36, 107
1, 124834, Note_on_c, 9, 44, 0
1, 124919, Note_on_c, 9, 36, 0
1, 125055, Note_on_c, 9, 44, 64
1, 125055, Note_on_c, 9, 44, 0
1, 125070, Note_on_c, 9, 36, 96
1, 125159, Note_on_c, 9, 36, 0
1, 125295, Note_on_c, 9, 44, 75
1, 125307, Note_on_c, 9, 44, 0
1, 125310, Note_on_c, 9, 38, 99
1, 125535, Note_on_c, 9, 44, 62
1, 125535, Note_on_c, 9, 44, 0
1, 125550, Note_on_c, 9, 36, 98
1, 125639, Note_on_c, 9, 36, 0
1, 125759, Note_on_c, 9, 38, 0
1, 125790, Note_on_c, 9, 44, 93
1, 125790, Note_on_c, 9, 36, 110
1, 125794, Note_on_c, 9, 44, 0
1, 125879, Note_on_c, 9, 36, 0
1, 126030, Note_on_c, 9, 44, 58
1, 126030, Note_on_c, 9, 36, 100
1, 126034, Note_on_c, 9, 44, 0
1, 126119, Note_on_c, 9, 36, 0
1, 126255, Note_on_c, 9, 44, 66
1, 126267, Note_on_c, 9, 44, 0
1, 126270, Note_on_c, 9, 38, 116
1, 126495, Note_on_c, 9, 44, 67
1, 126495, Note_on_c, 9, 44, 0
1, 126510, Note_on_c, 9, 36, 95
1, 126599, Note_on_c, 9, 36, 0
1, 126719, Note_on_c, 9, 38, 0
1, 126750, Note_on_c, 9, 44, 56
1, 126750, Note_on_c, 9, 36, 95
1, 126754, Note_on_c, 9, 44, 0
1, 126839, Note_on_c, 9, 36, 0
1, 126990, Note_on_c, 9, 44, 67
1, 126990, Note_on_c, 9, 36, 103
1, 126994, Note_on_c, 9, 44, 0
1, 127079, Note_on_c, 9, 36, 0
1, 127230, Note_on_c, 9, 38, 110
1, 127230, Note_on_c, 9, 44, 67
1, 127234, Note_on_c, 9, 44, 0
1, 127470, Note_on_c, 9, 44, 68
1, 127470, Note_on_c, 9, 36, 90
1, 127474, Note_on_c, 9, 44, 0
1, 127559, Note_on_c, 9, 36, 0
1, 127679, Note_on_c, 9, 38, 0
1, 127710, Note_on_c, 9, 44, 95
1, 127710, Note_on_c, 9, 44, 0
1, 127725, Note_on_c, 9, 36, 114
1, 127919, Note_on_c, 9, 36, 0
1, 127935, Note_on_c, 9, 36, 84
1, 127949, Note_on_c, 9, 36, 0
1, 127950, Note_on_c, 9, 44, 59
1, 127954, Note_on_c, 9, 44, 0
1, 128190, Note_on_c, 9, 38, 110
1, 128190, Note_on_c, 9, 44, 70
1, 128194, Note_on_c, 9, 44, 0
1, 128415, Note_on_c, 9, 44, 62
1, 128415, Note_on_c, 9, 44, 0
1, 128430, Note_on_c, 9, 36, 92
1, 128519, Note_on_c, 9, 36, 0
1, 128639, Note_on_c, 9, 38, 0
1, 128670, Note_on_c, 9, 44, 79
1, 128670, Note_on_c, 9, 36, 102
1, 128674, Note_on_c, 9, 44, 0
1, 128759, Note_on_c, 9, 36, 0
1, 128895, Note_on_c, 9, 44, 67
1, 128895, Note_on_c, 9, 44, 0
1, 128910, Note_on_c, 9, 36, 101
1, 128999, Note_on_c, 9, 36, 0
1, 129135, Note_on_c, 9, 38, 109
1, 129135, Note_on_c, 9, 44, 78
1, 129147, Note_on_c, 9, 44, 0
1, 129359, Note_on_c, 9, 38, 0
1, 129390, Note_on_c, 9, 44, 71
1, 129390, Note_on_c, 9, 36, 98
1, 129394, Note_on_c, 9, 44, 0
1, 129479, Note_on_c, 9, 36, 0
1, 129630, Note_on_c, 9, 49, 73
1, 129645, Note_on_c, 9, 36, 118
1, 129656, Note_on_c, 9, 49, 0
1, 129884, Note_on_c, 9, 36, 0
1, 129885, Note_on_c, 9, 36, 103
1, 130079, Note_on_c, 9, 36, 0
1, 130110, Note_on_c, 9, 38, 115
1, 130110, Note_on_c, 9, 44, 78
1, 130114, Note_on_c, 9, 44, 0
1, 130350, Note_on_c, 9, 44, 73
1, 130354, Note_on_c, 9, 44, 0
1, 130559, Note_on_c, 9, 38, 0
1, 130590, Note_on_c, 9, 44, 95
1, 130590, Note_on_c, 9, 36, 107
1, 130594, Note_on_c, 9, 44, 0
1, 130679, Note_on_c, 9, 36, 0
1, 130830, Note_on_c, 9, 44, 78
1, 130830, Note_on_c, 9, 44, 0
1, 130860, Note_on_c, 9, 36, 105
1, 131039, Note_on_c, 9, 36, 0
1, 131085, Note_on_c, 9, 38, 122
1, 131100, Note_on_c, 9, 44, 75
1, 131112, Note_on_c, 9, 44, 0
1, 131279, Note_on_c, 9, 38, 0
1, 131325, Note_on_c, 9, 44, 73
1, 131335, Note_on_c, 9, 44, 0
1, 131580, Note_on_c, 9, 44, 87
1, 131580, Note_on_c, 9, 44, 0
1, 131595, Note_on_c, 9, 36, 108
1, 131639, Note_on_c, 9, 36, 0
1, 131820, Note_on_c, 9, 44, 72
1, 131820, Note_on_c, 9, 36, 103
1, 131830, Note_on_c, 9, 44, 0
1, 131999, Note_on_c, 9, 36, 0
1, 132060, Note_on_c, 9, 38, 114
1, 132060, Note_on_c, 9, 44, 79
1, 132072, Note_on_c, 9, 44, 0
1, 132239, Note_on_c, 9, 38, 0
1, 132285, Note_on_c, 9, 44, 56
1, 132295, Note_on_c, 9, 44, 0
1, 132525, Note_on_c, 9, 44, 70
1, 132525, Note_on_c, 9, 44, 0
1, 132540, Note_on_c, 9, 36, 103
1, 132764, Note_on_c, 9, 36, 0
1, 132765, Note_on_c, 9, 44, 75
1, 132765, Note_on_c, 9, 36, 103
1, 132775, Note_on_c, 9, 44, 0
1, 132959, Note_on_c, 9, 36, 0
1, 132990, Note_on_c, 9, 38, 109
1, 133005, Note_on_c, 9, 44, 70
1, 133015, Note_on_c, 9, 44, 0
1, 133230, Note_on_c, 9, 44, 68
1, 133234, Note_on_c, 9, 44, 0
1, 133439, Note_on_c, 9, 38, 0
1, 133440, Note_on_c, 9, 49, 75
1, 133455, Note_on_c, 9, 36, 109
1, 133468, Note_on_c, 9, 49, 0
1, 133679, Note_on_c, 9, 36, 0
1, 133920, Note_on_c, 9, 38, 110
1, 133920, Note_on_c, 9, 44, 68
1, 133933, Note_on_c, 9, 44, 0
1, 134160, Note_on_c, 9, 44, 87
1, 134173, Note_on_c, 9, 44, 0
1, 134399, Note_on_c, 9, 38, 0
1, 134400, Note_on_c, 9, 44, 85
1, 134400, Note_on_c, 9, 36, 103
1, 134413, Note_on_c, 9, 44, 0
1, 134639, Note_on_c, 9, 36, 0
1, 134640, Note_on_c, 9, 44, 71
1, 134640, Note_on_c, 9, 44, 0
1, 134655, Note_on_c, 9, 36, 85
1, 134879, Note_on_c, 9, 36, 0
1, 134880, Note_on_c, 9, 38, 109
1, 134895, Note_on_c, 9, 44, 84
1, 134907, Note_on_c, 9, 44, 0
1, 135120, Note_on_c, 9, 44, 81
1, 135120, Note_on_c, 9, 36, 101
1, 135133, Note_on_c, 9, 44, 0
1, 135359, Note_on_c, 9, 38, 0
1, 135359, Note_on_c, 9, 36, 0
1, 135360, Note_on_c, 9, 44, 82
1, 135360, Note_on_c, 9, 44, 0
1, 135375, Note_on_c, 9, 36, 105
1, 135599, Note_on_c, 9, 36, 0
1, 135600, Note_on_c, 9, 44, 70
1, 135600, Note_on_c, 9, 44, 0
1, 135615, Note_on_c, 9, 36, 84
1, 135839, Note_on_c, 9, 36, 0
1, 135840, Note_on_c, 9, 44, 82
1, 135853, Note_on_c, 9, 44, 0
1, 135855, Note_on_c, 9, 38, 104
1, 136079, Note_on_c, 9, 38, 0
1, 136080, Note_on_c, 9, 44, 84
1, 136080, Note_on_c, 9, 44, 0
1, 136095, Note_on_c, 9, 36, 94
1, 136319, Note_on_c, 9, 36, 0
1, 136320, Note_on_c, 9, 44, 81
1, 136320, Note_on_c, 9, 44, 0
1, 136335, Note_on_c, 9, 36, 102
1, 136559, Note_on_c, 9, 36, 0
1, 136560, Note_on_c, 9, 44, 74
1, 136560, Note_on_c, 9, 44, 0
1, 136575, Note_on_c, 9, 36, 87
1, 136799, Note_on_c, 9, 36, 0
1, 136800, Note_on_c, 9, 38, 113
1, 136800, Note_on_c, 9, 44, 84
1, 136813, Note_on_c, 9, 44, 0
1, 137055, Note_on_c, 9, 44, 81
1, 137055, Note_on_c, 9, 36, 93
1, 137067, Note_on_c, 9, 44, 0
1, 137279, Note_on_c, 9, 38, 0
1, 137279, Note_on_c, 9, 36, 0
1, 137310, Note_on_c, 9, 44, 89
1, 137310, Note_on_c, 9, 36, 104
1, 137314, Note_on_c, 9, 44, 0
1, 137399, Note_on_c, 9, 36, 0
1, 137520, Note_on_c, 9, 44, 74
1, 137520, Note_on_c, 9, 44, 0
1, 137550, Note_on_c, 9, 36, 91
1, 137639, Note_on_c, 9, 36, 0
1, 137760, Note_on_c, 9, 44, 70
1, 137773, Note_on_c, 9, 44, 0
1, 137775, Note_on_c, 9, 38, 116
1, 137999, Note_on_c, 9, 38, 0
1, 138015, Note_on_c, 9, 44, 75
1, 138015, Note_on_c, 9, 44, 0
1, 138030, Note_on_c, 9, 36, 84
1, 138119, Note_on_c, 9, 36, 0
1, 138285, Note_on_c, 9, 44, 82
1, 138285, Note_on_c, 9, 36, 110
1, 138295, Note_on_c, 9, 44, 0
1, 138479, Note_on_c, 9, 36, 0
1, 138495, Note_on_c, 9, 44, 66
1, 138495, Note_on_c, 9, 44, 0
1, 138510, Note_on_c, 9, 36, 96
1, 138599, Note_on_c, 9, 36, 0
1, 138720, Note_on_c, 9, 38, 109
1, 138720, Note_on_c, 9, 44, 67
1, 138733, Note_on_c, 9, 44, 0
1, 138975, Note_on_c, 9, 44, 61
1, 138975, Note_on_c, 9, 36, 92
1, 138987, Note_on_c, 9, 44, 0
1, 139199, Note_on_c, 9, 38, 0
1, 139199, Note_on_c, 9, 36, 0
1, 139200, Note_on_c, 9, 44, 82
1, 139200, Note_on_c, 9, 44, 0
1, 139215, Note_on_c, 9, 36, 117
1, 139439, Note_on_c, 9, 36, 0
1, 139455, Note_on_c, 9, 44, 71
1, 139455, Note_on_c, 9, 36, 95
1, 139467, Note_on_c, 9, 44, 0
1, 139679, Note_on_c, 9, 36, 0
1, 139680, Note_on_c, 9, 38, 105
1, 139680, Note_on_c, 9, 44, 72
1, 139693, Note_on_c, 9, 44, 0
1, 139920, Note_on_c, 9, 36, 95
1, 139934, Note_on_c, 9, 36, 0
1, 139935, Note_on_c, 9, 44, 77
1, 139947, Note_on_c, 9, 44, 0
1, 140159, Note_on_c, 9, 38, 0
1, 140160, Note_on_c, 9, 44, 74
1, 140160, Note_on_c, 9, 44, 0
1, 140190, Note_on_c, 9, 36, 114
1, 140279, Note_on_c, 9, 36, 0
1, 140400, Note_on_c, 9, 44, 75
1, 140400, Note_on_c, 9, 44, 0
1, 140415, Note_on_c, 9, 36, 97
1, 140639, Note_on_c, 9, 36, 0
1, 140640, Note_on_c, 9, 38, 107
1, 140640, Note_on_c, 9, 44, 67
1, 140653, Note_on_c, 9, 44, 0
1, 140880, Note_on_c, 9, 36, 102
1, 140894, Note_on_c, 9, 36, 0
1, 140895, Note_on_c, 9, 44, 71
1, 140907, Note_on_c, 9, 44, 0
1, 141119, Note_on_c, 9, 38, 0
1, 141150, Note_on_c, 9, 44, 95
1, 141150, Note_on_c, 9, 44, 0
1, 141165, Note_on_c, 9, 36, 115
1, 141359, Note_on_c, 9, 36, 0
1, 141375, Note_on_c, 9, 44, 55
1, 141375, Note_on_c, 9, 44, 0
1, 141390, Note_on_c, 9, 36, 98
1, 141479, Note_on_c, 9, 36, 0
1, 141600, Note_on_c, 9, 38, 108
1, 141600, Note_on_c, 9, 44, 78
1, 141613, Note_on_c, 9, 44, 0
1, 141855, Note_on_c, 9, 44, 67
1, 141855, Note_on_c, 9, 36, 98
1, 141867, Note_on_c, 9, 44, 0
1, 142079, Note_on_c, 9, 38, 0
1, 142079, Note_on_c, 9, 36, 0
1, 142095, Note_on_c, 9, 44, 75
1, 142095, Note_on_c, 9, 44, 0
1, 142110, Note_on_c, 9, 36, 114
1, 142199, Note_on_c, 9, 36, 0
1, 142320, Note_on_c, 9, 44, 66
1, 142320, Note_on_c, 9, 44, 0
1, 142350, Note_on_c, 9, 36, 93
1, 142439, Note_on_c, 9, 36, 0
1, 142560, Note_on_c, 9, 38, 109
1, 142560, Note_on_c, 9, 44, 70
1, 142572, Note_on_c, 9, 44, 0
1, 142785, Note_on_c, 9, 44, 64
1, 142785, Note_on_c, 9, 44, 0
1, 142800, Note_on_c, 9, 36, 95
1, 143039, Note_on_c, 9, 38, 0
1, 143039, Note_on_c, 9, 36, 0
1, 143040, Note_on_c, 9, 44, 104
1, 143040, Note_on_c, 9, 44, 0
1, 143055, Note_on_c, 9, 36, 118
1, 143279, Note_on_c, 9, 36, 0
1, 143280, Note_on_c, 9, 44, 81
1, 143280, Note_on_c, 9, 44, 0
1, 143295, Note_on_c, 9, 36, 85
1, 143519, Note_on_c, 9, 36, 0
1, 143520, Note_on_c, 9, 38, 110
1, 143520, Note_on_c, 9, 44, 87
1, 143533, Note_on_c, 9, 44, 0
1, 143760, Note_on_c, 9, 36, 73
1, 143774, Note_on_c, 9, 36, 0
1, 143775, Note_on_c, 9, 44, 74
1, 143787, Note_on_c, 9, 44, 0
1, 143999, Note_on_c, 9, 38, 0
1, 144000, Note_on_c, 9, 44, 77
1, 144000, Note_on_c, 9, 44, 0
1, 144015, Note_on_c, 9, 36, 115
1, 144239, Note_on_c, 9, 36, 0
1, 144240, Note_on_c, 9, 44, 78
1, 144240, Note_on_c, 9, 44, 0
1, 144255, Note_on_c, 9, 36, 88
1, 144479, Note_on_c, 9, 36, 0
1, 144480, Note_on_c, 9, 38, 108
1, 144480, Note_on_c, 9, 44, 70
1, 144493, Note_on_c, 9, 44, 0
1, 144750, Note_on_c, 9, 44, 68
1, 144750, Note_on_c, 9, 36, 88
1, 144754, Note_on_c, 9, 44, 0
1, 144839, Note_on_c, 9, 36, 0
1, 144959, Note_on_c, 9, 38, 0
1, 145005, Note_on_c, 9, 44, 82
1, 145005, Note_on_c, 9, 36, 118
1, 145015, Note_on_c, 9, 44, 0
1, 145199, Note_on_c, 9, 36, 0
1, 145215, Note_on_c, 9, 44, 74
1, 145215, Note_on_c, 9, 44, 0
1, 145230, Note_on_c, 9, 36, 96
1, 145319, Note_on_c, 9, 36, 0
1, 145440, Note_on_c, 9, 38, 103
1, 145440, Note_on_c, 9, 44, 72
1, 145453, Note_on_c, 9, 44, 0
1, 145680, Note_on_c, 9, 44, 78
1, 145680, Note_on_c, 9, 44, 0
1, 145710, Note_on_c, 9, 36, 83
1, 145799, Note_on_c, 9, 36, 0
1, 145919, Note_on_c, 9, 38, 0
1, 145920, Note_on_c, 9, 44, 82
1, 145920, Note_on_c, 9, 44, 0
1, 145950, Note_on_c, 9, 36, 114
1, 146039, Note_on_c, 9, 36, 0
1, 146175, Note_on_c, 9, 44, 71
1, 146175, Note_on_c, 9, 36, 103
1, 146187, Note_on_c, 9, 44, 0
1, 146399, Note_on_c, 9, 36, 0
1, 146415, Note_on_c, 9, 38, 104
1, 146415, Note_on_c, 9, 44, 77
1, 146427, Note_on_c, 9, 44, 0
1, 146639, Note_on_c, 9, 38, 0
1, 146640, Note_on_c, 9, 44, 71
1, 146640, Note_on_c, 9, 36, 96
1, 146653, Note_on_c, 9, 44, 0
1, 146879, Note_on_c, 9, 36, 0
1, 146895, Note_on_c, 9, 44, 91
1, 146895, Note_on_c, 9, 36, 124
1, 146907, Note_on_c, 9, 44, 0
1, 147119, Note_on_c, 9, 36, 0
1, 147135, Note_on_c, 9, 44, 72
1, 147135, Note_on_c, 9, 44, 0
1, 147150, Note_on_c, 9, 36, 96
1, 147239, Note_on_c, 9, 36, 0
1, 147375, Note_on_c, 9, 38, 107
1, 147390, Note_on_c, 9, 44, 87
1, 147394, Note_on_c, 9, 44, 0
1, 147599, Note_on_c, 9, 38, 0
1, 147600, Note_on_c, 9, 36, 92
1, 147614, Note_on_c, 9, 36, 0
1, 147615, Note_on_c, 9, 44, 75
1, 147627, Note_on_c, 9, 44, 0
1, 147840, Note_on_c, 9, 44, 78
1, 147840, Note_on_c, 9, 44, 0
1, 147855, Note_on_c, 9, 36, 115
1, 148079, Note_on_c, 9, 36, 0
1, 148095, Note_on_c, 9, 44, 72
1, 148095, Note_on_c, 9, 36, 95
1, 148107, Note_on_c, 9, 44, 0
1, 148319, Note_on_c, 9, 36, 0
1, 148335, Note_on_c, 9, 38, 106
1, 148335, Note_on_c, 9, 44, 73
1, 148347, Note_on_c, 9, 44, 0
1, 148559, Note_on_c, 9, 38, 0
1, 148575, Note_on_c, 9, 44, 78
1, 148575, Note_on_c, 9, 44, 0
1, 148590, Note_on_c, 9, 36, 89
1, 148679, Note_on_c, 9, 36, 0
1, 148830, Note_on_c, 9, 44, 87
1, 148830, Note_on_c, 9, 36, 122
1, 148834, Note_on_c, 9, 44, 0
1, 148919, Note_on_c, 9, 36, 0
1, 149040, Note_on_c, 9, 44, 72
1, 149040, Note_on_c, 9, 44, 0
1, 149070, Note_on_c, 9, 36, 93
1, 149159, Note_on_c, 9, 36, 0
1, 149280, Note_on_c, 9, 38, 104
1, 149280, Note_on_c, 9, 44, 72
1, 149293, Note_on_c, 9, 44, 0
1, 149535, Note_on_c, 9, 44, 72
1, 149535, Note_on_c, 9, 36, 94
1, 149547, Note_on_c, 9, 44, 0
1, 149759, Note_on_c, 9, 38, 0
1, 149759, Note_on_c, 9, 36, 0
1, 149790, Note_on_c, 9, 44, 78
1, 149790, Note_on_c, 9, 36, 107
1, 149794, Note_on_c, 9, 44, 0
1, 149879, Note_on_c, 9, 36, 0
1, 150015, Note_on_c, 9, 44, 74
1, 150015, Note_on_c, 9, 36, 96
1, 150027, Note_on_c, 9, 44, 0
1, 150239, Note_on_c, 9, 36, 0
1, 150240, Note_on_c, 9, 38, 105
1, 150240, Note_on_c, 9, 44, 101
1, 150268, Note_on_c, 9, 44, 0
1, 150479, Note_on_c, 9, 38, 0
1, 150495, Note_on_c, 9, 38, 102
1, 150539, Note_on_c, 9, 38, 0
1, 150600, Note_on_c, 9, 38, 103
1, 150719, Note_on_c, 9, 38, 0
1, 150720, Note_on_c, 9, 38, 125
1, 150720, Note_on_c, 9, 36, 109
1, 150839, Note_on_c, 9, 38, 0
1, 150840, Note_on_c, 9, 38, 100
1, 150959, Note_on_c, 9, 36, 0
1, 150959, Note_on_c, 9, 38, 0
1, 150960, Note_on_c, 9, 38, 100
1, 150960, Note_on_c, 9, 36, 110
1, 151079, Note_on_c, 9, 38, 0
1, 151080, Note_on_c, 9, 38, 99
1, 151199, Note_on_c, 9, 36, 0
1, 151199, Note_on_c, 9, 38, 0
1, 151200, Note_on_c, 9, 38, 116
1, 151200, Note_on_c, 9, 36, 118
1, 151319, Note_on_c, 9, 38, 0
1, 151320, Note_on_c, 9, 38, 88
1, 151439, Note_on_c, 9, 36, 0
1, 151439, Note_on_c, 9, 38, 0
1, 151440, Note_on_c, 9, 38, 110
1, 151440, Note_on_c, 9, 36, 117
1, 151559, Note_on_c, 9, 38, 0
1, 151575, Note_on_c, 9, 38, 91
1, 151619, Note_on_c, 9, 38, 0
1, 151679, Note_on_c, 9, 36, 0
1, 151680, Note_on_c, 9, 38, 127
1, 151680, Note_on_c, 9, 36, 127
1, 151799, Note_on_c, 9, 38, 0
1, 151800, Note_on_c, 9, 38, 86
1, 151919, Note_on_c, 9, 36, 0
1, 151919, Note_on_c, 9, 38, 0
1, 151935, Note_on_c, 9, 38, 110
1, 151935, Note_on_c, 9, 36, 102
1, 151979, Note_on_c, 9, 38, 0
1, 152070, Note_on_c, 9, 38, 88
1, 152159, Note_on_c, 9, 36, 0
1, 152159, Note_on_c, 9, 38, 0
1, 152175, Note_on_c, 9, 38, 113
1, 152219, Note_on_c, 9, 38, 0
1, 152295, Note_on_c, 9, 38, 91
1, 152339, Note_on_c, 9, 38, 0
1, 152400, Note_on_c, 9, 38, 127
1, 152489, Note_on_c, 9, 38, 0
1, 152505, Note_on_c, 9, 38, 100
1, 152519, Note_on_c, 9, 38, 0
1, 152640, Note_on_c, 9, 49, 68
1, 152640, Note_on_c, 9, 36, 109
1, 152668, Note_on_c, 9, 49, 0
1, 152879, Note_on_c, 9, 36, 0
1, 152880, Note_on_c, 9, 36, 105
1, 153119, Note_on_c, 9, 36, 0
1, 153120, Note_on_c, 9, 44, 67
1, 153133, Note_on_c, 9, 44, 0
1, 153150, Note_on_c, 9, 38, 122
1, 153375, Note_on_c, 9, 44, 89
1, 153387, Note_on_c, 9, 44, 0
1, 153599, Note_on_c, 9, 38, 0
1, 153615, Note_on_c, 9, 44, 91
1, 153615, Note_on_c, 9, 36, 110
1, 153627, Note_on_c, 9, 44, 0
1, 153839, Note_on_c, 9, 36, 0
1, 153855, Note_on_c, 9, 44, 75
1, 153855, Note_on_c, 9, 36, 109
1, 153867, Note_on_c, 9, 44, 0
1, 154079, Note_on_c, 9, 36, 0
1, 154110, Note_on_c, 9, 38, 122
1, 154110, Note_on_c, 9, 44, 95
1, 154123, Note_on_c, 9, 44, 0
1, 154365, Note_on_c, 9, 44, 78
1, 154375, Note_on_c, 9, 44, 0
1, 154559, Note_on_c, 9, 38, 0
1, 154635, Note_on_c, 9, 44, 110
1, 154635, Note_on_c, 9, 36, 110
1, 154636, Note_on_c, 9, 44, 0
1, 154679, Note_on_c, 9, 36, 0
1, 154830, Note_on_c, 9, 44, 72
1, 154830, Note_on_c, 9, 44, 0
1, 154845, Note_on_c, 9, 36, 106
1, 155039, Note_on_c, 9, 36, 0
1, 155040, Note_on_c, 9, 38, 115
1, 155040, Note_on_c, 9, 44, 71
1, 155053, Note_on_c, 9, 44, 0
1, 155280, Note_on_c, 9, 44, 75
1, 155293, Note_on_c, 9, 44, 0
1, 155519, Note_on_c, 9, 38, 0
1, 155535, Note_on_c, 9, 44, 79
1, 155535, Note_on_c, 9, 44, 0
1, 155550, Note_on_c, 9, 36, 109
1, 155639, Note_on_c, 9, 36, 0
1, 155775, Note_on_c, 9, 44, 75
1, 155775, Note_on_c, 9, 36, 110
1, 155787, Note_on_c, 9, 44, 0
1, 155999, Note_on_c, 9, 36, 0
1, 156015, Note_on_c, 9, 44, 79
1, 156027, Note_on_c, 9, 44, 0
1, 156030, Note_on_c, 9, 38, 110
1, 156255, Note_on_c, 9, 44, 74
1, 156255, Note_on_c, 9, 36, 100
1, 156267, Note_on_c, 9, 44, 0
1, 156479, Note_on_c, 9, 38, 0
1, 156479, Note_on_c, 9, 36, 0
1, 156495, Note_on_c, 9, 49, 67
1, 156495, Note_on_c, 9, 36, 125
1, 156507, Note_on_c, 9, 49, 0
1, 156719, Note_on_c, 9, 36, 0
1, 156960, Note_on_c, 9, 44, 73
1, 156973, Note_on_c, 9, 44, 0
1, 156990, Note_on_c, 9, 38, 116
1, 157215, Note_on_c, 9, 44, 73
1, 157227, Note_on_c, 9, 44, 0
1, 157439, Note_on_c, 9, 38, 0
1, 157455, Note_on_c, 9, 44, 97
1, 157455, Note_on_c, 9, 44, 0
1, 157470, Note_on_c, 9, 36, 110
1, 157559, Note_on_c, 9, 36, 0
1, 157695, Note_on_c, 9, 44, 66
1, 157695, Note_on_c, 9, 36, 106
1, 157707, Note_on_c, 9, 44, 0
1, 157919, Note_on_c, 9, 36, 0
1, 157920, Note_on_c, 9, 44, 84
1, 157933, Note_on_c, 9, 44, 0
1, 157935, Note_on_c, 9, 38, 117
1, 158159, Note_on_c, 9, 38, 0
1, 158175, Note_on_c, 9, 44, 72
1, 158187, Note_on_c, 9, 44, 0
1, 158415, Note_on_c, 9, 44, 107
1, 158415, Note_on_c, 9, 44, 0
1, 158430, Note_on_c, 9, 36, 108
1, 158519, Note_on_c, 9, 36, 0
1, 158640, Note_on_c, 9, 44, 72
1, 158640, Note_on_c, 9, 44, 0
1, 158655, Note_on_c, 9, 36, 110
1, 158879, Note_on_c, 9, 36, 0
1, 158895, Note_on_c, 9, 38, 111
1, 158895, Note_on_c, 9, 44, 97
1, 158907, Note_on_c, 9, 44, 0
1, 159119, Note_on_c, 9, 38, 0
1, 159120, Note_on_c, 9, 44, 78
1, 159133, Note_on_c, 9, 44, 0
1, 159360, Note_on_c, 9, 44, 95
1, 159360, Note_on_c, 9, 44, 0
1, 159390, Note_on_c, 9, 36, 109
1, 159479, Note_on_c, 9, 36, 0
1, 159615, Note_on_c, 9, 44, 93
1, 159615, Note_on_c, 9, 36, 109
1, 159627, Note_on_c, 9, 44, 0
1, 159839, Note_on_c, 9, 36, 0
1, 159840, Note_on_c, 9, 44, 101
1, 159853, Note_on_c, 9, 44, 0
1, 159855, Note_on_c, 9, 38, 118
1, 160079, Note_on_c, 9, 38, 0
1, 160080, Note_on_c, 9, 44, 85
1, 160093, Note_on_c, 9, 44, 0
1, 160320, Note_on_c, 9, 44, 101
1, 160320, Note_on_c, 9, 36, 110
1, 160333, Note_on_c, 9, 44, 0
1, 160559, Note_on_c, 9, 36, 0
1, 160560, Note_on_c, 9, 44, 81
1, 160560, Note_on_c, 9, 44, 0
1, 160575, Note_on_c, 9, 36, 111
1, 160799, Note_on_c, 9, 36, 0
1, 160815, Note_on_c, 9, 44, 62
1, 160827, Note_on_c, 9, 44, 0
1, 160830, Note_on_c, 9, 38, 121
1, 161070, Note_on_c, 9, 44, 72
1, 161074, Note_on_c, 9, 44, 0
1, 161279, Note_on_c, 9, 38, 0
1, 161310, Note_on_c, 9, 44, 68
1, 161310, Note_on_c, 9, 44, 0
1, 161325, Note_on_c, 9, 36, 105
1, 161519, Note_on_c, 9, 36, 0
1, 161535, Note_on_c, 9, 44, 79
1, 161535, Note_on_c, 9, 44, 0
1, 161550, Note_on_c, 9, 36, 111
1, 161639, Note_on_c, 9, 36, 0
1, 161760, Note_on_c, 9, 44, 87
1, 161773, Note_on_c, 9, 44, 0
1, 161775, Note_on_c, 9, 38, 113
1, 161999, Note_on_c, 9, 38, 0
1, 162015, Note_on_c, 9, 36, 94
1, 162029, Note_on_c, 9, 36, 0
1, 162030, Note_on_c, 9, 44, 89
1, 162034, Note_on_c, 9, 44, 0
1, 162270, Note_on_c, 9, 44, 110
1, 162270, Note_on_c, 9, 36, 120
1, 162274, Note_on_c, 9, 44, 0
1, 162359, Note_on_c, 9, 36, 0
1, 162495, Note_on_c, 9, 44, 65
1, 162495, Note_on_c, 9, 36, 114
1, 162507, Note_on_c, 9, 44, 0
1, 162719, Note_on_c, 9, 36, 0
1, 162735, Note_on_c, 9, 38, 120
1, 162735, Note_on_c, 9, 44, 85
1, 162747, Note_on_c, 9, 44, 0
1, 162959, Note_on_c, 9, 38, 0
1, 162975, Note_on_c, 9, 44, 82
1, 162987, Note_on_c, 9, 44, 0
1, 163215, Note_on_c, 9, 44, 84
1, 163215, Note_on_c, 9, 44, 0
1, 163230, Note_on_c, 9, 36, 102
1, 163319, Note_on_c, 9, 36, 0
1, 163455, Note_on_c, 9, 44, 89
1, 163455, Note_on_c, 9, 36, 110
1, 163467, Note_on_c, 9, 44, 0
1, 163679, Note_on_c, 9, 36, 0
1, 163695, Note_on_c, 9, 38, 121
1, 163695, Note_on_c, 9, 44, 91
1, 163707, Note_on_c, 9, 44, 0
1, 163919, Note_on_c, 9, 38, 0
1, 163920, Note_on_c, 9, 44, 75
1, 163933, Note_on_c, 9, 44, 0
1, 164175, Note_on_c, 9, 44, 99
1, 164175, Note_on_c, 9, 44, 0
1, 164190, Note_on_c, 9, 36, 111
1, 164279, Note_on_c, 9, 36, 0
1, 164415, Note_on_c, 9, 44, 75
1, 164415, Note_on_c, 9, 44, 0
1, 164430, Note_on_c, 9, 36, 109
1, 164519, Note_on_c, 9, 36, 0
1, 164655, Note_on_c, 9, 38, 120
1, 164655, Note_on_c, 9, 44, 67
1, 164665, Note_on_c, 9, 44, 0
1, 164865, Note_on_c, 9, 44, 75
1, 164865, Note_on_c, 9, 44, 0
1, 164879, Note_on_c, 9, 38, 0
1, 165120, Note_on_c, 9, 44, 78
1, 165120, Note_on_c, 9, 44, 0
1, 165135, Note_on_c, 9, 36, 105
1, 165359, Note_on_c, 9, 36, 0
1, 165375, Note_on_c, 9, 44, 70
1, 165375, Note_on_c, 9, 36, 110
1, 165387, Note_on_c, 9, 44, 0
1, 165599, Note_on_c, 9, 36, 0
1, 165615, Note_on_c, 9, 38, 117
1, 165615, Note_on_c, 9, 44, 82
1, 165627, Note_on_c, 9, 44, 0
1, 165839, Note_on_c, 9, 38, 0
1, 165855, Note_on_c, 9, 44, 63
1, 165867, Note_on_c, 9, 44, 0
1, 166095, Note_on_c, 9, 44, 93
1, 166095, Note_on_c, 9, 44, 0
1, 166125, Note_on_c, 9, 36, 109
1, 166319, Note_on_c, 9, 36, 0
1, 166350, Note_on_c, 9, 44, 75
1, 166350, Note_on_c, 9, 36, 113
1, 166354, Note_on_c, 9, 44, 0
1, 166439, Note_on_c, 9, 36, 0
1, 166590, Note_on_c, 9, 38, 117
1, 166590, Note_on_c, 9, 44, 68
1, 166594, Note_on_c, 9, 44, 0
1, 166830, Note_on_c, 9, 44, 71
1, 166834, Note_on_c, 9, 44, 0
1, 167039, Note_on_c, 9, 38, 0
1, 167070, Note_on_c, 9, 44, 66
1, 167070, Note_on_c, 9, 36, 104
1, 167074, Note_on_c, 9, 44, 0
1, 167159, Note_on_c, 9, 36, 0
1, 167280, Note_on_c, 9, 36, 105
1, 167294, Note_on_c, 9, 36, 0
1, 167295, Note_on_c, 9, 44, 61
1, 167307, Note_on_c, 9, 44, 0
1, 167520, Note_on_c, 9, 38, 115
1, 167520, Note_on_c, 9, 44, 78
1, 167533, Note_on_c, 9, 44, 0
1, 167775, Note_on_c, 9, 44, 61
1, 167787, Note_on_c, 9, 44, 0
1, 167999, Note_on_c, 9, 38, 0
1, 168015, Note_on_c, 9, 44, 87
1, 168015, Note_on_c, 9, 44, 0
1, 168030, Note_on_c, 9, 36, 105
1, 168119, Note_on_c, 9, 36, 0
1, 168270, Note_on_c, 9, 44, 87
1, 168270, Note_on_c, 9, 36, 106
1, 168274, Note_on_c, 9, 44, 0
1, 168359, Note_on_c, 9, 36, 0
1, 168510, Note_on_c, 9, 44, 79
1, 168514, Note_on_c, 9, 44, 0
1, 168525, Note_on_c, 9, 38, 110
1, 168719, Note_on_c, 9, 38, 0
1, 168750, Note_on_c, 9, 44, 72
1, 168754, Note_on_c, 9, 44, 0
1, 168960, Note_on_c, 9, 44, 71
1, 168960, Note_on_c, 9, 44, 0
1, 168975, Note_on_c, 9, 36, 103
1, 169199, Note_on_c, 9, 36, 0
1, 169215, Note_on_c, 9, 36, 108
1, 169229, Note_on_c, 9, 36, 0
1, 169230, Note_on_c, 9, 44, 68
1, 169234, Note_on_c, 9, 44, 0
1, 169470, Note_on_c, 9, 38, 114
1, 169485, Note_on_c, 9, 44, 70
1, 169495, Note_on_c, 9, 44, 0
1, 169710, Note_on_c, 9, 44, 71
1, 169714, Note_on_c, 9, 44, 0
1, 169919, Note_on_c, 9, 38, 0
1, 169950, Note_on_c, 9, 36, 110
1, 169964, Note_on_c, 9, 36, 0
1, 169965, Note_on_c, 9, 44, 79
1, 169975, Note_on_c, 9, 44, 0
1, 170190, Note_on_c, 9, 44, 61
1, 170190, Note_on_c, 9, 44, 0
1, 170205, Note_on_c, 9, 36, 103
1, 170399, Note_on_c, 9, 36, 0
1, 170445, Note_on_c, 9, 38, 116
1, 170445, Note_on_c, 9, 44, 74
1, 170455, Note_on_c, 9, 44, 0
1, 170639, Note_on_c, 9, 38, 0
1, 170670, Note_on_c, 9, 44, 70
1, 170674, Note_on_c, 9, 44, 0
1, 170895, Note_on_c, 9, 44, 49
1, 170895, Note_on_c, 9, 44, 0
1, 170910, Note_on_c, 9, 36, 109
1, 170999, Note_on_c, 9, 36, 0
1, 171135, Note_on_c, 9, 44, 81
1, 171135, Note_on_c, 9, 44, 0
1, 171150, Note_on_c, 9, 36, 108
1, 171239, Note_on_c, 9, 36, 0
1, 171375, Note_on_c, 9, 44, 81
1, 171387, Note_on_c, 9, 44, 0
1, 171390, Note_on_c, 9, 38, 114
1, 171615, Note_on_c, 9, 44, 81
1, 171627, Note_on_c, 9, 44, 0
1, 171839, Note_on_c, 9, 38, 0
1, 171870, Note_on_c, 9, 49, 84
1, 171885, Note_on_c, 9, 36, 110
1, 171896, Note_on_c, 9, 49, 0
1, 172079, Note_on_c, 9, 36, 0
1, 172335, Note_on_c, 9, 38, 118
1, 172335, Note_on_c, 9, 44, 93
1, 172347, Note_on_c, 9, 44, 0
1, 172559, Note_on_c, 9, 38, 0
1, 172575, Note_on_c, 9, 44, 91
1, 172587, Note_on_c, 9, 44, 0
1, 172800, Note_on_c, 9, 44, 93
1, 172800, Note_on_c, 9, 36, 109
1, 172813, Note_on_c, 9, 44, 0
1, 173039, Note_on_c, 9, 36, 0
1, 173070, Note_on_c, 9, 44, 79
1, 173070, Note_on_c, 9, 44, 0
1, 173085, Note_on_c, 9, 36, 107
1, 173279, Note_on_c, 9, 36, 0
1, 173325, Note_on_c, 9, 44, 82
1, 173335, Note_on_c, 9, 44, 0
1, 173340, Note_on_c, 9, 38, 120
1, 173519, Note_on_c, 9, 38, 0
1, 173550, Note_on_c, 9, 44, 82
1, 173554, Note_on_c, 9, 44, 0
1, 173775, Note_on_c, 9, 44, 97
1, 173775, Note_on_c, 9, 36, 107
1, 173787, Note_on_c, 9, 44, 0
1, 173999, Note_on_c, 9, 36, 0
1, 174000, Note_on_c, 9, 44, 79
1, 174000, Note_on_c, 9, 44, 0
1, 174015, Note_on_c, 9, 36, 108
1, 174239, Note_on_c, 9, 36, 0
1, 174240, Note_on_c, 9, 44, 79
1, 174253, Note_on_c, 9, 44, 0
1, 174255, Note_on_c, 9, 38, 111
1, 174479, Note_on_c, 9, 38, 0
1, 174480, Note_on_c, 9, 44, 71
1, 174493, Note_on_c, 9, 44, 0
1, 174735, Note_on_c, 9, 44, 91
1, 174735, Note_on_c, 9, 36, 109
1, 174747, Note_on_c, 9, 44, 0
1, 174959, Note_on_c, 9, 36, 0
1, 174975, Note_on_c, 9, 44, 79
1, 174975, Note_on_c, 9, 36, 108
1, 174987, Note_on_c, 9, 44, 0
1, 175199, Note_on_c, 9, 36, 0
1, 175200, Note_on_c, 9, 44, 89
1, 175213, Note_on_c, 9, 44, 0
1, 175215, Note_on_c, 9, 38, 110
1, 175439, Note_on_c, 9, 38, 0
1, 175440, Note_on_c, 9, 44, 84
1, 175453, Note_on_c, 9, 44, 0
1, 175695, Note_on_c, 9, 49, 63
1, 175707, Note_on_c, 9, 49, 0
1, 175710, Note_on_c, 9, 36, 113
1, 176159, Note_on_c, 9, 36, 0
1, 176175, Note_on_c, 9, 38, 113
1, 176175, Note_on_c, 9, 44, 54
1, 176187, Note_on_c, 9, 44, 0
1, 176399, Note_on_c, 9, 38, 0
1, 176430, Note_on_c, 9, 44, 79
1, 176434, Note_on_c, 9, 44, 0
1, 176655, Note_on_c, 9, 36, 109
1, 176684, Note_on_c, 9, 36, 0
1, 176685, Note_on_c, 9, 44, 81
1, 176695, Note_on_c, 9, 44, 0
1, 176910, Note_on_c, 9, 44, 72
1, 176910, Note_on_c, 9, 36, 109
1, 176914, Note_on_c, 9, 44, 0
1, 176999, Note_on_c, 9, 36, 0
1, 177150, Note_on_c, 9, 38, 120
1, 177150, Note_on_c, 9, 44, 71
1, 177154, Note_on_c, 9, 44, 0
1, 177390, Note_on_c, 9, 44, 71
1, 177394, Note_on_c, 9, 44, 0
1, 177599, Note_on_c, 9, 38, 0
1, 177630, Note_on_c, 9, 44, 101
1, 177630, Note_on_c, 9, 36, 115
1, 177634, Note_on_c, 9, 44, 0
1, 177719, Note_on_c, 9, 36, 0
1, 177855, Note_on_c, 9, 44, 78
1, 177855, Note_on_c, 9, 44, 0
1, 177870, Note_on_c, 9, 36, 108
1, 177959, Note_on_c, 9, 36, 0
1, 178095, Note_on_c, 9, 44, 75
1, 178107, Note_on_c, 9, 44, 0
1, 178110, Note_on_c, 9, 38, 108
1, 178335, Note_on_c, 9, 44, 77
1, 178347, Note_on_c, 9, 44, 0
1, 178559, Note_on_c, 9, 38, 0
1, 178575, Note_on_c, 9, 44, 85
1, 178575, Note_on_c, 9, 44, 0
1, 178590, Note_on_c, 9, 36, 115
1, 178679, Note_on_c, 9, 36, 0
1, 178815, Note_on_c, 9, 36, 109
1, 178829, Note_on_c, 9, 36, 0
1, 178830, Note_on_c, 9, 44, 77
1, 178834, Note_on_c, 9, 44, 0
1, 179055, Note_on_c, 9, 44, 77
1, 179067, Note_on_c, 9, 44, 0
1, 179070, Note_on_c, 9, 38, 116
1, 179295, Note_on_c, 9, 44, 79
1, 179307, Note_on_c, 9, 44, 0
1, 179519, Note_on_c, 9, 38, 0
1, 179550, Note_on_c, 9, 44, 107
1, 179550, Note_on_c, 9, 36, 116
1, 179554, Note_on_c, 9, 44, 0
1, 179639, Note_on_c, 9, 36, 0
1, 179775, Note_on_c, 9, 44, 71
1, 179775, Note_on_c, 9, 44, 0
1, 179790, Note_on_c, 9, 36, 121
1, 179879, Note_on_c, 9, 36, 0
1, 180030, Note_on_c, 9, 38, 110
1, 180030, Note_on_c, 9, 44, 91
1, 180034, Note_on_c, 9, 44, 0
1, 180255, Note_on_c, 9, 44, 75
1, 180255, Note_on_c, 9, 44, 0
1, 180270, Note_on_c, 9, 36, 98
1, 180359, Note_on_c, 9, 36, 0
1, 180479, Note_on_c, 9, 38, 0
1, 180510, Note_on_c, 9, 44, 85
1, 180510, Note_on_c, 9, 36, 120
1, 180514, Note_on_c, 9, 44, 0
1, 180599, Note_on_c, 9, 36, 0
1, 180735, Note_on_c, 9, 44, 73
1, 180735, Note_on_c, 9, 36, 115
1, 180747, Note_on_c, 9, 44, 0
1, 180959, Note_on_c, 9, 36, 0
1, 180960, Note_on_c, 9, 38, 104
1, 180975, Note_on_c, 9, 44, 72
1, 180987, Note_on_c, 9, 44, 0
1, 181215, Note_on_c, 9, 44, 93
1, 181215, Note_on_c, 9, 36, 104
1, 181227, Note_on_c, 9, 44, 0
1, 181439, Note_on_c, 9, 38, 0
1, 181439, Note_on_c, 9, 36, 0
1, 181470, Note_on_c, 9, 44, 99
1, 181470, Note_on_c, 9, 36, 127
1, 181474, Note_on_c, 9, 44, 0
1, 181559, Note_on_c, 9, 36, 0
1, 181710, Note_on_c, 9, 44, 73
1, 181710, Note_on_c, 9, 36, 110
1, 181714, Note_on_c, 9, 44, 0
1, 181799, Note_on_c, 9, 36, 0
1, 181950, Note_on_c, 9, 38, 125
1, 181950, Note_on_c, 9, 44, 81
1, 181954, Note_on_c, 9, 44, 0
1, 182190, Note_on_c, 9, 44, 74
1, 182194, Note_on_c, 9, 44, 0
1, 182399, Note_on_c, 9, 38, 0
1, 182430, Note_on_c, 9, 44, 75
1, 182430, Note_on_c, 9, 44, 0
1, 182445, Note_on_c, 9, 36, 111
1, 182639, Note_on_c, 9, 36, 0
1, 182670, Note_on_c, 9, 44, 56
1, 182670, Note_on_c, 9, 44, 0
1, 182685, Note_on_c, 9, 36, 109
1, 182879, Note_on_c, 9, 36, 0
1, 182910, Note_on_c, 9, 38, 114
1, 182910, Note_on_c, 9, 44, 77
1, 182914, Note_on_c, 9, 44, 0
1, 183150, Note_on_c, 9, 44, 81
1, 183154, Note_on_c, 9, 44, 0
1, 183359, Note_on_c, 9, 38, 0
1, 183390, Note_on_c, 9, 36, 113
1, 183405, Note_on_c, 9, 49, 81
1, 183415, Note_on_c, 9, 49, 0
1, 183839, Note_on_c, 9, 36, 0
1, 183855, Note_on_c, 9, 38, 121
1, 183870, Note_on_c, 9, 44, 81
1, 183874, Note_on_c, 9, 44, 0
1, 184079, Note_on_c, 9, 38, 0
1, 184095, Note_on_c, 9, 44, 87
1, 184107, Note_on_c, 9, 44, 0
1, 184335, Note_on_c, 9, 44, 95
1, 184335, Note_on_c, 9, 44, 0
1, 184350, Note_on_c, 9, 36, 110
1, 184439, Note_on_c, 9, 36, 0
1, 184575, Note_on_c, 9, 44, 65
1, 184575, Note_on_c, 9, 44, 0
1, 184590, Note_on_c, 9, 36, 100
1, 184679, Note_on_c, 9, 36, 0
1, 184815, Note_on_c, 9, 44, 72
1, 184827, Note_on_c, 9, 44, 0
1, 184830, Note_on_c, 9, 38, 117
1, 185055, Note_on_c, 9, 44, 71
1, 185067, Note_on_c, 9, 44, 0
1, 185279, Note_on_c, 9, 38, 0
1, 185310, Note_on_c, 9, 44, 89
1, 185310, Note_on_c, 9, 44, 0
1, 185325, Note_on_c, 9, 36, 110
1, 185564, Note_on_c, 9, 36, 0
1, 185565, Note_on_c, 9, 44, 85
1, 185565, Note_on_c, 9, 36, 109
1, 185575, Note_on_c, 9, 44, 0
1, 185759, Note_on_c, 9, 36, 0
1, 185790, Note_on_c, 9, 44, 89
1, 185794, Note_on_c, 9, 44, 0
1, 185805, Note_on_c, 9, 38, 114
1, 185999, Note_on_c, 9, 38, 0
1, 186030, Note_on_c, 9, 44, 67
1, 186034, Note_on_c, 9, 44, 0
1, 186285, Note_on_c, 9, 44, 93
1, 186285, Note_on_c, 9, 36, 110
1, 186295, Note_on_c, 9, 44, 0
1, 186479, Note_on_c, 9, 36, 0
1, 186510, Note_on_c, 9, 44, 71
1, 186510, Note_on_c, 9, 36, 103
1, 186514, Note_on_c, 9, 44, 0
1, 186599, Note_on_c, 9, 36, 0
1, 186750, Note_on_c, 9, 38, 120
1, 186750, Note_on_c, 9, 44, 85
1, 186754, Note_on_c, 9, 44, 0
1, 186990, Note_on_c, 9, 44, 97
1, 186994, Note_on_c, 9, 44, 0
1, 187199, Note_on_c, 9, 38, 0
1, 187215, Note_on_c, 9, 36, 111
1, 187230, Note_on_c, 9, 49, 75
1, 187256, Note_on_c, 9, 49, 0
1, 187439, Note_on_c, 9, 36, 0
1, 187710, Note_on_c, 9, 38, 122
1, 187710, Note_on_c, 9, 44, 84
1, 187723, Note_on_c, 9, 44, 0
1, 187965, Note_on_c, 9, 44, 79
1, 187975, Note_on_c, 9, 44, 0
1, 188159, Note_on_c, 9, 38, 0
1, 188190, Note_on_c, 9, 44, 79
1, 188190, Note_on_c, 9, 44, 0
1, 188220, Note_on_c, 9, 36, 106
1, 188444, Note_on_c, 9, 36, 0
1, 188445, Note_on_c, 9, 44, 70
1, 188445, Note_on_c, 9, 36, 109
1, 188455, Note_on_c, 9, 44, 0
1, 188639, Note_on_c, 9, 36, 0
1, 188670, Note_on_c, 9, 38, 117
1, 188670, Note_on_c, 9, 44, 79
1, 188674, Note_on_c, 9, 44, 0
1, 188880, Note_on_c, 9, 44, 85
1, 188893, Note_on_c, 9, 44, 0
1, 189119, Note_on_c, 9, 38, 0
1, 189120, Note_on_c, 9, 36, 124
1, 189360, Note_on_c, 9, 38, 106
1, 189389, Note_on_c, 9, 38, 0
1, 189390, Note_on_c, 9, 38, 116
1, 189479, Note_on_c, 9, 38, 0
1, 189599, Note_on_c, 9, 36, 0
1, 189600, Note_on_c, 9, 38, 100
1, 189629, Note_on_c, 9, 38, 0
1, 189630, Note_on_c, 9, 38, 110
1, 189870, Note_on_c, 9, 36, 108
1, 189959, Note_on_c, 9, 36, 0
1, 190079, Note_on_c, 9, 38, 0
1, 190080, Note_on_c, 9, 38, 100
1, 190109, Note_on_c, 9, 38, 0
1, 190110, Note_on_c, 9, 38, 110
1, 190199, Note_on_c, 9, 38, 0
1, 190335, Note_on_c, 9, 38, 99
1, 190364, Note_on_c, 9, 38, 0
1, 190365, Note_on_c, 9, 38, 109
1, 190559, Note_on_c, 9, 38, 0
1, 190605, Note_on_c, 9, 38, 108
1, 190619, Note_on_c, 9, 38, 0
1, 190620, Note_on_c, 9, 38, 107
1, 190799, Note_on_c, 9, 38, 0
1, 190830, Note_on_c, 9, 38, 117
1, 190919, Note_on_c, 9, 38, 0
1, 191055, Note_on_c, 9, 44, 95
1, 191055, Note_on_c, 9, 36, 117
1, 191069, Note_on_c, 9, 44, 0
1, 191324, Note_on_c, 9, 36, 0
1, 191325, Note_on_c, 9, 44, 84
1, 191335, Note_on_c, 9, 44, 0
1, 191565, Note_on_c, 9, 54, 77
1, 191565, Note_on_c, 9, 44, 89
1, 191575, Note_on_c, 9, 44, 0
1, 191579, Note_on_c, 9, 54, 0
1, 191580, Note_on_c, 9, 38, 120
1, 191759, Note_on_c, 9, 38, 0
1, 191790, Note_on_c, 9, 44, 82
1, 191794, Note_on_c, 9, 44, 0
1, 192045, Note_on_c, 9, 44, 75
1, 192045, Note_on_c, 9, 36, 111
1, 192055, Note_on_c, 9, 44, 0
1, 192239, Note_on_c, 9, 36, 0
1, 192270, Note_on_c, 9, 44, 95
1, 192274, Note_on_c, 9, 44, 0
1, 192480, Note_on_c, 9, 38, 116
1, 192494, Note_on_c, 9, 38, 0
1, 192495, Note_on_c, 9, 54, 75
1, 192495, Note_on_c, 9, 44, 93
1, 192507, Note_on_c, 9, 44, 0
1, 192719, Note_on_c, 9, 54, 0
1, 192720, Note_on_c, 9, 44, 97
1, 192720, Note_on_c, 9, 36, 96
1, 192733, Note_on_c, 9, 44, 0
1, 192959, Note_on_c, 9, 36, 0
1, 192960, Note_on_c, 9, 44, 97
1, 192973, Note_on_c, 9, 44, 0
1, 193200, Note_on_c, 9, 44, 84
1, 193200, Note_on_c, 9, 36, 106
1, 193213, Note_on_c, 9, 44, 0
1, 193439, Note_on_c, 9, 36, 0
1, 193440, Note_on_c, 9, 38, 117
1, 193454, Note_on_c, 9, 38, 0
1, 193455, Note_on_c, 9, 54, 78
1, 193455, Note_on_c, 9, 44, 87
1, 193467, Note_on_c, 9, 44, 0
1, 193679, Note_on_c, 9, 54, 0
1, 193695, Note_on_c, 9, 44, 87
1, 193707, Note_on_c, 9, 44, 0
1, 193950, Note_on_c, 9, 44, 93
1, 193950, Note_on_c, 9, 44, 0
1, 193965, Note_on_c, 9, 36, 102
1, 194159, Note_on_c, 9, 36, 0
1, 194190, Note_on_c, 9, 44, 75
1, 194190, Note_on_c, 9, 44, 0
1, 194205, Note_on_c, 9, 36, 103
1, 194399, Note_on_c, 9, 36, 0
1, 194430, Note_on_c, 9, 54, 81
1, 194430, Note_on_c, 9, 44, 95
1, 194434, Note_on_c, 9, 44, 0
1, 194444, Note_on_c, 9, 54, 0
1, 194445, Note_on_c, 9, 38, 114
1, 194639, Note_on_c, 9, 38, 0
1, 194655, Note_on_c, 9, 44, 87
1, 194655, Note_on_c, 9, 44, 0
1, 194685, Note_on_c, 9, 36, 94
1, 194879, Note_on_c, 9, 36, 0
1, 194895, Note_on_c, 9, 36, 121
1, 194909, Note_on_c, 9, 36, 0
1, 194910, Note_on_c, 9, 44, 91
1, 194914, Note_on_c, 9, 44, 0
1, 195135, Note_on_c, 9, 44, 77
1, 195147, Note_on_c, 9, 44, 0
1, 195375, Note_on_c, 9, 54, 79
1, 195389, Note_on_c, 9, 54, 0
1, 195390, Note_on_c, 9, 38, 120
1, 195390, Note_on_c, 9, 44, 89
1, 195394, Note_on_c, 9, 44, 0
1, 195630, Note_on_c, 9, 44, 78
1, 195634, Note_on_c, 9, 44, 0
1, 195839, Note_on_c, 9, 38, 0
1, 195870, Note_on_c, 9, 44, 85
1, 195870, Note_on_c, 9, 36, 110
1, 195874, Note_on_c, 9, 44, 0
1, 195959, Note_on_c, 9, 36, 0
1, 196095, Note_on_c, 9, 36, 107
1, 196109, Note_on_c, 9, 36, 0
1, 196110, Note_on_c, 9, 44, 74
1, 196114, Note_on_c, 9, 44, 0
1, 196335, Note_on_c, 9, 54, 75
1, 196335, Note_on_c, 9, 44, 75
1, 196347, Note_on_c, 9, 44, 0
1, 196349, Note_on_c, 9, 54, 0
1, 196350, Note_on_c, 9, 38, 118
1, 196590, Note_on_c, 9, 44, 78
1, 196594, Note_on_c, 9, 44, 0
1, 196799, Note_on_c, 9, 38, 0
1, 196845, Note_on_c, 9, 44, 101
1, 196845, Note_on_c, 9, 36, 111
1, 196855, Note_on_c, 9, 44, 0
1, 197039, Note_on_c, 9, 36, 0
1, 197070, Note_on_c, 9, 44, 81
1, 197070, Note_on_c, 9, 36, 108
1, 197074, Note_on_c, 9, 44, 0
1, 197159, Note_on_c, 9, 36, 0
1, 197310, Note_on_c, 9, 38, 109
1, 197310, Note_on_c, 9, 54, 82
1, 197310, Note_on_c, 9, 44, 78
1, 197314, Note_on_c, 9, 44, 0
1, 197535, Note_on_c, 9, 44, 74
1, 197547, Note_on_c, 9, 44, 0
1, 197759, Note_on_c, 9, 38, 0
1, 197759, Note_on_c, 9, 54, 0
1, 197790, Note_on_c, 9, 44, 89
1, 197790, Note_on_c, 9, 36, 104
1, 197794, Note_on_c, 9, 44, 0
1, 197879, Note_on_c, 9, 36, 0
1, 198015, Note_on_c, 9, 44, 72
1, 198015, Note_on_c, 9, 44, 0
1, 198030, Note_on_c, 9, 36, 114
1, 198119, Note_on_c, 9, 36, 0
1, 198255, Note_on_c, 9, 38, 120
1, 198255, Note_on_c, 9, 44, 85
1, 198267, Note_on_c, 9, 44, 0
1, 198269, Note_on_c, 9, 38, 0
1, 198270, Note_on_c, 9, 54, 81
1, 198495, Note_on_c, 9, 44, 81
1, 198507, Note_on_c, 9, 44, 0
1, 198719, Note_on_c, 9, 54, 0
1, 198735, Note_on_c, 9, 36, 116
1, 198749, Note_on_c, 9, 36, 0
1, 198750, Note_on_c, 9, 44, 91
1, 198754, Note_on_c, 9, 44, 0
1, 198975, Note_on_c, 9, 44, 71
1, 198987, Note_on_c, 9, 44, 0
1, 199200, Note_on_c, 9, 38, 110
1, 199214, Note_on_c, 9, 38, 0
1, 199215, Note_on_c, 9, 54, 77
1, 199215, Note_on_c, 9, 44, 84
1, 199227, Note_on_c, 9, 44, 0
1, 199439, Note_on_c, 9, 54, 0
1, 199455, Note_on_c, 9, 44, 67
1, 199455, Note_on_c, 9, 44, 0
1, 199470, Note_on_c, 9, 36, 116
1, 199559, Note_on_c, 9, 36, 0
1, 199710, Note_on_c, 9, 44, 74
1, 199714, Note_on_c, 9, 44, 0
1, 199935, Note_on_c, 9, 44, 81
1, 199935, Note_on_c, 9, 36, 113
1, 199947, Note_on_c, 9, 44, 0
1, 200159, Note_on_c, 9, 36, 0
1, 200160, Note_on_c, 9, 54, 77
1, 200160, Note_on_c, 9, 44, 82
1, 200172, Note_on_c, 9, 44, 0
1, 200174, Note_on_c, 9, 54, 0
1, 200175, Note_on_c, 9, 38, 107
1, 200385, Note_on_c, 9, 44, 79
1, 200385, Note_on_c, 9, 44, 0
1, 200399, Note_on_c, 9, 38, 0
1, 200415, Note_on_c, 9, 36, 115
1, 200639, Note_on_c, 9, 36, 0
1, 200640, Note_on_c, 9, 44, 91
1, 200653, Note_on_c, 9, 44, 0
1, 200880, Note_on_c, 9, 44, 79
1, 200880, Note_on_c, 9, 36, 104
1, 200893, Note_on_c, 9, 44, 0
1, 201119, Note_on_c, 9, 36, 0
1, 201135, Note_on_c, 9, 38, 115
1, 201135, Note_on_c, 9, 54, 78
1, 201135, Note_on_c, 9, 44, 82
1, 201147, Note_on_c, 9, 44, 0
1, 201359, Note_on_c, 9, 38, 0
1, 201359, Note_on_c, 9, 54, 0
1, 201375, Note_on_c, 9, 44, 73
1, 201387, Note_on_c, 9, 44, 0
1, 201615, Note_on_c, 9, 36, 109
1, 201629, Note_on_c, 9, 36, 0
1, 201630, Note_on_c, 9, 44, 84
1, 201634, Note_on_c, 9, 44, 0
1, 201870, Note_on_c, 9, 44, 79
1, 201870, Note_on_c, 9, 36, 115
1, 201874, Note_on_c, 9, 44, 0
1, 201959, Note_on_c, 9, 36, 0
1, 202095, Note_on_c, 9, 44, 84
1, 202107, Note_on_c, 9, 44, 0
1, 202110, Note_on_c, 9, 38, 110
1, 202110, Note_on_c, 9, 54, 84
1, 202335, Note_on_c, 9, 44, 84
1, 202335, Note_on_c, 9, 36, 106
1, 202347, Note_on_c, 9, 44, 0
1, 202559, Note_on_c, 9, 38, 0
1, 202559, Note_on_c, 9, 54, 0
1, 202559, Note_on_c, 9, 36, 0
1, 202560, Note_on_c, 9, 44, 84
1, 202560, Note_on_c, 9, 44, 0
1, 202575, Note_on_c, 9, 36, 120
1, 202799, Note_on_c, 9, 36, 0
1, 202815, Note_on_c, 9, 44, 78
1, 202815, Note_on_c, 9, 44, 0
1, 202830, Note_on_c, 9, 36, 108
1, 202919, Note_on_c, 9, 36, 0
1, 203070, Note_on_c, 9, 38, 117
1, 203070, Note_on_c, 9, 54, 67
1, 203070, Note_on_c, 9, 44, 74
1, 203074, Note_on_c, 9, 44, 0
1, 203295, Note_on_c, 9, 44, 74
1, 203307, Note_on_c, 9, 44, 0
1, 203519, Note_on_c, 9, 38, 0
1, 203519, Note_on_c, 9, 54, 0
1, 203535, Note_on_c, 9, 44, 95
1, 203535, Note_on_c, 9, 44, 0
1, 203550, Note_on_c, 9, 36, 104
1, 203639, Note_on_c, 9, 36, 0
1, 203775, Note_on_c, 9, 44, 67
1, 203775, Note_on_c, 9, 44, 0
1, 203790, Note_on_c, 9, 36, 113
1, 203879, Note_on_c, 9, 36, 0
1, 204000, Note_on_c, 9, 44, 93
1, 204013, Note_on_c, 9, 44, 0
1, 204015, Note_on_c, 9, 54, 74
1, 204029, Note_on_c, 9, 54, 0
1, 204030, Note_on_c, 9, 38, 118
1, 204255, Note_on_c, 9, 44, 73
1, 204267, Note_on_c, 9, 44, 0
1, 204479, Note_on_c, 9, 38, 0
1, 204525, Note_on_c, 9, 44, 85
1, 204525, Note_on_c, 9, 36, 111
1, 204537, Note_on_c, 9, 44, 0
1, 204764, Note_on_c, 9, 36, 0
1, 204765, Note_on_c, 9, 44, 66
1, 204765, Note_on_c, 9, 36, 114
1, 204775, Note_on_c, 9, 44, 0
1, 204959, Note_on_c, 9, 36, 0
1, 205005, Note_on_c, 9, 38, 113
1, 205005, Note_on_c, 9, 44, 73
1, 205015, Note_on_c, 9, 44, 0
1, 205019, Note_on_c, 9, 38, 0
1, 205020, Note_on_c, 9, 54, 78
1, 205199, Note_on_c, 9, 54, 0
1, 205230, Note_on_c, 9, 44, 79
1, 205234, Note_on_c, 9, 44, 0
1, 205455, Note_on_c, 9, 44, 82
1, 205455, Note_on_c, 9, 44, 0
1, 205470, Note_on_c, 9, 36, 114
1, 205559, Note_on_c, 9, 36, 0
1, 205695, Note_on_c, 9, 44, 73
1, 205695, Note_on_c, 9, 36, 110
1, 205707, Note_on_c, 9, 44, 0
1, 205919, Note_on_c, 9, 36, 0
1, 205935, Note_on_c, 9, 38, 120
1, 205935, Note_on_c, 9, 54, 74
1, 205935, Note_on_c, 9, 44, 74
1, 205947, Note_on_c, 9, 44, 0
1, 206159, Note_on_c, 9, 38, 0
1, 206159, Note_on_c, 9, 54, 0
1, 206175, Note_on_c, 9, 44, 79
1, 206187, Note_on_c, 9, 44, 0
1, 206430, Note_on_c, 9, 44, 104
1, 206430, Note_on_c, 9, 44, 0
1, 206445, Note_on_c, 9, 36, 120
1, 206639, Note_on_c, 9, 36, 0
1, 206670, Note_on_c, 9, 44, 62
1, 206674, Note_on_c, 9, 44, 0
1, 206910, Note_on_c, 9, 38, 117
1, 206910, Note_on_c, 9, 54, 73
1, 206925, Note_on_c, 9, 44, 77
1, 206935, Note_on_c, 9, 44, 0
1, 207120, Note_on_c, 9, 44, 78
1, 207121, Note_on_c, 9, 44, 0
1, 207165, Note_on_c, 9, 36, 124
1, 207359, Note_on_c, 9, 38, 0
1, 207359, Note_on_c, 9, 54, 0
1, 207359, Note_on_c, 9, 36, 0
1, 207360, Note_on_c, 9, 44, 91
1, 207373, Note_on_c, 9, 44, 0
1, 207615, Note_on_c, 9, 44, 71
1, 207615, Note_on_c, 9, 36, 104
1, 207627, Note_on_c, 9, 44, 0
1, 207839, Note_on_c, 9, 36, 0
1, 207855, Note_on_c, 9, 38, 115
1, 207855, Note_on_c, 9, 54, 77
1, 207870, Note_on_c, 9, 44, 84
1, 207874, Note_on_c, 9, 44, 0
1, 208079, Note_on_c, 9, 38, 0
1, 208079, Note_on_c, 9, 54, 0
1, 208095, Note_on_c, 9, 44, 81
1, 208095, Note_on_c, 9, 44, 0
1, 208110, Note_on_c, 9, 36, 117
1, 208199, Note_on_c, 9, 36, 0
1, 208335, Note_on_c, 9, 44, 93
1, 208347, Note_on_c, 9, 44, 0
1, 208575, Note_on_c, 9, 44, 77
1, 208575, Note_on_c, 9, 36, 104
1, 208587, Note_on_c, 9, 44, 0
1, 208799, Note_on_c, 9, 36, 0
1, 208815, Note_on_c, 9, 38, 118
1, 208815, Note_on_c, 9, 54, 71
1, 208830, Note_on_c, 9, 44, 79
1, 208834, Note_on_c, 9, 44, 0
1, 209039, Note_on_c, 9, 38, 0
1, 209039, Note_on_c, 9, 54, 0
1, 209070, Note_on_c, 9, 44, 75
1, 209074, Note_on_c, 9, 44, 0
1, 209310, Note_on_c, 9, 44, 74
1, 209310, Note_on_c, 9, 36, 110
1, 209314, Note_on_c, 9, 44, 0
1, 209399, Note_on_c, 9, 36, 0
1, 209535, Note_on_c, 9, 44, 79
1, 209535, Note_on_c, 9, 36, 116
1, 209547, Note_on_c, 9, 44, 0
1, 209759, Note_on_c, 9, 36, 0
1, 209760, Note_on_c, 9, 54, 81
1, 209774, Note_on_c, 9, 54, 0
1, 209775, Note_on_c, 9, 38, 118
1, 209775, Note_on_c, 9, 44, 73
1, 209787, Note_on_c, 9, 44, 0
1, 209999, Note_on_c, 9, 38, 0
1, 210015, Note_on_c, 9, 44, 73
1, 210027, Note_on_c, 9, 44, 0
1, 210270, Note_on_c, 9, 44, 89
1, 210270, Note_on_c, 9, 36, 120
1, 210274, Note_on_c, 9, 44, 0
1, 210359, Note_on_c, 9, 36, 0
1, 210495, Note_on_c, 9, 44, 68
1, 210507, Note_on_c, 9, 44, 0
1, 210720, Note_on_c, 9, 38, 118
1, 210735, Note_on_c, 9, 44, 82
1, 210747, Note_on_c, 9, 44, 0
1, 210749, Note_on_c, 9, 38, 0
1, 210750, Note_on_c, 9, 54, 65
1, 210975, Note_on_c, 9, 44, 74
1, 210975, Note_on_c, 9, 36, 110
1, 210987, Note_on_c, 9, 44, 0
1, 211199, Note_on_c, 9, 54, 0
1, 211199, Note_on_c, 9, 36, 0
1, 211215, Note_on_c, 9, 44, 74
1, 211227, Note_on_c, 9, 44, 0
1, 211455, Note_on_c, 9, 44, 65
1, 211455, Note_on_c, 9, 36, 110
1, 211467, Note_on_c, 9, 44, 0
1, 211679, Note_on_c, 9, 36, 0
1, 211695, Note_on_c, 9, 38, 113
1, 211695, Note_on_c, 9, 54, 70
1, 211710, Note_on_c, 9, 44, 74
1, 211714, Note_on_c, 9, 44, 0
1, 211919, Note_on_c, 9, 38, 0
1, 211919, Note_on_c, 9, 54, 0
1, 211935, Note_on_c, 9, 36, 127
1, 211949, Note_on_c, 9, 36, 0
1, 211950, Note_on_c, 9, 44, 63
1, 211954, Note_on_c, 9, 44, 0
1, 212175, Note_on_c, 9, 44, 91
1, 212187, Note_on_c, 9, 44, 0
1, 212430, Note_on_c, 9, 44, 61
1, 212430, Note_on_c, 9, 36, 105
1, 212434, Note_on_c, 9, 44, 0
1, 212519, Note_on_c, 9, 36, 0
1, 212655, Note_on_c, 9, 54, 73
1, 212655, Note_on_c, 9, 44, 71
1, 212667, Note_on_c, 9, 44, 0
1, 212669, Note_on_c, 9, 54, 0
1, 212670, Note_on_c, 9, 38, 116
1, 212910, Note_on_c, 9, 44, 78
1, 212914, Note_on_c, 9, 44, 0
1, 213119, Note_on_c, 9, 38, 0
1, 213135, Note_on_c, 9, 44, 73
1, 213135, Note_on_c, 9, 44, 0
1, 213165, Note_on_c, 9, 36, 110
1, 213359, Note_on_c, 9, 36, 0
1, 213375, Note_on_c, 9, 44, 53
1, 213375, Note_on_c, 9, 44, 0
1, 213390, Note_on_c, 9, 36, 116
1, 213479, Note_on_c, 9, 36, 0
1, 213630, Note_on_c, 9, 38, 118
1, 213630, Note_on_c, 9, 54, 72
1, 213630, Note_on_c, 9, 44, 81
1, 213634, Note_on_c, 9, 44, 0
1, 213870, Note_on_c, 9, 44, 65
1, 213874, Note_on_c, 9, 44, 0
1, 214079, Note_on_c, 9, 38, 0
1, 214079, Note_on_c, 9, 54, 0
1, 214125, Note_on_c, 9, 44, 99
1, 214125, Note_on_c, 9, 36, 113
1, 214135, Note_on_c, 9, 44, 0
1, 214319, Note_on_c, 9, 36, 0
1, 214350, Note_on_c, 9, 44, 64
1, 214350, Note_on_c, 9, 44, 0
1, 214365, Note_on_c, 9, 36, 108
1, 214559, Note_on_c, 9, 36, 0
1, 214590, Note_on_c, 9, 44, 71
1, 214594, Note_on_c, 9, 44, 0
1, 214605, Note_on_c, 9, 38, 117
1, 214605, Note_on_c, 9, 54, 79
1, 214799, Note_on_c, 9, 38, 0
1, 214799, Note_on_c, 9, 54, 0
1, 214830, Note_on_c, 9, 44, 78
1, 214834, Note_on_c, 9, 44, 0
1, 215055, Note_on_c, 9, 44, 61
1, 215055, Note_on_c, 9, 44, 0
1, 215070, Note_on_c, 9, 36, 108
1, 215159, Note_on_c, 9, 36, 0
1, 215295, Note_on_c, 9, 44, 70
1, 215295, Note_on_c, 9, 44, 0
1, 215310, Note_on_c, 9, 36, 110
1, 215399, Note_on_c, 9, 36, 0
1, 215520, Note_on_c, 9, 44, 71
1, 215533, Note_on_c, 9, 44, 0
1, 215535, Note_on_c, 9, 38, 115
1, 215549, Note_on_c, 9, 38, 0
1, 215550, Note_on_c, 9, 54, 99
1, 215775, Note_on_c, 9, 44, 61
1, 215775, Note_on_c, 9, 36, 117
1, 215787, Note_on_c, 9, 44, 0
1, 215999, Note_on_c, 9, 54, 0
1, 215999, Note_on_c, 9, 36, 0
1, 216015, Note_on_c, 9, 49, 85
1, 216015, Note_on_c, 9, 36, 125
1, 216027, Note_on_c, 9, 49, 0
1, 216239, Note_on_c, 9, 36, 0
1, 216960, Tempo, 750000
1, 217950, Note_on_c, 9, 49, 75
1, 217962, Note_on_c, 9, 49, 0
1, 217965, Note_on_c, 9, 36, 117
1, 218159, Note_on_c, 9, 36, 0
1, 218160, End_track
0, 0, End_of_file
