0, 0, Header, 1, 1, 480
1, 0, Start_track
1, 0, Title_t, "Drumset"
1, 0, Time_signature, 4, 2, 24, 8
1, 0, Key_signature, 0, "major"
1, 0, Tempo, 1000000
1, 0, Control_c, 9, 121, 0
1, 0, Program_c, 9, 0
1, 0, Control_c, 9, 7, 100
1, 0, Control_c, 9, 10, 64
1, 0, Control_c, 9, 91, 0
1, 0, Control_c, 9, 93, 0
1, 0, MIDI_port, 0
1, 20400, Tempo, 431655
1, 20400, Note_on_c, 9, 50, 103
1, 20400, Note_on_c, 9, 44, 65
1, 20412, Note_on_c, 9, 44, 0
1, 20459, Note_on_c, 9, 50, 0
1, 20460, Note_on_c, 9, 50, 105
1, 20639, Note_on_c, 9, 50, 0
1, 20640, Note_on_c, 9, 47, 110
1, 20640, Note_on_c, 9, 44, 73
1, 20652, Note_on_c, 9, 44, 0
1, 20879, Note_on_c, 9, 47, 0
1, 20880, Note_on_c, 9, 45, 103
1, 20880, Note_on_c, 9, 44, 84
1, 20880, Note_on_c, 9, 36, 114
1, 20892, Note_on_c, 9, 44, 0
1, 21119, Note_on_c, 9, 45, 0
1, 21119, Note_on_c, 9, 36, 0
1, 21120, Note_on_c, 9, 46, 105
1, 21120, Note_on_c, 9, 36, 110
1, 21145, Note_on_c, 9, 46, 0
1, 21359, Note_on_c, 9, 36, 0
1, 21360, Note_on_c, 9, 44, 74
1, 21372, Note_on_c, 9, 44, 0
1, 21600, Note_on_c, 9, 38, 109
1, 21600, Note_on_c, 9, 42, 84
1, 21625, Note_on_c, 9, 42, 0
1, 21840, Note_on_c, 9, 44, 82
1, 21852, Note_on_c, 9, 44, 0
1, 22079, Note_on_c, 9, 38, 0
1, 22080, Note_on_c, 9, 42, 65
1, 22105, Note_on_c, 9, 42, 0
1, 22320, Note_on_c, 9, 44, 67
1, 22320, Note_on_c, 9, 36, 108
1, 22325, Note_on_c, 9, 44, 0
1, 22439, Note_on_c, 9, 36, 0
1, 22440, Note_on_c, 9, 44, 83
1, 22445, Note_on_c, 9, 44, 0
1, 22560, Note_on_c, 9, 38, 108
1, 22560, Note_on_c, 9, 42, 81
1, 22572, Note_on_c, 9, 42, 0
1, 22799, Note_on_c, 9, 38, 0
1, 22800, Note_on_c, 9, 46, 108
1, 22800, Note_on_c, 9, 36, 107
1, 22812, Note_on_c, 9, 46, 0
1, 23039, Note_on_c, 9, 36, 0
1, 23040, Note_on_c, 9, 42, 95
1, 23040, Note_on_c, 9, 36, 110
1, 23065, Note_on_c, 9, 42, 0
1, 23279, Note_on_c, 9, 36, 0
1, 23280, Note_on_c, 9, 44, 78
1, 23292, Note_on_c, 9, 44, 0
1, 23520, Note_on_c, 9, 38, 106
1, 23520, Note_on_c, 9, 42, 75
1, 23545, Note_on_c, 9, 42, 0
1, 23760, Note_on_c, 9, 44, 83
1, 23772, Note_on_c, 9, 44, 0
1, 23999, Note_on_c, 9, 38, 0
1, 24000, Note_on_c, 9, 42, 83
1, 24025, Note_on_c, 9, 42, 0
1, 24240, Note_on_c, 9, 44, 83
1, 24240, Note_on_c, 9, 36, 114
1, 24252, Note_on_c, 9, 44, 0
1, 24479, Note_on_c, 9, 36, 0
1, 24480, Note_on_c, 9, 38, 108
1, 24480, Note_on_c, 9, 42, 83
1, 24492, Note_on_c, 9, 42, 0
1, 24719, Note_on_c, 9, 38, 0
1, 24720, Note_on_c, 9, 46, 108
1, 24720, Note_on_c, 9, 36, 115
1, 24732, Note_on_c, 9, 46, 0
1, 24959, Note_on_c, 9, 36, 0
1, 24960, Note_on_c, 9, 42, 95
1, 24960, Note_on_c, 9, 36, 110
1, 24985, Note_on_c, 9, 42, 0
1, 25199, Note_on_c, 9, 36, 0
1, 25200, Note_on_c, 9, 44, 67
1, 25212, Note_on_c, 9, 44, 0
1, 25440, Note_on_c, 9, 38, 115
1, 25440, Note_on_c, 9, 42, 87
1, 25465, Note_on_c, 9, 42, 0
1, 25680, Note_on_c, 9, 44, 78
1, 25692, Note_on_c, 9, 44, 0
1, 25919, Note_on_c, 9, 38, 0
1, 25920, Note_on_c, 9, 42, 82
1, 25945, Note_on_c, 9, 42, 0
1, 26160, Note_on_c, 9, 44, 90
1, 26160, Note_on_c, 9, 36, 115
1, 26172, Note_on_c, 9, 44, 0
1, 26399, Note_on_c, 9, 36, 0
1, 26400, Note_on_c, 9, 38, 108
1, 26400, Note_on_c, 9, 42, 70
1, 26412, Note_on_c, 9, 42, 0
1, 26639, Note_on_c, 9, 38, 0
1, 26640, Note_on_c, 9, 46, 110
1, 26640, Note_on_c, 9, 36, 110
1, 26652, Note_on_c, 9, 46, 0
1, 26879, Note_on_c, 9, 36, 0
1, 26880, Note_on_c, 9, 42, 95
1, 26880, Note_on_c, 9, 36, 110
1, 26905, Note_on_c, 9, 42, 0
1, 27119, Note_on_c, 9, 36, 0
1, 27120, Note_on_c, 9, 44, 79
1, 27132, Note_on_c, 9, 44, 0
1, 27360, Note_on_c, 9, 38, 105
1, 27360, Note_on_c, 9, 42, 86
1, 27385, Note_on_c, 9, 42, 0
1, 27600, Note_on_c, 9, 44, 82
1, 27612, Note_on_c, 9, 44, 0
1, 27839, Note_on_c, 9, 38, 0
1, 27840, Note_on_c, 9, 42, 85
1, 27865, Note_on_c, 9, 42, 0
1, 28080, Note_on_c, 9, 44, 65
1, 28080, Note_on_c, 9, 36, 108
1, 28085, Note_on_c, 9, 44, 0
1, 28199, Note_on_c, 9, 36, 0
1, 28200, Note_on_c, 9, 44, 80
1, 28205, Note_on_c, 9, 44, 0
1, 28320, Note_on_c, 9, 38, 115
1, 28320, Note_on_c, 9, 42, 68
1, 28332, Note_on_c, 9, 42, 0
1, 28559, Note_on_c, 9, 38, 0
1, 28560, Note_on_c, 9, 46, 108
1, 28560, Note_on_c, 9, 36, 112
1, 28572, Note_on_c, 9, 46, 0
1, 28799, Note_on_c, 9, 36, 0
1, 28800, Note_on_c, 9, 42, 95
1, 28800, Note_on_c, 9, 36, 110
1, 28825, Note_on_c, 9, 42, 0
1, 29039, Note_on_c, 9, 36, 0
1, 29040, Note_on_c, 9, 44, 80
1, 29052, Note_on_c, 9, 44, 0
1, 29280, Note_on_c, 9, 38, 108
1, 29280, Note_on_c, 9, 42, 71
1, 29305, Note_on_c, 9, 42, 0
1, 29520, Note_on_c, 9, 44, 65
1, 29532, Note_on_c, 9, 44, 0
1, 29759, Note_on_c, 9, 38, 0
1, 29760, Note_on_c, 9, 42, 84
1, 29785, Note_on_c, 9, 42, 0
1, 30000, Note_on_c, 9, 44, 66
1, 30000, Note_on_c, 9, 36, 115
1, 30012, Note_on_c, 9, 44, 0
1, 30239, Note_on_c, 9, 36, 0
1, 30240, Note_on_c, 9, 38, 108
1, 30240, Note_on_c, 9, 42, 83
1, 30252, Note_on_c, 9, 42, 0
1, 30479, Note_on_c, 9, 38, 0
1, 30480, Note_on_c, 9, 46, 105
1, 30480, Note_on_c, 9, 36, 106
1, 30492, Note_on_c, 9, 46, 0
1, 30719, Note_on_c, 9, 36, 0
1, 30720, Note_on_c, 9, 42, 95
1, 30720, Note_on_c, 9, 36, 110
1, 30745, Note_on_c, 9, 42, 0
1, 30959, Note_on_c, 9, 36, 0
1, 30960, Note_on_c, 9, 44, 84
1, 30972, Note_on_c, 9, 44, 0
1, 31200, Note_on_c, 9, 38, 108
1, 31200, Note_on_c, 9, 42, 67
1, 31225, Note_on_c, 9, 42, 0
1, 31440, Note_on_c, 9, 44, 81
1, 31452, Note_on_c, 9, 44, 0
1, 31679, Note_on_c, 9, 38, 0
1, 31680, Note_on_c, 9, 42, 67
1, 31705, Note_on_c, 9, 42, 0
1, 31920, Note_on_c, 9, 44, 88
1, 31920, Note_on_c, 9, 36, 110
1, 31932, Note_on_c, 9, 44, 0
1, 32159, Note_on_c, 9, 36, 0
1, 32160, Note_on_c, 9, 38, 110
1, 32160, Note_on_c, 9, 42, 68
1, 32172, Note_on_c, 9, 42, 0
1, 32399, Note_on_c, 9, 38, 0
1, 32400, Note_on_c, 9, 46, 109
1, 32400, Note_on_c, 9, 36, 113
1, 32412, Note_on_c, 9, 46, 0
1, 32639, Note_on_c, 9, 36, 0
1, 32640, Note_on_c, 9, 42, 95
1, 32640, Note_on_c, 9, 36, 110
1, 32665, Note_on_c, 9, 42, 0
1, 32879, Note_on_c, 9, 36, 0
1, 32880, Note_on_c, 9, 44, 78
1, 32892, Note_on_c, 9, 44, 0
1, 33120, Note_on_c, 9, 38, 110
1, 33120, Note_on_c, 9, 42, 70
1, 33145, Note_on_c, 9, 42, 0
1, 33360, Note_on_c, 9, 44, 69
1, 33372, Note_on_c, 9, 44, 0
1, 33599, Note_on_c, 9, 38, 0
1, 33600, Note_on_c, 9, 42, 75
1, 33625, Note_on_c, 9, 42, 0
1, 33840, Note_on_c, 9, 44, 65
1, 33840, Note_on_c, 9, 36, 110
1, 33852, Note_on_c, 9, 44, 0
1, 34079, Note_on_c, 9, 36, 0
1, 34080, Note_on_c, 9, 38, 111
1, 34080, Note_on_c, 9, 42, 75
1, 34092, Note_on_c, 9, 42, 0
1, 34319, Note_on_c, 9, 38, 0
1, 34320, Note_on_c, 9, 46, 109
1, 34320, Note_on_c, 9, 36, 107
1, 34332, Note_on_c, 9, 46, 0
1, 34559, Note_on_c, 9, 36, 0
1, 34560, Note_on_c, 9, 42, 95
1, 34560, Note_on_c, 9, 36, 110
1, 34585, Note_on_c, 9, 42, 0
1, 34799, Note_on_c, 9, 36, 0
1, 34800, Note_on_c, 9, 44, 65
1, 34812, Note_on_c, 9, 44, 0
1, 35040, Note_on_c, 9, 38, 113
1, 35040, Note_on_c, 9, 42, 83
1, 35065, Note_on_c, 9, 42, 0
1, 35280, Note_on_c, 9, 44, 72
1, 35292, Note_on_c, 9, 44, 0
1, 35519, Note_on_c, 9, 38, 0
1, 35520, Note_on_c, 9, 42, 84
1, 35545, Note_on_c, 9, 42, 0
1, 35760, Note_on_c, 9, 44, 71
1, 35760, Note_on_c, 9, 36, 109
1, 35772, Note_on_c, 9, 44, 0
1, 35999, Note_on_c, 9, 36, 0
1, 36000, Note_on_c, 9, 38, 110
1, 36000, Note_on_c, 9, 42, 67
1, 36012, Note_on_c, 9, 42, 0
1, 36239, Note_on_c, 9, 38, 0
1, 36240, Note_on_c, 9, 46, 105
1, 36240, Note_on_c, 9, 36, 114
1, 36252, Note_on_c, 9, 46, 0
1, 36479, Note_on_c, 9, 36, 0
1, 36480, Note_on_c, 9, 42, 95
1, 36480, Note_on_c, 9, 36, 110
1, 36505, Note_on_c, 9, 42, 0
1, 36719, Note_on_c, 9, 36, 0
1, 36720, Note_on_c, 9, 44, 66
1, 36732, Note_on_c, 9, 44, 0
1, 36960, Note_on_c, 9, 38, 114
1, 36960, Note_on_c, 9, 42, 75
1, 36972, Note_on_c, 9, 42, 0
1, 37199, Note_on_c, 9, 38, 0
1, 37200, Note_on_c, 9, 46, 109
1, 37200, Note_on_c, 9, 55, 53
1, 37212, Note_on_c, 9, 46, 0
1, 37212, Note_on_c, 9, 55, 0
1, 37680, Note_on_c, 9, 42, 71
1, 37680, Note_on_c, 9, 36, 105
1, 37692, Note_on_c, 9, 42, 0
1, 37919, Note_on_c, 9, 36, 0
1, 37920, Note_on_c, 9, 38, 112
1, 37920, Note_on_c, 9, 42, 90
1, 37945, Note_on_c, 9, 42, 0
1, 38160, Note_on_c, 9, 36, 109
1, 38399, Note_on_c, 9, 38, 0
1, 38399, Note_on_c, 9, 36, 0
1, 38400, Note_on_c, 9, 42, 95
1, 38412, Note_on_c, 9, 42, 0
1, 38640, Note_on_c, 9, 42, 76
1, 38652, Note_on_c, 9, 42, 0
1, 38880, Note_on_c, 9, 38, 109
1, 38880, Note_on_c, 9, 46, 112
1, 38892, Note_on_c, 9, 46, 0
1, 39119, Note_on_c, 9, 38, 0
1, 39120, Note_on_c, 9, 42, 65
1, 39132, Note_on_c, 9, 42, 0
1, 39360, Note_on_c, 9, 46, 110
1, 39385, Note_on_c, 9, 46, 0
1, 39600, Note_on_c, 9, 36, 111
1, 39839, Note_on_c, 9, 36, 0
1, 39840, Note_on_c, 9, 38, 109
1, 39840, Note_on_c, 9, 46, 107
1, 39840, Note_on_c, 9, 55, 72
1, 39865, Note_on_c, 9, 46, 0
1, 39865, Note_on_c, 9, 55, 0
1, 40319, Note_on_c, 9, 38, 0
1, 40320, Note_on_c, 9, 42, 95
1, 40345, Note_on_c, 9, 42, 0
1, 40560, Note_on_c, 9, 44, 80
1, 40572, Note_on_c, 9, 44, 0
1, 40800, Note_on_c, 9, 38, 108
1, 40800, Note_on_c, 9, 42, 66
1, 40825, Note_on_c, 9, 42, 0
1, 41040, Note_on_c, 9, 44, 81
1, 41052, Note_on_c, 9, 44, 0
1, 41279, Note_on_c, 9, 38, 0
1, 41280, Note_on_c, 9, 42, 88
1, 41305, Note_on_c, 9, 42, 0
1, 41520, Note_on_c, 9, 36, 111
1, 41759, Note_on_c, 9, 36, 0
1, 41760, Note_on_c, 9, 38, 115
1, 41760, Note_on_c, 9, 42, 89
1, 41772, Note_on_c, 9, 42, 0
1, 41999, Note_on_c, 9, 38, 0
1, 42000, Note_on_c, 9, 46, 108
1, 42000, Note_on_c, 9, 36, 114
1, 42012, Note_on_c, 9, 46, 0
1, 42239, Note_on_c, 9, 36, 0
1, 42240, Note_on_c, 9, 42, 95
1, 42240, Note_on_c, 9, 36, 110
1, 42265, Note_on_c, 9, 42, 0
1, 42479, Note_on_c, 9, 36, 0
1, 42480, Note_on_c, 9, 44, 77
1, 42492, Note_on_c, 9, 44, 0
1, 42720, Note_on_c, 9, 38, 106
1, 42720, Note_on_c, 9, 42, 84
1, 42745, Note_on_c, 9, 42, 0
1, 42960, Note_on_c, 9, 44, 84
1, 42972, Note_on_c, 9, 44, 0
1, 43199, Note_on_c, 9, 38, 0
1, 43200, Note_on_c, 9, 42, 74
1, 43225, Note_on_c, 9, 42, 0
1, 43440, Note_on_c, 9, 36, 115
1, 43679, Note_on_c, 9, 36, 0
1, 43680, Note_on_c, 9, 38, 109
1, 43680, Note_on_c, 9, 42, 74
1, 43692, Note_on_c, 9, 42, 0
1, 43919, Note_on_c, 9, 38, 0
1, 43920, Note_on_c, 9, 46, 106
1, 43920, Note_on_c, 9, 36, 110
1, 43932, Note_on_c, 9, 46, 0
1, 44159, Note_on_c, 9, 36, 0
1, 44160, Note_on_c, 9, 42, 95
1, 44160, Note_on_c, 9, 36, 110
1, 44185, Note_on_c, 9, 42, 0
1, 44399, Note_on_c, 9, 36, 0
1, 44400, Note_on_c, 9, 44, 65
1, 44412, Note_on_c, 9, 44, 0
1, 44640, Note_on_c, 9, 38, 114
1, 44640, Note_on_c, 9, 42, 65
1, 44652, Note_on_c, 9, 42, 0
1, 44879, Note_on_c, 9, 38, 0
1, 44880, Note_on_c, 9, 46, 108
1, 44880, Note_on_c, 9, 55, 78
1, 44892, Note_on_c, 9, 46, 0
1, 44892, Note_on_c, 9, 55, 0
1, 45360, Note_on_c, 9, 42, 90
1, 45360, Note_on_c, 9, 36, 109
1, 45372, Note_on_c, 9, 42, 0
1, 45599, Note_on_c, 9, 36, 0
1, 45600, Note_on_c, 9, 38, 108
1, 45600, Note_on_c, 9, 42, 84
1, 45625, Note_on_c, 9, 42, 0
1, 45840, Note_on_c, 9, 36, 108
1, 46079, Note_on_c, 9, 38, 0
1, 46079, Note_on_c, 9, 36, 0
1, 46080, Note_on_c, 9, 42, 95
1, 46092, Note_on_c, 9, 42, 0
1, 46320, Note_on_c, 9, 42, 80
1, 46332, Note_on_c, 9, 42, 0
1, 46560, Note_on_c, 9, 38, 105
1, 46560, Note_on_c, 9, 46, 112
1, 46572, Note_on_c, 9, 46, 0
1, 46799, Note_on_c, 9, 38, 0
1, 46800, Note_on_c, 9, 42, 67
1, 46812, Note_on_c, 9, 42, 0
1, 47040, Note_on_c, 9, 46, 109
1, 47065, Note_on_c, 9, 46, 0
1, 47280, Note_on_c, 9, 36, 108
1, 47519, Note_on_c, 9, 36, 0
1, 47520, Note_on_c, 9, 38, 114
1, 47520, Note_on_c, 9, 46, 109
1, 47520, Note_on_c, 9, 55, 77
1, 47545, Note_on_c, 9, 46, 0
1, 47545, Note_on_c, 9, 55, 0
1, 47999, Note_on_c, 9, 38, 0
1, 48000, Note_on_c, 9, 42, 95
1, 48025, Note_on_c, 9, 42, 0
1, 48240, Note_on_c, 9, 44, 66
1, 48252, Note_on_c, 9, 44, 0
1, 48480, Note_on_c, 9, 38, 108
1, 48480, Note_on_c, 9, 42, 71
1, 48505, Note_on_c, 9, 42, 0
1, 48720, Note_on_c, 9, 44, 87
1, 48732, Note_on_c, 9, 44, 0
1, 48959, Note_on_c, 9, 38, 0
1, 48960, Note_on_c, 9, 42, 79
1, 48985, Note_on_c, 9, 42, 0
1, 49200, Note_on_c, 9, 44, 80
1, 49200, Note_on_c, 9, 36, 110
1, 49212, Note_on_c, 9, 44, 0
1, 49439, Note_on_c, 9, 36, 0
1, 49440, Note_on_c, 9, 38, 114
1, 49440, Note_on_c, 9, 42, 72
1, 49452, Note_on_c, 9, 42, 0
1, 49679, Note_on_c, 9, 38, 0
1, 49680, Note_on_c, 9, 46, 108
1, 49680, Note_on_c, 9, 36, 105
1, 49692, Note_on_c, 9, 46, 0
1, 49919, Note_on_c, 9, 36, 0
1, 49920, Note_on_c, 9, 42, 95
1, 49920, Note_on_c, 9, 36, 110
1, 49945, Note_on_c, 9, 42, 0
1, 50159, Note_on_c, 9, 36, 0
1, 50160, Note_on_c, 9, 44, 81
1, 50172, Note_on_c, 9, 44, 0
1, 50400, Note_on_c, 9, 38, 106
1, 50400, Note_on_c, 9, 42, 74
1, 50425, Note_on_c, 9, 42, 0
1, 50640, Note_on_c, 9, 44, 74
1, 50652, Note_on_c, 9, 44, 0
1, 50879, Note_on_c, 9, 38, 0
1, 50880, Note_on_c, 9, 42, 71
1, 50905, Note_on_c, 9, 42, 0
1, 51120, Note_on_c, 9, 44, 84
1, 51120, Note_on_c, 9, 36, 114
1, 51132, Note_on_c, 9, 44, 0
1, 51359, Note_on_c, 9, 36, 0
1, 51360, Note_on_c, 9, 38, 110
1, 51360, Note_on_c, 9, 46, 105
1, 51360, Note_on_c, 9, 42, 67
1, 51385, Note_on_c, 9, 46, 0
1, 51385, Note_on_c, 9, 42, 0
1, 51600, Note_on_c, 9, 36, 115
1, 51839, Note_on_c, 9, 38, 0
1, 51839, Note_on_c, 9, 36, 0
1, 51840, Note_on_c, 9, 42, 95
1, 51840, Note_on_c, 9, 36, 110
1, 51865, Note_on_c, 9, 42, 0
1, 52079, Note_on_c, 9, 36, 0
1, 52080, Note_on_c, 9, 44, 90
1, 52092, Note_on_c, 9, 44, 0
1, 52320, Note_on_c, 9, 38, 115
1, 52320, Note_on_c, 9, 46, 112
1, 52332, Note_on_c, 9, 46, 0
1, 52559, Note_on_c, 9, 38, 0
1, 52560, Note_on_c, 9, 42, 73
1, 52572, Note_on_c, 9, 42, 0
1, 52800, Note_on_c, 9, 46, 105
1, 52812, Note_on_c, 9, 46, 0
1, 53040, Note_on_c, 9, 42, 72
1, 53040, Note_on_c, 9, 36, 108
1, 53052, Note_on_c, 9, 42, 0
1, 53279, Note_on_c, 9, 36, 0
1, 53280, Note_on_c, 9, 38, 108
1, 53280, Note_on_c, 9, 46, 108
1, 53305, Note_on_c, 9, 46, 0
1, 53520, Note_on_c, 9, 36, 113
1, 53759, Note_on_c, 9, 38, 0
1, 53759, Note_on_c, 9, 36, 0
1, 53760, Note_on_c, 9, 42, 95
1, 53760, Note_on_c, 9, 36, 110
1, 53772, Note_on_c, 9, 42, 0
1, 54000, Note_on_c, 9, 42, 79
1, 54012, Note_on_c, 9, 42, 0
1, 54239, Note_on_c, 9, 36, 0
1, 54240, Note_on_c, 9, 38, 111
1, 54240, Note_on_c, 9, 42, 67
1, 54252, Note_on_c, 9, 42, 0
1, 54479, Note_on_c, 9, 38, 0
1, 54480, Note_on_c, 9, 42, 78
1, 54492, Note_on_c, 9, 42, 0
1, 54720, Note_on_c, 9, 46, 107
1, 54732, Note_on_c, 9, 46, 0
1, 54960, Note_on_c, 9, 42, 72
1, 54972, Note_on_c, 9, 42, 0
1, 55200, Note_on_c, 9, 38, 105
1, 55200, Note_on_c, 9, 46, 105
1, 55225, Note_on_c, 9, 46, 0
1, 55440, Note_on_c, 9, 36, 112
1, 55679, Note_on_c, 9, 38, 0
1, 55679, Note_on_c, 9, 36, 0
1, 55680, Note_on_c, 9, 42, 95
1, 55680, Note_on_c, 9, 36, 110
1, 55692, Note_on_c, 9, 42, 0
1, 55920, Note_on_c, 9, 42, 74
1, 55932, Note_on_c, 9, 42, 0
1, 56159, Note_on_c, 9, 36, 0
1, 56160, Note_on_c, 9, 38, 111
1, 56160, Note_on_c, 9, 42, 79
1, 56172, Note_on_c, 9, 42, 0
1, 56399, Note_on_c, 9, 38, 0
1, 56400, Note_on_c, 9, 42, 88
1, 56412, Note_on_c, 9, 42, 0
1, 56640, Note_on_c, 9, 42, 69
1, 56665, Note_on_c, 9, 42, 0
1, 56880, Note_on_c, 9, 36, 115
1, 57119, Note_on_c, 9, 36, 0
1, 57120, Note_on_c, 9, 38, 114
1, 57120, Note_on_c, 9, 42, 79
1, 57145, Note_on_c, 9, 42, 0
1, 57599, Note_on_c, 9, 38, 0
1, 57600, Note_on_c, 9, 46, 109
1, 57625, Note_on_c, 9, 46, 0
1, 58560, Note_on_c, 9, 42, 71
1, 58585, Note_on_c, 9, 42, 0
1, 59040, Note_on_c, 9, 38, 115
1, 59040, Note_on_c, 9, 46, 109
1, 59040, Note_on_c, 9, 55, 51
1, 59040, Note_on_c, 9, 36, 114
1, 59065, Note_on_c, 9, 46, 0
1, 59065, Note_on_c, 9, 55, 0
1, 59519, Note_on_c, 9, 38, 0
1, 59519, Note_on_c, 9, 36, 0
1, 59520, Note_on_c, 9, 42, 95
1, 59545, Note_on_c, 9, 42, 0
1, 60000, Note_on_c, 9, 38, 105
1, 60000, Note_on_c, 9, 42, 89
1, 60025, Note_on_c, 9, 42, 0
1, 60240, Note_on_c, 9, 44, 72
1, 60252, Note_on_c, 9, 44, 0
1, 60479, Note_on_c, 9, 38, 0
1, 60480, Note_on_c, 9, 42, 88
1, 60505, Note_on_c, 9, 42, 0
1, 60720, Note_on_c, 9, 44, 86
1, 60720, Note_on_c, 9, 36, 106
1, 60725, Note_on_c, 9, 44, 0
1, 60839, Note_on_c, 9, 36, 0
1, 60840, Note_on_c, 9, 44, 70
1, 60845, Note_on_c, 9, 44, 0
1, 60960, Note_on_c, 9, 38, 115
1, 60960, Note_on_c, 9, 42, 90
1, 60972, Note_on_c, 9, 42, 0
1, 61199, Note_on_c, 9, 38, 0
1, 61200, Note_on_c, 9, 46, 105
1, 61200, Note_on_c, 9, 36, 112
1, 61212, Note_on_c, 9, 46, 0
1, 61439, Note_on_c, 9, 36, 0
1, 61440, Note_on_c, 9, 42, 95
1, 61465, Note_on_c, 9, 42, 0
1, 61680, Note_on_c, 9, 44, 69
1, 61692, Note_on_c, 9, 44, 0
1, 61920, Note_on_c, 9, 38, 105
1, 61920, Note_on_c, 9, 42, 88
1, 61945, Note_on_c, 9, 42, 0
1, 62160, Note_on_c, 9, 44, 66
1, 62172, Note_on_c, 9, 44, 0
1, 62399, Note_on_c, 9, 38, 0
1, 62400, Note_on_c, 9, 42, 89
1, 62425, Note_on_c, 9, 42, 0
1, 62640, Note_on_c, 9, 44, 68
1, 62640, Note_on_c, 9, 36, 106
1, 62652, Note_on_c, 9, 44, 0
1, 62879, Note_on_c, 9, 36, 0
1, 62880, Note_on_c, 9, 38, 105
1, 62880, Note_on_c, 9, 42, 85
1, 62892, Note_on_c, 9, 42, 0
1, 63119, Note_on_c, 9, 38, 0
1, 63120, Note_on_c, 9, 46, 110
1, 63120, Note_on_c, 9, 36, 115
1, 63132, Note_on_c, 9, 46, 0
1, 63359, Note_on_c, 9, 36, 0
1, 63360, Note_on_c, 9, 42, 95
1, 63360, Note_on_c, 9, 36, 110
1, 63385, Note_on_c, 9, 42, 0
1, 63599, Note_on_c, 9, 36, 0
1, 63600, Note_on_c, 9, 44, 80
1, 63612, Note_on_c, 9, 44, 0
1, 63840, Note_on_c, 9, 38, 108
1, 63840, Note_on_c, 9, 42, 66
1, 63852, Note_on_c, 9, 42, 0
1, 64079, Note_on_c, 9, 38, 0
1, 64080, Note_on_c, 9, 46, 108
1, 64080, Note_on_c, 9, 55, 51
1, 64092, Note_on_c, 9, 46, 0
1, 64092, Note_on_c, 9, 55, 0
1, 64560, Note_on_c, 9, 42, 67
1, 64560, Note_on_c, 9, 36, 115
1, 64572, Note_on_c, 9, 42, 0
1, 64799, Note_on_c, 9, 36, 0
1, 64800, Note_on_c, 9, 38, 113
1, 64800, Note_on_c, 9, 42, 79
1, 64825, Note_on_c, 9, 42, 0
1, 65040, Note_on_c, 9, 36, 109
1, 65279, Note_on_c, 9, 38, 0
1, 65279, Note_on_c, 9, 36, 0
1, 65280, Note_on_c, 9, 42, 95
1, 65292, Note_on_c, 9, 42, 0
1, 65520, Note_on_c, 9, 42, 73
1, 65532, Note_on_c, 9, 42, 0
1, 65760, Note_on_c, 9, 38, 110
1, 65760, Note_on_c, 9, 46, 112
1, 65772, Note_on_c, 9, 46, 0
1, 65999, Note_on_c, 9, 38, 0
1, 66000, Note_on_c, 9, 42, 69
1, 66012, Note_on_c, 9, 42, 0
1, 66240, Note_on_c, 9, 46, 105
1, 66265, Note_on_c, 9, 46, 0
1, 66480, Note_on_c, 9, 36, 110
1, 66719, Note_on_c, 9, 36, 0
1, 66720, Note_on_c, 9, 38, 113
1, 66720, Note_on_c, 9, 46, 105
1, 66720, Note_on_c, 9, 55, 74
1, 66745, Note_on_c, 9, 46, 0
1, 66745, Note_on_c, 9, 55, 0
1, 67199, Note_on_c, 9, 38, 0
1, 67200, Note_on_c, 9, 42, 95
1, 67225, Note_on_c, 9, 42, 0
1, 67440, Note_on_c, 9, 44, 74
1, 67452, Note_on_c, 9, 44, 0
1, 67680, Note_on_c, 9, 38, 106
1, 67680, Note_on_c, 9, 42, 77
1, 67705, Note_on_c, 9, 42, 0
1, 67920, Note_on_c, 9, 44, 90
1, 67932, Note_on_c, 9, 44, 0
1, 68159, Note_on_c, 9, 38, 0
1, 68160, Note_on_c, 9, 42, 90
1, 68185, Note_on_c, 9, 42, 0
1, 68400, Note_on_c, 9, 36, 112
1, 68639, Note_on_c, 9, 36, 0
1, 68640, Note_on_c, 9, 38, 113
1, 68640, Note_on_c, 9, 42, 69
1, 68652, Note_on_c, 9, 42, 0
1, 68879, Note_on_c, 9, 38, 0
1, 68880, Note_on_c, 9, 46, 106
1, 68880, Note_on_c, 9, 36, 106
1, 68892, Note_on_c, 9, 46, 0
1, 69119, Note_on_c, 9, 36, 0
1, 69120, Note_on_c, 9, 42, 95
1, 69120, Note_on_c, 9, 36, 110
1, 69145, Note_on_c, 9, 42, 0
1, 69359, Note_on_c, 9, 36, 0
1, 69360, Note_on_c, 9, 44, 68
1, 69372, Note_on_c, 9, 44, 0
1, 69600, Note_on_c, 9, 38, 109
1, 69600, Note_on_c, 9, 42, 72
1, 69625, Note_on_c, 9, 42, 0
1, 69840, Note_on_c, 9, 44, 78
1, 69852, Note_on_c, 9, 44, 0
1, 70079, Note_on_c, 9, 38, 0
1, 70080, Note_on_c, 9, 42, 79
1, 70105, Note_on_c, 9, 42, 0
1, 70320, Note_on_c, 9, 36, 114
1, 70559, Note_on_c, 9, 36, 0
1, 70560, Note_on_c, 9, 38, 113
1, 70560, Note_on_c, 9, 42, 80
1, 70572, Note_on_c, 9, 42, 0
1, 70799, Note_on_c, 9, 38, 0
1, 70800, Note_on_c, 9, 46, 108
1, 70800, Note_on_c, 9, 36, 109
1, 70812, Note_on_c, 9, 46, 0
1, 71039, Note_on_c, 9, 36, 0
1, 71040, Note_on_c, 9, 42, 95
1, 71040, Note_on_c, 9, 36, 110
1, 71065, Note_on_c, 9, 42, 0
1, 71279, Note_on_c, 9, 36, 0
1, 71280, Note_on_c, 9, 44, 89
1, 71292, Note_on_c, 9, 44, 0
1, 71520, Note_on_c, 9, 38, 114
1, 71520, Note_on_c, 9, 42, 81
1, 71532, Note_on_c, 9, 42, 0
1, 71759, Note_on_c, 9, 38, 0
1, 71760, Note_on_c, 9, 46, 109
1, 71760, Note_on_c, 9, 55, 80
1, 71772, Note_on_c, 9, 46, 0
1, 71772, Note_on_c, 9, 55, 0
1, 72240, Note_on_c, 9, 42, 65
1, 72240, Note_on_c, 9, 36, 105
1, 72252, Note_on_c, 9, 42, 0
1, 72479, Note_on_c, 9, 36, 0
1, 72480, Note_on_c, 9, 38, 107
1, 72480, Note_on_c, 9, 42, 90
1, 72505, Note_on_c, 9, 42, 0
1, 72720, Note_on_c, 9, 36, 115
1, 72959, Note_on_c, 9, 38, 0
1, 72959, Note_on_c, 9, 36, 0
1, 72960, Note_on_c, 9, 42, 95
1, 72972, Note_on_c, 9, 42, 0
1, 73200, Note_on_c, 9, 42, 76
1, 73212, Note_on_c, 9, 42, 0
1, 73440, Note_on_c, 9, 38, 113
1, 73440, Note_on_c, 9, 46, 112
1, 73452, Note_on_c, 9, 46, 0
1, 73679, Note_on_c, 9, 38, 0
1, 73680, Note_on_c, 9, 42, 83
1, 73692, Note_on_c, 9, 42, 0
1, 73920, Note_on_c, 9, 46, 110
1, 73945, Note_on_c, 9, 46, 0
1, 74160, Note_on_c, 9, 36, 113
1, 74399, Note_on_c, 9, 36, 0
1, 74400, Note_on_c, 9, 38, 108
1, 74400, Note_on_c, 9, 46, 107
1, 74400, Note_on_c, 9, 55, 53
1, 74425, Note_on_c, 9, 46, 0
1, 74425, Note_on_c, 9, 55, 0
1, 74879, Note_on_c, 9, 38, 0
1, 74880, Note_on_c, 9, 42, 95
1, 74905, Note_on_c, 9, 42, 0
1, 75120, Note_on_c, 9, 44, 76
1, 75132, Note_on_c, 9, 44, 0
1, 75360, Note_on_c, 9, 38, 114
1, 75360, Note_on_c, 9, 42, 84
1, 75385, Note_on_c, 9, 42, 0
1, 75600, Note_on_c, 9, 44, 67
1, 75612, Note_on_c, 9, 44, 0
1, 75839, Note_on_c, 9, 38, 0
1, 75840, Note_on_c, 9, 42, 79
1, 75865, Note_on_c, 9, 42, 0
1, 76080, Note_on_c, 9, 44, 90
1, 76080, Note_on_c, 9, 36, 114
1, 76092, Note_on_c, 9, 44, 0
1, 76319, Note_on_c, 9, 36, 0
1, 76320, Note_on_c, 9, 38, 112
1, 76320, Note_on_c, 9, 42, 80
1, 76332, Note_on_c, 9, 42, 0
1, 76559, Note_on_c, 9, 38, 0
1, 76560, Note_on_c, 9, 46, 109
1, 76560, Note_on_c, 9, 36, 111
1, 76572, Note_on_c, 9, 46, 0
1, 76799, Note_on_c, 9, 36, 0
1, 76800, Note_on_c, 9, 42, 95
1, 76800, Note_on_c, 9, 36, 110
1, 76825, Note_on_c, 9, 42, 0
1, 77039, Note_on_c, 9, 36, 0
1, 77040, Note_on_c, 9, 44, 83
1, 77052, Note_on_c, 9, 44, 0
1, 77280, Note_on_c, 9, 38, 110
1, 77280, Note_on_c, 9, 42, 80
1, 77305, Note_on_c, 9, 42, 0
1, 77520, Note_on_c, 9, 44, 65
1, 77532, Note_on_c, 9, 44, 0
1, 77759, Note_on_c, 9, 38, 0
1, 77760, Note_on_c, 9, 42, 82
1, 77785, Note_on_c, 9, 42, 0
1, 78000, Note_on_c, 9, 44, 87
1, 78000, Note_on_c, 9, 36, 106
1, 78012, Note_on_c, 9, 44, 0
1, 78239, Note_on_c, 9, 36, 0
1, 78240, Note_on_c, 9, 38, 115
1, 78240, Note_on_c, 9, 46, 106
1, 78240, Note_on_c, 9, 42, 74
1, 78265, Note_on_c, 9, 46, 0
1, 78265, Note_on_c, 9, 42, 0
1, 78480, Note_on_c, 9, 36, 114
1, 78719, Note_on_c, 9, 38, 0
1, 78719, Note_on_c, 9, 36, 0
1, 78720, Note_on_c, 9, 42, 95
1, 78720, Note_on_c, 9, 36, 110
1, 78745, Note_on_c, 9, 42, 0
1, 78959, Note_on_c, 9, 36, 0
1, 78960, Note_on_c, 9, 44, 89
1, 78972, Note_on_c, 9, 44, 0
1, 79200, Note_on_c, 9, 38, 105
1, 79200, Note_on_c, 9, 46, 112
1, 79212, Note_on_c, 9, 46, 0
1, 79439, Note_on_c, 9, 38, 0
1, 79440, Note_on_c, 9, 42, 68
1, 79452, Note_on_c, 9, 42, 0
1, 79680, Note_on_c, 9, 46, 108
1, 79692, Note_on_c, 9, 46, 0
1, 79920, Note_on_c, 9, 42, 70
1, 79920, Note_on_c, 9, 36, 112
1, 79932, Note_on_c, 9, 42, 0
1, 80159, Note_on_c, 9, 36, 0
1, 80160, Note_on_c, 9, 38, 105
1, 80160, Note_on_c, 9, 46, 105
1, 80185, Note_on_c, 9, 46, 0
1, 80400, Note_on_c, 9, 36, 107
1, 80639, Note_on_c, 9, 38, 0
1, 80639, Note_on_c, 9, 36, 0
1, 80640, Note_on_c, 9, 42, 95
1, 80640, Note_on_c, 9, 36, 110
1, 80652, Note_on_c, 9, 42, 0
1, 80880, Note_on_c, 9, 42, 83
1, 80892, Note_on_c, 9, 42, 0
1, 81119, Note_on_c, 9, 36, 0
1, 81120, Note_on_c, 9, 38, 110
1, 81120, Note_on_c, 9, 42, 90
1, 81132, Note_on_c, 9, 42, 0
1, 81359, Note_on_c, 9, 38, 0
1, 81360, Note_on_c, 9, 42, 81
1, 81372, Note_on_c, 9, 42, 0
1, 81600, Note_on_c, 9, 46, 110
1, 81612, Note_on_c, 9, 46, 0
1, 81840, Note_on_c, 9, 42, 84
1, 81852, Note_on_c, 9, 42, 0
1, 82080, Note_on_c, 9, 38, 113
1, 82080, Note_on_c, 9, 46, 109
1, 82105, Note_on_c, 9, 46, 0
1, 82320, Note_on_c, 9, 36, 112
1, 82559, Note_on_c, 9, 38, 0
1, 82559, Note_on_c, 9, 36, 0
1, 82560, Note_on_c, 9, 42, 95
1, 82560, Note_on_c, 9, 36, 110
1, 82572, Note_on_c, 9, 42, 0
1, 82800, Note_on_c, 9, 42, 80
1, 82812, Note_on_c, 9, 42, 0
1, 83039, Note_on_c, 9, 36, 0
1, 83040, Note_on_c, 9, 38, 111
1, 83040, Note_on_c, 9, 42, 68
1, 83052, Note_on_c, 9, 42, 0
1, 83279, Note_on_c, 9, 38, 0
1, 83280, Note_on_c, 9, 42, 75
1, 83292, Note_on_c, 9, 42, 0
1, 83520, Note_on_c, 9, 42, 68
1, 83545, Note_on_c, 9, 42, 0
1, 83760, Note_on_c, 9, 36, 112
1, 83999, Note_on_c, 9, 36, 0
1, 84000, Note_on_c, 9, 38, 112
1, 84000, Note_on_c, 9, 42, 66
1, 84025, Note_on_c, 9, 42, 0
1, 84479, Note_on_c, 9, 38, 0
1, 84480, Note_on_c, 9, 46, 108
1, 84505, Note_on_c, 9, 46, 0
1, 85440, Note_on_c, 9, 42, 77
1, 85465, Note_on_c, 9, 42, 0
1, 85920, Note_on_c, 9, 38, 114
1, 85920, Note_on_c, 9, 46, 108
1, 85920, Note_on_c, 9, 55, 60
1, 85920, Note_on_c, 9, 36, 109
1, 85945, Note_on_c, 9, 46, 0
1, 85945, Note_on_c, 9, 55, 0
1, 86399, Note_on_c, 9, 38, 0
1, 86399, Note_on_c, 9, 36, 0
1, 86400, Note_on_c, 9, 42, 95
1, 86425, Note_on_c, 9, 42, 0
1, 86880, Note_on_c, 9, 38, 107
1, 86880, Note_on_c, 9, 42, 83
1, 86905, Note_on_c, 9, 42, 0
1, 87120, Note_on_c, 9, 44, 83
1, 87132, Note_on_c, 9, 44, 0
1, 87359, Note_on_c, 9, 38, 0
1, 87360, Note_on_c, 9, 42, 80
1, 87385, Note_on_c, 9, 42, 0
1, 87600, Note_on_c, 9, 44, 70
1, 87600, Note_on_c, 9, 36, 105
1, 87605, Note_on_c, 9, 44, 0
1, 87719, Note_on_c, 9, 36, 0
1, 87720, Note_on_c, 9, 44, 75
1, 87725, Note_on_c, 9, 44, 0
1, 87840, Note_on_c, 9, 38, 114
1, 87840, Note_on_c, 9, 42, 84
1, 87852, Note_on_c, 9, 42, 0
1, 88079, Note_on_c, 9, 38, 0
1, 88080, Note_on_c, 9, 46, 105
1, 88080, Note_on_c, 9, 36, 105
1, 88092, Note_on_c, 9, 46, 0
1, 88319, Note_on_c, 9, 36, 0
1, 88320, Note_on_c, 9, 42, 95
1, 88345, Note_on_c, 9, 42, 0
1, 88560, Note_on_c, 9, 44, 90
1, 88572, Note_on_c, 9, 44, 0
1, 88800, Note_on_c, 9, 38, 115
1, 88800, Note_on_c, 9, 42, 73
1, 88825, Note_on_c, 9, 42, 0
1, 89040, Note_on_c, 9, 44, 80
1, 89052, Note_on_c, 9, 44, 0
1, 89279, Note_on_c, 9, 38, 0
1, 89280, Note_on_c, 9, 50, 103
1, 89280, Note_on_c, 9, 42, 68
1, 89285, Note_on_c, 9, 42, 0
1, 89399, Note_on_c, 9, 50, 0
1, 89400, Note_on_c, 9, 50, 105
1, 89519, Note_on_c, 9, 50, 0
1, 89520, Note_on_c, 9, 47, 101
1, 89520, Note_on_c, 9, 44, 78
1, 89532, Note_on_c, 9, 44, 0
1, 89639, Note_on_c, 9, 47, 0
1, 89640, Note_on_c, 9, 50, 98
1, 89759, Note_on_c, 9, 50, 0
1, 89760, Note_on_c, 9, 47, 95
1, 89760, Note_on_c, 9, 44, 82
1, 89772, Note_on_c, 9, 44, 0
1, 89999, Note_on_c, 9, 47, 0
1, 90000, Note_on_c, 9, 45, 98
1, 90000, Note_on_c, 9, 44, 73
1, 90000, Note_on_c, 9, 36, 110
1, 90012, Note_on_c, 9, 44, 0
1, 90239, Note_on_c, 9, 45, 0
1, 90239, Note_on_c, 9, 36, 0
1, 90240, Note_on_c, 9, 46, 107
1, 90240, Note_on_c, 9, 36, 110
1, 90265, Note_on_c, 9, 46, 0
1, 90479, Note_on_c, 9, 36, 0
1, 90480, Note_on_c, 9, 44, 73
1, 90492, Note_on_c, 9, 44, 0
1, 90720, Note_on_c, 9, 38, 115
1, 90720, Note_on_c, 9, 42, 83
1, 90745, Note_on_c, 9, 42, 0
1, 90960, Note_on_c, 9, 44, 79
1, 90972, Note_on_c, 9, 44, 0
1, 91199, Note_on_c, 9, 38, 0
1, 91200, Note_on_c, 9, 42, 80
1, 91225, Note_on_c, 9, 42, 0
1, 91440, Note_on_c, 9, 44, 89
1, 91440, Note_on_c, 9, 36, 108
1, 91445, Note_on_c, 9, 44, 0
1, 91559, Note_on_c, 9, 36, 0
1, 91560, Note_on_c, 9, 44, 77
1, 91565, Note_on_c, 9, 44, 0
1, 91680, Note_on_c, 9, 38, 113
1, 91680, Note_on_c, 9, 42, 85
1, 91692, Note_on_c, 9, 42, 0
1, 91919, Note_on_c, 9, 38, 0
1, 91920, Note_on_c, 9, 46, 110
1, 91920, Note_on_c, 9, 36, 108
1, 91932, Note_on_c, 9, 46, 0
1, 92159, Note_on_c, 9, 36, 0
1, 92160, Note_on_c, 9, 42, 95
1, 92160, Note_on_c, 9, 36, 110
1, 92185, Note_on_c, 9, 42, 0
1, 92399, Note_on_c, 9, 36, 0
1, 92400, Note_on_c, 9, 44, 79
1, 92412, Note_on_c, 9, 44, 0
1, 92640, Note_on_c, 9, 38, 105
1, 92640, Note_on_c, 9, 42, 75
1, 92665, Note_on_c, 9, 42, 0
1, 92880, Note_on_c, 9, 44, 76
1, 92892, Note_on_c, 9, 44, 0
1, 93119, Note_on_c, 9, 38, 0
1, 93120, Note_on_c, 9, 42, 79
1, 93145, Note_on_c, 9, 42, 0
1, 93360, Note_on_c, 9, 44, 66
1, 93360, Note_on_c, 9, 36, 107
1, 93372, Note_on_c, 9, 44, 0
1, 93599, Note_on_c, 9, 36, 0
1, 93600, Note_on_c, 9, 38, 110
1, 93600, Note_on_c, 9, 42, 78
1, 93612, Note_on_c, 9, 42, 0
1, 93839, Note_on_c, 9, 38, 0
1, 93840, Note_on_c, 9, 46, 107
1, 93840, Note_on_c, 9, 36, 114
1, 93852, Note_on_c, 9, 46, 0
1, 94079, Note_on_c, 9, 36, 0
1, 94080, Note_on_c, 9, 42, 95
1, 94080, Note_on_c, 9, 36, 110
1, 94105, Note_on_c, 9, 42, 0
1, 94319, Note_on_c, 9, 36, 0
1, 94320, Note_on_c, 9, 44, 89
1, 94332, Note_on_c, 9, 44, 0
1, 94560, Note_on_c, 9, 38, 108
1, 94560, Note_on_c, 9, 42, 65
1, 94585, Note_on_c, 9, 42, 0
1, 94800, Note_on_c, 9, 44, 79
1, 94812, Note_on_c, 9, 44, 0
1, 95039, Note_on_c, 9, 38, 0
1, 95040, Note_on_c, 9, 42, 90
1, 95065, Note_on_c, 9, 42, 0
1, 95280, Note_on_c, 9, 44, 80
1, 95280, Note_on_c, 9, 36, 107
1, 95292, Note_on_c, 9, 44, 0
1, 95519, Note_on_c, 9, 36, 0
1, 95520, Note_on_c, 9, 38, 112
1, 95520, Note_on_c, 9, 42, 87
1, 95532, Note_on_c, 9, 42, 0
1, 95759, Note_on_c, 9, 38, 0
1, 95760, Note_on_c, 9, 46, 105
1, 95760, Note_on_c, 9, 36, 114
1, 95772, Note_on_c, 9, 46, 0
1, 95999, Note_on_c, 9, 36, 0
1, 96000, Note_on_c, 9, 42, 95
1, 96000, Note_on_c, 9, 36, 110
1, 96025, Note_on_c, 9, 42, 0
1, 96239, Note_on_c, 9, 36, 0
1, 96240, Note_on_c, 9, 44, 77
1, 96252, Note_on_c, 9, 44, 0
1, 96480, Note_on_c, 9, 38, 108
1, 96480, Note_on_c, 9, 42, 86
1, 96505, Note_on_c, 9, 42, 0
1, 96720, Note_on_c, 9, 44, 90
1, 96732, Note_on_c, 9, 44, 0
1, 96959, Note_on_c, 9, 38, 0
1, 96960, Note_on_c, 9, 42, 90
1, 96985, Note_on_c, 9, 42, 0
1, 97200, Note_on_c, 9, 44, 65
1, 97200, Note_on_c, 9, 36, 108
1, 97205, Note_on_c, 9, 44, 0
1, 97319, Note_on_c, 9, 36, 0
1, 97320, Note_on_c, 9, 44, 72
1, 97325, Note_on_c, 9, 44, 0
1, 97440, Note_on_c, 9, 38, 106
1, 97440, Note_on_c, 9, 42, 85
1, 97452, Note_on_c, 9, 42, 0
1, 97679, Note_on_c, 9, 38, 0
1, 97680, Note_on_c, 9, 46, 106
1, 97680, Note_on_c, 9, 36, 113
1, 97692, Note_on_c, 9, 46, 0
1, 97919, Note_on_c, 9, 36, 0
1, 97920, Note_on_c, 9, 42, 95
1, 97920, Note_on_c, 9, 36, 110
1, 97945, Note_on_c, 9, 42, 0
1, 98159, Note_on_c, 9, 36, 0
1, 98160, Note_on_c, 9, 44, 69
1, 98172, Note_on_c, 9, 44, 0
1, 98400, Note_on_c, 9, 38, 113
1, 98400, Note_on_c, 9, 42, 70
1, 98425, Note_on_c, 9, 42, 0
1, 98640, Note_on_c, 9, 44, 65
1, 98652, Note_on_c, 9, 44, 0
1, 98879, Note_on_c, 9, 38, 0
1, 98880, Note_on_c, 9, 42, 81
1, 98905, Note_on_c, 9, 42, 0
1, 99120, Note_on_c, 9, 44, 79
1, 99120, Note_on_c, 9, 36, 112
1, 99132, Note_on_c, 9, 44, 0
1, 99359, Note_on_c, 9, 36, 0
1, 99360, Note_on_c, 9, 38, 112
1, 99360, Note_on_c, 9, 42, 89
1, 99372, Note_on_c, 9, 42, 0
1, 99599, Note_on_c, 9, 38, 0
1, 99600, Note_on_c, 9, 46, 105
1, 99600, Note_on_c, 9, 36, 112
1, 99612, Note_on_c, 9, 46, 0
1, 99839, Note_on_c, 9, 36, 0
1, 99840, Note_on_c, 9, 42, 95
1, 99840, Note_on_c, 9, 36, 110
1, 99865, Note_on_c, 9, 42, 0
1, 100079, Note_on_c, 9, 36, 0
1, 100080, Note_on_c, 9, 44, 80
1, 100092, Note_on_c, 9, 44, 0
1, 100320, Note_on_c, 9, 38, 105
1, 100320, Note_on_c, 9, 42, 74
1, 100345, Note_on_c, 9, 42, 0
1, 100560, Note_on_c, 9, 44, 78
1, 100572, Note_on_c, 9, 44, 0
1, 100799, Note_on_c, 9, 38, 0
1, 100800, Note_on_c, 9, 42, 74
1, 100825, Note_on_c, 9, 42, 0
1, 101040, Note_on_c, 9, 44, 86
1, 101040, Note_on_c, 9, 36, 111
1, 101052, Note_on_c, 9, 44, 0
1, 101279, Note_on_c, 9, 36, 0
1, 101280, Note_on_c, 9, 38, 107
1, 101280, Note_on_c, 9, 42, 68
1, 101292, Note_on_c, 9, 42, 0
1, 101519, Note_on_c, 9, 38, 0
1, 101520, Note_on_c, 9, 46, 107
1, 101520, Note_on_c, 9, 36, 110
1, 101532, Note_on_c, 9, 46, 0
1, 101759, Note_on_c, 9, 36, 0
1, 101760, Note_on_c, 9, 42, 95
1, 101760, Note_on_c, 9, 36, 110
1, 101785, Note_on_c, 9, 42, 0
1, 101999, Note_on_c, 9, 36, 0
1, 102000, Note_on_c, 9, 44, 89
1, 102012, Note_on_c, 9, 44, 0
1, 102240, Note_on_c, 9, 38, 106
1, 102240, Note_on_c, 9, 42, 85
1, 102265, Note_on_c, 9, 42, 0
1, 102480, Note_on_c, 9, 44, 66
1, 102492, Note_on_c, 9, 44, 0
1, 102719, Note_on_c, 9, 38, 0
1, 102720, Note_on_c, 9, 42, 87
1, 102745, Note_on_c, 9, 42, 0
1, 102960, Note_on_c, 9, 44, 67
1, 102960, Note_on_c, 9, 36, 107
1, 102972, Note_on_c, 9, 44, 0
1, 103199, Note_on_c, 9, 36, 0
1, 103200, Note_on_c, 9, 38, 111
1, 103200, Note_on_c, 9, 42, 89
1, 103212, Note_on_c, 9, 42, 0
1, 103439, Note_on_c, 9, 38, 0
1, 103440, Note_on_c, 9, 46, 106
1, 103440, Note_on_c, 9, 36, 115
1, 103452, Note_on_c, 9, 46, 0
1, 103679, Note_on_c, 9, 36, 0
1, 103680, Note_on_c, 9, 42, 95
1, 103680, Note_on_c, 9, 36, 110
1, 103705, Note_on_c, 9, 42, 0
1, 103919, Note_on_c, 9, 36, 0
1, 103920, Note_on_c, 9, 44, 76
1, 103932, Note_on_c, 9, 44, 0
1, 104160, Note_on_c, 9, 38, 110
1, 104160, Note_on_c, 9, 42, 69
1, 104185, Note_on_c, 9, 42, 0
1, 104400, Note_on_c, 9, 44, 72
1, 104412, Note_on_c, 9, 44, 0
1, 104639, Note_on_c, 9, 38, 0
1, 104640, Note_on_c, 9, 42, 73
1, 104665, Note_on_c, 9, 42, 0
1, 104880, Note_on_c, 9, 44, 81
1, 104880, Note_on_c, 9, 36, 114
1, 104892, Note_on_c, 9, 44, 0
1, 105119, Note_on_c, 9, 36, 0
1, 105120, Note_on_c, 9, 38, 105
1, 105120, Note_on_c, 9, 42, 83
1, 105132, Note_on_c, 9, 42, 0
1, 105359, Note_on_c, 9, 38, 0
1, 105360, Note_on_c, 9, 46, 110
1, 105360, Note_on_c, 9, 36, 105
1, 105372, Note_on_c, 9, 46, 0
1, 105599, Note_on_c, 9, 36, 0
1, 105600, Note_on_c, 9, 42, 95
1, 105600, Note_on_c, 9, 36, 110
1, 105625, Note_on_c, 9, 42, 0
1, 105839, Note_on_c, 9, 36, 0
1, 105840, Note_on_c, 9, 44, 75
1, 105852, Note_on_c, 9, 44, 0
1, 106080, Note_on_c, 9, 38, 105
1, 106080, Note_on_c, 9, 42, 83
1, 106092, Note_on_c, 9, 42, 0
1, 106319, Note_on_c, 9, 38, 0
1, 106320, Note_on_c, 9, 46, 109
1, 106320, Note_on_c, 9, 55, 53
1, 106332, Note_on_c, 9, 46, 0
1, 106332, Note_on_c, 9, 55, 0
1, 106800, Note_on_c, 9, 42, 90
1, 106800, Note_on_c, 9, 36, 114
1, 106812, Note_on_c, 9, 42, 0
1, 107039, Note_on_c, 9, 36, 0
1, 107040, Note_on_c, 9, 38, 105
1, 107040, Note_on_c, 9, 42, 66
1, 107065, Note_on_c, 9, 42, 0
1, 107280, Note_on_c, 9, 36, 112
1, 107519, Note_on_c, 9, 38, 0
1, 107519, Note_on_c, 9, 36, 0
1, 107520, Note_on_c, 9, 42, 95
1, 107532, Note_on_c, 9, 42, 0
1, 107760, Note_on_c, 9, 42, 80
1, 107772, Note_on_c, 9, 42, 0
1, 108000, Note_on_c, 9, 38, 114
1, 108000, Note_on_c, 9, 46, 112
1, 108012, Note_on_c, 9, 46, 0
1, 108239, Note_on_c, 9, 38, 0
1, 108240, Note_on_c, 9, 42, 67
1, 108252, Note_on_c, 9, 42, 0
1, 108480, Note_on_c, 9, 46, 105
1, 108505, Note_on_c, 9, 46, 0
1, 108720, Note_on_c, 9, 36, 109
1, 108959, Note_on_c, 9, 36, 0
1, 108960, Note_on_c, 9, 38, 105
1, 108960, Note_on_c, 9, 46, 105
1, 108960, Note_on_c, 9, 55, 66
1, 108985, Note_on_c, 9, 46, 0
1, 108985, Note_on_c, 9, 55, 0
1, 109439, Note_on_c, 9, 38, 0
1, 109440, Note_on_c, 9, 42, 95
1, 109465, Note_on_c, 9, 42, 0
1, 109680, Note_on_c, 9, 44, 66
1, 109692, Note_on_c, 9, 44, 0
1, 109920, Note_on_c, 9, 38, 110
1, 109920, Note_on_c, 9, 42, 89
1, 109945, Note_on_c, 9, 42, 0
1, 110160, Note_on_c, 9, 44, 79
1, 110172, Note_on_c, 9, 44, 0
1, 110399, Note_on_c, 9, 38, 0
1, 110400, Note_on_c, 9, 42, 89
1, 110425, Note_on_c, 9, 42, 0
1, 110640, Note_on_c, 9, 36, 115
1, 110879, Note_on_c, 9, 36, 0
1, 110880, Note_on_c, 9, 38, 114
1, 110880, Note_on_c, 9, 42, 80
1, 110892, Note_on_c, 9, 42, 0
1, 111119, Note_on_c, 9, 38, 0
1, 111120, Note_on_c, 9, 46, 105
1, 111120, Note_on_c, 9, 36, 110
1, 111132, Note_on_c, 9, 46, 0
1, 111359, Note_on_c, 9, 36, 0
1, 111360, Note_on_c, 9, 42, 95
1, 111360, Note_on_c, 9, 36, 110
1, 111385, Note_on_c, 9, 42, 0
1, 111599, Note_on_c, 9, 36, 0
1, 111600, Note_on_c, 9, 44, 65
1, 111612, Note_on_c, 9, 44, 0
1, 111840, Note_on_c, 9, 38, 113
1, 111840, Note_on_c, 9, 42, 86
1, 111865, Note_on_c, 9, 42, 0
1, 112080, Note_on_c, 9, 44, 84
1, 112092, Note_on_c, 9, 44, 0
1, 112319, Note_on_c, 9, 38, 0
1, 112320, Note_on_c, 9, 42, 83
1, 112345, Note_on_c, 9, 42, 0
1, 112560, Note_on_c, 9, 36, 105
1, 112799, Note_on_c, 9, 36, 0
1, 112800, Note_on_c, 9, 38, 111
1, 112800, Note_on_c, 9, 42, 66
1, 112812, Note_on_c, 9, 42, 0
1, 113039, Note_on_c, 9, 38, 0
1, 113040, Note_on_c, 9, 46, 106
1, 113040, Note_on_c, 9, 36, 110
1, 113052, Note_on_c, 9, 46, 0
1, 113279, Note_on_c, 9, 36, 0
1, 113280, Note_on_c, 9, 42, 95
1, 113280, Note_on_c, 9, 36, 110
1, 113305, Note_on_c, 9, 42, 0
1, 113519, Note_on_c, 9, 36, 0
1, 113520, Note_on_c, 9, 44, 73
1, 113532, Note_on_c, 9, 44, 0
1, 113760, Note_on_c, 9, 38, 107
1, 113760, Note_on_c, 9, 42, 75
1, 113772, Note_on_c, 9, 42, 0
1, 113999, Note_on_c, 9, 38, 0
1, 114000, Note_on_c, 9, 46, 110
1, 114000, Note_on_c, 9, 55, 52
1, 114012, Note_on_c, 9, 46, 0
1, 114012, Note_on_c, 9, 55, 0
1, 114480, Note_on_c, 9, 42, 88
1, 114480, Note_on_c, 9, 36, 107
1, 114492, Note_on_c, 9, 42, 0
1, 114719, Note_on_c, 9, 36, 0
1, 114720, Note_on_c, 9, 38, 110
1, 114720, Note_on_c, 9, 42, 69
1, 114745, Note_on_c, 9, 42, 0
1, 114960, Note_on_c, 9, 36, 109
1, 115199, Note_on_c, 9, 38, 0
1, 115199, Note_on_c, 9, 36, 0
1, 115200, Note_on_c, 9, 42, 95
1, 115212, Note_on_c, 9, 42, 0
1, 115440, Note_on_c, 9, 42, 89
1, 115452, Note_on_c, 9, 42, 0
1, 115680, Note_on_c, 9, 38, 110
1, 115680, Note_on_c, 9, 46, 112
1, 115692, Note_on_c, 9, 46, 0
1, 115919, Note_on_c, 9, 38, 0
1, 115920, Note_on_c, 9, 42, 84
1, 115932, Note_on_c, 9, 42, 0
1, 116160, Note_on_c, 9, 46, 105
1, 116185, Note_on_c, 9, 46, 0
1, 116400, Note_on_c, 9, 36, 114
1, 116639, Note_on_c, 9, 36, 0
1, 116640, Note_on_c, 9, 38, 113
1, 116640, Note_on_c, 9, 46, 109
1, 116640, Note_on_c, 9, 55, 73
1, 116665, Note_on_c, 9, 46, 0
1, 116665, Note_on_c, 9, 55, 0
1, 117119, Note_on_c, 9, 38, 0
1, 117120, Note_on_c, 9, 42, 95
1, 117145, Note_on_c, 9, 42, 0
1, 117360, Note_on_c, 9, 44, 83
1, 117372, Note_on_c, 9, 44, 0
1, 117600, Note_on_c, 9, 38, 109
1, 117600, Note_on_c, 9, 42, 82
1, 117625, Note_on_c, 9, 42, 0
1, 117840, Note_on_c, 9, 44, 86
1, 117852, Note_on_c, 9, 44, 0
1, 118079, Note_on_c, 9, 38, 0
1, 118080, Note_on_c, 9, 42, 82
1, 118105, Note_on_c, 9, 42, 0
1, 118320, Note_on_c, 9, 44, 69
1, 118320, Note_on_c, 9, 36, 109
1, 118332, Note_on_c, 9, 44, 0
1, 118559, Note_on_c, 9, 36, 0
1, 118560, Note_on_c, 9, 38, 110
1, 118560, Note_on_c, 9, 42, 84
1, 118572, Note_on_c, 9, 42, 0
1, 118799, Note_on_c, 9, 38, 0
1, 118800, Note_on_c, 9, 46, 107
1, 118800, Note_on_c, 9, 36, 111
1, 118812, Note_on_c, 9, 46, 0
1, 119039, Note_on_c, 9, 36, 0
1, 119040, Note_on_c, 9, 42, 95
1, 119040, Note_on_c, 9, 36, 110
1, 119065, Note_on_c, 9, 42, 0
1, 119279, Note_on_c, 9, 36, 0
1, 119280, Note_on_c, 9, 44, 79
1, 119292, Note_on_c, 9, 44, 0
1, 119520, Note_on_c, 9, 38, 106
1, 119520, Note_on_c, 9, 42, 69
1, 119545, Note_on_c, 9, 42, 0
1, 119760, Note_on_c, 9, 44, 68
1, 119772, Note_on_c, 9, 44, 0
1, 119999, Note_on_c, 9, 38, 0
1, 120000, Note_on_c, 9, 42, 73
1, 120025, Note_on_c, 9, 42, 0
1, 120240, Note_on_c, 9, 44, 76
1, 120240, Note_on_c, 9, 36, 113
1, 120252, Note_on_c, 9, 44, 0
1, 120479, Note_on_c, 9, 36, 0
1, 120480, Note_on_c, 9, 38, 113
1, 120480, Note_on_c, 9, 46, 105
1, 120480, Note_on_c, 9, 42, 80
1, 120505, Note_on_c, 9, 46, 0
1, 120505, Note_on_c, 9, 42, 0
1, 120720, Note_on_c, 9, 36, 111
1, 120959, Note_on_c, 9, 38, 0
1, 120959, Note_on_c, 9, 36, 0
1, 120960, Note_on_c, 9, 42, 95
1, 120960, Note_on_c, 9, 36, 110
1, 120985, Note_on_c, 9, 42, 0
1, 121199, Note_on_c, 9, 36, 0
1, 121200, Note_on_c, 9, 44, 67
1, 121212, Note_on_c, 9, 44, 0
1, 121440, Note_on_c, 9, 38, 109
1, 121440, Note_on_c, 9, 46, 112
1, 121452, Note_on_c, 9, 46, 0
1, 121679, Note_on_c, 9, 38, 0
1, 121680, Note_on_c, 9, 42, 73
1, 121692, Note_on_c, 9, 42, 0
1, 121920, Note_on_c, 9, 46, 105
1, 121932, Note_on_c, 9, 46, 0
1, 122160, Note_on_c, 9, 42, 76
1, 122160, Note_on_c, 9, 36, 109
1, 122172, Note_on_c, 9, 42, 0
1, 122399, Note_on_c, 9, 36, 0
1, 122400, Note_on_c, 9, 38, 113
1, 122400, Note_on_c, 9, 46, 106
1, 122425, Note_on_c, 9, 46, 0
1, 122640, Note_on_c, 9, 36, 114
1, 122879, Note_on_c, 9, 38, 0
1, 122879, Note_on_c, 9, 36, 0
1, 122880, Note_on_c, 9, 42, 95
1, 122880, Note_on_c, 9, 36, 110
1, 122892, Note_on_c, 9, 42, 0
1, 123120, Note_on_c, 9, 42, 90
1, 123132, Note_on_c, 9, 42, 0
1, 123359, Note_on_c, 9, 36, 0
1, 123360, Note_on_c, 9, 38, 105
1, 123360, Note_on_c, 9, 42, 85
1, 123372, Note_on_c, 9, 42, 0
1, 123599, Note_on_c, 9, 38, 0
1, 123600, Note_on_c, 9, 42, 87
1, 123612, Note_on_c, 9, 42, 0
1, 123840, Note_on_c, 9, 46, 108
1, 123852, Note_on_c, 9, 46, 0
1, 124080, Note_on_c, 9, 42, 81
1, 124092, Note_on_c, 9, 42, 0
1, 124320, Note_on_c, 9, 38, 114
1, 124320, Note_on_c, 9, 46, 107
1, 124345, Note_on_c, 9, 46, 0
1, 124560, Note_on_c, 9, 36, 109
1, 124799, Note_on_c, 9, 38, 0
1, 124799, Note_on_c, 9, 36, 0
1, 124800, Note_on_c, 9, 42, 95
1, 124800, Note_on_c, 9, 36, 110
1, 124812, Note_on_c, 9, 42, 0
1, 125040, Note_on_c, 9, 42, 74
1, 125052, Note_on_c, 9, 42, 0
1, 125279, Note_on_c, 9, 36, 0
1, 125280, Note_on_c, 9, 38, 114
1, 125280, Note_on_c, 9, 42, 77
1, 125292, Note_on_c, 9, 42, 0
1, 125519, Note_on_c, 9, 38, 0
1, 125520, Note_on_c, 9, 42, 71
1, 125532, Note_on_c, 9, 42, 0
1, 125760, Note_on_c, 9, 42, 78
1, 125785, Note_on_c, 9, 42, 0
1, 126000, Note_on_c, 9, 36, 110
1, 126239, Note_on_c, 9, 36, 0
1, 126240, Note_on_c, 9, 38, 108
1, 126240, Note_on_c, 9, 42, 75
1, 126265, Note_on_c, 9, 42, 0
1, 126719, Note_on_c, 9, 38, 0
1, 126720, Note_on_c, 9, 46, 109
1, 126745, Note_on_c, 9, 46, 0
1, 127680, Note_on_c, 9, 42, 84
1, 127705, Note_on_c, 9, 42, 0
1, 128160, Note_on_c, 9, 38, 110
1, 128160, Note_on_c, 9, 46, 107
1, 128160, Note_on_c, 9, 55, 58
1, 128160, Note_on_c, 9, 36, 105
1, 128185, Note_on_c, 9, 46, 0
1, 128185, Note_on_c, 9, 55, 0
1, 128639, Note_on_c, 9, 38, 0
1, 128639, Note_on_c, 9, 36, 0
1, 128640, Note_on_c, 9, 42, 95
1, 128665, Note_on_c, 9, 42, 0
1, 129120, Note_on_c, 9, 38, 111
1, 129120, Note_on_c, 9, 42, 66
1, 129145, Note_on_c, 9, 42, 0
1, 129360, Note_on_c, 9, 44, 84
1, 129372, Note_on_c, 9, 44, 0
1, 129599, Note_on_c, 9, 38, 0
1, 129600, Note_on_c, 9, 42, 87
1, 129625, Note_on_c, 9, 42, 0
1, 129840, Note_on_c, 9, 44, 88
1, 129840, Note_on_c, 9, 36, 115
1, 129845, Note_on_c, 9, 44, 0
1, 129959, Note_on_c, 9, 36, 0
1, 129960, Note_on_c, 9, 44, 69
1, 129965, Note_on_c, 9, 44, 0
1, 130080, Note_on_c, 9, 38, 113
1, 130080, Note_on_c, 9, 42, 88
1, 130092, Note_on_c, 9, 42, 0
1, 130319, Note_on_c, 9, 38, 0
1, 130320, Note_on_c, 9, 46, 107
1, 130320, Note_on_c, 9, 36, 109
1, 130332, Note_on_c, 9, 46, 0
1, 130559, Note_on_c, 9, 36, 0
1, 130560, Note_on_c, 9, 42, 95
1, 130585, Note_on_c, 9, 42, 0
1, 130800, Note_on_c, 9, 44, 67
1, 130812, Note_on_c, 9, 44, 0
1, 131040, Note_on_c, 9, 38, 115
1, 131040, Note_on_c, 9, 42, 89
1, 131065, Note_on_c, 9, 42, 0
1, 131280, Note_on_c, 9, 44, 79
1, 131292, Note_on_c, 9, 44, 0
1, 131519, Note_on_c, 9, 38, 0
1, 131520, Note_on_c, 9, 50, 105
1, 131520, Note_on_c, 9, 42, 87
1, 131525, Note_on_c, 9, 42, 0
1, 131639, Note_on_c, 9, 50, 0
1, 131640, Note_on_c, 9, 50, 104
1, 131759, Note_on_c, 9, 50, 0
1, 131760, Note_on_c, 9, 47, 95
1, 131760, Note_on_c, 9, 44, 71
1, 131772, Note_on_c, 9, 44, 0
1, 131879, Note_on_c, 9, 47, 0
1, 131880, Note_on_c, 9, 50, 95
1, 131999, Note_on_c, 9, 50, 0
1, 132000, Note_on_c, 9, 47, 99
1, 132000, Note_on_c, 9, 44, 88
1, 132012, Note_on_c, 9, 44, 0
1, 132239, Note_on_c, 9, 47, 0
1, 132240, Note_on_c, 9, 45, 107
1, 132240, Note_on_c, 9, 44, 84
1, 132240, Note_on_c, 9, 36, 112
1, 132252, Note_on_c, 9, 44, 0
1, 132479, Note_on_c, 9, 45, 0
1, 132479, Note_on_c, 9, 36, 0
1, 132480, Note_on_c, 9, 46, 108
1, 132480, Note_on_c, 9, 36, 110
1, 132505, Note_on_c, 9, 46, 0
1, 132719, Note_on_c, 9, 36, 0
1, 132720, Note_on_c, 9, 44, 79
1, 132732, Note_on_c, 9, 44, 0
1, 132960, Note_on_c, 9, 38, 105
1, 132960, Note_on_c, 9, 42, 72
1, 132985, Note_on_c, 9, 42, 0
1, 133200, Note_on_c, 9, 44, 68
1, 133212, Note_on_c, 9, 44, 0
1, 133439, Note_on_c, 9, 38, 0
1, 133440, Note_on_c, 9, 42, 85
1, 133465, Note_on_c, 9, 42, 0
1, 133680, Note_on_c, 9, 44, 66
1, 133680, Note_on_c, 9, 36, 113
1, 133685, Note_on_c, 9, 44, 0
1, 133799, Note_on_c, 9, 36, 0
1, 133800, Note_on_c, 9, 44, 85
1, 133805, Note_on_c, 9, 44, 0
1, 133920, Note_on_c, 9, 38, 112
1, 133920, Note_on_c, 9, 42, 71
1, 133932, Note_on_c, 9, 42, 0
1, 134159, Note_on_c, 9, 38, 0
1, 134160, Note_on_c, 9, 46, 105
1, 134160, Note_on_c, 9, 36, 113
1, 134172, Note_on_c, 9, 46, 0
1, 134399, Note_on_c, 9, 36, 0
1, 134400, Note_on_c, 9, 42, 95
1, 134400, Note_on_c, 9, 36, 110
1, 134425, Note_on_c, 9, 42, 0
1, 134639, Note_on_c, 9, 36, 0
1, 134640, Note_on_c, 9, 44, 77
1, 134652, Note_on_c, 9, 44, 0
1, 134880, Note_on_c, 9, 38, 107
1, 134880, Note_on_c, 9, 42, 84
1, 134905, Note_on_c, 9, 42, 0
1, 135120, Note_on_c, 9, 44, 71
1, 135132, Note_on_c, 9, 44, 0
1, 135359, Note_on_c, 9, 38, 0
1, 135360, Note_on_c, 9, 42, 85
1, 135385, Note_on_c, 9, 42, 0
1, 135600, Note_on_c, 9, 44, 81
1, 135600, Note_on_c, 9, 36, 106
1, 135612, Note_on_c, 9, 44, 0
1, 135839, Note_on_c, 9, 36, 0
1, 135840, Note_on_c, 9, 38, 112
1, 135840, Note_on_c, 9, 42, 72
1, 135852, Note_on_c, 9, 42, 0
1, 136079, Note_on_c, 9, 38, 0
1, 136080, Note_on_c, 9, 46, 105
1, 136080, Note_on_c, 9, 36, 115
1, 136092, Note_on_c, 9, 46, 0
1, 136319, Note_on_c, 9, 36, 0
1, 136320, Note_on_c, 9, 42, 95
1, 136320, Note_on_c, 9, 36, 110
1, 136345, Note_on_c, 9, 42, 0
1, 136559, Note_on_c, 9, 36, 0
1, 136560, Note_on_c, 9, 44, 67
1, 136572, Note_on_c, 9, 44, 0
1, 136800, Note_on_c, 9, 38, 113
1, 136800, Note_on_c, 9, 42, 71
1, 136825, Note_on_c, 9, 42, 0
1, 137040, Note_on_c, 9, 44, 68
1, 137052, Note_on_c, 9, 44, 0
1, 137279, Note_on_c, 9, 38, 0
1, 137280, Note_on_c, 9, 42, 85
1, 137305, Note_on_c, 9, 42, 0
1, 137520, Note_on_c, 9, 44, 81
1, 137520, Note_on_c, 9, 36, 106
1, 137532, Note_on_c, 9, 44, 0
1, 137759, Note_on_c, 9, 36, 0
1, 137760, Note_on_c, 9, 38, 112
1, 137760, Note_on_c, 9, 42, 79
1, 137772, Note_on_c, 9, 42, 0
1, 137999, Note_on_c, 9, 38, 0
1, 138000, Note_on_c, 9, 46, 107
1, 138000, Note_on_c, 9, 36, 110
1, 138012, Note_on_c, 9, 46, 0
1, 138239, Note_on_c, 9, 36, 0
1, 138240, Note_on_c, 9, 42, 95
1, 138240, Note_on_c, 9, 36, 110
1, 138265, Note_on_c, 9, 42, 0
1, 138479, Note_on_c, 9, 36, 0
1, 138480, Note_on_c, 9, 44, 67
1, 138492, Note_on_c, 9, 44, 0
1, 138720, Note_on_c, 9, 38, 106
1, 138720, Note_on_c, 9, 42, 76
1, 138745, Note_on_c, 9, 42, 0
1, 138960, Note_on_c, 9, 44, 65
1, 138972, Note_on_c, 9, 44, 0
1, 139199, Note_on_c, 9, 38, 0
1, 139200, Note_on_c, 9, 42, 83
1, 139225, Note_on_c, 9, 42, 0
1, 139440, Note_on_c, 9, 44, 82
1, 139440, Note_on_c, 9, 36, 109
1, 139445, Note_on_c, 9, 44, 0
1, 139559, Note_on_c, 9, 36, 0
1, 139560, Note_on_c, 9, 44, 81
1, 139565, Note_on_c, 9, 44, 0
1, 139680, Note_on_c, 9, 38, 114
1, 139680, Note_on_c, 9, 42, 79
1, 139692, Note_on_c, 9, 42, 0
1, 139919, Note_on_c, 9, 38, 0
1, 139920, Note_on_c, 9, 46, 109
1, 139920, Note_on_c, 9, 36, 108
1, 139932, Note_on_c, 9, 46, 0
1, 140159, Note_on_c, 9, 36, 0
1, 140160, Note_on_c, 9, 42, 95
1, 140160, Note_on_c, 9, 36, 110
1, 140185, Note_on_c, 9, 42, 0
1, 140399, Note_on_c, 9, 36, 0
1, 140400, Note_on_c, 9, 44, 80
1, 140412, Note_on_c, 9, 44, 0
1, 140640, Note_on_c, 9, 38, 113
1, 140640, Note_on_c, 9, 42, 85
1, 140665, Note_on_c, 9, 42, 0
1, 140880, Note_on_c, 9, 44, 87
1, 140892, Note_on_c, 9, 44, 0
1, 141119, Note_on_c, 9, 38, 0
1, 141120, Note_on_c, 9, 42, 86
1, 141145, Note_on_c, 9, 42, 0
1, 141360, Note_on_c, 9, 44, 66
1, 141360, Note_on_c, 9, 36, 111
1, 141372, Note_on_c, 9, 44, 0
1, 141599, Note_on_c, 9, 36, 0
1, 141600, Note_on_c, 9, 38, 111
1, 141600, Note_on_c, 9, 42, 82
1, 141612, Note_on_c, 9, 42, 0
1, 141839, Note_on_c, 9, 38, 0
1, 141840, Note_on_c, 9, 46, 106
1, 141840, Note_on_c, 9, 36, 112
1, 141852, Note_on_c, 9, 46, 0
1, 142079, Note_on_c, 9, 36, 0
1, 142080, Note_on_c, 9, 42, 95
1, 142080, Note_on_c, 9, 36, 110
1, 142105, Note_on_c, 9, 42, 0
1, 142319, Note_on_c, 9, 36, 0
1, 142320, Note_on_c, 9, 44, 79
1, 142332, Note_on_c, 9, 44, 0
1, 142560, Note_on_c, 9, 38, 112
1, 142560, Note_on_c, 9, 42, 68
1, 142585, Note_on_c, 9, 42, 0
1, 142800, Note_on_c, 9, 44, 81
1, 142812, Note_on_c, 9, 44, 0
1, 143039, Note_on_c, 9, 38, 0
1, 143040, Note_on_c, 9, 46, 108
1, 143040, Note_on_c, 9, 42, 72
1, 143052, Note_on_c, 9, 46, 0
1, 143052, Note_on_c, 9, 42, 0
1, 143280, Note_on_c, 9, 46, 105
1, 143280, Note_on_c, 9, 36, 112
1, 143292, Note_on_c, 9, 46, 0
1, 143519, Note_on_c, 9, 36, 0
1, 143520, Note_on_c, 9, 38, 109
1, 143520, Note_on_c, 9, 46, 109
1, 143532, Note_on_c, 9, 46, 0
1, 143759, Note_on_c, 9, 38, 0
1, 143760, Note_on_c, 9, 46, 108
1, 143760, Note_on_c, 9, 36, 112
1, 143772, Note_on_c, 9, 46, 0
1, 143999, Note_on_c, 9, 36, 0
1, 144000, Note_on_c, 9, 46, 107
1, 144025, Note_on_c, 9, 46, 0
1, 144240, Note_on_c, 9, 44, 87
1, 144245, Note_on_c, 9, 44, 0
1, 144360, Note_on_c, 9, 44, 87
1, 144365, Note_on_c, 9, 44, 0
1, 144480, Note_on_c, 9, 31, 111
1, 144720, Note_on_c, 9, 44, 73
1, 144732, Note_on_c, 9, 44, 0
1, 144959, Note_on_c, 9, 31, 0
1, 144960, Note_on_c, 9, 46, 110
1, 144985, Note_on_c, 9, 46, 0
1, 145200, Note_on_c, 9, 44, 85
1, 145212, Note_on_c, 9, 44, 0
1, 145440, Note_on_c, 9, 31, 106
1, 145680, Note_on_c, 9, 44, 84
1, 145692, Note_on_c, 9, 44, 0
1, 145919, Note_on_c, 9, 31, 0
1, 145920, Note_on_c, 9, 46, 105
1, 145945, Note_on_c, 9, 46, 0
1, 146160, Note_on_c, 9, 44, 89
1, 146172, Note_on_c, 9, 44, 0
1, 146400, Note_on_c, 9, 31, 109
1, 146640, Note_on_c, 9, 44, 79
1, 146652, Note_on_c, 9, 44, 0
1, 146879, Note_on_c, 9, 31, 0
1, 146880, Note_on_c, 9, 46, 106
1, 146892, Note_on_c, 9, 46, 0
1, 147120, Note_on_c, 9, 46, 107
1, 147132, Note_on_c, 9, 46, 0
1, 147360, Note_on_c, 9, 44, 71
1, 147385, Note_on_c, 9, 44, 0
1, 147600, Note_on_c, 9, 46, 108
1, 147612, Note_on_c, 9, 46, 0
1, 147840, Note_on_c, 9, 44, 95
1, 147852, Note_on_c, 9, 44, 0
1, 148080, Note_on_c, 9, 44, 84
1, 148085, Note_on_c, 9, 44, 0
1, 148200, Note_on_c, 9, 44, 77
1, 148205, Note_on_c, 9, 44, 0
1, 148320, Note_on_c, 9, 31, 109
1, 148560, Note_on_c, 9, 44, 85
1, 148572, Note_on_c, 9, 44, 0
1, 148799, Note_on_c, 9, 31, 0
1, 148800, Note_on_c, 9, 46, 107
1, 148812, Note_on_c, 9, 46, 0
1, 149040, Note_on_c, 9, 46, 110
1, 149052, Note_on_c, 9, 46, 0
1, 149280, Note_on_c, 9, 44, 75
1, 149305, Note_on_c, 9, 44, 0
1, 149520, Note_on_c, 9, 46, 108
1, 149532, Note_on_c, 9, 46, 0
1, 149760, Note_on_c, 9, 44, 95
1, 149772, Note_on_c, 9, 44, 0
1, 150000, Note_on_c, 9, 44, 76
1, 150005, Note_on_c, 9, 44, 0
1, 150120, Note_on_c, 9, 44, 76
1, 150125, Note_on_c, 9, 44, 0
1, 150240, Note_on_c, 9, 31, 106
1, 150480, Note_on_c, 9, 44, 68
1, 150492, Note_on_c, 9, 44, 0
1, 150719, Note_on_c, 9, 31, 0
1, 150720, Note_on_c, 9, 46, 107
1, 150745, Note_on_c, 9, 46, 0
1, 150960, Note_on_c, 9, 44, 80
1, 150972, Note_on_c, 9, 44, 0
1, 151200, Note_on_c, 9, 46, 110
1, 151225, Note_on_c, 9, 46, 0
1, 151440, Note_on_c, 9, 44, 78
1, 151452, Note_on_c, 9, 44, 0
1, 151680, Note_on_c, 9, 46, 109
1, 151705, Note_on_c, 9, 46, 0
1, 151920, Note_on_c, 9, 44, 66
1, 151932, Note_on_c, 9, 44, 0
1, 152160, Note_on_c, 9, 31, 111
1, 152400, Note_on_c, 9, 44, 78
1, 152412, Note_on_c, 9, 44, 0
1, 152639, Note_on_c, 9, 31, 0
1, 152640, Note_on_c, 9, 46, 107
1, 152665, Note_on_c, 9, 46, 0
1, 152880, Note_on_c, 9, 44, 72
1, 152885, Note_on_c, 9, 44, 0
1, 153000, Note_on_c, 9, 44, 84
1, 153005, Note_on_c, 9, 44, 0
1, 153120, Note_on_c, 9, 46, 107
1, 153132, Note_on_c, 9, 46, 0
1, 153360, Note_on_c, 9, 46, 107
1, 153372, Note_on_c, 9, 46, 0
1, 153600, Note_on_c, 9, 44, 95
1, 153612, Note_on_c, 9, 44, 0
1, 153840, Note_on_c, 9, 44, 71
1, 153852, Note_on_c, 9, 44, 0
1, 154080, Note_on_c, 9, 31, 115
1, 154320, Note_on_c, 9, 44, 65
1, 154325, Note_on_c, 9, 44, 0
1, 154440, Note_on_c, 9, 44, 80
1, 154445, Note_on_c, 9, 44, 0
1, 154559, Note_on_c, 9, 31, 0
1, 154560, Note_on_c, 9, 46, 105
1, 154572, Note_on_c, 9, 46, 0
1, 154800, Note_on_c, 9, 46, 108
1, 154812, Note_on_c, 9, 46, 0
1, 155040, Note_on_c, 9, 46, 106
1, 155052, Note_on_c, 9, 46, 0
1, 155280, Note_on_c, 9, 46, 105
1, 155292, Note_on_c, 9, 46, 0
1, 155520, Note_on_c, 9, 44, 95
1, 155532, Note_on_c, 9, 44, 0
1, 155760, Note_on_c, 9, 44, 79
1, 155772, Note_on_c, 9, 44, 0
1, 156000, Note_on_c, 9, 31, 107
1, 156120, Note_on_c, 9, 44, 84
1, 156138, Note_on_c, 9, 44, 0
1, 156239, Note_on_c, 9, 31, 0
1, 156240, Note_on_c, 9, 46, 105
1, 156252, Note_on_c, 9, 46, 0
1, 156480, Note_on_c, 9, 46, 107
1, 156505, Note_on_c, 9, 46, 0
1, 156720, Note_on_c, 9, 44, 69
1, 156732, Note_on_c, 9, 44, 0
1, 156960, Note_on_c, 9, 31, 109
1, 157200, Note_on_c, 9, 44, 68
1, 157205, Note_on_c, 9, 44, 0
1, 157320, Note_on_c, 9, 44, 85
1, 157325, Note_on_c, 9, 44, 0
1, 157439, Note_on_c, 9, 31, 0
1, 157440, Note_on_c, 9, 46, 110
1, 157465, Note_on_c, 9, 46, 0
1, 157680, Note_on_c, 9, 44, 75
1, 157692, Note_on_c, 9, 44, 0
1, 157920, Note_on_c, 9, 31, 111
1, 158159, Note_on_c, 9, 31, 0
1, 158160, Note_on_c, 9, 46, 107
1, 158160, Note_on_c, 9, 35, 115
1, 158172, Note_on_c, 9, 46, 0
1, 158399, Note_on_c, 9, 35, 0
1, 158400, Note_on_c, 9, 46, 106
1, 158400, Note_on_c, 9, 35, 112
1, 158412, Note_on_c, 9, 46, 0
1, 158639, Note_on_c, 9, 35, 0
1, 158640, Note_on_c, 9, 46, 109
1, 158640, Note_on_c, 9, 35, 111
1, 158652, Note_on_c, 9, 46, 0
1, 158879, Note_on_c, 9, 35, 0
1, 158880, Note_on_c, 9, 46, 105
1, 158880, Note_on_c, 9, 35, 110
1, 158892, Note_on_c, 9, 46, 0
1, 159119, Note_on_c, 9, 35, 0
1, 159120, Note_on_c, 9, 46, 106
1, 159120, Note_on_c, 9, 35, 113
1, 159132, Note_on_c, 9, 46, 0
1, 159359, Note_on_c, 9, 35, 0
1, 159360, Note_on_c, 9, 42, 95
1, 159360, Note_on_c, 9, 55, 100
1, 159360, Note_on_c, 9, 35, 112
1, 159385, Note_on_c, 9, 42, 0
1, 159385, Note_on_c, 9, 55, 0
1, 159599, Note_on_c, 9, 35, 0
1, 159600, Note_on_c, 9, 44, 89
1, 159612, Note_on_c, 9, 44, 0
1, 159840, Note_on_c, 9, 38, 114
1, 159840, Note_on_c, 9, 42, 86
1, 159865, Note_on_c, 9, 42, 0
1, 160080, Note_on_c, 9, 44, 86
1, 160092, Note_on_c, 9, 44, 0
1, 160319, Note_on_c, 9, 38, 0
1, 160320, Note_on_c, 9, 42, 77
1, 160345, Note_on_c, 9, 42, 0
1, 160560, Note_on_c, 9, 44, 77
1, 160560, Note_on_c, 9, 36, 112
1, 160565, Note_on_c, 9, 44, 0
1, 160679, Note_on_c, 9, 36, 0
1, 160680, Note_on_c, 9, 44, 77
1, 160685, Note_on_c, 9, 44, 0
1, 160800, Note_on_c, 9, 38, 105
1, 160800, Note_on_c, 9, 42, 88
1, 160812, Note_on_c, 9, 42, 0
1, 161039, Note_on_c, 9, 38, 0
1, 161040, Note_on_c, 9, 46, 106
1, 161040, Note_on_c, 9, 36, 106
1, 161052, Note_on_c, 9, 46, 0
1, 161279, Note_on_c, 9, 36, 0
1, 161280, Note_on_c, 9, 42, 95
1, 161280, Note_on_c, 9, 36, 110
1, 161305, Note_on_c, 9, 42, 0
1, 161519, Note_on_c, 9, 36, 0
1, 161520, Note_on_c, 9, 44, 85
1, 161532, Note_on_c, 9, 44, 0
1, 161760, Note_on_c, 9, 38, 113
1, 161760, Note_on_c, 9, 42, 88
1, 161785, Note_on_c, 9, 42, 0
1, 162000, Note_on_c, 9, 44, 71
1, 162012, Note_on_c, 9, 44, 0
1, 162239, Note_on_c, 9, 38, 0
1, 162240, Note_on_c, 9, 42, 83
1, 162265, Note_on_c, 9, 42, 0
1, 162480, Note_on_c, 9, 44, 75
1, 162480, Note_on_c, 9, 36, 107
1, 162492, Note_on_c, 9, 44, 0
1, 162719, Note_on_c, 9, 36, 0
1, 162720, Note_on_c, 9, 38, 110
1, 162720, Note_on_c, 9, 42, 79
1, 162732, Note_on_c, 9, 42, 0
1, 162959, Note_on_c, 9, 38, 0
1, 162960, Note_on_c, 9, 46, 105
1, 162960, Note_on_c, 9, 36, 106
1, 162972, Note_on_c, 9, 46, 0
1, 163199, Note_on_c, 9, 36, 0
1, 163200, Note_on_c, 9, 42, 95
1, 163200, Note_on_c, 9, 36, 110
1, 163225, Note_on_c, 9, 42, 0
1, 163439, Note_on_c, 9, 36, 0
1, 163440, Note_on_c, 9, 44, 90
1, 163452, Note_on_c, 9, 44, 0
1, 163680, Note_on_c, 9, 38, 110
1, 163680, Note_on_c, 9, 42, 73
1, 163705, Note_on_c, 9, 42, 0
1, 163920, Note_on_c, 9, 44, 76
1, 163932, Note_on_c, 9, 44, 0
1, 164159, Note_on_c, 9, 38, 0
1, 164160, Note_on_c, 9, 42, 89
1, 164185, Note_on_c, 9, 42, 0
1, 164400, Note_on_c, 9, 44, 82
1, 164400, Note_on_c, 9, 36, 112
1, 164412, Note_on_c, 9, 44, 0
1, 164639, Note_on_c, 9, 36, 0
1, 164640, Note_on_c, 9, 38, 108
1, 164640, Note_on_c, 9, 42, 76
1, 164652, Note_on_c, 9, 42, 0
1, 164879, Note_on_c, 9, 38, 0
1, 164880, Note_on_c, 9, 46, 108
1, 164880, Note_on_c, 9, 36, 108
1, 164892, Note_on_c, 9, 46, 0
1, 165119, Note_on_c, 9, 36, 0
1, 165120, Note_on_c, 9, 42, 95
1, 165120, Note_on_c, 9, 36, 110
1, 165145, Note_on_c, 9, 42, 0
1, 165359, Note_on_c, 9, 36, 0
1, 165360, Note_on_c, 9, 44, 69
1, 165372, Note_on_c, 9, 44, 0
1, 165600, Note_on_c, 9, 38, 105
1, 165600, Note_on_c, 9, 42, 69
1, 165625, Note_on_c, 9, 42, 0
1, 165840, Note_on_c, 9, 44, 77
1, 165852, Note_on_c, 9, 44, 0
1, 166079, Note_on_c, 9, 38, 0
1, 166080, Note_on_c, 9, 42, 83
1, 166105, Note_on_c, 9, 42, 0
1, 166320, Note_on_c, 9, 44, 83
1, 166332, Note_on_c, 9, 44, 0
1, 166560, Note_on_c, 9, 45, 97
1, 166679, Note_on_c, 9, 45, 0
1, 166680, Note_on_c, 9, 45, 95
1, 166799, Note_on_c, 9, 45, 0
1, 166800, Note_on_c, 9, 45, 107
1, 166800, Note_on_c, 9, 44, 90
1, 166800, Note_on_c, 9, 36, 109
1, 166812, Note_on_c, 9, 44, 0
1, 166919, Note_on_c, 9, 45, 0
1, 166920, Note_on_c, 9, 45, 103
1, 167039, Note_on_c, 9, 36, 0
1, 167039, Note_on_c, 9, 45, 0
1, 167040, Note_on_c, 9, 46, 109
1, 167040, Note_on_c, 9, 36, 110
1, 167065, Note_on_c, 9, 46, 0
1, 167279, Note_on_c, 9, 36, 0
1, 167280, Note_on_c, 9, 44, 67
1, 167292, Note_on_c, 9, 44, 0
1, 167520, Note_on_c, 9, 38, 113
1, 167520, Note_on_c, 9, 42, 67
1, 167545, Note_on_c, 9, 42, 0
1, 167760, Note_on_c, 9, 44, 75
1, 167772, Note_on_c, 9, 44, 0
1, 167999, Note_on_c, 9, 38, 0
1, 168000, Note_on_c, 9, 42, 69
1, 168025, Note_on_c, 9, 42, 0
1, 168240, Note_on_c, 9, 44, 82
1, 168240, Note_on_c, 9, 36, 110
1, 168245, Note_on_c, 9, 44, 0
1, 168359, Note_on_c, 9, 36, 0
1, 168360, Note_on_c, 9, 44, 69
1, 168365, Note_on_c, 9, 44, 0
1, 168480, Note_on_c, 9, 38, 112
1, 168480, Note_on_c, 9, 42, 88
1, 168492, Note_on_c, 9, 42, 0
1, 168719, Note_on_c, 9, 38, 0
1, 168720, Note_on_c, 9, 46, 109
1, 168720, Note_on_c, 9, 36, 115
1, 168732, Note_on_c, 9, 46, 0
1, 168959, Note_on_c, 9, 36, 0
1, 168960, Note_on_c, 9, 42, 95
1, 168960, Note_on_c, 9, 36, 110
1, 168985, Note_on_c, 9, 42, 0
1, 169199, Note_on_c, 9, 36, 0
1, 169200, Note_on_c, 9, 44, 82
1, 169212, Note_on_c, 9, 44, 0
1, 169440, Note_on_c, 9, 38, 113
1, 169440, Note_on_c, 9, 42, 68
1, 169465, Note_on_c, 9, 42, 0
1, 169680, Note_on_c, 9, 44, 68
1, 169692, Note_on_c, 9, 44, 0
1, 169919, Note_on_c, 9, 38, 0
1, 169920, Note_on_c, 9, 42, 76
1, 169945, Note_on_c, 9, 42, 0
1, 170160, Note_on_c, 9, 44, 83
1, 170160, Note_on_c, 9, 36, 107
1, 170172, Note_on_c, 9, 44, 0
1, 170399, Note_on_c, 9, 36, 0
1, 170400, Note_on_c, 9, 38, 108
1, 170400, Note_on_c, 9, 42, 78
1, 170412, Note_on_c, 9, 42, 0
1, 170639, Note_on_c, 9, 38, 0
1, 170640, Note_on_c, 9, 46, 110
1, 170640, Note_on_c, 9, 36, 108
1, 170652, Note_on_c, 9, 46, 0
1, 170879, Note_on_c, 9, 36, 0
1, 170880, Note_on_c, 9, 42, 95
1, 170880, Note_on_c, 9, 36, 110
1, 170905, Note_on_c, 9, 42, 0
1, 171119, Note_on_c, 9, 36, 0
1, 171120, Note_on_c, 9, 44, 89
1, 171132, Note_on_c, 9, 44, 0
1, 171360, Note_on_c, 9, 38, 110
1, 171360, Note_on_c, 9, 42, 69
1, 171385, Note_on_c, 9, 42, 0
1, 171600, Note_on_c, 9, 44, 83
1, 171612, Note_on_c, 9, 44, 0
1, 171839, Note_on_c, 9, 38, 0
1, 171840, Note_on_c, 9, 42, 68
1, 171865, Note_on_c, 9, 42, 0
1, 172080, Note_on_c, 9, 44, 76
1, 172080, Note_on_c, 9, 36, 113
1, 172092, Note_on_c, 9, 44, 0
1, 172319, Note_on_c, 9, 36, 0
1, 172320, Note_on_c, 9, 38, 109
1, 172320, Note_on_c, 9, 42, 74
1, 172332, Note_on_c, 9, 42, 0
1, 172559, Note_on_c, 9, 38, 0
1, 172560, Note_on_c, 9, 46, 105
1, 172560, Note_on_c, 9, 36, 112
1, 172572, Note_on_c, 9, 46, 0
1, 172799, Note_on_c, 9, 36, 0
1, 172800, Note_on_c, 9, 47, 97
1, 172800, Note_on_c, 9, 42, 95
1, 172800, Note_on_c, 9, 36, 110
1, 172825, Note_on_c, 9, 42, 0
1, 173279, Note_on_c, 9, 47, 0
1, 173279, Note_on_c, 9, 36, 0
1, 173280, Note_on_c, 9, 47, 107
1, 173280, Note_on_c, 9, 42, 80
1, 173298, Note_on_c, 9, 42, 0
1, 173639, Note_on_c, 9, 47, 0
1, 173640, Note_on_c, 9, 50, 99
1, 173759, Note_on_c, 9, 50, 0
1, 173760, Note_on_c, 9, 50, 95
1, 173760, Note_on_c, 9, 42, 73
1, 173772, Note_on_c, 9, 42, 0
1, 173999, Note_on_c, 9, 50, 0
1, 174000, Note_on_c, 9, 47, 100
1, 174239, Note_on_c, 9, 47, 0
1, 174240, Note_on_c, 9, 47, 100
1, 174240, Note_on_c, 9, 42, 71
1, 174265, Note_on_c, 9, 42, 0
1, 174719, Note_on_c, 9, 47, 0
1, 174720, Note_on_c, 9, 42, 95
1, 174720, Note_on_c, 9, 49, 100
1, 174720, Note_on_c, 9, 36, 110
1, 174745, Note_on_c, 9, 42, 0
1, 174745, Note_on_c, 9, 49, 0
1, 174959, Note_on_c, 9, 36, 0
1, 174960, Note_on_c, 9, 44, 74
1, 174972, Note_on_c, 9, 44, 0
1, 175200, Note_on_c, 9, 38, 111
1, 175200, Note_on_c, 9, 42, 68
1, 175212, Note_on_c, 9, 42, 0
1, 175439, Note_on_c, 9, 38, 0
1, 175440, Note_on_c, 9, 46, 108
1, 175440, Note_on_c, 9, 55, 68
1, 175452, Note_on_c, 9, 46, 0
1, 175452, Note_on_c, 9, 55, 0
1, 175920, Note_on_c, 9, 42, 72
1, 175920, Note_on_c, 9, 36, 115
1, 175932, Note_on_c, 9, 42, 0
1, 176159, Note_on_c, 9, 36, 0
1, 176160, Note_on_c, 9, 38, 114
1, 176160, Note_on_c, 9, 42, 88
1, 176185, Note_on_c, 9, 42, 0
1, 176400, Note_on_c, 9, 36, 108
1, 176639, Note_on_c, 9, 38, 0
1, 176639, Note_on_c, 9, 36, 0
1, 176640, Note_on_c, 9, 42, 95
1, 176652, Note_on_c, 9, 42, 0
1, 176880, Note_on_c, 9, 42, 83
1, 176892, Note_on_c, 9, 42, 0
1, 177120, Note_on_c, 9, 38, 111
1, 177120, Note_on_c, 9, 46, 112
1, 177132, Note_on_c, 9, 46, 0
1, 177359, Note_on_c, 9, 38, 0
1, 177360, Note_on_c, 9, 42, 89
1, 177372, Note_on_c, 9, 42, 0
1, 177600, Note_on_c, 9, 46, 107
1, 177625, Note_on_c, 9, 46, 0
1, 177840, Note_on_c, 9, 36, 106
1, 178079, Note_on_c, 9, 36, 0
1, 178080, Note_on_c, 9, 38, 113
1, 178080, Note_on_c, 9, 46, 107
1, 178080, Note_on_c, 9, 55, 79
1, 178105, Note_on_c, 9, 46, 0
1, 178105, Note_on_c, 9, 55, 0
1, 178559, Note_on_c, 9, 38, 0
1, 178560, Note_on_c, 9, 42, 95
1, 178585, Note_on_c, 9, 42, 0
1, 178800, Note_on_c, 9, 44, 76
1, 178812, Note_on_c, 9, 44, 0
1, 179040, Note_on_c, 9, 38, 114
1, 179040, Note_on_c, 9, 42, 66
1, 179065, Note_on_c, 9, 42, 0
1, 179280, Note_on_c, 9, 44, 68
1, 179292, Note_on_c, 9, 44, 0
1, 179519, Note_on_c, 9, 38, 0
1, 179520, Note_on_c, 9, 42, 76
1, 179545, Note_on_c, 9, 42, 0
1, 179760, Note_on_c, 9, 36, 107
1, 179999, Note_on_c, 9, 36, 0
1, 180000, Note_on_c, 9, 38, 110
1, 180000, Note_on_c, 9, 42, 87
1, 180012, Note_on_c, 9, 42, 0
1, 180239, Note_on_c, 9, 38, 0
1, 180240, Note_on_c, 9, 46, 108
1, 180240, Note_on_c, 9, 36, 109
1, 180252, Note_on_c, 9, 46, 0
1, 180479, Note_on_c, 9, 36, 0
1, 180480, Note_on_c, 9, 42, 95
1, 180480, Note_on_c, 9, 36, 110
1, 180505, Note_on_c, 9, 42, 0
1, 180719, Note_on_c, 9, 36, 0
1, 180720, Note_on_c, 9, 44, 75
1, 180732, Note_on_c, 9, 44, 0
1, 180960, Note_on_c, 9, 38, 113
1, 180960, Note_on_c, 9, 42, 87
1, 180985, Note_on_c, 9, 42, 0
1, 181200, Note_on_c, 9, 44, 81
1, 181212, Note_on_c, 9, 44, 0
1, 181439, Note_on_c, 9, 38, 0
1, 181440, Note_on_c, 9, 42, 70
1, 181465, Note_on_c, 9, 42, 0
1, 181680, Note_on_c, 9, 36, 113
1, 181919, Note_on_c, 9, 36, 0
1, 181920, Note_on_c, 9, 38, 106
1, 181920, Note_on_c, 9, 42, 80
1, 181932, Note_on_c, 9, 42, 0
1, 182159, Note_on_c, 9, 38, 0
1, 182160, Note_on_c, 9, 46, 107
1, 182160, Note_on_c, 9, 36, 115
1, 182172, Note_on_c, 9, 46, 0
1, 182399, Note_on_c, 9, 36, 0
1, 182400, Note_on_c, 9, 42, 95
1, 182400, Note_on_c, 9, 36, 110
1, 182425, Note_on_c, 9, 42, 0
1, 182639, Note_on_c, 9, 36, 0
1, 182640, Note_on_c, 9, 44, 88
1, 182652, Note_on_c, 9, 44, 0
1, 182880, Note_on_c, 9, 38, 109
1, 182880, Note_on_c, 9, 42, 65
1, 182892, Note_on_c, 9, 42, 0
1, 183119, Note_on_c, 9, 38, 0
1, 183120, Note_on_c, 9, 46, 106
1, 183120, Note_on_c, 9, 55, 63
1, 183132, Note_on_c, 9, 46, 0
1, 183132, Note_on_c, 9, 55, 0
1, 183600, Note_on_c, 9, 42, 68
1, 183600, Note_on_c, 9, 36, 110
1, 183612, Note_on_c, 9, 42, 0
1, 183839, Note_on_c, 9, 36, 0
1, 183840, Note_on_c, 9, 38, 115
1, 183840, Note_on_c, 9, 42, 78
1, 183865, Note_on_c, 9, 42, 0
1, 184080, Note_on_c, 9, 36, 108
1, 184319, Note_on_c, 9, 38, 0
1, 184319, Note_on_c, 9, 36, 0
1, 184320, Note_on_c, 9, 42, 95
1, 184332, Note_on_c, 9, 42, 0
1, 184560, Note_on_c, 9, 42, 69
1, 184572, Note_on_c, 9, 42, 0
1, 184800, Note_on_c, 9, 38, 110
1, 184800, Note_on_c, 9, 46, 112
1, 184812, Note_on_c, 9, 46, 0
1, 185039, Note_on_c, 9, 38, 0
1, 185040, Note_on_c, 9, 42, 68
1, 185052, Note_on_c, 9, 42, 0
1, 185280, Note_on_c, 9, 46, 109
1, 185305, Note_on_c, 9, 46, 0
1, 185520, Note_on_c, 9, 36, 106
1, 185759, Note_on_c, 9, 36, 0
1, 185760, Note_on_c, 9, 38, 112
1, 185760, Note_on_c, 9, 46, 105
1, 185760, Note_on_c, 9, 55, 60
1, 185785, Note_on_c, 9, 46, 0
1, 185785, Note_on_c, 9, 55, 0
1, 186239, Note_on_c, 9, 38, 0
1, 186240, Note_on_c, 9, 42, 95
1, 186265, Note_on_c, 9, 42, 0
1, 186480, Note_on_c, 9, 44, 76
1, 186492, Note_on_c, 9, 44, 0
1, 186720, Note_on_c, 9, 38, 112
1, 186720, Note_on_c, 9, 42, 83
1, 186745, Note_on_c, 9, 42, 0
1, 186960, Note_on_c, 9, 44, 83
1, 186972, Note_on_c, 9, 44, 0
1, 187199, Note_on_c, 9, 38, 0
1, 187200, Note_on_c, 9, 42, 75
1, 187225, Note_on_c, 9, 42, 0
1, 187440, Note_on_c, 9, 44, 85
1, 187440, Note_on_c, 9, 36, 113
1, 187452, Note_on_c, 9, 44, 0
1, 187679, Note_on_c, 9, 36, 0
1, 187680, Note_on_c, 9, 38, 109
1, 187680, Note_on_c, 9, 42, 86
1, 187692, Note_on_c, 9, 42, 0
1, 187919, Note_on_c, 9, 38, 0
1, 187920, Note_on_c, 9, 46, 105
1, 187920, Note_on_c, 9, 36, 113
1, 187932, Note_on_c, 9, 46, 0
1, 188159, Note_on_c, 9, 36, 0
1, 188160, Note_on_c, 9, 42, 95
1, 188160, Note_on_c, 9, 36, 110
1, 188185, Note_on_c, 9, 42, 0
1, 188399, Note_on_c, 9, 36, 0
1, 188400, Note_on_c, 9, 44, 87
1, 188412, Note_on_c, 9, 44, 0
1, 188640, Note_on_c, 9, 38, 112
1, 188640, Note_on_c, 9, 42, 75
1, 188665, Note_on_c, 9, 42, 0
1, 188880, Note_on_c, 9, 44, 71
1, 188892, Note_on_c, 9, 44, 0
1, 189119, Note_on_c, 9, 38, 0
1, 189120, Note_on_c, 9, 42, 76
1, 189145, Note_on_c, 9, 42, 0
1, 189360, Note_on_c, 9, 44, 78
1, 189360, Note_on_c, 9, 36, 107
1, 189372, Note_on_c, 9, 44, 0
1, 189599, Note_on_c, 9, 36, 0
1, 189600, Note_on_c, 9, 38, 110
1, 189600, Note_on_c, 9, 46, 108
1, 189600, Note_on_c, 9, 42, 88
1, 189625, Note_on_c, 9, 46, 0
1, 189625, Note_on_c, 9, 42, 0
1, 189840, Note_on_c, 9, 36, 110
1, 190079, Note_on_c, 9, 38, 0
1, 190079, Note_on_c, 9, 36, 0
1, 190080, Note_on_c, 9, 42, 95
1, 190080, Note_on_c, 9, 36, 110
1, 190105, Note_on_c, 9, 42, 0
1, 190319, Note_on_c, 9, 36, 0
1, 190320, Note_on_c, 9, 44, 71
1, 190332, Note_on_c, 9, 44, 0
1, 190560, Note_on_c, 9, 38, 112
1, 190560, Note_on_c, 9, 46, 112
1, 190572, Note_on_c, 9, 46, 0
1, 190799, Note_on_c, 9, 38, 0
1, 190800, Note_on_c, 9, 42, 88
1, 190812, Note_on_c, 9, 42, 0
1, 191040, Note_on_c, 9, 46, 107
1, 191052, Note_on_c, 9, 46, 0
1, 191280, Note_on_c, 9, 42, 79
1, 191280, Note_on_c, 9, 36, 114
1, 191292, Note_on_c, 9, 42, 0
1, 191519, Note_on_c, 9, 36, 0
1, 191520, Note_on_c, 9, 38, 108
1, 191520, Note_on_c, 9, 46, 105
1, 191545, Note_on_c, 9, 46, 0
1, 191760, Note_on_c, 9, 36, 106
1, 191999, Note_on_c, 9, 38, 0
1, 191999, Note_on_c, 9, 36, 0
1, 192000, Note_on_c, 9, 42, 95
1, 192000, Note_on_c, 9, 36, 110
1, 192012, Note_on_c, 9, 42, 0
1, 192240, Note_on_c, 9, 42, 87
1, 192252, Note_on_c, 9, 42, 0
1, 192479, Note_on_c, 9, 36, 0
1, 192480, Note_on_c, 9, 38, 114
1, 192480, Note_on_c, 9, 42, 88
1, 192492, Note_on_c, 9, 42, 0
1, 192719, Note_on_c, 9, 38, 0
1, 192720, Note_on_c, 9, 42, 66
1, 192732, Note_on_c, 9, 42, 0
1, 192960, Note_on_c, 9, 46, 108
1, 192972, Note_on_c, 9, 46, 0
1, 193200, Note_on_c, 9, 42, 81
1, 193212, Note_on_c, 9, 42, 0
1, 193440, Note_on_c, 9, 38, 105
1, 193440, Note_on_c, 9, 46, 110
1, 193465, Note_on_c, 9, 46, 0
1, 193680, Note_on_c, 9, 36, 108
1, 193919, Note_on_c, 9, 38, 0
1, 193919, Note_on_c, 9, 36, 0
1, 193920, Note_on_c, 9, 42, 95
1, 193920, Note_on_c, 9, 36, 110
1, 193932, Note_on_c, 9, 42, 0
1, 194160, Note_on_c, 9, 42, 76
1, 194172, Note_on_c, 9, 42, 0
1, 194399, Note_on_c, 9, 36, 0
1, 194400, Note_on_c, 9, 38, 111
1, 194400, Note_on_c, 9, 42, 82
1, 194412, Note_on_c, 9, 42, 0
1, 194639, Note_on_c, 9, 38, 0
1, 194640, Note_on_c, 9, 42, 74
1, 194652, Note_on_c, 9, 42, 0
1, 194880, Note_on_c, 9, 42, 70
1, 194905, Note_on_c, 9, 42, 0
1, 195120, Note_on_c, 9, 36, 112
1, 195359, Note_on_c, 9, 36, 0
1, 195360, Note_on_c, 9, 38, 108
1, 195360, Note_on_c, 9, 42, 66
1, 195385, Note_on_c, 9, 42, 0
1, 195839, Note_on_c, 9, 38, 0
1, 195840, Note_on_c, 9, 46, 106
1, 195865, Note_on_c, 9, 46, 0
1, 196800, Note_on_c, 9, 42, 73
1, 196825, Note_on_c, 9, 42, 0
1, 197280, Note_on_c, 9, 38, 112
1, 197280, Note_on_c, 9, 46, 109
1, 197280, Note_on_c, 9, 55, 70
1, 197280, Note_on_c, 9, 36, 111
1, 197305, Note_on_c, 9, 46, 0
1, 197305, Note_on_c, 9, 55, 0
1, 197759, Note_on_c, 9, 38, 0
1, 197759, Note_on_c, 9, 36, 0
1, 197760, Note_on_c, 9, 42, 95
1, 197785, Note_on_c, 9, 42, 0
1, 198240, Note_on_c, 9, 38, 111
1, 198240, Note_on_c, 9, 42, 89
1, 198265, Note_on_c, 9, 42, 0
1, 198480, Note_on_c, 9, 44, 80
1, 198492, Note_on_c, 9, 44, 0
1, 198719, Note_on_c, 9, 38, 0
1, 198720, Note_on_c, 9, 42, 81
1, 198745, Note_on_c, 9, 42, 0
1, 198960, Note_on_c, 9, 44, 65
1, 198960, Note_on_c, 9, 36, 109
1, 198965, Note_on_c, 9, 44, 0
1, 199079, Note_on_c, 9, 36, 0
1, 199080, Note_on_c, 9, 44, 78
1, 199085, Note_on_c, 9, 44, 0
1, 199200, Note_on_c, 9, 38, 106
1, 199200, Note_on_c, 9, 42, 78
1, 199212, Note_on_c, 9, 42, 0
1, 199439, Note_on_c, 9, 38, 0
1, 199440, Note_on_c, 9, 46, 108
1, 199440, Note_on_c, 9, 36, 115
1, 199452, Note_on_c, 9, 46, 0
1, 199679, Note_on_c, 9, 36, 0
1, 199680, Note_on_c, 9, 42, 95
1, 199705, Note_on_c, 9, 42, 0
1, 199920, Note_on_c, 9, 44, 86
1, 199932, Note_on_c, 9, 44, 0
1, 200160, Note_on_c, 9, 38, 115
1, 200160, Note_on_c, 9, 42, 74
1, 200185, Note_on_c, 9, 42, 0
1, 200400, Note_on_c, 9, 44, 82
1, 200412, Note_on_c, 9, 44, 0
1, 200639, Note_on_c, 9, 38, 0
1, 200640, Note_on_c, 9, 50, 96
1, 200640, Note_on_c, 9, 42, 83
1, 200645, Note_on_c, 9, 42, 0
1, 200759, Note_on_c, 9, 50, 0
1, 200760, Note_on_c, 9, 50, 107
1, 200879, Note_on_c, 9, 50, 0
1, 200880, Note_on_c, 9, 47, 96
1, 200880, Note_on_c, 9, 44, 83
1, 200892, Note_on_c, 9, 44, 0
1, 200999, Note_on_c, 9, 47, 0
1, 201000, Note_on_c, 9, 50, 108
1, 201119, Note_on_c, 9, 50, 0
1, 201120, Note_on_c, 9, 47, 105
1, 201120, Note_on_c, 9, 44, 88
1, 201132, Note_on_c, 9, 44, 0
1, 201359, Note_on_c, 9, 47, 0
1, 201360, Note_on_c, 9, 45, 105
1, 201360, Note_on_c, 9, 44, 89
1, 201360, Note_on_c, 9, 36, 113
1, 201372, Note_on_c, 9, 44, 0
1, 201599, Note_on_c, 9, 45, 0
1, 201599, Note_on_c, 9, 36, 0
1, 201600, Note_on_c, 9, 46, 108
1, 201600, Note_on_c, 9, 36, 110
1, 201625, Note_on_c, 9, 46, 0
1, 201839, Note_on_c, 9, 36, 0
1, 201840, Note_on_c, 9, 44, 80
1, 201852, Note_on_c, 9, 44, 0
1, 202080, Note_on_c, 9, 38, 109
1, 202080, Note_on_c, 9, 42, 75
1, 202105, Note_on_c, 9, 42, 0
1, 202320, Note_on_c, 9, 44, 83
1, 202332, Note_on_c, 9, 44, 0
1, 202559, Note_on_c, 9, 38, 0
1, 202560, Note_on_c, 9, 42, 66
1, 202585, Note_on_c, 9, 42, 0
1, 202800, Note_on_c, 9, 44, 90
1, 202800, Note_on_c, 9, 36, 105
1, 202805, Note_on_c, 9, 44, 0
1, 202919, Note_on_c, 9, 36, 0
1, 202920, Note_on_c, 9, 44, 74
1, 202925, Note_on_c, 9, 44, 0
1, 203040, Note_on_c, 9, 38, 106
1, 203040, Note_on_c, 9, 42, 88
1, 203052, Note_on_c, 9, 42, 0
1, 203279, Note_on_c, 9, 38, 0
1, 203280, Note_on_c, 9, 46, 108
1, 203280, Note_on_c, 9, 36, 109
1, 203292, Note_on_c, 9, 46, 0
1, 203519, Note_on_c, 9, 36, 0
1, 203520, Note_on_c, 9, 42, 95
1, 203520, Note_on_c, 9, 36, 110
1, 203545, Note_on_c, 9, 42, 0
1, 203759, Note_on_c, 9, 36, 0
1, 203760, Note_on_c, 9, 44, 79
1, 203772, Note_on_c, 9, 44, 0
1, 204000, Note_on_c, 9, 38, 111
1, 204000, Note_on_c, 9, 42, 73
1, 204025, Note_on_c, 9, 42, 0
1, 204240, Note_on_c, 9, 44, 71
1, 204252, Note_on_c, 9, 44, 0
1, 204479, Note_on_c, 9, 38, 0
1, 204480, Note_on_c, 9, 42, 80
1, 204505, Note_on_c, 9, 42, 0
1, 204720, Note_on_c, 9, 44, 70
1, 204720, Note_on_c, 9, 36, 108
1, 204732, Note_on_c, 9, 44, 0
1, 204959, Note_on_c, 9, 36, 0
1, 204960, Note_on_c, 9, 38, 106
1, 204960, Note_on_c, 9, 42, 85
1, 204972, Note_on_c, 9, 42, 0
1, 205199, Note_on_c, 9, 38, 0
1, 205200, Note_on_c, 9, 46, 107
1, 205200, Note_on_c, 9, 36, 107
1, 205212, Note_on_c, 9, 46, 0
1, 205439, Note_on_c, 9, 36, 0
1, 205440, Note_on_c, 9, 42, 95
1, 205440, Note_on_c, 9, 36, 110
1, 205465, Note_on_c, 9, 42, 0
1, 205679, Note_on_c, 9, 36, 0
1, 205680, Note_on_c, 9, 44, 68
1, 205692, Note_on_c, 9, 44, 0
1, 205920, Note_on_c, 9, 38, 106
1, 205920, Note_on_c, 9, 42, 89
1, 205945, Note_on_c, 9, 42, 0
1, 206160, Note_on_c, 9, 44, 70
1, 206172, Note_on_c, 9, 44, 0
1, 206399, Note_on_c, 9, 38, 0
1, 206400, Note_on_c, 9, 42, 66
1, 206425, Note_on_c, 9, 42, 0
1, 206640, Note_on_c, 9, 44, 75
1, 206640, Note_on_c, 9, 36, 113
1, 206652, Note_on_c, 9, 44, 0
1, 206879, Note_on_c, 9, 36, 0
1, 206880, Note_on_c, 9, 38, 110
1, 206880, Note_on_c, 9, 42, 81
1, 206892, Note_on_c, 9, 42, 0
1, 207119, Note_on_c, 9, 38, 0
1, 207120, Note_on_c, 9, 46, 105
1, 207120, Note_on_c, 9, 36, 107
1, 207132, Note_on_c, 9, 46, 0
1, 207359, Note_on_c, 9, 36, 0
1, 207360, Note_on_c, 9, 42, 95
1, 207360, Note_on_c, 9, 36, 110
1, 207385, Note_on_c, 9, 42, 0
1, 207599, Note_on_c, 9, 36, 0
1, 207600, Note_on_c, 9, 44, 85
1, 207612, Note_on_c, 9, 44, 0
1, 207840, Note_on_c, 9, 38, 112
1, 207840, Note_on_c, 9, 42, 70
1, 207865, Note_on_c, 9, 42, 0
1, 208080, Note_on_c, 9, 44, 87
1, 208092, Note_on_c, 9, 44, 0
1, 208319, Note_on_c, 9, 38, 0
1, 208320, Note_on_c, 9, 42, 84
1, 208345, Note_on_c, 9, 42, 0
1, 208560, Note_on_c, 9, 44, 80
1, 208560, Note_on_c, 9, 36, 109
1, 208565, Note_on_c, 9, 44, 0
1, 208679, Note_on_c, 9, 36, 0
1, 208680, Note_on_c, 9, 44, 76
1, 208685, Note_on_c, 9, 44, 0
1, 208800, Note_on_c, 9, 38, 108
1, 208800, Note_on_c, 9, 42, 76
1, 208812, Note_on_c, 9, 42, 0
1, 209039, Note_on_c, 9, 38, 0
1, 209040, Note_on_c, 9, 46, 106
1, 209040, Note_on_c, 9, 36, 115
1, 209052, Note_on_c, 9, 46, 0
1, 209279, Note_on_c, 9, 36, 0
1, 209280, Note_on_c, 9, 42, 95
1, 209280, Note_on_c, 9, 36, 110
1, 209305, Note_on_c, 9, 42, 0
1, 209519, Note_on_c, 9, 36, 0
1, 209520, Note_on_c, 9, 44, 74
1, 209532, Note_on_c, 9, 44, 0
1, 209760, Note_on_c, 9, 38, 115
1, 209760, Note_on_c, 9, 42, 72
1, 209785, Note_on_c, 9, 42, 0
1, 210000, Note_on_c, 9, 44, 68
1, 210012, Note_on_c, 9, 44, 0
1, 210239, Note_on_c, 9, 38, 0
1, 210240, Note_on_c, 9, 42, 70
1, 210265, Note_on_c, 9, 42, 0
1, 210480, Note_on_c, 9, 44, 90
1, 210480, Note_on_c, 9, 36, 110
1, 210492, Note_on_c, 9, 44, 0
1, 210719, Note_on_c, 9, 36, 0
1, 210720, Note_on_c, 9, 38, 107
1, 210720, Note_on_c, 9, 42, 75
1, 210732, Note_on_c, 9, 42, 0
1, 210959, Note_on_c, 9, 38, 0
1, 210960, Note_on_c, 9, 46, 109
1, 210960, Note_on_c, 9, 36, 107
1, 210972, Note_on_c, 9, 46, 0
1, 211199, Note_on_c, 9, 36, 0
1, 211200, Note_on_c, 9, 42, 95
1, 211200, Note_on_c, 9, 36, 110
1, 211225, Note_on_c, 9, 42, 0
1, 211439, Note_on_c, 9, 36, 0
1, 211440, Note_on_c, 9, 44, 87
1, 211452, Note_on_c, 9, 44, 0
1, 211680, Note_on_c, 9, 38, 112
1, 211680, Note_on_c, 9, 42, 85
1, 211705, Note_on_c, 9, 42, 0
1, 211920, Note_on_c, 9, 44, 73
1, 211932, Note_on_c, 9, 44, 0
1, 212159, Note_on_c, 9, 38, 0
1, 212160, Note_on_c, 9, 42, 75
1, 212185, Note_on_c, 9, 42, 0
1, 212400, Note_on_c, 9, 44, 79
1, 212400, Note_on_c, 9, 36, 108
1, 212412, Note_on_c, 9, 44, 0
1, 212639, Note_on_c, 9, 36, 0
1, 212640, Note_on_c, 9, 38, 107
1, 212640, Note_on_c, 9, 42, 85
1, 212652, Note_on_c, 9, 42, 0
1, 212879, Note_on_c, 9, 38, 0
1, 212880, Note_on_c, 9, 46, 110
1, 212880, Note_on_c, 9, 36, 115
1, 212892, Note_on_c, 9, 46, 0
1, 213119, Note_on_c, 9, 36, 0
1, 213120, Note_on_c, 9, 42, 95
1, 213120, Note_on_c, 9, 55, 100
1, 213120, Note_on_c, 9, 36, 110
1, 213138, Note_on_c, 9, 42, 0
1, 213138, Note_on_c, 9, 55, 0
1, 213359, Note_on_c, 9, 36, 0
1, 213360, Note_on_c, 9, 44, 86
1, 213372, Note_on_c, 9, 44, 0
1, 213480, Note_on_c, 9, 38, 115
1, 213599, Note_on_c, 9, 38, 0
1, 213600, Note_on_c, 9, 38, 114
1, 213720, Note_on_c, 9, 44, 80
1, 213725, Note_on_c, 9, 44, 0
1, 213840, Note_on_c, 9, 44, 71
1, 213852, Note_on_c, 9, 44, 0
1, 213959, Note_on_c, 9, 38, 0
1, 213960, Note_on_c, 9, 38, 114
1, 214079, Note_on_c, 9, 38, 0
1, 214080, Note_on_c, 9, 38, 111
1, 214200, Note_on_c, 9, 44, 86
1, 214205, Note_on_c, 9, 44, 0
1, 214320, Note_on_c, 9, 44, 82
1, 214320, Note_on_c, 9, 36, 105
1, 214332, Note_on_c, 9, 44, 0
1, 214439, Note_on_c, 9, 38, 0
1, 214440, Note_on_c, 9, 38, 111
1, 214559, Note_on_c, 9, 36, 0
1, 214559, Note_on_c, 9, 38, 0
1, 214560, Note_on_c, 9, 38, 107
1, 214680, Note_on_c, 9, 44, 89
1, 214685, Note_on_c, 9, 44, 0
1, 214799, Note_on_c, 9, 38, 0
1, 214800, Note_on_c, 9, 46, 109
1, 214800, Note_on_c, 9, 36, 114
1, 214805, Note_on_c, 9, 46, 0
1, 214920, Note_on_c, 9, 38, 115
1, 215039, Note_on_c, 9, 36, 0
1, 215039, Note_on_c, 9, 38, 0
1, 215040, Note_on_c, 9, 42, 95
1, 215040, Note_on_c, 9, 36, 110
1, 215065, Note_on_c, 9, 42, 0
1, 215279, Note_on_c, 9, 36, 0
1, 215280, Note_on_c, 9, 44, 80
1, 215280, Note_on_c, 9, 43, 105
1, 215292, Note_on_c, 9, 44, 0
1, 215519, Note_on_c, 9, 43, 0
1, 215520, Note_on_c, 9, 42, 85
1, 215520, Note_on_c, 9, 43, 106
1, 215532, Note_on_c, 9, 42, 0
1, 215639, Note_on_c, 9, 43, 0
1, 215640, Note_on_c, 9, 43, 103
1, 215759, Note_on_c, 9, 43, 0
1, 215760, Note_on_c, 9, 38, 113
1, 215760, Note_on_c, 9, 44, 66
1, 215772, Note_on_c, 9, 44, 0
1, 215879, Note_on_c, 9, 38, 0
1, 215880, Note_on_c, 9, 41, 110
1, 215999, Note_on_c, 9, 41, 0
1, 216000, Note_on_c, 9, 42, 67
1, 216000, Note_on_c, 9, 36, 115
1, 216012, Note_on_c, 9, 42, 0
1, 216119, Note_on_c, 9, 36, 0
1, 216120, Note_on_c, 9, 43, 102
1, 216239, Note_on_c, 9, 43, 0
1, 216240, Note_on_c, 9, 41, 108
1, 216240, Note_on_c, 9, 44, 86
1, 216240, Note_on_c, 9, 36, 115
1, 216245, Note_on_c, 9, 44, 0
1, 216359, Note_on_c, 9, 41, 0
1, 216359, Note_on_c, 9, 36, 0
1, 216360, Note_on_c, 9, 41, 102
1, 216360, Note_on_c, 9, 44, 67
1, 216365, Note_on_c, 9, 44, 0
1, 216479, Note_on_c, 9, 41, 0
1, 216480, Note_on_c, 9, 38, 110
1, 216480, Note_on_c, 9, 42, 78
1, 216485, Note_on_c, 9, 42, 0
1, 216599, Note_on_c, 9, 38, 0
1, 216600, Note_on_c, 9, 41, 107
1, 216719, Note_on_c, 9, 41, 0
1, 216720, Note_on_c, 9, 41, 106
1, 216720, Note_on_c, 9, 46, 108
1, 216720, Note_on_c, 9, 36, 106
1, 216732, Note_on_c, 9, 46, 0
1, 216839, Note_on_c, 9, 36, 0
1, 216840, Note_on_c, 9, 43, 96
1, 216959, Note_on_c, 9, 41, 0
1, 216959, Note_on_c, 9, 43, 0
1, 216960, Note_on_c, 9, 55, 100
1, 216960, Note_on_c, 9, 36, 110
1, 216985, Note_on_c, 9, 55, 0
1, 217199, Note_on_c, 9, 36, 0
1, 217200, Note_on_c, 9, 44, 77
1, 217212, Note_on_c, 9, 44, 0
1, 217440, Note_on_c, 9, 38, 107
1, 217440, Note_on_c, 9, 42, 78
1, 217465, Note_on_c, 9, 42, 0
1, 217680, Note_on_c, 9, 44, 88
1, 217692, Note_on_c, 9, 44, 0
1, 217919, Note_on_c, 9, 38, 0
1, 217920, Note_on_c, 9, 42, 74
1, 217945, Note_on_c, 9, 42, 0
1, 218160, Note_on_c, 9, 44, 68
1, 218160, Note_on_c, 9, 36, 111
1, 218172, Note_on_c, 9, 44, 0
1, 218399, Note_on_c, 9, 36, 0
1, 218400, Note_on_c, 9, 38, 110
1, 218400, Note_on_c, 9, 42, 81
1, 218405, Note_on_c, 9, 42, 0
1, 218519, Note_on_c, 9, 38, 0
1, 218520, Note_on_c, 9, 46, 105
1, 218520, Note_on_c, 9, 36, 109
1, 218538, Note_on_c, 9, 46, 0
1, 218879, Note_on_c, 9, 36, 0
1, 218880, Note_on_c, 9, 42, 95
1, 218880, Note_on_c, 9, 36, 110
1, 218905, Note_on_c, 9, 42, 0
1, 219119, Note_on_c, 9, 36, 0
1, 219120, Note_on_c, 9, 44, 82
1, 219132, Note_on_c, 9, 44, 0
1, 219360, Note_on_c, 9, 38, 106
1, 219360, Note_on_c, 9, 42, 81
1, 219385, Note_on_c, 9, 42, 0
1, 219600, Note_on_c, 9, 44, 83
1, 219612, Note_on_c, 9, 44, 0
1, 219839, Note_on_c, 9, 38, 0
1, 219840, Note_on_c, 9, 42, 90
1, 219865, Note_on_c, 9, 42, 0
1, 220080, Note_on_c, 9, 44, 90
1, 220080, Note_on_c, 9, 36, 107
1, 220092, Note_on_c, 9, 44, 0
1, 220319, Note_on_c, 9, 36, 0
1, 220320, Note_on_c, 9, 38, 111
1, 220320, Note_on_c, 9, 42, 74
1, 220325, Note_on_c, 9, 42, 0
1, 220439, Note_on_c, 9, 38, 0
1, 220440, Note_on_c, 9, 46, 106
1, 220440, Note_on_c, 9, 36, 107
1, 220458, Note_on_c, 9, 46, 0
1, 220799, Note_on_c, 9, 36, 0
1, 221280, Note_on_c, 9, 46, 112
1, 221280, Note_on_c, 9, 36, 108
1, 221282, Note_on_c, 9, 46, 0
1, 221340, Note_on_c, 9, 46, 108
1, 221342, Note_on_c, 9, 46, 0
1, 221400, Note_on_c, 9, 46, 109
1, 221402, Note_on_c, 9, 46, 0
1, 221459, Note_on_c, 9, 36, 0
1, 221460, Note_on_c, 9, 46, 105
1, 221460, Note_on_c, 9, 36, 112
1, 221462, Note_on_c, 9, 46, 0
1, 221519, Note_on_c, 9, 36, 0
1, 221520, Note_on_c, 9, 46, 109
1, 221522, Note_on_c, 9, 46, 0
1, 221580, Note_on_c, 9, 46, 110
1, 221582, Note_on_c, 9, 46, 0
1, 221640, Note_on_c, 9, 46, 110
1, 221640, Note_on_c, 9, 36, 107
1, 221642, Note_on_c, 9, 46, 0
1, 221700, Note_on_c, 9, 46, 107
1, 221702, Note_on_c, 9, 46, 0
1, 221759, Note_on_c, 9, 36, 0
1, 221760, Note_on_c, 9, 46, 107
1, 221762, Note_on_c, 9, 46, 0
1, 221820, Note_on_c, 9, 46, 107
1, 221820, Note_on_c, 9, 36, 115
1, 221822, Note_on_c, 9, 46, 0
1, 221880, Note_on_c, 9, 46, 105
1, 221898, Note_on_c, 9, 46, 0
1, 221999, Note_on_c, 9, 36, 0
1, 222000, End_track
0, 0, End_of_file
