0, 0, Header, 1, 1, 480
1, 0, Start_track
1, 0, Title_t, "Drumset"
1, 0, Time_signature, 4, 2, 24, 8
1, 0, Key_signature, 0, "major"
1, 0, Tempo, 487805
1, 0, Control_c, 9, 121, 0
1, 0, Program_c, 9, 0
1, 0, Control_c, 9, 7, 100
1, 0, Control_c, 9, 10, 64
1, 0, Control_c, 9, 91, 0
1, 0, Control_c, 9, 93, 0
1, 0, MIDI_port, 0
1, 8160, Note_on_c, 9, 42, 40
1, 8182, Note_on_c, 9, 42, 0
1, 9120, Note_on_c, 9, 42, 40
1, 9142, Note_on_c, 9, 42, 0
1, 10080, Note_on_c, 9, 42, 40
1, 10102, Note_on_c, 9, 42, 0
1, 11040, Note_on_c, 9, 42, 40
1, 11062, Note_on_c, 9, 42, 0
1, 12000, Note_on_c, 9, 42, 40
1, 12022, Note_on_c, 9, 42, 0
1, 12960, Note_on_c, 9, 42, 40
1, 12982, Note_on_c, 9, 42, 0
1, 13920, Note_on_c, 9, 42, 40
1, 13942, Note_on_c, 9, 42, 0
1, 14640, Note_on_c, 9, 42, 40
1, 14641, Note_on_c, 9, 42, 0
1, 14720, Note_on_c, 9, 42, 40
1, 14720, Note_on_c, 9, 42, 0
1, 14800, Note_on_c, 9, 42, 40
1, 14800, Note_on_c, 9, 42, 0
1, 14880, Note_on_c, 9, 42, 40
1, 14902, Note_on_c, 9, 42, 0
1, 15840, Note_on_c, 9, 42, 40
1, 15862, Note_on_c, 9, 42, 0
1, 16800, Note_on_c, 9, 42, 40
1, 16822, Note_on_c, 9, 42, 0
1, 17760, Note_on_c, 9, 42, 40
1, 17782, Note_on_c, 9, 42, 0
1, 18720, Note_on_c, 9, 42, 40
1, 18742, Note_on_c, 9, 42, 0
1, 19680, Note_on_c, 9, 42, 40
1, 19702, Note_on_c, 9, 42, 0
1, 20640, Note_on_c, 9, 42, 40
1, 20662, Note_on_c, 9, 42, 0
1, 21120, Note_on_c, 9, 42, 40
1, 21142, Note_on_c, 9, 42, 0
1, 21600, Note_on_c, 9, 42, 40
1, 21622, Note_on_c, 9, 42, 0
1, 22080, Note_on_c, 9, 42, 40
1, 22102, Note_on_c, 9, 42, 0
1, 22560, Note_on_c, 9, 42, 40
1, 22582, Note_on_c, 9, 42, 0
1, 23040, Note_on_c, 9, 41, 120
1, 23040, Note_on_c, 9, 36, 120
1, 23279, Note_on_c, 9, 41, 0
1, 23280, Note_on_c, 9, 41, 120
1, 23519, Note_on_c, 9, 36, 0
1, 23519, Note_on_c, 9, 41, 0
1, 23520, Note_on_c, 9, 41, 120
1, 23520, Note_on_c, 9, 45, 120
1, 23520, Note_on_c, 9, 36, 120
1, 23759, Note_on_c, 9, 41, 0
1, 23759, Note_on_c, 9, 45, 0
1, 23760, Note_on_c, 9, 41, 120
1, 23999, Note_on_c, 9, 36, 0
1, 23999, Note_on_c, 9, 41, 0
1, 24000, Note_on_c, 9, 41, 120
1, 24000, Note_on_c, 9, 36, 120
1, 24239, Note_on_c, 9, 41, 0
1, 24240, Note_on_c, 9, 41, 120
1, 24479, Note_on_c, 9, 36, 0
1, 24479, Note_on_c, 9, 41, 0
1, 24480, Note_on_c, 9, 41, 120
1, 24480, Note_on_c, 9, 45, 120
1, 24480, Note_on_c, 9, 36, 120
1, 24719, Note_on_c, 9, 41, 0
1, 24719, Note_on_c, 9, 45, 0
1, 24719, Note_on_c, 9, 36, 0
1, 24720, Note_on_c, 9, 41, 120
1, 24720, Note_on_c, 9, 43, 120
1, 24959, Note_on_c, 9, 41, 0
1, 24959, Note_on_c, 9, 43, 0
1, 24960, Note_on_c, 9, 41, 120
1, 24960, Note_on_c, 9, 36, 120
1, 25199, Note_on_c, 9, 41, 0
1, 25200, Note_on_c, 9, 41, 120
1, 25439, Note_on_c, 9, 36, 0
1, 25439, Note_on_c, 9, 41, 0
1, 25440, Note_on_c, 9, 41, 120
1, 25440, Note_on_c, 9, 45, 120
1, 25440, Note_on_c, 9, 36, 120
1, 25679, Note_on_c, 9, 41, 0
1, 25679, Note_on_c, 9, 45, 0
1, 25680, Note_on_c, 9, 41, 120
1, 25919, Note_on_c, 9, 36, 0
1, 25919, Note_on_c, 9, 41, 0
1, 25920, Note_on_c, 9, 41, 120
1, 25920, Note_on_c, 9, 36, 120
1, 26159, Note_on_c, 9, 41, 0
1, 26160, Note_on_c, 9, 41, 120
1, 26399, Note_on_c, 9, 36, 0
1, 26399, Note_on_c, 9, 41, 0
1, 26400, Note_on_c, 9, 41, 120
1, 26400, Note_on_c, 9, 45, 120
1, 26400, Note_on_c, 9, 36, 120
1, 26639, Note_on_c, 9, 41, 0
1, 26639, Note_on_c, 9, 45, 0
1, 26639, Note_on_c, 9, 36, 0
1, 26640, Note_on_c, 9, 41, 120
1, 26640, Note_on_c, 9, 43, 120
1, 26879, Note_on_c, 9, 41, 0
1, 26879, Note_on_c, 9, 43, 0
1, 26880, Note_on_c, 9, 41, 120
1, 26880, Note_on_c, 9, 36, 120
1, 27119, Note_on_c, 9, 41, 0
1, 27120, Note_on_c, 9, 41, 120
1, 27359, Note_on_c, 9, 36, 0
1, 27359, Note_on_c, 9, 41, 0
1, 27360, Note_on_c, 9, 41, 120
1, 27360, Note_on_c, 9, 45, 120
1, 27360, Note_on_c, 9, 36, 120
1, 27599, Note_on_c, 9, 41, 0
1, 27599, Note_on_c, 9, 45, 0
1, 27600, Note_on_c, 9, 41, 120
1, 27839, Note_on_c, 9, 36, 0
1, 27839, Note_on_c, 9, 41, 0
1, 27840, Note_on_c, 9, 41, 120
1, 27840, Note_on_c, 9, 36, 120
1, 28079, Note_on_c, 9, 41, 0
1, 28080, Note_on_c, 9, 41, 120
1, 28319, Note_on_c, 9, 36, 0
1, 28319, Note_on_c, 9, 41, 0
1, 28320, Note_on_c, 9, 41, 120
1, 28320, Note_on_c, 9, 45, 120
1, 28320, Note_on_c, 9, 36, 120
1, 28559, Note_on_c, 9, 41, 0
1, 28559, Note_on_c, 9, 45, 0
1, 28559, Note_on_c, 9, 36, 0
1, 28560, Note_on_c, 9, 41, 120
1, 28560, Note_on_c, 9, 43, 120
1, 28799, Note_on_c, 9, 41, 0
1, 28799, Note_on_c, 9, 43, 0
1, 28800, Note_on_c, 9, 41, 120
1, 28800, Note_on_c, 9, 36, 120
1, 29039, Note_on_c, 9, 41, 0
1, 29040, Note_on_c, 9, 41, 120
1, 29279, Note_on_c, 9, 36, 0
1, 29279, Note_on_c, 9, 41, 0
1, 29280, Note_on_c, 9, 41, 120
1, 29280, Note_on_c, 9, 45, 120
1, 29280, Note_on_c, 9, 36, 120
1, 29519, Note_on_c, 9, 41, 0
1, 29519, Note_on_c, 9, 45, 0
1, 29520, Note_on_c, 9, 41, 120
1, 29759, Note_on_c, 9, 36, 0
1, 29759, Note_on_c, 9, 41, 0
1, 29760, Note_on_c, 9, 41, 120
1, 29760, Note_on_c, 9, 36, 120
1, 29999, Note_on_c, 9, 41, 0
1, 30000, Note_on_c, 9, 41, 120
1, 30239, Note_on_c, 9, 36, 0
1, 30239, Note_on_c, 9, 41, 0
1, 30240, Note_on_c, 9, 41, 120
1, 30240, Note_on_c, 9, 45, 120
1, 30240, Note_on_c, 9, 36, 120
1, 30479, Note_on_c, 9, 41, 0
1, 30479, Note_on_c, 9, 45, 0
1, 30480, Note_on_c, 9, 38, 120
1, 30480, Note_on_c, 9, 49, 60
1, 30490, Note_on_c, 9, 49, 0
1, 30719, Note_on_c, 9, 36, 0
1, 30719, Note_on_c, 9, 38, 0
1, 30720, Note_on_c, 9, 41, 120
1, 30720, Note_on_c, 9, 36, 120
1, 30959, Note_on_c, 9, 41, 0
1, 30960, Note_on_c, 9, 41, 120
1, 31199, Note_on_c, 9, 36, 0
1, 31199, Note_on_c, 9, 41, 0
1, 31200, Note_on_c, 9, 41, 120
1, 31200, Note_on_c, 9, 45, 120
1, 31200, Note_on_c, 9, 36, 120
1, 31439, Note_on_c, 9, 41, 0
1, 31439, Note_on_c, 9, 45, 0
1, 31440, Note_on_c, 9, 41, 120
1, 31679, Note_on_c, 9, 36, 0
1, 31679, Note_on_c, 9, 41, 0
1, 31680, Note_on_c, 9, 41, 120
1, 31680, Note_on_c, 9, 36, 120
1, 31919, Note_on_c, 9, 41, 0
1, 31920, Note_on_c, 9, 41, 120
1, 32159, Note_on_c, 9, 36, 0
1, 32159, Note_on_c, 9, 41, 0
1, 32160, Note_on_c, 9, 41, 120
1, 32160, Note_on_c, 9, 45, 120
1, 32160, Note_on_c, 9, 36, 120
1, 32399, Note_on_c, 9, 41, 0
1, 32399, Note_on_c, 9, 45, 0
1, 32399, Note_on_c, 9, 36, 0
1, 32400, Note_on_c, 9, 41, 120
1, 32400, Note_on_c, 9, 43, 120
1, 32639, Note_on_c, 9, 41, 0
1, 32639, Note_on_c, 9, 43, 0
1, 32640, Note_on_c, 9, 41, 120
1, 32640, Note_on_c, 9, 36, 120
1, 32879, Note_on_c, 9, 41, 0
1, 32880, Note_on_c, 9, 41, 120
1, 33119, Note_on_c, 9, 36, 0
1, 33119, Note_on_c, 9, 41, 0
1, 33120, Note_on_c, 9, 41, 120
1, 33120, Note_on_c, 9, 45, 120
1, 33120, Note_on_c, 9, 36, 120
1, 33359, Note_on_c, 9, 41, 0
1, 33359, Note_on_c, 9, 45, 0
1, 33360, Note_on_c, 9, 41, 120
1, 33599, Note_on_c, 9, 36, 0
1, 33599, Note_on_c, 9, 41, 0
1, 33600, Note_on_c, 9, 41, 120
1, 33600, Note_on_c, 9, 36, 120
1, 33839, Note_on_c, 9, 41, 0
1, 33840, Note_on_c, 9, 41, 120
1, 34079, Note_on_c, 9, 36, 0
1, 34079, Note_on_c, 9, 41, 0
1, 34080, Note_on_c, 9, 41, 120
1, 34080, Note_on_c, 9, 45, 120
1, 34080, Note_on_c, 9, 36, 120
1, 34319, Note_on_c, 9, 41, 0
1, 34319, Note_on_c, 9, 45, 0
1, 34319, Note_on_c, 9, 36, 0
1, 34320, Note_on_c, 9, 41, 120
1, 34320, Note_on_c, 9, 43, 120
1, 34559, Note_on_c, 9, 41, 0
1, 34559, Note_on_c, 9, 43, 0
1, 34560, Note_on_c, 9, 41, 120
1, 34560, Note_on_c, 9, 36, 120
1, 34799, Note_on_c, 9, 41, 0
1, 34800, Note_on_c, 9, 41, 120
1, 35039, Note_on_c, 9, 36, 0
1, 35039, Note_on_c, 9, 41, 0
1, 35040, Note_on_c, 9, 41, 120
1, 35040, Note_on_c, 9, 45, 120
1, 35040, Note_on_c, 9, 36, 120
1, 35279, Note_on_c, 9, 41, 0
1, 35279, Note_on_c, 9, 45, 0
1, 35280, Note_on_c, 9, 41, 120
1, 35519, Note_on_c, 9, 36, 0
1, 35519, Note_on_c, 9, 41, 0
1, 35520, Note_on_c, 9, 41, 120
1, 35520, Note_on_c, 9, 36, 120
1, 35759, Note_on_c, 9, 41, 0
1, 35760, Note_on_c, 9, 41, 120
1, 35999, Note_on_c, 9, 36, 0
1, 35999, Note_on_c, 9, 41, 0
1, 36000, Note_on_c, 9, 41, 120
1, 36000, Note_on_c, 9, 45, 120
1, 36000, Note_on_c, 9, 36, 120
1, 36239, Note_on_c, 9, 41, 0
1, 36239, Note_on_c, 9, 45, 0
1, 36239, Note_on_c, 9, 36, 0
1, 36240, Note_on_c, 9, 41, 120
1, 36240, Note_on_c, 9, 43, 120
1, 36479, Note_on_c, 9, 41, 0
1, 36479, Note_on_c, 9, 43, 0
1, 36480, Note_on_c, 9, 41, 120
1, 36480, Note_on_c, 9, 36, 120
1, 36719, Note_on_c, 9, 41, 0
1, 36720, Note_on_c, 9, 41, 120
1, 36959, Note_on_c, 9, 36, 0
1, 36959, Note_on_c, 9, 41, 0
1, 36960, Note_on_c, 9, 41, 120
1, 36960, Note_on_c, 9, 45, 120
1, 36960, Note_on_c, 9, 36, 120
1, 37199, Note_on_c, 9, 41, 0
1, 37199, Note_on_c, 9, 45, 0
1, 37200, Note_on_c, 9, 38, 120
1, 37200, Note_on_c, 9, 49, 60
1, 37210, Note_on_c, 9, 49, 0
1, 37439, Note_on_c, 9, 36, 0
1, 37439, Note_on_c, 9, 38, 0
1, 37440, Note_on_c, 9, 41, 120
1, 37440, Note_on_c, 9, 36, 120
1, 37679, Note_on_c, 9, 41, 0
1, 37680, Note_on_c, 9, 41, 120
1, 37919, Note_on_c, 9, 36, 0
1, 37919, Note_on_c, 9, 41, 0
1, 37920, Note_on_c, 9, 41, 120
1, 37920, Note_on_c, 9, 45, 120
1, 37920, Note_on_c, 9, 36, 120
1, 38159, Note_on_c, 9, 41, 0
1, 38159, Note_on_c, 9, 45, 0
1, 38160, Note_on_c, 9, 38, 120
1, 38160, Note_on_c, 9, 49, 60
1, 38170, Note_on_c, 9, 49, 0
1, 38399, Note_on_c, 9, 36, 0
1, 38399, Note_on_c, 9, 38, 0
1, 38400, Note_on_c, 9, 41, 120
1, 38400, Note_on_c, 9, 36, 120
1, 38639, Note_on_c, 9, 41, 0
1, 38640, Note_on_c, 9, 41, 120
1, 38879, Note_on_c, 9, 36, 0
1, 38879, Note_on_c, 9, 41, 0
1, 38880, Note_on_c, 9, 41, 120
1, 38880, Note_on_c, 9, 45, 120
1, 38880, Note_on_c, 9, 36, 120
1, 39119, Note_on_c, 9, 41, 0
1, 39119, Note_on_c, 9, 45, 0
1, 39120, Note_on_c, 9, 41, 120
1, 39359, Note_on_c, 9, 36, 0
1, 39359, Note_on_c, 9, 41, 0
1, 39360, Note_on_c, 9, 41, 120
1, 39360, Note_on_c, 9, 36, 120
1, 39599, Note_on_c, 9, 41, 0
1, 39600, Note_on_c, 9, 41, 120
1, 39839, Note_on_c, 9, 36, 0
1, 39839, Note_on_c, 9, 41, 0
1, 39840, Note_on_c, 9, 41, 120
1, 39840, Note_on_c, 9, 45, 120
1, 39840, Note_on_c, 9, 36, 120
1, 40079, Note_on_c, 9, 41, 0
1, 40079, Note_on_c, 9, 45, 0
1, 40079, Note_on_c, 9, 36, 0
1, 40080, Note_on_c, 9, 41, 120
1, 40080, Note_on_c, 9, 43, 120
1, 40319, Note_on_c, 9, 41, 0
1, 40319, Note_on_c, 9, 43, 0
1, 40320, Note_on_c, 9, 41, 120
1, 40320, Note_on_c, 9, 36, 120
1, 40559, Note_on_c, 9, 41, 0
1, 40560, Note_on_c, 9, 41, 120
1, 40799, Note_on_c, 9, 36, 0
1, 40799, Note_on_c, 9, 41, 0
1, 40800, Note_on_c, 9, 41, 120
1, 40800, Note_on_c, 9, 45, 120
1, 40800, Note_on_c, 9, 36, 120
1, 41039, Note_on_c, 9, 41, 0
1, 41039, Note_on_c, 9, 45, 0
1, 41040, Note_on_c, 9, 41, 120
1, 41279, Note_on_c, 9, 36, 0
1, 41279, Note_on_c, 9, 41, 0
1, 41280, Note_on_c, 9, 41, 120
1, 41280, Note_on_c, 9, 36, 120
1, 41519, Note_on_c, 9, 41, 0
1, 41520, Note_on_c, 9, 41, 120
1, 41759, Note_on_c, 9, 36, 0
1, 41759, Note_on_c, 9, 41, 0
1, 41760, Note_on_c, 9, 41, 120
1, 41760, Note_on_c, 9, 45, 120
1, 41760, Note_on_c, 9, 36, 120
1, 41999, Note_on_c, 9, 41, 0
1, 41999, Note_on_c, 9, 45, 0
1, 41999, Note_on_c, 9, 36, 0
1, 42000, Note_on_c, 9, 41, 120
1, 42000, Note_on_c, 9, 43, 120
1, 42239, Note_on_c, 9, 41, 0
1, 42239, Note_on_c, 9, 43, 0
1, 42240, Note_on_c, 9, 41, 120
1, 42240, Note_on_c, 9, 36, 120
1, 42479, Note_on_c, 9, 41, 0
1, 42480, Note_on_c, 9, 41, 120
1, 42719, Note_on_c, 9, 36, 0
1, 42719, Note_on_c, 9, 41, 0
1, 42720, Note_on_c, 9, 41, 120
1, 42720, Note_on_c, 9, 45, 120
1, 42720, Note_on_c, 9, 36, 120
1, 42959, Note_on_c, 9, 41, 0
1, 42959, Note_on_c, 9, 45, 0
1, 42960, Note_on_c, 9, 41, 120
1, 43199, Note_on_c, 9, 36, 0
1, 43199, Note_on_c, 9, 41, 0
1, 43200, Note_on_c, 9, 41, 120
1, 43200, Note_on_c, 9, 36, 120
1, 43439, Note_on_c, 9, 41, 0
1, 43440, Note_on_c, 9, 41, 120
1, 43679, Note_on_c, 9, 36, 0
1, 43679, Note_on_c, 9, 41, 0
1, 43680, Note_on_c, 9, 41, 120
1, 43680, Note_on_c, 9, 45, 120
1, 43680, Note_on_c, 9, 36, 120
1, 43919, Note_on_c, 9, 41, 0
1, 43919, Note_on_c, 9, 45, 0
1, 43919, Note_on_c, 9, 36, 0
1, 43920, Note_on_c, 9, 41, 120
1, 43920, Note_on_c, 9, 43, 120
1, 44159, Note_on_c, 9, 41, 0
1, 44159, Note_on_c, 9, 43, 0
1, 44160, Note_on_c, 9, 41, 120
1, 44160, Note_on_c, 9, 36, 120
1, 44399, Note_on_c, 9, 41, 0
1, 44400, Note_on_c, 9, 41, 120
1, 44639, Note_on_c, 9, 36, 0
1, 44639, Note_on_c, 9, 41, 0
1, 44640, Note_on_c, 9, 41, 120
1, 44640, Note_on_c, 9, 45, 120
1, 44640, Note_on_c, 9, 36, 120
1, 44879, Note_on_c, 9, 41, 0
1, 44879, Note_on_c, 9, 45, 0
1, 44880, Note_on_c, 9, 38, 120
1, 44880, Note_on_c, 9, 49, 60
1, 44890, Note_on_c, 9, 49, 0
1, 45119, Note_on_c, 9, 36, 0
1, 45119, Note_on_c, 9, 38, 0
1, 45120, Note_on_c, 9, 36, 120
1, 45360, Note_on_c, 9, 38, 120
1, 45360, Note_on_c, 9, 49, 60
1, 45370, Note_on_c, 9, 49, 0
1, 45599, Note_on_c, 9, 36, 0
1, 45599, Note_on_c, 9, 38, 0
1, 45600, Note_on_c, 9, 36, 120
1, 45840, Note_on_c, 9, 38, 120
1, 45840, Note_on_c, 9, 49, 60
1, 45850, Note_on_c, 9, 49, 0
1, 46079, Note_on_c, 9, 36, 0
1, 46079, Note_on_c, 9, 38, 0
1, 46080, Note_on_c, 9, 41, 120
1, 46080, Note_on_c, 9, 36, 120
1, 46319, Note_on_c, 9, 41, 0
1, 46320, Note_on_c, 9, 41, 120
1, 46559, Note_on_c, 9, 36, 0
1, 46559, Note_on_c, 9, 41, 0
1, 46560, Note_on_c, 9, 41, 120
1, 46560, Note_on_c, 9, 45, 120
1, 46560, Note_on_c, 9, 36, 120
1, 46799, Note_on_c, 9, 41, 0
1, 46799, Note_on_c, 9, 45, 0
1, 46800, Note_on_c, 9, 41, 120
1, 47039, Note_on_c, 9, 36, 0
1, 47039, Note_on_c, 9, 41, 0
1, 47040, Note_on_c, 9, 41, 120
1, 47040, Note_on_c, 9, 36, 120
1, 47279, Note_on_c, 9, 41, 0
1, 47280, Note_on_c, 9, 41, 120
1, 47519, Note_on_c, 9, 36, 0
1, 47519, Note_on_c, 9, 41, 0
1, 47520, Note_on_c, 9, 41, 120
1, 47520, Note_on_c, 9, 45, 120
1, 47520, Note_on_c, 9, 36, 120
1, 47759, Note_on_c, 9, 41, 0
1, 47759, Note_on_c, 9, 45, 0
1, 47760, Note_on_c, 9, 41, 120
1, 47760, Note_on_c, 9, 38, 120
1, 47999, Note_on_c, 9, 36, 0
1, 47999, Note_on_c, 9, 41, 0
1, 47999, Note_on_c, 9, 38, 0
1, 48000, Note_on_c, 9, 41, 120
1, 48000, Note_on_c, 9, 36, 120
1, 48239, Note_on_c, 9, 41, 0
1, 48240, Note_on_c, 9, 41, 120
1, 48479, Note_on_c, 9, 36, 0
1, 48479, Note_on_c, 9, 41, 0
1, 48480, Note_on_c, 9, 41, 120
1, 48480, Note_on_c, 9, 45, 120
1, 48480, Note_on_c, 9, 36, 120
1, 48719, Note_on_c, 9, 41, 0
1, 48719, Note_on_c, 9, 45, 0
1, 48720, Note_on_c, 9, 41, 120
1, 48959, Note_on_c, 9, 36, 0
1, 48959, Note_on_c, 9, 41, 0
1, 48960, Note_on_c, 9, 41, 120
1, 48960, Note_on_c, 9, 36, 120
1, 49199, Note_on_c, 9, 41, 0
1, 49200, Note_on_c, 9, 41, 120
1, 49439, Note_on_c, 9, 36, 0
1, 49439, Note_on_c, 9, 41, 0
1, 49440, Note_on_c, 9, 41, 120
1, 49440, Note_on_c, 9, 45, 120
1, 49440, Note_on_c, 9, 36, 120
1, 49679, Note_on_c, 9, 41, 0
1, 49679, Note_on_c, 9, 45, 0
1, 49680, Note_on_c, 9, 41, 120
1, 49680, Note_on_c, 9, 38, 120
1, 49919, Note_on_c, 9, 36, 0
1, 49919, Note_on_c, 9, 41, 0
1, 49919, Note_on_c, 9, 38, 0
1, 49920, Note_on_c, 9, 41, 120
1, 49920, Note_on_c, 9, 36, 120
1, 50159, Note_on_c, 9, 41, 0
1, 50160, Note_on_c, 9, 41, 120
1, 50399, Note_on_c, 9, 36, 0
1, 50399, Note_on_c, 9, 41, 0
1, 50400, Note_on_c, 9, 41, 120
1, 50400, Note_on_c, 9, 45, 120
1, 50400, Note_on_c, 9, 36, 120
1, 50639, Note_on_c, 9, 41, 0
1, 50639, Note_on_c, 9, 45, 0
1, 50640, Note_on_c, 9, 41, 120
1, 50879, Note_on_c, 9, 36, 0
1, 50879, Note_on_c, 9, 41, 0
1, 50880, Note_on_c, 9, 41, 120
1, 50880, Note_on_c, 9, 36, 120
1, 51119, Note_on_c, 9, 41, 0
1, 51120, Note_on_c, 9, 41, 120
1, 51359, Note_on_c, 9, 36, 0
1, 51359, Note_on_c, 9, 41, 0
1, 51360, Note_on_c, 9, 41, 120
1, 51360, Note_on_c, 9, 45, 120
1, 51360, Note_on_c, 9, 36, 120
1, 51599, Note_on_c, 9, 41, 0
1, 51599, Note_on_c, 9, 45, 0
1, 51600, Note_on_c, 9, 41, 120
1, 51600, Note_on_c, 9, 38, 120
1, 51839, Note_on_c, 9, 36, 0
1, 51839, Note_on_c, 9, 41, 0
1, 51839, Note_on_c, 9, 38, 0
1, 51840, Note_on_c, 9, 41, 120
1, 51840, Note_on_c, 9, 36, 120
1, 52079, Note_on_c, 9, 41, 0
1, 52080, Note_on_c, 9, 41, 120
1, 52319, Note_on_c, 9, 36, 0
1, 52319, Note_on_c, 9, 41, 0
1, 52320, Note_on_c, 9, 41, 120
1, 52320, Note_on_c, 9, 45, 120
1, 52320, Note_on_c, 9, 36, 120
1, 52559, Note_on_c, 9, 41, 0
1, 52559, Note_on_c, 9, 45, 0
1, 52560, Note_on_c, 9, 41, 120
1, 52799, Note_on_c, 9, 36, 0
1, 52799, Note_on_c, 9, 41, 0
1, 52800, Note_on_c, 9, 41, 120
1, 52800, Note_on_c, 9, 36, 120
1, 53039, Note_on_c, 9, 41, 0
1, 53040, Note_on_c, 9, 41, 120
1, 53279, Note_on_c, 9, 36, 0
1, 53279, Note_on_c, 9, 41, 0
1, 53280, Note_on_c, 9, 41, 120
1, 53280, Note_on_c, 9, 36, 120
1, 53519, Note_on_c, 9, 41, 0
1, 53520, Note_on_c, 9, 38, 120
1, 53520, Note_on_c, 9, 49, 60
1, 53530, Note_on_c, 9, 49, 0
1, 53759, Note_on_c, 9, 36, 0
1, 53759, Note_on_c, 9, 38, 0
1, 53760, Note_on_c, 9, 41, 120
1, 53760, Note_on_c, 9, 36, 120
1, 53999, Note_on_c, 9, 41, 0
1, 54000, Note_on_c, 9, 41, 120
1, 54239, Note_on_c, 9, 36, 0
1, 54239, Note_on_c, 9, 41, 0
1, 54240, Note_on_c, 9, 41, 120
1, 54240, Note_on_c, 9, 45, 120
1, 54240, Note_on_c, 9, 36, 120
1, 54479, Note_on_c, 9, 41, 0
1, 54479, Note_on_c, 9, 45, 0
1, 54480, Note_on_c, 9, 41, 120
1, 54719, Note_on_c, 9, 36, 0
1, 54719, Note_on_c, 9, 41, 0
1, 54720, Note_on_c, 9, 41, 120
1, 54720, Note_on_c, 9, 36, 120
1, 54959, Note_on_c, 9, 41, 0
1, 54960, Note_on_c, 9, 41, 120
1, 55199, Note_on_c, 9, 36, 0
1, 55199, Note_on_c, 9, 41, 0
1, 55200, Note_on_c, 9, 41, 120
1, 55200, Note_on_c, 9, 45, 120
1, 55200, Note_on_c, 9, 36, 120
1, 55439, Note_on_c, 9, 41, 0
1, 55439, Note_on_c, 9, 45, 0
1, 55440, Note_on_c, 9, 41, 120
1, 55440, Note_on_c, 9, 38, 120
1, 55679, Note_on_c, 9, 36, 0
1, 55679, Note_on_c, 9, 41, 0
1, 55679, Note_on_c, 9, 38, 0
1, 55680, Note_on_c, 9, 41, 120
1, 55680, Note_on_c, 9, 36, 120
1, 55919, Note_on_c, 9, 41, 0
1, 55920, Note_on_c, 9, 41, 120
1, 56159, Note_on_c, 9, 36, 0
1, 56159, Note_on_c, 9, 41, 0
1, 56160, Note_on_c, 9, 41, 120
1, 56160, Note_on_c, 9, 45, 120
1, 56160, Note_on_c, 9, 36, 120
1, 56399, Note_on_c, 9, 41, 0
1, 56399, Note_on_c, 9, 45, 0
1, 56400, Note_on_c, 9, 41, 120
1, 56639, Note_on_c, 9, 36, 0
1, 56639, Note_on_c, 9, 41, 0
1, 56640, Note_on_c, 9, 41, 120
1, 56640, Note_on_c, 9, 36, 120
1, 56879, Note_on_c, 9, 41, 0
1, 56880, Note_on_c, 9, 41, 120
1, 57119, Note_on_c, 9, 36, 0
1, 57119, Note_on_c, 9, 41, 0
1, 57120, Note_on_c, 9, 41, 120
1, 57120, Note_on_c, 9, 45, 120
1, 57120, Note_on_c, 9, 36, 120
1, 57359, Note_on_c, 9, 41, 0
1, 57359, Note_on_c, 9, 45, 0
1, 57360, Note_on_c, 9, 41, 120
1, 57360, Note_on_c, 9, 38, 120
1, 57599, Note_on_c, 9, 36, 0
1, 57599, Note_on_c, 9, 41, 0
1, 57599, Note_on_c, 9, 38, 0
1, 57600, Note_on_c, 9, 38, 120
1, 57600, Note_on_c, 9, 36, 120
1, 57600, Note_on_c, 9, 43, 120
1, 57839, Note_on_c, 9, 38, 0
1, 57839, Note_on_c, 9, 36, 0
1, 57839, Note_on_c, 9, 43, 0
1, 57840, Note_on_c, 9, 38, 120
1, 57840, Note_on_c, 9, 43, 120
1, 58079, Note_on_c, 9, 38, 0
1, 58079, Note_on_c, 9, 43, 0
1, 58080, Note_on_c, 9, 38, 120
1, 58080, Note_on_c, 9, 36, 120
1, 58080, Note_on_c, 9, 43, 120
1, 58319, Note_on_c, 9, 38, 0
1, 58319, Note_on_c, 9, 36, 0
1, 58319, Note_on_c, 9, 43, 0
1, 58320, Note_on_c, 9, 38, 120
1, 58320, Note_on_c, 9, 43, 120
1, 58559, Note_on_c, 9, 38, 0
1, 58559, Note_on_c, 9, 43, 0
1, 58560, Note_on_c, 9, 38, 120
1, 58560, Note_on_c, 9, 36, 120
1, 58560, Note_on_c, 9, 43, 120
1, 58799, Note_on_c, 9, 38, 0
1, 58799, Note_on_c, 9, 36, 0
1, 58799, Note_on_c, 9, 43, 0
1, 58800, Note_on_c, 9, 38, 120
1, 58800, Note_on_c, 9, 43, 120
1, 59039, Note_on_c, 9, 38, 0
1, 59039, Note_on_c, 9, 43, 0
1, 59040, Note_on_c, 9, 38, 120
1, 59040, Note_on_c, 9, 36, 120
1, 59040, Note_on_c, 9, 43, 120
1, 59279, Note_on_c, 9, 38, 0
1, 59279, Note_on_c, 9, 36, 0
1, 59279, Note_on_c, 9, 43, 0
1, 59280, Note_on_c, 9, 38, 120
1, 59280, Note_on_c, 9, 43, 120
1, 59519, Note_on_c, 9, 38, 0
1, 59519, Note_on_c, 9, 43, 0
1, 59520, Note_on_c, 9, 38, 120
1, 59520, Note_on_c, 9, 36, 120
1, 59520, Note_on_c, 9, 43, 120
1, 59759, Note_on_c, 9, 38, 0
1, 59759, Note_on_c, 9, 36, 0
1, 59759, Note_on_c, 9, 43, 0
1, 59760, Note_on_c, 9, 38, 120
1, 59760, Note_on_c, 9, 43, 120
1, 59999, Note_on_c, 9, 38, 0
1, 59999, Note_on_c, 9, 43, 0
1, 60000, Note_on_c, 9, 38, 120
1, 60000, Note_on_c, 9, 36, 120
1, 60000, Note_on_c, 9, 43, 120
1, 60239, Note_on_c, 9, 38, 0
1, 60239, Note_on_c, 9, 36, 0
1, 60239, Note_on_c, 9, 43, 0
1, 60240, Note_on_c, 9, 38, 120
1, 60240, Note_on_c, 9, 43, 120
1, 60479, Note_on_c, 9, 38, 0
1, 60479, Note_on_c, 9, 43, 0
1, 60480, Note_on_c, 9, 38, 120
1, 60480, Note_on_c, 9, 36, 120
1, 60480, Note_on_c, 9, 43, 120
1, 60719, Note_on_c, 9, 38, 0
1, 60719, Note_on_c, 9, 36, 0
1, 60719, Note_on_c, 9, 43, 0
1, 60720, Note_on_c, 9, 38, 120
1, 60720, Note_on_c, 9, 43, 120
1, 60959, Note_on_c, 9, 38, 0
1, 60959, Note_on_c, 9, 43, 0
1, 60960, Note_on_c, 9, 38, 120
1, 60960, Note_on_c, 9, 43, 120
1, 61199, Note_on_c, 9, 38, 0
1, 61199, Note_on_c, 9, 43, 0
1, 61200, Note_on_c, 9, 49, 60
1, 61200, Note_on_c, 9, 36, 120
1, 61210, Note_on_c, 9, 49, 0
1, 61439, Note_on_c, 9, 36, 0
1, 61440, Note_on_c, 9, 42, 40
1, 61450, Note_on_c, 9, 42, 0
1, 61680, Note_on_c, 9, 42, 40
1, 61690, Note_on_c, 9, 42, 0
1, 61920, Note_on_c, 9, 38, 120
1, 61920, Note_on_c, 9, 42, 40
1, 61930, Note_on_c, 9, 42, 0
1, 62159, Note_on_c, 9, 38, 0
1, 62160, Note_on_c, 9, 42, 40
1, 62170, Note_on_c, 9, 42, 0
1, 62400, Note_on_c, 9, 42, 40
1, 62400, Note_on_c, 9, 36, 120
1, 62410, Note_on_c, 9, 42, 0
1, 62640, Note_on_c, 9, 42, 40
1, 62650, Note_on_c, 9, 42, 0
1, 62879, Note_on_c, 9, 36, 0
1, 62880, Note_on_c, 9, 38, 120
1, 62880, Note_on_c, 9, 42, 40
1, 62890, Note_on_c, 9, 42, 0
1, 63119, Note_on_c, 9, 38, 0
1, 63120, Note_on_c, 9, 42, 40
1, 63130, Note_on_c, 9, 42, 0
1, 63360, Note_on_c, 9, 42, 40
1, 63360, Note_on_c, 9, 36, 120
1, 63370, Note_on_c, 9, 42, 0
1, 63600, Note_on_c, 9, 42, 40
1, 63610, Note_on_c, 9, 42, 0
1, 63839, Note_on_c, 9, 36, 0
1, 63840, Note_on_c, 9, 38, 120
1, 63840, Note_on_c, 9, 42, 40
1, 63850, Note_on_c, 9, 42, 0
1, 64079, Note_on_c, 9, 38, 0
1, 64080, Note_on_c, 9, 42, 40
1, 64090, Note_on_c, 9, 42, 0
1, 64320, Note_on_c, 9, 42, 40
1, 64320, Note_on_c, 9, 36, 120
1, 64330, Note_on_c, 9, 42, 0
1, 64560, Note_on_c, 9, 42, 40
1, 64570, Note_on_c, 9, 42, 0
1, 64799, Note_on_c, 9, 36, 0
1, 64800, Note_on_c, 9, 38, 120
1, 64800, Note_on_c, 9, 42, 40
1, 64810, Note_on_c, 9, 42, 0
1, 65039, Note_on_c, 9, 38, 0
1, 65040, Note_on_c, 9, 42, 40
1, 65050, Note_on_c, 9, 42, 0
1, 65280, Note_on_c, 9, 42, 40
1, 65280, Note_on_c, 9, 36, 120
1, 65290, Note_on_c, 9, 42, 0
1, 65520, Note_on_c, 9, 42, 40
1, 65530, Note_on_c, 9, 42, 0
1, 65759, Note_on_c, 9, 36, 0
1, 65760, Note_on_c, 9, 38, 120
1, 65760, Note_on_c, 9, 42, 40
1, 65770, Note_on_c, 9, 42, 0
1, 65999, Note_on_c, 9, 38, 0
1, 66000, Note_on_c, 9, 42, 40
1, 66010, Note_on_c, 9, 42, 0
1, 66240, Note_on_c, 9, 42, 40
1, 66240, Note_on_c, 9, 36, 120
1, 66250, Note_on_c, 9, 42, 0
1, 66480, Note_on_c, 9, 42, 40
1, 66490, Note_on_c, 9, 42, 0
1, 66719, Note_on_c, 9, 36, 0
1, 66720, Note_on_c, 9, 38, 120
1, 66720, Note_on_c, 9, 42, 40
1, 66730, Note_on_c, 9, 42, 0
1, 66959, Note_on_c, 9, 38, 0
1, 66960, Note_on_c, 9, 42, 40
1, 66970, Note_on_c, 9, 42, 0
1, 67200, Note_on_c, 9, 42, 40
1, 67200, Note_on_c, 9, 36, 120
1, 67210, Note_on_c, 9, 42, 0
1, 67440, Note_on_c, 9, 42, 40
1, 67450, Note_on_c, 9, 42, 0
1, 67679, Note_on_c, 9, 36, 0
1, 67680, Note_on_c, 9, 38, 120
1, 67680, Note_on_c, 9, 42, 40
1, 67690, Note_on_c, 9, 42, 0
1, 67919, Note_on_c, 9, 38, 0
1, 67920, Note_on_c, 9, 42, 40
1, 67930, Note_on_c, 9, 42, 0
1, 68160, Note_on_c, 9, 42, 40
1, 68160, Note_on_c, 9, 36, 120
1, 68170, Note_on_c, 9, 42, 0
1, 68400, Note_on_c, 9, 42, 40
1, 68410, Note_on_c, 9, 42, 0
1, 68639, Note_on_c, 9, 36, 0
1, 68640, Note_on_c, 9, 38, 120
1, 68640, Note_on_c, 9, 42, 40
1, 68650, Note_on_c, 9, 42, 0
1, 68879, Note_on_c, 9, 38, 0
1, 68880, Note_on_c, 9, 49, 60
1, 68880, Note_on_c, 9, 36, 120
1, 68890, Note_on_c, 9, 49, 0
1, 69119, Note_on_c, 9, 36, 0
1, 69120, Note_on_c, 9, 42, 40
1, 69130, Note_on_c, 9, 42, 0
1, 69360, Note_on_c, 9, 42, 40
1, 69370, Note_on_c, 9, 42, 0
1, 69600, Note_on_c, 9, 38, 120
1, 69600, Note_on_c, 9, 42, 40
1, 69610, Note_on_c, 9, 42, 0
1, 69839, Note_on_c, 9, 38, 0
1, 69840, Note_on_c, 9, 42, 40
1, 69850, Note_on_c, 9, 42, 0
1, 70080, Note_on_c, 9, 42, 40
1, 70080, Note_on_c, 9, 36, 120
1, 70090, Note_on_c, 9, 42, 0
1, 70320, Note_on_c, 9, 42, 40
1, 70330, Note_on_c, 9, 42, 0
1, 70559, Note_on_c, 9, 36, 0
1, 70560, Note_on_c, 9, 38, 120
1, 70560, Note_on_c, 9, 42, 40
1, 70570, Note_on_c, 9, 42, 0
1, 70799, Note_on_c, 9, 38, 0
1, 70800, Note_on_c, 9, 42, 40
1, 70810, Note_on_c, 9, 42, 0
1, 71040, Note_on_c, 9, 42, 40
1, 71040, Note_on_c, 9, 36, 120
1, 71050, Note_on_c, 9, 42, 0
1, 71280, Note_on_c, 9, 42, 40
1, 71290, Note_on_c, 9, 42, 0
1, 71519, Note_on_c, 9, 36, 0
1, 71520, Note_on_c, 9, 38, 120
1, 71520, Note_on_c, 9, 42, 40
1, 71530, Note_on_c, 9, 42, 0
1, 71759, Note_on_c, 9, 38, 0
1, 71760, Note_on_c, 9, 42, 40
1, 71770, Note_on_c, 9, 42, 0
1, 72000, Note_on_c, 9, 42, 40
1, 72000, Note_on_c, 9, 36, 120
1, 72010, Note_on_c, 9, 42, 0
1, 72240, Note_on_c, 9, 42, 40
1, 72250, Note_on_c, 9, 42, 0
1, 72479, Note_on_c, 9, 36, 0
1, 72480, Note_on_c, 9, 38, 120
1, 72480, Note_on_c, 9, 42, 40
1, 72490, Note_on_c, 9, 42, 0
1, 72719, Note_on_c, 9, 38, 0
1, 72720, Note_on_c, 9, 42, 40
1, 72730, Note_on_c, 9, 42, 0
1, 72960, Note_on_c, 9, 42, 40
1, 72960, Note_on_c, 9, 36, 120
1, 72970, Note_on_c, 9, 42, 0
1, 73200, Note_on_c, 9, 42, 40
1, 73210, Note_on_c, 9, 42, 0
1, 73439, Note_on_c, 9, 36, 0
1, 73440, Note_on_c, 9, 38, 120
1, 73440, Note_on_c, 9, 42, 40
1, 73450, Note_on_c, 9, 42, 0
1, 73679, Note_on_c, 9, 38, 0
1, 73680, Note_on_c, 9, 42, 40
1, 73690, Note_on_c, 9, 42, 0
1, 73920, Note_on_c, 9, 42, 40
1, 73920, Note_on_c, 9, 36, 120
1, 73930, Note_on_c, 9, 42, 0
1, 74160, Note_on_c, 9, 42, 40
1, 74170, Note_on_c, 9, 42, 0
1, 74399, Note_on_c, 9, 36, 0
1, 74400, Note_on_c, 9, 38, 120
1, 74400, Note_on_c, 9, 42, 40
1, 74410, Note_on_c, 9, 42, 0
1, 74639, Note_on_c, 9, 38, 0
1, 74640, Note_on_c, 9, 42, 40
1, 74650, Note_on_c, 9, 42, 0
1, 74880, Note_on_c, 9, 42, 40
1, 74880, Note_on_c, 9, 36, 120
1, 74890, Note_on_c, 9, 42, 0
1, 75120, Note_on_c, 9, 42, 40
1, 75130, Note_on_c, 9, 42, 0
1, 75359, Note_on_c, 9, 36, 0
1, 75360, Note_on_c, 9, 38, 120
1, 75360, Note_on_c, 9, 42, 40
1, 75370, Note_on_c, 9, 42, 0
1, 75599, Note_on_c, 9, 38, 0
1, 75600, Note_on_c, 9, 42, 40
1, 75610, Note_on_c, 9, 42, 0
1, 75840, Note_on_c, 9, 42, 40
1, 75840, Note_on_c, 9, 36, 120
1, 75850, Note_on_c, 9, 42, 0
1, 76080, Note_on_c, 9, 42, 40
1, 76090, Note_on_c, 9, 42, 0
1, 76319, Note_on_c, 9, 36, 0
1, 76320, Note_on_c, 9, 38, 120
1, 76320, Note_on_c, 9, 42, 40
1, 76330, Note_on_c, 9, 42, 0
1, 76559, Note_on_c, 9, 38, 0
1, 76560, Note_on_c, 9, 49, 60
1, 76560, Note_on_c, 9, 36, 120
1, 76570, Note_on_c, 9, 49, 0
1, 76799, Note_on_c, 9, 36, 0
1, 76800, Note_on_c, 9, 42, 40
1, 76810, Note_on_c, 9, 42, 0
1, 77040, Note_on_c, 9, 42, 40
1, 77050, Note_on_c, 9, 42, 0
1, 77280, Note_on_c, 9, 38, 120
1, 77280, Note_on_c, 9, 42, 40
1, 77290, Note_on_c, 9, 42, 0
1, 77519, Note_on_c, 9, 38, 0
1, 77520, Note_on_c, 9, 42, 40
1, 77530, Note_on_c, 9, 42, 0
1, 77760, Note_on_c, 9, 42, 40
1, 77760, Note_on_c, 9, 36, 120
1, 77770, Note_on_c, 9, 42, 0
1, 78000, Note_on_c, 9, 42, 40
1, 78010, Note_on_c, 9, 42, 0
1, 78239, Note_on_c, 9, 36, 0
1, 78240, Note_on_c, 9, 38, 120
1, 78240, Note_on_c, 9, 42, 40
1, 78250, Note_on_c, 9, 42, 0
1, 78479, Note_on_c, 9, 38, 0
1, 78480, Note_on_c, 9, 42, 40
1, 78490, Note_on_c, 9, 42, 0
1, 78720, Note_on_c, 9, 42, 40
1, 78720, Note_on_c, 9, 36, 120
1, 78730, Note_on_c, 9, 42, 0
1, 78960, Note_on_c, 9, 42, 40
1, 78970, Note_on_c, 9, 42, 0
1, 79199, Note_on_c, 9, 36, 0
1, 79200, Note_on_c, 9, 38, 120
1, 79200, Note_on_c, 9, 42, 40
1, 79210, Note_on_c, 9, 42, 0
1, 79439, Note_on_c, 9, 38, 0
1, 79440, Note_on_c, 9, 42, 40
1, 79450, Note_on_c, 9, 42, 0
1, 79680, Note_on_c, 9, 42, 40
1, 79680, Note_on_c, 9, 36, 120
1, 79690, Note_on_c, 9, 42, 0
1, 79920, Note_on_c, 9, 42, 40
1, 79930, Note_on_c, 9, 42, 0
1, 80159, Note_on_c, 9, 36, 0
1, 80160, Note_on_c, 9, 38, 120
1, 80160, Note_on_c, 9, 42, 40
1, 80170, Note_on_c, 9, 42, 0
1, 80399, Note_on_c, 9, 38, 0
1, 80400, Note_on_c, 9, 42, 40
1, 80410, Note_on_c, 9, 42, 0
1, 80640, Note_on_c, 9, 42, 40
1, 80640, Note_on_c, 9, 36, 120
1, 80650, Note_on_c, 9, 42, 0
1, 80880, Note_on_c, 9, 42, 40
1, 80890, Note_on_c, 9, 42, 0
1, 81119, Note_on_c, 9, 36, 0
1, 81120, Note_on_c, 9, 38, 120
1, 81120, Note_on_c, 9, 42, 40
1, 81130, Note_on_c, 9, 42, 0
1, 81359, Note_on_c, 9, 38, 0
1, 81360, Note_on_c, 9, 42, 40
1, 81370, Note_on_c, 9, 42, 0
1, 81600, Note_on_c, 9, 42, 40
1, 81600, Note_on_c, 9, 36, 120
1, 81610, Note_on_c, 9, 42, 0
1, 81840, Note_on_c, 9, 42, 40
1, 81850, Note_on_c, 9, 42, 0
1, 82079, Note_on_c, 9, 36, 0
1, 82080, Note_on_c, 9, 38, 120
1, 82080, Note_on_c, 9, 42, 40
1, 82090, Note_on_c, 9, 42, 0
1, 82319, Note_on_c, 9, 38, 0
1, 82320, Note_on_c, 9, 42, 40
1, 82330, Note_on_c, 9, 42, 0
1, 82560, Note_on_c, 9, 42, 40
1, 82560, Note_on_c, 9, 36, 120
1, 82570, Note_on_c, 9, 42, 0
1, 82800, Note_on_c, 9, 42, 40
1, 82810, Note_on_c, 9, 42, 0
1, 83039, Note_on_c, 9, 36, 0
1, 83040, Note_on_c, 9, 38, 120
1, 83040, Note_on_c, 9, 42, 40
1, 83050, Note_on_c, 9, 42, 0
1, 83279, Note_on_c, 9, 38, 0
1, 83280, Note_on_c, 9, 42, 40
1, 83290, Note_on_c, 9, 42, 0
1, 83520, Note_on_c, 9, 42, 40
1, 83520, Note_on_c, 9, 36, 120
1, 83530, Note_on_c, 9, 42, 0
1, 83760, Note_on_c, 9, 42, 40
1, 83770, Note_on_c, 9, 42, 0
1, 83999, Note_on_c, 9, 36, 0
1, 84000, Note_on_c, 9, 38, 120
1, 84000, Note_on_c, 9, 42, 40
1, 84010, Note_on_c, 9, 42, 0
1, 84239, Note_on_c, 9, 38, 0
1, 84240, Note_on_c, 9, 49, 60
1, 84240, Note_on_c, 9, 36, 120
1, 84250, Note_on_c, 9, 49, 0
1, 84479, Note_on_c, 9, 36, 0
1, 84480, Note_on_c, 9, 42, 40
1, 84490, Note_on_c, 9, 42, 0
1, 84720, Note_on_c, 9, 42, 40
1, 84730, Note_on_c, 9, 42, 0
1, 84960, Note_on_c, 9, 38, 120
1, 84960, Note_on_c, 9, 42, 40
1, 84970, Note_on_c, 9, 42, 0
1, 85199, Note_on_c, 9, 38, 0
1, 85200, Note_on_c, 9, 42, 40
1, 85210, Note_on_c, 9, 42, 0
1, 85440, Note_on_c, 9, 42, 40
1, 85440, Note_on_c, 9, 36, 120
1, 85450, Note_on_c, 9, 42, 0
1, 85680, Note_on_c, 9, 42, 40
1, 85690, Note_on_c, 9, 42, 0
1, 85919, Note_on_c, 9, 36, 0
1, 85920, Note_on_c, 9, 38, 120
1, 85920, Note_on_c, 9, 42, 40
1, 85930, Note_on_c, 9, 42, 0
1, 86159, Note_on_c, 9, 38, 0
1, 86160, Note_on_c, 9, 42, 40
1, 86170, Note_on_c, 9, 42, 0
1, 86400, Note_on_c, 9, 42, 40
1, 86400, Note_on_c, 9, 36, 120
1, 86410, Note_on_c, 9, 42, 0
1, 86640, Note_on_c, 9, 42, 40
1, 86650, Note_on_c, 9, 42, 0
1, 86879, Note_on_c, 9, 36, 0
1, 86880, Note_on_c, 9, 38, 120
1, 86880, Note_on_c, 9, 42, 40
1, 86890, Note_on_c, 9, 42, 0
1, 87119, Note_on_c, 9, 38, 0
1, 87120, Note_on_c, 9, 42, 40
1, 87130, Note_on_c, 9, 42, 0
1, 87360, Note_on_c, 9, 42, 40
1, 87360, Note_on_c, 9, 36, 120
1, 87370, Note_on_c, 9, 42, 0
1, 87600, Note_on_c, 9, 42, 40
1, 87610, Note_on_c, 9, 42, 0
1, 87839, Note_on_c, 9, 36, 0
1, 87840, Note_on_c, 9, 38, 120
1, 87840, Note_on_c, 9, 42, 40
1, 87850, Note_on_c, 9, 42, 0
1, 88079, Note_on_c, 9, 38, 0
1, 88080, Note_on_c, 9, 42, 40
1, 88090, Note_on_c, 9, 42, 0
1, 88320, Note_on_c, 9, 42, 40
1, 88320, Note_on_c, 9, 36, 120
1, 88330, Note_on_c, 9, 42, 0
1, 88560, Note_on_c, 9, 42, 40
1, 88570, Note_on_c, 9, 42, 0
1, 88799, Note_on_c, 9, 36, 0
1, 88800, Note_on_c, 9, 38, 120
1, 88800, Note_on_c, 9, 42, 40
1, 88810, Note_on_c, 9, 42, 0
1, 89039, Note_on_c, 9, 38, 0
1, 89040, Note_on_c, 9, 42, 40
1, 89050, Note_on_c, 9, 42, 0
1, 89280, Note_on_c, 9, 42, 40
1, 89280, Note_on_c, 9, 36, 120
1, 89290, Note_on_c, 9, 42, 0
1, 89520, Note_on_c, 9, 42, 40
1, 89530, Note_on_c, 9, 42, 0
1, 89759, Note_on_c, 9, 36, 0
1, 89760, Note_on_c, 9, 38, 120
1, 89760, Note_on_c, 9, 42, 40
1, 89770, Note_on_c, 9, 42, 0
1, 89999, Note_on_c, 9, 38, 0
1, 90000, Note_on_c, 9, 42, 40
1, 90010, Note_on_c, 9, 42, 0
1, 90240, Note_on_c, 9, 42, 40
1, 90240, Note_on_c, 9, 36, 120
1, 90250, Note_on_c, 9, 42, 0
1, 90480, Note_on_c, 9, 42, 40
1, 90490, Note_on_c, 9, 42, 0
1, 90719, Note_on_c, 9, 36, 0
1, 90720, Note_on_c, 9, 38, 120
1, 90720, Note_on_c, 9, 42, 40
1, 90730, Note_on_c, 9, 42, 0
1, 90959, Note_on_c, 9, 38, 0
1, 90960, Note_on_c, 9, 42, 40
1, 90970, Note_on_c, 9, 42, 0
1, 91200, Note_on_c, 9, 42, 40
1, 91200, Note_on_c, 9, 36, 120
1, 91210, Note_on_c, 9, 42, 0
1, 91440, Note_on_c, 9, 42, 40
1, 91450, Note_on_c, 9, 42, 0
1, 91679, Note_on_c, 9, 36, 0
1, 91680, Note_on_c, 9, 38, 120
1, 91680, Note_on_c, 9, 42, 40
1, 91690, Note_on_c, 9, 42, 0
1, 91919, Note_on_c, 9, 38, 0
1, 91920, Note_on_c, 9, 49, 60
1, 91920, Note_on_c, 9, 36, 120
1, 91930, Note_on_c, 9, 49, 0
1, 92159, Note_on_c, 9, 36, 0
1, 92400, Note_on_c, 9, 42, 40
1, 92410, Note_on_c, 9, 42, 0
1, 92640, Note_on_c, 9, 42, 40
1, 92650, Note_on_c, 9, 42, 0
1, 92880, Note_on_c, 9, 42, 40
1, 92890, Note_on_c, 9, 42, 0
1, 93120, Note_on_c, 9, 38, 120
1, 93120, Note_on_c, 9, 42, 40
1, 93130, Note_on_c, 9, 42, 0
1, 93359, Note_on_c, 9, 38, 0
1, 93360, Note_on_c, 9, 42, 40
1, 93370, Note_on_c, 9, 42, 0
1, 93600, Note_on_c, 9, 42, 40
1, 93610, Note_on_c, 9, 42, 0
1, 93840, Note_on_c, 9, 49, 60
1, 93840, Note_on_c, 9, 36, 120
1, 93850, Note_on_c, 9, 49, 0
1, 94079, Note_on_c, 9, 36, 0
1, 94080, Note_on_c, 9, 42, 40
1, 94090, Note_on_c, 9, 42, 0
1, 94320, Note_on_c, 9, 42, 40
1, 94330, Note_on_c, 9, 42, 0
1, 94560, Note_on_c, 9, 42, 40
1, 94570, Note_on_c, 9, 42, 0
1, 94800, Note_on_c, 9, 42, 40
1, 94810, Note_on_c, 9, 42, 0
1, 95040, Note_on_c, 9, 38, 120
1, 95040, Note_on_c, 9, 42, 40
1, 95050, Note_on_c, 9, 42, 0
1, 95279, Note_on_c, 9, 38, 0
1, 95280, Note_on_c, 9, 42, 40
1, 95290, Note_on_c, 9, 42, 0
1, 95520, Note_on_c, 9, 42, 40
1, 95530, Note_on_c, 9, 42, 0
1, 95760, Note_on_c, 9, 49, 60
1, 95760, Note_on_c, 9, 36, 120
1, 95770, Note_on_c, 9, 49, 0
1, 95999, Note_on_c, 9, 36, 0
1, 96000, Note_on_c, 9, 42, 40
1, 96010, Note_on_c, 9, 42, 0
1, 96240, Note_on_c, 9, 42, 40
1, 96250, Note_on_c, 9, 42, 0
1, 96480, Note_on_c, 9, 42, 40
1, 96490, Note_on_c, 9, 42, 0
1, 96720, Note_on_c, 9, 42, 40
1, 96730, Note_on_c, 9, 42, 0
1, 96960, Note_on_c, 9, 38, 120
1, 96960, Note_on_c, 9, 42, 40
1, 96970, Note_on_c, 9, 42, 0
1, 97199, Note_on_c, 9, 38, 0
1, 97200, Note_on_c, 9, 42, 40
1, 97210, Note_on_c, 9, 42, 0
1, 97440, Note_on_c, 9, 42, 40
1, 97450, Note_on_c, 9, 42, 0
1, 97680, Note_on_c, 9, 42, 40
1, 97690, Note_on_c, 9, 42, 0
1, 97920, Note_on_c, 9, 38, 120
1, 97920, Note_on_c, 9, 36, 120
1, 97920, Note_on_c, 9, 43, 120
1, 98159, Note_on_c, 9, 38, 0
1, 98159, Note_on_c, 9, 36, 0
1, 98159, Note_on_c, 9, 43, 0
1, 98160, Note_on_c, 9, 38, 120
1, 98160, Note_on_c, 9, 43, 120
1, 98399, Note_on_c, 9, 38, 0
1, 98399, Note_on_c, 9, 43, 0
1, 98400, Note_on_c, 9, 38, 120
1, 98400, Note_on_c, 9, 36, 120
1, 98400, Note_on_c, 9, 43, 120
1, 98639, Note_on_c, 9, 38, 0
1, 98639, Note_on_c, 9, 36, 0
1, 98639, Note_on_c, 9, 43, 0
1, 98640, Note_on_c, 9, 38, 120
1, 98640, Note_on_c, 9, 43, 120
1, 98879, Note_on_c, 9, 38, 0
1, 98879, Note_on_c, 9, 43, 0
1, 98880, Note_on_c, 9, 38, 120
1, 98880, Note_on_c, 9, 36, 120
1, 98880, Note_on_c, 9, 43, 120
1, 99119, Note_on_c, 9, 38, 0
1, 99119, Note_on_c, 9, 36, 0
1, 99119, Note_on_c, 9, 43, 0
1, 99120, Note_on_c, 9, 38, 120
1, 99120, Note_on_c, 9, 43, 120
1, 99359, Note_on_c, 9, 38, 0
1, 99359, Note_on_c, 9, 43, 0
1, 99360, Note_on_c, 9, 38, 120
1, 99599, Note_on_c, 9, 38, 0
1, 99600, Note_on_c, 9, 38, 120
1, 99600, Note_on_c, 9, 49, 60
1, 99610, Note_on_c, 9, 49, 0
1, 99839, Note_on_c, 9, 38, 0
1, 99840, Note_on_c, 9, 49, 60
1, 99840, Note_on_c, 9, 36, 120
1, 99862, Note_on_c, 9, 49, 0
1, 100319, Note_on_c, 9, 36, 0
1, 100320, Note_on_c, 9, 38, 120
1, 100320, Note_on_c, 9, 42, 40
1, 100330, Note_on_c, 9, 42, 0
1, 100559, Note_on_c, 9, 38, 0
1, 100560, Note_on_c, 9, 42, 40
1, 100570, Note_on_c, 9, 42, 0
1, 100800, Note_on_c, 9, 42, 40
1, 100800, Note_on_c, 9, 36, 120
1, 100810, Note_on_c, 9, 42, 0
1, 101040, Note_on_c, 9, 42, 40
1, 101050, Note_on_c, 9, 42, 0
1, 101279, Note_on_c, 9, 36, 0
1, 101280, Note_on_c, 9, 38, 120
1, 101280, Note_on_c, 9, 42, 40
1, 101290, Note_on_c, 9, 42, 0
1, 101519, Note_on_c, 9, 38, 0
1, 101520, Note_on_c, 9, 42, 40
1, 101530, Note_on_c, 9, 42, 0
1, 101760, Note_on_c, 9, 42, 40
1, 101760, Note_on_c, 9, 36, 120
1, 101770, Note_on_c, 9, 42, 0
1, 102000, Note_on_c, 9, 42, 40
1, 102010, Note_on_c, 9, 42, 0
1, 102239, Note_on_c, 9, 36, 0
1, 102240, Note_on_c, 9, 38, 120
1, 102240, Note_on_c, 9, 42, 40
1, 102250, Note_on_c, 9, 42, 0
1, 102479, Note_on_c, 9, 38, 0
1, 102480, Note_on_c, 9, 42, 40
1, 102490, Note_on_c, 9, 42, 0
1, 102720, Note_on_c, 9, 42, 40
1, 102720, Note_on_c, 9, 36, 120
1, 102730, Note_on_c, 9, 42, 0
1, 102959, Note_on_c, 9, 36, 0
1, 102960, Note_on_c, 9, 42, 40
1, 102960, Note_on_c, 9, 36, 120
1, 102970, Note_on_c, 9, 42, 0
1, 103199, Note_on_c, 9, 36, 0
1, 103200, Note_on_c, 9, 38, 120
1, 103200, Note_on_c, 9, 42, 40
1, 103210, Note_on_c, 9, 42, 0
1, 103439, Note_on_c, 9, 38, 0
1, 103440, Note_on_c, 9, 42, 40
1, 103450, Note_on_c, 9, 42, 0
1, 103680, Note_on_c, 9, 42, 40
1, 103680, Note_on_c, 9, 36, 120
1, 103690, Note_on_c, 9, 42, 0
1, 103920, Note_on_c, 9, 42, 40
1, 103930, Note_on_c, 9, 42, 0
1, 104159, Note_on_c, 9, 36, 0
1, 104160, Note_on_c, 9, 38, 120
1, 104160, Note_on_c, 9, 42, 40
1, 104170, Note_on_c, 9, 42, 0
1, 104399, Note_on_c, 9, 38, 0
1, 104400, Note_on_c, 9, 42, 40
1, 104410, Note_on_c, 9, 42, 0
1, 104640, Note_on_c, 9, 42, 40
1, 104640, Note_on_c, 9, 36, 120
1, 104650, Note_on_c, 9, 42, 0
1, 104880, Note_on_c, 9, 42, 40
1, 104890, Note_on_c, 9, 42, 0
1, 105119, Note_on_c, 9, 36, 0
1, 105120, Note_on_c, 9, 42, 40
1, 105120, Note_on_c, 9, 36, 120
1, 105130, Note_on_c, 9, 42, 0
1, 105360, Note_on_c, 9, 38, 120
1, 105360, Note_on_c, 9, 49, 60
1, 105370, Note_on_c, 9, 49, 0
1, 105599, Note_on_c, 9, 36, 0
1, 105599, Note_on_c, 9, 38, 0
1, 105600, Note_on_c, 9, 42, 40
1, 105600, Note_on_c, 9, 36, 120
1, 105610, Note_on_c, 9, 42, 0
1, 105840, Note_on_c, 9, 42, 40
1, 105850, Note_on_c, 9, 42, 0
1, 106079, Note_on_c, 9, 36, 0
1, 106080, Note_on_c, 9, 38, 120
1, 106080, Note_on_c, 9, 42, 40
1, 106090, Note_on_c, 9, 42, 0
1, 106319, Note_on_c, 9, 38, 0
1, 106320, Note_on_c, 9, 42, 40
1, 106330, Note_on_c, 9, 42, 0
1, 106560, Note_on_c, 9, 42, 40
1, 106560, Note_on_c, 9, 36, 120
1, 106570, Note_on_c, 9, 42, 0
1, 106799, Note_on_c, 9, 36, 0
1, 106800, Note_on_c, 9, 42, 40
1, 106800, Note_on_c, 9, 36, 120
1, 106810, Note_on_c, 9, 42, 0
1, 107039, Note_on_c, 9, 36, 0
1, 107040, Note_on_c, 9, 38, 120
1, 107040, Note_on_c, 9, 42, 40
1, 107050, Note_on_c, 9, 42, 0
1, 107279, Note_on_c, 9, 38, 0
1, 107280, Note_on_c, 9, 42, 40
1, 107280, Note_on_c, 9, 36, 120
1, 107290, Note_on_c, 9, 42, 0
1, 107519, Note_on_c, 9, 36, 0
1, 107520, Note_on_c, 9, 49, 60
1, 107520, Note_on_c, 9, 36, 120
1, 107542, Note_on_c, 9, 49, 0
1, 107999, Note_on_c, 9, 36, 0
1, 108000, Note_on_c, 9, 38, 120
1, 108000, Note_on_c, 9, 42, 40
1, 108010, Note_on_c, 9, 42, 0
1, 108239, Note_on_c, 9, 38, 0
1, 108240, Note_on_c, 9, 42, 40
1, 108250, Note_on_c, 9, 42, 0
1, 108480, Note_on_c, 9, 42, 40
1, 108480, Note_on_c, 9, 36, 120
1, 108490, Note_on_c, 9, 42, 0
1, 108720, Note_on_c, 9, 42, 40
1, 108730, Note_on_c, 9, 42, 0
1, 108959, Note_on_c, 9, 36, 0
1, 108960, Note_on_c, 9, 42, 40
1, 108960, Note_on_c, 9, 36, 120
1, 108970, Note_on_c, 9, 42, 0
1, 109200, Note_on_c, 9, 38, 120
1, 109200, Note_on_c, 9, 49, 60
1, 109210, Note_on_c, 9, 49, 0
1, 109439, Note_on_c, 9, 36, 0
1, 109439, Note_on_c, 9, 38, 0
1, 109440, Note_on_c, 9, 42, 40
1, 109440, Note_on_c, 9, 36, 120
1, 109450, Note_on_c, 9, 42, 0
1, 109680, Note_on_c, 9, 42, 40
1, 109690, Note_on_c, 9, 42, 0
1, 109919, Note_on_c, 9, 36, 0
1, 109920, Note_on_c, 9, 38, 120
1, 109920, Note_on_c, 9, 42, 40
1, 109930, Note_on_c, 9, 42, 0
1, 110159, Note_on_c, 9, 38, 0
1, 110160, Note_on_c, 9, 42, 40
1, 110170, Note_on_c, 9, 42, 0
1, 110400, Note_on_c, 9, 42, 40
1, 110400, Note_on_c, 9, 36, 120
1, 110410, Note_on_c, 9, 42, 0
1, 110639, Note_on_c, 9, 36, 0
1, 110640, Note_on_c, 9, 42, 40
1, 110640, Note_on_c, 9, 36, 120
1, 110650, Note_on_c, 9, 42, 0
1, 110879, Note_on_c, 9, 36, 0
1, 110880, Note_on_c, 9, 38, 120
1, 110880, Note_on_c, 9, 42, 40
1, 110890, Note_on_c, 9, 42, 0
1, 111119, Note_on_c, 9, 38, 0
1, 111120, Note_on_c, 9, 42, 40
1, 111120, Note_on_c, 9, 36, 120
1, 111130, Note_on_c, 9, 42, 0
1, 111359, Note_on_c, 9, 36, 0
1, 111360, Note_on_c, 9, 49, 60
1, 111360, Note_on_c, 9, 36, 120
1, 111382, Note_on_c, 9, 49, 0
1, 111839, Note_on_c, 9, 36, 0
1, 113040, Note_on_c, 9, 49, 60
1, 113040, Note_on_c, 9, 36, 120
1, 113050, Note_on_c, 9, 49, 0
1, 113279, Note_on_c, 9, 36, 0
1, 113280, Note_on_c, 9, 42, 40
1, 113290, Note_on_c, 9, 42, 0
1, 113520, Note_on_c, 9, 42, 40
1, 113530, Note_on_c, 9, 42, 0
1, 113760, Note_on_c, 9, 38, 120
1, 113760, Note_on_c, 9, 42, 40
1, 113770, Note_on_c, 9, 42, 0
1, 113999, Note_on_c, 9, 38, 0
1, 114000, Note_on_c, 9, 42, 40
1, 114010, Note_on_c, 9, 42, 0
1, 114240, Note_on_c, 9, 42, 40
1, 114240, Note_on_c, 9, 36, 120
1, 114250, Note_on_c, 9, 42, 0
1, 114480, Note_on_c, 9, 42, 40
1, 114490, Note_on_c, 9, 42, 0
1, 114719, Note_on_c, 9, 36, 0
1, 114720, Note_on_c, 9, 38, 120
1, 114720, Note_on_c, 9, 42, 40
1, 114730, Note_on_c, 9, 42, 0
1, 114959, Note_on_c, 9, 38, 0
1, 114960, Note_on_c, 9, 42, 40
1, 114970, Note_on_c, 9, 42, 0
1, 115200, Note_on_c, 9, 42, 40
1, 115200, Note_on_c, 9, 36, 120
1, 115210, Note_on_c, 9, 42, 0
1, 115440, Note_on_c, 9, 42, 40
1, 115450, Note_on_c, 9, 42, 0
1, 115679, Note_on_c, 9, 36, 0
1, 115680, Note_on_c, 9, 38, 120
1, 115680, Note_on_c, 9, 42, 40
1, 115690, Note_on_c, 9, 42, 0
1, 115919, Note_on_c, 9, 38, 0
1, 115920, Note_on_c, 9, 42, 40
1, 115930, Note_on_c, 9, 42, 0
1, 116160, Note_on_c, 9, 42, 40
1, 116160, Note_on_c, 9, 36, 120
1, 116170, Note_on_c, 9, 42, 0
1, 116400, Note_on_c, 9, 42, 40
1, 116410, Note_on_c, 9, 42, 0
1, 116639, Note_on_c, 9, 36, 0
1, 116640, Note_on_c, 9, 38, 120
1, 116640, Note_on_c, 9, 42, 40
1, 116650, Note_on_c, 9, 42, 0
1, 116879, Note_on_c, 9, 38, 0
1, 116880, Note_on_c, 9, 42, 40
1, 116890, Note_on_c, 9, 42, 0
1, 117120, Note_on_c, 9, 42, 40
1, 117120, Note_on_c, 9, 36, 120
1, 117130, Note_on_c, 9, 42, 0
1, 117360, Note_on_c, 9, 42, 40
1, 117370, Note_on_c, 9, 42, 0
1, 117599, Note_on_c, 9, 36, 0
1, 117600, Note_on_c, 9, 38, 120
1, 117600, Note_on_c, 9, 42, 40
1, 117610, Note_on_c, 9, 42, 0
1, 117839, Note_on_c, 9, 38, 0
1, 117840, Note_on_c, 9, 42, 40
1, 117850, Note_on_c, 9, 42, 0
1, 118080, Note_on_c, 9, 42, 40
1, 118080, Note_on_c, 9, 36, 120
1, 118090, Note_on_c, 9, 42, 0
1, 118320, Note_on_c, 9, 42, 40
1, 118330, Note_on_c, 9, 42, 0
1, 118559, Note_on_c, 9, 36, 0
1, 118560, Note_on_c, 9, 38, 120
1, 118560, Note_on_c, 9, 42, 40
1, 118570, Note_on_c, 9, 42, 0
1, 118799, Note_on_c, 9, 38, 0
1, 118800, Note_on_c, 9, 42, 40
1, 118810, Note_on_c, 9, 42, 0
1, 119040, Note_on_c, 9, 38, 120
1, 119040, Note_on_c, 9, 42, 40
1, 119050, Note_on_c, 9, 42, 0
1, 119279, Note_on_c, 9, 38, 0
1, 119280, Note_on_c, 9, 42, 40
1, 119280, Note_on_c, 9, 36, 120
1, 119290, Note_on_c, 9, 42, 0
1, 119519, Note_on_c, 9, 36, 0
1, 119520, Note_on_c, 9, 38, 120
1, 119520, Note_on_c, 9, 42, 40
1, 119530, Note_on_c, 9, 42, 0
1, 119759, Note_on_c, 9, 38, 0
1, 119760, Note_on_c, 9, 42, 40
1, 119770, Note_on_c, 9, 42, 0
1, 120000, Note_on_c, 9, 38, 120
1, 120000, Note_on_c, 9, 42, 40
1, 120010, Note_on_c, 9, 42, 0
1, 120239, Note_on_c, 9, 38, 0
1, 120240, Note_on_c, 9, 42, 40
1, 120240, Note_on_c, 9, 36, 120
1, 120250, Note_on_c, 9, 42, 0
1, 120479, Note_on_c, 9, 36, 0
1, 120480, Note_on_c, 9, 38, 120
1, 120480, Note_on_c, 9, 42, 40
1, 120490, Note_on_c, 9, 42, 0
1, 120719, Note_on_c, 9, 38, 0
1, 120720, Note_on_c, 9, 49, 60
1, 120720, Note_on_c, 9, 36, 120
1, 120730, Note_on_c, 9, 49, 0
1, 120959, Note_on_c, 9, 36, 0
1, 120960, Note_on_c, 9, 42, 40
1, 120970, Note_on_c, 9, 42, 0
1, 121200, Note_on_c, 9, 42, 40
1, 121210, Note_on_c, 9, 42, 0
1, 121440, Note_on_c, 9, 38, 120
1, 121440, Note_on_c, 9, 42, 40
1, 121450, Note_on_c, 9, 42, 0
1, 121679, Note_on_c, 9, 38, 0
1, 121680, Note_on_c, 9, 42, 40
1, 121690, Note_on_c, 9, 42, 0
1, 121920, Note_on_c, 9, 42, 40
1, 121920, Note_on_c, 9, 36, 120
1, 121930, Note_on_c, 9, 42, 0
1, 122160, Note_on_c, 9, 42, 40
1, 122170, Note_on_c, 9, 42, 0
1, 122399, Note_on_c, 9, 36, 0
1, 122400, Note_on_c, 9, 38, 120
1, 122400, Note_on_c, 9, 42, 40
1, 122410, Note_on_c, 9, 42, 0
1, 122639, Note_on_c, 9, 38, 0
1, 122640, Note_on_c, 9, 42, 40
1, 122650, Note_on_c, 9, 42, 0
1, 122880, Note_on_c, 9, 42, 40
1, 122880, Note_on_c, 9, 36, 120
1, 122890, Note_on_c, 9, 42, 0
1, 123120, Note_on_c, 9, 42, 40
1, 123130, Note_on_c, 9, 42, 0
1, 123359, Note_on_c, 9, 36, 0
1, 123360, Note_on_c, 9, 38, 120
1, 123360, Note_on_c, 9, 42, 40
1, 123370, Note_on_c, 9, 42, 0
1, 123599, Note_on_c, 9, 38, 0
1, 123600, Note_on_c, 9, 42, 40
1, 123610, Note_on_c, 9, 42, 0
1, 123840, Note_on_c, 9, 42, 40
1, 123840, Note_on_c, 9, 36, 120
1, 123850, Note_on_c, 9, 42, 0
1, 124080, Note_on_c, 9, 42, 40
1, 124090, Note_on_c, 9, 42, 0
1, 124319, Note_on_c, 9, 36, 0
1, 124320, Note_on_c, 9, 38, 120
1, 124320, Note_on_c, 9, 42, 40
1, 124330, Note_on_c, 9, 42, 0
1, 124559, Note_on_c, 9, 38, 0
1, 124560, Note_on_c, 9, 42, 40
1, 124570, Note_on_c, 9, 42, 0
1, 124800, Note_on_c, 9, 42, 40
1, 124800, Note_on_c, 9, 36, 120
1, 124810, Note_on_c, 9, 42, 0
1, 125040, Note_on_c, 9, 42, 40
1, 125050, Note_on_c, 9, 42, 0
1, 125279, Note_on_c, 9, 36, 0
1, 125280, Note_on_c, 9, 38, 120
1, 125280, Note_on_c, 9, 42, 40
1, 125290, Note_on_c, 9, 42, 0
1, 125519, Note_on_c, 9, 38, 0
1, 125520, Note_on_c, 9, 42, 40
1, 125530, Note_on_c, 9, 42, 0
1, 125760, Note_on_c, 9, 42, 40
1, 125760, Note_on_c, 9, 36, 120
1, 125770, Note_on_c, 9, 42, 0
1, 126000, Note_on_c, 9, 42, 40
1, 126010, Note_on_c, 9, 42, 0
1, 126239, Note_on_c, 9, 36, 0
1, 126240, Note_on_c, 9, 38, 120
1, 126240, Note_on_c, 9, 42, 40
1, 126250, Note_on_c, 9, 42, 0
1, 126479, Note_on_c, 9, 38, 0
1, 126480, Note_on_c, 9, 42, 40
1, 126490, Note_on_c, 9, 42, 0
1, 126720, Note_on_c, 9, 38, 120
1, 126720, Note_on_c, 9, 49, 60
1, 126720, Note_on_c, 9, 36, 120
1, 126730, Note_on_c, 9, 49, 0
1, 126959, Note_on_c, 9, 38, 0
1, 126960, Note_on_c, 9, 45, 120
1, 126960, Note_on_c, 9, 47, 120
1, 127199, Note_on_c, 9, 36, 0
1, 127199, Note_on_c, 9, 45, 0
1, 127199, Note_on_c, 9, 47, 0
1, 127200, Note_on_c, 9, 45, 120
1, 127200, Note_on_c, 9, 47, 120
1, 127200, Note_on_c, 9, 36, 120
1, 127439, Note_on_c, 9, 45, 0
1, 127439, Note_on_c, 9, 47, 0
1, 127440, Note_on_c, 9, 45, 120
1, 127440, Note_on_c, 9, 47, 120
1, 127679, Note_on_c, 9, 36, 0
1, 127679, Note_on_c, 9, 45, 0
1, 127679, Note_on_c, 9, 47, 0
1, 127680, Note_on_c, 9, 45, 120
1, 127680, Note_on_c, 9, 47, 120
1, 127680, Note_on_c, 9, 36, 120
1, 127919, Note_on_c, 9, 45, 0
1, 127919, Note_on_c, 9, 47, 0
1, 127920, Note_on_c, 9, 45, 120
1, 127920, Note_on_c, 9, 47, 120
1, 128159, Note_on_c, 9, 36, 0
1, 128159, Note_on_c, 9, 45, 0
1, 128159, Note_on_c, 9, 47, 0
1, 128160, Note_on_c, 9, 45, 120
1, 128160, Note_on_c, 9, 47, 120
1, 128399, Note_on_c, 9, 45, 0
1, 128399, Note_on_c, 9, 47, 0
1, 128400, Note_on_c, 9, 49, 60
1, 128400, Note_on_c, 9, 36, 120
1, 128410, Note_on_c, 9, 49, 0
1, 128639, Note_on_c, 9, 36, 0
1, 128640, Note_on_c, 9, 42, 40
1, 128650, Note_on_c, 9, 42, 0
1, 128880, Note_on_c, 9, 42, 40
1, 128890, Note_on_c, 9, 42, 0
1, 129120, Note_on_c, 9, 38, 120
1, 129120, Note_on_c, 9, 42, 40
1, 129130, Note_on_c, 9, 42, 0
1, 129359, Note_on_c, 9, 38, 0
1, 129360, Note_on_c, 9, 42, 40
1, 129370, Note_on_c, 9, 42, 0
1, 129600, Note_on_c, 9, 42, 40
1, 129600, Note_on_c, 9, 36, 120
1, 129610, Note_on_c, 9, 42, 0
1, 129840, Note_on_c, 9, 42, 40
1, 129850, Note_on_c, 9, 42, 0
1, 130079, Note_on_c, 9, 36, 0
1, 130080, Note_on_c, 9, 38, 120
1, 130080, Note_on_c, 9, 42, 40
1, 130090, Note_on_c, 9, 42, 0
1, 130319, Note_on_c, 9, 38, 0
1, 130320, Note_on_c, 9, 42, 40
1, 130330, Note_on_c, 9, 42, 0
1, 130560, Note_on_c, 9, 42, 40
1, 130560, Note_on_c, 9, 36, 120
1, 130570, Note_on_c, 9, 42, 0
1, 130800, Note_on_c, 9, 42, 40
1, 130810, Note_on_c, 9, 42, 0
1, 131039, Note_on_c, 9, 36, 0
1, 131040, Note_on_c, 9, 38, 120
1, 131040, Note_on_c, 9, 42, 40
1, 131050, Note_on_c, 9, 42, 0
1, 131279, Note_on_c, 9, 38, 0
1, 131280, Note_on_c, 9, 42, 40
1, 131290, Note_on_c, 9, 42, 0
1, 131520, Note_on_c, 9, 42, 40
1, 131520, Note_on_c, 9, 36, 120
1, 131530, Note_on_c, 9, 42, 0
1, 131760, Note_on_c, 9, 42, 40
1, 131770, Note_on_c, 9, 42, 0
1, 131999, Note_on_c, 9, 36, 0
1, 132000, Note_on_c, 9, 38, 120
1, 132000, Note_on_c, 9, 42, 40
1, 132010, Note_on_c, 9, 42, 0
1, 132239, Note_on_c, 9, 38, 0
1, 132240, Note_on_c, 9, 42, 40
1, 132250, Note_on_c, 9, 42, 0
1, 132480, Note_on_c, 9, 42, 40
1, 132480, Note_on_c, 9, 36, 120
1, 132490, Note_on_c, 9, 42, 0
1, 132720, Note_on_c, 9, 42, 40
1, 132730, Note_on_c, 9, 42, 0
1, 132959, Note_on_c, 9, 36, 0
1, 132960, Note_on_c, 9, 38, 120
1, 132960, Note_on_c, 9, 42, 40
1, 132970, Note_on_c, 9, 42, 0
1, 133199, Note_on_c, 9, 38, 0
1, 133200, Note_on_c, 9, 42, 40
1, 133210, Note_on_c, 9, 42, 0
1, 133440, Note_on_c, 9, 42, 40
1, 133440, Note_on_c, 9, 36, 120
1, 133450, Note_on_c, 9, 42, 0
1, 133680, Note_on_c, 9, 42, 40
1, 133690, Note_on_c, 9, 42, 0
1, 133919, Note_on_c, 9, 36, 0
1, 133920, Note_on_c, 9, 38, 120
1, 133920, Note_on_c, 9, 42, 40
1, 133930, Note_on_c, 9, 42, 0
1, 134159, Note_on_c, 9, 38, 0
1, 134160, Note_on_c, 9, 42, 40
1, 134170, Note_on_c, 9, 42, 0
1, 134400, Note_on_c, 9, 42, 40
1, 134400, Note_on_c, 9, 36, 120
1, 134410, Note_on_c, 9, 42, 0
1, 134640, Note_on_c, 9, 42, 40
1, 134650, Note_on_c, 9, 42, 0
1, 134879, Note_on_c, 9, 36, 0
1, 134880, Note_on_c, 9, 38, 120
1, 134880, Note_on_c, 9, 42, 40
1, 134890, Note_on_c, 9, 42, 0
1, 135119, Note_on_c, 9, 38, 0
1, 135120, Note_on_c, 9, 42, 40
1, 135130, Note_on_c, 9, 42, 0
1, 135360, Note_on_c, 9, 42, 40
1, 135360, Note_on_c, 9, 36, 120
1, 135370, Note_on_c, 9, 42, 0
1, 135600, Note_on_c, 9, 42, 40
1, 135610, Note_on_c, 9, 42, 0
1, 135839, Note_on_c, 9, 36, 0
1, 135840, Note_on_c, 9, 38, 120
1, 135840, Note_on_c, 9, 42, 40
1, 135850, Note_on_c, 9, 42, 0
1, 136079, Note_on_c, 9, 38, 0
1, 136080, Note_on_c, 9, 49, 60
1, 136080, Note_on_c, 9, 36, 120
1, 136090, Note_on_c, 9, 49, 0
1, 136319, Note_on_c, 9, 36, 0
1, 136320, Note_on_c, 9, 42, 40
1, 136330, Note_on_c, 9, 42, 0
1, 136560, Note_on_c, 9, 42, 40
1, 136570, Note_on_c, 9, 42, 0
1, 136800, Note_on_c, 9, 38, 120
1, 136800, Note_on_c, 9, 42, 40
1, 136810, Note_on_c, 9, 42, 0
1, 137039, Note_on_c, 9, 38, 0
1, 137040, Note_on_c, 9, 42, 40
1, 137050, Note_on_c, 9, 42, 0
1, 137280, Note_on_c, 9, 42, 40
1, 137280, Note_on_c, 9, 36, 120
1, 137290, Note_on_c, 9, 42, 0
1, 137520, Note_on_c, 9, 42, 40
1, 137530, Note_on_c, 9, 42, 0
1, 137759, Note_on_c, 9, 36, 0
1, 137760, Note_on_c, 9, 38, 120
1, 137760, Note_on_c, 9, 42, 40
1, 137770, Note_on_c, 9, 42, 0
1, 137999, Note_on_c, 9, 38, 0
1, 138000, Note_on_c, 9, 42, 40
1, 138010, Note_on_c, 9, 42, 0
1, 138240, Note_on_c, 9, 42, 40
1, 138240, Note_on_c, 9, 36, 120
1, 138250, Note_on_c, 9, 42, 0
1, 138480, Note_on_c, 9, 42, 40
1, 138490, Note_on_c, 9, 42, 0
1, 138719, Note_on_c, 9, 36, 0
1, 138720, Note_on_c, 9, 38, 120
1, 138720, Note_on_c, 9, 42, 40
1, 138730, Note_on_c, 9, 42, 0
1, 138959, Note_on_c, 9, 38, 0
1, 138960, Note_on_c, 9, 42, 40
1, 138970, Note_on_c, 9, 42, 0
1, 139200, Note_on_c, 9, 42, 40
1, 139200, Note_on_c, 9, 36, 120
1, 139210, Note_on_c, 9, 42, 0
1, 139440, Note_on_c, 9, 42, 40
1, 139450, Note_on_c, 9, 42, 0
1, 139679, Note_on_c, 9, 36, 0
1, 139680, Note_on_c, 9, 38, 120
1, 139680, Note_on_c, 9, 42, 40
1, 139690, Note_on_c, 9, 42, 0
1, 139919, Note_on_c, 9, 38, 0
1, 139920, Note_on_c, 9, 42, 40
1, 139930, Note_on_c, 9, 42, 0
1, 140160, Note_on_c, 9, 42, 40
1, 140160, Note_on_c, 9, 36, 120
1, 140170, Note_on_c, 9, 42, 0
1, 140400, Note_on_c, 9, 42, 40
1, 140410, Note_on_c, 9, 42, 0
1, 140639, Note_on_c, 9, 36, 0
1, 140640, Note_on_c, 9, 38, 120
1, 140640, Note_on_c, 9, 42, 40
1, 140650, Note_on_c, 9, 42, 0
1, 140879, Note_on_c, 9, 38, 0
1, 140880, Note_on_c, 9, 42, 40
1, 140890, Note_on_c, 9, 42, 0
1, 141120, Note_on_c, 9, 42, 40
1, 141120, Note_on_c, 9, 36, 120
1, 141130, Note_on_c, 9, 42, 0
1, 141360, Note_on_c, 9, 42, 40
1, 141370, Note_on_c, 9, 42, 0
1, 141599, Note_on_c, 9, 36, 0
1, 141600, Note_on_c, 9, 38, 120
1, 141600, Note_on_c, 9, 42, 40
1, 141610, Note_on_c, 9, 42, 0
1, 141839, Note_on_c, 9, 38, 0
1, 141840, Note_on_c, 9, 42, 40
1, 141850, Note_on_c, 9, 42, 0
1, 142080, Note_on_c, 9, 42, 40
1, 142080, Note_on_c, 9, 36, 120
1, 142090, Note_on_c, 9, 42, 0
1, 142320, Note_on_c, 9, 42, 40
1, 142330, Note_on_c, 9, 42, 0
1, 142559, Note_on_c, 9, 36, 0
1, 142560, Note_on_c, 9, 38, 120
1, 142560, Note_on_c, 9, 42, 40
1, 142570, Note_on_c, 9, 42, 0
1, 142799, Note_on_c, 9, 38, 0
1, 142800, Note_on_c, 9, 42, 40
1, 142810, Note_on_c, 9, 42, 0
1, 143040, Note_on_c, 9, 42, 40
1, 143040, Note_on_c, 9, 36, 120
1, 143050, Note_on_c, 9, 42, 0
1, 143280, Note_on_c, 9, 42, 40
1, 143290, Note_on_c, 9, 42, 0
1, 143519, Note_on_c, 9, 36, 0
1, 143520, Note_on_c, 9, 38, 120
1, 143520, Note_on_c, 9, 42, 40
1, 143530, Note_on_c, 9, 42, 0
1, 143759, Note_on_c, 9, 38, 0
1, 143760, Note_on_c, 9, 49, 60
1, 143760, Note_on_c, 9, 36, 120
1, 143770, Note_on_c, 9, 49, 0
1, 143999, Note_on_c, 9, 36, 0
1, 144240, Note_on_c, 9, 42, 40
1, 144250, Note_on_c, 9, 42, 0
1, 144480, Note_on_c, 9, 42, 40
1, 144490, Note_on_c, 9, 42, 0
1, 144720, Note_on_c, 9, 42, 40
1, 144730, Note_on_c, 9, 42, 0
1, 144960, Note_on_c, 9, 38, 120
1, 144960, Note_on_c, 9, 42, 40
1, 144970, Note_on_c, 9, 42, 0
1, 145199, Note_on_c, 9, 38, 0
1, 145200, Note_on_c, 9, 42, 40
1, 145210, Note_on_c, 9, 42, 0
1, 145440, Note_on_c, 9, 42, 40
1, 145450, Note_on_c, 9, 42, 0
1, 145680, Note_on_c, 9, 49, 60
1, 145680, Note_on_c, 9, 36, 120
1, 145690, Note_on_c, 9, 49, 0
1, 145919, Note_on_c, 9, 36, 0
1, 145920, Note_on_c, 9, 42, 40
1, 145930, Note_on_c, 9, 42, 0
1, 146160, Note_on_c, 9, 42, 40
1, 146170, Note_on_c, 9, 42, 0
1, 146400, Note_on_c, 9, 42, 40
1, 146410, Note_on_c, 9, 42, 0
1, 146640, Note_on_c, 9, 42, 40
1, 146650, Note_on_c, 9, 42, 0
1, 146880, Note_on_c, 9, 38, 120
1, 146880, Note_on_c, 9, 42, 40
1, 146890, Note_on_c, 9, 42, 0
1, 147119, Note_on_c, 9, 38, 0
1, 147120, Note_on_c, 9, 42, 40
1, 147130, Note_on_c, 9, 42, 0
1, 147360, Note_on_c, 9, 42, 40
1, 147370, Note_on_c, 9, 42, 0
1, 147600, Note_on_c, 9, 49, 60
1, 147600, Note_on_c, 9, 36, 120
1, 147610, Note_on_c, 9, 49, 0
1, 147839, Note_on_c, 9, 36, 0
1, 147840, Note_on_c, 9, 42, 40
1, 147850, Note_on_c, 9, 42, 0
1, 148080, Note_on_c, 9, 42, 40
1, 148090, Note_on_c, 9, 42, 0
1, 148320, Note_on_c, 9, 42, 40
1, 148330, Note_on_c, 9, 42, 0
1, 148560, Note_on_c, 9, 42, 40
1, 148570, Note_on_c, 9, 42, 0
1, 148800, Note_on_c, 9, 38, 120
1, 148800, Note_on_c, 9, 42, 40
1, 148810, Note_on_c, 9, 42, 0
1, 149039, Note_on_c, 9, 38, 0
1, 149040, Note_on_c, 9, 42, 40
1, 149050, Note_on_c, 9, 42, 0
1, 149280, Note_on_c, 9, 42, 40
1, 149290, Note_on_c, 9, 42, 0
1, 149520, Note_on_c, 9, 42, 40
1, 149530, Note_on_c, 9, 42, 0
1, 149760, Note_on_c, 9, 38, 120
1, 149760, Note_on_c, 9, 36, 120
1, 149760, Note_on_c, 9, 43, 120
1, 149999, Note_on_c, 9, 38, 0
1, 149999, Note_on_c, 9, 36, 0
1, 149999, Note_on_c, 9, 43, 0
1, 150000, Note_on_c, 9, 38, 120
1, 150000, Note_on_c, 9, 43, 120
1, 150239, Note_on_c, 9, 38, 0
1, 150239, Note_on_c, 9, 43, 0
1, 150240, Note_on_c, 9, 38, 120
1, 150240, Note_on_c, 9, 36, 120
1, 150240, Note_on_c, 9, 43, 120
1, 150479, Note_on_c, 9, 38, 0
1, 150479, Note_on_c, 9, 36, 0
1, 150479, Note_on_c, 9, 43, 0
1, 150480, Note_on_c, 9, 38, 120
1, 150480, Note_on_c, 9, 43, 120
1, 150719, Note_on_c, 9, 38, 0
1, 150719, Note_on_c, 9, 43, 0
1, 150720, Note_on_c, 9, 38, 120
1, 150720, Note_on_c, 9, 36, 120
1, 150720, Note_on_c, 9, 43, 120
1, 150959, Note_on_c, 9, 38, 0
1, 150959, Note_on_c, 9, 36, 0
1, 150959, Note_on_c, 9, 43, 0
1, 150960, Note_on_c, 9, 38, 120
1, 150960, Note_on_c, 9, 43, 120
1, 151199, Note_on_c, 9, 38, 0
1, 151199, Note_on_c, 9, 43, 0
1, 151200, Note_on_c, 9, 38, 120
1, 151439, Note_on_c, 9, 38, 0
1, 151440, Note_on_c, 9, 38, 120
1, 151440, Note_on_c, 9, 49, 60
1, 151450, Note_on_c, 9, 49, 0
1, 151679, Note_on_c, 9, 38, 0
1, 151680, Note_on_c, 9, 49, 60
1, 151680, Note_on_c, 9, 36, 120
1, 151702, Note_on_c, 9, 49, 0
1, 152159, Note_on_c, 9, 36, 0
1, 152160, Note_on_c, 9, 38, 120
1, 152160, Note_on_c, 9, 42, 40
1, 152170, Note_on_c, 9, 42, 0
1, 152399, Note_on_c, 9, 38, 0
1, 152400, Note_on_c, 9, 42, 40
1, 152410, Note_on_c, 9, 42, 0
1, 152640, Note_on_c, 9, 42, 40
1, 152640, Note_on_c, 9, 36, 120
1, 152650, Note_on_c, 9, 42, 0
1, 152880, Note_on_c, 9, 42, 40
1, 152890, Note_on_c, 9, 42, 0
1, 153119, Note_on_c, 9, 36, 0
1, 153120, Note_on_c, 9, 38, 120
1, 153120, Note_on_c, 9, 42, 40
1, 153130, Note_on_c, 9, 42, 0
1, 153359, Note_on_c, 9, 38, 0
1, 153360, Note_on_c, 9, 42, 40
1, 153370, Note_on_c, 9, 42, 0
1, 153600, Note_on_c, 9, 42, 40
1, 153600, Note_on_c, 9, 36, 120
1, 153610, Note_on_c, 9, 42, 0
1, 153840, Note_on_c, 9, 42, 40
1, 153850, Note_on_c, 9, 42, 0
1, 154079, Note_on_c, 9, 36, 0
1, 154080, Note_on_c, 9, 38, 120
1, 154080, Note_on_c, 9, 42, 40
1, 154090, Note_on_c, 9, 42, 0
1, 154319, Note_on_c, 9, 38, 0
1, 154320, Note_on_c, 9, 42, 40
1, 154330, Note_on_c, 9, 42, 0
1, 154560, Note_on_c, 9, 42, 40
1, 154560, Note_on_c, 9, 36, 120
1, 154570, Note_on_c, 9, 42, 0
1, 154799, Note_on_c, 9, 36, 0
1, 154800, Note_on_c, 9, 42, 40
1, 154800, Note_on_c, 9, 36, 120
1, 154810, Note_on_c, 9, 42, 0
1, 155039, Note_on_c, 9, 36, 0
1, 155040, Note_on_c, 9, 38, 120
1, 155040, Note_on_c, 9, 42, 40
1, 155050, Note_on_c, 9, 42, 0
1, 155279, Note_on_c, 9, 38, 0
1, 155280, Note_on_c, 9, 42, 40
1, 155290, Note_on_c, 9, 42, 0
1, 155520, Note_on_c, 9, 42, 40
1, 155520, Note_on_c, 9, 36, 120
1, 155530, Note_on_c, 9, 42, 0
1, 155760, Note_on_c, 9, 42, 40
1, 155770, Note_on_c, 9, 42, 0
1, 155999, Note_on_c, 9, 36, 0
1, 156000, Note_on_c, 9, 38, 120
1, 156000, Note_on_c, 9, 42, 40
1, 156010, Note_on_c, 9, 42, 0
1, 156239, Note_on_c, 9, 38, 0
1, 156240, Note_on_c, 9, 42, 40
1, 156250, Note_on_c, 9, 42, 0
1, 156480, Note_on_c, 9, 42, 40
1, 156480, Note_on_c, 9, 36, 120
1, 156490, Note_on_c, 9, 42, 0
1, 156720, Note_on_c, 9, 42, 40
1, 156730, Note_on_c, 9, 42, 0
1, 156959, Note_on_c, 9, 36, 0
1, 156960, Note_on_c, 9, 42, 40
1, 156960, Note_on_c, 9, 36, 120
1, 156970, Note_on_c, 9, 42, 0
1, 157200, Note_on_c, 9, 38, 120
1, 157200, Note_on_c, 9, 49, 60
1, 157210, Note_on_c, 9, 49, 0
1, 157439, Note_on_c, 9, 36, 0
1, 157439, Note_on_c, 9, 38, 0
1, 157440, Note_on_c, 9, 42, 40
1, 157440, Note_on_c, 9, 36, 120
1, 157450, Note_on_c, 9, 42, 0
1, 157680, Note_on_c, 9, 42, 40
1, 157690, Note_on_c, 9, 42, 0
1, 157919, Note_on_c, 9, 36, 0
1, 157920, Note_on_c, 9, 38, 120
1, 157920, Note_on_c, 9, 42, 40
1, 157930, Note_on_c, 9, 42, 0
1, 158159, Note_on_c, 9, 38, 0
1, 158160, Note_on_c, 9, 42, 40
1, 158170, Note_on_c, 9, 42, 0
1, 158400, Note_on_c, 9, 42, 40
1, 158400, Note_on_c, 9, 36, 120
1, 158410, Note_on_c, 9, 42, 0
1, 158639, Note_on_c, 9, 36, 0
1, 158640, Note_on_c, 9, 42, 40
1, 158640, Note_on_c, 9, 36, 120
1, 158650, Note_on_c, 9, 42, 0
1, 158879, Note_on_c, 9, 36, 0
1, 158880, Note_on_c, 9, 38, 120
1, 158880, Note_on_c, 9, 42, 40
1, 158890, Note_on_c, 9, 42, 0
1, 159119, Note_on_c, 9, 38, 0
1, 159120, Note_on_c, 9, 42, 40
1, 159120, Note_on_c, 9, 36, 120
1, 159130, Note_on_c, 9, 42, 0
1, 159359, Note_on_c, 9, 36, 0
1, 159360, Note_on_c, 9, 49, 60
1, 159360, Note_on_c, 9, 36, 120
1, 159382, Note_on_c, 9, 49, 0
1, 159839, Note_on_c, 9, 36, 0
1, 159840, Note_on_c, 9, 38, 120
1, 159840, Note_on_c, 9, 42, 40
1, 159850, Note_on_c, 9, 42, 0
1, 160079, Note_on_c, 9, 38, 0
1, 160080, Note_on_c, 9, 42, 40
1, 160090, Note_on_c, 9, 42, 0
1, 160320, Note_on_c, 9, 42, 40
1, 160320, Note_on_c, 9, 36, 120
1, 160330, Note_on_c, 9, 42, 0
1, 160560, Note_on_c, 9, 42, 40
1, 160570, Note_on_c, 9, 42, 0
1, 160799, Note_on_c, 9, 36, 0
1, 160800, Note_on_c, 9, 42, 40
1, 160800, Note_on_c, 9, 36, 120
1, 160810, Note_on_c, 9, 42, 0
1, 161040, Note_on_c, 9, 38, 120
1, 161040, Note_on_c, 9, 49, 60
1, 161050, Note_on_c, 9, 49, 0
1, 161279, Note_on_c, 9, 36, 0
1, 161279, Note_on_c, 9, 38, 0
1, 161280, Note_on_c, 9, 42, 40
1, 161280, Note_on_c, 9, 36, 120
1, 161290, Note_on_c, 9, 42, 0
1, 161520, Note_on_c, 9, 42, 40
1, 161530, Note_on_c, 9, 42, 0
1, 161759, Note_on_c, 9, 36, 0
1, 161760, Note_on_c, 9, 38, 120
1, 161760, Note_on_c, 9, 42, 40
1, 161770, Note_on_c, 9, 42, 0
1, 161999, Note_on_c, 9, 38, 0
1, 162000, Note_on_c, 9, 42, 40
1, 162010, Note_on_c, 9, 42, 0
1, 162240, Note_on_c, 9, 42, 40
1, 162240, Note_on_c, 9, 36, 120
1, 162250, Note_on_c, 9, 42, 0
1, 162479, Note_on_c, 9, 36, 0
1, 162480, Note_on_c, 9, 42, 40
1, 162480, Note_on_c, 9, 36, 120
1, 162490, Note_on_c, 9, 42, 0
1, 162719, Note_on_c, 9, 36, 0
1, 162720, Note_on_c, 9, 38, 120
1, 162720, Note_on_c, 9, 42, 40
1, 162730, Note_on_c, 9, 42, 0
1, 162959, Note_on_c, 9, 38, 0
1, 162960, Note_on_c, 9, 42, 40
1, 162960, Note_on_c, 9, 36, 120
1, 162970, Note_on_c, 9, 42, 0
1, 163199, Note_on_c, 9, 36, 0
1, 163200, Note_on_c, 9, 49, 60
1, 163200, Note_on_c, 9, 36, 120
1, 163222, Note_on_c, 9, 49, 0
1, 163679, Note_on_c, 9, 36, 0
1, 164880, Note_on_c, 9, 49, 60
1, 164880, Note_on_c, 9, 36, 120
1, 164890, Note_on_c, 9, 49, 0
1, 165119, Note_on_c, 9, 36, 0
1, 165360, Note_on_c, 9, 36, 120
1, 165599, Note_on_c, 9, 36, 0
1, 165600, Note_on_c, 9, 38, 120
1, 165840, Note_on_c, 9, 36, 120
1, 166079, Note_on_c, 9, 38, 0
1, 166079, Note_on_c, 9, 36, 0
1, 166080, Note_on_c, 9, 38, 120
1, 166320, Note_on_c, 9, 36, 120
1, 166559, Note_on_c, 9, 38, 0
1, 166559, Note_on_c, 9, 36, 0
1, 166560, Note_on_c, 9, 38, 120
1, 166799, Note_on_c, 9, 38, 0
1, 166800, Note_on_c, 9, 49, 60
1, 166800, Note_on_c, 9, 36, 120
1, 166810, Note_on_c, 9, 49, 0
1, 167039, Note_on_c, 9, 36, 0
1, 167040, Note_on_c, 9, 42, 40
1, 167050, Note_on_c, 9, 42, 0
1, 167280, Note_on_c, 9, 42, 40
1, 167290, Note_on_c, 9, 42, 0
1, 167520, Note_on_c, 9, 38, 120
1, 167520, Note_on_c, 9, 42, 40
1, 167530, Note_on_c, 9, 42, 0
1, 167759, Note_on_c, 9, 38, 0
1, 167760, Note_on_c, 9, 42, 40
1, 167770, Note_on_c, 9, 42, 0
1, 168000, Note_on_c, 9, 42, 40
1, 168000, Note_on_c, 9, 36, 120
1, 168010, Note_on_c, 9, 42, 0
1, 168240, Note_on_c, 9, 42, 40
1, 168250, Note_on_c, 9, 42, 0
1, 168479, Note_on_c, 9, 36, 0
1, 168480, Note_on_c, 9, 38, 120
1, 168480, Note_on_c, 9, 42, 40
1, 168490, Note_on_c, 9, 42, 0
1, 168719, Note_on_c, 9, 38, 0
1, 168720, Note_on_c, 9, 42, 40
1, 168730, Note_on_c, 9, 42, 0
1, 168960, Note_on_c, 9, 42, 40
1, 168960, Note_on_c, 9, 36, 120
1, 168970, Note_on_c, 9, 42, 0
1, 169200, Note_on_c, 9, 42, 40
1, 169210, Note_on_c, 9, 42, 0
1, 169439, Note_on_c, 9, 36, 0
1, 169440, Note_on_c, 9, 38, 120
1, 169440, Note_on_c, 9, 42, 40
1, 169450, Note_on_c, 9, 42, 0
1, 169679, Note_on_c, 9, 38, 0
1, 169680, Note_on_c, 9, 42, 40
1, 169690, Note_on_c, 9, 42, 0
1, 169920, Note_on_c, 9, 42, 40
1, 169920, Note_on_c, 9, 36, 120
1, 169930, Note_on_c, 9, 42, 0
1, 170160, Note_on_c, 9, 42, 40
1, 170170, Note_on_c, 9, 42, 0
1, 170399, Note_on_c, 9, 36, 0
1, 170400, Note_on_c, 9, 38, 120
1, 170400, Note_on_c, 9, 42, 40
1, 170410, Note_on_c, 9, 42, 0
1, 170639, Note_on_c, 9, 38, 0
1, 170640, Note_on_c, 9, 42, 40
1, 170650, Note_on_c, 9, 42, 0
1, 170880, Note_on_c, 9, 42, 40
1, 170880, Note_on_c, 9, 36, 120
1, 170890, Note_on_c, 9, 42, 0
1, 171120, Note_on_c, 9, 42, 40
1, 171130, Note_on_c, 9, 42, 0
1, 171359, Note_on_c, 9, 36, 0
1, 171360, Note_on_c, 9, 38, 120
1, 171360, Note_on_c, 9, 42, 40
1, 171370, Note_on_c, 9, 42, 0
1, 171599, Note_on_c, 9, 38, 0
1, 171600, Note_on_c, 9, 42, 40
1, 171610, Note_on_c, 9, 42, 0
1, 171840, Note_on_c, 9, 42, 40
1, 171840, Note_on_c, 9, 36, 120
1, 171850, Note_on_c, 9, 42, 0
1, 172080, Note_on_c, 9, 42, 40
1, 172090, Note_on_c, 9, 42, 0
1, 172319, Note_on_c, 9, 36, 0
1, 172320, Note_on_c, 9, 38, 120
1, 172320, Note_on_c, 9, 42, 40
1, 172330, Note_on_c, 9, 42, 0
1, 172559, Note_on_c, 9, 38, 0
1, 172560, Note_on_c, 9, 42, 40
1, 172570, Note_on_c, 9, 42, 0
1, 172800, Note_on_c, 9, 42, 40
1, 172800, Note_on_c, 9, 36, 120
1, 172810, Note_on_c, 9, 42, 0
1, 173040, Note_on_c, 9, 42, 40
1, 173050, Note_on_c, 9, 42, 0
1, 173279, Note_on_c, 9, 36, 0
1, 173280, Note_on_c, 9, 38, 120
1, 173280, Note_on_c, 9, 42, 40
1, 173290, Note_on_c, 9, 42, 0
1, 173519, Note_on_c, 9, 38, 0
1, 173520, Note_on_c, 9, 42, 40
1, 173520, Note_on_c, 9, 36, 120
1, 173530, Note_on_c, 9, 42, 0
1, 173759, Note_on_c, 9, 36, 0
1, 173760, Note_on_c, 9, 42, 40
1, 173770, Note_on_c, 9, 42, 0
1, 174000, Note_on_c, 9, 42, 40
1, 174000, Note_on_c, 9, 36, 120
1, 174010, Note_on_c, 9, 42, 0
1, 174239, Note_on_c, 9, 36, 0
1, 174240, Note_on_c, 9, 38, 120
1, 174240, Note_on_c, 9, 42, 40
1, 174250, Note_on_c, 9, 42, 0
1, 174479, Note_on_c, 9, 38, 0
1, 174480, Note_on_c, 9, 49, 60
1, 174480, Note_on_c, 9, 36, 120
1, 174490, Note_on_c, 9, 49, 0
1, 174719, Note_on_c, 9, 36, 0
1, 174720, Note_on_c, 9, 42, 40
1, 174730, Note_on_c, 9, 42, 0
1, 174960, Note_on_c, 9, 42, 40
1, 174970, Note_on_c, 9, 42, 0
1, 175200, Note_on_c, 9, 38, 120
1, 175200, Note_on_c, 9, 42, 40
1, 175210, Note_on_c, 9, 42, 0
1, 175439, Note_on_c, 9, 38, 0
1, 175440, Note_on_c, 9, 42, 40
1, 175450, Note_on_c, 9, 42, 0
1, 175680, Note_on_c, 9, 42, 40
1, 175680, Note_on_c, 9, 36, 120
1, 175690, Note_on_c, 9, 42, 0
1, 175920, Note_on_c, 9, 42, 40
1, 175930, Note_on_c, 9, 42, 0
1, 176159, Note_on_c, 9, 36, 0
1, 176160, Note_on_c, 9, 38, 120
1, 176160, Note_on_c, 9, 42, 40
1, 176170, Note_on_c, 9, 42, 0
1, 176399, Note_on_c, 9, 38, 0
1, 176400, Note_on_c, 9, 42, 40
1, 176410, Note_on_c, 9, 42, 0
1, 176640, Note_on_c, 9, 42, 40
1, 176640, Note_on_c, 9, 36, 120
1, 176650, Note_on_c, 9, 42, 0
1, 176880, Note_on_c, 9, 42, 40
1, 176890, Note_on_c, 9, 42, 0
1, 177119, Note_on_c, 9, 36, 0
1, 177120, Note_on_c, 9, 38, 120
1, 177120, Note_on_c, 9, 42, 40
1, 177130, Note_on_c, 9, 42, 0
1, 177359, Note_on_c, 9, 38, 0
1, 177360, Note_on_c, 9, 42, 40
1, 177370, Note_on_c, 9, 42, 0
1, 177600, Note_on_c, 9, 42, 40
1, 177600, Note_on_c, 9, 36, 120
1, 177610, Note_on_c, 9, 42, 0
1, 177840, Note_on_c, 9, 42, 40
1, 177850, Note_on_c, 9, 42, 0
1, 178079, Note_on_c, 9, 36, 0
1, 178080, Note_on_c, 9, 38, 120
1, 178080, Note_on_c, 9, 42, 40
1, 178090, Note_on_c, 9, 42, 0
1, 178319, Note_on_c, 9, 38, 0
1, 178320, Note_on_c, 9, 42, 40
1, 178330, Note_on_c, 9, 42, 0
1, 178560, Note_on_c, 9, 42, 40
1, 178560, Note_on_c, 9, 36, 120
1, 178570, Note_on_c, 9, 42, 0
1, 178800, Note_on_c, 9, 42, 40
1, 178810, Note_on_c, 9, 42, 0
1, 179039, Note_on_c, 9, 36, 0
1, 179040, Note_on_c, 9, 38, 120
1, 179040, Note_on_c, 9, 42, 40
1, 179050, Note_on_c, 9, 42, 0
1, 179279, Note_on_c, 9, 38, 0
1, 179280, Note_on_c, 9, 42, 40
1, 179290, Note_on_c, 9, 42, 0
1, 179520, Note_on_c, 9, 42, 40
1, 179520, Note_on_c, 9, 36, 120
1, 179530, Note_on_c, 9, 42, 0
1, 179760, Note_on_c, 9, 38, 120
1, 179760, Note_on_c, 9, 42, 40
1, 179770, Note_on_c, 9, 42, 0
1, 179999, Note_on_c, 9, 36, 0
1, 179999, Note_on_c, 9, 38, 0
1, 180000, Note_on_c, 9, 48, 120
1, 180000, Note_on_c, 9, 42, 40
1, 180010, Note_on_c, 9, 42, 0
1, 180239, Note_on_c, 9, 48, 0
1, 180240, Note_on_c, 9, 42, 40
1, 180240, Note_on_c, 9, 36, 120
1, 180250, Note_on_c, 9, 42, 0
1, 180479, Note_on_c, 9, 36, 0
1, 180480, Note_on_c, 9, 38, 120
1, 180480, Note_on_c, 9, 42, 40
1, 180490, Note_on_c, 9, 42, 0
1, 180719, Note_on_c, 9, 38, 0
1, 180720, Note_on_c, 9, 38, 120
1, 180720, Note_on_c, 9, 42, 40
1, 180730, Note_on_c, 9, 42, 0
1, 180959, Note_on_c, 9, 38, 0
1, 180960, Note_on_c, 9, 42, 40
1, 180960, Note_on_c, 9, 36, 120
1, 180970, Note_on_c, 9, 42, 0
1, 181199, Note_on_c, 9, 36, 0
1, 181200, Note_on_c, 9, 42, 40
1, 181200, Note_on_c, 9, 36, 120
1, 181210, Note_on_c, 9, 42, 0
1, 181439, Note_on_c, 9, 36, 0
1, 181440, Note_on_c, 9, 42, 40
1, 181440, Note_on_c, 9, 36, 120
1, 181450, Note_on_c, 9, 42, 0
1, 181679, Note_on_c, 9, 36, 0
1, 181680, Note_on_c, 9, 42, 40
1, 181680, Note_on_c, 9, 36, 120
1, 181690, Note_on_c, 9, 42, 0
1, 181919, Note_on_c, 9, 36, 0
1, 181920, Note_on_c, 9, 38, 120
1, 181920, Note_on_c, 9, 42, 40
1, 181930, Note_on_c, 9, 42, 0
1, 182159, Note_on_c, 9, 38, 0
1, 182160, Note_on_c, 9, 49, 60
1, 182160, Note_on_c, 9, 36, 120
1, 182170, Note_on_c, 9, 49, 0
1, 182399, Note_on_c, 9, 36, 0
1, 182400, Note_on_c, 9, 42, 40
1, 182410, Note_on_c, 9, 42, 0
1, 182640, Note_on_c, 9, 42, 40
1, 182650, Note_on_c, 9, 42, 0
1, 182880, Note_on_c, 9, 42, 40
1, 182890, Note_on_c, 9, 42, 0
1, 183120, Note_on_c, 9, 42, 40
1, 183130, Note_on_c, 9, 42, 0
1, 183360, Note_on_c, 9, 38, 120
1, 183360, Note_on_c, 9, 42, 40
1, 183370, Note_on_c, 9, 42, 0
1, 183599, Note_on_c, 9, 38, 0
1, 183600, Note_on_c, 9, 42, 40
1, 183610, Note_on_c, 9, 42, 0
1, 183840, Note_on_c, 9, 42, 40
1, 183850, Note_on_c, 9, 42, 0
1, 184080, Note_on_c, 9, 49, 60
1, 184080, Note_on_c, 9, 36, 120
1, 184090, Note_on_c, 9, 49, 0
1, 184319, Note_on_c, 9, 36, 0
1, 184320, Note_on_c, 9, 42, 40
1, 184330, Note_on_c, 9, 42, 0
1, 184560, Note_on_c, 9, 42, 40
1, 184570, Note_on_c, 9, 42, 0
1, 184800, Note_on_c, 9, 42, 40
1, 184810, Note_on_c, 9, 42, 0
1, 185040, Note_on_c, 9, 42, 40
1, 185050, Note_on_c, 9, 42, 0
1, 185280, Note_on_c, 9, 38, 120
1, 185280, Note_on_c, 9, 42, 40
1, 185290, Note_on_c, 9, 42, 0
1, 185519, Note_on_c, 9, 38, 0
1, 185520, Note_on_c, 9, 42, 40
1, 185530, Note_on_c, 9, 42, 0
1, 185760, Note_on_c, 9, 42, 40
1, 185770, Note_on_c, 9, 42, 0
1, 186000, Note_on_c, 9, 49, 60
1, 186000, Note_on_c, 9, 36, 120
1, 186010, Note_on_c, 9, 49, 0
1, 186239, Note_on_c, 9, 36, 0
1, 186240, Note_on_c, 9, 42, 40
1, 186250, Note_on_c, 9, 42, 0
1, 186480, Note_on_c, 9, 42, 40
1, 186490, Note_on_c, 9, 42, 0
1, 186720, Note_on_c, 9, 42, 40
1, 186730, Note_on_c, 9, 42, 0
1, 186960, Note_on_c, 9, 42, 40
1, 186970, Note_on_c, 9, 42, 0
1, 187200, Note_on_c, 9, 38, 120
1, 187200, Note_on_c, 9, 42, 40
1, 187210, Note_on_c, 9, 42, 0
1, 187439, Note_on_c, 9, 38, 0
1, 187440, Note_on_c, 9, 42, 40
1, 187450, Note_on_c, 9, 42, 0
1, 187680, Note_on_c, 9, 42, 40
1, 187690, Note_on_c, 9, 42, 0
1, 187920, Note_on_c, 9, 42, 40
1, 187930, Note_on_c, 9, 42, 0
1, 188160, Note_on_c, 9, 38, 120
1, 188160, Note_on_c, 9, 36, 120
1, 188160, Note_on_c, 9, 43, 120
1, 188399, Note_on_c, 9, 38, 0
1, 188399, Note_on_c, 9, 36, 0
1, 188399, Note_on_c, 9, 43, 0
1, 188400, Note_on_c, 9, 38, 120
1, 188400, Note_on_c, 9, 43, 120
1, 188639, Note_on_c, 9, 38, 0
1, 188639, Note_on_c, 9, 43, 0
1, 188640, Note_on_c, 9, 38, 120
1, 188640, Note_on_c, 9, 36, 120
1, 188640, Note_on_c, 9, 43, 120
1, 188879, Note_on_c, 9, 38, 0
1, 188879, Note_on_c, 9, 36, 0
1, 188879, Note_on_c, 9, 43, 0
1, 188880, Note_on_c, 9, 38, 120
1, 188880, Note_on_c, 9, 43, 120
1, 189119, Note_on_c, 9, 38, 0
1, 189119, Note_on_c, 9, 43, 0
1, 189120, Note_on_c, 9, 38, 120
1, 189120, Note_on_c, 9, 36, 120
1, 189120, Note_on_c, 9, 43, 120
1, 189359, Note_on_c, 9, 38, 0
1, 189359, Note_on_c, 9, 36, 0
1, 189359, Note_on_c, 9, 43, 0
1, 189360, Note_on_c, 9, 38, 120
1, 189360, Note_on_c, 9, 43, 120
1, 189599, Note_on_c, 9, 38, 0
1, 189599, Note_on_c, 9, 43, 0
1, 189600, Note_on_c, 9, 38, 120
1, 189600, Note_on_c, 9, 49, 60
1, 189622, Note_on_c, 9, 49, 0
1, 190079, Note_on_c, 9, 38, 0
1, 190080, Note_on_c, 9, 49, 60
1, 190080, Note_on_c, 9, 36, 120
1, 190102, Note_on_c, 9, 49, 0
1, 190559, Note_on_c, 9, 36, 0
1, 190560, Note_on_c, 9, 38, 120
1, 190560, Note_on_c, 9, 42, 40
1, 190570, Note_on_c, 9, 42, 0
1, 190799, Note_on_c, 9, 38, 0
1, 190800, Note_on_c, 9, 42, 40
1, 190810, Note_on_c, 9, 42, 0
1, 191040, Note_on_c, 9, 42, 40
1, 191040, Note_on_c, 9, 36, 120
1, 191050, Note_on_c, 9, 42, 0
1, 191280, Note_on_c, 9, 42, 40
1, 191290, Note_on_c, 9, 42, 0
1, 191519, Note_on_c, 9, 36, 0
1, 191520, Note_on_c, 9, 38, 120
1, 191520, Note_on_c, 9, 42, 40
1, 191530, Note_on_c, 9, 42, 0
1, 191759, Note_on_c, 9, 38, 0
1, 191760, Note_on_c, 9, 42, 40
1, 191770, Note_on_c, 9, 42, 0
1, 192000, Note_on_c, 9, 42, 40
1, 192000, Note_on_c, 9, 36, 120
1, 192010, Note_on_c, 9, 42, 0
1, 192240, Note_on_c, 9, 42, 40
1, 192250, Note_on_c, 9, 42, 0
1, 192479, Note_on_c, 9, 36, 0
1, 192480, Note_on_c, 9, 38, 120
1, 192480, Note_on_c, 9, 42, 40
1, 192490, Note_on_c, 9, 42, 0
1, 192719, Note_on_c, 9, 38, 0
1, 192720, Note_on_c, 9, 42, 40
1, 192730, Note_on_c, 9, 42, 0
1, 192960, Note_on_c, 9, 42, 40
1, 192960, Note_on_c, 9, 36, 120
1, 192970, Note_on_c, 9, 42, 0
1, 193199, Note_on_c, 9, 36, 0
1, 193200, Note_on_c, 9, 42, 40
1, 193200, Note_on_c, 9, 36, 120
1, 193210, Note_on_c, 9, 42, 0
1, 193439, Note_on_c, 9, 36, 0
1, 193440, Note_on_c, 9, 38, 120
1, 193440, Note_on_c, 9, 42, 40
1, 193450, Note_on_c, 9, 42, 0
1, 193679, Note_on_c, 9, 38, 0
1, 193680, Note_on_c, 9, 42, 40
1, 193690, Note_on_c, 9, 42, 0
1, 193920, Note_on_c, 9, 42, 40
1, 193920, Note_on_c, 9, 36, 120
1, 193930, Note_on_c, 9, 42, 0
1, 194160, Note_on_c, 9, 42, 40
1, 194170, Note_on_c, 9, 42, 0
1, 194399, Note_on_c, 9, 36, 0
1, 194400, Note_on_c, 9, 38, 120
1, 194400, Note_on_c, 9, 42, 40
1, 194410, Note_on_c, 9, 42, 0
1, 194639, Note_on_c, 9, 38, 0
1, 194640, Note_on_c, 9, 42, 40
1, 194650, Note_on_c, 9, 42, 0
1, 194880, Note_on_c, 9, 42, 40
1, 194880, Note_on_c, 9, 36, 120
1, 194890, Note_on_c, 9, 42, 0
1, 195120, Note_on_c, 9, 42, 40
1, 195130, Note_on_c, 9, 42, 0
1, 195359, Note_on_c, 9, 36, 0
1, 195360, Note_on_c, 9, 42, 40
1, 195360, Note_on_c, 9, 36, 120
1, 195370, Note_on_c, 9, 42, 0
1, 195600, Note_on_c, 9, 38, 120
1, 195600, Note_on_c, 9, 49, 60
1, 195610, Note_on_c, 9, 49, 0
1, 195839, Note_on_c, 9, 36, 0
1, 195839, Note_on_c, 9, 38, 0
1, 195840, Note_on_c, 9, 42, 40
1, 195840, Note_on_c, 9, 36, 120
1, 195850, Note_on_c, 9, 42, 0
1, 196080, Note_on_c, 9, 42, 40
1, 196090, Note_on_c, 9, 42, 0
1, 196319, Note_on_c, 9, 36, 0
1, 196320, Note_on_c, 9, 38, 120
1, 196320, Note_on_c, 9, 42, 40
1, 196330, Note_on_c, 9, 42, 0
1, 196559, Note_on_c, 9, 38, 0
1, 196560, Note_on_c, 9, 42, 40
1, 196570, Note_on_c, 9, 42, 0
1, 196800, Note_on_c, 9, 42, 40
1, 196800, Note_on_c, 9, 36, 120
1, 196810, Note_on_c, 9, 42, 0
1, 197039, Note_on_c, 9, 36, 0
1, 197040, Note_on_c, 9, 42, 40
1, 197040, Note_on_c, 9, 36, 120
1, 197050, Note_on_c, 9, 42, 0
1, 197279, Note_on_c, 9, 36, 0
1, 197280, Note_on_c, 9, 38, 120
1, 197280, Note_on_c, 9, 42, 40
1, 197290, Note_on_c, 9, 42, 0
1, 197519, Note_on_c, 9, 38, 0
1, 197520, Note_on_c, 9, 42, 40
1, 197520, Note_on_c, 9, 36, 120
1, 197530, Note_on_c, 9, 42, 0
1, 197759, Note_on_c, 9, 36, 0
1, 197760, Note_on_c, 9, 49, 60
1, 197760, Note_on_c, 9, 36, 120
1, 197782, Note_on_c, 9, 49, 0
1, 198239, Note_on_c, 9, 36, 0
1, 198240, Note_on_c, 9, 38, 120
1, 198240, Note_on_c, 9, 42, 40
1, 198250, Note_on_c, 9, 42, 0
1, 198479, Note_on_c, 9, 38, 0
1, 198480, Note_on_c, 9, 42, 40
1, 198490, Note_on_c, 9, 42, 0
1, 198720, Note_on_c, 9, 42, 40
1, 198720, Note_on_c, 9, 36, 120
1, 198730, Note_on_c, 9, 42, 0
1, 198960, Note_on_c, 9, 42, 40
1, 198970, Note_on_c, 9, 42, 0
1, 199199, Note_on_c, 9, 36, 0
1, 199200, Note_on_c, 9, 42, 40
1, 199200, Note_on_c, 9, 36, 120
1, 199210, Note_on_c, 9, 42, 0
1, 199440, Note_on_c, 9, 38, 120
1, 199440, Note_on_c, 9, 49, 60
1, 199450, Note_on_c, 9, 49, 0
1, 199679, Note_on_c, 9, 36, 0
1, 199679, Note_on_c, 9, 38, 0
1, 199680, Note_on_c, 9, 42, 40
1, 199680, Note_on_c, 9, 36, 120
1, 199690, Note_on_c, 9, 42, 0
1, 199920, Note_on_c, 9, 42, 40
1, 199930, Note_on_c, 9, 42, 0
1, 200159, Note_on_c, 9, 36, 0
1, 200160, Note_on_c, 9, 38, 120
1, 200160, Note_on_c, 9, 42, 40
1, 200170, Note_on_c, 9, 42, 0
1, 200399, Note_on_c, 9, 38, 0
1, 200400, Note_on_c, 9, 42, 40
1, 200410, Note_on_c, 9, 42, 0
1, 200640, Note_on_c, 9, 42, 40
1, 200640, Note_on_c, 9, 36, 120
1, 200650, Note_on_c, 9, 42, 0
1, 200879, Note_on_c, 9, 36, 0
1, 200880, Note_on_c, 9, 42, 40
1, 200880, Note_on_c, 9, 36, 120
1, 200890, Note_on_c, 9, 42, 0
1, 201119, Note_on_c, 9, 36, 0
1, 201120, Note_on_c, 9, 38, 120
1, 201120, Note_on_c, 9, 42, 40
1, 201130, Note_on_c, 9, 42, 0
1, 201359, Note_on_c, 9, 38, 0
1, 201360, Note_on_c, 9, 42, 40
1, 201360, Note_on_c, 9, 36, 120
1, 201370, Note_on_c, 9, 42, 0
1, 201599, Note_on_c, 9, 36, 0
1, 201600, Note_on_c, 9, 49, 60
1, 201600, Note_on_c, 9, 36, 120
1, 201622, Note_on_c, 9, 49, 0
1, 202079, Note_on_c, 9, 36, 0
1, 203520, Note_on_c, 9, 41, 120
1, 203520, Note_on_c, 9, 36, 120
1, 203759, Note_on_c, 9, 41, 0
1, 203760, Note_on_c, 9, 41, 120
1, 203999, Note_on_c, 9, 36, 0
1, 203999, Note_on_c, 9, 41, 0
1, 204000, Note_on_c, 9, 41, 120
1, 204000, Note_on_c, 9, 45, 120
1, 204000, Note_on_c, 9, 36, 120
1, 204239, Note_on_c, 9, 41, 0
1, 204239, Note_on_c, 9, 45, 0
1, 204240, Note_on_c, 9, 41, 120
1, 204479, Note_on_c, 9, 36, 0
1, 204479, Note_on_c, 9, 41, 0
1, 204480, Note_on_c, 9, 41, 120
1, 204480, Note_on_c, 9, 36, 120
1, 204719, Note_on_c, 9, 41, 0
1, 204720, Note_on_c, 9, 41, 120
1, 204959, Note_on_c, 9, 36, 0
1, 204959, Note_on_c, 9, 41, 0
1, 204960, Note_on_c, 9, 41, 120
1, 204960, Note_on_c, 9, 45, 120
1, 204960, Note_on_c, 9, 36, 120
1, 205199, Note_on_c, 9, 41, 0
1, 205199, Note_on_c, 9, 45, 0
1, 205200, Note_on_c, 9, 41, 120
1, 205200, Note_on_c, 9, 45, 120
1, 205439, Note_on_c, 9, 36, 0
1, 205439, Note_on_c, 9, 41, 0
1, 205439, Note_on_c, 9, 45, 0
1, 205440, Note_on_c, 9, 41, 120
1, 205440, Note_on_c, 9, 36, 120
1, 205679, Note_on_c, 9, 41, 0
1, 205680, Note_on_c, 9, 41, 120
1, 205919, Note_on_c, 9, 36, 0
1, 205919, Note_on_c, 9, 41, 0
1, 205920, Note_on_c, 9, 41, 120
1, 205920, Note_on_c, 9, 45, 120
1, 205920, Note_on_c, 9, 36, 120
1, 206159, Note_on_c, 9, 41, 0
1, 206159, Note_on_c, 9, 45, 0
1, 206160, Note_on_c, 9, 41, 120
1, 206399, Note_on_c, 9, 36, 0
1, 206399, Note_on_c, 9, 41, 0
1, 206400, Note_on_c, 9, 41, 120
1, 206400, Note_on_c, 9, 36, 120
1, 206639, Note_on_c, 9, 41, 0
1, 206640, Note_on_c, 9, 41, 120
1, 206879, Note_on_c, 9, 36, 0
1, 206879, Note_on_c, 9, 41, 0
1, 206880, Note_on_c, 9, 41, 120
1, 206880, Note_on_c, 9, 45, 120
1, 206880, Note_on_c, 9, 36, 120
1, 207119, Note_on_c, 9, 41, 0
1, 207119, Note_on_c, 9, 45, 0
1, 207120, Note_on_c, 9, 41, 120
1, 207120, Note_on_c, 9, 45, 120
1, 207359, Note_on_c, 9, 36, 0
1, 207359, Note_on_c, 9, 41, 0
1, 207359, Note_on_c, 9, 45, 0
1, 207360, Note_on_c, 9, 41, 120
1, 207360, Note_on_c, 9, 36, 120
1, 207599, Note_on_c, 9, 41, 0
1, 207600, Note_on_c, 9, 41, 120
1, 207839, Note_on_c, 9, 36, 0
1, 207839, Note_on_c, 9, 41, 0
1, 207840, Note_on_c, 9, 41, 120
1, 207840, Note_on_c, 9, 45, 120
1, 207840, Note_on_c, 9, 36, 120
1, 208079, Note_on_c, 9, 41, 0
1, 208079, Note_on_c, 9, 45, 0
1, 208080, Note_on_c, 9, 41, 120
1, 208319, Note_on_c, 9, 36, 0
1, 208319, Note_on_c, 9, 41, 0
1, 208320, Note_on_c, 9, 41, 120
1, 208320, Note_on_c, 9, 36, 120
1, 208559, Note_on_c, 9, 41, 0
1, 208560, Note_on_c, 9, 41, 120
1, 208799, Note_on_c, 9, 36, 0
1, 208799, Note_on_c, 9, 41, 0
1, 208800, Note_on_c, 9, 41, 120
1, 208800, Note_on_c, 9, 45, 120
1, 208800, Note_on_c, 9, 36, 120
1, 209039, Note_on_c, 9, 41, 0
1, 209039, Note_on_c, 9, 45, 0
1, 209040, Note_on_c, 9, 41, 120
1, 209040, Note_on_c, 9, 45, 120
1, 209279, Note_on_c, 9, 36, 0
1, 209279, Note_on_c, 9, 41, 0
1, 209279, Note_on_c, 9, 45, 0
1, 209280, Note_on_c, 9, 41, 120
1, 209280, Note_on_c, 9, 36, 120
1, 209519, Note_on_c, 9, 41, 0
1, 209520, Note_on_c, 9, 38, 120
1, 209520, Note_on_c, 9, 49, 60
1, 209530, Note_on_c, 9, 49, 0
1, 209759, Note_on_c, 9, 36, 0
1, 209759, Note_on_c, 9, 38, 0
1, 209760, Note_on_c, 9, 36, 120
1, 210000, Note_on_c, 9, 38, 120
1, 210000, Note_on_c, 9, 49, 60
1, 210010, Note_on_c, 9, 49, 0
1, 210239, Note_on_c, 9, 36, 0
1, 210239, Note_on_c, 9, 38, 0
1, 210240, Note_on_c, 9, 36, 120
1, 210480, Note_on_c, 9, 38, 120
1, 210480, Note_on_c, 9, 49, 60
1, 210490, Note_on_c, 9, 49, 0
1, 210719, Note_on_c, 9, 36, 0
1, 210719, Note_on_c, 9, 38, 0
1, 210720, Note_on_c, 9, 36, 120
1, 210960, Note_on_c, 9, 38, 120
1, 210960, Note_on_c, 9, 49, 60
1, 210970, Note_on_c, 9, 49, 0
1, 211199, Note_on_c, 9, 36, 0
1, 211199, Note_on_c, 9, 38, 0
1, 211200, Note_on_c, 9, 41, 120
1, 211200, Note_on_c, 9, 36, 120
1, 211679, Note_on_c, 9, 41, 0
1, 211679, Note_on_c, 9, 36, 0
1, 211680, Note_on_c, 9, 41, 120
1, 211680, Note_on_c, 9, 45, 120
1, 211680, Note_on_c, 9, 36, 120
1, 211919, Note_on_c, 9, 41, 0
1, 211919, Note_on_c, 9, 45, 0
1, 211920, Note_on_c, 9, 41, 120
1, 212159, Note_on_c, 9, 36, 0
1, 212159, Note_on_c, 9, 41, 0
1, 212160, Note_on_c, 9, 41, 120
1, 212160, Note_on_c, 9, 36, 120
1, 212399, Note_on_c, 9, 41, 0
1, 212400, Note_on_c, 9, 41, 120
1, 212639, Note_on_c, 9, 36, 0
1, 212639, Note_on_c, 9, 41, 0
1, 212640, Note_on_c, 9, 41, 120
1, 212640, Note_on_c, 9, 45, 120
1, 212640, Note_on_c, 9, 36, 120
1, 212879, Note_on_c, 9, 41, 0
1, 212879, Note_on_c, 9, 45, 0
1, 212879, Note_on_c, 9, 36, 0
1, 212880, Note_on_c, 9, 41, 120
1, 212880, Note_on_c, 9, 43, 120
1, 213119, Note_on_c, 9, 41, 0
1, 213119, Note_on_c, 9, 43, 0
1, 213120, Note_on_c, 9, 41, 120
1, 213120, Note_on_c, 9, 36, 120
1, 213599, Note_on_c, 9, 41, 0
1, 213599, Note_on_c, 9, 36, 0
1, 213600, Note_on_c, 9, 41, 120
1, 213600, Note_on_c, 9, 45, 120
1, 213600, Note_on_c, 9, 36, 120
1, 213839, Note_on_c, 9, 41, 0
1, 213839, Note_on_c, 9, 45, 0
1, 213840, Note_on_c, 9, 41, 120
1, 214079, Note_on_c, 9, 36, 0
1, 214079, Note_on_c, 9, 41, 0
1, 214080, Note_on_c, 9, 41, 120
1, 214080, Note_on_c, 9, 36, 120
1, 214319, Note_on_c, 9, 41, 0
1, 214320, Note_on_c, 9, 41, 120
1, 214559, Note_on_c, 9, 36, 0
1, 214559, Note_on_c, 9, 41, 0
1, 214560, Note_on_c, 9, 41, 120
1, 214560, Note_on_c, 9, 45, 120
1, 214560, Note_on_c, 9, 36, 120
1, 214799, Note_on_c, 9, 41, 0
1, 214799, Note_on_c, 9, 45, 0
1, 214799, Note_on_c, 9, 36, 0
1, 214800, Note_on_c, 9, 41, 120
1, 214800, Note_on_c, 9, 43, 120
1, 215039, Note_on_c, 9, 41, 0
1, 215039, Note_on_c, 9, 43, 0
1, 215040, Note_on_c, 9, 41, 120
1, 215040, Note_on_c, 9, 36, 120
1, 215519, Note_on_c, 9, 41, 0
1, 215519, Note_on_c, 9, 36, 0
1, 215520, Note_on_c, 9, 41, 120
1, 215520, Note_on_c, 9, 45, 120
1, 215520, Note_on_c, 9, 36, 120
1, 215759, Note_on_c, 9, 41, 0
1, 215759, Note_on_c, 9, 45, 0
1, 215760, Note_on_c, 9, 41, 120
1, 215999, Note_on_c, 9, 36, 0
1, 215999, Note_on_c, 9, 41, 0
1, 216000, Note_on_c, 9, 41, 120
1, 216000, Note_on_c, 9, 36, 120
1, 216239, Note_on_c, 9, 41, 0
1, 216240, Note_on_c, 9, 41, 120
1, 216479, Note_on_c, 9, 36, 0
1, 216479, Note_on_c, 9, 41, 0
1, 216480, Note_on_c, 9, 41, 120
1, 216480, Note_on_c, 9, 45, 120
1, 216480, Note_on_c, 9, 36, 120
1, 216719, Note_on_c, 9, 41, 0
1, 216719, Note_on_c, 9, 45, 0
1, 216719, Note_on_c, 9, 36, 0
1, 216720, Note_on_c, 9, 41, 120
1, 216720, Note_on_c, 9, 43, 120
1, 216959, Note_on_c, 9, 41, 0
1, 216959, Note_on_c, 9, 43, 0
1, 216960, Note_on_c, 9, 41, 120
1, 216960, Note_on_c, 9, 36, 120
1, 217199, Note_on_c, 9, 41, 0
1, 217200, Note_on_c, 9, 41, 120
1, 217200, Note_on_c, 9, 45, 120
1, 217439, Note_on_c, 9, 36, 0
1, 217439, Note_on_c, 9, 41, 0
1, 217439, Note_on_c, 9, 45, 0
1, 217440, Note_on_c, 9, 41, 120
1, 217440, Note_on_c, 9, 36, 120
1, 217679, Note_on_c, 9, 41, 0
1, 217680, Note_on_c, 9, 41, 120
1, 217680, Note_on_c, 9, 45, 120
1, 217919, Note_on_c, 9, 36, 0
1, 217919, Note_on_c, 9, 41, 0
1, 217919, Note_on_c, 9, 45, 0
1, 217920, Note_on_c, 9, 41, 120
1, 217920, Note_on_c, 9, 36, 120
1, 218159, Note_on_c, 9, 41, 0
1, 218160, Note_on_c, 9, 38, 120
1, 218160, Note_on_c, 9, 49, 60
1, 218170, Note_on_c, 9, 49, 0
1, 218399, Note_on_c, 9, 36, 0
1, 218399, Note_on_c, 9, 38, 0
1, 218400, Note_on_c, 9, 36, 120
1, 218640, Note_on_c, 9, 38, 120
1, 218640, Note_on_c, 9, 49, 60
1, 218650, Note_on_c, 9, 49, 0
1, 218879, Note_on_c, 9, 36, 0
1, 218879, Note_on_c, 9, 38, 0
1, 218880, Note_on_c, 9, 41, 120
1, 218880, Note_on_c, 9, 36, 120
1, 219119, Note_on_c, 9, 41, 0
1, 219120, Note_on_c, 9, 41, 120
1, 219359, Note_on_c, 9, 36, 0
1, 219359, Note_on_c, 9, 41, 0
1, 219360, Note_on_c, 9, 41, 120
1, 219360, Note_on_c, 9, 45, 120
1, 219360, Note_on_c, 9, 36, 120
1, 219599, Note_on_c, 9, 41, 0
1, 219599, Note_on_c, 9, 45, 0
1, 219600, Note_on_c, 9, 41, 120
1, 219839, Note_on_c, 9, 36, 0
1, 219839, Note_on_c, 9, 41, 0
1, 219840, Note_on_c, 9, 41, 120
1, 219840, Note_on_c, 9, 35, 120
1, 220079, Note_on_c, 9, 41, 0
1, 220080, Note_on_c, 9, 41, 120
1, 220319, Note_on_c, 9, 35, 0
1, 220319, Note_on_c, 9, 41, 0
1, 220320, Note_on_c, 9, 41, 120
1, 220320, Note_on_c, 9, 45, 120
1, 220320, Note_on_c, 9, 36, 120
1, 220559, Note_on_c, 9, 41, 0
1, 220559, Note_on_c, 9, 45, 0
1, 220559, Note_on_c, 9, 36, 0
1, 220560, Note_on_c, 9, 41, 120
1, 220560, Note_on_c, 9, 43, 120
1, 220799, Note_on_c, 9, 41, 0
1, 220799, Note_on_c, 9, 43, 0
1, 220800, Note_on_c, 9, 41, 120
1, 220800, Note_on_c, 9, 36, 120
1, 221039, Note_on_c, 9, 41, 0
1, 221040, Note_on_c, 9, 41, 120
1, 221279, Note_on_c, 9, 36, 0
1, 221279, Note_on_c, 9, 41, 0
1, 221280, Note_on_c, 9, 41, 120
1, 221280, Note_on_c, 9, 45, 120
1, 221280, Note_on_c, 9, 36, 120
1, 221519, Note_on_c, 9, 41, 0
1, 221519, Note_on_c, 9, 45, 0
1, 221520, Note_on_c, 9, 41, 120
1, 221759, Note_on_c, 9, 36, 0
1, 221759, Note_on_c, 9, 41, 0
1, 221760, Note_on_c, 9, 41, 120
1, 221760, Note_on_c, 9, 36, 120
1, 221999, Note_on_c, 9, 41, 0
1, 222000, Note_on_c, 9, 41, 120
1, 222239, Note_on_c, 9, 36, 0
1, 222239, Note_on_c, 9, 41, 0
1, 222240, Note_on_c, 9, 41, 120
1, 222240, Note_on_c, 9, 45, 120
1, 222240, Note_on_c, 9, 36, 120
1, 222479, Note_on_c, 9, 41, 0
1, 222479, Note_on_c, 9, 45, 0
1, 222479, Note_on_c, 9, 36, 0
1, 222480, Note_on_c, 9, 41, 120
1, 222480, Note_on_c, 9, 43, 120
1, 222719, Note_on_c, 9, 41, 0
1, 222719, Note_on_c, 9, 43, 0
1, 222720, Note_on_c, 9, 41, 120
1, 222720, Note_on_c, 9, 36, 120
1, 222959, Note_on_c, 9, 41, 0
1, 222960, Note_on_c, 9, 41, 120
1, 223199, Note_on_c, 9, 36, 0
1, 223199, Note_on_c, 9, 41, 0
1, 223200, Note_on_c, 9, 41, 120
1, 223200, Note_on_c, 9, 45, 120
1, 223200, Note_on_c, 9, 36, 120
1, 223439, Note_on_c, 9, 41, 0
1, 223439, Note_on_c, 9, 45, 0
1, 223440, Note_on_c, 9, 41, 120
1, 223679, Note_on_c, 9, 36, 0
1, 223679, Note_on_c, 9, 41, 0
1, 223680, Note_on_c, 9, 41, 120
1, 223680, Note_on_c, 9, 36, 120
1, 223919, Note_on_c, 9, 41, 0
1, 223920, Note_on_c, 9, 41, 120
1, 224159, Note_on_c, 9, 36, 0
1, 224159, Note_on_c, 9, 41, 0
1, 224160, Note_on_c, 9, 41, 120
1, 224160, Note_on_c, 9, 45, 120
1, 224160, Note_on_c, 9, 36, 120
1, 224399, Note_on_c, 9, 41, 0
1, 224399, Note_on_c, 9, 45, 0
1, 224400, Note_on_c, 9, 47, 120
1, 224519, Note_on_c, 9, 47, 0
1, 224520, Note_on_c, 9, 47, 120
1, 224639, Note_on_c, 9, 36, 0
1, 224639, Note_on_c, 9, 47, 0
1, 224640, Note_on_c, 9, 47, 120
1, 224640, Note_on_c, 9, 36, 120
1, 224759, Note_on_c, 9, 47, 0
1, 224760, Note_on_c, 9, 47, 120
1, 224879, Note_on_c, 9, 47, 0
1, 224880, Note_on_c, 9, 47, 120
1, 224999, Note_on_c, 9, 47, 0
1, 225000, Note_on_c, 9, 47, 120
1, 225119, Note_on_c, 9, 36, 0
1, 225119, Note_on_c, 9, 47, 0
1, 225120, Note_on_c, 9, 45, 120
1, 225120, Note_on_c, 9, 36, 120
1, 225359, Note_on_c, 9, 45, 0
1, 225360, Note_on_c, 9, 45, 120
1, 225479, Note_on_c, 9, 45, 0
1, 225480, Note_on_c, 9, 45, 120
1, 225599, Note_on_c, 9, 36, 0
1, 225599, Note_on_c, 9, 45, 0
1, 225600, Note_on_c, 9, 36, 120
1, 225600, Note_on_c, 9, 43, 120
1, 225719, Note_on_c, 9, 36, 0
1, 225719, Note_on_c, 9, 43, 0
1, 225720, Note_on_c, 9, 43, 120
1, 225839, Note_on_c, 9, 43, 0
1, 225840, Note_on_c, 9, 43, 120
1, 225959, Note_on_c, 9, 43, 0
1, 225960, Note_on_c, 9, 43, 120
1, 226079, Note_on_c, 9, 43, 0
1, 226080, Note_on_c, 9, 41, 120
1, 226080, Note_on_c, 9, 36, 120
1, 226319, Note_on_c, 9, 41, 0
1, 226320, Note_on_c, 9, 41, 120
1, 226559, Note_on_c, 9, 36, 0
1, 226559, Note_on_c, 9, 41, 0
1, 226560, Note_on_c, 9, 41, 120
1, 226560, Note_on_c, 9, 36, 120
1, 226799, Note_on_c, 9, 41, 0
1, 226800, Note_on_c, 9, 41, 120
1, 227039, Note_on_c, 9, 36, 0
1, 227039, Note_on_c, 9, 41, 0
1, 227040, Note_on_c, 9, 38, 120
1, 227040, Note_on_c, 9, 49, 60
1, 227040, Note_on_c, 9, 36, 120
1, 227062, Note_on_c, 9, 49, 0
1, 227519, Note_on_c, 9, 38, 0
1, 227519, Note_on_c, 9, 36, 0
1, 227520, Note_on_c, 9, 41, 120
1, 227520, Note_on_c, 9, 36, 120
1, 227759, Note_on_c, 9, 41, 0
1, 227760, Note_on_c, 9, 41, 120
1, 227999, Note_on_c, 9, 36, 0
1, 227999, Note_on_c, 9, 41, 0
1, 228000, Note_on_c, 9, 41, 120
1, 228000, Note_on_c, 9, 45, 120
1, 228000, Note_on_c, 9, 36, 120
1, 228239, Note_on_c, 9, 41, 0
1, 228239, Note_on_c, 9, 45, 0
1, 228240, Note_on_c, 9, 41, 120
1, 228479, Note_on_c, 9, 36, 0
1, 228479, Note_on_c, 9, 41, 0
1, 228480, Note_on_c, 9, 41, 120
1, 228480, Note_on_c, 9, 36, 120
1, 228719, Note_on_c, 9, 41, 0
1, 228720, Note_on_c, 9, 41, 120
1, 228959, Note_on_c, 9, 36, 0
1, 228959, Note_on_c, 9, 41, 0
1, 228960, Note_on_c, 9, 41, 120
1, 228960, Note_on_c, 9, 45, 120
1, 228960, Note_on_c, 9, 36, 120
1, 229199, Note_on_c, 9, 41, 0
1, 229199, Note_on_c, 9, 45, 0
1, 229200, Note_on_c, 9, 41, 120
1, 229439, Note_on_c, 9, 36, 0
1, 229439, Note_on_c, 9, 41, 0
1, 229440, Note_on_c, 9, 41, 120
1, 229440, Note_on_c, 9, 36, 120
1, 229679, Note_on_c, 9, 41, 0
1, 229680, Note_on_c, 9, 38, 120
1, 229680, Note_on_c, 9, 49, 60
1, 229690, Note_on_c, 9, 49, 0
1, 229919, Note_on_c, 9, 36, 0
1, 229919, Note_on_c, 9, 38, 0
1, 229920, Note_on_c, 9, 36, 120
1, 230160, Note_on_c, 9, 38, 120
1, 230160, Note_on_c, 9, 49, 60
1, 230170, Note_on_c, 9, 49, 0
1, 230399, Note_on_c, 9, 36, 0
1, 230399, Note_on_c, 9, 38, 0
1, 230400, Note_on_c, 9, 41, 120
1, 230400, Note_on_c, 9, 36, 120
1, 230639, Note_on_c, 9, 41, 0
1, 230640, Note_on_c, 9, 41, 120
1, 230879, Note_on_c, 9, 36, 0
1, 230879, Note_on_c, 9, 41, 0
1, 230880, Note_on_c, 9, 41, 120
1, 230880, Note_on_c, 9, 45, 120
1, 230880, Note_on_c, 9, 36, 120
1, 231119, Note_on_c, 9, 41, 0
1, 231119, Note_on_c, 9, 45, 0
1, 231120, Note_on_c, 9, 41, 120
1, 231359, Note_on_c, 9, 36, 0
1, 231359, Note_on_c, 9, 41, 0
1, 231360, Note_on_c, 9, 41, 120
1, 231360, Note_on_c, 9, 36, 120
1, 231599, Note_on_c, 9, 41, 0
1, 231600, Note_on_c, 9, 41, 120
1, 231839, Note_on_c, 9, 36, 0
1, 231839, Note_on_c, 9, 41, 0
1, 231840, Note_on_c, 9, 41, 120
1, 231840, Note_on_c, 9, 45, 120
1, 231840, Note_on_c, 9, 36, 120
1, 232079, Note_on_c, 9, 41, 0
1, 232079, Note_on_c, 9, 45, 0
1, 232079, Note_on_c, 9, 36, 0
1, 232080, Note_on_c, 9, 41, 120
1, 232080, Note_on_c, 9, 43, 120
1, 232319, Note_on_c, 9, 41, 0
1, 232319, Note_on_c, 9, 43, 0
1, 232320, Note_on_c, 9, 41, 120
1, 232320, Note_on_c, 9, 36, 120
1, 232559, Note_on_c, 9, 41, 0
1, 232560, Note_on_c, 9, 41, 120
1, 232799, Note_on_c, 9, 36, 0
1, 232799, Note_on_c, 9, 41, 0
1, 232800, Note_on_c, 9, 41, 120
1, 232800, Note_on_c, 9, 45, 120
1, 232800, Note_on_c, 9, 36, 120
1, 233039, Note_on_c, 9, 41, 0
1, 233039, Note_on_c, 9, 45, 0
1, 233040, Note_on_c, 9, 41, 120
1, 233279, Note_on_c, 9, 36, 0
1, 233279, Note_on_c, 9, 41, 0
1, 233280, Note_on_c, 9, 41, 120
1, 233280, Note_on_c, 9, 36, 120
1, 233519, Note_on_c, 9, 41, 0
1, 233520, Note_on_c, 9, 38, 120
1, 233520, Note_on_c, 9, 49, 60
1, 233530, Note_on_c, 9, 49, 0
1, 233759, Note_on_c, 9, 36, 0
1, 233759, Note_on_c, 9, 38, 0
1, 233760, Note_on_c, 9, 36, 120
1, 234000, Note_on_c, 9, 38, 120
1, 234000, Note_on_c, 9, 49, 60
1, 234010, Note_on_c, 9, 49, 0
1, 234239, Note_on_c, 9, 36, 0
1, 234239, Note_on_c, 9, 38, 0
1, 234240, Note_on_c, 9, 41, 120
1, 234240, Note_on_c, 9, 36, 120
1, 234479, Note_on_c, 9, 41, 0
1, 234480, Note_on_c, 9, 41, 120
1, 234719, Note_on_c, 9, 36, 0
1, 234719, Note_on_c, 9, 41, 0
1, 234720, Note_on_c, 9, 41, 120
1, 234720, Note_on_c, 9, 45, 120
1, 234720, Note_on_c, 9, 36, 120
1, 234959, Note_on_c, 9, 41, 0
1, 234959, Note_on_c, 9, 45, 0
1, 234960, Note_on_c, 9, 41, 120
1, 235199, Note_on_c, 9, 36, 0
1, 235199, Note_on_c, 9, 41, 0
1, 235200, Note_on_c, 9, 41, 120
1, 235200, Note_on_c, 9, 36, 120
1, 235439, Note_on_c, 9, 41, 0
1, 235440, Note_on_c, 9, 41, 120
1, 235679, Note_on_c, 9, 36, 0
1, 235679, Note_on_c, 9, 41, 0
1, 235680, Note_on_c, 9, 41, 120
1, 235680, Note_on_c, 9, 45, 120
1, 235680, Note_on_c, 9, 36, 120
1, 235919, Note_on_c, 9, 41, 0
1, 235919, Note_on_c, 9, 45, 0
1, 235919, Note_on_c, 9, 36, 0
1, 235920, Note_on_c, 9, 41, 120
1, 235920, Note_on_c, 9, 43, 120
1, 236159, Note_on_c, 9, 41, 0
1, 236159, Note_on_c, 9, 43, 0
1, 236160, Note_on_c, 9, 41, 120
1, 236160, Note_on_c, 9, 36, 120
1, 236399, Note_on_c, 9, 41, 0
1, 236400, Note_on_c, 9, 41, 120
1, 236639, Note_on_c, 9, 36, 0
1, 236639, Note_on_c, 9, 41, 0
1, 236640, Note_on_c, 9, 41, 120
1, 236640, Note_on_c, 9, 45, 120
1, 236640, Note_on_c, 9, 36, 120
1, 236879, Note_on_c, 9, 41, 0
1, 236879, Note_on_c, 9, 45, 0
1, 236880, Note_on_c, 9, 41, 120
1, 237119, Note_on_c, 9, 36, 0
1, 237119, Note_on_c, 9, 41, 0
1, 237120, Note_on_c, 9, 41, 120
1, 237120, Note_on_c, 9, 36, 120
1, 237359, Note_on_c, 9, 41, 0
1, 237360, Note_on_c, 9, 41, 120
1, 237599, Note_on_c, 9, 36, 0
1, 237599, Note_on_c, 9, 41, 0
1, 237600, Note_on_c, 9, 41, 120
1, 237600, Note_on_c, 9, 45, 120
1, 237600, Note_on_c, 9, 36, 120
1, 237839, Note_on_c, 9, 41, 0
1, 237839, Note_on_c, 9, 45, 0
1, 237839, Note_on_c, 9, 36, 0
1, 237840, Note_on_c, 9, 41, 120
1, 237840, Note_on_c, 9, 43, 120
1, 238079, Note_on_c, 9, 41, 0
1, 238079, Note_on_c, 9, 43, 0
1, 238080, Note_on_c, 9, 38, 120
1, 238080, Note_on_c, 9, 36, 120
1, 238080, Note_on_c, 9, 43, 120
1, 238319, Note_on_c, 9, 38, 0
1, 238319, Note_on_c, 9, 36, 0
1, 238319, Note_on_c, 9, 43, 0
1, 238320, Note_on_c, 9, 38, 120
1, 238320, Note_on_c, 9, 43, 120
1, 238559, Note_on_c, 9, 38, 0
1, 238559, Note_on_c, 9, 43, 0
1, 238560, Note_on_c, 9, 38, 120
1, 238560, Note_on_c, 9, 36, 120
1, 238560, Note_on_c, 9, 43, 120
1, 238799, Note_on_c, 9, 38, 0
1, 238799, Note_on_c, 9, 36, 0
1, 238799, Note_on_c, 9, 43, 0
1, 238800, Note_on_c, 9, 38, 120
1, 238800, Note_on_c, 9, 43, 120
1, 239039, Note_on_c, 9, 38, 0
1, 239039, Note_on_c, 9, 43, 0
1, 239040, Note_on_c, 9, 38, 120
1, 239040, Note_on_c, 9, 36, 120
1, 239040, Note_on_c, 9, 43, 120
1, 239279, Note_on_c, 9, 38, 0
1, 239279, Note_on_c, 9, 36, 0
1, 239279, Note_on_c, 9, 43, 0
1, 239280, Note_on_c, 9, 38, 120
1, 239280, Note_on_c, 9, 43, 120
1, 239519, Note_on_c, 9, 38, 0
1, 239519, Note_on_c, 9, 43, 0
1, 239520, Note_on_c, 9, 38, 120
1, 239520, Note_on_c, 9, 36, 120
1, 239520, Note_on_c, 9, 43, 120
1, 239759, Note_on_c, 9, 38, 0
1, 239759, Note_on_c, 9, 36, 0
1, 239759, Note_on_c, 9, 43, 0
1, 239760, Note_on_c, 9, 38, 120
1, 239760, Note_on_c, 9, 43, 120
1, 239999, Note_on_c, 9, 38, 0
1, 239999, Note_on_c, 9, 43, 0
1, 240000, Note_on_c, 9, 38, 120
1, 240000, Note_on_c, 9, 36, 120
1, 240000, Note_on_c, 9, 43, 120
1, 240239, Note_on_c, 9, 38, 0
1, 240239, Note_on_c, 9, 36, 0
1, 240239, Note_on_c, 9, 43, 0
1, 240240, Note_on_c, 9, 38, 120
1, 240240, Note_on_c, 9, 43, 120
1, 240479, Note_on_c, 9, 38, 0
1, 240479, Note_on_c, 9, 43, 0
1, 240480, Note_on_c, 9, 38, 120
1, 240480, Note_on_c, 9, 36, 120
1, 240480, Note_on_c, 9, 43, 120
1, 240719, Note_on_c, 9, 38, 0
1, 240719, Note_on_c, 9, 36, 0
1, 240719, Note_on_c, 9, 43, 0
1, 240720, Note_on_c, 9, 38, 120
1, 240720, Note_on_c, 9, 43, 120
1, 240959, Note_on_c, 9, 38, 0
1, 240959, Note_on_c, 9, 43, 0
1, 240960, Note_on_c, 9, 38, 120
1, 241200, Note_on_c, 9, 36, 120
1, 241439, Note_on_c, 9, 38, 0
1, 241439, Note_on_c, 9, 36, 0
1, 241440, Note_on_c, 9, 38, 120
1, 241459, Note_on_c, 9, 38, 0
1, 241460, Note_on_c, 9, 38, 120
1, 241499, Note_on_c, 9, 38, 0
1, 241680, Note_on_c, 9, 36, 120
1, 241919, Note_on_c, 9, 36, 0
1, 241920, Note_on_c, 9, 49, 60
1, 241920, Note_on_c, 9, 36, 120
1, 241942, Note_on_c, 9, 49, 0
1, 242399, Note_on_c, 9, 36, 0
1, 242400, Note_on_c, 9, 38, 120
1, 242400, Note_on_c, 9, 42, 40
1, 242410, Note_on_c, 9, 42, 0
1, 242639, Note_on_c, 9, 38, 0
1, 242640, Note_on_c, 9, 42, 40
1, 242650, Note_on_c, 9, 42, 0
1, 242880, Note_on_c, 9, 42, 40
1, 242880, Note_on_c, 9, 36, 120
1, 242890, Note_on_c, 9, 42, 0
1, 243120, Note_on_c, 9, 42, 40
1, 243130, Note_on_c, 9, 42, 0
1, 243359, Note_on_c, 9, 36, 0
1, 243360, Note_on_c, 9, 38, 120
1, 243360, Note_on_c, 9, 42, 40
1, 243370, Note_on_c, 9, 42, 0
1, 243599, Note_on_c, 9, 38, 0
1, 243600, Note_on_c, 9, 42, 40
1, 243610, Note_on_c, 9, 42, 0
1, 243840, Note_on_c, 9, 42, 40
1, 243840, Note_on_c, 9, 36, 120
1, 243850, Note_on_c, 9, 42, 0
1, 244080, Note_on_c, 9, 42, 40
1, 244090, Note_on_c, 9, 42, 0
1, 244319, Note_on_c, 9, 36, 0
1, 244320, Note_on_c, 9, 38, 120
1, 244320, Note_on_c, 9, 42, 40
1, 244330, Note_on_c, 9, 42, 0
1, 244559, Note_on_c, 9, 38, 0
1, 244560, Note_on_c, 9, 42, 40
1, 244570, Note_on_c, 9, 42, 0
1, 244800, Note_on_c, 9, 42, 40
1, 244800, Note_on_c, 9, 36, 120
1, 244810, Note_on_c, 9, 42, 0
1, 245039, Note_on_c, 9, 36, 0
1, 245040, Note_on_c, 9, 42, 40
1, 245040, Note_on_c, 9, 36, 120
1, 245050, Note_on_c, 9, 42, 0
1, 245279, Note_on_c, 9, 36, 0
1, 245280, Note_on_c, 9, 38, 120
1, 245280, Note_on_c, 9, 42, 40
1, 245290, Note_on_c, 9, 42, 0
1, 245519, Note_on_c, 9, 38, 0
1, 245520, Note_on_c, 9, 42, 40
1, 245530, Note_on_c, 9, 42, 0
1, 245760, Note_on_c, 9, 42, 40
1, 245760, Note_on_c, 9, 36, 120
1, 245770, Note_on_c, 9, 42, 0
1, 246000, Note_on_c, 9, 42, 40
1, 246010, Note_on_c, 9, 42, 0
1, 246239, Note_on_c, 9, 36, 0
1, 246240, Note_on_c, 9, 38, 120
1, 246240, Note_on_c, 9, 42, 40
1, 246250, Note_on_c, 9, 42, 0
1, 246479, Note_on_c, 9, 38, 0
1, 246480, Note_on_c, 9, 42, 40
1, 246490, Note_on_c, 9, 42, 0
1, 246720, Note_on_c, 9, 42, 40
1, 246720, Note_on_c, 9, 36, 120
1, 246730, Note_on_c, 9, 42, 0
1, 246960, Note_on_c, 9, 42, 40
1, 246970, Note_on_c, 9, 42, 0
1, 247199, Note_on_c, 9, 36, 0
1, 247200, Note_on_c, 9, 42, 40
1, 247200, Note_on_c, 9, 36, 120
1, 247210, Note_on_c, 9, 42, 0
1, 247440, Note_on_c, 9, 38, 120
1, 247440, Note_on_c, 9, 49, 60
1, 247450, Note_on_c, 9, 49, 0
1, 247679, Note_on_c, 9, 36, 0
1, 247679, Note_on_c, 9, 38, 0
1, 247680, Note_on_c, 9, 42, 40
1, 247680, Note_on_c, 9, 36, 120
1, 247690, Note_on_c, 9, 42, 0
1, 247920, Note_on_c, 9, 42, 40
1, 247930, Note_on_c, 9, 42, 0
1, 248159, Note_on_c, 9, 36, 0
1, 248160, Note_on_c, 9, 38, 120
1, 248160, Note_on_c, 9, 42, 40
1, 248170, Note_on_c, 9, 42, 0
1, 248399, Note_on_c, 9, 38, 0
1, 248400, Note_on_c, 9, 42, 40
1, 248410, Note_on_c, 9, 42, 0
1, 248640, Note_on_c, 9, 42, 40
1, 248640, Note_on_c, 9, 36, 120
1, 248650, Note_on_c, 9, 42, 0
1, 248879, Note_on_c, 9, 36, 0
1, 248880, Note_on_c, 9, 42, 40
1, 248880, Note_on_c, 9, 36, 120
1, 248890, Note_on_c, 9, 42, 0
1, 249119, Note_on_c, 9, 36, 0
1, 249120, Note_on_c, 9, 38, 120
1, 249120, Note_on_c, 9, 42, 40
1, 249130, Note_on_c, 9, 42, 0
1, 249359, Note_on_c, 9, 38, 0
1, 249360, Note_on_c, 9, 42, 40
1, 249360, Note_on_c, 9, 36, 120
1, 249370, Note_on_c, 9, 42, 0
1, 249599, Note_on_c, 9, 36, 0
1, 249600, Note_on_c, 9, 49, 60
1, 249600, Note_on_c, 9, 36, 120
1, 249622, Note_on_c, 9, 49, 0
1, 250079, Note_on_c, 9, 36, 0
1, 250080, Note_on_c, 9, 38, 120
1, 250080, Note_on_c, 9, 42, 40
1, 250090, Note_on_c, 9, 42, 0
1, 250319, Note_on_c, 9, 38, 0
1, 250320, Note_on_c, 9, 42, 40
1, 250330, Note_on_c, 9, 42, 0
1, 250560, Note_on_c, 9, 42, 40
1, 250560, Note_on_c, 9, 36, 120
1, 250570, Note_on_c, 9, 42, 0
1, 250800, Note_on_c, 9, 42, 40
1, 250810, Note_on_c, 9, 42, 0
1, 251039, Note_on_c, 9, 36, 0
1, 251040, Note_on_c, 9, 42, 40
1, 251040, Note_on_c, 9, 36, 120
1, 251050, Note_on_c, 9, 42, 0
1, 251280, Note_on_c, 9, 38, 120
1, 251280, Note_on_c, 9, 49, 60
1, 251290, Note_on_c, 9, 49, 0
1, 251519, Note_on_c, 9, 36, 0
1, 251519, Note_on_c, 9, 38, 0
1, 251520, Note_on_c, 9, 42, 40
1, 251520, Note_on_c, 9, 36, 120
1, 251530, Note_on_c, 9, 42, 0
1, 251760, Note_on_c, 9, 42, 40
1, 251770, Note_on_c, 9, 42, 0
1, 251999, Note_on_c, 9, 36, 0
1, 252000, Note_on_c, 9, 38, 120
1, 252000, Note_on_c, 9, 42, 40
1, 252010, Note_on_c, 9, 42, 0
1, 252239, Note_on_c, 9, 38, 0
1, 252240, Note_on_c, 9, 42, 40
1, 252250, Note_on_c, 9, 42, 0
1, 252480, Note_on_c, 9, 38, 120
1, 252720, Note_on_c, 9, 36, 120
1, 252959, Note_on_c, 9, 38, 0
1, 252959, Note_on_c, 9, 36, 0
1, 252960, Note_on_c, 9, 38, 120
1, 253200, Note_on_c, 9, 36, 120
1, 253439, Note_on_c, 9, 38, 0
1, 253439, Note_on_c, 9, 36, 0
1, 253440, Note_on_c, 9, 49, 60
1, 253440, Note_on_c, 9, 36, 120
1, 253462, Note_on_c, 9, 49, 0
1, 253919, Note_on_c, 9, 36, 0
1, 253920, Note_on_c, 9, 38, 120
1, 253920, Note_on_c, 9, 42, 40
1, 253930, Note_on_c, 9, 42, 0
1, 254159, Note_on_c, 9, 38, 0
1, 254160, Note_on_c, 9, 42, 40
1, 254170, Note_on_c, 9, 42, 0
1, 254400, Note_on_c, 9, 42, 40
1, 254400, Note_on_c, 9, 36, 120
1, 254410, Note_on_c, 9, 42, 0
1, 254640, Note_on_c, 9, 42, 40
1, 254650, Note_on_c, 9, 42, 0
1, 254879, Note_on_c, 9, 36, 0
1, 254880, Note_on_c, 9, 38, 120
1, 254880, Note_on_c, 9, 42, 40
1, 254890, Note_on_c, 9, 42, 0
1, 255119, Note_on_c, 9, 38, 0
1, 255120, Note_on_c, 9, 42, 40
1, 255130, Note_on_c, 9, 42, 0
1, 255360, Note_on_c, 9, 42, 40
1, 255360, Note_on_c, 9, 36, 120
1, 255370, Note_on_c, 9, 42, 0
1, 255600, Note_on_c, 9, 42, 40
1, 255610, Note_on_c, 9, 42, 0
1, 255839, Note_on_c, 9, 36, 0
1, 255840, Note_on_c, 9, 38, 120
1, 255840, Note_on_c, 9, 42, 40
1, 255850, Note_on_c, 9, 42, 0
1, 256079, Note_on_c, 9, 38, 0
1, 256080, Note_on_c, 9, 42, 40
1, 256090, Note_on_c, 9, 42, 0
1, 256320, Note_on_c, 9, 42, 40
1, 256320, Note_on_c, 9, 36, 120
1, 256330, Note_on_c, 9, 42, 0
1, 256559, Note_on_c, 9, 36, 0
1, 256560, Note_on_c, 9, 42, 40
1, 256560, Note_on_c, 9, 36, 120
1, 256570, Note_on_c, 9, 42, 0
1, 256799, Note_on_c, 9, 36, 0
1, 256800, Note_on_c, 9, 38, 120
1, 256800, Note_on_c, 9, 42, 40
1, 256810, Note_on_c, 9, 42, 0
1, 257039, Note_on_c, 9, 38, 0
1, 257040, Note_on_c, 9, 42, 40
1, 257050, Note_on_c, 9, 42, 0
1, 257280, Note_on_c, 9, 42, 40
1, 257280, Note_on_c, 9, 36, 120
1, 257290, Note_on_c, 9, 42, 0
1, 257520, Note_on_c, 9, 42, 40
1, 257530, Note_on_c, 9, 42, 0
1, 257759, Note_on_c, 9, 36, 0
1, 257760, Note_on_c, 9, 38, 120
1, 257760, Note_on_c, 9, 42, 40
1, 257770, Note_on_c, 9, 42, 0
1, 257999, Note_on_c, 9, 38, 0
1, 258000, Note_on_c, 9, 42, 40
1, 258010, Note_on_c, 9, 42, 0
1, 258240, Note_on_c, 9, 42, 40
1, 258240, Note_on_c, 9, 36, 120
1, 258250, Note_on_c, 9, 42, 0
1, 258480, Note_on_c, 9, 42, 40
1, 258490, Note_on_c, 9, 42, 0
1, 258719, Note_on_c, 9, 36, 0
1, 258720, Note_on_c, 9, 42, 40
1, 258720, Note_on_c, 9, 36, 120
1, 258730, Note_on_c, 9, 42, 0
1, 258960, Note_on_c, 9, 38, 120
1, 258960, Note_on_c, 9, 49, 60
1, 258970, Note_on_c, 9, 49, 0
1, 259199, Note_on_c, 9, 36, 0
1, 259199, Note_on_c, 9, 38, 0
1, 259200, Note_on_c, 9, 42, 40
1, 259200, Note_on_c, 9, 36, 120
1, 259210, Note_on_c, 9, 42, 0
1, 259440, Note_on_c, 9, 42, 40
1, 259450, Note_on_c, 9, 42, 0
1, 259679, Note_on_c, 9, 36, 0
1, 259680, Note_on_c, 9, 38, 120
1, 259680, Note_on_c, 9, 42, 40
1, 259690, Note_on_c, 9, 42, 0
1, 259919, Note_on_c, 9, 38, 0
1, 259920, Note_on_c, 9, 42, 40
1, 259930, Note_on_c, 9, 42, 0
1, 260160, Note_on_c, 9, 42, 40
1, 260160, Note_on_c, 9, 36, 120
1, 260170, Note_on_c, 9, 42, 0
1, 260399, Note_on_c, 9, 36, 0
1, 260400, Note_on_c, 9, 42, 40
1, 260400, Note_on_c, 9, 36, 120
1, 260410, Note_on_c, 9, 42, 0
1, 260639, Note_on_c, 9, 36, 0
1, 260640, Note_on_c, 9, 38, 120
1, 260640, Note_on_c, 9, 42, 40
1, 260650, Note_on_c, 9, 42, 0
1, 260879, Note_on_c, 9, 38, 0
1, 260880, Note_on_c, 9, 42, 40
1, 260880, Note_on_c, 9, 36, 120
1, 260890, Note_on_c, 9, 42, 0
1, 261119, Note_on_c, 9, 36, 0
1, 261120, Note_on_c, 9, 49, 60
1, 261120, Note_on_c, 9, 36, 120
1, 261142, Note_on_c, 9, 49, 0
1, 261599, Note_on_c, 9, 36, 0
1, 261600, Note_on_c, 9, 38, 120
1, 261600, Note_on_c, 9, 42, 40
1, 261610, Note_on_c, 9, 42, 0
1, 261839, Note_on_c, 9, 38, 0
1, 261840, Note_on_c, 9, 42, 40
1, 261850, Note_on_c, 9, 42, 0
1, 262080, Note_on_c, 9, 42, 40
1, 262080, Note_on_c, 9, 36, 120
1, 262090, Note_on_c, 9, 42, 0
1, 262320, Note_on_c, 9, 42, 40
1, 262330, Note_on_c, 9, 42, 0
1, 262559, Note_on_c, 9, 36, 0
1, 262560, Note_on_c, 9, 42, 40
1, 262560, Note_on_c, 9, 36, 120
1, 262570, Note_on_c, 9, 42, 0
1, 262800, Note_on_c, 9, 38, 120
1, 262800, Note_on_c, 9, 49, 60
1, 262810, Note_on_c, 9, 49, 0
1, 263039, Note_on_c, 9, 36, 0
1, 263039, Note_on_c, 9, 38, 0
1, 263040, Note_on_c, 9, 42, 40
1, 263040, Note_on_c, 9, 36, 120
1, 263050, Note_on_c, 9, 42, 0
1, 263280, Note_on_c, 9, 42, 40
1, 263290, Note_on_c, 9, 42, 0
1, 263519, Note_on_c, 9, 36, 0
1, 263520, Note_on_c, 9, 38, 120
1, 263520, Note_on_c, 9, 42, 40
1, 263530, Note_on_c, 9, 42, 0
1, 263759, Note_on_c, 9, 38, 0
1, 263760, Note_on_c, 9, 42, 40
1, 263770, Note_on_c, 9, 42, 0
1, 264000, Note_on_c, 9, 42, 40
1, 264000, Note_on_c, 9, 36, 120
1, 264010, Note_on_c, 9, 42, 0
1, 264239, Note_on_c, 9, 36, 0
1, 264240, Note_on_c, 9, 42, 40
1, 264240, Note_on_c, 9, 36, 120
1, 264250, Note_on_c, 9, 42, 0
1, 264479, Note_on_c, 9, 36, 0
1, 264480, Note_on_c, 9, 38, 120
1, 264480, Note_on_c, 9, 42, 40
1, 264490, Note_on_c, 9, 42, 0
1, 264719, Note_on_c, 9, 38, 0
1, 264720, Note_on_c, 9, 42, 40
1, 264720, Note_on_c, 9, 36, 120
1, 264730, Note_on_c, 9, 42, 0
1, 264959, Note_on_c, 9, 36, 0
1, 264960, Note_on_c, 9, 49, 60
1, 264960, Note_on_c, 9, 36, 120
1, 264982, Note_on_c, 9, 49, 0
1, 265439, Note_on_c, 9, 36, 0
1, 266640, Note_on_c, 9, 49, 60
1, 266640, Note_on_c, 9, 36, 120
1, 266650, Note_on_c, 9, 49, 0
1, 266879, Note_on_c, 9, 36, 0
1, 272400, Note_on_c, 9, 38, 120
1, 272400, Note_on_c, 9, 49, 60
1, 272410, Note_on_c, 9, 49, 0
1, 272639, Note_on_c, 9, 38, 0
1, 272880, Note_on_c, 9, 42, 40
1, 272890, Note_on_c, 9, 42, 0
1, 273120, Note_on_c, 9, 38, 120
1, 273120, Note_on_c, 9, 42, 40
1, 273130, Note_on_c, 9, 42, 0
1, 273359, Note_on_c, 9, 38, 0
1, 273360, Note_on_c, 9, 42, 40
1, 273370, Note_on_c, 9, 42, 0
1, 273600, Note_on_c, 9, 42, 40
1, 273600, Note_on_c, 9, 36, 120
1, 273610, Note_on_c, 9, 42, 0
1, 273840, Note_on_c, 9, 42, 40
1, 273850, Note_on_c, 9, 42, 0
1, 274079, Note_on_c, 9, 36, 0
1, 274080, Note_on_c, 9, 38, 120
1, 274080, Note_on_c, 9, 42, 40
1, 274090, Note_on_c, 9, 42, 0
1, 274319, Note_on_c, 9, 38, 0
1, 274320, Note_on_c, 9, 42, 40
1, 274330, Note_on_c, 9, 42, 0
1, 274560, Note_on_c, 9, 42, 40
1, 274560, Note_on_c, 9, 36, 120
1, 274570, Note_on_c, 9, 42, 0
1, 274800, Note_on_c, 9, 42, 40
1, 274810, Note_on_c, 9, 42, 0
1, 275039, Note_on_c, 9, 36, 0
1, 275040, Note_on_c, 9, 38, 120
1, 275040, Note_on_c, 9, 42, 40
1, 275050, Note_on_c, 9, 42, 0
1, 275279, Note_on_c, 9, 38, 0
1, 275280, Note_on_c, 9, 42, 40
1, 275290, Note_on_c, 9, 42, 0
1, 275520, Note_on_c, 9, 42, 40
1, 275520, Note_on_c, 9, 36, 120
1, 275530, Note_on_c, 9, 42, 0
1, 275760, Note_on_c, 9, 42, 40
1, 275770, Note_on_c, 9, 42, 0
1, 275999, Note_on_c, 9, 36, 0
1, 276000, Note_on_c, 9, 38, 120
1, 276000, Note_on_c, 9, 42, 40
1, 276010, Note_on_c, 9, 42, 0
1, 276239, Note_on_c, 9, 38, 0
1, 276240, Note_on_c, 9, 49, 60
1, 276240, Note_on_c, 9, 36, 120
1, 276250, Note_on_c, 9, 49, 0
1, 276479, Note_on_c, 9, 36, 0
1, 276480, Note_on_c, 9, 42, 40
1, 276490, Note_on_c, 9, 42, 0
1, 276720, Note_on_c, 9, 42, 40
1, 276730, Note_on_c, 9, 42, 0
1, 276960, Note_on_c, 9, 38, 120
1, 276960, Note_on_c, 9, 42, 40
1, 276970, Note_on_c, 9, 42, 0
1, 277199, Note_on_c, 9, 38, 0
1, 277200, Note_on_c, 9, 42, 40
1, 277210, Note_on_c, 9, 42, 0
1, 277440, Note_on_c, 9, 42, 40
1, 277440, Note_on_c, 9, 36, 120
1, 277450, Note_on_c, 9, 42, 0
1, 277680, Note_on_c, 9, 42, 40
1, 277690, Note_on_c, 9, 42, 0
1, 277919, Note_on_c, 9, 36, 0
1, 277920, Note_on_c, 9, 38, 120
1, 277920, Note_on_c, 9, 42, 40
1, 277930, Note_on_c, 9, 42, 0
1, 278159, Note_on_c, 9, 38, 0
1, 278160, Note_on_c, 9, 42, 40
1, 278170, Note_on_c, 9, 42, 0
1, 278400, Note_on_c, 9, 42, 40
1, 278400, Note_on_c, 9, 36, 120
1, 278410, Note_on_c, 9, 42, 0
1, 278640, Note_on_c, 9, 42, 40
1, 278650, Note_on_c, 9, 42, 0
1, 278879, Note_on_c, 9, 36, 0
1, 278880, Note_on_c, 9, 38, 120
1, 278880, Note_on_c, 9, 42, 40
1, 278890, Note_on_c, 9, 42, 0
1, 279119, Note_on_c, 9, 38, 0
1, 279120, Note_on_c, 9, 42, 40
1, 279130, Note_on_c, 9, 42, 0
1, 279360, Note_on_c, 9, 42, 40
1, 279360, Note_on_c, 9, 36, 120
1, 279370, Note_on_c, 9, 42, 0
1, 279600, Note_on_c, 9, 42, 40
1, 279610, Note_on_c, 9, 42, 0
1, 279839, Note_on_c, 9, 36, 0
1, 279840, Note_on_c, 9, 38, 120
1, 279840, Note_on_c, 9, 42, 40
1, 279850, Note_on_c, 9, 42, 0
1, 280079, Note_on_c, 9, 38, 0
1, 280080, Note_on_c, 9, 42, 40
1, 280090, Note_on_c, 9, 42, 0
1, 280320, Note_on_c, 9, 42, 40
1, 280320, Note_on_c, 9, 36, 120
1, 280330, Note_on_c, 9, 42, 0
1, 280560, Note_on_c, 9, 42, 40
1, 280570, Note_on_c, 9, 42, 0
1, 280799, Note_on_c, 9, 36, 0
1, 280800, Note_on_c, 9, 38, 120
1, 280800, Note_on_c, 9, 42, 40
1, 280810, Note_on_c, 9, 42, 0
1, 281039, Note_on_c, 9, 38, 0
1, 281040, Note_on_c, 9, 42, 40
1, 281050, Note_on_c, 9, 42, 0
1, 281280, Note_on_c, 9, 42, 40
1, 281280, Note_on_c, 9, 36, 120
1, 281290, Note_on_c, 9, 42, 0
1, 281520, Note_on_c, 9, 42, 40
1, 281530, Note_on_c, 9, 42, 0
1, 281759, Note_on_c, 9, 36, 0
1, 281760, Note_on_c, 9, 38, 120
1, 281760, Note_on_c, 9, 42, 40
1, 281770, Note_on_c, 9, 42, 0
1, 281999, Note_on_c, 9, 38, 0
1, 282000, Note_on_c, 9, 42, 40
1, 282004, Note_on_c, 9, 42, 0
1, 282120, Note_on_c, 9, 38, 120
1, 282239, Note_on_c, 9, 38, 0
1, 282240, Note_on_c, 9, 38, 120
1, 282479, Note_on_c, 9, 38, 0
1, 282480, Note_on_c, 9, 47, 120
1, 282719, Note_on_c, 9, 47, 0
1, 282720, Note_on_c, 9, 47, 120
1, 282959, Note_on_c, 9, 47, 0
1, 282960, Note_on_c, 9, 45, 120
1, 283079, Note_on_c, 9, 45, 0
1, 283080, Note_on_c, 9, 45, 120
1, 283199, Note_on_c, 9, 45, 0
1, 283200, Note_on_c, 9, 38, 120
1, 283319, Note_on_c, 9, 38, 0
1, 283320, Note_on_c, 9, 38, 120
1, 283439, Note_on_c, 9, 38, 0
1, 283440, Note_on_c, 9, 45, 120
1, 283559, Note_on_c, 9, 45, 0
1, 283560, Note_on_c, 9, 45, 120
1, 283679, Note_on_c, 9, 45, 0
1, 283680, Note_on_c, 9, 38, 120
1, 283799, Note_on_c, 9, 38, 0
1, 283800, Note_on_c, 9, 38, 120
1, 283919, Note_on_c, 9, 38, 0
1, 283920, Note_on_c, 9, 45, 120
1, 284039, Note_on_c, 9, 45, 0
1, 284040, Note_on_c, 9, 45, 120
1, 284159, Note_on_c, 9, 45, 0
1, 284160, Note_on_c, 9, 41, 120
1, 284160, Note_on_c, 9, 36, 120
1, 284399, Note_on_c, 9, 41, 0
1, 284400, Note_on_c, 9, 41, 120
1, 284639, Note_on_c, 9, 36, 0
1, 284639, Note_on_c, 9, 41, 0
1, 284640, Note_on_c, 9, 38, 120
1, 284640, Note_on_c, 9, 49, 60
1, 284640, Note_on_c, 9, 36, 120
1, 284662, Note_on_c, 9, 49, 0
1, 285119, Note_on_c, 9, 38, 0
1, 285119, Note_on_c, 9, 36, 0
1, 285120, Note_on_c, 9, 41, 120
1, 285120, Note_on_c, 9, 36, 120
1, 285359, Note_on_c, 9, 41, 0
1, 285360, Note_on_c, 9, 41, 120
1, 285599, Note_on_c, 9, 36, 0
1, 285599, Note_on_c, 9, 41, 0
1, 285600, Note_on_c, 9, 41, 120
1, 285600, Note_on_c, 9, 45, 120
1, 285600, Note_on_c, 9, 36, 120
1, 285839, Note_on_c, 9, 41, 0
1, 285839, Note_on_c, 9, 45, 0
1, 285840, Note_on_c, 9, 41, 120
1, 285840, Note_on_c, 9, 38, 120
1, 286079, Note_on_c, 9, 36, 0
1, 286079, Note_on_c, 9, 41, 0
1, 286079, Note_on_c, 9, 38, 0
1, 286080, Note_on_c, 9, 41, 120
1, 286080, Note_on_c, 9, 36, 120
1, 286319, Note_on_c, 9, 41, 0
1, 286320, Note_on_c, 9, 41, 120
1, 286559, Note_on_c, 9, 36, 0
1, 286559, Note_on_c, 9, 41, 0
1, 286560, Note_on_c, 9, 41, 120
1, 286560, Note_on_c, 9, 45, 120
1, 286560, Note_on_c, 9, 36, 120
1, 286799, Note_on_c, 9, 41, 0
1, 286799, Note_on_c, 9, 45, 0
1, 286800, Note_on_c, 9, 41, 120
1, 287039, Note_on_c, 9, 36, 0
1, 287039, Note_on_c, 9, 41, 0
1, 287040, Note_on_c, 9, 41, 120
1, 287040, Note_on_c, 9, 36, 120
1, 287279, Note_on_c, 9, 41, 0
1, 287280, Note_on_c, 9, 41, 120
1, 287519, Note_on_c, 9, 36, 0
1, 287519, Note_on_c, 9, 41, 0
1, 287520, Note_on_c, 9, 41, 120
1, 287520, Note_on_c, 9, 45, 120
1, 287520, Note_on_c, 9, 36, 120
1, 287759, Note_on_c, 9, 41, 0
1, 287759, Note_on_c, 9, 45, 0
1, 287760, Note_on_c, 9, 41, 120
1, 287760, Note_on_c, 9, 38, 120
1, 287999, Note_on_c, 9, 36, 0
1, 287999, Note_on_c, 9, 41, 0
1, 287999, Note_on_c, 9, 38, 0
1, 288000, Note_on_c, 9, 41, 120
1, 288000, Note_on_c, 9, 36, 120
1, 288239, Note_on_c, 9, 41, 0
1, 288240, Note_on_c, 9, 41, 120
1, 288479, Note_on_c, 9, 36, 0
1, 288479, Note_on_c, 9, 41, 0
1, 288480, Note_on_c, 9, 41, 120
1, 288480, Note_on_c, 9, 45, 120
1, 288480, Note_on_c, 9, 36, 120
1, 288719, Note_on_c, 9, 41, 0
1, 288719, Note_on_c, 9, 45, 0
1, 288720, Note_on_c, 9, 41, 120
1, 288959, Note_on_c, 9, 36, 0
1, 288959, Note_on_c, 9, 41, 0
1, 288960, Note_on_c, 9, 41, 120
1, 288960, Note_on_c, 9, 36, 120
1, 289199, Note_on_c, 9, 41, 0
1, 289200, Note_on_c, 9, 41, 120
1, 289439, Note_on_c, 9, 36, 0
1, 289439, Note_on_c, 9, 41, 0
1, 289440, Note_on_c, 9, 41, 120
1, 289440, Note_on_c, 9, 45, 120
1, 289440, Note_on_c, 9, 36, 120
1, 289679, Note_on_c, 9, 41, 0
1, 289679, Note_on_c, 9, 45, 0
1, 289680, Note_on_c, 9, 41, 120
1, 289680, Note_on_c, 9, 38, 120
1, 289919, Note_on_c, 9, 36, 0
1, 289919, Note_on_c, 9, 41, 0
1, 289919, Note_on_c, 9, 38, 0
1, 289920, Note_on_c, 9, 41, 120
1, 289920, Note_on_c, 9, 36, 120
1, 290159, Note_on_c, 9, 41, 0
1, 290160, Note_on_c, 9, 38, 120
1, 290160, Note_on_c, 9, 49, 60
1, 290170, Note_on_c, 9, 49, 0
1, 290399, Note_on_c, 9, 36, 0
1, 290399, Note_on_c, 9, 38, 0
1, 290400, Note_on_c, 9, 36, 120
1, 290640, Note_on_c, 9, 38, 120
1, 290640, Note_on_c, 9, 49, 60
1, 290650, Note_on_c, 9, 49, 0
1, 290879, Note_on_c, 9, 36, 0
1, 290879, Note_on_c, 9, 38, 0
1, 290880, Note_on_c, 9, 41, 120
1, 290880, Note_on_c, 9, 36, 120
1, 291119, Note_on_c, 9, 41, 0
1, 291120, Note_on_c, 9, 41, 120
1, 291359, Note_on_c, 9, 36, 0
1, 291359, Note_on_c, 9, 41, 0
1, 291360, Note_on_c, 9, 41, 120
1, 291360, Note_on_c, 9, 36, 120
1, 291599, Note_on_c, 9, 41, 0
1, 291600, Note_on_c, 9, 41, 120
1, 291839, Note_on_c, 9, 36, 0
1, 291839, Note_on_c, 9, 41, 0
1, 291840, Note_on_c, 9, 41, 120
1, 291840, Note_on_c, 9, 36, 120
1, 292079, Note_on_c, 9, 41, 0
1, 292080, Note_on_c, 9, 41, 120
1, 292319, Note_on_c, 9, 36, 0
1, 292319, Note_on_c, 9, 41, 0
1, 292320, Note_on_c, 9, 38, 120
1, 292320, Note_on_c, 9, 49, 60
1, 292320, Note_on_c, 9, 36, 120
1, 292342, Note_on_c, 9, 49, 0
1, 292799, Note_on_c, 9, 38, 0
1, 292799, Note_on_c, 9, 36, 0
1, 292800, Note_on_c, 9, 41, 120
1, 292800, Note_on_c, 9, 36, 120
1, 293039, Note_on_c, 9, 41, 0
1, 293040, Note_on_c, 9, 41, 120
1, 293279, Note_on_c, 9, 36, 0
1, 293279, Note_on_c, 9, 41, 0
1, 293280, Note_on_c, 9, 41, 120
1, 293280, Note_on_c, 9, 45, 120
1, 293280, Note_on_c, 9, 36, 120
1, 293519, Note_on_c, 9, 41, 0
1, 293519, Note_on_c, 9, 45, 0
1, 293520, Note_on_c, 9, 38, 120
1, 293520, Note_on_c, 9, 49, 60
1, 293530, Note_on_c, 9, 49, 0
1, 293759, Note_on_c, 9, 36, 0
1, 293759, Note_on_c, 9, 38, 0
1, 293760, Note_on_c, 9, 36, 120
1, 294000, Note_on_c, 9, 38, 120
1, 294000, Note_on_c, 9, 49, 60
1, 294010, Note_on_c, 9, 49, 0
1, 294239, Note_on_c, 9, 36, 0
1, 294239, Note_on_c, 9, 38, 0
1, 294240, Note_on_c, 9, 36, 120
1, 294719, Note_on_c, 9, 36, 0
1, 294720, Note_on_c, 9, 41, 120
1, 294720, Note_on_c, 9, 36, 120
1, 294959, Note_on_c, 9, 41, 0
1, 294960, Note_on_c, 9, 41, 120
1, 295199, Note_on_c, 9, 36, 0
1, 295199, Note_on_c, 9, 41, 0
1, 295200, Note_on_c, 9, 41, 120
1, 295200, Note_on_c, 9, 36, 120
1, 295439, Note_on_c, 9, 41, 0
1, 295440, Note_on_c, 9, 41, 120
1, 295440, Note_on_c, 9, 47, 120
1, 295679, Note_on_c, 9, 36, 0
1, 295679, Note_on_c, 9, 41, 0
1, 295679, Note_on_c, 9, 47, 0
1, 295680, Note_on_c, 9, 41, 120
1, 295680, Note_on_c, 9, 47, 120
1, 295680, Note_on_c, 9, 36, 120
1, 295919, Note_on_c, 9, 41, 0
1, 295919, Note_on_c, 9, 47, 0
1, 295920, Note_on_c, 9, 41, 120
1, 295920, Note_on_c, 9, 47, 120
1, 296159, Note_on_c, 9, 36, 0
1, 296159, Note_on_c, 9, 41, 0
1, 296159, Note_on_c, 9, 47, 0
1, 296160, Note_on_c, 9, 41, 120
1, 296160, Note_on_c, 9, 47, 120
1, 296160, Note_on_c, 9, 36, 120
1, 296399, Note_on_c, 9, 41, 0
1, 296399, Note_on_c, 9, 47, 0
1, 296400, Note_on_c, 9, 41, 120
1, 296400, Note_on_c, 9, 47, 120
1, 296639, Note_on_c, 9, 36, 0
1, 296639, Note_on_c, 9, 41, 0
1, 296639, Note_on_c, 9, 47, 0
1, 296640, Note_on_c, 9, 41, 120
1, 296640, Note_on_c, 9, 47, 120
1, 296640, Note_on_c, 9, 36, 120
1, 296879, Note_on_c, 9, 41, 0
1, 296879, Note_on_c, 9, 47, 0
1, 296880, Note_on_c, 9, 41, 120
1, 296880, Note_on_c, 9, 47, 120
1, 297119, Note_on_c, 9, 36, 0
1, 297119, Note_on_c, 9, 41, 0
1, 297119, Note_on_c, 9, 47, 0
1, 297120, Note_on_c, 9, 41, 120
1, 297120, Note_on_c, 9, 47, 120
1, 297120, Note_on_c, 9, 36, 120
1, 297359, Note_on_c, 9, 41, 0
1, 297359, Note_on_c, 9, 47, 0
1, 297360, Note_on_c, 9, 41, 120
1, 297360, Note_on_c, 9, 47, 120
1, 297599, Note_on_c, 9, 36, 0
1, 297599, Note_on_c, 9, 41, 0
1, 297599, Note_on_c, 9, 47, 0
1, 297600, Note_on_c, 9, 41, 120
1, 297600, Note_on_c, 9, 36, 120
1, 297839, Note_on_c, 9, 41, 0
1, 297840, Note_on_c, 9, 41, 120
1, 298079, Note_on_c, 9, 36, 0
1, 298079, Note_on_c, 9, 41, 0
1, 298080, Note_on_c, 9, 38, 120
1, 298080, Note_on_c, 9, 49, 60
1, 298080, Note_on_c, 9, 36, 120
1, 298102, Note_on_c, 9, 49, 0
1, 298559, Note_on_c, 9, 38, 0
1, 298559, Note_on_c, 9, 36, 0
1, 298560, Note_on_c, 9, 36, 120
1, 298800, Note_on_c, 9, 41, 120
1, 298800, Note_on_c, 9, 45, 120
1, 299039, Note_on_c, 9, 36, 0
1, 299039, Note_on_c, 9, 41, 0
1, 299039, Note_on_c, 9, 45, 0
1, 299040, Note_on_c, 9, 36, 120
1, 299280, Note_on_c, 9, 41, 120
1, 299280, Note_on_c, 9, 45, 120
1, 299519, Note_on_c, 9, 36, 0
1, 299519, Note_on_c, 9, 41, 0
1, 299519, Note_on_c, 9, 45, 0
1, 299520, Note_on_c, 9, 41, 120
1, 299520, Note_on_c, 9, 36, 120
1, 299759, Note_on_c, 9, 41, 0
1, 299760, Note_on_c, 9, 41, 120
1, 299999, Note_on_c, 9, 36, 0
1, 299999, Note_on_c, 9, 41, 0
1, 300000, Note_on_c, 9, 38, 120
1, 300000, Note_on_c, 9, 49, 60
1, 300000, Note_on_c, 9, 36, 120
1, 300022, Note_on_c, 9, 49, 0
1, 300479, Note_on_c, 9, 38, 0
1, 300479, Note_on_c, 9, 36, 0
1, 300480, Note_on_c, 9, 36, 120
1, 300720, Note_on_c, 9, 41, 120
1, 300720, Note_on_c, 9, 45, 120
1, 300959, Note_on_c, 9, 36, 0
1, 300959, Note_on_c, 9, 41, 0
1, 300959, Note_on_c, 9, 45, 0
1, 300960, Note_on_c, 9, 36, 120
1, 301200, Note_on_c, 9, 41, 120
1, 301200, Note_on_c, 9, 45, 120
1, 301439, Note_on_c, 9, 36, 0
1, 301439, Note_on_c, 9, 41, 0
1, 301439, Note_on_c, 9, 45, 0
1, 301440, Note_on_c, 9, 41, 120
1, 301440, Note_on_c, 9, 36, 120
1, 301679, Note_on_c, 9, 41, 0
1, 301680, Note_on_c, 9, 41, 120
1, 301919, Note_on_c, 9, 36, 0
1, 301919, Note_on_c, 9, 41, 0
1, 301920, Note_on_c, 9, 38, 120
1, 301920, Note_on_c, 9, 49, 60
1, 301920, Note_on_c, 9, 36, 120
1, 301942, Note_on_c, 9, 49, 0
1, 302399, Note_on_c, 9, 38, 0
1, 302399, Note_on_c, 9, 36, 0
1, 302400, Note_on_c, 9, 36, 120
1, 302640, Note_on_c, 9, 41, 120
1, 302640, Note_on_c, 9, 45, 120
1, 302879, Note_on_c, 9, 36, 0
1, 302879, Note_on_c, 9, 41, 0
1, 302879, Note_on_c, 9, 45, 0
1, 302880, Note_on_c, 9, 36, 120
1, 303120, Note_on_c, 9, 41, 120
1, 303120, Note_on_c, 9, 45, 120
1, 303359, Note_on_c, 9, 36, 0
1, 303359, Note_on_c, 9, 41, 0
1, 303359, Note_on_c, 9, 45, 0
1, 303360, Note_on_c, 9, 41, 120
1, 303360, Note_on_c, 9, 36, 120
1, 303599, Note_on_c, 9, 41, 0
1, 303600, Note_on_c, 9, 41, 120
1, 303839, Note_on_c, 9, 36, 0
1, 303839, Note_on_c, 9, 41, 0
1, 303840, Note_on_c, 9, 41, 120
1, 303840, Note_on_c, 9, 36, 120
1, 304079, Note_on_c, 9, 41, 0
1, 304080, Note_on_c, 9, 38, 120
1, 304080, Note_on_c, 9, 49, 60
1, 304090, Note_on_c, 9, 49, 0
1, 304319, Note_on_c, 9, 36, 0
1, 304319, Note_on_c, 9, 38, 0
1, 304320, Note_on_c, 9, 36, 120
1, 304560, Note_on_c, 9, 38, 120
1, 304560, Note_on_c, 9, 49, 60
1, 304570, Note_on_c, 9, 49, 0
1, 304799, Note_on_c, 9, 36, 0
1, 304799, Note_on_c, 9, 38, 0
1, 304800, Note_on_c, 9, 36, 120
1, 305040, Note_on_c, 9, 38, 120
1, 305040, Note_on_c, 9, 49, 60
1, 305050, Note_on_c, 9, 49, 0
1, 305279, Note_on_c, 9, 36, 0
1, 305279, Note_on_c, 9, 38, 0
1, 305280, Note_on_c, 9, 41, 120
1, 305280, Note_on_c, 9, 36, 120
1, 305519, Note_on_c, 9, 41, 0
1, 305520, Note_on_c, 9, 41, 120
1, 305759, Note_on_c, 9, 36, 0
1, 305759, Note_on_c, 9, 41, 0
1, 305760, Note_on_c, 9, 41, 120
1, 305760, Note_on_c, 9, 45, 120
1, 305760, Note_on_c, 9, 36, 120
1, 305999, Note_on_c, 9, 41, 0
1, 305999, Note_on_c, 9, 45, 0
1, 306000, Note_on_c, 9, 41, 120
1, 306239, Note_on_c, 9, 36, 0
1, 306239, Note_on_c, 9, 41, 0
1, 306240, Note_on_c, 9, 41, 120
1, 306240, Note_on_c, 9, 36, 120
1, 306479, Note_on_c, 9, 41, 0
1, 306480, Note_on_c, 9, 41, 120
1, 306719, Note_on_c, 9, 36, 0
1, 306719, Note_on_c, 9, 41, 0
1, 306720, Note_on_c, 9, 41, 120
1, 306720, Note_on_c, 9, 45, 120
1, 306720, Note_on_c, 9, 36, 120
1, 306959, Note_on_c, 9, 41, 0
1, 306959, Note_on_c, 9, 45, 0
1, 306959, Note_on_c, 9, 36, 0
1, 306960, Note_on_c, 9, 41, 120
1, 306960, Note_on_c, 9, 43, 120
1, 307199, Note_on_c, 9, 41, 0
1, 307199, Note_on_c, 9, 43, 0
1, 307200, Note_on_c, 9, 41, 120
1, 307200, Note_on_c, 9, 36, 120
1, 307439, Note_on_c, 9, 41, 0
1, 307440, Note_on_c, 9, 41, 120
1, 307679, Note_on_c, 9, 36, 0
1, 307679, Note_on_c, 9, 41, 0
1, 307680, Note_on_c, 9, 38, 120
1, 307680, Note_on_c, 9, 49, 60
1, 307680, Note_on_c, 9, 36, 120
1, 307702, Note_on_c, 9, 49, 0
1, 308159, Note_on_c, 9, 38, 0
1, 308159, Note_on_c, 9, 36, 0
1, 308160, Note_on_c, 9, 36, 120
1, 308400, Note_on_c, 9, 38, 120
1, 308400, Note_on_c, 9, 49, 60
1, 308410, Note_on_c, 9, 49, 0
1, 308639, Note_on_c, 9, 36, 0
1, 308639, Note_on_c, 9, 38, 0
1, 308640, Note_on_c, 9, 36, 120
1, 308880, Note_on_c, 9, 38, 120
1, 308880, Note_on_c, 9, 49, 60
1, 308890, Note_on_c, 9, 49, 0
1, 309119, Note_on_c, 9, 36, 0
1, 309119, Note_on_c, 9, 38, 0
1, 309120, Note_on_c, 9, 41, 120
1, 309120, Note_on_c, 9, 36, 120
1, 309359, Note_on_c, 9, 41, 0
1, 309360, Note_on_c, 9, 41, 120
1, 309599, Note_on_c, 9, 36, 0
1, 309599, Note_on_c, 9, 41, 0
1, 309600, Note_on_c, 9, 38, 120
1, 309600, Note_on_c, 9, 49, 60
1, 309600, Note_on_c, 9, 36, 120
1, 309622, Note_on_c, 9, 49, 0
1, 310079, Note_on_c, 9, 38, 0
1, 310079, Note_on_c, 9, 36, 0
1, 310080, Note_on_c, 9, 41, 120
1, 310080, Note_on_c, 9, 36, 120
1, 310319, Note_on_c, 9, 41, 0
1, 310320, Note_on_c, 9, 41, 120
1, 310559, Note_on_c, 9, 36, 0
1, 310559, Note_on_c, 9, 41, 0
1, 310560, Note_on_c, 9, 41, 120
1, 310560, Note_on_c, 9, 36, 120
1, 310799, Note_on_c, 9, 41, 0
1, 310800, Note_on_c, 9, 41, 120
1, 310800, Note_on_c, 9, 38, 120
1, 311039, Note_on_c, 9, 36, 0
1, 311039, Note_on_c, 9, 41, 0
1, 311039, Note_on_c, 9, 38, 0
1, 311040, Note_on_c, 9, 41, 120
1, 311040, Note_on_c, 9, 36, 120
1, 311279, Note_on_c, 9, 41, 0
1, 311280, Note_on_c, 9, 41, 118
1, 311519, Note_on_c, 9, 36, 0
1, 311519, Note_on_c, 9, 41, 0
1, 311520, Note_on_c, 9, 41, 117
1, 311520, Note_on_c, 9, 36, 117
1, 311759, Note_on_c, 9, 41, 0
1, 311760, Note_on_c, 9, 41, 115
1, 311760, Note_on_c, 9, 38, 115
1, 311999, Note_on_c, 9, 36, 0
1, 311999, Note_on_c, 9, 41, 0
1, 311999, Note_on_c, 9, 38, 0
1, 312000, Note_on_c, 9, 41, 113
1, 312000, Note_on_c, 9, 36, 113
1, 312239, Note_on_c, 9, 41, 0
1, 312240, Note_on_c, 9, 38, 111
1, 312479, Note_on_c, 9, 36, 0
1, 312479, Note_on_c, 9, 38, 0
1, 312480, Note_on_c, 9, 41, 109
1, 312480, Note_on_c, 9, 36, 109
1, 312719, Note_on_c, 9, 41, 0
1, 312720, Note_on_c, 9, 41, 107
1, 312959, Note_on_c, 9, 36, 0
1, 312959, Note_on_c, 9, 41, 0
1, 312960, Note_on_c, 9, 41, 105
1, 312960, Note_on_c, 9, 36, 105
1, 313199, Note_on_c, 9, 41, 0
1, 313200, Note_on_c, 9, 41, 103
1, 313439, Note_on_c, 9, 36, 0
1, 313439, Note_on_c, 9, 41, 0
1, 313440, Note_on_c, 9, 38, 102
1, 313440, Note_on_c, 9, 49, 51
1, 313440, Note_on_c, 9, 36, 102
1, 313462, Note_on_c, 9, 49, 0
1, 313919, Note_on_c, 9, 38, 0
1, 313919, Note_on_c, 9, 36, 0
1, 313920, Note_on_c, 9, 41, 98
1, 313920, Note_on_c, 9, 36, 98
1, 314399, Note_on_c, 9, 41, 0
1, 314399, Note_on_c, 9, 36, 0
1, 314400, Note_on_c, 9, 41, 94
1, 314400, Note_on_c, 9, 45, 94
1, 314400, Note_on_c, 9, 36, 94
1, 314639, Note_on_c, 9, 41, 0
1, 314639, Note_on_c, 9, 45, 0
1, 314639, Note_on_c, 9, 36, 0
1, 314640, Note_on_c, 9, 41, 92
1, 314640, Note_on_c, 9, 43, 92
1, 314879, Note_on_c, 9, 41, 0
1, 314879, Note_on_c, 9, 43, 0
1, 314880, Note_on_c, 9, 41, 90
1, 314880, Note_on_c, 9, 36, 90
1, 315119, Note_on_c, 9, 41, 0
1, 315120, Note_on_c, 9, 41, 88
1, 315359, Note_on_c, 9, 36, 0
1, 315359, Note_on_c, 9, 41, 0
1, 315360, Note_on_c, 9, 38, 87
1, 315360, Note_on_c, 9, 49, 44
1, 315360, Note_on_c, 9, 36, 87
1, 315382, Note_on_c, 9, 49, 0
1, 315839, Note_on_c, 9, 38, 0
1, 315839, Note_on_c, 9, 36, 0
1, 315840, Note_on_c, 9, 41, 83
1, 315840, Note_on_c, 9, 36, 83
1, 316319, Note_on_c, 9, 41, 0
1, 316319, Note_on_c, 9, 36, 0
1, 316320, Note_on_c, 9, 41, 79
1, 316320, Note_on_c, 9, 45, 79
1, 316320, Note_on_c, 9, 36, 79
1, 316559, Note_on_c, 9, 41, 0
1, 316559, Note_on_c, 9, 45, 0
1, 316559, Note_on_c, 9, 36, 0
1, 316560, Note_on_c, 9, 41, 77
1, 316560, Note_on_c, 9, 43, 77
1, 316799, Note_on_c, 9, 41, 0
1, 316799, Note_on_c, 9, 43, 0
1, 316800, Note_on_c, 9, 41, 75
1, 316800, Note_on_c, 9, 36, 75
1, 317039, Note_on_c, 9, 41, 0
1, 317040, Note_on_c, 9, 41, 73
1, 317279, Note_on_c, 9, 36, 0
1, 317279, Note_on_c, 9, 41, 0
1, 317280, Note_on_c, 9, 38, 72
1, 317280, Note_on_c, 9, 49, 36
1, 317280, Note_on_c, 9, 36, 72
1, 317302, Note_on_c, 9, 49, 0
1, 317759, Note_on_c, 9, 38, 0
1, 317759, Note_on_c, 9, 36, 0
1, 317760, Note_on_c, 9, 41, 68
1, 317760, Note_on_c, 9, 36, 68
1, 317999, Note_on_c, 9, 41, 0
1, 318000, Note_on_c, 9, 38, 66
1, 318239, Note_on_c, 9, 36, 0
1, 318239, Note_on_c, 9, 38, 0
1, 318240, Note_on_c, 9, 38, 64
1, 318240, Note_on_c, 9, 36, 64
1, 318479, Note_on_c, 9, 38, 0
1, 318480, Note_on_c, 9, 38, 62
1, 318719, Note_on_c, 9, 36, 0
1, 318719, Note_on_c, 9, 38, 0
1, 318720, Note_on_c, 9, 41, 60
1, 318720, Note_on_c, 9, 36, 60
1, 318959, Note_on_c, 9, 41, 0
1, 318960, Note_on_c, 9, 41, 58
1, 319199, Note_on_c, 9, 36, 0
1, 319199, Note_on_c, 9, 41, 0
1, 319200, Note_on_c, 9, 38, 57
1, 319200, Note_on_c, 9, 49, 29
1, 319200, Note_on_c, 9, 36, 57
1, 319222, Note_on_c, 9, 49, 0
1, 319679, Note_on_c, 9, 38, 0
1, 319679, Note_on_c, 9, 36, 0
1, 319680, Note_on_c, 9, 41, 53
1, 319680, Note_on_c, 9, 36, 53
1, 319919, Note_on_c, 9, 41, 0
1, 319920, Note_on_c, 9, 38, 51
1, 319920, Note_on_c, 9, 49, 26
1, 319930, Note_on_c, 9, 49, 0
1, 320159, Note_on_c, 9, 36, 0
1, 320159, Note_on_c, 9, 38, 0
1, 320160, Note_on_c, 9, 36, 49
1, 320400, Note_on_c, 9, 38, 47
1, 320400, Note_on_c, 9, 49, 24
1, 320410, Note_on_c, 9, 49, 0
1, 320639, Note_on_c, 9, 36, 0
1, 320639, Note_on_c, 9, 38, 0
1, 320640, Note_on_c, 9, 41, 45
1, 320640, Note_on_c, 9, 36, 45
1, 320879, Note_on_c, 9, 41, 0
1, 320880, Note_on_c, 9, 41, 44
1, 321119, Note_on_c, 9, 36, 0
1, 321119, Note_on_c, 9, 41, 0
1, 321120, Note_on_c, 9, 38, 42
1, 321120, Note_on_c, 9, 49, 21
1, 321120, Note_on_c, 9, 36, 42
1, 321142, Note_on_c, 9, 49, 0
1, 321599, Note_on_c, 9, 38, 0
1, 321599, Note_on_c, 9, 36, 0
1, 321600, Note_on_c, 9, 41, 38
1, 321600, Note_on_c, 9, 36, 38
1, 322079, Note_on_c, 9, 41, 0
1, 322079, Note_on_c, 9, 36, 0
1, 322080, Note_on_c, 9, 36, 34
1, 322320, Note_on_c, 9, 38, 32
1, 322320, Note_on_c, 9, 49, 17
1, 322330, Note_on_c, 9, 49, 0
1, 322559, Note_on_c, 9, 36, 0
1, 322559, Note_on_c, 9, 38, 0
1, 322560, Note_on_c, 9, 36, 30
1, 322800, Note_on_c, 9, 38, 29
1, 322800, Note_on_c, 9, 49, 15
1, 322810, Note_on_c, 9, 49, 0
1, 323039, Note_on_c, 9, 36, 0
1, 323039, Note_on_c, 9, 38, 0
1, 323040, Note_on_c, 9, 36, 27
1, 323280, Note_on_c, 9, 38, 25
1, 323280, Note_on_c, 9, 49, 13
1, 323290, Note_on_c, 9, 49, 0
1, 323519, Note_on_c, 9, 36, 0
1, 323519, Note_on_c, 9, 38, 0
1, 323520, Note_on_c, 9, 41, 23
1, 323520, Note_on_c, 9, 36, 23
1, 323999, Note_on_c, 9, 41, 0
1, 323999, Note_on_c, 9, 36, 0
1, 324000, Note_on_c, 9, 41, 19
1, 324000, Note_on_c, 9, 36, 19
1, 324239, Note_on_c, 9, 41, 0
1, 324240, Note_on_c, 9, 41, 17
1, 324240, Note_on_c, 9, 38, 17
1, 324479, Note_on_c, 9, 36, 0
1, 324479, Note_on_c, 9, 41, 0
1, 324479, Note_on_c, 9, 38, 0
1, 324480, Note_on_c, 9, 41, 15
1, 324480, Note_on_c, 9, 36, 15
1, 324719, Note_on_c, 9, 41, 0
1, 324720, Note_on_c, 9, 41, 14
1, 324959, Note_on_c, 9, 36, 0
1, 324959, Note_on_c, 9, 41, 0
1, 324960, Note_on_c, 9, 41, 12
1, 324960, Note_on_c, 9, 36, 12
1, 325199, Note_on_c, 9, 41, 0
1, 325200, Note_on_c, 9, 41, 10
1, 325200, Note_on_c, 9, 38, 10
1, 325439, Note_on_c, 9, 36, 0
1, 325439, Note_on_c, 9, 41, 0
1, 325439, Note_on_c, 9, 38, 0
1, 325440, Note_on_c, 9, 41, 8
1, 325440, Note_on_c, 9, 36, 8
1, 325679, Note_on_c, 9, 41, 0
1, 325680, Note_on_c, 9, 38, 6
1, 325799, Note_on_c, 9, 38, 0
1, 325800, Note_on_c, 9, 38, 5
1, 325919, Note_on_c, 9, 36, 0
1, 325919, Note_on_c, 9, 38, 0
1, 325920, Note_on_c, 9, 47, 4
1, 325920, Note_on_c, 9, 36, 4
1, 326039, Note_on_c, 9, 47, 0
1, 326040, Note_on_c, 9, 47, 3
1, 326159, Note_on_c, 9, 47, 0
1, 326160, Note_on_c, 9, 38, 2
1, 326279, Note_on_c, 9, 38, 0
1, 326280, Note_on_c, 9, 38, 1
1, 326399, Note_on_c, 9, 36, 0
1, 326399, Note_on_c, 9, 38, 0
1, 326400, End_track
0, 0, End_of_file
