0, 0, Header, 1, 1, 480
1, 0, Start_track
1, 0, Title_t, "Drumset"
1, 0, Time_signature, 4, 2, 24, 8
1, 0, Key_signature, 0, "major"
1, 0, Tempo, 550459
1, 0, Control_c, 9, 121, 0
1, 0, Program_c, 9, 0
1, 0, Control_c, 9, 7, 100
1, 0, Control_c, 9, 10, 64
1, 0, Control_c, 9, 91, 0
1, 0, Control_c, 9, 93, 0
1, 0, MIDI_port, 0
1, 0, Note_on_c, 9, 42, 79
1, 19, Note_on_c, 9, 42, 0
1, 480, Note_on_c, 9, 42, 79
1, 499, Note_on_c, 9, 42, 0
1, 960, Note_on_c, 9, 42, 79
1, 964, Note_on_c, 9, 42, 0
1, 1120, Note_on_c, 9, 42, 79
1, 1120, Note_on_c, 9, 42, 0
1, 1280, Note_on_c, 9, 82, 79
1, 1319, Note_on_c, 9, 82, 0
1, 1440, Note_on_c, 9, 42, 79
1, 1444, Note_on_c, 9, 42, 0
1, 1600, Note_on_c, 9, 82, 79
1, 1619, Note_on_c, 9, 82, 0
1, 1760, Note_on_c, 9, 42, 79
1, 1760, Note_on_c, 9, 42, 0
1, 1920, Note_on_c, 9, 82, 79
1, 2039, Note_on_c, 9, 82, 0
1, 2080, Note_on_c, 9, 42, 79
1, 2080, Note_on_c, 9, 42, 0
1, 2240, Note_on_c, 9, 82, 79
1, 2279, Note_on_c, 9, 82, 0
1, 2400, Note_on_c, 9, 42, 79
1, 2404, Note_on_c, 9, 42, 0
1, 2560, Note_on_c, 9, 82, 79
1, 2579, Note_on_c, 9, 82, 0
1, 2720, Note_on_c, 9, 42, 79
1, 2720, Note_on_c, 9, 42, 0
1, 2880, Note_on_c, 9, 82, 79
1, 2999, Note_on_c, 9, 82, 0
1, 3040, Note_on_c, 9, 42, 79
1, 3040, Note_on_c, 9, 42, 0
1, 3200, Note_on_c, 9, 82, 79
1, 3239, Note_on_c, 9, 82, 0
1, 3360, Note_on_c, 9, 42, 79
1, 3364, Note_on_c, 9, 42, 0
1, 3520, Note_on_c, 9, 82, 79
1, 3539, Note_on_c, 9, 82, 0
1, 3680, Note_on_c, 9, 42, 79
1, 3680, Note_on_c, 9, 42, 0
1, 3840, Note_on_c, 9, 82, 79
1, 3959, Note_on_c, 9, 82, 0
1, 4000, Note_on_c, 9, 42, 79
1, 4000, Note_on_c, 9, 42, 0
1, 4160, Note_on_c, 9, 82, 79
1, 4199, Note_on_c, 9, 82, 0
1, 4320, Note_on_c, 9, 42, 79
1, 4324, Note_on_c, 9, 42, 0
1, 4480, Note_on_c, 9, 82, 79
1, 4499, Note_on_c, 9, 82, 0
1, 4640, Note_on_c, 9, 42, 79
1, 4640, Note_on_c, 9, 42, 0
1, 4800, Note_on_c, 9, 82, 79
1, 4919, Note_on_c, 9, 82, 0
1, 4960, Note_on_c, 9, 42, 79
1, 4960, Note_on_c, 9, 42, 0
1, 5120, Note_on_c, 9, 82, 79
1, 5159, Note_on_c, 9, 82, 0
1, 5280, Note_on_c, 9, 42, 79
1, 5284, Note_on_c, 9, 42, 0
1, 5440, Note_on_c, 9, 82, 79
1, 5459, Note_on_c, 9, 82, 0
1, 5600, Note_on_c, 9, 42, 79
1, 5600, Note_on_c, 9, 42, 0
1, 5760, Note_on_c, 9, 82, 79
1, 5879, Note_on_c, 9, 82, 0
1, 5920, Note_on_c, 9, 42, 79
1, 5920, Note_on_c, 9, 42, 0
1, 6080, Note_on_c, 9, 82, 79
1, 6119, Note_on_c, 9, 82, 0
1, 6240, Note_on_c, 9, 42, 79
1, 6244, Note_on_c, 9, 42, 0
1, 6400, Note_on_c, 9, 82, 79
1, 6419, Note_on_c, 9, 82, 0
1, 6560, Note_on_c, 9, 42, 79
1, 6560, Note_on_c, 9, 42, 0
1, 6720, Note_on_c, 9, 82, 79
1, 6839, Note_on_c, 9, 82, 0
1, 6880, Note_on_c, 9, 42, 79
1, 6880, Note_on_c, 9, 42, 0
1, 7040, Note_on_c, 9, 82, 79
1, 7079, Note_on_c, 9, 82, 0
1, 7200, Note_on_c, 9, 42, 79
1, 7204, Note_on_c, 9, 42, 0
1, 7360, Note_on_c, 9, 82, 79
1, 7379, Note_on_c, 9, 82, 0
1, 7520, Note_on_c, 9, 42, 79
1, 7520, Note_on_c, 9, 42, 0
1, 7680, Note_on_c, 9, 82, 79
1, 7799, Note_on_c, 9, 82, 0
1, 7840, Note_on_c, 9, 38, 104
1, 7840, Note_on_c, 9, 42, 79
1, 7840, Note_on_c, 9, 42, 0
1, 7859, Note_on_c, 9, 38, 0
1, 8000, Note_on_c, 9, 38, 104
1, 8000, Note_on_c, 9, 82, 79
1, 8039, Note_on_c, 9, 38, 0
1, 8039, Note_on_c, 9, 82, 0
1, 8160, Note_on_c, 9, 42, 79
1, 8164, Note_on_c, 9, 42, 0
1, 8320, Note_on_c, 9, 38, 104
1, 8320, Note_on_c, 9, 82, 79
1, 8339, Note_on_c, 9, 38, 0
1, 8339, Note_on_c, 9, 82, 0
1, 8480, Note_on_c, 9, 42, 79
1, 8480, Note_on_c, 9, 42, 0
1, 8500, Note_on_c, 9, 38, 104
1, 8519, Note_on_c, 9, 38, 0
1, 8640, Note_on_c, 9, 46, 127
1, 8645, Note_on_c, 9, 46, 0
1, 8800, Note_on_c, 9, 38, 89
1, 8800, Note_on_c, 9, 42, 79
1, 8805, Note_on_c, 9, 42, 0
1, 8959, Note_on_c, 9, 38, 0
1, 8960, Note_on_c, 9, 82, 79
1, 9119, Note_on_c, 9, 82, 0
1, 9120, Note_on_c, 9, 38, 89
1, 9120, Note_on_c, 9, 42, 79
1, 9124, Note_on_c, 9, 42, 0
1, 9239, Note_on_c, 9, 38, 0
1, 9280, Note_on_c, 9, 38, 110
1, 9280, Note_on_c, 9, 82, 79
1, 9299, Note_on_c, 9, 38, 0
1, 9299, Note_on_c, 9, 82, 0
1, 9440, Note_on_c, 9, 42, 79
1, 9440, Note_on_c, 9, 42, 0
1, 9600, Note_on_c, 9, 38, 89
1, 9600, Note_on_c, 9, 82, 79
1, 9759, Note_on_c, 9, 38, 0
1, 9759, Note_on_c, 9, 82, 0
1, 9760, Note_on_c, 9, 38, 89
1, 9760, Note_on_c, 9, 42, 79
1, 9765, Note_on_c, 9, 42, 0
1, 9919, Note_on_c, 9, 38, 0
1, 9920, Note_on_c, 9, 82, 79
1, 10079, Note_on_c, 9, 82, 0
1, 10080, Note_on_c, 9, 38, 89
1, 10080, Note_on_c, 9, 42, 79
1, 10085, Note_on_c, 9, 42, 0
1, 10239, Note_on_c, 9, 38, 0
1, 10240, Note_on_c, 9, 38, 110
1, 10240, Note_on_c, 9, 82, 79
1, 10399, Note_on_c, 9, 38, 0
1, 10399, Note_on_c, 9, 82, 0
1, 10400, Note_on_c, 9, 42, 79
1, 10405, Note_on_c, 9, 42, 0
1, 10560, Note_on_c, 9, 38, 89
1, 10560, Note_on_c, 9, 82, 79
1, 10719, Note_on_c, 9, 38, 0
1, 10719, Note_on_c, 9, 82, 0
1, 10720, Note_on_c, 9, 38, 89
1, 10720, Note_on_c, 9, 42, 79
1, 10725, Note_on_c, 9, 42, 0
1, 10879, Note_on_c, 9, 38, 0
1, 10880, Note_on_c, 9, 82, 79
1, 11039, Note_on_c, 9, 82, 0
1, 11040, Note_on_c, 9, 38, 89
1, 11040, Note_on_c, 9, 42, 79
1, 11045, Note_on_c, 9, 42, 0
1, 11199, Note_on_c, 9, 38, 0
1, 11200, Note_on_c, 9, 38, 110
1, 11200, Note_on_c, 9, 82, 79
1, 11359, Note_on_c, 9, 38, 0
1, 11359, Note_on_c, 9, 82, 0
1, 11360, Note_on_c, 9, 42, 79
1, 11365, Note_on_c, 9, 42, 0
1, 11520, Note_on_c, 9, 38, 89
1, 11520, Note_on_c, 9, 82, 79
1, 11679, Note_on_c, 9, 38, 0
1, 11679, Note_on_c, 9, 82, 0
1, 11680, Note_on_c, 9, 38, 89
1, 11680, Note_on_c, 9, 42, 79
1, 11685, Note_on_c, 9, 42, 0
1, 11839, Note_on_c, 9, 38, 0
1, 11840, Note_on_c, 9, 82, 79
1, 11999, Note_on_c, 9, 82, 0
1, 12000, Note_on_c, 9, 38, 89
1, 12000, Note_on_c, 9, 42, 79
1, 12005, Note_on_c, 9, 42, 0
1, 12159, Note_on_c, 9, 38, 0
1, 12160, Note_on_c, 9, 38, 110
1, 12160, Note_on_c, 9, 82, 79
1, 12319, Note_on_c, 9, 38, 0
1, 12319, Note_on_c, 9, 82, 0
1, 12320, Note_on_c, 9, 42, 79
1, 12325, Note_on_c, 9, 42, 0
1, 12480, Note_on_c, 9, 38, 89
1, 12480, Note_on_c, 9, 82, 79
1, 12639, Note_on_c, 9, 38, 0
1, 12639, Note_on_c, 9, 82, 0
1, 12640, Note_on_c, 9, 38, 89
1, 12640, Note_on_c, 9, 42, 79
1, 12645, Note_on_c, 9, 42, 0
1, 12799, Note_on_c, 9, 38, 0
1, 12800, Note_on_c, 9, 82, 79
1, 12959, Note_on_c, 9, 82, 0
1, 12960, Note_on_c, 9, 38, 89
1, 12960, Note_on_c, 9, 42, 79
1, 12964, Note_on_c, 9, 42, 0
1, 13079, Note_on_c, 9, 38, 0
1, 13120, Note_on_c, 9, 38, 110
1, 13120, Note_on_c, 9, 82, 79
1, 13139, Note_on_c, 9, 38, 0
1, 13139, Note_on_c, 9, 82, 0
1, 13280, Note_on_c, 9, 42, 79
1, 13280, Note_on_c, 9, 42, 0
1, 13440, Note_on_c, 9, 38, 89
1, 13440, Note_on_c, 9, 82, 79
1, 13599, Note_on_c, 9, 38, 0
1, 13599, Note_on_c, 9, 82, 0
1, 13600, Note_on_c, 9, 38, 89
1, 13600, Note_on_c, 9, 42, 79
1, 13605, Note_on_c, 9, 42, 0
1, 13759, Note_on_c, 9, 38, 0
1, 13760, Note_on_c, 9, 82, 79
1, 13919, Note_on_c, 9, 82, 0
1, 13920, Note_on_c, 9, 38, 89
1, 13920, Note_on_c, 9, 42, 79
1, 13925, Note_on_c, 9, 42, 0
1, 14079, Note_on_c, 9, 38, 0
1, 14080, Note_on_c, 9, 38, 110
1, 14080, Note_on_c, 9, 82, 79
1, 14239, Note_on_c, 9, 38, 0
1, 14239, Note_on_c, 9, 82, 0
1, 14240, Note_on_c, 9, 42, 79
1, 14245, Note_on_c, 9, 42, 0
1, 14400, Note_on_c, 9, 38, 89
1, 14400, Note_on_c, 9, 82, 79
1, 14559, Note_on_c, 9, 38, 0
1, 14559, Note_on_c, 9, 82, 0
1, 14560, Note_on_c, 9, 38, 89
1, 14560, Note_on_c, 9, 42, 79
1, 14565, Note_on_c, 9, 42, 0
1, 14719, Note_on_c, 9, 38, 0
1, 14720, Note_on_c, 9, 82, 79
1, 14879, Note_on_c, 9, 82, 0
1, 14880, Note_on_c, 9, 38, 89
1, 14880, Note_on_c, 9, 42, 79
1, 14884, Note_on_c, 9, 42, 0
1, 14999, Note_on_c, 9, 38, 0
1, 15040, Note_on_c, 9, 38, 110
1, 15040, Note_on_c, 9, 82, 79
1, 15059, Note_on_c, 9, 38, 0
1, 15059, Note_on_c, 9, 82, 0
1, 15200, Note_on_c, 9, 42, 79
1, 15200, Note_on_c, 9, 42, 0
1, 15360, Note_on_c, 9, 38, 89
1, 15360, Note_on_c, 9, 82, 79
1, 15519, Note_on_c, 9, 38, 0
1, 15519, Note_on_c, 9, 82, 0
1, 15520, Note_on_c, 9, 38, 89
1, 15520, Note_on_c, 9, 42, 79
1, 15525, Note_on_c, 9, 42, 0
1, 15679, Note_on_c, 9, 38, 0
1, 15680, Note_on_c, 9, 82, 79
1, 15839, Note_on_c, 9, 82, 0
1, 15840, Note_on_c, 9, 38, 89
1, 15840, Note_on_c, 9, 42, 79
1, 15845, Note_on_c, 9, 42, 0
1, 15999, Note_on_c, 9, 38, 0
1, 16000, Note_on_c, 9, 38, 110
1, 16000, Note_on_c, 9, 82, 79
1, 16159, Note_on_c, 9, 38, 0
1, 16159, Note_on_c, 9, 82, 0
1, 16160, Note_on_c, 9, 42, 79
1, 16165, Note_on_c, 9, 42, 0
1, 16320, Note_on_c, 9, 38, 89
1, 16320, Note_on_c, 9, 82, 79
1, 16479, Note_on_c, 9, 38, 0
1, 16479, Note_on_c, 9, 82, 0
1, 16480, Note_on_c, 9, 38, 89
1, 16480, Note_on_c, 9, 42, 79
1, 16485, Note_on_c, 9, 42, 0
1, 16639, Note_on_c, 9, 38, 0
1, 16640, Note_on_c, 9, 82, 79
1, 16799, Note_on_c, 9, 82, 0
1, 16800, Note_on_c, 9, 38, 89
1, 16800, Note_on_c, 9, 42, 79
1, 16804, Note_on_c, 9, 42, 0
1, 16919, Note_on_c, 9, 38, 0
1, 16960, Note_on_c, 9, 38, 110
1, 16960, Note_on_c, 9, 82, 79
1, 16979, Note_on_c, 9, 38, 0
1, 16979, Note_on_c, 9, 82, 0
1, 17120, Note_on_c, 9, 42, 79
1, 17120, Note_on_c, 9, 42, 0
1, 17280, Note_on_c, 9, 38, 89
1, 17280, Note_on_c, 9, 82, 79
1, 17439, Note_on_c, 9, 38, 0
1, 17439, Note_on_c, 9, 82, 0
1, 17440, Note_on_c, 9, 38, 89
1, 17440, Note_on_c, 9, 42, 79
1, 17445, Note_on_c, 9, 42, 0
1, 17599, Note_on_c, 9, 38, 0
1, 17600, Note_on_c, 9, 82, 79
1, 17759, Note_on_c, 9, 82, 0
1, 17760, Note_on_c, 9, 38, 89
1, 17760, Note_on_c, 9, 42, 79
1, 17765, Note_on_c, 9, 42, 0
1, 17919, Note_on_c, 9, 38, 0
1, 17920, Note_on_c, 9, 38, 110
1, 17920, Note_on_c, 9, 82, 79
1, 18079, Note_on_c, 9, 38, 0
1, 18079, Note_on_c, 9, 82, 0
1, 18080, Note_on_c, 9, 42, 79
1, 18085, Note_on_c, 9, 42, 0
1, 18240, Note_on_c, 9, 38, 89
1, 18240, Note_on_c, 9, 82, 79
1, 18399, Note_on_c, 9, 38, 0
1, 18399, Note_on_c, 9, 82, 0
1, 18400, Note_on_c, 9, 38, 89
1, 18400, Note_on_c, 9, 42, 79
1, 18405, Note_on_c, 9, 42, 0
1, 18559, Note_on_c, 9, 38, 0
1, 18560, Note_on_c, 9, 82, 79
1, 18719, Note_on_c, 9, 82, 0
1, 18720, Note_on_c, 9, 38, 89
1, 18720, Note_on_c, 9, 42, 79
1, 18725, Note_on_c, 9, 42, 0
1, 18879, Note_on_c, 9, 38, 0
1, 18880, Note_on_c, 9, 38, 110
1, 18880, Note_on_c, 9, 82, 79
1, 19039, Note_on_c, 9, 38, 0
1, 19039, Note_on_c, 9, 82, 0
1, 19040, Note_on_c, 9, 42, 79
1, 19045, Note_on_c, 9, 42, 0
1, 19200, Note_on_c, 9, 38, 89
1, 19200, Note_on_c, 9, 82, 79
1, 19359, Note_on_c, 9, 38, 0
1, 19359, Note_on_c, 9, 82, 0
1, 19360, Note_on_c, 9, 38, 89
1, 19360, Note_on_c, 9, 42, 79
1, 19365, Note_on_c, 9, 42, 0
1, 19519, Note_on_c, 9, 38, 0
1, 19520, Note_on_c, 9, 82, 79
1, 19679, Note_on_c, 9, 82, 0
1, 19680, Note_on_c, 9, 38, 89
1, 19680, Note_on_c, 9, 42, 79
1, 19685, Note_on_c, 9, 42, 0
1, 19839, Note_on_c, 9, 38, 0
1, 19840, Note_on_c, 9, 38, 110
1, 19840, Note_on_c, 9, 82, 79
1, 19999, Note_on_c, 9, 38, 0
1, 19999, Note_on_c, 9, 82, 0
1, 20000, Note_on_c, 9, 42, 79
1, 20005, Note_on_c, 9, 42, 0
1, 20160, Note_on_c, 9, 38, 89
1, 20160, Note_on_c, 9, 82, 79
1, 20319, Note_on_c, 9, 38, 0
1, 20319, Note_on_c, 9, 82, 0
1, 20320, Note_on_c, 9, 38, 89
1, 20320, Note_on_c, 9, 42, 79
1, 20325, Note_on_c, 9, 42, 0
1, 20479, Note_on_c, 9, 38, 0
1, 20480, Note_on_c, 9, 82, 79
1, 20639, Note_on_c, 9, 82, 0
1, 20640, Note_on_c, 9, 38, 89
1, 20640, Note_on_c, 9, 42, 79
1, 20644, Note_on_c, 9, 42, 0
1, 20759, Note_on_c, 9, 38, 0
1, 20800, Note_on_c, 9, 38, 110
1, 20800, Note_on_c, 9, 82, 79
1, 20819, Note_on_c, 9, 38, 0
1, 20819, Note_on_c, 9, 82, 0
1, 20960, Note_on_c, 9, 42, 79
1, 20960, Note_on_c, 9, 42, 0
1, 21120, Note_on_c, 9, 38, 89
1, 21120, Note_on_c, 9, 82, 79
1, 21279, Note_on_c, 9, 38, 0
1, 21279, Note_on_c, 9, 82, 0
1, 21280, Note_on_c, 9, 38, 89
1, 21280, Note_on_c, 9, 42, 79
1, 21285, Note_on_c, 9, 42, 0
1, 21439, Note_on_c, 9, 38, 0
1, 21440, Note_on_c, 9, 82, 79
1, 21599, Note_on_c, 9, 82, 0
1, 21600, Note_on_c, 9, 38, 89
1, 21600, Note_on_c, 9, 42, 79
1, 21605, Note_on_c, 9, 42, 0
1, 21759, Note_on_c, 9, 38, 0
1, 21760, Note_on_c, 9, 38, 110
1, 21760, Note_on_c, 9, 82, 79
1, 21919, Note_on_c, 9, 38, 0
1, 21919, Note_on_c, 9, 82, 0
1, 21920, Note_on_c, 9, 42, 79
1, 21925, Note_on_c, 9, 42, 0
1, 22080, Note_on_c, 9, 38, 89
1, 22080, Note_on_c, 9, 82, 79
1, 22239, Note_on_c, 9, 38, 0
1, 22239, Note_on_c, 9, 82, 0
1, 22240, Note_on_c, 9, 38, 89
1, 22240, Note_on_c, 9, 42, 79
1, 22245, Note_on_c, 9, 42, 0
1, 22399, Note_on_c, 9, 38, 0
1, 22400, Note_on_c, 9, 82, 79
1, 22559, Note_on_c, 9, 82, 0
1, 22560, Note_on_c, 9, 38, 89
1, 22560, Note_on_c, 9, 42, 79
1, 22564, Note_on_c, 9, 42, 0
1, 22679, Note_on_c, 9, 38, 0
1, 22720, Note_on_c, 9, 38, 110
1, 22720, Note_on_c, 9, 82, 79
1, 22739, Note_on_c, 9, 38, 0
1, 22739, Note_on_c, 9, 82, 0
1, 22880, Note_on_c, 9, 42, 79
1, 22880, Note_on_c, 9, 42, 0
1, 23040, Note_on_c, 9, 38, 89
1, 23040, Note_on_c, 9, 82, 79
1, 23199, Note_on_c, 9, 38, 0
1, 23199, Note_on_c, 9, 82, 0
1, 23200, Note_on_c, 9, 38, 89
1, 23200, Note_on_c, 9, 42, 79
1, 23205, Note_on_c, 9, 42, 0
1, 23359, Note_on_c, 9, 38, 0
1, 23360, Note_on_c, 9, 82, 79
1, 23519, Note_on_c, 9, 82, 0
1, 23520, Note_on_c, 9, 38, 89
1, 23520, Note_on_c, 9, 42, 79
1, 23525, Note_on_c, 9, 42, 0
1, 23679, Note_on_c, 9, 38, 0
1, 23680, Note_on_c, 9, 38, 99
1, 23680, Note_on_c, 9, 82, 79
1, 23839, Note_on_c, 9, 38, 0
1, 23839, Note_on_c, 9, 82, 0
1, 23840, Note_on_c, 9, 38, 127
1, 23840, Note_on_c, 9, 42, 79
1, 23845, Note_on_c, 9, 42, 0
1, 23999, Note_on_c, 9, 38, 0
1, 24000, Note_on_c, 9, 38, 89
1, 24000, Note_on_c, 9, 46, 111
1, 24005, Note_on_c, 9, 46, 0
1, 24159, Note_on_c, 9, 38, 0
1, 24160, Note_on_c, 9, 38, 89
1, 24160, Note_on_c, 9, 42, 79
1, 24165, Note_on_c, 9, 42, 0
1, 24319, Note_on_c, 9, 38, 0
1, 24320, Note_on_c, 9, 82, 79
1, 24479, Note_on_c, 9, 82, 0
1, 24480, Note_on_c, 9, 38, 89
1, 24480, Note_on_c, 9, 42, 79
1, 24484, Note_on_c, 9, 42, 0
1, 24599, Note_on_c, 9, 38, 0
1, 24640, Note_on_c, 9, 38, 110
1, 24640, Note_on_c, 9, 82, 79
1, 24659, Note_on_c, 9, 38, 0
1, 24659, Note_on_c, 9, 82, 0
1, 24800, Note_on_c, 9, 42, 79
1, 24800, Note_on_c, 9, 42, 0
1, 24960, Note_on_c, 9, 38, 89
1, 24960, Note_on_c, 9, 82, 79
1, 25119, Note_on_c, 9, 38, 0
1, 25119, Note_on_c, 9, 82, 0
1, 25120, Note_on_c, 9, 38, 89
1, 25120, Note_on_c, 9, 42, 79
1, 25125, Note_on_c, 9, 42, 0
1, 25279, Note_on_c, 9, 38, 0
1, 25280, Note_on_c, 9, 82, 79
1, 25439, Note_on_c, 9, 82, 0
1, 25440, Note_on_c, 9, 38, 89
1, 25440, Note_on_c, 9, 42, 79
1, 25445, Note_on_c, 9, 42, 0
1, 25599, Note_on_c, 9, 38, 0
1, 25600, Note_on_c, 9, 38, 110
1, 25600, Note_on_c, 9, 82, 79
1, 25759, Note_on_c, 9, 38, 0
1, 25759, Note_on_c, 9, 82, 0
1, 25760, Note_on_c, 9, 42, 79
1, 25765, Note_on_c, 9, 42, 0
1, 25920, Note_on_c, 9, 38, 89
1, 25920, Note_on_c, 9, 82, 79
1, 26079, Note_on_c, 9, 38, 0
1, 26079, Note_on_c, 9, 82, 0
1, 26080, Note_on_c, 9, 38, 89
1, 26080, Note_on_c, 9, 42, 79
1, 26085, Note_on_c, 9, 42, 0
1, 26239, Note_on_c, 9, 38, 0
1, 26240, Note_on_c, 9, 82, 79
1, 26399, Note_on_c, 9, 82, 0
1, 26400, Note_on_c, 9, 38, 89
1, 26400, Note_on_c, 9, 42, 79
1, 26405, Note_on_c, 9, 42, 0
1, 26559, Note_on_c, 9, 38, 0
1, 26560, Note_on_c, 9, 38, 110
1, 26560, Note_on_c, 9, 82, 79
1, 26719, Note_on_c, 9, 38, 0
1, 26719, Note_on_c, 9, 82, 0
1, 26720, Note_on_c, 9, 42, 79
1, 26725, Note_on_c, 9, 42, 0
1, 26880, Note_on_c, 9, 38, 89
1, 26880, Note_on_c, 9, 82, 79
1, 27039, Note_on_c, 9, 38, 0
1, 27039, Note_on_c, 9, 82, 0
1, 27040, Note_on_c, 9, 38, 89
1, 27040, Note_on_c, 9, 42, 79
1, 27045, Note_on_c, 9, 42, 0
1, 27199, Note_on_c, 9, 38, 0
1, 27200, Note_on_c, 9, 82, 79
1, 27359, Note_on_c, 9, 82, 0
1, 27360, Note_on_c, 9, 38, 89
1, 27360, Note_on_c, 9, 42, 79
1, 27365, Note_on_c, 9, 42, 0
1, 27519, Note_on_c, 9, 38, 0
1, 27520, Note_on_c, 9, 38, 110
1, 27520, Note_on_c, 9, 82, 79
1, 27679, Note_on_c, 9, 38, 0
1, 27679, Note_on_c, 9, 82, 0
1, 27680, Note_on_c, 9, 42, 79
1, 27685, Note_on_c, 9, 42, 0
1, 27840, Note_on_c, 9, 38, 89
1, 27840, Note_on_c, 9, 82, 79
1, 27999, Note_on_c, 9, 38, 0
1, 27999, Note_on_c, 9, 82, 0
1, 28000, Note_on_c, 9, 38, 89
1, 28000, Note_on_c, 9, 42, 79
1, 28005, Note_on_c, 9, 42, 0
1, 28159, Note_on_c, 9, 38, 0
1, 28160, Note_on_c, 9, 82, 79
1, 28319, Note_on_c, 9, 82, 0
1, 28320, Note_on_c, 9, 38, 89
1, 28320, Note_on_c, 9, 42, 79
1, 28324, Note_on_c, 9, 42, 0
1, 28439, Note_on_c, 9, 38, 0
1, 28480, Note_on_c, 9, 38, 110
1, 28480, Note_on_c, 9, 82, 79
1, 28499, Note_on_c, 9, 38, 0
1, 28499, Note_on_c, 9, 82, 0
1, 28640, Note_on_c, 9, 42, 79
1, 28640, Note_on_c, 9, 42, 0
1, 28800, Note_on_c, 9, 38, 89
1, 28800, Note_on_c, 9, 82, 79
1, 28959, Note_on_c, 9, 38, 0
1, 28959, Note_on_c, 9, 82, 0
1, 28960, Note_on_c, 9, 38, 89
1, 28960, Note_on_c, 9, 42, 79
1, 28965, Note_on_c, 9, 42, 0
1, 29119, Note_on_c, 9, 38, 0
1, 29120, Note_on_c, 9, 82, 79
1, 29279, Note_on_c, 9, 82, 0
1, 29280, Note_on_c, 9, 38, 89
1, 29280, Note_on_c, 9, 42, 79
1, 29285, Note_on_c, 9, 42, 0
1, 29439, Note_on_c, 9, 38, 0
1, 29440, Note_on_c, 9, 38, 110
1, 29440, Note_on_c, 9, 82, 79
1, 29599, Note_on_c, 9, 38, 0
1, 29599, Note_on_c, 9, 82, 0
1, 29600, Note_on_c, 9, 42, 79
1, 29605, Note_on_c, 9, 42, 0
1, 29760, Note_on_c, 9, 38, 89
1, 29760, Note_on_c, 9, 82, 79
1, 29919, Note_on_c, 9, 38, 0
1, 29919, Note_on_c, 9, 82, 0
1, 29920, Note_on_c, 9, 38, 89
1, 29920, Note_on_c, 9, 42, 79
1, 29925, Note_on_c, 9, 42, 0
1, 30079, Note_on_c, 9, 38, 0
1, 30080, Note_on_c, 9, 82, 79
1, 30239, Note_on_c, 9, 82, 0
1, 30240, Note_on_c, 9, 38, 89
1, 30240, Note_on_c, 9, 42, 79
1, 30244, Note_on_c, 9, 42, 0
1, 30359, Note_on_c, 9, 38, 0
1, 30400, Note_on_c, 9, 38, 110
1, 30400, Note_on_c, 9, 82, 79
1, 30419, Note_on_c, 9, 38, 0
1, 30419, Note_on_c, 9, 82, 0
1, 30560, Note_on_c, 9, 42, 79
1, 30560, Note_on_c, 9, 42, 0
1, 30720, Note_on_c, 9, 38, 89
1, 30720, Note_on_c, 9, 82, 79
1, 30879, Note_on_c, 9, 38, 0
1, 30879, Note_on_c, 9, 82, 0
1, 30880, Note_on_c, 9, 38, 89
1, 30880, Note_on_c, 9, 42, 79
1, 30885, Note_on_c, 9, 42, 0
1, 31039, Note_on_c, 9, 38, 0
1, 31040, Note_on_c, 9, 82, 79
1, 31199, Note_on_c, 9, 82, 0
1, 31200, Note_on_c, 9, 38, 89
1, 31200, Note_on_c, 9, 42, 79
1, 31205, Note_on_c, 9, 42, 0
1, 31359, Note_on_c, 9, 38, 0
1, 31360, Note_on_c, 9, 38, 110
1, 31360, Note_on_c, 9, 82, 79
1, 31519, Note_on_c, 9, 38, 0
1, 31519, Note_on_c, 9, 82, 0
1, 31520, Note_on_c, 9, 42, 79
1, 31525, Note_on_c, 9, 42, 0
1, 31680, Note_on_c, 9, 38, 89
1, 31680, Note_on_c, 9, 82, 79
1, 31839, Note_on_c, 9, 38, 0
1, 31839, Note_on_c, 9, 82, 0
1, 31840, Note_on_c, 9, 38, 89
1, 31840, Note_on_c, 9, 42, 79
1, 31845, Note_on_c, 9, 42, 0
1, 31999, Note_on_c, 9, 38, 0
1, 32000, Note_on_c, 9, 82, 79
1, 32159, Note_on_c, 9, 82, 0
1, 32160, Note_on_c, 9, 38, 89
1, 32160, Note_on_c, 9, 42, 79
1, 32164, Note_on_c, 9, 42, 0
1, 32279, Note_on_c, 9, 38, 0
1, 32320, Note_on_c, 9, 38, 110
1, 32320, Note_on_c, 9, 82, 79
1, 32339, Note_on_c, 9, 38, 0
1, 32339, Note_on_c, 9, 82, 0
1, 32480, Note_on_c, 9, 42, 79
1, 32480, Note_on_c, 9, 42, 0
1, 32640, Note_on_c, 9, 38, 89
1, 32640, Note_on_c, 9, 82, 79
1, 32799, Note_on_c, 9, 38, 0
1, 32799, Note_on_c, 9, 82, 0
1, 32800, Note_on_c, 9, 38, 89
1, 32800, Note_on_c, 9, 42, 79
1, 32805, Note_on_c, 9, 42, 0
1, 32959, Note_on_c, 9, 38, 0
1, 32960, Note_on_c, 9, 82, 79
1, 33119, Note_on_c, 9, 82, 0
1, 33120, Note_on_c, 9, 38, 89
1, 33120, Note_on_c, 9, 42, 79
1, 33125, Note_on_c, 9, 42, 0
1, 33279, Note_on_c, 9, 38, 0
1, 33280, Note_on_c, 9, 38, 110
1, 33280, Note_on_c, 9, 82, 79
1, 33439, Note_on_c, 9, 38, 0
1, 33439, Note_on_c, 9, 82, 0
1, 33440, Note_on_c, 9, 42, 79
1, 33445, Note_on_c, 9, 42, 0
1, 33600, Note_on_c, 9, 38, 89
1, 33600, Note_on_c, 9, 82, 79
1, 33759, Note_on_c, 9, 38, 0
1, 33759, Note_on_c, 9, 82, 0
1, 33760, Note_on_c, 9, 38, 89
1, 33760, Note_on_c, 9, 42, 79
1, 33765, Note_on_c, 9, 42, 0
1, 33919, Note_on_c, 9, 38, 0
1, 33920, Note_on_c, 9, 82, 79
1, 34079, Note_on_c, 9, 82, 0
1, 34080, Note_on_c, 9, 38, 89
1, 34080, Note_on_c, 9, 42, 79
1, 34085, Note_on_c, 9, 42, 0
1, 34239, Note_on_c, 9, 38, 0
1, 34240, Note_on_c, 9, 38, 110
1, 34240, Note_on_c, 9, 82, 79
1, 34399, Note_on_c, 9, 38, 0
1, 34399, Note_on_c, 9, 82, 0
1, 34400, Note_on_c, 9, 42, 79
1, 34405, Note_on_c, 9, 42, 0
1, 34560, Note_on_c, 9, 38, 89
1, 34560, Note_on_c, 9, 82, 79
1, 34719, Note_on_c, 9, 38, 0
1, 34719, Note_on_c, 9, 82, 0
1, 34720, Note_on_c, 9, 38, 89
1, 34720, Note_on_c, 9, 42, 79
1, 34725, Note_on_c, 9, 42, 0
1, 34879, Note_on_c, 9, 38, 0
1, 34880, Note_on_c, 9, 82, 79
1, 35039, Note_on_c, 9, 82, 0
1, 35040, Note_on_c, 9, 38, 89
1, 35040, Note_on_c, 9, 42, 79
1, 35045, Note_on_c, 9, 42, 0
1, 35199, Note_on_c, 9, 38, 0
1, 35200, Note_on_c, 9, 38, 110
1, 35200, Note_on_c, 9, 82, 79
1, 35359, Note_on_c, 9, 38, 0
1, 35359, Note_on_c, 9, 82, 0
1, 35360, Note_on_c, 9, 42, 79
1, 35365, Note_on_c, 9, 42, 0
1, 35520, Note_on_c, 9, 38, 89
1, 35520, Note_on_c, 9, 82, 79
1, 35679, Note_on_c, 9, 38, 0
1, 35679, Note_on_c, 9, 82, 0
1, 35680, Note_on_c, 9, 38, 89
1, 35680, Note_on_c, 9, 42, 79
1, 35685, Note_on_c, 9, 42, 0
1, 35839, Note_on_c, 9, 38, 0
1, 35840, Note_on_c, 9, 82, 79
1, 35999, Note_on_c, 9, 82, 0
1, 36000, Note_on_c, 9, 38, 89
1, 36000, Note_on_c, 9, 42, 79
1, 36004, Note_on_c, 9, 42, 0
1, 36119, Note_on_c, 9, 38, 0
1, 36160, Note_on_c, 9, 38, 110
1, 36160, Note_on_c, 9, 82, 79
1, 36179, Note_on_c, 9, 38, 0
1, 36179, Note_on_c, 9, 82, 0
1, 36320, Note_on_c, 9, 42, 79
1, 36320, Note_on_c, 9, 42, 0
1, 36480, Note_on_c, 9, 38, 89
1, 36480, Note_on_c, 9, 82, 79
1, 36639, Note_on_c, 9, 38, 0
1, 36639, Note_on_c, 9, 82, 0
1, 36640, Note_on_c, 9, 38, 89
1, 36640, Note_on_c, 9, 42, 79
1, 36645, Note_on_c, 9, 42, 0
1, 36799, Note_on_c, 9, 38, 0
1, 36800, Note_on_c, 9, 82, 79
1, 36959, Note_on_c, 9, 82, 0
1, 36960, Note_on_c, 9, 38, 89
1, 36960, Note_on_c, 9, 42, 79
1, 36965, Note_on_c, 9, 42, 0
1, 37119, Note_on_c, 9, 38, 0
1, 37120, Note_on_c, 9, 38, 110
1, 37120, Note_on_c, 9, 82, 79
1, 37279, Note_on_c, 9, 38, 0
1, 37279, Note_on_c, 9, 82, 0
1, 37280, Note_on_c, 9, 42, 79
1, 37285, Note_on_c, 9, 42, 0
1, 37440, Note_on_c, 9, 38, 89
1, 37440, Note_on_c, 9, 82, 79
1, 37599, Note_on_c, 9, 38, 0
1, 37599, Note_on_c, 9, 82, 0
1, 37600, Note_on_c, 9, 38, 89
1, 37600, Note_on_c, 9, 42, 79
1, 37605, Note_on_c, 9, 42, 0
1, 37759, Note_on_c, 9, 38, 0
1, 37760, Note_on_c, 9, 82, 79
1, 37919, Note_on_c, 9, 82, 0
1, 37920, Note_on_c, 9, 38, 89
1, 37920, Note_on_c, 9, 42, 79
1, 37924, Note_on_c, 9, 42, 0
1, 38039, Note_on_c, 9, 38, 0
1, 38080, Note_on_c, 9, 38, 110
1, 38080, Note_on_c, 9, 82, 79
1, 38099, Note_on_c, 9, 38, 0
1, 38099, Note_on_c, 9, 82, 0
1, 38240, Note_on_c, 9, 42, 79
1, 38240, Note_on_c, 9, 42, 0
1, 38400, Note_on_c, 9, 38, 89
1, 38400, Note_on_c, 9, 82, 79
1, 38559, Note_on_c, 9, 38, 0
1, 38559, Note_on_c, 9, 82, 0
1, 38560, Note_on_c, 9, 38, 89
1, 38560, Note_on_c, 9, 42, 79
1, 38565, Note_on_c, 9, 42, 0
1, 38719, Note_on_c, 9, 38, 0
1, 38720, Note_on_c, 9, 82, 79
1, 38879, Note_on_c, 9, 82, 0
1, 38880, Note_on_c, 9, 38, 89
1, 38880, Note_on_c, 9, 42, 79
1, 38885, Note_on_c, 9, 42, 0
1, 39039, Note_on_c, 9, 38, 0
1, 39040, Note_on_c, 9, 38, 110
1, 39040, Note_on_c, 9, 82, 79
1, 39199, Note_on_c, 9, 38, 0
1, 39199, Note_on_c, 9, 82, 0
1, 39200, Note_on_c, 9, 42, 79
1, 39205, Note_on_c, 9, 42, 0
1, 39360, Note_on_c, 9, 38, 89
1, 39360, Note_on_c, 9, 82, 79
1, 39519, Note_on_c, 9, 38, 0
1, 39519, Note_on_c, 9, 82, 0
1, 39520, Note_on_c, 9, 40, 89
1, 39520, Note_on_c, 9, 42, 79
1, 39525, Note_on_c, 9, 42, 0
1, 39679, Note_on_c, 9, 40, 0
1, 39680, Note_on_c, 9, 82, 79
1, 39839, Note_on_c, 9, 82, 0
1, 39840, Note_on_c, 9, 40, 89
1, 39840, Note_on_c, 9, 42, 79
1, 39845, Note_on_c, 9, 42, 0
1, 39999, Note_on_c, 9, 40, 0
1, 40000, Note_on_c, 9, 38, 110
1, 40000, Note_on_c, 9, 40, 89
1, 40000, Note_on_c, 9, 82, 79
1, 40159, Note_on_c, 9, 38, 0
1, 40159, Note_on_c, 9, 40, 0
1, 40159, Note_on_c, 9, 82, 0
1, 40160, Note_on_c, 9, 42, 79
1, 40165, Note_on_c, 9, 42, 0
1, 40320, Note_on_c, 9, 40, 89
1, 40320, Note_on_c, 9, 82, 79
1, 40479, Note_on_c, 9, 40, 0
1, 40479, Note_on_c, 9, 82, 0
1, 40480, Note_on_c, 9, 40, 89
1, 40480, Note_on_c, 9, 42, 79
1, 40485, Note_on_c, 9, 42, 0
1, 40639, Note_on_c, 9, 40, 0
1, 40640, Note_on_c, 9, 82, 79
1, 40799, Note_on_c, 9, 82, 0
1, 40800, Note_on_c, 9, 40, 89
1, 40800, Note_on_c, 9, 42, 79
1, 40805, Note_on_c, 9, 42, 0
1, 40919, Note_on_c, 9, 40, 0
1, 40965, Note_on_c, 9, 38, 110
1, 40965, Note_on_c, 9, 40, 89
1, 40965, Note_on_c, 9, 82, 79
1, 40979, Note_on_c, 9, 82, 0
1, 41024, Note_on_c, 9, 38, 0
1, 41024, Note_on_c, 9, 40, 0
1, 41115, Note_on_c, 9, 42, 79
1, 41115, Note_on_c, 9, 42, 0
1, 41280, Note_on_c, 9, 40, 89
1, 41280, Note_on_c, 9, 82, 79
1, 41439, Note_on_c, 9, 40, 0
1, 41439, Note_on_c, 9, 82, 0
1, 41440, Note_on_c, 9, 42, 79
1, 41442, Note_on_c, 9, 42, 0
1, 41595, Note_on_c, 9, 82, 79
1, 41639, Note_on_c, 9, 82, 0
1, 41760, Note_on_c, 9, 42, 79
1, 41765, Note_on_c, 9, 42, 0
1, 41925, Note_on_c, 9, 38, 110
1, 41925, Note_on_c, 9, 82, 79
1, 41925, Note_on_c, 9, 42, 89
1, 41925, Note_on_c, 9, 42, 0
1, 41939, Note_on_c, 9, 82, 0
1, 41984, Note_on_c, 9, 38, 0
1, 42075, Note_on_c, 9, 42, 79
1, 42075, Note_on_c, 9, 42, 0
1, 42240, Note_on_c, 9, 82, 79
1, 42240, Note_on_c, 9, 42, 89
1, 42244, Note_on_c, 9, 42, 0
1, 42359, Note_on_c, 9, 82, 0
1, 42400, Note_on_c, 9, 42, 79
1, 42400, Note_on_c, 9, 42, 0
1, 42560, Note_on_c, 9, 82, 79
1, 42599, Note_on_c, 9, 82, 0
1, 42720, Note_on_c, 9, 42, 79
1, 42725, Note_on_c, 9, 42, 0
1, 42880, Note_on_c, 9, 38, 110
1, 42880, Note_on_c, 9, 82, 79
1, 42880, Note_on_c, 9, 42, 89
1, 42885, Note_on_c, 9, 42, 0
1, 43039, Note_on_c, 9, 38, 0
1, 43039, Note_on_c, 9, 82, 0
1, 43040, Note_on_c, 9, 42, 79
1, 43045, Note_on_c, 9, 42, 0
1, 43200, Note_on_c, 9, 82, 79
1, 43200, Note_on_c, 9, 42, 89
1, 43204, Note_on_c, 9, 42, 0
1, 43319, Note_on_c, 9, 82, 0
1, 43360, Note_on_c, 9, 42, 79
1, 43360, Note_on_c, 9, 42, 0
1, 43360, Note_on_c, 9, 43, 89
1, 43520, Note_on_c, 9, 82, 79
1, 43559, Note_on_c, 9, 82, 0
1, 43679, Note_on_c, 9, 43, 0
1, 43680, Note_on_c, 9, 42, 79
1, 43680, Note_on_c, 9, 43, 89
1, 43685, Note_on_c, 9, 42, 0
1, 43839, Note_on_c, 9, 43, 0
1, 43840, Note_on_c, 9, 38, 110
1, 43840, Note_on_c, 9, 82, 79
1, 43840, Note_on_c, 9, 43, 89
1, 43999, Note_on_c, 9, 38, 0
1, 43999, Note_on_c, 9, 82, 0
1, 44000, Note_on_c, 9, 42, 79
1, 44005, Note_on_c, 9, 42, 0
1, 44159, Note_on_c, 9, 43, 0
1, 44160, Note_on_c, 9, 82, 79
1, 44160, Note_on_c, 9, 43, 89
1, 44279, Note_on_c, 9, 82, 0
1, 44319, Note_on_c, 9, 43, 0
1, 44320, Note_on_c, 9, 42, 79
1, 44320, Note_on_c, 9, 42, 0
1, 44320, Note_on_c, 9, 43, 89
1, 44480, Note_on_c, 9, 82, 79
1, 44519, Note_on_c, 9, 82, 0
1, 44639, Note_on_c, 9, 43, 0
1, 44640, Note_on_c, 9, 42, 79
1, 44640, Note_on_c, 9, 43, 89
1, 44645, Note_on_c, 9, 42, 0
1, 44799, Note_on_c, 9, 43, 0
1, 44800, Note_on_c, 9, 38, 110
1, 44800, Note_on_c, 9, 82, 79
1, 44800, Note_on_c, 9, 43, 89
1, 44959, Note_on_c, 9, 38, 0
1, 44959, Note_on_c, 9, 82, 0
1, 44960, Note_on_c, 9, 42, 79
1, 44965, Note_on_c, 9, 42, 0
1, 45119, Note_on_c, 9, 43, 0
1, 45120, Note_on_c, 9, 82, 79
1, 45120, Note_on_c, 9, 43, 89
1, 45239, Note_on_c, 9, 82, 0
1, 45279, Note_on_c, 9, 43, 0
1, 45280, Note_on_c, 9, 42, 79
1, 45280, Note_on_c, 9, 42, 0
1, 45280, Note_on_c, 9, 43, 89
1, 45359, Note_on_c, 9, 43, 0
1, 45440, Note_on_c, 9, 82, 79
1, 45479, Note_on_c, 9, 82, 0
1, 45600, Note_on_c, 9, 42, 79
1, 45605, Note_on_c, 9, 42, 0
1, 45760, Note_on_c, 9, 38, 110
1, 45760, Note_on_c, 9, 82, 79
1, 45760, Note_on_c, 9, 42, 89
1, 45765, Note_on_c, 9, 42, 0
1, 45919, Note_on_c, 9, 38, 0
1, 45919, Note_on_c, 9, 82, 0
1, 45920, Note_on_c, 9, 42, 79
1, 45925, Note_on_c, 9, 42, 0
1, 46080, Note_on_c, 9, 82, 79
1, 46080, Note_on_c, 9, 42, 89
1, 46084, Note_on_c, 9, 42, 0
1, 46199, Note_on_c, 9, 82, 0
1, 46240, Note_on_c, 9, 42, 79
1, 46240, Note_on_c, 9, 42, 0
1, 46400, Note_on_c, 9, 82, 79
1, 46439, Note_on_c, 9, 82, 0
1, 46560, Note_on_c, 9, 42, 79
1, 46565, Note_on_c, 9, 42, 0
1, 46720, Note_on_c, 9, 38, 110
1, 46720, Note_on_c, 9, 82, 79
1, 46720, Note_on_c, 9, 42, 89
1, 46725, Note_on_c, 9, 42, 0
1, 46879, Note_on_c, 9, 38, 0
1, 46879, Note_on_c, 9, 82, 0
1, 46880, Note_on_c, 9, 42, 79
1, 46885, Note_on_c, 9, 42, 0
1, 47040, Note_on_c, 9, 82, 79
1, 47040, Note_on_c, 9, 42, 89
1, 47045, Note_on_c, 9, 42, 0
1, 47199, Note_on_c, 9, 82, 0
1, 47200, Note_on_c, 9, 40, 89
1, 47200, Note_on_c, 9, 42, 79
1, 47205, Note_on_c, 9, 42, 0
1, 47359, Note_on_c, 9, 40, 0
1, 47360, Note_on_c, 9, 82, 79
1, 47519, Note_on_c, 9, 82, 0
1, 47520, Note_on_c, 9, 40, 89
1, 47520, Note_on_c, 9, 42, 79
1, 47525, Note_on_c, 9, 42, 0
1, 47679, Note_on_c, 9, 40, 0
1, 47680, Note_on_c, 9, 38, 110
1, 47680, Note_on_c, 9, 40, 89
1, 47680, Note_on_c, 9, 82, 79
1, 47839, Note_on_c, 9, 38, 0
1, 47839, Note_on_c, 9, 40, 0
1, 47839, Note_on_c, 9, 82, 0
1, 47840, Note_on_c, 9, 42, 79
1, 47845, Note_on_c, 9, 42, 0
1, 48000, Note_on_c, 9, 40, 89
1, 48000, Note_on_c, 9, 82, 79
1, 48159, Note_on_c, 9, 40, 0
1, 48159, Note_on_c, 9, 82, 0
1, 48160, Note_on_c, 9, 42, 79
1, 48165, Note_on_c, 9, 42, 0
1, 48320, Note_on_c, 9, 82, 79
1, 48479, Note_on_c, 9, 82, 0
1, 48480, Note_on_c, 9, 42, 79
1, 48485, Note_on_c, 9, 42, 0
1, 48640, Note_on_c, 9, 38, 105
1, 48640, Note_on_c, 9, 82, 79
1, 48640, Note_on_c, 9, 42, 89
1, 48645, Note_on_c, 9, 42, 0
1, 48799, Note_on_c, 9, 38, 0
1, 48799, Note_on_c, 9, 82, 0
1, 48800, Note_on_c, 9, 42, 79
1, 48805, Note_on_c, 9, 42, 0
1, 48960, Note_on_c, 9, 82, 79
1, 48960, Note_on_c, 9, 42, 100
1, 48964, Note_on_c, 9, 42, 0
1, 49079, Note_on_c, 9, 82, 0
1, 49120, Note_on_c, 9, 42, 79
1, 49120, Note_on_c, 9, 42, 0
1, 49120, Note_on_c, 9, 43, 100
1, 49280, Note_on_c, 9, 82, 79
1, 49319, Note_on_c, 9, 82, 0
1, 49439, Note_on_c, 9, 43, 0
1, 49440, Note_on_c, 9, 42, 79
1, 49440, Note_on_c, 9, 43, 100
1, 49445, Note_on_c, 9, 42, 0
1, 49599, Note_on_c, 9, 43, 0
1, 49600, Note_on_c, 9, 38, 101
1, 49600, Note_on_c, 9, 82, 79
1, 49600, Note_on_c, 9, 43, 111
1, 49759, Note_on_c, 9, 38, 0
1, 49759, Note_on_c, 9, 82, 0
1, 49760, Note_on_c, 9, 42, 79
1, 49765, Note_on_c, 9, 42, 0
1, 49919, Note_on_c, 9, 43, 0
1, 49920, Note_on_c, 9, 82, 79
1, 49920, Note_on_c, 9, 43, 111
1, 50079, Note_on_c, 9, 82, 0
1, 50080, Note_on_c, 9, 45, 111
1, 50080, Note_on_c, 9, 42, 79
1, 50085, Note_on_c, 9, 42, 0
1, 50239, Note_on_c, 9, 45, 0
1, 50240, Note_on_c, 9, 38, 120
1, 50240, Note_on_c, 9, 82, 79
1, 50399, Note_on_c, 9, 43, 0
1, 50399, Note_on_c, 9, 38, 0
1, 50399, Note_on_c, 9, 82, 0
1, 50400, Note_on_c, 9, 45, 116
1, 50400, Note_on_c, 9, 42, 79
1, 50405, Note_on_c, 9, 42, 0
1, 50559, Note_on_c, 9, 45, 0
1, 50560, Note_on_c, 9, 38, 98
1, 50560, Note_on_c, 9, 45, 116
1, 50560, Note_on_c, 9, 82, 79
1, 50719, Note_on_c, 9, 38, 0
1, 50719, Note_on_c, 9, 45, 0
1, 50719, Note_on_c, 9, 82, 0
1, 50720, Note_on_c, 9, 42, 79
1, 50725, Note_on_c, 9, 42, 0
1, 50880, Note_on_c, 9, 38, 120
1, 50880, Note_on_c, 9, 45, 116
1, 50880, Note_on_c, 9, 82, 79
1, 51039, Note_on_c, 9, 38, 0
1, 51039, Note_on_c, 9, 45, 0
1, 51039, Note_on_c, 9, 82, 0
1, 51040, Note_on_c, 9, 38, 89
1, 51040, Note_on_c, 9, 42, 79
1, 51045, Note_on_c, 9, 42, 0
1, 51199, Note_on_c, 9, 38, 0
1, 51200, Note_on_c, 9, 82, 79
1, 51359, Note_on_c, 9, 82, 0
1, 51360, Note_on_c, 9, 38, 89
1, 51360, Note_on_c, 9, 42, 79
1, 51364, Note_on_c, 9, 42, 0
1, 51479, Note_on_c, 9, 38, 0
1, 51520, Note_on_c, 9, 38, 108
1, 51520, Note_on_c, 9, 82, 79
1, 51539, Note_on_c, 9, 38, 0
1, 51539, Note_on_c, 9, 82, 0
1, 51680, Note_on_c, 9, 42, 79
1, 51680, Note_on_c, 9, 42, 0
1, 51840, Note_on_c, 9, 38, 89
1, 51840, Note_on_c, 9, 82, 79
1, 51999, Note_on_c, 9, 38, 0
1, 51999, Note_on_c, 9, 82, 0
1, 52000, Note_on_c, 9, 38, 89
1, 52000, Note_on_c, 9, 42, 79
1, 52005, Note_on_c, 9, 42, 0
1, 52159, Note_on_c, 9, 38, 0
1, 52160, Note_on_c, 9, 82, 79
1, 52319, Note_on_c, 9, 82, 0
1, 52320, Note_on_c, 9, 38, 89
1, 52320, Note_on_c, 9, 42, 79
1, 52325, Note_on_c, 9, 42, 0
1, 52479, Note_on_c, 9, 38, 0
1, 52480, Note_on_c, 9, 38, 110
1, 52480, Note_on_c, 9, 82, 79
1, 52639, Note_on_c, 9, 38, 0
1, 52639, Note_on_c, 9, 82, 0
1, 52640, Note_on_c, 9, 42, 79
1, 52645, Note_on_c, 9, 42, 0
1, 52800, Note_on_c, 9, 38, 89
1, 52800, Note_on_c, 9, 82, 79
1, 52959, Note_on_c, 9, 38, 0
1, 52959, Note_on_c, 9, 82, 0
1, 52960, Note_on_c, 9, 38, 89
1, 52960, Note_on_c, 9, 42, 79
1, 52965, Note_on_c, 9, 42, 0
1, 53119, Note_on_c, 9, 38, 0
1, 53120, Note_on_c, 9, 82, 79
1, 53279, Note_on_c, 9, 82, 0
1, 53280, Note_on_c, 9, 38, 89
1, 53280, Note_on_c, 9, 42, 79
1, 53285, Note_on_c, 9, 42, 0
1, 53439, Note_on_c, 9, 38, 0
1, 53440, Note_on_c, 9, 38, 110
1, 53440, Note_on_c, 9, 82, 79
1, 53599, Note_on_c, 9, 38, 0
1, 53599, Note_on_c, 9, 82, 0
1, 53600, Note_on_c, 9, 42, 79
1, 53605, Note_on_c, 9, 42, 0
1, 53760, Note_on_c, 9, 38, 89
1, 53760, Note_on_c, 9, 82, 79
1, 53919, Note_on_c, 9, 38, 0
1, 53919, Note_on_c, 9, 82, 0
1, 53920, Note_on_c, 9, 38, 89
1, 53920, Note_on_c, 9, 42, 79
1, 53925, Note_on_c, 9, 42, 0
1, 54079, Note_on_c, 9, 38, 0
1, 54080, Note_on_c, 9, 82, 79
1, 54239, Note_on_c, 9, 82, 0
1, 54240, Note_on_c, 9, 38, 89
1, 54240, Note_on_c, 9, 42, 79
1, 54245, Note_on_c, 9, 42, 0
1, 54399, Note_on_c, 9, 38, 0
1, 54400, Note_on_c, 9, 38, 110
1, 54400, Note_on_c, 9, 82, 79
1, 54559, Note_on_c, 9, 38, 0
1, 54559, Note_on_c, 9, 82, 0
1, 54560, Note_on_c, 9, 42, 79
1, 54565, Note_on_c, 9, 42, 0
1, 54720, Note_on_c, 9, 38, 89
1, 54720, Note_on_c, 9, 82, 79
1, 54879, Note_on_c, 9, 38, 0
1, 54879, Note_on_c, 9, 82, 0
1, 54880, Note_on_c, 9, 38, 89
1, 54880, Note_on_c, 9, 42, 79
1, 54885, Note_on_c, 9, 42, 0
1, 55039, Note_on_c, 9, 38, 0
1, 55040, Note_on_c, 9, 82, 79
1, 55199, Note_on_c, 9, 82, 0
1, 55200, Note_on_c, 9, 38, 89
1, 55200, Note_on_c, 9, 42, 79
1, 55204, Note_on_c, 9, 42, 0
1, 55319, Note_on_c, 9, 38, 0
1, 55360, Note_on_c, 9, 38, 110
1, 55360, Note_on_c, 9, 82, 79
1, 55379, Note_on_c, 9, 38, 0
1, 55379, Note_on_c, 9, 82, 0
1, 55520, Note_on_c, 9, 42, 79
1, 55520, Note_on_c, 9, 42, 0
1, 55680, Note_on_c, 9, 38, 89
1, 55680, Note_on_c, 9, 82, 79
1, 55839, Note_on_c, 9, 38, 0
1, 55839, Note_on_c, 9, 82, 0
1, 55840, Note_on_c, 9, 38, 89
1, 55840, Note_on_c, 9, 42, 79
1, 55845, Note_on_c, 9, 42, 0
1, 55999, Note_on_c, 9, 38, 0
1, 56000, Note_on_c, 9, 82, 79
1, 56159, Note_on_c, 9, 82, 0
1, 56160, Note_on_c, 9, 38, 89
1, 56160, Note_on_c, 9, 42, 79
1, 56165, Note_on_c, 9, 42, 0
1, 56319, Note_on_c, 9, 38, 0
1, 56320, Note_on_c, 9, 38, 110
1, 56320, Note_on_c, 9, 82, 79
1, 56479, Note_on_c, 9, 38, 0
1, 56479, Note_on_c, 9, 82, 0
1, 56480, Note_on_c, 9, 42, 79
1, 56485, Note_on_c, 9, 42, 0
1, 56640, Note_on_c, 9, 38, 89
1, 56640, Note_on_c, 9, 82, 79
1, 56799, Note_on_c, 9, 38, 0
1, 56799, Note_on_c, 9, 82, 0
1, 56800, Note_on_c, 9, 38, 89
1, 56800, Note_on_c, 9, 42, 79
1, 56805, Note_on_c, 9, 42, 0
1, 56959, Note_on_c, 9, 38, 0
1, 56960, Note_on_c, 9, 82, 79
1, 57119, Note_on_c, 9, 82, 0
1, 57120, Note_on_c, 9, 38, 89
1, 57120, Note_on_c, 9, 42, 79
1, 57124, Note_on_c, 9, 42, 0
1, 57239, Note_on_c, 9, 38, 0
1, 57280, Note_on_c, 9, 38, 110
1, 57280, Note_on_c, 9, 82, 79
1, 57299, Note_on_c, 9, 38, 0
1, 57299, Note_on_c, 9, 82, 0
1, 57440, Note_on_c, 9, 42, 79
1, 57440, Note_on_c, 9, 42, 0
1, 57600, Note_on_c, 9, 38, 89
1, 57600, Note_on_c, 9, 82, 79
1, 57759, Note_on_c, 9, 38, 0
1, 57759, Note_on_c, 9, 82, 0
1, 57760, Note_on_c, 9, 38, 89
1, 57760, Note_on_c, 9, 42, 79
1, 57765, Note_on_c, 9, 42, 0
1, 57919, Note_on_c, 9, 38, 0
1, 57920, Note_on_c, 9, 82, 79
1, 58079, Note_on_c, 9, 82, 0
1, 58080, Note_on_c, 9, 38, 89
1, 58080, Note_on_c, 9, 42, 79
1, 58085, Note_on_c, 9, 42, 0
1, 58239, Note_on_c, 9, 38, 0
1, 58240, Note_on_c, 9, 38, 110
1, 58240, Note_on_c, 9, 82, 79
1, 58399, Note_on_c, 9, 38, 0
1, 58399, Note_on_c, 9, 82, 0
1, 58400, Note_on_c, 9, 42, 79
1, 58405, Note_on_c, 9, 42, 0
1, 58560, Note_on_c, 9, 38, 89
1, 58560, Note_on_c, 9, 82, 79
1, 58719, Note_on_c, 9, 38, 0
1, 58719, Note_on_c, 9, 82, 0
1, 58720, Note_on_c, 9, 38, 89
1, 58720, Note_on_c, 9, 42, 79
1, 58725, Note_on_c, 9, 42, 0
1, 58879, Note_on_c, 9, 38, 0
1, 58880, Note_on_c, 9, 82, 79
1, 59039, Note_on_c, 9, 82, 0
1, 59040, Note_on_c, 9, 38, 89
1, 59040, Note_on_c, 9, 42, 79
1, 59044, Note_on_c, 9, 42, 0
1, 59159, Note_on_c, 9, 38, 0
1, 59200, Note_on_c, 9, 38, 110
1, 59200, Note_on_c, 9, 82, 79
1, 59219, Note_on_c, 9, 38, 0
1, 59219, Note_on_c, 9, 82, 0
1, 59360, Note_on_c, 9, 42, 79
1, 59360, Note_on_c, 9, 42, 0
1, 59520, Note_on_c, 9, 38, 89
1, 59520, Note_on_c, 9, 82, 79
1, 59679, Note_on_c, 9, 38, 0
1, 59679, Note_on_c, 9, 82, 0
1, 59680, Note_on_c, 9, 38, 89
1, 59680, Note_on_c, 9, 42, 79
1, 59685, Note_on_c, 9, 42, 0
1, 59839, Note_on_c, 9, 38, 0
1, 59840, Note_on_c, 9, 82, 79
1, 59999, Note_on_c, 9, 82, 0
1, 60000, Note_on_c, 9, 38, 89
1, 60000, Note_on_c, 9, 42, 79
1, 60005, Note_on_c, 9, 42, 0
1, 60159, Note_on_c, 9, 38, 0
1, 60160, Note_on_c, 9, 38, 110
1, 60160, Note_on_c, 9, 82, 79
1, 60319, Note_on_c, 9, 38, 0
1, 60319, Note_on_c, 9, 82, 0
1, 60320, Note_on_c, 9, 42, 79
1, 60325, Note_on_c, 9, 42, 0
1, 60480, Note_on_c, 9, 38, 89
1, 60480, Note_on_c, 9, 82, 79
1, 60639, Note_on_c, 9, 38, 0
1, 60639, Note_on_c, 9, 82, 0
1, 60640, Note_on_c, 9, 38, 89
1, 60640, Note_on_c, 9, 42, 79
1, 60645, Note_on_c, 9, 42, 0
1, 60799, Note_on_c, 9, 38, 0
1, 60800, Note_on_c, 9, 82, 79
1, 60959, Note_on_c, 9, 82, 0
1, 60960, Note_on_c, 9, 38, 89
1, 60960, Note_on_c, 9, 42, 79
1, 60965, Note_on_c, 9, 42, 0
1, 61119, Note_on_c, 9, 38, 0
1, 61120, Note_on_c, 9, 38, 110
1, 61120, Note_on_c, 9, 82, 79
1, 61279, Note_on_c, 9, 38, 0
1, 61279, Note_on_c, 9, 82, 0
1, 61280, Note_on_c, 9, 42, 79
1, 61285, Note_on_c, 9, 42, 0
1, 61440, Note_on_c, 9, 38, 89
1, 61440, Note_on_c, 9, 82, 79
1, 61599, Note_on_c, 9, 38, 0
1, 61599, Note_on_c, 9, 82, 0
1, 61600, Note_on_c, 9, 38, 89
1, 61600, Note_on_c, 9, 42, 79
1, 61605, Note_on_c, 9, 42, 0
1, 61759, Note_on_c, 9, 38, 0
1, 61760, Note_on_c, 9, 82, 79
1, 61919, Note_on_c, 9, 82, 0
1, 61920, Note_on_c, 9, 38, 89
1, 61920, Note_on_c, 9, 42, 79
1, 61925, Note_on_c, 9, 42, 0
1, 62079, Note_on_c, 9, 38, 0
1, 62080, Note_on_c, 9, 38, 110
1, 62080, Note_on_c, 9, 82, 79
1, 62239, Note_on_c, 9, 38, 0
1, 62239, Note_on_c, 9, 82, 0
1, 62240, Note_on_c, 9, 42, 79
1, 62245, Note_on_c, 9, 42, 0
1, 62400, Note_on_c, 9, 38, 89
1, 62400, Note_on_c, 9, 82, 79
1, 62559, Note_on_c, 9, 38, 0
1, 62559, Note_on_c, 9, 82, 0
1, 62560, Note_on_c, 9, 38, 89
1, 62560, Note_on_c, 9, 42, 79
1, 62565, Note_on_c, 9, 42, 0
1, 62719, Note_on_c, 9, 38, 0
1, 62720, Note_on_c, 9, 82, 79
1, 62879, Note_on_c, 9, 82, 0
1, 62880, Note_on_c, 9, 38, 89
1, 62880, Note_on_c, 9, 42, 79
1, 62884, Note_on_c, 9, 42, 0
1, 62999, Note_on_c, 9, 38, 0
1, 63040, Note_on_c, 9, 38, 110
1, 63040, Note_on_c, 9, 82, 79
1, 63059, Note_on_c, 9, 38, 0
1, 63059, Note_on_c, 9, 82, 0
1, 63200, Note_on_c, 9, 42, 79
1, 63200, Note_on_c, 9, 42, 0
1, 63360, Note_on_c, 9, 38, 89
1, 63360, Note_on_c, 9, 82, 79
1, 63519, Note_on_c, 9, 38, 0
1, 63519, Note_on_c, 9, 82, 0
1, 63520, Note_on_c, 9, 38, 89
1, 63520, Note_on_c, 9, 42, 79
1, 63525, Note_on_c, 9, 42, 0
1, 63679, Note_on_c, 9, 38, 0
1, 63680, Note_on_c, 9, 82, 79
1, 63839, Note_on_c, 9, 82, 0
1, 63840, Note_on_c, 9, 38, 89
1, 63840, Note_on_c, 9, 42, 79
1, 63845, Note_on_c, 9, 42, 0
1, 63999, Note_on_c, 9, 38, 0
1, 64000, Note_on_c, 9, 38, 110
1, 64000, Note_on_c, 9, 82, 79
1, 64159, Note_on_c, 9, 38, 0
1, 64159, Note_on_c, 9, 82, 0
1, 64160, Note_on_c, 9, 42, 79
1, 64165, Note_on_c, 9, 42, 0
1, 64320, Note_on_c, 9, 38, 89
1, 64320, Note_on_c, 9, 82, 79
1, 64479, Note_on_c, 9, 38, 0
1, 64479, Note_on_c, 9, 82, 0
1, 64480, Note_on_c, 9, 38, 89
1, 64480, Note_on_c, 9, 42, 79
1, 64485, Note_on_c, 9, 42, 0
1, 64639, Note_on_c, 9, 38, 0
1, 64640, Note_on_c, 9, 82, 79
1, 64799, Note_on_c, 9, 82, 0
1, 64800, Note_on_c, 9, 38, 89
1, 64800, Note_on_c, 9, 42, 79
1, 64805, Note_on_c, 9, 42, 0
1, 64959, Note_on_c, 9, 38, 0
1, 64960, Note_on_c, 9, 38, 110
1, 64960, Note_on_c, 9, 82, 79
1, 65119, Note_on_c, 9, 38, 0
1, 65119, Note_on_c, 9, 82, 0
1, 65120, Note_on_c, 9, 42, 79
1, 65125, Note_on_c, 9, 42, 0
1, 65280, Note_on_c, 9, 38, 89
1, 65280, Note_on_c, 9, 82, 79
1, 65439, Note_on_c, 9, 38, 0
1, 65439, Note_on_c, 9, 82, 0
1, 65440, Note_on_c, 9, 38, 118
1, 65440, Note_on_c, 9, 42, 79
1, 65445, Note_on_c, 9, 42, 0
1, 65599, Note_on_c, 9, 38, 0
1, 65600, Note_on_c, 9, 82, 79
1, 65759, Note_on_c, 9, 82, 0
1, 65760, Note_on_c, 9, 38, 89
1, 65760, Note_on_c, 9, 42, 79
1, 65765, Note_on_c, 9, 42, 0
1, 65919, Note_on_c, 9, 38, 0
1, 65920, Note_on_c, 9, 38, 127
1, 65920, Note_on_c, 9, 82, 79
1, 66079, Note_on_c, 9, 38, 0
1, 66079, Note_on_c, 9, 82, 0
1, 66080, Note_on_c, 9, 38, 127
1, 66080, Note_on_c, 9, 42, 79
1, 66085, Note_on_c, 9, 42, 0
1, 66239, Note_on_c, 9, 38, 0
1, 66240, Note_on_c, 9, 38, 89
1, 66240, Note_on_c, 9, 46, 79
1, 66245, Note_on_c, 9, 46, 0
1, 66399, Note_on_c, 9, 38, 0
1, 66400, Note_on_c, 9, 38, 89
1, 66400, Note_on_c, 9, 42, 79
1, 66405, Note_on_c, 9, 42, 0
1, 66559, Note_on_c, 9, 38, 0
1, 66560, Note_on_c, 9, 82, 79
1, 66719, Note_on_c, 9, 82, 0
1, 66720, Note_on_c, 9, 38, 89
1, 66720, Note_on_c, 9, 42, 79
1, 66725, Note_on_c, 9, 42, 0
1, 66879, Note_on_c, 9, 38, 0
1, 66880, Note_on_c, 9, 38, 110
1, 66880, Note_on_c, 9, 82, 79
1, 67039, Note_on_c, 9, 38, 0
1, 67039, Note_on_c, 9, 82, 0
1, 67040, Note_on_c, 9, 42, 79
1, 67045, Note_on_c, 9, 42, 0
1, 67200, Note_on_c, 9, 38, 89
1, 67200, Note_on_c, 9, 82, 79
1, 67359, Note_on_c, 9, 38, 0
1, 67359, Note_on_c, 9, 82, 0
1, 67360, Note_on_c, 9, 38, 89
1, 67360, Note_on_c, 9, 42, 79
1, 67365, Note_on_c, 9, 42, 0
1, 67519, Note_on_c, 9, 38, 0
1, 67520, Note_on_c, 9, 82, 79
1, 67679, Note_on_c, 9, 82, 0
1, 67680, Note_on_c, 9, 38, 89
1, 67680, Note_on_c, 9, 42, 79
1, 67684, Note_on_c, 9, 42, 0
1, 67799, Note_on_c, 9, 38, 0
1, 67840, Note_on_c, 9, 38, 110
1, 67840, Note_on_c, 9, 82, 79
1, 67859, Note_on_c, 9, 38, 0
1, 67859, Note_on_c, 9, 82, 0
1, 68000, Note_on_c, 9, 42, 79
1, 68000, Note_on_c, 9, 42, 0
1, 68160, Note_on_c, 9, 38, 89
1, 68160, Note_on_c, 9, 82, 79
1, 68319, Note_on_c, 9, 38, 0
1, 68319, Note_on_c, 9, 82, 0
1, 68320, Note_on_c, 9, 38, 89
1, 68320, Note_on_c, 9, 42, 79
1, 68325, Note_on_c, 9, 42, 0
1, 68479, Note_on_c, 9, 38, 0
1, 68480, Note_on_c, 9, 82, 79
1, 68639, Note_on_c, 9, 82, 0
1, 68640, Note_on_c, 9, 38, 89
1, 68640, Note_on_c, 9, 42, 79
1, 68645, Note_on_c, 9, 42, 0
1, 68799, Note_on_c, 9, 38, 0
1, 68800, Note_on_c, 9, 38, 110
1, 68800, Note_on_c, 9, 82, 79
1, 68959, Note_on_c, 9, 38, 0
1, 68959, Note_on_c, 9, 82, 0
1, 68960, Note_on_c, 9, 42, 79
1, 68965, Note_on_c, 9, 42, 0
1, 69120, Note_on_c, 9, 38, 89
1, 69120, Note_on_c, 9, 82, 79
1, 69279, Note_on_c, 9, 38, 0
1, 69279, Note_on_c, 9, 82, 0
1, 69280, Note_on_c, 9, 38, 89
1, 69280, Note_on_c, 9, 42, 79
1, 69285, Note_on_c, 9, 42, 0
1, 69439, Note_on_c, 9, 38, 0
1, 69440, Note_on_c, 9, 82, 79
1, 69599, Note_on_c, 9, 82, 0
1, 69600, Note_on_c, 9, 38, 89
1, 69600, Note_on_c, 9, 42, 79
1, 69604, Note_on_c, 9, 42, 0
1, 69719, Note_on_c, 9, 38, 0
1, 69760, Note_on_c, 9, 38, 110
1, 69760, Note_on_c, 9, 82, 79
1, 69779, Note_on_c, 9, 38, 0
1, 69779, Note_on_c, 9, 82, 0
1, 69920, Note_on_c, 9, 42, 79
1, 69920, Note_on_c, 9, 42, 0
1, 70080, Note_on_c, 9, 38, 89
1, 70080, Note_on_c, 9, 82, 79
1, 70239, Note_on_c, 9, 38, 0
1, 70239, Note_on_c, 9, 82, 0
1, 70240, Note_on_c, 9, 38, 89
1, 70240, Note_on_c, 9, 42, 79
1, 70245, Note_on_c, 9, 42, 0
1, 70399, Note_on_c, 9, 38, 0
1, 70400, Note_on_c, 9, 82, 79
1, 70559, Note_on_c, 9, 82, 0
1, 70560, Note_on_c, 9, 38, 89
1, 70560, Note_on_c, 9, 42, 79
1, 70565, Note_on_c, 9, 42, 0
1, 70719, Note_on_c, 9, 38, 0
1, 70720, Note_on_c, 9, 38, 110
1, 70720, Note_on_c, 9, 82, 79
1, 70879, Note_on_c, 9, 38, 0
1, 70879, Note_on_c, 9, 82, 0
1, 70880, Note_on_c, 9, 42, 79
1, 70885, Note_on_c, 9, 42, 0
1, 71040, Note_on_c, 9, 38, 89
1, 71040, Note_on_c, 9, 82, 79
1, 71199, Note_on_c, 9, 38, 0
1, 71199, Note_on_c, 9, 82, 0
1, 71200, Note_on_c, 9, 38, 89
1, 71200, Note_on_c, 9, 42, 79
1, 71205, Note_on_c, 9, 42, 0
1, 71359, Note_on_c, 9, 38, 0
1, 71360, Note_on_c, 9, 82, 79
1, 71519, Note_on_c, 9, 82, 0
1, 71520, Note_on_c, 9, 38, 89
1, 71520, Note_on_c, 9, 42, 79
1, 71525, Note_on_c, 9, 42, 0
1, 71679, Note_on_c, 9, 38, 0
1, 71680, Note_on_c, 9, 38, 110
1, 71680, Note_on_c, 9, 82, 79
1, 71839, Note_on_c, 9, 38, 0
1, 71839, Note_on_c, 9, 82, 0
1, 71840, Note_on_c, 9, 42, 79
1, 71845, Note_on_c, 9, 42, 0
1, 72000, Note_on_c, 9, 38, 89
1, 72000, Note_on_c, 9, 82, 79
1, 72159, Note_on_c, 9, 38, 0
1, 72159, Note_on_c, 9, 82, 0
1, 72160, Note_on_c, 9, 38, 89
1, 72160, Note_on_c, 9, 42, 79
1, 72165, Note_on_c, 9, 42, 0
1, 72319, Note_on_c, 9, 38, 0
1, 72320, Note_on_c, 9, 82, 79
1, 72479, Note_on_c, 9, 82, 0
1, 72480, Note_on_c, 9, 38, 89
1, 72480, Note_on_c, 9, 42, 79
1, 72485, Note_on_c, 9, 42, 0
1, 72639, Note_on_c, 9, 38, 0
1, 72640, Note_on_c, 9, 38, 110
1, 72640, Note_on_c, 9, 82, 79
1, 72799, Note_on_c, 9, 38, 0
1, 72799, Note_on_c, 9, 82, 0
1, 72800, Note_on_c, 9, 42, 79
1, 72805, Note_on_c, 9, 42, 0
1, 72960, Note_on_c, 9, 38, 89
1, 72960, Note_on_c, 9, 82, 79
1, 73119, Note_on_c, 9, 38, 0
1, 73119, Note_on_c, 9, 82, 0
1, 73120, Note_on_c, 9, 38, 89
1, 73120, Note_on_c, 9, 42, 79
1, 73125, Note_on_c, 9, 42, 0
1, 73279, Note_on_c, 9, 38, 0
1, 73280, Note_on_c, 9, 82, 79
1, 73439, Note_on_c, 9, 82, 0
1, 73440, Note_on_c, 9, 38, 89
1, 73440, Note_on_c, 9, 42, 79
1, 73445, Note_on_c, 9, 42, 0
1, 73599, Note_on_c, 9, 38, 0
1, 73600, Note_on_c, 9, 38, 110
1, 73600, Note_on_c, 9, 82, 79
1, 73759, Note_on_c, 9, 38, 0
1, 73759, Note_on_c, 9, 82, 0
1, 73760, Note_on_c, 9, 42, 79
1, 73765, Note_on_c, 9, 42, 0
1, 73920, Note_on_c, 9, 38, 89
1, 73920, Note_on_c, 9, 82, 79
1, 74079, Note_on_c, 9, 38, 0
1, 74079, Note_on_c, 9, 82, 0
1, 74080, Note_on_c, 9, 38, 89
1, 74080, Note_on_c, 9, 42, 79
1, 74085, Note_on_c, 9, 42, 0
1, 74239, Note_on_c, 9, 38, 0
1, 74240, Note_on_c, 9, 82, 79
1, 74399, Note_on_c, 9, 82, 0
1, 74400, Note_on_c, 9, 38, 89
1, 74400, Note_on_c, 9, 42, 79
1, 74405, Note_on_c, 9, 42, 0
1, 74559, Note_on_c, 9, 38, 0
1, 74560, Note_on_c, 9, 38, 110
1, 74560, Note_on_c, 9, 82, 79
1, 74719, Note_on_c, 9, 38, 0
1, 74719, Note_on_c, 9, 82, 0
1, 74720, Note_on_c, 9, 42, 79
1, 74725, Note_on_c, 9, 42, 0
1, 74880, Note_on_c, 9, 38, 89
1, 74880, Note_on_c, 9, 82, 79
1, 75039, Note_on_c, 9, 38, 0
1, 75039, Note_on_c, 9, 82, 0
1, 75040, Note_on_c, 9, 38, 89
1, 75040, Note_on_c, 9, 42, 79
1, 75045, Note_on_c, 9, 42, 0
1, 75199, Note_on_c, 9, 38, 0
1, 75200, Note_on_c, 9, 82, 79
1, 75359, Note_on_c, 9, 82, 0
1, 75360, Note_on_c, 9, 38, 89
1, 75360, Note_on_c, 9, 42, 79
1, 75364, Note_on_c, 9, 42, 0
1, 75479, Note_on_c, 9, 38, 0
1, 75520, Note_on_c, 9, 38, 110
1, 75520, Note_on_c, 9, 82, 79
1, 75539, Note_on_c, 9, 38, 0
1, 75539, Note_on_c, 9, 82, 0
1, 75680, Note_on_c, 9, 42, 79
1, 75680, Note_on_c, 9, 42, 0
1, 75840, Note_on_c, 9, 38, 89
1, 75840, Note_on_c, 9, 82, 79
1, 75999, Note_on_c, 9, 38, 0
1, 75999, Note_on_c, 9, 82, 0
1, 76000, Note_on_c, 9, 38, 89
1, 76000, Note_on_c, 9, 42, 79
1, 76005, Note_on_c, 9, 42, 0
1, 76159, Note_on_c, 9, 38, 0
1, 76160, Note_on_c, 9, 82, 79
1, 76319, Note_on_c, 9, 82, 0
1, 76320, Note_on_c, 9, 38, 89
1, 76320, Note_on_c, 9, 42, 79
1, 76325, Note_on_c, 9, 42, 0
1, 76479, Note_on_c, 9, 38, 0
1, 76480, Note_on_c, 9, 38, 110
1, 76480, Note_on_c, 9, 82, 79
1, 76639, Note_on_c, 9, 38, 0
1, 76639, Note_on_c, 9, 82, 0
1, 76640, Note_on_c, 9, 42, 79
1, 76645, Note_on_c, 9, 42, 0
1, 76800, Note_on_c, 9, 38, 89
1, 76800, Note_on_c, 9, 82, 79
1, 76959, Note_on_c, 9, 38, 0
1, 76959, Note_on_c, 9, 82, 0
1, 76960, Note_on_c, 9, 38, 89
1, 76960, Note_on_c, 9, 42, 79
1, 76965, Note_on_c, 9, 42, 0
1, 77119, Note_on_c, 9, 38, 0
1, 77120, Note_on_c, 9, 82, 79
1, 77279, Note_on_c, 9, 82, 0
1, 77280, Note_on_c, 9, 38, 89
1, 77280, Note_on_c, 9, 42, 79
1, 77285, Note_on_c, 9, 42, 0
1, 77439, Note_on_c, 9, 38, 0
1, 77440, Note_on_c, 9, 38, 110
1, 77440, Note_on_c, 9, 82, 79
1, 77599, Note_on_c, 9, 38, 0
1, 77599, Note_on_c, 9, 82, 0
1, 77600, Note_on_c, 9, 42, 79
1, 77605, Note_on_c, 9, 42, 0
1, 77760, Note_on_c, 9, 38, 89
1, 77760, Note_on_c, 9, 82, 79
1, 77919, Note_on_c, 9, 38, 0
1, 77919, Note_on_c, 9, 82, 0
1, 77920, Note_on_c, 9, 38, 89
1, 77920, Note_on_c, 9, 42, 79
1, 77925, Note_on_c, 9, 42, 0
1, 78079, Note_on_c, 9, 38, 0
1, 78080, Note_on_c, 9, 82, 79
1, 78239, Note_on_c, 9, 82, 0
1, 78240, Note_on_c, 9, 38, 89
1, 78240, Note_on_c, 9, 42, 79
1, 78245, Note_on_c, 9, 42, 0
1, 78399, Note_on_c, 9, 38, 0
1, 78400, Note_on_c, 9, 38, 110
1, 78400, Note_on_c, 9, 82, 79
1, 78559, Note_on_c, 9, 38, 0
1, 78559, Note_on_c, 9, 82, 0
1, 78560, Note_on_c, 9, 42, 79
1, 78565, Note_on_c, 9, 42, 0
1, 78720, Note_on_c, 9, 38, 89
1, 78720, Note_on_c, 9, 82, 79
1, 78879, Note_on_c, 9, 38, 0
1, 78879, Note_on_c, 9, 82, 0
1, 78880, Note_on_c, 9, 38, 89
1, 78880, Note_on_c, 9, 42, 79
1, 78885, Note_on_c, 9, 42, 0
1, 79039, Note_on_c, 9, 38, 0
1, 79040, Note_on_c, 9, 82, 79
1, 79199, Note_on_c, 9, 82, 0
1, 79200, Note_on_c, 9, 38, 89
1, 79200, Note_on_c, 9, 42, 79
1, 79205, Note_on_c, 9, 42, 0
1, 79359, Note_on_c, 9, 38, 0
1, 79360, Note_on_c, 9, 38, 110
1, 79360, Note_on_c, 9, 82, 79
1, 79519, Note_on_c, 9, 38, 0
1, 79519, Note_on_c, 9, 82, 0
1, 79520, Note_on_c, 9, 42, 79
1, 79525, Note_on_c, 9, 42, 0
1, 79680, Note_on_c, 9, 38, 89
1, 79680, Note_on_c, 9, 82, 79
1, 79839, Note_on_c, 9, 38, 0
1, 79839, Note_on_c, 9, 82, 0
1, 79840, Note_on_c, 9, 38, 89
1, 79840, Note_on_c, 9, 42, 79
1, 79845, Note_on_c, 9, 42, 0
1, 79999, Note_on_c, 9, 38, 0
1, 80000, Note_on_c, 9, 82, 79
1, 80159, Note_on_c, 9, 82, 0
1, 80160, Note_on_c, 9, 38, 89
1, 80160, Note_on_c, 9, 42, 79
1, 80164, Note_on_c, 9, 42, 0
1, 80279, Note_on_c, 9, 38, 0
1, 80320, Note_on_c, 9, 38, 110
1, 80320, Note_on_c, 9, 82, 79
1, 80339, Note_on_c, 9, 38, 0
1, 80339, Note_on_c, 9, 82, 0
1, 80480, Note_on_c, 9, 42, 79
1, 80480, Note_on_c, 9, 42, 0
1, 80640, Note_on_c, 9, 38, 89
1, 80640, Note_on_c, 9, 82, 79
1, 80799, Note_on_c, 9, 38, 0
1, 80799, Note_on_c, 9, 82, 0
1, 80800, Note_on_c, 9, 38, 89
1, 80800, Note_on_c, 9, 42, 79
1, 80805, Note_on_c, 9, 42, 0
1, 80959, Note_on_c, 9, 38, 0
1, 80960, Note_on_c, 9, 82, 79
1, 81119, Note_on_c, 9, 82, 0
1, 81120, Note_on_c, 9, 38, 89
1, 81120, Note_on_c, 9, 42, 79
1, 81125, Note_on_c, 9, 42, 0
1, 81279, Note_on_c, 9, 38, 0
1, 81280, Note_on_c, 9, 38, 110
1, 81280, Note_on_c, 9, 82, 79
1, 81439, Note_on_c, 9, 38, 0
1, 81439, Note_on_c, 9, 82, 0
1, 81440, Note_on_c, 9, 42, 79
1, 81445, Note_on_c, 9, 42, 0
1, 81600, Note_on_c, 9, 38, 110
1, 81600, Note_on_c, 9, 82, 79
1, 81600, Note_on_c, 9, 49, 85
1, 81605, Note_on_c, 9, 49, 0
1, 81759, Note_on_c, 9, 38, 0
1, 81759, Note_on_c, 9, 82, 0
1, 81760, Note_on_c, 9, 40, 89
1, 81760, Note_on_c, 9, 42, 79
1, 81765, Note_on_c, 9, 42, 0
1, 81919, Note_on_c, 9, 40, 0
1, 81920, Note_on_c, 9, 82, 79
1, 82079, Note_on_c, 9, 82, 0
1, 82080, Note_on_c, 9, 40, 89
1, 82080, Note_on_c, 9, 42, 79
1, 82085, Note_on_c, 9, 42, 0
1, 82239, Note_on_c, 9, 40, 0
1, 82240, Note_on_c, 9, 38, 110
1, 82240, Note_on_c, 9, 40, 89
1, 82240, Note_on_c, 9, 82, 79
1, 82399, Note_on_c, 9, 38, 0
1, 82399, Note_on_c, 9, 40, 0
1, 82399, Note_on_c, 9, 82, 0
1, 82400, Note_on_c, 9, 42, 79
1, 82405, Note_on_c, 9, 42, 0
1, 82560, Note_on_c, 9, 40, 89
1, 82560, Note_on_c, 9, 82, 79
1, 82719, Note_on_c, 9, 40, 0
1, 82719, Note_on_c, 9, 82, 0
1, 82720, Note_on_c, 9, 40, 89
1, 82720, Note_on_c, 9, 42, 79
1, 82725, Note_on_c, 9, 42, 0
1, 82879, Note_on_c, 9, 40, 0
1, 82880, Note_on_c, 9, 82, 79
1, 83039, Note_on_c, 9, 82, 0
1, 83040, Note_on_c, 9, 40, 89
1, 83040, Note_on_c, 9, 42, 79
1, 83045, Note_on_c, 9, 42, 0
1, 83159, Note_on_c, 9, 40, 0
1, 83205, Note_on_c, 9, 38, 110
1, 83205, Note_on_c, 9, 40, 89
1, 83205, Note_on_c, 9, 82, 79
1, 83219, Note_on_c, 9, 82, 0
1, 83264, Note_on_c, 9, 38, 0
1, 83264, Note_on_c, 9, 40, 0
1, 83355, Note_on_c, 9, 42, 79
1, 83355, Note_on_c, 9, 42, 0
1, 83520, Note_on_c, 9, 40, 89
1, 83520, Note_on_c, 9, 82, 79
1, 83679, Note_on_c, 9, 40, 0
1, 83679, Note_on_c, 9, 82, 0
1, 83680, Note_on_c, 9, 42, 79
1, 83682, Note_on_c, 9, 42, 0
1, 83835, Note_on_c, 9, 82, 79
1, 83879, Note_on_c, 9, 82, 0
1, 84000, Note_on_c, 9, 42, 79
1, 84005, Note_on_c, 9, 42, 0
1, 84165, Note_on_c, 9, 38, 110
1, 84165, Note_on_c, 9, 82, 79
1, 84165, Note_on_c, 9, 42, 89
1, 84165, Note_on_c, 9, 42, 0
1, 84179, Note_on_c, 9, 82, 0
1, 84224, Note_on_c, 9, 38, 0
1, 84315, Note_on_c, 9, 42, 79
1, 84315, Note_on_c, 9, 42, 0
1, 84480, Note_on_c, 9, 82, 79
1, 84480, Note_on_c, 9, 42, 89
1, 84484, Note_on_c, 9, 42, 0
1, 84599, Note_on_c, 9, 82, 0
1, 84640, Note_on_c, 9, 42, 79
1, 84640, Note_on_c, 9, 42, 0
1, 84800, Note_on_c, 9, 82, 79
1, 84839, Note_on_c, 9, 82, 0
1, 84960, Note_on_c, 9, 42, 79
1, 84965, Note_on_c, 9, 42, 0
1, 85120, Note_on_c, 9, 38, 110
1, 85120, Note_on_c, 9, 82, 79
1, 85120, Note_on_c, 9, 42, 89
1, 85125, Note_on_c, 9, 42, 0
1, 85279, Note_on_c, 9, 38, 0
1, 85279, Note_on_c, 9, 82, 0
1, 85280, Note_on_c, 9, 42, 79
1, 85285, Note_on_c, 9, 42, 0
1, 85440, Note_on_c, 9, 82, 79
1, 85440, Note_on_c, 9, 42, 89
1, 85444, Note_on_c, 9, 42, 0
1, 85559, Note_on_c, 9, 82, 0
1, 85600, Note_on_c, 9, 42, 79
1, 85600, Note_on_c, 9, 42, 0
1, 85600, Note_on_c, 9, 43, 89
1, 85760, Note_on_c, 9, 82, 79
1, 85799, Note_on_c, 9, 82, 0
1, 85919, Note_on_c, 9, 43, 0
1, 85920, Note_on_c, 9, 42, 79
1, 85920, Note_on_c, 9, 43, 89
1, 85925, Note_on_c, 9, 42, 0
1, 86079, Note_on_c, 9, 43, 0
1, 86080, Note_on_c, 9, 38, 110
1, 86080, Note_on_c, 9, 82, 79
1, 86080, Note_on_c, 9, 43, 89
1, 86239, Note_on_c, 9, 38, 0
1, 86239, Note_on_c, 9, 82, 0
1, 86240, Note_on_c, 9, 42, 79
1, 86245, Note_on_c, 9, 42, 0
1, 86399, Note_on_c, 9, 43, 0
1, 86400, Note_on_c, 9, 82, 79
1, 86400, Note_on_c, 9, 43, 89
1, 86519, Note_on_c, 9, 82, 0
1, 86559, Note_on_c, 9, 43, 0
1, 86560, Note_on_c, 9, 42, 79
1, 86560, Note_on_c, 9, 42, 0
1, 86560, Note_on_c, 9, 43, 89
1, 86720, Note_on_c, 9, 82, 79
1, 86759, Note_on_c, 9, 82, 0
1, 86879, Note_on_c, 9, 43, 0
1, 86880, Note_on_c, 9, 42, 79
1, 86880, Note_on_c, 9, 43, 89
1, 86885, Note_on_c, 9, 42, 0
1, 87039, Note_on_c, 9, 43, 0
1, 87040, Note_on_c, 9, 38, 110
1, 87040, Note_on_c, 9, 82, 79
1, 87040, Note_on_c, 9, 43, 89
1, 87199, Note_on_c, 9, 38, 0
1, 87199, Note_on_c, 9, 82, 0
1, 87200, Note_on_c, 9, 42, 79
1, 87205, Note_on_c, 9, 42, 0
1, 87359, Note_on_c, 9, 43, 0
1, 87360, Note_on_c, 9, 82, 79
1, 87360, Note_on_c, 9, 43, 89
1, 87479, Note_on_c, 9, 82, 0
1, 87519, Note_on_c, 9, 43, 0
1, 87520, Note_on_c, 9, 42, 79
1, 87520, Note_on_c, 9, 42, 0
1, 87520, Note_on_c, 9, 43, 89
1, 87599, Note_on_c, 9, 43, 0
1, 87680, Note_on_c, 9, 82, 79
1, 87719, Note_on_c, 9, 82, 0
1, 87840, Note_on_c, 9, 42, 79
1, 87845, Note_on_c, 9, 42, 0
1, 88000, Note_on_c, 9, 38, 110
1, 88000, Note_on_c, 9, 82, 79
1, 88000, Note_on_c, 9, 42, 89
1, 88005, Note_on_c, 9, 42, 0
1, 88159, Note_on_c, 9, 38, 0
1, 88159, Note_on_c, 9, 82, 0
1, 88160, Note_on_c, 9, 42, 79
1, 88165, Note_on_c, 9, 42, 0
1, 88320, Note_on_c, 9, 82, 79
1, 88320, Note_on_c, 9, 42, 89
1, 88324, Note_on_c, 9, 42, 0
1, 88439, Note_on_c, 9, 82, 0
1, 88480, Note_on_c, 9, 42, 79
1, 88480, Note_on_c, 9, 42, 0
1, 88640, Note_on_c, 9, 82, 79
1, 88679, Note_on_c, 9, 82, 0
1, 88800, Note_on_c, 9, 42, 79
1, 88805, Note_on_c, 9, 42, 0
1, 88960, Note_on_c, 9, 38, 110
1, 88960, Note_on_c, 9, 82, 79
1, 88960, Note_on_c, 9, 42, 89
1, 88965, Note_on_c, 9, 42, 0
1, 89119, Note_on_c, 9, 38, 0
1, 89119, Note_on_c, 9, 82, 0
1, 89120, Note_on_c, 9, 42, 79
1, 89125, Note_on_c, 9, 42, 0
1, 89280, Note_on_c, 9, 82, 79
1, 89280, Note_on_c, 9, 42, 89
1, 89285, Note_on_c, 9, 42, 0
1, 89439, Note_on_c, 9, 82, 0
1, 89440, Note_on_c, 9, 40, 89
1, 89440, Note_on_c, 9, 42, 79
1, 89445, Note_on_c, 9, 42, 0
1, 89599, Note_on_c, 9, 40, 0
1, 89600, Note_on_c, 9, 82, 79
1, 89759, Note_on_c, 9, 82, 0
1, 89760, Note_on_c, 9, 40, 89
1, 89760, Note_on_c, 9, 42, 79
1, 89765, Note_on_c, 9, 42, 0
1, 89919, Note_on_c, 9, 40, 0
1, 89920, Note_on_c, 9, 38, 110
1, 89920, Note_on_c, 9, 40, 89
1, 89920, Note_on_c, 9, 82, 79
1, 90079, Note_on_c, 9, 38, 0
1, 90079, Note_on_c, 9, 40, 0
1, 90079, Note_on_c, 9, 82, 0
1, 90080, Note_on_c, 9, 42, 79
1, 90085, Note_on_c, 9, 42, 0
1, 90240, Note_on_c, 9, 40, 89
1, 90240, Note_on_c, 9, 82, 79
1, 90399, Note_on_c, 9, 40, 0
1, 90399, Note_on_c, 9, 82, 0
1, 90400, Note_on_c, 9, 42, 79
1, 90405, Note_on_c, 9, 42, 0
1, 90560, Note_on_c, 9, 82, 79
1, 90719, Note_on_c, 9, 82, 0
1, 90720, Note_on_c, 9, 42, 79
1, 90725, Note_on_c, 9, 42, 0
1, 90880, Note_on_c, 9, 38, 110
1, 90880, Note_on_c, 9, 82, 79
1, 90880, Note_on_c, 9, 42, 89
1, 90885, Note_on_c, 9, 42, 0
1, 91039, Note_on_c, 9, 38, 0
1, 91039, Note_on_c, 9, 82, 0
1, 91040, Note_on_c, 9, 42, 79
1, 91045, Note_on_c, 9, 42, 0
1, 91200, Note_on_c, 9, 82, 79
1, 91200, Note_on_c, 9, 42, 100
1, 91204, Note_on_c, 9, 42, 0
1, 91319, Note_on_c, 9, 82, 0
1, 91360, Note_on_c, 9, 42, 79
1, 91360, Note_on_c, 9, 42, 0
1, 91360, Note_on_c, 9, 43, 100
1, 91520, Note_on_c, 9, 82, 79
1, 91559, Note_on_c, 9, 82, 0
1, 91679, Note_on_c, 9, 43, 0
1, 91680, Note_on_c, 9, 42, 79
1, 91680, Note_on_c, 9, 43, 100
1, 91685, Note_on_c, 9, 42, 0
1, 91839, Note_on_c, 9, 43, 0
1, 91840, Note_on_c, 9, 38, 110
1, 91840, Note_on_c, 9, 82, 79
1, 91840, Note_on_c, 9, 43, 111
1, 91999, Note_on_c, 9, 38, 0
1, 91999, Note_on_c, 9, 82, 0
1, 92000, Note_on_c, 9, 42, 79
1, 92005, Note_on_c, 9, 42, 0
1, 92159, Note_on_c, 9, 43, 0
1, 92160, Note_on_c, 9, 82, 79
1, 92160, Note_on_c, 9, 43, 111
1, 92319, Note_on_c, 9, 82, 0
1, 92320, Note_on_c, 9, 38, 110
1, 92320, Note_on_c, 9, 45, 111
1, 92320, Note_on_c, 9, 42, 79
1, 92325, Note_on_c, 9, 42, 0
1, 92479, Note_on_c, 9, 38, 0
1, 92479, Note_on_c, 9, 45, 0
1, 92480, Note_on_c, 9, 38, 110
1, 92480, Note_on_c, 9, 82, 79
1, 92639, Note_on_c, 9, 43, 0
1, 92639, Note_on_c, 9, 38, 0
1, 92639, Note_on_c, 9, 82, 0
1, 92640, Note_on_c, 9, 45, 116
1, 92640, Note_on_c, 9, 42, 79
1, 92644, Note_on_c, 9, 42, 0
1, 92759, Note_on_c, 9, 45, 0
1, 92760, Note_on_c, 9, 42, 79
1, 92760, Note_on_c, 9, 42, 0
1, 92805, Note_on_c, 9, 38, 120
1, 92805, Note_on_c, 9, 45, 116
1, 92805, Note_on_c, 9, 82, 79
1, 92819, Note_on_c, 9, 82, 0
1, 92864, Note_on_c, 9, 38, 0
1, 92864, Note_on_c, 9, 45, 0
1, 92955, Note_on_c, 9, 38, 110
1, 92955, Note_on_c, 9, 42, 79
1, 92955, Note_on_c, 9, 42, 0
1, 93014, Note_on_c, 9, 38, 0
1, 93120, Note_on_c, 9, 38, 127
1, 93120, Note_on_c, 9, 45, 116
1, 93120, Note_on_c, 9, 82, 79
1, 93239, Note_on_c, 9, 38, 0
1, 93239, Note_on_c, 9, 45, 0
1, 93280, Note_on_c, 9, 43, 89
1, 93284, Note_on_c, 9, 82, 0
1, 93285, Note_on_c, 9, 42, 79
1, 93285, Note_on_c, 9, 42, 0
1, 93435, Note_on_c, 9, 82, 79
1, 93479, Note_on_c, 9, 82, 0
1, 93599, Note_on_c, 9, 43, 0
1, 93600, Note_on_c, 9, 42, 79
1, 93605, Note_on_c, 9, 42, 0
1, 93760, Note_on_c, 9, 43, 89
1, 93765, Note_on_c, 9, 38, 110
1, 93765, Note_on_c, 9, 82, 79
1, 93779, Note_on_c, 9, 82, 0
1, 93824, Note_on_c, 9, 38, 0
1, 93915, Note_on_c, 9, 42, 79
1, 93915, Note_on_c, 9, 42, 0
1, 94079, Note_on_c, 9, 43, 0
1, 94080, Note_on_c, 9, 82, 79
1, 94199, Note_on_c, 9, 82, 0
1, 94240, Note_on_c, 9, 42, 79
1, 94240, Note_on_c, 9, 42, 0
1, 94240, Note_on_c, 9, 43, 89
1, 94400, Note_on_c, 9, 82, 79
1, 94439, Note_on_c, 9, 82, 0
1, 94559, Note_on_c, 9, 43, 0
1, 94560, Note_on_c, 9, 42, 79
1, 94565, Note_on_c, 9, 42, 0
1, 94720, Note_on_c, 9, 38, 110
1, 94720, Note_on_c, 9, 82, 79
1, 94720, Note_on_c, 9, 43, 89
1, 94879, Note_on_c, 9, 38, 0
1, 94879, Note_on_c, 9, 82, 0
1, 94880, Note_on_c, 9, 42, 79
1, 94885, Note_on_c, 9, 42, 0
1, 95039, Note_on_c, 9, 43, 0
1, 95040, Note_on_c, 9, 82, 79
1, 95199, Note_on_c, 9, 82, 0
1, 95200, Note_on_c, 9, 42, 79
1, 95205, Note_on_c, 9, 42, 0
1, 95360, Note_on_c, 9, 38, 89
1, 95360, Note_on_c, 9, 82, 79
1, 95519, Note_on_c, 9, 38, 0
1, 95519, Note_on_c, 9, 82, 0
1, 95520, Note_on_c, 9, 42, 79
1, 95524, Note_on_c, 9, 42, 0
1, 95680, Note_on_c, 9, 38, 110
1, 95680, Note_on_c, 9, 82, 79
1, 95699, Note_on_c, 9, 38, 0
1, 95699, Note_on_c, 9, 82, 0
1, 95840, Note_on_c, 9, 42, 79
1, 95840, Note_on_c, 9, 42, 0
1, 96000, Note_on_c, 9, 82, 79
1, 96159, Note_on_c, 9, 82, 0
1, 96160, Note_on_c, 9, 42, 79
1, 96165, Note_on_c, 9, 42, 0
1, 96320, Note_on_c, 9, 45, 89
1, 96320, Note_on_c, 9, 82, 79
1, 96479, Note_on_c, 9, 45, 0
1, 96479, Note_on_c, 9, 82, 0
1, 96480, Note_on_c, 9, 42, 79
1, 96485, Note_on_c, 9, 42, 0
1, 96640, Note_on_c, 9, 38, 110
1, 96640, Note_on_c, 9, 45, 89
1, 96640, Note_on_c, 9, 82, 79
1, 96799, Note_on_c, 9, 38, 0
1, 96799, Note_on_c, 9, 45, 0
1, 96799, Note_on_c, 9, 82, 0
1, 96800, Note_on_c, 9, 42, 79
1, 96805, Note_on_c, 9, 42, 0
1, 96960, Note_on_c, 9, 82, 79
1, 97079, Note_on_c, 9, 82, 0
1, 97120, Note_on_c, 9, 42, 79
1, 97120, Note_on_c, 9, 42, 0
1, 97120, Note_on_c, 9, 43, 89
1, 97280, Note_on_c, 9, 82, 79
1, 97319, Note_on_c, 9, 82, 0
1, 97439, Note_on_c, 9, 43, 0
1, 97440, Note_on_c, 9, 42, 79
1, 97445, Note_on_c, 9, 42, 0
1, 97600, Note_on_c, 9, 38, 110
1, 97600, Note_on_c, 9, 82, 79
1, 97600, Note_on_c, 9, 43, 89
1, 97759, Note_on_c, 9, 38, 0
1, 97759, Note_on_c, 9, 82, 0
1, 97760, Note_on_c, 9, 42, 79
1, 97765, Note_on_c, 9, 42, 0
1, 97919, Note_on_c, 9, 43, 0
1, 97920, Note_on_c, 9, 82, 79
1, 98039, Note_on_c, 9, 82, 0
1, 98080, Note_on_c, 9, 42, 79
1, 98080, Note_on_c, 9, 42, 0
1, 98080, Note_on_c, 9, 43, 89
1, 98240, Note_on_c, 9, 82, 79
1, 98279, Note_on_c, 9, 82, 0
1, 98399, Note_on_c, 9, 43, 0
1, 98400, Note_on_c, 9, 42, 79
1, 98405, Note_on_c, 9, 42, 0
1, 98560, Note_on_c, 9, 38, 110
1, 98560, Note_on_c, 9, 82, 79
1, 98560, Note_on_c, 9, 43, 89
1, 98719, Note_on_c, 9, 38, 0
1, 98719, Note_on_c, 9, 82, 0
1, 98720, Note_on_c, 9, 42, 79
1, 98725, Note_on_c, 9, 42, 0
1, 98879, Note_on_c, 9, 43, 0
1, 98880, Note_on_c, 9, 82, 79
1, 99039, Note_on_c, 9, 82, 0
1, 99040, Note_on_c, 9, 42, 79
1, 99045, Note_on_c, 9, 42, 0
1, 99200, Note_on_c, 9, 38, 89
1, 99200, Note_on_c, 9, 82, 79
1, 99359, Note_on_c, 9, 38, 0
1, 99359, Note_on_c, 9, 82, 0
1, 99360, Note_on_c, 9, 42, 79
1, 99364, Note_on_c, 9, 42, 0
1, 99520, Note_on_c, 9, 38, 110
1, 99520, Note_on_c, 9, 82, 79
1, 99539, Note_on_c, 9, 38, 0
1, 99539, Note_on_c, 9, 82, 0
1, 99680, Note_on_c, 9, 42, 79
1, 99680, Note_on_c, 9, 42, 0
1, 99840, Note_on_c, 9, 82, 79
1, 99999, Note_on_c, 9, 82, 0
1, 100000, Note_on_c, 9, 42, 79
1, 100005, Note_on_c, 9, 42, 0
1, 100160, Note_on_c, 9, 45, 89
1, 100160, Note_on_c, 9, 82, 79
1, 100319, Note_on_c, 9, 45, 0
1, 100319, Note_on_c, 9, 82, 0
1, 100320, Note_on_c, 9, 42, 79
1, 100325, Note_on_c, 9, 42, 0
1, 100480, Note_on_c, 9, 38, 110
1, 100480, Note_on_c, 9, 45, 89
1, 100480, Note_on_c, 9, 82, 79
1, 100639, Note_on_c, 9, 38, 0
1, 100639, Note_on_c, 9, 45, 0
1, 100639, Note_on_c, 9, 82, 0
1, 100640, Note_on_c, 9, 42, 79
1, 100645, Note_on_c, 9, 42, 0
1, 100800, Note_on_c, 9, 82, 79
1, 100919, Note_on_c, 9, 82, 0
1, 100960, Note_on_c, 9, 42, 79
1, 100960, Note_on_c, 9, 42, 0
1, 100960, Note_on_c, 9, 43, 89
1, 101120, Note_on_c, 9, 82, 79
1, 101159, Note_on_c, 9, 82, 0
1, 101279, Note_on_c, 9, 43, 0
1, 101280, Note_on_c, 9, 42, 79
1, 101285, Note_on_c, 9, 42, 0
1, 101440, Note_on_c, 9, 38, 110
1, 101440, Note_on_c, 9, 82, 79
1, 101440, Note_on_c, 9, 43, 89
1, 101599, Note_on_c, 9, 38, 0
1, 101599, Note_on_c, 9, 82, 0
1, 101600, Note_on_c, 9, 42, 79
1, 101605, Note_on_c, 9, 42, 0
1, 101759, Note_on_c, 9, 43, 0
1, 101760, Note_on_c, 9, 82, 79
1, 101879, Note_on_c, 9, 82, 0
1, 101920, Note_on_c, 9, 42, 79
1, 101920, Note_on_c, 9, 42, 0
1, 101920, Note_on_c, 9, 43, 89
1, 102080, Note_on_c, 9, 82, 79
1, 102119, Note_on_c, 9, 82, 0
1, 102239, Note_on_c, 9, 43, 0
1, 102240, Note_on_c, 9, 42, 79
1, 102245, Note_on_c, 9, 42, 0
1, 102400, Note_on_c, 9, 38, 110
1, 102400, Note_on_c, 9, 82, 79
1, 102400, Note_on_c, 9, 43, 89
1, 102559, Note_on_c, 9, 38, 0
1, 102559, Note_on_c, 9, 82, 0
1, 102560, Note_on_c, 9, 42, 79
1, 102565, Note_on_c, 9, 42, 0
1, 102719, Note_on_c, 9, 43, 0
1, 102720, Note_on_c, 9, 82, 79
1, 102879, Note_on_c, 9, 82, 0
1, 102880, Note_on_c, 9, 42, 79
1, 102885, Note_on_c, 9, 42, 0
1, 103040, Note_on_c, 9, 50, 89
1, 103040, Note_on_c, 9, 82, 79
1, 103199, Note_on_c, 9, 50, 0
1, 103199, Note_on_c, 9, 82, 0
1, 103200, Note_on_c, 9, 42, 79
1, 103205, Note_on_c, 9, 42, 0
1, 103360, Note_on_c, 9, 38, 110
1, 103360, Note_on_c, 9, 50, 89
1, 103360, Note_on_c, 9, 82, 79
1, 103519, Note_on_c, 9, 38, 0
1, 103519, Note_on_c, 9, 50, 0
1, 103519, Note_on_c, 9, 82, 0
1, 103520, Note_on_c, 9, 42, 79
1, 103525, Note_on_c, 9, 42, 0
1, 103680, Note_on_c, 9, 82, 79
1, 103844, Note_on_c, 9, 82, 0
1, 103845, Note_on_c, 9, 42, 79
1, 103845, Note_on_c, 9, 42, 0
1, 103995, Note_on_c, 9, 38, 110
1, 103995, Note_on_c, 9, 45, 89
1, 103995, Note_on_c, 9, 82, 79
1, 104039, Note_on_c, 9, 82, 0
1, 104054, Note_on_c, 9, 38, 0
1, 104054, Note_on_c, 9, 45, 0
1, 104160, Note_on_c, 9, 42, 79
1, 104165, Note_on_c, 9, 42, 0
1, 104325, Note_on_c, 9, 38, 120
1, 104325, Note_on_c, 9, 45, 89
1, 104325, Note_on_c, 9, 49, 85
1, 104325, Note_on_c, 9, 49, 0
1, 104384, Note_on_c, 9, 38, 0
1, 104384, Note_on_c, 9, 45, 0
1, 104475, Note_on_c, 9, 42, 79
1, 104475, Note_on_c, 9, 42, 0
1, 104640, Note_on_c, 9, 82, 79
1, 104799, Note_on_c, 9, 82, 0
1, 104800, Note_on_c, 9, 40, 89
1, 104800, Note_on_c, 9, 42, 79
1, 104805, Note_on_c, 9, 42, 0
1, 104959, Note_on_c, 9, 40, 0
1, 104960, Note_on_c, 9, 82, 79
1, 105119, Note_on_c, 9, 82, 0
1, 105120, Note_on_c, 9, 40, 89
1, 105120, Note_on_c, 9, 42, 79
1, 105125, Note_on_c, 9, 42, 0
1, 105279, Note_on_c, 9, 40, 0
1, 105280, Note_on_c, 9, 38, 110
1, 105280, Note_on_c, 9, 40, 89
1, 105280, Note_on_c, 9, 82, 79
1, 105439, Note_on_c, 9, 38, 0
1, 105439, Note_on_c, 9, 40, 0
1, 105439, Note_on_c, 9, 82, 0
1, 105440, Note_on_c, 9, 42, 79
1, 105445, Note_on_c, 9, 42, 0
1, 105600, Note_on_c, 9, 40, 89
1, 105600, Note_on_c, 9, 82, 79
1, 105759, Note_on_c, 9, 40, 0
1, 105759, Note_on_c, 9, 82, 0
1, 105760, Note_on_c, 9, 40, 89
1, 105760, Note_on_c, 9, 42, 79
1, 105765, Note_on_c, 9, 42, 0
1, 105919, Note_on_c, 9, 40, 0
1, 105920, Note_on_c, 9, 82, 79
1, 106079, Note_on_c, 9, 82, 0
1, 106080, Note_on_c, 9, 40, 89
1, 106080, Note_on_c, 9, 42, 79
1, 106085, Note_on_c, 9, 42, 0
1, 106199, Note_on_c, 9, 40, 0
1, 106245, Note_on_c, 9, 38, 110
1, 106245, Note_on_c, 9, 40, 89
1, 106245, Note_on_c, 9, 82, 79
1, 106259, Note_on_c, 9, 82, 0
1, 106304, Note_on_c, 9, 38, 0
1, 106304, Note_on_c, 9, 40, 0
1, 106395, Note_on_c, 9, 42, 79
1, 106395, Note_on_c, 9, 42, 0
1, 106560, Note_on_c, 9, 40, 89
1, 106560, Note_on_c, 9, 82, 79
1, 106719, Note_on_c, 9, 40, 0
1, 106719, Note_on_c, 9, 82, 0
1, 106720, Note_on_c, 9, 42, 79
1, 106722, Note_on_c, 9, 42, 0
1, 106875, Note_on_c, 9, 82, 79
1, 106919, Note_on_c, 9, 82, 0
1, 107040, Note_on_c, 9, 42, 79
1, 107045, Note_on_c, 9, 42, 0
1, 107205, Note_on_c, 9, 38, 110
1, 107205, Note_on_c, 9, 82, 79
1, 107205, Note_on_c, 9, 42, 89
1, 107205, Note_on_c, 9, 42, 0
1, 107219, Note_on_c, 9, 82, 0
1, 107264, Note_on_c, 9, 38, 0
1, 107355, Note_on_c, 9, 42, 79
1, 107355, Note_on_c, 9, 42, 0
1, 107520, Note_on_c, 9, 82, 79
1, 107520, Note_on_c, 9, 42, 89
1, 107524, Note_on_c, 9, 42, 0
1, 107639, Note_on_c, 9, 82, 0
1, 107680, Note_on_c, 9, 42, 79
1, 107680, Note_on_c, 9, 42, 0
1, 107840, Note_on_c, 9, 82, 79
1, 107879, Note_on_c, 9, 82, 0
1, 108000, Note_on_c, 9, 42, 79
1, 108005, Note_on_c, 9, 42, 0
1, 108160, Note_on_c, 9, 38, 110
1, 108160, Note_on_c, 9, 82, 79
1, 108160, Note_on_c, 9, 42, 89
1, 108165, Note_on_c, 9, 42, 0
1, 108319, Note_on_c, 9, 38, 0
1, 108319, Note_on_c, 9, 82, 0
1, 108320, Note_on_c, 9, 42, 79
1, 108325, Note_on_c, 9, 42, 0
1, 108480, Note_on_c, 9, 82, 79
1, 108480, Note_on_c, 9, 42, 89
1, 108484, Note_on_c, 9, 42, 0
1, 108599, Note_on_c, 9, 82, 0
1, 108640, Note_on_c, 9, 42, 79
1, 108640, Note_on_c, 9, 42, 0
1, 108640, Note_on_c, 9, 43, 89
1, 108800, Note_on_c, 9, 82, 79
1, 108839, Note_on_c, 9, 82, 0
1, 108959, Note_on_c, 9, 43, 0
1, 108960, Note_on_c, 9, 42, 79
1, 108960, Note_on_c, 9, 43, 89
1, 108965, Note_on_c, 9, 42, 0
1, 109119, Note_on_c, 9, 43, 0
1, 109120, Note_on_c, 9, 38, 110
1, 109120, Note_on_c, 9, 82, 79
1, 109120, Note_on_c, 9, 43, 89
1, 109279, Note_on_c, 9, 38, 0
1, 109279, Note_on_c, 9, 82, 0
1, 109280, Note_on_c, 9, 42, 79
1, 109285, Note_on_c, 9, 42, 0
1, 109439, Note_on_c, 9, 43, 0
1, 109440, Note_on_c, 9, 82, 79
1, 109440, Note_on_c, 9, 43, 89
1, 109559, Note_on_c, 9, 82, 0
1, 109599, Note_on_c, 9, 43, 0
1, 109600, Note_on_c, 9, 42, 79
1, 109600, Note_on_c, 9, 42, 0
1, 109600, Note_on_c, 9, 43, 89
1, 109760, Note_on_c, 9, 82, 79
1, 109799, Note_on_c, 9, 82, 0
1, 109919, Note_on_c, 9, 43, 0
1, 109920, Note_on_c, 9, 42, 79
1, 109920, Note_on_c, 9, 43, 89
1, 109925, Note_on_c, 9, 42, 0
1, 110079, Note_on_c, 9, 43, 0
1, 110080, Note_on_c, 9, 38, 110
1, 110080, Note_on_c, 9, 82, 79
1, 110080, Note_on_c, 9, 43, 89
1, 110239, Note_on_c, 9, 38, 0
1, 110239, Note_on_c, 9, 82, 0
1, 110240, Note_on_c, 9, 42, 79
1, 110245, Note_on_c, 9, 42, 0
1, 110399, Note_on_c, 9, 43, 0
1, 110400, Note_on_c, 9, 82, 79
1, 110400, Note_on_c, 9, 43, 89
1, 110519, Note_on_c, 9, 82, 0
1, 110559, Note_on_c, 9, 43, 0
1, 110560, Note_on_c, 9, 42, 79
1, 110560, Note_on_c, 9, 42, 0
1, 110560, Note_on_c, 9, 43, 89
1, 110639, Note_on_c, 9, 43, 0
1, 110720, Note_on_c, 9, 82, 79
1, 110759, Note_on_c, 9, 82, 0
1, 110880, Note_on_c, 9, 42, 79
1, 110885, Note_on_c, 9, 42, 0
1, 111040, Note_on_c, 9, 38, 110
1, 111040, Note_on_c, 9, 82, 79
1, 111040, Note_on_c, 9, 42, 89
1, 111045, Note_on_c, 9, 42, 0
1, 111199, Note_on_c, 9, 38, 0
1, 111199, Note_on_c, 9, 82, 0
1, 111200, Note_on_c, 9, 42, 79
1, 111205, Note_on_c, 9, 42, 0
1, 111360, Note_on_c, 9, 82, 79
1, 111360, Note_on_c, 9, 42, 89
1, 111364, Note_on_c, 9, 42, 0
1, 111479, Note_on_c, 9, 82, 0
1, 111520, Note_on_c, 9, 42, 79
1, 111520, Note_on_c, 9, 42, 0
1, 111680, Note_on_c, 9, 82, 79
1, 111719, Note_on_c, 9, 82, 0
1, 111840, Note_on_c, 9, 42, 79
1, 111845, Note_on_c, 9, 42, 0
1, 112000, Note_on_c, 9, 38, 110
1, 112000, Note_on_c, 9, 82, 79
1, 112000, Note_on_c, 9, 42, 89
1, 112005, Note_on_c, 9, 42, 0
1, 112159, Note_on_c, 9, 38, 0
1, 112159, Note_on_c, 9, 82, 0
1, 112160, Note_on_c, 9, 42, 79
1, 112165, Note_on_c, 9, 42, 0
1, 112320, Note_on_c, 9, 82, 79
1, 112320, Note_on_c, 9, 42, 89
1, 112325, Note_on_c, 9, 42, 0
1, 112479, Note_on_c, 9, 82, 0
1, 112480, Note_on_c, 9, 40, 89
1, 112480, Note_on_c, 9, 42, 79
1, 112485, Note_on_c, 9, 42, 0
1, 112639, Note_on_c, 9, 40, 0
1, 112640, Note_on_c, 9, 82, 79
1, 112799, Note_on_c, 9, 82, 0
1, 112800, Note_on_c, 9, 40, 89
1, 112800, Note_on_c, 9, 42, 79
1, 112805, Note_on_c, 9, 42, 0
1, 112959, Note_on_c, 9, 40, 0
1, 112960, Note_on_c, 9, 38, 110
1, 112960, Note_on_c, 9, 40, 89
1, 112960, Note_on_c, 9, 82, 79
1, 113119, Note_on_c, 9, 38, 0
1, 113119, Note_on_c, 9, 40, 0
1, 113119, Note_on_c, 9, 82, 0
1, 113120, Note_on_c, 9, 42, 79
1, 113125, Note_on_c, 9, 42, 0
1, 113280, Note_on_c, 9, 40, 89
1, 113280, Note_on_c, 9, 82, 79
1, 113439, Note_on_c, 9, 40, 0
1, 113439, Note_on_c, 9, 82, 0
1, 113440, Note_on_c, 9, 42, 79
1, 113445, Note_on_c, 9, 42, 0
1, 113600, Note_on_c, 9, 82, 79
1, 113759, Note_on_c, 9, 82, 0
1, 113760, Note_on_c, 9, 42, 79
1, 113765, Note_on_c, 9, 42, 0
1, 113920, Note_on_c, 9, 38, 110
1, 113920, Note_on_c, 9, 82, 79
1, 113920, Note_on_c, 9, 42, 89
1, 113925, Note_on_c, 9, 42, 0
1, 114079, Note_on_c, 9, 38, 0
1, 114079, Note_on_c, 9, 82, 0
1, 114080, Note_on_c, 9, 42, 79
1, 114085, Note_on_c, 9, 42, 0
1, 114240, Note_on_c, 9, 82, 79
1, 114240, Note_on_c, 9, 42, 100
1, 114244, Note_on_c, 9, 42, 0
1, 114359, Note_on_c, 9, 82, 0
1, 114400, Note_on_c, 9, 42, 79
1, 114400, Note_on_c, 9, 42, 0
1, 114400, Note_on_c, 9, 43, 100
1, 114560, Note_on_c, 9, 82, 79
1, 114599, Note_on_c, 9, 82, 0
1, 114719, Note_on_c, 9, 43, 0
1, 114720, Note_on_c, 9, 42, 79
1, 114720, Note_on_c, 9, 43, 100
1, 114725, Note_on_c, 9, 42, 0
1, 114879, Note_on_c, 9, 43, 0
1, 114880, Note_on_c, 9, 38, 110
1, 114880, Note_on_c, 9, 82, 79
1, 114880, Note_on_c, 9, 43, 111
1, 115039, Note_on_c, 9, 38, 0
1, 115039, Note_on_c, 9, 82, 0
1, 115040, Note_on_c, 9, 42, 79
1, 115045, Note_on_c, 9, 42, 0
1, 115199, Note_on_c, 9, 43, 0
1, 115200, Note_on_c, 9, 82, 79
1, 115200, Note_on_c, 9, 43, 111
1, 115359, Note_on_c, 9, 82, 0
1, 115360, Note_on_c, 9, 45, 111
1, 115360, Note_on_c, 9, 42, 79
1, 115365, Note_on_c, 9, 42, 0
1, 115519, Note_on_c, 9, 45, 0
1, 115520, Note_on_c, 9, 82, 79
1, 115679, Note_on_c, 9, 43, 0
1, 115679, Note_on_c, 9, 82, 0
1, 115680, Note_on_c, 9, 45, 116
1, 115680, Note_on_c, 9, 42, 79
1, 115684, Note_on_c, 9, 42, 0
1, 115799, Note_on_c, 9, 45, 0
1, 115800, Note_on_c, 9, 42, 79
1, 115800, Note_on_c, 9, 42, 0
1, 115845, Note_on_c, 9, 38, 110
1, 115845, Note_on_c, 9, 45, 116
1, 115845, Note_on_c, 9, 82, 79
1, 115859, Note_on_c, 9, 82, 0
1, 115904, Note_on_c, 9, 38, 0
1, 115904, Note_on_c, 9, 45, 0
1, 115995, Note_on_c, 9, 38, 110
1, 115995, Note_on_c, 9, 42, 79
1, 115995, Note_on_c, 9, 42, 0
1, 116054, Note_on_c, 9, 38, 0
1, 116160, Note_on_c, 9, 45, 116
1, 116160, Note_on_c, 9, 46, 79
1, 116165, Note_on_c, 9, 46, 0
1, 116319, Note_on_c, 9, 45, 0
1, 116320, Note_on_c, 9, 42, 79
1, 116320, Note_on_c, 9, 43, 110
1, 116322, Note_on_c, 9, 42, 0
1, 116475, Note_on_c, 9, 82, 79
1, 116519, Note_on_c, 9, 82, 0
1, 116639, Note_on_c, 9, 43, 0
1, 116640, Note_on_c, 9, 42, 79
1, 116645, Note_on_c, 9, 42, 0
1, 116805, Note_on_c, 9, 38, 110
1, 116805, Note_on_c, 9, 82, 79
1, 116819, Note_on_c, 9, 82, 0
1, 116864, Note_on_c, 9, 38, 0
1, 116955, Note_on_c, 9, 42, 79
1, 116955, Note_on_c, 9, 42, 0
1, 117120, Note_on_c, 9, 82, 79
1, 117284, Note_on_c, 9, 82, 0
1, 117285, Note_on_c, 9, 42, 79
1, 117285, Note_on_c, 9, 42, 0
1, 117435, Note_on_c, 9, 82, 79
1, 117479, Note_on_c, 9, 82, 0
1, 117600, Note_on_c, 9, 42, 79
1, 117605, Note_on_c, 9, 42, 0
1, 117760, Note_on_c, 9, 38, 110
1, 117760, Note_on_c, 9, 82, 79
1, 117919, Note_on_c, 9, 38, 0
1, 117919, Note_on_c, 9, 82, 0
1, 117920, Note_on_c, 9, 42, 79
1, 117925, Note_on_c, 9, 42, 0
1, 118080, Note_on_c, 9, 50, 110
1, 118080, Note_on_c, 9, 82, 79
1, 118199, Note_on_c, 9, 50, 0
1, 118244, Note_on_c, 9, 82, 0
1, 118245, Note_on_c, 9, 42, 79
1, 118245, Note_on_c, 9, 42, 0
1, 118395, Note_on_c, 9, 82, 79
1, 118439, Note_on_c, 9, 82, 0
1, 118560, Note_on_c, 9, 42, 79
1, 118565, Note_on_c, 9, 42, 0
1, 118725, Note_on_c, 9, 38, 110
1, 118725, Note_on_c, 9, 82, 79
1, 118739, Note_on_c, 9, 82, 0
1, 118784, Note_on_c, 9, 38, 0
1, 118875, Note_on_c, 9, 42, 79
1, 118875, Note_on_c, 9, 42, 0
1, 119040, Note_on_c, 9, 45, 110
1, 119040, Note_on_c, 9, 82, 79
1, 119159, Note_on_c, 9, 45, 0
1, 119204, Note_on_c, 9, 82, 0
1, 119205, Note_on_c, 9, 42, 79
1, 119205, Note_on_c, 9, 42, 0
1, 119355, Note_on_c, 9, 82, 79
1, 119399, Note_on_c, 9, 82, 0
1, 119520, Note_on_c, 9, 42, 79
1, 119525, Note_on_c, 9, 42, 0
1, 119685, Note_on_c, 9, 38, 110
1, 119685, Note_on_c, 9, 82, 79
1, 119699, Note_on_c, 9, 82, 0
1, 119744, Note_on_c, 9, 38, 0
1, 119835, Note_on_c, 9, 42, 79
1, 119835, Note_on_c, 9, 42, 0
1, 120000, Note_on_c, 9, 82, 79
1, 120000, Note_on_c, 9, 43, 110
1, 120164, Note_on_c, 9, 82, 0
1, 120165, Note_on_c, 9, 42, 79
1, 120165, Note_on_c, 9, 42, 0
1, 120315, Note_on_c, 9, 82, 79
1, 120359, Note_on_c, 9, 82, 0
1, 120479, Note_on_c, 9, 43, 0
1, 120480, Note_on_c, 9, 42, 79
1, 120485, Note_on_c, 9, 42, 0
1, 120640, Note_on_c, 9, 38, 110
1, 120640, Note_on_c, 9, 82, 79
1, 120799, Note_on_c, 9, 38, 0
1, 120799, Note_on_c, 9, 82, 0
1, 120800, Note_on_c, 9, 42, 79
1, 120805, Note_on_c, 9, 42, 0
1, 120960, Note_on_c, 9, 82, 79
1, 121124, Note_on_c, 9, 82, 0
1, 121125, Note_on_c, 9, 42, 79
1, 121125, Note_on_c, 9, 42, 0
1, 121275, Note_on_c, 9, 82, 79
1, 121319, Note_on_c, 9, 82, 0
1, 121440, Note_on_c, 9, 42, 79
1, 121445, Note_on_c, 9, 42, 0
1, 121600, Note_on_c, 9, 38, 110
1, 121600, Note_on_c, 9, 82, 79
1, 121759, Note_on_c, 9, 38, 0
1, 121759, Note_on_c, 9, 82, 0
1, 121760, Note_on_c, 9, 42, 79
1, 121765, Note_on_c, 9, 42, 0
1, 121920, Note_on_c, 9, 50, 110
1, 121920, Note_on_c, 9, 82, 79
1, 122039, Note_on_c, 9, 50, 0
1, 122084, Note_on_c, 9, 82, 0
1, 122085, Note_on_c, 9, 42, 79
1, 122085, Note_on_c, 9, 42, 0
1, 122235, Note_on_c, 9, 82, 79
1, 122279, Note_on_c, 9, 82, 0
1, 122400, Note_on_c, 9, 42, 79
1, 122405, Note_on_c, 9, 42, 0
1, 122565, Note_on_c, 9, 38, 110
1, 122565, Note_on_c, 9, 82, 79
1, 122579, Note_on_c, 9, 82, 0
1, 122624, Note_on_c, 9, 38, 0
1, 122715, Note_on_c, 9, 42, 79
1, 122715, Note_on_c, 9, 42, 0
1, 122880, Note_on_c, 9, 45, 110
1, 122880, Note_on_c, 9, 82, 79
1, 122999, Note_on_c, 9, 45, 0
1, 123044, Note_on_c, 9, 82, 0
1, 123045, Note_on_c, 9, 42, 79
1, 123045, Note_on_c, 9, 42, 0
1, 123195, Note_on_c, 9, 82, 79
1, 123239, Note_on_c, 9, 82, 0
1, 123360, Note_on_c, 9, 42, 79
1, 123365, Note_on_c, 9, 42, 0
1, 123525, Note_on_c, 9, 38, 110
1, 123525, Note_on_c, 9, 82, 79
1, 123539, Note_on_c, 9, 82, 0
1, 123584, Note_on_c, 9, 38, 0
1, 123675, Note_on_c, 9, 42, 79
1, 123675, Note_on_c, 9, 42, 0
1, 123840, Note_on_c, 9, 82, 79
1, 123840, Note_on_c, 9, 43, 110
1, 124004, Note_on_c, 9, 82, 0
1, 124005, Note_on_c, 9, 42, 79
1, 124005, Note_on_c, 9, 42, 0
1, 124155, Note_on_c, 9, 82, 79
1, 124199, Note_on_c, 9, 82, 0
1, 124319, Note_on_c, 9, 43, 0
1, 124320, Note_on_c, 9, 42, 79
1, 124325, Note_on_c, 9, 42, 0
1, 124480, Note_on_c, 9, 38, 110
1, 124480, Note_on_c, 9, 82, 79
1, 124639, Note_on_c, 9, 38, 0
1, 124639, Note_on_c, 9, 82, 0
1, 124640, Note_on_c, 9, 42, 79
1, 124645, Note_on_c, 9, 42, 0
1, 124800, Note_on_c, 9, 82, 79
1, 124964, Note_on_c, 9, 82, 0
1, 124965, Note_on_c, 9, 42, 79
1, 124965, Note_on_c, 9, 42, 0
1, 125115, Note_on_c, 9, 82, 79
1, 125159, Note_on_c, 9, 82, 0
1, 125280, Note_on_c, 9, 42, 79
1, 125285, Note_on_c, 9, 42, 0
1, 125440, Note_on_c, 9, 38, 110
1, 125440, Note_on_c, 9, 82, 79
1, 125599, Note_on_c, 9, 38, 0
1, 125599, Note_on_c, 9, 82, 0
1, 125600, Note_on_c, 9, 42, 79
1, 125605, Note_on_c, 9, 42, 0
1, 125760, Note_on_c, 9, 50, 110
1, 125760, Note_on_c, 9, 82, 79
1, 125879, Note_on_c, 9, 50, 0
1, 125924, Note_on_c, 9, 82, 0
1, 125925, Note_on_c, 9, 42, 79
1, 125925, Note_on_c, 9, 42, 0
1, 126075, Note_on_c, 9, 82, 79
1, 126119, Note_on_c, 9, 82, 0
1, 126240, Note_on_c, 9, 42, 79
1, 126245, Note_on_c, 9, 42, 0
1, 126405, Note_on_c, 9, 38, 110
1, 126405, Note_on_c, 9, 82, 79
1, 126419, Note_on_c, 9, 82, 0
1, 126464, Note_on_c, 9, 38, 0
1, 126555, Note_on_c, 9, 42, 79
1, 126555, Note_on_c, 9, 42, 0
1, 126720, Note_on_c, 9, 45, 110
1, 126720, Note_on_c, 9, 82, 79
1, 126839, Note_on_c, 9, 45, 0
1, 126884, Note_on_c, 9, 82, 0
1, 126885, Note_on_c, 9, 42, 79
1, 126885, Note_on_c, 9, 42, 0
1, 127035, Note_on_c, 9, 82, 79
1, 127079, Note_on_c, 9, 82, 0
1, 127200, Note_on_c, 9, 42, 79
1, 127205, Note_on_c, 9, 42, 0
1, 127365, Note_on_c, 9, 38, 110
1, 127365, Note_on_c, 9, 82, 79
1, 127379, Note_on_c, 9, 82, 0
1, 127424, Note_on_c, 9, 38, 0
1, 127515, Note_on_c, 9, 42, 79
1, 127515, Note_on_c, 9, 42, 0
1, 127680, Note_on_c, 9, 82, 79
1, 127680, Note_on_c, 9, 43, 110
1, 127844, Note_on_c, 9, 82, 0
1, 127845, Note_on_c, 9, 42, 79
1, 127845, Note_on_c, 9, 42, 0
1, 127995, Note_on_c, 9, 82, 79
1, 128039, Note_on_c, 9, 82, 0
1, 128159, Note_on_c, 9, 43, 0
1, 128160, Note_on_c, 9, 42, 79
1, 128165, Note_on_c, 9, 42, 0
1, 128320, Note_on_c, 9, 38, 110
1, 128320, Note_on_c, 9, 82, 79
1, 128479, Note_on_c, 9, 38, 0
1, 128479, Note_on_c, 9, 82, 0
1, 128480, Note_on_c, 9, 42, 79
1, 128485, Note_on_c, 9, 42, 0
1, 128640, Note_on_c, 9, 82, 79
1, 128804, Note_on_c, 9, 82, 0
1, 128805, Note_on_c, 9, 42, 79
1, 128805, Note_on_c, 9, 42, 0
1, 128955, Note_on_c, 9, 82, 79
1, 128999, Note_on_c, 9, 82, 0
1, 129120, Note_on_c, 9, 42, 79
1, 129125, Note_on_c, 9, 42, 0
1, 129280, Note_on_c, 9, 38, 110
1, 129280, Note_on_c, 9, 82, 79
1, 129439, Note_on_c, 9, 38, 0
1, 129439, Note_on_c, 9, 82, 0
1, 129440, Note_on_c, 9, 42, 79
1, 129445, Note_on_c, 9, 42, 0
1, 129600, Note_on_c, 9, 50, 110
1, 129600, Note_on_c, 9, 82, 79
1, 129719, Note_on_c, 9, 50, 0
1, 129764, Note_on_c, 9, 82, 0
1, 129765, Note_on_c, 9, 42, 79
1, 129765, Note_on_c, 9, 42, 0
1, 129915, Note_on_c, 9, 82, 79
1, 129959, Note_on_c, 9, 82, 0
1, 130080, Note_on_c, 9, 42, 79
1, 130085, Note_on_c, 9, 42, 0
1, 130245, Note_on_c, 9, 38, 110
1, 130245, Note_on_c, 9, 82, 79
1, 130259, Note_on_c, 9, 82, 0
1, 130304, Note_on_c, 9, 38, 0
1, 130395, Note_on_c, 9, 42, 79
1, 130395, Note_on_c, 9, 42, 0
1, 130560, Note_on_c, 9, 45, 110
1, 130560, Note_on_c, 9, 82, 79
1, 130679, Note_on_c, 9, 45, 0
1, 130724, Note_on_c, 9, 82, 0
1, 130725, Note_on_c, 9, 42, 79
1, 130725, Note_on_c, 9, 42, 0
1, 130875, Note_on_c, 9, 82, 79
1, 130919, Note_on_c, 9, 82, 0
1, 131040, Note_on_c, 9, 42, 79
1, 131045, Note_on_c, 9, 42, 0
1, 131205, Note_on_c, 9, 38, 110
1, 131205, Note_on_c, 9, 82, 79
1, 131219, Note_on_c, 9, 82, 0
1, 131264, Note_on_c, 9, 38, 0
1, 131355, Note_on_c, 9, 42, 79
1, 131355, Note_on_c, 9, 42, 0
1, 131520, Note_on_c, 9, 47, 110
1, 131520, Note_on_c, 9, 82, 79
1, 131639, Note_on_c, 9, 47, 0
1, 131684, Note_on_c, 9, 82, 0
1, 131685, Note_on_c, 9, 42, 79
1, 131685, Note_on_c, 9, 42, 0
1, 131835, Note_on_c, 9, 82, 79
1, 131879, Note_on_c, 9, 82, 0
1, 132000, Note_on_c, 9, 42, 79
1, 132005, Note_on_c, 9, 42, 0
1, 132165, Note_on_c, 9, 38, 110
1, 132165, Note_on_c, 9, 82, 79
1, 132179, Note_on_c, 9, 82, 0
1, 132224, Note_on_c, 9, 38, 0
1, 132315, Note_on_c, 9, 42, 79
1, 132315, Note_on_c, 9, 42, 0
1, 132480, Note_on_c, 9, 82, 79
1, 132644, Note_on_c, 9, 82, 0
1, 132645, Note_on_c, 9, 42, 79
1, 132645, Note_on_c, 9, 42, 0
1, 132795, Note_on_c, 9, 82, 79
1, 132839, Note_on_c, 9, 82, 0
1, 132960, Note_on_c, 9, 42, 79
1, 132965, Note_on_c, 9, 42, 0
1, 133120, Note_on_c, 9, 38, 110
1, 133120, Note_on_c, 9, 82, 79
1, 133279, Note_on_c, 9, 38, 0
1, 133279, Note_on_c, 9, 82, 0
1, 133280, Note_on_c, 9, 42, 79
1, 133285, Note_on_c, 9, 42, 0
1, 133440, Note_on_c, 9, 82, 79
1, 133604, Note_on_c, 9, 82, 0
1, 133605, Note_on_c, 9, 48, 110
1, 133605, Note_on_c, 9, 42, 79
1, 133605, Note_on_c, 9, 42, 0
1, 133619, Note_on_c, 9, 48, 0
1, 133620, Note_on_c, 9, 48, 110
1, 133664, Note_on_c, 9, 48, 0
1, 133755, Note_on_c, 9, 82, 79
1, 133799, Note_on_c, 9, 82, 0
1, 133920, Note_on_c, 9, 42, 79
1, 133925, Note_on_c, 9, 42, 0
1, 134085, Note_on_c, 9, 38, 110
1, 134085, Note_on_c, 9, 82, 79
1, 134099, Note_on_c, 9, 82, 0
1, 134144, Note_on_c, 9, 38, 0
1, 134235, Note_on_c, 9, 42, 79
1, 134235, Note_on_c, 9, 42, 0
1, 134400, Note_on_c, 9, 82, 79
1, 134564, Note_on_c, 9, 82, 0
1, 134565, Note_on_c, 9, 42, 79
1, 134565, Note_on_c, 9, 42, 0
1, 134715, Note_on_c, 9, 82, 79
1, 134759, Note_on_c, 9, 82, 0
1, 134880, Note_on_c, 9, 42, 79
1, 134885, Note_on_c, 9, 42, 0
1, 135040, Note_on_c, 9, 38, 110
1, 135040, Note_on_c, 9, 82, 79
1, 135199, Note_on_c, 9, 38, 0
1, 135199, Note_on_c, 9, 82, 0
1, 135200, Note_on_c, 9, 42, 79
1, 135205, Note_on_c, 9, 42, 0
1, 135360, Note_on_c, 9, 82, 79
1, 135524, Note_on_c, 9, 82, 0
1, 135525, Note_on_c, 9, 47, 110
1, 135525, Note_on_c, 9, 42, 79
1, 135525, Note_on_c, 9, 42, 0
1, 135539, Note_on_c, 9, 47, 0
1, 135540, Note_on_c, 9, 47, 110
1, 135584, Note_on_c, 9, 47, 0
1, 135675, Note_on_c, 9, 82, 79
1, 135719, Note_on_c, 9, 82, 0
1, 135840, Note_on_c, 9, 42, 79
1, 135845, Note_on_c, 9, 42, 0
1, 136005, Note_on_c, 9, 38, 110
1, 136005, Note_on_c, 9, 82, 79
1, 136019, Note_on_c, 9, 82, 0
1, 136064, Note_on_c, 9, 38, 0
1, 136155, Note_on_c, 9, 42, 79
1, 136155, Note_on_c, 9, 42, 0
1, 136320, Note_on_c, 9, 82, 79
1, 136484, Note_on_c, 9, 82, 0
1, 136485, Note_on_c, 9, 42, 79
1, 136485, Note_on_c, 9, 42, 0
1, 136635, Note_on_c, 9, 82, 79
1, 136679, Note_on_c, 9, 82, 0
1, 136800, Note_on_c, 9, 42, 79
1, 136805, Note_on_c, 9, 42, 0
1, 136960, Note_on_c, 9, 38, 110
1, 136960, Note_on_c, 9, 82, 79
1, 137119, Note_on_c, 9, 38, 0
1, 137119, Note_on_c, 9, 82, 0
1, 137120, Note_on_c, 9, 42, 79
1, 137125, Note_on_c, 9, 42, 0
1, 137280, Note_on_c, 9, 82, 79
1, 137444, Note_on_c, 9, 82, 0
1, 137445, Note_on_c, 9, 48, 110
1, 137445, Note_on_c, 9, 42, 79
1, 137445, Note_on_c, 9, 42, 0
1, 137459, Note_on_c, 9, 48, 0
1, 137460, Note_on_c, 9, 48, 110
1, 137504, Note_on_c, 9, 48, 0
1, 137595, Note_on_c, 9, 82, 79
1, 137639, Note_on_c, 9, 82, 0
1, 137760, Note_on_c, 9, 42, 79
1, 137765, Note_on_c, 9, 42, 0
1, 137925, Note_on_c, 9, 38, 110
1, 137925, Note_on_c, 9, 82, 79
1, 137939, Note_on_c, 9, 82, 0
1, 137984, Note_on_c, 9, 38, 0
1, 138075, Note_on_c, 9, 42, 79
1, 138075, Note_on_c, 9, 42, 0
1, 138240, Note_on_c, 9, 82, 79
1, 138359, Note_on_c, 9, 82, 0
1, 138400, Note_on_c, 9, 42, 79
1, 138400, Note_on_c, 9, 42, 0
1, 138560, Note_on_c, 9, 82, 79
1, 138599, Note_on_c, 9, 82, 0
1, 138720, Note_on_c, 9, 42, 79
1, 138725, Note_on_c, 9, 42, 0
1, 138880, Note_on_c, 9, 38, 110
1, 138880, Note_on_c, 9, 82, 79
1, 139039, Note_on_c, 9, 38, 0
1, 139039, Note_on_c, 9, 82, 0
1, 139040, Note_on_c, 9, 42, 79
1, 139045, Note_on_c, 9, 42, 0
1, 139200, Note_on_c, 9, 82, 79
1, 139319, Note_on_c, 9, 82, 0
1, 139360, Note_on_c, 9, 42, 79
1, 139360, Note_on_c, 9, 42, 0
1, 139360, Note_on_c, 9, 43, 110
1, 139520, Note_on_c, 9, 82, 79
1, 139559, Note_on_c, 9, 82, 0
1, 139679, Note_on_c, 9, 43, 0
1, 139680, Note_on_c, 9, 42, 79
1, 139685, Note_on_c, 9, 42, 0
1, 139840, Note_on_c, 9, 38, 110
1, 139840, Note_on_c, 9, 82, 79
1, 139999, Note_on_c, 9, 38, 0
1, 139999, Note_on_c, 9, 82, 0
1, 140000, Note_on_c, 9, 42, 79
1, 140005, Note_on_c, 9, 42, 0
1, 140160, Note_on_c, 9, 82, 79
1, 140324, Note_on_c, 9, 82, 0
1, 140325, Note_on_c, 9, 42, 79
1, 140325, Note_on_c, 9, 42, 0
1, 140475, Note_on_c, 9, 82, 79
1, 140519, Note_on_c, 9, 82, 0
1, 140640, Note_on_c, 9, 42, 79
1, 140645, Note_on_c, 9, 42, 0
1, 140800, Note_on_c, 9, 38, 110
1, 140800, Note_on_c, 9, 82, 79
1, 140959, Note_on_c, 9, 38, 0
1, 140959, Note_on_c, 9, 82, 0
1, 140960, Note_on_c, 9, 42, 79
1, 140965, Note_on_c, 9, 42, 0
1, 141120, Note_on_c, 9, 82, 79
1, 141284, Note_on_c, 9, 82, 0
1, 141285, Note_on_c, 9, 45, 110
1, 141285, Note_on_c, 9, 42, 79
1, 141285, Note_on_c, 9, 42, 0
1, 141299, Note_on_c, 9, 45, 0
1, 141300, Note_on_c, 9, 45, 110
1, 141344, Note_on_c, 9, 45, 0
1, 141435, Note_on_c, 9, 38, 124
1, 141435, Note_on_c, 9, 82, 79
1, 141479, Note_on_c, 9, 82, 0
1, 141494, Note_on_c, 9, 38, 0
1, 141600, Note_on_c, 9, 42, 79
1, 141605, Note_on_c, 9, 42, 0
1, 141765, Note_on_c, 9, 38, 110
1, 141765, Note_on_c, 9, 82, 79
1, 141779, Note_on_c, 9, 82, 0
1, 141824, Note_on_c, 9, 38, 0
1, 141915, Note_on_c, 9, 42, 79
1, 141915, Note_on_c, 9, 42, 0
1, 142080, Note_on_c, 9, 38, 121
1, 142080, Note_on_c, 9, 82, 79
1, 142199, Note_on_c, 9, 38, 0
1, 142244, Note_on_c, 9, 82, 0
1, 142245, Note_on_c, 9, 42, 79
1, 142245, Note_on_c, 9, 42, 0
1, 142395, Note_on_c, 9, 82, 79
1, 142439, Note_on_c, 9, 82, 0
1, 142440, Note_on_c, 9, 38, 121
1, 142559, Note_on_c, 9, 38, 0
1, 142560, Note_on_c, 9, 42, 79
1, 142565, Note_on_c, 9, 42, 0
1, 142720, Note_on_c, 9, 38, 110
1, 142720, Note_on_c, 9, 82, 79
1, 142879, Note_on_c, 9, 38, 0
1, 142879, Note_on_c, 9, 82, 0
1, 142880, Note_on_c, 9, 38, 127
1, 142880, Note_on_c, 9, 42, 79
1, 142885, Note_on_c, 9, 42, 0
1, 143039, Note_on_c, 9, 38, 0
1, 143040, Note_on_c, 9, 38, 127
1, 143040, Note_on_c, 9, 82, 79
1, 143040, Note_on_c, 9, 49, 79
1, 143045, Note_on_c, 9, 49, 0
1, 143199, Note_on_c, 9, 38, 0
1, 143199, Note_on_c, 9, 82, 0
1, 143200, Note_on_c, 9, 38, 89
1, 143200, Note_on_c, 9, 42, 79
1, 143205, Note_on_c, 9, 42, 0
1, 143359, Note_on_c, 9, 38, 0
1, 143360, Note_on_c, 9, 82, 79
1, 143519, Note_on_c, 9, 82, 0
1, 143520, Note_on_c, 9, 38, 89
1, 143520, Note_on_c, 9, 42, 79
1, 143525, Note_on_c, 9, 42, 0
1, 143679, Note_on_c, 9, 38, 0
1, 143680, Note_on_c, 9, 38, 110
1, 143680, Note_on_c, 9, 82, 79
1, 143839, Note_on_c, 9, 38, 0
1, 143839, Note_on_c, 9, 82, 0
1, 143840, Note_on_c, 9, 42, 79
1, 143845, Note_on_c, 9, 42, 0
1, 144000, Note_on_c, 9, 38, 89
1, 144000, Note_on_c, 9, 82, 79
1, 144159, Note_on_c, 9, 38, 0
1, 144159, Note_on_c, 9, 82, 0
1, 144160, Note_on_c, 9, 38, 89
1, 144160, Note_on_c, 9, 42, 79
1, 144165, Note_on_c, 9, 42, 0
1, 144319, Note_on_c, 9, 38, 0
1, 144320, Note_on_c, 9, 82, 79
1, 144479, Note_on_c, 9, 82, 0
1, 144480, Note_on_c, 9, 38, 89
1, 144480, Note_on_c, 9, 42, 79
1, 144485, Note_on_c, 9, 42, 0
1, 144639, Note_on_c, 9, 38, 0
1, 144640, Note_on_c, 9, 38, 110
1, 144640, Note_on_c, 9, 82, 79
1, 144799, Note_on_c, 9, 38, 0
1, 144799, Note_on_c, 9, 82, 0
1, 144800, Note_on_c, 9, 42, 79
1, 144805, Note_on_c, 9, 42, 0
1, 144960, Note_on_c, 9, 38, 89
1, 144960, Note_on_c, 9, 82, 79
1, 145119, Note_on_c, 9, 38, 0
1, 145119, Note_on_c, 9, 82, 0
1, 145120, Note_on_c, 9, 38, 89
1, 145120, Note_on_c, 9, 42, 79
1, 145125, Note_on_c, 9, 42, 0
1, 145279, Note_on_c, 9, 38, 0
1, 145280, Note_on_c, 9, 82, 79
1, 145439, Note_on_c, 9, 82, 0
1, 145440, Note_on_c, 9, 38, 89
1, 145440, Note_on_c, 9, 42, 79
1, 145444, Note_on_c, 9, 42, 0
1, 145559, Note_on_c, 9, 38, 0
1, 145600, Note_on_c, 9, 38, 110
1, 145600, Note_on_c, 9, 82, 79
1, 145619, Note_on_c, 9, 38, 0
1, 145619, Note_on_c, 9, 82, 0
1, 145760, Note_on_c, 9, 42, 79
1, 145760, Note_on_c, 9, 42, 0
1, 145920, Note_on_c, 9, 38, 89
1, 145920, Note_on_c, 9, 82, 79
1, 146079, Note_on_c, 9, 38, 0
1, 146079, Note_on_c, 9, 82, 0
1, 146080, Note_on_c, 9, 38, 89
1, 146080, Note_on_c, 9, 42, 79
1, 146085, Note_on_c, 9, 42, 0
1, 146239, Note_on_c, 9, 38, 0
1, 146240, Note_on_c, 9, 82, 79
1, 146399, Note_on_c, 9, 82, 0
1, 146400, Note_on_c, 9, 38, 89
1, 146400, Note_on_c, 9, 42, 79
1, 146405, Note_on_c, 9, 42, 0
1, 146559, Note_on_c, 9, 38, 0
1, 146560, Note_on_c, 9, 38, 110
1, 146560, Note_on_c, 9, 82, 79
1, 146719, Note_on_c, 9, 38, 0
1, 146719, Note_on_c, 9, 82, 0
1, 146720, Note_on_c, 9, 42, 79
1, 146725, Note_on_c, 9, 42, 0
1, 146880, Note_on_c, 9, 38, 89
1, 146880, Note_on_c, 9, 82, 79
1, 147039, Note_on_c, 9, 38, 0
1, 147039, Note_on_c, 9, 82, 0
1, 147040, Note_on_c, 9, 38, 89
1, 147040, Note_on_c, 9, 42, 79
1, 147045, Note_on_c, 9, 42, 0
1, 147199, Note_on_c, 9, 38, 0
1, 147200, Note_on_c, 9, 82, 79
1, 147359, Note_on_c, 9, 82, 0
1, 147360, Note_on_c, 9, 38, 89
1, 147360, Note_on_c, 9, 42, 79
1, 147364, Note_on_c, 9, 42, 0
1, 147479, Note_on_c, 9, 38, 0
1, 147520, Note_on_c, 9, 38, 110
1, 147520, Note_on_c, 9, 82, 79
1, 147539, Note_on_c, 9, 38, 0
1, 147539, Note_on_c, 9, 82, 0
1, 147680, Note_on_c, 9, 42, 79
1, 147680, Note_on_c, 9, 42, 0
1, 147840, Note_on_c, 9, 38, 89
1, 147840, Note_on_c, 9, 82, 79
1, 147999, Note_on_c, 9, 38, 0
1, 147999, Note_on_c, 9, 82, 0
1, 148000, Note_on_c, 9, 38, 89
1, 148000, Note_on_c, 9, 42, 79
1, 148005, Note_on_c, 9, 42, 0
1, 148159, Note_on_c, 9, 38, 0
1, 148160, Note_on_c, 9, 82, 79
1, 148319, Note_on_c, 9, 82, 0
1, 148320, Note_on_c, 9, 38, 89
1, 148320, Note_on_c, 9, 42, 79
1, 148324, Note_on_c, 9, 42, 0
1, 148439, Note_on_c, 9, 38, 0
1, 148480, Note_on_c, 9, 38, 110
1, 148480, Note_on_c, 9, 82, 79
1, 148499, Note_on_c, 9, 38, 0
1, 148499, Note_on_c, 9, 82, 0
1, 148640, Note_on_c, 9, 42, 79
1, 148640, Note_on_c, 9, 42, 0
1, 148800, Note_on_c, 9, 38, 89
1, 148800, Note_on_c, 9, 82, 79
1, 148959, Note_on_c, 9, 38, 0
1, 148959, Note_on_c, 9, 82, 0
1, 148960, Note_on_c, 9, 38, 89
1, 148960, Note_on_c, 9, 42, 79
1, 148965, Note_on_c, 9, 42, 0
1, 149119, Note_on_c, 9, 38, 0
1, 149120, Note_on_c, 9, 82, 79
1, 149279, Note_on_c, 9, 82, 0
1, 149280, Note_on_c, 9, 38, 89
1, 149280, Note_on_c, 9, 42, 79
1, 149284, Note_on_c, 9, 42, 0
1, 149399, Note_on_c, 9, 38, 0
1, 149440, Note_on_c, 9, 38, 110
1, 149440, Note_on_c, 9, 82, 79
1, 149459, Note_on_c, 9, 38, 0
1, 149459, Note_on_c, 9, 82, 0
1, 149600, Note_on_c, 9, 42, 79
1, 149600, Note_on_c, 9, 42, 0
1, 149760, Note_on_c, 9, 38, 89
1, 149760, Note_on_c, 9, 82, 79
1, 149919, Note_on_c, 9, 38, 0
1, 149919, Note_on_c, 9, 82, 0
1, 149920, Note_on_c, 9, 38, 89
1, 149920, Note_on_c, 9, 42, 79
1, 149925, Note_on_c, 9, 42, 0
1, 150079, Note_on_c, 9, 38, 0
1, 150080, Note_on_c, 9, 82, 79
1, 150239, Note_on_c, 9, 82, 0
1, 150240, Note_on_c, 9, 38, 89
1, 150240, Note_on_c, 9, 42, 79
1, 150245, Note_on_c, 9, 42, 0
1, 150399, Note_on_c, 9, 38, 0
1, 150400, Note_on_c, 9, 38, 110
1, 150400, Note_on_c, 9, 82, 79
1, 150559, Note_on_c, 9, 38, 0
1, 150559, Note_on_c, 9, 82, 0
1, 150560, Note_on_c, 9, 42, 79
1, 150565, Note_on_c, 9, 42, 0
1, 150720, Note_on_c, 9, 38, 89
1, 150720, Note_on_c, 9, 82, 79
1, 150879, Note_on_c, 9, 38, 0
1, 150879, Note_on_c, 9, 82, 0
1, 150880, Note_on_c, 9, 38, 89
1, 150880, Note_on_c, 9, 42, 79
1, 150885, Note_on_c, 9, 42, 0
1, 151039, Note_on_c, 9, 38, 0
1, 151040, Note_on_c, 9, 82, 79
1, 151199, Note_on_c, 9, 82, 0
1, 151200, Note_on_c, 9, 38, 89
1, 151200, Note_on_c, 9, 42, 79
1, 151204, Note_on_c, 9, 42, 0
1, 151319, Note_on_c, 9, 38, 0
1, 151360, Note_on_c, 9, 38, 110
1, 151360, Note_on_c, 9, 82, 79
1, 151379, Note_on_c, 9, 38, 0
1, 151379, Note_on_c, 9, 82, 0
1, 151520, Note_on_c, 9, 42, 79
1, 151520, Note_on_c, 9, 42, 0
1, 151680, Note_on_c, 9, 38, 89
1, 151680, Note_on_c, 9, 82, 79
1, 151839, Note_on_c, 9, 38, 0
1, 151839, Note_on_c, 9, 82, 0
1, 151840, Note_on_c, 9, 38, 89
1, 151840, Note_on_c, 9, 42, 79
1, 151845, Note_on_c, 9, 42, 0
1, 151999, Note_on_c, 9, 38, 0
1, 152000, Note_on_c, 9, 82, 79
1, 152159, Note_on_c, 9, 82, 0
1, 152160, Note_on_c, 9, 38, 89
1, 152160, Note_on_c, 9, 42, 79
1, 152165, Note_on_c, 9, 42, 0
1, 152319, Note_on_c, 9, 38, 0
1, 152320, Note_on_c, 9, 38, 110
1, 152320, Note_on_c, 9, 82, 79
1, 152479, Note_on_c, 9, 38, 0
1, 152479, Note_on_c, 9, 82, 0
1, 152480, Note_on_c, 9, 42, 79
1, 152485, Note_on_c, 9, 42, 0
1, 152640, Note_on_c, 9, 38, 89
1, 152640, Note_on_c, 9, 82, 79
1, 152799, Note_on_c, 9, 38, 0
1, 152799, Note_on_c, 9, 82, 0
1, 152800, Note_on_c, 9, 38, 89
1, 152800, Note_on_c, 9, 42, 79
1, 152805, Note_on_c, 9, 42, 0
1, 152959, Note_on_c, 9, 38, 0
1, 152960, Note_on_c, 9, 82, 79
1, 153119, Note_on_c, 9, 82, 0
1, 153120, Note_on_c, 9, 38, 89
1, 153120, Note_on_c, 9, 42, 79
1, 153124, Note_on_c, 9, 42, 0
1, 153239, Note_on_c, 9, 38, 0
1, 153280, Note_on_c, 9, 38, 110
1, 153280, Note_on_c, 9, 82, 79
1, 153299, Note_on_c, 9, 38, 0
1, 153299, Note_on_c, 9, 82, 0
1, 153440, Note_on_c, 9, 42, 79
1, 153440, Note_on_c, 9, 42, 0
1, 153600, Note_on_c, 9, 38, 89
1, 153600, Note_on_c, 9, 82, 79
1, 153759, Note_on_c, 9, 38, 0
1, 153759, Note_on_c, 9, 82, 0
1, 153760, Note_on_c, 9, 38, 89
1, 153760, Note_on_c, 9, 42, 79
1, 153765, Note_on_c, 9, 42, 0
1, 153919, Note_on_c, 9, 38, 0
1, 153920, Note_on_c, 9, 82, 79
1, 154079, Note_on_c, 9, 82, 0
1, 154080, Note_on_c, 9, 38, 89
1, 154080, Note_on_c, 9, 42, 79
1, 154085, Note_on_c, 9, 42, 0
1, 154239, Note_on_c, 9, 38, 0
1, 154240, Note_on_c, 9, 38, 110
1, 154240, Note_on_c, 9, 82, 79
1, 154399, Note_on_c, 9, 38, 0
1, 154399, Note_on_c, 9, 82, 0
1, 154400, Note_on_c, 9, 42, 79
1, 154405, Note_on_c, 9, 42, 0
1, 154560, Note_on_c, 9, 38, 89
1, 154560, Note_on_c, 9, 82, 79
1, 154719, Note_on_c, 9, 38, 0
1, 154719, Note_on_c, 9, 82, 0
1, 154720, Note_on_c, 9, 38, 89
1, 154720, Note_on_c, 9, 42, 79
1, 154725, Note_on_c, 9, 42, 0
1, 154879, Note_on_c, 9, 38, 0
1, 154880, Note_on_c, 9, 82, 79
1, 155039, Note_on_c, 9, 82, 0
1, 155040, Note_on_c, 9, 38, 89
1, 155040, Note_on_c, 9, 42, 79
1, 155044, Note_on_c, 9, 42, 0
1, 155159, Note_on_c, 9, 38, 0
1, 155200, Note_on_c, 9, 38, 110
1, 155200, Note_on_c, 9, 82, 79
1, 155219, Note_on_c, 9, 38, 0
1, 155219, Note_on_c, 9, 82, 0
1, 155360, Note_on_c, 9, 42, 79
1, 155360, Note_on_c, 9, 42, 0
1, 155520, Note_on_c, 9, 38, 89
1, 155520, Note_on_c, 9, 82, 79
1, 155679, Note_on_c, 9, 38, 0
1, 155679, Note_on_c, 9, 82, 0
1, 155680, Note_on_c, 9, 38, 89
1, 155680, Note_on_c, 9, 42, 79
1, 155685, Note_on_c, 9, 42, 0
1, 155839, Note_on_c, 9, 38, 0
1, 155840, Note_on_c, 9, 82, 79
1, 155999, Note_on_c, 9, 82, 0
1, 156000, Note_on_c, 9, 38, 89
1, 156000, Note_on_c, 9, 42, 79
1, 156004, Note_on_c, 9, 42, 0
1, 156119, Note_on_c, 9, 38, 0
1, 156160, Note_on_c, 9, 38, 110
1, 156160, Note_on_c, 9, 82, 79
1, 156179, Note_on_c, 9, 38, 0
1, 156179, Note_on_c, 9, 82, 0
1, 156320, Note_on_c, 9, 42, 79
1, 156320, Note_on_c, 9, 42, 0
1, 156480, Note_on_c, 9, 38, 89
1, 156480, Note_on_c, 9, 82, 79
1, 156639, Note_on_c, 9, 38, 0
1, 156639, Note_on_c, 9, 82, 0
1, 156640, Note_on_c, 9, 38, 89
1, 156640, Note_on_c, 9, 42, 79
1, 156645, Note_on_c, 9, 42, 0
1, 156799, Note_on_c, 9, 38, 0
1, 156800, Note_on_c, 9, 82, 79
1, 156959, Note_on_c, 9, 82, 0
1, 156960, Note_on_c, 9, 38, 89
1, 156960, Note_on_c, 9, 42, 79
1, 156964, Note_on_c, 9, 42, 0
1, 157079, Note_on_c, 9, 38, 0
1, 157120, Note_on_c, 9, 38, 110
1, 157120, Note_on_c, 9, 82, 79
1, 157139, Note_on_c, 9, 38, 0
1, 157139, Note_on_c, 9, 82, 0
1, 157280, Note_on_c, 9, 42, 79
1, 157280, Note_on_c, 9, 42, 0
1, 157440, Note_on_c, 9, 38, 89
1, 157440, Note_on_c, 9, 82, 79
1, 157599, Note_on_c, 9, 38, 0
1, 157599, Note_on_c, 9, 82, 0
1, 157600, Note_on_c, 9, 38, 89
1, 157600, Note_on_c, 9, 42, 79
1, 157605, Note_on_c, 9, 42, 0
1, 157759, Note_on_c, 9, 38, 0
1, 157760, Note_on_c, 9, 82, 79
1, 157919, Note_on_c, 9, 82, 0
1, 157920, Note_on_c, 9, 38, 89
1, 157920, Note_on_c, 9, 42, 79
1, 157925, Note_on_c, 9, 42, 0
1, 158079, Note_on_c, 9, 38, 0
1, 158080, Note_on_c, 9, 38, 110
1, 158080, Note_on_c, 9, 82, 79
1, 158239, Note_on_c, 9, 38, 0
1, 158239, Note_on_c, 9, 82, 0
1, 158240, Note_on_c, 9, 42, 79
1, 158245, Note_on_c, 9, 42, 0
1, 158400, Note_on_c, 9, 38, 89
1, 158400, Note_on_c, 9, 82, 79
1, 158559, Note_on_c, 9, 38, 0
1, 158559, Note_on_c, 9, 82, 0
1, 158560, Note_on_c, 9, 40, 89
1, 158560, Note_on_c, 9, 42, 79
1, 158565, Note_on_c, 9, 42, 0
1, 158719, Note_on_c, 9, 40, 0
1, 158720, Note_on_c, 9, 82, 79
1, 158879, Note_on_c, 9, 82, 0
1, 158880, Note_on_c, 9, 40, 89
1, 158880, Note_on_c, 9, 42, 79
1, 158885, Note_on_c, 9, 42, 0
1, 159039, Note_on_c, 9, 40, 0
1, 159040, Note_on_c, 9, 38, 110
1, 159040, Note_on_c, 9, 40, 89
1, 159040, Note_on_c, 9, 82, 79
1, 159199, Note_on_c, 9, 38, 0
1, 159199, Note_on_c, 9, 40, 0
1, 159199, Note_on_c, 9, 82, 0
1, 159200, Note_on_c, 9, 42, 79
1, 159205, Note_on_c, 9, 42, 0
1, 159360, Note_on_c, 9, 40, 89
1, 159360, Note_on_c, 9, 82, 79
1, 159519, Note_on_c, 9, 40, 0
1, 159519, Note_on_c, 9, 82, 0
1, 159520, Note_on_c, 9, 40, 89
1, 159520, Note_on_c, 9, 42, 79
1, 159525, Note_on_c, 9, 42, 0
1, 159679, Note_on_c, 9, 40, 0
1, 159680, Note_on_c, 9, 82, 79
1, 159839, Note_on_c, 9, 82, 0
1, 159840, Note_on_c, 9, 40, 89
1, 159840, Note_on_c, 9, 42, 79
1, 159845, Note_on_c, 9, 42, 0
1, 159959, Note_on_c, 9, 40, 0
1, 160005, Note_on_c, 9, 38, 110
1, 160005, Note_on_c, 9, 40, 89
1, 160005, Note_on_c, 9, 82, 79
1, 160019, Note_on_c, 9, 82, 0
1, 160064, Note_on_c, 9, 38, 0
1, 160064, Note_on_c, 9, 40, 0
1, 160155, Note_on_c, 9, 42, 79
1, 160155, Note_on_c, 9, 42, 0
1, 160320, Note_on_c, 9, 40, 89
1, 160320, Note_on_c, 9, 82, 79
1, 160479, Note_on_c, 9, 40, 0
1, 160479, Note_on_c, 9, 82, 0
1, 160480, Note_on_c, 9, 42, 79
1, 160482, Note_on_c, 9, 42, 0
1, 160635, Note_on_c, 9, 82, 79
1, 160679, Note_on_c, 9, 82, 0
1, 160800, Note_on_c, 9, 42, 79
1, 160805, Note_on_c, 9, 42, 0
1, 160965, Note_on_c, 9, 38, 110
1, 160965, Note_on_c, 9, 82, 79
1, 160965, Note_on_c, 9, 42, 89
1, 160965, Note_on_c, 9, 42, 0
1, 160979, Note_on_c, 9, 82, 0
1, 161024, Note_on_c, 9, 38, 0
1, 161115, Note_on_c, 9, 42, 79
1, 161115, Note_on_c, 9, 42, 0
1, 161280, Note_on_c, 9, 82, 79
1, 161280, Note_on_c, 9, 42, 89
1, 161284, Note_on_c, 9, 42, 0
1, 161399, Note_on_c, 9, 82, 0
1, 161440, Note_on_c, 9, 42, 79
1, 161440, Note_on_c, 9, 42, 0
1, 161600, Note_on_c, 9, 82, 79
1, 161639, Note_on_c, 9, 82, 0
1, 161760, Note_on_c, 9, 42, 79
1, 161765, Note_on_c, 9, 42, 0
1, 161920, Note_on_c, 9, 38, 110
1, 161920, Note_on_c, 9, 82, 79
1, 161920, Note_on_c, 9, 42, 89
1, 161925, Note_on_c, 9, 42, 0
1, 162079, Note_on_c, 9, 38, 0
1, 162079, Note_on_c, 9, 82, 0
1, 162080, Note_on_c, 9, 42, 79
1, 162085, Note_on_c, 9, 42, 0
1, 162240, Note_on_c, 9, 82, 79
1, 162240, Note_on_c, 9, 42, 89
1, 162244, Note_on_c, 9, 42, 0
1, 162359, Note_on_c, 9, 82, 0
1, 162400, Note_on_c, 9, 42, 79
1, 162400, Note_on_c, 9, 42, 0
1, 162400, Note_on_c, 9, 43, 89
1, 162560, Note_on_c, 9, 82, 79
1, 162599, Note_on_c, 9, 82, 0
1, 162719, Note_on_c, 9, 43, 0
1, 162720, Note_on_c, 9, 42, 79
1, 162720, Note_on_c, 9, 43, 89
1, 162725, Note_on_c, 9, 42, 0
1, 162879, Note_on_c, 9, 43, 0
1, 162880, Note_on_c, 9, 38, 110
1, 162880, Note_on_c, 9, 82, 79
1, 162880, Note_on_c, 9, 43, 89
1, 163039, Note_on_c, 9, 38, 0
1, 163039, Note_on_c, 9, 82, 0
1, 163040, Note_on_c, 9, 42, 79
1, 163045, Note_on_c, 9, 42, 0
1, 163199, Note_on_c, 9, 43, 0
1, 163200, Note_on_c, 9, 82, 79
1, 163200, Note_on_c, 9, 43, 89
1, 163319, Note_on_c, 9, 82, 0
1, 163359, Note_on_c, 9, 43, 0
1, 163360, Note_on_c, 9, 42, 79
1, 163360, Note_on_c, 9, 42, 0
1, 163360, Note_on_c, 9, 43, 89
1, 163520, Note_on_c, 9, 82, 79
1, 163559, Note_on_c, 9, 82, 0
1, 163679, Note_on_c, 9, 43, 0
1, 163680, Note_on_c, 9, 42, 79
1, 163680, Note_on_c, 9, 43, 89
1, 163685, Note_on_c, 9, 42, 0
1, 163839, Note_on_c, 9, 43, 0
1, 163840, Note_on_c, 9, 38, 110
1, 163840, Note_on_c, 9, 82, 79
1, 163840, Note_on_c, 9, 43, 89
1, 163999, Note_on_c, 9, 38, 0
1, 163999, Note_on_c, 9, 82, 0
1, 164000, Note_on_c, 9, 42, 79
1, 164005, Note_on_c, 9, 42, 0
1, 164159, Note_on_c, 9, 43, 0
1, 164160, Note_on_c, 9, 82, 79
1, 164160, Note_on_c, 9, 43, 89
1, 164279, Note_on_c, 9, 82, 0
1, 164319, Note_on_c, 9, 43, 0
1, 164320, Note_on_c, 9, 42, 79
1, 164320, Note_on_c, 9, 42, 0
1, 164320, Note_on_c, 9, 43, 89
1, 164399, Note_on_c, 9, 43, 0
1, 164480, Note_on_c, 9, 82, 79
1, 164519, Note_on_c, 9, 82, 0
1, 164640, Note_on_c, 9, 42, 79
1, 164645, Note_on_c, 9, 42, 0
1, 164800, Note_on_c, 9, 38, 110
1, 164800, Note_on_c, 9, 82, 79
1, 164800, Note_on_c, 9, 42, 89
1, 164805, Note_on_c, 9, 42, 0
1, 164959, Note_on_c, 9, 38, 0
1, 164959, Note_on_c, 9, 82, 0
1, 164960, Note_on_c, 9, 42, 79
1, 164965, Note_on_c, 9, 42, 0
1, 165120, Note_on_c, 9, 82, 79
1, 165120, Note_on_c, 9, 42, 89
1, 165124, Note_on_c, 9, 42, 0
1, 165239, Note_on_c, 9, 82, 0
1, 165280, Note_on_c, 9, 42, 79
1, 165280, Note_on_c, 9, 42, 0
1, 165440, Note_on_c, 9, 82, 79
1, 165479, Note_on_c, 9, 82, 0
1, 165600, Note_on_c, 9, 42, 79
1, 165605, Note_on_c, 9, 42, 0
1, 165760, Note_on_c, 9, 38, 110
1, 165760, Note_on_c, 9, 82, 79
1, 165760, Note_on_c, 9, 42, 89
1, 165765, Note_on_c, 9, 42, 0
1, 165919, Note_on_c, 9, 38, 0
1, 165919, Note_on_c, 9, 82, 0
1, 165920, Note_on_c, 9, 42, 79
1, 165925, Note_on_c, 9, 42, 0
1, 166080, Note_on_c, 9, 82, 79
1, 166080, Note_on_c, 9, 42, 89
1, 166085, Note_on_c, 9, 42, 0
1, 166239, Note_on_c, 9, 82, 0
1, 166240, Note_on_c, 9, 40, 89
1, 166240, Note_on_c, 9, 42, 79
1, 166245, Note_on_c, 9, 42, 0
1, 166399, Note_on_c, 9, 40, 0
1, 166400, Note_on_c, 9, 82, 79
1, 166559, Note_on_c, 9, 82, 0
1, 166560, Note_on_c, 9, 40, 89
1, 166560, Note_on_c, 9, 42, 79
1, 166565, Note_on_c, 9, 42, 0
1, 166719, Note_on_c, 9, 40, 0
1, 166720, Note_on_c, 9, 38, 110
1, 166720, Note_on_c, 9, 40, 89
1, 166720, Note_on_c, 9, 82, 79
1, 166879, Note_on_c, 9, 38, 0
1, 166879, Note_on_c, 9, 40, 0
1, 166879, Note_on_c, 9, 82, 0
1, 166880, Note_on_c, 9, 42, 79
1, 166885, Note_on_c, 9, 42, 0
1, 167040, Note_on_c, 9, 40, 89
1, 167040, Note_on_c, 9, 82, 79
1, 167199, Note_on_c, 9, 40, 0
1, 167199, Note_on_c, 9, 82, 0
1, 167200, Note_on_c, 9, 42, 79
1, 167205, Note_on_c, 9, 42, 0
1, 167360, Note_on_c, 9, 82, 79
1, 167519, Note_on_c, 9, 82, 0
1, 167520, Note_on_c, 9, 42, 79
1, 167525, Note_on_c, 9, 42, 0
1, 167680, Note_on_c, 9, 38, 110
1, 167680, Note_on_c, 9, 82, 79
1, 167680, Note_on_c, 9, 42, 89
1, 167685, Note_on_c, 9, 42, 0
1, 167839, Note_on_c, 9, 38, 0
1, 167839, Note_on_c, 9, 82, 0
1, 167840, Note_on_c, 9, 42, 79
1, 167845, Note_on_c, 9, 42, 0
1, 168000, Note_on_c, 9, 82, 79
1, 168000, Note_on_c, 9, 42, 100
1, 168004, Note_on_c, 9, 42, 0
1, 168119, Note_on_c, 9, 82, 0
1, 168160, Note_on_c, 9, 42, 79
1, 168160, Note_on_c, 9, 42, 0
1, 168160, Note_on_c, 9, 43, 100
1, 168320, Note_on_c, 9, 82, 79
1, 168359, Note_on_c, 9, 82, 0
1, 168479, Note_on_c, 9, 43, 0
1, 168480, Note_on_c, 9, 42, 79
1, 168480, Note_on_c, 9, 43, 100
1, 168485, Note_on_c, 9, 42, 0
1, 168639, Note_on_c, 9, 43, 0
1, 168640, Note_on_c, 9, 38, 110
1, 168640, Note_on_c, 9, 82, 79
1, 168640, Note_on_c, 9, 43, 111
1, 168799, Note_on_c, 9, 38, 0
1, 168799, Note_on_c, 9, 82, 0
1, 168800, Note_on_c, 9, 42, 79
1, 168805, Note_on_c, 9, 42, 0
1, 168959, Note_on_c, 9, 43, 0
1, 168960, Note_on_c, 9, 82, 79
1, 168960, Note_on_c, 9, 43, 111
1, 169119, Note_on_c, 9, 82, 0
1, 169120, Note_on_c, 9, 45, 111
1, 169120, Note_on_c, 9, 42, 79
1, 169125, Note_on_c, 9, 42, 0
1, 169279, Note_on_c, 9, 45, 0
1, 169280, Note_on_c, 9, 82, 79
1, 169439, Note_on_c, 9, 43, 0
1, 169439, Note_on_c, 9, 82, 0
1, 169440, Note_on_c, 9, 45, 116
1, 169440, Note_on_c, 9, 42, 79
1, 169444, Note_on_c, 9, 42, 0
1, 169559, Note_on_c, 9, 45, 0
1, 169560, Note_on_c, 9, 42, 79
1, 169560, Note_on_c, 9, 42, 0
1, 169605, Note_on_c, 9, 38, 110
1, 169605, Note_on_c, 9, 45, 116
1, 169605, Note_on_c, 9, 82, 79
1, 169619, Note_on_c, 9, 82, 0
1, 169664, Note_on_c, 9, 38, 0
1, 169664, Note_on_c, 9, 45, 0
1, 169755, Note_on_c, 9, 42, 79
1, 169755, Note_on_c, 9, 42, 0
1, 169920, Note_on_c, 9, 45, 116
1, 169920, Note_on_c, 9, 82, 79
1, 170079, Note_on_c, 9, 45, 0
1, 170079, Note_on_c, 9, 82, 0
1, 170080, Note_on_c, 9, 40, 89
1, 170080, Note_on_c, 9, 42, 79
1, 170085, Note_on_c, 9, 42, 0
1, 170239, Note_on_c, 9, 40, 0
1, 170240, Note_on_c, 9, 82, 79
1, 170399, Note_on_c, 9, 82, 0
1, 170400, Note_on_c, 9, 40, 89
1, 170400, Note_on_c, 9, 42, 79
1, 170405, Note_on_c, 9, 42, 0
1, 170559, Note_on_c, 9, 40, 0
1, 170560, Note_on_c, 9, 38, 110
1, 170560, Note_on_c, 9, 40, 89
1, 170560, Note_on_c, 9, 82, 79
1, 170719, Note_on_c, 9, 38, 0
1, 170719, Note_on_c, 9, 40, 0
1, 170719, Note_on_c, 9, 82, 0
1, 170720, Note_on_c, 9, 42, 79
1, 170725, Note_on_c, 9, 42, 0
1, 170880, Note_on_c, 9, 40, 89
1, 170880, Note_on_c, 9, 82, 79
1, 171039, Note_on_c, 9, 40, 0
1, 171039, Note_on_c, 9, 82, 0
1, 171040, Note_on_c, 9, 40, 89
1, 171040, Note_on_c, 9, 42, 79
1, 171045, Note_on_c, 9, 42, 0
1, 171199, Note_on_c, 9, 40, 0
1, 171200, Note_on_c, 9, 82, 79
1, 171359, Note_on_c, 9, 82, 0
1, 171360, Note_on_c, 9, 40, 89
1, 171360, Note_on_c, 9, 42, 79
1, 171365, Note_on_c, 9, 42, 0
1, 171479, Note_on_c, 9, 40, 0
1, 171525, Note_on_c, 9, 38, 110
1, 171525, Note_on_c, 9, 40, 89
1, 171525, Note_on_c, 9, 82, 79
1, 171539, Note_on_c, 9, 82, 0
1, 171584, Note_on_c, 9, 38, 0
1, 171584, Note_on_c, 9, 40, 0
1, 171675, Note_on_c, 9, 42, 79
1, 171675, Note_on_c, 9, 42, 0
1, 171840, Note_on_c, 9, 40, 89
1, 171840, Note_on_c, 9, 82, 79
1, 171999, Note_on_c, 9, 40, 0
1, 171999, Note_on_c, 9, 82, 0
1, 172000, Note_on_c, 9, 42, 79
1, 172002, Note_on_c, 9, 42, 0
1, 172155, Note_on_c, 9, 82, 79
1, 172199, Note_on_c, 9, 82, 0
1, 172320, Note_on_c, 9, 42, 79
1, 172325, Note_on_c, 9, 42, 0
1, 172485, Note_on_c, 9, 38, 110
1, 172485, Note_on_c, 9, 82, 79
1, 172485, Note_on_c, 9, 42, 89
1, 172485, Note_on_c, 9, 42, 0
1, 172499, Note_on_c, 9, 82, 0
1, 172544, Note_on_c, 9, 38, 0
1, 172635, Note_on_c, 9, 42, 79
1, 172635, Note_on_c, 9, 42, 0
1, 172800, Note_on_c, 9, 82, 79
1, 172800, Note_on_c, 9, 42, 89
1, 172804, Note_on_c, 9, 42, 0
1, 172919, Note_on_c, 9, 82, 0
1, 172960, Note_on_c, 9, 42, 79
1, 172960, Note_on_c, 9, 42, 0
1, 173120, Note_on_c, 9, 82, 79
1, 173159, Note_on_c, 9, 82, 0
1, 173280, Note_on_c, 9, 42, 79
1, 173285, Note_on_c, 9, 42, 0
1, 173440, Note_on_c, 9, 38, 110
1, 173440, Note_on_c, 9, 82, 79
1, 173440, Note_on_c, 9, 42, 89
1, 173445, Note_on_c, 9, 42, 0
1, 173599, Note_on_c, 9, 38, 0
1, 173599, Note_on_c, 9, 82, 0
1, 173600, Note_on_c, 9, 42, 79
1, 173605, Note_on_c, 9, 42, 0
1, 173760, Note_on_c, 9, 82, 79
1, 173760, Note_on_c, 9, 42, 89
1, 173764, Note_on_c, 9, 42, 0
1, 173879, Note_on_c, 9, 82, 0
1, 173920, Note_on_c, 9, 42, 79
1, 173920, Note_on_c, 9, 42, 0
1, 173920, Note_on_c, 9, 43, 89
1, 174080, Note_on_c, 9, 82, 79
1, 174119, Note_on_c, 9, 82, 0
1, 174239, Note_on_c, 9, 43, 0
1, 174240, Note_on_c, 9, 42, 79
1, 174240, Note_on_c, 9, 43, 89
1, 174245, Note_on_c, 9, 42, 0
1, 174399, Note_on_c, 9, 43, 0
1, 174400, Note_on_c, 9, 38, 110
1, 174400, Note_on_c, 9, 82, 79
1, 174400, Note_on_c, 9, 43, 89
1, 174559, Note_on_c, 9, 38, 0
1, 174559, Note_on_c, 9, 82, 0
1, 174560, Note_on_c, 9, 42, 79
1, 174565, Note_on_c, 9, 42, 0
1, 174719, Note_on_c, 9, 43, 0
1, 174720, Note_on_c, 9, 82, 79
1, 174720, Note_on_c, 9, 43, 89
1, 174839, Note_on_c, 9, 82, 0
1, 174879, Note_on_c, 9, 43, 0
1, 174880, Note_on_c, 9, 42, 79
1, 174880, Note_on_c, 9, 42, 0
1, 174880, Note_on_c, 9, 43, 89
1, 175040, Note_on_c, 9, 82, 79
1, 175079, Note_on_c, 9, 82, 0
1, 175199, Note_on_c, 9, 43, 0
1, 175200, Note_on_c, 9, 42, 79
1, 175200, Note_on_c, 9, 43, 89
1, 175205, Note_on_c, 9, 42, 0
1, 175359, Note_on_c, 9, 43, 0
1, 175360, Note_on_c, 9, 38, 110
1, 175360, Note_on_c, 9, 82, 79
1, 175360, Note_on_c, 9, 43, 89
1, 175519, Note_on_c, 9, 38, 0
1, 175519, Note_on_c, 9, 82, 0
1, 175520, Note_on_c, 9, 42, 79
1, 175525, Note_on_c, 9, 42, 0
1, 175679, Note_on_c, 9, 43, 0
1, 175680, Note_on_c, 9, 82, 79
1, 175680, Note_on_c, 9, 43, 89
1, 175799, Note_on_c, 9, 82, 0
1, 175839, Note_on_c, 9, 43, 0
1, 175840, Note_on_c, 9, 42, 79
1, 175840, Note_on_c, 9, 42, 0
1, 175840, Note_on_c, 9, 43, 89
1, 175919, Note_on_c, 9, 43, 0
1, 176000, Note_on_c, 9, 82, 79
1, 176039, Note_on_c, 9, 82, 0
1, 176160, Note_on_c, 9, 42, 79
1, 176165, Note_on_c, 9, 42, 0
1, 176320, Note_on_c, 9, 38, 110
1, 176320, Note_on_c, 9, 82, 79
1, 176320, Note_on_c, 9, 42, 89
1, 176325, Note_on_c, 9, 42, 0
1, 176479, Note_on_c, 9, 38, 0
1, 176479, Note_on_c, 9, 82, 0
1, 176480, Note_on_c, 9, 42, 79
1, 176485, Note_on_c, 9, 42, 0
1, 176640, Note_on_c, 9, 82, 79
1, 176640, Note_on_c, 9, 42, 89
1, 176644, Note_on_c, 9, 42, 0
1, 176759, Note_on_c, 9, 82, 0
1, 176800, Note_on_c, 9, 42, 79
1, 176800, Note_on_c, 9, 42, 0
1, 176960, Note_on_c, 9, 82, 79
1, 176999, Note_on_c, 9, 82, 0
1, 177120, Note_on_c, 9, 42, 79
1, 177125, Note_on_c, 9, 42, 0
1, 177280, Note_on_c, 9, 38, 110
1, 177280, Note_on_c, 9, 82, 79
1, 177280, Note_on_c, 9, 42, 89
1, 177285, Note_on_c, 9, 42, 0
1, 177439, Note_on_c, 9, 38, 0
1, 177439, Note_on_c, 9, 82, 0
1, 177440, Note_on_c, 9, 42, 79
1, 177445, Note_on_c, 9, 42, 0
1, 177600, Note_on_c, 9, 82, 79
1, 177600, Note_on_c, 9, 42, 89
1, 177605, Note_on_c, 9, 42, 0
1, 177759, Note_on_c, 9, 82, 0
1, 177760, Note_on_c, 9, 40, 89
1, 177760, Note_on_c, 9, 42, 79
1, 177765, Note_on_c, 9, 42, 0
1, 177919, Note_on_c, 9, 40, 0
1, 177920, Note_on_c, 9, 82, 79
1, 178079, Note_on_c, 9, 82, 0
1, 178080, Note_on_c, 9, 40, 89
1, 178080, Note_on_c, 9, 42, 79
1, 178085, Note_on_c, 9, 42, 0
1, 178239, Note_on_c, 9, 40, 0
1, 178240, Note_on_c, 9, 38, 110
1, 178240, Note_on_c, 9, 40, 89
1, 178240, Note_on_c, 9, 82, 79
1, 178399, Note_on_c, 9, 38, 0
1, 178399, Note_on_c, 9, 40, 0
1, 178399, Note_on_c, 9, 82, 0
1, 178400, Note_on_c, 9, 42, 79
1, 178405, Note_on_c, 9, 42, 0
1, 178560, Note_on_c, 9, 40, 89
1, 178560, Note_on_c, 9, 82, 79
1, 178719, Note_on_c, 9, 40, 0
1, 178719, Note_on_c, 9, 82, 0
1, 178720, Note_on_c, 9, 42, 79
1, 178725, Note_on_c, 9, 42, 0
1, 178880, Note_on_c, 9, 82, 79
1, 179039, Note_on_c, 9, 82, 0
1, 179040, Note_on_c, 9, 42, 84
1, 179045, Note_on_c, 9, 42, 0
1, 179200, Note_on_c, 9, 38, 127
1, 179200, Note_on_c, 9, 82, 79
1, 179200, Note_on_c, 9, 42, 89
1, 179205, Note_on_c, 9, 42, 0
1, 179359, Note_on_c, 9, 38, 0
1, 179359, Note_on_c, 9, 82, 0
1, 179360, Note_on_c, 9, 38, 127
1, 179360, Note_on_c, 9, 42, 79
1, 179365, Note_on_c, 9, 42, 0
1, 179519, Note_on_c, 9, 38, 0
1, 179520, Note_on_c, 9, 42, 100
1, 179520, Note_on_c, 9, 49, 98
1, 179524, Note_on_c, 9, 42, 0
1, 179524, Note_on_c, 9, 49, 0
1, 179680, Note_on_c, 9, 42, 79
1, 179680, Note_on_c, 9, 42, 0
1, 179680, Note_on_c, 9, 43, 100
1, 179840, Note_on_c, 9, 82, 79
1, 179879, Note_on_c, 9, 82, 0
1, 179999, Note_on_c, 9, 43, 0
1, 180000, Note_on_c, 9, 42, 79
1, 180000, Note_on_c, 9, 43, 100
1, 180005, Note_on_c, 9, 42, 0
1, 180159, Note_on_c, 9, 43, 0
1, 180160, Note_on_c, 9, 38, 88
1, 180160, Note_on_c, 9, 82, 79
1, 180160, Note_on_c, 9, 43, 111
1, 180319, Note_on_c, 9, 38, 0
1, 180319, Note_on_c, 9, 82, 0
1, 180320, Note_on_c, 9, 38, 93
1, 180320, Note_on_c, 9, 42, 79
1, 180325, Note_on_c, 9, 42, 0
1, 180479, Note_on_c, 9, 43, 0
1, 180479, Note_on_c, 9, 38, 0
1, 180480, Note_on_c, 9, 38, 97
1, 180480, Note_on_c, 9, 82, 79
1, 180480, Note_on_c, 9, 43, 111
1, 180639, Note_on_c, 9, 38, 0
1, 180639, Note_on_c, 9, 82, 0
1, 180640, Note_on_c, 9, 38, 102
1, 180640, Note_on_c, 9, 45, 111
1, 180640, Note_on_c, 9, 42, 79
1, 180645, Note_on_c, 9, 42, 0
1, 180799, Note_on_c, 9, 38, 0
1, 180799, Note_on_c, 9, 45, 0
1, 180800, Note_on_c, 9, 38, 106
1, 180800, Note_on_c, 9, 82, 79
1, 180959, Note_on_c, 9, 43, 0
1, 180959, Note_on_c, 9, 38, 0
1, 180959, Note_on_c, 9, 82, 0
1, 180960, Note_on_c, 9, 38, 111
1, 180960, Note_on_c, 9, 45, 116
1, 180960, Note_on_c, 9, 42, 79
1, 180965, Note_on_c, 9, 42, 0
1, 181119, Note_on_c, 9, 38, 0
1, 181119, Note_on_c, 9, 45, 0
1, 181120, Note_on_c, 9, 38, 117
1, 181120, Note_on_c, 9, 45, 116
1, 181120, Note_on_c, 9, 82, 79
1, 181279, Note_on_c, 9, 38, 0
1, 181279, Note_on_c, 9, 45, 0
1, 181279, Note_on_c, 9, 82, 0
1, 181280, Note_on_c, 9, 38, 121
1, 181280, Note_on_c, 9, 42, 79
1, 181285, Note_on_c, 9, 42, 0
1, 181439, Note_on_c, 9, 38, 0
1, 181440, Note_on_c, 9, 38, 125
1, 181440, Note_on_c, 9, 45, 116
1, 181440, Note_on_c, 9, 82, 79
1, 181559, Note_on_c, 9, 38, 0
1, 181559, Note_on_c, 9, 45, 0
1, 181559, Note_on_c, 9, 82, 0
1, 181600, Note_on_c, 9, 38, 127
1, 181600, Note_on_c, 9, 49, 108
1, 181600, Note_on_c, 9, 49, 0
1, 181619, Note_on_c, 9, 38, 0
1, 181620, End_track
0, 0, End_of_file
