0, 0, Header, 1, 1, 480
1, 0, Start_track
1, 0, Title_t, "Drumset"
1, 0, Time_signature, 4, 2, 24, 8
1, 0, Key_signature, 0, "major"
1, 0, Tempo, 555556
1, 0, Control_c, 9, 121, 0
1, 0, Program_c, 9, 0
1, 0, Control_c, 9, 7, 100
1, 0, Control_c, 9, 10, 64
1, 0, Control_c, 9, 91, 0
1, 0, Control_c, 9, 93, 0
1, 0, MIDI_port, 0
1, 9600, Note_on_c, 9, 49, 104
1, 9600, Note_on_c, 9, 36, 119
1, 9619, Note_on_c, 9, 49, 0
1, 10079, Note_on_c, 9, 36, 0
1, 10560, Note_on_c, 9, 49, 98
1, 10560, Note_on_c, 9, 36, 119
1, 10574, Note_on_c, 9, 49, 0
1, 10919, Note_on_c, 9, 36, 0
1, 10920, Note_on_c, 9, 57, 115
1, 10920, Note_on_c, 9, 36, 119
1, 10924, Note_on_c, 9, 57, 0
1, 11039, Note_on_c, 9, 36, 0
1, 11280, Note_on_c, 9, 49, 98
1, 11280, Note_on_c, 9, 36, 127
1, 11289, Note_on_c, 9, 49, 0
1, 11519, Note_on_c, 9, 36, 0
1, 12480, Note_on_c, 9, 49, 104
1, 12480, Note_on_c, 9, 36, 119
1, 12494, Note_on_c, 9, 49, 0
1, 12839, Note_on_c, 9, 36, 0
1, 12840, Note_on_c, 9, 57, 115
1, 12840, Note_on_c, 9, 36, 108
1, 12844, Note_on_c, 9, 57, 0
1, 12959, Note_on_c, 9, 36, 0
1, 13200, Note_on_c, 9, 49, 98
1, 13200, Note_on_c, 9, 36, 119
1, 13209, Note_on_c, 9, 49, 0
1, 13439, Note_on_c, 9, 36, 0
1, 14400, Note_on_c, 9, 49, 92
1, 14400, Note_on_c, 9, 36, 125
1, 14414, Note_on_c, 9, 49, 0
1, 14759, Note_on_c, 9, 36, 0
1, 14760, Note_on_c, 9, 57, 115
1, 14760, Note_on_c, 9, 36, 119
1, 14764, Note_on_c, 9, 57, 0
1, 14879, Note_on_c, 9, 36, 0
1, 15120, Note_on_c, 9, 49, 92
1, 15120, Note_on_c, 9, 36, 127
1, 15129, Note_on_c, 9, 49, 0
1, 15359, Note_on_c, 9, 36, 0
1, 17280, Note_on_c, 9, 49, 92
1, 17280, Note_on_c, 9, 36, 127
1, 17299, Note_on_c, 9, 49, 0
1, 17759, Note_on_c, 9, 36, 0
1, 18240, Note_on_c, 9, 49, 98
1, 18240, Note_on_c, 9, 36, 125
1, 18254, Note_on_c, 9, 49, 0
1, 18599, Note_on_c, 9, 36, 0
1, 18600, Note_on_c, 9, 57, 104
1, 18600, Note_on_c, 9, 36, 119
1, 18604, Note_on_c, 9, 57, 0
1, 18719, Note_on_c, 9, 36, 0
1, 18960, Note_on_c, 9, 49, 98
1, 18960, Note_on_c, 9, 36, 125
1, 18969, Note_on_c, 9, 49, 0
1, 19199, Note_on_c, 9, 36, 0
1, 20400, Note_on_c, 9, 49, 98
1, 20400, Note_on_c, 9, 36, 127
1, 20409, Note_on_c, 9, 49, 0
1, 20639, Note_on_c, 9, 36, 0
1, 20760, Note_on_c, 9, 57, 115
1, 20760, Note_on_c, 9, 36, 125
1, 20774, Note_on_c, 9, 57, 0
1, 21119, Note_on_c, 9, 36, 0
1, 21120, Note_on_c, 9, 49, 98
1, 21120, Note_on_c, 9, 36, 127
1, 21139, Note_on_c, 9, 49, 0
1, 21599, Note_on_c, 9, 36, 0
1, 22080, Note_on_c, 9, 49, 98
1, 22080, Note_on_c, 9, 36, 125
1, 22094, Note_on_c, 9, 49, 0
1, 22439, Note_on_c, 9, 36, 0
1, 22440, Note_on_c, 9, 57, 115
1, 22440, Note_on_c, 9, 36, 125
1, 22444, Note_on_c, 9, 57, 0
1, 22559, Note_on_c, 9, 36, 0
1, 22800, Note_on_c, 9, 49, 98
1, 22800, Note_on_c, 9, 36, 127
1, 22809, Note_on_c, 9, 49, 0
1, 23039, Note_on_c, 9, 36, 0
1, 24960, Note_on_c, 9, 42, 113
1, 24960, Note_on_c, 9, 36, 117
1, 24969, Note_on_c, 9, 42, 0
1, 25200, Note_on_c, 9, 42, 64
1, 25209, Note_on_c, 9, 42, 0
1, 25439, Note_on_c, 9, 36, 0
1, 25440, Note_on_c, 9, 40, 121
1, 25440, Note_on_c, 9, 54, 106
1, 25440, Note_on_c, 9, 42, 108
1, 25449, Note_on_c, 9, 42, 0
1, 25679, Note_on_c, 9, 40, 0
1, 25679, Note_on_c, 9, 54, 0
1, 25680, Note_on_c, 9, 42, 58
1, 25689, Note_on_c, 9, 42, 0
1, 25920, Note_on_c, 9, 42, 113
1, 25920, Note_on_c, 9, 36, 119
1, 25929, Note_on_c, 9, 42, 0
1, 26160, Note_on_c, 9, 42, 47
1, 26169, Note_on_c, 9, 42, 0
1, 26399, Note_on_c, 9, 36, 0
1, 26400, Note_on_c, 9, 40, 121
1, 26400, Note_on_c, 9, 42, 119
1, 26409, Note_on_c, 9, 42, 0
1, 26639, Note_on_c, 9, 40, 0
1, 26640, Note_on_c, 9, 42, 47
1, 26649, Note_on_c, 9, 42, 0
1, 26880, Note_on_c, 9, 42, 113
1, 26880, Note_on_c, 9, 36, 113
1, 26889, Note_on_c, 9, 42, 0
1, 27120, Note_on_c, 9, 42, 53
1, 27129, Note_on_c, 9, 42, 0
1, 27359, Note_on_c, 9, 36, 0
1, 27360, Note_on_c, 9, 40, 121
1, 27360, Note_on_c, 9, 54, 111
1, 27360, Note_on_c, 9, 42, 119
1, 27369, Note_on_c, 9, 42, 0
1, 27599, Note_on_c, 9, 40, 0
1, 27599, Note_on_c, 9, 54, 0
1, 27600, Note_on_c, 9, 42, 48
1, 27609, Note_on_c, 9, 42, 0
1, 27840, Note_on_c, 9, 42, 113
1, 27840, Note_on_c, 9, 36, 108
1, 27849, Note_on_c, 9, 42, 0
1, 28080, Note_on_c, 9, 42, 66
1, 28089, Note_on_c, 9, 42, 0
1, 28319, Note_on_c, 9, 36, 0
1, 28320, Note_on_c, 9, 40, 115
1, 28320, Note_on_c, 9, 42, 108
1, 28329, Note_on_c, 9, 42, 0
1, 28559, Note_on_c, 9, 40, 0
1, 28560, Note_on_c, 9, 42, 70
1, 28569, Note_on_c, 9, 42, 0
1, 28800, Note_on_c, 9, 42, 113
1, 28800, Note_on_c, 9, 36, 119
1, 28809, Note_on_c, 9, 42, 0
1, 29040, Note_on_c, 9, 42, 64
1, 29049, Note_on_c, 9, 42, 0
1, 29279, Note_on_c, 9, 36, 0
1, 29280, Note_on_c, 9, 40, 127
1, 29280, Note_on_c, 9, 54, 111
1, 29280, Note_on_c, 9, 42, 113
1, 29289, Note_on_c, 9, 42, 0
1, 29519, Note_on_c, 9, 40, 0
1, 29519, Note_on_c, 9, 54, 0
1, 29520, Note_on_c, 9, 42, 72
1, 29529, Note_on_c, 9, 42, 0
1, 29760, Note_on_c, 9, 42, 119
1, 29760, Note_on_c, 9, 36, 108
1, 29769, Note_on_c, 9, 42, 0
1, 30000, Note_on_c, 9, 42, 51
1, 30009, Note_on_c, 9, 42, 0
1, 30239, Note_on_c, 9, 36, 0
1, 30240, Note_on_c, 9, 40, 121
1, 30240, Note_on_c, 9, 42, 108
1, 30249, Note_on_c, 9, 42, 0
1, 30479, Note_on_c, 9, 40, 0
1, 30480, Note_on_c, 9, 42, 58
1, 30489, Note_on_c, 9, 42, 0
1, 30720, Note_on_c, 9, 42, 113
1, 30720, Note_on_c, 9, 36, 108
1, 30729, Note_on_c, 9, 42, 0
1, 30960, Note_on_c, 9, 42, 56
1, 30969, Note_on_c, 9, 42, 0
1, 31199, Note_on_c, 9, 36, 0
1, 31200, Note_on_c, 9, 40, 121
1, 31200, Note_on_c, 9, 54, 111
1, 31200, Note_on_c, 9, 42, 113
1, 31209, Note_on_c, 9, 42, 0
1, 31439, Note_on_c, 9, 40, 0
1, 31439, Note_on_c, 9, 54, 0
1, 31440, Note_on_c, 9, 42, 58
1, 31449, Note_on_c, 9, 42, 0
1, 31680, Note_on_c, 9, 42, 113
1, 31680, Note_on_c, 9, 36, 102
1, 31689, Note_on_c, 9, 42, 0
1, 31920, Note_on_c, 9, 42, 76
1, 31929, Note_on_c, 9, 42, 0
1, 32159, Note_on_c, 9, 36, 0
1, 32160, Note_on_c, 9, 40, 121
1, 32160, Note_on_c, 9, 42, 113
1, 32169, Note_on_c, 9, 42, 0
1, 32399, Note_on_c, 9, 40, 0
1, 32400, Note_on_c, 9, 42, 72
1, 32409, Note_on_c, 9, 42, 0
1, 32640, Note_on_c, 9, 42, 113
1, 32640, Note_on_c, 9, 36, 113
1, 32649, Note_on_c, 9, 42, 0
1, 32880, Note_on_c, 9, 42, 56
1, 32889, Note_on_c, 9, 42, 0
1, 33119, Note_on_c, 9, 36, 0
1, 33120, Note_on_c, 9, 40, 121
1, 33120, Note_on_c, 9, 54, 106
1, 33120, Note_on_c, 9, 42, 113
1, 33129, Note_on_c, 9, 42, 0
1, 33359, Note_on_c, 9, 40, 0
1, 33359, Note_on_c, 9, 54, 0
1, 33360, Note_on_c, 9, 42, 74
1, 33369, Note_on_c, 9, 42, 0
1, 33600, Note_on_c, 9, 42, 108
1, 33600, Note_on_c, 9, 36, 119
1, 33609, Note_on_c, 9, 42, 0
1, 33840, Note_on_c, 9, 42, 74
1, 33849, Note_on_c, 9, 42, 0
1, 34079, Note_on_c, 9, 36, 0
1, 34080, Note_on_c, 9, 40, 127
1, 34080, Note_on_c, 9, 42, 102
1, 34089, Note_on_c, 9, 42, 0
1, 34319, Note_on_c, 9, 40, 0
1, 34320, Note_on_c, 9, 42, 78
1, 34329, Note_on_c, 9, 42, 0
1, 34560, Note_on_c, 9, 42, 108
1, 34560, Note_on_c, 9, 36, 119
1, 34569, Note_on_c, 9, 42, 0
1, 34800, Note_on_c, 9, 42, 74
1, 34809, Note_on_c, 9, 42, 0
1, 35039, Note_on_c, 9, 36, 0
1, 35040, Note_on_c, 9, 40, 127
1, 35040, Note_on_c, 9, 54, 100
1, 35040, Note_on_c, 9, 42, 108
1, 35049, Note_on_c, 9, 42, 0
1, 35279, Note_on_c, 9, 40, 0
1, 35279, Note_on_c, 9, 54, 0
1, 35280, Note_on_c, 9, 42, 68
1, 35289, Note_on_c, 9, 42, 0
1, 35520, Note_on_c, 9, 42, 108
1, 35520, Note_on_c, 9, 36, 113
1, 35529, Note_on_c, 9, 42, 0
1, 35760, Note_on_c, 9, 42, 78
1, 35769, Note_on_c, 9, 42, 0
1, 35999, Note_on_c, 9, 36, 0
1, 36000, Note_on_c, 9, 40, 121
1, 36000, Note_on_c, 9, 42, 102
1, 36009, Note_on_c, 9, 42, 0
1, 36239, Note_on_c, 9, 40, 0
1, 36240, Note_on_c, 9, 42, 76
1, 36249, Note_on_c, 9, 42, 0
1, 36480, Note_on_c, 9, 42, 102
1, 36480, Note_on_c, 9, 36, 108
1, 36489, Note_on_c, 9, 42, 0
1, 36720, Note_on_c, 9, 42, 72
1, 36729, Note_on_c, 9, 42, 0
1, 36959, Note_on_c, 9, 36, 0
1, 36960, Note_on_c, 9, 40, 127
1, 36960, Note_on_c, 9, 54, 106
1, 36960, Note_on_c, 9, 42, 108
1, 36969, Note_on_c, 9, 42, 0
1, 37199, Note_on_c, 9, 40, 0
1, 37199, Note_on_c, 9, 54, 0
1, 37200, Note_on_c, 9, 42, 68
1, 37209, Note_on_c, 9, 42, 0
1, 37440, Note_on_c, 9, 42, 102
1, 37440, Note_on_c, 9, 36, 119
1, 37449, Note_on_c, 9, 42, 0
1, 37680, Note_on_c, 9, 42, 64
1, 37689, Note_on_c, 9, 42, 0
1, 37919, Note_on_c, 9, 36, 0
1, 37920, Note_on_c, 9, 40, 127
1, 37920, Note_on_c, 9, 42, 102
1, 37929, Note_on_c, 9, 42, 0
1, 38159, Note_on_c, 9, 40, 0
1, 38160, Note_on_c, 9, 42, 76
1, 38169, Note_on_c, 9, 42, 0
1, 38400, Note_on_c, 9, 42, 113
1, 38400, Note_on_c, 9, 36, 102
1, 38409, Note_on_c, 9, 42, 0
1, 38640, Note_on_c, 9, 42, 78
1, 38649, Note_on_c, 9, 42, 0
1, 38879, Note_on_c, 9, 36, 0
1, 38880, Note_on_c, 9, 40, 127
1, 38880, Note_on_c, 9, 54, 106
1, 38880, Note_on_c, 9, 42, 108
1, 38889, Note_on_c, 9, 42, 0
1, 39119, Note_on_c, 9, 40, 0
1, 39119, Note_on_c, 9, 54, 0
1, 39120, Note_on_c, 9, 42, 76
1, 39129, Note_on_c, 9, 42, 0
1, 39360, Note_on_c, 9, 42, 108
1, 39360, Note_on_c, 9, 36, 113
1, 39369, Note_on_c, 9, 42, 0
1, 39600, Note_on_c, 9, 42, 72
1, 39609, Note_on_c, 9, 42, 0
1, 39719, Note_on_c, 9, 36, 0
1, 39720, Note_on_c, 9, 36, 102
1, 39839, Note_on_c, 9, 36, 0
1, 39840, Note_on_c, 9, 40, 121
1, 39840, Note_on_c, 9, 54, 106
1, 39840, Note_on_c, 9, 46, 104
1, 39859, Note_on_c, 9, 46, 0
1, 40319, Note_on_c, 9, 40, 0
1, 40319, Note_on_c, 9, 54, 0
1, 40320, Note_on_c, 9, 42, 102
1, 40320, Note_on_c, 9, 36, 102
1, 40329, Note_on_c, 9, 42, 0
1, 40560, Note_on_c, 9, 42, 43
1, 40569, Note_on_c, 9, 42, 0
1, 40799, Note_on_c, 9, 36, 0
1, 40800, Note_on_c, 9, 40, 121
1, 40800, Note_on_c, 9, 42, 108
1, 40809, Note_on_c, 9, 42, 0
1, 41039, Note_on_c, 9, 40, 0
1, 41040, Note_on_c, 9, 42, 74
1, 41049, Note_on_c, 9, 42, 0
1, 41280, Note_on_c, 9, 42, 108
1, 41280, Note_on_c, 9, 36, 113
1, 41289, Note_on_c, 9, 42, 0
1, 41520, Note_on_c, 9, 42, 76
1, 41529, Note_on_c, 9, 42, 0
1, 41759, Note_on_c, 9, 36, 0
1, 41760, Note_on_c, 9, 40, 121
1, 41760, Note_on_c, 9, 42, 113
1, 41769, Note_on_c, 9, 42, 0
1, 41999, Note_on_c, 9, 40, 0
1, 42000, Note_on_c, 9, 42, 68
1, 42009, Note_on_c, 9, 42, 0
1, 42240, Note_on_c, 9, 42, 108
1, 42240, Note_on_c, 9, 36, 113
1, 42249, Note_on_c, 9, 42, 0
1, 42480, Note_on_c, 9, 42, 74
1, 42489, Note_on_c, 9, 42, 0
1, 42719, Note_on_c, 9, 36, 0
1, 42720, Note_on_c, 9, 40, 121
1, 42720, Note_on_c, 9, 42, 108
1, 42729, Note_on_c, 9, 42, 0
1, 42959, Note_on_c, 9, 40, 0
1, 42960, Note_on_c, 9, 42, 62
1, 42969, Note_on_c, 9, 42, 0
1, 43200, Note_on_c, 9, 42, 102
1, 43200, Note_on_c, 9, 36, 108
1, 43209, Note_on_c, 9, 42, 0
1, 43440, Note_on_c, 9, 42, 96
1, 43449, Note_on_c, 9, 42, 0
1, 43679, Note_on_c, 9, 36, 0
1, 43680, Note_on_c, 9, 40, 127
1, 43680, Note_on_c, 9, 42, 102
1, 43689, Note_on_c, 9, 42, 0
1, 43919, Note_on_c, 9, 40, 0
1, 43920, Note_on_c, 9, 42, 90
1, 43929, Note_on_c, 9, 42, 0
1, 44160, Note_on_c, 9, 42, 108
1, 44160, Note_on_c, 9, 36, 113
1, 44169, Note_on_c, 9, 42, 0
1, 44400, Note_on_c, 9, 42, 41
1, 44409, Note_on_c, 9, 42, 0
1, 44639, Note_on_c, 9, 36, 0
1, 44640, Note_on_c, 9, 40, 127
1, 44640, Note_on_c, 9, 42, 102
1, 44649, Note_on_c, 9, 42, 0
1, 44879, Note_on_c, 9, 40, 0
1, 44880, Note_on_c, 9, 42, 51
1, 44889, Note_on_c, 9, 42, 0
1, 45120, Note_on_c, 9, 42, 102
1, 45120, Note_on_c, 9, 36, 113
1, 45129, Note_on_c, 9, 42, 0
1, 45360, Note_on_c, 9, 42, 76
1, 45369, Note_on_c, 9, 42, 0
1, 45599, Note_on_c, 9, 36, 0
1, 45600, Note_on_c, 9, 40, 127
1, 45600, Note_on_c, 9, 42, 108
1, 45609, Note_on_c, 9, 42, 0
1, 45839, Note_on_c, 9, 40, 0
1, 45840, Note_on_c, 9, 42, 62
1, 45849, Note_on_c, 9, 42, 0
1, 46080, Note_on_c, 9, 42, 108
1, 46080, Note_on_c, 9, 36, 119
1, 46089, Note_on_c, 9, 42, 0
1, 46320, Note_on_c, 9, 42, 64
1, 46329, Note_on_c, 9, 42, 0
1, 46559, Note_on_c, 9, 36, 0
1, 46560, Note_on_c, 9, 40, 121
1, 46560, Note_on_c, 9, 42, 113
1, 46569, Note_on_c, 9, 42, 0
1, 46799, Note_on_c, 9, 40, 0
1, 46800, Note_on_c, 9, 42, 68
1, 46809, Note_on_c, 9, 42, 0
1, 47040, Note_on_c, 9, 42, 113
1, 47040, Note_on_c, 9, 36, 119
1, 47049, Note_on_c, 9, 42, 0
1, 47280, Note_on_c, 9, 42, 70
1, 47289, Note_on_c, 9, 42, 0
1, 47519, Note_on_c, 9, 36, 0
1, 47520, Note_on_c, 9, 40, 127
1, 47520, Note_on_c, 9, 42, 108
1, 47529, Note_on_c, 9, 42, 0
1, 47759, Note_on_c, 9, 40, 0
1, 47760, Note_on_c, 9, 42, 72
1, 47769, Note_on_c, 9, 42, 0
1, 48000, Note_on_c, 9, 42, 113
1, 48000, Note_on_c, 9, 36, 113
1, 48009, Note_on_c, 9, 42, 0
1, 48240, Note_on_c, 9, 42, 76
1, 48249, Note_on_c, 9, 42, 0
1, 48479, Note_on_c, 9, 36, 0
1, 48480, Note_on_c, 9, 40, 127
1, 48480, Note_on_c, 9, 42, 108
1, 48489, Note_on_c, 9, 42, 0
1, 48719, Note_on_c, 9, 40, 0
1, 48720, Note_on_c, 9, 42, 70
1, 48729, Note_on_c, 9, 42, 0
1, 48960, Note_on_c, 9, 42, 102
1, 48960, Note_on_c, 9, 36, 108
1, 48969, Note_on_c, 9, 42, 0
1, 49200, Note_on_c, 9, 42, 78
1, 49209, Note_on_c, 9, 42, 0
1, 49439, Note_on_c, 9, 36, 0
1, 49440, Note_on_c, 9, 40, 127
1, 49440, Note_on_c, 9, 42, 113
1, 49449, Note_on_c, 9, 42, 0
1, 49679, Note_on_c, 9, 40, 0
1, 49680, Note_on_c, 9, 42, 80
1, 49689, Note_on_c, 9, 42, 0
1, 49920, Note_on_c, 9, 42, 113
1, 49920, Note_on_c, 9, 36, 119
1, 49929, Note_on_c, 9, 42, 0
1, 50160, Note_on_c, 9, 42, 78
1, 50169, Note_on_c, 9, 42, 0
1, 50399, Note_on_c, 9, 36, 0
1, 50400, Note_on_c, 9, 40, 127
1, 50400, Note_on_c, 9, 42, 113
1, 50409, Note_on_c, 9, 42, 0
1, 50639, Note_on_c, 9, 40, 0
1, 50640, Note_on_c, 9, 42, 76
1, 50649, Note_on_c, 9, 42, 0
1, 50880, Note_on_c, 9, 42, 108
1, 50880, Note_on_c, 9, 36, 113
1, 50889, Note_on_c, 9, 42, 0
1, 51120, Note_on_c, 9, 42, 78
1, 51129, Note_on_c, 9, 42, 0
1, 51359, Note_on_c, 9, 36, 0
1, 51360, Note_on_c, 9, 40, 127
1, 51360, Note_on_c, 9, 42, 108
1, 51369, Note_on_c, 9, 42, 0
1, 51599, Note_on_c, 9, 40, 0
1, 51600, Note_on_c, 9, 42, 78
1, 51609, Note_on_c, 9, 42, 0
1, 51840, Note_on_c, 9, 42, 108
1, 51840, Note_on_c, 9, 36, 125
1, 51849, Note_on_c, 9, 42, 0
1, 52080, Note_on_c, 9, 42, 74
1, 52089, Note_on_c, 9, 42, 0
1, 52319, Note_on_c, 9, 36, 0
1, 52320, Note_on_c, 9, 40, 127
1, 52320, Note_on_c, 9, 42, 108
1, 52329, Note_on_c, 9, 42, 0
1, 52559, Note_on_c, 9, 40, 0
1, 52560, Note_on_c, 9, 42, 76
1, 52569, Note_on_c, 9, 42, 0
1, 52800, Note_on_c, 9, 42, 108
1, 52800, Note_on_c, 9, 36, 113
1, 52809, Note_on_c, 9, 42, 0
1, 53040, Note_on_c, 9, 42, 76
1, 53049, Note_on_c, 9, 42, 0
1, 53279, Note_on_c, 9, 36, 0
1, 53280, Note_on_c, 9, 40, 121
1, 53280, Note_on_c, 9, 42, 113
1, 53289, Note_on_c, 9, 42, 0
1, 53519, Note_on_c, 9, 40, 0
1, 53520, Note_on_c, 9, 42, 76
1, 53529, Note_on_c, 9, 42, 0
1, 53760, Note_on_c, 9, 42, 108
1, 53760, Note_on_c, 9, 36, 119
1, 53769, Note_on_c, 9, 42, 0
1, 54000, Note_on_c, 9, 42, 72
1, 54009, Note_on_c, 9, 42, 0
1, 54239, Note_on_c, 9, 36, 0
1, 54240, Note_on_c, 9, 40, 127
1, 54240, Note_on_c, 9, 42, 113
1, 54249, Note_on_c, 9, 42, 0
1, 54479, Note_on_c, 9, 40, 0
1, 54480, Note_on_c, 9, 42, 78
1, 54489, Note_on_c, 9, 42, 0
1, 54720, Note_on_c, 9, 42, 108
1, 54720, Note_on_c, 9, 36, 108
1, 54729, Note_on_c, 9, 42, 0
1, 54960, Note_on_c, 9, 42, 76
1, 54969, Note_on_c, 9, 42, 0
1, 55199, Note_on_c, 9, 36, 0
1, 55200, Note_on_c, 9, 40, 127
1, 55200, Note_on_c, 9, 42, 113
1, 55209, Note_on_c, 9, 42, 0
1, 55439, Note_on_c, 9, 40, 0
1, 55440, Note_on_c, 9, 42, 82
1, 55449, Note_on_c, 9, 42, 0
1, 55680, Note_on_c, 9, 42, 113
1, 55680, Note_on_c, 9, 36, 127
1, 55689, Note_on_c, 9, 42, 0
1, 55920, Note_on_c, 9, 42, 78
1, 55929, Note_on_c, 9, 42, 0
1, 56159, Note_on_c, 9, 36, 0
1, 56160, Note_on_c, 9, 40, 127
1, 56160, Note_on_c, 9, 42, 119
1, 56169, Note_on_c, 9, 42, 0
1, 56399, Note_on_c, 9, 40, 0
1, 56400, Note_on_c, 9, 42, 76
1, 56409, Note_on_c, 9, 42, 0
1, 56640, Note_on_c, 9, 42, 108
1, 56640, Note_on_c, 9, 36, 119
1, 56649, Note_on_c, 9, 42, 0
1, 56880, Note_on_c, 9, 42, 82
1, 56889, Note_on_c, 9, 42, 0
1, 57119, Note_on_c, 9, 36, 0
1, 57120, Note_on_c, 9, 40, 127
1, 57120, Note_on_c, 9, 42, 113
1, 57129, Note_on_c, 9, 42, 0
1, 57359, Note_on_c, 9, 40, 0
1, 57360, Note_on_c, 9, 42, 82
1, 57369, Note_on_c, 9, 42, 0
1, 57600, Note_on_c, 9, 42, 113
1, 57600, Note_on_c, 9, 36, 125
1, 57609, Note_on_c, 9, 42, 0
1, 57840, Note_on_c, 9, 42, 82
1, 57849, Note_on_c, 9, 42, 0
1, 58079, Note_on_c, 9, 36, 0
1, 58080, Note_on_c, 9, 40, 127
1, 58080, Note_on_c, 9, 42, 113
1, 58089, Note_on_c, 9, 42, 0
1, 58319, Note_on_c, 9, 40, 0
1, 58320, Note_on_c, 9, 42, 82
1, 58329, Note_on_c, 9, 42, 0
1, 58560, Note_on_c, 9, 40, 127
1, 58560, Note_on_c, 9, 46, 92
1, 58579, Note_on_c, 9, 46, 0
1, 58800, Note_on_c, 9, 43, 121
1, 59039, Note_on_c, 9, 40, 0
1, 59039, Note_on_c, 9, 43, 0
1, 59040, Note_on_c, 9, 40, 121
1, 59159, Note_on_c, 9, 40, 0
1, 59160, Note_on_c, 9, 40, 121
1, 59279, Note_on_c, 9, 40, 0
1, 59280, Note_on_c, 9, 46, 86
1, 59280, Note_on_c, 9, 36, 125
1, 59289, Note_on_c, 9, 46, 0
1, 59519, Note_on_c, 9, 36, 0
1, 59520, Note_on_c, 9, 42, 102
1, 59520, Note_on_c, 9, 36, 108
1, 59529, Note_on_c, 9, 42, 0
1, 59760, Note_on_c, 9, 42, 57
1, 59769, Note_on_c, 9, 42, 0
1, 59999, Note_on_c, 9, 36, 0
1, 60000, Note_on_c, 9, 40, 127
1, 60000, Note_on_c, 9, 42, 102
1, 60009, Note_on_c, 9, 42, 0
1, 60239, Note_on_c, 9, 40, 0
1, 60240, Note_on_c, 9, 42, 51
1, 60249, Note_on_c, 9, 42, 0
1, 60480, Note_on_c, 9, 42, 102
1, 60480, Note_on_c, 9, 36, 119
1, 60489, Note_on_c, 9, 42, 0
1, 60720, Note_on_c, 9, 42, 76
1, 60729, Note_on_c, 9, 42, 0
1, 60959, Note_on_c, 9, 36, 0
1, 60960, Note_on_c, 9, 40, 121
1, 60960, Note_on_c, 9, 42, 108
1, 60969, Note_on_c, 9, 42, 0
1, 61199, Note_on_c, 9, 40, 0
1, 61200, Note_on_c, 9, 42, 62
1, 61209, Note_on_c, 9, 42, 0
1, 61440, Note_on_c, 9, 42, 108
1, 61440, Note_on_c, 9, 36, 119
1, 61449, Note_on_c, 9, 42, 0
1, 61680, Note_on_c, 9, 42, 64
1, 61689, Note_on_c, 9, 42, 0
1, 61919, Note_on_c, 9, 36, 0
1, 61920, Note_on_c, 9, 40, 127
1, 61920, Note_on_c, 9, 42, 113
1, 61929, Note_on_c, 9, 42, 0
1, 62159, Note_on_c, 9, 40, 0
1, 62160, Note_on_c, 9, 42, 68
1, 62169, Note_on_c, 9, 42, 0
1, 62400, Note_on_c, 9, 42, 113
1, 62400, Note_on_c, 9, 36, 102
1, 62409, Note_on_c, 9, 42, 0
1, 62640, Note_on_c, 9, 42, 70
1, 62649, Note_on_c, 9, 42, 0
1, 62879, Note_on_c, 9, 36, 0
1, 62880, Note_on_c, 9, 40, 127
1, 62880, Note_on_c, 9, 42, 108
1, 62889, Note_on_c, 9, 42, 0
1, 63119, Note_on_c, 9, 40, 0
1, 63120, Note_on_c, 9, 42, 72
1, 63129, Note_on_c, 9, 42, 0
1, 63360, Note_on_c, 9, 42, 113
1, 63360, Note_on_c, 9, 36, 113
1, 63369, Note_on_c, 9, 42, 0
1, 63600, Note_on_c, 9, 42, 76
1, 63609, Note_on_c, 9, 42, 0
1, 63839, Note_on_c, 9, 36, 0
1, 63840, Note_on_c, 9, 40, 127
1, 63840, Note_on_c, 9, 42, 108
1, 63849, Note_on_c, 9, 42, 0
1, 64079, Note_on_c, 9, 40, 0
1, 64080, Note_on_c, 9, 42, 70
1, 64089, Note_on_c, 9, 42, 0
1, 64320, Note_on_c, 9, 42, 102
1, 64320, Note_on_c, 9, 36, 125
1, 64329, Note_on_c, 9, 42, 0
1, 64560, Note_on_c, 9, 42, 78
1, 64569, Note_on_c, 9, 42, 0
1, 64799, Note_on_c, 9, 36, 0
1, 64800, Note_on_c, 9, 40, 127
1, 64800, Note_on_c, 9, 42, 113
1, 64809, Note_on_c, 9, 42, 0
1, 65039, Note_on_c, 9, 40, 0
1, 65040, Note_on_c, 9, 42, 80
1, 65049, Note_on_c, 9, 42, 0
1, 65280, Note_on_c, 9, 42, 113
1, 65280, Note_on_c, 9, 36, 127
1, 65289, Note_on_c, 9, 42, 0
1, 65520, Note_on_c, 9, 42, 78
1, 65529, Note_on_c, 9, 42, 0
1, 65759, Note_on_c, 9, 36, 0
1, 65760, Note_on_c, 9, 40, 127
1, 65760, Note_on_c, 9, 42, 113
1, 65769, Note_on_c, 9, 42, 0
1, 65999, Note_on_c, 9, 40, 0
1, 66000, Note_on_c, 9, 42, 76
1, 66009, Note_on_c, 9, 42, 0
1, 66240, Note_on_c, 9, 42, 108
1, 66240, Note_on_c, 9, 36, 125
1, 66249, Note_on_c, 9, 42, 0
1, 66480, Note_on_c, 9, 42, 78
1, 66489, Note_on_c, 9, 42, 0
1, 66719, Note_on_c, 9, 36, 0
1, 66720, Note_on_c, 9, 40, 127
1, 66720, Note_on_c, 9, 42, 108
1, 66729, Note_on_c, 9, 42, 0
1, 66959, Note_on_c, 9, 40, 0
1, 66960, Note_on_c, 9, 42, 78
1, 66969, Note_on_c, 9, 42, 0
1, 67200, Note_on_c, 9, 42, 108
1, 67200, Note_on_c, 9, 36, 119
1, 67209, Note_on_c, 9, 42, 0
1, 67440, Note_on_c, 9, 42, 74
1, 67449, Note_on_c, 9, 42, 0
1, 67679, Note_on_c, 9, 36, 0
1, 67680, Note_on_c, 9, 40, 127
1, 67680, Note_on_c, 9, 42, 108
1, 67689, Note_on_c, 9, 42, 0
1, 67919, Note_on_c, 9, 40, 0
1, 67920, Note_on_c, 9, 42, 76
1, 67929, Note_on_c, 9, 42, 0
1, 68160, Note_on_c, 9, 42, 108
1, 68160, Note_on_c, 9, 36, 119
1, 68169, Note_on_c, 9, 42, 0
1, 68400, Note_on_c, 9, 42, 76
1, 68409, Note_on_c, 9, 42, 0
1, 68639, Note_on_c, 9, 36, 0
1, 68640, Note_on_c, 9, 40, 121
1, 68640, Note_on_c, 9, 42, 113
1, 68649, Note_on_c, 9, 42, 0
1, 68879, Note_on_c, 9, 40, 0
1, 68880, Note_on_c, 9, 42, 76
1, 68889, Note_on_c, 9, 42, 0
1, 69120, Note_on_c, 9, 42, 108
1, 69120, Note_on_c, 9, 36, 125
1, 69129, Note_on_c, 9, 42, 0
1, 69360, Note_on_c, 9, 42, 72
1, 69369, Note_on_c, 9, 42, 0
1, 69599, Note_on_c, 9, 36, 0
1, 69600, Note_on_c, 9, 40, 127
1, 69600, Note_on_c, 9, 42, 113
1, 69609, Note_on_c, 9, 42, 0
1, 69839, Note_on_c, 9, 40, 0
1, 69840, Note_on_c, 9, 42, 78
1, 69849, Note_on_c, 9, 42, 0
1, 70080, Note_on_c, 9, 42, 108
1, 70080, Note_on_c, 9, 36, 113
1, 70089, Note_on_c, 9, 42, 0
1, 70320, Note_on_c, 9, 42, 76
1, 70329, Note_on_c, 9, 42, 0
1, 70559, Note_on_c, 9, 36, 0
1, 70560, Note_on_c, 9, 40, 127
1, 70560, Note_on_c, 9, 42, 113
1, 70569, Note_on_c, 9, 42, 0
1, 70799, Note_on_c, 9, 40, 0
1, 70800, Note_on_c, 9, 42, 82
1, 70809, Note_on_c, 9, 42, 0
1, 71040, Note_on_c, 9, 42, 113
1, 71040, Note_on_c, 9, 36, 119
1, 71049, Note_on_c, 9, 42, 0
1, 71280, Note_on_c, 9, 42, 78
1, 71289, Note_on_c, 9, 42, 0
1, 71519, Note_on_c, 9, 36, 0
1, 71520, Note_on_c, 9, 40, 127
1, 71520, Note_on_c, 9, 42, 119
1, 71529, Note_on_c, 9, 42, 0
1, 71759, Note_on_c, 9, 40, 0
1, 71760, Note_on_c, 9, 42, 76
1, 71769, Note_on_c, 9, 42, 0
1, 72000, Note_on_c, 9, 42, 108
1, 72000, Note_on_c, 9, 36, 119
1, 72009, Note_on_c, 9, 42, 0
1, 72240, Note_on_c, 9, 42, 82
1, 72249, Note_on_c, 9, 42, 0
1, 72479, Note_on_c, 9, 36, 0
1, 72480, Note_on_c, 9, 40, 127
1, 72480, Note_on_c, 9, 42, 113
1, 72489, Note_on_c, 9, 42, 0
1, 72719, Note_on_c, 9, 40, 0
1, 72720, Note_on_c, 9, 42, 82
1, 72729, Note_on_c, 9, 42, 0
1, 72960, Note_on_c, 9, 42, 113
1, 72960, Note_on_c, 9, 36, 127
1, 72969, Note_on_c, 9, 42, 0
1, 73200, Note_on_c, 9, 42, 82
1, 73209, Note_on_c, 9, 42, 0
1, 73439, Note_on_c, 9, 36, 0
1, 73440, Note_on_c, 9, 40, 127
1, 73440, Note_on_c, 9, 42, 113
1, 73449, Note_on_c, 9, 42, 0
1, 73679, Note_on_c, 9, 40, 0
1, 73680, Note_on_c, 9, 42, 82
1, 73689, Note_on_c, 9, 42, 0
1, 73920, Note_on_c, 9, 42, 113
1, 73920, Note_on_c, 9, 36, 125
1, 73929, Note_on_c, 9, 42, 0
1, 74160, Note_on_c, 9, 42, 82
1, 74169, Note_on_c, 9, 42, 0
1, 74399, Note_on_c, 9, 36, 0
1, 74400, Note_on_c, 9, 40, 127
1, 74400, Note_on_c, 9, 42, 115
1, 74400, Note_on_c, 9, 42, 0
1, 74419, Note_on_c, 9, 40, 0
1, 74420, Note_on_c, 9, 40, 127
1, 74459, Note_on_c, 9, 40, 0
1, 74880, Note_on_c, 9, 42, 102
1, 74880, Note_on_c, 9, 49, 98
1, 74880, Note_on_c, 9, 36, 125
1, 74889, Note_on_c, 9, 42, 0
1, 74889, Note_on_c, 9, 49, 0
1, 75120, Note_on_c, 9, 42, 57
1, 75129, Note_on_c, 9, 42, 0
1, 75359, Note_on_c, 9, 36, 0
1, 75360, Note_on_c, 9, 40, 127
1, 75360, Note_on_c, 9, 42, 102
1, 75369, Note_on_c, 9, 42, 0
1, 75599, Note_on_c, 9, 40, 0
1, 75600, Note_on_c, 9, 42, 51
1, 75609, Note_on_c, 9, 42, 0
1, 75840, Note_on_c, 9, 42, 102
1, 75840, Note_on_c, 9, 36, 113
1, 75849, Note_on_c, 9, 42, 0
1, 76080, Note_on_c, 9, 42, 76
1, 76089, Note_on_c, 9, 42, 0
1, 76319, Note_on_c, 9, 36, 0
1, 76320, Note_on_c, 9, 40, 127
1, 76320, Note_on_c, 9, 42, 108
1, 76329, Note_on_c, 9, 42, 0
1, 76559, Note_on_c, 9, 40, 0
1, 76560, Note_on_c, 9, 42, 62
1, 76569, Note_on_c, 9, 42, 0
1, 76800, Note_on_c, 9, 42, 108
1, 76800, Note_on_c, 9, 36, 108
1, 76809, Note_on_c, 9, 42, 0
1, 77040, Note_on_c, 9, 42, 64
1, 77049, Note_on_c, 9, 42, 0
1, 77279, Note_on_c, 9, 36, 0
1, 77280, Note_on_c, 9, 40, 127
1, 77280, Note_on_c, 9, 42, 113
1, 77289, Note_on_c, 9, 42, 0
1, 77519, Note_on_c, 9, 40, 0
1, 77520, Note_on_c, 9, 42, 68
1, 77529, Note_on_c, 9, 42, 0
1, 77760, Note_on_c, 9, 42, 113
1, 77760, Note_on_c, 9, 36, 113
1, 77769, Note_on_c, 9, 42, 0
1, 78000, Note_on_c, 9, 42, 70
1, 78009, Note_on_c, 9, 42, 0
1, 78239, Note_on_c, 9, 36, 0
1, 78240, Note_on_c, 9, 40, 127
1, 78240, Note_on_c, 9, 42, 108
1, 78249, Note_on_c, 9, 42, 0
1, 78479, Note_on_c, 9, 40, 0
1, 78480, Note_on_c, 9, 42, 72
1, 78489, Note_on_c, 9, 42, 0
1, 78720, Note_on_c, 9, 42, 113
1, 78720, Note_on_c, 9, 36, 108
1, 78729, Note_on_c, 9, 42, 0
1, 78960, Note_on_c, 9, 42, 76
1, 78969, Note_on_c, 9, 42, 0
1, 79199, Note_on_c, 9, 36, 0
1, 79200, Note_on_c, 9, 40, 121
1, 79200, Note_on_c, 9, 42, 108
1, 79209, Note_on_c, 9, 42, 0
1, 79439, Note_on_c, 9, 40, 0
1, 79440, Note_on_c, 9, 42, 70
1, 79449, Note_on_c, 9, 42, 0
1, 79680, Note_on_c, 9, 42, 102
1, 79680, Note_on_c, 9, 36, 102
1, 79689, Note_on_c, 9, 42, 0
1, 79920, Note_on_c, 9, 42, 78
1, 79929, Note_on_c, 9, 42, 0
1, 80159, Note_on_c, 9, 36, 0
1, 80160, Note_on_c, 9, 40, 127
1, 80160, Note_on_c, 9, 42, 113
1, 80169, Note_on_c, 9, 42, 0
1, 80399, Note_on_c, 9, 40, 0
1, 80400, Note_on_c, 9, 42, 80
1, 80409, Note_on_c, 9, 42, 0
1, 80640, Note_on_c, 9, 42, 113
1, 80640, Note_on_c, 9, 36, 119
1, 80649, Note_on_c, 9, 42, 0
1, 80880, Note_on_c, 9, 42, 78
1, 80889, Note_on_c, 9, 42, 0
1, 81119, Note_on_c, 9, 36, 0
1, 81120, Note_on_c, 9, 40, 121
1, 81120, Note_on_c, 9, 42, 113
1, 81129, Note_on_c, 9, 42, 0
1, 81359, Note_on_c, 9, 40, 0
1, 81360, Note_on_c, 9, 42, 76
1, 81369, Note_on_c, 9, 42, 0
1, 81600, Note_on_c, 9, 42, 108
1, 81600, Note_on_c, 9, 36, 119
1, 81609, Note_on_c, 9, 42, 0
1, 81840, Note_on_c, 9, 42, 78
1, 81849, Note_on_c, 9, 42, 0
1, 82079, Note_on_c, 9, 36, 0
1, 82080, Note_on_c, 9, 40, 121
1, 82080, Note_on_c, 9, 42, 111
1, 82089, Note_on_c, 9, 42, 0
1, 82319, Note_on_c, 9, 40, 0
1, 82320, Note_on_c, 9, 46, 97
1, 82329, Note_on_c, 9, 46, 0
1, 82560, Note_on_c, 9, 42, 111
1, 82560, Note_on_c, 9, 36, 108
1, 82569, Note_on_c, 9, 42, 0
1, 82800, Note_on_c, 9, 42, 74
1, 82809, Note_on_c, 9, 42, 0
1, 83039, Note_on_c, 9, 36, 0
1, 83040, Note_on_c, 9, 40, 127
1, 83040, Note_on_c, 9, 42, 108
1, 83049, Note_on_c, 9, 42, 0
1, 83279, Note_on_c, 9, 40, 0
1, 83280, Note_on_c, 9, 42, 76
1, 83289, Note_on_c, 9, 42, 0
1, 83520, Note_on_c, 9, 42, 108
1, 83520, Note_on_c, 9, 36, 113
1, 83529, Note_on_c, 9, 42, 0
1, 83760, Note_on_c, 9, 42, 76
1, 83769, Note_on_c, 9, 42, 0
1, 83999, Note_on_c, 9, 36, 0
1, 84000, Note_on_c, 9, 40, 127
1, 84000, Note_on_c, 9, 42, 113
1, 84009, Note_on_c, 9, 42, 0
1, 84239, Note_on_c, 9, 40, 0
1, 84240, Note_on_c, 9, 42, 76
1, 84249, Note_on_c, 9, 42, 0
1, 84480, Note_on_c, 9, 42, 108
1, 84480, Note_on_c, 9, 36, 113
1, 84489, Note_on_c, 9, 42, 0
1, 84720, Note_on_c, 9, 42, 72
1, 84729, Note_on_c, 9, 42, 0
1, 84959, Note_on_c, 9, 36, 0
1, 84960, Note_on_c, 9, 40, 127
1, 84960, Note_on_c, 9, 42, 113
1, 84969, Note_on_c, 9, 42, 0
1, 85199, Note_on_c, 9, 40, 0
1, 85200, Note_on_c, 9, 42, 78
1, 85209, Note_on_c, 9, 42, 0
1, 85440, Note_on_c, 9, 42, 108
1, 85440, Note_on_c, 9, 36, 119
1, 85449, Note_on_c, 9, 42, 0
1, 85680, Note_on_c, 9, 42, 76
1, 85689, Note_on_c, 9, 42, 0
1, 85919, Note_on_c, 9, 36, 0
1, 85920, Note_on_c, 9, 40, 127
1, 85920, Note_on_c, 9, 42, 113
1, 85929, Note_on_c, 9, 42, 0
1, 86159, Note_on_c, 9, 40, 0
1, 86160, Note_on_c, 9, 42, 82
1, 86169, Note_on_c, 9, 42, 0
1, 86400, Note_on_c, 9, 42, 113
1, 86400, Note_on_c, 9, 36, 119
1, 86409, Note_on_c, 9, 42, 0
1, 86640, Note_on_c, 9, 42, 78
1, 86649, Note_on_c, 9, 42, 0
1, 86879, Note_on_c, 9, 36, 0
1, 86880, Note_on_c, 9, 40, 127
1, 86880, Note_on_c, 9, 42, 119
1, 86889, Note_on_c, 9, 42, 0
1, 87119, Note_on_c, 9, 40, 0
1, 87120, Note_on_c, 9, 42, 76
1, 87129, Note_on_c, 9, 42, 0
1, 87360, Note_on_c, 9, 42, 108
1, 87360, Note_on_c, 9, 36, 113
1, 87369, Note_on_c, 9, 42, 0
1, 87600, Note_on_c, 9, 42, 82
1, 87609, Note_on_c, 9, 42, 0
1, 87839, Note_on_c, 9, 36, 0
1, 87840, Note_on_c, 9, 40, 127
1, 87840, Note_on_c, 9, 42, 113
1, 87849, Note_on_c, 9, 42, 0
1, 88079, Note_on_c, 9, 40, 0
1, 88080, Note_on_c, 9, 42, 82
1, 88089, Note_on_c, 9, 42, 0
1, 88320, Note_on_c, 9, 40, 117
1, 88439, Note_on_c, 9, 40, 0
1, 88440, Note_on_c, 9, 40, 127
1, 88679, Note_on_c, 9, 40, 0
1, 88680, Note_on_c, 9, 40, 121
1, 88799, Note_on_c, 9, 40, 0
1, 88800, Note_on_c, 9, 40, 127
1, 88919, Note_on_c, 9, 40, 0
1, 88920, Note_on_c, 9, 40, 127
1, 89040, Note_on_c, 9, 43, 98
1, 89159, Note_on_c, 9, 40, 0
1, 89160, Note_on_c, 9, 41, 115
1, 89279, Note_on_c, 9, 43, 0
1, 89279, Note_on_c, 9, 41, 0
1, 89280, Note_on_c, 9, 36, 113
1, 89759, Note_on_c, 9, 36, 0
1, 90240, Note_on_c, 9, 36, 125
1, 90719, Note_on_c, 9, 36, 0
1, 90720, Note_on_c, 9, 40, 127
1, 91199, Note_on_c, 9, 40, 0
1, 91200, Note_on_c, 9, 36, 119
1, 91679, Note_on_c, 9, 36, 0
1, 91680, Note_on_c, 9, 40, 121
1, 92159, Note_on_c, 9, 40, 0
1, 92160, Note_on_c, 9, 36, 113
1, 92639, Note_on_c, 9, 36, 0
1, 92640, Note_on_c, 9, 40, 127
1, 93119, Note_on_c, 9, 40, 0
1, 93120, Note_on_c, 9, 36, 119
1, 93599, Note_on_c, 9, 36, 0
1, 93600, Note_on_c, 9, 40, 127
1, 93839, Note_on_c, 9, 40, 0
1, 93840, Note_on_c, 9, 46, 101
1, 93849, Note_on_c, 9, 46, 0
1, 94080, Note_on_c, 9, 42, 102
1, 94080, Note_on_c, 9, 36, 108
1, 94089, Note_on_c, 9, 42, 0
1, 94320, Note_on_c, 9, 42, 57
1, 94329, Note_on_c, 9, 42, 0
1, 94559, Note_on_c, 9, 36, 0
1, 94560, Note_on_c, 9, 40, 127
1, 94560, Note_on_c, 9, 42, 102
1, 94569, Note_on_c, 9, 42, 0
1, 94799, Note_on_c, 9, 40, 0
1, 94800, Note_on_c, 9, 42, 51
1, 94809, Note_on_c, 9, 42, 0
1, 95040, Note_on_c, 9, 42, 102
1, 95040, Note_on_c, 9, 36, 119
1, 95049, Note_on_c, 9, 42, 0
1, 95280, Note_on_c, 9, 42, 76
1, 95289, Note_on_c, 9, 42, 0
1, 95519, Note_on_c, 9, 36, 0
1, 95520, Note_on_c, 9, 40, 121
1, 95520, Note_on_c, 9, 42, 108
1, 95529, Note_on_c, 9, 42, 0
1, 95759, Note_on_c, 9, 40, 0
1, 95760, Note_on_c, 9, 42, 62
1, 95769, Note_on_c, 9, 42, 0
1, 96000, Note_on_c, 9, 42, 108
1, 96000, Note_on_c, 9, 36, 119
1, 96009, Note_on_c, 9, 42, 0
1, 96240, Note_on_c, 9, 42, 64
1, 96249, Note_on_c, 9, 42, 0
1, 96479, Note_on_c, 9, 36, 0
1, 96480, Note_on_c, 9, 40, 127
1, 96480, Note_on_c, 9, 42, 113
1, 96489, Note_on_c, 9, 42, 0
1, 96719, Note_on_c, 9, 40, 0
1, 96720, Note_on_c, 9, 42, 68
1, 96729, Note_on_c, 9, 42, 0
1, 96960, Note_on_c, 9, 42, 113
1, 96960, Note_on_c, 9, 36, 102
1, 96969, Note_on_c, 9, 42, 0
1, 97200, Note_on_c, 9, 42, 70
1, 97209, Note_on_c, 9, 42, 0
1, 97439, Note_on_c, 9, 36, 0
1, 97440, Note_on_c, 9, 40, 127
1, 97440, Note_on_c, 9, 42, 108
1, 97449, Note_on_c, 9, 42, 0
1, 97679, Note_on_c, 9, 40, 0
1, 97680, Note_on_c, 9, 42, 72
1, 97689, Note_on_c, 9, 42, 0
1, 97920, Note_on_c, 9, 42, 113
1, 97920, Note_on_c, 9, 36, 113
1, 97929, Note_on_c, 9, 42, 0
1, 98160, Note_on_c, 9, 42, 76
1, 98169, Note_on_c, 9, 42, 0
1, 98399, Note_on_c, 9, 36, 0
1, 98400, Note_on_c, 9, 40, 127
1, 98400, Note_on_c, 9, 42, 108
1, 98409, Note_on_c, 9, 42, 0
1, 98639, Note_on_c, 9, 40, 0
1, 98640, Note_on_c, 9, 42, 70
1, 98649, Note_on_c, 9, 42, 0
1, 98880, Note_on_c, 9, 42, 102
1, 98880, Note_on_c, 9, 36, 125
1, 98889, Note_on_c, 9, 42, 0
1, 99120, Note_on_c, 9, 42, 78
1, 99129, Note_on_c, 9, 42, 0
1, 99359, Note_on_c, 9, 36, 0
1, 99360, Note_on_c, 9, 40, 127
1, 99360, Note_on_c, 9, 42, 113
1, 99369, Note_on_c, 9, 42, 0
1, 99599, Note_on_c, 9, 40, 0
1, 99600, Note_on_c, 9, 42, 80
1, 99609, Note_on_c, 9, 42, 0
1, 99840, Note_on_c, 9, 42, 113
1, 99840, Note_on_c, 9, 36, 127
1, 99849, Note_on_c, 9, 42, 0
1, 100080, Note_on_c, 9, 42, 78
1, 100089, Note_on_c, 9, 42, 0
1, 100319, Note_on_c, 9, 36, 0
1, 100320, Note_on_c, 9, 40, 127
1, 100320, Note_on_c, 9, 42, 113
1, 100329, Note_on_c, 9, 42, 0
1, 100559, Note_on_c, 9, 40, 0
1, 100560, Note_on_c, 9, 42, 76
1, 100569, Note_on_c, 9, 42, 0
1, 100800, Note_on_c, 9, 42, 108
1, 100800, Note_on_c, 9, 36, 125
1, 100809, Note_on_c, 9, 42, 0
1, 101040, Note_on_c, 9, 42, 78
1, 101049, Note_on_c, 9, 42, 0
1, 101279, Note_on_c, 9, 36, 0
1, 101280, Note_on_c, 9, 40, 127
1, 101280, Note_on_c, 9, 42, 108
1, 101289, Note_on_c, 9, 42, 0
1, 101519, Note_on_c, 9, 40, 0
1, 101520, Note_on_c, 9, 42, 78
1, 101529, Note_on_c, 9, 42, 0
1, 101760, Note_on_c, 9, 42, 108
1, 101760, Note_on_c, 9, 36, 119
1, 101769, Note_on_c, 9, 42, 0
1, 102000, Note_on_c, 9, 42, 74
1, 102009, Note_on_c, 9, 42, 0
1, 102239, Note_on_c, 9, 36, 0
1, 102240, Note_on_c, 9, 40, 127
1, 102240, Note_on_c, 9, 42, 108
1, 102249, Note_on_c, 9, 42, 0
1, 102479, Note_on_c, 9, 40, 0
1, 102480, Note_on_c, 9, 42, 76
1, 102489, Note_on_c, 9, 42, 0
1, 102720, Note_on_c, 9, 42, 108
1, 102720, Note_on_c, 9, 36, 119
1, 102729, Note_on_c, 9, 42, 0
1, 102960, Note_on_c, 9, 42, 76
1, 102969, Note_on_c, 9, 42, 0
1, 103199, Note_on_c, 9, 36, 0
1, 103200, Note_on_c, 9, 40, 121
1, 103200, Note_on_c, 9, 42, 113
1, 103209, Note_on_c, 9, 42, 0
1, 103439, Note_on_c, 9, 40, 0
1, 103440, Note_on_c, 9, 42, 76
1, 103449, Note_on_c, 9, 42, 0
1, 103680, Note_on_c, 9, 42, 108
1, 103680, Note_on_c, 9, 36, 125
1, 103689, Note_on_c, 9, 42, 0
1, 103920, Note_on_c, 9, 42, 72
1, 103929, Note_on_c, 9, 42, 0
1, 104159, Note_on_c, 9, 36, 0
1, 104160, Note_on_c, 9, 40, 127
1, 104160, Note_on_c, 9, 42, 113
1, 104169, Note_on_c, 9, 42, 0
1, 104399, Note_on_c, 9, 40, 0
1, 104400, Note_on_c, 9, 42, 78
1, 104409, Note_on_c, 9, 42, 0
1, 104640, Note_on_c, 9, 42, 108
1, 104640, Note_on_c, 9, 36, 113
1, 104649, Note_on_c, 9, 42, 0
1, 104880, Note_on_c, 9, 42, 76
1, 104889, Note_on_c, 9, 42, 0
1, 105119, Note_on_c, 9, 36, 0
1, 105120, Note_on_c, 9, 40, 127
1, 105120, Note_on_c, 9, 42, 113
1, 105129, Note_on_c, 9, 42, 0
1, 105359, Note_on_c, 9, 40, 0
1, 105360, Note_on_c, 9, 42, 82
1, 105369, Note_on_c, 9, 42, 0
1, 105600, Note_on_c, 9, 42, 113
1, 105600, Note_on_c, 9, 36, 119
1, 105609, Note_on_c, 9, 42, 0
1, 105840, Note_on_c, 9, 42, 78
1, 105849, Note_on_c, 9, 42, 0
1, 106079, Note_on_c, 9, 36, 0
1, 106080, Note_on_c, 9, 40, 127
1, 106080, Note_on_c, 9, 42, 119
1, 106089, Note_on_c, 9, 42, 0
1, 106319, Note_on_c, 9, 40, 0
1, 106320, Note_on_c, 9, 42, 76
1, 106329, Note_on_c, 9, 42, 0
1, 106560, Note_on_c, 9, 42, 108
1, 106560, Note_on_c, 9, 36, 119
1, 106569, Note_on_c, 9, 42, 0
1, 106800, Note_on_c, 9, 42, 82
1, 106809, Note_on_c, 9, 42, 0
1, 107039, Note_on_c, 9, 36, 0
1, 107040, Note_on_c, 9, 40, 127
1, 107040, Note_on_c, 9, 42, 113
1, 107049, Note_on_c, 9, 42, 0
1, 107279, Note_on_c, 9, 40, 0
1, 107280, Note_on_c, 9, 42, 82
1, 107289, Note_on_c, 9, 42, 0
1, 107520, Note_on_c, 9, 42, 113
1, 107520, Note_on_c, 9, 36, 127
1, 107529, Note_on_c, 9, 42, 0
1, 107760, Note_on_c, 9, 42, 82
1, 107769, Note_on_c, 9, 42, 0
1, 107999, Note_on_c, 9, 36, 0
1, 108000, Note_on_c, 9, 40, 127
1, 108000, Note_on_c, 9, 42, 113
1, 108009, Note_on_c, 9, 42, 0
1, 108239, Note_on_c, 9, 40, 0
1, 108240, Note_on_c, 9, 42, 82
1, 108249, Note_on_c, 9, 42, 0
1, 108480, Note_on_c, 9, 42, 113
1, 108480, Note_on_c, 9, 36, 125
1, 108489, Note_on_c, 9, 42, 0
1, 108720, Note_on_c, 9, 42, 82
1, 108729, Note_on_c, 9, 42, 0
1, 108959, Note_on_c, 9, 36, 0
1, 108960, Note_on_c, 9, 40, 127
1, 108960, Note_on_c, 9, 42, 115
1, 108960, Note_on_c, 9, 42, 0
1, 108979, Note_on_c, 9, 40, 0
1, 108980, Note_on_c, 9, 40, 127
1, 109019, Note_on_c, 9, 40, 0
1, 109200, Note_on_c, 9, 42, 115
1, 109209, Note_on_c, 9, 42, 0
1, 109440, Note_on_c, 9, 42, 102
1, 109440, Note_on_c, 9, 49, 98
1, 109440, Note_on_c, 9, 36, 125
1, 109449, Note_on_c, 9, 42, 0
1, 109449, Note_on_c, 9, 49, 0
1, 109680, Note_on_c, 9, 42, 57
1, 109689, Note_on_c, 9, 42, 0
1, 109919, Note_on_c, 9, 36, 0
1, 109920, Note_on_c, 9, 40, 127
1, 109920, Note_on_c, 9, 42, 102
1, 109929, Note_on_c, 9, 42, 0
1, 110159, Note_on_c, 9, 40, 0
1, 110160, Note_on_c, 9, 42, 51
1, 110169, Note_on_c, 9, 42, 0
1, 110400, Note_on_c, 9, 42, 102
1, 110400, Note_on_c, 9, 36, 113
1, 110409, Note_on_c, 9, 42, 0
1, 110640, Note_on_c, 9, 42, 76
1, 110649, Note_on_c, 9, 42, 0
1, 110879, Note_on_c, 9, 36, 0
1, 110880, Note_on_c, 9, 40, 127
1, 110880, Note_on_c, 9, 42, 108
1, 110889, Note_on_c, 9, 42, 0
1, 111119, Note_on_c, 9, 40, 0
1, 111120, Note_on_c, 9, 42, 62
1, 111129, Note_on_c, 9, 42, 0
1, 111360, Note_on_c, 9, 42, 108
1, 111360, Note_on_c, 9, 36, 108
1, 111369, Note_on_c, 9, 42, 0
1, 111600, Note_on_c, 9, 42, 64
1, 111609, Note_on_c, 9, 42, 0
1, 111839, Note_on_c, 9, 36, 0
1, 111840, Note_on_c, 9, 40, 127
1, 111840, Note_on_c, 9, 42, 113
1, 111849, Note_on_c, 9, 42, 0
1, 112079, Note_on_c, 9, 40, 0
1, 112080, Note_on_c, 9, 42, 68
1, 112089, Note_on_c, 9, 42, 0
1, 112320, Note_on_c, 9, 42, 113
1, 112320, Note_on_c, 9, 36, 113
1, 112329, Note_on_c, 9, 42, 0
1, 112560, Note_on_c, 9, 42, 70
1, 112569, Note_on_c, 9, 42, 0
1, 112799, Note_on_c, 9, 36, 0
1, 112800, Note_on_c, 9, 40, 127
1, 112800, Note_on_c, 9, 42, 108
1, 112809, Note_on_c, 9, 42, 0
1, 113039, Note_on_c, 9, 40, 0
1, 113040, Note_on_c, 9, 42, 72
1, 113049, Note_on_c, 9, 42, 0
1, 113280, Note_on_c, 9, 42, 113
1, 113280, Note_on_c, 9, 36, 108
1, 113289, Note_on_c, 9, 42, 0
1, 113520, Note_on_c, 9, 42, 76
1, 113529, Note_on_c, 9, 42, 0
1, 113759, Note_on_c, 9, 36, 0
1, 113760, Note_on_c, 9, 40, 121
1, 113760, Note_on_c, 9, 42, 108
1, 113769, Note_on_c, 9, 42, 0
1, 113999, Note_on_c, 9, 40, 0
1, 114000, Note_on_c, 9, 42, 70
1, 114009, Note_on_c, 9, 42, 0
1, 114240, Note_on_c, 9, 42, 102
1, 114240, Note_on_c, 9, 36, 102
1, 114249, Note_on_c, 9, 42, 0
1, 114480, Note_on_c, 9, 42, 78
1, 114489, Note_on_c, 9, 42, 0
1, 114719, Note_on_c, 9, 36, 0
1, 114720, Note_on_c, 9, 40, 127
1, 114720, Note_on_c, 9, 42, 113
1, 114729, Note_on_c, 9, 42, 0
1, 114959, Note_on_c, 9, 40, 0
1, 114960, Note_on_c, 9, 42, 80
1, 114969, Note_on_c, 9, 42, 0
1, 115200, Note_on_c, 9, 42, 113
1, 115200, Note_on_c, 9, 36, 119
1, 115209, Note_on_c, 9, 42, 0
1, 115440, Note_on_c, 9, 42, 78
1, 115449, Note_on_c, 9, 42, 0
1, 115679, Note_on_c, 9, 36, 0
1, 115680, Note_on_c, 9, 40, 121
1, 115680, Note_on_c, 9, 42, 113
1, 115689, Note_on_c, 9, 42, 0
1, 115919, Note_on_c, 9, 40, 0
1, 115920, Note_on_c, 9, 42, 76
1, 115929, Note_on_c, 9, 42, 0
1, 116160, Note_on_c, 9, 42, 108
1, 116160, Note_on_c, 9, 36, 119
1, 116169, Note_on_c, 9, 42, 0
1, 116400, Note_on_c, 9, 42, 78
1, 116409, Note_on_c, 9, 42, 0
1, 116639, Note_on_c, 9, 36, 0
1, 116640, Note_on_c, 9, 40, 121
1, 116640, Note_on_c, 9, 42, 111
1, 116649, Note_on_c, 9, 42, 0
1, 116879, Note_on_c, 9, 40, 0
1, 116880, Note_on_c, 9, 46, 97
1, 116889, Note_on_c, 9, 46, 0
1, 117120, Note_on_c, 9, 42, 111
1, 117120, Note_on_c, 9, 36, 108
1, 117129, Note_on_c, 9, 42, 0
1, 117360, Note_on_c, 9, 42, 74
1, 117369, Note_on_c, 9, 42, 0
1, 117599, Note_on_c, 9, 36, 0
1, 117600, Note_on_c, 9, 40, 127
1, 117600, Note_on_c, 9, 42, 108
1, 117609, Note_on_c, 9, 42, 0
1, 117839, Note_on_c, 9, 40, 0
1, 117840, Note_on_c, 9, 42, 76
1, 117849, Note_on_c, 9, 42, 0
1, 118080, Note_on_c, 9, 42, 108
1, 118080, Note_on_c, 9, 36, 113
1, 118089, Note_on_c, 9, 42, 0
1, 118320, Note_on_c, 9, 42, 76
1, 118329, Note_on_c, 9, 42, 0
1, 118559, Note_on_c, 9, 36, 0
1, 118560, Note_on_c, 9, 40, 127
1, 118560, Note_on_c, 9, 42, 113
1, 118569, Note_on_c, 9, 42, 0
1, 118799, Note_on_c, 9, 40, 0
1, 118800, Note_on_c, 9, 42, 76
1, 118809, Note_on_c, 9, 42, 0
1, 119040, Note_on_c, 9, 42, 108
1, 119040, Note_on_c, 9, 36, 113
1, 119049, Note_on_c, 9, 42, 0
1, 119280, Note_on_c, 9, 42, 72
1, 119289, Note_on_c, 9, 42, 0
1, 119519, Note_on_c, 9, 36, 0
1, 119520, Note_on_c, 9, 40, 127
1, 119520, Note_on_c, 9, 42, 113
1, 119529, Note_on_c, 9, 42, 0
1, 119759, Note_on_c, 9, 40, 0
1, 119760, Note_on_c, 9, 42, 78
1, 119769, Note_on_c, 9, 42, 0
1, 120000, Note_on_c, 9, 42, 108
1, 120000, Note_on_c, 9, 36, 119
1, 120009, Note_on_c, 9, 42, 0
1, 120240, Note_on_c, 9, 42, 76
1, 120249, Note_on_c, 9, 42, 0
1, 120479, Note_on_c, 9, 36, 0
1, 120480, Note_on_c, 9, 40, 127
1, 120480, Note_on_c, 9, 42, 113
1, 120489, Note_on_c, 9, 42, 0
1, 120719, Note_on_c, 9, 40, 0
1, 120720, Note_on_c, 9, 42, 82
1, 120729, Note_on_c, 9, 42, 0
1, 120960, Note_on_c, 9, 42, 113
1, 120960, Note_on_c, 9, 36, 119
1, 120969, Note_on_c, 9, 42, 0
1, 121200, Note_on_c, 9, 42, 78
1, 121209, Note_on_c, 9, 42, 0
1, 121439, Note_on_c, 9, 36, 0
1, 121440, Note_on_c, 9, 40, 127
1, 121440, Note_on_c, 9, 42, 119
1, 121449, Note_on_c, 9, 42, 0
1, 121679, Note_on_c, 9, 40, 0
1, 121680, Note_on_c, 9, 42, 76
1, 121689, Note_on_c, 9, 42, 0
1, 121920, Note_on_c, 9, 42, 108
1, 121920, Note_on_c, 9, 36, 113
1, 121929, Note_on_c, 9, 42, 0
1, 122160, Note_on_c, 9, 42, 82
1, 122169, Note_on_c, 9, 42, 0
1, 122399, Note_on_c, 9, 36, 0
1, 122400, Note_on_c, 9, 40, 127
1, 122400, Note_on_c, 9, 42, 113
1, 122409, Note_on_c, 9, 42, 0
1, 122639, Note_on_c, 9, 40, 0
1, 122640, Note_on_c, 9, 42, 82
1, 122649, Note_on_c, 9, 42, 0
1, 122880, Note_on_c, 9, 40, 117
1, 122999, Note_on_c, 9, 40, 0
1, 123000, Note_on_c, 9, 40, 127
1, 123239, Note_on_c, 9, 40, 0
1, 123240, Note_on_c, 9, 40, 121
1, 123359, Note_on_c, 9, 40, 0
1, 123360, Note_on_c, 9, 40, 127
1, 123479, Note_on_c, 9, 40, 0
1, 123480, Note_on_c, 9, 40, 127
1, 123600, Note_on_c, 9, 43, 98
1, 123719, Note_on_c, 9, 40, 0
1, 123720, Note_on_c, 9, 41, 115
1, 123839, Note_on_c, 9, 43, 0
1, 123839, Note_on_c, 9, 41, 0
1, 123840, Note_on_c, 9, 40, 127
1, 123840, Note_on_c, 9, 36, 113
1, 124319, Note_on_c, 9, 40, 0
1, 124319, Note_on_c, 9, 36, 0
1, 124800, Note_on_c, 9, 36, 125
1, 125279, Note_on_c, 9, 36, 0
1, 125280, Note_on_c, 9, 40, 127
1, 125759, Note_on_c, 9, 40, 0
1, 125760, Note_on_c, 9, 36, 119
1, 126239, Note_on_c, 9, 36, 0
1, 126240, Note_on_c, 9, 40, 121
1, 126719, Note_on_c, 9, 40, 0
1, 126720, Note_on_c, 9, 36, 113
1, 127199, Note_on_c, 9, 36, 0
1, 127200, Note_on_c, 9, 40, 127
1, 127679, Note_on_c, 9, 40, 0
1, 127680, Note_on_c, 9, 36, 119
1, 128159, Note_on_c, 9, 36, 0
1, 128160, Note_on_c, 9, 40, 127
1, 128639, Note_on_c, 9, 40, 0
1, 128640, Note_on_c, 9, 42, 102
1, 128640, Note_on_c, 9, 36, 125
1, 128649, Note_on_c, 9, 42, 0
1, 128880, Note_on_c, 9, 42, 57
1, 128889, Note_on_c, 9, 42, 0
1, 129119, Note_on_c, 9, 36, 0
1, 129120, Note_on_c, 9, 40, 127
1, 129120, Note_on_c, 9, 42, 102
1, 129129, Note_on_c, 9, 42, 0
1, 129359, Note_on_c, 9, 40, 0
1, 129360, Note_on_c, 9, 42, 51
1, 129369, Note_on_c, 9, 42, 0
1, 129600, Note_on_c, 9, 42, 102
1, 129600, Note_on_c, 9, 36, 119
1, 129609, Note_on_c, 9, 42, 0
1, 129840, Note_on_c, 9, 42, 76
1, 129849, Note_on_c, 9, 42, 0
1, 130079, Note_on_c, 9, 36, 0
1, 130080, Note_on_c, 9, 40, 121
1, 130080, Note_on_c, 9, 42, 108
1, 130089, Note_on_c, 9, 42, 0
1, 130319, Note_on_c, 9, 40, 0
1, 130320, Note_on_c, 9, 42, 62
1, 130329, Note_on_c, 9, 42, 0
1, 130560, Note_on_c, 9, 42, 108
1, 130560, Note_on_c, 9, 36, 113
1, 130569, Note_on_c, 9, 42, 0
1, 130800, Note_on_c, 9, 42, 64
1, 130809, Note_on_c, 9, 42, 0
1, 131039, Note_on_c, 9, 36, 0
1, 131040, Note_on_c, 9, 40, 127
1, 131040, Note_on_c, 9, 42, 113
1, 131049, Note_on_c, 9, 42, 0
1, 131279, Note_on_c, 9, 40, 0
1, 131280, Note_on_c, 9, 42, 68
1, 131289, Note_on_c, 9, 42, 0
1, 131520, Note_on_c, 9, 42, 113
1, 131520, Note_on_c, 9, 36, 119
1, 131529, Note_on_c, 9, 42, 0
1, 131760, Note_on_c, 9, 42, 70
1, 131769, Note_on_c, 9, 42, 0
1, 131999, Note_on_c, 9, 36, 0
1, 132000, Note_on_c, 9, 40, 127
1, 132000, Note_on_c, 9, 42, 108
1, 132009, Note_on_c, 9, 42, 0
1, 132239, Note_on_c, 9, 40, 0
1, 132240, Note_on_c, 9, 42, 72
1, 132249, Note_on_c, 9, 42, 0
1, 132480, Note_on_c, 9, 42, 102
1, 132480, Note_on_c, 9, 36, 108
1, 132489, Note_on_c, 9, 42, 0
1, 132720, Note_on_c, 9, 42, 57
1, 132729, Note_on_c, 9, 42, 0
1, 132959, Note_on_c, 9, 36, 0
1, 132960, Note_on_c, 9, 40, 127
1, 132960, Note_on_c, 9, 42, 102
1, 132969, Note_on_c, 9, 42, 0
1, 133199, Note_on_c, 9, 40, 0
1, 133200, Note_on_c, 9, 42, 51
1, 133209, Note_on_c, 9, 42, 0
1, 133440, Note_on_c, 9, 42, 102
1, 133440, Note_on_c, 9, 36, 119
1, 133449, Note_on_c, 9, 42, 0
1, 133680, Note_on_c, 9, 42, 76
1, 133689, Note_on_c, 9, 42, 0
1, 133919, Note_on_c, 9, 36, 0
1, 133920, Note_on_c, 9, 40, 121
1, 133920, Note_on_c, 9, 42, 108
1, 133929, Note_on_c, 9, 42, 0
1, 134159, Note_on_c, 9, 40, 0
1, 134160, Note_on_c, 9, 42, 62
1, 134169, Note_on_c, 9, 42, 0
1, 134400, Note_on_c, 9, 42, 108
1, 134400, Note_on_c, 9, 36, 119
1, 134409, Note_on_c, 9, 42, 0
1, 134640, Note_on_c, 9, 42, 64
1, 134649, Note_on_c, 9, 42, 0
1, 134879, Note_on_c, 9, 36, 0
1, 134880, Note_on_c, 9, 40, 127
1, 134880, Note_on_c, 9, 42, 113
1, 134889, Note_on_c, 9, 42, 0
1, 135119, Note_on_c, 9, 40, 0
1, 135120, Note_on_c, 9, 42, 68
1, 135129, Note_on_c, 9, 42, 0
1, 135360, Note_on_c, 9, 42, 113
1, 135360, Note_on_c, 9, 36, 102
1, 135369, Note_on_c, 9, 42, 0
1, 135600, Note_on_c, 9, 42, 70
1, 135609, Note_on_c, 9, 42, 0
1, 135839, Note_on_c, 9, 36, 0
1, 135840, Note_on_c, 9, 40, 127
1, 135840, Note_on_c, 9, 42, 108
1, 135849, Note_on_c, 9, 42, 0
1, 136079, Note_on_c, 9, 40, 0
1, 136080, Note_on_c, 9, 42, 72
1, 136089, Note_on_c, 9, 42, 0
1, 136320, Note_on_c, 9, 42, 113
1, 136320, Note_on_c, 9, 36, 113
1, 136329, Note_on_c, 9, 42, 0
1, 136560, Note_on_c, 9, 42, 76
1, 136569, Note_on_c, 9, 42, 0
1, 136799, Note_on_c, 9, 36, 0
1, 136800, Note_on_c, 9, 40, 127
1, 136800, Note_on_c, 9, 42, 108
1, 136809, Note_on_c, 9, 42, 0
1, 137039, Note_on_c, 9, 40, 0
1, 137040, Note_on_c, 9, 42, 70
1, 137049, Note_on_c, 9, 42, 0
1, 137280, Note_on_c, 9, 42, 102
1, 137280, Note_on_c, 9, 36, 125
1, 137289, Note_on_c, 9, 42, 0
1, 137520, Note_on_c, 9, 42, 78
1, 137529, Note_on_c, 9, 42, 0
1, 137759, Note_on_c, 9, 36, 0
1, 137760, Note_on_c, 9, 40, 127
1, 137760, Note_on_c, 9, 42, 113
1, 137769, Note_on_c, 9, 42, 0
1, 137999, Note_on_c, 9, 40, 0
1, 138000, Note_on_c, 9, 42, 80
1, 138009, Note_on_c, 9, 42, 0
1, 138240, Note_on_c, 9, 42, 113
1, 138240, Note_on_c, 9, 36, 127
1, 138249, Note_on_c, 9, 42, 0
1, 138480, Note_on_c, 9, 42, 78
1, 138489, Note_on_c, 9, 42, 0
1, 138719, Note_on_c, 9, 36, 0
1, 138720, Note_on_c, 9, 40, 127
1, 138720, Note_on_c, 9, 42, 113
1, 138729, Note_on_c, 9, 42, 0
1, 138959, Note_on_c, 9, 40, 0
1, 138960, Note_on_c, 9, 42, 76
1, 138969, Note_on_c, 9, 42, 0
1, 139200, Note_on_c, 9, 42, 108
1, 139200, Note_on_c, 9, 36, 125
1, 139209, Note_on_c, 9, 42, 0
1, 139440, Note_on_c, 9, 42, 78
1, 139449, Note_on_c, 9, 42, 0
1, 139679, Note_on_c, 9, 36, 0
1, 139680, Note_on_c, 9, 40, 127
1, 139680, Note_on_c, 9, 42, 108
1, 139689, Note_on_c, 9, 42, 0
1, 139919, Note_on_c, 9, 40, 0
1, 139920, Note_on_c, 9, 42, 78
1, 139929, Note_on_c, 9, 42, 0
1, 140160, Note_on_c, 9, 42, 108
1, 140160, Note_on_c, 9, 36, 119
1, 140169, Note_on_c, 9, 42, 0
1, 140400, Note_on_c, 9, 42, 74
1, 140409, Note_on_c, 9, 42, 0
1, 140639, Note_on_c, 9, 36, 0
1, 140640, Note_on_c, 9, 40, 127
1, 140640, Note_on_c, 9, 42, 108
1, 140649, Note_on_c, 9, 42, 0
1, 140879, Note_on_c, 9, 40, 0
1, 140880, Note_on_c, 9, 42, 76
1, 140889, Note_on_c, 9, 42, 0
1, 141120, Note_on_c, 9, 42, 108
1, 141120, Note_on_c, 9, 36, 119
1, 141129, Note_on_c, 9, 42, 0
1, 141360, Note_on_c, 9, 42, 76
1, 141369, Note_on_c, 9, 42, 0
1, 141599, Note_on_c, 9, 36, 0
1, 141600, Note_on_c, 9, 40, 121
1, 141600, Note_on_c, 9, 42, 113
1, 141609, Note_on_c, 9, 42, 0
1, 141839, Note_on_c, 9, 40, 0
1, 141840, Note_on_c, 9, 42, 76
1, 141849, Note_on_c, 9, 42, 0
1, 142080, Note_on_c, 9, 42, 108
1, 142080, Note_on_c, 9, 36, 125
1, 142089, Note_on_c, 9, 42, 0
1, 142320, Note_on_c, 9, 42, 72
1, 142329, Note_on_c, 9, 42, 0
1, 142559, Note_on_c, 9, 36, 0
1, 142560, Note_on_c, 9, 40, 127
1, 142560, Note_on_c, 9, 42, 113
1, 142569, Note_on_c, 9, 42, 0
1, 142799, Note_on_c, 9, 40, 0
1, 142800, Note_on_c, 9, 42, 78
1, 142809, Note_on_c, 9, 42, 0
1, 143040, Note_on_c, 9, 42, 108
1, 143040, Note_on_c, 9, 36, 113
1, 143049, Note_on_c, 9, 42, 0
1, 143280, Note_on_c, 9, 42, 76
1, 143289, Note_on_c, 9, 42, 0
1, 143519, Note_on_c, 9, 36, 0
1, 143520, Note_on_c, 9, 40, 127
1, 143520, Note_on_c, 9, 42, 113
1, 143529, Note_on_c, 9, 42, 0
1, 143759, Note_on_c, 9, 40, 0
1, 143760, Note_on_c, 9, 42, 82
1, 143769, Note_on_c, 9, 42, 0
1, 144000, Note_on_c, 9, 42, 113
1, 144000, Note_on_c, 9, 36, 119
1, 144009, Note_on_c, 9, 42, 0
1, 144240, Note_on_c, 9, 42, 78
1, 144249, Note_on_c, 9, 42, 0
1, 144479, Note_on_c, 9, 36, 0
1, 144480, Note_on_c, 9, 40, 127
1, 144480, Note_on_c, 9, 42, 119
1, 144489, Note_on_c, 9, 42, 0
1, 144719, Note_on_c, 9, 40, 0
1, 144720, Note_on_c, 9, 42, 76
1, 144729, Note_on_c, 9, 42, 0
1, 144960, Note_on_c, 9, 42, 108
1, 144960, Note_on_c, 9, 36, 119
1, 144969, Note_on_c, 9, 42, 0
1, 145200, Note_on_c, 9, 42, 82
1, 145209, Note_on_c, 9, 42, 0
1, 145439, Note_on_c, 9, 36, 0
1, 145440, Note_on_c, 9, 40, 127
1, 145440, Note_on_c, 9, 42, 113
1, 145449, Note_on_c, 9, 42, 0
1, 145679, Note_on_c, 9, 40, 0
1, 145680, Note_on_c, 9, 42, 82
1, 145689, Note_on_c, 9, 42, 0
1, 145920, Note_on_c, 9, 42, 113
1, 145920, Note_on_c, 9, 36, 127
1, 145929, Note_on_c, 9, 42, 0
1, 146160, Note_on_c, 9, 42, 82
1, 146169, Note_on_c, 9, 42, 0
1, 146399, Note_on_c, 9, 36, 0
1, 146400, Note_on_c, 9, 40, 127
1, 146400, Note_on_c, 9, 42, 113
1, 146409, Note_on_c, 9, 42, 0
1, 146639, Note_on_c, 9, 40, 0
1, 146640, Note_on_c, 9, 42, 82
1, 146649, Note_on_c, 9, 42, 0
1, 146880, Note_on_c, 9, 42, 113
1, 146880, Note_on_c, 9, 36, 125
1, 146889, Note_on_c, 9, 42, 0
1, 147120, Note_on_c, 9, 42, 82
1, 147129, Note_on_c, 9, 42, 0
1, 147359, Note_on_c, 9, 36, 0
1, 147360, Note_on_c, 9, 40, 127
1, 147360, Note_on_c, 9, 42, 115
1, 147360, Note_on_c, 9, 42, 0
1, 147379, Note_on_c, 9, 40, 0
1, 147380, Note_on_c, 9, 40, 127
1, 147419, Note_on_c, 9, 40, 0
1, 147600, Note_on_c, 9, 42, 115
1, 147609, Note_on_c, 9, 42, 0
1, 147840, Note_on_c, 9, 42, 102
1, 147840, Note_on_c, 9, 49, 98
1, 147840, Note_on_c, 9, 36, 125
1, 147849, Note_on_c, 9, 42, 0
1, 147849, Note_on_c, 9, 49, 0
1, 148080, Note_on_c, 9, 42, 69
1, 148089, Note_on_c, 9, 42, 0
1, 148319, Note_on_c, 9, 36, 0
1, 148320, Note_on_c, 9, 40, 127
1, 148320, Note_on_c, 9, 42, 102
1, 148329, Note_on_c, 9, 42, 0
1, 148559, Note_on_c, 9, 40, 0
1, 148560, Note_on_c, 9, 42, 65
1, 148569, Note_on_c, 9, 42, 0
1, 148800, Note_on_c, 9, 42, 102
1, 148800, Note_on_c, 9, 36, 113
1, 148809, Note_on_c, 9, 42, 0
1, 149040, Note_on_c, 9, 42, 76
1, 149049, Note_on_c, 9, 42, 0
1, 149279, Note_on_c, 9, 36, 0
1, 149280, Note_on_c, 9, 40, 127
1, 149280, Note_on_c, 9, 42, 108
1, 149289, Note_on_c, 9, 42, 0
1, 149519, Note_on_c, 9, 40, 0
1, 149520, Note_on_c, 9, 42, 69
1, 149529, Note_on_c, 9, 42, 0
1, 149760, Note_on_c, 9, 42, 108
1, 149760, Note_on_c, 9, 36, 108
1, 149769, Note_on_c, 9, 42, 0
1, 150000, Note_on_c, 9, 42, 71
1, 150009, Note_on_c, 9, 42, 0
1, 150239, Note_on_c, 9, 36, 0
1, 150240, Note_on_c, 9, 40, 127
1, 150240, Note_on_c, 9, 42, 113
1, 150249, Note_on_c, 9, 42, 0
1, 150479, Note_on_c, 9, 40, 0
1, 150480, Note_on_c, 9, 42, 68
1, 150489, Note_on_c, 9, 42, 0
1, 150720, Note_on_c, 9, 42, 113
1, 150720, Note_on_c, 9, 36, 113
1, 150729, Note_on_c, 9, 42, 0
1, 150960, Note_on_c, 9, 42, 70
1, 150969, Note_on_c, 9, 42, 0
1, 151199, Note_on_c, 9, 36, 0
1, 151200, Note_on_c, 9, 40, 127
1, 151200, Note_on_c, 9, 42, 108
1, 151209, Note_on_c, 9, 42, 0
1, 151439, Note_on_c, 9, 40, 0
1, 151440, Note_on_c, 9, 42, 72
1, 151449, Note_on_c, 9, 42, 0
1, 151680, Note_on_c, 9, 42, 113
1, 151680, Note_on_c, 9, 36, 108
1, 151689, Note_on_c, 9, 42, 0
1, 151920, Note_on_c, 9, 42, 76
1, 151929, Note_on_c, 9, 42, 0
1, 152159, Note_on_c, 9, 36, 0
1, 152160, Note_on_c, 9, 40, 121
1, 152160, Note_on_c, 9, 42, 108
1, 152169, Note_on_c, 9, 42, 0
1, 152399, Note_on_c, 9, 40, 0
1, 152400, Note_on_c, 9, 42, 70
1, 152409, Note_on_c, 9, 42, 0
1, 152640, Note_on_c, 9, 42, 102
1, 152640, Note_on_c, 9, 36, 102
1, 152649, Note_on_c, 9, 42, 0
1, 152880, Note_on_c, 9, 42, 78
1, 152889, Note_on_c, 9, 42, 0
1, 153119, Note_on_c, 9, 36, 0
1, 153120, Note_on_c, 9, 40, 127
1, 153120, Note_on_c, 9, 42, 113
1, 153129, Note_on_c, 9, 42, 0
1, 153359, Note_on_c, 9, 40, 0
1, 153360, Note_on_c, 9, 42, 80
1, 153369, Note_on_c, 9, 42, 0
1, 153600, Note_on_c, 9, 42, 113
1, 153600, Note_on_c, 9, 36, 119
1, 153609, Note_on_c, 9, 42, 0
1, 153840, Note_on_c, 9, 42, 78
1, 153849, Note_on_c, 9, 42, 0
1, 154079, Note_on_c, 9, 36, 0
1, 154080, Note_on_c, 9, 40, 121
1, 154080, Note_on_c, 9, 42, 113
1, 154089, Note_on_c, 9, 42, 0
1, 154319, Note_on_c, 9, 40, 0
1, 154320, Note_on_c, 9, 42, 76
1, 154329, Note_on_c, 9, 42, 0
1, 154560, Note_on_c, 9, 42, 108
1, 154560, Note_on_c, 9, 36, 119
1, 154569, Note_on_c, 9, 42, 0
1, 154800, Note_on_c, 9, 42, 78
1, 154809, Note_on_c, 9, 42, 0
1, 155039, Note_on_c, 9, 36, 0
1, 155040, Note_on_c, 9, 40, 121
1, 155040, Note_on_c, 9, 42, 111
1, 155049, Note_on_c, 9, 42, 0
1, 155279, Note_on_c, 9, 40, 0
1, 155280, Note_on_c, 9, 46, 97
1, 155289, Note_on_c, 9, 46, 0
1, 155520, Note_on_c, 9, 42, 111
1, 155520, Note_on_c, 9, 36, 108
1, 155529, Note_on_c, 9, 42, 0
1, 155760, Note_on_c, 9, 42, 74
1, 155769, Note_on_c, 9, 42, 0
1, 155999, Note_on_c, 9, 36, 0
1, 156000, Note_on_c, 9, 40, 127
1, 156000, Note_on_c, 9, 42, 108
1, 156009, Note_on_c, 9, 42, 0
1, 156239, Note_on_c, 9, 40, 0
1, 156240, Note_on_c, 9, 42, 76
1, 156249, Note_on_c, 9, 42, 0
1, 156480, Note_on_c, 9, 42, 108
1, 156480, Note_on_c, 9, 36, 113
1, 156489, Note_on_c, 9, 42, 0
1, 156720, Note_on_c, 9, 42, 76
1, 156729, Note_on_c, 9, 42, 0
1, 156959, Note_on_c, 9, 36, 0
1, 156960, Note_on_c, 9, 40, 127
1, 156960, Note_on_c, 9, 42, 113
1, 156969, Note_on_c, 9, 42, 0
1, 157199, Note_on_c, 9, 40, 0
1, 157200, Note_on_c, 9, 42, 76
1, 157209, Note_on_c, 9, 42, 0
1, 157440, Note_on_c, 9, 42, 108
1, 157440, Note_on_c, 9, 36, 113
1, 157449, Note_on_c, 9, 42, 0
1, 157680, Note_on_c, 9, 42, 72
1, 157689, Note_on_c, 9, 42, 0
1, 157919, Note_on_c, 9, 36, 0
1, 157920, Note_on_c, 9, 40, 127
1, 157920, Note_on_c, 9, 42, 113
1, 157929, Note_on_c, 9, 42, 0
1, 158159, Note_on_c, 9, 40, 0
1, 158160, Note_on_c, 9, 42, 78
1, 158169, Note_on_c, 9, 42, 0
1, 158400, Note_on_c, 9, 42, 108
1, 158400, Note_on_c, 9, 36, 119
1, 158409, Note_on_c, 9, 42, 0
1, 158640, Note_on_c, 9, 42, 76
1, 158649, Note_on_c, 9, 42, 0
1, 158879, Note_on_c, 9, 36, 0
1, 158880, Note_on_c, 9, 40, 127
1, 158880, Note_on_c, 9, 42, 113
1, 158889, Note_on_c, 9, 42, 0
1, 159119, Note_on_c, 9, 40, 0
1, 159120, Note_on_c, 9, 42, 82
1, 159129, Note_on_c, 9, 42, 0
1, 159360, Note_on_c, 9, 42, 113
1, 159360, Note_on_c, 9, 36, 119
1, 159369, Note_on_c, 9, 42, 0
1, 159600, Note_on_c, 9, 42, 78
1, 159609, Note_on_c, 9, 42, 0
1, 159839, Note_on_c, 9, 36, 0
1, 159840, Note_on_c, 9, 40, 127
1, 159840, Note_on_c, 9, 42, 119
1, 159849, Note_on_c, 9, 42, 0
1, 160079, Note_on_c, 9, 40, 0
1, 160080, Note_on_c, 9, 42, 76
1, 160089, Note_on_c, 9, 42, 0
1, 160320, Note_on_c, 9, 42, 108
1, 160320, Note_on_c, 9, 36, 113
1, 160329, Note_on_c, 9, 42, 0
1, 160560, Note_on_c, 9, 42, 82
1, 160569, Note_on_c, 9, 42, 0
1, 160799, Note_on_c, 9, 36, 0
1, 160800, Note_on_c, 9, 40, 127
1, 160800, Note_on_c, 9, 42, 113
1, 160809, Note_on_c, 9, 42, 0
1, 161039, Note_on_c, 9, 40, 0
1, 161040, Note_on_c, 9, 42, 82
1, 161049, Note_on_c, 9, 42, 0
1, 161280, Note_on_c, 9, 42, 113
1, 161280, Note_on_c, 9, 36, 119
1, 161289, Note_on_c, 9, 42, 0
1, 161520, Note_on_c, 9, 42, 78
1, 161529, Note_on_c, 9, 42, 0
1, 161759, Note_on_c, 9, 36, 0
1, 161760, Note_on_c, 9, 40, 127
1, 161760, Note_on_c, 9, 42, 119
1, 161769, Note_on_c, 9, 42, 0
1, 161999, Note_on_c, 9, 40, 0
1, 162000, Note_on_c, 9, 42, 76
1, 162009, Note_on_c, 9, 42, 0
1, 162240, Note_on_c, 9, 42, 108
1, 162240, Note_on_c, 9, 36, 113
1, 162249, Note_on_c, 9, 42, 0
1, 162480, Note_on_c, 9, 42, 82
1, 162489, Note_on_c, 9, 42, 0
1, 162719, Note_on_c, 9, 36, 0
1, 162720, Note_on_c, 9, 40, 127
1, 162720, Note_on_c, 9, 42, 113
1, 162729, Note_on_c, 9, 42, 0
1, 162959, Note_on_c, 9, 40, 0
1, 162960, Note_on_c, 9, 42, 82
1, 162969, Note_on_c, 9, 42, 0
1, 163200, Note_on_c, 9, 40, 117
1, 163319, Note_on_c, 9, 40, 0
1, 163320, Note_on_c, 9, 40, 127
1, 163559, Note_on_c, 9, 40, 0
1, 163560, Note_on_c, 9, 40, 121
1, 163679, Note_on_c, 9, 40, 0
1, 163680, Note_on_c, 9, 40, 127
1, 163799, Note_on_c, 9, 40, 0
1, 163800, Note_on_c, 9, 40, 127
1, 163920, Note_on_c, 9, 43, 98
1, 164039, Note_on_c, 9, 40, 0
1, 164040, Note_on_c, 9, 41, 115
1, 164159, Note_on_c, 9, 43, 0
1, 164159, Note_on_c, 9, 41, 0
1, 164160, Note_on_c, 9, 40, 127
1, 164160, Note_on_c, 9, 36, 113
1, 164639, Note_on_c, 9, 40, 0
1, 164639, Note_on_c, 9, 36, 0
1, 165120, Note_on_c, 9, 42, 102
1, 165120, Note_on_c, 9, 36, 125
1, 165129, Note_on_c, 9, 42, 0
1, 165360, Note_on_c, 9, 42, 57
1, 165369, Note_on_c, 9, 42, 0
1, 165599, Note_on_c, 9, 36, 0
1, 165600, Note_on_c, 9, 40, 127
1, 165600, Note_on_c, 9, 42, 102
1, 165609, Note_on_c, 9, 42, 0
1, 165839, Note_on_c, 9, 40, 0
1, 165840, Note_on_c, 9, 42, 51
1, 165849, Note_on_c, 9, 42, 0
1, 166080, Note_on_c, 9, 42, 102
1, 166080, Note_on_c, 9, 36, 119
1, 166089, Note_on_c, 9, 42, 0
1, 166320, Note_on_c, 9, 42, 76
1, 166329, Note_on_c, 9, 42, 0
1, 166559, Note_on_c, 9, 36, 0
1, 166560, Note_on_c, 9, 40, 121
1, 166560, Note_on_c, 9, 42, 108
1, 166569, Note_on_c, 9, 42, 0
1, 166799, Note_on_c, 9, 40, 0
1, 166800, Note_on_c, 9, 42, 62
1, 166809, Note_on_c, 9, 42, 0
1, 167040, Note_on_c, 9, 42, 108
1, 167040, Note_on_c, 9, 36, 113
1, 167049, Note_on_c, 9, 42, 0
1, 167280, Note_on_c, 9, 42, 64
1, 167289, Note_on_c, 9, 42, 0
1, 167519, Note_on_c, 9, 36, 0
1, 167520, Note_on_c, 9, 40, 127
1, 167520, Note_on_c, 9, 42, 113
1, 167529, Note_on_c, 9, 42, 0
1, 167759, Note_on_c, 9, 40, 0
1, 167760, Note_on_c, 9, 42, 68
1, 167769, Note_on_c, 9, 42, 0
1, 168000, Note_on_c, 9, 42, 113
1, 168000, Note_on_c, 9, 36, 119
1, 168009, Note_on_c, 9, 42, 0
1, 168240, Note_on_c, 9, 42, 70
1, 168249, Note_on_c, 9, 42, 0
1, 168479, Note_on_c, 9, 36, 0
1, 168480, Note_on_c, 9, 40, 127
1, 168480, Note_on_c, 9, 42, 108
1, 168489, Note_on_c, 9, 42, 0
1, 168719, Note_on_c, 9, 40, 0
1, 168720, Note_on_c, 9, 42, 72
1, 168729, Note_on_c, 9, 42, 0
1, 168960, Note_on_c, 9, 42, 102
1, 168960, Note_on_c, 9, 36, 125
1, 168969, Note_on_c, 9, 42, 0
1, 169200, Note_on_c, 9, 42, 79
1, 169209, Note_on_c, 9, 42, 0
1, 169439, Note_on_c, 9, 36, 0
1, 169440, Note_on_c, 9, 40, 127
1, 169440, Note_on_c, 9, 54, 106
1, 169440, Note_on_c, 9, 42, 102
1, 169449, Note_on_c, 9, 42, 0
1, 169679, Note_on_c, 9, 40, 0
1, 169679, Note_on_c, 9, 54, 0
1, 169680, Note_on_c, 9, 42, 81
1, 169689, Note_on_c, 9, 42, 0
1, 169920, Note_on_c, 9, 42, 102
1, 169920, Note_on_c, 9, 36, 125
1, 169929, Note_on_c, 9, 42, 0
1, 170160, Note_on_c, 9, 42, 83
1, 170169, Note_on_c, 9, 42, 0
1, 170399, Note_on_c, 9, 36, 0
1, 170400, Note_on_c, 9, 40, 127
1, 170400, Note_on_c, 9, 42, 108
1, 170409, Note_on_c, 9, 42, 0
1, 170639, Note_on_c, 9, 40, 0
1, 170640, Note_on_c, 9, 42, 83
1, 170649, Note_on_c, 9, 42, 0
1, 170880, Note_on_c, 9, 42, 109
1, 170880, Note_on_c, 9, 36, 119
1, 170889, Note_on_c, 9, 42, 0
1, 171120, Note_on_c, 9, 42, 83
1, 171129, Note_on_c, 9, 42, 0
1, 171359, Note_on_c, 9, 36, 0
1, 171360, Note_on_c, 9, 40, 121
1, 171360, Note_on_c, 9, 54, 106
1, 171360, Note_on_c, 9, 42, 113
1, 171369, Note_on_c, 9, 42, 0
1, 171599, Note_on_c, 9, 40, 0
1, 171599, Note_on_c, 9, 54, 0
1, 171600, Note_on_c, 9, 42, 83
1, 171609, Note_on_c, 9, 42, 0
1, 171840, Note_on_c, 9, 42, 113
1, 171840, Note_on_c, 9, 36, 119
1, 171849, Note_on_c, 9, 42, 0
1, 172080, Note_on_c, 9, 42, 87
1, 172089, Note_on_c, 9, 42, 0
1, 172319, Note_on_c, 9, 36, 0
1, 172320, Note_on_c, 9, 40, 127
1, 172320, Note_on_c, 9, 42, 108
1, 172329, Note_on_c, 9, 42, 0
1, 172559, Note_on_c, 9, 40, 0
1, 172560, Note_on_c, 9, 42, 85
1, 172569, Note_on_c, 9, 42, 0
1, 172800, Note_on_c, 9, 42, 113
1, 172800, Note_on_c, 9, 36, 113
1, 172809, Note_on_c, 9, 42, 0
1, 173040, Note_on_c, 9, 42, 76
1, 173049, Note_on_c, 9, 42, 0
1, 173279, Note_on_c, 9, 36, 0
1, 173280, Note_on_c, 9, 40, 121
1, 173280, Note_on_c, 9, 54, 106
1, 173280, Note_on_c, 9, 42, 108
1, 173289, Note_on_c, 9, 42, 0
1, 173519, Note_on_c, 9, 40, 0
1, 173519, Note_on_c, 9, 54, 0
1, 173520, Note_on_c, 9, 42, 81
1, 173529, Note_on_c, 9, 42, 0
1, 173760, Note_on_c, 9, 42, 102
1, 173760, Note_on_c, 9, 36, 108
1, 173769, Note_on_c, 9, 42, 0
1, 174000, Note_on_c, 9, 42, 78
1, 174009, Note_on_c, 9, 42, 0
1, 174239, Note_on_c, 9, 36, 0
1, 174240, Note_on_c, 9, 40, 127
1, 174240, Note_on_c, 9, 42, 113
1, 174249, Note_on_c, 9, 42, 0
1, 174479, Note_on_c, 9, 40, 0
1, 174480, Note_on_c, 9, 42, 80
1, 174489, Note_on_c, 9, 42, 0
1, 174720, Note_on_c, 9, 42, 113
1, 174720, Note_on_c, 9, 36, 125
1, 174729, Note_on_c, 9, 42, 0
1, 174960, Note_on_c, 9, 42, 78
1, 174969, Note_on_c, 9, 42, 0
1, 175199, Note_on_c, 9, 36, 0
1, 175200, Note_on_c, 9, 40, 127
1, 175200, Note_on_c, 9, 54, 100
1, 175200, Note_on_c, 9, 42, 113
1, 175209, Note_on_c, 9, 42, 0
1, 175439, Note_on_c, 9, 40, 0
1, 175439, Note_on_c, 9, 54, 0
1, 175440, Note_on_c, 9, 42, 76
1, 175449, Note_on_c, 9, 42, 0
1, 175680, Note_on_c, 9, 42, 108
1, 175680, Note_on_c, 9, 36, 119
1, 175689, Note_on_c, 9, 42, 0
1, 175920, Note_on_c, 9, 42, 78
1, 175929, Note_on_c, 9, 42, 0
1, 176039, Note_on_c, 9, 36, 0
1, 176040, Note_on_c, 9, 36, 91
1, 176159, Note_on_c, 9, 36, 0
1, 176160, Note_on_c, 9, 40, 121
1, 176160, Note_on_c, 9, 42, 108
1, 176169, Note_on_c, 9, 42, 0
1, 176399, Note_on_c, 9, 40, 0
1, 176400, Note_on_c, 9, 42, 78
1, 176409, Note_on_c, 9, 42, 0
1, 176640, Note_on_c, 9, 42, 108
1, 176640, Note_on_c, 9, 49, 98
1, 176640, Note_on_c, 9, 36, 119
1, 176649, Note_on_c, 9, 42, 0
1, 176649, Note_on_c, 9, 49, 0
1, 176880, Note_on_c, 9, 42, 74
1, 176889, Note_on_c, 9, 42, 0
1, 177119, Note_on_c, 9, 36, 0
1, 177120, Note_on_c, 9, 40, 121
1, 177120, Note_on_c, 9, 54, 106
1, 177120, Note_on_c, 9, 42, 108
1, 177129, Note_on_c, 9, 42, 0
1, 177359, Note_on_c, 9, 40, 0
1, 177359, Note_on_c, 9, 54, 0
1, 177360, Note_on_c, 9, 42, 76
1, 177369, Note_on_c, 9, 42, 0
1, 177600, Note_on_c, 9, 42, 108
1, 177600, Note_on_c, 9, 36, 119
1, 177609, Note_on_c, 9, 42, 0
1, 177840, Note_on_c, 9, 42, 76
1, 177849, Note_on_c, 9, 42, 0
1, 178079, Note_on_c, 9, 36, 0
1, 178080, Note_on_c, 9, 40, 121
1, 178080, Note_on_c, 9, 42, 113
1, 178089, Note_on_c, 9, 42, 0
1, 178319, Note_on_c, 9, 40, 0
1, 178320, Note_on_c, 9, 42, 76
1, 178329, Note_on_c, 9, 42, 0
1, 178560, Note_on_c, 9, 42, 108
1, 178560, Note_on_c, 9, 36, 108
1, 178569, Note_on_c, 9, 42, 0
1, 178800, Note_on_c, 9, 42, 72
1, 178809, Note_on_c, 9, 42, 0
1, 179039, Note_on_c, 9, 36, 0
1, 179040, Note_on_c, 9, 40, 127
1, 179040, Note_on_c, 9, 54, 106
1, 179040, Note_on_c, 9, 42, 113
1, 179049, Note_on_c, 9, 42, 0
1, 179279, Note_on_c, 9, 40, 0
1, 179279, Note_on_c, 9, 54, 0
1, 179280, Note_on_c, 9, 42, 78
1, 179289, Note_on_c, 9, 42, 0
1, 179520, Note_on_c, 9, 42, 108
1, 179520, Note_on_c, 9, 36, 119
1, 179529, Note_on_c, 9, 42, 0
1, 179760, Note_on_c, 9, 42, 76
1, 179769, Note_on_c, 9, 42, 0
1, 179999, Note_on_c, 9, 36, 0
1, 180000, Note_on_c, 9, 40, 127
1, 180000, Note_on_c, 9, 42, 113
1, 180009, Note_on_c, 9, 42, 0
1, 180239, Note_on_c, 9, 40, 0
1, 180240, Note_on_c, 9, 42, 82
1, 180249, Note_on_c, 9, 42, 0
1, 180480, Note_on_c, 9, 42, 113
1, 180480, Note_on_c, 9, 36, 102
1, 180489, Note_on_c, 9, 42, 0
1, 180720, Note_on_c, 9, 42, 78
1, 180729, Note_on_c, 9, 42, 0
1, 180959, Note_on_c, 9, 36, 0
1, 180960, Note_on_c, 9, 40, 127
1, 180960, Note_on_c, 9, 54, 106
1, 180960, Note_on_c, 9, 42, 119
1, 180969, Note_on_c, 9, 42, 0
1, 181199, Note_on_c, 9, 40, 0
1, 181199, Note_on_c, 9, 54, 0
1, 181200, Note_on_c, 9, 42, 76
1, 181209, Note_on_c, 9, 42, 0
1, 181440, Note_on_c, 9, 42, 108
1, 181440, Note_on_c, 9, 36, 113
1, 181449, Note_on_c, 9, 42, 0
1, 181680, Note_on_c, 9, 42, 82
1, 181689, Note_on_c, 9, 42, 0
1, 181919, Note_on_c, 9, 36, 0
1, 181920, Note_on_c, 9, 40, 127
1, 181920, Note_on_c, 9, 42, 113
1, 181929, Note_on_c, 9, 42, 0
1, 182159, Note_on_c, 9, 40, 0
1, 182160, Note_on_c, 9, 42, 82
1, 182169, Note_on_c, 9, 42, 0
1, 182400, Note_on_c, 9, 42, 113
1, 182400, Note_on_c, 9, 36, 113
1, 182409, Note_on_c, 9, 42, 0
1, 182640, Note_on_c, 9, 42, 82
1, 182649, Note_on_c, 9, 42, 0
1, 182879, Note_on_c, 9, 36, 0
1, 182880, Note_on_c, 9, 40, 127
1, 182880, Note_on_c, 9, 54, 100
1, 182880, Note_on_c, 9, 42, 113
1, 182889, Note_on_c, 9, 42, 0
1, 183119, Note_on_c, 9, 40, 0
1, 183119, Note_on_c, 9, 54, 0
1, 183120, Note_on_c, 9, 42, 82
1, 183129, Note_on_c, 9, 42, 0
1, 183360, Note_on_c, 9, 42, 113
1, 183360, Note_on_c, 9, 36, 113
1, 183369, Note_on_c, 9, 42, 0
1, 183600, Note_on_c, 9, 42, 82
1, 183609, Note_on_c, 9, 42, 0
1, 183719, Note_on_c, 9, 36, 0
1, 183720, Note_on_c, 9, 36, 84
1, 183839, Note_on_c, 9, 36, 0
1, 183840, Note_on_c, 9, 40, 127
1, 183840, Note_on_c, 9, 42, 115
1, 183849, Note_on_c, 9, 42, 0
1, 184079, Note_on_c, 9, 40, 0
1, 184080, Note_on_c, 9, 42, 115
1, 184080, Note_on_c, 9, 36, 96
1, 184089, Note_on_c, 9, 42, 0
1, 184319, Note_on_c, 9, 36, 0
1, 184320, Note_on_c, 9, 42, 102
1, 184320, Note_on_c, 9, 49, 98
1, 184320, Note_on_c, 9, 36, 119
1, 184329, Note_on_c, 9, 42, 0
1, 184329, Note_on_c, 9, 49, 0
1, 184560, Note_on_c, 9, 42, 75
1, 184569, Note_on_c, 9, 42, 0
1, 184799, Note_on_c, 9, 36, 0
1, 184800, Note_on_c, 9, 40, 127
1, 184800, Note_on_c, 9, 54, 106
1, 184800, Note_on_c, 9, 42, 102
1, 184809, Note_on_c, 9, 42, 0
1, 185039, Note_on_c, 9, 40, 0
1, 185039, Note_on_c, 9, 54, 0
1, 185040, Note_on_c, 9, 42, 71
1, 185049, Note_on_c, 9, 42, 0
1, 185280, Note_on_c, 9, 42, 102
1, 185280, Note_on_c, 9, 36, 102
1, 185289, Note_on_c, 9, 42, 0
1, 185520, Note_on_c, 9, 42, 76
1, 185529, Note_on_c, 9, 42, 0
1, 185759, Note_on_c, 9, 36, 0
1, 185760, Note_on_c, 9, 40, 121
1, 185760, Note_on_c, 9, 42, 108
1, 185769, Note_on_c, 9, 42, 0
1, 185999, Note_on_c, 9, 40, 0
1, 186000, Note_on_c, 9, 42, 71
1, 186009, Note_on_c, 9, 42, 0
1, 186240, Note_on_c, 9, 42, 108
1, 186240, Note_on_c, 9, 36, 119
1, 186249, Note_on_c, 9, 42, 0
1, 186480, Note_on_c, 9, 42, 73
1, 186489, Note_on_c, 9, 42, 0
1, 186719, Note_on_c, 9, 36, 0
1, 186720, Note_on_c, 9, 40, 121
1, 186720, Note_on_c, 9, 54, 106
1, 186720, Note_on_c, 9, 42, 113
1, 186729, Note_on_c, 9, 42, 0
1, 186959, Note_on_c, 9, 40, 0
1, 186959, Note_on_c, 9, 54, 0
1, 186960, Note_on_c, 9, 42, 81
1, 186969, Note_on_c, 9, 42, 0
1, 187200, Note_on_c, 9, 42, 113
1, 187200, Note_on_c, 9, 36, 119
1, 187209, Note_on_c, 9, 42, 0
1, 187440, Note_on_c, 9, 42, 70
1, 187449, Note_on_c, 9, 42, 0
1, 187679, Note_on_c, 9, 36, 0
1, 187680, Note_on_c, 9, 40, 127
1, 187680, Note_on_c, 9, 42, 108
1, 187689, Note_on_c, 9, 42, 0
1, 187919, Note_on_c, 9, 40, 0
1, 187920, Note_on_c, 9, 42, 72
1, 187929, Note_on_c, 9, 42, 0
1, 188160, Note_on_c, 9, 42, 113
1, 188160, Note_on_c, 9, 36, 113
1, 188169, Note_on_c, 9, 42, 0
1, 188400, Note_on_c, 9, 42, 76
1, 188409, Note_on_c, 9, 42, 0
1, 188639, Note_on_c, 9, 36, 0
1, 188640, Note_on_c, 9, 40, 127
1, 188640, Note_on_c, 9, 54, 106
1, 188640, Note_on_c, 9, 42, 108
1, 188649, Note_on_c, 9, 42, 0
1, 188879, Note_on_c, 9, 40, 0
1, 188879, Note_on_c, 9, 54, 0
1, 188880, Note_on_c, 9, 42, 70
1, 188889, Note_on_c, 9, 42, 0
1, 189120, Note_on_c, 9, 42, 102
1, 189120, Note_on_c, 9, 36, 108
1, 189129, Note_on_c, 9, 42, 0
1, 189360, Note_on_c, 9, 42, 78
1, 189369, Note_on_c, 9, 42, 0
1, 189599, Note_on_c, 9, 36, 0
1, 189600, Note_on_c, 9, 40, 127
1, 189600, Note_on_c, 9, 42, 113
1, 189609, Note_on_c, 9, 42, 0
1, 189839, Note_on_c, 9, 40, 0
1, 189840, Note_on_c, 9, 42, 80
1, 189849, Note_on_c, 9, 42, 0
1, 190080, Note_on_c, 9, 42, 113
1, 190080, Note_on_c, 9, 36, 108
1, 190089, Note_on_c, 9, 42, 0
1, 190320, Note_on_c, 9, 42, 78
1, 190329, Note_on_c, 9, 42, 0
1, 190559, Note_on_c, 9, 36, 0
1, 190560, Note_on_c, 9, 40, 127
1, 190560, Note_on_c, 9, 54, 100
1, 190560, Note_on_c, 9, 42, 113
1, 190569, Note_on_c, 9, 42, 0
1, 190799, Note_on_c, 9, 40, 0
1, 190799, Note_on_c, 9, 54, 0
1, 190800, Note_on_c, 9, 42, 76
1, 190809, Note_on_c, 9, 42, 0
1, 191040, Note_on_c, 9, 42, 108
1, 191040, Note_on_c, 9, 36, 113
1, 191049, Note_on_c, 9, 42, 0
1, 191280, Note_on_c, 9, 42, 78
1, 191289, Note_on_c, 9, 42, 0
1, 191399, Note_on_c, 9, 36, 0
1, 191400, Note_on_c, 9, 36, 72
1, 191519, Note_on_c, 9, 36, 0
1, 191520, Note_on_c, 9, 40, 127
1, 191520, Note_on_c, 9, 42, 108
1, 191529, Note_on_c, 9, 42, 0
1, 191759, Note_on_c, 9, 40, 0
1, 191760, Note_on_c, 9, 46, 103
1, 191769, Note_on_c, 9, 46, 0
1, 192000, Note_on_c, 9, 42, 108
1, 192000, Note_on_c, 9, 49, 98
1, 192000, Note_on_c, 9, 36, 119
1, 192009, Note_on_c, 9, 42, 0
1, 192009, Note_on_c, 9, 49, 0
1, 192240, Note_on_c, 9, 42, 74
1, 192249, Note_on_c, 9, 42, 0
1, 192479, Note_on_c, 9, 36, 0
1, 192480, Note_on_c, 9, 40, 121
1, 192480, Note_on_c, 9, 54, 106
1, 192480, Note_on_c, 9, 42, 108
1, 192489, Note_on_c, 9, 42, 0
1, 192719, Note_on_c, 9, 40, 0
1, 192719, Note_on_c, 9, 54, 0
1, 192720, Note_on_c, 9, 42, 76
1, 192729, Note_on_c, 9, 42, 0
1, 192960, Note_on_c, 9, 42, 108
1, 192960, Note_on_c, 9, 36, 119
1, 192969, Note_on_c, 9, 42, 0
1, 193200, Note_on_c, 9, 42, 76
1, 193209, Note_on_c, 9, 42, 0
1, 193439, Note_on_c, 9, 36, 0
1, 193440, Note_on_c, 9, 40, 121
1, 193440, Note_on_c, 9, 42, 113
1, 193449, Note_on_c, 9, 42, 0
1, 193679, Note_on_c, 9, 40, 0
1, 193680, Note_on_c, 9, 42, 76
1, 193689, Note_on_c, 9, 42, 0
1, 193920, Note_on_c, 9, 42, 108
1, 193920, Note_on_c, 9, 36, 119
1, 193929, Note_on_c, 9, 42, 0
1, 194160, Note_on_c, 9, 42, 72
1, 194169, Note_on_c, 9, 42, 0
1, 194399, Note_on_c, 9, 36, 0
1, 194400, Note_on_c, 9, 40, 127
1, 194400, Note_on_c, 9, 54, 106
1, 194400, Note_on_c, 9, 42, 113
1, 194409, Note_on_c, 9, 42, 0
1, 194639, Note_on_c, 9, 40, 0
1, 194639, Note_on_c, 9, 54, 0
1, 194640, Note_on_c, 9, 42, 78
1, 194649, Note_on_c, 9, 42, 0
1, 194880, Note_on_c, 9, 42, 108
1, 194880, Note_on_c, 9, 36, 119
1, 194889, Note_on_c, 9, 42, 0
1, 195120, Note_on_c, 9, 42, 76
1, 195129, Note_on_c, 9, 42, 0
1, 195359, Note_on_c, 9, 36, 0
1, 195360, Note_on_c, 9, 40, 127
1, 195360, Note_on_c, 9, 42, 113
1, 195369, Note_on_c, 9, 42, 0
1, 195599, Note_on_c, 9, 40, 0
1, 195600, Note_on_c, 9, 42, 82
1, 195609, Note_on_c, 9, 42, 0
1, 195840, Note_on_c, 9, 42, 113
1, 195840, Note_on_c, 9, 36, 108
1, 195849, Note_on_c, 9, 42, 0
1, 196080, Note_on_c, 9, 42, 78
1, 196089, Note_on_c, 9, 42, 0
1, 196319, Note_on_c, 9, 36, 0
1, 196320, Note_on_c, 9, 40, 127
1, 196320, Note_on_c, 9, 54, 106
1, 196320, Note_on_c, 9, 42, 119
1, 196329, Note_on_c, 9, 42, 0
1, 196559, Note_on_c, 9, 40, 0
1, 196559, Note_on_c, 9, 54, 0
1, 196560, Note_on_c, 9, 42, 76
1, 196569, Note_on_c, 9, 42, 0
1, 196800, Note_on_c, 9, 42, 108
1, 196800, Note_on_c, 9, 36, 125
1, 196809, Note_on_c, 9, 42, 0
1, 197040, Note_on_c, 9, 42, 82
1, 197049, Note_on_c, 9, 42, 0
1, 197279, Note_on_c, 9, 36, 0
1, 197280, Note_on_c, 9, 40, 127
1, 197280, Note_on_c, 9, 42, 113
1, 197289, Note_on_c, 9, 42, 0
1, 197519, Note_on_c, 9, 40, 0
1, 197520, Note_on_c, 9, 42, 82
1, 197529, Note_on_c, 9, 42, 0
1, 197760, Note_on_c, 9, 42, 113
1, 197760, Note_on_c, 9, 36, 119
1, 197769, Note_on_c, 9, 42, 0
1, 198000, Note_on_c, 9, 42, 82
1, 198009, Note_on_c, 9, 42, 0
1, 198239, Note_on_c, 9, 36, 0
1, 198240, Note_on_c, 9, 40, 127
1, 198240, Note_on_c, 9, 54, 100
1, 198240, Note_on_c, 9, 42, 113
1, 198249, Note_on_c, 9, 42, 0
1, 198479, Note_on_c, 9, 40, 0
1, 198479, Note_on_c, 9, 54, 0
1, 198480, Note_on_c, 9, 42, 82
1, 198489, Note_on_c, 9, 42, 0
1, 198720, Note_on_c, 9, 42, 113
1, 198720, Note_on_c, 9, 36, 113
1, 198729, Note_on_c, 9, 42, 0
1, 198959, Note_on_c, 9, 36, 0
1, 198960, Note_on_c, 9, 42, 82
1, 198960, Note_on_c, 9, 36, 111
1, 198969, Note_on_c, 9, 42, 0
1, 199199, Note_on_c, 9, 36, 0
1, 199200, Note_on_c, 9, 40, 127
1, 199200, Note_on_c, 9, 42, 115
1, 199219, Note_on_c, 9, 42, 0
1, 199679, Note_on_c, 9, 40, 0
1, 199680, Note_on_c, 9, 42, 109
1, 199680, Note_on_c, 9, 49, 98
1, 199680, Note_on_c, 9, 36, 119
1, 199689, Note_on_c, 9, 42, 0
1, 199689, Note_on_c, 9, 49, 0
1, 199920, Note_on_c, 9, 42, 57
1, 199929, Note_on_c, 9, 42, 0
1, 200159, Note_on_c, 9, 36, 0
1, 200160, Note_on_c, 9, 40, 127
1, 200160, Note_on_c, 9, 54, 106
1, 200160, Note_on_c, 9, 42, 102
1, 200169, Note_on_c, 9, 42, 0
1, 200399, Note_on_c, 9, 40, 0
1, 200399, Note_on_c, 9, 54, 0
1, 200400, Note_on_c, 9, 42, 51
1, 200409, Note_on_c, 9, 42, 0
1, 200640, Note_on_c, 9, 42, 102
1, 200640, Note_on_c, 9, 36, 108
1, 200649, Note_on_c, 9, 42, 0
1, 200880, Note_on_c, 9, 42, 76
1, 200889, Note_on_c, 9, 42, 0
1, 201119, Note_on_c, 9, 36, 0
1, 201120, Note_on_c, 9, 40, 127
1, 201120, Note_on_c, 9, 42, 108
1, 201129, Note_on_c, 9, 42, 0
1, 201359, Note_on_c, 9, 40, 0
1, 201360, Note_on_c, 9, 42, 62
1, 201369, Note_on_c, 9, 42, 0
1, 201600, Note_on_c, 9, 42, 108
1, 201600, Note_on_c, 9, 36, 113
1, 201609, Note_on_c, 9, 42, 0
1, 201840, Note_on_c, 9, 42, 64
1, 201849, Note_on_c, 9, 42, 0
1, 202079, Note_on_c, 9, 36, 0
1, 202080, Note_on_c, 9, 40, 127
1, 202080, Note_on_c, 9, 54, 106
1, 202080, Note_on_c, 9, 42, 113
1, 202089, Note_on_c, 9, 42, 0
1, 202319, Note_on_c, 9, 40, 0
1, 202319, Note_on_c, 9, 54, 0
1, 202320, Note_on_c, 9, 42, 68
1, 202329, Note_on_c, 9, 42, 0
1, 202560, Note_on_c, 9, 42, 113
1, 202560, Note_on_c, 9, 36, 125
1, 202569, Note_on_c, 9, 42, 0
1, 202800, Note_on_c, 9, 42, 70
1, 202809, Note_on_c, 9, 42, 0
1, 203039, Note_on_c, 9, 36, 0
1, 203040, Note_on_c, 9, 40, 127
1, 203040, Note_on_c, 9, 42, 108
1, 203049, Note_on_c, 9, 42, 0
1, 203279, Note_on_c, 9, 40, 0
1, 203280, Note_on_c, 9, 42, 72
1, 203289, Note_on_c, 9, 42, 0
1, 203520, Note_on_c, 9, 42, 113
1, 203520, Note_on_c, 9, 36, 113
1, 203529, Note_on_c, 9, 42, 0
1, 203760, Note_on_c, 9, 42, 76
1, 203769, Note_on_c, 9, 42, 0
1, 203999, Note_on_c, 9, 36, 0
1, 204000, Note_on_c, 9, 40, 127
1, 204000, Note_on_c, 9, 54, 106
1, 204000, Note_on_c, 9, 42, 108
1, 204009, Note_on_c, 9, 42, 0
1, 204239, Note_on_c, 9, 40, 0
1, 204239, Note_on_c, 9, 54, 0
1, 204240, Note_on_c, 9, 42, 70
1, 204249, Note_on_c, 9, 42, 0
1, 204480, Note_on_c, 9, 42, 102
1, 204480, Note_on_c, 9, 36, 119
1, 204489, Note_on_c, 9, 42, 0
1, 204720, Note_on_c, 9, 42, 78
1, 204729, Note_on_c, 9, 42, 0
1, 204959, Note_on_c, 9, 36, 0
1, 204960, Note_on_c, 9, 40, 121
1, 204960, Note_on_c, 9, 42, 113
1, 204969, Note_on_c, 9, 42, 0
1, 205199, Note_on_c, 9, 40, 0
1, 205200, Note_on_c, 9, 42, 80
1, 205209, Note_on_c, 9, 42, 0
1, 205440, Note_on_c, 9, 42, 113
1, 205440, Note_on_c, 9, 36, 125
1, 205449, Note_on_c, 9, 42, 0
1, 205680, Note_on_c, 9, 42, 78
1, 205689, Note_on_c, 9, 42, 0
1, 205919, Note_on_c, 9, 36, 0
1, 205920, Note_on_c, 9, 40, 127
1, 205920, Note_on_c, 9, 54, 100
1, 205920, Note_on_c, 9, 42, 113
1, 205929, Note_on_c, 9, 42, 0
1, 206159, Note_on_c, 9, 40, 0
1, 206159, Note_on_c, 9, 54, 0
1, 206160, Note_on_c, 9, 42, 76
1, 206169, Note_on_c, 9, 42, 0
1, 206400, Note_on_c, 9, 42, 108
1, 206400, Note_on_c, 9, 36, 96
1, 206404, Note_on_c, 9, 42, 0
1, 206520, Note_on_c, 9, 40, 127
1, 206639, Note_on_c, 9, 40, 0
1, 206640, Note_on_c, 9, 42, 97
1, 206649, Note_on_c, 9, 42, 0
1, 206879, Note_on_c, 9, 36, 0
1, 206880, Note_on_c, 9, 40, 127
1, 206880, Note_on_c, 9, 42, 108
1, 206889, Note_on_c, 9, 42, 0
1, 207119, Note_on_c, 9, 40, 0
1, 207120, Note_on_c, 9, 42, 101
1, 207129, Note_on_c, 9, 42, 0
1, 207360, Note_on_c, 9, 42, 108
1, 207360, Note_on_c, 9, 49, 98
1, 207360, Note_on_c, 9, 36, 125
1, 207369, Note_on_c, 9, 42, 0
1, 207369, Note_on_c, 9, 49, 0
1, 207600, Note_on_c, 9, 42, 74
1, 207609, Note_on_c, 9, 42, 0
1, 207839, Note_on_c, 9, 36, 0
1, 207840, Note_on_c, 9, 40, 127
1, 207840, Note_on_c, 9, 54, 106
1, 207840, Note_on_c, 9, 42, 108
1, 207849, Note_on_c, 9, 42, 0
1, 208079, Note_on_c, 9, 40, 0
1, 208079, Note_on_c, 9, 54, 0
1, 208080, Note_on_c, 9, 42, 76
1, 208089, Note_on_c, 9, 42, 0
1, 208320, Note_on_c, 9, 42, 108
1, 208320, Note_on_c, 9, 36, 113
1, 208329, Note_on_c, 9, 42, 0
1, 208560, Note_on_c, 9, 42, 76
1, 208569, Note_on_c, 9, 42, 0
1, 208799, Note_on_c, 9, 36, 0
1, 208800, Note_on_c, 9, 40, 121
1, 208800, Note_on_c, 9, 42, 113
1, 208809, Note_on_c, 9, 42, 0
1, 209039, Note_on_c, 9, 40, 0
1, 209040, Note_on_c, 9, 42, 76
1, 209049, Note_on_c, 9, 42, 0
1, 209280, Note_on_c, 9, 42, 108
1, 209280, Note_on_c, 9, 36, 113
1, 209289, Note_on_c, 9, 42, 0
1, 209520, Note_on_c, 9, 42, 72
1, 209529, Note_on_c, 9, 42, 0
1, 209759, Note_on_c, 9, 36, 0
1, 209760, Note_on_c, 9, 40, 127
1, 209760, Note_on_c, 9, 54, 106
1, 209760, Note_on_c, 9, 42, 113
1, 209769, Note_on_c, 9, 42, 0
1, 209999, Note_on_c, 9, 40, 0
1, 209999, Note_on_c, 9, 54, 0
1, 210000, Note_on_c, 9, 42, 78
1, 210009, Note_on_c, 9, 42, 0
1, 210240, Note_on_c, 9, 42, 108
1, 210240, Note_on_c, 9, 36, 108
1, 210249, Note_on_c, 9, 42, 0
1, 210480, Note_on_c, 9, 42, 76
1, 210489, Note_on_c, 9, 42, 0
1, 210719, Note_on_c, 9, 36, 0
1, 210720, Note_on_c, 9, 40, 121
1, 210720, Note_on_c, 9, 42, 113
1, 210729, Note_on_c, 9, 42, 0
1, 210959, Note_on_c, 9, 40, 0
1, 210960, Note_on_c, 9, 42, 82
1, 210969, Note_on_c, 9, 42, 0
1, 211200, Note_on_c, 9, 42, 113
1, 211200, Note_on_c, 9, 36, 113
1, 211209, Note_on_c, 9, 42, 0
1, 211440, Note_on_c, 9, 42, 78
1, 211449, Note_on_c, 9, 42, 0
1, 211679, Note_on_c, 9, 36, 0
1, 211680, Note_on_c, 9, 40, 121
1, 211680, Note_on_c, 9, 54, 106
1, 211680, Note_on_c, 9, 42, 119
1, 211689, Note_on_c, 9, 42, 0
1, 211919, Note_on_c, 9, 40, 0
1, 211919, Note_on_c, 9, 54, 0
1, 211920, Note_on_c, 9, 42, 76
1, 211929, Note_on_c, 9, 42, 0
1, 212160, Note_on_c, 9, 42, 108
1, 212160, Note_on_c, 9, 36, 119
1, 212169, Note_on_c, 9, 42, 0
1, 212400, Note_on_c, 9, 42, 82
1, 212409, Note_on_c, 9, 42, 0
1, 212639, Note_on_c, 9, 36, 0
1, 212640, Note_on_c, 9, 40, 127
1, 212640, Note_on_c, 9, 42, 113
1, 212649, Note_on_c, 9, 42, 0
1, 212879, Note_on_c, 9, 40, 0
1, 212880, Note_on_c, 9, 42, 82
1, 212889, Note_on_c, 9, 42, 0
1, 213120, Note_on_c, 9, 42, 113
1, 213120, Note_on_c, 9, 36, 125
1, 213129, Note_on_c, 9, 42, 0
1, 213360, Note_on_c, 9, 42, 82
1, 213369, Note_on_c, 9, 42, 0
1, 213599, Note_on_c, 9, 36, 0
1, 213600, Note_on_c, 9, 40, 127
1, 213600, Note_on_c, 9, 54, 100
1, 213600, Note_on_c, 9, 42, 113
1, 213609, Note_on_c, 9, 42, 0
1, 213839, Note_on_c, 9, 40, 0
1, 213839, Note_on_c, 9, 54, 0
1, 213840, Note_on_c, 9, 42, 93
1, 213849, Note_on_c, 9, 42, 0
1, 214080, Note_on_c, 9, 42, 113
1, 214080, Note_on_c, 9, 36, 108
1, 214084, Note_on_c, 9, 42, 0
1, 214200, Note_on_c, 9, 40, 127
1, 214319, Note_on_c, 9, 40, 0
1, 214320, Note_on_c, 9, 42, 91
1, 214329, Note_on_c, 9, 42, 0
1, 214439, Note_on_c, 9, 36, 0
1, 214440, Note_on_c, 9, 36, 93
1, 214559, Note_on_c, 9, 36, 0
1, 214560, Note_on_c, 9, 40, 101
1, 214560, Note_on_c, 9, 42, 115
1, 214564, Note_on_c, 9, 42, 0
1, 214679, Note_on_c, 9, 40, 0
1, 214680, Note_on_c, 9, 40, 113
1, 214799, Note_on_c, 9, 40, 0
1, 214800, Note_on_c, 9, 40, 127
1, 214800, Note_on_c, 9, 42, 115
1, 214804, Note_on_c, 9, 42, 0
1, 214919, Note_on_c, 9, 40, 0
1, 214920, Note_on_c, 9, 40, 121
1, 215039, Note_on_c, 9, 40, 0
1, 215040, End_track
0, 0, End_of_file
