0, 0, Header, 1, 1, 480
1, 0, Start_track
1, 0, Title_t, "Drumset"
1, 0, Time_signature, 4, 2, 24, 8
1, 0, Key_signature, 0, "major"
1, 0, Tempo, 517241
1, 0, Control_c, 9, 121, 0
1, 0, Program_c, 9, 0
1, 0, Control_c, 9, 7, 100
1, 0, Control_c, 9, 10, 64
1, 0, Control_c, 9, 91, 0
1, 0, Control_c, 9, 93, 0
1, 0, MIDI_port, 0
1, 7440, Note_on_c, 9, 38, 75
1, 7440, Note_on_c, 9, 43, 75
1, 7679, Note_on_c, 9, 38, 0
1, 7679, Note_on_c, 9, 43, 0
1, 7680, Note_on_c, 9, 38, 75
1, 7680, Note_on_c, 9, 43, 75
1, 8159, Note_on_c, 9, 38, 0
1, 8159, Note_on_c, 9, 43, 0
1, 15120, Note_on_c, 9, 38, 75
1, 15120, Note_on_c, 9, 43, 75
1, 15359, Note_on_c, 9, 38, 0
1, 15359, Note_on_c, 9, 43, 0
1, 15360, Note_on_c, 9, 38, 75
1, 15360, Note_on_c, 9, 43, 75
1, 15839, Note_on_c, 9, 38, 0
1, 15839, Note_on_c, 9, 43, 0
1, 22800, Note_on_c, 9, 38, 75
1, 22800, Note_on_c, 9, 43, 75
1, 23039, Note_on_c, 9, 38, 0
1, 23039, Note_on_c, 9, 43, 0
1, 23040, Note_on_c, 9, 38, 75
1, 23040, Note_on_c, 9, 43, 75
1, 23519, Note_on_c, 9, 38, 0
1, 23519, Note_on_c, 9, 43, 0
1, 30480, Note_on_c, 9, 38, 75
1, 30480, Note_on_c, 9, 43, 75
1, 30719, Note_on_c, 9, 38, 0
1, 30719, Note_on_c, 9, 43, 0
1, 30720, Note_on_c, 9, 38, 75
1, 30720, Note_on_c, 9, 43, 75
1, 31199, Note_on_c, 9, 38, 0
1, 31199, Note_on_c, 9, 43, 0
1, 38400, Note_on_c, 9, 36, 75
1, 38879, Note_on_c, 9, 36, 0
1, 39120, Note_on_c, 9, 36, 75
1, 39359, Note_on_c, 9, 36, 0
1, 39360, Note_on_c, 9, 36, 75
1, 39839, Note_on_c, 9, 36, 0
1, 40080, Note_on_c, 9, 36, 75
1, 40319, Note_on_c, 9, 36, 0
1, 40320, Note_on_c, 9, 36, 75
1, 40799, Note_on_c, 9, 36, 0
1, 41040, Note_on_c, 9, 36, 127
1, 41279, Note_on_c, 9, 36, 0
1, 41280, Note_on_c, 9, 36, 127
1, 41759, Note_on_c, 9, 36, 0
1, 42000, Note_on_c, 9, 36, 127
1, 42239, Note_on_c, 9, 36, 0
1, 42240, Note_on_c, 9, 36, 127
1, 42719, Note_on_c, 9, 36, 0
1, 48960, Note_on_c, 9, 57, 75
1, 48960, Note_on_c, 9, 36, 75
1, 48981, Note_on_c, 9, 57, 0
1, 49439, Note_on_c, 9, 36, 0
1, 49440, Note_on_c, 9, 57, 75
1, 49440, Note_on_c, 9, 36, 75
1, 49461, Note_on_c, 9, 57, 0
1, 49919, Note_on_c, 9, 36, 0
1, 49920, Note_on_c, 9, 36, 75
1, 50399, Note_on_c, 9, 36, 0
1, 54960, Note_on_c, 9, 45, 127
1, 55199, Note_on_c, 9, 45, 0
1, 55200, Note_on_c, 9, 45, 127
1, 55279, Note_on_c, 9, 45, 0
1, 55280, Note_on_c, 9, 45, 127
1, 55359, Note_on_c, 9, 45, 0
1, 55360, Note_on_c, 9, 45, 127
1, 55439, Note_on_c, 9, 45, 0
1, 55440, Note_on_c, 9, 45, 127
1, 55519, Note_on_c, 9, 45, 0
1, 55520, Note_on_c, 9, 45, 127
1, 55599, Note_on_c, 9, 45, 0
1, 55600, Note_on_c, 9, 45, 127
1, 55679, Note_on_c, 9, 45, 0
1, 55680, Note_on_c, 9, 45, 127
1, 55919, Note_on_c, 9, 45, 0
1, 55920, Note_on_c, 9, 47, 127
1, 56159, Note_on_c, 9, 47, 0
1, 56160, Note_on_c, 9, 47, 127
1, 56399, Note_on_c, 9, 47, 0
1, 56400, Note_on_c, 9, 48, 127
1, 56479, Note_on_c, 9, 48, 0
1, 56480, Note_on_c, 9, 48, 127
1, 56559, Note_on_c, 9, 48, 0
1, 56560, Note_on_c, 9, 48, 127
1, 56639, Note_on_c, 9, 48, 0
1, 56640, Note_on_c, 9, 48, 127
1, 56879, Note_on_c, 9, 48, 0
1, 56880, Note_on_c, 9, 50, 127
1, 57119, Note_on_c, 9, 50, 0
1, 57120, Note_on_c, 9, 50, 127
1, 57599, Note_on_c, 9, 50, 0
1, 57600, Note_on_c, 9, 57, 127
1, 57600, Note_on_c, 9, 36, 127
1, 57610, Note_on_c, 9, 57, 0
1, 57840, Note_on_c, 9, 42, 127
1, 57850, Note_on_c, 9, 42, 0
1, 58079, Note_on_c, 9, 36, 0
1, 58080, Note_on_c, 9, 42, 127
1, 58090, Note_on_c, 9, 42, 0
1, 58320, Note_on_c, 9, 42, 127
1, 58320, Note_on_c, 9, 36, 127
1, 58330, Note_on_c, 9, 42, 0
1, 58559, Note_on_c, 9, 36, 0
1, 58560, Note_on_c, 9, 38, 127
1, 58560, Note_on_c, 9, 42, 127
1, 58570, Note_on_c, 9, 42, 0
1, 58799, Note_on_c, 9, 38, 0
1, 58800, Note_on_c, 9, 42, 127
1, 58810, Note_on_c, 9, 42, 0
1, 59040, Note_on_c, 9, 42, 127
1, 59050, Note_on_c, 9, 42, 0
1, 59280, Note_on_c, 9, 42, 127
1, 59280, Note_on_c, 9, 36, 127
1, 59290, Note_on_c, 9, 42, 0
1, 59519, Note_on_c, 9, 36, 0
1, 59520, Note_on_c, 9, 42, 127
1, 59520, Note_on_c, 9, 36, 127
1, 59530, Note_on_c, 9, 42, 0
1, 59760, Note_on_c, 9, 42, 127
1, 59770, Note_on_c, 9, 42, 0
1, 59999, Note_on_c, 9, 36, 0
1, 60000, Note_on_c, 9, 42, 127
1, 60010, Note_on_c, 9, 42, 0
1, 60240, Note_on_c, 9, 42, 127
1, 60240, Note_on_c, 9, 36, 127
1, 60250, Note_on_c, 9, 42, 0
1, 60479, Note_on_c, 9, 36, 0
1, 60480, Note_on_c, 9, 38, 127
1, 60480, Note_on_c, 9, 42, 127
1, 60490, Note_on_c, 9, 42, 0
1, 60719, Note_on_c, 9, 38, 0
1, 60720, Note_on_c, 9, 42, 127
1, 60730, Note_on_c, 9, 42, 0
1, 60960, Note_on_c, 9, 42, 127
1, 60970, Note_on_c, 9, 42, 0
1, 61200, Note_on_c, 9, 42, 127
1, 61200, Note_on_c, 9, 36, 127
1, 61210, Note_on_c, 9, 42, 0
1, 61439, Note_on_c, 9, 36, 0
1, 61440, Note_on_c, 9, 42, 127
1, 61440, Note_on_c, 9, 36, 127
1, 61450, Note_on_c, 9, 42, 0
1, 61680, Note_on_c, 9, 42, 127
1, 61690, Note_on_c, 9, 42, 0
1, 61919, Note_on_c, 9, 36, 0
1, 61920, Note_on_c, 9, 42, 127
1, 61930, Note_on_c, 9, 42, 0
1, 62160, Note_on_c, 9, 42, 127
1, 62160, Note_on_c, 9, 36, 127
1, 62170, Note_on_c, 9, 42, 0
1, 62399, Note_on_c, 9, 36, 0
1, 62400, Note_on_c, 9, 38, 127
1, 62400, Note_on_c, 9, 42, 127
1, 62410, Note_on_c, 9, 42, 0
1, 62639, Note_on_c, 9, 38, 0
1, 62640, Note_on_c, 9, 42, 127
1, 62650, Note_on_c, 9, 42, 0
1, 62880, Note_on_c, 9, 42, 127
1, 62890, Note_on_c, 9, 42, 0
1, 63120, Note_on_c, 9, 42, 127
1, 63120, Note_on_c, 9, 36, 127
1, 63130, Note_on_c, 9, 42, 0
1, 63359, Note_on_c, 9, 36, 0
1, 63360, Note_on_c, 9, 42, 127
1, 63360, Note_on_c, 9, 36, 127
1, 63370, Note_on_c, 9, 42, 0
1, 63600, Note_on_c, 9, 42, 127
1, 63610, Note_on_c, 9, 42, 0
1, 63839, Note_on_c, 9, 36, 0
1, 63840, Note_on_c, 9, 42, 127
1, 63840, Note_on_c, 9, 36, 127
1, 63850, Note_on_c, 9, 42, 0
1, 64080, Note_on_c, 9, 42, 127
1, 64090, Note_on_c, 9, 42, 0
1, 64319, Note_on_c, 9, 36, 0
1, 64320, Note_on_c, 9, 42, 127
1, 64320, Note_on_c, 9, 36, 127
1, 64330, Note_on_c, 9, 42, 0
1, 64559, Note_on_c, 9, 36, 0
1, 64560, Note_on_c, 9, 42, 127
1, 64560, Note_on_c, 9, 36, 127
1, 64570, Note_on_c, 9, 42, 0
1, 64799, Note_on_c, 9, 36, 0
1, 64800, Note_on_c, 9, 38, 127
1, 64800, Note_on_c, 9, 57, 127
1, 64810, Note_on_c, 9, 57, 0
1, 65039, Note_on_c, 9, 38, 0
1, 65040, Note_on_c, 9, 42, 127
1, 65050, Note_on_c, 9, 42, 0
1, 65280, Note_on_c, 9, 42, 127
1, 65280, Note_on_c, 9, 36, 127
1, 65290, Note_on_c, 9, 42, 0
1, 65520, Note_on_c, 9, 42, 127
1, 65530, Note_on_c, 9, 42, 0
1, 65759, Note_on_c, 9, 36, 0
1, 65760, Note_on_c, 9, 42, 127
1, 65770, Note_on_c, 9, 42, 0
1, 66000, Note_on_c, 9, 42, 127
1, 66000, Note_on_c, 9, 36, 127
1, 66010, Note_on_c, 9, 42, 0
1, 66239, Note_on_c, 9, 36, 0
1, 66240, Note_on_c, 9, 38, 127
1, 66240, Note_on_c, 9, 42, 127
1, 66250, Note_on_c, 9, 42, 0
1, 66479, Note_on_c, 9, 38, 0
1, 66480, Note_on_c, 9, 42, 127
1, 66490, Note_on_c, 9, 42, 0
1, 66720, Note_on_c, 9, 42, 127
1, 66730, Note_on_c, 9, 42, 0
1, 66960, Note_on_c, 9, 42, 127
1, 66960, Note_on_c, 9, 36, 127
1, 66970, Note_on_c, 9, 42, 0
1, 67199, Note_on_c, 9, 36, 0
1, 67200, Note_on_c, 9, 42, 127
1, 67200, Note_on_c, 9, 36, 127
1, 67210, Note_on_c, 9, 42, 0
1, 67440, Note_on_c, 9, 42, 127
1, 67450, Note_on_c, 9, 42, 0
1, 67679, Note_on_c, 9, 36, 0
1, 67680, Note_on_c, 9, 42, 127
1, 67690, Note_on_c, 9, 42, 0
1, 67920, Note_on_c, 9, 42, 127
1, 67920, Note_on_c, 9, 36, 127
1, 67930, Note_on_c, 9, 42, 0
1, 68159, Note_on_c, 9, 36, 0
1, 68160, Note_on_c, 9, 38, 127
1, 68160, Note_on_c, 9, 42, 127
1, 68170, Note_on_c, 9, 42, 0
1, 68399, Note_on_c, 9, 38, 0
1, 68400, Note_on_c, 9, 42, 127
1, 68410, Note_on_c, 9, 42, 0
1, 68640, Note_on_c, 9, 42, 127
1, 68650, Note_on_c, 9, 42, 0
1, 68880, Note_on_c, 9, 42, 127
1, 68880, Note_on_c, 9, 36, 127
1, 68890, Note_on_c, 9, 42, 0
1, 69119, Note_on_c, 9, 36, 0
1, 69120, Note_on_c, 9, 42, 127
1, 69120, Note_on_c, 9, 36, 127
1, 69130, Note_on_c, 9, 42, 0
1, 69360, Note_on_c, 9, 42, 127
1, 69370, Note_on_c, 9, 42, 0
1, 69599, Note_on_c, 9, 36, 0
1, 69600, Note_on_c, 9, 42, 127
1, 69610, Note_on_c, 9, 42, 0
1, 69840, Note_on_c, 9, 42, 127
1, 69840, Note_on_c, 9, 36, 127
1, 69850, Note_on_c, 9, 42, 0
1, 70079, Note_on_c, 9, 36, 0
1, 70080, Note_on_c, 9, 38, 127
1, 70080, Note_on_c, 9, 57, 127
1, 70090, Note_on_c, 9, 57, 0
1, 70319, Note_on_c, 9, 38, 0
1, 70320, Note_on_c, 9, 42, 127
1, 70330, Note_on_c, 9, 42, 0
1, 70560, Note_on_c, 9, 42, 127
1, 70570, Note_on_c, 9, 42, 0
1, 70800, Note_on_c, 9, 42, 127
1, 70800, Note_on_c, 9, 36, 127
1, 70810, Note_on_c, 9, 42, 0
1, 71039, Note_on_c, 9, 36, 0
1, 71040, Note_on_c, 9, 38, 127
1, 71040, Note_on_c, 9, 57, 127
1, 71055, Note_on_c, 9, 57, 0
1, 71399, Note_on_c, 9, 38, 0
1, 71400, Note_on_c, 9, 38, 127
1, 71519, Note_on_c, 9, 38, 0
1, 71520, Note_on_c, 9, 38, 127
1, 71759, Note_on_c, 9, 38, 0
1, 71760, Note_on_c, 9, 45, 127
1, 71999, Note_on_c, 9, 45, 0
1, 72000, Note_on_c, 9, 45, 127
1, 72239, Note_on_c, 9, 45, 0
1, 72240, Note_on_c, 9, 47, 127
1, 72319, Note_on_c, 9, 47, 0
1, 72320, Note_on_c, 9, 47, 127
1, 72399, Note_on_c, 9, 47, 0
1, 72400, Note_on_c, 9, 47, 127
1, 72479, Note_on_c, 9, 47, 0
1, 72480, Note_on_c, 9, 48, 127
1, 72719, Note_on_c, 9, 48, 0
1, 72720, Note_on_c, 9, 48, 127
1, 72959, Note_on_c, 9, 48, 0
1, 72960, Note_on_c, 9, 57, 127
1, 72960, Note_on_c, 9, 36, 127
1, 72970, Note_on_c, 9, 57, 0
1, 73200, Note_on_c, 9, 42, 127
1, 73210, Note_on_c, 9, 42, 0
1, 73439, Note_on_c, 9, 36, 0
1, 73440, Note_on_c, 9, 42, 127
1, 73450, Note_on_c, 9, 42, 0
1, 73680, Note_on_c, 9, 42, 127
1, 73680, Note_on_c, 9, 36, 127
1, 73690, Note_on_c, 9, 42, 0
1, 73919, Note_on_c, 9, 36, 0
1, 73920, Note_on_c, 9, 42, 127
1, 73930, Note_on_c, 9, 42, 0
1, 74160, Note_on_c, 9, 42, 127
1, 74170, Note_on_c, 9, 42, 0
1, 74400, Note_on_c, 9, 42, 127
1, 74410, Note_on_c, 9, 42, 0
1, 74640, Note_on_c, 9, 42, 127
1, 74640, Note_on_c, 9, 36, 127
1, 74650, Note_on_c, 9, 42, 0
1, 74879, Note_on_c, 9, 36, 0
1, 74880, Note_on_c, 9, 42, 127
1, 74880, Note_on_c, 9, 36, 127
1, 74890, Note_on_c, 9, 42, 0
1, 75120, Note_on_c, 9, 42, 127
1, 75130, Note_on_c, 9, 42, 0
1, 75359, Note_on_c, 9, 36, 0
1, 75360, Note_on_c, 9, 42, 127
1, 75370, Note_on_c, 9, 42, 0
1, 75600, Note_on_c, 9, 42, 127
1, 75600, Note_on_c, 9, 36, 127
1, 75610, Note_on_c, 9, 42, 0
1, 75839, Note_on_c, 9, 36, 0
1, 75840, Note_on_c, 9, 42, 127
1, 75850, Note_on_c, 9, 42, 0
1, 76080, Note_on_c, 9, 42, 127
1, 76080, Note_on_c, 9, 36, 127
1, 76090, Note_on_c, 9, 42, 0
1, 76319, Note_on_c, 9, 36, 0
1, 76320, Note_on_c, 9, 42, 127
1, 76320, Note_on_c, 9, 36, 127
1, 76330, Note_on_c, 9, 42, 0
1, 76560, Note_on_c, 9, 42, 127
1, 76570, Note_on_c, 9, 42, 0
1, 76799, Note_on_c, 9, 36, 0
1, 76800, Note_on_c, 9, 42, 127
1, 76800, Note_on_c, 9, 36, 127
1, 76810, Note_on_c, 9, 42, 0
1, 77040, Note_on_c, 9, 42, 127
1, 77050, Note_on_c, 9, 42, 0
1, 77279, Note_on_c, 9, 36, 0
1, 77280, Note_on_c, 9, 42, 127
1, 77290, Note_on_c, 9, 42, 0
1, 77520, Note_on_c, 9, 42, 127
1, 77520, Note_on_c, 9, 36, 127
1, 77530, Note_on_c, 9, 42, 0
1, 77759, Note_on_c, 9, 36, 0
1, 77760, Note_on_c, 9, 57, 127
1, 77770, Note_on_c, 9, 57, 0
1, 78000, Note_on_c, 9, 42, 127
1, 78010, Note_on_c, 9, 42, 0
1, 78240, Note_on_c, 9, 42, 127
1, 78250, Note_on_c, 9, 42, 0
1, 78480, Note_on_c, 9, 42, 127
1, 78480, Note_on_c, 9, 36, 127
1, 78490, Note_on_c, 9, 42, 0
1, 78719, Note_on_c, 9, 36, 0
1, 78720, Note_on_c, 9, 38, 127
1, 79079, Note_on_c, 9, 38, 0
1, 79080, Note_on_c, 9, 38, 127
1, 79099, Note_on_c, 9, 38, 0
1, 79100, Note_on_c, 9, 38, 127
1, 79119, Note_on_c, 9, 38, 0
1, 79120, Note_on_c, 9, 38, 127
1, 79139, Note_on_c, 9, 38, 0
1, 79140, Note_on_c, 9, 38, 127
1, 79159, Note_on_c, 9, 38, 0
1, 79160, Note_on_c, 9, 38, 127
1, 79179, Note_on_c, 9, 38, 0
1, 79180, Note_on_c, 9, 38, 127
1, 79199, Note_on_c, 9, 38, 0
1, 79440, Note_on_c, 9, 38, 127
1, 79679, Note_on_c, 9, 38, 0
1, 79680, Note_on_c, 9, 38, 127
1, 80039, Note_on_c, 9, 38, 0
1, 80040, Note_on_c, 9, 38, 127
1, 80159, Note_on_c, 9, 38, 0
1, 80160, Note_on_c, 9, 38, 127
1, 80639, Note_on_c, 9, 38, 0
1, 80640, Note_on_c, 9, 57, 127
1, 80640, Note_on_c, 9, 36, 127
1, 80650, Note_on_c, 9, 57, 0
1, 80880, Note_on_c, 9, 42, 127
1, 80890, Note_on_c, 9, 42, 0
1, 81119, Note_on_c, 9, 36, 0
1, 81120, Note_on_c, 9, 42, 127
1, 81130, Note_on_c, 9, 42, 0
1, 81360, Note_on_c, 9, 42, 127
1, 81360, Note_on_c, 9, 36, 127
1, 81370, Note_on_c, 9, 42, 0
1, 81599, Note_on_c, 9, 36, 0
1, 81600, Note_on_c, 9, 38, 127
1, 81600, Note_on_c, 9, 42, 127
1, 81610, Note_on_c, 9, 42, 0
1, 81839, Note_on_c, 9, 38, 0
1, 81840, Note_on_c, 9, 42, 127
1, 81850, Note_on_c, 9, 42, 0
1, 82080, Note_on_c, 9, 42, 127
1, 82090, Note_on_c, 9, 42, 0
1, 82320, Note_on_c, 9, 42, 127
1, 82320, Note_on_c, 9, 36, 127
1, 82330, Note_on_c, 9, 42, 0
1, 82559, Note_on_c, 9, 36, 0
1, 82560, Note_on_c, 9, 42, 127
1, 82560, Note_on_c, 9, 36, 127
1, 82570, Note_on_c, 9, 42, 0
1, 82800, Note_on_c, 9, 42, 127
1, 82810, Note_on_c, 9, 42, 0
1, 83039, Note_on_c, 9, 36, 0
1, 83040, Note_on_c, 9, 42, 127
1, 83050, Note_on_c, 9, 42, 0
1, 83280, Note_on_c, 9, 42, 127
1, 83280, Note_on_c, 9, 36, 127
1, 83290, Note_on_c, 9, 42, 0
1, 83519, Note_on_c, 9, 36, 0
1, 83520, Note_on_c, 9, 38, 127
1, 83520, Note_on_c, 9, 42, 127
1, 83530, Note_on_c, 9, 42, 0
1, 83759, Note_on_c, 9, 38, 0
1, 83760, Note_on_c, 9, 42, 127
1, 83770, Note_on_c, 9, 42, 0
1, 84000, Note_on_c, 9, 42, 127
1, 84010, Note_on_c, 9, 42, 0
1, 84240, Note_on_c, 9, 42, 127
1, 84240, Note_on_c, 9, 36, 127
1, 84250, Note_on_c, 9, 42, 0
1, 84479, Note_on_c, 9, 36, 0
1, 84480, Note_on_c, 9, 42, 127
1, 84480, Note_on_c, 9, 36, 127
1, 84490, Note_on_c, 9, 42, 0
1, 84720, Note_on_c, 9, 42, 127
1, 84730, Note_on_c, 9, 42, 0
1, 84959, Note_on_c, 9, 36, 0
1, 84960, Note_on_c, 9, 42, 127
1, 84970, Note_on_c, 9, 42, 0
1, 85200, Note_on_c, 9, 42, 127
1, 85210, Note_on_c, 9, 42, 0
1, 85440, Note_on_c, 9, 38, 127
1, 85440, Note_on_c, 9, 42, 127
1, 85450, Note_on_c, 9, 42, 0
1, 85679, Note_on_c, 9, 38, 0
1, 85680, Note_on_c, 9, 42, 127
1, 85690, Note_on_c, 9, 42, 0
1, 85920, Note_on_c, 9, 42, 127
1, 85930, Note_on_c, 9, 42, 0
1, 86160, Note_on_c, 9, 42, 127
1, 86160, Note_on_c, 9, 36, 127
1, 86170, Note_on_c, 9, 42, 0
1, 86399, Note_on_c, 9, 36, 0
1, 86400, Note_on_c, 9, 42, 127
1, 86400, Note_on_c, 9, 36, 127
1, 86410, Note_on_c, 9, 42, 0
1, 86640, Note_on_c, 9, 42, 127
1, 86650, Note_on_c, 9, 42, 0
1, 86879, Note_on_c, 9, 36, 0
1, 86880, Note_on_c, 9, 42, 127
1, 86890, Note_on_c, 9, 42, 0
1, 87120, Note_on_c, 9, 42, 127
1, 87130, Note_on_c, 9, 42, 0
1, 87360, Note_on_c, 9, 57, 127
1, 87360, Note_on_c, 9, 36, 127
1, 87381, Note_on_c, 9, 57, 0
1, 87839, Note_on_c, 9, 36, 0
1, 87840, Note_on_c, 9, 57, 127
1, 87840, Note_on_c, 9, 36, 127
1, 87861, Note_on_c, 9, 57, 0
1, 88319, Note_on_c, 9, 36, 0
1, 88320, Note_on_c, 9, 57, 127
1, 88320, Note_on_c, 9, 36, 127
1, 88330, Note_on_c, 9, 57, 0
1, 88560, Note_on_c, 9, 42, 127
1, 88570, Note_on_c, 9, 42, 0
1, 88799, Note_on_c, 9, 36, 0
1, 88800, Note_on_c, 9, 42, 127
1, 88810, Note_on_c, 9, 42, 0
1, 89040, Note_on_c, 9, 42, 127
1, 89040, Note_on_c, 9, 36, 127
1, 89050, Note_on_c, 9, 42, 0
1, 89279, Note_on_c, 9, 36, 0
1, 89280, Note_on_c, 9, 38, 127
1, 89280, Note_on_c, 9, 42, 127
1, 89290, Note_on_c, 9, 42, 0
1, 89519, Note_on_c, 9, 38, 0
1, 89520, Note_on_c, 9, 42, 127
1, 89530, Note_on_c, 9, 42, 0
1, 89760, Note_on_c, 9, 42, 127
1, 89770, Note_on_c, 9, 42, 0
1, 90000, Note_on_c, 9, 42, 127
1, 90000, Note_on_c, 9, 36, 127
1, 90010, Note_on_c, 9, 42, 0
1, 90239, Note_on_c, 9, 36, 0
1, 90240, Note_on_c, 9, 42, 127
1, 90240, Note_on_c, 9, 36, 127
1, 90250, Note_on_c, 9, 42, 0
1, 90480, Note_on_c, 9, 42, 127
1, 90490, Note_on_c, 9, 42, 0
1, 90719, Note_on_c, 9, 36, 0
1, 90720, Note_on_c, 9, 42, 127
1, 90730, Note_on_c, 9, 42, 0
1, 90960, Note_on_c, 9, 42, 127
1, 90960, Note_on_c, 9, 36, 127
1, 90970, Note_on_c, 9, 42, 0
1, 91199, Note_on_c, 9, 36, 0
1, 91200, Note_on_c, 9, 38, 127
1, 91200, Note_on_c, 9, 42, 127
1, 91210, Note_on_c, 9, 42, 0
1, 91439, Note_on_c, 9, 38, 0
1, 91440, Note_on_c, 9, 42, 127
1, 91450, Note_on_c, 9, 42, 0
1, 91680, Note_on_c, 9, 42, 127
1, 91690, Note_on_c, 9, 42, 0
1, 91920, Note_on_c, 9, 42, 127
1, 91920, Note_on_c, 9, 36, 127
1, 91930, Note_on_c, 9, 42, 0
1, 92159, Note_on_c, 9, 36, 0
1, 92160, Note_on_c, 9, 42, 127
1, 92160, Note_on_c, 9, 36, 127
1, 92170, Note_on_c, 9, 42, 0
1, 92400, Note_on_c, 9, 42, 127
1, 92410, Note_on_c, 9, 42, 0
1, 92639, Note_on_c, 9, 36, 0
1, 92640, Note_on_c, 9, 42, 127
1, 92650, Note_on_c, 9, 42, 0
1, 92880, Note_on_c, 9, 42, 127
1, 92880, Note_on_c, 9, 36, 127
1, 92890, Note_on_c, 9, 42, 0
1, 93119, Note_on_c, 9, 36, 0
1, 93120, Note_on_c, 9, 38, 127
1, 93120, Note_on_c, 9, 57, 127
1, 93130, Note_on_c, 9, 57, 0
1, 93359, Note_on_c, 9, 38, 0
1, 93360, Note_on_c, 9, 42, 127
1, 93370, Note_on_c, 9, 42, 0
1, 93600, Note_on_c, 9, 42, 127
1, 93610, Note_on_c, 9, 42, 0
1, 93840, Note_on_c, 9, 42, 127
1, 93840, Note_on_c, 9, 36, 127
1, 93850, Note_on_c, 9, 42, 0
1, 94079, Note_on_c, 9, 36, 0
1, 94080, Note_on_c, 9, 38, 127
1, 94080, Note_on_c, 9, 57, 127
1, 94090, Note_on_c, 9, 57, 0
1, 94319, Note_on_c, 9, 38, 0
1, 94320, Note_on_c, 9, 42, 127
1, 94330, Note_on_c, 9, 42, 0
1, 94560, Note_on_c, 9, 42, 127
1, 94570, Note_on_c, 9, 42, 0
1, 94800, Note_on_c, 9, 42, 127
1, 94800, Note_on_c, 9, 36, 127
1, 94810, Note_on_c, 9, 42, 0
1, 95039, Note_on_c, 9, 36, 0
1, 95040, Note_on_c, 9, 38, 127
1, 95040, Note_on_c, 9, 42, 127
1, 95050, Note_on_c, 9, 42, 0
1, 95279, Note_on_c, 9, 38, 0
1, 95280, Note_on_c, 9, 38, 127
1, 95359, Note_on_c, 9, 38, 0
1, 95360, Note_on_c, 9, 38, 127
1, 95439, Note_on_c, 9, 38, 0
1, 95440, Note_on_c, 9, 38, 127
1, 95519, Note_on_c, 9, 38, 0
1, 95520, Note_on_c, 9, 38, 127
1, 95760, Note_on_c, 9, 36, 127
1, 95999, Note_on_c, 9, 38, 0
1, 95999, Note_on_c, 9, 36, 0
1, 96000, Note_on_c, 9, 57, 127
1, 96000, Note_on_c, 9, 36, 127
1, 96021, Note_on_c, 9, 57, 0
1, 96479, Note_on_c, 9, 36, 0
1, 96480, Note_on_c, 9, 42, 127
1, 96490, Note_on_c, 9, 42, 0
1, 96720, Note_on_c, 9, 42, 127
1, 96720, Note_on_c, 9, 36, 127
1, 96730, Note_on_c, 9, 42, 0
1, 96959, Note_on_c, 9, 36, 0
1, 96960, Note_on_c, 9, 38, 127
1, 96960, Note_on_c, 9, 42, 127
1, 96970, Note_on_c, 9, 42, 0
1, 97199, Note_on_c, 9, 38, 0
1, 97200, Note_on_c, 9, 42, 127
1, 97210, Note_on_c, 9, 42, 0
1, 97440, Note_on_c, 9, 42, 127
1, 97450, Note_on_c, 9, 42, 0
1, 97680, Note_on_c, 9, 42, 127
1, 97680, Note_on_c, 9, 36, 127
1, 97690, Note_on_c, 9, 42, 0
1, 97919, Note_on_c, 9, 36, 0
1, 97920, Note_on_c, 9, 42, 127
1, 97920, Note_on_c, 9, 36, 127
1, 97930, Note_on_c, 9, 42, 0
1, 98160, Note_on_c, 9, 42, 127
1, 98170, Note_on_c, 9, 42, 0
1, 98399, Note_on_c, 9, 36, 0
1, 98400, Note_on_c, 9, 42, 127
1, 98410, Note_on_c, 9, 42, 0
1, 98640, Note_on_c, 9, 42, 127
1, 98640, Note_on_c, 9, 36, 127
1, 98650, Note_on_c, 9, 42, 0
1, 98879, Note_on_c, 9, 36, 0
1, 98880, Note_on_c, 9, 38, 127
1, 98880, Note_on_c, 9, 42, 127
1, 98890, Note_on_c, 9, 42, 0
1, 99119, Note_on_c, 9, 38, 0
1, 99120, Note_on_c, 9, 42, 127
1, 99130, Note_on_c, 9, 42, 0
1, 99360, Note_on_c, 9, 42, 127
1, 99370, Note_on_c, 9, 42, 0
1, 99600, Note_on_c, 9, 42, 127
1, 99600, Note_on_c, 9, 36, 127
1, 99610, Note_on_c, 9, 42, 0
1, 99839, Note_on_c, 9, 36, 0
1, 99840, Note_on_c, 9, 42, 127
1, 99840, Note_on_c, 9, 36, 127
1, 99850, Note_on_c, 9, 42, 0
1, 100080, Note_on_c, 9, 42, 127
1, 100090, Note_on_c, 9, 42, 0
1, 100319, Note_on_c, 9, 36, 0
1, 100320, Note_on_c, 9, 42, 127
1, 100330, Note_on_c, 9, 42, 0
1, 100560, Note_on_c, 9, 42, 127
1, 100560, Note_on_c, 9, 36, 127
1, 100570, Note_on_c, 9, 42, 0
1, 100799, Note_on_c, 9, 36, 0
1, 100800, Note_on_c, 9, 38, 127
1, 100800, Note_on_c, 9, 57, 127
1, 100821, Note_on_c, 9, 57, 0
1, 101279, Note_on_c, 9, 38, 0
1, 101280, Note_on_c, 9, 42, 127
1, 101290, Note_on_c, 9, 42, 0
1, 101520, Note_on_c, 9, 42, 127
1, 101530, Note_on_c, 9, 42, 0
1, 101760, Note_on_c, 9, 47, 127
1, 101760, Note_on_c, 9, 48, 127
1, 101999, Note_on_c, 9, 47, 0
1, 101999, Note_on_c, 9, 48, 0
1, 102000, Note_on_c, 9, 47, 127
1, 102000, Note_on_c, 9, 48, 127
1, 102239, Note_on_c, 9, 47, 0
1, 102239, Note_on_c, 9, 48, 0
1, 102240, Note_on_c, 9, 47, 127
1, 102240, Note_on_c, 9, 48, 127
1, 102479, Note_on_c, 9, 47, 0
1, 102479, Note_on_c, 9, 48, 0
1, 102480, Note_on_c, 9, 47, 127
1, 102480, Note_on_c, 9, 48, 127
1, 102719, Note_on_c, 9, 47, 0
1, 102719, Note_on_c, 9, 48, 0
1, 102720, Note_on_c, 9, 47, 127
1, 102720, Note_on_c, 9, 48, 127
1, 102959, Note_on_c, 9, 47, 0
1, 102959, Note_on_c, 9, 48, 0
1, 102960, Note_on_c, 9, 47, 127
1, 102960, Note_on_c, 9, 48, 127
1, 103199, Note_on_c, 9, 47, 0
1, 103199, Note_on_c, 9, 48, 0
1, 103200, Note_on_c, 9, 38, 127
1, 103200, Note_on_c, 9, 57, 127
1, 103221, Note_on_c, 9, 57, 0
1, 103679, Note_on_c, 9, 38, 0
1, 103680, Note_on_c, 9, 57, 127
1, 103680, Note_on_c, 9, 36, 127
1, 103701, Note_on_c, 9, 57, 0
1, 104159, Note_on_c, 9, 36, 0
1, 104160, Note_on_c, 9, 42, 127
1, 104170, Note_on_c, 9, 42, 0
1, 104400, Note_on_c, 9, 42, 127
1, 104400, Note_on_c, 9, 36, 127
1, 104410, Note_on_c, 9, 42, 0
1, 104639, Note_on_c, 9, 36, 0
1, 104640, Note_on_c, 9, 38, 127
1, 104640, Note_on_c, 9, 42, 127
1, 104650, Note_on_c, 9, 42, 0
1, 104879, Note_on_c, 9, 38, 0
1, 104880, Note_on_c, 9, 38, 127
1, 104999, Note_on_c, 9, 38, 0
1, 105000, Note_on_c, 9, 38, 127
1, 105119, Note_on_c, 9, 38, 0
1, 105120, Note_on_c, 9, 57, 127
1, 105120, Note_on_c, 9, 36, 127
1, 105130, Note_on_c, 9, 57, 0
1, 105359, Note_on_c, 9, 36, 0
1, 105360, Note_on_c, 9, 57, 127
1, 105360, Note_on_c, 9, 35, 127
1, 105370, Note_on_c, 9, 57, 0
1, 105599, Note_on_c, 9, 35, 0
1, 105600, Note_on_c, 9, 57, 127
1, 105600, Note_on_c, 9, 36, 127
1, 105621, Note_on_c, 9, 57, 0
1, 106079, Note_on_c, 9, 36, 0
1, 106080, Note_on_c, 9, 42, 127
1, 106090, Note_on_c, 9, 42, 0
1, 106320, Note_on_c, 9, 42, 127
1, 106320, Note_on_c, 9, 36, 127
1, 106330, Note_on_c, 9, 42, 0
1, 106559, Note_on_c, 9, 36, 0
1, 106560, Note_on_c, 9, 38, 127
1, 106560, Note_on_c, 9, 42, 127
1, 106570, Note_on_c, 9, 42, 0
1, 106799, Note_on_c, 9, 38, 0
1, 106800, Note_on_c, 9, 57, 127
1, 106800, Note_on_c, 9, 36, 127
1, 106810, Note_on_c, 9, 57, 0
1, 107039, Note_on_c, 9, 36, 0
1, 107040, Note_on_c, 9, 57, 127
1, 107040, Note_on_c, 9, 36, 127
1, 107050, Note_on_c, 9, 57, 0
1, 107279, Note_on_c, 9, 36, 0
1, 107280, Note_on_c, 9, 57, 127
1, 107280, Note_on_c, 9, 36, 127
1, 107290, Note_on_c, 9, 57, 0
1, 107519, Note_on_c, 9, 36, 0
1, 107520, Note_on_c, 9, 57, 127
1, 107520, Note_on_c, 9, 36, 127
1, 107530, Note_on_c, 9, 57, 0
1, 107760, Note_on_c, 9, 42, 127
1, 107770, Note_on_c, 9, 42, 0
1, 107999, Note_on_c, 9, 36, 0
1, 108000, Note_on_c, 9, 42, 127
1, 108010, Note_on_c, 9, 42, 0
1, 108240, Note_on_c, 9, 42, 127
1, 108240, Note_on_c, 9, 36, 127
1, 108250, Note_on_c, 9, 42, 0
1, 108479, Note_on_c, 9, 36, 0
1, 108480, Note_on_c, 9, 38, 127
1, 108480, Note_on_c, 9, 42, 127
1, 108490, Note_on_c, 9, 42, 0
1, 108719, Note_on_c, 9, 38, 0
1, 108720, Note_on_c, 9, 42, 127
1, 108730, Note_on_c, 9, 42, 0
1, 108960, Note_on_c, 9, 57, 127
1, 108960, Note_on_c, 9, 36, 127
1, 108981, Note_on_c, 9, 57, 0
1, 109439, Note_on_c, 9, 36, 0
1, 109440, Note_on_c, 9, 57, 127
1, 109440, Note_on_c, 9, 36, 127
1, 109461, Note_on_c, 9, 57, 0
1, 109919, Note_on_c, 9, 36, 0
1, 109920, Note_on_c, 9, 38, 127
1, 110159, Note_on_c, 9, 38, 0
1, 110160, Note_on_c, 9, 38, 127
1, 110239, Note_on_c, 9, 38, 0
1, 110240, Note_on_c, 9, 38, 127
1, 110319, Note_on_c, 9, 38, 0
1, 110320, Note_on_c, 9, 38, 127
1, 110399, Note_on_c, 9, 38, 0
1, 110400, Note_on_c, 9, 38, 127
1, 110639, Note_on_c, 9, 38, 0
1, 110640, Note_on_c, 9, 47, 127
1, 110879, Note_on_c, 9, 47, 0
1, 110880, Note_on_c, 9, 48, 127
1, 111359, Note_on_c, 9, 48, 0
1, 111360, Note_on_c, 9, 57, 127
1, 111360, Note_on_c, 9, 36, 127
1, 111370, Note_on_c, 9, 57, 0
1, 111600, Note_on_c, 9, 42, 127
1, 111610, Note_on_c, 9, 42, 0
1, 111839, Note_on_c, 9, 36, 0
1, 111840, Note_on_c, 9, 42, 127
1, 111850, Note_on_c, 9, 42, 0
1, 112080, Note_on_c, 9, 42, 127
1, 112080, Note_on_c, 9, 36, 127
1, 112090, Note_on_c, 9, 42, 0
1, 112319, Note_on_c, 9, 36, 0
1, 112320, Note_on_c, 9, 38, 127
1, 112320, Note_on_c, 9, 42, 127
1, 112330, Note_on_c, 9, 42, 0
1, 112559, Note_on_c, 9, 38, 0
1, 112560, Note_on_c, 9, 38, 127
1, 112679, Note_on_c, 9, 38, 0
1, 112680, Note_on_c, 9, 38, 127
1, 112799, Note_on_c, 9, 38, 0
1, 112800, Note_on_c, 9, 57, 127
1, 112800, Note_on_c, 9, 36, 127
1, 112810, Note_on_c, 9, 57, 0
1, 113039, Note_on_c, 9, 36, 0
1, 113040, Note_on_c, 9, 57, 127
1, 113040, Note_on_c, 9, 36, 127
1, 113050, Note_on_c, 9, 57, 0
1, 113279, Note_on_c, 9, 36, 0
1, 113280, Note_on_c, 9, 57, 127
1, 113280, Note_on_c, 9, 36, 127
1, 113290, Note_on_c, 9, 57, 0
1, 113520, Note_on_c, 9, 42, 127
1, 113530, Note_on_c, 9, 42, 0
1, 113759, Note_on_c, 9, 36, 0
1, 113760, Note_on_c, 9, 42, 127
1, 113770, Note_on_c, 9, 42, 0
1, 114000, Note_on_c, 9, 42, 127
1, 114000, Note_on_c, 9, 36, 127
1, 114010, Note_on_c, 9, 42, 0
1, 114239, Note_on_c, 9, 36, 0
1, 114240, Note_on_c, 9, 38, 127
1, 114240, Note_on_c, 9, 42, 127
1, 114250, Note_on_c, 9, 42, 0
1, 114479, Note_on_c, 9, 38, 0
1, 114480, Note_on_c, 9, 57, 127
1, 114480, Note_on_c, 9, 36, 127
1, 114490, Note_on_c, 9, 57, 0
1, 114719, Note_on_c, 9, 36, 0
1, 114720, Note_on_c, 9, 57, 127
1, 114720, Note_on_c, 9, 36, 127
1, 114730, Note_on_c, 9, 57, 0
1, 114959, Note_on_c, 9, 36, 0
1, 114960, Note_on_c, 9, 57, 127
1, 114960, Note_on_c, 9, 36, 127
1, 114970, Note_on_c, 9, 57, 0
1, 115199, Note_on_c, 9, 36, 0
1, 115200, Note_on_c, 9, 57, 127
1, 115200, Note_on_c, 9, 36, 127
1, 115210, Note_on_c, 9, 57, 0
1, 115440, Note_on_c, 9, 42, 127
1, 115450, Note_on_c, 9, 42, 0
1, 115679, Note_on_c, 9, 36, 0
1, 115680, Note_on_c, 9, 42, 127
1, 115690, Note_on_c, 9, 42, 0
1, 115920, Note_on_c, 9, 42, 127
1, 115920, Note_on_c, 9, 36, 127
1, 115930, Note_on_c, 9, 42, 0
1, 116159, Note_on_c, 9, 36, 0
1, 116160, Note_on_c, 9, 38, 127
1, 116160, Note_on_c, 9, 42, 127
1, 116170, Note_on_c, 9, 42, 0
1, 116399, Note_on_c, 9, 38, 0
1, 116400, Note_on_c, 9, 42, 127
1, 116410, Note_on_c, 9, 42, 0
1, 116640, Note_on_c, 9, 57, 127
1, 116640, Note_on_c, 9, 36, 127
1, 116650, Note_on_c, 9, 57, 0
1, 116879, Note_on_c, 9, 36, 0
1, 116880, Note_on_c, 9, 57, 127
1, 116880, Note_on_c, 9, 36, 127
1, 116890, Note_on_c, 9, 57, 0
1, 117119, Note_on_c, 9, 36, 0
1, 117120, Note_on_c, 9, 57, 127
1, 117120, Note_on_c, 9, 36, 127
1, 117141, Note_on_c, 9, 57, 0
1, 117599, Note_on_c, 9, 36, 0
1, 117600, Note_on_c, 9, 38, 127
1, 117600, Note_on_c, 9, 42, 127
1, 117610, Note_on_c, 9, 42, 0
1, 117839, Note_on_c, 9, 38, 0
1, 117840, Note_on_c, 9, 42, 127
1, 117850, Note_on_c, 9, 42, 0
1, 118080, Note_on_c, 9, 48, 127
1, 118159, Note_on_c, 9, 48, 0
1, 118160, Note_on_c, 9, 47, 127
1, 118240, Note_on_c, 9, 36, 127
1, 118319, Note_on_c, 9, 47, 0
1, 118319, Note_on_c, 9, 36, 0
1, 118320, Note_on_c, 9, 35, 127
1, 118559, Note_on_c, 9, 35, 0
1, 118560, Note_on_c, 9, 48, 127
1, 118639, Note_on_c, 9, 48, 0
1, 118640, Note_on_c, 9, 47, 127
1, 118720, Note_on_c, 9, 36, 127
1, 118799, Note_on_c, 9, 47, 0
1, 118799, Note_on_c, 9, 36, 0
1, 118800, Note_on_c, 9, 35, 127
1, 119039, Note_on_c, 9, 35, 0
1, 119040, Note_on_c, 9, 57, 127
1, 119040, Note_on_c, 9, 36, 127
1, 119061, Note_on_c, 9, 57, 0
1, 119519, Note_on_c, 9, 36, 0
1, 119520, Note_on_c, 9, 42, 127
1, 119530, Note_on_c, 9, 42, 0
1, 119760, Note_on_c, 9, 42, 127
1, 119760, Note_on_c, 9, 36, 127
1, 119770, Note_on_c, 9, 42, 0
1, 119999, Note_on_c, 9, 36, 0
1, 120000, Note_on_c, 9, 38, 127
1, 120000, Note_on_c, 9, 42, 127
1, 120010, Note_on_c, 9, 42, 0
1, 120239, Note_on_c, 9, 38, 0
1, 120240, Note_on_c, 9, 38, 127
1, 120359, Note_on_c, 9, 38, 0
1, 120360, Note_on_c, 9, 38, 127
1, 120479, Note_on_c, 9, 38, 0
1, 120480, Note_on_c, 9, 57, 127
1, 120480, Note_on_c, 9, 36, 127
1, 120490, Note_on_c, 9, 57, 0
1, 120719, Note_on_c, 9, 36, 0
1, 120720, Note_on_c, 9, 57, 127
1, 120720, Note_on_c, 9, 36, 127
1, 120730, Note_on_c, 9, 57, 0
1, 120959, Note_on_c, 9, 36, 0
1, 120960, Note_on_c, 9, 57, 127
1, 120960, Note_on_c, 9, 36, 127
1, 120970, Note_on_c, 9, 57, 0
1, 121200, Note_on_c, 9, 42, 127
1, 121210, Note_on_c, 9, 42, 0
1, 121439, Note_on_c, 9, 36, 0
1, 121440, Note_on_c, 9, 42, 127
1, 121450, Note_on_c, 9, 42, 0
1, 121680, Note_on_c, 9, 42, 127
1, 121680, Note_on_c, 9, 36, 127
1, 121690, Note_on_c, 9, 42, 0
1, 121919, Note_on_c, 9, 36, 0
1, 121920, Note_on_c, 9, 38, 127
1, 121920, Note_on_c, 9, 42, 127
1, 121930, Note_on_c, 9, 42, 0
1, 122159, Note_on_c, 9, 38, 0
1, 122160, Note_on_c, 9, 57, 127
1, 122160, Note_on_c, 9, 36, 127
1, 122170, Note_on_c, 9, 57, 0
1, 122399, Note_on_c, 9, 36, 0
1, 122400, Note_on_c, 9, 57, 127
1, 122400, Note_on_c, 9, 36, 127
1, 122410, Note_on_c, 9, 57, 0
1, 122639, Note_on_c, 9, 36, 0
1, 122640, Note_on_c, 9, 57, 127
1, 122640, Note_on_c, 9, 36, 127
1, 122650, Note_on_c, 9, 57, 0
1, 122879, Note_on_c, 9, 36, 0
1, 122880, Note_on_c, 9, 57, 127
1, 122880, Note_on_c, 9, 36, 127
1, 122890, Note_on_c, 9, 57, 0
1, 123120, Note_on_c, 9, 42, 127
1, 123130, Note_on_c, 9, 42, 0
1, 123359, Note_on_c, 9, 36, 0
1, 123360, Note_on_c, 9, 42, 127
1, 123370, Note_on_c, 9, 42, 0
1, 123600, Note_on_c, 9, 42, 127
1, 123600, Note_on_c, 9, 36, 127
1, 123610, Note_on_c, 9, 42, 0
1, 123839, Note_on_c, 9, 36, 0
1, 123840, Note_on_c, 9, 38, 127
1, 123840, Note_on_c, 9, 42, 127
1, 123850, Note_on_c, 9, 42, 0
1, 124079, Note_on_c, 9, 38, 0
1, 124080, Note_on_c, 9, 42, 127
1, 124090, Note_on_c, 9, 42, 0
1, 124320, Note_on_c, 9, 57, 127
1, 124320, Note_on_c, 9, 36, 127
1, 124341, Note_on_c, 9, 57, 0
1, 124799, Note_on_c, 9, 36, 0
1, 124800, Note_on_c, 9, 57, 127
1, 124800, Note_on_c, 9, 36, 127
1, 124821, Note_on_c, 9, 57, 0
1, 125279, Note_on_c, 9, 36, 0
1, 125280, Note_on_c, 9, 38, 127
1, 125519, Note_on_c, 9, 38, 0
1, 125520, Note_on_c, 9, 45, 127
1, 125599, Note_on_c, 9, 45, 0
1, 125600, Note_on_c, 9, 45, 127
1, 125679, Note_on_c, 9, 45, 0
1, 125680, Note_on_c, 9, 45, 127
1, 125759, Note_on_c, 9, 45, 0
1, 125760, Note_on_c, 9, 47, 127
1, 125999, Note_on_c, 9, 47, 0
1, 126000, Note_on_c, 9, 47, 127
1, 126239, Note_on_c, 9, 47, 0
1, 126240, Note_on_c, 9, 48, 127
1, 126359, Note_on_c, 9, 48, 0
1, 126360, Note_on_c, 9, 48, 127
1, 126479, Note_on_c, 9, 48, 0
1, 126480, Note_on_c, 9, 48, 127
1, 126719, Note_on_c, 9, 48, 0
1, 126720, Note_on_c, 9, 57, 127
1, 126720, Note_on_c, 9, 36, 127
1, 126730, Note_on_c, 9, 57, 0
1, 126960, Note_on_c, 9, 42, 127
1, 126970, Note_on_c, 9, 42, 0
1, 127199, Note_on_c, 9, 36, 0
1, 127200, Note_on_c, 9, 42, 127
1, 127210, Note_on_c, 9, 42, 0
1, 127440, Note_on_c, 9, 42, 127
1, 127440, Note_on_c, 9, 36, 127
1, 127450, Note_on_c, 9, 42, 0
1, 127679, Note_on_c, 9, 36, 0
1, 127680, Note_on_c, 9, 38, 127
1, 127680, Note_on_c, 9, 42, 127
1, 127690, Note_on_c, 9, 42, 0
1, 127919, Note_on_c, 9, 38, 0
1, 127920, Note_on_c, 9, 38, 127
1, 128039, Note_on_c, 9, 38, 0
1, 128040, Note_on_c, 9, 38, 127
1, 128159, Note_on_c, 9, 38, 0
1, 128160, Note_on_c, 9, 57, 127
1, 128160, Note_on_c, 9, 36, 127
1, 128170, Note_on_c, 9, 57, 0
1, 128399, Note_on_c, 9, 36, 0
1, 128400, Note_on_c, 9, 57, 127
1, 128400, Note_on_c, 9, 36, 127
1, 128410, Note_on_c, 9, 57, 0
1, 128639, Note_on_c, 9, 36, 0
1, 128640, Note_on_c, 9, 57, 127
1, 128640, Note_on_c, 9, 36, 127
1, 128650, Note_on_c, 9, 57, 0
1, 128880, Note_on_c, 9, 42, 127
1, 128890, Note_on_c, 9, 42, 0
1, 129119, Note_on_c, 9, 36, 0
1, 129120, Note_on_c, 9, 42, 127
1, 129130, Note_on_c, 9, 42, 0
1, 129360, Note_on_c, 9, 42, 127
1, 129360, Note_on_c, 9, 36, 127
1, 129370, Note_on_c, 9, 42, 0
1, 129599, Note_on_c, 9, 36, 0
1, 129600, Note_on_c, 9, 38, 127
1, 129600, Note_on_c, 9, 42, 127
1, 129610, Note_on_c, 9, 42, 0
1, 129839, Note_on_c, 9, 38, 0
1, 129840, Note_on_c, 9, 57, 127
1, 129840, Note_on_c, 9, 36, 127
1, 129850, Note_on_c, 9, 57, 0
1, 130079, Note_on_c, 9, 36, 0
1, 130080, Note_on_c, 9, 57, 127
1, 130080, Note_on_c, 9, 36, 127
1, 130090, Note_on_c, 9, 57, 0
1, 130319, Note_on_c, 9, 36, 0
1, 130320, Note_on_c, 9, 57, 127
1, 130320, Note_on_c, 9, 36, 127
1, 130330, Note_on_c, 9, 57, 0
1, 130559, Note_on_c, 9, 36, 0
1, 130560, Note_on_c, 9, 57, 127
1, 130560, Note_on_c, 9, 36, 127
1, 130570, Note_on_c, 9, 57, 0
1, 130800, Note_on_c, 9, 42, 127
1, 130810, Note_on_c, 9, 42, 0
1, 131039, Note_on_c, 9, 36, 0
1, 131040, Note_on_c, 9, 42, 127
1, 131050, Note_on_c, 9, 42, 0
1, 131280, Note_on_c, 9, 42, 127
1, 131280, Note_on_c, 9, 36, 127
1, 131290, Note_on_c, 9, 42, 0
1, 131519, Note_on_c, 9, 36, 0
1, 131520, Note_on_c, 9, 38, 127
1, 131520, Note_on_c, 9, 42, 127
1, 131530, Note_on_c, 9, 42, 0
1, 131759, Note_on_c, 9, 38, 0
1, 131760, Note_on_c, 9, 42, 127
1, 131770, Note_on_c, 9, 42, 0
1, 132000, Note_on_c, 9, 57, 127
1, 132000, Note_on_c, 9, 36, 127
1, 132010, Note_on_c, 9, 57, 0
1, 132239, Note_on_c, 9, 36, 0
1, 132240, Note_on_c, 9, 57, 127
1, 132240, Note_on_c, 9, 36, 127
1, 132250, Note_on_c, 9, 57, 0
1, 132479, Note_on_c, 9, 36, 0
1, 132480, Note_on_c, 9, 57, 127
1, 132480, Note_on_c, 9, 36, 127
1, 132490, Note_on_c, 9, 57, 0
1, 132720, Note_on_c, 9, 42, 127
1, 132730, Note_on_c, 9, 42, 0
1, 132959, Note_on_c, 9, 36, 0
1, 132960, Note_on_c, 9, 38, 127
1, 132960, Note_on_c, 9, 42, 127
1, 132970, Note_on_c, 9, 42, 0
1, 133199, Note_on_c, 9, 38, 0
1, 133200, Note_on_c, 9, 42, 127
1, 133210, Note_on_c, 9, 42, 0
1, 133440, Note_on_c, 9, 38, 127
1, 133679, Note_on_c, 9, 38, 0
1, 133680, Note_on_c, 9, 45, 127
1, 133919, Note_on_c, 9, 45, 0
1, 133920, Note_on_c, 9, 47, 127
1, 134159, Note_on_c, 9, 47, 0
1, 134160, Note_on_c, 9, 48, 127
1, 134399, Note_on_c, 9, 48, 0
1, 134400, Note_on_c, 9, 57, 127
1, 134400, Note_on_c, 9, 36, 127
1, 134410, Note_on_c, 9, 57, 0
1, 134640, Note_on_c, 9, 42, 127
1, 134650, Note_on_c, 9, 42, 0
1, 134879, Note_on_c, 9, 36, 0
1, 134880, Note_on_c, 9, 42, 127
1, 134890, Note_on_c, 9, 42, 0
1, 135120, Note_on_c, 9, 42, 127
1, 135120, Note_on_c, 9, 36, 127
1, 135130, Note_on_c, 9, 42, 0
1, 135359, Note_on_c, 9, 36, 0
1, 135360, Note_on_c, 9, 38, 127
1, 135360, Note_on_c, 9, 42, 127
1, 135370, Note_on_c, 9, 42, 0
1, 135599, Note_on_c, 9, 38, 0
1, 135600, Note_on_c, 9, 42, 127
1, 135610, Note_on_c, 9, 42, 0
1, 135840, Note_on_c, 9, 42, 127
1, 135850, Note_on_c, 9, 42, 0
1, 136080, Note_on_c, 9, 42, 127
1, 136090, Note_on_c, 9, 42, 0
1, 136320, Note_on_c, 9, 42, 127
1, 136320, Note_on_c, 9, 36, 127
1, 136330, Note_on_c, 9, 42, 0
1, 136560, Note_on_c, 9, 42, 127
1, 136570, Note_on_c, 9, 42, 0
1, 136799, Note_on_c, 9, 36, 0
1, 136800, Note_on_c, 9, 42, 127
1, 136810, Note_on_c, 9, 42, 0
1, 137040, Note_on_c, 9, 42, 127
1, 137040, Note_on_c, 9, 36, 127
1, 137050, Note_on_c, 9, 42, 0
1, 137279, Note_on_c, 9, 36, 0
1, 137280, Note_on_c, 9, 38, 127
1, 137280, Note_on_c, 9, 42, 127
1, 137290, Note_on_c, 9, 42, 0
1, 137519, Note_on_c, 9, 38, 0
1, 137520, Note_on_c, 9, 42, 127
1, 137530, Note_on_c, 9, 42, 0
1, 137760, Note_on_c, 9, 42, 127
1, 137770, Note_on_c, 9, 42, 0
1, 138000, Note_on_c, 9, 42, 127
1, 138000, Note_on_c, 9, 36, 127
1, 138010, Note_on_c, 9, 42, 0
1, 138239, Note_on_c, 9, 36, 0
1, 138240, Note_on_c, 9, 42, 127
1, 138240, Note_on_c, 9, 36, 127
1, 138250, Note_on_c, 9, 42, 0
1, 138480, Note_on_c, 9, 42, 127
1, 138490, Note_on_c, 9, 42, 0
1, 138719, Note_on_c, 9, 36, 0
1, 138720, Note_on_c, 9, 42, 127
1, 138730, Note_on_c, 9, 42, 0
1, 138960, Note_on_c, 9, 42, 127
1, 138960, Note_on_c, 9, 36, 127
1, 138970, Note_on_c, 9, 42, 0
1, 139199, Note_on_c, 9, 36, 0
1, 139200, Note_on_c, 9, 38, 127
1, 139200, Note_on_c, 9, 57, 127
1, 139210, Note_on_c, 9, 57, 0
1, 139439, Note_on_c, 9, 38, 0
1, 139440, Note_on_c, 9, 42, 127
1, 139450, Note_on_c, 9, 42, 0
1, 139680, Note_on_c, 9, 42, 127
1, 139690, Note_on_c, 9, 42, 0
1, 139920, Note_on_c, 9, 42, 127
1, 139920, Note_on_c, 9, 36, 127
1, 139930, Note_on_c, 9, 42, 0
1, 140159, Note_on_c, 9, 36, 0
1, 140160, Note_on_c, 9, 38, 127
1, 140160, Note_on_c, 9, 57, 127
1, 140170, Note_on_c, 9, 57, 0
1, 140399, Note_on_c, 9, 38, 0
1, 140400, Note_on_c, 9, 42, 127
1, 140410, Note_on_c, 9, 42, 0
1, 140640, Note_on_c, 9, 42, 127
1, 140650, Note_on_c, 9, 42, 0
1, 140880, Note_on_c, 9, 42, 127
1, 140880, Note_on_c, 9, 36, 127
1, 140890, Note_on_c, 9, 42, 0
1, 141119, Note_on_c, 9, 36, 0
1, 141120, Note_on_c, 9, 38, 127
1, 141120, Note_on_c, 9, 57, 127
1, 141141, Note_on_c, 9, 57, 0
1, 141599, Note_on_c, 9, 38, 0
1, 141600, Note_on_c, 9, 57, 127
1, 141600, Note_on_c, 9, 36, 127
1, 141621, Note_on_c, 9, 57, 0
1, 142079, Note_on_c, 9, 36, 0
1, 142080, Note_on_c, 9, 57, 127
1, 142080, Note_on_c, 9, 36, 127
1, 142090, Note_on_c, 9, 57, 0
1, 142320, Note_on_c, 9, 42, 127
1, 142330, Note_on_c, 9, 42, 0
1, 142559, Note_on_c, 9, 36, 0
1, 142560, Note_on_c, 9, 42, 127
1, 142570, Note_on_c, 9, 42, 0
1, 142800, Note_on_c, 9, 42, 127
1, 142800, Note_on_c, 9, 36, 127
1, 142810, Note_on_c, 9, 42, 0
1, 143039, Note_on_c, 9, 36, 0
1, 143040, Note_on_c, 9, 38, 127
1, 143040, Note_on_c, 9, 42, 127
1, 143050, Note_on_c, 9, 42, 0
1, 143279, Note_on_c, 9, 38, 0
1, 143280, Note_on_c, 9, 42, 127
1, 143290, Note_on_c, 9, 42, 0
1, 143520, Note_on_c, 9, 42, 127
1, 143530, Note_on_c, 9, 42, 0
1, 143760, Note_on_c, 9, 42, 127
1, 143760, Note_on_c, 9, 36, 127
1, 143770, Note_on_c, 9, 42, 0
1, 143999, Note_on_c, 9, 36, 0
1, 144000, Note_on_c, 9, 42, 127
1, 144000, Note_on_c, 9, 36, 127
1, 144010, Note_on_c, 9, 42, 0
1, 144240, Note_on_c, 9, 42, 127
1, 144250, Note_on_c, 9, 42, 0
1, 144479, Note_on_c, 9, 36, 0
1, 144480, Note_on_c, 9, 42, 127
1, 144480, Note_on_c, 9, 36, 127
1, 144490, Note_on_c, 9, 42, 0
1, 144720, Note_on_c, 9, 42, 127
1, 144730, Note_on_c, 9, 42, 0
1, 144959, Note_on_c, 9, 36, 0
1, 144960, Note_on_c, 9, 38, 127
1, 144960, Note_on_c, 9, 42, 127
1, 144970, Note_on_c, 9, 42, 0
1, 145199, Note_on_c, 9, 38, 0
1, 145200, Note_on_c, 9, 42, 127
1, 145210, Note_on_c, 9, 42, 0
1, 145440, Note_on_c, 9, 42, 127
1, 145450, Note_on_c, 9, 42, 0
1, 145680, Note_on_c, 9, 42, 127
1, 145680, Note_on_c, 9, 36, 127
1, 145690, Note_on_c, 9, 42, 0
1, 145919, Note_on_c, 9, 36, 0
1, 145920, Note_on_c, 9, 42, 127
1, 145920, Note_on_c, 9, 36, 127
1, 145930, Note_on_c, 9, 42, 0
1, 146160, Note_on_c, 9, 42, 127
1, 146170, Note_on_c, 9, 42, 0
1, 146399, Note_on_c, 9, 36, 0
1, 146400, Note_on_c, 9, 42, 127
1, 146410, Note_on_c, 9, 42, 0
1, 146640, Note_on_c, 9, 42, 127
1, 146640, Note_on_c, 9, 36, 127
1, 146650, Note_on_c, 9, 42, 0
1, 146879, Note_on_c, 9, 36, 0
1, 146880, Note_on_c, 9, 38, 127
1, 146880, Note_on_c, 9, 57, 127
1, 146890, Note_on_c, 9, 57, 0
1, 147119, Note_on_c, 9, 38, 0
1, 147120, Note_on_c, 9, 42, 127
1, 147130, Note_on_c, 9, 42, 0
1, 147360, Note_on_c, 9, 42, 127
1, 147370, Note_on_c, 9, 42, 0
1, 147600, Note_on_c, 9, 42, 127
1, 147600, Note_on_c, 9, 36, 127
1, 147610, Note_on_c, 9, 42, 0
1, 147839, Note_on_c, 9, 36, 0
1, 147840, Note_on_c, 9, 38, 127
1, 148199, Note_on_c, 9, 38, 0
1, 148200, Note_on_c, 9, 38, 127
1, 148219, Note_on_c, 9, 38, 0
1, 148220, Note_on_c, 9, 38, 127
1, 148239, Note_on_c, 9, 38, 0
1, 148240, Note_on_c, 9, 38, 127
1, 148259, Note_on_c, 9, 38, 0
1, 148260, Note_on_c, 9, 38, 127
1, 148279, Note_on_c, 9, 38, 0
1, 148280, Note_on_c, 9, 38, 127
1, 148299, Note_on_c, 9, 38, 0
1, 148300, Note_on_c, 9, 38, 127
1, 148319, Note_on_c, 9, 38, 0
1, 148320, Note_on_c, 9, 45, 127
1, 148559, Note_on_c, 9, 45, 0
1, 148560, Note_on_c, 9, 47, 127
1, 148799, Note_on_c, 9, 47, 0
1, 148800, Note_on_c, 9, 38, 127
1, 149159, Note_on_c, 9, 38, 0
1, 149160, Note_on_c, 9, 38, 127
1, 149179, Note_on_c, 9, 38, 0
1, 149180, Note_on_c, 9, 38, 127
1, 149199, Note_on_c, 9, 38, 0
1, 149200, Note_on_c, 9, 38, 127
1, 149219, Note_on_c, 9, 38, 0
1, 149220, Note_on_c, 9, 38, 127
1, 149239, Note_on_c, 9, 38, 0
1, 149240, Note_on_c, 9, 38, 127
1, 149259, Note_on_c, 9, 38, 0
1, 149260, Note_on_c, 9, 38, 127
1, 149279, Note_on_c, 9, 38, 0
1, 149280, Note_on_c, 9, 45, 127
1, 149519, Note_on_c, 9, 45, 0
1, 149520, Note_on_c, 9, 47, 127
1, 149759, Note_on_c, 9, 47, 0
1, 149760, Note_on_c, 9, 57, 127
1, 149760, Note_on_c, 9, 36, 127
1, 149770, Note_on_c, 9, 57, 0
1, 150000, Note_on_c, 9, 42, 127
1, 150010, Note_on_c, 9, 42, 0
1, 150239, Note_on_c, 9, 36, 0
1, 150240, Note_on_c, 9, 42, 127
1, 150250, Note_on_c, 9, 42, 0
1, 150480, Note_on_c, 9, 42, 127
1, 150480, Note_on_c, 9, 36, 127
1, 150490, Note_on_c, 9, 42, 0
1, 150719, Note_on_c, 9, 36, 0
1, 150720, Note_on_c, 9, 42, 127
1, 150730, Note_on_c, 9, 42, 0
1, 150960, Note_on_c, 9, 42, 127
1, 150970, Note_on_c, 9, 42, 0
1, 151200, Note_on_c, 9, 42, 127
1, 151210, Note_on_c, 9, 42, 0
1, 151440, Note_on_c, 9, 42, 127
1, 151440, Note_on_c, 9, 36, 127
1, 151450, Note_on_c, 9, 42, 0
1, 151679, Note_on_c, 9, 36, 0
1, 151680, Note_on_c, 9, 42, 127
1, 151680, Note_on_c, 9, 36, 127
1, 151690, Note_on_c, 9, 42, 0
1, 151920, Note_on_c, 9, 42, 127
1, 151930, Note_on_c, 9, 42, 0
1, 152159, Note_on_c, 9, 36, 0
1, 152160, Note_on_c, 9, 42, 127
1, 152170, Note_on_c, 9, 42, 0
1, 152400, Note_on_c, 9, 42, 127
1, 152400, Note_on_c, 9, 36, 127
1, 152410, Note_on_c, 9, 42, 0
1, 152639, Note_on_c, 9, 36, 0
1, 152640, Note_on_c, 9, 42, 127
1, 152650, Note_on_c, 9, 42, 0
1, 152880, Note_on_c, 9, 42, 127
1, 152890, Note_on_c, 9, 42, 0
1, 153120, Note_on_c, 9, 42, 127
1, 153130, Note_on_c, 9, 42, 0
1, 153360, Note_on_c, 9, 42, 127
1, 153360, Note_on_c, 9, 36, 127
1, 153370, Note_on_c, 9, 42, 0
1, 153599, Note_on_c, 9, 36, 0
1, 153600, Note_on_c, 9, 42, 127
1, 153600, Note_on_c, 9, 36, 127
1, 153610, Note_on_c, 9, 42, 0
1, 153840, Note_on_c, 9, 42, 127
1, 153850, Note_on_c, 9, 42, 0
1, 154079, Note_on_c, 9, 36, 0
1, 154080, Note_on_c, 9, 42, 127
1, 154090, Note_on_c, 9, 42, 0
1, 154320, Note_on_c, 9, 42, 127
1, 154320, Note_on_c, 9, 36, 127
1, 154330, Note_on_c, 9, 42, 0
1, 154559, Note_on_c, 9, 36, 0
1, 154560, Note_on_c, 9, 57, 127
1, 154570, Note_on_c, 9, 57, 0
1, 154800, Note_on_c, 9, 42, 127
1, 154810, Note_on_c, 9, 42, 0
1, 155040, Note_on_c, 9, 42, 127
1, 155050, Note_on_c, 9, 42, 0
1, 155280, Note_on_c, 9, 42, 127
1, 155280, Note_on_c, 9, 36, 127
1, 155290, Note_on_c, 9, 42, 0
1, 155519, Note_on_c, 9, 36, 0
1, 155520, Note_on_c, 9, 38, 127
1, 155520, Note_on_c, 9, 57, 127
1, 155530, Note_on_c, 9, 57, 0
1, 155759, Note_on_c, 9, 38, 0
1, 155760, Note_on_c, 9, 42, 127
1, 155770, Note_on_c, 9, 42, 0
1, 156000, Note_on_c, 9, 42, 127
1, 156010, Note_on_c, 9, 42, 0
1, 156240, Note_on_c, 9, 42, 127
1, 156240, Note_on_c, 9, 36, 127
1, 156250, Note_on_c, 9, 42, 0
1, 156479, Note_on_c, 9, 36, 0
1, 156480, Note_on_c, 9, 38, 127
1, 156719, Note_on_c, 9, 38, 0
1, 156720, Note_on_c, 9, 38, 127
1, 156959, Note_on_c, 9, 38, 0
1, 156960, Note_on_c, 9, 57, 127
1, 156960, Note_on_c, 9, 36, 127
1, 156970, Note_on_c, 9, 57, 0
1, 157199, Note_on_c, 9, 36, 0
1, 157200, Note_on_c, 9, 57, 127
1, 157200, Note_on_c, 9, 36, 127
1, 157210, Note_on_c, 9, 57, 0
1, 157439, Note_on_c, 9, 36, 0
1, 157440, Note_on_c, 9, 57, 127
1, 157440, Note_on_c, 9, 36, 127
1, 157450, Note_on_c, 9, 57, 0
1, 157680, Note_on_c, 9, 42, 127
1, 157690, Note_on_c, 9, 42, 0
1, 157919, Note_on_c, 9, 36, 0
1, 157920, Note_on_c, 9, 42, 127
1, 157930, Note_on_c, 9, 42, 0
1, 158160, Note_on_c, 9, 42, 127
1, 158160, Note_on_c, 9, 36, 127
1, 158170, Note_on_c, 9, 42, 0
1, 158399, Note_on_c, 9, 36, 0
1, 158400, Note_on_c, 9, 38, 127
1, 158400, Note_on_c, 9, 42, 127
1, 158410, Note_on_c, 9, 42, 0
1, 158639, Note_on_c, 9, 38, 0
1, 158640, Note_on_c, 9, 42, 127
1, 158650, Note_on_c, 9, 42, 0
1, 158880, Note_on_c, 9, 42, 127
1, 158890, Note_on_c, 9, 42, 0
1, 159120, Note_on_c, 9, 42, 127
1, 159120, Note_on_c, 9, 36, 127
1, 159130, Note_on_c, 9, 42, 0
1, 159359, Note_on_c, 9, 36, 0
1, 159360, Note_on_c, 9, 42, 127
1, 159360, Note_on_c, 9, 36, 127
1, 159370, Note_on_c, 9, 42, 0
1, 159600, Note_on_c, 9, 42, 127
1, 159610, Note_on_c, 9, 42, 0
1, 159839, Note_on_c, 9, 36, 0
1, 159840, Note_on_c, 9, 42, 127
1, 159850, Note_on_c, 9, 42, 0
1, 160080, Note_on_c, 9, 42, 127
1, 160080, Note_on_c, 9, 36, 127
1, 160090, Note_on_c, 9, 42, 0
1, 160319, Note_on_c, 9, 36, 0
1, 160320, Note_on_c, 9, 38, 127
1, 160320, Note_on_c, 9, 42, 127
1, 160330, Note_on_c, 9, 42, 0
1, 160559, Note_on_c, 9, 38, 0
1, 160560, Note_on_c, 9, 42, 127
1, 160570, Note_on_c, 9, 42, 0
1, 160800, Note_on_c, 9, 42, 127
1, 160810, Note_on_c, 9, 42, 0
1, 161040, Note_on_c, 9, 42, 127
1, 161040, Note_on_c, 9, 36, 127
1, 161050, Note_on_c, 9, 42, 0
1, 161279, Note_on_c, 9, 36, 0
1, 161280, Note_on_c, 9, 42, 127
1, 161280, Note_on_c, 9, 36, 127
1, 161290, Note_on_c, 9, 42, 0
1, 161520, Note_on_c, 9, 42, 127
1, 161530, Note_on_c, 9, 42, 0
1, 161759, Note_on_c, 9, 36, 0
1, 161760, Note_on_c, 9, 42, 127
1, 161760, Note_on_c, 9, 36, 127
1, 161770, Note_on_c, 9, 42, 0
1, 162000, Note_on_c, 9, 42, 127
1, 162010, Note_on_c, 9, 42, 0
1, 162239, Note_on_c, 9, 36, 0
1, 162240, Note_on_c, 9, 38, 127
1, 162240, Note_on_c, 9, 42, 127
1, 162250, Note_on_c, 9, 42, 0
1, 162479, Note_on_c, 9, 38, 0
1, 162480, Note_on_c, 9, 42, 127
1, 162490, Note_on_c, 9, 42, 0
1, 162720, Note_on_c, 9, 42, 127
1, 162730, Note_on_c, 9, 42, 0
1, 162960, Note_on_c, 9, 42, 127
1, 162960, Note_on_c, 9, 36, 127
1, 162970, Note_on_c, 9, 42, 0
1, 163199, Note_on_c, 9, 36, 0
1, 163200, Note_on_c, 9, 42, 127
1, 163200, Note_on_c, 9, 36, 127
1, 163210, Note_on_c, 9, 42, 0
1, 163440, Note_on_c, 9, 42, 127
1, 163450, Note_on_c, 9, 42, 0
1, 163679, Note_on_c, 9, 36, 0
1, 163680, Note_on_c, 9, 42, 127
1, 163690, Note_on_c, 9, 42, 0
1, 163920, Note_on_c, 9, 42, 127
1, 163930, Note_on_c, 9, 42, 0
1, 164160, Note_on_c, 9, 57, 127
1, 164160, Note_on_c, 9, 36, 127
1, 164181, Note_on_c, 9, 57, 0
1, 164639, Note_on_c, 9, 36, 0
1, 164640, Note_on_c, 9, 57, 127
1, 164640, Note_on_c, 9, 36, 127
1, 164661, Note_on_c, 9, 57, 0
1, 165119, Note_on_c, 9, 36, 0
1, 165120, Note_on_c, 9, 57, 127
1, 165120, Note_on_c, 9, 36, 127
1, 165130, Note_on_c, 9, 57, 0
1, 165360, Note_on_c, 9, 42, 127
1, 165370, Note_on_c, 9, 42, 0
1, 165599, Note_on_c, 9, 36, 0
1, 165600, Note_on_c, 9, 42, 127
1, 165610, Note_on_c, 9, 42, 0
1, 165840, Note_on_c, 9, 42, 127
1, 165840, Note_on_c, 9, 36, 127
1, 165850, Note_on_c, 9, 42, 0
1, 166079, Note_on_c, 9, 36, 0
1, 166080, Note_on_c, 9, 38, 127
1, 166080, Note_on_c, 9, 42, 127
1, 166090, Note_on_c, 9, 42, 0
1, 166319, Note_on_c, 9, 38, 0
1, 166320, Note_on_c, 9, 42, 127
1, 166330, Note_on_c, 9, 42, 0
1, 166560, Note_on_c, 9, 42, 127
1, 166570, Note_on_c, 9, 42, 0
1, 166800, Note_on_c, 9, 42, 127
1, 166800, Note_on_c, 9, 36, 127
1, 166810, Note_on_c, 9, 42, 0
1, 167039, Note_on_c, 9, 36, 0
1, 167040, Note_on_c, 9, 42, 127
1, 167040, Note_on_c, 9, 36, 127
1, 167050, Note_on_c, 9, 42, 0
1, 167280, Note_on_c, 9, 42, 127
1, 167290, Note_on_c, 9, 42, 0
1, 167519, Note_on_c, 9, 36, 0
1, 167520, Note_on_c, 9, 42, 127
1, 167530, Note_on_c, 9, 42, 0
1, 167760, Note_on_c, 9, 42, 127
1, 167760, Note_on_c, 9, 36, 127
1, 167770, Note_on_c, 9, 42, 0
1, 167999, Note_on_c, 9, 36, 0
1, 168000, Note_on_c, 9, 38, 127
1, 168000, Note_on_c, 9, 57, 127
1, 168021, Note_on_c, 9, 57, 0
1, 168479, Note_on_c, 9, 38, 0
1, 168480, Note_on_c, 9, 42, 127
1, 168490, Note_on_c, 9, 42, 0
1, 168720, Note_on_c, 9, 42, 127
1, 168720, Note_on_c, 9, 36, 127
1, 168730, Note_on_c, 9, 42, 0
1, 168959, Note_on_c, 9, 36, 0
1, 168960, Note_on_c, 9, 42, 127
1, 168960, Note_on_c, 9, 36, 127
1, 168970, Note_on_c, 9, 42, 0
1, 169200, Note_on_c, 9, 42, 127
1, 169210, Note_on_c, 9, 42, 0
1, 169439, Note_on_c, 9, 36, 0
1, 169440, Note_on_c, 9, 42, 127
1, 169450, Note_on_c, 9, 42, 0
1, 169680, Note_on_c, 9, 42, 127
1, 169680, Note_on_c, 9, 36, 127
1, 169690, Note_on_c, 9, 42, 0
1, 169919, Note_on_c, 9, 36, 0
1, 169920, Note_on_c, 9, 38, 127
1, 169920, Note_on_c, 9, 42, 127
1, 169930, Note_on_c, 9, 42, 0
1, 170159, Note_on_c, 9, 38, 0
1, 170160, Note_on_c, 9, 42, 127
1, 170170, Note_on_c, 9, 42, 0
1, 170400, Note_on_c, 9, 42, 127
1, 170410, Note_on_c, 9, 42, 0
1, 170640, Note_on_c, 9, 42, 127
1, 170640, Note_on_c, 9, 36, 127
1, 170650, Note_on_c, 9, 42, 0
1, 170879, Note_on_c, 9, 36, 0
1, 170880, Note_on_c, 9, 38, 127
1, 170880, Note_on_c, 9, 57, 127
1, 170895, Note_on_c, 9, 57, 0
1, 171239, Note_on_c, 9, 38, 0
1, 171240, Note_on_c, 9, 38, 127
1, 171359, Note_on_c, 9, 38, 0
1, 171360, Note_on_c, 9, 38, 127
1, 171599, Note_on_c, 9, 38, 0
1, 171600, Note_on_c, 9, 45, 127
1, 171839, Note_on_c, 9, 45, 0
1, 171840, Note_on_c, 9, 57, 127
1, 171840, Note_on_c, 9, 36, 127
1, 171855, Note_on_c, 9, 57, 0
1, 172200, Note_on_c, 9, 38, 127
1, 172319, Note_on_c, 9, 36, 0
1, 172319, Note_on_c, 9, 38, 0
1, 172320, Note_on_c, 9, 38, 127
1, 172559, Note_on_c, 9, 38, 0
1, 172560, Note_on_c, 9, 38, 127
1, 172799, Note_on_c, 9, 38, 0
1, 172800, Note_on_c, 9, 57, 127
1, 172800, Note_on_c, 9, 36, 127
1, 172821, Note_on_c, 9, 57, 0
1, 173279, Note_on_c, 9, 36, 0
1, 173280, Note_on_c, 9, 42, 127
1, 173290, Note_on_c, 9, 42, 0
1, 173520, Note_on_c, 9, 42, 127
1, 173520, Note_on_c, 9, 36, 127
1, 173530, Note_on_c, 9, 42, 0
1, 173759, Note_on_c, 9, 36, 0
1, 173760, Note_on_c, 9, 38, 127
1, 173760, Note_on_c, 9, 42, 127
1, 173770, Note_on_c, 9, 42, 0
1, 173999, Note_on_c, 9, 38, 0
1, 174000, Note_on_c, 9, 42, 127
1, 174010, Note_on_c, 9, 42, 0
1, 174240, Note_on_c, 9, 42, 127
1, 174250, Note_on_c, 9, 42, 0
1, 174480, Note_on_c, 9, 42, 127
1, 174480, Note_on_c, 9, 36, 127
1, 174490, Note_on_c, 9, 42, 0
1, 174719, Note_on_c, 9, 36, 0
1, 174720, Note_on_c, 9, 42, 127
1, 174720, Note_on_c, 9, 36, 127
1, 174730, Note_on_c, 9, 42, 0
1, 174960, Note_on_c, 9, 42, 127
1, 174970, Note_on_c, 9, 42, 0
1, 175199, Note_on_c, 9, 36, 0
1, 175200, Note_on_c, 9, 42, 127
1, 175210, Note_on_c, 9, 42, 0
1, 175440, Note_on_c, 9, 42, 127
1, 175440, Note_on_c, 9, 36, 127
1, 175450, Note_on_c, 9, 42, 0
1, 175679, Note_on_c, 9, 36, 0
1, 175680, Note_on_c, 9, 38, 127
1, 175680, Note_on_c, 9, 42, 127
1, 175690, Note_on_c, 9, 42, 0
1, 175919, Note_on_c, 9, 38, 0
1, 175920, Note_on_c, 9, 42, 127
1, 175930, Note_on_c, 9, 42, 0
1, 176160, Note_on_c, 9, 42, 127
1, 176170, Note_on_c, 9, 42, 0
1, 176400, Note_on_c, 9, 42, 127
1, 176400, Note_on_c, 9, 36, 127
1, 176410, Note_on_c, 9, 42, 0
1, 176639, Note_on_c, 9, 36, 0
1, 176640, Note_on_c, 9, 42, 127
1, 176640, Note_on_c, 9, 36, 127
1, 176650, Note_on_c, 9, 42, 0
1, 176880, Note_on_c, 9, 42, 127
1, 176890, Note_on_c, 9, 42, 0
1, 177119, Note_on_c, 9, 36, 0
1, 177120, Note_on_c, 9, 42, 127
1, 177130, Note_on_c, 9, 42, 0
1, 177360, Note_on_c, 9, 42, 127
1, 177360, Note_on_c, 9, 36, 127
1, 177370, Note_on_c, 9, 42, 0
1, 177599, Note_on_c, 9, 36, 0
1, 177600, Note_on_c, 9, 38, 127
1, 177600, Note_on_c, 9, 57, 127
1, 177621, Note_on_c, 9, 57, 0
1, 178079, Note_on_c, 9, 38, 0
1, 178080, Note_on_c, 9, 42, 127
1, 178090, Note_on_c, 9, 42, 0
1, 178320, Note_on_c, 9, 42, 127
1, 178330, Note_on_c, 9, 42, 0
1, 178560, Note_on_c, 9, 47, 127
1, 178560, Note_on_c, 9, 48, 127
1, 178799, Note_on_c, 9, 47, 0
1, 178799, Note_on_c, 9, 48, 0
1, 178800, Note_on_c, 9, 47, 127
1, 178800, Note_on_c, 9, 48, 127
1, 179039, Note_on_c, 9, 47, 0
1, 179039, Note_on_c, 9, 48, 0
1, 179040, Note_on_c, 9, 47, 127
1, 179040, Note_on_c, 9, 48, 127
1, 179279, Note_on_c, 9, 47, 0
1, 179279, Note_on_c, 9, 48, 0
1, 179280, Note_on_c, 9, 47, 127
1, 179280, Note_on_c, 9, 48, 127
1, 179519, Note_on_c, 9, 47, 0
1, 179519, Note_on_c, 9, 48, 0
1, 179520, Note_on_c, 9, 47, 127
1, 179520, Note_on_c, 9, 48, 127
1, 179759, Note_on_c, 9, 47, 0
1, 179759, Note_on_c, 9, 48, 0
1, 179760, Note_on_c, 9, 47, 127
1, 179760, Note_on_c, 9, 48, 127
1, 179999, Note_on_c, 9, 47, 0
1, 179999, Note_on_c, 9, 48, 0
1, 180000, Note_on_c, 9, 38, 127
1, 180000, Note_on_c, 9, 57, 127
1, 180021, Note_on_c, 9, 57, 0
1, 180479, Note_on_c, 9, 38, 0
1, 180480, Note_on_c, 9, 57, 127
1, 180480, Note_on_c, 9, 36, 127
1, 180501, Note_on_c, 9, 57, 0
1, 180959, Note_on_c, 9, 36, 0
1, 180960, Note_on_c, 9, 42, 127
1, 180970, Note_on_c, 9, 42, 0
1, 181200, Note_on_c, 9, 42, 127
1, 181200, Note_on_c, 9, 36, 127
1, 181210, Note_on_c, 9, 42, 0
1, 181439, Note_on_c, 9, 36, 0
1, 181440, Note_on_c, 9, 38, 127
1, 181440, Note_on_c, 9, 42, 127
1, 181450, Note_on_c, 9, 42, 0
1, 181679, Note_on_c, 9, 38, 0
1, 181680, Note_on_c, 9, 38, 127
1, 181799, Note_on_c, 9, 38, 0
1, 181800, Note_on_c, 9, 38, 127
1, 181919, Note_on_c, 9, 38, 0
1, 181920, Note_on_c, 9, 57, 127
1, 181920, Note_on_c, 9, 36, 127
1, 181930, Note_on_c, 9, 57, 0
1, 182159, Note_on_c, 9, 36, 0
1, 182160, Note_on_c, 9, 57, 127
1, 182160, Note_on_c, 9, 35, 127
1, 182170, Note_on_c, 9, 57, 0
1, 182399, Note_on_c, 9, 35, 0
1, 182400, Note_on_c, 9, 57, 127
1, 182400, Note_on_c, 9, 36, 127
1, 182421, Note_on_c, 9, 57, 0
1, 182879, Note_on_c, 9, 36, 0
1, 182880, Note_on_c, 9, 42, 127
1, 182890, Note_on_c, 9, 42, 0
1, 183120, Note_on_c, 9, 42, 127
1, 183120, Note_on_c, 9, 36, 127
1, 183130, Note_on_c, 9, 42, 0
1, 183359, Note_on_c, 9, 36, 0
1, 183360, Note_on_c, 9, 38, 127
1, 183360, Note_on_c, 9, 42, 127
1, 183370, Note_on_c, 9, 42, 0
1, 183599, Note_on_c, 9, 38, 0
1, 183600, Note_on_c, 9, 57, 127
1, 183600, Note_on_c, 9, 36, 127
1, 183610, Note_on_c, 9, 57, 0
1, 183839, Note_on_c, 9, 36, 0
1, 183840, Note_on_c, 9, 57, 127
1, 183840, Note_on_c, 9, 36, 127
1, 183850, Note_on_c, 9, 57, 0
1, 184079, Note_on_c, 9, 36, 0
1, 184080, Note_on_c, 9, 57, 127
1, 184080, Note_on_c, 9, 36, 127
1, 184090, Note_on_c, 9, 57, 0
1, 184319, Note_on_c, 9, 36, 0
1, 184320, Note_on_c, 9, 57, 127
1, 184320, Note_on_c, 9, 36, 127
1, 184330, Note_on_c, 9, 57, 0
1, 184560, Note_on_c, 9, 42, 127
1, 184570, Note_on_c, 9, 42, 0
1, 184799, Note_on_c, 9, 36, 0
1, 184800, Note_on_c, 9, 42, 127
1, 184810, Note_on_c, 9, 42, 0
1, 185040, Note_on_c, 9, 42, 127
1, 185040, Note_on_c, 9, 36, 127
1, 185050, Note_on_c, 9, 42, 0
1, 185279, Note_on_c, 9, 36, 0
1, 185280, Note_on_c, 9, 38, 127
1, 185280, Note_on_c, 9, 42, 127
1, 185290, Note_on_c, 9, 42, 0
1, 185519, Note_on_c, 9, 38, 0
1, 185520, Note_on_c, 9, 42, 127
1, 185530, Note_on_c, 9, 42, 0
1, 185760, Note_on_c, 9, 57, 127
1, 185760, Note_on_c, 9, 36, 127
1, 185781, Note_on_c, 9, 57, 0
1, 186239, Note_on_c, 9, 36, 0
1, 186240, Note_on_c, 9, 57, 127
1, 186240, Note_on_c, 9, 36, 127
1, 186261, Note_on_c, 9, 57, 0
1, 186719, Note_on_c, 9, 36, 0
1, 186720, Note_on_c, 9, 38, 127
1, 186720, Note_on_c, 9, 42, 127
1, 186730, Note_on_c, 9, 42, 0
1, 186959, Note_on_c, 9, 38, 0
1, 186960, Note_on_c, 9, 42, 127
1, 186970, Note_on_c, 9, 42, 0
1, 187200, Note_on_c, 9, 48, 127
1, 187279, Note_on_c, 9, 48, 0
1, 187280, Note_on_c, 9, 47, 127
1, 187360, Note_on_c, 9, 36, 127
1, 187439, Note_on_c, 9, 47, 0
1, 187439, Note_on_c, 9, 36, 0
1, 187440, Note_on_c, 9, 35, 127
1, 187679, Note_on_c, 9, 35, 0
1, 187680, Note_on_c, 9, 48, 127
1, 187759, Note_on_c, 9, 48, 0
1, 187760, Note_on_c, 9, 47, 127
1, 187840, Note_on_c, 9, 36, 127
1, 187919, Note_on_c, 9, 47, 0
1, 187919, Note_on_c, 9, 36, 0
1, 187920, Note_on_c, 9, 35, 127
1, 188159, Note_on_c, 9, 35, 0
1, 188160, Note_on_c, 9, 57, 127
1, 188160, Note_on_c, 9, 36, 127
1, 188170, Note_on_c, 9, 57, 0
1, 188400, Note_on_c, 9, 42, 127
1, 188410, Note_on_c, 9, 42, 0
1, 188639, Note_on_c, 9, 36, 0
1, 188640, Note_on_c, 9, 42, 127
1, 188650, Note_on_c, 9, 42, 0
1, 188880, Note_on_c, 9, 42, 127
1, 188880, Note_on_c, 9, 36, 127
1, 188890, Note_on_c, 9, 42, 0
1, 189119, Note_on_c, 9, 36, 0
1, 189120, Note_on_c, 9, 38, 127
1, 189120, Note_on_c, 9, 42, 127
1, 189130, Note_on_c, 9, 42, 0
1, 189359, Note_on_c, 9, 38, 0
1, 189360, Note_on_c, 9, 38, 127
1, 189479, Note_on_c, 9, 38, 0
1, 189480, Note_on_c, 9, 38, 127
1, 189599, Note_on_c, 9, 38, 0
1, 189600, Note_on_c, 9, 57, 127
1, 189600, Note_on_c, 9, 36, 127
1, 189610, Note_on_c, 9, 57, 0
1, 189839, Note_on_c, 9, 36, 0
1, 189840, Note_on_c, 9, 57, 127
1, 189840, Note_on_c, 9, 36, 127
1, 189850, Note_on_c, 9, 57, 0
1, 190079, Note_on_c, 9, 36, 0
1, 190080, Note_on_c, 9, 57, 127
1, 190080, Note_on_c, 9, 36, 127
1, 190090, Note_on_c, 9, 57, 0
1, 190320, Note_on_c, 9, 42, 127
1, 190330, Note_on_c, 9, 42, 0
1, 190559, Note_on_c, 9, 36, 0
1, 190560, Note_on_c, 9, 42, 127
1, 190570, Note_on_c, 9, 42, 0
1, 190800, Note_on_c, 9, 42, 127
1, 190800, Note_on_c, 9, 36, 127
1, 190810, Note_on_c, 9, 42, 0
1, 191039, Note_on_c, 9, 36, 0
1, 191040, Note_on_c, 9, 38, 127
1, 191040, Note_on_c, 9, 42, 127
1, 191050, Note_on_c, 9, 42, 0
1, 191279, Note_on_c, 9, 38, 0
1, 191280, Note_on_c, 9, 57, 127
1, 191280, Note_on_c, 9, 36, 127
1, 191290, Note_on_c, 9, 57, 0
1, 191519, Note_on_c, 9, 36, 0
1, 191520, Note_on_c, 9, 57, 127
1, 191520, Note_on_c, 9, 36, 127
1, 191530, Note_on_c, 9, 57, 0
1, 191759, Note_on_c, 9, 36, 0
1, 191760, Note_on_c, 9, 57, 127
1, 191760, Note_on_c, 9, 36, 127
1, 191770, Note_on_c, 9, 57, 0
1, 191999, Note_on_c, 9, 36, 0
1, 192000, Note_on_c, 9, 57, 127
1, 192000, Note_on_c, 9, 36, 127
1, 192010, Note_on_c, 9, 57, 0
1, 192240, Note_on_c, 9, 42, 127
1, 192250, Note_on_c, 9, 42, 0
1, 192479, Note_on_c, 9, 36, 0
1, 192480, Note_on_c, 9, 42, 127
1, 192490, Note_on_c, 9, 42, 0
1, 192720, Note_on_c, 9, 42, 127
1, 192720, Note_on_c, 9, 36, 127
1, 192730, Note_on_c, 9, 42, 0
1, 192959, Note_on_c, 9, 36, 0
1, 192960, Note_on_c, 9, 38, 127
1, 192960, Note_on_c, 9, 42, 127
1, 192970, Note_on_c, 9, 42, 0
1, 193199, Note_on_c, 9, 38, 0
1, 193200, Note_on_c, 9, 42, 127
1, 193210, Note_on_c, 9, 42, 0
1, 193440, Note_on_c, 9, 57, 127
1, 193440, Note_on_c, 9, 36, 127
1, 193450, Note_on_c, 9, 57, 0
1, 193679, Note_on_c, 9, 36, 0
1, 193680, Note_on_c, 9, 57, 127
1, 193680, Note_on_c, 9, 36, 127
1, 193690, Note_on_c, 9, 57, 0
1, 193919, Note_on_c, 9, 36, 0
1, 193920, Note_on_c, 9, 57, 127
1, 193920, Note_on_c, 9, 36, 127
1, 193930, Note_on_c, 9, 57, 0
1, 194160, Note_on_c, 9, 42, 127
1, 194170, Note_on_c, 9, 42, 0
1, 194399, Note_on_c, 9, 36, 0
1, 194400, Note_on_c, 9, 38, 127
1, 194400, Note_on_c, 9, 42, 127
1, 194410, Note_on_c, 9, 42, 0
1, 194639, Note_on_c, 9, 38, 0
1, 194640, Note_on_c, 9, 42, 127
1, 194650, Note_on_c, 9, 42, 0
1, 194880, Note_on_c, 9, 48, 127
1, 194959, Note_on_c, 9, 48, 0
1, 194960, Note_on_c, 9, 47, 127
1, 195040, Note_on_c, 9, 36, 127
1, 195119, Note_on_c, 9, 47, 0
1, 195119, Note_on_c, 9, 36, 0
1, 195120, Note_on_c, 9, 35, 127
1, 195359, Note_on_c, 9, 35, 0
1, 195360, Note_on_c, 9, 38, 127
1, 195599, Note_on_c, 9, 38, 0
1, 195600, Note_on_c, 9, 57, 127
1, 195600, Note_on_c, 9, 36, 127
1, 195610, Note_on_c, 9, 57, 0
1, 195839, Note_on_c, 9, 36, 0
1, 195840, Note_on_c, 9, 57, 127
1, 195840, Note_on_c, 9, 36, 127
1, 195861, Note_on_c, 9, 57, 0
1, 196319, Note_on_c, 9, 36, 0
1, 196320, Note_on_c, 9, 42, 127
1, 196330, Note_on_c, 9, 42, 0
1, 196560, Note_on_c, 9, 42, 127
1, 196560, Note_on_c, 9, 36, 127
1, 196570, Note_on_c, 9, 42, 0
1, 196799, Note_on_c, 9, 36, 0
1, 196800, Note_on_c, 9, 38, 127
1, 196800, Note_on_c, 9, 42, 127
1, 196810, Note_on_c, 9, 42, 0
1, 197039, Note_on_c, 9, 38, 0
1, 197040, Note_on_c, 9, 38, 127
1, 197159, Note_on_c, 9, 38, 0
1, 197160, Note_on_c, 9, 38, 127
1, 197279, Note_on_c, 9, 38, 0
1, 197280, Note_on_c, 9, 57, 127
1, 197280, Note_on_c, 9, 36, 127
1, 197290, Note_on_c, 9, 57, 0
1, 197519, Note_on_c, 9, 36, 0
1, 197520, Note_on_c, 9, 57, 127
1, 197520, Note_on_c, 9, 36, 127
1, 197530, Note_on_c, 9, 57, 0
1, 197759, Note_on_c, 9, 36, 0
1, 197760, Note_on_c, 9, 57, 127
1, 197760, Note_on_c, 9, 36, 127
1, 197770, Note_on_c, 9, 57, 0
1, 198000, Note_on_c, 9, 42, 127
1, 198010, Note_on_c, 9, 42, 0
1, 198239, Note_on_c, 9, 36, 0
1, 198240, Note_on_c, 9, 42, 127
1, 198250, Note_on_c, 9, 42, 0
1, 198480, Note_on_c, 9, 42, 127
1, 198480, Note_on_c, 9, 36, 127
1, 198490, Note_on_c, 9, 42, 0
1, 198719, Note_on_c, 9, 36, 0
1, 198720, Note_on_c, 9, 38, 127
1, 198720, Note_on_c, 9, 42, 127
1, 198730, Note_on_c, 9, 42, 0
1, 198959, Note_on_c, 9, 38, 0
1, 198960, Note_on_c, 9, 57, 127
1, 198960, Note_on_c, 9, 36, 127
1, 198970, Note_on_c, 9, 57, 0
1, 199199, Note_on_c, 9, 36, 0
1, 199200, Note_on_c, 9, 57, 127
1, 199200, Note_on_c, 9, 36, 127
1, 199210, Note_on_c, 9, 57, 0
1, 199439, Note_on_c, 9, 36, 0
1, 199440, Note_on_c, 9, 57, 127
1, 199440, Note_on_c, 9, 36, 127
1, 199450, Note_on_c, 9, 57, 0
1, 199679, Note_on_c, 9, 36, 0
1, 199680, Note_on_c, 9, 57, 127
1, 199680, Note_on_c, 9, 36, 127
1, 199690, Note_on_c, 9, 57, 0
1, 199920, Note_on_c, 9, 42, 127
1, 199930, Note_on_c, 9, 42, 0
1, 200159, Note_on_c, 9, 36, 0
1, 200160, Note_on_c, 9, 42, 127
1, 200170, Note_on_c, 9, 42, 0
1, 200400, Note_on_c, 9, 42, 127
1, 200400, Note_on_c, 9, 36, 127
1, 200410, Note_on_c, 9, 42, 0
1, 200639, Note_on_c, 9, 36, 0
1, 200640, Note_on_c, 9, 38, 127
1, 200640, Note_on_c, 9, 42, 127
1, 200650, Note_on_c, 9, 42, 0
1, 200879, Note_on_c, 9, 38, 0
1, 200880, Note_on_c, 9, 42, 127
1, 200890, Note_on_c, 9, 42, 0
1, 201120, Note_on_c, 9, 57, 127
1, 201120, Note_on_c, 9, 36, 127
1, 201141, Note_on_c, 9, 57, 0
1, 201599, Note_on_c, 9, 36, 0
1, 201600, Note_on_c, 9, 57, 127
1, 201600, Note_on_c, 9, 36, 127
1, 201621, Note_on_c, 9, 57, 0
1, 202079, Note_on_c, 9, 36, 0
1, 202080, Note_on_c, 9, 38, 127
1, 202319, Note_on_c, 9, 38, 0
1, 202320, Note_on_c, 9, 45, 127
1, 202399, Note_on_c, 9, 45, 0
1, 202400, Note_on_c, 9, 45, 127
1, 202479, Note_on_c, 9, 45, 0
1, 202480, Note_on_c, 9, 45, 127
1, 202559, Note_on_c, 9, 45, 0
1, 202560, Note_on_c, 9, 47, 127
1, 202799, Note_on_c, 9, 47, 0
1, 202800, Note_on_c, 9, 47, 127
1, 203039, Note_on_c, 9, 47, 0
1, 203040, Note_on_c, 9, 48, 127
1, 203279, Note_on_c, 9, 48, 0
1, 203280, Note_on_c, 9, 48, 127
1, 203519, Note_on_c, 9, 48, 0
1, 203520, Note_on_c, 9, 57, 127
1, 203520, Note_on_c, 9, 36, 127
1, 203530, Note_on_c, 9, 57, 0
1, 203760, Note_on_c, 9, 42, 127
1, 203770, Note_on_c, 9, 42, 0
1, 203999, Note_on_c, 9, 36, 0
1, 204000, Note_on_c, 9, 42, 127
1, 204010, Note_on_c, 9, 42, 0
1, 204240, Note_on_c, 9, 42, 127
1, 204240, Note_on_c, 9, 36, 127
1, 204250, Note_on_c, 9, 42, 0
1, 204479, Note_on_c, 9, 36, 0
1, 204480, Note_on_c, 9, 38, 127
1, 204480, Note_on_c, 9, 42, 127
1, 204490, Note_on_c, 9, 42, 0
1, 204719, Note_on_c, 9, 38, 0
1, 204720, Note_on_c, 9, 38, 127
1, 204839, Note_on_c, 9, 38, 0
1, 204840, Note_on_c, 9, 38, 127
1, 204959, Note_on_c, 9, 38, 0
1, 204960, Note_on_c, 9, 57, 127
1, 204960, Note_on_c, 9, 36, 127
1, 204970, Note_on_c, 9, 57, 0
1, 205199, Note_on_c, 9, 36, 0
1, 205200, Note_on_c, 9, 57, 127
1, 205200, Note_on_c, 9, 36, 127
1, 205210, Note_on_c, 9, 57, 0
1, 205439, Note_on_c, 9, 36, 0
1, 205440, Note_on_c, 9, 57, 127
1, 205440, Note_on_c, 9, 36, 127
1, 205450, Note_on_c, 9, 57, 0
1, 205680, Note_on_c, 9, 42, 127
1, 205690, Note_on_c, 9, 42, 0
1, 205919, Note_on_c, 9, 36, 0
1, 205920, Note_on_c, 9, 42, 127
1, 205930, Note_on_c, 9, 42, 0
1, 206160, Note_on_c, 9, 42, 127
1, 206160, Note_on_c, 9, 36, 127
1, 206170, Note_on_c, 9, 42, 0
1, 206399, Note_on_c, 9, 36, 0
1, 206400, Note_on_c, 9, 38, 127
1, 206400, Note_on_c, 9, 42, 127
1, 206410, Note_on_c, 9, 42, 0
1, 206639, Note_on_c, 9, 38, 0
1, 206640, Note_on_c, 9, 57, 127
1, 206640, Note_on_c, 9, 36, 127
1, 206650, Note_on_c, 9, 57, 0
1, 206879, Note_on_c, 9, 36, 0
1, 206880, Note_on_c, 9, 57, 127
1, 206880, Note_on_c, 9, 36, 127
1, 206890, Note_on_c, 9, 57, 0
1, 207119, Note_on_c, 9, 36, 0
1, 207120, Note_on_c, 9, 57, 127
1, 207120, Note_on_c, 9, 36, 127
1, 207130, Note_on_c, 9, 57, 0
1, 207359, Note_on_c, 9, 36, 0
1, 207360, Note_on_c, 9, 57, 127
1, 207360, Note_on_c, 9, 36, 127
1, 207370, Note_on_c, 9, 57, 0
1, 207600, Note_on_c, 9, 42, 127
1, 207610, Note_on_c, 9, 42, 0
1, 207839, Note_on_c, 9, 36, 0
1, 207840, Note_on_c, 9, 42, 127
1, 207850, Note_on_c, 9, 42, 0
1, 208080, Note_on_c, 9, 42, 127
1, 208080, Note_on_c, 9, 36, 127
1, 208090, Note_on_c, 9, 42, 0
1, 208319, Note_on_c, 9, 36, 0
1, 208320, Note_on_c, 9, 38, 127
1, 208320, Note_on_c, 9, 42, 127
1, 208330, Note_on_c, 9, 42, 0
1, 208559, Note_on_c, 9, 38, 0
1, 208560, Note_on_c, 9, 42, 127
1, 208570, Note_on_c, 9, 42, 0
1, 208800, Note_on_c, 9, 57, 127
1, 208800, Note_on_c, 9, 36, 127
1, 208810, Note_on_c, 9, 57, 0
1, 209039, Note_on_c, 9, 36, 0
1, 209040, Note_on_c, 9, 57, 127
1, 209040, Note_on_c, 9, 36, 127
1, 209050, Note_on_c, 9, 57, 0
1, 209279, Note_on_c, 9, 36, 0
1, 209280, Tempo, 416667
1, 209280, Note_on_c, 9, 57, 127
1, 209280, Note_on_c, 9, 36, 127
1, 209306, Note_on_c, 9, 57, 0
1, 209759, Note_on_c, 9, 36, 0
1, 216960, Note_on_c, 9, 57, 127
1, 216960, Note_on_c, 9, 36, 127
1, 216986, Note_on_c, 9, 57, 0
1, 217439, Note_on_c, 9, 36, 0
1, 222480, Note_on_c, 9, 36, 127
1, 222559, Note_on_c, 9, 36, 0
1, 222560, Note_on_c, 9, 36, 127
1, 222639, Note_on_c, 9, 36, 0
1, 222640, Note_on_c, 9, 36, 127
1, 222719, Note_on_c, 9, 36, 0
1, 222720, Note_on_c, 9, 38, 127
1, 222720, Note_on_c, 9, 57, 127
1, 222746, Note_on_c, 9, 57, 0
1, 222960, Note_on_c, 9, 36, 127
1, 223039, Note_on_c, 9, 36, 0
1, 223040, Note_on_c, 9, 36, 127
1, 223119, Note_on_c, 9, 36, 0
1, 223120, Note_on_c, 9, 36, 127
1, 223199, Note_on_c, 9, 38, 0
1, 223199, Note_on_c, 9, 36, 0
1, 223200, Note_on_c, 9, 38, 127
1, 223200, Note_on_c, 9, 57, 127
1, 223226, Note_on_c, 9, 57, 0
1, 223440, Note_on_c, 9, 36, 127
1, 223519, Note_on_c, 9, 36, 0
1, 223520, Note_on_c, 9, 36, 127
1, 223599, Note_on_c, 9, 36, 0
1, 223600, Note_on_c, 9, 36, 127
1, 223679, Note_on_c, 9, 38, 0
1, 223679, Note_on_c, 9, 36, 0
1, 223680, Note_on_c, 9, 38, 127
1, 223680, Note_on_c, 9, 57, 127
1, 223706, Note_on_c, 9, 57, 0
1, 223920, Note_on_c, 9, 36, 127
1, 223999, Note_on_c, 9, 36, 0
1, 224000, Note_on_c, 9, 36, 127
1, 224079, Note_on_c, 9, 36, 0
1, 224080, Note_on_c, 9, 36, 127
1, 224159, Note_on_c, 9, 38, 0
1, 224159, Note_on_c, 9, 36, 0
1, 224160, Note_on_c, 9, 38, 127
1, 224160, Note_on_c, 9, 57, 127
1, 224186, Note_on_c, 9, 57, 0
1, 224400, Note_on_c, 9, 36, 127
1, 224639, Note_on_c, 9, 38, 0
1, 224639, Note_on_c, 9, 36, 0
1, 224640, Note_on_c, 9, 57, 127
1, 224640, Note_on_c, 9, 36, 127
1, 224652, Note_on_c, 9, 57, 0
1, 224880, Note_on_c, 9, 42, 127
1, 224892, Note_on_c, 9, 42, 0
1, 225119, Note_on_c, 9, 36, 0
1, 225120, Note_on_c, 9, 42, 127
1, 225132, Note_on_c, 9, 42, 0
1, 225360, Note_on_c, 9, 42, 127
1, 225360, Note_on_c, 9, 36, 127
1, 225372, Note_on_c, 9, 42, 0
1, 225599, Note_on_c, 9, 36, 0
1, 225600, Note_on_c, 9, 38, 127
1, 225600, Note_on_c, 9, 42, 127
1, 225612, Note_on_c, 9, 42, 0
1, 225839, Note_on_c, 9, 38, 0
1, 225840, Note_on_c, 9, 42, 127
1, 225852, Note_on_c, 9, 42, 0
1, 226080, Note_on_c, 9, 42, 127
1, 226092, Note_on_c, 9, 42, 0
1, 226320, Note_on_c, 9, 42, 127
1, 226320, Note_on_c, 9, 36, 127
1, 226332, Note_on_c, 9, 42, 0
1, 226559, Note_on_c, 9, 36, 0
1, 226560, Note_on_c, 9, 42, 127
1, 226560, Note_on_c, 9, 36, 127
1, 226572, Note_on_c, 9, 42, 0
1, 226800, Note_on_c, 9, 42, 127
1, 226812, Note_on_c, 9, 42, 0
1, 227039, Note_on_c, 9, 36, 0
1, 227040, Note_on_c, 9, 42, 127
1, 227052, Note_on_c, 9, 42, 0
1, 227280, Note_on_c, 9, 42, 127
1, 227280, Note_on_c, 9, 36, 127
1, 227292, Note_on_c, 9, 42, 0
1, 227399, Note_on_c, 9, 36, 0
1, 227400, Note_on_c, 9, 36, 127
1, 227519, Note_on_c, 9, 36, 0
1, 227520, Note_on_c, 9, 38, 127
1, 227520, Note_on_c, 9, 42, 127
1, 227532, Note_on_c, 9, 42, 0
1, 227759, Note_on_c, 9, 38, 0
1, 227760, Note_on_c, 9, 57, 127
1, 227760, Note_on_c, 9, 36, 127
1, 227772, Note_on_c, 9, 57, 0
1, 227999, Note_on_c, 9, 36, 0
1, 228000, Note_on_c, 9, 57, 127
1, 228000, Note_on_c, 9, 36, 127
1, 228026, Note_on_c, 9, 57, 0
1, 228479, Note_on_c, 9, 36, 0
1, 228480, Note_on_c, 9, 57, 127
1, 228480, Note_on_c, 9, 36, 127
1, 228492, Note_on_c, 9, 57, 0
1, 228720, Note_on_c, 9, 42, 127
1, 228732, Note_on_c, 9, 42, 0
1, 228959, Note_on_c, 9, 36, 0
1, 228960, Note_on_c, 9, 42, 127
1, 228972, Note_on_c, 9, 42, 0
1, 229200, Note_on_c, 9, 42, 127
1, 229200, Note_on_c, 9, 36, 127
1, 229212, Note_on_c, 9, 42, 0
1, 229439, Note_on_c, 9, 36, 0
1, 229440, Note_on_c, 9, 38, 127
1, 229440, Note_on_c, 9, 42, 127
1, 229452, Note_on_c, 9, 42, 0
1, 229679, Note_on_c, 9, 38, 0
1, 229680, Note_on_c, 9, 42, 127
1, 229692, Note_on_c, 9, 42, 0
1, 229920, Note_on_c, 9, 42, 127
1, 229932, Note_on_c, 9, 42, 0
1, 230160, Note_on_c, 9, 42, 127
1, 230160, Note_on_c, 9, 36, 127
1, 230172, Note_on_c, 9, 42, 0
1, 230399, Note_on_c, 9, 36, 0
1, 230400, Note_on_c, 9, 38, 127
1, 230639, Note_on_c, 9, 38, 0
1, 230640, Note_on_c, 9, 57, 127
1, 230640, Note_on_c, 9, 36, 127
1, 230652, Note_on_c, 9, 57, 0
1, 230879, Note_on_c, 9, 36, 0
1, 230880, Note_on_c, 9, 38, 127
1, 231119, Note_on_c, 9, 38, 0
1, 231120, Note_on_c, 9, 57, 127
1, 231120, Note_on_c, 9, 36, 127
1, 231132, Note_on_c, 9, 57, 0
1, 231359, Note_on_c, 9, 36, 0
1, 231360, Note_on_c, 9, 38, 127
1, 231599, Note_on_c, 9, 38, 0
1, 231600, Note_on_c, 9, 57, 127
1, 231600, Note_on_c, 9, 36, 127
1, 231612, Note_on_c, 9, 57, 0
1, 231839, Note_on_c, 9, 36, 0
1, 231840, Note_on_c, 9, 38, 127
1, 232079, Note_on_c, 9, 38, 0
1, 232080, Note_on_c, 9, 57, 127
1, 232080, Note_on_c, 9, 36, 127
1, 232092, Note_on_c, 9, 57, 0
1, 232319, Note_on_c, 9, 36, 0
1, 232320, Note_on_c, 9, 57, 127
1, 232320, Note_on_c, 9, 36, 127
1, 232332, Note_on_c, 9, 57, 0
1, 232560, Note_on_c, 9, 46, 127
1, 232572, Note_on_c, 9, 46, 0
1, 232799, Note_on_c, 9, 36, 0
1, 232800, Note_on_c, 9, 46, 127
1, 232812, Note_on_c, 9, 46, 0
1, 233040, Note_on_c, 9, 46, 127
1, 233040, Note_on_c, 9, 36, 127
1, 233052, Note_on_c, 9, 46, 0
1, 233279, Note_on_c, 9, 36, 0
1, 233280, Note_on_c, 9, 38, 127
1, 233280, Note_on_c, 9, 42, 127
1, 233292, Note_on_c, 9, 42, 0
1, 233519, Note_on_c, 9, 38, 0
1, 233520, Note_on_c, 9, 42, 127
1, 233532, Note_on_c, 9, 42, 0
1, 233760, Note_on_c, 9, 42, 127
1, 233772, Note_on_c, 9, 42, 0
1, 234000, Note_on_c, 9, 42, 127
1, 234000, Note_on_c, 9, 36, 127
1, 234012, Note_on_c, 9, 42, 0
1, 234239, Note_on_c, 9, 36, 0
1, 234240, Note_on_c, 9, 42, 127
1, 234240, Note_on_c, 9, 36, 127
1, 234252, Note_on_c, 9, 42, 0
1, 234480, Note_on_c, 9, 42, 127
1, 234492, Note_on_c, 9, 42, 0
1, 234719, Note_on_c, 9, 36, 0
1, 234720, Note_on_c, 9, 42, 127
1, 234732, Note_on_c, 9, 42, 0
1, 234960, Note_on_c, 9, 42, 127
1, 234960, Note_on_c, 9, 36, 127
1, 234972, Note_on_c, 9, 42, 0
1, 235079, Note_on_c, 9, 36, 0
1, 235080, Note_on_c, 9, 36, 127
1, 235199, Note_on_c, 9, 36, 0
1, 235200, Note_on_c, 9, 38, 127
1, 235200, Note_on_c, 9, 42, 127
1, 235212, Note_on_c, 9, 42, 0
1, 235439, Note_on_c, 9, 38, 0
1, 235440, Note_on_c, 9, 38, 127
1, 235559, Note_on_c, 9, 38, 0
1, 235560, Note_on_c, 9, 38, 127
1, 235679, Note_on_c, 9, 38, 0
1, 235680, Note_on_c, 9, 38, 127
1, 235919, Note_on_c, 9, 38, 0
1, 235920, Note_on_c, 9, 57, 127
1, 235920, Note_on_c, 9, 36, 127
1, 235932, Note_on_c, 9, 57, 0
1, 236159, Note_on_c, 9, 36, 0
1, 236160, Note_on_c, 9, 57, 127
1, 236160, Note_on_c, 9, 36, 127
1, 236172, Note_on_c, 9, 57, 0
1, 236400, Note_on_c, 9, 42, 127
1, 236412, Note_on_c, 9, 42, 0
1, 236639, Note_on_c, 9, 36, 0
1, 236640, Note_on_c, 9, 42, 127
1, 236652, Note_on_c, 9, 42, 0
1, 236880, Note_on_c, 9, 42, 127
1, 236880, Note_on_c, 9, 36, 127
1, 236892, Note_on_c, 9, 42, 0
1, 237119, Note_on_c, 9, 36, 0
1, 237120, Note_on_c, 9, 38, 127
1, 237120, Note_on_c, 9, 57, 127
1, 237146, Note_on_c, 9, 57, 0
1, 237599, Note_on_c, 9, 38, 0
1, 237600, Note_on_c, 9, 42, 127
1, 237612, Note_on_c, 9, 42, 0
1, 237840, Note_on_c, 9, 42, 127
1, 237840, Note_on_c, 9, 36, 127
1, 237852, Note_on_c, 9, 42, 0
1, 238079, Note_on_c, 9, 36, 0
1, 238080, Note_on_c, 9, 38, 127
1, 238080, Note_on_c, 9, 57, 127
1, 238092, Note_on_c, 9, 57, 0
1, 238319, Note_on_c, 9, 38, 0
1, 238320, Note_on_c, 9, 38, 127
1, 238439, Note_on_c, 9, 38, 0
1, 238440, Note_on_c, 9, 38, 127
1, 238559, Note_on_c, 9, 38, 0
1, 238560, Note_on_c, 9, 38, 127
1, 238799, Note_on_c, 9, 38, 0
1, 238800, Note_on_c, 9, 38, 127
1, 239039, Note_on_c, 9, 38, 0
1, 239040, Note_on_c, 9, 45, 127
1, 239159, Note_on_c, 9, 45, 0
1, 239160, Note_on_c, 9, 45, 127
1, 239280, Note_on_c, 9, 36, 127
1, 239399, Note_on_c, 9, 36, 0
1, 239400, Note_on_c, 9, 36, 127
1, 239519, Note_on_c, 9, 45, 0
1, 239519, Note_on_c, 9, 36, 0
1, 239520, Note_on_c, 9, 38, 127
1, 239759, Note_on_c, 9, 38, 0
1, 239760, Note_on_c, 9, 57, 127
1, 239760, Note_on_c, 9, 36, 127
1, 239772, Note_on_c, 9, 57, 0
1, 239999, Note_on_c, 9, 36, 0
1, 240000, Note_on_c, 9, 57, 127
1, 240000, Note_on_c, 9, 36, 127
1, 240026, Note_on_c, 9, 57, 0
1, 240479, Note_on_c, 9, 36, 0
1, 240480, Note_on_c, 9, 42, 127
1, 240492, Note_on_c, 9, 42, 0
1, 240720, Note_on_c, 9, 42, 127
1, 240720, Note_on_c, 9, 36, 127
1, 240732, Note_on_c, 9, 42, 0
1, 240959, Note_on_c, 9, 36, 0
1, 240960, Note_on_c, 9, 38, 127
1, 240960, Note_on_c, 9, 42, 127
1, 240972, Note_on_c, 9, 42, 0
1, 241199, Note_on_c, 9, 38, 0
1, 241200, Note_on_c, 9, 42, 127
1, 241212, Note_on_c, 9, 42, 0
1, 241440, Note_on_c, 9, 42, 127
1, 241452, Note_on_c, 9, 42, 0
1, 241680, Note_on_c, 9, 42, 127
1, 241680, Note_on_c, 9, 36, 127
1, 241692, Note_on_c, 9, 42, 0
1, 241919, Note_on_c, 9, 36, 0
1, 241920, Note_on_c, 9, 42, 127
1, 241920, Note_on_c, 9, 36, 127
1, 241932, Note_on_c, 9, 42, 0
1, 242160, Note_on_c, 9, 42, 127
1, 242172, Note_on_c, 9, 42, 0
1, 242399, Note_on_c, 9, 36, 0
1, 242400, Note_on_c, 9, 42, 127
1, 242400, Note_on_c, 9, 36, 127
1, 242412, Note_on_c, 9, 42, 0
1, 242640, Note_on_c, 9, 42, 127
1, 242652, Note_on_c, 9, 42, 0
1, 242879, Note_on_c, 9, 36, 0
1, 242880, Note_on_c, 9, 42, 127
1, 242880, Note_on_c, 9, 35, 127
1, 242892, Note_on_c, 9, 42, 0
1, 243119, Note_on_c, 9, 35, 0
1, 243120, Note_on_c, 9, 42, 127
1, 243120, Note_on_c, 9, 36, 127
1, 243132, Note_on_c, 9, 42, 0
1, 243359, Note_on_c, 9, 36, 0
1, 243360, Note_on_c, 9, 38, 127
1, 243360, Note_on_c, 9, 57, 127
1, 243386, Note_on_c, 9, 57, 0
1, 243839, Note_on_c, 9, 38, 0
1, 243840, Note_on_c, 9, 57, 127
1, 243840, Note_on_c, 9, 36, 127
1, 243866, Note_on_c, 9, 57, 0
1, 244319, Note_on_c, 9, 36, 0
1, 244320, Note_on_c, 9, 42, 127
1, 244332, Note_on_c, 9, 42, 0
1, 244560, Note_on_c, 9, 42, 127
1, 244560, Note_on_c, 9, 36, 127
1, 244572, Note_on_c, 9, 42, 0
1, 244799, Note_on_c, 9, 36, 0
1, 244800, Note_on_c, 9, 38, 127
1, 244800, Note_on_c, 9, 42, 127
1, 244812, Note_on_c, 9, 42, 0
1, 245039, Note_on_c, 9, 38, 0
1, 245040, Note_on_c, 9, 42, 127
1, 245052, Note_on_c, 9, 42, 0
1, 245280, Note_on_c, 9, 42, 127
1, 245292, Note_on_c, 9, 42, 0
1, 245520, Note_on_c, 9, 42, 127
1, 245520, Note_on_c, 9, 36, 127
1, 245532, Note_on_c, 9, 42, 0
1, 245759, Note_on_c, 9, 36, 0
1, 245760, Note_on_c, 9, 38, 127
1, 245999, Note_on_c, 9, 38, 0
1, 246000, Note_on_c, 9, 42, 127
1, 246000, Note_on_c, 9, 36, 127
1, 246012, Note_on_c, 9, 42, 0
1, 246239, Note_on_c, 9, 36, 0
1, 246240, Note_on_c, 9, 38, 127
1, 246479, Note_on_c, 9, 38, 0
1, 246480, Note_on_c, 9, 42, 127
1, 246480, Note_on_c, 9, 36, 127
1, 246492, Note_on_c, 9, 42, 0
1, 246719, Note_on_c, 9, 36, 0
1, 246720, Note_on_c, 9, 38, 127
1, 246959, Note_on_c, 9, 38, 0
1, 246960, Note_on_c, 9, 42, 127
1, 246960, Note_on_c, 9, 36, 127
1, 246972, Note_on_c, 9, 42, 0
1, 247199, Note_on_c, 9, 36, 0
1, 247200, Note_on_c, 9, 38, 127
1, 247439, Note_on_c, 9, 38, 0
1, 247440, Note_on_c, 9, 57, 127
1, 247440, Note_on_c, 9, 36, 127
1, 247452, Note_on_c, 9, 57, 0
1, 247679, Note_on_c, 9, 36, 0
1, 247680, Note_on_c, 9, 57, 127
1, 247680, Note_on_c, 9, 36, 127
1, 247706, Note_on_c, 9, 57, 0
1, 248159, Note_on_c, 9, 36, 0
1, 248160, Note_on_c, 9, 42, 127
1, 248172, Note_on_c, 9, 42, 0
1, 248400, Note_on_c, 9, 42, 127
1, 248400, Note_on_c, 9, 36, 127
1, 248412, Note_on_c, 9, 42, 0
1, 248639, Note_on_c, 9, 36, 0
1, 248640, Note_on_c, 9, 38, 127
1, 248640, Note_on_c, 9, 42, 127
1, 248652, Note_on_c, 9, 42, 0
1, 248879, Note_on_c, 9, 38, 0
1, 248880, Note_on_c, 9, 42, 127
1, 248892, Note_on_c, 9, 42, 0
1, 249120, Note_on_c, 9, 42, 127
1, 249132, Note_on_c, 9, 42, 0
1, 249360, Note_on_c, 9, 42, 127
1, 249360, Note_on_c, 9, 36, 127
1, 249372, Note_on_c, 9, 42, 0
1, 249599, Note_on_c, 9, 36, 0
1, 249600, Note_on_c, 9, 42, 127
1, 249600, Note_on_c, 9, 36, 127
1, 249612, Note_on_c, 9, 42, 0
1, 249840, Note_on_c, 9, 42, 127
1, 249852, Note_on_c, 9, 42, 0
1, 250079, Note_on_c, 9, 36, 0
1, 250080, Note_on_c, 9, 42, 127
1, 250092, Note_on_c, 9, 42, 0
1, 250320, Note_on_c, 9, 42, 127
1, 250320, Note_on_c, 9, 36, 127
1, 250332, Note_on_c, 9, 42, 0
1, 250439, Note_on_c, 9, 36, 0
1, 250440, Note_on_c, 9, 36, 127
1, 250559, Note_on_c, 9, 36, 0
1, 250560, Note_on_c, 9, 38, 127
1, 250560, Note_on_c, 9, 42, 127
1, 250572, Note_on_c, 9, 42, 0
1, 250799, Note_on_c, 9, 38, 0
1, 250800, Note_on_c, 9, 38, 127
1, 250919, Note_on_c, 9, 38, 0
1, 250920, Note_on_c, 9, 38, 127
1, 251039, Note_on_c, 9, 38, 0
1, 251040, Note_on_c, 9, 38, 127
1, 251279, Note_on_c, 9, 38, 0
1, 251280, Note_on_c, 9, 57, 127
1, 251280, Note_on_c, 9, 36, 127
1, 251292, Note_on_c, 9, 57, 0
1, 251519, Note_on_c, 9, 36, 0
1, 251520, Note_on_c, 9, 57, 127
1, 251520, Note_on_c, 9, 36, 127
1, 251546, Note_on_c, 9, 57, 0
1, 251999, Note_on_c, 9, 36, 0
1, 252000, Note_on_c, 9, 42, 127
1, 252012, Note_on_c, 9, 42, 0
1, 252240, Note_on_c, 9, 42, 127
1, 252240, Note_on_c, 9, 36, 127
1, 252252, Note_on_c, 9, 42, 0
1, 252479, Note_on_c, 9, 36, 0
1, 252480, Note_on_c, 9, 57, 127
1, 252480, Note_on_c, 9, 36, 127
1, 252506, Note_on_c, 9, 57, 0
1, 252959, Note_on_c, 9, 36, 0
1, 252960, Note_on_c, 9, 42, 127
1, 252972, Note_on_c, 9, 42, 0
1, 253200, Note_on_c, 9, 42, 127
1, 253200, Note_on_c, 9, 36, 127
1, 253212, Note_on_c, 9, 42, 0
1, 253439, Note_on_c, 9, 36, 0
1, 253440, Note_on_c, 9, 38, 127
1, 253440, Note_on_c, 9, 57, 127
1, 253452, Note_on_c, 9, 57, 0
1, 253679, Note_on_c, 9, 38, 0
1, 253680, Note_on_c, 9, 38, 127
1, 253799, Note_on_c, 9, 38, 0
1, 253800, Note_on_c, 9, 38, 127
1, 253919, Note_on_c, 9, 38, 0
1, 253920, Note_on_c, 9, 45, 127
1, 254039, Note_on_c, 9, 45, 0
1, 254040, Note_on_c, 9, 45, 127
1, 254159, Note_on_c, 9, 45, 0
1, 254160, Note_on_c, 9, 47, 127
1, 254279, Note_on_c, 9, 47, 0
1, 254280, Note_on_c, 9, 47, 127
1, 254399, Note_on_c, 9, 47, 0
1, 254400, Note_on_c, 9, 48, 127
1, 254519, Note_on_c, 9, 48, 0
1, 254520, Note_on_c, 9, 48, 127
1, 254639, Note_on_c, 9, 48, 0
1, 254640, Note_on_c, 9, 48, 127
1, 254759, Note_on_c, 9, 48, 0
1, 254760, Note_on_c, 9, 48, 127
1, 254879, Note_on_c, 9, 48, 0
1, 254880, Note_on_c, 9, 50, 127
1, 254999, Note_on_c, 9, 50, 0
1, 255000, Note_on_c, 9, 50, 127
1, 255120, Note_on_c, 9, 43, 127
1, 255239, Note_on_c, 9, 43, 0
1, 255240, Note_on_c, 9, 43, 127
1, 255359, Note_on_c, 9, 50, 0
1, 255359, Note_on_c, 9, 43, 0
1, 255360, Note_on_c, 9, 57, 127
1, 255360, Note_on_c, 9, 36, 127
1, 255372, Note_on_c, 9, 57, 0
1, 255600, Note_on_c, 9, 46, 127
1, 255612, Note_on_c, 9, 46, 0
1, 255839, Note_on_c, 9, 36, 0
1, 255840, Note_on_c, 9, 46, 127
1, 255852, Note_on_c, 9, 46, 0
1, 256080, Note_on_c, 9, 46, 127
1, 256080, Note_on_c, 9, 36, 127
1, 256092, Note_on_c, 9, 46, 0
1, 256319, Note_on_c, 9, 36, 0
1, 256320, Note_on_c, 9, 38, 127
1, 256320, Note_on_c, 9, 42, 127
1, 256332, Note_on_c, 9, 42, 0
1, 256559, Note_on_c, 9, 38, 0
1, 256560, Note_on_c, 9, 42, 127
1, 256572, Note_on_c, 9, 42, 0
1, 256800, Note_on_c, 9, 42, 127
1, 256812, Note_on_c, 9, 42, 0
1, 257040, Note_on_c, 9, 42, 127
1, 257040, Note_on_c, 9, 36, 127
1, 257052, Note_on_c, 9, 42, 0
1, 257279, Note_on_c, 9, 36, 0
1, 257280, Note_on_c, 9, 42, 127
1, 257280, Note_on_c, 9, 36, 127
1, 257292, Note_on_c, 9, 42, 0
1, 257520, Note_on_c, 9, 42, 127
1, 257532, Note_on_c, 9, 42, 0
1, 257759, Note_on_c, 9, 36, 0
1, 257760, Note_on_c, 9, 42, 127
1, 257772, Note_on_c, 9, 42, 0
1, 258000, Note_on_c, 9, 42, 127
1, 258000, Note_on_c, 9, 36, 127
1, 258012, Note_on_c, 9, 42, 0
1, 258119, Note_on_c, 9, 36, 0
1, 258120, Note_on_c, 9, 36, 127
1, 258239, Note_on_c, 9, 36, 0
1, 258240, Note_on_c, 9, 38, 127
1, 258240, Note_on_c, 9, 42, 127
1, 258252, Note_on_c, 9, 42, 0
1, 258479, Note_on_c, 9, 38, 0
1, 258480, Note_on_c, 9, 57, 127
1, 258480, Note_on_c, 9, 36, 127
1, 258492, Note_on_c, 9, 57, 0
1, 258719, Note_on_c, 9, 36, 0
1, 258720, Note_on_c, 9, 57, 127
1, 258720, Note_on_c, 9, 36, 127
1, 258746, Note_on_c, 9, 57, 0
1, 259199, Note_on_c, 9, 36, 0
1, 259200, Note_on_c, 9, 57, 127
1, 259200, Note_on_c, 9, 36, 127
1, 259226, Note_on_c, 9, 57, 0
1, 259679, Note_on_c, 9, 36, 0
1, 259680, Note_on_c, 9, 42, 127
1, 259692, Note_on_c, 9, 42, 0
1, 259920, Note_on_c, 9, 42, 127
1, 259920, Note_on_c, 9, 36, 127
1, 259932, Note_on_c, 9, 42, 0
1, 260159, Note_on_c, 9, 36, 0
1, 260160, Note_on_c, 9, 38, 127
1, 260160, Note_on_c, 9, 57, 127
1, 260186, Note_on_c, 9, 57, 0
1, 260639, Note_on_c, 9, 38, 0
1, 260640, Note_on_c, 9, 42, 127
1, 260652, Note_on_c, 9, 42, 0
1, 260880, Note_on_c, 9, 42, 127
1, 260880, Note_on_c, 9, 36, 127
1, 260892, Note_on_c, 9, 42, 0
1, 261119, Note_on_c, 9, 36, 0
1, 261120, Note_on_c, 9, 38, 127
1, 261120, Note_on_c, 9, 57, 127
1, 261146, Note_on_c, 9, 57, 0
1, 261599, Note_on_c, 9, 38, 0
1, 261600, Note_on_c, 9, 42, 127
1, 261612, Note_on_c, 9, 42, 0
1, 261840, Note_on_c, 9, 42, 127
1, 261840, Note_on_c, 9, 36, 127
1, 261852, Note_on_c, 9, 42, 0
1, 262079, Note_on_c, 9, 36, 0
1, 262080, Note_on_c, 9, 38, 127
1, 262080, Note_on_c, 9, 57, 127
1, 262092, Note_on_c, 9, 57, 0
1, 262319, Note_on_c, 9, 38, 0
1, 262320, Note_on_c, 9, 57, 127
1, 262320, Note_on_c, 9, 36, 127
1, 262332, Note_on_c, 9, 57, 0
1, 262559, Note_on_c, 9, 36, 0
1, 262560, Note_on_c, 9, 57, 127
1, 262560, Note_on_c, 9, 36, 127
1, 262586, Note_on_c, 9, 57, 0
1, 263039, Note_on_c, 9, 36, 0
1, 263040, Note_on_c, 9, 57, 127
1, 263040, Note_on_c, 9, 36, 127
1, 263052, Note_on_c, 9, 57, 0
1, 263280, Note_on_c, 9, 42, 127
1, 263292, Note_on_c, 9, 42, 0
1, 263519, Note_on_c, 9, 36, 0
1, 263520, Note_on_c, 9, 42, 127
1, 263532, Note_on_c, 9, 42, 0
1, 263760, Note_on_c, 9, 42, 127
1, 263760, Note_on_c, 9, 36, 127
1, 263772, Note_on_c, 9, 42, 0
1, 263999, Note_on_c, 9, 36, 0
1, 264000, Note_on_c, 9, 38, 127
1, 264000, Note_on_c, 9, 42, 127
1, 264012, Note_on_c, 9, 42, 0
1, 264239, Note_on_c, 9, 38, 0
1, 264240, Note_on_c, 9, 42, 127
1, 264252, Note_on_c, 9, 42, 0
1, 264480, Note_on_c, 9, 42, 127
1, 264492, Note_on_c, 9, 42, 0
1, 264720, Note_on_c, 9, 42, 127
1, 264720, Note_on_c, 9, 36, 127
1, 264732, Note_on_c, 9, 42, 0
1, 264959, Note_on_c, 9, 36, 0
1, 264960, Note_on_c, 9, 42, 127
1, 264960, Note_on_c, 9, 36, 127
1, 264972, Note_on_c, 9, 42, 0
1, 265200, Note_on_c, 9, 42, 127
1, 265212, Note_on_c, 9, 42, 0
1, 265439, Note_on_c, 9, 36, 0
1, 265440, Note_on_c, 9, 42, 127
1, 265452, Note_on_c, 9, 42, 0
1, 265680, Note_on_c, 9, 42, 127
1, 265680, Note_on_c, 9, 36, 127
1, 265692, Note_on_c, 9, 42, 0
1, 265919, Note_on_c, 9, 36, 0
1, 265920, Note_on_c, 9, 38, 127
1, 265920, Note_on_c, 9, 42, 127
1, 265932, Note_on_c, 9, 42, 0
1, 266159, Note_on_c, 9, 38, 0
1, 266160, Note_on_c, 9, 38, 127
1, 266279, Note_on_c, 9, 38, 0
1, 266280, Note_on_c, 9, 38, 127
1, 266399, Note_on_c, 9, 38, 0
1, 266400, Note_on_c, 9, 38, 127
1, 266639, Note_on_c, 9, 38, 0
1, 266640, Note_on_c, 9, 57, 127
1, 266640, Note_on_c, 9, 36, 127
1, 266652, Note_on_c, 9, 57, 0
1, 266879, Note_on_c, 9, 36, 0
1, 266880, Note_on_c, 9, 57, 127
1, 266880, Note_on_c, 9, 36, 127
1, 266906, Note_on_c, 9, 57, 0
1, 267359, Note_on_c, 9, 36, 0
1, 267360, Note_on_c, 9, 42, 127
1, 267372, Note_on_c, 9, 42, 0
1, 267600, Note_on_c, 9, 42, 127
1, 267600, Note_on_c, 9, 36, 127
1, 267612, Note_on_c, 9, 42, 0
1, 267839, Note_on_c, 9, 36, 0
1, 267840, Note_on_c, 9, 38, 127
1, 267840, Note_on_c, 9, 42, 127
1, 267852, Note_on_c, 9, 42, 0
1, 268079, Note_on_c, 9, 38, 0
1, 268080, Note_on_c, 9, 42, 127
1, 268092, Note_on_c, 9, 42, 0
1, 268320, Note_on_c, 9, 42, 127
1, 268332, Note_on_c, 9, 42, 0
1, 268560, Note_on_c, 9, 42, 127
1, 268560, Note_on_c, 9, 36, 127
1, 268572, Note_on_c, 9, 42, 0
1, 268799, Note_on_c, 9, 36, 0
1, 268800, Note_on_c, 9, 38, 127
1, 268800, Note_on_c, 9, 57, 127
1, 268812, Note_on_c, 9, 57, 0
1, 269039, Note_on_c, 9, 38, 0
1, 269040, Note_on_c, 9, 38, 127
1, 269159, Note_on_c, 9, 38, 0
1, 269160, Note_on_c, 9, 38, 127
1, 269279, Note_on_c, 9, 38, 0
1, 269280, Note_on_c, 9, 38, 127
1, 269519, Note_on_c, 9, 38, 0
1, 269520, Note_on_c, 9, 38, 127
1, 269639, Note_on_c, 9, 38, 0
1, 269640, Note_on_c, 9, 38, 127
1, 269759, Note_on_c, 9, 38, 0
1, 269760, Note_on_c, 9, 38, 127
1, 269879, Note_on_c, 9, 38, 0
1, 269880, Note_on_c, 9, 38, 127
1, 269999, Note_on_c, 9, 38, 0
1, 270000, Note_on_c, 9, 38, 127
1, 270119, Note_on_c, 9, 38, 0
1, 270120, Note_on_c, 9, 38, 127
1, 270239, Note_on_c, 9, 38, 0
1, 270240, Note_on_c, 9, 57, 127
1, 270240, Note_on_c, 9, 36, 127
1, 270266, Note_on_c, 9, 57, 0
1, 270719, Note_on_c, 9, 36, 0
1, 270720, Note_on_c, 9, 57, 127
1, 270720, Note_on_c, 9, 36, 127
1, 270746, Note_on_c, 9, 57, 0
1, 271199, Note_on_c, 9, 36, 0
1, 271200, Note_on_c, 9, 38, 127
1, 271200, Note_on_c, 9, 42, 127
1, 271226, Note_on_c, 9, 42, 0
1, 271679, Note_on_c, 9, 38, 0
1, 271680, Note_on_c, 9, 42, 127
1, 271680, Note_on_c, 9, 36, 127
1, 271706, Note_on_c, 9, 42, 0
1, 272159, Note_on_c, 9, 36, 0
1, 272160, Note_on_c, 9, 38, 127
1, 272160, Note_on_c, 9, 42, 127
1, 272186, Note_on_c, 9, 42, 0
1, 272639, Note_on_c, 9, 38, 0
1, 272640, Note_on_c, 9, 42, 127
1, 272640, Note_on_c, 9, 36, 127
1, 272666, Note_on_c, 9, 42, 0
1, 272879, Note_on_c, 9, 36, 0
1, 272880, Note_on_c, 9, 36, 127
1, 273119, Note_on_c, 9, 36, 0
1, 273120, Note_on_c, 9, 38, 127
1, 273120, Note_on_c, 9, 42, 127
1, 273146, Note_on_c, 9, 42, 0
1, 273360, Note_on_c, 9, 36, 127
1, 273599, Note_on_c, 9, 38, 0
1, 273599, Note_on_c, 9, 36, 0
1, 273600, Note_on_c, 9, 42, 127
1, 273600, Note_on_c, 9, 36, 127
1, 273626, Note_on_c, 9, 42, 0
1, 274079, Note_on_c, 9, 36, 0
1, 274080, Note_on_c, 9, 38, 127
1, 274080, Note_on_c, 9, 42, 127
1, 274106, Note_on_c, 9, 42, 0
1, 274559, Note_on_c, 9, 38, 0
1, 274560, Note_on_c, 9, 42, 127
1, 274560, Note_on_c, 9, 36, 127
1, 274586, Note_on_c, 9, 42, 0
1, 274799, Note_on_c, 9, 36, 0
1, 274800, Note_on_c, 9, 36, 127
1, 275039, Note_on_c, 9, 36, 0
1, 275040, Note_on_c, 9, 38, 127
1, 275040, Note_on_c, 9, 42, 127
1, 275066, Note_on_c, 9, 42, 0
1, 275280, Note_on_c, 9, 36, 127
1, 275519, Note_on_c, 9, 38, 0
1, 275519, Note_on_c, 9, 36, 0
1, 275520, Note_on_c, 9, 42, 127
1, 275520, Note_on_c, 9, 36, 127
1, 275546, Note_on_c, 9, 42, 0
1, 275999, Note_on_c, 9, 36, 0
1, 276000, Note_on_c, 9, 38, 127
1, 276000, Note_on_c, 9, 42, 127
1, 276026, Note_on_c, 9, 42, 0
1, 276479, Note_on_c, 9, 38, 0
1, 276480, Note_on_c, 9, 42, 127
1, 276480, Note_on_c, 9, 36, 127
1, 276506, Note_on_c, 9, 42, 0
1, 276719, Note_on_c, 9, 36, 0
1, 276720, Note_on_c, 9, 36, 127
1, 276799, Note_on_c, 9, 36, 0
1, 276800, Note_on_c, 9, 36, 127
1, 276879, Note_on_c, 9, 36, 0
1, 276880, Note_on_c, 9, 36, 127
1, 276959, Note_on_c, 9, 36, 0
1, 276960, Note_on_c, 9, 38, 127
1, 276960, Note_on_c, 9, 57, 127
1, 276986, Note_on_c, 9, 57, 0
1, 277439, Note_on_c, 9, 38, 0
1, 277440, Note_on_c, 9, 42, 127
1, 277466, Note_on_c, 9, 42, 0
1, 277680, Note_on_c, 9, 36, 127
1, 277759, Note_on_c, 9, 36, 0
1, 277760, Note_on_c, 9, 36, 127
1, 277839, Note_on_c, 9, 36, 0
1, 277840, Note_on_c, 9, 36, 127
1, 277919, Note_on_c, 9, 36, 0
1, 277920, Note_on_c, 9, 38, 127
1, 277920, Note_on_c, 9, 57, 127
1, 277946, Note_on_c, 9, 57, 0
1, 278399, Note_on_c, 9, 38, 0
1, 278400, Note_on_c, 9, 57, 127
1, 278400, Note_on_c, 9, 36, 127
1, 278426, Note_on_c, 9, 57, 0
1, 278879, Note_on_c, 9, 36, 0
1, 278880, Note_on_c, 9, 38, 127
1, 278880, Note_on_c, 9, 42, 127
1, 278906, Note_on_c, 9, 42, 0
1, 279359, Note_on_c, 9, 38, 0
1, 279360, Note_on_c, 9, 42, 127
1, 279360, Note_on_c, 9, 36, 127
1, 279386, Note_on_c, 9, 42, 0
1, 279599, Note_on_c, 9, 36, 0
1, 279600, Note_on_c, 9, 36, 127
1, 279839, Note_on_c, 9, 36, 0
1, 279840, Note_on_c, 9, 38, 127
1, 279840, Note_on_c, 9, 42, 127
1, 279866, Note_on_c, 9, 42, 0
1, 280319, Note_on_c, 9, 38, 0
1, 280320, Note_on_c, 9, 42, 127
1, 280320, Note_on_c, 9, 36, 127
1, 280346, Note_on_c, 9, 42, 0
1, 280799, Note_on_c, 9, 36, 0
1, 280800, Note_on_c, 9, 38, 127
1, 280800, Note_on_c, 9, 42, 127
1, 280826, Note_on_c, 9, 42, 0
1, 281279, Note_on_c, 9, 38, 0
1, 281280, Note_on_c, 9, 42, 127
1, 281280, Note_on_c, 9, 36, 127
1, 281306, Note_on_c, 9, 42, 0
1, 281519, Note_on_c, 9, 36, 0
1, 281520, Note_on_c, 9, 36, 127
1, 281759, Note_on_c, 9, 36, 0
1, 281760, Note_on_c, 9, 38, 127
1, 281760, Note_on_c, 9, 42, 127
1, 281786, Note_on_c, 9, 42, 0
1, 282239, Note_on_c, 9, 38, 0
1, 282240, Note_on_c, 9, 42, 127
1, 282240, Note_on_c, 9, 36, 127
1, 282266, Note_on_c, 9, 42, 0
1, 282719, Note_on_c, 9, 36, 0
1, 282720, Note_on_c, 9, 38, 127
1, 282720, Note_on_c, 9, 42, 127
1, 282746, Note_on_c, 9, 42, 0
1, 283199, Note_on_c, 9, 38, 0
1, 283200, Note_on_c, 9, 42, 127
1, 283200, Note_on_c, 9, 36, 127
1, 283226, Note_on_c, 9, 42, 0
1, 283439, Note_on_c, 9, 36, 0
1, 283440, Note_on_c, 9, 36, 127
1, 283679, Note_on_c, 9, 36, 0
1, 283680, Note_on_c, 9, 38, 127
1, 283680, Note_on_c, 9, 42, 127
1, 283706, Note_on_c, 9, 42, 0
1, 284159, Note_on_c, 9, 38, 0
1, 284160, Note_on_c, 9, 38, 127
1, 284519, Note_on_c, 9, 38, 0
1, 284520, Note_on_c, 9, 38, 127
1, 284639, Note_on_c, 9, 38, 0
1, 284640, Note_on_c, 9, 38, 127
1, 284879, Note_on_c, 9, 38, 0
1, 284880, Note_on_c, 9, 45, 127
1, 285119, Note_on_c, 9, 45, 0
1, 285120, Note_on_c, 9, 47, 127
1, 285359, Note_on_c, 9, 47, 0
1, 285360, Note_on_c, 9, 47, 127
1, 285479, Note_on_c, 9, 47, 0
1, 285480, Note_on_c, 9, 47, 127
1, 285599, Note_on_c, 9, 47, 0
1, 285600, Note_on_c, 9, 48, 127
1, 285839, Note_on_c, 9, 48, 0
1, 285840, Note_on_c, 9, 48, 127
1, 286079, Note_on_c, 9, 48, 0
1, 286080, Note_on_c, 9, 57, 127
1, 286080, Note_on_c, 9, 36, 127
1, 286106, Note_on_c, 9, 57, 0
1, 286559, Note_on_c, 9, 36, 0
1, 286560, Note_on_c, 9, 38, 127
1, 286560, Note_on_c, 9, 42, 127
1, 286586, Note_on_c, 9, 42, 0
1, 287039, Note_on_c, 9, 38, 0
1, 287040, Note_on_c, 9, 42, 127
1, 287066, Note_on_c, 9, 42, 0
1, 287280, Note_on_c, 9, 36, 127
1, 287519, Note_on_c, 9, 36, 0
1, 287520, Note_on_c, 9, 38, 127
1, 287520, Note_on_c, 9, 42, 127
1, 287546, Note_on_c, 9, 42, 0
1, 287999, Note_on_c, 9, 38, 0
1, 288000, Note_on_c, 9, 42, 127
1, 288026, Note_on_c, 9, 42, 0
1, 288240, Note_on_c, 9, 36, 127
1, 288479, Note_on_c, 9, 36, 0
1, 288480, Note_on_c, 9, 38, 127
1, 288480, Note_on_c, 9, 42, 127
1, 288506, Note_on_c, 9, 42, 0
1, 288720, Note_on_c, 9, 36, 127
1, 288959, Note_on_c, 9, 38, 0
1, 288959, Note_on_c, 9, 36, 0
1, 288960, Note_on_c, 9, 42, 127
1, 288986, Note_on_c, 9, 42, 0
1, 289200, Note_on_c, 9, 36, 127
1, 289439, Note_on_c, 9, 36, 0
1, 289440, Note_on_c, 9, 38, 127
1, 289440, Note_on_c, 9, 42, 127
1, 289466, Note_on_c, 9, 42, 0
1, 289919, Note_on_c, 9, 38, 0
1, 289920, Note_on_c, 9, 57, 127
1, 289920, Note_on_c, 9, 36, 127
1, 289946, Note_on_c, 9, 57, 0
1, 290399, Note_on_c, 9, 36, 0
1, 290400, Note_on_c, 9, 38, 127
1, 290400, Note_on_c, 9, 42, 127
1, 290426, Note_on_c, 9, 42, 0
1, 290879, Note_on_c, 9, 38, 0
1, 290880, Note_on_c, 9, 42, 127
1, 290906, Note_on_c, 9, 42, 0
1, 291120, Note_on_c, 9, 36, 127
1, 291359, Note_on_c, 9, 36, 0
1, 291360, Note_on_c, 9, 38, 127
1, 291360, Note_on_c, 9, 42, 127
1, 291386, Note_on_c, 9, 42, 0
1, 291600, Note_on_c, 9, 36, 127
1, 291839, Note_on_c, 9, 38, 0
1, 291839, Note_on_c, 9, 36, 0
1, 291840, Note_on_c, 9, 42, 127
1, 291840, Note_on_c, 9, 36, 127
1, 291866, Note_on_c, 9, 42, 0
1, 292079, Note_on_c, 9, 36, 0
1, 292080, Note_on_c, 9, 36, 127
1, 292319, Note_on_c, 9, 36, 0
1, 292320, Note_on_c, 9, 38, 127
1, 292320, Note_on_c, 9, 42, 127
1, 292346, Note_on_c, 9, 42, 0
1, 292560, Note_on_c, 9, 36, 127
1, 292799, Note_on_c, 9, 38, 0
1, 292799, Note_on_c, 9, 36, 0
1, 292800, Note_on_c, 9, 42, 127
1, 292800, Note_on_c, 9, 36, 127
1, 292826, Note_on_c, 9, 42, 0
1, 293039, Note_on_c, 9, 36, 0
1, 293040, Note_on_c, 9, 36, 127
1, 293279, Note_on_c, 9, 36, 0
1, 293280, Note_on_c, 9, 38, 127
1, 293280, Note_on_c, 9, 42, 127
1, 293306, Note_on_c, 9, 42, 0
1, 293759, Note_on_c, 9, 38, 0
1, 293760, Note_on_c, 9, 57, 127
1, 293760, Note_on_c, 9, 36, 127
1, 293786, Note_on_c, 9, 57, 0
1, 294239, Note_on_c, 9, 36, 0
1, 294240, Note_on_c, 9, 38, 127
1, 294240, Note_on_c, 9, 42, 127
1, 294266, Note_on_c, 9, 42, 0
1, 294719, Note_on_c, 9, 38, 0
1, 294720, Note_on_c, 9, 42, 127
1, 294746, Note_on_c, 9, 42, 0
1, 294960, Note_on_c, 9, 36, 127
1, 295199, Note_on_c, 9, 36, 0
1, 295200, Note_on_c, 9, 38, 127
1, 295200, Note_on_c, 9, 42, 127
1, 295226, Note_on_c, 9, 42, 0
1, 295440, Note_on_c, 9, 36, 127
1, 295679, Note_on_c, 9, 38, 0
1, 295679, Note_on_c, 9, 36, 0
1, 295680, Note_on_c, 9, 42, 127
1, 295706, Note_on_c, 9, 42, 0
1, 295920, Note_on_c, 9, 36, 127
1, 296159, Note_on_c, 9, 36, 0
1, 296160, Note_on_c, 9, 38, 127
1, 296160, Note_on_c, 9, 42, 127
1, 296186, Note_on_c, 9, 42, 0
1, 296400, Note_on_c, 9, 36, 127
1, 296639, Note_on_c, 9, 38, 0
1, 296639, Note_on_c, 9, 36, 0
1, 296640, Note_on_c, 9, 42, 127
1, 296666, Note_on_c, 9, 42, 0
1, 296880, Note_on_c, 9, 36, 127
1, 296959, Note_on_c, 9, 36, 0
1, 296960, Note_on_c, 9, 36, 127
1, 297039, Note_on_c, 9, 36, 0
1, 297040, Note_on_c, 9, 36, 127
1, 297119, Note_on_c, 9, 36, 0
1, 297120, Note_on_c, 9, 38, 127
1, 297120, Note_on_c, 9, 42, 127
1, 297146, Note_on_c, 9, 42, 0
1, 297599, Note_on_c, 9, 38, 0
1, 297600, Note_on_c, 9, 57, 127
1, 297600, Note_on_c, 9, 36, 127
1, 297626, Note_on_c, 9, 57, 0
1, 298079, Note_on_c, 9, 36, 0
1, 298080, Note_on_c, 9, 38, 127
1, 298080, Note_on_c, 9, 42, 127
1, 298106, Note_on_c, 9, 42, 0
1, 298559, Note_on_c, 9, 38, 0
1, 298560, Note_on_c, 9, 42, 127
1, 298560, Note_on_c, 9, 36, 127
1, 298586, Note_on_c, 9, 42, 0
1, 298799, Note_on_c, 9, 36, 0
1, 298800, Note_on_c, 9, 36, 127
1, 299039, Note_on_c, 9, 36, 0
1, 299040, Note_on_c, 9, 38, 127
1, 299040, Note_on_c, 9, 42, 127
1, 299066, Note_on_c, 9, 42, 0
1, 299519, Note_on_c, 9, 38, 0
1, 299520, Note_on_c, 9, 42, 127
1, 299520, Note_on_c, 9, 36, 127
1, 299546, Note_on_c, 9, 42, 0
1, 299759, Note_on_c, 9, 36, 0
1, 299760, Note_on_c, 9, 36, 127
1, 299999, Note_on_c, 9, 36, 0
1, 300000, Note_on_c, 9, 38, 127
1, 300000, Note_on_c, 9, 42, 127
1, 300012, Note_on_c, 9, 42, 0
1, 300239, Note_on_c, 9, 38, 0
1, 300240, Note_on_c, 9, 38, 127
1, 300479, Note_on_c, 9, 38, 0
1, 300480, Note_on_c, 9, 42, 127
1, 300480, Note_on_c, 9, 36, 127
1, 300506, Note_on_c, 9, 42, 0
1, 300719, Note_on_c, 9, 36, 0
1, 300720, Note_on_c, 9, 36, 127
1, 300959, Note_on_c, 9, 36, 0
1, 300960, Note_on_c, 9, 38, 127
1, 300960, Note_on_c, 9, 57, 127
1, 300986, Note_on_c, 9, 57, 0
1, 301200, Note_on_c, 9, 36, 127
1, 301319, Note_on_c, 9, 36, 0
1, 301320, Note_on_c, 9, 35, 127
1, 301439, Note_on_c, 9, 38, 0
1, 301439, Note_on_c, 9, 35, 0
1, 301440, Note_on_c, 9, 57, 127
1, 301440, Note_on_c, 9, 36, 127
1, 301466, Note_on_c, 9, 57, 0
1, 301919, Note_on_c, 9, 36, 0
1, 301920, Note_on_c, 9, 38, 127
1, 301920, Note_on_c, 9, 42, 127
1, 301946, Note_on_c, 9, 42, 0
1, 302399, Note_on_c, 9, 38, 0
1, 302400, Note_on_c, 9, 42, 127
1, 302426, Note_on_c, 9, 42, 0
1, 302640, Note_on_c, 9, 36, 127
1, 302879, Note_on_c, 9, 36, 0
1, 302880, Note_on_c, 9, 38, 127
1, 302880, Note_on_c, 9, 42, 127
1, 302906, Note_on_c, 9, 42, 0
1, 303359, Note_on_c, 9, 38, 0
1, 303360, Note_on_c, 9, 42, 127
1, 303386, Note_on_c, 9, 42, 0
1, 303600, Note_on_c, 9, 36, 127
1, 303839, Note_on_c, 9, 36, 0
1, 303840, Note_on_c, 9, 38, 127
1, 303840, Note_on_c, 9, 42, 127
1, 303866, Note_on_c, 9, 42, 0
1, 304080, Note_on_c, 9, 36, 127
1, 304319, Note_on_c, 9, 38, 0
1, 304319, Note_on_c, 9, 36, 0
1, 304320, Note_on_c, 9, 42, 127
1, 304346, Note_on_c, 9, 42, 0
1, 304560, Note_on_c, 9, 36, 127
1, 304799, Note_on_c, 9, 36, 0
1, 304800, Note_on_c, 9, 38, 127
1, 304800, Note_on_c, 9, 42, 127
1, 304826, Note_on_c, 9, 42, 0
1, 305040, Note_on_c, 9, 36, 127
1, 305159, Note_on_c, 9, 36, 0
1, 305160, Note_on_c, 9, 35, 127
1, 305279, Note_on_c, 9, 38, 0
1, 305279, Note_on_c, 9, 35, 0
1, 305280, Note_on_c, 9, 57, 127
1, 305280, Note_on_c, 9, 36, 127
1, 305306, Note_on_c, 9, 57, 0
1, 305759, Note_on_c, 9, 36, 0
1, 305760, Note_on_c, 9, 38, 127
1, 305760, Note_on_c, 9, 42, 127
1, 305786, Note_on_c, 9, 42, 0
1, 306239, Note_on_c, 9, 38, 0
1, 306240, Note_on_c, 9, 42, 127
1, 306266, Note_on_c, 9, 42, 0
1, 306480, Note_on_c, 9, 36, 127
1, 306719, Note_on_c, 9, 36, 0
1, 306720, Note_on_c, 9, 38, 127
1, 306720, Note_on_c, 9, 42, 127
1, 306746, Note_on_c, 9, 42, 0
1, 306960, Note_on_c, 9, 36, 127
1, 307199, Note_on_c, 9, 38, 0
1, 307199, Note_on_c, 9, 36, 0
1, 307200, Note_on_c, 9, 42, 127
1, 307200, Note_on_c, 9, 36, 127
1, 307226, Note_on_c, 9, 42, 0
1, 307439, Note_on_c, 9, 36, 0
1, 307440, Note_on_c, 9, 36, 127
1, 307679, Note_on_c, 9, 36, 0
1, 307680, Note_on_c, 9, 38, 127
1, 307680, Note_on_c, 9, 42, 127
1, 307706, Note_on_c, 9, 42, 0
1, 307920, Note_on_c, 9, 36, 127
1, 308159, Note_on_c, 9, 38, 0
1, 308159, Note_on_c, 9, 36, 0
1, 308160, Note_on_c, 9, 42, 127
1, 308160, Note_on_c, 9, 36, 127
1, 308186, Note_on_c, 9, 42, 0
1, 308399, Note_on_c, 9, 36, 0
1, 308400, Note_on_c, 9, 36, 127
1, 308639, Note_on_c, 9, 36, 0
1, 308640, Note_on_c, 9, 38, 127
1, 308640, Note_on_c, 9, 57, 127
1, 308666, Note_on_c, 9, 57, 0
1, 308880, Note_on_c, 9, 36, 127
1, 308999, Note_on_c, 9, 36, 0
1, 309000, Note_on_c, 9, 35, 127
1, 309119, Note_on_c, 9, 38, 0
1, 309119, Note_on_c, 9, 35, 0
1, 309120, Note_on_c, 9, 57, 127
1, 309120, Note_on_c, 9, 36, 127
1, 309146, Note_on_c, 9, 57, 0
1, 309599, Note_on_c, 9, 36, 0
1, 309600, Note_on_c, 9, 38, 127
1, 309600, Note_on_c, 9, 42, 127
1, 309626, Note_on_c, 9, 42, 0
1, 310079, Note_on_c, 9, 38, 0
1, 310080, Note_on_c, 9, 42, 127
1, 310106, Note_on_c, 9, 42, 0
1, 310320, Note_on_c, 9, 36, 127
1, 310559, Note_on_c, 9, 36, 0
1, 310560, Note_on_c, 9, 38, 127
1, 310560, Note_on_c, 9, 42, 127
1, 310586, Note_on_c, 9, 42, 0
1, 311039, Note_on_c, 9, 38, 0
1, 311040, Note_on_c, 9, 42, 127
1, 311066, Note_on_c, 9, 42, 0
1, 311280, Note_on_c, 9, 36, 127
1, 311519, Note_on_c, 9, 36, 0
1, 311520, Note_on_c, 9, 38, 127
1, 311520, Note_on_c, 9, 42, 127
1, 311546, Note_on_c, 9, 42, 0
1, 311760, Note_on_c, 9, 36, 127
1, 311879, Note_on_c, 9, 36, 0
1, 311880, Note_on_c, 9, 35, 127
1, 311999, Note_on_c, 9, 38, 0
1, 311999, Note_on_c, 9, 35, 0
1, 312000, Note_on_c, 9, 42, 127
1, 312000, Note_on_c, 9, 36, 127
1, 312026, Note_on_c, 9, 42, 0
1, 312479, Note_on_c, 9, 36, 0
1, 312480, Note_on_c, 9, 38, 127
1, 312480, Note_on_c, 9, 57, 127
1, 312506, Note_on_c, 9, 57, 0
1, 312720, Note_on_c, 9, 36, 127
1, 312839, Note_on_c, 9, 36, 0
1, 312840, Note_on_c, 9, 35, 127
1, 312959, Note_on_c, 9, 38, 0
1, 312959, Note_on_c, 9, 35, 0
1, 312960, Note_on_c, 9, 57, 127
1, 312960, Note_on_c, 9, 36, 127
1, 312986, Note_on_c, 9, 57, 0
1, 313439, Note_on_c, 9, 36, 0
1, 313440, Note_on_c, 9, 38, 127
1, 313440, Note_on_c, 9, 57, 127
1, 313466, Note_on_c, 9, 57, 0
1, 313919, Note_on_c, 9, 38, 0
1, 313920, Note_on_c, 9, 36, 127
1, 314159, Note_on_c, 9, 36, 0
1, 314160, Note_on_c, 9, 36, 127
1, 314399, Note_on_c, 9, 36, 0
1, 314400, Note_on_c, 9, 38, 127
1, 314400, Note_on_c, 9, 57, 127
1, 314426, Note_on_c, 9, 57, 0
1, 314879, Note_on_c, 9, 38, 0
1, 314880, Note_on_c, 9, 36, 127
1, 315119, Note_on_c, 9, 36, 0
1, 315120, Note_on_c, 9, 36, 127
1, 315359, Note_on_c, 9, 36, 0
1, 315360, Note_on_c, 9, 38, 127
1, 315360, Note_on_c, 9, 57, 127
1, 315379, Note_on_c, 9, 57, 0
1, 315719, Note_on_c, 9, 38, 0
1, 315720, Note_on_c, 9, 38, 127
1, 315839, Note_on_c, 9, 38, 0
1, 315840, Note_on_c, 9, 38, 127
1, 316079, Note_on_c, 9, 38, 0
1, 316080, Note_on_c, 9, 38, 127
1, 316319, Note_on_c, 9, 38, 0
1, 316320, Note_on_c, 9, 48, 127
1, 316399, Note_on_c, 9, 48, 0
1, 316400, Note_on_c, 9, 48, 127
1, 316479, Note_on_c, 9, 48, 0
1, 316480, Note_on_c, 9, 48, 127
1, 316559, Note_on_c, 9, 48, 0
1, 316560, Note_on_c, 9, 48, 127
1, 316639, Note_on_c, 9, 48, 0
1, 316640, Note_on_c, 9, 50, 127
1, 316719, Note_on_c, 9, 50, 0
1, 316720, Note_on_c, 9, 50, 127
1, 316799, Note_on_c, 9, 50, 0
1, 316800, Note_on_c, 9, 57, 127
1, 316800, Note_on_c, 9, 36, 127
1, 316826, Note_on_c, 9, 57, 0
1, 317279, Note_on_c, 9, 36, 0
1, 317280, Note_on_c, 9, 38, 127
1, 317280, Note_on_c, 9, 42, 127
1, 317306, Note_on_c, 9, 42, 0
1, 317759, Note_on_c, 9, 38, 0
1, 317760, Note_on_c, 9, 42, 127
1, 317786, Note_on_c, 9, 42, 0
1, 318000, Note_on_c, 9, 36, 127
1, 318239, Note_on_c, 9, 36, 0
1, 318240, Note_on_c, 9, 38, 127
1, 318240, Note_on_c, 9, 42, 127
1, 318266, Note_on_c, 9, 42, 0
1, 318719, Note_on_c, 9, 38, 0
1, 318720, Note_on_c, 9, 42, 127
1, 318746, Note_on_c, 9, 42, 0
1, 318960, Note_on_c, 9, 36, 127
1, 319199, Note_on_c, 9, 36, 0
1, 319200, Note_on_c, 9, 38, 127
1, 319200, Note_on_c, 9, 42, 127
1, 319226, Note_on_c, 9, 42, 0
1, 319679, Note_on_c, 9, 38, 0
1, 319680, Note_on_c, 9, 42, 127
1, 319680, Note_on_c, 9, 36, 127
1, 319706, Note_on_c, 9, 42, 0
1, 319919, Note_on_c, 9, 36, 0
1, 319920, Note_on_c, 9, 36, 127
1, 320159, Note_on_c, 9, 36, 0
1, 320160, Note_on_c, 9, 38, 127
1, 320160, Note_on_c, 9, 42, 127
1, 320186, Note_on_c, 9, 42, 0
1, 320639, Note_on_c, 9, 38, 0
1, 320640, Note_on_c, 9, 57, 127
1, 320640, Note_on_c, 9, 36, 127
1, 320666, Note_on_c, 9, 57, 0
1, 321119, Note_on_c, 9, 36, 0
1, 321120, Note_on_c, 9, 38, 127
1, 321120, Note_on_c, 9, 42, 127
1, 321146, Note_on_c, 9, 42, 0
1, 321599, Note_on_c, 9, 38, 0
1, 321600, Note_on_c, 9, 42, 127
1, 321626, Note_on_c, 9, 42, 0
1, 321840, Note_on_c, 9, 36, 127
1, 322079, Note_on_c, 9, 36, 0
1, 322080, Note_on_c, 9, 38, 127
1, 322080, Note_on_c, 9, 42, 127
1, 322106, Note_on_c, 9, 42, 0
1, 322559, Note_on_c, 9, 38, 0
1, 322560, Note_on_c, 9, 42, 127
1, 322560, Note_on_c, 9, 36, 127
1, 322586, Note_on_c, 9, 42, 0
1, 322799, Note_on_c, 9, 36, 0
1, 322800, Note_on_c, 9, 36, 127
1, 323039, Note_on_c, 9, 36, 0
1, 323040, Note_on_c, 9, 38, 127
1, 323279, Note_on_c, 9, 38, 0
1, 323280, Note_on_c, 9, 42, 127
1, 323292, Note_on_c, 9, 42, 0
1, 323520, Note_on_c, 9, 38, 127
1, 323759, Note_on_c, 9, 38, 0
1, 323760, Note_on_c, 9, 42, 127
1, 323772, Note_on_c, 9, 42, 0
1, 324000, Note_on_c, 9, 38, 127
1, 324239, Note_on_c, 9, 38, 0
1, 324240, Note_on_c, 9, 57, 127
1, 324240, Note_on_c, 9, 36, 127
1, 324252, Note_on_c, 9, 57, 0
1, 324479, Note_on_c, 9, 36, 0
1, 324480, Note_on_c, 9, 57, 127
1, 324480, Note_on_c, 9, 36, 127
1, 324506, Note_on_c, 9, 57, 0
1, 324959, Note_on_c, 9, 36, 0
1, 324960, Note_on_c, 9, 38, 127
1, 324960, Note_on_c, 9, 42, 127
1, 324986, Note_on_c, 9, 42, 0
1, 325439, Note_on_c, 9, 38, 0
1, 325440, Note_on_c, 9, 42, 127
1, 325466, Note_on_c, 9, 42, 0
1, 325680, Note_on_c, 9, 36, 127
1, 325919, Note_on_c, 9, 36, 0
1, 325920, Note_on_c, 9, 38, 127
1, 325920, Note_on_c, 9, 42, 127
1, 325946, Note_on_c, 9, 42, 0
1, 326399, Note_on_c, 9, 38, 0
1, 326400, Note_on_c, 9, 42, 127
1, 326400, Note_on_c, 9, 36, 127
1, 326426, Note_on_c, 9, 42, 0
1, 326639, Note_on_c, 9, 36, 0
1, 326640, Note_on_c, 9, 36, 127
1, 326879, Note_on_c, 9, 36, 0
1, 326880, Note_on_c, 9, 38, 127
1, 326880, Note_on_c, 9, 42, 127
1, 326906, Note_on_c, 9, 42, 0
1, 327359, Note_on_c, 9, 38, 0
1, 327360, Note_on_c, 9, 42, 127
1, 327360, Note_on_c, 9, 36, 127
1, 327386, Note_on_c, 9, 42, 0
1, 327599, Note_on_c, 9, 36, 0
1, 327600, Note_on_c, 9, 36, 127
1, 327839, Note_on_c, 9, 36, 0
1, 327840, Note_on_c, 9, 38, 127
1, 327840, Note_on_c, 9, 42, 127
1, 327866, Note_on_c, 9, 42, 0
1, 328319, Note_on_c, 9, 38, 0
1, 328320, Note_on_c, 9, 57, 127
1, 328320, Note_on_c, 9, 36, 127
1, 328346, Note_on_c, 9, 57, 0
1, 328799, Note_on_c, 9, 36, 0
1, 328800, Note_on_c, 9, 38, 127
1, 328800, Note_on_c, 9, 42, 127
1, 328826, Note_on_c, 9, 42, 0
1, 329279, Note_on_c, 9, 38, 0
1, 329280, Note_on_c, 9, 42, 127
1, 329280, Note_on_c, 9, 36, 127
1, 329306, Note_on_c, 9, 42, 0
1, 329519, Note_on_c, 9, 36, 0
1, 329520, Note_on_c, 9, 36, 127
1, 329759, Note_on_c, 9, 36, 0
1, 329760, Note_on_c, 9, 38, 127
1, 329760, Note_on_c, 9, 42, 127
1, 329786, Note_on_c, 9, 42, 0
1, 330239, Note_on_c, 9, 38, 0
1, 330240, Note_on_c, 9, 42, 127
1, 330240, Note_on_c, 9, 36, 127
1, 330266, Note_on_c, 9, 42, 0
1, 330479, Note_on_c, 9, 36, 0
1, 330480, Note_on_c, 9, 36, 127
1, 330559, Note_on_c, 9, 36, 0
1, 330560, Note_on_c, 9, 36, 127
1, 330639, Note_on_c, 9, 36, 0
1, 330640, Note_on_c, 9, 36, 127
1, 330719, Note_on_c, 9, 36, 0
1, 330720, Note_on_c, 9, 38, 127
1, 330720, Note_on_c, 9, 57, 127
1, 330746, Note_on_c, 9, 57, 0
1, 331199, Note_on_c, 9, 38, 0
1, 331200, Note_on_c, 9, 42, 127
1, 331200, Note_on_c, 9, 36, 127
1, 331226, Note_on_c, 9, 42, 0
1, 331439, Note_on_c, 9, 36, 0
1, 331440, Note_on_c, 9, 36, 127
1, 331519, Note_on_c, 9, 36, 0
1, 331520, Note_on_c, 9, 36, 127
1, 331599, Note_on_c, 9, 36, 0
1, 331600, Note_on_c, 9, 36, 127
1, 331679, Note_on_c, 9, 36, 0
1, 331680, Note_on_c, 9, 38, 127
1, 331680, Note_on_c, 9, 57, 127
1, 331706, Note_on_c, 9, 57, 0
1, 332159, Note_on_c, 9, 38, 0
1, 332160, Note_on_c, 9, 57, 127
1, 332160, Note_on_c, 9, 36, 127
1, 332186, Note_on_c, 9, 57, 0
1, 332279, Note_on_c, 9, 36, 0
1, 332280, Note_on_c, 9, 35, 127
1, 332399, Note_on_c, 9, 35, 0
1, 332400, Note_on_c, 9, 36, 127
1, 332519, Note_on_c, 9, 36, 0
1, 332520, Note_on_c, 9, 35, 127
1, 332639, Note_on_c, 9, 35, 0
1, 332640, Note_on_c, 9, 38, 127
1, 332640, Note_on_c, 9, 42, 127
1, 332640, Note_on_c, 9, 36, 127
1, 332666, Note_on_c, 9, 42, 0
1, 332759, Note_on_c, 9, 36, 0
1, 332760, Note_on_c, 9, 35, 127
1, 332879, Note_on_c, 9, 35, 0
1, 332880, Note_on_c, 9, 36, 127
1, 332999, Note_on_c, 9, 36, 0
1, 333000, Note_on_c, 9, 35, 127
1, 333119, Note_on_c, 9, 38, 0
1, 333119, Note_on_c, 9, 35, 0
1, 333120, Note_on_c, 9, 42, 127
1, 333120, Note_on_c, 9, 36, 127
1, 333146, Note_on_c, 9, 42, 0
1, 333239, Note_on_c, 9, 36, 0
1, 333240, Note_on_c, 9, 35, 127
1, 333359, Note_on_c, 9, 35, 0
1, 333360, Note_on_c, 9, 36, 127
1, 333479, Note_on_c, 9, 36, 0
1, 333480, Note_on_c, 9, 35, 127
1, 333599, Note_on_c, 9, 35, 0
1, 333600, Note_on_c, 9, 38, 127
1, 333600, Note_on_c, 9, 42, 127
1, 333600, Note_on_c, 9, 36, 127
1, 333626, Note_on_c, 9, 42, 0
1, 333719, Note_on_c, 9, 36, 0
1, 333720, Note_on_c, 9, 35, 127
1, 333839, Note_on_c, 9, 35, 0
1, 333840, Note_on_c, 9, 36, 127
1, 333959, Note_on_c, 9, 36, 0
1, 333960, Note_on_c, 9, 35, 127
1, 334079, Note_on_c, 9, 38, 0
1, 334079, Note_on_c, 9, 35, 0
1, 334080, Note_on_c, 9, 42, 127
1, 334080, Note_on_c, 9, 36, 127
1, 334106, Note_on_c, 9, 42, 0
1, 334199, Note_on_c, 9, 36, 0
1, 334200, Note_on_c, 9, 35, 127
1, 334319, Note_on_c, 9, 35, 0
1, 334320, Note_on_c, 9, 36, 127
1, 334439, Note_on_c, 9, 36, 0
1, 334440, Note_on_c, 9, 35, 127
1, 334559, Note_on_c, 9, 35, 0
1, 334560, Note_on_c, 9, 38, 127
1, 334560, Note_on_c, 9, 42, 127
1, 334560, Note_on_c, 9, 36, 127
1, 334586, Note_on_c, 9, 42, 0
1, 334679, Note_on_c, 9, 36, 0
1, 334680, Note_on_c, 9, 35, 127
1, 334799, Note_on_c, 9, 35, 0
1, 334800, Note_on_c, 9, 36, 127
1, 334919, Note_on_c, 9, 36, 0
1, 334920, Note_on_c, 9, 35, 127
1, 335039, Note_on_c, 9, 38, 0
1, 335039, Note_on_c, 9, 35, 0
1, 335040, Note_on_c, 9, 42, 127
1, 335040, Note_on_c, 9, 36, 127
1, 335066, Note_on_c, 9, 42, 0
1, 335159, Note_on_c, 9, 36, 0
1, 335160, Note_on_c, 9, 35, 127
1, 335279, Note_on_c, 9, 35, 0
1, 335280, Note_on_c, 9, 36, 127
1, 335399, Note_on_c, 9, 36, 0
1, 335400, Note_on_c, 9, 35, 127
1, 335519, Note_on_c, 9, 35, 0
1, 335520, Note_on_c, 9, 38, 127
1, 335520, Note_on_c, 9, 42, 127
1, 335520, Note_on_c, 9, 36, 127
1, 335546, Note_on_c, 9, 42, 0
1, 335639, Note_on_c, 9, 36, 0
1, 335640, Note_on_c, 9, 35, 127
1, 335759, Note_on_c, 9, 35, 0
1, 335760, Note_on_c, 9, 36, 127
1, 335879, Note_on_c, 9, 36, 0
1, 335880, Note_on_c, 9, 35, 127
1, 335999, Note_on_c, 9, 38, 0
1, 335999, Note_on_c, 9, 35, 0
1, 336000, Note_on_c, 9, 57, 127
1, 336000, Note_on_c, 9, 36, 127
1, 336026, Note_on_c, 9, 57, 0
1, 336119, Note_on_c, 9, 36, 0
1, 336120, Note_on_c, 9, 35, 127
1, 336239, Note_on_c, 9, 35, 0
1, 336240, Note_on_c, 9, 36, 127
1, 336359, Note_on_c, 9, 36, 0
1, 336360, Note_on_c, 9, 35, 127
1, 336479, Note_on_c, 9, 35, 0
1, 336480, Note_on_c, 9, 38, 127
1, 336480, Note_on_c, 9, 42, 127
1, 336480, Note_on_c, 9, 36, 127
1, 336506, Note_on_c, 9, 42, 0
1, 336599, Note_on_c, 9, 36, 0
1, 336600, Note_on_c, 9, 35, 127
1, 336719, Note_on_c, 9, 35, 0
1, 336720, Note_on_c, 9, 36, 127
1, 336839, Note_on_c, 9, 36, 0
1, 336840, Note_on_c, 9, 35, 127
1, 336959, Note_on_c, 9, 38, 0
1, 336959, Note_on_c, 9, 35, 0
1, 336960, Note_on_c, 9, 42, 127
1, 336960, Note_on_c, 9, 36, 127
1, 336986, Note_on_c, 9, 42, 0
1, 337079, Note_on_c, 9, 36, 0
1, 337080, Note_on_c, 9, 35, 127
1, 337199, Note_on_c, 9, 35, 0
1, 337200, Note_on_c, 9, 36, 127
1, 337319, Note_on_c, 9, 36, 0
1, 337320, Note_on_c, 9, 35, 127
1, 337439, Note_on_c, 9, 35, 0
1, 337440, Note_on_c, 9, 38, 127
1, 337440, Note_on_c, 9, 42, 127
1, 337440, Note_on_c, 9, 36, 127
1, 337466, Note_on_c, 9, 42, 0
1, 337559, Note_on_c, 9, 36, 0
1, 337560, Note_on_c, 9, 35, 127
1, 337679, Note_on_c, 9, 35, 0
1, 337680, Note_on_c, 9, 36, 127
1, 337799, Note_on_c, 9, 36, 0
1, 337800, Note_on_c, 9, 35, 127
1, 337919, Note_on_c, 9, 38, 0
1, 337919, Note_on_c, 9, 35, 0
1, 337920, Note_on_c, 9, 42, 127
1, 337920, Note_on_c, 9, 36, 127
1, 337946, Note_on_c, 9, 42, 0
1, 338039, Note_on_c, 9, 36, 0
1, 338040, Note_on_c, 9, 35, 127
1, 338159, Note_on_c, 9, 35, 0
1, 338160, Note_on_c, 9, 36, 127
1, 338279, Note_on_c, 9, 36, 0
1, 338280, Note_on_c, 9, 35, 127
1, 338399, Note_on_c, 9, 35, 0
1, 338400, Note_on_c, 9, 38, 127
1, 338400, Note_on_c, 9, 42, 127
1, 338400, Note_on_c, 9, 36, 127
1, 338426, Note_on_c, 9, 42, 0
1, 338519, Note_on_c, 9, 36, 0
1, 338520, Note_on_c, 9, 35, 127
1, 338639, Note_on_c, 9, 35, 0
1, 338640, Note_on_c, 9, 36, 127
1, 338759, Note_on_c, 9, 36, 0
1, 338760, Note_on_c, 9, 35, 127
1, 338879, Note_on_c, 9, 38, 0
1, 338879, Note_on_c, 9, 35, 0
1, 338880, Note_on_c, 9, 42, 127
1, 338880, Note_on_c, 9, 36, 127
1, 338906, Note_on_c, 9, 42, 0
1, 338999, Note_on_c, 9, 36, 0
1, 339000, Note_on_c, 9, 35, 127
1, 339119, Note_on_c, 9, 35, 0
1, 339120, Note_on_c, 9, 36, 127
1, 339239, Note_on_c, 9, 36, 0
1, 339240, Note_on_c, 9, 35, 127
1, 339359, Note_on_c, 9, 35, 0
1, 339360, Note_on_c, 9, 38, 127
1, 339360, Note_on_c, 9, 57, 127
1, 339360, Note_on_c, 9, 36, 127
1, 339386, Note_on_c, 9, 57, 0
1, 339479, Note_on_c, 9, 36, 0
1, 339480, Note_on_c, 9, 35, 127
1, 339599, Note_on_c, 9, 35, 0
1, 339600, Note_on_c, 9, 36, 127
1, 339719, Note_on_c, 9, 36, 0
1, 339720, Note_on_c, 9, 35, 127
1, 339839, Note_on_c, 9, 38, 0
1, 339839, Note_on_c, 9, 35, 0
1, 339840, Note_on_c, 9, 57, 127
1, 339840, Note_on_c, 9, 36, 127
1, 339866, Note_on_c, 9, 57, 0
1, 339959, Note_on_c, 9, 36, 0
1, 339960, Note_on_c, 9, 35, 127
1, 340079, Note_on_c, 9, 35, 0
1, 340080, Note_on_c, 9, 36, 127
1, 340199, Note_on_c, 9, 36, 0
1, 340200, Note_on_c, 9, 35, 127
1, 340319, Note_on_c, 9, 35, 0
1, 340320, Note_on_c, 9, 38, 127
1, 340320, Note_on_c, 9, 42, 127
1, 340320, Note_on_c, 9, 36, 127
1, 340346, Note_on_c, 9, 42, 0
1, 340439, Note_on_c, 9, 36, 0
1, 340440, Note_on_c, 9, 35, 127
1, 340559, Note_on_c, 9, 35, 0
1, 340560, Note_on_c, 9, 36, 127
1, 340679, Note_on_c, 9, 36, 0
1, 340680, Note_on_c, 9, 35, 127
1, 340799, Note_on_c, 9, 38, 0
1, 340799, Note_on_c, 9, 35, 0
1, 340800, Note_on_c, 9, 42, 127
1, 340800, Note_on_c, 9, 36, 127
1, 340826, Note_on_c, 9, 42, 0
1, 340919, Note_on_c, 9, 36, 0
1, 340920, Note_on_c, 9, 35, 127
1, 341039, Note_on_c, 9, 35, 0
1, 341040, Note_on_c, 9, 36, 127
1, 341159, Note_on_c, 9, 36, 0
1, 341160, Note_on_c, 9, 35, 127
1, 341279, Note_on_c, 9, 35, 0
1, 341280, Note_on_c, 9, 38, 127
1, 341280, Note_on_c, 9, 42, 127
1, 341280, Note_on_c, 9, 36, 127
1, 341306, Note_on_c, 9, 42, 0
1, 341399, Note_on_c, 9, 36, 0
1, 341400, Note_on_c, 9, 35, 127
1, 341519, Note_on_c, 9, 35, 0
1, 341520, Note_on_c, 9, 36, 127
1, 341639, Note_on_c, 9, 36, 0
1, 341640, Note_on_c, 9, 35, 127
1, 341759, Note_on_c, 9, 38, 0
1, 341759, Note_on_c, 9, 35, 0
1, 341760, Note_on_c, 9, 42, 127
1, 341760, Note_on_c, 9, 36, 127
1, 341786, Note_on_c, 9, 42, 0
1, 341879, Note_on_c, 9, 36, 0
1, 341880, Note_on_c, 9, 35, 127
1, 341999, Note_on_c, 9, 35, 0
1, 342000, Note_on_c, 9, 36, 127
1, 342119, Note_on_c, 9, 36, 0
1, 342120, Note_on_c, 9, 35, 127
1, 342239, Note_on_c, 9, 35, 0
1, 342240, Note_on_c, 9, 38, 127
1, 342240, Note_on_c, 9, 42, 127
1, 342240, Note_on_c, 9, 36, 127
1, 342266, Note_on_c, 9, 42, 0
1, 342359, Note_on_c, 9, 36, 0
1, 342360, Note_on_c, 9, 35, 127
1, 342479, Note_on_c, 9, 35, 0
1, 342480, Note_on_c, 9, 36, 127
1, 342599, Note_on_c, 9, 36, 0
1, 342600, Note_on_c, 9, 35, 127
1, 342719, Note_on_c, 9, 38, 0
1, 342719, Note_on_c, 9, 35, 0
1, 342720, Note_on_c, 9, 42, 127
1, 342720, Note_on_c, 9, 36, 127
1, 342746, Note_on_c, 9, 42, 0
1, 342839, Note_on_c, 9, 36, 0
1, 342840, Note_on_c, 9, 35, 127
1, 342959, Note_on_c, 9, 35, 0
1, 342960, Note_on_c, 9, 36, 127
1, 343079, Note_on_c, 9, 36, 0
1, 343080, Note_on_c, 9, 35, 127
1, 343199, Note_on_c, 9, 35, 0
1, 343200, Note_on_c, 9, 38, 127
1, 343200, Note_on_c, 9, 42, 127
1, 343200, Note_on_c, 9, 36, 127
1, 343226, Note_on_c, 9, 42, 0
1, 343319, Note_on_c, 9, 36, 0
1, 343320, Note_on_c, 9, 35, 127
1, 343439, Note_on_c, 9, 35, 0
1, 343440, Note_on_c, 9, 36, 127
1, 343559, Note_on_c, 9, 36, 0
1, 343560, Note_on_c, 9, 35, 127
1, 343679, Note_on_c, 9, 38, 0
1, 343679, Note_on_c, 9, 35, 0
1, 343680, Note_on_c, 9, 42, 127
1, 343680, Note_on_c, 9, 36, 127
1, 343706, Note_on_c, 9, 42, 0
1, 343799, Note_on_c, 9, 36, 0
1, 343800, Note_on_c, 9, 35, 127
1, 343919, Note_on_c, 9, 35, 0
1, 343920, Note_on_c, 9, 36, 127
1, 344039, Note_on_c, 9, 36, 0
1, 344040, Note_on_c, 9, 35, 127
1, 344159, Note_on_c, 9, 35, 0
1, 344160, Note_on_c, 9, 38, 127
1, 344160, Note_on_c, 9, 57, 127
1, 344160, Note_on_c, 9, 36, 127
1, 344186, Note_on_c, 9, 57, 0
1, 344279, Note_on_c, 9, 36, 0
1, 344280, Note_on_c, 9, 35, 127
1, 344399, Note_on_c, 9, 35, 0
1, 344400, Note_on_c, 9, 36, 127
1, 344519, Note_on_c, 9, 36, 0
1, 344520, Note_on_c, 9, 35, 127
1, 344639, Note_on_c, 9, 38, 0
1, 344639, Note_on_c, 9, 35, 0
1, 344640, Note_on_c, 9, 42, 127
1, 344640, Note_on_c, 9, 36, 127
1, 344666, Note_on_c, 9, 42, 0
1, 344759, Note_on_c, 9, 36, 0
1, 344760, Note_on_c, 9, 35, 127
1, 344879, Note_on_c, 9, 35, 0
1, 344880, Note_on_c, 9, 36, 127
1, 344999, Note_on_c, 9, 36, 0
1, 345000, Note_on_c, 9, 35, 127
1, 345119, Note_on_c, 9, 35, 0
1, 345120, Note_on_c, 9, 38, 127
1, 345120, Note_on_c, 9, 59, 127
1, 345120, Note_on_c, 9, 36, 127
1, 345146, Note_on_c, 9, 59, 0
1, 345239, Note_on_c, 9, 36, 0
1, 345240, Note_on_c, 9, 35, 127
1, 345359, Note_on_c, 9, 35, 0
1, 345360, Note_on_c, 9, 36, 127
1, 345479, Note_on_c, 9, 36, 0
1, 345480, Note_on_c, 9, 35, 127
1, 345599, Note_on_c, 9, 38, 0
1, 345599, Note_on_c, 9, 35, 0
1, 345600, Note_on_c, 9, 42, 127
1, 345600, Note_on_c, 9, 36, 127
1, 345626, Note_on_c, 9, 42, 0
1, 345719, Note_on_c, 9, 36, 0
1, 345720, Note_on_c, 9, 35, 127
1, 345839, Note_on_c, 9, 35, 0
1, 345840, Note_on_c, 9, 36, 127
1, 345959, Note_on_c, 9, 36, 0
1, 345960, Note_on_c, 9, 35, 127
1, 346079, Note_on_c, 9, 35, 0
1, 346080, Note_on_c, 9, 38, 127
1, 346080, Note_on_c, 9, 57, 127
1, 346080, Note_on_c, 9, 36, 127
1, 346106, Note_on_c, 9, 57, 0
1, 346199, Note_on_c, 9, 36, 0
1, 346200, Note_on_c, 9, 35, 127
1, 346319, Note_on_c, 9, 35, 0
1, 346320, Note_on_c, 9, 36, 127
1, 346439, Note_on_c, 9, 36, 0
1, 346440, Note_on_c, 9, 35, 127
1, 346559, Note_on_c, 9, 38, 0
1, 346559, Note_on_c, 9, 35, 0
1, 346560, Note_on_c, 9, 42, 127
1, 346560, Note_on_c, 9, 36, 127
1, 346586, Note_on_c, 9, 42, 0
1, 346679, Note_on_c, 9, 36, 0
1, 346680, Note_on_c, 9, 35, 127
1, 346799, Note_on_c, 9, 35, 0
1, 346800, Note_on_c, 9, 36, 127
1, 346919, Note_on_c, 9, 36, 0
1, 346920, Note_on_c, 9, 35, 127
1, 347039, Note_on_c, 9, 35, 0
1, 347040, Note_on_c, 9, 38, 127
1, 347040, Note_on_c, 9, 57, 127
1, 347040, Note_on_c, 9, 36, 127
1, 347066, Note_on_c, 9, 57, 0
1, 347159, Note_on_c, 9, 36, 0
1, 347160, Note_on_c, 9, 35, 127
1, 347279, Note_on_c, 9, 35, 0
1, 347280, Note_on_c, 9, 36, 127
1, 347399, Note_on_c, 9, 36, 0
1, 347400, Note_on_c, 9, 35, 127
1, 347519, Note_on_c, 9, 38, 0
1, 347519, Note_on_c, 9, 35, 0
1, 347520, Note_on_c, 9, 57, 127
1, 347520, Note_on_c, 9, 36, 127
1, 347546, Note_on_c, 9, 57, 0
1, 347639, Note_on_c, 9, 36, 0
1, 347640, Note_on_c, 9, 35, 127
1, 347759, Note_on_c, 9, 35, 0
1, 347760, Note_on_c, 9, 36, 127
1, 347879, Note_on_c, 9, 36, 0
1, 347880, Note_on_c, 9, 35, 127
1, 347999, Note_on_c, 9, 35, 0
1, 348000, Note_on_c, 9, 38, 127
1, 348000, Note_on_c, 9, 42, 127
1, 348000, Note_on_c, 9, 36, 127
1, 348026, Note_on_c, 9, 42, 0
1, 348119, Note_on_c, 9, 36, 0
1, 348120, Note_on_c, 9, 35, 127
1, 348239, Note_on_c, 9, 35, 0
1, 348240, Note_on_c, 9, 36, 127
1, 348359, Note_on_c, 9, 36, 0
1, 348360, Note_on_c, 9, 35, 127
1, 348479, Note_on_c, 9, 38, 0
1, 348479, Note_on_c, 9, 35, 0
1, 348480, Note_on_c, 9, 42, 127
1, 348480, Note_on_c, 9, 36, 127
1, 348506, Note_on_c, 9, 42, 0
1, 348599, Note_on_c, 9, 36, 0
1, 348600, Note_on_c, 9, 35, 127
1, 348719, Note_on_c, 9, 35, 0
1, 348720, Note_on_c, 9, 36, 127
1, 348839, Note_on_c, 9, 36, 0
1, 348840, Note_on_c, 9, 35, 127
1, 348959, Note_on_c, 9, 35, 0
1, 348960, Note_on_c, 9, 38, 127
1, 348960, Note_on_c, 9, 42, 127
1, 348960, Note_on_c, 9, 36, 127
1, 348986, Note_on_c, 9, 42, 0
1, 349079, Note_on_c, 9, 36, 0
1, 349080, Note_on_c, 9, 35, 127
1, 349199, Note_on_c, 9, 35, 0
1, 349200, Note_on_c, 9, 36, 127
1, 349319, Note_on_c, 9, 36, 0
1, 349320, Note_on_c, 9, 35, 127
1, 349439, Note_on_c, 9, 38, 0
1, 349439, Note_on_c, 9, 35, 0
1, 349440, Note_on_c, 9, 42, 127
1, 349440, Note_on_c, 9, 36, 127
1, 349466, Note_on_c, 9, 42, 0
1, 349559, Note_on_c, 9, 36, 0
1, 349560, Note_on_c, 9, 35, 127
1, 349679, Note_on_c, 9, 35, 0
1, 349680, Note_on_c, 9, 36, 127
1, 349799, Note_on_c, 9, 36, 0
1, 349800, Note_on_c, 9, 35, 127
1, 349919, Note_on_c, 9, 35, 0
1, 349920, Note_on_c, 9, 38, 127
1, 349920, Note_on_c, 9, 42, 127
1, 349920, Note_on_c, 9, 36, 127
1, 349946, Note_on_c, 9, 42, 0
1, 350039, Note_on_c, 9, 36, 0
1, 350040, Note_on_c, 9, 35, 127
1, 350159, Note_on_c, 9, 35, 0
1, 350160, Note_on_c, 9, 36, 127
1, 350279, Note_on_c, 9, 36, 0
1, 350280, Note_on_c, 9, 35, 127
1, 350399, Note_on_c, 9, 38, 0
1, 350399, Note_on_c, 9, 35, 0
1, 350400, Note_on_c, 9, 42, 127
1, 350400, Note_on_c, 9, 36, 127
1, 350426, Note_on_c, 9, 42, 0
1, 350519, Note_on_c, 9, 36, 0
1, 350520, Note_on_c, 9, 35, 127
1, 350639, Note_on_c, 9, 35, 0
1, 350640, Note_on_c, 9, 36, 127
1, 350759, Note_on_c, 9, 36, 0
1, 350760, Note_on_c, 9, 35, 127
1, 350879, Note_on_c, 9, 35, 0
1, 350880, Note_on_c, 9, 38, 127
1, 350880, Note_on_c, 9, 57, 127
1, 350880, Note_on_c, 9, 36, 127
1, 350906, Note_on_c, 9, 57, 0
1, 350999, Note_on_c, 9, 36, 0
1, 351000, Note_on_c, 9, 35, 127
1, 351119, Note_on_c, 9, 35, 0
1, 351120, Note_on_c, 9, 36, 127
1, 351239, Note_on_c, 9, 36, 0
1, 351240, Note_on_c, 9, 35, 127
1, 351359, Note_on_c, 9, 38, 0
1, 351359, Note_on_c, 9, 35, 0
1, 351360, Note_on_c, 9, 57, 127
1, 351360, Note_on_c, 9, 36, 127
1, 351386, Note_on_c, 9, 57, 0
1, 351479, Note_on_c, 9, 36, 0
1, 351480, Note_on_c, 9, 35, 127
1, 351599, Note_on_c, 9, 35, 0
1, 351600, Note_on_c, 9, 36, 127
1, 351719, Note_on_c, 9, 36, 0
1, 351720, Note_on_c, 9, 35, 127
1, 351839, Note_on_c, 9, 35, 0
1, 351840, Note_on_c, 9, 38, 127
1, 351840, Note_on_c, 9, 42, 127
1, 351840, Note_on_c, 9, 36, 127
1, 351866, Note_on_c, 9, 42, 0
1, 351959, Note_on_c, 9, 36, 0
1, 351960, Note_on_c, 9, 35, 127
1, 352079, Note_on_c, 9, 35, 0
1, 352080, Note_on_c, 9, 36, 127
1, 352199, Note_on_c, 9, 36, 0
1, 352200, Note_on_c, 9, 35, 127
1, 352319, Note_on_c, 9, 38, 0
1, 352319, Note_on_c, 9, 35, 0
1, 352320, Note_on_c, 9, 42, 127
1, 352320, Note_on_c, 9, 36, 127
1, 352346, Note_on_c, 9, 42, 0
1, 352439, Note_on_c, 9, 36, 0
1, 352440, Note_on_c, 9, 35, 127
1, 352559, Note_on_c, 9, 35, 0
1, 352560, Note_on_c, 9, 36, 127
1, 352679, Note_on_c, 9, 36, 0
1, 352680, Note_on_c, 9, 35, 127
1, 352799, Note_on_c, 9, 35, 0
1, 352800, Note_on_c, 9, 38, 127
1, 352800, Note_on_c, 9, 42, 127
1, 352800, Note_on_c, 9, 36, 127
1, 352826, Note_on_c, 9, 42, 0
1, 352919, Note_on_c, 9, 36, 0
1, 352920, Note_on_c, 9, 35, 127
1, 353039, Note_on_c, 9, 35, 0
1, 353040, Note_on_c, 9, 36, 127
1, 353159, Note_on_c, 9, 36, 0
1, 353160, Note_on_c, 9, 35, 127
1, 353279, Note_on_c, 9, 38, 0
1, 353279, Note_on_c, 9, 35, 0
1, 353280, Note_on_c, 9, 42, 127
1, 353280, Note_on_c, 9, 36, 127
1, 353306, Note_on_c, 9, 42, 0
1, 353399, Note_on_c, 9, 36, 0
1, 353400, Note_on_c, 9, 35, 127
1, 353519, Note_on_c, 9, 35, 0
1, 353520, Note_on_c, 9, 36, 127
1, 353639, Note_on_c, 9, 36, 0
1, 353640, Note_on_c, 9, 35, 127
1, 353759, Note_on_c, 9, 35, 0
1, 353760, Note_on_c, 9, 38, 127
1, 353760, Note_on_c, 9, 42, 127
1, 353760, Note_on_c, 9, 36, 127
1, 353786, Note_on_c, 9, 42, 0
1, 353879, Note_on_c, 9, 36, 0
1, 353880, Note_on_c, 9, 35, 127
1, 353999, Note_on_c, 9, 35, 0
1, 354000, Note_on_c, 9, 36, 127
1, 354119, Note_on_c, 9, 36, 0
1, 354120, Note_on_c, 9, 35, 127
1, 354239, Note_on_c, 9, 38, 0
1, 354239, Note_on_c, 9, 35, 0
1, 354240, Note_on_c, 9, 42, 127
1, 354240, Note_on_c, 9, 36, 127
1, 354266, Note_on_c, 9, 42, 0
1, 354359, Note_on_c, 9, 36, 0
1, 354360, Note_on_c, 9, 35, 127
1, 354479, Note_on_c, 9, 35, 0
1, 354480, Note_on_c, 9, 36, 127
1, 354599, Note_on_c, 9, 36, 0
1, 354600, Note_on_c, 9, 35, 127
1, 354719, Note_on_c, 9, 35, 0
1, 354720, Note_on_c, 9, 38, 127
1, 354720, Note_on_c, 9, 57, 127
1, 354720, Note_on_c, 9, 36, 127
1, 354746, Note_on_c, 9, 57, 0
1, 354839, Note_on_c, 9, 36, 0
1, 354840, Note_on_c, 9, 35, 127
1, 354959, Note_on_c, 9, 35, 0
1, 354960, Note_on_c, 9, 36, 127
1, 355079, Note_on_c, 9, 36, 0
1, 355080, Note_on_c, 9, 35, 127
1, 355199, Note_on_c, 9, 38, 0
1, 355199, Note_on_c, 9, 35, 0
1, 355200, Note_on_c, 9, 57, 127
1, 355200, Note_on_c, 9, 36, 127
1, 355226, Note_on_c, 9, 57, 0
1, 355319, Note_on_c, 9, 36, 0
1, 355320, Note_on_c, 9, 35, 127
1, 355439, Note_on_c, 9, 35, 0
1, 355440, Note_on_c, 9, 36, 127
1, 355559, Note_on_c, 9, 36, 0
1, 355560, Note_on_c, 9, 35, 127
1, 355679, Note_on_c, 9, 35, 0
1, 355680, Note_on_c, 9, 38, 127
1, 355680, Note_on_c, 9, 42, 127
1, 355680, Note_on_c, 9, 36, 127
1, 355706, Note_on_c, 9, 42, 0
1, 355799, Note_on_c, 9, 36, 0
1, 355800, Note_on_c, 9, 35, 127
1, 355919, Note_on_c, 9, 35, 0
1, 355920, Note_on_c, 9, 36, 127
1, 356039, Note_on_c, 9, 36, 0
1, 356040, Note_on_c, 9, 35, 127
1, 356159, Note_on_c, 9, 38, 0
1, 356159, Note_on_c, 9, 35, 0
1, 356160, Note_on_c, 9, 42, 127
1, 356160, Note_on_c, 9, 36, 127
1, 356186, Note_on_c, 9, 42, 0
1, 356279, Note_on_c, 9, 36, 0
1, 356280, Note_on_c, 9, 35, 127
1, 356399, Note_on_c, 9, 35, 0
1, 356400, Note_on_c, 9, 36, 127
1, 356519, Note_on_c, 9, 36, 0
1, 356520, Note_on_c, 9, 35, 127
1, 356639, Note_on_c, 9, 35, 0
1, 356640, Note_on_c, 9, 38, 127
1, 356640, Note_on_c, 9, 42, 127
1, 356640, Note_on_c, 9, 36, 127
1, 356666, Note_on_c, 9, 42, 0
1, 356759, Note_on_c, 9, 36, 0
1, 356760, Note_on_c, 9, 35, 127
1, 356879, Note_on_c, 9, 35, 0
1, 356880, Note_on_c, 9, 36, 127
1, 356999, Note_on_c, 9, 36, 0
1, 357000, Note_on_c, 9, 35, 127
1, 357119, Note_on_c, 9, 38, 0
1, 357119, Note_on_c, 9, 35, 0
1, 357120, Note_on_c, 9, 42, 127
1, 357120, Note_on_c, 9, 36, 127
1, 357146, Note_on_c, 9, 42, 0
1, 357239, Note_on_c, 9, 36, 0
1, 357240, Note_on_c, 9, 35, 127
1, 357359, Note_on_c, 9, 35, 0
1, 357360, Note_on_c, 9, 36, 127
1, 357479, Note_on_c, 9, 36, 0
1, 357480, Note_on_c, 9, 35, 127
1, 357599, Note_on_c, 9, 35, 0
1, 357600, Note_on_c, 9, 38, 127
1, 357600, Note_on_c, 9, 42, 127
1, 357600, Note_on_c, 9, 36, 127
1, 357626, Note_on_c, 9, 42, 0
1, 357719, Note_on_c, 9, 36, 0
1, 357720, Note_on_c, 9, 35, 127
1, 357839, Note_on_c, 9, 35, 0
1, 357840, Note_on_c, 9, 36, 127
1, 357959, Note_on_c, 9, 36, 0
1, 357960, Note_on_c, 9, 35, 127
1, 358079, Note_on_c, 9, 38, 0
1, 358079, Note_on_c, 9, 35, 0
1, 358080, Note_on_c, 9, 42, 127
1, 358080, Note_on_c, 9, 36, 127
1, 358106, Note_on_c, 9, 42, 0
1, 358199, Note_on_c, 9, 36, 0
1, 358200, Note_on_c, 9, 35, 127
1, 358319, Note_on_c, 9, 35, 0
1, 358320, Note_on_c, 9, 36, 127
1, 358439, Note_on_c, 9, 36, 0
1, 358440, Note_on_c, 9, 35, 127
1, 358559, Note_on_c, 9, 35, 0
1, 358560, Note_on_c, 9, 38, 127
1, 358560, Note_on_c, 9, 42, 127
1, 358560, Note_on_c, 9, 36, 127
1, 358586, Note_on_c, 9, 42, 0
1, 358679, Note_on_c, 9, 36, 0
1, 358680, Note_on_c, 9, 35, 127
1, 358799, Note_on_c, 9, 35, 0
1, 358800, Note_on_c, 9, 36, 127
1, 358919, Note_on_c, 9, 36, 0
1, 358920, Note_on_c, 9, 35, 127
1, 359039, Note_on_c, 9, 38, 0
1, 359039, Note_on_c, 9, 35, 0
1, 359040, Note_on_c, 9, 38, 127
1, 359040, Note_on_c, 9, 57, 127
1, 359040, Note_on_c, 9, 36, 127
1, 359066, Note_on_c, 9, 57, 0
1, 359159, Note_on_c, 9, 36, 0
1, 359160, Note_on_c, 9, 35, 127
1, 359279, Note_on_c, 9, 35, 0
1, 359280, Note_on_c, 9, 36, 127
1, 359399, Note_on_c, 9, 36, 0
1, 359400, Note_on_c, 9, 35, 127
1, 359519, Note_on_c, 9, 38, 0
1, 359519, Note_on_c, 9, 35, 0
1, 359520, Note_on_c, 9, 38, 127
1, 359520, Note_on_c, 9, 57, 127
1, 359520, Note_on_c, 9, 36, 127
1, 359546, Note_on_c, 9, 57, 0
1, 359639, Note_on_c, 9, 36, 0
1, 359640, Note_on_c, 9, 35, 127
1, 359759, Note_on_c, 9, 35, 0
1, 359760, Note_on_c, 9, 36, 127
1, 359879, Note_on_c, 9, 36, 0
1, 359880, Note_on_c, 9, 35, 127
1, 359999, Note_on_c, 9, 38, 0
1, 359999, Note_on_c, 9, 35, 0
1, 360000, Note_on_c, 9, 38, 127
1, 360000, Note_on_c, 9, 57, 127
1, 360000, Note_on_c, 9, 36, 127
1, 360026, Note_on_c, 9, 57, 0
1, 360119, Note_on_c, 9, 36, 0
1, 360120, Note_on_c, 9, 35, 127
1, 360239, Note_on_c, 9, 35, 0
1, 360240, Note_on_c, 9, 36, 127
1, 360359, Note_on_c, 9, 36, 0
1, 360360, Note_on_c, 9, 35, 127
1, 360479, Note_on_c, 9, 38, 0
1, 360479, Note_on_c, 9, 35, 0
1, 360480, Note_on_c, 9, 38, 127
1, 360480, Note_on_c, 9, 57, 127
1, 360480, Note_on_c, 9, 36, 127
1, 360506, Note_on_c, 9, 57, 0
1, 360599, Note_on_c, 9, 36, 0
1, 360600, Note_on_c, 9, 35, 127
1, 360719, Note_on_c, 9, 35, 0
1, 360720, Note_on_c, 9, 36, 127
1, 360839, Note_on_c, 9, 36, 0
1, 360840, Note_on_c, 9, 35, 127
1, 360959, Note_on_c, 9, 38, 0
1, 360959, Note_on_c, 9, 35, 0
1, 360960, Note_on_c, 9, 57, 127
1, 360960, Note_on_c, 9, 36, 127
1, 360986, Note_on_c, 9, 57, 0
1, 361079, Note_on_c, 9, 36, 0
1, 361080, Note_on_c, 9, 35, 127
1, 361199, Note_on_c, 9, 35, 0
1, 361200, Note_on_c, 9, 36, 127
1, 361319, Note_on_c, 9, 36, 0
1, 361320, Note_on_c, 9, 35, 127
1, 361439, Note_on_c, 9, 35, 0
1, 361440, Note_on_c, 9, 38, 127
1, 361440, Note_on_c, 9, 36, 127
1, 361559, Note_on_c, 9, 36, 0
1, 361560, Note_on_c, 9, 35, 127
1, 361679, Note_on_c, 9, 38, 0
1, 361679, Note_on_c, 9, 35, 0
1, 361680, Note_on_c, 9, 38, 127
1, 361680, Note_on_c, 9, 36, 127
1, 361759, Note_on_c, 9, 38, 0
1, 361760, Note_on_c, 9, 38, 127
1, 361799, Note_on_c, 9, 36, 0
1, 361800, Note_on_c, 9, 35, 127
1, 361839, Note_on_c, 9, 38, 0
1, 361840, Note_on_c, 9, 38, 127
1, 361919, Note_on_c, 9, 35, 0
1, 361919, Note_on_c, 9, 38, 0
1, 361920, Note_on_c, 9, 38, 127
1, 361920, Note_on_c, 9, 36, 127
1, 362039, Note_on_c, 9, 36, 0
1, 362040, Note_on_c, 9, 35, 127
1, 362159, Note_on_c, 9, 38, 0
1, 362159, Note_on_c, 9, 35, 0
1, 362160, Note_on_c, 9, 38, 127
1, 362160, Note_on_c, 9, 36, 127
1, 362279, Note_on_c, 9, 36, 0
1, 362280, Note_on_c, 9, 35, 127
1, 362399, Note_on_c, 9, 38, 0
1, 362399, Note_on_c, 9, 35, 0
1, 362400, Note_on_c, 9, 38, 127
1, 362400, Note_on_c, 9, 57, 127
1, 362400, Note_on_c, 9, 36, 127
1, 362426, Note_on_c, 9, 57, 0
1, 362519, Note_on_c, 9, 36, 0
1, 362520, Note_on_c, 9, 35, 127
1, 362639, Note_on_c, 9, 35, 0
1, 362640, Note_on_c, 9, 36, 127
1, 362759, Note_on_c, 9, 36, 0
1, 362760, Note_on_c, 9, 35, 127
1, 362879, Note_on_c, 9, 38, 0
1, 362879, Note_on_c, 9, 35, 0
1, 362880, Note_on_c, 9, 38, 127
1, 362880, Note_on_c, 9, 57, 127
1, 362880, Note_on_c, 9, 36, 127
1, 362906, Note_on_c, 9, 57, 0
1, 362999, Note_on_c, 9, 36, 0
1, 363000, Note_on_c, 9, 35, 127
1, 363119, Note_on_c, 9, 35, 0
1, 363120, Note_on_c, 9, 36, 127
1, 363239, Note_on_c, 9, 36, 0
1, 363240, Note_on_c, 9, 35, 127
1, 363359, Note_on_c, 9, 38, 0
1, 363359, Note_on_c, 9, 35, 0
1, 363360, Note_on_c, 9, 38, 127
1, 363360, Note_on_c, 9, 42, 127
1, 363360, Note_on_c, 9, 36, 127
1, 363386, Note_on_c, 9, 42, 0
1, 363479, Note_on_c, 9, 36, 0
1, 363480, Note_on_c, 9, 35, 127
1, 363599, Note_on_c, 9, 35, 0
1, 363600, Note_on_c, 9, 36, 127
1, 363719, Note_on_c, 9, 36, 0
1, 363720, Note_on_c, 9, 35, 127
1, 363839, Note_on_c, 9, 38, 0
1, 363839, Note_on_c, 9, 35, 0
1, 363840, Note_on_c, 9, 38, 127
1, 363840, Note_on_c, 9, 42, 127
1, 363840, Note_on_c, 9, 36, 127
1, 363866, Note_on_c, 9, 42, 0
1, 363959, Note_on_c, 9, 36, 0
1, 363960, Note_on_c, 9, 35, 127
1, 364079, Note_on_c, 9, 35, 0
1, 364080, Note_on_c, 9, 36, 127
1, 364199, Note_on_c, 9, 36, 0
1, 364200, Note_on_c, 9, 35, 127
1, 364319, Note_on_c, 9, 38, 0
1, 364319, Note_on_c, 9, 35, 0
1, 364320, Note_on_c, 9, 38, 127
1, 364320, Note_on_c, 9, 42, 127
1, 364320, Note_on_c, 9, 36, 127
1, 364346, Note_on_c, 9, 42, 0
1, 364439, Note_on_c, 9, 36, 0
1, 364440, Note_on_c, 9, 35, 127
1, 364559, Note_on_c, 9, 35, 0
1, 364560, Note_on_c, 9, 36, 127
1, 364679, Note_on_c, 9, 36, 0
1, 364680, Note_on_c, 9, 35, 127
1, 364799, Note_on_c, 9, 38, 0
1, 364799, Note_on_c, 9, 35, 0
1, 364800, Note_on_c, 9, 38, 127
1, 364800, Note_on_c, 9, 42, 127
1, 364800, Note_on_c, 9, 36, 127
1, 364826, Note_on_c, 9, 42, 0
1, 364919, Note_on_c, 9, 36, 0
1, 364920, Note_on_c, 9, 35, 127
1, 365039, Note_on_c, 9, 35, 0
1, 365040, Note_on_c, 9, 36, 127
1, 365159, Note_on_c, 9, 36, 0
1, 365160, Note_on_c, 9, 35, 127
1, 365279, Note_on_c, 9, 38, 0
1, 365279, Note_on_c, 9, 35, 0
1, 365280, Note_on_c, 9, 38, 127
1, 365280, Note_on_c, 9, 42, 127
1, 365280, Note_on_c, 9, 36, 127
1, 365306, Note_on_c, 9, 42, 0
1, 365399, Note_on_c, 9, 36, 0
1, 365400, Note_on_c, 9, 35, 127
1, 365519, Note_on_c, 9, 35, 0
1, 365520, Note_on_c, 9, 36, 127
1, 365639, Note_on_c, 9, 36, 0
1, 365640, Note_on_c, 9, 35, 127
1, 365759, Note_on_c, 9, 38, 0
1, 365759, Note_on_c, 9, 35, 0
1, 365760, Note_on_c, 9, 38, 127
1, 365760, Note_on_c, 9, 42, 127
1, 365760, Note_on_c, 9, 36, 127
1, 365786, Note_on_c, 9, 42, 0
1, 365879, Note_on_c, 9, 36, 0
1, 365880, Note_on_c, 9, 35, 127
1, 365999, Note_on_c, 9, 35, 0
1, 366000, Note_on_c, 9, 36, 127
1, 366119, Note_on_c, 9, 36, 0
1, 366120, Note_on_c, 9, 35, 127
1, 366239, Note_on_c, 9, 38, 0
1, 366239, Note_on_c, 9, 35, 0
1, 366240, Note_on_c, 9, 38, 127
1, 366240, Note_on_c, 9, 42, 127
1, 366240, Note_on_c, 9, 36, 127
1, 366266, Note_on_c, 9, 42, 0
1, 366359, Note_on_c, 9, 36, 0
1, 366360, Note_on_c, 9, 35, 127
1, 366479, Note_on_c, 9, 35, 0
1, 366480, Note_on_c, 9, 36, 127
1, 366599, Note_on_c, 9, 36, 0
1, 366600, Note_on_c, 9, 35, 127
1, 366719, Note_on_c, 9, 38, 0
1, 366719, Note_on_c, 9, 35, 0
1, 366720, Note_on_c, 9, 38, 127
1, 366720, Note_on_c, 9, 57, 127
1, 366720, Note_on_c, 9, 36, 127
1, 366746, Note_on_c, 9, 57, 0
1, 366839, Note_on_c, 9, 36, 0
1, 366840, Note_on_c, 9, 35, 127
1, 366959, Note_on_c, 9, 35, 0
1, 366960, Note_on_c, 9, 36, 127
1, 367079, Note_on_c, 9, 36, 0
1, 367080, Note_on_c, 9, 35, 127
1, 367199, Note_on_c, 9, 38, 0
1, 367199, Note_on_c, 9, 35, 0
1, 367200, Note_on_c, 9, 38, 127
1, 367200, Note_on_c, 9, 42, 127
1, 367200, Note_on_c, 9, 36, 127
1, 367226, Note_on_c, 9, 42, 0
1, 367319, Note_on_c, 9, 36, 0
1, 367320, Note_on_c, 9, 35, 127
1, 367439, Note_on_c, 9, 35, 0
1, 367440, Note_on_c, 9, 36, 127
1, 367559, Note_on_c, 9, 36, 0
1, 367560, Note_on_c, 9, 35, 127
1, 367679, Note_on_c, 9, 38, 0
1, 367679, Note_on_c, 9, 35, 0
1, 367680, Note_on_c, 9, 38, 127
1, 367680, Note_on_c, 9, 42, 127
1, 367680, Note_on_c, 9, 36, 127
1, 367706, Note_on_c, 9, 42, 0
1, 367799, Note_on_c, 9, 36, 0
1, 367800, Note_on_c, 9, 35, 127
1, 367919, Note_on_c, 9, 35, 0
1, 367920, Note_on_c, 9, 36, 127
1, 368039, Note_on_c, 9, 36, 0
1, 368040, Note_on_c, 9, 35, 127
1, 368159, Note_on_c, 9, 38, 0
1, 368159, Note_on_c, 9, 35, 0
1, 368160, Note_on_c, 9, 38, 127
1, 368160, Note_on_c, 9, 42, 127
1, 368160, Note_on_c, 9, 36, 127
1, 368186, Note_on_c, 9, 42, 0
1, 368279, Note_on_c, 9, 36, 0
1, 368280, Note_on_c, 9, 35, 127
1, 368399, Note_on_c, 9, 35, 0
1, 368400, Note_on_c, 9, 36, 127
1, 368519, Note_on_c, 9, 36, 0
1, 368520, Note_on_c, 9, 35, 127
1, 368639, Note_on_c, 9, 38, 0
1, 368639, Note_on_c, 9, 35, 0
1, 368640, Note_on_c, 9, 38, 127
1, 368640, Note_on_c, 9, 42, 127
1, 368640, Note_on_c, 9, 36, 127
1, 368666, Note_on_c, 9, 42, 0
1, 368759, Note_on_c, 9, 36, 0
1, 368760, Note_on_c, 9, 35, 127
1, 368879, Note_on_c, 9, 35, 0
1, 368880, Note_on_c, 9, 36, 127
1, 368999, Note_on_c, 9, 36, 0
1, 369000, Note_on_c, 9, 35, 127
1, 369119, Note_on_c, 9, 38, 0
1, 369119, Note_on_c, 9, 35, 0
1, 369120, Note_on_c, 9, 38, 127
1, 369120, Note_on_c, 9, 42, 127
1, 369120, Note_on_c, 9, 36, 127
1, 369146, Note_on_c, 9, 42, 0
1, 369239, Note_on_c, 9, 36, 0
1, 369240, Note_on_c, 9, 35, 127
1, 369359, Note_on_c, 9, 35, 0
1, 369360, Note_on_c, 9, 36, 127
1, 369479, Note_on_c, 9, 36, 0
1, 369480, Note_on_c, 9, 35, 127
1, 369599, Note_on_c, 9, 38, 0
1, 369599, Note_on_c, 9, 35, 0
1, 369600, Note_on_c, 9, 38, 127
1, 369600, Note_on_c, 9, 42, 127
1, 369600, Note_on_c, 9, 36, 127
1, 369626, Note_on_c, 9, 42, 0
1, 369719, Note_on_c, 9, 36, 0
1, 369720, Note_on_c, 9, 35, 127
1, 369839, Note_on_c, 9, 35, 0
1, 369840, Note_on_c, 9, 36, 127
1, 369959, Note_on_c, 9, 36, 0
1, 369960, Note_on_c, 9, 35, 127
1, 370079, Note_on_c, 9, 38, 0
1, 370079, Note_on_c, 9, 35, 0
1, 370080, Note_on_c, 9, 38, 127
1, 370080, Note_on_c, 9, 42, 127
1, 370080, Note_on_c, 9, 36, 127
1, 370106, Note_on_c, 9, 42, 0
1, 370199, Note_on_c, 9, 36, 0
1, 370200, Note_on_c, 9, 35, 127
1, 370319, Note_on_c, 9, 35, 0
1, 370320, Note_on_c, 9, 36, 127
1, 370439, Note_on_c, 9, 36, 0
1, 370440, Note_on_c, 9, 35, 127
1, 370559, Note_on_c, 9, 38, 0
1, 370559, Note_on_c, 9, 35, 0
1, 370560, Note_on_c, 9, 38, 127
1, 370560, Note_on_c, 9, 42, 127
1, 370560, Note_on_c, 9, 57, 127
1, 370560, Note_on_c, 9, 36, 127
1, 370586, Note_on_c, 9, 42, 0
1, 370586, Note_on_c, 9, 57, 0
1, 370679, Note_on_c, 9, 36, 0
1, 370680, Note_on_c, 9, 35, 127
1, 370799, Note_on_c, 9, 35, 0
1, 370800, Note_on_c, 9, 36, 127
1, 370919, Note_on_c, 9, 36, 0
1, 370920, Note_on_c, 9, 35, 127
1, 371039, Note_on_c, 9, 38, 0
1, 371039, Note_on_c, 9, 35, 0
1, 371040, Note_on_c, 9, 38, 127
1, 371040, Note_on_c, 9, 42, 127
1, 371040, Note_on_c, 9, 36, 127
1, 371066, Note_on_c, 9, 42, 0
1, 371159, Note_on_c, 9, 36, 0
1, 371160, Note_on_c, 9, 35, 127
1, 371279, Note_on_c, 9, 35, 0
1, 371280, Note_on_c, 9, 36, 127
1, 371399, Note_on_c, 9, 36, 0
1, 371400, Note_on_c, 9, 35, 127
1, 371519, Note_on_c, 9, 38, 0
1, 371519, Note_on_c, 9, 35, 0
1, 371520, Note_on_c, 9, 38, 127
1, 371520, Note_on_c, 9, 42, 127
1, 371520, Note_on_c, 9, 36, 127
1, 371546, Note_on_c, 9, 42, 0
1, 371639, Note_on_c, 9, 36, 0
1, 371640, Note_on_c, 9, 35, 127
1, 371759, Note_on_c, 9, 35, 0
1, 371760, Note_on_c, 9, 36, 127
1, 371879, Note_on_c, 9, 36, 0
1, 371880, Note_on_c, 9, 35, 127
1, 371999, Note_on_c, 9, 38, 0
1, 371999, Note_on_c, 9, 35, 0
1, 372000, Note_on_c, 9, 38, 127
1, 372000, Note_on_c, 9, 42, 127
1, 372000, Note_on_c, 9, 36, 127
1, 372026, Note_on_c, 9, 42, 0
1, 372119, Note_on_c, 9, 36, 0
1, 372120, Note_on_c, 9, 35, 127
1, 372239, Note_on_c, 9, 35, 0
1, 372240, Note_on_c, 9, 36, 127
1, 372359, Note_on_c, 9, 36, 0
1, 372360, Note_on_c, 9, 35, 127
1, 372479, Note_on_c, 9, 38, 0
1, 372479, Note_on_c, 9, 35, 0
1, 372480, Note_on_c, 9, 38, 127
1, 372480, Note_on_c, 9, 42, 127
1, 372480, Note_on_c, 9, 36, 127
1, 372506, Note_on_c, 9, 42, 0
1, 372599, Note_on_c, 9, 36, 0
1, 372600, Note_on_c, 9, 35, 127
1, 372719, Note_on_c, 9, 35, 0
1, 372720, Note_on_c, 9, 36, 127
1, 372839, Note_on_c, 9, 36, 0
1, 372840, Note_on_c, 9, 35, 127
1, 372959, Note_on_c, 9, 38, 0
1, 372959, Note_on_c, 9, 35, 0
1, 372960, Note_on_c, 9, 38, 127
1, 372960, Note_on_c, 9, 42, 127
1, 372960, Note_on_c, 9, 36, 127
1, 372986, Note_on_c, 9, 42, 0
1, 373079, Note_on_c, 9, 36, 0
1, 373080, Note_on_c, 9, 35, 127
1, 373199, Note_on_c, 9, 35, 0
1, 373200, Note_on_c, 9, 36, 127
1, 373319, Note_on_c, 9, 36, 0
1, 373320, Note_on_c, 9, 35, 127
1, 373439, Note_on_c, 9, 38, 0
1, 373439, Note_on_c, 9, 35, 0
1, 373440, Note_on_c, 9, 38, 127
1, 373440, Note_on_c, 9, 42, 127
1, 373440, Note_on_c, 9, 36, 127
1, 373466, Note_on_c, 9, 42, 0
1, 373559, Note_on_c, 9, 36, 0
1, 373560, Note_on_c, 9, 35, 127
1, 373679, Note_on_c, 9, 35, 0
1, 373680, Note_on_c, 9, 36, 127
1, 373799, Note_on_c, 9, 36, 0
1, 373800, Note_on_c, 9, 35, 127
1, 373919, Note_on_c, 9, 38, 0
1, 373919, Note_on_c, 9, 35, 0
1, 373920, Note_on_c, 9, 38, 127
1, 373920, Note_on_c, 9, 42, 127
1, 373920, Note_on_c, 9, 36, 127
1, 373946, Note_on_c, 9, 42, 0
1, 374039, Note_on_c, 9, 36, 0
1, 374040, Note_on_c, 9, 35, 127
1, 374159, Note_on_c, 9, 35, 0
1, 374160, Note_on_c, 9, 36, 127
1, 374279, Note_on_c, 9, 36, 0
1, 374280, Note_on_c, 9, 35, 127
1, 374399, Note_on_c, 9, 38, 0
1, 374399, Note_on_c, 9, 35, 0
1, 374400, Note_on_c, 9, 38, 127
1, 374400, Note_on_c, 9, 57, 127
1, 374400, Note_on_c, 9, 36, 127
1, 374426, Note_on_c, 9, 57, 0
1, 374519, Note_on_c, 9, 36, 0
1, 374520, Note_on_c, 9, 35, 127
1, 374639, Note_on_c, 9, 35, 0
1, 374640, Note_on_c, 9, 36, 127
1, 374759, Note_on_c, 9, 36, 0
1, 374760, Note_on_c, 9, 35, 127
1, 374879, Note_on_c, 9, 38, 0
1, 374879, Note_on_c, 9, 35, 0
1, 374880, Note_on_c, 9, 38, 127
1, 374880, Note_on_c, 9, 57, 127
1, 374880, Note_on_c, 9, 36, 127
1, 374906, Note_on_c, 9, 57, 0
1, 374999, Note_on_c, 9, 36, 0
1, 375000, Note_on_c, 9, 35, 127
1, 375119, Note_on_c, 9, 35, 0
1, 375120, Note_on_c, 9, 36, 127
1, 375239, Note_on_c, 9, 36, 0
1, 375240, Note_on_c, 9, 35, 127
1, 375359, Note_on_c, 9, 38, 0
1, 375359, Note_on_c, 9, 35, 0
1, 375360, Note_on_c, 9, 38, 127
1, 375360, Note_on_c, 9, 57, 127
1, 375360, Note_on_c, 9, 36, 127
1, 375386, Note_on_c, 9, 57, 0
1, 375479, Note_on_c, 9, 36, 0
1, 375480, Note_on_c, 9, 35, 127
1, 375599, Note_on_c, 9, 35, 0
1, 375600, Note_on_c, 9, 36, 127
1, 375719, Note_on_c, 9, 36, 0
1, 375720, Note_on_c, 9, 35, 127
1, 375839, Note_on_c, 9, 38, 0
1, 375839, Note_on_c, 9, 35, 0
1, 375840, Note_on_c, 9, 38, 127
1, 375840, Note_on_c, 9, 57, 127
1, 375840, Note_on_c, 9, 36, 127
1, 375866, Note_on_c, 9, 57, 0
1, 375959, Note_on_c, 9, 36, 0
1, 375960, Note_on_c, 9, 35, 127
1, 376079, Note_on_c, 9, 35, 0
1, 376080, Note_on_c, 9, 36, 127
1, 376199, Note_on_c, 9, 36, 0
1, 376200, Note_on_c, 9, 35, 127
1, 376319, Note_on_c, 9, 38, 0
1, 376319, Note_on_c, 9, 35, 0
1, 376320, Note_on_c, 9, 38, 127
1, 376320, Note_on_c, 9, 57, 127
1, 376320, Note_on_c, 9, 36, 127
1, 376346, Note_on_c, 9, 57, 0
1, 376439, Note_on_c, 9, 36, 0
1, 376440, Note_on_c, 9, 35, 127
1, 376559, Note_on_c, 9, 35, 0
1, 376560, Note_on_c, 9, 36, 127
1, 376679, Note_on_c, 9, 36, 0
1, 376680, Note_on_c, 9, 35, 127
1, 376799, Note_on_c, 9, 38, 0
1, 376799, Note_on_c, 9, 35, 0
1, 376800, Note_on_c, 9, 38, 127
1, 376800, Note_on_c, 9, 57, 127
1, 376800, Note_on_c, 9, 36, 127
1, 376826, Note_on_c, 9, 57, 0
1, 376919, Note_on_c, 9, 36, 0
1, 376920, Note_on_c, 9, 35, 127
1, 377039, Note_on_c, 9, 35, 0
1, 377040, Note_on_c, 9, 36, 127
1, 377159, Note_on_c, 9, 36, 0
1, 377160, Note_on_c, 9, 35, 127
1, 377279, Note_on_c, 9, 38, 0
1, 377279, Note_on_c, 9, 35, 0
1, 377280, Note_on_c, 9, 47, 127
1, 377280, Note_on_c, 9, 36, 127
1, 377399, Note_on_c, 9, 36, 0
1, 377400, Note_on_c, 9, 35, 127
1, 377519, Note_on_c, 9, 35, 0
1, 377520, Note_on_c, 9, 36, 127
1, 377639, Note_on_c, 9, 36, 0
1, 377640, Note_on_c, 9, 35, 127
1, 377759, Note_on_c, 9, 47, 0
1, 377759, Note_on_c, 9, 35, 0
1, 377760, Note_on_c, 9, 48, 127
1, 377760, Note_on_c, 9, 36, 127
1, 377879, Note_on_c, 9, 36, 0
1, 377880, Note_on_c, 9, 35, 127
1, 377999, Note_on_c, 9, 35, 0
1, 378000, Note_on_c, 9, 36, 127
1, 378119, Note_on_c, 9, 36, 0
1, 378120, Note_on_c, 9, 35, 127
1, 378239, Note_on_c, 9, 48, 0
1, 378239, Note_on_c, 9, 35, 0
1, 378240, Note_on_c, 9, 38, 127
1, 378240, Note_on_c, 9, 57, 127
1, 378240, Note_on_c, 9, 36, 127
1, 378266, Note_on_c, 9, 57, 0
1, 378359, Note_on_c, 9, 36, 0
1, 378360, Note_on_c, 9, 35, 127
1, 378479, Note_on_c, 9, 35, 0
1, 378480, Note_on_c, 9, 36, 127
1, 378599, Note_on_c, 9, 36, 0
1, 378600, Note_on_c, 9, 35, 127
1, 378719, Note_on_c, 9, 38, 0
1, 378719, Note_on_c, 9, 35, 0
1, 378720, Note_on_c, 9, 38, 127
1, 378720, Note_on_c, 9, 42, 127
1, 378720, Note_on_c, 9, 36, 127
1, 378746, Note_on_c, 9, 42, 0
1, 378839, Note_on_c, 9, 36, 0
1, 378840, Note_on_c, 9, 35, 127
1, 378959, Note_on_c, 9, 35, 0
1, 378960, Note_on_c, 9, 36, 127
1, 379079, Note_on_c, 9, 36, 0
1, 379080, Note_on_c, 9, 35, 127
1, 379199, Note_on_c, 9, 38, 0
1, 379199, Note_on_c, 9, 35, 0
1, 379200, Note_on_c, 9, 38, 127
1, 379200, Note_on_c, 9, 42, 127
1, 379200, Note_on_c, 9, 36, 127
1, 379226, Note_on_c, 9, 42, 0
1, 379319, Note_on_c, 9, 36, 0
1, 379320, Note_on_c, 9, 35, 127
1, 379439, Note_on_c, 9, 35, 0
1, 379440, Note_on_c, 9, 36, 127
1, 379559, Note_on_c, 9, 36, 0
1, 379560, Note_on_c, 9, 35, 127
1, 379679, Note_on_c, 9, 38, 0
1, 379679, Note_on_c, 9, 35, 0
1, 379680, Note_on_c, 9, 38, 127
1, 379680, Note_on_c, 9, 42, 127
1, 379680, Note_on_c, 9, 36, 127
1, 379706, Note_on_c, 9, 42, 0
1, 379799, Note_on_c, 9, 36, 0
1, 379800, Note_on_c, 9, 35, 127
1, 379919, Note_on_c, 9, 35, 0
1, 379920, Note_on_c, 9, 36, 127
1, 380039, Note_on_c, 9, 36, 0
1, 380040, Note_on_c, 9, 35, 127
1, 380159, Note_on_c, 9, 38, 0
1, 380159, Note_on_c, 9, 35, 0
1, 380160, Note_on_c, 9, 38, 127
1, 380160, Note_on_c, 9, 42, 127
1, 380160, Note_on_c, 9, 36, 127
1, 380186, Note_on_c, 9, 42, 0
1, 380279, Note_on_c, 9, 36, 0
1, 380280, Note_on_c, 9, 35, 127
1, 380399, Note_on_c, 9, 35, 0
1, 380400, Note_on_c, 9, 36, 127
1, 380519, Note_on_c, 9, 36, 0
1, 380520, Note_on_c, 9, 35, 127
1, 380639, Note_on_c, 9, 38, 0
1, 380639, Note_on_c, 9, 35, 0
1, 380640, Note_on_c, 9, 38, 127
1, 380640, Note_on_c, 9, 42, 127
1, 380640, Note_on_c, 9, 36, 127
1, 380666, Note_on_c, 9, 42, 0
1, 380759, Note_on_c, 9, 36, 0
1, 380760, Note_on_c, 9, 35, 127
1, 380879, Note_on_c, 9, 35, 0
1, 380880, Note_on_c, 9, 36, 127
1, 380999, Note_on_c, 9, 36, 0
1, 381000, Note_on_c, 9, 35, 127
1, 381119, Note_on_c, 9, 38, 0
1, 381119, Note_on_c, 9, 35, 0
1, 381120, Note_on_c, 9, 38, 127
1, 381120, Note_on_c, 9, 42, 127
1, 381120, Note_on_c, 9, 36, 127
1, 381146, Note_on_c, 9, 42, 0
1, 381239, Note_on_c, 9, 36, 0
1, 381240, Note_on_c, 9, 35, 127
1, 381359, Note_on_c, 9, 35, 0
1, 381360, Note_on_c, 9, 36, 127
1, 381479, Note_on_c, 9, 36, 0
1, 381480, Note_on_c, 9, 35, 127
1, 381599, Note_on_c, 9, 38, 0
1, 381599, Note_on_c, 9, 35, 0
1, 381600, Note_on_c, 9, 38, 127
1, 381600, Note_on_c, 9, 42, 127
1, 381600, Note_on_c, 9, 36, 127
1, 381626, Note_on_c, 9, 42, 0
1, 381719, Note_on_c, 9, 36, 0
1, 381720, Note_on_c, 9, 35, 127
1, 381839, Note_on_c, 9, 35, 0
1, 381840, Note_on_c, 9, 36, 127
1, 381959, Note_on_c, 9, 36, 0
1, 381960, Note_on_c, 9, 35, 127
1, 382079, Note_on_c, 9, 38, 0
1, 382079, Note_on_c, 9, 35, 0
1, 382080, Note_on_c, 9, 38, 127
1, 382080, Note_on_c, 9, 57, 127
1, 382080, Note_on_c, 9, 36, 127
1, 382106, Note_on_c, 9, 57, 0
1, 382199, Note_on_c, 9, 36, 0
1, 382200, Note_on_c, 9, 35, 127
1, 382319, Note_on_c, 9, 35, 0
1, 382320, Note_on_c, 9, 36, 127
1, 382439, Note_on_c, 9, 36, 0
1, 382440, Note_on_c, 9, 35, 127
1, 382559, Note_on_c, 9, 38, 0
1, 382559, Note_on_c, 9, 35, 0
1, 382560, Note_on_c, 9, 38, 127
1, 382560, Note_on_c, 9, 42, 127
1, 382560, Note_on_c, 9, 36, 127
1, 382586, Note_on_c, 9, 42, 0
1, 382679, Note_on_c, 9, 36, 0
1, 382680, Note_on_c, 9, 35, 127
1, 382799, Note_on_c, 9, 35, 0
1, 382800, Note_on_c, 9, 36, 127
1, 382919, Note_on_c, 9, 36, 0
1, 382920, Note_on_c, 9, 35, 127
1, 383039, Note_on_c, 9, 38, 0
1, 383039, Note_on_c, 9, 35, 0
1, 383040, Note_on_c, 9, 38, 127
1, 383040, Note_on_c, 9, 42, 127
1, 383040, Note_on_c, 9, 36, 127
1, 383066, Note_on_c, 9, 42, 0
1, 383159, Note_on_c, 9, 36, 0
1, 383160, Note_on_c, 9, 35, 127
1, 383279, Note_on_c, 9, 35, 0
1, 383280, Note_on_c, 9, 36, 127
1, 383399, Note_on_c, 9, 36, 0
1, 383400, Note_on_c, 9, 35, 127
1, 383519, Note_on_c, 9, 38, 0
1, 383519, Note_on_c, 9, 35, 0
1, 383520, Note_on_c, 9, 38, 127
1, 383520, Note_on_c, 9, 42, 127
1, 383520, Note_on_c, 9, 36, 127
1, 383546, Note_on_c, 9, 42, 0
1, 383639, Note_on_c, 9, 36, 0
1, 383640, Note_on_c, 9, 35, 127
1, 383759, Note_on_c, 9, 35, 0
1, 383760, Note_on_c, 9, 36, 127
1, 383879, Note_on_c, 9, 36, 0
1, 383880, Note_on_c, 9, 35, 127
1, 383999, Note_on_c, 9, 38, 0
1, 383999, Note_on_c, 9, 35, 0
1, 384000, Note_on_c, 9, 38, 127
1, 384000, Note_on_c, 9, 42, 127
1, 384000, Note_on_c, 9, 36, 127
1, 384026, Note_on_c, 9, 42, 0
1, 384119, Note_on_c, 9, 36, 0
1, 384120, Note_on_c, 9, 35, 127
1, 384239, Note_on_c, 9, 35, 0
1, 384240, Note_on_c, 9, 36, 127
1, 384359, Note_on_c, 9, 36, 0
1, 384360, Note_on_c, 9, 35, 127
1, 384479, Note_on_c, 9, 38, 0
1, 384479, Note_on_c, 9, 35, 0
1, 384480, Note_on_c, 9, 38, 127
1, 384480, Note_on_c, 9, 42, 127
1, 384480, Note_on_c, 9, 36, 127
1, 384506, Note_on_c, 9, 42, 0
1, 384599, Note_on_c, 9, 36, 0
1, 384600, Note_on_c, 9, 35, 127
1, 384719, Note_on_c, 9, 35, 0
1, 384720, Note_on_c, 9, 36, 127
1, 384839, Note_on_c, 9, 36, 0
1, 384840, Note_on_c, 9, 35, 127
1, 384959, Note_on_c, 9, 38, 0
1, 384959, Note_on_c, 9, 35, 0
1, 384960, Note_on_c, 9, 38, 127
1, 384960, Note_on_c, 9, 42, 127
1, 384960, Note_on_c, 9, 36, 127
1, 384986, Note_on_c, 9, 42, 0
1, 385079, Note_on_c, 9, 36, 0
1, 385080, Note_on_c, 9, 35, 127
1, 385199, Note_on_c, 9, 35, 0
1, 385200, Note_on_c, 9, 36, 127
1, 385319, Note_on_c, 9, 36, 0
1, 385320, Note_on_c, 9, 35, 127
1, 385439, Note_on_c, 9, 38, 0
1, 385439, Note_on_c, 9, 35, 0
1, 385440, Note_on_c, 9, 38, 127
1, 385440, Note_on_c, 9, 57, 127
1, 385440, Note_on_c, 9, 36, 127
1, 385466, Note_on_c, 9, 57, 0
1, 385559, Note_on_c, 9, 36, 0
1, 385560, Note_on_c, 9, 35, 127
1, 385679, Note_on_c, 9, 35, 0
1, 385680, Note_on_c, 9, 36, 127
1, 385799, Note_on_c, 9, 36, 0
1, 385800, Note_on_c, 9, 35, 127
1, 385919, Note_on_c, 9, 38, 0
1, 385919, Note_on_c, 9, 35, 0
1, 385920, Note_on_c, 9, 38, 127
1, 385920, Note_on_c, 9, 57, 127
1, 385920, Note_on_c, 9, 36, 127
1, 385946, Note_on_c, 9, 57, 0
1, 386039, Note_on_c, 9, 36, 0
1, 386040, Note_on_c, 9, 35, 127
1, 386159, Note_on_c, 9, 35, 0
1, 386160, Note_on_c, 9, 36, 127
1, 386279, Note_on_c, 9, 36, 0
1, 386280, Note_on_c, 9, 35, 127
1, 386399, Note_on_c, 9, 38, 0
1, 386399, Note_on_c, 9, 35, 0
1, 386400, Note_on_c, 9, 38, 127
1, 386400, Note_on_c, 9, 42, 127
1, 386400, Note_on_c, 9, 36, 127
1, 386426, Note_on_c, 9, 42, 0
1, 386519, Note_on_c, 9, 36, 0
1, 386520, Note_on_c, 9, 35, 127
1, 386639, Note_on_c, 9, 35, 0
1, 386640, Note_on_c, 9, 36, 127
1, 386759, Note_on_c, 9, 36, 0
1, 386760, Note_on_c, 9, 35, 127
1, 386879, Note_on_c, 9, 38, 0
1, 386879, Note_on_c, 9, 35, 0
1, 386880, Note_on_c, 9, 38, 127
1, 386880, Note_on_c, 9, 42, 127
1, 386880, Note_on_c, 9, 36, 127
1, 386906, Note_on_c, 9, 42, 0
1, 386999, Note_on_c, 9, 36, 0
1, 387000, Note_on_c, 9, 35, 127
1, 387119, Note_on_c, 9, 35, 0
1, 387120, Note_on_c, 9, 36, 127
1, 387239, Note_on_c, 9, 36, 0
1, 387240, Note_on_c, 9, 35, 127
1, 387359, Note_on_c, 9, 38, 0
1, 387359, Note_on_c, 9, 35, 0
1, 387360, Note_on_c, 9, 38, 127
1, 387360, Note_on_c, 9, 42, 127
1, 387360, Note_on_c, 9, 36, 127
1, 387386, Note_on_c, 9, 42, 0
1, 387479, Note_on_c, 9, 36, 0
1, 387480, Note_on_c, 9, 35, 127
1, 387599, Note_on_c, 9, 35, 0
1, 387600, Note_on_c, 9, 36, 127
1, 387719, Note_on_c, 9, 36, 0
1, 387720, Note_on_c, 9, 35, 127
1, 387839, Note_on_c, 9, 38, 0
1, 387839, Note_on_c, 9, 35, 0
1, 387840, Note_on_c, 9, 38, 127
1, 387840, Note_on_c, 9, 42, 127
1, 387840, Note_on_c, 9, 36, 127
1, 387866, Note_on_c, 9, 42, 0
1, 387959, Note_on_c, 9, 36, 0
1, 387960, Note_on_c, 9, 35, 127
1, 388079, Note_on_c, 9, 35, 0
1, 388080, Note_on_c, 9, 36, 127
1, 388199, Note_on_c, 9, 36, 0
1, 388200, Note_on_c, 9, 35, 127
1, 388319, Note_on_c, 9, 38, 0
1, 388319, Note_on_c, 9, 35, 0
1, 388320, Note_on_c, 9, 38, 127
1, 388320, Note_on_c, 9, 42, 127
1, 388320, Note_on_c, 9, 36, 127
1, 388346, Note_on_c, 9, 42, 0
1, 388439, Note_on_c, 9, 36, 0
1, 388440, Note_on_c, 9, 35, 127
1, 388559, Note_on_c, 9, 35, 0
1, 388560, Note_on_c, 9, 36, 127
1, 388679, Note_on_c, 9, 36, 0
1, 388680, Note_on_c, 9, 35, 127
1, 388799, Note_on_c, 9, 38, 0
1, 388799, Note_on_c, 9, 35, 0
1, 388800, Note_on_c, 9, 38, 127
1, 388800, Note_on_c, 9, 42, 127
1, 388800, Note_on_c, 9, 36, 127
1, 388826, Note_on_c, 9, 42, 0
1, 388919, Note_on_c, 9, 36, 0
1, 388920, Note_on_c, 9, 35, 127
1, 389039, Note_on_c, 9, 35, 0
1, 389040, Note_on_c, 9, 36, 127
1, 389159, Note_on_c, 9, 36, 0
1, 389160, Note_on_c, 9, 35, 127
1, 389279, Note_on_c, 9, 38, 0
1, 389279, Note_on_c, 9, 35, 0
1, 389280, Note_on_c, 9, 38, 127
1, 389280, Note_on_c, 9, 42, 127
1, 389280, Note_on_c, 9, 36, 127
1, 389306, Note_on_c, 9, 42, 0
1, 389399, Note_on_c, 9, 36, 0
1, 389400, Note_on_c, 9, 35, 127
1, 389519, Note_on_c, 9, 35, 0
1, 389520, Note_on_c, 9, 36, 127
1, 389639, Note_on_c, 9, 36, 0
1, 389640, Note_on_c, 9, 35, 127
1, 389759, Note_on_c, 9, 38, 0
1, 389759, Note_on_c, 9, 35, 0
1, 389760, Note_on_c, 9, 38, 127
1, 389760, Note_on_c, 9, 36, 127
1, 389879, Note_on_c, 9, 38, 0
1, 389879, Note_on_c, 9, 36, 0
1, 389880, Note_on_c, 9, 38, 127
1, 389880, Note_on_c, 9, 35, 127
1, 389999, Note_on_c, 9, 38, 0
1, 389999, Note_on_c, 9, 35, 0
1, 390000, Note_on_c, 9, 38, 127
1, 390000, Note_on_c, 9, 36, 127
1, 390119, Note_on_c, 9, 38, 0
1, 390119, Note_on_c, 9, 36, 0
1, 390120, Note_on_c, 9, 38, 127
1, 390120, Note_on_c, 9, 35, 127
1, 390239, Note_on_c, 9, 38, 0
1, 390239, Note_on_c, 9, 35, 0
1, 390240, Note_on_c, 9, 38, 127
1, 390240, Note_on_c, 9, 36, 127
1, 390359, Note_on_c, 9, 38, 0
1, 390359, Note_on_c, 9, 36, 0
1, 390360, Note_on_c, 9, 38, 127
1, 390360, Note_on_c, 9, 35, 127
1, 390479, Note_on_c, 9, 38, 0
1, 390479, Note_on_c, 9, 35, 0
1, 390480, Note_on_c, 9, 38, 127
1, 390480, Note_on_c, 9, 36, 127
1, 390599, Note_on_c, 9, 38, 0
1, 390599, Note_on_c, 9, 36, 0
1, 390600, Note_on_c, 9, 38, 127
1, 390600, Note_on_c, 9, 35, 127
1, 390719, Note_on_c, 9, 38, 0
1, 390719, Note_on_c, 9, 35, 0
1, 390720, Note_on_c, 9, 38, 127
1, 390720, Note_on_c, 9, 36, 127
1, 390839, Note_on_c, 9, 38, 0
1, 390839, Note_on_c, 9, 36, 0
1, 390840, Note_on_c, 9, 38, 127
1, 390840, Note_on_c, 9, 35, 127
1, 390959, Note_on_c, 9, 38, 0
1, 390959, Note_on_c, 9, 35, 0
1, 390960, Note_on_c, 9, 38, 127
1, 390960, Note_on_c, 9, 36, 127
1, 391079, Note_on_c, 9, 38, 0
1, 391079, Note_on_c, 9, 36, 0
1, 391080, Note_on_c, 9, 38, 127
1, 391080, Note_on_c, 9, 35, 127
1, 391199, Note_on_c, 9, 38, 0
1, 391199, Note_on_c, 9, 35, 0
1, 391200, Note_on_c, 9, 38, 127
1, 391200, Note_on_c, 9, 36, 127
1, 391319, Note_on_c, 9, 38, 0
1, 391319, Note_on_c, 9, 36, 0
1, 391320, Note_on_c, 9, 38, 127
1, 391320, Note_on_c, 9, 35, 127
1, 391439, Note_on_c, 9, 38, 0
1, 391439, Note_on_c, 9, 35, 0
1, 391440, Note_on_c, 9, 38, 127
1, 391440, Note_on_c, 9, 36, 127
1, 391559, Note_on_c, 9, 38, 0
1, 391559, Note_on_c, 9, 36, 0
1, 391560, Note_on_c, 9, 38, 127
1, 391560, Note_on_c, 9, 35, 127
1, 391679, Note_on_c, 9, 38, 0
1, 391679, Note_on_c, 9, 35, 0
1, 391680, Note_on_c, 9, 38, 127
1, 391680, Note_on_c, 9, 36, 127
1, 391799, Note_on_c, 9, 38, 0
1, 391799, Note_on_c, 9, 36, 0
1, 391800, Note_on_c, 9, 38, 127
1, 391800, Note_on_c, 9, 35, 127
1, 391919, Note_on_c, 9, 38, 0
1, 391919, Note_on_c, 9, 35, 0
1, 391920, Note_on_c, 9, 38, 127
1, 391920, Note_on_c, 9, 36, 127
1, 392039, Note_on_c, 9, 38, 0
1, 392039, Note_on_c, 9, 36, 0
1, 392040, Note_on_c, 9, 38, 127
1, 392040, Note_on_c, 9, 35, 127
1, 392159, Note_on_c, 9, 38, 0
1, 392159, Note_on_c, 9, 35, 0
1, 392160, Note_on_c, 9, 38, 127
1, 392160, Note_on_c, 9, 36, 127
1, 392279, Note_on_c, 9, 38, 0
1, 392279, Note_on_c, 9, 36, 0
1, 392280, Note_on_c, 9, 38, 127
1, 392280, Note_on_c, 9, 35, 127
1, 392399, Note_on_c, 9, 38, 0
1, 392399, Note_on_c, 9, 35, 0
1, 392400, Note_on_c, 9, 38, 127
1, 392400, Note_on_c, 9, 36, 127
1, 392519, Note_on_c, 9, 38, 0
1, 392519, Note_on_c, 9, 36, 0
1, 392520, Note_on_c, 9, 38, 127
1, 392520, Note_on_c, 9, 35, 127
1, 392639, Note_on_c, 9, 38, 0
1, 392639, Note_on_c, 9, 35, 0
1, 392640, Note_on_c, 9, 38, 127
1, 392640, Note_on_c, 9, 36, 127
1, 392759, Note_on_c, 9, 36, 0
1, 392760, Note_on_c, 9, 35, 127
1, 392879, Note_on_c, 9, 38, 0
1, 392879, Note_on_c, 9, 35, 0
1, 392880, Note_on_c, 9, 38, 127
1, 392880, Note_on_c, 9, 36, 127
1, 392999, Note_on_c, 9, 36, 0
1, 393000, Note_on_c, 9, 35, 127
1, 393119, Note_on_c, 9, 38, 0
1, 393119, Note_on_c, 9, 35, 0
1, 393120, Note_on_c, 9, 38, 127
1, 393120, Note_on_c, 9, 57, 127
1, 393120, Note_on_c, 9, 36, 127
1, 393146, Note_on_c, 9, 57, 0
1, 393239, Note_on_c, 9, 36, 0
1, 393240, Note_on_c, 9, 35, 127
1, 393359, Note_on_c, 9, 35, 0
1, 393360, Note_on_c, 9, 36, 127
1, 393479, Note_on_c, 9, 36, 0
1, 393480, Note_on_c, 9, 35, 127
1, 393599, Note_on_c, 9, 38, 0
1, 393599, Note_on_c, 9, 35, 0
1, 393600, Note_on_c, 9, 38, 127
1, 393600, Note_on_c, 9, 57, 127
1, 393600, Note_on_c, 9, 36, 127
1, 393626, Note_on_c, 9, 57, 0
1, 393719, Note_on_c, 9, 36, 0
1, 393720, Note_on_c, 9, 35, 127
1, 393839, Note_on_c, 9, 35, 0
1, 393840, Note_on_c, 9, 36, 127
1, 393959, Note_on_c, 9, 36, 0
1, 393960, Note_on_c, 9, 35, 127
1, 394079, Note_on_c, 9, 38, 0
1, 394079, Note_on_c, 9, 35, 0
1, 394080, Note_on_c, 9, 38, 127
1, 394080, Note_on_c, 9, 42, 127
1, 394080, Note_on_c, 9, 36, 127
1, 394106, Note_on_c, 9, 42, 0
1, 394199, Note_on_c, 9, 36, 0
1, 394200, Note_on_c, 9, 35, 127
1, 394319, Note_on_c, 9, 35, 0
1, 394320, Note_on_c, 9, 36, 127
1, 394439, Note_on_c, 9, 36, 0
1, 394440, Note_on_c, 9, 35, 127
1, 394559, Note_on_c, 9, 38, 0
1, 394559, Note_on_c, 9, 35, 0
1, 394560, Note_on_c, 9, 38, 127
1, 394560, Note_on_c, 9, 42, 127
1, 394560, Note_on_c, 9, 36, 127
1, 394586, Note_on_c, 9, 42, 0
1, 394679, Note_on_c, 9, 36, 0
1, 394680, Note_on_c, 9, 35, 127
1, 394799, Note_on_c, 9, 35, 0
1, 394800, Note_on_c, 9, 36, 127
1, 394919, Note_on_c, 9, 36, 0
1, 394920, Note_on_c, 9, 35, 127
1, 395039, Note_on_c, 9, 38, 0
1, 395039, Note_on_c, 9, 35, 0
1, 395040, Note_on_c, 9, 38, 127
1, 395040, Note_on_c, 9, 42, 127
1, 395040, Note_on_c, 9, 36, 127
1, 395066, Note_on_c, 9, 42, 0
1, 395159, Note_on_c, 9, 36, 0
1, 395160, Note_on_c, 9, 35, 127
1, 395279, Note_on_c, 9, 35, 0
1, 395280, Note_on_c, 9, 36, 127
1, 395399, Note_on_c, 9, 36, 0
1, 395400, Note_on_c, 9, 35, 127
1, 395519, Note_on_c, 9, 38, 0
1, 395519, Note_on_c, 9, 35, 0
1, 395520, Note_on_c, 9, 38, 127
1, 395520, Note_on_c, 9, 42, 127
1, 395520, Note_on_c, 9, 36, 127
1, 395546, Note_on_c, 9, 42, 0
1, 395639, Note_on_c, 9, 36, 0
1, 395640, Note_on_c, 9, 35, 127
1, 395759, Note_on_c, 9, 35, 0
1, 395760, Note_on_c, 9, 36, 127
1, 395879, Note_on_c, 9, 36, 0
1, 395880, Note_on_c, 9, 35, 127
1, 395999, Note_on_c, 9, 38, 0
1, 395999, Note_on_c, 9, 35, 0
1, 396000, Note_on_c, 9, 38, 127
1, 396000, Note_on_c, 9, 42, 127
1, 396000, Note_on_c, 9, 36, 127
1, 396026, Note_on_c, 9, 42, 0
1, 396119, Note_on_c, 9, 36, 0
1, 396120, Note_on_c, 9, 35, 127
1, 396239, Note_on_c, 9, 35, 0
1, 396240, Note_on_c, 9, 36, 127
1, 396359, Note_on_c, 9, 36, 0
1, 396360, Note_on_c, 9, 35, 127
1, 396479, Note_on_c, 9, 38, 0
1, 396479, Note_on_c, 9, 35, 0
1, 396480, Note_on_c, 9, 38, 127
1, 396480, Note_on_c, 9, 42, 127
1, 396480, Note_on_c, 9, 36, 127
1, 396506, Note_on_c, 9, 42, 0
1, 396599, Note_on_c, 9, 36, 0
1, 396600, Note_on_c, 9, 35, 127
1, 396719, Note_on_c, 9, 35, 0
1, 396720, Note_on_c, 9, 36, 127
1, 396839, Note_on_c, 9, 36, 0
1, 396840, Note_on_c, 9, 35, 127
1, 396959, Note_on_c, 9, 38, 0
1, 396959, Note_on_c, 9, 35, 0
1, 396960, Note_on_c, 9, 38, 127
1, 396960, Note_on_c, 9, 42, 127
1, 396960, Note_on_c, 9, 36, 127
1, 396986, Note_on_c, 9, 42, 0
1, 397079, Note_on_c, 9, 36, 0
1, 397080, Note_on_c, 9, 35, 127
1, 397199, Note_on_c, 9, 35, 0
1, 397200, Note_on_c, 9, 36, 127
1, 397319, Note_on_c, 9, 36, 0
1, 397320, Note_on_c, 9, 35, 127
1, 397439, Note_on_c, 9, 38, 0
1, 397439, Note_on_c, 9, 35, 0
1, 397440, Note_on_c, 9, 38, 127
1, 397440, Note_on_c, 9, 57, 127
1, 397440, Note_on_c, 9, 36, 127
1, 397466, Note_on_c, 9, 57, 0
1, 397559, Note_on_c, 9, 36, 0
1, 397560, Note_on_c, 9, 35, 127
1, 397679, Note_on_c, 9, 35, 0
1, 397680, Note_on_c, 9, 36, 127
1, 397799, Note_on_c, 9, 36, 0
1, 397800, Note_on_c, 9, 35, 127
1, 397919, Note_on_c, 9, 38, 0
1, 397919, Note_on_c, 9, 35, 0
1, 397920, Note_on_c, 9, 38, 127
1, 397920, Note_on_c, 9, 42, 127
1, 397920, Note_on_c, 9, 36, 127
1, 397946, Note_on_c, 9, 42, 0
1, 398039, Note_on_c, 9, 36, 0
1, 398040, Note_on_c, 9, 35, 127
1, 398159, Note_on_c, 9, 35, 0
1, 398160, Note_on_c, 9, 36, 127
1, 398279, Note_on_c, 9, 36, 0
1, 398280, Note_on_c, 9, 35, 127
1, 398399, Note_on_c, 9, 38, 0
1, 398399, Note_on_c, 9, 35, 0
1, 398400, Note_on_c, 9, 38, 127
1, 398400, Note_on_c, 9, 42, 127
1, 398400, Note_on_c, 9, 36, 127
1, 398426, Note_on_c, 9, 42, 0
1, 398519, Note_on_c, 9, 36, 0
1, 398520, Note_on_c, 9, 35, 127
1, 398639, Note_on_c, 9, 35, 0
1, 398640, Note_on_c, 9, 36, 127
1, 398759, Note_on_c, 9, 36, 0
1, 398760, Note_on_c, 9, 35, 127
1, 398879, Note_on_c, 9, 38, 0
1, 398879, Note_on_c, 9, 35, 0
1, 398880, Note_on_c, 9, 38, 127
1, 398880, Note_on_c, 9, 42, 127
1, 398880, Note_on_c, 9, 36, 127
1, 398906, Note_on_c, 9, 42, 0
1, 398999, Note_on_c, 9, 36, 0
1, 399000, Note_on_c, 9, 35, 127
1, 399119, Note_on_c, 9, 35, 0
1, 399120, Note_on_c, 9, 36, 127
1, 399239, Note_on_c, 9, 36, 0
1, 399240, Note_on_c, 9, 35, 127
1, 399359, Note_on_c, 9, 38, 0
1, 399359, Note_on_c, 9, 35, 0
1, 399360, Note_on_c, 9, 38, 127
1, 399360, Note_on_c, 9, 42, 127
1, 399360, Note_on_c, 9, 36, 127
1, 399386, Note_on_c, 9, 42, 0
1, 399479, Note_on_c, 9, 36, 0
1, 399480, Note_on_c, 9, 35, 127
1, 399599, Note_on_c, 9, 35, 0
1, 399600, Note_on_c, 9, 36, 127
1, 399719, Note_on_c, 9, 36, 0
1, 399720, Note_on_c, 9, 35, 127
1, 399839, Note_on_c, 9, 38, 0
1, 399839, Note_on_c, 9, 35, 0
1, 399840, Note_on_c, 9, 38, 127
1, 399840, Note_on_c, 9, 42, 127
1, 399840, Note_on_c, 9, 36, 127
1, 399866, Note_on_c, 9, 42, 0
1, 399959, Note_on_c, 9, 36, 0
1, 399960, Note_on_c, 9, 35, 127
1, 400079, Note_on_c, 9, 35, 0
1, 400080, Note_on_c, 9, 36, 127
1, 400199, Note_on_c, 9, 36, 0
1, 400200, Note_on_c, 9, 35, 127
1, 400319, Note_on_c, 9, 38, 0
1, 400319, Note_on_c, 9, 35, 0
1, 400320, Note_on_c, 9, 38, 127
1, 400320, Note_on_c, 9, 42, 127
1, 400320, Note_on_c, 9, 36, 127
1, 400346, Note_on_c, 9, 42, 0
1, 400439, Note_on_c, 9, 36, 0
1, 400440, Note_on_c, 9, 35, 127
1, 400559, Note_on_c, 9, 35, 0
1, 400560, Note_on_c, 9, 36, 127
1, 400679, Note_on_c, 9, 36, 0
1, 400680, Note_on_c, 9, 35, 127
1, 400799, Note_on_c, 9, 38, 0
1, 400799, Note_on_c, 9, 35, 0
1, 400800, Note_on_c, 9, 38, 127
1, 400800, Note_on_c, 9, 57, 127
1, 400800, Note_on_c, 9, 36, 127
1, 400826, Note_on_c, 9, 57, 0
1, 400919, Note_on_c, 9, 36, 0
1, 400920, Note_on_c, 9, 35, 127
1, 401039, Note_on_c, 9, 35, 0
1, 401040, Note_on_c, 9, 36, 127
1, 401159, Note_on_c, 9, 36, 0
1, 401160, Note_on_c, 9, 35, 127
1, 401279, Note_on_c, 9, 38, 0
1, 401279, Note_on_c, 9, 35, 0
1, 401280, Note_on_c, 9, 38, 127
1, 401280, Note_on_c, 9, 57, 127
1, 401280, Note_on_c, 9, 36, 127
1, 401306, Note_on_c, 9, 57, 0
1, 401399, Note_on_c, 9, 36, 0
1, 401400, Note_on_c, 9, 35, 127
1, 401519, Note_on_c, 9, 35, 0
1, 401520, Note_on_c, 9, 36, 127
1, 401639, Note_on_c, 9, 36, 0
1, 401640, Note_on_c, 9, 35, 127
1, 401759, Note_on_c, 9, 38, 0
1, 401759, Note_on_c, 9, 35, 0
1, 401760, Note_on_c, 9, 38, 127
1, 401760, Note_on_c, 9, 42, 127
1, 401760, Note_on_c, 9, 36, 127
1, 401786, Note_on_c, 9, 42, 0
1, 401879, Note_on_c, 9, 36, 0
1, 401880, Note_on_c, 9, 35, 127
1, 401999, Note_on_c, 9, 35, 0
1, 402000, Note_on_c, 9, 36, 127
1, 402119, Note_on_c, 9, 36, 0
1, 402120, Note_on_c, 9, 35, 127
1, 402239, Note_on_c, 9, 38, 0
1, 402239, Note_on_c, 9, 35, 0
1, 402240, Note_on_c, 9, 38, 127
1, 402240, Note_on_c, 9, 42, 127
1, 402240, Note_on_c, 9, 36, 127
1, 402266, Note_on_c, 9, 42, 0
1, 402359, Note_on_c, 9, 36, 0
1, 402360, Note_on_c, 9, 35, 127
1, 402479, Note_on_c, 9, 35, 0
1, 402480, Note_on_c, 9, 36, 127
1, 402599, Note_on_c, 9, 36, 0
1, 402600, Note_on_c, 9, 35, 127
1, 402719, Note_on_c, 9, 38, 0
1, 402719, Note_on_c, 9, 35, 0
1, 402720, Note_on_c, 9, 38, 127
1, 402720, Note_on_c, 9, 42, 127
1, 402720, Note_on_c, 9, 36, 127
1, 402746, Note_on_c, 9, 42, 0
1, 402839, Note_on_c, 9, 36, 0
1, 402840, Note_on_c, 9, 35, 127
1, 402959, Note_on_c, 9, 35, 0
1, 402960, Note_on_c, 9, 36, 127
1, 403079, Note_on_c, 9, 36, 0
1, 403080, Note_on_c, 9, 35, 127
1, 403199, Note_on_c, 9, 38, 0
1, 403199, Note_on_c, 9, 35, 0
1, 403200, Note_on_c, 9, 38, 127
1, 403200, Note_on_c, 9, 42, 127
1, 403200, Note_on_c, 9, 36, 127
1, 403226, Note_on_c, 9, 42, 0
1, 403319, Note_on_c, 9, 36, 0
1, 403320, Note_on_c, 9, 35, 127
1, 403439, Note_on_c, 9, 35, 0
1, 403440, Note_on_c, 9, 36, 127
1, 403559, Note_on_c, 9, 36, 0
1, 403560, Note_on_c, 9, 35, 127
1, 403679, Note_on_c, 9, 38, 0
1, 403679, Note_on_c, 9, 35, 0
1, 403680, Note_on_c, 9, 38, 127
1, 403680, Note_on_c, 9, 42, 127
1, 403680, Note_on_c, 9, 36, 127
1, 403706, Note_on_c, 9, 42, 0
1, 403799, Note_on_c, 9, 36, 0
1, 403800, Note_on_c, 9, 35, 127
1, 403919, Note_on_c, 9, 35, 0
1, 403920, Note_on_c, 9, 36, 127
1, 404039, Note_on_c, 9, 36, 0
1, 404040, Note_on_c, 9, 35, 127
1, 404159, Note_on_c, 9, 38, 0
1, 404159, Note_on_c, 9, 35, 0
1, 404160, Note_on_c, 9, 38, 127
1, 404160, Note_on_c, 9, 42, 127
1, 404160, Note_on_c, 9, 36, 127
1, 404186, Note_on_c, 9, 42, 0
1, 404279, Note_on_c, 9, 36, 0
1, 404280, Note_on_c, 9, 35, 127
1, 404399, Note_on_c, 9, 35, 0
1, 404400, Note_on_c, 9, 36, 127
1, 404519, Note_on_c, 9, 36, 0
1, 404520, Note_on_c, 9, 35, 127
1, 404639, Note_on_c, 9, 38, 0
1, 404639, Note_on_c, 9, 35, 0
1, 404640, Note_on_c, 9, 38, 127
1, 404640, Note_on_c, 9, 42, 127
1, 404640, Note_on_c, 9, 36, 127
1, 404666, Note_on_c, 9, 42, 0
1, 404759, Note_on_c, 9, 36, 0
1, 404760, Note_on_c, 9, 35, 127
1, 404879, Note_on_c, 9, 35, 0
1, 404880, Note_on_c, 9, 36, 127
1, 404999, Note_on_c, 9, 36, 0
1, 405000, Note_on_c, 9, 35, 127
1, 405119, Note_on_c, 9, 38, 0
1, 405119, Note_on_c, 9, 35, 0
1, 405120, Note_on_c, 9, 38, 127
1, 405120, Note_on_c, 9, 57, 127
1, 405120, Note_on_c, 9, 36, 127
1, 405146, Note_on_c, 9, 57, 0
1, 405239, Note_on_c, 9, 36, 0
1, 405240, Note_on_c, 9, 35, 127
1, 405359, Note_on_c, 9, 35, 0
1, 405360, Note_on_c, 9, 36, 127
1, 405479, Note_on_c, 9, 36, 0
1, 405480, Note_on_c, 9, 35, 127
1, 405599, Note_on_c, 9, 38, 0
1, 405599, Note_on_c, 9, 35, 0
1, 405600, Note_on_c, 9, 38, 127
1, 405600, Note_on_c, 9, 57, 127
1, 405600, Note_on_c, 9, 36, 127
1, 405626, Note_on_c, 9, 57, 0
1, 405719, Note_on_c, 9, 36, 0
1, 405720, Note_on_c, 9, 35, 127
1, 405839, Note_on_c, 9, 35, 0
1, 405840, Note_on_c, 9, 36, 127
1, 405959, Note_on_c, 9, 36, 0
1, 405960, Note_on_c, 9, 35, 127
1, 406079, Note_on_c, 9, 38, 0
1, 406079, Note_on_c, 9, 35, 0
1, 406080, Note_on_c, 9, 38, 127
1, 406080, Note_on_c, 9, 57, 127
1, 406080, Note_on_c, 9, 36, 127
1, 406106, Note_on_c, 9, 57, 0
1, 406199, Note_on_c, 9, 36, 0
1, 406200, Note_on_c, 9, 35, 127
1, 406319, Note_on_c, 9, 35, 0
1, 406320, Note_on_c, 9, 36, 127
1, 406439, Note_on_c, 9, 36, 0
1, 406440, Note_on_c, 9, 35, 127
1, 406559, Note_on_c, 9, 38, 0
1, 406559, Note_on_c, 9, 35, 0
1, 406560, Note_on_c, 9, 38, 127
1, 406560, Note_on_c, 9, 57, 127
1, 406560, Note_on_c, 9, 36, 127
1, 406586, Note_on_c, 9, 57, 0
1, 406679, Note_on_c, 9, 36, 0
1, 406680, Note_on_c, 9, 35, 127
1, 406799, Note_on_c, 9, 35, 0
1, 406800, Note_on_c, 9, 36, 127
1, 406919, Note_on_c, 9, 36, 0
1, 406920, Note_on_c, 9, 35, 127
1, 407039, Note_on_c, 9, 38, 0
1, 407039, Note_on_c, 9, 35, 0
1, 407040, End_track
0, 0, End_of_file
