0, 0, Header, 1, 1, 480
1, 0, Start_track
1, 0, Title_t, "Drumset"
1, 0, Time_signature, 4, 2, 24, 8
1, 0, Key_signature, 0, "major"
1, 0, Tempo, 750000
1, 0, Control_c, 9, 121, 0
1, 0, Program_c, 9, 0
1, 0, Control_c, 9, 7, 100
1, 0, Control_c, 9, 10, 64
1, 0, Control_c, 9, 91, 0
1, 0, Control_c, 9, 93, 0
1, 0, MIDI_port, 0
1, 0, Note_on_c, 9, 41, 110
1, 0, Note_on_c, 9, 40, 110
1, 0, Note_on_c, 9, 55, 110
1, 0, Note_on_c, 9, 44, 110
1, 14, Note_on_c, 9, 55, 0
1, 14, Note_on_c, 9, 44, 0
1, 479, Note_on_c, 9, 41, 0
1, 479, Note_on_c, 9, 40, 0
1, 1920, Note_on_c, 9, 41, 110
1, 1920, Note_on_c, 9, 40, 110
1, 1920, Note_on_c, 9, 55, 110
1, 1920, Note_on_c, 9, 44, 110
1, 1934, Note_on_c, 9, 55, 0
1, 1934, Note_on_c, 9, 44, 0
1, 2399, Note_on_c, 9, 41, 0
1, 2399, Note_on_c, 9, 40, 0
1, 3840, Note_on_c, 9, 41, 110
1, 3840, Note_on_c, 9, 40, 110
1, 3840, Note_on_c, 9, 55, 110
1, 3840, Note_on_c, 9, 44, 110
1, 3854, Note_on_c, 9, 55, 0
1, 3854, Note_on_c, 9, 44, 0
1, 4319, Note_on_c, 9, 41, 0
1, 4319, Note_on_c, 9, 40, 0
1, 5760, Note_on_c, 9, 41, 110
1, 5760, Note_on_c, 9, 40, 110
1, 5760, Note_on_c, 9, 55, 110
1, 5760, Note_on_c, 9, 44, 110
1, 5774, Note_on_c, 9, 55, 0
1, 5774, Note_on_c, 9, 44, 0
1, 6239, Note_on_c, 9, 41, 0
1, 6239, Note_on_c, 9, 40, 0
1, 7680, Note_on_c, 9, 41, 110
1, 7680, Note_on_c, 9, 40, 110
1, 7680, Note_on_c, 9, 55, 110
1, 7680, Note_on_c, 9, 44, 110
1, 7694, Note_on_c, 9, 55, 0
1, 7694, Note_on_c, 9, 44, 0
1, 8159, Note_on_c, 9, 41, 0
1, 8159, Note_on_c, 9, 40, 0
1, 9600, Note_on_c, 9, 41, 110
1, 9600, Note_on_c, 9, 40, 110
1, 9600, Note_on_c, 9, 55, 110
1, 9600, Note_on_c, 9, 44, 110
1, 9614, Note_on_c, 9, 55, 0
1, 9614, Note_on_c, 9, 44, 0
1, 10079, Note_on_c, 9, 41, 0
1, 10079, Note_on_c, 9, 40, 0
1, 11520, Note_on_c, 9, 41, 110
1, 11520, Note_on_c, 9, 40, 110
1, 11520, Note_on_c, 9, 55, 110
1, 11520, Note_on_c, 9, 44, 110
1, 11534, Note_on_c, 9, 55, 0
1, 11534, Note_on_c, 9, 44, 0
1, 11999, Note_on_c, 9, 41, 0
1, 11999, Note_on_c, 9, 40, 0
1, 13440, Note_on_c, 9, 41, 110
1, 13440, Note_on_c, 9, 40, 110
1, 13440, Note_on_c, 9, 55, 110
1, 13440, Note_on_c, 9, 44, 110
1, 13454, Note_on_c, 9, 55, 0
1, 13454, Note_on_c, 9, 44, 0
1, 13493, Tempo, 759494
1, 13548, Tempo, 769231
1, 13603, Tempo, 779221
1, 13658, Tempo, 789474
1, 13713, Tempo, 800000
1, 13768, Tempo, 810811
1, 13823, Tempo, 821918
1, 13878, Tempo, 833333
1, 13919, Note_on_c, 9, 41, 0
1, 13919, Note_on_c, 9, 40, 0
1, 13933, Tempo, 845070
1, 13988, Tempo, 857143
1, 14043, Tempo, 869565
1, 14098, Tempo, 882353
1, 14153, Tempo, 895522
1, 14208, Tempo, 909091
1, 14263, Tempo, 923077
1, 14318, Tempo, 937500
1, 14373, Tempo, 952381
1, 14400, Note_on_c, 9, 41, 110
1, 14400, Note_on_c, 9, 40, 110
1, 14400, Note_on_c, 9, 55, 110
1, 14400, Note_on_c, 9, 44, 110
1, 14411, Note_on_c, 9, 55, 0
1, 14411, Note_on_c, 9, 44, 0
1, 14425, Tempo, 967742
1, 14480, Tempo, 983607
1, 14535, Tempo, 1000000
1, 14590, Tempo, 1016949
1, 14645, Tempo, 1034483
1, 14700, Tempo, 1052632
1, 14755, Tempo, 1071429
1, 14810, Tempo, 1090909
1, 14865, Tempo, 1111111
1, 14879, Note_on_c, 9, 41, 0
1, 14879, Note_on_c, 9, 40, 0
1, 14920, Tempo, 1132075
1, 14975, Tempo, 1153846
1, 15030, Tempo, 1176471
1, 15085, Tempo, 1200000
1, 15140, Tempo, 1224490
1, 15195, Tempo, 1250000
1, 15250, Tempo, 1276596
1, 15305, Tempo, 1304348
1, 15360, Tempo, 1333333
1, 62280, Note_on_c, 9, 41, 110
1, 62280, Note_on_c, 9, 55, 110
1, 62281, Note_on_c, 9, 55, 0
1, 62399, Note_on_c, 9, 41, 0
1, 62400, Tempo, 250000
1, 62640, Note_on_c, 9, 41, 110
1, 62640, Note_on_c, 9, 44, 110
1, 62662, Note_on_c, 9, 44, 0
1, 62879, Note_on_c, 9, 41, 0
1, 62880, Note_on_c, 9, 40, 110
1, 62880, Note_on_c, 9, 44, 110
1, 62902, Note_on_c, 9, 44, 0
1, 63120, Note_on_c, 9, 44, 110
1, 63142, Note_on_c, 9, 44, 0
1, 63359, Note_on_c, 9, 40, 0
1, 63360, Note_on_c, 9, 41, 110
1, 63360, Note_on_c, 9, 44, 110
1, 63382, Note_on_c, 9, 44, 0
1, 63599, Note_on_c, 9, 41, 0
1, 63600, Note_on_c, 9, 41, 110
1, 63600, Note_on_c, 9, 44, 110
1, 63622, Note_on_c, 9, 44, 0
1, 63839, Note_on_c, 9, 41, 0
1, 63840, Note_on_c, 9, 40, 110
1, 63840, Note_on_c, 9, 44, 110
1, 63862, Note_on_c, 9, 44, 0
1, 64080, Note_on_c, 9, 44, 110
1, 64102, Note_on_c, 9, 44, 0
1, 64319, Note_on_c, 9, 40, 0
1, 64320, Note_on_c, 9, 41, 110
1, 64320, Note_on_c, 9, 44, 110
1, 64342, Note_on_c, 9, 44, 0
1, 64559, Note_on_c, 9, 41, 0
1, 64560, Note_on_c, 9, 41, 110
1, 64560, Note_on_c, 9, 44, 110
1, 64582, Note_on_c, 9, 44, 0
1, 64799, Note_on_c, 9, 41, 0
1, 64800, Note_on_c, 9, 40, 110
1, 64800, Note_on_c, 9, 44, 110
1, 64822, Note_on_c, 9, 44, 0
1, 65040, Note_on_c, 9, 44, 110
1, 65062, Note_on_c, 9, 44, 0
1, 65279, Note_on_c, 9, 40, 0
1, 65280, Note_on_c, 9, 41, 110
1, 65280, Note_on_c, 9, 44, 110
1, 65302, Note_on_c, 9, 44, 0
1, 65519, Note_on_c, 9, 41, 0
1, 65520, Note_on_c, 9, 41, 110
1, 65520, Note_on_c, 9, 44, 110
1, 65542, Note_on_c, 9, 44, 0
1, 65759, Note_on_c, 9, 41, 0
1, 65760, Note_on_c, 9, 40, 110
1, 65760, Note_on_c, 9, 44, 110
1, 65805, Note_on_c, 9, 44, 0
1, 65999, Note_on_c, 9, 40, 0
1, 66000, Note_on_c, 9, 41, 110
1, 66000, Note_on_c, 9, 55, 110
1, 66022, Note_on_c, 9, 55, 0
1, 66239, Note_on_c, 9, 41, 0
1, 66480, Note_on_c, 9, 41, 110
1, 66480, Note_on_c, 9, 44, 110
1, 66502, Note_on_c, 9, 44, 0
1, 66719, Note_on_c, 9, 41, 0
1, 66720, Note_on_c, 9, 40, 110
1, 66720, Note_on_c, 9, 44, 110
1, 66742, Note_on_c, 9, 44, 0
1, 66960, Note_on_c, 9, 44, 110
1, 66982, Note_on_c, 9, 44, 0
1, 67199, Note_on_c, 9, 40, 0
1, 67200, Note_on_c, 9, 41, 110
1, 67200, Note_on_c, 9, 44, 110
1, 67222, Note_on_c, 9, 44, 0
1, 67439, Note_on_c, 9, 41, 0
1, 67440, Note_on_c, 9, 41, 110
1, 67440, Note_on_c, 9, 44, 110
1, 67462, Note_on_c, 9, 44, 0
1, 67679, Note_on_c, 9, 41, 0
1, 67680, Note_on_c, 9, 40, 110
1, 67680, Note_on_c, 9, 44, 110
1, 67702, Note_on_c, 9, 44, 0
1, 67920, Note_on_c, 9, 44, 110
1, 67942, Note_on_c, 9, 44, 0
1, 68159, Note_on_c, 9, 40, 0
1, 68160, Note_on_c, 9, 41, 110
1, 68160, Note_on_c, 9, 44, 110
1, 68182, Note_on_c, 9, 44, 0
1, 68399, Note_on_c, 9, 41, 0
1, 68400, Note_on_c, 9, 41, 110
1, 68400, Note_on_c, 9, 44, 110
1, 68422, Note_on_c, 9, 44, 0
1, 68639, Note_on_c, 9, 41, 0
1, 68640, Note_on_c, 9, 40, 110
1, 68640, Note_on_c, 9, 44, 110
1, 68662, Note_on_c, 9, 44, 0
1, 68880, Note_on_c, 9, 44, 110
1, 68902, Note_on_c, 9, 44, 0
1, 69119, Note_on_c, 9, 40, 0
1, 69120, Note_on_c, 9, 41, 110
1, 69120, Note_on_c, 9, 44, 110
1, 69142, Note_on_c, 9, 44, 0
1, 69359, Note_on_c, 9, 41, 0
1, 69360, Note_on_c, 9, 41, 110
1, 69360, Note_on_c, 9, 44, 110
1, 69382, Note_on_c, 9, 44, 0
1, 69599, Note_on_c, 9, 41, 0
1, 69600, Note_on_c, 9, 40, 110
1, 69600, Note_on_c, 9, 44, 110
1, 69645, Note_on_c, 9, 44, 0
1, 69839, Note_on_c, 9, 40, 0
1, 69840, Note_on_c, 9, 41, 110
1, 69840, Note_on_c, 9, 55, 110
1, 69862, Note_on_c, 9, 55, 0
1, 70079, Note_on_c, 9, 41, 0
1, 70320, Note_on_c, 9, 41, 110
1, 70320, Note_on_c, 9, 44, 110
1, 70342, Note_on_c, 9, 44, 0
1, 70559, Note_on_c, 9, 41, 0
1, 70560, Note_on_c, 9, 40, 110
1, 70560, Note_on_c, 9, 44, 110
1, 70582, Note_on_c, 9, 44, 0
1, 70800, Note_on_c, 9, 44, 110
1, 70822, Note_on_c, 9, 44, 0
1, 71039, Note_on_c, 9, 40, 0
1, 71040, Note_on_c, 9, 41, 110
1, 71040, Note_on_c, 9, 44, 110
1, 71062, Note_on_c, 9, 44, 0
1, 71279, Note_on_c, 9, 41, 0
1, 71280, Note_on_c, 9, 41, 110
1, 71280, Note_on_c, 9, 44, 110
1, 71302, Note_on_c, 9, 44, 0
1, 71519, Note_on_c, 9, 41, 0
1, 71520, Note_on_c, 9, 40, 110
1, 71520, Note_on_c, 9, 44, 110
1, 71542, Note_on_c, 9, 44, 0
1, 71760, Note_on_c, 9, 44, 110
1, 71782, Note_on_c, 9, 44, 0
1, 71999, Note_on_c, 9, 40, 0
1, 72000, Note_on_c, 9, 41, 110
1, 72000, Note_on_c, 9, 44, 110
1, 72022, Note_on_c, 9, 44, 0
1, 72239, Note_on_c, 9, 41, 0
1, 72240, Note_on_c, 9, 41, 110
1, 72240, Note_on_c, 9, 44, 110
1, 72262, Note_on_c, 9, 44, 0
1, 72479, Note_on_c, 9, 41, 0
1, 72480, Note_on_c, 9, 40, 110
1, 72480, Note_on_c, 9, 44, 110
1, 72502, Note_on_c, 9, 44, 0
1, 72720, Note_on_c, 9, 44, 110
1, 72742, Note_on_c, 9, 44, 0
1, 72959, Note_on_c, 9, 40, 0
1, 72960, Note_on_c, 9, 41, 110
1, 72960, Note_on_c, 9, 44, 110
1, 72982, Note_on_c, 9, 44, 0
1, 73199, Note_on_c, 9, 41, 0
1, 73200, Note_on_c, 9, 41, 110
1, 73200, Note_on_c, 9, 44, 110
1, 73222, Note_on_c, 9, 44, 0
1, 73439, Note_on_c, 9, 41, 0
1, 73440, Note_on_c, 9, 40, 110
1, 73440, Note_on_c, 9, 44, 110
1, 73485, Note_on_c, 9, 44, 0
1, 73679, Note_on_c, 9, 40, 0
1, 73680, Note_on_c, 9, 41, 110
1, 73680, Note_on_c, 9, 55, 110
1, 73702, Note_on_c, 9, 55, 0
1, 73919, Note_on_c, 9, 41, 0
1, 74160, Note_on_c, 9, 41, 110
1, 74160, Note_on_c, 9, 44, 110
1, 74182, Note_on_c, 9, 44, 0
1, 74399, Note_on_c, 9, 41, 0
1, 74400, Note_on_c, 9, 40, 110
1, 74400, Note_on_c, 9, 44, 110
1, 74422, Note_on_c, 9, 44, 0
1, 74640, Note_on_c, 9, 44, 110
1, 74662, Note_on_c, 9, 44, 0
1, 74879, Note_on_c, 9, 40, 0
1, 74880, Note_on_c, 9, 41, 110
1, 74880, Note_on_c, 9, 44, 110
1, 74902, Note_on_c, 9, 44, 0
1, 75119, Note_on_c, 9, 41, 0
1, 75120, Note_on_c, 9, 41, 110
1, 75120, Note_on_c, 9, 44, 110
1, 75142, Note_on_c, 9, 44, 0
1, 75359, Note_on_c, 9, 41, 0
1, 75360, Note_on_c, 9, 40, 110
1, 75360, Note_on_c, 9, 44, 110
1, 75382, Note_on_c, 9, 44, 0
1, 75600, Note_on_c, 9, 44, 110
1, 75622, Note_on_c, 9, 44, 0
1, 75839, Note_on_c, 9, 40, 0
1, 75840, Note_on_c, 9, 41, 110
1, 75840, Note_on_c, 9, 44, 110
1, 75862, Note_on_c, 9, 44, 0
1, 76079, Note_on_c, 9, 41, 0
1, 76080, Note_on_c, 9, 41, 110
1, 76080, Note_on_c, 9, 44, 110
1, 76102, Note_on_c, 9, 44, 0
1, 76319, Note_on_c, 9, 41, 0
1, 76320, Note_on_c, 9, 40, 110
1, 76320, Note_on_c, 9, 44, 110
1, 76342, Note_on_c, 9, 44, 0
1, 76560, Note_on_c, 9, 44, 110
1, 76582, Note_on_c, 9, 44, 0
1, 76799, Note_on_c, 9, 40, 0
1, 76800, Note_on_c, 9, 41, 110
1, 76800, Note_on_c, 9, 44, 110
1, 76822, Note_on_c, 9, 44, 0
1, 77039, Note_on_c, 9, 41, 0
1, 77040, Note_on_c, 9, 41, 110
1, 77040, Note_on_c, 9, 44, 110
1, 77062, Note_on_c, 9, 44, 0
1, 77279, Note_on_c, 9, 41, 0
1, 77280, Note_on_c, 9, 40, 110
1, 77280, Note_on_c, 9, 44, 110
1, 77325, Note_on_c, 9, 44, 0
1, 77519, Note_on_c, 9, 40, 0
1, 77520, Note_on_c, 9, 41, 110
1, 77520, Note_on_c, 9, 55, 110
1, 77542, Note_on_c, 9, 55, 0
1, 77759, Note_on_c, 9, 41, 0
1, 78000, Note_on_c, 9, 41, 110
1, 78000, Note_on_c, 9, 44, 110
1, 78022, Note_on_c, 9, 44, 0
1, 78239, Note_on_c, 9, 41, 0
1, 78240, Note_on_c, 9, 40, 110
1, 78240, Note_on_c, 9, 44, 110
1, 78262, Note_on_c, 9, 44, 0
1, 78480, Note_on_c, 9, 44, 110
1, 78502, Note_on_c, 9, 44, 0
1, 78719, Note_on_c, 9, 40, 0
1, 78720, Note_on_c, 9, 41, 110
1, 78720, Note_on_c, 9, 44, 110
1, 78742, Note_on_c, 9, 44, 0
1, 78959, Note_on_c, 9, 41, 0
1, 78960, Note_on_c, 9, 41, 110
1, 78960, Note_on_c, 9, 44, 110
1, 78982, Note_on_c, 9, 44, 0
1, 79199, Note_on_c, 9, 41, 0
1, 79200, Note_on_c, 9, 40, 110
1, 79200, Note_on_c, 9, 44, 110
1, 79222, Note_on_c, 9, 44, 0
1, 79440, Note_on_c, 9, 44, 110
1, 79462, Note_on_c, 9, 44, 0
1, 79679, Note_on_c, 9, 40, 0
1, 79680, Note_on_c, 9, 41, 110
1, 79680, Note_on_c, 9, 44, 110
1, 79702, Note_on_c, 9, 44, 0
1, 79919, Note_on_c, 9, 41, 0
1, 79920, Note_on_c, 9, 41, 110
1, 79920, Note_on_c, 9, 44, 110
1, 79942, Note_on_c, 9, 44, 0
1, 80159, Note_on_c, 9, 41, 0
1, 80160, Note_on_c, 9, 40, 110
1, 80160, Note_on_c, 9, 44, 110
1, 80182, Note_on_c, 9, 44, 0
1, 80400, Note_on_c, 9, 44, 110
1, 80422, Note_on_c, 9, 44, 0
1, 80639, Note_on_c, 9, 40, 0
1, 80640, Note_on_c, 9, 41, 110
1, 80640, Note_on_c, 9, 44, 110
1, 80662, Note_on_c, 9, 44, 0
1, 80879, Note_on_c, 9, 41, 0
1, 80880, Note_on_c, 9, 41, 110
1, 80880, Note_on_c, 9, 44, 110
1, 80902, Note_on_c, 9, 44, 0
1, 81119, Note_on_c, 9, 41, 0
1, 81120, Note_on_c, 9, 40, 110
1, 81120, Note_on_c, 9, 44, 110
1, 81165, Note_on_c, 9, 44, 0
1, 81359, Note_on_c, 9, 40, 0
1, 81360, Note_on_c, 9, 41, 110
1, 81360, Note_on_c, 9, 55, 110
1, 81382, Note_on_c, 9, 55, 0
1, 81599, Note_on_c, 9, 41, 0
1, 81840, Note_on_c, 9, 41, 110
1, 81840, Note_on_c, 9, 44, 110
1, 81862, Note_on_c, 9, 44, 0
1, 82079, Note_on_c, 9, 41, 0
1, 82080, Note_on_c, 9, 40, 110
1, 82080, Note_on_c, 9, 44, 110
1, 82102, Note_on_c, 9, 44, 0
1, 82320, Note_on_c, 9, 44, 110
1, 82342, Note_on_c, 9, 44, 0
1, 82559, Note_on_c, 9, 40, 0
1, 82560, Note_on_c, 9, 41, 110
1, 82560, Note_on_c, 9, 44, 110
1, 82582, Note_on_c, 9, 44, 0
1, 82799, Note_on_c, 9, 41, 0
1, 82800, Note_on_c, 9, 41, 110
1, 82800, Note_on_c, 9, 44, 110
1, 82822, Note_on_c, 9, 44, 0
1, 83039, Note_on_c, 9, 41, 0
1, 83040, Note_on_c, 9, 40, 110
1, 83040, Note_on_c, 9, 44, 110
1, 83062, Note_on_c, 9, 44, 0
1, 83280, Note_on_c, 9, 44, 110
1, 83302, Note_on_c, 9, 44, 0
1, 83519, Note_on_c, 9, 40, 0
1, 83520, Note_on_c, 9, 41, 110
1, 83520, Note_on_c, 9, 44, 110
1, 83542, Note_on_c, 9, 44, 0
1, 83759, Note_on_c, 9, 41, 0
1, 83760, Note_on_c, 9, 41, 110
1, 83760, Note_on_c, 9, 44, 110
1, 83782, Note_on_c, 9, 44, 0
1, 83999, Note_on_c, 9, 41, 0
1, 84000, Note_on_c, 9, 40, 110
1, 84000, Note_on_c, 9, 44, 110
1, 84022, Note_on_c, 9, 44, 0
1, 84240, Note_on_c, 9, 44, 110
1, 84262, Note_on_c, 9, 44, 0
1, 84479, Note_on_c, 9, 40, 0
1, 84480, Note_on_c, 9, 41, 110
1, 84480, Note_on_c, 9, 44, 110
1, 84502, Note_on_c, 9, 44, 0
1, 84719, Note_on_c, 9, 41, 0
1, 84720, Note_on_c, 9, 41, 110
1, 84720, Note_on_c, 9, 44, 110
1, 84742, Note_on_c, 9, 44, 0
1, 84959, Note_on_c, 9, 41, 0
1, 84960, Note_on_c, 9, 40, 110
1, 84960, Note_on_c, 9, 44, 110
1, 85005, Note_on_c, 9, 44, 0
1, 85199, Note_on_c, 9, 40, 0
1, 85200, Note_on_c, 9, 41, 110
1, 85200, Note_on_c, 9, 55, 110
1, 85222, Note_on_c, 9, 55, 0
1, 85439, Note_on_c, 9, 41, 0
1, 85680, Note_on_c, 9, 41, 110
1, 85680, Note_on_c, 9, 44, 110
1, 85702, Note_on_c, 9, 44, 0
1, 85919, Note_on_c, 9, 41, 0
1, 85920, Note_on_c, 9, 40, 110
1, 85920, Note_on_c, 9, 44, 110
1, 85942, Note_on_c, 9, 44, 0
1, 86160, Note_on_c, 9, 44, 110
1, 86182, Note_on_c, 9, 44, 0
1, 86399, Note_on_c, 9, 40, 0
1, 86400, Note_on_c, 9, 41, 110
1, 86400, Note_on_c, 9, 44, 110
1, 86422, Note_on_c, 9, 44, 0
1, 86639, Note_on_c, 9, 41, 0
1, 86640, Note_on_c, 9, 41, 110
1, 86640, Note_on_c, 9, 44, 110
1, 86662, Note_on_c, 9, 44, 0
1, 86879, Note_on_c, 9, 41, 0
1, 86880, Note_on_c, 9, 40, 110
1, 86880, Note_on_c, 9, 44, 110
1, 86902, Note_on_c, 9, 44, 0
1, 87120, Note_on_c, 9, 44, 110
1, 87142, Note_on_c, 9, 44, 0
1, 87359, Note_on_c, 9, 40, 0
1, 87360, Note_on_c, 9, 41, 110
1, 87360, Note_on_c, 9, 44, 110
1, 87382, Note_on_c, 9, 44, 0
1, 87599, Note_on_c, 9, 41, 0
1, 87600, Note_on_c, 9, 41, 110
1, 87600, Note_on_c, 9, 44, 110
1, 87622, Note_on_c, 9, 44, 0
1, 87839, Note_on_c, 9, 41, 0
1, 87840, Note_on_c, 9, 40, 110
1, 87840, Note_on_c, 9, 44, 110
1, 87862, Note_on_c, 9, 44, 0
1, 88080, Note_on_c, 9, 44, 110
1, 88102, Note_on_c, 9, 44, 0
1, 88319, Note_on_c, 9, 40, 0
1, 88320, Note_on_c, 9, 41, 110
1, 88320, Note_on_c, 9, 44, 110
1, 88342, Note_on_c, 9, 44, 0
1, 88559, Note_on_c, 9, 41, 0
1, 88560, Note_on_c, 9, 41, 110
1, 88560, Note_on_c, 9, 44, 110
1, 88582, Note_on_c, 9, 44, 0
1, 88799, Note_on_c, 9, 41, 0
1, 88800, Note_on_c, 9, 40, 110
1, 88800, Note_on_c, 9, 44, 110
1, 88845, Note_on_c, 9, 44, 0
1, 89039, Note_on_c, 9, 40, 0
1, 89040, Note_on_c, 9, 41, 110
1, 89040, Note_on_c, 9, 55, 110
1, 89062, Note_on_c, 9, 55, 0
1, 89279, Note_on_c, 9, 41, 0
1, 89520, Note_on_c, 9, 41, 110
1, 89520, Note_on_c, 9, 44, 110
1, 89542, Note_on_c, 9, 44, 0
1, 89759, Note_on_c, 9, 41, 0
1, 89760, Note_on_c, 9, 40, 110
1, 89760, Note_on_c, 9, 44, 110
1, 89782, Note_on_c, 9, 44, 0
1, 90000, Note_on_c, 9, 44, 110
1, 90022, Note_on_c, 9, 44, 0
1, 90239, Note_on_c, 9, 40, 0
1, 90240, Note_on_c, 9, 41, 110
1, 90240, Note_on_c, 9, 44, 110
1, 90262, Note_on_c, 9, 44, 0
1, 90479, Note_on_c, 9, 41, 0
1, 90480, Note_on_c, 9, 41, 110
1, 90480, Note_on_c, 9, 44, 110
1, 90502, Note_on_c, 9, 44, 0
1, 90719, Note_on_c, 9, 41, 0
1, 90720, Note_on_c, 9, 40, 110
1, 90720, Note_on_c, 9, 44, 110
1, 90742, Note_on_c, 9, 44, 0
1, 90960, Note_on_c, 9, 44, 110
1, 90982, Note_on_c, 9, 44, 0
1, 91199, Note_on_c, 9, 40, 0
1, 91200, Note_on_c, 9, 41, 110
1, 91200, Note_on_c, 9, 44, 110
1, 91222, Note_on_c, 9, 44, 0
1, 91439, Note_on_c, 9, 41, 0
1, 91440, Note_on_c, 9, 41, 110
1, 91440, Note_on_c, 9, 44, 110
1, 91462, Note_on_c, 9, 44, 0
1, 91679, Note_on_c, 9, 41, 0
1, 91680, Note_on_c, 9, 40, 110
1, 91680, Note_on_c, 9, 44, 110
1, 91702, Note_on_c, 9, 44, 0
1, 91920, Note_on_c, 9, 44, 110
1, 91942, Note_on_c, 9, 44, 0
1, 92159, Note_on_c, 9, 40, 0
1, 92160, Note_on_c, 9, 41, 110
1, 92160, Note_on_c, 9, 44, 110
1, 92182, Note_on_c, 9, 44, 0
1, 92399, Note_on_c, 9, 41, 0
1, 92400, Note_on_c, 9, 41, 110
1, 92400, Note_on_c, 9, 44, 110
1, 92422, Note_on_c, 9, 44, 0
1, 92639, Note_on_c, 9, 41, 0
1, 92640, Note_on_c, 9, 40, 110
1, 92640, Note_on_c, 9, 44, 110
1, 92685, Note_on_c, 9, 44, 0
1, 92879, Note_on_c, 9, 40, 0
1, 92880, Note_on_c, 9, 41, 110
1, 92880, Note_on_c, 9, 55, 110
1, 92902, Note_on_c, 9, 55, 0
1, 93119, Note_on_c, 9, 41, 0
1, 93360, Note_on_c, 9, 41, 110
1, 93360, Note_on_c, 9, 44, 110
1, 93382, Note_on_c, 9, 44, 0
1, 93599, Note_on_c, 9, 41, 0
1, 93600, Note_on_c, 9, 40, 110
1, 93600, Note_on_c, 9, 44, 110
1, 93622, Note_on_c, 9, 44, 0
1, 93840, Note_on_c, 9, 44, 110
1, 93862, Note_on_c, 9, 44, 0
1, 94079, Note_on_c, 9, 40, 0
1, 94080, Note_on_c, 9, 41, 110
1, 94080, Note_on_c, 9, 44, 110
1, 94102, Note_on_c, 9, 44, 0
1, 94319, Note_on_c, 9, 41, 0
1, 94320, Note_on_c, 9, 41, 110
1, 94320, Note_on_c, 9, 44, 110
1, 94342, Note_on_c, 9, 44, 0
1, 94559, Note_on_c, 9, 41, 0
1, 94560, Note_on_c, 9, 40, 110
1, 94560, Note_on_c, 9, 44, 110
1, 94582, Note_on_c, 9, 44, 0
1, 94800, Note_on_c, 9, 44, 110
1, 94822, Note_on_c, 9, 44, 0
1, 95039, Note_on_c, 9, 40, 0
1, 95040, Note_on_c, 9, 41, 110
1, 95040, Note_on_c, 9, 44, 110
1, 95062, Note_on_c, 9, 44, 0
1, 95279, Note_on_c, 9, 41, 0
1, 95280, Note_on_c, 9, 41, 110
1, 95280, Note_on_c, 9, 44, 110
1, 95302, Note_on_c, 9, 44, 0
1, 95519, Note_on_c, 9, 41, 0
1, 95520, Note_on_c, 9, 40, 110
1, 95520, Note_on_c, 9, 44, 110
1, 95542, Note_on_c, 9, 44, 0
1, 95760, Note_on_c, 9, 44, 110
1, 95782, Note_on_c, 9, 44, 0
1, 95999, Note_on_c, 9, 40, 0
1, 96000, Note_on_c, 9, 41, 110
1, 96000, Note_on_c, 9, 44, 110
1, 96022, Note_on_c, 9, 44, 0
1, 96239, Note_on_c, 9, 41, 0
1, 96240, Note_on_c, 9, 41, 110
1, 96240, Note_on_c, 9, 44, 110
1, 96262, Note_on_c, 9, 44, 0
1, 96479, Note_on_c, 9, 41, 0
1, 96480, Note_on_c, 9, 40, 110
1, 96480, Note_on_c, 9, 44, 110
1, 96525, Note_on_c, 9, 44, 0
1, 96719, Note_on_c, 9, 40, 0
1, 96720, Note_on_c, 9, 41, 110
1, 96720, Note_on_c, 9, 55, 110
1, 96742, Note_on_c, 9, 55, 0
1, 96959, Note_on_c, 9, 41, 0
1, 97200, Note_on_c, 9, 41, 110
1, 97200, Note_on_c, 9, 44, 110
1, 97222, Note_on_c, 9, 44, 0
1, 97439, Note_on_c, 9, 41, 0
1, 97440, Note_on_c, 9, 40, 110
1, 97440, Note_on_c, 9, 44, 110
1, 97462, Note_on_c, 9, 44, 0
1, 97680, Note_on_c, 9, 44, 110
1, 97702, Note_on_c, 9, 44, 0
1, 97919, Note_on_c, 9, 40, 0
1, 97920, Note_on_c, 9, 41, 110
1, 97920, Note_on_c, 9, 44, 110
1, 97942, Note_on_c, 9, 44, 0
1, 98159, Note_on_c, 9, 41, 0
1, 98160, Note_on_c, 9, 41, 110
1, 98160, Note_on_c, 9, 44, 110
1, 98182, Note_on_c, 9, 44, 0
1, 98399, Note_on_c, 9, 41, 0
1, 98400, Note_on_c, 9, 40, 110
1, 98400, Note_on_c, 9, 44, 110
1, 98422, Note_on_c, 9, 44, 0
1, 98640, Note_on_c, 9, 44, 110
1, 98662, Note_on_c, 9, 44, 0
1, 98879, Note_on_c, 9, 40, 0
1, 98880, Note_on_c, 9, 41, 110
1, 98880, Note_on_c, 9, 44, 110
1, 98902, Note_on_c, 9, 44, 0
1, 99119, Note_on_c, 9, 41, 0
1, 99120, Note_on_c, 9, 41, 110
1, 99120, Note_on_c, 9, 44, 110
1, 99142, Note_on_c, 9, 44, 0
1, 99359, Note_on_c, 9, 41, 0
1, 99360, Note_on_c, 9, 40, 110
1, 99360, Note_on_c, 9, 44, 110
1, 99382, Note_on_c, 9, 44, 0
1, 99600, Note_on_c, 9, 44, 110
1, 99622, Note_on_c, 9, 44, 0
1, 99839, Note_on_c, 9, 40, 0
1, 99840, Note_on_c, 9, 41, 110
1, 99840, Note_on_c, 9, 44, 110
1, 99862, Note_on_c, 9, 44, 0
1, 100079, Note_on_c, 9, 41, 0
1, 100080, Note_on_c, 9, 41, 110
1, 100080, Note_on_c, 9, 44, 110
1, 100102, Note_on_c, 9, 44, 0
1, 100319, Note_on_c, 9, 41, 0
1, 100320, Note_on_c, 9, 40, 110
1, 100320, Note_on_c, 9, 44, 110
1, 100365, Note_on_c, 9, 44, 0
1, 100559, Note_on_c, 9, 40, 0
1, 100560, Note_on_c, 9, 41, 110
1, 100560, Note_on_c, 9, 55, 110
1, 100582, Note_on_c, 9, 55, 0
1, 100799, Note_on_c, 9, 41, 0
1, 101040, Note_on_c, 9, 41, 110
1, 101040, Note_on_c, 9, 44, 110
1, 101062, Note_on_c, 9, 44, 0
1, 101279, Note_on_c, 9, 41, 0
1, 101280, Note_on_c, 9, 40, 110
1, 101280, Note_on_c, 9, 44, 110
1, 101302, Note_on_c, 9, 44, 0
1, 101520, Note_on_c, 9, 44, 110
1, 101542, Note_on_c, 9, 44, 0
1, 101759, Note_on_c, 9, 40, 0
1, 101760, Note_on_c, 9, 41, 110
1, 101760, Note_on_c, 9, 44, 110
1, 101782, Note_on_c, 9, 44, 0
1, 101999, Note_on_c, 9, 41, 0
1, 102000, Note_on_c, 9, 41, 110
1, 102000, Note_on_c, 9, 44, 110
1, 102022, Note_on_c, 9, 44, 0
1, 102239, Note_on_c, 9, 41, 0
1, 102240, Note_on_c, 9, 40, 110
1, 102240, Note_on_c, 9, 44, 110
1, 102262, Note_on_c, 9, 44, 0
1, 102480, Note_on_c, 9, 44, 110
1, 102502, Note_on_c, 9, 44, 0
1, 102719, Note_on_c, 9, 40, 0
1, 102720, Note_on_c, 9, 41, 110
1, 102720, Note_on_c, 9, 44, 110
1, 102742, Note_on_c, 9, 44, 0
1, 102959, Note_on_c, 9, 41, 0
1, 102960, Note_on_c, 9, 41, 110
1, 102960, Note_on_c, 9, 44, 110
1, 102982, Note_on_c, 9, 44, 0
1, 103199, Note_on_c, 9, 41, 0
1, 103200, Note_on_c, 9, 40, 110
1, 103200, Note_on_c, 9, 44, 110
1, 103222, Note_on_c, 9, 44, 0
1, 103440, Note_on_c, 9, 44, 110
1, 103462, Note_on_c, 9, 44, 0
1, 103679, Note_on_c, 9, 40, 0
1, 103680, Note_on_c, 9, 41, 110
1, 103680, Note_on_c, 9, 44, 110
1, 103702, Note_on_c, 9, 44, 0
1, 103919, Note_on_c, 9, 41, 0
1, 103920, Note_on_c, 9, 41, 110
1, 103920, Note_on_c, 9, 44, 110
1, 103942, Note_on_c, 9, 44, 0
1, 104159, Note_on_c, 9, 41, 0
1, 104160, Note_on_c, 9, 40, 110
1, 104160, Note_on_c, 9, 44, 110
1, 104205, Note_on_c, 9, 44, 0
1, 104399, Note_on_c, 9, 40, 0
1, 104400, Note_on_c, 9, 41, 110
1, 104400, Note_on_c, 9, 55, 110
1, 104422, Note_on_c, 9, 55, 0
1, 104639, Note_on_c, 9, 41, 0
1, 104880, Note_on_c, 9, 41, 110
1, 104880, Note_on_c, 9, 44, 110
1, 104902, Note_on_c, 9, 44, 0
1, 105119, Note_on_c, 9, 41, 0
1, 105120, Note_on_c, 9, 40, 110
1, 105120, Note_on_c, 9, 44, 110
1, 105142, Note_on_c, 9, 44, 0
1, 105360, Note_on_c, 9, 44, 110
1, 105382, Note_on_c, 9, 44, 0
1, 105599, Note_on_c, 9, 40, 0
1, 105600, Note_on_c, 9, 41, 110
1, 105600, Note_on_c, 9, 44, 110
1, 105622, Note_on_c, 9, 44, 0
1, 105839, Note_on_c, 9, 41, 0
1, 105840, Note_on_c, 9, 41, 110
1, 105840, Note_on_c, 9, 44, 110
1, 105862, Note_on_c, 9, 44, 0
1, 106079, Note_on_c, 9, 41, 0
1, 106080, Note_on_c, 9, 40, 110
1, 106080, Note_on_c, 9, 44, 110
1, 106125, Note_on_c, 9, 44, 0
1, 106319, Note_on_c, 9, 40, 0
1, 106320, Note_on_c, 9, 41, 110
1, 106320, Note_on_c, 9, 55, 110
1, 106342, Note_on_c, 9, 55, 0
1, 106559, Note_on_c, 9, 41, 0
1, 106800, Note_on_c, 9, 41, 110
1, 106800, Note_on_c, 9, 44, 110
1, 106822, Note_on_c, 9, 44, 0
1, 107039, Note_on_c, 9, 41, 0
1, 107040, Note_on_c, 9, 40, 110
1, 107040, Note_on_c, 9, 44, 110
1, 107062, Note_on_c, 9, 44, 0
1, 107280, Note_on_c, 9, 44, 110
1, 107302, Note_on_c, 9, 44, 0
1, 107519, Note_on_c, 9, 40, 0
1, 107520, Note_on_c, 9, 41, 110
1, 107520, Note_on_c, 9, 44, 110
1, 107542, Note_on_c, 9, 44, 0
1, 107759, Note_on_c, 9, 41, 0
1, 107760, Note_on_c, 9, 41, 110
1, 107760, Note_on_c, 9, 44, 110
1, 107782, Note_on_c, 9, 44, 0
1, 107999, Note_on_c, 9, 41, 0
1, 108000, Note_on_c, 9, 40, 110
1, 108000, Note_on_c, 9, 44, 110
1, 108045, Note_on_c, 9, 44, 0
1, 108239, Note_on_c, 9, 40, 0
1, 108240, Note_on_c, 9, 41, 110
1, 108240, Note_on_c, 9, 55, 110
1, 108262, Note_on_c, 9, 55, 0
1, 108479, Note_on_c, 9, 41, 0
1, 108720, Note_on_c, 9, 41, 110
1, 108720, Note_on_c, 9, 44, 110
1, 108742, Note_on_c, 9, 44, 0
1, 108959, Note_on_c, 9, 41, 0
1, 108960, Note_on_c, 9, 40, 110
1, 108960, Note_on_c, 9, 44, 110
1, 108982, Note_on_c, 9, 44, 0
1, 109200, Note_on_c, 9, 44, 110
1, 109222, Note_on_c, 9, 44, 0
1, 109439, Note_on_c, 9, 40, 0
1, 109440, Note_on_c, 9, 41, 110
1, 109440, Note_on_c, 9, 44, 110
1, 109462, Note_on_c, 9, 44, 0
1, 109679, Note_on_c, 9, 41, 0
1, 109680, Note_on_c, 9, 41, 110
1, 109680, Note_on_c, 9, 44, 110
1, 109702, Note_on_c, 9, 44, 0
1, 109919, Note_on_c, 9, 41, 0
1, 109920, Note_on_c, 9, 40, 110
1, 109920, Note_on_c, 9, 44, 110
1, 109965, Note_on_c, 9, 44, 0
1, 110159, Note_on_c, 9, 40, 0
1, 110160, Note_on_c, 9, 41, 110
1, 110160, Note_on_c, 9, 55, 110
1, 110182, Note_on_c, 9, 55, 0
1, 110399, Note_on_c, 9, 41, 0
1, 110640, Note_on_c, 9, 41, 110
1, 110640, Note_on_c, 9, 44, 110
1, 110662, Note_on_c, 9, 44, 0
1, 110879, Note_on_c, 9, 41, 0
1, 110880, Note_on_c, 9, 40, 110
1, 110880, Note_on_c, 9, 44, 110
1, 110902, Note_on_c, 9, 44, 0
1, 111120, Note_on_c, 9, 44, 110
1, 111142, Note_on_c, 9, 44, 0
1, 111359, Note_on_c, 9, 40, 0
1, 111360, Note_on_c, 9, 41, 110
1, 111360, Note_on_c, 9, 44, 110
1, 111382, Note_on_c, 9, 44, 0
1, 111599, Note_on_c, 9, 41, 0
1, 111600, Note_on_c, 9, 41, 110
1, 111600, Note_on_c, 9, 44, 110
1, 111622, Note_on_c, 9, 44, 0
1, 111839, Note_on_c, 9, 41, 0
1, 111840, Note_on_c, 9, 40, 110
1, 111840, Note_on_c, 9, 44, 110
1, 111885, Note_on_c, 9, 44, 0
1, 112079, Note_on_c, 9, 40, 0
1, 112080, Note_on_c, 9, 41, 110
1, 112080, Note_on_c, 9, 55, 110
1, 112102, Note_on_c, 9, 55, 0
1, 112319, Note_on_c, 9, 41, 0
1, 112560, Note_on_c, 9, 41, 110
1, 112560, Note_on_c, 9, 44, 110
1, 112582, Note_on_c, 9, 44, 0
1, 112799, Note_on_c, 9, 41, 0
1, 112800, Note_on_c, 9, 40, 110
1, 112800, Note_on_c, 9, 44, 110
1, 112822, Note_on_c, 9, 44, 0
1, 113040, Note_on_c, 9, 44, 110
1, 113062, Note_on_c, 9, 44, 0
1, 113279, Note_on_c, 9, 40, 0
1, 113280, Note_on_c, 9, 41, 110
1, 113280, Note_on_c, 9, 44, 110
1, 113302, Note_on_c, 9, 44, 0
1, 113519, Note_on_c, 9, 41, 0
1, 113520, Note_on_c, 9, 41, 110
1, 113520, Note_on_c, 9, 44, 110
1, 113542, Note_on_c, 9, 44, 0
1, 113759, Note_on_c, 9, 41, 0
1, 113760, Note_on_c, 9, 40, 110
1, 113760, Note_on_c, 9, 44, 110
1, 113805, Note_on_c, 9, 44, 0
1, 113999, Note_on_c, 9, 40, 0
1, 114000, Note_on_c, 9, 41, 110
1, 114000, Note_on_c, 9, 55, 110
1, 114022, Note_on_c, 9, 55, 0
1, 114239, Note_on_c, 9, 41, 0
1, 114480, Note_on_c, 9, 41, 110
1, 114480, Note_on_c, 9, 44, 110
1, 114502, Note_on_c, 9, 44, 0
1, 114719, Note_on_c, 9, 41, 0
1, 114720, Note_on_c, 9, 40, 110
1, 114720, Note_on_c, 9, 44, 110
1, 114742, Note_on_c, 9, 44, 0
1, 114960, Note_on_c, 9, 44, 110
1, 114982, Note_on_c, 9, 44, 0
1, 115199, Note_on_c, 9, 40, 0
1, 115200, Note_on_c, 9, 41, 110
1, 115200, Note_on_c, 9, 44, 110
1, 115222, Note_on_c, 9, 44, 0
1, 115439, Note_on_c, 9, 41, 0
1, 115440, Note_on_c, 9, 41, 110
1, 115440, Note_on_c, 9, 44, 110
1, 115462, Note_on_c, 9, 44, 0
1, 115679, Note_on_c, 9, 41, 0
1, 115680, Note_on_c, 9, 40, 110
1, 115680, Note_on_c, 9, 44, 110
1, 115725, Note_on_c, 9, 44, 0
1, 115919, Note_on_c, 9, 40, 0
1, 115920, Note_on_c, 9, 41, 110
1, 115920, Note_on_c, 9, 55, 110
1, 115942, Note_on_c, 9, 55, 0
1, 116159, Note_on_c, 9, 41, 0
1, 116400, Note_on_c, 9, 41, 110
1, 116400, Note_on_c, 9, 44, 110
1, 116422, Note_on_c, 9, 44, 0
1, 116639, Note_on_c, 9, 41, 0
1, 116640, Note_on_c, 9, 40, 110
1, 116640, Note_on_c, 9, 44, 110
1, 116662, Note_on_c, 9, 44, 0
1, 116880, Note_on_c, 9, 44, 110
1, 116902, Note_on_c, 9, 44, 0
1, 117119, Note_on_c, 9, 40, 0
1, 117120, Note_on_c, 9, 41, 110
1, 117120, Note_on_c, 9, 44, 110
1, 117142, Note_on_c, 9, 44, 0
1, 117359, Note_on_c, 9, 41, 0
1, 117360, Note_on_c, 9, 41, 110
1, 117360, Note_on_c, 9, 44, 110
1, 117382, Note_on_c, 9, 44, 0
1, 117599, Note_on_c, 9, 41, 0
1, 117600, Note_on_c, 9, 40, 110
1, 117600, Note_on_c, 9, 44, 110
1, 117645, Note_on_c, 9, 44, 0
1, 117839, Note_on_c, 9, 40, 0
1, 117840, Note_on_c, 9, 41, 110
1, 117840, Note_on_c, 9, 55, 110
1, 117862, Note_on_c, 9, 55, 0
1, 118079, Note_on_c, 9, 41, 0
1, 118320, Note_on_c, 9, 41, 110
1, 118320, Note_on_c, 9, 44, 110
1, 118342, Note_on_c, 9, 44, 0
1, 118559, Note_on_c, 9, 41, 0
1, 118560, Note_on_c, 9, 40, 110
1, 118560, Note_on_c, 9, 44, 110
1, 118582, Note_on_c, 9, 44, 0
1, 118800, Note_on_c, 9, 44, 110
1, 118822, Note_on_c, 9, 44, 0
1, 119039, Note_on_c, 9, 40, 0
1, 119040, Note_on_c, 9, 41, 110
1, 119040, Note_on_c, 9, 44, 110
1, 119062, Note_on_c, 9, 44, 0
1, 119279, Note_on_c, 9, 41, 0
1, 119280, Note_on_c, 9, 41, 110
1, 119280, Note_on_c, 9, 44, 110
1, 119302, Note_on_c, 9, 44, 0
1, 119519, Note_on_c, 9, 41, 0
1, 119520, Note_on_c, 9, 40, 110
1, 119520, Note_on_c, 9, 44, 110
1, 119565, Note_on_c, 9, 44, 0
1, 119759, Note_on_c, 9, 40, 0
1, 119760, Note_on_c, 9, 41, 110
1, 119760, Note_on_c, 9, 55, 110
1, 119782, Note_on_c, 9, 55, 0
1, 119999, Note_on_c, 9, 41, 0
1, 120240, Note_on_c, 9, 41, 110
1, 120240, Note_on_c, 9, 44, 110
1, 120262, Note_on_c, 9, 44, 0
1, 120479, Note_on_c, 9, 41, 0
1, 120480, Note_on_c, 9, 40, 110
1, 120480, Note_on_c, 9, 44, 110
1, 120502, Note_on_c, 9, 44, 0
1, 120720, Note_on_c, 9, 44, 110
1, 120742, Note_on_c, 9, 44, 0
1, 120959, Note_on_c, 9, 40, 0
1, 120960, Note_on_c, 9, 41, 110
1, 120960, Note_on_c, 9, 44, 110
1, 120982, Note_on_c, 9, 44, 0
1, 121199, Note_on_c, 9, 41, 0
1, 121200, Note_on_c, 9, 41, 110
1, 121200, Note_on_c, 9, 44, 110
1, 121222, Note_on_c, 9, 44, 0
1, 121439, Note_on_c, 9, 41, 0
1, 121440, Note_on_c, 9, 40, 110
1, 121440, Note_on_c, 9, 44, 110
1, 121485, Note_on_c, 9, 44, 0
1, 121679, Note_on_c, 9, 40, 0
1, 121680, Note_on_c, 9, 41, 110
1, 121680, Note_on_c, 9, 55, 110
1, 121702, Note_on_c, 9, 55, 0
1, 121919, Note_on_c, 9, 41, 0
1, 122160, Note_on_c, 9, 41, 110
1, 122160, Note_on_c, 9, 44, 110
1, 122182, Note_on_c, 9, 44, 0
1, 122399, Note_on_c, 9, 41, 0
1, 122400, Note_on_c, 9, 40, 110
1, 122400, Note_on_c, 9, 44, 110
1, 122422, Note_on_c, 9, 44, 0
1, 122640, Note_on_c, 9, 44, 110
1, 122662, Note_on_c, 9, 44, 0
1, 122879, Note_on_c, 9, 40, 0
1, 122880, Note_on_c, 9, 41, 110
1, 122880, Note_on_c, 9, 44, 110
1, 122902, Note_on_c, 9, 44, 0
1, 123119, Note_on_c, 9, 41, 0
1, 123120, Note_on_c, 9, 41, 110
1, 123120, Note_on_c, 9, 44, 110
1, 123142, Note_on_c, 9, 44, 0
1, 123359, Note_on_c, 9, 41, 0
1, 123360, Note_on_c, 9, 40, 110
1, 123360, Note_on_c, 9, 44, 110
1, 123405, Note_on_c, 9, 44, 0
1, 123599, Note_on_c, 9, 40, 0
1, 123600, Note_on_c, 9, 41, 110
1, 123600, Note_on_c, 9, 55, 110
1, 123622, Note_on_c, 9, 55, 0
1, 123839, Note_on_c, 9, 41, 0
1, 124080, Note_on_c, 9, 41, 110
1, 124080, Note_on_c, 9, 44, 110
1, 124102, Note_on_c, 9, 44, 0
1, 124319, Note_on_c, 9, 41, 0
1, 124320, Note_on_c, 9, 40, 110
1, 124320, Note_on_c, 9, 44, 110
1, 124342, Note_on_c, 9, 44, 0
1, 124560, Note_on_c, 9, 44, 110
1, 124582, Note_on_c, 9, 44, 0
1, 124799, Note_on_c, 9, 40, 0
1, 124800, Note_on_c, 9, 41, 110
1, 124800, Note_on_c, 9, 44, 110
1, 124822, Note_on_c, 9, 44, 0
1, 125039, Note_on_c, 9, 41, 0
1, 125040, Note_on_c, 9, 41, 110
1, 125040, Note_on_c, 9, 44, 110
1, 125062, Note_on_c, 9, 44, 0
1, 125279, Note_on_c, 9, 41, 0
1, 125280, Note_on_c, 9, 40, 110
1, 125280, Note_on_c, 9, 44, 110
1, 125325, Note_on_c, 9, 44, 0
1, 125519, Note_on_c, 9, 40, 0
1, 125520, Note_on_c, 9, 41, 110
1, 125520, Note_on_c, 9, 55, 110
1, 125542, Note_on_c, 9, 55, 0
1, 125759, Note_on_c, 9, 41, 0
1, 126000, Note_on_c, 9, 41, 110
1, 126000, Note_on_c, 9, 44, 110
1, 126022, Note_on_c, 9, 44, 0
1, 126239, Note_on_c, 9, 41, 0
1, 126240, Note_on_c, 9, 40, 110
1, 126240, Note_on_c, 9, 44, 110
1, 126262, Note_on_c, 9, 44, 0
1, 126480, Note_on_c, 9, 44, 110
1, 126502, Note_on_c, 9, 44, 0
1, 126719, Note_on_c, 9, 40, 0
1, 126720, Note_on_c, 9, 41, 110
1, 126720, Note_on_c, 9, 44, 110
1, 126742, Note_on_c, 9, 44, 0
1, 126959, Note_on_c, 9, 41, 0
1, 126960, Note_on_c, 9, 41, 110
1, 126960, Note_on_c, 9, 44, 110
1, 126982, Note_on_c, 9, 44, 0
1, 127199, Note_on_c, 9, 41, 0
1, 127200, Note_on_c, 9, 40, 110
1, 127200, Note_on_c, 9, 44, 110
1, 127245, Note_on_c, 9, 44, 0
1, 127439, Note_on_c, 9, 40, 0
1, 127440, Note_on_c, 9, 41, 110
1, 127440, Note_on_c, 9, 55, 110
1, 127462, Note_on_c, 9, 55, 0
1, 127679, Note_on_c, 9, 41, 0
1, 127920, Note_on_c, 9, 41, 110
1, 127920, Note_on_c, 9, 44, 110
1, 127942, Note_on_c, 9, 44, 0
1, 128159, Note_on_c, 9, 41, 0
1, 128160, Note_on_c, 9, 40, 110
1, 128160, Note_on_c, 9, 44, 110
1, 128182, Note_on_c, 9, 44, 0
1, 128400, Note_on_c, 9, 44, 110
1, 128422, Note_on_c, 9, 44, 0
1, 128639, Note_on_c, 9, 40, 0
1, 128640, Note_on_c, 9, 41, 110
1, 128640, Note_on_c, 9, 44, 110
1, 128662, Note_on_c, 9, 44, 0
1, 128879, Note_on_c, 9, 41, 0
1, 128880, Note_on_c, 9, 41, 110
1, 128880, Note_on_c, 9, 44, 110
1, 128902, Note_on_c, 9, 44, 0
1, 129119, Note_on_c, 9, 41, 0
1, 129120, Note_on_c, 9, 40, 110
1, 129120, Note_on_c, 9, 44, 110
1, 129165, Note_on_c, 9, 44, 0
1, 129359, Note_on_c, 9, 40, 0
1, 129360, Note_on_c, 9, 41, 110
1, 129360, Note_on_c, 9, 55, 110
1, 129382, Note_on_c, 9, 55, 0
1, 129599, Note_on_c, 9, 41, 0
1, 129840, Note_on_c, 9, 41, 110
1, 129840, Note_on_c, 9, 44, 110
1, 129862, Note_on_c, 9, 44, 0
1, 130079, Note_on_c, 9, 41, 0
1, 130080, Note_on_c, 9, 40, 110
1, 130080, Note_on_c, 9, 44, 110
1, 130102, Note_on_c, 9, 44, 0
1, 130320, Note_on_c, 9, 44, 110
1, 130342, Note_on_c, 9, 44, 0
1, 130559, Note_on_c, 9, 40, 0
1, 130560, Note_on_c, 9, 41, 110
1, 130560, Note_on_c, 9, 44, 110
1, 130582, Note_on_c, 9, 44, 0
1, 130799, Note_on_c, 9, 41, 0
1, 130800, Note_on_c, 9, 41, 110
1, 130800, Note_on_c, 9, 44, 110
1, 130822, Note_on_c, 9, 44, 0
1, 131039, Note_on_c, 9, 41, 0
1, 131040, Note_on_c, 9, 40, 110
1, 131040, Note_on_c, 9, 44, 110
1, 131085, Note_on_c, 9, 44, 0
1, 131279, Note_on_c, 9, 40, 0
1, 131280, Note_on_c, 9, 41, 110
1, 131280, Note_on_c, 9, 55, 110
1, 131302, Note_on_c, 9, 55, 0
1, 131519, Note_on_c, 9, 41, 0
1, 131760, Note_on_c, 9, 41, 110
1, 131760, Note_on_c, 9, 44, 110
1, 131782, Note_on_c, 9, 44, 0
1, 131999, Note_on_c, 9, 41, 0
1, 132000, Note_on_c, 9, 40, 110
1, 132000, Note_on_c, 9, 44, 110
1, 132022, Note_on_c, 9, 44, 0
1, 132240, Note_on_c, 9, 44, 110
1, 132262, Note_on_c, 9, 44, 0
1, 132479, Note_on_c, 9, 40, 0
1, 132480, Note_on_c, 9, 41, 110
1, 132480, Note_on_c, 9, 44, 110
1, 132502, Note_on_c, 9, 44, 0
1, 132719, Note_on_c, 9, 41, 0
1, 132720, Note_on_c, 9, 41, 110
1, 132720, Note_on_c, 9, 44, 110
1, 132742, Note_on_c, 9, 44, 0
1, 132959, Note_on_c, 9, 41, 0
1, 132960, Note_on_c, 9, 40, 110
1, 132960, Note_on_c, 9, 44, 110
1, 133005, Note_on_c, 9, 44, 0
1, 133199, Note_on_c, 9, 40, 0
1, 133200, Note_on_c, 9, 41, 110
1, 133200, Note_on_c, 9, 55, 110
1, 133222, Note_on_c, 9, 55, 0
1, 133439, Note_on_c, 9, 41, 0
1, 133680, Note_on_c, 9, 41, 110
1, 133680, Note_on_c, 9, 44, 110
1, 133702, Note_on_c, 9, 44, 0
1, 133919, Note_on_c, 9, 41, 0
1, 133920, Note_on_c, 9, 40, 110
1, 133920, Note_on_c, 9, 44, 110
1, 133942, Note_on_c, 9, 44, 0
1, 134159, Note_on_c, 9, 40, 0
1, 134160, Note_on_c, 9, 55, 110
1, 134160, Note_on_c, 9, 44, 110
1, 134182, Note_on_c, 9, 55, 0
1, 134182, Note_on_c, 9, 44, 0
1, 134400, Note_on_c, 9, 41, 110
1, 134400, Note_on_c, 9, 44, 110
1, 134422, Note_on_c, 9, 44, 0
1, 134639, Note_on_c, 9, 41, 0
1, 134640, Note_on_c, 9, 41, 110
1, 134640, Note_on_c, 9, 44, 110
1, 134662, Note_on_c, 9, 44, 0
1, 134879, Note_on_c, 9, 41, 0
1, 134880, Note_on_c, 9, 40, 110
1, 134880, Note_on_c, 9, 44, 110
1, 134925, Note_on_c, 9, 44, 0
1, 135119, Note_on_c, 9, 40, 0
1, 135120, Note_on_c, 9, 41, 110
1, 135120, Note_on_c, 9, 55, 110
1, 135142, Note_on_c, 9, 55, 0
1, 135359, Note_on_c, 9, 41, 0
1, 135600, Note_on_c, 9, 41, 110
1, 135600, Note_on_c, 9, 44, 110
1, 135622, Note_on_c, 9, 44, 0
1, 135839, Note_on_c, 9, 41, 0
1, 135840, Note_on_c, 9, 40, 110
1, 135840, Note_on_c, 9, 44, 110
1, 135862, Note_on_c, 9, 44, 0
1, 136080, Note_on_c, 9, 44, 110
1, 136102, Note_on_c, 9, 44, 0
1, 136319, Note_on_c, 9, 40, 0
1, 136320, Note_on_c, 9, 41, 110
1, 136320, Note_on_c, 9, 44, 110
1, 136342, Note_on_c, 9, 44, 0
1, 136559, Note_on_c, 9, 41, 0
1, 136560, Note_on_c, 9, 41, 110
1, 136560, Note_on_c, 9, 44, 110
1, 136582, Note_on_c, 9, 44, 0
1, 136799, Note_on_c, 9, 41, 0
1, 136800, Note_on_c, 9, 40, 110
1, 136800, Note_on_c, 9, 44, 110
1, 136822, Note_on_c, 9, 44, 0
1, 137040, Note_on_c, 9, 44, 110
1, 137062, Note_on_c, 9, 44, 0
1, 137279, Note_on_c, 9, 40, 0
1, 137280, Note_on_c, 9, 41, 110
1, 137280, Note_on_c, 9, 44, 110
1, 137302, Note_on_c, 9, 44, 0
1, 137519, Note_on_c, 9, 41, 0
1, 137520, Note_on_c, 9, 41, 110
1, 137520, Note_on_c, 9, 44, 110
1, 137542, Note_on_c, 9, 44, 0
1, 137759, Note_on_c, 9, 41, 0
1, 137760, Note_on_c, 9, 40, 110
1, 137760, Note_on_c, 9, 44, 110
1, 137782, Note_on_c, 9, 44, 0
1, 138000, Note_on_c, 9, 44, 110
1, 138022, Note_on_c, 9, 44, 0
1, 138239, Note_on_c, 9, 40, 0
1, 138240, Note_on_c, 9, 41, 110
1, 138240, Note_on_c, 9, 44, 110
1, 138262, Note_on_c, 9, 44, 0
1, 138479, Note_on_c, 9, 41, 0
1, 138480, Note_on_c, 9, 41, 110
1, 138480, Note_on_c, 9, 44, 110
1, 138502, Note_on_c, 9, 44, 0
1, 138719, Note_on_c, 9, 41, 0
1, 138720, Note_on_c, 9, 40, 110
1, 138720, Note_on_c, 9, 44, 110
1, 138765, Note_on_c, 9, 44, 0
1, 138959, Note_on_c, 9, 40, 0
1, 138960, Note_on_c, 9, 41, 110
1, 138960, Note_on_c, 9, 55, 110
1, 138982, Note_on_c, 9, 55, 0
1, 139199, Note_on_c, 9, 41, 0
1, 139440, Note_on_c, 9, 41, 110
1, 139440, Note_on_c, 9, 44, 110
1, 139462, Note_on_c, 9, 44, 0
1, 139679, Note_on_c, 9, 41, 0
1, 139680, Note_on_c, 9, 40, 110
1, 139680, Note_on_c, 9, 44, 110
1, 139702, Note_on_c, 9, 44, 0
1, 139920, Note_on_c, 9, 44, 110
1, 139942, Note_on_c, 9, 44, 0
1, 140159, Note_on_c, 9, 40, 0
1, 140160, Note_on_c, 9, 41, 110
1, 140160, Note_on_c, 9, 44, 110
1, 140182, Note_on_c, 9, 44, 0
1, 140399, Note_on_c, 9, 41, 0
1, 140400, Note_on_c, 9, 41, 110
1, 140400, Note_on_c, 9, 44, 110
1, 140422, Note_on_c, 9, 44, 0
1, 140639, Note_on_c, 9, 41, 0
1, 140640, Note_on_c, 9, 40, 110
1, 140640, Note_on_c, 9, 44, 110
1, 140685, Note_on_c, 9, 44, 0
1, 140879, Note_on_c, 9, 40, 0
1, 140880, Note_on_c, 9, 41, 110
1, 140880, Note_on_c, 9, 55, 110
1, 140902, Note_on_c, 9, 55, 0
1, 141119, Note_on_c, 9, 41, 0
1, 141360, Note_on_c, 9, 41, 110
1, 141360, Note_on_c, 9, 44, 110
1, 141382, Note_on_c, 9, 44, 0
1, 141599, Note_on_c, 9, 41, 0
1, 141600, Note_on_c, 9, 40, 110
1, 141600, Note_on_c, 9, 44, 110
1, 141622, Note_on_c, 9, 44, 0
1, 141840, Note_on_c, 9, 44, 110
1, 141862, Note_on_c, 9, 44, 0
1, 142079, Note_on_c, 9, 40, 0
1, 142080, Note_on_c, 9, 41, 110
1, 142080, Note_on_c, 9, 44, 110
1, 142102, Note_on_c, 9, 44, 0
1, 142319, Note_on_c, 9, 41, 0
1, 142320, Note_on_c, 9, 41, 110
1, 142320, Note_on_c, 9, 44, 110
1, 142342, Note_on_c, 9, 44, 0
1, 142559, Note_on_c, 9, 41, 0
1, 142560, Note_on_c, 9, 40, 110
1, 142560, Note_on_c, 9, 44, 110
1, 142605, Note_on_c, 9, 44, 0
1, 142799, Note_on_c, 9, 40, 0
1, 142800, Note_on_c, 9, 41, 110
1, 142800, Note_on_c, 9, 55, 110
1, 142822, Note_on_c, 9, 55, 0
1, 143039, Note_on_c, 9, 41, 0
1, 143280, Note_on_c, 9, 41, 110
1, 143280, Note_on_c, 9, 44, 110
1, 143302, Note_on_c, 9, 44, 0
1, 143519, Note_on_c, 9, 41, 0
1, 143520, Note_on_c, 9, 40, 110
1, 143520, Note_on_c, 9, 44, 110
1, 143542, Note_on_c, 9, 44, 0
1, 143760, Note_on_c, 9, 44, 110
1, 143782, Note_on_c, 9, 44, 0
1, 143999, Note_on_c, 9, 40, 0
1, 144000, Note_on_c, 9, 41, 110
1, 144000, Note_on_c, 9, 44, 110
1, 144022, Note_on_c, 9, 44, 0
1, 144239, Note_on_c, 9, 41, 0
1, 144240, Note_on_c, 9, 41, 110
1, 144240, Note_on_c, 9, 44, 110
1, 144262, Note_on_c, 9, 44, 0
1, 144479, Note_on_c, 9, 41, 0
1, 144480, Note_on_c, 9, 40, 110
1, 144480, Note_on_c, 9, 44, 110
1, 144525, Note_on_c, 9, 44, 0
1, 144719, Note_on_c, 9, 40, 0
1, 144720, Note_on_c, 9, 41, 110
1, 144720, Note_on_c, 9, 55, 110
1, 144742, Note_on_c, 9, 55, 0
1, 144959, Note_on_c, 9, 41, 0
1, 145200, Note_on_c, 9, 41, 110
1, 145200, Note_on_c, 9, 44, 110
1, 145222, Note_on_c, 9, 44, 0
1, 145439, Note_on_c, 9, 41, 0
1, 145440, Note_on_c, 9, 40, 110
1, 145440, Note_on_c, 9, 44, 110
1, 145462, Note_on_c, 9, 44, 0
1, 145680, Note_on_c, 9, 44, 110
1, 145702, Note_on_c, 9, 44, 0
1, 145919, Note_on_c, 9, 40, 0
1, 145920, Note_on_c, 9, 41, 110
1, 145920, Note_on_c, 9, 44, 110
1, 145942, Note_on_c, 9, 44, 0
1, 146159, Note_on_c, 9, 41, 0
1, 146160, Note_on_c, 9, 41, 110
1, 146160, Note_on_c, 9, 44, 110
1, 146182, Note_on_c, 9, 44, 0
1, 146399, Note_on_c, 9, 41, 0
1, 146400, Note_on_c, 9, 40, 110
1, 146400, Note_on_c, 9, 44, 110
1, 146445, Note_on_c, 9, 44, 0
1, 146639, Note_on_c, 9, 40, 0
1, 146640, Note_on_c, 9, 41, 110
1, 146640, Note_on_c, 9, 55, 110
1, 146662, Note_on_c, 9, 55, 0
1, 146879, Note_on_c, 9, 41, 0
1, 147120, Note_on_c, 9, 41, 110
1, 147120, Note_on_c, 9, 44, 110
1, 147142, Note_on_c, 9, 44, 0
1, 147359, Note_on_c, 9, 41, 0
1, 147360, Note_on_c, 9, 40, 110
1, 147360, Note_on_c, 9, 44, 110
1, 147382, Note_on_c, 9, 44, 0
1, 147600, Note_on_c, 9, 44, 110
1, 147622, Note_on_c, 9, 44, 0
1, 147839, Note_on_c, 9, 40, 0
1, 147840, Note_on_c, 9, 41, 110
1, 147840, Note_on_c, 9, 44, 110
1, 147862, Note_on_c, 9, 44, 0
1, 148079, Note_on_c, 9, 41, 0
1, 148080, Note_on_c, 9, 41, 110
1, 148080, Note_on_c, 9, 44, 110
1, 148102, Note_on_c, 9, 44, 0
1, 148319, Note_on_c, 9, 41, 0
1, 148320, Note_on_c, 9, 40, 110
1, 148320, Note_on_c, 9, 44, 110
1, 148365, Note_on_c, 9, 44, 0
1, 148559, Note_on_c, 9, 40, 0
1, 148560, Note_on_c, 9, 41, 110
1, 148560, Note_on_c, 9, 55, 110
1, 148582, Note_on_c, 9, 55, 0
1, 148799, Note_on_c, 9, 41, 0
1, 149040, Note_on_c, 9, 41, 110
1, 149040, Note_on_c, 9, 44, 110
1, 149062, Note_on_c, 9, 44, 0
1, 149279, Note_on_c, 9, 41, 0
1, 149280, Note_on_c, 9, 40, 110
1, 149280, Note_on_c, 9, 44, 110
1, 149302, Note_on_c, 9, 44, 0
1, 149519, Note_on_c, 9, 40, 0
1, 149520, Note_on_c, 9, 55, 110
1, 149520, Note_on_c, 9, 44, 110
1, 149542, Note_on_c, 9, 55, 0
1, 149542, Note_on_c, 9, 44, 0
1, 149760, Note_on_c, 9, 41, 110
1, 149760, Note_on_c, 9, 44, 110
1, 149782, Note_on_c, 9, 44, 0
1, 149999, Note_on_c, 9, 41, 0
1, 150000, Note_on_c, 9, 41, 110
1, 150000, Note_on_c, 9, 44, 110
1, 150022, Note_on_c, 9, 44, 0
1, 150239, Note_on_c, 9, 41, 0
1, 150240, Note_on_c, 9, 40, 110
1, 150240, Note_on_c, 9, 44, 110
1, 150285, Note_on_c, 9, 44, 0
1, 150479, Note_on_c, 9, 40, 0
1, 150480, Note_on_c, 9, 41, 110
1, 150480, Note_on_c, 9, 55, 110
1, 150502, Note_on_c, 9, 55, 0
1, 150719, Note_on_c, 9, 41, 0
1, 150960, Note_on_c, 9, 41, 110
1, 150960, Note_on_c, 9, 44, 110
1, 150982, Note_on_c, 9, 44, 0
1, 151199, Note_on_c, 9, 41, 0
1, 151200, Note_on_c, 9, 40, 110
1, 151200, Note_on_c, 9, 44, 110
1, 151222, Note_on_c, 9, 44, 0
1, 151440, Note_on_c, 9, 44, 110
1, 151462, Note_on_c, 9, 44, 0
1, 151679, Note_on_c, 9, 40, 0
1, 151680, Note_on_c, 9, 41, 110
1, 151680, Note_on_c, 9, 44, 110
1, 151702, Note_on_c, 9, 44, 0
1, 151919, Note_on_c, 9, 41, 0
1, 151920, Note_on_c, 9, 41, 110
1, 151920, Note_on_c, 9, 44, 110
1, 151942, Note_on_c, 9, 44, 0
1, 152159, Note_on_c, 9, 41, 0
1, 152160, Note_on_c, 9, 40, 110
1, 152160, Note_on_c, 9, 44, 110
1, 152182, Note_on_c, 9, 44, 0
1, 152400, Note_on_c, 9, 44, 110
1, 152422, Note_on_c, 9, 44, 0
1, 152639, Note_on_c, 9, 40, 0
1, 152640, Note_on_c, 9, 41, 110
1, 152640, Note_on_c, 9, 44, 110
1, 152662, Note_on_c, 9, 44, 0
1, 152879, Note_on_c, 9, 41, 0
1, 152880, Note_on_c, 9, 41, 110
1, 152880, Note_on_c, 9, 44, 110
1, 152902, Note_on_c, 9, 44, 0
1, 153119, Note_on_c, 9, 41, 0
1, 153120, Note_on_c, 9, 40, 110
1, 153120, Note_on_c, 9, 44, 110
1, 153142, Note_on_c, 9, 44, 0
1, 153360, Note_on_c, 9, 44, 110
1, 153382, Note_on_c, 9, 44, 0
1, 153599, Note_on_c, 9, 40, 0
1, 153600, Note_on_c, 9, 41, 110
1, 153600, Note_on_c, 9, 44, 110
1, 153622, Note_on_c, 9, 44, 0
1, 153839, Note_on_c, 9, 41, 0
1, 153840, Note_on_c, 9, 41, 110
1, 153840, Note_on_c, 9, 44, 110
1, 153862, Note_on_c, 9, 44, 0
1, 154079, Note_on_c, 9, 41, 0
1, 154080, Note_on_c, 9, 40, 110
1, 154080, Note_on_c, 9, 44, 110
1, 154125, Note_on_c, 9, 44, 0
1, 154319, Note_on_c, 9, 40, 0
1, 154320, Note_on_c, 9, 41, 110
1, 154320, Note_on_c, 9, 55, 110
1, 154342, Note_on_c, 9, 55, 0
1, 154559, Note_on_c, 9, 41, 0
1, 154800, Note_on_c, 9, 41, 110
1, 154800, Note_on_c, 9, 44, 110
1, 154822, Note_on_c, 9, 44, 0
1, 155039, Note_on_c, 9, 41, 0
1, 155040, Note_on_c, 9, 40, 110
1, 155040, Note_on_c, 9, 44, 110
1, 155062, Note_on_c, 9, 44, 0
1, 155280, Note_on_c, 9, 44, 110
1, 155302, Note_on_c, 9, 44, 0
1, 155519, Note_on_c, 9, 40, 0
1, 155520, Note_on_c, 9, 41, 110
1, 155520, Note_on_c, 9, 44, 110
1, 155542, Note_on_c, 9, 44, 0
1, 155759, Note_on_c, 9, 41, 0
1, 155760, Note_on_c, 9, 41, 110
1, 155760, Note_on_c, 9, 44, 110
1, 155782, Note_on_c, 9, 44, 0
1, 155999, Note_on_c, 9, 41, 0
1, 156000, Note_on_c, 9, 40, 110
1, 156000, Note_on_c, 9, 44, 110
1, 156045, Note_on_c, 9, 44, 0
1, 156239, Note_on_c, 9, 40, 0
1, 156240, Note_on_c, 9, 41, 110
1, 156240, Note_on_c, 9, 55, 110
1, 156262, Note_on_c, 9, 55, 0
1, 156479, Note_on_c, 9, 41, 0
1, 156720, Note_on_c, 9, 41, 110
1, 156720, Note_on_c, 9, 44, 110
1, 156742, Note_on_c, 9, 44, 0
1, 156959, Note_on_c, 9, 41, 0
1, 156960, Note_on_c, 9, 40, 110
1, 156960, Note_on_c, 9, 44, 110
1, 156982, Note_on_c, 9, 44, 0
1, 157200, Note_on_c, 9, 44, 110
1, 157222, Note_on_c, 9, 44, 0
1, 157439, Note_on_c, 9, 40, 0
1, 157440, Note_on_c, 9, 41, 110
1, 157440, Note_on_c, 9, 44, 110
1, 157462, Note_on_c, 9, 44, 0
1, 157679, Note_on_c, 9, 41, 0
1, 157680, Note_on_c, 9, 41, 110
1, 157680, Note_on_c, 9, 44, 110
1, 157702, Note_on_c, 9, 44, 0
1, 157919, Note_on_c, 9, 41, 0
1, 157920, Note_on_c, 9, 40, 110
1, 157920, Note_on_c, 9, 44, 110
1, 157965, Note_on_c, 9, 44, 0
1, 158159, Note_on_c, 9, 40, 0
1, 158160, Note_on_c, 9, 41, 110
1, 158160, Note_on_c, 9, 55, 110
1, 158182, Note_on_c, 9, 55, 0
1, 158399, Note_on_c, 9, 41, 0
1, 158640, Note_on_c, 9, 41, 110
1, 158640, Note_on_c, 9, 44, 110
1, 158662, Note_on_c, 9, 44, 0
1, 158879, Note_on_c, 9, 41, 0
1, 158880, Note_on_c, 9, 40, 110
1, 158880, Note_on_c, 9, 44, 110
1, 158902, Note_on_c, 9, 44, 0
1, 159120, Note_on_c, 9, 44, 110
1, 159142, Note_on_c, 9, 44, 0
1, 159359, Note_on_c, 9, 40, 0
1, 159360, Note_on_c, 9, 41, 110
1, 159360, Note_on_c, 9, 44, 110
1, 159382, Note_on_c, 9, 44, 0
1, 159599, Note_on_c, 9, 41, 0
1, 159600, Note_on_c, 9, 41, 110
1, 159600, Note_on_c, 9, 44, 110
1, 159622, Note_on_c, 9, 44, 0
1, 159839, Note_on_c, 9, 41, 0
1, 159840, Note_on_c, 9, 40, 110
1, 159840, Note_on_c, 9, 44, 110
1, 159885, Note_on_c, 9, 44, 0
1, 160079, Note_on_c, 9, 40, 0
1, 160080, Note_on_c, 9, 41, 110
1, 160080, Note_on_c, 9, 55, 110
1, 160102, Note_on_c, 9, 55, 0
1, 160319, Note_on_c, 9, 41, 0
1, 160560, Note_on_c, 9, 41, 110
1, 160560, Note_on_c, 9, 44, 110
1, 160582, Note_on_c, 9, 44, 0
1, 160799, Note_on_c, 9, 41, 0
1, 160800, Note_on_c, 9, 40, 110
1, 160800, Note_on_c, 9, 44, 110
1, 160822, Note_on_c, 9, 44, 0
1, 161039, Note_on_c, 9, 40, 0
1, 161040, Note_on_c, 9, 55, 110
1, 161040, Note_on_c, 9, 44, 110
1, 161062, Note_on_c, 9, 55, 0
1, 161062, Note_on_c, 9, 44, 0
1, 161280, Note_on_c, 9, 41, 110
1, 161280, Note_on_c, 9, 44, 110
1, 161302, Note_on_c, 9, 44, 0
1, 161519, Note_on_c, 9, 41, 0
1, 161520, Note_on_c, 9, 41, 110
1, 161520, Note_on_c, 9, 44, 110
1, 161542, Note_on_c, 9, 44, 0
1, 161759, Note_on_c, 9, 41, 0
1, 161760, Note_on_c, 9, 40, 110
1, 161760, Note_on_c, 9, 44, 110
1, 161805, Note_on_c, 9, 44, 0
1, 161999, Note_on_c, 9, 40, 0
1, 162000, Note_on_c, 9, 41, 110
1, 162000, Note_on_c, 9, 55, 110
1, 162022, Note_on_c, 9, 55, 0
1, 162239, Note_on_c, 9, 41, 0
1, 162480, Note_on_c, 9, 41, 110
1, 162480, Note_on_c, 9, 44, 110
1, 162502, Note_on_c, 9, 44, 0
1, 162719, Note_on_c, 9, 41, 0
1, 162720, Note_on_c, 9, 40, 110
1, 162720, Note_on_c, 9, 44, 110
1, 162742, Note_on_c, 9, 44, 0
1, 162960, Note_on_c, 9, 44, 110
1, 162982, Note_on_c, 9, 44, 0
1, 163199, Note_on_c, 9, 40, 0
1, 163200, Note_on_c, 9, 41, 110
1, 163200, Note_on_c, 9, 44, 110
1, 163222, Note_on_c, 9, 44, 0
1, 163439, Note_on_c, 9, 41, 0
1, 163440, Note_on_c, 9, 41, 110
1, 163440, Note_on_c, 9, 44, 110
1, 163462, Note_on_c, 9, 44, 0
1, 163679, Note_on_c, 9, 41, 0
1, 163680, Note_on_c, 9, 40, 110
1, 163680, Note_on_c, 9, 44, 110
1, 163725, Note_on_c, 9, 44, 0
1, 163919, Note_on_c, 9, 40, 0
1, 163920, Note_on_c, 9, 41, 110
1, 163920, Note_on_c, 9, 55, 110
1, 163942, Note_on_c, 9, 55, 0
1, 164159, Note_on_c, 9, 41, 0
1, 164400, Note_on_c, 9, 41, 110
1, 164400, Note_on_c, 9, 44, 110
1, 164422, Note_on_c, 9, 44, 0
1, 164639, Note_on_c, 9, 41, 0
1, 164640, Note_on_c, 9, 40, 110
1, 164640, Note_on_c, 9, 44, 110
1, 164662, Note_on_c, 9, 44, 0
1, 164880, Note_on_c, 9, 44, 110
1, 164902, Note_on_c, 9, 44, 0
1, 165119, Note_on_c, 9, 40, 0
1, 165120, Note_on_c, 9, 41, 110
1, 165120, Note_on_c, 9, 44, 110
1, 165142, Note_on_c, 9, 44, 0
1, 165359, Note_on_c, 9, 41, 0
1, 165360, Note_on_c, 9, 41, 110
1, 165360, Note_on_c, 9, 44, 110
1, 165382, Note_on_c, 9, 44, 0
1, 165599, Note_on_c, 9, 41, 0
1, 165600, Note_on_c, 9, 40, 110
1, 165600, Note_on_c, 9, 44, 110
1, 165645, Note_on_c, 9, 44, 0
1, 165839, Note_on_c, 9, 40, 0
1, 165840, Note_on_c, 9, 41, 110
1, 165840, Note_on_c, 9, 55, 110
1, 165862, Note_on_c, 9, 55, 0
1, 166079, Note_on_c, 9, 41, 0
1, 166320, Note_on_c, 9, 41, 110
1, 166320, Note_on_c, 9, 44, 110
1, 166342, Note_on_c, 9, 44, 0
1, 166559, Note_on_c, 9, 41, 0
1, 166560, Note_on_c, 9, 40, 110
1, 166560, Note_on_c, 9, 44, 110
1, 166582, Note_on_c, 9, 44, 0
1, 166800, Note_on_c, 9, 44, 110
1, 166822, Note_on_c, 9, 44, 0
1, 167039, Note_on_c, 9, 40, 0
1, 167040, Note_on_c, 9, 41, 110
1, 167040, Note_on_c, 9, 44, 110
1, 167062, Note_on_c, 9, 44, 0
1, 167279, Note_on_c, 9, 41, 0
1, 167280, Note_on_c, 9, 41, 110
1, 167280, Note_on_c, 9, 44, 110
1, 167302, Note_on_c, 9, 44, 0
1, 167519, Note_on_c, 9, 41, 0
1, 167520, Note_on_c, 9, 40, 110
1, 167520, Note_on_c, 9, 44, 110
1, 167542, Note_on_c, 9, 44, 0
1, 167760, Note_on_c, 9, 44, 110
1, 167782, Note_on_c, 9, 44, 0
1, 167999, Note_on_c, 9, 40, 0
1, 168000, Note_on_c, 9, 41, 110
1, 168000, Note_on_c, 9, 44, 110
1, 168022, Note_on_c, 9, 44, 0
1, 168239, Note_on_c, 9, 41, 0
1, 168240, Note_on_c, 9, 41, 110
1, 168240, Note_on_c, 9, 44, 110
1, 168262, Note_on_c, 9, 44, 0
1, 168479, Note_on_c, 9, 41, 0
1, 168480, Note_on_c, 9, 40, 110
1, 168480, Note_on_c, 9, 44, 110
1, 168502, Note_on_c, 9, 44, 0
1, 168720, Note_on_c, 9, 44, 110
1, 168742, Note_on_c, 9, 44, 0
1, 168959, Note_on_c, 9, 40, 0
1, 168960, Note_on_c, 9, 41, 110
1, 168960, Note_on_c, 9, 44, 110
1, 168982, Note_on_c, 9, 44, 0
1, 169199, Note_on_c, 9, 41, 0
1, 169200, Note_on_c, 9, 41, 110
1, 169200, Note_on_c, 9, 44, 110
1, 169222, Note_on_c, 9, 44, 0
1, 169439, Note_on_c, 9, 41, 0
1, 169440, Note_on_c, 9, 40, 110
1, 169440, Note_on_c, 9, 44, 110
1, 169485, Note_on_c, 9, 44, 0
1, 169679, Note_on_c, 9, 40, 0
1, 169680, Note_on_c, 9, 41, 110
1, 169680, Note_on_c, 9, 55, 110
1, 169702, Note_on_c, 9, 55, 0
1, 169919, Note_on_c, 9, 41, 0
1, 170160, Note_on_c, 9, 41, 110
1, 170160, Note_on_c, 9, 44, 110
1, 170182, Note_on_c, 9, 44, 0
1, 170399, Note_on_c, 9, 41, 0
1, 170400, Note_on_c, 9, 40, 110
1, 170400, Note_on_c, 9, 44, 110
1, 170422, Note_on_c, 9, 44, 0
1, 170640, Note_on_c, 9, 44, 110
1, 170662, Note_on_c, 9, 44, 0
1, 170879, Note_on_c, 9, 40, 0
1, 170880, Note_on_c, 9, 41, 110
1, 170880, Note_on_c, 9, 44, 110
1, 170902, Note_on_c, 9, 44, 0
1, 171119, Note_on_c, 9, 41, 0
1, 171120, Note_on_c, 9, 41, 110
1, 171120, Note_on_c, 9, 44, 110
1, 171142, Note_on_c, 9, 44, 0
1, 171359, Note_on_c, 9, 41, 0
1, 171360, Note_on_c, 9, 40, 110
1, 171360, Note_on_c, 9, 44, 110
1, 171405, Note_on_c, 9, 44, 0
1, 171599, Note_on_c, 9, 40, 0
1, 171600, Note_on_c, 9, 41, 110
1, 171600, Note_on_c, 9, 55, 110
1, 171622, Note_on_c, 9, 55, 0
1, 171839, Note_on_c, 9, 41, 0
1, 172080, Note_on_c, 9, 41, 110
1, 172080, Note_on_c, 9, 44, 110
1, 172102, Note_on_c, 9, 44, 0
1, 172319, Note_on_c, 9, 41, 0
1, 172320, Note_on_c, 9, 40, 110
1, 172320, Note_on_c, 9, 44, 110
1, 172342, Note_on_c, 9, 44, 0
1, 172560, Note_on_c, 9, 44, 110
1, 172582, Note_on_c, 9, 44, 0
1, 172799, Note_on_c, 9, 40, 0
1, 172800, Note_on_c, 9, 41, 110
1, 172800, Note_on_c, 9, 44, 110
1, 172822, Note_on_c, 9, 44, 0
1, 173039, Note_on_c, 9, 41, 0
1, 173040, Note_on_c, 9, 41, 110
1, 173040, Note_on_c, 9, 44, 110
1, 173062, Note_on_c, 9, 44, 0
1, 173279, Note_on_c, 9, 41, 0
1, 173280, Note_on_c, 9, 40, 110
1, 173280, Note_on_c, 9, 44, 110
1, 173325, Note_on_c, 9, 44, 0
1, 173519, Note_on_c, 9, 40, 0
1, 173520, Note_on_c, 9, 41, 110
1, 173520, Note_on_c, 9, 55, 110
1, 173542, Note_on_c, 9, 55, 0
1, 173759, Note_on_c, 9, 41, 0
1, 174000, Note_on_c, 9, 41, 110
1, 174000, Note_on_c, 9, 44, 110
1, 174022, Note_on_c, 9, 44, 0
1, 174239, Note_on_c, 9, 41, 0
1, 174240, Note_on_c, 9, 40, 110
1, 174240, Note_on_c, 9, 44, 110
1, 174262, Note_on_c, 9, 44, 0
1, 174480, Note_on_c, 9, 44, 110
1, 174502, Note_on_c, 9, 44, 0
1, 174719, Note_on_c, 9, 40, 0
1, 174720, Note_on_c, 9, 41, 110
1, 174720, Note_on_c, 9, 44, 110
1, 174742, Note_on_c, 9, 44, 0
1, 174959, Note_on_c, 9, 41, 0
1, 174960, Note_on_c, 9, 41, 110
1, 174960, Note_on_c, 9, 44, 110
1, 174982, Note_on_c, 9, 44, 0
1, 175199, Note_on_c, 9, 41, 0
1, 175200, Note_on_c, 9, 40, 110
1, 175200, Note_on_c, 9, 44, 110
1, 175245, Note_on_c, 9, 44, 0
1, 175439, Note_on_c, 9, 40, 0
1, 175440, Note_on_c, 9, 41, 110
1, 175440, Note_on_c, 9, 55, 110
1, 175462, Note_on_c, 9, 55, 0
1, 175679, Note_on_c, 9, 41, 0
1, 175920, Note_on_c, 9, 41, 110
1, 175920, Note_on_c, 9, 44, 110
1, 175942, Note_on_c, 9, 44, 0
1, 176159, Note_on_c, 9, 41, 0
1, 176160, Note_on_c, 9, 40, 110
1, 176160, Note_on_c, 9, 44, 110
1, 176182, Note_on_c, 9, 44, 0
1, 176399, Note_on_c, 9, 40, 0
1, 176400, Note_on_c, 9, 55, 110
1, 176400, Note_on_c, 9, 44, 110
1, 176422, Note_on_c, 9, 55, 0
1, 176422, Note_on_c, 9, 44, 0
1, 176640, Note_on_c, 9, 41, 110
1, 176640, Note_on_c, 9, 44, 110
1, 176662, Note_on_c, 9, 44, 0
1, 176879, Note_on_c, 9, 41, 0
1, 176880, Note_on_c, 9, 41, 110
1, 176880, Note_on_c, 9, 44, 110
1, 176902, Note_on_c, 9, 44, 0
1, 177119, Note_on_c, 9, 41, 0
1, 177120, Note_on_c, 9, 40, 110
1, 177120, Note_on_c, 9, 44, 110
1, 177165, Note_on_c, 9, 44, 0
1, 177359, Note_on_c, 9, 40, 0
1, 177360, Note_on_c, 9, 41, 110
1, 177360, Note_on_c, 9, 55, 110
1, 177382, Note_on_c, 9, 55, 0
1, 177599, Note_on_c, 9, 41, 0
1, 177840, Note_on_c, 9, 41, 110
1, 177840, Note_on_c, 9, 44, 110
1, 177862, Note_on_c, 9, 44, 0
1, 178079, Note_on_c, 9, 41, 0
1, 178080, Note_on_c, 9, 40, 110
1, 178080, Note_on_c, 9, 44, 110
1, 178102, Note_on_c, 9, 44, 0
1, 178320, Note_on_c, 9, 44, 110
1, 178342, Note_on_c, 9, 44, 0
1, 178559, Note_on_c, 9, 40, 0
1, 178560, Note_on_c, 9, 41, 110
1, 178560, Note_on_c, 9, 44, 110
1, 178582, Note_on_c, 9, 44, 0
1, 178799, Note_on_c, 9, 41, 0
1, 178800, Note_on_c, 9, 41, 110
1, 178800, Note_on_c, 9, 44, 110
1, 178822, Note_on_c, 9, 44, 0
1, 179039, Note_on_c, 9, 41, 0
1, 179040, Note_on_c, 9, 40, 110
1, 179040, Note_on_c, 9, 44, 110
1, 179085, Note_on_c, 9, 44, 0
1, 179279, Note_on_c, 9, 40, 0
1, 179280, Note_on_c, 9, 41, 110
1, 179280, Note_on_c, 9, 55, 110
1, 179302, Note_on_c, 9, 55, 0
1, 179519, Note_on_c, 9, 41, 0
1, 179760, Note_on_c, 9, 41, 110
1, 179760, Note_on_c, 9, 44, 110
1, 179782, Note_on_c, 9, 44, 0
1, 179999, Note_on_c, 9, 41, 0
1, 180000, Note_on_c, 9, 40, 110
1, 180000, Note_on_c, 9, 44, 110
1, 180022, Note_on_c, 9, 44, 0
1, 180240, Note_on_c, 9, 44, 110
1, 180262, Note_on_c, 9, 44, 0
1, 180479, Note_on_c, 9, 40, 0
1, 180480, Note_on_c, 9, 41, 110
1, 180480, Note_on_c, 9, 44, 110
1, 180502, Note_on_c, 9, 44, 0
1, 180719, Note_on_c, 9, 41, 0
1, 180720, Note_on_c, 9, 41, 110
1, 180720, Note_on_c, 9, 44, 110
1, 180742, Note_on_c, 9, 44, 0
1, 180959, Note_on_c, 9, 41, 0
1, 180960, Note_on_c, 9, 40, 110
1, 180960, Note_on_c, 9, 44, 110
1, 181005, Note_on_c, 9, 44, 0
1, 181199, Note_on_c, 9, 40, 0
1, 181200, Note_on_c, 9, 41, 110
1, 181200, Note_on_c, 9, 55, 110
1, 181222, Note_on_c, 9, 55, 0
1, 181439, Note_on_c, 9, 41, 0
1, 181680, Note_on_c, 9, 41, 110
1, 181680, Note_on_c, 9, 44, 110
1, 181702, Note_on_c, 9, 44, 0
1, 181919, Note_on_c, 9, 41, 0
1, 181920, Note_on_c, 9, 40, 110
1, 181920, Note_on_c, 9, 44, 110
1, 181942, Note_on_c, 9, 44, 0
1, 182160, Note_on_c, 9, 44, 110
1, 182182, Note_on_c, 9, 44, 0
1, 182399, Note_on_c, 9, 40, 0
1, 182400, Note_on_c, 9, 41, 110
1, 182400, Note_on_c, 9, 44, 110
1, 182422, Note_on_c, 9, 44, 0
1, 182639, Note_on_c, 9, 41, 0
1, 182640, Note_on_c, 9, 41, 110
1, 182640, Note_on_c, 9, 44, 110
1, 182662, Note_on_c, 9, 44, 0
1, 182879, Note_on_c, 9, 41, 0
1, 182880, Note_on_c, 9, 40, 110
1, 182880, Note_on_c, 9, 44, 110
1, 182902, Note_on_c, 9, 44, 0
1, 183120, Note_on_c, 9, 44, 110
1, 183142, Note_on_c, 9, 44, 0
1, 183359, Note_on_c, 9, 40, 0
1, 183360, Note_on_c, 9, 41, 110
1, 183360, Note_on_c, 9, 44, 110
1, 183382, Note_on_c, 9, 44, 0
1, 183599, Note_on_c, 9, 41, 0
1, 183600, Note_on_c, 9, 41, 110
1, 183600, Note_on_c, 9, 44, 110
1, 183622, Note_on_c, 9, 44, 0
1, 183839, Note_on_c, 9, 41, 0
1, 183840, Note_on_c, 9, 40, 110
1, 183840, Note_on_c, 9, 44, 110
1, 183862, Note_on_c, 9, 44, 0
1, 184080, Note_on_c, 9, 44, 110
1, 184102, Note_on_c, 9, 44, 0
1, 184319, Note_on_c, 9, 40, 0
1, 184320, Note_on_c, 9, 41, 110
1, 184320, Note_on_c, 9, 44, 110
1, 184342, Note_on_c, 9, 44, 0
1, 184559, Note_on_c, 9, 41, 0
1, 184560, Note_on_c, 9, 41, 110
1, 184560, Note_on_c, 9, 44, 110
1, 184582, Note_on_c, 9, 44, 0
1, 184799, Note_on_c, 9, 41, 0
1, 184800, Note_on_c, 9, 40, 110
1, 184800, Note_on_c, 9, 44, 110
1, 184822, Note_on_c, 9, 44, 0
1, 185039, Note_on_c, 9, 40, 0
1, 185040, Note_on_c, 9, 41, 110
1, 185040, Note_on_c, 9, 40, 110
1, 185040, Note_on_c, 9, 55, 110
1, 185040, Note_on_c, 9, 44, 110
1, 185062, Note_on_c, 9, 55, 0
1, 185062, Note_on_c, 9, 44, 0
1, 185279, Note_on_c, 9, 41, 0
1, 185279, Note_on_c, 9, 40, 0
1, 185280, Tempo, 500000
1, 185520, Note_on_c, 9, 44, 110
1, 185524, Note_on_c, 9, 44, 0
1, 185640, Note_on_c, 9, 44, 110
1, 185644, Note_on_c, 9, 44, 0
1, 185760, Note_on_c, 9, 40, 110
1, 185760, Note_on_c, 9, 44, 110
1, 185764, Note_on_c, 9, 44, 0
1, 185880, Note_on_c, 9, 44, 110
1, 185884, Note_on_c, 9, 44, 0
1, 186000, Note_on_c, 9, 44, 110
1, 186004, Note_on_c, 9, 44, 0
1, 186120, Note_on_c, 9, 44, 110
1, 186124, Note_on_c, 9, 44, 0
1, 186239, Note_on_c, 9, 40, 0
1, 186240, Note_on_c, 9, 41, 110
1, 186240, Note_on_c, 9, 44, 110
1, 186244, Note_on_c, 9, 44, 0
1, 186360, Note_on_c, 9, 44, 110
1, 186364, Note_on_c, 9, 44, 0
1, 186480, Note_on_c, 9, 44, 110
1, 186484, Note_on_c, 9, 44, 0
1, 186600, Note_on_c, 9, 44, 110
1, 186604, Note_on_c, 9, 44, 0
1, 186719, Note_on_c, 9, 41, 0
1, 186720, Note_on_c, 9, 40, 110
1, 186720, Note_on_c, 9, 44, 110
1, 186724, Note_on_c, 9, 44, 0
1, 186840, Note_on_c, 9, 44, 110
1, 186844, Note_on_c, 9, 44, 0
1, 186960, Note_on_c, 9, 44, 110
1, 186964, Note_on_c, 9, 44, 0
1, 187080, Note_on_c, 9, 44, 110
1, 187084, Note_on_c, 9, 44, 0
1, 187199, Note_on_c, 9, 40, 0
1, 187200, Note_on_c, 9, 41, 110
1, 187200, Note_on_c, 9, 44, 110
1, 187204, Note_on_c, 9, 44, 0
1, 187320, Note_on_c, 9, 44, 110
1, 187324, Note_on_c, 9, 44, 0
1, 187440, Note_on_c, 9, 44, 110
1, 187444, Note_on_c, 9, 44, 0
1, 187560, Note_on_c, 9, 44, 110
1, 187564, Note_on_c, 9, 44, 0
1, 187679, Note_on_c, 9, 41, 0
1, 187680, Note_on_c, 9, 40, 110
1, 187680, Note_on_c, 9, 44, 110
1, 187684, Note_on_c, 9, 44, 0
1, 187800, Note_on_c, 9, 44, 110
1, 187804, Note_on_c, 9, 44, 0
1, 187920, Note_on_c, 9, 44, 110
1, 187924, Note_on_c, 9, 44, 0
1, 188040, Note_on_c, 9, 44, 110
1, 188044, Note_on_c, 9, 44, 0
1, 188159, Note_on_c, 9, 40, 0
1, 188160, Note_on_c, 9, 41, 110
1, 188160, Note_on_c, 9, 44, 110
1, 188164, Note_on_c, 9, 44, 0
1, 188280, Note_on_c, 9, 44, 110
1, 188284, Note_on_c, 9, 44, 0
1, 188400, Note_on_c, 9, 44, 110
1, 188404, Note_on_c, 9, 44, 0
1, 188520, Note_on_c, 9, 44, 110
1, 188524, Note_on_c, 9, 44, 0
1, 188639, Note_on_c, 9, 41, 0
1, 188640, Note_on_c, 9, 40, 110
1, 188640, Note_on_c, 9, 44, 110
1, 188644, Note_on_c, 9, 44, 0
1, 188760, Note_on_c, 9, 44, 110
1, 188764, Note_on_c, 9, 44, 0
1, 188880, Note_on_c, 9, 44, 110
1, 188884, Note_on_c, 9, 44, 0
1, 189000, Note_on_c, 9, 44, 110
1, 189004, Note_on_c, 9, 44, 0
1, 189119, Note_on_c, 9, 40, 0
1, 189120, Note_on_c, 9, 41, 110
1, 189120, Note_on_c, 9, 44, 110
1, 189124, Note_on_c, 9, 44, 0
1, 189240, Note_on_c, 9, 44, 110
1, 189244, Note_on_c, 9, 44, 0
1, 189360, Note_on_c, 9, 44, 110
1, 189364, Note_on_c, 9, 44, 0
1, 189480, Note_on_c, 9, 44, 110
1, 189484, Note_on_c, 9, 44, 0
1, 189599, Note_on_c, 9, 41, 0
1, 189600, Note_on_c, 9, 40, 110
1, 189600, Note_on_c, 9, 44, 110
1, 189604, Note_on_c, 9, 44, 0
1, 189720, Note_on_c, 9, 44, 110
1, 189724, Note_on_c, 9, 44, 0
1, 189840, Note_on_c, 9, 44, 110
1, 189844, Note_on_c, 9, 44, 0
1, 189960, Note_on_c, 9, 44, 110
1, 189964, Note_on_c, 9, 44, 0
1, 190079, Note_on_c, 9, 40, 0
1, 190080, Note_on_c, 9, 41, 110
1, 190080, Note_on_c, 9, 55, 110
1, 190080, Note_on_c, 9, 44, 110
1, 190084, Note_on_c, 9, 44, 0
1, 190102, Note_on_c, 9, 55, 0
1, 190200, Note_on_c, 9, 44, 110
1, 190204, Note_on_c, 9, 44, 0
1, 190320, Note_on_c, 9, 44, 110
1, 190324, Note_on_c, 9, 44, 0
1, 190440, Note_on_c, 9, 44, 110
1, 190444, Note_on_c, 9, 44, 0
1, 190559, Note_on_c, 9, 41, 0
1, 190560, Note_on_c, 9, 40, 110
1, 190560, Note_on_c, 9, 55, 110
1, 190560, Note_on_c, 9, 44, 110
1, 190564, Note_on_c, 9, 44, 0
1, 190582, Note_on_c, 9, 55, 0
1, 190680, Note_on_c, 9, 44, 110
1, 190684, Note_on_c, 9, 44, 0
1, 190800, Note_on_c, 9, 44, 110
1, 190804, Note_on_c, 9, 44, 0
1, 190920, Note_on_c, 9, 44, 110
1, 190924, Note_on_c, 9, 44, 0
1, 191039, Note_on_c, 9, 40, 0
1, 191040, Note_on_c, 9, 41, 110
1, 191040, Note_on_c, 9, 44, 110
1, 191044, Note_on_c, 9, 44, 0
1, 191160, Note_on_c, 9, 44, 110
1, 191164, Note_on_c, 9, 44, 0
1, 191280, Note_on_c, 9, 44, 110
1, 191284, Note_on_c, 9, 44, 0
1, 191400, Note_on_c, 9, 44, 110
1, 191404, Note_on_c, 9, 44, 0
1, 191519, Note_on_c, 9, 41, 0
1, 191520, Note_on_c, 9, 40, 110
1, 191520, Note_on_c, 9, 44, 110
1, 191524, Note_on_c, 9, 44, 0
1, 191640, Note_on_c, 9, 44, 110
1, 191644, Note_on_c, 9, 44, 0
1, 191760, Note_on_c, 9, 44, 110
1, 191764, Note_on_c, 9, 44, 0
1, 191880, Note_on_c, 9, 44, 110
1, 191884, Note_on_c, 9, 44, 0
1, 191999, Note_on_c, 9, 40, 0
1, 192000, Note_on_c, 9, 41, 110
1, 192000, Note_on_c, 9, 44, 110
1, 192004, Note_on_c, 9, 44, 0
1, 192120, Note_on_c, 9, 44, 110
1, 192124, Note_on_c, 9, 44, 0
1, 192240, Note_on_c, 9, 44, 110
1, 192244, Note_on_c, 9, 44, 0
1, 192360, Note_on_c, 9, 44, 110
1, 192364, Note_on_c, 9, 44, 0
1, 192479, Note_on_c, 9, 41, 0
1, 192480, Note_on_c, 9, 40, 110
1, 192480, Note_on_c, 9, 44, 110
1, 192484, Note_on_c, 9, 44, 0
1, 192600, Note_on_c, 9, 44, 110
1, 192604, Note_on_c, 9, 44, 0
1, 192720, Note_on_c, 9, 44, 110
1, 192724, Note_on_c, 9, 44, 0
1, 192840, Note_on_c, 9, 44, 110
1, 192844, Note_on_c, 9, 44, 0
1, 192959, Note_on_c, 9, 40, 0
1, 192960, Note_on_c, 9, 41, 110
1, 192960, Note_on_c, 9, 44, 110
1, 192964, Note_on_c, 9, 44, 0
1, 193080, Note_on_c, 9, 44, 110
1, 193084, Note_on_c, 9, 44, 0
1, 193200, Note_on_c, 9, 44, 110
1, 193204, Note_on_c, 9, 44, 0
1, 193320, Note_on_c, 9, 44, 110
1, 193324, Note_on_c, 9, 44, 0
1, 193439, Note_on_c, 9, 41, 0
1, 193440, Note_on_c, 9, 40, 110
1, 193440, Note_on_c, 9, 44, 110
1, 193444, Note_on_c, 9, 44, 0
1, 193560, Note_on_c, 9, 44, 110
1, 193564, Note_on_c, 9, 44, 0
1, 193680, Note_on_c, 9, 44, 110
1, 193684, Note_on_c, 9, 44, 0
1, 193800, Note_on_c, 9, 44, 110
1, 193804, Note_on_c, 9, 44, 0
1, 193919, Note_on_c, 9, 40, 0
1, 193920, Note_on_c, 9, 41, 110
1, 193920, Note_on_c, 9, 44, 110
1, 193924, Note_on_c, 9, 44, 0
1, 194040, Note_on_c, 9, 44, 110
1, 194044, Note_on_c, 9, 44, 0
1, 194160, Note_on_c, 9, 44, 110
1, 194164, Note_on_c, 9, 44, 0
1, 194280, Note_on_c, 9, 44, 110
1, 194284, Note_on_c, 9, 44, 0
1, 194399, Note_on_c, 9, 41, 0
1, 194400, Note_on_c, 9, 40, 110
1, 194400, Note_on_c, 9, 44, 110
1, 194404, Note_on_c, 9, 44, 0
1, 194520, Note_on_c, 9, 44, 110
1, 194524, Note_on_c, 9, 44, 0
1, 194640, Note_on_c, 9, 44, 110
1, 194644, Note_on_c, 9, 44, 0
1, 194760, Note_on_c, 9, 44, 110
1, 194764, Note_on_c, 9, 44, 0
1, 194879, Note_on_c, 9, 40, 0
1, 194880, Note_on_c, 9, 41, 110
1, 194880, Note_on_c, 9, 44, 110
1, 194884, Note_on_c, 9, 44, 0
1, 195000, Note_on_c, 9, 44, 110
1, 195004, Note_on_c, 9, 44, 0
1, 195120, Note_on_c, 9, 44, 110
1, 195124, Note_on_c, 9, 44, 0
1, 195240, Note_on_c, 9, 44, 110
1, 195244, Note_on_c, 9, 44, 0
1, 195359, Note_on_c, 9, 41, 0
1, 195360, Note_on_c, 9, 40, 110
1, 195360, Note_on_c, 9, 44, 110
1, 195364, Note_on_c, 9, 44, 0
1, 195480, Note_on_c, 9, 44, 110
1, 195484, Note_on_c, 9, 44, 0
1, 195600, Note_on_c, 9, 44, 110
1, 195604, Note_on_c, 9, 44, 0
1, 195720, Note_on_c, 9, 44, 110
1, 195724, Note_on_c, 9, 44, 0
1, 195839, Note_on_c, 9, 40, 0
1, 195840, Note_on_c, 9, 41, 110
1, 195840, Note_on_c, 9, 44, 110
1, 195844, Note_on_c, 9, 44, 0
1, 195960, Note_on_c, 9, 44, 110
1, 195964, Note_on_c, 9, 44, 0
1, 196080, Note_on_c, 9, 44, 110
1, 196084, Note_on_c, 9, 44, 0
1, 196200, Note_on_c, 9, 44, 110
1, 196204, Note_on_c, 9, 44, 0
1, 196319, Note_on_c, 9, 41, 0
1, 196320, Note_on_c, 9, 40, 110
1, 196320, Note_on_c, 9, 44, 110
1, 196324, Note_on_c, 9, 44, 0
1, 196440, Note_on_c, 9, 44, 110
1, 196444, Note_on_c, 9, 44, 0
1, 196560, Note_on_c, 9, 44, 110
1, 196564, Note_on_c, 9, 44, 0
1, 196680, Note_on_c, 9, 44, 110
1, 196684, Note_on_c, 9, 44, 0
1, 196799, Note_on_c, 9, 40, 0
1, 196800, Note_on_c, 9, 41, 110
1, 196800, Note_on_c, 9, 44, 110
1, 196804, Note_on_c, 9, 44, 0
1, 196920, Note_on_c, 9, 44, 110
1, 196924, Note_on_c, 9, 44, 0
1, 197040, Note_on_c, 9, 44, 110
1, 197044, Note_on_c, 9, 44, 0
1, 197160, Note_on_c, 9, 44, 110
1, 197164, Note_on_c, 9, 44, 0
1, 197279, Note_on_c, 9, 41, 0
1, 197280, Note_on_c, 9, 40, 110
1, 197280, Note_on_c, 9, 44, 110
1, 197284, Note_on_c, 9, 44, 0
1, 197400, Note_on_c, 9, 44, 110
1, 197404, Note_on_c, 9, 44, 0
1, 197520, Note_on_c, 9, 44, 110
1, 197524, Note_on_c, 9, 44, 0
1, 197640, Note_on_c, 9, 44, 110
1, 197644, Note_on_c, 9, 44, 0
1, 197759, Note_on_c, 9, 40, 0
1, 197760, Note_on_c, 9, 41, 110
1, 197760, Note_on_c, 9, 55, 110
1, 197760, Note_on_c, 9, 44, 110
1, 197764, Note_on_c, 9, 44, 0
1, 197782, Note_on_c, 9, 55, 0
1, 197880, Note_on_c, 9, 44, 110
1, 197884, Note_on_c, 9, 44, 0
1, 198000, Note_on_c, 9, 44, 110
1, 198004, Note_on_c, 9, 44, 0
1, 198120, Note_on_c, 9, 44, 110
1, 198124, Note_on_c, 9, 44, 0
1, 198239, Note_on_c, 9, 41, 0
1, 198240, Note_on_c, 9, 40, 110
1, 198240, Note_on_c, 9, 55, 110
1, 198240, Note_on_c, 9, 44, 110
1, 198244, Note_on_c, 9, 44, 0
1, 198262, Note_on_c, 9, 55, 0
1, 198360, Note_on_c, 9, 44, 110
1, 198364, Note_on_c, 9, 44, 0
1, 198480, Note_on_c, 9, 44, 110
1, 198484, Note_on_c, 9, 44, 0
1, 198600, Note_on_c, 9, 44, 110
1, 198604, Note_on_c, 9, 44, 0
1, 198719, Note_on_c, 9, 40, 0
1, 198720, Note_on_c, 9, 41, 110
1, 198720, Note_on_c, 9, 44, 110
1, 198724, Note_on_c, 9, 44, 0
1, 198840, Note_on_c, 9, 44, 110
1, 198844, Note_on_c, 9, 44, 0
1, 198960, Note_on_c, 9, 44, 110
1, 198964, Note_on_c, 9, 44, 0
1, 199080, Note_on_c, 9, 44, 110
1, 199084, Note_on_c, 9, 44, 0
1, 199199, Note_on_c, 9, 41, 0
1, 199200, Note_on_c, 9, 40, 110
1, 199200, Note_on_c, 9, 44, 110
1, 199204, Note_on_c, 9, 44, 0
1, 199320, Note_on_c, 9, 44, 110
1, 199324, Note_on_c, 9, 44, 0
1, 199440, Note_on_c, 9, 44, 110
1, 199444, Note_on_c, 9, 44, 0
1, 199560, Note_on_c, 9, 44, 110
1, 199564, Note_on_c, 9, 44, 0
1, 199679, Note_on_c, 9, 40, 0
1, 199680, Note_on_c, 9, 41, 110
1, 199680, Note_on_c, 9, 44, 110
1, 199684, Note_on_c, 9, 44, 0
1, 199800, Note_on_c, 9, 44, 110
1, 199804, Note_on_c, 9, 44, 0
1, 199920, Note_on_c, 9, 44, 110
1, 199924, Note_on_c, 9, 44, 0
1, 200040, Note_on_c, 9, 44, 110
1, 200044, Note_on_c, 9, 44, 0
1, 200159, Note_on_c, 9, 41, 0
1, 200160, Note_on_c, 9, 40, 110
1, 200160, Note_on_c, 9, 44, 110
1, 200182, Note_on_c, 9, 44, 0
1, 200399, Note_on_c, 9, 40, 0
1, 200400, Note_on_c, 9, 40, 110
1, 200519, Note_on_c, 9, 40, 0
1, 200520, Note_on_c, 9, 41, 110
1, 200520, Note_on_c, 9, 55, 110
1, 200524, Note_on_c, 9, 55, 0
1, 200639, Note_on_c, 9, 41, 0
1, 200640, Tempo, 250000
1, 200880, Note_on_c, 9, 41, 110
1, 200880, Note_on_c, 9, 44, 110
1, 200902, Note_on_c, 9, 44, 0
1, 201119, Note_on_c, 9, 41, 0
1, 201120, Note_on_c, 9, 40, 110
1, 201120, Note_on_c, 9, 44, 110
1, 201142, Note_on_c, 9, 44, 0
1, 201360, Note_on_c, 9, 44, 110
1, 201382, Note_on_c, 9, 44, 0
1, 201599, Note_on_c, 9, 40, 0
1, 201600, Note_on_c, 9, 41, 110
1, 201600, Note_on_c, 9, 44, 110
1, 201622, Note_on_c, 9, 44, 0
1, 201839, Note_on_c, 9, 41, 0
1, 201840, Note_on_c, 9, 41, 110
1, 201840, Note_on_c, 9, 44, 110
1, 201862, Note_on_c, 9, 44, 0
1, 202079, Note_on_c, 9, 41, 0
1, 202080, Note_on_c, 9, 40, 110
1, 202080, Note_on_c, 9, 44, 110
1, 202102, Note_on_c, 9, 44, 0
1, 202320, Note_on_c, 9, 44, 110
1, 202342, Note_on_c, 9, 44, 0
1, 202559, Note_on_c, 9, 40, 0
1, 202560, Note_on_c, 9, 41, 110
1, 202560, Note_on_c, 9, 44, 110
1, 202582, Note_on_c, 9, 44, 0
1, 202799, Note_on_c, 9, 41, 0
1, 202800, Note_on_c, 9, 41, 110
1, 202800, Note_on_c, 9, 44, 110
1, 202822, Note_on_c, 9, 44, 0
1, 203039, Note_on_c, 9, 41, 0
1, 203040, Note_on_c, 9, 40, 110
1, 203040, Note_on_c, 9, 44, 110
1, 203062, Note_on_c, 9, 44, 0
1, 203280, Note_on_c, 9, 44, 110
1, 203302, Note_on_c, 9, 44, 0
1, 203519, Note_on_c, 9, 40, 0
1, 203520, Note_on_c, 9, 41, 110
1, 203520, Note_on_c, 9, 44, 110
1, 203542, Note_on_c, 9, 44, 0
1, 203759, Note_on_c, 9, 41, 0
1, 203760, Note_on_c, 9, 41, 110
1, 203760, Note_on_c, 9, 44, 110
1, 203782, Note_on_c, 9, 44, 0
1, 203999, Note_on_c, 9, 41, 0
1, 204000, Note_on_c, 9, 40, 110
1, 204000, Note_on_c, 9, 44, 110
1, 204045, Note_on_c, 9, 44, 0
1, 204239, Note_on_c, 9, 40, 0
1, 204240, Note_on_c, 9, 41, 110
1, 204240, Note_on_c, 9, 55, 110
1, 204262, Note_on_c, 9, 55, 0
1, 204479, Note_on_c, 9, 41, 0
1, 204720, Note_on_c, 9, 41, 110
1, 204720, Note_on_c, 9, 44, 110
1, 204742, Note_on_c, 9, 44, 0
1, 204959, Note_on_c, 9, 41, 0
1, 204960, Note_on_c, 9, 40, 110
1, 204960, Note_on_c, 9, 44, 110
1, 204982, Note_on_c, 9, 44, 0
1, 205200, Note_on_c, 9, 44, 110
1, 205222, Note_on_c, 9, 44, 0
1, 205439, Note_on_c, 9, 40, 0
1, 205440, Note_on_c, 9, 41, 110
1, 205440, Note_on_c, 9, 44, 110
1, 205462, Note_on_c, 9, 44, 0
1, 205679, Note_on_c, 9, 41, 0
1, 205680, Note_on_c, 9, 41, 110
1, 205680, Note_on_c, 9, 44, 110
1, 205702, Note_on_c, 9, 44, 0
1, 205919, Note_on_c, 9, 41, 0
1, 205920, Note_on_c, 9, 40, 110
1, 205920, Note_on_c, 9, 44, 110
1, 205942, Note_on_c, 9, 44, 0
1, 206160, Note_on_c, 9, 44, 110
1, 206182, Note_on_c, 9, 44, 0
1, 206399, Note_on_c, 9, 40, 0
1, 206400, Note_on_c, 9, 41, 110
1, 206400, Note_on_c, 9, 44, 110
1, 206422, Note_on_c, 9, 44, 0
1, 206639, Note_on_c, 9, 41, 0
1, 206640, Note_on_c, 9, 41, 110
1, 206640, Note_on_c, 9, 44, 110
1, 206662, Note_on_c, 9, 44, 0
1, 206879, Note_on_c, 9, 41, 0
1, 206880, Note_on_c, 9, 40, 110
1, 206880, Note_on_c, 9, 44, 110
1, 206902, Note_on_c, 9, 44, 0
1, 207120, Note_on_c, 9, 44, 110
1, 207142, Note_on_c, 9, 44, 0
1, 207359, Note_on_c, 9, 40, 0
1, 207360, Note_on_c, 9, 41, 110
1, 207360, Note_on_c, 9, 44, 110
1, 207382, Note_on_c, 9, 44, 0
1, 207599, Note_on_c, 9, 41, 0
1, 207600, Note_on_c, 9, 41, 110
1, 207600, Note_on_c, 9, 44, 110
1, 207622, Note_on_c, 9, 44, 0
1, 207839, Note_on_c, 9, 41, 0
1, 207840, Note_on_c, 9, 40, 110
1, 207840, Note_on_c, 9, 44, 110
1, 207885, Note_on_c, 9, 44, 0
1, 208079, Note_on_c, 9, 40, 0
1, 208080, Note_on_c, 9, 41, 110
1, 208080, Note_on_c, 9, 55, 110
1, 208102, Note_on_c, 9, 55, 0
1, 208319, Note_on_c, 9, 41, 0
1, 208560, Note_on_c, 9, 41, 110
1, 208560, Note_on_c, 9, 44, 110
1, 208582, Note_on_c, 9, 44, 0
1, 208799, Note_on_c, 9, 41, 0
1, 208800, Note_on_c, 9, 40, 110
1, 208800, Note_on_c, 9, 44, 110
1, 208822, Note_on_c, 9, 44, 0
1, 209040, Note_on_c, 9, 44, 110
1, 209062, Note_on_c, 9, 44, 0
1, 209279, Note_on_c, 9, 40, 0
1, 209280, Note_on_c, 9, 41, 110
1, 209280, Note_on_c, 9, 44, 110
1, 209302, Note_on_c, 9, 44, 0
1, 209519, Note_on_c, 9, 41, 0
1, 209520, Note_on_c, 9, 41, 110
1, 209520, Note_on_c, 9, 44, 110
1, 209542, Note_on_c, 9, 44, 0
1, 209759, Note_on_c, 9, 41, 0
1, 209760, Note_on_c, 9, 40, 110
1, 209760, Note_on_c, 9, 44, 110
1, 209782, Note_on_c, 9, 44, 0
1, 210000, Note_on_c, 9, 44, 110
1, 210022, Note_on_c, 9, 44, 0
1, 210239, Note_on_c, 9, 40, 0
1, 210240, Note_on_c, 9, 41, 110
1, 210240, Note_on_c, 9, 44, 110
1, 210262, Note_on_c, 9, 44, 0
1, 210479, Note_on_c, 9, 41, 0
1, 210480, Note_on_c, 9, 41, 110
1, 210480, Note_on_c, 9, 44, 110
1, 210502, Note_on_c, 9, 44, 0
1, 210719, Note_on_c, 9, 41, 0
1, 210720, Note_on_c, 9, 40, 110
1, 210720, Note_on_c, 9, 44, 110
1, 210742, Note_on_c, 9, 44, 0
1, 210960, Note_on_c, 9, 44, 110
1, 210982, Note_on_c, 9, 44, 0
1, 211199, Note_on_c, 9, 40, 0
1, 211200, Note_on_c, 9, 41, 110
1, 211200, Note_on_c, 9, 44, 110
1, 211222, Note_on_c, 9, 44, 0
1, 211439, Note_on_c, 9, 41, 0
1, 211440, Note_on_c, 9, 41, 110
1, 211440, Note_on_c, 9, 44, 110
1, 211462, Note_on_c, 9, 44, 0
1, 211679, Note_on_c, 9, 41, 0
1, 211680, Note_on_c, 9, 40, 110
1, 211680, Note_on_c, 9, 44, 110
1, 211725, Note_on_c, 9, 44, 0
1, 211919, Note_on_c, 9, 40, 0
1, 211920, Note_on_c, 9, 41, 110
1, 211920, Note_on_c, 9, 55, 110
1, 211942, Note_on_c, 9, 55, 0
1, 212159, Note_on_c, 9, 41, 0
1, 212400, Note_on_c, 9, 41, 110
1, 212400, Note_on_c, 9, 44, 110
1, 212422, Note_on_c, 9, 44, 0
1, 212639, Note_on_c, 9, 41, 0
1, 212640, Note_on_c, 9, 40, 110
1, 212640, Note_on_c, 9, 44, 110
1, 212662, Note_on_c, 9, 44, 0
1, 212880, Note_on_c, 9, 44, 110
1, 212902, Note_on_c, 9, 44, 0
1, 213119, Note_on_c, 9, 40, 0
1, 213120, Note_on_c, 9, 41, 110
1, 213120, Note_on_c, 9, 44, 110
1, 213142, Note_on_c, 9, 44, 0
1, 213359, Note_on_c, 9, 41, 0
1, 213360, Note_on_c, 9, 41, 110
1, 213360, Note_on_c, 9, 44, 110
1, 213382, Note_on_c, 9, 44, 0
1, 213599, Note_on_c, 9, 41, 0
1, 213600, Note_on_c, 9, 40, 110
1, 213600, Note_on_c, 9, 44, 110
1, 213622, Note_on_c, 9, 44, 0
1, 213840, Note_on_c, 9, 44, 110
1, 213862, Note_on_c, 9, 44, 0
1, 214079, Note_on_c, 9, 40, 0
1, 214080, Note_on_c, 9, 41, 110
1, 214080, Note_on_c, 9, 44, 110
1, 214102, Note_on_c, 9, 44, 0
1, 214319, Note_on_c, 9, 41, 0
1, 214320, Note_on_c, 9, 41, 110
1, 214320, Note_on_c, 9, 44, 110
1, 214342, Note_on_c, 9, 44, 0
1, 214559, Note_on_c, 9, 41, 0
1, 214560, Note_on_c, 9, 40, 110
1, 214560, Note_on_c, 9, 44, 110
1, 214582, Note_on_c, 9, 44, 0
1, 214800, Note_on_c, 9, 44, 110
1, 214822, Note_on_c, 9, 44, 0
1, 215039, Note_on_c, 9, 40, 0
1, 215040, Note_on_c, 9, 41, 110
1, 215040, Note_on_c, 9, 44, 110
1, 215062, Note_on_c, 9, 44, 0
1, 215279, Note_on_c, 9, 41, 0
1, 215280, Note_on_c, 9, 41, 110
1, 215280, Note_on_c, 9, 44, 110
1, 215302, Note_on_c, 9, 44, 0
1, 215519, Note_on_c, 9, 41, 0
1, 215520, Note_on_c, 9, 40, 110
1, 215520, Note_on_c, 9, 44, 110
1, 215565, Note_on_c, 9, 44, 0
1, 215759, Note_on_c, 9, 40, 0
1, 215760, Note_on_c, 9, 41, 110
1, 215760, Note_on_c, 9, 55, 110
1, 215782, Note_on_c, 9, 55, 0
1, 215999, Note_on_c, 9, 41, 0
1, 216240, Note_on_c, 9, 41, 110
1, 216240, Note_on_c, 9, 44, 110
1, 216262, Note_on_c, 9, 44, 0
1, 216479, Note_on_c, 9, 41, 0
1, 216480, Note_on_c, 9, 40, 110
1, 216480, Note_on_c, 9, 44, 110
1, 216502, Note_on_c, 9, 44, 0
1, 216720, Note_on_c, 9, 44, 110
1, 216742, Note_on_c, 9, 44, 0
1, 216959, Note_on_c, 9, 40, 0
1, 216960, Note_on_c, 9, 41, 110
1, 216960, Note_on_c, 9, 44, 110
1, 216982, Note_on_c, 9, 44, 0
1, 217199, Note_on_c, 9, 41, 0
1, 217200, Note_on_c, 9, 41, 110
1, 217200, Note_on_c, 9, 44, 110
1, 217222, Note_on_c, 9, 44, 0
1, 217439, Note_on_c, 9, 41, 0
1, 217440, Note_on_c, 9, 40, 110
1, 217440, Note_on_c, 9, 44, 110
1, 217462, Note_on_c, 9, 44, 0
1, 217680, Note_on_c, 9, 44, 110
1, 217702, Note_on_c, 9, 44, 0
1, 217919, Note_on_c, 9, 40, 0
1, 217920, Note_on_c, 9, 41, 110
1, 217920, Note_on_c, 9, 44, 110
1, 217942, Note_on_c, 9, 44, 0
1, 218159, Note_on_c, 9, 41, 0
1, 218160, Note_on_c, 9, 41, 110
1, 218160, Note_on_c, 9, 44, 110
1, 218182, Note_on_c, 9, 44, 0
1, 218399, Note_on_c, 9, 41, 0
1, 218400, Note_on_c, 9, 40, 110
1, 218400, Note_on_c, 9, 44, 110
1, 218422, Note_on_c, 9, 44, 0
1, 218640, Note_on_c, 9, 44, 110
1, 218662, Note_on_c, 9, 44, 0
1, 218879, Note_on_c, 9, 40, 0
1, 218880, Note_on_c, 9, 41, 110
1, 218880, Note_on_c, 9, 44, 110
1, 218902, Note_on_c, 9, 44, 0
1, 219119, Note_on_c, 9, 41, 0
1, 219120, Note_on_c, 9, 41, 110
1, 219120, Note_on_c, 9, 44, 110
1, 219142, Note_on_c, 9, 44, 0
1, 219359, Note_on_c, 9, 41, 0
1, 219360, Note_on_c, 9, 40, 110
1, 219360, Note_on_c, 9, 44, 110
1, 219405, Note_on_c, 9, 44, 0
1, 219599, Note_on_c, 9, 40, 0
1, 219600, Note_on_c, 9, 41, 110
1, 219600, Note_on_c, 9, 55, 110
1, 219622, Note_on_c, 9, 55, 0
1, 219839, Note_on_c, 9, 41, 0
1, 220080, Note_on_c, 9, 41, 110
1, 220080, Note_on_c, 9, 44, 110
1, 220102, Note_on_c, 9, 44, 0
1, 220319, Note_on_c, 9, 41, 0
1, 220320, Note_on_c, 9, 40, 110
1, 220320, Note_on_c, 9, 44, 110
1, 220342, Note_on_c, 9, 44, 0
1, 220560, Note_on_c, 9, 44, 110
1, 220582, Note_on_c, 9, 44, 0
1, 220799, Note_on_c, 9, 40, 0
1, 220800, Note_on_c, 9, 41, 110
1, 220800, Note_on_c, 9, 44, 110
1, 220822, Note_on_c, 9, 44, 0
1, 221039, Note_on_c, 9, 41, 0
1, 221040, Note_on_c, 9, 41, 110
1, 221040, Note_on_c, 9, 44, 110
1, 221062, Note_on_c, 9, 44, 0
1, 221279, Note_on_c, 9, 41, 0
1, 221280, Note_on_c, 9, 40, 110
1, 221280, Note_on_c, 9, 44, 110
1, 221302, Note_on_c, 9, 44, 0
1, 221520, Note_on_c, 9, 44, 110
1, 221542, Note_on_c, 9, 44, 0
1, 221759, Note_on_c, 9, 40, 0
1, 221760, Note_on_c, 9, 41, 110
1, 221760, Note_on_c, 9, 44, 110
1, 221782, Note_on_c, 9, 44, 0
1, 221999, Note_on_c, 9, 41, 0
1, 222000, Note_on_c, 9, 41, 110
1, 222000, Note_on_c, 9, 44, 110
1, 222022, Note_on_c, 9, 44, 0
1, 222239, Note_on_c, 9, 41, 0
1, 222240, Note_on_c, 9, 40, 110
1, 222240, Note_on_c, 9, 44, 110
1, 222262, Note_on_c, 9, 44, 0
1, 222480, Note_on_c, 9, 44, 110
1, 222502, Note_on_c, 9, 44, 0
1, 222719, Note_on_c, 9, 40, 0
1, 222720, Note_on_c, 9, 41, 110
1, 222720, Note_on_c, 9, 44, 110
1, 222742, Note_on_c, 9, 44, 0
1, 222959, Note_on_c, 9, 41, 0
1, 222960, Note_on_c, 9, 41, 110
1, 222960, Note_on_c, 9, 44, 110
1, 222982, Note_on_c, 9, 44, 0
1, 223199, Note_on_c, 9, 41, 0
1, 223200, Note_on_c, 9, 40, 110
1, 223200, Note_on_c, 9, 44, 110
1, 223245, Note_on_c, 9, 44, 0
1, 223439, Note_on_c, 9, 40, 0
1, 223440, Note_on_c, 9, 41, 110
1, 223440, Note_on_c, 9, 55, 110
1, 223462, Note_on_c, 9, 55, 0
1, 223679, Note_on_c, 9, 41, 0
1, 223920, Note_on_c, 9, 41, 110
1, 223920, Note_on_c, 9, 44, 110
1, 223942, Note_on_c, 9, 44, 0
1, 224159, Note_on_c, 9, 41, 0
1, 224160, Note_on_c, 9, 40, 110
1, 224160, Note_on_c, 9, 44, 110
1, 224182, Note_on_c, 9, 44, 0
1, 224400, Note_on_c, 9, 44, 110
1, 224422, Note_on_c, 9, 44, 0
1, 224639, Note_on_c, 9, 40, 0
1, 224640, Note_on_c, 9, 41, 110
1, 224640, Note_on_c, 9, 44, 110
1, 224662, Note_on_c, 9, 44, 0
1, 224879, Note_on_c, 9, 41, 0
1, 224880, Note_on_c, 9, 41, 110
1, 224880, Note_on_c, 9, 44, 110
1, 224902, Note_on_c, 9, 44, 0
1, 225119, Note_on_c, 9, 41, 0
1, 225120, Note_on_c, 9, 40, 110
1, 225120, Note_on_c, 9, 44, 110
1, 225142, Note_on_c, 9, 44, 0
1, 225360, Note_on_c, 9, 44, 110
1, 225382, Note_on_c, 9, 44, 0
1, 225599, Note_on_c, 9, 40, 0
1, 225600, Note_on_c, 9, 41, 110
1, 225600, Note_on_c, 9, 44, 110
1, 225622, Note_on_c, 9, 44, 0
1, 225839, Note_on_c, 9, 41, 0
1, 225840, Note_on_c, 9, 41, 110
1, 225840, Note_on_c, 9, 44, 110
1, 225862, Note_on_c, 9, 44, 0
1, 226079, Note_on_c, 9, 41, 0
1, 226080, Note_on_c, 9, 40, 110
1, 226080, Note_on_c, 9, 44, 110
1, 226102, Note_on_c, 9, 44, 0
1, 226320, Note_on_c, 9, 44, 110
1, 226342, Note_on_c, 9, 44, 0
1, 226559, Note_on_c, 9, 40, 0
1, 226560, Note_on_c, 9, 41, 110
1, 226560, Note_on_c, 9, 44, 110
1, 226582, Note_on_c, 9, 44, 0
1, 226799, Note_on_c, 9, 41, 0
1, 226800, Note_on_c, 9, 41, 110
1, 226800, Note_on_c, 9, 44, 110
1, 226822, Note_on_c, 9, 44, 0
1, 227039, Note_on_c, 9, 41, 0
1, 227040, Note_on_c, 9, 40, 110
1, 227040, Note_on_c, 9, 44, 110
1, 227085, Note_on_c, 9, 44, 0
1, 227279, Note_on_c, 9, 40, 0
1, 227280, Note_on_c, 9, 41, 110
1, 227280, Note_on_c, 9, 55, 110
1, 227302, Note_on_c, 9, 55, 0
1, 227519, Note_on_c, 9, 41, 0
1, 227760, Note_on_c, 9, 41, 110
1, 227760, Note_on_c, 9, 44, 110
1, 227782, Note_on_c, 9, 44, 0
1, 227999, Note_on_c, 9, 41, 0
1, 228000, Note_on_c, 9, 40, 110
1, 228000, Note_on_c, 9, 44, 110
1, 228022, Note_on_c, 9, 44, 0
1, 228240, Note_on_c, 9, 44, 110
1, 228262, Note_on_c, 9, 44, 0
1, 228479, Note_on_c, 9, 40, 0
1, 228480, Note_on_c, 9, 41, 110
1, 228480, Note_on_c, 9, 44, 110
1, 228502, Note_on_c, 9, 44, 0
1, 228719, Note_on_c, 9, 41, 0
1, 228720, Note_on_c, 9, 41, 110
1, 228720, Note_on_c, 9, 44, 110
1, 228742, Note_on_c, 9, 44, 0
1, 228959, Note_on_c, 9, 41, 0
1, 228960, Note_on_c, 9, 40, 110
1, 228960, Note_on_c, 9, 44, 110
1, 228982, Note_on_c, 9, 44, 0
1, 229200, Note_on_c, 9, 44, 110
1, 229222, Note_on_c, 9, 44, 0
1, 229439, Note_on_c, 9, 40, 0
1, 229440, Note_on_c, 9, 41, 110
1, 229440, Note_on_c, 9, 44, 110
1, 229462, Note_on_c, 9, 44, 0
1, 229679, Note_on_c, 9, 41, 0
1, 229680, Note_on_c, 9, 41, 110
1, 229680, Note_on_c, 9, 44, 110
1, 229702, Note_on_c, 9, 44, 0
1, 229919, Note_on_c, 9, 41, 0
1, 229920, Note_on_c, 9, 40, 110
1, 229920, Note_on_c, 9, 44, 110
1, 229942, Note_on_c, 9, 44, 0
1, 230160, Note_on_c, 9, 44, 110
1, 230182, Note_on_c, 9, 44, 0
1, 230399, Note_on_c, 9, 40, 0
1, 230400, Note_on_c, 9, 41, 110
1, 230400, Note_on_c, 9, 44, 110
1, 230422, Note_on_c, 9, 44, 0
1, 230639, Note_on_c, 9, 41, 0
1, 230640, Note_on_c, 9, 41, 110
1, 230640, Note_on_c, 9, 44, 110
1, 230662, Note_on_c, 9, 44, 0
1, 230879, Note_on_c, 9, 41, 0
1, 230880, Note_on_c, 9, 40, 110
1, 230880, Note_on_c, 9, 44, 110
1, 230902, Note_on_c, 9, 44, 0
1, 231119, Note_on_c, 9, 40, 0
1, 231120, Note_on_c, 9, 41, 110
1, 231120, Note_on_c, 9, 55, 110
1, 231120, Note_on_c, 9, 44, 110
1, 231142, Note_on_c, 9, 55, 0
1, 231142, Note_on_c, 9, 44, 0
1, 231359, Note_on_c, 9, 41, 0
1, 231360, Tempo, 500000
1, 231360, Note_on_c, 9, 41, 110
1, 231360, Note_on_c, 9, 44, 110
1, 231370, Note_on_c, 9, 44, 0
1, 231600, Note_on_c, 9, 44, 110
1, 231610, Note_on_c, 9, 44, 0
1, 231839, Note_on_c, 9, 41, 0
1, 231840, Note_on_c, 9, 40, 110
1, 231840, Note_on_c, 9, 44, 110
1, 231850, Note_on_c, 9, 44, 0
1, 232080, Note_on_c, 9, 44, 110
1, 232090, Note_on_c, 9, 44, 0
1, 232319, Note_on_c, 9, 40, 0
1, 232320, Note_on_c, 9, 41, 110
1, 232320, Note_on_c, 9, 44, 110
1, 232330, Note_on_c, 9, 44, 0
1, 232560, Note_on_c, 9, 44, 110
1, 232570, Note_on_c, 9, 44, 0
1, 232799, Note_on_c, 9, 41, 0
1, 232800, Note_on_c, 9, 40, 110
1, 232800, Note_on_c, 9, 44, 110
1, 232810, Note_on_c, 9, 44, 0
1, 233039, Note_on_c, 9, 40, 0
1, 233040, Note_on_c, 9, 40, 110
1, 233040, Note_on_c, 9, 44, 110
1, 233050, Note_on_c, 9, 44, 0
1, 233279, Note_on_c, 9, 40, 0
1, 233280, Note_on_c, 9, 41, 110
1, 233280, Note_on_c, 9, 44, 110
1, 233290, Note_on_c, 9, 44, 0
1, 233520, Note_on_c, 9, 44, 110
1, 233530, Note_on_c, 9, 44, 0
1, 233759, Note_on_c, 9, 41, 0
1, 233760, Note_on_c, 9, 40, 110
1, 233760, Note_on_c, 9, 44, 110
1, 233770, Note_on_c, 9, 44, 0
1, 234000, Note_on_c, 9, 44, 110
1, 234010, Note_on_c, 9, 44, 0
1, 234239, Note_on_c, 9, 40, 0
1, 234240, Note_on_c, 9, 41, 110
1, 234240, Note_on_c, 9, 44, 110
1, 234250, Note_on_c, 9, 44, 0
1, 234480, Note_on_c, 9, 44, 110
1, 234490, Note_on_c, 9, 44, 0
1, 234719, Note_on_c, 9, 41, 0
1, 234720, Note_on_c, 9, 40, 110
1, 234720, Note_on_c, 9, 44, 110
1, 234730, Note_on_c, 9, 44, 0
1, 234959, Note_on_c, 9, 40, 0
1, 234960, Note_on_c, 9, 40, 110
1, 234960, Note_on_c, 9, 44, 110
1, 234970, Note_on_c, 9, 44, 0
1, 235199, Note_on_c, 9, 40, 0
1, 235200, Note_on_c, 9, 41, 110
1, 235200, Note_on_c, 9, 44, 110
1, 235210, Note_on_c, 9, 44, 0
1, 235440, Note_on_c, 9, 44, 110
1, 235450, Note_on_c, 9, 44, 0
1, 235679, Note_on_c, 9, 41, 0
1, 235680, Note_on_c, 9, 40, 110
1, 235680, Note_on_c, 9, 44, 110
1, 235690, Note_on_c, 9, 44, 0
1, 235920, Note_on_c, 9, 44, 110
1, 235930, Note_on_c, 9, 44, 0
1, 236159, Note_on_c, 9, 40, 0
1, 236160, Note_on_c, 9, 41, 110
1, 236160, Note_on_c, 9, 44, 110
1, 236170, Note_on_c, 9, 44, 0
1, 236400, Note_on_c, 9, 44, 110
1, 236410, Note_on_c, 9, 44, 0
1, 236639, Note_on_c, 9, 41, 0
1, 236640, Note_on_c, 9, 40, 110
1, 236640, Note_on_c, 9, 44, 110
1, 236650, Note_on_c, 9, 44, 0
1, 236879, Note_on_c, 9, 40, 0
1, 236880, Note_on_c, 9, 40, 110
1, 236880, Note_on_c, 9, 44, 110
1, 236890, Note_on_c, 9, 44, 0
1, 237119, Note_on_c, 9, 40, 0
1, 237120, Note_on_c, 9, 41, 110
1, 237120, Note_on_c, 9, 44, 110
1, 237130, Note_on_c, 9, 44, 0
1, 237360, Note_on_c, 9, 44, 110
1, 237370, Note_on_c, 9, 44, 0
1, 237599, Note_on_c, 9, 41, 0
1, 237600, Note_on_c, 9, 40, 110
1, 237600, Note_on_c, 9, 44, 110
1, 237610, Note_on_c, 9, 44, 0
1, 237840, Note_on_c, 9, 44, 110
1, 237850, Note_on_c, 9, 44, 0
1, 238079, Note_on_c, 9, 40, 0
1, 238080, Note_on_c, 9, 41, 110
1, 238080, Note_on_c, 9, 44, 110
1, 238090, Note_on_c, 9, 44, 0
1, 238320, Note_on_c, 9, 44, 110
1, 238330, Note_on_c, 9, 44, 0
1, 238559, Note_on_c, 9, 41, 0
1, 238560, Note_on_c, 9, 40, 110
1, 238560, Note_on_c, 9, 44, 110
1, 238570, Note_on_c, 9, 44, 0
1, 238799, Note_on_c, 9, 40, 0
1, 238800, Note_on_c, 9, 40, 110
1, 238800, Note_on_c, 9, 44, 110
1, 238810, Note_on_c, 9, 44, 0
1, 238919, Note_on_c, 9, 40, 0
1, 238920, Note_on_c, 9, 40, 110
1, 239039, Note_on_c, 9, 40, 0
1, 239040, Note_on_c, 9, 41, 110
1, 239040, Note_on_c, 9, 44, 110
1, 239050, Note_on_c, 9, 44, 0
1, 239280, Note_on_c, 9, 44, 110
1, 239290, Note_on_c, 9, 44, 0
1, 239519, Note_on_c, 9, 41, 0
1, 239520, Note_on_c, 9, 40, 110
1, 239520, Note_on_c, 9, 44, 110
1, 239530, Note_on_c, 9, 44, 0
1, 239760, Note_on_c, 9, 44, 110
1, 239770, Note_on_c, 9, 44, 0
1, 239999, Note_on_c, 9, 40, 0
1, 240000, Note_on_c, 9, 41, 110
1, 240000, Note_on_c, 9, 44, 110
1, 240010, Note_on_c, 9, 44, 0
1, 240240, Note_on_c, 9, 44, 110
1, 240250, Note_on_c, 9, 44, 0
1, 240479, Note_on_c, 9, 41, 0
1, 240480, Note_on_c, 9, 40, 110
1, 240480, Note_on_c, 9, 44, 110
1, 240490, Note_on_c, 9, 44, 0
1, 240719, Note_on_c, 9, 40, 0
1, 240720, Note_on_c, 9, 40, 110
1, 240720, Note_on_c, 9, 44, 110
1, 240730, Note_on_c, 9, 44, 0
1, 240959, Note_on_c, 9, 40, 0
1, 240960, Note_on_c, 9, 41, 110
1, 240960, Note_on_c, 9, 44, 110
1, 240970, Note_on_c, 9, 44, 0
1, 241200, Note_on_c, 9, 44, 110
1, 241210, Note_on_c, 9, 44, 0
1, 241439, Note_on_c, 9, 41, 0
1, 241440, Note_on_c, 9, 40, 110
1, 241440, Note_on_c, 9, 44, 110
1, 241450, Note_on_c, 9, 44, 0
1, 241680, Note_on_c, 9, 44, 110
1, 241690, Note_on_c, 9, 44, 0
1, 241919, Note_on_c, 9, 40, 0
1, 241920, Note_on_c, 9, 41, 110
1, 241920, Note_on_c, 9, 44, 110
1, 241930, Note_on_c, 9, 44, 0
1, 242160, Note_on_c, 9, 44, 110
1, 242170, Note_on_c, 9, 44, 0
1, 242399, Note_on_c, 9, 41, 0
1, 242400, Note_on_c, 9, 40, 110
1, 242400, Note_on_c, 9, 44, 110
1, 242410, Note_on_c, 9, 44, 0
1, 242639, Note_on_c, 9, 40, 0
1, 242640, Note_on_c, 9, 40, 110
1, 242640, Note_on_c, 9, 44, 110
1, 242650, Note_on_c, 9, 44, 0
1, 242879, Note_on_c, 9, 40, 0
1, 242880, Note_on_c, 9, 41, 110
1, 242880, Note_on_c, 9, 44, 110
1, 242890, Note_on_c, 9, 44, 0
1, 243120, Note_on_c, 9, 44, 110
1, 243130, Note_on_c, 9, 44, 0
1, 243359, Note_on_c, 9, 41, 0
1, 243360, Note_on_c, 9, 40, 110
1, 243360, Note_on_c, 9, 44, 110
1, 243370, Note_on_c, 9, 44, 0
1, 243600, Note_on_c, 9, 44, 110
1, 243610, Note_on_c, 9, 44, 0
1, 243839, Note_on_c, 9, 40, 0
1, 243840, Note_on_c, 9, 41, 110
1, 243840, Note_on_c, 9, 44, 110
1, 243850, Note_on_c, 9, 44, 0
1, 244080, Note_on_c, 9, 44, 110
1, 244090, Note_on_c, 9, 44, 0
1, 244319, Note_on_c, 9, 41, 0
1, 244320, Note_on_c, 9, 40, 110
1, 244320, Note_on_c, 9, 44, 110
1, 244330, Note_on_c, 9, 44, 0
1, 244559, Note_on_c, 9, 40, 0
1, 244560, Note_on_c, 9, 40, 110
1, 244560, Note_on_c, 9, 44, 110
1, 244570, Note_on_c, 9, 44, 0
1, 244799, Note_on_c, 9, 40, 0
1, 244800, Note_on_c, 9, 41, 110
1, 244800, Note_on_c, 9, 44, 110
1, 244810, Note_on_c, 9, 44, 0
1, 245040, Note_on_c, 9, 44, 110
1, 245050, Note_on_c, 9, 44, 0
1, 245279, Note_on_c, 9, 41, 0
1, 245280, Note_on_c, 9, 40, 110
1, 245280, Note_on_c, 9, 44, 110
1, 245290, Note_on_c, 9, 44, 0
1, 245520, Note_on_c, 9, 44, 110
1, 245530, Note_on_c, 9, 44, 0
1, 245759, Note_on_c, 9, 40, 0
1, 245760, Note_on_c, 9, 41, 110
1, 245760, Note_on_c, 9, 44, 110
1, 245770, Note_on_c, 9, 44, 0
1, 246000, Note_on_c, 9, 44, 110
1, 246010, Note_on_c, 9, 44, 0
1, 246239, Note_on_c, 9, 41, 0
1, 246240, Note_on_c, 9, 40, 110
1, 246240, Note_on_c, 9, 44, 110
1, 246250, Note_on_c, 9, 44, 0
1, 246479, Note_on_c, 9, 40, 0
1, 246480, Note_on_c, 9, 40, 110
1, 246480, Note_on_c, 9, 44, 110
1, 246490, Note_on_c, 9, 44, 0
1, 246599, Note_on_c, 9, 40, 0
1, 246600, Note_on_c, 9, 40, 110
1, 246719, Note_on_c, 9, 40, 0
1, 246720, Note_on_c, 9, 41, 110
1, 246720, Note_on_c, 9, 44, 110
1, 246730, Note_on_c, 9, 44, 0
1, 246960, Note_on_c, 9, 44, 110
1, 246970, Note_on_c, 9, 44, 0
1, 247199, Note_on_c, 9, 41, 0
1, 247200, Note_on_c, 9, 40, 110
1, 247200, Note_on_c, 9, 44, 110
1, 247210, Note_on_c, 9, 44, 0
1, 247440, Note_on_c, 9, 44, 110
1, 247450, Note_on_c, 9, 44, 0
1, 247679, Note_on_c, 9, 40, 0
1, 247680, Note_on_c, 9, 41, 110
1, 247680, Note_on_c, 9, 44, 110
1, 247690, Note_on_c, 9, 44, 0
1, 247920, Note_on_c, 9, 44, 110
1, 247930, Note_on_c, 9, 44, 0
1, 248159, Note_on_c, 9, 41, 0
1, 248160, Note_on_c, 9, 40, 110
1, 248160, Note_on_c, 9, 44, 110
1, 248170, Note_on_c, 9, 44, 0
1, 248399, Note_on_c, 9, 40, 0
1, 248400, Note_on_c, 9, 40, 110
1, 248400, Note_on_c, 9, 44, 110
1, 248410, Note_on_c, 9, 44, 0
1, 248639, Note_on_c, 9, 40, 0
1, 248640, Note_on_c, 9, 41, 110
1, 248640, Note_on_c, 9, 44, 110
1, 248650, Note_on_c, 9, 44, 0
1, 248880, Note_on_c, 9, 44, 110
1, 248890, Note_on_c, 9, 44, 0
1, 249119, Note_on_c, 9, 41, 0
1, 249120, Note_on_c, 9, 40, 110
1, 249120, Note_on_c, 9, 44, 110
1, 249130, Note_on_c, 9, 44, 0
1, 249360, Note_on_c, 9, 44, 110
1, 249370, Note_on_c, 9, 44, 0
1, 249599, Note_on_c, 9, 40, 0
1, 249600, Note_on_c, 9, 41, 110
1, 249600, Note_on_c, 9, 44, 110
1, 249610, Note_on_c, 9, 44, 0
1, 249840, Note_on_c, 9, 44, 110
1, 249850, Note_on_c, 9, 44, 0
1, 250079, Note_on_c, 9, 41, 0
1, 250080, Note_on_c, 9, 40, 110
1, 250080, Note_on_c, 9, 44, 110
1, 250090, Note_on_c, 9, 44, 0
1, 250319, Note_on_c, 9, 40, 0
1, 250320, Note_on_c, 9, 40, 110
1, 250320, Note_on_c, 9, 44, 110
1, 250330, Note_on_c, 9, 44, 0
1, 250559, Note_on_c, 9, 40, 0
1, 250560, Note_on_c, 9, 41, 110
1, 250560, Note_on_c, 9, 44, 110
1, 250570, Note_on_c, 9, 44, 0
1, 250800, Note_on_c, 9, 44, 110
1, 250810, Note_on_c, 9, 44, 0
1, 251039, Note_on_c, 9, 41, 0
1, 251040, Note_on_c, 9, 40, 110
1, 251040, Note_on_c, 9, 44, 110
1, 251050, Note_on_c, 9, 44, 0
1, 251280, Note_on_c, 9, 44, 110
1, 251290, Note_on_c, 9, 44, 0
1, 251519, Note_on_c, 9, 40, 0
1, 251520, Note_on_c, 9, 41, 110
1, 251520, Note_on_c, 9, 44, 110
1, 251530, Note_on_c, 9, 44, 0
1, 251760, Note_on_c, 9, 44, 110
1, 251770, Note_on_c, 9, 44, 0
1, 251999, Note_on_c, 9, 41, 0
1, 252000, Note_on_c, 9, 40, 110
1, 252000, Note_on_c, 9, 44, 110
1, 252010, Note_on_c, 9, 44, 0
1, 252239, Note_on_c, 9, 40, 0
1, 252240, Note_on_c, 9, 40, 110
1, 252240, Note_on_c, 9, 44, 110
1, 252250, Note_on_c, 9, 44, 0
1, 252479, Note_on_c, 9, 40, 0
1, 252480, Note_on_c, 9, 41, 110
1, 252480, Note_on_c, 9, 44, 110
1, 252490, Note_on_c, 9, 44, 0
1, 252720, Note_on_c, 9, 44, 110
1, 252730, Note_on_c, 9, 44, 0
1, 252959, Note_on_c, 9, 41, 0
1, 252960, Note_on_c, 9, 40, 110
1, 252960, Note_on_c, 9, 44, 110
1, 252970, Note_on_c, 9, 44, 0
1, 253200, Note_on_c, 9, 44, 110
1, 253210, Note_on_c, 9, 44, 0
1, 253439, Note_on_c, 9, 40, 0
1, 253440, Note_on_c, 9, 41, 110
1, 253440, Note_on_c, 9, 44, 110
1, 253450, Note_on_c, 9, 44, 0
1, 253680, Note_on_c, 9, 44, 110
1, 253690, Note_on_c, 9, 44, 0
1, 253919, Note_on_c, 9, 41, 0
1, 253920, Note_on_c, 9, 40, 110
1, 253920, Note_on_c, 9, 44, 110
1, 253930, Note_on_c, 9, 44, 0
1, 254159, Note_on_c, 9, 40, 0
1, 254160, Note_on_c, 9, 40, 110
1, 254160, Note_on_c, 9, 44, 110
1, 254170, Note_on_c, 9, 44, 0
1, 254279, Note_on_c, 9, 40, 0
1, 254280, Note_on_c, 9, 40, 110
1, 254399, Note_on_c, 9, 40, 0
1, 254400, Note_on_c, 9, 41, 110
1, 254400, Note_on_c, 9, 44, 110
1, 254410, Note_on_c, 9, 44, 0
1, 254640, Note_on_c, 9, 44, 110
1, 254650, Note_on_c, 9, 44, 0
1, 254879, Note_on_c, 9, 41, 0
1, 254880, Note_on_c, 9, 40, 110
1, 254880, Note_on_c, 9, 44, 110
1, 254890, Note_on_c, 9, 44, 0
1, 255120, Note_on_c, 9, 44, 110
1, 255130, Note_on_c, 9, 44, 0
1, 255359, Note_on_c, 9, 40, 0
1, 255360, Note_on_c, 9, 41, 110
1, 255360, Note_on_c, 9, 44, 110
1, 255370, Note_on_c, 9, 44, 0
1, 255600, Note_on_c, 9, 44, 110
1, 255610, Note_on_c, 9, 44, 0
1, 255839, Note_on_c, 9, 41, 0
1, 255840, Note_on_c, 9, 40, 110
1, 255840, Note_on_c, 9, 44, 110
1, 255850, Note_on_c, 9, 44, 0
1, 256079, Note_on_c, 9, 40, 0
1, 256080, Note_on_c, 9, 40, 110
1, 256080, Note_on_c, 9, 44, 110
1, 256090, Note_on_c, 9, 44, 0
1, 256319, Note_on_c, 9, 40, 0
1, 256320, Note_on_c, 9, 41, 110
1, 256320, Note_on_c, 9, 44, 110
1, 256330, Note_on_c, 9, 44, 0
1, 256560, Note_on_c, 9, 44, 110
1, 256570, Note_on_c, 9, 44, 0
1, 256799, Note_on_c, 9, 41, 0
1, 256800, Note_on_c, 9, 40, 110
1, 256800, Note_on_c, 9, 44, 110
1, 256810, Note_on_c, 9, 44, 0
1, 257040, Note_on_c, 9, 44, 110
1, 257050, Note_on_c, 9, 44, 0
1, 257279, Note_on_c, 9, 40, 0
1, 257280, Note_on_c, 9, 41, 110
1, 257280, Note_on_c, 9, 44, 110
1, 257290, Note_on_c, 9, 44, 0
1, 257520, Note_on_c, 9, 44, 110
1, 257530, Note_on_c, 9, 44, 0
1, 257759, Note_on_c, 9, 41, 0
1, 257760, Note_on_c, 9, 40, 110
1, 257760, Note_on_c, 9, 44, 110
1, 257770, Note_on_c, 9, 44, 0
1, 257999, Note_on_c, 9, 40, 0
1, 258000, Note_on_c, 9, 40, 110
1, 258000, Note_on_c, 9, 44, 110
1, 258010, Note_on_c, 9, 44, 0
1, 258239, Note_on_c, 9, 40, 0
1, 258240, Note_on_c, 9, 41, 110
1, 258240, Note_on_c, 9, 44, 110
1, 258250, Note_on_c, 9, 44, 0
1, 258480, Note_on_c, 9, 44, 110
1, 258490, Note_on_c, 9, 44, 0
1, 258719, Note_on_c, 9, 41, 0
1, 258720, Note_on_c, 9, 40, 110
1, 258720, Note_on_c, 9, 44, 110
1, 258730, Note_on_c, 9, 44, 0
1, 258960, Note_on_c, 9, 44, 110
1, 258970, Note_on_c, 9, 44, 0
1, 259199, Note_on_c, 9, 40, 0
1, 259200, Note_on_c, 9, 41, 110
1, 259200, Note_on_c, 9, 44, 110
1, 259210, Note_on_c, 9, 44, 0
1, 259440, Note_on_c, 9, 44, 110
1, 259450, Note_on_c, 9, 44, 0
1, 259679, Note_on_c, 9, 41, 0
1, 259680, Note_on_c, 9, 40, 110
1, 259680, Note_on_c, 9, 44, 110
1, 259690, Note_on_c, 9, 44, 0
1, 259919, Note_on_c, 9, 40, 0
1, 259920, Note_on_c, 9, 40, 110
1, 259920, Note_on_c, 9, 44, 110
1, 259930, Note_on_c, 9, 44, 0
1, 260159, Note_on_c, 9, 40, 0
1, 260160, Note_on_c, 9, 41, 110
1, 260160, Note_on_c, 9, 44, 110
1, 260170, Note_on_c, 9, 44, 0
1, 260400, Note_on_c, 9, 44, 110
1, 260410, Note_on_c, 9, 44, 0
1, 260639, Note_on_c, 9, 41, 0
1, 260640, Note_on_c, 9, 40, 110
1, 260640, Note_on_c, 9, 44, 110
1, 260650, Note_on_c, 9, 44, 0
1, 260880, Note_on_c, 9, 44, 110
1, 260890, Note_on_c, 9, 44, 0
1, 261119, Note_on_c, 9, 40, 0
1, 261120, Note_on_c, 9, 41, 110
1, 261120, Note_on_c, 9, 44, 110
1, 261130, Note_on_c, 9, 44, 0
1, 261360, Note_on_c, 9, 44, 110
1, 261370, Note_on_c, 9, 44, 0
1, 261599, Note_on_c, 9, 41, 0
1, 261600, Note_on_c, 9, 40, 110
1, 261600, Note_on_c, 9, 44, 110
1, 261610, Note_on_c, 9, 44, 0
1, 261839, Note_on_c, 9, 40, 0
1, 261840, Note_on_c, 9, 40, 110
1, 261840, Note_on_c, 9, 44, 110
1, 261850, Note_on_c, 9, 44, 0
1, 261959, Note_on_c, 9, 40, 0
1, 261960, Note_on_c, 9, 40, 110
1, 262079, Note_on_c, 9, 40, 0
1, 262080, Note_on_c, 9, 41, 110
1, 262080, Note_on_c, 9, 44, 110
1, 262090, Note_on_c, 9, 44, 0
1, 262320, Note_on_c, 9, 44, 110
1, 262330, Note_on_c, 9, 44, 0
1, 262559, Note_on_c, 9, 41, 0
1, 262560, Note_on_c, 9, 40, 110
1, 262560, Note_on_c, 9, 44, 110
1, 262570, Note_on_c, 9, 44, 0
1, 262800, Note_on_c, 9, 44, 110
1, 262810, Note_on_c, 9, 44, 0
1, 263039, Note_on_c, 9, 40, 0
1, 263040, Note_on_c, 9, 41, 110
1, 263040, Note_on_c, 9, 44, 110
1, 263050, Note_on_c, 9, 44, 0
1, 263280, Note_on_c, 9, 44, 110
1, 263290, Note_on_c, 9, 44, 0
1, 263519, Note_on_c, 9, 41, 0
1, 263520, Note_on_c, 9, 40, 110
1, 263520, Note_on_c, 9, 44, 110
1, 263530, Note_on_c, 9, 44, 0
1, 263759, Note_on_c, 9, 40, 0
1, 263760, Note_on_c, 9, 40, 110
1, 263760, Note_on_c, 9, 44, 110
1, 263770, Note_on_c, 9, 44, 0
1, 263999, Note_on_c, 9, 40, 0
1, 264000, Note_on_c, 9, 41, 110
1, 264000, Note_on_c, 9, 44, 110
1, 264010, Note_on_c, 9, 44, 0
1, 264240, Note_on_c, 9, 44, 110
1, 264250, Note_on_c, 9, 44, 0
1, 264479, Note_on_c, 9, 41, 0
1, 264480, Note_on_c, 9, 40, 110
1, 264480, Note_on_c, 9, 44, 110
1, 264490, Note_on_c, 9, 44, 0
1, 264720, Note_on_c, 9, 44, 110
1, 264730, Note_on_c, 9, 44, 0
1, 264959, Note_on_c, 9, 40, 0
1, 264960, Note_on_c, 9, 41, 110
1, 264960, Note_on_c, 9, 44, 110
1, 264970, Note_on_c, 9, 44, 0
1, 265200, Note_on_c, 9, 44, 110
1, 265210, Note_on_c, 9, 44, 0
1, 265439, Note_on_c, 9, 41, 0
1, 265440, Note_on_c, 9, 40, 110
1, 265440, Note_on_c, 9, 44, 110
1, 265450, Note_on_c, 9, 44, 0
1, 265679, Note_on_c, 9, 40, 0
1, 265680, Note_on_c, 9, 40, 110
1, 265680, Note_on_c, 9, 44, 110
1, 265690, Note_on_c, 9, 44, 0
1, 265919, Note_on_c, 9, 40, 0
1, 265920, Note_on_c, 9, 41, 110
1, 265920, Note_on_c, 9, 44, 110
1, 265930, Note_on_c, 9, 44, 0
1, 266160, Note_on_c, 9, 44, 110
1, 266170, Note_on_c, 9, 44, 0
1, 266399, Note_on_c, 9, 41, 0
1, 266400, Note_on_c, 9, 40, 110
1, 266400, Note_on_c, 9, 44, 110
1, 266410, Note_on_c, 9, 44, 0
1, 266640, Note_on_c, 9, 44, 110
1, 266650, Note_on_c, 9, 44, 0
1, 266879, Note_on_c, 9, 40, 0
1, 266880, Note_on_c, 9, 41, 110
1, 266880, Note_on_c, 9, 44, 110
1, 266890, Note_on_c, 9, 44, 0
1, 267120, Note_on_c, 9, 44, 110
1, 267130, Note_on_c, 9, 44, 0
1, 267359, Note_on_c, 9, 41, 0
1, 267360, Note_on_c, 9, 40, 110
1, 267360, Note_on_c, 9, 44, 110
1, 267370, Note_on_c, 9, 44, 0
1, 267599, Note_on_c, 9, 40, 0
1, 267600, Note_on_c, 9, 40, 110
1, 267600, Note_on_c, 9, 44, 110
1, 267610, Note_on_c, 9, 44, 0
1, 267839, Note_on_c, 9, 40, 0
1, 267840, Note_on_c, 9, 41, 110
1, 267840, Note_on_c, 9, 44, 110
1, 267850, Note_on_c, 9, 44, 0
1, 268080, Note_on_c, 9, 44, 110
1, 268090, Note_on_c, 9, 44, 0
1, 268319, Note_on_c, 9, 41, 0
1, 268320, Note_on_c, 9, 40, 110
1, 268320, Note_on_c, 9, 44, 110
1, 268330, Note_on_c, 9, 44, 0
1, 268560, Note_on_c, 9, 44, 110
1, 268570, Note_on_c, 9, 44, 0
1, 268799, Note_on_c, 9, 40, 0
1, 268800, Note_on_c, 9, 41, 110
1, 268800, Note_on_c, 9, 44, 110
1, 268810, Note_on_c, 9, 44, 0
1, 269040, Note_on_c, 9, 44, 110
1, 269050, Note_on_c, 9, 44, 0
1, 269279, Note_on_c, 9, 41, 0
1, 269280, Note_on_c, 9, 40, 110
1, 269280, Note_on_c, 9, 44, 110
1, 269290, Note_on_c, 9, 44, 0
1, 269519, Note_on_c, 9, 40, 0
1, 269520, Note_on_c, 9, 40, 110
1, 269520, Note_on_c, 9, 44, 110
1, 269530, Note_on_c, 9, 44, 0
1, 269639, Note_on_c, 9, 40, 0
1, 269640, Note_on_c, 9, 40, 110
1, 269759, Note_on_c, 9, 40, 0
1, 269760, Note_on_c, 9, 41, 110
1, 269760, Note_on_c, 9, 44, 110
1, 269770, Note_on_c, 9, 44, 0
1, 270000, Note_on_c, 9, 44, 110
1, 270010, Note_on_c, 9, 44, 0
1, 270239, Note_on_c, 9, 41, 0
1, 270240, Note_on_c, 9, 40, 110
1, 270240, Note_on_c, 9, 44, 110
1, 270250, Note_on_c, 9, 44, 0
1, 270480, Note_on_c, 9, 44, 110
1, 270490, Note_on_c, 9, 44, 0
1, 270719, Note_on_c, 9, 40, 0
1, 270720, Note_on_c, 9, 41, 110
1, 270720, Note_on_c, 9, 44, 110
1, 270730, Note_on_c, 9, 44, 0
1, 270960, Note_on_c, 9, 44, 110
1, 270970, Note_on_c, 9, 44, 0
1, 271199, Note_on_c, 9, 41, 0
1, 271200, Note_on_c, 9, 40, 110
1, 271200, Note_on_c, 9, 44, 110
1, 271210, Note_on_c, 9, 44, 0
1, 271439, Note_on_c, 9, 40, 0
1, 271440, Note_on_c, 9, 40, 110
1, 271440, Note_on_c, 9, 44, 110
1, 271450, Note_on_c, 9, 44, 0
1, 271679, Note_on_c, 9, 40, 0
1, 271680, Note_on_c, 9, 41, 110
1, 271680, Note_on_c, 9, 44, 110
1, 271690, Note_on_c, 9, 44, 0
1, 271920, Note_on_c, 9, 44, 110
1, 271930, Note_on_c, 9, 44, 0
1, 272159, Note_on_c, 9, 41, 0
1, 272160, Note_on_c, 9, 40, 110
1, 272160, Note_on_c, 9, 44, 110
1, 272170, Note_on_c, 9, 44, 0
1, 272400, Note_on_c, 9, 44, 110
1, 272410, Note_on_c, 9, 44, 0
1, 272639, Note_on_c, 9, 40, 0
1, 272640, Note_on_c, 9, 41, 110
1, 272640, Note_on_c, 9, 44, 110
1, 272650, Note_on_c, 9, 44, 0
1, 272880, Note_on_c, 9, 44, 110
1, 272890, Note_on_c, 9, 44, 0
1, 273119, Note_on_c, 9, 41, 0
1, 273120, Note_on_c, 9, 40, 110
1, 273120, Note_on_c, 9, 44, 110
1, 273130, Note_on_c, 9, 44, 0
1, 273359, Note_on_c, 9, 40, 0
1, 273360, Note_on_c, 9, 40, 110
1, 273360, Note_on_c, 9, 44, 110
1, 273370, Note_on_c, 9, 44, 0
1, 273599, Note_on_c, 9, 40, 0
1, 273600, Note_on_c, 9, 41, 110
1, 273600, Note_on_c, 9, 44, 110
1, 273610, Note_on_c, 9, 44, 0
1, 273840, Note_on_c, 9, 44, 110
1, 273850, Note_on_c, 9, 44, 0
1, 274079, Note_on_c, 9, 41, 0
1, 274080, Note_on_c, 9, 40, 110
1, 274080, Note_on_c, 9, 44, 110
1, 274090, Note_on_c, 9, 44, 0
1, 274320, Note_on_c, 9, 44, 110
1, 274330, Note_on_c, 9, 44, 0
1, 274559, Note_on_c, 9, 40, 0
1, 274560, Note_on_c, 9, 41, 110
1, 274560, Note_on_c, 9, 44, 110
1, 274570, Note_on_c, 9, 44, 0
1, 274800, Note_on_c, 9, 44, 110
1, 274810, Note_on_c, 9, 44, 0
1, 275039, Note_on_c, 9, 41, 0
1, 275040, Note_on_c, 9, 40, 110
1, 275040, Note_on_c, 9, 44, 110
1, 275050, Note_on_c, 9, 44, 0
1, 275279, Note_on_c, 9, 40, 0
1, 275280, Note_on_c, 9, 40, 110
1, 275280, Note_on_c, 9, 44, 110
1, 275290, Note_on_c, 9, 44, 0
1, 275519, Note_on_c, 9, 40, 0
1, 275520, Note_on_c, 9, 41, 110
1, 275520, Note_on_c, 9, 44, 110
1, 275530, Note_on_c, 9, 44, 0
1, 275760, Note_on_c, 9, 44, 110
1, 275770, Note_on_c, 9, 44, 0
1, 275999, Note_on_c, 9, 41, 0
1, 276000, Note_on_c, 9, 40, 110
1, 276000, Note_on_c, 9, 44, 110
1, 276010, Note_on_c, 9, 44, 0
1, 276240, Note_on_c, 9, 44, 110
1, 276250, Note_on_c, 9, 44, 0
1, 276479, Note_on_c, 9, 40, 0
1, 276480, Note_on_c, 9, 41, 110
1, 276480, Note_on_c, 9, 44, 110
1, 276490, Note_on_c, 9, 44, 0
1, 276720, Note_on_c, 9, 44, 110
1, 276730, Note_on_c, 9, 44, 0
1, 276959, Note_on_c, 9, 41, 0
1, 276960, Note_on_c, 9, 40, 110
1, 276960, Note_on_c, 9, 44, 110
1, 276970, Note_on_c, 9, 44, 0
1, 277199, Note_on_c, 9, 40, 0
1, 277200, Note_on_c, 9, 40, 110
1, 277200, Note_on_c, 9, 44, 110
1, 277210, Note_on_c, 9, 44, 0
1, 277319, Note_on_c, 9, 40, 0
1, 277320, Note_on_c, 9, 40, 110
1, 277439, Note_on_c, 9, 40, 0
1, 277440, Note_on_c, 9, 41, 110
1, 277440, Note_on_c, 9, 44, 110
1, 277450, Note_on_c, 9, 44, 0
1, 277680, Note_on_c, 9, 44, 110
1, 277690, Note_on_c, 9, 44, 0
1, 277919, Note_on_c, 9, 41, 0
1, 277920, Note_on_c, 9, 40, 110
1, 277920, Note_on_c, 9, 44, 110
1, 277930, Note_on_c, 9, 44, 0
1, 278160, Note_on_c, 9, 44, 110
1, 278170, Note_on_c, 9, 44, 0
1, 278399, Note_on_c, 9, 40, 0
1, 278400, Note_on_c, 9, 41, 110
1, 278400, Note_on_c, 9, 44, 110
1, 278410, Note_on_c, 9, 44, 0
1, 278640, Note_on_c, 9, 44, 110
1, 278650, Note_on_c, 9, 44, 0
1, 278879, Note_on_c, 9, 41, 0
1, 278880, Note_on_c, 9, 40, 110
1, 278880, Note_on_c, 9, 44, 110
1, 278890, Note_on_c, 9, 44, 0
1, 279119, Note_on_c, 9, 40, 0
1, 279120, Note_on_c, 9, 40, 110
1, 279120, Note_on_c, 9, 44, 110
1, 279130, Note_on_c, 9, 44, 0
1, 279359, Note_on_c, 9, 40, 0
1, 279360, Note_on_c, 9, 41, 110
1, 279360, Note_on_c, 9, 44, 110
1, 279370, Note_on_c, 9, 44, 0
1, 279600, Note_on_c, 9, 44, 110
1, 279610, Note_on_c, 9, 44, 0
1, 279839, Note_on_c, 9, 41, 0
1, 279840, Note_on_c, 9, 40, 110
1, 279840, Note_on_c, 9, 44, 110
1, 279850, Note_on_c, 9, 44, 0
1, 280080, Note_on_c, 9, 44, 110
1, 280090, Note_on_c, 9, 44, 0
1, 280319, Note_on_c, 9, 40, 0
1, 280320, Note_on_c, 9, 41, 110
1, 280320, Note_on_c, 9, 44, 110
1, 280330, Note_on_c, 9, 44, 0
1, 280560, Note_on_c, 9, 44, 110
1, 280570, Note_on_c, 9, 44, 0
1, 280799, Note_on_c, 9, 41, 0
1, 280800, Note_on_c, 9, 40, 110
1, 280800, Note_on_c, 9, 44, 110
1, 280810, Note_on_c, 9, 44, 0
1, 281039, Note_on_c, 9, 40, 0
1, 281040, Note_on_c, 9, 40, 110
1, 281040, Note_on_c, 9, 44, 110
1, 281050, Note_on_c, 9, 44, 0
1, 281279, Note_on_c, 9, 40, 0
1, 281280, Note_on_c, 9, 41, 110
1, 281280, Note_on_c, 9, 44, 110
1, 281290, Note_on_c, 9, 44, 0
1, 281520, Note_on_c, 9, 44, 110
1, 281530, Note_on_c, 9, 44, 0
1, 281759, Note_on_c, 9, 41, 0
1, 281760, Note_on_c, 9, 40, 110
1, 281760, Note_on_c, 9, 44, 110
1, 281770, Note_on_c, 9, 44, 0
1, 282000, Note_on_c, 9, 44, 110
1, 282010, Note_on_c, 9, 44, 0
1, 282239, Note_on_c, 9, 40, 0
1, 282240, Note_on_c, 9, 41, 110
1, 282240, Note_on_c, 9, 44, 110
1, 282250, Note_on_c, 9, 44, 0
1, 282480, Note_on_c, 9, 44, 110
1, 282490, Note_on_c, 9, 44, 0
1, 282719, Note_on_c, 9, 41, 0
1, 282720, Note_on_c, 9, 40, 110
1, 282720, Note_on_c, 9, 44, 110
1, 282730, Note_on_c, 9, 44, 0
1, 282959, Note_on_c, 9, 40, 0
1, 282960, Note_on_c, 9, 40, 110
1, 282960, Note_on_c, 9, 44, 110
1, 282970, Note_on_c, 9, 44, 0
1, 283199, Note_on_c, 9, 40, 0
1, 283200, Note_on_c, 9, 41, 110
1, 283200, Note_on_c, 9, 44, 110
1, 283210, Note_on_c, 9, 44, 0
1, 283440, Note_on_c, 9, 44, 110
1, 283450, Note_on_c, 9, 44, 0
1, 283679, Note_on_c, 9, 41, 0
1, 283680, Note_on_c, 9, 40, 110
1, 283680, Note_on_c, 9, 44, 110
1, 283690, Note_on_c, 9, 44, 0
1, 283920, Note_on_c, 9, 44, 110
1, 283930, Note_on_c, 9, 44, 0
1, 284159, Note_on_c, 9, 40, 0
1, 284160, Note_on_c, 9, 41, 110
1, 284160, Note_on_c, 9, 44, 110
1, 284170, Note_on_c, 9, 44, 0
1, 284400, Note_on_c, 9, 44, 110
1, 284410, Note_on_c, 9, 44, 0
1, 284639, Note_on_c, 9, 41, 0
1, 284640, Note_on_c, 9, 40, 110
1, 284640, Note_on_c, 9, 44, 110
1, 284650, Note_on_c, 9, 44, 0
1, 284879, Note_on_c, 9, 40, 0
1, 284880, Note_on_c, 9, 40, 110
1, 284880, Note_on_c, 9, 44, 110
1, 284890, Note_on_c, 9, 44, 0
1, 284999, Note_on_c, 9, 40, 0
1, 285000, Note_on_c, 9, 40, 110
1, 285119, Note_on_c, 9, 40, 0
1, 285120, Note_on_c, 9, 41, 110
1, 285120, Note_on_c, 9, 44, 110
1, 285130, Note_on_c, 9, 44, 0
1, 285360, Note_on_c, 9, 44, 110
1, 285370, Note_on_c, 9, 44, 0
1, 285599, Note_on_c, 9, 41, 0
1, 285600, Note_on_c, 9, 40, 110
1, 285600, Note_on_c, 9, 44, 110
1, 285610, Note_on_c, 9, 44, 0
1, 285840, Note_on_c, 9, 44, 110
1, 285850, Note_on_c, 9, 44, 0
1, 286079, Note_on_c, 9, 40, 0
1, 286080, Note_on_c, 9, 41, 110
1, 286080, Note_on_c, 9, 44, 110
1, 286090, Note_on_c, 9, 44, 0
1, 286320, Note_on_c, 9, 44, 110
1, 286330, Note_on_c, 9, 44, 0
1, 286559, Note_on_c, 9, 41, 0
1, 286560, Note_on_c, 9, 40, 110
1, 286560, Note_on_c, 9, 44, 110
1, 286570, Note_on_c, 9, 44, 0
1, 286799, Note_on_c, 9, 40, 0
1, 286800, Note_on_c, 9, 40, 110
1, 286800, Note_on_c, 9, 44, 110
1, 286810, Note_on_c, 9, 44, 0
1, 287039, Note_on_c, 9, 40, 0
1, 287040, Note_on_c, 9, 41, 110
1, 287040, Note_on_c, 9, 44, 110
1, 287050, Note_on_c, 9, 44, 0
1, 287280, Note_on_c, 9, 44, 110
1, 287290, Note_on_c, 9, 44, 0
1, 287519, Note_on_c, 9, 41, 0
1, 287520, Note_on_c, 9, 40, 110
1, 287520, Note_on_c, 9, 44, 110
1, 287530, Note_on_c, 9, 44, 0
1, 287760, Note_on_c, 9, 44, 110
1, 287770, Note_on_c, 9, 44, 0
1, 287999, Note_on_c, 9, 40, 0
1, 288000, Note_on_c, 9, 41, 110
1, 288000, Note_on_c, 9, 44, 110
1, 288010, Note_on_c, 9, 44, 0
1, 288240, Note_on_c, 9, 44, 110
1, 288250, Note_on_c, 9, 44, 0
1, 288479, Note_on_c, 9, 41, 0
1, 288480, Note_on_c, 9, 40, 110
1, 288480, Note_on_c, 9, 44, 110
1, 288490, Note_on_c, 9, 44, 0
1, 288719, Note_on_c, 9, 40, 0
1, 288720, Note_on_c, 9, 40, 110
1, 288720, Note_on_c, 9, 44, 110
1, 288730, Note_on_c, 9, 44, 0
1, 288959, Note_on_c, 9, 40, 0
1, 288960, Note_on_c, 9, 41, 110
1, 288960, Note_on_c, 9, 44, 110
1, 288970, Note_on_c, 9, 44, 0
1, 289200, Note_on_c, 9, 44, 110
1, 289210, Note_on_c, 9, 44, 0
1, 289439, Note_on_c, 9, 41, 0
1, 289440, Note_on_c, 9, 40, 110
1, 289440, Note_on_c, 9, 44, 110
1, 289450, Note_on_c, 9, 44, 0
1, 289680, Note_on_c, 9, 44, 110
1, 289690, Note_on_c, 9, 44, 0
1, 289919, Note_on_c, 9, 40, 0
1, 289920, Note_on_c, 9, 41, 110
1, 289920, Note_on_c, 9, 44, 110
1, 289930, Note_on_c, 9, 44, 0
1, 290160, Note_on_c, 9, 44, 110
1, 290170, Note_on_c, 9, 44, 0
1, 290399, Note_on_c, 9, 41, 0
1, 290400, Note_on_c, 9, 40, 110
1, 290400, Note_on_c, 9, 44, 110
1, 290410, Note_on_c, 9, 44, 0
1, 290639, Note_on_c, 9, 40, 0
1, 290640, Note_on_c, 9, 40, 110
1, 290640, Note_on_c, 9, 44, 110
1, 290650, Note_on_c, 9, 44, 0
1, 290879, Note_on_c, 9, 40, 0
1, 290880, Note_on_c, 9, 41, 110
1, 290880, Note_on_c, 9, 44, 110
1, 290890, Note_on_c, 9, 44, 0
1, 291120, Note_on_c, 9, 44, 110
1, 291130, Note_on_c, 9, 44, 0
1, 291359, Note_on_c, 9, 41, 0
1, 291360, Note_on_c, 9, 40, 110
1, 291360, Note_on_c, 9, 44, 110
1, 291370, Note_on_c, 9, 44, 0
1, 291600, Note_on_c, 9, 44, 110
1, 291610, Note_on_c, 9, 44, 0
1, 291839, Note_on_c, 9, 40, 0
1, 291840, Note_on_c, 9, 41, 110
1, 291840, Note_on_c, 9, 44, 110
1, 291850, Note_on_c, 9, 44, 0
1, 292080, Note_on_c, 9, 44, 110
1, 292090, Note_on_c, 9, 44, 0
1, 292319, Note_on_c, 9, 41, 0
1, 292320, Note_on_c, 9, 40, 110
1, 292320, Note_on_c, 9, 44, 110
1, 292330, Note_on_c, 9, 44, 0
1, 292559, Note_on_c, 9, 40, 0
1, 292560, Note_on_c, 9, 40, 110
1, 292560, Note_on_c, 9, 44, 110
1, 292570, Note_on_c, 9, 44, 0
1, 292679, Note_on_c, 9, 40, 0
1, 292680, Note_on_c, 9, 40, 110
1, 292799, Note_on_c, 9, 40, 0
1, 292800, Note_on_c, 9, 41, 110
1, 292800, Note_on_c, 9, 44, 110
1, 292810, Note_on_c, 9, 44, 0
1, 293040, Note_on_c, 9, 44, 110
1, 293050, Note_on_c, 9, 44, 0
1, 293279, Note_on_c, 9, 41, 0
1, 293280, Note_on_c, 9, 40, 110
1, 293280, Note_on_c, 9, 44, 110
1, 293290, Note_on_c, 9, 44, 0
1, 293520, Note_on_c, 9, 44, 110
1, 293530, Note_on_c, 9, 44, 0
1, 293759, Note_on_c, 9, 40, 0
1, 293760, Note_on_c, 9, 41, 110
1, 293760, Note_on_c, 9, 44, 110
1, 293770, Note_on_c, 9, 44, 0
1, 294000, Note_on_c, 9, 44, 110
1, 294010, Note_on_c, 9, 44, 0
1, 294239, Note_on_c, 9, 41, 0
1, 294240, Note_on_c, 9, 40, 110
1, 294240, Note_on_c, 9, 44, 110
1, 294250, Note_on_c, 9, 44, 0
1, 294479, Note_on_c, 9, 40, 0
1, 294480, Note_on_c, 9, 40, 110
1, 294480, Note_on_c, 9, 44, 110
1, 294490, Note_on_c, 9, 44, 0
1, 294719, Note_on_c, 9, 40, 0
1, 294720, Note_on_c, 9, 41, 110
1, 294720, Note_on_c, 9, 44, 110
1, 294730, Note_on_c, 9, 44, 0
1, 294960, Note_on_c, 9, 44, 110
1, 294970, Note_on_c, 9, 44, 0
1, 295199, Note_on_c, 9, 41, 0
1, 295200, Note_on_c, 9, 40, 110
1, 295200, Note_on_c, 9, 44, 110
1, 295210, Note_on_c, 9, 44, 0
1, 295440, Note_on_c, 9, 44, 110
1, 295450, Note_on_c, 9, 44, 0
1, 295679, Note_on_c, 9, 40, 0
1, 295680, Note_on_c, 9, 41, 110
1, 295680, Note_on_c, 9, 44, 110
1, 295690, Note_on_c, 9, 44, 0
1, 295920, Note_on_c, 9, 44, 110
1, 295930, Note_on_c, 9, 44, 0
1, 296159, Note_on_c, 9, 41, 0
1, 296160, Note_on_c, 9, 40, 110
1, 296160, Note_on_c, 9, 44, 110
1, 296170, Note_on_c, 9, 44, 0
1, 296399, Note_on_c, 9, 40, 0
1, 296400, Note_on_c, 9, 40, 110
1, 296400, Note_on_c, 9, 44, 110
1, 296410, Note_on_c, 9, 44, 0
1, 296639, Note_on_c, 9, 40, 0
1, 296640, Note_on_c, 9, 41, 110
1, 296640, Note_on_c, 9, 44, 110
1, 296650, Note_on_c, 9, 44, 0
1, 296880, Note_on_c, 9, 44, 110
1, 296890, Note_on_c, 9, 44, 0
1, 297119, Note_on_c, 9, 41, 0
1, 297120, Note_on_c, 9, 40, 110
1, 297120, Note_on_c, 9, 44, 110
1, 297130, Note_on_c, 9, 44, 0
1, 297360, Note_on_c, 9, 44, 110
1, 297370, Note_on_c, 9, 44, 0
1, 297599, Note_on_c, 9, 40, 0
1, 297600, Note_on_c, 9, 41, 110
1, 297600, Note_on_c, 9, 44, 110
1, 297610, Note_on_c, 9, 44, 0
1, 297840, Note_on_c, 9, 44, 110
1, 297850, Note_on_c, 9, 44, 0
1, 298079, Note_on_c, 9, 41, 0
1, 298080, Note_on_c, 9, 40, 110
1, 298080, Note_on_c, 9, 44, 110
1, 298090, Note_on_c, 9, 44, 0
1, 298319, Note_on_c, 9, 40, 0
1, 298320, Note_on_c, 9, 40, 110
1, 298320, Note_on_c, 9, 44, 110
1, 298330, Note_on_c, 9, 44, 0
1, 298559, Note_on_c, 9, 40, 0
1, 298560, Note_on_c, 9, 41, 110
1, 298560, Note_on_c, 9, 44, 110
1, 298570, Note_on_c, 9, 44, 0
1, 298800, Note_on_c, 9, 44, 110
1, 298810, Note_on_c, 9, 44, 0
1, 299039, Note_on_c, 9, 41, 0
1, 299040, Note_on_c, 9, 40, 110
1, 299040, Note_on_c, 9, 44, 110
1, 299050, Note_on_c, 9, 44, 0
1, 299280, Note_on_c, 9, 44, 110
1, 299290, Note_on_c, 9, 44, 0
1, 299519, Note_on_c, 9, 40, 0
1, 299520, Note_on_c, 9, 41, 110
1, 299520, Note_on_c, 9, 44, 110
1, 299530, Note_on_c, 9, 44, 0
1, 299760, Note_on_c, 9, 44, 110
1, 299770, Note_on_c, 9, 44, 0
1, 299999, Note_on_c, 9, 41, 0
1, 300000, Note_on_c, 9, 40, 110
1, 300000, Note_on_c, 9, 44, 110
1, 300010, Note_on_c, 9, 44, 0
1, 300239, Note_on_c, 9, 40, 0
1, 300240, Note_on_c, 9, 40, 110
1, 300240, Note_on_c, 9, 44, 110
1, 300250, Note_on_c, 9, 44, 0
1, 300359, Note_on_c, 9, 40, 0
1, 300360, Note_on_c, 9, 40, 110
1, 300479, Note_on_c, 9, 40, 0
1, 300480, Note_on_c, 9, 41, 110
1, 300480, Note_on_c, 9, 44, 110
1, 300490, Note_on_c, 9, 44, 0
1, 300720, Note_on_c, 9, 44, 110
1, 300730, Note_on_c, 9, 44, 0
1, 300959, Note_on_c, 9, 41, 0
1, 300960, Note_on_c, 9, 40, 110
1, 300960, Note_on_c, 9, 44, 110
1, 300970, Note_on_c, 9, 44, 0
1, 301200, Note_on_c, 9, 44, 110
1, 301210, Note_on_c, 9, 44, 0
1, 301439, Note_on_c, 9, 40, 0
1, 301440, Note_on_c, 9, 41, 110
1, 301440, Note_on_c, 9, 44, 110
1, 301450, Note_on_c, 9, 44, 0
1, 301680, Note_on_c, 9, 44, 110
1, 301690, Note_on_c, 9, 44, 0
1, 301919, Note_on_c, 9, 41, 0
1, 301920, Note_on_c, 9, 40, 110
1, 301920, Note_on_c, 9, 44, 110
1, 301930, Note_on_c, 9, 44, 0
1, 302159, Note_on_c, 9, 40, 0
1, 302160, Note_on_c, 9, 40, 110
1, 302160, Note_on_c, 9, 44, 110
1, 302170, Note_on_c, 9, 44, 0
1, 302399, Note_on_c, 9, 40, 0
1, 302400, Note_on_c, 9, 41, 110
1, 302400, Note_on_c, 9, 44, 110
1, 302410, Note_on_c, 9, 44, 0
1, 302640, Note_on_c, 9, 44, 110
1, 302650, Note_on_c, 9, 44, 0
1, 302879, Note_on_c, 9, 41, 0
1, 302880, Note_on_c, 9, 40, 110
1, 302880, Note_on_c, 9, 44, 110
1, 302890, Note_on_c, 9, 44, 0
1, 303120, Note_on_c, 9, 44, 110
1, 303130, Note_on_c, 9, 44, 0
1, 303359, Note_on_c, 9, 40, 0
1, 303360, Note_on_c, 9, 41, 110
1, 303360, Note_on_c, 9, 44, 110
1, 303370, Note_on_c, 9, 44, 0
1, 303600, Note_on_c, 9, 44, 110
1, 303610, Note_on_c, 9, 44, 0
1, 303839, Note_on_c, 9, 41, 0
1, 303840, Note_on_c, 9, 40, 110
1, 303840, Note_on_c, 9, 44, 110
1, 303850, Note_on_c, 9, 44, 0
1, 304079, Note_on_c, 9, 40, 0
1, 304080, Note_on_c, 9, 40, 110
1, 304080, Note_on_c, 9, 55, 110
1, 304080, Note_on_c, 9, 44, 110
1, 304090, Note_on_c, 9, 55, 0
1, 304090, Note_on_c, 9, 44, 0
1, 304319, Note_on_c, 9, 40, 0
1, 304320, Note_on_c, 9, 41, 110
1, 304320, Note_on_c, 9, 44, 110
1, 304330, Note_on_c, 9, 44, 0
1, 304560, Note_on_c, 9, 44, 110
1, 304570, Note_on_c, 9, 44, 0
1, 304799, Note_on_c, 9, 41, 0
1, 304800, Note_on_c, 9, 40, 110
1, 304800, Note_on_c, 9, 44, 110
1, 304810, Note_on_c, 9, 44, 0
1, 305040, Note_on_c, 9, 44, 110
1, 305050, Note_on_c, 9, 44, 0
1, 305279, Note_on_c, 9, 40, 0
1, 305280, Note_on_c, 9, 41, 110
1, 305280, Note_on_c, 9, 44, 110
1, 305290, Note_on_c, 9, 44, 0
1, 305520, Note_on_c, 9, 44, 110
1, 305530, Note_on_c, 9, 44, 0
1, 305759, Note_on_c, 9, 41, 0
1, 305760, Note_on_c, 9, 40, 110
1, 305760, Note_on_c, 9, 44, 110
1, 305770, Note_on_c, 9, 44, 0
1, 305999, Note_on_c, 9, 40, 0
1, 306000, Note_on_c, 9, 40, 110
1, 306000, Note_on_c, 9, 44, 110
1, 306010, Note_on_c, 9, 44, 0
1, 306239, Note_on_c, 9, 40, 0
1, 306240, Note_on_c, 9, 41, 110
1, 306240, Note_on_c, 9, 44, 110
1, 306250, Note_on_c, 9, 44, 0
1, 306480, Note_on_c, 9, 44, 110
1, 306490, Note_on_c, 9, 44, 0
1, 306719, Note_on_c, 9, 41, 0
1, 306720, Note_on_c, 9, 40, 110
1, 306720, Note_on_c, 9, 44, 110
1, 306730, Note_on_c, 9, 44, 0
1, 306960, Note_on_c, 9, 44, 110
1, 306970, Note_on_c, 9, 44, 0
1, 307199, Note_on_c, 9, 40, 0
1, 307200, Note_on_c, 9, 41, 110
1, 307200, Note_on_c, 9, 44, 110
1, 307210, Note_on_c, 9, 44, 0
1, 307440, Note_on_c, 9, 44, 110
1, 307450, Note_on_c, 9, 44, 0
1, 307679, Note_on_c, 9, 41, 0
1, 307680, Note_on_c, 9, 40, 110
1, 307680, Note_on_c, 9, 44, 110
1, 307690, Note_on_c, 9, 44, 0
1, 307919, Note_on_c, 9, 40, 0
1, 307920, Note_on_c, 9, 40, 110
1, 307920, Note_on_c, 9, 44, 110
1, 307930, Note_on_c, 9, 44, 0
1, 308039, Note_on_c, 9, 40, 0
1, 308040, Note_on_c, 9, 40, 110
1, 308159, Note_on_c, 9, 40, 0
1, 308160, Note_on_c, 9, 41, 110
1, 308160, Note_on_c, 9, 44, 110
1, 308170, Note_on_c, 9, 44, 0
1, 308400, Note_on_c, 9, 44, 110
1, 308410, Note_on_c, 9, 44, 0
1, 308639, Note_on_c, 9, 41, 0
1, 308640, Note_on_c, 9, 40, 110
1, 308640, Note_on_c, 9, 44, 110
1, 308650, Note_on_c, 9, 44, 0
1, 308880, Note_on_c, 9, 44, 110
1, 308890, Note_on_c, 9, 44, 0
1, 309119, Note_on_c, 9, 40, 0
1, 309120, Note_on_c, 9, 41, 110
1, 309120, Note_on_c, 9, 44, 110
1, 309130, Note_on_c, 9, 44, 0
1, 309360, Note_on_c, 9, 44, 110
1, 309370, Note_on_c, 9, 44, 0
1, 309599, Note_on_c, 9, 41, 0
1, 309600, Note_on_c, 9, 40, 110
1, 309600, Note_on_c, 9, 44, 110
1, 309610, Note_on_c, 9, 44, 0
1, 309839, Note_on_c, 9, 40, 0
1, 309840, Note_on_c, 9, 40, 110
1, 309840, Note_on_c, 9, 44, 110
1, 309850, Note_on_c, 9, 44, 0
1, 310079, Note_on_c, 9, 40, 0
1, 310080, Note_on_c, 9, 41, 110
1, 310080, Note_on_c, 9, 44, 110
1, 310090, Note_on_c, 9, 44, 0
1, 310320, Note_on_c, 9, 44, 110
1, 310330, Note_on_c, 9, 44, 0
1, 310559, Note_on_c, 9, 41, 0
1, 310560, Note_on_c, 9, 40, 110
1, 310560, Note_on_c, 9, 44, 110
1, 310570, Note_on_c, 9, 44, 0
1, 310800, Note_on_c, 9, 44, 110
1, 310810, Note_on_c, 9, 44, 0
1, 311039, Note_on_c, 9, 40, 0
1, 311040, Note_on_c, 9, 41, 110
1, 311040, Note_on_c, 9, 44, 110
1, 311050, Note_on_c, 9, 44, 0
1, 311280, Note_on_c, 9, 44, 110
1, 311290, Note_on_c, 9, 44, 0
1, 311519, Note_on_c, 9, 41, 0
1, 311520, Note_on_c, 9, 40, 110
1, 311520, Note_on_c, 9, 44, 110
1, 311530, Note_on_c, 9, 44, 0
1, 311759, Note_on_c, 9, 40, 0
1, 311760, Note_on_c, 9, 40, 110
1, 311760, Note_on_c, 9, 44, 110
1, 311770, Note_on_c, 9, 44, 0
1, 311999, Note_on_c, 9, 40, 0
1, 312000, Note_on_c, 9, 41, 110
1, 312000, Note_on_c, 9, 44, 110
1, 312010, Note_on_c, 9, 44, 0
1, 312240, Note_on_c, 9, 44, 110
1, 312250, Note_on_c, 9, 44, 0
1, 312479, Note_on_c, 9, 41, 0
1, 312480, Note_on_c, 9, 40, 110
1, 312480, Note_on_c, 9, 44, 110
1, 312490, Note_on_c, 9, 44, 0
1, 312720, Note_on_c, 9, 44, 110
1, 312730, Note_on_c, 9, 44, 0
1, 312959, Note_on_c, 9, 40, 0
1, 312960, Note_on_c, 9, 41, 110
1, 312960, Note_on_c, 9, 44, 110
1, 312970, Note_on_c, 9, 44, 0
1, 313200, Note_on_c, 9, 44, 110
1, 313210, Note_on_c, 9, 44, 0
1, 313439, Note_on_c, 9, 41, 0
1, 313440, Note_on_c, 9, 40, 110
1, 313440, Note_on_c, 9, 44, 110
1, 313450, Note_on_c, 9, 44, 0
1, 313679, Note_on_c, 9, 40, 0
1, 313680, Note_on_c, 9, 40, 110
1, 313680, Note_on_c, 9, 44, 110
1, 313690, Note_on_c, 9, 44, 0
1, 313919, Note_on_c, 9, 40, 0
1, 313920, Note_on_c, 9, 41, 110
1, 313920, Note_on_c, 9, 44, 110
1, 313930, Note_on_c, 9, 44, 0
1, 314160, Note_on_c, 9, 44, 110
1, 314170, Note_on_c, 9, 44, 0
1, 314399, Note_on_c, 9, 41, 0
1, 314400, Note_on_c, 9, 40, 110
1, 314400, Note_on_c, 9, 44, 110
1, 314410, Note_on_c, 9, 44, 0
1, 314640, Note_on_c, 9, 44, 110
1, 314650, Note_on_c, 9, 44, 0
1, 314879, Note_on_c, 9, 40, 0
1, 314880, Note_on_c, 9, 41, 110
1, 314880, Note_on_c, 9, 44, 110
1, 314890, Note_on_c, 9, 44, 0
1, 315120, Note_on_c, 9, 44, 110
1, 315130, Note_on_c, 9, 44, 0
1, 315359, Note_on_c, 9, 41, 0
1, 315360, Note_on_c, 9, 40, 110
1, 315360, Note_on_c, 9, 44, 110
1, 315370, Note_on_c, 9, 44, 0
1, 315599, Note_on_c, 9, 40, 0
1, 315600, Note_on_c, 9, 40, 110
1, 315600, Note_on_c, 9, 44, 110
1, 315610, Note_on_c, 9, 44, 0
1, 315719, Note_on_c, 9, 40, 0
1, 315720, Note_on_c, 9, 40, 110
1, 315839, Note_on_c, 9, 40, 0
1, 315840, Note_on_c, 9, 41, 110
1, 315840, Note_on_c, 9, 44, 110
1, 315850, Note_on_c, 9, 44, 0
1, 316080, Note_on_c, 9, 44, 110
1, 316090, Note_on_c, 9, 44, 0
1, 316319, Note_on_c, 9, 41, 0
1, 316320, Note_on_c, 9, 40, 110
1, 316320, Note_on_c, 9, 44, 110
1, 316330, Note_on_c, 9, 44, 0
1, 316560, Note_on_c, 9, 44, 110
1, 316570, Note_on_c, 9, 44, 0
1, 316799, Note_on_c, 9, 40, 0
1, 316800, Note_on_c, 9, 41, 110
1, 316800, Note_on_c, 9, 44, 110
1, 316810, Note_on_c, 9, 44, 0
1, 317040, Note_on_c, 9, 44, 110
1, 317050, Note_on_c, 9, 44, 0
1, 317279, Note_on_c, 9, 41, 0
1, 317280, Note_on_c, 9, 40, 110
1, 317280, Note_on_c, 9, 44, 110
1, 317290, Note_on_c, 9, 44, 0
1, 317519, Note_on_c, 9, 40, 0
1, 317520, Note_on_c, 9, 40, 110
1, 317520, Note_on_c, 9, 44, 110
1, 317530, Note_on_c, 9, 44, 0
1, 317759, Note_on_c, 9, 40, 0
1, 317760, Note_on_c, 9, 41, 110
1, 317760, Note_on_c, 9, 44, 110
1, 317770, Note_on_c, 9, 44, 0
1, 318000, Note_on_c, 9, 44, 110
1, 318010, Note_on_c, 9, 44, 0
1, 318239, Note_on_c, 9, 41, 0
1, 318240, Note_on_c, 9, 40, 110
1, 318240, Note_on_c, 9, 44, 110
1, 318250, Note_on_c, 9, 44, 0
1, 318480, Note_on_c, 9, 44, 110
1, 318490, Note_on_c, 9, 44, 0
1, 318719, Note_on_c, 9, 40, 0
1, 318720, Note_on_c, 9, 41, 110
1, 318720, Note_on_c, 9, 44, 110
1, 318730, Note_on_c, 9, 44, 0
1, 318960, Note_on_c, 9, 44, 110
1, 318970, Note_on_c, 9, 44, 0
1, 319199, Note_on_c, 9, 41, 0
1, 319200, Note_on_c, 9, 40, 110
1, 319200, Note_on_c, 9, 44, 110
1, 319210, Note_on_c, 9, 44, 0
1, 319439, Note_on_c, 9, 40, 0
1, 319440, Note_on_c, 9, 40, 110
1, 319440, Note_on_c, 9, 55, 110
1, 319440, Note_on_c, 9, 44, 110
1, 319450, Note_on_c, 9, 55, 0
1, 319450, Note_on_c, 9, 44, 0
1, 319679, Note_on_c, 9, 40, 0
1, 319680, Note_on_c, 9, 41, 110
1, 319680, Note_on_c, 9, 44, 110
1, 319690, Note_on_c, 9, 44, 0
1, 319920, Note_on_c, 9, 44, 110
1, 319930, Note_on_c, 9, 44, 0
1, 320159, Note_on_c, 9, 41, 0
1, 320160, Note_on_c, 9, 40, 110
1, 320160, Note_on_c, 9, 44, 110
1, 320170, Note_on_c, 9, 44, 0
1, 320400, Note_on_c, 9, 44, 110
1, 320410, Note_on_c, 9, 44, 0
1, 320639, Note_on_c, 9, 40, 0
1, 320640, Note_on_c, 9, 41, 110
1, 320640, Note_on_c, 9, 44, 110
1, 320650, Note_on_c, 9, 44, 0
1, 320880, Note_on_c, 9, 44, 110
1, 320890, Note_on_c, 9, 44, 0
1, 321119, Note_on_c, 9, 41, 0
1, 321120, Note_on_c, 9, 40, 110
1, 321120, Note_on_c, 9, 44, 110
1, 321130, Note_on_c, 9, 44, 0
1, 321359, Note_on_c, 9, 40, 0
1, 321360, Note_on_c, 9, 40, 110
1, 321360, Note_on_c, 9, 44, 110
1, 321370, Note_on_c, 9, 44, 0
1, 321599, Note_on_c, 9, 40, 0
1, 321600, Note_on_c, 9, 41, 110
1, 321600, Note_on_c, 9, 44, 110
1, 321610, Note_on_c, 9, 44, 0
1, 321840, Note_on_c, 9, 44, 110
1, 321850, Note_on_c, 9, 44, 0
1, 322079, Note_on_c, 9, 41, 0
1, 322080, Note_on_c, 9, 40, 110
1, 322080, Note_on_c, 9, 44, 110
1, 322090, Note_on_c, 9, 44, 0
1, 322320, Note_on_c, 9, 44, 110
1, 322330, Note_on_c, 9, 44, 0
1, 322559, Note_on_c, 9, 40, 0
1, 322560, Note_on_c, 9, 41, 110
1, 322560, Note_on_c, 9, 44, 110
1, 322570, Note_on_c, 9, 44, 0
1, 322800, Note_on_c, 9, 44, 110
1, 322810, Note_on_c, 9, 44, 0
1, 323039, Note_on_c, 9, 41, 0
1, 323040, Note_on_c, 9, 40, 110
1, 323040, Note_on_c, 9, 44, 110
1, 323050, Note_on_c, 9, 44, 0
1, 323279, Note_on_c, 9, 40, 0
1, 323280, Note_on_c, 9, 40, 110
1, 323280, Note_on_c, 9, 44, 110
1, 323290, Note_on_c, 9, 44, 0
1, 323399, Note_on_c, 9, 40, 0
1, 323400, Note_on_c, 9, 40, 110
1, 323519, Note_on_c, 9, 40, 0
1, 323520, Note_on_c, 9, 41, 110
1, 323520, Note_on_c, 9, 44, 110
1, 323530, Note_on_c, 9, 44, 0
1, 323760, Note_on_c, 9, 44, 110
1, 323770, Note_on_c, 9, 44, 0
1, 323999, Note_on_c, 9, 41, 0
1, 324000, Note_on_c, 9, 40, 110
1, 324000, Note_on_c, 9, 44, 110
1, 324010, Note_on_c, 9, 44, 0
1, 324240, Note_on_c, 9, 44, 110
1, 324250, Note_on_c, 9, 44, 0
1, 324479, Note_on_c, 9, 40, 0
1, 324480, Note_on_c, 9, 41, 110
1, 324480, Note_on_c, 9, 44, 110
1, 324490, Note_on_c, 9, 44, 0
1, 324720, Note_on_c, 9, 44, 110
1, 324730, Note_on_c, 9, 44, 0
1, 324959, Note_on_c, 9, 41, 0
1, 324960, Note_on_c, 9, 40, 110
1, 324960, Note_on_c, 9, 44, 110
1, 324970, Note_on_c, 9, 44, 0
1, 325199, Note_on_c, 9, 40, 0
1, 325200, Note_on_c, 9, 40, 110
1, 325200, Note_on_c, 9, 44, 110
1, 325210, Note_on_c, 9, 44, 0
1, 325439, Note_on_c, 9, 40, 0
1, 325440, Note_on_c, 9, 41, 110
1, 325440, Note_on_c, 9, 44, 110
1, 325450, Note_on_c, 9, 44, 0
1, 325680, Note_on_c, 9, 44, 110
1, 325690, Note_on_c, 9, 44, 0
1, 325919, Note_on_c, 9, 41, 0
1, 325920, Note_on_c, 9, 40, 110
1, 325920, Note_on_c, 9, 44, 110
1, 325930, Note_on_c, 9, 44, 0
1, 326160, Note_on_c, 9, 44, 110
1, 326170, Note_on_c, 9, 44, 0
1, 326399, Note_on_c, 9, 40, 0
1, 326400, Note_on_c, 9, 41, 110
1, 326400, Note_on_c, 9, 44, 110
1, 326410, Note_on_c, 9, 44, 0
1, 326640, Note_on_c, 9, 44, 110
1, 326650, Note_on_c, 9, 44, 0
1, 326879, Note_on_c, 9, 41, 0
1, 326880, Note_on_c, 9, 40, 110
1, 326880, Note_on_c, 9, 44, 110
1, 326890, Note_on_c, 9, 44, 0
1, 327119, Note_on_c, 9, 40, 0
1, 327120, Note_on_c, 9, 40, 110
1, 327120, Note_on_c, 9, 44, 110
1, 327130, Note_on_c, 9, 44, 0
1, 327359, Note_on_c, 9, 40, 0
1, 327360, Note_on_c, 9, 41, 110
1, 327360, Note_on_c, 9, 44, 110
1, 327370, Note_on_c, 9, 44, 0
1, 327600, Note_on_c, 9, 44, 110
1, 327610, Note_on_c, 9, 44, 0
1, 327839, Note_on_c, 9, 41, 0
1, 327840, Note_on_c, 9, 40, 110
1, 327840, Note_on_c, 9, 44, 110
1, 327850, Note_on_c, 9, 44, 0
1, 328080, Note_on_c, 9, 44, 110
1, 328090, Note_on_c, 9, 44, 0
1, 328319, Note_on_c, 9, 40, 0
1, 328320, Note_on_c, 9, 41, 110
1, 328320, Note_on_c, 9, 44, 110
1, 328330, Note_on_c, 9, 44, 0
1, 328560, Note_on_c, 9, 44, 110
1, 328570, Note_on_c, 9, 44, 0
1, 328799, Note_on_c, 9, 41, 0
1, 328800, Note_on_c, 9, 40, 110
1, 328800, Note_on_c, 9, 44, 110
1, 328810, Note_on_c, 9, 44, 0
1, 329039, Note_on_c, 9, 40, 0
1, 329040, Note_on_c, 9, 40, 110
1, 329040, Note_on_c, 9, 44, 110
1, 329050, Note_on_c, 9, 44, 0
1, 329279, Note_on_c, 9, 40, 0
1, 329280, Note_on_c, 9, 41, 110
1, 329280, Note_on_c, 9, 44, 110
1, 329290, Note_on_c, 9, 44, 0
1, 329520, Note_on_c, 9, 44, 110
1, 329530, Note_on_c, 9, 44, 0
1, 329759, Note_on_c, 9, 41, 0
1, 329760, Note_on_c, 9, 40, 110
1, 329760, Note_on_c, 9, 44, 110
1, 329770, Note_on_c, 9, 44, 0
1, 330000, Note_on_c, 9, 44, 110
1, 330010, Note_on_c, 9, 44, 0
1, 330239, Note_on_c, 9, 40, 0
1, 330240, Note_on_c, 9, 41, 110
1, 330240, Note_on_c, 9, 44, 110
1, 330250, Note_on_c, 9, 44, 0
1, 330480, Note_on_c, 9, 44, 110
1, 330490, Note_on_c, 9, 44, 0
1, 330719, Note_on_c, 9, 41, 0
1, 330720, Note_on_c, 9, 40, 110
1, 330720, Note_on_c, 9, 44, 110
1, 330730, Note_on_c, 9, 44, 0
1, 330959, Note_on_c, 9, 40, 0
1, 330960, Note_on_c, 9, 40, 110
1, 330960, Note_on_c, 9, 44, 110
1, 330970, Note_on_c, 9, 44, 0
1, 331079, Note_on_c, 9, 40, 0
1, 331080, Note_on_c, 9, 40, 110
1, 331199, Note_on_c, 9, 40, 0
1, 331200, Note_on_c, 9, 41, 110
1, 331200, Note_on_c, 9, 44, 110
1, 331210, Note_on_c, 9, 44, 0
1, 331440, Note_on_c, 9, 44, 110
1, 331450, Note_on_c, 9, 44, 0
1, 331679, Note_on_c, 9, 41, 0
1, 331680, Note_on_c, 9, 40, 110
1, 331680, Note_on_c, 9, 44, 110
1, 331690, Note_on_c, 9, 44, 0
1, 331920, Note_on_c, 9, 44, 110
1, 331930, Note_on_c, 9, 44, 0
1, 332159, Note_on_c, 9, 40, 0
1, 332160, Note_on_c, 9, 41, 110
1, 332160, Note_on_c, 9, 44, 110
1, 332170, Note_on_c, 9, 44, 0
1, 332400, Note_on_c, 9, 44, 110
1, 332410, Note_on_c, 9, 44, 0
1, 332639, Note_on_c, 9, 41, 0
1, 332640, Note_on_c, 9, 40, 110
1, 332640, Note_on_c, 9, 44, 110
1, 332650, Note_on_c, 9, 44, 0
1, 332879, Note_on_c, 9, 40, 0
1, 332880, Note_on_c, 9, 40, 110
1, 332880, Note_on_c, 9, 44, 110
1, 332890, Note_on_c, 9, 44, 0
1, 333119, Note_on_c, 9, 40, 0
1, 333120, Note_on_c, 9, 41, 110
1, 333120, Note_on_c, 9, 44, 110
1, 333130, Note_on_c, 9, 44, 0
1, 333360, Note_on_c, 9, 44, 110
1, 333370, Note_on_c, 9, 44, 0
1, 333599, Note_on_c, 9, 41, 0
1, 333600, Note_on_c, 9, 40, 110
1, 333600, Note_on_c, 9, 44, 110
1, 333610, Note_on_c, 9, 44, 0
1, 333840, Note_on_c, 9, 44, 110
1, 333850, Note_on_c, 9, 44, 0
1, 334079, Note_on_c, 9, 40, 0
1, 334080, Note_on_c, 9, 41, 110
1, 334080, Note_on_c, 9, 44, 110
1, 334090, Note_on_c, 9, 44, 0
1, 334320, Note_on_c, 9, 44, 110
1, 334330, Note_on_c, 9, 44, 0
1, 334559, Note_on_c, 9, 41, 0
1, 334560, Note_on_c, 9, 40, 110
1, 334560, Note_on_c, 9, 44, 110
1, 334570, Note_on_c, 9, 44, 0
1, 334799, Note_on_c, 9, 40, 0
1, 334800, Note_on_c, 9, 40, 110
1, 334800, Note_on_c, 9, 55, 110
1, 334800, Note_on_c, 9, 44, 110
1, 334810, Note_on_c, 9, 55, 0
1, 334810, Note_on_c, 9, 44, 0
1, 335039, Note_on_c, 9, 40, 0
1, 335040, Note_on_c, 9, 41, 110
1, 335040, Note_on_c, 9, 44, 110
1, 335050, Note_on_c, 9, 44, 0
1, 335280, Note_on_c, 9, 44, 110
1, 335290, Note_on_c, 9, 44, 0
1, 335519, Note_on_c, 9, 41, 0
1, 335520, Note_on_c, 9, 40, 110
1, 335520, Note_on_c, 9, 44, 110
1, 335530, Note_on_c, 9, 44, 0
1, 335760, Note_on_c, 9, 44, 110
1, 335770, Note_on_c, 9, 44, 0
1, 335999, Note_on_c, 9, 40, 0
1, 336000, Note_on_c, 9, 41, 110
1, 336000, Note_on_c, 9, 44, 110
1, 336010, Note_on_c, 9, 44, 0
1, 336240, Note_on_c, 9, 44, 110
1, 336250, Note_on_c, 9, 44, 0
1, 336479, Note_on_c, 9, 41, 0
1, 336480, Note_on_c, 9, 40, 110
1, 336480, Note_on_c, 9, 44, 110
1, 336490, Note_on_c, 9, 44, 0
1, 336719, Note_on_c, 9, 40, 0
1, 336720, Note_on_c, 9, 40, 110
1, 336720, Note_on_c, 9, 44, 110
1, 336730, Note_on_c, 9, 44, 0
1, 336959, Note_on_c, 9, 40, 0
1, 336960, Note_on_c, 9, 41, 110
1, 336960, Note_on_c, 9, 44, 110
1, 336970, Note_on_c, 9, 44, 0
1, 337200, Note_on_c, 9, 44, 110
1, 337210, Note_on_c, 9, 44, 0
1, 337439, Note_on_c, 9, 41, 0
1, 337440, Note_on_c, 9, 40, 110
1, 337440, Note_on_c, 9, 44, 110
1, 337450, Note_on_c, 9, 44, 0
1, 337680, Note_on_c, 9, 44, 110
1, 337690, Note_on_c, 9, 44, 0
1, 337919, Note_on_c, 9, 40, 0
1, 337920, Note_on_c, 9, 41, 110
1, 337920, Note_on_c, 9, 44, 110
1, 337930, Note_on_c, 9, 44, 0
1, 338160, Note_on_c, 9, 44, 110
1, 338170, Note_on_c, 9, 44, 0
1, 338399, Note_on_c, 9, 41, 0
1, 338400, Note_on_c, 9, 40, 110
1, 338400, Note_on_c, 9, 44, 110
1, 338422, Note_on_c, 9, 44, 0
1, 338639, Note_on_c, 9, 40, 0
1, 338640, Note_on_c, 9, 41, 110
1, 338640, Note_on_c, 9, 55, 110
1, 338650, Note_on_c, 9, 55, 0
1, 338879, Note_on_c, 9, 41, 0
1, 338880, Tempo, 250000
1, 339120, Note_on_c, 9, 41, 110
1, 339120, Note_on_c, 9, 44, 110
1, 339142, Note_on_c, 9, 44, 0
1, 339359, Note_on_c, 9, 41, 0
1, 339360, Note_on_c, 9, 40, 110
1, 339360, Note_on_c, 9, 44, 110
1, 339382, Note_on_c, 9, 44, 0
1, 339600, Note_on_c, 9, 44, 110
1, 339622, Note_on_c, 9, 44, 0
1, 339839, Note_on_c, 9, 40, 0
1, 339840, Note_on_c, 9, 41, 110
1, 339840, Note_on_c, 9, 44, 110
1, 339862, Note_on_c, 9, 44, 0
1, 340079, Note_on_c, 9, 41, 0
1, 340080, Note_on_c, 9, 41, 110
1, 340080, Note_on_c, 9, 44, 110
1, 340102, Note_on_c, 9, 44, 0
1, 340319, Note_on_c, 9, 41, 0
1, 340320, Note_on_c, 9, 40, 110
1, 340320, Note_on_c, 9, 44, 110
1, 340342, Note_on_c, 9, 44, 0
1, 340560, Note_on_c, 9, 44, 110
1, 340582, Note_on_c, 9, 44, 0
1, 340799, Note_on_c, 9, 40, 0
1, 340800, Note_on_c, 9, 41, 110
1, 340800, Note_on_c, 9, 44, 110
1, 340822, Note_on_c, 9, 44, 0
1, 341039, Note_on_c, 9, 41, 0
1, 341040, Note_on_c, 9, 41, 110
1, 341040, Note_on_c, 9, 44, 110
1, 341062, Note_on_c, 9, 44, 0
1, 341279, Note_on_c, 9, 41, 0
1, 341280, Note_on_c, 9, 40, 110
1, 341280, Note_on_c, 9, 44, 110
1, 341302, Note_on_c, 9, 44, 0
1, 341520, Note_on_c, 9, 44, 110
1, 341542, Note_on_c, 9, 44, 0
1, 341759, Note_on_c, 9, 40, 0
1, 341760, Note_on_c, 9, 41, 110
1, 341760, Note_on_c, 9, 44, 110
1, 341782, Note_on_c, 9, 44, 0
1, 341999, Note_on_c, 9, 41, 0
1, 342000, Note_on_c, 9, 41, 110
1, 342000, Note_on_c, 9, 44, 110
1, 342022, Note_on_c, 9, 44, 0
1, 342239, Note_on_c, 9, 41, 0
1, 342240, Note_on_c, 9, 40, 110
1, 342240, Note_on_c, 9, 44, 110
1, 342285, Note_on_c, 9, 44, 0
1, 342479, Note_on_c, 9, 40, 0
1, 342480, Note_on_c, 9, 41, 110
1, 342480, Note_on_c, 9, 55, 110
1, 342502, Note_on_c, 9, 55, 0
1, 342719, Note_on_c, 9, 41, 0
1, 342960, Note_on_c, 9, 41, 110
1, 342960, Note_on_c, 9, 44, 110
1, 342982, Note_on_c, 9, 44, 0
1, 343199, Note_on_c, 9, 41, 0
1, 343200, Note_on_c, 9, 40, 110
1, 343200, Note_on_c, 9, 44, 110
1, 343222, Note_on_c, 9, 44, 0
1, 343440, Note_on_c, 9, 44, 110
1, 343462, Note_on_c, 9, 44, 0
1, 343679, Note_on_c, 9, 40, 0
1, 343680, Note_on_c, 9, 41, 110
1, 343680, Note_on_c, 9, 44, 110
1, 343702, Note_on_c, 9, 44, 0
1, 343919, Note_on_c, 9, 41, 0
1, 343920, Note_on_c, 9, 41, 110
1, 343920, Note_on_c, 9, 44, 110
1, 343942, Note_on_c, 9, 44, 0
1, 344159, Note_on_c, 9, 41, 0
1, 344160, Note_on_c, 9, 40, 110
1, 344160, Note_on_c, 9, 44, 110
1, 344182, Note_on_c, 9, 44, 0
1, 344400, Note_on_c, 9, 44, 110
1, 344422, Note_on_c, 9, 44, 0
1, 344639, Note_on_c, 9, 40, 0
1, 344640, Note_on_c, 9, 41, 110
1, 344640, Note_on_c, 9, 44, 110
1, 344662, Note_on_c, 9, 44, 0
1, 344879, Note_on_c, 9, 41, 0
1, 344880, Note_on_c, 9, 41, 110
1, 344880, Note_on_c, 9, 44, 110
1, 344902, Note_on_c, 9, 44, 0
1, 345119, Note_on_c, 9, 41, 0
1, 345120, Note_on_c, 9, 40, 110
1, 345120, Note_on_c, 9, 44, 110
1, 345142, Note_on_c, 9, 44, 0
1, 345360, Note_on_c, 9, 44, 110
1, 345382, Note_on_c, 9, 44, 0
1, 345599, Note_on_c, 9, 40, 0
1, 345600, Note_on_c, 9, 41, 110
1, 345600, Note_on_c, 9, 44, 110
1, 345622, Note_on_c, 9, 44, 0
1, 345839, Note_on_c, 9, 41, 0
1, 345840, Note_on_c, 9, 41, 110
1, 345840, Note_on_c, 9, 44, 110
1, 345862, Note_on_c, 9, 44, 0
1, 346079, Note_on_c, 9, 41, 0
1, 346080, Note_on_c, 9, 40, 110
1, 346080, Note_on_c, 9, 44, 110
1, 346125, Note_on_c, 9, 44, 0
1, 346319, Note_on_c, 9, 40, 0
1, 346320, Note_on_c, 9, 41, 110
1, 346320, Note_on_c, 9, 55, 110
1, 346342, Note_on_c, 9, 55, 0
1, 346559, Note_on_c, 9, 41, 0
1, 346800, Note_on_c, 9, 41, 110
1, 346800, Note_on_c, 9, 44, 110
1, 346822, Note_on_c, 9, 44, 0
1, 347039, Note_on_c, 9, 41, 0
1, 347040, Note_on_c, 9, 40, 110
1, 347040, Note_on_c, 9, 44, 110
1, 347062, Note_on_c, 9, 44, 0
1, 347280, Note_on_c, 9, 44, 110
1, 347302, Note_on_c, 9, 44, 0
1, 347519, Note_on_c, 9, 40, 0
1, 347520, Note_on_c, 9, 41, 110
1, 347520, Note_on_c, 9, 44, 110
1, 347542, Note_on_c, 9, 44, 0
1, 347759, Note_on_c, 9, 41, 0
1, 347760, Note_on_c, 9, 41, 110
1, 347760, Note_on_c, 9, 44, 110
1, 347782, Note_on_c, 9, 44, 0
1, 347999, Note_on_c, 9, 41, 0
1, 348000, Note_on_c, 9, 40, 110
1, 348000, Note_on_c, 9, 44, 110
1, 348022, Note_on_c, 9, 44, 0
1, 348240, Note_on_c, 9, 44, 110
1, 348262, Note_on_c, 9, 44, 0
1, 348479, Note_on_c, 9, 40, 0
1, 348480, Note_on_c, 9, 41, 110
1, 348480, Note_on_c, 9, 44, 110
1, 348502, Note_on_c, 9, 44, 0
1, 348719, Note_on_c, 9, 41, 0
1, 348720, Note_on_c, 9, 41, 110
1, 348720, Note_on_c, 9, 44, 110
1, 348742, Note_on_c, 9, 44, 0
1, 348959, Note_on_c, 9, 41, 0
1, 348960, Note_on_c, 9, 40, 110
1, 348960, Note_on_c, 9, 44, 110
1, 348982, Note_on_c, 9, 44, 0
1, 349200, Note_on_c, 9, 44, 110
1, 349222, Note_on_c, 9, 44, 0
1, 349439, Note_on_c, 9, 40, 0
1, 349440, Note_on_c, 9, 41, 110
1, 349440, Note_on_c, 9, 44, 110
1, 349462, Note_on_c, 9, 44, 0
1, 349679, Note_on_c, 9, 41, 0
1, 349680, Note_on_c, 9, 41, 110
1, 349680, Note_on_c, 9, 44, 110
1, 349702, Note_on_c, 9, 44, 0
1, 349919, Note_on_c, 9, 41, 0
1, 349920, Note_on_c, 9, 40, 110
1, 349920, Note_on_c, 9, 44, 110
1, 349965, Note_on_c, 9, 44, 0
1, 350159, Note_on_c, 9, 40, 0
1, 350160, Note_on_c, 9, 41, 110
1, 350160, Note_on_c, 9, 55, 110
1, 350182, Note_on_c, 9, 55, 0
1, 350399, Note_on_c, 9, 41, 0
1, 350640, Note_on_c, 9, 41, 110
1, 350640, Note_on_c, 9, 44, 110
1, 350662, Note_on_c, 9, 44, 0
1, 350879, Note_on_c, 9, 41, 0
1, 350880, Note_on_c, 9, 40, 110
1, 350880, Note_on_c, 9, 44, 110
1, 350902, Note_on_c, 9, 44, 0
1, 351120, Note_on_c, 9, 44, 110
1, 351142, Note_on_c, 9, 44, 0
1, 351359, Note_on_c, 9, 40, 0
1, 351360, Note_on_c, 9, 41, 110
1, 351360, Note_on_c, 9, 44, 110
1, 351382, Note_on_c, 9, 44, 0
1, 351599, Note_on_c, 9, 41, 0
1, 351600, Note_on_c, 9, 41, 110
1, 351600, Note_on_c, 9, 44, 110
1, 351622, Note_on_c, 9, 44, 0
1, 351839, Note_on_c, 9, 41, 0
1, 351840, Note_on_c, 9, 40, 110
1, 351840, Note_on_c, 9, 44, 110
1, 351862, Note_on_c, 9, 44, 0
1, 352080, Note_on_c, 9, 44, 110
1, 352102, Note_on_c, 9, 44, 0
1, 352319, Note_on_c, 9, 40, 0
1, 352320, Note_on_c, 9, 41, 110
1, 352320, Note_on_c, 9, 44, 110
1, 352342, Note_on_c, 9, 44, 0
1, 352559, Note_on_c, 9, 41, 0
1, 352560, Note_on_c, 9, 41, 110
1, 352560, Note_on_c, 9, 44, 110
1, 352582, Note_on_c, 9, 44, 0
1, 352799, Note_on_c, 9, 41, 0
1, 352800, Note_on_c, 9, 40, 110
1, 352800, Note_on_c, 9, 44, 110
1, 352822, Note_on_c, 9, 44, 0
1, 353040, Note_on_c, 9, 44, 110
1, 353062, Note_on_c, 9, 44, 0
1, 353279, Note_on_c, 9, 40, 0
1, 353280, Note_on_c, 9, 41, 110
1, 353280, Note_on_c, 9, 44, 110
1, 353302, Note_on_c, 9, 44, 0
1, 353519, Note_on_c, 9, 41, 0
1, 353520, Note_on_c, 9, 41, 110
1, 353520, Note_on_c, 9, 44, 110
1, 353542, Note_on_c, 9, 44, 0
1, 353759, Note_on_c, 9, 41, 0
1, 353760, Note_on_c, 9, 40, 110
1, 353760, Note_on_c, 9, 44, 110
1, 353805, Note_on_c, 9, 44, 0
1, 353999, Note_on_c, 9, 40, 0
1, 354000, Note_on_c, 9, 41, 110
1, 354000, Note_on_c, 9, 55, 110
1, 354022, Note_on_c, 9, 55, 0
1, 354239, Note_on_c, 9, 41, 0
1, 354480, Note_on_c, 9, 41, 110
1, 354480, Note_on_c, 9, 44, 110
1, 354502, Note_on_c, 9, 44, 0
1, 354719, Note_on_c, 9, 41, 0
1, 354720, Note_on_c, 9, 40, 110
1, 354720, Note_on_c, 9, 44, 110
1, 354742, Note_on_c, 9, 44, 0
1, 354960, Note_on_c, 9, 44, 110
1, 354982, Note_on_c, 9, 44, 0
1, 355199, Note_on_c, 9, 40, 0
1, 355200, Note_on_c, 9, 41, 110
1, 355200, Note_on_c, 9, 44, 110
1, 355222, Note_on_c, 9, 44, 0
1, 355439, Note_on_c, 9, 41, 0
1, 355440, Note_on_c, 9, 41, 110
1, 355440, Note_on_c, 9, 44, 110
1, 355462, Note_on_c, 9, 44, 0
1, 355679, Note_on_c, 9, 41, 0
1, 355680, Note_on_c, 9, 40, 110
1, 355680, Note_on_c, 9, 44, 110
1, 355702, Note_on_c, 9, 44, 0
1, 355920, Note_on_c, 9, 44, 110
1, 355942, Note_on_c, 9, 44, 0
1, 356159, Note_on_c, 9, 40, 0
1, 356160, Note_on_c, 9, 41, 110
1, 356160, Note_on_c, 9, 44, 110
1, 356182, Note_on_c, 9, 44, 0
1, 356399, Note_on_c, 9, 41, 0
1, 356400, Note_on_c, 9, 41, 110
1, 356400, Note_on_c, 9, 44, 110
1, 356422, Note_on_c, 9, 44, 0
1, 356639, Note_on_c, 9, 41, 0
1, 356640, Note_on_c, 9, 40, 110
1, 356640, Note_on_c, 9, 44, 110
1, 356662, Note_on_c, 9, 44, 0
1, 356880, Note_on_c, 9, 44, 110
1, 356902, Note_on_c, 9, 44, 0
1, 357119, Note_on_c, 9, 40, 0
1, 357120, Note_on_c, 9, 41, 110
1, 357120, Note_on_c, 9, 44, 110
1, 357142, Note_on_c, 9, 44, 0
1, 357359, Note_on_c, 9, 41, 0
1, 357360, Note_on_c, 9, 41, 110
1, 357360, Note_on_c, 9, 44, 110
1, 357382, Note_on_c, 9, 44, 0
1, 357599, Note_on_c, 9, 41, 0
1, 357600, Note_on_c, 9, 40, 110
1, 357600, Note_on_c, 9, 44, 110
1, 357645, Note_on_c, 9, 44, 0
1, 357839, Note_on_c, 9, 40, 0
1, 357840, Note_on_c, 9, 41, 110
1, 357840, Note_on_c, 9, 55, 110
1, 357862, Note_on_c, 9, 55, 0
1, 358079, Note_on_c, 9, 41, 0
1, 358320, Note_on_c, 9, 41, 110
1, 358320, Note_on_c, 9, 44, 110
1, 358342, Note_on_c, 9, 44, 0
1, 358559, Note_on_c, 9, 41, 0
1, 358560, Note_on_c, 9, 40, 110
1, 358560, Note_on_c, 9, 44, 110
1, 358582, Note_on_c, 9, 44, 0
1, 358800, Note_on_c, 9, 44, 110
1, 358822, Note_on_c, 9, 44, 0
1, 359039, Note_on_c, 9, 40, 0
1, 359040, Note_on_c, 9, 41, 110
1, 359040, Note_on_c, 9, 44, 110
1, 359062, Note_on_c, 9, 44, 0
1, 359279, Note_on_c, 9, 41, 0
1, 359280, Note_on_c, 9, 41, 110
1, 359280, Note_on_c, 9, 44, 110
1, 359302, Note_on_c, 9, 44, 0
1, 359519, Note_on_c, 9, 41, 0
1, 359520, Note_on_c, 9, 40, 110
1, 359520, Note_on_c, 9, 44, 110
1, 359542, Note_on_c, 9, 44, 0
1, 359760, Note_on_c, 9, 44, 110
1, 359782, Note_on_c, 9, 44, 0
1, 359999, Note_on_c, 9, 40, 0
1, 360000, Note_on_c, 9, 41, 110
1, 360000, Note_on_c, 9, 44, 110
1, 360022, Note_on_c, 9, 44, 0
1, 360239, Note_on_c, 9, 41, 0
1, 360240, Note_on_c, 9, 41, 110
1, 360240, Note_on_c, 9, 44, 110
1, 360262, Note_on_c, 9, 44, 0
1, 360479, Note_on_c, 9, 41, 0
1, 360480, Note_on_c, 9, 40, 110
1, 360480, Note_on_c, 9, 44, 110
1, 360502, Note_on_c, 9, 44, 0
1, 360720, Note_on_c, 9, 44, 110
1, 360742, Note_on_c, 9, 44, 0
1, 360959, Note_on_c, 9, 40, 0
1, 360960, Note_on_c, 9, 41, 110
1, 360960, Note_on_c, 9, 44, 110
1, 360982, Note_on_c, 9, 44, 0
1, 361199, Note_on_c, 9, 41, 0
1, 361200, Note_on_c, 9, 41, 110
1, 361200, Note_on_c, 9, 44, 110
1, 361222, Note_on_c, 9, 44, 0
1, 361439, Note_on_c, 9, 41, 0
1, 361440, Note_on_c, 9, 40, 110
1, 361440, Note_on_c, 9, 44, 110
1, 361485, Note_on_c, 9, 44, 0
1, 361679, Note_on_c, 9, 40, 0
1, 361680, Note_on_c, 9, 41, 110
1, 361680, Note_on_c, 9, 55, 110
1, 361702, Note_on_c, 9, 55, 0
1, 361919, Note_on_c, 9, 41, 0
1, 362160, Note_on_c, 9, 41, 110
1, 362160, Note_on_c, 9, 44, 110
1, 362182, Note_on_c, 9, 44, 0
1, 362399, Note_on_c, 9, 41, 0
1, 362400, Note_on_c, 9, 40, 110
1, 362400, Note_on_c, 9, 44, 110
1, 362422, Note_on_c, 9, 44, 0
1, 362640, Note_on_c, 9, 44, 110
1, 362662, Note_on_c, 9, 44, 0
1, 362879, Note_on_c, 9, 40, 0
1, 362880, Note_on_c, 9, 41, 110
1, 362880, Note_on_c, 9, 44, 110
1, 362902, Note_on_c, 9, 44, 0
1, 363119, Note_on_c, 9, 41, 0
1, 363120, Note_on_c, 9, 41, 110
1, 363120, Note_on_c, 9, 44, 110
1, 363142, Note_on_c, 9, 44, 0
1, 363359, Note_on_c, 9, 41, 0
1, 363360, Note_on_c, 9, 40, 110
1, 363360, Note_on_c, 9, 44, 110
1, 363382, Note_on_c, 9, 44, 0
1, 363600, Note_on_c, 9, 44, 110
1, 363622, Note_on_c, 9, 44, 0
1, 363839, Note_on_c, 9, 40, 0
1, 363840, Note_on_c, 9, 41, 110
1, 363840, Note_on_c, 9, 44, 110
1, 363862, Note_on_c, 9, 44, 0
1, 364079, Note_on_c, 9, 41, 0
1, 364080, Note_on_c, 9, 41, 110
1, 364080, Note_on_c, 9, 44, 110
1, 364102, Note_on_c, 9, 44, 0
1, 364319, Note_on_c, 9, 41, 0
1, 364320, Note_on_c, 9, 40, 110
1, 364320, Note_on_c, 9, 44, 110
1, 364342, Note_on_c, 9, 44, 0
1, 364560, Note_on_c, 9, 44, 110
1, 364582, Note_on_c, 9, 44, 0
1, 364799, Note_on_c, 9, 40, 0
1, 364800, Note_on_c, 9, 41, 110
1, 364800, Note_on_c, 9, 44, 110
1, 364822, Note_on_c, 9, 44, 0
1, 365039, Note_on_c, 9, 41, 0
1, 365040, Note_on_c, 9, 41, 110
1, 365040, Note_on_c, 9, 44, 110
1, 365062, Note_on_c, 9, 44, 0
1, 365279, Note_on_c, 9, 41, 0
1, 365280, Note_on_c, 9, 40, 110
1, 365280, Note_on_c, 9, 44, 110
1, 365325, Note_on_c, 9, 44, 0
1, 365519, Note_on_c, 9, 40, 0
1, 365520, Note_on_c, 9, 41, 110
1, 365520, Note_on_c, 9, 55, 110
1, 365542, Note_on_c, 9, 55, 0
1, 365759, Note_on_c, 9, 41, 0
1, 366000, Note_on_c, 9, 41, 110
1, 366000, Note_on_c, 9, 44, 110
1, 366022, Note_on_c, 9, 44, 0
1, 366239, Note_on_c, 9, 41, 0
1, 366240, Note_on_c, 9, 40, 110
1, 366240, Note_on_c, 9, 44, 110
1, 366262, Note_on_c, 9, 44, 0
1, 366480, Note_on_c, 9, 44, 110
1, 366502, Note_on_c, 9, 44, 0
1, 366719, Note_on_c, 9, 40, 0
1, 366720, Note_on_c, 9, 41, 110
1, 366720, Note_on_c, 9, 44, 110
1, 366742, Note_on_c, 9, 44, 0
1, 366959, Note_on_c, 9, 41, 0
1, 366960, Note_on_c, 9, 41, 110
1, 366960, Note_on_c, 9, 44, 110
1, 366982, Note_on_c, 9, 44, 0
1, 367199, Note_on_c, 9, 41, 0
1, 367200, Note_on_c, 9, 40, 110
1, 367200, Note_on_c, 9, 44, 110
1, 367222, Note_on_c, 9, 44, 0
1, 367440, Note_on_c, 9, 44, 110
1, 367462, Note_on_c, 9, 44, 0
1, 367679, Note_on_c, 9, 40, 0
1, 367680, Note_on_c, 9, 41, 110
1, 367680, Note_on_c, 9, 44, 110
1, 367702, Note_on_c, 9, 44, 0
1, 367919, Note_on_c, 9, 41, 0
1, 367920, Note_on_c, 9, 41, 110
1, 367920, Note_on_c, 9, 44, 110
1, 367942, Note_on_c, 9, 44, 0
1, 368159, Note_on_c, 9, 41, 0
1, 368160, Note_on_c, 9, 40, 110
1, 368160, Note_on_c, 9, 44, 110
1, 368182, Note_on_c, 9, 44, 0
1, 368400, Note_on_c, 9, 44, 110
1, 368422, Note_on_c, 9, 44, 0
1, 368639, Note_on_c, 9, 40, 0
1, 368640, Note_on_c, 9, 41, 110
1, 368640, Note_on_c, 9, 44, 110
1, 368662, Note_on_c, 9, 44, 0
1, 368879, Note_on_c, 9, 41, 0
1, 368880, Note_on_c, 9, 41, 110
1, 368880, Note_on_c, 9, 44, 110
1, 368902, Note_on_c, 9, 44, 0
1, 369119, Note_on_c, 9, 41, 0
1, 369120, Note_on_c, 9, 40, 110
1, 369120, Note_on_c, 9, 44, 110
1, 369165, Note_on_c, 9, 44, 0
1, 369359, Note_on_c, 9, 40, 0
1, 369360, Note_on_c, 9, 41, 110
1, 369360, Note_on_c, 9, 55, 110
1, 369382, Note_on_c, 9, 55, 0
1, 369599, Note_on_c, 9, 41, 0
1, 369840, Note_on_c, 9, 41, 110
1, 369840, Note_on_c, 9, 44, 110
1, 369862, Note_on_c, 9, 44, 0
1, 370079, Note_on_c, 9, 41, 0
1, 370080, Note_on_c, 9, 40, 110
1, 370080, Note_on_c, 9, 44, 110
1, 370102, Note_on_c, 9, 44, 0
1, 370320, Note_on_c, 9, 44, 110
1, 370342, Note_on_c, 9, 44, 0
1, 370559, Note_on_c, 9, 40, 0
1, 370560, Note_on_c, 9, 41, 110
1, 370560, Note_on_c, 9, 44, 110
1, 370582, Note_on_c, 9, 44, 0
1, 370799, Note_on_c, 9, 41, 0
1, 370800, Note_on_c, 9, 41, 110
1, 370800, Note_on_c, 9, 44, 110
1, 370822, Note_on_c, 9, 44, 0
1, 371039, Note_on_c, 9, 41, 0
1, 371040, Note_on_c, 9, 40, 110
1, 371040, Note_on_c, 9, 44, 110
1, 371085, Note_on_c, 9, 44, 0
1, 371279, Note_on_c, 9, 40, 0
1, 371280, Note_on_c, 9, 41, 110
1, 371280, Note_on_c, 9, 55, 110
1, 371302, Note_on_c, 9, 55, 0
1, 371519, Note_on_c, 9, 41, 0
1, 371760, Note_on_c, 9, 41, 110
1, 371760, Note_on_c, 9, 44, 110
1, 371782, Note_on_c, 9, 44, 0
1, 371999, Note_on_c, 9, 41, 0
1, 372000, Note_on_c, 9, 40, 110
1, 372000, Note_on_c, 9, 44, 110
1, 372022, Note_on_c, 9, 44, 0
1, 372240, Note_on_c, 9, 44, 110
1, 372262, Note_on_c, 9, 44, 0
1, 372479, Note_on_c, 9, 40, 0
1, 372480, Note_on_c, 9, 41, 110
1, 372480, Note_on_c, 9, 44, 110
1, 372502, Note_on_c, 9, 44, 0
1, 372719, Note_on_c, 9, 41, 0
1, 372720, Note_on_c, 9, 41, 110
1, 372720, Note_on_c, 9, 44, 110
1, 372742, Note_on_c, 9, 44, 0
1, 372959, Note_on_c, 9, 41, 0
1, 372960, Note_on_c, 9, 40, 110
1, 372960, Note_on_c, 9, 44, 110
1, 373005, Note_on_c, 9, 44, 0
1, 373199, Note_on_c, 9, 40, 0
1, 373200, Note_on_c, 9, 41, 110
1, 373200, Note_on_c, 9, 55, 110
1, 373222, Note_on_c, 9, 55, 0
1, 373439, Note_on_c, 9, 41, 0
1, 373680, Note_on_c, 9, 41, 110
1, 373680, Note_on_c, 9, 44, 110
1, 373702, Note_on_c, 9, 44, 0
1, 373919, Note_on_c, 9, 41, 0
1, 373920, Note_on_c, 9, 40, 110
1, 373920, Note_on_c, 9, 44, 110
1, 373942, Note_on_c, 9, 44, 0
1, 374160, Note_on_c, 9, 44, 110
1, 374182, Note_on_c, 9, 44, 0
1, 374399, Note_on_c, 9, 40, 0
1, 374400, Note_on_c, 9, 41, 110
1, 374400, Note_on_c, 9, 44, 110
1, 374422, Note_on_c, 9, 44, 0
1, 374639, Note_on_c, 9, 41, 0
1, 374640, Note_on_c, 9, 41, 110
1, 374640, Note_on_c, 9, 44, 110
1, 374662, Note_on_c, 9, 44, 0
1, 374879, Note_on_c, 9, 41, 0
1, 374880, Note_on_c, 9, 40, 110
1, 374880, Note_on_c, 9, 44, 110
1, 374925, Note_on_c, 9, 44, 0
1, 375119, Note_on_c, 9, 40, 0
1, 375120, Note_on_c, 9, 41, 110
1, 375120, Note_on_c, 9, 55, 110
1, 375142, Note_on_c, 9, 55, 0
1, 375359, Note_on_c, 9, 41, 0
1, 375600, Note_on_c, 9, 41, 110
1, 375600, Note_on_c, 9, 44, 110
1, 375622, Note_on_c, 9, 44, 0
1, 375839, Note_on_c, 9, 41, 0
1, 375840, Note_on_c, 9, 40, 110
1, 375840, Note_on_c, 9, 44, 110
1, 375862, Note_on_c, 9, 44, 0
1, 376079, Note_on_c, 9, 40, 0
1, 376080, Note_on_c, 9, 55, 110
1, 376080, Note_on_c, 9, 44, 110
1, 376102, Note_on_c, 9, 55, 0
1, 376102, Note_on_c, 9, 44, 0
1, 376320, Note_on_c, 9, 41, 110
1, 376320, Note_on_c, 9, 44, 110
1, 376342, Note_on_c, 9, 44, 0
1, 376559, Note_on_c, 9, 41, 0
1, 376560, Note_on_c, 9, 41, 110
1, 376560, Note_on_c, 9, 44, 110
1, 376582, Note_on_c, 9, 44, 0
1, 376799, Note_on_c, 9, 41, 0
1, 376800, Note_on_c, 9, 40, 110
1, 376800, Note_on_c, 9, 44, 110
1, 376845, Note_on_c, 9, 44, 0
1, 377039, Note_on_c, 9, 40, 0
1, 377040, Note_on_c, 9, 41, 110
1, 377040, Note_on_c, 9, 55, 110
1, 377062, Note_on_c, 9, 55, 0
1, 377279, Note_on_c, 9, 41, 0
1, 377520, Note_on_c, 9, 41, 110
1, 377520, Note_on_c, 9, 44, 110
1, 377542, Note_on_c, 9, 44, 0
1, 377759, Note_on_c, 9, 41, 0
1, 377760, Note_on_c, 9, 40, 110
1, 377760, Note_on_c, 9, 44, 110
1, 377782, Note_on_c, 9, 44, 0
1, 378000, Note_on_c, 9, 44, 110
1, 378022, Note_on_c, 9, 44, 0
1, 378239, Note_on_c, 9, 40, 0
1, 378240, Note_on_c, 9, 41, 110
1, 378240, Note_on_c, 9, 44, 110
1, 378262, Note_on_c, 9, 44, 0
1, 378479, Note_on_c, 9, 41, 0
1, 378480, Note_on_c, 9, 41, 110
1, 378480, Note_on_c, 9, 44, 110
1, 378502, Note_on_c, 9, 44, 0
1, 378719, Note_on_c, 9, 41, 0
1, 378720, Note_on_c, 9, 40, 110
1, 378720, Note_on_c, 9, 44, 110
1, 378765, Note_on_c, 9, 44, 0
1, 378959, Note_on_c, 9, 40, 0
1, 378960, Note_on_c, 9, 41, 110
1, 378960, Note_on_c, 9, 55, 110
1, 378982, Note_on_c, 9, 55, 0
1, 379199, Note_on_c, 9, 41, 0
1, 379440, Note_on_c, 9, 41, 110
1, 379440, Note_on_c, 9, 44, 110
1, 379462, Note_on_c, 9, 44, 0
1, 379679, Note_on_c, 9, 41, 0
1, 379680, Note_on_c, 9, 40, 110
1, 379680, Note_on_c, 9, 44, 110
1, 379702, Note_on_c, 9, 44, 0
1, 379920, Note_on_c, 9, 44, 110
1, 379942, Note_on_c, 9, 44, 0
1, 380159, Note_on_c, 9, 40, 0
1, 380160, Note_on_c, 9, 41, 110
1, 380160, Note_on_c, 9, 44, 110
1, 380182, Note_on_c, 9, 44, 0
1, 380399, Note_on_c, 9, 41, 0
1, 380400, Note_on_c, 9, 41, 110
1, 380400, Note_on_c, 9, 44, 110
1, 380422, Note_on_c, 9, 44, 0
1, 380639, Note_on_c, 9, 41, 0
1, 380640, Note_on_c, 9, 40, 110
1, 380640, Note_on_c, 9, 44, 110
1, 380685, Note_on_c, 9, 44, 0
1, 380879, Note_on_c, 9, 40, 0
1, 380880, Note_on_c, 9, 41, 110
1, 380880, Note_on_c, 9, 55, 110
1, 380902, Note_on_c, 9, 55, 0
1, 381119, Note_on_c, 9, 41, 0
1, 381360, Note_on_c, 9, 41, 110
1, 381360, Note_on_c, 9, 44, 110
1, 381382, Note_on_c, 9, 44, 0
1, 381599, Note_on_c, 9, 41, 0
1, 381600, Note_on_c, 9, 40, 110
1, 381600, Note_on_c, 9, 44, 110
1, 381622, Note_on_c, 9, 44, 0
1, 381840, Note_on_c, 9, 44, 110
1, 381862, Note_on_c, 9, 44, 0
1, 382079, Note_on_c, 9, 40, 0
1, 382080, Note_on_c, 9, 41, 110
1, 382080, Note_on_c, 9, 44, 110
1, 382102, Note_on_c, 9, 44, 0
1, 382319, Note_on_c, 9, 41, 0
1, 382320, Note_on_c, 9, 41, 110
1, 382320, Note_on_c, 9, 44, 110
1, 382342, Note_on_c, 9, 44, 0
1, 382559, Note_on_c, 9, 41, 0
1, 382560, Note_on_c, 9, 40, 110
1, 382560, Note_on_c, 9, 44, 110
1, 382582, Note_on_c, 9, 44, 0
1, 382800, Note_on_c, 9, 44, 110
1, 382822, Note_on_c, 9, 44, 0
1, 383039, Note_on_c, 9, 40, 0
1, 383040, Note_on_c, 9, 41, 110
1, 383040, Note_on_c, 9, 44, 110
1, 383062, Note_on_c, 9, 44, 0
1, 383279, Note_on_c, 9, 41, 0
1, 383280, Note_on_c, 9, 41, 110
1, 383280, Note_on_c, 9, 44, 110
1, 383302, Note_on_c, 9, 44, 0
1, 383519, Note_on_c, 9, 41, 0
1, 383520, Note_on_c, 9, 40, 110
1, 383520, Note_on_c, 9, 44, 110
1, 383542, Note_on_c, 9, 44, 0
1, 383760, Note_on_c, 9, 44, 110
1, 383782, Note_on_c, 9, 44, 0
1, 383999, Note_on_c, 9, 40, 0
1, 384000, Note_on_c, 9, 41, 110
1, 384000, Note_on_c, 9, 44, 110
1, 384022, Note_on_c, 9, 44, 0
1, 384239, Note_on_c, 9, 41, 0
1, 384240, Note_on_c, 9, 41, 110
1, 384240, Note_on_c, 9, 44, 110
1, 384262, Note_on_c, 9, 44, 0
1, 384479, Note_on_c, 9, 41, 0
1, 384480, Note_on_c, 9, 40, 110
1, 384480, Note_on_c, 9, 44, 110
1, 384525, Note_on_c, 9, 44, 0
1, 384719, Note_on_c, 9, 40, 0
1, 384720, Note_on_c, 9, 41, 110
1, 384720, Note_on_c, 9, 55, 110
1, 384742, Note_on_c, 9, 55, 0
1, 384959, Note_on_c, 9, 41, 0
1, 385200, Note_on_c, 9, 41, 110
1, 385200, Note_on_c, 9, 44, 110
1, 385222, Note_on_c, 9, 44, 0
1, 385439, Note_on_c, 9, 41, 0
1, 385440, Note_on_c, 9, 40, 110
1, 385440, Note_on_c, 9, 44, 110
1, 385462, Note_on_c, 9, 44, 0
1, 385680, Note_on_c, 9, 44, 110
1, 385702, Note_on_c, 9, 44, 0
1, 385919, Note_on_c, 9, 40, 0
1, 385920, Note_on_c, 9, 41, 110
1, 385920, Note_on_c, 9, 44, 110
1, 385942, Note_on_c, 9, 44, 0
1, 386159, Note_on_c, 9, 41, 0
1, 386160, Note_on_c, 9, 41, 110
1, 386160, Note_on_c, 9, 44, 110
1, 386182, Note_on_c, 9, 44, 0
1, 386399, Note_on_c, 9, 41, 0
1, 386400, Note_on_c, 9, 40, 110
1, 386400, Note_on_c, 9, 44, 110
1, 386445, Note_on_c, 9, 44, 0
1, 386639, Note_on_c, 9, 40, 0
1, 386640, Note_on_c, 9, 41, 110
1, 386640, Note_on_c, 9, 55, 110
1, 386662, Note_on_c, 9, 55, 0
1, 386879, Note_on_c, 9, 41, 0
1, 387120, Note_on_c, 9, 41, 110
1, 387120, Note_on_c, 9, 44, 110
1, 387142, Note_on_c, 9, 44, 0
1, 387359, Note_on_c, 9, 41, 0
1, 387360, Note_on_c, 9, 40, 110
1, 387360, Note_on_c, 9, 44, 110
1, 387382, Note_on_c, 9, 44, 0
1, 387600, Note_on_c, 9, 44, 110
1, 387622, Note_on_c, 9, 44, 0
1, 387839, Note_on_c, 9, 40, 0
1, 387840, Note_on_c, 9, 41, 110
1, 387840, Note_on_c, 9, 44, 110
1, 387862, Note_on_c, 9, 44, 0
1, 388079, Note_on_c, 9, 41, 0
1, 388080, Note_on_c, 9, 41, 110
1, 388080, Note_on_c, 9, 44, 110
1, 388102, Note_on_c, 9, 44, 0
1, 388319, Note_on_c, 9, 41, 0
1, 388320, Note_on_c, 9, 40, 110
1, 388320, Note_on_c, 9, 44, 110
1, 388365, Note_on_c, 9, 44, 0
1, 388559, Note_on_c, 9, 40, 0
1, 388560, Note_on_c, 9, 41, 110
1, 388560, Note_on_c, 9, 55, 110
1, 388582, Note_on_c, 9, 55, 0
1, 388799, Note_on_c, 9, 41, 0
1, 389040, Note_on_c, 9, 41, 110
1, 389040, Note_on_c, 9, 44, 110
1, 389062, Note_on_c, 9, 44, 0
1, 389279, Note_on_c, 9, 41, 0
1, 389280, Note_on_c, 9, 40, 110
1, 389280, Note_on_c, 9, 44, 110
1, 389302, Note_on_c, 9, 44, 0
1, 389520, Note_on_c, 9, 44, 110
1, 389542, Note_on_c, 9, 44, 0
1, 389759, Note_on_c, 9, 40, 0
1, 389760, Note_on_c, 9, 41, 110
1, 389760, Note_on_c, 9, 44, 110
1, 389782, Note_on_c, 9, 44, 0
1, 389999, Note_on_c, 9, 41, 0
1, 390000, Note_on_c, 9, 41, 110
1, 390000, Note_on_c, 9, 44, 110
1, 390022, Note_on_c, 9, 44, 0
1, 390239, Note_on_c, 9, 41, 0
1, 390240, Note_on_c, 9, 40, 110
1, 390240, Note_on_c, 9, 44, 110
1, 390285, Note_on_c, 9, 44, 0
1, 390479, Note_on_c, 9, 40, 0
1, 390480, Note_on_c, 9, 41, 110
1, 390480, Note_on_c, 9, 55, 110
1, 390502, Note_on_c, 9, 55, 0
1, 390719, Note_on_c, 9, 41, 0
1, 390960, Note_on_c, 9, 41, 110
1, 390960, Note_on_c, 9, 44, 110
1, 390982, Note_on_c, 9, 44, 0
1, 391199, Note_on_c, 9, 41, 0
1, 391200, Note_on_c, 9, 40, 110
1, 391200, Note_on_c, 9, 44, 110
1, 391222, Note_on_c, 9, 44, 0
1, 391439, Note_on_c, 9, 40, 0
1, 391440, Note_on_c, 9, 55, 110
1, 391440, Note_on_c, 9, 44, 110
1, 391462, Note_on_c, 9, 55, 0
1, 391462, Note_on_c, 9, 44, 0
1, 391680, Note_on_c, 9, 41, 110
1, 391680, Note_on_c, 9, 44, 110
1, 391702, Note_on_c, 9, 44, 0
1, 391919, Note_on_c, 9, 41, 0
1, 391920, Note_on_c, 9, 41, 110
1, 391920, Note_on_c, 9, 44, 110
1, 391942, Note_on_c, 9, 44, 0
1, 392159, Note_on_c, 9, 41, 0
1, 392160, Note_on_c, 9, 40, 110
1, 392160, Note_on_c, 9, 44, 110
1, 392205, Note_on_c, 9, 44, 0
1, 392399, Note_on_c, 9, 40, 0
1, 392400, Note_on_c, 9, 41, 110
1, 392400, Note_on_c, 9, 55, 110
1, 392422, Note_on_c, 9, 55, 0
1, 392639, Note_on_c, 9, 41, 0
1, 392880, Note_on_c, 9, 41, 110
1, 392880, Note_on_c, 9, 44, 110
1, 392902, Note_on_c, 9, 44, 0
1, 393119, Note_on_c, 9, 41, 0
1, 393120, Note_on_c, 9, 40, 110
1, 393120, Note_on_c, 9, 44, 110
1, 393142, Note_on_c, 9, 44, 0
1, 393360, Note_on_c, 9, 44, 110
1, 393382, Note_on_c, 9, 44, 0
1, 393599, Note_on_c, 9, 40, 0
1, 393600, Note_on_c, 9, 41, 110
1, 393600, Note_on_c, 9, 44, 110
1, 393622, Note_on_c, 9, 44, 0
1, 393839, Note_on_c, 9, 41, 0
1, 393840, Note_on_c, 9, 41, 110
1, 393840, Note_on_c, 9, 44, 110
1, 393862, Note_on_c, 9, 44, 0
1, 394079, Note_on_c, 9, 41, 0
1, 394080, Note_on_c, 9, 40, 110
1, 394080, Note_on_c, 9, 44, 110
1, 394125, Note_on_c, 9, 44, 0
1, 394319, Note_on_c, 9, 40, 0
1, 394320, Note_on_c, 9, 41, 110
1, 394320, Note_on_c, 9, 55, 110
1, 394342, Note_on_c, 9, 55, 0
1, 394559, Note_on_c, 9, 41, 0
1, 394800, Note_on_c, 9, 41, 110
1, 394800, Note_on_c, 9, 44, 110
1, 394822, Note_on_c, 9, 44, 0
1, 395039, Note_on_c, 9, 41, 0
1, 395040, Note_on_c, 9, 40, 110
1, 395040, Note_on_c, 9, 44, 110
1, 395062, Note_on_c, 9, 44, 0
1, 395280, Note_on_c, 9, 44, 110
1, 395302, Note_on_c, 9, 44, 0
1, 395519, Note_on_c, 9, 40, 0
1, 395520, Note_on_c, 9, 41, 110
1, 395520, Note_on_c, 9, 44, 110
1, 395542, Note_on_c, 9, 44, 0
1, 395759, Note_on_c, 9, 41, 0
1, 395760, Note_on_c, 9, 41, 110
1, 395760, Note_on_c, 9, 44, 110
1, 395782, Note_on_c, 9, 44, 0
1, 395999, Note_on_c, 9, 41, 0
1, 396000, Note_on_c, 9, 40, 110
1, 396000, Note_on_c, 9, 44, 110
1, 396045, Note_on_c, 9, 44, 0
1, 396239, Note_on_c, 9, 40, 0
1, 396240, Note_on_c, 9, 41, 110
1, 396240, Note_on_c, 9, 55, 110
1, 396262, Note_on_c, 9, 55, 0
1, 396479, Note_on_c, 9, 41, 0
1, 396720, Note_on_c, 9, 41, 110
1, 396720, Note_on_c, 9, 44, 110
1, 396742, Note_on_c, 9, 44, 0
1, 396959, Note_on_c, 9, 41, 0
1, 396960, Note_on_c, 9, 40, 110
1, 396960, Note_on_c, 9, 44, 110
1, 396982, Note_on_c, 9, 44, 0
1, 397200, Note_on_c, 9, 44, 110
1, 397222, Note_on_c, 9, 44, 0
1, 397439, Note_on_c, 9, 40, 0
1, 397440, Note_on_c, 9, 41, 110
1, 397440, Note_on_c, 9, 44, 110
1, 397462, Note_on_c, 9, 44, 0
1, 397679, Note_on_c, 9, 41, 0
1, 397680, Note_on_c, 9, 41, 110
1, 397680, Note_on_c, 9, 44, 110
1, 397702, Note_on_c, 9, 44, 0
1, 397919, Note_on_c, 9, 41, 0
1, 397920, Note_on_c, 9, 40, 110
1, 397920, Note_on_c, 9, 44, 110
1, 397965, Note_on_c, 9, 44, 0
1, 398159, Note_on_c, 9, 40, 0
1, 398160, Note_on_c, 9, 41, 110
1, 398160, Note_on_c, 9, 55, 110
1, 398182, Note_on_c, 9, 55, 0
1, 398399, Note_on_c, 9, 41, 0
1, 398640, Note_on_c, 9, 41, 110
1, 398640, Note_on_c, 9, 44, 110
1, 398662, Note_on_c, 9, 44, 0
1, 398879, Note_on_c, 9, 41, 0
1, 398880, Note_on_c, 9, 40, 110
1, 398880, Note_on_c, 9, 44, 110
1, 398902, Note_on_c, 9, 44, 0
1, 399120, Note_on_c, 9, 44, 110
1, 399142, Note_on_c, 9, 44, 0
1, 399359, Note_on_c, 9, 40, 0
1, 399360, Note_on_c, 9, 41, 110
1, 399360, Note_on_c, 9, 44, 110
1, 399382, Note_on_c, 9, 44, 0
1, 399599, Note_on_c, 9, 41, 0
1, 399600, Note_on_c, 9, 41, 110
1, 399600, Note_on_c, 9, 44, 110
1, 399622, Note_on_c, 9, 44, 0
1, 399839, Note_on_c, 9, 41, 0
1, 399840, Note_on_c, 9, 40, 110
1, 399840, Note_on_c, 9, 44, 110
1, 399862, Note_on_c, 9, 44, 0
1, 400079, Note_on_c, 9, 40, 0
1, 400080, Note_on_c, 9, 41, 110
1, 400080, Note_on_c, 9, 40, 110
1, 400080, Note_on_c, 9, 55, 110
1, 400080, Note_on_c, 9, 44, 110
1, 400102, Note_on_c, 9, 55, 0
1, 400102, Note_on_c, 9, 44, 0
1, 400319, Note_on_c, 9, 41, 0
1, 400319, Note_on_c, 9, 40, 0
1, 400320, Tempo, 500000
1, 400560, Note_on_c, 9, 44, 110
1, 400564, Note_on_c, 9, 44, 0
1, 400680, Note_on_c, 9, 44, 110
1, 400684, Note_on_c, 9, 44, 0
1, 400800, Note_on_c, 9, 40, 110
1, 400800, Note_on_c, 9, 44, 110
1, 400804, Note_on_c, 9, 44, 0
1, 400920, Note_on_c, 9, 44, 110
1, 400924, Note_on_c, 9, 44, 0
1, 401040, Note_on_c, 9, 44, 110
1, 401044, Note_on_c, 9, 44, 0
1, 401160, Note_on_c, 9, 44, 110
1, 401164, Note_on_c, 9, 44, 0
1, 401279, Note_on_c, 9, 40, 0
1, 401280, Note_on_c, 9, 41, 110
1, 401280, Note_on_c, 9, 44, 110
1, 401284, Note_on_c, 9, 44, 0
1, 401400, Note_on_c, 9, 44, 110
1, 401404, Note_on_c, 9, 44, 0
1, 401520, Note_on_c, 9, 44, 110
1, 401524, Note_on_c, 9, 44, 0
1, 401640, Note_on_c, 9, 44, 110
1, 401644, Note_on_c, 9, 44, 0
1, 401759, Note_on_c, 9, 41, 0
1, 401760, Note_on_c, 9, 40, 110
1, 401760, Note_on_c, 9, 44, 110
1, 401764, Note_on_c, 9, 44, 0
1, 401880, Note_on_c, 9, 44, 110
1, 401884, Note_on_c, 9, 44, 0
1, 402000, Note_on_c, 9, 44, 110
1, 402004, Note_on_c, 9, 44, 0
1, 402120, Note_on_c, 9, 44, 110
1, 402124, Note_on_c, 9, 44, 0
1, 402239, Note_on_c, 9, 40, 0
1, 402240, Note_on_c, 9, 41, 110
1, 402240, Note_on_c, 9, 44, 110
1, 402244, Note_on_c, 9, 44, 0
1, 402360, Note_on_c, 9, 44, 110
1, 402364, Note_on_c, 9, 44, 0
1, 402480, Note_on_c, 9, 44, 110
1, 402484, Note_on_c, 9, 44, 0
1, 402600, Note_on_c, 9, 44, 110
1, 402604, Note_on_c, 9, 44, 0
1, 402719, Note_on_c, 9, 41, 0
1, 402720, Note_on_c, 9, 40, 110
1, 402720, Note_on_c, 9, 44, 110
1, 402724, Note_on_c, 9, 44, 0
1, 402840, Note_on_c, 9, 44, 110
1, 402844, Note_on_c, 9, 44, 0
1, 402960, Note_on_c, 9, 44, 110
1, 402964, Note_on_c, 9, 44, 0
1, 403080, Note_on_c, 9, 44, 110
1, 403084, Note_on_c, 9, 44, 0
1, 403199, Note_on_c, 9, 40, 0
1, 403200, Note_on_c, 9, 41, 110
1, 403200, Note_on_c, 9, 44, 110
1, 403204, Note_on_c, 9, 44, 0
1, 403320, Note_on_c, 9, 44, 110
1, 403324, Note_on_c, 9, 44, 0
1, 403440, Note_on_c, 9, 44, 110
1, 403444, Note_on_c, 9, 44, 0
1, 403560, Note_on_c, 9, 44, 110
1, 403564, Note_on_c, 9, 44, 0
1, 403679, Note_on_c, 9, 41, 0
1, 403680, Note_on_c, 9, 40, 110
1, 403680, Note_on_c, 9, 44, 110
1, 403684, Note_on_c, 9, 44, 0
1, 403800, Note_on_c, 9, 44, 110
1, 403804, Note_on_c, 9, 44, 0
1, 403920, Note_on_c, 9, 44, 110
1, 403924, Note_on_c, 9, 44, 0
1, 404040, Note_on_c, 9, 44, 110
1, 404044, Note_on_c, 9, 44, 0
1, 404159, Note_on_c, 9, 40, 0
1, 404160, Note_on_c, 9, 41, 110
1, 404160, Note_on_c, 9, 44, 110
1, 404164, Note_on_c, 9, 44, 0
1, 404280, Note_on_c, 9, 44, 110
1, 404284, Note_on_c, 9, 44, 0
1, 404400, Note_on_c, 9, 44, 110
1, 404404, Note_on_c, 9, 44, 0
1, 404520, Note_on_c, 9, 44, 110
1, 404524, Note_on_c, 9, 44, 0
1, 404639, Note_on_c, 9, 41, 0
1, 404640, Note_on_c, 9, 40, 110
1, 404640, Note_on_c, 9, 44, 110
1, 404644, Note_on_c, 9, 44, 0
1, 404760, Note_on_c, 9, 44, 110
1, 404764, Note_on_c, 9, 44, 0
1, 404880, Note_on_c, 9, 44, 110
1, 404884, Note_on_c, 9, 44, 0
1, 405000, Note_on_c, 9, 44, 110
1, 405004, Note_on_c, 9, 44, 0
1, 405119, Note_on_c, 9, 40, 0
1, 405120, Note_on_c, 9, 41, 110
1, 405120, Note_on_c, 9, 55, 110
1, 405120, Note_on_c, 9, 44, 110
1, 405124, Note_on_c, 9, 44, 0
1, 405142, Note_on_c, 9, 55, 0
1, 405240, Note_on_c, 9, 44, 110
1, 405244, Note_on_c, 9, 44, 0
1, 405360, Note_on_c, 9, 44, 110
1, 405364, Note_on_c, 9, 44, 0
1, 405480, Note_on_c, 9, 44, 110
1, 405484, Note_on_c, 9, 44, 0
1, 405599, Note_on_c, 9, 41, 0
1, 405600, Note_on_c, 9, 40, 110
1, 405600, Note_on_c, 9, 55, 110
1, 405600, Note_on_c, 9, 44, 110
1, 405604, Note_on_c, 9, 44, 0
1, 405622, Note_on_c, 9, 55, 0
1, 405720, Note_on_c, 9, 44, 110
1, 405724, Note_on_c, 9, 44, 0
1, 405840, Note_on_c, 9, 44, 110
1, 405844, Note_on_c, 9, 44, 0
1, 405960, Note_on_c, 9, 44, 110
1, 405964, Note_on_c, 9, 44, 0
1, 406079, Note_on_c, 9, 40, 0
1, 406080, Note_on_c, 9, 41, 110
1, 406080, Note_on_c, 9, 44, 110
1, 406084, Note_on_c, 9, 44, 0
1, 406200, Note_on_c, 9, 44, 110
1, 406204, Note_on_c, 9, 44, 0
1, 406320, Note_on_c, 9, 44, 110
1, 406324, Note_on_c, 9, 44, 0
1, 406440, Note_on_c, 9, 44, 110
1, 406444, Note_on_c, 9, 44, 0
1, 406559, Note_on_c, 9, 41, 0
1, 406560, Note_on_c, 9, 40, 110
1, 406560, Note_on_c, 9, 44, 110
1, 406564, Note_on_c, 9, 44, 0
1, 406680, Note_on_c, 9, 44, 110
1, 406684, Note_on_c, 9, 44, 0
1, 406800, Note_on_c, 9, 44, 110
1, 406804, Note_on_c, 9, 44, 0
1, 406920, Note_on_c, 9, 44, 110
1, 406924, Note_on_c, 9, 44, 0
1, 407039, Note_on_c, 9, 40, 0
1, 407040, Note_on_c, 9, 41, 110
1, 407040, Note_on_c, 9, 44, 110
1, 407044, Note_on_c, 9, 44, 0
1, 407160, Note_on_c, 9, 44, 110
1, 407164, Note_on_c, 9, 44, 0
1, 407280, Note_on_c, 9, 44, 110
1, 407284, Note_on_c, 9, 44, 0
1, 407400, Note_on_c, 9, 44, 110
1, 407404, Note_on_c, 9, 44, 0
1, 407519, Note_on_c, 9, 41, 0
1, 407520, Note_on_c, 9, 40, 110
1, 407520, Note_on_c, 9, 44, 110
1, 407524, Note_on_c, 9, 44, 0
1, 407640, Note_on_c, 9, 44, 110
1, 407644, Note_on_c, 9, 44, 0
1, 407760, Note_on_c, 9, 44, 110
1, 407764, Note_on_c, 9, 44, 0
1, 407880, Note_on_c, 9, 44, 110
1, 407884, Note_on_c, 9, 44, 0
1, 407999, Note_on_c, 9, 40, 0
1, 408000, Note_on_c, 9, 41, 110
1, 408000, Note_on_c, 9, 44, 110
1, 408004, Note_on_c, 9, 44, 0
1, 408120, Note_on_c, 9, 44, 110
1, 408124, Note_on_c, 9, 44, 0
1, 408240, Note_on_c, 9, 44, 110
1, 408244, Note_on_c, 9, 44, 0
1, 408360, Note_on_c, 9, 44, 110
1, 408364, Note_on_c, 9, 44, 0
1, 408479, Note_on_c, 9, 41, 0
1, 408480, Note_on_c, 9, 40, 110
1, 408480, Note_on_c, 9, 44, 110
1, 408484, Note_on_c, 9, 44, 0
1, 408600, Note_on_c, 9, 44, 110
1, 408604, Note_on_c, 9, 44, 0
1, 408720, Note_on_c, 9, 44, 110
1, 408724, Note_on_c, 9, 44, 0
1, 408840, Note_on_c, 9, 44, 110
1, 408844, Note_on_c, 9, 44, 0
1, 408959, Note_on_c, 9, 40, 0
1, 408960, Note_on_c, 9, 41, 110
1, 408960, Note_on_c, 9, 44, 110
1, 408964, Note_on_c, 9, 44, 0
1, 409080, Note_on_c, 9, 44, 110
1, 409084, Note_on_c, 9, 44, 0
1, 409200, Note_on_c, 9, 44, 110
1, 409204, Note_on_c, 9, 44, 0
1, 409320, Note_on_c, 9, 44, 110
1, 409324, Note_on_c, 9, 44, 0
1, 409439, Note_on_c, 9, 41, 0
1, 409440, Note_on_c, 9, 40, 110
1, 409440, Note_on_c, 9, 44, 110
1, 409444, Note_on_c, 9, 44, 0
1, 409560, Note_on_c, 9, 44, 110
1, 409564, Note_on_c, 9, 44, 0
1, 409680, Note_on_c, 9, 44, 110
1, 409684, Note_on_c, 9, 44, 0
1, 409800, Note_on_c, 9, 44, 110
1, 409804, Note_on_c, 9, 44, 0
1, 409919, Note_on_c, 9, 40, 0
1, 409920, Note_on_c, 9, 41, 110
1, 409920, Note_on_c, 9, 44, 110
1, 409924, Note_on_c, 9, 44, 0
1, 410040, Note_on_c, 9, 44, 110
1, 410044, Note_on_c, 9, 44, 0
1, 410160, Note_on_c, 9, 44, 110
1, 410164, Note_on_c, 9, 44, 0
1, 410280, Note_on_c, 9, 44, 110
1, 410284, Note_on_c, 9, 44, 0
1, 410399, Note_on_c, 9, 41, 0
1, 410400, Note_on_c, 9, 40, 110
1, 410400, Note_on_c, 9, 44, 110
1, 410404, Note_on_c, 9, 44, 0
1, 410520, Note_on_c, 9, 44, 110
1, 410524, Note_on_c, 9, 44, 0
1, 410640, Note_on_c, 9, 44, 110
1, 410644, Note_on_c, 9, 44, 0
1, 410760, Note_on_c, 9, 44, 110
1, 410764, Note_on_c, 9, 44, 0
1, 410879, Note_on_c, 9, 40, 0
1, 410880, Note_on_c, 9, 41, 110
1, 410880, Note_on_c, 9, 44, 110
1, 410884, Note_on_c, 9, 44, 0
1, 411000, Note_on_c, 9, 44, 110
1, 411004, Note_on_c, 9, 44, 0
1, 411120, Note_on_c, 9, 44, 110
1, 411124, Note_on_c, 9, 44, 0
1, 411240, Note_on_c, 9, 44, 110
1, 411244, Note_on_c, 9, 44, 0
1, 411359, Note_on_c, 9, 41, 0
1, 411360, Note_on_c, 9, 40, 110
1, 411360, Note_on_c, 9, 44, 110
1, 411364, Note_on_c, 9, 44, 0
1, 411480, Note_on_c, 9, 44, 110
1, 411484, Note_on_c, 9, 44, 0
1, 411600, Note_on_c, 9, 44, 110
1, 411604, Note_on_c, 9, 44, 0
1, 411720, Note_on_c, 9, 44, 110
1, 411724, Note_on_c, 9, 44, 0
1, 411839, Note_on_c, 9, 40, 0
1, 411840, Note_on_c, 9, 41, 110
1, 411840, Note_on_c, 9, 44, 110
1, 411844, Note_on_c, 9, 44, 0
1, 411960, Note_on_c, 9, 44, 110
1, 411964, Note_on_c, 9, 44, 0
1, 412080, Note_on_c, 9, 44, 110
1, 412084, Note_on_c, 9, 44, 0
1, 412200, Note_on_c, 9, 44, 110
1, 412204, Note_on_c, 9, 44, 0
1, 412319, Note_on_c, 9, 41, 0
1, 412320, Note_on_c, 9, 40, 110
1, 412320, Note_on_c, 9, 44, 110
1, 412324, Note_on_c, 9, 44, 0
1, 412440, Note_on_c, 9, 44, 110
1, 412444, Note_on_c, 9, 44, 0
1, 412560, Note_on_c, 9, 44, 110
1, 412564, Note_on_c, 9, 44, 0
1, 412680, Note_on_c, 9, 44, 110
1, 412684, Note_on_c, 9, 44, 0
1, 412799, Note_on_c, 9, 40, 0
1, 412800, Note_on_c, 9, 41, 110
1, 412800, Note_on_c, 9, 55, 110
1, 412800, Note_on_c, 9, 44, 110
1, 412804, Note_on_c, 9, 44, 0
1, 412822, Note_on_c, 9, 55, 0
1, 412920, Note_on_c, 9, 44, 110
1, 412924, Note_on_c, 9, 44, 0
1, 413040, Note_on_c, 9, 44, 110
1, 413044, Note_on_c, 9, 44, 0
1, 413160, Note_on_c, 9, 44, 110
1, 413164, Note_on_c, 9, 44, 0
1, 413279, Note_on_c, 9, 41, 0
1, 413280, Note_on_c, 9, 40, 110
1, 413280, Note_on_c, 9, 55, 110
1, 413280, Note_on_c, 9, 44, 110
1, 413284, Note_on_c, 9, 44, 0
1, 413302, Note_on_c, 9, 55, 0
1, 413400, Note_on_c, 9, 44, 110
1, 413404, Note_on_c, 9, 44, 0
1, 413520, Note_on_c, 9, 44, 110
1, 413524, Note_on_c, 9, 44, 0
1, 413640, Note_on_c, 9, 44, 110
1, 413644, Note_on_c, 9, 44, 0
1, 413759, Note_on_c, 9, 40, 0
1, 413760, Note_on_c, 9, 41, 110
1, 413760, Note_on_c, 9, 44, 110
1, 413764, Note_on_c, 9, 44, 0
1, 413880, Note_on_c, 9, 44, 110
1, 413884, Note_on_c, 9, 44, 0
1, 414000, Note_on_c, 9, 44, 110
1, 414004, Note_on_c, 9, 44, 0
1, 414120, Note_on_c, 9, 44, 110
1, 414124, Note_on_c, 9, 44, 0
1, 414239, Note_on_c, 9, 41, 0
1, 414240, Note_on_c, 9, 40, 110
1, 414240, Note_on_c, 9, 44, 110
1, 414244, Note_on_c, 9, 44, 0
1, 414360, Note_on_c, 9, 44, 110
1, 414364, Note_on_c, 9, 44, 0
1, 414480, Note_on_c, 9, 44, 110
1, 414484, Note_on_c, 9, 44, 0
1, 414600, Note_on_c, 9, 44, 110
1, 414604, Note_on_c, 9, 44, 0
1, 414719, Note_on_c, 9, 40, 0
1, 414720, Note_on_c, 9, 41, 110
1, 414720, Note_on_c, 9, 44, 110
1, 414724, Note_on_c, 9, 44, 0
1, 414840, Note_on_c, 9, 44, 110
1, 414844, Note_on_c, 9, 44, 0
1, 414960, Note_on_c, 9, 44, 110
1, 414964, Note_on_c, 9, 44, 0
1, 415080, Note_on_c, 9, 44, 110
1, 415084, Note_on_c, 9, 44, 0
1, 415199, Note_on_c, 9, 41, 0
1, 415200, Note_on_c, 9, 40, 110
1, 415200, Note_on_c, 9, 44, 110
1, 415222, Note_on_c, 9, 44, 0
1, 415439, Note_on_c, 9, 40, 0
1, 415440, Note_on_c, 9, 40, 110
1, 415559, Note_on_c, 9, 40, 0
1, 415560, Note_on_c, 9, 41, 110
1, 415560, Note_on_c, 9, 55, 110
1, 415564, Note_on_c, 9, 55, 0
1, 415679, Note_on_c, 9, 41, 0
1, 415680, Note_on_c, 9, 41, 110
1, 415680, Note_on_c, 9, 44, 110
1, 415684, Note_on_c, 9, 44, 0
1, 415800, Note_on_c, 9, 44, 110
1, 415804, Note_on_c, 9, 44, 0
1, 415920, Note_on_c, 9, 44, 110
1, 415924, Note_on_c, 9, 44, 0
1, 416040, Note_on_c, 9, 44, 110
1, 416044, Note_on_c, 9, 44, 0
1, 416159, Note_on_c, 9, 41, 0
1, 416160, Note_on_c, 9, 40, 110
1, 416160, Note_on_c, 9, 44, 110
1, 416164, Note_on_c, 9, 44, 0
1, 416280, Note_on_c, 9, 44, 110
1, 416284, Note_on_c, 9, 44, 0
1, 416400, Note_on_c, 9, 44, 110
1, 416404, Note_on_c, 9, 44, 0
1, 416520, Note_on_c, 9, 44, 110
1, 416524, Note_on_c, 9, 44, 0
1, 416639, Note_on_c, 9, 40, 0
1, 416640, Note_on_c, 9, 41, 110
1, 416640, Note_on_c, 9, 44, 110
1, 416644, Note_on_c, 9, 44, 0
1, 416760, Note_on_c, 9, 44, 110
1, 416764, Note_on_c, 9, 44, 0
1, 416880, Note_on_c, 9, 44, 110
1, 416884, Note_on_c, 9, 44, 0
1, 417000, Note_on_c, 9, 44, 110
1, 417004, Note_on_c, 9, 44, 0
1, 417119, Note_on_c, 9, 41, 0
1, 417120, Note_on_c, 9, 40, 110
1, 417120, Note_on_c, 9, 44, 110
1, 417142, Note_on_c, 9, 44, 0
1, 417359, Note_on_c, 9, 40, 0
1, 417360, Note_on_c, 9, 40, 110
1, 417479, Note_on_c, 9, 40, 0
1, 417480, Note_on_c, 9, 41, 110
1, 417480, Note_on_c, 9, 55, 110
1, 417484, Note_on_c, 9, 55, 0
1, 417599, Note_on_c, 9, 41, 0
1, 417600, Note_on_c, 9, 41, 110
1, 417600, Note_on_c, 9, 44, 110
1, 417604, Note_on_c, 9, 44, 0
1, 417720, Note_on_c, 9, 44, 110
1, 417724, Note_on_c, 9, 44, 0
1, 417840, Note_on_c, 9, 44, 110
1, 417844, Note_on_c, 9, 44, 0
1, 417960, Note_on_c, 9, 44, 110
1, 417964, Note_on_c, 9, 44, 0
1, 418079, Note_on_c, 9, 41, 0
1, 418080, Note_on_c, 9, 40, 110
1, 418080, Note_on_c, 9, 44, 110
1, 418084, Note_on_c, 9, 44, 0
1, 418200, Note_on_c, 9, 44, 110
1, 418204, Note_on_c, 9, 44, 0
1, 418320, Note_on_c, 9, 44, 110
1, 418324, Note_on_c, 9, 44, 0
1, 418440, Note_on_c, 9, 44, 110
1, 418444, Note_on_c, 9, 44, 0
1, 418559, Note_on_c, 9, 40, 0
1, 418560, Note_on_c, 9, 41, 110
1, 418560, Note_on_c, 9, 44, 110
1, 418564, Note_on_c, 9, 44, 0
1, 418680, Note_on_c, 9, 44, 110
1, 418684, Note_on_c, 9, 44, 0
1, 418800, Note_on_c, 9, 44, 110
1, 418804, Note_on_c, 9, 44, 0
1, 418920, Note_on_c, 9, 44, 110
1, 418924, Note_on_c, 9, 44, 0
1, 419039, Note_on_c, 9, 41, 0
1, 419040, Note_on_c, 9, 40, 110
1, 419040, Note_on_c, 9, 44, 110
1, 419062, Note_on_c, 9, 44, 0
1, 419279, Note_on_c, 9, 40, 0
1, 419280, Note_on_c, 9, 40, 110
1, 419399, Note_on_c, 9, 40, 0
1, 419400, Note_on_c, 9, 41, 110
1, 419400, Note_on_c, 9, 55, 110
1, 419404, Note_on_c, 9, 55, 0
1, 419519, Note_on_c, 9, 41, 0
1, 419520, Note_on_c, 9, 41, 110
1, 419520, Note_on_c, 9, 44, 110
1, 419524, Note_on_c, 9, 44, 0
1, 419640, Note_on_c, 9, 44, 110
1, 419644, Note_on_c, 9, 44, 0
1, 419760, Note_on_c, 9, 44, 110
1, 419764, Note_on_c, 9, 44, 0
1, 419880, Note_on_c, 9, 44, 110
1, 419884, Note_on_c, 9, 44, 0
1, 419999, Note_on_c, 9, 41, 0
1, 420000, Note_on_c, 9, 40, 110
1, 420000, Note_on_c, 9, 44, 110
1, 420004, Note_on_c, 9, 44, 0
1, 420120, Note_on_c, 9, 44, 110
1, 420124, Note_on_c, 9, 44, 0
1, 420240, Note_on_c, 9, 44, 110
1, 420244, Note_on_c, 9, 44, 0
1, 420360, Note_on_c, 9, 44, 110
1, 420364, Note_on_c, 9, 44, 0
1, 420479, Note_on_c, 9, 40, 0
1, 420480, Note_on_c, 9, 41, 110
1, 420480, Note_on_c, 9, 44, 110
1, 420484, Note_on_c, 9, 44, 0
1, 420600, Note_on_c, 9, 44, 110
1, 420604, Note_on_c, 9, 44, 0
1, 420720, Note_on_c, 9, 44, 110
1, 420724, Note_on_c, 9, 44, 0
1, 420840, Note_on_c, 9, 44, 110
1, 420844, Note_on_c, 9, 44, 0
1, 420959, Note_on_c, 9, 41, 0
1, 420960, Note_on_c, 9, 40, 110
1, 420960, Note_on_c, 9, 44, 110
1, 420982, Note_on_c, 9, 44, 0
1, 421199, Note_on_c, 9, 40, 0
1, 421200, Note_on_c, 9, 40, 110
1, 421319, Note_on_c, 9, 40, 0
1, 421320, Note_on_c, 9, 41, 110
1, 421320, Note_on_c, 9, 55, 110
1, 421324, Note_on_c, 9, 55, 0
1, 421439, Note_on_c, 9, 41, 0
1, 421440, Note_on_c, 9, 41, 110
1, 421440, Note_on_c, 9, 44, 110
1, 421444, Note_on_c, 9, 44, 0
1, 421560, Note_on_c, 9, 44, 110
1, 421564, Note_on_c, 9, 44, 0
1, 421680, Note_on_c, 9, 44, 110
1, 421684, Note_on_c, 9, 44, 0
1, 421800, Note_on_c, 9, 44, 110
1, 421804, Note_on_c, 9, 44, 0
1, 421919, Note_on_c, 9, 41, 0
1, 421920, Note_on_c, 9, 40, 110
1, 421920, Note_on_c, 9, 44, 110
1, 421924, Note_on_c, 9, 44, 0
1, 422040, Note_on_c, 9, 44, 110
1, 422044, Note_on_c, 9, 44, 0
1, 422160, Note_on_c, 9, 44, 110
1, 422164, Note_on_c, 9, 44, 0
1, 422280, Note_on_c, 9, 44, 110
1, 422284, Note_on_c, 9, 44, 0
1, 422399, Note_on_c, 9, 40, 0
1, 422400, Note_on_c, 9, 41, 110
1, 422400, Note_on_c, 9, 44, 110
1, 422404, Note_on_c, 9, 44, 0
1, 422520, Note_on_c, 9, 44, 110
1, 422524, Note_on_c, 9, 44, 0
1, 422640, Note_on_c, 9, 44, 110
1, 422644, Note_on_c, 9, 44, 0
1, 422760, Note_on_c, 9, 44, 110
1, 422764, Note_on_c, 9, 44, 0
1, 422879, Note_on_c, 9, 41, 0
1, 422880, Note_on_c, 9, 40, 110
1, 422880, Note_on_c, 9, 44, 110
1, 422902, Note_on_c, 9, 44, 0
1, 423119, Note_on_c, 9, 40, 0
1, 423120, Note_on_c, 9, 40, 110
1, 423239, Note_on_c, 9, 40, 0
1, 423240, Note_on_c, 9, 41, 110
1, 423240, Note_on_c, 9, 55, 110
1, 423244, Note_on_c, 9, 55, 0
1, 423359, Note_on_c, 9, 41, 0
1, 423360, Note_on_c, 9, 41, 110
1, 423360, Note_on_c, 9, 44, 110
1, 423364, Note_on_c, 9, 44, 0
1, 423480, Note_on_c, 9, 44, 110
1, 423484, Note_on_c, 9, 44, 0
1, 423600, Note_on_c, 9, 44, 110
1, 423604, Note_on_c, 9, 44, 0
1, 423720, Note_on_c, 9, 44, 110
1, 423724, Note_on_c, 9, 44, 0
1, 423839, Note_on_c, 9, 41, 0
1, 423840, Note_on_c, 9, 40, 110
1, 423840, Note_on_c, 9, 44, 110
1, 423844, Note_on_c, 9, 44, 0
1, 423960, Note_on_c, 9, 44, 110
1, 423964, Note_on_c, 9, 44, 0
1, 424080, Note_on_c, 9, 44, 110
1, 424084, Note_on_c, 9, 44, 0
1, 424200, Note_on_c, 9, 44, 110
1, 424204, Note_on_c, 9, 44, 0
1, 424319, Note_on_c, 9, 40, 0
1, 424320, Note_on_c, 9, 41, 110
1, 424320, Note_on_c, 9, 44, 110
1, 424324, Note_on_c, 9, 44, 0
1, 424440, Note_on_c, 9, 44, 110
1, 424444, Note_on_c, 9, 44, 0
1, 424560, Note_on_c, 9, 44, 110
1, 424564, Note_on_c, 9, 44, 0
1, 424680, Note_on_c, 9, 44, 110
1, 424684, Note_on_c, 9, 44, 0
1, 424799, Note_on_c, 9, 41, 0
1, 424800, Note_on_c, 9, 40, 110
1, 424800, Note_on_c, 9, 44, 110
1, 424822, Note_on_c, 9, 44, 0
1, 425039, Note_on_c, 9, 40, 0
1, 425040, Note_on_c, 9, 40, 110
1, 425159, Note_on_c, 9, 40, 0
1, 425160, Note_on_c, 9, 41, 110
1, 425160, Note_on_c, 9, 55, 110
1, 425164, Note_on_c, 9, 55, 0
1, 425279, Note_on_c, 9, 41, 0
1, 425280, Note_on_c, 9, 41, 110
1, 425280, Note_on_c, 9, 44, 110
1, 425284, Note_on_c, 9, 44, 0
1, 425400, Note_on_c, 9, 44, 110
1, 425404, Note_on_c, 9, 44, 0
1, 425520, Note_on_c, 9, 44, 110
1, 425524, Note_on_c, 9, 44, 0
1, 425640, Note_on_c, 9, 44, 110
1, 425644, Note_on_c, 9, 44, 0
1, 425759, Note_on_c, 9, 41, 0
1, 425760, Note_on_c, 9, 40, 110
1, 425760, Note_on_c, 9, 44, 110
1, 425764, Note_on_c, 9, 44, 0
1, 425880, Note_on_c, 9, 44, 110
1, 425884, Note_on_c, 9, 44, 0
1, 426000, Note_on_c, 9, 44, 110
1, 426004, Note_on_c, 9, 44, 0
1, 426120, Note_on_c, 9, 44, 110
1, 426124, Note_on_c, 9, 44, 0
1, 426239, Note_on_c, 9, 40, 0
1, 426240, Note_on_c, 9, 41, 110
1, 426240, Note_on_c, 9, 44, 110
1, 426244, Note_on_c, 9, 44, 0
1, 426360, Note_on_c, 9, 44, 110
1, 426364, Note_on_c, 9, 44, 0
1, 426480, Note_on_c, 9, 44, 110
1, 426484, Note_on_c, 9, 44, 0
1, 426600, Note_on_c, 9, 44, 110
1, 426604, Note_on_c, 9, 44, 0
1, 426719, Note_on_c, 9, 41, 0
1, 426720, Note_on_c, 9, 40, 110
1, 426720, Note_on_c, 9, 44, 110
1, 426742, Note_on_c, 9, 44, 0
1, 426763, Tempo, 504202
1, 426805, Tempo, 508475
1, 426848, Tempo, 512821
1, 426890, Tempo, 517241
1, 426933, Tempo, 521739
1, 426959, Note_on_c, 9, 40, 0
1, 426960, Note_on_c, 9, 40, 110
1, 426975, Tempo, 526316
1, 427018, Tempo, 530973
1, 427060, Tempo, 535714
1, 427079, Note_on_c, 9, 40, 0
1, 427080, Note_on_c, 9, 41, 110
1, 427080, Note_on_c, 9, 55, 110
1, 427084, Note_on_c, 9, 55, 0
1, 427103, Tempo, 540541
1, 427145, Tempo, 545455
1, 427188, Tempo, 550459
1, 427199, Note_on_c, 9, 41, 0
1, 427200, Note_on_c, 9, 41, 110
1, 427200, Note_on_c, 9, 44, 110
1, 427204, Note_on_c, 9, 44, 0
1, 427230, Tempo, 555556
1, 427273, Tempo, 560748
1, 427315, Tempo, 566038
1, 427320, Note_on_c, 9, 44, 110
1, 427324, Note_on_c, 9, 44, 0
1, 427360, Tempo, 571429
1, 427403, Tempo, 576923
1, 427440, Note_on_c, 9, 44, 110
1, 427443, Note_on_c, 9, 44, 0
1, 427445, Tempo, 582524
1, 427488, Tempo, 588235
1, 427530, Tempo, 594059
1, 427560, Note_on_c, 9, 44, 110
1, 427563, Note_on_c, 9, 44, 0
1, 427573, Tempo, 600000
1, 427615, Tempo, 606061
1, 427658, Tempo, 612245
1, 427679, Note_on_c, 9, 41, 0
1, 427680, Note_on_c, 9, 40, 110
1, 427680, Note_on_c, 9, 44, 110
1, 427683, Note_on_c, 9, 44, 0
1, 427700, Tempo, 618557
1, 427743, Tempo, 625000
1, 427785, Tempo, 631579
1, 427800, Note_on_c, 9, 44, 110
1, 427803, Note_on_c, 9, 44, 0
1, 427828, Tempo, 638298
1, 427870, Tempo, 645161
1, 427913, Tempo, 652174
1, 427920, Note_on_c, 9, 44, 110
1, 427923, Note_on_c, 9, 44, 0
1, 427955, Tempo, 659341
1, 428000, Tempo, 666667
1, 428040, Note_on_c, 9, 44, 110
1, 428043, Tempo, 674157
1, 428043, Note_on_c, 9, 44, 0
1, 428085, Tempo, 681818
1, 428128, Tempo, 689655
1, 428159, Note_on_c, 9, 40, 0
1, 428160, Note_on_c, 9, 41, 110
1, 428160, Note_on_c, 9, 44, 110
1, 428163, Note_on_c, 9, 44, 0
1, 428170, Tempo, 697674
1, 428213, Tempo, 705882
1, 428255, Tempo, 714286
1, 428280, Note_on_c, 9, 44, 110
1, 428282, Note_on_c, 9, 44, 0
1, 428298, Tempo, 722892
1, 428340, Tempo, 731707
1, 428383, Tempo, 740741
1, 428400, Note_on_c, 9, 44, 110
1, 428402, Note_on_c, 9, 44, 0
1, 428425, Tempo, 750000
1, 428468, Tempo, 759494
1, 428510, Tempo, 769231
1, 428520, Note_on_c, 9, 44, 110
1, 428522, Note_on_c, 9, 44, 0
1, 428553, Tempo, 779221
1, 428595, Tempo, 789474
1, 428639, Note_on_c, 9, 41, 0
1, 428640, Tempo, 800000
1, 428640, Note_on_c, 9, 40, 110
1, 428640, Note_on_c, 9, 44, 110
1, 428653, Note_on_c, 9, 44, 0
1, 428879, Note_on_c, 9, 40, 0
1, 428880, Note_on_c, 9, 40, 110
1, 428999, Note_on_c, 9, 40, 0
1, 429000, Note_on_c, 9, 41, 110
1, 429000, Note_on_c, 9, 55, 110
1, 429002, Note_on_c, 9, 55, 0
1, 429119, Note_on_c, 9, 41, 0
1, 429120, Note_on_c, 9, 41, 110
1, 429120, Note_on_c, 9, 40, 110
1, 429120, Note_on_c, 9, 55, 110
1, 429120, Note_on_c, 9, 44, 110
1, 429133, Note_on_c, 9, 55, 0
1, 429133, Note_on_c, 9, 44, 0
1, 431039, Note_on_c, 9, 41, 0
1, 431039, Note_on_c, 9, 40, 0
1, 431040, Tempo, 750000
1, 431041, End_track
0, 0, End_of_file
