0, 0, Header, 1, 1, 480
1, 0, Start_track
1, 0, Title_t, "Drumset"
1, 0, Time_signature, 4, 2, 24, 8
1, 0, Key_signature, 0, "major"
1, 0, Tempo, 833333
1, 0, Control_c, 9, 121, 0
1, 0, Program_c, 9, 0
1, 0, Control_c, 9, 7, 100
1, 0, Control_c, 9, 10, 64
1, 0, Control_c, 9, 91, 0
1, 0, Control_c, 9, 93, 0
1, 0, MIDI_port, 0
1, 0, Note_on_c, 9, 46, 110
1, 0, Note_on_c, 9, 36, 110
1, 12, Note_on_c, 9, 46, 0
1, 479, Note_on_c, 9, 36, 0
1, 1920, Note_on_c, 9, 46, 110
1, 1920, Note_on_c, 9, 36, 110
1, 1932, Note_on_c, 9, 46, 0
1, 2399, Note_on_c, 9, 36, 0
1, 3840, Note_on_c, 9, 46, 110
1, 3840, Note_on_c, 9, 36, 110
1, 3852, Note_on_c, 9, 46, 0
1, 4319, Note_on_c, 9, 36, 0
1, 5760, Note_on_c, 9, 46, 110
1, 5760, Note_on_c, 9, 36, 110
1, 5772, Note_on_c, 9, 46, 0
1, 6239, Note_on_c, 9, 36, 0
1, 7680, Note_on_c, 9, 46, 110
1, 7680, Note_on_c, 9, 36, 110
1, 7692, Note_on_c, 9, 46, 0
1, 8159, Note_on_c, 9, 36, 0
1, 9600, Note_on_c, 9, 46, 110
1, 9600, Note_on_c, 9, 36, 110
1, 9612, Note_on_c, 9, 46, 0
1, 10079, Note_on_c, 9, 36, 0
1, 11520, Note_on_c, 9, 46, 110
1, 11520, Note_on_c, 9, 36, 110
1, 11532, Note_on_c, 9, 46, 0
1, 11999, Note_on_c, 9, 36, 0
1, 13440, Note_on_c, 9, 46, 110
1, 13440, Note_on_c, 9, 36, 110
1, 13452, Note_on_c, 9, 46, 0
1, 13919, Note_on_c, 9, 36, 0
1, 15360, Note_on_c, 9, 46, 110
1, 15360, Note_on_c, 9, 36, 110
1, 15372, Note_on_c, 9, 46, 0
1, 15839, Note_on_c, 9, 36, 0
1, 17280, Note_on_c, 9, 46, 110
1, 17280, Note_on_c, 9, 36, 110
1, 17292, Note_on_c, 9, 46, 0
1, 17759, Note_on_c, 9, 36, 0
1, 19200, Note_on_c, 9, 46, 110
1, 19200, Note_on_c, 9, 36, 110
1, 19212, Note_on_c, 9, 46, 0
1, 19679, Note_on_c, 9, 36, 0
1, 21120, Note_on_c, 9, 46, 110
1, 21120, Note_on_c, 9, 36, 110
1, 21132, Note_on_c, 9, 46, 0
1, 21599, Note_on_c, 9, 36, 0
1, 23040, Note_on_c, 9, 46, 110
1, 23040, Note_on_c, 9, 36, 110
1, 23052, Note_on_c, 9, 46, 0
1, 23519, Note_on_c, 9, 36, 0
1, 24960, Note_on_c, 9, 46, 110
1, 24960, Note_on_c, 9, 36, 110
1, 24972, Note_on_c, 9, 46, 0
1, 25439, Note_on_c, 9, 36, 0
1, 26880, Note_on_c, 9, 46, 110
1, 26880, Note_on_c, 9, 36, 110
1, 26892, Note_on_c, 9, 46, 0
1, 27359, Note_on_c, 9, 36, 0
1, 28800, Note_on_c, 9, 46, 110
1, 28800, Note_on_c, 9, 36, 110
1, 28812, Note_on_c, 9, 46, 0
1, 29279, Note_on_c, 9, 36, 0
1, 30720, Note_on_c, 9, 46, 110
1, 30720, Note_on_c, 9, 36, 110
1, 30732, Note_on_c, 9, 46, 0
1, 31199, Note_on_c, 9, 36, 0
1, 32640, Note_on_c, 9, 46, 110
1, 32640, Note_on_c, 9, 36, 110
1, 32652, Note_on_c, 9, 46, 0
1, 33119, Note_on_c, 9, 36, 0
1, 34560, Note_on_c, 9, 46, 110
1, 34560, Note_on_c, 9, 36, 110
1, 34572, Note_on_c, 9, 46, 0
1, 35039, Note_on_c, 9, 36, 0
1, 36480, Note_on_c, 9, 46, 110
1, 36480, Note_on_c, 9, 36, 110
1, 36492, Note_on_c, 9, 46, 0
1, 36959, Note_on_c, 9, 36, 0
1, 38400, Tempo, 500000
1, 38400, Note_on_c, 9, 42, 110
1, 38400, Note_on_c, 9, 49, 110
1, 38400, Note_on_c, 9, 36, 110
1, 38404, Note_on_c, 9, 42, 0
1, 38404, Note_on_c, 9, 49, 0
1, 38520, Note_on_c, 9, 42, 110
1, 38524, Note_on_c, 9, 42, 0
1, 38640, Note_on_c, 9, 46, 110
1, 38644, Note_on_c, 9, 46, 0
1, 38760, Note_on_c, 9, 42, 110
1, 38764, Note_on_c, 9, 42, 0
1, 38879, Note_on_c, 9, 36, 0
1, 38880, Note_on_c, 9, 38, 110
1, 38880, Note_on_c, 9, 42, 110
1, 38884, Note_on_c, 9, 42, 0
1, 38999, Note_on_c, 9, 38, 0
1, 39000, Note_on_c, 9, 42, 110
1, 39004, Note_on_c, 9, 42, 0
1, 39120, Note_on_c, 9, 42, 110
1, 39124, Note_on_c, 9, 42, 0
1, 39240, Note_on_c, 9, 42, 110
1, 39244, Note_on_c, 9, 42, 0
1, 39360, Note_on_c, 9, 42, 110
1, 39360, Note_on_c, 9, 36, 110
1, 39364, Note_on_c, 9, 42, 0
1, 39480, Note_on_c, 9, 42, 110
1, 39484, Note_on_c, 9, 42, 0
1, 39600, Note_on_c, 9, 46, 110
1, 39604, Note_on_c, 9, 46, 0
1, 39720, Note_on_c, 9, 42, 110
1, 39724, Note_on_c, 9, 42, 0
1, 39839, Note_on_c, 9, 36, 0
1, 39840, Note_on_c, 9, 38, 110
1, 39840, Note_on_c, 9, 42, 110
1, 39844, Note_on_c, 9, 42, 0
1, 39959, Note_on_c, 9, 38, 0
1, 39960, Note_on_c, 9, 42, 110
1, 39964, Note_on_c, 9, 42, 0
1, 40080, Note_on_c, 9, 42, 110
1, 40084, Note_on_c, 9, 42, 0
1, 40200, Note_on_c, 9, 42, 110
1, 40204, Note_on_c, 9, 42, 0
1, 40320, Note_on_c, 9, 42, 110
1, 40320, Note_on_c, 9, 36, 110
1, 40324, Note_on_c, 9, 42, 0
1, 40440, Note_on_c, 9, 42, 110
1, 40444, Note_on_c, 9, 42, 0
1, 40560, Note_on_c, 9, 42, 110
1, 40564, Note_on_c, 9, 42, 0
1, 40680, Note_on_c, 9, 42, 110
1, 40684, Note_on_c, 9, 42, 0
1, 40799, Note_on_c, 9, 36, 0
1, 40800, Note_on_c, 9, 38, 110
1, 40800, Note_on_c, 9, 42, 110
1, 40804, Note_on_c, 9, 42, 0
1, 40919, Note_on_c, 9, 38, 0
1, 40920, Note_on_c, 9, 42, 110
1, 40924, Note_on_c, 9, 42, 0
1, 41040, Note_on_c, 9, 42, 110
1, 41044, Note_on_c, 9, 42, 0
1, 41160, Note_on_c, 9, 42, 110
1, 41164, Note_on_c, 9, 42, 0
1, 41280, Note_on_c, 9, 42, 110
1, 41280, Note_on_c, 9, 36, 110
1, 41284, Note_on_c, 9, 42, 0
1, 41400, Note_on_c, 9, 42, 110
1, 41404, Note_on_c, 9, 42, 0
1, 41520, Note_on_c, 9, 46, 110
1, 41524, Note_on_c, 9, 46, 0
1, 41640, Note_on_c, 9, 42, 110
1, 41644, Note_on_c, 9, 42, 0
1, 41759, Note_on_c, 9, 36, 0
1, 41760, Note_on_c, 9, 38, 110
1, 41760, Note_on_c, 9, 42, 110
1, 41764, Note_on_c, 9, 42, 0
1, 41879, Note_on_c, 9, 38, 0
1, 41880, Note_on_c, 9, 42, 110
1, 41884, Note_on_c, 9, 42, 0
1, 42000, Note_on_c, 9, 42, 110
1, 42004, Note_on_c, 9, 42, 0
1, 42120, Note_on_c, 9, 42, 110
1, 42124, Note_on_c, 9, 42, 0
1, 42240, Note_on_c, 9, 42, 110
1, 42240, Note_on_c, 9, 36, 110
1, 42244, Note_on_c, 9, 42, 0
1, 42360, Note_on_c, 9, 42, 110
1, 42364, Note_on_c, 9, 42, 0
1, 42480, Note_on_c, 9, 42, 110
1, 42484, Note_on_c, 9, 42, 0
1, 42600, Note_on_c, 9, 42, 110
1, 42604, Note_on_c, 9, 42, 0
1, 42719, Note_on_c, 9, 36, 0
1, 42720, Note_on_c, 9, 38, 110
1, 42720, Note_on_c, 9, 42, 110
1, 42724, Note_on_c, 9, 42, 0
1, 42839, Note_on_c, 9, 38, 0
1, 42840, Note_on_c, 9, 42, 110
1, 42844, Note_on_c, 9, 42, 0
1, 42960, Note_on_c, 9, 42, 110
1, 42964, Note_on_c, 9, 42, 0
1, 43080, Note_on_c, 9, 42, 110
1, 43084, Note_on_c, 9, 42, 0
1, 43200, Note_on_c, 9, 42, 110
1, 43200, Note_on_c, 9, 36, 110
1, 43204, Note_on_c, 9, 42, 0
1, 43320, Note_on_c, 9, 42, 110
1, 43324, Note_on_c, 9, 42, 0
1, 43440, Note_on_c, 9, 46, 110
1, 43444, Note_on_c, 9, 46, 0
1, 43560, Note_on_c, 9, 42, 110
1, 43564, Note_on_c, 9, 42, 0
1, 43679, Note_on_c, 9, 36, 0
1, 43680, Note_on_c, 9, 38, 110
1, 43680, Note_on_c, 9, 42, 110
1, 43684, Note_on_c, 9, 42, 0
1, 43799, Note_on_c, 9, 38, 0
1, 43800, Note_on_c, 9, 42, 110
1, 43804, Note_on_c, 9, 42, 0
1, 43920, Note_on_c, 9, 42, 110
1, 43924, Note_on_c, 9, 42, 0
1, 44040, Note_on_c, 9, 42, 110
1, 44044, Note_on_c, 9, 42, 0
1, 44160, Note_on_c, 9, 42, 110
1, 44160, Note_on_c, 9, 36, 110
1, 44164, Note_on_c, 9, 42, 0
1, 44280, Note_on_c, 9, 42, 110
1, 44284, Note_on_c, 9, 42, 0
1, 44400, Note_on_c, 9, 46, 110
1, 44410, Note_on_c, 9, 46, 0
1, 44639, Note_on_c, 9, 36, 0
1, 44640, Note_on_c, 9, 38, 110
1, 44879, Note_on_c, 9, 38, 0
1, 44880, Note_on_c, 9, 38, 110
1, 45119, Note_on_c, 9, 38, 0
1, 45120, Note_on_c, 9, 38, 110
1, 45239, Note_on_c, 9, 38, 0
1, 45240, Note_on_c, 9, 38, 110
1, 45359, Note_on_c, 9, 38, 0
1, 45360, Note_on_c, 9, 38, 110
1, 45599, Note_on_c, 9, 38, 0
1, 45600, Note_on_c, 9, 38, 110
1, 45719, Note_on_c, 9, 38, 0
1, 45720, Note_on_c, 9, 38, 110
1, 45839, Note_on_c, 9, 38, 0
1, 45840, Note_on_c, 9, 38, 110
1, 46079, Note_on_c, 9, 38, 0
1, 46080, Note_on_c, 9, 42, 110
1, 46080, Note_on_c, 9, 36, 110
1, 46084, Note_on_c, 9, 42, 0
1, 46200, Note_on_c, 9, 42, 110
1, 46204, Note_on_c, 9, 42, 0
1, 46320, Note_on_c, 9, 42, 110
1, 46324, Note_on_c, 9, 42, 0
1, 46440, Note_on_c, 9, 42, 110
1, 46444, Note_on_c, 9, 42, 0
1, 46559, Note_on_c, 9, 36, 0
1, 46560, Note_on_c, 9, 38, 110
1, 46560, Note_on_c, 9, 42, 110
1, 46564, Note_on_c, 9, 42, 0
1, 46679, Note_on_c, 9, 38, 0
1, 46680, Note_on_c, 9, 42, 110
1, 46684, Note_on_c, 9, 42, 0
1, 46800, Note_on_c, 9, 42, 110
1, 46804, Note_on_c, 9, 42, 0
1, 46920, Note_on_c, 9, 42, 110
1, 46924, Note_on_c, 9, 42, 0
1, 47040, Note_on_c, 9, 42, 110
1, 47040, Note_on_c, 9, 36, 110
1, 47044, Note_on_c, 9, 42, 0
1, 47160, Note_on_c, 9, 42, 110
1, 47164, Note_on_c, 9, 42, 0
1, 47280, Note_on_c, 9, 46, 110
1, 47284, Note_on_c, 9, 46, 0
1, 47400, Note_on_c, 9, 42, 110
1, 47404, Note_on_c, 9, 42, 0
1, 47519, Note_on_c, 9, 36, 0
1, 47520, Note_on_c, 9, 38, 110
1, 47520, Note_on_c, 9, 42, 110
1, 47524, Note_on_c, 9, 42, 0
1, 47639, Note_on_c, 9, 38, 0
1, 47640, Note_on_c, 9, 42, 110
1, 47644, Note_on_c, 9, 42, 0
1, 47760, Note_on_c, 9, 42, 110
1, 47764, Note_on_c, 9, 42, 0
1, 47880, Note_on_c, 9, 42, 110
1, 47884, Note_on_c, 9, 42, 0
1, 48000, Note_on_c, 9, 42, 110
1, 48000, Note_on_c, 9, 36, 110
1, 48004, Note_on_c, 9, 42, 0
1, 48120, Note_on_c, 9, 42, 110
1, 48124, Note_on_c, 9, 42, 0
1, 48240, Note_on_c, 9, 42, 110
1, 48244, Note_on_c, 9, 42, 0
1, 48360, Note_on_c, 9, 42, 110
1, 48364, Note_on_c, 9, 42, 0
1, 48479, Note_on_c, 9, 36, 0
1, 48480, Note_on_c, 9, 38, 110
1, 48480, Note_on_c, 9, 42, 110
1, 48484, Note_on_c, 9, 42, 0
1, 48599, Note_on_c, 9, 38, 0
1, 48600, Note_on_c, 9, 42, 110
1, 48604, Note_on_c, 9, 42, 0
1, 48720, Note_on_c, 9, 42, 110
1, 48724, Note_on_c, 9, 42, 0
1, 48840, Note_on_c, 9, 42, 110
1, 48844, Note_on_c, 9, 42, 0
1, 48960, Note_on_c, 9, 42, 110
1, 48960, Note_on_c, 9, 36, 110
1, 48964, Note_on_c, 9, 42, 0
1, 49080, Note_on_c, 9, 42, 110
1, 49084, Note_on_c, 9, 42, 0
1, 49200, Note_on_c, 9, 46, 110
1, 49204, Note_on_c, 9, 46, 0
1, 49320, Note_on_c, 9, 42, 110
1, 49324, Note_on_c, 9, 42, 0
1, 49439, Note_on_c, 9, 36, 0
1, 49440, Note_on_c, 9, 38, 110
1, 49440, Note_on_c, 9, 42, 110
1, 49444, Note_on_c, 9, 42, 0
1, 49559, Note_on_c, 9, 38, 0
1, 49560, Note_on_c, 9, 42, 110
1, 49564, Note_on_c, 9, 42, 0
1, 49680, Note_on_c, 9, 42, 110
1, 49684, Note_on_c, 9, 42, 0
1, 49800, Note_on_c, 9, 42, 110
1, 49804, Note_on_c, 9, 42, 0
1, 49920, Note_on_c, 9, 42, 110
1, 49920, Note_on_c, 9, 36, 110
1, 49924, Note_on_c, 9, 42, 0
1, 50040, Note_on_c, 9, 42, 110
1, 50044, Note_on_c, 9, 42, 0
1, 50160, Note_on_c, 9, 42, 110
1, 50164, Note_on_c, 9, 42, 0
1, 50280, Note_on_c, 9, 42, 110
1, 50284, Note_on_c, 9, 42, 0
1, 50399, Note_on_c, 9, 36, 0
1, 50400, Note_on_c, 9, 38, 110
1, 50400, Note_on_c, 9, 42, 110
1, 50404, Note_on_c, 9, 42, 0
1, 50519, Note_on_c, 9, 38, 0
1, 50520, Note_on_c, 9, 42, 110
1, 50524, Note_on_c, 9, 42, 0
1, 50640, Note_on_c, 9, 42, 110
1, 50644, Note_on_c, 9, 42, 0
1, 50760, Note_on_c, 9, 42, 110
1, 50764, Note_on_c, 9, 42, 0
1, 50880, Note_on_c, 9, 42, 110
1, 50880, Note_on_c, 9, 36, 110
1, 50884, Note_on_c, 9, 42, 0
1, 51000, Note_on_c, 9, 42, 110
1, 51004, Note_on_c, 9, 42, 0
1, 51120, Note_on_c, 9, 46, 110
1, 51124, Note_on_c, 9, 46, 0
1, 51240, Note_on_c, 9, 42, 110
1, 51244, Note_on_c, 9, 42, 0
1, 51359, Note_on_c, 9, 36, 0
1, 51360, Note_on_c, 9, 38, 110
1, 51360, Note_on_c, 9, 42, 110
1, 51364, Note_on_c, 9, 42, 0
1, 51479, Note_on_c, 9, 38, 0
1, 51480, Note_on_c, 9, 42, 110
1, 51484, Note_on_c, 9, 42, 0
1, 51600, Note_on_c, 9, 42, 110
1, 51604, Note_on_c, 9, 42, 0
1, 51720, Note_on_c, 9, 42, 110
1, 51724, Note_on_c, 9, 42, 0
1, 51840, Note_on_c, 9, 42, 110
1, 51840, Note_on_c, 9, 36, 110
1, 51844, Note_on_c, 9, 42, 0
1, 51960, Note_on_c, 9, 42, 110
1, 51964, Note_on_c, 9, 42, 0
1, 52080, Note_on_c, 9, 46, 110
1, 52090, Note_on_c, 9, 46, 0
1, 52319, Note_on_c, 9, 36, 0
1, 52320, Note_on_c, 9, 38, 110
1, 52559, Note_on_c, 9, 38, 0
1, 52560, Note_on_c, 9, 38, 110
1, 52799, Note_on_c, 9, 38, 0
1, 52800, Note_on_c, 9, 38, 110
1, 52919, Note_on_c, 9, 38, 0
1, 52920, Note_on_c, 9, 38, 110
1, 53039, Note_on_c, 9, 38, 0
1, 53040, Note_on_c, 9, 38, 110
1, 53279, Note_on_c, 9, 38, 0
1, 53280, Note_on_c, 9, 47, 110
1, 53399, Note_on_c, 9, 47, 0
1, 53400, Note_on_c, 9, 45, 110
1, 53520, Note_on_c, 9, 43, 110
1, 53639, Note_on_c, 9, 45, 0
1, 53640, Note_on_c, 9, 41, 110
1, 53759, Note_on_c, 9, 43, 0
1, 53759, Note_on_c, 9, 41, 0
1, 53760, Note_on_c, 9, 42, 110
1, 53760, Note_on_c, 9, 49, 110
1, 53760, Note_on_c, 9, 36, 110
1, 53764, Note_on_c, 9, 42, 0
1, 53764, Note_on_c, 9, 49, 0
1, 53880, Note_on_c, 9, 42, 110
1, 53884, Note_on_c, 9, 42, 0
1, 54000, Note_on_c, 9, 42, 110
1, 54004, Note_on_c, 9, 42, 0
1, 54120, Note_on_c, 9, 42, 110
1, 54124, Note_on_c, 9, 42, 0
1, 54239, Note_on_c, 9, 36, 0
1, 54240, Note_on_c, 9, 38, 110
1, 54240, Note_on_c, 9, 42, 110
1, 54244, Note_on_c, 9, 42, 0
1, 54359, Note_on_c, 9, 38, 0
1, 54360, Note_on_c, 9, 42, 110
1, 54364, Note_on_c, 9, 42, 0
1, 54480, Note_on_c, 9, 42, 110
1, 54484, Note_on_c, 9, 42, 0
1, 54600, Note_on_c, 9, 42, 110
1, 54604, Note_on_c, 9, 42, 0
1, 54720, Note_on_c, 9, 42, 110
1, 54720, Note_on_c, 9, 36, 110
1, 54724, Note_on_c, 9, 42, 0
1, 54840, Note_on_c, 9, 42, 110
1, 54844, Note_on_c, 9, 42, 0
1, 54960, Note_on_c, 9, 42, 110
1, 54964, Note_on_c, 9, 42, 0
1, 55080, Note_on_c, 9, 42, 110
1, 55084, Note_on_c, 9, 42, 0
1, 55199, Note_on_c, 9, 36, 0
1, 55200, Note_on_c, 9, 38, 110
1, 55200, Note_on_c, 9, 42, 110
1, 55204, Note_on_c, 9, 42, 0
1, 55319, Note_on_c, 9, 38, 0
1, 55320, Note_on_c, 9, 42, 110
1, 55324, Note_on_c, 9, 42, 0
1, 55440, Note_on_c, 9, 38, 110
1, 55440, Note_on_c, 9, 42, 110
1, 55444, Note_on_c, 9, 42, 0
1, 55559, Note_on_c, 9, 38, 0
1, 55560, Note_on_c, 9, 42, 110
1, 55564, Note_on_c, 9, 42, 0
1, 55680, Note_on_c, 9, 42, 110
1, 55680, Note_on_c, 9, 49, 110
1, 55680, Note_on_c, 9, 36, 110
1, 55684, Note_on_c, 9, 42, 0
1, 55684, Note_on_c, 9, 49, 0
1, 55800, Note_on_c, 9, 42, 110
1, 55804, Note_on_c, 9, 42, 0
1, 55920, Note_on_c, 9, 42, 110
1, 55924, Note_on_c, 9, 42, 0
1, 56040, Note_on_c, 9, 42, 110
1, 56044, Note_on_c, 9, 42, 0
1, 56159, Note_on_c, 9, 36, 0
1, 56160, Note_on_c, 9, 38, 110
1, 56160, Note_on_c, 9, 42, 110
1, 56164, Note_on_c, 9, 42, 0
1, 56279, Note_on_c, 9, 38, 0
1, 56280, Note_on_c, 9, 42, 110
1, 56284, Note_on_c, 9, 42, 0
1, 56400, Note_on_c, 9, 42, 110
1, 56404, Note_on_c, 9, 42, 0
1, 56520, Note_on_c, 9, 42, 110
1, 56524, Note_on_c, 9, 42, 0
1, 56640, Note_on_c, 9, 42, 110
1, 56640, Note_on_c, 9, 36, 110
1, 56644, Note_on_c, 9, 42, 0
1, 56760, Note_on_c, 9, 42, 110
1, 56764, Note_on_c, 9, 42, 0
1, 56880, Note_on_c, 9, 42, 110
1, 56884, Note_on_c, 9, 42, 0
1, 57000, Note_on_c, 9, 42, 110
1, 57004, Note_on_c, 9, 42, 0
1, 57119, Note_on_c, 9, 36, 0
1, 57120, Note_on_c, 9, 38, 110
1, 57120, Note_on_c, 9, 42, 110
1, 57124, Note_on_c, 9, 42, 0
1, 57239, Note_on_c, 9, 38, 0
1, 57240, Note_on_c, 9, 42, 110
1, 57244, Note_on_c, 9, 42, 0
1, 57360, Note_on_c, 9, 38, 110
1, 57360, Note_on_c, 9, 42, 110
1, 57364, Note_on_c, 9, 42, 0
1, 57479, Note_on_c, 9, 38, 0
1, 57480, Note_on_c, 9, 42, 110
1, 57484, Note_on_c, 9, 42, 0
1, 57600, Note_on_c, 9, 42, 110
1, 57600, Note_on_c, 9, 49, 110
1, 57600, Note_on_c, 9, 36, 110
1, 57604, Note_on_c, 9, 42, 0
1, 57604, Note_on_c, 9, 49, 0
1, 57720, Note_on_c, 9, 42, 110
1, 57724, Note_on_c, 9, 42, 0
1, 57840, Note_on_c, 9, 42, 110
1, 57844, Note_on_c, 9, 42, 0
1, 57960, Note_on_c, 9, 42, 110
1, 57964, Note_on_c, 9, 42, 0
1, 58079, Note_on_c, 9, 36, 0
1, 58080, Note_on_c, 9, 38, 110
1, 58080, Note_on_c, 9, 42, 110
1, 58084, Note_on_c, 9, 42, 0
1, 58199, Note_on_c, 9, 38, 0
1, 58200, Note_on_c, 9, 42, 110
1, 58204, Note_on_c, 9, 42, 0
1, 58320, Note_on_c, 9, 42, 110
1, 58324, Note_on_c, 9, 42, 0
1, 58440, Note_on_c, 9, 42, 110
1, 58444, Note_on_c, 9, 42, 0
1, 58560, Note_on_c, 9, 42, 110
1, 58560, Note_on_c, 9, 36, 110
1, 58564, Note_on_c, 9, 42, 0
1, 58680, Note_on_c, 9, 42, 110
1, 58684, Note_on_c, 9, 42, 0
1, 58800, Note_on_c, 9, 42, 110
1, 58804, Note_on_c, 9, 42, 0
1, 58920, Note_on_c, 9, 42, 110
1, 58924, Note_on_c, 9, 42, 0
1, 59039, Note_on_c, 9, 36, 0
1, 59040, Note_on_c, 9, 38, 110
1, 59040, Note_on_c, 9, 42, 110
1, 59044, Note_on_c, 9, 42, 0
1, 59159, Note_on_c, 9, 38, 0
1, 59160, Note_on_c, 9, 42, 110
1, 59164, Note_on_c, 9, 42, 0
1, 59280, Note_on_c, 9, 38, 110
1, 59280, Note_on_c, 9, 42, 110
1, 59284, Note_on_c, 9, 42, 0
1, 59399, Note_on_c, 9, 38, 0
1, 59400, Note_on_c, 9, 42, 110
1, 59404, Note_on_c, 9, 42, 0
1, 59520, Note_on_c, 9, 42, 110
1, 59520, Note_on_c, 9, 49, 110
1, 59520, Note_on_c, 9, 36, 110
1, 59524, Note_on_c, 9, 42, 0
1, 59524, Note_on_c, 9, 49, 0
1, 59640, Note_on_c, 9, 42, 110
1, 59644, Note_on_c, 9, 42, 0
1, 59760, Note_on_c, 9, 42, 110
1, 59764, Note_on_c, 9, 42, 0
1, 59880, Note_on_c, 9, 42, 110
1, 59884, Note_on_c, 9, 42, 0
1, 59999, Note_on_c, 9, 36, 0
1, 60000, Note_on_c, 9, 38, 110
1, 60000, Note_on_c, 9, 42, 110
1, 60004, Note_on_c, 9, 42, 0
1, 60119, Note_on_c, 9, 38, 0
1, 60120, Note_on_c, 9, 42, 110
1, 60124, Note_on_c, 9, 42, 0
1, 60240, Note_on_c, 9, 42, 110
1, 60244, Note_on_c, 9, 42, 0
1, 60360, Note_on_c, 9, 42, 110
1, 60364, Note_on_c, 9, 42, 0
1, 60480, Note_on_c, 9, 38, 110
1, 60599, Note_on_c, 9, 38, 0
1, 60600, Note_on_c, 9, 38, 110
1, 60719, Note_on_c, 9, 38, 0
1, 60720, Note_on_c, 9, 38, 110
1, 60959, Note_on_c, 9, 38, 0
1, 60960, Note_on_c, 9, 47, 110
1, 61079, Note_on_c, 9, 47, 0
1, 61080, Note_on_c, 9, 45, 110
1, 61200, Note_on_c, 9, 43, 110
1, 61319, Note_on_c, 9, 45, 0
1, 61320, Note_on_c, 9, 41, 110
1, 61439, Note_on_c, 9, 43, 0
1, 61439, Note_on_c, 9, 41, 0
1, 61440, Note_on_c, 9, 42, 110
1, 61440, Note_on_c, 9, 49, 110
1, 61440, Note_on_c, 9, 36, 110
1, 61444, Note_on_c, 9, 42, 0
1, 61444, Note_on_c, 9, 49, 0
1, 61560, Note_on_c, 9, 42, 110
1, 61564, Note_on_c, 9, 42, 0
1, 61680, Note_on_c, 9, 42, 110
1, 61684, Note_on_c, 9, 42, 0
1, 61800, Note_on_c, 9, 42, 110
1, 61804, Note_on_c, 9, 42, 0
1, 61919, Note_on_c, 9, 36, 0
1, 61920, Note_on_c, 9, 38, 110
1, 61920, Note_on_c, 9, 42, 110
1, 61924, Note_on_c, 9, 42, 0
1, 62039, Note_on_c, 9, 38, 0
1, 62040, Note_on_c, 9, 42, 110
1, 62044, Note_on_c, 9, 42, 0
1, 62160, Note_on_c, 9, 42, 110
1, 62164, Note_on_c, 9, 42, 0
1, 62280, Note_on_c, 9, 42, 110
1, 62284, Note_on_c, 9, 42, 0
1, 62400, Note_on_c, 9, 42, 110
1, 62400, Note_on_c, 9, 36, 110
1, 62404, Note_on_c, 9, 42, 0
1, 62520, Note_on_c, 9, 42, 110
1, 62524, Note_on_c, 9, 42, 0
1, 62640, Note_on_c, 9, 42, 110
1, 62644, Note_on_c, 9, 42, 0
1, 62760, Note_on_c, 9, 42, 110
1, 62764, Note_on_c, 9, 42, 0
1, 62879, Note_on_c, 9, 36, 0
1, 62880, Note_on_c, 9, 38, 110
1, 62880, Note_on_c, 9, 42, 110
1, 62884, Note_on_c, 9, 42, 0
1, 62999, Note_on_c, 9, 38, 0
1, 63000, Note_on_c, 9, 42, 110
1, 63004, Note_on_c, 9, 42, 0
1, 63120, Note_on_c, 9, 38, 110
1, 63120, Note_on_c, 9, 42, 110
1, 63124, Note_on_c, 9, 42, 0
1, 63239, Note_on_c, 9, 38, 0
1, 63240, Note_on_c, 9, 42, 110
1, 63244, Note_on_c, 9, 42, 0
1, 63360, Note_on_c, 9, 42, 110
1, 63360, Note_on_c, 9, 49, 110
1, 63360, Note_on_c, 9, 36, 110
1, 63364, Note_on_c, 9, 42, 0
1, 63364, Note_on_c, 9, 49, 0
1, 63480, Note_on_c, 9, 42, 110
1, 63484, Note_on_c, 9, 42, 0
1, 63600, Note_on_c, 9, 42, 110
1, 63604, Note_on_c, 9, 42, 0
1, 63720, Note_on_c, 9, 42, 110
1, 63724, Note_on_c, 9, 42, 0
1, 63839, Note_on_c, 9, 36, 0
1, 63840, Note_on_c, 9, 38, 110
1, 63840, Note_on_c, 9, 42, 110
1, 63844, Note_on_c, 9, 42, 0
1, 63959, Note_on_c, 9, 38, 0
1, 63960, Note_on_c, 9, 42, 110
1, 63964, Note_on_c, 9, 42, 0
1, 64080, Note_on_c, 9, 42, 110
1, 64084, Note_on_c, 9, 42, 0
1, 64200, Note_on_c, 9, 42, 110
1, 64204, Note_on_c, 9, 42, 0
1, 64320, Note_on_c, 9, 42, 110
1, 64320, Note_on_c, 9, 36, 110
1, 64324, Note_on_c, 9, 42, 0
1, 64440, Note_on_c, 9, 42, 110
1, 64444, Note_on_c, 9, 42, 0
1, 64560, Note_on_c, 9, 42, 110
1, 64564, Note_on_c, 9, 42, 0
1, 64680, Note_on_c, 9, 42, 110
1, 64684, Note_on_c, 9, 42, 0
1, 64799, Note_on_c, 9, 36, 0
1, 64800, Note_on_c, 9, 38, 110
1, 64800, Note_on_c, 9, 42, 110
1, 64804, Note_on_c, 9, 42, 0
1, 64919, Note_on_c, 9, 38, 0
1, 64920, Note_on_c, 9, 42, 110
1, 64924, Note_on_c, 9, 42, 0
1, 65040, Note_on_c, 9, 38, 110
1, 65040, Note_on_c, 9, 42, 110
1, 65044, Note_on_c, 9, 42, 0
1, 65159, Note_on_c, 9, 38, 0
1, 65160, Note_on_c, 9, 42, 110
1, 65164, Note_on_c, 9, 42, 0
1, 65280, Note_on_c, 9, 42, 110
1, 65280, Note_on_c, 9, 49, 110
1, 65280, Note_on_c, 9, 36, 110
1, 65284, Note_on_c, 9, 42, 0
1, 65284, Note_on_c, 9, 49, 0
1, 65400, Note_on_c, 9, 42, 110
1, 65404, Note_on_c, 9, 42, 0
1, 65520, Note_on_c, 9, 42, 110
1, 65524, Note_on_c, 9, 42, 0
1, 65640, Note_on_c, 9, 42, 110
1, 65644, Note_on_c, 9, 42, 0
1, 65759, Note_on_c, 9, 36, 0
1, 65760, Note_on_c, 9, 38, 110
1, 65760, Note_on_c, 9, 42, 110
1, 65764, Note_on_c, 9, 42, 0
1, 65879, Note_on_c, 9, 38, 0
1, 65880, Note_on_c, 9, 42, 110
1, 65884, Note_on_c, 9, 42, 0
1, 66000, Note_on_c, 9, 42, 110
1, 66004, Note_on_c, 9, 42, 0
1, 66120, Note_on_c, 9, 42, 110
1, 66124, Note_on_c, 9, 42, 0
1, 66240, Note_on_c, 9, 42, 110
1, 66240, Note_on_c, 9, 36, 110
1, 66244, Note_on_c, 9, 42, 0
1, 66360, Note_on_c, 9, 42, 110
1, 66364, Note_on_c, 9, 42, 0
1, 66480, Note_on_c, 9, 42, 110
1, 66484, Note_on_c, 9, 42, 0
1, 66600, Note_on_c, 9, 42, 110
1, 66604, Note_on_c, 9, 42, 0
1, 66719, Note_on_c, 9, 36, 0
1, 66720, Note_on_c, 9, 38, 110
1, 66720, Note_on_c, 9, 42, 110
1, 66724, Note_on_c, 9, 42, 0
1, 66839, Note_on_c, 9, 38, 0
1, 66840, Note_on_c, 9, 42, 110
1, 66844, Note_on_c, 9, 42, 0
1, 66960, Note_on_c, 9, 38, 110
1, 66960, Note_on_c, 9, 42, 110
1, 66964, Note_on_c, 9, 42, 0
1, 67079, Note_on_c, 9, 38, 0
1, 67080, Note_on_c, 9, 42, 110
1, 67084, Note_on_c, 9, 42, 0
1, 67200, Note_on_c, 9, 42, 110
1, 67200, Note_on_c, 9, 49, 110
1, 67200, Note_on_c, 9, 36, 110
1, 67204, Note_on_c, 9, 42, 0
1, 67204, Note_on_c, 9, 49, 0
1, 67320, Note_on_c, 9, 42, 110
1, 67324, Note_on_c, 9, 42, 0
1, 67440, Note_on_c, 9, 42, 110
1, 67444, Note_on_c, 9, 42, 0
1, 67560, Note_on_c, 9, 42, 110
1, 67564, Note_on_c, 9, 42, 0
1, 67679, Note_on_c, 9, 36, 0
1, 67680, Note_on_c, 9, 38, 110
1, 67680, Note_on_c, 9, 42, 110
1, 67684, Note_on_c, 9, 42, 0
1, 67799, Note_on_c, 9, 38, 0
1, 67800, Note_on_c, 9, 42, 110
1, 67804, Note_on_c, 9, 42, 0
1, 67920, Note_on_c, 9, 42, 110
1, 67924, Note_on_c, 9, 42, 0
1, 68040, Note_on_c, 9, 42, 110
1, 68044, Note_on_c, 9, 42, 0
1, 68160, Note_on_c, 9, 38, 110
1, 68279, Note_on_c, 9, 38, 0
1, 68280, Note_on_c, 9, 38, 110
1, 68399, Note_on_c, 9, 38, 0
1, 68400, Note_on_c, 9, 38, 110
1, 68639, Note_on_c, 9, 38, 0
1, 68640, Note_on_c, 9, 47, 110
1, 68759, Note_on_c, 9, 47, 0
1, 68760, Note_on_c, 9, 45, 110
1, 68880, Note_on_c, 9, 43, 110
1, 68999, Note_on_c, 9, 45, 0
1, 69000, Note_on_c, 9, 41, 110
1, 69119, Note_on_c, 9, 43, 0
1, 69119, Note_on_c, 9, 41, 0
1, 69120, Note_on_c, 9, 46, 110
1, 69120, Note_on_c, 9, 36, 110
1, 69142, Note_on_c, 9, 46, 0
1, 69599, Note_on_c, 9, 36, 0
1, 70800, Note_on_c, 9, 38, 110
1, 71039, Note_on_c, 9, 38, 0
1, 71040, Note_on_c, 9, 46, 110
1, 71040, Note_on_c, 9, 36, 110
1, 71062, Note_on_c, 9, 46, 0
1, 71519, Note_on_c, 9, 36, 0
1, 72720, Note_on_c, 9, 38, 110
1, 72959, Note_on_c, 9, 38, 0
1, 72960, Note_on_c, 9, 46, 110
1, 72960, Note_on_c, 9, 36, 110
1, 72982, Note_on_c, 9, 46, 0
1, 73439, Note_on_c, 9, 36, 0
1, 74640, Note_on_c, 9, 38, 110
1, 74879, Note_on_c, 9, 38, 0
1, 74880, Note_on_c, 9, 49, 110
1, 74880, Note_on_c, 9, 36, 110
1, 74890, Note_on_c, 9, 49, 0
1, 75120, Note_on_c, 9, 38, 110
1, 75239, Note_on_c, 9, 36, 0
1, 75239, Note_on_c, 9, 38, 0
1, 75240, Note_on_c, 9, 49, 110
1, 75240, Note_on_c, 9, 36, 110
1, 75244, Note_on_c, 9, 49, 0
1, 75359, Note_on_c, 9, 36, 0
1, 75480, Note_on_c, 9, 38, 110
1, 75599, Note_on_c, 9, 38, 0
1, 75600, Note_on_c, 9, 49, 110
1, 75600, Note_on_c, 9, 36, 110
1, 75610, Note_on_c, 9, 49, 0
1, 75839, Note_on_c, 9, 36, 0
1, 75960, Note_on_c, 9, 38, 110
1, 76079, Note_on_c, 9, 38, 0
1, 76080, Note_on_c, 9, 38, 110
1, 76200, Note_on_c, 9, 36, 110
1, 76319, Note_on_c, 9, 38, 0
1, 76319, Note_on_c, 9, 36, 0
1, 76320, Note_on_c, 9, 47, 110
1, 76439, Note_on_c, 9, 47, 0
1, 76440, Note_on_c, 9, 45, 110
1, 76560, Note_on_c, 9, 43, 110
1, 76679, Note_on_c, 9, 45, 0
1, 76680, Note_on_c, 9, 41, 110
1, 76799, Note_on_c, 9, 43, 0
1, 76799, Note_on_c, 9, 41, 0
1, 76800, Note_on_c, 9, 46, 110
1, 76800, Note_on_c, 9, 36, 110
1, 76822, Note_on_c, 9, 46, 0
1, 77279, Note_on_c, 9, 36, 0
1, 78480, Note_on_c, 9, 38, 110
1, 78719, Note_on_c, 9, 38, 0
1, 78720, Note_on_c, 9, 46, 110
1, 78720, Note_on_c, 9, 36, 110
1, 78742, Note_on_c, 9, 46, 0
1, 79199, Note_on_c, 9, 36, 0
1, 80400, Note_on_c, 9, 38, 110
1, 80639, Note_on_c, 9, 38, 0
1, 80640, Note_on_c, 9, 46, 110
1, 80640, Note_on_c, 9, 36, 110
1, 80662, Note_on_c, 9, 46, 0
1, 81119, Note_on_c, 9, 36, 0
1, 82320, Note_on_c, 9, 38, 110
1, 82559, Note_on_c, 9, 38, 0
1, 82560, Note_on_c, 9, 49, 110
1, 82560, Note_on_c, 9, 36, 110
1, 82570, Note_on_c, 9, 49, 0
1, 82800, Note_on_c, 9, 38, 110
1, 82919, Note_on_c, 9, 36, 0
1, 82919, Note_on_c, 9, 38, 0
1, 82920, Note_on_c, 9, 49, 110
1, 82920, Note_on_c, 9, 36, 110
1, 82924, Note_on_c, 9, 49, 0
1, 83039, Note_on_c, 9, 36, 0
1, 83160, Note_on_c, 9, 38, 110
1, 83279, Note_on_c, 9, 38, 0
1, 83280, Note_on_c, 9, 49, 110
1, 83280, Note_on_c, 9, 36, 110
1, 83290, Note_on_c, 9, 49, 0
1, 83519, Note_on_c, 9, 36, 0
1, 83640, Note_on_c, 9, 38, 110
1, 83759, Note_on_c, 9, 38, 0
1, 83760, Note_on_c, 9, 38, 110
1, 83880, Note_on_c, 9, 36, 110
1, 83999, Note_on_c, 9, 38, 0
1, 83999, Note_on_c, 9, 36, 0
1, 84000, Note_on_c, 9, 47, 110
1, 84119, Note_on_c, 9, 47, 0
1, 84120, Note_on_c, 9, 45, 110
1, 84240, Note_on_c, 9, 43, 110
1, 84359, Note_on_c, 9, 45, 0
1, 84360, Note_on_c, 9, 41, 110
1, 84479, Note_on_c, 9, 43, 0
1, 84479, Note_on_c, 9, 41, 0
1, 84480, Note_on_c, 9, 42, 110
1, 84480, Note_on_c, 9, 49, 110
1, 84480, Note_on_c, 9, 36, 110
1, 84484, Note_on_c, 9, 42, 0
1, 84484, Note_on_c, 9, 49, 0
1, 84600, Note_on_c, 9, 42, 110
1, 84604, Note_on_c, 9, 42, 0
1, 84720, Note_on_c, 9, 42, 110
1, 84724, Note_on_c, 9, 42, 0
1, 84840, Note_on_c, 9, 42, 110
1, 84844, Note_on_c, 9, 42, 0
1, 84959, Note_on_c, 9, 36, 0
1, 84960, Note_on_c, 9, 38, 110
1, 84960, Note_on_c, 9, 42, 110
1, 84964, Note_on_c, 9, 42, 0
1, 85079, Note_on_c, 9, 38, 0
1, 85080, Note_on_c, 9, 42, 110
1, 85084, Note_on_c, 9, 42, 0
1, 85200, Note_on_c, 9, 42, 110
1, 85204, Note_on_c, 9, 42, 0
1, 85320, Note_on_c, 9, 42, 110
1, 85324, Note_on_c, 9, 42, 0
1, 85440, Note_on_c, 9, 42, 110
1, 85440, Note_on_c, 9, 36, 110
1, 85444, Note_on_c, 9, 42, 0
1, 85560, Note_on_c, 9, 42, 110
1, 85564, Note_on_c, 9, 42, 0
1, 85680, Note_on_c, 9, 42, 110
1, 85684, Note_on_c, 9, 42, 0
1, 85800, Note_on_c, 9, 42, 110
1, 85804, Note_on_c, 9, 42, 0
1, 85919, Note_on_c, 9, 36, 0
1, 85920, Note_on_c, 9, 38, 110
1, 85920, Note_on_c, 9, 46, 110
1, 85924, Note_on_c, 9, 46, 0
1, 86039, Note_on_c, 9, 38, 0
1, 86040, Note_on_c, 9, 42, 110
1, 86044, Note_on_c, 9, 42, 0
1, 86160, Note_on_c, 9, 38, 110
1, 86160, Note_on_c, 9, 46, 110
1, 86164, Note_on_c, 9, 46, 0
1, 86279, Note_on_c, 9, 38, 0
1, 86280, Note_on_c, 9, 42, 110
1, 86284, Note_on_c, 9, 42, 0
1, 86400, Note_on_c, 9, 42, 110
1, 86400, Note_on_c, 9, 49, 110
1, 86400, Note_on_c, 9, 36, 110
1, 86404, Note_on_c, 9, 42, 0
1, 86404, Note_on_c, 9, 49, 0
1, 86520, Note_on_c, 9, 42, 110
1, 86524, Note_on_c, 9, 42, 0
1, 86640, Note_on_c, 9, 42, 110
1, 86644, Note_on_c, 9, 42, 0
1, 86760, Note_on_c, 9, 42, 110
1, 86764, Note_on_c, 9, 42, 0
1, 86879, Note_on_c, 9, 36, 0
1, 86880, Note_on_c, 9, 38, 110
1, 86880, Note_on_c, 9, 42, 110
1, 86884, Note_on_c, 9, 42, 0
1, 86999, Note_on_c, 9, 38, 0
1, 87000, Note_on_c, 9, 42, 110
1, 87004, Note_on_c, 9, 42, 0
1, 87120, Note_on_c, 9, 42, 110
1, 87124, Note_on_c, 9, 42, 0
1, 87240, Note_on_c, 9, 42, 110
1, 87244, Note_on_c, 9, 42, 0
1, 87360, Note_on_c, 9, 42, 110
1, 87360, Note_on_c, 9, 36, 110
1, 87364, Note_on_c, 9, 42, 0
1, 87480, Note_on_c, 9, 42, 110
1, 87484, Note_on_c, 9, 42, 0
1, 87600, Note_on_c, 9, 42, 110
1, 87604, Note_on_c, 9, 42, 0
1, 87720, Note_on_c, 9, 42, 110
1, 87724, Note_on_c, 9, 42, 0
1, 87839, Note_on_c, 9, 36, 0
1, 87840, Note_on_c, 9, 38, 110
1, 87840, Note_on_c, 9, 46, 110
1, 87844, Note_on_c, 9, 46, 0
1, 87959, Note_on_c, 9, 38, 0
1, 87960, Note_on_c, 9, 42, 110
1, 87964, Note_on_c, 9, 42, 0
1, 88080, Note_on_c, 9, 38, 110
1, 88080, Note_on_c, 9, 46, 110
1, 88084, Note_on_c, 9, 46, 0
1, 88199, Note_on_c, 9, 38, 0
1, 88200, Note_on_c, 9, 42, 110
1, 88204, Note_on_c, 9, 42, 0
1, 88320, Note_on_c, 9, 42, 110
1, 88320, Note_on_c, 9, 49, 110
1, 88320, Note_on_c, 9, 36, 110
1, 88324, Note_on_c, 9, 42, 0
1, 88324, Note_on_c, 9, 49, 0
1, 88440, Note_on_c, 9, 42, 110
1, 88444, Note_on_c, 9, 42, 0
1, 88560, Note_on_c, 9, 42, 110
1, 88564, Note_on_c, 9, 42, 0
1, 88680, Note_on_c, 9, 42, 110
1, 88684, Note_on_c, 9, 42, 0
1, 88799, Note_on_c, 9, 36, 0
1, 88800, Note_on_c, 9, 38, 110
1, 88800, Note_on_c, 9, 42, 110
1, 88804, Note_on_c, 9, 42, 0
1, 88919, Note_on_c, 9, 38, 0
1, 88920, Note_on_c, 9, 42, 110
1, 88924, Note_on_c, 9, 42, 0
1, 89040, Note_on_c, 9, 42, 110
1, 89044, Note_on_c, 9, 42, 0
1, 89160, Note_on_c, 9, 42, 110
1, 89164, Note_on_c, 9, 42, 0
1, 89280, Note_on_c, 9, 42, 110
1, 89280, Note_on_c, 9, 36, 110
1, 89284, Note_on_c, 9, 42, 0
1, 89400, Note_on_c, 9, 42, 110
1, 89404, Note_on_c, 9, 42, 0
1, 89520, Note_on_c, 9, 42, 110
1, 89524, Note_on_c, 9, 42, 0
1, 89640, Note_on_c, 9, 42, 110
1, 89644, Note_on_c, 9, 42, 0
1, 89759, Note_on_c, 9, 36, 0
1, 89760, Note_on_c, 9, 38, 110
1, 89760, Note_on_c, 9, 46, 110
1, 89764, Note_on_c, 9, 46, 0
1, 89879, Note_on_c, 9, 38, 0
1, 89880, Note_on_c, 9, 42, 110
1, 89884, Note_on_c, 9, 42, 0
1, 90000, Note_on_c, 9, 38, 110
1, 90000, Note_on_c, 9, 46, 110
1, 90004, Note_on_c, 9, 46, 0
1, 90119, Note_on_c, 9, 38, 0
1, 90120, Note_on_c, 9, 42, 110
1, 90124, Note_on_c, 9, 42, 0
1, 90240, Note_on_c, 9, 49, 110
1, 90240, Note_on_c, 9, 36, 110
1, 90250, Note_on_c, 9, 49, 0
1, 90480, Note_on_c, 9, 38, 110
1, 90599, Note_on_c, 9, 36, 0
1, 90599, Note_on_c, 9, 38, 0
1, 90600, Note_on_c, 9, 49, 110
1, 90600, Note_on_c, 9, 36, 110
1, 90604, Note_on_c, 9, 49, 0
1, 90719, Note_on_c, 9, 36, 0
1, 90840, Note_on_c, 9, 38, 110
1, 90959, Note_on_c, 9, 38, 0
1, 90960, Note_on_c, 9, 49, 110
1, 90960, Note_on_c, 9, 36, 110
1, 90970, Note_on_c, 9, 49, 0
1, 91199, Note_on_c, 9, 36, 0
1, 91320, Note_on_c, 9, 38, 110
1, 91439, Note_on_c, 9, 38, 0
1, 91440, Note_on_c, 9, 38, 110
1, 91560, Note_on_c, 9, 36, 110
1, 91679, Note_on_c, 9, 38, 0
1, 91679, Note_on_c, 9, 36, 0
1, 91680, Note_on_c, 9, 47, 110
1, 91799, Note_on_c, 9, 47, 0
1, 91800, Note_on_c, 9, 45, 110
1, 91920, Note_on_c, 9, 43, 110
1, 92039, Note_on_c, 9, 45, 0
1, 92040, Note_on_c, 9, 41, 110
1, 92159, Note_on_c, 9, 43, 0
1, 92159, Note_on_c, 9, 41, 0
1, 92160, Note_on_c, 9, 42, 110
1, 92160, Note_on_c, 9, 49, 110
1, 92160, Note_on_c, 9, 36, 110
1, 92164, Note_on_c, 9, 42, 0
1, 92164, Note_on_c, 9, 49, 0
1, 92280, Note_on_c, 9, 42, 110
1, 92284, Note_on_c, 9, 42, 0
1, 92400, Note_on_c, 9, 42, 110
1, 92404, Note_on_c, 9, 42, 0
1, 92520, Note_on_c, 9, 42, 110
1, 92524, Note_on_c, 9, 42, 0
1, 92639, Note_on_c, 9, 36, 0
1, 92640, Note_on_c, 9, 38, 110
1, 92640, Note_on_c, 9, 42, 110
1, 92644, Note_on_c, 9, 42, 0
1, 92759, Note_on_c, 9, 38, 0
1, 92760, Note_on_c, 9, 42, 110
1, 92764, Note_on_c, 9, 42, 0
1, 92880, Note_on_c, 9, 42, 110
1, 92884, Note_on_c, 9, 42, 0
1, 93000, Note_on_c, 9, 42, 110
1, 93004, Note_on_c, 9, 42, 0
1, 93120, Note_on_c, 9, 42, 110
1, 93120, Note_on_c, 9, 36, 110
1, 93124, Note_on_c, 9, 42, 0
1, 93240, Note_on_c, 9, 42, 110
1, 93244, Note_on_c, 9, 42, 0
1, 93360, Note_on_c, 9, 42, 110
1, 93364, Note_on_c, 9, 42, 0
1, 93480, Note_on_c, 9, 42, 110
1, 93484, Note_on_c, 9, 42, 0
1, 93599, Note_on_c, 9, 36, 0
1, 93600, Note_on_c, 9, 38, 110
1, 93600, Note_on_c, 9, 46, 110
1, 93604, Note_on_c, 9, 46, 0
1, 93719, Note_on_c, 9, 38, 0
1, 93720, Note_on_c, 9, 42, 110
1, 93724, Note_on_c, 9, 42, 0
1, 93840, Note_on_c, 9, 38, 110
1, 93840, Note_on_c, 9, 46, 110
1, 93844, Note_on_c, 9, 46, 0
1, 93959, Note_on_c, 9, 38, 0
1, 93960, Note_on_c, 9, 42, 110
1, 93964, Note_on_c, 9, 42, 0
1, 94080, Note_on_c, 9, 42, 110
1, 94080, Note_on_c, 9, 49, 110
1, 94080, Note_on_c, 9, 36, 110
1, 94084, Note_on_c, 9, 42, 0
1, 94084, Note_on_c, 9, 49, 0
1, 94200, Note_on_c, 9, 42, 110
1, 94204, Note_on_c, 9, 42, 0
1, 94320, Note_on_c, 9, 42, 110
1, 94324, Note_on_c, 9, 42, 0
1, 94440, Note_on_c, 9, 42, 110
1, 94444, Note_on_c, 9, 42, 0
1, 94559, Note_on_c, 9, 36, 0
1, 94560, Note_on_c, 9, 38, 110
1, 94560, Note_on_c, 9, 42, 110
1, 94564, Note_on_c, 9, 42, 0
1, 94679, Note_on_c, 9, 38, 0
1, 94680, Note_on_c, 9, 42, 110
1, 94684, Note_on_c, 9, 42, 0
1, 94800, Note_on_c, 9, 42, 110
1, 94804, Note_on_c, 9, 42, 0
1, 94920, Note_on_c, 9, 42, 110
1, 94924, Note_on_c, 9, 42, 0
1, 95040, Note_on_c, 9, 42, 110
1, 95040, Note_on_c, 9, 36, 110
1, 95044, Note_on_c, 9, 42, 0
1, 95160, Note_on_c, 9, 42, 110
1, 95164, Note_on_c, 9, 42, 0
1, 95280, Note_on_c, 9, 42, 110
1, 95284, Note_on_c, 9, 42, 0
1, 95400, Note_on_c, 9, 42, 110
1, 95404, Note_on_c, 9, 42, 0
1, 95519, Note_on_c, 9, 36, 0
1, 95520, Note_on_c, 9, 38, 110
1, 95520, Note_on_c, 9, 46, 110
1, 95524, Note_on_c, 9, 46, 0
1, 95639, Note_on_c, 9, 38, 0
1, 95640, Note_on_c, 9, 42, 110
1, 95644, Note_on_c, 9, 42, 0
1, 95760, Note_on_c, 9, 38, 110
1, 95760, Note_on_c, 9, 46, 110
1, 95764, Note_on_c, 9, 46, 0
1, 95879, Note_on_c, 9, 38, 0
1, 95880, Note_on_c, 9, 42, 110
1, 95884, Note_on_c, 9, 42, 0
1, 96000, Note_on_c, 9, 42, 110
1, 96000, Note_on_c, 9, 49, 110
1, 96000, Note_on_c, 9, 36, 110
1, 96004, Note_on_c, 9, 42, 0
1, 96004, Note_on_c, 9, 49, 0
1, 96120, Note_on_c, 9, 42, 110
1, 96124, Note_on_c, 9, 42, 0
1, 96240, Note_on_c, 9, 42, 110
1, 96244, Note_on_c, 9, 42, 0
1, 96360, Note_on_c, 9, 42, 110
1, 96364, Note_on_c, 9, 42, 0
1, 96479, Note_on_c, 9, 36, 0
1, 96480, Note_on_c, 9, 38, 110
1, 96480, Note_on_c, 9, 42, 110
1, 96484, Note_on_c, 9, 42, 0
1, 96599, Note_on_c, 9, 38, 0
1, 96600, Note_on_c, 9, 42, 110
1, 96604, Note_on_c, 9, 42, 0
1, 96720, Note_on_c, 9, 42, 110
1, 96724, Note_on_c, 9, 42, 0
1, 96840, Note_on_c, 9, 42, 110
1, 96844, Note_on_c, 9, 42, 0
1, 96960, Note_on_c, 9, 42, 110
1, 96960, Note_on_c, 9, 36, 110
1, 96964, Note_on_c, 9, 42, 0
1, 97080, Note_on_c, 9, 42, 110
1, 97084, Note_on_c, 9, 42, 0
1, 97200, Note_on_c, 9, 42, 110
1, 97204, Note_on_c, 9, 42, 0
1, 97320, Note_on_c, 9, 42, 110
1, 97324, Note_on_c, 9, 42, 0
1, 97439, Note_on_c, 9, 36, 0
1, 97440, Note_on_c, 9, 38, 110
1, 97440, Note_on_c, 9, 46, 110
1, 97444, Note_on_c, 9, 46, 0
1, 97559, Note_on_c, 9, 38, 0
1, 97560, Note_on_c, 9, 42, 110
1, 97564, Note_on_c, 9, 42, 0
1, 97680, Note_on_c, 9, 38, 110
1, 97680, Note_on_c, 9, 46, 110
1, 97684, Note_on_c, 9, 46, 0
1, 97799, Note_on_c, 9, 38, 0
1, 97800, Note_on_c, 9, 42, 110
1, 97804, Note_on_c, 9, 42, 0
1, 97920, Note_on_c, 9, 49, 110
1, 97920, Note_on_c, 9, 36, 110
1, 97930, Note_on_c, 9, 49, 0
1, 98160, Note_on_c, 9, 38, 110
1, 98279, Note_on_c, 9, 36, 0
1, 98279, Note_on_c, 9, 38, 0
1, 98280, Note_on_c, 9, 49, 110
1, 98280, Note_on_c, 9, 36, 110
1, 98284, Note_on_c, 9, 49, 0
1, 98399, Note_on_c, 9, 36, 0
1, 98520, Note_on_c, 9, 38, 110
1, 98639, Note_on_c, 9, 38, 0
1, 98640, Note_on_c, 9, 49, 110
1, 98640, Note_on_c, 9, 36, 110
1, 98650, Note_on_c, 9, 49, 0
1, 98879, Note_on_c, 9, 36, 0
1, 99000, Note_on_c, 9, 38, 110
1, 99119, Note_on_c, 9, 38, 0
1, 99120, Note_on_c, 9, 38, 110
1, 99240, Note_on_c, 9, 36, 110
1, 99359, Note_on_c, 9, 38, 0
1, 99359, Note_on_c, 9, 36, 0
1, 99360, Note_on_c, 9, 47, 110
1, 99479, Note_on_c, 9, 47, 0
1, 99480, Note_on_c, 9, 45, 110
1, 99600, Note_on_c, 9, 43, 110
1, 99719, Note_on_c, 9, 45, 0
1, 99720, Note_on_c, 9, 41, 110
1, 99839, Note_on_c, 9, 43, 0
1, 99839, Note_on_c, 9, 41, 0
1, 99840, Note_on_c, 9, 42, 110
1, 99840, Note_on_c, 9, 49, 110
1, 99840, Note_on_c, 9, 36, 110
1, 99844, Note_on_c, 9, 42, 0
1, 99844, Note_on_c, 9, 49, 0
1, 99960, Note_on_c, 9, 42, 110
1, 99964, Note_on_c, 9, 42, 0
1, 100080, Note_on_c, 9, 42, 110
1, 100084, Note_on_c, 9, 42, 0
1, 100200, Note_on_c, 9, 42, 110
1, 100204, Note_on_c, 9, 42, 0
1, 100319, Note_on_c, 9, 36, 0
1, 100320, Note_on_c, 9, 38, 110
1, 100320, Note_on_c, 9, 42, 110
1, 100324, Note_on_c, 9, 42, 0
1, 100439, Note_on_c, 9, 38, 0
1, 100440, Note_on_c, 9, 42, 110
1, 100444, Note_on_c, 9, 42, 0
1, 100560, Note_on_c, 9, 42, 110
1, 100564, Note_on_c, 9, 42, 0
1, 100680, Note_on_c, 9, 42, 110
1, 100684, Note_on_c, 9, 42, 0
1, 100800, Note_on_c, 9, 42, 110
1, 100800, Note_on_c, 9, 36, 110
1, 100804, Note_on_c, 9, 42, 0
1, 100920, Note_on_c, 9, 42, 110
1, 100924, Note_on_c, 9, 42, 0
1, 101040, Note_on_c, 9, 42, 110
1, 101044, Note_on_c, 9, 42, 0
1, 101160, Note_on_c, 9, 42, 110
1, 101164, Note_on_c, 9, 42, 0
1, 101279, Note_on_c, 9, 36, 0
1, 101280, Note_on_c, 9, 38, 110
1, 101280, Note_on_c, 9, 42, 110
1, 101284, Note_on_c, 9, 42, 0
1, 101399, Note_on_c, 9, 38, 0
1, 101400, Note_on_c, 9, 42, 110
1, 101404, Note_on_c, 9, 42, 0
1, 101520, Note_on_c, 9, 38, 110
1, 101520, Note_on_c, 9, 42, 110
1, 101524, Note_on_c, 9, 42, 0
1, 101639, Note_on_c, 9, 38, 0
1, 101640, Note_on_c, 9, 42, 110
1, 101644, Note_on_c, 9, 42, 0
1, 101760, Note_on_c, 9, 42, 110
1, 101760, Note_on_c, 9, 49, 110
1, 101760, Note_on_c, 9, 36, 110
1, 101764, Note_on_c, 9, 42, 0
1, 101764, Note_on_c, 9, 49, 0
1, 101880, Note_on_c, 9, 42, 110
1, 101884, Note_on_c, 9, 42, 0
1, 102000, Note_on_c, 9, 42, 110
1, 102004, Note_on_c, 9, 42, 0
1, 102120, Note_on_c, 9, 42, 110
1, 102124, Note_on_c, 9, 42, 0
1, 102239, Note_on_c, 9, 36, 0
1, 102240, Note_on_c, 9, 38, 110
1, 102240, Note_on_c, 9, 42, 110
1, 102244, Note_on_c, 9, 42, 0
1, 102359, Note_on_c, 9, 38, 0
1, 102360, Note_on_c, 9, 42, 110
1, 102364, Note_on_c, 9, 42, 0
1, 102480, Note_on_c, 9, 42, 110
1, 102484, Note_on_c, 9, 42, 0
1, 102600, Note_on_c, 9, 42, 110
1, 102604, Note_on_c, 9, 42, 0
1, 102720, Note_on_c, 9, 42, 110
1, 102720, Note_on_c, 9, 36, 110
1, 102724, Note_on_c, 9, 42, 0
1, 102840, Note_on_c, 9, 42, 110
1, 102844, Note_on_c, 9, 42, 0
1, 102960, Note_on_c, 9, 42, 110
1, 102964, Note_on_c, 9, 42, 0
1, 103080, Note_on_c, 9, 42, 110
1, 103084, Note_on_c, 9, 42, 0
1, 103199, Note_on_c, 9, 36, 0
1, 103200, Note_on_c, 9, 38, 110
1, 103200, Note_on_c, 9, 42, 110
1, 103204, Note_on_c, 9, 42, 0
1, 103319, Note_on_c, 9, 38, 0
1, 103320, Note_on_c, 9, 42, 110
1, 103324, Note_on_c, 9, 42, 0
1, 103440, Note_on_c, 9, 38, 110
1, 103440, Note_on_c, 9, 42, 110
1, 103444, Note_on_c, 9, 42, 0
1, 103559, Note_on_c, 9, 38, 0
1, 103560, Note_on_c, 9, 42, 110
1, 103564, Note_on_c, 9, 42, 0
1, 103680, Note_on_c, 9, 42, 110
1, 103680, Note_on_c, 9, 49, 110
1, 103680, Note_on_c, 9, 36, 110
1, 103684, Note_on_c, 9, 42, 0
1, 103684, Note_on_c, 9, 49, 0
1, 103800, Note_on_c, 9, 42, 110
1, 103804, Note_on_c, 9, 42, 0
1, 103920, Note_on_c, 9, 42, 110
1, 103924, Note_on_c, 9, 42, 0
1, 104040, Note_on_c, 9, 42, 110
1, 104044, Note_on_c, 9, 42, 0
1, 104159, Note_on_c, 9, 36, 0
1, 104160, Note_on_c, 9, 38, 110
1, 104160, Note_on_c, 9, 42, 110
1, 104164, Note_on_c, 9, 42, 0
1, 104279, Note_on_c, 9, 38, 0
1, 104280, Note_on_c, 9, 42, 110
1, 104284, Note_on_c, 9, 42, 0
1, 104400, Note_on_c, 9, 42, 110
1, 104404, Note_on_c, 9, 42, 0
1, 104520, Note_on_c, 9, 42, 110
1, 104524, Note_on_c, 9, 42, 0
1, 104640, Note_on_c, 9, 42, 110
1, 104640, Note_on_c, 9, 36, 110
1, 104644, Note_on_c, 9, 42, 0
1, 104760, Note_on_c, 9, 42, 110
1, 104764, Note_on_c, 9, 42, 0
1, 104880, Note_on_c, 9, 42, 110
1, 104884, Note_on_c, 9, 42, 0
1, 105000, Note_on_c, 9, 42, 110
1, 105004, Note_on_c, 9, 42, 0
1, 105119, Note_on_c, 9, 36, 0
1, 105120, Note_on_c, 9, 38, 110
1, 105120, Note_on_c, 9, 42, 110
1, 105124, Note_on_c, 9, 42, 0
1, 105239, Note_on_c, 9, 38, 0
1, 105240, Note_on_c, 9, 42, 110
1, 105244, Note_on_c, 9, 42, 0
1, 105360, Note_on_c, 9, 38, 110
1, 105360, Note_on_c, 9, 42, 110
1, 105364, Note_on_c, 9, 42, 0
1, 105479, Note_on_c, 9, 38, 0
1, 105480, Note_on_c, 9, 42, 110
1, 105484, Note_on_c, 9, 42, 0
1, 105600, Note_on_c, 9, 42, 110
1, 105600, Note_on_c, 9, 49, 110
1, 105600, Note_on_c, 9, 36, 110
1, 105604, Note_on_c, 9, 42, 0
1, 105604, Note_on_c, 9, 49, 0
1, 105720, Note_on_c, 9, 42, 110
1, 105724, Note_on_c, 9, 42, 0
1, 105840, Note_on_c, 9, 42, 110
1, 105844, Note_on_c, 9, 42, 0
1, 105960, Note_on_c, 9, 42, 110
1, 105964, Note_on_c, 9, 42, 0
1, 106079, Note_on_c, 9, 36, 0
1, 106080, Note_on_c, 9, 38, 110
1, 106080, Note_on_c, 9, 42, 110
1, 106084, Note_on_c, 9, 42, 0
1, 106199, Note_on_c, 9, 38, 0
1, 106200, Note_on_c, 9, 42, 110
1, 106204, Note_on_c, 9, 42, 0
1, 106320, Note_on_c, 9, 42, 110
1, 106324, Note_on_c, 9, 42, 0
1, 106440, Note_on_c, 9, 42, 110
1, 106444, Note_on_c, 9, 42, 0
1, 106560, Note_on_c, 9, 38, 110
1, 106679, Note_on_c, 9, 38, 0
1, 106680, Note_on_c, 9, 38, 110
1, 106799, Note_on_c, 9, 38, 0
1, 106800, Note_on_c, 9, 38, 110
1, 107039, Note_on_c, 9, 38, 0
1, 107040, Note_on_c, 9, 47, 110
1, 107159, Note_on_c, 9, 47, 0
1, 107160, Note_on_c, 9, 45, 110
1, 107280, Note_on_c, 9, 43, 110
1, 107399, Note_on_c, 9, 45, 0
1, 107400, Note_on_c, 9, 41, 110
1, 107519, Note_on_c, 9, 43, 0
1, 107519, Note_on_c, 9, 41, 0
1, 107520, Note_on_c, 9, 42, 110
1, 107520, Note_on_c, 9, 49, 110
1, 107520, Note_on_c, 9, 36, 110
1, 107524, Note_on_c, 9, 42, 0
1, 107524, Note_on_c, 9, 49, 0
1, 107640, Note_on_c, 9, 42, 110
1, 107644, Note_on_c, 9, 42, 0
1, 107760, Note_on_c, 9, 42, 110
1, 107764, Note_on_c, 9, 42, 0
1, 107880, Note_on_c, 9, 42, 110
1, 107884, Note_on_c, 9, 42, 0
1, 107999, Note_on_c, 9, 36, 0
1, 108000, Note_on_c, 9, 38, 110
1, 108000, Note_on_c, 9, 42, 110
1, 108004, Note_on_c, 9, 42, 0
1, 108119, Note_on_c, 9, 38, 0
1, 108120, Note_on_c, 9, 42, 110
1, 108124, Note_on_c, 9, 42, 0
1, 108240, Note_on_c, 9, 42, 110
1, 108244, Note_on_c, 9, 42, 0
1, 108360, Note_on_c, 9, 42, 110
1, 108364, Note_on_c, 9, 42, 0
1, 108480, Note_on_c, 9, 42, 110
1, 108480, Note_on_c, 9, 36, 110
1, 108484, Note_on_c, 9, 42, 0
1, 108600, Note_on_c, 9, 42, 110
1, 108604, Note_on_c, 9, 42, 0
1, 108720, Note_on_c, 9, 42, 110
1, 108724, Note_on_c, 9, 42, 0
1, 108840, Note_on_c, 9, 42, 110
1, 108844, Note_on_c, 9, 42, 0
1, 108959, Note_on_c, 9, 36, 0
1, 108960, Note_on_c, 9, 38, 110
1, 108960, Note_on_c, 9, 42, 110
1, 108964, Note_on_c, 9, 42, 0
1, 109079, Note_on_c, 9, 38, 0
1, 109080, Note_on_c, 9, 42, 110
1, 109084, Note_on_c, 9, 42, 0
1, 109200, Note_on_c, 9, 38, 110
1, 109200, Note_on_c, 9, 42, 110
1, 109204, Note_on_c, 9, 42, 0
1, 109319, Note_on_c, 9, 38, 0
1, 109320, Note_on_c, 9, 42, 110
1, 109324, Note_on_c, 9, 42, 0
1, 109440, Note_on_c, 9, 42, 110
1, 109440, Note_on_c, 9, 49, 110
1, 109440, Note_on_c, 9, 36, 110
1, 109444, Note_on_c, 9, 42, 0
1, 109444, Note_on_c, 9, 49, 0
1, 109560, Note_on_c, 9, 42, 110
1, 109564, Note_on_c, 9, 42, 0
1, 109680, Note_on_c, 9, 42, 110
1, 109684, Note_on_c, 9, 42, 0
1, 109800, Note_on_c, 9, 42, 110
1, 109804, Note_on_c, 9, 42, 0
1, 109919, Note_on_c, 9, 36, 0
1, 109920, Note_on_c, 9, 38, 110
1, 109920, Note_on_c, 9, 42, 110
1, 109924, Note_on_c, 9, 42, 0
1, 110039, Note_on_c, 9, 38, 0
1, 110040, Note_on_c, 9, 42, 110
1, 110044, Note_on_c, 9, 42, 0
1, 110160, Note_on_c, 9, 42, 110
1, 110164, Note_on_c, 9, 42, 0
1, 110280, Note_on_c, 9, 42, 110
1, 110284, Note_on_c, 9, 42, 0
1, 110400, Note_on_c, 9, 42, 110
1, 110400, Note_on_c, 9, 36, 110
1, 110404, Note_on_c, 9, 42, 0
1, 110520, Note_on_c, 9, 42, 110
1, 110524, Note_on_c, 9, 42, 0
1, 110640, Note_on_c, 9, 42, 110
1, 110644, Note_on_c, 9, 42, 0
1, 110760, Note_on_c, 9, 42, 110
1, 110764, Note_on_c, 9, 42, 0
1, 110879, Note_on_c, 9, 36, 0
1, 110880, Note_on_c, 9, 38, 110
1, 110880, Note_on_c, 9, 42, 110
1, 110884, Note_on_c, 9, 42, 0
1, 110999, Note_on_c, 9, 38, 0
1, 111000, Note_on_c, 9, 42, 110
1, 111004, Note_on_c, 9, 42, 0
1, 111120, Note_on_c, 9, 38, 110
1, 111120, Note_on_c, 9, 42, 110
1, 111124, Note_on_c, 9, 42, 0
1, 111239, Note_on_c, 9, 38, 0
1, 111240, Note_on_c, 9, 42, 110
1, 111244, Note_on_c, 9, 42, 0
1, 111360, Note_on_c, 9, 42, 110
1, 111360, Note_on_c, 9, 49, 110
1, 111360, Note_on_c, 9, 36, 110
1, 111364, Note_on_c, 9, 42, 0
1, 111364, Note_on_c, 9, 49, 0
1, 111480, Note_on_c, 9, 42, 110
1, 111484, Note_on_c, 9, 42, 0
1, 111600, Note_on_c, 9, 42, 110
1, 111604, Note_on_c, 9, 42, 0
1, 111720, Note_on_c, 9, 42, 110
1, 111724, Note_on_c, 9, 42, 0
1, 111839, Note_on_c, 9, 36, 0
1, 111840, Note_on_c, 9, 38, 110
1, 111840, Note_on_c, 9, 42, 110
1, 111844, Note_on_c, 9, 42, 0
1, 111959, Note_on_c, 9, 38, 0
1, 111960, Note_on_c, 9, 42, 110
1, 111964, Note_on_c, 9, 42, 0
1, 112080, Note_on_c, 9, 42, 110
1, 112084, Note_on_c, 9, 42, 0
1, 112200, Note_on_c, 9, 42, 110
1, 112204, Note_on_c, 9, 42, 0
1, 112320, Note_on_c, 9, 42, 110
1, 112320, Note_on_c, 9, 36, 110
1, 112324, Note_on_c, 9, 42, 0
1, 112440, Note_on_c, 9, 42, 110
1, 112444, Note_on_c, 9, 42, 0
1, 112560, Note_on_c, 9, 42, 110
1, 112564, Note_on_c, 9, 42, 0
1, 112680, Note_on_c, 9, 42, 110
1, 112684, Note_on_c, 9, 42, 0
1, 112799, Note_on_c, 9, 36, 0
1, 112800, Note_on_c, 9, 38, 110
1, 112800, Note_on_c, 9, 42, 110
1, 112804, Note_on_c, 9, 42, 0
1, 112919, Note_on_c, 9, 38, 0
1, 112920, Note_on_c, 9, 42, 110
1, 112924, Note_on_c, 9, 42, 0
1, 113040, Note_on_c, 9, 38, 110
1, 113040, Note_on_c, 9, 42, 110
1, 113044, Note_on_c, 9, 42, 0
1, 113159, Note_on_c, 9, 38, 0
1, 113160, Note_on_c, 9, 42, 110
1, 113164, Note_on_c, 9, 42, 0
1, 113280, Note_on_c, 9, 42, 110
1, 113280, Note_on_c, 9, 49, 110
1, 113280, Note_on_c, 9, 36, 110
1, 113284, Note_on_c, 9, 42, 0
1, 113284, Note_on_c, 9, 49, 0
1, 113400, Note_on_c, 9, 42, 110
1, 113404, Note_on_c, 9, 42, 0
1, 113520, Note_on_c, 9, 42, 110
1, 113524, Note_on_c, 9, 42, 0
1, 113640, Note_on_c, 9, 42, 110
1, 113644, Note_on_c, 9, 42, 0
1, 113759, Note_on_c, 9, 36, 0
1, 113760, Note_on_c, 9, 38, 110
1, 113760, Note_on_c, 9, 42, 110
1, 113764, Note_on_c, 9, 42, 0
1, 113879, Note_on_c, 9, 38, 0
1, 113880, Note_on_c, 9, 42, 110
1, 113884, Note_on_c, 9, 42, 0
1, 114000, Note_on_c, 9, 42, 110
1, 114004, Note_on_c, 9, 42, 0
1, 114120, Note_on_c, 9, 42, 110
1, 114124, Note_on_c, 9, 42, 0
1, 114240, Note_on_c, 9, 38, 110
1, 114359, Note_on_c, 9, 38, 0
1, 114360, Note_on_c, 9, 38, 110
1, 114479, Note_on_c, 9, 38, 0
1, 114480, Note_on_c, 9, 38, 110
1, 114719, Note_on_c, 9, 38, 0
1, 114720, Note_on_c, 9, 47, 110
1, 114839, Note_on_c, 9, 47, 0
1, 114840, Note_on_c, 9, 45, 110
1, 114960, Note_on_c, 9, 43, 110
1, 115079, Note_on_c, 9, 45, 0
1, 115080, Note_on_c, 9, 41, 110
1, 115199, Note_on_c, 9, 43, 0
1, 115199, Note_on_c, 9, 41, 0
1, 115200, Note_on_c, 9, 49, 110
1, 115200, Note_on_c, 9, 36, 110
1, 115222, Note_on_c, 9, 49, 0
1, 115679, Note_on_c, 9, 36, 0
1, 115800, Note_on_c, 9, 38, 110
1, 115919, Note_on_c, 9, 38, 0
1, 115920, Note_on_c, 9, 38, 110
1, 116039, Note_on_c, 9, 38, 0
1, 116040, Note_on_c, 9, 38, 110
1, 116159, Note_on_c, 9, 38, 0
1, 116160, Note_on_c, 9, 49, 110
1, 116160, Note_on_c, 9, 36, 110
1, 116182, Note_on_c, 9, 49, 0
1, 116639, Note_on_c, 9, 36, 0
1, 116760, Note_on_c, 9, 38, 110
1, 116879, Note_on_c, 9, 38, 0
1, 116880, Note_on_c, 9, 38, 110
1, 116999, Note_on_c, 9, 38, 0
1, 117000, Note_on_c, 9, 38, 110
1, 117119, Note_on_c, 9, 38, 0
1, 117120, Note_on_c, 9, 49, 110
1, 117120, Note_on_c, 9, 36, 110
1, 117130, Note_on_c, 9, 49, 0
1, 117360, Note_on_c, 9, 38, 110
1, 117479, Note_on_c, 9, 38, 0
1, 117480, Note_on_c, 9, 38, 110
1, 117599, Note_on_c, 9, 36, 0
1, 117599, Note_on_c, 9, 38, 0
1, 117600, Note_on_c, 9, 49, 110
1, 117600, Note_on_c, 9, 36, 110
1, 117610, Note_on_c, 9, 49, 0
1, 117840, Note_on_c, 9, 38, 110
1, 117959, Note_on_c, 9, 38, 0
1, 117960, Note_on_c, 9, 38, 110
1, 118079, Note_on_c, 9, 36, 0
1, 118079, Note_on_c, 9, 38, 0
1, 118080, Note_on_c, 9, 49, 110
1, 118080, Note_on_c, 9, 36, 110
1, 118090, Note_on_c, 9, 49, 0
1, 118320, Note_on_c, 9, 38, 110
1, 118439, Note_on_c, 9, 38, 0
1, 118440, Note_on_c, 9, 38, 110
1, 118559, Note_on_c, 9, 36, 0
1, 118559, Note_on_c, 9, 38, 0
1, 118560, Note_on_c, 9, 47, 110
1, 118679, Note_on_c, 9, 47, 0
1, 118680, Note_on_c, 9, 45, 110
1, 118800, Note_on_c, 9, 43, 110
1, 118919, Note_on_c, 9, 45, 0
1, 118920, Note_on_c, 9, 41, 110
1, 119039, Note_on_c, 9, 43, 0
1, 119039, Note_on_c, 9, 41, 0
1, 119040, Note_on_c, 9, 49, 110
1, 119040, Note_on_c, 9, 36, 110
1, 119062, Note_on_c, 9, 49, 0
1, 119519, Note_on_c, 9, 36, 0
1, 119640, Note_on_c, 9, 38, 110
1, 119759, Note_on_c, 9, 38, 0
1, 119760, Note_on_c, 9, 38, 110
1, 119879, Note_on_c, 9, 38, 0
1, 119880, Note_on_c, 9, 38, 110
1, 119999, Note_on_c, 9, 38, 0
1, 120000, Note_on_c, 9, 49, 110
1, 120000, Note_on_c, 9, 36, 110
1, 120022, Note_on_c, 9, 49, 0
1, 120479, Note_on_c, 9, 36, 0
1, 120600, Note_on_c, 9, 38, 110
1, 120719, Note_on_c, 9, 38, 0
1, 120720, Note_on_c, 9, 38, 110
1, 120839, Note_on_c, 9, 38, 0
1, 120840, Note_on_c, 9, 38, 110
1, 120959, Note_on_c, 9, 38, 0
1, 120960, Note_on_c, 9, 49, 110
1, 120960, Note_on_c, 9, 36, 110
1, 120970, Note_on_c, 9, 49, 0
1, 121200, Note_on_c, 9, 38, 110
1, 121319, Note_on_c, 9, 38, 0
1, 121320, Note_on_c, 9, 38, 110
1, 121439, Note_on_c, 9, 36, 0
1, 121439, Note_on_c, 9, 38, 0
1, 121440, Note_on_c, 9, 49, 110
1, 121440, Note_on_c, 9, 36, 110
1, 121450, Note_on_c, 9, 49, 0
1, 121680, Note_on_c, 9, 38, 110
1, 121799, Note_on_c, 9, 38, 0
1, 121800, Note_on_c, 9, 38, 110
1, 121919, Note_on_c, 9, 36, 0
1, 121919, Note_on_c, 9, 38, 0
1, 121920, Note_on_c, 9, 49, 110
1, 121920, Note_on_c, 9, 36, 110
1, 121930, Note_on_c, 9, 49, 0
1, 122160, Note_on_c, 9, 38, 110
1, 122279, Note_on_c, 9, 38, 0
1, 122280, Note_on_c, 9, 38, 110
1, 122399, Note_on_c, 9, 36, 0
1, 122399, Note_on_c, 9, 38, 0
1, 122400, Note_on_c, 9, 47, 110
1, 122519, Note_on_c, 9, 47, 0
1, 122520, Note_on_c, 9, 45, 110
1, 122640, Note_on_c, 9, 43, 110
1, 122759, Note_on_c, 9, 45, 0
1, 122760, Note_on_c, 9, 41, 110
1, 122879, Note_on_c, 9, 43, 0
1, 122879, Note_on_c, 9, 41, 0
1, 122880, Note_on_c, 9, 49, 110
1, 122880, Note_on_c, 9, 36, 110
1, 122902, Note_on_c, 9, 49, 0
1, 123359, Note_on_c, 9, 36, 0
1, 123480, Note_on_c, 9, 38, 110
1, 123599, Note_on_c, 9, 38, 0
1, 123600, Note_on_c, 9, 38, 110
1, 123719, Note_on_c, 9, 38, 0
1, 123720, Note_on_c, 9, 38, 110
1, 123839, Note_on_c, 9, 38, 0
1, 123840, Note_on_c, 9, 49, 110
1, 123840, Note_on_c, 9, 36, 110
1, 123862, Note_on_c, 9, 49, 0
1, 124319, Note_on_c, 9, 36, 0
1, 124440, Note_on_c, 9, 38, 110
1, 124559, Note_on_c, 9, 38, 0
1, 124560, Note_on_c, 9, 38, 110
1, 124679, Note_on_c, 9, 38, 0
1, 124680, Note_on_c, 9, 38, 110
1, 124799, Note_on_c, 9, 38, 0
1, 124800, Note_on_c, 9, 49, 110
1, 124800, Note_on_c, 9, 36, 110
1, 124810, Note_on_c, 9, 49, 0
1, 125040, Note_on_c, 9, 38, 110
1, 125159, Note_on_c, 9, 38, 0
1, 125160, Note_on_c, 9, 38, 110
1, 125279, Note_on_c, 9, 36, 0
1, 125279, Note_on_c, 9, 38, 0
1, 125280, Note_on_c, 9, 49, 110
1, 125280, Note_on_c, 9, 36, 110
1, 125290, Note_on_c, 9, 49, 0
1, 125520, Note_on_c, 9, 38, 110
1, 125639, Note_on_c, 9, 38, 0
1, 125640, Note_on_c, 9, 38, 110
1, 125759, Note_on_c, 9, 36, 0
1, 125759, Note_on_c, 9, 38, 0
1, 125760, Note_on_c, 9, 49, 110
1, 125760, Note_on_c, 9, 36, 110
1, 125770, Note_on_c, 9, 49, 0
1, 126000, Note_on_c, 9, 38, 110
1, 126119, Note_on_c, 9, 38, 0
1, 126120, Note_on_c, 9, 38, 110
1, 126239, Note_on_c, 9, 36, 0
1, 126239, Note_on_c, 9, 38, 0
1, 126240, Note_on_c, 9, 47, 110
1, 126359, Note_on_c, 9, 47, 0
1, 126360, Note_on_c, 9, 45, 110
1, 126480, Note_on_c, 9, 43, 110
1, 126599, Note_on_c, 9, 45, 0
1, 126600, Note_on_c, 9, 41, 110
1, 126719, Note_on_c, 9, 43, 0
1, 126719, Note_on_c, 9, 41, 0
1, 126720, Note_on_c, 9, 49, 110
1, 126720, Note_on_c, 9, 36, 110
1, 126742, Note_on_c, 9, 49, 0
1, 127199, Note_on_c, 9, 36, 0
1, 127320, Note_on_c, 9, 38, 110
1, 127439, Note_on_c, 9, 38, 0
1, 127440, Note_on_c, 9, 38, 110
1, 127559, Note_on_c, 9, 38, 0
1, 127560, Note_on_c, 9, 38, 110
1, 127679, Note_on_c, 9, 38, 0
1, 127680, Note_on_c, 9, 49, 110
1, 127680, Note_on_c, 9, 36, 110
1, 127702, Note_on_c, 9, 49, 0
1, 128159, Note_on_c, 9, 36, 0
1, 128280, Note_on_c, 9, 38, 110
1, 128399, Note_on_c, 9, 38, 0
1, 128400, Note_on_c, 9, 38, 110
1, 128519, Note_on_c, 9, 38, 0
1, 128520, Note_on_c, 9, 38, 110
1, 128639, Note_on_c, 9, 38, 0
1, 128640, Note_on_c, 9, 49, 110
1, 128640, Note_on_c, 9, 36, 110
1, 128650, Note_on_c, 9, 49, 0
1, 128880, Note_on_c, 9, 38, 110
1, 128999, Note_on_c, 9, 38, 0
1, 129000, Note_on_c, 9, 38, 110
1, 129119, Note_on_c, 9, 36, 0
1, 129119, Note_on_c, 9, 38, 0
1, 129120, Note_on_c, 9, 49, 110
1, 129120, Note_on_c, 9, 36, 110
1, 129130, Note_on_c, 9, 49, 0
1, 129360, Note_on_c, 9, 38, 110
1, 129479, Note_on_c, 9, 38, 0
1, 129480, Note_on_c, 9, 38, 110
1, 129599, Note_on_c, 9, 36, 0
1, 129599, Note_on_c, 9, 38, 0
1, 129600, Note_on_c, 9, 49, 110
1, 129600, Note_on_c, 9, 36, 110
1, 129610, Note_on_c, 9, 49, 0
1, 129840, Note_on_c, 9, 38, 110
1, 129959, Note_on_c, 9, 38, 0
1, 129960, Note_on_c, 9, 38, 110
1, 130079, Note_on_c, 9, 36, 0
1, 130079, Note_on_c, 9, 38, 0
1, 130080, Note_on_c, 9, 47, 110
1, 130199, Note_on_c, 9, 47, 0
1, 130200, Note_on_c, 9, 45, 110
1, 130320, Note_on_c, 9, 43, 110
1, 130439, Note_on_c, 9, 45, 0
1, 130440, Note_on_c, 9, 41, 110
1, 130559, Note_on_c, 9, 43, 0
1, 130559, Note_on_c, 9, 41, 0
1, 130560, Note_on_c, 9, 42, 110
1, 130560, Note_on_c, 9, 49, 110
1, 130560, Note_on_c, 9, 36, 110
1, 130564, Note_on_c, 9, 42, 0
1, 130564, Note_on_c, 9, 49, 0
1, 130680, Note_on_c, 9, 42, 110
1, 130684, Note_on_c, 9, 42, 0
1, 130800, Note_on_c, 9, 42, 110
1, 130804, Note_on_c, 9, 42, 0
1, 130920, Note_on_c, 9, 42, 110
1, 130924, Note_on_c, 9, 42, 0
1, 131039, Note_on_c, 9, 36, 0
1, 131040, Note_on_c, 9, 38, 110
1, 131040, Note_on_c, 9, 42, 110
1, 131044, Note_on_c, 9, 42, 0
1, 131159, Note_on_c, 9, 38, 0
1, 131160, Note_on_c, 9, 42, 110
1, 131164, Note_on_c, 9, 42, 0
1, 131280, Note_on_c, 9, 42, 110
1, 131284, Note_on_c, 9, 42, 0
1, 131400, Note_on_c, 9, 42, 110
1, 131404, Note_on_c, 9, 42, 0
1, 131520, Note_on_c, 9, 42, 110
1, 131520, Note_on_c, 9, 36, 110
1, 131524, Note_on_c, 9, 42, 0
1, 131640, Note_on_c, 9, 42, 110
1, 131644, Note_on_c, 9, 42, 0
1, 131760, Note_on_c, 9, 42, 110
1, 131764, Note_on_c, 9, 42, 0
1, 131880, Note_on_c, 9, 42, 110
1, 131884, Note_on_c, 9, 42, 0
1, 131999, Note_on_c, 9, 36, 0
1, 132000, Note_on_c, 9, 38, 110
1, 132000, Note_on_c, 9, 42, 110
1, 132004, Note_on_c, 9, 42, 0
1, 132119, Note_on_c, 9, 38, 0
1, 132120, Note_on_c, 9, 42, 110
1, 132124, Note_on_c, 9, 42, 0
1, 132240, Note_on_c, 9, 42, 110
1, 132244, Note_on_c, 9, 42, 0
1, 132360, Note_on_c, 9, 42, 110
1, 132364, Note_on_c, 9, 42, 0
1, 132480, Note_on_c, 9, 42, 110
1, 132480, Note_on_c, 9, 36, 110
1, 132484, Note_on_c, 9, 42, 0
1, 132600, Note_on_c, 9, 42, 110
1, 132604, Note_on_c, 9, 42, 0
1, 132720, Note_on_c, 9, 42, 110
1, 132724, Note_on_c, 9, 42, 0
1, 132840, Note_on_c, 9, 42, 110
1, 132844, Note_on_c, 9, 42, 0
1, 132959, Note_on_c, 9, 36, 0
1, 132960, Note_on_c, 9, 38, 110
1, 132960, Note_on_c, 9, 42, 110
1, 132964, Note_on_c, 9, 42, 0
1, 133079, Note_on_c, 9, 38, 0
1, 133080, Note_on_c, 9, 42, 110
1, 133084, Note_on_c, 9, 42, 0
1, 133200, Note_on_c, 9, 42, 110
1, 133204, Note_on_c, 9, 42, 0
1, 133320, Note_on_c, 9, 42, 110
1, 133324, Note_on_c, 9, 42, 0
1, 133440, Note_on_c, 9, 42, 110
1, 133440, Note_on_c, 9, 36, 110
1, 133444, Note_on_c, 9, 42, 0
1, 133560, Note_on_c, 9, 42, 110
1, 133564, Note_on_c, 9, 42, 0
1, 133680, Note_on_c, 9, 42, 110
1, 133684, Note_on_c, 9, 42, 0
1, 133800, Note_on_c, 9, 42, 110
1, 133804, Note_on_c, 9, 42, 0
1, 133919, Note_on_c, 9, 36, 0
1, 133920, Note_on_c, 9, 38, 110
1, 133920, Note_on_c, 9, 46, 110
1, 133924, Note_on_c, 9, 46, 0
1, 134039, Note_on_c, 9, 38, 0
1, 134040, Note_on_c, 9, 42, 110
1, 134044, Note_on_c, 9, 42, 0
1, 134160, Note_on_c, 9, 46, 110
1, 134164, Note_on_c, 9, 46, 0
1, 134280, Note_on_c, 9, 42, 110
1, 134284, Note_on_c, 9, 42, 0
1, 134400, Note_on_c, 9, 42, 110
1, 134400, Note_on_c, 9, 49, 110
1, 134400, Note_on_c, 9, 36, 110
1, 134404, Note_on_c, 9, 42, 0
1, 134404, Note_on_c, 9, 49, 0
1, 134520, Note_on_c, 9, 42, 110
1, 134524, Note_on_c, 9, 42, 0
1, 134640, Note_on_c, 9, 42, 110
1, 134644, Note_on_c, 9, 42, 0
1, 134760, Note_on_c, 9, 42, 110
1, 134764, Note_on_c, 9, 42, 0
1, 134879, Note_on_c, 9, 36, 0
1, 134880, Note_on_c, 9, 38, 110
1, 134880, Note_on_c, 9, 42, 110
1, 134884, Note_on_c, 9, 42, 0
1, 134999, Note_on_c, 9, 38, 0
1, 135000, Note_on_c, 9, 42, 110
1, 135004, Note_on_c, 9, 42, 0
1, 135120, Note_on_c, 9, 42, 110
1, 135124, Note_on_c, 9, 42, 0
1, 135240, Note_on_c, 9, 42, 110
1, 135244, Note_on_c, 9, 42, 0
1, 135360, Note_on_c, 9, 42, 110
1, 135360, Note_on_c, 9, 36, 110
1, 135364, Note_on_c, 9, 42, 0
1, 135480, Note_on_c, 9, 42, 110
1, 135484, Note_on_c, 9, 42, 0
1, 135600, Note_on_c, 9, 42, 110
1, 135604, Note_on_c, 9, 42, 0
1, 135720, Note_on_c, 9, 42, 110
1, 135724, Note_on_c, 9, 42, 0
1, 135839, Note_on_c, 9, 36, 0
1, 135840, Note_on_c, 9, 38, 110
1, 135840, Note_on_c, 9, 42, 110
1, 135844, Note_on_c, 9, 42, 0
1, 135959, Note_on_c, 9, 38, 0
1, 135960, Note_on_c, 9, 42, 110
1, 135964, Note_on_c, 9, 42, 0
1, 136080, Note_on_c, 9, 42, 110
1, 136084, Note_on_c, 9, 42, 0
1, 136200, Note_on_c, 9, 42, 110
1, 136204, Note_on_c, 9, 42, 0
1, 136320, Note_on_c, 9, 42, 110
1, 136320, Note_on_c, 9, 36, 110
1, 136324, Note_on_c, 9, 42, 0
1, 136440, Note_on_c, 9, 42, 110
1, 136444, Note_on_c, 9, 42, 0
1, 136560, Note_on_c, 9, 42, 110
1, 136564, Note_on_c, 9, 42, 0
1, 136680, Note_on_c, 9, 42, 110
1, 136684, Note_on_c, 9, 42, 0
1, 136799, Note_on_c, 9, 36, 0
1, 136800, Note_on_c, 9, 38, 110
1, 136800, Note_on_c, 9, 42, 110
1, 136804, Note_on_c, 9, 42, 0
1, 136919, Note_on_c, 9, 38, 0
1, 136920, Note_on_c, 9, 42, 110
1, 136924, Note_on_c, 9, 42, 0
1, 137040, Note_on_c, 9, 42, 110
1, 137044, Note_on_c, 9, 42, 0
1, 137160, Note_on_c, 9, 42, 110
1, 137164, Note_on_c, 9, 42, 0
1, 137280, Note_on_c, 9, 42, 110
1, 137280, Note_on_c, 9, 36, 110
1, 137284, Note_on_c, 9, 42, 0
1, 137400, Note_on_c, 9, 42, 110
1, 137404, Note_on_c, 9, 42, 0
1, 137520, Note_on_c, 9, 42, 110
1, 137524, Note_on_c, 9, 42, 0
1, 137640, Note_on_c, 9, 42, 110
1, 137644, Note_on_c, 9, 42, 0
1, 137759, Note_on_c, 9, 36, 0
1, 137760, Note_on_c, 9, 38, 110
1, 137760, Note_on_c, 9, 46, 110
1, 137764, Note_on_c, 9, 46, 0
1, 137879, Note_on_c, 9, 38, 0
1, 137880, Note_on_c, 9, 42, 110
1, 137884, Note_on_c, 9, 42, 0
1, 138000, Note_on_c, 9, 46, 110
1, 138004, Note_on_c, 9, 46, 0
1, 138120, Note_on_c, 9, 42, 110
1, 138124, Note_on_c, 9, 42, 0
1, 138240, Note_on_c, 9, 42, 110
1, 138240, Note_on_c, 9, 49, 110
1, 138240, Note_on_c, 9, 36, 110
1, 138244, Note_on_c, 9, 42, 0
1, 138244, Note_on_c, 9, 49, 0
1, 138360, Note_on_c, 9, 42, 110
1, 138364, Note_on_c, 9, 42, 0
1, 138480, Note_on_c, 9, 42, 110
1, 138484, Note_on_c, 9, 42, 0
1, 138600, Note_on_c, 9, 42, 110
1, 138604, Note_on_c, 9, 42, 0
1, 138719, Note_on_c, 9, 36, 0
1, 138720, Note_on_c, 9, 38, 110
1, 138720, Note_on_c, 9, 42, 110
1, 138724, Note_on_c, 9, 42, 0
1, 138839, Note_on_c, 9, 38, 0
1, 138840, Note_on_c, 9, 42, 110
1, 138844, Note_on_c, 9, 42, 0
1, 138960, Note_on_c, 9, 42, 110
1, 138964, Note_on_c, 9, 42, 0
1, 139080, Note_on_c, 9, 42, 110
1, 139084, Note_on_c, 9, 42, 0
1, 139200, Note_on_c, 9, 42, 110
1, 139200, Note_on_c, 9, 36, 110
1, 139204, Note_on_c, 9, 42, 0
1, 139320, Note_on_c, 9, 42, 110
1, 139324, Note_on_c, 9, 42, 0
1, 139440, Note_on_c, 9, 42, 110
1, 139444, Note_on_c, 9, 42, 0
1, 139560, Note_on_c, 9, 42, 110
1, 139564, Note_on_c, 9, 42, 0
1, 139679, Note_on_c, 9, 36, 0
1, 139680, Note_on_c, 9, 38, 110
1, 139680, Note_on_c, 9, 42, 110
1, 139684, Note_on_c, 9, 42, 0
1, 139799, Note_on_c, 9, 38, 0
1, 139800, Note_on_c, 9, 42, 110
1, 139804, Note_on_c, 9, 42, 0
1, 139920, Note_on_c, 9, 42, 110
1, 139924, Note_on_c, 9, 42, 0
1, 140040, Note_on_c, 9, 42, 110
1, 140044, Note_on_c, 9, 42, 0
1, 140160, Note_on_c, 9, 42, 110
1, 140160, Note_on_c, 9, 36, 110
1, 140164, Note_on_c, 9, 42, 0
1, 140280, Note_on_c, 9, 42, 110
1, 140284, Note_on_c, 9, 42, 0
1, 140400, Note_on_c, 9, 42, 110
1, 140404, Note_on_c, 9, 42, 0
1, 140520, Note_on_c, 9, 42, 110
1, 140524, Note_on_c, 9, 42, 0
1, 140639, Note_on_c, 9, 36, 0
1, 140640, Note_on_c, 9, 38, 110
1, 140640, Note_on_c, 9, 42, 110
1, 140644, Note_on_c, 9, 42, 0
1, 140759, Note_on_c, 9, 38, 0
1, 140760, Note_on_c, 9, 42, 110
1, 140764, Note_on_c, 9, 42, 0
1, 140880, Note_on_c, 9, 42, 110
1, 140884, Note_on_c, 9, 42, 0
1, 141000, Note_on_c, 9, 42, 110
1, 141004, Note_on_c, 9, 42, 0
1, 141120, Note_on_c, 9, 42, 110
1, 141120, Note_on_c, 9, 36, 110
1, 141124, Note_on_c, 9, 42, 0
1, 141240, Note_on_c, 9, 42, 110
1, 141244, Note_on_c, 9, 42, 0
1, 141360, Note_on_c, 9, 42, 110
1, 141364, Note_on_c, 9, 42, 0
1, 141480, Note_on_c, 9, 42, 110
1, 141484, Note_on_c, 9, 42, 0
1, 141599, Note_on_c, 9, 36, 0
1, 141600, Note_on_c, 9, 38, 110
1, 141600, Note_on_c, 9, 46, 110
1, 141604, Note_on_c, 9, 46, 0
1, 141719, Note_on_c, 9, 38, 0
1, 141720, Note_on_c, 9, 42, 110
1, 141724, Note_on_c, 9, 42, 0
1, 141840, Note_on_c, 9, 46, 110
1, 141844, Note_on_c, 9, 46, 0
1, 141960, Note_on_c, 9, 42, 110
1, 141964, Note_on_c, 9, 42, 0
1, 142080, Note_on_c, 9, 42, 110
1, 142080, Note_on_c, 9, 49, 110
1, 142080, Note_on_c, 9, 36, 110
1, 142084, Note_on_c, 9, 42, 0
1, 142084, Note_on_c, 9, 49, 0
1, 142200, Note_on_c, 9, 42, 110
1, 142204, Note_on_c, 9, 42, 0
1, 142320, Note_on_c, 9, 42, 110
1, 142324, Note_on_c, 9, 42, 0
1, 142440, Note_on_c, 9, 42, 110
1, 142444, Note_on_c, 9, 42, 0
1, 142559, Note_on_c, 9, 36, 0
1, 142560, Note_on_c, 9, 38, 110
1, 142560, Note_on_c, 9, 42, 110
1, 142564, Note_on_c, 9, 42, 0
1, 142679, Note_on_c, 9, 38, 0
1, 142680, Note_on_c, 9, 42, 110
1, 142684, Note_on_c, 9, 42, 0
1, 142800, Note_on_c, 9, 42, 110
1, 142804, Note_on_c, 9, 42, 0
1, 142920, Note_on_c, 9, 42, 110
1, 142924, Note_on_c, 9, 42, 0
1, 143040, Note_on_c, 9, 42, 110
1, 143040, Note_on_c, 9, 36, 110
1, 143044, Note_on_c, 9, 42, 0
1, 143160, Note_on_c, 9, 42, 110
1, 143164, Note_on_c, 9, 42, 0
1, 143280, Note_on_c, 9, 42, 110
1, 143284, Note_on_c, 9, 42, 0
1, 143400, Note_on_c, 9, 42, 110
1, 143404, Note_on_c, 9, 42, 0
1, 143519, Note_on_c, 9, 36, 0
1, 143520, Note_on_c, 9, 38, 110
1, 143520, Note_on_c, 9, 42, 110
1, 143524, Note_on_c, 9, 42, 0
1, 143639, Note_on_c, 9, 38, 0
1, 143640, Note_on_c, 9, 42, 110
1, 143644, Note_on_c, 9, 42, 0
1, 143760, Note_on_c, 9, 42, 110
1, 143764, Note_on_c, 9, 42, 0
1, 143880, Note_on_c, 9, 42, 110
1, 143884, Note_on_c, 9, 42, 0
1, 144000, Note_on_c, 9, 42, 110
1, 144000, Note_on_c, 9, 36, 110
1, 144004, Note_on_c, 9, 42, 0
1, 144120, Note_on_c, 9, 42, 110
1, 144124, Note_on_c, 9, 42, 0
1, 144240, Note_on_c, 9, 42, 110
1, 144244, Note_on_c, 9, 42, 0
1, 144360, Note_on_c, 9, 42, 110
1, 144364, Note_on_c, 9, 42, 0
1, 144479, Note_on_c, 9, 36, 0
1, 144480, Note_on_c, 9, 38, 110
1, 144480, Note_on_c, 9, 42, 110
1, 144484, Note_on_c, 9, 42, 0
1, 144599, Note_on_c, 9, 38, 0
1, 144600, Note_on_c, 9, 42, 110
1, 144604, Note_on_c, 9, 42, 0
1, 144720, Note_on_c, 9, 42, 110
1, 144724, Note_on_c, 9, 42, 0
1, 144840, Note_on_c, 9, 42, 110
1, 144844, Note_on_c, 9, 42, 0
1, 144960, Note_on_c, 9, 42, 110
1, 144960, Note_on_c, 9, 36, 110
1, 144964, Note_on_c, 9, 42, 0
1, 145080, Note_on_c, 9, 42, 110
1, 145084, Note_on_c, 9, 42, 0
1, 145200, Note_on_c, 9, 42, 110
1, 145204, Note_on_c, 9, 42, 0
1, 145320, Note_on_c, 9, 42, 110
1, 145324, Note_on_c, 9, 42, 0
1, 145439, Note_on_c, 9, 36, 0
1, 145440, Note_on_c, 9, 38, 110
1, 145440, Note_on_c, 9, 46, 110
1, 145444, Note_on_c, 9, 46, 0
1, 145559, Note_on_c, 9, 38, 0
1, 145560, Note_on_c, 9, 42, 110
1, 145564, Note_on_c, 9, 42, 0
1, 145680, Note_on_c, 9, 46, 110
1, 145684, Note_on_c, 9, 46, 0
1, 145800, Note_on_c, 9, 42, 110
1, 145804, Note_on_c, 9, 42, 0
1, 145920, Note_on_c, 9, 42, 110
1, 145920, Note_on_c, 9, 49, 110
1, 145920, Note_on_c, 9, 36, 110
1, 145924, Note_on_c, 9, 42, 0
1, 145924, Note_on_c, 9, 49, 0
1, 146040, Note_on_c, 9, 42, 110
1, 146044, Note_on_c, 9, 42, 0
1, 146160, Note_on_c, 9, 42, 110
1, 146164, Note_on_c, 9, 42, 0
1, 146280, Note_on_c, 9, 42, 110
1, 146284, Note_on_c, 9, 42, 0
1, 146399, Note_on_c, 9, 36, 0
1, 146400, Note_on_c, 9, 38, 110
1, 146400, Note_on_c, 9, 42, 110
1, 146404, Note_on_c, 9, 42, 0
1, 146519, Note_on_c, 9, 38, 0
1, 146520, Note_on_c, 9, 42, 110
1, 146524, Note_on_c, 9, 42, 0
1, 146640, Note_on_c, 9, 42, 110
1, 146644, Note_on_c, 9, 42, 0
1, 146760, Note_on_c, 9, 42, 110
1, 146764, Note_on_c, 9, 42, 0
1, 146880, Note_on_c, 9, 42, 110
1, 146880, Note_on_c, 9, 36, 110
1, 146884, Note_on_c, 9, 42, 0
1, 147000, Note_on_c, 9, 42, 110
1, 147004, Note_on_c, 9, 42, 0
1, 147120, Note_on_c, 9, 42, 110
1, 147124, Note_on_c, 9, 42, 0
1, 147240, Note_on_c, 9, 42, 110
1, 147244, Note_on_c, 9, 42, 0
1, 147359, Note_on_c, 9, 36, 0
1, 147360, Note_on_c, 9, 38, 110
1, 147360, Note_on_c, 9, 46, 110
1, 147364, Note_on_c, 9, 46, 0
1, 147479, Note_on_c, 9, 38, 0
1, 147480, Note_on_c, 9, 42, 110
1, 147484, Note_on_c, 9, 42, 0
1, 147600, Note_on_c, 9, 38, 110
1, 147600, Note_on_c, 9, 46, 110
1, 147604, Note_on_c, 9, 46, 0
1, 147719, Note_on_c, 9, 38, 0
1, 147720, Note_on_c, 9, 42, 110
1, 147724, Note_on_c, 9, 42, 0
1, 147840, Note_on_c, 9, 42, 110
1, 147840, Note_on_c, 9, 49, 110
1, 147840, Note_on_c, 9, 36, 110
1, 147844, Note_on_c, 9, 42, 0
1, 147844, Note_on_c, 9, 49, 0
1, 147960, Note_on_c, 9, 42, 110
1, 147964, Note_on_c, 9, 42, 0
1, 148080, Note_on_c, 9, 42, 110
1, 148084, Note_on_c, 9, 42, 0
1, 148200, Note_on_c, 9, 42, 110
1, 148204, Note_on_c, 9, 42, 0
1, 148319, Note_on_c, 9, 36, 0
1, 148320, Note_on_c, 9, 38, 110
1, 148320, Note_on_c, 9, 42, 110
1, 148324, Note_on_c, 9, 42, 0
1, 148439, Note_on_c, 9, 38, 0
1, 148440, Note_on_c, 9, 42, 110
1, 148444, Note_on_c, 9, 42, 0
1, 148560, Note_on_c, 9, 42, 110
1, 148564, Note_on_c, 9, 42, 0
1, 148680, Note_on_c, 9, 42, 110
1, 148684, Note_on_c, 9, 42, 0
1, 148800, Note_on_c, 9, 42, 110
1, 148800, Note_on_c, 9, 36, 110
1, 148804, Note_on_c, 9, 42, 0
1, 148920, Note_on_c, 9, 42, 110
1, 148924, Note_on_c, 9, 42, 0
1, 149040, Note_on_c, 9, 42, 110
1, 149044, Note_on_c, 9, 42, 0
1, 149160, Note_on_c, 9, 42, 110
1, 149164, Note_on_c, 9, 42, 0
1, 149279, Note_on_c, 9, 36, 0
1, 149280, Note_on_c, 9, 38, 110
1, 149280, Note_on_c, 9, 46, 110
1, 149284, Note_on_c, 9, 46, 0
1, 149399, Note_on_c, 9, 38, 0
1, 149400, Note_on_c, 9, 42, 110
1, 149404, Note_on_c, 9, 42, 0
1, 149520, Note_on_c, 9, 38, 110
1, 149520, Note_on_c, 9, 46, 110
1, 149524, Note_on_c, 9, 46, 0
1, 149639, Note_on_c, 9, 38, 0
1, 149640, Note_on_c, 9, 42, 110
1, 149644, Note_on_c, 9, 42, 0
1, 149760, Note_on_c, 9, 42, 110
1, 149760, Note_on_c, 9, 49, 110
1, 149760, Note_on_c, 9, 36, 110
1, 149764, Note_on_c, 9, 42, 0
1, 149764, Note_on_c, 9, 49, 0
1, 149880, Note_on_c, 9, 42, 110
1, 149884, Note_on_c, 9, 42, 0
1, 150000, Note_on_c, 9, 42, 110
1, 150004, Note_on_c, 9, 42, 0
1, 150120, Note_on_c, 9, 42, 110
1, 150124, Note_on_c, 9, 42, 0
1, 150239, Note_on_c, 9, 36, 0
1, 150240, Note_on_c, 9, 38, 110
1, 150240, Note_on_c, 9, 42, 110
1, 150244, Note_on_c, 9, 42, 0
1, 150359, Note_on_c, 9, 38, 0
1, 150360, Note_on_c, 9, 42, 110
1, 150364, Note_on_c, 9, 42, 0
1, 150480, Note_on_c, 9, 42, 110
1, 150484, Note_on_c, 9, 42, 0
1, 150600, Note_on_c, 9, 42, 110
1, 150604, Note_on_c, 9, 42, 0
1, 150720, Note_on_c, 9, 42, 110
1, 150720, Note_on_c, 9, 36, 110
1, 150724, Note_on_c, 9, 42, 0
1, 150840, Note_on_c, 9, 42, 110
1, 150844, Note_on_c, 9, 42, 0
1, 150960, Note_on_c, 9, 42, 110
1, 150964, Note_on_c, 9, 42, 0
1, 151080, Note_on_c, 9, 42, 110
1, 151084, Note_on_c, 9, 42, 0
1, 151199, Note_on_c, 9, 36, 0
1, 151200, Note_on_c, 9, 38, 110
1, 151200, Note_on_c, 9, 46, 110
1, 151204, Note_on_c, 9, 46, 0
1, 151319, Note_on_c, 9, 38, 0
1, 151320, Note_on_c, 9, 42, 110
1, 151324, Note_on_c, 9, 42, 0
1, 151440, Note_on_c, 9, 38, 110
1, 151440, Note_on_c, 9, 46, 110
1, 151444, Note_on_c, 9, 46, 0
1, 151559, Note_on_c, 9, 38, 0
1, 151560, Note_on_c, 9, 42, 110
1, 151564, Note_on_c, 9, 42, 0
1, 151680, Note_on_c, 9, 42, 110
1, 151680, Note_on_c, 9, 36, 110
1, 151684, Note_on_c, 9, 42, 0
1, 151800, Note_on_c, 9, 42, 110
1, 151804, Note_on_c, 9, 42, 0
1, 151920, Note_on_c, 9, 46, 110
1, 151930, Note_on_c, 9, 46, 0
1, 152159, Note_on_c, 9, 36, 0
1, 152160, Note_on_c, 9, 38, 110
1, 152399, Note_on_c, 9, 38, 0
1, 152400, Note_on_c, 9, 38, 110
1, 152639, Note_on_c, 9, 38, 0
1, 152640, Note_on_c, 9, 38, 110
1, 152759, Note_on_c, 9, 38, 0
1, 152760, Note_on_c, 9, 38, 110
1, 152879, Note_on_c, 9, 38, 0
1, 152880, Note_on_c, 9, 38, 110
1, 153119, Note_on_c, 9, 38, 0
1, 153120, Note_on_c, 9, 47, 110
1, 153239, Note_on_c, 9, 47, 0
1, 153240, Note_on_c, 9, 45, 110
1, 153360, Note_on_c, 9, 43, 110
1, 153479, Note_on_c, 9, 45, 0
1, 153480, Note_on_c, 9, 41, 110
1, 153599, Note_on_c, 9, 43, 0
1, 153599, Note_on_c, 9, 41, 0
1, 153600, Note_on_c, 9, 42, 110
1, 153600, Note_on_c, 9, 49, 110
1, 153600, Note_on_c, 9, 36, 110
1, 153604, Note_on_c, 9, 42, 0
1, 153604, Note_on_c, 9, 49, 0
1, 153720, Note_on_c, 9, 42, 110
1, 153724, Note_on_c, 9, 42, 0
1, 153840, Note_on_c, 9, 42, 110
1, 153844, Note_on_c, 9, 42, 0
1, 153960, Note_on_c, 9, 42, 110
1, 153964, Note_on_c, 9, 42, 0
1, 154079, Note_on_c, 9, 36, 0
1, 154080, Note_on_c, 9, 38, 110
1, 154080, Note_on_c, 9, 42, 110
1, 154084, Note_on_c, 9, 42, 0
1, 154199, Note_on_c, 9, 38, 0
1, 154200, Note_on_c, 9, 42, 110
1, 154204, Note_on_c, 9, 42, 0
1, 154320, Note_on_c, 9, 42, 110
1, 154324, Note_on_c, 9, 42, 0
1, 154440, Note_on_c, 9, 42, 110
1, 154444, Note_on_c, 9, 42, 0
1, 154560, Note_on_c, 9, 42, 110
1, 154560, Note_on_c, 9, 36, 110
1, 154564, Note_on_c, 9, 42, 0
1, 154680, Note_on_c, 9, 42, 110
1, 154684, Note_on_c, 9, 42, 0
1, 154800, Note_on_c, 9, 42, 110
1, 154804, Note_on_c, 9, 42, 0
1, 154920, Note_on_c, 9, 42, 110
1, 154924, Note_on_c, 9, 42, 0
1, 155039, Note_on_c, 9, 36, 0
1, 155040, Note_on_c, 9, 38, 110
1, 155040, Note_on_c, 9, 46, 110
1, 155044, Note_on_c, 9, 46, 0
1, 155159, Note_on_c, 9, 38, 0
1, 155160, Note_on_c, 9, 42, 110
1, 155164, Note_on_c, 9, 42, 0
1, 155280, Note_on_c, 9, 38, 110
1, 155280, Note_on_c, 9, 46, 110
1, 155284, Note_on_c, 9, 46, 0
1, 155399, Note_on_c, 9, 38, 0
1, 155400, Note_on_c, 9, 42, 110
1, 155404, Note_on_c, 9, 42, 0
1, 155520, Note_on_c, 9, 42, 110
1, 155520, Note_on_c, 9, 49, 110
1, 155520, Note_on_c, 9, 36, 110
1, 155524, Note_on_c, 9, 42, 0
1, 155524, Note_on_c, 9, 49, 0
1, 155640, Note_on_c, 9, 42, 110
1, 155644, Note_on_c, 9, 42, 0
1, 155760, Note_on_c, 9, 42, 110
1, 155764, Note_on_c, 9, 42, 0
1, 155880, Note_on_c, 9, 42, 110
1, 155884, Note_on_c, 9, 42, 0
1, 155999, Note_on_c, 9, 36, 0
1, 156000, Note_on_c, 9, 38, 110
1, 156000, Note_on_c, 9, 42, 110
1, 156004, Note_on_c, 9, 42, 0
1, 156119, Note_on_c, 9, 38, 0
1, 156120, Note_on_c, 9, 42, 110
1, 156124, Note_on_c, 9, 42, 0
1, 156240, Note_on_c, 9, 42, 110
1, 156244, Note_on_c, 9, 42, 0
1, 156360, Note_on_c, 9, 42, 110
1, 156364, Note_on_c, 9, 42, 0
1, 156480, Note_on_c, 9, 42, 110
1, 156480, Note_on_c, 9, 36, 110
1, 156484, Note_on_c, 9, 42, 0
1, 156600, Note_on_c, 9, 42, 110
1, 156604, Note_on_c, 9, 42, 0
1, 156720, Note_on_c, 9, 42, 110
1, 156724, Note_on_c, 9, 42, 0
1, 156840, Note_on_c, 9, 42, 110
1, 156844, Note_on_c, 9, 42, 0
1, 156959, Note_on_c, 9, 36, 0
1, 156960, Note_on_c, 9, 38, 110
1, 156960, Note_on_c, 9, 46, 110
1, 156964, Note_on_c, 9, 46, 0
1, 157079, Note_on_c, 9, 38, 0
1, 157080, Note_on_c, 9, 42, 110
1, 157084, Note_on_c, 9, 42, 0
1, 157200, Note_on_c, 9, 38, 110
1, 157200, Note_on_c, 9, 46, 110
1, 157204, Note_on_c, 9, 46, 0
1, 157319, Note_on_c, 9, 38, 0
1, 157320, Note_on_c, 9, 42, 110
1, 157324, Note_on_c, 9, 42, 0
1, 157440, Note_on_c, 9, 42, 110
1, 157440, Note_on_c, 9, 49, 110
1, 157440, Note_on_c, 9, 36, 110
1, 157444, Note_on_c, 9, 42, 0
1, 157444, Note_on_c, 9, 49, 0
1, 157560, Note_on_c, 9, 42, 110
1, 157564, Note_on_c, 9, 42, 0
1, 157680, Note_on_c, 9, 42, 110
1, 157684, Note_on_c, 9, 42, 0
1, 157800, Note_on_c, 9, 42, 110
1, 157804, Note_on_c, 9, 42, 0
1, 157919, Note_on_c, 9, 36, 0
1, 157920, Note_on_c, 9, 38, 110
1, 157920, Note_on_c, 9, 42, 110
1, 157924, Note_on_c, 9, 42, 0
1, 158039, Note_on_c, 9, 38, 0
1, 158040, Note_on_c, 9, 42, 110
1, 158044, Note_on_c, 9, 42, 0
1, 158160, Note_on_c, 9, 42, 110
1, 158164, Note_on_c, 9, 42, 0
1, 158280, Note_on_c, 9, 42, 110
1, 158284, Note_on_c, 9, 42, 0
1, 158400, Note_on_c, 9, 42, 110
1, 158400, Note_on_c, 9, 36, 110
1, 158404, Note_on_c, 9, 42, 0
1, 158520, Note_on_c, 9, 42, 110
1, 158524, Note_on_c, 9, 42, 0
1, 158640, Note_on_c, 9, 42, 110
1, 158644, Note_on_c, 9, 42, 0
1, 158760, Note_on_c, 9, 42, 110
1, 158764, Note_on_c, 9, 42, 0
1, 158879, Note_on_c, 9, 36, 0
1, 158880, Note_on_c, 9, 38, 110
1, 158880, Note_on_c, 9, 46, 110
1, 158884, Note_on_c, 9, 46, 0
1, 158999, Note_on_c, 9, 38, 0
1, 159000, Note_on_c, 9, 42, 110
1, 159004, Note_on_c, 9, 42, 0
1, 159120, Note_on_c, 9, 38, 110
1, 159120, Note_on_c, 9, 46, 110
1, 159124, Note_on_c, 9, 46, 0
1, 159239, Note_on_c, 9, 38, 0
1, 159240, Note_on_c, 9, 42, 110
1, 159244, Note_on_c, 9, 42, 0
1, 159360, Note_on_c, 9, 42, 110
1, 159360, Note_on_c, 9, 36, 110
1, 159364, Note_on_c, 9, 42, 0
1, 159480, Note_on_c, 9, 42, 110
1, 159484, Note_on_c, 9, 42, 0
1, 159600, Note_on_c, 9, 46, 110
1, 159610, Note_on_c, 9, 46, 0
1, 159839, Note_on_c, 9, 36, 0
1, 159840, Note_on_c, 9, 38, 110
1, 160079, Note_on_c, 9, 38, 0
1, 160080, Note_on_c, 9, 38, 110
1, 160319, Note_on_c, 9, 38, 0
1, 160320, Note_on_c, 9, 38, 110
1, 160439, Note_on_c, 9, 38, 0
1, 160440, Note_on_c, 9, 38, 110
1, 160559, Note_on_c, 9, 38, 0
1, 160560, Note_on_c, 9, 38, 110
1, 160799, Note_on_c, 9, 38, 0
1, 160800, Note_on_c, 9, 47, 110
1, 160919, Note_on_c, 9, 47, 0
1, 160920, Note_on_c, 9, 45, 110
1, 161040, Note_on_c, 9, 43, 110
1, 161159, Note_on_c, 9, 45, 0
1, 161160, Note_on_c, 9, 41, 110
1, 161279, Note_on_c, 9, 43, 0
1, 161279, Note_on_c, 9, 41, 0
1, 161280, Note_on_c, 9, 42, 110
1, 161280, Note_on_c, 9, 49, 110
1, 161280, Note_on_c, 9, 36, 110
1, 161284, Note_on_c, 9, 42, 0
1, 161284, Note_on_c, 9, 49, 0
1, 161400, Note_on_c, 9, 42, 110
1, 161404, Note_on_c, 9, 42, 0
1, 161520, Note_on_c, 9, 42, 110
1, 161524, Note_on_c, 9, 42, 0
1, 161640, Note_on_c, 9, 42, 110
1, 161644, Note_on_c, 9, 42, 0
1, 161759, Note_on_c, 9, 36, 0
1, 161760, Note_on_c, 9, 38, 110
1, 161760, Note_on_c, 9, 42, 110
1, 161764, Note_on_c, 9, 42, 0
1, 161879, Note_on_c, 9, 38, 0
1, 161880, Note_on_c, 9, 42, 110
1, 161884, Note_on_c, 9, 42, 0
1, 162000, Note_on_c, 9, 42, 110
1, 162004, Note_on_c, 9, 42, 0
1, 162120, Note_on_c, 9, 42, 110
1, 162124, Note_on_c, 9, 42, 0
1, 162240, Note_on_c, 9, 42, 110
1, 162240, Note_on_c, 9, 36, 110
1, 162244, Note_on_c, 9, 42, 0
1, 162360, Note_on_c, 9, 42, 110
1, 162364, Note_on_c, 9, 42, 0
1, 162480, Note_on_c, 9, 42, 110
1, 162484, Note_on_c, 9, 42, 0
1, 162600, Note_on_c, 9, 42, 110
1, 162604, Note_on_c, 9, 42, 0
1, 162719, Note_on_c, 9, 36, 0
1, 162720, Note_on_c, 9, 38, 110
1, 162720, Note_on_c, 9, 46, 110
1, 162724, Note_on_c, 9, 46, 0
1, 162839, Note_on_c, 9, 38, 0
1, 162840, Note_on_c, 9, 42, 110
1, 162844, Note_on_c, 9, 42, 0
1, 162960, Note_on_c, 9, 38, 110
1, 162960, Note_on_c, 9, 46, 110
1, 162964, Note_on_c, 9, 46, 0
1, 163079, Note_on_c, 9, 38, 0
1, 163080, Note_on_c, 9, 42, 110
1, 163084, Note_on_c, 9, 42, 0
1, 163200, Note_on_c, 9, 42, 110
1, 163200, Note_on_c, 9, 49, 110
1, 163200, Note_on_c, 9, 36, 110
1, 163204, Note_on_c, 9, 42, 0
1, 163204, Note_on_c, 9, 49, 0
1, 163320, Note_on_c, 9, 42, 110
1, 163324, Note_on_c, 9, 42, 0
1, 163440, Note_on_c, 9, 42, 110
1, 163444, Note_on_c, 9, 42, 0
1, 163560, Note_on_c, 9, 42, 110
1, 163564, Note_on_c, 9, 42, 0
1, 163679, Note_on_c, 9, 36, 0
1, 163680, Note_on_c, 9, 38, 110
1, 163680, Note_on_c, 9, 42, 110
1, 163684, Note_on_c, 9, 42, 0
1, 163799, Note_on_c, 9, 38, 0
1, 163800, Note_on_c, 9, 42, 110
1, 163804, Note_on_c, 9, 42, 0
1, 163920, Note_on_c, 9, 42, 110
1, 163924, Note_on_c, 9, 42, 0
1, 164040, Note_on_c, 9, 42, 110
1, 164044, Note_on_c, 9, 42, 0
1, 164160, Note_on_c, 9, 42, 110
1, 164160, Note_on_c, 9, 36, 110
1, 164164, Note_on_c, 9, 42, 0
1, 164280, Note_on_c, 9, 42, 110
1, 164284, Note_on_c, 9, 42, 0
1, 164400, Note_on_c, 9, 42, 110
1, 164404, Note_on_c, 9, 42, 0
1, 164520, Note_on_c, 9, 42, 110
1, 164524, Note_on_c, 9, 42, 0
1, 164639, Note_on_c, 9, 36, 0
1, 164640, Note_on_c, 9, 38, 110
1, 164640, Note_on_c, 9, 46, 110
1, 164644, Note_on_c, 9, 46, 0
1, 164759, Note_on_c, 9, 38, 0
1, 164760, Note_on_c, 9, 42, 110
1, 164764, Note_on_c, 9, 42, 0
1, 164880, Note_on_c, 9, 38, 110
1, 164880, Note_on_c, 9, 46, 110
1, 164884, Note_on_c, 9, 46, 0
1, 164999, Note_on_c, 9, 38, 0
1, 165000, Note_on_c, 9, 42, 110
1, 165004, Note_on_c, 9, 42, 0
1, 165120, Note_on_c, 9, 42, 110
1, 165120, Note_on_c, 9, 49, 110
1, 165120, Note_on_c, 9, 36, 110
1, 165124, Note_on_c, 9, 42, 0
1, 165124, Note_on_c, 9, 49, 0
1, 165240, Note_on_c, 9, 42, 110
1, 165244, Note_on_c, 9, 42, 0
1, 165360, Note_on_c, 9, 42, 110
1, 165364, Note_on_c, 9, 42, 0
1, 165480, Note_on_c, 9, 42, 110
1, 165484, Note_on_c, 9, 42, 0
1, 165599, Note_on_c, 9, 36, 0
1, 165600, Note_on_c, 9, 38, 110
1, 165600, Note_on_c, 9, 42, 110
1, 165604, Note_on_c, 9, 42, 0
1, 165719, Note_on_c, 9, 38, 0
1, 165720, Note_on_c, 9, 42, 110
1, 165724, Note_on_c, 9, 42, 0
1, 165840, Note_on_c, 9, 42, 110
1, 165844, Note_on_c, 9, 42, 0
1, 165960, Note_on_c, 9, 42, 110
1, 165964, Note_on_c, 9, 42, 0
1, 166080, Note_on_c, 9, 42, 110
1, 166080, Note_on_c, 9, 36, 110
1, 166084, Note_on_c, 9, 42, 0
1, 166200, Note_on_c, 9, 42, 110
1, 166204, Note_on_c, 9, 42, 0
1, 166320, Note_on_c, 9, 42, 110
1, 166324, Note_on_c, 9, 42, 0
1, 166440, Note_on_c, 9, 42, 110
1, 166444, Note_on_c, 9, 42, 0
1, 166559, Note_on_c, 9, 36, 0
1, 166560, Note_on_c, 9, 38, 110
1, 166560, Note_on_c, 9, 46, 110
1, 166564, Note_on_c, 9, 46, 0
1, 166679, Note_on_c, 9, 38, 0
1, 166680, Note_on_c, 9, 42, 110
1, 166684, Note_on_c, 9, 42, 0
1, 166800, Note_on_c, 9, 38, 110
1, 166800, Note_on_c, 9, 46, 110
1, 166804, Note_on_c, 9, 46, 0
1, 166919, Note_on_c, 9, 38, 0
1, 166920, Note_on_c, 9, 42, 110
1, 166924, Note_on_c, 9, 42, 0
1, 167040, Note_on_c, 9, 42, 110
1, 167040, Note_on_c, 9, 36, 110
1, 167044, Note_on_c, 9, 42, 0
1, 167160, Note_on_c, 9, 42, 110
1, 167164, Note_on_c, 9, 42, 0
1, 167280, Note_on_c, 9, 46, 110
1, 167290, Note_on_c, 9, 46, 0
1, 167519, Note_on_c, 9, 36, 0
1, 167520, Note_on_c, 9, 38, 110
1, 167759, Note_on_c, 9, 38, 0
1, 167760, Note_on_c, 9, 38, 110
1, 167999, Note_on_c, 9, 38, 0
1, 168000, Note_on_c, 9, 38, 110
1, 168119, Note_on_c, 9, 38, 0
1, 168120, Note_on_c, 9, 38, 110
1, 168239, Note_on_c, 9, 38, 0
1, 168240, Note_on_c, 9, 38, 110
1, 168479, Note_on_c, 9, 38, 0
1, 168480, Note_on_c, 9, 47, 110
1, 168599, Note_on_c, 9, 47, 0
1, 168600, Note_on_c, 9, 45, 110
1, 168720, Note_on_c, 9, 43, 110
1, 168839, Note_on_c, 9, 45, 0
1, 168840, Note_on_c, 9, 41, 110
1, 168959, Note_on_c, 9, 43, 0
1, 168959, Note_on_c, 9, 41, 0
1, 168960, Note_on_c, 9, 42, 110
1, 168960, Note_on_c, 9, 49, 110
1, 168960, Note_on_c, 9, 36, 110
1, 168964, Note_on_c, 9, 42, 0
1, 168964, Note_on_c, 9, 49, 0
1, 169080, Note_on_c, 9, 42, 110
1, 169084, Note_on_c, 9, 42, 0
1, 169200, Note_on_c, 9, 42, 110
1, 169204, Note_on_c, 9, 42, 0
1, 169320, Note_on_c, 9, 42, 110
1, 169324, Note_on_c, 9, 42, 0
1, 169439, Note_on_c, 9, 36, 0
1, 169440, Note_on_c, 9, 38, 110
1, 169440, Note_on_c, 9, 42, 110
1, 169444, Note_on_c, 9, 42, 0
1, 169559, Note_on_c, 9, 38, 0
1, 169560, Note_on_c, 9, 42, 110
1, 169564, Note_on_c, 9, 42, 0
1, 169680, Note_on_c, 9, 42, 110
1, 169684, Note_on_c, 9, 42, 0
1, 169800, Note_on_c, 9, 42, 110
1, 169804, Note_on_c, 9, 42, 0
1, 169920, Note_on_c, 9, 42, 110
1, 169920, Note_on_c, 9, 36, 110
1, 169924, Note_on_c, 9, 42, 0
1, 170040, Note_on_c, 9, 42, 110
1, 170044, Note_on_c, 9, 42, 0
1, 170160, Note_on_c, 9, 42, 110
1, 170164, Note_on_c, 9, 42, 0
1, 170280, Note_on_c, 9, 42, 110
1, 170284, Note_on_c, 9, 42, 0
1, 170399, Note_on_c, 9, 36, 0
1, 170400, Note_on_c, 9, 38, 110
1, 170400, Note_on_c, 9, 46, 110
1, 170404, Note_on_c, 9, 46, 0
1, 170519, Note_on_c, 9, 38, 0
1, 170520, Note_on_c, 9, 42, 110
1, 170524, Note_on_c, 9, 42, 0
1, 170640, Note_on_c, 9, 38, 110
1, 170640, Note_on_c, 9, 46, 110
1, 170644, Note_on_c, 9, 46, 0
1, 170759, Note_on_c, 9, 38, 0
1, 170760, Note_on_c, 9, 42, 110
1, 170764, Note_on_c, 9, 42, 0
1, 170880, Note_on_c, 9, 42, 110
1, 170880, Note_on_c, 9, 49, 110
1, 170880, Note_on_c, 9, 36, 110
1, 170884, Note_on_c, 9, 42, 0
1, 170884, Note_on_c, 9, 49, 0
1, 171000, Note_on_c, 9, 42, 110
1, 171004, Note_on_c, 9, 42, 0
1, 171120, Note_on_c, 9, 42, 110
1, 171124, Note_on_c, 9, 42, 0
1, 171240, Note_on_c, 9, 42, 110
1, 171244, Note_on_c, 9, 42, 0
1, 171359, Note_on_c, 9, 36, 0
1, 171360, Note_on_c, 9, 38, 110
1, 171360, Note_on_c, 9, 42, 110
1, 171364, Note_on_c, 9, 42, 0
1, 171479, Note_on_c, 9, 38, 0
1, 171480, Note_on_c, 9, 42, 110
1, 171484, Note_on_c, 9, 42, 0
1, 171600, Note_on_c, 9, 42, 110
1, 171604, Note_on_c, 9, 42, 0
1, 171720, Note_on_c, 9, 42, 110
1, 171724, Note_on_c, 9, 42, 0
1, 171840, Note_on_c, 9, 42, 110
1, 171840, Note_on_c, 9, 36, 110
1, 171844, Note_on_c, 9, 42, 0
1, 171960, Note_on_c, 9, 42, 110
1, 171964, Note_on_c, 9, 42, 0
1, 172080, Note_on_c, 9, 42, 110
1, 172084, Note_on_c, 9, 42, 0
1, 172200, Note_on_c, 9, 42, 110
1, 172204, Note_on_c, 9, 42, 0
1, 172319, Note_on_c, 9, 36, 0
1, 172320, Note_on_c, 9, 38, 110
1, 172320, Note_on_c, 9, 46, 110
1, 172324, Note_on_c, 9, 46, 0
1, 172439, Note_on_c, 9, 38, 0
1, 172440, Note_on_c, 9, 42, 110
1, 172444, Note_on_c, 9, 42, 0
1, 172560, Note_on_c, 9, 38, 110
1, 172560, Note_on_c, 9, 46, 110
1, 172564, Note_on_c, 9, 46, 0
1, 172679, Note_on_c, 9, 38, 0
1, 172680, Note_on_c, 9, 42, 110
1, 172684, Note_on_c, 9, 42, 0
1, 172800, Note_on_c, 9, 42, 110
1, 172800, Note_on_c, 9, 49, 110
1, 172800, Note_on_c, 9, 36, 110
1, 172804, Note_on_c, 9, 42, 0
1, 172804, Note_on_c, 9, 49, 0
1, 172920, Note_on_c, 9, 42, 110
1, 172924, Note_on_c, 9, 42, 0
1, 173040, Note_on_c, 9, 42, 110
1, 173044, Note_on_c, 9, 42, 0
1, 173160, Note_on_c, 9, 42, 110
1, 173164, Note_on_c, 9, 42, 0
1, 173279, Note_on_c, 9, 36, 0
1, 173280, Note_on_c, 9, 38, 110
1, 173280, Note_on_c, 9, 42, 110
1, 173284, Note_on_c, 9, 42, 0
1, 173399, Note_on_c, 9, 38, 0
1, 173400, Note_on_c, 9, 42, 110
1, 173404, Note_on_c, 9, 42, 0
1, 173520, Note_on_c, 9, 42, 110
1, 173524, Note_on_c, 9, 42, 0
1, 173640, Note_on_c, 9, 42, 110
1, 173644, Note_on_c, 9, 42, 0
1, 173760, Note_on_c, 9, 42, 110
1, 173760, Note_on_c, 9, 36, 110
1, 173764, Note_on_c, 9, 42, 0
1, 173880, Note_on_c, 9, 42, 110
1, 173884, Note_on_c, 9, 42, 0
1, 174000, Note_on_c, 9, 42, 110
1, 174004, Note_on_c, 9, 42, 0
1, 174120, Note_on_c, 9, 42, 110
1, 174124, Note_on_c, 9, 42, 0
1, 174239, Note_on_c, 9, 36, 0
1, 174240, Note_on_c, 9, 38, 110
1, 174240, Note_on_c, 9, 46, 110
1, 174244, Note_on_c, 9, 46, 0
1, 174359, Note_on_c, 9, 38, 0
1, 174360, Note_on_c, 9, 42, 110
1, 174364, Note_on_c, 9, 42, 0
1, 174480, Note_on_c, 9, 38, 110
1, 174480, Note_on_c, 9, 46, 110
1, 174484, Note_on_c, 9, 46, 0
1, 174599, Note_on_c, 9, 38, 0
1, 174600, Note_on_c, 9, 42, 110
1, 174604, Note_on_c, 9, 42, 0
1, 174720, Note_on_c, 9, 42, 110
1, 174720, Note_on_c, 9, 36, 110
1, 174724, Note_on_c, 9, 42, 0
1, 174840, Note_on_c, 9, 42, 110
1, 174844, Note_on_c, 9, 42, 0
1, 174960, Note_on_c, 9, 46, 110
1, 174970, Note_on_c, 9, 46, 0
1, 175199, Note_on_c, 9, 36, 0
1, 175200, Note_on_c, 9, 38, 110
1, 175439, Note_on_c, 9, 38, 0
1, 175440, Note_on_c, 9, 38, 110
1, 175679, Note_on_c, 9, 38, 0
1, 175680, Note_on_c, 9, 38, 110
1, 175799, Note_on_c, 9, 38, 0
1, 175800, Note_on_c, 9, 38, 110
1, 175919, Note_on_c, 9, 38, 0
1, 175920, Note_on_c, 9, 38, 110
1, 176159, Note_on_c, 9, 38, 0
1, 176160, Note_on_c, 9, 47, 110
1, 176279, Note_on_c, 9, 47, 0
1, 176280, Note_on_c, 9, 45, 110
1, 176400, Note_on_c, 9, 43, 110
1, 176519, Note_on_c, 9, 45, 0
1, 176520, Note_on_c, 9, 41, 110
1, 176639, Note_on_c, 9, 43, 0
1, 176639, Note_on_c, 9, 41, 0
1, 176640, Note_on_c, 9, 42, 110
1, 176640, Note_on_c, 9, 49, 110
1, 176640, Note_on_c, 9, 36, 110
1, 176644, Note_on_c, 9, 42, 0
1, 176644, Note_on_c, 9, 49, 0
1, 176760, Note_on_c, 9, 42, 110
1, 176764, Note_on_c, 9, 42, 0
1, 176880, Note_on_c, 9, 42, 110
1, 176884, Note_on_c, 9, 42, 0
1, 177000, Note_on_c, 9, 42, 110
1, 177004, Note_on_c, 9, 42, 0
1, 177119, Note_on_c, 9, 36, 0
1, 177120, Note_on_c, 9, 38, 110
1, 177120, Note_on_c, 9, 42, 110
1, 177124, Note_on_c, 9, 42, 0
1, 177239, Note_on_c, 9, 38, 0
1, 177240, Note_on_c, 9, 42, 110
1, 177244, Note_on_c, 9, 42, 0
1, 177360, Note_on_c, 9, 42, 110
1, 177364, Note_on_c, 9, 42, 0
1, 177480, Note_on_c, 9, 42, 110
1, 177484, Note_on_c, 9, 42, 0
1, 177600, Note_on_c, 9, 42, 110
1, 177600, Note_on_c, 9, 36, 110
1, 177604, Note_on_c, 9, 42, 0
1, 177720, Note_on_c, 9, 42, 110
1, 177724, Note_on_c, 9, 42, 0
1, 177840, Note_on_c, 9, 42, 110
1, 177844, Note_on_c, 9, 42, 0
1, 177960, Note_on_c, 9, 42, 110
1, 177964, Note_on_c, 9, 42, 0
1, 178079, Note_on_c, 9, 36, 0
1, 178080, Note_on_c, 9, 38, 110
1, 178080, Note_on_c, 9, 46, 110
1, 178084, Note_on_c, 9, 46, 0
1, 178199, Note_on_c, 9, 38, 0
1, 178200, Note_on_c, 9, 42, 110
1, 178204, Note_on_c, 9, 42, 0
1, 178320, Note_on_c, 9, 38, 110
1, 178320, Note_on_c, 9, 46, 110
1, 178324, Note_on_c, 9, 46, 0
1, 178439, Note_on_c, 9, 38, 0
1, 178440, Note_on_c, 9, 42, 110
1, 178444, Note_on_c, 9, 42, 0
1, 178560, Note_on_c, 9, 42, 110
1, 178560, Note_on_c, 9, 36, 110
1, 178564, Note_on_c, 9, 42, 0
1, 178680, Note_on_c, 9, 42, 110
1, 178684, Note_on_c, 9, 42, 0
1, 178800, Note_on_c, 9, 42, 110
1, 178804, Note_on_c, 9, 42, 0
1, 178920, Note_on_c, 9, 42, 110
1, 178924, Note_on_c, 9, 42, 0
1, 179039, Note_on_c, 9, 36, 0
1, 179040, Note_on_c, 9, 38, 110
1, 179040, Note_on_c, 9, 42, 110
1, 179044, Note_on_c, 9, 42, 0
1, 179159, Note_on_c, 9, 38, 0
1, 179160, Note_on_c, 9, 42, 110
1, 179164, Note_on_c, 9, 42, 0
1, 179280, Note_on_c, 9, 42, 110
1, 179284, Note_on_c, 9, 42, 0
1, 179400, Note_on_c, 9, 42, 110
1, 179404, Note_on_c, 9, 42, 0
1, 179520, Note_on_c, 9, 42, 110
1, 179520, Note_on_c, 9, 36, 110
1, 179524, Note_on_c, 9, 42, 0
1, 179640, Note_on_c, 9, 42, 110
1, 179644, Note_on_c, 9, 42, 0
1, 179760, Note_on_c, 9, 42, 110
1, 179764, Note_on_c, 9, 42, 0
1, 179880, Note_on_c, 9, 42, 110
1, 179884, Note_on_c, 9, 42, 0
1, 179999, Note_on_c, 9, 36, 0
1, 180000, Note_on_c, 9, 42, 110
1, 180000, Note_on_c, 9, 36, 110
1, 180004, Note_on_c, 9, 42, 0
1, 180120, Note_on_c, 9, 38, 110
1, 180120, Note_on_c, 9, 42, 110
1, 180120, Note_on_c, 9, 49, 110
1, 180124, Note_on_c, 9, 42, 0
1, 180124, Note_on_c, 9, 49, 0
1, 180239, Note_on_c, 9, 38, 0
1, 180240, Note_on_c, 9, 42, 110
1, 180244, Note_on_c, 9, 42, 0
1, 180360, Note_on_c, 9, 42, 110
1, 180364, Note_on_c, 9, 42, 0
1, 180479, Note_on_c, 9, 36, 0
1, 180480, Note_on_c, 9, 42, 110
1, 180480, Note_on_c, 9, 49, 110
1, 180480, Note_on_c, 9, 36, 110
1, 180484, Note_on_c, 9, 42, 0
1, 180484, Note_on_c, 9, 49, 0
1, 180600, Note_on_c, 9, 42, 110
1, 180604, Note_on_c, 9, 42, 0
1, 180720, Note_on_c, 9, 42, 110
1, 180724, Note_on_c, 9, 42, 0
1, 180840, Note_on_c, 9, 42, 110
1, 180844, Note_on_c, 9, 42, 0
1, 180959, Note_on_c, 9, 36, 0
1, 180960, Note_on_c, 9, 38, 110
1, 180960, Note_on_c, 9, 42, 110
1, 180964, Note_on_c, 9, 42, 0
1, 181079, Note_on_c, 9, 38, 0
1, 181080, Note_on_c, 9, 42, 110
1, 181084, Note_on_c, 9, 42, 0
1, 181200, Note_on_c, 9, 42, 110
1, 181204, Note_on_c, 9, 42, 0
1, 181320, Note_on_c, 9, 42, 110
1, 181324, Note_on_c, 9, 42, 0
1, 181440, Note_on_c, 9, 42, 110
1, 181440, Note_on_c, 9, 36, 110
1, 181444, Note_on_c, 9, 42, 0
1, 181560, Note_on_c, 9, 42, 110
1, 181564, Note_on_c, 9, 42, 0
1, 181680, Note_on_c, 9, 42, 110
1, 181684, Note_on_c, 9, 42, 0
1, 181800, Note_on_c, 9, 42, 110
1, 181804, Note_on_c, 9, 42, 0
1, 181919, Note_on_c, 9, 36, 0
1, 181920, Note_on_c, 9, 38, 110
1, 181920, Note_on_c, 9, 46, 110
1, 181924, Note_on_c, 9, 46, 0
1, 182039, Note_on_c, 9, 38, 0
1, 182040, Note_on_c, 9, 42, 110
1, 182044, Note_on_c, 9, 42, 0
1, 182160, Note_on_c, 9, 38, 110
1, 182160, Note_on_c, 9, 46, 110
1, 182164, Note_on_c, 9, 46, 0
1, 182279, Note_on_c, 9, 38, 0
1, 182280, Note_on_c, 9, 42, 110
1, 182284, Note_on_c, 9, 42, 0
1, 182400, Note_on_c, 9, 42, 110
1, 182400, Note_on_c, 9, 36, 110
1, 182404, Note_on_c, 9, 42, 0
1, 182520, Note_on_c, 9, 42, 110
1, 182524, Note_on_c, 9, 42, 0
1, 182640, Note_on_c, 9, 42, 110
1, 182644, Note_on_c, 9, 42, 0
1, 182760, Note_on_c, 9, 42, 110
1, 182764, Note_on_c, 9, 42, 0
1, 182879, Note_on_c, 9, 36, 0
1, 182880, Note_on_c, 9, 38, 110
1, 182880, Note_on_c, 9, 42, 110
1, 182884, Note_on_c, 9, 42, 0
1, 182999, Note_on_c, 9, 38, 0
1, 183000, Note_on_c, 9, 42, 110
1, 183004, Note_on_c, 9, 42, 0
1, 183120, Note_on_c, 9, 42, 110
1, 183124, Note_on_c, 9, 42, 0
1, 183240, Note_on_c, 9, 42, 110
1, 183244, Note_on_c, 9, 42, 0
1, 183360, Note_on_c, 9, 42, 110
1, 183360, Note_on_c, 9, 36, 110
1, 183364, Note_on_c, 9, 42, 0
1, 183480, Note_on_c, 9, 42, 110
1, 183484, Note_on_c, 9, 42, 0
1, 183600, Note_on_c, 9, 42, 110
1, 183604, Note_on_c, 9, 42, 0
1, 183720, Note_on_c, 9, 42, 110
1, 183724, Note_on_c, 9, 42, 0
1, 183839, Note_on_c, 9, 36, 0
1, 183840, Note_on_c, 9, 42, 110
1, 183840, Note_on_c, 9, 36, 110
1, 183844, Note_on_c, 9, 42, 0
1, 183960, Note_on_c, 9, 38, 110
1, 183960, Note_on_c, 9, 42, 110
1, 183960, Note_on_c, 9, 49, 110
1, 183964, Note_on_c, 9, 42, 0
1, 183964, Note_on_c, 9, 49, 0
1, 184079, Note_on_c, 9, 38, 0
1, 184080, Note_on_c, 9, 42, 110
1, 184084, Note_on_c, 9, 42, 0
1, 184200, Note_on_c, 9, 42, 110
1, 184204, Note_on_c, 9, 42, 0
1, 184319, Note_on_c, 9, 36, 0
1, 184320, Note_on_c, 9, 42, 110
1, 184320, Note_on_c, 9, 49, 110
1, 184320, Note_on_c, 9, 36, 110
1, 184324, Note_on_c, 9, 42, 0
1, 184324, Note_on_c, 9, 49, 0
1, 184440, Note_on_c, 9, 42, 110
1, 184444, Note_on_c, 9, 42, 0
1, 184560, Note_on_c, 9, 42, 110
1, 184564, Note_on_c, 9, 42, 0
1, 184680, Note_on_c, 9, 42, 110
1, 184684, Note_on_c, 9, 42, 0
1, 184799, Note_on_c, 9, 36, 0
1, 184800, Note_on_c, 9, 38, 110
1, 184800, Note_on_c, 9, 42, 110
1, 184804, Note_on_c, 9, 42, 0
1, 184919, Note_on_c, 9, 38, 0
1, 184920, Note_on_c, 9, 42, 110
1, 184924, Note_on_c, 9, 42, 0
1, 185040, Note_on_c, 9, 42, 110
1, 185044, Note_on_c, 9, 42, 0
1, 185160, Note_on_c, 9, 42, 110
1, 185164, Note_on_c, 9, 42, 0
1, 185280, Note_on_c, 9, 42, 110
1, 185280, Note_on_c, 9, 36, 110
1, 185284, Note_on_c, 9, 42, 0
1, 185400, Note_on_c, 9, 42, 110
1, 185404, Note_on_c, 9, 42, 0
1, 185520, Note_on_c, 9, 42, 110
1, 185524, Note_on_c, 9, 42, 0
1, 185640, Note_on_c, 9, 42, 110
1, 185644, Note_on_c, 9, 42, 0
1, 185759, Note_on_c, 9, 36, 0
1, 185760, Note_on_c, 9, 38, 110
1, 185760, Note_on_c, 9, 46, 110
1, 185764, Note_on_c, 9, 46, 0
1, 185879, Note_on_c, 9, 38, 0
1, 185880, Note_on_c, 9, 42, 110
1, 185884, Note_on_c, 9, 42, 0
1, 186000, Note_on_c, 9, 38, 110
1, 186000, Note_on_c, 9, 46, 110
1, 186004, Note_on_c, 9, 46, 0
1, 186119, Note_on_c, 9, 38, 0
1, 186120, Note_on_c, 9, 42, 110
1, 186124, Note_on_c, 9, 42, 0
1, 186240, Note_on_c, 9, 42, 110
1, 186240, Note_on_c, 9, 36, 110
1, 186244, Note_on_c, 9, 42, 0
1, 186360, Note_on_c, 9, 42, 110
1, 186364, Note_on_c, 9, 42, 0
1, 186480, Note_on_c, 9, 42, 110
1, 186484, Note_on_c, 9, 42, 0
1, 186600, Note_on_c, 9, 42, 110
1, 186604, Note_on_c, 9, 42, 0
1, 186719, Note_on_c, 9, 36, 0
1, 186720, Note_on_c, 9, 38, 110
1, 186720, Note_on_c, 9, 42, 110
1, 186724, Note_on_c, 9, 42, 0
1, 186839, Note_on_c, 9, 38, 0
1, 186840, Note_on_c, 9, 42, 110
1, 186844, Note_on_c, 9, 42, 0
1, 186960, Note_on_c, 9, 42, 110
1, 186964, Note_on_c, 9, 42, 0
1, 187080, Note_on_c, 9, 42, 110
1, 187084, Note_on_c, 9, 42, 0
1, 187200, Note_on_c, 9, 42, 110
1, 187200, Note_on_c, 9, 36, 110
1, 187204, Note_on_c, 9, 42, 0
1, 187320, Note_on_c, 9, 42, 110
1, 187324, Note_on_c, 9, 42, 0
1, 187440, Note_on_c, 9, 42, 110
1, 187444, Note_on_c, 9, 42, 0
1, 187560, Note_on_c, 9, 42, 110
1, 187564, Note_on_c, 9, 42, 0
1, 187679, Note_on_c, 9, 36, 0
1, 187680, Note_on_c, 9, 42, 110
1, 187680, Note_on_c, 9, 36, 110
1, 187684, Note_on_c, 9, 42, 0
1, 187800, Note_on_c, 9, 38, 110
1, 187800, Note_on_c, 9, 42, 110
1, 187800, Note_on_c, 9, 49, 110
1, 187804, Note_on_c, 9, 42, 0
1, 187804, Note_on_c, 9, 49, 0
1, 187919, Note_on_c, 9, 38, 0
1, 187920, Note_on_c, 9, 42, 110
1, 187924, Note_on_c, 9, 42, 0
1, 188040, Note_on_c, 9, 42, 110
1, 188044, Note_on_c, 9, 42, 0
1, 188159, Note_on_c, 9, 36, 0
1, 188160, Note_on_c, 9, 42, 110
1, 188160, Note_on_c, 9, 49, 110
1, 188160, Note_on_c, 9, 36, 110
1, 188164, Note_on_c, 9, 42, 0
1, 188164, Note_on_c, 9, 49, 0
1, 188280, Note_on_c, 9, 42, 110
1, 188284, Note_on_c, 9, 42, 0
1, 188400, Note_on_c, 9, 42, 110
1, 188404, Note_on_c, 9, 42, 0
1, 188520, Note_on_c, 9, 42, 110
1, 188524, Note_on_c, 9, 42, 0
1, 188639, Note_on_c, 9, 36, 0
1, 188640, Note_on_c, 9, 38, 110
1, 188640, Note_on_c, 9, 42, 110
1, 188644, Note_on_c, 9, 42, 0
1, 188759, Note_on_c, 9, 38, 0
1, 188760, Note_on_c, 9, 42, 110
1, 188764, Note_on_c, 9, 42, 0
1, 188880, Note_on_c, 9, 42, 110
1, 188884, Note_on_c, 9, 42, 0
1, 189000, Note_on_c, 9, 42, 110
1, 189004, Note_on_c, 9, 42, 0
1, 189120, Note_on_c, 9, 42, 110
1, 189120, Note_on_c, 9, 36, 110
1, 189124, Note_on_c, 9, 42, 0
1, 189240, Note_on_c, 9, 42, 110
1, 189244, Note_on_c, 9, 42, 0
1, 189360, Note_on_c, 9, 42, 110
1, 189364, Note_on_c, 9, 42, 0
1, 189480, Note_on_c, 9, 42, 110
1, 189484, Note_on_c, 9, 42, 0
1, 189599, Note_on_c, 9, 36, 0
1, 189600, Note_on_c, 9, 38, 110
1, 189600, Note_on_c, 9, 46, 110
1, 189604, Note_on_c, 9, 46, 0
1, 189719, Note_on_c, 9, 38, 0
1, 189720, Note_on_c, 9, 42, 110
1, 189724, Note_on_c, 9, 42, 0
1, 189840, Note_on_c, 9, 38, 110
1, 189840, Note_on_c, 9, 46, 110
1, 189844, Note_on_c, 9, 46, 0
1, 189959, Note_on_c, 9, 38, 0
1, 189960, Note_on_c, 9, 42, 110
1, 189964, Note_on_c, 9, 42, 0
1, 190080, Note_on_c, 9, 42, 110
1, 190080, Note_on_c, 9, 36, 110
1, 190084, Note_on_c, 9, 42, 0
1, 190200, Note_on_c, 9, 42, 110
1, 190204, Note_on_c, 9, 42, 0
1, 190320, Note_on_c, 9, 42, 110
1, 190324, Note_on_c, 9, 42, 0
1, 190440, Note_on_c, 9, 42, 110
1, 190444, Note_on_c, 9, 42, 0
1, 190559, Note_on_c, 9, 36, 0
1, 190560, Note_on_c, 9, 38, 110
1, 190560, Note_on_c, 9, 42, 110
1, 190564, Note_on_c, 9, 42, 0
1, 190679, Note_on_c, 9, 38, 0
1, 190680, Note_on_c, 9, 42, 110
1, 190684, Note_on_c, 9, 42, 0
1, 190800, Note_on_c, 9, 42, 110
1, 190804, Note_on_c, 9, 42, 0
1, 190920, Note_on_c, 9, 42, 110
1, 190924, Note_on_c, 9, 42, 0
1, 191040, Note_on_c, 9, 42, 110
1, 191040, Note_on_c, 9, 36, 110
1, 191044, Note_on_c, 9, 42, 0
1, 191160, Note_on_c, 9, 42, 110
1, 191164, Note_on_c, 9, 42, 0
1, 191280, Note_on_c, 9, 42, 110
1, 191284, Note_on_c, 9, 42, 0
1, 191400, Note_on_c, 9, 42, 110
1, 191404, Note_on_c, 9, 42, 0
1, 191519, Note_on_c, 9, 36, 0
1, 191520, Note_on_c, 9, 42, 110
1, 191520, Note_on_c, 9, 36, 110
1, 191524, Note_on_c, 9, 42, 0
1, 191640, Note_on_c, 9, 38, 110
1, 191640, Note_on_c, 9, 42, 110
1, 191640, Note_on_c, 9, 49, 110
1, 191644, Note_on_c, 9, 42, 0
1, 191644, Note_on_c, 9, 49, 0
1, 191759, Note_on_c, 9, 38, 0
1, 191760, Note_on_c, 9, 42, 110
1, 191764, Note_on_c, 9, 42, 0
1, 191880, Note_on_c, 9, 42, 110
1, 191884, Note_on_c, 9, 42, 0
1, 191999, Note_on_c, 9, 36, 0
1, 192000, Note_on_c, 9, 49, 110
1, 192000, Note_on_c, 9, 36, 110
1, 192022, Note_on_c, 9, 49, 0
1, 192479, Note_on_c, 9, 36, 0
1, 194160, Note_on_c, 9, 50, 110
1, 194399, Note_on_c, 9, 50, 0
1, 194640, Note_on_c, 9, 48, 110
1, 194879, Note_on_c, 9, 48, 0
1, 194880, Note_on_c, 9, 47, 110
1, 195239, Note_on_c, 9, 47, 0
1, 195240, Note_on_c, 9, 45, 110
1, 195359, Note_on_c, 9, 45, 0
1, 195360, Note_on_c, 9, 43, 110
1, 195599, Note_on_c, 9, 43, 0
1, 195600, Note_on_c, 9, 49, 110
1, 195600, Note_on_c, 9, 36, 110
1, 195610, Note_on_c, 9, 49, 0
1, 195839, Note_on_c, 9, 36, 0
1, 195840, Note_on_c, 9, 49, 110
1, 195840, Note_on_c, 9, 36, 110
1, 195862, Note_on_c, 9, 49, 0
1, 196319, Note_on_c, 9, 36, 0
1, 197760, Note_on_c, 9, 50, 110
1, 197879, Note_on_c, 9, 50, 0
1, 197880, Note_on_c, 9, 50, 110
1, 197999, Note_on_c, 9, 50, 0
1, 198060, Note_on_c, 9, 50, 110
1, 198179, Note_on_c, 9, 50, 0
1, 198180, Note_on_c, 9, 50, 110
1, 198239, Note_on_c, 9, 50, 0
1, 198240, Note_on_c, 9, 48, 110
1, 198359, Note_on_c, 9, 48, 0
1, 198360, Note_on_c, 9, 48, 110
1, 198479, Note_on_c, 9, 48, 0
1, 198540, Note_on_c, 9, 48, 110
1, 198659, Note_on_c, 9, 48, 0
1, 198660, Note_on_c, 9, 48, 110
1, 198719, Note_on_c, 9, 48, 0
1, 198720, Note_on_c, 9, 47, 110
1, 198839, Note_on_c, 9, 47, 0
1, 198840, Note_on_c, 9, 47, 110
1, 198959, Note_on_c, 9, 47, 0
1, 199020, Note_on_c, 9, 47, 110
1, 199139, Note_on_c, 9, 47, 0
1, 199140, Note_on_c, 9, 47, 110
1, 199199, Note_on_c, 9, 47, 0
1, 199200, Note_on_c, 9, 45, 110
1, 199439, Note_on_c, 9, 45, 0
1, 199440, Note_on_c, 9, 49, 110
1, 199440, Note_on_c, 9, 36, 110
1, 199450, Note_on_c, 9, 49, 0
1, 199679, Note_on_c, 9, 36, 0
1, 199680, Note_on_c, 9, 49, 110
1, 199680, Note_on_c, 9, 36, 110
1, 199702, Note_on_c, 9, 49, 0
1, 200159, Note_on_c, 9, 36, 0
1, 201600, Note_on_c, 9, 50, 110
1, 201639, Note_on_c, 9, 50, 0
1, 201640, Note_on_c, 9, 50, 110
1, 201659, Note_on_c, 9, 50, 0
1, 201780, Note_on_c, 9, 50, 110
1, 201839, Note_on_c, 9, 50, 0
1, 201960, Note_on_c, 9, 50, 110
1, 202079, Note_on_c, 9, 50, 0
1, 202080, Note_on_c, 9, 48, 110
1, 202109, Note_on_c, 9, 48, 0
1, 202110, Note_on_c, 9, 48, 110
1, 202199, Note_on_c, 9, 48, 0
1, 202200, Note_on_c, 9, 48, 110
1, 202439, Note_on_c, 9, 48, 0
1, 202440, Note_on_c, 9, 48, 110
1, 202559, Note_on_c, 9, 48, 0
1, 202560, Note_on_c, 9, 47, 110
1, 202589, Note_on_c, 9, 47, 0
1, 202590, Note_on_c, 9, 47, 110
1, 202679, Note_on_c, 9, 47, 0
1, 202680, Note_on_c, 9, 47, 110
1, 202919, Note_on_c, 9, 47, 0
1, 202920, Note_on_c, 9, 47, 110
1, 203039, Note_on_c, 9, 47, 0
1, 203040, Note_on_c, 9, 45, 110
1, 203099, Note_on_c, 9, 45, 0
1, 203100, Note_on_c, 9, 45, 110
1, 203279, Note_on_c, 9, 45, 0
1, 203280, Note_on_c, 9, 49, 110
1, 203280, Note_on_c, 9, 36, 110
1, 203290, Note_on_c, 9, 49, 0
1, 203519, Note_on_c, 9, 36, 0
1, 203520, Note_on_c, 9, 49, 110
1, 203520, Note_on_c, 9, 36, 110
1, 203542, Note_on_c, 9, 49, 0
1, 203999, Note_on_c, 9, 36, 0
1, 205680, Note_on_c, 9, 38, 110
1, 205919, Note_on_c, 9, 38, 0
1, 206160, Note_on_c, 9, 47, 110
1, 206399, Note_on_c, 9, 47, 0
1, 206400, Note_on_c, 9, 45, 110
1, 206759, Note_on_c, 9, 45, 0
1, 206760, Note_on_c, 9, 38, 110
1, 206879, Note_on_c, 9, 38, 0
1, 206880, Note_on_c, 9, 38, 110
1, 207120, Note_on_c, 9, 36, 110
1, 207359, Note_on_c, 9, 38, 0
1, 207359, Note_on_c, 9, 36, 0
1, 207360, Note_on_c, 9, 38, 110
1, 207360, Note_on_c, 9, 49, 110
1, 207364, Note_on_c, 9, 49, 0
1, 207479, Note_on_c, 9, 38, 0
1, 207480, Note_on_c, 9, 38, 110
1, 207599, Note_on_c, 9, 38, 0
1, 207600, Note_on_c, 9, 38, 110
1, 207719, Note_on_c, 9, 38, 0
1, 207720, Note_on_c, 9, 38, 110
1, 207839, Note_on_c, 9, 38, 0
1, 207840, Note_on_c, 9, 50, 110
1, 207959, Note_on_c, 9, 50, 0
1, 207960, Note_on_c, 9, 48, 110
1, 208079, Note_on_c, 9, 48, 0
1, 208080, Note_on_c, 9, 47, 110
1, 208199, Note_on_c, 9, 47, 0
1, 208200, Note_on_c, 9, 45, 110
1, 208319, Note_on_c, 9, 45, 0
1, 208320, Note_on_c, 9, 48, 110
1, 208439, Note_on_c, 9, 48, 0
1, 208440, Note_on_c, 9, 47, 110
1, 208559, Note_on_c, 9, 47, 0
1, 208560, Note_on_c, 9, 45, 110
1, 208680, Note_on_c, 9, 43, 110
1, 208799, Note_on_c, 9, 45, 0
1, 208799, Note_on_c, 9, 43, 0
1, 208800, Note_on_c, 9, 47, 110
1, 208800, Note_on_c, 9, 49, 110
1, 208804, Note_on_c, 9, 49, 0
1, 208919, Note_on_c, 9, 47, 0
1, 208920, Note_on_c, 9, 45, 110
1, 209039, Note_on_c, 9, 45, 0
1, 209040, Note_on_c, 9, 49, 110
1, 209040, Note_on_c, 9, 43, 110
1, 209044, Note_on_c, 9, 49, 0
1, 209160, Note_on_c, 9, 41, 110
1, 209279, Note_on_c, 9, 43, 0
1, 209279, Note_on_c, 9, 41, 0
1, 209280, Note_on_c, 9, 38, 110
1, 209280, Note_on_c, 9, 49, 110
1, 209284, Note_on_c, 9, 49, 0
1, 209399, Note_on_c, 9, 38, 0
1, 209400, Note_on_c, 9, 38, 110
1, 209519, Note_on_c, 9, 38, 0
1, 209520, Note_on_c, 9, 38, 110
1, 209639, Note_on_c, 9, 38, 0
1, 209640, Note_on_c, 9, 38, 110
1, 209759, Note_on_c, 9, 38, 0
1, 209760, Note_on_c, 9, 50, 110
1, 209879, Note_on_c, 9, 50, 0
1, 209880, Note_on_c, 9, 48, 110
1, 209999, Note_on_c, 9, 48, 0
1, 210000, Note_on_c, 9, 47, 110
1, 210119, Note_on_c, 9, 47, 0
1, 210120, Note_on_c, 9, 45, 110
1, 210239, Note_on_c, 9, 45, 0
1, 210240, Note_on_c, 9, 48, 110
1, 210359, Note_on_c, 9, 48, 0
1, 210360, Note_on_c, 9, 47, 110
1, 210479, Note_on_c, 9, 47, 0
1, 210480, Note_on_c, 9, 45, 110
1, 210600, Note_on_c, 9, 43, 110
1, 210719, Note_on_c, 9, 45, 0
1, 210719, Note_on_c, 9, 43, 0
1, 210720, Note_on_c, 9, 47, 110
1, 210720, Note_on_c, 9, 49, 110
1, 210724, Note_on_c, 9, 49, 0
1, 210839, Note_on_c, 9, 47, 0
1, 210840, Note_on_c, 9, 45, 110
1, 210959, Note_on_c, 9, 45, 0
1, 210960, Note_on_c, 9, 49, 110
1, 210960, Note_on_c, 9, 43, 110
1, 210964, Note_on_c, 9, 49, 0
1, 211080, Note_on_c, 9, 41, 110
1, 211199, Note_on_c, 9, 43, 0
1, 211199, Note_on_c, 9, 41, 0
1, 211200, Note_on_c, 9, 38, 110
1, 211200, Note_on_c, 9, 49, 110
1, 211204, Note_on_c, 9, 49, 0
1, 211319, Note_on_c, 9, 38, 0
1, 211320, Note_on_c, 9, 38, 110
1, 211439, Note_on_c, 9, 38, 0
1, 211440, Note_on_c, 9, 38, 110
1, 211559, Note_on_c, 9, 38, 0
1, 211560, Note_on_c, 9, 38, 110
1, 211679, Note_on_c, 9, 38, 0
1, 211680, Note_on_c, 9, 50, 110
1, 211799, Note_on_c, 9, 50, 0
1, 211800, Note_on_c, 9, 48, 110
1, 211919, Note_on_c, 9, 48, 0
1, 211920, Note_on_c, 9, 47, 110
1, 212039, Note_on_c, 9, 47, 0
1, 212040, Note_on_c, 9, 45, 110
1, 212159, Note_on_c, 9, 45, 0
1, 212160, Note_on_c, 9, 48, 110
1, 212279, Note_on_c, 9, 48, 0
1, 212280, Note_on_c, 9, 47, 110
1, 212399, Note_on_c, 9, 47, 0
1, 212400, Note_on_c, 9, 45, 110
1, 212520, Note_on_c, 9, 43, 110
1, 212639, Note_on_c, 9, 45, 0
1, 212639, Note_on_c, 9, 43, 0
1, 212640, Note_on_c, 9, 47, 110
1, 212640, Note_on_c, 9, 49, 110
1, 212644, Note_on_c, 9, 49, 0
1, 212759, Note_on_c, 9, 47, 0
1, 212760, Note_on_c, 9, 45, 110
1, 212879, Note_on_c, 9, 45, 0
1, 212880, Note_on_c, 9, 49, 110
1, 212880, Note_on_c, 9, 43, 110
1, 212884, Note_on_c, 9, 49, 0
1, 213000, Note_on_c, 9, 41, 110
1, 213119, Note_on_c, 9, 43, 0
1, 213119, Note_on_c, 9, 41, 0
1, 213120, Note_on_c, 9, 38, 110
1, 213120, Note_on_c, 9, 49, 110
1, 213124, Note_on_c, 9, 49, 0
1, 213239, Note_on_c, 9, 38, 0
1, 213240, Note_on_c, 9, 38, 110
1, 213359, Note_on_c, 9, 38, 0
1, 213360, Note_on_c, 9, 38, 110
1, 213479, Note_on_c, 9, 38, 0
1, 213480, Note_on_c, 9, 38, 110
1, 213599, Note_on_c, 9, 38, 0
1, 213600, Note_on_c, 9, 50, 110
1, 213719, Note_on_c, 9, 50, 0
1, 213720, Note_on_c, 9, 48, 110
1, 213839, Note_on_c, 9, 48, 0
1, 213840, Note_on_c, 9, 47, 110
1, 213959, Note_on_c, 9, 47, 0
1, 213960, Note_on_c, 9, 45, 110
1, 214079, Note_on_c, 9, 45, 0
1, 214080, Note_on_c, 9, 48, 110
1, 214199, Note_on_c, 9, 48, 0
1, 214200, Note_on_c, 9, 47, 110
1, 214319, Note_on_c, 9, 47, 0
1, 214320, Note_on_c, 9, 45, 110
1, 214440, Note_on_c, 9, 43, 110
1, 214559, Note_on_c, 9, 45, 0
1, 214559, Note_on_c, 9, 43, 0
1, 214560, Note_on_c, 9, 47, 110
1, 214560, Note_on_c, 9, 49, 110
1, 214564, Note_on_c, 9, 49, 0
1, 214679, Note_on_c, 9, 47, 0
1, 214680, Note_on_c, 9, 45, 110
1, 214799, Note_on_c, 9, 45, 0
1, 214800, Note_on_c, 9, 49, 110
1, 214800, Note_on_c, 9, 43, 110
1, 214804, Note_on_c, 9, 49, 0
1, 214920, Note_on_c, 9, 41, 110
1, 215039, Note_on_c, 9, 43, 0
1, 215039, Note_on_c, 9, 41, 0
1, 215040, Tempo, 260870
1, 215040, Note_on_c, 9, 46, 110
1, 215040, Note_on_c, 9, 49, 110
1, 215040, Note_on_c, 9, 36, 110
1, 215083, Note_on_c, 9, 46, 0
1, 215083, Note_on_c, 9, 49, 0
1, 215519, Note_on_c, 9, 36, 0
1, 215520, Note_on_c, 9, 38, 110
1, 215520, Note_on_c, 9, 46, 110
1, 215563, Note_on_c, 9, 46, 0
1, 215760, Note_on_c, 9, 36, 110
1, 215999, Note_on_c, 9, 38, 0
1, 215999, Note_on_c, 9, 36, 0
1, 216000, Note_on_c, 9, 46, 110
1, 216043, Note_on_c, 9, 46, 0
1, 216240, Note_on_c, 9, 36, 110
1, 216479, Note_on_c, 9, 36, 0
1, 216480, Note_on_c, 9, 38, 110
1, 216480, Note_on_c, 9, 46, 110
1, 216523, Note_on_c, 9, 46, 0
1, 216959, Note_on_c, 9, 38, 0
1, 216960, Note_on_c, 9, 46, 110
1, 217003, Note_on_c, 9, 46, 0
1, 217200, Note_on_c, 9, 36, 110
1, 217439, Note_on_c, 9, 36, 0
1, 217440, Note_on_c, 9, 38, 110
1, 217440, Note_on_c, 9, 46, 110
1, 217483, Note_on_c, 9, 46, 0
1, 217919, Note_on_c, 9, 38, 0
1, 217920, Note_on_c, 9, 46, 110
1, 217920, Note_on_c, 9, 36, 110
1, 217963, Note_on_c, 9, 46, 0
1, 218399, Note_on_c, 9, 36, 0
1, 218400, Note_on_c, 9, 38, 110
1, 218400, Note_on_c, 9, 46, 110
1, 218443, Note_on_c, 9, 46, 0
1, 218879, Note_on_c, 9, 38, 0
1, 218880, Note_on_c, 9, 46, 110
1, 218880, Note_on_c, 9, 36, 110
1, 218923, Note_on_c, 9, 46, 0
1, 219359, Note_on_c, 9, 36, 0
1, 219360, Note_on_c, 9, 38, 110
1, 219360, Note_on_c, 9, 46, 110
1, 219403, Note_on_c, 9, 46, 0
1, 219600, Note_on_c, 9, 36, 110
1, 219839, Note_on_c, 9, 38, 0
1, 219839, Note_on_c, 9, 36, 0
1, 219840, Note_on_c, 9, 46, 110
1, 219883, Note_on_c, 9, 46, 0
1, 220080, Note_on_c, 9, 36, 110
1, 220319, Note_on_c, 9, 36, 0
1, 220320, Note_on_c, 9, 38, 110
1, 220320, Note_on_c, 9, 46, 110
1, 220363, Note_on_c, 9, 46, 0
1, 220799, Note_on_c, 9, 38, 0
1, 220800, Note_on_c, 9, 46, 110
1, 220843, Note_on_c, 9, 46, 0
1, 221040, Note_on_c, 9, 36, 110
1, 221279, Note_on_c, 9, 36, 0
1, 221280, Note_on_c, 9, 38, 110
1, 221280, Note_on_c, 9, 46, 110
1, 221280, Note_on_c, 9, 49, 110
1, 221323, Note_on_c, 9, 46, 0
1, 221323, Note_on_c, 9, 49, 0
1, 221759, Note_on_c, 9, 38, 0
1, 221760, Note_on_c, 9, 46, 110
1, 221760, Note_on_c, 9, 36, 110
1, 221803, Note_on_c, 9, 46, 0
1, 222239, Note_on_c, 9, 36, 0
1, 222240, Note_on_c, 9, 38, 110
1, 222240, Note_on_c, 9, 46, 110
1, 222240, Note_on_c, 9, 49, 110
1, 222283, Note_on_c, 9, 46, 0
1, 222283, Note_on_c, 9, 49, 0
1, 222719, Note_on_c, 9, 38, 0
1, 222720, Note_on_c, 9, 46, 110
1, 222720, Note_on_c, 9, 49, 110
1, 222720, Note_on_c, 9, 36, 110
1, 222763, Note_on_c, 9, 46, 0
1, 222763, Note_on_c, 9, 49, 0
1, 223199, Note_on_c, 9, 36, 0
1, 223200, Note_on_c, 9, 38, 110
1, 223200, Note_on_c, 9, 46, 110
1, 223243, Note_on_c, 9, 46, 0
1, 223440, Note_on_c, 9, 36, 110
1, 223679, Note_on_c, 9, 38, 0
1, 223679, Note_on_c, 9, 36, 0
1, 223680, Note_on_c, 9, 46, 110
1, 223723, Note_on_c, 9, 46, 0
1, 223920, Note_on_c, 9, 36, 110
1, 224159, Note_on_c, 9, 36, 0
1, 224160, Note_on_c, 9, 38, 110
1, 224160, Note_on_c, 9, 46, 110
1, 224203, Note_on_c, 9, 46, 0
1, 224639, Note_on_c, 9, 38, 0
1, 224640, Note_on_c, 9, 46, 110
1, 224683, Note_on_c, 9, 46, 0
1, 224880, Note_on_c, 9, 36, 110
1, 225119, Note_on_c, 9, 36, 0
1, 225120, Note_on_c, 9, 38, 110
1, 225120, Note_on_c, 9, 46, 110
1, 225163, Note_on_c, 9, 46, 0
1, 225599, Note_on_c, 9, 38, 0
1, 225600, Note_on_c, 9, 46, 110
1, 225600, Note_on_c, 9, 36, 110
1, 225643, Note_on_c, 9, 46, 0
1, 226079, Note_on_c, 9, 36, 0
1, 226080, Note_on_c, 9, 38, 110
1, 226080, Note_on_c, 9, 46, 110
1, 226123, Note_on_c, 9, 46, 0
1, 226559, Note_on_c, 9, 38, 0
1, 226560, Note_on_c, 9, 46, 110
1, 226560, Note_on_c, 9, 36, 110
1, 226603, Note_on_c, 9, 46, 0
1, 227039, Note_on_c, 9, 36, 0
1, 227040, Note_on_c, 9, 38, 110
1, 227040, Note_on_c, 9, 46, 110
1, 227083, Note_on_c, 9, 46, 0
1, 227280, Note_on_c, 9, 36, 110
1, 227519, Note_on_c, 9, 38, 0
1, 227519, Note_on_c, 9, 36, 0
1, 227520, Note_on_c, 9, 46, 110
1, 227563, Note_on_c, 9, 46, 0
1, 227760, Note_on_c, 9, 36, 110
1, 227999, Note_on_c, 9, 36, 0
1, 228000, Note_on_c, 9, 38, 110
1, 228000, Note_on_c, 9, 46, 110
1, 228043, Note_on_c, 9, 46, 0
1, 228479, Note_on_c, 9, 38, 0
1, 228480, Note_on_c, 9, 46, 110
1, 228523, Note_on_c, 9, 46, 0
1, 228720, Note_on_c, 9, 36, 110
1, 228959, Note_on_c, 9, 36, 0
1, 228960, Note_on_c, 9, 38, 110
1, 228960, Note_on_c, 9, 46, 110
1, 228960, Note_on_c, 9, 49, 110
1, 229003, Note_on_c, 9, 46, 0
1, 229003, Note_on_c, 9, 49, 0
1, 229439, Note_on_c, 9, 38, 0
1, 229440, Note_on_c, 9, 46, 110
1, 229440, Note_on_c, 9, 36, 110
1, 229483, Note_on_c, 9, 46, 0
1, 229919, Note_on_c, 9, 36, 0
1, 229920, Note_on_c, 9, 38, 110
1, 229920, Note_on_c, 9, 46, 110
1, 229920, Note_on_c, 9, 49, 110
1, 229963, Note_on_c, 9, 46, 0
1, 229963, Note_on_c, 9, 49, 0
1, 230399, Note_on_c, 9, 38, 0
1, 230400, Note_on_c, 9, 46, 110
1, 230400, Note_on_c, 9, 49, 110
1, 230400, Note_on_c, 9, 36, 110
1, 230443, Note_on_c, 9, 46, 0
1, 230443, Note_on_c, 9, 49, 0
1, 230879, Note_on_c, 9, 36, 0
1, 230880, Note_on_c, 9, 38, 110
1, 230880, Note_on_c, 9, 46, 110
1, 230923, Note_on_c, 9, 46, 0
1, 231120, Note_on_c, 9, 36, 110
1, 231359, Note_on_c, 9, 38, 0
1, 231359, Note_on_c, 9, 36, 0
1, 231360, Note_on_c, 9, 46, 110
1, 231403, Note_on_c, 9, 46, 0
1, 231600, Note_on_c, 9, 36, 110
1, 231839, Note_on_c, 9, 36, 0
1, 231840, Note_on_c, 9, 38, 110
1, 231840, Note_on_c, 9, 46, 110
1, 231883, Note_on_c, 9, 46, 0
1, 232319, Note_on_c, 9, 38, 0
1, 232320, Note_on_c, 9, 46, 110
1, 232363, Note_on_c, 9, 46, 0
1, 232560, Note_on_c, 9, 36, 110
1, 232799, Note_on_c, 9, 36, 0
1, 232800, Note_on_c, 9, 38, 110
1, 232800, Note_on_c, 9, 46, 110
1, 232843, Note_on_c, 9, 46, 0
1, 233279, Note_on_c, 9, 38, 0
1, 233280, Note_on_c, 9, 46, 110
1, 233280, Note_on_c, 9, 36, 110
1, 233323, Note_on_c, 9, 46, 0
1, 233759, Note_on_c, 9, 36, 0
1, 233760, Note_on_c, 9, 38, 110
1, 233760, Note_on_c, 9, 46, 110
1, 233803, Note_on_c, 9, 46, 0
1, 234239, Note_on_c, 9, 38, 0
1, 234240, Note_on_c, 9, 46, 110
1, 234240, Note_on_c, 9, 36, 110
1, 234283, Note_on_c, 9, 46, 0
1, 234719, Note_on_c, 9, 36, 0
1, 234720, Note_on_c, 9, 38, 110
1, 234720, Note_on_c, 9, 46, 110
1, 234763, Note_on_c, 9, 46, 0
1, 234960, Note_on_c, 9, 36, 110
1, 235199, Note_on_c, 9, 38, 0
1, 235199, Note_on_c, 9, 36, 0
1, 235200, Note_on_c, 9, 46, 110
1, 235243, Note_on_c, 9, 46, 0
1, 235440, Note_on_c, 9, 36, 110
1, 235679, Note_on_c, 9, 36, 0
1, 235680, Note_on_c, 9, 38, 110
1, 235680, Note_on_c, 9, 46, 110
1, 235723, Note_on_c, 9, 46, 0
1, 236159, Note_on_c, 9, 38, 0
1, 236160, Note_on_c, 9, 46, 110
1, 236203, Note_on_c, 9, 46, 0
1, 236400, Note_on_c, 9, 36, 110
1, 236639, Note_on_c, 9, 36, 0
1, 236640, Note_on_c, 9, 38, 110
1, 236640, Note_on_c, 9, 46, 110
1, 236640, Note_on_c, 9, 49, 110
1, 236683, Note_on_c, 9, 46, 0
1, 236683, Note_on_c, 9, 49, 0
1, 237119, Note_on_c, 9, 38, 0
1, 237120, Note_on_c, 9, 46, 110
1, 237120, Note_on_c, 9, 36, 110
1, 237163, Note_on_c, 9, 46, 0
1, 237599, Note_on_c, 9, 36, 0
1, 237600, Note_on_c, 9, 38, 110
1, 237600, Note_on_c, 9, 46, 110
1, 237600, Note_on_c, 9, 49, 110
1, 237643, Note_on_c, 9, 46, 0
1, 237643, Note_on_c, 9, 49, 0
1, 238079, Note_on_c, 9, 38, 0
1, 238080, Note_on_c, 9, 46, 110
1, 238080, Note_on_c, 9, 49, 110
1, 238080, Note_on_c, 9, 36, 110
1, 238123, Note_on_c, 9, 46, 0
1, 238123, Note_on_c, 9, 49, 0
1, 238559, Note_on_c, 9, 36, 0
1, 238560, Note_on_c, 9, 38, 110
1, 238560, Note_on_c, 9, 46, 110
1, 238603, Note_on_c, 9, 46, 0
1, 238800, Note_on_c, 9, 36, 110
1, 239039, Note_on_c, 9, 38, 0
1, 239039, Note_on_c, 9, 36, 0
1, 239040, Note_on_c, 9, 46, 110
1, 239083, Note_on_c, 9, 46, 0
1, 239280, Note_on_c, 9, 36, 110
1, 239519, Note_on_c, 9, 36, 0
1, 239520, Note_on_c, 9, 38, 110
1, 239520, Note_on_c, 9, 46, 110
1, 239563, Note_on_c, 9, 46, 0
1, 239999, Note_on_c, 9, 38, 0
1, 240000, Note_on_c, 9, 46, 110
1, 240043, Note_on_c, 9, 46, 0
1, 240240, Note_on_c, 9, 36, 110
1, 240479, Note_on_c, 9, 36, 0
1, 240480, Note_on_c, 9, 38, 110
1, 240480, Note_on_c, 9, 46, 110
1, 240523, Note_on_c, 9, 46, 0
1, 240959, Note_on_c, 9, 38, 0
1, 240960, Note_on_c, 9, 46, 110
1, 240960, Note_on_c, 9, 36, 110
1, 241003, Note_on_c, 9, 46, 0
1, 241439, Note_on_c, 9, 36, 0
1, 241440, Note_on_c, 9, 38, 110
1, 241440, Note_on_c, 9, 46, 110
1, 241483, Note_on_c, 9, 46, 0
1, 241919, Note_on_c, 9, 38, 0
1, 241920, Note_on_c, 9, 46, 110
1, 241920, Note_on_c, 9, 36, 110
1, 241963, Note_on_c, 9, 46, 0
1, 242399, Note_on_c, 9, 36, 0
1, 242400, Note_on_c, 9, 38, 110
1, 242400, Note_on_c, 9, 46, 110
1, 242443, Note_on_c, 9, 46, 0
1, 242640, Note_on_c, 9, 36, 110
1, 242879, Note_on_c, 9, 38, 0
1, 242879, Note_on_c, 9, 36, 0
1, 242880, Note_on_c, 9, 46, 110
1, 242923, Note_on_c, 9, 46, 0
1, 243120, Note_on_c, 9, 36, 110
1, 243359, Note_on_c, 9, 36, 0
1, 243360, Note_on_c, 9, 38, 110
1, 243360, Note_on_c, 9, 46, 110
1, 243403, Note_on_c, 9, 46, 0
1, 243839, Note_on_c, 9, 38, 0
1, 243840, Note_on_c, 9, 46, 110
1, 243883, Note_on_c, 9, 46, 0
1, 244080, Note_on_c, 9, 36, 110
1, 244319, Note_on_c, 9, 36, 0
1, 244320, Note_on_c, 9, 38, 110
1, 244320, Note_on_c, 9, 46, 110
1, 244320, Note_on_c, 9, 49, 110
1, 244363, Note_on_c, 9, 46, 0
1, 244363, Note_on_c, 9, 49, 0
1, 244799, Note_on_c, 9, 38, 0
1, 244800, Note_on_c, 9, 46, 110
1, 244800, Note_on_c, 9, 36, 110
1, 244843, Note_on_c, 9, 46, 0
1, 245279, Note_on_c, 9, 36, 0
1, 245280, Note_on_c, 9, 38, 110
1, 245280, Note_on_c, 9, 46, 110
1, 245280, Note_on_c, 9, 49, 110
1, 245323, Note_on_c, 9, 46, 0
1, 245323, Note_on_c, 9, 49, 0
1, 245759, Note_on_c, 9, 38, 0
1, 245760, Note_on_c, 9, 46, 110
1, 245760, Note_on_c, 9, 49, 110
1, 245760, Note_on_c, 9, 36, 110
1, 245803, Note_on_c, 9, 46, 0
1, 245803, Note_on_c, 9, 49, 0
1, 246239, Note_on_c, 9, 36, 0
1, 246240, Note_on_c, 9, 38, 110
1, 246240, Note_on_c, 9, 46, 110
1, 246283, Note_on_c, 9, 46, 0
1, 246480, Note_on_c, 9, 36, 110
1, 246719, Note_on_c, 9, 38, 0
1, 246719, Note_on_c, 9, 36, 0
1, 246720, Note_on_c, 9, 46, 110
1, 246763, Note_on_c, 9, 46, 0
1, 246960, Note_on_c, 9, 36, 110
1, 247199, Note_on_c, 9, 36, 0
1, 247200, Note_on_c, 9, 38, 110
1, 247200, Note_on_c, 9, 46, 110
1, 247243, Note_on_c, 9, 46, 0
1, 247679, Note_on_c, 9, 38, 0
1, 247680, Note_on_c, 9, 46, 110
1, 247723, Note_on_c, 9, 46, 0
1, 247920, Note_on_c, 9, 36, 110
1, 248159, Note_on_c, 9, 36, 0
1, 248160, Note_on_c, 9, 38, 110
1, 248160, Note_on_c, 9, 46, 110
1, 248203, Note_on_c, 9, 46, 0
1, 248639, Note_on_c, 9, 38, 0
1, 248640, Note_on_c, 9, 46, 110
1, 248640, Note_on_c, 9, 36, 110
1, 248683, Note_on_c, 9, 46, 0
1, 249119, Note_on_c, 9, 36, 0
1, 249120, Note_on_c, 9, 38, 110
1, 249120, Note_on_c, 9, 46, 110
1, 249163, Note_on_c, 9, 46, 0
1, 249599, Note_on_c, 9, 38, 0
1, 249600, Note_on_c, 9, 46, 110
1, 249600, Note_on_c, 9, 36, 110
1, 249643, Note_on_c, 9, 46, 0
1, 250079, Note_on_c, 9, 36, 0
1, 250080, Note_on_c, 9, 38, 110
1, 250080, Note_on_c, 9, 46, 110
1, 250123, Note_on_c, 9, 46, 0
1, 250320, Note_on_c, 9, 36, 110
1, 250559, Note_on_c, 9, 38, 0
1, 250559, Note_on_c, 9, 36, 0
1, 250560, Note_on_c, 9, 46, 110
1, 250603, Note_on_c, 9, 46, 0
1, 250800, Note_on_c, 9, 36, 110
1, 251039, Note_on_c, 9, 36, 0
1, 251040, Note_on_c, 9, 38, 110
1, 251040, Note_on_c, 9, 46, 110
1, 251083, Note_on_c, 9, 46, 0
1, 251519, Note_on_c, 9, 38, 0
1, 251520, Note_on_c, 9, 46, 110
1, 251563, Note_on_c, 9, 46, 0
1, 251760, Note_on_c, 9, 36, 110
1, 251999, Note_on_c, 9, 36, 0
1, 252000, Note_on_c, 9, 38, 110
1, 252000, Note_on_c, 9, 46, 110
1, 252000, Note_on_c, 9, 49, 110
1, 252043, Note_on_c, 9, 46, 0
1, 252043, Note_on_c, 9, 49, 0
1, 252479, Note_on_c, 9, 38, 0
1, 252480, Note_on_c, 9, 46, 110
1, 252480, Note_on_c, 9, 36, 110
1, 252523, Note_on_c, 9, 46, 0
1, 252959, Note_on_c, 9, 36, 0
1, 252960, Note_on_c, 9, 38, 110
1, 252960, Note_on_c, 9, 46, 110
1, 252960, Note_on_c, 9, 49, 110
1, 253003, Note_on_c, 9, 46, 0
1, 253003, Note_on_c, 9, 49, 0
1, 253439, Note_on_c, 9, 38, 0
1, 253440, Note_on_c, 9, 46, 110
1, 253440, Note_on_c, 9, 49, 110
1, 253440, Note_on_c, 9, 36, 110
1, 253483, Note_on_c, 9, 46, 0
1, 253483, Note_on_c, 9, 49, 0
1, 253919, Note_on_c, 9, 36, 0
1, 253920, Note_on_c, 9, 38, 110
1, 253920, Note_on_c, 9, 46, 110
1, 253963, Note_on_c, 9, 46, 0
1, 254160, Note_on_c, 9, 36, 110
1, 254399, Note_on_c, 9, 38, 0
1, 254399, Note_on_c, 9, 36, 0
1, 254400, Note_on_c, 9, 46, 110
1, 254443, Note_on_c, 9, 46, 0
1, 254640, Note_on_c, 9, 36, 110
1, 254879, Note_on_c, 9, 36, 0
1, 254880, Note_on_c, 9, 38, 110
1, 254880, Note_on_c, 9, 46, 110
1, 254923, Note_on_c, 9, 46, 0
1, 255359, Note_on_c, 9, 38, 0
1, 255360, Note_on_c, 9, 46, 110
1, 255403, Note_on_c, 9, 46, 0
1, 255600, Note_on_c, 9, 36, 110
1, 255839, Note_on_c, 9, 36, 0
1, 255840, Note_on_c, 9, 38, 110
1, 255840, Note_on_c, 9, 46, 110
1, 255883, Note_on_c, 9, 46, 0
1, 256319, Note_on_c, 9, 38, 0
1, 256320, Note_on_c, 9, 46, 110
1, 256320, Note_on_c, 9, 36, 110
1, 256363, Note_on_c, 9, 46, 0
1, 256799, Note_on_c, 9, 36, 0
1, 256800, Note_on_c, 9, 38, 110
1, 256800, Note_on_c, 9, 46, 110
1, 256843, Note_on_c, 9, 46, 0
1, 257279, Note_on_c, 9, 38, 0
1, 257280, Note_on_c, 9, 46, 110
1, 257280, Note_on_c, 9, 36, 110
1, 257323, Note_on_c, 9, 46, 0
1, 257759, Note_on_c, 9, 36, 0
1, 257760, Note_on_c, 9, 38, 110
1, 257760, Note_on_c, 9, 46, 110
1, 257803, Note_on_c, 9, 46, 0
1, 258000, Note_on_c, 9, 36, 110
1, 258239, Note_on_c, 9, 38, 0
1, 258239, Note_on_c, 9, 36, 0
1, 258240, Note_on_c, 9, 46, 110
1, 258283, Note_on_c, 9, 46, 0
1, 258480, Note_on_c, 9, 36, 110
1, 258719, Note_on_c, 9, 36, 0
1, 258720, Note_on_c, 9, 38, 110
1, 258720, Note_on_c, 9, 46, 110
1, 258763, Note_on_c, 9, 46, 0
1, 259199, Note_on_c, 9, 38, 0
1, 259200, Note_on_c, 9, 46, 110
1, 259243, Note_on_c, 9, 46, 0
1, 259440, Note_on_c, 9, 36, 110
1, 259679, Note_on_c, 9, 36, 0
1, 259680, Note_on_c, 9, 38, 110
1, 259680, Note_on_c, 9, 46, 110
1, 259680, Note_on_c, 9, 49, 110
1, 259723, Note_on_c, 9, 46, 0
1, 259723, Note_on_c, 9, 49, 0
1, 260159, Note_on_c, 9, 38, 0
1, 260160, Note_on_c, 9, 46, 110
1, 260160, Note_on_c, 9, 36, 110
1, 260203, Note_on_c, 9, 46, 0
1, 260639, Note_on_c, 9, 36, 0
1, 260640, Note_on_c, 9, 38, 110
1, 260640, Note_on_c, 9, 46, 110
1, 260640, Note_on_c, 9, 49, 110
1, 260683, Note_on_c, 9, 46, 0
1, 260683, Note_on_c, 9, 49, 0
1, 261119, Note_on_c, 9, 38, 0
1, 261120, Note_on_c, 9, 46, 110
1, 261120, Note_on_c, 9, 49, 110
1, 261120, Note_on_c, 9, 36, 110
1, 261163, Note_on_c, 9, 46, 0
1, 261163, Note_on_c, 9, 49, 0
1, 261599, Note_on_c, 9, 36, 0
1, 261600, Note_on_c, 9, 38, 110
1, 261600, Note_on_c, 9, 46, 110
1, 261643, Note_on_c, 9, 46, 0
1, 261840, Note_on_c, 9, 36, 110
1, 262079, Note_on_c, 9, 38, 0
1, 262079, Note_on_c, 9, 36, 0
1, 262080, Note_on_c, 9, 46, 110
1, 262123, Note_on_c, 9, 46, 0
1, 262320, Note_on_c, 9, 36, 110
1, 262559, Note_on_c, 9, 36, 0
1, 262560, Note_on_c, 9, 38, 110
1, 262560, Note_on_c, 9, 46, 110
1, 262603, Note_on_c, 9, 46, 0
1, 263039, Note_on_c, 9, 38, 0
1, 263040, Note_on_c, 9, 46, 110
1, 263083, Note_on_c, 9, 46, 0
1, 263280, Note_on_c, 9, 36, 110
1, 263519, Note_on_c, 9, 36, 0
1, 263520, Note_on_c, 9, 38, 110
1, 263520, Note_on_c, 9, 46, 110
1, 263563, Note_on_c, 9, 46, 0
1, 263999, Note_on_c, 9, 38, 0
1, 264000, Note_on_c, 9, 46, 110
1, 264000, Note_on_c, 9, 36, 110
1, 264043, Note_on_c, 9, 46, 0
1, 264479, Note_on_c, 9, 36, 0
1, 264480, Note_on_c, 9, 38, 110
1, 264480, Note_on_c, 9, 46, 110
1, 264523, Note_on_c, 9, 46, 0
1, 264959, Note_on_c, 9, 38, 0
1, 264960, Note_on_c, 9, 46, 110
1, 264960, Note_on_c, 9, 36, 110
1, 265003, Note_on_c, 9, 46, 0
1, 265439, Note_on_c, 9, 36, 0
1, 265440, Note_on_c, 9, 38, 110
1, 265440, Note_on_c, 9, 46, 110
1, 265483, Note_on_c, 9, 46, 0
1, 265680, Note_on_c, 9, 36, 110
1, 265919, Note_on_c, 9, 38, 0
1, 265919, Note_on_c, 9, 36, 0
1, 265920, Note_on_c, 9, 46, 110
1, 265963, Note_on_c, 9, 46, 0
1, 266160, Note_on_c, 9, 36, 110
1, 266399, Note_on_c, 9, 36, 0
1, 266400, Note_on_c, 9, 38, 110
1, 266400, Note_on_c, 9, 46, 110
1, 266443, Note_on_c, 9, 46, 0
1, 266879, Note_on_c, 9, 38, 0
1, 266880, Note_on_c, 9, 46, 110
1, 266923, Note_on_c, 9, 46, 0
1, 267120, Note_on_c, 9, 36, 110
1, 267359, Note_on_c, 9, 36, 0
1, 267360, Note_on_c, 9, 38, 110
1, 267360, Note_on_c, 9, 46, 110
1, 267360, Note_on_c, 9, 49, 110
1, 267403, Note_on_c, 9, 46, 0
1, 267403, Note_on_c, 9, 49, 0
1, 267839, Note_on_c, 9, 38, 0
1, 267840, Note_on_c, 9, 46, 110
1, 267840, Note_on_c, 9, 36, 110
1, 267883, Note_on_c, 9, 46, 0
1, 268319, Note_on_c, 9, 36, 0
1, 268320, Note_on_c, 9, 38, 110
1, 268320, Note_on_c, 9, 46, 110
1, 268320, Note_on_c, 9, 49, 110
1, 268363, Note_on_c, 9, 46, 0
1, 268363, Note_on_c, 9, 49, 0
1, 268799, Note_on_c, 9, 38, 0
1, 268800, Note_on_c, 9, 46, 110
1, 268800, Note_on_c, 9, 49, 110
1, 268800, Note_on_c, 9, 36, 110
1, 268843, Note_on_c, 9, 46, 0
1, 268843, Note_on_c, 9, 49, 0
1, 269279, Note_on_c, 9, 36, 0
1, 269280, Note_on_c, 9, 38, 110
1, 269280, Note_on_c, 9, 46, 110
1, 269323, Note_on_c, 9, 46, 0
1, 269520, Note_on_c, 9, 36, 110
1, 269759, Note_on_c, 9, 38, 0
1, 269759, Note_on_c, 9, 36, 0
1, 269760, Note_on_c, 9, 46, 110
1, 269803, Note_on_c, 9, 46, 0
1, 270000, Note_on_c, 9, 36, 110
1, 270239, Note_on_c, 9, 36, 0
1, 270240, Note_on_c, 9, 38, 110
1, 270240, Note_on_c, 9, 46, 110
1, 270283, Note_on_c, 9, 46, 0
1, 270719, Note_on_c, 9, 38, 0
1, 270720, Note_on_c, 9, 46, 110
1, 270763, Note_on_c, 9, 46, 0
1, 270960, Note_on_c, 9, 36, 110
1, 271199, Note_on_c, 9, 36, 0
1, 271200, Note_on_c, 9, 38, 110
1, 271200, Note_on_c, 9, 46, 110
1, 271243, Note_on_c, 9, 46, 0
1, 271679, Note_on_c, 9, 38, 0
1, 271680, Note_on_c, 9, 46, 110
1, 271680, Note_on_c, 9, 36, 110
1, 271723, Note_on_c, 9, 46, 0
1, 272159, Note_on_c, 9, 36, 0
1, 272160, Note_on_c, 9, 38, 110
1, 272160, Note_on_c, 9, 46, 110
1, 272203, Note_on_c, 9, 46, 0
1, 272639, Note_on_c, 9, 38, 0
1, 272640, Note_on_c, 9, 46, 110
1, 272640, Note_on_c, 9, 36, 110
1, 272683, Note_on_c, 9, 46, 0
1, 273119, Note_on_c, 9, 36, 0
1, 273120, Note_on_c, 9, 38, 110
1, 273120, Note_on_c, 9, 46, 110
1, 273163, Note_on_c, 9, 46, 0
1, 273360, Note_on_c, 9, 36, 110
1, 273599, Note_on_c, 9, 38, 0
1, 273599, Note_on_c, 9, 36, 0
1, 273600, Note_on_c, 9, 46, 110
1, 273643, Note_on_c, 9, 46, 0
1, 273840, Note_on_c, 9, 36, 110
1, 274079, Note_on_c, 9, 36, 0
1, 274080, Note_on_c, 9, 38, 110
1, 274080, Note_on_c, 9, 46, 110
1, 274123, Note_on_c, 9, 46, 0
1, 274559, Note_on_c, 9, 38, 0
1, 274560, Note_on_c, 9, 46, 110
1, 274603, Note_on_c, 9, 46, 0
1, 274800, Note_on_c, 9, 36, 110
1, 275039, Note_on_c, 9, 36, 0
1, 275040, Note_on_c, 9, 38, 110
1, 275040, Note_on_c, 9, 46, 110
1, 275040, Note_on_c, 9, 49, 110
1, 275083, Note_on_c, 9, 46, 0
1, 275083, Note_on_c, 9, 49, 0
1, 275519, Note_on_c, 9, 38, 0
1, 275520, Note_on_c, 9, 46, 110
1, 275520, Note_on_c, 9, 36, 110
1, 275563, Note_on_c, 9, 46, 0
1, 275999, Note_on_c, 9, 36, 0
1, 276000, Note_on_c, 9, 38, 110
1, 276000, Note_on_c, 9, 46, 110
1, 276000, Note_on_c, 9, 49, 110
1, 276043, Note_on_c, 9, 46, 0
1, 276043, Note_on_c, 9, 49, 0
1, 276479, Note_on_c, 9, 38, 0
1, 276480, Note_on_c, 9, 46, 110
1, 276480, Note_on_c, 9, 49, 110
1, 276480, Note_on_c, 9, 36, 110
1, 276523, Note_on_c, 9, 46, 0
1, 276523, Note_on_c, 9, 49, 0
1, 276959, Note_on_c, 9, 36, 0
1, 276960, Note_on_c, 9, 38, 110
1, 276960, Note_on_c, 9, 46, 110
1, 277003, Note_on_c, 9, 46, 0
1, 277200, Note_on_c, 9, 36, 110
1, 277439, Note_on_c, 9, 38, 0
1, 277439, Note_on_c, 9, 36, 0
1, 277440, Note_on_c, 9, 46, 110
1, 277483, Note_on_c, 9, 46, 0
1, 277680, Note_on_c, 9, 36, 110
1, 277919, Note_on_c, 9, 36, 0
1, 277920, Note_on_c, 9, 38, 110
1, 277920, Note_on_c, 9, 46, 110
1, 277963, Note_on_c, 9, 46, 0
1, 278399, Note_on_c, 9, 38, 0
1, 278400, Note_on_c, 9, 46, 110
1, 278443, Note_on_c, 9, 46, 0
1, 278640, Note_on_c, 9, 36, 110
1, 278879, Note_on_c, 9, 36, 0
1, 278880, Note_on_c, 9, 38, 110
1, 278880, Note_on_c, 9, 46, 110
1, 278923, Note_on_c, 9, 46, 0
1, 279359, Note_on_c, 9, 38, 0
1, 279360, Note_on_c, 9, 46, 110
1, 279360, Note_on_c, 9, 36, 110
1, 279403, Note_on_c, 9, 46, 0
1, 279839, Note_on_c, 9, 36, 0
1, 279840, Note_on_c, 9, 38, 110
1, 279840, Note_on_c, 9, 46, 110
1, 279883, Note_on_c, 9, 46, 0
1, 280319, Note_on_c, 9, 38, 0
1, 280320, Note_on_c, 9, 46, 110
1, 280320, Note_on_c, 9, 36, 110
1, 280363, Note_on_c, 9, 46, 0
1, 280799, Note_on_c, 9, 36, 0
1, 280800, Note_on_c, 9, 38, 110
1, 280800, Note_on_c, 9, 46, 110
1, 280843, Note_on_c, 9, 46, 0
1, 281040, Note_on_c, 9, 36, 110
1, 281279, Note_on_c, 9, 38, 0
1, 281279, Note_on_c, 9, 36, 0
1, 281280, Note_on_c, 9, 46, 110
1, 281323, Note_on_c, 9, 46, 0
1, 281520, Note_on_c, 9, 36, 110
1, 281759, Note_on_c, 9, 36, 0
1, 281760, Note_on_c, 9, 38, 110
1, 281760, Note_on_c, 9, 46, 110
1, 281803, Note_on_c, 9, 46, 0
1, 282239, Note_on_c, 9, 38, 0
1, 282240, Note_on_c, 9, 46, 110
1, 282283, Note_on_c, 9, 46, 0
1, 282480, Note_on_c, 9, 36, 110
1, 282719, Note_on_c, 9, 36, 0
1, 282720, Note_on_c, 9, 38, 110
1, 282720, Note_on_c, 9, 46, 110
1, 282720, Note_on_c, 9, 49, 110
1, 282763, Note_on_c, 9, 46, 0
1, 282763, Note_on_c, 9, 49, 0
1, 283199, Note_on_c, 9, 38, 0
1, 283200, Note_on_c, 9, 46, 110
1, 283200, Note_on_c, 9, 36, 110
1, 283243, Note_on_c, 9, 46, 0
1, 283679, Note_on_c, 9, 36, 0
1, 283680, Note_on_c, 9, 38, 110
1, 283680, Note_on_c, 9, 46, 110
1, 283680, Note_on_c, 9, 49, 110
1, 283723, Note_on_c, 9, 46, 0
1, 283723, Note_on_c, 9, 49, 0
1, 284159, Note_on_c, 9, 38, 0
1, 284160, Note_on_c, 9, 46, 110
1, 284160, Note_on_c, 9, 49, 110
1, 284160, Note_on_c, 9, 36, 110
1, 284203, Note_on_c, 9, 46, 0
1, 284203, Note_on_c, 9, 49, 0
1, 284639, Note_on_c, 9, 36, 0
1, 284640, Note_on_c, 9, 38, 110
1, 284640, Note_on_c, 9, 46, 110
1, 284683, Note_on_c, 9, 46, 0
1, 284880, Note_on_c, 9, 36, 110
1, 285119, Note_on_c, 9, 38, 0
1, 285119, Note_on_c, 9, 36, 0
1, 285120, Note_on_c, 9, 46, 110
1, 285163, Note_on_c, 9, 46, 0
1, 285360, Note_on_c, 9, 36, 110
1, 285599, Note_on_c, 9, 36, 0
1, 285600, Note_on_c, 9, 38, 110
1, 285600, Note_on_c, 9, 46, 110
1, 285643, Note_on_c, 9, 46, 0
1, 286079, Note_on_c, 9, 38, 0
1, 286080, Note_on_c, 9, 46, 110
1, 286123, Note_on_c, 9, 46, 0
1, 286320, Note_on_c, 9, 36, 110
1, 286559, Note_on_c, 9, 36, 0
1, 286560, Note_on_c, 9, 38, 110
1, 286560, Note_on_c, 9, 46, 110
1, 286603, Note_on_c, 9, 46, 0
1, 287039, Note_on_c, 9, 38, 0
1, 287040, Note_on_c, 9, 46, 110
1, 287040, Note_on_c, 9, 36, 110
1, 287083, Note_on_c, 9, 46, 0
1, 287519, Note_on_c, 9, 36, 0
1, 287520, Note_on_c, 9, 38, 110
1, 287520, Note_on_c, 9, 46, 110
1, 287563, Note_on_c, 9, 46, 0
1, 287999, Note_on_c, 9, 38, 0
1, 288000, Note_on_c, 9, 46, 110
1, 288000, Note_on_c, 9, 36, 110
1, 288043, Note_on_c, 9, 46, 0
1, 288479, Note_on_c, 9, 36, 0
1, 288480, Note_on_c, 9, 38, 110
1, 288480, Note_on_c, 9, 46, 110
1, 288523, Note_on_c, 9, 46, 0
1, 288720, Note_on_c, 9, 36, 110
1, 288959, Note_on_c, 9, 38, 0
1, 288959, Note_on_c, 9, 36, 0
1, 288960, Note_on_c, 9, 46, 110
1, 289003, Note_on_c, 9, 46, 0
1, 289200, Note_on_c, 9, 36, 110
1, 289439, Note_on_c, 9, 36, 0
1, 289440, Note_on_c, 9, 38, 110
1, 289440, Note_on_c, 9, 46, 110
1, 289483, Note_on_c, 9, 46, 0
1, 289919, Note_on_c, 9, 38, 0
1, 289920, Note_on_c, 9, 46, 110
1, 289963, Note_on_c, 9, 46, 0
1, 290160, Note_on_c, 9, 36, 110
1, 290399, Note_on_c, 9, 36, 0
1, 290400, Note_on_c, 9, 38, 110
1, 290400, Note_on_c, 9, 46, 110
1, 290400, Note_on_c, 9, 49, 110
1, 290443, Note_on_c, 9, 46, 0
1, 290443, Note_on_c, 9, 49, 0
1, 290879, Note_on_c, 9, 38, 0
1, 290880, Note_on_c, 9, 46, 110
1, 290880, Note_on_c, 9, 36, 110
1, 290923, Note_on_c, 9, 46, 0
1, 291359, Note_on_c, 9, 36, 0
1, 291360, Note_on_c, 9, 38, 110
1, 291360, Note_on_c, 9, 46, 110
1, 291360, Note_on_c, 9, 49, 110
1, 291403, Note_on_c, 9, 46, 0
1, 291403, Note_on_c, 9, 49, 0
1, 291839, Note_on_c, 9, 38, 0
1, 291840, Note_on_c, 9, 46, 110
1, 291840, Note_on_c, 9, 49, 110
1, 291840, Note_on_c, 9, 36, 110
1, 291883, Note_on_c, 9, 46, 0
1, 291883, Note_on_c, 9, 49, 0
1, 292319, Note_on_c, 9, 36, 0
1, 292320, Note_on_c, 9, 38, 110
1, 292320, Note_on_c, 9, 46, 110
1, 292363, Note_on_c, 9, 46, 0
1, 292560, Note_on_c, 9, 36, 110
1, 292799, Note_on_c, 9, 38, 0
1, 292799, Note_on_c, 9, 36, 0
1, 292800, Note_on_c, 9, 46, 110
1, 292843, Note_on_c, 9, 46, 0
1, 293040, Note_on_c, 9, 36, 110
1, 293279, Note_on_c, 9, 36, 0
1, 293280, Note_on_c, 9, 38, 110
1, 293280, Note_on_c, 9, 46, 110
1, 293323, Note_on_c, 9, 46, 0
1, 293759, Note_on_c, 9, 38, 0
1, 293760, Note_on_c, 9, 46, 110
1, 293803, Note_on_c, 9, 46, 0
1, 294000, Note_on_c, 9, 36, 110
1, 294239, Note_on_c, 9, 36, 0
1, 294240, Note_on_c, 9, 38, 110
1, 294240, Note_on_c, 9, 46, 110
1, 294283, Note_on_c, 9, 46, 0
1, 294719, Note_on_c, 9, 38, 0
1, 294720, Note_on_c, 9, 46, 110
1, 294720, Note_on_c, 9, 36, 110
1, 294763, Note_on_c, 9, 46, 0
1, 295199, Note_on_c, 9, 36, 0
1, 295200, Note_on_c, 9, 38, 110
1, 295200, Note_on_c, 9, 46, 110
1, 295243, Note_on_c, 9, 46, 0
1, 295679, Note_on_c, 9, 38, 0
1, 295680, Note_on_c, 9, 46, 110
1, 295680, Note_on_c, 9, 36, 110
1, 295723, Note_on_c, 9, 46, 0
1, 296159, Note_on_c, 9, 36, 0
1, 296160, Note_on_c, 9, 38, 110
1, 296160, Note_on_c, 9, 46, 110
1, 296203, Note_on_c, 9, 46, 0
1, 296400, Note_on_c, 9, 36, 110
1, 296639, Note_on_c, 9, 38, 0
1, 296639, Note_on_c, 9, 36, 0
1, 296640, Note_on_c, 9, 46, 110
1, 296683, Note_on_c, 9, 46, 0
1, 296880, Note_on_c, 9, 36, 110
1, 297119, Note_on_c, 9, 36, 0
1, 297120, Note_on_c, 9, 38, 110
1, 297120, Note_on_c, 9, 46, 110
1, 297163, Note_on_c, 9, 46, 0
1, 297599, Note_on_c, 9, 38, 0
1, 297600, Note_on_c, 9, 46, 110
1, 297643, Note_on_c, 9, 46, 0
1, 297840, Note_on_c, 9, 36, 110
1, 298079, Note_on_c, 9, 36, 0
1, 298080, Note_on_c, 9, 38, 110
1, 298080, Note_on_c, 9, 46, 110
1, 298080, Note_on_c, 9, 49, 110
1, 298123, Note_on_c, 9, 46, 0
1, 298123, Note_on_c, 9, 49, 0
1, 298559, Note_on_c, 9, 38, 0
1, 298560, Note_on_c, 9, 46, 110
1, 298560, Note_on_c, 9, 36, 110
1, 298603, Note_on_c, 9, 46, 0
1, 299039, Note_on_c, 9, 36, 0
1, 299040, Note_on_c, 9, 38, 110
1, 299040, Note_on_c, 9, 46, 110
1, 299040, Note_on_c, 9, 49, 110
1, 299083, Note_on_c, 9, 46, 0
1, 299083, Note_on_c, 9, 49, 0
1, 299519, Note_on_c, 9, 38, 0
1, 299520, Note_on_c, 9, 46, 110
1, 299520, Note_on_c, 9, 49, 110
1, 299520, Note_on_c, 9, 36, 110
1, 299563, Note_on_c, 9, 46, 0
1, 299563, Note_on_c, 9, 49, 0
1, 299999, Note_on_c, 9, 36, 0
1, 300000, Note_on_c, 9, 38, 110
1, 300000, Note_on_c, 9, 46, 110
1, 300043, Note_on_c, 9, 46, 0
1, 300240, Note_on_c, 9, 36, 110
1, 300479, Note_on_c, 9, 38, 0
1, 300479, Note_on_c, 9, 36, 0
1, 300480, Note_on_c, 9, 46, 110
1, 300523, Note_on_c, 9, 46, 0
1, 300720, Note_on_c, 9, 36, 110
1, 300959, Note_on_c, 9, 36, 0
1, 300960, Note_on_c, 9, 38, 110
1, 300960, Note_on_c, 9, 46, 110
1, 301003, Note_on_c, 9, 46, 0
1, 301439, Note_on_c, 9, 38, 0
1, 301440, Note_on_c, 9, 46, 110
1, 301483, Note_on_c, 9, 46, 0
1, 301680, Note_on_c, 9, 36, 110
1, 301919, Note_on_c, 9, 36, 0
1, 301920, Note_on_c, 9, 38, 110
1, 301920, Note_on_c, 9, 46, 110
1, 301963, Note_on_c, 9, 46, 0
1, 302399, Note_on_c, 9, 38, 0
1, 302400, Note_on_c, 9, 46, 110
1, 302400, Note_on_c, 9, 36, 110
1, 302443, Note_on_c, 9, 46, 0
1, 302879, Note_on_c, 9, 36, 0
1, 302880, Note_on_c, 9, 38, 110
1, 302880, Note_on_c, 9, 46, 110
1, 302923, Note_on_c, 9, 46, 0
1, 303359, Note_on_c, 9, 38, 0
1, 303360, Note_on_c, 9, 46, 110
1, 303360, Note_on_c, 9, 36, 110
1, 303403, Note_on_c, 9, 46, 0
1, 303839, Note_on_c, 9, 36, 0
1, 303840, Note_on_c, 9, 38, 110
1, 303840, Note_on_c, 9, 46, 110
1, 303883, Note_on_c, 9, 46, 0
1, 304080, Note_on_c, 9, 36, 110
1, 304319, Note_on_c, 9, 38, 0
1, 304319, Note_on_c, 9, 36, 0
1, 304320, Note_on_c, 9, 46, 110
1, 304363, Note_on_c, 9, 46, 0
1, 304560, Note_on_c, 9, 36, 110
1, 304799, Note_on_c, 9, 36, 0
1, 304800, Note_on_c, 9, 38, 110
1, 304800, Note_on_c, 9, 46, 110
1, 304843, Note_on_c, 9, 46, 0
1, 305279, Note_on_c, 9, 38, 0
1, 305280, Note_on_c, 9, 46, 110
1, 305323, Note_on_c, 9, 46, 0
1, 305520, Note_on_c, 9, 36, 110
1, 305759, Note_on_c, 9, 36, 0
1, 305760, Note_on_c, 9, 38, 110
1, 305760, Note_on_c, 9, 46, 110
1, 305760, Note_on_c, 9, 49, 110
1, 305803, Note_on_c, 9, 46, 0
1, 305803, Note_on_c, 9, 49, 0
1, 306239, Note_on_c, 9, 38, 0
1, 306240, Note_on_c, 9, 46, 110
1, 306240, Note_on_c, 9, 36, 110
1, 306283, Note_on_c, 9, 46, 0
1, 306719, Note_on_c, 9, 36, 0
1, 306720, Note_on_c, 9, 38, 110
1, 306720, Note_on_c, 9, 46, 110
1, 306720, Note_on_c, 9, 49, 110
1, 306763, Note_on_c, 9, 46, 0
1, 306763, Note_on_c, 9, 49, 0
1, 307199, Note_on_c, 9, 38, 0
1, 307200, Note_on_c, 9, 46, 110
1, 307200, Note_on_c, 9, 49, 110
1, 307200, Note_on_c, 9, 36, 110
1, 307243, Note_on_c, 9, 46, 0
1, 307243, Note_on_c, 9, 49, 0
1, 307679, Note_on_c, 9, 36, 0
1, 307680, Note_on_c, 9, 38, 110
1, 307680, Note_on_c, 9, 46, 110
1, 307723, Note_on_c, 9, 46, 0
1, 307920, Note_on_c, 9, 36, 110
1, 308159, Note_on_c, 9, 38, 0
1, 308159, Note_on_c, 9, 36, 0
1, 308160, Note_on_c, 9, 46, 110
1, 308203, Note_on_c, 9, 46, 0
1, 308400, Note_on_c, 9, 36, 110
1, 308639, Note_on_c, 9, 36, 0
1, 308640, Note_on_c, 9, 38, 110
1, 308640, Note_on_c, 9, 46, 110
1, 308683, Note_on_c, 9, 46, 0
1, 309119, Note_on_c, 9, 38, 0
1, 309120, Note_on_c, 9, 46, 110
1, 309163, Note_on_c, 9, 46, 0
1, 309360, Note_on_c, 9, 36, 110
1, 309599, Note_on_c, 9, 36, 0
1, 309600, Note_on_c, 9, 38, 110
1, 309600, Note_on_c, 9, 46, 110
1, 309643, Note_on_c, 9, 46, 0
1, 310079, Note_on_c, 9, 38, 0
1, 310080, Note_on_c, 9, 46, 110
1, 310080, Note_on_c, 9, 36, 110
1, 310123, Note_on_c, 9, 46, 0
1, 310559, Note_on_c, 9, 36, 0
1, 310560, Note_on_c, 9, 38, 110
1, 310560, Note_on_c, 9, 46, 110
1, 310603, Note_on_c, 9, 46, 0
1, 311039, Note_on_c, 9, 38, 0
1, 311040, Note_on_c, 9, 46, 110
1, 311040, Note_on_c, 9, 49, 110
1, 311040, Note_on_c, 9, 36, 110
1, 311083, Note_on_c, 9, 46, 0
1, 311083, Note_on_c, 9, 49, 0
1, 311519, Note_on_c, 9, 36, 0
1, 311520, Note_on_c, 9, 38, 110
1, 311520, Note_on_c, 9, 46, 110
1, 311563, Note_on_c, 9, 46, 0
1, 311760, Note_on_c, 9, 36, 110
1, 311999, Note_on_c, 9, 38, 0
1, 311999, Note_on_c, 9, 36, 0
1, 312000, Note_on_c, 9, 46, 110
1, 312043, Note_on_c, 9, 46, 0
1, 312240, Note_on_c, 9, 36, 110
1, 312479, Note_on_c, 9, 36, 0
1, 312480, Note_on_c, 9, 38, 110
1, 312480, Note_on_c, 9, 46, 110
1, 312523, Note_on_c, 9, 46, 0
1, 312959, Note_on_c, 9, 38, 0
1, 312960, Note_on_c, 9, 46, 110
1, 313003, Note_on_c, 9, 46, 0
1, 313200, Note_on_c, 9, 36, 110
1, 313439, Note_on_c, 9, 36, 0
1, 313440, Note_on_c, 9, 38, 110
1, 313440, Note_on_c, 9, 46, 110
1, 313483, Note_on_c, 9, 46, 0
1, 313919, Note_on_c, 9, 38, 0
1, 313920, Note_on_c, 9, 46, 110
1, 313920, Note_on_c, 9, 36, 110
1, 313941, Note_on_c, 9, 46, 0
1, 314160, Note_on_c, 9, 38, 110
1, 314399, Note_on_c, 9, 36, 0
1, 314399, Note_on_c, 9, 38, 0
1, 314400, Note_on_c, 9, 38, 110
1, 314400, Note_on_c, 9, 46, 110
1, 314421, Note_on_c, 9, 46, 0
1, 314639, Note_on_c, 9, 38, 0
1, 314640, Note_on_c, 9, 49, 110
1, 314640, Note_on_c, 9, 36, 110
1, 314661, Note_on_c, 9, 49, 0
1, 314879, Note_on_c, 9, 36, 0
1, 315120, Note_on_c, 9, 38, 110
1, 315359, Note_on_c, 9, 38, 0
1, 315360, Note_on_c, 9, 38, 110
1, 315599, Note_on_c, 9, 38, 0
1, 315600, Note_on_c, 9, 49, 110
1, 315600, Note_on_c, 9, 36, 110
1, 315621, Note_on_c, 9, 49, 0
1, 315839, Note_on_c, 9, 36, 0
1, 316080, Note_on_c, 9, 38, 110
1, 316319, Note_on_c, 9, 38, 0
1, 316320, Note_on_c, 9, 38, 110
1, 316559, Note_on_c, 9, 38, 0
1, 316560, Note_on_c, 9, 49, 110
1, 316560, Note_on_c, 9, 36, 110
1, 316581, Note_on_c, 9, 49, 0
1, 316799, Note_on_c, 9, 36, 0
1, 317040, Note_on_c, 9, 38, 110
1, 317279, Note_on_c, 9, 38, 0
1, 317280, Note_on_c, 9, 38, 110
1, 317519, Note_on_c, 9, 38, 0
1, 317520, Note_on_c, 9, 49, 110
1, 317520, Note_on_c, 9, 36, 110
1, 317541, Note_on_c, 9, 49, 0
1, 317759, Note_on_c, 9, 36, 0
1, 318000, Note_on_c, 9, 38, 110
1, 318239, Note_on_c, 9, 38, 0
1, 318240, Note_on_c, 9, 38, 110
1, 318479, Note_on_c, 9, 38, 0
1, 318480, Note_on_c, 9, 49, 110
1, 318480, Note_on_c, 9, 36, 110
1, 318501, Note_on_c, 9, 49, 0
1, 318719, Note_on_c, 9, 36, 0
1, 318960, Note_on_c, 9, 36, 110
1, 319199, Note_on_c, 9, 36, 0
1, 319200, Note_on_c, 9, 38, 110
1, 319200, Note_on_c, 9, 46, 110
1, 319243, Note_on_c, 9, 46, 0
1, 319679, Note_on_c, 9, 38, 0
1, 319680, Note_on_c, 9, 46, 110
1, 319723, Note_on_c, 9, 46, 0
1, 319920, Note_on_c, 9, 36, 110
1, 320159, Note_on_c, 9, 36, 0
1, 320160, Note_on_c, 9, 38, 110
1, 320160, Note_on_c, 9, 46, 110
1, 320203, Note_on_c, 9, 46, 0
1, 320639, Note_on_c, 9, 38, 0
1, 320640, Note_on_c, 9, 46, 110
1, 320683, Note_on_c, 9, 46, 0
1, 320880, Note_on_c, 9, 36, 110
1, 321119, Note_on_c, 9, 36, 0
1, 321120, Note_on_c, 9, 38, 110
1, 321120, Note_on_c, 9, 46, 110
1, 321163, Note_on_c, 9, 46, 0
1, 321599, Note_on_c, 9, 38, 0
1, 321600, Note_on_c, 9, 46, 110
1, 321600, Note_on_c, 9, 36, 110
1, 321643, Note_on_c, 9, 46, 0
1, 322079, Note_on_c, 9, 36, 0
1, 322080, Note_on_c, 9, 38, 110
1, 322080, Note_on_c, 9, 46, 110
1, 322123, Note_on_c, 9, 46, 0
1, 322559, Note_on_c, 9, 38, 0
1, 322560, Note_on_c, 9, 46, 110
1, 322560, Note_on_c, 9, 49, 110
1, 322560, Note_on_c, 9, 36, 110
1, 322603, Note_on_c, 9, 46, 0
1, 322603, Note_on_c, 9, 49, 0
1, 323039, Note_on_c, 9, 36, 0
1, 323040, Note_on_c, 9, 38, 110
1, 323040, Note_on_c, 9, 46, 110
1, 323083, Note_on_c, 9, 46, 0
1, 323280, Note_on_c, 9, 36, 110
1, 323519, Note_on_c, 9, 38, 0
1, 323519, Note_on_c, 9, 36, 0
1, 323520, Note_on_c, 9, 46, 110
1, 323563, Note_on_c, 9, 46, 0
1, 323760, Note_on_c, 9, 36, 110
1, 323999, Note_on_c, 9, 36, 0
1, 324000, Note_on_c, 9, 38, 110
1, 324000, Note_on_c, 9, 46, 110
1, 324043, Note_on_c, 9, 46, 0
1, 324479, Note_on_c, 9, 38, 0
1, 324480, Note_on_c, 9, 46, 110
1, 324523, Note_on_c, 9, 46, 0
1, 324720, Note_on_c, 9, 36, 110
1, 324959, Note_on_c, 9, 36, 0
1, 324960, Note_on_c, 9, 38, 110
1, 324960, Note_on_c, 9, 46, 110
1, 325003, Note_on_c, 9, 46, 0
1, 325439, Note_on_c, 9, 38, 0
1, 325440, Note_on_c, 9, 46, 110
1, 325440, Note_on_c, 9, 36, 110
1, 325461, Note_on_c, 9, 46, 0
1, 325680, Note_on_c, 9, 38, 110
1, 325919, Note_on_c, 9, 36, 0
1, 325919, Note_on_c, 9, 38, 0
1, 325920, Note_on_c, 9, 38, 110
1, 325920, Note_on_c, 9, 46, 110
1, 325941, Note_on_c, 9, 46, 0
1, 326159, Note_on_c, 9, 38, 0
1, 326160, Note_on_c, 9, 49, 110
1, 326160, Note_on_c, 9, 36, 110
1, 326181, Note_on_c, 9, 49, 0
1, 326399, Note_on_c, 9, 36, 0
1, 326640, Note_on_c, 9, 38, 110
1, 326879, Note_on_c, 9, 38, 0
1, 326880, Note_on_c, 9, 38, 110
1, 327119, Note_on_c, 9, 38, 0
1, 327120, Note_on_c, 9, 49, 110
1, 327120, Note_on_c, 9, 36, 110
1, 327141, Note_on_c, 9, 49, 0
1, 327359, Note_on_c, 9, 36, 0
1, 327600, Note_on_c, 9, 38, 110
1, 327839, Note_on_c, 9, 38, 0
1, 327840, Note_on_c, 9, 38, 110
1, 328079, Note_on_c, 9, 38, 0
1, 328080, Note_on_c, 9, 49, 110
1, 328080, Note_on_c, 9, 36, 110
1, 328101, Note_on_c, 9, 49, 0
1, 328319, Note_on_c, 9, 36, 0
1, 328560, Note_on_c, 9, 38, 110
1, 328799, Note_on_c, 9, 38, 0
1, 328800, Note_on_c, 9, 38, 110
1, 329039, Note_on_c, 9, 38, 0
1, 329040, Note_on_c, 9, 49, 110
1, 329040, Note_on_c, 9, 36, 110
1, 329061, Note_on_c, 9, 49, 0
1, 329279, Note_on_c, 9, 36, 0
1, 329520, Note_on_c, 9, 38, 110
1, 329759, Note_on_c, 9, 38, 0
1, 329760, Note_on_c, 9, 38, 110
1, 329999, Note_on_c, 9, 38, 0
1, 330000, Note_on_c, 9, 49, 110
1, 330000, Note_on_c, 9, 36, 110
1, 330021, Note_on_c, 9, 49, 0
1, 330239, Note_on_c, 9, 36, 0
1, 330480, Note_on_c, 9, 36, 110
1, 330719, Note_on_c, 9, 36, 0
1, 330720, Note_on_c, 9, 38, 110
1, 330720, Note_on_c, 9, 46, 110
1, 330763, Note_on_c, 9, 46, 0
1, 331199, Note_on_c, 9, 38, 0
1, 331200, Note_on_c, 9, 46, 110
1, 331243, Note_on_c, 9, 46, 0
1, 331440, Note_on_c, 9, 36, 110
1, 331679, Note_on_c, 9, 36, 0
1, 331680, Note_on_c, 9, 38, 110
1, 331680, Note_on_c, 9, 46, 110
1, 331723, Note_on_c, 9, 46, 0
1, 332159, Note_on_c, 9, 38, 0
1, 332160, Note_on_c, 9, 46, 110
1, 332203, Note_on_c, 9, 46, 0
1, 332400, Note_on_c, 9, 36, 110
1, 332639, Note_on_c, 9, 36, 0
1, 332640, Note_on_c, 9, 38, 110
1, 332640, Note_on_c, 9, 46, 110
1, 332683, Note_on_c, 9, 46, 0
1, 333119, Note_on_c, 9, 38, 0
1, 333120, Note_on_c, 9, 46, 110
1, 333120, Note_on_c, 9, 36, 110
1, 333163, Note_on_c, 9, 46, 0
1, 333599, Note_on_c, 9, 36, 0
1, 333600, Note_on_c, 9, 38, 110
1, 333600, Note_on_c, 9, 46, 110
1, 333643, Note_on_c, 9, 46, 0
1, 334079, Note_on_c, 9, 38, 0
1, 334080, Note_on_c, 9, 46, 110
1, 334080, Note_on_c, 9, 49, 110
1, 334080, Note_on_c, 9, 36, 110
1, 334123, Note_on_c, 9, 46, 0
1, 334123, Note_on_c, 9, 49, 0
1, 334559, Note_on_c, 9, 36, 0
1, 334560, Note_on_c, 9, 38, 110
1, 334560, Note_on_c, 9, 46, 110
1, 334603, Note_on_c, 9, 46, 0
1, 334800, Note_on_c, 9, 36, 110
1, 335039, Note_on_c, 9, 38, 0
1, 335039, Note_on_c, 9, 36, 0
1, 335040, Note_on_c, 9, 46, 110
1, 335083, Note_on_c, 9, 46, 0
1, 335280, Note_on_c, 9, 36, 110
1, 335519, Note_on_c, 9, 36, 0
1, 335520, Note_on_c, 9, 38, 110
1, 335520, Note_on_c, 9, 46, 110
1, 335563, Note_on_c, 9, 46, 0
1, 335999, Note_on_c, 9, 38, 0
1, 336000, Note_on_c, 9, 46, 110
1, 336043, Note_on_c, 9, 46, 0
1, 336240, Note_on_c, 9, 36, 110
1, 336479, Note_on_c, 9, 36, 0
1, 336480, Note_on_c, 9, 38, 110
1, 336480, Note_on_c, 9, 46, 110
1, 336523, Note_on_c, 9, 46, 0
1, 336959, Note_on_c, 9, 38, 0
1, 336960, Note_on_c, 9, 46, 110
1, 336960, Note_on_c, 9, 36, 110
1, 336981, Note_on_c, 9, 46, 0
1, 337200, Note_on_c, 9, 38, 110
1, 337439, Note_on_c, 9, 36, 0
1, 337439, Note_on_c, 9, 38, 0
1, 337440, Note_on_c, 9, 38, 110
1, 337440, Note_on_c, 9, 46, 110
1, 337461, Note_on_c, 9, 46, 0
1, 337679, Note_on_c, 9, 38, 0
1, 337680, Note_on_c, 9, 49, 110
1, 337680, Note_on_c, 9, 36, 110
1, 337701, Note_on_c, 9, 49, 0
1, 337919, Note_on_c, 9, 36, 0
1, 338160, Note_on_c, 9, 38, 110
1, 338399, Note_on_c, 9, 38, 0
1, 338400, Note_on_c, 9, 38, 110
1, 338639, Note_on_c, 9, 38, 0
1, 338640, Note_on_c, 9, 49, 110
1, 338640, Note_on_c, 9, 36, 110
1, 338661, Note_on_c, 9, 49, 0
1, 338879, Note_on_c, 9, 36, 0
1, 339120, Note_on_c, 9, 38, 110
1, 339359, Note_on_c, 9, 38, 0
1, 339360, Note_on_c, 9, 38, 110
1, 339599, Note_on_c, 9, 38, 0
1, 339600, Note_on_c, 9, 49, 110
1, 339600, Note_on_c, 9, 36, 110
1, 339621, Note_on_c, 9, 49, 0
1, 339839, Note_on_c, 9, 36, 0
1, 340080, Note_on_c, 9, 38, 110
1, 340319, Note_on_c, 9, 38, 0
1, 340320, Note_on_c, 9, 38, 110
1, 340559, Note_on_c, 9, 38, 0
1, 340560, Note_on_c, 9, 49, 110
1, 340560, Note_on_c, 9, 36, 110
1, 340581, Note_on_c, 9, 49, 0
1, 340799, Note_on_c, 9, 36, 0
1, 341040, Note_on_c, 9, 38, 110
1, 341279, Note_on_c, 9, 38, 0
1, 341280, Note_on_c, 9, 38, 110
1, 341519, Note_on_c, 9, 38, 0
1, 341520, Note_on_c, 9, 49, 110
1, 341520, Note_on_c, 9, 36, 110
1, 341541, Note_on_c, 9, 49, 0
1, 341759, Note_on_c, 9, 36, 0
1, 342000, Note_on_c, 9, 36, 110
1, 342239, Note_on_c, 9, 36, 0
1, 342240, Note_on_c, 9, 38, 110
1, 342240, Note_on_c, 9, 46, 110
1, 342283, Note_on_c, 9, 46, 0
1, 342719, Note_on_c, 9, 38, 0
1, 342720, Note_on_c, 9, 46, 110
1, 342763, Note_on_c, 9, 46, 0
1, 342960, Note_on_c, 9, 36, 110
1, 343199, Note_on_c, 9, 36, 0
1, 343200, Note_on_c, 9, 38, 110
1, 343200, Note_on_c, 9, 46, 110
1, 343243, Note_on_c, 9, 46, 0
1, 343679, Note_on_c, 9, 38, 0
1, 343680, Note_on_c, 9, 46, 110
1, 343723, Note_on_c, 9, 46, 0
1, 343920, Note_on_c, 9, 36, 110
1, 344159, Note_on_c, 9, 36, 0
1, 344160, Note_on_c, 9, 38, 110
1, 344160, Note_on_c, 9, 46, 110
1, 344203, Note_on_c, 9, 46, 0
1, 344639, Note_on_c, 9, 38, 0
1, 344640, Note_on_c, 9, 46, 110
1, 344640, Note_on_c, 9, 36, 110
1, 344683, Note_on_c, 9, 46, 0
1, 345119, Note_on_c, 9, 36, 0
1, 345120, Note_on_c, 9, 38, 110
1, 345120, Note_on_c, 9, 46, 110
1, 345163, Note_on_c, 9, 46, 0
1, 345599, Note_on_c, 9, 38, 0
1, 345600, Note_on_c, 9, 46, 110
1, 345600, Note_on_c, 9, 49, 110
1, 345600, Note_on_c, 9, 36, 110
1, 345643, Note_on_c, 9, 46, 0
1, 345643, Note_on_c, 9, 49, 0
1, 346079, Note_on_c, 9, 36, 0
1, 346080, Note_on_c, 9, 38, 110
1, 346080, Note_on_c, 9, 46, 110
1, 346123, Note_on_c, 9, 46, 0
1, 346320, Note_on_c, 9, 36, 110
1, 346559, Note_on_c, 9, 38, 0
1, 346559, Note_on_c, 9, 36, 0
1, 346560, Note_on_c, 9, 46, 110
1, 346603, Note_on_c, 9, 46, 0
1, 346800, Note_on_c, 9, 36, 110
1, 347039, Note_on_c, 9, 36, 0
1, 347040, Note_on_c, 9, 38, 110
1, 347040, Note_on_c, 9, 46, 110
1, 347083, Note_on_c, 9, 46, 0
1, 347519, Note_on_c, 9, 38, 0
1, 347520, Note_on_c, 9, 46, 110
1, 347563, Note_on_c, 9, 46, 0
1, 347760, Note_on_c, 9, 36, 110
1, 347999, Note_on_c, 9, 36, 0
1, 348000, Note_on_c, 9, 38, 110
1, 348000, Note_on_c, 9, 46, 110
1, 348043, Note_on_c, 9, 46, 0
1, 348479, Note_on_c, 9, 38, 0
1, 348480, Note_on_c, 9, 46, 110
1, 348480, Note_on_c, 9, 36, 110
1, 348501, Note_on_c, 9, 46, 0
1, 348720, Note_on_c, 9, 38, 110
1, 348959, Note_on_c, 9, 36, 0
1, 348959, Note_on_c, 9, 38, 0
1, 348960, Note_on_c, 9, 38, 110
1, 348960, Note_on_c, 9, 46, 110
1, 348981, Note_on_c, 9, 46, 0
1, 349199, Note_on_c, 9, 38, 0
1, 349200, Note_on_c, 9, 49, 110
1, 349200, Note_on_c, 9, 36, 110
1, 349221, Note_on_c, 9, 49, 0
1, 349439, Note_on_c, 9, 36, 0
1, 349680, Note_on_c, 9, 38, 110
1, 349919, Note_on_c, 9, 38, 0
1, 349920, Note_on_c, 9, 38, 110
1, 350159, Note_on_c, 9, 38, 0
1, 350160, Note_on_c, 9, 49, 110
1, 350160, Note_on_c, 9, 36, 110
1, 350181, Note_on_c, 9, 49, 0
1, 350399, Note_on_c, 9, 36, 0
1, 350640, Note_on_c, 9, 38, 110
1, 350879, Note_on_c, 9, 38, 0
1, 350880, Note_on_c, 9, 38, 110
1, 351119, Note_on_c, 9, 38, 0
1, 351120, Note_on_c, 9, 49, 110
1, 351120, Note_on_c, 9, 36, 110
1, 351141, Note_on_c, 9, 49, 0
1, 351359, Note_on_c, 9, 36, 0
1, 351600, Note_on_c, 9, 38, 110
1, 351839, Note_on_c, 9, 38, 0
1, 351840, Note_on_c, 9, 38, 110
1, 352079, Note_on_c, 9, 38, 0
1, 352080, Note_on_c, 9, 49, 110
1, 352080, Note_on_c, 9, 36, 110
1, 352101, Note_on_c, 9, 49, 0
1, 352319, Note_on_c, 9, 36, 0
1, 352560, Note_on_c, 9, 38, 110
1, 352799, Note_on_c, 9, 38, 0
1, 352800, Note_on_c, 9, 38, 110
1, 353039, Note_on_c, 9, 38, 0
1, 353040, Note_on_c, 9, 49, 110
1, 353040, Note_on_c, 9, 36, 110
1, 353061, Note_on_c, 9, 49, 0
1, 353279, Note_on_c, 9, 36, 0
1, 353760, Note_on_c, 9, 38, 110
1, 353760, Note_on_c, 9, 46, 110
1, 353803, Note_on_c, 9, 46, 0
1, 354000, Note_on_c, 9, 36, 110
1, 354239, Note_on_c, 9, 38, 0
1, 354239, Note_on_c, 9, 36, 0
1, 354240, Note_on_c, 9, 46, 110
1, 354283, Note_on_c, 9, 46, 0
1, 354480, Note_on_c, 9, 36, 110
1, 354719, Note_on_c, 9, 36, 0
1, 354720, Note_on_c, 9, 38, 110
1, 354720, Note_on_c, 9, 46, 110
1, 354763, Note_on_c, 9, 46, 0
1, 355199, Note_on_c, 9, 38, 0
1, 355200, Note_on_c, 9, 46, 110
1, 355243, Note_on_c, 9, 46, 0
1, 355440, Note_on_c, 9, 36, 110
1, 355679, Note_on_c, 9, 36, 0
1, 355680, Note_on_c, 9, 38, 110
1, 355680, Note_on_c, 9, 46, 110
1, 355723, Note_on_c, 9, 46, 0
1, 356159, Note_on_c, 9, 38, 0
1, 356160, Note_on_c, 9, 46, 110
1, 356160, Note_on_c, 9, 36, 110
1, 356203, Note_on_c, 9, 46, 0
1, 356639, Note_on_c, 9, 36, 0
1, 356640, Note_on_c, 9, 38, 110
1, 356640, Note_on_c, 9, 46, 110
1, 356683, Note_on_c, 9, 46, 0
1, 357119, Note_on_c, 9, 38, 0
1, 357120, Note_on_c, 9, 46, 110
1, 357120, Note_on_c, 9, 49, 110
1, 357120, Note_on_c, 9, 36, 110
1, 357163, Note_on_c, 9, 46, 0
1, 357163, Note_on_c, 9, 49, 0
1, 357599, Note_on_c, 9, 36, 0
1, 357600, Note_on_c, 9, 38, 110
1, 357600, Note_on_c, 9, 46, 110
1, 357643, Note_on_c, 9, 46, 0
1, 357840, Note_on_c, 9, 36, 110
1, 358079, Note_on_c, 9, 38, 0
1, 358079, Note_on_c, 9, 36, 0
1, 358080, Note_on_c, 9, 46, 110
1, 358123, Note_on_c, 9, 46, 0
1, 358320, Note_on_c, 9, 36, 110
1, 358559, Note_on_c, 9, 36, 0
1, 358560, Note_on_c, 9, 38, 110
1, 358560, Note_on_c, 9, 46, 110
1, 358603, Note_on_c, 9, 46, 0
1, 359039, Note_on_c, 9, 38, 0
1, 359040, Note_on_c, 9, 38, 110
1, 359040, Note_on_c, 9, 46, 110
1, 359061, Note_on_c, 9, 46, 0
1, 359279, Note_on_c, 9, 38, 0
1, 359280, Note_on_c, 9, 38, 110
1, 359519, Note_on_c, 9, 38, 0
1, 359520, Note_on_c, 9, 38, 110
1, 359520, Note_on_c, 9, 46, 110
1, 359541, Note_on_c, 9, 46, 0
1, 359759, Note_on_c, 9, 38, 0
1, 359760, Note_on_c, 9, 38, 110
1, 359999, Note_on_c, 9, 38, 0
1, 360000, Note_on_c, 9, 38, 110
1, 360000, Note_on_c, 9, 46, 110
1, 360021, Note_on_c, 9, 46, 0
1, 360239, Note_on_c, 9, 38, 0
1, 360240, Note_on_c, 9, 38, 110
1, 360479, Note_on_c, 9, 38, 0
1, 360480, Note_on_c, 9, 38, 110
1, 360480, Note_on_c, 9, 46, 110
1, 360501, Note_on_c, 9, 46, 0
1, 360719, Note_on_c, 9, 38, 0
1, 360720, Note_on_c, 9, 38, 110
1, 360959, Note_on_c, 9, 38, 0
1, 360960, Note_on_c, 9, 46, 110
1, 360960, Note_on_c, 9, 49, 110
1, 360960, Note_on_c, 9, 36, 110
1, 361003, Note_on_c, 9, 46, 0
1, 361003, Note_on_c, 9, 49, 0
1, 361439, Note_on_c, 9, 36, 0
1, 361440, Note_on_c, 9, 38, 110
1, 361440, Note_on_c, 9, 46, 110
1, 361483, Note_on_c, 9, 46, 0
1, 361919, Note_on_c, 9, 38, 0
1, 361920, Note_on_c, 9, 46, 110
1, 361920, Note_on_c, 9, 36, 110
1, 361963, Note_on_c, 9, 46, 0
1, 362159, Note_on_c, 9, 36, 0
1, 362160, Note_on_c, 9, 36, 110
1, 362399, Note_on_c, 9, 36, 0
1, 362400, Note_on_c, 9, 38, 110
1, 362400, Note_on_c, 9, 46, 110
1, 362443, Note_on_c, 9, 46, 0
1, 362879, Note_on_c, 9, 38, 0
1, 362880, Note_on_c, 9, 46, 110
1, 362880, Note_on_c, 9, 36, 110
1, 362923, Note_on_c, 9, 46, 0
1, 363119, Note_on_c, 9, 36, 0
1, 363120, Note_on_c, 9, 36, 110
1, 363359, Note_on_c, 9, 36, 0
1, 363360, Note_on_c, 9, 38, 110
1, 363360, Note_on_c, 9, 46, 110
1, 363403, Note_on_c, 9, 46, 0
1, 363839, Note_on_c, 9, 38, 0
1, 363840, Note_on_c, 9, 46, 110
1, 363840, Note_on_c, 9, 36, 110
1, 363883, Note_on_c, 9, 46, 0
1, 364079, Note_on_c, 9, 36, 0
1, 364080, Note_on_c, 9, 36, 110
1, 364319, Note_on_c, 9, 36, 0
1, 364320, Note_on_c, 9, 38, 110
1, 364320, Note_on_c, 9, 46, 110
1, 364363, Note_on_c, 9, 46, 0
1, 364799, Note_on_c, 9, 38, 0
1, 364800, Note_on_c, 9, 46, 110
1, 364800, Note_on_c, 9, 36, 110
1, 364843, Note_on_c, 9, 46, 0
1, 365279, Note_on_c, 9, 36, 0
1, 365280, Note_on_c, 9, 38, 110
1, 365280, Note_on_c, 9, 46, 110
1, 365323, Note_on_c, 9, 46, 0
1, 365759, Note_on_c, 9, 38, 0
1, 365760, Note_on_c, 9, 46, 110
1, 365760, Note_on_c, 9, 36, 110
1, 365803, Note_on_c, 9, 46, 0
1, 365999, Note_on_c, 9, 36, 0
1, 366000, Note_on_c, 9, 36, 110
1, 366239, Note_on_c, 9, 36, 0
1, 366240, Note_on_c, 9, 38, 110
1, 366240, Note_on_c, 9, 46, 110
1, 366283, Note_on_c, 9, 46, 0
1, 366719, Note_on_c, 9, 38, 0
1, 366720, Note_on_c, 9, 46, 110
1, 366720, Note_on_c, 9, 36, 110
1, 366763, Note_on_c, 9, 46, 0
1, 366959, Note_on_c, 9, 36, 0
1, 366960, Note_on_c, 9, 36, 110
1, 367199, Note_on_c, 9, 36, 0
1, 367200, Note_on_c, 9, 38, 110
1, 367200, Note_on_c, 9, 46, 110
1, 367243, Note_on_c, 9, 46, 0
1, 367679, Note_on_c, 9, 38, 0
1, 367680, Note_on_c, 9, 46, 110
1, 367680, Note_on_c, 9, 36, 110
1, 367723, Note_on_c, 9, 46, 0
1, 367919, Note_on_c, 9, 36, 0
1, 367920, Note_on_c, 9, 36, 110
1, 368159, Note_on_c, 9, 36, 0
1, 368160, Note_on_c, 9, 38, 110
1, 368160, Note_on_c, 9, 46, 110
1, 368203, Note_on_c, 9, 46, 0
1, 368639, Note_on_c, 9, 38, 0
1, 368640, Note_on_c, 9, 46, 110
1, 368640, Note_on_c, 9, 36, 110
1, 368683, Note_on_c, 9, 46, 0
1, 369119, Note_on_c, 9, 36, 0
1, 369120, Note_on_c, 9, 38, 110
1, 369120, Note_on_c, 9, 46, 110
1, 369163, Note_on_c, 9, 46, 0
1, 369599, Note_on_c, 9, 38, 0
1, 369600, Note_on_c, 9, 46, 110
1, 369600, Note_on_c, 9, 36, 110
1, 369643, Note_on_c, 9, 46, 0
1, 369839, Note_on_c, 9, 36, 0
1, 369840, Note_on_c, 9, 36, 110
1, 370079, Note_on_c, 9, 36, 0
1, 370080, Note_on_c, 9, 38, 110
1, 370080, Note_on_c, 9, 46, 110
1, 370123, Note_on_c, 9, 46, 0
1, 370559, Note_on_c, 9, 38, 0
1, 370560, Note_on_c, 9, 46, 110
1, 370560, Note_on_c, 9, 36, 110
1, 370603, Note_on_c, 9, 46, 0
1, 370799, Note_on_c, 9, 36, 0
1, 370800, Note_on_c, 9, 36, 110
1, 371039, Note_on_c, 9, 36, 0
1, 371040, Note_on_c, 9, 38, 110
1, 371040, Note_on_c, 9, 46, 110
1, 371083, Note_on_c, 9, 46, 0
1, 371519, Note_on_c, 9, 38, 0
1, 371520, Note_on_c, 9, 46, 110
1, 371520, Note_on_c, 9, 36, 110
1, 371563, Note_on_c, 9, 46, 0
1, 371759, Note_on_c, 9, 36, 0
1, 371760, Note_on_c, 9, 36, 110
1, 371999, Note_on_c, 9, 36, 0
1, 372000, Note_on_c, 9, 38, 110
1, 372000, Note_on_c, 9, 46, 110
1, 372043, Note_on_c, 9, 46, 0
1, 372479, Note_on_c, 9, 38, 0
1, 372480, Note_on_c, 9, 46, 110
1, 372480, Note_on_c, 9, 36, 110
1, 372523, Note_on_c, 9, 46, 0
1, 372959, Note_on_c, 9, 36, 0
1, 372960, Note_on_c, 9, 38, 110
1, 372960, Note_on_c, 9, 46, 110
1, 373003, Note_on_c, 9, 46, 0
1, 373439, Note_on_c, 9, 38, 0
1, 373440, Note_on_c, 9, 46, 110
1, 373440, Note_on_c, 9, 36, 110
1, 373483, Note_on_c, 9, 46, 0
1, 373679, Note_on_c, 9, 36, 0
1, 373680, Note_on_c, 9, 36, 110
1, 373919, Note_on_c, 9, 36, 0
1, 373920, Note_on_c, 9, 38, 110
1, 373920, Note_on_c, 9, 46, 110
1, 373963, Note_on_c, 9, 46, 0
1, 374399, Note_on_c, 9, 38, 0
1, 374400, Note_on_c, 9, 46, 110
1, 374400, Note_on_c, 9, 36, 110
1, 374443, Note_on_c, 9, 46, 0
1, 374639, Note_on_c, 9, 36, 0
1, 374640, Note_on_c, 9, 36, 110
1, 374879, Note_on_c, 9, 36, 0
1, 374880, Note_on_c, 9, 38, 110
1, 374880, Note_on_c, 9, 46, 110
1, 374923, Note_on_c, 9, 46, 0
1, 375359, Note_on_c, 9, 38, 0
1, 375360, Note_on_c, 9, 46, 110
1, 375360, Note_on_c, 9, 36, 110
1, 375403, Note_on_c, 9, 46, 0
1, 375599, Note_on_c, 9, 36, 0
1, 375600, Note_on_c, 9, 36, 110
1, 375839, Note_on_c, 9, 36, 0
1, 375840, Note_on_c, 9, 38, 110
1, 375840, Note_on_c, 9, 46, 110
1, 375883, Note_on_c, 9, 46, 0
1, 376319, Note_on_c, 9, 38, 0
1, 376320, Note_on_c, 9, 46, 110
1, 376320, Note_on_c, 9, 36, 110
1, 376363, Note_on_c, 9, 46, 0
1, 376799, Note_on_c, 9, 36, 0
1, 376800, Note_on_c, 9, 38, 110
1, 376800, Note_on_c, 9, 46, 110
1, 376843, Note_on_c, 9, 46, 0
1, 377279, Note_on_c, 9, 38, 0
1, 377280, Note_on_c, 9, 46, 110
1, 377280, Note_on_c, 9, 36, 110
1, 377323, Note_on_c, 9, 46, 0
1, 377519, Note_on_c, 9, 36, 0
1, 377520, Note_on_c, 9, 36, 110
1, 377759, Note_on_c, 9, 36, 0
1, 377760, Note_on_c, 9, 38, 110
1, 377760, Note_on_c, 9, 46, 110
1, 377803, Note_on_c, 9, 46, 0
1, 378239, Note_on_c, 9, 38, 0
1, 378240, Note_on_c, 9, 46, 110
1, 378240, Note_on_c, 9, 36, 110
1, 378283, Note_on_c, 9, 46, 0
1, 378479, Note_on_c, 9, 36, 0
1, 378480, Note_on_c, 9, 36, 110
1, 378719, Note_on_c, 9, 36, 0
1, 378720, Note_on_c, 9, 38, 110
1, 378720, Note_on_c, 9, 46, 110
1, 378763, Note_on_c, 9, 46, 0
1, 379199, Note_on_c, 9, 38, 0
1, 379200, Note_on_c, 9, 46, 110
1, 379200, Note_on_c, 9, 36, 110
1, 379243, Note_on_c, 9, 46, 0
1, 379439, Note_on_c, 9, 36, 0
1, 379440, Note_on_c, 9, 36, 110
1, 379679, Note_on_c, 9, 36, 0
1, 379680, Note_on_c, 9, 38, 110
1, 379680, Note_on_c, 9, 46, 110
1, 379723, Note_on_c, 9, 46, 0
1, 380159, Note_on_c, 9, 38, 0
1, 380160, Note_on_c, 9, 46, 110
1, 380160, Note_on_c, 9, 36, 110
1, 380203, Note_on_c, 9, 46, 0
1, 380639, Note_on_c, 9, 36, 0
1, 380640, Note_on_c, 9, 38, 110
1, 380640, Note_on_c, 9, 46, 110
1, 380683, Note_on_c, 9, 46, 0
1, 381119, Note_on_c, 9, 38, 0
1, 381120, Note_on_c, 9, 46, 110
1, 381120, Note_on_c, 9, 36, 110
1, 381163, Note_on_c, 9, 46, 0
1, 381359, Note_on_c, 9, 36, 0
1, 381360, Note_on_c, 9, 36, 110
1, 381599, Note_on_c, 9, 36, 0
1, 381600, Note_on_c, 9, 38, 110
1, 381600, Note_on_c, 9, 46, 110
1, 381643, Note_on_c, 9, 46, 0
1, 382079, Note_on_c, 9, 38, 0
1, 382080, Note_on_c, 9, 46, 110
1, 382080, Note_on_c, 9, 36, 110
1, 382123, Note_on_c, 9, 46, 0
1, 382319, Note_on_c, 9, 36, 0
1, 382320, Note_on_c, 9, 36, 110
1, 382559, Note_on_c, 9, 36, 0
1, 382560, Note_on_c, 9, 38, 110
1, 382560, Note_on_c, 9, 46, 110
1, 382603, Note_on_c, 9, 46, 0
1, 383039, Note_on_c, 9, 38, 0
1, 383040, Note_on_c, 9, 46, 110
1, 383040, Note_on_c, 9, 36, 110
1, 383083, Note_on_c, 9, 46, 0
1, 383279, Note_on_c, 9, 36, 0
1, 383280, Note_on_c, 9, 36, 110
1, 383519, Note_on_c, 9, 36, 0
1, 383520, Note_on_c, 9, 38, 110
1, 383520, Note_on_c, 9, 46, 110
1, 383563, Note_on_c, 9, 46, 0
1, 383999, Note_on_c, 9, 38, 0
1, 384000, Note_on_c, 9, 46, 110
1, 384000, Note_on_c, 9, 36, 110
1, 384043, Note_on_c, 9, 46, 0
1, 384479, Note_on_c, 9, 36, 0
1, 384480, Note_on_c, 9, 38, 110
1, 384480, Note_on_c, 9, 46, 110
1, 384523, Note_on_c, 9, 46, 0
1, 384959, Note_on_c, 9, 38, 0
1, 384960, Note_on_c, 9, 46, 110
1, 384960, Note_on_c, 9, 36, 110
1, 385003, Note_on_c, 9, 46, 0
1, 385199, Note_on_c, 9, 36, 0
1, 385200, Note_on_c, 9, 36, 110
1, 385439, Note_on_c, 9, 36, 0
1, 385440, Note_on_c, 9, 38, 110
1, 385440, Note_on_c, 9, 46, 110
1, 385483, Note_on_c, 9, 46, 0
1, 385919, Note_on_c, 9, 38, 0
1, 385920, Note_on_c, 9, 46, 110
1, 385920, Note_on_c, 9, 36, 110
1, 385963, Note_on_c, 9, 46, 0
1, 386159, Note_on_c, 9, 36, 0
1, 386160, Note_on_c, 9, 36, 110
1, 386399, Note_on_c, 9, 36, 0
1, 386400, Note_on_c, 9, 38, 110
1, 386400, Note_on_c, 9, 46, 110
1, 386443, Note_on_c, 9, 46, 0
1, 386879, Note_on_c, 9, 38, 0
1, 386880, Note_on_c, 9, 46, 110
1, 386880, Note_on_c, 9, 36, 110
1, 386923, Note_on_c, 9, 46, 0
1, 387119, Note_on_c, 9, 36, 0
1, 387120, Note_on_c, 9, 36, 110
1, 387359, Note_on_c, 9, 36, 0
1, 387360, Note_on_c, 9, 38, 110
1, 387360, Note_on_c, 9, 46, 110
1, 387403, Note_on_c, 9, 46, 0
1, 387839, Note_on_c, 9, 38, 0
1, 387840, Note_on_c, 9, 46, 110
1, 387840, Note_on_c, 9, 36, 110
1, 387883, Note_on_c, 9, 46, 0
1, 388319, Note_on_c, 9, 36, 0
1, 388320, Note_on_c, 9, 38, 110
1, 388320, Note_on_c, 9, 46, 110
1, 388363, Note_on_c, 9, 46, 0
1, 388799, Note_on_c, 9, 38, 0
1, 388800, Note_on_c, 9, 46, 110
1, 388800, Note_on_c, 9, 36, 110
1, 388843, Note_on_c, 9, 46, 0
1, 389039, Note_on_c, 9, 36, 0
1, 389040, Note_on_c, 9, 36, 110
1, 389279, Note_on_c, 9, 36, 0
1, 389280, Note_on_c, 9, 38, 110
1, 389280, Note_on_c, 9, 46, 110
1, 389323, Note_on_c, 9, 46, 0
1, 389759, Note_on_c, 9, 38, 0
1, 389760, Note_on_c, 9, 46, 110
1, 389760, Note_on_c, 9, 36, 110
1, 389803, Note_on_c, 9, 46, 0
1, 389999, Note_on_c, 9, 36, 0
1, 390000, Note_on_c, 9, 36, 110
1, 390239, Note_on_c, 9, 36, 0
1, 390240, Note_on_c, 9, 38, 110
1, 390240, Note_on_c, 9, 46, 110
1, 390283, Note_on_c, 9, 46, 0
1, 390719, Note_on_c, 9, 38, 0
1, 390720, Note_on_c, 9, 46, 110
1, 390720, Note_on_c, 9, 36, 110
1, 390763, Note_on_c, 9, 46, 0
1, 390959, Note_on_c, 9, 36, 0
1, 390960, Note_on_c, 9, 36, 110
1, 391199, Note_on_c, 9, 36, 0
1, 391200, Note_on_c, 9, 38, 110
1, 391200, Note_on_c, 9, 46, 110
1, 391243, Note_on_c, 9, 46, 0
1, 391679, Note_on_c, 9, 38, 0
1, 391680, Note_on_c, 9, 46, 110
1, 391680, Note_on_c, 9, 49, 110
1, 391680, Note_on_c, 9, 36, 110
1, 391723, Note_on_c, 9, 46, 0
1, 391723, Note_on_c, 9, 49, 0
1, 392159, Note_on_c, 9, 36, 0
1, 392160, Note_on_c, 9, 38, 110
1, 392160, Note_on_c, 9, 46, 110
1, 392203, Note_on_c, 9, 46, 0
1, 392639, Note_on_c, 9, 38, 0
1, 392640, Note_on_c, 9, 46, 110
1, 392640, Note_on_c, 9, 36, 110
1, 392683, Note_on_c, 9, 46, 0
1, 392879, Note_on_c, 9, 36, 0
1, 392880, Note_on_c, 9, 36, 110
1, 393119, Note_on_c, 9, 36, 0
1, 393120, Note_on_c, 9, 38, 110
1, 393120, Note_on_c, 9, 46, 110
1, 393163, Note_on_c, 9, 46, 0
1, 393599, Note_on_c, 9, 38, 0
1, 393600, Note_on_c, 9, 46, 110
1, 393600, Note_on_c, 9, 36, 110
1, 393643, Note_on_c, 9, 46, 0
1, 393839, Note_on_c, 9, 36, 0
1, 393840, Note_on_c, 9, 36, 110
1, 394079, Note_on_c, 9, 36, 0
1, 394080, Note_on_c, 9, 38, 110
1, 394080, Note_on_c, 9, 46, 110
1, 394123, Note_on_c, 9, 46, 0
1, 394559, Note_on_c, 9, 38, 0
1, 394560, Note_on_c, 9, 46, 110
1, 394560, Note_on_c, 9, 36, 110
1, 394603, Note_on_c, 9, 46, 0
1, 394799, Note_on_c, 9, 36, 0
1, 394800, Note_on_c, 9, 36, 110
1, 395039, Note_on_c, 9, 36, 0
1, 395040, Note_on_c, 9, 38, 110
1, 395040, Note_on_c, 9, 46, 110
1, 395083, Note_on_c, 9, 46, 0
1, 395519, Note_on_c, 9, 38, 0
1, 395520, Note_on_c, 9, 46, 110
1, 395520, Note_on_c, 9, 36, 110
1, 395563, Note_on_c, 9, 46, 0
1, 395999, Note_on_c, 9, 36, 0
1, 396000, Note_on_c, 9, 38, 110
1, 396000, Note_on_c, 9, 46, 110
1, 396043, Note_on_c, 9, 46, 0
1, 396479, Note_on_c, 9, 38, 0
1, 396480, Note_on_c, 9, 46, 110
1, 396480, Note_on_c, 9, 36, 110
1, 396523, Note_on_c, 9, 46, 0
1, 396719, Note_on_c, 9, 36, 0
1, 396720, Note_on_c, 9, 36, 110
1, 396959, Note_on_c, 9, 36, 0
1, 396960, Note_on_c, 9, 38, 110
1, 396960, Note_on_c, 9, 46, 110
1, 397003, Note_on_c, 9, 46, 0
1, 397439, Note_on_c, 9, 38, 0
1, 397440, Note_on_c, 9, 46, 110
1, 397440, Note_on_c, 9, 36, 110
1, 397483, Note_on_c, 9, 46, 0
1, 397679, Note_on_c, 9, 36, 0
1, 397680, Note_on_c, 9, 36, 110
1, 397919, Note_on_c, 9, 36, 0
1, 397920, Note_on_c, 9, 38, 110
1, 397920, Note_on_c, 9, 46, 110
1, 397963, Note_on_c, 9, 46, 0
1, 398399, Note_on_c, 9, 38, 0
1, 398400, Note_on_c, 9, 46, 110
1, 398400, Note_on_c, 9, 36, 110
1, 398443, Note_on_c, 9, 46, 0
1, 398639, Note_on_c, 9, 36, 0
1, 398640, Note_on_c, 9, 36, 110
1, 398879, Note_on_c, 9, 36, 0
1, 398880, Note_on_c, 9, 38, 110
1, 398880, Note_on_c, 9, 46, 110
1, 398923, Note_on_c, 9, 46, 0
1, 399359, Note_on_c, 9, 38, 0
1, 399360, Note_on_c, 9, 46, 110
1, 399360, Note_on_c, 9, 36, 110
1, 399403, Note_on_c, 9, 46, 0
1, 399839, Note_on_c, 9, 36, 0
1, 399840, Note_on_c, 9, 38, 110
1, 399840, Note_on_c, 9, 46, 110
1, 399883, Note_on_c, 9, 46, 0
1, 400319, Note_on_c, 9, 38, 0
1, 400320, Note_on_c, 9, 46, 110
1, 400320, Note_on_c, 9, 36, 110
1, 400363, Note_on_c, 9, 46, 0
1, 400559, Note_on_c, 9, 36, 0
1, 400560, Note_on_c, 9, 36, 110
1, 400799, Note_on_c, 9, 36, 0
1, 400800, Note_on_c, 9, 38, 110
1, 400800, Note_on_c, 9, 46, 110
1, 400843, Note_on_c, 9, 46, 0
1, 401279, Note_on_c, 9, 38, 0
1, 401280, Note_on_c, 9, 46, 110
1, 401280, Note_on_c, 9, 36, 110
1, 401323, Note_on_c, 9, 46, 0
1, 401519, Note_on_c, 9, 36, 0
1, 401520, Note_on_c, 9, 36, 110
1, 401759, Note_on_c, 9, 36, 0
1, 401760, Note_on_c, 9, 38, 110
1, 401760, Note_on_c, 9, 46, 110
1, 401803, Note_on_c, 9, 46, 0
1, 402239, Note_on_c, 9, 38, 0
1, 402240, Note_on_c, 9, 46, 110
1, 402240, Note_on_c, 9, 36, 110
1, 402283, Note_on_c, 9, 46, 0
1, 402479, Note_on_c, 9, 36, 0
1, 402480, Note_on_c, 9, 36, 110
1, 402719, Note_on_c, 9, 36, 0
1, 402720, Note_on_c, 9, 38, 110
1, 402720, Note_on_c, 9, 46, 110
1, 402763, Note_on_c, 9, 46, 0
1, 403199, Note_on_c, 9, 38, 0
1, 403200, Note_on_c, 9, 49, 110
1, 403200, Note_on_c, 9, 36, 110
1, 403243, Note_on_c, 9, 49, 0
1, 403679, Note_on_c, 9, 36, 0
1, 403680, Note_on_c, 9, 38, 110
1, 403919, Note_on_c, 9, 38, 0
1, 403920, Note_on_c, 9, 49, 110
1, 403920, Note_on_c, 9, 36, 110
1, 403941, Note_on_c, 9, 49, 0
1, 404159, Note_on_c, 9, 36, 0
1, 404400, Note_on_c, 9, 38, 110
1, 404639, Note_on_c, 9, 38, 0
1, 404640, Note_on_c, 9, 49, 110
1, 404640, Note_on_c, 9, 36, 110
1, 404683, Note_on_c, 9, 49, 0
1, 405119, Note_on_c, 9, 36, 0
1, 405360, Note_on_c, 9, 38, 110
1, 405599, Note_on_c, 9, 38, 0
1, 405600, Note_on_c, 9, 38, 110
1, 405840, Note_on_c, 9, 36, 110
1, 406079, Note_on_c, 9, 38, 0
1, 406079, Note_on_c, 9, 36, 0
1, 406080, Note_on_c, 9, 47, 110
1, 406319, Note_on_c, 9, 47, 0
1, 406320, Note_on_c, 9, 45, 110
1, 406559, Note_on_c, 9, 45, 0
1, 406560, Note_on_c, 9, 43, 110
1, 406800, Note_on_c, 9, 41, 110
1, 407039, Note_on_c, 9, 43, 0
1, 407039, Note_on_c, 9, 41, 0
1, 407040, Note_on_c, 9, 46, 110
1, 407040, Note_on_c, 9, 49, 110
1, 407040, Note_on_c, 9, 36, 110
1, 407083, Note_on_c, 9, 46, 0
1, 407083, Note_on_c, 9, 49, 0
1, 407519, Note_on_c, 9, 36, 0
1, 407520, Note_on_c, 9, 38, 110
1, 407520, Note_on_c, 9, 46, 110
1, 407563, Note_on_c, 9, 46, 0
1, 407999, Note_on_c, 9, 38, 0
1, 408000, Note_on_c, 9, 46, 110
1, 408000, Note_on_c, 9, 36, 110
1, 408043, Note_on_c, 9, 46, 0
1, 408239, Note_on_c, 9, 36, 0
1, 408240, Note_on_c, 9, 36, 110
1, 408479, Note_on_c, 9, 36, 0
1, 408480, Note_on_c, 9, 38, 110
1, 408480, Note_on_c, 9, 46, 110
1, 408523, Note_on_c, 9, 46, 0
1, 408959, Note_on_c, 9, 38, 0
1, 408960, Note_on_c, 9, 46, 110
1, 408960, Note_on_c, 9, 36, 110
1, 409003, Note_on_c, 9, 46, 0
1, 409199, Note_on_c, 9, 36, 0
1, 409200, Note_on_c, 9, 36, 110
1, 409439, Note_on_c, 9, 36, 0
1, 409440, Note_on_c, 9, 38, 110
1, 409440, Note_on_c, 9, 46, 110
1, 409483, Note_on_c, 9, 46, 0
1, 409919, Note_on_c, 9, 38, 0
1, 409920, Note_on_c, 9, 46, 110
1, 409920, Note_on_c, 9, 36, 110
1, 409963, Note_on_c, 9, 46, 0
1, 410159, Note_on_c, 9, 36, 0
1, 410160, Note_on_c, 9, 36, 110
1, 410399, Note_on_c, 9, 36, 0
1, 410400, Note_on_c, 9, 38, 110
1, 410400, Note_on_c, 9, 46, 110
1, 410443, Note_on_c, 9, 46, 0
1, 410879, Note_on_c, 9, 38, 0
1, 410880, Note_on_c, 9, 46, 110
1, 410880, Note_on_c, 9, 36, 110
1, 410923, Note_on_c, 9, 46, 0
1, 411359, Note_on_c, 9, 36, 0
1, 411360, Note_on_c, 9, 38, 110
1, 411360, Note_on_c, 9, 46, 110
1, 411403, Note_on_c, 9, 46, 0
1, 411839, Note_on_c, 9, 38, 0
1, 411840, Note_on_c, 9, 46, 110
1, 411840, Note_on_c, 9, 36, 110
1, 411883, Note_on_c, 9, 46, 0
1, 412079, Note_on_c, 9, 36, 0
1, 412080, Note_on_c, 9, 36, 110
1, 412319, Note_on_c, 9, 36, 0
1, 412320, Note_on_c, 9, 38, 110
1, 412320, Note_on_c, 9, 46, 110
1, 412363, Note_on_c, 9, 46, 0
1, 412799, Note_on_c, 9, 38, 0
1, 412800, Note_on_c, 9, 46, 110
1, 412800, Note_on_c, 9, 36, 110
1, 412843, Note_on_c, 9, 46, 0
1, 413039, Note_on_c, 9, 36, 0
1, 413040, Note_on_c, 9, 36, 110
1, 413279, Note_on_c, 9, 36, 0
1, 413280, Note_on_c, 9, 38, 110
1, 413280, Note_on_c, 9, 46, 110
1, 413323, Note_on_c, 9, 46, 0
1, 413759, Note_on_c, 9, 38, 0
1, 413760, Note_on_c, 9, 46, 110
1, 413760, Note_on_c, 9, 36, 110
1, 413803, Note_on_c, 9, 46, 0
1, 413999, Note_on_c, 9, 36, 0
1, 414000, Note_on_c, 9, 36, 110
1, 414239, Note_on_c, 9, 36, 0
1, 414240, Note_on_c, 9, 38, 110
1, 414240, Note_on_c, 9, 46, 110
1, 414283, Note_on_c, 9, 46, 0
1, 414719, Note_on_c, 9, 38, 0
1, 414720, Note_on_c, 9, 46, 110
1, 414720, Note_on_c, 9, 36, 110
1, 414763, Note_on_c, 9, 46, 0
1, 415199, Note_on_c, 9, 36, 0
1, 415200, Note_on_c, 9, 38, 110
1, 415200, Note_on_c, 9, 46, 110
1, 415243, Note_on_c, 9, 46, 0
1, 415679, Note_on_c, 9, 38, 0
1, 415680, Note_on_c, 9, 46, 110
1, 415680, Note_on_c, 9, 36, 110
1, 415723, Note_on_c, 9, 46, 0
1, 415919, Note_on_c, 9, 36, 0
1, 415920, Note_on_c, 9, 36, 110
1, 416159, Note_on_c, 9, 36, 0
1, 416160, Note_on_c, 9, 38, 110
1, 416160, Note_on_c, 9, 46, 110
1, 416203, Note_on_c, 9, 46, 0
1, 416639, Note_on_c, 9, 38, 0
1, 416640, Note_on_c, 9, 46, 110
1, 416640, Note_on_c, 9, 36, 110
1, 416683, Note_on_c, 9, 46, 0
1, 416879, Note_on_c, 9, 36, 0
1, 416880, Note_on_c, 9, 36, 110
1, 417119, Note_on_c, 9, 36, 0
1, 417120, Note_on_c, 9, 38, 110
1, 417120, Note_on_c, 9, 46, 110
1, 417163, Note_on_c, 9, 46, 0
1, 417599, Note_on_c, 9, 38, 0
1, 417600, Note_on_c, 9, 46, 110
1, 417600, Note_on_c, 9, 36, 110
1, 417643, Note_on_c, 9, 46, 0
1, 417839, Note_on_c, 9, 36, 0
1, 417840, Note_on_c, 9, 36, 110
1, 418079, Note_on_c, 9, 36, 0
1, 418080, Note_on_c, 9, 38, 110
1, 418080, Note_on_c, 9, 46, 110
1, 418123, Note_on_c, 9, 46, 0
1, 418559, Note_on_c, 9, 38, 0
1, 418560, Note_on_c, 9, 49, 110
1, 418560, Note_on_c, 9, 36, 110
1, 418603, Note_on_c, 9, 49, 0
1, 419039, Note_on_c, 9, 36, 0
1, 419040, Note_on_c, 9, 38, 110
1, 419279, Note_on_c, 9, 38, 0
1, 419280, Note_on_c, 9, 49, 110
1, 419280, Note_on_c, 9, 36, 110
1, 419301, Note_on_c, 9, 49, 0
1, 419519, Note_on_c, 9, 36, 0
1, 419760, Note_on_c, 9, 38, 110
1, 419999, Note_on_c, 9, 38, 0
1, 420000, Note_on_c, 9, 49, 110
1, 420000, Note_on_c, 9, 36, 110
1, 420043, Note_on_c, 9, 49, 0
1, 420479, Note_on_c, 9, 36, 0
1, 420720, Note_on_c, 9, 38, 110
1, 420959, Note_on_c, 9, 38, 0
1, 420960, Note_on_c, 9, 38, 110
1, 421200, Note_on_c, 9, 36, 110
1, 421439, Note_on_c, 9, 38, 0
1, 421439, Note_on_c, 9, 36, 0
1, 421440, Note_on_c, 9, 47, 110
1, 421679, Note_on_c, 9, 47, 0
1, 421680, Note_on_c, 9, 45, 110
1, 421919, Note_on_c, 9, 45, 0
1, 421920, Note_on_c, 9, 43, 110
1, 422160, Note_on_c, 9, 41, 110
1, 422399, Note_on_c, 9, 43, 0
1, 422399, Note_on_c, 9, 41, 0
1, 422400, Note_on_c, 9, 46, 110
1, 422400, Note_on_c, 9, 49, 110
1, 422400, Note_on_c, 9, 36, 110
1, 422443, Note_on_c, 9, 46, 0
1, 422443, Note_on_c, 9, 49, 0
1, 422879, Note_on_c, 9, 36, 0
1, 422880, Note_on_c, 9, 38, 110
1, 422880, Note_on_c, 9, 46, 110
1, 422923, Note_on_c, 9, 46, 0
1, 423120, Note_on_c, 9, 36, 110
1, 423359, Note_on_c, 9, 38, 0
1, 423359, Note_on_c, 9, 36, 0
1, 423360, Note_on_c, 9, 46, 110
1, 423403, Note_on_c, 9, 46, 0
1, 423600, Note_on_c, 9, 36, 110
1, 423839, Note_on_c, 9, 36, 0
1, 423840, Note_on_c, 9, 38, 110
1, 423840, Note_on_c, 9, 46, 110
1, 423883, Note_on_c, 9, 46, 0
1, 424319, Note_on_c, 9, 38, 0
1, 424320, Note_on_c, 9, 46, 110
1, 424363, Note_on_c, 9, 46, 0
1, 424560, Note_on_c, 9, 36, 110
1, 424799, Note_on_c, 9, 36, 0
1, 424800, Note_on_c, 9, 38, 110
1, 424800, Note_on_c, 9, 46, 110
1, 424843, Note_on_c, 9, 46, 0
1, 425279, Note_on_c, 9, 38, 0
1, 425280, Note_on_c, 9, 46, 110
1, 425280, Note_on_c, 9, 36, 110
1, 425323, Note_on_c, 9, 46, 0
1, 425759, Note_on_c, 9, 36, 0
1, 425760, Note_on_c, 9, 38, 110
1, 425760, Note_on_c, 9, 46, 110
1, 425803, Note_on_c, 9, 46, 0
1, 426239, Note_on_c, 9, 38, 0
1, 426240, Note_on_c, 9, 46, 110
1, 426240, Note_on_c, 9, 49, 110
1, 426240, Note_on_c, 9, 36, 110
1, 426283, Note_on_c, 9, 46, 0
1, 426283, Note_on_c, 9, 49, 0
1, 426719, Note_on_c, 9, 36, 0
1, 426720, Note_on_c, 9, 38, 110
1, 426720, Note_on_c, 9, 46, 110
1, 426763, Note_on_c, 9, 46, 0
1, 426960, Note_on_c, 9, 36, 110
1, 427199, Note_on_c, 9, 38, 0
1, 427199, Note_on_c, 9, 36, 0
1, 427200, Note_on_c, 9, 46, 110
1, 427243, Note_on_c, 9, 46, 0
1, 427440, Note_on_c, 9, 36, 110
1, 427679, Note_on_c, 9, 36, 0
1, 427680, Note_on_c, 9, 38, 110
1, 427680, Note_on_c, 9, 46, 110
1, 427723, Note_on_c, 9, 46, 0
1, 428159, Note_on_c, 9, 38, 0
1, 428160, Note_on_c, 9, 46, 110
1, 428203, Note_on_c, 9, 46, 0
1, 428400, Note_on_c, 9, 36, 110
1, 428639, Note_on_c, 9, 36, 0
1, 428640, Note_on_c, 9, 38, 110
1, 428640, Note_on_c, 9, 46, 110
1, 428683, Note_on_c, 9, 46, 0
1, 429119, Note_on_c, 9, 38, 0
1, 429120, Note_on_c, 9, 46, 110
1, 429120, Note_on_c, 9, 36, 110
1, 429163, Note_on_c, 9, 46, 0
1, 429599, Note_on_c, 9, 36, 0
1, 429600, Note_on_c, 9, 38, 110
1, 429600, Note_on_c, 9, 46, 110
1, 429643, Note_on_c, 9, 46, 0
1, 430079, Note_on_c, 9, 38, 0
1, 430080, Note_on_c, 9, 46, 110
1, 430080, Note_on_c, 9, 49, 110
1, 430080, Note_on_c, 9, 36, 110
1, 430123, Note_on_c, 9, 46, 0
1, 430123, Note_on_c, 9, 49, 0
1, 430559, Note_on_c, 9, 36, 0
1, 430560, Note_on_c, 9, 38, 110
1, 430560, Note_on_c, 9, 46, 110
1, 430603, Note_on_c, 9, 46, 0
1, 430800, Note_on_c, 9, 36, 110
1, 431039, Note_on_c, 9, 38, 0
1, 431039, Note_on_c, 9, 36, 0
1, 431040, Note_on_c, 9, 46, 110
1, 431083, Note_on_c, 9, 46, 0
1, 431280, Note_on_c, 9, 36, 110
1, 431519, Note_on_c, 9, 36, 0
1, 431520, Note_on_c, 9, 38, 110
1, 431520, Note_on_c, 9, 46, 110
1, 431563, Note_on_c, 9, 46, 0
1, 431999, Note_on_c, 9, 38, 0
1, 432000, Note_on_c, 9, 46, 110
1, 432043, Note_on_c, 9, 46, 0
1, 432240, Note_on_c, 9, 36, 110
1, 432479, Note_on_c, 9, 36, 0
1, 432480, Note_on_c, 9, 38, 110
1, 432480, Note_on_c, 9, 46, 110
1, 432523, Note_on_c, 9, 46, 0
1, 432959, Note_on_c, 9, 38, 0
1, 432960, Note_on_c, 9, 46, 110
1, 432960, Note_on_c, 9, 36, 110
1, 433003, Note_on_c, 9, 46, 0
1, 433439, Note_on_c, 9, 36, 0
1, 433440, Note_on_c, 9, 38, 110
1, 433440, Note_on_c, 9, 46, 110
1, 433483, Note_on_c, 9, 46, 0
1, 433919, Note_on_c, 9, 38, 0
1, 433920, Note_on_c, 9, 46, 110
1, 433920, Note_on_c, 9, 49, 110
1, 433920, Note_on_c, 9, 36, 110
1, 433963, Note_on_c, 9, 46, 0
1, 433963, Note_on_c, 9, 49, 0
1, 434399, Note_on_c, 9, 36, 0
1, 434400, Note_on_c, 9, 38, 110
1, 434400, Note_on_c, 9, 46, 110
1, 434443, Note_on_c, 9, 46, 0
1, 434640, Note_on_c, 9, 36, 110
1, 434879, Note_on_c, 9, 38, 0
1, 434879, Note_on_c, 9, 36, 0
1, 434880, Note_on_c, 9, 46, 110
1, 434923, Note_on_c, 9, 46, 0
1, 435120, Note_on_c, 9, 36, 110
1, 435359, Note_on_c, 9, 36, 0
1, 435360, Note_on_c, 9, 38, 110
1, 435360, Note_on_c, 9, 46, 110
1, 435403, Note_on_c, 9, 46, 0
1, 435839, Note_on_c, 9, 38, 0
1, 435840, Note_on_c, 9, 46, 110
1, 435883, Note_on_c, 9, 46, 0
1, 436080, Note_on_c, 9, 36, 110
1, 436319, Note_on_c, 9, 36, 0
1, 436320, Note_on_c, 9, 38, 110
1, 436320, Note_on_c, 9, 46, 110
1, 436363, Note_on_c, 9, 46, 0
1, 436799, Note_on_c, 9, 38, 0
1, 436800, Note_on_c, 9, 46, 110
1, 436800, Note_on_c, 9, 36, 110
1, 436843, Note_on_c, 9, 46, 0
1, 437279, Note_on_c, 9, 36, 0
1, 437280, Note_on_c, 9, 38, 110
1, 437280, Note_on_c, 9, 46, 110
1, 437323, Note_on_c, 9, 46, 0
1, 437759, Note_on_c, 9, 38, 0
1, 437760, Note_on_c, 9, 46, 110
1, 437760, Note_on_c, 9, 49, 110
1, 437760, Note_on_c, 9, 36, 110
1, 437803, Note_on_c, 9, 46, 0
1, 437803, Note_on_c, 9, 49, 0
1, 438239, Note_on_c, 9, 36, 0
1, 438240, Note_on_c, 9, 38, 110
1, 438240, Note_on_c, 9, 46, 110
1, 438283, Note_on_c, 9, 46, 0
1, 438480, Note_on_c, 9, 36, 110
1, 438719, Note_on_c, 9, 38, 0
1, 438719, Note_on_c, 9, 36, 0
1, 438720, Note_on_c, 9, 46, 110
1, 438763, Note_on_c, 9, 46, 0
1, 438960, Note_on_c, 9, 36, 110
1, 439199, Note_on_c, 9, 36, 0
1, 439200, Note_on_c, 9, 38, 110
1, 439200, Note_on_c, 9, 46, 110
1, 439243, Note_on_c, 9, 46, 0
1, 439679, Note_on_c, 9, 38, 0
1, 439680, Note_on_c, 9, 46, 110
1, 439723, Note_on_c, 9, 46, 0
1, 439920, Note_on_c, 9, 36, 110
1, 440159, Note_on_c, 9, 36, 0
1, 440160, Note_on_c, 9, 38, 110
1, 440160, Note_on_c, 9, 46, 110
1, 440203, Note_on_c, 9, 46, 0
1, 440639, Note_on_c, 9, 38, 0
1, 440640, Note_on_c, 9, 46, 110
1, 440640, Note_on_c, 9, 36, 110
1, 440683, Note_on_c, 9, 46, 0
1, 441119, Note_on_c, 9, 36, 0
1, 441120, Note_on_c, 9, 38, 110
1, 441120, Note_on_c, 9, 46, 110
1, 441163, Note_on_c, 9, 46, 0
1, 441599, Note_on_c, 9, 38, 0
1, 441600, Note_on_c, 9, 46, 110
1, 441600, Note_on_c, 9, 49, 110
1, 441600, Note_on_c, 9, 36, 110
1, 441643, Note_on_c, 9, 46, 0
1, 441643, Note_on_c, 9, 49, 0
1, 442079, Note_on_c, 9, 36, 0
1, 442080, Note_on_c, 9, 38, 110
1, 442080, Note_on_c, 9, 46, 110
1, 442123, Note_on_c, 9, 46, 0
1, 442320, Note_on_c, 9, 36, 110
1, 442559, Note_on_c, 9, 38, 0
1, 442559, Note_on_c, 9, 36, 0
1, 442560, Note_on_c, 9, 46, 110
1, 442603, Note_on_c, 9, 46, 0
1, 442800, Note_on_c, 9, 36, 110
1, 443039, Note_on_c, 9, 36, 0
1, 443040, Note_on_c, 9, 38, 110
1, 443040, Note_on_c, 9, 46, 110
1, 443083, Note_on_c, 9, 46, 0
1, 443519, Note_on_c, 9, 38, 0
1, 443520, Note_on_c, 9, 46, 110
1, 443563, Note_on_c, 9, 46, 0
1, 443760, Note_on_c, 9, 36, 110
1, 443999, Note_on_c, 9, 36, 0
1, 444000, Note_on_c, 9, 38, 110
1, 444000, Note_on_c, 9, 46, 110
1, 444043, Note_on_c, 9, 46, 0
1, 444479, Note_on_c, 9, 38, 0
1, 444480, Note_on_c, 9, 46, 110
1, 444480, Note_on_c, 9, 36, 110
1, 444523, Note_on_c, 9, 46, 0
1, 444959, Note_on_c, 9, 36, 0
1, 444960, Note_on_c, 9, 38, 110
1, 444960, Note_on_c, 9, 46, 110
1, 445003, Note_on_c, 9, 46, 0
1, 445439, Note_on_c, 9, 38, 0
1, 445440, Note_on_c, 9, 46, 110
1, 445440, Note_on_c, 9, 49, 110
1, 445440, Note_on_c, 9, 36, 110
1, 445483, Note_on_c, 9, 46, 0
1, 445483, Note_on_c, 9, 49, 0
1, 445919, Note_on_c, 9, 36, 0
1, 445920, Note_on_c, 9, 38, 110
1, 445920, Note_on_c, 9, 46, 110
1, 445963, Note_on_c, 9, 46, 0
1, 446160, Note_on_c, 9, 36, 110
1, 446399, Note_on_c, 9, 38, 0
1, 446399, Note_on_c, 9, 36, 0
1, 446400, Note_on_c, 9, 46, 110
1, 446443, Note_on_c, 9, 46, 0
1, 446640, Note_on_c, 9, 36, 110
1, 446879, Note_on_c, 9, 36, 0
1, 446880, Note_on_c, 9, 38, 110
1, 446880, Note_on_c, 9, 46, 110
1, 446923, Note_on_c, 9, 46, 0
1, 447359, Note_on_c, 9, 38, 0
1, 447360, Note_on_c, 9, 46, 110
1, 447403, Note_on_c, 9, 46, 0
1, 447600, Note_on_c, 9, 36, 110
1, 447839, Note_on_c, 9, 36, 0
1, 447840, Note_on_c, 9, 38, 110
1, 447840, Note_on_c, 9, 46, 110
1, 447883, Note_on_c, 9, 46, 0
1, 448319, Note_on_c, 9, 38, 0
1, 448320, Note_on_c, 9, 46, 110
1, 448320, Note_on_c, 9, 36, 110
1, 448363, Note_on_c, 9, 46, 0
1, 448799, Note_on_c, 9, 36, 0
1, 448800, Note_on_c, 9, 38, 110
1, 448800, Note_on_c, 9, 46, 110
1, 448843, Note_on_c, 9, 46, 0
1, 449279, Note_on_c, 9, 38, 0
1, 449280, Tempo, 500000
1, 449280, Note_on_c, 9, 49, 110
1, 449280, Note_on_c, 9, 36, 110
1, 449302, Note_on_c, 9, 49, 0
1, 449759, Note_on_c, 9, 36, 0
1, 451440, Note_on_c, 9, 50, 110
1, 451679, Note_on_c, 9, 50, 0
1, 451920, Note_on_c, 9, 48, 110
1, 452159, Note_on_c, 9, 48, 0
1, 452160, Note_on_c, 9, 47, 110
1, 452519, Note_on_c, 9, 47, 0
1, 452520, Note_on_c, 9, 45, 110
1, 452639, Note_on_c, 9, 45, 0
1, 452640, Note_on_c, 9, 43, 110
1, 452879, Note_on_c, 9, 43, 0
1, 452880, Note_on_c, 9, 49, 110
1, 452880, Note_on_c, 9, 36, 110
1, 452890, Note_on_c, 9, 49, 0
1, 453119, Note_on_c, 9, 36, 0
1, 453120, Note_on_c, 9, 49, 110
1, 453120, Note_on_c, 9, 36, 110
1, 453142, Note_on_c, 9, 49, 0
1, 453599, Note_on_c, 9, 36, 0
1, 455040, Note_on_c, 9, 50, 110
1, 455159, Note_on_c, 9, 50, 0
1, 455160, Note_on_c, 9, 50, 110
1, 455279, Note_on_c, 9, 50, 0
1, 455340, Note_on_c, 9, 50, 110
1, 455459, Note_on_c, 9, 50, 0
1, 455460, Note_on_c, 9, 50, 110
1, 455519, Note_on_c, 9, 50, 0
1, 455520, Note_on_c, 9, 48, 110
1, 455639, Note_on_c, 9, 48, 0
1, 455640, Note_on_c, 9, 48, 110
1, 455759, Note_on_c, 9, 48, 0
1, 455820, Note_on_c, 9, 48, 110
1, 455939, Note_on_c, 9, 48, 0
1, 455940, Note_on_c, 9, 48, 110
1, 455999, Note_on_c, 9, 48, 0
1, 456000, Note_on_c, 9, 47, 110
1, 456119, Note_on_c, 9, 47, 0
1, 456120, Note_on_c, 9, 47, 110
1, 456239, Note_on_c, 9, 47, 0
1, 456300, Note_on_c, 9, 47, 110
1, 456419, Note_on_c, 9, 47, 0
1, 456420, Note_on_c, 9, 47, 110
1, 456479, Note_on_c, 9, 47, 0
1, 456480, Note_on_c, 9, 45, 110
1, 456719, Note_on_c, 9, 45, 0
1, 456720, Note_on_c, 9, 49, 110
1, 456720, Note_on_c, 9, 36, 110
1, 456730, Note_on_c, 9, 49, 0
1, 456959, Note_on_c, 9, 36, 0
1, 456960, Note_on_c, 9, 49, 110
1, 456960, Note_on_c, 9, 36, 110
1, 456982, Note_on_c, 9, 49, 0
1, 457439, Note_on_c, 9, 36, 0
1, 458880, Note_on_c, 9, 50, 110
1, 458919, Note_on_c, 9, 50, 0
1, 458920, Note_on_c, 9, 50, 110
1, 458939, Note_on_c, 9, 50, 0
1, 459060, Note_on_c, 9, 50, 110
1, 459119, Note_on_c, 9, 50, 0
1, 459240, Note_on_c, 9, 50, 110
1, 459359, Note_on_c, 9, 50, 0
1, 459360, Note_on_c, 9, 48, 110
1, 459389, Note_on_c, 9, 48, 0
1, 459390, Note_on_c, 9, 48, 110
1, 459479, Note_on_c, 9, 48, 0
1, 459480, Note_on_c, 9, 48, 110
1, 459719, Note_on_c, 9, 48, 0
1, 459720, Note_on_c, 9, 48, 110
1, 459839, Note_on_c, 9, 48, 0
1, 459840, Note_on_c, 9, 47, 110
1, 459869, Note_on_c, 9, 47, 0
1, 459870, Note_on_c, 9, 47, 110
1, 459959, Note_on_c, 9, 47, 0
1, 459960, Note_on_c, 9, 47, 110
1, 460199, Note_on_c, 9, 47, 0
1, 460200, Note_on_c, 9, 47, 110
1, 460319, Note_on_c, 9, 47, 0
1, 460320, Note_on_c, 9, 45, 110
1, 460379, Note_on_c, 9, 45, 0
1, 460380, Note_on_c, 9, 45, 110
1, 460559, Note_on_c, 9, 45, 0
1, 460560, Note_on_c, 9, 49, 110
1, 460560, Note_on_c, 9, 36, 110
1, 460570, Note_on_c, 9, 49, 0
1, 460799, Note_on_c, 9, 36, 0
1, 460800, Note_on_c, 9, 49, 110
1, 460800, Note_on_c, 9, 36, 110
1, 460822, Note_on_c, 9, 49, 0
1, 461279, Note_on_c, 9, 36, 0
1, 462795, Tempo, 508475
1, 462873, Tempo, 517241
1, 462950, Tempo, 526316
1, 462960, Note_on_c, 9, 38, 110
1, 463025, Tempo, 535714
1, 463103, Tempo, 545455
1, 463180, Tempo, 555556
1, 463199, Note_on_c, 9, 38, 0
1, 463258, Tempo, 566038
1, 463333, Tempo, 576923
1, 463410, Tempo, 588235
1, 463440, Note_on_c, 9, 47, 110
1, 463488, Tempo, 600000
1, 463563, Tempo, 612245
1, 463640, Tempo, 625000
1, 463679, Note_on_c, 9, 47, 0
1, 463680, Note_on_c, 9, 45, 110
1, 463718, Tempo, 638298
1, 463795, Tempo, 652174
1, 463870, Tempo, 666667
1, 463948, Tempo, 681818
1, 464025, Tempo, 697674
1, 464039, Note_on_c, 9, 45, 0
1, 464040, Note_on_c, 9, 38, 110
1, 464100, Tempo, 714286
1, 464159, Note_on_c, 9, 38, 0
1, 464160, Note_on_c, 9, 38, 110
1, 464178, Tempo, 731707
1, 464255, Tempo, 750000
1, 464333, Tempo, 769231
1, 464400, Note_on_c, 9, 36, 110
1, 464408, Tempo, 789474
1, 464485, Tempo, 810811
1, 464563, Tempo, 833333
1, 464639, Note_on_c, 9, 38, 0
1, 464639, Note_on_c, 9, 36, 0
1, 464640, Tempo, 857143
1, 464640, Note_on_c, 9, 38, 110
1, 464640, Note_on_c, 9, 46, 110
1, 464640, Note_on_c, 9, 42, 110
1, 464640, Note_on_c, 9, 49, 110
1, 464640, Note_on_c, 9, 36, 110
1, 464652, Note_on_c, 9, 46, 0
1, 464652, Note_on_c, 9, 42, 0
1, 464652, Note_on_c, 9, 49, 0
1, 468479, Note_on_c, 9, 38, 0
1, 468479, Note_on_c, 9, 36, 0
1, 468480, End_track
0, 0, End_of_file
