0, 0, Header, 1, 1, 480
1, 0, Start_track
1, 0, Title_t, "Drumset"
1, 0, Time_signature, 4, 2, 24, 8
1, 0, Key_signature, 0, "major"
1, 0, Tempo, 652174
1, 0, Control_c, 9, 121, 0
1, 0, Program_c, 9, 0
1, 0, Control_c, 9, 7, 100
1, 0, Control_c, 9, 10, 64
1, 0, Control_c, 9, 91, 0
1, 0, Control_c, 9, 93, 0
1, 0, MIDI_port, 0
1, 52560, Note_on_c, 9, 38, 127
1, 52679, Note_on_c, 9, 38, 0
1, 52680, Note_on_c, 9, 38, 127
1, 52799, Note_on_c, 9, 38, 0
1, 52800, Note_on_c, 9, 57, 127
1, 52800, Note_on_c, 9, 35, 127
1, 52807, Note_on_c, 9, 57, 0
1, 53040, Note_on_c, 9, 38, 127
1, 53159, Note_on_c, 9, 38, 0
1, 53160, Note_on_c, 9, 38, 127
1, 53279, Note_on_c, 9, 35, 0
1, 53279, Note_on_c, 9, 38, 0
1, 53280, Note_on_c, 9, 57, 127
1, 53280, Note_on_c, 9, 35, 127
1, 53287, Note_on_c, 9, 57, 0
1, 53520, Note_on_c, 9, 38, 127
1, 53639, Note_on_c, 9, 38, 0
1, 53640, Note_on_c, 9, 38, 127
1, 53759, Note_on_c, 9, 35, 0
1, 53759, Note_on_c, 9, 38, 0
1, 53760, Note_on_c, 9, 38, 127
1, 53760, Note_on_c, 9, 42, 100
1, 53767, Note_on_c, 9, 42, 0
1, 53999, Note_on_c, 9, 38, 0
1, 54000, Note_on_c, 9, 42, 100
1, 54000, Note_on_c, 9, 35, 127
1, 54007, Note_on_c, 9, 42, 0
1, 54239, Note_on_c, 9, 35, 0
1, 54240, Note_on_c, 9, 38, 127
1, 54240, Note_on_c, 9, 42, 100
1, 54247, Note_on_c, 9, 42, 0
1, 54360, Note_on_c, 9, 35, 127
1, 54479, Note_on_c, 9, 38, 0
1, 54480, Note_on_c, 9, 46, 127
1, 54487, Note_on_c, 9, 46, 0
1, 54719, Note_on_c, 9, 35, 0
1, 54720, Note_on_c, 9, 38, 127
1, 54720, Note_on_c, 9, 42, 100
1, 54727, Note_on_c, 9, 42, 0
1, 54959, Note_on_c, 9, 38, 0
1, 54960, Note_on_c, 9, 42, 100
1, 54960, Note_on_c, 9, 35, 127
1, 54967, Note_on_c, 9, 42, 0
1, 55199, Note_on_c, 9, 35, 0
1, 55200, Note_on_c, 9, 38, 127
1, 55200, Note_on_c, 9, 42, 100
1, 55207, Note_on_c, 9, 42, 0
1, 55320, Note_on_c, 9, 35, 127
1, 55439, Note_on_c, 9, 38, 0
1, 55440, Note_on_c, 9, 46, 127
1, 55447, Note_on_c, 9, 46, 0
1, 55679, Note_on_c, 9, 35, 0
1, 55680, Note_on_c, 9, 38, 127
1, 55680, Note_on_c, 9, 42, 100
1, 55687, Note_on_c, 9, 42, 0
1, 55919, Note_on_c, 9, 38, 0
1, 55920, Note_on_c, 9, 42, 100
1, 55920, Note_on_c, 9, 35, 127
1, 55927, Note_on_c, 9, 42, 0
1, 56159, Note_on_c, 9, 35, 0
1, 56160, Note_on_c, 9, 38, 127
1, 56160, Note_on_c, 9, 42, 100
1, 56167, Note_on_c, 9, 42, 0
1, 56280, Note_on_c, 9, 35, 127
1, 56399, Note_on_c, 9, 38, 0
1, 56400, Note_on_c, 9, 46, 127
1, 56407, Note_on_c, 9, 46, 0
1, 56639, Note_on_c, 9, 35, 0
1, 56640, Note_on_c, 9, 38, 127
1, 56640, Note_on_c, 9, 57, 127
1, 56647, Note_on_c, 9, 57, 0
1, 56879, Note_on_c, 9, 38, 0
1, 56880, Note_on_c, 9, 46, 127
1, 56887, Note_on_c, 9, 46, 0
1, 57120, Note_on_c, 9, 38, 127
1, 57120, Note_on_c, 9, 57, 127
1, 57127, Note_on_c, 9, 57, 0
1, 57359, Note_on_c, 9, 38, 0
1, 57360, Note_on_c, 9, 46, 127
1, 57367, Note_on_c, 9, 46, 0
1, 57600, Note_on_c, 9, 38, 127
1, 57600, Note_on_c, 9, 42, 100
1, 57607, Note_on_c, 9, 42, 0
1, 57839, Note_on_c, 9, 38, 0
1, 57840, Note_on_c, 9, 42, 100
1, 57840, Note_on_c, 9, 35, 127
1, 57847, Note_on_c, 9, 42, 0
1, 58079, Note_on_c, 9, 35, 0
1, 58080, Note_on_c, 9, 38, 127
1, 58080, Note_on_c, 9, 42, 100
1, 58087, Note_on_c, 9, 42, 0
1, 58200, Note_on_c, 9, 35, 127
1, 58319, Note_on_c, 9, 38, 0
1, 58320, Note_on_c, 9, 46, 127
1, 58327, Note_on_c, 9, 46, 0
1, 58559, Note_on_c, 9, 35, 0
1, 58560, Note_on_c, 9, 38, 127
1, 58560, Note_on_c, 9, 42, 100
1, 58567, Note_on_c, 9, 42, 0
1, 58799, Note_on_c, 9, 38, 0
1, 58800, Note_on_c, 9, 42, 100
1, 58800, Note_on_c, 9, 35, 127
1, 58807, Note_on_c, 9, 42, 0
1, 59039, Note_on_c, 9, 35, 0
1, 59040, Note_on_c, 9, 38, 127
1, 59040, Note_on_c, 9, 42, 100
1, 59047, Note_on_c, 9, 42, 0
1, 59160, Note_on_c, 9, 35, 127
1, 59279, Note_on_c, 9, 38, 0
1, 59280, Note_on_c, 9, 46, 127
1, 59287, Note_on_c, 9, 46, 0
1, 59519, Note_on_c, 9, 35, 0
1, 59520, Note_on_c, 9, 38, 127
1, 59520, Note_on_c, 9, 42, 100
1, 59527, Note_on_c, 9, 42, 0
1, 59759, Note_on_c, 9, 38, 0
1, 59760, Note_on_c, 9, 42, 100
1, 59760, Note_on_c, 9, 35, 127
1, 59767, Note_on_c, 9, 42, 0
1, 59999, Note_on_c, 9, 35, 0
1, 60000, Note_on_c, 9, 38, 127
1, 60000, Note_on_c, 9, 42, 100
1, 60007, Note_on_c, 9, 42, 0
1, 60120, Note_on_c, 9, 35, 127
1, 60239, Note_on_c, 9, 38, 0
1, 60240, Note_on_c, 9, 46, 127
1, 60247, Note_on_c, 9, 46, 0
1, 60479, Note_on_c, 9, 35, 0
1, 60480, Note_on_c, 9, 38, 127
1, 60480, Note_on_c, 9, 57, 127
1, 60487, Note_on_c, 9, 57, 0
1, 60719, Note_on_c, 9, 38, 0
1, 60720, Note_on_c, 9, 46, 127
1, 60727, Note_on_c, 9, 46, 0
1, 60960, Note_on_c, 9, 38, 127
1, 60960, Note_on_c, 9, 57, 127
1, 60967, Note_on_c, 9, 57, 0
1, 61199, Note_on_c, 9, 38, 0
1, 61200, Note_on_c, 9, 46, 127
1, 61207, Note_on_c, 9, 46, 0
1, 61440, Note_on_c, 9, 38, 127
1, 61440, Note_on_c, 9, 42, 100
1, 61447, Note_on_c, 9, 42, 0
1, 61679, Note_on_c, 9, 38, 0
1, 61680, Note_on_c, 9, 42, 100
1, 61680, Note_on_c, 9, 35, 127
1, 61687, Note_on_c, 9, 42, 0
1, 61919, Note_on_c, 9, 35, 0
1, 61920, Note_on_c, 9, 38, 127
1, 61920, Note_on_c, 9, 42, 100
1, 61927, Note_on_c, 9, 42, 0
1, 62040, Note_on_c, 9, 35, 127
1, 62159, Note_on_c, 9, 38, 0
1, 62160, Note_on_c, 9, 46, 127
1, 62167, Note_on_c, 9, 46, 0
1, 62399, Note_on_c, 9, 35, 0
1, 62400, Note_on_c, 9, 38, 127
1, 62400, Note_on_c, 9, 42, 100
1, 62407, Note_on_c, 9, 42, 0
1, 62639, Note_on_c, 9, 38, 0
1, 62640, Note_on_c, 9, 42, 100
1, 62640, Note_on_c, 9, 35, 127
1, 62647, Note_on_c, 9, 42, 0
1, 62879, Note_on_c, 9, 35, 0
1, 62880, Note_on_c, 9, 38, 127
1, 62880, Note_on_c, 9, 42, 100
1, 62887, Note_on_c, 9, 42, 0
1, 63000, Note_on_c, 9, 35, 127
1, 63119, Note_on_c, 9, 38, 0
1, 63120, Note_on_c, 9, 46, 127
1, 63127, Note_on_c, 9, 46, 0
1, 63359, Note_on_c, 9, 35, 0
1, 63360, Note_on_c, 9, 38, 127
1, 63360, Note_on_c, 9, 42, 100
1, 63367, Note_on_c, 9, 42, 0
1, 63599, Note_on_c, 9, 38, 0
1, 63600, Note_on_c, 9, 42, 100
1, 63600, Note_on_c, 9, 35, 127
1, 63607, Note_on_c, 9, 42, 0
1, 63839, Note_on_c, 9, 35, 0
1, 63840, Note_on_c, 9, 38, 127
1, 63840, Note_on_c, 9, 42, 100
1, 63847, Note_on_c, 9, 42, 0
1, 63960, Note_on_c, 9, 35, 127
1, 64079, Note_on_c, 9, 38, 0
1, 64080, Note_on_c, 9, 46, 127
1, 64087, Note_on_c, 9, 46, 0
1, 64319, Note_on_c, 9, 35, 0
1, 64320, Note_on_c, 9, 57, 127
1, 64320, Note_on_c, 9, 35, 127
1, 64327, Note_on_c, 9, 57, 0
1, 64560, Note_on_c, 9, 46, 127
1, 64567, Note_on_c, 9, 46, 0
1, 64799, Note_on_c, 9, 35, 0
1, 64800, Note_on_c, 9, 38, 127
1, 64800, Note_on_c, 9, 42, 100
1, 64800, Note_on_c, 9, 35, 127
1, 64807, Note_on_c, 9, 42, 0
1, 65039, Note_on_c, 9, 38, 0
1, 65040, Note_on_c, 9, 38, 127
1, 65159, Note_on_c, 9, 38, 0
1, 65160, Note_on_c, 9, 38, 127
1, 65279, Note_on_c, 9, 35, 0
1, 65279, Note_on_c, 9, 38, 0
1, 65280, Note_on_c, 9, 57, 127
1, 65280, Note_on_c, 9, 35, 127
1, 65287, Note_on_c, 9, 57, 0
1, 65520, Note_on_c, 9, 42, 100
1, 65527, Note_on_c, 9, 42, 0
1, 65759, Note_on_c, 9, 35, 0
1, 65760, Note_on_c, 9, 38, 127
1, 65760, Note_on_c, 9, 42, 100
1, 65767, Note_on_c, 9, 42, 0
1, 65999, Note_on_c, 9, 38, 0
1, 66000, Note_on_c, 9, 42, 100
1, 66007, Note_on_c, 9, 42, 0
1, 66240, Note_on_c, 9, 42, 100
1, 66240, Note_on_c, 9, 35, 127
1, 66247, Note_on_c, 9, 42, 0
1, 66479, Note_on_c, 9, 35, 0
1, 66480, Note_on_c, 9, 42, 100
1, 66480, Note_on_c, 9, 35, 127
1, 66487, Note_on_c, 9, 42, 0
1, 66719, Note_on_c, 9, 35, 0
1, 66720, Note_on_c, 9, 38, 127
1, 66720, Note_on_c, 9, 42, 100
1, 66727, Note_on_c, 9, 42, 0
1, 66959, Note_on_c, 9, 38, 0
1, 66960, Note_on_c, 9, 42, 100
1, 66960, Note_on_c, 9, 35, 127
1, 66967, Note_on_c, 9, 42, 0
1, 67199, Note_on_c, 9, 35, 0
1, 67200, Note_on_c, 9, 42, 100
1, 67200, Note_on_c, 9, 35, 127
1, 67207, Note_on_c, 9, 42, 0
1, 67440, Note_on_c, 9, 42, 100
1, 67447, Note_on_c, 9, 42, 0
1, 67679, Note_on_c, 9, 35, 0
1, 67680, Note_on_c, 9, 38, 127
1, 67680, Note_on_c, 9, 42, 100
1, 67687, Note_on_c, 9, 42, 0
1, 67919, Note_on_c, 9, 38, 0
1, 67920, Note_on_c, 9, 42, 100
1, 67927, Note_on_c, 9, 42, 0
1, 68160, Note_on_c, 9, 42, 100
1, 68160, Note_on_c, 9, 35, 127
1, 68167, Note_on_c, 9, 42, 0
1, 68399, Note_on_c, 9, 35, 0
1, 68400, Note_on_c, 9, 42, 100
1, 68400, Note_on_c, 9, 35, 127
1, 68407, Note_on_c, 9, 42, 0
1, 68639, Note_on_c, 9, 35, 0
1, 68640, Note_on_c, 9, 38, 127
1, 68640, Note_on_c, 9, 42, 100
1, 68647, Note_on_c, 9, 42, 0
1, 68879, Note_on_c, 9, 38, 0
1, 68880, Note_on_c, 9, 42, 100
1, 68880, Note_on_c, 9, 35, 127
1, 68887, Note_on_c, 9, 42, 0
1, 69119, Note_on_c, 9, 35, 0
1, 69120, Note_on_c, 9, 42, 100
1, 69120, Note_on_c, 9, 35, 127
1, 69127, Note_on_c, 9, 42, 0
1, 69360, Note_on_c, 9, 42, 100
1, 69367, Note_on_c, 9, 42, 0
1, 69599, Note_on_c, 9, 35, 0
1, 69600, Note_on_c, 9, 38, 127
1, 69600, Note_on_c, 9, 42, 100
1, 69607, Note_on_c, 9, 42, 0
1, 69839, Note_on_c, 9, 38, 0
1, 69840, Note_on_c, 9, 42, 100
1, 69847, Note_on_c, 9, 42, 0
1, 70080, Note_on_c, 9, 42, 100
1, 70080, Note_on_c, 9, 35, 127
1, 70087, Note_on_c, 9, 42, 0
1, 70319, Note_on_c, 9, 35, 0
1, 70320, Note_on_c, 9, 42, 100
1, 70320, Note_on_c, 9, 35, 127
1, 70327, Note_on_c, 9, 42, 0
1, 70559, Note_on_c, 9, 35, 0
1, 70560, Note_on_c, 9, 38, 127
1, 70560, Note_on_c, 9, 42, 100
1, 70567, Note_on_c, 9, 42, 0
1, 70799, Note_on_c, 9, 38, 0
1, 70800, Note_on_c, 9, 42, 100
1, 70800, Note_on_c, 9, 35, 127
1, 70807, Note_on_c, 9, 42, 0
1, 71039, Note_on_c, 9, 35, 0
1, 71040, Note_on_c, 9, 42, 100
1, 71040, Note_on_c, 9, 35, 127
1, 71047, Note_on_c, 9, 42, 0
1, 71280, Note_on_c, 9, 42, 100
1, 71287, Note_on_c, 9, 42, 0
1, 71519, Note_on_c, 9, 35, 0
1, 71520, Note_on_c, 9, 38, 127
1, 71520, Note_on_c, 9, 42, 100
1, 71527, Note_on_c, 9, 42, 0
1, 71759, Note_on_c, 9, 38, 0
1, 71760, Note_on_c, 9, 42, 100
1, 71767, Note_on_c, 9, 42, 0
1, 72000, Note_on_c, 9, 57, 127
1, 72000, Note_on_c, 9, 35, 127
1, 72016, Note_on_c, 9, 57, 0
1, 72479, Note_on_c, 9, 35, 0
1, 72480, Note_on_c, 9, 57, 127
1, 72480, Note_on_c, 9, 35, 127
1, 72496, Note_on_c, 9, 57, 0
1, 72959, Note_on_c, 9, 35, 0
1, 72960, Note_on_c, 9, 42, 100
1, 72960, Note_on_c, 9, 35, 127
1, 72967, Note_on_c, 9, 42, 0
1, 73200, Note_on_c, 9, 42, 100
1, 73207, Note_on_c, 9, 42, 0
1, 73439, Note_on_c, 9, 35, 0
1, 73440, Note_on_c, 9, 38, 127
1, 73440, Note_on_c, 9, 42, 100
1, 73447, Note_on_c, 9, 42, 0
1, 73679, Note_on_c, 9, 38, 0
1, 73680, Note_on_c, 9, 42, 100
1, 73687, Note_on_c, 9, 42, 0
1, 73920, Note_on_c, 9, 42, 100
1, 73920, Note_on_c, 9, 35, 127
1, 73927, Note_on_c, 9, 42, 0
1, 74159, Note_on_c, 9, 35, 0
1, 74160, Note_on_c, 9, 42, 100
1, 74160, Note_on_c, 9, 35, 127
1, 74167, Note_on_c, 9, 42, 0
1, 74399, Note_on_c, 9, 35, 0
1, 74400, Note_on_c, 9, 38, 127
1, 74400, Note_on_c, 9, 42, 100
1, 74407, Note_on_c, 9, 42, 0
1, 74639, Note_on_c, 9, 38, 0
1, 74640, Note_on_c, 9, 42, 100
1, 74647, Note_on_c, 9, 42, 0
1, 74880, Note_on_c, 9, 42, 100
1, 74880, Note_on_c, 9, 35, 127
1, 74887, Note_on_c, 9, 42, 0
1, 75120, Note_on_c, 9, 42, 100
1, 75127, Note_on_c, 9, 42, 0
1, 75359, Note_on_c, 9, 35, 0
1, 75360, Note_on_c, 9, 38, 127
1, 75360, Note_on_c, 9, 42, 100
1, 75367, Note_on_c, 9, 42, 0
1, 75599, Note_on_c, 9, 38, 0
1, 75600, Note_on_c, 9, 42, 100
1, 75607, Note_on_c, 9, 42, 0
1, 75840, Note_on_c, 9, 42, 100
1, 75840, Note_on_c, 9, 35, 127
1, 75847, Note_on_c, 9, 42, 0
1, 76079, Note_on_c, 9, 35, 0
1, 76080, Note_on_c, 9, 42, 100
1, 76080, Note_on_c, 9, 35, 127
1, 76087, Note_on_c, 9, 42, 0
1, 76319, Note_on_c, 9, 35, 0
1, 76320, Note_on_c, 9, 38, 127
1, 76320, Note_on_c, 9, 42, 100
1, 76327, Note_on_c, 9, 42, 0
1, 76559, Note_on_c, 9, 38, 0
1, 76560, Note_on_c, 9, 42, 100
1, 76567, Note_on_c, 9, 42, 0
1, 76800, Note_on_c, 9, 42, 100
1, 76800, Note_on_c, 9, 35, 127
1, 76807, Note_on_c, 9, 42, 0
1, 77040, Note_on_c, 9, 42, 100
1, 77047, Note_on_c, 9, 42, 0
1, 77279, Note_on_c, 9, 35, 0
1, 77280, Note_on_c, 9, 38, 127
1, 77280, Note_on_c, 9, 42, 100
1, 77287, Note_on_c, 9, 42, 0
1, 77519, Note_on_c, 9, 38, 0
1, 77520, Note_on_c, 9, 42, 100
1, 77527, Note_on_c, 9, 42, 0
1, 77760, Note_on_c, 9, 42, 100
1, 77760, Note_on_c, 9, 35, 127
1, 77767, Note_on_c, 9, 42, 0
1, 77999, Note_on_c, 9, 35, 0
1, 78000, Note_on_c, 9, 42, 100
1, 78000, Note_on_c, 9, 35, 127
1, 78007, Note_on_c, 9, 42, 0
1, 78239, Note_on_c, 9, 35, 0
1, 78240, Note_on_c, 9, 38, 127
1, 78240, Note_on_c, 9, 42, 100
1, 78247, Note_on_c, 9, 42, 0
1, 78479, Note_on_c, 9, 38, 0
1, 78480, Note_on_c, 9, 42, 100
1, 78487, Note_on_c, 9, 42, 0
1, 78720, Note_on_c, 9, 42, 100
1, 78720, Note_on_c, 9, 35, 127
1, 78727, Note_on_c, 9, 42, 0
1, 78960, Note_on_c, 9, 42, 100
1, 78967, Note_on_c, 9, 42, 0
1, 79199, Note_on_c, 9, 35, 0
1, 79200, Note_on_c, 9, 38, 127
1, 79200, Note_on_c, 9, 42, 100
1, 79207, Note_on_c, 9, 42, 0
1, 79439, Note_on_c, 9, 38, 0
1, 79440, Note_on_c, 9, 42, 100
1, 79447, Note_on_c, 9, 42, 0
1, 79680, Note_on_c, 9, 42, 100
1, 79680, Note_on_c, 9, 35, 127
1, 79687, Note_on_c, 9, 42, 0
1, 79919, Note_on_c, 9, 35, 0
1, 79920, Note_on_c, 9, 42, 100
1, 79920, Note_on_c, 9, 35, 127
1, 79927, Note_on_c, 9, 42, 0
1, 80159, Note_on_c, 9, 35, 0
1, 80160, Note_on_c, 9, 38, 127
1, 80160, Note_on_c, 9, 42, 100
1, 80167, Note_on_c, 9, 42, 0
1, 80399, Note_on_c, 9, 38, 0
1, 80400, Note_on_c, 9, 42, 100
1, 80407, Note_on_c, 9, 42, 0
1, 80640, Note_on_c, 9, 42, 100
1, 80640, Note_on_c, 9, 35, 127
1, 80647, Note_on_c, 9, 42, 0
1, 80880, Note_on_c, 9, 42, 100
1, 80887, Note_on_c, 9, 42, 0
1, 81119, Note_on_c, 9, 35, 0
1, 81120, Note_on_c, 9, 38, 127
1, 81120, Note_on_c, 9, 42, 100
1, 81127, Note_on_c, 9, 42, 0
1, 81359, Note_on_c, 9, 38, 0
1, 81360, Note_on_c, 9, 42, 100
1, 81367, Note_on_c, 9, 42, 0
1, 81600, Note_on_c, 9, 42, 100
1, 81600, Note_on_c, 9, 35, 127
1, 81607, Note_on_c, 9, 42, 0
1, 81839, Note_on_c, 9, 35, 0
1, 81840, Note_on_c, 9, 42, 100
1, 81840, Note_on_c, 9, 35, 127
1, 81847, Note_on_c, 9, 42, 0
1, 82079, Note_on_c, 9, 35, 0
1, 82080, Note_on_c, 9, 38, 127
1, 82080, Note_on_c, 9, 42, 100
1, 82087, Note_on_c, 9, 42, 0
1, 82319, Note_on_c, 9, 38, 0
1, 82320, Note_on_c, 9, 42, 100
1, 82327, Note_on_c, 9, 42, 0
1, 82560, Note_on_c, 9, 42, 100
1, 82560, Note_on_c, 9, 35, 127
1, 82567, Note_on_c, 9, 42, 0
1, 82800, Note_on_c, 9, 42, 100
1, 82807, Note_on_c, 9, 42, 0
1, 83039, Note_on_c, 9, 35, 0
1, 83040, Note_on_c, 9, 38, 127
1, 83040, Note_on_c, 9, 42, 100
1, 83047, Note_on_c, 9, 42, 0
1, 83279, Note_on_c, 9, 38, 0
1, 83280, Note_on_c, 9, 42, 100
1, 83287, Note_on_c, 9, 42, 0
1, 83520, Note_on_c, 9, 42, 100
1, 83520, Note_on_c, 9, 57, 127
1, 83520, Note_on_c, 9, 35, 127
1, 83527, Note_on_c, 9, 42, 0
1, 83527, Note_on_c, 9, 57, 0
1, 83760, Note_on_c, 9, 46, 127
1, 83767, Note_on_c, 9, 46, 0
1, 83999, Note_on_c, 9, 35, 0
1, 84000, Note_on_c, 9, 38, 127
1, 84000, Note_on_c, 9, 42, 100
1, 84000, Note_on_c, 9, 57, 127
1, 84007, Note_on_c, 9, 42, 0
1, 84007, Note_on_c, 9, 57, 0
1, 84239, Note_on_c, 9, 38, 0
1, 84240, Note_on_c, 9, 46, 127
1, 84247, Note_on_c, 9, 46, 0
1, 84480, Note_on_c, 9, 42, 100
1, 84480, Note_on_c, 9, 35, 127
1, 84487, Note_on_c, 9, 42, 0
1, 84720, Note_on_c, 9, 42, 100
1, 84727, Note_on_c, 9, 42, 0
1, 84959, Note_on_c, 9, 35, 0
1, 84960, Note_on_c, 9, 38, 127
1, 84960, Note_on_c, 9, 42, 100
1, 84967, Note_on_c, 9, 42, 0
1, 85199, Note_on_c, 9, 38, 0
1, 85200, Note_on_c, 9, 42, 100
1, 85207, Note_on_c, 9, 42, 0
1, 85440, Note_on_c, 9, 42, 100
1, 85440, Note_on_c, 9, 35, 127
1, 85447, Note_on_c, 9, 42, 0
1, 85679, Note_on_c, 9, 35, 0
1, 85680, Note_on_c, 9, 42, 100
1, 85680, Note_on_c, 9, 35, 127
1, 85687, Note_on_c, 9, 42, 0
1, 85919, Note_on_c, 9, 35, 0
1, 85920, Note_on_c, 9, 38, 127
1, 85920, Note_on_c, 9, 42, 100
1, 85927, Note_on_c, 9, 42, 0
1, 86159, Note_on_c, 9, 38, 0
1, 86160, Note_on_c, 9, 42, 100
1, 86167, Note_on_c, 9, 42, 0
1, 86400, Note_on_c, 9, 42, 100
1, 86400, Note_on_c, 9, 35, 127
1, 86407, Note_on_c, 9, 42, 0
1, 86640, Note_on_c, 9, 42, 100
1, 86647, Note_on_c, 9, 42, 0
1, 86879, Note_on_c, 9, 35, 0
1, 86880, Note_on_c, 9, 38, 127
1, 86880, Note_on_c, 9, 42, 100
1, 86887, Note_on_c, 9, 42, 0
1, 87119, Note_on_c, 9, 38, 0
1, 87120, Note_on_c, 9, 42, 100
1, 87127, Note_on_c, 9, 42, 0
1, 87360, Note_on_c, 9, 42, 100
1, 87360, Note_on_c, 9, 35, 127
1, 87367, Note_on_c, 9, 42, 0
1, 87599, Note_on_c, 9, 35, 0
1, 87600, Note_on_c, 9, 42, 100
1, 87600, Note_on_c, 9, 35, 127
1, 87607, Note_on_c, 9, 42, 0
1, 87839, Note_on_c, 9, 35, 0
1, 87840, Note_on_c, 9, 38, 127
1, 87840, Note_on_c, 9, 42, 100
1, 87847, Note_on_c, 9, 42, 0
1, 88079, Note_on_c, 9, 38, 0
1, 88080, Note_on_c, 9, 42, 100
1, 88087, Note_on_c, 9, 42, 0
1, 88320, Note_on_c, 9, 42, 100
1, 88320, Note_on_c, 9, 35, 127
1, 88327, Note_on_c, 9, 42, 0
1, 88560, Note_on_c, 9, 42, 100
1, 88567, Note_on_c, 9, 42, 0
1, 88799, Note_on_c, 9, 35, 0
1, 88800, Note_on_c, 9, 38, 127
1, 88800, Note_on_c, 9, 42, 100
1, 88807, Note_on_c, 9, 42, 0
1, 89039, Note_on_c, 9, 38, 0
1, 89040, Note_on_c, 9, 42, 100
1, 89047, Note_on_c, 9, 42, 0
1, 89280, Note_on_c, 9, 42, 100
1, 89280, Note_on_c, 9, 35, 127
1, 89287, Note_on_c, 9, 42, 0
1, 89519, Note_on_c, 9, 35, 0
1, 89520, Note_on_c, 9, 42, 100
1, 89520, Note_on_c, 9, 35, 127
1, 89527, Note_on_c, 9, 42, 0
1, 89759, Note_on_c, 9, 35, 0
1, 89760, Note_on_c, 9, 38, 127
1, 89760, Note_on_c, 9, 42, 100
1, 89767, Note_on_c, 9, 42, 0
1, 89999, Note_on_c, 9, 38, 0
1, 90000, Note_on_c, 9, 42, 100
1, 90007, Note_on_c, 9, 42, 0
1, 90240, Note_on_c, 9, 42, 100
1, 90240, Note_on_c, 9, 35, 127
1, 90247, Note_on_c, 9, 42, 0
1, 90480, Note_on_c, 9, 42, 100
1, 90487, Note_on_c, 9, 42, 0
1, 90719, Note_on_c, 9, 35, 0
1, 90720, Note_on_c, 9, 38, 127
1, 90959, Note_on_c, 9, 38, 0
1, 90960, Note_on_c, 9, 38, 127
1, 91079, Note_on_c, 9, 38, 0
1, 91080, Note_on_c, 9, 38, 127
1, 91199, Note_on_c, 9, 38, 0
1, 91200, Note_on_c, 9, 57, 127
1, 91200, Note_on_c, 9, 35, 127
1, 91207, Note_on_c, 9, 57, 0
1, 91440, Note_on_c, 9, 38, 127
1, 91559, Note_on_c, 9, 38, 0
1, 91560, Note_on_c, 9, 38, 127
1, 91679, Note_on_c, 9, 35, 0
1, 91679, Note_on_c, 9, 38, 0
1, 91680, Note_on_c, 9, 57, 127
1, 91680, Note_on_c, 9, 35, 127
1, 91687, Note_on_c, 9, 57, 0
1, 91920, Note_on_c, 9, 38, 127
1, 92039, Note_on_c, 9, 38, 0
1, 92040, Note_on_c, 9, 38, 127
1, 92159, Note_on_c, 9, 35, 0
1, 92159, Note_on_c, 9, 38, 0
1, 92160, Note_on_c, 9, 38, 127
1, 92160, Note_on_c, 9, 42, 100
1, 92167, Note_on_c, 9, 42, 0
1, 92399, Note_on_c, 9, 38, 0
1, 92400, Note_on_c, 9, 42, 100
1, 92400, Note_on_c, 9, 35, 127
1, 92407, Note_on_c, 9, 42, 0
1, 92639, Note_on_c, 9, 35, 0
1, 92640, Note_on_c, 9, 38, 127
1, 92640, Note_on_c, 9, 42, 100
1, 92647, Note_on_c, 9, 42, 0
1, 92760, Note_on_c, 9, 35, 127
1, 92879, Note_on_c, 9, 38, 0
1, 92880, Note_on_c, 9, 46, 127
1, 92887, Note_on_c, 9, 46, 0
1, 93119, Note_on_c, 9, 35, 0
1, 93120, Note_on_c, 9, 38, 127
1, 93120, Note_on_c, 9, 42, 100
1, 93127, Note_on_c, 9, 42, 0
1, 93359, Note_on_c, 9, 38, 0
1, 93360, Note_on_c, 9, 42, 100
1, 93360, Note_on_c, 9, 35, 127
1, 93367, Note_on_c, 9, 42, 0
1, 93599, Note_on_c, 9, 35, 0
1, 93600, Note_on_c, 9, 38, 127
1, 93600, Note_on_c, 9, 42, 100
1, 93607, Note_on_c, 9, 42, 0
1, 93720, Note_on_c, 9, 35, 127
1, 93839, Note_on_c, 9, 38, 0
1, 93840, Note_on_c, 9, 46, 127
1, 93847, Note_on_c, 9, 46, 0
1, 94079, Note_on_c, 9, 35, 0
1, 94080, Note_on_c, 9, 38, 127
1, 94080, Note_on_c, 9, 42, 100
1, 94087, Note_on_c, 9, 42, 0
1, 94319, Note_on_c, 9, 38, 0
1, 94320, Note_on_c, 9, 42, 100
1, 94320, Note_on_c, 9, 35, 127
1, 94327, Note_on_c, 9, 42, 0
1, 94559, Note_on_c, 9, 35, 0
1, 94560, Note_on_c, 9, 38, 127
1, 94560, Note_on_c, 9, 42, 100
1, 94567, Note_on_c, 9, 42, 0
1, 94680, Note_on_c, 9, 35, 127
1, 94799, Note_on_c, 9, 38, 0
1, 94800, Note_on_c, 9, 46, 127
1, 94807, Note_on_c, 9, 46, 0
1, 95039, Note_on_c, 9, 35, 0
1, 95040, Note_on_c, 9, 38, 127
1, 95040, Note_on_c, 9, 57, 127
1, 95047, Note_on_c, 9, 57, 0
1, 95279, Note_on_c, 9, 38, 0
1, 95280, Note_on_c, 9, 46, 127
1, 95287, Note_on_c, 9, 46, 0
1, 95520, Note_on_c, 9, 38, 127
1, 95520, Note_on_c, 9, 57, 127
1, 95527, Note_on_c, 9, 57, 0
1, 95759, Note_on_c, 9, 38, 0
1, 95760, Note_on_c, 9, 46, 127
1, 95767, Note_on_c, 9, 46, 0
1, 96000, Note_on_c, 9, 38, 127
1, 96000, Note_on_c, 9, 42, 100
1, 96007, Note_on_c, 9, 42, 0
1, 96239, Note_on_c, 9, 38, 0
1, 96240, Note_on_c, 9, 42, 100
1, 96240, Note_on_c, 9, 35, 127
1, 96247, Note_on_c, 9, 42, 0
1, 96479, Note_on_c, 9, 35, 0
1, 96480, Note_on_c, 9, 38, 127
1, 96480, Note_on_c, 9, 42, 100
1, 96487, Note_on_c, 9, 42, 0
1, 96600, Note_on_c, 9, 35, 127
1, 96719, Note_on_c, 9, 38, 0
1, 96720, Note_on_c, 9, 46, 127
1, 96727, Note_on_c, 9, 46, 0
1, 96959, Note_on_c, 9, 35, 0
1, 96960, Note_on_c, 9, 38, 127
1, 96960, Note_on_c, 9, 42, 100
1, 96967, Note_on_c, 9, 42, 0
1, 97199, Note_on_c, 9, 38, 0
1, 97200, Note_on_c, 9, 42, 100
1, 97200, Note_on_c, 9, 35, 127
1, 97207, Note_on_c, 9, 42, 0
1, 97439, Note_on_c, 9, 35, 0
1, 97440, Note_on_c, 9, 38, 127
1, 97440, Note_on_c, 9, 42, 100
1, 97447, Note_on_c, 9, 42, 0
1, 97560, Note_on_c, 9, 35, 127
1, 97679, Note_on_c, 9, 38, 0
1, 97680, Note_on_c, 9, 46, 127
1, 97687, Note_on_c, 9, 46, 0
1, 97919, Note_on_c, 9, 35, 0
1, 97920, Note_on_c, 9, 38, 127
1, 97920, Note_on_c, 9, 42, 100
1, 97927, Note_on_c, 9, 42, 0
1, 98159, Note_on_c, 9, 38, 0
1, 98160, Note_on_c, 9, 42, 100
1, 98160, Note_on_c, 9, 35, 127
1, 98167, Note_on_c, 9, 42, 0
1, 98399, Note_on_c, 9, 35, 0
1, 98400, Note_on_c, 9, 38, 127
1, 98400, Note_on_c, 9, 42, 100
1, 98407, Note_on_c, 9, 42, 0
1, 98520, Note_on_c, 9, 35, 127
1, 98639, Note_on_c, 9, 38, 0
1, 98640, Note_on_c, 9, 46, 127
1, 98647, Note_on_c, 9, 46, 0
1, 98879, Note_on_c, 9, 35, 0
1, 98880, Note_on_c, 9, 38, 127
1, 98880, Note_on_c, 9, 57, 127
1, 98887, Note_on_c, 9, 57, 0
1, 99119, Note_on_c, 9, 38, 0
1, 99120, Note_on_c, 9, 46, 127
1, 99127, Note_on_c, 9, 46, 0
1, 99360, Note_on_c, 9, 38, 127
1, 99360, Note_on_c, 9, 57, 127
1, 99367, Note_on_c, 9, 57, 0
1, 99599, Note_on_c, 9, 38, 0
1, 99600, Note_on_c, 9, 46, 127
1, 99607, Note_on_c, 9, 46, 0
1, 99840, Note_on_c, 9, 38, 127
1, 99840, Note_on_c, 9, 42, 100
1, 99847, Note_on_c, 9, 42, 0
1, 100079, Note_on_c, 9, 38, 0
1, 100080, Note_on_c, 9, 42, 100
1, 100080, Note_on_c, 9, 35, 127
1, 100087, Note_on_c, 9, 42, 0
1, 100319, Note_on_c, 9, 35, 0
1, 100320, Note_on_c, 9, 38, 127
1, 100320, Note_on_c, 9, 42, 100
1, 100327, Note_on_c, 9, 42, 0
1, 100440, Note_on_c, 9, 35, 127
1, 100559, Note_on_c, 9, 38, 0
1, 100560, Note_on_c, 9, 46, 127
1, 100567, Note_on_c, 9, 46, 0
1, 100799, Note_on_c, 9, 35, 0
1, 100800, Note_on_c, 9, 38, 127
1, 100800, Note_on_c, 9, 42, 100
1, 100807, Note_on_c, 9, 42, 0
1, 101039, Note_on_c, 9, 38, 0
1, 101040, Note_on_c, 9, 42, 100
1, 101040, Note_on_c, 9, 35, 127
1, 101047, Note_on_c, 9, 42, 0
1, 101279, Note_on_c, 9, 35, 0
1, 101280, Note_on_c, 9, 38, 127
1, 101280, Note_on_c, 9, 42, 100
1, 101287, Note_on_c, 9, 42, 0
1, 101400, Note_on_c, 9, 35, 127
1, 101519, Note_on_c, 9, 38, 0
1, 101520, Note_on_c, 9, 46, 127
1, 101527, Note_on_c, 9, 46, 0
1, 101759, Note_on_c, 9, 35, 0
1, 101760, Note_on_c, 9, 38, 127
1, 101760, Note_on_c, 9, 42, 100
1, 101767, Note_on_c, 9, 42, 0
1, 101999, Note_on_c, 9, 38, 0
1, 102000, Note_on_c, 9, 42, 100
1, 102000, Note_on_c, 9, 35, 127
1, 102007, Note_on_c, 9, 42, 0
1, 102239, Note_on_c, 9, 35, 0
1, 102240, Note_on_c, 9, 38, 127
1, 102240, Note_on_c, 9, 42, 100
1, 102247, Note_on_c, 9, 42, 0
1, 102360, Note_on_c, 9, 35, 127
1, 102479, Note_on_c, 9, 38, 0
1, 102480, Note_on_c, 9, 46, 127
1, 102487, Note_on_c, 9, 46, 0
1, 102719, Note_on_c, 9, 35, 0
1, 102720, Note_on_c, 9, 57, 127
1, 102720, Note_on_c, 9, 35, 127
1, 102727, Note_on_c, 9, 57, 0
1, 102960, Note_on_c, 9, 46, 127
1, 102967, Note_on_c, 9, 46, 0
1, 103199, Note_on_c, 9, 35, 0
1, 103200, Note_on_c, 9, 38, 127
1, 103200, Note_on_c, 9, 42, 100
1, 103200, Note_on_c, 9, 35, 127
1, 103207, Note_on_c, 9, 42, 0
1, 103439, Note_on_c, 9, 38, 0
1, 103440, Note_on_c, 9, 38, 127
1, 103559, Note_on_c, 9, 38, 0
1, 103560, Note_on_c, 9, 38, 127
1, 103679, Note_on_c, 9, 35, 0
1, 103679, Note_on_c, 9, 38, 0
1, 103680, Note_on_c, 9, 57, 127
1, 103680, Note_on_c, 9, 35, 127
1, 103687, Note_on_c, 9, 57, 0
1, 103920, Note_on_c, 9, 42, 100
1, 103927, Note_on_c, 9, 42, 0
1, 104159, Note_on_c, 9, 35, 0
1, 104160, Note_on_c, 9, 38, 127
1, 104160, Note_on_c, 9, 42, 100
1, 104167, Note_on_c, 9, 42, 0
1, 104399, Note_on_c, 9, 38, 0
1, 104400, Note_on_c, 9, 42, 100
1, 104407, Note_on_c, 9, 42, 0
1, 104640, Note_on_c, 9, 42, 100
1, 104640, Note_on_c, 9, 35, 127
1, 104647, Note_on_c, 9, 42, 0
1, 104879, Note_on_c, 9, 35, 0
1, 104880, Note_on_c, 9, 42, 100
1, 104880, Note_on_c, 9, 35, 127
1, 104887, Note_on_c, 9, 42, 0
1, 105119, Note_on_c, 9, 35, 0
1, 105120, Note_on_c, 9, 38, 127
1, 105120, Note_on_c, 9, 42, 100
1, 105127, Note_on_c, 9, 42, 0
1, 105359, Note_on_c, 9, 38, 0
1, 105360, Note_on_c, 9, 42, 100
1, 105360, Note_on_c, 9, 35, 127
1, 105367, Note_on_c, 9, 42, 0
1, 105599, Note_on_c, 9, 35, 0
1, 105600, Note_on_c, 9, 42, 100
1, 105600, Note_on_c, 9, 35, 127
1, 105607, Note_on_c, 9, 42, 0
1, 105840, Note_on_c, 9, 42, 100
1, 105847, Note_on_c, 9, 42, 0
1, 106079, Note_on_c, 9, 35, 0
1, 106080, Note_on_c, 9, 38, 127
1, 106080, Note_on_c, 9, 42, 100
1, 106087, Note_on_c, 9, 42, 0
1, 106319, Note_on_c, 9, 38, 0
1, 106320, Note_on_c, 9, 42, 100
1, 106327, Note_on_c, 9, 42, 0
1, 106560, Note_on_c, 9, 42, 100
1, 106560, Note_on_c, 9, 35, 127
1, 106567, Note_on_c, 9, 42, 0
1, 106799, Note_on_c, 9, 35, 0
1, 106800, Note_on_c, 9, 42, 100
1, 106800, Note_on_c, 9, 35, 127
1, 106807, Note_on_c, 9, 42, 0
1, 107039, Note_on_c, 9, 35, 0
1, 107040, Note_on_c, 9, 38, 127
1, 107040, Note_on_c, 9, 42, 100
1, 107047, Note_on_c, 9, 42, 0
1, 107279, Note_on_c, 9, 38, 0
1, 107280, Note_on_c, 9, 42, 100
1, 107280, Note_on_c, 9, 35, 127
1, 107287, Note_on_c, 9, 42, 0
1, 107519, Note_on_c, 9, 35, 0
1, 107520, Note_on_c, 9, 42, 100
1, 107520, Note_on_c, 9, 35, 127
1, 107527, Note_on_c, 9, 42, 0
1, 107760, Note_on_c, 9, 42, 100
1, 107767, Note_on_c, 9, 42, 0
1, 107999, Note_on_c, 9, 35, 0
1, 108000, Note_on_c, 9, 38, 127
1, 108000, Note_on_c, 9, 42, 100
1, 108007, Note_on_c, 9, 42, 0
1, 108239, Note_on_c, 9, 38, 0
1, 108240, Note_on_c, 9, 42, 100
1, 108247, Note_on_c, 9, 42, 0
1, 108480, Note_on_c, 9, 42, 100
1, 108480, Note_on_c, 9, 35, 127
1, 108487, Note_on_c, 9, 42, 0
1, 108719, Note_on_c, 9, 35, 0
1, 108720, Note_on_c, 9, 42, 100
1, 108720, Note_on_c, 9, 35, 127
1, 108727, Note_on_c, 9, 42, 0
1, 108959, Note_on_c, 9, 35, 0
1, 108960, Note_on_c, 9, 38, 127
1, 108960, Note_on_c, 9, 42, 100
1, 108967, Note_on_c, 9, 42, 0
1, 109199, Note_on_c, 9, 38, 0
1, 109200, Note_on_c, 9, 42, 100
1, 109200, Note_on_c, 9, 35, 127
1, 109207, Note_on_c, 9, 42, 0
1, 109439, Note_on_c, 9, 35, 0
1, 109440, Note_on_c, 9, 42, 100
1, 109440, Note_on_c, 9, 35, 127
1, 109447, Note_on_c, 9, 42, 0
1, 109680, Note_on_c, 9, 42, 100
1, 109687, Note_on_c, 9, 42, 0
1, 109919, Note_on_c, 9, 35, 0
1, 109920, Note_on_c, 9, 38, 127
1, 109920, Note_on_c, 9, 42, 100
1, 109927, Note_on_c, 9, 42, 0
1, 110159, Note_on_c, 9, 38, 0
1, 110160, Note_on_c, 9, 42, 100
1, 110167, Note_on_c, 9, 42, 0
1, 110400, Note_on_c, 9, 42, 100
1, 110400, Note_on_c, 9, 35, 127
1, 110407, Note_on_c, 9, 42, 0
1, 110640, Note_on_c, 9, 38, 127
1, 110759, Note_on_c, 9, 38, 0
1, 110760, Note_on_c, 9, 38, 127
1, 110879, Note_on_c, 9, 35, 0
1, 110879, Note_on_c, 9, 38, 0
1, 110880, Note_on_c, 9, 35, 127
1, 111120, Note_on_c, 9, 38, 127
1, 111239, Note_on_c, 9, 38, 0
1, 111240, Note_on_c, 9, 38, 127
1, 111359, Note_on_c, 9, 35, 0
1, 111359, Note_on_c, 9, 38, 0
1, 111360, Note_on_c, 9, 57, 127
1, 111360, Note_on_c, 9, 35, 127
1, 111376, Note_on_c, 9, 57, 0
1, 111839, Note_on_c, 9, 35, 0
1, 111840, Note_on_c, 9, 38, 127
1, 112079, Note_on_c, 9, 38, 0
1, 112080, Note_on_c, 9, 57, 127
1, 112080, Note_on_c, 9, 35, 127
1, 112087, Note_on_c, 9, 57, 0
1, 112319, Note_on_c, 9, 35, 0
1, 112560, Note_on_c, 9, 43, 127
1, 112679, Note_on_c, 9, 43, 0
1, 112680, Note_on_c, 9, 43, 127
1, 112799, Note_on_c, 9, 43, 0
1, 112800, Note_on_c, 9, 38, 127
1, 113279, Note_on_c, 9, 38, 0
1, 113280, Note_on_c, 9, 57, 127
1, 113280, Note_on_c, 9, 35, 127
1, 113296, Note_on_c, 9, 57, 0
1, 113759, Note_on_c, 9, 35, 0
1, 113760, Note_on_c, 9, 38, 127
1, 113999, Note_on_c, 9, 38, 0
1, 114000, Note_on_c, 9, 57, 127
1, 114000, Note_on_c, 9, 35, 127
1, 114007, Note_on_c, 9, 57, 0
1, 114239, Note_on_c, 9, 35, 0
1, 114240, Note_on_c, 9, 45, 127
1, 114480, Note_on_c, 9, 43, 127
1, 114719, Note_on_c, 9, 45, 0
1, 114719, Note_on_c, 9, 43, 0
1, 114720, Note_on_c, 9, 45, 127
1, 114840, Note_on_c, 9, 43, 127
1, 115199, Note_on_c, 9, 45, 0
1, 115199, Note_on_c, 9, 43, 0
1, 115200, Note_on_c, 9, 57, 127
1, 115200, Note_on_c, 9, 35, 127
1, 115216, Note_on_c, 9, 57, 0
1, 115679, Note_on_c, 9, 35, 0
1, 115920, Note_on_c, 9, 57, 127
1, 115920, Note_on_c, 9, 35, 127
1, 115927, Note_on_c, 9, 57, 0
1, 116159, Note_on_c, 9, 35, 0
1, 116400, Note_on_c, 9, 47, 127
1, 116519, Note_on_c, 9, 47, 0
1, 116520, Note_on_c, 9, 45, 127
1, 116639, Note_on_c, 9, 45, 0
1, 116640, Note_on_c, 9, 47, 127
1, 116879, Note_on_c, 9, 47, 0
1, 116880, Note_on_c, 9, 47, 127
1, 117119, Note_on_c, 9, 47, 0
1, 117120, Note_on_c, 9, 57, 127
1, 117120, Note_on_c, 9, 35, 127
1, 117136, Note_on_c, 9, 57, 0
1, 117599, Note_on_c, 9, 35, 0
1, 117840, Note_on_c, 9, 57, 127
1, 117840, Note_on_c, 9, 35, 127
1, 117847, Note_on_c, 9, 57, 0
1, 118079, Note_on_c, 9, 35, 0
1, 118080, Note_on_c, 9, 47, 127
1, 118199, Note_on_c, 9, 47, 0
1, 118200, Note_on_c, 9, 45, 127
1, 118439, Note_on_c, 9, 45, 0
1, 118440, Note_on_c, 9, 45, 127
1, 118559, Note_on_c, 9, 45, 0
1, 118560, Note_on_c, 9, 47, 127
1, 118799, Note_on_c, 9, 47, 0
1, 118800, Note_on_c, 9, 45, 127
1, 119039, Note_on_c, 9, 45, 0
1, 119040, Note_on_c, 9, 57, 127
1, 119040, Note_on_c, 9, 35, 127
1, 119056, Note_on_c, 9, 57, 0
1, 119519, Note_on_c, 9, 35, 0
1, 119760, Note_on_c, 9, 57, 127
1, 119760, Note_on_c, 9, 35, 127
1, 119767, Note_on_c, 9, 57, 0
1, 119999, Note_on_c, 9, 35, 0
1, 120000, Note_on_c, 9, 48, 127
1, 120239, Note_on_c, 9, 48, 0
1, 120240, Note_on_c, 9, 47, 127
1, 120359, Note_on_c, 9, 47, 0
1, 120360, Note_on_c, 9, 45, 127
1, 120479, Note_on_c, 9, 45, 0
1, 120480, Note_on_c, 9, 45, 127
1, 120599, Note_on_c, 9, 45, 0
1, 120600, Note_on_c, 9, 45, 127
1, 120719, Note_on_c, 9, 45, 0
1, 120720, Note_on_c, 9, 47, 127
1, 120959, Note_on_c, 9, 47, 0
1, 120960, Note_on_c, 9, 57, 127
1, 120960, Note_on_c, 9, 35, 127
1, 120976, Note_on_c, 9, 57, 0
1, 121439, Note_on_c, 9, 35, 0
1, 121680, Note_on_c, 9, 57, 127
1, 121680, Note_on_c, 9, 35, 127
1, 121687, Note_on_c, 9, 57, 0
1, 121919, Note_on_c, 9, 35, 0
1, 122040, Note_on_c, 9, 38, 127
1, 122159, Note_on_c, 9, 38, 0
1, 122160, Note_on_c, 9, 38, 127
1, 122279, Note_on_c, 9, 38, 0
1, 122280, Note_on_c, 9, 38, 127
1, 122399, Note_on_c, 9, 38, 0
1, 122400, Note_on_c, 9, 38, 127
1, 122519, Note_on_c, 9, 38, 0
1, 122520, Note_on_c, 9, 38, 127
1, 122639, Note_on_c, 9, 38, 0
1, 122640, Note_on_c, 9, 38, 127
1, 122759, Note_on_c, 9, 38, 0
1, 122760, Note_on_c, 9, 38, 127
1, 122879, Note_on_c, 9, 38, 0
1, 122880, Note_on_c, 9, 57, 127
1, 122880, Note_on_c, 9, 35, 127
1, 122896, Note_on_c, 9, 57, 0
1, 123359, Note_on_c, 9, 35, 0
1, 123600, Note_on_c, 9, 57, 127
1, 123600, Note_on_c, 9, 35, 127
1, 123607, Note_on_c, 9, 57, 0
1, 123839, Note_on_c, 9, 35, 0
1, 123840, Note_on_c, 9, 38, 127
1, 123959, Note_on_c, 9, 38, 0
1, 123960, Note_on_c, 9, 38, 127
1, 124079, Note_on_c, 9, 38, 0
1, 124080, Note_on_c, 9, 48, 127
1, 124199, Note_on_c, 9, 48, 0
1, 124200, Note_on_c, 9, 48, 127
1, 124319, Note_on_c, 9, 48, 0
1, 124320, Note_on_c, 9, 47, 127
1, 124439, Note_on_c, 9, 47, 0
1, 124440, Note_on_c, 9, 47, 127
1, 124559, Note_on_c, 9, 47, 0
1, 124560, Note_on_c, 9, 45, 127
1, 124679, Note_on_c, 9, 45, 0
1, 124680, Note_on_c, 9, 45, 127
1, 124799, Note_on_c, 9, 45, 0
1, 124800, Note_on_c, 9, 55, 127
1, 124800, Note_on_c, 9, 35, 127
1, 124816, Note_on_c, 9, 55, 0
1, 125279, Note_on_c, 9, 35, 0
1, 125760, Note_on_c, 9, 57, 127
1, 125760, Note_on_c, 9, 35, 127
1, 125776, Note_on_c, 9, 57, 0
1, 126239, Note_on_c, 9, 35, 0
1, 126240, Note_on_c, 9, 57, 127
1, 126240, Note_on_c, 9, 35, 127
1, 126256, Note_on_c, 9, 57, 0
1, 126719, Note_on_c, 9, 35, 0
1, 126720, Note_on_c, 9, 57, 127
1, 126720, Note_on_c, 9, 35, 127
1, 126727, Note_on_c, 9, 57, 0
1, 126960, Note_on_c, 9, 42, 100
1, 126967, Note_on_c, 9, 42, 0
1, 127199, Note_on_c, 9, 35, 0
1, 127200, Note_on_c, 9, 38, 127
1, 127200, Note_on_c, 9, 42, 100
1, 127207, Note_on_c, 9, 42, 0
1, 127439, Note_on_c, 9, 38, 0
1, 127440, Note_on_c, 9, 42, 100
1, 127447, Note_on_c, 9, 42, 0
1, 127680, Note_on_c, 9, 42, 100
1, 127680, Note_on_c, 9, 35, 127
1, 127687, Note_on_c, 9, 42, 0
1, 127919, Note_on_c, 9, 35, 0
1, 127920, Note_on_c, 9, 42, 100
1, 127920, Note_on_c, 9, 35, 127
1, 127927, Note_on_c, 9, 42, 0
1, 128159, Note_on_c, 9, 35, 0
1, 128160, Note_on_c, 9, 38, 127
1, 128160, Note_on_c, 9, 42, 100
1, 128167, Note_on_c, 9, 42, 0
1, 128399, Note_on_c, 9, 38, 0
1, 128400, Note_on_c, 9, 42, 100
1, 128407, Note_on_c, 9, 42, 0
1, 128640, Note_on_c, 9, 42, 100
1, 128640, Note_on_c, 9, 35, 127
1, 128647, Note_on_c, 9, 42, 0
1, 128880, Note_on_c, 9, 42, 100
1, 128887, Note_on_c, 9, 42, 0
1, 129119, Note_on_c, 9, 35, 0
1, 129120, Note_on_c, 9, 38, 127
1, 129120, Note_on_c, 9, 42, 100
1, 129127, Note_on_c, 9, 42, 0
1, 129359, Note_on_c, 9, 38, 0
1, 129360, Note_on_c, 9, 42, 100
1, 129367, Note_on_c, 9, 42, 0
1, 129600, Note_on_c, 9, 42, 100
1, 129600, Note_on_c, 9, 35, 127
1, 129607, Note_on_c, 9, 42, 0
1, 129839, Note_on_c, 9, 35, 0
1, 129840, Note_on_c, 9, 42, 100
1, 129840, Note_on_c, 9, 35, 127
1, 129847, Note_on_c, 9, 42, 0
1, 130079, Note_on_c, 9, 35, 0
1, 130080, Note_on_c, 9, 38, 127
1, 130080, Note_on_c, 9, 42, 100
1, 130087, Note_on_c, 9, 42, 0
1, 130319, Note_on_c, 9, 38, 0
1, 130320, Note_on_c, 9, 42, 100
1, 130327, Note_on_c, 9, 42, 0
1, 130560, Note_on_c, 9, 42, 100
1, 130560, Note_on_c, 9, 35, 127
1, 130567, Note_on_c, 9, 42, 0
1, 130800, Note_on_c, 9, 42, 100
1, 130807, Note_on_c, 9, 42, 0
1, 131039, Note_on_c, 9, 35, 0
1, 131040, Note_on_c, 9, 38, 127
1, 131040, Note_on_c, 9, 42, 100
1, 131047, Note_on_c, 9, 42, 0
1, 131279, Note_on_c, 9, 38, 0
1, 131280, Note_on_c, 9, 42, 100
1, 131287, Note_on_c, 9, 42, 0
1, 131520, Note_on_c, 9, 42, 100
1, 131520, Note_on_c, 9, 35, 127
1, 131527, Note_on_c, 9, 42, 0
1, 131759, Note_on_c, 9, 35, 0
1, 131760, Note_on_c, 9, 42, 100
1, 131760, Note_on_c, 9, 35, 127
1, 131767, Note_on_c, 9, 42, 0
1, 131999, Note_on_c, 9, 35, 0
1, 132000, Note_on_c, 9, 38, 127
1, 132000, Note_on_c, 9, 42, 100
1, 132007, Note_on_c, 9, 42, 0
1, 132239, Note_on_c, 9, 38, 0
1, 132240, Note_on_c, 9, 42, 100
1, 132247, Note_on_c, 9, 42, 0
1, 132480, Note_on_c, 9, 42, 100
1, 132480, Note_on_c, 9, 35, 127
1, 132487, Note_on_c, 9, 42, 0
1, 132720, Note_on_c, 9, 42, 100
1, 132727, Note_on_c, 9, 42, 0
1, 132959, Note_on_c, 9, 35, 0
1, 132960, Note_on_c, 9, 38, 127
1, 132960, Note_on_c, 9, 42, 100
1, 132967, Note_on_c, 9, 42, 0
1, 133199, Note_on_c, 9, 38, 0
1, 133200, Note_on_c, 9, 42, 100
1, 133207, Note_on_c, 9, 42, 0
1, 133440, Note_on_c, 9, 42, 100
1, 133440, Note_on_c, 9, 35, 127
1, 133447, Note_on_c, 9, 42, 0
1, 133679, Note_on_c, 9, 35, 0
1, 133680, Note_on_c, 9, 42, 100
1, 133680, Note_on_c, 9, 35, 127
1, 133687, Note_on_c, 9, 42, 0
1, 133919, Note_on_c, 9, 35, 0
1, 133920, Note_on_c, 9, 38, 127
1, 133920, Note_on_c, 9, 42, 100
1, 133927, Note_on_c, 9, 42, 0
1, 134159, Note_on_c, 9, 38, 0
1, 134160, Note_on_c, 9, 42, 100
1, 134167, Note_on_c, 9, 42, 0
1, 134400, Note_on_c, 9, 42, 100
1, 134400, Note_on_c, 9, 35, 127
1, 134407, Note_on_c, 9, 42, 0
1, 134640, Note_on_c, 9, 42, 100
1, 134647, Note_on_c, 9, 42, 0
1, 134879, Note_on_c, 9, 35, 0
1, 134880, Note_on_c, 9, 38, 127
1, 134880, Note_on_c, 9, 42, 100
1, 134887, Note_on_c, 9, 42, 0
1, 135119, Note_on_c, 9, 38, 0
1, 135120, Note_on_c, 9, 42, 100
1, 135127, Note_on_c, 9, 42, 0
1, 135360, Note_on_c, 9, 42, 100
1, 135360, Note_on_c, 9, 35, 127
1, 135367, Note_on_c, 9, 42, 0
1, 135599, Note_on_c, 9, 35, 0
1, 135600, Note_on_c, 9, 42, 100
1, 135600, Note_on_c, 9, 35, 127
1, 135607, Note_on_c, 9, 42, 0
1, 135839, Note_on_c, 9, 35, 0
1, 135840, Note_on_c, 9, 38, 127
1, 135840, Note_on_c, 9, 42, 100
1, 135847, Note_on_c, 9, 42, 0
1, 136079, Note_on_c, 9, 38, 0
1, 136080, Note_on_c, 9, 42, 100
1, 136087, Note_on_c, 9, 42, 0
1, 136320, Note_on_c, 9, 42, 100
1, 136320, Note_on_c, 9, 35, 127
1, 136327, Note_on_c, 9, 42, 0
1, 136560, Note_on_c, 9, 42, 100
1, 136567, Note_on_c, 9, 42, 0
1, 136799, Note_on_c, 9, 35, 0
1, 136800, Note_on_c, 9, 38, 127
1, 136800, Note_on_c, 9, 42, 100
1, 136807, Note_on_c, 9, 42, 0
1, 137039, Note_on_c, 9, 38, 0
1, 137040, Note_on_c, 9, 42, 100
1, 137047, Note_on_c, 9, 42, 0
1, 137280, Note_on_c, 9, 57, 127
1, 137280, Note_on_c, 9, 35, 127
1, 137296, Note_on_c, 9, 57, 0
1, 137759, Note_on_c, 9, 35, 0
1, 137760, Note_on_c, 9, 57, 127
1, 137760, Note_on_c, 9, 35, 127
1, 137776, Note_on_c, 9, 57, 0
1, 138239, Note_on_c, 9, 35, 0
1, 138240, Note_on_c, 9, 42, 100
1, 138240, Note_on_c, 9, 35, 127
1, 138247, Note_on_c, 9, 42, 0
1, 138480, Note_on_c, 9, 42, 100
1, 138487, Note_on_c, 9, 42, 0
1, 138719, Note_on_c, 9, 35, 0
1, 138720, Note_on_c, 9, 38, 127
1, 138720, Note_on_c, 9, 42, 100
1, 138727, Note_on_c, 9, 42, 0
1, 138959, Note_on_c, 9, 38, 0
1, 138960, Note_on_c, 9, 42, 100
1, 138967, Note_on_c, 9, 42, 0
1, 139200, Note_on_c, 9, 42, 100
1, 139200, Note_on_c, 9, 35, 127
1, 139207, Note_on_c, 9, 42, 0
1, 139439, Note_on_c, 9, 35, 0
1, 139440, Note_on_c, 9, 42, 100
1, 139440, Note_on_c, 9, 35, 127
1, 139447, Note_on_c, 9, 42, 0
1, 139679, Note_on_c, 9, 35, 0
1, 139680, Note_on_c, 9, 38, 127
1, 139680, Note_on_c, 9, 42, 100
1, 139687, Note_on_c, 9, 42, 0
1, 139919, Note_on_c, 9, 38, 0
1, 139920, Note_on_c, 9, 42, 100
1, 139927, Note_on_c, 9, 42, 0
1, 140160, Note_on_c, 9, 42, 100
1, 140160, Note_on_c, 9, 35, 127
1, 140167, Note_on_c, 9, 42, 0
1, 140400, Note_on_c, 9, 42, 100
1, 140407, Note_on_c, 9, 42, 0
1, 140639, Note_on_c, 9, 35, 0
1, 140640, Note_on_c, 9, 38, 127
1, 140640, Note_on_c, 9, 42, 100
1, 140647, Note_on_c, 9, 42, 0
1, 140879, Note_on_c, 9, 38, 0
1, 140880, Note_on_c, 9, 42, 100
1, 140887, Note_on_c, 9, 42, 0
1, 141120, Note_on_c, 9, 42, 100
1, 141120, Note_on_c, 9, 35, 127
1, 141127, Note_on_c, 9, 42, 0
1, 141359, Note_on_c, 9, 35, 0
1, 141360, Note_on_c, 9, 42, 100
1, 141360, Note_on_c, 9, 35, 127
1, 141367, Note_on_c, 9, 42, 0
1, 141599, Note_on_c, 9, 35, 0
1, 141600, Note_on_c, 9, 38, 127
1, 141600, Note_on_c, 9, 42, 100
1, 141607, Note_on_c, 9, 42, 0
1, 141839, Note_on_c, 9, 38, 0
1, 141840, Note_on_c, 9, 42, 100
1, 141847, Note_on_c, 9, 42, 0
1, 142080, Note_on_c, 9, 42, 100
1, 142080, Note_on_c, 9, 35, 127
1, 142087, Note_on_c, 9, 42, 0
1, 142320, Note_on_c, 9, 42, 100
1, 142327, Note_on_c, 9, 42, 0
1, 142559, Note_on_c, 9, 35, 0
1, 142560, Note_on_c, 9, 38, 127
1, 142560, Note_on_c, 9, 42, 100
1, 142567, Note_on_c, 9, 42, 0
1, 142799, Note_on_c, 9, 38, 0
1, 142800, Note_on_c, 9, 42, 100
1, 142807, Note_on_c, 9, 42, 0
1, 143040, Note_on_c, 9, 42, 100
1, 143040, Note_on_c, 9, 35, 127
1, 143047, Note_on_c, 9, 42, 0
1, 143279, Note_on_c, 9, 35, 0
1, 143280, Note_on_c, 9, 42, 100
1, 143280, Note_on_c, 9, 35, 127
1, 143287, Note_on_c, 9, 42, 0
1, 143519, Note_on_c, 9, 35, 0
1, 143520, Note_on_c, 9, 38, 127
1, 143520, Note_on_c, 9, 42, 100
1, 143527, Note_on_c, 9, 42, 0
1, 143759, Note_on_c, 9, 38, 0
1, 143760, Note_on_c, 9, 42, 100
1, 143767, Note_on_c, 9, 42, 0
1, 144000, Note_on_c, 9, 42, 100
1, 144000, Note_on_c, 9, 35, 127
1, 144007, Note_on_c, 9, 42, 0
1, 144240, Note_on_c, 9, 42, 100
1, 144247, Note_on_c, 9, 42, 0
1, 144479, Note_on_c, 9, 35, 0
1, 144480, Note_on_c, 9, 38, 127
1, 144719, Note_on_c, 9, 38, 0
1, 144720, Note_on_c, 9, 38, 127
1, 144839, Note_on_c, 9, 38, 0
1, 144840, Note_on_c, 9, 38, 127
1, 144959, Note_on_c, 9, 38, 0
1, 144960, Note_on_c, 9, 57, 127
1, 144960, Note_on_c, 9, 35, 127
1, 144967, Note_on_c, 9, 57, 0
1, 145200, Note_on_c, 9, 38, 127
1, 145319, Note_on_c, 9, 38, 0
1, 145320, Note_on_c, 9, 38, 127
1, 145439, Note_on_c, 9, 35, 0
1, 145439, Note_on_c, 9, 38, 0
1, 145440, Note_on_c, 9, 57, 127
1, 145440, Note_on_c, 9, 35, 127
1, 145447, Note_on_c, 9, 57, 0
1, 145680, Note_on_c, 9, 38, 127
1, 145799, Note_on_c, 9, 38, 0
1, 145800, Note_on_c, 9, 38, 127
1, 145919, Note_on_c, 9, 35, 0
1, 145919, Note_on_c, 9, 38, 0
1, 145920, Note_on_c, 9, 38, 127
1, 145920, Note_on_c, 9, 42, 100
1, 145927, Note_on_c, 9, 42, 0
1, 146159, Note_on_c, 9, 38, 0
1, 146160, Note_on_c, 9, 42, 100
1, 146160, Note_on_c, 9, 35, 127
1, 146167, Note_on_c, 9, 42, 0
1, 146399, Note_on_c, 9, 35, 0
1, 146400, Note_on_c, 9, 38, 127
1, 146400, Note_on_c, 9, 42, 100
1, 146407, Note_on_c, 9, 42, 0
1, 146520, Note_on_c, 9, 35, 127
1, 146639, Note_on_c, 9, 38, 0
1, 146640, Note_on_c, 9, 46, 127
1, 146647, Note_on_c, 9, 46, 0
1, 146879, Note_on_c, 9, 35, 0
1, 146880, Note_on_c, 9, 38, 127
1, 146880, Note_on_c, 9, 42, 100
1, 146887, Note_on_c, 9, 42, 0
1, 147119, Note_on_c, 9, 38, 0
1, 147120, Note_on_c, 9, 42, 100
1, 147120, Note_on_c, 9, 35, 127
1, 147127, Note_on_c, 9, 42, 0
1, 147359, Note_on_c, 9, 35, 0
1, 147360, Note_on_c, 9, 38, 127
1, 147360, Note_on_c, 9, 42, 100
1, 147367, Note_on_c, 9, 42, 0
1, 147480, Note_on_c, 9, 35, 127
1, 147599, Note_on_c, 9, 38, 0
1, 147600, Note_on_c, 9, 46, 127
1, 147607, Note_on_c, 9, 46, 0
1, 147839, Note_on_c, 9, 35, 0
1, 147840, Note_on_c, 9, 38, 127
1, 147840, Note_on_c, 9, 42, 100
1, 147847, Note_on_c, 9, 42, 0
1, 148079, Note_on_c, 9, 38, 0
1, 148080, Note_on_c, 9, 42, 100
1, 148080, Note_on_c, 9, 35, 127
1, 148087, Note_on_c, 9, 42, 0
1, 148319, Note_on_c, 9, 35, 0
1, 148320, Note_on_c, 9, 38, 127
1, 148320, Note_on_c, 9, 42, 100
1, 148327, Note_on_c, 9, 42, 0
1, 148440, Note_on_c, 9, 35, 127
1, 148559, Note_on_c, 9, 38, 0
1, 148560, Note_on_c, 9, 46, 127
1, 148567, Note_on_c, 9, 46, 0
1, 148799, Note_on_c, 9, 35, 0
1, 148800, Note_on_c, 9, 38, 127
1, 148800, Note_on_c, 9, 57, 127
1, 148807, Note_on_c, 9, 57, 0
1, 149039, Note_on_c, 9, 38, 0
1, 149040, Note_on_c, 9, 46, 127
1, 149047, Note_on_c, 9, 46, 0
1, 149280, Note_on_c, 9, 38, 127
1, 149280, Note_on_c, 9, 57, 127
1, 149287, Note_on_c, 9, 57, 0
1, 149519, Note_on_c, 9, 38, 0
1, 149520, Note_on_c, 9, 46, 127
1, 149527, Note_on_c, 9, 46, 0
1, 149760, Note_on_c, 9, 38, 127
1, 149760, Note_on_c, 9, 42, 100
1, 149767, Note_on_c, 9, 42, 0
1, 149999, Note_on_c, 9, 38, 0
1, 150000, Note_on_c, 9, 42, 100
1, 150000, Note_on_c, 9, 35, 127
1, 150007, Note_on_c, 9, 42, 0
1, 150239, Note_on_c, 9, 35, 0
1, 150240, Note_on_c, 9, 38, 127
1, 150240, Note_on_c, 9, 42, 100
1, 150247, Note_on_c, 9, 42, 0
1, 150360, Note_on_c, 9, 35, 127
1, 150479, Note_on_c, 9, 38, 0
1, 150480, Note_on_c, 9, 46, 127
1, 150487, Note_on_c, 9, 46, 0
1, 150719, Note_on_c, 9, 35, 0
1, 150720, Note_on_c, 9, 38, 127
1, 150720, Note_on_c, 9, 42, 100
1, 150727, Note_on_c, 9, 42, 0
1, 150959, Note_on_c, 9, 38, 0
1, 150960, Note_on_c, 9, 42, 100
1, 150960, Note_on_c, 9, 35, 127
1, 150967, Note_on_c, 9, 42, 0
1, 151199, Note_on_c, 9, 35, 0
1, 151200, Note_on_c, 9, 38, 127
1, 151200, Note_on_c, 9, 42, 100
1, 151207, Note_on_c, 9, 42, 0
1, 151320, Note_on_c, 9, 35, 127
1, 151439, Note_on_c, 9, 38, 0
1, 151440, Note_on_c, 9, 46, 127
1, 151447, Note_on_c, 9, 46, 0
1, 151679, Note_on_c, 9, 35, 0
1, 151680, Note_on_c, 9, 38, 127
1, 151680, Note_on_c, 9, 42, 100
1, 151687, Note_on_c, 9, 42, 0
1, 151919, Note_on_c, 9, 38, 0
1, 151920, Note_on_c, 9, 42, 100
1, 151920, Note_on_c, 9, 35, 127
1, 151927, Note_on_c, 9, 42, 0
1, 152159, Note_on_c, 9, 35, 0
1, 152160, Note_on_c, 9, 38, 127
1, 152160, Note_on_c, 9, 42, 100
1, 152167, Note_on_c, 9, 42, 0
1, 152280, Note_on_c, 9, 35, 127
1, 152399, Note_on_c, 9, 38, 0
1, 152400, Note_on_c, 9, 46, 127
1, 152407, Note_on_c, 9, 46, 0
1, 152639, Note_on_c, 9, 35, 0
1, 152640, Note_on_c, 9, 38, 127
1, 152640, Note_on_c, 9, 57, 127
1, 152647, Note_on_c, 9, 57, 0
1, 152879, Note_on_c, 9, 38, 0
1, 152880, Note_on_c, 9, 46, 127
1, 152887, Note_on_c, 9, 46, 0
1, 153120, Note_on_c, 9, 38, 127
1, 153120, Note_on_c, 9, 57, 127
1, 153127, Note_on_c, 9, 57, 0
1, 153359, Note_on_c, 9, 38, 0
1, 153360, Note_on_c, 9, 46, 127
1, 153367, Note_on_c, 9, 46, 0
1, 153600, Note_on_c, 9, 38, 127
1, 153600, Note_on_c, 9, 42, 100
1, 153607, Note_on_c, 9, 42, 0
1, 153839, Note_on_c, 9, 38, 0
1, 153840, Note_on_c, 9, 42, 100
1, 153840, Note_on_c, 9, 35, 127
1, 153847, Note_on_c, 9, 42, 0
1, 154079, Note_on_c, 9, 35, 0
1, 154080, Note_on_c, 9, 38, 127
1, 154080, Note_on_c, 9, 42, 100
1, 154087, Note_on_c, 9, 42, 0
1, 154200, Note_on_c, 9, 35, 127
1, 154319, Note_on_c, 9, 38, 0
1, 154320, Note_on_c, 9, 46, 127
1, 154327, Note_on_c, 9, 46, 0
1, 154559, Note_on_c, 9, 35, 0
1, 154560, Note_on_c, 9, 38, 127
1, 154560, Note_on_c, 9, 42, 100
1, 154567, Note_on_c, 9, 42, 0
1, 154799, Note_on_c, 9, 38, 0
1, 154800, Note_on_c, 9, 42, 100
1, 154800, Note_on_c, 9, 35, 127
1, 154807, Note_on_c, 9, 42, 0
1, 155039, Note_on_c, 9, 35, 0
1, 155040, Note_on_c, 9, 38, 127
1, 155040, Note_on_c, 9, 42, 100
1, 155047, Note_on_c, 9, 42, 0
1, 155160, Note_on_c, 9, 35, 127
1, 155279, Note_on_c, 9, 38, 0
1, 155280, Note_on_c, 9, 46, 127
1, 155287, Note_on_c, 9, 46, 0
1, 155519, Note_on_c, 9, 35, 0
1, 155520, Note_on_c, 9, 38, 127
1, 155520, Note_on_c, 9, 42, 100
1, 155527, Note_on_c, 9, 42, 0
1, 155759, Note_on_c, 9, 38, 0
1, 155760, Note_on_c, 9, 42, 100
1, 155760, Note_on_c, 9, 35, 127
1, 155767, Note_on_c, 9, 42, 0
1, 155999, Note_on_c, 9, 35, 0
1, 156000, Note_on_c, 9, 38, 127
1, 156000, Note_on_c, 9, 42, 100
1, 156007, Note_on_c, 9, 42, 0
1, 156120, Note_on_c, 9, 35, 127
1, 156239, Note_on_c, 9, 38, 0
1, 156240, Note_on_c, 9, 46, 127
1, 156247, Note_on_c, 9, 46, 0
1, 156479, Note_on_c, 9, 35, 0
1, 156480, Note_on_c, 9, 57, 127
1, 156480, Note_on_c, 9, 35, 127
1, 156487, Note_on_c, 9, 57, 0
1, 156720, Note_on_c, 9, 46, 127
1, 156727, Note_on_c, 9, 46, 0
1, 156959, Note_on_c, 9, 35, 0
1, 156960, Note_on_c, 9, 38, 127
1, 156960, Note_on_c, 9, 42, 100
1, 156960, Note_on_c, 9, 35, 127
1, 156967, Note_on_c, 9, 42, 0
1, 157199, Note_on_c, 9, 38, 0
1, 157200, Note_on_c, 9, 38, 127
1, 157319, Note_on_c, 9, 38, 0
1, 157320, Note_on_c, 9, 38, 127
1, 157439, Note_on_c, 9, 35, 0
1, 157439, Note_on_c, 9, 38, 0
1, 157440, Note_on_c, 9, 57, 127
1, 157440, Note_on_c, 9, 35, 127
1, 157447, Note_on_c, 9, 57, 0
1, 157680, Note_on_c, 9, 42, 100
1, 157687, Note_on_c, 9, 42, 0
1, 157919, Note_on_c, 9, 35, 0
1, 157920, Note_on_c, 9, 38, 127
1, 157920, Note_on_c, 9, 42, 100
1, 157927, Note_on_c, 9, 42, 0
1, 158159, Note_on_c, 9, 38, 0
1, 158160, Note_on_c, 9, 42, 100
1, 158167, Note_on_c, 9, 42, 0
1, 158400, Note_on_c, 9, 42, 100
1, 158400, Note_on_c, 9, 35, 127
1, 158407, Note_on_c, 9, 42, 0
1, 158639, Note_on_c, 9, 35, 0
1, 158640, Note_on_c, 9, 42, 100
1, 158640, Note_on_c, 9, 35, 127
1, 158647, Note_on_c, 9, 42, 0
1, 158879, Note_on_c, 9, 35, 0
1, 158880, Note_on_c, 9, 38, 127
1, 158880, Note_on_c, 9, 42, 100
1, 158887, Note_on_c, 9, 42, 0
1, 159119, Note_on_c, 9, 38, 0
1, 159120, Note_on_c, 9, 42, 100
1, 159120, Note_on_c, 9, 35, 127
1, 159127, Note_on_c, 9, 42, 0
1, 159359, Note_on_c, 9, 35, 0
1, 159360, Note_on_c, 9, 42, 100
1, 159360, Note_on_c, 9, 35, 127
1, 159367, Note_on_c, 9, 42, 0
1, 159600, Note_on_c, 9, 42, 100
1, 159607, Note_on_c, 9, 42, 0
1, 159839, Note_on_c, 9, 35, 0
1, 159840, Note_on_c, 9, 38, 127
1, 159840, Note_on_c, 9, 42, 100
1, 159847, Note_on_c, 9, 42, 0
1, 160079, Note_on_c, 9, 38, 0
1, 160080, Note_on_c, 9, 42, 100
1, 160087, Note_on_c, 9, 42, 0
1, 160320, Note_on_c, 9, 42, 100
1, 160320, Note_on_c, 9, 35, 127
1, 160327, Note_on_c, 9, 42, 0
1, 160559, Note_on_c, 9, 35, 0
1, 160560, Note_on_c, 9, 42, 100
1, 160560, Note_on_c, 9, 35, 127
1, 160567, Note_on_c, 9, 42, 0
1, 160799, Note_on_c, 9, 35, 0
1, 160800, Note_on_c, 9, 38, 127
1, 160800, Note_on_c, 9, 42, 100
1, 160807, Note_on_c, 9, 42, 0
1, 161039, Note_on_c, 9, 38, 0
1, 161040, Note_on_c, 9, 42, 100
1, 161040, Note_on_c, 9, 35, 127
1, 161047, Note_on_c, 9, 42, 0
1, 161279, Note_on_c, 9, 35, 0
1, 161280, Note_on_c, 9, 42, 100
1, 161280, Note_on_c, 9, 35, 127
1, 161287, Note_on_c, 9, 42, 0
1, 161520, Note_on_c, 9, 42, 100
1, 161527, Note_on_c, 9, 42, 0
1, 161759, Note_on_c, 9, 35, 0
1, 161760, Note_on_c, 9, 38, 127
1, 161760, Note_on_c, 9, 42, 100
1, 161767, Note_on_c, 9, 42, 0
1, 161999, Note_on_c, 9, 38, 0
1, 162000, Note_on_c, 9, 42, 100
1, 162007, Note_on_c, 9, 42, 0
1, 162240, Note_on_c, 9, 42, 100
1, 162240, Note_on_c, 9, 35, 127
1, 162247, Note_on_c, 9, 42, 0
1, 162479, Note_on_c, 9, 35, 0
1, 162480, Note_on_c, 9, 42, 100
1, 162480, Note_on_c, 9, 35, 127
1, 162487, Note_on_c, 9, 42, 0
1, 162719, Note_on_c, 9, 35, 0
1, 162720, Note_on_c, 9, 38, 127
1, 162720, Note_on_c, 9, 42, 100
1, 162727, Note_on_c, 9, 42, 0
1, 162959, Note_on_c, 9, 38, 0
1, 162960, Note_on_c, 9, 42, 100
1, 162960, Note_on_c, 9, 35, 127
1, 162967, Note_on_c, 9, 42, 0
1, 163199, Note_on_c, 9, 35, 0
1, 163200, Note_on_c, 9, 42, 100
1, 163200, Note_on_c, 9, 35, 127
1, 163207, Note_on_c, 9, 42, 0
1, 163440, Note_on_c, 9, 42, 100
1, 163447, Note_on_c, 9, 42, 0
1, 163679, Note_on_c, 9, 35, 0
1, 163680, Note_on_c, 9, 38, 127
1, 163680, Note_on_c, 9, 42, 100
1, 163687, Note_on_c, 9, 42, 0
1, 163919, Note_on_c, 9, 38, 0
1, 163920, Note_on_c, 9, 42, 100
1, 163927, Note_on_c, 9, 42, 0
1, 164160, Note_on_c, 9, 42, 100
1, 164160, Note_on_c, 9, 57, 127
1, 164160, Note_on_c, 9, 35, 127
1, 164167, Note_on_c, 9, 42, 0
1, 164167, Note_on_c, 9, 57, 0
1, 164400, Note_on_c, 9, 38, 127
1, 164519, Note_on_c, 9, 38, 0
1, 164520, Note_on_c, 9, 38, 127
1, 164639, Note_on_c, 9, 35, 0
1, 164639, Note_on_c, 9, 38, 0
1, 164640, Note_on_c, 9, 55, 127
1, 164640, Note_on_c, 9, 35, 127
1, 164647, Note_on_c, 9, 55, 0
1, 164880, Note_on_c, 9, 38, 127
1, 164999, Note_on_c, 9, 38, 0
1, 165000, Note_on_c, 9, 38, 127
1, 165119, Note_on_c, 9, 35, 0
1, 165119, Note_on_c, 9, 38, 0
1, 165120, Note_on_c, 9, 38, 127
1, 165120, Note_on_c, 9, 42, 100
1, 165120, Note_on_c, 9, 57, 127
1, 165127, Note_on_c, 9, 42, 0
1, 165127, Note_on_c, 9, 57, 0
1, 165359, Note_on_c, 9, 38, 0
1, 165360, Note_on_c, 9, 42, 100
1, 165360, Note_on_c, 9, 35, 127
1, 165367, Note_on_c, 9, 42, 0
1, 165599, Note_on_c, 9, 35, 0
1, 165600, Note_on_c, 9, 38, 127
1, 165600, Note_on_c, 9, 42, 100
1, 165607, Note_on_c, 9, 42, 0
1, 165720, Note_on_c, 9, 35, 127
1, 165839, Note_on_c, 9, 38, 0
1, 165840, Note_on_c, 9, 46, 127
1, 165847, Note_on_c, 9, 46, 0
1, 166079, Note_on_c, 9, 35, 0
1, 166080, Note_on_c, 9, 38, 127
1, 166080, Note_on_c, 9, 42, 100
1, 166087, Note_on_c, 9, 42, 0
1, 166319, Note_on_c, 9, 38, 0
1, 166320, Note_on_c, 9, 42, 100
1, 166320, Note_on_c, 9, 35, 127
1, 166327, Note_on_c, 9, 42, 0
1, 166559, Note_on_c, 9, 35, 0
1, 166560, Note_on_c, 9, 38, 127
1, 166560, Note_on_c, 9, 42, 100
1, 166567, Note_on_c, 9, 42, 0
1, 166680, Note_on_c, 9, 35, 127
1, 166799, Note_on_c, 9, 38, 0
1, 166800, Note_on_c, 9, 46, 127
1, 166807, Note_on_c, 9, 46, 0
1, 167039, Note_on_c, 9, 35, 0
1, 167040, Note_on_c, 9, 38, 127
1, 167040, Note_on_c, 9, 42, 100
1, 167047, Note_on_c, 9, 42, 0
1, 167279, Note_on_c, 9, 38, 0
1, 167280, Note_on_c, 9, 42, 100
1, 167280, Note_on_c, 9, 35, 127
1, 167287, Note_on_c, 9, 42, 0
1, 167519, Note_on_c, 9, 35, 0
1, 167520, Note_on_c, 9, 38, 127
1, 167520, Note_on_c, 9, 42, 100
1, 167527, Note_on_c, 9, 42, 0
1, 167640, Note_on_c, 9, 35, 127
1, 167759, Note_on_c, 9, 38, 0
1, 167760, Note_on_c, 9, 46, 127
1, 167767, Note_on_c, 9, 46, 0
1, 167999, Note_on_c, 9, 35, 0
1, 168000, Note_on_c, 9, 38, 127
1, 168000, Note_on_c, 9, 57, 127
1, 168007, Note_on_c, 9, 57, 0
1, 168239, Note_on_c, 9, 38, 0
1, 168240, Note_on_c, 9, 46, 127
1, 168247, Note_on_c, 9, 46, 0
1, 168480, Note_on_c, 9, 38, 127
1, 168480, Note_on_c, 9, 57, 127
1, 168487, Note_on_c, 9, 57, 0
1, 168719, Note_on_c, 9, 38, 0
1, 168720, Note_on_c, 9, 46, 127
1, 168727, Note_on_c, 9, 46, 0
1, 168960, Note_on_c, 9, 38, 127
1, 168960, Note_on_c, 9, 42, 100
1, 168967, Note_on_c, 9, 42, 0
1, 169199, Note_on_c, 9, 38, 0
1, 169200, Note_on_c, 9, 42, 100
1, 169200, Note_on_c, 9, 35, 127
1, 169207, Note_on_c, 9, 42, 0
1, 169439, Note_on_c, 9, 35, 0
1, 169440, Note_on_c, 9, 38, 127
1, 169440, Note_on_c, 9, 42, 100
1, 169447, Note_on_c, 9, 42, 0
1, 169560, Note_on_c, 9, 35, 127
1, 169679, Note_on_c, 9, 38, 0
1, 169680, Note_on_c, 9, 46, 127
1, 169687, Note_on_c, 9, 46, 0
1, 169919, Note_on_c, 9, 35, 0
1, 169920, Note_on_c, 9, 38, 127
1, 169920, Note_on_c, 9, 42, 100
1, 169927, Note_on_c, 9, 42, 0
1, 170159, Note_on_c, 9, 38, 0
1, 170160, Note_on_c, 9, 42, 100
1, 170160, Note_on_c, 9, 35, 127
1, 170167, Note_on_c, 9, 42, 0
1, 170399, Note_on_c, 9, 35, 0
1, 170400, Note_on_c, 9, 38, 127
1, 170400, Note_on_c, 9, 42, 100
1, 170407, Note_on_c, 9, 42, 0
1, 170520, Note_on_c, 9, 35, 127
1, 170639, Note_on_c, 9, 38, 0
1, 170640, Note_on_c, 9, 46, 127
1, 170647, Note_on_c, 9, 46, 0
1, 170879, Note_on_c, 9, 35, 0
1, 170880, Note_on_c, 9, 38, 127
1, 170880, Note_on_c, 9, 42, 100
1, 170887, Note_on_c, 9, 42, 0
1, 171119, Note_on_c, 9, 38, 0
1, 171120, Note_on_c, 9, 42, 100
1, 171120, Note_on_c, 9, 35, 127
1, 171127, Note_on_c, 9, 42, 0
1, 171359, Note_on_c, 9, 35, 0
1, 171360, Note_on_c, 9, 38, 127
1, 171360, Note_on_c, 9, 42, 100
1, 171367, Note_on_c, 9, 42, 0
1, 171480, Note_on_c, 9, 35, 127
1, 171599, Note_on_c, 9, 38, 0
1, 171600, Note_on_c, 9, 46, 127
1, 171607, Note_on_c, 9, 46, 0
1, 171839, Note_on_c, 9, 35, 0
1, 171840, Note_on_c, 9, 38, 127
1, 171840, Note_on_c, 9, 57, 127
1, 171847, Note_on_c, 9, 57, 0
1, 172079, Note_on_c, 9, 38, 0
1, 172080, Note_on_c, 9, 46, 127
1, 172087, Note_on_c, 9, 46, 0
1, 172320, Note_on_c, 9, 38, 127
1, 172320, Note_on_c, 9, 55, 127
1, 172327, Note_on_c, 9, 55, 0
1, 172559, Note_on_c, 9, 38, 0
1, 172560, Note_on_c, 9, 46, 127
1, 172567, Note_on_c, 9, 46, 0
1, 172800, Note_on_c, 9, 38, 127
1, 172800, Note_on_c, 9, 42, 100
1, 172807, Note_on_c, 9, 42, 0
1, 173039, Note_on_c, 9, 38, 0
1, 173040, Note_on_c, 9, 42, 100
1, 173040, Note_on_c, 9, 35, 127
1, 173047, Note_on_c, 9, 42, 0
1, 173279, Note_on_c, 9, 35, 0
1, 173280, Note_on_c, 9, 38, 127
1, 173280, Note_on_c, 9, 42, 100
1, 173287, Note_on_c, 9, 42, 0
1, 173400, Note_on_c, 9, 35, 127
1, 173519, Note_on_c, 9, 38, 0
1, 173520, Note_on_c, 9, 46, 127
1, 173527, Note_on_c, 9, 46, 0
1, 173759, Note_on_c, 9, 35, 0
1, 173760, Note_on_c, 9, 38, 127
1, 173760, Note_on_c, 9, 42, 100
1, 173767, Note_on_c, 9, 42, 0
1, 173999, Note_on_c, 9, 38, 0
1, 174000, Note_on_c, 9, 42, 100
1, 174000, Note_on_c, 9, 35, 127
1, 174007, Note_on_c, 9, 42, 0
1, 174239, Note_on_c, 9, 35, 0
1, 174240, Note_on_c, 9, 38, 127
1, 174240, Note_on_c, 9, 42, 100
1, 174247, Note_on_c, 9, 42, 0
1, 174360, Note_on_c, 9, 35, 127
1, 174479, Note_on_c, 9, 38, 0
1, 174480, Note_on_c, 9, 46, 127
1, 174487, Note_on_c, 9, 46, 0
1, 174719, Note_on_c, 9, 35, 0
1, 174720, Note_on_c, 9, 38, 127
1, 174720, Note_on_c, 9, 42, 100
1, 174727, Note_on_c, 9, 42, 0
1, 174959, Note_on_c, 9, 38, 0
1, 174960, Note_on_c, 9, 42, 100
1, 174960, Note_on_c, 9, 35, 127
1, 174967, Note_on_c, 9, 42, 0
1, 175199, Note_on_c, 9, 35, 0
1, 175200, Note_on_c, 9, 38, 127
1, 175200, Note_on_c, 9, 42, 100
1, 175207, Note_on_c, 9, 42, 0
1, 175320, Note_on_c, 9, 35, 127
1, 175439, Note_on_c, 9, 38, 0
1, 175440, Note_on_c, 9, 46, 127
1, 175447, Note_on_c, 9, 46, 0
1, 175679, Note_on_c, 9, 35, 0
1, 175680, Note_on_c, 9, 57, 127
1, 175680, Note_on_c, 9, 35, 127
1, 175687, Note_on_c, 9, 57, 0
1, 175920, Note_on_c, 9, 46, 127
1, 175927, Note_on_c, 9, 46, 0
1, 176159, Note_on_c, 9, 35, 0
1, 176160, Note_on_c, 9, 38, 127
1, 176160, Note_on_c, 9, 42, 100
1, 176160, Note_on_c, 9, 35, 127
1, 176167, Note_on_c, 9, 42, 0
1, 176399, Note_on_c, 9, 38, 0
1, 176400, Note_on_c, 9, 38, 127
1, 176519, Note_on_c, 9, 38, 0
1, 176520, Note_on_c, 9, 38, 127
1, 176639, Note_on_c, 9, 35, 0
1, 176639, Note_on_c, 9, 38, 0
1, 176640, Note_on_c, 9, 57, 127
1, 176640, Note_on_c, 9, 35, 127
1, 176647, Note_on_c, 9, 57, 0
1, 176880, Note_on_c, 9, 42, 100
1, 176887, Note_on_c, 9, 42, 0
1, 177119, Note_on_c, 9, 35, 0
1, 177120, Note_on_c, 9, 38, 127
1, 177120, Note_on_c, 9, 42, 100
1, 177127, Note_on_c, 9, 42, 0
1, 177359, Note_on_c, 9, 38, 0
1, 177360, Note_on_c, 9, 42, 100
1, 177367, Note_on_c, 9, 42, 0
1, 177600, Note_on_c, 9, 42, 100
1, 177600, Note_on_c, 9, 35, 127
1, 177607, Note_on_c, 9, 42, 0
1, 177839, Note_on_c, 9, 35, 0
1, 177840, Note_on_c, 9, 42, 100
1, 177840, Note_on_c, 9, 35, 127
1, 177847, Note_on_c, 9, 42, 0
1, 178079, Note_on_c, 9, 35, 0
1, 178080, Note_on_c, 9, 38, 127
1, 178080, Note_on_c, 9, 42, 100
1, 178087, Note_on_c, 9, 42, 0
1, 178319, Note_on_c, 9, 38, 0
1, 178320, Note_on_c, 9, 42, 100
1, 178320, Note_on_c, 9, 35, 127
1, 178327, Note_on_c, 9, 42, 0
1, 178559, Note_on_c, 9, 35, 0
1, 178560, Note_on_c, 9, 42, 100
1, 178560, Note_on_c, 9, 35, 127
1, 178567, Note_on_c, 9, 42, 0
1, 178800, Note_on_c, 9, 42, 100
1, 178807, Note_on_c, 9, 42, 0
1, 179039, Note_on_c, 9, 35, 0
1, 179040, Note_on_c, 9, 38, 127
1, 179040, Note_on_c, 9, 42, 100
1, 179047, Note_on_c, 9, 42, 0
1, 179279, Note_on_c, 9, 38, 0
1, 179280, Note_on_c, 9, 42, 100
1, 179287, Note_on_c, 9, 42, 0
1, 179520, Note_on_c, 9, 42, 100
1, 179520, Note_on_c, 9, 35, 127
1, 179527, Note_on_c, 9, 42, 0
1, 179759, Note_on_c, 9, 35, 0
1, 179760, Note_on_c, 9, 42, 100
1, 179760, Note_on_c, 9, 35, 127
1, 179767, Note_on_c, 9, 42, 0
1, 179999, Note_on_c, 9, 35, 0
1, 180000, Note_on_c, 9, 38, 127
1, 180000, Note_on_c, 9, 42, 100
1, 180007, Note_on_c, 9, 42, 0
1, 180239, Note_on_c, 9, 38, 0
1, 180240, Note_on_c, 9, 42, 100
1, 180240, Note_on_c, 9, 35, 127
1, 180247, Note_on_c, 9, 42, 0
1, 180479, Note_on_c, 9, 35, 0
1, 180480, Note_on_c, 9, 42, 100
1, 180480, Note_on_c, 9, 35, 127
1, 180487, Note_on_c, 9, 42, 0
1, 180720, Note_on_c, 9, 42, 100
1, 180727, Note_on_c, 9, 42, 0
1, 180959, Note_on_c, 9, 35, 0
1, 180960, Note_on_c, 9, 38, 127
1, 180960, Note_on_c, 9, 42, 100
1, 180967, Note_on_c, 9, 42, 0
1, 181199, Note_on_c, 9, 38, 0
1, 181200, Note_on_c, 9, 42, 100
1, 181207, Note_on_c, 9, 42, 0
1, 181440, Note_on_c, 9, 42, 100
1, 181440, Note_on_c, 9, 35, 127
1, 181447, Note_on_c, 9, 42, 0
1, 181679, Note_on_c, 9, 35, 0
1, 181680, Note_on_c, 9, 42, 100
1, 181680, Note_on_c, 9, 35, 127
1, 181687, Note_on_c, 9, 42, 0
1, 181919, Note_on_c, 9, 35, 0
1, 181920, Note_on_c, 9, 38, 127
1, 181920, Note_on_c, 9, 42, 100
1, 181927, Note_on_c, 9, 42, 0
1, 182159, Note_on_c, 9, 38, 0
1, 182160, Note_on_c, 9, 42, 100
1, 182160, Note_on_c, 9, 35, 127
1, 182167, Note_on_c, 9, 42, 0
1, 182399, Note_on_c, 9, 35, 0
1, 182400, Note_on_c, 9, 42, 100
1, 182400, Note_on_c, 9, 35, 127
1, 182407, Note_on_c, 9, 42, 0
1, 182640, Note_on_c, 9, 42, 100
1, 182647, Note_on_c, 9, 42, 0
1, 182879, Note_on_c, 9, 35, 0
1, 182880, Note_on_c, 9, 38, 127
1, 182880, Note_on_c, 9, 42, 100
1, 182887, Note_on_c, 9, 42, 0
1, 183119, Note_on_c, 9, 38, 0
1, 183120, Note_on_c, 9, 42, 100
1, 183127, Note_on_c, 9, 42, 0
1, 183360, Note_on_c, 9, 57, 127
1, 183360, Note_on_c, 9, 35, 127
1, 183367, Note_on_c, 9, 57, 0
1, 183600, Note_on_c, 9, 38, 127
1, 183719, Note_on_c, 9, 38, 0
1, 183720, Note_on_c, 9, 38, 127
1, 183839, Note_on_c, 9, 35, 0
1, 183839, Note_on_c, 9, 38, 0
1, 183840, Note_on_c, 9, 55, 127
1, 183840, Note_on_c, 9, 35, 127
1, 183847, Note_on_c, 9, 55, 0
1, 184080, Note_on_c, 9, 38, 127
1, 184199, Note_on_c, 9, 38, 0
1, 184200, Note_on_c, 9, 38, 127
1, 184319, Note_on_c, 9, 35, 0
1, 184319, Note_on_c, 9, 38, 0
1, 184320, Note_on_c, 9, 38, 127
1, 184320, Note_on_c, 9, 42, 100
1, 184320, Note_on_c, 9, 57, 127
1, 184327, Note_on_c, 9, 42, 0
1, 184327, Note_on_c, 9, 57, 0
1, 184559, Note_on_c, 9, 38, 0
1, 184560, Note_on_c, 9, 42, 100
1, 184560, Note_on_c, 9, 35, 127
1, 184567, Note_on_c, 9, 42, 0
1, 184799, Note_on_c, 9, 35, 0
1, 184800, Note_on_c, 9, 38, 127
1, 184800, Note_on_c, 9, 42, 100
1, 184807, Note_on_c, 9, 42, 0
1, 184920, Note_on_c, 9, 35, 127
1, 185039, Note_on_c, 9, 38, 0
1, 185040, Note_on_c, 9, 46, 127
1, 185047, Note_on_c, 9, 46, 0
1, 185279, Note_on_c, 9, 35, 0
1, 185280, Note_on_c, 9, 38, 127
1, 185280, Note_on_c, 9, 42, 100
1, 185287, Note_on_c, 9, 42, 0
1, 185519, Note_on_c, 9, 38, 0
1, 185520, Note_on_c, 9, 42, 100
1, 185520, Note_on_c, 9, 35, 127
1, 185527, Note_on_c, 9, 42, 0
1, 185759, Note_on_c, 9, 35, 0
1, 185760, Note_on_c, 9, 38, 127
1, 185760, Note_on_c, 9, 42, 100
1, 185767, Note_on_c, 9, 42, 0
1, 185880, Note_on_c, 9, 35, 127
1, 185999, Note_on_c, 9, 38, 0
1, 186000, Note_on_c, 9, 46, 127
1, 186007, Note_on_c, 9, 46, 0
1, 186239, Note_on_c, 9, 35, 0
1, 186240, Note_on_c, 9, 38, 127
1, 186240, Note_on_c, 9, 42, 100
1, 186247, Note_on_c, 9, 42, 0
1, 186479, Note_on_c, 9, 38, 0
1, 186480, Note_on_c, 9, 42, 100
1, 186480, Note_on_c, 9, 35, 127
1, 186487, Note_on_c, 9, 42, 0
1, 186719, Note_on_c, 9, 35, 0
1, 186720, Note_on_c, 9, 38, 127
1, 186720, Note_on_c, 9, 42, 100
1, 186727, Note_on_c, 9, 42, 0
1, 186840, Note_on_c, 9, 35, 127
1, 186959, Note_on_c, 9, 38, 0
1, 186960, Note_on_c, 9, 46, 127
1, 186967, Note_on_c, 9, 46, 0
1, 187199, Note_on_c, 9, 35, 0
1, 187200, Note_on_c, 9, 38, 127
1, 187200, Note_on_c, 9, 57, 127
1, 187207, Note_on_c, 9, 57, 0
1, 187439, Note_on_c, 9, 38, 0
1, 187440, Note_on_c, 9, 46, 127
1, 187447, Note_on_c, 9, 46, 0
1, 187680, Note_on_c, 9, 38, 127
1, 187680, Note_on_c, 9, 55, 127
1, 187687, Note_on_c, 9, 55, 0
1, 187919, Note_on_c, 9, 38, 0
1, 187920, Note_on_c, 9, 46, 127
1, 187927, Note_on_c, 9, 46, 0
1, 188160, Note_on_c, 9, 38, 127
1, 188160, Note_on_c, 9, 42, 100
1, 188160, Note_on_c, 9, 57, 127
1, 188167, Note_on_c, 9, 42, 0
1, 188167, Note_on_c, 9, 57, 0
1, 188399, Note_on_c, 9, 38, 0
1, 188400, Note_on_c, 9, 42, 100
1, 188400, Note_on_c, 9, 35, 127
1, 188407, Note_on_c, 9, 42, 0
1, 188639, Note_on_c, 9, 35, 0
1, 188640, Note_on_c, 9, 38, 127
1, 188640, Note_on_c, 9, 42, 100
1, 188647, Note_on_c, 9, 42, 0
1, 188760, Note_on_c, 9, 35, 127
1, 188879, Note_on_c, 9, 38, 0
1, 188880, Note_on_c, 9, 46, 127
1, 188887, Note_on_c, 9, 46, 0
1, 189119, Note_on_c, 9, 35, 0
1, 189120, Note_on_c, 9, 38, 127
1, 189120, Note_on_c, 9, 42, 100
1, 189127, Note_on_c, 9, 42, 0
1, 189359, Note_on_c, 9, 38, 0
1, 189360, Note_on_c, 9, 42, 100
1, 189360, Note_on_c, 9, 35, 127
1, 189367, Note_on_c, 9, 42, 0
1, 189599, Note_on_c, 9, 35, 0
1, 189600, Note_on_c, 9, 38, 127
1, 189600, Note_on_c, 9, 42, 100
1, 189607, Note_on_c, 9, 42, 0
1, 189720, Note_on_c, 9, 35, 127
1, 189839, Note_on_c, 9, 38, 0
1, 189840, Note_on_c, 9, 46, 127
1, 189847, Note_on_c, 9, 46, 0
1, 190079, Note_on_c, 9, 35, 0
1, 190080, Note_on_c, 9, 38, 127
1, 190080, Note_on_c, 9, 42, 100
1, 190087, Note_on_c, 9, 42, 0
1, 190319, Note_on_c, 9, 38, 0
1, 190320, Note_on_c, 9, 42, 100
1, 190320, Note_on_c, 9, 35, 127
1, 190327, Note_on_c, 9, 42, 0
1, 190559, Note_on_c, 9, 35, 0
1, 190560, Note_on_c, 9, 38, 127
1, 190560, Note_on_c, 9, 42, 100
1, 190567, Note_on_c, 9, 42, 0
1, 190680, Note_on_c, 9, 35, 127
1, 190799, Note_on_c, 9, 38, 0
1, 190800, Note_on_c, 9, 46, 127
1, 190807, Note_on_c, 9, 46, 0
1, 191039, Note_on_c, 9, 35, 0
1, 191040, Note_on_c, 9, 38, 127
1, 191040, Note_on_c, 9, 57, 127
1, 191047, Note_on_c, 9, 57, 0
1, 191279, Note_on_c, 9, 38, 0
1, 191280, Note_on_c, 9, 46, 127
1, 191287, Note_on_c, 9, 46, 0
1, 191520, Note_on_c, 9, 38, 127
1, 191520, Note_on_c, 9, 55, 127
1, 191527, Note_on_c, 9, 55, 0
1, 191759, Note_on_c, 9, 38, 0
1, 191760, Note_on_c, 9, 46, 127
1, 191767, Note_on_c, 9, 46, 0
1, 192000, Note_on_c, 9, 38, 127
1, 192000, Note_on_c, 9, 42, 100
1, 192007, Note_on_c, 9, 42, 0
1, 192239, Note_on_c, 9, 38, 0
1, 192240, Note_on_c, 9, 42, 100
1, 192240, Note_on_c, 9, 35, 127
1, 192247, Note_on_c, 9, 42, 0
1, 192479, Note_on_c, 9, 35, 0
1, 192480, Note_on_c, 9, 38, 127
1, 192480, Note_on_c, 9, 42, 100
1, 192487, Note_on_c, 9, 42, 0
1, 192600, Note_on_c, 9, 35, 127
1, 192719, Note_on_c, 9, 38, 0
1, 192720, Note_on_c, 9, 46, 127
1, 192727, Note_on_c, 9, 46, 0
1, 192959, Note_on_c, 9, 35, 0
1, 192960, Note_on_c, 9, 38, 127
1, 192960, Note_on_c, 9, 42, 100
1, 192967, Note_on_c, 9, 42, 0
1, 193199, Note_on_c, 9, 38, 0
1, 193200, Note_on_c, 9, 42, 100
1, 193200, Note_on_c, 9, 35, 127
1, 193207, Note_on_c, 9, 42, 0
1, 193439, Note_on_c, 9, 35, 0
1, 193440, Note_on_c, 9, 38, 127
1, 193440, Note_on_c, 9, 42, 100
1, 193447, Note_on_c, 9, 42, 0
1, 193560, Note_on_c, 9, 35, 127
1, 193679, Note_on_c, 9, 38, 0
1, 193680, Note_on_c, 9, 46, 127
1, 193687, Note_on_c, 9, 46, 0
1, 193919, Note_on_c, 9, 35, 0
1, 193920, Note_on_c, 9, 38, 127
1, 193920, Note_on_c, 9, 42, 100
1, 193927, Note_on_c, 9, 42, 0
1, 194159, Note_on_c, 9, 38, 0
1, 194160, Note_on_c, 9, 42, 100
1, 194160, Note_on_c, 9, 35, 127
1, 194167, Note_on_c, 9, 42, 0
1, 194399, Note_on_c, 9, 35, 0
1, 194400, Note_on_c, 9, 38, 127
1, 194400, Note_on_c, 9, 42, 100
1, 194407, Note_on_c, 9, 42, 0
1, 194520, Note_on_c, 9, 35, 127
1, 194639, Note_on_c, 9, 38, 0
1, 194640, Note_on_c, 9, 46, 127
1, 194647, Note_on_c, 9, 46, 0
1, 194879, Note_on_c, 9, 35, 0
1, 194880, Note_on_c, 9, 57, 127
1, 194880, Note_on_c, 9, 35, 127
1, 194887, Note_on_c, 9, 57, 0
1, 195120, Note_on_c, 9, 46, 127
1, 195127, Note_on_c, 9, 46, 0
1, 195359, Note_on_c, 9, 35, 0
1, 195360, Note_on_c, 9, 38, 127
1, 195360, Note_on_c, 9, 42, 100
1, 195360, Note_on_c, 9, 35, 127
1, 195367, Note_on_c, 9, 42, 0
1, 195599, Note_on_c, 9, 38, 0
1, 195600, Note_on_c, 9, 38, 127
1, 195719, Note_on_c, 9, 38, 0
1, 195720, Note_on_c, 9, 38, 127
1, 195839, Note_on_c, 9, 35, 0
1, 195839, Note_on_c, 9, 38, 0
1, 195840, Note_on_c, 9, 57, 127
1, 195840, Note_on_c, 9, 35, 127
1, 195847, Note_on_c, 9, 57, 0
1, 196080, Note_on_c, 9, 42, 100
1, 196087, Note_on_c, 9, 42, 0
1, 196319, Note_on_c, 9, 35, 0
1, 196320, Note_on_c, 9, 38, 127
1, 196320, Note_on_c, 9, 42, 100
1, 196327, Note_on_c, 9, 42, 0
1, 196559, Note_on_c, 9, 38, 0
1, 196560, Note_on_c, 9, 42, 100
1, 196567, Note_on_c, 9, 42, 0
1, 196800, Note_on_c, 9, 42, 100
1, 196800, Note_on_c, 9, 35, 127
1, 196807, Note_on_c, 9, 42, 0
1, 197039, Note_on_c, 9, 35, 0
1, 197040, Note_on_c, 9, 42, 100
1, 197040, Note_on_c, 9, 35, 127
1, 197047, Note_on_c, 9, 42, 0
1, 197279, Note_on_c, 9, 35, 0
1, 197280, Note_on_c, 9, 38, 127
1, 197280, Note_on_c, 9, 42, 100
1, 197287, Note_on_c, 9, 42, 0
1, 197519, Note_on_c, 9, 38, 0
1, 197520, Note_on_c, 9, 42, 100
1, 197520, Note_on_c, 9, 35, 127
1, 197527, Note_on_c, 9, 42, 0
1, 197759, Note_on_c, 9, 35, 0
1, 197760, Note_on_c, 9, 42, 100
1, 197760, Note_on_c, 9, 35, 127
1, 197767, Note_on_c, 9, 42, 0
1, 198000, Note_on_c, 9, 42, 100
1, 198007, Note_on_c, 9, 42, 0
1, 198239, Note_on_c, 9, 35, 0
1, 198240, Note_on_c, 9, 38, 127
1, 198240, Note_on_c, 9, 42, 100
1, 198247, Note_on_c, 9, 42, 0
1, 198479, Note_on_c, 9, 38, 0
1, 198480, Note_on_c, 9, 42, 100
1, 198487, Note_on_c, 9, 42, 0
1, 198720, Note_on_c, 9, 42, 100
1, 198720, Note_on_c, 9, 35, 127
1, 198727, Note_on_c, 9, 42, 0
1, 198959, Note_on_c, 9, 35, 0
1, 198960, Note_on_c, 9, 42, 100
1, 198960, Note_on_c, 9, 35, 127
1, 198967, Note_on_c, 9, 42, 0
1, 199199, Note_on_c, 9, 35, 0
1, 199200, Note_on_c, 9, 38, 127
1, 199200, Note_on_c, 9, 42, 100
1, 199207, Note_on_c, 9, 42, 0
1, 199439, Note_on_c, 9, 38, 0
1, 199440, Note_on_c, 9, 42, 100
1, 199440, Note_on_c, 9, 35, 127
1, 199447, Note_on_c, 9, 42, 0
1, 199679, Note_on_c, 9, 35, 0
1, 199680, Note_on_c, 9, 42, 100
1, 199680, Note_on_c, 9, 35, 127
1, 199687, Note_on_c, 9, 42, 0
1, 199920, Note_on_c, 9, 42, 100
1, 199927, Note_on_c, 9, 42, 0
1, 200159, Note_on_c, 9, 35, 0
1, 200160, Note_on_c, 9, 38, 127
1, 200160, Note_on_c, 9, 42, 100
1, 200167, Note_on_c, 9, 42, 0
1, 200399, Note_on_c, 9, 38, 0
1, 200400, Note_on_c, 9, 42, 100
1, 200407, Note_on_c, 9, 42, 0
1, 200640, Note_on_c, 9, 42, 100
1, 200640, Note_on_c, 9, 35, 127
1, 200647, Note_on_c, 9, 42, 0
1, 200879, Note_on_c, 9, 35, 0
1, 200880, Note_on_c, 9, 42, 100
1, 200880, Note_on_c, 9, 35, 127
1, 200887, Note_on_c, 9, 42, 0
1, 201119, Note_on_c, 9, 35, 0
1, 201120, Note_on_c, 9, 38, 127
1, 201120, Note_on_c, 9, 42, 100
1, 201127, Note_on_c, 9, 42, 0
1, 201359, Note_on_c, 9, 38, 0
1, 201360, Note_on_c, 9, 42, 100
1, 201360, Note_on_c, 9, 35, 127
1, 201367, Note_on_c, 9, 42, 0
1, 201599, Note_on_c, 9, 35, 0
1, 201600, Note_on_c, 9, 42, 100
1, 201600, Note_on_c, 9, 35, 127
1, 201607, Note_on_c, 9, 42, 0
1, 201840, Note_on_c, 9, 42, 100
1, 201847, Note_on_c, 9, 42, 0
1, 202079, Note_on_c, 9, 35, 0
1, 202080, Note_on_c, 9, 38, 127
1, 202080, Note_on_c, 9, 42, 100
1, 202087, Note_on_c, 9, 42, 0
1, 202319, Note_on_c, 9, 38, 0
1, 202320, Note_on_c, 9, 38, 127
1, 202320, Note_on_c, 9, 42, 100
1, 202323, Note_on_c, 9, 42, 0
1, 202439, Note_on_c, 9, 38, 0
1, 202440, Note_on_c, 9, 38, 127
1, 202559, Note_on_c, 9, 38, 0
1, 202560, Note_on_c, 9, 57, 127
1, 202560, Note_on_c, 9, 35, 127
1, 202567, Note_on_c, 9, 57, 0
1, 202800, Note_on_c, 9, 38, 127
1, 202919, Note_on_c, 9, 38, 0
1, 202920, Note_on_c, 9, 38, 127
1, 203039, Note_on_c, 9, 35, 0
1, 203039, Note_on_c, 9, 38, 0
1, 203040, Note_on_c, 9, 57, 127
1, 203040, Note_on_c, 9, 35, 127
1, 203047, Note_on_c, 9, 57, 0
1, 203280, Note_on_c, 9, 38, 127
1, 203399, Note_on_c, 9, 38, 0
1, 203400, Note_on_c, 9, 38, 127
1, 203519, Note_on_c, 9, 35, 0
1, 203519, Note_on_c, 9, 38, 0
1, 203520, Note_on_c, 9, 38, 127
1, 203520, Note_on_c, 9, 57, 127
1, 203527, Note_on_c, 9, 57, 0
1, 203759, Note_on_c, 9, 38, 0
1, 203760, Note_on_c, 9, 38, 127
1, 203760, Note_on_c, 9, 55, 127
1, 203767, Note_on_c, 9, 55, 0
1, 203999, Note_on_c, 9, 38, 0
1, 204000, Note_on_c, 9, 47, 127
1, 204119, Note_on_c, 9, 47, 0
1, 204120, Note_on_c, 9, 47, 127
1, 204239, Note_on_c, 9, 47, 0
1, 204240, Note_on_c, 9, 45, 127
1, 204360, Note_on_c, 9, 43, 127
1, 204479, Note_on_c, 9, 45, 0
1, 204479, Note_on_c, 9, 43, 0
1, 204480, Note_on_c, 9, 38, 127
1, 204480, Note_on_c, 9, 57, 127
1, 204496, Note_on_c, 9, 57, 0
1, 204959, Note_on_c, 9, 38, 0
1, 204960, End_track
0, 0, End_of_file
