0, 0, Header, 1, 1, 480
1, 0, Start_track
1, 0, Title_t, "Drumset"
1, 0, Time_signature, 4, 2, 24, 8
1, 0, Key_signature, 0, "major"
1, 0, Tempo, 402685
1, 0, Control_c, 9, 121, 0
1, 0, Program_c, 9, 0
1, 0, Control_c, 9, 7, 100
1, 0, Control_c, 9, 10, 64
1, 0, Control_c, 9, 91, 0
1, 0, Control_c, 9, 93, 0
1, 0, MIDI_port, 0
1, 480, Note_on_c, 9, 42, 64
1, 507, Note_on_c, 9, 42, 0
1, 960, Note_on_c, 9, 42, 64
1, 987, Note_on_c, 9, 42, 0
1, 1440, Note_on_c, 9, 42, 64
1, 1467, Note_on_c, 9, 42, 0
1, 2880, Note_on_c, 9, 42, 90
1, 2907, Note_on_c, 9, 42, 0
1, 4800, Note_on_c, 9, 42, 90
1, 4827, Note_on_c, 9, 42, 0
1, 6720, Note_on_c, 9, 42, 90
1, 6747, Note_on_c, 9, 42, 0
1, 8640, Note_on_c, 9, 42, 90
1, 8667, Note_on_c, 9, 42, 0
1, 10560, Note_on_c, 9, 42, 90
1, 10587, Note_on_c, 9, 42, 0
1, 12480, Note_on_c, 9, 42, 90
1, 12507, Note_on_c, 9, 42, 0
1, 14400, Note_on_c, 9, 42, 90
1, 14427, Note_on_c, 9, 42, 0
1, 16320, Note_on_c, 9, 42, 90
1, 16347, Note_on_c, 9, 42, 0
1, 18240, Note_on_c, 9, 42, 90
1, 18267, Note_on_c, 9, 42, 0
1, 20160, Note_on_c, 9, 42, 90
1, 20187, Note_on_c, 9, 42, 0
1, 22080, Note_on_c, 9, 42, 90
1, 22107, Note_on_c, 9, 42, 0
1, 24000, Note_on_c, 9, 42, 90
1, 24027, Note_on_c, 9, 42, 0
1, 25920, Note_on_c, 9, 42, 90
1, 25947, Note_on_c, 9, 42, 0
1, 27840, Note_on_c, 9, 42, 90
1, 27867, Note_on_c, 9, 42, 0
1, 29760, Note_on_c, 9, 42, 90
1, 29787, Note_on_c, 9, 42, 0
1, 31680, Note_on_c, 9, 42, 90
1, 31707, Note_on_c, 9, 42, 0
1, 33600, Note_on_c, 9, 42, 90
1, 33627, Note_on_c, 9, 42, 0
1, 35520, Note_on_c, 9, 42, 90
1, 35547, Note_on_c, 9, 42, 0
1, 37440, Note_on_c, 9, 42, 90
1, 37467, Note_on_c, 9, 42, 0
1, 39360, Note_on_c, 9, 42, 90
1, 39387, Note_on_c, 9, 42, 0
1, 41280, Note_on_c, 9, 42, 90
1, 41307, Note_on_c, 9, 42, 0
1, 43200, Note_on_c, 9, 42, 90
1, 43227, Note_on_c, 9, 42, 0
1, 45120, Note_on_c, 9, 42, 90
1, 45147, Note_on_c, 9, 42, 0
1, 47040, Note_on_c, 9, 42, 90
1, 47067, Note_on_c, 9, 42, 0
1, 48960, Note_on_c, 9, 42, 90
1, 48987, Note_on_c, 9, 42, 0
1, 50880, Note_on_c, 9, 42, 90
1, 50907, Note_on_c, 9, 42, 0
1, 52800, Note_on_c, 9, 42, 90
1, 52827, Note_on_c, 9, 42, 0
1, 54720, Note_on_c, 9, 42, 90
1, 54747, Note_on_c, 9, 42, 0
1, 56640, Note_on_c, 9, 42, 90
1, 56667, Note_on_c, 9, 42, 0
1, 58560, Note_on_c, 9, 42, 90
1, 58587, Note_on_c, 9, 42, 0
1, 60480, Note_on_c, 9, 42, 90
1, 60493, Note_on_c, 9, 42, 0
1, 60720, Note_on_c, 9, 42, 43
1, 60733, Note_on_c, 9, 42, 0
1, 60960, Note_on_c, 9, 42, 127
1, 60973, Note_on_c, 9, 42, 0
1, 61200, Note_on_c, 9, 46, 127
1, 61213, Note_on_c, 9, 46, 0
1, 61440, Note_on_c, 9, 46, 127
1, 61467, Note_on_c, 9, 46, 0
1, 62400, Note_on_c, 9, 45, 127
1, 62400, Note_on_c, 9, 42, 127
1, 62400, Note_on_c, 9, 36, 127
1, 62427, Note_on_c, 9, 42, 0
1, 62879, Note_on_c, 9, 45, 0
1, 62879, Note_on_c, 9, 36, 0
1, 62880, Note_on_c, 9, 36, 127
1, 62880, Note_on_c, 9, 43, 127
1, 63359, Note_on_c, 9, 36, 0
1, 63359, Note_on_c, 9, 43, 0
1, 63360, Note_on_c, 9, 42, 127
1, 63360, Note_on_c, 9, 36, 127
1, 63387, Note_on_c, 9, 42, 0
1, 63839, Note_on_c, 9, 36, 0
1, 63840, Note_on_c, 9, 42, 43
1, 63867, Note_on_c, 9, 42, 0
1, 64320, Note_on_c, 9, 38, 127
1, 64320, Note_on_c, 9, 42, 127
1, 64333, Note_on_c, 9, 42, 0
1, 64559, Note_on_c, 9, 38, 0
1, 64560, Note_on_c, 9, 42, 43
1, 64573, Note_on_c, 9, 42, 0
1, 64800, Note_on_c, 9, 42, 127
1, 64813, Note_on_c, 9, 42, 0
1, 65040, Note_on_c, 9, 42, 43
1, 65040, Note_on_c, 9, 36, 127
1, 65053, Note_on_c, 9, 42, 0
1, 65279, Note_on_c, 9, 36, 0
1, 65280, Note_on_c, 9, 42, 127
1, 65280, Note_on_c, 9, 36, 127
1, 65307, Note_on_c, 9, 42, 0
1, 65759, Note_on_c, 9, 36, 0
1, 65760, Note_on_c, 9, 42, 43
1, 65760, Note_on_c, 9, 36, 127
1, 65787, Note_on_c, 9, 42, 0
1, 66239, Note_on_c, 9, 36, 0
1, 66240, Note_on_c, 9, 38, 127
1, 66240, Note_on_c, 9, 42, 127
1, 66267, Note_on_c, 9, 42, 0
1, 66480, Note_on_c, 9, 36, 127
1, 66719, Note_on_c, 9, 38, 0
1, 66719, Note_on_c, 9, 36, 0
1, 66720, Note_on_c, 9, 42, 43
1, 66747, Note_on_c, 9, 42, 0
1, 66960, Note_on_c, 9, 36, 127
1, 67199, Note_on_c, 9, 36, 0
1, 67200, Note_on_c, 9, 42, 127
1, 67200, Note_on_c, 9, 36, 127
1, 67227, Note_on_c, 9, 42, 0
1, 67679, Note_on_c, 9, 36, 0
1, 67680, Note_on_c, 9, 42, 43
1, 67707, Note_on_c, 9, 42, 0
1, 68160, Note_on_c, 9, 38, 127
1, 68160, Note_on_c, 9, 42, 127
1, 68173, Note_on_c, 9, 42, 0
1, 68399, Note_on_c, 9, 38, 0
1, 68400, Note_on_c, 9, 42, 43
1, 68413, Note_on_c, 9, 42, 0
1, 68640, Note_on_c, 9, 42, 127
1, 68653, Note_on_c, 9, 42, 0
1, 68880, Note_on_c, 9, 42, 43
1, 68880, Note_on_c, 9, 36, 127
1, 68893, Note_on_c, 9, 42, 0
1, 69119, Note_on_c, 9, 36, 0
1, 69120, Note_on_c, 9, 42, 127
1, 69120, Note_on_c, 9, 36, 127
1, 69147, Note_on_c, 9, 42, 0
1, 69599, Note_on_c, 9, 36, 0
1, 69600, Note_on_c, 9, 42, 43
1, 69600, Note_on_c, 9, 36, 127
1, 69627, Note_on_c, 9, 42, 0
1, 70079, Note_on_c, 9, 36, 0
1, 70080, Note_on_c, 9, 38, 127
1, 70080, Note_on_c, 9, 42, 127
1, 70107, Note_on_c, 9, 42, 0
1, 70320, Note_on_c, 9, 36, 127
1, 70559, Note_on_c, 9, 38, 0
1, 70559, Note_on_c, 9, 36, 0
1, 70560, Note_on_c, 9, 42, 43
1, 70587, Note_on_c, 9, 42, 0
1, 70800, Note_on_c, 9, 36, 127
1, 71039, Note_on_c, 9, 36, 0
1, 71040, Note_on_c, 9, 42, 127
1, 71040, Note_on_c, 9, 36, 127
1, 71067, Note_on_c, 9, 42, 0
1, 71519, Note_on_c, 9, 36, 0
1, 71520, Note_on_c, 9, 42, 43
1, 71547, Note_on_c, 9, 42, 0
1, 72000, Note_on_c, 9, 38, 127
1, 72000, Note_on_c, 9, 42, 127
1, 72013, Note_on_c, 9, 42, 0
1, 72239, Note_on_c, 9, 38, 0
1, 72240, Note_on_c, 9, 42, 43
1, 72253, Note_on_c, 9, 42, 0
1, 72480, Note_on_c, 9, 42, 127
1, 72493, Note_on_c, 9, 42, 0
1, 72720, Note_on_c, 9, 42, 43
1, 72720, Note_on_c, 9, 36, 127
1, 72733, Note_on_c, 9, 42, 0
1, 72959, Note_on_c, 9, 36, 0
1, 72960, Note_on_c, 9, 42, 127
1, 72960, Note_on_c, 9, 36, 127
1, 72987, Note_on_c, 9, 42, 0
1, 73439, Note_on_c, 9, 36, 0
1, 73440, Note_on_c, 9, 42, 43
1, 73440, Note_on_c, 9, 36, 127
1, 73467, Note_on_c, 9, 42, 0
1, 73919, Note_on_c, 9, 36, 0
1, 73920, Note_on_c, 9, 38, 127
1, 73920, Note_on_c, 9, 42, 127
1, 73947, Note_on_c, 9, 42, 0
1, 74160, Note_on_c, 9, 36, 127
1, 74399, Note_on_c, 9, 38, 0
1, 74399, Note_on_c, 9, 36, 0
1, 74400, Note_on_c, 9, 42, 43
1, 74427, Note_on_c, 9, 42, 0
1, 74640, Note_on_c, 9, 36, 127
1, 74879, Note_on_c, 9, 36, 0
1, 74880, Note_on_c, 9, 42, 127
1, 74880, Note_on_c, 9, 36, 127
1, 74907, Note_on_c, 9, 42, 0
1, 75359, Note_on_c, 9, 36, 0
1, 75360, Note_on_c, 9, 42, 43
1, 75387, Note_on_c, 9, 42, 0
1, 75840, Note_on_c, 9, 38, 127
1, 75840, Note_on_c, 9, 42, 127
1, 75853, Note_on_c, 9, 42, 0
1, 76079, Note_on_c, 9, 38, 0
1, 76080, Note_on_c, 9, 42, 43
1, 76093, Note_on_c, 9, 42, 0
1, 76320, Note_on_c, 9, 42, 127
1, 76333, Note_on_c, 9, 42, 0
1, 76560, Note_on_c, 9, 42, 43
1, 76560, Note_on_c, 9, 36, 127
1, 76573, Note_on_c, 9, 42, 0
1, 76799, Note_on_c, 9, 36, 0
1, 76800, Note_on_c, 9, 42, 127
1, 76800, Note_on_c, 9, 36, 127
1, 76827, Note_on_c, 9, 42, 0
1, 77279, Note_on_c, 9, 36, 0
1, 77280, Note_on_c, 9, 42, 43
1, 77280, Note_on_c, 9, 36, 127
1, 77307, Note_on_c, 9, 42, 0
1, 77759, Note_on_c, 9, 36, 0
1, 77760, Note_on_c, 9, 38, 127
1, 77760, Note_on_c, 9, 42, 127
1, 77787, Note_on_c, 9, 42, 0
1, 78000, Note_on_c, 9, 36, 127
1, 78239, Note_on_c, 9, 38, 0
1, 78239, Note_on_c, 9, 36, 0
1, 78240, Note_on_c, 9, 42, 43
1, 78267, Note_on_c, 9, 42, 0
1, 78480, Note_on_c, 9, 36, 127
1, 78719, Note_on_c, 9, 36, 0
1, 78720, Note_on_c, 9, 42, 127
1, 78720, Note_on_c, 9, 36, 127
1, 78747, Note_on_c, 9, 42, 0
1, 79199, Note_on_c, 9, 36, 0
1, 79200, Note_on_c, 9, 42, 43
1, 79227, Note_on_c, 9, 42, 0
1, 79680, Note_on_c, 9, 38, 127
1, 79680, Note_on_c, 9, 42, 127
1, 79693, Note_on_c, 9, 42, 0
1, 79919, Note_on_c, 9, 38, 0
1, 79920, Note_on_c, 9, 42, 43
1, 79933, Note_on_c, 9, 42, 0
1, 80160, Note_on_c, 9, 42, 127
1, 80173, Note_on_c, 9, 42, 0
1, 80400, Note_on_c, 9, 42, 43
1, 80400, Note_on_c, 9, 36, 127
1, 80413, Note_on_c, 9, 42, 0
1, 80639, Note_on_c, 9, 36, 0
1, 80640, Note_on_c, 9, 42, 127
1, 80640, Note_on_c, 9, 36, 127
1, 80667, Note_on_c, 9, 42, 0
1, 81119, Note_on_c, 9, 36, 0
1, 81120, Note_on_c, 9, 42, 43
1, 81120, Note_on_c, 9, 36, 127
1, 81147, Note_on_c, 9, 42, 0
1, 81599, Note_on_c, 9, 36, 0
1, 81600, Note_on_c, 9, 38, 127
1, 81600, Note_on_c, 9, 42, 127
1, 81627, Note_on_c, 9, 42, 0
1, 81840, Note_on_c, 9, 36, 127
1, 82079, Note_on_c, 9, 38, 0
1, 82079, Note_on_c, 9, 36, 0
1, 82080, Note_on_c, 9, 42, 43
1, 82107, Note_on_c, 9, 42, 0
1, 82320, Note_on_c, 9, 36, 127
1, 82559, Note_on_c, 9, 36, 0
1, 82560, Note_on_c, 9, 42, 127
1, 82560, Note_on_c, 9, 36, 127
1, 82587, Note_on_c, 9, 42, 0
1, 83039, Note_on_c, 9, 36, 0
1, 83040, Note_on_c, 9, 42, 43
1, 83067, Note_on_c, 9, 42, 0
1, 83520, Note_on_c, 9, 38, 127
1, 83520, Note_on_c, 9, 42, 127
1, 83533, Note_on_c, 9, 42, 0
1, 83759, Note_on_c, 9, 38, 0
1, 83760, Note_on_c, 9, 42, 43
1, 83773, Note_on_c, 9, 42, 0
1, 84000, Note_on_c, 9, 42, 127
1, 84013, Note_on_c, 9, 42, 0
1, 84240, Note_on_c, 9, 42, 43
1, 84240, Note_on_c, 9, 36, 127
1, 84253, Note_on_c, 9, 42, 0
1, 84479, Note_on_c, 9, 36, 0
1, 84480, Note_on_c, 9, 42, 127
1, 84480, Note_on_c, 9, 36, 127
1, 84507, Note_on_c, 9, 42, 0
1, 84959, Note_on_c, 9, 36, 0
1, 84960, Note_on_c, 9, 42, 43
1, 84960, Note_on_c, 9, 36, 127
1, 84987, Note_on_c, 9, 42, 0
1, 85439, Note_on_c, 9, 36, 0
1, 85440, Note_on_c, 9, 38, 127
1, 85440, Note_on_c, 9, 42, 127
1, 85467, Note_on_c, 9, 42, 0
1, 85680, Note_on_c, 9, 36, 127
1, 85919, Note_on_c, 9, 38, 0
1, 85919, Note_on_c, 9, 36, 0
1, 85920, Note_on_c, 9, 42, 43
1, 85947, Note_on_c, 9, 42, 0
1, 86160, Note_on_c, 9, 36, 127
1, 86399, Note_on_c, 9, 36, 0
1, 86400, Note_on_c, 9, 42, 127
1, 86400, Note_on_c, 9, 36, 127
1, 86427, Note_on_c, 9, 42, 0
1, 86879, Note_on_c, 9, 36, 0
1, 86880, Note_on_c, 9, 42, 43
1, 86907, Note_on_c, 9, 42, 0
1, 87360, Note_on_c, 9, 38, 127
1, 87360, Note_on_c, 9, 42, 127
1, 87373, Note_on_c, 9, 42, 0
1, 87599, Note_on_c, 9, 38, 0
1, 87600, Note_on_c, 9, 42, 43
1, 87613, Note_on_c, 9, 42, 0
1, 87840, Note_on_c, 9, 42, 127
1, 87853, Note_on_c, 9, 42, 0
1, 88080, Note_on_c, 9, 42, 43
1, 88080, Note_on_c, 9, 36, 127
1, 88093, Note_on_c, 9, 42, 0
1, 88319, Note_on_c, 9, 36, 0
1, 88320, Note_on_c, 9, 42, 127
1, 88320, Note_on_c, 9, 36, 127
1, 88347, Note_on_c, 9, 42, 0
1, 88799, Note_on_c, 9, 36, 0
1, 88800, Note_on_c, 9, 42, 43
1, 88800, Note_on_c, 9, 36, 127
1, 88827, Note_on_c, 9, 42, 0
1, 89279, Note_on_c, 9, 36, 0
1, 89280, Note_on_c, 9, 38, 127
1, 89280, Note_on_c, 9, 42, 127
1, 89307, Note_on_c, 9, 42, 0
1, 89520, Note_on_c, 9, 36, 127
1, 89759, Note_on_c, 9, 38, 0
1, 89759, Note_on_c, 9, 36, 0
1, 89760, Note_on_c, 9, 42, 43
1, 89787, Note_on_c, 9, 42, 0
1, 90000, Note_on_c, 9, 36, 127
1, 90239, Note_on_c, 9, 36, 0
1, 90240, Note_on_c, 9, 42, 127
1, 90240, Note_on_c, 9, 36, 127
1, 90267, Note_on_c, 9, 42, 0
1, 90719, Note_on_c, 9, 36, 0
1, 90720, Note_on_c, 9, 42, 43
1, 90747, Note_on_c, 9, 42, 0
1, 91200, Note_on_c, 9, 38, 127
1, 91200, Note_on_c, 9, 42, 127
1, 91213, Note_on_c, 9, 42, 0
1, 91439, Note_on_c, 9, 38, 0
1, 91440, Note_on_c, 9, 42, 43
1, 91453, Note_on_c, 9, 42, 0
1, 91680, Note_on_c, 9, 42, 127
1, 91693, Note_on_c, 9, 42, 0
1, 91920, Note_on_c, 9, 42, 43
1, 91920, Note_on_c, 9, 36, 127
1, 91933, Note_on_c, 9, 42, 0
1, 92159, Note_on_c, 9, 36, 0
1, 92160, Note_on_c, 9, 42, 127
1, 92160, Note_on_c, 9, 36, 127
1, 92187, Note_on_c, 9, 42, 0
1, 92639, Note_on_c, 9, 36, 0
1, 92640, Note_on_c, 9, 42, 43
1, 92640, Note_on_c, 9, 36, 127
1, 92667, Note_on_c, 9, 42, 0
1, 93119, Note_on_c, 9, 36, 0
1, 93120, Note_on_c, 9, 38, 127
1, 93120, Note_on_c, 9, 42, 127
1, 93147, Note_on_c, 9, 42, 0
1, 93360, Note_on_c, 9, 36, 127
1, 93599, Note_on_c, 9, 38, 0
1, 93599, Note_on_c, 9, 36, 0
1, 93600, Note_on_c, 9, 42, 43
1, 93627, Note_on_c, 9, 42, 0
1, 93840, Note_on_c, 9, 36, 127
1, 94079, Note_on_c, 9, 36, 0
1, 94080, Note_on_c, 9, 42, 127
1, 94080, Note_on_c, 9, 36, 127
1, 94107, Note_on_c, 9, 42, 0
1, 94559, Note_on_c, 9, 36, 0
1, 94560, Note_on_c, 9, 42, 43
1, 94587, Note_on_c, 9, 42, 0
1, 95040, Note_on_c, 9, 38, 127
1, 95040, Note_on_c, 9, 42, 127
1, 95053, Note_on_c, 9, 42, 0
1, 95279, Note_on_c, 9, 38, 0
1, 95280, Note_on_c, 9, 42, 43
1, 95293, Note_on_c, 9, 42, 0
1, 95520, Note_on_c, 9, 42, 127
1, 95533, Note_on_c, 9, 42, 0
1, 95760, Note_on_c, 9, 42, 43
1, 95760, Note_on_c, 9, 36, 127
1, 95773, Note_on_c, 9, 42, 0
1, 95999, Note_on_c, 9, 36, 0
1, 96000, Note_on_c, 9, 42, 127
1, 96000, Note_on_c, 9, 36, 127
1, 96027, Note_on_c, 9, 42, 0
1, 96479, Note_on_c, 9, 36, 0
1, 96480, Note_on_c, 9, 42, 43
1, 96480, Note_on_c, 9, 36, 127
1, 96507, Note_on_c, 9, 42, 0
1, 96959, Note_on_c, 9, 36, 0
1, 96960, Note_on_c, 9, 38, 127
1, 96960, Note_on_c, 9, 42, 127
1, 96987, Note_on_c, 9, 42, 0
1, 97200, Note_on_c, 9, 36, 127
1, 97439, Note_on_c, 9, 38, 0
1, 97439, Note_on_c, 9, 36, 0
1, 97440, Note_on_c, 9, 42, 43
1, 97467, Note_on_c, 9, 42, 0
1, 97680, Note_on_c, 9, 36, 127
1, 97919, Note_on_c, 9, 36, 0
1, 97920, Note_on_c, 9, 42, 127
1, 97920, Note_on_c, 9, 36, 127
1, 97947, Note_on_c, 9, 42, 0
1, 98399, Note_on_c, 9, 36, 0
1, 98400, Note_on_c, 9, 42, 43
1, 98427, Note_on_c, 9, 42, 0
1, 98880, Note_on_c, 9, 38, 127
1, 98880, Note_on_c, 9, 42, 127
1, 98893, Note_on_c, 9, 42, 0
1, 99119, Note_on_c, 9, 38, 0
1, 99120, Note_on_c, 9, 42, 43
1, 99133, Note_on_c, 9, 42, 0
1, 99360, Note_on_c, 9, 42, 127
1, 99373, Note_on_c, 9, 42, 0
1, 99600, Note_on_c, 9, 42, 43
1, 99600, Note_on_c, 9, 36, 127
1, 99613, Note_on_c, 9, 42, 0
1, 99839, Note_on_c, 9, 36, 0
1, 99840, Note_on_c, 9, 42, 127
1, 99840, Note_on_c, 9, 36, 127
1, 99867, Note_on_c, 9, 42, 0
1, 100319, Note_on_c, 9, 36, 0
1, 100320, Note_on_c, 9, 42, 43
1, 100320, Note_on_c, 9, 36, 127
1, 100347, Note_on_c, 9, 42, 0
1, 100799, Note_on_c, 9, 36, 0
1, 100800, Note_on_c, 9, 38, 127
1, 100800, Note_on_c, 9, 42, 127
1, 100827, Note_on_c, 9, 42, 0
1, 101040, Note_on_c, 9, 36, 127
1, 101279, Note_on_c, 9, 38, 0
1, 101279, Note_on_c, 9, 36, 0
1, 101280, Note_on_c, 9, 42, 43
1, 101307, Note_on_c, 9, 42, 0
1, 101520, Note_on_c, 9, 36, 127
1, 101759, Note_on_c, 9, 36, 0
1, 101760, Note_on_c, 9, 42, 127
1, 101760, Note_on_c, 9, 36, 127
1, 101787, Note_on_c, 9, 42, 0
1, 102239, Note_on_c, 9, 36, 0
1, 102240, Note_on_c, 9, 42, 43
1, 102267, Note_on_c, 9, 42, 0
1, 102720, Note_on_c, 9, 38, 127
1, 102720, Note_on_c, 9, 42, 127
1, 102733, Note_on_c, 9, 42, 0
1, 102959, Note_on_c, 9, 38, 0
1, 102960, Note_on_c, 9, 42, 43
1, 102973, Note_on_c, 9, 42, 0
1, 103200, Note_on_c, 9, 42, 127
1, 103213, Note_on_c, 9, 42, 0
1, 103440, Note_on_c, 9, 42, 43
1, 103440, Note_on_c, 9, 36, 127
1, 103453, Note_on_c, 9, 42, 0
1, 103679, Note_on_c, 9, 36, 0
1, 103680, Note_on_c, 9, 42, 127
1, 103680, Note_on_c, 9, 36, 127
1, 103707, Note_on_c, 9, 42, 0
1, 104159, Note_on_c, 9, 36, 0
1, 104160, Note_on_c, 9, 42, 43
1, 104160, Note_on_c, 9, 36, 127
1, 104187, Note_on_c, 9, 42, 0
1, 104639, Note_on_c, 9, 36, 0
1, 104640, Note_on_c, 9, 38, 127
1, 104640, Note_on_c, 9, 42, 127
1, 104667, Note_on_c, 9, 42, 0
1, 104880, Note_on_c, 9, 36, 127
1, 105119, Note_on_c, 9, 38, 0
1, 105119, Note_on_c, 9, 36, 0
1, 105120, Note_on_c, 9, 42, 43
1, 105147, Note_on_c, 9, 42, 0
1, 105360, Note_on_c, 9, 36, 127
1, 105599, Note_on_c, 9, 36, 0
1, 105600, Note_on_c, 9, 42, 127
1, 105600, Note_on_c, 9, 36, 127
1, 105627, Note_on_c, 9, 42, 0
1, 106079, Note_on_c, 9, 36, 0
1, 106080, Note_on_c, 9, 42, 43
1, 106107, Note_on_c, 9, 42, 0
1, 106560, Note_on_c, 9, 38, 127
1, 106560, Note_on_c, 9, 42, 127
1, 106573, Note_on_c, 9, 42, 0
1, 106799, Note_on_c, 9, 38, 0
1, 106800, Note_on_c, 9, 42, 43
1, 106813, Note_on_c, 9, 42, 0
1, 107040, Note_on_c, 9, 42, 127
1, 107053, Note_on_c, 9, 42, 0
1, 107280, Note_on_c, 9, 42, 43
1, 107280, Note_on_c, 9, 36, 127
1, 107293, Note_on_c, 9, 42, 0
1, 107519, Note_on_c, 9, 36, 0
1, 107520, Note_on_c, 9, 42, 127
1, 107520, Note_on_c, 9, 36, 127
1, 107547, Note_on_c, 9, 42, 0
1, 107999, Note_on_c, 9, 36, 0
1, 108000, Note_on_c, 9, 42, 43
1, 108000, Note_on_c, 9, 36, 127
1, 108027, Note_on_c, 9, 42, 0
1, 108479, Note_on_c, 9, 36, 0
1, 108480, Note_on_c, 9, 38, 127
1, 108480, Note_on_c, 9, 42, 127
1, 108507, Note_on_c, 9, 42, 0
1, 108720, Note_on_c, 9, 36, 127
1, 108959, Note_on_c, 9, 38, 0
1, 108959, Note_on_c, 9, 36, 0
1, 108960, Note_on_c, 9, 42, 43
1, 108987, Note_on_c, 9, 42, 0
1, 109200, Note_on_c, 9, 36, 127
1, 109439, Note_on_c, 9, 36, 0
1, 109440, Note_on_c, 9, 42, 127
1, 109440, Note_on_c, 9, 36, 127
1, 109467, Note_on_c, 9, 42, 0
1, 109919, Note_on_c, 9, 36, 0
1, 109920, Note_on_c, 9, 42, 43
1, 109947, Note_on_c, 9, 42, 0
1, 110400, Note_on_c, 9, 38, 127
1, 110400, Note_on_c, 9, 42, 127
1, 110413, Note_on_c, 9, 42, 0
1, 110639, Note_on_c, 9, 38, 0
1, 110640, Note_on_c, 9, 42, 43
1, 110653, Note_on_c, 9, 42, 0
1, 110880, Note_on_c, 9, 42, 127
1, 110893, Note_on_c, 9, 42, 0
1, 111120, Note_on_c, 9, 42, 43
1, 111120, Note_on_c, 9, 36, 127
1, 111133, Note_on_c, 9, 42, 0
1, 111359, Note_on_c, 9, 36, 0
1, 111360, Note_on_c, 9, 42, 127
1, 111360, Note_on_c, 9, 36, 127
1, 111387, Note_on_c, 9, 42, 0
1, 111839, Note_on_c, 9, 36, 0
1, 111840, Note_on_c, 9, 42, 43
1, 111840, Note_on_c, 9, 36, 127
1, 111867, Note_on_c, 9, 42, 0
1, 112319, Note_on_c, 9, 36, 0
1, 112320, Note_on_c, 9, 38, 127
1, 112320, Note_on_c, 9, 42, 127
1, 112347, Note_on_c, 9, 42, 0
1, 112560, Note_on_c, 9, 36, 127
1, 112799, Note_on_c, 9, 38, 0
1, 112799, Note_on_c, 9, 36, 0
1, 112800, Note_on_c, 9, 42, 43
1, 112827, Note_on_c, 9, 42, 0
1, 113040, Note_on_c, 9, 36, 127
1, 113279, Note_on_c, 9, 36, 0
1, 113280, Note_on_c, 9, 42, 127
1, 113280, Note_on_c, 9, 36, 127
1, 113307, Note_on_c, 9, 42, 0
1, 113759, Note_on_c, 9, 36, 0
1, 113760, Note_on_c, 9, 42, 43
1, 113787, Note_on_c, 9, 42, 0
1, 114240, Note_on_c, 9, 38, 127
1, 114240, Note_on_c, 9, 42, 127
1, 114253, Note_on_c, 9, 42, 0
1, 114479, Note_on_c, 9, 38, 0
1, 114480, Note_on_c, 9, 42, 43
1, 114493, Note_on_c, 9, 42, 0
1, 114720, Note_on_c, 9, 42, 127
1, 114733, Note_on_c, 9, 42, 0
1, 114960, Note_on_c, 9, 42, 43
1, 114960, Note_on_c, 9, 36, 127
1, 114973, Note_on_c, 9, 42, 0
1, 115199, Note_on_c, 9, 36, 0
1, 115200, Note_on_c, 9, 42, 127
1, 115200, Note_on_c, 9, 36, 127
1, 115227, Note_on_c, 9, 42, 0
1, 115679, Note_on_c, 9, 36, 0
1, 115680, Note_on_c, 9, 42, 43
1, 115680, Note_on_c, 9, 36, 127
1, 115707, Note_on_c, 9, 42, 0
1, 116159, Note_on_c, 9, 36, 0
1, 116160, Note_on_c, 9, 38, 127
1, 116160, Note_on_c, 9, 42, 127
1, 116187, Note_on_c, 9, 42, 0
1, 116400, Note_on_c, 9, 36, 127
1, 116639, Note_on_c, 9, 38, 0
1, 116639, Note_on_c, 9, 36, 0
1, 116640, Note_on_c, 9, 42, 43
1, 116667, Note_on_c, 9, 42, 0
1, 116880, Note_on_c, 9, 36, 127
1, 117119, Note_on_c, 9, 36, 0
1, 117120, Note_on_c, 9, 42, 127
1, 117120, Note_on_c, 9, 36, 127
1, 117147, Note_on_c, 9, 42, 0
1, 117599, Note_on_c, 9, 36, 0
1, 117600, Note_on_c, 9, 42, 43
1, 117627, Note_on_c, 9, 42, 0
1, 118080, Note_on_c, 9, 38, 127
1, 118080, Note_on_c, 9, 42, 127
1, 118093, Note_on_c, 9, 42, 0
1, 118319, Note_on_c, 9, 38, 0
1, 118320, Note_on_c, 9, 42, 43
1, 118333, Note_on_c, 9, 42, 0
1, 118560, Note_on_c, 9, 42, 127
1, 118573, Note_on_c, 9, 42, 0
1, 118800, Note_on_c, 9, 42, 43
1, 118800, Note_on_c, 9, 36, 127
1, 118813, Note_on_c, 9, 42, 0
1, 119039, Note_on_c, 9, 36, 0
1, 119040, Note_on_c, 9, 42, 127
1, 119040, Note_on_c, 9, 36, 127
1, 119067, Note_on_c, 9, 42, 0
1, 119519, Note_on_c, 9, 36, 0
1, 119520, Note_on_c, 9, 42, 43
1, 119520, Note_on_c, 9, 36, 127
1, 119547, Note_on_c, 9, 42, 0
1, 119999, Note_on_c, 9, 36, 0
1, 120000, Note_on_c, 9, 38, 127
1, 120000, Note_on_c, 9, 42, 127
1, 120027, Note_on_c, 9, 42, 0
1, 120240, Note_on_c, 9, 36, 127
1, 120479, Note_on_c, 9, 38, 0
1, 120479, Note_on_c, 9, 36, 0
1, 120480, Note_on_c, 9, 42, 43
1, 120507, Note_on_c, 9, 42, 0
1, 120720, Note_on_c, 9, 36, 127
1, 120959, Note_on_c, 9, 36, 0
1, 120960, Note_on_c, 9, 42, 127
1, 120960, Note_on_c, 9, 36, 127
1, 120987, Note_on_c, 9, 42, 0
1, 121439, Note_on_c, 9, 36, 0
1, 121440, Note_on_c, 9, 42, 43
1, 121467, Note_on_c, 9, 42, 0
1, 121920, Note_on_c, 9, 38, 127
1, 121920, Note_on_c, 9, 42, 127
1, 121933, Note_on_c, 9, 42, 0
1, 122159, Note_on_c, 9, 38, 0
1, 122160, Note_on_c, 9, 42, 43
1, 122173, Note_on_c, 9, 42, 0
1, 122400, Note_on_c, 9, 46, 127
1, 122413, Note_on_c, 9, 46, 0
1, 122640, Note_on_c, 9, 42, 127
1, 122640, Note_on_c, 9, 36, 127
1, 122653, Note_on_c, 9, 42, 0
1, 122879, Note_on_c, 9, 36, 0
1, 122880, Note_on_c, 9, 42, 127
1, 122880, Note_on_c, 9, 36, 127
1, 122907, Note_on_c, 9, 42, 0
1, 123359, Note_on_c, 9, 36, 0
1, 123360, Note_on_c, 9, 38, 127
1, 123360, Note_on_c, 9, 42, 43
1, 123360, Note_on_c, 9, 36, 127
1, 123387, Note_on_c, 9, 42, 0
1, 123839, Note_on_c, 9, 38, 0
1, 123839, Note_on_c, 9, 36, 0
1, 123840, Note_on_c, 9, 38, 43
1, 123840, Note_on_c, 9, 42, 127
1, 123853, Note_on_c, 9, 42, 0
1, 124079, Note_on_c, 9, 38, 0
1, 124080, Note_on_c, 9, 38, 127
1, 124080, Note_on_c, 9, 36, 127
1, 124319, Note_on_c, 9, 38, 0
1, 124319, Note_on_c, 9, 36, 0
1, 124320, Note_on_c, 9, 45, 127
1, 124320, Note_on_c, 9, 42, 43
1, 124347, Note_on_c, 9, 42, 0
1, 124560, Note_on_c, 9, 36, 127
1, 124560, Note_on_c, 9, 43, 127
1, 124799, Note_on_c, 9, 45, 0
1, 124799, Note_on_c, 9, 36, 0
1, 124799, Note_on_c, 9, 43, 0
1, 124800, Note_on_c, 9, 42, 127
1, 124800, Note_on_c, 9, 49, 87
1, 124800, Note_on_c, 9, 36, 127
1, 124813, Note_on_c, 9, 42, 0
1, 124813, Note_on_c, 9, 49, 0
1, 125040, Note_on_c, 9, 42, 43
1, 125053, Note_on_c, 9, 42, 0
1, 125279, Note_on_c, 9, 36, 0
1, 125280, Note_on_c, 9, 42, 43
1, 125293, Note_on_c, 9, 42, 0
1, 125520, Note_on_c, 9, 42, 43
1, 125533, Note_on_c, 9, 42, 0
1, 125760, Note_on_c, 9, 38, 127
1, 125760, Note_on_c, 9, 42, 127
1, 125773, Note_on_c, 9, 42, 0
1, 125999, Note_on_c, 9, 38, 0
1, 126000, Note_on_c, 9, 42, 43
1, 126013, Note_on_c, 9, 42, 0
1, 126240, Note_on_c, 9, 42, 43
1, 126253, Note_on_c, 9, 42, 0
1, 126480, Note_on_c, 9, 42, 43
1, 126480, Note_on_c, 9, 36, 127
1, 126493, Note_on_c, 9, 42, 0
1, 126719, Note_on_c, 9, 36, 0
1, 126720, Note_on_c, 9, 42, 127
1, 126720, Note_on_c, 9, 36, 127
1, 126733, Note_on_c, 9, 42, 0
1, 126960, Note_on_c, 9, 42, 43
1, 126973, Note_on_c, 9, 42, 0
1, 127199, Note_on_c, 9, 36, 0
1, 127200, Note_on_c, 9, 42, 43
1, 127200, Note_on_c, 9, 36, 127
1, 127213, Note_on_c, 9, 42, 0
1, 127440, Note_on_c, 9, 42, 43
1, 127453, Note_on_c, 9, 42, 0
1, 127679, Note_on_c, 9, 36, 0
1, 127680, Note_on_c, 9, 38, 127
1, 127680, Note_on_c, 9, 42, 127
1, 127693, Note_on_c, 9, 42, 0
1, 127919, Note_on_c, 9, 38, 0
1, 127920, Note_on_c, 9, 42, 43
1, 127920, Note_on_c, 9, 36, 127
1, 127933, Note_on_c, 9, 42, 0
1, 128159, Note_on_c, 9, 36, 0
1, 128160, Note_on_c, 9, 42, 43
1, 128173, Note_on_c, 9, 42, 0
1, 128400, Note_on_c, 9, 42, 43
1, 128400, Note_on_c, 9, 36, 127
1, 128413, Note_on_c, 9, 42, 0
1, 128639, Note_on_c, 9, 36, 0
1, 128640, Note_on_c, 9, 42, 127
1, 128640, Note_on_c, 9, 36, 127
1, 128653, Note_on_c, 9, 42, 0
1, 128880, Note_on_c, 9, 42, 43
1, 128893, Note_on_c, 9, 42, 0
1, 129119, Note_on_c, 9, 36, 0
1, 129120, Note_on_c, 9, 42, 43
1, 129133, Note_on_c, 9, 42, 0
1, 129360, Note_on_c, 9, 42, 43
1, 129373, Note_on_c, 9, 42, 0
1, 129600, Note_on_c, 9, 38, 127
1, 129600, Note_on_c, 9, 42, 127
1, 129613, Note_on_c, 9, 42, 0
1, 129839, Note_on_c, 9, 38, 0
1, 129840, Note_on_c, 9, 42, 43
1, 129853, Note_on_c, 9, 42, 0
1, 130080, Note_on_c, 9, 42, 43
1, 130093, Note_on_c, 9, 42, 0
1, 130320, Note_on_c, 9, 42, 43
1, 130320, Note_on_c, 9, 36, 127
1, 130333, Note_on_c, 9, 42, 0
1, 130559, Note_on_c, 9, 36, 0
1, 130560, Note_on_c, 9, 42, 127
1, 130560, Note_on_c, 9, 36, 127
1, 130573, Note_on_c, 9, 42, 0
1, 130800, Note_on_c, 9, 42, 43
1, 130813, Note_on_c, 9, 42, 0
1, 131039, Note_on_c, 9, 36, 0
1, 131040, Note_on_c, 9, 42, 43
1, 131040, Note_on_c, 9, 36, 127
1, 131053, Note_on_c, 9, 42, 0
1, 131279, Note_on_c, 9, 36, 0
1, 131280, Note_on_c, 9, 42, 43
1, 131280, Note_on_c, 9, 36, 127
1, 131293, Note_on_c, 9, 42, 0
1, 131519, Note_on_c, 9, 36, 0
1, 131520, Note_on_c, 9, 38, 127
1, 131520, Note_on_c, 9, 45, 127
1, 131520, Note_on_c, 9, 42, 127
1, 131533, Note_on_c, 9, 42, 0
1, 131759, Note_on_c, 9, 38, 0
1, 131759, Note_on_c, 9, 45, 0
1, 131760, Note_on_c, 9, 42, 43
1, 131760, Note_on_c, 9, 36, 127
1, 131773, Note_on_c, 9, 42, 0
1, 131999, Note_on_c, 9, 36, 0
1, 132000, Note_on_c, 9, 42, 43
1, 132000, Note_on_c, 9, 43, 127
1, 132013, Note_on_c, 9, 42, 0
1, 132239, Note_on_c, 9, 43, 0
1, 132240, Note_on_c, 9, 42, 43
1, 132240, Note_on_c, 9, 36, 127
1, 132253, Note_on_c, 9, 42, 0
1, 132479, Note_on_c, 9, 36, 0
1, 132480, Note_on_c, 9, 42, 127
1, 132480, Note_on_c, 9, 36, 127
1, 132493, Note_on_c, 9, 42, 0
1, 132720, Note_on_c, 9, 42, 43
1, 132733, Note_on_c, 9, 42, 0
1, 132959, Note_on_c, 9, 36, 0
1, 132960, Note_on_c, 9, 42, 43
1, 132973, Note_on_c, 9, 42, 0
1, 133200, Note_on_c, 9, 42, 43
1, 133213, Note_on_c, 9, 42, 0
1, 133440, Note_on_c, 9, 38, 127
1, 133440, Note_on_c, 9, 42, 127
1, 133453, Note_on_c, 9, 42, 0
1, 133679, Note_on_c, 9, 38, 0
1, 133680, Note_on_c, 9, 42, 43
1, 133693, Note_on_c, 9, 42, 0
1, 133920, Note_on_c, 9, 42, 43
1, 133933, Note_on_c, 9, 42, 0
1, 134160, Note_on_c, 9, 42, 43
1, 134160, Note_on_c, 9, 36, 127
1, 134173, Note_on_c, 9, 42, 0
1, 134399, Note_on_c, 9, 36, 0
1, 134400, Note_on_c, 9, 42, 127
1, 134400, Note_on_c, 9, 36, 127
1, 134413, Note_on_c, 9, 42, 0
1, 134640, Note_on_c, 9, 42, 43
1, 134653, Note_on_c, 9, 42, 0
1, 134879, Note_on_c, 9, 36, 0
1, 134880, Note_on_c, 9, 42, 43
1, 134880, Note_on_c, 9, 36, 127
1, 134893, Note_on_c, 9, 42, 0
1, 135120, Note_on_c, 9, 42, 43
1, 135133, Note_on_c, 9, 42, 0
1, 135359, Note_on_c, 9, 36, 0
1, 135360, Note_on_c, 9, 38, 127
1, 135360, Note_on_c, 9, 42, 127
1, 135373, Note_on_c, 9, 42, 0
1, 135599, Note_on_c, 9, 38, 0
1, 135600, Note_on_c, 9, 42, 43
1, 135600, Note_on_c, 9, 36, 127
1, 135613, Note_on_c, 9, 42, 0
1, 135839, Note_on_c, 9, 36, 0
1, 135840, Note_on_c, 9, 42, 43
1, 135853, Note_on_c, 9, 42, 0
1, 136080, Note_on_c, 9, 42, 43
1, 136080, Note_on_c, 9, 36, 127
1, 136093, Note_on_c, 9, 42, 0
1, 136319, Note_on_c, 9, 36, 0
1, 136320, Note_on_c, 9, 42, 127
1, 136320, Note_on_c, 9, 36, 127
1, 136333, Note_on_c, 9, 42, 0
1, 136560, Note_on_c, 9, 42, 43
1, 136573, Note_on_c, 9, 42, 0
1, 136799, Note_on_c, 9, 36, 0
1, 136800, Note_on_c, 9, 42, 43
1, 136813, Note_on_c, 9, 42, 0
1, 137040, Note_on_c, 9, 42, 43
1, 137053, Note_on_c, 9, 42, 0
1, 137280, Note_on_c, 9, 38, 127
1, 137280, Note_on_c, 9, 42, 127
1, 137293, Note_on_c, 9, 42, 0
1, 137519, Note_on_c, 9, 38, 0
1, 137520, Note_on_c, 9, 42, 43
1, 137533, Note_on_c, 9, 42, 0
1, 137760, Note_on_c, 9, 42, 43
1, 137773, Note_on_c, 9, 42, 0
1, 138000, Note_on_c, 9, 42, 43
1, 138000, Note_on_c, 9, 36, 127
1, 138013, Note_on_c, 9, 42, 0
1, 138239, Note_on_c, 9, 36, 0
1, 138240, Note_on_c, 9, 42, 127
1, 138240, Note_on_c, 9, 36, 127
1, 138253, Note_on_c, 9, 42, 0
1, 138480, Note_on_c, 9, 42, 43
1, 138486, Note_on_c, 9, 42, 0
1, 138600, Note_on_c, 9, 38, 25
1, 138719, Note_on_c, 9, 36, 0
1, 138719, Note_on_c, 9, 38, 0
1, 138720, Note_on_c, 9, 38, 127
1, 138720, Note_on_c, 9, 42, 43
1, 138720, Note_on_c, 9, 36, 127
1, 138733, Note_on_c, 9, 42, 0
1, 138959, Note_on_c, 9, 38, 0
1, 138960, Note_on_c, 9, 38, 43
1, 138960, Note_on_c, 9, 42, 43
1, 138973, Note_on_c, 9, 42, 0
1, 139199, Note_on_c, 9, 36, 0
1, 139199, Note_on_c, 9, 38, 0
1, 139200, Note_on_c, 9, 38, 127
1, 139200, Note_on_c, 9, 45, 127
1, 139200, Note_on_c, 9, 42, 127
1, 139213, Note_on_c, 9, 42, 0
1, 139439, Note_on_c, 9, 38, 0
1, 139439, Note_on_c, 9, 45, 0
1, 139440, Note_on_c, 9, 38, 127
1, 139440, Note_on_c, 9, 42, 43
1, 139440, Note_on_c, 9, 36, 127
1, 139453, Note_on_c, 9, 42, 0
1, 139679, Note_on_c, 9, 38, 0
1, 139679, Note_on_c, 9, 36, 0
1, 139680, Note_on_c, 9, 42, 43
1, 139680, Note_on_c, 9, 43, 127
1, 139693, Note_on_c, 9, 42, 0
1, 139919, Note_on_c, 9, 43, 0
1, 139920, Note_on_c, 9, 38, 127
1, 139920, Note_on_c, 9, 42, 43
1, 139920, Note_on_c, 9, 36, 127
1, 139933, Note_on_c, 9, 42, 0
1, 140159, Note_on_c, 9, 38, 0
1, 140159, Note_on_c, 9, 36, 0
1, 140160, Note_on_c, 9, 42, 127
1, 140160, Note_on_c, 9, 49, 87
1, 140160, Note_on_c, 9, 36, 127
1, 140173, Note_on_c, 9, 42, 0
1, 140173, Note_on_c, 9, 49, 0
1, 140400, Note_on_c, 9, 42, 43
1, 140413, Note_on_c, 9, 42, 0
1, 140639, Note_on_c, 9, 36, 0
1, 140640, Note_on_c, 9, 42, 43
1, 140653, Note_on_c, 9, 42, 0
1, 140880, Note_on_c, 9, 42, 43
1, 140893, Note_on_c, 9, 42, 0
1, 141120, Note_on_c, 9, 38, 127
1, 141120, Note_on_c, 9, 42, 127
1, 141133, Note_on_c, 9, 42, 0
1, 141359, Note_on_c, 9, 38, 0
1, 141360, Note_on_c, 9, 42, 43
1, 141373, Note_on_c, 9, 42, 0
1, 141600, Note_on_c, 9, 42, 43
1, 141613, Note_on_c, 9, 42, 0
1, 141840, Note_on_c, 9, 42, 43
1, 141840, Note_on_c, 9, 36, 127
1, 141853, Note_on_c, 9, 42, 0
1, 142079, Note_on_c, 9, 36, 0
1, 142080, Note_on_c, 9, 42, 127
1, 142080, Note_on_c, 9, 36, 127
1, 142093, Note_on_c, 9, 42, 0
1, 142320, Note_on_c, 9, 42, 43
1, 142333, Note_on_c, 9, 42, 0
1, 142559, Note_on_c, 9, 36, 0
1, 142560, Note_on_c, 9, 42, 43
1, 142560, Note_on_c, 9, 36, 127
1, 142573, Note_on_c, 9, 42, 0
1, 142800, Note_on_c, 9, 42, 43
1, 142813, Note_on_c, 9, 42, 0
1, 143039, Note_on_c, 9, 36, 0
1, 143040, Note_on_c, 9, 38, 127
1, 143040, Note_on_c, 9, 42, 127
1, 143053, Note_on_c, 9, 42, 0
1, 143279, Note_on_c, 9, 38, 0
1, 143280, Note_on_c, 9, 42, 43
1, 143280, Note_on_c, 9, 36, 127
1, 143293, Note_on_c, 9, 42, 0
1, 143519, Note_on_c, 9, 36, 0
1, 143520, Note_on_c, 9, 42, 43
1, 143533, Note_on_c, 9, 42, 0
1, 143760, Note_on_c, 9, 42, 43
1, 143760, Note_on_c, 9, 36, 127
1, 143773, Note_on_c, 9, 42, 0
1, 143999, Note_on_c, 9, 36, 0
1, 144000, Note_on_c, 9, 42, 127
1, 144000, Note_on_c, 9, 36, 127
1, 144013, Note_on_c, 9, 42, 0
1, 144240, Note_on_c, 9, 42, 43
1, 144253, Note_on_c, 9, 42, 0
1, 144479, Note_on_c, 9, 36, 0
1, 144480, Note_on_c, 9, 42, 43
1, 144493, Note_on_c, 9, 42, 0
1, 144720, Note_on_c, 9, 42, 43
1, 144733, Note_on_c, 9, 42, 0
1, 144960, Note_on_c, 9, 38, 127
1, 144960, Note_on_c, 9, 42, 127
1, 144973, Note_on_c, 9, 42, 0
1, 145199, Note_on_c, 9, 38, 0
1, 145200, Note_on_c, 9, 42, 43
1, 145213, Note_on_c, 9, 42, 0
1, 145440, Note_on_c, 9, 42, 43
1, 145453, Note_on_c, 9, 42, 0
1, 145680, Note_on_c, 9, 42, 43
1, 145680, Note_on_c, 9, 36, 127
1, 145693, Note_on_c, 9, 42, 0
1, 145919, Note_on_c, 9, 36, 0
1, 145920, Note_on_c, 9, 42, 127
1, 145920, Note_on_c, 9, 36, 127
1, 145933, Note_on_c, 9, 42, 0
1, 146160, Note_on_c, 9, 42, 43
1, 146173, Note_on_c, 9, 42, 0
1, 146399, Note_on_c, 9, 36, 0
1, 146400, Note_on_c, 9, 42, 43
1, 146400, Note_on_c, 9, 36, 127
1, 146413, Note_on_c, 9, 42, 0
1, 146639, Note_on_c, 9, 36, 0
1, 146640, Note_on_c, 9, 42, 43
1, 146640, Note_on_c, 9, 36, 127
1, 146653, Note_on_c, 9, 42, 0
1, 146879, Note_on_c, 9, 36, 0
1, 146880, Note_on_c, 9, 38, 127
1, 146880, Note_on_c, 9, 45, 127
1, 146880, Note_on_c, 9, 42, 127
1, 146893, Note_on_c, 9, 42, 0
1, 147119, Note_on_c, 9, 38, 0
1, 147119, Note_on_c, 9, 45, 0
1, 147120, Note_on_c, 9, 42, 43
1, 147120, Note_on_c, 9, 36, 127
1, 147133, Note_on_c, 9, 42, 0
1, 147359, Note_on_c, 9, 36, 0
1, 147360, Note_on_c, 9, 42, 43
1, 147360, Note_on_c, 9, 43, 127
1, 147373, Note_on_c, 9, 42, 0
1, 147599, Note_on_c, 9, 43, 0
1, 147600, Note_on_c, 9, 42, 43
1, 147600, Note_on_c, 9, 36, 127
1, 147613, Note_on_c, 9, 42, 0
1, 147839, Note_on_c, 9, 36, 0
1, 147840, Note_on_c, 9, 42, 127
1, 147840, Note_on_c, 9, 36, 127
1, 147853, Note_on_c, 9, 42, 0
1, 148080, Note_on_c, 9, 42, 43
1, 148093, Note_on_c, 9, 42, 0
1, 148319, Note_on_c, 9, 36, 0
1, 148320, Note_on_c, 9, 42, 43
1, 148333, Note_on_c, 9, 42, 0
1, 148560, Note_on_c, 9, 42, 43
1, 148573, Note_on_c, 9, 42, 0
1, 148800, Note_on_c, 9, 38, 127
1, 148800, Note_on_c, 9, 42, 127
1, 148813, Note_on_c, 9, 42, 0
1, 149039, Note_on_c, 9, 38, 0
1, 149040, Note_on_c, 9, 42, 43
1, 149053, Note_on_c, 9, 42, 0
1, 149280, Note_on_c, 9, 42, 43
1, 149293, Note_on_c, 9, 42, 0
1, 149520, Note_on_c, 9, 42, 43
1, 149520, Note_on_c, 9, 36, 127
1, 149533, Note_on_c, 9, 42, 0
1, 149759, Note_on_c, 9, 36, 0
1, 149760, Note_on_c, 9, 42, 127
1, 149760, Note_on_c, 9, 36, 127
1, 149773, Note_on_c, 9, 42, 0
1, 150000, Note_on_c, 9, 42, 43
1, 150013, Note_on_c, 9, 42, 0
1, 150239, Note_on_c, 9, 36, 0
1, 150240, Note_on_c, 9, 42, 43
1, 150240, Note_on_c, 9, 36, 127
1, 150253, Note_on_c, 9, 42, 0
1, 150480, Note_on_c, 9, 42, 43
1, 150493, Note_on_c, 9, 42, 0
1, 150719, Note_on_c, 9, 36, 0
1, 150720, Note_on_c, 9, 38, 127
1, 150720, Note_on_c, 9, 42, 127
1, 150733, Note_on_c, 9, 42, 0
1, 150959, Note_on_c, 9, 38, 0
1, 150960, Note_on_c, 9, 42, 43
1, 150960, Note_on_c, 9, 36, 127
1, 150973, Note_on_c, 9, 42, 0
1, 151199, Note_on_c, 9, 36, 0
1, 151200, Note_on_c, 9, 42, 43
1, 151213, Note_on_c, 9, 42, 0
1, 151440, Note_on_c, 9, 42, 43
1, 151440, Note_on_c, 9, 36, 127
1, 151453, Note_on_c, 9, 42, 0
1, 151679, Note_on_c, 9, 36, 0
1, 151680, Note_on_c, 9, 42, 127
1, 151680, Note_on_c, 9, 36, 127
1, 151693, Note_on_c, 9, 42, 0
1, 151920, Note_on_c, 9, 42, 43
1, 151933, Note_on_c, 9, 42, 0
1, 152159, Note_on_c, 9, 36, 0
1, 152160, Note_on_c, 9, 42, 43
1, 152173, Note_on_c, 9, 42, 0
1, 152400, Note_on_c, 9, 42, 43
1, 152413, Note_on_c, 9, 42, 0
1, 152640, Note_on_c, 9, 38, 127
1, 152640, Note_on_c, 9, 42, 127
1, 152653, Note_on_c, 9, 42, 0
1, 152879, Note_on_c, 9, 38, 0
1, 152880, Note_on_c, 9, 42, 43
1, 152893, Note_on_c, 9, 42, 0
1, 153120, Note_on_c, 9, 42, 43
1, 153133, Note_on_c, 9, 42, 0
1, 153360, Note_on_c, 9, 42, 43
1, 153360, Note_on_c, 9, 36, 127
1, 153373, Note_on_c, 9, 42, 0
1, 153599, Note_on_c, 9, 36, 0
1, 153600, Note_on_c, 9, 42, 127
1, 153600, Note_on_c, 9, 36, 127
1, 153613, Note_on_c, 9, 42, 0
1, 153840, Note_on_c, 9, 42, 43
1, 153846, Note_on_c, 9, 42, 0
1, 153960, Note_on_c, 9, 38, 25
1, 154079, Note_on_c, 9, 36, 0
1, 154079, Note_on_c, 9, 38, 0
1, 154080, Note_on_c, 9, 38, 127
1, 154080, Note_on_c, 9, 42, 43
1, 154080, Note_on_c, 9, 36, 127
1, 154093, Note_on_c, 9, 42, 0
1, 154319, Note_on_c, 9, 38, 0
1, 154320, Note_on_c, 9, 38, 43
1, 154320, Note_on_c, 9, 42, 43
1, 154333, Note_on_c, 9, 42, 0
1, 154559, Note_on_c, 9, 36, 0
1, 154559, Note_on_c, 9, 38, 0
1, 154560, Note_on_c, 9, 38, 127
1, 154560, Note_on_c, 9, 45, 127
1, 154560, Note_on_c, 9, 42, 127
1, 154573, Note_on_c, 9, 42, 0
1, 154799, Note_on_c, 9, 38, 0
1, 154799, Note_on_c, 9, 45, 0
1, 154800, Note_on_c, 9, 38, 127
1, 154800, Note_on_c, 9, 42, 43
1, 154800, Note_on_c, 9, 36, 127
1, 154813, Note_on_c, 9, 42, 0
1, 155039, Note_on_c, 9, 38, 0
1, 155039, Note_on_c, 9, 36, 0
1, 155040, Note_on_c, 9, 42, 43
1, 155040, Note_on_c, 9, 43, 127
1, 155053, Note_on_c, 9, 42, 0
1, 155279, Note_on_c, 9, 43, 0
1, 155280, Note_on_c, 9, 38, 127
1, 155280, Note_on_c, 9, 42, 43
1, 155280, Note_on_c, 9, 36, 127
1, 155293, Note_on_c, 9, 42, 0
1, 155519, Note_on_c, 9, 38, 0
1, 155519, Note_on_c, 9, 36, 0
1, 155520, Note_on_c, 9, 42, 127
1, 155520, Note_on_c, 9, 36, 127
1, 155547, Note_on_c, 9, 42, 0
1, 155999, Note_on_c, 9, 36, 0
1, 156000, Note_on_c, 9, 42, 43
1, 156027, Note_on_c, 9, 42, 0
1, 156480, Note_on_c, 9, 38, 127
1, 156480, Note_on_c, 9, 42, 127
1, 156493, Note_on_c, 9, 42, 0
1, 156719, Note_on_c, 9, 38, 0
1, 156720, Note_on_c, 9, 42, 43
1, 156733, Note_on_c, 9, 42, 0
1, 156960, Note_on_c, 9, 42, 127
1, 156973, Note_on_c, 9, 42, 0
1, 157200, Note_on_c, 9, 42, 43
1, 157200, Note_on_c, 9, 36, 127
1, 157213, Note_on_c, 9, 42, 0
1, 157439, Note_on_c, 9, 36, 0
1, 157440, Note_on_c, 9, 42, 127
1, 157440, Note_on_c, 9, 36, 127
1, 157467, Note_on_c, 9, 42, 0
1, 157919, Note_on_c, 9, 36, 0
1, 157920, Note_on_c, 9, 42, 43
1, 157920, Note_on_c, 9, 36, 127
1, 157947, Note_on_c, 9, 42, 0
1, 158399, Note_on_c, 9, 36, 0
1, 158400, Note_on_c, 9, 38, 127
1, 158400, Note_on_c, 9, 42, 127
1, 158427, Note_on_c, 9, 42, 0
1, 158640, Note_on_c, 9, 36, 127
1, 158879, Note_on_c, 9, 38, 0
1, 158879, Note_on_c, 9, 36, 0
1, 158880, Note_on_c, 9, 42, 43
1, 158907, Note_on_c, 9, 42, 0
1, 159120, Note_on_c, 9, 36, 127
1, 159359, Note_on_c, 9, 36, 0
1, 159360, Note_on_c, 9, 42, 127
1, 159360, Note_on_c, 9, 36, 127
1, 159387, Note_on_c, 9, 42, 0
1, 159839, Note_on_c, 9, 36, 0
1, 159840, Note_on_c, 9, 42, 43
1, 159867, Note_on_c, 9, 42, 0
1, 160320, Note_on_c, 9, 38, 127
1, 160320, Note_on_c, 9, 42, 127
1, 160333, Note_on_c, 9, 42, 0
1, 160559, Note_on_c, 9, 38, 0
1, 160560, Note_on_c, 9, 42, 43
1, 160573, Note_on_c, 9, 42, 0
1, 160800, Note_on_c, 9, 42, 127
1, 160813, Note_on_c, 9, 42, 0
1, 161040, Note_on_c, 9, 42, 43
1, 161040, Note_on_c, 9, 36, 127
1, 161053, Note_on_c, 9, 42, 0
1, 161279, Note_on_c, 9, 36, 0
1, 161280, Note_on_c, 9, 42, 127
1, 161280, Note_on_c, 9, 36, 127
1, 161307, Note_on_c, 9, 42, 0
1, 161759, Note_on_c, 9, 36, 0
1, 161760, Note_on_c, 9, 42, 43
1, 161760, Note_on_c, 9, 36, 127
1, 161787, Note_on_c, 9, 42, 0
1, 162239, Note_on_c, 9, 36, 0
1, 162240, Note_on_c, 9, 38, 127
1, 162240, Note_on_c, 9, 42, 127
1, 162267, Note_on_c, 9, 42, 0
1, 162480, Note_on_c, 9, 36, 127
1, 162719, Note_on_c, 9, 38, 0
1, 162719, Note_on_c, 9, 36, 0
1, 162720, Note_on_c, 9, 42, 43
1, 162747, Note_on_c, 9, 42, 0
1, 162960, Note_on_c, 9, 36, 127
1, 163199, Note_on_c, 9, 36, 0
1, 163200, Note_on_c, 9, 42, 127
1, 163200, Note_on_c, 9, 36, 127
1, 163227, Note_on_c, 9, 42, 0
1, 163679, Note_on_c, 9, 36, 0
1, 163680, Note_on_c, 9, 42, 43
1, 163707, Note_on_c, 9, 42, 0
1, 164160, Note_on_c, 9, 38, 127
1, 164160, Note_on_c, 9, 42, 127
1, 164173, Note_on_c, 9, 42, 0
1, 164399, Note_on_c, 9, 38, 0
1, 164400, Note_on_c, 9, 42, 43
1, 164413, Note_on_c, 9, 42, 0
1, 164640, Note_on_c, 9, 42, 127
1, 164653, Note_on_c, 9, 42, 0
1, 164880, Note_on_c, 9, 42, 43
1, 164880, Note_on_c, 9, 36, 127
1, 164893, Note_on_c, 9, 42, 0
1, 165119, Note_on_c, 9, 36, 0
1, 165120, Note_on_c, 9, 42, 127
1, 165120, Note_on_c, 9, 36, 127
1, 165147, Note_on_c, 9, 42, 0
1, 165599, Note_on_c, 9, 36, 0
1, 165600, Note_on_c, 9, 42, 43
1, 165600, Note_on_c, 9, 36, 127
1, 165627, Note_on_c, 9, 42, 0
1, 166079, Note_on_c, 9, 36, 0
1, 166080, Note_on_c, 9, 38, 127
1, 166080, Note_on_c, 9, 42, 127
1, 166107, Note_on_c, 9, 42, 0
1, 166320, Note_on_c, 9, 36, 127
1, 166559, Note_on_c, 9, 38, 0
1, 166559, Note_on_c, 9, 36, 0
1, 166560, Note_on_c, 9, 42, 43
1, 166587, Note_on_c, 9, 42, 0
1, 166800, Note_on_c, 9, 36, 127
1, 167039, Note_on_c, 9, 36, 0
1, 167040, Note_on_c, 9, 42, 127
1, 167040, Note_on_c, 9, 36, 127
1, 167067, Note_on_c, 9, 42, 0
1, 167519, Note_on_c, 9, 36, 0
1, 167520, Note_on_c, 9, 42, 43
1, 167547, Note_on_c, 9, 42, 0
1, 168000, Note_on_c, 9, 38, 127
1, 168000, Note_on_c, 9, 42, 127
1, 168013, Note_on_c, 9, 42, 0
1, 168239, Note_on_c, 9, 38, 0
1, 168240, Note_on_c, 9, 42, 43
1, 168253, Note_on_c, 9, 42, 0
1, 168480, Note_on_c, 9, 42, 127
1, 168493, Note_on_c, 9, 42, 0
1, 168720, Note_on_c, 9, 42, 43
1, 168720, Note_on_c, 9, 36, 127
1, 168733, Note_on_c, 9, 42, 0
1, 168959, Note_on_c, 9, 36, 0
1, 168960, Note_on_c, 9, 42, 127
1, 168960, Note_on_c, 9, 36, 127
1, 168987, Note_on_c, 9, 42, 0
1, 169439, Note_on_c, 9, 36, 0
1, 169440, Note_on_c, 9, 42, 43
1, 169440, Note_on_c, 9, 36, 127
1, 169467, Note_on_c, 9, 42, 0
1, 169919, Note_on_c, 9, 36, 0
1, 169920, Note_on_c, 9, 38, 127
1, 169920, Note_on_c, 9, 42, 127
1, 169947, Note_on_c, 9, 42, 0
1, 170160, Note_on_c, 9, 36, 127
1, 170399, Note_on_c, 9, 38, 0
1, 170399, Note_on_c, 9, 36, 0
1, 170400, Note_on_c, 9, 42, 43
1, 170427, Note_on_c, 9, 42, 0
1, 170640, Note_on_c, 9, 36, 127
1, 170879, Note_on_c, 9, 36, 0
1, 170880, Note_on_c, 9, 42, 127
1, 170880, Note_on_c, 9, 36, 127
1, 170907, Note_on_c, 9, 42, 0
1, 171359, Note_on_c, 9, 36, 0
1, 171360, Note_on_c, 9, 42, 43
1, 171387, Note_on_c, 9, 42, 0
1, 171840, Note_on_c, 9, 38, 127
1, 171840, Note_on_c, 9, 42, 127
1, 171853, Note_on_c, 9, 42, 0
1, 172079, Note_on_c, 9, 38, 0
1, 172080, Note_on_c, 9, 42, 43
1, 172093, Note_on_c, 9, 42, 0
1, 172320, Note_on_c, 9, 42, 127
1, 172333, Note_on_c, 9, 42, 0
1, 172560, Note_on_c, 9, 42, 43
1, 172560, Note_on_c, 9, 36, 127
1, 172573, Note_on_c, 9, 42, 0
1, 172799, Note_on_c, 9, 36, 0
1, 172800, Note_on_c, 9, 42, 127
1, 172800, Note_on_c, 9, 36, 127
1, 172827, Note_on_c, 9, 42, 0
1, 173279, Note_on_c, 9, 36, 0
1, 173280, Note_on_c, 9, 42, 43
1, 173280, Note_on_c, 9, 36, 127
1, 173307, Note_on_c, 9, 42, 0
1, 173759, Note_on_c, 9, 36, 0
1, 173760, Note_on_c, 9, 38, 127
1, 173760, Note_on_c, 9, 42, 127
1, 173787, Note_on_c, 9, 42, 0
1, 174000, Note_on_c, 9, 36, 127
1, 174239, Note_on_c, 9, 38, 0
1, 174239, Note_on_c, 9, 36, 0
1, 174240, Note_on_c, 9, 42, 43
1, 174267, Note_on_c, 9, 42, 0
1, 174480, Note_on_c, 9, 36, 127
1, 174719, Note_on_c, 9, 36, 0
1, 174720, Note_on_c, 9, 42, 127
1, 174720, Note_on_c, 9, 36, 127
1, 174747, Note_on_c, 9, 42, 0
1, 175199, Note_on_c, 9, 36, 0
1, 175200, Note_on_c, 9, 42, 43
1, 175227, Note_on_c, 9, 42, 0
1, 175680, Note_on_c, 9, 38, 127
1, 175680, Note_on_c, 9, 42, 127
1, 175693, Note_on_c, 9, 42, 0
1, 175919, Note_on_c, 9, 38, 0
1, 175920, Note_on_c, 9, 42, 43
1, 175933, Note_on_c, 9, 42, 0
1, 176160, Note_on_c, 9, 42, 127
1, 176173, Note_on_c, 9, 42, 0
1, 176400, Note_on_c, 9, 42, 43
1, 176400, Note_on_c, 9, 36, 127
1, 176413, Note_on_c, 9, 42, 0
1, 176639, Note_on_c, 9, 36, 0
1, 176640, Note_on_c, 9, 42, 127
1, 176640, Note_on_c, 9, 36, 127
1, 176667, Note_on_c, 9, 42, 0
1, 177119, Note_on_c, 9, 36, 0
1, 177120, Note_on_c, 9, 42, 43
1, 177120, Note_on_c, 9, 36, 127
1, 177147, Note_on_c, 9, 42, 0
1, 177599, Note_on_c, 9, 36, 0
1, 177600, Note_on_c, 9, 38, 127
1, 177600, Note_on_c, 9, 42, 127
1, 177627, Note_on_c, 9, 42, 0
1, 177840, Note_on_c, 9, 36, 127
1, 178079, Note_on_c, 9, 38, 0
1, 178079, Note_on_c, 9, 36, 0
1, 178080, Note_on_c, 9, 42, 43
1, 178107, Note_on_c, 9, 42, 0
1, 178320, Note_on_c, 9, 36, 127
1, 178559, Note_on_c, 9, 36, 0
1, 178560, Note_on_c, 9, 42, 127
1, 178560, Note_on_c, 9, 36, 127
1, 178587, Note_on_c, 9, 42, 0
1, 179039, Note_on_c, 9, 36, 0
1, 179040, Note_on_c, 9, 42, 43
1, 179067, Note_on_c, 9, 42, 0
1, 179520, Note_on_c, 9, 38, 127
1, 179520, Note_on_c, 9, 42, 127
1, 179533, Note_on_c, 9, 42, 0
1, 179759, Note_on_c, 9, 38, 0
1, 179760, Note_on_c, 9, 42, 43
1, 179773, Note_on_c, 9, 42, 0
1, 180000, Note_on_c, 9, 42, 127
1, 180013, Note_on_c, 9, 42, 0
1, 180240, Note_on_c, 9, 42, 43
1, 180240, Note_on_c, 9, 36, 127
1, 180253, Note_on_c, 9, 42, 0
1, 180479, Note_on_c, 9, 36, 0
1, 180480, Note_on_c, 9, 42, 127
1, 180480, Note_on_c, 9, 36, 127
1, 180507, Note_on_c, 9, 42, 0
1, 180959, Note_on_c, 9, 36, 0
1, 180960, Note_on_c, 9, 42, 43
1, 180960, Note_on_c, 9, 36, 127
1, 180987, Note_on_c, 9, 42, 0
1, 181439, Note_on_c, 9, 36, 0
1, 181440, Note_on_c, 9, 38, 127
1, 181440, Note_on_c, 9, 42, 127
1, 181467, Note_on_c, 9, 42, 0
1, 181680, Note_on_c, 9, 36, 127
1, 181919, Note_on_c, 9, 38, 0
1, 181919, Note_on_c, 9, 36, 0
1, 181920, Note_on_c, 9, 42, 43
1, 181947, Note_on_c, 9, 42, 0
1, 182160, Note_on_c, 9, 36, 127
1, 182399, Note_on_c, 9, 36, 0
1, 182400, Note_on_c, 9, 42, 127
1, 182400, Note_on_c, 9, 36, 127
1, 182427, Note_on_c, 9, 42, 0
1, 182879, Note_on_c, 9, 36, 0
1, 182880, Note_on_c, 9, 42, 43
1, 182907, Note_on_c, 9, 42, 0
1, 183360, Note_on_c, 9, 38, 127
1, 183360, Note_on_c, 9, 42, 127
1, 183373, Note_on_c, 9, 42, 0
1, 183599, Note_on_c, 9, 38, 0
1, 183600, Note_on_c, 9, 42, 43
1, 183613, Note_on_c, 9, 42, 0
1, 183840, Note_on_c, 9, 42, 127
1, 183853, Note_on_c, 9, 42, 0
1, 184080, Note_on_c, 9, 42, 43
1, 184080, Note_on_c, 9, 36, 127
1, 184093, Note_on_c, 9, 42, 0
1, 184319, Note_on_c, 9, 36, 0
1, 184320, Note_on_c, 9, 42, 127
1, 184320, Note_on_c, 9, 36, 127
1, 184347, Note_on_c, 9, 42, 0
1, 184799, Note_on_c, 9, 36, 0
1, 184800, Note_on_c, 9, 42, 43
1, 184800, Note_on_c, 9, 36, 127
1, 184827, Note_on_c, 9, 42, 0
1, 185279, Note_on_c, 9, 36, 0
1, 185280, Note_on_c, 9, 38, 127
1, 185280, Note_on_c, 9, 42, 127
1, 185307, Note_on_c, 9, 42, 0
1, 185520, Note_on_c, 9, 36, 127
1, 185759, Note_on_c, 9, 38, 0
1, 185759, Note_on_c, 9, 36, 0
1, 185760, Note_on_c, 9, 38, 127
1, 185760, Note_on_c, 9, 42, 43
1, 185773, Note_on_c, 9, 42, 0
1, 185999, Note_on_c, 9, 38, 0
1, 186000, Note_on_c, 9, 38, 127
1, 186000, Note_on_c, 9, 36, 127
1, 186239, Note_on_c, 9, 38, 0
1, 186239, Note_on_c, 9, 36, 0
1, 186240, Note_on_c, 9, 42, 127
1, 186240, Note_on_c, 9, 49, 87
1, 186240, Note_on_c, 9, 36, 127
1, 186267, Note_on_c, 9, 42, 0
1, 186267, Note_on_c, 9, 49, 0
1, 186719, Note_on_c, 9, 36, 0
1, 186720, Note_on_c, 9, 42, 43
1, 186747, Note_on_c, 9, 42, 0
1, 187200, Note_on_c, 9, 38, 127
1, 187200, Note_on_c, 9, 42, 127
1, 187213, Note_on_c, 9, 42, 0
1, 187439, Note_on_c, 9, 38, 0
1, 187440, Note_on_c, 9, 42, 43
1, 187453, Note_on_c, 9, 42, 0
1, 187680, Note_on_c, 9, 42, 127
1, 187693, Note_on_c, 9, 42, 0
1, 187920, Note_on_c, 9, 42, 43
1, 187920, Note_on_c, 9, 36, 127
1, 187933, Note_on_c, 9, 42, 0
1, 188159, Note_on_c, 9, 36, 0
1, 188160, Note_on_c, 9, 42, 127
1, 188160, Note_on_c, 9, 36, 127
1, 188187, Note_on_c, 9, 42, 0
1, 188639, Note_on_c, 9, 36, 0
1, 188640, Note_on_c, 9, 42, 43
1, 188640, Note_on_c, 9, 36, 127
1, 188667, Note_on_c, 9, 42, 0
1, 189119, Note_on_c, 9, 36, 0
1, 189120, Note_on_c, 9, 38, 127
1, 189120, Note_on_c, 9, 42, 127
1, 189147, Note_on_c, 9, 42, 0
1, 189360, Note_on_c, 9, 36, 127
1, 189599, Note_on_c, 9, 38, 0
1, 189599, Note_on_c, 9, 36, 0
1, 189600, Note_on_c, 9, 42, 43
1, 189627, Note_on_c, 9, 42, 0
1, 189840, Note_on_c, 9, 36, 127
1, 190079, Note_on_c, 9, 36, 0
1, 190080, Note_on_c, 9, 42, 127
1, 190080, Note_on_c, 9, 36, 127
1, 190107, Note_on_c, 9, 42, 0
1, 190559, Note_on_c, 9, 36, 0
1, 190560, Note_on_c, 9, 42, 43
1, 190587, Note_on_c, 9, 42, 0
1, 191040, Note_on_c, 9, 38, 127
1, 191040, Note_on_c, 9, 42, 127
1, 191053, Note_on_c, 9, 42, 0
1, 191279, Note_on_c, 9, 38, 0
1, 191280, Note_on_c, 9, 42, 43
1, 191293, Note_on_c, 9, 42, 0
1, 191520, Note_on_c, 9, 42, 127
1, 191533, Note_on_c, 9, 42, 0
1, 191760, Note_on_c, 9, 42, 43
1, 191760, Note_on_c, 9, 36, 127
1, 191773, Note_on_c, 9, 42, 0
1, 191999, Note_on_c, 9, 36, 0
1, 192000, Note_on_c, 9, 42, 127
1, 192000, Note_on_c, 9, 36, 127
1, 192027, Note_on_c, 9, 42, 0
1, 192479, Note_on_c, 9, 36, 0
1, 192480, Note_on_c, 9, 42, 43
1, 192480, Note_on_c, 9, 36, 127
1, 192507, Note_on_c, 9, 42, 0
1, 192959, Note_on_c, 9, 36, 0
1, 192960, Note_on_c, 9, 38, 127
1, 192960, Note_on_c, 9, 42, 127
1, 192987, Note_on_c, 9, 42, 0
1, 193200, Note_on_c, 9, 36, 127
1, 193439, Note_on_c, 9, 38, 0
1, 193439, Note_on_c, 9, 36, 0
1, 193440, Note_on_c, 9, 42, 43
1, 193467, Note_on_c, 9, 42, 0
1, 193680, Note_on_c, 9, 36, 127
1, 193919, Note_on_c, 9, 36, 0
1, 193920, Note_on_c, 9, 42, 127
1, 193920, Note_on_c, 9, 36, 127
1, 193947, Note_on_c, 9, 42, 0
1, 194399, Note_on_c, 9, 36, 0
1, 194400, Note_on_c, 9, 42, 43
1, 194427, Note_on_c, 9, 42, 0
1, 194880, Note_on_c, 9, 38, 127
1, 194880, Note_on_c, 9, 42, 127
1, 194893, Note_on_c, 9, 42, 0
1, 195119, Note_on_c, 9, 38, 0
1, 195120, Note_on_c, 9, 42, 43
1, 195133, Note_on_c, 9, 42, 0
1, 195360, Note_on_c, 9, 42, 127
1, 195373, Note_on_c, 9, 42, 0
1, 195600, Note_on_c, 9, 42, 43
1, 195600, Note_on_c, 9, 36, 127
1, 195613, Note_on_c, 9, 42, 0
1, 195839, Note_on_c, 9, 36, 0
1, 195840, Note_on_c, 9, 42, 127
1, 195840, Note_on_c, 9, 36, 127
1, 195867, Note_on_c, 9, 42, 0
1, 196319, Note_on_c, 9, 36, 0
1, 196320, Note_on_c, 9, 42, 43
1, 196320, Note_on_c, 9, 36, 127
1, 196347, Note_on_c, 9, 42, 0
1, 196799, Note_on_c, 9, 36, 0
1, 196800, Note_on_c, 9, 38, 127
1, 196800, Note_on_c, 9, 42, 127
1, 196827, Note_on_c, 9, 42, 0
1, 197040, Note_on_c, 9, 36, 127
1, 197279, Note_on_c, 9, 38, 0
1, 197279, Note_on_c, 9, 36, 0
1, 197280, Note_on_c, 9, 42, 43
1, 197307, Note_on_c, 9, 42, 0
1, 197520, Note_on_c, 9, 36, 127
1, 197759, Note_on_c, 9, 36, 0
1, 197760, Note_on_c, 9, 42, 127
1, 197760, Note_on_c, 9, 36, 127
1, 197787, Note_on_c, 9, 42, 0
1, 198239, Note_on_c, 9, 36, 0
1, 198240, Note_on_c, 9, 42, 43
1, 198267, Note_on_c, 9, 42, 0
1, 198720, Note_on_c, 9, 38, 127
1, 198720, Note_on_c, 9, 42, 127
1, 198733, Note_on_c, 9, 42, 0
1, 198959, Note_on_c, 9, 38, 0
1, 198960, Note_on_c, 9, 42, 43
1, 198973, Note_on_c, 9, 42, 0
1, 199200, Note_on_c, 9, 42, 127
1, 199213, Note_on_c, 9, 42, 0
1, 199440, Note_on_c, 9, 42, 43
1, 199440, Note_on_c, 9, 36, 127
1, 199453, Note_on_c, 9, 42, 0
1, 199679, Note_on_c, 9, 36, 0
1, 199680, Note_on_c, 9, 42, 127
1, 199680, Note_on_c, 9, 36, 127
1, 199707, Note_on_c, 9, 42, 0
1, 200159, Note_on_c, 9, 36, 0
1, 200160, Note_on_c, 9, 42, 43
1, 200160, Note_on_c, 9, 36, 127
1, 200187, Note_on_c, 9, 42, 0
1, 200639, Note_on_c, 9, 36, 0
1, 200640, Note_on_c, 9, 38, 127
1, 200640, Note_on_c, 9, 42, 127
1, 200667, Note_on_c, 9, 42, 0
1, 200880, Note_on_c, 9, 36, 127
1, 201119, Note_on_c, 9, 38, 0
1, 201119, Note_on_c, 9, 36, 0
1, 201120, Note_on_c, 9, 42, 43
1, 201147, Note_on_c, 9, 42, 0
1, 201360, Note_on_c, 9, 36, 127
1, 201599, Note_on_c, 9, 36, 0
1, 201600, Note_on_c, 9, 42, 127
1, 201600, Note_on_c, 9, 36, 127
1, 201627, Note_on_c, 9, 42, 0
1, 202079, Note_on_c, 9, 36, 0
1, 202080, Note_on_c, 9, 42, 43
1, 202107, Note_on_c, 9, 42, 0
1, 202560, Note_on_c, 9, 38, 127
1, 202560, Note_on_c, 9, 42, 127
1, 202573, Note_on_c, 9, 42, 0
1, 202799, Note_on_c, 9, 38, 0
1, 202800, Note_on_c, 9, 42, 43
1, 202813, Note_on_c, 9, 42, 0
1, 203040, Note_on_c, 9, 42, 127
1, 203053, Note_on_c, 9, 42, 0
1, 203280, Note_on_c, 9, 42, 43
1, 203280, Note_on_c, 9, 36, 127
1, 203293, Note_on_c, 9, 42, 0
1, 203519, Note_on_c, 9, 36, 0
1, 203520, Note_on_c, 9, 42, 127
1, 203520, Note_on_c, 9, 36, 127
1, 203547, Note_on_c, 9, 42, 0
1, 203999, Note_on_c, 9, 36, 0
1, 204000, Note_on_c, 9, 42, 43
1, 204000, Note_on_c, 9, 36, 127
1, 204027, Note_on_c, 9, 42, 0
1, 204479, Note_on_c, 9, 36, 0
1, 204480, Note_on_c, 9, 38, 127
1, 204480, Note_on_c, 9, 42, 127
1, 204507, Note_on_c, 9, 42, 0
1, 204720, Note_on_c, 9, 36, 127
1, 204959, Note_on_c, 9, 38, 0
1, 204959, Note_on_c, 9, 36, 0
1, 204960, Note_on_c, 9, 42, 43
1, 204987, Note_on_c, 9, 42, 0
1, 205200, Note_on_c, 9, 36, 127
1, 205439, Note_on_c, 9, 36, 0
1, 205440, Note_on_c, 9, 42, 127
1, 205440, Note_on_c, 9, 36, 127
1, 205467, Note_on_c, 9, 42, 0
1, 205919, Note_on_c, 9, 36, 0
1, 205920, Note_on_c, 9, 42, 43
1, 205947, Note_on_c, 9, 42, 0
1, 206400, Note_on_c, 9, 38, 127
1, 206400, Note_on_c, 9, 42, 127
1, 206413, Note_on_c, 9, 42, 0
1, 206639, Note_on_c, 9, 38, 0
1, 206640, Note_on_c, 9, 42, 43
1, 206653, Note_on_c, 9, 42, 0
1, 206880, Note_on_c, 9, 42, 127
1, 206893, Note_on_c, 9, 42, 0
1, 207120, Note_on_c, 9, 42, 43
1, 207120, Note_on_c, 9, 36, 127
1, 207133, Note_on_c, 9, 42, 0
1, 207359, Note_on_c, 9, 36, 0
1, 207360, Note_on_c, 9, 42, 127
1, 207360, Note_on_c, 9, 36, 127
1, 207387, Note_on_c, 9, 42, 0
1, 207839, Note_on_c, 9, 36, 0
1, 207840, Note_on_c, 9, 42, 43
1, 207840, Note_on_c, 9, 36, 127
1, 207867, Note_on_c, 9, 42, 0
1, 208319, Note_on_c, 9, 36, 0
1, 208320, Note_on_c, 9, 38, 127
1, 208320, Note_on_c, 9, 42, 127
1, 208347, Note_on_c, 9, 42, 0
1, 208560, Note_on_c, 9, 36, 127
1, 208799, Note_on_c, 9, 38, 0
1, 208799, Note_on_c, 9, 36, 0
1, 208800, Note_on_c, 9, 42, 43
1, 208827, Note_on_c, 9, 42, 0
1, 209040, Note_on_c, 9, 36, 127
1, 209279, Note_on_c, 9, 36, 0
1, 209280, Note_on_c, 9, 42, 127
1, 209280, Note_on_c, 9, 36, 127
1, 209307, Note_on_c, 9, 42, 0
1, 209759, Note_on_c, 9, 36, 0
1, 209760, Note_on_c, 9, 42, 43
1, 209787, Note_on_c, 9, 42, 0
1, 210240, Note_on_c, 9, 38, 127
1, 210240, Note_on_c, 9, 42, 127
1, 210253, Note_on_c, 9, 42, 0
1, 210479, Note_on_c, 9, 38, 0
1, 210480, Note_on_c, 9, 42, 43
1, 210493, Note_on_c, 9, 42, 0
1, 210720, Note_on_c, 9, 42, 127
1, 210733, Note_on_c, 9, 42, 0
1, 210960, Note_on_c, 9, 42, 43
1, 210960, Note_on_c, 9, 36, 127
1, 210973, Note_on_c, 9, 42, 0
1, 211199, Note_on_c, 9, 36, 0
1, 211200, Note_on_c, 9, 42, 127
1, 211200, Note_on_c, 9, 36, 127
1, 211227, Note_on_c, 9, 42, 0
1, 211679, Note_on_c, 9, 36, 0
1, 211680, Note_on_c, 9, 42, 43
1, 211680, Note_on_c, 9, 36, 127
1, 211707, Note_on_c, 9, 42, 0
1, 212159, Note_on_c, 9, 36, 0
1, 212160, Note_on_c, 9, 38, 127
1, 212160, Note_on_c, 9, 42, 127
1, 212187, Note_on_c, 9, 42, 0
1, 212400, Note_on_c, 9, 36, 127
1, 212639, Note_on_c, 9, 38, 0
1, 212639, Note_on_c, 9, 36, 0
1, 212640, Note_on_c, 9, 42, 43
1, 212667, Note_on_c, 9, 42, 0
1, 212880, Note_on_c, 9, 36, 127
1, 213119, Note_on_c, 9, 36, 0
1, 213120, Note_on_c, 9, 42, 127
1, 213120, Note_on_c, 9, 36, 127
1, 213147, Note_on_c, 9, 42, 0
1, 213599, Note_on_c, 9, 36, 0
1, 213600, Note_on_c, 9, 42, 43
1, 213627, Note_on_c, 9, 42, 0
1, 214080, Note_on_c, 9, 38, 127
1, 214080, Note_on_c, 9, 42, 127
1, 214093, Note_on_c, 9, 42, 0
1, 214319, Note_on_c, 9, 38, 0
1, 214320, Note_on_c, 9, 42, 43
1, 214333, Note_on_c, 9, 42, 0
1, 214560, Note_on_c, 9, 46, 127
1, 214573, Note_on_c, 9, 46, 0
1, 214800, Note_on_c, 9, 42, 127
1, 214800, Note_on_c, 9, 36, 127
1, 214813, Note_on_c, 9, 42, 0
1, 215039, Note_on_c, 9, 36, 0
1, 215040, Note_on_c, 9, 42, 127
1, 215040, Note_on_c, 9, 36, 127
1, 215067, Note_on_c, 9, 42, 0
1, 215519, Note_on_c, 9, 36, 0
1, 215520, Note_on_c, 9, 38, 127
1, 215520, Note_on_c, 9, 42, 43
1, 215520, Note_on_c, 9, 36, 127
1, 215547, Note_on_c, 9, 42, 0
1, 215999, Note_on_c, 9, 38, 0
1, 215999, Note_on_c, 9, 36, 0
1, 216000, Note_on_c, 9, 38, 43
1, 216000, Note_on_c, 9, 42, 127
1, 216013, Note_on_c, 9, 42, 0
1, 216239, Note_on_c, 9, 38, 0
1, 216240, Note_on_c, 9, 38, 127
1, 216240, Note_on_c, 9, 36, 127
1, 216479, Note_on_c, 9, 38, 0
1, 216479, Note_on_c, 9, 36, 0
1, 216480, Note_on_c, 9, 45, 127
1, 216480, Note_on_c, 9, 42, 43
1, 216507, Note_on_c, 9, 42, 0
1, 216720, Note_on_c, 9, 36, 127
1, 216720, Note_on_c, 9, 43, 127
1, 216959, Note_on_c, 9, 45, 0
1, 216959, Note_on_c, 9, 36, 0
1, 216959, Note_on_c, 9, 43, 0
1, 216960, Note_on_c, 9, 42, 127
1, 216960, Note_on_c, 9, 49, 87
1, 216960, Note_on_c, 9, 36, 127
1, 216973, Note_on_c, 9, 42, 0
1, 216973, Note_on_c, 9, 49, 0
1, 217200, Note_on_c, 9, 42, 43
1, 217213, Note_on_c, 9, 42, 0
1, 217439, Note_on_c, 9, 36, 0
1, 217440, Note_on_c, 9, 42, 43
1, 217453, Note_on_c, 9, 42, 0
1, 217680, Note_on_c, 9, 42, 43
1, 217693, Note_on_c, 9, 42, 0
1, 217920, Note_on_c, 9, 38, 127
1, 217920, Note_on_c, 9, 42, 127
1, 217933, Note_on_c, 9, 42, 0
1, 218159, Note_on_c, 9, 38, 0
1, 218160, Note_on_c, 9, 42, 43
1, 218173, Note_on_c, 9, 42, 0
1, 218400, Note_on_c, 9, 42, 43
1, 218413, Note_on_c, 9, 42, 0
1, 218640, Note_on_c, 9, 42, 43
1, 218640, Note_on_c, 9, 36, 127
1, 218653, Note_on_c, 9, 42, 0
1, 218879, Note_on_c, 9, 36, 0
1, 218880, Note_on_c, 9, 42, 127
1, 218880, Note_on_c, 9, 36, 127
1, 218893, Note_on_c, 9, 42, 0
1, 219120, Note_on_c, 9, 42, 43
1, 219133, Note_on_c, 9, 42, 0
1, 219359, Note_on_c, 9, 36, 0
1, 219360, Note_on_c, 9, 42, 43
1, 219360, Note_on_c, 9, 36, 127
1, 219373, Note_on_c, 9, 42, 0
1, 219600, Note_on_c, 9, 42, 43
1, 219613, Note_on_c, 9, 42, 0
1, 219839, Note_on_c, 9, 36, 0
1, 219840, Note_on_c, 9, 38, 127
1, 219840, Note_on_c, 9, 42, 127
1, 219853, Note_on_c, 9, 42, 0
1, 220079, Note_on_c, 9, 38, 0
1, 220080, Note_on_c, 9, 42, 43
1, 220080, Note_on_c, 9, 36, 127
1, 220093, Note_on_c, 9, 42, 0
1, 220319, Note_on_c, 9, 36, 0
1, 220320, Note_on_c, 9, 42, 43
1, 220333, Note_on_c, 9, 42, 0
1, 220560, Note_on_c, 9, 42, 43
1, 220560, Note_on_c, 9, 36, 127
1, 220573, Note_on_c, 9, 42, 0
1, 220799, Note_on_c, 9, 36, 0
1, 220800, Note_on_c, 9, 42, 127
1, 220800, Note_on_c, 9, 36, 127
1, 220813, Note_on_c, 9, 42, 0
1, 221040, Note_on_c, 9, 42, 43
1, 221053, Note_on_c, 9, 42, 0
1, 221279, Note_on_c, 9, 36, 0
1, 221280, Note_on_c, 9, 42, 43
1, 221293, Note_on_c, 9, 42, 0
1, 221520, Note_on_c, 9, 42, 43
1, 221533, Note_on_c, 9, 42, 0
1, 221760, Note_on_c, 9, 38, 127
1, 221760, Note_on_c, 9, 42, 127
1, 221773, Note_on_c, 9, 42, 0
1, 221999, Note_on_c, 9, 38, 0
1, 222000, Note_on_c, 9, 42, 43
1, 222013, Note_on_c, 9, 42, 0
1, 222240, Note_on_c, 9, 42, 43
1, 222253, Note_on_c, 9, 42, 0
1, 222480, Note_on_c, 9, 42, 43
1, 222480, Note_on_c, 9, 36, 127
1, 222493, Note_on_c, 9, 42, 0
1, 222719, Note_on_c, 9, 36, 0
1, 222720, Note_on_c, 9, 42, 127
1, 222720, Note_on_c, 9, 36, 127
1, 222733, Note_on_c, 9, 42, 0
1, 222960, Note_on_c, 9, 42, 43
1, 222973, Note_on_c, 9, 42, 0
1, 223199, Note_on_c, 9, 36, 0
1, 223200, Note_on_c, 9, 42, 43
1, 223200, Note_on_c, 9, 36, 127
1, 223213, Note_on_c, 9, 42, 0
1, 223439, Note_on_c, 9, 36, 0
1, 223440, Note_on_c, 9, 42, 43
1, 223440, Note_on_c, 9, 36, 127
1, 223453, Note_on_c, 9, 42, 0
1, 223679, Note_on_c, 9, 36, 0
1, 223680, Note_on_c, 9, 38, 127
1, 223680, Note_on_c, 9, 45, 127
1, 223680, Note_on_c, 9, 42, 127
1, 223693, Note_on_c, 9, 42, 0
1, 223919, Note_on_c, 9, 38, 0
1, 223919, Note_on_c, 9, 45, 0
1, 223920, Note_on_c, 9, 42, 43
1, 223920, Note_on_c, 9, 36, 127
1, 223933, Note_on_c, 9, 42, 0
1, 224159, Note_on_c, 9, 36, 0
1, 224160, Note_on_c, 9, 42, 43
1, 224160, Note_on_c, 9, 43, 127
1, 224173, Note_on_c, 9, 42, 0
1, 224399, Note_on_c, 9, 43, 0
1, 224400, Note_on_c, 9, 42, 43
1, 224400, Note_on_c, 9, 36, 127
1, 224413, Note_on_c, 9, 42, 0
1, 224639, Note_on_c, 9, 36, 0
1, 224640, Note_on_c, 9, 42, 127
1, 224640, Note_on_c, 9, 36, 127
1, 224653, Note_on_c, 9, 42, 0
1, 224880, Note_on_c, 9, 42, 43
1, 224893, Note_on_c, 9, 42, 0
1, 225119, Note_on_c, 9, 36, 0
1, 225120, Note_on_c, 9, 42, 43
1, 225133, Note_on_c, 9, 42, 0
1, 225360, Note_on_c, 9, 42, 43
1, 225373, Note_on_c, 9, 42, 0
1, 225600, Note_on_c, 9, 38, 127
1, 225600, Note_on_c, 9, 42, 127
1, 225613, Note_on_c, 9, 42, 0
1, 225839, Note_on_c, 9, 38, 0
1, 225840, Note_on_c, 9, 42, 43
1, 225853, Note_on_c, 9, 42, 0
1, 226080, Note_on_c, 9, 42, 43
1, 226093, Note_on_c, 9, 42, 0
1, 226320, Note_on_c, 9, 42, 43
1, 226320, Note_on_c, 9, 36, 127
1, 226333, Note_on_c, 9, 42, 0
1, 226559, Note_on_c, 9, 36, 0
1, 226560, Note_on_c, 9, 42, 127
1, 226560, Note_on_c, 9, 36, 127
1, 226573, Note_on_c, 9, 42, 0
1, 226800, Note_on_c, 9, 42, 43
1, 226813, Note_on_c, 9, 42, 0
1, 227039, Note_on_c, 9, 36, 0
1, 227040, Note_on_c, 9, 42, 43
1, 227040, Note_on_c, 9, 36, 127
1, 227053, Note_on_c, 9, 42, 0
1, 227280, Note_on_c, 9, 42, 43
1, 227293, Note_on_c, 9, 42, 0
1, 227519, Note_on_c, 9, 36, 0
1, 227520, Note_on_c, 9, 38, 127
1, 227520, Note_on_c, 9, 42, 127
1, 227533, Note_on_c, 9, 42, 0
1, 227759, Note_on_c, 9, 38, 0
1, 227760, Note_on_c, 9, 42, 43
1, 227760, Note_on_c, 9, 36, 127
1, 227773, Note_on_c, 9, 42, 0
1, 227999, Note_on_c, 9, 36, 0
1, 228000, Note_on_c, 9, 42, 43
1, 228013, Note_on_c, 9, 42, 0
1, 228240, Note_on_c, 9, 42, 43
1, 228240, Note_on_c, 9, 36, 127
1, 228253, Note_on_c, 9, 42, 0
1, 228479, Note_on_c, 9, 36, 0
1, 228480, Note_on_c, 9, 42, 127
1, 228480, Note_on_c, 9, 36, 127
1, 228493, Note_on_c, 9, 42, 0
1, 228720, Note_on_c, 9, 42, 43
1, 228733, Note_on_c, 9, 42, 0
1, 228959, Note_on_c, 9, 36, 0
1, 228960, Note_on_c, 9, 42, 43
1, 228973, Note_on_c, 9, 42, 0
1, 229200, Note_on_c, 9, 42, 43
1, 229213, Note_on_c, 9, 42, 0
1, 229440, Note_on_c, 9, 38, 127
1, 229440, Note_on_c, 9, 42, 127
1, 229453, Note_on_c, 9, 42, 0
1, 229679, Note_on_c, 9, 38, 0
1, 229680, Note_on_c, 9, 42, 43
1, 229693, Note_on_c, 9, 42, 0
1, 229920, Note_on_c, 9, 42, 43
1, 229933, Note_on_c, 9, 42, 0
1, 230160, Note_on_c, 9, 42, 43
1, 230160, Note_on_c, 9, 36, 127
1, 230173, Note_on_c, 9, 42, 0
1, 230399, Note_on_c, 9, 36, 0
1, 230400, Note_on_c, 9, 42, 127
1, 230400, Note_on_c, 9, 36, 127
1, 230413, Note_on_c, 9, 42, 0
1, 230640, Note_on_c, 9, 42, 43
1, 230646, Note_on_c, 9, 42, 0
1, 230760, Note_on_c, 9, 38, 25
1, 230879, Note_on_c, 9, 36, 0
1, 230879, Note_on_c, 9, 38, 0
1, 230880, Note_on_c, 9, 38, 127
1, 230880, Note_on_c, 9, 42, 43
1, 230880, Note_on_c, 9, 36, 127
1, 230893, Note_on_c, 9, 42, 0
1, 231119, Note_on_c, 9, 38, 0
1, 231120, Note_on_c, 9, 38, 43
1, 231120, Note_on_c, 9, 42, 43
1, 231133, Note_on_c, 9, 42, 0
1, 231359, Note_on_c, 9, 36, 0
1, 231359, Note_on_c, 9, 38, 0
1, 231360, Note_on_c, 9, 38, 127
1, 231360, Note_on_c, 9, 45, 127
1, 231360, Note_on_c, 9, 42, 127
1, 231373, Note_on_c, 9, 42, 0
1, 231599, Note_on_c, 9, 38, 0
1, 231599, Note_on_c, 9, 45, 0
1, 231600, Note_on_c, 9, 38, 127
1, 231600, Note_on_c, 9, 42, 43
1, 231600, Note_on_c, 9, 36, 127
1, 231613, Note_on_c, 9, 42, 0
1, 231839, Note_on_c, 9, 38, 0
1, 231839, Note_on_c, 9, 36, 0
1, 231840, Note_on_c, 9, 42, 43
1, 231840, Note_on_c, 9, 43, 127
1, 231853, Note_on_c, 9, 42, 0
1, 232079, Note_on_c, 9, 43, 0
1, 232080, Note_on_c, 9, 38, 127
1, 232080, Note_on_c, 9, 42, 43
1, 232080, Note_on_c, 9, 36, 127
1, 232093, Note_on_c, 9, 42, 0
1, 232319, Note_on_c, 9, 38, 0
1, 232319, Note_on_c, 9, 36, 0
1, 232320, Note_on_c, 9, 42, 127
1, 232320, Note_on_c, 9, 49, 87
1, 232320, Note_on_c, 9, 36, 127
1, 232333, Note_on_c, 9, 42, 0
1, 232333, Note_on_c, 9, 49, 0
1, 232560, Note_on_c, 9, 42, 43
1, 232573, Note_on_c, 9, 42, 0
1, 232799, Note_on_c, 9, 36, 0
1, 232800, Note_on_c, 9, 42, 43
1, 232813, Note_on_c, 9, 42, 0
1, 233040, Note_on_c, 9, 42, 43
1, 233053, Note_on_c, 9, 42, 0
1, 233280, Note_on_c, 9, 38, 127
1, 233280, Note_on_c, 9, 42, 127
1, 233293, Note_on_c, 9, 42, 0
1, 233519, Note_on_c, 9, 38, 0
1, 233520, Note_on_c, 9, 42, 43
1, 233533, Note_on_c, 9, 42, 0
1, 233760, Note_on_c, 9, 42, 43
1, 233773, Note_on_c, 9, 42, 0
1, 234000, Note_on_c, 9, 42, 43
1, 234000, Note_on_c, 9, 36, 127
1, 234013, Note_on_c, 9, 42, 0
1, 234239, Note_on_c, 9, 36, 0
1, 234240, Note_on_c, 9, 42, 127
1, 234240, Note_on_c, 9, 36, 127
1, 234253, Note_on_c, 9, 42, 0
1, 234480, Note_on_c, 9, 42, 43
1, 234493, Note_on_c, 9, 42, 0
1, 234719, Note_on_c, 9, 36, 0
1, 234720, Note_on_c, 9, 42, 43
1, 234720, Note_on_c, 9, 36, 127
1, 234733, Note_on_c, 9, 42, 0
1, 234960, Note_on_c, 9, 42, 43
1, 234973, Note_on_c, 9, 42, 0
1, 235199, Note_on_c, 9, 36, 0
1, 235200, Note_on_c, 9, 38, 127
1, 235200, Note_on_c, 9, 42, 127
1, 235213, Note_on_c, 9, 42, 0
1, 235439, Note_on_c, 9, 38, 0
1, 235440, Note_on_c, 9, 42, 43
1, 235440, Note_on_c, 9, 36, 127
1, 235453, Note_on_c, 9, 42, 0
1, 235679, Note_on_c, 9, 36, 0
1, 235680, Note_on_c, 9, 42, 43
1, 235693, Note_on_c, 9, 42, 0
1, 235920, Note_on_c, 9, 42, 43
1, 235920, Note_on_c, 9, 36, 127
1, 235933, Note_on_c, 9, 42, 0
1, 236159, Note_on_c, 9, 36, 0
1, 236160, Note_on_c, 9, 42, 127
1, 236160, Note_on_c, 9, 36, 127
1, 236173, Note_on_c, 9, 42, 0
1, 236400, Note_on_c, 9, 42, 43
1, 236413, Note_on_c, 9, 42, 0
1, 236639, Note_on_c, 9, 36, 0
1, 236640, Note_on_c, 9, 42, 43
1, 236653, Note_on_c, 9, 42, 0
1, 236880, Note_on_c, 9, 42, 43
1, 236893, Note_on_c, 9, 42, 0
1, 237120, Note_on_c, 9, 38, 127
1, 237120, Note_on_c, 9, 42, 127
1, 237133, Note_on_c, 9, 42, 0
1, 237359, Note_on_c, 9, 38, 0
1, 237360, Note_on_c, 9, 42, 43
1, 237373, Note_on_c, 9, 42, 0
1, 237600, Note_on_c, 9, 42, 43
1, 237613, Note_on_c, 9, 42, 0
1, 237840, Note_on_c, 9, 42, 43
1, 237840, Note_on_c, 9, 36, 127
1, 237853, Note_on_c, 9, 42, 0
1, 238079, Note_on_c, 9, 36, 0
1, 238080, Note_on_c, 9, 42, 127
1, 238080, Note_on_c, 9, 36, 127
1, 238093, Note_on_c, 9, 42, 0
1, 238320, Note_on_c, 9, 42, 43
1, 238333, Note_on_c, 9, 42, 0
1, 238559, Note_on_c, 9, 36, 0
1, 238560, Note_on_c, 9, 42, 43
1, 238560, Note_on_c, 9, 36, 127
1, 238573, Note_on_c, 9, 42, 0
1, 238799, Note_on_c, 9, 36, 0
1, 238800, Note_on_c, 9, 42, 43
1, 238800, Note_on_c, 9, 36, 127
1, 238813, Note_on_c, 9, 42, 0
1, 239039, Note_on_c, 9, 36, 0
1, 239040, Note_on_c, 9, 38, 127
1, 239040, Note_on_c, 9, 45, 127
1, 239040, Note_on_c, 9, 42, 127
1, 239053, Note_on_c, 9, 42, 0
1, 239279, Note_on_c, 9, 38, 0
1, 239279, Note_on_c, 9, 45, 0
1, 239280, Note_on_c, 9, 42, 43
1, 239280, Note_on_c, 9, 36, 127
1, 239293, Note_on_c, 9, 42, 0
1, 239519, Note_on_c, 9, 36, 0
1, 239520, Note_on_c, 9, 42, 43
1, 239520, Note_on_c, 9, 43, 127
1, 239533, Note_on_c, 9, 42, 0
1, 239759, Note_on_c, 9, 43, 0
1, 239760, Note_on_c, 9, 42, 43
1, 239760, Note_on_c, 9, 36, 127
1, 239773, Note_on_c, 9, 42, 0
1, 239999, Note_on_c, 9, 36, 0
1, 240000, Note_on_c, 9, 42, 127
1, 240000, Note_on_c, 9, 36, 127
1, 240013, Note_on_c, 9, 42, 0
1, 240240, Note_on_c, 9, 42, 43
1, 240253, Note_on_c, 9, 42, 0
1, 240479, Note_on_c, 9, 36, 0
1, 240480, Note_on_c, 9, 42, 43
1, 240493, Note_on_c, 9, 42, 0
1, 240720, Note_on_c, 9, 42, 43
1, 240733, Note_on_c, 9, 42, 0
1, 240960, Note_on_c, 9, 38, 127
1, 240960, Note_on_c, 9, 42, 127
1, 240973, Note_on_c, 9, 42, 0
1, 241199, Note_on_c, 9, 38, 0
1, 241200, Note_on_c, 9, 42, 43
1, 241213, Note_on_c, 9, 42, 0
1, 241440, Note_on_c, 9, 42, 43
1, 241453, Note_on_c, 9, 42, 0
1, 241680, Note_on_c, 9, 42, 43
1, 241680, Note_on_c, 9, 36, 127
1, 241693, Note_on_c, 9, 42, 0
1, 241919, Note_on_c, 9, 36, 0
1, 241920, Note_on_c, 9, 42, 127
1, 241920, Note_on_c, 9, 36, 127
1, 241933, Note_on_c, 9, 42, 0
1, 242160, Note_on_c, 9, 42, 43
1, 242173, Note_on_c, 9, 42, 0
1, 242399, Note_on_c, 9, 36, 0
1, 242400, Note_on_c, 9, 42, 43
1, 242400, Note_on_c, 9, 36, 127
1, 242413, Note_on_c, 9, 42, 0
1, 242640, Note_on_c, 9, 42, 43
1, 242653, Note_on_c, 9, 42, 0
1, 242879, Note_on_c, 9, 36, 0
1, 242880, Note_on_c, 9, 38, 127
1, 242880, Note_on_c, 9, 42, 127
1, 242893, Note_on_c, 9, 42, 0
1, 243119, Note_on_c, 9, 38, 0
1, 243120, Note_on_c, 9, 42, 43
1, 243120, Note_on_c, 9, 36, 127
1, 243133, Note_on_c, 9, 42, 0
1, 243359, Note_on_c, 9, 36, 0
1, 243360, Note_on_c, 9, 42, 43
1, 243373, Note_on_c, 9, 42, 0
1, 243600, Note_on_c, 9, 42, 43
1, 243600, Note_on_c, 9, 36, 127
1, 243613, Note_on_c, 9, 42, 0
1, 243839, Note_on_c, 9, 36, 0
1, 243840, Note_on_c, 9, 51, 127
1, 243840, Note_on_c, 9, 36, 127
1, 243867, Note_on_c, 9, 51, 0
1, 244319, Note_on_c, 9, 36, 0
1, 244800, Note_on_c, 9, 42, 127
1, 244827, Note_on_c, 9, 42, 0
1, 246720, Note_on_c, 9, 42, 127
1, 246747, Note_on_c, 9, 42, 0
1, 248640, Note_on_c, 9, 42, 127
1, 248667, Note_on_c, 9, 42, 0
1, 250560, Note_on_c, 9, 42, 127
1, 250587, Note_on_c, 9, 42, 0
1, 252480, Note_on_c, 9, 42, 127
1, 252507, Note_on_c, 9, 42, 0
1, 254400, Note_on_c, 9, 42, 127
1, 254427, Note_on_c, 9, 42, 0
1, 256320, Note_on_c, 9, 42, 127
1, 256347, Note_on_c, 9, 42, 0
1, 258240, Note_on_c, 9, 42, 127
1, 258267, Note_on_c, 9, 42, 0
1, 260160, Note_on_c, 9, 42, 127
1, 260187, Note_on_c, 9, 42, 0
1, 262080, Note_on_c, 9, 42, 127
1, 262107, Note_on_c, 9, 42, 0
1, 264000, Note_on_c, 9, 42, 127
1, 264027, Note_on_c, 9, 42, 0
1, 265920, Note_on_c, 9, 42, 127
1, 265947, Note_on_c, 9, 42, 0
1, 267840, Note_on_c, 9, 42, 127
1, 267867, Note_on_c, 9, 42, 0
1, 269760, Note_on_c, 9, 42, 127
1, 269787, Note_on_c, 9, 42, 0
1, 271680, Note_on_c, 9, 42, 127
1, 271707, Note_on_c, 9, 42, 0
1, 273600, Note_on_c, 9, 42, 127
1, 273627, Note_on_c, 9, 42, 0
1, 274560, Note_on_c, 9, 36, 127
1, 275039, Note_on_c, 9, 36, 0
1, 275040, Note_on_c, 9, 48, 127
1, 275280, Note_on_c, 9, 36, 127
1, 275519, Note_on_c, 9, 48, 0
1, 275519, Note_on_c, 9, 36, 0
1, 275520, Note_on_c, 9, 42, 127
1, 275533, Note_on_c, 9, 42, 0
1, 275760, Note_on_c, 9, 45, 127
1, 275760, Note_on_c, 9, 42, 43
1, 275760, Note_on_c, 9, 36, 127
1, 275773, Note_on_c, 9, 42, 0
1, 275999, Note_on_c, 9, 45, 0
1, 275999, Note_on_c, 9, 36, 0
1, 276000, Note_on_c, 9, 42, 127
1, 276013, Note_on_c, 9, 42, 0
1, 276240, Note_on_c, 9, 46, 127
1, 276240, Note_on_c, 9, 36, 127
1, 276253, Note_on_c, 9, 46, 0
1, 276479, Note_on_c, 9, 36, 0
1, 276480, Note_on_c, 9, 46, 127
1, 276480, Note_on_c, 9, 36, 127
1, 276480, Note_on_c, 9, 43, 127
1, 276507, Note_on_c, 9, 46, 0
1, 276959, Note_on_c, 9, 36, 0
1, 276959, Note_on_c, 9, 43, 0
1, 276960, Note_on_c, 9, 48, 127
1, 277199, Note_on_c, 9, 48, 0
1, 277200, Note_on_c, 9, 38, 43
1, 277319, Note_on_c, 9, 38, 0
1, 277320, Note_on_c, 9, 38, 43
1, 277439, Note_on_c, 9, 38, 0
1, 277440, Note_on_c, 9, 38, 127
1, 277440, Note_on_c, 9, 45, 127
1, 277440, Note_on_c, 9, 42, 127
1, 277440, Note_on_c, 9, 36, 127
1, 277453, Note_on_c, 9, 42, 0
1, 277679, Note_on_c, 9, 38, 0
1, 277679, Note_on_c, 9, 45, 0
1, 277680, Note_on_c, 9, 38, 127
1, 277919, Note_on_c, 9, 36, 0
1, 277919, Note_on_c, 9, 38, 0
1, 277920, Note_on_c, 9, 36, 127
1, 277920, Note_on_c, 9, 43, 127
1, 278399, Note_on_c, 9, 36, 0
1, 278399, Note_on_c, 9, 43, 0
1, 278400, Note_on_c, 9, 42, 127
1, 278400, Note_on_c, 9, 49, 87
1, 278400, Note_on_c, 9, 36, 127
1, 278413, Note_on_c, 9, 42, 0
1, 278413, Note_on_c, 9, 49, 0
1, 278640, Note_on_c, 9, 42, 43
1, 278653, Note_on_c, 9, 42, 0
1, 278879, Note_on_c, 9, 36, 0
1, 278880, Note_on_c, 9, 42, 43
1, 278893, Note_on_c, 9, 42, 0
1, 279120, Note_on_c, 9, 42, 43
1, 279133, Note_on_c, 9, 42, 0
1, 279360, Note_on_c, 9, 38, 127
1, 279360, Note_on_c, 9, 42, 127
1, 279373, Note_on_c, 9, 42, 0
1, 279599, Note_on_c, 9, 38, 0
1, 279600, Note_on_c, 9, 42, 43
1, 279613, Note_on_c, 9, 42, 0
1, 279840, Note_on_c, 9, 42, 43
1, 279853, Note_on_c, 9, 42, 0
1, 280080, Note_on_c, 9, 42, 43
1, 280080, Note_on_c, 9, 36, 127
1, 280093, Note_on_c, 9, 42, 0
1, 280319, Note_on_c, 9, 36, 0
1, 280320, Note_on_c, 9, 42, 127
1, 280320, Note_on_c, 9, 36, 127
1, 280333, Note_on_c, 9, 42, 0
1, 280560, Note_on_c, 9, 42, 43
1, 280573, Note_on_c, 9, 42, 0
1, 280799, Note_on_c, 9, 36, 0
1, 280800, Note_on_c, 9, 42, 43
1, 280800, Note_on_c, 9, 36, 127
1, 280813, Note_on_c, 9, 42, 0
1, 281040, Note_on_c, 9, 42, 43
1, 281053, Note_on_c, 9, 42, 0
1, 281279, Note_on_c, 9, 36, 0
1, 281280, Note_on_c, 9, 38, 127
1, 281280, Note_on_c, 9, 42, 127
1, 281293, Note_on_c, 9, 42, 0
1, 281519, Note_on_c, 9, 38, 0
1, 281520, Note_on_c, 9, 42, 43
1, 281520, Note_on_c, 9, 36, 127
1, 281533, Note_on_c, 9, 42, 0
1, 281759, Note_on_c, 9, 36, 0
1, 281760, Note_on_c, 9, 42, 43
1, 281773, Note_on_c, 9, 42, 0
1, 282000, Note_on_c, 9, 42, 43
1, 282000, Note_on_c, 9, 36, 127
1, 282013, Note_on_c, 9, 42, 0
1, 282239, Note_on_c, 9, 36, 0
1, 282240, Note_on_c, 9, 42, 127
1, 282240, Note_on_c, 9, 36, 127
1, 282253, Note_on_c, 9, 42, 0
1, 282480, Note_on_c, 9, 42, 43
1, 282493, Note_on_c, 9, 42, 0
1, 282719, Note_on_c, 9, 36, 0
1, 282720, Note_on_c, 9, 42, 43
1, 282733, Note_on_c, 9, 42, 0
1, 282960, Note_on_c, 9, 42, 43
1, 282973, Note_on_c, 9, 42, 0
1, 283200, Note_on_c, 9, 38, 127
1, 283200, Note_on_c, 9, 42, 127
1, 283213, Note_on_c, 9, 42, 0
1, 283439, Note_on_c, 9, 38, 0
1, 283440, Note_on_c, 9, 42, 43
1, 283453, Note_on_c, 9, 42, 0
1, 283680, Note_on_c, 9, 42, 43
1, 283693, Note_on_c, 9, 42, 0
1, 283920, Note_on_c, 9, 42, 43
1, 283920, Note_on_c, 9, 36, 127
1, 283933, Note_on_c, 9, 42, 0
1, 284159, Note_on_c, 9, 36, 0
1, 284160, Note_on_c, 9, 42, 127
1, 284160, Note_on_c, 9, 36, 127
1, 284173, Note_on_c, 9, 42, 0
1, 284400, Note_on_c, 9, 42, 43
1, 284413, Note_on_c, 9, 42, 0
1, 284639, Note_on_c, 9, 36, 0
1, 284640, Note_on_c, 9, 42, 43
1, 284640, Note_on_c, 9, 36, 127
1, 284653, Note_on_c, 9, 42, 0
1, 284879, Note_on_c, 9, 36, 0
1, 284880, Note_on_c, 9, 42, 43
1, 284880, Note_on_c, 9, 36, 127
1, 284893, Note_on_c, 9, 42, 0
1, 285119, Note_on_c, 9, 36, 0
1, 285120, Note_on_c, 9, 38, 127
1, 285120, Note_on_c, 9, 45, 127
1, 285120, Note_on_c, 9, 42, 127
1, 285133, Note_on_c, 9, 42, 0
1, 285359, Note_on_c, 9, 38, 0
1, 285359, Note_on_c, 9, 45, 0
1, 285360, Note_on_c, 9, 42, 43
1, 285360, Note_on_c, 9, 36, 127
1, 285373, Note_on_c, 9, 42, 0
1, 285599, Note_on_c, 9, 36, 0
1, 285600, Note_on_c, 9, 42, 43
1, 285600, Note_on_c, 9, 43, 127
1, 285613, Note_on_c, 9, 42, 0
1, 285839, Note_on_c, 9, 43, 0
1, 285840, Note_on_c, 9, 42, 43
1, 285840, Note_on_c, 9, 36, 127
1, 285853, Note_on_c, 9, 42, 0
1, 286079, Note_on_c, 9, 36, 0
1, 286080, Note_on_c, 9, 42, 127
1, 286080, Note_on_c, 9, 36, 127
1, 286093, Note_on_c, 9, 42, 0
1, 286320, Note_on_c, 9, 42, 43
1, 286333, Note_on_c, 9, 42, 0
1, 286559, Note_on_c, 9, 36, 0
1, 286560, Note_on_c, 9, 42, 43
1, 286573, Note_on_c, 9, 42, 0
1, 286800, Note_on_c, 9, 42, 43
1, 286813, Note_on_c, 9, 42, 0
1, 287040, Note_on_c, 9, 38, 127
1, 287040, Note_on_c, 9, 42, 127
1, 287053, Note_on_c, 9, 42, 0
1, 287279, Note_on_c, 9, 38, 0
1, 287280, Note_on_c, 9, 42, 43
1, 287293, Note_on_c, 9, 42, 0
1, 287520, Note_on_c, 9, 42, 43
1, 287533, Note_on_c, 9, 42, 0
1, 287760, Note_on_c, 9, 42, 43
1, 287760, Note_on_c, 9, 36, 127
1, 287773, Note_on_c, 9, 42, 0
1, 287999, Note_on_c, 9, 36, 0
1, 288000, Note_on_c, 9, 42, 127
1, 288000, Note_on_c, 9, 36, 127
1, 288013, Note_on_c, 9, 42, 0
1, 288240, Note_on_c, 9, 42, 43
1, 288253, Note_on_c, 9, 42, 0
1, 288479, Note_on_c, 9, 36, 0
1, 288480, Note_on_c, 9, 42, 43
1, 288480, Note_on_c, 9, 36, 127
1, 288493, Note_on_c, 9, 42, 0
1, 288720, Note_on_c, 9, 42, 43
1, 288733, Note_on_c, 9, 42, 0
1, 288959, Note_on_c, 9, 36, 0
1, 288960, Note_on_c, 9, 38, 127
1, 288960, Note_on_c, 9, 42, 127
1, 288973, Note_on_c, 9, 42, 0
1, 289199, Note_on_c, 9, 38, 0
1, 289200, Note_on_c, 9, 42, 43
1, 289200, Note_on_c, 9, 36, 127
1, 289213, Note_on_c, 9, 42, 0
1, 289439, Note_on_c, 9, 36, 0
1, 289440, Note_on_c, 9, 42, 43
1, 289453, Note_on_c, 9, 42, 0
1, 289680, Note_on_c, 9, 42, 43
1, 289680, Note_on_c, 9, 36, 127
1, 289693, Note_on_c, 9, 42, 0
1, 289919, Note_on_c, 9, 36, 0
1, 289920, Note_on_c, 9, 42, 127
1, 289920, Note_on_c, 9, 36, 127
1, 289933, Note_on_c, 9, 42, 0
1, 290160, Note_on_c, 9, 42, 43
1, 290173, Note_on_c, 9, 42, 0
1, 290399, Note_on_c, 9, 36, 0
1, 290400, Note_on_c, 9, 42, 43
1, 290413, Note_on_c, 9, 42, 0
1, 290640, Note_on_c, 9, 42, 43
1, 290653, Note_on_c, 9, 42, 0
1, 290880, Note_on_c, 9, 38, 127
1, 290880, Note_on_c, 9, 42, 127
1, 290893, Note_on_c, 9, 42, 0
1, 291119, Note_on_c, 9, 38, 0
1, 291120, Note_on_c, 9, 42, 43
1, 291133, Note_on_c, 9, 42, 0
1, 291360, Note_on_c, 9, 42, 43
1, 291373, Note_on_c, 9, 42, 0
1, 291600, Note_on_c, 9, 42, 43
1, 291600, Note_on_c, 9, 36, 127
1, 291613, Note_on_c, 9, 42, 0
1, 291839, Note_on_c, 9, 36, 0
1, 291840, Note_on_c, 9, 42, 127
1, 291840, Note_on_c, 9, 36, 127
1, 291853, Note_on_c, 9, 42, 0
1, 292080, Note_on_c, 9, 42, 43
1, 292093, Note_on_c, 9, 42, 0
1, 292319, Note_on_c, 9, 36, 0
1, 292320, Note_on_c, 9, 42, 43
1, 292320, Note_on_c, 9, 36, 127
1, 292333, Note_on_c, 9, 42, 0
1, 292560, Note_on_c, 9, 42, 43
1, 292573, Note_on_c, 9, 42, 0
1, 292799, Note_on_c, 9, 36, 0
1, 292800, Note_on_c, 9, 38, 127
1, 292800, Note_on_c, 9, 42, 127
1, 292813, Note_on_c, 9, 42, 0
1, 293039, Note_on_c, 9, 38, 0
1, 293040, Note_on_c, 9, 42, 43
1, 293040, Note_on_c, 9, 36, 127
1, 293053, Note_on_c, 9, 42, 0
1, 293279, Note_on_c, 9, 36, 0
1, 293280, Note_on_c, 9, 42, 43
1, 293293, Note_on_c, 9, 42, 0
1, 293520, Note_on_c, 9, 42, 43
1, 293520, Note_on_c, 9, 36, 127
1, 293533, Note_on_c, 9, 42, 0
1, 293759, Note_on_c, 9, 36, 0
1, 293760, Note_on_c, 9, 42, 127
1, 293760, Note_on_c, 9, 36, 127
1, 293773, Note_on_c, 9, 42, 0
1, 294000, Note_on_c, 9, 42, 43
1, 294013, Note_on_c, 9, 42, 0
1, 294239, Note_on_c, 9, 36, 0
1, 294240, Note_on_c, 9, 42, 43
1, 294253, Note_on_c, 9, 42, 0
1, 294480, Note_on_c, 9, 42, 43
1, 294493, Note_on_c, 9, 42, 0
1, 294720, Note_on_c, 9, 38, 127
1, 294720, Note_on_c, 9, 42, 127
1, 294733, Note_on_c, 9, 42, 0
1, 294959, Note_on_c, 9, 38, 0
1, 294960, Note_on_c, 9, 42, 43
1, 294973, Note_on_c, 9, 42, 0
1, 295200, Note_on_c, 9, 42, 43
1, 295213, Note_on_c, 9, 42, 0
1, 295440, Note_on_c, 9, 42, 43
1, 295440, Note_on_c, 9, 36, 127
1, 295453, Note_on_c, 9, 42, 0
1, 295679, Note_on_c, 9, 36, 0
1, 295680, Note_on_c, 9, 42, 127
1, 295680, Note_on_c, 9, 36, 127
1, 295693, Note_on_c, 9, 42, 0
1, 295920, Note_on_c, 9, 42, 43
1, 295933, Note_on_c, 9, 42, 0
1, 296159, Note_on_c, 9, 36, 0
1, 296160, Note_on_c, 9, 42, 43
1, 296160, Note_on_c, 9, 36, 127
1, 296173, Note_on_c, 9, 42, 0
1, 296400, Note_on_c, 9, 42, 43
1, 296413, Note_on_c, 9, 42, 0
1, 296639, Note_on_c, 9, 36, 0
1, 296640, Note_on_c, 9, 38, 127
1, 296640, Note_on_c, 9, 42, 127
1, 296653, Note_on_c, 9, 42, 0
1, 296879, Note_on_c, 9, 38, 0
1, 296880, Note_on_c, 9, 42, 43
1, 296880, Note_on_c, 9, 36, 127
1, 296893, Note_on_c, 9, 42, 0
1, 297119, Note_on_c, 9, 36, 0
1, 297120, Note_on_c, 9, 42, 43
1, 297133, Note_on_c, 9, 42, 0
1, 297360, Note_on_c, 9, 42, 43
1, 297360, Note_on_c, 9, 36, 127
1, 297373, Note_on_c, 9, 42, 0
1, 297599, Note_on_c, 9, 36, 0
1, 297600, Note_on_c, 9, 42, 127
1, 297600, Note_on_c, 9, 36, 127
1, 297613, Note_on_c, 9, 42, 0
1, 297840, Note_on_c, 9, 42, 43
1, 297853, Note_on_c, 9, 42, 0
1, 298079, Note_on_c, 9, 36, 0
1, 298080, Note_on_c, 9, 42, 43
1, 298093, Note_on_c, 9, 42, 0
1, 298320, Note_on_c, 9, 42, 43
1, 298333, Note_on_c, 9, 42, 0
1, 298560, Note_on_c, 9, 38, 127
1, 298560, Note_on_c, 9, 42, 127
1, 298573, Note_on_c, 9, 42, 0
1, 298799, Note_on_c, 9, 38, 0
1, 298800, Note_on_c, 9, 42, 43
1, 298813, Note_on_c, 9, 42, 0
1, 299040, Note_on_c, 9, 42, 43
1, 299053, Note_on_c, 9, 42, 0
1, 299280, Note_on_c, 9, 42, 43
1, 299280, Note_on_c, 9, 36, 127
1, 299293, Note_on_c, 9, 42, 0
1, 299519, Note_on_c, 9, 36, 0
1, 299520, Note_on_c, 9, 42, 127
1, 299520, Note_on_c, 9, 36, 127
1, 299533, Note_on_c, 9, 42, 0
1, 299760, Note_on_c, 9, 42, 43
1, 299773, Note_on_c, 9, 42, 0
1, 299999, Note_on_c, 9, 36, 0
1, 300000, Note_on_c, 9, 42, 43
1, 300000, Note_on_c, 9, 36, 127
1, 300013, Note_on_c, 9, 42, 0
1, 300240, Note_on_c, 9, 42, 43
1, 300253, Note_on_c, 9, 42, 0
1, 300479, Note_on_c, 9, 36, 0
1, 300480, Note_on_c, 9, 38, 127
1, 300480, Note_on_c, 9, 42, 127
1, 300493, Note_on_c, 9, 42, 0
1, 300719, Note_on_c, 9, 38, 0
1, 300720, Note_on_c, 9, 42, 43
1, 300720, Note_on_c, 9, 36, 127
1, 300733, Note_on_c, 9, 42, 0
1, 300959, Note_on_c, 9, 36, 0
1, 300960, Note_on_c, 9, 42, 43
1, 300973, Note_on_c, 9, 42, 0
1, 301200, Note_on_c, 9, 42, 43
1, 301200, Note_on_c, 9, 36, 127
1, 301213, Note_on_c, 9, 42, 0
1, 301439, Note_on_c, 9, 36, 0
1, 301440, Note_on_c, 9, 42, 127
1, 301440, Note_on_c, 9, 36, 127
1, 301453, Note_on_c, 9, 42, 0
1, 301680, Note_on_c, 9, 42, 43
1, 301693, Note_on_c, 9, 42, 0
1, 301919, Note_on_c, 9, 36, 0
1, 301920, Note_on_c, 9, 42, 43
1, 301933, Note_on_c, 9, 42, 0
1, 302160, Note_on_c, 9, 42, 43
1, 302173, Note_on_c, 9, 42, 0
1, 302400, Note_on_c, 9, 38, 127
1, 302400, Note_on_c, 9, 42, 127
1, 302413, Note_on_c, 9, 42, 0
1, 302639, Note_on_c, 9, 38, 0
1, 302640, Note_on_c, 9, 42, 43
1, 302653, Note_on_c, 9, 42, 0
1, 302880, Note_on_c, 9, 42, 43
1, 302893, Note_on_c, 9, 42, 0
1, 303120, Note_on_c, 9, 42, 43
1, 303120, Note_on_c, 9, 36, 127
1, 303133, Note_on_c, 9, 42, 0
1, 303359, Note_on_c, 9, 36, 0
1, 303360, Note_on_c, 9, 42, 127
1, 303360, Note_on_c, 9, 36, 127
1, 303373, Note_on_c, 9, 42, 0
1, 303600, Note_on_c, 9, 42, 43
1, 303613, Note_on_c, 9, 42, 0
1, 303839, Note_on_c, 9, 36, 0
1, 303840, Note_on_c, 9, 42, 43
1, 303840, Note_on_c, 9, 36, 127
1, 303853, Note_on_c, 9, 42, 0
1, 304080, Note_on_c, 9, 42, 43
1, 304093, Note_on_c, 9, 42, 0
1, 304319, Note_on_c, 9, 36, 0
1, 304320, Note_on_c, 9, 38, 127
1, 304320, Note_on_c, 9, 42, 127
1, 304333, Note_on_c, 9, 42, 0
1, 304559, Note_on_c, 9, 38, 0
1, 304560, Note_on_c, 9, 42, 43
1, 304560, Note_on_c, 9, 36, 127
1, 304573, Note_on_c, 9, 42, 0
1, 304799, Note_on_c, 9, 36, 0
1, 304800, Note_on_c, 9, 42, 43
1, 304813, Note_on_c, 9, 42, 0
1, 305040, Note_on_c, 9, 42, 43
1, 305040, Note_on_c, 9, 36, 127
1, 305053, Note_on_c, 9, 42, 0
1, 305279, Note_on_c, 9, 36, 0
1, 305280, Note_on_c, 9, 42, 127
1, 305280, Note_on_c, 9, 36, 127
1, 305293, Note_on_c, 9, 42, 0
1, 305520, Note_on_c, 9, 42, 43
1, 305533, Note_on_c, 9, 42, 0
1, 305759, Note_on_c, 9, 36, 0
1, 305760, Note_on_c, 9, 42, 43
1, 305773, Note_on_c, 9, 42, 0
1, 306000, Note_on_c, 9, 42, 43
1, 306013, Note_on_c, 9, 42, 0
1, 306240, Note_on_c, 9, 38, 127
1, 306240, Note_on_c, 9, 42, 127
1, 306253, Note_on_c, 9, 42, 0
1, 306479, Note_on_c, 9, 38, 0
1, 306480, Note_on_c, 9, 42, 43
1, 306480, Note_on_c, 9, 36, 127
1, 306493, Note_on_c, 9, 42, 0
1, 306719, Note_on_c, 9, 36, 0
1, 306720, Note_on_c, 9, 42, 43
1, 306733, Note_on_c, 9, 42, 0
1, 306960, Note_on_c, 9, 42, 43
1, 306960, Note_on_c, 9, 36, 127
1, 306973, Note_on_c, 9, 42, 0
1, 307199, Note_on_c, 9, 36, 0
1, 307200, Note_on_c, 9, 38, 127
1, 307200, Note_on_c, 9, 46, 127
1, 307200, Note_on_c, 9, 48, 127
1, 307200, Note_on_c, 9, 36, 127
1, 307213, Note_on_c, 9, 46, 0
1, 307439, Note_on_c, 9, 38, 0
1, 307439, Note_on_c, 9, 48, 0
1, 307440, Note_on_c, 9, 38, 127
1, 307440, Note_on_c, 9, 45, 127
1, 307440, Note_on_c, 9, 42, 127
1, 307453, Note_on_c, 9, 42, 0
1, 307679, Note_on_c, 9, 36, 0
1, 307679, Note_on_c, 9, 38, 0
1, 307679, Note_on_c, 9, 45, 0
1, 307680, Note_on_c, 9, 38, 127
1, 307680, Note_on_c, 9, 46, 127
1, 307680, Note_on_c, 9, 43, 127
1, 307707, Note_on_c, 9, 46, 0
1, 308159, Note_on_c, 9, 38, 0
1, 308159, Note_on_c, 9, 43, 0
1, 308880, Note_on_c, 9, 42, 127
1, 308880, Note_on_c, 9, 36, 127
1, 308893, Note_on_c, 9, 42, 0
1, 309119, Note_on_c, 9, 36, 0
1, 309120, Note_on_c, 9, 42, 127
1, 309120, Note_on_c, 9, 49, 87
1, 309120, Note_on_c, 9, 36, 127
1, 309133, Note_on_c, 9, 42, 0
1, 309133, Note_on_c, 9, 49, 0
1, 309360, Note_on_c, 9, 42, 43
1, 309373, Note_on_c, 9, 42, 0
1, 309599, Note_on_c, 9, 36, 0
1, 309600, Note_on_c, 9, 42, 43
1, 309613, Note_on_c, 9, 42, 0
1, 309840, Note_on_c, 9, 42, 43
1, 309853, Note_on_c, 9, 42, 0
1, 310080, Note_on_c, 9, 38, 127
1, 310080, Note_on_c, 9, 42, 127
1, 310093, Note_on_c, 9, 42, 0
1, 310319, Note_on_c, 9, 38, 0
1, 310320, Note_on_c, 9, 42, 43
1, 310333, Note_on_c, 9, 42, 0
1, 310560, Note_on_c, 9, 42, 43
1, 310573, Note_on_c, 9, 42, 0
1, 310800, Note_on_c, 9, 42, 43
1, 310800, Note_on_c, 9, 36, 127
1, 310813, Note_on_c, 9, 42, 0
1, 311039, Note_on_c, 9, 36, 0
1, 311040, Note_on_c, 9, 42, 127
1, 311040, Note_on_c, 9, 36, 127
1, 311053, Note_on_c, 9, 42, 0
1, 311280, Note_on_c, 9, 42, 43
1, 311293, Note_on_c, 9, 42, 0
1, 311519, Note_on_c, 9, 36, 0
1, 311520, Note_on_c, 9, 42, 43
1, 311520, Note_on_c, 9, 36, 127
1, 311533, Note_on_c, 9, 42, 0
1, 311760, Note_on_c, 9, 42, 43
1, 311773, Note_on_c, 9, 42, 0
1, 311999, Note_on_c, 9, 36, 0
1, 312000, Note_on_c, 9, 38, 127
1, 312000, Note_on_c, 9, 42, 127
1, 312013, Note_on_c, 9, 42, 0
1, 312239, Note_on_c, 9, 38, 0
1, 312240, Note_on_c, 9, 42, 43
1, 312240, Note_on_c, 9, 36, 127
1, 312253, Note_on_c, 9, 42, 0
1, 312479, Note_on_c, 9, 36, 0
1, 312480, Note_on_c, 9, 42, 43
1, 312493, Note_on_c, 9, 42, 0
1, 312720, Note_on_c, 9, 42, 43
1, 312720, Note_on_c, 9, 36, 127
1, 312733, Note_on_c, 9, 42, 0
1, 312959, Note_on_c, 9, 36, 0
1, 312960, Note_on_c, 9, 42, 127
1, 312960, Note_on_c, 9, 36, 127
1, 312973, Note_on_c, 9, 42, 0
1, 313200, Note_on_c, 9, 42, 43
1, 313213, Note_on_c, 9, 42, 0
1, 313439, Note_on_c, 9, 36, 0
1, 313440, Note_on_c, 9, 42, 43
1, 313453, Note_on_c, 9, 42, 0
1, 313680, Note_on_c, 9, 42, 43
1, 313693, Note_on_c, 9, 42, 0
1, 313920, Note_on_c, 9, 38, 127
1, 313920, Note_on_c, 9, 42, 127
1, 313933, Note_on_c, 9, 42, 0
1, 314159, Note_on_c, 9, 38, 0
1, 314160, Note_on_c, 9, 42, 43
1, 314173, Note_on_c, 9, 42, 0
1, 314400, Note_on_c, 9, 42, 43
1, 314413, Note_on_c, 9, 42, 0
1, 314640, Note_on_c, 9, 42, 43
1, 314640, Note_on_c, 9, 36, 127
1, 314653, Note_on_c, 9, 42, 0
1, 314879, Note_on_c, 9, 36, 0
1, 314880, Note_on_c, 9, 42, 127
1, 314880, Note_on_c, 9, 36, 127
1, 314893, Note_on_c, 9, 42, 0
1, 315120, Note_on_c, 9, 42, 43
1, 315133, Note_on_c, 9, 42, 0
1, 315359, Note_on_c, 9, 36, 0
1, 315360, Note_on_c, 9, 42, 43
1, 315360, Note_on_c, 9, 36, 127
1, 315373, Note_on_c, 9, 42, 0
1, 315599, Note_on_c, 9, 36, 0
1, 315600, Note_on_c, 9, 42, 43
1, 315600, Note_on_c, 9, 36, 127
1, 315613, Note_on_c, 9, 42, 0
1, 315839, Note_on_c, 9, 36, 0
1, 315840, Note_on_c, 9, 38, 127
1, 315840, Note_on_c, 9, 45, 127
1, 315840, Note_on_c, 9, 42, 127
1, 315853, Note_on_c, 9, 42, 0
1, 316079, Note_on_c, 9, 38, 0
1, 316079, Note_on_c, 9, 45, 0
1, 316080, Note_on_c, 9, 42, 43
1, 316080, Note_on_c, 9, 36, 127
1, 316093, Note_on_c, 9, 42, 0
1, 316319, Note_on_c, 9, 36, 0
1, 316320, Note_on_c, 9, 42, 43
1, 316320, Note_on_c, 9, 43, 127
1, 316333, Note_on_c, 9, 42, 0
1, 316559, Note_on_c, 9, 43, 0
1, 316560, Note_on_c, 9, 42, 43
1, 316560, Note_on_c, 9, 36, 127
1, 316573, Note_on_c, 9, 42, 0
1, 316799, Note_on_c, 9, 36, 0
1, 316800, Note_on_c, 9, 42, 127
1, 316800, Note_on_c, 9, 36, 127
1, 316813, Note_on_c, 9, 42, 0
1, 317040, Note_on_c, 9, 42, 43
1, 317053, Note_on_c, 9, 42, 0
1, 317279, Note_on_c, 9, 36, 0
1, 317280, Note_on_c, 9, 42, 43
1, 317293, Note_on_c, 9, 42, 0
1, 317520, Note_on_c, 9, 42, 43
1, 317533, Note_on_c, 9, 42, 0
1, 317760, Note_on_c, 9, 38, 127
1, 317760, Note_on_c, 9, 42, 127
1, 317773, Note_on_c, 9, 42, 0
1, 317999, Note_on_c, 9, 38, 0
1, 318000, Note_on_c, 9, 42, 43
1, 318013, Note_on_c, 9, 42, 0
1, 318240, Note_on_c, 9, 42, 43
1, 318253, Note_on_c, 9, 42, 0
1, 318480, Note_on_c, 9, 42, 43
1, 318480, Note_on_c, 9, 36, 127
1, 318493, Note_on_c, 9, 42, 0
1, 318719, Note_on_c, 9, 36, 0
1, 318720, Note_on_c, 9, 42, 127
1, 318720, Note_on_c, 9, 36, 127
1, 318733, Note_on_c, 9, 42, 0
1, 318960, Note_on_c, 9, 42, 43
1, 318973, Note_on_c, 9, 42, 0
1, 319199, Note_on_c, 9, 36, 0
1, 319200, Note_on_c, 9, 42, 43
1, 319200, Note_on_c, 9, 36, 127
1, 319213, Note_on_c, 9, 42, 0
1, 319440, Note_on_c, 9, 42, 43
1, 319453, Note_on_c, 9, 42, 0
1, 319679, Note_on_c, 9, 36, 0
1, 319680, Note_on_c, 9, 38, 127
1, 319680, Note_on_c, 9, 42, 127
1, 319693, Note_on_c, 9, 42, 0
1, 319919, Note_on_c, 9, 38, 0
1, 319920, Note_on_c, 9, 42, 43
1, 319920, Note_on_c, 9, 36, 127
1, 319933, Note_on_c, 9, 42, 0
1, 320159, Note_on_c, 9, 36, 0
1, 320160, Note_on_c, 9, 42, 43
1, 320173, Note_on_c, 9, 42, 0
1, 320400, Note_on_c, 9, 42, 43
1, 320400, Note_on_c, 9, 36, 127
1, 320413, Note_on_c, 9, 42, 0
1, 320639, Note_on_c, 9, 36, 0
1, 320640, Note_on_c, 9, 42, 127
1, 320640, Note_on_c, 9, 36, 127
1, 320653, Note_on_c, 9, 42, 0
1, 320880, Note_on_c, 9, 42, 43
1, 320893, Note_on_c, 9, 42, 0
1, 321119, Note_on_c, 9, 36, 0
1, 321120, Note_on_c, 9, 42, 43
1, 321133, Note_on_c, 9, 42, 0
1, 321360, Note_on_c, 9, 42, 43
1, 321373, Note_on_c, 9, 42, 0
1, 321600, Note_on_c, 9, 38, 127
1, 321600, Note_on_c, 9, 42, 127
1, 321613, Note_on_c, 9, 42, 0
1, 321839, Note_on_c, 9, 38, 0
1, 321840, Note_on_c, 9, 42, 43
1, 321853, Note_on_c, 9, 42, 0
1, 322080, Note_on_c, 9, 42, 43
1, 322093, Note_on_c, 9, 42, 0
1, 322320, Note_on_c, 9, 42, 43
1, 322320, Note_on_c, 9, 36, 127
1, 322333, Note_on_c, 9, 42, 0
1, 322559, Note_on_c, 9, 36, 0
1, 322560, Note_on_c, 9, 42, 127
1, 322560, Note_on_c, 9, 36, 127
1, 322573, Note_on_c, 9, 42, 0
1, 322800, Note_on_c, 9, 42, 43
1, 322806, Note_on_c, 9, 42, 0
1, 322920, Note_on_c, 9, 38, 25
1, 323039, Note_on_c, 9, 36, 0
1, 323039, Note_on_c, 9, 38, 0
1, 323040, Note_on_c, 9, 38, 127
1, 323040, Note_on_c, 9, 42, 43
1, 323040, Note_on_c, 9, 36, 127
1, 323053, Note_on_c, 9, 42, 0
1, 323279, Note_on_c, 9, 38, 0
1, 323280, Note_on_c, 9, 38, 43
1, 323280, Note_on_c, 9, 42, 43
1, 323293, Note_on_c, 9, 42, 0
1, 323519, Note_on_c, 9, 36, 0
1, 323519, Note_on_c, 9, 38, 0
1, 323520, Note_on_c, 9, 38, 127
1, 323520, Note_on_c, 9, 45, 127
1, 323520, Note_on_c, 9, 42, 127
1, 323533, Note_on_c, 9, 42, 0
1, 323759, Note_on_c, 9, 38, 0
1, 323759, Note_on_c, 9, 45, 0
1, 323760, Note_on_c, 9, 38, 127
1, 323760, Note_on_c, 9, 42, 43
1, 323760, Note_on_c, 9, 36, 127
1, 323773, Note_on_c, 9, 42, 0
1, 323999, Note_on_c, 9, 38, 0
1, 323999, Note_on_c, 9, 36, 0
1, 324000, Note_on_c, 9, 42, 43
1, 324000, Note_on_c, 9, 43, 127
1, 324013, Note_on_c, 9, 42, 0
1, 324239, Note_on_c, 9, 43, 0
1, 324240, Note_on_c, 9, 38, 127
1, 324240, Note_on_c, 9, 42, 43
1, 324240, Note_on_c, 9, 36, 127
1, 324253, Note_on_c, 9, 42, 0
1, 324479, Note_on_c, 9, 38, 0
1, 324479, Note_on_c, 9, 36, 0
1, 324480, Note_on_c, 9, 42, 127
1, 324480, Note_on_c, 9, 49, 87
1, 324480, Note_on_c, 9, 36, 127
1, 324493, Note_on_c, 9, 42, 0
1, 324493, Note_on_c, 9, 49, 0
1, 324720, Note_on_c, 9, 42, 43
1, 324733, Note_on_c, 9, 42, 0
1, 324959, Note_on_c, 9, 36, 0
1, 324960, Note_on_c, 9, 42, 43
1, 324973, Note_on_c, 9, 42, 0
1, 325200, Note_on_c, 9, 42, 43
1, 325213, Note_on_c, 9, 42, 0
1, 325440, Note_on_c, 9, 38, 127
1, 325440, Note_on_c, 9, 42, 127
1, 325453, Note_on_c, 9, 42, 0
1, 325679, Note_on_c, 9, 38, 0
1, 325680, Note_on_c, 9, 42, 43
1, 325693, Note_on_c, 9, 42, 0
1, 325920, Note_on_c, 9, 42, 43
1, 325933, Note_on_c, 9, 42, 0
1, 326160, Note_on_c, 9, 42, 43
1, 326160, Note_on_c, 9, 36, 127
1, 326173, Note_on_c, 9, 42, 0
1, 326399, Note_on_c, 9, 36, 0
1, 326400, Note_on_c, 9, 42, 127
1, 326400, Note_on_c, 9, 36, 127
1, 326413, Note_on_c, 9, 42, 0
1, 326640, Note_on_c, 9, 42, 43
1, 326653, Note_on_c, 9, 42, 0
1, 326879, Note_on_c, 9, 36, 0
1, 326880, Note_on_c, 9, 42, 43
1, 326880, Note_on_c, 9, 36, 127
1, 326893, Note_on_c, 9, 42, 0
1, 327120, Note_on_c, 9, 42, 43
1, 327133, Note_on_c, 9, 42, 0
1, 327359, Note_on_c, 9, 36, 0
1, 327360, Note_on_c, 9, 38, 127
1, 327360, Note_on_c, 9, 42, 127
1, 327373, Note_on_c, 9, 42, 0
1, 327599, Note_on_c, 9, 38, 0
1, 327600, Note_on_c, 9, 42, 43
1, 327600, Note_on_c, 9, 36, 127
1, 327613, Note_on_c, 9, 42, 0
1, 327839, Note_on_c, 9, 36, 0
1, 327840, Note_on_c, 9, 42, 43
1, 327853, Note_on_c, 9, 42, 0
1, 328080, Note_on_c, 9, 42, 43
1, 328080, Note_on_c, 9, 36, 127
1, 328093, Note_on_c, 9, 42, 0
1, 328319, Note_on_c, 9, 36, 0
1, 328320, Note_on_c, 9, 42, 127
1, 328320, Note_on_c, 9, 36, 127
1, 328333, Note_on_c, 9, 42, 0
1, 328560, Note_on_c, 9, 42, 43
1, 328573, Note_on_c, 9, 42, 0
1, 328799, Note_on_c, 9, 36, 0
1, 328800, Note_on_c, 9, 42, 43
1, 328813, Note_on_c, 9, 42, 0
1, 329040, Note_on_c, 9, 42, 43
1, 329053, Note_on_c, 9, 42, 0
1, 329280, Note_on_c, 9, 38, 127
1, 329280, Note_on_c, 9, 42, 127
1, 329293, Note_on_c, 9, 42, 0
1, 329519, Note_on_c, 9, 38, 0
1, 329520, Note_on_c, 9, 42, 43
1, 329533, Note_on_c, 9, 42, 0
1, 329760, Note_on_c, 9, 42, 43
1, 329773, Note_on_c, 9, 42, 0
1, 330000, Note_on_c, 9, 42, 43
1, 330000, Note_on_c, 9, 36, 127
1, 330013, Note_on_c, 9, 42, 0
1, 330239, Note_on_c, 9, 36, 0
1, 330240, Note_on_c, 9, 42, 127
1, 330240, Note_on_c, 9, 36, 127
1, 330253, Note_on_c, 9, 42, 0
1, 330480, Note_on_c, 9, 42, 43
1, 330493, Note_on_c, 9, 42, 0
1, 330719, Note_on_c, 9, 36, 0
1, 330720, Note_on_c, 9, 42, 43
1, 330720, Note_on_c, 9, 36, 127
1, 330733, Note_on_c, 9, 42, 0
1, 330959, Note_on_c, 9, 36, 0
1, 330960, Note_on_c, 9, 42, 43
1, 330960, Note_on_c, 9, 36, 127
1, 330973, Note_on_c, 9, 42, 0
1, 331199, Note_on_c, 9, 36, 0
1, 331200, Note_on_c, 9, 38, 127
1, 331200, Note_on_c, 9, 45, 127
1, 331200, Note_on_c, 9, 42, 127
1, 331213, Note_on_c, 9, 42, 0
1, 331439, Note_on_c, 9, 38, 0
1, 331439, Note_on_c, 9, 45, 0
1, 331440, Note_on_c, 9, 42, 43
1, 331440, Note_on_c, 9, 36, 127
1, 331453, Note_on_c, 9, 42, 0
1, 331679, Note_on_c, 9, 36, 0
1, 331680, Note_on_c, 9, 42, 43
1, 331680, Note_on_c, 9, 43, 127
1, 331693, Note_on_c, 9, 42, 0
1, 331919, Note_on_c, 9, 43, 0
1, 331920, Note_on_c, 9, 42, 43
1, 331920, Note_on_c, 9, 36, 127
1, 331933, Note_on_c, 9, 42, 0
1, 332159, Note_on_c, 9, 36, 0
1, 332160, Note_on_c, 9, 42, 127
1, 332160, Note_on_c, 9, 36, 127
1, 332173, Note_on_c, 9, 42, 0
1, 332400, Note_on_c, 9, 42, 43
1, 332413, Note_on_c, 9, 42, 0
1, 332639, Note_on_c, 9, 36, 0
1, 332640, Note_on_c, 9, 42, 43
1, 332653, Note_on_c, 9, 42, 0
1, 332880, Note_on_c, 9, 42, 43
1, 332893, Note_on_c, 9, 42, 0
1, 333120, Note_on_c, 9, 38, 127
1, 333120, Note_on_c, 9, 42, 127
1, 333133, Note_on_c, 9, 42, 0
1, 333359, Note_on_c, 9, 38, 0
1, 333360, Note_on_c, 9, 42, 43
1, 333373, Note_on_c, 9, 42, 0
1, 333600, Note_on_c, 9, 42, 43
1, 333613, Note_on_c, 9, 42, 0
1, 333840, Note_on_c, 9, 42, 43
1, 333840, Note_on_c, 9, 36, 127
1, 333853, Note_on_c, 9, 42, 0
1, 334079, Note_on_c, 9, 36, 0
1, 334080, Note_on_c, 9, 42, 127
1, 334080, Note_on_c, 9, 36, 127
1, 334093, Note_on_c, 9, 42, 0
1, 334320, Note_on_c, 9, 42, 43
1, 334333, Note_on_c, 9, 42, 0
1, 334559, Note_on_c, 9, 36, 0
1, 334560, Note_on_c, 9, 42, 43
1, 334560, Note_on_c, 9, 36, 127
1, 334573, Note_on_c, 9, 42, 0
1, 334800, Note_on_c, 9, 42, 43
1, 334813, Note_on_c, 9, 42, 0
1, 335039, Note_on_c, 9, 36, 0
1, 335040, Note_on_c, 9, 38, 127
1, 335040, Note_on_c, 9, 42, 127
1, 335053, Note_on_c, 9, 42, 0
1, 335279, Note_on_c, 9, 38, 0
1, 335280, Note_on_c, 9, 42, 43
1, 335280, Note_on_c, 9, 36, 127
1, 335293, Note_on_c, 9, 42, 0
1, 335519, Note_on_c, 9, 36, 0
1, 335520, Note_on_c, 9, 42, 43
1, 335533, Note_on_c, 9, 42, 0
1, 335760, Note_on_c, 9, 42, 43
1, 335760, Note_on_c, 9, 36, 127
1, 335773, Note_on_c, 9, 42, 0
1, 335999, Note_on_c, 9, 36, 0
1, 336000, Note_on_c, 9, 42, 127
1, 336000, Note_on_c, 9, 36, 127
1, 336013, Note_on_c, 9, 42, 0
1, 336240, Note_on_c, 9, 42, 43
1, 336253, Note_on_c, 9, 42, 0
1, 336479, Note_on_c, 9, 36, 0
1, 336480, Note_on_c, 9, 42, 43
1, 336493, Note_on_c, 9, 42, 0
1, 336720, Note_on_c, 9, 42, 43
1, 336733, Note_on_c, 9, 42, 0
1, 336960, Note_on_c, 9, 38, 127
1, 336960, Note_on_c, 9, 42, 127
1, 336973, Note_on_c, 9, 42, 0
1, 337199, Note_on_c, 9, 38, 0
1, 337200, Note_on_c, 9, 42, 43
1, 337213, Note_on_c, 9, 42, 0
1, 337440, Note_on_c, 9, 42, 43
1, 337453, Note_on_c, 9, 42, 0
1, 337680, Note_on_c, 9, 42, 43
1, 337680, Note_on_c, 9, 36, 127
1, 337693, Note_on_c, 9, 42, 0
1, 337919, Note_on_c, 9, 36, 0
1, 337920, Note_on_c, 9, 42, 127
1, 337920, Note_on_c, 9, 36, 127
1, 337933, Note_on_c, 9, 42, 0
1, 338160, Note_on_c, 9, 42, 43
1, 338173, Note_on_c, 9, 42, 0
1, 338399, Note_on_c, 9, 36, 0
1, 338400, Note_on_c, 9, 42, 43
1, 338400, Note_on_c, 9, 36, 127
1, 338413, Note_on_c, 9, 42, 0
1, 338640, Note_on_c, 9, 38, 127
1, 338640, Note_on_c, 9, 42, 43
1, 338653, Note_on_c, 9, 42, 0
1, 338879, Note_on_c, 9, 36, 0
1, 338879, Note_on_c, 9, 38, 0
1, 338880, Note_on_c, 9, 38, 25
1, 338880, Note_on_c, 9, 42, 127
1, 338893, Note_on_c, 9, 42, 0
1, 339119, Note_on_c, 9, 38, 0
1, 339120, Note_on_c, 9, 38, 25
1, 339120, Note_on_c, 9, 42, 43
1, 339120, Note_on_c, 9, 36, 127
1, 339133, Note_on_c, 9, 42, 0
1, 339359, Note_on_c, 9, 38, 0
1, 339359, Note_on_c, 9, 36, 0
1, 339360, Note_on_c, 9, 38, 127
1, 339360, Note_on_c, 9, 42, 43
1, 339373, Note_on_c, 9, 42, 0
1, 339599, Note_on_c, 9, 38, 0
1, 339600, Note_on_c, 9, 38, 127
1, 339600, Note_on_c, 9, 42, 43
1, 339600, Note_on_c, 9, 36, 127
1, 339613, Note_on_c, 9, 42, 0
1, 339839, Note_on_c, 9, 38, 0
1, 339839, Note_on_c, 9, 36, 0
1, 339840, Note_on_c, 9, 51, 127
1, 339840, Note_on_c, 9, 42, 127
1, 339840, Note_on_c, 9, 49, 87
1, 339840, Note_on_c, 9, 36, 127
1, 339853, Note_on_c, 9, 51, 0
1, 339853, Note_on_c, 9, 42, 0
1, 339853, Note_on_c, 9, 49, 0
1, 340080, Note_on_c, 9, 42, 43
1, 340093, Note_on_c, 9, 42, 0
1, 340319, Note_on_c, 9, 36, 0
1, 340320, Note_on_c, 9, 51, 127
1, 340320, Note_on_c, 9, 42, 43
1, 340333, Note_on_c, 9, 51, 0
1, 340333, Note_on_c, 9, 42, 0
1, 340560, Note_on_c, 9, 42, 43
1, 340573, Note_on_c, 9, 42, 0
1, 340800, Note_on_c, 9, 38, 127
1, 340800, Note_on_c, 9, 51, 127
1, 340800, Note_on_c, 9, 42, 127
1, 340813, Note_on_c, 9, 51, 0
1, 340813, Note_on_c, 9, 42, 0
1, 341039, Note_on_c, 9, 38, 0
1, 341040, Note_on_c, 9, 42, 43
1, 341053, Note_on_c, 9, 42, 0
1, 341280, Note_on_c, 9, 51, 127
1, 341280, Note_on_c, 9, 42, 43
1, 341293, Note_on_c, 9, 51, 0
1, 341293, Note_on_c, 9, 42, 0
1, 341520, Note_on_c, 9, 42, 43
1, 341520, Note_on_c, 9, 36, 127
1, 341533, Note_on_c, 9, 42, 0
1, 341759, Note_on_c, 9, 36, 0
1, 341760, Note_on_c, 9, 51, 127
1, 341760, Note_on_c, 9, 42, 127
1, 341760, Note_on_c, 9, 36, 127
1, 341773, Note_on_c, 9, 51, 0
1, 341773, Note_on_c, 9, 42, 0
1, 342000, Note_on_c, 9, 42, 43
1, 342013, Note_on_c, 9, 42, 0
1, 342239, Note_on_c, 9, 36, 0
1, 342240, Note_on_c, 9, 51, 127
1, 342240, Note_on_c, 9, 42, 43
1, 342240, Note_on_c, 9, 36, 127
1, 342253, Note_on_c, 9, 51, 0
1, 342253, Note_on_c, 9, 42, 0
1, 342480, Note_on_c, 9, 42, 43
1, 342493, Note_on_c, 9, 42, 0
1, 342719, Note_on_c, 9, 36, 0
1, 342720, Note_on_c, 9, 38, 127
1, 342720, Note_on_c, 9, 51, 127
1, 342720, Note_on_c, 9, 42, 127
1, 342733, Note_on_c, 9, 51, 0
1, 342733, Note_on_c, 9, 42, 0
1, 342959, Note_on_c, 9, 38, 0
1, 342960, Note_on_c, 9, 42, 43
1, 342960, Note_on_c, 9, 36, 127
1, 342973, Note_on_c, 9, 42, 0
1, 343199, Note_on_c, 9, 36, 0
1, 343200, Note_on_c, 9, 51, 127
1, 343200, Note_on_c, 9, 42, 43
1, 343213, Note_on_c, 9, 51, 0
1, 343213, Note_on_c, 9, 42, 0
1, 343440, Note_on_c, 9, 42, 43
1, 343440, Note_on_c, 9, 36, 127
1, 343453, Note_on_c, 9, 42, 0
1, 343679, Note_on_c, 9, 36, 0
1, 343680, Note_on_c, 9, 51, 127
1, 343680, Note_on_c, 9, 42, 127
1, 343680, Note_on_c, 9, 36, 127
1, 343693, Note_on_c, 9, 51, 0
1, 343693, Note_on_c, 9, 42, 0
1, 343920, Note_on_c, 9, 42, 43
1, 343933, Note_on_c, 9, 42, 0
1, 344159, Note_on_c, 9, 36, 0
1, 344160, Note_on_c, 9, 51, 127
1, 344160, Note_on_c, 9, 42, 43
1, 344173, Note_on_c, 9, 51, 0
1, 344173, Note_on_c, 9, 42, 0
1, 344400, Note_on_c, 9, 42, 43
1, 344413, Note_on_c, 9, 42, 0
1, 344640, Note_on_c, 9, 38, 127
1, 344640, Note_on_c, 9, 51, 127
1, 344640, Note_on_c, 9, 42, 127
1, 344653, Note_on_c, 9, 51, 0
1, 344653, Note_on_c, 9, 42, 0
1, 344879, Note_on_c, 9, 38, 0
1, 344880, Note_on_c, 9, 42, 43
1, 344893, Note_on_c, 9, 42, 0
1, 345120, Note_on_c, 9, 51, 127
1, 345120, Note_on_c, 9, 42, 43
1, 345133, Note_on_c, 9, 51, 0
1, 345133, Note_on_c, 9, 42, 0
1, 345360, Note_on_c, 9, 42, 43
1, 345360, Note_on_c, 9, 36, 127
1, 345373, Note_on_c, 9, 42, 0
1, 345599, Note_on_c, 9, 36, 0
1, 345600, Note_on_c, 9, 51, 127
1, 345600, Note_on_c, 9, 42, 127
1, 345600, Note_on_c, 9, 36, 127
1, 345613, Note_on_c, 9, 51, 0
1, 345613, Note_on_c, 9, 42, 0
1, 345840, Note_on_c, 9, 42, 43
1, 345853, Note_on_c, 9, 42, 0
1, 346079, Note_on_c, 9, 36, 0
1, 346080, Note_on_c, 9, 51, 127
1, 346080, Note_on_c, 9, 42, 43
1, 346080, Note_on_c, 9, 36, 127
1, 346093, Note_on_c, 9, 51, 0
1, 346093, Note_on_c, 9, 42, 0
1, 346320, Note_on_c, 9, 42, 43
1, 346333, Note_on_c, 9, 42, 0
1, 346559, Note_on_c, 9, 36, 0
1, 346560, Note_on_c, 9, 38, 127
1, 346560, Note_on_c, 9, 51, 127
1, 346560, Note_on_c, 9, 42, 127
1, 346573, Note_on_c, 9, 51, 0
1, 346573, Note_on_c, 9, 42, 0
1, 346799, Note_on_c, 9, 38, 0
1, 346800, Note_on_c, 9, 42, 43
1, 346800, Note_on_c, 9, 36, 127
1, 346813, Note_on_c, 9, 42, 0
1, 347039, Note_on_c, 9, 36, 0
1, 347040, Note_on_c, 9, 51, 127
1, 347040, Note_on_c, 9, 42, 43
1, 347053, Note_on_c, 9, 51, 0
1, 347053, Note_on_c, 9, 42, 0
1, 347280, Note_on_c, 9, 42, 43
1, 347280, Note_on_c, 9, 36, 127
1, 347293, Note_on_c, 9, 42, 0
1, 347519, Note_on_c, 9, 36, 0
1, 347520, Note_on_c, 9, 51, 127
1, 347520, Note_on_c, 9, 42, 127
1, 347520, Note_on_c, 9, 36, 127
1, 347533, Note_on_c, 9, 51, 0
1, 347533, Note_on_c, 9, 42, 0
1, 347760, Note_on_c, 9, 42, 43
1, 347773, Note_on_c, 9, 42, 0
1, 347999, Note_on_c, 9, 36, 0
1, 348000, Note_on_c, 9, 51, 127
1, 348000, Note_on_c, 9, 42, 43
1, 348013, Note_on_c, 9, 51, 0
1, 348013, Note_on_c, 9, 42, 0
1, 348240, Note_on_c, 9, 42, 43
1, 348253, Note_on_c, 9, 42, 0
1, 348480, Note_on_c, 9, 38, 127
1, 348480, Note_on_c, 9, 51, 127
1, 348480, Note_on_c, 9, 42, 127
1, 348493, Note_on_c, 9, 51, 0
1, 348493, Note_on_c, 9, 42, 0
1, 348719, Note_on_c, 9, 38, 0
1, 348720, Note_on_c, 9, 42, 43
1, 348733, Note_on_c, 9, 42, 0
1, 348960, Note_on_c, 9, 51, 127
1, 348960, Note_on_c, 9, 42, 43
1, 348973, Note_on_c, 9, 51, 0
1, 348973, Note_on_c, 9, 42, 0
1, 349200, Note_on_c, 9, 42, 43
1, 349200, Note_on_c, 9, 36, 127
1, 349213, Note_on_c, 9, 42, 0
1, 349439, Note_on_c, 9, 36, 0
1, 349440, Note_on_c, 9, 51, 127
1, 349440, Note_on_c, 9, 42, 127
1, 349440, Note_on_c, 9, 36, 127
1, 349453, Note_on_c, 9, 51, 0
1, 349453, Note_on_c, 9, 42, 0
1, 349680, Note_on_c, 9, 42, 43
1, 349693, Note_on_c, 9, 42, 0
1, 349919, Note_on_c, 9, 36, 0
1, 349920, Note_on_c, 9, 51, 127
1, 349920, Note_on_c, 9, 42, 43
1, 349920, Note_on_c, 9, 36, 127
1, 349933, Note_on_c, 9, 51, 0
1, 349933, Note_on_c, 9, 42, 0
1, 350160, Note_on_c, 9, 42, 43
1, 350173, Note_on_c, 9, 42, 0
1, 350399, Note_on_c, 9, 36, 0
1, 350400, Note_on_c, 9, 38, 127
1, 350400, Note_on_c, 9, 51, 127
1, 350400, Note_on_c, 9, 42, 127
1, 350413, Note_on_c, 9, 51, 0
1, 350413, Note_on_c, 9, 42, 0
1, 350639, Note_on_c, 9, 38, 0
1, 350640, Note_on_c, 9, 42, 43
1, 350640, Note_on_c, 9, 36, 127
1, 350653, Note_on_c, 9, 42, 0
1, 350879, Note_on_c, 9, 36, 0
1, 350880, Note_on_c, 9, 51, 127
1, 350880, Note_on_c, 9, 42, 43
1, 350893, Note_on_c, 9, 51, 0
1, 350893, Note_on_c, 9, 42, 0
1, 351120, Note_on_c, 9, 42, 43
1, 351120, Note_on_c, 9, 36, 127
1, 351133, Note_on_c, 9, 42, 0
1, 351359, Note_on_c, 9, 36, 0
1, 351360, Note_on_c, 9, 51, 127
1, 351360, Note_on_c, 9, 42, 127
1, 351360, Note_on_c, 9, 36, 127
1, 351373, Note_on_c, 9, 51, 0
1, 351373, Note_on_c, 9, 42, 0
1, 351600, Note_on_c, 9, 42, 43
1, 351613, Note_on_c, 9, 42, 0
1, 351839, Note_on_c, 9, 36, 0
1, 351840, Note_on_c, 9, 51, 127
1, 351840, Note_on_c, 9, 42, 43
1, 351853, Note_on_c, 9, 51, 0
1, 351853, Note_on_c, 9, 42, 0
1, 352080, Note_on_c, 9, 42, 43
1, 352093, Note_on_c, 9, 42, 0
1, 352320, Note_on_c, 9, 38, 127
1, 352320, Note_on_c, 9, 51, 127
1, 352320, Note_on_c, 9, 42, 127
1, 352333, Note_on_c, 9, 51, 0
1, 352333, Note_on_c, 9, 42, 0
1, 352559, Note_on_c, 9, 38, 0
1, 352560, Note_on_c, 9, 42, 43
1, 352573, Note_on_c, 9, 42, 0
1, 352800, Note_on_c, 9, 51, 127
1, 352800, Note_on_c, 9, 42, 43
1, 352813, Note_on_c, 9, 51, 0
1, 352813, Note_on_c, 9, 42, 0
1, 353040, Note_on_c, 9, 42, 43
1, 353040, Note_on_c, 9, 36, 127
1, 353053, Note_on_c, 9, 42, 0
1, 353279, Note_on_c, 9, 36, 0
1, 353280, Note_on_c, 9, 51, 127
1, 353280, Note_on_c, 9, 42, 127
1, 353280, Note_on_c, 9, 36, 127
1, 353293, Note_on_c, 9, 51, 0
1, 353293, Note_on_c, 9, 42, 0
1, 353520, Note_on_c, 9, 42, 43
1, 353533, Note_on_c, 9, 42, 0
1, 353759, Note_on_c, 9, 36, 0
1, 353760, Note_on_c, 9, 51, 127
1, 353760, Note_on_c, 9, 42, 43
1, 353760, Note_on_c, 9, 36, 127
1, 353773, Note_on_c, 9, 51, 0
1, 353773, Note_on_c, 9, 42, 0
1, 354000, Note_on_c, 9, 42, 43
1, 354013, Note_on_c, 9, 42, 0
1, 354239, Note_on_c, 9, 36, 0
1, 354240, Note_on_c, 9, 38, 127
1, 354240, Note_on_c, 9, 51, 127
1, 354240, Note_on_c, 9, 42, 127
1, 354253, Note_on_c, 9, 51, 0
1, 354253, Note_on_c, 9, 42, 0
1, 354479, Note_on_c, 9, 38, 0
1, 354480, Note_on_c, 9, 42, 43
1, 354480, Note_on_c, 9, 36, 127
1, 354493, Note_on_c, 9, 42, 0
1, 354719, Note_on_c, 9, 36, 0
1, 354720, Note_on_c, 9, 38, 127
1, 354720, Note_on_c, 9, 51, 127
1, 354720, Note_on_c, 9, 42, 43
1, 354733, Note_on_c, 9, 51, 0
1, 354733, Note_on_c, 9, 42, 0
1, 354959, Note_on_c, 9, 38, 0
1, 354960, Note_on_c, 9, 38, 127
1, 354960, Note_on_c, 9, 42, 43
1, 354960, Note_on_c, 9, 36, 127
1, 354973, Note_on_c, 9, 42, 0
1, 355199, Note_on_c, 9, 38, 0
1, 355199, Note_on_c, 9, 36, 0
1, 355200, Note_on_c, 9, 51, 127
1, 355200, Note_on_c, 9, 42, 127
1, 355200, Note_on_c, 9, 49, 87
1, 355200, Note_on_c, 9, 36, 127
1, 355213, Note_on_c, 9, 51, 0
1, 355213, Note_on_c, 9, 42, 0
1, 355213, Note_on_c, 9, 49, 0
1, 355440, Note_on_c, 9, 42, 43
1, 355453, Note_on_c, 9, 42, 0
1, 355679, Note_on_c, 9, 36, 0
1, 355680, Note_on_c, 9, 51, 127
1, 355680, Note_on_c, 9, 42, 43
1, 355693, Note_on_c, 9, 51, 0
1, 355693, Note_on_c, 9, 42, 0
1, 355920, Note_on_c, 9, 42, 43
1, 355933, Note_on_c, 9, 42, 0
1, 356160, Note_on_c, 9, 38, 127
1, 356160, Note_on_c, 9, 51, 127
1, 356160, Note_on_c, 9, 42, 127
1, 356173, Note_on_c, 9, 51, 0
1, 356173, Note_on_c, 9, 42, 0
1, 356399, Note_on_c, 9, 38, 0
1, 356400, Note_on_c, 9, 42, 43
1, 356413, Note_on_c, 9, 42, 0
1, 356640, Note_on_c, 9, 51, 127
1, 356640, Note_on_c, 9, 42, 43
1, 356653, Note_on_c, 9, 51, 0
1, 356653, Note_on_c, 9, 42, 0
1, 356880, Note_on_c, 9, 42, 43
1, 356880, Note_on_c, 9, 36, 127
1, 356893, Note_on_c, 9, 42, 0
1, 357119, Note_on_c, 9, 36, 0
1, 357120, Note_on_c, 9, 51, 127
1, 357120, Note_on_c, 9, 42, 127
1, 357120, Note_on_c, 9, 36, 127
1, 357133, Note_on_c, 9, 51, 0
1, 357133, Note_on_c, 9, 42, 0
1, 357360, Note_on_c, 9, 42, 43
1, 357373, Note_on_c, 9, 42, 0
1, 357599, Note_on_c, 9, 36, 0
1, 357600, Note_on_c, 9, 51, 127
1, 357600, Note_on_c, 9, 42, 43
1, 357600, Note_on_c, 9, 36, 127
1, 357613, Note_on_c, 9, 51, 0
1, 357613, Note_on_c, 9, 42, 0
1, 357840, Note_on_c, 9, 42, 43
1, 357853, Note_on_c, 9, 42, 0
1, 358079, Note_on_c, 9, 36, 0
1, 358080, Note_on_c, 9, 38, 127
1, 358080, Note_on_c, 9, 51, 127
1, 358080, Note_on_c, 9, 42, 127
1, 358093, Note_on_c, 9, 51, 0
1, 358093, Note_on_c, 9, 42, 0
1, 358319, Note_on_c, 9, 38, 0
1, 358320, Note_on_c, 9, 42, 43
1, 358320, Note_on_c, 9, 36, 127
1, 358333, Note_on_c, 9, 42, 0
1, 358559, Note_on_c, 9, 36, 0
1, 358560, Note_on_c, 9, 51, 127
1, 358560, Note_on_c, 9, 42, 43
1, 358573, Note_on_c, 9, 51, 0
1, 358573, Note_on_c, 9, 42, 0
1, 358800, Note_on_c, 9, 42, 43
1, 358800, Note_on_c, 9, 36, 127
1, 358813, Note_on_c, 9, 42, 0
1, 359039, Note_on_c, 9, 36, 0
1, 359040, Note_on_c, 9, 51, 127
1, 359040, Note_on_c, 9, 42, 127
1, 359040, Note_on_c, 9, 36, 127
1, 359053, Note_on_c, 9, 51, 0
1, 359053, Note_on_c, 9, 42, 0
1, 359280, Note_on_c, 9, 42, 43
1, 359293, Note_on_c, 9, 42, 0
1, 359519, Note_on_c, 9, 36, 0
1, 359520, Note_on_c, 9, 51, 127
1, 359520, Note_on_c, 9, 42, 43
1, 359533, Note_on_c, 9, 51, 0
1, 359533, Note_on_c, 9, 42, 0
1, 359760, Note_on_c, 9, 42, 43
1, 359773, Note_on_c, 9, 42, 0
1, 360000, Note_on_c, 9, 38, 127
1, 360000, Note_on_c, 9, 51, 127
1, 360000, Note_on_c, 9, 42, 127
1, 360013, Note_on_c, 9, 51, 0
1, 360013, Note_on_c, 9, 42, 0
1, 360239, Note_on_c, 9, 38, 0
1, 360240, Note_on_c, 9, 42, 43
1, 360253, Note_on_c, 9, 42, 0
1, 360480, Note_on_c, 9, 51, 127
1, 360480, Note_on_c, 9, 42, 43
1, 360493, Note_on_c, 9, 51, 0
1, 360493, Note_on_c, 9, 42, 0
1, 360720, Note_on_c, 9, 42, 43
1, 360720, Note_on_c, 9, 36, 127
1, 360733, Note_on_c, 9, 42, 0
1, 360959, Note_on_c, 9, 36, 0
1, 360960, Note_on_c, 9, 51, 127
1, 360960, Note_on_c, 9, 42, 127
1, 360960, Note_on_c, 9, 36, 127
1, 360973, Note_on_c, 9, 51, 0
1, 360973, Note_on_c, 9, 42, 0
1, 361200, Note_on_c, 9, 42, 43
1, 361213, Note_on_c, 9, 42, 0
1, 361439, Note_on_c, 9, 36, 0
1, 361440, Note_on_c, 9, 51, 127
1, 361440, Note_on_c, 9, 42, 43
1, 361440, Note_on_c, 9, 36, 127
1, 361453, Note_on_c, 9, 51, 0
1, 361453, Note_on_c, 9, 42, 0
1, 361680, Note_on_c, 9, 42, 43
1, 361693, Note_on_c, 9, 42, 0
1, 361919, Note_on_c, 9, 36, 0
1, 361920, Note_on_c, 9, 38, 127
1, 361920, Note_on_c, 9, 51, 127
1, 361920, Note_on_c, 9, 42, 127
1, 361933, Note_on_c, 9, 51, 0
1, 361933, Note_on_c, 9, 42, 0
1, 362159, Note_on_c, 9, 38, 0
1, 362160, Note_on_c, 9, 42, 43
1, 362160, Note_on_c, 9, 36, 127
1, 362173, Note_on_c, 9, 42, 0
1, 362399, Note_on_c, 9, 36, 0
1, 362400, Note_on_c, 9, 51, 127
1, 362400, Note_on_c, 9, 42, 43
1, 362413, Note_on_c, 9, 51, 0
1, 362413, Note_on_c, 9, 42, 0
1, 362640, Note_on_c, 9, 42, 43
1, 362640, Note_on_c, 9, 36, 127
1, 362653, Note_on_c, 9, 42, 0
1, 362879, Note_on_c, 9, 36, 0
1, 362880, Note_on_c, 9, 51, 127
1, 362880, Note_on_c, 9, 42, 127
1, 362880, Note_on_c, 9, 36, 127
1, 362893, Note_on_c, 9, 51, 0
1, 362893, Note_on_c, 9, 42, 0
1, 363120, Note_on_c, 9, 42, 43
1, 363133, Note_on_c, 9, 42, 0
1, 363359, Note_on_c, 9, 36, 0
1, 363360, Note_on_c, 9, 51, 127
1, 363360, Note_on_c, 9, 42, 43
1, 363373, Note_on_c, 9, 51, 0
1, 363373, Note_on_c, 9, 42, 0
1, 363600, Note_on_c, 9, 42, 43
1, 363613, Note_on_c, 9, 42, 0
1, 363840, Note_on_c, 9, 38, 127
1, 363840, Note_on_c, 9, 51, 127
1, 363840, Note_on_c, 9, 42, 127
1, 363853, Note_on_c, 9, 51, 0
1, 363853, Note_on_c, 9, 42, 0
1, 364079, Note_on_c, 9, 38, 0
1, 364080, Note_on_c, 9, 42, 43
1, 364093, Note_on_c, 9, 42, 0
1, 364320, Note_on_c, 9, 51, 127
1, 364320, Note_on_c, 9, 42, 43
1, 364333, Note_on_c, 9, 51, 0
1, 364333, Note_on_c, 9, 42, 0
1, 364560, Note_on_c, 9, 42, 43
1, 364560, Note_on_c, 9, 36, 127
1, 364573, Note_on_c, 9, 42, 0
1, 364799, Note_on_c, 9, 36, 0
1, 364800, Note_on_c, 9, 51, 127
1, 364800, Note_on_c, 9, 42, 127
1, 364800, Note_on_c, 9, 36, 127
1, 364813, Note_on_c, 9, 51, 0
1, 364813, Note_on_c, 9, 42, 0
1, 365040, Note_on_c, 9, 42, 43
1, 365053, Note_on_c, 9, 42, 0
1, 365279, Note_on_c, 9, 36, 0
1, 365280, Note_on_c, 9, 51, 127
1, 365280, Note_on_c, 9, 42, 43
1, 365280, Note_on_c, 9, 36, 127
1, 365293, Note_on_c, 9, 51, 0
1, 365293, Note_on_c, 9, 42, 0
1, 365520, Note_on_c, 9, 42, 43
1, 365533, Note_on_c, 9, 42, 0
1, 365759, Note_on_c, 9, 36, 0
1, 365760, Note_on_c, 9, 38, 127
1, 365760, Note_on_c, 9, 51, 127
1, 365760, Note_on_c, 9, 42, 127
1, 365773, Note_on_c, 9, 51, 0
1, 365773, Note_on_c, 9, 42, 0
1, 365999, Note_on_c, 9, 38, 0
1, 366000, Note_on_c, 9, 42, 43
1, 366000, Note_on_c, 9, 36, 127
1, 366013, Note_on_c, 9, 42, 0
1, 366239, Note_on_c, 9, 36, 0
1, 366240, Note_on_c, 9, 51, 127
1, 366240, Note_on_c, 9, 42, 43
1, 366253, Note_on_c, 9, 51, 0
1, 366253, Note_on_c, 9, 42, 0
1, 366480, Note_on_c, 9, 42, 43
1, 366480, Note_on_c, 9, 36, 127
1, 366493, Note_on_c, 9, 42, 0
1, 366719, Note_on_c, 9, 36, 0
1, 366720, Note_on_c, 9, 51, 127
1, 366720, Note_on_c, 9, 42, 127
1, 366720, Note_on_c, 9, 36, 127
1, 366733, Note_on_c, 9, 51, 0
1, 366733, Note_on_c, 9, 42, 0
1, 366960, Note_on_c, 9, 42, 43
1, 366973, Note_on_c, 9, 42, 0
1, 367199, Note_on_c, 9, 36, 0
1, 367200, Note_on_c, 9, 51, 127
1, 367200, Note_on_c, 9, 42, 43
1, 367213, Note_on_c, 9, 51, 0
1, 367213, Note_on_c, 9, 42, 0
1, 367440, Note_on_c, 9, 42, 43
1, 367453, Note_on_c, 9, 42, 0
1, 367680, Note_on_c, 9, 38, 127
1, 367680, Note_on_c, 9, 51, 127
1, 367680, Note_on_c, 9, 42, 127
1, 367693, Note_on_c, 9, 51, 0
1, 367693, Note_on_c, 9, 42, 0
1, 367919, Note_on_c, 9, 38, 0
1, 367920, Note_on_c, 9, 42, 43
1, 367933, Note_on_c, 9, 42, 0
1, 368160, Note_on_c, 9, 51, 127
1, 368160, Note_on_c, 9, 42, 43
1, 368173, Note_on_c, 9, 51, 0
1, 368173, Note_on_c, 9, 42, 0
1, 368400, Note_on_c, 9, 42, 43
1, 368400, Note_on_c, 9, 36, 127
1, 368413, Note_on_c, 9, 42, 0
1, 368639, Note_on_c, 9, 36, 0
1, 368640, Note_on_c, 9, 51, 127
1, 368640, Note_on_c, 9, 42, 127
1, 368640, Note_on_c, 9, 36, 127
1, 368653, Note_on_c, 9, 51, 0
1, 368653, Note_on_c, 9, 42, 0
1, 368880, Note_on_c, 9, 42, 43
1, 368893, Note_on_c, 9, 42, 0
1, 369119, Note_on_c, 9, 36, 0
1, 369120, Note_on_c, 9, 51, 127
1, 369120, Note_on_c, 9, 42, 43
1, 369120, Note_on_c, 9, 36, 127
1, 369133, Note_on_c, 9, 51, 0
1, 369133, Note_on_c, 9, 42, 0
1, 369360, Note_on_c, 9, 42, 43
1, 369373, Note_on_c, 9, 42, 0
1, 369599, Note_on_c, 9, 36, 0
1, 369600, Note_on_c, 9, 38, 127
1, 369600, Note_on_c, 9, 51, 127
1, 369600, Note_on_c, 9, 42, 127
1, 369613, Note_on_c, 9, 51, 0
1, 369613, Note_on_c, 9, 42, 0
1, 369839, Note_on_c, 9, 38, 0
1, 369840, Note_on_c, 9, 42, 43
1, 369840, Note_on_c, 9, 36, 127
1, 369853, Note_on_c, 9, 42, 0
1, 370079, Note_on_c, 9, 36, 0
1, 370080, Note_on_c, 9, 38, 127
1, 370080, Note_on_c, 9, 51, 127
1, 370080, Note_on_c, 9, 42, 43
1, 370093, Note_on_c, 9, 51, 0
1, 370093, Note_on_c, 9, 42, 0
1, 370319, Note_on_c, 9, 38, 0
1, 370320, Note_on_c, 9, 38, 127
1, 370320, Note_on_c, 9, 42, 43
1, 370320, Note_on_c, 9, 36, 127
1, 370333, Note_on_c, 9, 42, 0
1, 370559, Note_on_c, 9, 38, 0
1, 370559, Note_on_c, 9, 36, 0
1, 370560, Note_on_c, 9, 51, 127
1, 370560, Note_on_c, 9, 42, 127
1, 370560, Note_on_c, 9, 49, 87
1, 370560, Note_on_c, 9, 36, 127
1, 370573, Note_on_c, 9, 51, 0
1, 370573, Note_on_c, 9, 42, 0
1, 370573, Note_on_c, 9, 49, 0
1, 370800, Note_on_c, 9, 42, 43
1, 370813, Note_on_c, 9, 42, 0
1, 371039, Note_on_c, 9, 36, 0
1, 371040, Note_on_c, 9, 51, 127
1, 371040, Note_on_c, 9, 42, 43
1, 371053, Note_on_c, 9, 51, 0
1, 371053, Note_on_c, 9, 42, 0
1, 371280, Note_on_c, 9, 42, 43
1, 371293, Note_on_c, 9, 42, 0
1, 371520, Note_on_c, 9, 38, 127
1, 371520, Note_on_c, 9, 51, 127
1, 371520, Note_on_c, 9, 42, 127
1, 371533, Note_on_c, 9, 51, 0
1, 371533, Note_on_c, 9, 42, 0
1, 371759, Note_on_c, 9, 38, 0
1, 371760, Note_on_c, 9, 42, 43
1, 371773, Note_on_c, 9, 42, 0
1, 372000, Note_on_c, 9, 51, 127
1, 372000, Note_on_c, 9, 42, 43
1, 372013, Note_on_c, 9, 51, 0
1, 372013, Note_on_c, 9, 42, 0
1, 372240, Note_on_c, 9, 42, 43
1, 372240, Note_on_c, 9, 36, 127
1, 372253, Note_on_c, 9, 42, 0
1, 372479, Note_on_c, 9, 36, 0
1, 372480, Note_on_c, 9, 51, 127
1, 372480, Note_on_c, 9, 42, 127
1, 372480, Note_on_c, 9, 36, 127
1, 372493, Note_on_c, 9, 51, 0
1, 372493, Note_on_c, 9, 42, 0
1, 372720, Note_on_c, 9, 42, 43
1, 372733, Note_on_c, 9, 42, 0
1, 372959, Note_on_c, 9, 36, 0
1, 372960, Note_on_c, 9, 51, 127
1, 372960, Note_on_c, 9, 42, 43
1, 372960, Note_on_c, 9, 36, 127
1, 372973, Note_on_c, 9, 51, 0
1, 372973, Note_on_c, 9, 42, 0
1, 373200, Note_on_c, 9, 42, 43
1, 373213, Note_on_c, 9, 42, 0
1, 373439, Note_on_c, 9, 36, 0
1, 373440, Note_on_c, 9, 38, 127
1, 373440, Note_on_c, 9, 51, 127
1, 373440, Note_on_c, 9, 42, 127
1, 373453, Note_on_c, 9, 51, 0
1, 373453, Note_on_c, 9, 42, 0
1, 373679, Note_on_c, 9, 38, 0
1, 373680, Note_on_c, 9, 42, 43
1, 373680, Note_on_c, 9, 36, 127
1, 373693, Note_on_c, 9, 42, 0
1, 373919, Note_on_c, 9, 36, 0
1, 373920, Note_on_c, 9, 51, 127
1, 373920, Note_on_c, 9, 42, 43
1, 373933, Note_on_c, 9, 51, 0
1, 373933, Note_on_c, 9, 42, 0
1, 374160, Note_on_c, 9, 42, 43
1, 374160, Note_on_c, 9, 36, 127
1, 374173, Note_on_c, 9, 42, 0
1, 374399, Note_on_c, 9, 36, 0
1, 374400, Note_on_c, 9, 51, 127
1, 374400, Note_on_c, 9, 42, 127
1, 374400, Note_on_c, 9, 36, 127
1, 374413, Note_on_c, 9, 51, 0
1, 374413, Note_on_c, 9, 42, 0
1, 374640, Note_on_c, 9, 42, 43
1, 374653, Note_on_c, 9, 42, 0
1, 374879, Note_on_c, 9, 36, 0
1, 374880, Note_on_c, 9, 51, 127
1, 374880, Note_on_c, 9, 42, 43
1, 374893, Note_on_c, 9, 51, 0
1, 374893, Note_on_c, 9, 42, 0
1, 375120, Note_on_c, 9, 42, 43
1, 375133, Note_on_c, 9, 42, 0
1, 375360, Note_on_c, 9, 38, 127
1, 375360, Note_on_c, 9, 51, 127
1, 375360, Note_on_c, 9, 42, 127
1, 375373, Note_on_c, 9, 51, 0
1, 375373, Note_on_c, 9, 42, 0
1, 375599, Note_on_c, 9, 38, 0
1, 375600, Note_on_c, 9, 42, 43
1, 375613, Note_on_c, 9, 42, 0
1, 375840, Note_on_c, 9, 51, 127
1, 375840, Note_on_c, 9, 42, 43
1, 375853, Note_on_c, 9, 51, 0
1, 375853, Note_on_c, 9, 42, 0
1, 376080, Note_on_c, 9, 42, 43
1, 376080, Note_on_c, 9, 36, 127
1, 376093, Note_on_c, 9, 42, 0
1, 376319, Note_on_c, 9, 36, 0
1, 376320, Note_on_c, 9, 51, 127
1, 376320, Note_on_c, 9, 42, 127
1, 376320, Note_on_c, 9, 36, 127
1, 376333, Note_on_c, 9, 51, 0
1, 376333, Note_on_c, 9, 42, 0
1, 376560, Note_on_c, 9, 42, 43
1, 376573, Note_on_c, 9, 42, 0
1, 376799, Note_on_c, 9, 36, 0
1, 376800, Note_on_c, 9, 51, 127
1, 376800, Note_on_c, 9, 42, 43
1, 376800, Note_on_c, 9, 36, 127
1, 376813, Note_on_c, 9, 51, 0
1, 376813, Note_on_c, 9, 42, 0
1, 377040, Note_on_c, 9, 42, 43
1, 377053, Note_on_c, 9, 42, 0
1, 377279, Note_on_c, 9, 36, 0
1, 377280, Note_on_c, 9, 38, 127
1, 377280, Note_on_c, 9, 51, 127
1, 377280, Note_on_c, 9, 42, 127
1, 377293, Note_on_c, 9, 51, 0
1, 377293, Note_on_c, 9, 42, 0
1, 377519, Note_on_c, 9, 38, 0
1, 377520, Note_on_c, 9, 42, 43
1, 377520, Note_on_c, 9, 36, 127
1, 377533, Note_on_c, 9, 42, 0
1, 377759, Note_on_c, 9, 36, 0
1, 377760, Note_on_c, 9, 51, 127
1, 377760, Note_on_c, 9, 42, 43
1, 377773, Note_on_c, 9, 51, 0
1, 377773, Note_on_c, 9, 42, 0
1, 378000, Note_on_c, 9, 42, 43
1, 378000, Note_on_c, 9, 36, 127
1, 378013, Note_on_c, 9, 42, 0
1, 378239, Note_on_c, 9, 36, 0
1, 378240, Note_on_c, 9, 51, 127
1, 378240, Note_on_c, 9, 42, 127
1, 378240, Note_on_c, 9, 36, 127
1, 378253, Note_on_c, 9, 51, 0
1, 378253, Note_on_c, 9, 42, 0
1, 378480, Note_on_c, 9, 42, 43
1, 378493, Note_on_c, 9, 42, 0
1, 378719, Note_on_c, 9, 36, 0
1, 378720, Note_on_c, 9, 51, 127
1, 378720, Note_on_c, 9, 42, 43
1, 378733, Note_on_c, 9, 51, 0
1, 378733, Note_on_c, 9, 42, 0
1, 378960, Note_on_c, 9, 42, 43
1, 378973, Note_on_c, 9, 42, 0
1, 379200, Note_on_c, 9, 38, 127
1, 379200, Note_on_c, 9, 51, 127
1, 379200, Note_on_c, 9, 42, 127
1, 379213, Note_on_c, 9, 51, 0
1, 379213, Note_on_c, 9, 42, 0
1, 379439, Note_on_c, 9, 38, 0
1, 379440, Note_on_c, 9, 42, 43
1, 379453, Note_on_c, 9, 42, 0
1, 379680, Note_on_c, 9, 51, 127
1, 379680, Note_on_c, 9, 42, 43
1, 379693, Note_on_c, 9, 51, 0
1, 379693, Note_on_c, 9, 42, 0
1, 379920, Note_on_c, 9, 42, 43
1, 379920, Note_on_c, 9, 36, 127
1, 379933, Note_on_c, 9, 42, 0
1, 380159, Note_on_c, 9, 36, 0
1, 380160, Note_on_c, 9, 51, 127
1, 380160, Note_on_c, 9, 42, 127
1, 380160, Note_on_c, 9, 36, 127
1, 380173, Note_on_c, 9, 51, 0
1, 380173, Note_on_c, 9, 42, 0
1, 380400, Note_on_c, 9, 42, 43
1, 380413, Note_on_c, 9, 42, 0
1, 380639, Note_on_c, 9, 36, 0
1, 380640, Note_on_c, 9, 51, 127
1, 380640, Note_on_c, 9, 42, 43
1, 380640, Note_on_c, 9, 36, 127
1, 380653, Note_on_c, 9, 51, 0
1, 380653, Note_on_c, 9, 42, 0
1, 380880, Note_on_c, 9, 42, 43
1, 380893, Note_on_c, 9, 42, 0
1, 381119, Note_on_c, 9, 36, 0
1, 381120, Note_on_c, 9, 38, 127
1, 381120, Note_on_c, 9, 51, 127
1, 381120, Note_on_c, 9, 42, 127
1, 381133, Note_on_c, 9, 51, 0
1, 381133, Note_on_c, 9, 42, 0
1, 381359, Note_on_c, 9, 38, 0
1, 381360, Note_on_c, 9, 42, 43
1, 381360, Note_on_c, 9, 36, 127
1, 381373, Note_on_c, 9, 42, 0
1, 381599, Note_on_c, 9, 36, 0
1, 381600, Note_on_c, 9, 51, 127
1, 381600, Note_on_c, 9, 42, 43
1, 381613, Note_on_c, 9, 51, 0
1, 381613, Note_on_c, 9, 42, 0
1, 381840, Note_on_c, 9, 42, 43
1, 381840, Note_on_c, 9, 36, 127
1, 381853, Note_on_c, 9, 42, 0
1, 382079, Note_on_c, 9, 36, 0
1, 382080, Note_on_c, 9, 51, 127
1, 382080, Note_on_c, 9, 42, 127
1, 382080, Note_on_c, 9, 36, 127
1, 382093, Note_on_c, 9, 51, 0
1, 382093, Note_on_c, 9, 42, 0
1, 382320, Note_on_c, 9, 42, 43
1, 382333, Note_on_c, 9, 42, 0
1, 382559, Note_on_c, 9, 36, 0
1, 382560, Note_on_c, 9, 51, 127
1, 382560, Note_on_c, 9, 42, 43
1, 382573, Note_on_c, 9, 51, 0
1, 382573, Note_on_c, 9, 42, 0
1, 382800, Note_on_c, 9, 42, 43
1, 382813, Note_on_c, 9, 42, 0
1, 383040, Note_on_c, 9, 38, 127
1, 383040, Note_on_c, 9, 51, 127
1, 383040, Note_on_c, 9, 42, 127
1, 383053, Note_on_c, 9, 51, 0
1, 383053, Note_on_c, 9, 42, 0
1, 383279, Note_on_c, 9, 38, 0
1, 383280, Note_on_c, 9, 42, 43
1, 383293, Note_on_c, 9, 42, 0
1, 383520, Note_on_c, 9, 51, 127
1, 383520, Note_on_c, 9, 42, 43
1, 383533, Note_on_c, 9, 51, 0
1, 383533, Note_on_c, 9, 42, 0
1, 383760, Note_on_c, 9, 42, 43
1, 383760, Note_on_c, 9, 36, 127
1, 383773, Note_on_c, 9, 42, 0
1, 383999, Note_on_c, 9, 36, 0
1, 384000, Note_on_c, 9, 51, 127
1, 384000, Note_on_c, 9, 42, 127
1, 384000, Note_on_c, 9, 36, 127
1, 384013, Note_on_c, 9, 51, 0
1, 384013, Note_on_c, 9, 42, 0
1, 384240, Note_on_c, 9, 42, 43
1, 384253, Note_on_c, 9, 42, 0
1, 384479, Note_on_c, 9, 36, 0
1, 384480, Note_on_c, 9, 51, 127
1, 384480, Note_on_c, 9, 42, 43
1, 384480, Note_on_c, 9, 36, 127
1, 384493, Note_on_c, 9, 51, 0
1, 384493, Note_on_c, 9, 42, 0
1, 384720, Note_on_c, 9, 42, 43
1, 384733, Note_on_c, 9, 42, 0
1, 384959, Note_on_c, 9, 36, 0
1, 384960, Note_on_c, 9, 38, 127
1, 384960, Note_on_c, 9, 51, 127
1, 384960, Note_on_c, 9, 42, 127
1, 384973, Note_on_c, 9, 51, 0
1, 384973, Note_on_c, 9, 42, 0
1, 385199, Note_on_c, 9, 38, 0
1, 385200, Note_on_c, 9, 42, 43
1, 385200, Note_on_c, 9, 36, 127
1, 385213, Note_on_c, 9, 42, 0
1, 385439, Note_on_c, 9, 36, 0
1, 385440, Note_on_c, 9, 38, 127
1, 385440, Note_on_c, 9, 51, 127
1, 385440, Note_on_c, 9, 42, 43
1, 385453, Note_on_c, 9, 51, 0
1, 385453, Note_on_c, 9, 42, 0
1, 385679, Note_on_c, 9, 38, 0
1, 385680, Note_on_c, 9, 38, 127
1, 385680, Note_on_c, 9, 42, 43
1, 385680, Note_on_c, 9, 36, 127
1, 385693, Note_on_c, 9, 42, 0
1, 385919, Note_on_c, 9, 38, 0
1, 385919, Note_on_c, 9, 36, 0
1, 385920, Note_on_c, 9, 51, 127
1, 385920, Note_on_c, 9, 42, 127
1, 385920, Note_on_c, 9, 49, 87
1, 385920, Note_on_c, 9, 36, 127
1, 385933, Note_on_c, 9, 51, 0
1, 385933, Note_on_c, 9, 42, 0
1, 385933, Note_on_c, 9, 49, 0
1, 386160, Note_on_c, 9, 42, 43
1, 386173, Note_on_c, 9, 42, 0
1, 386399, Note_on_c, 9, 36, 0
1, 386400, Note_on_c, 9, 51, 127
1, 386400, Note_on_c, 9, 42, 43
1, 386413, Note_on_c, 9, 51, 0
1, 386413, Note_on_c, 9, 42, 0
1, 386640, Note_on_c, 9, 42, 43
1, 386653, Note_on_c, 9, 42, 0
1, 386880, Note_on_c, 9, 38, 127
1, 386880, Note_on_c, 9, 51, 127
1, 386880, Note_on_c, 9, 42, 127
1, 386893, Note_on_c, 9, 51, 0
1, 386893, Note_on_c, 9, 42, 0
1, 387119, Note_on_c, 9, 38, 0
1, 387120, Note_on_c, 9, 42, 43
1, 387133, Note_on_c, 9, 42, 0
1, 387360, Note_on_c, 9, 51, 127
1, 387360, Note_on_c, 9, 42, 43
1, 387373, Note_on_c, 9, 51, 0
1, 387373, Note_on_c, 9, 42, 0
1, 387600, Note_on_c, 9, 42, 43
1, 387600, Note_on_c, 9, 36, 127
1, 387613, Note_on_c, 9, 42, 0
1, 387839, Note_on_c, 9, 36, 0
1, 387840, Note_on_c, 9, 51, 127
1, 387840, Note_on_c, 9, 42, 127
1, 387840, Note_on_c, 9, 36, 127
1, 387853, Note_on_c, 9, 51, 0
1, 387853, Note_on_c, 9, 42, 0
1, 388080, Note_on_c, 9, 42, 43
1, 388093, Note_on_c, 9, 42, 0
1, 388319, Note_on_c, 9, 36, 0
1, 388320, Note_on_c, 9, 51, 127
1, 388320, Note_on_c, 9, 42, 43
1, 388320, Note_on_c, 9, 36, 127
1, 388333, Note_on_c, 9, 51, 0
1, 388333, Note_on_c, 9, 42, 0
1, 388560, Note_on_c, 9, 42, 43
1, 388573, Note_on_c, 9, 42, 0
1, 388799, Note_on_c, 9, 36, 0
1, 388800, Note_on_c, 9, 38, 127
1, 388800, Note_on_c, 9, 51, 127
1, 388800, Note_on_c, 9, 42, 127
1, 388813, Note_on_c, 9, 51, 0
1, 388813, Note_on_c, 9, 42, 0
1, 389039, Note_on_c, 9, 38, 0
1, 389040, Note_on_c, 9, 42, 43
1, 389040, Note_on_c, 9, 36, 127
1, 389053, Note_on_c, 9, 42, 0
1, 389279, Note_on_c, 9, 36, 0
1, 389280, Note_on_c, 9, 51, 127
1, 389280, Note_on_c, 9, 42, 43
1, 389293, Note_on_c, 9, 51, 0
1, 389293, Note_on_c, 9, 42, 0
1, 389520, Note_on_c, 9, 42, 43
1, 389520, Note_on_c, 9, 36, 127
1, 389533, Note_on_c, 9, 42, 0
1, 389759, Note_on_c, 9, 36, 0
1, 389760, Note_on_c, 9, 51, 127
1, 389760, Note_on_c, 9, 42, 127
1, 389760, Note_on_c, 9, 36, 127
1, 389773, Note_on_c, 9, 51, 0
1, 389773, Note_on_c, 9, 42, 0
1, 390000, Note_on_c, 9, 42, 43
1, 390013, Note_on_c, 9, 42, 0
1, 390239, Note_on_c, 9, 36, 0
1, 390240, Note_on_c, 9, 51, 127
1, 390240, Note_on_c, 9, 42, 43
1, 390253, Note_on_c, 9, 51, 0
1, 390253, Note_on_c, 9, 42, 0
1, 390480, Note_on_c, 9, 42, 43
1, 390493, Note_on_c, 9, 42, 0
1, 390720, Note_on_c, 9, 38, 127
1, 390720, Note_on_c, 9, 51, 127
1, 390720, Note_on_c, 9, 42, 127
1, 390733, Note_on_c, 9, 51, 0
1, 390733, Note_on_c, 9, 42, 0
1, 390959, Note_on_c, 9, 38, 0
1, 390960, Note_on_c, 9, 42, 43
1, 390973, Note_on_c, 9, 42, 0
1, 391200, Note_on_c, 9, 51, 127
1, 391200, Note_on_c, 9, 42, 43
1, 391213, Note_on_c, 9, 51, 0
1, 391213, Note_on_c, 9, 42, 0
1, 391440, Note_on_c, 9, 42, 43
1, 391440, Note_on_c, 9, 36, 127
1, 391453, Note_on_c, 9, 42, 0
1, 391679, Note_on_c, 9, 36, 0
1, 391680, Note_on_c, 9, 51, 127
1, 391680, Note_on_c, 9, 42, 127
1, 391680, Note_on_c, 9, 36, 127
1, 391693, Note_on_c, 9, 51, 0
1, 391693, Note_on_c, 9, 42, 0
1, 391920, Note_on_c, 9, 42, 43
1, 391933, Note_on_c, 9, 42, 0
1, 392159, Note_on_c, 9, 36, 0
1, 392160, Note_on_c, 9, 51, 127
1, 392160, Note_on_c, 9, 42, 43
1, 392160, Note_on_c, 9, 36, 127
1, 392173, Note_on_c, 9, 51, 0
1, 392173, Note_on_c, 9, 42, 0
1, 392400, Note_on_c, 9, 42, 43
1, 392413, Note_on_c, 9, 42, 0
1, 392639, Note_on_c, 9, 36, 0
1, 392640, Note_on_c, 9, 38, 127
1, 392640, Note_on_c, 9, 51, 127
1, 392640, Note_on_c, 9, 42, 127
1, 392653, Note_on_c, 9, 51, 0
1, 392653, Note_on_c, 9, 42, 0
1, 392879, Note_on_c, 9, 38, 0
1, 392880, Note_on_c, 9, 42, 43
1, 392880, Note_on_c, 9, 36, 127
1, 392893, Note_on_c, 9, 42, 0
1, 393119, Note_on_c, 9, 36, 0
1, 393120, Note_on_c, 9, 51, 127
1, 393120, Note_on_c, 9, 42, 43
1, 393133, Note_on_c, 9, 51, 0
1, 393133, Note_on_c, 9, 42, 0
1, 393360, Note_on_c, 9, 42, 43
1, 393360, Note_on_c, 9, 36, 127
1, 393373, Note_on_c, 9, 42, 0
1, 393599, Note_on_c, 9, 36, 0
1, 393600, Note_on_c, 9, 51, 127
1, 393600, Note_on_c, 9, 42, 127
1, 393600, Note_on_c, 9, 36, 127
1, 393613, Note_on_c, 9, 51, 0
1, 393613, Note_on_c, 9, 42, 0
1, 393840, Note_on_c, 9, 42, 43
1, 393853, Note_on_c, 9, 42, 0
1, 394079, Note_on_c, 9, 36, 0
1, 394080, Note_on_c, 9, 51, 127
1, 394080, Note_on_c, 9, 42, 43
1, 394093, Note_on_c, 9, 51, 0
1, 394093, Note_on_c, 9, 42, 0
1, 394320, Note_on_c, 9, 42, 43
1, 394333, Note_on_c, 9, 42, 0
1, 394560, Note_on_c, 9, 38, 127
1, 394560, Note_on_c, 9, 51, 127
1, 394560, Note_on_c, 9, 42, 127
1, 394573, Note_on_c, 9, 51, 0
1, 394573, Note_on_c, 9, 42, 0
1, 394799, Note_on_c, 9, 38, 0
1, 394800, Note_on_c, 9, 42, 43
1, 394813, Note_on_c, 9, 42, 0
1, 395040, Note_on_c, 9, 51, 127
1, 395040, Note_on_c, 9, 42, 43
1, 395053, Note_on_c, 9, 51, 0
1, 395053, Note_on_c, 9, 42, 0
1, 395280, Note_on_c, 9, 42, 43
1, 395280, Note_on_c, 9, 36, 127
1, 395293, Note_on_c, 9, 42, 0
1, 395519, Note_on_c, 9, 36, 0
1, 395520, Note_on_c, 9, 51, 127
1, 395520, Note_on_c, 9, 42, 127
1, 395520, Note_on_c, 9, 36, 127
1, 395533, Note_on_c, 9, 51, 0
1, 395533, Note_on_c, 9, 42, 0
1, 395760, Note_on_c, 9, 42, 43
1, 395773, Note_on_c, 9, 42, 0
1, 395999, Note_on_c, 9, 36, 0
1, 396000, Note_on_c, 9, 51, 127
1, 396000, Note_on_c, 9, 42, 43
1, 396000, Note_on_c, 9, 36, 127
1, 396013, Note_on_c, 9, 51, 0
1, 396013, Note_on_c, 9, 42, 0
1, 396240, Note_on_c, 9, 42, 43
1, 396253, Note_on_c, 9, 42, 0
1, 396479, Note_on_c, 9, 36, 0
1, 396480, Note_on_c, 9, 38, 127
1, 396480, Note_on_c, 9, 51, 127
1, 396480, Note_on_c, 9, 42, 127
1, 396493, Note_on_c, 9, 51, 0
1, 396493, Note_on_c, 9, 42, 0
1, 396719, Note_on_c, 9, 38, 0
1, 396720, Note_on_c, 9, 42, 43
1, 396720, Note_on_c, 9, 36, 127
1, 396733, Note_on_c, 9, 42, 0
1, 396959, Note_on_c, 9, 36, 0
1, 396960, Note_on_c, 9, 51, 127
1, 396960, Note_on_c, 9, 42, 43
1, 396973, Note_on_c, 9, 51, 0
1, 396973, Note_on_c, 9, 42, 0
1, 397200, Note_on_c, 9, 42, 43
1, 397200, Note_on_c, 9, 36, 127
1, 397213, Note_on_c, 9, 42, 0
1, 397439, Note_on_c, 9, 36, 0
1, 397440, Note_on_c, 9, 51, 127
1, 397440, Note_on_c, 9, 42, 127
1, 397440, Note_on_c, 9, 36, 127
1, 397453, Note_on_c, 9, 51, 0
1, 397453, Note_on_c, 9, 42, 0
1, 397680, Note_on_c, 9, 42, 43
1, 397693, Note_on_c, 9, 42, 0
1, 397919, Note_on_c, 9, 36, 0
1, 397920, Note_on_c, 9, 51, 127
1, 397920, Note_on_c, 9, 42, 43
1, 397933, Note_on_c, 9, 51, 0
1, 397933, Note_on_c, 9, 42, 0
1, 398160, Note_on_c, 9, 42, 43
1, 398173, Note_on_c, 9, 42, 0
1, 398400, Note_on_c, 9, 38, 127
1, 398400, Note_on_c, 9, 51, 127
1, 398400, Note_on_c, 9, 42, 127
1, 398413, Note_on_c, 9, 51, 0
1, 398413, Note_on_c, 9, 42, 0
1, 398639, Note_on_c, 9, 38, 0
1, 398640, Note_on_c, 9, 42, 43
1, 398653, Note_on_c, 9, 42, 0
1, 398880, Note_on_c, 9, 51, 127
1, 398880, Note_on_c, 9, 42, 43
1, 398893, Note_on_c, 9, 51, 0
1, 398893, Note_on_c, 9, 42, 0
1, 399120, Note_on_c, 9, 42, 43
1, 399120, Note_on_c, 9, 36, 127
1, 399133, Note_on_c, 9, 42, 0
1, 399359, Note_on_c, 9, 36, 0
1, 399360, Note_on_c, 9, 38, 25
1, 399360, Note_on_c, 9, 51, 127
1, 399360, Note_on_c, 9, 42, 127
1, 399360, Note_on_c, 9, 36, 127
1, 399373, Note_on_c, 9, 51, 0
1, 399373, Note_on_c, 9, 42, 0
1, 399599, Note_on_c, 9, 38, 0
1, 399600, Note_on_c, 9, 38, 25
1, 399600, Note_on_c, 9, 42, 43
1, 399613, Note_on_c, 9, 42, 0
1, 399839, Note_on_c, 9, 36, 0
1, 399839, Note_on_c, 9, 38, 0
1, 399840, Note_on_c, 9, 38, 25
1, 399840, Note_on_c, 9, 48, 127
1, 399840, Note_on_c, 9, 42, 43
1, 399840, Note_on_c, 9, 36, 127
1, 399853, Note_on_c, 9, 42, 0
1, 400079, Note_on_c, 9, 38, 0
1, 400079, Note_on_c, 9, 48, 0
1, 400080, Note_on_c, 9, 38, 43
1, 400080, Note_on_c, 9, 48, 127
1, 400080, Note_on_c, 9, 42, 43
1, 400093, Note_on_c, 9, 42, 0
1, 400319, Note_on_c, 9, 36, 0
1, 400319, Note_on_c, 9, 38, 0
1, 400319, Note_on_c, 9, 48, 0
1, 400320, Note_on_c, 9, 38, 43
1, 400320, Note_on_c, 9, 48, 127
1, 400320, Note_on_c, 9, 42, 127
1, 400333, Note_on_c, 9, 42, 0
1, 400559, Note_on_c, 9, 38, 0
1, 400559, Note_on_c, 9, 48, 0
1, 400560, Note_on_c, 9, 38, 127
1, 400560, Note_on_c, 9, 45, 127
1, 400560, Note_on_c, 9, 42, 43
1, 400560, Note_on_c, 9, 36, 127
1, 400573, Note_on_c, 9, 42, 0
1, 400799, Note_on_c, 9, 38, 0
1, 400799, Note_on_c, 9, 45, 0
1, 400799, Note_on_c, 9, 36, 0
1, 400800, Note_on_c, 9, 38, 127
1, 400800, Note_on_c, 9, 42, 43
1, 400800, Note_on_c, 9, 43, 127
1, 400813, Note_on_c, 9, 42, 0
1, 401039, Note_on_c, 9, 38, 0
1, 401039, Note_on_c, 9, 43, 0
1, 401040, Note_on_c, 9, 38, 127
1, 401040, Note_on_c, 9, 42, 43
1, 401040, Note_on_c, 9, 36, 127
1, 401040, Note_on_c, 9, 43, 127
1, 401053, Note_on_c, 9, 42, 0
1, 401279, Note_on_c, 9, 38, 0
1, 401279, Note_on_c, 9, 36, 0
1, 401279, Note_on_c, 9, 43, 0
1, 401280, Note_on_c, 9, 51, 127
1, 401280, Note_on_c, 9, 42, 127
1, 401280, Note_on_c, 9, 49, 87
1, 401280, Note_on_c, 9, 36, 127
1, 401293, Note_on_c, 9, 51, 0
1, 401293, Note_on_c, 9, 42, 0
1, 401293, Note_on_c, 9, 49, 0
1, 401520, Note_on_c, 9, 42, 43
1, 401533, Note_on_c, 9, 42, 0
1, 401759, Note_on_c, 9, 36, 0
1, 401760, Note_on_c, 9, 51, 127
1, 401760, Note_on_c, 9, 42, 43
1, 401773, Note_on_c, 9, 51, 0
1, 401773, Note_on_c, 9, 42, 0
1, 402000, Note_on_c, 9, 42, 43
1, 402013, Note_on_c, 9, 42, 0
1, 402240, Note_on_c, 9, 38, 127
1, 402240, Note_on_c, 9, 51, 127
1, 402240, Note_on_c, 9, 42, 127
1, 402253, Note_on_c, 9, 51, 0
1, 402253, Note_on_c, 9, 42, 0
1, 402479, Note_on_c, 9, 38, 0
1, 402480, Note_on_c, 9, 42, 43
1, 402493, Note_on_c, 9, 42, 0
1, 402720, Note_on_c, 9, 51, 127
1, 402720, Note_on_c, 9, 42, 43
1, 402733, Note_on_c, 9, 51, 0
1, 402733, Note_on_c, 9, 42, 0
1, 402960, Note_on_c, 9, 42, 43
1, 402960, Note_on_c, 9, 36, 127
1, 402973, Note_on_c, 9, 42, 0
1, 403199, Note_on_c, 9, 36, 0
1, 403200, Note_on_c, 9, 51, 127
1, 403200, Note_on_c, 9, 42, 127
1, 403200, Note_on_c, 9, 36, 127
1, 403213, Note_on_c, 9, 51, 0
1, 403213, Note_on_c, 9, 42, 0
1, 403440, Note_on_c, 9, 42, 43
1, 403453, Note_on_c, 9, 42, 0
1, 403679, Note_on_c, 9, 36, 0
1, 403680, Note_on_c, 9, 51, 127
1, 403680, Note_on_c, 9, 42, 43
1, 403680, Note_on_c, 9, 36, 127
1, 403693, Note_on_c, 9, 51, 0
1, 403693, Note_on_c, 9, 42, 0
1, 403920, Note_on_c, 9, 42, 43
1, 403933, Note_on_c, 9, 42, 0
1, 404159, Note_on_c, 9, 36, 0
1, 404160, Note_on_c, 9, 38, 127
1, 404160, Note_on_c, 9, 42, 127
1, 404160, Note_on_c, 9, 49, 87
1, 404160, Note_on_c, 9, 36, 127
1, 404173, Note_on_c, 9, 42, 0
1, 404173, Note_on_c, 9, 49, 0
1, 404399, Note_on_c, 9, 38, 0
1, 404399, Note_on_c, 9, 36, 0
1, 404400, Note_on_c, 9, 42, 43
1, 404400, Note_on_c, 9, 36, 127
1, 404413, Note_on_c, 9, 42, 0
1, 404639, Note_on_c, 9, 36, 0
1, 404640, Note_on_c, 9, 38, 127
1, 404640, Note_on_c, 9, 42, 43
1, 404640, Note_on_c, 9, 49, 87
1, 404640, Note_on_c, 9, 36, 127
1, 404653, Note_on_c, 9, 42, 0
1, 404653, Note_on_c, 9, 49, 0
1, 404879, Note_on_c, 9, 38, 0
1, 404879, Note_on_c, 9, 36, 0
1, 404880, Note_on_c, 9, 42, 43
1, 404880, Note_on_c, 9, 36, 127
1, 404893, Note_on_c, 9, 42, 0
1, 405119, Note_on_c, 9, 36, 0
1, 405120, Note_on_c, 9, 51, 127
1, 405120, Note_on_c, 9, 42, 127
1, 405120, Note_on_c, 9, 49, 87
1, 405120, Note_on_c, 9, 36, 127
1, 405133, Note_on_c, 9, 51, 0
1, 405133, Note_on_c, 9, 42, 0
1, 405133, Note_on_c, 9, 49, 0
1, 405360, Note_on_c, 9, 42, 43
1, 405373, Note_on_c, 9, 42, 0
1, 405599, Note_on_c, 9, 36, 0
1, 405600, Note_on_c, 9, 51, 127
1, 405600, Note_on_c, 9, 42, 43
1, 405613, Note_on_c, 9, 51, 0
1, 405613, Note_on_c, 9, 42, 0
1, 405840, Note_on_c, 9, 42, 43
1, 405853, Note_on_c, 9, 42, 0
1, 406080, Note_on_c, 9, 38, 127
1, 406080, Note_on_c, 9, 51, 127
1, 406080, Note_on_c, 9, 42, 127
1, 406093, Note_on_c, 9, 51, 0
1, 406093, Note_on_c, 9, 42, 0
1, 406319, Note_on_c, 9, 38, 0
1, 406320, Note_on_c, 9, 42, 43
1, 406333, Note_on_c, 9, 42, 0
1, 406560, Note_on_c, 9, 51, 127
1, 406560, Note_on_c, 9, 42, 43
1, 406573, Note_on_c, 9, 51, 0
1, 406573, Note_on_c, 9, 42, 0
1, 406800, Note_on_c, 9, 42, 43
1, 406800, Note_on_c, 9, 36, 127
1, 406813, Note_on_c, 9, 42, 0
1, 407039, Note_on_c, 9, 36, 0
1, 407040, Note_on_c, 9, 51, 127
1, 407040, Note_on_c, 9, 42, 127
1, 407040, Note_on_c, 9, 36, 127
1, 407053, Note_on_c, 9, 51, 0
1, 407053, Note_on_c, 9, 42, 0
1, 407280, Note_on_c, 9, 42, 43
1, 407293, Note_on_c, 9, 42, 0
1, 407519, Note_on_c, 9, 36, 0
1, 407520, Note_on_c, 9, 51, 127
1, 407520, Note_on_c, 9, 42, 43
1, 407520, Note_on_c, 9, 36, 127
1, 407533, Note_on_c, 9, 51, 0
1, 407533, Note_on_c, 9, 42, 0
1, 407760, Note_on_c, 9, 42, 43
1, 407773, Note_on_c, 9, 42, 0
1, 407999, Note_on_c, 9, 36, 0
1, 408000, Note_on_c, 9, 38, 127
1, 408000, Note_on_c, 9, 42, 127
1, 408000, Note_on_c, 9, 49, 87
1, 408000, Note_on_c, 9, 36, 127
1, 408013, Note_on_c, 9, 42, 0
1, 408013, Note_on_c, 9, 49, 0
1, 408239, Note_on_c, 9, 38, 0
1, 408239, Note_on_c, 9, 36, 0
1, 408240, Note_on_c, 9, 42, 43
1, 408240, Note_on_c, 9, 36, 127
1, 408253, Note_on_c, 9, 42, 0
1, 408479, Note_on_c, 9, 36, 0
1, 408480, Note_on_c, 9, 38, 127
1, 408480, Note_on_c, 9, 42, 43
1, 408480, Note_on_c, 9, 49, 87
1, 408480, Note_on_c, 9, 36, 127
1, 408493, Note_on_c, 9, 42, 0
1, 408493, Note_on_c, 9, 49, 0
1, 408719, Note_on_c, 9, 38, 0
1, 408719, Note_on_c, 9, 36, 0
1, 408720, Note_on_c, 9, 42, 43
1, 408720, Note_on_c, 9, 36, 127
1, 408733, Note_on_c, 9, 42, 0
1, 408959, Note_on_c, 9, 36, 0
1, 408960, Note_on_c, 9, 51, 127
1, 408960, Note_on_c, 9, 42, 127
1, 408960, Note_on_c, 9, 49, 87
1, 408960, Note_on_c, 9, 36, 127
1, 408973, Note_on_c, 9, 51, 0
1, 408973, Note_on_c, 9, 42, 0
1, 408973, Note_on_c, 9, 49, 0
1, 409200, Note_on_c, 9, 42, 43
1, 409213, Note_on_c, 9, 42, 0
1, 409439, Note_on_c, 9, 36, 0
1, 409440, Note_on_c, 9, 51, 127
1, 409440, Note_on_c, 9, 42, 43
1, 409453, Note_on_c, 9, 51, 0
1, 409453, Note_on_c, 9, 42, 0
1, 409680, Note_on_c, 9, 42, 43
1, 409693, Note_on_c, 9, 42, 0
1, 409920, Note_on_c, 9, 38, 127
1, 409920, Note_on_c, 9, 51, 127
1, 409920, Note_on_c, 9, 42, 127
1, 409933, Note_on_c, 9, 51, 0
1, 409933, Note_on_c, 9, 42, 0
1, 410159, Note_on_c, 9, 38, 0
1, 410160, Note_on_c, 9, 42, 43
1, 410173, Note_on_c, 9, 42, 0
1, 410400, Note_on_c, 9, 51, 127
1, 410400, Note_on_c, 9, 42, 43
1, 410413, Note_on_c, 9, 51, 0
1, 410413, Note_on_c, 9, 42, 0
1, 410640, Note_on_c, 9, 42, 43
1, 410640, Note_on_c, 9, 36, 127
1, 410653, Note_on_c, 9, 42, 0
1, 410879, Note_on_c, 9, 36, 0
1, 410880, Note_on_c, 9, 51, 127
1, 410880, Note_on_c, 9, 42, 127
1, 410880, Note_on_c, 9, 36, 127
1, 410893, Note_on_c, 9, 51, 0
1, 410893, Note_on_c, 9, 42, 0
1, 411120, Note_on_c, 9, 42, 43
1, 411133, Note_on_c, 9, 42, 0
1, 411359, Note_on_c, 9, 36, 0
1, 411360, Note_on_c, 9, 51, 127
1, 411360, Note_on_c, 9, 42, 43
1, 411360, Note_on_c, 9, 36, 127
1, 411373, Note_on_c, 9, 51, 0
1, 411373, Note_on_c, 9, 42, 0
1, 411600, Note_on_c, 9, 42, 43
1, 411613, Note_on_c, 9, 42, 0
1, 411839, Note_on_c, 9, 36, 0
1, 411840, Note_on_c, 9, 38, 127
1, 411840, Note_on_c, 9, 42, 127
1, 411840, Note_on_c, 9, 49, 87
1, 411840, Note_on_c, 9, 36, 127
1, 411853, Note_on_c, 9, 42, 0
1, 411853, Note_on_c, 9, 49, 0
1, 412079, Note_on_c, 9, 38, 0
1, 412079, Note_on_c, 9, 36, 0
1, 412080, Note_on_c, 9, 42, 43
1, 412080, Note_on_c, 9, 36, 127
1, 412093, Note_on_c, 9, 42, 0
1, 412319, Note_on_c, 9, 36, 0
1, 412320, Note_on_c, 9, 38, 127
1, 412320, Note_on_c, 9, 42, 43
1, 412320, Note_on_c, 9, 49, 87
1, 412320, Note_on_c, 9, 36, 127
1, 412333, Note_on_c, 9, 42, 0
1, 412333, Note_on_c, 9, 49, 0
1, 412559, Note_on_c, 9, 38, 0
1, 412559, Note_on_c, 9, 36, 0
1, 412560, Note_on_c, 9, 42, 43
1, 412560, Note_on_c, 9, 36, 127
1, 412573, Note_on_c, 9, 42, 0
1, 412799, Note_on_c, 9, 36, 0
1, 412800, Note_on_c, 9, 51, 127
1, 412800, Note_on_c, 9, 42, 127
1, 412800, Note_on_c, 9, 49, 87
1, 412800, Note_on_c, 9, 36, 127
1, 412813, Note_on_c, 9, 51, 0
1, 412813, Note_on_c, 9, 42, 0
1, 412813, Note_on_c, 9, 49, 0
1, 413040, Note_on_c, 9, 42, 43
1, 413053, Note_on_c, 9, 42, 0
1, 413279, Note_on_c, 9, 36, 0
1, 413280, Note_on_c, 9, 51, 127
1, 413280, Note_on_c, 9, 42, 43
1, 413293, Note_on_c, 9, 51, 0
1, 413293, Note_on_c, 9, 42, 0
1, 413520, Note_on_c, 9, 42, 43
1, 413533, Note_on_c, 9, 42, 0
1, 413760, Note_on_c, 9, 38, 127
1, 413760, Note_on_c, 9, 51, 127
1, 413760, Note_on_c, 9, 42, 127
1, 413773, Note_on_c, 9, 51, 0
1, 413773, Note_on_c, 9, 42, 0
1, 413999, Note_on_c, 9, 38, 0
1, 414000, Note_on_c, 9, 42, 43
1, 414013, Note_on_c, 9, 42, 0
1, 414240, Note_on_c, 9, 51, 127
1, 414240, Note_on_c, 9, 42, 43
1, 414253, Note_on_c, 9, 51, 0
1, 414253, Note_on_c, 9, 42, 0
1, 414480, Note_on_c, 9, 42, 43
1, 414480, Note_on_c, 9, 36, 127
1, 414493, Note_on_c, 9, 42, 0
1, 414719, Note_on_c, 9, 36, 0
1, 414720, Note_on_c, 9, 51, 127
1, 414720, Note_on_c, 9, 42, 127
1, 414720, Note_on_c, 9, 36, 127
1, 414733, Note_on_c, 9, 51, 0
1, 414733, Note_on_c, 9, 42, 0
1, 414960, Note_on_c, 9, 42, 43
1, 414973, Note_on_c, 9, 42, 0
1, 415199, Note_on_c, 9, 36, 0
1, 415200, Note_on_c, 9, 51, 127
1, 415200, Note_on_c, 9, 42, 43
1, 415200, Note_on_c, 9, 36, 127
1, 415213, Note_on_c, 9, 51, 0
1, 415213, Note_on_c, 9, 42, 0
1, 415440, Note_on_c, 9, 42, 43
1, 415453, Note_on_c, 9, 42, 0
1, 415679, Note_on_c, 9, 36, 0
1, 415680, Note_on_c, 9, 38, 127
1, 415680, Note_on_c, 9, 42, 127
1, 415680, Note_on_c, 9, 49, 87
1, 415680, Note_on_c, 9, 36, 127
1, 415693, Note_on_c, 9, 42, 0
1, 415693, Note_on_c, 9, 49, 0
1, 415919, Note_on_c, 9, 38, 0
1, 415919, Note_on_c, 9, 36, 0
1, 415920, Note_on_c, 9, 42, 43
1, 415920, Note_on_c, 9, 36, 127
1, 415933, Note_on_c, 9, 42, 0
1, 416159, Note_on_c, 9, 36, 0
1, 416160, Note_on_c, 9, 38, 127
1, 416160, Note_on_c, 9, 42, 43
1, 416160, Note_on_c, 9, 49, 87
1, 416160, Note_on_c, 9, 36, 127
1, 416173, Note_on_c, 9, 42, 0
1, 416173, Note_on_c, 9, 49, 0
1, 416399, Note_on_c, 9, 38, 0
1, 416399, Note_on_c, 9, 36, 0
1, 416400, Note_on_c, 9, 42, 43
1, 416400, Note_on_c, 9, 36, 127
1, 416413, Note_on_c, 9, 42, 0
1, 416639, Note_on_c, 9, 36, 0
1, 416640, Note_on_c, 9, 51, 127
1, 416640, Note_on_c, 9, 42, 127
1, 416640, Note_on_c, 9, 49, 87
1, 416640, Note_on_c, 9, 36, 127
1, 416653, Note_on_c, 9, 51, 0
1, 416653, Note_on_c, 9, 42, 0
1, 416653, Note_on_c, 9, 49, 0
1, 416880, Note_on_c, 9, 42, 43
1, 416893, Note_on_c, 9, 42, 0
1, 417119, Note_on_c, 9, 36, 0
1, 417120, Note_on_c, 9, 51, 127
1, 417120, Note_on_c, 9, 42, 43
1, 417133, Note_on_c, 9, 51, 0
1, 417133, Note_on_c, 9, 42, 0
1, 417360, Note_on_c, 9, 42, 43
1, 417373, Note_on_c, 9, 42, 0
1, 417600, Note_on_c, 9, 38, 127
1, 417600, Note_on_c, 9, 51, 127
1, 417600, Note_on_c, 9, 42, 127
1, 417613, Note_on_c, 9, 51, 0
1, 417613, Note_on_c, 9, 42, 0
1, 417839, Note_on_c, 9, 38, 0
1, 417840, Note_on_c, 9, 42, 43
1, 417853, Note_on_c, 9, 42, 0
1, 418080, Note_on_c, 9, 51, 127
1, 418080, Note_on_c, 9, 42, 43
1, 418093, Note_on_c, 9, 51, 0
1, 418093, Note_on_c, 9, 42, 0
1, 418320, Note_on_c, 9, 42, 43
1, 418320, Note_on_c, 9, 36, 127
1, 418333, Note_on_c, 9, 42, 0
1, 418559, Note_on_c, 9, 36, 0
1, 418560, Note_on_c, 9, 51, 127
1, 418560, Note_on_c, 9, 42, 127
1, 418560, Note_on_c, 9, 36, 127
1, 418573, Note_on_c, 9, 51, 0
1, 418573, Note_on_c, 9, 42, 0
1, 418800, Note_on_c, 9, 42, 43
1, 418813, Note_on_c, 9, 42, 0
1, 419039, Note_on_c, 9, 36, 0
1, 419040, Note_on_c, 9, 51, 127
1, 419040, Note_on_c, 9, 42, 43
1, 419040, Note_on_c, 9, 36, 127
1, 419053, Note_on_c, 9, 51, 0
1, 419053, Note_on_c, 9, 42, 0
1, 419280, Note_on_c, 9, 42, 43
1, 419293, Note_on_c, 9, 42, 0
1, 419519, Note_on_c, 9, 36, 0
1, 419520, Note_on_c, 9, 38, 127
1, 419520, Note_on_c, 9, 42, 127
1, 419520, Note_on_c, 9, 49, 87
1, 419520, Note_on_c, 9, 36, 127
1, 419533, Note_on_c, 9, 42, 0
1, 419533, Note_on_c, 9, 49, 0
1, 419759, Note_on_c, 9, 38, 0
1, 419759, Note_on_c, 9, 36, 0
1, 419760, Note_on_c, 9, 42, 43
1, 419760, Note_on_c, 9, 36, 127
1, 419773, Note_on_c, 9, 42, 0
1, 419999, Note_on_c, 9, 36, 0
1, 420000, Note_on_c, 9, 38, 127
1, 420000, Note_on_c, 9, 42, 43
1, 420000, Note_on_c, 9, 49, 87
1, 420000, Note_on_c, 9, 36, 127
1, 420013, Note_on_c, 9, 42, 0
1, 420013, Note_on_c, 9, 49, 0
1, 420239, Note_on_c, 9, 38, 0
1, 420239, Note_on_c, 9, 36, 0
1, 420240, Note_on_c, 9, 42, 43
1, 420240, Note_on_c, 9, 36, 127
1, 420253, Note_on_c, 9, 42, 0
1, 420479, Note_on_c, 9, 36, 0
1, 420480, Note_on_c, 9, 51, 127
1, 420480, Note_on_c, 9, 42, 127
1, 420480, Note_on_c, 9, 49, 87
1, 420480, Note_on_c, 9, 36, 127
1, 420493, Note_on_c, 9, 51, 0
1, 420493, Note_on_c, 9, 42, 0
1, 420493, Note_on_c, 9, 49, 0
1, 420720, Note_on_c, 9, 42, 43
1, 420733, Note_on_c, 9, 42, 0
1, 420959, Note_on_c, 9, 36, 0
1, 420960, Note_on_c, 9, 51, 127
1, 420960, Note_on_c, 9, 42, 43
1, 420973, Note_on_c, 9, 51, 0
1, 420973, Note_on_c, 9, 42, 0
1, 421200, Note_on_c, 9, 42, 43
1, 421213, Note_on_c, 9, 42, 0
1, 421440, Note_on_c, 9, 38, 127
1, 421440, Note_on_c, 9, 51, 127
1, 421440, Note_on_c, 9, 42, 127
1, 421453, Note_on_c, 9, 51, 0
1, 421453, Note_on_c, 9, 42, 0
1, 421679, Note_on_c, 9, 38, 0
1, 421680, Note_on_c, 9, 42, 43
1, 421693, Note_on_c, 9, 42, 0
1, 421920, Note_on_c, 9, 51, 127
1, 421920, Note_on_c, 9, 42, 43
1, 421933, Note_on_c, 9, 51, 0
1, 421933, Note_on_c, 9, 42, 0
1, 422160, Note_on_c, 9, 42, 43
1, 422160, Note_on_c, 9, 36, 127
1, 422173, Note_on_c, 9, 42, 0
1, 422399, Note_on_c, 9, 36, 0
1, 422400, Note_on_c, 9, 51, 127
1, 422400, Note_on_c, 9, 42, 127
1, 422400, Note_on_c, 9, 36, 127
1, 422413, Note_on_c, 9, 51, 0
1, 422413, Note_on_c, 9, 42, 0
1, 422640, Note_on_c, 9, 42, 43
1, 422653, Note_on_c, 9, 42, 0
1, 422879, Note_on_c, 9, 36, 0
1, 422880, Note_on_c, 9, 51, 127
1, 422880, Note_on_c, 9, 42, 43
1, 422880, Note_on_c, 9, 36, 127
1, 422893, Note_on_c, 9, 51, 0
1, 422893, Note_on_c, 9, 42, 0
1, 423120, Note_on_c, 9, 42, 43
1, 423133, Note_on_c, 9, 42, 0
1, 423359, Note_on_c, 9, 36, 0
1, 423360, Note_on_c, 9, 38, 127
1, 423360, Note_on_c, 9, 42, 127
1, 423360, Note_on_c, 9, 49, 87
1, 423360, Note_on_c, 9, 36, 127
1, 423373, Note_on_c, 9, 42, 0
1, 423373, Note_on_c, 9, 49, 0
1, 423599, Note_on_c, 9, 38, 0
1, 423599, Note_on_c, 9, 36, 0
1, 423600, Note_on_c, 9, 42, 43
1, 423600, Note_on_c, 9, 36, 127
1, 423613, Note_on_c, 9, 42, 0
1, 423839, Note_on_c, 9, 36, 0
1, 423840, Note_on_c, 9, 38, 127
1, 423840, Note_on_c, 9, 42, 43
1, 423840, Note_on_c, 9, 49, 87
1, 423840, Note_on_c, 9, 36, 127
1, 423853, Note_on_c, 9, 42, 0
1, 423853, Note_on_c, 9, 49, 0
1, 424079, Note_on_c, 9, 38, 0
1, 424079, Note_on_c, 9, 36, 0
1, 424080, Note_on_c, 9, 42, 43
1, 424080, Note_on_c, 9, 36, 127
1, 424093, Note_on_c, 9, 42, 0
1, 424319, Note_on_c, 9, 36, 0
1, 424320, Note_on_c, 9, 51, 127
1, 424320, Note_on_c, 9, 42, 127
1, 424320, Note_on_c, 9, 49, 87
1, 424320, Note_on_c, 9, 36, 127
1, 424333, Note_on_c, 9, 51, 0
1, 424333, Note_on_c, 9, 42, 0
1, 424333, Note_on_c, 9, 49, 0
1, 424560, Note_on_c, 9, 42, 43
1, 424573, Note_on_c, 9, 42, 0
1, 424799, Note_on_c, 9, 36, 0
1, 424800, Note_on_c, 9, 51, 127
1, 424800, Note_on_c, 9, 42, 43
1, 424813, Note_on_c, 9, 51, 0
1, 424813, Note_on_c, 9, 42, 0
1, 425040, Note_on_c, 9, 42, 43
1, 425053, Note_on_c, 9, 42, 0
1, 425280, Note_on_c, 9, 38, 127
1, 425280, Note_on_c, 9, 51, 127
1, 425280, Note_on_c, 9, 42, 127
1, 425293, Note_on_c, 9, 51, 0
1, 425293, Note_on_c, 9, 42, 0
1, 425519, Note_on_c, 9, 38, 0
1, 425520, Note_on_c, 9, 42, 43
1, 425533, Note_on_c, 9, 42, 0
1, 425760, Note_on_c, 9, 51, 127
1, 425760, Note_on_c, 9, 42, 43
1, 425773, Note_on_c, 9, 51, 0
1, 425773, Note_on_c, 9, 42, 0
1, 426000, Note_on_c, 9, 42, 43
1, 426000, Note_on_c, 9, 36, 127
1, 426013, Note_on_c, 9, 42, 0
1, 426239, Note_on_c, 9, 36, 0
1, 426240, Note_on_c, 9, 51, 127
1, 426240, Note_on_c, 9, 42, 127
1, 426240, Note_on_c, 9, 36, 127
1, 426253, Note_on_c, 9, 51, 0
1, 426253, Note_on_c, 9, 42, 0
1, 426480, Note_on_c, 9, 42, 43
1, 426493, Note_on_c, 9, 42, 0
1, 426719, Note_on_c, 9, 36, 0
1, 426720, Note_on_c, 9, 51, 127
1, 426720, Note_on_c, 9, 42, 43
1, 426720, Note_on_c, 9, 36, 127
1, 426733, Note_on_c, 9, 51, 0
1, 426733, Note_on_c, 9, 42, 0
1, 426960, Note_on_c, 9, 42, 43
1, 426973, Note_on_c, 9, 42, 0
1, 427199, Note_on_c, 9, 36, 0
1, 427200, Note_on_c, 9, 38, 127
1, 427200, Note_on_c, 9, 42, 127
1, 427200, Note_on_c, 9, 49, 87
1, 427200, Note_on_c, 9, 36, 127
1, 427213, Note_on_c, 9, 42, 0
1, 427213, Note_on_c, 9, 49, 0
1, 427439, Note_on_c, 9, 38, 0
1, 427439, Note_on_c, 9, 36, 0
1, 427440, Note_on_c, 9, 42, 43
1, 427440, Note_on_c, 9, 36, 127
1, 427453, Note_on_c, 9, 42, 0
1, 427679, Note_on_c, 9, 36, 0
1, 427680, Note_on_c, 9, 38, 127
1, 427680, Note_on_c, 9, 42, 43
1, 427680, Note_on_c, 9, 49, 87
1, 427680, Note_on_c, 9, 36, 127
1, 427693, Note_on_c, 9, 42, 0
1, 427693, Note_on_c, 9, 49, 0
1, 427919, Note_on_c, 9, 38, 0
1, 427919, Note_on_c, 9, 36, 0
1, 427920, Note_on_c, 9, 42, 43
1, 427920, Note_on_c, 9, 36, 127
1, 427933, Note_on_c, 9, 42, 0
1, 428159, Note_on_c, 9, 36, 0
1, 428160, Note_on_c, 9, 51, 127
1, 428160, Note_on_c, 9, 42, 127
1, 428160, Note_on_c, 9, 36, 127
1, 428173, Note_on_c, 9, 51, 0
1, 428173, Note_on_c, 9, 42, 0
1, 428400, Note_on_c, 9, 42, 43
1, 428413, Note_on_c, 9, 42, 0
1, 428639, Note_on_c, 9, 36, 0
1, 428640, Note_on_c, 9, 51, 127
1, 428640, Note_on_c, 9, 42, 43
1, 428653, Note_on_c, 9, 51, 0
1, 428653, Note_on_c, 9, 42, 0
1, 428880, Note_on_c, 9, 42, 43
1, 428893, Note_on_c, 9, 42, 0
1, 429120, Note_on_c, 9, 38, 127
1, 429120, Note_on_c, 9, 51, 127
1, 429120, Note_on_c, 9, 42, 127
1, 429133, Note_on_c, 9, 51, 0
1, 429133, Note_on_c, 9, 42, 0
1, 429359, Note_on_c, 9, 38, 0
1, 429360, Note_on_c, 9, 48, 127
1, 429360, Note_on_c, 9, 42, 43
1, 429373, Note_on_c, 9, 42, 0
1, 429599, Note_on_c, 9, 48, 0
1, 429600, Note_on_c, 9, 51, 127
1, 429600, Note_on_c, 9, 42, 43
1, 429613, Note_on_c, 9, 51, 0
1, 429613, Note_on_c, 9, 42, 0
1, 429840, Note_on_c, 9, 38, 25
1, 429840, Note_on_c, 9, 45, 127
1, 429840, Note_on_c, 9, 42, 43
1, 429840, Note_on_c, 9, 36, 127
1, 429846, Note_on_c, 9, 42, 0
1, 429959, Note_on_c, 9, 38, 0
1, 429959, Note_on_c, 9, 45, 0
1, 429960, Note_on_c, 9, 38, 25
1, 430079, Note_on_c, 9, 36, 0
1, 430079, Note_on_c, 9, 38, 0
1, 430080, Note_on_c, 9, 38, 127
1, 430080, Note_on_c, 9, 42, 127
1, 430080, Note_on_c, 9, 36, 127
1, 430093, Note_on_c, 9, 42, 0
1, 430319, Note_on_c, 9, 38, 0
1, 430320, Note_on_c, 9, 48, 127
1, 430320, Note_on_c, 9, 42, 43
1, 430333, Note_on_c, 9, 42, 0
1, 430559, Note_on_c, 9, 36, 0
1, 430559, Note_on_c, 9, 48, 0
1, 430560, Note_on_c, 9, 45, 127
1, 430560, Note_on_c, 9, 42, 43
1, 430560, Note_on_c, 9, 36, 127
1, 430573, Note_on_c, 9, 42, 0
1, 430799, Note_on_c, 9, 45, 0
1, 430800, Note_on_c, 9, 38, 43
1, 430800, Note_on_c, 9, 42, 43
1, 430806, Note_on_c, 9, 42, 0
1, 430919, Note_on_c, 9, 38, 0
1, 430920, Note_on_c, 9, 38, 43
1, 430920, Note_on_c, 9, 45, 127
1, 431039, Note_on_c, 9, 36, 0
1, 431039, Note_on_c, 9, 38, 0
1, 431039, Note_on_c, 9, 45, 0
1, 431040, Note_on_c, 9, 38, 127
1, 431040, Note_on_c, 9, 42, 127
1, 431040, Note_on_c, 9, 36, 127
1, 431053, Note_on_c, 9, 42, 0
1, 431279, Note_on_c, 9, 38, 0
1, 431279, Note_on_c, 9, 36, 0
1, 431280, Note_on_c, 9, 38, 43
1, 431280, Note_on_c, 9, 45, 127
1, 431280, Note_on_c, 9, 42, 43
1, 431280, Note_on_c, 9, 36, 127
1, 431293, Note_on_c, 9, 42, 0
1, 431519, Note_on_c, 9, 38, 0
1, 431519, Note_on_c, 9, 45, 0
1, 431519, Note_on_c, 9, 36, 0
1, 431520, Note_on_c, 9, 38, 127
1, 431520, Note_on_c, 9, 42, 43
1, 431520, Note_on_c, 9, 36, 127
1, 431520, Note_on_c, 9, 43, 127
1, 431533, Note_on_c, 9, 42, 0
1, 431759, Note_on_c, 9, 38, 0
1, 431759, Note_on_c, 9, 36, 0
1, 431759, Note_on_c, 9, 43, 0
1, 431760, Note_on_c, 9, 38, 127
1, 431760, Note_on_c, 9, 42, 43
1, 431760, Note_on_c, 9, 36, 127
1, 431773, Note_on_c, 9, 42, 0
1, 431999, Note_on_c, 9, 38, 0
1, 431999, Note_on_c, 9, 36, 0
1, 432000, Note_on_c, 9, 51, 127
1, 432000, Note_on_c, 9, 42, 127
1, 432000, Note_on_c, 9, 49, 87
1, 432000, Note_on_c, 9, 36, 127
1, 432013, Note_on_c, 9, 51, 0
1, 432013, Note_on_c, 9, 42, 0
1, 432013, Note_on_c, 9, 49, 0
1, 432240, Note_on_c, 9, 42, 43
1, 432253, Note_on_c, 9, 42, 0
1, 432479, Note_on_c, 9, 36, 0
1, 432480, Note_on_c, 9, 51, 127
1, 432480, Note_on_c, 9, 42, 43
1, 432493, Note_on_c, 9, 51, 0
1, 432493, Note_on_c, 9, 42, 0
1, 432720, Note_on_c, 9, 42, 43
1, 432733, Note_on_c, 9, 42, 0
1, 432960, Note_on_c, 9, 38, 127
1, 432960, Note_on_c, 9, 51, 127
1, 432960, Note_on_c, 9, 42, 127
1, 432973, Note_on_c, 9, 51, 0
1, 432973, Note_on_c, 9, 42, 0
1, 433199, Note_on_c, 9, 38, 0
1, 433200, Note_on_c, 9, 42, 43
1, 433213, Note_on_c, 9, 42, 0
1, 433440, Note_on_c, 9, 51, 127
1, 433440, Note_on_c, 9, 42, 43
1, 433453, Note_on_c, 9, 51, 0
1, 433453, Note_on_c, 9, 42, 0
1, 433680, Note_on_c, 9, 42, 43
1, 433680, Note_on_c, 9, 36, 127
1, 433693, Note_on_c, 9, 42, 0
1, 433919, Note_on_c, 9, 36, 0
1, 433920, Note_on_c, 9, 51, 127
1, 433920, Note_on_c, 9, 42, 127
1, 433920, Note_on_c, 9, 36, 127
1, 433933, Note_on_c, 9, 51, 0
1, 433933, Note_on_c, 9, 42, 0
1, 434160, Note_on_c, 9, 42, 43
1, 434173, Note_on_c, 9, 42, 0
1, 434399, Note_on_c, 9, 36, 0
1, 434400, Note_on_c, 9, 51, 127
1, 434400, Note_on_c, 9, 42, 43
1, 434400, Note_on_c, 9, 36, 127
1, 434413, Note_on_c, 9, 51, 0
1, 434413, Note_on_c, 9, 42, 0
1, 434640, Note_on_c, 9, 42, 43
1, 434653, Note_on_c, 9, 42, 0
1, 434879, Note_on_c, 9, 36, 0
1, 434880, Note_on_c, 9, 38, 127
1, 434880, Note_on_c, 9, 42, 127
1, 434880, Note_on_c, 9, 49, 87
1, 434880, Note_on_c, 9, 36, 127
1, 434893, Note_on_c, 9, 42, 0
1, 434893, Note_on_c, 9, 49, 0
1, 435119, Note_on_c, 9, 38, 0
1, 435119, Note_on_c, 9, 36, 0
1, 435120, Note_on_c, 9, 42, 43
1, 435120, Note_on_c, 9, 36, 127
1, 435133, Note_on_c, 9, 42, 0
1, 435359, Note_on_c, 9, 36, 0
1, 435360, Note_on_c, 9, 38, 127
1, 435360, Note_on_c, 9, 42, 43
1, 435360, Note_on_c, 9, 49, 87
1, 435360, Note_on_c, 9, 36, 127
1, 435373, Note_on_c, 9, 42, 0
1, 435373, Note_on_c, 9, 49, 0
1, 435599, Note_on_c, 9, 38, 0
1, 435599, Note_on_c, 9, 36, 0
1, 435600, Note_on_c, 9, 42, 43
1, 435600, Note_on_c, 9, 36, 127
1, 435613, Note_on_c, 9, 42, 0
1, 435839, Note_on_c, 9, 36, 0
1, 435840, Note_on_c, 9, 51, 127
1, 435840, Note_on_c, 9, 42, 127
1, 435840, Note_on_c, 9, 49, 87
1, 435840, Note_on_c, 9, 36, 127
1, 435853, Note_on_c, 9, 51, 0
1, 435853, Note_on_c, 9, 42, 0
1, 435853, Note_on_c, 9, 49, 0
1, 436080, Note_on_c, 9, 42, 43
1, 436093, Note_on_c, 9, 42, 0
1, 436319, Note_on_c, 9, 36, 0
1, 436320, Note_on_c, 9, 51, 127
1, 436320, Note_on_c, 9, 42, 43
1, 436333, Note_on_c, 9, 51, 0
1, 436333, Note_on_c, 9, 42, 0
1, 436560, Note_on_c, 9, 42, 43
1, 436573, Note_on_c, 9, 42, 0
1, 436800, Note_on_c, 9, 38, 127
1, 436800, Note_on_c, 9, 51, 127
1, 436800, Note_on_c, 9, 42, 127
1, 436813, Note_on_c, 9, 51, 0
1, 436813, Note_on_c, 9, 42, 0
1, 437039, Note_on_c, 9, 38, 0
1, 437040, Note_on_c, 9, 42, 43
1, 437053, Note_on_c, 9, 42, 0
1, 437280, Note_on_c, 9, 51, 127
1, 437280, Note_on_c, 9, 42, 43
1, 437293, Note_on_c, 9, 51, 0
1, 437293, Note_on_c, 9, 42, 0
1, 437520, Note_on_c, 9, 42, 43
1, 437520, Note_on_c, 9, 36, 127
1, 437533, Note_on_c, 9, 42, 0
1, 437759, Note_on_c, 9, 36, 0
1, 437760, Note_on_c, 9, 51, 127
1, 437760, Note_on_c, 9, 42, 127
1, 437760, Note_on_c, 9, 36, 127
1, 437773, Note_on_c, 9, 51, 0
1, 437773, Note_on_c, 9, 42, 0
1, 438000, Note_on_c, 9, 42, 43
1, 438013, Note_on_c, 9, 42, 0
1, 438239, Note_on_c, 9, 36, 0
1, 438240, Note_on_c, 9, 51, 127
1, 438240, Note_on_c, 9, 42, 43
1, 438240, Note_on_c, 9, 36, 127
1, 438253, Note_on_c, 9, 51, 0
1, 438253, Note_on_c, 9, 42, 0
1, 438480, Note_on_c, 9, 42, 43
1, 438493, Note_on_c, 9, 42, 0
1, 438719, Note_on_c, 9, 36, 0
1, 438720, Note_on_c, 9, 38, 127
1, 438720, Note_on_c, 9, 42, 127
1, 438720, Note_on_c, 9, 49, 87
1, 438720, Note_on_c, 9, 36, 127
1, 438733, Note_on_c, 9, 42, 0
1, 438733, Note_on_c, 9, 49, 0
1, 438959, Note_on_c, 9, 38, 0
1, 438959, Note_on_c, 9, 36, 0
1, 438960, Note_on_c, 9, 42, 43
1, 438960, Note_on_c, 9, 36, 127
1, 438973, Note_on_c, 9, 42, 0
1, 439199, Note_on_c, 9, 36, 0
1, 439200, Note_on_c, 9, 38, 127
1, 439200, Note_on_c, 9, 42, 43
1, 439200, Note_on_c, 9, 49, 87
1, 439200, Note_on_c, 9, 36, 127
1, 439213, Note_on_c, 9, 42, 0
1, 439213, Note_on_c, 9, 49, 0
1, 439439, Note_on_c, 9, 38, 0
1, 439439, Note_on_c, 9, 36, 0
1, 439440, Note_on_c, 9, 42, 43
1, 439440, Note_on_c, 9, 36, 127
1, 439453, Note_on_c, 9, 42, 0
1, 439679, Note_on_c, 9, 36, 0
1, 439680, Note_on_c, 9, 51, 127
1, 439680, Note_on_c, 9, 42, 127
1, 439680, Note_on_c, 9, 49, 87
1, 439680, Note_on_c, 9, 36, 127
1, 439693, Note_on_c, 9, 51, 0
1, 439693, Note_on_c, 9, 42, 0
1, 439693, Note_on_c, 9, 49, 0
1, 439920, Note_on_c, 9, 42, 43
1, 439933, Note_on_c, 9, 42, 0
1, 440159, Note_on_c, 9, 36, 0
1, 440160, Note_on_c, 9, 51, 127
1, 440160, Note_on_c, 9, 42, 43
1, 440173, Note_on_c, 9, 51, 0
1, 440173, Note_on_c, 9, 42, 0
1, 440400, Note_on_c, 9, 42, 43
1, 440413, Note_on_c, 9, 42, 0
1, 440640, Note_on_c, 9, 38, 127
1, 440640, Note_on_c, 9, 51, 127
1, 440640, Note_on_c, 9, 42, 127
1, 440653, Note_on_c, 9, 51, 0
1, 440653, Note_on_c, 9, 42, 0
1, 440879, Note_on_c, 9, 38, 0
1, 440880, Note_on_c, 9, 42, 43
1, 440893, Note_on_c, 9, 42, 0
1, 441120, Note_on_c, 9, 51, 127
1, 441120, Note_on_c, 9, 42, 43
1, 441133, Note_on_c, 9, 51, 0
1, 441133, Note_on_c, 9, 42, 0
1, 441360, Note_on_c, 9, 42, 43
1, 441360, Note_on_c, 9, 36, 127
1, 441373, Note_on_c, 9, 42, 0
1, 441599, Note_on_c, 9, 36, 0
1, 441600, Note_on_c, 9, 51, 127
1, 441600, Note_on_c, 9, 42, 127
1, 441600, Note_on_c, 9, 36, 127
1, 441613, Note_on_c, 9, 51, 0
1, 441613, Note_on_c, 9, 42, 0
1, 441840, Note_on_c, 9, 42, 43
1, 441853, Note_on_c, 9, 42, 0
1, 442079, Note_on_c, 9, 36, 0
1, 442080, Note_on_c, 9, 51, 127
1, 442080, Note_on_c, 9, 42, 43
1, 442080, Note_on_c, 9, 36, 127
1, 442093, Note_on_c, 9, 51, 0
1, 442093, Note_on_c, 9, 42, 0
1, 442320, Note_on_c, 9, 42, 43
1, 442333, Note_on_c, 9, 42, 0
1, 442559, Note_on_c, 9, 36, 0
1, 442560, Note_on_c, 9, 38, 127
1, 442560, Note_on_c, 9, 42, 127
1, 442560, Note_on_c, 9, 49, 87
1, 442560, Note_on_c, 9, 36, 127
1, 442573, Note_on_c, 9, 42, 0
1, 442573, Note_on_c, 9, 49, 0
1, 442799, Note_on_c, 9, 38, 0
1, 442799, Note_on_c, 9, 36, 0
1, 442800, Note_on_c, 9, 42, 43
1, 442800, Note_on_c, 9, 36, 127
1, 442813, Note_on_c, 9, 42, 0
1, 443039, Note_on_c, 9, 36, 0
1, 443040, Note_on_c, 9, 38, 127
1, 443040, Note_on_c, 9, 42, 43
1, 443040, Note_on_c, 9, 49, 87
1, 443040, Note_on_c, 9, 36, 127
1, 443053, Note_on_c, 9, 42, 0
1, 443053, Note_on_c, 9, 49, 0
1, 443279, Note_on_c, 9, 38, 0
1, 443279, Note_on_c, 9, 36, 0
1, 443280, Note_on_c, 9, 42, 43
1, 443280, Note_on_c, 9, 36, 127
1, 443293, Note_on_c, 9, 42, 0
1, 443519, Note_on_c, 9, 36, 0
1, 443520, Note_on_c, 9, 51, 127
1, 443520, Note_on_c, 9, 42, 127
1, 443520, Note_on_c, 9, 49, 87
1, 443520, Note_on_c, 9, 36, 127
1, 443533, Note_on_c, 9, 51, 0
1, 443533, Note_on_c, 9, 42, 0
1, 443533, Note_on_c, 9, 49, 0
1, 443760, Note_on_c, 9, 42, 43
1, 443773, Note_on_c, 9, 42, 0
1, 443999, Note_on_c, 9, 36, 0
1, 444000, Note_on_c, 9, 51, 127
1, 444000, Note_on_c, 9, 42, 43
1, 444013, Note_on_c, 9, 51, 0
1, 444013, Note_on_c, 9, 42, 0
1, 444240, Note_on_c, 9, 42, 43
1, 444253, Note_on_c, 9, 42, 0
1, 444480, Note_on_c, 9, 38, 127
1, 444480, Note_on_c, 9, 51, 127
1, 444480, Note_on_c, 9, 42, 127
1, 444493, Note_on_c, 9, 51, 0
1, 444493, Note_on_c, 9, 42, 0
1, 444719, Note_on_c, 9, 38, 0
1, 444720, Note_on_c, 9, 42, 43
1, 444733, Note_on_c, 9, 42, 0
1, 444960, Note_on_c, 9, 51, 127
1, 444960, Note_on_c, 9, 42, 43
1, 444973, Note_on_c, 9, 51, 0
1, 444973, Note_on_c, 9, 42, 0
1, 445200, Note_on_c, 9, 42, 43
1, 445200, Note_on_c, 9, 36, 127
1, 445213, Note_on_c, 9, 42, 0
1, 445439, Note_on_c, 9, 36, 0
1, 445440, Note_on_c, 9, 51, 127
1, 445440, Note_on_c, 9, 42, 127
1, 445440, Note_on_c, 9, 36, 127
1, 445453, Note_on_c, 9, 51, 0
1, 445453, Note_on_c, 9, 42, 0
1, 445680, Note_on_c, 9, 42, 43
1, 445693, Note_on_c, 9, 42, 0
1, 445919, Note_on_c, 9, 36, 0
1, 445920, Note_on_c, 9, 51, 127
1, 445920, Note_on_c, 9, 42, 43
1, 445920, Note_on_c, 9, 36, 127
1, 445933, Note_on_c, 9, 51, 0
1, 445933, Note_on_c, 9, 42, 0
1, 446160, Note_on_c, 9, 42, 43
1, 446173, Note_on_c, 9, 42, 0
1, 446399, Note_on_c, 9, 36, 0
1, 446400, Note_on_c, 9, 38, 127
1, 446400, Note_on_c, 9, 42, 127
1, 446400, Note_on_c, 9, 49, 87
1, 446400, Note_on_c, 9, 36, 127
1, 446413, Note_on_c, 9, 42, 0
1, 446413, Note_on_c, 9, 49, 0
1, 446639, Note_on_c, 9, 38, 0
1, 446639, Note_on_c, 9, 36, 0
1, 446640, Note_on_c, 9, 42, 43
1, 446640, Note_on_c, 9, 36, 127
1, 446653, Note_on_c, 9, 42, 0
1, 446879, Note_on_c, 9, 36, 0
1, 446880, Note_on_c, 9, 38, 127
1, 446880, Note_on_c, 9, 42, 43
1, 446880, Note_on_c, 9, 49, 87
1, 446880, Note_on_c, 9, 36, 127
1, 446893, Note_on_c, 9, 42, 0
1, 446893, Note_on_c, 9, 49, 0
1, 447119, Note_on_c, 9, 38, 0
1, 447119, Note_on_c, 9, 36, 0
1, 447120, Note_on_c, 9, 42, 43
1, 447120, Note_on_c, 9, 36, 127
1, 447133, Note_on_c, 9, 42, 0
1, 447359, Note_on_c, 9, 36, 0
1, 447360, Note_on_c, 9, 51, 127
1, 447360, Note_on_c, 9, 42, 127
1, 447360, Note_on_c, 9, 49, 87
1, 447360, Note_on_c, 9, 36, 127
1, 447373, Note_on_c, 9, 51, 0
1, 447373, Note_on_c, 9, 42, 0
1, 447373, Note_on_c, 9, 49, 0
1, 447600, Note_on_c, 9, 42, 43
1, 447613, Note_on_c, 9, 42, 0
1, 447839, Note_on_c, 9, 36, 0
1, 447840, Note_on_c, 9, 51, 127
1, 447840, Note_on_c, 9, 42, 43
1, 447853, Note_on_c, 9, 51, 0
1, 447853, Note_on_c, 9, 42, 0
1, 448080, Note_on_c, 9, 42, 43
1, 448093, Note_on_c, 9, 42, 0
1, 448320, Note_on_c, 9, 38, 127
1, 448320, Note_on_c, 9, 51, 127
1, 448320, Note_on_c, 9, 42, 127
1, 448333, Note_on_c, 9, 51, 0
1, 448333, Note_on_c, 9, 42, 0
1, 448559, Note_on_c, 9, 38, 0
1, 448560, Note_on_c, 9, 42, 43
1, 448573, Note_on_c, 9, 42, 0
1, 448800, Note_on_c, 9, 51, 127
1, 448800, Note_on_c, 9, 42, 43
1, 448813, Note_on_c, 9, 51, 0
1, 448813, Note_on_c, 9, 42, 0
1, 449040, Note_on_c, 9, 42, 43
1, 449040, Note_on_c, 9, 36, 127
1, 449053, Note_on_c, 9, 42, 0
1, 449279, Note_on_c, 9, 36, 0
1, 449280, Note_on_c, 9, 51, 127
1, 449280, Note_on_c, 9, 42, 127
1, 449280, Note_on_c, 9, 36, 127
1, 449293, Note_on_c, 9, 51, 0
1, 449293, Note_on_c, 9, 42, 0
1, 449520, Note_on_c, 9, 42, 43
1, 449533, Note_on_c, 9, 42, 0
1, 449759, Note_on_c, 9, 36, 0
1, 449760, Note_on_c, 9, 51, 127
1, 449760, Note_on_c, 9, 42, 43
1, 449760, Note_on_c, 9, 36, 127
1, 449773, Note_on_c, 9, 51, 0
1, 449773, Note_on_c, 9, 42, 0
1, 450000, Note_on_c, 9, 42, 43
1, 450013, Note_on_c, 9, 42, 0
1, 450239, Note_on_c, 9, 36, 0
1, 450240, Note_on_c, 9, 38, 127
1, 450240, Note_on_c, 9, 42, 127
1, 450240, Note_on_c, 9, 49, 87
1, 450240, Note_on_c, 9, 36, 127
1, 450253, Note_on_c, 9, 42, 0
1, 450253, Note_on_c, 9, 49, 0
1, 450479, Note_on_c, 9, 38, 0
1, 450479, Note_on_c, 9, 36, 0
1, 450480, Note_on_c, 9, 42, 43
1, 450480, Note_on_c, 9, 36, 127
1, 450493, Note_on_c, 9, 42, 0
1, 450719, Note_on_c, 9, 36, 0
1, 450720, Note_on_c, 9, 38, 127
1, 450720, Note_on_c, 9, 42, 43
1, 450720, Note_on_c, 9, 49, 87
1, 450720, Note_on_c, 9, 36, 127
1, 450733, Note_on_c, 9, 42, 0
1, 450733, Note_on_c, 9, 49, 0
1, 450959, Note_on_c, 9, 38, 0
1, 450959, Note_on_c, 9, 36, 0
1, 450960, Note_on_c, 9, 42, 43
1, 450960, Note_on_c, 9, 36, 127
1, 450973, Note_on_c, 9, 42, 0
1, 451199, Note_on_c, 9, 36, 0
1, 451200, Note_on_c, 9, 51, 127
1, 451200, Note_on_c, 9, 42, 127
1, 451200, Note_on_c, 9, 49, 87
1, 451200, Note_on_c, 9, 36, 127
1, 451213, Note_on_c, 9, 51, 0
1, 451213, Note_on_c, 9, 42, 0
1, 451213, Note_on_c, 9, 49, 0
1, 451440, Note_on_c, 9, 42, 43
1, 451453, Note_on_c, 9, 42, 0
1, 451679, Note_on_c, 9, 36, 0
1, 451680, Note_on_c, 9, 51, 127
1, 451680, Note_on_c, 9, 42, 43
1, 451693, Note_on_c, 9, 51, 0
1, 451693, Note_on_c, 9, 42, 0
1, 451920, Note_on_c, 9, 42, 43
1, 451933, Note_on_c, 9, 42, 0
1, 452160, Note_on_c, 9, 38, 127
1, 452160, Note_on_c, 9, 51, 127
1, 452160, Note_on_c, 9, 42, 127
1, 452173, Note_on_c, 9, 51, 0
1, 452173, Note_on_c, 9, 42, 0
1, 452399, Note_on_c, 9, 38, 0
1, 452400, Note_on_c, 9, 42, 43
1, 452413, Note_on_c, 9, 42, 0
1, 452640, Note_on_c, 9, 51, 127
1, 452640, Note_on_c, 9, 42, 43
1, 452653, Note_on_c, 9, 51, 0
1, 452653, Note_on_c, 9, 42, 0
1, 452880, Note_on_c, 9, 42, 43
1, 452880, Note_on_c, 9, 36, 127
1, 452893, Note_on_c, 9, 42, 0
1, 453119, Note_on_c, 9, 36, 0
1, 453120, Note_on_c, 9, 51, 127
1, 453120, Note_on_c, 9, 42, 127
1, 453120, Note_on_c, 9, 36, 127
1, 453133, Note_on_c, 9, 51, 0
1, 453133, Note_on_c, 9, 42, 0
1, 453360, Note_on_c, 9, 42, 43
1, 453373, Note_on_c, 9, 42, 0
1, 453599, Note_on_c, 9, 36, 0
1, 453600, Note_on_c, 9, 51, 127
1, 453600, Note_on_c, 9, 42, 43
1, 453600, Note_on_c, 9, 36, 127
1, 453613, Note_on_c, 9, 51, 0
1, 453613, Note_on_c, 9, 42, 0
1, 453840, Note_on_c, 9, 42, 43
1, 453853, Note_on_c, 9, 42, 0
1, 454079, Note_on_c, 9, 36, 0
1, 454080, Note_on_c, 9, 38, 127
1, 454080, Note_on_c, 9, 42, 127
1, 454080, Note_on_c, 9, 49, 87
1, 454080, Note_on_c, 9, 36, 127
1, 454093, Note_on_c, 9, 42, 0
1, 454093, Note_on_c, 9, 49, 0
1, 454319, Note_on_c, 9, 38, 0
1, 454319, Note_on_c, 9, 36, 0
1, 454320, Note_on_c, 9, 42, 43
1, 454320, Note_on_c, 9, 36, 127
1, 454333, Note_on_c, 9, 42, 0
1, 454559, Note_on_c, 9, 36, 0
1, 454560, Note_on_c, 9, 38, 127
1, 454560, Note_on_c, 9, 42, 43
1, 454560, Note_on_c, 9, 49, 87
1, 454560, Note_on_c, 9, 36, 127
1, 454573, Note_on_c, 9, 42, 0
1, 454573, Note_on_c, 9, 49, 0
1, 454799, Note_on_c, 9, 38, 0
1, 454799, Note_on_c, 9, 36, 0
1, 454800, Note_on_c, 9, 42, 43
1, 454800, Note_on_c, 9, 36, 127
1, 454813, Note_on_c, 9, 42, 0
1, 455039, Note_on_c, 9, 36, 0
1, 455040, Note_on_c, 9, 51, 127
1, 455040, Note_on_c, 9, 42, 127
1, 455040, Note_on_c, 9, 49, 87
1, 455040, Note_on_c, 9, 36, 127
1, 455053, Note_on_c, 9, 51, 0
1, 455053, Note_on_c, 9, 42, 0
1, 455053, Note_on_c, 9, 49, 0
1, 455280, Note_on_c, 9, 42, 43
1, 455293, Note_on_c, 9, 42, 0
1, 455519, Note_on_c, 9, 36, 0
1, 455520, Note_on_c, 9, 51, 127
1, 455520, Note_on_c, 9, 42, 43
1, 455533, Note_on_c, 9, 51, 0
1, 455533, Note_on_c, 9, 42, 0
1, 455760, Note_on_c, 9, 42, 43
1, 455773, Note_on_c, 9, 42, 0
1, 456000, Note_on_c, 9, 38, 127
1, 456000, Note_on_c, 9, 51, 127
1, 456000, Note_on_c, 9, 42, 127
1, 456013, Note_on_c, 9, 51, 0
1, 456013, Note_on_c, 9, 42, 0
1, 456239, Note_on_c, 9, 38, 0
1, 456240, Note_on_c, 9, 42, 43
1, 456253, Note_on_c, 9, 42, 0
1, 456480, Note_on_c, 9, 51, 127
1, 456480, Note_on_c, 9, 42, 43
1, 456493, Note_on_c, 9, 51, 0
1, 456493, Note_on_c, 9, 42, 0
1, 456720, Note_on_c, 9, 42, 43
1, 456720, Note_on_c, 9, 36, 127
1, 456733, Note_on_c, 9, 42, 0
1, 456959, Note_on_c, 9, 36, 0
1, 456960, Note_on_c, 9, 51, 127
1, 456960, Note_on_c, 9, 42, 127
1, 456960, Note_on_c, 9, 36, 127
1, 456973, Note_on_c, 9, 51, 0
1, 456973, Note_on_c, 9, 42, 0
1, 457200, Note_on_c, 9, 42, 43
1, 457213, Note_on_c, 9, 42, 0
1, 457439, Note_on_c, 9, 36, 0
1, 457440, Note_on_c, 9, 51, 127
1, 457440, Note_on_c, 9, 42, 43
1, 457440, Note_on_c, 9, 36, 127
1, 457453, Note_on_c, 9, 51, 0
1, 457453, Note_on_c, 9, 42, 0
1, 457680, Note_on_c, 9, 42, 43
1, 457693, Note_on_c, 9, 42, 0
1, 457919, Note_on_c, 9, 36, 0
1, 457920, Note_on_c, 9, 38, 127
1, 457920, Note_on_c, 9, 51, 127
1, 457920, Note_on_c, 9, 42, 127
1, 457933, Note_on_c, 9, 51, 0
1, 457933, Note_on_c, 9, 42, 0
1, 458159, Note_on_c, 9, 38, 0
1, 458160, Note_on_c, 9, 42, 43
1, 458160, Note_on_c, 9, 36, 127
1, 458173, Note_on_c, 9, 42, 0
1, 458399, Note_on_c, 9, 36, 0
1, 458400, Note_on_c, 9, 51, 127
1, 458400, Note_on_c, 9, 42, 43
1, 458413, Note_on_c, 9, 51, 0
1, 458413, Note_on_c, 9, 42, 0
1, 458640, Note_on_c, 9, 42, 43
1, 458640, Note_on_c, 9, 36, 127
1, 458653, Note_on_c, 9, 42, 0
1, 458879, Note_on_c, 9, 36, 0
1, 458880, Note_on_c, 9, 51, 127
1, 458880, Note_on_c, 9, 42, 127
1, 458880, Note_on_c, 9, 36, 127
1, 458893, Note_on_c, 9, 51, 0
1, 458893, Note_on_c, 9, 42, 0
1, 459120, Note_on_c, 9, 42, 43
1, 459133, Note_on_c, 9, 42, 0
1, 459359, Note_on_c, 9, 36, 0
1, 459360, Note_on_c, 9, 51, 127
1, 459360, Note_on_c, 9, 42, 43
1, 459373, Note_on_c, 9, 51, 0
1, 459373, Note_on_c, 9, 42, 0
1, 459600, Note_on_c, 9, 42, 43
1, 459613, Note_on_c, 9, 42, 0
1, 459840, Note_on_c, 9, 38, 127
1, 459840, Note_on_c, 9, 51, 127
1, 459840, Note_on_c, 9, 42, 127
1, 459853, Note_on_c, 9, 51, 0
1, 459853, Note_on_c, 9, 42, 0
1, 460079, Note_on_c, 9, 38, 0
1, 460080, Note_on_c, 9, 48, 127
1, 460080, Note_on_c, 9, 42, 43
1, 460093, Note_on_c, 9, 42, 0
1, 460319, Note_on_c, 9, 48, 0
1, 460320, Note_on_c, 9, 51, 127
1, 460320, Note_on_c, 9, 42, 43
1, 460333, Note_on_c, 9, 51, 0
1, 460333, Note_on_c, 9, 42, 0
1, 460560, Note_on_c, 9, 38, 25
1, 460560, Note_on_c, 9, 45, 127
1, 460560, Note_on_c, 9, 42, 43
1, 460560, Note_on_c, 9, 36, 127
1, 460566, Note_on_c, 9, 42, 0
1, 460679, Note_on_c, 9, 38, 0
1, 460679, Note_on_c, 9, 45, 0
1, 460680, Note_on_c, 9, 38, 25
1, 460799, Note_on_c, 9, 36, 0
1, 460799, Note_on_c, 9, 38, 0
1, 460800, Note_on_c, 9, 38, 127
1, 460800, Note_on_c, 9, 42, 127
1, 460800, Note_on_c, 9, 36, 127
1, 460813, Note_on_c, 9, 42, 0
1, 461039, Note_on_c, 9, 38, 0
1, 461040, Note_on_c, 9, 48, 127
1, 461040, Note_on_c, 9, 42, 43
1, 461053, Note_on_c, 9, 42, 0
1, 461279, Note_on_c, 9, 36, 0
1, 461279, Note_on_c, 9, 48, 0
1, 461280, Note_on_c, 9, 45, 127
1, 461280, Note_on_c, 9, 42, 43
1, 461280, Note_on_c, 9, 36, 127
1, 461293, Note_on_c, 9, 42, 0
1, 461519, Note_on_c, 9, 45, 0
1, 461520, Note_on_c, 9, 38, 43
1, 461520, Note_on_c, 9, 42, 43
1, 461526, Note_on_c, 9, 42, 0
1, 461639, Note_on_c, 9, 38, 0
1, 461640, Note_on_c, 9, 38, 43
1, 461640, Note_on_c, 9, 45, 127
1, 461759, Note_on_c, 9, 36, 0
1, 461759, Note_on_c, 9, 38, 0
1, 461759, Note_on_c, 9, 45, 0
1, 461760, Note_on_c, 9, 38, 127
1, 461760, Note_on_c, 9, 42, 127
1, 461760, Note_on_c, 9, 36, 127
1, 461773, Note_on_c, 9, 42, 0
1, 461999, Note_on_c, 9, 38, 0
1, 461999, Note_on_c, 9, 36, 0
1, 462000, Note_on_c, 9, 38, 43
1, 462000, Note_on_c, 9, 45, 127
1, 462000, Note_on_c, 9, 42, 43
1, 462000, Note_on_c, 9, 36, 127
1, 462013, Note_on_c, 9, 42, 0
1, 462239, Note_on_c, 9, 38, 0
1, 462239, Note_on_c, 9, 45, 0
1, 462239, Note_on_c, 9, 36, 0
1, 462240, Note_on_c, 9, 38, 127
1, 462240, Note_on_c, 9, 42, 43
1, 462240, Note_on_c, 9, 36, 127
1, 462240, Note_on_c, 9, 43, 127
1, 462253, Note_on_c, 9, 42, 0
1, 462479, Note_on_c, 9, 38, 0
1, 462479, Note_on_c, 9, 36, 0
1, 462479, Note_on_c, 9, 43, 0
1, 462480, Note_on_c, 9, 38, 127
1, 462480, Note_on_c, 9, 42, 43
1, 462480, Note_on_c, 9, 36, 127
1, 462493, Note_on_c, 9, 42, 0
1, 462719, Note_on_c, 9, 38, 0
1, 462719, Note_on_c, 9, 36, 0
1, 462720, Note_on_c, 9, 46, 127
1, 462720, Note_on_c, 9, 51, 127
1, 462720, Note_on_c, 9, 49, 87
1, 462720, Note_on_c, 9, 36, 127
1, 462747, Note_on_c, 9, 46, 0
1, 462747, Note_on_c, 9, 51, 0
1, 462747, Note_on_c, 9, 49, 0
1, 463199, Note_on_c, 9, 36, 0
1, 463200, End_track
0, 0, End_of_file
