0, 0, Header, 1, 1, 480
1, 0, Start_track
1, 0, Title_t, "Drumset"
1, 0, Time_signature, 4, 2, 24, 8
1, 0, Key_signature, 0, "major"
1, 0, Tempo, 638298
1, 0, Control_c, 9, 121, 0
1, 0, Program_c, 9, 0
1, 0, Control_c, 9, 7, 100
1, 0, Control_c, 9, 10, 64
1, 0, Control_c, 9, 91, 0
1, 0, Control_c, 9, 93, 0
1, 0, MIDI_port, 0
1, 7680, Note_on_c, 9, 41, 108
1, 7680, Note_on_c, 9, 44, 75
1, 7680, Note_on_c, 9, 36, 112
1, 7680, Note_on_c, 9, 43, 87
1, 7687, Note_on_c, 9, 44, 0
1, 7919, Note_on_c, 9, 36, 0
1, 7919, Note_on_c, 9, 43, 0
1, 7920, Note_on_c, 9, 44, 75
1, 7927, Note_on_c, 9, 44, 0
1, 8159, Note_on_c, 9, 41, 0
1, 8160, Note_on_c, 9, 38, 85
1, 8160, Note_on_c, 9, 40, 100
1, 8160, Note_on_c, 9, 44, 75
1, 8167, Note_on_c, 9, 44, 0
1, 8400, Note_on_c, 9, 44, 75
1, 8407, Note_on_c, 9, 44, 0
1, 8639, Note_on_c, 9, 38, 0
1, 8639, Note_on_c, 9, 40, 0
1, 8640, Note_on_c, 9, 44, 75
1, 8647, Note_on_c, 9, 44, 0
1, 8880, Note_on_c, 9, 44, 75
1, 8887, Note_on_c, 9, 44, 0
1, 9120, Note_on_c, 9, 38, 85
1, 9120, Note_on_c, 9, 40, 100
1, 9120, Note_on_c, 9, 44, 75
1, 9127, Note_on_c, 9, 44, 0
1, 9360, Note_on_c, 9, 44, 75
1, 9367, Note_on_c, 9, 44, 0
1, 9599, Note_on_c, 9, 38, 0
1, 9599, Note_on_c, 9, 40, 0
1, 9600, Note_on_c, 9, 41, 108
1, 9600, Note_on_c, 9, 44, 75
1, 9600, Note_on_c, 9, 36, 112
1, 9600, Note_on_c, 9, 43, 87
1, 9607, Note_on_c, 9, 44, 0
1, 9839, Note_on_c, 9, 36, 0
1, 9839, Note_on_c, 9, 43, 0
1, 9840, Note_on_c, 9, 44, 75
1, 9847, Note_on_c, 9, 44, 0
1, 10079, Note_on_c, 9, 41, 0
1, 10080, Note_on_c, 9, 38, 85
1, 10080, Note_on_c, 9, 40, 100
1, 10080, Note_on_c, 9, 44, 75
1, 10087, Note_on_c, 9, 44, 0
1, 10320, Note_on_c, 9, 44, 75
1, 10327, Note_on_c, 9, 44, 0
1, 10559, Note_on_c, 9, 38, 0
1, 10559, Note_on_c, 9, 40, 0
1, 10560, Note_on_c, 9, 44, 75
1, 10567, Note_on_c, 9, 44, 0
1, 10800, Note_on_c, 9, 44, 75
1, 10807, Note_on_c, 9, 44, 0
1, 11040, Note_on_c, 9, 38, 85
1, 11040, Note_on_c, 9, 40, 100
1, 11040, Note_on_c, 9, 44, 75
1, 11047, Note_on_c, 9, 44, 0
1, 11280, Note_on_c, 9, 44, 75
1, 11287, Note_on_c, 9, 44, 0
1, 11519, Note_on_c, 9, 38, 0
1, 11519, Note_on_c, 9, 40, 0
1, 11520, Note_on_c, 9, 41, 108
1, 11520, Note_on_c, 9, 44, 75
1, 11520, Note_on_c, 9, 35, 95
1, 11520, Note_on_c, 9, 36, 112
1, 11520, Note_on_c, 9, 43, 87
1, 11527, Note_on_c, 9, 44, 0
1, 11759, Note_on_c, 9, 35, 0
1, 11759, Note_on_c, 9, 36, 0
1, 11759, Note_on_c, 9, 43, 0
1, 11760, Note_on_c, 9, 44, 75
1, 11767, Note_on_c, 9, 44, 0
1, 11999, Note_on_c, 9, 41, 0
1, 12000, Note_on_c, 9, 38, 85
1, 12000, Note_on_c, 9, 40, 100
1, 12000, Note_on_c, 9, 44, 75
1, 12007, Note_on_c, 9, 44, 0
1, 12240, Note_on_c, 9, 44, 75
1, 12247, Note_on_c, 9, 44, 0
1, 12479, Note_on_c, 9, 38, 0
1, 12479, Note_on_c, 9, 40, 0
1, 12480, Note_on_c, 9, 44, 75
1, 12487, Note_on_c, 9, 44, 0
1, 12720, Note_on_c, 9, 44, 75
1, 12727, Note_on_c, 9, 44, 0
1, 12960, Note_on_c, 9, 38, 85
1, 12960, Note_on_c, 9, 40, 100
1, 12960, Note_on_c, 9, 44, 75
1, 12967, Note_on_c, 9, 44, 0
1, 13200, Note_on_c, 9, 44, 75
1, 13207, Note_on_c, 9, 44, 0
1, 13439, Note_on_c, 9, 38, 0
1, 13439, Note_on_c, 9, 40, 0
1, 13440, Note_on_c, 9, 41, 108
1, 13440, Note_on_c, 9, 44, 75
1, 13440, Note_on_c, 9, 35, 95
1, 13440, Note_on_c, 9, 36, 112
1, 13440, Note_on_c, 9, 43, 87
1, 13447, Note_on_c, 9, 44, 0
1, 13679, Note_on_c, 9, 35, 0
1, 13679, Note_on_c, 9, 36, 0
1, 13679, Note_on_c, 9, 43, 0
1, 13680, Note_on_c, 9, 44, 75
1, 13687, Note_on_c, 9, 44, 0
1, 13919, Note_on_c, 9, 41, 0
1, 13920, Note_on_c, 9, 38, 85
1, 13920, Note_on_c, 9, 40, 100
1, 13920, Note_on_c, 9, 44, 75
1, 13927, Note_on_c, 9, 44, 0
1, 14160, Note_on_c, 9, 44, 75
1, 14167, Note_on_c, 9, 44, 0
1, 14399, Note_on_c, 9, 38, 0
1, 14399, Note_on_c, 9, 40, 0
1, 14400, Note_on_c, 9, 44, 75
1, 14407, Note_on_c, 9, 44, 0
1, 14640, Note_on_c, 9, 44, 75
1, 14647, Note_on_c, 9, 44, 0
1, 14880, Note_on_c, 9, 38, 53
1, 14999, Note_on_c, 9, 38, 0
1, 15000, Note_on_c, 9, 38, 85
1, 15119, Note_on_c, 9, 38, 0
1, 15120, Note_on_c, 9, 38, 85
1, 15239, Note_on_c, 9, 38, 0
1, 15240, Note_on_c, 9, 38, 85
1, 15359, Note_on_c, 9, 38, 0
1, 15360, Note_on_c, 9, 57, 84
1, 15360, Note_on_c, 9, 36, 112
1, 15367, Note_on_c, 9, 57, 0
1, 15600, Note_on_c, 9, 46, 74
1, 15600, Note_on_c, 9, 51, 85
1, 15607, Note_on_c, 9, 46, 0
1, 15607, Note_on_c, 9, 51, 0
1, 15839, Note_on_c, 9, 36, 0
1, 15840, Note_on_c, 9, 38, 85
1, 15840, Note_on_c, 9, 40, 100
1, 15840, Note_on_c, 9, 51, 85
1, 15840, Note_on_c, 9, 36, 80
1, 15847, Note_on_c, 9, 51, 0
1, 16079, Note_on_c, 9, 38, 0
1, 16079, Note_on_c, 9, 40, 0
1, 16080, Note_on_c, 9, 46, 74
1, 16080, Note_on_c, 9, 51, 85
1, 16087, Note_on_c, 9, 46, 0
1, 16087, Note_on_c, 9, 51, 0
1, 16319, Note_on_c, 9, 36, 0
1, 16320, Note_on_c, 9, 51, 85
1, 16320, Note_on_c, 9, 36, 112
1, 16327, Note_on_c, 9, 51, 0
1, 16560, Note_on_c, 9, 46, 74
1, 16560, Note_on_c, 9, 51, 85
1, 16567, Note_on_c, 9, 46, 0
1, 16567, Note_on_c, 9, 51, 0
1, 16799, Note_on_c, 9, 36, 0
1, 16800, Note_on_c, 9, 38, 85
1, 16800, Note_on_c, 9, 40, 100
1, 16800, Note_on_c, 9, 51, 85
1, 16800, Note_on_c, 9, 36, 80
1, 16807, Note_on_c, 9, 51, 0
1, 17039, Note_on_c, 9, 38, 0
1, 17039, Note_on_c, 9, 40, 0
1, 17040, Note_on_c, 9, 46, 74
1, 17040, Note_on_c, 9, 51, 85
1, 17047, Note_on_c, 9, 46, 0
1, 17047, Note_on_c, 9, 51, 0
1, 17279, Note_on_c, 9, 36, 0
1, 17280, Note_on_c, 9, 51, 85
1, 17280, Note_on_c, 9, 36, 112
1, 17287, Note_on_c, 9, 51, 0
1, 17520, Note_on_c, 9, 46, 74
1, 17520, Note_on_c, 9, 51, 85
1, 17527, Note_on_c, 9, 46, 0
1, 17527, Note_on_c, 9, 51, 0
1, 17759, Note_on_c, 9, 36, 0
1, 17760, Note_on_c, 9, 38, 85
1, 17760, Note_on_c, 9, 40, 100
1, 17760, Note_on_c, 9, 51, 85
1, 17760, Note_on_c, 9, 36, 80
1, 17767, Note_on_c, 9, 51, 0
1, 17999, Note_on_c, 9, 38, 0
1, 17999, Note_on_c, 9, 40, 0
1, 18000, Note_on_c, 9, 46, 74
1, 18000, Note_on_c, 9, 51, 85
1, 18007, Note_on_c, 9, 46, 0
1, 18007, Note_on_c, 9, 51, 0
1, 18239, Note_on_c, 9, 36, 0
1, 18240, Note_on_c, 9, 51, 85
1, 18240, Note_on_c, 9, 36, 112
1, 18247, Note_on_c, 9, 51, 0
1, 18480, Note_on_c, 9, 46, 74
1, 18480, Note_on_c, 9, 51, 85
1, 18487, Note_on_c, 9, 46, 0
1, 18487, Note_on_c, 9, 51, 0
1, 18719, Note_on_c, 9, 36, 0
1, 18720, Note_on_c, 9, 38, 85
1, 18720, Note_on_c, 9, 40, 100
1, 18720, Note_on_c, 9, 51, 85
1, 18720, Note_on_c, 9, 36, 80
1, 18727, Note_on_c, 9, 51, 0
1, 18959, Note_on_c, 9, 38, 0
1, 18959, Note_on_c, 9, 40, 0
1, 18960, Note_on_c, 9, 46, 74
1, 18960, Note_on_c, 9, 51, 85
1, 18967, Note_on_c, 9, 46, 0
1, 18967, Note_on_c, 9, 51, 0
1, 19199, Note_on_c, 9, 36, 0
1, 19200, Note_on_c, 9, 51, 85
1, 19200, Note_on_c, 9, 36, 112
1, 19207, Note_on_c, 9, 51, 0
1, 19440, Note_on_c, 9, 46, 74
1, 19440, Note_on_c, 9, 51, 85
1, 19447, Note_on_c, 9, 46, 0
1, 19447, Note_on_c, 9, 51, 0
1, 19679, Note_on_c, 9, 36, 0
1, 19680, Note_on_c, 9, 38, 85
1, 19680, Note_on_c, 9, 40, 100
1, 19680, Note_on_c, 9, 51, 85
1, 19680, Note_on_c, 9, 36, 80
1, 19687, Note_on_c, 9, 51, 0
1, 19919, Note_on_c, 9, 38, 0
1, 19919, Note_on_c, 9, 40, 0
1, 19920, Note_on_c, 9, 46, 74
1, 19920, Note_on_c, 9, 51, 85
1, 19927, Note_on_c, 9, 46, 0
1, 19927, Note_on_c, 9, 51, 0
1, 20159, Note_on_c, 9, 36, 0
1, 20160, Note_on_c, 9, 51, 85
1, 20160, Note_on_c, 9, 36, 112
1, 20167, Note_on_c, 9, 51, 0
1, 20400, Note_on_c, 9, 46, 74
1, 20400, Note_on_c, 9, 51, 85
1, 20407, Note_on_c, 9, 46, 0
1, 20407, Note_on_c, 9, 51, 0
1, 20639, Note_on_c, 9, 36, 0
1, 20640, Note_on_c, 9, 38, 85
1, 20640, Note_on_c, 9, 40, 100
1, 20640, Note_on_c, 9, 51, 85
1, 20640, Note_on_c, 9, 36, 80
1, 20647, Note_on_c, 9, 51, 0
1, 20879, Note_on_c, 9, 38, 0
1, 20879, Note_on_c, 9, 40, 0
1, 20880, Note_on_c, 9, 46, 74
1, 20880, Note_on_c, 9, 51, 85
1, 20887, Note_on_c, 9, 46, 0
1, 20887, Note_on_c, 9, 51, 0
1, 21119, Note_on_c, 9, 36, 0
1, 21120, Note_on_c, 9, 51, 85
1, 21120, Note_on_c, 9, 36, 112
1, 21127, Note_on_c, 9, 51, 0
1, 21360, Note_on_c, 9, 46, 74
1, 21360, Note_on_c, 9, 51, 85
1, 21367, Note_on_c, 9, 46, 0
1, 21367, Note_on_c, 9, 51, 0
1, 21599, Note_on_c, 9, 36, 0
1, 21600, Note_on_c, 9, 38, 85
1, 21600, Note_on_c, 9, 40, 100
1, 21600, Note_on_c, 9, 51, 85
1, 21600, Note_on_c, 9, 36, 80
1, 21607, Note_on_c, 9, 51, 0
1, 21839, Note_on_c, 9, 38, 0
1, 21839, Note_on_c, 9, 40, 0
1, 21840, Note_on_c, 9, 46, 74
1, 21840, Note_on_c, 9, 51, 85
1, 21847, Note_on_c, 9, 46, 0
1, 21847, Note_on_c, 9, 51, 0
1, 22079, Note_on_c, 9, 36, 0
1, 22080, Note_on_c, 9, 51, 85
1, 22080, Note_on_c, 9, 36, 112
1, 22087, Note_on_c, 9, 51, 0
1, 22320, Note_on_c, 9, 46, 74
1, 22320, Note_on_c, 9, 51, 85
1, 22327, Note_on_c, 9, 46, 0
1, 22327, Note_on_c, 9, 51, 0
1, 22559, Note_on_c, 9, 36, 0
1, 22560, Note_on_c, 9, 38, 85
1, 22679, Note_on_c, 9, 38, 0
1, 22680, Note_on_c, 9, 38, 85
1, 22799, Note_on_c, 9, 38, 0
1, 22800, Note_on_c, 9, 38, 85
1, 22919, Note_on_c, 9, 38, 0
1, 22920, Note_on_c, 9, 38, 85
1, 23039, Note_on_c, 9, 38, 0
1, 23040, Note_on_c, 9, 57, 84
1, 23040, Note_on_c, 9, 36, 112
1, 23047, Note_on_c, 9, 57, 0
1, 23280, Note_on_c, 9, 46, 74
1, 23280, Note_on_c, 9, 51, 85
1, 23287, Note_on_c, 9, 46, 0
1, 23287, Note_on_c, 9, 51, 0
1, 23519, Note_on_c, 9, 36, 0
1, 23520, Note_on_c, 9, 38, 85
1, 23520, Note_on_c, 9, 40, 100
1, 23520, Note_on_c, 9, 51, 85
1, 23520, Note_on_c, 9, 36, 80
1, 23527, Note_on_c, 9, 51, 0
1, 23759, Note_on_c, 9, 38, 0
1, 23759, Note_on_c, 9, 40, 0
1, 23760, Note_on_c, 9, 46, 74
1, 23760, Note_on_c, 9, 51, 85
1, 23767, Note_on_c, 9, 46, 0
1, 23767, Note_on_c, 9, 51, 0
1, 23999, Note_on_c, 9, 36, 0
1, 24000, Note_on_c, 9, 51, 85
1, 24000, Note_on_c, 9, 36, 112
1, 24007, Note_on_c, 9, 51, 0
1, 24240, Note_on_c, 9, 46, 74
1, 24240, Note_on_c, 9, 51, 85
1, 24247, Note_on_c, 9, 46, 0
1, 24247, Note_on_c, 9, 51, 0
1, 24479, Note_on_c, 9, 36, 0
1, 24480, Note_on_c, 9, 38, 85
1, 24480, Note_on_c, 9, 40, 100
1, 24480, Note_on_c, 9, 51, 85
1, 24480, Note_on_c, 9, 36, 80
1, 24487, Note_on_c, 9, 51, 0
1, 24719, Note_on_c, 9, 38, 0
1, 24719, Note_on_c, 9, 40, 0
1, 24720, Note_on_c, 9, 46, 74
1, 24720, Note_on_c, 9, 51, 85
1, 24727, Note_on_c, 9, 46, 0
1, 24727, Note_on_c, 9, 51, 0
1, 24959, Note_on_c, 9, 36, 0
1, 24960, Note_on_c, 9, 51, 85
1, 24960, Note_on_c, 9, 36, 112
1, 24967, Note_on_c, 9, 51, 0
1, 25200, Note_on_c, 9, 46, 74
1, 25200, Note_on_c, 9, 51, 85
1, 25207, Note_on_c, 9, 46, 0
1, 25207, Note_on_c, 9, 51, 0
1, 25439, Note_on_c, 9, 36, 0
1, 25440, Note_on_c, 9, 38, 85
1, 25440, Note_on_c, 9, 40, 100
1, 25440, Note_on_c, 9, 51, 85
1, 25440, Note_on_c, 9, 36, 80
1, 25447, Note_on_c, 9, 51, 0
1, 25679, Note_on_c, 9, 38, 0
1, 25679, Note_on_c, 9, 40, 0
1, 25680, Note_on_c, 9, 46, 74
1, 25680, Note_on_c, 9, 51, 85
1, 25687, Note_on_c, 9, 46, 0
1, 25687, Note_on_c, 9, 51, 0
1, 25919, Note_on_c, 9, 36, 0
1, 25920, Note_on_c, 9, 51, 85
1, 25920, Note_on_c, 9, 36, 112
1, 25927, Note_on_c, 9, 51, 0
1, 26160, Note_on_c, 9, 46, 74
1, 26160, Note_on_c, 9, 51, 85
1, 26167, Note_on_c, 9, 46, 0
1, 26167, Note_on_c, 9, 51, 0
1, 26399, Note_on_c, 9, 36, 0
1, 26400, Note_on_c, 9, 38, 85
1, 26400, Note_on_c, 9, 40, 100
1, 26400, Note_on_c, 9, 51, 85
1, 26400, Note_on_c, 9, 36, 80
1, 26407, Note_on_c, 9, 51, 0
1, 26639, Note_on_c, 9, 38, 0
1, 26639, Note_on_c, 9, 40, 0
1, 26640, Note_on_c, 9, 46, 74
1, 26640, Note_on_c, 9, 51, 85
1, 26647, Note_on_c, 9, 46, 0
1, 26647, Note_on_c, 9, 51, 0
1, 26879, Note_on_c, 9, 36, 0
1, 26880, Note_on_c, 9, 51, 85
1, 26880, Note_on_c, 9, 36, 112
1, 26887, Note_on_c, 9, 51, 0
1, 27120, Note_on_c, 9, 46, 74
1, 27120, Note_on_c, 9, 51, 85
1, 27127, Note_on_c, 9, 46, 0
1, 27127, Note_on_c, 9, 51, 0
1, 27359, Note_on_c, 9, 36, 0
1, 27360, Note_on_c, 9, 38, 85
1, 27360, Note_on_c, 9, 40, 100
1, 27360, Note_on_c, 9, 51, 85
1, 27360, Note_on_c, 9, 36, 80
1, 27367, Note_on_c, 9, 51, 0
1, 27599, Note_on_c, 9, 38, 0
1, 27599, Note_on_c, 9, 40, 0
1, 27600, Note_on_c, 9, 46, 74
1, 27600, Note_on_c, 9, 51, 85
1, 27607, Note_on_c, 9, 46, 0
1, 27607, Note_on_c, 9, 51, 0
1, 27839, Note_on_c, 9, 36, 0
1, 27840, Note_on_c, 9, 51, 85
1, 27840, Note_on_c, 9, 36, 112
1, 27847, Note_on_c, 9, 51, 0
1, 28080, Note_on_c, 9, 46, 74
1, 28080, Note_on_c, 9, 51, 85
1, 28087, Note_on_c, 9, 46, 0
1, 28087, Note_on_c, 9, 51, 0
1, 28319, Note_on_c, 9, 36, 0
1, 28320, Note_on_c, 9, 38, 85
1, 28320, Note_on_c, 9, 40, 100
1, 28320, Note_on_c, 9, 51, 85
1, 28320, Note_on_c, 9, 36, 80
1, 28327, Note_on_c, 9, 51, 0
1, 28559, Note_on_c, 9, 38, 0
1, 28559, Note_on_c, 9, 40, 0
1, 28560, Note_on_c, 9, 46, 74
1, 28560, Note_on_c, 9, 51, 85
1, 28567, Note_on_c, 9, 46, 0
1, 28567, Note_on_c, 9, 51, 0
1, 28799, Note_on_c, 9, 36, 0
1, 28800, Note_on_c, 9, 51, 85
1, 28800, Note_on_c, 9, 36, 112
1, 28807, Note_on_c, 9, 51, 0
1, 29040, Note_on_c, 9, 46, 74
1, 29040, Note_on_c, 9, 51, 85
1, 29047, Note_on_c, 9, 46, 0
1, 29047, Note_on_c, 9, 51, 0
1, 29279, Note_on_c, 9, 36, 0
1, 29280, Note_on_c, 9, 38, 85
1, 29280, Note_on_c, 9, 40, 100
1, 29280, Note_on_c, 9, 51, 85
1, 29280, Note_on_c, 9, 36, 80
1, 29287, Note_on_c, 9, 51, 0
1, 29519, Note_on_c, 9, 38, 0
1, 29519, Note_on_c, 9, 40, 0
1, 29520, Note_on_c, 9, 46, 74
1, 29520, Note_on_c, 9, 51, 85
1, 29527, Note_on_c, 9, 46, 0
1, 29527, Note_on_c, 9, 51, 0
1, 29759, Note_on_c, 9, 36, 0
1, 29760, Note_on_c, 9, 51, 85
1, 29760, Note_on_c, 9, 36, 112
1, 29767, Note_on_c, 9, 51, 0
1, 30000, Note_on_c, 9, 46, 74
1, 30000, Note_on_c, 9, 51, 85
1, 30007, Note_on_c, 9, 46, 0
1, 30007, Note_on_c, 9, 51, 0
1, 30239, Note_on_c, 9, 36, 0
1, 30240, Note_on_c, 9, 38, 85
1, 30359, Note_on_c, 9, 38, 0
1, 30360, Note_on_c, 9, 38, 85
1, 30479, Note_on_c, 9, 38, 0
1, 30480, Note_on_c, 9, 38, 85
1, 30599, Note_on_c, 9, 38, 0
1, 30600, Note_on_c, 9, 38, 85
1, 30719, Note_on_c, 9, 38, 0
1, 30720, Note_on_c, 9, 57, 52
1, 30720, Note_on_c, 9, 36, 80
1, 30727, Note_on_c, 9, 57, 0
1, 30959, Note_on_c, 9, 36, 0
1, 30960, Note_on_c, 9, 46, 29
1, 30960, Note_on_c, 9, 36, 80
1, 30967, Note_on_c, 9, 46, 0
1, 31199, Note_on_c, 9, 36, 0
1, 31200, Note_on_c, 9, 38, 53
1, 31320, Note_on_c, 9, 36, 80
1, 31439, Note_on_c, 9, 38, 0
1, 31440, Note_on_c, 9, 46, 29
1, 31447, Note_on_c, 9, 46, 0
1, 31679, Note_on_c, 9, 36, 0
1, 31680, Note_on_c, 9, 36, 80
1, 31919, Note_on_c, 9, 36, 0
1, 31920, Note_on_c, 9, 46, 29
1, 31920, Note_on_c, 9, 36, 80
1, 31927, Note_on_c, 9, 46, 0
1, 32159, Note_on_c, 9, 36, 0
1, 32160, Note_on_c, 9, 38, 53
1, 32280, Note_on_c, 9, 36, 80
1, 32399, Note_on_c, 9, 38, 0
1, 32400, Note_on_c, 9, 46, 29
1, 32407, Note_on_c, 9, 46, 0
1, 32639, Note_on_c, 9, 36, 0
1, 32640, Note_on_c, 9, 36, 80
1, 32879, Note_on_c, 9, 36, 0
1, 32880, Note_on_c, 9, 46, 29
1, 32880, Note_on_c, 9, 36, 80
1, 32887, Note_on_c, 9, 46, 0
1, 33119, Note_on_c, 9, 36, 0
1, 33120, Note_on_c, 9, 38, 53
1, 33240, Note_on_c, 9, 36, 80
1, 33359, Note_on_c, 9, 38, 0
1, 33360, Note_on_c, 9, 46, 29
1, 33367, Note_on_c, 9, 46, 0
1, 33599, Note_on_c, 9, 36, 0
1, 33600, Note_on_c, 9, 36, 80
1, 33839, Note_on_c, 9, 36, 0
1, 33840, Note_on_c, 9, 46, 29
1, 33840, Note_on_c, 9, 36, 80
1, 33847, Note_on_c, 9, 46, 0
1, 34079, Note_on_c, 9, 36, 0
1, 34080, Note_on_c, 9, 38, 53
1, 34200, Note_on_c, 9, 36, 80
1, 34319, Note_on_c, 9, 38, 0
1, 34320, Note_on_c, 9, 46, 29
1, 34327, Note_on_c, 9, 46, 0
1, 34559, Note_on_c, 9, 36, 0
1, 34560, Note_on_c, 9, 36, 80
1, 34799, Note_on_c, 9, 36, 0
1, 34800, Note_on_c, 9, 46, 29
1, 34800, Note_on_c, 9, 36, 80
1, 34807, Note_on_c, 9, 46, 0
1, 35039, Note_on_c, 9, 36, 0
1, 35040, Note_on_c, 9, 38, 53
1, 35160, Note_on_c, 9, 36, 80
1, 35279, Note_on_c, 9, 38, 0
1, 35280, Note_on_c, 9, 46, 29
1, 35287, Note_on_c, 9, 46, 0
1, 35519, Note_on_c, 9, 36, 0
1, 35520, Note_on_c, 9, 36, 80
1, 35759, Note_on_c, 9, 36, 0
1, 35760, Note_on_c, 9, 46, 29
1, 35760, Note_on_c, 9, 36, 80
1, 35767, Note_on_c, 9, 46, 0
1, 35999, Note_on_c, 9, 36, 0
1, 36000, Note_on_c, 9, 38, 53
1, 36120, Note_on_c, 9, 36, 80
1, 36239, Note_on_c, 9, 38, 0
1, 36240, Note_on_c, 9, 46, 29
1, 36247, Note_on_c, 9, 46, 0
1, 36479, Note_on_c, 9, 36, 0
1, 36480, Note_on_c, 9, 36, 80
1, 36719, Note_on_c, 9, 36, 0
1, 36720, Note_on_c, 9, 46, 29
1, 36720, Note_on_c, 9, 36, 80
1, 36727, Note_on_c, 9, 46, 0
1, 36959, Note_on_c, 9, 36, 0
1, 36960, Note_on_c, 9, 38, 53
1, 37080, Note_on_c, 9, 36, 80
1, 37199, Note_on_c, 9, 38, 0
1, 37200, Note_on_c, 9, 46, 29
1, 37207, Note_on_c, 9, 46, 0
1, 37439, Note_on_c, 9, 36, 0
1, 37440, Note_on_c, 9, 36, 80
1, 37679, Note_on_c, 9, 36, 0
1, 37680, Note_on_c, 9, 46, 29
1, 37680, Note_on_c, 9, 36, 80
1, 37687, Note_on_c, 9, 46, 0
1, 37919, Note_on_c, 9, 36, 0
1, 37920, Note_on_c, 9, 38, 53
1, 38039, Note_on_c, 9, 38, 0
1, 38040, Note_on_c, 9, 38, 53
1, 38159, Note_on_c, 9, 38, 0
1, 38160, Note_on_c, 9, 38, 53
1, 38279, Note_on_c, 9, 38, 0
1, 38280, Note_on_c, 9, 38, 53
1, 38399, Note_on_c, 9, 38, 0
1, 38400, Note_on_c, 9, 57, 52
1, 38400, Note_on_c, 9, 36, 80
1, 38407, Note_on_c, 9, 57, 0
1, 38639, Note_on_c, 9, 36, 0
1, 38640, Note_on_c, 9, 46, 29
1, 38640, Note_on_c, 9, 36, 80
1, 38647, Note_on_c, 9, 46, 0
1, 38879, Note_on_c, 9, 36, 0
1, 38880, Note_on_c, 9, 38, 53
1, 39000, Note_on_c, 9, 36, 80
1, 39119, Note_on_c, 9, 38, 0
1, 39120, Note_on_c, 9, 46, 29
1, 39127, Note_on_c, 9, 46, 0
1, 39359, Note_on_c, 9, 36, 0
1, 39360, Note_on_c, 9, 36, 80
1, 39599, Note_on_c, 9, 36, 0
1, 39600, Note_on_c, 9, 46, 29
1, 39600, Note_on_c, 9, 36, 80
1, 39607, Note_on_c, 9, 46, 0
1, 39839, Note_on_c, 9, 36, 0
1, 39840, Note_on_c, 9, 38, 53
1, 39960, Note_on_c, 9, 36, 80
1, 40079, Note_on_c, 9, 38, 0
1, 40080, Note_on_c, 9, 46, 29
1, 40087, Note_on_c, 9, 46, 0
1, 40319, Note_on_c, 9, 36, 0
1, 40320, Note_on_c, 9, 36, 80
1, 40559, Note_on_c, 9, 36, 0
1, 40560, Note_on_c, 9, 46, 29
1, 40560, Note_on_c, 9, 36, 80
1, 40567, Note_on_c, 9, 46, 0
1, 40799, Note_on_c, 9, 36, 0
1, 40800, Note_on_c, 9, 38, 53
1, 40920, Note_on_c, 9, 36, 80
1, 41039, Note_on_c, 9, 38, 0
1, 41040, Note_on_c, 9, 46, 29
1, 41047, Note_on_c, 9, 46, 0
1, 41279, Note_on_c, 9, 36, 0
1, 41280, Note_on_c, 9, 36, 80
1, 41519, Note_on_c, 9, 36, 0
1, 41520, Note_on_c, 9, 46, 29
1, 41520, Note_on_c, 9, 36, 80
1, 41527, Note_on_c, 9, 46, 0
1, 41759, Note_on_c, 9, 36, 0
1, 41760, Note_on_c, 9, 38, 53
1, 41880, Note_on_c, 9, 36, 80
1, 41999, Note_on_c, 9, 38, 0
1, 42000, Note_on_c, 9, 46, 29
1, 42007, Note_on_c, 9, 46, 0
1, 42239, Note_on_c, 9, 36, 0
1, 42240, Note_on_c, 9, 36, 80
1, 42479, Note_on_c, 9, 36, 0
1, 42480, Note_on_c, 9, 46, 29
1, 42480, Note_on_c, 9, 36, 80
1, 42487, Note_on_c, 9, 46, 0
1, 42719, Note_on_c, 9, 36, 0
1, 42720, Note_on_c, 9, 38, 53
1, 42840, Note_on_c, 9, 36, 80
1, 42959, Note_on_c, 9, 38, 0
1, 42960, Note_on_c, 9, 46, 29
1, 42967, Note_on_c, 9, 46, 0
1, 43199, Note_on_c, 9, 36, 0
1, 43200, Note_on_c, 9, 36, 80
1, 43439, Note_on_c, 9, 36, 0
1, 43440, Note_on_c, 9, 46, 29
1, 43440, Note_on_c, 9, 36, 80
1, 43447, Note_on_c, 9, 46, 0
1, 43679, Note_on_c, 9, 36, 0
1, 43680, Note_on_c, 9, 38, 53
1, 43800, Note_on_c, 9, 36, 80
1, 43919, Note_on_c, 9, 38, 0
1, 43920, Note_on_c, 9, 46, 29
1, 43927, Note_on_c, 9, 46, 0
1, 44159, Note_on_c, 9, 36, 0
1, 44160, Note_on_c, 9, 38, 85
1, 44280, Note_on_c, 9, 36, 80
1, 44399, Note_on_c, 9, 36, 0
1, 44400, Note_on_c, 9, 36, 80
1, 44519, Note_on_c, 9, 38, 0
1, 44519, Note_on_c, 9, 36, 0
1, 44520, Note_on_c, 9, 41, 76
1, 44520, Note_on_c, 9, 43, 87
1, 44639, Note_on_c, 9, 41, 0
1, 44639, Note_on_c, 9, 43, 0
1, 44640, Note_on_c, 9, 36, 80
1, 44759, Note_on_c, 9, 36, 0
1, 44760, Note_on_c, 9, 36, 80
1, 44880, Note_on_c, 9, 38, 53
1, 44999, Note_on_c, 9, 36, 0
1, 45000, Note_on_c, 9, 36, 80
1, 45119, Note_on_c, 9, 38, 0
1, 45119, Note_on_c, 9, 36, 0
1, 45120, Note_on_c, 9, 36, 80
1, 45239, Note_on_c, 9, 36, 0
1, 45240, Note_on_c, 9, 41, 76
1, 45240, Note_on_c, 9, 43, 87
1, 45359, Note_on_c, 9, 43, 0
1, 45360, Note_on_c, 9, 36, 80
1, 45479, Note_on_c, 9, 36, 0
1, 45480, Note_on_c, 9, 36, 80
1, 45599, Note_on_c, 9, 41, 0
1, 45599, Note_on_c, 9, 36, 0
1, 45600, Note_on_c, 9, 41, 76
1, 45600, Note_on_c, 9, 43, 87
1, 45719, Note_on_c, 9, 41, 0
1, 45719, Note_on_c, 9, 43, 0
1, 45720, Note_on_c, 9, 41, 76
1, 45720, Note_on_c, 9, 43, 87
1, 45839, Note_on_c, 9, 41, 0
1, 45840, Note_on_c, 9, 38, 53
1, 46079, Note_on_c, 9, 43, 0
1, 46079, Note_on_c, 9, 38, 0
1, 46080, Note_on_c, 9, 49, 76
1, 46080, Note_on_c, 9, 36, 80
1, 46087, Note_on_c, 9, 49, 0
1, 46319, Note_on_c, 9, 36, 0
1, 46320, Note_on_c, 9, 51, 40
1, 46320, Note_on_c, 9, 36, 80
1, 46327, Note_on_c, 9, 51, 0
1, 46439, Note_on_c, 9, 36, 0
1, 46440, Note_on_c, 9, 36, 80
1, 46559, Note_on_c, 9, 36, 0
1, 46560, Note_on_c, 9, 38, 85
1, 46560, Note_on_c, 9, 51, 85
1, 46567, Note_on_c, 9, 51, 0
1, 46799, Note_on_c, 9, 38, 0
1, 46800, Note_on_c, 9, 51, 40
1, 46800, Note_on_c, 9, 36, 80
1, 46803, Note_on_c, 9, 51, 0
1, 46919, Note_on_c, 9, 36, 0
1, 46920, Note_on_c, 9, 46, 74
1, 46920, Note_on_c, 9, 36, 80
1, 46923, Note_on_c, 9, 46, 0
1, 47039, Note_on_c, 9, 36, 0
1, 47040, Note_on_c, 9, 51, 85
1, 47043, Note_on_c, 9, 51, 0
1, 47160, Note_on_c, 9, 38, 53
1, 47279, Note_on_c, 9, 38, 0
1, 47280, Note_on_c, 9, 51, 85
1, 47280, Note_on_c, 9, 36, 80
1, 47287, Note_on_c, 9, 51, 0
1, 47399, Note_on_c, 9, 36, 0
1, 47400, Note_on_c, 9, 36, 80
1, 47519, Note_on_c, 9, 36, 0
1, 47520, Note_on_c, 9, 38, 53
1, 47520, Note_on_c, 9, 51, 85
1, 47536, Note_on_c, 9, 51, 0
1, 47760, Note_on_c, 9, 36, 80
1, 47999, Note_on_c, 9, 38, 0
1, 47999, Note_on_c, 9, 36, 0
1, 48000, Note_on_c, 9, 49, 76
1, 48000, Note_on_c, 9, 36, 80
1, 48007, Note_on_c, 9, 49, 0
1, 48239, Note_on_c, 9, 36, 0
1, 48240, Note_on_c, 9, 51, 40
1, 48240, Note_on_c, 9, 36, 80
1, 48247, Note_on_c, 9, 51, 0
1, 48359, Note_on_c, 9, 36, 0
1, 48360, Note_on_c, 9, 36, 80
1, 48479, Note_on_c, 9, 36, 0
1, 48480, Note_on_c, 9, 38, 85
1, 48480, Note_on_c, 9, 51, 85
1, 48487, Note_on_c, 9, 51, 0
1, 48719, Note_on_c, 9, 38, 0
1, 48720, Note_on_c, 9, 51, 40
1, 48720, Note_on_c, 9, 36, 80
1, 48723, Note_on_c, 9, 51, 0
1, 48839, Note_on_c, 9, 36, 0
1, 48840, Note_on_c, 9, 46, 74
1, 48840, Note_on_c, 9, 36, 80
1, 48843, Note_on_c, 9, 46, 0
1, 48959, Note_on_c, 9, 36, 0
1, 48960, Note_on_c, 9, 51, 85
1, 48963, Note_on_c, 9, 51, 0
1, 49080, Note_on_c, 9, 38, 53
1, 49199, Note_on_c, 9, 38, 0
1, 49200, Note_on_c, 9, 51, 85
1, 49200, Note_on_c, 9, 36, 80
1, 49207, Note_on_c, 9, 51, 0
1, 49319, Note_on_c, 9, 36, 0
1, 49320, Note_on_c, 9, 36, 80
1, 49439, Note_on_c, 9, 36, 0
1, 49440, Note_on_c, 9, 38, 53
1, 49440, Note_on_c, 9, 51, 85
1, 49456, Note_on_c, 9, 51, 0
1, 49680, Note_on_c, 9, 36, 80
1, 49919, Note_on_c, 9, 38, 0
1, 49919, Note_on_c, 9, 36, 0
1, 49920, Note_on_c, 9, 49, 76
1, 49920, Note_on_c, 9, 36, 80
1, 49927, Note_on_c, 9, 49, 0
1, 50159, Note_on_c, 9, 36, 0
1, 50160, Note_on_c, 9, 51, 40
1, 50160, Note_on_c, 9, 36, 80
1, 50167, Note_on_c, 9, 51, 0
1, 50279, Note_on_c, 9, 36, 0
1, 50280, Note_on_c, 9, 36, 80
1, 50399, Note_on_c, 9, 36, 0
1, 50400, Note_on_c, 9, 38, 85
1, 50400, Note_on_c, 9, 51, 85
1, 50407, Note_on_c, 9, 51, 0
1, 50639, Note_on_c, 9, 38, 0
1, 50640, Note_on_c, 9, 51, 40
1, 50640, Note_on_c, 9, 36, 80
1, 50643, Note_on_c, 9, 51, 0
1, 50759, Note_on_c, 9, 36, 0
1, 50760, Note_on_c, 9, 46, 74
1, 50760, Note_on_c, 9, 36, 80
1, 50763, Note_on_c, 9, 46, 0
1, 50879, Note_on_c, 9, 36, 0
1, 50880, Note_on_c, 9, 51, 85
1, 50883, Note_on_c, 9, 51, 0
1, 51000, Note_on_c, 9, 38, 53
1, 51119, Note_on_c, 9, 38, 0
1, 51120, Note_on_c, 9, 51, 85
1, 51120, Note_on_c, 9, 36, 80
1, 51127, Note_on_c, 9, 51, 0
1, 51239, Note_on_c, 9, 36, 0
1, 51240, Note_on_c, 9, 36, 80
1, 51359, Note_on_c, 9, 36, 0
1, 51360, Note_on_c, 9, 38, 53
1, 51360, Note_on_c, 9, 51, 85
1, 51376, Note_on_c, 9, 51, 0
1, 51600, Note_on_c, 9, 36, 80
1, 51839, Note_on_c, 9, 38, 0
1, 51839, Note_on_c, 9, 36, 0
1, 51840, Note_on_c, 9, 49, 76
1, 51840, Note_on_c, 9, 36, 80
1, 51847, Note_on_c, 9, 49, 0
1, 52079, Note_on_c, 9, 36, 0
1, 52080, Note_on_c, 9, 51, 40
1, 52080, Note_on_c, 9, 36, 80
1, 52087, Note_on_c, 9, 51, 0
1, 52199, Note_on_c, 9, 36, 0
1, 52200, Note_on_c, 9, 36, 80
1, 52319, Note_on_c, 9, 36, 0
1, 52320, Note_on_c, 9, 38, 85
1, 52320, Note_on_c, 9, 51, 85
1, 52327, Note_on_c, 9, 51, 0
1, 52559, Note_on_c, 9, 38, 0
1, 52560, Note_on_c, 9, 51, 40
1, 52560, Note_on_c, 9, 36, 80
1, 52563, Note_on_c, 9, 51, 0
1, 52679, Note_on_c, 9, 36, 0
1, 52680, Note_on_c, 9, 46, 74
1, 52680, Note_on_c, 9, 36, 80
1, 52683, Note_on_c, 9, 46, 0
1, 52799, Note_on_c, 9, 36, 0
1, 52800, Note_on_c, 9, 51, 85
1, 52803, Note_on_c, 9, 51, 0
1, 52920, Note_on_c, 9, 38, 53
1, 53039, Note_on_c, 9, 38, 0
1, 53040, Note_on_c, 9, 51, 85
1, 53040, Note_on_c, 9, 36, 80
1, 53047, Note_on_c, 9, 51, 0
1, 53159, Note_on_c, 9, 36, 0
1, 53160, Note_on_c, 9, 36, 80
1, 53279, Note_on_c, 9, 36, 0
1, 53280, Note_on_c, 9, 41, 76
1, 53280, Note_on_c, 9, 43, 87
1, 53399, Note_on_c, 9, 41, 0
1, 53399, Note_on_c, 9, 43, 0
1, 53400, Note_on_c, 9, 41, 76
1, 53400, Note_on_c, 9, 43, 87
1, 53519, Note_on_c, 9, 41, 0
1, 53520, Note_on_c, 9, 38, 53
1, 53520, Note_on_c, 9, 49, 76
1, 53527, Note_on_c, 9, 49, 0
1, 53759, Note_on_c, 9, 43, 0
1, 53759, Note_on_c, 9, 38, 0
1, 53760, Note_on_c, 9, 49, 76
1, 53760, Note_on_c, 9, 36, 80
1, 53767, Note_on_c, 9, 49, 0
1, 53999, Note_on_c, 9, 36, 0
1, 54000, Note_on_c, 9, 51, 40
1, 54000, Note_on_c, 9, 36, 80
1, 54007, Note_on_c, 9, 51, 0
1, 54119, Note_on_c, 9, 36, 0
1, 54120, Note_on_c, 9, 36, 80
1, 54239, Note_on_c, 9, 36, 0
1, 54240, Note_on_c, 9, 38, 85
1, 54240, Note_on_c, 9, 51, 85
1, 54247, Note_on_c, 9, 51, 0
1, 54479, Note_on_c, 9, 38, 0
1, 54480, Note_on_c, 9, 51, 40
1, 54480, Note_on_c, 9, 36, 80
1, 54483, Note_on_c, 9, 51, 0
1, 54599, Note_on_c, 9, 36, 0
1, 54600, Note_on_c, 9, 46, 74
1, 54600, Note_on_c, 9, 36, 80
1, 54603, Note_on_c, 9, 46, 0
1, 54719, Note_on_c, 9, 36, 0
1, 54720, Note_on_c, 9, 51, 85
1, 54723, Note_on_c, 9, 51, 0
1, 54840, Note_on_c, 9, 38, 53
1, 54959, Note_on_c, 9, 38, 0
1, 54960, Note_on_c, 9, 51, 85
1, 54960, Note_on_c, 9, 36, 80
1, 54967, Note_on_c, 9, 51, 0
1, 55079, Note_on_c, 9, 36, 0
1, 55080, Note_on_c, 9, 36, 80
1, 55199, Note_on_c, 9, 36, 0
1, 55200, Note_on_c, 9, 38, 53
1, 55200, Note_on_c, 9, 51, 85
1, 55216, Note_on_c, 9, 51, 0
1, 55440, Note_on_c, 9, 36, 80
1, 55679, Note_on_c, 9, 38, 0
1, 55679, Note_on_c, 9, 36, 0
1, 55680, Note_on_c, 9, 49, 76
1, 55680, Note_on_c, 9, 36, 80
1, 55687, Note_on_c, 9, 49, 0
1, 55919, Note_on_c, 9, 36, 0
1, 55920, Note_on_c, 9, 51, 40
1, 55920, Note_on_c, 9, 36, 80
1, 55927, Note_on_c, 9, 51, 0
1, 56039, Note_on_c, 9, 36, 0
1, 56040, Note_on_c, 9, 36, 80
1, 56159, Note_on_c, 9, 36, 0
1, 56160, Note_on_c, 9, 38, 85
1, 56160, Note_on_c, 9, 51, 85
1, 56167, Note_on_c, 9, 51, 0
1, 56399, Note_on_c, 9, 38, 0
1, 56400, Note_on_c, 9, 51, 40
1, 56400, Note_on_c, 9, 36, 80
1, 56403, Note_on_c, 9, 51, 0
1, 56519, Note_on_c, 9, 36, 0
1, 56520, Note_on_c, 9, 46, 74
1, 56520, Note_on_c, 9, 36, 80
1, 56523, Note_on_c, 9, 46, 0
1, 56639, Note_on_c, 9, 36, 0
1, 56640, Note_on_c, 9, 51, 85
1, 56643, Note_on_c, 9, 51, 0
1, 56760, Note_on_c, 9, 38, 53
1, 56879, Note_on_c, 9, 38, 0
1, 56880, Note_on_c, 9, 51, 85
1, 56880, Note_on_c, 9, 36, 80
1, 56887, Note_on_c, 9, 51, 0
1, 56999, Note_on_c, 9, 36, 0
1, 57000, Note_on_c, 9, 36, 80
1, 57119, Note_on_c, 9, 36, 0
1, 57120, Note_on_c, 9, 38, 53
1, 57120, Note_on_c, 9, 51, 85
1, 57136, Note_on_c, 9, 51, 0
1, 57360, Note_on_c, 9, 36, 80
1, 57599, Note_on_c, 9, 38, 0
1, 57599, Note_on_c, 9, 36, 0
1, 57600, Note_on_c, 9, 49, 76
1, 57600, Note_on_c, 9, 36, 80
1, 57607, Note_on_c, 9, 49, 0
1, 57839, Note_on_c, 9, 36, 0
1, 57840, Note_on_c, 9, 51, 40
1, 57840, Note_on_c, 9, 36, 80
1, 57847, Note_on_c, 9, 51, 0
1, 57959, Note_on_c, 9, 36, 0
1, 57960, Note_on_c, 9, 36, 80
1, 58079, Note_on_c, 9, 36, 0
1, 58080, Note_on_c, 9, 38, 85
1, 58080, Note_on_c, 9, 51, 85
1, 58087, Note_on_c, 9, 51, 0
1, 58319, Note_on_c, 9, 38, 0
1, 58320, Note_on_c, 9, 51, 40
1, 58320, Note_on_c, 9, 36, 80
1, 58323, Note_on_c, 9, 51, 0
1, 58439, Note_on_c, 9, 36, 0
1, 58440, Note_on_c, 9, 46, 74
1, 58440, Note_on_c, 9, 36, 80
1, 58443, Note_on_c, 9, 46, 0
1, 58559, Note_on_c, 9, 36, 0
1, 58560, Note_on_c, 9, 51, 85
1, 58563, Note_on_c, 9, 51, 0
1, 58680, Note_on_c, 9, 38, 53
1, 58799, Note_on_c, 9, 38, 0
1, 58800, Note_on_c, 9, 51, 85
1, 58800, Note_on_c, 9, 36, 80
1, 58807, Note_on_c, 9, 51, 0
1, 58919, Note_on_c, 9, 36, 0
1, 58920, Note_on_c, 9, 36, 80
1, 59039, Note_on_c, 9, 36, 0
1, 59040, Note_on_c, 9, 38, 53
1, 59040, Note_on_c, 9, 51, 85
1, 59056, Note_on_c, 9, 51, 0
1, 59280, Note_on_c, 9, 36, 80
1, 59519, Note_on_c, 9, 38, 0
1, 59519, Note_on_c, 9, 36, 0
1, 59520, Note_on_c, 9, 49, 76
1, 59520, Note_on_c, 9, 36, 80
1, 59527, Note_on_c, 9, 49, 0
1, 59639, Note_on_c, 9, 36, 0
1, 59640, Note_on_c, 9, 36, 80
1, 59760, Note_on_c, 9, 38, 85
1, 59760, Note_on_c, 9, 49, 76
1, 59767, Note_on_c, 9, 49, 0
1, 59879, Note_on_c, 9, 36, 0
1, 59880, Note_on_c, 9, 36, 80
1, 59999, Note_on_c, 9, 38, 0
1, 59999, Note_on_c, 9, 36, 0
1, 60000, Note_on_c, 9, 38, 85
1, 60000, Note_on_c, 9, 49, 76
1, 60007, Note_on_c, 9, 49, 0
1, 60120, Note_on_c, 9, 36, 80
1, 60239, Note_on_c, 9, 38, 0
1, 60239, Note_on_c, 9, 36, 0
1, 60240, Note_on_c, 9, 49, 76
1, 60240, Note_on_c, 9, 36, 80
1, 60243, Note_on_c, 9, 49, 0
1, 60360, Note_on_c, 9, 38, 85
1, 60479, Note_on_c, 9, 36, 0
1, 60479, Note_on_c, 9, 38, 0
1, 60480, Note_on_c, 9, 49, 76
1, 60480, Note_on_c, 9, 36, 80
1, 60483, Note_on_c, 9, 49, 0
1, 60600, Note_on_c, 9, 38, 85
1, 60719, Note_on_c, 9, 36, 0
1, 60719, Note_on_c, 9, 38, 0
1, 60720, Note_on_c, 9, 49, 76
1, 60720, Note_on_c, 9, 36, 80
1, 60727, Note_on_c, 9, 49, 0
1, 60839, Note_on_c, 9, 36, 0
1, 60840, Note_on_c, 9, 36, 80
1, 60959, Note_on_c, 9, 36, 0
1, 60960, Note_on_c, 9, 38, 85
1, 61080, Note_on_c, 9, 36, 80
1, 61199, Note_on_c, 9, 38, 0
1, 61200, Note_on_c, 9, 38, 85
1, 61319, Note_on_c, 9, 36, 0
1, 61320, Note_on_c, 9, 36, 80
1, 61439, Note_on_c, 9, 38, 0
1, 61439, Note_on_c, 9, 36, 0
1, 61440, Note_on_c, 9, 57, 84
1, 61440, Note_on_c, 9, 36, 112
1, 61447, Note_on_c, 9, 57, 0
1, 61680, Note_on_c, 9, 46, 74
1, 61680, Note_on_c, 9, 51, 85
1, 61687, Note_on_c, 9, 46, 0
1, 61687, Note_on_c, 9, 51, 0
1, 61919, Note_on_c, 9, 36, 0
1, 61920, Note_on_c, 9, 38, 85
1, 61920, Note_on_c, 9, 40, 100
1, 61920, Note_on_c, 9, 51, 85
1, 61920, Note_on_c, 9, 36, 80
1, 61927, Note_on_c, 9, 51, 0
1, 62159, Note_on_c, 9, 38, 0
1, 62159, Note_on_c, 9, 40, 0
1, 62160, Note_on_c, 9, 46, 74
1, 62160, Note_on_c, 9, 51, 85
1, 62167, Note_on_c, 9, 46, 0
1, 62167, Note_on_c, 9, 51, 0
1, 62399, Note_on_c, 9, 36, 0
1, 62400, Note_on_c, 9, 51, 85
1, 62400, Note_on_c, 9, 36, 112
1, 62407, Note_on_c, 9, 51, 0
1, 62640, Note_on_c, 9, 46, 74
1, 62640, Note_on_c, 9, 51, 85
1, 62647, Note_on_c, 9, 46, 0
1, 62647, Note_on_c, 9, 51, 0
1, 62879, Note_on_c, 9, 36, 0
1, 62880, Note_on_c, 9, 38, 85
1, 62880, Note_on_c, 9, 40, 100
1, 62880, Note_on_c, 9, 51, 85
1, 62880, Note_on_c, 9, 36, 80
1, 62887, Note_on_c, 9, 51, 0
1, 63119, Note_on_c, 9, 38, 0
1, 63119, Note_on_c, 9, 40, 0
1, 63120, Note_on_c, 9, 46, 74
1, 63120, Note_on_c, 9, 51, 85
1, 63127, Note_on_c, 9, 46, 0
1, 63127, Note_on_c, 9, 51, 0
1, 63359, Note_on_c, 9, 36, 0
1, 63360, Note_on_c, 9, 51, 85
1, 63360, Note_on_c, 9, 36, 112
1, 63367, Note_on_c, 9, 51, 0
1, 63600, Note_on_c, 9, 46, 74
1, 63600, Note_on_c, 9, 51, 85
1, 63607, Note_on_c, 9, 46, 0
1, 63607, Note_on_c, 9, 51, 0
1, 63839, Note_on_c, 9, 36, 0
1, 63840, Note_on_c, 9, 38, 85
1, 63840, Note_on_c, 9, 40, 100
1, 63840, Note_on_c, 9, 51, 85
1, 63840, Note_on_c, 9, 36, 80
1, 63847, Note_on_c, 9, 51, 0
1, 64079, Note_on_c, 9, 38, 0
1, 64079, Note_on_c, 9, 40, 0
1, 64080, Note_on_c, 9, 46, 74
1, 64080, Note_on_c, 9, 51, 85
1, 64087, Note_on_c, 9, 46, 0
1, 64087, Note_on_c, 9, 51, 0
1, 64319, Note_on_c, 9, 36, 0
1, 64320, Note_on_c, 9, 51, 85
1, 64320, Note_on_c, 9, 36, 112
1, 64327, Note_on_c, 9, 51, 0
1, 64560, Note_on_c, 9, 46, 74
1, 64560, Note_on_c, 9, 51, 85
1, 64567, Note_on_c, 9, 46, 0
1, 64567, Note_on_c, 9, 51, 0
1, 64799, Note_on_c, 9, 36, 0
1, 64800, Note_on_c, 9, 38, 85
1, 64800, Note_on_c, 9, 40, 100
1, 64800, Note_on_c, 9, 51, 85
1, 64800, Note_on_c, 9, 36, 80
1, 64807, Note_on_c, 9, 51, 0
1, 65039, Note_on_c, 9, 38, 0
1, 65039, Note_on_c, 9, 40, 0
1, 65040, Note_on_c, 9, 46, 74
1, 65040, Note_on_c, 9, 51, 85
1, 65047, Note_on_c, 9, 46, 0
1, 65047, Note_on_c, 9, 51, 0
1, 65279, Note_on_c, 9, 36, 0
1, 65280, Note_on_c, 9, 51, 85
1, 65280, Note_on_c, 9, 36, 112
1, 65287, Note_on_c, 9, 51, 0
1, 65520, Note_on_c, 9, 46, 74
1, 65520, Note_on_c, 9, 51, 85
1, 65527, Note_on_c, 9, 46, 0
1, 65527, Note_on_c, 9, 51, 0
1, 65759, Note_on_c, 9, 36, 0
1, 65760, Note_on_c, 9, 38, 85
1, 65760, Note_on_c, 9, 40, 100
1, 65760, Note_on_c, 9, 51, 85
1, 65760, Note_on_c, 9, 36, 80
1, 65767, Note_on_c, 9, 51, 0
1, 65999, Note_on_c, 9, 38, 0
1, 65999, Note_on_c, 9, 40, 0
1, 66000, Note_on_c, 9, 46, 74
1, 66000, Note_on_c, 9, 51, 85
1, 66007, Note_on_c, 9, 46, 0
1, 66007, Note_on_c, 9, 51, 0
1, 66239, Note_on_c, 9, 36, 0
1, 66240, Note_on_c, 9, 51, 85
1, 66240, Note_on_c, 9, 36, 112
1, 66247, Note_on_c, 9, 51, 0
1, 66480, Note_on_c, 9, 46, 74
1, 66480, Note_on_c, 9, 51, 85
1, 66487, Note_on_c, 9, 46, 0
1, 66487, Note_on_c, 9, 51, 0
1, 66719, Note_on_c, 9, 36, 0
1, 66720, Note_on_c, 9, 38, 85
1, 66720, Note_on_c, 9, 40, 100
1, 66720, Note_on_c, 9, 51, 85
1, 66720, Note_on_c, 9, 36, 80
1, 66727, Note_on_c, 9, 51, 0
1, 66959, Note_on_c, 9, 38, 0
1, 66959, Note_on_c, 9, 40, 0
1, 66960, Note_on_c, 9, 46, 74
1, 66960, Note_on_c, 9, 51, 85
1, 66967, Note_on_c, 9, 46, 0
1, 66967, Note_on_c, 9, 51, 0
1, 67199, Note_on_c, 9, 36, 0
1, 67200, Note_on_c, 9, 51, 85
1, 67200, Note_on_c, 9, 36, 112
1, 67207, Note_on_c, 9, 51, 0
1, 67440, Note_on_c, 9, 46, 74
1, 67440, Note_on_c, 9, 51, 85
1, 67447, Note_on_c, 9, 46, 0
1, 67447, Note_on_c, 9, 51, 0
1, 67679, Note_on_c, 9, 36, 0
1, 67680, Note_on_c, 9, 38, 85
1, 67680, Note_on_c, 9, 40, 100
1, 67680, Note_on_c, 9, 51, 85
1, 67680, Note_on_c, 9, 36, 80
1, 67687, Note_on_c, 9, 51, 0
1, 67919, Note_on_c, 9, 38, 0
1, 67919, Note_on_c, 9, 40, 0
1, 67920, Note_on_c, 9, 46, 74
1, 67920, Note_on_c, 9, 51, 85
1, 67927, Note_on_c, 9, 46, 0
1, 67927, Note_on_c, 9, 51, 0
1, 68159, Note_on_c, 9, 36, 0
1, 68160, Note_on_c, 9, 51, 85
1, 68160, Note_on_c, 9, 36, 112
1, 68167, Note_on_c, 9, 51, 0
1, 68400, Note_on_c, 9, 46, 74
1, 68400, Note_on_c, 9, 51, 85
1, 68407, Note_on_c, 9, 46, 0
1, 68407, Note_on_c, 9, 51, 0
1, 68639, Note_on_c, 9, 36, 0
1, 68640, Note_on_c, 9, 38, 85
1, 68759, Note_on_c, 9, 38, 0
1, 68760, Note_on_c, 9, 38, 85
1, 68879, Note_on_c, 9, 38, 0
1, 68880, Note_on_c, 9, 38, 85
1, 68999, Note_on_c, 9, 38, 0
1, 69000, Note_on_c, 9, 38, 85
1, 69119, Note_on_c, 9, 38, 0
1, 69120, Note_on_c, 9, 57, 52
1, 69120, Note_on_c, 9, 36, 80
1, 69127, Note_on_c, 9, 57, 0
1, 69359, Note_on_c, 9, 36, 0
1, 69360, Note_on_c, 9, 46, 29
1, 69360, Note_on_c, 9, 36, 80
1, 69367, Note_on_c, 9, 46, 0
1, 69599, Note_on_c, 9, 36, 0
1, 69600, Note_on_c, 9, 38, 53
1, 69720, Note_on_c, 9, 36, 80
1, 69839, Note_on_c, 9, 38, 0
1, 69840, Note_on_c, 9, 46, 29
1, 69847, Note_on_c, 9, 46, 0
1, 70079, Note_on_c, 9, 36, 0
1, 70080, Note_on_c, 9, 36, 80
1, 70319, Note_on_c, 9, 36, 0
1, 70320, Note_on_c, 9, 46, 29
1, 70320, Note_on_c, 9, 36, 80
1, 70327, Note_on_c, 9, 46, 0
1, 70559, Note_on_c, 9, 36, 0
1, 70560, Note_on_c, 9, 38, 53
1, 70680, Note_on_c, 9, 36, 80
1, 70799, Note_on_c, 9, 38, 0
1, 70800, Note_on_c, 9, 46, 29
1, 70807, Note_on_c, 9, 46, 0
1, 71039, Note_on_c, 9, 36, 0
1, 71040, Note_on_c, 9, 36, 80
1, 71279, Note_on_c, 9, 36, 0
1, 71280, Note_on_c, 9, 46, 29
1, 71280, Note_on_c, 9, 36, 80
1, 71287, Note_on_c, 9, 46, 0
1, 71519, Note_on_c, 9, 36, 0
1, 71520, Note_on_c, 9, 38, 53
1, 71640, Note_on_c, 9, 36, 80
1, 71759, Note_on_c, 9, 38, 0
1, 71760, Note_on_c, 9, 46, 29
1, 71767, Note_on_c, 9, 46, 0
1, 71999, Note_on_c, 9, 36, 0
1, 72000, Note_on_c, 9, 36, 80
1, 72239, Note_on_c, 9, 36, 0
1, 72240, Note_on_c, 9, 46, 29
1, 72240, Note_on_c, 9, 36, 80
1, 72247, Note_on_c, 9, 46, 0
1, 72479, Note_on_c, 9, 36, 0
1, 72480, Note_on_c, 9, 38, 53
1, 72600, Note_on_c, 9, 36, 80
1, 72719, Note_on_c, 9, 38, 0
1, 72720, Note_on_c, 9, 46, 29
1, 72727, Note_on_c, 9, 46, 0
1, 72959, Note_on_c, 9, 36, 0
1, 72960, Note_on_c, 9, 36, 80
1, 73199, Note_on_c, 9, 36, 0
1, 73200, Note_on_c, 9, 46, 29
1, 73200, Note_on_c, 9, 36, 80
1, 73207, Note_on_c, 9, 46, 0
1, 73439, Note_on_c, 9, 36, 0
1, 73440, Note_on_c, 9, 38, 53
1, 73560, Note_on_c, 9, 36, 80
1, 73679, Note_on_c, 9, 38, 0
1, 73680, Note_on_c, 9, 46, 29
1, 73687, Note_on_c, 9, 46, 0
1, 73919, Note_on_c, 9, 36, 0
1, 73920, Note_on_c, 9, 36, 80
1, 74159, Note_on_c, 9, 36, 0
1, 74160, Note_on_c, 9, 46, 29
1, 74160, Note_on_c, 9, 36, 80
1, 74167, Note_on_c, 9, 46, 0
1, 74399, Note_on_c, 9, 36, 0
1, 74400, Note_on_c, 9, 38, 53
1, 74520, Note_on_c, 9, 36, 80
1, 74639, Note_on_c, 9, 38, 0
1, 74640, Note_on_c, 9, 46, 29
1, 74647, Note_on_c, 9, 46, 0
1, 74879, Note_on_c, 9, 36, 0
1, 74880, Note_on_c, 9, 36, 80
1, 75119, Note_on_c, 9, 36, 0
1, 75120, Note_on_c, 9, 46, 29
1, 75120, Note_on_c, 9, 36, 80
1, 75127, Note_on_c, 9, 46, 0
1, 75359, Note_on_c, 9, 36, 0
1, 75360, Note_on_c, 9, 38, 53
1, 75480, Note_on_c, 9, 36, 80
1, 75599, Note_on_c, 9, 38, 0
1, 75600, Note_on_c, 9, 46, 29
1, 75607, Note_on_c, 9, 46, 0
1, 75839, Note_on_c, 9, 36, 0
1, 75840, Note_on_c, 9, 36, 80
1, 76079, Note_on_c, 9, 36, 0
1, 76080, Note_on_c, 9, 46, 29
1, 76080, Note_on_c, 9, 36, 80
1, 76087, Note_on_c, 9, 46, 0
1, 76319, Note_on_c, 9, 36, 0
1, 76320, Note_on_c, 9, 38, 53
1, 76439, Note_on_c, 9, 38, 0
1, 76440, Note_on_c, 9, 38, 53
1, 76559, Note_on_c, 9, 38, 0
1, 76560, Note_on_c, 9, 38, 53
1, 76679, Note_on_c, 9, 38, 0
1, 76680, Note_on_c, 9, 38, 53
1, 76799, Note_on_c, 9, 38, 0
1, 76800, Note_on_c, 9, 57, 52
1, 76800, Note_on_c, 9, 36, 80
1, 76807, Note_on_c, 9, 57, 0
1, 77039, Note_on_c, 9, 36, 0
1, 77040, Note_on_c, 9, 46, 29
1, 77040, Note_on_c, 9, 36, 80
1, 77047, Note_on_c, 9, 46, 0
1, 77279, Note_on_c, 9, 36, 0
1, 77280, Note_on_c, 9, 38, 53
1, 77400, Note_on_c, 9, 36, 80
1, 77519, Note_on_c, 9, 38, 0
1, 77520, Note_on_c, 9, 46, 29
1, 77527, Note_on_c, 9, 46, 0
1, 77759, Note_on_c, 9, 36, 0
1, 77760, Note_on_c, 9, 36, 80
1, 77999, Note_on_c, 9, 36, 0
1, 78000, Note_on_c, 9, 46, 29
1, 78000, Note_on_c, 9, 36, 80
1, 78007, Note_on_c, 9, 46, 0
1, 78239, Note_on_c, 9, 36, 0
1, 78240, Note_on_c, 9, 38, 53
1, 78360, Note_on_c, 9, 36, 80
1, 78479, Note_on_c, 9, 38, 0
1, 78480, Note_on_c, 9, 46, 29
1, 78487, Note_on_c, 9, 46, 0
1, 78719, Note_on_c, 9, 36, 0
1, 78720, Note_on_c, 9, 36, 80
1, 78959, Note_on_c, 9, 36, 0
1, 78960, Note_on_c, 9, 46, 29
1, 78960, Note_on_c, 9, 36, 80
1, 78967, Note_on_c, 9, 46, 0
1, 79199, Note_on_c, 9, 36, 0
1, 79200, Note_on_c, 9, 38, 53
1, 79320, Note_on_c, 9, 36, 80
1, 79439, Note_on_c, 9, 38, 0
1, 79440, Note_on_c, 9, 46, 29
1, 79447, Note_on_c, 9, 46, 0
1, 79679, Note_on_c, 9, 36, 0
1, 79680, Note_on_c, 9, 36, 80
1, 79919, Note_on_c, 9, 36, 0
1, 79920, Note_on_c, 9, 46, 29
1, 79920, Note_on_c, 9, 36, 80
1, 79927, Note_on_c, 9, 46, 0
1, 80159, Note_on_c, 9, 36, 0
1, 80160, Note_on_c, 9, 38, 53
1, 80280, Note_on_c, 9, 36, 80
1, 80399, Note_on_c, 9, 38, 0
1, 80400, Note_on_c, 9, 46, 29
1, 80407, Note_on_c, 9, 46, 0
1, 80639, Note_on_c, 9, 36, 0
1, 80640, Note_on_c, 9, 36, 80
1, 80879, Note_on_c, 9, 36, 0
1, 80880, Note_on_c, 9, 46, 29
1, 80880, Note_on_c, 9, 36, 80
1, 80887, Note_on_c, 9, 46, 0
1, 81119, Note_on_c, 9, 36, 0
1, 81120, Note_on_c, 9, 38, 53
1, 81240, Note_on_c, 9, 36, 80
1, 81359, Note_on_c, 9, 38, 0
1, 81360, Note_on_c, 9, 46, 29
1, 81367, Note_on_c, 9, 46, 0
1, 81599, Note_on_c, 9, 36, 0
1, 81600, Note_on_c, 9, 36, 80
1, 81839, Note_on_c, 9, 36, 0
1, 81840, Note_on_c, 9, 46, 29
1, 81840, Note_on_c, 9, 36, 80
1, 81847, Note_on_c, 9, 46, 0
1, 82079, Note_on_c, 9, 36, 0
1, 82080, Note_on_c, 9, 38, 53
1, 82200, Note_on_c, 9, 36, 80
1, 82319, Note_on_c, 9, 38, 0
1, 82320, Note_on_c, 9, 46, 29
1, 82327, Note_on_c, 9, 46, 0
1, 82559, Note_on_c, 9, 36, 0
1, 82560, Note_on_c, 9, 38, 85
1, 82680, Note_on_c, 9, 36, 80
1, 82799, Note_on_c, 9, 36, 0
1, 82800, Note_on_c, 9, 36, 80
1, 82919, Note_on_c, 9, 38, 0
1, 82919, Note_on_c, 9, 36, 0
1, 82920, Note_on_c, 9, 41, 76
1, 82920, Note_on_c, 9, 43, 87
1, 83039, Note_on_c, 9, 41, 0
1, 83039, Note_on_c, 9, 43, 0
1, 83040, Note_on_c, 9, 36, 80
1, 83159, Note_on_c, 9, 36, 0
1, 83160, Note_on_c, 9, 36, 80
1, 83280, Note_on_c, 9, 38, 53
1, 83399, Note_on_c, 9, 36, 0
1, 83400, Note_on_c, 9, 36, 80
1, 83519, Note_on_c, 9, 38, 0
1, 83519, Note_on_c, 9, 36, 0
1, 83520, Note_on_c, 9, 36, 80
1, 83639, Note_on_c, 9, 36, 0
1, 83640, Note_on_c, 9, 41, 76
1, 83640, Note_on_c, 9, 43, 87
1, 83759, Note_on_c, 9, 43, 0
1, 83760, Note_on_c, 9, 36, 80
1, 83879, Note_on_c, 9, 36, 0
1, 83880, Note_on_c, 9, 36, 80
1, 83999, Note_on_c, 9, 41, 0
1, 83999, Note_on_c, 9, 36, 0
1, 84000, Note_on_c, 9, 41, 76
1, 84000, Note_on_c, 9, 43, 87
1, 84119, Note_on_c, 9, 41, 0
1, 84119, Note_on_c, 9, 43, 0
1, 84120, Note_on_c, 9, 41, 76
1, 84120, Note_on_c, 9, 43, 87
1, 84239, Note_on_c, 9, 41, 0
1, 84240, Note_on_c, 9, 38, 53
1, 84479, Note_on_c, 9, 43, 0
1, 84479, Note_on_c, 9, 38, 0
1, 84480, Note_on_c, 9, 49, 76
1, 84480, Note_on_c, 9, 36, 80
1, 84487, Note_on_c, 9, 49, 0
1, 84719, Note_on_c, 9, 36, 0
1, 84720, Note_on_c, 9, 51, 40
1, 84720, Note_on_c, 9, 36, 80
1, 84727, Note_on_c, 9, 51, 0
1, 84839, Note_on_c, 9, 36, 0
1, 84840, Note_on_c, 9, 36, 80
1, 84959, Note_on_c, 9, 36, 0
1, 84960, Note_on_c, 9, 38, 85
1, 84960, Note_on_c, 9, 51, 85
1, 84967, Note_on_c, 9, 51, 0
1, 85199, Note_on_c, 9, 38, 0
1, 85200, Note_on_c, 9, 51, 40
1, 85200, Note_on_c, 9, 36, 80
1, 85203, Note_on_c, 9, 51, 0
1, 85319, Note_on_c, 9, 36, 0
1, 85320, Note_on_c, 9, 46, 74
1, 85320, Note_on_c, 9, 36, 80
1, 85323, Note_on_c, 9, 46, 0
1, 85439, Note_on_c, 9, 36, 0
1, 85440, Note_on_c, 9, 51, 85
1, 85443, Note_on_c, 9, 51, 0
1, 85560, Note_on_c, 9, 38, 53
1, 85679, Note_on_c, 9, 38, 0
1, 85680, Note_on_c, 9, 51, 85
1, 85680, Note_on_c, 9, 36, 80
1, 85687, Note_on_c, 9, 51, 0
1, 85799, Note_on_c, 9, 36, 0
1, 85800, Note_on_c, 9, 36, 80
1, 85919, Note_on_c, 9, 36, 0
1, 85920, Note_on_c, 9, 38, 53
1, 85920, Note_on_c, 9, 51, 85
1, 85936, Note_on_c, 9, 51, 0
1, 86160, Note_on_c, 9, 36, 80
1, 86399, Note_on_c, 9, 38, 0
1, 86399, Note_on_c, 9, 36, 0
1, 86400, Note_on_c, 9, 49, 76
1, 86400, Note_on_c, 9, 36, 80
1, 86407, Note_on_c, 9, 49, 0
1, 86639, Note_on_c, 9, 36, 0
1, 86640, Note_on_c, 9, 51, 40
1, 86640, Note_on_c, 9, 36, 80
1, 86647, Note_on_c, 9, 51, 0
1, 86759, Note_on_c, 9, 36, 0
1, 86760, Note_on_c, 9, 36, 80
1, 86879, Note_on_c, 9, 36, 0
1, 86880, Note_on_c, 9, 38, 85
1, 86880, Note_on_c, 9, 51, 85
1, 86887, Note_on_c, 9, 51, 0
1, 87119, Note_on_c, 9, 38, 0
1, 87120, Note_on_c, 9, 51, 40
1, 87120, Note_on_c, 9, 36, 80
1, 87123, Note_on_c, 9, 51, 0
1, 87239, Note_on_c, 9, 36, 0
1, 87240, Note_on_c, 9, 46, 74
1, 87240, Note_on_c, 9, 36, 80
1, 87243, Note_on_c, 9, 46, 0
1, 87359, Note_on_c, 9, 36, 0
1, 87360, Note_on_c, 9, 51, 85
1, 87363, Note_on_c, 9, 51, 0
1, 87480, Note_on_c, 9, 38, 53
1, 87599, Note_on_c, 9, 38, 0
1, 87600, Note_on_c, 9, 51, 85
1, 87600, Note_on_c, 9, 36, 80
1, 87607, Note_on_c, 9, 51, 0
1, 87719, Note_on_c, 9, 36, 0
1, 87720, Note_on_c, 9, 36, 80
1, 87839, Note_on_c, 9, 36, 0
1, 87840, Note_on_c, 9, 38, 53
1, 87840, Note_on_c, 9, 51, 85
1, 87856, Note_on_c, 9, 51, 0
1, 88080, Note_on_c, 9, 36, 80
1, 88319, Note_on_c, 9, 38, 0
1, 88319, Note_on_c, 9, 36, 0
1, 88320, Note_on_c, 9, 49, 76
1, 88320, Note_on_c, 9, 36, 80
1, 88327, Note_on_c, 9, 49, 0
1, 88559, Note_on_c, 9, 36, 0
1, 88560, Note_on_c, 9, 51, 40
1, 88560, Note_on_c, 9, 36, 80
1, 88567, Note_on_c, 9, 51, 0
1, 88679, Note_on_c, 9, 36, 0
1, 88680, Note_on_c, 9, 36, 80
1, 88799, Note_on_c, 9, 36, 0
1, 88800, Note_on_c, 9, 38, 85
1, 88800, Note_on_c, 9, 51, 85
1, 88807, Note_on_c, 9, 51, 0
1, 89039, Note_on_c, 9, 38, 0
1, 89040, Note_on_c, 9, 51, 40
1, 89040, Note_on_c, 9, 36, 80
1, 89043, Note_on_c, 9, 51, 0
1, 89159, Note_on_c, 9, 36, 0
1, 89160, Note_on_c, 9, 46, 74
1, 89160, Note_on_c, 9, 36, 80
1, 89163, Note_on_c, 9, 46, 0
1, 89279, Note_on_c, 9, 36, 0
1, 89280, Note_on_c, 9, 51, 85
1, 89283, Note_on_c, 9, 51, 0
1, 89400, Note_on_c, 9, 38, 53
1, 89519, Note_on_c, 9, 38, 0
1, 89520, Note_on_c, 9, 51, 85
1, 89520, Note_on_c, 9, 36, 80
1, 89527, Note_on_c, 9, 51, 0
1, 89639, Note_on_c, 9, 36, 0
1, 89640, Note_on_c, 9, 36, 80
1, 89759, Note_on_c, 9, 36, 0
1, 89760, Note_on_c, 9, 38, 53
1, 89760, Note_on_c, 9, 51, 85
1, 89776, Note_on_c, 9, 51, 0
1, 90000, Note_on_c, 9, 36, 80
1, 90239, Note_on_c, 9, 38, 0
1, 90239, Note_on_c, 9, 36, 0
1, 90240, Note_on_c, 9, 49, 76
1, 90240, Note_on_c, 9, 36, 80
1, 90247, Note_on_c, 9, 49, 0
1, 90479, Note_on_c, 9, 36, 0
1, 90480, Note_on_c, 9, 51, 40
1, 90480, Note_on_c, 9, 36, 80
1, 90487, Note_on_c, 9, 51, 0
1, 90599, Note_on_c, 9, 36, 0
1, 90600, Note_on_c, 9, 36, 80
1, 90719, Note_on_c, 9, 36, 0
1, 90720, Note_on_c, 9, 38, 85
1, 90720, Note_on_c, 9, 51, 85
1, 90727, Note_on_c, 9, 51, 0
1, 90959, Note_on_c, 9, 38, 0
1, 90960, Note_on_c, 9, 51, 40
1, 90960, Note_on_c, 9, 36, 80
1, 90963, Note_on_c, 9, 51, 0
1, 91079, Note_on_c, 9, 36, 0
1, 91080, Note_on_c, 9, 46, 74
1, 91080, Note_on_c, 9, 36, 80
1, 91083, Note_on_c, 9, 46, 0
1, 91199, Note_on_c, 9, 36, 0
1, 91200, Note_on_c, 9, 51, 85
1, 91203, Note_on_c, 9, 51, 0
1, 91320, Note_on_c, 9, 38, 53
1, 91439, Note_on_c, 9, 38, 0
1, 91440, Note_on_c, 9, 51, 85
1, 91440, Note_on_c, 9, 36, 80
1, 91447, Note_on_c, 9, 51, 0
1, 91559, Note_on_c, 9, 36, 0
1, 91560, Note_on_c, 9, 36, 80
1, 91679, Note_on_c, 9, 36, 0
1, 91680, Note_on_c, 9, 41, 76
1, 91680, Note_on_c, 9, 43, 87
1, 91799, Note_on_c, 9, 41, 0
1, 91799, Note_on_c, 9, 43, 0
1, 91800, Note_on_c, 9, 41, 76
1, 91800, Note_on_c, 9, 43, 87
1, 91919, Note_on_c, 9, 41, 0
1, 91920, Note_on_c, 9, 38, 53
1, 91920, Note_on_c, 9, 49, 76
1, 91927, Note_on_c, 9, 49, 0
1, 92159, Note_on_c, 9, 43, 0
1, 92159, Note_on_c, 9, 38, 0
1, 92160, Note_on_c, 9, 49, 76
1, 92160, Note_on_c, 9, 36, 80
1, 92167, Note_on_c, 9, 49, 0
1, 92399, Note_on_c, 9, 36, 0
1, 92400, Note_on_c, 9, 51, 40
1, 92400, Note_on_c, 9, 36, 80
1, 92407, Note_on_c, 9, 51, 0
1, 92519, Note_on_c, 9, 36, 0
1, 92520, Note_on_c, 9, 36, 80
1, 92639, Note_on_c, 9, 36, 0
1, 92640, Note_on_c, 9, 38, 85
1, 92640, Note_on_c, 9, 51, 85
1, 92647, Note_on_c, 9, 51, 0
1, 92879, Note_on_c, 9, 38, 0
1, 92880, Note_on_c, 9, 51, 40
1, 92880, Note_on_c, 9, 36, 80
1, 92883, Note_on_c, 9, 51, 0
1, 92999, Note_on_c, 9, 36, 0
1, 93000, Note_on_c, 9, 46, 74
1, 93000, Note_on_c, 9, 36, 80
1, 93003, Note_on_c, 9, 46, 0
1, 93119, Note_on_c, 9, 36, 0
1, 93120, Note_on_c, 9, 51, 85
1, 93123, Note_on_c, 9, 51, 0
1, 93240, Note_on_c, 9, 38, 53
1, 93359, Note_on_c, 9, 38, 0
1, 93360, Note_on_c, 9, 51, 85
1, 93360, Note_on_c, 9, 36, 80
1, 93367, Note_on_c, 9, 51, 0
1, 93479, Note_on_c, 9, 36, 0
1, 93480, Note_on_c, 9, 36, 80
1, 93599, Note_on_c, 9, 36, 0
1, 93600, Note_on_c, 9, 38, 53
1, 93600, Note_on_c, 9, 51, 85
1, 93616, Note_on_c, 9, 51, 0
1, 93840, Note_on_c, 9, 36, 80
1, 94079, Note_on_c, 9, 38, 0
1, 94079, Note_on_c, 9, 36, 0
1, 94080, Note_on_c, 9, 49, 76
1, 94080, Note_on_c, 9, 36, 80
1, 94087, Note_on_c, 9, 49, 0
1, 94319, Note_on_c, 9, 36, 0
1, 94320, Note_on_c, 9, 51, 40
1, 94320, Note_on_c, 9, 36, 80
1, 94327, Note_on_c, 9, 51, 0
1, 94439, Note_on_c, 9, 36, 0
1, 94440, Note_on_c, 9, 36, 80
1, 94559, Note_on_c, 9, 36, 0
1, 94560, Note_on_c, 9, 38, 85
1, 94560, Note_on_c, 9, 51, 85
1, 94567, Note_on_c, 9, 51, 0
1, 94799, Note_on_c, 9, 38, 0
1, 94800, Note_on_c, 9, 51, 40
1, 94800, Note_on_c, 9, 36, 80
1, 94803, Note_on_c, 9, 51, 0
1, 94919, Note_on_c, 9, 36, 0
1, 94920, Note_on_c, 9, 46, 74
1, 94920, Note_on_c, 9, 36, 80
1, 94923, Note_on_c, 9, 46, 0
1, 95039, Note_on_c, 9, 36, 0
1, 95040, Note_on_c, 9, 51, 85
1, 95043, Note_on_c, 9, 51, 0
1, 95160, Note_on_c, 9, 38, 53
1, 95279, Note_on_c, 9, 38, 0
1, 95280, Note_on_c, 9, 51, 85
1, 95280, Note_on_c, 9, 36, 80
1, 95287, Note_on_c, 9, 51, 0
1, 95399, Note_on_c, 9, 36, 0
1, 95400, Note_on_c, 9, 36, 80
1, 95519, Note_on_c, 9, 36, 0
1, 95520, Note_on_c, 9, 38, 53
1, 95520, Note_on_c, 9, 51, 85
1, 95536, Note_on_c, 9, 51, 0
1, 95760, Note_on_c, 9, 36, 80
1, 95999, Note_on_c, 9, 38, 0
1, 95999, Note_on_c, 9, 36, 0
1, 96000, Note_on_c, 9, 49, 76
1, 96000, Note_on_c, 9, 36, 80
1, 96007, Note_on_c, 9, 49, 0
1, 96239, Note_on_c, 9, 36, 0
1, 96240, Note_on_c, 9, 51, 40
1, 96240, Note_on_c, 9, 36, 80
1, 96247, Note_on_c, 9, 51, 0
1, 96359, Note_on_c, 9, 36, 0
1, 96360, Note_on_c, 9, 36, 80
1, 96479, Note_on_c, 9, 36, 0
1, 96480, Note_on_c, 9, 38, 85
1, 96480, Note_on_c, 9, 51, 85
1, 96487, Note_on_c, 9, 51, 0
1, 96719, Note_on_c, 9, 38, 0
1, 96720, Note_on_c, 9, 51, 40
1, 96720, Note_on_c, 9, 36, 80
1, 96723, Note_on_c, 9, 51, 0
1, 96839, Note_on_c, 9, 36, 0
1, 96840, Note_on_c, 9, 46, 74
1, 96840, Note_on_c, 9, 36, 80
1, 96843, Note_on_c, 9, 46, 0
1, 96959, Note_on_c, 9, 36, 0
1, 96960, Note_on_c, 9, 51, 85
1, 96963, Note_on_c, 9, 51, 0
1, 97080, Note_on_c, 9, 38, 53
1, 97199, Note_on_c, 9, 38, 0
1, 97200, Note_on_c, 9, 51, 85
1, 97200, Note_on_c, 9, 36, 80
1, 97207, Note_on_c, 9, 51, 0
1, 97319, Note_on_c, 9, 36, 0
1, 97320, Note_on_c, 9, 36, 80
1, 97439, Note_on_c, 9, 36, 0
1, 97440, Note_on_c, 9, 38, 53
1, 97440, Note_on_c, 9, 51, 85
1, 97456, Note_on_c, 9, 51, 0
1, 97680, Note_on_c, 9, 36, 80
1, 97919, Note_on_c, 9, 38, 0
1, 97919, Note_on_c, 9, 36, 0
1, 97920, Note_on_c, 9, 49, 76
1, 97920, Note_on_c, 9, 36, 80
1, 97927, Note_on_c, 9, 49, 0
1, 98159, Note_on_c, 9, 36, 0
1, 98160, Note_on_c, 9, 51, 40
1, 98160, Note_on_c, 9, 36, 80
1, 98167, Note_on_c, 9, 51, 0
1, 98279, Note_on_c, 9, 36, 0
1, 98280, Note_on_c, 9, 36, 80
1, 98399, Note_on_c, 9, 36, 0
1, 98400, Note_on_c, 9, 38, 85
1, 98400, Note_on_c, 9, 51, 85
1, 98407, Note_on_c, 9, 51, 0
1, 98639, Note_on_c, 9, 38, 0
1, 98640, Note_on_c, 9, 38, 53
1, 98759, Note_on_c, 9, 38, 0
1, 98760, Note_on_c, 9, 38, 53
1, 98879, Note_on_c, 9, 38, 0
1, 98880, Note_on_c, 9, 38, 53
1, 98999, Note_on_c, 9, 38, 0
1, 99000, Note_on_c, 9, 38, 53
1, 99119, Note_on_c, 9, 38, 0
1, 99120, Note_on_c, 9, 38, 53
1, 99240, Note_on_c, 9, 36, 80
1, 99359, Note_on_c, 9, 38, 0
1, 99359, Note_on_c, 9, 36, 0
1, 99360, Note_on_c, 9, 38, 53
1, 99360, Note_on_c, 9, 49, 76
1, 99376, Note_on_c, 9, 49, 0
1, 99839, Note_on_c, 9, 38, 0
1, 99840, Note_on_c, 9, 49, 76
1, 99840, Note_on_c, 9, 36, 112
1, 99847, Note_on_c, 9, 49, 0
1, 100080, Note_on_c, 9, 49, 76
1, 100087, Note_on_c, 9, 49, 0
1, 100319, Note_on_c, 9, 36, 0
1, 100320, Note_on_c, 9, 38, 85
1, 100320, Note_on_c, 9, 49, 76
1, 100320, Note_on_c, 9, 36, 80
1, 100327, Note_on_c, 9, 49, 0
1, 100559, Note_on_c, 9, 38, 0
1, 100560, Note_on_c, 9, 49, 76
1, 100567, Note_on_c, 9, 49, 0
1, 100799, Note_on_c, 9, 36, 0
1, 100800, Note_on_c, 9, 49, 76
1, 100800, Note_on_c, 9, 36, 112
1, 100807, Note_on_c, 9, 49, 0
1, 101040, Note_on_c, 9, 49, 76
1, 101047, Note_on_c, 9, 49, 0
1, 101279, Note_on_c, 9, 36, 0
1, 101280, Note_on_c, 9, 38, 85
1, 101280, Note_on_c, 9, 49, 76
1, 101280, Note_on_c, 9, 36, 80
1, 101287, Note_on_c, 9, 49, 0
1, 101519, Note_on_c, 9, 38, 0
1, 101520, Note_on_c, 9, 49, 76
1, 101527, Note_on_c, 9, 49, 0
1, 101759, Note_on_c, 9, 36, 0
1, 101760, Note_on_c, 9, 49, 76
1, 101760, Note_on_c, 9, 36, 112
1, 101767, Note_on_c, 9, 49, 0
1, 102000, Note_on_c, 9, 49, 76
1, 102007, Note_on_c, 9, 49, 0
1, 102239, Note_on_c, 9, 36, 0
1, 102240, Note_on_c, 9, 38, 85
1, 102240, Note_on_c, 9, 49, 76
1, 102240, Note_on_c, 9, 36, 80
1, 102247, Note_on_c, 9, 49, 0
1, 102479, Note_on_c, 9, 38, 0
1, 102480, Note_on_c, 9, 49, 76
1, 102487, Note_on_c, 9, 49, 0
1, 102719, Note_on_c, 9, 36, 0
1, 102720, Note_on_c, 9, 49, 76
1, 102720, Note_on_c, 9, 36, 112
1, 102727, Note_on_c, 9, 49, 0
1, 102960, Note_on_c, 9, 49, 76
1, 102967, Note_on_c, 9, 49, 0
1, 103199, Note_on_c, 9, 36, 0
1, 103200, Note_on_c, 9, 38, 85
1, 103200, Note_on_c, 9, 49, 76
1, 103200, Note_on_c, 9, 36, 80
1, 103207, Note_on_c, 9, 49, 0
1, 103439, Note_on_c, 9, 38, 0
1, 103440, Note_on_c, 9, 49, 76
1, 103447, Note_on_c, 9, 49, 0
1, 103679, Note_on_c, 9, 36, 0
1, 103680, Note_on_c, 9, 49, 76
1, 103680, Note_on_c, 9, 36, 112
1, 103687, Note_on_c, 9, 49, 0
1, 103919, Note_on_c, 9, 36, 0
1, 103920, Note_on_c, 9, 49, 76
1, 103920, Note_on_c, 9, 36, 112
1, 103927, Note_on_c, 9, 49, 0
1, 104159, Note_on_c, 9, 36, 0
1, 104160, Note_on_c, 9, 38, 85
1, 104160, Note_on_c, 9, 49, 76
1, 104167, Note_on_c, 9, 49, 0
1, 104280, Note_on_c, 9, 36, 112
1, 104399, Note_on_c, 9, 38, 0
1, 104400, Note_on_c, 9, 49, 76
1, 104407, Note_on_c, 9, 49, 0
1, 104639, Note_on_c, 9, 36, 0
1, 104640, Note_on_c, 9, 49, 76
1, 104640, Note_on_c, 9, 36, 112
1, 104647, Note_on_c, 9, 49, 0
1, 104879, Note_on_c, 9, 36, 0
1, 104880, Note_on_c, 9, 49, 76
1, 104880, Note_on_c, 9, 36, 112
1, 104887, Note_on_c, 9, 49, 0
1, 105119, Note_on_c, 9, 36, 0
1, 105120, Note_on_c, 9, 38, 85
1, 105120, Note_on_c, 9, 49, 76
1, 105127, Note_on_c, 9, 49, 0
1, 105240, Note_on_c, 9, 36, 112
1, 105359, Note_on_c, 9, 38, 0
1, 105360, Note_on_c, 9, 49, 76
1, 105367, Note_on_c, 9, 49, 0
1, 105599, Note_on_c, 9, 36, 0
1, 105600, Note_on_c, 9, 49, 76
1, 105600, Note_on_c, 9, 36, 112
1, 105607, Note_on_c, 9, 49, 0
1, 105839, Note_on_c, 9, 36, 0
1, 105840, Note_on_c, 9, 49, 76
1, 105840, Note_on_c, 9, 36, 112
1, 105847, Note_on_c, 9, 49, 0
1, 106079, Note_on_c, 9, 36, 0
1, 106080, Note_on_c, 9, 38, 85
1, 106080, Note_on_c, 9, 40, 100
1, 106080, Note_on_c, 9, 49, 76
1, 106087, Note_on_c, 9, 49, 0
1, 106200, Note_on_c, 9, 36, 112
1, 106319, Note_on_c, 9, 38, 0
1, 106319, Note_on_c, 9, 40, 0
1, 106320, Note_on_c, 9, 49, 76
1, 106327, Note_on_c, 9, 49, 0
1, 106559, Note_on_c, 9, 36, 0
1, 106560, Note_on_c, 9, 38, 85
1, 106560, Note_on_c, 9, 40, 100
1, 106680, Note_on_c, 9, 43, 87
1, 106799, Note_on_c, 9, 43, 0
1, 106800, Note_on_c, 9, 43, 87
1, 106919, Note_on_c, 9, 38, 0
1, 106919, Note_on_c, 9, 40, 0
1, 106920, Note_on_c, 9, 45, 95
1, 107039, Note_on_c, 9, 43, 0
1, 107039, Note_on_c, 9, 45, 0
1, 107040, Note_on_c, 9, 43, 87
1, 107159, Note_on_c, 9, 43, 0
1, 107160, Note_on_c, 9, 43, 87
1, 107280, Note_on_c, 9, 38, 85
1, 107280, Note_on_c, 9, 40, 100
1, 107519, Note_on_c, 9, 43, 0
1, 107519, Note_on_c, 9, 38, 0
1, 107519, Note_on_c, 9, 40, 0
1, 107520, Note_on_c, 9, 57, 84
1, 107520, Note_on_c, 9, 36, 112
1, 107527, Note_on_c, 9, 57, 0
1, 107760, Note_on_c, 9, 46, 74
1, 107760, Note_on_c, 9, 51, 85
1, 107767, Note_on_c, 9, 46, 0
1, 107767, Note_on_c, 9, 51, 0
1, 107999, Note_on_c, 9, 36, 0
1, 108000, Note_on_c, 9, 38, 85
1, 108000, Note_on_c, 9, 40, 100
1, 108000, Note_on_c, 9, 51, 85
1, 108000, Note_on_c, 9, 36, 80
1, 108007, Note_on_c, 9, 51, 0
1, 108239, Note_on_c, 9, 38, 0
1, 108239, Note_on_c, 9, 40, 0
1, 108240, Note_on_c, 9, 46, 74
1, 108240, Note_on_c, 9, 51, 85
1, 108247, Note_on_c, 9, 46, 0
1, 108247, Note_on_c, 9, 51, 0
1, 108479, Note_on_c, 9, 36, 0
1, 108480, Note_on_c, 9, 51, 85
1, 108480, Note_on_c, 9, 36, 112
1, 108487, Note_on_c, 9, 51, 0
1, 108720, Note_on_c, 9, 46, 74
1, 108720, Note_on_c, 9, 51, 85
1, 108727, Note_on_c, 9, 46, 0
1, 108727, Note_on_c, 9, 51, 0
1, 108959, Note_on_c, 9, 36, 0
1, 108960, Note_on_c, 9, 38, 85
1, 108960, Note_on_c, 9, 40, 100
1, 108960, Note_on_c, 9, 51, 85
1, 108960, Note_on_c, 9, 36, 80
1, 108967, Note_on_c, 9, 51, 0
1, 109199, Note_on_c, 9, 38, 0
1, 109199, Note_on_c, 9, 40, 0
1, 109200, Note_on_c, 9, 46, 74
1, 109200, Note_on_c, 9, 51, 85
1, 109207, Note_on_c, 9, 46, 0
1, 109207, Note_on_c, 9, 51, 0
1, 109439, Note_on_c, 9, 36, 0
1, 109440, Note_on_c, 9, 51, 85
1, 109440, Note_on_c, 9, 36, 112
1, 109447, Note_on_c, 9, 51, 0
1, 109680, Note_on_c, 9, 46, 74
1, 109680, Note_on_c, 9, 51, 85
1, 109687, Note_on_c, 9, 46, 0
1, 109687, Note_on_c, 9, 51, 0
1, 109919, Note_on_c, 9, 36, 0
1, 109920, Note_on_c, 9, 38, 85
1, 109920, Note_on_c, 9, 40, 100
1, 109920, Note_on_c, 9, 51, 85
1, 109920, Note_on_c, 9, 36, 80
1, 109927, Note_on_c, 9, 51, 0
1, 110159, Note_on_c, 9, 38, 0
1, 110159, Note_on_c, 9, 40, 0
1, 110160, Note_on_c, 9, 46, 74
1, 110160, Note_on_c, 9, 51, 85
1, 110167, Note_on_c, 9, 46, 0
1, 110167, Note_on_c, 9, 51, 0
1, 110399, Note_on_c, 9, 36, 0
1, 110400, Note_on_c, 9, 51, 85
1, 110400, Note_on_c, 9, 36, 112
1, 110407, Note_on_c, 9, 51, 0
1, 110640, Note_on_c, 9, 46, 74
1, 110640, Note_on_c, 9, 51, 85
1, 110647, Note_on_c, 9, 46, 0
1, 110647, Note_on_c, 9, 51, 0
1, 110879, Note_on_c, 9, 36, 0
1, 110880, Note_on_c, 9, 38, 85
1, 110880, Note_on_c, 9, 40, 100
1, 110880, Note_on_c, 9, 51, 85
1, 110880, Note_on_c, 9, 36, 80
1, 110887, Note_on_c, 9, 51, 0
1, 111119, Note_on_c, 9, 38, 0
1, 111119, Note_on_c, 9, 40, 0
1, 111120, Note_on_c, 9, 46, 74
1, 111120, Note_on_c, 9, 51, 85
1, 111127, Note_on_c, 9, 46, 0
1, 111127, Note_on_c, 9, 51, 0
1, 111359, Note_on_c, 9, 36, 0
1, 111360, Note_on_c, 9, 51, 85
1, 111360, Note_on_c, 9, 36, 112
1, 111367, Note_on_c, 9, 51, 0
1, 111600, Note_on_c, 9, 46, 74
1, 111600, Note_on_c, 9, 51, 85
1, 111607, Note_on_c, 9, 46, 0
1, 111607, Note_on_c, 9, 51, 0
1, 111839, Note_on_c, 9, 36, 0
1, 111840, Note_on_c, 9, 38, 85
1, 111840, Note_on_c, 9, 40, 100
1, 111840, Note_on_c, 9, 51, 85
1, 111840, Note_on_c, 9, 36, 80
1, 111847, Note_on_c, 9, 51, 0
1, 112079, Note_on_c, 9, 38, 0
1, 112079, Note_on_c, 9, 40, 0
1, 112080, Note_on_c, 9, 46, 74
1, 112080, Note_on_c, 9, 51, 85
1, 112087, Note_on_c, 9, 46, 0
1, 112087, Note_on_c, 9, 51, 0
1, 112319, Note_on_c, 9, 36, 0
1, 112320, Note_on_c, 9, 51, 85
1, 112320, Note_on_c, 9, 36, 112
1, 112327, Note_on_c, 9, 51, 0
1, 112560, Note_on_c, 9, 46, 74
1, 112560, Note_on_c, 9, 51, 85
1, 112567, Note_on_c, 9, 46, 0
1, 112567, Note_on_c, 9, 51, 0
1, 112799, Note_on_c, 9, 36, 0
1, 112800, Note_on_c, 9, 38, 85
1, 112800, Note_on_c, 9, 40, 100
1, 112800, Note_on_c, 9, 51, 85
1, 112800, Note_on_c, 9, 36, 80
1, 112807, Note_on_c, 9, 51, 0
1, 113039, Note_on_c, 9, 38, 0
1, 113039, Note_on_c, 9, 40, 0
1, 113040, Note_on_c, 9, 46, 74
1, 113040, Note_on_c, 9, 51, 85
1, 113047, Note_on_c, 9, 46, 0
1, 113047, Note_on_c, 9, 51, 0
1, 113279, Note_on_c, 9, 36, 0
1, 113280, Note_on_c, 9, 51, 85
1, 113280, Note_on_c, 9, 36, 112
1, 113287, Note_on_c, 9, 51, 0
1, 113520, Note_on_c, 9, 46, 74
1, 113520, Note_on_c, 9, 51, 85
1, 113527, Note_on_c, 9, 46, 0
1, 113527, Note_on_c, 9, 51, 0
1, 113759, Note_on_c, 9, 36, 0
1, 113760, Note_on_c, 9, 38, 85
1, 113760, Note_on_c, 9, 40, 100
1, 113760, Note_on_c, 9, 51, 85
1, 113760, Note_on_c, 9, 36, 80
1, 113767, Note_on_c, 9, 51, 0
1, 113999, Note_on_c, 9, 38, 0
1, 113999, Note_on_c, 9, 40, 0
1, 114000, Note_on_c, 9, 46, 74
1, 114000, Note_on_c, 9, 51, 85
1, 114007, Note_on_c, 9, 46, 0
1, 114007, Note_on_c, 9, 51, 0
1, 114239, Note_on_c, 9, 36, 0
1, 114240, Note_on_c, 9, 51, 85
1, 114240, Note_on_c, 9, 36, 112
1, 114247, Note_on_c, 9, 51, 0
1, 114480, Note_on_c, 9, 46, 74
1, 114480, Note_on_c, 9, 51, 85
1, 114487, Note_on_c, 9, 46, 0
1, 114487, Note_on_c, 9, 51, 0
1, 114719, Note_on_c, 9, 36, 0
1, 114720, Note_on_c, 9, 38, 85
1, 114839, Note_on_c, 9, 38, 0
1, 114840, Note_on_c, 9, 38, 85
1, 114959, Note_on_c, 9, 38, 0
1, 114960, Note_on_c, 9, 38, 85
1, 115079, Note_on_c, 9, 38, 0
1, 115080, Note_on_c, 9, 38, 85
1, 115199, Note_on_c, 9, 38, 0
1, 115200, Note_on_c, 9, 57, 84
1, 115200, Note_on_c, 9, 36, 112
1, 115207, Note_on_c, 9, 57, 0
1, 115440, Note_on_c, 9, 46, 74
1, 115440, Note_on_c, 9, 51, 85
1, 115447, Note_on_c, 9, 46, 0
1, 115447, Note_on_c, 9, 51, 0
1, 115679, Note_on_c, 9, 36, 0
1, 115680, Note_on_c, 9, 38, 85
1, 115680, Note_on_c, 9, 40, 100
1, 115680, Note_on_c, 9, 51, 85
1, 115680, Note_on_c, 9, 36, 80
1, 115687, Note_on_c, 9, 51, 0
1, 115919, Note_on_c, 9, 38, 0
1, 115919, Note_on_c, 9, 40, 0
1, 115920, Note_on_c, 9, 46, 74
1, 115920, Note_on_c, 9, 51, 85
1, 115927, Note_on_c, 9, 46, 0
1, 115927, Note_on_c, 9, 51, 0
1, 116159, Note_on_c, 9, 36, 0
1, 116160, Note_on_c, 9, 51, 85
1, 116160, Note_on_c, 9, 36, 112
1, 116167, Note_on_c, 9, 51, 0
1, 116400, Note_on_c, 9, 46, 74
1, 116400, Note_on_c, 9, 51, 85
1, 116407, Note_on_c, 9, 46, 0
1, 116407, Note_on_c, 9, 51, 0
1, 116639, Note_on_c, 9, 36, 0
1, 116640, Note_on_c, 9, 38, 85
1, 116640, Note_on_c, 9, 40, 100
1, 116640, Note_on_c, 9, 51, 85
1, 116640, Note_on_c, 9, 36, 80
1, 116647, Note_on_c, 9, 51, 0
1, 116879, Note_on_c, 9, 38, 0
1, 116879, Note_on_c, 9, 40, 0
1, 116880, Note_on_c, 9, 46, 74
1, 116880, Note_on_c, 9, 51, 85
1, 116887, Note_on_c, 9, 46, 0
1, 116887, Note_on_c, 9, 51, 0
1, 117119, Note_on_c, 9, 36, 0
1, 117120, Note_on_c, 9, 51, 85
1, 117120, Note_on_c, 9, 36, 112
1, 117127, Note_on_c, 9, 51, 0
1, 117360, Note_on_c, 9, 46, 74
1, 117360, Note_on_c, 9, 51, 85
1, 117367, Note_on_c, 9, 46, 0
1, 117367, Note_on_c, 9, 51, 0
1, 117599, Note_on_c, 9, 36, 0
1, 117600, Note_on_c, 9, 38, 85
1, 117600, Note_on_c, 9, 40, 100
1, 117600, Note_on_c, 9, 51, 85
1, 117600, Note_on_c, 9, 36, 80
1, 117607, Note_on_c, 9, 51, 0
1, 117839, Note_on_c, 9, 38, 0
1, 117839, Note_on_c, 9, 40, 0
1, 117840, Note_on_c, 9, 46, 74
1, 117840, Note_on_c, 9, 51, 85
1, 117847, Note_on_c, 9, 46, 0
1, 117847, Note_on_c, 9, 51, 0
1, 118079, Note_on_c, 9, 36, 0
1, 118080, Note_on_c, 9, 51, 85
1, 118080, Note_on_c, 9, 36, 112
1, 118087, Note_on_c, 9, 51, 0
1, 118320, Note_on_c, 9, 46, 74
1, 118320, Note_on_c, 9, 51, 85
1, 118327, Note_on_c, 9, 46, 0
1, 118327, Note_on_c, 9, 51, 0
1, 118559, Note_on_c, 9, 36, 0
1, 118560, Note_on_c, 9, 38, 85
1, 118560, Note_on_c, 9, 40, 100
1, 118560, Note_on_c, 9, 51, 85
1, 118560, Note_on_c, 9, 36, 80
1, 118567, Note_on_c, 9, 51, 0
1, 118799, Note_on_c, 9, 38, 0
1, 118799, Note_on_c, 9, 40, 0
1, 118800, Note_on_c, 9, 46, 74
1, 118800, Note_on_c, 9, 51, 85
1, 118807, Note_on_c, 9, 46, 0
1, 118807, Note_on_c, 9, 51, 0
1, 119039, Note_on_c, 9, 36, 0
1, 119040, Note_on_c, 9, 51, 85
1, 119040, Note_on_c, 9, 36, 112
1, 119047, Note_on_c, 9, 51, 0
1, 119280, Note_on_c, 9, 46, 74
1, 119280, Note_on_c, 9, 51, 85
1, 119287, Note_on_c, 9, 46, 0
1, 119287, Note_on_c, 9, 51, 0
1, 119519, Note_on_c, 9, 36, 0
1, 119520, Note_on_c, 9, 38, 85
1, 119520, Note_on_c, 9, 40, 100
1, 119520, Note_on_c, 9, 51, 85
1, 119520, Note_on_c, 9, 36, 80
1, 119527, Note_on_c, 9, 51, 0
1, 119759, Note_on_c, 9, 38, 0
1, 119759, Note_on_c, 9, 40, 0
1, 119760, Note_on_c, 9, 46, 74
1, 119760, Note_on_c, 9, 51, 85
1, 119767, Note_on_c, 9, 46, 0
1, 119767, Note_on_c, 9, 51, 0
1, 119999, Note_on_c, 9, 36, 0
1, 120000, Note_on_c, 9, 51, 85
1, 120000, Note_on_c, 9, 36, 112
1, 120007, Note_on_c, 9, 51, 0
1, 120240, Note_on_c, 9, 46, 74
1, 120240, Note_on_c, 9, 51, 85
1, 120247, Note_on_c, 9, 46, 0
1, 120247, Note_on_c, 9, 51, 0
1, 120479, Note_on_c, 9, 36, 0
1, 120480, Note_on_c, 9, 38, 85
1, 120480, Note_on_c, 9, 40, 100
1, 120480, Note_on_c, 9, 51, 85
1, 120480, Note_on_c, 9, 36, 80
1, 120487, Note_on_c, 9, 51, 0
1, 120719, Note_on_c, 9, 38, 0
1, 120719, Note_on_c, 9, 40, 0
1, 120720, Note_on_c, 9, 46, 74
1, 120720, Note_on_c, 9, 51, 85
1, 120727, Note_on_c, 9, 46, 0
1, 120727, Note_on_c, 9, 51, 0
1, 120959, Note_on_c, 9, 36, 0
1, 120960, Note_on_c, 9, 38, 85
1, 121080, Note_on_c, 9, 36, 80
1, 121199, Note_on_c, 9, 36, 0
1, 121200, Note_on_c, 9, 36, 80
1, 121319, Note_on_c, 9, 38, 0
1, 121320, Note_on_c, 9, 38, 85
1, 121439, Note_on_c, 9, 36, 0
1, 121439, Note_on_c, 9, 38, 0
1, 121440, Note_on_c, 9, 36, 80
1, 121559, Note_on_c, 9, 36, 0
1, 121560, Note_on_c, 9, 36, 80
1, 121680, Note_on_c, 9, 38, 85
1, 121799, Note_on_c, 9, 36, 0
1, 121800, Note_on_c, 9, 36, 80
1, 121919, Note_on_c, 9, 38, 0
1, 121919, Note_on_c, 9, 36, 0
1, 121920, Note_on_c, 9, 36, 80
1, 122039, Note_on_c, 9, 36, 0
1, 122040, Note_on_c, 9, 38, 85
1, 122040, Note_on_c, 9, 43, 87
1, 122159, Note_on_c, 9, 43, 0
1, 122160, Note_on_c, 9, 36, 80
1, 122279, Note_on_c, 9, 36, 0
1, 122280, Note_on_c, 9, 36, 80
1, 122399, Note_on_c, 9, 38, 0
1, 122399, Note_on_c, 9, 36, 0
1, 122400, Note_on_c, 9, 41, 108
1, 122400, Note_on_c, 9, 36, 80
1, 122400, Note_on_c, 9, 43, 87
1, 122519, Note_on_c, 9, 41, 0
1, 122519, Note_on_c, 9, 36, 0
1, 122519, Note_on_c, 9, 43, 0
1, 122520, Note_on_c, 9, 41, 76
1, 122520, Note_on_c, 9, 36, 80
1, 122520, Note_on_c, 9, 43, 87
1, 122639, Note_on_c, 9, 41, 0
1, 122640, Note_on_c, 9, 38, 85
1, 122640, Note_on_c, 9, 57, 52
1, 122647, Note_on_c, 9, 57, 0
1, 122879, Note_on_c, 9, 36, 0
1, 122879, Note_on_c, 9, 43, 0
1, 122879, Note_on_c, 9, 38, 0
1, 122880, Note_on_c, 9, 49, 76
1, 122880, Note_on_c, 9, 36, 80
1, 122887, Note_on_c, 9, 49, 0
1, 123119, Note_on_c, 9, 36, 0
1, 123120, Note_on_c, 9, 51, 40
1, 123120, Note_on_c, 9, 36, 80
1, 123127, Note_on_c, 9, 51, 0
1, 123239, Note_on_c, 9, 36, 0
1, 123240, Note_on_c, 9, 36, 80
1, 123359, Note_on_c, 9, 36, 0
1, 123360, Note_on_c, 9, 38, 85
1, 123360, Note_on_c, 9, 51, 85
1, 123367, Note_on_c, 9, 51, 0
1, 123599, Note_on_c, 9, 38, 0
1, 123600, Note_on_c, 9, 51, 40
1, 123600, Note_on_c, 9, 36, 80
1, 123603, Note_on_c, 9, 51, 0
1, 123719, Note_on_c, 9, 36, 0
1, 123720, Note_on_c, 9, 46, 74
1, 123720, Note_on_c, 9, 36, 80
1, 123723, Note_on_c, 9, 46, 0
1, 123839, Note_on_c, 9, 36, 0
1, 123840, Note_on_c, 9, 51, 85
1, 123843, Note_on_c, 9, 51, 0
1, 123960, Note_on_c, 9, 38, 53
1, 124079, Note_on_c, 9, 38, 0
1, 124080, Note_on_c, 9, 51, 85
1, 124080, Note_on_c, 9, 36, 80
1, 124087, Note_on_c, 9, 51, 0
1, 124199, Note_on_c, 9, 36, 0
1, 124200, Note_on_c, 9, 36, 80
1, 124319, Note_on_c, 9, 36, 0
1, 124320, Note_on_c, 9, 38, 53
1, 124320, Note_on_c, 9, 51, 85
1, 124336, Note_on_c, 9, 51, 0
1, 124560, Note_on_c, 9, 36, 80
1, 124799, Note_on_c, 9, 38, 0
1, 124799, Note_on_c, 9, 36, 0
1, 124800, Note_on_c, 9, 49, 76
1, 124800, Note_on_c, 9, 36, 80
1, 124807, Note_on_c, 9, 49, 0
1, 125039, Note_on_c, 9, 36, 0
1, 125040, Note_on_c, 9, 51, 40
1, 125040, Note_on_c, 9, 36, 80
1, 125047, Note_on_c, 9, 51, 0
1, 125159, Note_on_c, 9, 36, 0
1, 125160, Note_on_c, 9, 36, 80
1, 125279, Note_on_c, 9, 36, 0
1, 125280, Note_on_c, 9, 38, 85
1, 125280, Note_on_c, 9, 51, 85
1, 125287, Note_on_c, 9, 51, 0
1, 125519, Note_on_c, 9, 38, 0
1, 125520, Note_on_c, 9, 51, 40
1, 125520, Note_on_c, 9, 36, 80
1, 125523, Note_on_c, 9, 51, 0
1, 125639, Note_on_c, 9, 36, 0
1, 125640, Note_on_c, 9, 46, 74
1, 125640, Note_on_c, 9, 36, 80
1, 125643, Note_on_c, 9, 46, 0
1, 125759, Note_on_c, 9, 36, 0
1, 125760, Note_on_c, 9, 51, 85
1, 125763, Note_on_c, 9, 51, 0
1, 125880, Note_on_c, 9, 38, 53
1, 125999, Note_on_c, 9, 38, 0
1, 126000, Note_on_c, 9, 51, 85
1, 126000, Note_on_c, 9, 36, 80
1, 126007, Note_on_c, 9, 51, 0
1, 126119, Note_on_c, 9, 36, 0
1, 126120, Note_on_c, 9, 36, 80
1, 126239, Note_on_c, 9, 36, 0
1, 126240, Note_on_c, 9, 38, 53
1, 126240, Note_on_c, 9, 51, 85
1, 126256, Note_on_c, 9, 51, 0
1, 126480, Note_on_c, 9, 36, 80
1, 126719, Note_on_c, 9, 38, 0
1, 126719, Note_on_c, 9, 36, 0
1, 126720, Note_on_c, 9, 49, 76
1, 126720, Note_on_c, 9, 36, 80
1, 126727, Note_on_c, 9, 49, 0
1, 126959, Note_on_c, 9, 36, 0
1, 126960, Note_on_c, 9, 51, 40
1, 126960, Note_on_c, 9, 36, 80
1, 126967, Note_on_c, 9, 51, 0
1, 127079, Note_on_c, 9, 36, 0
1, 127080, Note_on_c, 9, 36, 80
1, 127199, Note_on_c, 9, 36, 0
1, 127200, Note_on_c, 9, 38, 85
1, 127200, Note_on_c, 9, 51, 85
1, 127207, Note_on_c, 9, 51, 0
1, 127439, Note_on_c, 9, 38, 0
1, 127440, Note_on_c, 9, 51, 40
1, 127440, Note_on_c, 9, 36, 80
1, 127443, Note_on_c, 9, 51, 0
1, 127559, Note_on_c, 9, 36, 0
1, 127560, Note_on_c, 9, 46, 74
1, 127560, Note_on_c, 9, 36, 80
1, 127563, Note_on_c, 9, 46, 0
1, 127679, Note_on_c, 9, 36, 0
1, 127680, Note_on_c, 9, 51, 85
1, 127683, Note_on_c, 9, 51, 0
1, 127800, Note_on_c, 9, 38, 53
1, 127919, Note_on_c, 9, 38, 0
1, 127920, Note_on_c, 9, 51, 85
1, 127920, Note_on_c, 9, 36, 80
1, 127927, Note_on_c, 9, 51, 0
1, 128039, Note_on_c, 9, 36, 0
1, 128040, Note_on_c, 9, 36, 80
1, 128159, Note_on_c, 9, 36, 0
1, 128160, Note_on_c, 9, 38, 53
1, 128160, Note_on_c, 9, 51, 85
1, 128176, Note_on_c, 9, 51, 0
1, 128400, Note_on_c, 9, 36, 80
1, 128639, Note_on_c, 9, 38, 0
1, 128639, Note_on_c, 9, 36, 0
1, 128640, Note_on_c, 9, 49, 76
1, 128640, Note_on_c, 9, 36, 80
1, 128647, Note_on_c, 9, 49, 0
1, 128879, Note_on_c, 9, 36, 0
1, 128880, Note_on_c, 9, 51, 40
1, 128880, Note_on_c, 9, 36, 80
1, 128887, Note_on_c, 9, 51, 0
1, 128999, Note_on_c, 9, 36, 0
1, 129000, Note_on_c, 9, 36, 80
1, 129119, Note_on_c, 9, 36, 0
1, 129120, Note_on_c, 9, 38, 85
1, 129120, Note_on_c, 9, 51, 85
1, 129127, Note_on_c, 9, 51, 0
1, 129359, Note_on_c, 9, 38, 0
1, 129360, Note_on_c, 9, 51, 40
1, 129360, Note_on_c, 9, 36, 80
1, 129363, Note_on_c, 9, 51, 0
1, 129479, Note_on_c, 9, 36, 0
1, 129480, Note_on_c, 9, 46, 74
1, 129480, Note_on_c, 9, 36, 80
1, 129483, Note_on_c, 9, 46, 0
1, 129599, Note_on_c, 9, 36, 0
1, 129600, Note_on_c, 9, 51, 85
1, 129603, Note_on_c, 9, 51, 0
1, 129720, Note_on_c, 9, 38, 53
1, 129839, Note_on_c, 9, 38, 0
1, 129840, Note_on_c, 9, 51, 85
1, 129840, Note_on_c, 9, 36, 80
1, 129847, Note_on_c, 9, 51, 0
1, 129959, Note_on_c, 9, 36, 0
1, 129960, Note_on_c, 9, 36, 80
1, 130079, Note_on_c, 9, 36, 0
1, 130080, Note_on_c, 9, 41, 76
1, 130080, Note_on_c, 9, 43, 87
1, 130199, Note_on_c, 9, 41, 0
1, 130199, Note_on_c, 9, 43, 0
1, 130200, Note_on_c, 9, 41, 76
1, 130200, Note_on_c, 9, 43, 87
1, 130319, Note_on_c, 9, 41, 0
1, 130320, Note_on_c, 9, 38, 53
1, 130320, Note_on_c, 9, 49, 76
1, 130327, Note_on_c, 9, 49, 0
1, 130559, Note_on_c, 9, 43, 0
1, 130559, Note_on_c, 9, 38, 0
1, 130560, Note_on_c, 9, 49, 76
1, 130560, Note_on_c, 9, 36, 80
1, 130567, Note_on_c, 9, 49, 0
1, 130799, Note_on_c, 9, 36, 0
1, 130800, Note_on_c, 9, 51, 40
1, 130800, Note_on_c, 9, 36, 80
1, 130807, Note_on_c, 9, 51, 0
1, 130919, Note_on_c, 9, 36, 0
1, 130920, Note_on_c, 9, 36, 80
1, 131039, Note_on_c, 9, 36, 0
1, 131040, Note_on_c, 9, 38, 85
1, 131040, Note_on_c, 9, 51, 85
1, 131047, Note_on_c, 9, 51, 0
1, 131279, Note_on_c, 9, 38, 0
1, 131280, Note_on_c, 9, 51, 40
1, 131280, Note_on_c, 9, 36, 80
1, 131283, Note_on_c, 9, 51, 0
1, 131399, Note_on_c, 9, 36, 0
1, 131400, Note_on_c, 9, 46, 74
1, 131400, Note_on_c, 9, 36, 80
1, 131403, Note_on_c, 9, 46, 0
1, 131519, Note_on_c, 9, 36, 0
1, 131520, Note_on_c, 9, 51, 85
1, 131523, Note_on_c, 9, 51, 0
1, 131640, Note_on_c, 9, 38, 53
1, 131759, Note_on_c, 9, 38, 0
1, 131760, Note_on_c, 9, 51, 85
1, 131760, Note_on_c, 9, 36, 80
1, 131767, Note_on_c, 9, 51, 0
1, 131879, Note_on_c, 9, 36, 0
1, 131880, Note_on_c, 9, 36, 80
1, 131999, Note_on_c, 9, 36, 0
1, 132000, Note_on_c, 9, 38, 53
1, 132000, Note_on_c, 9, 51, 85
1, 132016, Note_on_c, 9, 51, 0
1, 132240, Note_on_c, 9, 36, 80
1, 132479, Note_on_c, 9, 38, 0
1, 132479, Note_on_c, 9, 36, 0
1, 132480, Note_on_c, 9, 49, 76
1, 132480, Note_on_c, 9, 36, 80
1, 132487, Note_on_c, 9, 49, 0
1, 132719, Note_on_c, 9, 36, 0
1, 132720, Note_on_c, 9, 51, 40
1, 132720, Note_on_c, 9, 36, 80
1, 132727, Note_on_c, 9, 51, 0
1, 132839, Note_on_c, 9, 36, 0
1, 132840, Note_on_c, 9, 36, 80
1, 132959, Note_on_c, 9, 36, 0
1, 132960, Note_on_c, 9, 38, 85
1, 132960, Note_on_c, 9, 51, 85
1, 132967, Note_on_c, 9, 51, 0
1, 133199, Note_on_c, 9, 38, 0
1, 133200, Note_on_c, 9, 51, 40
1, 133200, Note_on_c, 9, 36, 80
1, 133203, Note_on_c, 9, 51, 0
1, 133319, Note_on_c, 9, 36, 0
1, 133320, Note_on_c, 9, 46, 74
1, 133320, Note_on_c, 9, 36, 80
1, 133323, Note_on_c, 9, 46, 0
1, 133439, Note_on_c, 9, 36, 0
1, 133440, Note_on_c, 9, 51, 85
1, 133443, Note_on_c, 9, 51, 0
1, 133560, Note_on_c, 9, 38, 53
1, 133679, Note_on_c, 9, 38, 0
1, 133680, Note_on_c, 9, 51, 85
1, 133680, Note_on_c, 9, 36, 80
1, 133687, Note_on_c, 9, 51, 0
1, 133799, Note_on_c, 9, 36, 0
1, 133800, Note_on_c, 9, 36, 80
1, 133919, Note_on_c, 9, 36, 0
1, 133920, Note_on_c, 9, 38, 53
1, 133920, Note_on_c, 9, 51, 85
1, 133936, Note_on_c, 9, 51, 0
1, 134160, Note_on_c, 9, 36, 80
1, 134399, Note_on_c, 9, 38, 0
1, 134399, Note_on_c, 9, 36, 0
1, 134400, Note_on_c, 9, 49, 76
1, 134400, Note_on_c, 9, 36, 80
1, 134407, Note_on_c, 9, 49, 0
1, 134639, Note_on_c, 9, 36, 0
1, 134640, Note_on_c, 9, 51, 40
1, 134640, Note_on_c, 9, 36, 80
1, 134647, Note_on_c, 9, 51, 0
1, 134759, Note_on_c, 9, 36, 0
1, 134760, Note_on_c, 9, 36, 80
1, 134879, Note_on_c, 9, 36, 0
1, 134880, Note_on_c, 9, 38, 85
1, 134880, Note_on_c, 9, 51, 85
1, 134887, Note_on_c, 9, 51, 0
1, 135119, Note_on_c, 9, 38, 0
1, 135120, Note_on_c, 9, 51, 40
1, 135120, Note_on_c, 9, 36, 80
1, 135123, Note_on_c, 9, 51, 0
1, 135239, Note_on_c, 9, 36, 0
1, 135240, Note_on_c, 9, 46, 74
1, 135240, Note_on_c, 9, 36, 80
1, 135243, Note_on_c, 9, 46, 0
1, 135359, Note_on_c, 9, 36, 0
1, 135360, Note_on_c, 9, 51, 85
1, 135363, Note_on_c, 9, 51, 0
1, 135480, Note_on_c, 9, 38, 53
1, 135599, Note_on_c, 9, 38, 0
1, 135600, Note_on_c, 9, 51, 85
1, 135600, Note_on_c, 9, 36, 80
1, 135607, Note_on_c, 9, 51, 0
1, 135719, Note_on_c, 9, 36, 0
1, 135720, Note_on_c, 9, 36, 80
1, 135839, Note_on_c, 9, 36, 0
1, 135840, Note_on_c, 9, 38, 53
1, 135840, Note_on_c, 9, 51, 85
1, 135856, Note_on_c, 9, 51, 0
1, 136080, Note_on_c, 9, 36, 80
1, 136319, Note_on_c, 9, 38, 0
1, 136319, Note_on_c, 9, 36, 0
1, 136320, Note_on_c, 9, 49, 108
1, 136320, Note_on_c, 9, 36, 112
1, 136327, Note_on_c, 9, 49, 0
1, 136560, Note_on_c, 9, 51, 40
1, 136567, Note_on_c, 9, 51, 0
1, 136679, Note_on_c, 9, 36, 0
1, 136680, Note_on_c, 9, 36, 80
1, 136799, Note_on_c, 9, 36, 0
1, 136800, Note_on_c, 9, 38, 85
1, 136800, Note_on_c, 9, 57, 7
1, 136807, Note_on_c, 9, 57, 0
1, 137039, Note_on_c, 9, 38, 0
1, 137040, Note_on_c, 9, 38, 85
1, 137159, Note_on_c, 9, 38, 0
1, 137160, Note_on_c, 9, 38, 85
1, 137279, Note_on_c, 9, 38, 0
1, 137280, Note_on_c, 9, 38, 85
1, 137399, Note_on_c, 9, 38, 0
1, 137400, Note_on_c, 9, 38, 85
1, 137519, Note_on_c, 9, 38, 0
1, 137520, Note_on_c, 9, 38, 85
1, 137639, Note_on_c, 9, 38, 0
1, 137640, Note_on_c, 9, 38, 85
1, 137759, Note_on_c, 9, 38, 0
1, 137760, Note_on_c, 9, 41, 108
1, 137760, Note_on_c, 9, 43, 87
1, 137879, Note_on_c, 9, 41, 0
1, 137879, Note_on_c, 9, 43, 0
1, 137880, Note_on_c, 9, 41, 108
1, 137880, Note_on_c, 9, 43, 87
1, 137999, Note_on_c, 9, 41, 0
1, 138000, Note_on_c, 9, 38, 85
1, 138000, Note_on_c, 9, 57, 84
1, 138007, Note_on_c, 9, 57, 0
1, 138239, Note_on_c, 9, 43, 0
1, 138239, Note_on_c, 9, 38, 0
1, 138240, Note_on_c, 9, 49, 76
1, 138240, Note_on_c, 9, 36, 80
1, 138247, Note_on_c, 9, 49, 0
1, 138479, Note_on_c, 9, 36, 0
1, 138480, Note_on_c, 9, 51, 40
1, 138480, Note_on_c, 9, 36, 80
1, 138487, Note_on_c, 9, 51, 0
1, 138599, Note_on_c, 9, 36, 0
1, 138600, Note_on_c, 9, 36, 80
1, 138719, Note_on_c, 9, 36, 0
1, 138720, Note_on_c, 9, 38, 85
1, 138720, Note_on_c, 9, 51, 85
1, 138727, Note_on_c, 9, 51, 0
1, 138959, Note_on_c, 9, 38, 0
1, 138960, Note_on_c, 9, 51, 40
1, 138960, Note_on_c, 9, 36, 80
1, 138963, Note_on_c, 9, 51, 0
1, 139079, Note_on_c, 9, 36, 0
1, 139080, Note_on_c, 9, 46, 74
1, 139080, Note_on_c, 9, 36, 80
1, 139083, Note_on_c, 9, 46, 0
1, 139199, Note_on_c, 9, 36, 0
1, 139200, Note_on_c, 9, 51, 85
1, 139203, Note_on_c, 9, 51, 0
1, 139320, Note_on_c, 9, 38, 53
1, 139439, Note_on_c, 9, 38, 0
1, 139440, Note_on_c, 9, 51, 85
1, 139440, Note_on_c, 9, 36, 80
1, 139447, Note_on_c, 9, 51, 0
1, 139559, Note_on_c, 9, 36, 0
1, 139560, Note_on_c, 9, 36, 80
1, 139679, Note_on_c, 9, 36, 0
1, 139680, Note_on_c, 9, 38, 53
1, 139680, Note_on_c, 9, 51, 85
1, 139696, Note_on_c, 9, 51, 0
1, 139920, Note_on_c, 9, 36, 80
1, 140159, Note_on_c, 9, 38, 0
1, 140159, Note_on_c, 9, 36, 0
1, 140160, Note_on_c, 9, 49, 76
1, 140160, Note_on_c, 9, 36, 80
1, 140167, Note_on_c, 9, 49, 0
1, 140399, Note_on_c, 9, 36, 0
1, 140400, Note_on_c, 9, 51, 40
1, 140400, Note_on_c, 9, 36, 80
1, 140407, Note_on_c, 9, 51, 0
1, 140519, Note_on_c, 9, 36, 0
1, 140520, Note_on_c, 9, 36, 80
1, 140639, Note_on_c, 9, 36, 0
1, 140640, Note_on_c, 9, 38, 85
1, 140640, Note_on_c, 9, 51, 85
1, 140647, Note_on_c, 9, 51, 0
1, 140879, Note_on_c, 9, 38, 0
1, 140880, Note_on_c, 9, 51, 40
1, 140880, Note_on_c, 9, 36, 80
1, 140883, Note_on_c, 9, 51, 0
1, 140999, Note_on_c, 9, 36, 0
1, 141000, Note_on_c, 9, 46, 74
1, 141000, Note_on_c, 9, 36, 80
1, 141003, Note_on_c, 9, 46, 0
1, 141119, Note_on_c, 9, 36, 0
1, 141120, Note_on_c, 9, 51, 85
1, 141123, Note_on_c, 9, 51, 0
1, 141240, Note_on_c, 9, 38, 53
1, 141359, Note_on_c, 9, 38, 0
1, 141360, Note_on_c, 9, 51, 85
1, 141360, Note_on_c, 9, 36, 80
1, 141367, Note_on_c, 9, 51, 0
1, 141479, Note_on_c, 9, 36, 0
1, 141480, Note_on_c, 9, 36, 80
1, 141599, Note_on_c, 9, 36, 0
1, 141600, Note_on_c, 9, 38, 53
1, 141600, Note_on_c, 9, 51, 85
1, 141616, Note_on_c, 9, 51, 0
1, 141840, Note_on_c, 9, 36, 80
1, 142079, Note_on_c, 9, 38, 0
1, 142079, Note_on_c, 9, 36, 0
1, 142080, Note_on_c, 9, 49, 76
1, 142080, Note_on_c, 9, 36, 80
1, 142087, Note_on_c, 9, 49, 0
1, 142319, Note_on_c, 9, 36, 0
1, 142320, Note_on_c, 9, 51, 40
1, 142320, Note_on_c, 9, 36, 80
1, 142327, Note_on_c, 9, 51, 0
1, 142439, Note_on_c, 9, 36, 0
1, 142440, Note_on_c, 9, 36, 80
1, 142559, Note_on_c, 9, 36, 0
1, 142560, Note_on_c, 9, 38, 85
1, 142560, Note_on_c, 9, 51, 85
1, 142567, Note_on_c, 9, 51, 0
1, 142799, Note_on_c, 9, 38, 0
1, 142800, Note_on_c, 9, 51, 40
1, 142800, Note_on_c, 9, 36, 80
1, 142803, Note_on_c, 9, 51, 0
1, 142919, Note_on_c, 9, 36, 0
1, 142920, Note_on_c, 9, 46, 74
1, 142920, Note_on_c, 9, 36, 80
1, 142923, Note_on_c, 9, 46, 0
1, 143039, Note_on_c, 9, 36, 0
1, 143040, Note_on_c, 9, 51, 85
1, 143043, Note_on_c, 9, 51, 0
1, 143160, Note_on_c, 9, 38, 53
1, 143279, Note_on_c, 9, 38, 0
1, 143280, Note_on_c, 9, 51, 85
1, 143280, Note_on_c, 9, 36, 80
1, 143287, Note_on_c, 9, 51, 0
1, 143399, Note_on_c, 9, 36, 0
1, 143400, Note_on_c, 9, 36, 80
1, 143519, Note_on_c, 9, 36, 0
1, 143520, Note_on_c, 9, 38, 53
1, 143520, Note_on_c, 9, 51, 85
1, 143536, Note_on_c, 9, 51, 0
1, 143760, Note_on_c, 9, 36, 80
1, 143999, Note_on_c, 9, 38, 0
1, 143999, Note_on_c, 9, 36, 0
1, 144000, Note_on_c, 9, 49, 76
1, 144000, Note_on_c, 9, 36, 80
1, 144007, Note_on_c, 9, 49, 0
1, 144239, Note_on_c, 9, 36, 0
1, 144240, Note_on_c, 9, 51, 40
1, 144240, Note_on_c, 9, 36, 80
1, 144247, Note_on_c, 9, 51, 0
1, 144359, Note_on_c, 9, 36, 0
1, 144360, Note_on_c, 9, 36, 80
1, 144479, Note_on_c, 9, 36, 0
1, 144480, Note_on_c, 9, 38, 85
1, 144480, Note_on_c, 9, 51, 85
1, 144487, Note_on_c, 9, 51, 0
1, 144719, Note_on_c, 9, 38, 0
1, 144720, Note_on_c, 9, 51, 40
1, 144720, Note_on_c, 9, 36, 80
1, 144723, Note_on_c, 9, 51, 0
1, 144839, Note_on_c, 9, 36, 0
1, 144840, Note_on_c, 9, 46, 74
1, 144840, Note_on_c, 9, 36, 80
1, 144843, Note_on_c, 9, 46, 0
1, 144959, Note_on_c, 9, 36, 0
1, 144960, Note_on_c, 9, 51, 85
1, 144963, Note_on_c, 9, 51, 0
1, 145080, Note_on_c, 9, 38, 53
1, 145199, Note_on_c, 9, 38, 0
1, 145200, Note_on_c, 9, 51, 85
1, 145200, Note_on_c, 9, 36, 80
1, 145207, Note_on_c, 9, 51, 0
1, 145319, Note_on_c, 9, 36, 0
1, 145320, Note_on_c, 9, 36, 80
1, 145439, Note_on_c, 9, 36, 0
1, 145440, Note_on_c, 9, 41, 76
1, 145440, Note_on_c, 9, 43, 87
1, 145559, Note_on_c, 9, 41, 0
1, 145559, Note_on_c, 9, 43, 0
1, 145560, Note_on_c, 9, 41, 76
1, 145560, Note_on_c, 9, 43, 87
1, 145679, Note_on_c, 9, 41, 0
1, 145680, Note_on_c, 9, 38, 53
1, 145680, Note_on_c, 9, 49, 76
1, 145687, Note_on_c, 9, 49, 0
1, 145919, Note_on_c, 9, 43, 0
1, 145919, Note_on_c, 9, 38, 0
1, 145920, Note_on_c, 9, 49, 76
1, 145920, Note_on_c, 9, 36, 80
1, 145927, Note_on_c, 9, 49, 0
1, 146159, Note_on_c, 9, 36, 0
1, 146160, Note_on_c, 9, 51, 40
1, 146160, Note_on_c, 9, 36, 80
1, 146167, Note_on_c, 9, 51, 0
1, 146279, Note_on_c, 9, 36, 0
1, 146280, Note_on_c, 9, 36, 80
1, 146399, Note_on_c, 9, 36, 0
1, 146400, Note_on_c, 9, 38, 85
1, 146400, Note_on_c, 9, 51, 85
1, 146407, Note_on_c, 9, 51, 0
1, 146639, Note_on_c, 9, 38, 0
1, 146640, Note_on_c, 9, 51, 40
1, 146640, Note_on_c, 9, 36, 80
1, 146643, Note_on_c, 9, 51, 0
1, 146759, Note_on_c, 9, 36, 0
1, 146760, Note_on_c, 9, 46, 74
1, 146760, Note_on_c, 9, 36, 80
1, 146763, Note_on_c, 9, 46, 0
1, 146879, Note_on_c, 9, 36, 0
1, 146880, Note_on_c, 9, 51, 85
1, 146883, Note_on_c, 9, 51, 0
1, 147000, Note_on_c, 9, 38, 53
1, 147119, Note_on_c, 9, 38, 0
1, 147120, Note_on_c, 9, 51, 85
1, 147120, Note_on_c, 9, 36, 80
1, 147127, Note_on_c, 9, 51, 0
1, 147239, Note_on_c, 9, 36, 0
1, 147240, Note_on_c, 9, 36, 80
1, 147359, Note_on_c, 9, 36, 0
1, 147360, Note_on_c, 9, 38, 53
1, 147360, Note_on_c, 9, 51, 85
1, 147376, Note_on_c, 9, 51, 0
1, 147600, Note_on_c, 9, 36, 80
1, 147839, Note_on_c, 9, 38, 0
1, 147839, Note_on_c, 9, 36, 0
1, 147840, Note_on_c, 9, 49, 76
1, 147840, Note_on_c, 9, 36, 80
1, 147847, Note_on_c, 9, 49, 0
1, 148079, Note_on_c, 9, 36, 0
1, 148080, Note_on_c, 9, 51, 40
1, 148080, Note_on_c, 9, 36, 80
1, 148087, Note_on_c, 9, 51, 0
1, 148199, Note_on_c, 9, 36, 0
1, 148200, Note_on_c, 9, 36, 80
1, 148319, Note_on_c, 9, 36, 0
1, 148320, Note_on_c, 9, 38, 85
1, 148320, Note_on_c, 9, 51, 85
1, 148327, Note_on_c, 9, 51, 0
1, 148559, Note_on_c, 9, 38, 0
1, 148560, Note_on_c, 9, 51, 40
1, 148560, Note_on_c, 9, 36, 80
1, 148563, Note_on_c, 9, 51, 0
1, 148679, Note_on_c, 9, 36, 0
1, 148680, Note_on_c, 9, 46, 74
1, 148680, Note_on_c, 9, 36, 80
1, 148683, Note_on_c, 9, 46, 0
1, 148799, Note_on_c, 9, 36, 0
1, 148800, Note_on_c, 9, 51, 85
1, 148803, Note_on_c, 9, 51, 0
1, 148920, Note_on_c, 9, 38, 53
1, 149039, Note_on_c, 9, 38, 0
1, 149040, Note_on_c, 9, 51, 85
1, 149040, Note_on_c, 9, 36, 80
1, 149047, Note_on_c, 9, 51, 0
1, 149159, Note_on_c, 9, 36, 0
1, 149160, Note_on_c, 9, 36, 80
1, 149279, Note_on_c, 9, 36, 0
1, 149280, Note_on_c, 9, 38, 53
1, 149280, Note_on_c, 9, 51, 85
1, 149296, Note_on_c, 9, 51, 0
1, 149520, Note_on_c, 9, 36, 80
1, 149759, Note_on_c, 9, 38, 0
1, 149759, Note_on_c, 9, 36, 0
1, 149760, Note_on_c, 9, 49, 76
1, 149760, Note_on_c, 9, 36, 80
1, 149767, Note_on_c, 9, 49, 0
1, 149999, Note_on_c, 9, 36, 0
1, 150000, Note_on_c, 9, 51, 40
1, 150000, Note_on_c, 9, 36, 80
1, 150007, Note_on_c, 9, 51, 0
1, 150119, Note_on_c, 9, 36, 0
1, 150120, Note_on_c, 9, 36, 80
1, 150239, Note_on_c, 9, 36, 0
1, 150240, Note_on_c, 9, 38, 85
1, 150240, Note_on_c, 9, 51, 85
1, 150247, Note_on_c, 9, 51, 0
1, 150479, Note_on_c, 9, 38, 0
1, 150480, Note_on_c, 9, 51, 40
1, 150480, Note_on_c, 9, 36, 80
1, 150483, Note_on_c, 9, 51, 0
1, 150599, Note_on_c, 9, 36, 0
1, 150600, Note_on_c, 9, 46, 74
1, 150600, Note_on_c, 9, 36, 80
1, 150603, Note_on_c, 9, 46, 0
1, 150719, Note_on_c, 9, 36, 0
1, 150720, Note_on_c, 9, 51, 85
1, 150723, Note_on_c, 9, 51, 0
1, 150840, Note_on_c, 9, 38, 53
1, 150959, Note_on_c, 9, 38, 0
1, 150960, Note_on_c, 9, 51, 85
1, 150960, Note_on_c, 9, 36, 80
1, 150967, Note_on_c, 9, 51, 0
1, 151079, Note_on_c, 9, 36, 0
1, 151080, Note_on_c, 9, 36, 80
1, 151199, Note_on_c, 9, 36, 0
1, 151200, Note_on_c, 9, 38, 53
1, 151200, Note_on_c, 9, 51, 85
1, 151216, Note_on_c, 9, 51, 0
1, 151440, Note_on_c, 9, 36, 80
1, 151679, Note_on_c, 9, 38, 0
1, 151679, Note_on_c, 9, 36, 0
1, 151680, Note_on_c, 9, 38, 85
1, 151680, Note_on_c, 9, 40, 68
1, 151799, Note_on_c, 9, 38, 0
1, 151799, Note_on_c, 9, 40, 0
1, 151800, Note_on_c, 9, 49, 76
1, 151800, Note_on_c, 9, 36, 80
1, 151812, Note_on_c, 9, 49, 0
1, 152159, Note_on_c, 9, 36, 0
1, 152160, Note_on_c, 9, 38, 85
1, 152160, Note_on_c, 9, 40, 68
1, 152160, Note_on_c, 9, 57, 52
1, 152167, Note_on_c, 9, 57, 0
1, 152399, Note_on_c, 9, 38, 0
1, 152399, Note_on_c, 9, 40, 0
1, 152400, Note_on_c, 9, 38, 85
1, 152400, Note_on_c, 9, 40, 68
1, 152519, Note_on_c, 9, 38, 0
1, 152519, Note_on_c, 9, 40, 0
1, 152520, Note_on_c, 9, 38, 85
1, 152520, Note_on_c, 9, 40, 68
1, 152639, Note_on_c, 9, 38, 0
1, 152639, Note_on_c, 9, 40, 0
1, 152640, Note_on_c, 9, 38, 85
1, 152640, Note_on_c, 9, 40, 68
1, 152759, Note_on_c, 9, 38, 0
1, 152759, Note_on_c, 9, 40, 0
1, 152760, Note_on_c, 9, 38, 85
1, 152760, Note_on_c, 9, 40, 68
1, 152879, Note_on_c, 9, 38, 0
1, 152879, Note_on_c, 9, 40, 0
1, 152880, Note_on_c, 9, 38, 85
1, 152880, Note_on_c, 9, 40, 68
1, 152999, Note_on_c, 9, 38, 0
1, 152999, Note_on_c, 9, 40, 0
1, 153000, Note_on_c, 9, 41, 76
1, 153000, Note_on_c, 9, 36, 80
1, 153000, Note_on_c, 9, 43, 87
1, 153119, Note_on_c, 9, 41, 0
1, 153119, Note_on_c, 9, 36, 0
1, 153119, Note_on_c, 9, 43, 0
1, 153120, Note_on_c, 9, 38, 53
1, 153120, Note_on_c, 9, 57, 52
1, 153136, Note_on_c, 9, 57, 0
1, 153599, Note_on_c, 9, 38, 0
1, 153600, Note_on_c, 9, 49, 76
1, 153600, Note_on_c, 9, 36, 112
1, 153607, Note_on_c, 9, 49, 0
1, 153840, Note_on_c, 9, 49, 76
1, 153847, Note_on_c, 9, 49, 0
1, 154079, Note_on_c, 9, 36, 0
1, 154080, Note_on_c, 9, 38, 85
1, 154080, Note_on_c, 9, 49, 76
1, 154080, Note_on_c, 9, 36, 80
1, 154087, Note_on_c, 9, 49, 0
1, 154319, Note_on_c, 9, 38, 0
1, 154320, Note_on_c, 9, 49, 76
1, 154327, Note_on_c, 9, 49, 0
1, 154559, Note_on_c, 9, 36, 0
1, 154560, Note_on_c, 9, 49, 76
1, 154560, Note_on_c, 9, 36, 112
1, 154567, Note_on_c, 9, 49, 0
1, 154800, Note_on_c, 9, 49, 76
1, 154807, Note_on_c, 9, 49, 0
1, 155039, Note_on_c, 9, 36, 0
1, 155040, Note_on_c, 9, 38, 85
1, 155040, Note_on_c, 9, 49, 76
1, 155040, Note_on_c, 9, 36, 80
1, 155047, Note_on_c, 9, 49, 0
1, 155279, Note_on_c, 9, 38, 0
1, 155280, Note_on_c, 9, 49, 76
1, 155287, Note_on_c, 9, 49, 0
1, 155519, Note_on_c, 9, 36, 0
1, 155520, Note_on_c, 9, 49, 76
1, 155520, Note_on_c, 9, 36, 112
1, 155527, Note_on_c, 9, 49, 0
1, 155760, Note_on_c, 9, 49, 76
1, 155767, Note_on_c, 9, 49, 0
1, 155999, Note_on_c, 9, 36, 0
1, 156000, Note_on_c, 9, 38, 85
1, 156000, Note_on_c, 9, 49, 76
1, 156000, Note_on_c, 9, 36, 80
1, 156007, Note_on_c, 9, 49, 0
1, 156239, Note_on_c, 9, 38, 0
1, 156240, Note_on_c, 9, 49, 76
1, 156247, Note_on_c, 9, 49, 0
1, 156479, Note_on_c, 9, 36, 0
1, 156480, Note_on_c, 9, 49, 76
1, 156480, Note_on_c, 9, 36, 112
1, 156487, Note_on_c, 9, 49, 0
1, 156720, Note_on_c, 9, 49, 76
1, 156727, Note_on_c, 9, 49, 0
1, 156959, Note_on_c, 9, 36, 0
1, 156960, Note_on_c, 9, 38, 85
1, 156960, Note_on_c, 9, 49, 76
1, 156960, Note_on_c, 9, 36, 80
1, 156967, Note_on_c, 9, 49, 0
1, 157199, Note_on_c, 9, 38, 0
1, 157200, Note_on_c, 9, 49, 76
1, 157207, Note_on_c, 9, 49, 0
1, 157439, Note_on_c, 9, 36, 0
1, 157440, Note_on_c, 9, 49, 76
1, 157440, Note_on_c, 9, 36, 112
1, 157447, Note_on_c, 9, 49, 0
1, 157679, Note_on_c, 9, 36, 0
1, 157680, Note_on_c, 9, 49, 76
1, 157680, Note_on_c, 9, 36, 112
1, 157687, Note_on_c, 9, 49, 0
1, 157919, Note_on_c, 9, 36, 0
1, 157920, Note_on_c, 9, 38, 85
1, 157920, Note_on_c, 9, 49, 76
1, 157927, Note_on_c, 9, 49, 0
1, 158040, Note_on_c, 9, 36, 112
1, 158159, Note_on_c, 9, 38, 0
1, 158160, Note_on_c, 9, 49, 76
1, 158167, Note_on_c, 9, 49, 0
1, 158399, Note_on_c, 9, 36, 0
1, 158400, Note_on_c, 9, 49, 76
1, 158400, Note_on_c, 9, 36, 112
1, 158407, Note_on_c, 9, 49, 0
1, 158639, Note_on_c, 9, 36, 0
1, 158640, Note_on_c, 9, 49, 76
1, 158640, Note_on_c, 9, 36, 112
1, 158647, Note_on_c, 9, 49, 0
1, 158879, Note_on_c, 9, 36, 0
1, 158880, Note_on_c, 9, 38, 85
1, 158880, Note_on_c, 9, 49, 76
1, 158887, Note_on_c, 9, 49, 0
1, 159000, Note_on_c, 9, 36, 112
1, 159119, Note_on_c, 9, 38, 0
1, 159120, Note_on_c, 9, 49, 76
1, 159127, Note_on_c, 9, 49, 0
1, 159359, Note_on_c, 9, 36, 0
1, 159360, Note_on_c, 9, 49, 76
1, 159360, Note_on_c, 9, 36, 112
1, 159367, Note_on_c, 9, 49, 0
1, 159599, Note_on_c, 9, 36, 0
1, 159600, Note_on_c, 9, 49, 76
1, 159600, Note_on_c, 9, 36, 112
1, 159607, Note_on_c, 9, 49, 0
1, 159839, Note_on_c, 9, 36, 0
1, 159840, Note_on_c, 9, 38, 85
1, 159840, Note_on_c, 9, 49, 76
1, 159847, Note_on_c, 9, 49, 0
1, 159960, Note_on_c, 9, 36, 112
1, 160079, Note_on_c, 9, 38, 0
1, 160080, Note_on_c, 9, 49, 76
1, 160087, Note_on_c, 9, 49, 0
1, 160319, Note_on_c, 9, 36, 0
1, 160320, Note_on_c, 9, 49, 76
1, 160320, Note_on_c, 9, 36, 112
1, 160327, Note_on_c, 9, 49, 0
1, 160559, Note_on_c, 9, 36, 0
1, 160560, Note_on_c, 9, 49, 76
1, 160560, Note_on_c, 9, 36, 112
1, 160567, Note_on_c, 9, 49, 0
1, 160799, Note_on_c, 9, 36, 0
1, 160800, Note_on_c, 9, 38, 85
1, 160800, Note_on_c, 9, 49, 76
1, 160807, Note_on_c, 9, 49, 0
1, 160920, Note_on_c, 9, 36, 112
1, 161039, Note_on_c, 9, 38, 0
1, 161040, Note_on_c, 9, 49, 76
1, 161047, Note_on_c, 9, 49, 0
1, 161279, Note_on_c, 9, 36, 0
1, 161280, Note_on_c, 9, 49, 76
1, 161280, Note_on_c, 9, 36, 112
1, 161287, Note_on_c, 9, 49, 0
1, 161519, Note_on_c, 9, 36, 0
1, 161520, Note_on_c, 9, 49, 76
1, 161520, Note_on_c, 9, 36, 112
1, 161527, Note_on_c, 9, 49, 0
1, 161759, Note_on_c, 9, 36, 0
1, 161760, Note_on_c, 9, 38, 85
1, 161760, Note_on_c, 9, 49, 76
1, 161767, Note_on_c, 9, 49, 0
1, 161880, Note_on_c, 9, 36, 112
1, 161999, Note_on_c, 9, 38, 0
1, 162000, Note_on_c, 9, 49, 76
1, 162007, Note_on_c, 9, 49, 0
1, 162239, Note_on_c, 9, 36, 0
1, 162240, Note_on_c, 9, 49, 76
1, 162240, Note_on_c, 9, 36, 112
1, 162247, Note_on_c, 9, 49, 0
1, 162479, Note_on_c, 9, 36, 0
1, 162480, Note_on_c, 9, 49, 76
1, 162480, Note_on_c, 9, 36, 112
1, 162487, Note_on_c, 9, 49, 0
1, 162719, Note_on_c, 9, 36, 0
1, 162720, Note_on_c, 9, 38, 85
1, 162720, Note_on_c, 9, 49, 76
1, 162727, Note_on_c, 9, 49, 0
1, 162840, Note_on_c, 9, 36, 112
1, 162959, Note_on_c, 9, 38, 0
1, 162960, Note_on_c, 9, 49, 76
1, 162967, Note_on_c, 9, 49, 0
1, 163199, Note_on_c, 9, 36, 0
1, 163200, Note_on_c, 9, 36, 112
1, 163320, Note_on_c, 9, 41, 76
1, 163320, Note_on_c, 9, 38, 53
1, 163439, Note_on_c, 9, 41, 0
1, 163439, Note_on_c, 9, 38, 0
1, 163440, Note_on_c, 9, 41, 76
1, 163440, Note_on_c, 9, 38, 53
1, 163559, Note_on_c, 9, 36, 0
1, 163560, Note_on_c, 9, 36, 112
1, 163679, Note_on_c, 9, 41, 0
1, 163679, Note_on_c, 9, 38, 0
1, 163679, Note_on_c, 9, 36, 0
1, 163680, Note_on_c, 9, 41, 76
1, 163680, Note_on_c, 9, 38, 53
1, 163799, Note_on_c, 9, 41, 0
1, 163799, Note_on_c, 9, 38, 0
1, 163800, Note_on_c, 9, 41, 76
1, 163800, Note_on_c, 9, 38, 53
1, 163920, Note_on_c, 9, 36, 112
1, 164039, Note_on_c, 9, 41, 0
1, 164039, Note_on_c, 9, 38, 0
1, 164040, Note_on_c, 9, 41, 76
1, 164040, Note_on_c, 9, 38, 53
1, 164159, Note_on_c, 9, 36, 0
1, 164159, Note_on_c, 9, 41, 0
1, 164159, Note_on_c, 9, 38, 0
1, 164160, Note_on_c, 9, 36, 112
1, 164280, Note_on_c, 9, 41, 76
1, 164280, Note_on_c, 9, 38, 53
1, 164399, Note_on_c, 9, 41, 0
1, 164399, Note_on_c, 9, 38, 0
1, 164400, Note_on_c, 9, 41, 76
1, 164400, Note_on_c, 9, 38, 53
1, 164519, Note_on_c, 9, 36, 0
1, 164520, Note_on_c, 9, 36, 112
1, 164639, Note_on_c, 9, 41, 0
1, 164639, Note_on_c, 9, 38, 0
1, 164639, Note_on_c, 9, 36, 0
1, 164640, Note_on_c, 9, 41, 76
1, 164640, Note_on_c, 9, 43, 119
1, 164759, Note_on_c, 9, 41, 0
1, 164759, Note_on_c, 9, 43, 0
1, 164760, Note_on_c, 9, 41, 76
1, 164760, Note_on_c, 9, 43, 119
1, 164879, Note_on_c, 9, 41, 0
1, 164880, Note_on_c, 9, 41, 76
1, 164880, Note_on_c, 9, 38, 53
1, 165119, Note_on_c, 9, 43, 0
1, 165119, Note_on_c, 9, 41, 0
1, 165119, Note_on_c, 9, 38, 0
1, 165120, Note_on_c, 9, 49, 76
1, 165120, Note_on_c, 9, 36, 112
1, 165136, Note_on_c, 9, 49, 0
1, 165599, Note_on_c, 9, 36, 0
1, 165600, End_track
0, 0, End_of_file
