0, 0, Header, 1, 1, 480
1, 0, Start_track
1, 0, Title_t, "Drumset, Hysteria - Def Leppard"
1, 0, Time_signature, 4, 2, 24, 8
1, 0, Key_signature, 0, "major"
1, 0, Tempo, 535714
1, 0, Control_c, 9, 121, 0
1, 0, Program_c, 9, 0
1, 0, Control_c, 9, 7, 100
1, 0, Control_c, 9, 10, 64
1, 0, Control_c, 9, 91, 0
1, 0, Control_c, 9, 93, 0
1, 0, MIDI_port, 0
1, 0, Note_on_c, 9, 57, 108
1, 0, Note_on_c, 9, 35, 108
1, 9, Note_on_c, 9, 57, 0
1, 240, Note_on_c, 9, 42, 108
1, 249, Note_on_c, 9, 42, 0
1, 479, Note_on_c, 9, 35, 0
1, 480, Note_on_c, 9, 38, 108
1, 480, Note_on_c, 9, 42, 108
1, 489, Note_on_c, 9, 42, 0
1, 719, Note_on_c, 9, 38, 0
1, 720, Note_on_c, 9, 42, 108
1, 729, Note_on_c, 9, 42, 0
1, 960, Note_on_c, 9, 42, 108
1, 960, Note_on_c, 9, 35, 108
1, 969, Note_on_c, 9, 42, 0
1, 1200, Note_on_c, 9, 42, 108
1, 1209, Note_on_c, 9, 42, 0
1, 1439, Note_on_c, 9, 35, 0
1, 1440, Note_on_c, 9, 38, 108
1, 1440, Note_on_c, 9, 42, 108
1, 1449, Note_on_c, 9, 42, 0
1, 1679, Note_on_c, 9, 38, 0
1, 1680, Note_on_c, 9, 42, 108
1, 1689, Note_on_c, 9, 42, 0
1, 1920, Note_on_c, 9, 42, 108
1, 1920, Note_on_c, 9, 35, 108
1, 1929, Note_on_c, 9, 42, 0
1, 2160, Note_on_c, 9, 42, 108
1, 2169, Note_on_c, 9, 42, 0
1, 2399, Note_on_c, 9, 35, 0
1, 2400, Note_on_c, 9, 38, 108
1, 2400, Note_on_c, 9, 42, 108
1, 2409, Note_on_c, 9, 42, 0
1, 2639, Note_on_c, 9, 38, 0
1, 2640, Note_on_c, 9, 42, 108
1, 2649, Note_on_c, 9, 42, 0
1, 2880, Note_on_c, 9, 42, 108
1, 2880, Note_on_c, 9, 35, 108
1, 2889, Note_on_c, 9, 42, 0
1, 3120, Note_on_c, 9, 42, 108
1, 3129, Note_on_c, 9, 42, 0
1, 3359, Note_on_c, 9, 35, 0
1, 3360, Note_on_c, 9, 38, 108
1, 3360, Note_on_c, 9, 42, 108
1, 3369, Note_on_c, 9, 42, 0
1, 3599, Note_on_c, 9, 38, 0
1, 3600, Note_on_c, 9, 42, 108
1, 3600, Note_on_c, 9, 35, 108
1, 3609, Note_on_c, 9, 42, 0
1, 3839, Note_on_c, 9, 35, 0
1, 3840, Note_on_c, 9, 57, 108
1, 3840, Note_on_c, 9, 35, 108
1, 3849, Note_on_c, 9, 57, 0
1, 4080, Note_on_c, 9, 42, 108
1, 4089, Note_on_c, 9, 42, 0
1, 4319, Note_on_c, 9, 35, 0
1, 4320, Note_on_c, 9, 38, 108
1, 4320, Note_on_c, 9, 42, 108
1, 4329, Note_on_c, 9, 42, 0
1, 4559, Note_on_c, 9, 38, 0
1, 4560, Note_on_c, 9, 42, 108
1, 4569, Note_on_c, 9, 42, 0
1, 4800, Note_on_c, 9, 42, 108
1, 4800, Note_on_c, 9, 35, 108
1, 4809, Note_on_c, 9, 42, 0
1, 5040, Note_on_c, 9, 42, 108
1, 5049, Note_on_c, 9, 42, 0
1, 5279, Note_on_c, 9, 35, 0
1, 5280, Note_on_c, 9, 38, 108
1, 5280, Note_on_c, 9, 42, 108
1, 5289, Note_on_c, 9, 42, 0
1, 5519, Note_on_c, 9, 38, 0
1, 5520, Note_on_c, 9, 42, 108
1, 5529, Note_on_c, 9, 42, 0
1, 5760, Note_on_c, 9, 42, 108
1, 5760, Note_on_c, 9, 35, 108
1, 5769, Note_on_c, 9, 42, 0
1, 6000, Note_on_c, 9, 42, 108
1, 6009, Note_on_c, 9, 42, 0
1, 6239, Note_on_c, 9, 35, 0
1, 6240, Note_on_c, 9, 38, 108
1, 6240, Note_on_c, 9, 42, 108
1, 6249, Note_on_c, 9, 42, 0
1, 6479, Note_on_c, 9, 38, 0
1, 6480, Note_on_c, 9, 42, 108
1, 6489, Note_on_c, 9, 42, 0
1, 6720, Note_on_c, 9, 42, 108
1, 6720, Note_on_c, 9, 35, 108
1, 6729, Note_on_c, 9, 42, 0
1, 6960, Note_on_c, 9, 42, 108
1, 6969, Note_on_c, 9, 42, 0
1, 7199, Note_on_c, 9, 35, 0
1, 7200, Note_on_c, 9, 38, 108
1, 7200, Note_on_c, 9, 42, 108
1, 7209, Note_on_c, 9, 42, 0
1, 7439, Note_on_c, 9, 38, 0
1, 7440, Note_on_c, 9, 42, 108
1, 7440, Note_on_c, 9, 35, 108
1, 7449, Note_on_c, 9, 42, 0
1, 7679, Note_on_c, 9, 35, 0
1, 7680, Note_on_c, 9, 57, 108
1, 7680, Note_on_c, 9, 35, 108
1, 7689, Note_on_c, 9, 57, 0
1, 7920, Note_on_c, 9, 42, 108
1, 7929, Note_on_c, 9, 42, 0
1, 8159, Note_on_c, 9, 35, 0
1, 8160, Note_on_c, 9, 38, 108
1, 8160, Note_on_c, 9, 42, 108
1, 8169, Note_on_c, 9, 42, 0
1, 8399, Note_on_c, 9, 38, 0
1, 8400, Note_on_c, 9, 42, 108
1, 8409, Note_on_c, 9, 42, 0
1, 8640, Note_on_c, 9, 42, 108
1, 8640, Note_on_c, 9, 35, 108
1, 8649, Note_on_c, 9, 42, 0
1, 8880, Note_on_c, 9, 42, 108
1, 8889, Note_on_c, 9, 42, 0
1, 9119, Note_on_c, 9, 35, 0
1, 9120, Note_on_c, 9, 38, 108
1, 9120, Note_on_c, 9, 42, 108
1, 9129, Note_on_c, 9, 42, 0
1, 9359, Note_on_c, 9, 38, 0
1, 9360, Note_on_c, 9, 42, 108
1, 9360, Note_on_c, 9, 35, 108
1, 9369, Note_on_c, 9, 42, 0
1, 9599, Note_on_c, 9, 35, 0
1, 9600, Note_on_c, 9, 42, 108
1, 9600, Note_on_c, 9, 57, 108
1, 9600, Note_on_c, 9, 35, 108
1, 9609, Note_on_c, 9, 42, 0
1, 9609, Note_on_c, 9, 57, 0
1, 9840, Note_on_c, 9, 42, 108
1, 9849, Note_on_c, 9, 42, 0
1, 10079, Note_on_c, 9, 35, 0
1, 10080, Note_on_c, 9, 38, 108
1, 10080, Note_on_c, 9, 42, 108
1, 10089, Note_on_c, 9, 42, 0
1, 10319, Note_on_c, 9, 38, 0
1, 10320, Note_on_c, 9, 42, 108
1, 10329, Note_on_c, 9, 42, 0
1, 10560, Note_on_c, 9, 42, 108
1, 10560, Note_on_c, 9, 35, 108
1, 10569, Note_on_c, 9, 42, 0
1, 10800, Note_on_c, 9, 42, 108
1, 10809, Note_on_c, 9, 42, 0
1, 11039, Note_on_c, 9, 35, 0
1, 11040, Note_on_c, 9, 38, 108
1, 11040, Note_on_c, 9, 42, 108
1, 11049, Note_on_c, 9, 42, 0
1, 11279, Note_on_c, 9, 38, 0
1, 11280, Note_on_c, 9, 42, 108
1, 11289, Note_on_c, 9, 42, 0
1, 11520, Note_on_c, 9, 57, 108
1, 11520, Note_on_c, 9, 35, 108
1, 11529, Note_on_c, 9, 57, 0
1, 11760, Note_on_c, 9, 42, 108
1, 11769, Note_on_c, 9, 42, 0
1, 11999, Note_on_c, 9, 35, 0
1, 12000, Note_on_c, 9, 38, 108
1, 12000, Note_on_c, 9, 42, 108
1, 12009, Note_on_c, 9, 42, 0
1, 12239, Note_on_c, 9, 38, 0
1, 12240, Note_on_c, 9, 42, 108
1, 12249, Note_on_c, 9, 42, 0
1, 12480, Note_on_c, 9, 42, 108
1, 12480, Note_on_c, 9, 35, 108
1, 12489, Note_on_c, 9, 42, 0
1, 12720, Note_on_c, 9, 42, 108
1, 12729, Note_on_c, 9, 42, 0
1, 12959, Note_on_c, 9, 35, 0
1, 12960, Note_on_c, 9, 38, 108
1, 12960, Note_on_c, 9, 42, 108
1, 12969, Note_on_c, 9, 42, 0
1, 13199, Note_on_c, 9, 38, 0
1, 13200, Note_on_c, 9, 42, 108
1, 13209, Note_on_c, 9, 42, 0
1, 13440, Note_on_c, 9, 42, 108
1, 13440, Note_on_c, 9, 35, 108
1, 13449, Note_on_c, 9, 42, 0
1, 13679, Note_on_c, 9, 35, 0
1, 13680, Note_on_c, 9, 42, 108
1, 13680, Note_on_c, 9, 43, 108
1, 13689, Note_on_c, 9, 42, 0
1, 13919, Note_on_c, 9, 43, 0
1, 13920, Note_on_c, 9, 38, 108
1, 13920, Note_on_c, 9, 42, 108
1, 13929, Note_on_c, 9, 42, 0
1, 14159, Note_on_c, 9, 38, 0
1, 14160, Note_on_c, 9, 42, 108
1, 14169, Note_on_c, 9, 42, 0
1, 14400, Note_on_c, 9, 38, 108
1, 14400, Note_on_c, 9, 42, 108
1, 14409, Note_on_c, 9, 42, 0
1, 14639, Note_on_c, 9, 38, 0
1, 14640, Note_on_c, 9, 38, 108
1, 14640, Note_on_c, 9, 42, 108
1, 14649, Note_on_c, 9, 42, 0
1, 14879, Note_on_c, 9, 38, 0
1, 14880, Note_on_c, 9, 42, 108
1, 14880, Note_on_c, 9, 35, 108
1, 14889, Note_on_c, 9, 42, 0
1, 15119, Note_on_c, 9, 35, 0
1, 15120, Note_on_c, 9, 42, 108
1, 15120, Note_on_c, 9, 35, 108
1, 15129, Note_on_c, 9, 42, 0
1, 15359, Note_on_c, 9, 35, 0
1, 15360, Note_on_c, 9, 57, 108
1, 15360, Note_on_c, 9, 35, 108
1, 15369, Note_on_c, 9, 57, 0
1, 15600, Note_on_c, 9, 42, 108
1, 15609, Note_on_c, 9, 42, 0
1, 15839, Note_on_c, 9, 35, 0
1, 15840, Note_on_c, 9, 38, 108
1, 15840, Note_on_c, 9, 42, 108
1, 15849, Note_on_c, 9, 42, 0
1, 16079, Note_on_c, 9, 38, 0
1, 16080, Note_on_c, 9, 42, 108
1, 16089, Note_on_c, 9, 42, 0
1, 16320, Note_on_c, 9, 42, 108
1, 16320, Note_on_c, 9, 35, 108
1, 16329, Note_on_c, 9, 42, 0
1, 16560, Note_on_c, 9, 42, 108
1, 16569, Note_on_c, 9, 42, 0
1, 16799, Note_on_c, 9, 35, 0
1, 16800, Note_on_c, 9, 38, 108
1, 16800, Note_on_c, 9, 42, 108
1, 16809, Note_on_c, 9, 42, 0
1, 17039, Note_on_c, 9, 38, 0
1, 17040, Note_on_c, 9, 42, 108
1, 17049, Note_on_c, 9, 42, 0
1, 17280, Note_on_c, 9, 42, 108
1, 17280, Note_on_c, 9, 35, 108
1, 17289, Note_on_c, 9, 42, 0
1, 17520, Note_on_c, 9, 42, 108
1, 17529, Note_on_c, 9, 42, 0
1, 17759, Note_on_c, 9, 35, 0
1, 17760, Note_on_c, 9, 38, 108
1, 17760, Note_on_c, 9, 42, 108
1, 17769, Note_on_c, 9, 42, 0
1, 17999, Note_on_c, 9, 38, 0
1, 18000, Note_on_c, 9, 42, 108
1, 18009, Note_on_c, 9, 42, 0
1, 18240, Note_on_c, 9, 42, 108
1, 18240, Note_on_c, 9, 35, 108
1, 18249, Note_on_c, 9, 42, 0
1, 18480, Note_on_c, 9, 42, 108
1, 18489, Note_on_c, 9, 42, 0
1, 18719, Note_on_c, 9, 35, 0
1, 18720, Note_on_c, 9, 38, 108
1, 18720, Note_on_c, 9, 42, 108
1, 18729, Note_on_c, 9, 42, 0
1, 18959, Note_on_c, 9, 38, 0
1, 18960, Note_on_c, 9, 42, 108
1, 18960, Note_on_c, 9, 35, 108
1, 18969, Note_on_c, 9, 42, 0
1, 19199, Note_on_c, 9, 35, 0
1, 19200, Note_on_c, 9, 42, 108
1, 19200, Note_on_c, 9, 35, 108
1, 19209, Note_on_c, 9, 42, 0
1, 19440, Note_on_c, 9, 42, 108
1, 19449, Note_on_c, 9, 42, 0
1, 19679, Note_on_c, 9, 35, 0
1, 19680, Note_on_c, 9, 38, 108
1, 19680, Note_on_c, 9, 42, 108
1, 19689, Note_on_c, 9, 42, 0
1, 19919, Note_on_c, 9, 38, 0
1, 19920, Note_on_c, 9, 42, 108
1, 19929, Note_on_c, 9, 42, 0
1, 20160, Note_on_c, 9, 42, 108
1, 20160, Note_on_c, 9, 35, 108
1, 20169, Note_on_c, 9, 42, 0
1, 20400, Note_on_c, 9, 42, 108
1, 20409, Note_on_c, 9, 42, 0
1, 20639, Note_on_c, 9, 35, 0
1, 20640, Note_on_c, 9, 38, 108
1, 20640, Note_on_c, 9, 42, 108
1, 20649, Note_on_c, 9, 42, 0
1, 20879, Note_on_c, 9, 38, 0
1, 20880, Note_on_c, 9, 42, 108
1, 20889, Note_on_c, 9, 42, 0
1, 21120, Note_on_c, 9, 42, 108
1, 21120, Note_on_c, 9, 35, 108
1, 21129, Note_on_c, 9, 42, 0
1, 21360, Note_on_c, 9, 42, 108
1, 21369, Note_on_c, 9, 42, 0
1, 21599, Note_on_c, 9, 35, 0
1, 21600, Note_on_c, 9, 38, 108
1, 21600, Note_on_c, 9, 42, 108
1, 21609, Note_on_c, 9, 42, 0
1, 21839, Note_on_c, 9, 38, 0
1, 21840, Note_on_c, 9, 42, 108
1, 21849, Note_on_c, 9, 42, 0
1, 22080, Note_on_c, 9, 42, 108
1, 22080, Note_on_c, 9, 35, 108
1, 22089, Note_on_c, 9, 42, 0
1, 22320, Note_on_c, 9, 42, 108
1, 22329, Note_on_c, 9, 42, 0
1, 22559, Note_on_c, 9, 35, 0
1, 22560, Note_on_c, 9, 38, 108
1, 22560, Note_on_c, 9, 42, 108
1, 22569, Note_on_c, 9, 42, 0
1, 22799, Note_on_c, 9, 38, 0
1, 22800, Note_on_c, 9, 42, 108
1, 22800, Note_on_c, 9, 35, 108
1, 22809, Note_on_c, 9, 42, 0
1, 23039, Note_on_c, 9, 35, 0
1, 23040, Note_on_c, 9, 42, 108
1, 23040, Note_on_c, 9, 35, 108
1, 23049, Note_on_c, 9, 42, 0
1, 23280, Note_on_c, 9, 42, 108
1, 23289, Note_on_c, 9, 42, 0
1, 23519, Note_on_c, 9, 35, 0
1, 23520, Note_on_c, 9, 38, 108
1, 23520, Note_on_c, 9, 42, 108
1, 23529, Note_on_c, 9, 42, 0
1, 23759, Note_on_c, 9, 38, 0
1, 23760, Note_on_c, 9, 42, 108
1, 23769, Note_on_c, 9, 42, 0
1, 24000, Note_on_c, 9, 42, 108
1, 24000, Note_on_c, 9, 35, 108
1, 24009, Note_on_c, 9, 42, 0
1, 24240, Note_on_c, 9, 42, 108
1, 24249, Note_on_c, 9, 42, 0
1, 24479, Note_on_c, 9, 35, 0
1, 24480, Note_on_c, 9, 38, 108
1, 24480, Note_on_c, 9, 42, 108
1, 24489, Note_on_c, 9, 42, 0
1, 24719, Note_on_c, 9, 38, 0
1, 24720, Note_on_c, 9, 42, 108
1, 24720, Note_on_c, 9, 35, 108
1, 24729, Note_on_c, 9, 42, 0
1, 24959, Note_on_c, 9, 35, 0
1, 24960, Note_on_c, 9, 42, 108
1, 24960, Note_on_c, 9, 35, 108
1, 24969, Note_on_c, 9, 42, 0
1, 25200, Note_on_c, 9, 42, 108
1, 25209, Note_on_c, 9, 42, 0
1, 25439, Note_on_c, 9, 35, 0
1, 25440, Note_on_c, 9, 38, 108
1, 25440, Note_on_c, 9, 42, 108
1, 25449, Note_on_c, 9, 42, 0
1, 25679, Note_on_c, 9, 38, 0
1, 25680, Note_on_c, 9, 42, 108
1, 25689, Note_on_c, 9, 42, 0
1, 25920, Note_on_c, 9, 42, 108
1, 25920, Note_on_c, 9, 35, 108
1, 25929, Note_on_c, 9, 42, 0
1, 26160, Note_on_c, 9, 42, 108
1, 26169, Note_on_c, 9, 42, 0
1, 26399, Note_on_c, 9, 35, 0
1, 26400, Note_on_c, 9, 38, 108
1, 26400, Note_on_c, 9, 42, 108
1, 26409, Note_on_c, 9, 42, 0
1, 26639, Note_on_c, 9, 38, 0
1, 26640, Note_on_c, 9, 42, 108
1, 26649, Note_on_c, 9, 42, 0
1, 26880, Note_on_c, 9, 42, 108
1, 26880, Note_on_c, 9, 35, 108
1, 26889, Note_on_c, 9, 42, 0
1, 27120, Note_on_c, 9, 42, 108
1, 27129, Note_on_c, 9, 42, 0
1, 27359, Note_on_c, 9, 35, 0
1, 27360, Note_on_c, 9, 38, 108
1, 27360, Note_on_c, 9, 42, 108
1, 27369, Note_on_c, 9, 42, 0
1, 27599, Note_on_c, 9, 38, 0
1, 27600, Note_on_c, 9, 42, 108
1, 27609, Note_on_c, 9, 42, 0
1, 27840, Note_on_c, 9, 42, 108
1, 27840, Note_on_c, 9, 35, 108
1, 27849, Note_on_c, 9, 42, 0
1, 28080, Note_on_c, 9, 42, 108
1, 28089, Note_on_c, 9, 42, 0
1, 28319, Note_on_c, 9, 35, 0
1, 28320, Note_on_c, 9, 38, 108
1, 28320, Note_on_c, 9, 42, 108
1, 28329, Note_on_c, 9, 42, 0
1, 28559, Note_on_c, 9, 38, 0
1, 28560, Note_on_c, 9, 42, 108
1, 28569, Note_on_c, 9, 42, 0
1, 28800, Note_on_c, 9, 42, 108
1, 28800, Note_on_c, 9, 35, 108
1, 28809, Note_on_c, 9, 42, 0
1, 29040, Note_on_c, 9, 38, 108
1, 29040, Note_on_c, 9, 42, 108
1, 29049, Note_on_c, 9, 42, 0
1, 29279, Note_on_c, 9, 35, 0
1, 29279, Note_on_c, 9, 38, 0
1, 29280, Note_on_c, 9, 38, 108
1, 29280, Note_on_c, 9, 42, 108
1, 29289, Note_on_c, 9, 42, 0
1, 29519, Note_on_c, 9, 38, 0
1, 29520, Note_on_c, 9, 42, 108
1, 29529, Note_on_c, 9, 42, 0
1, 29760, Note_on_c, 9, 45, 108
1, 29760, Note_on_c, 9, 42, 108
1, 29760, Note_on_c, 9, 35, 108
1, 29769, Note_on_c, 9, 42, 0
1, 29999, Note_on_c, 9, 45, 0
1, 29999, Note_on_c, 9, 35, 0
1, 30000, Note_on_c, 9, 42, 108
1, 30000, Note_on_c, 9, 43, 108
1, 30009, Note_on_c, 9, 42, 0
1, 30239, Note_on_c, 9, 43, 0
1, 30240, Note_on_c, 9, 38, 108
1, 30240, Note_on_c, 9, 42, 108
1, 30249, Note_on_c, 9, 42, 0
1, 30479, Note_on_c, 9, 38, 0
1, 30480, Note_on_c, 9, 45, 108
1, 30480, Note_on_c, 9, 42, 108
1, 30489, Note_on_c, 9, 42, 0
1, 30719, Note_on_c, 9, 45, 0
1, 30720, Note_on_c, 9, 57, 108
1, 30720, Note_on_c, 9, 35, 108
1, 30729, Note_on_c, 9, 57, 0
1, 30960, Note_on_c, 9, 42, 108
1, 30969, Note_on_c, 9, 42, 0
1, 31199, Note_on_c, 9, 35, 0
1, 31200, Note_on_c, 9, 38, 108
1, 31200, Note_on_c, 9, 42, 108
1, 31209, Note_on_c, 9, 42, 0
1, 31439, Note_on_c, 9, 38, 0
1, 31440, Note_on_c, 9, 42, 108
1, 31449, Note_on_c, 9, 42, 0
1, 31680, Note_on_c, 9, 42, 108
1, 31680, Note_on_c, 9, 35, 108
1, 31689, Note_on_c, 9, 42, 0
1, 31920, Note_on_c, 9, 42, 108
1, 31929, Note_on_c, 9, 42, 0
1, 32159, Note_on_c, 9, 35, 0
1, 32160, Note_on_c, 9, 38, 108
1, 32160, Note_on_c, 9, 42, 108
1, 32169, Note_on_c, 9, 42, 0
1, 32399, Note_on_c, 9, 38, 0
1, 32400, Note_on_c, 9, 42, 108
1, 32409, Note_on_c, 9, 42, 0
1, 32640, Note_on_c, 9, 42, 108
1, 32640, Note_on_c, 9, 35, 108
1, 32649, Note_on_c, 9, 42, 0
1, 32880, Note_on_c, 9, 42, 108
1, 32889, Note_on_c, 9, 42, 0
1, 33119, Note_on_c, 9, 35, 0
1, 33120, Note_on_c, 9, 38, 108
1, 33120, Note_on_c, 9, 42, 108
1, 33129, Note_on_c, 9, 42, 0
1, 33359, Note_on_c, 9, 38, 0
1, 33360, Note_on_c, 9, 42, 108
1, 33369, Note_on_c, 9, 42, 0
1, 33600, Note_on_c, 9, 42, 108
1, 33600, Note_on_c, 9, 35, 108
1, 33609, Note_on_c, 9, 42, 0
1, 33840, Note_on_c, 9, 42, 108
1, 33849, Note_on_c, 9, 42, 0
1, 34079, Note_on_c, 9, 35, 0
1, 34080, Note_on_c, 9, 38, 108
1, 34080, Note_on_c, 9, 42, 108
1, 34089, Note_on_c, 9, 42, 0
1, 34319, Note_on_c, 9, 38, 0
1, 34320, Note_on_c, 9, 42, 108
1, 34320, Note_on_c, 9, 35, 108
1, 34329, Note_on_c, 9, 42, 0
1, 34559, Note_on_c, 9, 35, 0
1, 34560, Note_on_c, 9, 42, 108
1, 34560, Note_on_c, 9, 35, 108
1, 34569, Note_on_c, 9, 42, 0
1, 34800, Note_on_c, 9, 42, 108
1, 34809, Note_on_c, 9, 42, 0
1, 35039, Note_on_c, 9, 35, 0
1, 35040, Note_on_c, 9, 38, 108
1, 35040, Note_on_c, 9, 42, 108
1, 35049, Note_on_c, 9, 42, 0
1, 35279, Note_on_c, 9, 38, 0
1, 35280, Note_on_c, 9, 42, 108
1, 35289, Note_on_c, 9, 42, 0
1, 35520, Note_on_c, 9, 42, 108
1, 35520, Note_on_c, 9, 35, 108
1, 35529, Note_on_c, 9, 42, 0
1, 35760, Note_on_c, 9, 42, 108
1, 35769, Note_on_c, 9, 42, 0
1, 35999, Note_on_c, 9, 35, 0
1, 36000, Note_on_c, 9, 38, 108
1, 36000, Note_on_c, 9, 42, 108
1, 36009, Note_on_c, 9, 42, 0
1, 36239, Note_on_c, 9, 38, 0
1, 36240, Note_on_c, 9, 42, 108
1, 36249, Note_on_c, 9, 42, 0
1, 36480, Note_on_c, 9, 42, 108
1, 36480, Note_on_c, 9, 35, 108
1, 36489, Note_on_c, 9, 42, 0
1, 36720, Note_on_c, 9, 42, 108
1, 36729, Note_on_c, 9, 42, 0
1, 36959, Note_on_c, 9, 35, 0
1, 36960, Note_on_c, 9, 38, 108
1, 36960, Note_on_c, 9, 42, 108
1, 36969, Note_on_c, 9, 42, 0
1, 37199, Note_on_c, 9, 38, 0
1, 37200, Note_on_c, 9, 42, 108
1, 37209, Note_on_c, 9, 42, 0
1, 37440, Note_on_c, 9, 42, 108
1, 37440, Note_on_c, 9, 35, 108
1, 37449, Note_on_c, 9, 42, 0
1, 37680, Note_on_c, 9, 42, 108
1, 37689, Note_on_c, 9, 42, 0
1, 37919, Note_on_c, 9, 35, 0
1, 37920, Note_on_c, 9, 38, 108
1, 37920, Note_on_c, 9, 42, 108
1, 37929, Note_on_c, 9, 42, 0
1, 38159, Note_on_c, 9, 38, 0
1, 38160, Note_on_c, 9, 42, 108
1, 38160, Note_on_c, 9, 35, 108
1, 38169, Note_on_c, 9, 42, 0
1, 38399, Note_on_c, 9, 35, 0
1, 38400, Note_on_c, 9, 42, 108
1, 38400, Note_on_c, 9, 35, 108
1, 38409, Note_on_c, 9, 42, 0
1, 38640, Note_on_c, 9, 42, 108
1, 38649, Note_on_c, 9, 42, 0
1, 38879, Note_on_c, 9, 35, 0
1, 38880, Note_on_c, 9, 38, 108
1, 38880, Note_on_c, 9, 42, 108
1, 38889, Note_on_c, 9, 42, 0
1, 39119, Note_on_c, 9, 38, 0
1, 39120, Note_on_c, 9, 42, 108
1, 39129, Note_on_c, 9, 42, 0
1, 39360, Note_on_c, 9, 42, 108
1, 39360, Note_on_c, 9, 35, 108
1, 39369, Note_on_c, 9, 42, 0
1, 39600, Note_on_c, 9, 42, 108
1, 39609, Note_on_c, 9, 42, 0
1, 39839, Note_on_c, 9, 35, 0
1, 39840, Note_on_c, 9, 38, 108
1, 39840, Note_on_c, 9, 42, 108
1, 39849, Note_on_c, 9, 42, 0
1, 40079, Note_on_c, 9, 38, 0
1, 40080, Note_on_c, 9, 42, 108
1, 40080, Note_on_c, 9, 35, 108
1, 40089, Note_on_c, 9, 42, 0
1, 40319, Note_on_c, 9, 35, 0
1, 40320, Note_on_c, 9, 42, 108
1, 40320, Note_on_c, 9, 35, 108
1, 40329, Note_on_c, 9, 42, 0
1, 40560, Note_on_c, 9, 42, 108
1, 40569, Note_on_c, 9, 42, 0
1, 40799, Note_on_c, 9, 35, 0
1, 40800, Note_on_c, 9, 38, 108
1, 40800, Note_on_c, 9, 42, 108
1, 40809, Note_on_c, 9, 42, 0
1, 41039, Note_on_c, 9, 38, 0
1, 41040, Note_on_c, 9, 42, 108
1, 41049, Note_on_c, 9, 42, 0
1, 41280, Note_on_c, 9, 42, 108
1, 41280, Note_on_c, 9, 35, 108
1, 41289, Note_on_c, 9, 42, 0
1, 41520, Note_on_c, 9, 42, 108
1, 41529, Note_on_c, 9, 42, 0
1, 41759, Note_on_c, 9, 35, 0
1, 41760, Note_on_c, 9, 38, 108
1, 41760, Note_on_c, 9, 42, 108
1, 41769, Note_on_c, 9, 42, 0
1, 41999, Note_on_c, 9, 38, 0
1, 42000, Note_on_c, 9, 42, 108
1, 42009, Note_on_c, 9, 42, 0
1, 42240, Note_on_c, 9, 42, 108
1, 42240, Note_on_c, 9, 35, 108
1, 42249, Note_on_c, 9, 42, 0
1, 42480, Note_on_c, 9, 42, 108
1, 42489, Note_on_c, 9, 42, 0
1, 42719, Note_on_c, 9, 35, 0
1, 42720, Note_on_c, 9, 38, 108
1, 42720, Note_on_c, 9, 42, 108
1, 42729, Note_on_c, 9, 42, 0
1, 42959, Note_on_c, 9, 38, 0
1, 42960, Note_on_c, 9, 42, 108
1, 42969, Note_on_c, 9, 42, 0
1, 43200, Note_on_c, 9, 42, 108
1, 43200, Note_on_c, 9, 35, 108
1, 43209, Note_on_c, 9, 42, 0
1, 43440, Note_on_c, 9, 42, 108
1, 43449, Note_on_c, 9, 42, 0
1, 43679, Note_on_c, 9, 35, 0
1, 43680, Note_on_c, 9, 38, 108
1, 43680, Note_on_c, 9, 42, 108
1, 43689, Note_on_c, 9, 42, 0
1, 43919, Note_on_c, 9, 38, 0
1, 43920, Note_on_c, 9, 42, 108
1, 43929, Note_on_c, 9, 42, 0
1, 44160, Note_on_c, 9, 42, 108
1, 44160, Note_on_c, 9, 35, 108
1, 44169, Note_on_c, 9, 42, 0
1, 44400, Note_on_c, 9, 38, 108
1, 44400, Note_on_c, 9, 42, 108
1, 44409, Note_on_c, 9, 42, 0
1, 44639, Note_on_c, 9, 35, 0
1, 44639, Note_on_c, 9, 38, 0
1, 44640, Note_on_c, 9, 38, 108
1, 44640, Note_on_c, 9, 42, 108
1, 44649, Note_on_c, 9, 42, 0
1, 44879, Note_on_c, 9, 38, 0
1, 44880, Note_on_c, 9, 42, 108
1, 44880, Note_on_c, 9, 35, 108
1, 44889, Note_on_c, 9, 42, 0
1, 45119, Note_on_c, 9, 35, 0
1, 45120, Note_on_c, 9, 45, 108
1, 45120, Note_on_c, 9, 42, 108
1, 45120, Note_on_c, 9, 55, 108
1, 45120, Note_on_c, 9, 35, 108
1, 45129, Note_on_c, 9, 42, 0
1, 45129, Note_on_c, 9, 55, 0
1, 45359, Note_on_c, 9, 45, 0
1, 45359, Note_on_c, 9, 35, 0
1, 45360, Note_on_c, 9, 42, 108
1, 45360, Note_on_c, 9, 43, 108
1, 45369, Note_on_c, 9, 42, 0
1, 45599, Note_on_c, 9, 43, 0
1, 45600, Note_on_c, 9, 38, 108
1, 45600, Note_on_c, 9, 42, 108
1, 45600, Note_on_c, 9, 57, 108
1, 45609, Note_on_c, 9, 42, 0
1, 45609, Note_on_c, 9, 57, 0
1, 45839, Note_on_c, 9, 38, 0
1, 45840, Note_on_c, 9, 45, 108
1, 45840, Note_on_c, 9, 42, 108
1, 45849, Note_on_c, 9, 42, 0
1, 46079, Note_on_c, 9, 45, 0
1, 46080, Note_on_c, 9, 57, 108
1, 46080, Note_on_c, 9, 35, 108
1, 46089, Note_on_c, 9, 57, 0
1, 46320, Note_on_c, 9, 42, 108
1, 46329, Note_on_c, 9, 42, 0
1, 46559, Note_on_c, 9, 35, 0
1, 46560, Note_on_c, 9, 38, 108
1, 46560, Note_on_c, 9, 42, 108
1, 46569, Note_on_c, 9, 42, 0
1, 46799, Note_on_c, 9, 38, 0
1, 46800, Note_on_c, 9, 42, 108
1, 46800, Note_on_c, 9, 35, 108
1, 46809, Note_on_c, 9, 42, 0
1, 47039, Note_on_c, 9, 35, 0
1, 47040, Note_on_c, 9, 42, 108
1, 47040, Note_on_c, 9, 35, 108
1, 47049, Note_on_c, 9, 42, 0
1, 47280, Note_on_c, 9, 42, 108
1, 47289, Note_on_c, 9, 42, 0
1, 47519, Note_on_c, 9, 35, 0
1, 47520, Note_on_c, 9, 38, 108
1, 47520, Note_on_c, 9, 42, 108
1, 47529, Note_on_c, 9, 42, 0
1, 47759, Note_on_c, 9, 38, 0
1, 47760, Note_on_c, 9, 42, 108
1, 47769, Note_on_c, 9, 42, 0
1, 48000, Note_on_c, 9, 42, 108
1, 48000, Note_on_c, 9, 35, 108
1, 48009, Note_on_c, 9, 42, 0
1, 48240, Note_on_c, 9, 42, 108
1, 48249, Note_on_c, 9, 42, 0
1, 48479, Note_on_c, 9, 35, 0
1, 48480, Note_on_c, 9, 38, 108
1, 48480, Note_on_c, 9, 42, 108
1, 48489, Note_on_c, 9, 42, 0
1, 48719, Note_on_c, 9, 38, 0
1, 48720, Note_on_c, 9, 42, 108
1, 48720, Note_on_c, 9, 35, 108
1, 48729, Note_on_c, 9, 42, 0
1, 48959, Note_on_c, 9, 35, 0
1, 48960, Note_on_c, 9, 42, 108
1, 48969, Note_on_c, 9, 42, 0
1, 49200, Note_on_c, 9, 42, 108
1, 49200, Note_on_c, 9, 35, 108
1, 49209, Note_on_c, 9, 42, 0
1, 49439, Note_on_c, 9, 35, 0
1, 49440, Note_on_c, 9, 38, 108
1, 49440, Note_on_c, 9, 42, 108
1, 49440, Note_on_c, 9, 55, 108
1, 49440, Note_on_c, 9, 43, 108
1, 49449, Note_on_c, 9, 42, 0
1, 49449, Note_on_c, 9, 55, 0
1, 49679, Note_on_c, 9, 38, 0
1, 49680, Note_on_c, 9, 42, 108
1, 49689, Note_on_c, 9, 42, 0
1, 49919, Note_on_c, 9, 43, 0
1, 49920, Note_on_c, 9, 57, 108
1, 49920, Note_on_c, 9, 35, 108
1, 49929, Note_on_c, 9, 57, 0
1, 50160, Note_on_c, 9, 42, 108
1, 50169, Note_on_c, 9, 42, 0
1, 50399, Note_on_c, 9, 35, 0
1, 50400, Note_on_c, 9, 38, 108
1, 50400, Note_on_c, 9, 42, 108
1, 50409, Note_on_c, 9, 42, 0
1, 50639, Note_on_c, 9, 38, 0
1, 50640, Note_on_c, 9, 42, 108
1, 50640, Note_on_c, 9, 35, 108
1, 50649, Note_on_c, 9, 42, 0
1, 50879, Note_on_c, 9, 35, 0
1, 50880, Note_on_c, 9, 42, 108
1, 50880, Note_on_c, 9, 35, 108
1, 50889, Note_on_c, 9, 42, 0
1, 51120, Note_on_c, 9, 42, 108
1, 51129, Note_on_c, 9, 42, 0
1, 51359, Note_on_c, 9, 35, 0
1, 51360, Note_on_c, 9, 38, 108
1, 51360, Note_on_c, 9, 42, 108
1, 51369, Note_on_c, 9, 42, 0
1, 51599, Note_on_c, 9, 38, 0
1, 51600, Note_on_c, 9, 42, 108
1, 51609, Note_on_c, 9, 42, 0
1, 51840, Note_on_c, 9, 42, 108
1, 51840, Note_on_c, 9, 35, 108
1, 51849, Note_on_c, 9, 42, 0
1, 52080, Note_on_c, 9, 42, 108
1, 52089, Note_on_c, 9, 42, 0
1, 52319, Note_on_c, 9, 35, 0
1, 52320, Note_on_c, 9, 38, 108
1, 52320, Note_on_c, 9, 42, 108
1, 52329, Note_on_c, 9, 42, 0
1, 52559, Note_on_c, 9, 38, 0
1, 52560, Note_on_c, 9, 42, 108
1, 52560, Note_on_c, 9, 35, 108
1, 52569, Note_on_c, 9, 42, 0
1, 52799, Note_on_c, 9, 35, 0
1, 52800, Note_on_c, 9, 42, 108
1, 52809, Note_on_c, 9, 42, 0
1, 53040, Note_on_c, 9, 42, 108
1, 53040, Note_on_c, 9, 35, 108
1, 53049, Note_on_c, 9, 42, 0
1, 53279, Note_on_c, 9, 35, 0
1, 53280, Note_on_c, 9, 38, 108
1, 53280, Note_on_c, 9, 42, 108
1, 53280, Note_on_c, 9, 55, 108
1, 53280, Note_on_c, 9, 43, 108
1, 53289, Note_on_c, 9, 42, 0
1, 53289, Note_on_c, 9, 55, 0
1, 53519, Note_on_c, 9, 38, 0
1, 53520, Note_on_c, 9, 42, 108
1, 53529, Note_on_c, 9, 42, 0
1, 53759, Note_on_c, 9, 43, 0
1, 53760, Note_on_c, 9, 57, 108
1, 53760, Note_on_c, 9, 35, 108
1, 53769, Note_on_c, 9, 57, 0
1, 54000, Note_on_c, 9, 42, 108
1, 54009, Note_on_c, 9, 42, 0
1, 54239, Note_on_c, 9, 35, 0
1, 54240, Note_on_c, 9, 38, 108
1, 54240, Note_on_c, 9, 42, 108
1, 54249, Note_on_c, 9, 42, 0
1, 54479, Note_on_c, 9, 38, 0
1, 54480, Note_on_c, 9, 42, 108
1, 54480, Note_on_c, 9, 35, 108
1, 54489, Note_on_c, 9, 42, 0
1, 54719, Note_on_c, 9, 35, 0
1, 54720, Note_on_c, 9, 42, 108
1, 54720, Note_on_c, 9, 35, 108
1, 54729, Note_on_c, 9, 42, 0
1, 54960, Note_on_c, 9, 42, 108
1, 54969, Note_on_c, 9, 42, 0
1, 55199, Note_on_c, 9, 35, 0
1, 55200, Note_on_c, 9, 38, 108
1, 55200, Note_on_c, 9, 42, 108
1, 55209, Note_on_c, 9, 42, 0
1, 55439, Note_on_c, 9, 38, 0
1, 55440, Note_on_c, 9, 42, 108
1, 55449, Note_on_c, 9, 42, 0
1, 55680, Note_on_c, 9, 42, 108
1, 55680, Note_on_c, 9, 35, 108
1, 55689, Note_on_c, 9, 42, 0
1, 55920, Note_on_c, 9, 42, 108
1, 55929, Note_on_c, 9, 42, 0
1, 56159, Note_on_c, 9, 35, 0
1, 56160, Note_on_c, 9, 38, 108
1, 56160, Note_on_c, 9, 42, 108
1, 56169, Note_on_c, 9, 42, 0
1, 56399, Note_on_c, 9, 38, 0
1, 56400, Note_on_c, 9, 42, 108
1, 56400, Note_on_c, 9, 35, 108
1, 56409, Note_on_c, 9, 42, 0
1, 56639, Note_on_c, 9, 35, 0
1, 56640, Note_on_c, 9, 42, 108
1, 56649, Note_on_c, 9, 42, 0
1, 56880, Note_on_c, 9, 42, 108
1, 56880, Note_on_c, 9, 35, 108
1, 56889, Note_on_c, 9, 42, 0
1, 57119, Note_on_c, 9, 35, 0
1, 57120, Note_on_c, 9, 38, 108
1, 57120, Note_on_c, 9, 42, 108
1, 57120, Note_on_c, 9, 55, 108
1, 57120, Note_on_c, 9, 43, 108
1, 57129, Note_on_c, 9, 42, 0
1, 57129, Note_on_c, 9, 55, 0
1, 57359, Note_on_c, 9, 38, 0
1, 57360, Note_on_c, 9, 42, 108
1, 57369, Note_on_c, 9, 42, 0
1, 57599, Note_on_c, 9, 43, 0
1, 57600, Note_on_c, 9, 57, 108
1, 57600, Note_on_c, 9, 35, 108
1, 57609, Note_on_c, 9, 57, 0
1, 57840, Note_on_c, 9, 42, 108
1, 57849, Note_on_c, 9, 42, 0
1, 58079, Note_on_c, 9, 35, 0
1, 58080, Note_on_c, 9, 38, 108
1, 58080, Note_on_c, 9, 42, 108
1, 58089, Note_on_c, 9, 42, 0
1, 58319, Note_on_c, 9, 38, 0
1, 58320, Note_on_c, 9, 42, 108
1, 58320, Note_on_c, 9, 35, 108
1, 58329, Note_on_c, 9, 42, 0
1, 58559, Note_on_c, 9, 35, 0
1, 58560, Note_on_c, 9, 42, 108
1, 58560, Note_on_c, 9, 35, 108
1, 58569, Note_on_c, 9, 42, 0
1, 58800, Note_on_c, 9, 42, 108
1, 58809, Note_on_c, 9, 42, 0
1, 59039, Note_on_c, 9, 35, 0
1, 59040, Note_on_c, 9, 38, 108
1, 59040, Note_on_c, 9, 42, 108
1, 59049, Note_on_c, 9, 42, 0
1, 59279, Note_on_c, 9, 38, 0
1, 59280, Note_on_c, 9, 42, 108
1, 59289, Note_on_c, 9, 42, 0
1, 59520, Note_on_c, 9, 42, 108
1, 59520, Note_on_c, 9, 35, 108
1, 59529, Note_on_c, 9, 42, 0
1, 59760, Note_on_c, 9, 42, 108
1, 59769, Note_on_c, 9, 42, 0
1, 59999, Note_on_c, 9, 35, 0
1, 60000, Note_on_c, 9, 38, 108
1, 60000, Note_on_c, 9, 42, 108
1, 60009, Note_on_c, 9, 42, 0
1, 60239, Note_on_c, 9, 38, 0
1, 60240, Note_on_c, 9, 42, 108
1, 60240, Note_on_c, 9, 35, 108
1, 60249, Note_on_c, 9, 42, 0
1, 60479, Note_on_c, 9, 35, 0
1, 60480, Note_on_c, 9, 42, 108
1, 60480, Note_on_c, 9, 55, 108
1, 60480, Note_on_c, 9, 35, 108
1, 60489, Note_on_c, 9, 42, 0
1, 60489, Note_on_c, 9, 55, 0
1, 60720, Note_on_c, 9, 42, 108
1, 60729, Note_on_c, 9, 42, 0
1, 60959, Note_on_c, 9, 35, 0
1, 60960, Note_on_c, 9, 38, 108
1, 60960, Note_on_c, 9, 42, 108
1, 60960, Note_on_c, 9, 57, 108
1, 60969, Note_on_c, 9, 42, 0
1, 60969, Note_on_c, 9, 57, 0
1, 61199, Note_on_c, 9, 38, 0
1, 61200, Note_on_c, 9, 42, 108
1, 61209, Note_on_c, 9, 42, 0
1, 61440, Note_on_c, 9, 57, 108
1, 61440, Note_on_c, 9, 35, 108
1, 61449, Note_on_c, 9, 57, 0
1, 61680, Note_on_c, 9, 42, 108
1, 61689, Note_on_c, 9, 42, 0
1, 61919, Note_on_c, 9, 35, 0
1, 61920, Note_on_c, 9, 38, 108
1, 61920, Note_on_c, 9, 42, 108
1, 61929, Note_on_c, 9, 42, 0
1, 62159, Note_on_c, 9, 38, 0
1, 62160, Note_on_c, 9, 42, 108
1, 62169, Note_on_c, 9, 42, 0
1, 62400, Note_on_c, 9, 42, 108
1, 62400, Note_on_c, 9, 35, 108
1, 62409, Note_on_c, 9, 42, 0
1, 62640, Note_on_c, 9, 42, 108
1, 62649, Note_on_c, 9, 42, 0
1, 62879, Note_on_c, 9, 35, 0
1, 62880, Note_on_c, 9, 38, 108
1, 62880, Note_on_c, 9, 42, 108
1, 62889, Note_on_c, 9, 42, 0
1, 63119, Note_on_c, 9, 38, 0
1, 63120, Note_on_c, 9, 42, 108
1, 63120, Note_on_c, 9, 35, 108
1, 63129, Note_on_c, 9, 42, 0
1, 63359, Note_on_c, 9, 35, 0
1, 63360, Note_on_c, 9, 42, 108
1, 63360, Note_on_c, 9, 35, 108
1, 63369, Note_on_c, 9, 42, 0
1, 63600, Note_on_c, 9, 42, 108
1, 63609, Note_on_c, 9, 42, 0
1, 63839, Note_on_c, 9, 35, 0
1, 63840, Note_on_c, 9, 38, 108
1, 63840, Note_on_c, 9, 42, 108
1, 63849, Note_on_c, 9, 42, 0
1, 64079, Note_on_c, 9, 38, 0
1, 64080, Note_on_c, 9, 42, 108
1, 64089, Note_on_c, 9, 42, 0
1, 64320, Note_on_c, 9, 42, 108
1, 64320, Note_on_c, 9, 35, 108
1, 64329, Note_on_c, 9, 42, 0
1, 64560, Note_on_c, 9, 42, 108
1, 64569, Note_on_c, 9, 42, 0
1, 64799, Note_on_c, 9, 35, 0
1, 64800, Note_on_c, 9, 38, 108
1, 64800, Note_on_c, 9, 42, 108
1, 64809, Note_on_c, 9, 42, 0
1, 65039, Note_on_c, 9, 38, 0
1, 65040, Note_on_c, 9, 42, 108
1, 65040, Note_on_c, 9, 35, 108
1, 65049, Note_on_c, 9, 42, 0
1, 65279, Note_on_c, 9, 35, 0
1, 65280, Note_on_c, 9, 42, 108
1, 65280, Note_on_c, 9, 35, 108
1, 65289, Note_on_c, 9, 42, 0
1, 65520, Note_on_c, 9, 42, 108
1, 65529, Note_on_c, 9, 42, 0
1, 65759, Note_on_c, 9, 35, 0
1, 65760, Note_on_c, 9, 38, 108
1, 65760, Note_on_c, 9, 42, 108
1, 65769, Note_on_c, 9, 42, 0
1, 65999, Note_on_c, 9, 38, 0
1, 66000, Note_on_c, 9, 42, 108
1, 66009, Note_on_c, 9, 42, 0
1, 66240, Note_on_c, 9, 42, 108
1, 66240, Note_on_c, 9, 35, 108
1, 66249, Note_on_c, 9, 42, 0
1, 66480, Note_on_c, 9, 42, 108
1, 66489, Note_on_c, 9, 42, 0
1, 66719, Note_on_c, 9, 35, 0
1, 66720, Note_on_c, 9, 38, 108
1, 66720, Note_on_c, 9, 42, 108
1, 66729, Note_on_c, 9, 42, 0
1, 66959, Note_on_c, 9, 38, 0
1, 66960, Note_on_c, 9, 42, 108
1, 66960, Note_on_c, 9, 35, 108
1, 66969, Note_on_c, 9, 42, 0
1, 67199, Note_on_c, 9, 35, 0
1, 67200, Note_on_c, 9, 42, 108
1, 67200, Note_on_c, 9, 35, 108
1, 67209, Note_on_c, 9, 42, 0
1, 67440, Note_on_c, 9, 42, 108
1, 67449, Note_on_c, 9, 42, 0
1, 67679, Note_on_c, 9, 35, 0
1, 67680, Note_on_c, 9, 38, 108
1, 67680, Note_on_c, 9, 42, 108
1, 67689, Note_on_c, 9, 42, 0
1, 67919, Note_on_c, 9, 38, 0
1, 67920, Note_on_c, 9, 42, 108
1, 67920, Note_on_c, 9, 35, 108
1, 67929, Note_on_c, 9, 42, 0
1, 68159, Note_on_c, 9, 35, 0
1, 68160, Note_on_c, 9, 42, 108
1, 68169, Note_on_c, 9, 42, 0
1, 68400, Note_on_c, 9, 42, 108
1, 68400, Note_on_c, 9, 35, 108
1, 68409, Note_on_c, 9, 42, 0
1, 68639, Note_on_c, 9, 35, 0
1, 68640, Note_on_c, 9, 38, 108
1, 68640, Note_on_c, 9, 42, 108
1, 68649, Note_on_c, 9, 42, 0
1, 68879, Note_on_c, 9, 38, 0
1, 68880, Note_on_c, 9, 42, 108
1, 68880, Note_on_c, 9, 35, 108
1, 68889, Note_on_c, 9, 42, 0
1, 69119, Note_on_c, 9, 35, 0
1, 69120, Note_on_c, 9, 57, 108
1, 69120, Note_on_c, 9, 35, 108
1, 69129, Note_on_c, 9, 57, 0
1, 69360, Note_on_c, 9, 42, 108
1, 69369, Note_on_c, 9, 42, 0
1, 69599, Note_on_c, 9, 35, 0
1, 69600, Note_on_c, 9, 38, 108
1, 69600, Note_on_c, 9, 42, 108
1, 69609, Note_on_c, 9, 42, 0
1, 69839, Note_on_c, 9, 38, 0
1, 69840, Note_on_c, 9, 42, 108
1, 69849, Note_on_c, 9, 42, 0
1, 70080, Note_on_c, 9, 42, 108
1, 70080, Note_on_c, 9, 35, 108
1, 70089, Note_on_c, 9, 42, 0
1, 70320, Note_on_c, 9, 42, 108
1, 70329, Note_on_c, 9, 42, 0
1, 70559, Note_on_c, 9, 35, 0
1, 70560, Note_on_c, 9, 38, 108
1, 70560, Note_on_c, 9, 42, 108
1, 70569, Note_on_c, 9, 42, 0
1, 70799, Note_on_c, 9, 38, 0
1, 70800, Note_on_c, 9, 42, 108
1, 70800, Note_on_c, 9, 35, 108
1, 70809, Note_on_c, 9, 42, 0
1, 71039, Note_on_c, 9, 35, 0
1, 71040, Note_on_c, 9, 42, 108
1, 71040, Note_on_c, 9, 35, 108
1, 71049, Note_on_c, 9, 42, 0
1, 71280, Note_on_c, 9, 42, 108
1, 71289, Note_on_c, 9, 42, 0
1, 71519, Note_on_c, 9, 35, 0
1, 71520, Note_on_c, 9, 38, 108
1, 71520, Note_on_c, 9, 42, 108
1, 71529, Note_on_c, 9, 42, 0
1, 71759, Note_on_c, 9, 38, 0
1, 71760, Note_on_c, 9, 42, 108
1, 71769, Note_on_c, 9, 42, 0
1, 72000, Note_on_c, 9, 42, 108
1, 72000, Note_on_c, 9, 35, 108
1, 72009, Note_on_c, 9, 42, 0
1, 72240, Note_on_c, 9, 42, 108
1, 72249, Note_on_c, 9, 42, 0
1, 72479, Note_on_c, 9, 35, 0
1, 72480, Note_on_c, 9, 38, 108
1, 72480, Note_on_c, 9, 42, 108
1, 72489, Note_on_c, 9, 42, 0
1, 72719, Note_on_c, 9, 38, 0
1, 72720, Note_on_c, 9, 42, 108
1, 72720, Note_on_c, 9, 35, 108
1, 72729, Note_on_c, 9, 42, 0
1, 72959, Note_on_c, 9, 35, 0
1, 72960, Note_on_c, 9, 42, 108
1, 72960, Note_on_c, 9, 35, 108
1, 72969, Note_on_c, 9, 42, 0
1, 73200, Note_on_c, 9, 42, 108
1, 73209, Note_on_c, 9, 42, 0
1, 73439, Note_on_c, 9, 35, 0
1, 73440, Note_on_c, 9, 38, 108
1, 73440, Note_on_c, 9, 42, 108
1, 73449, Note_on_c, 9, 42, 0
1, 73679, Note_on_c, 9, 38, 0
1, 73680, Note_on_c, 9, 42, 108
1, 73689, Note_on_c, 9, 42, 0
1, 73920, Note_on_c, 9, 42, 108
1, 73920, Note_on_c, 9, 35, 108
1, 73929, Note_on_c, 9, 42, 0
1, 74160, Note_on_c, 9, 42, 108
1, 74169, Note_on_c, 9, 42, 0
1, 74399, Note_on_c, 9, 35, 0
1, 74400, Note_on_c, 9, 38, 108
1, 74400, Note_on_c, 9, 42, 108
1, 74409, Note_on_c, 9, 42, 0
1, 74639, Note_on_c, 9, 38, 0
1, 74640, Note_on_c, 9, 42, 108
1, 74640, Note_on_c, 9, 35, 108
1, 74649, Note_on_c, 9, 42, 0
1, 74879, Note_on_c, 9, 35, 0
1, 74880, Note_on_c, 9, 42, 108
1, 74880, Note_on_c, 9, 35, 108
1, 74889, Note_on_c, 9, 42, 0
1, 75120, Note_on_c, 9, 42, 108
1, 75129, Note_on_c, 9, 42, 0
1, 75359, Note_on_c, 9, 35, 0
1, 75360, Note_on_c, 9, 38, 108
1, 75360, Note_on_c, 9, 42, 108
1, 75369, Note_on_c, 9, 42, 0
1, 75599, Note_on_c, 9, 38, 0
1, 75600, Note_on_c, 9, 42, 108
1, 75600, Note_on_c, 9, 35, 108
1, 75609, Note_on_c, 9, 42, 0
1, 75839, Note_on_c, 9, 35, 0
1, 75840, Note_on_c, 9, 42, 108
1, 75849, Note_on_c, 9, 42, 0
1, 76080, Note_on_c, 9, 42, 108
1, 76080, Note_on_c, 9, 35, 108
1, 76089, Note_on_c, 9, 42, 0
1, 76199, Note_on_c, 9, 35, 0
1, 76200, Note_on_c, 9, 35, 108
1, 76319, Note_on_c, 9, 35, 0
1, 76320, Note_on_c, 9, 38, 108
1, 76320, Note_on_c, 9, 42, 108
1, 76329, Note_on_c, 9, 42, 0
1, 76559, Note_on_c, 9, 38, 0
1, 76560, Note_on_c, 9, 42, 108
1, 76560, Note_on_c, 9, 35, 108
1, 76569, Note_on_c, 9, 42, 0
1, 76799, Note_on_c, 9, 35, 0
1, 76800, Note_on_c, 9, 42, 108
1, 76800, Note_on_c, 9, 57, 108
1, 76800, Note_on_c, 9, 35, 108
1, 76809, Note_on_c, 9, 42, 0
1, 76809, Note_on_c, 9, 57, 0
1, 77040, Note_on_c, 9, 42, 108
1, 77049, Note_on_c, 9, 42, 0
1, 77279, Note_on_c, 9, 35, 0
1, 77280, Note_on_c, 9, 38, 108
1, 77280, Note_on_c, 9, 42, 108
1, 77289, Note_on_c, 9, 42, 0
1, 77519, Note_on_c, 9, 38, 0
1, 77520, Note_on_c, 9, 42, 108
1, 77520, Note_on_c, 9, 35, 108
1, 77529, Note_on_c, 9, 42, 0
1, 77759, Note_on_c, 9, 35, 0
1, 77760, Note_on_c, 9, 42, 108
1, 77760, Note_on_c, 9, 35, 108
1, 77769, Note_on_c, 9, 42, 0
1, 78000, Note_on_c, 9, 42, 108
1, 78009, Note_on_c, 9, 42, 0
1, 78239, Note_on_c, 9, 35, 0
1, 78240, Note_on_c, 9, 38, 108
1, 78240, Note_on_c, 9, 42, 108
1, 78249, Note_on_c, 9, 42, 0
1, 78479, Note_on_c, 9, 38, 0
1, 78480, Note_on_c, 9, 42, 108
1, 78480, Note_on_c, 9, 35, 108
1, 78489, Note_on_c, 9, 42, 0
1, 78719, Note_on_c, 9, 35, 0
1, 78720, Note_on_c, 9, 42, 108
1, 78720, Note_on_c, 9, 35, 108
1, 78729, Note_on_c, 9, 42, 0
1, 78960, Note_on_c, 9, 42, 108
1, 78969, Note_on_c, 9, 42, 0
1, 79199, Note_on_c, 9, 35, 0
1, 79200, Note_on_c, 9, 38, 108
1, 79200, Note_on_c, 9, 42, 108
1, 79209, Note_on_c, 9, 42, 0
1, 79439, Note_on_c, 9, 38, 0
1, 79440, Note_on_c, 9, 42, 108
1, 79440, Note_on_c, 9, 35, 108
1, 79449, Note_on_c, 9, 42, 0
1, 79679, Note_on_c, 9, 35, 0
1, 79680, Note_on_c, 9, 42, 108
1, 79680, Note_on_c, 9, 35, 108
1, 79689, Note_on_c, 9, 42, 0
1, 79920, Note_on_c, 9, 38, 108
1, 80159, Note_on_c, 9, 35, 0
1, 80159, Note_on_c, 9, 38, 0
1, 80160, Note_on_c, 9, 38, 108
1, 80400, Note_on_c, 9, 35, 108
1, 80639, Note_on_c, 9, 38, 0
1, 80639, Note_on_c, 9, 35, 0
1, 80640, Note_on_c, 9, 57, 108
1, 80640, Note_on_c, 9, 35, 108
1, 80660, Note_on_c, 9, 57, 0
1, 81119, Note_on_c, 9, 35, 0
1, 81120, Note_on_c, 9, 38, 108
1, 81120, Note_on_c, 9, 42, 108
1, 81140, Note_on_c, 9, 42, 0
1, 81599, Note_on_c, 9, 38, 0
1, 81600, Note_on_c, 9, 42, 108
1, 81620, Note_on_c, 9, 42, 0
1, 81840, Note_on_c, 9, 35, 108
1, 82079, Note_on_c, 9, 35, 0
1, 82080, Note_on_c, 9, 38, 108
1, 82080, Note_on_c, 9, 42, 108
1, 82100, Note_on_c, 9, 42, 0
1, 82559, Note_on_c, 9, 38, 0
1, 82560, Note_on_c, 9, 42, 108
1, 82580, Note_on_c, 9, 42, 0
1, 83040, Note_on_c, 9, 38, 108
1, 83040, Note_on_c, 9, 42, 108
1, 83060, Note_on_c, 9, 42, 0
1, 83280, Note_on_c, 9, 35, 108
1, 83519, Note_on_c, 9, 38, 0
1, 83519, Note_on_c, 9, 35, 0
1, 83520, Note_on_c, 9, 42, 108
1, 83540, Note_on_c, 9, 42, 0
1, 83760, Note_on_c, 9, 35, 108
1, 83999, Note_on_c, 9, 35, 0
1, 84000, Note_on_c, 9, 38, 108
1, 84000, Note_on_c, 9, 43, 108
1, 84479, Note_on_c, 9, 38, 0
1, 84479, Note_on_c, 9, 43, 0
1, 84480, Note_on_c, 9, 57, 108
1, 84480, Note_on_c, 9, 35, 108
1, 84489, Note_on_c, 9, 57, 0
1, 84720, Note_on_c, 9, 42, 108
1, 84729, Note_on_c, 9, 42, 0
1, 84959, Note_on_c, 9, 35, 0
1, 84960, Note_on_c, 9, 38, 108
1, 84960, Note_on_c, 9, 42, 108
1, 84969, Note_on_c, 9, 42, 0
1, 85199, Note_on_c, 9, 38, 0
1, 85200, Note_on_c, 9, 42, 108
1, 85209, Note_on_c, 9, 42, 0
1, 85440, Note_on_c, 9, 42, 108
1, 85440, Note_on_c, 9, 35, 108
1, 85449, Note_on_c, 9, 42, 0
1, 85680, Note_on_c, 9, 42, 108
1, 85689, Note_on_c, 9, 42, 0
1, 85919, Note_on_c, 9, 35, 0
1, 85920, Note_on_c, 9, 38, 108
1, 85920, Note_on_c, 9, 42, 108
1, 85929, Note_on_c, 9, 42, 0
1, 86159, Note_on_c, 9, 38, 0
1, 86160, Note_on_c, 9, 42, 108
1, 86169, Note_on_c, 9, 42, 0
1, 86400, Note_on_c, 9, 42, 108
1, 86400, Note_on_c, 9, 35, 108
1, 86409, Note_on_c, 9, 42, 0
1, 86640, Note_on_c, 9, 42, 108
1, 86649, Note_on_c, 9, 42, 0
1, 86879, Note_on_c, 9, 35, 0
1, 86880, Note_on_c, 9, 38, 108
1, 86880, Note_on_c, 9, 42, 108
1, 86889, Note_on_c, 9, 42, 0
1, 87119, Note_on_c, 9, 38, 0
1, 87120, Note_on_c, 9, 42, 108
1, 87129, Note_on_c, 9, 42, 0
1, 87360, Note_on_c, 9, 42, 108
1, 87360, Note_on_c, 9, 35, 108
1, 87369, Note_on_c, 9, 42, 0
1, 87600, Note_on_c, 9, 42, 108
1, 87609, Note_on_c, 9, 42, 0
1, 87839, Note_on_c, 9, 35, 0
1, 87840, Note_on_c, 9, 38, 108
1, 87840, Note_on_c, 9, 42, 108
1, 87849, Note_on_c, 9, 42, 0
1, 88079, Note_on_c, 9, 38, 0
1, 88080, Note_on_c, 9, 42, 108
1, 88080, Note_on_c, 9, 35, 108
1, 88089, Note_on_c, 9, 42, 0
1, 88319, Note_on_c, 9, 35, 0
1, 88320, Note_on_c, 9, 57, 108
1, 88320, Note_on_c, 9, 35, 108
1, 88329, Note_on_c, 9, 57, 0
1, 88560, Note_on_c, 9, 42, 108
1, 88569, Note_on_c, 9, 42, 0
1, 88799, Note_on_c, 9, 35, 0
1, 88800, Note_on_c, 9, 38, 108
1, 88800, Note_on_c, 9, 42, 108
1, 88809, Note_on_c, 9, 42, 0
1, 89039, Note_on_c, 9, 38, 0
1, 89040, Note_on_c, 9, 42, 108
1, 89049, Note_on_c, 9, 42, 0
1, 89280, Note_on_c, 9, 42, 108
1, 89280, Note_on_c, 9, 35, 108
1, 89289, Note_on_c, 9, 42, 0
1, 89520, Note_on_c, 9, 42, 108
1, 89529, Note_on_c, 9, 42, 0
1, 89759, Note_on_c, 9, 35, 0
1, 89760, Note_on_c, 9, 38, 108
1, 89760, Note_on_c, 9, 42, 108
1, 89769, Note_on_c, 9, 42, 0
1, 89999, Note_on_c, 9, 38, 0
1, 90000, Note_on_c, 9, 42, 108
1, 90009, Note_on_c, 9, 42, 0
1, 90240, Note_on_c, 9, 42, 108
1, 90240, Note_on_c, 9, 35, 108
1, 90249, Note_on_c, 9, 42, 0
1, 90480, Note_on_c, 9, 42, 108
1, 90489, Note_on_c, 9, 42, 0
1, 90719, Note_on_c, 9, 35, 0
1, 90720, Note_on_c, 9, 38, 108
1, 90720, Note_on_c, 9, 42, 108
1, 90729, Note_on_c, 9, 42, 0
1, 90959, Note_on_c, 9, 38, 0
1, 90960, Note_on_c, 9, 42, 108
1, 90969, Note_on_c, 9, 42, 0
1, 91200, Note_on_c, 9, 42, 108
1, 91200, Note_on_c, 9, 35, 108
1, 91209, Note_on_c, 9, 42, 0
1, 91440, Note_on_c, 9, 42, 108
1, 91449, Note_on_c, 9, 42, 0
1, 91679, Note_on_c, 9, 35, 0
1, 91680, Note_on_c, 9, 38, 108
1, 91680, Note_on_c, 9, 42, 108
1, 91689, Note_on_c, 9, 42, 0
1, 91919, Note_on_c, 9, 38, 0
1, 91920, Note_on_c, 9, 42, 108
1, 91920, Note_on_c, 9, 35, 108
1, 91929, Note_on_c, 9, 42, 0
1, 92159, Note_on_c, 9, 35, 0
1, 92160, Note_on_c, 9, 57, 108
1, 92160, Note_on_c, 9, 35, 108
1, 92169, Note_on_c, 9, 57, 0
1, 92400, Note_on_c, 9, 42, 108
1, 92409, Note_on_c, 9, 42, 0
1, 92639, Note_on_c, 9, 35, 0
1, 92640, Note_on_c, 9, 38, 108
1, 92640, Note_on_c, 9, 42, 108
1, 92649, Note_on_c, 9, 42, 0
1, 92879, Note_on_c, 9, 38, 0
1, 92880, Note_on_c, 9, 42, 108
1, 92889, Note_on_c, 9, 42, 0
1, 93120, Note_on_c, 9, 42, 108
1, 93120, Note_on_c, 9, 35, 108
1, 93129, Note_on_c, 9, 42, 0
1, 93360, Note_on_c, 9, 42, 108
1, 93369, Note_on_c, 9, 42, 0
1, 93599, Note_on_c, 9, 35, 0
1, 93600, Note_on_c, 9, 38, 108
1, 93600, Note_on_c, 9, 42, 108
1, 93609, Note_on_c, 9, 42, 0
1, 93839, Note_on_c, 9, 38, 0
1, 93840, Note_on_c, 9, 42, 108
1, 93849, Note_on_c, 9, 42, 0
1, 94080, Note_on_c, 9, 42, 108
1, 94080, Note_on_c, 9, 35, 108
1, 94089, Note_on_c, 9, 42, 0
1, 94320, Note_on_c, 9, 42, 108
1, 94329, Note_on_c, 9, 42, 0
1, 94559, Note_on_c, 9, 35, 0
1, 94560, Note_on_c, 9, 38, 108
1, 94560, Note_on_c, 9, 42, 108
1, 94569, Note_on_c, 9, 42, 0
1, 94799, Note_on_c, 9, 38, 0
1, 94800, Note_on_c, 9, 42, 108
1, 94809, Note_on_c, 9, 42, 0
1, 95040, Note_on_c, 9, 42, 108
1, 95040, Note_on_c, 9, 35, 108
1, 95049, Note_on_c, 9, 42, 0
1, 95280, Note_on_c, 9, 42, 108
1, 95289, Note_on_c, 9, 42, 0
1, 95519, Note_on_c, 9, 35, 0
1, 95520, Note_on_c, 9, 38, 108
1, 95520, Note_on_c, 9, 42, 108
1, 95529, Note_on_c, 9, 42, 0
1, 95759, Note_on_c, 9, 38, 0
1, 95760, Note_on_c, 9, 42, 108
1, 95760, Note_on_c, 9, 35, 108
1, 95769, Note_on_c, 9, 42, 0
1, 95999, Note_on_c, 9, 35, 0
1, 96000, Note_on_c, 9, 42, 108
1, 96000, Note_on_c, 9, 35, 108
1, 96009, Note_on_c, 9, 42, 0
1, 96240, Note_on_c, 9, 42, 108
1, 96249, Note_on_c, 9, 42, 0
1, 96479, Note_on_c, 9, 35, 0
1, 96480, Note_on_c, 9, 38, 108
1, 96480, Note_on_c, 9, 42, 108
1, 96489, Note_on_c, 9, 42, 0
1, 96719, Note_on_c, 9, 38, 0
1, 96720, Note_on_c, 9, 42, 108
1, 96729, Note_on_c, 9, 42, 0
1, 96960, Note_on_c, 9, 42, 108
1, 96960, Note_on_c, 9, 35, 108
1, 96969, Note_on_c, 9, 42, 0
1, 97200, Note_on_c, 9, 42, 108
1, 97209, Note_on_c, 9, 42, 0
1, 97439, Note_on_c, 9, 35, 0
1, 97440, Note_on_c, 9, 38, 108
1, 97440, Note_on_c, 9, 42, 108
1, 97449, Note_on_c, 9, 42, 0
1, 97679, Note_on_c, 9, 38, 0
1, 97680, Note_on_c, 9, 42, 108
1, 97689, Note_on_c, 9, 42, 0
1, 97920, Note_on_c, 9, 42, 108
1, 97920, Note_on_c, 9, 35, 108
1, 97929, Note_on_c, 9, 42, 0
1, 98160, Note_on_c, 9, 42, 108
1, 98169, Note_on_c, 9, 42, 0
1, 98399, Note_on_c, 9, 35, 0
1, 98400, Note_on_c, 9, 38, 108
1, 98400, Note_on_c, 9, 42, 108
1, 98409, Note_on_c, 9, 42, 0
1, 98639, Note_on_c, 9, 38, 0
1, 98640, Note_on_c, 9, 42, 108
1, 98649, Note_on_c, 9, 42, 0
1, 98880, Note_on_c, 9, 42, 108
1, 98880, Note_on_c, 9, 35, 108
1, 98889, Note_on_c, 9, 42, 0
1, 99120, Note_on_c, 9, 42, 108
1, 99129, Note_on_c, 9, 42, 0
1, 99359, Note_on_c, 9, 35, 0
1, 99360, Note_on_c, 9, 38, 108
1, 99360, Note_on_c, 9, 42, 108
1, 99369, Note_on_c, 9, 42, 0
1, 99599, Note_on_c, 9, 38, 0
1, 99600, Note_on_c, 9, 42, 108
1, 99600, Note_on_c, 9, 35, 108
1, 99609, Note_on_c, 9, 42, 0
1, 99839, Note_on_c, 9, 35, 0
1, 99840, Note_on_c, 9, 42, 108
1, 99840, Note_on_c, 9, 35, 108
1, 99849, Note_on_c, 9, 42, 0
1, 100080, Note_on_c, 9, 42, 108
1, 100089, Note_on_c, 9, 42, 0
1, 100319, Note_on_c, 9, 35, 0
1, 100320, Note_on_c, 9, 38, 108
1, 100320, Note_on_c, 9, 42, 108
1, 100329, Note_on_c, 9, 42, 0
1, 100559, Note_on_c, 9, 38, 0
1, 100560, Note_on_c, 9, 42, 108
1, 100569, Note_on_c, 9, 42, 0
1, 100800, Note_on_c, 9, 42, 108
1, 100800, Note_on_c, 9, 35, 108
1, 100809, Note_on_c, 9, 42, 0
1, 101040, Note_on_c, 9, 42, 108
1, 101049, Note_on_c, 9, 42, 0
1, 101279, Note_on_c, 9, 35, 0
1, 101280, Note_on_c, 9, 38, 108
1, 101280, Note_on_c, 9, 42, 108
1, 101289, Note_on_c, 9, 42, 0
1, 101519, Note_on_c, 9, 38, 0
1, 101520, Note_on_c, 9, 42, 108
1, 101520, Note_on_c, 9, 35, 108
1, 101529, Note_on_c, 9, 42, 0
1, 101759, Note_on_c, 9, 35, 0
1, 101760, Note_on_c, 9, 42, 108
1, 101760, Note_on_c, 9, 35, 108
1, 101769, Note_on_c, 9, 42, 0
1, 102000, Note_on_c, 9, 42, 108
1, 102009, Note_on_c, 9, 42, 0
1, 102239, Note_on_c, 9, 35, 0
1, 102240, Note_on_c, 9, 38, 108
1, 102240, Note_on_c, 9, 42, 108
1, 102249, Note_on_c, 9, 42, 0
1, 102479, Note_on_c, 9, 38, 0
1, 102480, Note_on_c, 9, 42, 108
1, 102489, Note_on_c, 9, 42, 0
1, 102720, Note_on_c, 9, 42, 108
1, 102720, Note_on_c, 9, 35, 108
1, 102729, Note_on_c, 9, 42, 0
1, 102960, Note_on_c, 9, 42, 108
1, 102969, Note_on_c, 9, 42, 0
1, 103199, Note_on_c, 9, 35, 0
1, 103200, Note_on_c, 9, 38, 108
1, 103200, Note_on_c, 9, 42, 108
1, 103209, Note_on_c, 9, 42, 0
1, 103439, Note_on_c, 9, 38, 0
1, 103440, Note_on_c, 9, 42, 108
1, 103449, Note_on_c, 9, 42, 0
1, 103680, Note_on_c, 9, 42, 108
1, 103680, Note_on_c, 9, 35, 108
1, 103689, Note_on_c, 9, 42, 0
1, 103920, Note_on_c, 9, 42, 108
1, 103929, Note_on_c, 9, 42, 0
1, 104159, Note_on_c, 9, 35, 0
1, 104160, Note_on_c, 9, 38, 108
1, 104160, Note_on_c, 9, 42, 108
1, 104169, Note_on_c, 9, 42, 0
1, 104399, Note_on_c, 9, 38, 0
1, 104400, Note_on_c, 9, 42, 108
1, 104409, Note_on_c, 9, 42, 0
1, 104640, Note_on_c, 9, 42, 108
1, 104640, Note_on_c, 9, 35, 108
1, 104649, Note_on_c, 9, 42, 0
1, 104880, Note_on_c, 9, 42, 108
1, 104889, Note_on_c, 9, 42, 0
1, 105119, Note_on_c, 9, 35, 0
1, 105120, Note_on_c, 9, 38, 108
1, 105120, Note_on_c, 9, 42, 108
1, 105129, Note_on_c, 9, 42, 0
1, 105359, Note_on_c, 9, 38, 0
1, 105360, Note_on_c, 9, 42, 108
1, 105369, Note_on_c, 9, 42, 0
1, 105600, Note_on_c, 9, 42, 108
1, 105600, Note_on_c, 9, 35, 108
1, 105609, Note_on_c, 9, 42, 0
1, 105840, Note_on_c, 9, 38, 108
1, 105840, Note_on_c, 9, 42, 108
1, 105849, Note_on_c, 9, 42, 0
1, 106079, Note_on_c, 9, 35, 0
1, 106079, Note_on_c, 9, 38, 0
1, 106080, Note_on_c, 9, 38, 108
1, 106080, Note_on_c, 9, 42, 108
1, 106089, Note_on_c, 9, 42, 0
1, 106319, Note_on_c, 9, 38, 0
1, 106320, Note_on_c, 9, 42, 108
1, 106329, Note_on_c, 9, 42, 0
1, 106560, Note_on_c, 9, 45, 108
1, 106560, Note_on_c, 9, 42, 108
1, 106560, Note_on_c, 9, 35, 108
1, 106569, Note_on_c, 9, 42, 0
1, 106799, Note_on_c, 9, 45, 0
1, 106799, Note_on_c, 9, 35, 0
1, 106800, Note_on_c, 9, 42, 108
1, 106800, Note_on_c, 9, 43, 108
1, 106809, Note_on_c, 9, 42, 0
1, 107039, Note_on_c, 9, 43, 0
1, 107040, Note_on_c, 9, 38, 108
1, 107040, Note_on_c, 9, 42, 108
1, 107049, Note_on_c, 9, 42, 0
1, 107279, Note_on_c, 9, 38, 0
1, 107280, Note_on_c, 9, 45, 108
1, 107280, Note_on_c, 9, 42, 108
1, 107289, Note_on_c, 9, 42, 0
1, 107519, Note_on_c, 9, 45, 0
1, 107520, Note_on_c, 9, 57, 108
1, 107520, Note_on_c, 9, 35, 108
1, 107529, Note_on_c, 9, 57, 0
1, 107760, Note_on_c, 9, 42, 108
1, 107769, Note_on_c, 9, 42, 0
1, 107999, Note_on_c, 9, 35, 0
1, 108000, Note_on_c, 9, 38, 108
1, 108000, Note_on_c, 9, 42, 108
1, 108009, Note_on_c, 9, 42, 0
1, 108239, Note_on_c, 9, 38, 0
1, 108240, Note_on_c, 9, 42, 108
1, 108249, Note_on_c, 9, 42, 0
1, 108480, Note_on_c, 9, 42, 108
1, 108480, Note_on_c, 9, 35, 108
1, 108489, Note_on_c, 9, 42, 0
1, 108720, Note_on_c, 9, 42, 108
1, 108729, Note_on_c, 9, 42, 0
1, 108959, Note_on_c, 9, 35, 0
1, 108960, Note_on_c, 9, 38, 108
1, 108960, Note_on_c, 9, 42, 108
1, 108969, Note_on_c, 9, 42, 0
1, 109199, Note_on_c, 9, 38, 0
1, 109200, Note_on_c, 9, 42, 108
1, 109209, Note_on_c, 9, 42, 0
1, 109440, Note_on_c, 9, 42, 108
1, 109440, Note_on_c, 9, 35, 108
1, 109449, Note_on_c, 9, 42, 0
1, 109680, Note_on_c, 9, 42, 108
1, 109689, Note_on_c, 9, 42, 0
1, 109919, Note_on_c, 9, 35, 0
1, 109920, Note_on_c, 9, 38, 108
1, 109920, Note_on_c, 9, 42, 108
1, 109929, Note_on_c, 9, 42, 0
1, 110159, Note_on_c, 9, 38, 0
1, 110160, Note_on_c, 9, 42, 108
1, 110169, Note_on_c, 9, 42, 0
1, 110400, Note_on_c, 9, 42, 108
1, 110400, Note_on_c, 9, 35, 108
1, 110409, Note_on_c, 9, 42, 0
1, 110640, Note_on_c, 9, 42, 108
1, 110649, Note_on_c, 9, 42, 0
1, 110879, Note_on_c, 9, 35, 0
1, 110880, Note_on_c, 9, 38, 108
1, 110880, Note_on_c, 9, 42, 108
1, 110889, Note_on_c, 9, 42, 0
1, 111119, Note_on_c, 9, 38, 0
1, 111120, Note_on_c, 9, 42, 108
1, 111120, Note_on_c, 9, 35, 108
1, 111129, Note_on_c, 9, 42, 0
1, 111359, Note_on_c, 9, 35, 0
1, 111360, Note_on_c, 9, 42, 108
1, 111360, Note_on_c, 9, 35, 108
1, 111369, Note_on_c, 9, 42, 0
1, 111600, Note_on_c, 9, 42, 108
1, 111609, Note_on_c, 9, 42, 0
1, 111839, Note_on_c, 9, 35, 0
1, 111840, Note_on_c, 9, 38, 108
1, 111840, Note_on_c, 9, 42, 108
1, 111849, Note_on_c, 9, 42, 0
1, 112079, Note_on_c, 9, 38, 0
1, 112080, Note_on_c, 9, 42, 108
1, 112089, Note_on_c, 9, 42, 0
1, 112320, Note_on_c, 9, 42, 108
1, 112320, Note_on_c, 9, 35, 108
1, 112329, Note_on_c, 9, 42, 0
1, 112560, Note_on_c, 9, 42, 108
1, 112569, Note_on_c, 9, 42, 0
1, 112799, Note_on_c, 9, 35, 0
1, 112800, Note_on_c, 9, 38, 108
1, 112800, Note_on_c, 9, 42, 108
1, 112809, Note_on_c, 9, 42, 0
1, 113039, Note_on_c, 9, 38, 0
1, 113040, Note_on_c, 9, 42, 108
1, 113049, Note_on_c, 9, 42, 0
1, 113280, Note_on_c, 9, 42, 108
1, 113280, Note_on_c, 9, 35, 108
1, 113289, Note_on_c, 9, 42, 0
1, 113520, Note_on_c, 9, 42, 108
1, 113529, Note_on_c, 9, 42, 0
1, 113759, Note_on_c, 9, 35, 0
1, 113760, Note_on_c, 9, 38, 108
1, 113760, Note_on_c, 9, 42, 108
1, 113769, Note_on_c, 9, 42, 0
1, 113999, Note_on_c, 9, 38, 0
1, 114000, Note_on_c, 9, 42, 108
1, 114009, Note_on_c, 9, 42, 0
1, 114240, Note_on_c, 9, 42, 108
1, 114240, Note_on_c, 9, 35, 108
1, 114249, Note_on_c, 9, 42, 0
1, 114480, Note_on_c, 9, 42, 108
1, 114489, Note_on_c, 9, 42, 0
1, 114719, Note_on_c, 9, 35, 0
1, 114720, Note_on_c, 9, 38, 108
1, 114720, Note_on_c, 9, 42, 108
1, 114729, Note_on_c, 9, 42, 0
1, 114959, Note_on_c, 9, 38, 0
1, 114960, Note_on_c, 9, 42, 108
1, 114960, Note_on_c, 9, 35, 108
1, 114969, Note_on_c, 9, 42, 0
1, 115199, Note_on_c, 9, 35, 0
1, 115200, Note_on_c, 9, 42, 108
1, 115200, Note_on_c, 9, 35, 108
1, 115209, Note_on_c, 9, 42, 0
1, 115440, Note_on_c, 9, 42, 108
1, 115449, Note_on_c, 9, 42, 0
1, 115679, Note_on_c, 9, 35, 0
1, 115680, Note_on_c, 9, 38, 108
1, 115680, Note_on_c, 9, 42, 108
1, 115689, Note_on_c, 9, 42, 0
1, 115919, Note_on_c, 9, 38, 0
1, 115920, Note_on_c, 9, 42, 108
1, 115929, Note_on_c, 9, 42, 0
1, 116160, Note_on_c, 9, 42, 108
1, 116160, Note_on_c, 9, 35, 108
1, 116169, Note_on_c, 9, 42, 0
1, 116400, Note_on_c, 9, 42, 108
1, 116409, Note_on_c, 9, 42, 0
1, 116639, Note_on_c, 9, 35, 0
1, 116640, Note_on_c, 9, 38, 108
1, 116640, Note_on_c, 9, 42, 108
1, 116649, Note_on_c, 9, 42, 0
1, 116879, Note_on_c, 9, 38, 0
1, 116880, Note_on_c, 9, 42, 108
1, 116880, Note_on_c, 9, 35, 108
1, 116889, Note_on_c, 9, 42, 0
1, 117119, Note_on_c, 9, 35, 0
1, 117120, Note_on_c, 9, 42, 108
1, 117120, Note_on_c, 9, 35, 108
1, 117129, Note_on_c, 9, 42, 0
1, 117360, Note_on_c, 9, 42, 108
1, 117369, Note_on_c, 9, 42, 0
1, 117599, Note_on_c, 9, 35, 0
1, 117600, Note_on_c, 9, 38, 108
1, 117600, Note_on_c, 9, 42, 108
1, 117609, Note_on_c, 9, 42, 0
1, 117839, Note_on_c, 9, 38, 0
1, 117840, Note_on_c, 9, 42, 108
1, 117849, Note_on_c, 9, 42, 0
1, 118080, Note_on_c, 9, 42, 108
1, 118080, Note_on_c, 9, 35, 108
1, 118089, Note_on_c, 9, 42, 0
1, 118320, Note_on_c, 9, 42, 108
1, 118329, Note_on_c, 9, 42, 0
1, 118559, Note_on_c, 9, 35, 0
1, 118560, Note_on_c, 9, 38, 108
1, 118560, Note_on_c, 9, 42, 108
1, 118569, Note_on_c, 9, 42, 0
1, 118799, Note_on_c, 9, 38, 0
1, 118800, Note_on_c, 9, 42, 108
1, 118809, Note_on_c, 9, 42, 0
1, 119040, Note_on_c, 9, 42, 108
1, 119040, Note_on_c, 9, 35, 108
1, 119049, Note_on_c, 9, 42, 0
1, 119280, Note_on_c, 9, 42, 108
1, 119289, Note_on_c, 9, 42, 0
1, 119519, Note_on_c, 9, 35, 0
1, 119520, Note_on_c, 9, 38, 108
1, 119520, Note_on_c, 9, 42, 108
1, 119529, Note_on_c, 9, 42, 0
1, 119759, Note_on_c, 9, 38, 0
1, 119760, Note_on_c, 9, 42, 108
1, 119769, Note_on_c, 9, 42, 0
1, 120000, Note_on_c, 9, 42, 108
1, 120000, Note_on_c, 9, 35, 108
1, 120009, Note_on_c, 9, 42, 0
1, 120240, Note_on_c, 9, 42, 108
1, 120249, Note_on_c, 9, 42, 0
1, 120479, Note_on_c, 9, 35, 0
1, 120480, Note_on_c, 9, 38, 108
1, 120480, Note_on_c, 9, 42, 108
1, 120489, Note_on_c, 9, 42, 0
1, 120719, Note_on_c, 9, 38, 0
1, 120720, Note_on_c, 9, 42, 108
1, 120729, Note_on_c, 9, 42, 0
1, 120960, Note_on_c, 9, 42, 108
1, 120960, Note_on_c, 9, 35, 108
1, 120969, Note_on_c, 9, 42, 0
1, 121200, Note_on_c, 9, 38, 108
1, 121200, Note_on_c, 9, 42, 108
1, 121209, Note_on_c, 9, 42, 0
1, 121439, Note_on_c, 9, 35, 0
1, 121439, Note_on_c, 9, 38, 0
1, 121440, Note_on_c, 9, 38, 108
1, 121440, Note_on_c, 9, 42, 108
1, 121449, Note_on_c, 9, 42, 0
1, 121679, Note_on_c, 9, 38, 0
1, 121680, Note_on_c, 9, 42, 108
1, 121680, Note_on_c, 9, 35, 108
1, 121689, Note_on_c, 9, 42, 0
1, 121919, Note_on_c, 9, 35, 0
1, 121920, Note_on_c, 9, 45, 108
1, 121920, Note_on_c, 9, 42, 108
1, 121920, Note_on_c, 9, 55, 108
1, 121920, Note_on_c, 9, 35, 108
1, 121929, Note_on_c, 9, 42, 0
1, 121929, Note_on_c, 9, 55, 0
1, 122159, Note_on_c, 9, 45, 0
1, 122159, Note_on_c, 9, 35, 0
1, 122160, Note_on_c, 9, 42, 108
1, 122160, Note_on_c, 9, 43, 108
1, 122169, Note_on_c, 9, 42, 0
1, 122399, Note_on_c, 9, 43, 0
1, 122400, Note_on_c, 9, 38, 108
1, 122400, Note_on_c, 9, 42, 108
1, 122400, Note_on_c, 9, 57, 108
1, 122409, Note_on_c, 9, 42, 0
1, 122409, Note_on_c, 9, 57, 0
1, 122639, Note_on_c, 9, 38, 0
1, 122640, Note_on_c, 9, 45, 108
1, 122640, Note_on_c, 9, 42, 108
1, 122649, Note_on_c, 9, 42, 0
1, 122879, Note_on_c, 9, 45, 0
1, 122880, Note_on_c, 9, 57, 108
1, 122880, Note_on_c, 9, 35, 108
1, 122889, Note_on_c, 9, 57, 0
1, 123120, Note_on_c, 9, 42, 108
1, 123129, Note_on_c, 9, 42, 0
1, 123359, Note_on_c, 9, 35, 0
1, 123360, Note_on_c, 9, 38, 108
1, 123360, Note_on_c, 9, 42, 108
1, 123369, Note_on_c, 9, 42, 0
1, 123599, Note_on_c, 9, 38, 0
1, 123600, Note_on_c, 9, 42, 108
1, 123600, Note_on_c, 9, 35, 108
1, 123609, Note_on_c, 9, 42, 0
1, 123839, Note_on_c, 9, 35, 0
1, 123840, Note_on_c, 9, 42, 108
1, 123840, Note_on_c, 9, 35, 108
1, 123849, Note_on_c, 9, 42, 0
1, 124080, Note_on_c, 9, 42, 108
1, 124089, Note_on_c, 9, 42, 0
1, 124319, Note_on_c, 9, 35, 0
1, 124320, Note_on_c, 9, 38, 108
1, 124320, Note_on_c, 9, 42, 108
1, 124329, Note_on_c, 9, 42, 0
1, 124559, Note_on_c, 9, 38, 0
1, 124560, Note_on_c, 9, 42, 108
1, 124569, Note_on_c, 9, 42, 0
1, 124800, Note_on_c, 9, 42, 108
1, 124800, Note_on_c, 9, 35, 108
1, 124809, Note_on_c, 9, 42, 0
1, 125040, Note_on_c, 9, 42, 108
1, 125049, Note_on_c, 9, 42, 0
1, 125279, Note_on_c, 9, 35, 0
1, 125280, Note_on_c, 9, 38, 108
1, 125280, Note_on_c, 9, 42, 108
1, 125289, Note_on_c, 9, 42, 0
1, 125519, Note_on_c, 9, 38, 0
1, 125520, Note_on_c, 9, 42, 108
1, 125520, Note_on_c, 9, 35, 108
1, 125529, Note_on_c, 9, 42, 0
1, 125759, Note_on_c, 9, 35, 0
1, 125760, Note_on_c, 9, 42, 108
1, 125769, Note_on_c, 9, 42, 0
1, 126000, Note_on_c, 9, 42, 108
1, 126000, Note_on_c, 9, 35, 108
1, 126009, Note_on_c, 9, 42, 0
1, 126239, Note_on_c, 9, 35, 0
1, 126240, Note_on_c, 9, 38, 108
1, 126240, Note_on_c, 9, 42, 108
1, 126240, Note_on_c, 9, 55, 108
1, 126240, Note_on_c, 9, 43, 108
1, 126249, Note_on_c, 9, 42, 0
1, 126249, Note_on_c, 9, 55, 0
1, 126479, Note_on_c, 9, 38, 0
1, 126480, Note_on_c, 9, 42, 108
1, 126489, Note_on_c, 9, 42, 0
1, 126719, Note_on_c, 9, 43, 0
1, 126720, Note_on_c, 9, 57, 108
1, 126720, Note_on_c, 9, 35, 108
1, 126729, Note_on_c, 9, 57, 0
1, 126960, Note_on_c, 9, 42, 108
1, 126969, Note_on_c, 9, 42, 0
1, 127199, Note_on_c, 9, 35, 0
1, 127200, Note_on_c, 9, 38, 108
1, 127200, Note_on_c, 9, 42, 108
1, 127209, Note_on_c, 9, 42, 0
1, 127439, Note_on_c, 9, 38, 0
1, 127440, Note_on_c, 9, 42, 108
1, 127440, Note_on_c, 9, 35, 108
1, 127449, Note_on_c, 9, 42, 0
1, 127679, Note_on_c, 9, 35, 0
1, 127680, Note_on_c, 9, 42, 108
1, 127680, Note_on_c, 9, 35, 108
1, 127689, Note_on_c, 9, 42, 0
1, 127920, Note_on_c, 9, 42, 108
1, 127929, Note_on_c, 9, 42, 0
1, 128159, Note_on_c, 9, 35, 0
1, 128160, Note_on_c, 9, 38, 108
1, 128160, Note_on_c, 9, 42, 108
1, 128169, Note_on_c, 9, 42, 0
1, 128399, Note_on_c, 9, 38, 0
1, 128400, Note_on_c, 9, 42, 108
1, 128409, Note_on_c, 9, 42, 0
1, 128640, Note_on_c, 9, 42, 108
1, 128640, Note_on_c, 9, 35, 108
1, 128649, Note_on_c, 9, 42, 0
1, 128880, Note_on_c, 9, 42, 108
1, 128889, Note_on_c, 9, 42, 0
1, 129119, Note_on_c, 9, 35, 0
1, 129120, Note_on_c, 9, 38, 108
1, 129120, Note_on_c, 9, 42, 108
1, 129129, Note_on_c, 9, 42, 0
1, 129359, Note_on_c, 9, 38, 0
1, 129360, Note_on_c, 9, 42, 108
1, 129360, Note_on_c, 9, 35, 108
1, 129369, Note_on_c, 9, 42, 0
1, 129599, Note_on_c, 9, 35, 0
1, 129600, Note_on_c, 9, 42, 108
1, 129609, Note_on_c, 9, 42, 0
1, 129840, Note_on_c, 9, 42, 108
1, 129840, Note_on_c, 9, 35, 108
1, 129849, Note_on_c, 9, 42, 0
1, 130079, Note_on_c, 9, 35, 0
1, 130080, Note_on_c, 9, 38, 108
1, 130080, Note_on_c, 9, 42, 108
1, 130080, Note_on_c, 9, 55, 108
1, 130080, Note_on_c, 9, 43, 108
1, 130089, Note_on_c, 9, 42, 0
1, 130089, Note_on_c, 9, 55, 0
1, 130319, Note_on_c, 9, 38, 0
1, 130320, Note_on_c, 9, 42, 108
1, 130329, Note_on_c, 9, 42, 0
1, 130559, Note_on_c, 9, 43, 0
1, 130560, Note_on_c, 9, 57, 108
1, 130560, Note_on_c, 9, 35, 108
1, 130569, Note_on_c, 9, 57, 0
1, 130800, Note_on_c, 9, 42, 108
1, 130809, Note_on_c, 9, 42, 0
1, 131039, Note_on_c, 9, 35, 0
1, 131040, Note_on_c, 9, 38, 108
1, 131040, Note_on_c, 9, 42, 108
1, 131049, Note_on_c, 9, 42, 0
1, 131279, Note_on_c, 9, 38, 0
1, 131280, Note_on_c, 9, 42, 108
1, 131280, Note_on_c, 9, 35, 108
1, 131289, Note_on_c, 9, 42, 0
1, 131519, Note_on_c, 9, 35, 0
1, 131520, Note_on_c, 9, 42, 108
1, 131520, Note_on_c, 9, 35, 108
1, 131529, Note_on_c, 9, 42, 0
1, 131760, Note_on_c, 9, 42, 108
1, 131769, Note_on_c, 9, 42, 0
1, 131999, Note_on_c, 9, 35, 0
1, 132000, Note_on_c, 9, 38, 108
1, 132000, Note_on_c, 9, 42, 108
1, 132009, Note_on_c, 9, 42, 0
1, 132239, Note_on_c, 9, 38, 0
1, 132240, Note_on_c, 9, 42, 108
1, 132249, Note_on_c, 9, 42, 0
1, 132480, Note_on_c, 9, 42, 108
1, 132480, Note_on_c, 9, 35, 108
1, 132489, Note_on_c, 9, 42, 0
1, 132720, Note_on_c, 9, 42, 108
1, 132729, Note_on_c, 9, 42, 0
1, 132959, Note_on_c, 9, 35, 0
1, 132960, Note_on_c, 9, 38, 108
1, 132960, Note_on_c, 9, 42, 108
1, 132969, Note_on_c, 9, 42, 0
1, 133199, Note_on_c, 9, 38, 0
1, 133200, Note_on_c, 9, 42, 108
1, 133200, Note_on_c, 9, 35, 108
1, 133209, Note_on_c, 9, 42, 0
1, 133439, Note_on_c, 9, 35, 0
1, 133440, Note_on_c, 9, 42, 108
1, 133449, Note_on_c, 9, 42, 0
1, 133680, Note_on_c, 9, 42, 108
1, 133680, Note_on_c, 9, 35, 108
1, 133689, Note_on_c, 9, 42, 0
1, 133919, Note_on_c, 9, 35, 0
1, 133920, Note_on_c, 9, 38, 108
1, 133920, Note_on_c, 9, 42, 108
1, 133920, Note_on_c, 9, 55, 108
1, 133920, Note_on_c, 9, 43, 108
1, 133929, Note_on_c, 9, 42, 0
1, 133929, Note_on_c, 9, 55, 0
1, 134159, Note_on_c, 9, 38, 0
1, 134160, Note_on_c, 9, 42, 108
1, 134169, Note_on_c, 9, 42, 0
1, 134399, Note_on_c, 9, 43, 0
1, 134400, Note_on_c, 9, 57, 108
1, 134400, Note_on_c, 9, 35, 108
1, 134409, Note_on_c, 9, 57, 0
1, 134640, Note_on_c, 9, 42, 108
1, 134649, Note_on_c, 9, 42, 0
1, 134879, Note_on_c, 9, 35, 0
1, 134880, Note_on_c, 9, 38, 108
1, 134880, Note_on_c, 9, 42, 108
1, 134889, Note_on_c, 9, 42, 0
1, 135119, Note_on_c, 9, 38, 0
1, 135120, Note_on_c, 9, 42, 108
1, 135120, Note_on_c, 9, 35, 108
1, 135129, Note_on_c, 9, 42, 0
1, 135359, Note_on_c, 9, 35, 0
1, 135360, Note_on_c, 9, 42, 108
1, 135360, Note_on_c, 9, 35, 108
1, 135369, Note_on_c, 9, 42, 0
1, 135600, Note_on_c, 9, 42, 108
1, 135609, Note_on_c, 9, 42, 0
1, 135839, Note_on_c, 9, 35, 0
1, 135840, Note_on_c, 9, 38, 108
1, 135840, Note_on_c, 9, 42, 108
1, 135849, Note_on_c, 9, 42, 0
1, 136079, Note_on_c, 9, 38, 0
1, 136080, Note_on_c, 9, 42, 108
1, 136089, Note_on_c, 9, 42, 0
1, 136320, Note_on_c, 9, 38, 108
1, 136320, Note_on_c, 9, 42, 108
1, 136329, Note_on_c, 9, 42, 0
1, 136559, Note_on_c, 9, 38, 0
1, 136560, Note_on_c, 9, 42, 108
1, 136560, Note_on_c, 9, 35, 108
1, 136569, Note_on_c, 9, 42, 0
1, 136799, Note_on_c, 9, 35, 0
1, 136800, Note_on_c, 9, 42, 108
1, 136809, Note_on_c, 9, 42, 0
1, 137040, Note_on_c, 9, 42, 108
1, 137049, Note_on_c, 9, 42, 0
1, 137280, Note_on_c, 9, 38, 108
1, 137280, Note_on_c, 9, 42, 108
1, 137289, Note_on_c, 9, 42, 0
1, 137519, Note_on_c, 9, 38, 0
1, 137520, Note_on_c, 9, 42, 108
1, 137520, Note_on_c, 9, 35, 108
1, 137529, Note_on_c, 9, 42, 0
1, 137759, Note_on_c, 9, 35, 0
1, 137760, Note_on_c, 9, 38, 108
1, 137879, Note_on_c, 9, 38, 0
1, 137880, Note_on_c, 9, 38, 108
1, 137999, Note_on_c, 9, 38, 0
1, 138000, Note_on_c, 9, 42, 108
1, 138000, Note_on_c, 9, 35, 108
1, 138009, Note_on_c, 9, 42, 0
1, 138239, Note_on_c, 9, 35, 0
1, 138240, Note_on_c, 9, 57, 108
1, 138240, Note_on_c, 9, 35, 108
1, 138249, Note_on_c, 9, 57, 0
1, 138480, Note_on_c, 9, 42, 108
1, 138489, Note_on_c, 9, 42, 0
1, 138719, Note_on_c, 9, 35, 0
1, 138720, Note_on_c, 9, 38, 108
1, 138720, Note_on_c, 9, 42, 108
1, 138729, Note_on_c, 9, 42, 0
1, 138959, Note_on_c, 9, 38, 0
1, 138960, Note_on_c, 9, 42, 108
1, 138969, Note_on_c, 9, 42, 0
1, 139200, Note_on_c, 9, 42, 108
1, 139200, Note_on_c, 9, 35, 108
1, 139209, Note_on_c, 9, 42, 0
1, 139440, Note_on_c, 9, 42, 108
1, 139449, Note_on_c, 9, 42, 0
1, 139679, Note_on_c, 9, 35, 0
1, 139680, Note_on_c, 9, 38, 108
1, 139680, Note_on_c, 9, 42, 108
1, 139689, Note_on_c, 9, 42, 0
1, 139919, Note_on_c, 9, 38, 0
1, 139920, Note_on_c, 9, 42, 108
1, 139920, Note_on_c, 9, 35, 108
1, 139929, Note_on_c, 9, 42, 0
1, 140159, Note_on_c, 9, 35, 0
1, 140160, Note_on_c, 9, 42, 108
1, 140160, Note_on_c, 9, 35, 108
1, 140169, Note_on_c, 9, 42, 0
1, 140400, Note_on_c, 9, 42, 108
1, 140409, Note_on_c, 9, 42, 0
1, 140639, Note_on_c, 9, 35, 0
1, 140640, Note_on_c, 9, 38, 108
1, 140640, Note_on_c, 9, 42, 108
1, 140649, Note_on_c, 9, 42, 0
1, 140879, Note_on_c, 9, 38, 0
1, 140880, Note_on_c, 9, 42, 108
1, 140889, Note_on_c, 9, 42, 0
1, 141120, Note_on_c, 9, 42, 108
1, 141120, Note_on_c, 9, 35, 108
1, 141129, Note_on_c, 9, 42, 0
1, 141360, Note_on_c, 9, 42, 108
1, 141369, Note_on_c, 9, 42, 0
1, 141599, Note_on_c, 9, 35, 0
1, 141600, Note_on_c, 9, 38, 108
1, 141600, Note_on_c, 9, 42, 108
1, 141609, Note_on_c, 9, 42, 0
1, 141839, Note_on_c, 9, 38, 0
1, 141840, Note_on_c, 9, 42, 108
1, 141840, Note_on_c, 9, 35, 108
1, 141849, Note_on_c, 9, 42, 0
1, 142079, Note_on_c, 9, 35, 0
1, 142080, Note_on_c, 9, 42, 108
1, 142080, Note_on_c, 9, 35, 108
1, 142089, Note_on_c, 9, 42, 0
1, 142320, Note_on_c, 9, 42, 108
1, 142329, Note_on_c, 9, 42, 0
1, 142559, Note_on_c, 9, 35, 0
1, 142560, Note_on_c, 9, 38, 108
1, 142560, Note_on_c, 9, 42, 108
1, 142569, Note_on_c, 9, 42, 0
1, 142799, Note_on_c, 9, 38, 0
1, 142800, Note_on_c, 9, 42, 108
1, 142809, Note_on_c, 9, 42, 0
1, 143040, Note_on_c, 9, 42, 108
1, 143040, Note_on_c, 9, 35, 108
1, 143049, Note_on_c, 9, 42, 0
1, 143280, Note_on_c, 9, 42, 108
1, 143289, Note_on_c, 9, 42, 0
1, 143519, Note_on_c, 9, 35, 0
1, 143520, Note_on_c, 9, 38, 108
1, 143520, Note_on_c, 9, 42, 108
1, 143529, Note_on_c, 9, 42, 0
1, 143759, Note_on_c, 9, 38, 0
1, 143760, Note_on_c, 9, 42, 108
1, 143760, Note_on_c, 9, 35, 108
1, 143769, Note_on_c, 9, 42, 0
1, 143999, Note_on_c, 9, 35, 0
1, 144000, Note_on_c, 9, 42, 108
1, 144000, Note_on_c, 9, 35, 108
1, 144009, Note_on_c, 9, 42, 0
1, 144240, Note_on_c, 9, 42, 108
1, 144249, Note_on_c, 9, 42, 0
1, 144479, Note_on_c, 9, 35, 0
1, 144480, Note_on_c, 9, 38, 108
1, 144480, Note_on_c, 9, 42, 108
1, 144489, Note_on_c, 9, 42, 0
1, 144719, Note_on_c, 9, 38, 0
1, 144720, Note_on_c, 9, 42, 108
1, 144720, Note_on_c, 9, 35, 108
1, 144729, Note_on_c, 9, 42, 0
1, 144959, Note_on_c, 9, 35, 0
1, 144960, Note_on_c, 9, 42, 108
1, 144969, Note_on_c, 9, 42, 0
1, 145200, Note_on_c, 9, 42, 108
1, 145200, Note_on_c, 9, 35, 108
1, 145209, Note_on_c, 9, 42, 0
1, 145439, Note_on_c, 9, 35, 0
1, 145440, Note_on_c, 9, 38, 108
1, 145440, Note_on_c, 9, 42, 108
1, 145449, Note_on_c, 9, 42, 0
1, 145679, Note_on_c, 9, 38, 0
1, 145680, Note_on_c, 9, 42, 108
1, 145680, Note_on_c, 9, 35, 108
1, 145689, Note_on_c, 9, 42, 0
1, 145919, Note_on_c, 9, 35, 0
1, 145920, Note_on_c, 9, 57, 108
1, 145920, Note_on_c, 9, 35, 108
1, 145929, Note_on_c, 9, 57, 0
1, 146160, Note_on_c, 9, 42, 108
1, 146169, Note_on_c, 9, 42, 0
1, 146399, Note_on_c, 9, 35, 0
1, 146400, Note_on_c, 9, 38, 108
1, 146400, Note_on_c, 9, 42, 108
1, 146409, Note_on_c, 9, 42, 0
1, 146639, Note_on_c, 9, 38, 0
1, 146640, Note_on_c, 9, 42, 108
1, 146649, Note_on_c, 9, 42, 0
1, 146880, Note_on_c, 9, 42, 108
1, 146880, Note_on_c, 9, 35, 108
1, 146889, Note_on_c, 9, 42, 0
1, 147120, Note_on_c, 9, 42, 108
1, 147129, Note_on_c, 9, 42, 0
1, 147359, Note_on_c, 9, 35, 0
1, 147360, Note_on_c, 9, 38, 108
1, 147360, Note_on_c, 9, 42, 108
1, 147369, Note_on_c, 9, 42, 0
1, 147599, Note_on_c, 9, 38, 0
1, 147600, Note_on_c, 9, 42, 108
1, 147600, Note_on_c, 9, 35, 108
1, 147609, Note_on_c, 9, 42, 0
1, 147839, Note_on_c, 9, 35, 0
1, 147840, Note_on_c, 9, 42, 108
1, 147840, Note_on_c, 9, 35, 108
1, 147849, Note_on_c, 9, 42, 0
1, 148080, Note_on_c, 9, 42, 108
1, 148089, Note_on_c, 9, 42, 0
1, 148319, Note_on_c, 9, 35, 0
1, 148320, Note_on_c, 9, 38, 108
1, 148320, Note_on_c, 9, 42, 108
1, 148329, Note_on_c, 9, 42, 0
1, 148559, Note_on_c, 9, 38, 0
1, 148560, Note_on_c, 9, 42, 108
1, 148569, Note_on_c, 9, 42, 0
1, 148800, Note_on_c, 9, 42, 108
1, 148800, Note_on_c, 9, 35, 108
1, 148809, Note_on_c, 9, 42, 0
1, 149040, Note_on_c, 9, 42, 108
1, 149049, Note_on_c, 9, 42, 0
1, 149279, Note_on_c, 9, 35, 0
1, 149280, Note_on_c, 9, 38, 108
1, 149280, Note_on_c, 9, 42, 108
1, 149289, Note_on_c, 9, 42, 0
1, 149519, Note_on_c, 9, 38, 0
1, 149520, Note_on_c, 9, 42, 108
1, 149520, Note_on_c, 9, 35, 108
1, 149529, Note_on_c, 9, 42, 0
1, 149759, Note_on_c, 9, 35, 0
1, 149760, Note_on_c, 9, 42, 108
1, 149760, Note_on_c, 9, 35, 108
1, 149769, Note_on_c, 9, 42, 0
1, 150000, Note_on_c, 9, 42, 108
1, 150009, Note_on_c, 9, 42, 0
1, 150239, Note_on_c, 9, 35, 0
1, 150240, Note_on_c, 9, 38, 108
1, 150240, Note_on_c, 9, 42, 108
1, 150249, Note_on_c, 9, 42, 0
1, 150479, Note_on_c, 9, 38, 0
1, 150480, Note_on_c, 9, 42, 108
1, 150489, Note_on_c, 9, 42, 0
1, 150720, Note_on_c, 9, 42, 108
1, 150720, Note_on_c, 9, 35, 108
1, 150729, Note_on_c, 9, 42, 0
1, 150960, Note_on_c, 9, 42, 108
1, 150969, Note_on_c, 9, 42, 0
1, 151199, Note_on_c, 9, 35, 0
1, 151200, Note_on_c, 9, 38, 108
1, 151200, Note_on_c, 9, 42, 108
1, 151209, Note_on_c, 9, 42, 0
1, 151439, Note_on_c, 9, 38, 0
1, 151440, Note_on_c, 9, 42, 108
1, 151440, Note_on_c, 9, 35, 108
1, 151449, Note_on_c, 9, 42, 0
1, 151679, Note_on_c, 9, 35, 0
1, 151680, Note_on_c, 9, 42, 108
1, 151680, Note_on_c, 9, 35, 108
1, 151689, Note_on_c, 9, 42, 0
1, 151920, Note_on_c, 9, 42, 108
1, 151929, Note_on_c, 9, 42, 0
1, 152159, Note_on_c, 9, 35, 0
1, 152160, Note_on_c, 9, 38, 108
1, 152160, Note_on_c, 9, 42, 108
1, 152169, Note_on_c, 9, 42, 0
1, 152399, Note_on_c, 9, 38, 0
1, 152400, Note_on_c, 9, 42, 108
1, 152400, Note_on_c, 9, 35, 108
1, 152409, Note_on_c, 9, 42, 0
1, 152639, Note_on_c, 9, 35, 0
1, 152640, Note_on_c, 9, 42, 108
1, 152649, Note_on_c, 9, 42, 0
1, 152880, Note_on_c, 9, 42, 108
1, 152880, Note_on_c, 9, 35, 108
1, 152889, Note_on_c, 9, 42, 0
1, 152999, Note_on_c, 9, 35, 0
1, 153000, Note_on_c, 9, 35, 108
1, 153119, Note_on_c, 9, 35, 0
1, 153120, Note_on_c, 9, 38, 108
1, 153120, Note_on_c, 9, 42, 108
1, 153129, Note_on_c, 9, 42, 0
1, 153359, Note_on_c, 9, 38, 0
1, 153360, Note_on_c, 9, 42, 108
1, 153360, Note_on_c, 9, 35, 108
1, 153369, Note_on_c, 9, 42, 0
1, 153599, Note_on_c, 9, 35, 0
1, 153600, Note_on_c, 9, 42, 108
1, 153600, Note_on_c, 9, 57, 108
1, 153600, Note_on_c, 9, 35, 108
1, 153609, Note_on_c, 9, 42, 0
1, 153609, Note_on_c, 9, 57, 0
1, 153840, Note_on_c, 9, 42, 108
1, 153849, Note_on_c, 9, 42, 0
1, 154079, Note_on_c, 9, 35, 0
1, 154080, Note_on_c, 9, 38, 108
1, 154080, Note_on_c, 9, 42, 108
1, 154089, Note_on_c, 9, 42, 0
1, 154319, Note_on_c, 9, 38, 0
1, 154320, Note_on_c, 9, 42, 108
1, 154320, Note_on_c, 9, 35, 108
1, 154329, Note_on_c, 9, 42, 0
1, 154559, Note_on_c, 9, 35, 0
1, 154560, Note_on_c, 9, 42, 108
1, 154560, Note_on_c, 9, 35, 108
1, 154569, Note_on_c, 9, 42, 0
1, 154800, Note_on_c, 9, 42, 108
1, 154809, Note_on_c, 9, 42, 0
1, 155039, Note_on_c, 9, 35, 0
1, 155040, Note_on_c, 9, 38, 108
1, 155040, Note_on_c, 9, 42, 108
1, 155049, Note_on_c, 9, 42, 0
1, 155279, Note_on_c, 9, 38, 0
1, 155280, Note_on_c, 9, 42, 108
1, 155280, Note_on_c, 9, 35, 108
1, 155289, Note_on_c, 9, 42, 0
1, 155519, Note_on_c, 9, 35, 0
1, 155520, Note_on_c, 9, 42, 108
1, 155520, Note_on_c, 9, 35, 108
1, 155529, Note_on_c, 9, 42, 0
1, 155760, Note_on_c, 9, 42, 108
1, 155769, Note_on_c, 9, 42, 0
1, 155999, Note_on_c, 9, 35, 0
1, 156000, Note_on_c, 9, 38, 108
1, 156000, Note_on_c, 9, 42, 108
1, 156009, Note_on_c, 9, 42, 0
1, 156239, Note_on_c, 9, 38, 0
1, 156240, Note_on_c, 9, 42, 108
1, 156240, Note_on_c, 9, 35, 108
1, 156249, Note_on_c, 9, 42, 0
1, 156479, Note_on_c, 9, 35, 0
1, 156480, Note_on_c, 9, 42, 108
1, 156480, Note_on_c, 9, 35, 108
1, 156489, Note_on_c, 9, 42, 0
1, 156720, Note_on_c, 9, 38, 108
1, 156959, Note_on_c, 9, 35, 0
1, 156959, Note_on_c, 9, 38, 0
1, 156960, Note_on_c, 9, 38, 108
1, 157200, Note_on_c, 9, 35, 108
1, 157439, Note_on_c, 9, 38, 0
1, 157439, Note_on_c, 9, 35, 0
1, 157440, Note_on_c, 9, 42, 108
1, 157440, Note_on_c, 9, 57, 108
1, 157440, Note_on_c, 9, 35, 108
1, 157449, Note_on_c, 9, 42, 0
1, 157449, Note_on_c, 9, 57, 0
1, 157680, Note_on_c, 9, 42, 108
1, 157689, Note_on_c, 9, 42, 0
1, 157919, Note_on_c, 9, 35, 0
1, 157920, Note_on_c, 9, 42, 108
1, 157929, Note_on_c, 9, 42, 0
1, 158160, Note_on_c, 9, 42, 108
1, 158169, Note_on_c, 9, 42, 0
1, 158400, Note_on_c, 9, 42, 108
1, 158409, Note_on_c, 9, 42, 0
1, 158640, Note_on_c, 9, 42, 108
1, 158649, Note_on_c, 9, 42, 0
1, 158880, Note_on_c, 9, 42, 108
1, 158889, Note_on_c, 9, 42, 0
1, 159120, Note_on_c, 9, 42, 108
1, 159129, Note_on_c, 9, 42, 0
1, 159360, Note_on_c, 9, 42, 108
1, 159369, Note_on_c, 9, 42, 0
1, 159600, Note_on_c, 9, 42, 108
1, 159609, Note_on_c, 9, 42, 0
1, 159840, Note_on_c, 9, 42, 108
1, 159849, Note_on_c, 9, 42, 0
1, 160080, Note_on_c, 9, 42, 108
1, 160089, Note_on_c, 9, 42, 0
1, 160320, Note_on_c, 9, 42, 108
1, 160329, Note_on_c, 9, 42, 0
1, 160560, Note_on_c, 9, 42, 108
1, 160569, Note_on_c, 9, 42, 0
1, 160800, Note_on_c, 9, 42, 108
1, 160809, Note_on_c, 9, 42, 0
1, 161040, Note_on_c, 9, 42, 108
1, 161049, Note_on_c, 9, 42, 0
1, 161280, Note_on_c, 9, 42, 108
1, 161280, Note_on_c, 9, 35, 108
1, 161289, Note_on_c, 9, 42, 0
1, 161520, Note_on_c, 9, 42, 108
1, 161529, Note_on_c, 9, 42, 0
1, 161759, Note_on_c, 9, 35, 0
1, 161760, Note_on_c, 9, 38, 108
1, 161760, Note_on_c, 9, 42, 108
1, 161769, Note_on_c, 9, 42, 0
1, 161999, Note_on_c, 9, 38, 0
1, 162000, Note_on_c, 9, 42, 108
1, 162009, Note_on_c, 9, 42, 0
1, 162240, Note_on_c, 9, 42, 108
1, 162249, Note_on_c, 9, 42, 0
1, 162480, Note_on_c, 9, 42, 108
1, 162480, Note_on_c, 9, 35, 108
1, 162489, Note_on_c, 9, 42, 0
1, 162719, Note_on_c, 9, 35, 0
1, 162720, Note_on_c, 9, 38, 108
1, 162720, Note_on_c, 9, 42, 108
1, 162729, Note_on_c, 9, 42, 0
1, 162959, Note_on_c, 9, 38, 0
1, 162960, Note_on_c, 9, 42, 108
1, 162969, Note_on_c, 9, 42, 0
1, 163200, Note_on_c, 9, 42, 108
1, 163209, Note_on_c, 9, 42, 0
1, 163440, Note_on_c, 9, 42, 108
1, 163440, Note_on_c, 9, 35, 108
1, 163449, Note_on_c, 9, 42, 0
1, 163679, Note_on_c, 9, 35, 0
1, 163680, Note_on_c, 9, 38, 108
1, 163680, Note_on_c, 9, 42, 108
1, 163689, Note_on_c, 9, 42, 0
1, 163919, Note_on_c, 9, 38, 0
1, 163920, Note_on_c, 9, 42, 108
1, 163920, Note_on_c, 9, 35, 108
1, 163929, Note_on_c, 9, 42, 0
1, 164159, Note_on_c, 9, 35, 0
1, 164160, Note_on_c, 9, 42, 108
1, 164169, Note_on_c, 9, 42, 0
1, 164400, Note_on_c, 9, 42, 108
1, 164400, Note_on_c, 9, 35, 108
1, 164409, Note_on_c, 9, 42, 0
1, 164639, Note_on_c, 9, 35, 0
1, 164640, Note_on_c, 9, 38, 108
1, 164640, Note_on_c, 9, 42, 108
1, 164649, Note_on_c, 9, 42, 0
1, 164879, Note_on_c, 9, 38, 0
1, 164880, Note_on_c, 9, 42, 108
1, 164880, Note_on_c, 9, 57, 108
1, 164880, Note_on_c, 9, 35, 108
1, 164889, Note_on_c, 9, 42, 0
1, 164889, Note_on_c, 9, 57, 0
1, 165119, Note_on_c, 9, 35, 0
1, 165120, Note_on_c, 9, 42, 108
1, 165129, Note_on_c, 9, 42, 0
1, 165360, Note_on_c, 9, 42, 108
1, 165369, Note_on_c, 9, 42, 0
1, 165600, Note_on_c, 9, 38, 108
1, 165600, Note_on_c, 9, 42, 108
1, 165609, Note_on_c, 9, 42, 0
1, 165839, Note_on_c, 9, 38, 0
1, 165840, Note_on_c, 9, 42, 108
1, 165849, Note_on_c, 9, 42, 0
1, 166080, Note_on_c, 9, 42, 108
1, 166089, Note_on_c, 9, 42, 0
1, 166320, Note_on_c, 9, 42, 108
1, 166320, Note_on_c, 9, 35, 108
1, 166329, Note_on_c, 9, 42, 0
1, 166559, Note_on_c, 9, 35, 0
1, 166560, Note_on_c, 9, 38, 108
1, 166560, Note_on_c, 9, 42, 108
1, 166569, Note_on_c, 9, 42, 0
1, 166799, Note_on_c, 9, 38, 0
1, 166800, Note_on_c, 9, 42, 108
1, 166809, Note_on_c, 9, 42, 0
1, 167040, Note_on_c, 9, 42, 108
1, 167049, Note_on_c, 9, 42, 0
1, 167280, Note_on_c, 9, 42, 108
1, 167280, Note_on_c, 9, 35, 108
1, 167289, Note_on_c, 9, 42, 0
1, 167519, Note_on_c, 9, 35, 0
1, 167520, Note_on_c, 9, 38, 108
1, 167520, Note_on_c, 9, 42, 108
1, 167529, Note_on_c, 9, 42, 0
1, 167759, Note_on_c, 9, 38, 0
1, 167760, Note_on_c, 9, 42, 108
1, 167760, Note_on_c, 9, 35, 108
1, 167769, Note_on_c, 9, 42, 0
1, 167999, Note_on_c, 9, 35, 0
1, 168000, Note_on_c, 9, 42, 108
1, 168009, Note_on_c, 9, 42, 0
1, 168240, Note_on_c, 9, 42, 108
1, 168240, Note_on_c, 9, 35, 108
1, 168249, Note_on_c, 9, 42, 0
1, 168479, Note_on_c, 9, 35, 0
1, 168480, Note_on_c, 9, 38, 108
1, 168480, Note_on_c, 9, 42, 108
1, 168489, Note_on_c, 9, 42, 0
1, 168719, Note_on_c, 9, 38, 0
1, 168720, Note_on_c, 9, 42, 108
1, 168720, Note_on_c, 9, 57, 108
1, 168720, Note_on_c, 9, 35, 108
1, 168729, Note_on_c, 9, 42, 0
1, 168729, Note_on_c, 9, 57, 0
1, 168959, Note_on_c, 9, 35, 0
1, 168960, Note_on_c, 9, 42, 108
1, 168969, Note_on_c, 9, 42, 0
1, 169200, Note_on_c, 9, 42, 108
1, 169200, Note_on_c, 9, 35, 108
1, 169209, Note_on_c, 9, 42, 0
1, 169439, Note_on_c, 9, 35, 0
1, 169440, Note_on_c, 9, 38, 108
1, 169440, Note_on_c, 9, 42, 108
1, 169449, Note_on_c, 9, 42, 0
1, 169679, Note_on_c, 9, 38, 0
1, 169680, Note_on_c, 9, 42, 108
1, 169689, Note_on_c, 9, 42, 0
1, 169920, Note_on_c, 9, 42, 108
1, 169929, Note_on_c, 9, 42, 0
1, 170160, Note_on_c, 9, 42, 108
1, 170160, Note_on_c, 9, 35, 108
1, 170169, Note_on_c, 9, 42, 0
1, 170399, Note_on_c, 9, 35, 0
1, 170400, Note_on_c, 9, 38, 108
1, 170400, Note_on_c, 9, 42, 108
1, 170409, Note_on_c, 9, 42, 0
1, 170639, Note_on_c, 9, 38, 0
1, 170640, Note_on_c, 9, 42, 108
1, 170640, Note_on_c, 9, 35, 108
1, 170649, Note_on_c, 9, 42, 0
1, 170879, Note_on_c, 9, 35, 0
1, 170880, Note_on_c, 9, 38, 108
1, 170880, Note_on_c, 9, 43, 108
1, 171359, Note_on_c, 9, 38, 0
1, 171359, Note_on_c, 9, 43, 0
1, 171360, Note_on_c, 9, 38, 108
1, 171360, Note_on_c, 9, 43, 108
1, 171839, Note_on_c, 9, 38, 0
1, 171839, Note_on_c, 9, 43, 0
1, 171840, Note_on_c, 9, 38, 108
1, 171959, Note_on_c, 9, 38, 0
1, 171960, Note_on_c, 9, 38, 108
1, 172080, Note_on_c, 9, 35, 108
1, 172319, Note_on_c, 9, 38, 0
1, 172319, Note_on_c, 9, 35, 0
1, 172320, Note_on_c, 9, 38, 108
1, 172439, Note_on_c, 9, 38, 0
1, 172440, Note_on_c, 9, 38, 108
1, 172560, Note_on_c, 9, 35, 108
1, 172799, Note_on_c, 9, 38, 0
1, 172799, Note_on_c, 9, 35, 0
1, 172800, Note_on_c, 9, 55, 108
1, 172800, Note_on_c, 9, 35, 108
1, 172809, Note_on_c, 9, 55, 0
1, 173040, Note_on_c, 9, 59, 108
1, 173049, Note_on_c, 9, 59, 0
1, 173279, Note_on_c, 9, 35, 0
1, 173280, Note_on_c, 9, 38, 108
1, 173280, Note_on_c, 9, 59, 108
1, 173289, Note_on_c, 9, 59, 0
1, 173519, Note_on_c, 9, 38, 0
1, 173520, Note_on_c, 9, 59, 108
1, 173520, Note_on_c, 9, 35, 108
1, 173529, Note_on_c, 9, 59, 0
1, 173759, Note_on_c, 9, 35, 0
1, 173760, Note_on_c, 9, 59, 108
1, 173760, Note_on_c, 9, 35, 108
1, 173769, Note_on_c, 9, 59, 0
1, 174000, Note_on_c, 9, 59, 108
1, 174009, Note_on_c, 9, 59, 0
1, 174239, Note_on_c, 9, 35, 0
1, 174240, Note_on_c, 9, 38, 108
1, 174240, Note_on_c, 9, 59, 108
1, 174240, Note_on_c, 9, 57, 108
1, 174249, Note_on_c, 9, 59, 0
1, 174249, Note_on_c, 9, 57, 0
1, 174479, Note_on_c, 9, 38, 0
1, 174480, Note_on_c, 9, 59, 108
1, 174489, Note_on_c, 9, 59, 0
1, 174720, Note_on_c, 9, 59, 108
1, 174720, Note_on_c, 9, 35, 108
1, 174729, Note_on_c, 9, 59, 0
1, 174960, Note_on_c, 9, 59, 108
1, 174969, Note_on_c, 9, 59, 0
1, 175199, Note_on_c, 9, 35, 0
1, 175200, Note_on_c, 9, 38, 108
1, 175200, Note_on_c, 9, 59, 108
1, 175209, Note_on_c, 9, 59, 0
1, 175439, Note_on_c, 9, 38, 0
1, 175440, Note_on_c, 9, 59, 108
1, 175440, Note_on_c, 9, 35, 108
1, 175449, Note_on_c, 9, 59, 0
1, 175679, Note_on_c, 9, 35, 0
1, 175680, Note_on_c, 9, 59, 108
1, 175680, Note_on_c, 9, 35, 108
1, 175689, Note_on_c, 9, 59, 0
1, 175920, Note_on_c, 9, 59, 108
1, 175929, Note_on_c, 9, 59, 0
1, 176159, Note_on_c, 9, 35, 0
1, 176160, Note_on_c, 9, 38, 108
1, 176160, Note_on_c, 9, 59, 108
1, 176160, Note_on_c, 9, 55, 108
1, 176169, Note_on_c, 9, 59, 0
1, 176169, Note_on_c, 9, 55, 0
1, 176399, Note_on_c, 9, 38, 0
1, 176400, Note_on_c, 9, 59, 108
1, 176409, Note_on_c, 9, 59, 0
1, 176640, Note_on_c, 9, 59, 108
1, 176640, Note_on_c, 9, 55, 108
1, 176640, Note_on_c, 9, 35, 108
1, 176649, Note_on_c, 9, 59, 0
1, 176649, Note_on_c, 9, 55, 0
1, 176880, Note_on_c, 9, 59, 108
1, 176889, Note_on_c, 9, 59, 0
1, 177119, Note_on_c, 9, 35, 0
1, 177120, Note_on_c, 9, 38, 108
1, 177120, Note_on_c, 9, 59, 108
1, 177129, Note_on_c, 9, 59, 0
1, 177359, Note_on_c, 9, 38, 0
1, 177360, Note_on_c, 9, 59, 108
1, 177360, Note_on_c, 9, 35, 108
1, 177369, Note_on_c, 9, 59, 0
1, 177599, Note_on_c, 9, 35, 0
1, 177600, Note_on_c, 9, 59, 108
1, 177600, Note_on_c, 9, 35, 108
1, 177609, Note_on_c, 9, 59, 0
1, 177840, Note_on_c, 9, 59, 108
1, 177849, Note_on_c, 9, 59, 0
1, 178079, Note_on_c, 9, 35, 0
1, 178080, Note_on_c, 9, 38, 108
1, 178080, Note_on_c, 9, 59, 108
1, 178080, Note_on_c, 9, 57, 108
1, 178089, Note_on_c, 9, 59, 0
1, 178089, Note_on_c, 9, 57, 0
1, 178319, Note_on_c, 9, 38, 0
1, 178320, Note_on_c, 9, 59, 108
1, 178329, Note_on_c, 9, 59, 0
1, 178560, Note_on_c, 9, 59, 108
1, 178560, Note_on_c, 9, 35, 108
1, 178569, Note_on_c, 9, 59, 0
1, 178800, Note_on_c, 9, 59, 108
1, 178809, Note_on_c, 9, 59, 0
1, 179039, Note_on_c, 9, 35, 0
1, 179040, Note_on_c, 9, 38, 108
1, 179040, Note_on_c, 9, 59, 108
1, 179049, Note_on_c, 9, 59, 0
1, 179279, Note_on_c, 9, 38, 0
1, 179280, Note_on_c, 9, 59, 108
1, 179280, Note_on_c, 9, 35, 108
1, 179289, Note_on_c, 9, 59, 0
1, 179519, Note_on_c, 9, 35, 0
1, 179520, Note_on_c, 9, 59, 108
1, 179520, Note_on_c, 9, 35, 108
1, 179529, Note_on_c, 9, 59, 0
1, 179760, Note_on_c, 9, 59, 108
1, 179769, Note_on_c, 9, 59, 0
1, 179999, Note_on_c, 9, 35, 0
1, 180000, Note_on_c, 9, 38, 108
1, 180000, Note_on_c, 9, 59, 108
1, 180009, Note_on_c, 9, 59, 0
1, 180239, Note_on_c, 9, 38, 0
1, 180240, Note_on_c, 9, 59, 108
1, 180249, Note_on_c, 9, 59, 0
1, 180480, Note_on_c, 9, 55, 108
1, 180480, Note_on_c, 9, 35, 108
1, 180489, Note_on_c, 9, 55, 0
1, 180720, Note_on_c, 9, 59, 108
1, 180729, Note_on_c, 9, 59, 0
1, 180959, Note_on_c, 9, 35, 0
1, 180960, Note_on_c, 9, 38, 108
1, 180960, Note_on_c, 9, 59, 108
1, 180969, Note_on_c, 9, 59, 0
1, 181199, Note_on_c, 9, 38, 0
1, 181200, Note_on_c, 9, 59, 108
1, 181200, Note_on_c, 9, 35, 108
1, 181209, Note_on_c, 9, 59, 0
1, 181439, Note_on_c, 9, 35, 0
1, 181440, Note_on_c, 9, 59, 108
1, 181440, Note_on_c, 9, 35, 108
1, 181449, Note_on_c, 9, 59, 0
1, 181680, Note_on_c, 9, 59, 108
1, 181689, Note_on_c, 9, 59, 0
1, 181919, Note_on_c, 9, 35, 0
1, 181920, Note_on_c, 9, 38, 108
1, 181920, Note_on_c, 9, 59, 108
1, 181920, Note_on_c, 9, 57, 108
1, 181929, Note_on_c, 9, 59, 0
1, 181929, Note_on_c, 9, 57, 0
1, 182159, Note_on_c, 9, 38, 0
1, 182160, Note_on_c, 9, 59, 108
1, 182169, Note_on_c, 9, 59, 0
1, 182400, Note_on_c, 9, 59, 108
1, 182400, Note_on_c, 9, 35, 108
1, 182409, Note_on_c, 9, 59, 0
1, 182640, Note_on_c, 9, 59, 108
1, 182649, Note_on_c, 9, 59, 0
1, 182879, Note_on_c, 9, 35, 0
1, 182880, Note_on_c, 9, 38, 108
1, 182880, Note_on_c, 9, 59, 108
1, 182889, Note_on_c, 9, 59, 0
1, 183119, Note_on_c, 9, 38, 0
1, 183120, Note_on_c, 9, 59, 108
1, 183120, Note_on_c, 9, 35, 108
1, 183129, Note_on_c, 9, 59, 0
1, 183359, Note_on_c, 9, 35, 0
1, 183360, Note_on_c, 9, 59, 108
1, 183360, Note_on_c, 9, 35, 108
1, 183369, Note_on_c, 9, 59, 0
1, 183600, Note_on_c, 9, 59, 108
1, 183609, Note_on_c, 9, 59, 0
1, 183839, Note_on_c, 9, 35, 0
1, 183840, Note_on_c, 9, 38, 108
1, 183840, Note_on_c, 9, 59, 108
1, 183840, Note_on_c, 9, 55, 108
1, 183849, Note_on_c, 9, 59, 0
1, 183849, Note_on_c, 9, 55, 0
1, 184079, Note_on_c, 9, 38, 0
1, 184080, Note_on_c, 9, 59, 108
1, 184089, Note_on_c, 9, 59, 0
1, 184320, Note_on_c, 9, 59, 108
1, 184320, Note_on_c, 9, 55, 108
1, 184320, Note_on_c, 9, 35, 108
1, 184329, Note_on_c, 9, 59, 0
1, 184329, Note_on_c, 9, 55, 0
1, 184560, Note_on_c, 9, 59, 108
1, 184569, Note_on_c, 9, 59, 0
1, 184799, Note_on_c, 9, 35, 0
1, 184800, Note_on_c, 9, 38, 108
1, 184800, Note_on_c, 9, 59, 108
1, 184809, Note_on_c, 9, 59, 0
1, 185039, Note_on_c, 9, 38, 0
1, 185040, Note_on_c, 9, 59, 108
1, 185040, Note_on_c, 9, 35, 108
1, 185049, Note_on_c, 9, 59, 0
1, 185279, Note_on_c, 9, 35, 0
1, 185280, Note_on_c, 9, 59, 108
1, 185280, Note_on_c, 9, 35, 108
1, 185289, Note_on_c, 9, 59, 0
1, 185520, Note_on_c, 9, 59, 108
1, 185529, Note_on_c, 9, 59, 0
1, 185759, Note_on_c, 9, 35, 0
1, 185760, Note_on_c, 9, 38, 108
1, 185760, Note_on_c, 9, 59, 108
1, 185760, Note_on_c, 9, 57, 108
1, 185769, Note_on_c, 9, 59, 0
1, 185769, Note_on_c, 9, 57, 0
1, 185999, Note_on_c, 9, 38, 0
1, 186000, Note_on_c, 9, 59, 108
1, 186009, Note_on_c, 9, 59, 0
1, 186240, Note_on_c, 9, 59, 108
1, 186240, Note_on_c, 9, 35, 108
1, 186249, Note_on_c, 9, 59, 0
1, 186480, Note_on_c, 9, 59, 108
1, 186489, Note_on_c, 9, 59, 0
1, 186719, Note_on_c, 9, 35, 0
1, 186720, Note_on_c, 9, 38, 108
1, 186720, Note_on_c, 9, 59, 108
1, 186729, Note_on_c, 9, 59, 0
1, 186959, Note_on_c, 9, 38, 0
1, 186960, Note_on_c, 9, 59, 108
1, 186960, Note_on_c, 9, 35, 108
1, 186969, Note_on_c, 9, 59, 0
1, 187199, Note_on_c, 9, 35, 0
1, 187200, Note_on_c, 9, 59, 108
1, 187200, Note_on_c, 9, 35, 108
1, 187209, Note_on_c, 9, 59, 0
1, 187440, Note_on_c, 9, 59, 108
1, 187449, Note_on_c, 9, 59, 0
1, 187679, Note_on_c, 9, 35, 0
1, 187680, Note_on_c, 9, 38, 108
1, 187680, Note_on_c, 9, 59, 108
1, 187689, Note_on_c, 9, 59, 0
1, 187919, Note_on_c, 9, 38, 0
1, 187920, Note_on_c, 9, 59, 108
1, 187929, Note_on_c, 9, 59, 0
1, 188160, Note_on_c, 9, 55, 108
1, 188160, Note_on_c, 9, 35, 108
1, 188169, Note_on_c, 9, 55, 0
1, 188400, Note_on_c, 9, 59, 108
1, 188409, Note_on_c, 9, 59, 0
1, 188639, Note_on_c, 9, 35, 0
1, 188640, Note_on_c, 9, 38, 108
1, 188640, Note_on_c, 9, 59, 108
1, 188649, Note_on_c, 9, 59, 0
1, 188879, Note_on_c, 9, 38, 0
1, 188880, Note_on_c, 9, 59, 108
1, 188880, Note_on_c, 9, 35, 108
1, 188889, Note_on_c, 9, 59, 0
1, 189119, Note_on_c, 9, 35, 0
1, 189120, Note_on_c, 9, 59, 108
1, 189120, Note_on_c, 9, 35, 108
1, 189129, Note_on_c, 9, 59, 0
1, 189360, Note_on_c, 9, 59, 108
1, 189369, Note_on_c, 9, 59, 0
1, 189599, Note_on_c, 9, 35, 0
1, 189600, Note_on_c, 9, 38, 108
1, 189600, Note_on_c, 9, 59, 108
1, 189600, Note_on_c, 9, 57, 108
1, 189609, Note_on_c, 9, 59, 0
1, 189609, Note_on_c, 9, 57, 0
1, 189839, Note_on_c, 9, 38, 0
1, 189840, Note_on_c, 9, 59, 108
1, 189849, Note_on_c, 9, 59, 0
1, 190080, Note_on_c, 9, 59, 108
1, 190080, Note_on_c, 9, 35, 108
1, 190089, Note_on_c, 9, 59, 0
1, 190320, Note_on_c, 9, 59, 108
1, 190329, Note_on_c, 9, 59, 0
1, 190559, Note_on_c, 9, 35, 0
1, 190560, Note_on_c, 9, 38, 108
1, 190560, Note_on_c, 9, 59, 108
1, 190569, Note_on_c, 9, 59, 0
1, 190799, Note_on_c, 9, 38, 0
1, 190800, Note_on_c, 9, 59, 108
1, 190800, Note_on_c, 9, 35, 108
1, 190809, Note_on_c, 9, 59, 0
1, 191039, Note_on_c, 9, 35, 0
1, 191040, Note_on_c, 9, 59, 108
1, 191040, Note_on_c, 9, 35, 108
1, 191049, Note_on_c, 9, 59, 0
1, 191280, Note_on_c, 9, 59, 108
1, 191289, Note_on_c, 9, 59, 0
1, 191519, Note_on_c, 9, 35, 0
1, 191520, Note_on_c, 9, 38, 108
1, 191520, Note_on_c, 9, 59, 108
1, 191520, Note_on_c, 9, 55, 108
1, 191529, Note_on_c, 9, 59, 0
1, 191529, Note_on_c, 9, 55, 0
1, 191759, Note_on_c, 9, 38, 0
1, 191760, Note_on_c, 9, 59, 108
1, 191769, Note_on_c, 9, 59, 0
1, 192000, Note_on_c, 9, 59, 108
1, 192000, Note_on_c, 9, 55, 108
1, 192000, Note_on_c, 9, 35, 108
1, 192009, Note_on_c, 9, 59, 0
1, 192009, Note_on_c, 9, 55, 0
1, 192240, Note_on_c, 9, 59, 108
1, 192249, Note_on_c, 9, 59, 0
1, 192479, Note_on_c, 9, 35, 0
1, 192480, Note_on_c, 9, 38, 108
1, 192480, Note_on_c, 9, 59, 108
1, 192489, Note_on_c, 9, 59, 0
1, 192719, Note_on_c, 9, 38, 0
1, 192720, Note_on_c, 9, 59, 108
1, 192720, Note_on_c, 9, 35, 108
1, 192729, Note_on_c, 9, 59, 0
1, 192959, Note_on_c, 9, 35, 0
1, 192960, Note_on_c, 9, 59, 108
1, 192960, Note_on_c, 9, 35, 108
1, 192969, Note_on_c, 9, 59, 0
1, 193200, Note_on_c, 9, 59, 108
1, 193209, Note_on_c, 9, 59, 0
1, 193439, Note_on_c, 9, 35, 0
1, 193440, Note_on_c, 9, 38, 108
1, 193440, Note_on_c, 9, 59, 108
1, 193440, Note_on_c, 9, 57, 108
1, 193449, Note_on_c, 9, 59, 0
1, 193449, Note_on_c, 9, 57, 0
1, 193679, Note_on_c, 9, 38, 0
1, 193680, Note_on_c, 9, 59, 108
1, 193689, Note_on_c, 9, 59, 0
1, 193920, Note_on_c, 9, 59, 108
1, 193920, Note_on_c, 9, 35, 108
1, 193929, Note_on_c, 9, 59, 0
1, 194160, Note_on_c, 9, 59, 108
1, 194169, Note_on_c, 9, 59, 0
1, 194399, Note_on_c, 9, 35, 0
1, 194400, Note_on_c, 9, 38, 108
1, 194400, Note_on_c, 9, 59, 108
1, 194409, Note_on_c, 9, 59, 0
1, 194639, Note_on_c, 9, 38, 0
1, 194640, Note_on_c, 9, 59, 108
1, 194640, Note_on_c, 9, 35, 108
1, 194649, Note_on_c, 9, 59, 0
1, 194879, Note_on_c, 9, 35, 0
1, 194880, Note_on_c, 9, 59, 108
1, 194880, Note_on_c, 9, 35, 108
1, 194889, Note_on_c, 9, 59, 0
1, 195120, Note_on_c, 9, 59, 108
1, 195129, Note_on_c, 9, 59, 0
1, 195359, Note_on_c, 9, 35, 0
1, 195360, Note_on_c, 9, 38, 108
1, 195360, Note_on_c, 9, 59, 108
1, 195369, Note_on_c, 9, 59, 0
1, 195599, Note_on_c, 9, 38, 0
1, 195600, Note_on_c, 9, 59, 108
1, 195609, Note_on_c, 9, 59, 0
1, 195840, Note_on_c, 9, 57, 108
1, 195840, Note_on_c, 9, 35, 108
1, 195849, Note_on_c, 9, 57, 0
1, 196080, Note_on_c, 9, 42, 108
1, 196089, Note_on_c, 9, 42, 0
1, 196319, Note_on_c, 9, 35, 0
1, 196320, Note_on_c, 9, 38, 108
1, 196320, Note_on_c, 9, 42, 108
1, 196329, Note_on_c, 9, 42, 0
1, 196559, Note_on_c, 9, 38, 0
1, 196560, Note_on_c, 9, 42, 108
1, 196560, Note_on_c, 9, 35, 108
1, 196569, Note_on_c, 9, 42, 0
1, 196799, Note_on_c, 9, 35, 0
1, 196800, Note_on_c, 9, 42, 108
1, 196800, Note_on_c, 9, 35, 108
1, 196809, Note_on_c, 9, 42, 0
1, 197040, Note_on_c, 9, 42, 108
1, 197049, Note_on_c, 9, 42, 0
1, 197279, Note_on_c, 9, 35, 0
1, 197280, Note_on_c, 9, 38, 108
1, 197280, Note_on_c, 9, 42, 108
1, 197289, Note_on_c, 9, 42, 0
1, 197519, Note_on_c, 9, 38, 0
1, 197520, Note_on_c, 9, 42, 108
1, 197529, Note_on_c, 9, 42, 0
1, 197760, Note_on_c, 9, 42, 108
1, 197760, Note_on_c, 9, 35, 108
1, 197769, Note_on_c, 9, 42, 0
1, 198000, Note_on_c, 9, 42, 108
1, 198009, Note_on_c, 9, 42, 0
1, 198239, Note_on_c, 9, 35, 0
1, 198240, Note_on_c, 9, 38, 108
1, 198240, Note_on_c, 9, 42, 108
1, 198249, Note_on_c, 9, 42, 0
1, 198479, Note_on_c, 9, 38, 0
1, 198480, Note_on_c, 9, 42, 108
1, 198480, Note_on_c, 9, 35, 108
1, 198489, Note_on_c, 9, 42, 0
1, 198719, Note_on_c, 9, 35, 0
1, 198720, Note_on_c, 9, 42, 108
1, 198729, Note_on_c, 9, 42, 0
1, 198960, Note_on_c, 9, 42, 108
1, 198960, Note_on_c, 9, 35, 108
1, 198969, Note_on_c, 9, 42, 0
1, 199199, Note_on_c, 9, 35, 0
1, 199200, Note_on_c, 9, 38, 108
1, 199200, Note_on_c, 9, 42, 108
1, 199200, Note_on_c, 9, 55, 108
1, 199200, Note_on_c, 9, 43, 108
1, 199209, Note_on_c, 9, 42, 0
1, 199209, Note_on_c, 9, 55, 0
1, 199439, Note_on_c, 9, 38, 0
1, 199440, Note_on_c, 9, 42, 108
1, 199449, Note_on_c, 9, 42, 0
1, 199679, Note_on_c, 9, 43, 0
1, 199680, Note_on_c, 9, 57, 108
1, 199680, Note_on_c, 9, 35, 108
1, 199689, Note_on_c, 9, 57, 0
1, 199920, Note_on_c, 9, 42, 108
1, 199929, Note_on_c, 9, 42, 0
1, 200159, Note_on_c, 9, 35, 0
1, 200160, Note_on_c, 9, 38, 108
1, 200160, Note_on_c, 9, 42, 108
1, 200169, Note_on_c, 9, 42, 0
1, 200399, Note_on_c, 9, 38, 0
1, 200400, Note_on_c, 9, 42, 108
1, 200400, Note_on_c, 9, 35, 108
1, 200409, Note_on_c, 9, 42, 0
1, 200639, Note_on_c, 9, 35, 0
1, 200640, Note_on_c, 9, 42, 108
1, 200640, Note_on_c, 9, 35, 108
1, 200649, Note_on_c, 9, 42, 0
1, 200880, Note_on_c, 9, 42, 108
1, 200889, Note_on_c, 9, 42, 0
1, 201119, Note_on_c, 9, 35, 0
1, 201120, Note_on_c, 9, 38, 108
1, 201120, Note_on_c, 9, 42, 108
1, 201129, Note_on_c, 9, 42, 0
1, 201359, Note_on_c, 9, 38, 0
1, 201360, Note_on_c, 9, 42, 108
1, 201369, Note_on_c, 9, 42, 0
1, 201600, Note_on_c, 9, 42, 108
1, 201600, Note_on_c, 9, 35, 108
1, 201609, Note_on_c, 9, 42, 0
1, 201840, Note_on_c, 9, 42, 108
1, 201849, Note_on_c, 9, 42, 0
1, 202079, Note_on_c, 9, 35, 0
1, 202080, Note_on_c, 9, 38, 108
1, 202080, Note_on_c, 9, 42, 108
1, 202089, Note_on_c, 9, 42, 0
1, 202319, Note_on_c, 9, 38, 0
1, 202320, Note_on_c, 9, 42, 108
1, 202320, Note_on_c, 9, 35, 108
1, 202329, Note_on_c, 9, 42, 0
1, 202559, Note_on_c, 9, 35, 0
1, 202560, Note_on_c, 9, 42, 108
1, 202569, Note_on_c, 9, 42, 0
1, 202800, Note_on_c, 9, 42, 108
1, 202800, Note_on_c, 9, 35, 108
1, 202809, Note_on_c, 9, 42, 0
1, 203039, Note_on_c, 9, 35, 0
1, 203040, Note_on_c, 9, 38, 108
1, 203040, Note_on_c, 9, 42, 108
1, 203040, Note_on_c, 9, 55, 108
1, 203040, Note_on_c, 9, 43, 108
1, 203049, Note_on_c, 9, 42, 0
1, 203049, Note_on_c, 9, 55, 0
1, 203279, Note_on_c, 9, 38, 0
1, 203280, Note_on_c, 9, 42, 108
1, 203289, Note_on_c, 9, 42, 0
1, 203519, Note_on_c, 9, 43, 0
1, 203520, Note_on_c, 9, 57, 108
1, 203520, Note_on_c, 9, 35, 108
1, 203529, Note_on_c, 9, 57, 0
1, 203760, Note_on_c, 9, 42, 108
1, 203769, Note_on_c, 9, 42, 0
1, 203999, Note_on_c, 9, 35, 0
1, 204000, Note_on_c, 9, 38, 108
1, 204000, Note_on_c, 9, 42, 108
1, 204009, Note_on_c, 9, 42, 0
1, 204239, Note_on_c, 9, 38, 0
1, 204240, Note_on_c, 9, 42, 108
1, 204240, Note_on_c, 9, 35, 108
1, 204249, Note_on_c, 9, 42, 0
1, 204479, Note_on_c, 9, 35, 0
1, 204480, Note_on_c, 9, 42, 108
1, 204480, Note_on_c, 9, 35, 108
1, 204489, Note_on_c, 9, 42, 0
1, 204720, Note_on_c, 9, 42, 108
1, 204729, Note_on_c, 9, 42, 0
1, 204959, Note_on_c, 9, 35, 0
1, 204960, Note_on_c, 9, 38, 108
1, 204960, Note_on_c, 9, 42, 108
1, 204969, Note_on_c, 9, 42, 0
1, 205199, Note_on_c, 9, 38, 0
1, 205200, Note_on_c, 9, 42, 108
1, 205209, Note_on_c, 9, 42, 0
1, 205440, Note_on_c, 9, 42, 108
1, 205440, Note_on_c, 9, 35, 108
1, 205449, Note_on_c, 9, 42, 0
1, 205680, Note_on_c, 9, 42, 108
1, 205689, Note_on_c, 9, 42, 0
1, 205919, Note_on_c, 9, 35, 0
1, 205920, Note_on_c, 9, 38, 108
1, 205920, Note_on_c, 9, 42, 108
1, 205929, Note_on_c, 9, 42, 0
1, 206159, Note_on_c, 9, 38, 0
1, 206160, Note_on_c, 9, 42, 108
1, 206160, Note_on_c, 9, 35, 108
1, 206169, Note_on_c, 9, 42, 0
1, 206399, Note_on_c, 9, 35, 0
1, 206400, Note_on_c, 9, 42, 108
1, 206409, Note_on_c, 9, 42, 0
1, 206640, Note_on_c, 9, 42, 108
1, 206640, Note_on_c, 9, 35, 108
1, 206649, Note_on_c, 9, 42, 0
1, 206879, Note_on_c, 9, 35, 0
1, 206880, Note_on_c, 9, 38, 108
1, 206880, Note_on_c, 9, 42, 108
1, 206880, Note_on_c, 9, 55, 108
1, 206880, Note_on_c, 9, 43, 108
1, 206889, Note_on_c, 9, 42, 0
1, 206889, Note_on_c, 9, 55, 0
1, 207119, Note_on_c, 9, 38, 0
1, 207120, Note_on_c, 9, 42, 108
1, 207129, Note_on_c, 9, 42, 0
1, 207359, Note_on_c, 9, 43, 0
1, 207360, Note_on_c, 9, 57, 108
1, 207360, Note_on_c, 9, 35, 108
1, 207369, Note_on_c, 9, 57, 0
1, 207600, Note_on_c, 9, 42, 108
1, 207609, Note_on_c, 9, 42, 0
1, 207839, Note_on_c, 9, 35, 0
1, 207840, Note_on_c, 9, 38, 108
1, 207840, Note_on_c, 9, 42, 108
1, 207849, Note_on_c, 9, 42, 0
1, 208079, Note_on_c, 9, 38, 0
1, 208080, Note_on_c, 9, 42, 108
1, 208080, Note_on_c, 9, 35, 108
1, 208089, Note_on_c, 9, 42, 0
1, 208319, Note_on_c, 9, 35, 0
1, 208320, Note_on_c, 9, 42, 108
1, 208320, Note_on_c, 9, 35, 108
1, 208329, Note_on_c, 9, 42, 0
1, 208560, Note_on_c, 9, 42, 108
1, 208569, Note_on_c, 9, 42, 0
1, 208799, Note_on_c, 9, 35, 0
1, 208800, Note_on_c, 9, 38, 108
1, 208800, Note_on_c, 9, 42, 108
1, 208809, Note_on_c, 9, 42, 0
1, 209039, Note_on_c, 9, 38, 0
1, 209040, Note_on_c, 9, 42, 108
1, 209049, Note_on_c, 9, 42, 0
1, 209280, Note_on_c, 9, 42, 108
1, 209280, Note_on_c, 9, 35, 108
1, 209289, Note_on_c, 9, 42, 0
1, 209520, Note_on_c, 9, 42, 108
1, 209529, Note_on_c, 9, 42, 0
1, 209759, Note_on_c, 9, 35, 0
1, 209760, Note_on_c, 9, 38, 108
1, 209760, Note_on_c, 9, 42, 108
1, 209769, Note_on_c, 9, 42, 0
1, 209999, Note_on_c, 9, 38, 0
1, 210000, Note_on_c, 9, 42, 108
1, 210000, Note_on_c, 9, 35, 108
1, 210009, Note_on_c, 9, 42, 0
1, 210239, Note_on_c, 9, 35, 0
1, 210240, Note_on_c, 9, 42, 108
1, 210240, Note_on_c, 9, 55, 108
1, 210240, Note_on_c, 9, 35, 108
1, 210249, Note_on_c, 9, 42, 0
1, 210249, Note_on_c, 9, 55, 0
1, 210480, Note_on_c, 9, 42, 108
1, 210489, Note_on_c, 9, 42, 0
1, 210719, Note_on_c, 9, 35, 0
1, 210720, Note_on_c, 9, 38, 108
1, 210720, Note_on_c, 9, 42, 108
1, 210720, Note_on_c, 9, 57, 108
1, 210729, Note_on_c, 9, 42, 0
1, 210729, Note_on_c, 9, 57, 0
1, 210959, Note_on_c, 9, 38, 0
1, 210960, Note_on_c, 9, 42, 108
1, 210969, Note_on_c, 9, 42, 0
1, 211200, Note_on_c, 9, 57, 108
1, 211200, Note_on_c, 9, 35, 108
1, 211209, Note_on_c, 9, 57, 0
1, 211440, Note_on_c, 9, 42, 108
1, 211449, Note_on_c, 9, 42, 0
1, 211679, Note_on_c, 9, 35, 0
1, 211680, Note_on_c, 9, 38, 108
1, 211680, Note_on_c, 9, 42, 108
1, 211689, Note_on_c, 9, 42, 0
1, 211919, Note_on_c, 9, 38, 0
1, 211920, Note_on_c, 9, 42, 108
1, 211929, Note_on_c, 9, 42, 0
1, 212160, Note_on_c, 9, 42, 108
1, 212160, Note_on_c, 9, 35, 108
1, 212169, Note_on_c, 9, 42, 0
1, 212400, Note_on_c, 9, 42, 108
1, 212409, Note_on_c, 9, 42, 0
1, 212639, Note_on_c, 9, 35, 0
1, 212640, Note_on_c, 9, 38, 108
1, 212640, Note_on_c, 9, 42, 108
1, 212649, Note_on_c, 9, 42, 0
1, 212879, Note_on_c, 9, 38, 0
1, 212880, Note_on_c, 9, 42, 108
1, 212880, Note_on_c, 9, 35, 108
1, 212889, Note_on_c, 9, 42, 0
1, 213119, Note_on_c, 9, 35, 0
1, 213120, Note_on_c, 9, 42, 108
1, 213120, Note_on_c, 9, 35, 108
1, 213129, Note_on_c, 9, 42, 0
1, 213360, Note_on_c, 9, 42, 108
1, 213369, Note_on_c, 9, 42, 0
1, 213599, Note_on_c, 9, 35, 0
1, 213600, Note_on_c, 9, 38, 108
1, 213600, Note_on_c, 9, 42, 108
1, 213609, Note_on_c, 9, 42, 0
1, 213839, Note_on_c, 9, 38, 0
1, 213840, Note_on_c, 9, 42, 108
1, 213849, Note_on_c, 9, 42, 0
1, 214080, Note_on_c, 9, 42, 108
1, 214080, Note_on_c, 9, 35, 108
1, 214089, Note_on_c, 9, 42, 0
1, 214320, Note_on_c, 9, 42, 108
1, 214329, Note_on_c, 9, 42, 0
1, 214559, Note_on_c, 9, 35, 0
1, 214560, Note_on_c, 9, 38, 108
1, 214560, Note_on_c, 9, 42, 108
1, 214569, Note_on_c, 9, 42, 0
1, 214799, Note_on_c, 9, 38, 0
1, 214800, Note_on_c, 9, 42, 108
1, 214800, Note_on_c, 9, 35, 108
1, 214809, Note_on_c, 9, 42, 0
1, 215039, Note_on_c, 9, 35, 0
1, 215040, Note_on_c, 9, 42, 108
1, 215040, Note_on_c, 9, 35, 108
1, 215049, Note_on_c, 9, 42, 0
1, 215280, Note_on_c, 9, 42, 108
1, 215289, Note_on_c, 9, 42, 0
1, 215519, Note_on_c, 9, 35, 0
1, 215520, Note_on_c, 9, 38, 108
1, 215520, Note_on_c, 9, 42, 108
1, 215529, Note_on_c, 9, 42, 0
1, 215759, Note_on_c, 9, 38, 0
1, 215760, Note_on_c, 9, 42, 108
1, 215769, Note_on_c, 9, 42, 0
1, 216000, Note_on_c, 9, 42, 108
1, 216000, Note_on_c, 9, 35, 108
1, 216009, Note_on_c, 9, 42, 0
1, 216240, Note_on_c, 9, 42, 108
1, 216249, Note_on_c, 9, 42, 0
1, 216479, Note_on_c, 9, 35, 0
1, 216480, Note_on_c, 9, 38, 108
1, 216480, Note_on_c, 9, 42, 108
1, 216489, Note_on_c, 9, 42, 0
1, 216719, Note_on_c, 9, 38, 0
1, 216720, Note_on_c, 9, 42, 108
1, 216720, Note_on_c, 9, 35, 108
1, 216729, Note_on_c, 9, 42, 0
1, 216959, Note_on_c, 9, 35, 0
1, 216960, Note_on_c, 9, 42, 108
1, 216960, Note_on_c, 9, 35, 108
1, 216969, Note_on_c, 9, 42, 0
1, 217200, Note_on_c, 9, 42, 108
1, 217209, Note_on_c, 9, 42, 0
1, 217439, Note_on_c, 9, 35, 0
1, 217440, Note_on_c, 9, 38, 108
1, 217440, Note_on_c, 9, 42, 108
1, 217449, Note_on_c, 9, 42, 0
1, 217679, Note_on_c, 9, 38, 0
1, 217680, Note_on_c, 9, 42, 108
1, 217680, Note_on_c, 9, 35, 108
1, 217689, Note_on_c, 9, 42, 0
1, 217919, Note_on_c, 9, 35, 0
1, 217920, Note_on_c, 9, 42, 108
1, 217929, Note_on_c, 9, 42, 0
1, 218160, Note_on_c, 9, 42, 108
1, 218160, Note_on_c, 9, 35, 108
1, 218169, Note_on_c, 9, 42, 0
1, 218399, Note_on_c, 9, 35, 0
1, 218400, Note_on_c, 9, 38, 108
1, 218400, Note_on_c, 9, 42, 108
1, 218409, Note_on_c, 9, 42, 0
1, 218639, Note_on_c, 9, 38, 0
1, 218640, Note_on_c, 9, 42, 108
1, 218640, Note_on_c, 9, 35, 108
1, 218649, Note_on_c, 9, 42, 0
1, 218879, Note_on_c, 9, 35, 0
1, 218880, Note_on_c, 9, 57, 108
1, 218880, Note_on_c, 9, 35, 108
1, 218889, Note_on_c, 9, 57, 0
1, 219120, Note_on_c, 9, 42, 108
1, 219129, Note_on_c, 9, 42, 0
1, 219359, Note_on_c, 9, 35, 0
1, 219360, Note_on_c, 9, 38, 108
1, 219360, Note_on_c, 9, 42, 108
1, 219369, Note_on_c, 9, 42, 0
1, 219599, Note_on_c, 9, 38, 0
1, 219600, Note_on_c, 9, 42, 108
1, 219609, Note_on_c, 9, 42, 0
1, 219840, Note_on_c, 9, 42, 108
1, 219840, Note_on_c, 9, 35, 108
1, 219849, Note_on_c, 9, 42, 0
1, 220080, Note_on_c, 9, 42, 108
1, 220089, Note_on_c, 9, 42, 0
1, 220319, Note_on_c, 9, 35, 0
1, 220320, Note_on_c, 9, 38, 108
1, 220320, Note_on_c, 9, 42, 108
1, 220329, Note_on_c, 9, 42, 0
1, 220559, Note_on_c, 9, 38, 0
1, 220560, Note_on_c, 9, 42, 108
1, 220560, Note_on_c, 9, 35, 108
1, 220569, Note_on_c, 9, 42, 0
1, 220799, Note_on_c, 9, 35, 0
1, 220800, Note_on_c, 9, 42, 108
1, 220800, Note_on_c, 9, 35, 108
1, 220809, Note_on_c, 9, 42, 0
1, 221040, Note_on_c, 9, 42, 108
1, 221049, Note_on_c, 9, 42, 0
1, 221279, Note_on_c, 9, 35, 0
1, 221280, Note_on_c, 9, 38, 108
1, 221280, Note_on_c, 9, 42, 108
1, 221289, Note_on_c, 9, 42, 0
1, 221519, Note_on_c, 9, 38, 0
1, 221520, Note_on_c, 9, 42, 108
1, 221529, Note_on_c, 9, 42, 0
1, 221760, Note_on_c, 9, 42, 108
1, 221760, Note_on_c, 9, 35, 108
1, 221769, Note_on_c, 9, 42, 0
1, 222000, Note_on_c, 9, 42, 108
1, 222009, Note_on_c, 9, 42, 0
1, 222239, Note_on_c, 9, 35, 0
1, 222240, Note_on_c, 9, 38, 108
1, 222240, Note_on_c, 9, 42, 108
1, 222249, Note_on_c, 9, 42, 0
1, 222479, Note_on_c, 9, 38, 0
1, 222480, Note_on_c, 9, 42, 108
1, 222480, Note_on_c, 9, 35, 108
1, 222489, Note_on_c, 9, 42, 0
1, 222719, Note_on_c, 9, 35, 0
1, 222720, Note_on_c, 9, 42, 108
1, 222720, Note_on_c, 9, 35, 108
1, 222729, Note_on_c, 9, 42, 0
1, 222960, Note_on_c, 9, 42, 108
1, 222969, Note_on_c, 9, 42, 0
1, 223199, Note_on_c, 9, 35, 0
1, 223200, Note_on_c, 9, 38, 108
1, 223200, Note_on_c, 9, 42, 108
1, 223209, Note_on_c, 9, 42, 0
1, 223439, Note_on_c, 9, 38, 0
1, 223440, Note_on_c, 9, 42, 108
1, 223449, Note_on_c, 9, 42, 0
1, 223680, Note_on_c, 9, 42, 108
1, 223680, Note_on_c, 9, 35, 108
1, 223689, Note_on_c, 9, 42, 0
1, 223920, Note_on_c, 9, 42, 108
1, 223929, Note_on_c, 9, 42, 0
1, 224159, Note_on_c, 9, 35, 0
1, 224160, Note_on_c, 9, 38, 108
1, 224160, Note_on_c, 9, 42, 108
1, 224169, Note_on_c, 9, 42, 0
1, 224399, Note_on_c, 9, 38, 0
1, 224400, Note_on_c, 9, 42, 108
1, 224400, Note_on_c, 9, 35, 108
1, 224409, Note_on_c, 9, 42, 0
1, 224639, Note_on_c, 9, 35, 0
1, 224640, Note_on_c, 9, 42, 108
1, 224640, Note_on_c, 9, 35, 108
1, 224649, Note_on_c, 9, 42, 0
1, 224880, Note_on_c, 9, 42, 108
1, 224889, Note_on_c, 9, 42, 0
1, 225119, Note_on_c, 9, 35, 0
1, 225120, Note_on_c, 9, 38, 108
1, 225120, Note_on_c, 9, 42, 108
1, 225129, Note_on_c, 9, 42, 0
1, 225359, Note_on_c, 9, 38, 0
1, 225360, Note_on_c, 9, 42, 108
1, 225360, Note_on_c, 9, 35, 108
1, 225369, Note_on_c, 9, 42, 0
1, 225599, Note_on_c, 9, 35, 0
1, 225600, Note_on_c, 9, 42, 108
1, 225609, Note_on_c, 9, 42, 0
1, 225840, Note_on_c, 9, 42, 108
1, 225840, Note_on_c, 9, 35, 108
1, 225849, Note_on_c, 9, 42, 0
1, 225959, Note_on_c, 9, 35, 0
1, 225960, Note_on_c, 9, 35, 108
1, 226079, Note_on_c, 9, 35, 0
1, 226080, Note_on_c, 9, 38, 108
1, 226080, Note_on_c, 9, 42, 108
1, 226089, Note_on_c, 9, 42, 0
1, 226319, Note_on_c, 9, 38, 0
1, 226320, Note_on_c, 9, 42, 108
1, 226320, Note_on_c, 9, 35, 108
1, 226329, Note_on_c, 9, 42, 0
1, 226559, Note_on_c, 9, 35, 0
1, 226560, Note_on_c, 9, 57, 108
1, 226560, Note_on_c, 9, 35, 108
1, 226569, Note_on_c, 9, 57, 0
1, 226800, Note_on_c, 9, 42, 108
1, 226809, Note_on_c, 9, 42, 0
1, 227039, Note_on_c, 9, 35, 0
1, 227040, Note_on_c, 9, 38, 108
1, 227040, Note_on_c, 9, 42, 108
1, 227049, Note_on_c, 9, 42, 0
1, 227279, Note_on_c, 9, 38, 0
1, 227280, Note_on_c, 9, 42, 108
1, 227289, Note_on_c, 9, 42, 0
1, 227520, Note_on_c, 9, 42, 108
1, 227520, Note_on_c, 9, 35, 108
1, 227529, Note_on_c, 9, 42, 0
1, 227760, Note_on_c, 9, 42, 108
1, 227769, Note_on_c, 9, 42, 0
1, 227999, Note_on_c, 9, 35, 0
1, 228000, Note_on_c, 9, 38, 108
1, 228000, Note_on_c, 9, 42, 108
1, 228009, Note_on_c, 9, 42, 0
1, 228239, Note_on_c, 9, 38, 0
1, 228240, Note_on_c, 9, 42, 108
1, 228240, Note_on_c, 9, 35, 108
1, 228249, Note_on_c, 9, 42, 0
1, 228479, Note_on_c, 9, 35, 0
1, 228480, Note_on_c, 9, 42, 108
1, 228480, Note_on_c, 9, 35, 108
1, 228489, Note_on_c, 9, 42, 0
1, 228720, Note_on_c, 9, 42, 108
1, 228729, Note_on_c, 9, 42, 0
1, 228959, Note_on_c, 9, 35, 0
1, 228960, Note_on_c, 9, 38, 108
1, 228960, Note_on_c, 9, 42, 108
1, 228969, Note_on_c, 9, 42, 0
1, 229199, Note_on_c, 9, 38, 0
1, 229200, Note_on_c, 9, 42, 108
1, 229209, Note_on_c, 9, 42, 0
1, 229440, Note_on_c, 9, 42, 108
1, 229440, Note_on_c, 9, 35, 108
1, 229449, Note_on_c, 9, 42, 0
1, 229680, Note_on_c, 9, 42, 108
1, 229689, Note_on_c, 9, 42, 0
1, 229919, Note_on_c, 9, 35, 0
1, 229920, Note_on_c, 9, 38, 108
1, 229920, Note_on_c, 9, 42, 108
1, 229929, Note_on_c, 9, 42, 0
1, 230159, Note_on_c, 9, 38, 0
1, 230160, Note_on_c, 9, 42, 108
1, 230160, Note_on_c, 9, 35, 108
1, 230169, Note_on_c, 9, 42, 0
1, 230399, Note_on_c, 9, 35, 0
1, 230400, Note_on_c, 9, 42, 108
1, 230400, Note_on_c, 9, 35, 108
1, 230409, Note_on_c, 9, 42, 0
1, 230640, Note_on_c, 9, 42, 108
1, 230649, Note_on_c, 9, 42, 0
1, 230879, Note_on_c, 9, 35, 0
1, 230880, Note_on_c, 9, 38, 108
1, 230880, Note_on_c, 9, 42, 108
1, 230889, Note_on_c, 9, 42, 0
1, 231119, Note_on_c, 9, 38, 0
1, 231120, Note_on_c, 9, 42, 108
1, 231129, Note_on_c, 9, 42, 0
1, 231360, Note_on_c, 9, 42, 108
1, 231360, Note_on_c, 9, 35, 108
1, 231369, Note_on_c, 9, 42, 0
1, 231600, Note_on_c, 9, 42, 108
1, 231609, Note_on_c, 9, 42, 0
1, 231839, Note_on_c, 9, 35, 0
1, 231840, Note_on_c, 9, 38, 108
1, 231840, Note_on_c, 9, 42, 108
1, 231849, Note_on_c, 9, 42, 0
1, 232079, Note_on_c, 9, 38, 0
1, 232080, Note_on_c, 9, 42, 108
1, 232080, Note_on_c, 9, 35, 108
1, 232089, Note_on_c, 9, 42, 0
1, 232319, Note_on_c, 9, 35, 0
1, 232320, Note_on_c, 9, 42, 108
1, 232320, Note_on_c, 9, 35, 108
1, 232329, Note_on_c, 9, 42, 0
1, 232560, Note_on_c, 9, 42, 108
1, 232569, Note_on_c, 9, 42, 0
1, 232799, Note_on_c, 9, 35, 0
1, 232800, Note_on_c, 9, 38, 108
1, 232800, Note_on_c, 9, 42, 108
1, 232809, Note_on_c, 9, 42, 0
1, 233039, Note_on_c, 9, 38, 0
1, 233040, Note_on_c, 9, 42, 108
1, 233040, Note_on_c, 9, 35, 108
1, 233049, Note_on_c, 9, 42, 0
1, 233279, Note_on_c, 9, 35, 0
1, 233280, Note_on_c, 9, 42, 108
1, 233289, Note_on_c, 9, 42, 0
1, 233520, Note_on_c, 9, 42, 108
1, 233520, Note_on_c, 9, 35, 108
1, 233529, Note_on_c, 9, 42, 0
1, 233639, Note_on_c, 9, 35, 0
1, 233640, Note_on_c, 9, 35, 108
1, 233759, Note_on_c, 9, 35, 0
1, 233760, Note_on_c, 9, 38, 108
1, 233760, Note_on_c, 9, 42, 108
1, 233769, Note_on_c, 9, 42, 0
1, 233999, Note_on_c, 9, 38, 0
1, 234000, Note_on_c, 9, 42, 108
1, 234000, Note_on_c, 9, 35, 108
1, 234009, Note_on_c, 9, 42, 0
1, 234239, Note_on_c, 9, 35, 0
1, 234240, Note_on_c, 9, 57, 108
1, 234240, Note_on_c, 9, 35, 108
1, 234249, Note_on_c, 9, 57, 0
1, 234480, Note_on_c, 9, 42, 108
1, 234489, Note_on_c, 9, 42, 0
1, 234719, Note_on_c, 9, 35, 0
1, 234720, Note_on_c, 9, 38, 108
1, 234720, Note_on_c, 9, 42, 108
1, 234729, Note_on_c, 9, 42, 0
1, 234959, Note_on_c, 9, 38, 0
1, 234960, Note_on_c, 9, 42, 108
1, 234969, Note_on_c, 9, 42, 0
1, 235200, Note_on_c, 9, 42, 108
1, 235200, Note_on_c, 9, 35, 108
1, 235209, Note_on_c, 9, 42, 0
1, 235440, Note_on_c, 9, 42, 108
1, 235449, Note_on_c, 9, 42, 0
1, 235679, Note_on_c, 9, 35, 0
1, 235680, Note_on_c, 9, 38, 108
1, 235680, Note_on_c, 9, 42, 108
1, 235689, Note_on_c, 9, 42, 0
1, 235919, Note_on_c, 9, 38, 0
1, 235920, Note_on_c, 9, 42, 108
1, 235920, Note_on_c, 9, 35, 108
1, 235929, Note_on_c, 9, 42, 0
1, 236159, Note_on_c, 9, 35, 0
1, 236160, Note_on_c, 9, 42, 108
1, 236160, Note_on_c, 9, 35, 108
1, 236169, Note_on_c, 9, 42, 0
1, 236400, Note_on_c, 9, 42, 108
1, 236409, Note_on_c, 9, 42, 0
1, 236639, Note_on_c, 9, 35, 0
1, 236640, Note_on_c, 9, 38, 108
1, 236640, Note_on_c, 9, 42, 108
1, 236649, Note_on_c, 9, 42, 0
1, 236879, Note_on_c, 9, 38, 0
1, 236880, Note_on_c, 9, 42, 108
1, 236889, Note_on_c, 9, 42, 0
1, 237120, Note_on_c, 9, 42, 108
1, 237120, Note_on_c, 9, 35, 108
1, 237129, Note_on_c, 9, 42, 0
1, 237360, Note_on_c, 9, 42, 108
1, 237369, Note_on_c, 9, 42, 0
1, 237599, Note_on_c, 9, 35, 0
1, 237600, Note_on_c, 9, 38, 108
1, 237600, Note_on_c, 9, 42, 108
1, 237609, Note_on_c, 9, 42, 0
1, 237839, Note_on_c, 9, 38, 0
1, 237840, Note_on_c, 9, 42, 108
1, 237840, Note_on_c, 9, 35, 108
1, 237849, Note_on_c, 9, 42, 0
1, 238079, Note_on_c, 9, 35, 0
1, 238080, Note_on_c, 9, 42, 108
1, 238080, Note_on_c, 9, 35, 108
1, 238089, Note_on_c, 9, 42, 0
1, 238320, Note_on_c, 9, 42, 108
1, 238329, Note_on_c, 9, 42, 0
1, 238559, Note_on_c, 9, 35, 0
1, 238560, Note_on_c, 9, 38, 108
1, 238560, Note_on_c, 9, 42, 108
1, 238569, Note_on_c, 9, 42, 0
1, 238799, Note_on_c, 9, 38, 0
1, 238800, Note_on_c, 9, 42, 108
1, 238809, Note_on_c, 9, 42, 0
1, 239040, Note_on_c, 9, 42, 108
1, 239040, Note_on_c, 9, 35, 108
1, 239049, Note_on_c, 9, 42, 0
1, 239280, Note_on_c, 9, 42, 108
1, 239289, Note_on_c, 9, 42, 0
1, 239519, Note_on_c, 9, 35, 0
1, 239520, Note_on_c, 9, 38, 108
1, 239520, Note_on_c, 9, 42, 108
1, 239529, Note_on_c, 9, 42, 0
1, 239759, Note_on_c, 9, 38, 0
1, 239760, Note_on_c, 9, 42, 108
1, 239760, Note_on_c, 9, 35, 108
1, 239769, Note_on_c, 9, 42, 0
1, 239999, Note_on_c, 9, 35, 0
1, 240000, Note_on_c, 9, 42, 108
1, 240000, Note_on_c, 9, 35, 108
1, 240009, Note_on_c, 9, 42, 0
1, 240240, Note_on_c, 9, 42, 108
1, 240249, Note_on_c, 9, 42, 0
1, 240479, Note_on_c, 9, 35, 0
1, 240480, Note_on_c, 9, 38, 108
1, 240480, Note_on_c, 9, 42, 108
1, 240489, Note_on_c, 9, 42, 0
1, 240719, Note_on_c, 9, 38, 0
1, 240720, Note_on_c, 9, 42, 108
1, 240720, Note_on_c, 9, 35, 108
1, 240729, Note_on_c, 9, 42, 0
1, 240959, Note_on_c, 9, 35, 0
1, 240960, Note_on_c, 9, 42, 108
1, 240969, Note_on_c, 9, 42, 0
1, 241200, Note_on_c, 9, 42, 108
1, 241200, Note_on_c, 9, 35, 108
1, 241209, Note_on_c, 9, 42, 0
1, 241319, Note_on_c, 9, 35, 0
1, 241320, Note_on_c, 9, 35, 108
1, 241439, Note_on_c, 9, 35, 0
1, 241440, Note_on_c, 9, 38, 108
1, 241440, Note_on_c, 9, 42, 108
1, 241449, Note_on_c, 9, 42, 0
1, 241679, Note_on_c, 9, 38, 0
1, 241680, Note_on_c, 9, 42, 108
1, 241680, Note_on_c, 9, 35, 108
1, 241689, Note_on_c, 9, 42, 0
1, 241919, Note_on_c, 9, 35, 0
1, 241920, Note_on_c, 9, 57, 108
1, 241920, Note_on_c, 9, 35, 108
1, 241929, Note_on_c, 9, 57, 0
1, 242160, Note_on_c, 9, 42, 108
1, 242169, Note_on_c, 9, 42, 0
1, 242399, Note_on_c, 9, 35, 0
1, 242400, Note_on_c, 9, 38, 108
1, 242400, Note_on_c, 9, 42, 108
1, 242409, Note_on_c, 9, 42, 0
1, 242639, Note_on_c, 9, 38, 0
1, 242640, Note_on_c, 9, 42, 108
1, 242649, Note_on_c, 9, 42, 0
1, 242880, Note_on_c, 9, 42, 108
1, 242880, Note_on_c, 9, 35, 108
1, 242889, Note_on_c, 9, 42, 0
1, 243120, Note_on_c, 9, 42, 108
1, 243129, Note_on_c, 9, 42, 0
1, 243359, Note_on_c, 9, 35, 0
1, 243360, Note_on_c, 9, 38, 108
1, 243360, Note_on_c, 9, 42, 108
1, 243369, Note_on_c, 9, 42, 0
1, 243599, Note_on_c, 9, 38, 0
1, 243600, Note_on_c, 9, 42, 108
1, 243600, Note_on_c, 9, 35, 108
1, 243609, Note_on_c, 9, 42, 0
1, 243839, Note_on_c, 9, 35, 0
1, 243840, Note_on_c, 9, 42, 108
1, 243840, Note_on_c, 9, 35, 108
1, 243849, Note_on_c, 9, 42, 0
1, 244080, Note_on_c, 9, 38, 108
1, 244080, Note_on_c, 9, 42, 108
1, 244089, Note_on_c, 9, 42, 0
1, 244319, Note_on_c, 9, 35, 0
1, 244319, Note_on_c, 9, 38, 0
1, 244320, Note_on_c, 9, 42, 108
1, 244329, Note_on_c, 9, 42, 0
1, 244560, Note_on_c, 9, 38, 108
1, 244560, Note_on_c, 9, 42, 108
1, 244569, Note_on_c, 9, 42, 0
1, 244799, Note_on_c, 9, 38, 0
1, 244800, Note_on_c, 9, 42, 108
1, 244809, Note_on_c, 9, 42, 0
1, 245040, Note_on_c, 9, 42, 108
1, 245040, Note_on_c, 9, 35, 108
1, 245049, Note_on_c, 9, 42, 0
1, 245279, Note_on_c, 9, 35, 0
1, 245280, Note_on_c, 9, 38, 108
1, 245280, Note_on_c, 9, 42, 108
1, 245289, Note_on_c, 9, 42, 0
1, 245519, Note_on_c, 9, 38, 0
1, 245520, Note_on_c, 9, 42, 108
1, 245520, Note_on_c, 9, 35, 108
1, 245529, Note_on_c, 9, 42, 0
1, 245759, Note_on_c, 9, 35, 0
1, 245760, Note_on_c, 9, 42, 108
1, 245760, Note_on_c, 9, 57, 108
1, 245760, Note_on_c, 9, 35, 108
1, 245769, Note_on_c, 9, 42, 0
1, 245769, Note_on_c, 9, 57, 0
1, 246000, Note_on_c, 9, 42, 108
1, 246009, Note_on_c, 9, 42, 0
1, 246239, Note_on_c, 9, 35, 0
1, 246240, Note_on_c, 9, 38, 108
1, 246240, Note_on_c, 9, 42, 108
1, 246249, Note_on_c, 9, 42, 0
1, 246479, Note_on_c, 9, 38, 0
1, 246480, Note_on_c, 9, 42, 108
1, 246489, Note_on_c, 9, 42, 0
1, 246720, Note_on_c, 9, 42, 108
1, 246729, Note_on_c, 9, 42, 0
1, 246960, Note_on_c, 9, 42, 108
1, 246960, Note_on_c, 9, 35, 108
1, 246969, Note_on_c, 9, 42, 0
1, 247199, Note_on_c, 9, 35, 0
1, 247200, Note_on_c, 9, 38, 108
1, 247200, Note_on_c, 9, 42, 108
1, 247209, Note_on_c, 9, 42, 0
1, 247439, Note_on_c, 9, 38, 0
1, 247440, Note_on_c, 9, 42, 108
1, 247449, Note_on_c, 9, 42, 0
1, 247680, Note_on_c, 9, 42, 108
1, 247689, Note_on_c, 9, 42, 0
1, 247920, Note_on_c, 9, 42, 108
1, 247920, Note_on_c, 9, 35, 108
1, 247929, Note_on_c, 9, 42, 0
1, 248159, Note_on_c, 9, 35, 0
1, 248160, Note_on_c, 9, 38, 108
1, 248160, Note_on_c, 9, 42, 108
1, 248169, Note_on_c, 9, 42, 0
1, 248399, Note_on_c, 9, 38, 0
1, 248400, Note_on_c, 9, 42, 108
1, 248400, Note_on_c, 9, 35, 108
1, 248409, Note_on_c, 9, 42, 0
1, 248639, Note_on_c, 9, 35, 0
1, 248640, Note_on_c, 9, 42, 108
1, 248649, Note_on_c, 9, 42, 0
1, 248880, Note_on_c, 9, 42, 108
1, 248880, Note_on_c, 9, 35, 108
1, 248889, Note_on_c, 9, 42, 0
1, 249119, Note_on_c, 9, 35, 0
1, 249120, Note_on_c, 9, 38, 108
1, 249120, Note_on_c, 9, 42, 108
1, 249120, Note_on_c, 9, 43, 108
1, 249129, Note_on_c, 9, 42, 0
1, 249359, Note_on_c, 9, 38, 0
1, 249360, Note_on_c, 9, 42, 108
1, 249369, Note_on_c, 9, 42, 0
1, 249599, Note_on_c, 9, 43, 0
1, 249600, Note_on_c, 9, 57, 108
1, 249600, Note_on_c, 9, 35, 108
1, 249609, Note_on_c, 9, 57, 0
1, 249840, Note_on_c, 9, 42, 108
1, 249849, Note_on_c, 9, 42, 0
1, 250079, Note_on_c, 9, 35, 0
1, 250080, Note_on_c, 9, 38, 108
1, 250080, Note_on_c, 9, 42, 108
1, 250089, Note_on_c, 9, 42, 0
1, 250319, Note_on_c, 9, 38, 0
1, 250320, Note_on_c, 9, 42, 108
1, 250329, Note_on_c, 9, 42, 0
1, 250560, Note_on_c, 9, 42, 108
1, 250560, Note_on_c, 9, 35, 108
1, 250569, Note_on_c, 9, 42, 0
1, 250800, Note_on_c, 9, 42, 108
1, 250809, Note_on_c, 9, 42, 0
1, 251039, Note_on_c, 9, 35, 0
1, 251040, Note_on_c, 9, 38, 108
1, 251040, Note_on_c, 9, 42, 108
1, 251049, Note_on_c, 9, 42, 0
1, 251279, Note_on_c, 9, 38, 0
1, 251280, Note_on_c, 9, 42, 108
1, 251289, Note_on_c, 9, 42, 0
1, 251520, Note_on_c, 9, 42, 108
1, 251520, Note_on_c, 9, 35, 108
1, 251529, Note_on_c, 9, 42, 0
1, 251760, Note_on_c, 9, 42, 108
1, 251769, Note_on_c, 9, 42, 0
1, 251999, Note_on_c, 9, 35, 0
1, 252000, Note_on_c, 9, 38, 108
1, 252000, Note_on_c, 9, 42, 108
1, 252009, Note_on_c, 9, 42, 0
1, 252239, Note_on_c, 9, 38, 0
1, 252240, Note_on_c, 9, 42, 108
1, 252249, Note_on_c, 9, 42, 0
1, 252480, Note_on_c, 9, 42, 108
1, 252480, Note_on_c, 9, 35, 108
1, 252489, Note_on_c, 9, 42, 0
1, 252720, Note_on_c, 9, 42, 108
1, 252729, Note_on_c, 9, 42, 0
1, 252959, Note_on_c, 9, 35, 0
1, 252960, Note_on_c, 9, 38, 108
1, 252960, Note_on_c, 9, 42, 108
1, 252969, Note_on_c, 9, 42, 0
1, 253199, Note_on_c, 9, 38, 0
1, 253200, Note_on_c, 9, 42, 108
1, 253200, Note_on_c, 9, 35, 108
1, 253209, Note_on_c, 9, 42, 0
1, 253439, Note_on_c, 9, 35, 0
1, 253440, Note_on_c, 9, 42, 108
1, 253440, Note_on_c, 9, 35, 108
1, 253449, Note_on_c, 9, 42, 0
1, 253680, Note_on_c, 9, 42, 108
1, 253689, Note_on_c, 9, 42, 0
1, 253919, Note_on_c, 9, 35, 0
1, 253920, Note_on_c, 9, 38, 108
1, 253920, Note_on_c, 9, 42, 108
1, 253929, Note_on_c, 9, 42, 0
1, 254159, Note_on_c, 9, 38, 0
1, 254160, Note_on_c, 9, 42, 108
1, 254169, Note_on_c, 9, 42, 0
1, 254400, Note_on_c, 9, 42, 108
1, 254400, Note_on_c, 9, 35, 108
1, 254409, Note_on_c, 9, 42, 0
1, 254640, Note_on_c, 9, 42, 108
1, 254649, Note_on_c, 9, 42, 0
1, 254879, Note_on_c, 9, 35, 0
1, 254880, Note_on_c, 9, 38, 108
1, 254880, Note_on_c, 9, 42, 108
1, 254889, Note_on_c, 9, 42, 0
1, 255119, Note_on_c, 9, 38, 0
1, 255120, Note_on_c, 9, 42, 108
1, 255129, Note_on_c, 9, 42, 0
1, 255360, Note_on_c, 9, 42, 108
1, 255360, Note_on_c, 9, 35, 108
1, 255369, Note_on_c, 9, 42, 0
1, 255600, Note_on_c, 9, 42, 108
1, 255609, Note_on_c, 9, 42, 0
1, 255839, Note_on_c, 9, 35, 0
1, 255840, Note_on_c, 9, 38, 108
1, 255840, Note_on_c, 9, 42, 108
1, 255849, Note_on_c, 9, 42, 0
1, 256079, Note_on_c, 9, 38, 0
1, 256080, Note_on_c, 9, 42, 108
1, 256089, Note_on_c, 9, 42, 0
1, 256320, Note_on_c, 9, 42, 108
1, 256320, Note_on_c, 9, 35, 108
1, 256329, Note_on_c, 9, 42, 0
1, 256560, Note_on_c, 9, 42, 108
1, 256569, Note_on_c, 9, 42, 0
1, 256799, Note_on_c, 9, 35, 0
1, 256800, Note_on_c, 9, 38, 108
1, 256800, Note_on_c, 9, 42, 108
1, 256809, Note_on_c, 9, 42, 0
1, 257039, Note_on_c, 9, 38, 0
1, 257040, Note_on_c, 9, 42, 108
1, 257040, Note_on_c, 9, 35, 108
1, 257049, Note_on_c, 9, 42, 0
1, 257279, Note_on_c, 9, 35, 0
1, 257280, Note_on_c, 9, 57, 108
1, 257280, Note_on_c, 9, 35, 108
1, 257289, Note_on_c, 9, 57, 0
1, 257520, Note_on_c, 9, 42, 108
1, 257529, Note_on_c, 9, 42, 0
1, 257759, Note_on_c, 9, 35, 0
1, 257760, Note_on_c, 9, 38, 108
1, 257760, Note_on_c, 9, 42, 108
1, 257769, Note_on_c, 9, 42, 0
1, 257999, Note_on_c, 9, 38, 0
1, 258000, Note_on_c, 9, 42, 108
1, 258009, Note_on_c, 9, 42, 0
1, 258240, Note_on_c, 9, 42, 108
1, 258240, Note_on_c, 9, 35, 108
1, 258249, Note_on_c, 9, 42, 0
1, 258480, Note_on_c, 9, 42, 108
1, 258489, Note_on_c, 9, 42, 0
1, 258719, Note_on_c, 9, 35, 0
1, 258720, Note_on_c, 9, 38, 108
1, 258720, Note_on_c, 9, 42, 108
1, 258729, Note_on_c, 9, 42, 0
1, 258959, Note_on_c, 9, 38, 0
1, 258960, Note_on_c, 9, 42, 108
1, 258969, Note_on_c, 9, 42, 0
1, 259200, Note_on_c, 9, 42, 108
1, 259200, Note_on_c, 9, 35, 108
1, 259209, Note_on_c, 9, 42, 0
1, 259440, Note_on_c, 9, 42, 108
1, 259449, Note_on_c, 9, 42, 0
1, 259679, Note_on_c, 9, 35, 0
1, 259680, Note_on_c, 9, 38, 108
1, 259680, Note_on_c, 9, 42, 108
1, 259689, Note_on_c, 9, 42, 0
1, 259919, Note_on_c, 9, 38, 0
1, 259920, Note_on_c, 9, 42, 108
1, 259929, Note_on_c, 9, 42, 0
1, 260160, Note_on_c, 9, 42, 108
1, 260160, Note_on_c, 9, 35, 108
1, 260169, Note_on_c, 9, 42, 0
1, 260400, Note_on_c, 9, 42, 108
1, 260409, Note_on_c, 9, 42, 0
1, 260639, Note_on_c, 9, 35, 0
1, 260640, Note_on_c, 9, 38, 108
1, 260640, Note_on_c, 9, 42, 108
1, 260649, Note_on_c, 9, 42, 0
1, 260879, Note_on_c, 9, 38, 0
1, 260880, Note_on_c, 9, 42, 108
1, 260880, Note_on_c, 9, 35, 108
1, 260889, Note_on_c, 9, 42, 0
1, 261119, Note_on_c, 9, 35, 0
1, 261120, Note_on_c, 9, 57, 108
1, 261120, Note_on_c, 9, 35, 108
1, 261129, Note_on_c, 9, 57, 0
1, 261360, Note_on_c, 9, 42, 108
1, 261369, Note_on_c, 9, 42, 0
1, 261599, Note_on_c, 9, 35, 0
1, 261600, Note_on_c, 9, 38, 108
1, 261600, Note_on_c, 9, 42, 108
1, 261609, Note_on_c, 9, 42, 0
1, 261839, Note_on_c, 9, 38, 0
1, 261840, Note_on_c, 9, 42, 108
1, 261849, Note_on_c, 9, 42, 0
1, 262080, Note_on_c, 9, 42, 108
1, 262080, Note_on_c, 9, 35, 108
1, 262089, Note_on_c, 9, 42, 0
1, 262320, Note_on_c, 9, 42, 108
1, 262329, Note_on_c, 9, 42, 0
1, 262559, Note_on_c, 9, 35, 0
1, 262560, Note_on_c, 9, 38, 108
1, 262560, Note_on_c, 9, 42, 108
1, 262569, Note_on_c, 9, 42, 0
1, 262799, Note_on_c, 9, 38, 0
1, 262800, Note_on_c, 9, 42, 108
1, 262809, Note_on_c, 9, 42, 0
1, 263040, Note_on_c, 9, 42, 108
1, 263040, Note_on_c, 9, 35, 108
1, 263049, Note_on_c, 9, 42, 0
1, 263280, Note_on_c, 9, 42, 108
1, 263289, Note_on_c, 9, 42, 0
1, 263519, Note_on_c, 9, 35, 0
1, 263520, Note_on_c, 9, 38, 108
1, 263520, Note_on_c, 9, 42, 108
1, 263529, Note_on_c, 9, 42, 0
1, 263759, Note_on_c, 9, 38, 0
1, 263760, Note_on_c, 9, 42, 108
1, 263769, Note_on_c, 9, 42, 0
1, 264000, Note_on_c, 9, 42, 108
1, 264000, Note_on_c, 9, 35, 108
1, 264009, Note_on_c, 9, 42, 0
1, 264240, Note_on_c, 9, 42, 108
1, 264249, Note_on_c, 9, 42, 0
1, 264479, Note_on_c, 9, 35, 0
1, 264480, Note_on_c, 9, 38, 108
1, 264480, Note_on_c, 9, 42, 108
1, 264489, Note_on_c, 9, 42, 0
1, 264719, Note_on_c, 9, 38, 0
1, 264720, Note_on_c, 9, 42, 108
1, 264720, Note_on_c, 9, 35, 108
1, 264729, Note_on_c, 9, 42, 0
1, 264959, Note_on_c, 9, 35, 0
1, 264960, Note_on_c, 9, 57, 108
1, 264960, Note_on_c, 9, 35, 108
1, 264969, Note_on_c, 9, 57, 0
1, 265200, Note_on_c, 9, 42, 108
1, 265209, Note_on_c, 9, 42, 0
1, 265439, Note_on_c, 9, 35, 0
1, 265440, Note_on_c, 9, 38, 108
1, 265440, Note_on_c, 9, 42, 108
1, 265449, Note_on_c, 9, 42, 0
1, 265679, Note_on_c, 9, 38, 0
1, 265680, Note_on_c, 9, 42, 108
1, 265689, Note_on_c, 9, 42, 0
1, 265920, Note_on_c, 9, 42, 108
1, 265920, Note_on_c, 9, 35, 108
1, 265929, Note_on_c, 9, 42, 0
1, 266160, Note_on_c, 9, 42, 108
1, 266169, Note_on_c, 9, 42, 0
1, 266399, Note_on_c, 9, 35, 0
1, 266400, Note_on_c, 9, 38, 108
1, 266400, Note_on_c, 9, 42, 108
1, 266409, Note_on_c, 9, 42, 0
1, 266639, Note_on_c, 9, 38, 0
1, 266640, Note_on_c, 9, 42, 108
1, 266649, Note_on_c, 9, 42, 0
1, 266880, Note_on_c, 9, 42, 108
1, 266880, Note_on_c, 9, 35, 108
1, 266889, Note_on_c, 9, 42, 0
1, 267120, Note_on_c, 9, 42, 108
1, 267129, Note_on_c, 9, 42, 0
1, 267359, Note_on_c, 9, 35, 0
1, 267360, Note_on_c, 9, 38, 108
1, 267360, Note_on_c, 9, 42, 108
1, 267369, Note_on_c, 9, 42, 0
1, 267599, Note_on_c, 9, 38, 0
1, 267600, Note_on_c, 9, 42, 108
1, 267609, Note_on_c, 9, 42, 0
1, 267840, Note_on_c, 9, 42, 108
1, 267840, Note_on_c, 9, 35, 108
1, 267849, Note_on_c, 9, 42, 0
1, 268080, Note_on_c, 9, 42, 108
1, 268089, Note_on_c, 9, 42, 0
1, 268319, Note_on_c, 9, 35, 0
1, 268320, Note_on_c, 9, 38, 108
1, 268320, Note_on_c, 9, 42, 108
1, 268329, Note_on_c, 9, 42, 0
1, 268559, Note_on_c, 9, 38, 0
1, 268560, Note_on_c, 9, 42, 108
1, 268560, Note_on_c, 9, 35, 108
1, 268569, Note_on_c, 9, 42, 0
1, 268799, Note_on_c, 9, 35, 0
1, 268800, Note_on_c, 9, 57, 108
1, 268800, Note_on_c, 9, 35, 108
1, 268809, Note_on_c, 9, 57, 0
1, 269040, Note_on_c, 9, 42, 108
1, 269049, Note_on_c, 9, 42, 0
1, 269279, Note_on_c, 9, 35, 0
1, 269280, Note_on_c, 9, 38, 108
1, 269280, Note_on_c, 9, 42, 108
1, 269289, Note_on_c, 9, 42, 0
1, 269519, Note_on_c, 9, 38, 0
1, 269520, Note_on_c, 9, 42, 108
1, 269529, Note_on_c, 9, 42, 0
1, 269760, Note_on_c, 9, 42, 108
1, 269760, Note_on_c, 9, 35, 108
1, 269769, Note_on_c, 9, 42, 0
1, 270000, Note_on_c, 9, 42, 108
1, 270009, Note_on_c, 9, 42, 0
1, 270239, Note_on_c, 9, 35, 0
1, 270240, Note_on_c, 9, 38, 108
1, 270240, Note_on_c, 9, 42, 108
1, 270249, Note_on_c, 9, 42, 0
1, 270479, Note_on_c, 9, 38, 0
1, 270480, Note_on_c, 9, 42, 108
1, 270489, Note_on_c, 9, 42, 0
1, 270720, Note_on_c, 9, 42, 108
1, 270720, Note_on_c, 9, 35, 108
1, 270729, Note_on_c, 9, 42, 0
1, 270960, Note_on_c, 9, 42, 108
1, 270969, Note_on_c, 9, 42, 0
1, 271199, Note_on_c, 9, 35, 0
1, 271200, Note_on_c, 9, 38, 108
1, 271200, Note_on_c, 9, 42, 108
1, 271209, Note_on_c, 9, 42, 0
1, 271439, Note_on_c, 9, 38, 0
1, 271440, Note_on_c, 9, 42, 108
1, 271449, Note_on_c, 9, 42, 0
1, 271680, Note_on_c, 9, 42, 108
1, 271680, Note_on_c, 9, 35, 108
1, 271689, Note_on_c, 9, 42, 0
1, 271920, Note_on_c, 9, 42, 108
1, 271929, Note_on_c, 9, 42, 0
1, 272159, Note_on_c, 9, 35, 0
1, 272160, Note_on_c, 9, 38, 108
1, 272160, Note_on_c, 9, 42, 108
1, 272169, Note_on_c, 9, 42, 0
1, 272399, Note_on_c, 9, 38, 0
1, 272400, Note_on_c, 9, 42, 108
1, 272400, Note_on_c, 9, 35, 108
1, 272409, Note_on_c, 9, 42, 0
1, 272639, Note_on_c, 9, 35, 0
1, 272640, Note_on_c, 9, 57, 108
1, 272640, Note_on_c, 9, 35, 108
1, 272649, Note_on_c, 9, 57, 0
1, 272880, Note_on_c, 9, 42, 108
1, 272889, Note_on_c, 9, 42, 0
1, 273119, Note_on_c, 9, 35, 0
1, 273120, Note_on_c, 9, 38, 108
1, 273120, Note_on_c, 9, 42, 108
1, 273129, Note_on_c, 9, 42, 0
1, 273359, Note_on_c, 9, 38, 0
1, 273360, Note_on_c, 9, 42, 108
1, 273369, Note_on_c, 9, 42, 0
1, 273600, Note_on_c, 9, 42, 108
1, 273600, Note_on_c, 9, 35, 108
1, 273609, Note_on_c, 9, 42, 0
1, 273840, Note_on_c, 9, 42, 108
1, 273849, Note_on_c, 9, 42, 0
1, 274079, Note_on_c, 9, 35, 0
1, 274080, Note_on_c, 9, 38, 108
1, 274080, Note_on_c, 9, 42, 108
1, 274089, Note_on_c, 9, 42, 0
1, 274319, Note_on_c, 9, 38, 0
1, 274320, Note_on_c, 9, 42, 108
1, 274329, Note_on_c, 9, 42, 0
1, 274560, Note_on_c, 9, 42, 108
1, 274560, Note_on_c, 9, 35, 108
1, 274569, Note_on_c, 9, 42, 0
1, 274800, Note_on_c, 9, 42, 108
1, 274809, Note_on_c, 9, 42, 0
1, 275039, Note_on_c, 9, 35, 0
1, 275040, Note_on_c, 9, 38, 108
1, 275040, Note_on_c, 9, 42, 108
1, 275049, Note_on_c, 9, 42, 0
1, 275279, Note_on_c, 9, 38, 0
1, 275280, Note_on_c, 9, 42, 108
1, 275289, Note_on_c, 9, 42, 0
1, 275520, Note_on_c, 9, 42, 108
1, 275520, Note_on_c, 9, 35, 108
1, 275529, Note_on_c, 9, 42, 0
1, 275760, Note_on_c, 9, 42, 108
1, 275769, Note_on_c, 9, 42, 0
1, 275999, Note_on_c, 9, 35, 0
1, 276000, Note_on_c, 9, 38, 108
1, 276000, Note_on_c, 9, 42, 108
1, 276009, Note_on_c, 9, 42, 0
1, 276239, Note_on_c, 9, 38, 0
1, 276240, Note_on_c, 9, 42, 108
1, 276240, Note_on_c, 9, 35, 108
1, 276249, Note_on_c, 9, 42, 0
1, 276479, Note_on_c, 9, 35, 0
1, 276480, Note_on_c, 9, 57, 108
1, 276480, Note_on_c, 9, 35, 108
1, 276489, Note_on_c, 9, 57, 0
1, 276720, Note_on_c, 9, 42, 108
1, 276729, Note_on_c, 9, 42, 0
1, 276959, Note_on_c, 9, 35, 0
1, 276960, Note_on_c, 9, 38, 108
1, 276960, Note_on_c, 9, 42, 108
1, 276969, Note_on_c, 9, 42, 0
1, 277199, Note_on_c, 9, 38, 0
1, 277200, Note_on_c, 9, 42, 108
1, 277209, Note_on_c, 9, 42, 0
1, 277440, Note_on_c, 9, 42, 108
1, 277440, Note_on_c, 9, 35, 108
1, 277449, Note_on_c, 9, 42, 0
1, 277680, Note_on_c, 9, 42, 108
1, 277689, Note_on_c, 9, 42, 0
1, 277919, Note_on_c, 9, 35, 0
1, 277920, Note_on_c, 9, 38, 108
1, 277920, Note_on_c, 9, 42, 108
1, 277929, Note_on_c, 9, 42, 0
1, 278159, Note_on_c, 9, 38, 0
1, 278160, Note_on_c, 9, 42, 108
1, 278169, Note_on_c, 9, 42, 0
1, 278400, Note_on_c, 9, 42, 108
1, 278400, Note_on_c, 9, 35, 108
1, 278409, Note_on_c, 9, 42, 0
1, 278640, Note_on_c, 9, 42, 108
1, 278649, Note_on_c, 9, 42, 0
1, 278879, Note_on_c, 9, 35, 0
1, 278880, Note_on_c, 9, 38, 108
1, 278880, Note_on_c, 9, 42, 108
1, 278889, Note_on_c, 9, 42, 0
1, 279119, Note_on_c, 9, 38, 0
1, 279120, Note_on_c, 9, 42, 108
1, 279129, Note_on_c, 9, 42, 0
1, 279360, Note_on_c, 9, 42, 108
1, 279360, Note_on_c, 9, 35, 108
1, 279369, Note_on_c, 9, 42, 0
1, 279600, Note_on_c, 9, 42, 108
1, 279609, Note_on_c, 9, 42, 0
1, 279839, Note_on_c, 9, 35, 0
1, 279840, Note_on_c, 9, 38, 108
1, 279840, Note_on_c, 9, 42, 108
1, 279849, Note_on_c, 9, 42, 0
1, 280079, Note_on_c, 9, 38, 0
1, 280080, Note_on_c, 9, 42, 108
1, 280080, Note_on_c, 9, 35, 108
1, 280089, Note_on_c, 9, 42, 0
1, 280319, Note_on_c, 9, 35, 0
1, 280320, Note_on_c, 9, 57, 108
1, 280320, Note_on_c, 9, 35, 108
1, 280329, Note_on_c, 9, 57, 0
1, 280560, Note_on_c, 9, 42, 108
1, 280569, Note_on_c, 9, 42, 0
1, 280799, Note_on_c, 9, 35, 0
1, 280800, Note_on_c, 9, 38, 108
1, 280800, Note_on_c, 9, 42, 108
1, 280809, Note_on_c, 9, 42, 0
1, 281039, Note_on_c, 9, 38, 0
1, 281040, Note_on_c, 9, 42, 108
1, 281049, Note_on_c, 9, 42, 0
1, 281280, Note_on_c, 9, 42, 108
1, 281280, Note_on_c, 9, 35, 108
1, 281289, Note_on_c, 9, 42, 0
1, 281520, Note_on_c, 9, 42, 108
1, 281529, Note_on_c, 9, 42, 0
1, 281759, Note_on_c, 9, 35, 0
1, 281760, Note_on_c, 9, 38, 108
1, 281760, Note_on_c, 9, 42, 108
1, 281769, Note_on_c, 9, 42, 0
1, 281999, Note_on_c, 9, 38, 0
1, 282000, Note_on_c, 9, 42, 108
1, 282009, Note_on_c, 9, 42, 0
1, 282240, Note_on_c, 9, 42, 108
1, 282240, Note_on_c, 9, 35, 108
1, 282249, Note_on_c, 9, 42, 0
1, 282480, Note_on_c, 9, 42, 108
1, 282489, Note_on_c, 9, 42, 0
1, 282719, Note_on_c, 9, 35, 0
1, 282720, Note_on_c, 9, 38, 108
1, 282720, Note_on_c, 9, 42, 108
1, 282729, Note_on_c, 9, 42, 0
1, 282959, Note_on_c, 9, 38, 0
1, 282960, Note_on_c, 9, 42, 108
1, 282969, Note_on_c, 9, 42, 0
1, 283200, Note_on_c, 9, 42, 108
1, 283200, Note_on_c, 9, 35, 108
1, 283209, Note_on_c, 9, 42, 0
1, 283440, Note_on_c, 9, 42, 108
1, 283449, Note_on_c, 9, 42, 0
1, 283679, Note_on_c, 9, 35, 0
1, 283680, Note_on_c, 9, 38, 108
1, 283680, Note_on_c, 9, 42, 108
1, 283689, Note_on_c, 9, 42, 0
1, 283919, Note_on_c, 9, 38, 0
1, 283920, Note_on_c, 9, 42, 108
1, 283920, Note_on_c, 9, 35, 108
1, 283929, Note_on_c, 9, 42, 0
1, 284159, Note_on_c, 9, 35, 0
1, 284160, Note_on_c, 9, 57, 108
1, 284160, Note_on_c, 9, 35, 108
1, 284169, Note_on_c, 9, 57, 0
1, 284400, Note_on_c, 9, 42, 108
1, 284409, Note_on_c, 9, 42, 0
1, 284639, Note_on_c, 9, 35, 0
1, 284640, Note_on_c, 9, 38, 108
1, 284640, Note_on_c, 9, 42, 108
1, 284649, Note_on_c, 9, 42, 0
1, 284879, Note_on_c, 9, 38, 0
1, 284880, Note_on_c, 9, 42, 108
1, 284889, Note_on_c, 9, 42, 0
1, 285120, Note_on_c, 9, 42, 108
1, 285120, Note_on_c, 9, 35, 108
1, 285129, Note_on_c, 9, 42, 0
1, 285360, Note_on_c, 9, 42, 108
1, 285369, Note_on_c, 9, 42, 0
1, 285599, Note_on_c, 9, 35, 0
1, 285600, Note_on_c, 9, 38, 108
1, 285600, Note_on_c, 9, 42, 108
1, 285609, Note_on_c, 9, 42, 0
1, 285839, Note_on_c, 9, 38, 0
1, 285840, Note_on_c, 9, 42, 108
1, 285849, Note_on_c, 9, 42, 0
1, 286080, Note_on_c, 9, 42, 108
1, 286080, Note_on_c, 9, 35, 108
1, 286089, Note_on_c, 9, 42, 0
1, 286320, Note_on_c, 9, 42, 108
1, 286329, Note_on_c, 9, 42, 0
1, 286559, Note_on_c, 9, 35, 0
1, 286560, Note_on_c, 9, 38, 108
1, 286560, Note_on_c, 9, 42, 108
1, 286569, Note_on_c, 9, 42, 0
1, 286799, Note_on_c, 9, 38, 0
1, 286800, Note_on_c, 9, 42, 108
1, 286809, Note_on_c, 9, 42, 0
1, 287040, Note_on_c, 9, 42, 108
1, 287040, Note_on_c, 9, 35, 108
1, 287049, Note_on_c, 9, 42, 0
1, 287280, Note_on_c, 9, 42, 108
1, 287289, Note_on_c, 9, 42, 0
1, 287519, Note_on_c, 9, 35, 0
1, 287520, Note_on_c, 9, 38, 108
1, 287520, Note_on_c, 9, 42, 108
1, 287529, Note_on_c, 9, 42, 0
1, 287759, Note_on_c, 9, 38, 0
1, 287760, Note_on_c, 9, 42, 108
1, 287760, Note_on_c, 9, 35, 108
1, 287769, Note_on_c, 9, 42, 0
1, 287999, Note_on_c, 9, 35, 0
1, 288000, Note_on_c, 9, 57, 108
1, 288000, Note_on_c, 9, 35, 108
1, 288009, Note_on_c, 9, 57, 0
1, 288240, Note_on_c, 9, 42, 108
1, 288249, Note_on_c, 9, 42, 0
1, 288479, Note_on_c, 9, 35, 0
1, 288480, Note_on_c, 9, 38, 108
1, 288480, Note_on_c, 9, 42, 108
1, 288489, Note_on_c, 9, 42, 0
1, 288719, Note_on_c, 9, 38, 0
1, 288720, Note_on_c, 9, 42, 108
1, 288729, Note_on_c, 9, 42, 0
1, 288960, Note_on_c, 9, 42, 108
1, 288960, Note_on_c, 9, 35, 108
1, 288969, Note_on_c, 9, 42, 0
1, 289200, Note_on_c, 9, 42, 108
1, 289209, Note_on_c, 9, 42, 0
1, 289439, Note_on_c, 9, 35, 0
1, 289440, Note_on_c, 9, 38, 108
1, 289440, Note_on_c, 9, 42, 108
1, 289449, Note_on_c, 9, 42, 0
1, 289679, Note_on_c, 9, 38, 0
1, 289680, Note_on_c, 9, 42, 108
1, 289689, Note_on_c, 9, 42, 0
1, 289920, Note_on_c, 9, 42, 108
1, 289920, Note_on_c, 9, 35, 108
1, 289929, Note_on_c, 9, 42, 0
1, 290160, Note_on_c, 9, 42, 108
1, 290169, Note_on_c, 9, 42, 0
1, 290399, Note_on_c, 9, 35, 0
1, 290400, Note_on_c, 9, 38, 108
1, 290400, Note_on_c, 9, 42, 108
1, 290409, Note_on_c, 9, 42, 0
1, 290639, Note_on_c, 9, 38, 0
1, 290640, Note_on_c, 9, 42, 108
1, 290649, Note_on_c, 9, 42, 0
1, 290880, Note_on_c, 9, 42, 108
1, 290880, Note_on_c, 9, 35, 108
1, 290889, Note_on_c, 9, 42, 0
1, 291120, Note_on_c, 9, 42, 108
1, 291129, Note_on_c, 9, 42, 0
1, 291359, Note_on_c, 9, 35, 0
1, 291360, Note_on_c, 9, 38, 108
1, 291360, Note_on_c, 9, 42, 108
1, 291369, Note_on_c, 9, 42, 0
1, 291599, Note_on_c, 9, 38, 0
1, 291600, Note_on_c, 9, 42, 108
1, 291600, Note_on_c, 9, 35, 108
1, 291609, Note_on_c, 9, 42, 0
1, 291839, Note_on_c, 9, 35, 0
1, 291840, Note_on_c, 9, 57, 108
1, 291840, Note_on_c, 9, 35, 108
1, 291849, Note_on_c, 9, 57, 0
1, 292080, Note_on_c, 9, 42, 108
1, 292089, Note_on_c, 9, 42, 0
1, 292319, Note_on_c, 9, 35, 0
1, 292320, Note_on_c, 9, 38, 108
1, 292320, Note_on_c, 9, 42, 108
1, 292329, Note_on_c, 9, 42, 0
1, 292559, Note_on_c, 9, 38, 0
1, 292560, Note_on_c, 9, 42, 108
1, 292569, Note_on_c, 9, 42, 0
1, 292800, Note_on_c, 9, 42, 108
1, 292800, Note_on_c, 9, 35, 108
1, 292809, Note_on_c, 9, 42, 0
1, 293040, Note_on_c, 9, 42, 108
1, 293049, Note_on_c, 9, 42, 0
1, 293279, Note_on_c, 9, 35, 0
1, 293280, Note_on_c, 9, 38, 108
1, 293280, Note_on_c, 9, 42, 108
1, 293289, Note_on_c, 9, 42, 0
1, 293519, Note_on_c, 9, 38, 0
1, 293520, Note_on_c, 9, 42, 108
1, 293529, Note_on_c, 9, 42, 0
1, 293760, Note_on_c, 9, 42, 108
1, 293760, Note_on_c, 9, 35, 108
1, 293769, Note_on_c, 9, 42, 0
1, 294000, Note_on_c, 9, 42, 108
1, 294009, Note_on_c, 9, 42, 0
1, 294239, Note_on_c, 9, 35, 0
1, 294240, Note_on_c, 9, 38, 108
1, 294240, Note_on_c, 9, 42, 108
1, 294249, Note_on_c, 9, 42, 0
1, 294479, Note_on_c, 9, 38, 0
1, 294480, Note_on_c, 9, 42, 108
1, 294489, Note_on_c, 9, 42, 0
1, 294720, Note_on_c, 9, 42, 108
1, 294720, Note_on_c, 9, 35, 108
1, 294729, Note_on_c, 9, 42, 0
1, 294960, Note_on_c, 9, 42, 108
1, 294969, Note_on_c, 9, 42, 0
1, 295199, Note_on_c, 9, 35, 0
1, 295200, Note_on_c, 9, 38, 108
1, 295200, Note_on_c, 9, 42, 108
1, 295209, Note_on_c, 9, 42, 0
1, 295439, Note_on_c, 9, 38, 0
1, 295440, Note_on_c, 9, 42, 108
1, 295440, Note_on_c, 9, 35, 108
1, 295449, Note_on_c, 9, 42, 0
1, 295679, Note_on_c, 9, 35, 0
1, 295680, Note_on_c, 9, 57, 108
1, 295680, Note_on_c, 9, 35, 108
1, 295689, Note_on_c, 9, 57, 0
1, 295920, Note_on_c, 9, 42, 108
1, 295929, Note_on_c, 9, 42, 0
1, 296159, Note_on_c, 9, 35, 0
1, 296160, Note_on_c, 9, 38, 108
1, 296160, Note_on_c, 9, 42, 108
1, 296169, Note_on_c, 9, 42, 0
1, 296399, Note_on_c, 9, 38, 0
1, 296400, Note_on_c, 9, 42, 108
1, 296409, Note_on_c, 9, 42, 0
1, 296640, Note_on_c, 9, 42, 108
1, 296640, Note_on_c, 9, 35, 108
1, 296649, Note_on_c, 9, 42, 0
1, 296880, Note_on_c, 9, 42, 108
1, 296889, Note_on_c, 9, 42, 0
1, 297119, Note_on_c, 9, 35, 0
1, 297120, Note_on_c, 9, 38, 108
1, 297120, Note_on_c, 9, 42, 108
1, 297129, Note_on_c, 9, 42, 0
1, 297359, Note_on_c, 9, 38, 0
1, 297360, Note_on_c, 9, 42, 108
1, 297369, Note_on_c, 9, 42, 0
1, 297600, Note_on_c, 9, 42, 108
1, 297600, Note_on_c, 9, 35, 108
1, 297609, Note_on_c, 9, 42, 0
1, 297840, Note_on_c, 9, 42, 108
1, 297849, Note_on_c, 9, 42, 0
1, 298079, Note_on_c, 9, 35, 0
1, 298080, Note_on_c, 9, 38, 108
1, 298080, Note_on_c, 9, 42, 108
1, 298089, Note_on_c, 9, 42, 0
1, 298319, Note_on_c, 9, 38, 0
1, 298320, Note_on_c, 9, 42, 108
1, 298329, Note_on_c, 9, 42, 0
1, 298560, Note_on_c, 9, 42, 108
1, 298560, Note_on_c, 9, 35, 108
1, 298569, Note_on_c, 9, 42, 0
1, 298800, Note_on_c, 9, 42, 108
1, 298809, Note_on_c, 9, 42, 0
1, 299039, Note_on_c, 9, 35, 0
1, 299040, Note_on_c, 9, 38, 108
1, 299040, Note_on_c, 9, 42, 108
1, 299049, Note_on_c, 9, 42, 0
1, 299279, Note_on_c, 9, 38, 0
1, 299280, Note_on_c, 9, 42, 108
1, 299280, Note_on_c, 9, 35, 108
1, 299289, Note_on_c, 9, 42, 0
1, 299519, Note_on_c, 9, 35, 0
1, 299520, Note_on_c, 9, 57, 108
1, 299520, Note_on_c, 9, 35, 108
1, 299529, Note_on_c, 9, 57, 0
1, 299760, Note_on_c, 9, 42, 108
1, 299769, Note_on_c, 9, 42, 0
1, 299999, Note_on_c, 9, 35, 0
1, 300000, Note_on_c, 9, 38, 108
1, 300000, Note_on_c, 9, 42, 108
1, 300009, Note_on_c, 9, 42, 0
1, 300239, Note_on_c, 9, 38, 0
1, 300240, Note_on_c, 9, 42, 108
1, 300249, Note_on_c, 9, 42, 0
1, 300480, Note_on_c, 9, 42, 108
1, 300480, Note_on_c, 9, 35, 108
1, 300489, Note_on_c, 9, 42, 0
1, 300720, Note_on_c, 9, 42, 108
1, 300729, Note_on_c, 9, 42, 0
1, 300959, Note_on_c, 9, 35, 0
1, 300960, Note_on_c, 9, 38, 108
1, 300960, Note_on_c, 9, 42, 108
1, 300969, Note_on_c, 9, 42, 0
1, 301199, Note_on_c, 9, 38, 0
1, 301200, Note_on_c, 9, 42, 108
1, 301209, Note_on_c, 9, 42, 0
1, 301440, Note_on_c, 9, 42, 108
1, 301440, Note_on_c, 9, 35, 108
1, 301449, Note_on_c, 9, 42, 0
1, 301680, Note_on_c, 9, 42, 108
1, 301689, Note_on_c, 9, 42, 0
1, 301919, Note_on_c, 9, 35, 0
1, 301920, Note_on_c, 9, 38, 108
1, 301920, Note_on_c, 9, 42, 108
1, 301929, Note_on_c, 9, 42, 0
1, 302159, Note_on_c, 9, 38, 0
1, 302160, Note_on_c, 9, 42, 108
1, 302169, Note_on_c, 9, 42, 0
1, 302400, Note_on_c, 9, 42, 108
1, 302400, Note_on_c, 9, 35, 108
1, 302409, Note_on_c, 9, 42, 0
1, 302640, Note_on_c, 9, 38, 108
1, 302640, Note_on_c, 9, 42, 108
1, 302649, Note_on_c, 9, 42, 0
1, 302879, Note_on_c, 9, 35, 0
1, 302879, Note_on_c, 9, 38, 0
1, 302880, Note_on_c, 9, 38, 108
1, 302880, Note_on_c, 9, 42, 108
1, 302889, Note_on_c, 9, 42, 0
1, 303119, Note_on_c, 9, 38, 0
1, 303120, Note_on_c, 9, 42, 108
1, 303120, Note_on_c, 9, 35, 108
1, 303129, Note_on_c, 9, 42, 0
1, 303359, Note_on_c, 9, 35, 0
1, 303360, Note_on_c, 9, 57, 108
1, 303360, Note_on_c, 9, 35, 108
1, 303380, Note_on_c, 9, 57, 0
1, 303839, Note_on_c, 9, 35, 0
1, 303840, End_track
0, 0, End_of_file
