0, 0, Header, 1, 1, 480
1, 0, Start_track
1, 0, Title_t, "Drumset"
1, 0, Time_signature, 4, 2, 24, 8
1, 0, Key_signature, 0, "major"
1, 0, Tempo, 535714
1, 0, Control_c, 9, 121, 0
1, 0, Program_c, 9, 0
1, 0, Control_c, 9, 7, 100
1, 0, Control_c, 9, 10, 64
1, 0, Control_c, 9, 91, 0
1, 0, Control_c, 9, 93, 0
1, 0, MIDI_port, 0
1, 0, Note_on_c, 9, 36, 64
1, 120, Note_on_c, 9, 69, 64
1, 359, Note_on_c, 9, 69, 0
1, 360, Note_on_c, 9, 69, 64
1, 479, Note_on_c, 9, 36, 0
1, 479, Note_on_c, 9, 69, 0
1, 480, Note_on_c, 9, 63, 64
1, 481, Note_on_c, 9, 63, 0
1, 540, Note_on_c, 9, 37, 64
1, 540, Note_on_c, 9, 37, 0
1, 560, Note_on_c, 9, 69, 64
1, 599, Note_on_c, 9, 69, 0
1, 840, Note_on_c, 9, 69, 64
1, 959, Note_on_c, 9, 69, 0
1, 960, Note_on_c, 9, 69, 64
1, 1199, Note_on_c, 9, 69, 0
1, 1200, Note_on_c, 9, 62, 64
1, 1200, Note_on_c, 9, 69, 64
1, 1439, Note_on_c, 9, 62, 0
1, 1439, Note_on_c, 9, 69, 0
1, 1440, Note_on_c, 9, 37, 64
1, 1440, Note_on_c, 9, 37, 0
1, 1440, Note_on_c, 9, 69, 64
1, 1479, Note_on_c, 9, 69, 0
1, 1480, Note_on_c, 9, 64, 64
1, 1480, Note_on_c, 9, 64, 0
1, 1680, Note_on_c, 9, 64, 64
1, 1680, Note_on_c, 9, 69, 64
1, 1689, Note_on_c, 9, 64, 0
1, 1919, Note_on_c, 9, 69, 0
1, 1920, Note_on_c, 9, 69, 64
1, 2159, Note_on_c, 9, 69, 0
1, 2160, Note_on_c, 9, 69, 64
1, 2339, Note_on_c, 9, 69, 0
1, 2340, Note_on_c, 9, 37, 64
1, 2340, Note_on_c, 9, 69, 64
1, 2341, Note_on_c, 9, 37, 0
1, 2399, Note_on_c, 9, 69, 0
1, 2400, Note_on_c, 9, 63, 64
1, 2406, Note_on_c, 9, 63, 0
1, 2580, Note_on_c, 9, 69, 64
1, 2639, Note_on_c, 9, 69, 0
1, 2880, Note_on_c, 9, 69, 64
1, 3059, Note_on_c, 9, 69, 0
1, 3060, Note_on_c, 9, 69, 64
1, 3119, Note_on_c, 9, 69, 0
1, 3120, Note_on_c, 9, 62, 64
1, 3359, Note_on_c, 9, 62, 0
1, 3360, Note_on_c, 9, 64, 64
1, 3360, Note_on_c, 9, 37, 64
1, 3360, Note_on_c, 9, 69, 64
1, 3369, Note_on_c, 9, 64, 0
1, 3369, Note_on_c, 9, 37, 0
1, 3599, Note_on_c, 9, 69, 0
1, 3600, Note_on_c, 9, 64, 64
1, 3600, Note_on_c, 9, 69, 64
1, 3609, Note_on_c, 9, 64, 0
1, 3839, Note_on_c, 9, 69, 0
1, 3840, Note_on_c, 9, 69, 64
1, 4079, Note_on_c, 9, 69, 0
1, 4080, Note_on_c, 9, 69, 64
1, 4319, Note_on_c, 9, 69, 0
1, 4320, Note_on_c, 9, 37, 64
1, 4320, Note_on_c, 9, 37, 0
1, 4320, Note_on_c, 9, 69, 64
1, 4350, Note_on_c, 9, 63, 64
1, 4352, Note_on_c, 9, 63, 0
1, 4559, Note_on_c, 9, 69, 0
1, 4560, Note_on_c, 9, 69, 64
1, 4799, Note_on_c, 9, 69, 0
1, 4800, Note_on_c, 9, 69, 64
1, 5039, Note_on_c, 9, 69, 0
1, 5040, Note_on_c, 9, 62, 64
1, 5040, Note_on_c, 9, 69, 64
1, 5279, Note_on_c, 9, 62, 0
1, 5279, Note_on_c, 9, 69, 0
1, 5280, Note_on_c, 9, 64, 64
1, 5280, Note_on_c, 9, 37, 64
1, 5280, Note_on_c, 9, 69, 64
1, 5289, Note_on_c, 9, 64, 0
1, 5289, Note_on_c, 9, 37, 0
1, 5519, Note_on_c, 9, 69, 0
1, 5520, Note_on_c, 9, 64, 64
1, 5520, Note_on_c, 9, 69, 64
1, 5529, Note_on_c, 9, 64, 0
1, 5759, Note_on_c, 9, 69, 0
1, 5760, Note_on_c, 9, 64, 64
1, 5760, Note_on_c, 9, 69, 64
1, 5780, Note_on_c, 9, 64, 0
1, 6239, Note_on_c, 9, 69, 0
1, 6240, Note_on_c, 9, 51, 64
1, 6260, Note_on_c, 9, 51, 0
1, 6960, Note_on_c, 9, 37, 64
1, 6960, Note_on_c, 9, 62, 64
1, 6969, Note_on_c, 9, 37, 0
1, 7199, Note_on_c, 9, 62, 0
1, 7200, Note_on_c, 9, 64, 64
1, 7200, Note_on_c, 9, 37, 64
1, 7209, Note_on_c, 9, 64, 0
1, 7209, Note_on_c, 9, 37, 0
1, 7440, Note_on_c, 9, 64, 64
1, 7449, Note_on_c, 9, 64, 0
1, 7680, Note_on_c, 9, 69, 64
1, 7680, Note_on_c, 9, 36, 64
1, 7919, Note_on_c, 9, 69, 0
1, 7920, Note_on_c, 9, 69, 64
1, 8159, Note_on_c, 9, 36, 0
1, 8159, Note_on_c, 9, 69, 0
1, 8160, Note_on_c, 9, 63, 64
1, 8160, Note_on_c, 9, 37, 64
1, 8160, Note_on_c, 9, 69, 64
1, 8169, Note_on_c, 9, 63, 0
1, 8169, Note_on_c, 9, 37, 0
1, 8399, Note_on_c, 9, 69, 0
1, 8400, Note_on_c, 9, 69, 64
1, 8400, Note_on_c, 9, 36, 64
1, 8639, Note_on_c, 9, 69, 0
1, 8639, Note_on_c, 9, 36, 0
1, 8640, Note_on_c, 9, 69, 64
1, 8640, Note_on_c, 9, 36, 64
1, 8879, Note_on_c, 9, 69, 0
1, 8880, Note_on_c, 9, 62, 64
1, 8880, Note_on_c, 9, 69, 64
1, 9119, Note_on_c, 9, 36, 0
1, 9119, Note_on_c, 9, 62, 0
1, 9119, Note_on_c, 9, 69, 0
1, 9120, Note_on_c, 9, 64, 64
1, 9120, Note_on_c, 9, 37, 64
1, 9120, Note_on_c, 9, 51, 64
1, 9120, Note_on_c, 9, 69, 64
1, 9129, Note_on_c, 9, 64, 0
1, 9129, Note_on_c, 9, 37, 0
1, 9129, Note_on_c, 9, 51, 0
1, 9359, Note_on_c, 9, 69, 0
1, 9360, Note_on_c, 9, 64, 64
1, 9360, Note_on_c, 9, 69, 64
1, 9369, Note_on_c, 9, 64, 0
1, 9599, Note_on_c, 9, 69, 0
1, 9600, Note_on_c, 9, 69, 64
1, 9600, Note_on_c, 9, 36, 64
1, 9839, Note_on_c, 9, 69, 0
1, 9840, Note_on_c, 9, 69, 64
1, 10079, Note_on_c, 9, 36, 0
1, 10079, Note_on_c, 9, 69, 0
1, 10080, Note_on_c, 9, 63, 64
1, 10080, Note_on_c, 9, 37, 64
1, 10080, Note_on_c, 9, 69, 64
1, 10089, Note_on_c, 9, 63, 0
1, 10089, Note_on_c, 9, 37, 0
1, 10319, Note_on_c, 9, 69, 0
1, 10320, Note_on_c, 9, 69, 64
1, 10320, Note_on_c, 9, 36, 64
1, 10559, Note_on_c, 9, 69, 0
1, 10559, Note_on_c, 9, 36, 0
1, 10560, Note_on_c, 9, 69, 64
1, 10560, Note_on_c, 9, 36, 64
1, 10799, Note_on_c, 9, 69, 0
1, 10800, Note_on_c, 9, 62, 64
1, 10800, Note_on_c, 9, 69, 64
1, 11039, Note_on_c, 9, 36, 0
1, 11039, Note_on_c, 9, 62, 0
1, 11039, Note_on_c, 9, 69, 0
1, 11040, Note_on_c, 9, 37, 64
1, 11040, Note_on_c, 9, 37, 0
1, 11040, Note_on_c, 9, 69, 64
1, 11040, Note_on_c, 9, 36, 64
1, 11055, Note_on_c, 9, 64, 64
1, 11055, Note_on_c, 9, 51, 64
1, 11062, Note_on_c, 9, 64, 0
1, 11062, Note_on_c, 9, 51, 0
1, 11279, Note_on_c, 9, 69, 0
1, 11280, Note_on_c, 9, 64, 64
1, 11280, Note_on_c, 9, 69, 64
1, 11289, Note_on_c, 9, 64, 0
1, 11519, Note_on_c, 9, 36, 0
1, 11519, Note_on_c, 9, 69, 0
1, 11520, Note_on_c, 9, 69, 64
1, 11520, Note_on_c, 9, 36, 64
1, 11759, Note_on_c, 9, 69, 0
1, 11760, Note_on_c, 9, 69, 64
1, 11999, Note_on_c, 9, 36, 0
1, 11999, Note_on_c, 9, 69, 0
1, 12000, Note_on_c, 9, 63, 64
1, 12000, Note_on_c, 9, 37, 64
1, 12000, Note_on_c, 9, 69, 64
1, 12009, Note_on_c, 9, 63, 0
1, 12009, Note_on_c, 9, 37, 0
1, 12239, Note_on_c, 9, 69, 0
1, 12240, Note_on_c, 9, 69, 64
1, 12240, Note_on_c, 9, 36, 64
1, 12479, Note_on_c, 9, 69, 0
1, 12479, Note_on_c, 9, 36, 0
1, 12480, Note_on_c, 9, 69, 64
1, 12480, Note_on_c, 9, 36, 64
1, 12719, Note_on_c, 9, 69, 0
1, 12720, Note_on_c, 9, 62, 64
1, 12720, Note_on_c, 9, 69, 64
1, 12959, Note_on_c, 9, 36, 0
1, 12959, Note_on_c, 9, 62, 0
1, 12959, Note_on_c, 9, 69, 0
1, 12960, Note_on_c, 9, 64, 64
1, 12960, Note_on_c, 9, 37, 64
1, 12960, Note_on_c, 9, 51, 64
1, 12960, Note_on_c, 9, 69, 64
1, 12969, Note_on_c, 9, 64, 0
1, 12969, Note_on_c, 9, 37, 0
1, 12969, Note_on_c, 9, 51, 0
1, 13199, Note_on_c, 9, 69, 0
1, 13200, Note_on_c, 9, 64, 64
1, 13200, Note_on_c, 9, 69, 64
1, 13209, Note_on_c, 9, 64, 0
1, 13439, Note_on_c, 9, 69, 0
1, 13440, Note_on_c, 9, 69, 64
1, 13440, Note_on_c, 9, 36, 64
1, 13679, Note_on_c, 9, 69, 0
1, 13680, Note_on_c, 9, 69, 64
1, 13859, Note_on_c, 9, 69, 0
1, 13860, Note_on_c, 9, 63, 64
1, 13860, Note_on_c, 9, 37, 64
1, 13860, Note_on_c, 9, 69, 64
1, 13861, Note_on_c, 9, 63, 0
1, 13861, Note_on_c, 9, 37, 0
1, 13919, Note_on_c, 9, 36, 0
1, 13919, Note_on_c, 9, 69, 0
1, 14160, Note_on_c, 9, 69, 64
1, 14160, Note_on_c, 9, 36, 64
1, 14399, Note_on_c, 9, 69, 0
1, 14399, Note_on_c, 9, 36, 0
1, 14400, Note_on_c, 9, 69, 64
1, 14400, Note_on_c, 9, 36, 64
1, 14639, Note_on_c, 9, 69, 0
1, 14639, Note_on_c, 9, 36, 0
1, 14640, Note_on_c, 9, 69, 64
1, 14640, Note_on_c, 9, 36, 64
1, 14655, Note_on_c, 9, 62, 64
1, 14879, Note_on_c, 9, 69, 0
1, 14879, Note_on_c, 9, 36, 0
1, 14879, Note_on_c, 9, 62, 0
1, 14880, Note_on_c, 9, 64, 64
1, 14880, Note_on_c, 9, 37, 64
1, 14880, Note_on_c, 9, 51, 64
1, 14880, Note_on_c, 9, 69, 64
1, 14889, Note_on_c, 9, 64, 0
1, 14889, Note_on_c, 9, 37, 0
1, 14889, Note_on_c, 9, 51, 0
1, 15119, Note_on_c, 9, 69, 0
1, 15120, Note_on_c, 9, 64, 64
1, 15120, Note_on_c, 9, 69, 64
1, 15120, Note_on_c, 9, 36, 64
1, 15129, Note_on_c, 9, 64, 0
1, 15359, Note_on_c, 9, 69, 0
1, 15359, Note_on_c, 9, 36, 0
1, 15360, Note_on_c, 9, 69, 64
1, 15360, Note_on_c, 9, 36, 64
1, 15599, Note_on_c, 9, 69, 0
1, 15600, Note_on_c, 9, 69, 64
1, 15839, Note_on_c, 9, 36, 0
1, 15839, Note_on_c, 9, 69, 0
1, 15840, Note_on_c, 9, 63, 64
1, 15840, Note_on_c, 9, 37, 64
1, 15840, Note_on_c, 9, 69, 64
1, 15849, Note_on_c, 9, 63, 0
1, 15849, Note_on_c, 9, 37, 0
1, 16079, Note_on_c, 9, 69, 0
1, 16080, Note_on_c, 9, 69, 64
1, 16080, Note_on_c, 9, 36, 64
1, 16319, Note_on_c, 9, 69, 0
1, 16319, Note_on_c, 9, 36, 0
1, 16320, Note_on_c, 9, 69, 64
1, 16320, Note_on_c, 9, 36, 64
1, 16559, Note_on_c, 9, 69, 0
1, 16560, Note_on_c, 9, 62, 64
1, 16560, Note_on_c, 9, 69, 64
1, 16799, Note_on_c, 9, 36, 0
1, 16799, Note_on_c, 9, 62, 0
1, 16799, Note_on_c, 9, 69, 0
1, 16800, Note_on_c, 9, 64, 64
1, 16800, Note_on_c, 9, 37, 64
1, 16800, Note_on_c, 9, 51, 64
1, 16800, Note_on_c, 9, 69, 64
1, 16809, Note_on_c, 9, 64, 0
1, 16809, Note_on_c, 9, 37, 0
1, 16809, Note_on_c, 9, 51, 0
1, 17039, Note_on_c, 9, 69, 0
1, 17040, Note_on_c, 9, 64, 64
1, 17040, Note_on_c, 9, 69, 64
1, 17049, Note_on_c, 9, 64, 0
1, 17279, Note_on_c, 9, 69, 0
1, 17280, Note_on_c, 9, 69, 64
1, 17280, Note_on_c, 9, 36, 64
1, 17519, Note_on_c, 9, 69, 0
1, 17520, Note_on_c, 9, 69, 64
1, 17759, Note_on_c, 9, 36, 0
1, 17759, Note_on_c, 9, 69, 0
1, 17760, Note_on_c, 9, 63, 64
1, 17760, Note_on_c, 9, 37, 64
1, 17760, Note_on_c, 9, 69, 64
1, 17769, Note_on_c, 9, 63, 0
1, 17769, Note_on_c, 9, 37, 0
1, 17999, Note_on_c, 9, 69, 0
1, 18000, Note_on_c, 9, 37, 64
1, 18000, Note_on_c, 9, 69, 64
1, 18000, Note_on_c, 9, 36, 64
1, 18009, Note_on_c, 9, 37, 0
1, 18239, Note_on_c, 9, 69, 0
1, 18239, Note_on_c, 9, 36, 0
1, 18240, Note_on_c, 9, 69, 64
1, 18240, Note_on_c, 9, 36, 64
1, 18479, Note_on_c, 9, 69, 0
1, 18480, Note_on_c, 9, 62, 64
1, 18480, Note_on_c, 9, 69, 64
1, 18599, Note_on_c, 9, 62, 0
1, 18599, Note_on_c, 9, 69, 0
1, 18600, Note_on_c, 9, 37, 64
1, 18602, Note_on_c, 9, 37, 0
1, 18705, Note_on_c, 9, 64, 64
1, 18705, Note_on_c, 9, 64, 0
1, 18705, Note_on_c, 9, 51, 64
1, 18705, Note_on_c, 9, 51, 0
1, 18705, Note_on_c, 9, 69, 64
1, 18719, Note_on_c, 9, 36, 0
1, 18720, Note_on_c, 9, 51, 64
1, 18720, Note_on_c, 9, 36, 64
1, 18727, Note_on_c, 9, 51, 0
1, 18944, Note_on_c, 9, 69, 0
1, 18960, Note_on_c, 9, 64, 64
1, 18960, Note_on_c, 9, 69, 64
1, 18969, Note_on_c, 9, 64, 0
1, 19199, Note_on_c, 9, 36, 0
1, 19199, Note_on_c, 9, 69, 0
1, 19200, Note_on_c, 9, 69, 64
1, 19200, Note_on_c, 9, 36, 64
1, 19439, Note_on_c, 9, 69, 0
1, 19440, Note_on_c, 9, 69, 64
1, 19679, Note_on_c, 9, 36, 0
1, 19679, Note_on_c, 9, 69, 0
1, 19680, Note_on_c, 9, 63, 64
1, 19680, Note_on_c, 9, 37, 64
1, 19680, Note_on_c, 9, 69, 64
1, 19689, Note_on_c, 9, 63, 0
1, 19689, Note_on_c, 9, 37, 0
1, 19919, Note_on_c, 9, 69, 0
1, 19920, Note_on_c, 9, 69, 64
1, 19920, Note_on_c, 9, 36, 64
1, 20159, Note_on_c, 9, 69, 0
1, 20159, Note_on_c, 9, 36, 0
1, 20160, Note_on_c, 9, 69, 64
1, 20160, Note_on_c, 9, 36, 64
1, 20399, Note_on_c, 9, 69, 0
1, 20400, Note_on_c, 9, 62, 64
1, 20400, Note_on_c, 9, 69, 64
1, 20639, Note_on_c, 9, 36, 0
1, 20639, Note_on_c, 9, 62, 0
1, 20639, Note_on_c, 9, 69, 0
1, 20640, Note_on_c, 9, 64, 64
1, 20640, Note_on_c, 9, 37, 64
1, 20640, Note_on_c, 9, 51, 64
1, 20640, Note_on_c, 9, 69, 64
1, 20649, Note_on_c, 9, 64, 0
1, 20649, Note_on_c, 9, 37, 0
1, 20649, Note_on_c, 9, 51, 0
1, 20879, Note_on_c, 9, 69, 0
1, 20880, Note_on_c, 9, 64, 64
1, 20880, Note_on_c, 9, 69, 64
1, 20889, Note_on_c, 9, 64, 0
1, 21119, Note_on_c, 9, 69, 0
1, 21120, Note_on_c, 9, 69, 64
1, 21120, Note_on_c, 9, 36, 64
1, 21359, Note_on_c, 9, 69, 0
1, 21360, Note_on_c, 9, 37, 64
1, 21360, Note_on_c, 9, 69, 64
1, 21369, Note_on_c, 9, 37, 0
1, 21599, Note_on_c, 9, 36, 0
1, 21599, Note_on_c, 9, 69, 0
1, 21600, Note_on_c, 9, 37, 64
1, 21600, Note_on_c, 9, 37, 0
1, 21600, Note_on_c, 9, 69, 64
1, 21630, Note_on_c, 9, 63, 64
1, 21632, Note_on_c, 9, 63, 0
1, 21839, Note_on_c, 9, 69, 0
1, 21840, Note_on_c, 9, 37, 64
1, 21840, Note_on_c, 9, 37, 0
1, 21840, Note_on_c, 9, 36, 64
1, 21860, Note_on_c, 9, 69, 64
1, 21899, Note_on_c, 9, 69, 0
1, 22079, Note_on_c, 9, 36, 0
1, 22080, Note_on_c, 9, 69, 64
1, 22080, Note_on_c, 9, 36, 64
1, 22319, Note_on_c, 9, 69, 0
1, 22320, Note_on_c, 9, 37, 64
1, 22320, Note_on_c, 9, 37, 0
1, 22320, Note_on_c, 9, 69, 64
1, 22350, Note_on_c, 9, 62, 64
1, 22439, Note_on_c, 9, 62, 0
1, 22559, Note_on_c, 9, 36, 0
1, 22559, Note_on_c, 9, 69, 0
1, 22560, Note_on_c, 9, 37, 64
1, 22560, Note_on_c, 9, 37, 0
1, 22560, Note_on_c, 9, 51, 64
1, 22560, Note_on_c, 9, 51, 0
1, 22560, Note_on_c, 9, 69, 64
1, 22590, Note_on_c, 9, 64, 64
1, 22592, Note_on_c, 9, 64, 0
1, 22799, Note_on_c, 9, 69, 0
1, 22800, Note_on_c, 9, 69, 64
1, 22800, Note_on_c, 9, 36, 64
1, 22815, Note_on_c, 9, 64, 64
1, 22822, Note_on_c, 9, 64, 0
1, 23039, Note_on_c, 9, 69, 0
1, 23039, Note_on_c, 9, 36, 0
1, 23040, Note_on_c, 9, 69, 64
1, 23040, Note_on_c, 9, 36, 64
1, 23279, Note_on_c, 9, 69, 0
1, 23280, Note_on_c, 9, 69, 64
1, 23519, Note_on_c, 9, 36, 0
1, 23519, Note_on_c, 9, 69, 0
1, 23520, Note_on_c, 9, 63, 64
1, 23520, Note_on_c, 9, 37, 64
1, 23520, Note_on_c, 9, 69, 64
1, 23529, Note_on_c, 9, 63, 0
1, 23529, Note_on_c, 9, 37, 0
1, 23759, Note_on_c, 9, 69, 0
1, 23760, Note_on_c, 9, 69, 64
1, 23760, Note_on_c, 9, 36, 64
1, 23999, Note_on_c, 9, 69, 0
1, 23999, Note_on_c, 9, 36, 0
1, 24000, Note_on_c, 9, 69, 64
1, 24000, Note_on_c, 9, 36, 64
1, 24239, Note_on_c, 9, 69, 0
1, 24240, Note_on_c, 9, 62, 64
1, 24240, Note_on_c, 9, 69, 64
1, 24479, Note_on_c, 9, 36, 0
1, 24479, Note_on_c, 9, 62, 0
1, 24479, Note_on_c, 9, 69, 0
1, 24480, Note_on_c, 9, 51, 64
1, 24480, Note_on_c, 9, 51, 0
1, 24480, Note_on_c, 9, 69, 64
1, 24480, Note_on_c, 9, 36, 64
1, 24510, Note_on_c, 9, 64, 64
1, 24510, Note_on_c, 9, 37, 64
1, 24512, Note_on_c, 9, 64, 0
1, 24512, Note_on_c, 9, 37, 0
1, 24719, Note_on_c, 9, 69, 0
1, 24720, Note_on_c, 9, 64, 64
1, 24720, Note_on_c, 9, 69, 64
1, 24729, Note_on_c, 9, 64, 0
1, 24959, Note_on_c, 9, 36, 0
1, 24959, Note_on_c, 9, 69, 0
1, 24960, Note_on_c, 9, 69, 64
1, 24960, Note_on_c, 9, 36, 64
1, 25199, Note_on_c, 9, 69, 0
1, 25200, Note_on_c, 9, 69, 64
1, 25439, Note_on_c, 9, 36, 0
1, 25439, Note_on_c, 9, 69, 0
1, 25440, Note_on_c, 9, 63, 64
1, 25440, Note_on_c, 9, 37, 64
1, 25440, Note_on_c, 9, 69, 64
1, 25449, Note_on_c, 9, 63, 0
1, 25449, Note_on_c, 9, 37, 0
1, 25679, Note_on_c, 9, 69, 0
1, 25680, Note_on_c, 9, 69, 64
1, 25680, Note_on_c, 9, 36, 64
1, 25919, Note_on_c, 9, 69, 0
1, 25919, Note_on_c, 9, 36, 0
1, 25920, Note_on_c, 9, 69, 64
1, 25920, Note_on_c, 9, 36, 64
1, 26159, Note_on_c, 9, 69, 0
1, 26160, Note_on_c, 9, 69, 64
1, 26190, Note_on_c, 9, 62, 64
1, 26279, Note_on_c, 9, 62, 0
1, 26339, Note_on_c, 9, 69, 0
1, 26340, Note_on_c, 9, 37, 64
1, 26340, Note_on_c, 9, 51, 64
1, 26341, Note_on_c, 9, 37, 0
1, 26341, Note_on_c, 9, 51, 0
1, 26399, Note_on_c, 9, 36, 0
1, 26400, Note_on_c, 9, 64, 64
1, 26400, Note_on_c, 9, 69, 64
1, 26409, Note_on_c, 9, 64, 0
1, 26639, Note_on_c, 9, 69, 0
1, 26640, Note_on_c, 9, 69, 64
1, 26640, Note_on_c, 9, 36, 64
1, 26655, Note_on_c, 9, 64, 64
1, 26662, Note_on_c, 9, 64, 0
1, 26879, Note_on_c, 9, 69, 0
1, 26879, Note_on_c, 9, 36, 0
1, 26880, Note_on_c, 9, 69, 64
1, 26880, Note_on_c, 9, 36, 64
1, 27119, Note_on_c, 9, 69, 0
1, 27120, Note_on_c, 9, 69, 64
1, 27359, Note_on_c, 9, 36, 0
1, 27359, Note_on_c, 9, 69, 0
1, 27360, Note_on_c, 9, 37, 64
1, 27360, Note_on_c, 9, 37, 0
1, 27390, Note_on_c, 9, 63, 64
1, 27390, Note_on_c, 9, 69, 64
1, 27392, Note_on_c, 9, 63, 0
1, 27479, Note_on_c, 9, 69, 0
1, 27600, Note_on_c, 9, 69, 64
1, 27600, Note_on_c, 9, 36, 64
1, 27839, Note_on_c, 9, 69, 0
1, 27839, Note_on_c, 9, 36, 0
1, 27840, Note_on_c, 9, 69, 64
1, 27840, Note_on_c, 9, 36, 64
1, 28079, Note_on_c, 9, 69, 0
1, 28079, Note_on_c, 9, 36, 0
1, 28080, Note_on_c, 9, 62, 64
1, 28080, Note_on_c, 9, 69, 64
1, 28080, Note_on_c, 9, 36, 64
1, 28095, Note_on_c, 9, 37, 64
1, 28102, Note_on_c, 9, 37, 0
1, 28319, Note_on_c, 9, 62, 0
1, 28319, Note_on_c, 9, 69, 0
1, 28319, Note_on_c, 9, 36, 0
1, 28320, Note_on_c, 9, 64, 64
1, 28320, Note_on_c, 9, 64, 0
1, 28320, Note_on_c, 9, 37, 64
1, 28320, Note_on_c, 9, 37, 0
1, 28320, Note_on_c, 9, 51, 64
1, 28320, Note_on_c, 9, 51, 0
1, 28340, Note_on_c, 9, 69, 64
1, 28379, Note_on_c, 9, 69, 0
1, 28560, Note_on_c, 9, 64, 64
1, 28560, Note_on_c, 9, 64, 0
1, 28560, Note_on_c, 9, 36, 64
1, 28580, Note_on_c, 9, 69, 64
1, 28619, Note_on_c, 9, 69, 0
1, 28799, Note_on_c, 9, 36, 0
1, 28800, Note_on_c, 9, 69, 64
1, 28800, Note_on_c, 9, 36, 64
1, 29039, Note_on_c, 9, 69, 0
1, 29040, Note_on_c, 9, 37, 64
1, 29040, Note_on_c, 9, 69, 64
1, 29049, Note_on_c, 9, 37, 0
1, 29279, Note_on_c, 9, 36, 0
1, 29279, Note_on_c, 9, 69, 0
1, 29280, Note_on_c, 9, 63, 64
1, 29280, Note_on_c, 9, 37, 64
1, 29280, Note_on_c, 9, 69, 64
1, 29289, Note_on_c, 9, 63, 0
1, 29289, Note_on_c, 9, 37, 0
1, 29519, Note_on_c, 9, 69, 0
1, 29520, Note_on_c, 9, 69, 64
1, 29520, Note_on_c, 9, 36, 64
1, 29759, Note_on_c, 9, 69, 0
1, 29759, Note_on_c, 9, 36, 0
1, 29760, Note_on_c, 9, 69, 64
1, 29760, Note_on_c, 9, 36, 64
1, 29999, Note_on_c, 9, 69, 0
1, 29999, Note_on_c, 9, 36, 0
1, 30000, Note_on_c, 9, 69, 64
1, 30000, Note_on_c, 9, 36, 64
1, 30015, Note_on_c, 9, 62, 64
1, 30119, Note_on_c, 9, 36, 0
1, 30120, Note_on_c, 9, 36, 64
1, 30239, Note_on_c, 9, 69, 0
1, 30239, Note_on_c, 9, 62, 0
1, 30239, Note_on_c, 9, 36, 0
1, 30240, Note_on_c, 9, 64, 64
1, 30240, Note_on_c, 9, 37, 64
1, 30240, Note_on_c, 9, 51, 64
1, 30240, Note_on_c, 9, 69, 64
1, 30249, Note_on_c, 9, 64, 0
1, 30249, Note_on_c, 9, 37, 0
1, 30249, Note_on_c, 9, 51, 0
1, 30479, Note_on_c, 9, 69, 0
1, 30480, Note_on_c, 9, 37, 64
1, 30480, Note_on_c, 9, 37, 0
1, 30480, Note_on_c, 9, 69, 64
1, 30480, Note_on_c, 9, 36, 64
1, 30495, Note_on_c, 9, 64, 64
1, 30502, Note_on_c, 9, 64, 0
1, 30719, Note_on_c, 9, 69, 0
1, 30719, Note_on_c, 9, 36, 0
1, 30720, Note_on_c, 9, 37, 64
1, 30720, Note_on_c, 9, 69, 64
1, 30720, Note_on_c, 9, 36, 64
1, 30729, Note_on_c, 9, 37, 0
1, 30959, Note_on_c, 9, 69, 0
1, 30960, Note_on_c, 9, 69, 64
1, 31199, Note_on_c, 9, 36, 0
1, 31199, Note_on_c, 9, 69, 0
1, 31200, Note_on_c, 9, 37, 64
1, 31200, Note_on_c, 9, 37, 0
1, 31215, Note_on_c, 9, 63, 64
1, 31215, Note_on_c, 9, 69, 64
1, 31222, Note_on_c, 9, 63, 0
1, 31439, Note_on_c, 9, 69, 0
1, 31440, Note_on_c, 9, 69, 64
1, 31440, Note_on_c, 9, 36, 64
1, 31679, Note_on_c, 9, 69, 0
1, 31679, Note_on_c, 9, 36, 0
1, 31680, Note_on_c, 9, 69, 64
1, 31680, Note_on_c, 9, 36, 64
1, 31919, Note_on_c, 9, 69, 0
1, 31920, Note_on_c, 9, 69, 64
1, 31950, Note_on_c, 9, 62, 64
1, 32039, Note_on_c, 9, 62, 0
1, 32159, Note_on_c, 9, 36, 0
1, 32159, Note_on_c, 9, 69, 0
1, 32160, Note_on_c, 9, 64, 64
1, 32160, Note_on_c, 9, 37, 64
1, 32160, Note_on_c, 9, 51, 64
1, 32160, Note_on_c, 9, 69, 64
1, 32169, Note_on_c, 9, 64, 0
1, 32169, Note_on_c, 9, 37, 0
1, 32169, Note_on_c, 9, 51, 0
1, 32399, Note_on_c, 9, 69, 0
1, 32400, Note_on_c, 9, 64, 64
1, 32400, Note_on_c, 9, 69, 64
1, 32409, Note_on_c, 9, 64, 0
1, 32639, Note_on_c, 9, 69, 0
1, 32640, Note_on_c, 9, 69, 64
1, 32640, Note_on_c, 9, 36, 64
1, 32879, Note_on_c, 9, 69, 0
1, 32880, Note_on_c, 9, 69, 64
1, 33119, Note_on_c, 9, 36, 0
1, 33119, Note_on_c, 9, 69, 0
1, 33120, Note_on_c, 9, 63, 64
1, 33120, Note_on_c, 9, 37, 64
1, 33120, Note_on_c, 9, 69, 64
1, 33129, Note_on_c, 9, 63, 0
1, 33129, Note_on_c, 9, 37, 0
1, 33359, Note_on_c, 9, 69, 0
1, 33360, Note_on_c, 9, 69, 64
1, 33360, Note_on_c, 9, 36, 64
1, 33599, Note_on_c, 9, 69, 0
1, 33599, Note_on_c, 9, 36, 0
1, 33600, Note_on_c, 9, 69, 64
1, 33600, Note_on_c, 9, 36, 64
1, 33839, Note_on_c, 9, 69, 0
1, 33839, Note_on_c, 9, 36, 0
1, 33840, Note_on_c, 9, 62, 64
1, 33840, Note_on_c, 9, 69, 64
1, 33840, Note_on_c, 9, 36, 64
1, 34079, Note_on_c, 9, 62, 0
1, 34079, Note_on_c, 9, 69, 0
1, 34079, Note_on_c, 9, 36, 0
1, 34080, Note_on_c, 9, 64, 64
1, 34080, Note_on_c, 9, 37, 64
1, 34080, Note_on_c, 9, 51, 64
1, 34080, Note_on_c, 9, 69, 64
1, 34089, Note_on_c, 9, 64, 0
1, 34089, Note_on_c, 9, 37, 0
1, 34089, Note_on_c, 9, 51, 0
1, 34319, Note_on_c, 9, 69, 0
1, 34320, Note_on_c, 9, 64, 64
1, 34320, Note_on_c, 9, 69, 64
1, 34320, Note_on_c, 9, 36, 64
1, 34329, Note_on_c, 9, 64, 0
1, 34559, Note_on_c, 9, 69, 0
1, 34559, Note_on_c, 9, 36, 0
1, 34560, Note_on_c, 9, 69, 64
1, 34560, Note_on_c, 9, 36, 64
1, 34799, Note_on_c, 9, 69, 0
1, 34800, Note_on_c, 9, 69, 64
1, 35039, Note_on_c, 9, 36, 0
1, 35039, Note_on_c, 9, 69, 0
1, 35040, Note_on_c, 9, 63, 64
1, 35040, Note_on_c, 9, 37, 64
1, 35040, Note_on_c, 9, 69, 64
1, 35049, Note_on_c, 9, 63, 0
1, 35049, Note_on_c, 9, 37, 0
1, 35279, Note_on_c, 9, 69, 0
1, 35280, Note_on_c, 9, 69, 64
1, 35280, Note_on_c, 9, 36, 64
1, 35459, Note_on_c, 9, 69, 0
1, 35460, Note_on_c, 9, 69, 64
1, 35519, Note_on_c, 9, 36, 0
1, 35519, Note_on_c, 9, 69, 0
1, 35520, Note_on_c, 9, 36, 64
1, 35730, Note_on_c, 9, 37, 64
1, 35730, Note_on_c, 9, 37, 0
1, 35730, Note_on_c, 9, 69, 64
1, 35759, Note_on_c, 9, 36, 0
1, 35760, Note_on_c, 9, 62, 64
1, 35760, Note_on_c, 9, 36, 64
1, 35849, Note_on_c, 9, 69, 0
1, 35879, Note_on_c, 9, 62, 0
1, 35880, Note_on_c, 9, 37, 64
1, 35881, Note_on_c, 9, 37, 0
1, 35940, Note_on_c, 9, 51, 64
1, 35940, Note_on_c, 9, 69, 64
1, 35941, Note_on_c, 9, 51, 0
1, 35999, Note_on_c, 9, 36, 0
1, 35999, Note_on_c, 9, 69, 0
1, 36000, Note_on_c, 9, 64, 64
1, 36009, Note_on_c, 9, 64, 0
1, 36240, Note_on_c, 9, 69, 64
1, 36240, Note_on_c, 9, 36, 64
1, 36299, Note_on_c, 9, 69, 0
1, 36300, Note_on_c, 9, 64, 64
1, 36300, Note_on_c, 9, 37, 64
1, 36306, Note_on_c, 9, 64, 0
1, 36306, Note_on_c, 9, 37, 0
1, 36479, Note_on_c, 9, 36, 0
1, 36480, Note_on_c, 9, 37, 64
1, 36480, Note_on_c, 9, 69, 64
1, 36480, Note_on_c, 9, 36, 64
1, 36500, Note_on_c, 9, 37, 0
1, 36959, Note_on_c, 9, 69, 0
1, 36959, Note_on_c, 9, 36, 0
1, 36960, Note_on_c, 9, 63, 64
1, 36980, Note_on_c, 9, 63, 0
1, 37680, Note_on_c, 9, 62, 64
1, 37799, Note_on_c, 9, 62, 0
1, 37800, Note_on_c, 9, 37, 64
1, 37804, Note_on_c, 9, 37, 0
1, 37920, Note_on_c, 9, 37, 64
1, 37920, Note_on_c, 9, 37, 0
1, 37920, Note_on_c, 9, 51, 64
1, 37920, Note_on_c, 9, 51, 0
1, 37935, Note_on_c, 9, 64, 64
1, 37942, Note_on_c, 9, 64, 0
1, 38160, Note_on_c, 9, 64, 64
1, 38160, Note_on_c, 9, 37, 64
1, 38160, Note_on_c, 9, 36, 64
1, 38169, Note_on_c, 9, 64, 0
1, 38169, Note_on_c, 9, 37, 0
1, 38399, Note_on_c, 9, 36, 0
1, 38400, Note_on_c, 9, 69, 64
1, 38400, Note_on_c, 9, 36, 64
1, 38639, Note_on_c, 9, 69, 0
1, 38640, Note_on_c, 9, 69, 64
1, 38879, Note_on_c, 9, 36, 0
1, 38879, Note_on_c, 9, 69, 0
1, 38880, Note_on_c, 9, 63, 64
1, 38880, Note_on_c, 9, 37, 64
1, 38880, Note_on_c, 9, 69, 64
1, 38889, Note_on_c, 9, 63, 0
1, 38889, Note_on_c, 9, 37, 0
1, 39119, Note_on_c, 9, 69, 0
1, 39120, Note_on_c, 9, 69, 64
1, 39120, Note_on_c, 9, 36, 64
1, 39359, Note_on_c, 9, 69, 0
1, 39359, Note_on_c, 9, 36, 0
1, 39360, Note_on_c, 9, 69, 64
1, 39360, Note_on_c, 9, 36, 64
1, 39599, Note_on_c, 9, 69, 0
1, 39600, Note_on_c, 9, 62, 64
1, 39600, Note_on_c, 9, 69, 64
1, 39839, Note_on_c, 9, 36, 0
1, 39839, Note_on_c, 9, 62, 0
1, 39839, Note_on_c, 9, 69, 0
1, 39840, Note_on_c, 9, 64, 64
1, 39840, Note_on_c, 9, 37, 64
1, 39840, Note_on_c, 9, 51, 64
1, 39840, Note_on_c, 9, 69, 64
1, 39840, Note_on_c, 9, 36, 64
1, 39849, Note_on_c, 9, 64, 0
1, 39849, Note_on_c, 9, 37, 0
1, 39849, Note_on_c, 9, 51, 0
1, 40079, Note_on_c, 9, 69, 0
1, 40080, Note_on_c, 9, 64, 64
1, 40080, Note_on_c, 9, 69, 64
1, 40089, Note_on_c, 9, 64, 0
1, 40319, Note_on_c, 9, 36, 0
1, 40319, Note_on_c, 9, 69, 0
1, 40320, Note_on_c, 9, 69, 64
1, 40320, Note_on_c, 9, 36, 64
1, 40559, Note_on_c, 9, 69, 0
1, 40559, Note_on_c, 9, 36, 0
1, 40560, Note_on_c, 9, 69, 64
1, 40560, Note_on_c, 9, 36, 64
1, 40739, Note_on_c, 9, 69, 0
1, 40740, Note_on_c, 9, 63, 64
1, 40740, Note_on_c, 9, 63, 0
1, 40785, Note_on_c, 9, 37, 64
1, 40785, Note_on_c, 9, 37, 0
1, 40785, Note_on_c, 9, 69, 64
1, 40799, Note_on_c, 9, 36, 0
1, 41024, Note_on_c, 9, 69, 0
1, 41040, Note_on_c, 9, 69, 64
1, 41040, Note_on_c, 9, 36, 64
1, 41279, Note_on_c, 9, 69, 0
1, 41279, Note_on_c, 9, 36, 0
1, 41280, Note_on_c, 9, 69, 64
1, 41280, Note_on_c, 9, 36, 64
1, 41519, Note_on_c, 9, 69, 0
1, 41520, Note_on_c, 9, 62, 64
1, 41520, Note_on_c, 9, 69, 64
1, 41759, Note_on_c, 9, 36, 0
1, 41759, Note_on_c, 9, 62, 0
1, 41759, Note_on_c, 9, 69, 0
1, 41760, Note_on_c, 9, 64, 64
1, 41760, Note_on_c, 9, 37, 64
1, 41760, Note_on_c, 9, 51, 64
1, 41760, Note_on_c, 9, 69, 64
1, 41769, Note_on_c, 9, 64, 0
1, 41769, Note_on_c, 9, 37, 0
1, 41769, Note_on_c, 9, 51, 0
1, 41999, Note_on_c, 9, 69, 0
1, 42000, Note_on_c, 9, 64, 64
1, 42000, Note_on_c, 9, 69, 64
1, 42000, Note_on_c, 9, 36, 64
1, 42009, Note_on_c, 9, 64, 0
1, 42239, Note_on_c, 9, 69, 0
1, 42239, Note_on_c, 9, 36, 0
1, 42240, Note_on_c, 9, 69, 64
1, 42240, Note_on_c, 9, 36, 64
1, 42479, Note_on_c, 9, 69, 0
1, 42480, Note_on_c, 9, 69, 64
1, 42719, Note_on_c, 9, 36, 0
1, 42719, Note_on_c, 9, 69, 0
1, 42720, Note_on_c, 9, 63, 64
1, 42720, Note_on_c, 9, 37, 64
1, 42720, Note_on_c, 9, 69, 64
1, 42729, Note_on_c, 9, 63, 0
1, 42729, Note_on_c, 9, 37, 0
1, 42959, Note_on_c, 9, 69, 0
1, 42960, Note_on_c, 9, 69, 64
1, 42960, Note_on_c, 9, 36, 64
1, 43199, Note_on_c, 9, 69, 0
1, 43199, Note_on_c, 9, 36, 0
1, 43200, Note_on_c, 9, 69, 64
1, 43200, Note_on_c, 9, 36, 64
1, 43439, Note_on_c, 9, 69, 0
1, 43440, Note_on_c, 9, 62, 64
1, 43440, Note_on_c, 9, 69, 64
1, 43679, Note_on_c, 9, 36, 0
1, 43679, Note_on_c, 9, 62, 0
1, 43679, Note_on_c, 9, 69, 0
1, 43680, Note_on_c, 9, 37, 64
1, 43680, Note_on_c, 9, 37, 0
1, 43680, Note_on_c, 9, 51, 64
1, 43680, Note_on_c, 9, 51, 0
1, 43680, Note_on_c, 9, 69, 64
1, 43680, Note_on_c, 9, 36, 64
1, 43695, Note_on_c, 9, 64, 64
1, 43702, Note_on_c, 9, 64, 0
1, 43919, Note_on_c, 9, 69, 0
1, 43920, Note_on_c, 9, 64, 64
1, 43920, Note_on_c, 9, 37, 64
1, 43920, Note_on_c, 9, 69, 64
1, 43929, Note_on_c, 9, 64, 0
1, 43929, Note_on_c, 9, 37, 0
1, 44159, Note_on_c, 9, 36, 0
1, 44159, Note_on_c, 9, 69, 0
1, 44160, Note_on_c, 9, 69, 64
1, 44160, Note_on_c, 9, 36, 64
1, 44399, Note_on_c, 9, 69, 0
1, 44399, Note_on_c, 9, 36, 0
1, 44400, Note_on_c, 9, 37, 64
1, 44400, Note_on_c, 9, 69, 64
1, 44400, Note_on_c, 9, 36, 64
1, 44409, Note_on_c, 9, 37, 0
1, 44639, Note_on_c, 9, 69, 0
1, 44639, Note_on_c, 9, 36, 0
1, 44640, Note_on_c, 9, 37, 64
1, 44640, Note_on_c, 9, 37, 0
1, 44655, Note_on_c, 9, 63, 64
1, 44655, Note_on_c, 9, 69, 64
1, 44662, Note_on_c, 9, 63, 0
1, 44879, Note_on_c, 9, 69, 0
1, 44880, Note_on_c, 9, 69, 64
1, 44880, Note_on_c, 9, 36, 64
1, 45119, Note_on_c, 9, 69, 0
1, 45119, Note_on_c, 9, 36, 0
1, 45120, Note_on_c, 9, 69, 64
1, 45120, Note_on_c, 9, 36, 64
1, 45359, Note_on_c, 9, 69, 0
1, 45359, Note_on_c, 9, 36, 0
1, 45360, Note_on_c, 9, 62, 64
1, 45360, Note_on_c, 9, 69, 64
1, 45360, Note_on_c, 9, 36, 64
1, 45519, Note_on_c, 9, 36, 0
1, 45520, Note_on_c, 9, 36, 64
1, 45599, Note_on_c, 9, 62, 0
1, 45599, Note_on_c, 9, 69, 0
1, 45599, Note_on_c, 9, 36, 0
1, 45600, Note_on_c, 9, 64, 64
1, 45600, Note_on_c, 9, 37, 64
1, 45600, Note_on_c, 9, 51, 64
1, 45600, Note_on_c, 9, 69, 64
1, 45609, Note_on_c, 9, 64, 0
1, 45609, Note_on_c, 9, 37, 0
1, 45609, Note_on_c, 9, 51, 0
1, 45839, Note_on_c, 9, 69, 0
1, 45840, Note_on_c, 9, 64, 64
1, 45840, Note_on_c, 9, 37, 64
1, 45840, Note_on_c, 9, 69, 64
1, 45849, Note_on_c, 9, 64, 0
1, 45849, Note_on_c, 9, 37, 0
1, 45900, Note_on_c, 9, 36, 64
1, 46079, Note_on_c, 9, 69, 0
1, 46079, Note_on_c, 9, 36, 0
1, 46080, Note_on_c, 9, 69, 64
1, 46080, Note_on_c, 9, 36, 64
1, 46319, Note_on_c, 9, 69, 0
1, 46320, Note_on_c, 9, 69, 64
1, 46559, Note_on_c, 9, 36, 0
1, 46559, Note_on_c, 9, 69, 0
1, 46560, Note_on_c, 9, 63, 64
1, 46560, Note_on_c, 9, 63, 0
1, 46560, Note_on_c, 9, 69, 64
1, 46590, Note_on_c, 9, 37, 64
1, 46592, Note_on_c, 9, 37, 0
1, 46799, Note_on_c, 9, 69, 0
1, 46800, Note_on_c, 9, 69, 64
1, 46800, Note_on_c, 9, 36, 64
1, 47039, Note_on_c, 9, 69, 0
1, 47039, Note_on_c, 9, 36, 0
1, 47040, Note_on_c, 9, 69, 64
1, 47279, Note_on_c, 9, 69, 0
1, 47280, Note_on_c, 9, 62, 64
1, 47280, Note_on_c, 9, 69, 64
1, 47459, Note_on_c, 9, 62, 0
1, 47459, Note_on_c, 9, 69, 0
1, 47460, Note_on_c, 9, 51, 64
1, 47461, Note_on_c, 9, 51, 0
1, 47520, Note_on_c, 9, 64, 64
1, 47520, Note_on_c, 9, 37, 64
1, 47520, Note_on_c, 9, 69, 64
1, 47529, Note_on_c, 9, 64, 0
1, 47529, Note_on_c, 9, 37, 0
1, 47759, Note_on_c, 9, 69, 0
1, 47760, Note_on_c, 9, 64, 64
1, 47760, Note_on_c, 9, 69, 64
1, 47760, Note_on_c, 9, 36, 64
1, 47769, Note_on_c, 9, 64, 0
1, 47999, Note_on_c, 9, 69, 0
1, 47999, Note_on_c, 9, 36, 0
1, 48000, Note_on_c, 9, 69, 64
1, 48000, Note_on_c, 9, 36, 64
1, 48239, Note_on_c, 9, 69, 0
1, 48240, Note_on_c, 9, 69, 64
1, 48479, Note_on_c, 9, 36, 0
1, 48479, Note_on_c, 9, 69, 0
1, 48480, Note_on_c, 9, 63, 64
1, 48480, Note_on_c, 9, 37, 64
1, 48480, Note_on_c, 9, 69, 64
1, 48489, Note_on_c, 9, 63, 0
1, 48489, Note_on_c, 9, 37, 0
1, 48719, Note_on_c, 9, 69, 0
1, 48720, Note_on_c, 9, 69, 64
1, 48720, Note_on_c, 9, 36, 64
1, 48959, Note_on_c, 9, 69, 0
1, 48959, Note_on_c, 9, 36, 0
1, 48960, Note_on_c, 9, 69, 64
1, 49199, Note_on_c, 9, 69, 0
1, 49200, Note_on_c, 9, 62, 64
1, 49200, Note_on_c, 9, 69, 64
1, 49439, Note_on_c, 9, 62, 0
1, 49439, Note_on_c, 9, 69, 0
1, 49440, Note_on_c, 9, 64, 64
1, 49440, Note_on_c, 9, 37, 64
1, 49440, Note_on_c, 9, 51, 64
1, 49440, Note_on_c, 9, 69, 64
1, 49449, Note_on_c, 9, 64, 0
1, 49449, Note_on_c, 9, 37, 0
1, 49449, Note_on_c, 9, 51, 0
1, 49679, Note_on_c, 9, 69, 0
1, 49680, Note_on_c, 9, 64, 64
1, 49680, Note_on_c, 9, 69, 64
1, 49680, Note_on_c, 9, 36, 64
1, 49689, Note_on_c, 9, 64, 0
1, 49919, Note_on_c, 9, 69, 0
1, 49919, Note_on_c, 9, 36, 0
1, 49920, Note_on_c, 9, 69, 64
1, 49920, Note_on_c, 9, 36, 64
1, 50159, Note_on_c, 9, 69, 0
1, 50160, Note_on_c, 9, 69, 64
1, 50399, Note_on_c, 9, 36, 0
1, 50399, Note_on_c, 9, 69, 0
1, 50400, Note_on_c, 9, 63, 64
1, 50400, Note_on_c, 9, 37, 64
1, 50400, Note_on_c, 9, 69, 64
1, 50409, Note_on_c, 9, 63, 0
1, 50409, Note_on_c, 9, 37, 0
1, 50639, Note_on_c, 9, 69, 0
1, 50640, Note_on_c, 9, 37, 64
1, 50640, Note_on_c, 9, 36, 64
1, 50641, Note_on_c, 9, 37, 0
1, 50700, Note_on_c, 9, 69, 64
1, 50879, Note_on_c, 9, 36, 0
1, 50879, Note_on_c, 9, 69, 0
1, 50880, Note_on_c, 9, 69, 64
1, 50880, Note_on_c, 9, 36, 64
1, 51119, Note_on_c, 9, 69, 0
1, 51120, Note_on_c, 9, 62, 64
1, 51120, Note_on_c, 9, 69, 64
1, 51359, Note_on_c, 9, 36, 0
1, 51359, Note_on_c, 9, 62, 0
1, 51359, Note_on_c, 9, 69, 0
1, 51360, Note_on_c, 9, 64, 64
1, 51360, Note_on_c, 9, 37, 64
1, 51360, Note_on_c, 9, 51, 64
1, 51360, Note_on_c, 9, 69, 64
1, 51360, Note_on_c, 9, 36, 64
1, 51369, Note_on_c, 9, 64, 0
1, 51369, Note_on_c, 9, 37, 0
1, 51369, Note_on_c, 9, 51, 0
1, 51599, Note_on_c, 9, 69, 0
1, 51600, Note_on_c, 9, 64, 64
1, 51600, Note_on_c, 9, 37, 64
1, 51600, Note_on_c, 9, 69, 64
1, 51609, Note_on_c, 9, 64, 0
1, 51609, Note_on_c, 9, 37, 0
1, 51839, Note_on_c, 9, 36, 0
1, 51839, Note_on_c, 9, 69, 0
1, 51840, Note_on_c, 9, 69, 64
1, 51840, Note_on_c, 9, 36, 64
1, 52079, Note_on_c, 9, 69, 0
1, 52079, Note_on_c, 9, 36, 0
1, 52080, Note_on_c, 9, 37, 64
1, 52080, Note_on_c, 9, 69, 64
1, 52080, Note_on_c, 9, 36, 64
1, 52086, Note_on_c, 9, 37, 0
1, 52259, Note_on_c, 9, 69, 0
1, 52260, Note_on_c, 9, 63, 64
1, 52260, Note_on_c, 9, 37, 64
1, 52261, Note_on_c, 9, 63, 0
1, 52261, Note_on_c, 9, 37, 0
1, 52319, Note_on_c, 9, 36, 0
1, 52320, Note_on_c, 9, 69, 64
1, 52559, Note_on_c, 9, 69, 0
1, 52560, Note_on_c, 9, 69, 64
1, 52560, Note_on_c, 9, 36, 64
1, 52799, Note_on_c, 9, 69, 0
1, 52799, Note_on_c, 9, 36, 0
1, 52800, Note_on_c, 9, 37, 64
1, 52800, Note_on_c, 9, 69, 64
1, 52809, Note_on_c, 9, 37, 0
1, 53039, Note_on_c, 9, 69, 0
1, 53040, Note_on_c, 9, 62, 64
1, 53040, Note_on_c, 9, 69, 64
1, 53040, Note_on_c, 9, 36, 64
1, 53219, Note_on_c, 9, 62, 0
1, 53219, Note_on_c, 9, 69, 0
1, 53220, Note_on_c, 9, 37, 64
1, 53220, Note_on_c, 9, 51, 64
1, 53220, Note_on_c, 9, 69, 64
1, 53221, Note_on_c, 9, 37, 0
1, 53221, Note_on_c, 9, 51, 0
1, 53279, Note_on_c, 9, 36, 0
1, 53279, Note_on_c, 9, 69, 0
1, 53280, Note_on_c, 9, 64, 64
1, 53280, Note_on_c, 9, 36, 64
1, 53286, Note_on_c, 9, 64, 0
1, 53460, Note_on_c, 9, 37, 64
1, 53460, Note_on_c, 9, 69, 64
1, 53461, Note_on_c, 9, 37, 0
1, 53519, Note_on_c, 9, 69, 0
1, 53520, Note_on_c, 9, 64, 64
1, 53529, Note_on_c, 9, 64, 0
1, 53759, Note_on_c, 9, 36, 0
1, 53760, Note_on_c, 9, 37, 64
1, 53760, Note_on_c, 9, 37, 0
1, 53760, Note_on_c, 9, 36, 64
1, 53780, Note_on_c, 9, 69, 64
1, 53819, Note_on_c, 9, 69, 0
1, 54000, Note_on_c, 9, 69, 64
1, 54239, Note_on_c, 9, 36, 0
1, 54239, Note_on_c, 9, 69, 0
1, 54240, Note_on_c, 9, 63, 64
1, 54240, Note_on_c, 9, 37, 64
1, 54240, Note_on_c, 9, 69, 64
1, 54249, Note_on_c, 9, 63, 0
1, 54249, Note_on_c, 9, 37, 0
1, 54479, Note_on_c, 9, 69, 0
1, 54480, Note_on_c, 9, 69, 64
1, 54480, Note_on_c, 9, 36, 64
1, 54719, Note_on_c, 9, 69, 0
1, 54719, Note_on_c, 9, 36, 0
1, 54720, Note_on_c, 9, 69, 64
1, 54720, Note_on_c, 9, 36, 64
1, 54959, Note_on_c, 9, 69, 0
1, 54960, Note_on_c, 9, 62, 64
1, 54960, Note_on_c, 9, 69, 64
1, 55139, Note_on_c, 9, 62, 0
1, 55139, Note_on_c, 9, 69, 0
1, 55140, Note_on_c, 9, 51, 64
1, 55141, Note_on_c, 9, 51, 0
1, 55199, Note_on_c, 9, 36, 0
1, 55200, Note_on_c, 9, 64, 64
1, 55200, Note_on_c, 9, 37, 64
1, 55200, Note_on_c, 9, 69, 64
1, 55200, Note_on_c, 9, 36, 64
1, 55209, Note_on_c, 9, 64, 0
1, 55209, Note_on_c, 9, 37, 0
1, 55439, Note_on_c, 9, 69, 0
1, 55440, Note_on_c, 9, 64, 64
1, 55440, Note_on_c, 9, 69, 64
1, 55449, Note_on_c, 9, 64, 0
1, 55679, Note_on_c, 9, 36, 0
1, 55679, Note_on_c, 9, 69, 0
1, 55680, Note_on_c, 9, 69, 64
1, 55680, Note_on_c, 9, 36, 64
1, 55919, Note_on_c, 9, 69, 0
1, 55920, Note_on_c, 9, 69, 64
1, 56159, Note_on_c, 9, 36, 0
1, 56159, Note_on_c, 9, 69, 0
1, 56160, Note_on_c, 9, 63, 64
1, 56160, Note_on_c, 9, 37, 64
1, 56160, Note_on_c, 9, 69, 64
1, 56169, Note_on_c, 9, 63, 0
1, 56169, Note_on_c, 9, 37, 0
1, 56399, Note_on_c, 9, 69, 0
1, 56400, Note_on_c, 9, 69, 64
1, 56400, Note_on_c, 9, 36, 64
1, 56639, Note_on_c, 9, 69, 0
1, 56639, Note_on_c, 9, 36, 0
1, 56640, Note_on_c, 9, 69, 64
1, 56640, Note_on_c, 9, 36, 64
1, 56879, Note_on_c, 9, 69, 0
1, 56880, Note_on_c, 9, 62, 64
1, 56880, Note_on_c, 9, 69, 64
1, 57119, Note_on_c, 9, 36, 0
1, 57119, Note_on_c, 9, 62, 0
1, 57119, Note_on_c, 9, 69, 0
1, 57120, Note_on_c, 9, 51, 64
1, 57120, Note_on_c, 9, 51, 0
1, 57120, Note_on_c, 9, 69, 64
1, 57120, Note_on_c, 9, 36, 64
1, 57135, Note_on_c, 9, 64, 64
1, 57135, Note_on_c, 9, 37, 64
1, 57142, Note_on_c, 9, 64, 0
1, 57142, Note_on_c, 9, 37, 0
1, 57359, Note_on_c, 9, 69, 0
1, 57360, Note_on_c, 9, 64, 64
1, 57360, Note_on_c, 9, 69, 64
1, 57369, Note_on_c, 9, 64, 0
1, 57599, Note_on_c, 9, 36, 0
1, 57599, Note_on_c, 9, 69, 0
1, 57600, Note_on_c, 9, 69, 64
1, 57600, Note_on_c, 9, 36, 64
1, 57839, Note_on_c, 9, 69, 0
1, 57839, Note_on_c, 9, 36, 0
1, 57840, Note_on_c, 9, 69, 64
1, 57840, Note_on_c, 9, 36, 64
1, 58079, Note_on_c, 9, 69, 0
1, 58079, Note_on_c, 9, 36, 0
1, 58080, Note_on_c, 9, 63, 64
1, 58080, Note_on_c, 9, 63, 0
1, 58080, Note_on_c, 9, 37, 64
1, 58080, Note_on_c, 9, 37, 0
1, 58100, Note_on_c, 9, 69, 64
1, 58139, Note_on_c, 9, 69, 0
1, 58320, Note_on_c, 9, 69, 64
1, 58320, Note_on_c, 9, 36, 64
1, 58559, Note_on_c, 9, 69, 0
1, 58559, Note_on_c, 9, 36, 0
1, 58560, Note_on_c, 9, 69, 64
1, 58799, Note_on_c, 9, 69, 0
1, 58800, Note_on_c, 9, 62, 64
1, 58800, Note_on_c, 9, 69, 64
1, 59039, Note_on_c, 9, 62, 0
1, 59039, Note_on_c, 9, 69, 0
1, 59040, Note_on_c, 9, 37, 64
1, 59040, Note_on_c, 9, 37, 0
1, 59040, Note_on_c, 9, 51, 64
1, 59040, Note_on_c, 9, 51, 0
1, 59040, Note_on_c, 9, 69, 64
1, 59040, Note_on_c, 9, 36, 64
1, 59070, Note_on_c, 9, 64, 64
1, 59072, Note_on_c, 9, 64, 0
1, 59279, Note_on_c, 9, 69, 0
1, 59279, Note_on_c, 9, 36, 0
1, 59280, Note_on_c, 9, 64, 64
1, 59280, Note_on_c, 9, 69, 64
1, 59280, Note_on_c, 9, 36, 64
1, 59289, Note_on_c, 9, 64, 0
1, 59519, Note_on_c, 9, 69, 0
1, 59519, Note_on_c, 9, 36, 0
1, 59520, Note_on_c, 9, 69, 64
1, 59759, Note_on_c, 9, 69, 0
1, 59760, Note_on_c, 9, 69, 64
1, 59760, Note_on_c, 9, 36, 64
1, 59999, Note_on_c, 9, 69, 0
1, 59999, Note_on_c, 9, 36, 0
1, 60000, Note_on_c, 9, 63, 64
1, 60000, Note_on_c, 9, 63, 0
1, 60000, Note_on_c, 9, 37, 64
1, 60000, Note_on_c, 9, 37, 0
1, 60020, Note_on_c, 9, 69, 64
1, 60059, Note_on_c, 9, 69, 0
1, 60240, Note_on_c, 9, 69, 64
1, 60300, Note_on_c, 9, 36, 64
1, 60479, Note_on_c, 9, 69, 0
1, 60479, Note_on_c, 9, 36, 0
1, 60480, Note_on_c, 9, 69, 64
1, 60480, Note_on_c, 9, 36, 64
1, 60719, Note_on_c, 9, 69, 0
1, 60720, Note_on_c, 9, 62, 64
1, 60750, Note_on_c, 9, 69, 64
1, 60839, Note_on_c, 9, 69, 0
1, 60959, Note_on_c, 9, 36, 0
1, 60959, Note_on_c, 9, 62, 0
1, 60960, Note_on_c, 9, 64, 64
1, 60960, Note_on_c, 9, 37, 64
1, 60960, Note_on_c, 9, 51, 64
1, 60960, Note_on_c, 9, 36, 64
1, 60961, Note_on_c, 9, 64, 0
1, 60961, Note_on_c, 9, 37, 0
1, 60961, Note_on_c, 9, 51, 0
1, 61020, Note_on_c, 9, 69, 64
1, 61199, Note_on_c, 9, 69, 0
1, 61200, Note_on_c, 9, 64, 64
1, 61200, Note_on_c, 9, 64, 0
1, 61200, Note_on_c, 9, 37, 64
1, 61200, Note_on_c, 9, 37, 0
1, 61220, Note_on_c, 9, 69, 64
1, 61247, Note_on_c, 9, 36, 0
1, 61248, Note_on_c, 9, 36, 64
1, 61259, Note_on_c, 9, 69, 0
1, 61343, Note_on_c, 9, 36, 0
1, 61344, Note_on_c, 9, 36, 64
1, 61439, Note_on_c, 9, 36, 0
1, 61440, Note_on_c, 9, 69, 64
1, 61679, Note_on_c, 9, 69, 0
1, 61680, Note_on_c, 9, 69, 64
1, 61859, Note_on_c, 9, 69, 0
1, 61860, Note_on_c, 9, 63, 64
1, 61860, Note_on_c, 9, 37, 64
1, 61861, Note_on_c, 9, 63, 0
1, 61861, Note_on_c, 9, 37, 0
1, 61920, Note_on_c, 9, 69, 64
1, 61920, Note_on_c, 9, 36, 64
1, 62159, Note_on_c, 9, 69, 0
1, 62159, Note_on_c, 9, 36, 0
1, 62160, Note_on_c, 9, 69, 64
1, 62160, Note_on_c, 9, 36, 64
1, 62399, Note_on_c, 9, 69, 0
1, 62399, Note_on_c, 9, 36, 0
1, 62400, Note_on_c, 9, 69, 64
1, 62639, Note_on_c, 9, 69, 0
1, 62640, Note_on_c, 9, 62, 64
1, 62640, Note_on_c, 9, 69, 64
1, 62879, Note_on_c, 9, 62, 0
1, 62879, Note_on_c, 9, 69, 0
1, 62880, Note_on_c, 9, 64, 64
1, 62880, Note_on_c, 9, 37, 64
1, 62880, Note_on_c, 9, 51, 64
1, 62880, Note_on_c, 9, 69, 64
1, 62889, Note_on_c, 9, 64, 0
1, 62889, Note_on_c, 9, 37, 0
1, 62889, Note_on_c, 9, 51, 0
1, 63119, Note_on_c, 9, 69, 0
1, 63120, Note_on_c, 9, 64, 64
1, 63120, Note_on_c, 9, 69, 64
1, 63120, Note_on_c, 9, 36, 64
1, 63129, Note_on_c, 9, 64, 0
1, 63359, Note_on_c, 9, 69, 0
1, 63359, Note_on_c, 9, 36, 0
1, 63360, Note_on_c, 9, 69, 64
1, 63360, Note_on_c, 9, 36, 64
1, 63599, Note_on_c, 9, 69, 0
1, 63600, Note_on_c, 9, 69, 64
1, 63839, Note_on_c, 9, 36, 0
1, 63839, Note_on_c, 9, 69, 0
1, 63840, Note_on_c, 9, 63, 64
1, 63840, Note_on_c, 9, 37, 64
1, 63840, Note_on_c, 9, 69, 64
1, 63849, Note_on_c, 9, 63, 0
1, 63849, Note_on_c, 9, 37, 0
1, 64079, Note_on_c, 9, 69, 0
1, 64080, Note_on_c, 9, 69, 64
1, 64080, Note_on_c, 9, 36, 64
1, 64319, Note_on_c, 9, 69, 0
1, 64319, Note_on_c, 9, 36, 0
1, 64320, Note_on_c, 9, 69, 64
1, 64320, Note_on_c, 9, 36, 64
1, 64559, Note_on_c, 9, 69, 0
1, 64559, Note_on_c, 9, 36, 0
1, 64560, Note_on_c, 9, 62, 64
1, 64560, Note_on_c, 9, 69, 64
1, 64560, Note_on_c, 9, 36, 64
1, 64799, Note_on_c, 9, 62, 0
1, 64799, Note_on_c, 9, 69, 0
1, 64799, Note_on_c, 9, 36, 0
1, 64800, Note_on_c, 9, 64, 64
1, 64800, Note_on_c, 9, 37, 64
1, 64800, Note_on_c, 9, 51, 64
1, 64800, Note_on_c, 9, 69, 64
1, 64806, Note_on_c, 9, 64, 0
1, 64806, Note_on_c, 9, 37, 0
1, 64806, Note_on_c, 9, 51, 0
1, 64979, Note_on_c, 9, 69, 0
1, 64980, Note_on_c, 9, 64, 64
1, 64980, Note_on_c, 9, 69, 64
1, 64981, Note_on_c, 9, 64, 0
1, 65039, Note_on_c, 9, 69, 0
1, 65040, Note_on_c, 9, 37, 64
1, 65040, Note_on_c, 9, 36, 64
1, 65049, Note_on_c, 9, 37, 0
1, 65279, Note_on_c, 9, 36, 0
1, 65280, Note_on_c, 9, 69, 64
1, 65280, Note_on_c, 9, 36, 64
1, 65519, Note_on_c, 9, 69, 0
1, 65520, Note_on_c, 9, 69, 64
1, 65699, Note_on_c, 9, 69, 0
1, 65700, Note_on_c, 9, 69, 64
1, 65759, Note_on_c, 9, 36, 0
1, 65759, Note_on_c, 9, 69, 0
1, 65760, Note_on_c, 9, 63, 64
1, 65760, Note_on_c, 9, 37, 64
1, 65769, Note_on_c, 9, 63, 0
1, 65769, Note_on_c, 9, 37, 0
1, 66000, Note_on_c, 9, 69, 64
1, 66000, Note_on_c, 9, 36, 64
1, 66239, Note_on_c, 9, 69, 0
1, 66239, Note_on_c, 9, 36, 0
1, 66240, Note_on_c, 9, 69, 64
1, 66240, Note_on_c, 9, 36, 64
1, 66419, Note_on_c, 9, 69, 0
1, 66420, Note_on_c, 9, 37, 64
1, 66420, Note_on_c, 9, 69, 64
1, 66421, Note_on_c, 9, 37, 0
1, 66479, Note_on_c, 9, 36, 0
1, 66479, Note_on_c, 9, 69, 0
1, 66480, Note_on_c, 9, 62, 64
1, 66480, Note_on_c, 9, 36, 64
1, 66719, Note_on_c, 9, 62, 0
1, 66719, Note_on_c, 9, 36, 0
1, 66720, Note_on_c, 9, 37, 64
1, 66720, Note_on_c, 9, 37, 0
1, 66720, Note_on_c, 9, 51, 64
1, 66720, Note_on_c, 9, 51, 0
1, 66720, Note_on_c, 9, 69, 64
1, 66720, Note_on_c, 9, 36, 64
1, 66735, Note_on_c, 9, 64, 64
1, 66740, Note_on_c, 9, 64, 0
1, 66899, Note_on_c, 9, 69, 0
1, 66900, Note_on_c, 9, 37, 64
1, 66900, Note_on_c, 9, 37, 0
1, 66945, Note_on_c, 9, 64, 64
1, 66945, Note_on_c, 9, 64, 0
1, 66945, Note_on_c, 9, 69, 64
1, 66959, Note_on_c, 9, 36, 0
1, 66960, Note_on_c, 9, 36, 64
1, 67184, Note_on_c, 9, 69, 0
1, 67199, Note_on_c, 9, 36, 0
1, 67200, Note_on_c, 9, 37, 64
1, 67200, Note_on_c, 9, 69, 64
1, 67200, Note_on_c, 9, 36, 64
1, 67220, Note_on_c, 9, 37, 0
1, 67679, Note_on_c, 9, 69, 0
1, 67679, Note_on_c, 9, 36, 0
1, 67680, Note_on_c, 9, 63, 64
1, 67700, Note_on_c, 9, 63, 0
1, 68400, Note_on_c, 9, 62, 64
1, 68639, Note_on_c, 9, 62, 0
1, 68640, Note_on_c, 9, 64, 64
1, 68640, Note_on_c, 9, 38, 64
1, 68649, Note_on_c, 9, 64, 0
1, 68879, Note_on_c, 9, 38, 0
1, 68880, Note_on_c, 9, 64, 64
1, 68889, Note_on_c, 9, 64, 0
1, 69120, Note_on_c, 9, 51, 64
1, 69120, Note_on_c, 9, 73, 64
1, 69120, Note_on_c, 9, 36, 64
1, 69129, Note_on_c, 9, 51, 0
1, 69359, Note_on_c, 9, 73, 0
1, 69360, Note_on_c, 9, 51, 64
1, 69364, Note_on_c, 9, 51, 0
1, 69480, Note_on_c, 9, 69, 64
1, 69599, Note_on_c, 9, 36, 0
1, 69599, Note_on_c, 9, 69, 0
1, 69600, Note_on_c, 9, 63, 64
1, 69600, Note_on_c, 9, 63, 0
1, 69600, Note_on_c, 9, 38, 64
1, 69600, Note_on_c, 9, 51, 64
1, 69600, Note_on_c, 9, 51, 0
1, 69629, Note_on_c, 9, 38, 0
1, 69630, Note_on_c, 9, 38, 64
1, 69630, Note_on_c, 9, 75, 64
1, 69719, Note_on_c, 9, 75, 0
1, 69839, Note_on_c, 9, 38, 0
1, 69840, Note_on_c, 9, 51, 64
1, 69840, Note_on_c, 9, 36, 64
1, 69849, Note_on_c, 9, 51, 0
1, 70079, Note_on_c, 9, 36, 0
1, 70080, Note_on_c, 9, 51, 64
1, 70080, Note_on_c, 9, 36, 64
1, 70086, Note_on_c, 9, 51, 0
1, 70260, Note_on_c, 9, 51, 64
1, 70261, Note_on_c, 9, 51, 0
1, 70319, Note_on_c, 9, 36, 0
1, 70320, Note_on_c, 9, 62, 64
1, 70320, Note_on_c, 9, 36, 64
1, 70339, Note_on_c, 9, 62, 0
1, 70340, Note_on_c, 9, 75, 64
1, 70379, Note_on_c, 9, 75, 0
1, 70500, Note_on_c, 9, 38, 64
1, 70500, Note_on_c, 9, 51, 64
1, 70500, Note_on_c, 9, 51, 0
1, 70544, Note_on_c, 9, 38, 0
1, 70545, Note_on_c, 9, 64, 64
1, 70545, Note_on_c, 9, 64, 0
1, 70545, Note_on_c, 9, 69, 64
1, 70559, Note_on_c, 9, 36, 0
1, 70724, Note_on_c, 9, 69, 0
1, 70740, Note_on_c, 9, 51, 64
1, 70741, Note_on_c, 9, 51, 0
1, 70800, Note_on_c, 9, 64, 64
1, 70800, Note_on_c, 9, 36, 64
1, 70809, Note_on_c, 9, 64, 0
1, 71039, Note_on_c, 9, 36, 0
1, 71040, Note_on_c, 9, 51, 64
1, 71040, Note_on_c, 9, 51, 0
1, 71040, Note_on_c, 9, 36, 64
1, 71070, Note_on_c, 9, 75, 64
1, 71159, Note_on_c, 9, 75, 0
1, 71280, Note_on_c, 9, 51, 64
1, 71286, Note_on_c, 9, 51, 0
1, 71460, Note_on_c, 9, 51, 64
1, 71460, Note_on_c, 9, 69, 64
1, 71461, Note_on_c, 9, 51, 0
1, 71519, Note_on_c, 9, 36, 0
1, 71519, Note_on_c, 9, 69, 0
1, 71520, Note_on_c, 9, 63, 64
1, 71520, Note_on_c, 9, 38, 64
1, 71526, Note_on_c, 9, 63, 0
1, 71699, Note_on_c, 9, 38, 0
1, 71700, Note_on_c, 9, 51, 64
1, 71701, Note_on_c, 9, 51, 0
1, 71760, Note_on_c, 9, 75, 64
1, 71760, Note_on_c, 9, 36, 64
1, 71999, Note_on_c, 9, 75, 0
1, 71999, Note_on_c, 9, 36, 0
1, 72000, Note_on_c, 9, 51, 64
1, 72000, Note_on_c, 9, 36, 64
1, 72006, Note_on_c, 9, 51, 0
1, 72180, Note_on_c, 9, 51, 64
1, 72181, Note_on_c, 9, 51, 0
1, 72240, Note_on_c, 9, 62, 64
1, 72419, Note_on_c, 9, 62, 0
1, 72420, Note_on_c, 9, 38, 64
1, 72420, Note_on_c, 9, 51, 64
1, 72420, Note_on_c, 9, 69, 64
1, 72421, Note_on_c, 9, 51, 0
1, 72479, Note_on_c, 9, 36, 0
1, 72479, Note_on_c, 9, 38, 0
1, 72479, Note_on_c, 9, 69, 0
1, 72480, Note_on_c, 9, 64, 64
1, 72480, Note_on_c, 9, 75, 64
1, 72489, Note_on_c, 9, 64, 0
1, 72719, Note_on_c, 9, 75, 0
1, 72720, Note_on_c, 9, 64, 64
1, 72720, Note_on_c, 9, 51, 64
1, 72729, Note_on_c, 9, 64, 0
1, 72729, Note_on_c, 9, 51, 0
1, 72960, Note_on_c, 9, 51, 64
1, 72960, Note_on_c, 9, 73, 64
1, 72960, Note_on_c, 9, 36, 64
1, 72969, Note_on_c, 9, 51, 0
1, 73199, Note_on_c, 9, 73, 0
1, 73200, Note_on_c, 9, 51, 64
1, 73209, Note_on_c, 9, 51, 0
1, 73439, Note_on_c, 9, 36, 0
1, 73440, Note_on_c, 9, 38, 64
1, 73440, Note_on_c, 9, 51, 64
1, 73440, Note_on_c, 9, 51, 0
1, 73440, Note_on_c, 9, 69, 64
1, 73469, Note_on_c, 9, 38, 0
1, 73470, Note_on_c, 9, 63, 64
1, 73470, Note_on_c, 9, 38, 64
1, 73470, Note_on_c, 9, 75, 64
1, 73472, Note_on_c, 9, 63, 0
1, 73559, Note_on_c, 9, 38, 0
1, 73559, Note_on_c, 9, 75, 0
1, 73560, Note_on_c, 9, 38, 64
1, 73620, Note_on_c, 9, 36, 64
1, 73679, Note_on_c, 9, 69, 0
1, 73679, Note_on_c, 9, 38, 0
1, 73679, Note_on_c, 9, 36, 0
1, 73680, Note_on_c, 9, 51, 64
1, 73689, Note_on_c, 9, 51, 0
1, 73920, Note_on_c, 9, 51, 64
1, 73920, Note_on_c, 9, 36, 64
1, 73926, Note_on_c, 9, 51, 0
1, 74100, Note_on_c, 9, 51, 64
1, 74101, Note_on_c, 9, 51, 0
1, 74160, Note_on_c, 9, 62, 64
1, 74160, Note_on_c, 9, 75, 64
1, 74399, Note_on_c, 9, 36, 0
1, 74399, Note_on_c, 9, 62, 0
1, 74399, Note_on_c, 9, 75, 0
1, 74400, Note_on_c, 9, 64, 64
1, 74400, Note_on_c, 9, 38, 64
1, 74400, Note_on_c, 9, 51, 64
1, 74400, Note_on_c, 9, 69, 64
1, 74409, Note_on_c, 9, 64, 0
1, 74409, Note_on_c, 9, 51, 0
1, 74639, Note_on_c, 9, 38, 0
1, 74639, Note_on_c, 9, 69, 0
1, 74640, Note_on_c, 9, 64, 64
1, 74640, Note_on_c, 9, 51, 64
1, 74640, Note_on_c, 9, 36, 64
1, 74649, Note_on_c, 9, 64, 0
1, 74649, Note_on_c, 9, 51, 0
1, 74879, Note_on_c, 9, 36, 0
1, 74880, Note_on_c, 9, 51, 64
1, 74880, Note_on_c, 9, 51, 0
1, 74910, Note_on_c, 9, 75, 64
1, 74999, Note_on_c, 9, 75, 0
1, 75120, Note_on_c, 9, 51, 64
1, 75120, Note_on_c, 9, 36, 64
1, 75126, Note_on_c, 9, 51, 0
1, 75300, Note_on_c, 9, 38, 64
1, 75300, Note_on_c, 9, 51, 64
1, 75300, Note_on_c, 9, 69, 64
1, 75301, Note_on_c, 9, 51, 0
1, 75359, Note_on_c, 9, 36, 0
1, 75359, Note_on_c, 9, 38, 0
1, 75359, Note_on_c, 9, 69, 0
1, 75360, Note_on_c, 9, 63, 64
1, 75360, Note_on_c, 9, 36, 64
1, 75366, Note_on_c, 9, 63, 0
1, 75540, Note_on_c, 9, 51, 64
1, 75541, Note_on_c, 9, 51, 0
1, 75600, Note_on_c, 9, 75, 64
1, 75839, Note_on_c, 9, 36, 0
1, 75839, Note_on_c, 9, 75, 0
1, 75840, Note_on_c, 9, 51, 64
1, 75840, Note_on_c, 9, 36, 64
1, 75846, Note_on_c, 9, 51, 0
1, 76020, Note_on_c, 9, 51, 64
1, 76020, Note_on_c, 9, 69, 64
1, 76021, Note_on_c, 9, 51, 0
1, 76079, Note_on_c, 9, 36, 0
1, 76079, Note_on_c, 9, 69, 0
1, 76080, Note_on_c, 9, 62, 64
1, 76080, Note_on_c, 9, 36, 64
1, 76319, Note_on_c, 9, 62, 0
1, 76319, Note_on_c, 9, 36, 0
1, 76320, Note_on_c, 9, 64, 64
1, 76320, Note_on_c, 9, 64, 0
1, 76320, Note_on_c, 9, 38, 64
1, 76320, Note_on_c, 9, 51, 64
1, 76320, Note_on_c, 9, 51, 0
1, 76320, Note_on_c, 9, 69, 64
1, 76320, Note_on_c, 9, 36, 64
1, 76339, Note_on_c, 9, 38, 0
1, 76339, Note_on_c, 9, 69, 0
1, 76340, Note_on_c, 9, 75, 64
1, 76379, Note_on_c, 9, 75, 0
1, 76500, Note_on_c, 9, 51, 64
1, 76501, Note_on_c, 9, 51, 0
1, 76559, Note_on_c, 9, 36, 0
1, 76560, Note_on_c, 9, 64, 64
1, 76560, Note_on_c, 9, 36, 64
1, 76569, Note_on_c, 9, 64, 0
1, 76799, Note_on_c, 9, 36, 0
1, 76800, Note_on_c, 9, 51, 64
1, 76800, Note_on_c, 9, 73, 64
1, 76800, Note_on_c, 9, 36, 64
1, 76809, Note_on_c, 9, 51, 0
1, 77039, Note_on_c, 9, 73, 0
1, 77040, Note_on_c, 9, 51, 64
1, 77049, Note_on_c, 9, 51, 0
1, 77279, Note_on_c, 9, 36, 0
1, 77280, Note_on_c, 9, 63, 64
1, 77280, Note_on_c, 9, 63, 0
1, 77280, Note_on_c, 9, 38, 64
1, 77280, Note_on_c, 9, 51, 64
1, 77280, Note_on_c, 9, 51, 0
1, 77280, Note_on_c, 9, 69, 64
1, 77309, Note_on_c, 9, 38, 0
1, 77310, Note_on_c, 9, 38, 64
1, 77310, Note_on_c, 9, 75, 64
1, 77399, Note_on_c, 9, 75, 0
1, 77460, Note_on_c, 9, 36, 64
1, 77519, Note_on_c, 9, 69, 0
1, 77519, Note_on_c, 9, 38, 0
1, 77519, Note_on_c, 9, 36, 0
1, 77520, Note_on_c, 9, 51, 64
1, 77529, Note_on_c, 9, 51, 0
1, 77760, Note_on_c, 9, 51, 64
1, 77760, Note_on_c, 9, 36, 64
1, 77766, Note_on_c, 9, 51, 0
1, 77940, Note_on_c, 9, 51, 64
1, 77940, Note_on_c, 9, 75, 64
1, 77941, Note_on_c, 9, 51, 0
1, 77999, Note_on_c, 9, 75, 0
1, 78000, Note_on_c, 9, 62, 64
1, 78179, Note_on_c, 9, 62, 0
1, 78180, Note_on_c, 9, 38, 64
1, 78180, Note_on_c, 9, 51, 64
1, 78180, Note_on_c, 9, 69, 64
1, 78181, Note_on_c, 9, 51, 0
1, 78239, Note_on_c, 9, 36, 0
1, 78239, Note_on_c, 9, 38, 0
1, 78239, Note_on_c, 9, 69, 0
1, 78240, Note_on_c, 9, 64, 64
1, 78249, Note_on_c, 9, 64, 0
1, 78480, Note_on_c, 9, 64, 64
1, 78480, Note_on_c, 9, 51, 64
1, 78489, Note_on_c, 9, 64, 0
1, 78489, Note_on_c, 9, 51, 0
1, 78720, Note_on_c, 9, 51, 64
1, 78720, Note_on_c, 9, 51, 0
1, 78720, Note_on_c, 9, 36, 64
1, 78750, Note_on_c, 9, 75, 64
1, 78839, Note_on_c, 9, 75, 0
1, 78960, Note_on_c, 9, 51, 64
1, 78969, Note_on_c, 9, 51, 0
1, 79199, Note_on_c, 9, 36, 0
1, 79200, Note_on_c, 9, 63, 64
1, 79200, Note_on_c, 9, 38, 64
1, 79200, Note_on_c, 9, 51, 64
1, 79200, Note_on_c, 9, 69, 64
1, 79209, Note_on_c, 9, 63, 0
1, 79209, Note_on_c, 9, 51, 0
1, 79439, Note_on_c, 9, 38, 0
1, 79439, Note_on_c, 9, 69, 0
1, 79440, Note_on_c, 9, 51, 64
1, 79440, Note_on_c, 9, 51, 0
1, 79440, Note_on_c, 9, 36, 64
1, 79470, Note_on_c, 9, 75, 64
1, 79559, Note_on_c, 9, 75, 0
1, 79679, Note_on_c, 9, 36, 0
1, 79680, Note_on_c, 9, 51, 64
1, 79689, Note_on_c, 9, 51, 0
1, 79920, Note_on_c, 9, 51, 64
1, 79920, Note_on_c, 9, 51, 0
1, 79920, Note_on_c, 9, 36, 64
1, 79940, Note_on_c, 9, 62, 64
1, 79979, Note_on_c, 9, 62, 0
1, 80159, Note_on_c, 9, 36, 0
1, 80160, Note_on_c, 9, 64, 64
1, 80160, Note_on_c, 9, 38, 64
1, 80160, Note_on_c, 9, 51, 64
1, 80160, Note_on_c, 9, 69, 64
1, 80160, Note_on_c, 9, 75, 64
1, 80169, Note_on_c, 9, 64, 0
1, 80169, Note_on_c, 9, 51, 0
1, 80399, Note_on_c, 9, 38, 0
1, 80399, Note_on_c, 9, 69, 0
1, 80399, Note_on_c, 9, 75, 0
1, 80400, Note_on_c, 9, 64, 64
1, 80400, Note_on_c, 9, 51, 64
1, 80400, Note_on_c, 9, 36, 64
1, 80409, Note_on_c, 9, 64, 0
1, 80409, Note_on_c, 9, 51, 0
1, 80639, Note_on_c, 9, 36, 0
1, 80640, Note_on_c, 9, 51, 64
1, 80640, Note_on_c, 9, 73, 64
1, 80640, Note_on_c, 9, 36, 64
1, 80649, Note_on_c, 9, 51, 0
1, 80879, Note_on_c, 9, 73, 0
1, 80880, Note_on_c, 9, 51, 64
1, 80889, Note_on_c, 9, 51, 0
1, 81119, Note_on_c, 9, 36, 0
1, 81120, Note_on_c, 9, 63, 64
1, 81120, Note_on_c, 9, 38, 64
1, 81120, Note_on_c, 9, 51, 64
1, 81120, Note_on_c, 9, 69, 64
1, 81120, Note_on_c, 9, 75, 64
1, 81129, Note_on_c, 9, 63, 0
1, 81129, Note_on_c, 9, 51, 0
1, 81300, Note_on_c, 9, 36, 64
1, 81359, Note_on_c, 9, 38, 0
1, 81359, Note_on_c, 9, 69, 0
1, 81359, Note_on_c, 9, 75, 0
1, 81359, Note_on_c, 9, 36, 0
1, 81360, Note_on_c, 9, 51, 64
1, 81369, Note_on_c, 9, 51, 0
1, 81600, Note_on_c, 9, 51, 64
1, 81600, Note_on_c, 9, 36, 64
1, 81609, Note_on_c, 9, 51, 0
1, 81839, Note_on_c, 9, 36, 0
1, 81840, Note_on_c, 9, 51, 64
1, 81840, Note_on_c, 9, 62, 64
1, 81840, Note_on_c, 9, 75, 64
1, 81840, Note_on_c, 9, 36, 64
1, 81846, Note_on_c, 9, 51, 0
1, 82019, Note_on_c, 9, 62, 0
1, 82019, Note_on_c, 9, 75, 0
1, 82020, Note_on_c, 9, 38, 64
1, 82020, Note_on_c, 9, 69, 64
1, 82079, Note_on_c, 9, 36, 0
1, 82079, Note_on_c, 9, 38, 0
1, 82079, Note_on_c, 9, 69, 0
1, 82080, Note_on_c, 9, 64, 64
1, 82080, Note_on_c, 9, 51, 64
1, 82089, Note_on_c, 9, 64, 0
1, 82089, Note_on_c, 9, 51, 0
1, 82320, Note_on_c, 9, 64, 64
1, 82320, Note_on_c, 9, 51, 64
1, 82320, Note_on_c, 9, 36, 64
1, 82324, Note_on_c, 9, 64, 0
1, 82324, Note_on_c, 9, 51, 0
1, 82440, Note_on_c, 9, 51, 64
1, 82444, Note_on_c, 9, 51, 0
1, 82559, Note_on_c, 9, 36, 0
1, 82560, Note_on_c, 9, 51, 64
1, 82560, Note_on_c, 9, 75, 64
1, 82560, Note_on_c, 9, 36, 64
1, 82566, Note_on_c, 9, 51, 0
1, 82739, Note_on_c, 9, 75, 0
1, 82740, Note_on_c, 9, 51, 64
1, 82748, Note_on_c, 9, 51, 0
1, 82980, Note_on_c, 9, 63, 64
1, 82980, Note_on_c, 9, 38, 64
1, 82980, Note_on_c, 9, 51, 64
1, 82980, Note_on_c, 9, 69, 64
1, 82981, Note_on_c, 9, 63, 0
1, 82981, Note_on_c, 9, 51, 0
1, 83039, Note_on_c, 9, 36, 0
1, 83039, Note_on_c, 9, 38, 0
1, 83039, Note_on_c, 9, 69, 0
1, 83040, Note_on_c, 9, 36, 64
1, 83250, Note_on_c, 9, 51, 64
1, 83250, Note_on_c, 9, 75, 64
1, 83257, Note_on_c, 9, 51, 0
1, 83279, Note_on_c, 9, 36, 0
1, 83280, Note_on_c, 9, 36, 64
1, 83399, Note_on_c, 9, 36, 0
1, 83400, Note_on_c, 9, 36, 64
1, 83429, Note_on_c, 9, 75, 0
1, 83460, Note_on_c, 9, 51, 64
1, 83461, Note_on_c, 9, 51, 0
1, 83519, Note_on_c, 9, 36, 0
1, 83700, Note_on_c, 9, 51, 64
1, 83701, Note_on_c, 9, 51, 0
1, 83760, Note_on_c, 9, 62, 64
1, 83760, Note_on_c, 9, 36, 64
1, 83775, Note_on_c, 9, 38, 64
1, 83775, Note_on_c, 9, 69, 64
1, 83819, Note_on_c, 9, 38, 0
1, 83819, Note_on_c, 9, 69, 0
1, 83879, Note_on_c, 9, 62, 0
1, 83880, Note_on_c, 9, 38, 64
1, 83939, Note_on_c, 9, 38, 0
1, 83940, Note_on_c, 9, 38, 64
1, 83999, Note_on_c, 9, 36, 0
1, 83999, Note_on_c, 9, 38, 0
1, 84000, Note_on_c, 9, 64, 64
1, 84000, Note_on_c, 9, 51, 64
1, 84000, Note_on_c, 9, 69, 64
1, 84000, Note_on_c, 9, 75, 64
1, 84000, Note_on_c, 9, 36, 64
1, 84009, Note_on_c, 9, 64, 0
1, 84009, Note_on_c, 9, 51, 0
1, 84239, Note_on_c, 9, 69, 0
1, 84239, Note_on_c, 9, 75, 0
1, 84240, Note_on_c, 9, 38, 64
1, 84240, Note_on_c, 9, 51, 64
1, 84240, Note_on_c, 9, 51, 0
1, 84269, Note_on_c, 9, 38, 0
1, 84270, Note_on_c, 9, 64, 64
1, 84270, Note_on_c, 9, 38, 64
1, 84272, Note_on_c, 9, 64, 0
1, 84359, Note_on_c, 9, 38, 0
1, 84360, Note_on_c, 9, 38, 64
1, 84479, Note_on_c, 9, 36, 0
1, 84479, Note_on_c, 9, 38, 0
1, 84480, Note_on_c, 9, 51, 64
1, 84480, Note_on_c, 9, 51, 0
1, 84480, Note_on_c, 9, 36, 64
1, 84500, Note_on_c, 9, 73, 64
1, 84539, Note_on_c, 9, 73, 0
1, 84750, Note_on_c, 9, 51, 64
1, 84752, Note_on_c, 9, 51, 0
1, 84900, Note_on_c, 9, 63, 64
1, 84900, Note_on_c, 9, 38, 64
1, 84900, Note_on_c, 9, 51, 64
1, 84900, Note_on_c, 9, 75, 64
1, 84901, Note_on_c, 9, 63, 0
1, 84901, Note_on_c, 9, 51, 0
1, 84959, Note_on_c, 9, 36, 0
1, 84959, Note_on_c, 9, 38, 0
1, 84959, Note_on_c, 9, 75, 0
1, 84960, Note_on_c, 9, 69, 64
1, 85140, Note_on_c, 9, 36, 64
1, 85199, Note_on_c, 9, 69, 0
1, 85199, Note_on_c, 9, 36, 0
1, 85200, Note_on_c, 9, 51, 64
1, 85209, Note_on_c, 9, 51, 0
1, 85440, Note_on_c, 9, 51, 64
1, 85440, Note_on_c, 9, 36, 64
1, 85446, Note_on_c, 9, 51, 0
1, 85620, Note_on_c, 9, 51, 64
1, 85620, Note_on_c, 9, 75, 64
1, 85621, Note_on_c, 9, 51, 0
1, 85679, Note_on_c, 9, 75, 0
1, 85680, Note_on_c, 9, 62, 64
1, 85799, Note_on_c, 9, 36, 0
1, 85859, Note_on_c, 9, 62, 0
1, 85860, Note_on_c, 9, 38, 64
1, 85860, Note_on_c, 9, 51, 64
1, 85860, Note_on_c, 9, 36, 64
1, 85861, Note_on_c, 9, 51, 0
1, 85919, Note_on_c, 9, 38, 0
1, 85919, Note_on_c, 9, 36, 0
1, 85920, Note_on_c, 9, 64, 64
1, 85920, Note_on_c, 9, 69, 64
1, 85924, Note_on_c, 9, 64, 0
1, 86039, Note_on_c, 9, 69, 0
1, 86040, Note_on_c, 9, 51, 64
1, 86044, Note_on_c, 9, 51, 0
1, 86160, Note_on_c, 9, 64, 64
1, 86169, Note_on_c, 9, 64, 0
1, 86400, Note_on_c, 9, 51, 64
1, 86400, Note_on_c, 9, 75, 64
1, 86400, Note_on_c, 9, 36, 64
1, 86406, Note_on_c, 9, 51, 0
1, 86579, Note_on_c, 9, 75, 0
1, 86580, Note_on_c, 9, 51, 64
1, 86581, Note_on_c, 9, 51, 0
1, 86639, Note_on_c, 9, 36, 0
1, 86640, Note_on_c, 9, 36, 64
1, 86879, Note_on_c, 9, 36, 0
1, 86880, Note_on_c, 9, 63, 64
1, 86880, Note_on_c, 9, 38, 64
1, 86880, Note_on_c, 9, 51, 64
1, 86880, Note_on_c, 9, 69, 64
1, 86886, Note_on_c, 9, 63, 0
1, 86886, Note_on_c, 9, 51, 0
1, 87059, Note_on_c, 9, 38, 0
1, 87059, Note_on_c, 9, 69, 0
1, 87060, Note_on_c, 9, 51, 64
1, 87060, Note_on_c, 9, 51, 0
1, 87100, Note_on_c, 9, 75, 64
1, 87119, Note_on_c, 9, 75, 0
1, 87120, Note_on_c, 9, 36, 64
1, 87300, Note_on_c, 9, 51, 64
1, 87301, Note_on_c, 9, 51, 0
1, 87359, Note_on_c, 9, 36, 0
1, 87480, Note_on_c, 9, 51, 64
1, 87484, Note_on_c, 9, 51, 0
1, 87600, Note_on_c, 9, 62, 64
1, 87600, Note_on_c, 9, 36, 64
1, 87779, Note_on_c, 9, 62, 0
1, 87780, Note_on_c, 9, 38, 64
1, 87810, Note_on_c, 9, 51, 64
1, 87810, Note_on_c, 9, 51, 0
1, 87810, Note_on_c, 9, 69, 64
1, 87810, Note_on_c, 9, 75, 64
1, 87839, Note_on_c, 9, 36, 0
1, 87839, Note_on_c, 9, 38, 0
1, 87840, Note_on_c, 9, 64, 64
1, 87840, Note_on_c, 9, 36, 64
1, 87846, Note_on_c, 9, 64, 0
1, 87989, Note_on_c, 9, 69, 0
1, 87989, Note_on_c, 9, 75, 0
1, 88020, Note_on_c, 9, 51, 64
1, 88021, Note_on_c, 9, 51, 0
1, 88080, Note_on_c, 9, 64, 64
1, 88089, Note_on_c, 9, 64, 0
1, 88319, Note_on_c, 9, 36, 0
1, 88320, Note_on_c, 9, 51, 64
1, 88320, Note_on_c, 9, 73, 64
1, 88320, Note_on_c, 9, 36, 64
1, 88329, Note_on_c, 9, 51, 0
1, 88559, Note_on_c, 9, 73, 0
1, 88560, Note_on_c, 9, 51, 64
1, 88569, Note_on_c, 9, 51, 0
1, 88799, Note_on_c, 9, 36, 0
1, 88800, Note_on_c, 9, 63, 64
1, 88800, Note_on_c, 9, 38, 64
1, 88800, Note_on_c, 9, 51, 64
1, 88800, Note_on_c, 9, 69, 64
1, 88800, Note_on_c, 9, 75, 64
1, 88809, Note_on_c, 9, 63, 0
1, 88809, Note_on_c, 9, 51, 0
1, 89039, Note_on_c, 9, 38, 0
1, 89039, Note_on_c, 9, 69, 0
1, 89039, Note_on_c, 9, 75, 0
1, 89040, Note_on_c, 9, 51, 64
1, 89040, Note_on_c, 9, 36, 64
1, 89049, Note_on_c, 9, 51, 0
1, 89279, Note_on_c, 9, 36, 0
1, 89280, Note_on_c, 9, 51, 64
1, 89280, Note_on_c, 9, 36, 64
1, 89289, Note_on_c, 9, 51, 0
1, 89520, Note_on_c, 9, 51, 64
1, 89520, Note_on_c, 9, 62, 64
1, 89520, Note_on_c, 9, 75, 64
1, 89524, Note_on_c, 9, 51, 0
1, 89639, Note_on_c, 9, 62, 0
1, 89639, Note_on_c, 9, 75, 0
1, 89640, Note_on_c, 9, 38, 64
1, 89640, Note_on_c, 9, 69, 64
1, 89759, Note_on_c, 9, 36, 0
1, 89759, Note_on_c, 9, 38, 0
1, 89759, Note_on_c, 9, 69, 0
1, 89760, Note_on_c, 9, 64, 64
1, 89760, Note_on_c, 9, 51, 64
1, 89766, Note_on_c, 9, 64, 0
1, 89766, Note_on_c, 9, 51, 0
1, 89940, Note_on_c, 9, 64, 64
1, 89941, Note_on_c, 9, 64, 0
1, 90000, Note_on_c, 9, 51, 64
1, 90000, Note_on_c, 9, 36, 64
1, 90006, Note_on_c, 9, 51, 0
1, 90180, Note_on_c, 9, 51, 64
1, 90181, Note_on_c, 9, 51, 0
1, 90239, Note_on_c, 9, 36, 0
1, 90240, Note_on_c, 9, 75, 64
1, 90240, Note_on_c, 9, 36, 64
1, 90479, Note_on_c, 9, 75, 0
1, 90480, Note_on_c, 9, 51, 64
1, 90486, Note_on_c, 9, 51, 0
1, 90660, Note_on_c, 9, 38, 64
1, 90660, Note_on_c, 9, 51, 64
1, 90660, Note_on_c, 9, 51, 0
1, 90660, Note_on_c, 9, 69, 64
1, 90704, Note_on_c, 9, 38, 0
1, 90704, Note_on_c, 9, 69, 0
1, 90705, Note_on_c, 9, 63, 64
1, 90705, Note_on_c, 9, 63, 0
1, 90719, Note_on_c, 9, 36, 0
1, 90900, Note_on_c, 9, 36, 64
1, 90959, Note_on_c, 9, 36, 0
1, 90960, Note_on_c, 9, 51, 64
1, 90960, Note_on_c, 9, 75, 64
1, 90969, Note_on_c, 9, 51, 0
1, 91199, Note_on_c, 9, 75, 0
1, 91200, Note_on_c, 9, 51, 64
1, 91200, Note_on_c, 9, 36, 64
1, 91206, Note_on_c, 9, 51, 0
1, 91380, Note_on_c, 9, 51, 64
1, 91380, Note_on_c, 9, 62, 64
1, 91381, Note_on_c, 9, 51, 0
1, 91439, Note_on_c, 9, 36, 0
1, 91439, Note_on_c, 9, 62, 0
1, 91440, Note_on_c, 9, 69, 64
1, 91440, Note_on_c, 9, 36, 64
1, 91619, Note_on_c, 9, 69, 0
1, 91650, Note_on_c, 9, 64, 64
1, 91650, Note_on_c, 9, 64, 0
1, 91650, Note_on_c, 9, 51, 64
1, 91650, Note_on_c, 9, 51, 0
1, 91650, Note_on_c, 9, 69, 64
1, 91650, Note_on_c, 9, 75, 64
1, 91679, Note_on_c, 9, 36, 0
1, 91680, Note_on_c, 9, 38, 64
1, 91769, Note_on_c, 9, 69, 0
1, 91769, Note_on_c, 9, 75, 0
1, 91919, Note_on_c, 9, 38, 0
1, 91920, Note_on_c, 9, 51, 64
1, 91920, Note_on_c, 9, 51, 0
1, 91920, Note_on_c, 9, 36, 64
1, 91935, Note_on_c, 9, 64, 64
1, 91935, Note_on_c, 9, 38, 64
1, 91942, Note_on_c, 9, 64, 0
1, 92159, Note_on_c, 9, 36, 0
1, 92159, Note_on_c, 9, 38, 0
1, 92160, Note_on_c, 9, 51, 64
1, 92160, Note_on_c, 9, 73, 64
1, 92160, Note_on_c, 9, 36, 64
1, 92169, Note_on_c, 9, 51, 0
1, 92399, Note_on_c, 9, 73, 0
1, 92400, Note_on_c, 9, 51, 64
1, 92409, Note_on_c, 9, 51, 0
1, 92639, Note_on_c, 9, 36, 0
1, 92640, Note_on_c, 9, 63, 64
1, 92640, Note_on_c, 9, 38, 64
1, 92640, Note_on_c, 9, 51, 64
1, 92640, Note_on_c, 9, 69, 64
1, 92640, Note_on_c, 9, 75, 64
1, 92649, Note_on_c, 9, 63, 0
1, 92649, Note_on_c, 9, 51, 0
1, 92879, Note_on_c, 9, 38, 0
1, 92879, Note_on_c, 9, 69, 0
1, 92879, Note_on_c, 9, 75, 0
1, 92880, Note_on_c, 9, 51, 64
1, 92880, Note_on_c, 9, 36, 64
1, 92889, Note_on_c, 9, 51, 0
1, 93119, Note_on_c, 9, 36, 0
1, 93120, Note_on_c, 9, 51, 64
1, 93129, Note_on_c, 9, 51, 0
1, 93360, Note_on_c, 9, 51, 64
1, 93360, Note_on_c, 9, 62, 64
1, 93360, Note_on_c, 9, 75, 64
1, 93360, Note_on_c, 9, 36, 64
1, 93369, Note_on_c, 9, 51, 0
1, 93599, Note_on_c, 9, 62, 0
1, 93599, Note_on_c, 9, 75, 0
1, 93599, Note_on_c, 9, 36, 0
1, 93600, Note_on_c, 9, 64, 64
1, 93600, Note_on_c, 9, 38, 64
1, 93600, Note_on_c, 9, 51, 64
1, 93600, Note_on_c, 9, 69, 64
1, 93609, Note_on_c, 9, 64, 0
1, 93609, Note_on_c, 9, 51, 0
1, 93839, Note_on_c, 9, 38, 0
1, 93839, Note_on_c, 9, 69, 0
1, 93840, Note_on_c, 9, 64, 64
1, 93840, Note_on_c, 9, 64, 0
1, 93840, Note_on_c, 9, 36, 64
1, 93855, Note_on_c, 9, 51, 64
1, 93860, Note_on_c, 9, 51, 0
1, 94020, Note_on_c, 9, 51, 64
1, 94021, Note_on_c, 9, 51, 0
1, 94079, Note_on_c, 9, 36, 0
1, 94080, Note_on_c, 9, 75, 64
1, 94080, Note_on_c, 9, 36, 64
1, 94319, Note_on_c, 9, 75, 0
1, 94320, Note_on_c, 9, 51, 64
1, 94326, Note_on_c, 9, 51, 0
1, 94500, Note_on_c, 9, 51, 64
1, 94501, Note_on_c, 9, 51, 0
1, 94559, Note_on_c, 9, 36, 0
1, 94560, Note_on_c, 9, 63, 64
1, 94560, Note_on_c, 9, 63, 0
1, 94560, Note_on_c, 9, 38, 64
1, 94589, Note_on_c, 9, 38, 0
1, 94590, Note_on_c, 9, 38, 64
1, 94590, Note_on_c, 9, 69, 64
1, 94679, Note_on_c, 9, 69, 0
1, 94799, Note_on_c, 9, 38, 0
1, 94800, Note_on_c, 9, 75, 64
1, 94800, Note_on_c, 9, 36, 64
1, 94815, Note_on_c, 9, 51, 64
1, 94822, Note_on_c, 9, 51, 0
1, 95039, Note_on_c, 9, 75, 0
1, 95039, Note_on_c, 9, 36, 0
1, 95040, Note_on_c, 9, 51, 64
1, 95040, Note_on_c, 9, 36, 64
1, 95049, Note_on_c, 9, 51, 0
1, 95279, Note_on_c, 9, 36, 0
1, 95280, Note_on_c, 9, 51, 64
1, 95280, Note_on_c, 9, 51, 0
1, 95280, Note_on_c, 9, 36, 64
1, 95300, Note_on_c, 9, 62, 64
1, 95339, Note_on_c, 9, 62, 0
1, 95460, Note_on_c, 9, 64, 64
1, 95460, Note_on_c, 9, 38, 64
1, 95460, Note_on_c, 9, 51, 64
1, 95461, Note_on_c, 9, 64, 0
1, 95461, Note_on_c, 9, 51, 0
1, 95519, Note_on_c, 9, 36, 0
1, 95519, Note_on_c, 9, 38, 0
1, 95520, Note_on_c, 9, 69, 64
1, 95520, Note_on_c, 9, 75, 64
1, 95520, Note_on_c, 9, 36, 64
1, 95759, Note_on_c, 9, 69, 0
1, 95759, Note_on_c, 9, 75, 0
1, 95759, Note_on_c, 9, 36, 0
1, 95760, Note_on_c, 9, 64, 64
1, 95760, Note_on_c, 9, 51, 64
1, 95760, Note_on_c, 9, 36, 64
1, 95769, Note_on_c, 9, 64, 0
1, 95769, Note_on_c, 9, 51, 0
1, 95999, Note_on_c, 9, 36, 0
1, 96000, Note_on_c, 9, 51, 64
1, 96000, Note_on_c, 9, 51, 0
1, 96000, Note_on_c, 9, 36, 64
1, 96030, Note_on_c, 9, 73, 64
1, 96119, Note_on_c, 9, 73, 0
1, 96240, Note_on_c, 9, 51, 64
1, 96249, Note_on_c, 9, 51, 0
1, 96479, Note_on_c, 9, 36, 0
1, 96480, Note_on_c, 9, 63, 64
1, 96480, Note_on_c, 9, 63, 0
1, 96480, Note_on_c, 9, 38, 64
1, 96480, Note_on_c, 9, 51, 64
1, 96480, Note_on_c, 9, 51, 0
1, 96480, Note_on_c, 9, 69, 64
1, 96509, Note_on_c, 9, 38, 0
1, 96510, Note_on_c, 9, 38, 64
1, 96510, Note_on_c, 9, 75, 64
1, 96599, Note_on_c, 9, 75, 0
1, 96719, Note_on_c, 9, 69, 0
1, 96719, Note_on_c, 9, 38, 0
1, 96720, Note_on_c, 9, 51, 64
1, 96720, Note_on_c, 9, 36, 64
1, 96729, Note_on_c, 9, 51, 0
1, 96959, Note_on_c, 9, 36, 0
1, 96960, Note_on_c, 9, 51, 64
1, 96960, Note_on_c, 9, 36, 64
1, 96966, Note_on_c, 9, 51, 0
1, 97170, Note_on_c, 9, 51, 64
1, 97170, Note_on_c, 9, 51, 0
1, 97200, Note_on_c, 9, 38, 64
1, 97200, Note_on_c, 9, 62, 64
1, 97200, Note_on_c, 9, 69, 64
1, 97223, Note_on_c, 9, 38, 0
1, 97223, Note_on_c, 9, 62, 0
1, 97223, Note_on_c, 9, 69, 0
1, 97224, Note_on_c, 9, 75, 64
1, 97295, Note_on_c, 9, 75, 0
1, 97296, Note_on_c, 9, 38, 64
1, 97319, Note_on_c, 9, 38, 0
1, 97439, Note_on_c, 9, 36, 0
1, 97440, Note_on_c, 9, 64, 64
1, 97440, Note_on_c, 9, 38, 64
1, 97440, Note_on_c, 9, 51, 64
1, 97440, Note_on_c, 9, 69, 64
1, 97440, Note_on_c, 9, 36, 64
1, 97449, Note_on_c, 9, 64, 0
1, 97449, Note_on_c, 9, 51, 0
1, 97679, Note_on_c, 9, 38, 0
1, 97679, Note_on_c, 9, 69, 0
1, 97679, Note_on_c, 9, 36, 0
1, 97680, Note_on_c, 9, 64, 64
1, 97680, Note_on_c, 9, 64, 0
1, 97680, Note_on_c, 9, 75, 64
1, 97680, Note_on_c, 9, 36, 64
1, 97699, Note_on_c, 9, 75, 0
1, 97700, Note_on_c, 9, 38, 64
1, 97739, Note_on_c, 9, 38, 0
1, 97919, Note_on_c, 9, 36, 0
1, 97920, Note_on_c, 9, 38, 64
1, 97920, Note_on_c, 9, 69, 64
1, 97920, Note_on_c, 9, 49, 64
1, 97920, Note_on_c, 9, 49, 0
1, 97920, Note_on_c, 9, 36, 64
1, 97939, Note_on_c, 9, 38, 0
1, 97939, Note_on_c, 9, 69, 0
1, 97940, Note_on_c, 9, 73, 64
1, 97979, Note_on_c, 9, 73, 0
1, 98399, Note_on_c, 9, 36, 0
1, 98400, Note_on_c, 9, 63, 64
1, 98420, Note_on_c, 9, 63, 0
1, 99120, Note_on_c, 9, 62, 64
1, 99359, Note_on_c, 9, 62, 0
1, 99360, Note_on_c, 9, 64, 64
1, 99369, Note_on_c, 9, 64, 0
1, 99600, Note_on_c, 9, 64, 64
1, 99600, Note_on_c, 9, 36, 64
1, 99609, Note_on_c, 9, 64, 0
1, 99839, Note_on_c, 9, 36, 0
1, 99840, Note_on_c, 9, 69, 64
1, 99840, Note_on_c, 9, 36, 64
1, 100079, Note_on_c, 9, 69, 0
1, 100080, Note_on_c, 9, 69, 64
1, 100319, Note_on_c, 9, 36, 0
1, 100319, Note_on_c, 9, 69, 0
1, 100320, Note_on_c, 9, 37, 64
1, 100320, Note_on_c, 9, 37, 0
1, 100320, Note_on_c, 9, 69, 64
1, 100350, Note_on_c, 9, 63, 64
1, 100352, Note_on_c, 9, 63, 0
1, 100559, Note_on_c, 9, 69, 0
1, 100560, Note_on_c, 9, 69, 64
1, 100560, Note_on_c, 9, 36, 64
1, 100799, Note_on_c, 9, 69, 0
1, 100799, Note_on_c, 9, 36, 0
1, 100800, Note_on_c, 9, 69, 64
1, 100800, Note_on_c, 9, 36, 64
1, 101039, Note_on_c, 9, 69, 0
1, 101039, Note_on_c, 9, 36, 0
1, 101040, Note_on_c, 9, 69, 64
1, 101040, Note_on_c, 9, 36, 64
1, 101055, Note_on_c, 9, 62, 64
1, 101279, Note_on_c, 9, 69, 0
1, 101279, Note_on_c, 9, 36, 0
1, 101279, Note_on_c, 9, 62, 0
1, 101280, Note_on_c, 9, 37, 64
1, 101280, Note_on_c, 9, 37, 0
1, 101280, Note_on_c, 9, 51, 64
1, 101280, Note_on_c, 9, 51, 0
1, 101280, Note_on_c, 9, 69, 64
1, 101310, Note_on_c, 9, 64, 64
1, 101312, Note_on_c, 9, 64, 0
1, 101519, Note_on_c, 9, 69, 0
1, 101520, Note_on_c, 9, 64, 64
1, 101520, Note_on_c, 9, 69, 64
1, 101520, Note_on_c, 9, 36, 64
1, 101529, Note_on_c, 9, 64, 0
1, 101759, Note_on_c, 9, 69, 0
1, 101759, Note_on_c, 9, 36, 0
1, 101760, Note_on_c, 9, 69, 64
1, 101760, Note_on_c, 9, 36, 64
1, 101999, Note_on_c, 9, 69, 0
1, 102000, Note_on_c, 9, 69, 64
1, 102179, Note_on_c, 9, 69, 0
1, 102180, Note_on_c, 9, 63, 64
1, 102181, Note_on_c, 9, 63, 0
1, 102239, Note_on_c, 9, 36, 0
1, 102240, Note_on_c, 9, 37, 64
1, 102240, Note_on_c, 9, 69, 64
1, 102249, Note_on_c, 9, 37, 0
1, 102479, Note_on_c, 9, 69, 0
1, 102480, Note_on_c, 9, 69, 64
1, 102480, Note_on_c, 9, 36, 64
1, 102719, Note_on_c, 9, 69, 0
1, 102719, Note_on_c, 9, 36, 0
1, 102720, Note_on_c, 9, 69, 64
1, 102720, Note_on_c, 9, 36, 64
1, 102959, Note_on_c, 9, 69, 0
1, 102960, Note_on_c, 9, 62, 64
1, 102960, Note_on_c, 9, 69, 64
1, 103199, Note_on_c, 9, 36, 0
1, 103199, Note_on_c, 9, 62, 0
1, 103199, Note_on_c, 9, 69, 0
1, 103200, Note_on_c, 9, 37, 64
1, 103200, Note_on_c, 9, 37, 0
1, 103200, Note_on_c, 9, 51, 64
1, 103200, Note_on_c, 9, 51, 0
1, 103200, Note_on_c, 9, 69, 64
1, 103200, Note_on_c, 9, 36, 64
1, 103215, Note_on_c, 9, 64, 64
1, 103222, Note_on_c, 9, 64, 0
1, 103439, Note_on_c, 9, 69, 0
1, 103440, Note_on_c, 9, 64, 64
1, 103440, Note_on_c, 9, 69, 64
1, 103449, Note_on_c, 9, 64, 0
1, 103679, Note_on_c, 9, 36, 0
1, 103679, Note_on_c, 9, 69, 0
1, 103680, Note_on_c, 9, 69, 64
1, 103680, Note_on_c, 9, 36, 64
1, 103919, Note_on_c, 9, 69, 0
1, 103920, Note_on_c, 9, 69, 64
1, 104159, Note_on_c, 9, 36, 0
1, 104159, Note_on_c, 9, 69, 0
1, 104160, Note_on_c, 9, 37, 64
1, 104160, Note_on_c, 9, 37, 0
1, 104160, Note_on_c, 9, 69, 64
1, 104190, Note_on_c, 9, 63, 64
1, 104192, Note_on_c, 9, 63, 0
1, 104340, Note_on_c, 9, 36, 64
1, 104399, Note_on_c, 9, 69, 0
1, 104399, Note_on_c, 9, 36, 0
1, 104400, Note_on_c, 9, 69, 64
1, 104639, Note_on_c, 9, 69, 0
1, 104640, Note_on_c, 9, 69, 64
1, 104640, Note_on_c, 9, 36, 64
1, 104819, Note_on_c, 9, 69, 0
1, 104820, Note_on_c, 9, 69, 64
1, 104879, Note_on_c, 9, 69, 0
1, 104880, Note_on_c, 9, 62, 64
1, 105059, Note_on_c, 9, 62, 0
1, 105060, Note_on_c, 9, 37, 64
1, 105060, Note_on_c, 9, 51, 64
1, 105060, Note_on_c, 9, 69, 64
1, 105061, Note_on_c, 9, 37, 0
1, 105061, Note_on_c, 9, 51, 0
1, 105119, Note_on_c, 9, 36, 0
1, 105119, Note_on_c, 9, 69, 0
1, 105120, Note_on_c, 9, 64, 64
1, 105120, Note_on_c, 9, 36, 64
1, 105129, Note_on_c, 9, 64, 0
1, 105360, Note_on_c, 9, 64, 64
1, 105360, Note_on_c, 9, 69, 64
1, 105369, Note_on_c, 9, 64, 0
1, 105599, Note_on_c, 9, 36, 0
1, 105599, Note_on_c, 9, 69, 0
1, 105600, Note_on_c, 9, 69, 64
1, 105600, Note_on_c, 9, 36, 64
1, 105839, Note_on_c, 9, 69, 0
1, 105839, Note_on_c, 9, 36, 0
1, 105840, Note_on_c, 9, 69, 64
1, 105840, Note_on_c, 9, 36, 64
1, 105959, Note_on_c, 9, 69, 0
1, 105960, Note_on_c, 9, 37, 64
1, 105964, Note_on_c, 9, 37, 0
1, 106079, Note_on_c, 9, 36, 0
1, 106080, Note_on_c, 9, 63, 64
1, 106080, Note_on_c, 9, 69, 64
1, 106089, Note_on_c, 9, 63, 0
1, 106319, Note_on_c, 9, 69, 0
1, 106320, Note_on_c, 9, 69, 64
1, 106320, Note_on_c, 9, 36, 64
1, 106559, Note_on_c, 9, 69, 0
1, 106559, Note_on_c, 9, 36, 0
1, 106560, Note_on_c, 9, 69, 64
1, 106740, Note_on_c, 9, 36, 64
1, 106799, Note_on_c, 9, 69, 0
1, 106799, Note_on_c, 9, 36, 0
1, 106800, Note_on_c, 9, 62, 64
1, 106800, Note_on_c, 9, 69, 64
1, 106979, Note_on_c, 9, 62, 0
1, 106979, Note_on_c, 9, 69, 0
1, 106980, Note_on_c, 9, 37, 64
1, 106980, Note_on_c, 9, 51, 64
1, 106981, Note_on_c, 9, 37, 0
1, 106981, Note_on_c, 9, 51, 0
1, 107040, Note_on_c, 9, 64, 64
1, 107040, Note_on_c, 9, 69, 64
1, 107040, Note_on_c, 9, 36, 64
1, 107049, Note_on_c, 9, 64, 0
1, 107279, Note_on_c, 9, 69, 0
1, 107280, Note_on_c, 9, 64, 64
1, 107280, Note_on_c, 9, 37, 64
1, 107280, Note_on_c, 9, 69, 64
1, 107289, Note_on_c, 9, 64, 0
1, 107289, Note_on_c, 9, 37, 0
1, 107519, Note_on_c, 9, 36, 0
1, 107519, Note_on_c, 9, 69, 0
1, 107520, Note_on_c, 9, 69, 64
1, 107520, Note_on_c, 9, 36, 64
1, 107759, Note_on_c, 9, 69, 0
1, 107760, Note_on_c, 9, 69, 64
1, 107999, Note_on_c, 9, 36, 0
1, 107999, Note_on_c, 9, 69, 0
1, 108000, Note_on_c, 9, 63, 64
1, 108000, Note_on_c, 9, 37, 64
1, 108000, Note_on_c, 9, 69, 64
1, 108009, Note_on_c, 9, 63, 0
1, 108009, Note_on_c, 9, 37, 0
1, 108239, Note_on_c, 9, 69, 0
1, 108240, Note_on_c, 9, 69, 64
1, 108240, Note_on_c, 9, 36, 64
1, 108479, Note_on_c, 9, 69, 0
1, 108479, Note_on_c, 9, 36, 0
1, 108480, Note_on_c, 9, 69, 64
1, 108480, Note_on_c, 9, 36, 64
1, 108719, Note_on_c, 9, 69, 0
1, 108720, Note_on_c, 9, 69, 64
1, 108750, Note_on_c, 9, 62, 64
1, 108839, Note_on_c, 9, 62, 0
1, 108959, Note_on_c, 9, 36, 0
1, 108959, Note_on_c, 9, 69, 0
1, 108960, Note_on_c, 9, 64, 64
1, 108960, Note_on_c, 9, 37, 64
1, 108960, Note_on_c, 9, 51, 64
1, 108960, Note_on_c, 9, 69, 64
1, 108969, Note_on_c, 9, 64, 0
1, 108969, Note_on_c, 9, 37, 0
1, 108969, Note_on_c, 9, 51, 0
1, 109199, Note_on_c, 9, 69, 0
1, 109200, Note_on_c, 9, 64, 64
1, 109200, Note_on_c, 9, 69, 64
1, 109209, Note_on_c, 9, 64, 0
1, 109439, Note_on_c, 9, 69, 0
1, 109440, Note_on_c, 9, 69, 64
1, 109440, Note_on_c, 9, 36, 64
1, 109679, Note_on_c, 9, 69, 0
1, 109679, Note_on_c, 9, 36, 0
1, 109680, Note_on_c, 9, 69, 64
1, 109680, Note_on_c, 9, 36, 64
1, 109919, Note_on_c, 9, 69, 0
1, 109919, Note_on_c, 9, 36, 0
1, 109920, Note_on_c, 9, 63, 64
1, 109920, Note_on_c, 9, 37, 64
1, 109920, Note_on_c, 9, 69, 64
1, 109929, Note_on_c, 9, 63, 0
1, 109929, Note_on_c, 9, 37, 0
1, 110159, Note_on_c, 9, 69, 0
1, 110160, Note_on_c, 9, 69, 64
1, 110160, Note_on_c, 9, 36, 64
1, 110399, Note_on_c, 9, 69, 0
1, 110399, Note_on_c, 9, 36, 0
1, 110400, Note_on_c, 9, 69, 64
1, 110400, Note_on_c, 9, 36, 64
1, 110639, Note_on_c, 9, 69, 0
1, 110640, Note_on_c, 9, 62, 64
1, 110640, Note_on_c, 9, 69, 64
1, 110879, Note_on_c, 9, 36, 0
1, 110879, Note_on_c, 9, 62, 0
1, 110879, Note_on_c, 9, 69, 0
1, 110880, Note_on_c, 9, 64, 64
1, 110880, Note_on_c, 9, 37, 64
1, 110880, Note_on_c, 9, 51, 64
1, 110880, Note_on_c, 9, 69, 64
1, 110889, Note_on_c, 9, 64, 0
1, 110889, Note_on_c, 9, 37, 0
1, 110889, Note_on_c, 9, 51, 0
1, 111119, Note_on_c, 9, 69, 0
1, 111120, Note_on_c, 9, 64, 64
1, 111120, Note_on_c, 9, 69, 64
1, 111120, Note_on_c, 9, 36, 64
1, 111129, Note_on_c, 9, 64, 0
1, 111359, Note_on_c, 9, 69, 0
1, 111359, Note_on_c, 9, 36, 0
1, 111360, Note_on_c, 9, 69, 64
1, 111360, Note_on_c, 9, 36, 64
1, 111599, Note_on_c, 9, 69, 0
1, 111600, Note_on_c, 9, 69, 64
1, 111839, Note_on_c, 9, 36, 0
1, 111839, Note_on_c, 9, 69, 0
1, 111840, Note_on_c, 9, 63, 64
1, 111840, Note_on_c, 9, 37, 64
1, 111840, Note_on_c, 9, 69, 64
1, 111849, Note_on_c, 9, 63, 0
1, 111849, Note_on_c, 9, 37, 0
1, 112079, Note_on_c, 9, 69, 0
1, 112080, Note_on_c, 9, 69, 64
1, 112080, Note_on_c, 9, 36, 64
1, 112319, Note_on_c, 9, 69, 0
1, 112319, Note_on_c, 9, 36, 0
1, 112320, Note_on_c, 9, 69, 64
1, 112320, Note_on_c, 9, 36, 64
1, 112559, Note_on_c, 9, 69, 0
1, 112560, Note_on_c, 9, 62, 64
1, 112560, Note_on_c, 9, 69, 64
1, 112739, Note_on_c, 9, 62, 0
1, 112739, Note_on_c, 9, 69, 0
1, 112740, Note_on_c, 9, 37, 64
1, 112741, Note_on_c, 9, 37, 0
1, 112799, Note_on_c, 9, 36, 0
1, 112800, Note_on_c, 9, 64, 64
1, 112800, Note_on_c, 9, 51, 64
1, 112800, Note_on_c, 9, 69, 64
1, 112800, Note_on_c, 9, 36, 64
1, 112809, Note_on_c, 9, 64, 0
1, 112809, Note_on_c, 9, 51, 0
1, 113039, Note_on_c, 9, 69, 0
1, 113040, Note_on_c, 9, 64, 64
1, 113040, Note_on_c, 9, 69, 64
1, 113049, Note_on_c, 9, 64, 0
1, 113279, Note_on_c, 9, 36, 0
1, 113279, Note_on_c, 9, 69, 0
1, 113280, Note_on_c, 9, 69, 64
1, 113280, Note_on_c, 9, 36, 64
1, 113519, Note_on_c, 9, 69, 0
1, 113519, Note_on_c, 9, 36, 0
1, 113520, Note_on_c, 9, 69, 64
1, 113520, Note_on_c, 9, 36, 64
1, 113759, Note_on_c, 9, 69, 0
1, 113759, Note_on_c, 9, 36, 0
1, 113760, Note_on_c, 9, 63, 64
1, 113760, Note_on_c, 9, 37, 64
1, 113760, Note_on_c, 9, 69, 64
1, 113769, Note_on_c, 9, 63, 0
1, 113769, Note_on_c, 9, 37, 0
1, 113999, Note_on_c, 9, 69, 0
1, 114000, Note_on_c, 9, 37, 64
1, 114000, Note_on_c, 9, 69, 64
1, 114000, Note_on_c, 9, 36, 64
1, 114004, Note_on_c, 9, 37, 0
1, 114119, Note_on_c, 9, 69, 0
1, 114120, Note_on_c, 9, 37, 64
1, 114124, Note_on_c, 9, 37, 0
1, 114239, Note_on_c, 9, 36, 0
1, 114240, Note_on_c, 9, 69, 64
1, 114240, Note_on_c, 9, 36, 64
1, 114419, Note_on_c, 9, 69, 0
1, 114420, Note_on_c, 9, 37, 64
1, 114421, Note_on_c, 9, 37, 0
1, 114480, Note_on_c, 9, 62, 64
1, 114480, Note_on_c, 9, 69, 64
1, 114599, Note_on_c, 9, 62, 0
1, 114599, Note_on_c, 9, 69, 0
1, 114600, Note_on_c, 9, 37, 64
1, 114604, Note_on_c, 9, 37, 0
1, 114719, Note_on_c, 9, 36, 0
1, 114720, Note_on_c, 9, 64, 64
1, 114720, Note_on_c, 9, 64, 0
1, 114720, Note_on_c, 9, 51, 64
1, 114720, Note_on_c, 9, 51, 0
1, 114720, Note_on_c, 9, 36, 64
1, 114740, Note_on_c, 9, 69, 64
1, 114779, Note_on_c, 9, 69, 0
1, 114959, Note_on_c, 9, 36, 0
1, 114960, Note_on_c, 9, 64, 64
1, 114960, Note_on_c, 9, 37, 64
1, 114960, Note_on_c, 9, 69, 64
1, 114960, Note_on_c, 9, 36, 64
1, 114969, Note_on_c, 9, 64, 0
1, 114969, Note_on_c, 9, 37, 0
1, 115199, Note_on_c, 9, 69, 0
1, 115199, Note_on_c, 9, 36, 0
1, 115200, Note_on_c, 9, 69, 64
1, 115200, Note_on_c, 9, 36, 64
1, 115439, Note_on_c, 9, 69, 0
1, 115440, Note_on_c, 9, 69, 64
1, 115619, Note_on_c, 9, 69, 0
1, 115620, Note_on_c, 9, 63, 64
1, 115621, Note_on_c, 9, 63, 0
1, 115679, Note_on_c, 9, 36, 0
1, 115680, Note_on_c, 9, 37, 64
1, 115680, Note_on_c, 9, 69, 64
1, 115689, Note_on_c, 9, 37, 0
1, 115919, Note_on_c, 9, 69, 0
1, 115920, Note_on_c, 9, 69, 64
1, 115920, Note_on_c, 9, 36, 64
1, 116159, Note_on_c, 9, 69, 0
1, 116159, Note_on_c, 9, 36, 0
1, 116160, Note_on_c, 9, 69, 64
1, 116160, Note_on_c, 9, 36, 64
1, 116399, Note_on_c, 9, 69, 0
1, 116400, Note_on_c, 9, 62, 64
1, 116400, Note_on_c, 9, 69, 64
1, 116639, Note_on_c, 9, 36, 0
1, 116639, Note_on_c, 9, 62, 0
1, 116639, Note_on_c, 9, 69, 0
1, 116640, Note_on_c, 9, 64, 64
1, 116640, Note_on_c, 9, 64, 0
1, 116640, Note_on_c, 9, 37, 64
1, 116640, Note_on_c, 9, 37, 0
1, 116640, Note_on_c, 9, 69, 64
1, 116640, Note_on_c, 9, 36, 64
1, 116655, Note_on_c, 9, 51, 64
1, 116662, Note_on_c, 9, 51, 0
1, 116879, Note_on_c, 9, 69, 0
1, 116880, Note_on_c, 9, 69, 64
1, 116910, Note_on_c, 9, 64, 64
1, 116912, Note_on_c, 9, 64, 0
1, 117119, Note_on_c, 9, 36, 0
1, 117119, Note_on_c, 9, 69, 0
1, 117120, Note_on_c, 9, 69, 64
1, 117120, Note_on_c, 9, 36, 64
1, 117359, Note_on_c, 9, 69, 0
1, 117360, Note_on_c, 9, 69, 64
1, 117599, Note_on_c, 9, 36, 0
1, 117599, Note_on_c, 9, 69, 0
1, 117600, Note_on_c, 9, 63, 64
1, 117600, Note_on_c, 9, 37, 64
1, 117600, Note_on_c, 9, 69, 64
1, 117609, Note_on_c, 9, 63, 0
1, 117609, Note_on_c, 9, 37, 0
1, 117839, Note_on_c, 9, 69, 0
1, 117840, Note_on_c, 9, 69, 64
1, 117840, Note_on_c, 9, 36, 64
1, 118079, Note_on_c, 9, 69, 0
1, 118079, Note_on_c, 9, 36, 0
1, 118080, Note_on_c, 9, 69, 64
1, 118080, Note_on_c, 9, 36, 64
1, 118319, Note_on_c, 9, 69, 0
1, 118319, Note_on_c, 9, 36, 0
1, 118320, Note_on_c, 9, 69, 64
1, 118320, Note_on_c, 9, 36, 64
1, 118335, Note_on_c, 9, 62, 64
1, 118559, Note_on_c, 9, 69, 0
1, 118559, Note_on_c, 9, 36, 0
1, 118559, Note_on_c, 9, 62, 0
1, 118560, Note_on_c, 9, 37, 64
1, 118560, Note_on_c, 9, 37, 0
1, 118560, Note_on_c, 9, 51, 64
1, 118560, Note_on_c, 9, 51, 0
1, 118560, Note_on_c, 9, 69, 64
1, 118590, Note_on_c, 9, 64, 64
1, 118592, Note_on_c, 9, 64, 0
1, 118799, Note_on_c, 9, 69, 0
1, 118800, Note_on_c, 9, 37, 64
1, 118800, Note_on_c, 9, 37, 0
1, 118800, Note_on_c, 9, 36, 64
1, 118815, Note_on_c, 9, 64, 64
1, 118815, Note_on_c, 9, 69, 64
1, 118822, Note_on_c, 9, 64, 0
1, 119039, Note_on_c, 9, 36, 0
1, 119039, Note_on_c, 9, 69, 0
1, 119040, Note_on_c, 9, 69, 64
1, 119040, Note_on_c, 9, 36, 64
1, 119279, Note_on_c, 9, 69, 0
1, 119280, Note_on_c, 9, 69, 64
1, 119519, Note_on_c, 9, 36, 0
1, 119519, Note_on_c, 9, 69, 0
1, 119520, Note_on_c, 9, 63, 64
1, 119520, Note_on_c, 9, 37, 64
1, 119520, Note_on_c, 9, 69, 64
1, 119529, Note_on_c, 9, 63, 0
1, 119529, Note_on_c, 9, 37, 0
1, 119759, Note_on_c, 9, 69, 0
1, 119760, Note_on_c, 9, 69, 64
1, 119760, Note_on_c, 9, 36, 64
1, 119999, Note_on_c, 9, 69, 0
1, 119999, Note_on_c, 9, 36, 0
1, 120000, Note_on_c, 9, 69, 64
1, 120000, Note_on_c, 9, 36, 64
1, 120239, Note_on_c, 9, 69, 0
1, 120240, Note_on_c, 9, 62, 64
1, 120240, Note_on_c, 9, 69, 64
1, 120479, Note_on_c, 9, 36, 0
1, 120479, Note_on_c, 9, 62, 0
1, 120479, Note_on_c, 9, 69, 0
1, 120480, Note_on_c, 9, 64, 64
1, 120480, Note_on_c, 9, 37, 64
1, 120480, Note_on_c, 9, 51, 64
1, 120480, Note_on_c, 9, 69, 64
1, 120480, Note_on_c, 9, 36, 64
1, 120489, Note_on_c, 9, 64, 0
1, 120489, Note_on_c, 9, 37, 0
1, 120489, Note_on_c, 9, 51, 0
1, 120719, Note_on_c, 9, 69, 0
1, 120720, Note_on_c, 9, 64, 64
1, 120720, Note_on_c, 9, 69, 64
1, 120729, Note_on_c, 9, 64, 0
1, 120959, Note_on_c, 9, 36, 0
1, 120959, Note_on_c, 9, 69, 0
1, 120960, Note_on_c, 9, 69, 64
1, 120960, Note_on_c, 9, 36, 64
1, 121199, Note_on_c, 9, 69, 0
1, 121200, Note_on_c, 9, 69, 64
1, 121439, Note_on_c, 9, 36, 0
1, 121439, Note_on_c, 9, 69, 0
1, 121440, Note_on_c, 9, 63, 64
1, 121440, Note_on_c, 9, 37, 64
1, 121440, Note_on_c, 9, 69, 64
1, 121449, Note_on_c, 9, 63, 0
1, 121449, Note_on_c, 9, 37, 0
1, 121679, Note_on_c, 9, 69, 0
1, 121680, Note_on_c, 9, 37, 64
1, 121680, Note_on_c, 9, 37, 0
1, 121680, Note_on_c, 9, 36, 64
1, 121700, Note_on_c, 9, 69, 64
1, 121739, Note_on_c, 9, 69, 0
1, 121919, Note_on_c, 9, 36, 0
1, 121920, Note_on_c, 9, 69, 64
1, 121920, Note_on_c, 9, 36, 64
1, 122159, Note_on_c, 9, 69, 0
1, 122159, Note_on_c, 9, 36, 0
1, 122160, Note_on_c, 9, 37, 64
1, 122160, Note_on_c, 9, 37, 0
1, 122160, Note_on_c, 9, 36, 64
1, 122180, Note_on_c, 9, 62, 64
1, 122180, Note_on_c, 9, 69, 64
1, 122219, Note_on_c, 9, 62, 0
1, 122219, Note_on_c, 9, 69, 0
1, 122399, Note_on_c, 9, 36, 0
1, 122400, Note_on_c, 9, 64, 64
1, 122400, Note_on_c, 9, 37, 64
1, 122400, Note_on_c, 9, 51, 64
1, 122400, Note_on_c, 9, 69, 64
1, 122406, Note_on_c, 9, 64, 0
1, 122406, Note_on_c, 9, 37, 0
1, 122406, Note_on_c, 9, 51, 0
1, 122579, Note_on_c, 9, 69, 0
1, 122580, Note_on_c, 9, 37, 64
1, 122581, Note_on_c, 9, 37, 0
1, 122640, Note_on_c, 9, 64, 64
1, 122640, Note_on_c, 9, 69, 64
1, 122640, Note_on_c, 9, 36, 64
1, 122649, Note_on_c, 9, 64, 0
1, 122879, Note_on_c, 9, 69, 0
1, 122879, Note_on_c, 9, 36, 0
1, 122880, Note_on_c, 9, 37, 64
1, 122880, Note_on_c, 9, 69, 64
1, 122880, Note_on_c, 9, 36, 64
1, 122889, Note_on_c, 9, 37, 0
1, 123119, Note_on_c, 9, 69, 0
1, 123120, Note_on_c, 9, 69, 64
1, 123359, Note_on_c, 9, 36, 0
1, 123359, Note_on_c, 9, 69, 0
1, 123360, Note_on_c, 9, 63, 64
1, 123360, Note_on_c, 9, 37, 64
1, 123360, Note_on_c, 9, 69, 64
1, 123369, Note_on_c, 9, 63, 0
1, 123369, Note_on_c, 9, 37, 0
1, 123599, Note_on_c, 9, 69, 0
1, 123600, Note_on_c, 9, 69, 64
1, 123600, Note_on_c, 9, 36, 64
1, 123839, Note_on_c, 9, 69, 0
1, 123839, Note_on_c, 9, 36, 0
1, 123840, Note_on_c, 9, 69, 64
1, 123840, Note_on_c, 9, 36, 64
1, 124079, Note_on_c, 9, 69, 0
1, 124080, Note_on_c, 9, 62, 64
1, 124080, Note_on_c, 9, 69, 64
1, 124319, Note_on_c, 9, 36, 0
1, 124319, Note_on_c, 9, 62, 0
1, 124319, Note_on_c, 9, 69, 0
1, 124320, Note_on_c, 9, 64, 64
1, 124320, Note_on_c, 9, 64, 0
1, 124320, Note_on_c, 9, 37, 64
1, 124320, Note_on_c, 9, 37, 0
1, 124320, Note_on_c, 9, 69, 64
1, 124320, Note_on_c, 9, 36, 64
1, 124335, Note_on_c, 9, 51, 64
1, 124342, Note_on_c, 9, 51, 0
1, 124559, Note_on_c, 9, 69, 0
1, 124560, Note_on_c, 9, 64, 64
1, 124560, Note_on_c, 9, 69, 64
1, 124569, Note_on_c, 9, 64, 0
1, 124799, Note_on_c, 9, 36, 0
1, 124799, Note_on_c, 9, 69, 0
1, 124800, Note_on_c, 9, 69, 64
1, 124800, Note_on_c, 9, 36, 64
1, 125039, Note_on_c, 9, 69, 0
1, 125039, Note_on_c, 9, 36, 0
1, 125040, Note_on_c, 9, 69, 64
1, 125040, Note_on_c, 9, 36, 64
1, 125279, Note_on_c, 9, 69, 0
1, 125279, Note_on_c, 9, 36, 0
1, 125280, Note_on_c, 9, 63, 64
1, 125280, Note_on_c, 9, 37, 64
1, 125280, Note_on_c, 9, 69, 64
1, 125289, Note_on_c, 9, 63, 0
1, 125289, Note_on_c, 9, 37, 0
1, 125519, Note_on_c, 9, 69, 0
1, 125520, Note_on_c, 9, 69, 64
1, 125520, Note_on_c, 9, 36, 64
1, 125759, Note_on_c, 9, 69, 0
1, 125759, Note_on_c, 9, 36, 0
1, 125760, Note_on_c, 9, 69, 64
1, 125760, Note_on_c, 9, 36, 64
1, 125999, Note_on_c, 9, 69, 0
1, 126000, Note_on_c, 9, 62, 64
1, 126000, Note_on_c, 9, 69, 64
1, 126239, Note_on_c, 9, 36, 0
1, 126239, Note_on_c, 9, 62, 0
1, 126239, Note_on_c, 9, 69, 0
1, 126240, Note_on_c, 9, 37, 64
1, 126240, Note_on_c, 9, 37, 0
1, 126240, Note_on_c, 9, 51, 64
1, 126240, Note_on_c, 9, 51, 0
1, 126240, Note_on_c, 9, 69, 64
1, 126240, Note_on_c, 9, 36, 64
1, 126255, Note_on_c, 9, 64, 64
1, 126262, Note_on_c, 9, 64, 0
1, 126479, Note_on_c, 9, 69, 0
1, 126480, Note_on_c, 9, 64, 64
1, 126480, Note_on_c, 9, 69, 64
1, 126489, Note_on_c, 9, 64, 0
1, 126719, Note_on_c, 9, 36, 0
1, 126719, Note_on_c, 9, 69, 0
1, 126720, Note_on_c, 9, 69, 64
1, 126720, Note_on_c, 9, 36, 64
1, 126959, Note_on_c, 9, 69, 0
1, 126960, Note_on_c, 9, 69, 64
1, 127199, Note_on_c, 9, 36, 0
1, 127199, Note_on_c, 9, 69, 0
1, 127200, Note_on_c, 9, 63, 64
1, 127200, Note_on_c, 9, 37, 64
1, 127200, Note_on_c, 9, 69, 64
1, 127209, Note_on_c, 9, 63, 0
1, 127209, Note_on_c, 9, 37, 0
1, 127439, Note_on_c, 9, 69, 0
1, 127440, Note_on_c, 9, 69, 64
1, 127440, Note_on_c, 9, 36, 64
1, 127679, Note_on_c, 9, 69, 0
1, 127679, Note_on_c, 9, 36, 0
1, 127680, Note_on_c, 9, 69, 64
1, 127816, Note_on_c, 9, 69, 0
1, 127817, Note_on_c, 9, 37, 64
1, 127819, Note_on_c, 9, 37, 0
1, 127886, Note_on_c, 9, 69, 64
1, 127920, Note_on_c, 9, 36, 64
1, 127954, Note_on_c, 9, 69, 0
1, 127954, Note_on_c, 9, 62, 64
1, 128022, Note_on_c, 9, 62, 0
1, 128039, Note_on_c, 9, 36, 0
1, 128040, Note_on_c, 9, 36, 64
1, 128057, Note_on_c, 9, 37, 64
1, 128060, Note_on_c, 9, 37, 0
1, 128159, Note_on_c, 9, 36, 0
1, 128160, Note_on_c, 9, 37, 64
1, 128160, Note_on_c, 9, 37, 0
1, 128160, Note_on_c, 9, 51, 64
1, 128160, Note_on_c, 9, 51, 0
1, 128160, Note_on_c, 9, 69, 64
1, 128190, Note_on_c, 9, 64, 64
1, 128192, Note_on_c, 9, 64, 0
1, 128339, Note_on_c, 9, 69, 0
1, 128340, Note_on_c, 9, 37, 64
1, 128341, Note_on_c, 9, 37, 0
1, 128400, Note_on_c, 9, 64, 64
1, 128400, Note_on_c, 9, 69, 64
1, 128400, Note_on_c, 9, 36, 64
1, 128409, Note_on_c, 9, 64, 0
1, 128519, Note_on_c, 9, 36, 0
1, 128520, Note_on_c, 9, 36, 64
1, 128639, Note_on_c, 9, 69, 0
1, 128639, Note_on_c, 9, 36, 0
1, 128640, Note_on_c, 9, 37, 64
1, 128640, Note_on_c, 9, 37, 0
1, 128640, Note_on_c, 9, 36, 64
1, 128660, Note_on_c, 9, 69, 64
1, 128699, Note_on_c, 9, 69, 0
1, 129119, Note_on_c, 9, 36, 0
1, 129120, Note_on_c, 9, 63, 64
1, 129120, Note_on_c, 9, 73, 64
1, 129140, Note_on_c, 9, 63, 0
1, 129599, Note_on_c, 9, 73, 0
1, 129840, Note_on_c, 9, 62, 64
1, 129959, Note_on_c, 9, 62, 0
1, 129960, Note_on_c, 9, 37, 64
1, 129964, Note_on_c, 9, 37, 0
1, 130080, Note_on_c, 9, 64, 64
1, 130080, Note_on_c, 9, 37, 64
1, 130080, Note_on_c, 9, 51, 64
1, 130089, Note_on_c, 9, 64, 0
1, 130089, Note_on_c, 9, 37, 0
1, 130089, Note_on_c, 9, 51, 0
1, 130320, Note_on_c, 9, 64, 64
1, 130320, Note_on_c, 9, 37, 64
1, 130329, Note_on_c, 9, 64, 0
1, 130329, Note_on_c, 9, 37, 0
1, 130560, Note_on_c, 9, 69, 64
1, 130560, Note_on_c, 9, 36, 64
1, 130799, Note_on_c, 9, 69, 0
1, 130800, Note_on_c, 9, 69, 64
1, 131039, Note_on_c, 9, 36, 0
1, 131039, Note_on_c, 9, 69, 0
1, 131040, Note_on_c, 9, 63, 64
1, 131040, Note_on_c, 9, 37, 64
1, 131040, Note_on_c, 9, 69, 64
1, 131049, Note_on_c, 9, 63, 0
1, 131049, Note_on_c, 9, 37, 0
1, 131279, Note_on_c, 9, 69, 0
1, 131280, Note_on_c, 9, 69, 64
1, 131280, Note_on_c, 9, 36, 64
1, 131519, Note_on_c, 9, 69, 0
1, 131519, Note_on_c, 9, 36, 0
1, 131520, Note_on_c, 9, 69, 64
1, 131520, Note_on_c, 9, 36, 64
1, 131759, Note_on_c, 9, 69, 0
1, 131760, Note_on_c, 9, 62, 64
1, 131760, Note_on_c, 9, 69, 64
1, 131999, Note_on_c, 9, 36, 0
1, 131999, Note_on_c, 9, 62, 0
1, 131999, Note_on_c, 9, 69, 0
1, 132000, Note_on_c, 9, 37, 64
1, 132000, Note_on_c, 9, 37, 0
1, 132000, Note_on_c, 9, 36, 64
1, 132015, Note_on_c, 9, 64, 64
1, 132015, Note_on_c, 9, 51, 64
1, 132015, Note_on_c, 9, 69, 64
1, 132022, Note_on_c, 9, 64, 0
1, 132022, Note_on_c, 9, 51, 0
1, 132239, Note_on_c, 9, 69, 0
1, 132240, Note_on_c, 9, 64, 64
1, 132240, Note_on_c, 9, 69, 64
1, 132249, Note_on_c, 9, 64, 0
1, 132479, Note_on_c, 9, 36, 0
1, 132479, Note_on_c, 9, 69, 0
1, 132480, Note_on_c, 9, 69, 64
1, 132480, Note_on_c, 9, 36, 64
1, 132719, Note_on_c, 9, 69, 0
1, 132719, Note_on_c, 9, 36, 0
1, 132720, Note_on_c, 9, 69, 64
1, 132720, Note_on_c, 9, 36, 64
1, 132959, Note_on_c, 9, 69, 0
1, 132959, Note_on_c, 9, 36, 0
1, 132960, Note_on_c, 9, 37, 64
1, 132960, Note_on_c, 9, 37, 0
1, 132990, Note_on_c, 9, 63, 64
1, 132990, Note_on_c, 9, 69, 64
1, 132992, Note_on_c, 9, 63, 0
1, 133079, Note_on_c, 9, 69, 0
1, 133200, Note_on_c, 9, 69, 64
1, 133200, Note_on_c, 9, 36, 64
1, 133439, Note_on_c, 9, 69, 0
1, 133439, Note_on_c, 9, 36, 0
1, 133440, Note_on_c, 9, 69, 64
1, 133440, Note_on_c, 9, 36, 64
1, 133679, Note_on_c, 9, 69, 0
1, 133680, Note_on_c, 9, 62, 64
1, 133680, Note_on_c, 9, 69, 64
1, 133919, Note_on_c, 9, 36, 0
1, 133919, Note_on_c, 9, 62, 0
1, 133919, Note_on_c, 9, 69, 0
1, 133920, Note_on_c, 9, 64, 64
1, 133920, Note_on_c, 9, 37, 64
1, 133920, Note_on_c, 9, 51, 64
1, 133920, Note_on_c, 9, 69, 64
1, 133929, Note_on_c, 9, 64, 0
1, 133929, Note_on_c, 9, 37, 0
1, 133929, Note_on_c, 9, 51, 0
1, 134159, Note_on_c, 9, 69, 0
1, 134160, Note_on_c, 9, 64, 64
1, 134160, Note_on_c, 9, 37, 64
1, 134160, Note_on_c, 9, 69, 64
1, 134160, Note_on_c, 9, 36, 64
1, 134169, Note_on_c, 9, 64, 0
1, 134169, Note_on_c, 9, 37, 0
1, 134399, Note_on_c, 9, 69, 0
1, 134399, Note_on_c, 9, 36, 0
1, 134400, Note_on_c, 9, 37, 64
1, 134400, Note_on_c, 9, 69, 64
1, 134400, Note_on_c, 9, 36, 64
1, 134409, Note_on_c, 9, 37, 0
1, 134639, Note_on_c, 9, 69, 0
1, 134640, Note_on_c, 9, 69, 64
1, 134879, Note_on_c, 9, 36, 0
1, 134879, Note_on_c, 9, 69, 0
1, 134880, Note_on_c, 9, 63, 64
1, 134880, Note_on_c, 9, 37, 64
1, 134880, Note_on_c, 9, 69, 64
1, 134889, Note_on_c, 9, 63, 0
1, 134889, Note_on_c, 9, 37, 0
1, 135119, Note_on_c, 9, 69, 0
1, 135120, Note_on_c, 9, 69, 64
1, 135120, Note_on_c, 9, 36, 64
1, 135359, Note_on_c, 9, 69, 0
1, 135359, Note_on_c, 9, 36, 0
1, 135360, Note_on_c, 9, 69, 64
1, 135360, Note_on_c, 9, 36, 64
1, 135599, Note_on_c, 9, 69, 0
1, 135600, Note_on_c, 9, 62, 64
1, 135600, Note_on_c, 9, 69, 64
1, 135839, Note_on_c, 9, 36, 0
1, 135839, Note_on_c, 9, 62, 0
1, 135839, Note_on_c, 9, 69, 0
1, 135840, Note_on_c, 9, 64, 64
1, 135840, Note_on_c, 9, 37, 64
1, 135840, Note_on_c, 9, 51, 64
1, 135840, Note_on_c, 9, 69, 64
1, 135840, Note_on_c, 9, 36, 64
1, 135849, Note_on_c, 9, 64, 0
1, 135849, Note_on_c, 9, 37, 0
1, 135849, Note_on_c, 9, 51, 0
1, 136079, Note_on_c, 9, 69, 0
1, 136080, Note_on_c, 9, 64, 64
1, 136080, Note_on_c, 9, 69, 64
1, 136089, Note_on_c, 9, 64, 0
1, 136319, Note_on_c, 9, 36, 0
1, 136319, Note_on_c, 9, 69, 0
1, 136320, Note_on_c, 9, 69, 64
1, 136320, Note_on_c, 9, 36, 64
1, 136559, Note_on_c, 9, 69, 0
1, 136559, Note_on_c, 9, 36, 0
1, 136560, Note_on_c, 9, 69, 64
1, 136560, Note_on_c, 9, 36, 64
1, 136799, Note_on_c, 9, 69, 0
1, 136799, Note_on_c, 9, 36, 0
1, 136800, Note_on_c, 9, 63, 64
1, 136800, Note_on_c, 9, 63, 0
1, 136815, Note_on_c, 9, 37, 64
1, 136815, Note_on_c, 9, 69, 64
1, 136822, Note_on_c, 9, 37, 0
1, 137039, Note_on_c, 9, 69, 0
1, 137040, Note_on_c, 9, 69, 64
1, 137040, Note_on_c, 9, 36, 64
1, 137279, Note_on_c, 9, 69, 0
1, 137279, Note_on_c, 9, 36, 0
1, 137280, Note_on_c, 9, 69, 64
1, 137439, Note_on_c, 9, 69, 0
1, 137440, Note_on_c, 9, 37, 64
1, 137442, Note_on_c, 9, 37, 0
1, 137520, Note_on_c, 9, 69, 64
1, 137520, Note_on_c, 9, 36, 64
1, 137535, Note_on_c, 9, 62, 64
1, 137759, Note_on_c, 9, 69, 0
1, 137759, Note_on_c, 9, 36, 0
1, 137759, Note_on_c, 9, 62, 0
1, 137760, Note_on_c, 9, 51, 64
1, 137760, Note_on_c, 9, 51, 0
1, 137760, Note_on_c, 9, 69, 64
1, 137760, Note_on_c, 9, 36, 64
1, 137775, Note_on_c, 9, 64, 64
1, 137775, Note_on_c, 9, 37, 64
1, 137782, Note_on_c, 9, 64, 0
1, 137782, Note_on_c, 9, 37, 0
1, 137999, Note_on_c, 9, 69, 0
1, 138000, Note_on_c, 9, 37, 64
1, 138000, Note_on_c, 9, 37, 0
1, 138015, Note_on_c, 9, 64, 64
1, 138015, Note_on_c, 9, 69, 64
1, 138022, Note_on_c, 9, 64, 0
1, 138239, Note_on_c, 9, 36, 0
1, 138239, Note_on_c, 9, 69, 0
1, 138240, Note_on_c, 9, 37, 64
1, 138240, Note_on_c, 9, 69, 64
1, 138240, Note_on_c, 9, 36, 64
1, 138249, Note_on_c, 9, 37, 0
1, 138479, Note_on_c, 9, 69, 0
1, 138480, Note_on_c, 9, 69, 64
1, 138719, Note_on_c, 9, 36, 0
1, 138719, Note_on_c, 9, 69, 0
1, 138720, Note_on_c, 9, 37, 64
1, 138720, Note_on_c, 9, 37, 0
1, 138720, Note_on_c, 9, 69, 64
1, 138750, Note_on_c, 9, 63, 64
1, 138752, Note_on_c, 9, 63, 0
1, 138959, Note_on_c, 9, 69, 0
1, 138960, Note_on_c, 9, 69, 64
1, 138960, Note_on_c, 9, 36, 64
1, 139199, Note_on_c, 9, 69, 0
1, 139199, Note_on_c, 9, 36, 0
1, 139200, Note_on_c, 9, 69, 64
1, 139200, Note_on_c, 9, 36, 64
1, 139379, Note_on_c, 9, 69, 0
1, 139380, Note_on_c, 9, 37, 64
1, 139381, Note_on_c, 9, 37, 0
1, 139440, Note_on_c, 9, 62, 64
1, 139440, Note_on_c, 9, 69, 64
1, 139619, Note_on_c, 9, 62, 0
1, 139619, Note_on_c, 9, 69, 0
1, 139620, Note_on_c, 9, 51, 64
1, 139621, Note_on_c, 9, 51, 0
1, 139679, Note_on_c, 9, 36, 0
1, 139680, Note_on_c, 9, 64, 64
1, 139680, Note_on_c, 9, 64, 0
1, 139680, Note_on_c, 9, 69, 64
1, 139680, Note_on_c, 9, 36, 64
1, 139710, Note_on_c, 9, 37, 64
1, 139712, Note_on_c, 9, 37, 0
1, 139919, Note_on_c, 9, 69, 0
1, 139920, Note_on_c, 9, 64, 64
1, 139920, Note_on_c, 9, 37, 64
1, 139920, Note_on_c, 9, 69, 64
1, 139929, Note_on_c, 9, 64, 0
1, 139929, Note_on_c, 9, 37, 0
1, 140159, Note_on_c, 9, 36, 0
1, 140159, Note_on_c, 9, 69, 0
1, 140160, Note_on_c, 9, 37, 64
1, 140160, Note_on_c, 9, 69, 64
1, 140160, Note_on_c, 9, 36, 64
1, 140169, Note_on_c, 9, 37, 0
1, 140399, Note_on_c, 9, 69, 0
1, 140400, Note_on_c, 9, 69, 64
1, 140639, Note_on_c, 9, 36, 0
1, 140639, Note_on_c, 9, 69, 0
1, 140640, Note_on_c, 9, 63, 64
1, 140640, Note_on_c, 9, 63, 0
1, 140640, Note_on_c, 9, 69, 64
1, 140670, Note_on_c, 9, 37, 64
1, 140672, Note_on_c, 9, 37, 0
1, 140879, Note_on_c, 9, 69, 0
1, 140880, Note_on_c, 9, 69, 64
1, 140880, Note_on_c, 9, 36, 64
1, 141119, Note_on_c, 9, 69, 0
1, 141119, Note_on_c, 9, 36, 0
1, 141120, Note_on_c, 9, 69, 64
1, 141239, Note_on_c, 9, 69, 0
1, 141240, Note_on_c, 9, 37, 64
1, 141244, Note_on_c, 9, 37, 0
1, 141360, Note_on_c, 9, 69, 64
1, 141360, Note_on_c, 9, 36, 64
1, 141390, Note_on_c, 9, 62, 64
1, 141539, Note_on_c, 9, 69, 0
1, 141569, Note_on_c, 9, 62, 0
1, 141570, Note_on_c, 9, 64, 64
1, 141570, Note_on_c, 9, 64, 0
1, 141570, Note_on_c, 9, 37, 64
1, 141570, Note_on_c, 9, 37, 0
1, 141570, Note_on_c, 9, 51, 64
1, 141570, Note_on_c, 9, 51, 0
1, 141570, Note_on_c, 9, 69, 64
1, 141599, Note_on_c, 9, 36, 0
1, 141809, Note_on_c, 9, 69, 0
1, 141810, Note_on_c, 9, 37, 64
1, 141810, Note_on_c, 9, 37, 0
1, 141840, Note_on_c, 9, 64, 64
1, 141840, Note_on_c, 9, 69, 64
1, 141840, Note_on_c, 9, 36, 64
1, 141849, Note_on_c, 9, 64, 0
1, 142079, Note_on_c, 9, 69, 0
1, 142079, Note_on_c, 9, 36, 0
1, 142080, Note_on_c, 9, 37, 64
1, 142080, Note_on_c, 9, 69, 64
1, 142080, Note_on_c, 9, 36, 64
1, 142089, Note_on_c, 9, 37, 0
1, 142319, Note_on_c, 9, 69, 0
1, 142320, Note_on_c, 9, 69, 64
1, 142559, Note_on_c, 9, 36, 0
1, 142559, Note_on_c, 9, 69, 0
1, 142560, Note_on_c, 9, 63, 64
1, 142560, Note_on_c, 9, 37, 64
1, 142560, Note_on_c, 9, 69, 64
1, 142569, Note_on_c, 9, 63, 0
1, 142569, Note_on_c, 9, 37, 0
1, 142799, Note_on_c, 9, 69, 0
1, 142800, Note_on_c, 9, 69, 64
1, 142800, Note_on_c, 9, 36, 64
1, 143039, Note_on_c, 9, 69, 0
1, 143039, Note_on_c, 9, 36, 0
1, 143040, Note_on_c, 9, 69, 64
1, 143040, Note_on_c, 9, 36, 64
1, 143279, Note_on_c, 9, 69, 0
1, 143280, Note_on_c, 9, 62, 64
1, 143280, Note_on_c, 9, 69, 64
1, 143519, Note_on_c, 9, 36, 0
1, 143519, Note_on_c, 9, 62, 0
1, 143519, Note_on_c, 9, 69, 0
1, 143520, Note_on_c, 9, 64, 64
1, 143520, Note_on_c, 9, 37, 64
1, 143520, Note_on_c, 9, 51, 64
1, 143520, Note_on_c, 9, 69, 64
1, 143520, Note_on_c, 9, 36, 64
1, 143529, Note_on_c, 9, 64, 0
1, 143529, Note_on_c, 9, 37, 0
1, 143529, Note_on_c, 9, 51, 0
1, 143759, Note_on_c, 9, 69, 0
1, 143760, Note_on_c, 9, 64, 64
1, 143760, Note_on_c, 9, 69, 64
1, 143769, Note_on_c, 9, 64, 0
1, 143999, Note_on_c, 9, 36, 0
1, 143999, Note_on_c, 9, 69, 0
1, 144000, Note_on_c, 9, 69, 64
1, 144000, Note_on_c, 9, 36, 64
1, 144239, Note_on_c, 9, 69, 0
1, 144240, Note_on_c, 9, 69, 64
1, 144479, Note_on_c, 9, 36, 0
1, 144479, Note_on_c, 9, 69, 0
1, 144480, Note_on_c, 9, 63, 64
1, 144480, Note_on_c, 9, 37, 64
1, 144480, Note_on_c, 9, 69, 64
1, 144489, Note_on_c, 9, 63, 0
1, 144489, Note_on_c, 9, 37, 0
1, 144719, Note_on_c, 9, 69, 0
1, 144720, Note_on_c, 9, 69, 64
1, 144720, Note_on_c, 9, 36, 64
1, 144839, Note_on_c, 9, 69, 0
1, 144840, Note_on_c, 9, 37, 64
1, 144844, Note_on_c, 9, 37, 0
1, 144959, Note_on_c, 9, 36, 0
1, 144960, Note_on_c, 9, 69, 64
1, 144960, Note_on_c, 9, 36, 64
1, 144975, Note_on_c, 9, 37, 64
1, 144982, Note_on_c, 9, 37, 0
1, 145199, Note_on_c, 9, 69, 0
1, 145200, Note_on_c, 9, 62, 64
1, 145200, Note_on_c, 9, 69, 64
1, 145379, Note_on_c, 9, 62, 0
1, 145379, Note_on_c, 9, 69, 0
1, 145380, Note_on_c, 9, 37, 64
1, 145381, Note_on_c, 9, 37, 0
1, 145439, Note_on_c, 9, 36, 0
1, 145440, Note_on_c, 9, 69, 64
1, 145440, Note_on_c, 9, 36, 64
1, 145455, Note_on_c, 9, 64, 64
1, 145455, Note_on_c, 9, 64, 0
1, 145455, Note_on_c, 9, 51, 64
1, 145455, Note_on_c, 9, 51, 0
1, 145470, Note_on_c, 9, 37, 64
1, 145472, Note_on_c, 9, 37, 0
1, 145679, Note_on_c, 9, 69, 0
1, 145680, Note_on_c, 9, 64, 64
1, 145680, Note_on_c, 9, 37, 64
1, 145680, Note_on_c, 9, 69, 64
1, 145689, Note_on_c, 9, 64, 0
1, 145689, Note_on_c, 9, 37, 0
1, 145919, Note_on_c, 9, 36, 0
1, 145919, Note_on_c, 9, 69, 0
1, 145920, Note_on_c, 9, 69, 64
1, 145920, Note_on_c, 9, 36, 64
1, 146159, Note_on_c, 9, 69, 0
1, 146160, Note_on_c, 9, 69, 64
1, 146399, Note_on_c, 9, 36, 0
1, 146399, Note_on_c, 9, 69, 0
1, 146400, Note_on_c, 9, 63, 64
1, 146400, Note_on_c, 9, 37, 64
1, 146400, Note_on_c, 9, 69, 64
1, 146409, Note_on_c, 9, 63, 0
1, 146409, Note_on_c, 9, 37, 0
1, 146639, Note_on_c, 9, 69, 0
1, 146640, Note_on_c, 9, 69, 64
1, 146640, Note_on_c, 9, 36, 64
1, 146879, Note_on_c, 9, 69, 0
1, 146879, Note_on_c, 9, 36, 0
1, 146880, Note_on_c, 9, 69, 64
1, 146880, Note_on_c, 9, 36, 64
1, 147119, Note_on_c, 9, 69, 0
1, 147120, Note_on_c, 9, 62, 64
1, 147120, Note_on_c, 9, 69, 64
1, 147359, Note_on_c, 9, 36, 0
1, 147359, Note_on_c, 9, 62, 0
1, 147359, Note_on_c, 9, 69, 0
1, 147360, Note_on_c, 9, 37, 64
1, 147360, Note_on_c, 9, 37, 0
1, 147360, Note_on_c, 9, 51, 64
1, 147360, Note_on_c, 9, 51, 0
1, 147360, Note_on_c, 9, 69, 64
1, 147360, Note_on_c, 9, 36, 64
1, 147375, Note_on_c, 9, 64, 64
1, 147382, Note_on_c, 9, 64, 0
1, 147599, Note_on_c, 9, 69, 0
1, 147600, Note_on_c, 9, 69, 64
1, 147630, Note_on_c, 9, 64, 64
1, 147632, Note_on_c, 9, 64, 0
1, 147839, Note_on_c, 9, 36, 0
1, 147839, Note_on_c, 9, 69, 0
1, 147840, Note_on_c, 9, 69, 64
1, 147840, Note_on_c, 9, 36, 64
1, 148079, Note_on_c, 9, 69, 0
1, 148080, Note_on_c, 9, 69, 64
1, 148319, Note_on_c, 9, 36, 0
1, 148319, Note_on_c, 9, 69, 0
1, 148320, Note_on_c, 9, 63, 64
1, 148320, Note_on_c, 9, 37, 64
1, 148320, Note_on_c, 9, 69, 64
1, 148329, Note_on_c, 9, 63, 0
1, 148329, Note_on_c, 9, 37, 0
1, 148559, Note_on_c, 9, 69, 0
1, 148560, Note_on_c, 9, 69, 64
1, 148560, Note_on_c, 9, 36, 64
1, 148799, Note_on_c, 9, 69, 0
1, 148799, Note_on_c, 9, 36, 0
1, 148800, Note_on_c, 9, 69, 64
1, 149039, Note_on_c, 9, 69, 0
1, 149040, Note_on_c, 9, 37, 64
1, 149040, Note_on_c, 9, 37, 0
1, 149040, Note_on_c, 9, 69, 64
1, 149040, Note_on_c, 9, 36, 64
1, 149070, Note_on_c, 9, 62, 64
1, 149159, Note_on_c, 9, 62, 0
1, 149279, Note_on_c, 9, 69, 0
1, 149279, Note_on_c, 9, 36, 0
1, 149280, Note_on_c, 9, 37, 64
1, 149280, Note_on_c, 9, 37, 0
1, 149280, Note_on_c, 9, 36, 64
1, 149310, Note_on_c, 9, 64, 64
1, 149310, Note_on_c, 9, 69, 64
1, 149312, Note_on_c, 9, 64, 0
1, 149399, Note_on_c, 9, 69, 0
1, 149520, Note_on_c, 9, 64, 64
1, 149520, Note_on_c, 9, 69, 64
1, 149529, Note_on_c, 9, 64, 0
1, 149759, Note_on_c, 9, 36, 0
1, 149759, Note_on_c, 9, 69, 0
1, 149760, Note_on_c, 9, 69, 64
1, 149760, Note_on_c, 9, 36, 64
1, 149999, Note_on_c, 9, 69, 0
1, 150000, Note_on_c, 9, 69, 64
1, 150239, Note_on_c, 9, 36, 0
1, 150239, Note_on_c, 9, 69, 0
1, 150240, Note_on_c, 9, 37, 64
1, 150240, Note_on_c, 9, 37, 0
1, 150255, Note_on_c, 9, 63, 64
1, 150255, Note_on_c, 9, 69, 64
1, 150262, Note_on_c, 9, 63, 0
1, 150479, Note_on_c, 9, 69, 0
1, 150480, Note_on_c, 9, 37, 64
1, 150480, Note_on_c, 9, 37, 0
1, 150480, Note_on_c, 9, 36, 64
1, 150510, Note_on_c, 9, 69, 64
1, 150599, Note_on_c, 9, 69, 0
1, 150719, Note_on_c, 9, 36, 0
1, 150720, Note_on_c, 9, 69, 64
1, 150720, Note_on_c, 9, 36, 64
1, 150959, Note_on_c, 9, 69, 0
1, 150960, Note_on_c, 9, 62, 64
1, 150960, Note_on_c, 9, 69, 64
1, 151139, Note_on_c, 9, 62, 0
1, 151139, Note_on_c, 9, 69, 0
1, 151140, Note_on_c, 9, 37, 64
1, 151140, Note_on_c, 9, 69, 64
1, 151141, Note_on_c, 9, 37, 0
1, 151199, Note_on_c, 9, 36, 0
1, 151199, Note_on_c, 9, 69, 0
1, 151200, Note_on_c, 9, 64, 64
1, 151200, Note_on_c, 9, 51, 64
1, 151200, Note_on_c, 9, 36, 64
1, 151209, Note_on_c, 9, 64, 0
1, 151209, Note_on_c, 9, 51, 0
1, 151439, Note_on_c, 9, 36, 0
1, 151440, Note_on_c, 9, 64, 64
1, 151440, Note_on_c, 9, 69, 64
1, 151440, Note_on_c, 9, 36, 64
1, 151449, Note_on_c, 9, 64, 0
1, 151679, Note_on_c, 9, 69, 0
1, 151679, Note_on_c, 9, 36, 0
1, 151680, Note_on_c, 9, 69, 64
1, 151919, Note_on_c, 9, 69, 0
1, 151920, Note_on_c, 9, 69, 64
1, 151920, Note_on_c, 9, 36, 64
1, 152099, Note_on_c, 9, 69, 0
1, 152130, Note_on_c, 9, 37, 64
1, 152130, Note_on_c, 9, 37, 0
1, 152159, Note_on_c, 9, 36, 0
1, 152160, Note_on_c, 9, 63, 64
1, 152160, Note_on_c, 9, 69, 64
1, 152166, Note_on_c, 9, 63, 0
1, 152339, Note_on_c, 9, 69, 0
1, 152370, Note_on_c, 9, 37, 64
1, 152370, Note_on_c, 9, 37, 0
1, 152370, Note_on_c, 9, 69, 64
1, 152400, Note_on_c, 9, 36, 64
1, 152489, Note_on_c, 9, 69, 0
1, 152639, Note_on_c, 9, 36, 0
1, 152640, Note_on_c, 9, 69, 64
1, 152879, Note_on_c, 9, 69, 0
1, 152880, Note_on_c, 9, 69, 64
1, 152880, Note_on_c, 9, 36, 64
1, 152910, Note_on_c, 9, 62, 64
1, 152999, Note_on_c, 9, 62, 0
1, 153119, Note_on_c, 9, 69, 0
1, 153119, Note_on_c, 9, 36, 0
1, 153120, Note_on_c, 9, 37, 64
1, 153120, Note_on_c, 9, 37, 0
1, 153120, Note_on_c, 9, 51, 64
1, 153120, Note_on_c, 9, 51, 0
1, 153120, Note_on_c, 9, 69, 64
1, 153120, Note_on_c, 9, 36, 64
1, 153135, Note_on_c, 9, 64, 64
1, 153142, Note_on_c, 9, 64, 0
1, 153359, Note_on_c, 9, 69, 0
1, 153359, Note_on_c, 9, 36, 0
1, 153360, Note_on_c, 9, 69, 64
1, 153360, Note_on_c, 9, 36, 64
1, 153375, Note_on_c, 9, 64, 64
1, 153382, Note_on_c, 9, 64, 0
1, 153599, Note_on_c, 9, 69, 0
1, 153599, Note_on_c, 9, 36, 0
1, 153600, Note_on_c, 9, 69, 64
1, 153600, Note_on_c, 9, 36, 64
1, 153839, Note_on_c, 9, 69, 0
1, 153840, Note_on_c, 9, 69, 64
1, 154079, Note_on_c, 9, 36, 0
1, 154079, Note_on_c, 9, 69, 0
1, 154080, Note_on_c, 9, 63, 64
1, 154080, Note_on_c, 9, 37, 64
1, 154080, Note_on_c, 9, 69, 64
1, 154086, Note_on_c, 9, 63, 0
1, 154086, Note_on_c, 9, 37, 0
1, 154259, Note_on_c, 9, 69, 0
1, 154290, Note_on_c, 9, 37, 64
1, 154290, Note_on_c, 9, 37, 0
1, 154290, Note_on_c, 9, 69, 64
1, 154320, Note_on_c, 9, 36, 64
1, 154409, Note_on_c, 9, 69, 0
1, 154559, Note_on_c, 9, 36, 0
1, 154560, Note_on_c, 9, 69, 64
1, 154560, Note_on_c, 9, 36, 64
1, 154799, Note_on_c, 9, 69, 0
1, 154800, Note_on_c, 9, 37, 64
1, 154800, Note_on_c, 9, 62, 64
1, 154800, Note_on_c, 9, 69, 64
1, 154806, Note_on_c, 9, 37, 0
1, 154979, Note_on_c, 9, 62, 0
1, 154979, Note_on_c, 9, 69, 0
1, 154980, Note_on_c, 9, 51, 64
1, 154981, Note_on_c, 9, 51, 0
1, 155039, Note_on_c, 9, 36, 0
1, 155040, Note_on_c, 9, 64, 64
1, 155040, Note_on_c, 9, 37, 64
1, 155040, Note_on_c, 9, 69, 64
1, 155040, Note_on_c, 9, 36, 64
1, 155049, Note_on_c, 9, 64, 0
1, 155049, Note_on_c, 9, 37, 0
1, 155279, Note_on_c, 9, 69, 0
1, 155280, Note_on_c, 9, 64, 64
1, 155280, Note_on_c, 9, 69, 64
1, 155289, Note_on_c, 9, 64, 0
1, 155519, Note_on_c, 9, 36, 0
1, 155519, Note_on_c, 9, 69, 0
1, 155520, Note_on_c, 9, 69, 64
1, 155520, Note_on_c, 9, 36, 64
1, 155759, Note_on_c, 9, 69, 0
1, 155759, Note_on_c, 9, 36, 0
1, 155760, Note_on_c, 9, 69, 64
1, 155760, Note_on_c, 9, 36, 64
1, 155999, Note_on_c, 9, 69, 0
1, 155999, Note_on_c, 9, 36, 0
1, 156000, Note_on_c, 9, 63, 64
1, 156000, Note_on_c, 9, 37, 64
1, 156000, Note_on_c, 9, 69, 64
1, 156009, Note_on_c, 9, 63, 0
1, 156009, Note_on_c, 9, 37, 0
1, 156239, Note_on_c, 9, 69, 0
1, 156240, Note_on_c, 9, 37, 64
1, 156240, Note_on_c, 9, 69, 64
1, 156240, Note_on_c, 9, 36, 64
1, 156249, Note_on_c, 9, 37, 0
1, 156479, Note_on_c, 9, 69, 0
1, 156479, Note_on_c, 9, 36, 0
1, 156480, Note_on_c, 9, 69, 64
1, 156480, Note_on_c, 9, 36, 64
1, 156719, Note_on_c, 9, 69, 0
1, 156720, Note_on_c, 9, 62, 64
1, 156720, Note_on_c, 9, 69, 64
1, 156959, Note_on_c, 9, 36, 0
1, 156959, Note_on_c, 9, 62, 0
1, 156959, Note_on_c, 9, 69, 0
1, 156960, Note_on_c, 9, 69, 64
1, 156960, Note_on_c, 9, 36, 64
1, 156975, Note_on_c, 9, 64, 64
1, 156975, Note_on_c, 9, 37, 64
1, 156975, Note_on_c, 9, 51, 64
1, 156982, Note_on_c, 9, 64, 0
1, 156982, Note_on_c, 9, 37, 0
1, 156982, Note_on_c, 9, 51, 0
1, 157199, Note_on_c, 9, 69, 0
1, 157200, Note_on_c, 9, 64, 64
1, 157200, Note_on_c, 9, 37, 64
1, 157200, Note_on_c, 9, 69, 64
1, 157209, Note_on_c, 9, 64, 0
1, 157209, Note_on_c, 9, 37, 0
1, 157439, Note_on_c, 9, 36, 0
1, 157439, Note_on_c, 9, 69, 0
1, 157440, Note_on_c, 9, 69, 64
1, 157440, Note_on_c, 9, 36, 64
1, 157679, Note_on_c, 9, 69, 0
1, 157680, Note_on_c, 9, 69, 64
1, 157919, Note_on_c, 9, 36, 0
1, 157919, Note_on_c, 9, 69, 0
1, 157920, Note_on_c, 9, 63, 64
1, 157920, Note_on_c, 9, 37, 64
1, 157920, Note_on_c, 9, 69, 64
1, 157924, Note_on_c, 9, 63, 0
1, 157924, Note_on_c, 9, 37, 0
1, 158039, Note_on_c, 9, 69, 0
1, 158040, Note_on_c, 9, 37, 64
1, 158044, Note_on_c, 9, 37, 0
1, 158100, Note_on_c, 9, 36, 64
1, 158159, Note_on_c, 9, 36, 0
1, 158160, Note_on_c, 9, 37, 64
1, 158160, Note_on_c, 9, 69, 64
1, 158169, Note_on_c, 9, 37, 0
1, 158399, Note_on_c, 9, 69, 0
1, 158400, Note_on_c, 9, 69, 64
1, 158400, Note_on_c, 9, 36, 64
1, 158415, Note_on_c, 9, 37, 64
1, 158422, Note_on_c, 9, 37, 0
1, 158579, Note_on_c, 9, 36, 0
1, 158580, Note_on_c, 9, 36, 64
1, 158639, Note_on_c, 9, 69, 0
1, 158639, Note_on_c, 9, 36, 0
1, 158640, Note_on_c, 9, 37, 64
1, 158640, Note_on_c, 9, 37, 0
1, 158640, Note_on_c, 9, 69, 64
1, 158670, Note_on_c, 9, 62, 64
1, 158759, Note_on_c, 9, 62, 0
1, 158819, Note_on_c, 9, 69, 0
1, 158820, Note_on_c, 9, 37, 64
1, 158820, Note_on_c, 9, 51, 64
1, 158820, Note_on_c, 9, 69, 64
1, 158821, Note_on_c, 9, 37, 0
1, 158821, Note_on_c, 9, 51, 0
1, 158879, Note_on_c, 9, 69, 0
1, 158880, Note_on_c, 9, 64, 64
1, 158880, Note_on_c, 9, 36, 64
1, 158884, Note_on_c, 9, 64, 0
1, 159000, Note_on_c, 9, 37, 64
1, 159001, Note_on_c, 9, 37, 0
1, 159060, Note_on_c, 9, 37, 64
1, 159060, Note_on_c, 9, 69, 64
1, 159061, Note_on_c, 9, 37, 0
1, 159119, Note_on_c, 9, 36, 0
1, 159119, Note_on_c, 9, 69, 0
1, 159120, Note_on_c, 9, 64, 64
1, 159120, Note_on_c, 9, 36, 64
1, 159129, Note_on_c, 9, 64, 0
1, 159359, Note_on_c, 9, 36, 0
1, 159360, Note_on_c, 9, 37, 64
1, 159360, Note_on_c, 9, 37, 0
1, 159360, Note_on_c, 9, 36, 64
1, 159380, Note_on_c, 9, 69, 64
1, 159419, Note_on_c, 9, 69, 0
1, 159839, Note_on_c, 9, 36, 0
1, 159840, Note_on_c, 9, 63, 64
1, 159840, Note_on_c, 9, 63, 0
1, 159870, Note_on_c, 9, 73, 64
1, 160319, Note_on_c, 9, 73, 0
1, 160560, Note_on_c, 9, 38, 64
1, 160560, Note_on_c, 9, 36, 64
1, 160575, Note_on_c, 9, 62, 64
1, 160799, Note_on_c, 9, 38, 0
1, 160799, Note_on_c, 9, 36, 0
1, 160799, Note_on_c, 9, 62, 0
1, 160800, Note_on_c, 9, 38, 64
1, 160800, Note_on_c, 9, 36, 64
1, 160814, Note_on_c, 9, 38, 0
1, 160815, Note_on_c, 9, 64, 64
1, 160815, Note_on_c, 9, 38, 64
1, 160822, Note_on_c, 9, 64, 0
1, 161039, Note_on_c, 9, 38, 0
1, 161040, Note_on_c, 9, 64, 64
1, 161049, Note_on_c, 9, 64, 0
1, 161279, Note_on_c, 9, 36, 0
1, 161280, Note_on_c, 9, 51, 64
1, 161280, Note_on_c, 9, 73, 64
1, 161280, Note_on_c, 9, 36, 64
1, 161289, Note_on_c, 9, 51, 0
1, 161519, Note_on_c, 9, 73, 0
1, 161520, Note_on_c, 9, 51, 64
1, 161529, Note_on_c, 9, 51, 0
1, 161759, Note_on_c, 9, 36, 0
1, 161760, Note_on_c, 9, 63, 64
1, 161760, Note_on_c, 9, 63, 0
1, 161760, Note_on_c, 9, 38, 64
1, 161760, Note_on_c, 9, 51, 64
1, 161760, Note_on_c, 9, 51, 0
1, 161760, Note_on_c, 9, 69, 64
1, 161789, Note_on_c, 9, 38, 0
1, 161790, Note_on_c, 9, 38, 64
1, 161790, Note_on_c, 9, 75, 64
1, 161879, Note_on_c, 9, 75, 0
1, 161999, Note_on_c, 9, 69, 0
1, 161999, Note_on_c, 9, 38, 0
1, 162000, Note_on_c, 9, 51, 64
1, 162000, Note_on_c, 9, 36, 64
1, 162009, Note_on_c, 9, 51, 0
1, 162239, Note_on_c, 9, 36, 0
1, 162240, Note_on_c, 9, 51, 64
1, 162240, Note_on_c, 9, 36, 64
1, 162249, Note_on_c, 9, 51, 0
1, 162480, Note_on_c, 9, 51, 64
1, 162480, Note_on_c, 9, 62, 64
1, 162480, Note_on_c, 9, 75, 64
1, 162489, Note_on_c, 9, 51, 0
1, 162719, Note_on_c, 9, 36, 0
1, 162719, Note_on_c, 9, 62, 0
1, 162719, Note_on_c, 9, 75, 0
1, 162720, Note_on_c, 9, 38, 64
1, 162720, Note_on_c, 9, 51, 64
1, 162720, Note_on_c, 9, 51, 0
1, 162720, Note_on_c, 9, 69, 64
1, 162749, Note_on_c, 9, 38, 0
1, 162750, Note_on_c, 9, 64, 64
1, 162750, Note_on_c, 9, 38, 64
1, 162752, Note_on_c, 9, 64, 0
1, 162839, Note_on_c, 9, 38, 0
1, 162840, Note_on_c, 9, 38, 64
1, 162959, Note_on_c, 9, 69, 0
1, 162959, Note_on_c, 9, 38, 0
1, 162960, Note_on_c, 9, 64, 64
1, 162960, Note_on_c, 9, 51, 64
1, 162969, Note_on_c, 9, 64, 0
1, 162969, Note_on_c, 9, 51, 0
1, 163200, Note_on_c, 9, 51, 64
1, 163200, Note_on_c, 9, 75, 64
1, 163200, Note_on_c, 9, 36, 64
1, 163209, Note_on_c, 9, 51, 0
1, 163439, Note_on_c, 9, 75, 0
1, 163440, Note_on_c, 9, 51, 64
1, 163449, Note_on_c, 9, 51, 0
1, 163679, Note_on_c, 9, 36, 0
1, 163680, Note_on_c, 9, 63, 64
1, 163680, Note_on_c, 9, 38, 64
1, 163680, Note_on_c, 9, 51, 64
1, 163680, Note_on_c, 9, 69, 64
1, 163689, Note_on_c, 9, 63, 0
1, 163689, Note_on_c, 9, 51, 0
1, 163919, Note_on_c, 9, 38, 0
1, 163919, Note_on_c, 9, 69, 0
1, 163920, Note_on_c, 9, 51, 64
1, 163920, Note_on_c, 9, 75, 64
1, 163920, Note_on_c, 9, 36, 64
1, 163929, Note_on_c, 9, 51, 0
1, 164159, Note_on_c, 9, 75, 0
1, 164159, Note_on_c, 9, 36, 0
1, 164160, Note_on_c, 9, 51, 64
1, 164160, Note_on_c, 9, 36, 64
1, 164166, Note_on_c, 9, 51, 0
1, 164340, Note_on_c, 9, 51, 64
1, 164341, Note_on_c, 9, 51, 0
1, 164400, Note_on_c, 9, 62, 64
1, 164519, Note_on_c, 9, 62, 0
1, 164520, Note_on_c, 9, 38, 64
1, 164609, Note_on_c, 9, 38, 0
1, 164610, Note_on_c, 9, 64, 64
1, 164610, Note_on_c, 9, 64, 0
1, 164610, Note_on_c, 9, 38, 64
1, 164610, Note_on_c, 9, 51, 64
1, 164610, Note_on_c, 9, 51, 0
1, 164610, Note_on_c, 9, 69, 64
1, 164610, Note_on_c, 9, 75, 64
1, 164639, Note_on_c, 9, 36, 0
1, 164639, Note_on_c, 9, 38, 0
1, 164640, Note_on_c, 9, 38, 64
1, 164789, Note_on_c, 9, 69, 0
1, 164789, Note_on_c, 9, 75, 0
1, 164789, Note_on_c, 9, 38, 0
1, 164820, Note_on_c, 9, 51, 64
1, 164821, Note_on_c, 9, 51, 0
1, 164880, Note_on_c, 9, 64, 64
1, 164889, Note_on_c, 9, 64, 0
1, 165120, Note_on_c, 9, 51, 64
1, 165120, Note_on_c, 9, 73, 64
1, 165120, Note_on_c, 9, 36, 64
1, 165129, Note_on_c, 9, 51, 0
1, 165359, Note_on_c, 9, 73, 0
1, 165360, Note_on_c, 9, 51, 64
1, 165369, Note_on_c, 9, 51, 0
1, 165599, Note_on_c, 9, 36, 0
1, 165600, Note_on_c, 9, 38, 64
1, 165600, Note_on_c, 9, 51, 64
1, 165600, Note_on_c, 9, 51, 0
1, 165600, Note_on_c, 9, 69, 64
1, 165629, Note_on_c, 9, 38, 0
1, 165630, Note_on_c, 9, 63, 64
1, 165630, Note_on_c, 9, 38, 64
1, 165630, Note_on_c, 9, 75, 64
1, 165632, Note_on_c, 9, 63, 0
1, 165719, Note_on_c, 9, 38, 0
1, 165719, Note_on_c, 9, 75, 0
1, 165720, Note_on_c, 9, 38, 64
1, 165839, Note_on_c, 9, 69, 0
1, 165839, Note_on_c, 9, 38, 0
1, 165840, Note_on_c, 9, 51, 64
1, 165840, Note_on_c, 9, 36, 64
1, 165849, Note_on_c, 9, 51, 0
1, 166079, Note_on_c, 9, 36, 0
1, 166080, Note_on_c, 9, 51, 64
1, 166080, Note_on_c, 9, 36, 64
1, 166086, Note_on_c, 9, 51, 0
1, 166260, Note_on_c, 9, 51, 64
1, 166261, Note_on_c, 9, 51, 0
1, 166320, Note_on_c, 9, 62, 64
1, 166320, Note_on_c, 9, 75, 64
1, 166559, Note_on_c, 9, 36, 0
1, 166559, Note_on_c, 9, 62, 0
1, 166559, Note_on_c, 9, 75, 0
1, 166560, Note_on_c, 9, 64, 64
1, 166560, Note_on_c, 9, 38, 64
1, 166560, Note_on_c, 9, 51, 64
1, 166560, Note_on_c, 9, 69, 64
1, 166569, Note_on_c, 9, 64, 0
1, 166569, Note_on_c, 9, 51, 0
1, 166799, Note_on_c, 9, 38, 0
1, 166799, Note_on_c, 9, 69, 0
1, 166800, Note_on_c, 9, 51, 64
1, 166800, Note_on_c, 9, 51, 0
1, 166800, Note_on_c, 9, 36, 64
1, 166815, Note_on_c, 9, 64, 64
1, 166822, Note_on_c, 9, 64, 0
1, 167039, Note_on_c, 9, 36, 0
1, 167040, Note_on_c, 9, 51, 64
1, 167040, Note_on_c, 9, 51, 0
1, 167040, Note_on_c, 9, 36, 64
1, 167070, Note_on_c, 9, 75, 64
1, 167159, Note_on_c, 9, 75, 0
1, 167280, Note_on_c, 9, 51, 64
1, 167286, Note_on_c, 9, 51, 0
1, 167460, Note_on_c, 9, 63, 64
1, 167460, Note_on_c, 9, 51, 64
1, 167460, Note_on_c, 9, 69, 64
1, 167461, Note_on_c, 9, 63, 0
1, 167461, Note_on_c, 9, 51, 0
1, 167519, Note_on_c, 9, 36, 0
1, 167519, Note_on_c, 9, 69, 0
1, 167520, Note_on_c, 9, 38, 64
1, 167759, Note_on_c, 9, 38, 0
1, 167760, Note_on_c, 9, 51, 64
1, 167760, Note_on_c, 9, 75, 64
1, 167760, Note_on_c, 9, 36, 64
1, 167769, Note_on_c, 9, 51, 0
1, 167999, Note_on_c, 9, 75, 0
1, 167999, Note_on_c, 9, 36, 0
1, 168000, Note_on_c, 9, 51, 64
1, 168000, Note_on_c, 9, 36, 64
1, 168009, Note_on_c, 9, 51, 0
1, 168240, Note_on_c, 9, 38, 64
1, 168240, Note_on_c, 9, 51, 64
1, 168240, Note_on_c, 9, 62, 64
1, 168240, Note_on_c, 9, 69, 64
1, 168244, Note_on_c, 9, 51, 0
1, 168359, Note_on_c, 9, 36, 0
1, 168359, Note_on_c, 9, 38, 0
1, 168359, Note_on_c, 9, 62, 0
1, 168359, Note_on_c, 9, 69, 0
1, 168360, Note_on_c, 9, 38, 64
1, 168360, Note_on_c, 9, 36, 64
1, 168479, Note_on_c, 9, 38, 0
1, 168479, Note_on_c, 9, 36, 0
1, 168480, Note_on_c, 9, 64, 64
1, 168480, Note_on_c, 9, 64, 0
1, 168480, Note_on_c, 9, 38, 64
1, 168480, Note_on_c, 9, 51, 64
1, 168480, Note_on_c, 9, 51, 0
1, 168480, Note_on_c, 9, 69, 64
1, 168480, Note_on_c, 9, 36, 64
1, 168499, Note_on_c, 9, 38, 0
1, 168499, Note_on_c, 9, 69, 0
1, 168500, Note_on_c, 9, 75, 64
1, 168539, Note_on_c, 9, 75, 0
1, 168719, Note_on_c, 9, 36, 0
1, 168720, Note_on_c, 9, 38, 64
1, 168720, Note_on_c, 9, 51, 64
1, 168720, Note_on_c, 9, 51, 0
1, 168720, Note_on_c, 9, 36, 64
1, 168734, Note_on_c, 9, 38, 0
1, 168735, Note_on_c, 9, 64, 64
1, 168735, Note_on_c, 9, 38, 64
1, 168742, Note_on_c, 9, 64, 0
1, 168959, Note_on_c, 9, 36, 0
1, 168959, Note_on_c, 9, 38, 0
1, 168960, Note_on_c, 9, 51, 64
1, 168960, Note_on_c, 9, 73, 64
1, 168960, Note_on_c, 9, 36, 64
1, 168969, Note_on_c, 9, 51, 0
1, 169199, Note_on_c, 9, 73, 0
1, 169200, Note_on_c, 9, 51, 64
1, 169209, Note_on_c, 9, 51, 0
1, 169439, Note_on_c, 9, 36, 0
1, 169440, Note_on_c, 9, 63, 64
1, 169440, Note_on_c, 9, 38, 64
1, 169440, Note_on_c, 9, 51, 64
1, 169440, Note_on_c, 9, 69, 64
1, 169440, Note_on_c, 9, 75, 64
1, 169449, Note_on_c, 9, 63, 0
1, 169449, Note_on_c, 9, 51, 0
1, 169679, Note_on_c, 9, 38, 0
1, 169679, Note_on_c, 9, 69, 0
1, 169679, Note_on_c, 9, 75, 0
1, 169680, Note_on_c, 9, 51, 64
1, 169680, Note_on_c, 9, 36, 64
1, 169689, Note_on_c, 9, 51, 0
1, 169919, Note_on_c, 9, 36, 0
1, 169920, Note_on_c, 9, 51, 64
1, 169920, Note_on_c, 9, 36, 64
1, 169926, Note_on_c, 9, 51, 0
1, 170100, Note_on_c, 9, 51, 64
1, 170101, Note_on_c, 9, 51, 0
1, 170160, Note_on_c, 9, 62, 64
1, 170160, Note_on_c, 9, 75, 64
1, 170399, Note_on_c, 9, 36, 0
1, 170399, Note_on_c, 9, 62, 0
1, 170399, Note_on_c, 9, 75, 0
1, 170400, Note_on_c, 9, 64, 64
1, 170400, Note_on_c, 9, 38, 64
1, 170400, Note_on_c, 9, 51, 64
1, 170400, Note_on_c, 9, 69, 64
1, 170409, Note_on_c, 9, 64, 0
1, 170409, Note_on_c, 9, 51, 0
1, 170639, Note_on_c, 9, 38, 0
1, 170639, Note_on_c, 9, 69, 0
1, 170640, Note_on_c, 9, 64, 64
1, 170640, Note_on_c, 9, 51, 64
1, 170649, Note_on_c, 9, 64, 0
1, 170649, Note_on_c, 9, 51, 0
1, 170880, Note_on_c, 9, 51, 64
1, 170880, Note_on_c, 9, 51, 0
1, 170880, Note_on_c, 9, 36, 64
1, 170900, Note_on_c, 9, 75, 64
1, 170939, Note_on_c, 9, 75, 0
1, 171120, Note_on_c, 9, 51, 64
1, 171129, Note_on_c, 9, 51, 0
1, 171359, Note_on_c, 9, 36, 0
1, 171360, Note_on_c, 9, 63, 64
1, 171360, Note_on_c, 9, 63, 0
1, 171360, Note_on_c, 9, 38, 64
1, 171360, Note_on_c, 9, 51, 64
1, 171360, Note_on_c, 9, 51, 0
1, 171379, Note_on_c, 9, 38, 0
1, 171380, Note_on_c, 9, 69, 64
1, 171419, Note_on_c, 9, 69, 0
1, 171600, Note_on_c, 9, 51, 64
1, 171600, Note_on_c, 9, 75, 64
1, 171600, Note_on_c, 9, 36, 64
1, 171609, Note_on_c, 9, 51, 0
1, 171839, Note_on_c, 9, 75, 0
1, 171839, Note_on_c, 9, 36, 0
1, 171840, Note_on_c, 9, 51, 64
1, 171840, Note_on_c, 9, 36, 64
1, 171844, Note_on_c, 9, 51, 0
1, 171960, Note_on_c, 9, 38, 64
1, 172079, Note_on_c, 9, 38, 0
1, 172080, Note_on_c, 9, 51, 64
1, 172080, Note_on_c, 9, 51, 0
1, 172110, Note_on_c, 9, 62, 64
1, 172199, Note_on_c, 9, 62, 0
1, 172200, Note_on_c, 9, 38, 64
1, 172259, Note_on_c, 9, 38, 0
1, 172260, Note_on_c, 9, 51, 64
1, 172260, Note_on_c, 9, 69, 64
1, 172260, Note_on_c, 9, 75, 64
1, 172261, Note_on_c, 9, 51, 0
1, 172319, Note_on_c, 9, 36, 0
1, 172319, Note_on_c, 9, 69, 0
1, 172319, Note_on_c, 9, 75, 0
1, 172320, Note_on_c, 9, 64, 64
1, 172320, Note_on_c, 9, 38, 64
1, 172329, Note_on_c, 9, 64, 0
1, 172559, Note_on_c, 9, 38, 0
1, 172560, Note_on_c, 9, 64, 64
1, 172560, Note_on_c, 9, 38, 64
1, 172560, Note_on_c, 9, 51, 64
1, 172569, Note_on_c, 9, 64, 0
1, 172569, Note_on_c, 9, 51, 0
1, 172799, Note_on_c, 9, 38, 0
1, 172800, Note_on_c, 9, 51, 64
1, 172800, Note_on_c, 9, 73, 64
1, 172800, Note_on_c, 9, 36, 64
1, 172809, Note_on_c, 9, 51, 0
1, 173039, Note_on_c, 9, 73, 0
1, 173040, Note_on_c, 9, 51, 64
1, 173044, Note_on_c, 9, 51, 0
1, 173160, Note_on_c, 9, 69, 64
1, 173279, Note_on_c, 9, 36, 0
1, 173279, Note_on_c, 9, 69, 0
1, 173280, Note_on_c, 9, 63, 64
1, 173280, Note_on_c, 9, 38, 64
1, 173280, Note_on_c, 9, 51, 64
1, 173280, Note_on_c, 9, 75, 64
1, 173289, Note_on_c, 9, 63, 0
1, 173289, Note_on_c, 9, 51, 0
1, 173519, Note_on_c, 9, 38, 0
1, 173519, Note_on_c, 9, 75, 0
1, 173520, Note_on_c, 9, 51, 64
1, 173520, Note_on_c, 9, 36, 64
1, 173529, Note_on_c, 9, 51, 0
1, 173759, Note_on_c, 9, 36, 0
1, 173760, Note_on_c, 9, 51, 64
1, 173760, Note_on_c, 9, 36, 64
1, 173769, Note_on_c, 9, 51, 0
1, 174000, Note_on_c, 9, 51, 64
1, 174000, Note_on_c, 9, 62, 64
1, 174000, Note_on_c, 9, 75, 64
1, 174006, Note_on_c, 9, 51, 0
1, 174179, Note_on_c, 9, 62, 0
1, 174179, Note_on_c, 9, 75, 0
1, 174180, Note_on_c, 9, 38, 64
1, 174180, Note_on_c, 9, 51, 64
1, 174180, Note_on_c, 9, 69, 64
1, 174181, Note_on_c, 9, 51, 0
1, 174239, Note_on_c, 9, 36, 0
1, 174239, Note_on_c, 9, 38, 0
1, 174239, Note_on_c, 9, 69, 0
1, 174240, Note_on_c, 9, 64, 64
1, 174249, Note_on_c, 9, 64, 0
1, 174480, Note_on_c, 9, 64, 64
1, 174480, Note_on_c, 9, 51, 64
1, 174489, Note_on_c, 9, 64, 0
1, 174489, Note_on_c, 9, 51, 0
1, 174720, Note_on_c, 9, 51, 64
1, 174720, Note_on_c, 9, 75, 64
1, 174720, Note_on_c, 9, 36, 64
1, 174729, Note_on_c, 9, 51, 0
1, 174959, Note_on_c, 9, 75, 0
1, 174960, Note_on_c, 9, 51, 64
1, 174969, Note_on_c, 9, 51, 0
1, 175199, Note_on_c, 9, 36, 0
1, 175200, Note_on_c, 9, 63, 64
1, 175200, Note_on_c, 9, 38, 64
1, 175200, Note_on_c, 9, 51, 64
1, 175200, Note_on_c, 9, 69, 64
1, 175209, Note_on_c, 9, 63, 0
1, 175209, Note_on_c, 9, 51, 0
1, 175439, Note_on_c, 9, 38, 0
1, 175439, Note_on_c, 9, 69, 0
1, 175440, Note_on_c, 9, 38, 64
1, 175440, Note_on_c, 9, 51, 64
1, 175440, Note_on_c, 9, 75, 64
1, 175444, Note_on_c, 9, 51, 0
1, 175559, Note_on_c, 9, 38, 0
1, 175559, Note_on_c, 9, 75, 0
1, 175560, Note_on_c, 9, 38, 64
1, 175600, Note_on_c, 9, 36, 64
1, 175679, Note_on_c, 9, 38, 0
1, 175679, Note_on_c, 9, 36, 0
1, 175680, Note_on_c, 9, 51, 64
1, 175680, Note_on_c, 9, 51, 0
1, 175680, Note_on_c, 9, 36, 64
1, 175700, Note_on_c, 9, 62, 64
1, 175739, Note_on_c, 9, 62, 0
1, 175920, Note_on_c, 9, 38, 64
1, 175920, Note_on_c, 9, 51, 64
1, 175920, Note_on_c, 9, 51, 0
1, 175920, Note_on_c, 9, 69, 64
1, 175950, Note_on_c, 9, 62, 64
1, 176039, Note_on_c, 9, 36, 0
1, 176039, Note_on_c, 9, 62, 0
1, 176040, Note_on_c, 9, 36, 64
1, 176159, Note_on_c, 9, 38, 0
1, 176159, Note_on_c, 9, 69, 0
1, 176159, Note_on_c, 9, 36, 0
1, 176160, Note_on_c, 9, 64, 64
1, 176160, Note_on_c, 9, 38, 64
1, 176160, Note_on_c, 9, 51, 64
1, 176160, Note_on_c, 9, 69, 64
1, 176160, Note_on_c, 9, 75, 64
1, 176160, Note_on_c, 9, 36, 64
1, 176169, Note_on_c, 9, 64, 0
1, 176169, Note_on_c, 9, 51, 0
1, 176399, Note_on_c, 9, 38, 0
1, 176399, Note_on_c, 9, 69, 0
1, 176399, Note_on_c, 9, 75, 0
1, 176399, Note_on_c, 9, 36, 0
1, 176400, Note_on_c, 9, 51, 64
1, 176400, Note_on_c, 9, 51, 0
1, 176400, Note_on_c, 9, 36, 64
1, 176430, Note_on_c, 9, 64, 64
1, 176432, Note_on_c, 9, 64, 0
1, 176639, Note_on_c, 9, 36, 0
1, 176640, Note_on_c, 9, 73, 64
1, 176640, Note_on_c, 9, 49, 64
1, 176640, Note_on_c, 9, 36, 64
1, 176660, Note_on_c, 9, 49, 0
1, 177119, Note_on_c, 9, 73, 0
1, 177119, Note_on_c, 9, 36, 0
1, 177120, Note_on_c, 9, 63, 64
1, 177120, Note_on_c, 9, 38, 64
1, 177120, Note_on_c, 9, 51, 64
1, 177120, Note_on_c, 9, 69, 64
1, 177120, Note_on_c, 9, 75, 64
1, 177129, Note_on_c, 9, 63, 0
1, 177129, Note_on_c, 9, 51, 0
1, 177359, Note_on_c, 9, 38, 0
1, 177359, Note_on_c, 9, 69, 0
1, 177359, Note_on_c, 9, 75, 0
1, 177360, Note_on_c, 9, 51, 64
1, 177360, Note_on_c, 9, 36, 64
1, 177369, Note_on_c, 9, 51, 0
1, 177599, Note_on_c, 9, 36, 0
1, 177600, Note_on_c, 9, 51, 64
1, 177600, Note_on_c, 9, 36, 64
1, 177609, Note_on_c, 9, 51, 0
1, 177840, Note_on_c, 9, 63, 64
1, 177840, Note_on_c, 9, 51, 64
1, 177840, Note_on_c, 9, 75, 64
1, 177846, Note_on_c, 9, 63, 0
1, 177846, Note_on_c, 9, 51, 0
1, 178019, Note_on_c, 9, 75, 0
1, 178020, Note_on_c, 9, 38, 64
1, 178020, Note_on_c, 9, 51, 64
1, 178021, Note_on_c, 9, 51, 0
1, 178079, Note_on_c, 9, 36, 0
1, 178079, Note_on_c, 9, 38, 0
1, 178080, Note_on_c, 9, 62, 64
1, 178080, Note_on_c, 9, 69, 64
1, 178259, Note_on_c, 9, 62, 0
1, 178259, Note_on_c, 9, 69, 0
1, 178260, Note_on_c, 9, 51, 64
1, 178261, Note_on_c, 9, 51, 0
1, 178320, Note_on_c, 9, 64, 64
1, 178320, Note_on_c, 9, 36, 64
1, 178329, Note_on_c, 9, 64, 0
1, 178559, Note_on_c, 9, 36, 0
1, 178560, Note_on_c, 9, 51, 64
1, 178560, Note_on_c, 9, 51, 0
1, 178560, Note_on_c, 9, 36, 64
1, 178580, Note_on_c, 9, 75, 64
1, 178619, Note_on_c, 9, 75, 0
1, 178800, Note_on_c, 9, 51, 64
1, 178809, Note_on_c, 9, 51, 0
1, 179039, Note_on_c, 9, 36, 0
1, 179040, Note_on_c, 9, 63, 64
1, 179040, Note_on_c, 9, 38, 64
1, 179040, Note_on_c, 9, 51, 64
1, 179040, Note_on_c, 9, 69, 64
1, 179049, Note_on_c, 9, 63, 0
1, 179049, Note_on_c, 9, 51, 0
1, 179279, Note_on_c, 9, 38, 0
1, 179279, Note_on_c, 9, 69, 0
1, 179280, Note_on_c, 9, 51, 64
1, 179280, Note_on_c, 9, 75, 64
1, 179280, Note_on_c, 9, 36, 64
1, 179286, Note_on_c, 9, 51, 0
1, 179459, Note_on_c, 9, 75, 0
1, 179490, Note_on_c, 9, 51, 64
1, 179490, Note_on_c, 9, 51, 0
1, 179490, Note_on_c, 9, 62, 64
1, 179519, Note_on_c, 9, 36, 0
1, 179609, Note_on_c, 9, 62, 0
1, 179760, Note_on_c, 9, 51, 64
1, 179760, Note_on_c, 9, 51, 0
1, 179760, Note_on_c, 9, 36, 64
1, 179790, Note_on_c, 9, 62, 64
1, 179879, Note_on_c, 9, 62, 0
1, 179880, Note_on_c, 9, 64, 64
1, 179880, Note_on_c, 9, 38, 64
1, 179880, Note_on_c, 9, 51, 64
1, 179880, Note_on_c, 9, 75, 64
1, 179884, Note_on_c, 9, 64, 0
1, 179884, Note_on_c, 9, 51, 0
1, 179999, Note_on_c, 9, 36, 0
1, 179999, Note_on_c, 9, 38, 0
1, 179999, Note_on_c, 9, 75, 0
1, 180000, Note_on_c, 9, 69, 64
1, 180179, Note_on_c, 9, 69, 0
1, 180180, Note_on_c, 9, 51, 64
1, 180181, Note_on_c, 9, 51, 0
1, 180240, Note_on_c, 9, 64, 64
1, 180240, Note_on_c, 9, 36, 64
1, 180249, Note_on_c, 9, 64, 0
1, 180479, Note_on_c, 9, 36, 0
1, 180480, Note_on_c, 9, 51, 64
1, 180480, Note_on_c, 9, 73, 64
1, 180480, Note_on_c, 9, 36, 64
1, 180489, Note_on_c, 9, 51, 0
1, 180719, Note_on_c, 9, 73, 0
1, 180720, Note_on_c, 9, 51, 64
1, 180729, Note_on_c, 9, 51, 0
1, 180959, Note_on_c, 9, 36, 0
1, 180960, Note_on_c, 9, 38, 64
1, 180960, Note_on_c, 9, 51, 64
1, 180960, Note_on_c, 9, 51, 0
1, 180960, Note_on_c, 9, 75, 64
1, 180990, Note_on_c, 9, 69, 64
1, 181079, Note_on_c, 9, 69, 0
1, 181199, Note_on_c, 9, 38, 0
1, 181199, Note_on_c, 9, 75, 0
1, 181200, Note_on_c, 9, 51, 64
1, 181200, Note_on_c, 9, 51, 0
1, 181200, Note_on_c, 9, 36, 64
1, 181215, Note_on_c, 9, 63, 64
1, 181222, Note_on_c, 9, 63, 0
1, 181439, Note_on_c, 9, 36, 0
1, 181440, Note_on_c, 9, 51, 64
1, 181440, Note_on_c, 9, 36, 64
1, 181449, Note_on_c, 9, 51, 0
1, 181679, Note_on_c, 9, 36, 0
1, 181680, Note_on_c, 9, 51, 64
1, 181680, Note_on_c, 9, 51, 0
1, 181680, Note_on_c, 9, 75, 64
1, 181680, Note_on_c, 9, 36, 64
1, 181710, Note_on_c, 9, 62, 64
1, 181799, Note_on_c, 9, 62, 0
1, 181919, Note_on_c, 9, 75, 0
1, 181919, Note_on_c, 9, 36, 0
1, 181920, Note_on_c, 9, 64, 64
1, 181920, Note_on_c, 9, 38, 64
1, 181920, Note_on_c, 9, 51, 64
1, 181920, Note_on_c, 9, 69, 64
1, 181926, Note_on_c, 9, 64, 0
1, 181926, Note_on_c, 9, 51, 0
1, 182099, Note_on_c, 9, 38, 0
1, 182099, Note_on_c, 9, 69, 0
1, 182100, Note_on_c, 9, 51, 64
1, 182101, Note_on_c, 9, 51, 0
1, 182160, Note_on_c, 9, 64, 64
1, 182160, Note_on_c, 9, 36, 64
1, 182169, Note_on_c, 9, 64, 0
1, 182399, Note_on_c, 9, 36, 0
1, 182400, Note_on_c, 9, 51, 64
1, 182400, Note_on_c, 9, 75, 64
1, 182400, Note_on_c, 9, 36, 64
1, 182406, Note_on_c, 9, 51, 0
1, 182579, Note_on_c, 9, 75, 0
1, 182610, Note_on_c, 9, 51, 64
1, 182610, Note_on_c, 9, 51, 0
1, 182879, Note_on_c, 9, 36, 0
1, 182880, Note_on_c, 9, 63, 64
1, 182880, Note_on_c, 9, 38, 64
1, 182880, Note_on_c, 9, 51, 64
1, 182880, Note_on_c, 9, 69, 64
1, 182886, Note_on_c, 9, 63, 0
1, 182886, Note_on_c, 9, 51, 0
1, 183059, Note_on_c, 9, 38, 0
1, 183059, Note_on_c, 9, 69, 0
1, 183060, Note_on_c, 9, 51, 64
1, 183060, Note_on_c, 9, 75, 64
1, 183061, Note_on_c, 9, 51, 0
1, 183119, Note_on_c, 9, 75, 0
1, 183180, Note_on_c, 9, 36, 64
1, 183359, Note_on_c, 9, 36, 0
1, 183360, Note_on_c, 9, 51, 64
1, 183360, Note_on_c, 9, 36, 64
1, 183366, Note_on_c, 9, 51, 0
1, 183540, Note_on_c, 9, 51, 64
1, 183541, Note_on_c, 9, 51, 0
1, 183600, Note_on_c, 9, 69, 64
1, 183630, Note_on_c, 9, 62, 64
1, 183719, Note_on_c, 9, 36, 0
1, 183719, Note_on_c, 9, 62, 0
1, 183750, Note_on_c, 9, 36, 64
1, 183809, Note_on_c, 9, 36, 0
1, 183839, Note_on_c, 9, 69, 0
1, 183840, Note_on_c, 9, 64, 64
1, 183840, Note_on_c, 9, 38, 64
1, 183840, Note_on_c, 9, 51, 64
1, 183840, Note_on_c, 9, 69, 64
1, 183840, Note_on_c, 9, 75, 64
1, 183840, Note_on_c, 9, 36, 64
1, 183849, Note_on_c, 9, 64, 0
1, 183849, Note_on_c, 9, 51, 0
1, 184079, Note_on_c, 9, 38, 0
1, 184079, Note_on_c, 9, 69, 0
1, 184079, Note_on_c, 9, 75, 0
1, 184079, Note_on_c, 9, 36, 0
1, 184080, Note_on_c, 9, 38, 64
1, 184080, Note_on_c, 9, 51, 64
1, 184080, Note_on_c, 9, 51, 0
1, 184080, Note_on_c, 9, 36, 64
1, 184094, Note_on_c, 9, 38, 0
1, 184095, Note_on_c, 9, 64, 64
1, 184095, Note_on_c, 9, 38, 64
1, 184102, Note_on_c, 9, 64, 0
1, 184319, Note_on_c, 9, 36, 0
1, 184319, Note_on_c, 9, 38, 0
1, 184320, Note_on_c, 9, 51, 64
1, 184320, Note_on_c, 9, 73, 64
1, 184320, Note_on_c, 9, 36, 64
1, 184329, Note_on_c, 9, 51, 0
1, 184559, Note_on_c, 9, 73, 0
1, 184560, Note_on_c, 9, 51, 64
1, 184569, Note_on_c, 9, 51, 0
1, 184799, Note_on_c, 9, 36, 0
1, 184800, Note_on_c, 9, 38, 64
1, 184800, Note_on_c, 9, 51, 64
1, 184800, Note_on_c, 9, 51, 0
1, 184800, Note_on_c, 9, 69, 64
1, 184800, Note_on_c, 9, 75, 64
1, 184829, Note_on_c, 9, 38, 0
1, 184830, Note_on_c, 9, 63, 64
1, 184830, Note_on_c, 9, 38, 64
1, 184832, Note_on_c, 9, 63, 0
1, 184919, Note_on_c, 9, 38, 0
1, 184920, Note_on_c, 9, 38, 64
1, 185039, Note_on_c, 9, 69, 0
1, 185039, Note_on_c, 9, 75, 0
1, 185039, Note_on_c, 9, 38, 0
1, 185040, Note_on_c, 9, 51, 64
1, 185040, Note_on_c, 9, 36, 64
1, 185049, Note_on_c, 9, 51, 0
1, 185279, Note_on_c, 9, 36, 0
1, 185280, Note_on_c, 9, 51, 64
1, 185280, Note_on_c, 9, 36, 64
1, 185289, Note_on_c, 9, 51, 0
1, 185520, Note_on_c, 9, 63, 64
1, 185520, Note_on_c, 9, 51, 64
1, 185520, Note_on_c, 9, 75, 64
1, 185529, Note_on_c, 9, 63, 0
1, 185529, Note_on_c, 9, 51, 0
1, 185759, Note_on_c, 9, 36, 0
1, 185759, Note_on_c, 9, 75, 0
1, 185760, Note_on_c, 9, 64, 64
1, 185760, Note_on_c, 9, 38, 64
1, 185760, Note_on_c, 9, 51, 64
1, 185760, Note_on_c, 9, 69, 64
1, 185769, Note_on_c, 9, 64, 0
1, 185769, Note_on_c, 9, 51, 0
1, 185999, Note_on_c, 9, 38, 0
1, 185999, Note_on_c, 9, 69, 0
1, 186000, Note_on_c, 9, 64, 64
1, 186000, Note_on_c, 9, 51, 64
1, 186000, Note_on_c, 9, 36, 64
1, 186009, Note_on_c, 9, 64, 0
1, 186009, Note_on_c, 9, 51, 0
1, 186239, Note_on_c, 9, 36, 0
1, 186240, Note_on_c, 9, 51, 64
1, 186240, Note_on_c, 9, 75, 64
1, 186240, Note_on_c, 9, 36, 64
1, 186249, Note_on_c, 9, 51, 0
1, 186479, Note_on_c, 9, 75, 0
1, 186480, Note_on_c, 9, 51, 64
1, 186480, Note_on_c, 9, 51, 0
1, 186510, Note_on_c, 9, 63, 64
1, 186512, Note_on_c, 9, 63, 0
1, 186719, Note_on_c, 9, 36, 0
1, 186720, Note_on_c, 9, 64, 64
1, 186720, Note_on_c, 9, 64, 0
1, 186720, Note_on_c, 9, 38, 64
1, 186720, Note_on_c, 9, 51, 64
1, 186720, Note_on_c, 9, 51, 0
1, 186749, Note_on_c, 9, 38, 0
1, 186750, Note_on_c, 9, 38, 64
1, 186750, Note_on_c, 9, 69, 64
1, 186839, Note_on_c, 9, 69, 0
1, 186959, Note_on_c, 9, 38, 0
1, 186960, Note_on_c, 9, 51, 64
1, 186960, Note_on_c, 9, 51, 0
1, 186960, Note_on_c, 9, 75, 64
1, 186960, Note_on_c, 9, 36, 64
1, 186975, Note_on_c, 9, 64, 64
1, 186982, Note_on_c, 9, 64, 0
1, 187199, Note_on_c, 9, 75, 0
1, 187199, Note_on_c, 9, 36, 0
1, 187200, Note_on_c, 9, 51, 64
1, 187200, Note_on_c, 9, 36, 64
1, 187209, Note_on_c, 9, 51, 0
1, 187439, Note_on_c, 9, 36, 0
1, 187440, Note_on_c, 9, 63, 64
1, 187440, Note_on_c, 9, 51, 64
1, 187440, Note_on_c, 9, 36, 64
1, 187449, Note_on_c, 9, 63, 0
1, 187449, Note_on_c, 9, 51, 0
1, 187679, Note_on_c, 9, 36, 0
1, 187680, Note_on_c, 9, 64, 64
1, 187680, Note_on_c, 9, 38, 64
1, 187680, Note_on_c, 9, 51, 64
1, 187680, Note_on_c, 9, 69, 64
1, 187680, Note_on_c, 9, 75, 64
1, 187689, Note_on_c, 9, 64, 0
1, 187689, Note_on_c, 9, 51, 0
1, 187919, Note_on_c, 9, 38, 0
1, 187919, Note_on_c, 9, 69, 0
1, 187919, Note_on_c, 9, 75, 0
1, 187920, Note_on_c, 9, 64, 64
1, 187920, Note_on_c, 9, 51, 64
1, 187920, Note_on_c, 9, 36, 64
1, 187929, Note_on_c, 9, 64, 0
1, 187929, Note_on_c, 9, 51, 0
1, 188159, Note_on_c, 9, 36, 0
1, 188160, Note_on_c, 9, 73, 64
1, 188160, Note_on_c, 9, 36, 64
1, 188175, Note_on_c, 9, 51, 64
1, 188182, Note_on_c, 9, 51, 0
1, 188399, Note_on_c, 9, 73, 0
1, 188400, Note_on_c, 9, 51, 64
1, 188409, Note_on_c, 9, 51, 0
1, 188639, Note_on_c, 9, 36, 0
1, 188640, Note_on_c, 9, 38, 64
1, 188640, Note_on_c, 9, 51, 64
1, 188640, Note_on_c, 9, 51, 0
1, 188640, Note_on_c, 9, 69, 64
1, 188640, Note_on_c, 9, 75, 64
1, 188670, Note_on_c, 9, 62, 64
1, 188759, Note_on_c, 9, 62, 0
1, 188879, Note_on_c, 9, 38, 0
1, 188879, Note_on_c, 9, 69, 0
1, 188879, Note_on_c, 9, 75, 0
1, 188880, Note_on_c, 9, 51, 64
1, 188880, Note_on_c, 9, 51, 0
1, 188880, Note_on_c, 9, 36, 64
1, 188900, Note_on_c, 9, 62, 64
1, 188939, Note_on_c, 9, 62, 0
1, 189119, Note_on_c, 9, 36, 0
1, 189120, Note_on_c, 9, 51, 64
1, 189120, Note_on_c, 9, 51, 0
1, 189120, Note_on_c, 9, 36, 64
1, 189150, Note_on_c, 9, 62, 64
1, 189239, Note_on_c, 9, 62, 0
1, 189300, Note_on_c, 9, 38, 64
1, 189300, Note_on_c, 9, 69, 64
1, 189300, Note_on_c, 9, 75, 64
1, 189359, Note_on_c, 9, 36, 0
1, 189359, Note_on_c, 9, 38, 0
1, 189359, Note_on_c, 9, 69, 0
1, 189359, Note_on_c, 9, 75, 0
1, 189360, Note_on_c, 9, 62, 64
1, 189360, Note_on_c, 9, 36, 64
1, 189479, Note_on_c, 9, 62, 0
1, 189480, Note_on_c, 9, 38, 64
1, 189599, Note_on_c, 9, 36, 0
1, 189599, Note_on_c, 9, 38, 0
1, 189600, Note_on_c, 9, 51, 64
1, 189600, Note_on_c, 9, 69, 64
1, 189600, Note_on_c, 9, 36, 64
1, 189601, Note_on_c, 9, 51, 0
1, 189659, Note_on_c, 9, 69, 0
1, 189660, Note_on_c, 9, 64, 64
1, 189666, Note_on_c, 9, 64, 0
1, 189839, Note_on_c, 9, 36, 0
1, 189840, Note_on_c, 9, 64, 64
1, 189840, Note_on_c, 9, 38, 64
1, 189840, Note_on_c, 9, 36, 64
1, 189846, Note_on_c, 9, 64, 0
1, 190019, Note_on_c, 9, 38, 0
1, 190020, Note_on_c, 9, 38, 64
1, 190020, Note_on_c, 9, 75, 64
1, 190020, Note_on_c, 9, 49, 64
1, 190021, Note_on_c, 9, 49, 0
1, 190079, Note_on_c, 9, 36, 0
1, 190079, Note_on_c, 9, 38, 0
1, 190079, Note_on_c, 9, 75, 0
1, 190080, Note_on_c, 9, 64, 64
1, 190080, Note_on_c, 9, 36, 64
1, 190100, Note_on_c, 9, 64, 0
1, 190559, Note_on_c, 9, 36, 0
1, 190560, Note_on_c, 9, 69, 64
1, 190560, Note_on_c, 9, 73, 64
1, 190799, Note_on_c, 9, 69, 0
1, 190799, Note_on_c, 9, 73, 0
1, 190800, Note_on_c, 9, 63, 64
1, 190809, Note_on_c, 9, 63, 0
1, 191310, Note_on_c, 9, 62, 64
1, 191399, Note_on_c, 9, 62, 0
1, 191520, Note_on_c, 9, 64, 64
1, 191520, Note_on_c, 9, 38, 64
1, 191520, Note_on_c, 9, 69, 64
1, 191529, Note_on_c, 9, 64, 0
1, 191759, Note_on_c, 9, 38, 0
1, 191759, Note_on_c, 9, 69, 0
1, 191760, Note_on_c, 9, 64, 64
1, 191760, Note_on_c, 9, 38, 64
1, 191769, Note_on_c, 9, 64, 0
1, 191999, Note_on_c, 9, 38, 0
1, 192000, Note_on_c, 9, 51, 64
1, 192000, Note_on_c, 9, 73, 64
1, 192000, Note_on_c, 9, 36, 64
1, 192009, Note_on_c, 9, 51, 0
1, 192239, Note_on_c, 9, 73, 0
1, 192240, Note_on_c, 9, 51, 64
1, 192249, Note_on_c, 9, 51, 0
1, 192479, Note_on_c, 9, 36, 0
1, 192480, Note_on_c, 9, 38, 64
1, 192480, Note_on_c, 9, 51, 64
1, 192480, Note_on_c, 9, 51, 0
1, 192480, Note_on_c, 9, 69, 64
1, 192480, Note_on_c, 9, 75, 64
1, 192509, Note_on_c, 9, 38, 0
1, 192510, Note_on_c, 9, 63, 64
1, 192510, Note_on_c, 9, 38, 64
1, 192512, Note_on_c, 9, 63, 0
1, 192599, Note_on_c, 9, 38, 0
1, 192600, Note_on_c, 9, 38, 64
1, 192719, Note_on_c, 9, 69, 0
1, 192719, Note_on_c, 9, 75, 0
1, 192719, Note_on_c, 9, 38, 0
1, 192720, Note_on_c, 9, 51, 64
1, 192720, Note_on_c, 9, 36, 64
1, 192729, Note_on_c, 9, 51, 0
1, 192959, Note_on_c, 9, 36, 0
1, 192960, Note_on_c, 9, 51, 64
1, 192960, Note_on_c, 9, 36, 64
1, 192969, Note_on_c, 9, 51, 0
1, 193200, Note_on_c, 9, 51, 64
1, 193200, Note_on_c, 9, 51, 0
1, 193200, Note_on_c, 9, 75, 64
1, 193219, Note_on_c, 9, 75, 0
1, 193220, Note_on_c, 9, 62, 64
1, 193259, Note_on_c, 9, 62, 0
1, 193439, Note_on_c, 9, 36, 0
1, 193440, Note_on_c, 9, 38, 64
1, 193440, Note_on_c, 9, 51, 64
1, 193440, Note_on_c, 9, 51, 0
1, 193440, Note_on_c, 9, 69, 64
1, 193440, Note_on_c, 9, 36, 64
1, 193454, Note_on_c, 9, 38, 0
1, 193455, Note_on_c, 9, 64, 64
1, 193455, Note_on_c, 9, 38, 64
1, 193460, Note_on_c, 9, 64, 0
1, 193619, Note_on_c, 9, 69, 0
1, 193619, Note_on_c, 9, 38, 0
1, 193620, Note_on_c, 9, 51, 64
1, 193621, Note_on_c, 9, 51, 0
1, 193680, Note_on_c, 9, 64, 64
1, 193689, Note_on_c, 9, 64, 0
1, 193919, Note_on_c, 9, 36, 0
1, 193920, Note_on_c, 9, 51, 64
1, 193920, Note_on_c, 9, 51, 0
1, 193920, Note_on_c, 9, 36, 64
1, 193940, Note_on_c, 9, 75, 64
1, 193979, Note_on_c, 9, 75, 0
1, 194160, Note_on_c, 9, 51, 64
1, 194169, Note_on_c, 9, 51, 0
1, 194399, Note_on_c, 9, 36, 0
1, 194400, Note_on_c, 9, 51, 64
1, 194400, Note_on_c, 9, 51, 0
1, 194400, Note_on_c, 9, 69, 64
1, 194419, Note_on_c, 9, 69, 0
1, 194420, Note_on_c, 9, 63, 64
1, 194420, Note_on_c, 9, 63, 0
1, 194440, Note_on_c, 9, 38, 64
1, 194459, Note_on_c, 9, 38, 0
1, 194580, Note_on_c, 9, 51, 64
1, 194581, Note_on_c, 9, 51, 0
1, 194640, Note_on_c, 9, 75, 64
1, 194640, Note_on_c, 9, 36, 64
1, 194879, Note_on_c, 9, 75, 0
1, 194879, Note_on_c, 9, 36, 0
1, 194880, Note_on_c, 9, 51, 64
1, 194889, Note_on_c, 9, 51, 0
1, 195120, Note_on_c, 9, 51, 64
1, 195120, Note_on_c, 9, 51, 0
1, 195120, Note_on_c, 9, 36, 64
1, 195140, Note_on_c, 9, 62, 64
1, 195140, Note_on_c, 9, 75, 64
1, 195179, Note_on_c, 9, 62, 0
1, 195179, Note_on_c, 9, 75, 0
1, 195240, Note_on_c, 9, 51, 64
1, 195240, Note_on_c, 9, 75, 64
1, 195244, Note_on_c, 9, 51, 0
1, 195359, Note_on_c, 9, 36, 0
1, 195359, Note_on_c, 9, 75, 0
1, 195360, Note_on_c, 9, 38, 64
1, 195360, Note_on_c, 9, 69, 64
1, 195360, Note_on_c, 9, 36, 64
1, 195374, Note_on_c, 9, 38, 0
1, 195375, Note_on_c, 9, 64, 64
1, 195375, Note_on_c, 9, 38, 64
1, 195382, Note_on_c, 9, 64, 0
1, 195599, Note_on_c, 9, 69, 0
1, 195599, Note_on_c, 9, 38, 0
1, 195600, Note_on_c, 9, 64, 64
1, 195600, Note_on_c, 9, 51, 64
1, 195609, Note_on_c, 9, 64, 0
1, 195609, Note_on_c, 9, 51, 0
1, 195839, Note_on_c, 9, 36, 0
1, 195840, Note_on_c, 9, 51, 64
1, 195840, Note_on_c, 9, 73, 64
1, 195840, Note_on_c, 9, 36, 64
1, 195849, Note_on_c, 9, 51, 0
1, 196079, Note_on_c, 9, 73, 0
1, 196080, Note_on_c, 9, 51, 64
1, 196089, Note_on_c, 9, 51, 0
1, 196319, Note_on_c, 9, 36, 0
1, 196320, Note_on_c, 9, 63, 64
1, 196320, Note_on_c, 9, 38, 64
1, 196320, Note_on_c, 9, 51, 64
1, 196320, Note_on_c, 9, 69, 64
1, 196320, Note_on_c, 9, 75, 64
1, 196329, Note_on_c, 9, 63, 0
1, 196329, Note_on_c, 9, 51, 0
1, 196559, Note_on_c, 9, 38, 0
1, 196559, Note_on_c, 9, 69, 0
1, 196559, Note_on_c, 9, 75, 0
1, 196560, Note_on_c, 9, 51, 64
1, 196560, Note_on_c, 9, 36, 64
1, 196569, Note_on_c, 9, 51, 0
1, 196799, Note_on_c, 9, 36, 0
1, 196800, Note_on_c, 9, 51, 64
1, 196800, Note_on_c, 9, 36, 64
1, 196809, Note_on_c, 9, 51, 0
1, 197040, Note_on_c, 9, 51, 64
1, 197040, Note_on_c, 9, 51, 0
1, 197060, Note_on_c, 9, 62, 64
1, 197060, Note_on_c, 9, 75, 64
1, 197099, Note_on_c, 9, 62, 0
1, 197099, Note_on_c, 9, 75, 0
1, 197279, Note_on_c, 9, 36, 0
1, 197280, Note_on_c, 9, 38, 64
1, 197280, Note_on_c, 9, 51, 64
1, 197280, Note_on_c, 9, 51, 0
1, 197280, Note_on_c, 9, 36, 64
1, 197294, Note_on_c, 9, 38, 0
1, 197295, Note_on_c, 9, 64, 64
1, 197295, Note_on_c, 9, 38, 64
1, 197295, Note_on_c, 9, 69, 64
1, 197302, Note_on_c, 9, 64, 0
1, 197519, Note_on_c, 9, 38, 0
1, 197519, Note_on_c, 9, 69, 0
1, 197520, Note_on_c, 9, 64, 64
1, 197520, Note_on_c, 9, 51, 64
1, 197529, Note_on_c, 9, 64, 0
1, 197529, Note_on_c, 9, 51, 0
1, 197759, Note_on_c, 9, 36, 0
1, 197760, Note_on_c, 9, 51, 64
1, 197760, Note_on_c, 9, 75, 64
1, 197769, Note_on_c, 9, 51, 0
1, 197999, Note_on_c, 9, 75, 0
1, 198000, Note_on_c, 9, 51, 64
1, 198000, Note_on_c, 9, 36, 64
1, 198006, Note_on_c, 9, 51, 0
1, 198180, Note_on_c, 9, 63, 64
1, 198180, Note_on_c, 9, 63, 0
1, 198210, Note_on_c, 9, 38, 64
1, 198239, Note_on_c, 9, 36, 0
1, 198240, Note_on_c, 9, 51, 64
1, 198240, Note_on_c, 9, 69, 64
1, 198240, Note_on_c, 9, 36, 64
1, 198248, Note_on_c, 9, 51, 0
1, 198329, Note_on_c, 9, 38, 0
1, 198479, Note_on_c, 9, 69, 0
1, 198480, Note_on_c, 9, 51, 64
1, 198480, Note_on_c, 9, 75, 64
1, 198489, Note_on_c, 9, 51, 0
1, 198719, Note_on_c, 9, 36, 0
1, 198719, Note_on_c, 9, 75, 0
1, 198720, Note_on_c, 9, 51, 64
1, 198720, Note_on_c, 9, 62, 64
1, 198720, Note_on_c, 9, 36, 64
1, 198729, Note_on_c, 9, 51, 0
1, 198959, Note_on_c, 9, 62, 0
1, 198959, Note_on_c, 9, 36, 0
1, 198960, Note_on_c, 9, 51, 64
1, 198960, Note_on_c, 9, 51, 0
1, 198960, Note_on_c, 9, 69, 64
1, 198960, Note_on_c, 9, 75, 64
1, 198960, Note_on_c, 9, 36, 64
1, 198990, Note_on_c, 9, 62, 64
1, 199079, Note_on_c, 9, 62, 0
1, 199199, Note_on_c, 9, 69, 0
1, 199199, Note_on_c, 9, 75, 0
1, 199199, Note_on_c, 9, 36, 0
1, 199200, Note_on_c, 9, 38, 64
1, 199200, Note_on_c, 9, 51, 64
1, 199200, Note_on_c, 9, 51, 0
1, 199200, Note_on_c, 9, 69, 64
1, 199200, Note_on_c, 9, 75, 64
1, 199229, Note_on_c, 9, 38, 0
1, 199230, Note_on_c, 9, 64, 64
1, 199230, Note_on_c, 9, 38, 64
1, 199232, Note_on_c, 9, 64, 0
1, 199319, Note_on_c, 9, 38, 0
1, 199320, Note_on_c, 9, 38, 64
1, 199320, Note_on_c, 9, 36, 64
1, 199439, Note_on_c, 9, 69, 0
1, 199439, Note_on_c, 9, 75, 0
1, 199439, Note_on_c, 9, 38, 0
1, 199439, Note_on_c, 9, 36, 0
1, 199440, Note_on_c, 9, 38, 64
1, 199440, Note_on_c, 9, 51, 64
1, 199440, Note_on_c, 9, 51, 0
1, 199440, Note_on_c, 9, 36, 64
1, 199469, Note_on_c, 9, 38, 0
1, 199470, Note_on_c, 9, 64, 64
1, 199470, Note_on_c, 9, 38, 64
1, 199472, Note_on_c, 9, 64, 0
1, 199559, Note_on_c, 9, 38, 0
1, 199560, Note_on_c, 9, 38, 64
1, 199679, Note_on_c, 9, 36, 0
1, 199679, Note_on_c, 9, 38, 0
1, 199680, Note_on_c, 9, 73, 64
1, 199680, Note_on_c, 9, 49, 64
1, 199680, Note_on_c, 9, 36, 64
1, 199689, Note_on_c, 9, 49, 0
1, 199919, Note_on_c, 9, 73, 0
1, 199980, Note_on_c, 9, 51, 64
1, 199986, Note_on_c, 9, 51, 0
1, 200159, Note_on_c, 9, 36, 0
1, 200160, Note_on_c, 9, 38, 64
1, 200160, Note_on_c, 9, 69, 64
1, 200190, Note_on_c, 9, 51, 64
1, 200190, Note_on_c, 9, 75, 64
1, 200192, Note_on_c, 9, 51, 0
1, 200279, Note_on_c, 9, 75, 0
1, 200399, Note_on_c, 9, 38, 0
1, 200399, Note_on_c, 9, 69, 0
1, 200400, Note_on_c, 9, 63, 64
1, 200400, Note_on_c, 9, 63, 0
1, 200400, Note_on_c, 9, 36, 64
1, 200415, Note_on_c, 9, 51, 64
1, 200422, Note_on_c, 9, 51, 0
1, 200639, Note_on_c, 9, 36, 0
1, 200640, Note_on_c, 9, 51, 64
1, 200640, Note_on_c, 9, 36, 64
1, 200649, Note_on_c, 9, 51, 0
1, 200880, Note_on_c, 9, 51, 64
1, 200880, Note_on_c, 9, 51, 0
1, 200880, Note_on_c, 9, 75, 64
1, 200899, Note_on_c, 9, 75, 0
1, 200900, Note_on_c, 9, 62, 64
1, 200939, Note_on_c, 9, 62, 0
1, 201119, Note_on_c, 9, 36, 0
1, 201120, Note_on_c, 9, 38, 64
1, 201120, Note_on_c, 9, 36, 64
1, 201134, Note_on_c, 9, 38, 0
1, 201135, Note_on_c, 9, 64, 64
1, 201135, Note_on_c, 9, 38, 64
1, 201135, Note_on_c, 9, 51, 64
1, 201135, Note_on_c, 9, 69, 64
1, 201142, Note_on_c, 9, 64, 0
1, 201142, Note_on_c, 9, 51, 0
1, 201359, Note_on_c, 9, 38, 0
1, 201359, Note_on_c, 9, 69, 0
1, 201360, Note_on_c, 9, 51, 64
1, 201360, Note_on_c, 9, 51, 0
1, 201375, Note_on_c, 9, 64, 64
1, 201382, Note_on_c, 9, 64, 0
1, 201599, Note_on_c, 9, 36, 0
1, 201600, Note_on_c, 9, 51, 64
1, 201600, Note_on_c, 9, 75, 64
1, 201600, Note_on_c, 9, 36, 64
1, 201609, Note_on_c, 9, 51, 0
1, 201839, Note_on_c, 9, 75, 0
1, 201839, Note_on_c, 9, 36, 0
1, 201840, Note_on_c, 9, 36, 64
1, 201870, Note_on_c, 9, 51, 64
1, 201872, Note_on_c, 9, 51, 0
1, 202079, Note_on_c, 9, 36, 0
1, 202080, Note_on_c, 9, 63, 64
1, 202080, Note_on_c, 9, 38, 64
1, 202080, Note_on_c, 9, 51, 64
1, 202080, Note_on_c, 9, 69, 64
1, 202089, Note_on_c, 9, 63, 0
1, 202089, Note_on_c, 9, 51, 0
1, 202319, Note_on_c, 9, 38, 0
1, 202319, Note_on_c, 9, 69, 0
1, 202320, Note_on_c, 9, 63, 64
1, 202320, Note_on_c, 9, 51, 64
1, 202320, Note_on_c, 9, 75, 64
1, 202329, Note_on_c, 9, 63, 0
1, 202329, Note_on_c, 9, 51, 0
1, 202380, Note_on_c, 9, 36, 64
1, 202559, Note_on_c, 9, 75, 0
1, 202559, Note_on_c, 9, 36, 0
1, 202560, Note_on_c, 9, 51, 64
1, 202560, Note_on_c, 9, 36, 64
1, 202569, Note_on_c, 9, 51, 0
1, 202800, Note_on_c, 9, 51, 64
1, 202800, Note_on_c, 9, 51, 0
1, 202830, Note_on_c, 9, 62, 64
1, 202919, Note_on_c, 9, 62, 0
1, 203039, Note_on_c, 9, 36, 0
1, 203040, Note_on_c, 9, 51, 64
1, 203040, Note_on_c, 9, 51, 0
1, 203040, Note_on_c, 9, 69, 64
1, 203040, Note_on_c, 9, 75, 64
1, 203040, Note_on_c, 9, 36, 64
1, 203070, Note_on_c, 9, 64, 64
1, 203070, Note_on_c, 9, 38, 64
1, 203072, Note_on_c, 9, 64, 0
1, 203159, Note_on_c, 9, 38, 0
1, 203279, Note_on_c, 9, 69, 0
1, 203279, Note_on_c, 9, 75, 0
1, 203280, Note_on_c, 9, 38, 64
1, 203280, Note_on_c, 9, 51, 64
1, 203280, Note_on_c, 9, 51, 0
1, 203309, Note_on_c, 9, 38, 0
1, 203310, Note_on_c, 9, 64, 64
1, 203310, Note_on_c, 9, 38, 64
1, 203312, Note_on_c, 9, 64, 0
1, 203399, Note_on_c, 9, 38, 0
1, 203400, Note_on_c, 9, 38, 64
1, 203519, Note_on_c, 9, 36, 0
1, 203519, Note_on_c, 9, 38, 0
1, 203520, Note_on_c, 9, 51, 64
1, 203520, Note_on_c, 9, 73, 64
1, 203520, Note_on_c, 9, 36, 64
1, 203529, Note_on_c, 9, 51, 0
1, 203759, Note_on_c, 9, 73, 0
1, 203760, Note_on_c, 9, 51, 64
1, 203769, Note_on_c, 9, 51, 0
1, 203999, Note_on_c, 9, 36, 0
1, 204000, Note_on_c, 9, 63, 64
1, 204000, Note_on_c, 9, 38, 64
1, 204000, Note_on_c, 9, 51, 64
1, 204000, Note_on_c, 9, 69, 64
1, 204000, Note_on_c, 9, 75, 64
1, 204009, Note_on_c, 9, 63, 0
1, 204009, Note_on_c, 9, 51, 0
1, 204239, Note_on_c, 9, 38, 0
1, 204239, Note_on_c, 9, 69, 0
1, 204239, Note_on_c, 9, 75, 0
1, 204240, Note_on_c, 9, 51, 64
1, 204240, Note_on_c, 9, 36, 64
1, 204249, Note_on_c, 9, 51, 0
1, 204479, Note_on_c, 9, 36, 0
1, 204480, Note_on_c, 9, 51, 64
1, 204480, Note_on_c, 9, 36, 64
1, 204489, Note_on_c, 9, 51, 0
1, 204720, Note_on_c, 9, 51, 64
1, 204720, Note_on_c, 9, 51, 0
1, 204740, Note_on_c, 9, 62, 64
1, 204740, Note_on_c, 9, 75, 64
1, 204779, Note_on_c, 9, 62, 0
1, 204779, Note_on_c, 9, 75, 0
1, 204959, Note_on_c, 9, 36, 0
1, 204960, Note_on_c, 9, 64, 64
1, 204960, Note_on_c, 9, 38, 64
1, 204960, Note_on_c, 9, 51, 64
1, 204960, Note_on_c, 9, 69, 64
1, 204966, Note_on_c, 9, 64, 0
1, 204966, Note_on_c, 9, 51, 0
1, 205139, Note_on_c, 9, 38, 0
1, 205139, Note_on_c, 9, 69, 0
1, 205140, Note_on_c, 9, 49, 64
1, 205141, Note_on_c, 9, 49, 0
1, 205200, Note_on_c, 9, 64, 64
1, 205200, Note_on_c, 9, 36, 64
1, 205209, Note_on_c, 9, 64, 0
1, 205439, Note_on_c, 9, 36, 0
1, 205440, Note_on_c, 9, 75, 64
1, 205440, Note_on_c, 9, 36, 64
1, 205679, Note_on_c, 9, 75, 0
1, 205680, Note_on_c, 9, 51, 64
1, 205684, Note_on_c, 9, 51, 0
1, 205800, Note_on_c, 9, 49, 64
1, 205804, Note_on_c, 9, 49, 0
1, 205919, Note_on_c, 9, 36, 0
1, 205920, Note_on_c, 9, 38, 64
1, 205920, Note_on_c, 9, 69, 64
1, 205950, Note_on_c, 9, 62, 64
1, 206039, Note_on_c, 9, 62, 0
1, 206159, Note_on_c, 9, 38, 0
1, 206159, Note_on_c, 9, 69, 0
1, 206160, Note_on_c, 9, 38, 64
1, 206160, Note_on_c, 9, 75, 64
1, 206160, Note_on_c, 9, 36, 64
1, 206190, Note_on_c, 9, 62, 64
1, 206279, Note_on_c, 9, 62, 0
1, 206399, Note_on_c, 9, 38, 0
1, 206399, Note_on_c, 9, 75, 0
1, 206399, Note_on_c, 9, 36, 0
1, 206400, Note_on_c, 9, 64, 64
1, 206400, Note_on_c, 9, 51, 64
1, 206404, Note_on_c, 9, 64, 0
1, 206404, Note_on_c, 9, 51, 0
1, 206520, Note_on_c, 9, 38, 64
1, 206639, Note_on_c, 9, 38, 0
1, 206640, Note_on_c, 9, 64, 64
1, 206640, Note_on_c, 9, 69, 64
1, 206640, Note_on_c, 9, 49, 64
1, 206640, Note_on_c, 9, 36, 64
1, 206649, Note_on_c, 9, 64, 0
1, 206649, Note_on_c, 9, 49, 0
1, 206879, Note_on_c, 9, 69, 0
1, 206879, Note_on_c, 9, 36, 0
1, 206880, Note_on_c, 9, 64, 64
1, 206880, Note_on_c, 9, 38, 64
1, 206880, Note_on_c, 9, 69, 64
1, 206880, Note_on_c, 9, 75, 64
1, 206880, Note_on_c, 9, 49, 64
1, 206889, Note_on_c, 9, 64, 0
1, 206889, Note_on_c, 9, 49, 0
1, 207000, Note_on_c, 9, 36, 64
1, 207119, Note_on_c, 9, 38, 0
1, 207119, Note_on_c, 9, 69, 0
1, 207119, Note_on_c, 9, 75, 0
1, 207119, Note_on_c, 9, 36, 0
1, 207120, Note_on_c, 9, 64, 64
1, 207120, Note_on_c, 9, 36, 64
1, 207121, Note_on_c, 9, 64, 0
1, 207180, Note_on_c, 9, 38, 64
1, 207239, Note_on_c, 9, 38, 0
1, 207240, Note_on_c, 9, 38, 64
1, 207240, Note_on_c, 9, 51, 64
1, 207244, Note_on_c, 9, 51, 0
1, 207359, Note_on_c, 9, 36, 0
1, 207359, Note_on_c, 9, 38, 0
1, 207360, Note_on_c, 9, 73, 64
1, 207360, Note_on_c, 9, 36, 64
1, 207719, Note_on_c, 9, 73, 0
1, 207720, Note_on_c, 9, 38, 64
1, 207720, Note_on_c, 9, 51, 64
1, 207720, Note_on_c, 9, 69, 64
1, 207720, Note_on_c, 9, 75, 64
1, 207724, Note_on_c, 9, 51, 0
1, 207839, Note_on_c, 9, 36, 0
1, 207839, Note_on_c, 9, 38, 0
1, 207839, Note_on_c, 9, 69, 0
1, 207839, Note_on_c, 9, 75, 0
1, 207840, Note_on_c, 9, 63, 64
1, 207846, Note_on_c, 9, 63, 0
1, 208020, Note_on_c, 9, 51, 64
1, 208021, Note_on_c, 9, 51, 0
1, 208080, Note_on_c, 9, 62, 64
1, 208080, Note_on_c, 9, 36, 64
1, 208319, Note_on_c, 9, 62, 0
1, 208319, Note_on_c, 9, 36, 0
1, 208320, Note_on_c, 9, 51, 64
1, 208320, Note_on_c, 9, 36, 64
1, 208326, Note_on_c, 9, 51, 0
1, 208500, Note_on_c, 9, 51, 64
1, 208501, Note_on_c, 9, 51, 0
1, 208560, Note_on_c, 9, 62, 64
1, 208560, Note_on_c, 9, 75, 64
1, 208799, Note_on_c, 9, 36, 0
1, 208799, Note_on_c, 9, 62, 0
1, 208799, Note_on_c, 9, 75, 0
1, 208800, Note_on_c, 9, 38, 64
1, 208800, Note_on_c, 9, 51, 64
1, 208800, Note_on_c, 9, 51, 0
1, 208800, Note_on_c, 9, 69, 64
1, 208829, Note_on_c, 9, 38, 0
1, 208830, Note_on_c, 9, 64, 64
1, 208830, Note_on_c, 9, 38, 64
1, 208832, Note_on_c, 9, 64, 0
1, 208919, Note_on_c, 9, 38, 0
1, 208920, Note_on_c, 9, 38, 64
1, 209039, Note_on_c, 9, 69, 0
1, 209039, Note_on_c, 9, 38, 0
1, 209040, Note_on_c, 9, 51, 64
1, 209040, Note_on_c, 9, 51, 0
1, 209040, Note_on_c, 9, 36, 64
1, 209070, Note_on_c, 9, 64, 64
1, 209072, Note_on_c, 9, 64, 0
1, 209279, Note_on_c, 9, 36, 0
1, 209280, Note_on_c, 9, 51, 64
1, 209280, Note_on_c, 9, 51, 0
1, 209280, Note_on_c, 9, 36, 64
1, 209300, Note_on_c, 9, 75, 64
1, 209339, Note_on_c, 9, 75, 0
1, 209520, Note_on_c, 9, 51, 64
1, 209526, Note_on_c, 9, 51, 0
1, 209700, Note_on_c, 9, 63, 64
1, 209700, Note_on_c, 9, 38, 64
1, 209700, Note_on_c, 9, 51, 64
1, 209700, Note_on_c, 9, 69, 64
1, 209701, Note_on_c, 9, 63, 0
1, 209701, Note_on_c, 9, 51, 0
1, 209759, Note_on_c, 9, 36, 0
1, 209759, Note_on_c, 9, 38, 0
1, 209759, Note_on_c, 9, 69, 0
1, 209940, Note_on_c, 9, 51, 64
1, 209941, Note_on_c, 9, 51, 0
1, 210000, Note_on_c, 9, 62, 64
1, 210000, Note_on_c, 9, 75, 64
1, 210000, Note_on_c, 9, 36, 64
1, 210239, Note_on_c, 9, 62, 0
1, 210239, Note_on_c, 9, 75, 0
1, 210239, Note_on_c, 9, 36, 0
1, 210240, Note_on_c, 9, 51, 64
1, 210240, Note_on_c, 9, 36, 64
1, 210249, Note_on_c, 9, 51, 0
1, 210479, Note_on_c, 9, 36, 0
1, 210480, Note_on_c, 9, 51, 64
1, 210480, Note_on_c, 9, 62, 64
1, 210480, Note_on_c, 9, 36, 64
1, 210489, Note_on_c, 9, 51, 0
1, 210719, Note_on_c, 9, 62, 0
1, 210719, Note_on_c, 9, 36, 0
1, 210720, Note_on_c, 9, 38, 64
1, 210720, Note_on_c, 9, 69, 64
1, 210749, Note_on_c, 9, 38, 0
1, 210750, Note_on_c, 9, 64, 64
1, 210750, Note_on_c, 9, 64, 0
1, 210750, Note_on_c, 9, 38, 64
1, 210750, Note_on_c, 9, 51, 64
1, 210750, Note_on_c, 9, 51, 0
1, 210764, Note_on_c, 9, 38, 0
1, 210765, Note_on_c, 9, 38, 64
1, 210765, Note_on_c, 9, 75, 64
1, 210959, Note_on_c, 9, 69, 0
1, 210959, Note_on_c, 9, 38, 0
1, 210959, Note_on_c, 9, 75, 0
1, 210960, Note_on_c, 9, 64, 64
1, 210960, Note_on_c, 9, 51, 64
1, 210960, Note_on_c, 9, 36, 64
1, 210969, Note_on_c, 9, 64, 0
1, 210969, Note_on_c, 9, 51, 0
1, 211199, Note_on_c, 9, 36, 0
1, 211200, Note_on_c, 9, 51, 64
1, 211200, Note_on_c, 9, 73, 64
1, 211200, Note_on_c, 9, 36, 64
1, 211209, Note_on_c, 9, 51, 0
1, 211439, Note_on_c, 9, 73, 0
1, 211440, Note_on_c, 9, 51, 64
1, 211449, Note_on_c, 9, 51, 0
1, 211679, Note_on_c, 9, 36, 0
1, 211680, Note_on_c, 9, 63, 64
1, 211680, Note_on_c, 9, 38, 64
1, 211680, Note_on_c, 9, 51, 64
1, 211680, Note_on_c, 9, 69, 64
1, 211680, Note_on_c, 9, 75, 64
1, 211689, Note_on_c, 9, 63, 0
1, 211689, Note_on_c, 9, 51, 0
1, 211919, Note_on_c, 9, 38, 0
1, 211919, Note_on_c, 9, 69, 0
1, 211919, Note_on_c, 9, 75, 0
1, 211920, Note_on_c, 9, 51, 64
1, 211920, Note_on_c, 9, 36, 64
1, 211929, Note_on_c, 9, 51, 0
1, 212159, Note_on_c, 9, 36, 0
1, 212160, Note_on_c, 9, 51, 64
1, 212160, Note_on_c, 9, 36, 64
1, 212169, Note_on_c, 9, 51, 0
1, 212400, Note_on_c, 9, 51, 64
1, 212400, Note_on_c, 9, 62, 64
1, 212400, Note_on_c, 9, 75, 64
1, 212409, Note_on_c, 9, 51, 0
1, 212639, Note_on_c, 9, 36, 0
1, 212639, Note_on_c, 9, 62, 0
1, 212639, Note_on_c, 9, 75, 0
1, 212640, Note_on_c, 9, 64, 64
1, 212640, Note_on_c, 9, 64, 0
1, 212640, Note_on_c, 9, 51, 64
1, 212640, Note_on_c, 9, 51, 0
1, 212640, Note_on_c, 9, 69, 64
1, 212670, Note_on_c, 9, 38, 64
1, 212759, Note_on_c, 9, 38, 0
1, 212879, Note_on_c, 9, 69, 0
1, 212880, Note_on_c, 9, 64, 64
1, 212880, Note_on_c, 9, 51, 64
1, 212889, Note_on_c, 9, 64, 0
1, 212889, Note_on_c, 9, 51, 0
1, 213120, Note_on_c, 9, 51, 64
1, 213120, Note_on_c, 9, 51, 0
1, 213120, Note_on_c, 9, 36, 64
1, 213150, Note_on_c, 9, 75, 64
1, 213239, Note_on_c, 9, 75, 0
1, 213360, Note_on_c, 9, 51, 64
1, 213369, Note_on_c, 9, 51, 0
1, 213599, Note_on_c, 9, 36, 0
1, 213600, Note_on_c, 9, 63, 64
1, 213600, Note_on_c, 9, 38, 64
1, 213600, Note_on_c, 9, 51, 64
1, 213600, Note_on_c, 9, 69, 64
1, 213604, Note_on_c, 9, 63, 0
1, 213604, Note_on_c, 9, 51, 0
1, 213719, Note_on_c, 9, 38, 0
1, 213719, Note_on_c, 9, 69, 0
1, 213720, Note_on_c, 9, 51, 64
1, 213721, Note_on_c, 9, 51, 0
1, 213820, Note_on_c, 9, 75, 64
1, 213839, Note_on_c, 9, 75, 0
1, 213840, Note_on_c, 9, 36, 64
1, 214079, Note_on_c, 9, 36, 0
1, 214080, Note_on_c, 9, 51, 64
1, 214080, Note_on_c, 9, 36, 64
1, 214089, Note_on_c, 9, 51, 0
1, 214319, Note_on_c, 9, 36, 0
1, 214320, Note_on_c, 9, 51, 64
1, 214320, Note_on_c, 9, 51, 0
1, 214320, Note_on_c, 9, 69, 64
1, 214320, Note_on_c, 9, 36, 64
1, 214339, Note_on_c, 9, 69, 0
1, 214340, Note_on_c, 9, 62, 64
1, 214379, Note_on_c, 9, 62, 0
1, 214440, Note_on_c, 9, 38, 64
1, 214499, Note_on_c, 9, 38, 0
1, 214500, Note_on_c, 9, 38, 64
1, 214559, Note_on_c, 9, 36, 0
1, 214559, Note_on_c, 9, 38, 0
1, 214560, Note_on_c, 9, 64, 64
1, 214560, Note_on_c, 9, 51, 64
1, 214560, Note_on_c, 9, 69, 64
1, 214560, Note_on_c, 9, 75, 64
1, 214560, Note_on_c, 9, 36, 64
1, 214569, Note_on_c, 9, 64, 0
1, 214569, Note_on_c, 9, 51, 0
1, 214799, Note_on_c, 9, 69, 0
1, 214799, Note_on_c, 9, 75, 0
1, 214800, Note_on_c, 9, 64, 64
1, 214800, Note_on_c, 9, 38, 64
1, 214800, Note_on_c, 9, 51, 64
1, 214809, Note_on_c, 9, 64, 0
1, 214809, Note_on_c, 9, 51, 0
1, 215039, Note_on_c, 9, 36, 0
1, 215039, Note_on_c, 9, 38, 0
1, 215040, Note_on_c, 9, 73, 64
1, 215040, Note_on_c, 9, 49, 64
1, 215040, Note_on_c, 9, 36, 64
1, 215060, Note_on_c, 9, 49, 0
1, 215519, Note_on_c, 9, 73, 0
1, 215519, Note_on_c, 9, 36, 0
1, 215520, Note_on_c, 9, 63, 64
1, 215520, Note_on_c, 9, 38, 64
1, 215520, Note_on_c, 9, 51, 64
1, 215520, Note_on_c, 9, 69, 64
1, 215520, Note_on_c, 9, 75, 64
1, 215529, Note_on_c, 9, 63, 0
1, 215529, Note_on_c, 9, 51, 0
1, 215759, Note_on_c, 9, 38, 0
1, 215759, Note_on_c, 9, 69, 0
1, 215759, Note_on_c, 9, 75, 0
1, 215760, Note_on_c, 9, 51, 64
1, 215760, Note_on_c, 9, 36, 64
1, 215769, Note_on_c, 9, 51, 0
1, 215999, Note_on_c, 9, 36, 0
1, 216000, Note_on_c, 9, 51, 64
1, 216009, Note_on_c, 9, 51, 0
1, 216240, Note_on_c, 9, 51, 64
1, 216240, Note_on_c, 9, 62, 64
1, 216240, Note_on_c, 9, 75, 64
1, 216240, Note_on_c, 9, 36, 64
1, 216249, Note_on_c, 9, 51, 0
1, 216479, Note_on_c, 9, 62, 0
1, 216479, Note_on_c, 9, 75, 0
1, 216479, Note_on_c, 9, 36, 0
1, 216480, Note_on_c, 9, 64, 64
1, 216480, Note_on_c, 9, 38, 64
1, 216480, Note_on_c, 9, 51, 64
1, 216480, Note_on_c, 9, 69, 64
1, 216489, Note_on_c, 9, 64, 0
1, 216489, Note_on_c, 9, 51, 0
1, 216719, Note_on_c, 9, 38, 0
1, 216719, Note_on_c, 9, 69, 0
1, 216720, Note_on_c, 9, 51, 64
1, 216720, Note_on_c, 9, 51, 0
1, 216720, Note_on_c, 9, 36, 64
1, 216735, Note_on_c, 9, 64, 64
1, 216742, Note_on_c, 9, 64, 0
1, 216959, Note_on_c, 9, 36, 0
1, 216960, Note_on_c, 9, 51, 64
1, 216960, Note_on_c, 9, 75, 64
1, 216969, Note_on_c, 9, 51, 0
1, 217199, Note_on_c, 9, 75, 0
1, 217200, Note_on_c, 9, 51, 64
1, 217200, Note_on_c, 9, 36, 64
1, 217209, Note_on_c, 9, 51, 0
1, 217439, Note_on_c, 9, 36, 0
1, 217440, Note_on_c, 9, 63, 64
1, 217440, Note_on_c, 9, 38, 64
1, 217440, Note_on_c, 9, 51, 64
1, 217440, Note_on_c, 9, 69, 64
1, 217449, Note_on_c, 9, 63, 0
1, 217449, Note_on_c, 9, 51, 0
1, 217679, Note_on_c, 9, 38, 0
1, 217679, Note_on_c, 9, 69, 0
1, 217680, Note_on_c, 9, 75, 64
1, 217680, Note_on_c, 9, 36, 64
1, 217695, Note_on_c, 9, 51, 64
1, 217702, Note_on_c, 9, 51, 0
1, 217919, Note_on_c, 9, 75, 0
1, 217919, Note_on_c, 9, 36, 0
1, 217920, Note_on_c, 9, 51, 64
1, 217926, Note_on_c, 9, 51, 0
1, 218100, Note_on_c, 9, 51, 64
1, 218101, Note_on_c, 9, 51, 0
1, 218160, Note_on_c, 9, 69, 64
1, 218160, Note_on_c, 9, 36, 64
1, 218279, Note_on_c, 9, 69, 0
1, 218280, Note_on_c, 9, 64, 64
1, 218280, Note_on_c, 9, 38, 64
1, 218280, Note_on_c, 9, 51, 64
1, 218280, Note_on_c, 9, 75, 64
1, 218284, Note_on_c, 9, 64, 0
1, 218284, Note_on_c, 9, 51, 0
1, 218399, Note_on_c, 9, 36, 0
1, 218399, Note_on_c, 9, 38, 0
1, 218399, Note_on_c, 9, 75, 0
1, 218400, Note_on_c, 9, 69, 64
1, 218400, Note_on_c, 9, 36, 64
1, 218579, Note_on_c, 9, 69, 0
1, 218580, Note_on_c, 9, 51, 64
1, 218581, Note_on_c, 9, 51, 0
1, 218640, Note_on_c, 9, 64, 64
1, 218649, Note_on_c, 9, 64, 0
1, 218879, Note_on_c, 9, 36, 0
1, 218880, Note_on_c, 9, 51, 64
1, 218880, Note_on_c, 9, 73, 64
1, 218880, Note_on_c, 9, 36, 64
1, 218889, Note_on_c, 9, 51, 0
1, 219119, Note_on_c, 9, 73, 0
1, 219120, Note_on_c, 9, 51, 64
1, 219129, Note_on_c, 9, 51, 0
1, 219359, Note_on_c, 9, 36, 0
1, 219360, Note_on_c, 9, 63, 64
1, 219360, Note_on_c, 9, 38, 64
1, 219360, Note_on_c, 9, 51, 64
1, 219360, Note_on_c, 9, 69, 64
1, 219360, Note_on_c, 9, 75, 64
1, 219369, Note_on_c, 9, 63, 0
1, 219369, Note_on_c, 9, 51, 0
1, 219599, Note_on_c, 9, 38, 0
1, 219599, Note_on_c, 9, 69, 0
1, 219599, Note_on_c, 9, 75, 0
1, 219600, Note_on_c, 9, 38, 64
1, 219600, Note_on_c, 9, 36, 64
1, 219615, Note_on_c, 9, 51, 64
1, 219622, Note_on_c, 9, 51, 0
1, 219839, Note_on_c, 9, 38, 0
1, 219839, Note_on_c, 9, 36, 0
1, 219840, Note_on_c, 9, 64, 64
1, 219840, Note_on_c, 9, 51, 64
1, 219840, Note_on_c, 9, 36, 64
1, 219849, Note_on_c, 9, 64, 0
1, 219849, Note_on_c, 9, 51, 0
1, 220079, Note_on_c, 9, 36, 0
1, 220080, Note_on_c, 9, 38, 64
1, 220080, Note_on_c, 9, 51, 64
1, 220080, Note_on_c, 9, 51, 0
1, 220080, Note_on_c, 9, 75, 64
1, 220080, Note_on_c, 9, 36, 64
1, 220094, Note_on_c, 9, 38, 0
1, 220095, Note_on_c, 9, 64, 64
1, 220095, Note_on_c, 9, 64, 0
1, 220095, Note_on_c, 9, 38, 64
1, 220139, Note_on_c, 9, 38, 0
1, 220140, Note_on_c, 9, 38, 64
1, 220199, Note_on_c, 9, 75, 0
1, 220199, Note_on_c, 9, 38, 0
1, 220200, Note_on_c, 9, 38, 64
1, 220200, Note_on_c, 9, 69, 64
1, 220259, Note_on_c, 9, 36, 0
1, 220260, Note_on_c, 9, 36, 64
1, 220319, Note_on_c, 9, 38, 0
1, 220319, Note_on_c, 9, 69, 0
1, 220319, Note_on_c, 9, 36, 0
1, 220320, Note_on_c, 9, 64, 64
1, 220320, Note_on_c, 9, 51, 64
1, 220329, Note_on_c, 9, 64, 0
1, 220329, Note_on_c, 9, 51, 0
1, 220560, Note_on_c, 9, 38, 64
1, 220560, Note_on_c, 9, 36, 64
1, 220619, Note_on_c, 9, 38, 0
1, 220620, Note_on_c, 9, 64, 64
1, 220620, Note_on_c, 9, 51, 64
1, 220624, Note_on_c, 9, 64, 0
1, 220624, Note_on_c, 9, 51, 0
1, 220740, Note_on_c, 9, 73, 64
1, 220740, Note_on_c, 9, 49, 64
1, 220741, Note_on_c, 9, 49, 0
1, 220799, Note_on_c, 9, 36, 0
1, 220799, Note_on_c, 9, 73, 0
1, 220800, Note_on_c, 9, 69, 64
1, 220800, Note_on_c, 9, 36, 64
1, 221039, Note_on_c, 9, 69, 0
1, 221040, Note_on_c, 9, 51, 64
1, 221040, Note_on_c, 9, 51, 0
1, 221070, Note_on_c, 9, 69, 64
1, 221159, Note_on_c, 9, 69, 0
1, 221160, Note_on_c, 9, 63, 64
1, 221160, Note_on_c, 9, 51, 64
1, 221164, Note_on_c, 9, 63, 0
1, 221164, Note_on_c, 9, 51, 0
1, 221279, Note_on_c, 9, 36, 0
1, 221280, Note_on_c, 9, 38, 64
1, 221280, Note_on_c, 9, 69, 64
1, 221280, Note_on_c, 9, 75, 64
1, 221519, Note_on_c, 9, 38, 0
1, 221519, Note_on_c, 9, 69, 0
1, 221519, Note_on_c, 9, 75, 0
1, 221520, Note_on_c, 9, 51, 64
1, 221520, Note_on_c, 9, 69, 64
1, 221520, Note_on_c, 9, 36, 64
1, 221529, Note_on_c, 9, 51, 0
1, 221759, Note_on_c, 9, 69, 0
1, 221759, Note_on_c, 9, 36, 0
1, 221760, Note_on_c, 9, 62, 64
1, 221760, Note_on_c, 9, 69, 64
1, 221760, Note_on_c, 9, 49, 64
1, 221760, Note_on_c, 9, 36, 64
1, 221769, Note_on_c, 9, 49, 0
1, 221999, Note_on_c, 9, 62, 0
1, 221999, Note_on_c, 9, 69, 0
1, 222000, Note_on_c, 9, 62, 64
1, 222000, Note_on_c, 9, 69, 64
1, 222000, Note_on_c, 9, 75, 64
1, 222239, Note_on_c, 9, 36, 0
1, 222239, Note_on_c, 9, 62, 0
1, 222239, Note_on_c, 9, 69, 0
1, 222239, Note_on_c, 9, 75, 0
1, 222240, Note_on_c, 9, 64, 64
1, 222240, Note_on_c, 9, 64, 0
1, 222240, Note_on_c, 9, 38, 64
1, 222240, Note_on_c, 9, 69, 64
1, 222269, Note_on_c, 9, 38, 0
1, 222270, Note_on_c, 9, 38, 64
1, 222270, Note_on_c, 9, 51, 64
1, 222272, Note_on_c, 9, 51, 0
1, 222479, Note_on_c, 9, 69, 0
1, 222479, Note_on_c, 9, 38, 0
1, 222480, Note_on_c, 9, 69, 64
1, 222480, Note_on_c, 9, 36, 64
1, 222495, Note_on_c, 9, 64, 64
1, 222495, Note_on_c, 9, 51, 64
1, 222495, Note_on_c, 9, 75, 64
1, 222502, Note_on_c, 9, 64, 0
1, 222502, Note_on_c, 9, 51, 0
1, 222719, Note_on_c, 9, 69, 0
1, 222719, Note_on_c, 9, 36, 0
1, 222719, Note_on_c, 9, 75, 0
1, 222720, Note_on_c, 9, 69, 64
1, 222720, Note_on_c, 9, 73, 64
1, 222720, Note_on_c, 9, 36, 64
1, 222749, Note_on_c, 9, 69, 0
1, 222750, Note_on_c, 9, 73, 0
1, 222750, Note_on_c, 9, 73, 64
1, 222750, Note_on_c, 9, 49, 64
1, 222752, Note_on_c, 9, 49, 0
1, 222840, Note_on_c, 9, 69, 64
1, 222959, Note_on_c, 9, 73, 0
1, 222959, Note_on_c, 9, 69, 0
1, 222960, Note_on_c, 9, 69, 64
1, 223199, Note_on_c, 9, 36, 0
1, 223199, Note_on_c, 9, 69, 0
1, 223200, Note_on_c, 9, 63, 64
1, 223200, Note_on_c, 9, 38, 64
1, 223200, Note_on_c, 9, 51, 64
1, 223200, Note_on_c, 9, 69, 64
1, 223200, Note_on_c, 9, 75, 64
1, 223209, Note_on_c, 9, 63, 0
1, 223209, Note_on_c, 9, 51, 0
1, 223439, Note_on_c, 9, 38, 0
1, 223439, Note_on_c, 9, 69, 0
1, 223439, Note_on_c, 9, 75, 0
1, 223440, Note_on_c, 9, 51, 64
1, 223440, Note_on_c, 9, 69, 64
1, 223440, Note_on_c, 9, 36, 64
1, 223449, Note_on_c, 9, 51, 0
1, 223679, Note_on_c, 9, 69, 0
1, 223679, Note_on_c, 9, 36, 0
1, 223680, Note_on_c, 9, 51, 64
1, 223680, Note_on_c, 9, 51, 0
1, 223680, Note_on_c, 9, 69, 64
1, 223680, Note_on_c, 9, 36, 64
1, 223699, Note_on_c, 9, 69, 0
1, 223700, Note_on_c, 9, 62, 64
1, 223739, Note_on_c, 9, 62, 0
1, 223919, Note_on_c, 9, 36, 0
1, 223920, Note_on_c, 9, 69, 64
1, 223920, Note_on_c, 9, 75, 64
1, 223920, Note_on_c, 9, 36, 64
1, 223935, Note_on_c, 9, 51, 64
1, 223935, Note_on_c, 9, 51, 0
1, 223935, Note_on_c, 9, 62, 64
1, 223979, Note_on_c, 9, 62, 0
1, 224039, Note_on_c, 9, 69, 0
1, 224039, Note_on_c, 9, 75, 0
1, 224040, Note_on_c, 9, 69, 64
1, 224129, Note_on_c, 9, 69, 0
1, 224145, Note_on_c, 9, 64, 64
1, 224145, Note_on_c, 9, 64, 0
1, 224145, Note_on_c, 9, 38, 64
1, 224145, Note_on_c, 9, 51, 64
1, 224145, Note_on_c, 9, 51, 0
1, 224159, Note_on_c, 9, 36, 0
1, 224159, Note_on_c, 9, 38, 0
1, 224160, Note_on_c, 9, 38, 64
1, 224160, Note_on_c, 9, 36, 64
1, 224384, Note_on_c, 9, 38, 0
1, 224399, Note_on_c, 9, 36, 0
1, 224400, Note_on_c, 9, 64, 64
1, 224400, Note_on_c, 9, 38, 64
1, 224400, Note_on_c, 9, 51, 64
1, 224400, Note_on_c, 9, 69, 64
1, 224400, Note_on_c, 9, 75, 64
1, 224400, Note_on_c, 9, 36, 64
1, 224409, Note_on_c, 9, 64, 0
1, 224409, Note_on_c, 9, 51, 0
1, 224639, Note_on_c, 9, 38, 0
1, 224639, Note_on_c, 9, 69, 0
1, 224639, Note_on_c, 9, 75, 0
1, 224639, Note_on_c, 9, 36, 0
1, 224640, Note_on_c, 9, 69, 64
1, 224640, Note_on_c, 9, 49, 64
1, 224640, Note_on_c, 9, 49, 0
1, 224640, Note_on_c, 9, 36, 64
1, 224659, Note_on_c, 9, 69, 0
1, 224660, Note_on_c, 9, 73, 64
1, 224699, Note_on_c, 9, 73, 0
1, 224880, Note_on_c, 9, 69, 64
1, 225119, Note_on_c, 9, 36, 0
1, 225119, Note_on_c, 9, 69, 0
1, 225120, Note_on_c, 9, 63, 64
1, 225120, Note_on_c, 9, 38, 64
1, 225120, Note_on_c, 9, 51, 64
1, 225120, Note_on_c, 9, 69, 64
1, 225120, Note_on_c, 9, 75, 64
1, 225129, Note_on_c, 9, 63, 0
1, 225129, Note_on_c, 9, 51, 0
1, 225359, Note_on_c, 9, 38, 0
1, 225359, Note_on_c, 9, 69, 0
1, 225359, Note_on_c, 9, 75, 0
1, 225360, Note_on_c, 9, 63, 64
1, 225360, Note_on_c, 9, 63, 0
1, 225360, Note_on_c, 9, 38, 64
1, 225360, Note_on_c, 9, 69, 64
1, 225360, Note_on_c, 9, 36, 64
1, 225374, Note_on_c, 9, 38, 0
1, 225375, Note_on_c, 9, 38, 64
1, 225375, Note_on_c, 9, 51, 64
1, 225382, Note_on_c, 9, 51, 0
1, 225599, Note_on_c, 9, 69, 0
1, 225599, Note_on_c, 9, 36, 0
1, 225599, Note_on_c, 9, 38, 0
1, 225600, Note_on_c, 9, 38, 64
1, 225600, Note_on_c, 9, 69, 64
1, 225600, Note_on_c, 9, 49, 64
1, 225600, Note_on_c, 9, 36, 64
1, 225609, Note_on_c, 9, 49, 0
1, 225839, Note_on_c, 9, 38, 0
1, 225839, Note_on_c, 9, 69, 0
1, 225840, Note_on_c, 9, 62, 64
1, 225840, Note_on_c, 9, 69, 64
1, 225840, Note_on_c, 9, 75, 64
1, 225959, Note_on_c, 9, 36, 0
1, 225959, Note_on_c, 9, 62, 0
1, 225959, Note_on_c, 9, 69, 0
1, 225959, Note_on_c, 9, 75, 0
1, 225960, Note_on_c, 9, 38, 64
1, 225960, Note_on_c, 9, 36, 64
1, 226079, Note_on_c, 9, 38, 0
1, 226079, Note_on_c, 9, 36, 0
1, 226080, Note_on_c, 9, 64, 64
1, 226080, Note_on_c, 9, 38, 64
1, 226080, Note_on_c, 9, 51, 64
1, 226080, Note_on_c, 9, 69, 64
1, 226080, Note_on_c, 9, 36, 64
1, 226089, Note_on_c, 9, 64, 0
1, 226089, Note_on_c, 9, 51, 0
1, 226319, Note_on_c, 9, 38, 0
1, 226319, Note_on_c, 9, 69, 0
1, 226319, Note_on_c, 9, 36, 0
1, 226320, Note_on_c, 9, 64, 64
1, 226320, Note_on_c, 9, 38, 64
1, 226320, Note_on_c, 9, 51, 64
1, 226320, Note_on_c, 9, 69, 64
1, 226320, Note_on_c, 9, 75, 64
1, 226329, Note_on_c, 9, 64, 0
1, 226329, Note_on_c, 9, 51, 0
1, 226350, Note_on_c, 9, 36, 64
1, 226439, Note_on_c, 9, 36, 0
1, 226559, Note_on_c, 9, 38, 0
1, 226559, Note_on_c, 9, 69, 0
1, 226559, Note_on_c, 9, 75, 0
1, 226560, Note_on_c, 9, 69, 64
1, 226560, Note_on_c, 9, 73, 64
1, 226560, Note_on_c, 9, 49, 64
1, 226560, Note_on_c, 9, 36, 64
1, 226569, Note_on_c, 9, 49, 0
1, 226799, Note_on_c, 9, 69, 0
1, 226799, Note_on_c, 9, 73, 0
1, 226800, Note_on_c, 9, 69, 64
1, 227039, Note_on_c, 9, 36, 0
1, 227039, Note_on_c, 9, 69, 0
1, 227040, Note_on_c, 9, 63, 64
1, 227040, Note_on_c, 9, 38, 64
1, 227040, Note_on_c, 9, 51, 64
1, 227040, Note_on_c, 9, 69, 64
1, 227040, Note_on_c, 9, 75, 64
1, 227049, Note_on_c, 9, 63, 0
1, 227049, Note_on_c, 9, 51, 0
1, 227279, Note_on_c, 9, 38, 0
1, 227279, Note_on_c, 9, 69, 0
1, 227279, Note_on_c, 9, 75, 0
1, 227280, Note_on_c, 9, 38, 64
1, 227280, Note_on_c, 9, 51, 64
1, 227280, Note_on_c, 9, 51, 0
1, 227280, Note_on_c, 9, 69, 64
1, 227280, Note_on_c, 9, 36, 64
1, 227294, Note_on_c, 9, 38, 0
1, 227295, Note_on_c, 9, 63, 64
1, 227295, Note_on_c, 9, 38, 64
1, 227302, Note_on_c, 9, 63, 0
1, 227519, Note_on_c, 9, 69, 0
1, 227519, Note_on_c, 9, 36, 0
1, 227519, Note_on_c, 9, 38, 0
1, 227520, Note_on_c, 9, 51, 64
1, 227520, Note_on_c, 9, 69, 64
1, 227520, Note_on_c, 9, 36, 64
1, 227529, Note_on_c, 9, 51, 0
1, 227759, Note_on_c, 9, 69, 0
1, 227760, Note_on_c, 9, 51, 64
1, 227760, Note_on_c, 9, 51, 0
1, 227760, Note_on_c, 9, 62, 64
1, 227760, Note_on_c, 9, 69, 64
1, 227779, Note_on_c, 9, 62, 0
1, 227779, Note_on_c, 9, 69, 0
1, 227780, Note_on_c, 9, 75, 64
1, 227819, Note_on_c, 9, 75, 0
1, 227999, Note_on_c, 9, 36, 0
1, 228000, Note_on_c, 9, 64, 64
1, 228000, Note_on_c, 9, 38, 64
1, 228000, Note_on_c, 9, 51, 64
1, 228000, Note_on_c, 9, 69, 64
1, 228009, Note_on_c, 9, 64, 0
1, 228009, Note_on_c, 9, 51, 0
1, 228239, Note_on_c, 9, 38, 0
1, 228239, Note_on_c, 9, 69, 0
1, 228240, Note_on_c, 9, 51, 64
1, 228240, Note_on_c, 9, 51, 0
1, 228240, Note_on_c, 9, 69, 64
1, 228240, Note_on_c, 9, 75, 64
1, 228270, Note_on_c, 9, 64, 64
1, 228272, Note_on_c, 9, 64, 0
1, 228360, Note_on_c, 9, 36, 64
1, 228479, Note_on_c, 9, 69, 0
1, 228479, Note_on_c, 9, 75, 0
1, 228479, Note_on_c, 9, 36, 0
1, 228480, Note_on_c, 9, 69, 64
1, 228480, Note_on_c, 9, 73, 64
1, 228480, Note_on_c, 9, 49, 64
1, 228480, Note_on_c, 9, 36, 64
1, 228489, Note_on_c, 9, 49, 0
1, 228719, Note_on_c, 9, 69, 0
1, 228719, Note_on_c, 9, 73, 0
1, 228719, Note_on_c, 9, 36, 0
1, 228720, Note_on_c, 9, 69, 64
1, 228720, Note_on_c, 9, 36, 64
1, 228959, Note_on_c, 9, 69, 0
1, 228959, Note_on_c, 9, 36, 0
1, 228960, Note_on_c, 9, 63, 64
1, 228960, Note_on_c, 9, 38, 64
1, 228960, Note_on_c, 9, 51, 64
1, 228960, Note_on_c, 9, 69, 64
1, 228960, Note_on_c, 9, 75, 64
1, 228964, Note_on_c, 9, 63, 0
1, 228964, Note_on_c, 9, 51, 0
1, 229079, Note_on_c, 9, 38, 0
1, 229079, Note_on_c, 9, 69, 0
1, 229079, Note_on_c, 9, 75, 0
1, 229080, Note_on_c, 9, 38, 64
1, 229080, Note_on_c, 9, 69, 64
1, 229080, Note_on_c, 9, 36, 64
1, 229169, Note_on_c, 9, 38, 0
1, 229169, Note_on_c, 9, 69, 0
1, 229185, Note_on_c, 9, 51, 64
1, 229185, Note_on_c, 9, 51, 0
1, 229200, Note_on_c, 9, 63, 64
1, 229209, Note_on_c, 9, 63, 0
1, 229439, Note_on_c, 9, 36, 0
1, 229440, Note_on_c, 9, 51, 64
1, 229440, Note_on_c, 9, 69, 64
1, 229440, Note_on_c, 9, 36, 64
1, 229446, Note_on_c, 9, 51, 0
1, 229619, Note_on_c, 9, 69, 0
1, 229620, Note_on_c, 9, 51, 64
1, 229620, Note_on_c, 9, 69, 64
1, 229621, Note_on_c, 9, 51, 0
1, 229679, Note_on_c, 9, 69, 0
1, 229680, Note_on_c, 9, 62, 64
1, 229680, Note_on_c, 9, 75, 64
1, 229859, Note_on_c, 9, 62, 0
1, 229859, Note_on_c, 9, 75, 0
1, 229860, Note_on_c, 9, 38, 64
1, 229860, Note_on_c, 9, 51, 64
1, 229860, Note_on_c, 9, 69, 64
1, 229861, Note_on_c, 9, 51, 0
1, 229919, Note_on_c, 9, 36, 0
1, 229919, Note_on_c, 9, 38, 0
1, 229919, Note_on_c, 9, 69, 0
1, 229920, Note_on_c, 9, 64, 64
1, 229929, Note_on_c, 9, 64, 0
1, 230160, Note_on_c, 9, 64, 64
1, 230160, Note_on_c, 9, 38, 64
1, 230160, Note_on_c, 9, 51, 64
1, 230160, Note_on_c, 9, 69, 64
1, 230160, Note_on_c, 9, 75, 64
1, 230169, Note_on_c, 9, 64, 0
1, 230169, Note_on_c, 9, 51, 0
1, 230280, Note_on_c, 9, 36, 64
1, 230399, Note_on_c, 9, 38, 0
1, 230399, Note_on_c, 9, 69, 0
1, 230399, Note_on_c, 9, 75, 0
1, 230399, Note_on_c, 9, 36, 0
1, 230400, Note_on_c, 9, 69, 64
1, 230400, Note_on_c, 9, 73, 64
1, 230400, Note_on_c, 9, 36, 64
1, 230414, Note_on_c, 9, 69, 0
1, 230415, Note_on_c, 9, 73, 0
1, 230415, Note_on_c, 9, 73, 64
1, 230415, Note_on_c, 9, 49, 64
1, 230422, Note_on_c, 9, 49, 0
1, 230639, Note_on_c, 9, 36, 0
1, 230639, Note_on_c, 9, 73, 0
1, 230640, Note_on_c, 9, 69, 64
1, 230640, Note_on_c, 9, 36, 64
1, 230879, Note_on_c, 9, 69, 0
1, 230879, Note_on_c, 9, 36, 0
1, 230880, Note_on_c, 9, 63, 64
1, 230880, Note_on_c, 9, 38, 64
1, 230880, Note_on_c, 9, 51, 64
1, 230880, Note_on_c, 9, 69, 64
1, 230880, Note_on_c, 9, 75, 64
1, 230889, Note_on_c, 9, 63, 0
1, 230889, Note_on_c, 9, 51, 0
1, 231040, Note_on_c, 9, 36, 64
1, 231119, Note_on_c, 9, 38, 0
1, 231119, Note_on_c, 9, 69, 0
1, 231119, Note_on_c, 9, 75, 0
1, 231120, Note_on_c, 9, 51, 64
1, 231120, Note_on_c, 9, 51, 0
1, 231120, Note_on_c, 9, 69, 64
1, 231139, Note_on_c, 9, 69, 0
1, 231140, Note_on_c, 9, 38, 64
1, 231179, Note_on_c, 9, 38, 0
1, 231270, Note_on_c, 9, 38, 64
1, 231359, Note_on_c, 9, 36, 0
1, 231359, Note_on_c, 9, 38, 0
1, 231360, Note_on_c, 9, 38, 64
1, 231360, Note_on_c, 9, 51, 64
1, 231360, Note_on_c, 9, 69, 64
1, 231360, Note_on_c, 9, 36, 64
1, 231369, Note_on_c, 9, 51, 0
1, 231599, Note_on_c, 9, 38, 0
1, 231599, Note_on_c, 9, 69, 0
1, 231600, Note_on_c, 9, 38, 64
1, 231600, Note_on_c, 9, 62, 64
1, 231600, Note_on_c, 9, 69, 64
1, 231600, Note_on_c, 9, 75, 64
1, 231719, Note_on_c, 9, 36, 0
1, 231720, Note_on_c, 9, 36, 64
1, 231839, Note_on_c, 9, 38, 0
1, 231839, Note_on_c, 9, 62, 0
1, 231839, Note_on_c, 9, 69, 0
1, 231839, Note_on_c, 9, 75, 0
1, 231839, Note_on_c, 9, 36, 0
1, 231840, Note_on_c, 9, 38, 64
1, 231840, Note_on_c, 9, 69, 64
1, 231840, Note_on_c, 9, 36, 64
1, 231854, Note_on_c, 9, 38, 0
1, 231855, Note_on_c, 9, 64, 64
1, 231855, Note_on_c, 9, 64, 0
1, 231855, Note_on_c, 9, 38, 64
1, 231869, Note_on_c, 9, 69, 0
1, 231869, Note_on_c, 9, 38, 0
1, 231870, Note_on_c, 9, 38, 64
1, 231870, Note_on_c, 9, 69, 64
1, 231870, Note_on_c, 9, 49, 64
1, 231872, Note_on_c, 9, 49, 0
1, 231959, Note_on_c, 9, 69, 0
1, 231960, Note_on_c, 9, 69, 64
1, 232079, Note_on_c, 9, 36, 0
1, 232079, Note_on_c, 9, 38, 0
1, 232079, Note_on_c, 9, 69, 0
1, 232080, Note_on_c, 9, 64, 64
1, 232080, Note_on_c, 9, 64, 0
1, 232080, Note_on_c, 9, 69, 64
1, 232080, Note_on_c, 9, 36, 64
1, 232099, Note_on_c, 9, 69, 0
1, 232100, Note_on_c, 9, 75, 64
1, 232139, Note_on_c, 9, 75, 0
1, 232319, Note_on_c, 9, 36, 0
1, 232320, Note_on_c, 9, 38, 64
1, 232320, Note_on_c, 9, 73, 64
1, 232320, Note_on_c, 9, 49, 64
1, 232320, Note_on_c, 9, 49, 0
1, 232320, Note_on_c, 9, 36, 64
1, 232334, Note_on_c, 9, 38, 0
1, 232334, Note_on_c, 9, 73, 0
1, 232335, Note_on_c, 9, 63, 64
1, 232335, Note_on_c, 9, 38, 64
1, 232335, Note_on_c, 9, 69, 64
1, 232335, Note_on_c, 9, 73, 64
1, 232342, Note_on_c, 9, 63, 0
1, 232559, Note_on_c, 9, 38, 0
1, 232559, Note_on_c, 9, 69, 0
1, 232560, Note_on_c, 9, 38, 64
1, 232799, Note_on_c, 9, 36, 0
1, 232799, Note_on_c, 9, 73, 0
1, 232799, Note_on_c, 9, 38, 0
1, 232800, Note_on_c, 9, 38, 64
1, 232800, Note_on_c, 9, 75, 64
1, 232800, Note_on_c, 9, 36, 64
1, 232814, Note_on_c, 9, 38, 0
1, 232814, Note_on_c, 9, 75, 0
1, 232815, Note_on_c, 9, 64, 64
1, 232815, Note_on_c, 9, 38, 64
1, 232815, Note_on_c, 9, 69, 64
1, 232815, Note_on_c, 9, 75, 64
1, 232815, Note_on_c, 9, 49, 64
1, 232822, Note_on_c, 9, 64, 0
1, 232822, Note_on_c, 9, 49, 0
1, 233039, Note_on_c, 9, 36, 0
1, 233039, Note_on_c, 9, 38, 0
1, 233039, Note_on_c, 9, 69, 0
1, 233039, Note_on_c, 9, 75, 0
1, 233040, Note_on_c, 9, 38, 64
1, 233040, Note_on_c, 9, 36, 64
1, 233054, Note_on_c, 9, 38, 0
1, 233055, Note_on_c, 9, 64, 64
1, 233055, Note_on_c, 9, 38, 64
1, 233055, Note_on_c, 9, 69, 64
1, 233055, Note_on_c, 9, 75, 64
1, 233055, Note_on_c, 9, 49, 64
1, 233062, Note_on_c, 9, 64, 0
1, 233062, Note_on_c, 9, 49, 0
1, 233279, Note_on_c, 9, 36, 0
1, 233279, Note_on_c, 9, 38, 0
1, 233279, Note_on_c, 9, 69, 0
1, 233279, Note_on_c, 9, 75, 0
1, 233280, Note_on_c, 9, 64, 64
1, 233280, Note_on_c, 9, 38, 64
1, 233280, Note_on_c, 9, 69, 64
1, 233280, Note_on_c, 9, 75, 64
1, 233280, Note_on_c, 9, 49, 64
1, 233280, Note_on_c, 9, 36, 64
1, 233300, Note_on_c, 9, 64, 0
1, 233300, Note_on_c, 9, 49, 0
1, 233759, Note_on_c, 9, 38, 0
1, 233759, Note_on_c, 9, 69, 0
1, 233759, Note_on_c, 9, 75, 0
1, 233759, Note_on_c, 9, 36, 0
1, 233760, End_track
0, 0, End_of_file
