0, 0, Header, 1, 1, 480
1, 0, Start_track
1, 0, Title_t, "Drumset"
1, 0, Time_signature, 4, 2, 24, 8
1, 0, Key_signature, 0, "major"
1, 0, Tempo, 555556
1, 0, Control_c, 9, 121, 0
1, 0, Program_c, 9, 0
1, 0, Control_c, 9, 7, 100
1, 0, Control_c, 9, 10, 64
1, 0, Control_c, 9, 91, 0
1, 0, Control_c, 9, 93, 0
1, 0, MIDI_port, 0
1, 0, Note_on_c, 9, 56, 60
1, 0, Note_on_c, 9, 69, 60
1, 0, Note_on_c, 9, 42, 60
1, 0, Note_on_c, 9, 36, 60
1, 9, Note_on_c, 9, 42, 0
1, 239, Note_on_c, 9, 56, 0
1, 239, Note_on_c, 9, 69, 0
1, 240, Note_on_c, 9, 42, 60
1, 244, Note_on_c, 9, 42, 0
1, 360, Note_on_c, 9, 42, 60
1, 364, Note_on_c, 9, 42, 0
1, 479, Note_on_c, 9, 36, 0
1, 480, Note_on_c, 9, 38, 84
1, 480, Note_on_c, 9, 42, 84
1, 489, Note_on_c, 9, 42, 0
1, 719, Note_on_c, 9, 38, 0
1, 720, Note_on_c, 9, 56, 84
1, 720, Note_on_c, 9, 69, 84
1, 720, Note_on_c, 9, 42, 84
1, 720, Note_on_c, 9, 36, 84
1, 729, Note_on_c, 9, 42, 0
1, 959, Note_on_c, 9, 56, 0
1, 959, Note_on_c, 9, 69, 0
1, 959, Note_on_c, 9, 36, 0
1, 960, Note_on_c, 9, 56, 60
1, 960, Note_on_c, 9, 69, 60
1, 960, Note_on_c, 9, 42, 60
1, 960, Note_on_c, 9, 36, 60
1, 969, Note_on_c, 9, 42, 0
1, 1199, Note_on_c, 9, 56, 0
1, 1199, Note_on_c, 9, 69, 0
1, 1200, Note_on_c, 9, 42, 60
1, 1209, Note_on_c, 9, 42, 0
1, 1439, Note_on_c, 9, 36, 0
1, 1440, Note_on_c, 9, 38, 60
1, 1440, Note_on_c, 9, 42, 60
1, 1449, Note_on_c, 9, 42, 0
1, 1679, Note_on_c, 9, 38, 0
1, 1680, Note_on_c, 9, 42, 60
1, 1689, Note_on_c, 9, 42, 0
1, 1920, Note_on_c, 9, 56, 60
1, 1920, Note_on_c, 9, 69, 60
1, 1920, Note_on_c, 9, 42, 60
1, 1920, Note_on_c, 9, 36, 60
1, 1929, Note_on_c, 9, 42, 0
1, 2159, Note_on_c, 9, 56, 0
1, 2159, Note_on_c, 9, 69, 0
1, 2160, Note_on_c, 9, 42, 60
1, 2164, Note_on_c, 9, 42, 0
1, 2280, Note_on_c, 9, 42, 60
1, 2284, Note_on_c, 9, 42, 0
1, 2399, Note_on_c, 9, 36, 0
1, 2400, Note_on_c, 9, 38, 60
1, 2400, Note_on_c, 9, 42, 60
1, 2409, Note_on_c, 9, 42, 0
1, 2639, Note_on_c, 9, 38, 0
1, 2640, Note_on_c, 9, 56, 60
1, 2640, Note_on_c, 9, 69, 60
1, 2640, Note_on_c, 9, 42, 60
1, 2640, Note_on_c, 9, 36, 60
1, 2649, Note_on_c, 9, 42, 0
1, 2879, Note_on_c, 9, 56, 0
1, 2879, Note_on_c, 9, 69, 0
1, 2879, Note_on_c, 9, 36, 0
1, 2880, Note_on_c, 9, 56, 60
1, 2880, Note_on_c, 9, 69, 60
1, 2880, Note_on_c, 9, 42, 60
1, 2880, Note_on_c, 9, 36, 60
1, 2889, Note_on_c, 9, 42, 0
1, 3119, Note_on_c, 9, 56, 0
1, 3119, Note_on_c, 9, 69, 0
1, 3120, Note_on_c, 9, 42, 60
1, 3129, Note_on_c, 9, 42, 0
1, 3359, Note_on_c, 9, 36, 0
1, 3360, Note_on_c, 9, 38, 60
1, 3360, Note_on_c, 9, 42, 60
1, 3369, Note_on_c, 9, 42, 0
1, 3599, Note_on_c, 9, 38, 0
1, 3600, Note_on_c, 9, 42, 60
1, 3609, Note_on_c, 9, 42, 0
1, 3840, Note_on_c, 9, 56, 60
1, 3840, Note_on_c, 9, 69, 60
1, 3840, Note_on_c, 9, 42, 60
1, 3840, Note_on_c, 9, 36, 60
1, 3849, Note_on_c, 9, 42, 0
1, 4079, Note_on_c, 9, 56, 0
1, 4079, Note_on_c, 9, 69, 0
1, 4080, Note_on_c, 9, 42, 60
1, 4084, Note_on_c, 9, 42, 0
1, 4200, Note_on_c, 9, 42, 60
1, 4204, Note_on_c, 9, 42, 0
1, 4319, Note_on_c, 9, 36, 0
1, 4320, Note_on_c, 9, 38, 60
1, 4320, Note_on_c, 9, 42, 60
1, 4329, Note_on_c, 9, 42, 0
1, 4559, Note_on_c, 9, 38, 0
1, 4560, Note_on_c, 9, 56, 60
1, 4560, Note_on_c, 9, 69, 60
1, 4560, Note_on_c, 9, 42, 60
1, 4560, Note_on_c, 9, 36, 60
1, 4569, Note_on_c, 9, 42, 0
1, 4799, Note_on_c, 9, 56, 0
1, 4799, Note_on_c, 9, 69, 0
1, 4799, Note_on_c, 9, 36, 0
1, 4800, Note_on_c, 9, 56, 60
1, 4800, Note_on_c, 9, 69, 60
1, 4800, Note_on_c, 9, 42, 60
1, 4800, Note_on_c, 9, 36, 60
1, 4809, Note_on_c, 9, 42, 0
1, 5039, Note_on_c, 9, 56, 0
1, 5039, Note_on_c, 9, 69, 0
1, 5040, Note_on_c, 9, 42, 60
1, 5049, Note_on_c, 9, 42, 0
1, 5279, Note_on_c, 9, 36, 0
1, 5280, Note_on_c, 9, 38, 60
1, 5280, Note_on_c, 9, 42, 60
1, 5289, Note_on_c, 9, 42, 0
1, 5519, Note_on_c, 9, 38, 0
1, 5520, Note_on_c, 9, 42, 60
1, 5529, Note_on_c, 9, 42, 0
1, 5760, Note_on_c, 9, 56, 60
1, 5760, Note_on_c, 9, 69, 60
1, 5760, Note_on_c, 9, 42, 60
1, 5760, Note_on_c, 9, 36, 60
1, 5779, Note_on_c, 9, 42, 0
1, 6239, Note_on_c, 9, 56, 0
1, 6239, Note_on_c, 9, 69, 0
1, 6239, Note_on_c, 9, 36, 0
1, 7440, Note_on_c, 9, 42, 60
1, 7449, Note_on_c, 9, 42, 0
1, 7680, Note_on_c, 9, 56, 60
1, 7680, Note_on_c, 9, 69, 60
1, 7680, Note_on_c, 9, 42, 60
1, 7680, Note_on_c, 9, 36, 60
1, 7689, Note_on_c, 9, 42, 0
1, 7919, Note_on_c, 9, 56, 0
1, 7919, Note_on_c, 9, 69, 0
1, 7920, Note_on_c, 9, 42, 60
1, 7924, Note_on_c, 9, 42, 0
1, 8040, Note_on_c, 9, 42, 60
1, 8044, Note_on_c, 9, 42, 0
1, 8159, Note_on_c, 9, 36, 0
1, 8160, Note_on_c, 9, 38, 60
1, 8160, Note_on_c, 9, 42, 60
1, 8169, Note_on_c, 9, 42, 0
1, 8399, Note_on_c, 9, 38, 0
1, 8400, Note_on_c, 9, 56, 60
1, 8400, Note_on_c, 9, 69, 60
1, 8400, Note_on_c, 9, 42, 60
1, 8400, Note_on_c, 9, 36, 60
1, 8409, Note_on_c, 9, 42, 0
1, 8639, Note_on_c, 9, 56, 0
1, 8639, Note_on_c, 9, 69, 0
1, 8639, Note_on_c, 9, 36, 0
1, 8640, Note_on_c, 9, 56, 60
1, 8640, Note_on_c, 9, 69, 60
1, 8640, Note_on_c, 9, 42, 60
1, 8640, Note_on_c, 9, 36, 60
1, 8649, Note_on_c, 9, 42, 0
1, 8879, Note_on_c, 9, 56, 0
1, 8879, Note_on_c, 9, 69, 0
1, 8880, Note_on_c, 9, 42, 60
1, 8889, Note_on_c, 9, 42, 0
1, 9119, Note_on_c, 9, 36, 0
1, 9120, Note_on_c, 9, 38, 60
1, 9120, Note_on_c, 9, 42, 60
1, 9129, Note_on_c, 9, 42, 0
1, 9359, Note_on_c, 9, 38, 0
1, 9360, Note_on_c, 9, 42, 60
1, 9369, Note_on_c, 9, 42, 0
1, 9600, Note_on_c, 9, 56, 60
1, 9600, Note_on_c, 9, 69, 60
1, 9600, Note_on_c, 9, 42, 60
1, 9600, Note_on_c, 9, 36, 60
1, 9609, Note_on_c, 9, 42, 0
1, 9839, Note_on_c, 9, 56, 0
1, 9839, Note_on_c, 9, 69, 0
1, 9840, Note_on_c, 9, 42, 60
1, 9844, Note_on_c, 9, 42, 0
1, 9960, Note_on_c, 9, 42, 60
1, 9964, Note_on_c, 9, 42, 0
1, 10079, Note_on_c, 9, 36, 0
1, 10080, Note_on_c, 9, 38, 60
1, 10080, Note_on_c, 9, 42, 60
1, 10089, Note_on_c, 9, 42, 0
1, 10319, Note_on_c, 9, 38, 0
1, 10320, Note_on_c, 9, 56, 60
1, 10320, Note_on_c, 9, 69, 60
1, 10320, Note_on_c, 9, 42, 60
1, 10320, Note_on_c, 9, 36, 60
1, 10329, Note_on_c, 9, 42, 0
1, 10559, Note_on_c, 9, 56, 0
1, 10559, Note_on_c, 9, 69, 0
1, 10559, Note_on_c, 9, 36, 0
1, 10560, Note_on_c, 9, 56, 60
1, 10560, Note_on_c, 9, 69, 60
1, 10560, Note_on_c, 9, 42, 60
1, 10560, Note_on_c, 9, 36, 60
1, 10569, Note_on_c, 9, 42, 0
1, 10799, Note_on_c, 9, 56, 0
1, 10799, Note_on_c, 9, 69, 0
1, 10800, Note_on_c, 9, 42, 60
1, 10809, Note_on_c, 9, 42, 0
1, 11039, Note_on_c, 9, 36, 0
1, 11040, Note_on_c, 9, 38, 60
1, 11040, Note_on_c, 9, 42, 60
1, 11049, Note_on_c, 9, 42, 0
1, 11279, Note_on_c, 9, 38, 0
1, 11280, Note_on_c, 9, 42, 60
1, 11289, Note_on_c, 9, 42, 0
1, 11520, Note_on_c, 9, 56, 60
1, 11520, Note_on_c, 9, 69, 60
1, 11520, Note_on_c, 9, 42, 60
1, 11520, Note_on_c, 9, 36, 60
1, 11529, Note_on_c, 9, 42, 0
1, 11759, Note_on_c, 9, 56, 0
1, 11759, Note_on_c, 9, 69, 0
1, 11760, Note_on_c, 9, 42, 60
1, 11764, Note_on_c, 9, 42, 0
1, 11880, Note_on_c, 9, 42, 60
1, 11884, Note_on_c, 9, 42, 0
1, 11999, Note_on_c, 9, 36, 0
1, 12000, Note_on_c, 9, 38, 60
1, 12000, Note_on_c, 9, 42, 60
1, 12009, Note_on_c, 9, 42, 0
1, 12239, Note_on_c, 9, 38, 0
1, 12240, Note_on_c, 9, 56, 60
1, 12240, Note_on_c, 9, 69, 60
1, 12240, Note_on_c, 9, 42, 60
1, 12240, Note_on_c, 9, 36, 60
1, 12249, Note_on_c, 9, 42, 0
1, 12479, Note_on_c, 9, 56, 0
1, 12479, Note_on_c, 9, 69, 0
1, 12479, Note_on_c, 9, 36, 0
1, 12480, Note_on_c, 9, 56, 60
1, 12480, Note_on_c, 9, 69, 60
1, 12480, Note_on_c, 9, 42, 60
1, 12480, Note_on_c, 9, 36, 60
1, 12489, Note_on_c, 9, 42, 0
1, 12719, Note_on_c, 9, 56, 0
1, 12719, Note_on_c, 9, 69, 0
1, 12720, Note_on_c, 9, 42, 60
1, 12729, Note_on_c, 9, 42, 0
1, 12959, Note_on_c, 9, 36, 0
1, 12960, Note_on_c, 9, 38, 60
1, 12960, Note_on_c, 9, 42, 60
1, 12969, Note_on_c, 9, 42, 0
1, 13199, Note_on_c, 9, 38, 0
1, 13200, Note_on_c, 9, 42, 60
1, 13209, Note_on_c, 9, 42, 0
1, 13440, Note_on_c, 9, 56, 60
1, 13440, Note_on_c, 9, 69, 60
1, 13440, Note_on_c, 9, 42, 60
1, 13440, Note_on_c, 9, 36, 60
1, 13449, Note_on_c, 9, 42, 0
1, 13679, Note_on_c, 9, 56, 0
1, 13679, Note_on_c, 9, 69, 0
1, 13680, Note_on_c, 9, 42, 60
1, 13684, Note_on_c, 9, 42, 0
1, 13800, Note_on_c, 9, 42, 60
1, 13804, Note_on_c, 9, 42, 0
1, 13919, Note_on_c, 9, 36, 0
1, 13920, Note_on_c, 9, 38, 60
1, 13920, Note_on_c, 9, 42, 60
1, 13929, Note_on_c, 9, 42, 0
1, 14159, Note_on_c, 9, 38, 0
1, 14160, Note_on_c, 9, 56, 60
1, 14160, Note_on_c, 9, 69, 60
1, 14160, Note_on_c, 9, 42, 60
1, 14160, Note_on_c, 9, 36, 60
1, 14169, Note_on_c, 9, 42, 0
1, 14399, Note_on_c, 9, 56, 0
1, 14399, Note_on_c, 9, 69, 0
1, 14399, Note_on_c, 9, 36, 0
1, 14400, Note_on_c, 9, 56, 60
1, 14400, Note_on_c, 9, 69, 60
1, 14400, Note_on_c, 9, 42, 60
1, 14400, Note_on_c, 9, 36, 60
1, 14409, Note_on_c, 9, 42, 0
1, 14639, Note_on_c, 9, 56, 0
1, 14639, Note_on_c, 9, 69, 0
1, 14640, Note_on_c, 9, 42, 60
1, 14649, Note_on_c, 9, 42, 0
1, 14879, Note_on_c, 9, 36, 0
1, 14880, Note_on_c, 9, 38, 60
1, 14880, Note_on_c, 9, 42, 60
1, 14889, Note_on_c, 9, 42, 0
1, 15119, Note_on_c, 9, 38, 0
1, 15120, Note_on_c, 9, 42, 60
1, 15129, Note_on_c, 9, 42, 0
1, 15360, Note_on_c, 9, 56, 60
1, 15360, Note_on_c, 9, 69, 60
1, 15360, Note_on_c, 9, 42, 60
1, 15360, Note_on_c, 9, 36, 60
1, 15369, Note_on_c, 9, 42, 0
1, 15599, Note_on_c, 9, 56, 0
1, 15599, Note_on_c, 9, 69, 0
1, 15600, Note_on_c, 9, 42, 60
1, 15604, Note_on_c, 9, 42, 0
1, 15720, Note_on_c, 9, 42, 60
1, 15724, Note_on_c, 9, 42, 0
1, 15839, Note_on_c, 9, 36, 0
1, 15840, Note_on_c, 9, 38, 60
1, 15840, Note_on_c, 9, 42, 60
1, 15849, Note_on_c, 9, 42, 0
1, 16079, Note_on_c, 9, 38, 0
1, 16080, Note_on_c, 9, 56, 60
1, 16080, Note_on_c, 9, 69, 60
1, 16080, Note_on_c, 9, 42, 60
1, 16080, Note_on_c, 9, 36, 60
1, 16089, Note_on_c, 9, 42, 0
1, 16319, Note_on_c, 9, 56, 0
1, 16319, Note_on_c, 9, 69, 0
1, 16319, Note_on_c, 9, 36, 0
1, 16320, Note_on_c, 9, 56, 60
1, 16320, Note_on_c, 9, 69, 60
1, 16320, Note_on_c, 9, 42, 60
1, 16320, Note_on_c, 9, 36, 60
1, 16329, Note_on_c, 9, 42, 0
1, 16559, Note_on_c, 9, 56, 0
1, 16559, Note_on_c, 9, 69, 0
1, 16560, Note_on_c, 9, 42, 60
1, 16569, Note_on_c, 9, 42, 0
1, 16799, Note_on_c, 9, 36, 0
1, 16800, Note_on_c, 9, 38, 60
1, 16800, Note_on_c, 9, 42, 60
1, 16809, Note_on_c, 9, 42, 0
1, 17039, Note_on_c, 9, 38, 0
1, 17040, Note_on_c, 9, 42, 60
1, 17049, Note_on_c, 9, 42, 0
1, 17280, Note_on_c, 9, 56, 60
1, 17280, Note_on_c, 9, 69, 60
1, 17280, Note_on_c, 9, 42, 60
1, 17280, Note_on_c, 9, 36, 60
1, 17289, Note_on_c, 9, 42, 0
1, 17519, Note_on_c, 9, 56, 0
1, 17519, Note_on_c, 9, 69, 0
1, 17520, Note_on_c, 9, 42, 60
1, 17524, Note_on_c, 9, 42, 0
1, 17640, Note_on_c, 9, 42, 60
1, 17644, Note_on_c, 9, 42, 0
1, 17759, Note_on_c, 9, 36, 0
1, 17760, Note_on_c, 9, 38, 60
1, 17760, Note_on_c, 9, 42, 60
1, 17769, Note_on_c, 9, 42, 0
1, 17999, Note_on_c, 9, 38, 0
1, 18000, Note_on_c, 9, 56, 60
1, 18000, Note_on_c, 9, 69, 60
1, 18000, Note_on_c, 9, 42, 60
1, 18000, Note_on_c, 9, 36, 60
1, 18009, Note_on_c, 9, 42, 0
1, 18239, Note_on_c, 9, 56, 0
1, 18239, Note_on_c, 9, 69, 0
1, 18239, Note_on_c, 9, 36, 0
1, 18240, Note_on_c, 9, 56, 60
1, 18240, Note_on_c, 9, 69, 60
1, 18240, Note_on_c, 9, 42, 60
1, 18240, Note_on_c, 9, 36, 60
1, 18249, Note_on_c, 9, 42, 0
1, 18479, Note_on_c, 9, 56, 0
1, 18479, Note_on_c, 9, 69, 0
1, 18480, Note_on_c, 9, 42, 60
1, 18489, Note_on_c, 9, 42, 0
1, 18719, Note_on_c, 9, 36, 0
1, 18720, Note_on_c, 9, 38, 60
1, 18720, Note_on_c, 9, 42, 60
1, 18729, Note_on_c, 9, 42, 0
1, 18959, Note_on_c, 9, 38, 0
1, 18960, Note_on_c, 9, 42, 60
1, 18969, Note_on_c, 9, 42, 0
1, 19200, Note_on_c, 9, 56, 60
1, 19200, Note_on_c, 9, 69, 60
1, 19200, Note_on_c, 9, 42, 60
1, 19200, Note_on_c, 9, 36, 60
1, 19209, Note_on_c, 9, 42, 0
1, 19439, Note_on_c, 9, 56, 0
1, 19439, Note_on_c, 9, 69, 0
1, 19440, Note_on_c, 9, 42, 60
1, 19444, Note_on_c, 9, 42, 0
1, 19560, Note_on_c, 9, 42, 60
1, 19564, Note_on_c, 9, 42, 0
1, 19679, Note_on_c, 9, 36, 0
1, 19680, Note_on_c, 9, 38, 60
1, 19680, Note_on_c, 9, 42, 60
1, 19689, Note_on_c, 9, 42, 0
1, 19919, Note_on_c, 9, 38, 0
1, 19920, Note_on_c, 9, 56, 60
1, 19920, Note_on_c, 9, 69, 60
1, 19920, Note_on_c, 9, 42, 60
1, 19920, Note_on_c, 9, 36, 60
1, 19929, Note_on_c, 9, 42, 0
1, 20159, Note_on_c, 9, 56, 0
1, 20159, Note_on_c, 9, 69, 0
1, 20159, Note_on_c, 9, 36, 0
1, 20160, Note_on_c, 9, 56, 60
1, 20160, Note_on_c, 9, 69, 60
1, 20160, Note_on_c, 9, 42, 60
1, 20160, Note_on_c, 9, 36, 60
1, 20169, Note_on_c, 9, 42, 0
1, 20399, Note_on_c, 9, 56, 0
1, 20399, Note_on_c, 9, 69, 0
1, 20400, Note_on_c, 9, 42, 60
1, 20409, Note_on_c, 9, 42, 0
1, 20639, Note_on_c, 9, 36, 0
1, 20640, Note_on_c, 9, 38, 60
1, 20640, Note_on_c, 9, 42, 60
1, 20649, Note_on_c, 9, 42, 0
1, 20879, Note_on_c, 9, 38, 0
1, 20880, Note_on_c, 9, 42, 60
1, 20889, Note_on_c, 9, 42, 0
1, 21120, Note_on_c, 9, 56, 60
1, 21120, Note_on_c, 9, 69, 60
1, 21120, Note_on_c, 9, 42, 60
1, 21120, Note_on_c, 9, 36, 60
1, 21129, Note_on_c, 9, 42, 0
1, 21359, Note_on_c, 9, 56, 0
1, 21359, Note_on_c, 9, 69, 0
1, 21360, Note_on_c, 9, 42, 60
1, 21364, Note_on_c, 9, 42, 0
1, 21480, Note_on_c, 9, 42, 60
1, 21484, Note_on_c, 9, 42, 0
1, 21599, Note_on_c, 9, 36, 0
1, 21600, Note_on_c, 9, 38, 60
1, 21600, Note_on_c, 9, 42, 60
1, 21609, Note_on_c, 9, 42, 0
1, 21839, Note_on_c, 9, 38, 0
1, 21840, Note_on_c, 9, 56, 60
1, 21840, Note_on_c, 9, 69, 60
1, 21840, Note_on_c, 9, 42, 60
1, 21840, Note_on_c, 9, 36, 60
1, 21849, Note_on_c, 9, 42, 0
1, 22079, Note_on_c, 9, 56, 0
1, 22079, Note_on_c, 9, 69, 0
1, 22079, Note_on_c, 9, 36, 0
1, 22080, Note_on_c, 9, 56, 60
1, 22080, Note_on_c, 9, 69, 60
1, 22080, Note_on_c, 9, 42, 60
1, 22080, Note_on_c, 9, 36, 60
1, 22089, Note_on_c, 9, 42, 0
1, 22319, Note_on_c, 9, 56, 0
1, 22319, Note_on_c, 9, 69, 0
1, 22320, Note_on_c, 9, 42, 60
1, 22329, Note_on_c, 9, 42, 0
1, 22559, Note_on_c, 9, 36, 0
1, 22560, Note_on_c, 9, 38, 60
1, 22560, Note_on_c, 9, 42, 60
1, 22569, Note_on_c, 9, 42, 0
1, 22799, Note_on_c, 9, 38, 0
1, 22800, Note_on_c, 9, 42, 60
1, 22809, Note_on_c, 9, 42, 0
1, 23040, Note_on_c, 9, 56, 60
1, 23040, Note_on_c, 9, 69, 60
1, 23040, Note_on_c, 9, 42, 60
1, 23040, Note_on_c, 9, 36, 60
1, 23049, Note_on_c, 9, 42, 0
1, 23279, Note_on_c, 9, 56, 0
1, 23279, Note_on_c, 9, 69, 0
1, 23280, Note_on_c, 9, 42, 60
1, 23284, Note_on_c, 9, 42, 0
1, 23400, Note_on_c, 9, 42, 60
1, 23404, Note_on_c, 9, 42, 0
1, 23519, Note_on_c, 9, 36, 0
1, 23520, Note_on_c, 9, 38, 60
1, 23520, Note_on_c, 9, 42, 60
1, 23529, Note_on_c, 9, 42, 0
1, 23759, Note_on_c, 9, 38, 0
1, 23760, Note_on_c, 9, 56, 60
1, 23760, Note_on_c, 9, 69, 60
1, 23760, Note_on_c, 9, 42, 60
1, 23760, Note_on_c, 9, 36, 60
1, 23769, Note_on_c, 9, 42, 0
1, 23999, Note_on_c, 9, 56, 0
1, 23999, Note_on_c, 9, 69, 0
1, 23999, Note_on_c, 9, 36, 0
1, 24000, Note_on_c, 9, 56, 60
1, 24000, Note_on_c, 9, 69, 60
1, 24000, Note_on_c, 9, 42, 60
1, 24000, Note_on_c, 9, 36, 60
1, 24009, Note_on_c, 9, 42, 0
1, 24239, Note_on_c, 9, 56, 0
1, 24239, Note_on_c, 9, 69, 0
1, 24240, Note_on_c, 9, 42, 60
1, 24249, Note_on_c, 9, 42, 0
1, 24479, Note_on_c, 9, 36, 0
1, 24480, Note_on_c, 9, 38, 60
1, 24480, Note_on_c, 9, 42, 60
1, 24489, Note_on_c, 9, 42, 0
1, 24719, Note_on_c, 9, 38, 0
1, 24720, Note_on_c, 9, 42, 60
1, 24729, Note_on_c, 9, 42, 0
1, 24960, Note_on_c, 9, 56, 60
1, 24960, Note_on_c, 9, 69, 60
1, 24960, Note_on_c, 9, 42, 60
1, 24960, Note_on_c, 9, 36, 60
1, 24969, Note_on_c, 9, 42, 0
1, 25199, Note_on_c, 9, 56, 0
1, 25199, Note_on_c, 9, 69, 0
1, 25200, Note_on_c, 9, 42, 60
1, 25204, Note_on_c, 9, 42, 0
1, 25320, Note_on_c, 9, 42, 60
1, 25324, Note_on_c, 9, 42, 0
1, 25439, Note_on_c, 9, 36, 0
1, 25440, Note_on_c, 9, 38, 60
1, 25440, Note_on_c, 9, 42, 60
1, 25449, Note_on_c, 9, 42, 0
1, 25679, Note_on_c, 9, 38, 0
1, 25680, Note_on_c, 9, 56, 60
1, 25680, Note_on_c, 9, 69, 60
1, 25680, Note_on_c, 9, 42, 60
1, 25680, Note_on_c, 9, 36, 60
1, 25689, Note_on_c, 9, 42, 0
1, 25919, Note_on_c, 9, 56, 0
1, 25919, Note_on_c, 9, 69, 0
1, 25919, Note_on_c, 9, 36, 0
1, 25920, Note_on_c, 9, 56, 60
1, 25920, Note_on_c, 9, 69, 60
1, 25920, Note_on_c, 9, 42, 60
1, 25920, Note_on_c, 9, 36, 60
1, 25929, Note_on_c, 9, 42, 0
1, 26159, Note_on_c, 9, 56, 0
1, 26159, Note_on_c, 9, 69, 0
1, 26160, Note_on_c, 9, 42, 60
1, 26169, Note_on_c, 9, 42, 0
1, 26399, Note_on_c, 9, 36, 0
1, 26400, Note_on_c, 9, 38, 60
1, 26400, Note_on_c, 9, 42, 60
1, 26409, Note_on_c, 9, 42, 0
1, 26639, Note_on_c, 9, 38, 0
1, 26640, Note_on_c, 9, 42, 60
1, 26649, Note_on_c, 9, 42, 0
1, 26880, Note_on_c, 9, 69, 60
1, 26880, Note_on_c, 9, 42, 60
1, 26880, Note_on_c, 9, 36, 60
1, 26889, Note_on_c, 9, 42, 0
1, 27119, Note_on_c, 9, 69, 0
1, 27120, Note_on_c, 9, 42, 60
1, 27129, Note_on_c, 9, 42, 0
1, 27359, Note_on_c, 9, 36, 0
1, 27360, Note_on_c, 9, 38, 60
1, 27360, Note_on_c, 9, 45, 60
1, 27360, Note_on_c, 9, 42, 60
1, 27369, Note_on_c, 9, 42, 0
1, 27599, Note_on_c, 9, 38, 0
1, 27599, Note_on_c, 9, 45, 0
1, 27600, Note_on_c, 9, 69, 60
1, 27600, Note_on_c, 9, 42, 60
1, 27600, Note_on_c, 9, 36, 60
1, 27609, Note_on_c, 9, 42, 0
1, 27839, Note_on_c, 9, 69, 0
1, 27839, Note_on_c, 9, 36, 0
1, 27840, Note_on_c, 9, 69, 60
1, 27840, Note_on_c, 9, 42, 60
1, 27840, Note_on_c, 9, 36, 60
1, 27849, Note_on_c, 9, 42, 0
1, 28079, Note_on_c, 9, 69, 0
1, 28080, Note_on_c, 9, 42, 60
1, 28089, Note_on_c, 9, 42, 0
1, 28319, Note_on_c, 9, 36, 0
1, 28320, Note_on_c, 9, 38, 60
1, 28320, Note_on_c, 9, 45, 60
1, 28320, Note_on_c, 9, 42, 60
1, 28329, Note_on_c, 9, 42, 0
1, 28559, Note_on_c, 9, 38, 0
1, 28559, Note_on_c, 9, 45, 0
1, 28560, Note_on_c, 9, 42, 60
1, 28569, Note_on_c, 9, 42, 0
1, 28800, Note_on_c, 9, 69, 60
1, 28800, Note_on_c, 9, 42, 60
1, 28800, Note_on_c, 9, 36, 60
1, 28809, Note_on_c, 9, 42, 0
1, 29039, Note_on_c, 9, 69, 0
1, 29040, Note_on_c, 9, 42, 60
1, 29049, Note_on_c, 9, 42, 0
1, 29279, Note_on_c, 9, 36, 0
1, 29280, Note_on_c, 9, 38, 60
1, 29280, Note_on_c, 9, 45, 60
1, 29280, Note_on_c, 9, 42, 60
1, 29289, Note_on_c, 9, 42, 0
1, 29519, Note_on_c, 9, 38, 0
1, 29519, Note_on_c, 9, 45, 0
1, 29520, Note_on_c, 9, 69, 60
1, 29520, Note_on_c, 9, 42, 60
1, 29520, Note_on_c, 9, 36, 60
1, 29529, Note_on_c, 9, 42, 0
1, 29759, Note_on_c, 9, 69, 0
1, 29759, Note_on_c, 9, 36, 0
1, 29760, Note_on_c, 9, 69, 60
1, 29760, Note_on_c, 9, 42, 60
1, 29760, Note_on_c, 9, 36, 60
1, 29769, Note_on_c, 9, 42, 0
1, 29999, Note_on_c, 9, 69, 0
1, 30000, Note_on_c, 9, 42, 60
1, 30009, Note_on_c, 9, 42, 0
1, 30239, Note_on_c, 9, 36, 0
1, 30240, Note_on_c, 9, 38, 60
1, 30240, Note_on_c, 9, 45, 60
1, 30240, Note_on_c, 9, 42, 60
1, 30249, Note_on_c, 9, 42, 0
1, 30479, Note_on_c, 9, 38, 0
1, 30479, Note_on_c, 9, 45, 0
1, 30480, Note_on_c, 9, 42, 60
1, 30489, Note_on_c, 9, 42, 0
1, 30720, Note_on_c, 9, 56, 60
1, 30720, Note_on_c, 9, 69, 60
1, 30720, Note_on_c, 9, 42, 60
1, 30720, Note_on_c, 9, 36, 60
1, 30729, Note_on_c, 9, 42, 0
1, 30959, Note_on_c, 9, 56, 0
1, 30959, Note_on_c, 9, 69, 0
1, 30960, Note_on_c, 9, 42, 60
1, 30964, Note_on_c, 9, 42, 0
1, 31080, Note_on_c, 9, 42, 60
1, 31084, Note_on_c, 9, 42, 0
1, 31199, Note_on_c, 9, 36, 0
1, 31200, Note_on_c, 9, 38, 60
1, 31200, Note_on_c, 9, 42, 60
1, 31209, Note_on_c, 9, 42, 0
1, 31439, Note_on_c, 9, 38, 0
1, 31440, Note_on_c, 9, 56, 60
1, 31440, Note_on_c, 9, 69, 60
1, 31440, Note_on_c, 9, 42, 60
1, 31440, Note_on_c, 9, 36, 60
1, 31449, Note_on_c, 9, 42, 0
1, 31679, Note_on_c, 9, 56, 0
1, 31679, Note_on_c, 9, 69, 0
1, 31679, Note_on_c, 9, 36, 0
1, 31680, Note_on_c, 9, 56, 60
1, 31680, Note_on_c, 9, 69, 60
1, 31680, Note_on_c, 9, 42, 60
1, 31680, Note_on_c, 9, 36, 60
1, 31689, Note_on_c, 9, 42, 0
1, 31919, Note_on_c, 9, 56, 0
1, 31919, Note_on_c, 9, 69, 0
1, 31920, Note_on_c, 9, 42, 60
1, 31929, Note_on_c, 9, 42, 0
1, 32159, Note_on_c, 9, 36, 0
1, 32160, Note_on_c, 9, 38, 60
1, 32160, Note_on_c, 9, 42, 60
1, 32169, Note_on_c, 9, 42, 0
1, 32399, Note_on_c, 9, 38, 0
1, 32400, Note_on_c, 9, 42, 60
1, 32409, Note_on_c, 9, 42, 0
1, 32640, Note_on_c, 9, 42, 60
1, 32640, Note_on_c, 9, 36, 60
1, 32659, Note_on_c, 9, 42, 0
1, 33119, Note_on_c, 9, 36, 0
1, 34560, Note_on_c, 9, 56, 60
1, 34560, Note_on_c, 9, 69, 60
1, 34560, Note_on_c, 9, 42, 60
1, 34560, Note_on_c, 9, 36, 60
1, 34569, Note_on_c, 9, 42, 0
1, 34799, Note_on_c, 9, 56, 0
1, 34799, Note_on_c, 9, 69, 0
1, 34800, Note_on_c, 9, 42, 60
1, 34804, Note_on_c, 9, 42, 0
1, 34920, Note_on_c, 9, 42, 60
1, 34924, Note_on_c, 9, 42, 0
1, 35039, Note_on_c, 9, 36, 0
1, 35040, Note_on_c, 9, 38, 60
1, 35040, Note_on_c, 9, 42, 60
1, 35049, Note_on_c, 9, 42, 0
1, 35279, Note_on_c, 9, 38, 0
1, 35280, Note_on_c, 9, 56, 60
1, 35280, Note_on_c, 9, 69, 60
1, 35280, Note_on_c, 9, 42, 60
1, 35280, Note_on_c, 9, 36, 60
1, 35289, Note_on_c, 9, 42, 0
1, 35519, Note_on_c, 9, 56, 0
1, 35519, Note_on_c, 9, 69, 0
1, 35519, Note_on_c, 9, 36, 0
1, 35520, Note_on_c, 9, 56, 60
1, 35520, Note_on_c, 9, 69, 60
1, 35520, Note_on_c, 9, 42, 60
1, 35520, Note_on_c, 9, 36, 60
1, 35529, Note_on_c, 9, 42, 0
1, 35759, Note_on_c, 9, 56, 0
1, 35759, Note_on_c, 9, 69, 0
1, 35760, Note_on_c, 9, 42, 60
1, 35769, Note_on_c, 9, 42, 0
1, 35999, Note_on_c, 9, 36, 0
1, 36000, Note_on_c, 9, 38, 60
1, 36000, Note_on_c, 9, 42, 60
1, 36009, Note_on_c, 9, 42, 0
1, 36239, Note_on_c, 9, 38, 0
1, 36240, Note_on_c, 9, 42, 60
1, 36249, Note_on_c, 9, 42, 0
1, 36480, Note_on_c, 9, 56, 60
1, 36480, Note_on_c, 9, 69, 60
1, 36480, Note_on_c, 9, 42, 60
1, 36480, Note_on_c, 9, 36, 60
1, 36489, Note_on_c, 9, 42, 0
1, 36719, Note_on_c, 9, 56, 0
1, 36719, Note_on_c, 9, 69, 0
1, 36720, Note_on_c, 9, 42, 60
1, 36724, Note_on_c, 9, 42, 0
1, 36840, Note_on_c, 9, 42, 60
1, 36844, Note_on_c, 9, 42, 0
1, 36959, Note_on_c, 9, 36, 0
1, 36960, Note_on_c, 9, 38, 60
1, 36960, Note_on_c, 9, 42, 60
1, 36969, Note_on_c, 9, 42, 0
1, 37199, Note_on_c, 9, 38, 0
1, 37200, Note_on_c, 9, 56, 60
1, 37200, Note_on_c, 9, 69, 60
1, 37200, Note_on_c, 9, 42, 60
1, 37200, Note_on_c, 9, 36, 60
1, 37209, Note_on_c, 9, 42, 0
1, 37439, Note_on_c, 9, 56, 0
1, 37439, Note_on_c, 9, 69, 0
1, 37439, Note_on_c, 9, 36, 0
1, 37440, Note_on_c, 9, 56, 60
1, 37440, Note_on_c, 9, 69, 60
1, 37440, Note_on_c, 9, 42, 60
1, 37440, Note_on_c, 9, 36, 60
1, 37449, Note_on_c, 9, 42, 0
1, 37679, Note_on_c, 9, 56, 0
1, 37679, Note_on_c, 9, 69, 0
1, 37680, Note_on_c, 9, 42, 60
1, 37689, Note_on_c, 9, 42, 0
1, 37919, Note_on_c, 9, 36, 0
1, 37920, Note_on_c, 9, 38, 60
1, 37920, Note_on_c, 9, 42, 60
1, 37929, Note_on_c, 9, 42, 0
1, 38159, Note_on_c, 9, 38, 0
1, 38160, Note_on_c, 9, 42, 60
1, 38169, Note_on_c, 9, 42, 0
1, 38400, Note_on_c, 9, 56, 60
1, 38400, Note_on_c, 9, 69, 60
1, 38400, Note_on_c, 9, 42, 60
1, 38400, Note_on_c, 9, 36, 60
1, 38409, Note_on_c, 9, 42, 0
1, 38639, Note_on_c, 9, 56, 0
1, 38639, Note_on_c, 9, 69, 0
1, 38640, Note_on_c, 9, 42, 60
1, 38644, Note_on_c, 9, 42, 0
1, 38760, Note_on_c, 9, 42, 60
1, 38764, Note_on_c, 9, 42, 0
1, 38879, Note_on_c, 9, 36, 0
1, 38880, Note_on_c, 9, 38, 60
1, 38880, Note_on_c, 9, 42, 60
1, 38889, Note_on_c, 9, 42, 0
1, 39119, Note_on_c, 9, 38, 0
1, 39120, Note_on_c, 9, 56, 60
1, 39120, Note_on_c, 9, 69, 60
1, 39120, Note_on_c, 9, 42, 60
1, 39120, Note_on_c, 9, 36, 60
1, 39129, Note_on_c, 9, 42, 0
1, 39359, Note_on_c, 9, 56, 0
1, 39359, Note_on_c, 9, 69, 0
1, 39359, Note_on_c, 9, 36, 0
1, 39360, Note_on_c, 9, 56, 60
1, 39360, Note_on_c, 9, 69, 60
1, 39360, Note_on_c, 9, 42, 60
1, 39360, Note_on_c, 9, 36, 60
1, 39369, Note_on_c, 9, 42, 0
1, 39599, Note_on_c, 9, 56, 0
1, 39599, Note_on_c, 9, 69, 0
1, 39600, Note_on_c, 9, 42, 60
1, 39609, Note_on_c, 9, 42, 0
1, 39839, Note_on_c, 9, 36, 0
1, 39840, Note_on_c, 9, 38, 60
1, 39840, Note_on_c, 9, 42, 60
1, 39849, Note_on_c, 9, 42, 0
1, 40079, Note_on_c, 9, 38, 0
1, 40080, Note_on_c, 9, 42, 60
1, 40089, Note_on_c, 9, 42, 0
1, 40320, Note_on_c, 9, 56, 60
1, 40320, Note_on_c, 9, 69, 60
1, 40320, Note_on_c, 9, 42, 60
1, 40320, Note_on_c, 9, 36, 60
1, 40329, Note_on_c, 9, 42, 0
1, 40559, Note_on_c, 9, 56, 0
1, 40559, Note_on_c, 9, 69, 0
1, 40560, Note_on_c, 9, 42, 60
1, 40564, Note_on_c, 9, 42, 0
1, 40680, Note_on_c, 9, 42, 60
1, 40684, Note_on_c, 9, 42, 0
1, 40799, Note_on_c, 9, 36, 0
1, 40800, Note_on_c, 9, 38, 60
1, 40800, Note_on_c, 9, 42, 60
1, 40809, Note_on_c, 9, 42, 0
1, 41039, Note_on_c, 9, 38, 0
1, 41040, Note_on_c, 9, 56, 60
1, 41040, Note_on_c, 9, 69, 60
1, 41040, Note_on_c, 9, 42, 60
1, 41040, Note_on_c, 9, 36, 60
1, 41049, Note_on_c, 9, 42, 0
1, 41279, Note_on_c, 9, 56, 0
1, 41279, Note_on_c, 9, 69, 0
1, 41279, Note_on_c, 9, 36, 0
1, 41280, Note_on_c, 9, 56, 60
1, 41280, Note_on_c, 9, 69, 60
1, 41280, Note_on_c, 9, 42, 60
1, 41280, Note_on_c, 9, 36, 60
1, 41289, Note_on_c, 9, 42, 0
1, 41519, Note_on_c, 9, 56, 0
1, 41519, Note_on_c, 9, 69, 0
1, 41520, Note_on_c, 9, 42, 60
1, 41529, Note_on_c, 9, 42, 0
1, 41759, Note_on_c, 9, 36, 0
1, 41760, Note_on_c, 9, 38, 60
1, 41760, Note_on_c, 9, 42, 60
1, 41769, Note_on_c, 9, 42, 0
1, 41999, Note_on_c, 9, 38, 0
1, 42000, Note_on_c, 9, 42, 60
1, 42009, Note_on_c, 9, 42, 0
1, 42240, Note_on_c, 9, 56, 60
1, 42240, Note_on_c, 9, 69, 60
1, 42240, Note_on_c, 9, 42, 60
1, 42240, Note_on_c, 9, 36, 60
1, 42249, Note_on_c, 9, 42, 0
1, 42479, Note_on_c, 9, 56, 0
1, 42479, Note_on_c, 9, 69, 0
1, 42480, Note_on_c, 9, 42, 60
1, 42484, Note_on_c, 9, 42, 0
1, 42600, Note_on_c, 9, 42, 60
1, 42604, Note_on_c, 9, 42, 0
1, 42719, Note_on_c, 9, 36, 0
1, 42720, Note_on_c, 9, 38, 60
1, 42720, Note_on_c, 9, 42, 60
1, 42729, Note_on_c, 9, 42, 0
1, 42959, Note_on_c, 9, 38, 0
1, 42960, Note_on_c, 9, 56, 60
1, 42960, Note_on_c, 9, 69, 60
1, 42960, Note_on_c, 9, 42, 60
1, 42960, Note_on_c, 9, 36, 60
1, 42969, Note_on_c, 9, 42, 0
1, 43199, Note_on_c, 9, 56, 0
1, 43199, Note_on_c, 9, 69, 0
1, 43199, Note_on_c, 9, 36, 0
1, 43200, Note_on_c, 9, 56, 60
1, 43200, Note_on_c, 9, 69, 60
1, 43200, Note_on_c, 9, 42, 60
1, 43200, Note_on_c, 9, 36, 60
1, 43209, Note_on_c, 9, 42, 0
1, 43439, Note_on_c, 9, 56, 0
1, 43439, Note_on_c, 9, 69, 0
1, 43440, Note_on_c, 9, 42, 60
1, 43449, Note_on_c, 9, 42, 0
1, 43679, Note_on_c, 9, 36, 0
1, 43680, Note_on_c, 9, 38, 60
1, 43680, Note_on_c, 9, 42, 60
1, 43689, Note_on_c, 9, 42, 0
1, 43919, Note_on_c, 9, 38, 0
1, 43920, Note_on_c, 9, 42, 60
1, 43929, Note_on_c, 9, 42, 0
1, 44160, Note_on_c, 9, 56, 60
1, 44160, Note_on_c, 9, 69, 60
1, 44160, Note_on_c, 9, 42, 60
1, 44160, Note_on_c, 9, 36, 60
1, 44169, Note_on_c, 9, 42, 0
1, 44399, Note_on_c, 9, 56, 0
1, 44399, Note_on_c, 9, 69, 0
1, 44400, Note_on_c, 9, 42, 60
1, 44404, Note_on_c, 9, 42, 0
1, 44520, Note_on_c, 9, 42, 60
1, 44524, Note_on_c, 9, 42, 0
1, 44639, Note_on_c, 9, 36, 0
1, 44640, Note_on_c, 9, 38, 60
1, 44640, Note_on_c, 9, 42, 60
1, 44649, Note_on_c, 9, 42, 0
1, 44879, Note_on_c, 9, 38, 0
1, 44880, Note_on_c, 9, 56, 60
1, 44880, Note_on_c, 9, 69, 60
1, 44880, Note_on_c, 9, 42, 60
1, 44880, Note_on_c, 9, 36, 60
1, 44889, Note_on_c, 9, 42, 0
1, 45119, Note_on_c, 9, 56, 0
1, 45119, Note_on_c, 9, 69, 0
1, 45119, Note_on_c, 9, 36, 0
1, 45120, Note_on_c, 9, 56, 60
1, 45120, Note_on_c, 9, 69, 60
1, 45120, Note_on_c, 9, 42, 60
1, 45120, Note_on_c, 9, 36, 60
1, 45129, Note_on_c, 9, 42, 0
1, 45359, Note_on_c, 9, 56, 0
1, 45359, Note_on_c, 9, 69, 0
1, 45360, Note_on_c, 9, 42, 60
1, 45369, Note_on_c, 9, 42, 0
1, 45599, Note_on_c, 9, 36, 0
1, 45600, Note_on_c, 9, 38, 60
1, 45600, Note_on_c, 9, 42, 60
1, 45609, Note_on_c, 9, 42, 0
1, 45839, Note_on_c, 9, 38, 0
1, 45840, Note_on_c, 9, 42, 60
1, 45849, Note_on_c, 9, 42, 0
1, 46080, Note_on_c, 9, 56, 60
1, 46080, Note_on_c, 9, 69, 60
1, 46080, Note_on_c, 9, 42, 60
1, 46080, Note_on_c, 9, 36, 60
1, 46089, Note_on_c, 9, 42, 0
1, 46319, Note_on_c, 9, 56, 0
1, 46319, Note_on_c, 9, 69, 0
1, 46320, Note_on_c, 9, 42, 60
1, 46324, Note_on_c, 9, 42, 0
1, 46440, Note_on_c, 9, 42, 60
1, 46444, Note_on_c, 9, 42, 0
1, 46559, Note_on_c, 9, 36, 0
1, 46560, Note_on_c, 9, 38, 60
1, 46560, Note_on_c, 9, 42, 60
1, 46569, Note_on_c, 9, 42, 0
1, 46799, Note_on_c, 9, 38, 0
1, 46800, Note_on_c, 9, 56, 60
1, 46800, Note_on_c, 9, 69, 60
1, 46800, Note_on_c, 9, 42, 60
1, 46800, Note_on_c, 9, 36, 60
1, 46809, Note_on_c, 9, 42, 0
1, 47039, Note_on_c, 9, 56, 0
1, 47039, Note_on_c, 9, 69, 0
1, 47039, Note_on_c, 9, 36, 0
1, 47040, Note_on_c, 9, 56, 60
1, 47040, Note_on_c, 9, 69, 60
1, 47040, Note_on_c, 9, 42, 60
1, 47040, Note_on_c, 9, 36, 60
1, 47049, Note_on_c, 9, 42, 0
1, 47279, Note_on_c, 9, 56, 0
1, 47279, Note_on_c, 9, 69, 0
1, 47280, Note_on_c, 9, 42, 60
1, 47289, Note_on_c, 9, 42, 0
1, 47519, Note_on_c, 9, 36, 0
1, 47520, Note_on_c, 9, 38, 60
1, 47520, Note_on_c, 9, 42, 60
1, 47529, Note_on_c, 9, 42, 0
1, 47759, Note_on_c, 9, 38, 0
1, 47760, Note_on_c, 9, 42, 60
1, 47769, Note_on_c, 9, 42, 0
1, 48000, Note_on_c, 9, 56, 60
1, 48000, Note_on_c, 9, 69, 60
1, 48000, Note_on_c, 9, 42, 60
1, 48000, Note_on_c, 9, 36, 60
1, 48009, Note_on_c, 9, 42, 0
1, 48239, Note_on_c, 9, 56, 0
1, 48239, Note_on_c, 9, 69, 0
1, 48240, Note_on_c, 9, 42, 60
1, 48244, Note_on_c, 9, 42, 0
1, 48360, Note_on_c, 9, 42, 60
1, 48364, Note_on_c, 9, 42, 0
1, 48479, Note_on_c, 9, 36, 0
1, 48480, Note_on_c, 9, 38, 60
1, 48480, Note_on_c, 9, 42, 60
1, 48489, Note_on_c, 9, 42, 0
1, 48719, Note_on_c, 9, 38, 0
1, 48720, Note_on_c, 9, 56, 60
1, 48720, Note_on_c, 9, 69, 60
1, 48720, Note_on_c, 9, 42, 60
1, 48720, Note_on_c, 9, 36, 60
1, 48729, Note_on_c, 9, 42, 0
1, 48959, Note_on_c, 9, 56, 0
1, 48959, Note_on_c, 9, 69, 0
1, 48959, Note_on_c, 9, 36, 0
1, 48960, Note_on_c, 9, 56, 60
1, 48960, Note_on_c, 9, 69, 60
1, 48960, Note_on_c, 9, 42, 60
1, 48960, Note_on_c, 9, 36, 60
1, 48969, Note_on_c, 9, 42, 0
1, 49199, Note_on_c, 9, 56, 0
1, 49199, Note_on_c, 9, 69, 0
1, 49200, Note_on_c, 9, 42, 60
1, 49209, Note_on_c, 9, 42, 0
1, 49439, Note_on_c, 9, 36, 0
1, 49440, Note_on_c, 9, 38, 60
1, 49440, Note_on_c, 9, 42, 60
1, 49449, Note_on_c, 9, 42, 0
1, 49679, Note_on_c, 9, 38, 0
1, 49680, Note_on_c, 9, 42, 60
1, 49689, Note_on_c, 9, 42, 0
1, 49920, Note_on_c, 9, 69, 60
1, 49920, Note_on_c, 9, 42, 60
1, 49920, Note_on_c, 9, 36, 60
1, 49929, Note_on_c, 9, 42, 0
1, 50159, Note_on_c, 9, 69, 0
1, 50160, Note_on_c, 9, 42, 60
1, 50169, Note_on_c, 9, 42, 0
1, 50399, Note_on_c, 9, 36, 0
1, 50400, Note_on_c, 9, 38, 60
1, 50400, Note_on_c, 9, 45, 60
1, 50400, Note_on_c, 9, 42, 60
1, 50409, Note_on_c, 9, 42, 0
1, 50639, Note_on_c, 9, 38, 0
1, 50639, Note_on_c, 9, 45, 0
1, 50640, Note_on_c, 9, 69, 60
1, 50640, Note_on_c, 9, 42, 60
1, 50640, Note_on_c, 9, 36, 60
1, 50649, Note_on_c, 9, 42, 0
1, 50879, Note_on_c, 9, 69, 0
1, 50879, Note_on_c, 9, 36, 0
1, 50880, Note_on_c, 9, 69, 60
1, 50880, Note_on_c, 9, 42, 60
1, 50880, Note_on_c, 9, 36, 60
1, 50889, Note_on_c, 9, 42, 0
1, 51119, Note_on_c, 9, 69, 0
1, 51120, Note_on_c, 9, 42, 60
1, 51129, Note_on_c, 9, 42, 0
1, 51359, Note_on_c, 9, 36, 0
1, 51360, Note_on_c, 9, 38, 60
1, 51360, Note_on_c, 9, 45, 60
1, 51360, Note_on_c, 9, 42, 60
1, 51369, Note_on_c, 9, 42, 0
1, 51599, Note_on_c, 9, 38, 0
1, 51599, Note_on_c, 9, 45, 0
1, 51600, Note_on_c, 9, 42, 60
1, 51609, Note_on_c, 9, 42, 0
1, 51840, Note_on_c, 9, 69, 60
1, 51840, Note_on_c, 9, 42, 60
1, 51840, Note_on_c, 9, 36, 60
1, 51849, Note_on_c, 9, 42, 0
1, 52079, Note_on_c, 9, 69, 0
1, 52080, Note_on_c, 9, 42, 60
1, 52089, Note_on_c, 9, 42, 0
1, 52319, Note_on_c, 9, 36, 0
1, 52320, Note_on_c, 9, 38, 60
1, 52320, Note_on_c, 9, 45, 60
1, 52320, Note_on_c, 9, 42, 60
1, 52329, Note_on_c, 9, 42, 0
1, 52559, Note_on_c, 9, 38, 0
1, 52559, Note_on_c, 9, 45, 0
1, 52560, Note_on_c, 9, 69, 60
1, 52560, Note_on_c, 9, 42, 60
1, 52560, Note_on_c, 9, 36, 60
1, 52569, Note_on_c, 9, 42, 0
1, 52799, Note_on_c, 9, 69, 0
1, 52799, Note_on_c, 9, 36, 0
1, 52800, Note_on_c, 9, 69, 60
1, 52800, Note_on_c, 9, 42, 60
1, 52800, Note_on_c, 9, 36, 60
1, 52809, Note_on_c, 9, 42, 0
1, 53039, Note_on_c, 9, 69, 0
1, 53040, Note_on_c, 9, 42, 60
1, 53049, Note_on_c, 9, 42, 0
1, 53279, Note_on_c, 9, 36, 0
1, 53280, Note_on_c, 9, 38, 60
1, 53280, Note_on_c, 9, 45, 60
1, 53280, Note_on_c, 9, 42, 60
1, 53289, Note_on_c, 9, 42, 0
1, 53519, Note_on_c, 9, 38, 0
1, 53519, Note_on_c, 9, 45, 0
1, 53520, Note_on_c, 9, 42, 60
1, 53529, Note_on_c, 9, 42, 0
1, 53760, Note_on_c, 9, 56, 60
1, 53760, Note_on_c, 9, 69, 60
1, 53760, Note_on_c, 9, 42, 60
1, 53760, Note_on_c, 9, 36, 60
1, 53769, Note_on_c, 9, 42, 0
1, 53999, Note_on_c, 9, 56, 0
1, 53999, Note_on_c, 9, 69, 0
1, 54000, Note_on_c, 9, 42, 60
1, 54004, Note_on_c, 9, 42, 0
1, 54120, Note_on_c, 9, 42, 60
1, 54124, Note_on_c, 9, 42, 0
1, 54239, Note_on_c, 9, 36, 0
1, 54240, Note_on_c, 9, 38, 60
1, 54240, Note_on_c, 9, 42, 60
1, 54249, Note_on_c, 9, 42, 0
1, 54479, Note_on_c, 9, 38, 0
1, 54480, Note_on_c, 9, 56, 60
1, 54480, Note_on_c, 9, 69, 60
1, 54480, Note_on_c, 9, 42, 60
1, 54480, Note_on_c, 9, 36, 60
1, 54489, Note_on_c, 9, 42, 0
1, 54719, Note_on_c, 9, 56, 0
1, 54719, Note_on_c, 9, 69, 0
1, 54719, Note_on_c, 9, 36, 0
1, 54720, Note_on_c, 9, 56, 60
1, 54720, Note_on_c, 9, 69, 60
1, 54720, Note_on_c, 9, 42, 60
1, 54720, Note_on_c, 9, 36, 60
1, 54729, Note_on_c, 9, 42, 0
1, 54959, Note_on_c, 9, 56, 0
1, 54959, Note_on_c, 9, 69, 0
1, 54960, Note_on_c, 9, 42, 60
1, 54969, Note_on_c, 9, 42, 0
1, 55199, Note_on_c, 9, 36, 0
1, 55200, Note_on_c, 9, 38, 60
1, 55200, Note_on_c, 9, 42, 60
1, 55209, Note_on_c, 9, 42, 0
1, 55439, Note_on_c, 9, 38, 0
1, 55440, Note_on_c, 9, 42, 60
1, 55449, Note_on_c, 9, 42, 0
1, 55680, Note_on_c, 9, 56, 60
1, 55680, Note_on_c, 9, 69, 60
1, 55680, Note_on_c, 9, 42, 60
1, 55680, Note_on_c, 9, 36, 60
1, 55689, Note_on_c, 9, 42, 0
1, 55919, Note_on_c, 9, 56, 0
1, 55919, Note_on_c, 9, 69, 0
1, 55920, Note_on_c, 9, 42, 60
1, 55924, Note_on_c, 9, 42, 0
1, 56040, Note_on_c, 9, 42, 60
1, 56044, Note_on_c, 9, 42, 0
1, 56159, Note_on_c, 9, 36, 0
1, 56160, Note_on_c, 9, 38, 60
1, 56160, Note_on_c, 9, 42, 60
1, 56169, Note_on_c, 9, 42, 0
1, 56399, Note_on_c, 9, 38, 0
1, 56400, Note_on_c, 9, 56, 60
1, 56400, Note_on_c, 9, 69, 60
1, 56400, Note_on_c, 9, 42, 60
1, 56400, Note_on_c, 9, 36, 60
1, 56409, Note_on_c, 9, 42, 0
1, 56639, Note_on_c, 9, 56, 0
1, 56639, Note_on_c, 9, 69, 0
1, 56639, Note_on_c, 9, 36, 0
1, 56640, Note_on_c, 9, 56, 60
1, 56640, Note_on_c, 9, 69, 60
1, 56640, Note_on_c, 9, 42, 60
1, 56640, Note_on_c, 9, 36, 60
1, 56649, Note_on_c, 9, 42, 0
1, 56879, Note_on_c, 9, 56, 0
1, 56879, Note_on_c, 9, 69, 0
1, 56880, Note_on_c, 9, 38, 60
1, 56880, Note_on_c, 9, 42, 60
1, 56889, Note_on_c, 9, 42, 0
1, 57119, Note_on_c, 9, 36, 0
1, 57119, Note_on_c, 9, 38, 0
1, 57120, Note_on_c, 9, 38, 60
1, 57120, Note_on_c, 9, 42, 60
1, 57124, Note_on_c, 9, 42, 0
1, 57239, Note_on_c, 9, 38, 0
1, 57240, Note_on_c, 9, 38, 60
1, 57359, Note_on_c, 9, 38, 0
1, 57360, Note_on_c, 9, 42, 60
1, 57364, Note_on_c, 9, 42, 0
1, 57480, Note_on_c, 9, 38, 60
1, 57599, Note_on_c, 9, 38, 0
1, 57600, Note_on_c, 9, 54, 60
1, 57600, Note_on_c, 9, 59, 60
1, 57600, Note_on_c, 9, 69, 60
1, 57600, Note_on_c, 9, 36, 60
1, 57619, Note_on_c, 9, 59, 0
1, 58079, Note_on_c, 9, 54, 0
1, 58079, Note_on_c, 9, 69, 0
1, 58079, Note_on_c, 9, 36, 0
1, 58080, Note_on_c, 9, 38, 60
1, 58080, Note_on_c, 9, 54, 60
1, 58080, Note_on_c, 9, 59, 60
1, 58089, Note_on_c, 9, 59, 0
1, 58319, Note_on_c, 9, 38, 0
1, 58319, Note_on_c, 9, 54, 0
1, 58320, Note_on_c, 9, 69, 60
1, 58320, Note_on_c, 9, 36, 60
1, 58559, Note_on_c, 9, 69, 0
1, 58559, Note_on_c, 9, 36, 0
1, 58560, Note_on_c, 9, 54, 60
1, 58560, Note_on_c, 9, 59, 60
1, 58560, Note_on_c, 9, 69, 60
1, 58560, Note_on_c, 9, 36, 60
1, 58579, Note_on_c, 9, 59, 0
1, 59039, Note_on_c, 9, 54, 0
1, 59039, Note_on_c, 9, 69, 0
1, 59039, Note_on_c, 9, 36, 0
1, 59040, Note_on_c, 9, 38, 60
1, 59040, Note_on_c, 9, 54, 60
1, 59040, Note_on_c, 9, 59, 60
1, 59059, Note_on_c, 9, 59, 0
1, 59519, Note_on_c, 9, 38, 0
1, 59519, Note_on_c, 9, 54, 0
1, 59520, Note_on_c, 9, 54, 60
1, 59520, Note_on_c, 9, 59, 60
1, 59520, Note_on_c, 9, 69, 60
1, 59520, Note_on_c, 9, 36, 60
1, 59539, Note_on_c, 9, 59, 0
1, 59999, Note_on_c, 9, 54, 0
1, 59999, Note_on_c, 9, 69, 0
1, 59999, Note_on_c, 9, 36, 0
1, 60000, Note_on_c, 9, 38, 60
1, 60000, Note_on_c, 9, 54, 60
1, 60000, Note_on_c, 9, 59, 60
1, 60009, Note_on_c, 9, 59, 0
1, 60239, Note_on_c, 9, 38, 0
1, 60239, Note_on_c, 9, 54, 0
1, 60240, Note_on_c, 9, 69, 60
1, 60240, Note_on_c, 9, 36, 60
1, 60479, Note_on_c, 9, 69, 0
1, 60479, Note_on_c, 9, 36, 0
1, 60480, Note_on_c, 9, 54, 60
1, 60480, Note_on_c, 9, 59, 60
1, 60480, Note_on_c, 9, 69, 60
1, 60480, Note_on_c, 9, 36, 60
1, 60499, Note_on_c, 9, 59, 0
1, 60959, Note_on_c, 9, 54, 0
1, 60959, Note_on_c, 9, 69, 0
1, 60959, Note_on_c, 9, 36, 0
1, 60960, Note_on_c, 9, 38, 60
1, 60960, Note_on_c, 9, 54, 60
1, 60960, Note_on_c, 9, 59, 60
1, 60979, Note_on_c, 9, 59, 0
1, 61200, Note_on_c, 9, 36, 60
1, 61439, Note_on_c, 9, 38, 0
1, 61439, Note_on_c, 9, 54, 0
1, 61439, Note_on_c, 9, 36, 0
1, 61440, Note_on_c, 9, 54, 60
1, 61440, Note_on_c, 9, 59, 60
1, 61440, Note_on_c, 9, 69, 60
1, 61440, Note_on_c, 9, 36, 60
1, 61459, Note_on_c, 9, 59, 0
1, 61919, Note_on_c, 9, 54, 0
1, 61919, Note_on_c, 9, 69, 0
1, 61919, Note_on_c, 9, 36, 0
1, 61920, Note_on_c, 9, 38, 60
1, 61920, Note_on_c, 9, 54, 60
1, 61920, Note_on_c, 9, 59, 60
1, 61939, Note_on_c, 9, 59, 0
1, 62160, Note_on_c, 9, 36, 60
1, 62399, Note_on_c, 9, 38, 0
1, 62399, Note_on_c, 9, 54, 0
1, 62399, Note_on_c, 9, 36, 0
1, 62400, Note_on_c, 9, 54, 60
1, 62400, Note_on_c, 9, 59, 60
1, 62400, Note_on_c, 9, 69, 60
1, 62400, Note_on_c, 9, 36, 60
1, 62419, Note_on_c, 9, 59, 0
1, 62879, Note_on_c, 9, 54, 0
1, 62879, Note_on_c, 9, 69, 0
1, 62879, Note_on_c, 9, 36, 0
1, 62880, Note_on_c, 9, 38, 60
1, 62880, Note_on_c, 9, 54, 60
1, 62880, Note_on_c, 9, 59, 60
1, 62899, Note_on_c, 9, 59, 0
1, 63359, Note_on_c, 9, 38, 0
1, 63359, Note_on_c, 9, 54, 0
1, 63360, Note_on_c, 9, 54, 60
1, 63360, Note_on_c, 9, 59, 60
1, 63360, Note_on_c, 9, 69, 60
1, 63360, Note_on_c, 9, 36, 60
1, 63379, Note_on_c, 9, 59, 0
1, 63839, Note_on_c, 9, 54, 0
1, 63839, Note_on_c, 9, 69, 0
1, 63839, Note_on_c, 9, 36, 0
1, 63840, Note_on_c, 9, 38, 60
1, 63840, Note_on_c, 9, 54, 60
1, 63840, Note_on_c, 9, 59, 60
1, 63849, Note_on_c, 9, 59, 0
1, 64079, Note_on_c, 9, 38, 0
1, 64079, Note_on_c, 9, 54, 0
1, 64080, Note_on_c, 9, 69, 60
1, 64080, Note_on_c, 9, 36, 60
1, 64319, Note_on_c, 9, 69, 0
1, 64319, Note_on_c, 9, 36, 0
1, 64320, Note_on_c, 9, 54, 60
1, 64320, Note_on_c, 9, 59, 60
1, 64320, Note_on_c, 9, 69, 60
1, 64320, Note_on_c, 9, 36, 60
1, 64339, Note_on_c, 9, 59, 0
1, 64799, Note_on_c, 9, 54, 0
1, 64799, Note_on_c, 9, 69, 0
1, 64799, Note_on_c, 9, 36, 0
1, 64800, Note_on_c, 9, 38, 60
1, 64800, Note_on_c, 9, 54, 60
1, 64800, Note_on_c, 9, 59, 60
1, 64809, Note_on_c, 9, 59, 0
1, 65039, Note_on_c, 9, 38, 0
1, 65039, Note_on_c, 9, 54, 0
1, 65040, Note_on_c, 9, 69, 60
1, 65040, Note_on_c, 9, 36, 60
1, 65279, Note_on_c, 9, 69, 0
1, 65279, Note_on_c, 9, 36, 0
1, 65280, Note_on_c, 9, 54, 60
1, 65280, Note_on_c, 9, 59, 60
1, 65280, Note_on_c, 9, 69, 60
1, 65280, Note_on_c, 9, 36, 60
1, 65299, Note_on_c, 9, 59, 0
1, 65759, Note_on_c, 9, 54, 0
1, 65759, Note_on_c, 9, 69, 0
1, 65759, Note_on_c, 9, 36, 0
1, 65760, Note_on_c, 9, 38, 60
1, 65760, Note_on_c, 9, 54, 60
1, 65760, Note_on_c, 9, 59, 60
1, 65779, Note_on_c, 9, 59, 0
1, 66000, Note_on_c, 9, 36, 60
1, 66239, Note_on_c, 9, 38, 0
1, 66239, Note_on_c, 9, 54, 0
1, 66239, Note_on_c, 9, 36, 0
1, 66240, Note_on_c, 9, 54, 60
1, 66240, Note_on_c, 9, 59, 60
1, 66240, Note_on_c, 9, 69, 60
1, 66240, Note_on_c, 9, 36, 60
1, 66259, Note_on_c, 9, 59, 0
1, 66719, Note_on_c, 9, 54, 0
1, 66719, Note_on_c, 9, 69, 0
1, 66719, Note_on_c, 9, 36, 0
1, 66720, Note_on_c, 9, 38, 60
1, 66720, Note_on_c, 9, 54, 60
1, 66720, Note_on_c, 9, 59, 60
1, 66739, Note_on_c, 9, 59, 0
1, 67199, Note_on_c, 9, 38, 0
1, 67199, Note_on_c, 9, 54, 0
1, 67200, Note_on_c, 9, 54, 60
1, 67200, Note_on_c, 9, 59, 60
1, 67200, Note_on_c, 9, 69, 60
1, 67200, Note_on_c, 9, 36, 60
1, 67219, Note_on_c, 9, 59, 0
1, 67679, Note_on_c, 9, 54, 0
1, 67679, Note_on_c, 9, 69, 0
1, 67679, Note_on_c, 9, 36, 0
1, 67680, Note_on_c, 9, 38, 60
1, 67680, Note_on_c, 9, 54, 60
1, 67680, Note_on_c, 9, 59, 60
1, 67699, Note_on_c, 9, 59, 0
1, 67920, Note_on_c, 9, 36, 60
1, 68159, Note_on_c, 9, 38, 0
1, 68159, Note_on_c, 9, 54, 0
1, 68159, Note_on_c, 9, 36, 0
1, 68160, Note_on_c, 9, 54, 60
1, 68160, Note_on_c, 9, 59, 60
1, 68160, Note_on_c, 9, 69, 60
1, 68160, Note_on_c, 9, 36, 60
1, 68179, Note_on_c, 9, 59, 0
1, 68639, Note_on_c, 9, 54, 0
1, 68639, Note_on_c, 9, 69, 0
1, 68639, Note_on_c, 9, 36, 0
1, 68640, Note_on_c, 9, 38, 60
1, 68640, Note_on_c, 9, 54, 60
1, 68640, Note_on_c, 9, 59, 60
1, 68649, Note_on_c, 9, 59, 0
1, 68879, Note_on_c, 9, 38, 0
1, 68879, Note_on_c, 9, 54, 0
1, 68880, Note_on_c, 9, 69, 60
1, 68880, Note_on_c, 9, 36, 60
1, 69119, Note_on_c, 9, 69, 0
1, 69119, Note_on_c, 9, 36, 0
1, 69120, Note_on_c, 9, 54, 60
1, 69120, Note_on_c, 9, 59, 60
1, 69120, Note_on_c, 9, 69, 60
1, 69120, Note_on_c, 9, 36, 60
1, 69139, Note_on_c, 9, 59, 0
1, 69599, Note_on_c, 9, 54, 0
1, 69599, Note_on_c, 9, 69, 0
1, 69599, Note_on_c, 9, 36, 0
1, 69600, Note_on_c, 9, 38, 60
1, 69600, Note_on_c, 9, 54, 60
1, 69600, Note_on_c, 9, 59, 60
1, 69619, Note_on_c, 9, 59, 0
1, 69840, Note_on_c, 9, 36, 60
1, 70079, Note_on_c, 9, 38, 0
1, 70079, Note_on_c, 9, 54, 0
1, 70079, Note_on_c, 9, 36, 0
1, 70080, Note_on_c, 9, 54, 60
1, 70080, Note_on_c, 9, 59, 60
1, 70080, Note_on_c, 9, 69, 60
1, 70080, Note_on_c, 9, 36, 60
1, 70099, Note_on_c, 9, 59, 0
1, 70559, Note_on_c, 9, 54, 0
1, 70559, Note_on_c, 9, 69, 0
1, 70559, Note_on_c, 9, 36, 0
1, 70560, Note_on_c, 9, 38, 60
1, 70560, Note_on_c, 9, 54, 60
1, 70560, Note_on_c, 9, 59, 60
1, 70579, Note_on_c, 9, 59, 0
1, 71039, Note_on_c, 9, 38, 0
1, 71039, Note_on_c, 9, 54, 0
1, 71040, Note_on_c, 9, 54, 60
1, 71040, Note_on_c, 9, 59, 60
1, 71040, Note_on_c, 9, 69, 60
1, 71040, Note_on_c, 9, 36, 60
1, 71059, Note_on_c, 9, 59, 0
1, 71519, Note_on_c, 9, 54, 0
1, 71519, Note_on_c, 9, 69, 0
1, 71519, Note_on_c, 9, 36, 0
1, 71520, Note_on_c, 9, 38, 60
1, 71520, Note_on_c, 9, 54, 60
1, 71520, Note_on_c, 9, 59, 60
1, 71529, Note_on_c, 9, 59, 0
1, 71759, Note_on_c, 9, 38, 0
1, 71759, Note_on_c, 9, 54, 0
1, 71760, Note_on_c, 9, 69, 60
1, 71760, Note_on_c, 9, 36, 60
1, 71999, Note_on_c, 9, 69, 0
1, 71999, Note_on_c, 9, 36, 0
1, 72000, Note_on_c, 9, 54, 60
1, 72000, Note_on_c, 9, 59, 60
1, 72000, Note_on_c, 9, 69, 60
1, 72000, Note_on_c, 9, 36, 60
1, 72019, Note_on_c, 9, 59, 0
1, 72479, Note_on_c, 9, 54, 0
1, 72479, Note_on_c, 9, 69, 0
1, 72479, Note_on_c, 9, 36, 0
1, 72480, Note_on_c, 9, 38, 60
1, 72480, Note_on_c, 9, 54, 60
1, 72480, Note_on_c, 9, 59, 60
1, 72489, Note_on_c, 9, 59, 0
1, 72719, Note_on_c, 9, 38, 0
1, 72719, Note_on_c, 9, 54, 0
1, 72720, Note_on_c, 9, 69, 60
1, 72720, Note_on_c, 9, 36, 60
1, 72959, Note_on_c, 9, 69, 0
1, 72959, Note_on_c, 9, 36, 0
1, 72960, Note_on_c, 9, 54, 60
1, 72960, Note_on_c, 9, 59, 60
1, 72960, Note_on_c, 9, 69, 60
1, 72960, Note_on_c, 9, 36, 60
1, 72979, Note_on_c, 9, 59, 0
1, 73439, Note_on_c, 9, 54, 0
1, 73439, Note_on_c, 9, 69, 0
1, 73439, Note_on_c, 9, 36, 0
1, 73440, Note_on_c, 9, 38, 60
1, 73440, Note_on_c, 9, 54, 60
1, 73440, Note_on_c, 9, 59, 60
1, 73459, Note_on_c, 9, 59, 0
1, 73680, Note_on_c, 9, 36, 60
1, 73919, Note_on_c, 9, 38, 0
1, 73919, Note_on_c, 9, 54, 0
1, 73919, Note_on_c, 9, 36, 0
1, 73920, Note_on_c, 9, 54, 60
1, 73920, Note_on_c, 9, 59, 60
1, 73920, Note_on_c, 9, 69, 60
1, 73920, Note_on_c, 9, 36, 60
1, 73939, Note_on_c, 9, 59, 0
1, 74399, Note_on_c, 9, 54, 0
1, 74399, Note_on_c, 9, 69, 0
1, 74399, Note_on_c, 9, 36, 0
1, 74400, Note_on_c, 9, 38, 60
1, 74400, Note_on_c, 9, 54, 60
1, 74400, Note_on_c, 9, 59, 60
1, 74419, Note_on_c, 9, 59, 0
1, 74879, Note_on_c, 9, 38, 0
1, 74879, Note_on_c, 9, 54, 0
1, 74880, Note_on_c, 9, 54, 60
1, 74880, Note_on_c, 9, 59, 60
1, 74880, Note_on_c, 9, 69, 60
1, 74880, Note_on_c, 9, 36, 60
1, 74899, Note_on_c, 9, 59, 0
1, 75359, Note_on_c, 9, 54, 0
1, 75359, Note_on_c, 9, 69, 0
1, 75359, Note_on_c, 9, 36, 0
1, 75360, Note_on_c, 9, 38, 60
1, 75360, Note_on_c, 9, 54, 60
1, 75360, Note_on_c, 9, 59, 60
1, 75369, Note_on_c, 9, 59, 0
1, 75599, Note_on_c, 9, 38, 0
1, 75599, Note_on_c, 9, 54, 0
1, 75600, Note_on_c, 9, 69, 60
1, 75600, Note_on_c, 9, 36, 60
1, 75839, Note_on_c, 9, 69, 0
1, 75839, Note_on_c, 9, 36, 0
1, 75840, Note_on_c, 9, 54, 60
1, 75840, Note_on_c, 9, 69, 60
1, 75840, Note_on_c, 9, 57, 60
1, 75840, Note_on_c, 9, 36, 60
1, 75859, Note_on_c, 9, 57, 0
1, 76319, Note_on_c, 9, 54, 0
1, 76319, Note_on_c, 9, 69, 0
1, 76319, Note_on_c, 9, 36, 0
1, 76320, Note_on_c, 9, 38, 60
1, 76320, Note_on_c, 9, 54, 60
1, 76320, Note_on_c, 9, 57, 60
1, 76320, Note_on_c, 9, 36, 60
1, 76329, Note_on_c, 9, 57, 0
1, 76559, Note_on_c, 9, 38, 0
1, 76559, Note_on_c, 9, 54, 0
1, 76559, Note_on_c, 9, 36, 0
1, 76560, Note_on_c, 9, 69, 60
1, 76560, Note_on_c, 9, 36, 60
1, 76799, Note_on_c, 9, 69, 0
1, 76799, Note_on_c, 9, 36, 0
1, 76800, Note_on_c, 9, 54, 60
1, 76800, Note_on_c, 9, 59, 60
1, 76800, Note_on_c, 9, 69, 60
1, 76800, Note_on_c, 9, 36, 60
1, 76819, Note_on_c, 9, 59, 0
1, 77279, Note_on_c, 9, 54, 0
1, 77279, Note_on_c, 9, 69, 0
1, 77279, Note_on_c, 9, 36, 0
1, 77280, Note_on_c, 9, 38, 60
1, 77280, Note_on_c, 9, 54, 60
1, 77280, Note_on_c, 9, 59, 60
1, 77299, Note_on_c, 9, 59, 0
1, 77520, Note_on_c, 9, 36, 60
1, 77759, Note_on_c, 9, 38, 0
1, 77759, Note_on_c, 9, 54, 0
1, 77759, Note_on_c, 9, 36, 0
1, 77760, Note_on_c, 9, 54, 60
1, 77760, Note_on_c, 9, 59, 60
1, 77760, Note_on_c, 9, 69, 60
1, 77760, Note_on_c, 9, 36, 60
1, 77779, Note_on_c, 9, 59, 0
1, 78239, Note_on_c, 9, 54, 0
1, 78239, Note_on_c, 9, 69, 0
1, 78239, Note_on_c, 9, 36, 0
1, 78240, Note_on_c, 9, 38, 60
1, 78240, Note_on_c, 9, 54, 60
1, 78240, Note_on_c, 9, 59, 60
1, 78259, Note_on_c, 9, 59, 0
1, 78719, Note_on_c, 9, 38, 0
1, 78719, Note_on_c, 9, 54, 0
1, 78720, Note_on_c, 9, 54, 60
1, 78720, Note_on_c, 9, 59, 60
1, 78720, Note_on_c, 9, 69, 60
1, 78720, Note_on_c, 9, 36, 60
1, 78739, Note_on_c, 9, 59, 0
1, 79199, Note_on_c, 9, 54, 0
1, 79199, Note_on_c, 9, 69, 0
1, 79199, Note_on_c, 9, 36, 0
1, 79200, Note_on_c, 9, 38, 60
1, 79200, Note_on_c, 9, 54, 60
1, 79200, Note_on_c, 9, 59, 60
1, 79219, Note_on_c, 9, 59, 0
1, 79440, Note_on_c, 9, 36, 60
1, 79679, Note_on_c, 9, 38, 0
1, 79679, Note_on_c, 9, 54, 0
1, 79679, Note_on_c, 9, 36, 0
1, 79680, Note_on_c, 9, 59, 60
1, 79680, Note_on_c, 9, 59, 0
1, 79680, Note_on_c, 9, 57, 60
1, 79680, Note_on_c, 9, 57, 0
1, 79680, Note_on_c, 9, 36, 60
1, 79710, Note_on_c, 9, 57, 60
1, 79710, Note_on_c, 9, 57, 0
1, 79740, Note_on_c, 9, 57, 60
1, 79740, Note_on_c, 9, 57, 0
1, 79770, Note_on_c, 9, 57, 60
1, 79770, Note_on_c, 9, 57, 0
1, 79800, Note_on_c, 9, 57, 60
1, 79800, Note_on_c, 9, 57, 0
1, 79830, Note_on_c, 9, 57, 60
1, 79830, Note_on_c, 9, 57, 0
1, 79860, Note_on_c, 9, 57, 60
1, 79860, Note_on_c, 9, 57, 0
1, 79890, Note_on_c, 9, 57, 60
1, 79890, Note_on_c, 9, 57, 0
1, 79920, Note_on_c, 9, 57, 60
1, 79920, Note_on_c, 9, 57, 0
1, 79950, Note_on_c, 9, 57, 60
1, 79950, Note_on_c, 9, 57, 0
1, 79980, Note_on_c, 9, 57, 60
1, 79980, Note_on_c, 9, 57, 0
1, 80010, Note_on_c, 9, 57, 60
1, 80010, Note_on_c, 9, 57, 0
1, 80040, Note_on_c, 9, 57, 60
1, 80040, Note_on_c, 9, 57, 0
1, 80070, Note_on_c, 9, 57, 60
1, 80070, Note_on_c, 9, 57, 0
1, 80100, Note_on_c, 9, 57, 60
1, 80100, Note_on_c, 9, 57, 0
1, 80130, Note_on_c, 9, 57, 60
1, 80130, Note_on_c, 9, 57, 0
1, 80159, Note_on_c, 9, 36, 0
1, 80160, Note_on_c, 9, 38, 60
1, 80160, Note_on_c, 9, 59, 60
1, 80160, Note_on_c, 9, 59, 0
1, 80160, Note_on_c, 9, 57, 60
1, 80160, Note_on_c, 9, 57, 0
1, 80189, Note_on_c, 9, 38, 0
1, 80190, Note_on_c, 9, 57, 60
1, 80190, Note_on_c, 9, 57, 0
1, 80220, Note_on_c, 9, 57, 60
1, 80220, Note_on_c, 9, 57, 0
1, 80250, Note_on_c, 9, 57, 60
1, 80250, Note_on_c, 9, 57, 0
1, 80280, Note_on_c, 9, 57, 60
1, 80280, Note_on_c, 9, 57, 0
1, 80310, Note_on_c, 9, 57, 60
1, 80310, Note_on_c, 9, 57, 0
1, 80340, Note_on_c, 9, 57, 60
1, 80340, Note_on_c, 9, 57, 0
1, 80370, Note_on_c, 9, 57, 60
1, 80370, Note_on_c, 9, 57, 0
1, 80400, Note_on_c, 9, 57, 60
1, 80400, Note_on_c, 9, 57, 0
1, 80400, Note_on_c, 9, 36, 60
1, 80430, Note_on_c, 9, 57, 60
1, 80430, Note_on_c, 9, 57, 0
1, 80460, Note_on_c, 9, 57, 60
1, 80460, Note_on_c, 9, 57, 0
1, 80490, Note_on_c, 9, 57, 60
1, 80490, Note_on_c, 9, 57, 0
1, 80520, Note_on_c, 9, 57, 60
1, 80520, Note_on_c, 9, 57, 0
1, 80550, Note_on_c, 9, 57, 60
1, 80550, Note_on_c, 9, 57, 0
1, 80580, Note_on_c, 9, 57, 60
1, 80580, Note_on_c, 9, 57, 0
1, 80610, Note_on_c, 9, 57, 60
1, 80610, Note_on_c, 9, 57, 0
1, 80639, Note_on_c, 9, 36, 0
1, 80640, Note_on_c, 9, 36, 60
1, 81119, Note_on_c, 9, 36, 0
1, 82320, Note_on_c, 9, 42, 60
1, 82329, Note_on_c, 9, 42, 0
1, 82560, Note_on_c, 9, 56, 60
1, 82560, Note_on_c, 9, 69, 60
1, 82560, Note_on_c, 9, 42, 60
1, 82560, Note_on_c, 9, 36, 60
1, 82569, Note_on_c, 9, 42, 0
1, 82799, Note_on_c, 9, 56, 0
1, 82799, Note_on_c, 9, 69, 0
1, 82800, Note_on_c, 9, 42, 60
1, 82804, Note_on_c, 9, 42, 0
1, 82920, Note_on_c, 9, 42, 60
1, 82924, Note_on_c, 9, 42, 0
1, 83039, Note_on_c, 9, 36, 0
1, 83040, Note_on_c, 9, 38, 60
1, 83040, Note_on_c, 9, 42, 60
1, 83049, Note_on_c, 9, 42, 0
1, 83279, Note_on_c, 9, 38, 0
1, 83280, Note_on_c, 9, 56, 60
1, 83280, Note_on_c, 9, 69, 60
1, 83280, Note_on_c, 9, 42, 60
1, 83280, Note_on_c, 9, 36, 60
1, 83289, Note_on_c, 9, 42, 0
1, 83519, Note_on_c, 9, 56, 0
1, 83519, Note_on_c, 9, 69, 0
1, 83519, Note_on_c, 9, 36, 0
1, 83520, Note_on_c, 9, 56, 60
1, 83520, Note_on_c, 9, 69, 60
1, 83520, Note_on_c, 9, 42, 60
1, 83520, Note_on_c, 9, 36, 60
1, 83529, Note_on_c, 9, 42, 0
1, 83759, Note_on_c, 9, 56, 0
1, 83759, Note_on_c, 9, 69, 0
1, 83760, Note_on_c, 9, 42, 60
1, 83769, Note_on_c, 9, 42, 0
1, 83999, Note_on_c, 9, 36, 0
1, 84000, Note_on_c, 9, 38, 60
1, 84000, Note_on_c, 9, 42, 60
1, 84009, Note_on_c, 9, 42, 0
1, 84239, Note_on_c, 9, 38, 0
1, 84240, Note_on_c, 9, 42, 60
1, 84249, Note_on_c, 9, 42, 0
1, 84480, Note_on_c, 9, 56, 60
1, 84480, Note_on_c, 9, 69, 60
1, 84480, Note_on_c, 9, 42, 60
1, 84480, Note_on_c, 9, 36, 60
1, 84489, Note_on_c, 9, 42, 0
1, 84719, Note_on_c, 9, 56, 0
1, 84719, Note_on_c, 9, 69, 0
1, 84720, Note_on_c, 9, 42, 60
1, 84724, Note_on_c, 9, 42, 0
1, 84840, Note_on_c, 9, 42, 60
1, 84844, Note_on_c, 9, 42, 0
1, 84959, Note_on_c, 9, 36, 0
1, 84960, Note_on_c, 9, 38, 60
1, 84960, Note_on_c, 9, 42, 60
1, 84969, Note_on_c, 9, 42, 0
1, 85199, Note_on_c, 9, 38, 0
1, 85200, Note_on_c, 9, 56, 60
1, 85200, Note_on_c, 9, 69, 60
1, 85200, Note_on_c, 9, 42, 60
1, 85200, Note_on_c, 9, 36, 60
1, 85209, Note_on_c, 9, 42, 0
1, 85439, Note_on_c, 9, 56, 0
1, 85439, Note_on_c, 9, 69, 0
1, 85439, Note_on_c, 9, 36, 0
1, 85440, Note_on_c, 9, 56, 60
1, 85440, Note_on_c, 9, 69, 60
1, 85440, Note_on_c, 9, 42, 60
1, 85440, Note_on_c, 9, 36, 60
1, 85449, Note_on_c, 9, 42, 0
1, 85679, Note_on_c, 9, 56, 0
1, 85679, Note_on_c, 9, 69, 0
1, 85680, Note_on_c, 9, 42, 60
1, 85689, Note_on_c, 9, 42, 0
1, 85919, Note_on_c, 9, 36, 0
1, 85920, Note_on_c, 9, 38, 60
1, 85920, Note_on_c, 9, 42, 60
1, 85929, Note_on_c, 9, 42, 0
1, 86159, Note_on_c, 9, 38, 0
1, 86160, Note_on_c, 9, 42, 60
1, 86169, Note_on_c, 9, 42, 0
1, 86400, Note_on_c, 9, 56, 60
1, 86400, Note_on_c, 9, 69, 60
1, 86400, Note_on_c, 9, 42, 60
1, 86400, Note_on_c, 9, 36, 60
1, 86409, Note_on_c, 9, 42, 0
1, 86639, Note_on_c, 9, 56, 0
1, 86639, Note_on_c, 9, 69, 0
1, 86640, Note_on_c, 9, 42, 60
1, 86644, Note_on_c, 9, 42, 0
1, 86760, Note_on_c, 9, 42, 60
1, 86764, Note_on_c, 9, 42, 0
1, 86879, Note_on_c, 9, 36, 0
1, 86880, Note_on_c, 9, 38, 60
1, 86880, Note_on_c, 9, 42, 60
1, 86889, Note_on_c, 9, 42, 0
1, 87119, Note_on_c, 9, 38, 0
1, 87120, Note_on_c, 9, 56, 60
1, 87120, Note_on_c, 9, 69, 60
1, 87120, Note_on_c, 9, 42, 60
1, 87120, Note_on_c, 9, 36, 60
1, 87129, Note_on_c, 9, 42, 0
1, 87359, Note_on_c, 9, 56, 0
1, 87359, Note_on_c, 9, 69, 0
1, 87359, Note_on_c, 9, 36, 0
1, 87360, Note_on_c, 9, 56, 60
1, 87360, Note_on_c, 9, 69, 60
1, 87360, Note_on_c, 9, 42, 60
1, 87360, Note_on_c, 9, 36, 60
1, 87369, Note_on_c, 9, 42, 0
1, 87599, Note_on_c, 9, 56, 0
1, 87599, Note_on_c, 9, 69, 0
1, 87600, Note_on_c, 9, 42, 60
1, 87609, Note_on_c, 9, 42, 0
1, 87839, Note_on_c, 9, 36, 0
1, 87840, Note_on_c, 9, 38, 60
1, 87840, Note_on_c, 9, 42, 60
1, 87849, Note_on_c, 9, 42, 0
1, 88079, Note_on_c, 9, 38, 0
1, 88080, Note_on_c, 9, 42, 60
1, 88089, Note_on_c, 9, 42, 0
1, 88320, Note_on_c, 9, 56, 60
1, 88320, Note_on_c, 9, 69, 60
1, 88320, Note_on_c, 9, 42, 60
1, 88320, Note_on_c, 9, 36, 60
1, 88329, Note_on_c, 9, 42, 0
1, 88559, Note_on_c, 9, 56, 0
1, 88559, Note_on_c, 9, 69, 0
1, 88560, Note_on_c, 9, 42, 60
1, 88564, Note_on_c, 9, 42, 0
1, 88680, Note_on_c, 9, 42, 60
1, 88684, Note_on_c, 9, 42, 0
1, 88799, Note_on_c, 9, 36, 0
1, 88800, Note_on_c, 9, 38, 60
1, 88800, Note_on_c, 9, 42, 60
1, 88809, Note_on_c, 9, 42, 0
1, 89039, Note_on_c, 9, 38, 0
1, 89040, Note_on_c, 9, 56, 60
1, 89040, Note_on_c, 9, 69, 60
1, 89040, Note_on_c, 9, 42, 60
1, 89040, Note_on_c, 9, 36, 60
1, 89049, Note_on_c, 9, 42, 0
1, 89279, Note_on_c, 9, 56, 0
1, 89279, Note_on_c, 9, 69, 0
1, 89279, Note_on_c, 9, 36, 0
1, 89280, Note_on_c, 9, 56, 60
1, 89280, Note_on_c, 9, 69, 60
1, 89280, Note_on_c, 9, 42, 60
1, 89280, Note_on_c, 9, 36, 60
1, 89289, Note_on_c, 9, 42, 0
1, 89519, Note_on_c, 9, 56, 0
1, 89519, Note_on_c, 9, 69, 0
1, 89520, Note_on_c, 9, 42, 60
1, 89529, Note_on_c, 9, 42, 0
1, 89759, Note_on_c, 9, 36, 0
1, 89760, Note_on_c, 9, 38, 60
1, 89760, Note_on_c, 9, 42, 60
1, 89769, Note_on_c, 9, 42, 0
1, 89999, Note_on_c, 9, 38, 0
1, 90000, Note_on_c, 9, 42, 60
1, 90009, Note_on_c, 9, 42, 0
1, 90240, Note_on_c, 9, 56, 60
1, 90240, Note_on_c, 9, 69, 60
1, 90240, Note_on_c, 9, 42, 60
1, 90240, Note_on_c, 9, 36, 60
1, 90249, Note_on_c, 9, 42, 0
1, 90479, Note_on_c, 9, 56, 0
1, 90479, Note_on_c, 9, 69, 0
1, 90480, Note_on_c, 9, 42, 60
1, 90484, Note_on_c, 9, 42, 0
1, 90600, Note_on_c, 9, 42, 60
1, 90604, Note_on_c, 9, 42, 0
1, 90719, Note_on_c, 9, 36, 0
1, 90720, Note_on_c, 9, 38, 60
1, 90720, Note_on_c, 9, 42, 60
1, 90729, Note_on_c, 9, 42, 0
1, 90959, Note_on_c, 9, 38, 0
1, 90960, Note_on_c, 9, 56, 60
1, 90960, Note_on_c, 9, 69, 60
1, 90960, Note_on_c, 9, 42, 60
1, 90960, Note_on_c, 9, 36, 60
1, 90969, Note_on_c, 9, 42, 0
1, 91199, Note_on_c, 9, 56, 0
1, 91199, Note_on_c, 9, 69, 0
1, 91199, Note_on_c, 9, 36, 0
1, 91200, Note_on_c, 9, 56, 60
1, 91200, Note_on_c, 9, 69, 60
1, 91200, Note_on_c, 9, 42, 60
1, 91200, Note_on_c, 9, 36, 60
1, 91209, Note_on_c, 9, 42, 0
1, 91439, Note_on_c, 9, 56, 0
1, 91439, Note_on_c, 9, 69, 0
1, 91440, Note_on_c, 9, 42, 60
1, 91449, Note_on_c, 9, 42, 0
1, 91679, Note_on_c, 9, 36, 0
1, 91680, Note_on_c, 9, 38, 60
1, 91680, Note_on_c, 9, 42, 60
1, 91689, Note_on_c, 9, 42, 0
1, 91919, Note_on_c, 9, 38, 0
1, 91920, Note_on_c, 9, 42, 60
1, 91929, Note_on_c, 9, 42, 0
1, 92160, Note_on_c, 9, 56, 60
1, 92160, Note_on_c, 9, 69, 60
1, 92160, Note_on_c, 9, 42, 60
1, 92160, Note_on_c, 9, 36, 60
1, 92169, Note_on_c, 9, 42, 0
1, 92399, Note_on_c, 9, 56, 0
1, 92399, Note_on_c, 9, 69, 0
1, 92400, Note_on_c, 9, 42, 60
1, 92404, Note_on_c, 9, 42, 0
1, 92520, Note_on_c, 9, 42, 60
1, 92524, Note_on_c, 9, 42, 0
1, 92639, Note_on_c, 9, 36, 0
1, 92640, Note_on_c, 9, 38, 60
1, 92640, Note_on_c, 9, 42, 60
1, 92649, Note_on_c, 9, 42, 0
1, 92879, Note_on_c, 9, 38, 0
1, 92880, Note_on_c, 9, 56, 60
1, 92880, Note_on_c, 9, 69, 60
1, 92880, Note_on_c, 9, 42, 60
1, 92880, Note_on_c, 9, 36, 60
1, 92889, Note_on_c, 9, 42, 0
1, 93119, Note_on_c, 9, 56, 0
1, 93119, Note_on_c, 9, 69, 0
1, 93119, Note_on_c, 9, 36, 0
1, 93120, Note_on_c, 9, 56, 60
1, 93120, Note_on_c, 9, 69, 60
1, 93120, Note_on_c, 9, 42, 60
1, 93120, Note_on_c, 9, 36, 60
1, 93129, Note_on_c, 9, 42, 0
1, 93359, Note_on_c, 9, 56, 0
1, 93359, Note_on_c, 9, 69, 0
1, 93360, Note_on_c, 9, 42, 60
1, 93369, Note_on_c, 9, 42, 0
1, 93599, Note_on_c, 9, 36, 0
1, 93600, Note_on_c, 9, 38, 60
1, 93600, Note_on_c, 9, 42, 60
1, 93609, Note_on_c, 9, 42, 0
1, 93839, Note_on_c, 9, 38, 0
1, 93840, Note_on_c, 9, 42, 60
1, 93849, Note_on_c, 9, 42, 0
1, 94080, Note_on_c, 9, 56, 60
1, 94080, Note_on_c, 9, 69, 60
1, 94080, Note_on_c, 9, 42, 60
1, 94080, Note_on_c, 9, 36, 60
1, 94089, Note_on_c, 9, 42, 0
1, 94319, Note_on_c, 9, 56, 0
1, 94319, Note_on_c, 9, 69, 0
1, 94320, Note_on_c, 9, 42, 60
1, 94324, Note_on_c, 9, 42, 0
1, 94440, Note_on_c, 9, 42, 60
1, 94444, Note_on_c, 9, 42, 0
1, 94559, Note_on_c, 9, 36, 0
1, 94560, Note_on_c, 9, 38, 60
1, 94560, Note_on_c, 9, 42, 60
1, 94569, Note_on_c, 9, 42, 0
1, 94799, Note_on_c, 9, 38, 0
1, 94800, Note_on_c, 9, 56, 60
1, 94800, Note_on_c, 9, 69, 60
1, 94800, Note_on_c, 9, 42, 60
1, 94800, Note_on_c, 9, 36, 60
1, 94809, Note_on_c, 9, 42, 0
1, 95039, Note_on_c, 9, 56, 0
1, 95039, Note_on_c, 9, 69, 0
1, 95039, Note_on_c, 9, 36, 0
1, 95040, Note_on_c, 9, 56, 60
1, 95040, Note_on_c, 9, 69, 60
1, 95040, Note_on_c, 9, 42, 60
1, 95040, Note_on_c, 9, 36, 60
1, 95049, Note_on_c, 9, 42, 0
1, 95279, Note_on_c, 9, 56, 0
1, 95279, Note_on_c, 9, 69, 0
1, 95280, Note_on_c, 9, 42, 60
1, 95289, Note_on_c, 9, 42, 0
1, 95519, Note_on_c, 9, 36, 0
1, 95520, Note_on_c, 9, 38, 60
1, 95520, Note_on_c, 9, 42, 60
1, 95529, Note_on_c, 9, 42, 0
1, 95759, Note_on_c, 9, 38, 0
1, 95760, Note_on_c, 9, 42, 60
1, 95769, Note_on_c, 9, 42, 0
1, 96000, Note_on_c, 9, 56, 60
1, 96000, Note_on_c, 9, 69, 60
1, 96000, Note_on_c, 9, 42, 60
1, 96000, Note_on_c, 9, 36, 60
1, 96009, Note_on_c, 9, 42, 0
1, 96239, Note_on_c, 9, 56, 0
1, 96239, Note_on_c, 9, 69, 0
1, 96240, Note_on_c, 9, 42, 60
1, 96244, Note_on_c, 9, 42, 0
1, 96360, Note_on_c, 9, 42, 60
1, 96364, Note_on_c, 9, 42, 0
1, 96479, Note_on_c, 9, 36, 0
1, 96480, Note_on_c, 9, 38, 60
1, 96480, Note_on_c, 9, 42, 60
1, 96489, Note_on_c, 9, 42, 0
1, 96719, Note_on_c, 9, 38, 0
1, 96720, Note_on_c, 9, 56, 60
1, 96720, Note_on_c, 9, 69, 60
1, 96720, Note_on_c, 9, 42, 60
1, 96720, Note_on_c, 9, 36, 60
1, 96729, Note_on_c, 9, 42, 0
1, 96959, Note_on_c, 9, 56, 0
1, 96959, Note_on_c, 9, 69, 0
1, 96959, Note_on_c, 9, 36, 0
1, 96960, Note_on_c, 9, 56, 60
1, 96960, Note_on_c, 9, 69, 60
1, 96960, Note_on_c, 9, 42, 60
1, 96960, Note_on_c, 9, 36, 60
1, 96969, Note_on_c, 9, 42, 0
1, 97199, Note_on_c, 9, 56, 0
1, 97199, Note_on_c, 9, 69, 0
1, 97200, Note_on_c, 9, 42, 60
1, 97209, Note_on_c, 9, 42, 0
1, 97439, Note_on_c, 9, 36, 0
1, 97440, Note_on_c, 9, 38, 60
1, 97440, Note_on_c, 9, 42, 60
1, 97449, Note_on_c, 9, 42, 0
1, 97679, Note_on_c, 9, 38, 0
1, 97680, Note_on_c, 9, 42, 60
1, 97680, Note_on_c, 9, 42, 0
1, 97680, Note_on_c, 9, 57, 60
1, 97680, Note_on_c, 9, 57, 0
1, 97710, Note_on_c, 9, 57, 60
1, 97710, Note_on_c, 9, 57, 0
1, 97740, Note_on_c, 9, 57, 60
1, 97740, Note_on_c, 9, 57, 0
1, 97770, Note_on_c, 9, 57, 60
1, 97770, Note_on_c, 9, 57, 0
1, 97800, Note_on_c, 9, 57, 60
1, 97800, Note_on_c, 9, 57, 0
1, 97830, Note_on_c, 9, 57, 60
1, 97830, Note_on_c, 9, 57, 0
1, 97860, Note_on_c, 9, 57, 60
1, 97860, Note_on_c, 9, 57, 0
1, 97890, Note_on_c, 9, 57, 60
1, 97890, Note_on_c, 9, 57, 0
1, 97920, Note_on_c, 9, 54, 60
1, 97920, Note_on_c, 9, 69, 60
1, 97920, Note_on_c, 9, 42, 60
1, 97920, Note_on_c, 9, 36, 60
1, 97929, Note_on_c, 9, 42, 0
1, 98159, Note_on_c, 9, 54, 0
1, 98159, Note_on_c, 9, 69, 0
1, 98160, Note_on_c, 9, 42, 60
1, 98164, Note_on_c, 9, 42, 0
1, 98280, Note_on_c, 9, 42, 60
1, 98284, Note_on_c, 9, 42, 0
1, 98399, Note_on_c, 9, 36, 0
1, 98400, Note_on_c, 9, 38, 60
1, 98400, Note_on_c, 9, 42, 60
1, 98409, Note_on_c, 9, 42, 0
1, 98639, Note_on_c, 9, 38, 0
1, 98640, Note_on_c, 9, 69, 60
1, 98640, Note_on_c, 9, 42, 60
1, 98640, Note_on_c, 9, 36, 60
1, 98649, Note_on_c, 9, 42, 0
1, 98879, Note_on_c, 9, 69, 0
1, 98879, Note_on_c, 9, 36, 0
1, 98880, Note_on_c, 9, 54, 60
1, 98880, Note_on_c, 9, 69, 60
1, 98880, Note_on_c, 9, 42, 60
1, 98880, Note_on_c, 9, 36, 60
1, 98889, Note_on_c, 9, 42, 0
1, 99119, Note_on_c, 9, 54, 0
1, 99119, Note_on_c, 9, 69, 0
1, 99120, Note_on_c, 9, 42, 60
1, 99129, Note_on_c, 9, 42, 0
1, 99359, Note_on_c, 9, 36, 0
1, 99360, Note_on_c, 9, 38, 60
1, 99360, Note_on_c, 9, 42, 60
1, 99369, Note_on_c, 9, 42, 0
1, 99599, Note_on_c, 9, 38, 0
1, 99600, Note_on_c, 9, 42, 60
1, 99609, Note_on_c, 9, 42, 0
1, 99840, Note_on_c, 9, 54, 60
1, 99840, Note_on_c, 9, 69, 60
1, 99840, Note_on_c, 9, 42, 60
1, 99840, Note_on_c, 9, 36, 60
1, 99849, Note_on_c, 9, 42, 0
1, 100079, Note_on_c, 9, 54, 0
1, 100079, Note_on_c, 9, 69, 0
1, 100080, Note_on_c, 9, 42, 60
1, 100084, Note_on_c, 9, 42, 0
1, 100200, Note_on_c, 9, 42, 60
1, 100204, Note_on_c, 9, 42, 0
1, 100319, Note_on_c, 9, 36, 0
1, 100320, Note_on_c, 9, 38, 60
1, 100320, Note_on_c, 9, 42, 60
1, 100329, Note_on_c, 9, 42, 0
1, 100559, Note_on_c, 9, 38, 0
1, 100560, Note_on_c, 9, 69, 60
1, 100560, Note_on_c, 9, 42, 60
1, 100560, Note_on_c, 9, 36, 60
1, 100569, Note_on_c, 9, 42, 0
1, 100799, Note_on_c, 9, 69, 0
1, 100799, Note_on_c, 9, 36, 0
1, 100800, Note_on_c, 9, 54, 60
1, 100800, Note_on_c, 9, 69, 60
1, 100800, Note_on_c, 9, 42, 60
1, 100800, Note_on_c, 9, 36, 60
1, 100809, Note_on_c, 9, 42, 0
1, 101039, Note_on_c, 9, 54, 0
1, 101039, Note_on_c, 9, 69, 0
1, 101040, Note_on_c, 9, 42, 60
1, 101049, Note_on_c, 9, 42, 0
1, 101279, Note_on_c, 9, 36, 0
1, 101280, Note_on_c, 9, 38, 60
1, 101280, Note_on_c, 9, 42, 60
1, 101289, Note_on_c, 9, 42, 0
1, 101519, Note_on_c, 9, 38, 0
1, 101520, Note_on_c, 9, 42, 60
1, 101529, Note_on_c, 9, 42, 0
1, 101760, Note_on_c, 9, 56, 60
1, 101760, Note_on_c, 9, 69, 60
1, 101760, Note_on_c, 9, 42, 60
1, 101760, Note_on_c, 9, 36, 60
1, 101769, Note_on_c, 9, 42, 0
1, 101999, Note_on_c, 9, 56, 0
1, 101999, Note_on_c, 9, 69, 0
1, 102000, Note_on_c, 9, 42, 60
1, 102004, Note_on_c, 9, 42, 0
1, 102120, Note_on_c, 9, 42, 60
1, 102124, Note_on_c, 9, 42, 0
1, 102239, Note_on_c, 9, 36, 0
1, 102240, Note_on_c, 9, 38, 60
1, 102240, Note_on_c, 9, 42, 60
1, 102249, Note_on_c, 9, 42, 0
1, 102479, Note_on_c, 9, 38, 0
1, 102480, Note_on_c, 9, 56, 60
1, 102480, Note_on_c, 9, 69, 60
1, 102480, Note_on_c, 9, 42, 60
1, 102480, Note_on_c, 9, 36, 60
1, 102489, Note_on_c, 9, 42, 0
1, 102719, Note_on_c, 9, 56, 0
1, 102719, Note_on_c, 9, 69, 0
1, 102719, Note_on_c, 9, 36, 0
1, 102720, Note_on_c, 9, 56, 60
1, 102720, Note_on_c, 9, 69, 60
1, 102720, Note_on_c, 9, 42, 60
1, 102720, Note_on_c, 9, 42, 0
1, 102720, Note_on_c, 9, 57, 60
1, 102720, Note_on_c, 9, 57, 0
1, 102720, Note_on_c, 9, 36, 60
1, 102749, Note_on_c, 9, 56, 0
1, 102749, Note_on_c, 9, 69, 0
1, 102750, Note_on_c, 9, 57, 60
1, 102750, Note_on_c, 9, 57, 0
1, 102780, Note_on_c, 9, 57, 60
1, 102780, Note_on_c, 9, 57, 0
1, 102810, Note_on_c, 9, 57, 60
1, 102810, Note_on_c, 9, 57, 0
1, 102840, Note_on_c, 9, 57, 60
1, 102840, Note_on_c, 9, 57, 0
1, 102870, Note_on_c, 9, 57, 60
1, 102870, Note_on_c, 9, 57, 0
1, 102900, Note_on_c, 9, 57, 60
1, 102900, Note_on_c, 9, 57, 0
1, 102930, Note_on_c, 9, 57, 60
1, 102930, Note_on_c, 9, 57, 0
1, 102960, Note_on_c, 9, 42, 60
1, 102960, Note_on_c, 9, 42, 0
1, 102960, Note_on_c, 9, 57, 60
1, 102960, Note_on_c, 9, 57, 0
1, 102990, Note_on_c, 9, 57, 60
1, 102990, Note_on_c, 9, 57, 0
1, 103020, Note_on_c, 9, 57, 60
1, 103020, Note_on_c, 9, 57, 0
1, 103050, Note_on_c, 9, 57, 60
1, 103050, Note_on_c, 9, 57, 0
1, 103080, Note_on_c, 9, 57, 60
1, 103080, Note_on_c, 9, 57, 0
1, 103110, Note_on_c, 9, 57, 60
1, 103110, Note_on_c, 9, 57, 0
1, 103140, Note_on_c, 9, 57, 60
1, 103140, Note_on_c, 9, 57, 0
1, 103170, Note_on_c, 9, 57, 60
1, 103170, Note_on_c, 9, 57, 0
1, 103199, Note_on_c, 9, 36, 0
1, 103200, Note_on_c, 9, 38, 60
1, 103200, Note_on_c, 9, 42, 60
1, 103200, Note_on_c, 9, 42, 0
1, 103200, Note_on_c, 9, 57, 60
1, 103200, Note_on_c, 9, 57, 0
1, 103229, Note_on_c, 9, 38, 0
1, 103230, Note_on_c, 9, 57, 60
1, 103230, Note_on_c, 9, 57, 0
1, 103260, Note_on_c, 9, 57, 60
1, 103260, Note_on_c, 9, 57, 0
1, 103290, Note_on_c, 9, 57, 60
1, 103290, Note_on_c, 9, 57, 0
1, 103320, Note_on_c, 9, 57, 60
1, 103320, Note_on_c, 9, 57, 0
1, 103350, Note_on_c, 9, 57, 60
1, 103350, Note_on_c, 9, 57, 0
1, 103380, Note_on_c, 9, 57, 60
1, 103380, Note_on_c, 9, 57, 0
1, 103410, Note_on_c, 9, 57, 60
1, 103410, Note_on_c, 9, 57, 0
1, 103440, Note_on_c, 9, 42, 60
1, 103440, Note_on_c, 9, 42, 0
1, 103440, Note_on_c, 9, 57, 60
1, 103440, Note_on_c, 9, 57, 0
1, 103470, Note_on_c, 9, 57, 60
1, 103470, Note_on_c, 9, 57, 0
1, 103500, Note_on_c, 9, 57, 60
1, 103500, Note_on_c, 9, 57, 0
1, 103530, Note_on_c, 9, 57, 60
1, 103530, Note_on_c, 9, 57, 0
1, 103560, Note_on_c, 9, 57, 60
1, 103560, Note_on_c, 9, 57, 0
1, 103590, Note_on_c, 9, 57, 60
1, 103590, Note_on_c, 9, 57, 0
1, 103620, Note_on_c, 9, 57, 60
1, 103620, Note_on_c, 9, 57, 0
1, 103650, Note_on_c, 9, 57, 60
1, 103650, Note_on_c, 9, 57, 0
1, 103680, Note_on_c, 9, 69, 60
1, 103680, Note_on_c, 9, 42, 60
1, 103680, Note_on_c, 9, 36, 60
1, 103699, Note_on_c, 9, 42, 0
1, 104159, Note_on_c, 9, 69, 0
1, 104159, Note_on_c, 9, 36, 0
1, 105600, Note_on_c, 9, 56, 60
1, 105600, Note_on_c, 9, 69, 60
1, 105600, Note_on_c, 9, 42, 60
1, 105600, Note_on_c, 9, 36, 60
1, 105609, Note_on_c, 9, 42, 0
1, 105839, Note_on_c, 9, 56, 0
1, 105839, Note_on_c, 9, 69, 0
1, 105840, Note_on_c, 9, 42, 60
1, 105844, Note_on_c, 9, 42, 0
1, 105960, Note_on_c, 9, 42, 60
1, 105964, Note_on_c, 9, 42, 0
1, 106079, Note_on_c, 9, 36, 0
1, 106080, Note_on_c, 9, 38, 60
1, 106080, Note_on_c, 9, 42, 60
1, 106089, Note_on_c, 9, 42, 0
1, 106319, Note_on_c, 9, 38, 0
1, 106320, Note_on_c, 9, 56, 60
1, 106320, Note_on_c, 9, 69, 60
1, 106320, Note_on_c, 9, 42, 60
1, 106320, Note_on_c, 9, 36, 60
1, 106329, Note_on_c, 9, 42, 0
1, 106559, Note_on_c, 9, 56, 0
1, 106559, Note_on_c, 9, 69, 0
1, 106559, Note_on_c, 9, 36, 0
1, 106560, Note_on_c, 9, 56, 60
1, 106560, Note_on_c, 9, 69, 60
1, 106560, Note_on_c, 9, 42, 60
1, 106560, Note_on_c, 9, 36, 60
1, 106569, Note_on_c, 9, 42, 0
1, 106799, Note_on_c, 9, 56, 0
1, 106799, Note_on_c, 9, 69, 0
1, 106800, Note_on_c, 9, 42, 60
1, 106809, Note_on_c, 9, 42, 0
1, 107039, Note_on_c, 9, 36, 0
1, 107040, Note_on_c, 9, 38, 60
1, 107040, Note_on_c, 9, 42, 60
1, 107049, Note_on_c, 9, 42, 0
1, 107279, Note_on_c, 9, 38, 0
1, 107280, Note_on_c, 9, 42, 60
1, 107289, Note_on_c, 9, 42, 0
1, 107520, Note_on_c, 9, 56, 60
1, 107520, Note_on_c, 9, 69, 60
1, 107520, Note_on_c, 9, 42, 60
1, 107520, Note_on_c, 9, 36, 60
1, 107529, Note_on_c, 9, 42, 0
1, 107759, Note_on_c, 9, 56, 0
1, 107759, Note_on_c, 9, 69, 0
1, 107760, Note_on_c, 9, 42, 60
1, 107764, Note_on_c, 9, 42, 0
1, 107880, Note_on_c, 9, 42, 60
1, 107884, Note_on_c, 9, 42, 0
1, 107999, Note_on_c, 9, 36, 0
1, 108000, Note_on_c, 9, 38, 60
1, 108000, Note_on_c, 9, 42, 60
1, 108009, Note_on_c, 9, 42, 0
1, 108239, Note_on_c, 9, 38, 0
1, 108240, Note_on_c, 9, 56, 60
1, 108240, Note_on_c, 9, 69, 60
1, 108240, Note_on_c, 9, 42, 60
1, 108240, Note_on_c, 9, 36, 60
1, 108249, Note_on_c, 9, 42, 0
1, 108479, Note_on_c, 9, 56, 0
1, 108479, Note_on_c, 9, 69, 0
1, 108479, Note_on_c, 9, 36, 0
1, 108480, Note_on_c, 9, 56, 60
1, 108480, Note_on_c, 9, 69, 60
1, 108480, Note_on_c, 9, 42, 60
1, 108480, Note_on_c, 9, 36, 60
1, 108489, Note_on_c, 9, 42, 0
1, 108719, Note_on_c, 9, 56, 0
1, 108719, Note_on_c, 9, 69, 0
1, 108720, Note_on_c, 9, 42, 60
1, 108729, Note_on_c, 9, 42, 0
1, 108959, Note_on_c, 9, 36, 0
1, 108960, Note_on_c, 9, 38, 60
1, 108960, Note_on_c, 9, 42, 60
1, 108969, Note_on_c, 9, 42, 0
1, 109199, Note_on_c, 9, 38, 0
1, 109200, Note_on_c, 9, 42, 60
1, 109209, Note_on_c, 9, 42, 0
1, 109440, Note_on_c, 9, 56, 60
1, 109440, Note_on_c, 9, 69, 60
1, 109440, Note_on_c, 9, 42, 60
1, 109440, Note_on_c, 9, 36, 60
1, 109449, Note_on_c, 9, 42, 0
1, 109679, Note_on_c, 9, 56, 0
1, 109679, Note_on_c, 9, 69, 0
1, 109680, Note_on_c, 9, 42, 60
1, 109684, Note_on_c, 9, 42, 0
1, 109800, Note_on_c, 9, 42, 60
1, 109804, Note_on_c, 9, 42, 0
1, 109919, Note_on_c, 9, 36, 0
1, 109920, Note_on_c, 9, 38, 60
1, 109920, Note_on_c, 9, 42, 60
1, 109929, Note_on_c, 9, 42, 0
1, 110159, Note_on_c, 9, 38, 0
1, 110160, Note_on_c, 9, 56, 60
1, 110160, Note_on_c, 9, 69, 60
1, 110160, Note_on_c, 9, 42, 60
1, 110160, Note_on_c, 9, 36, 60
1, 110169, Note_on_c, 9, 42, 0
1, 110399, Note_on_c, 9, 56, 0
1, 110399, Note_on_c, 9, 69, 0
1, 110399, Note_on_c, 9, 36, 0
1, 110400, Note_on_c, 9, 56, 60
1, 110400, Note_on_c, 9, 69, 60
1, 110400, Note_on_c, 9, 42, 60
1, 110400, Note_on_c, 9, 36, 60
1, 110409, Note_on_c, 9, 42, 0
1, 110639, Note_on_c, 9, 56, 0
1, 110639, Note_on_c, 9, 69, 0
1, 110640, Note_on_c, 9, 42, 60
1, 110649, Note_on_c, 9, 42, 0
1, 110879, Note_on_c, 9, 36, 0
1, 110880, Note_on_c, 9, 38, 60
1, 110880, Note_on_c, 9, 42, 60
1, 110889, Note_on_c, 9, 42, 0
1, 111119, Note_on_c, 9, 38, 0
1, 111120, Note_on_c, 9, 42, 60
1, 111129, Note_on_c, 9, 42, 0
1, 111360, Note_on_c, 9, 56, 60
1, 111360, Note_on_c, 9, 69, 60
1, 111360, Note_on_c, 9, 42, 60
1, 111360, Note_on_c, 9, 36, 60
1, 111369, Note_on_c, 9, 42, 0
1, 111599, Note_on_c, 9, 56, 0
1, 111599, Note_on_c, 9, 69, 0
1, 111600, Note_on_c, 9, 42, 60
1, 111604, Note_on_c, 9, 42, 0
1, 111720, Note_on_c, 9, 42, 60
1, 111724, Note_on_c, 9, 42, 0
1, 111839, Note_on_c, 9, 36, 0
1, 111840, Note_on_c, 9, 38, 60
1, 111840, Note_on_c, 9, 42, 60
1, 111849, Note_on_c, 9, 42, 0
1, 112079, Note_on_c, 9, 38, 0
1, 112080, Note_on_c, 9, 56, 60
1, 112080, Note_on_c, 9, 69, 60
1, 112080, Note_on_c, 9, 42, 60
1, 112080, Note_on_c, 9, 36, 60
1, 112089, Note_on_c, 9, 42, 0
1, 112319, Note_on_c, 9, 56, 0
1, 112319, Note_on_c, 9, 69, 0
1, 112319, Note_on_c, 9, 36, 0
1, 112320, Note_on_c, 9, 56, 60
1, 112320, Note_on_c, 9, 69, 60
1, 112320, Note_on_c, 9, 42, 60
1, 112320, Note_on_c, 9, 36, 60
1, 112329, Note_on_c, 9, 42, 0
1, 112559, Note_on_c, 9, 56, 0
1, 112559, Note_on_c, 9, 69, 0
1, 112560, Note_on_c, 9, 42, 60
1, 112569, Note_on_c, 9, 42, 0
1, 112799, Note_on_c, 9, 36, 0
1, 112800, Note_on_c, 9, 38, 60
1, 112800, Note_on_c, 9, 42, 60
1, 112809, Note_on_c, 9, 42, 0
1, 113039, Note_on_c, 9, 38, 0
1, 113040, Note_on_c, 9, 42, 60
1, 113049, Note_on_c, 9, 42, 0
1, 113280, Note_on_c, 9, 56, 60
1, 113280, Note_on_c, 9, 69, 60
1, 113280, Note_on_c, 9, 42, 60
1, 113280, Note_on_c, 9, 36, 60
1, 113289, Note_on_c, 9, 42, 0
1, 113519, Note_on_c, 9, 56, 0
1, 113519, Note_on_c, 9, 69, 0
1, 113520, Note_on_c, 9, 42, 60
1, 113524, Note_on_c, 9, 42, 0
1, 113640, Note_on_c, 9, 42, 60
1, 113644, Note_on_c, 9, 42, 0
1, 113759, Note_on_c, 9, 36, 0
1, 113760, Note_on_c, 9, 38, 60
1, 113760, Note_on_c, 9, 42, 60
1, 113769, Note_on_c, 9, 42, 0
1, 113999, Note_on_c, 9, 38, 0
1, 114000, Note_on_c, 9, 56, 60
1, 114000, Note_on_c, 9, 69, 60
1, 114000, Note_on_c, 9, 42, 60
1, 114000, Note_on_c, 9, 36, 60
1, 114009, Note_on_c, 9, 42, 0
1, 114239, Note_on_c, 9, 56, 0
1, 114239, Note_on_c, 9, 69, 0
1, 114239, Note_on_c, 9, 36, 0
1, 114240, Note_on_c, 9, 56, 60
1, 114240, Note_on_c, 9, 69, 60
1, 114240, Note_on_c, 9, 42, 60
1, 114240, Note_on_c, 9, 36, 60
1, 114249, Note_on_c, 9, 42, 0
1, 114479, Note_on_c, 9, 56, 0
1, 114479, Note_on_c, 9, 69, 0
1, 114480, Note_on_c, 9, 42, 60
1, 114489, Note_on_c, 9, 42, 0
1, 114719, Note_on_c, 9, 36, 0
1, 114720, Note_on_c, 9, 38, 60
1, 114720, Note_on_c, 9, 42, 60
1, 114729, Note_on_c, 9, 42, 0
1, 114959, Note_on_c, 9, 38, 0
1, 114960, Note_on_c, 9, 42, 60
1, 114969, Note_on_c, 9, 42, 0
1, 115200, Note_on_c, 9, 56, 60
1, 115200, Note_on_c, 9, 69, 60
1, 115200, Note_on_c, 9, 42, 60
1, 115200, Note_on_c, 9, 36, 60
1, 115209, Note_on_c, 9, 42, 0
1, 115439, Note_on_c, 9, 56, 0
1, 115439, Note_on_c, 9, 69, 0
1, 115440, Note_on_c, 9, 42, 60
1, 115444, Note_on_c, 9, 42, 0
1, 115560, Note_on_c, 9, 42, 60
1, 115564, Note_on_c, 9, 42, 0
1, 115679, Note_on_c, 9, 36, 0
1, 115680, Note_on_c, 9, 38, 60
1, 115680, Note_on_c, 9, 42, 60
1, 115689, Note_on_c, 9, 42, 0
1, 115919, Note_on_c, 9, 38, 0
1, 115920, Note_on_c, 9, 56, 60
1, 115920, Note_on_c, 9, 69, 60
1, 115920, Note_on_c, 9, 42, 60
1, 115920, Note_on_c, 9, 36, 60
1, 115929, Note_on_c, 9, 42, 0
1, 116159, Note_on_c, 9, 56, 0
1, 116159, Note_on_c, 9, 69, 0
1, 116159, Note_on_c, 9, 36, 0
1, 116160, Note_on_c, 9, 56, 60
1, 116160, Note_on_c, 9, 69, 60
1, 116160, Note_on_c, 9, 42, 60
1, 116160, Note_on_c, 9, 36, 60
1, 116169, Note_on_c, 9, 42, 0
1, 116399, Note_on_c, 9, 56, 0
1, 116399, Note_on_c, 9, 69, 0
1, 116400, Note_on_c, 9, 42, 60
1, 116409, Note_on_c, 9, 42, 0
1, 116639, Note_on_c, 9, 36, 0
1, 116640, Note_on_c, 9, 38, 60
1, 116640, Note_on_c, 9, 42, 60
1, 116649, Note_on_c, 9, 42, 0
1, 116879, Note_on_c, 9, 38, 0
1, 116880, Note_on_c, 9, 42, 60
1, 116889, Note_on_c, 9, 42, 0
1, 117120, Note_on_c, 9, 56, 60
1, 117120, Note_on_c, 9, 69, 60
1, 117120, Note_on_c, 9, 42, 60
1, 117120, Note_on_c, 9, 36, 60
1, 117129, Note_on_c, 9, 42, 0
1, 117359, Note_on_c, 9, 56, 0
1, 117359, Note_on_c, 9, 69, 0
1, 117360, Note_on_c, 9, 42, 60
1, 117364, Note_on_c, 9, 42, 0
1, 117480, Note_on_c, 9, 42, 60
1, 117484, Note_on_c, 9, 42, 0
1, 117599, Note_on_c, 9, 36, 0
1, 117600, Note_on_c, 9, 38, 60
1, 117600, Note_on_c, 9, 42, 60
1, 117609, Note_on_c, 9, 42, 0
1, 117839, Note_on_c, 9, 38, 0
1, 117840, Note_on_c, 9, 56, 60
1, 117840, Note_on_c, 9, 69, 60
1, 117840, Note_on_c, 9, 42, 60
1, 117840, Note_on_c, 9, 36, 60
1, 117849, Note_on_c, 9, 42, 0
1, 118079, Note_on_c, 9, 56, 0
1, 118079, Note_on_c, 9, 69, 0
1, 118079, Note_on_c, 9, 36, 0
1, 118080, Note_on_c, 9, 56, 60
1, 118080, Note_on_c, 9, 69, 60
1, 118080, Note_on_c, 9, 42, 60
1, 118080, Note_on_c, 9, 36, 60
1, 118089, Note_on_c, 9, 42, 0
1, 118319, Note_on_c, 9, 56, 0
1, 118319, Note_on_c, 9, 69, 0
1, 118320, Note_on_c, 9, 42, 60
1, 118329, Note_on_c, 9, 42, 0
1, 118559, Note_on_c, 9, 36, 0
1, 118560, Note_on_c, 9, 38, 60
1, 118560, Note_on_c, 9, 42, 60
1, 118569, Note_on_c, 9, 42, 0
1, 118799, Note_on_c, 9, 38, 0
1, 118800, Note_on_c, 9, 42, 60
1, 118809, Note_on_c, 9, 42, 0
1, 119040, Note_on_c, 9, 56, 60
1, 119040, Note_on_c, 9, 69, 60
1, 119040, Note_on_c, 9, 42, 60
1, 119040, Note_on_c, 9, 36, 60
1, 119049, Note_on_c, 9, 42, 0
1, 119279, Note_on_c, 9, 56, 0
1, 119279, Note_on_c, 9, 69, 0
1, 119280, Note_on_c, 9, 42, 60
1, 119284, Note_on_c, 9, 42, 0
1, 119400, Note_on_c, 9, 42, 60
1, 119404, Note_on_c, 9, 42, 0
1, 119519, Note_on_c, 9, 36, 0
1, 119520, Note_on_c, 9, 38, 60
1, 119520, Note_on_c, 9, 42, 60
1, 119529, Note_on_c, 9, 42, 0
1, 119759, Note_on_c, 9, 38, 0
1, 119760, Note_on_c, 9, 56, 60
1, 119760, Note_on_c, 9, 69, 60
1, 119760, Note_on_c, 9, 42, 60
1, 119760, Note_on_c, 9, 36, 60
1, 119769, Note_on_c, 9, 42, 0
1, 119999, Note_on_c, 9, 56, 0
1, 119999, Note_on_c, 9, 69, 0
1, 119999, Note_on_c, 9, 36, 0
1, 120000, Note_on_c, 9, 56, 60
1, 120000, Note_on_c, 9, 69, 60
1, 120000, Note_on_c, 9, 42, 60
1, 120000, Note_on_c, 9, 36, 60
1, 120009, Note_on_c, 9, 42, 0
1, 120239, Note_on_c, 9, 56, 0
1, 120239, Note_on_c, 9, 69, 0
1, 120240, Note_on_c, 9, 42, 60
1, 120249, Note_on_c, 9, 42, 0
1, 120479, Note_on_c, 9, 36, 0
1, 120480, Note_on_c, 9, 38, 60
1, 120480, Note_on_c, 9, 42, 60
1, 120489, Note_on_c, 9, 42, 0
1, 120719, Note_on_c, 9, 38, 0
1, 120720, Note_on_c, 9, 42, 60
1, 120720, Note_on_c, 9, 42, 0
1, 120720, Note_on_c, 9, 57, 60
1, 120720, Note_on_c, 9, 57, 0
1, 120750, Note_on_c, 9, 57, 60
1, 120750, Note_on_c, 9, 57, 0
1, 120780, Note_on_c, 9, 57, 60
1, 120780, Note_on_c, 9, 57, 0
1, 120810, Note_on_c, 9, 57, 60
1, 120810, Note_on_c, 9, 57, 0
1, 120840, Note_on_c, 9, 57, 60
1, 120840, Note_on_c, 9, 57, 0
1, 120870, Note_on_c, 9, 57, 60
1, 120870, Note_on_c, 9, 57, 0
1, 120900, Note_on_c, 9, 57, 60
1, 120900, Note_on_c, 9, 57, 0
1, 120930, Note_on_c, 9, 57, 60
1, 120930, Note_on_c, 9, 57, 0
1, 120960, Note_on_c, 9, 69, 60
1, 120960, Note_on_c, 9, 42, 60
1, 120960, Note_on_c, 9, 36, 60
1, 120969, Note_on_c, 9, 42, 0
1, 121199, Note_on_c, 9, 69, 0
1, 121200, Note_on_c, 9, 42, 60
1, 121204, Note_on_c, 9, 42, 0
1, 121320, Note_on_c, 9, 42, 60
1, 121324, Note_on_c, 9, 42, 0
1, 121439, Note_on_c, 9, 36, 0
1, 121440, Note_on_c, 9, 38, 60
1, 121440, Note_on_c, 9, 45, 60
1, 121440, Note_on_c, 9, 42, 60
1, 121449, Note_on_c, 9, 42, 0
1, 121679, Note_on_c, 9, 38, 0
1, 121679, Note_on_c, 9, 45, 0
1, 121680, Note_on_c, 9, 69, 60
1, 121680, Note_on_c, 9, 42, 60
1, 121680, Note_on_c, 9, 36, 60
1, 121689, Note_on_c, 9, 42, 0
1, 121919, Note_on_c, 9, 69, 0
1, 121919, Note_on_c, 9, 36, 0
1, 121920, Note_on_c, 9, 69, 60
1, 121920, Note_on_c, 9, 42, 60
1, 121920, Note_on_c, 9, 36, 60
1, 121929, Note_on_c, 9, 42, 0
1, 122159, Note_on_c, 9, 69, 0
1, 122160, Note_on_c, 9, 42, 60
1, 122169, Note_on_c, 9, 42, 0
1, 122399, Note_on_c, 9, 36, 0
1, 122400, Note_on_c, 9, 38, 60
1, 122400, Note_on_c, 9, 45, 60
1, 122400, Note_on_c, 9, 42, 60
1, 122409, Note_on_c, 9, 42, 0
1, 122639, Note_on_c, 9, 38, 0
1, 122639, Note_on_c, 9, 45, 0
1, 122640, Note_on_c, 9, 42, 60
1, 122649, Note_on_c, 9, 42, 0
1, 122880, Note_on_c, 9, 69, 60
1, 122880, Note_on_c, 9, 42, 60
1, 122880, Note_on_c, 9, 36, 60
1, 122889, Note_on_c, 9, 42, 0
1, 123119, Note_on_c, 9, 69, 0
1, 123120, Note_on_c, 9, 42, 60
1, 123124, Note_on_c, 9, 42, 0
1, 123240, Note_on_c, 9, 42, 60
1, 123244, Note_on_c, 9, 42, 0
1, 123359, Note_on_c, 9, 36, 0
1, 123360, Note_on_c, 9, 38, 60
1, 123360, Note_on_c, 9, 45, 60
1, 123360, Note_on_c, 9, 42, 60
1, 123369, Note_on_c, 9, 42, 0
1, 123599, Note_on_c, 9, 38, 0
1, 123599, Note_on_c, 9, 45, 0
1, 123600, Note_on_c, 9, 69, 60
1, 123600, Note_on_c, 9, 42, 60
1, 123600, Note_on_c, 9, 36, 60
1, 123609, Note_on_c, 9, 42, 0
1, 123839, Note_on_c, 9, 69, 0
1, 123839, Note_on_c, 9, 36, 0
1, 123840, Note_on_c, 9, 69, 60
1, 123840, Note_on_c, 9, 42, 60
1, 123840, Note_on_c, 9, 36, 60
1, 123849, Note_on_c, 9, 42, 0
1, 124079, Note_on_c, 9, 69, 0
1, 124080, Note_on_c, 9, 42, 60
1, 124089, Note_on_c, 9, 42, 0
1, 124319, Note_on_c, 9, 36, 0
1, 124320, Note_on_c, 9, 38, 60
1, 124320, Note_on_c, 9, 45, 60
1, 124320, Note_on_c, 9, 42, 60
1, 124329, Note_on_c, 9, 42, 0
1, 124559, Note_on_c, 9, 38, 0
1, 124559, Note_on_c, 9, 45, 0
1, 124560, Note_on_c, 9, 42, 60
1, 124569, Note_on_c, 9, 42, 0
1, 124800, Note_on_c, 9, 56, 60
1, 124800, Note_on_c, 9, 69, 60
1, 124800, Note_on_c, 9, 42, 60
1, 124800, Note_on_c, 9, 36, 60
1, 124809, Note_on_c, 9, 42, 0
1, 125039, Note_on_c, 9, 56, 0
1, 125039, Note_on_c, 9, 69, 0
1, 125040, Note_on_c, 9, 42, 60
1, 125044, Note_on_c, 9, 42, 0
1, 125160, Note_on_c, 9, 42, 60
1, 125164, Note_on_c, 9, 42, 0
1, 125279, Note_on_c, 9, 36, 0
1, 125280, Note_on_c, 9, 38, 60
1, 125280, Note_on_c, 9, 42, 60
1, 125289, Note_on_c, 9, 42, 0
1, 125519, Note_on_c, 9, 38, 0
1, 125520, Note_on_c, 9, 56, 60
1, 125520, Note_on_c, 9, 69, 60
1, 125520, Note_on_c, 9, 42, 60
1, 125520, Note_on_c, 9, 36, 60
1, 125529, Note_on_c, 9, 42, 0
1, 125759, Note_on_c, 9, 56, 0
1, 125759, Note_on_c, 9, 69, 0
1, 125759, Note_on_c, 9, 36, 0
1, 125760, Note_on_c, 9, 56, 60
1, 125760, Note_on_c, 9, 69, 60
1, 125760, Note_on_c, 9, 42, 60
1, 125760, Note_on_c, 9, 36, 60
1, 125769, Note_on_c, 9, 42, 0
1, 125999, Note_on_c, 9, 56, 0
1, 125999, Note_on_c, 9, 69, 0
1, 126000, Note_on_c, 9, 42, 60
1, 126009, Note_on_c, 9, 42, 0
1, 126239, Note_on_c, 9, 36, 0
1, 126240, Note_on_c, 9, 38, 60
1, 126240, Note_on_c, 9, 42, 60
1, 126249, Note_on_c, 9, 42, 0
1, 126479, Note_on_c, 9, 38, 0
1, 126480, Note_on_c, 9, 42, 60
1, 126489, Note_on_c, 9, 42, 0
1, 126720, Note_on_c, 9, 56, 60
1, 126720, Note_on_c, 9, 69, 60
1, 126720, Note_on_c, 9, 42, 60
1, 126720, Note_on_c, 9, 36, 60
1, 126729, Note_on_c, 9, 42, 0
1, 126959, Note_on_c, 9, 56, 0
1, 126959, Note_on_c, 9, 69, 0
1, 126960, Note_on_c, 9, 42, 60
1, 126964, Note_on_c, 9, 42, 0
1, 127080, Note_on_c, 9, 42, 60
1, 127084, Note_on_c, 9, 42, 0
1, 127199, Note_on_c, 9, 36, 0
1, 127200, Note_on_c, 9, 38, 60
1, 127200, Note_on_c, 9, 42, 60
1, 127209, Note_on_c, 9, 42, 0
1, 127439, Note_on_c, 9, 38, 0
1, 127440, Note_on_c, 9, 56, 60
1, 127440, Note_on_c, 9, 69, 60
1, 127440, Note_on_c, 9, 42, 60
1, 127440, Note_on_c, 9, 36, 60
1, 127449, Note_on_c, 9, 42, 0
1, 127679, Note_on_c, 9, 56, 0
1, 127679, Note_on_c, 9, 69, 0
1, 127679, Note_on_c, 9, 36, 0
1, 127680, Note_on_c, 9, 56, 60
1, 127680, Note_on_c, 9, 69, 60
1, 127680, Note_on_c, 9, 42, 60
1, 127680, Note_on_c, 9, 36, 60
1, 127689, Note_on_c, 9, 42, 0
1, 127919, Note_on_c, 9, 56, 0
1, 127919, Note_on_c, 9, 69, 0
1, 127920, Note_on_c, 9, 42, 60
1, 127929, Note_on_c, 9, 42, 0
1, 128159, Note_on_c, 9, 36, 0
1, 128160, Note_on_c, 9, 38, 60
1, 128160, Note_on_c, 9, 42, 60
1, 128169, Note_on_c, 9, 42, 0
1, 128399, Note_on_c, 9, 38, 0
1, 128400, Note_on_c, 9, 42, 60
1, 128409, Note_on_c, 9, 42, 0
1, 128640, Note_on_c, 9, 69, 60
1, 128640, Note_on_c, 9, 42, 60
1, 128640, Note_on_c, 9, 36, 60
1, 128649, Note_on_c, 9, 42, 0
1, 128879, Note_on_c, 9, 69, 0
1, 128880, Note_on_c, 9, 42, 60
1, 128884, Note_on_c, 9, 42, 0
1, 129000, Note_on_c, 9, 42, 60
1, 129004, Note_on_c, 9, 42, 0
1, 129119, Note_on_c, 9, 36, 0
1, 129120, Note_on_c, 9, 38, 60
1, 129120, Note_on_c, 9, 45, 60
1, 129120, Note_on_c, 9, 42, 60
1, 129129, Note_on_c, 9, 42, 0
1, 129359, Note_on_c, 9, 38, 0
1, 129359, Note_on_c, 9, 45, 0
1, 129360, Note_on_c, 9, 69, 60
1, 129360, Note_on_c, 9, 42, 60
1, 129360, Note_on_c, 9, 36, 60
1, 129369, Note_on_c, 9, 42, 0
1, 129599, Note_on_c, 9, 69, 0
1, 129599, Note_on_c, 9, 36, 0
1, 129600, Note_on_c, 9, 69, 60
1, 129600, Note_on_c, 9, 42, 60
1, 129600, Note_on_c, 9, 36, 60
1, 129609, Note_on_c, 9, 42, 0
1, 129839, Note_on_c, 9, 69, 0
1, 129840, Note_on_c, 9, 42, 60
1, 129849, Note_on_c, 9, 42, 0
1, 130079, Note_on_c, 9, 36, 0
1, 130080, Note_on_c, 9, 38, 60
1, 130080, Note_on_c, 9, 45, 60
1, 130080, Note_on_c, 9, 42, 60
1, 130089, Note_on_c, 9, 42, 0
1, 130319, Note_on_c, 9, 38, 0
1, 130319, Note_on_c, 9, 45, 0
1, 130320, Note_on_c, 9, 42, 60
1, 130329, Note_on_c, 9, 42, 0
1, 130560, Note_on_c, 9, 69, 60
1, 130560, Note_on_c, 9, 42, 60
1, 130560, Note_on_c, 9, 36, 60
1, 130569, Note_on_c, 9, 42, 0
1, 130799, Note_on_c, 9, 69, 0
1, 130800, Note_on_c, 9, 42, 60
1, 130804, Note_on_c, 9, 42, 0
1, 130920, Note_on_c, 9, 42, 60
1, 130924, Note_on_c, 9, 42, 0
1, 131039, Note_on_c, 9, 36, 0
1, 131040, Note_on_c, 9, 38, 60
1, 131040, Note_on_c, 9, 45, 60
1, 131040, Note_on_c, 9, 42, 60
1, 131049, Note_on_c, 9, 42, 0
1, 131279, Note_on_c, 9, 38, 0
1, 131279, Note_on_c, 9, 45, 0
1, 131280, Note_on_c, 9, 69, 60
1, 131280, Note_on_c, 9, 42, 60
1, 131280, Note_on_c, 9, 36, 60
1, 131289, Note_on_c, 9, 42, 0
1, 131519, Note_on_c, 9, 69, 0
1, 131519, Note_on_c, 9, 36, 0
1, 131520, Note_on_c, 9, 69, 60
1, 131520, Note_on_c, 9, 42, 60
1, 131520, Note_on_c, 9, 36, 60
1, 131529, Note_on_c, 9, 42, 0
1, 131759, Note_on_c, 9, 69, 0
1, 131760, Note_on_c, 9, 42, 60
1, 131769, Note_on_c, 9, 42, 0
1, 131999, Note_on_c, 9, 36, 0
1, 132000, Note_on_c, 9, 38, 60
1, 132000, Note_on_c, 9, 45, 60
1, 132000, Note_on_c, 9, 42, 60
1, 132009, Note_on_c, 9, 42, 0
1, 132239, Note_on_c, 9, 38, 0
1, 132239, Note_on_c, 9, 45, 0
1, 132240, Note_on_c, 9, 42, 60
1, 132249, Note_on_c, 9, 42, 0
1, 132480, Note_on_c, 9, 56, 60
1, 132480, Note_on_c, 9, 69, 60
1, 132480, Note_on_c, 9, 42, 60
1, 132480, Note_on_c, 9, 36, 60
1, 132489, Note_on_c, 9, 42, 0
1, 132719, Note_on_c, 9, 56, 0
1, 132719, Note_on_c, 9, 69, 0
1, 132720, Note_on_c, 9, 42, 60
1, 132724, Note_on_c, 9, 42, 0
1, 132840, Note_on_c, 9, 42, 60
1, 132844, Note_on_c, 9, 42, 0
1, 132959, Note_on_c, 9, 36, 0
1, 132960, Note_on_c, 9, 38, 60
1, 132960, Note_on_c, 9, 42, 60
1, 132969, Note_on_c, 9, 42, 0
1, 133199, Note_on_c, 9, 38, 0
1, 133200, Note_on_c, 9, 56, 60
1, 133200, Note_on_c, 9, 69, 60
1, 133200, Note_on_c, 9, 42, 60
1, 133200, Note_on_c, 9, 36, 60
1, 133209, Note_on_c, 9, 42, 0
1, 133439, Note_on_c, 9, 56, 0
1, 133439, Note_on_c, 9, 69, 0
1, 133439, Note_on_c, 9, 36, 0
1, 133440, Note_on_c, 9, 56, 60
1, 133440, Note_on_c, 9, 69, 60
1, 133440, Note_on_c, 9, 42, 60
1, 133440, Note_on_c, 9, 36, 60
1, 133449, Note_on_c, 9, 42, 0
1, 133679, Note_on_c, 9, 56, 0
1, 133679, Note_on_c, 9, 69, 0
1, 133680, Note_on_c, 9, 42, 60
1, 133689, Note_on_c, 9, 42, 0
1, 133919, Note_on_c, 9, 36, 0
1, 133920, Note_on_c, 9, 38, 60
1, 133920, Note_on_c, 9, 42, 60
1, 133929, Note_on_c, 9, 42, 0
1, 134159, Note_on_c, 9, 38, 0
1, 134160, Note_on_c, 9, 42, 60
1, 134169, Note_on_c, 9, 42, 0
1, 134400, Note_on_c, 9, 56, 60
1, 134400, Note_on_c, 9, 69, 60
1, 134400, Note_on_c, 9, 42, 60
1, 134400, Note_on_c, 9, 36, 60
1, 134419, Note_on_c, 9, 42, 0
1, 134879, Note_on_c, 9, 56, 0
1, 134879, Note_on_c, 9, 69, 0
1, 134879, Note_on_c, 9, 36, 0
1, 136320, Note_on_c, 9, 56, 60
1, 136320, Note_on_c, 9, 69, 60
1, 136320, Note_on_c, 9, 42, 60
1, 136320, Note_on_c, 9, 36, 60
1, 136329, Note_on_c, 9, 42, 0
1, 136559, Note_on_c, 9, 56, 0
1, 136559, Note_on_c, 9, 69, 0
1, 136560, Note_on_c, 9, 42, 60
1, 136564, Note_on_c, 9, 42, 0
1, 136680, Note_on_c, 9, 42, 60
1, 136684, Note_on_c, 9, 42, 0
1, 136799, Note_on_c, 9, 36, 0
1, 136800, Note_on_c, 9, 38, 60
1, 136800, Note_on_c, 9, 42, 60
1, 136809, Note_on_c, 9, 42, 0
1, 137039, Note_on_c, 9, 38, 0
1, 137040, Note_on_c, 9, 56, 60
1, 137040, Note_on_c, 9, 69, 60
1, 137040, Note_on_c, 9, 42, 60
1, 137040, Note_on_c, 9, 36, 60
1, 137049, Note_on_c, 9, 42, 0
1, 137279, Note_on_c, 9, 56, 0
1, 137279, Note_on_c, 9, 69, 0
1, 137279, Note_on_c, 9, 36, 0
1, 137280, Note_on_c, 9, 56, 60
1, 137280, Note_on_c, 9, 69, 60
1, 137280, Note_on_c, 9, 42, 60
1, 137280, Note_on_c, 9, 36, 60
1, 137289, Note_on_c, 9, 42, 0
1, 137519, Note_on_c, 9, 56, 0
1, 137519, Note_on_c, 9, 69, 0
1, 137520, Note_on_c, 9, 42, 60
1, 137529, Note_on_c, 9, 42, 0
1, 137759, Note_on_c, 9, 36, 0
1, 137760, Note_on_c, 9, 38, 60
1, 137760, Note_on_c, 9, 42, 60
1, 137769, Note_on_c, 9, 42, 0
1, 137999, Note_on_c, 9, 38, 0
1, 138000, Note_on_c, 9, 42, 60
1, 138009, Note_on_c, 9, 42, 0
1, 138240, Note_on_c, 9, 56, 60
1, 138240, Note_on_c, 9, 69, 60
1, 138240, Note_on_c, 9, 42, 60
1, 138240, Note_on_c, 9, 36, 60
1, 138249, Note_on_c, 9, 42, 0
1, 138479, Note_on_c, 9, 56, 0
1, 138479, Note_on_c, 9, 69, 0
1, 138480, Note_on_c, 9, 42, 60
1, 138484, Note_on_c, 9, 42, 0
1, 138600, Note_on_c, 9, 42, 60
1, 138604, Note_on_c, 9, 42, 0
1, 138719, Note_on_c, 9, 36, 0
1, 138720, Note_on_c, 9, 38, 60
1, 138720, Note_on_c, 9, 42, 60
1, 138729, Note_on_c, 9, 42, 0
1, 138959, Note_on_c, 9, 38, 0
1, 138960, Note_on_c, 9, 56, 60
1, 138960, Note_on_c, 9, 69, 60
1, 138960, Note_on_c, 9, 42, 60
1, 138960, Note_on_c, 9, 36, 60
1, 138969, Note_on_c, 9, 42, 0
1, 139199, Note_on_c, 9, 56, 0
1, 139199, Note_on_c, 9, 69, 0
1, 139199, Note_on_c, 9, 36, 0
1, 139200, Note_on_c, 9, 56, 60
1, 139200, Note_on_c, 9, 69, 60
1, 139200, Note_on_c, 9, 42, 60
1, 139200, Note_on_c, 9, 36, 60
1, 139209, Note_on_c, 9, 42, 0
1, 139439, Note_on_c, 9, 56, 0
1, 139439, Note_on_c, 9, 69, 0
1, 139440, Note_on_c, 9, 42, 60
1, 139449, Note_on_c, 9, 42, 0
1, 139679, Note_on_c, 9, 36, 0
1, 139680, Note_on_c, 9, 38, 60
1, 139680, Note_on_c, 9, 42, 60
1, 139689, Note_on_c, 9, 42, 0
1, 139919, Note_on_c, 9, 38, 0
1, 139920, Note_on_c, 9, 42, 60
1, 139929, Note_on_c, 9, 42, 0
1, 140160, Note_on_c, 9, 56, 60
1, 140160, Note_on_c, 9, 69, 60
1, 140160, Note_on_c, 9, 42, 60
1, 140160, Note_on_c, 9, 36, 60
1, 140169, Note_on_c, 9, 42, 0
1, 140399, Note_on_c, 9, 56, 0
1, 140399, Note_on_c, 9, 69, 0
1, 140400, Note_on_c, 9, 42, 60
1, 140404, Note_on_c, 9, 42, 0
1, 140520, Note_on_c, 9, 42, 60
1, 140524, Note_on_c, 9, 42, 0
1, 140639, Note_on_c, 9, 36, 0
1, 140640, Note_on_c, 9, 38, 60
1, 140640, Note_on_c, 9, 42, 60
1, 140649, Note_on_c, 9, 42, 0
1, 140879, Note_on_c, 9, 38, 0
1, 140880, Note_on_c, 9, 56, 60
1, 140880, Note_on_c, 9, 69, 60
1, 140880, Note_on_c, 9, 42, 60
1, 140880, Note_on_c, 9, 36, 60
1, 140889, Note_on_c, 9, 42, 0
1, 141119, Note_on_c, 9, 56, 0
1, 141119, Note_on_c, 9, 69, 0
1, 141119, Note_on_c, 9, 36, 0
1, 141120, Note_on_c, 9, 56, 60
1, 141120, Note_on_c, 9, 69, 60
1, 141120, Note_on_c, 9, 42, 60
1, 141120, Note_on_c, 9, 36, 60
1, 141129, Note_on_c, 9, 42, 0
1, 141359, Note_on_c, 9, 56, 0
1, 141359, Note_on_c, 9, 69, 0
1, 141360, Note_on_c, 9, 42, 60
1, 141369, Note_on_c, 9, 42, 0
1, 141599, Note_on_c, 9, 36, 0
1, 141600, Note_on_c, 9, 38, 60
1, 141600, Note_on_c, 9, 42, 60
1, 141609, Note_on_c, 9, 42, 0
1, 141839, Note_on_c, 9, 38, 0
1, 141840, Note_on_c, 9, 42, 60
1, 141849, Note_on_c, 9, 42, 0
1, 142080, Note_on_c, 9, 56, 60
1, 142080, Note_on_c, 9, 69, 60
1, 142080, Note_on_c, 9, 42, 60
1, 142080, Note_on_c, 9, 36, 60
1, 142089, Note_on_c, 9, 42, 0
1, 142319, Note_on_c, 9, 56, 0
1, 142319, Note_on_c, 9, 69, 0
1, 142320, Note_on_c, 9, 42, 60
1, 142324, Note_on_c, 9, 42, 0
1, 142440, Note_on_c, 9, 42, 60
1, 142444, Note_on_c, 9, 42, 0
1, 142559, Note_on_c, 9, 36, 0
1, 142560, Note_on_c, 9, 38, 60
1, 142560, Note_on_c, 9, 42, 60
1, 142569, Note_on_c, 9, 42, 0
1, 142799, Note_on_c, 9, 38, 0
1, 142800, Note_on_c, 9, 56, 60
1, 142800, Note_on_c, 9, 69, 60
1, 142800, Note_on_c, 9, 42, 60
1, 142800, Note_on_c, 9, 36, 60
1, 142809, Note_on_c, 9, 42, 0
1, 143039, Note_on_c, 9, 56, 0
1, 143039, Note_on_c, 9, 69, 0
1, 143039, Note_on_c, 9, 36, 0
1, 143040, Note_on_c, 9, 56, 60
1, 143040, Note_on_c, 9, 69, 60
1, 143040, Note_on_c, 9, 42, 60
1, 143040, Note_on_c, 9, 36, 60
1, 143049, Note_on_c, 9, 42, 0
1, 143279, Note_on_c, 9, 56, 0
1, 143279, Note_on_c, 9, 69, 0
1, 143280, Note_on_c, 9, 42, 60
1, 143289, Note_on_c, 9, 42, 0
1, 143519, Note_on_c, 9, 36, 0
1, 143520, Note_on_c, 9, 38, 60
1, 143520, Note_on_c, 9, 42, 60
1, 143529, Note_on_c, 9, 42, 0
1, 143759, Note_on_c, 9, 38, 0
1, 143760, Note_on_c, 9, 42, 60
1, 143769, Note_on_c, 9, 42, 0
1, 144000, Note_on_c, 9, 56, 60
1, 144000, Note_on_c, 9, 69, 60
1, 144000, Note_on_c, 9, 42, 60
1, 144000, Note_on_c, 9, 36, 60
1, 144009, Note_on_c, 9, 42, 0
1, 144239, Note_on_c, 9, 56, 0
1, 144239, Note_on_c, 9, 69, 0
1, 144240, Note_on_c, 9, 42, 60
1, 144244, Note_on_c, 9, 42, 0
1, 144360, Note_on_c, 9, 42, 60
1, 144364, Note_on_c, 9, 42, 0
1, 144479, Note_on_c, 9, 36, 0
1, 144480, Note_on_c, 9, 38, 60
1, 144480, Note_on_c, 9, 42, 60
1, 144489, Note_on_c, 9, 42, 0
1, 144719, Note_on_c, 9, 38, 0
1, 144720, Note_on_c, 9, 56, 60
1, 144720, Note_on_c, 9, 69, 60
1, 144720, Note_on_c, 9, 42, 60
1, 144720, Note_on_c, 9, 36, 60
1, 144729, Note_on_c, 9, 42, 0
1, 144959, Note_on_c, 9, 56, 0
1, 144959, Note_on_c, 9, 69, 0
1, 144959, Note_on_c, 9, 36, 0
1, 144960, Note_on_c, 9, 56, 60
1, 144960, Note_on_c, 9, 69, 60
1, 144960, Note_on_c, 9, 42, 60
1, 144960, Note_on_c, 9, 36, 60
1, 144969, Note_on_c, 9, 42, 0
1, 145199, Note_on_c, 9, 56, 0
1, 145199, Note_on_c, 9, 69, 0
1, 145200, Note_on_c, 9, 42, 60
1, 145209, Note_on_c, 9, 42, 0
1, 145439, Note_on_c, 9, 36, 0
1, 145440, Note_on_c, 9, 38, 60
1, 145440, Note_on_c, 9, 42, 60
1, 145449, Note_on_c, 9, 42, 0
1, 145679, Note_on_c, 9, 38, 0
1, 145680, Note_on_c, 9, 42, 60
1, 145689, Note_on_c, 9, 42, 0
1, 145920, Note_on_c, 9, 56, 60
1, 145920, Note_on_c, 9, 69, 60
1, 145920, Note_on_c, 9, 42, 60
1, 145920, Note_on_c, 9, 36, 60
1, 145929, Note_on_c, 9, 42, 0
1, 146159, Note_on_c, 9, 56, 0
1, 146159, Note_on_c, 9, 69, 0
1, 146160, Note_on_c, 9, 42, 60
1, 146164, Note_on_c, 9, 42, 0
1, 146280, Note_on_c, 9, 42, 60
1, 146284, Note_on_c, 9, 42, 0
1, 146399, Note_on_c, 9, 36, 0
1, 146400, Note_on_c, 9, 38, 60
1, 146400, Note_on_c, 9, 42, 60
1, 146409, Note_on_c, 9, 42, 0
1, 146639, Note_on_c, 9, 38, 0
1, 146640, Note_on_c, 9, 56, 60
1, 146640, Note_on_c, 9, 69, 60
1, 146640, Note_on_c, 9, 42, 60
1, 146640, Note_on_c, 9, 36, 60
1, 146649, Note_on_c, 9, 42, 0
1, 146879, Note_on_c, 9, 56, 0
1, 146879, Note_on_c, 9, 69, 0
1, 146879, Note_on_c, 9, 36, 0
1, 146880, Note_on_c, 9, 56, 60
1, 146880, Note_on_c, 9, 69, 60
1, 146880, Note_on_c, 9, 42, 60
1, 146880, Note_on_c, 9, 36, 60
1, 146889, Note_on_c, 9, 42, 0
1, 147119, Note_on_c, 9, 56, 0
1, 147119, Note_on_c, 9, 69, 0
1, 147120, Note_on_c, 9, 42, 60
1, 147129, Note_on_c, 9, 42, 0
1, 147359, Note_on_c, 9, 36, 0
1, 147360, Note_on_c, 9, 38, 60
1, 147360, Note_on_c, 9, 42, 60
1, 147369, Note_on_c, 9, 42, 0
1, 147599, Note_on_c, 9, 38, 0
1, 147600, Note_on_c, 9, 42, 60
1, 147609, Note_on_c, 9, 42, 0
1, 147840, Note_on_c, 9, 56, 60
1, 147840, Note_on_c, 9, 69, 60
1, 147840, Note_on_c, 9, 42, 60
1, 147840, Note_on_c, 9, 36, 60
1, 147849, Note_on_c, 9, 42, 0
1, 148079, Note_on_c, 9, 56, 0
1, 148079, Note_on_c, 9, 69, 0
1, 148080, Note_on_c, 9, 42, 60
1, 148084, Note_on_c, 9, 42, 0
1, 148200, Note_on_c, 9, 42, 60
1, 148204, Note_on_c, 9, 42, 0
1, 148319, Note_on_c, 9, 36, 0
1, 148320, Note_on_c, 9, 38, 60
1, 148320, Note_on_c, 9, 42, 60
1, 148329, Note_on_c, 9, 42, 0
1, 148559, Note_on_c, 9, 38, 0
1, 148560, Note_on_c, 9, 56, 60
1, 148560, Note_on_c, 9, 69, 60
1, 148560, Note_on_c, 9, 42, 60
1, 148560, Note_on_c, 9, 36, 60
1, 148569, Note_on_c, 9, 42, 0
1, 148799, Note_on_c, 9, 56, 0
1, 148799, Note_on_c, 9, 69, 0
1, 148799, Note_on_c, 9, 36, 0
1, 148800, Note_on_c, 9, 56, 60
1, 148800, Note_on_c, 9, 69, 60
1, 148800, Note_on_c, 9, 42, 60
1, 148800, Note_on_c, 9, 36, 60
1, 148809, Note_on_c, 9, 42, 0
1, 149039, Note_on_c, 9, 56, 0
1, 149039, Note_on_c, 9, 69, 0
1, 149040, Note_on_c, 9, 42, 60
1, 149049, Note_on_c, 9, 42, 0
1, 149279, Note_on_c, 9, 36, 0
1, 149280, Note_on_c, 9, 38, 60
1, 149280, Note_on_c, 9, 42, 60
1, 149289, Note_on_c, 9, 42, 0
1, 149519, Note_on_c, 9, 38, 0
1, 149520, Note_on_c, 9, 42, 60
1, 149529, Note_on_c, 9, 42, 0
1, 149760, Note_on_c, 9, 56, 60
1, 149760, Note_on_c, 9, 69, 60
1, 149760, Note_on_c, 9, 42, 60
1, 149760, Note_on_c, 9, 36, 60
1, 149769, Note_on_c, 9, 42, 0
1, 149999, Note_on_c, 9, 56, 0
1, 149999, Note_on_c, 9, 69, 0
1, 150000, Note_on_c, 9, 42, 60
1, 150004, Note_on_c, 9, 42, 0
1, 150120, Note_on_c, 9, 42, 60
1, 150124, Note_on_c, 9, 42, 0
1, 150239, Note_on_c, 9, 36, 0
1, 150240, Note_on_c, 9, 38, 60
1, 150240, Note_on_c, 9, 42, 60
1, 150249, Note_on_c, 9, 42, 0
1, 150479, Note_on_c, 9, 38, 0
1, 150480, Note_on_c, 9, 56, 60
1, 150480, Note_on_c, 9, 69, 60
1, 150480, Note_on_c, 9, 42, 60
1, 150480, Note_on_c, 9, 36, 60
1, 150489, Note_on_c, 9, 42, 0
1, 150719, Note_on_c, 9, 56, 0
1, 150719, Note_on_c, 9, 69, 0
1, 150719, Note_on_c, 9, 36, 0
1, 150720, Note_on_c, 9, 56, 60
1, 150720, Note_on_c, 9, 69, 60
1, 150720, Note_on_c, 9, 42, 60
1, 150720, Note_on_c, 9, 36, 60
1, 150729, Note_on_c, 9, 42, 0
1, 150959, Note_on_c, 9, 56, 0
1, 150959, Note_on_c, 9, 69, 0
1, 150960, Note_on_c, 9, 42, 60
1, 150969, Note_on_c, 9, 42, 0
1, 151199, Note_on_c, 9, 36, 0
1, 151200, Note_on_c, 9, 38, 60
1, 151200, Note_on_c, 9, 42, 60
1, 151209, Note_on_c, 9, 42, 0
1, 151439, Note_on_c, 9, 38, 0
1, 151440, Note_on_c, 9, 42, 60
1, 151449, Note_on_c, 9, 42, 0
1, 151680, Note_on_c, 9, 56, 60
1, 151680, Note_on_c, 9, 69, 60
1, 151680, Note_on_c, 9, 42, 60
1, 151680, Note_on_c, 9, 36, 60
1, 151689, Note_on_c, 9, 42, 0
1, 151919, Note_on_c, 9, 56, 0
1, 151919, Note_on_c, 9, 69, 0
1, 151920, Note_on_c, 9, 42, 60
1, 151924, Note_on_c, 9, 42, 0
1, 152040, Note_on_c, 9, 42, 60
1, 152044, Note_on_c, 9, 42, 0
1, 152159, Note_on_c, 9, 36, 0
1, 152160, Note_on_c, 9, 38, 60
1, 152160, Note_on_c, 9, 42, 60
1, 152169, Note_on_c, 9, 42, 0
1, 152399, Note_on_c, 9, 38, 0
1, 152400, Note_on_c, 9, 56, 60
1, 152400, Note_on_c, 9, 69, 60
1, 152400, Note_on_c, 9, 42, 60
1, 152400, Note_on_c, 9, 36, 60
1, 152409, Note_on_c, 9, 42, 0
1, 152639, Note_on_c, 9, 56, 0
1, 152639, Note_on_c, 9, 69, 0
1, 152639, Note_on_c, 9, 36, 0
1, 152640, Note_on_c, 9, 56, 60
1, 152640, Note_on_c, 9, 69, 60
1, 152640, Note_on_c, 9, 42, 60
1, 152640, Note_on_c, 9, 36, 60
1, 152649, Note_on_c, 9, 42, 0
1, 152879, Note_on_c, 9, 56, 0
1, 152879, Note_on_c, 9, 69, 0
1, 152880, Note_on_c, 9, 42, 60
1, 152889, Note_on_c, 9, 42, 0
1, 153119, Note_on_c, 9, 36, 0
1, 153120, Note_on_c, 9, 38, 60
1, 153120, Note_on_c, 9, 42, 60
1, 153129, Note_on_c, 9, 42, 0
1, 153359, Note_on_c, 9, 38, 0
1, 153360, Note_on_c, 9, 42, 60
1, 153360, Note_on_c, 9, 42, 0
1, 153360, Note_on_c, 9, 57, 60
1, 153360, Note_on_c, 9, 57, 0
1, 153390, Note_on_c, 9, 57, 60
1, 153390, Note_on_c, 9, 57, 0
1, 153420, Note_on_c, 9, 57, 60
1, 153420, Note_on_c, 9, 57, 0
1, 153450, Note_on_c, 9, 57, 60
1, 153450, Note_on_c, 9, 57, 0
1, 153480, Note_on_c, 9, 57, 60
1, 153480, Note_on_c, 9, 57, 0
1, 153510, Note_on_c, 9, 57, 60
1, 153510, Note_on_c, 9, 57, 0
1, 153540, Note_on_c, 9, 57, 60
1, 153540, Note_on_c, 9, 57, 0
1, 153570, Note_on_c, 9, 57, 60
1, 153570, Note_on_c, 9, 57, 0
1, 153600, Note_on_c, 9, 56, 60
1, 153600, Note_on_c, 9, 69, 60
1, 153600, Note_on_c, 9, 42, 60
1, 153600, Note_on_c, 9, 36, 60
1, 153609, Note_on_c, 9, 42, 0
1, 153839, Note_on_c, 9, 56, 0
1, 153839, Note_on_c, 9, 69, 0
1, 153840, Note_on_c, 9, 42, 60
1, 153844, Note_on_c, 9, 42, 0
1, 153960, Note_on_c, 9, 42, 60
1, 153964, Note_on_c, 9, 42, 0
1, 154079, Note_on_c, 9, 36, 0
1, 154080, Note_on_c, 9, 38, 60
1, 154080, Note_on_c, 9, 42, 60
1, 154089, Note_on_c, 9, 42, 0
1, 154319, Note_on_c, 9, 38, 0
1, 154320, Note_on_c, 9, 56, 60
1, 154320, Note_on_c, 9, 69, 60
1, 154320, Note_on_c, 9, 42, 60
1, 154320, Note_on_c, 9, 36, 60
1, 154329, Note_on_c, 9, 42, 0
1, 154559, Note_on_c, 9, 56, 0
1, 154559, Note_on_c, 9, 69, 0
1, 154559, Note_on_c, 9, 36, 0
1, 154560, Note_on_c, 9, 56, 60
1, 154560, Note_on_c, 9, 69, 60
1, 154560, Note_on_c, 9, 42, 60
1, 154560, Note_on_c, 9, 36, 60
1, 154569, Note_on_c, 9, 42, 0
1, 154799, Note_on_c, 9, 56, 0
1, 154799, Note_on_c, 9, 69, 0
1, 154800, Note_on_c, 9, 42, 60
1, 154809, Note_on_c, 9, 42, 0
1, 155039, Note_on_c, 9, 36, 0
1, 155040, Note_on_c, 9, 38, 60
1, 155040, Note_on_c, 9, 42, 60
1, 155049, Note_on_c, 9, 42, 0
1, 155279, Note_on_c, 9, 38, 0
1, 155280, Note_on_c, 9, 42, 60
1, 155289, Note_on_c, 9, 42, 0
1, 155520, Note_on_c, 9, 56, 60
1, 155520, Note_on_c, 9, 69, 60
1, 155520, Note_on_c, 9, 42, 60
1, 155520, Note_on_c, 9, 36, 60
1, 155529, Note_on_c, 9, 42, 0
1, 155759, Note_on_c, 9, 56, 0
1, 155759, Note_on_c, 9, 69, 0
1, 155760, Note_on_c, 9, 42, 60
1, 155764, Note_on_c, 9, 42, 0
1, 155880, Note_on_c, 9, 42, 60
1, 155884, Note_on_c, 9, 42, 0
1, 155999, Note_on_c, 9, 36, 0
1, 156000, Note_on_c, 9, 38, 60
1, 156000, Note_on_c, 9, 42, 60
1, 156009, Note_on_c, 9, 42, 0
1, 156239, Note_on_c, 9, 38, 0
1, 156240, Note_on_c, 9, 56, 60
1, 156240, Note_on_c, 9, 69, 60
1, 156240, Note_on_c, 9, 42, 60
1, 156240, Note_on_c, 9, 36, 60
1, 156249, Note_on_c, 9, 42, 0
1, 156479, Note_on_c, 9, 56, 0
1, 156479, Note_on_c, 9, 69, 0
1, 156479, Note_on_c, 9, 36, 0
1, 156480, Note_on_c, 9, 56, 60
1, 156480, Note_on_c, 9, 69, 60
1, 156480, Note_on_c, 9, 42, 60
1, 156480, Note_on_c, 9, 36, 60
1, 156489, Note_on_c, 9, 42, 0
1, 156719, Note_on_c, 9, 56, 0
1, 156719, Note_on_c, 9, 69, 0
1, 156720, Note_on_c, 9, 42, 60
1, 156729, Note_on_c, 9, 42, 0
1, 156959, Note_on_c, 9, 36, 0
1, 156960, Note_on_c, 9, 38, 60
1, 156960, Note_on_c, 9, 42, 60
1, 156969, Note_on_c, 9, 42, 0
1, 157199, Note_on_c, 9, 38, 0
1, 157200, Note_on_c, 9, 42, 60
1, 157209, Note_on_c, 9, 42, 0
1, 157440, Note_on_c, 9, 56, 60
1, 157440, Note_on_c, 9, 69, 60
1, 157440, Note_on_c, 9, 42, 60
1, 157440, Note_on_c, 9, 57, 60
1, 157440, Note_on_c, 9, 36, 60
1, 157449, Note_on_c, 9, 42, 0
1, 157449, Note_on_c, 9, 57, 0
1, 157679, Note_on_c, 9, 56, 0
1, 157679, Note_on_c, 9, 69, 0
1, 157680, Note_on_c, 9, 42, 60
1, 157684, Note_on_c, 9, 42, 0
1, 157800, Note_on_c, 9, 42, 60
1, 157804, Note_on_c, 9, 42, 0
1, 157919, Note_on_c, 9, 36, 0
1, 157920, Note_on_c, 9, 38, 60
1, 157920, Note_on_c, 9, 42, 60
1, 157929, Note_on_c, 9, 42, 0
1, 158159, Note_on_c, 9, 38, 0
1, 158160, Note_on_c, 9, 56, 60
1, 158160, Note_on_c, 9, 69, 60
1, 158160, Note_on_c, 9, 42, 60
1, 158160, Note_on_c, 9, 36, 60
1, 158169, Note_on_c, 9, 42, 0
1, 158399, Note_on_c, 9, 56, 0
1, 158399, Note_on_c, 9, 69, 0
1, 158399, Note_on_c, 9, 36, 0
1, 158400, Note_on_c, 9, 56, 60
1, 158400, Note_on_c, 9, 69, 60
1, 158400, Note_on_c, 9, 42, 60
1, 158400, Note_on_c, 9, 36, 60
1, 158409, Note_on_c, 9, 42, 0
1, 158639, Note_on_c, 9, 56, 0
1, 158639, Note_on_c, 9, 69, 0
1, 158640, Note_on_c, 9, 42, 60
1, 158649, Note_on_c, 9, 42, 0
1, 158879, Note_on_c, 9, 36, 0
1, 158880, Note_on_c, 9, 38, 60
1, 158880, Note_on_c, 9, 42, 60
1, 158889, Note_on_c, 9, 42, 0
1, 159119, Note_on_c, 9, 38, 0
1, 159120, Note_on_c, 9, 42, 60
1, 159129, Note_on_c, 9, 42, 0
1, 159360, Note_on_c, 9, 56, 60
1, 159360, Note_on_c, 9, 69, 60
1, 159360, Note_on_c, 9, 42, 60
1, 159360, Note_on_c, 9, 36, 60
1, 159369, Note_on_c, 9, 42, 0
1, 159599, Note_on_c, 9, 56, 0
1, 159599, Note_on_c, 9, 69, 0
1, 159600, Note_on_c, 9, 42, 60
1, 159604, Note_on_c, 9, 42, 0
1, 159720, Note_on_c, 9, 42, 60
1, 159724, Note_on_c, 9, 42, 0
1, 159839, Note_on_c, 9, 36, 0
1, 159840, Note_on_c, 9, 38, 60
1, 159840, Note_on_c, 9, 42, 60
1, 159849, Note_on_c, 9, 42, 0
1, 160079, Note_on_c, 9, 38, 0
1, 160080, Note_on_c, 9, 56, 60
1, 160080, Note_on_c, 9, 69, 60
1, 160080, Note_on_c, 9, 42, 60
1, 160080, Note_on_c, 9, 36, 60
1, 160089, Note_on_c, 9, 42, 0
1, 160319, Note_on_c, 9, 56, 0
1, 160319, Note_on_c, 9, 69, 0
1, 160319, Note_on_c, 9, 36, 0
1, 160320, Note_on_c, 9, 56, 60
1, 160320, Note_on_c, 9, 69, 60
1, 160320, Note_on_c, 9, 42, 60
1, 160320, Note_on_c, 9, 36, 60
1, 160329, Note_on_c, 9, 42, 0
1, 160559, Note_on_c, 9, 56, 0
1, 160559, Note_on_c, 9, 69, 0
1, 160560, Note_on_c, 9, 42, 60
1, 160569, Note_on_c, 9, 42, 0
1, 160799, Note_on_c, 9, 36, 0
1, 160800, Note_on_c, 9, 38, 60
1, 160800, Note_on_c, 9, 42, 60
1, 160809, Note_on_c, 9, 42, 0
1, 161039, Note_on_c, 9, 38, 0
1, 161040, Note_on_c, 9, 42, 60
1, 161049, Note_on_c, 9, 42, 0
1, 161280, Note_on_c, 9, 56, 60
1, 161280, Note_on_c, 9, 69, 60
1, 161280, Note_on_c, 9, 42, 60
1, 161280, Note_on_c, 9, 36, 60
1, 161289, Note_on_c, 9, 42, 0
1, 161519, Note_on_c, 9, 56, 0
1, 161519, Note_on_c, 9, 69, 0
1, 161520, Note_on_c, 9, 42, 60
1, 161524, Note_on_c, 9, 42, 0
1, 161640, Note_on_c, 9, 42, 60
1, 161644, Note_on_c, 9, 42, 0
1, 161759, Note_on_c, 9, 36, 0
1, 161760, Note_on_c, 9, 38, 60
1, 161760, Note_on_c, 9, 42, 60
1, 161769, Note_on_c, 9, 42, 0
1, 161999, Note_on_c, 9, 38, 0
1, 162000, Note_on_c, 9, 56, 60
1, 162000, Note_on_c, 9, 69, 60
1, 162000, Note_on_c, 9, 42, 60
1, 162000, Note_on_c, 9, 36, 60
1, 162009, Note_on_c, 9, 42, 0
1, 162239, Note_on_c, 9, 56, 0
1, 162239, Note_on_c, 9, 69, 0
1, 162239, Note_on_c, 9, 36, 0
1, 162240, Note_on_c, 9, 56, 60
1, 162240, Note_on_c, 9, 69, 60
1, 162240, Note_on_c, 9, 42, 60
1, 162240, Note_on_c, 9, 36, 60
1, 162249, Note_on_c, 9, 42, 0
1, 162479, Note_on_c, 9, 56, 0
1, 162479, Note_on_c, 9, 69, 0
1, 162480, Note_on_c, 9, 42, 60
1, 162489, Note_on_c, 9, 42, 0
1, 162719, Note_on_c, 9, 36, 0
1, 162720, Note_on_c, 9, 38, 60
1, 162720, Note_on_c, 9, 42, 60
1, 162729, Note_on_c, 9, 42, 0
1, 162959, Note_on_c, 9, 38, 0
1, 162960, Note_on_c, 9, 42, 60
1, 162969, Note_on_c, 9, 42, 0
1, 163200, Note_on_c, 9, 56, 60
1, 163200, Note_on_c, 9, 69, 60
1, 163200, Note_on_c, 9, 42, 60
1, 163200, Note_on_c, 9, 57, 60
1, 163200, Note_on_c, 9, 36, 60
1, 163209, Note_on_c, 9, 42, 0
1, 163209, Note_on_c, 9, 57, 0
1, 163439, Note_on_c, 9, 56, 0
1, 163439, Note_on_c, 9, 69, 0
1, 163440, Note_on_c, 9, 42, 60
1, 163444, Note_on_c, 9, 42, 0
1, 163560, Note_on_c, 9, 42, 60
1, 163564, Note_on_c, 9, 42, 0
1, 163679, Note_on_c, 9, 36, 0
1, 163680, Note_on_c, 9, 38, 60
1, 163680, Note_on_c, 9, 42, 60
1, 163689, Note_on_c, 9, 42, 0
1, 163919, Note_on_c, 9, 38, 0
1, 163920, Note_on_c, 9, 56, 60
1, 163920, Note_on_c, 9, 69, 60
1, 163920, Note_on_c, 9, 42, 60
1, 163920, Note_on_c, 9, 36, 60
1, 163929, Note_on_c, 9, 42, 0
1, 164159, Note_on_c, 9, 56, 0
1, 164159, Note_on_c, 9, 69, 0
1, 164159, Note_on_c, 9, 36, 0
1, 164160, Note_on_c, 9, 56, 60
1, 164160, Note_on_c, 9, 69, 60
1, 164160, Note_on_c, 9, 42, 60
1, 164160, Note_on_c, 9, 36, 60
1, 164169, Note_on_c, 9, 42, 0
1, 164399, Note_on_c, 9, 56, 0
1, 164399, Note_on_c, 9, 69, 0
1, 164400, Note_on_c, 9, 42, 60
1, 164409, Note_on_c, 9, 42, 0
1, 164639, Note_on_c, 9, 36, 0
1, 164640, Note_on_c, 9, 38, 60
1, 164640, Note_on_c, 9, 42, 60
1, 164649, Note_on_c, 9, 42, 0
1, 164879, Note_on_c, 9, 38, 0
1, 164880, Note_on_c, 9, 42, 60
1, 164889, Note_on_c, 9, 42, 0
1, 165120, Note_on_c, 9, 56, 60
1, 165120, Note_on_c, 9, 69, 60
1, 165120, Note_on_c, 9, 42, 60
1, 165120, Note_on_c, 9, 36, 60
1, 165129, Note_on_c, 9, 42, 0
1, 165359, Note_on_c, 9, 56, 0
1, 165359, Note_on_c, 9, 69, 0
1, 165360, Note_on_c, 9, 42, 60
1, 165364, Note_on_c, 9, 42, 0
1, 165480, Note_on_c, 9, 42, 60
1, 165484, Note_on_c, 9, 42, 0
1, 165599, Note_on_c, 9, 36, 0
1, 165600, Note_on_c, 9, 38, 60
1, 165600, Note_on_c, 9, 42, 60
1, 165609, Note_on_c, 9, 42, 0
1, 165839, Note_on_c, 9, 38, 0
1, 165840, Note_on_c, 9, 56, 60
1, 165840, Note_on_c, 9, 69, 60
1, 165840, Note_on_c, 9, 42, 60
1, 165840, Note_on_c, 9, 36, 60
1, 165849, Note_on_c, 9, 42, 0
1, 166079, Note_on_c, 9, 56, 0
1, 166079, Note_on_c, 9, 69, 0
1, 166079, Note_on_c, 9, 36, 0
1, 166080, Note_on_c, 9, 56, 60
1, 166080, Note_on_c, 9, 69, 60
1, 166080, Note_on_c, 9, 42, 60
1, 166080, Note_on_c, 9, 36, 60
1, 166089, Note_on_c, 9, 42, 0
1, 166319, Note_on_c, 9, 56, 0
1, 166319, Note_on_c, 9, 69, 0
1, 166320, Note_on_c, 9, 42, 60
1, 166329, Note_on_c, 9, 42, 0
1, 166559, Note_on_c, 9, 36, 0
1, 166560, Note_on_c, 9, 38, 60
1, 166560, Note_on_c, 9, 42, 60
1, 166569, Note_on_c, 9, 42, 0
1, 166799, Note_on_c, 9, 38, 0
1, 166800, Note_on_c, 9, 42, 60
1, 166809, Note_on_c, 9, 42, 0
1, 167040, Note_on_c, 9, 56, 60
1, 167040, Note_on_c, 9, 69, 60
1, 167040, Note_on_c, 9, 42, 60
1, 167040, Note_on_c, 9, 36, 60
1, 167049, Note_on_c, 9, 42, 0
1, 167279, Note_on_c, 9, 56, 0
1, 167279, Note_on_c, 9, 69, 0
1, 167280, Note_on_c, 9, 42, 60
1, 167284, Note_on_c, 9, 42, 0
1, 167400, Note_on_c, 9, 42, 60
1, 167404, Note_on_c, 9, 42, 0
1, 167519, Note_on_c, 9, 36, 0
1, 167520, Note_on_c, 9, 38, 60
1, 167520, Note_on_c, 9, 42, 60
1, 167529, Note_on_c, 9, 42, 0
1, 167759, Note_on_c, 9, 38, 0
1, 167760, Note_on_c, 9, 56, 60
1, 167760, Note_on_c, 9, 69, 60
1, 167760, Note_on_c, 9, 42, 60
1, 167760, Note_on_c, 9, 36, 60
1, 167769, Note_on_c, 9, 42, 0
1, 167999, Note_on_c, 9, 56, 0
1, 167999, Note_on_c, 9, 69, 0
1, 167999, Note_on_c, 9, 36, 0
1, 168000, Note_on_c, 9, 56, 60
1, 168000, Note_on_c, 9, 69, 60
1, 168000, Note_on_c, 9, 42, 60
1, 168000, Note_on_c, 9, 36, 60
1, 168009, Note_on_c, 9, 42, 0
1, 168239, Note_on_c, 9, 56, 0
1, 168239, Note_on_c, 9, 69, 0
1, 168240, Note_on_c, 9, 42, 60
1, 168249, Note_on_c, 9, 42, 0
1, 168479, Note_on_c, 9, 36, 0
1, 168480, Note_on_c, 9, 38, 60
1, 168480, Note_on_c, 9, 42, 60
1, 168489, Note_on_c, 9, 42, 0
1, 168719, Note_on_c, 9, 38, 0
1, 168720, Note_on_c, 9, 42, 60
1, 168729, Note_on_c, 9, 42, 0
1, 168960, Note_on_c, 9, 56, 60
1, 168960, Note_on_c, 9, 69, 60
1, 168960, Note_on_c, 9, 42, 60
1, 168960, Note_on_c, 9, 36, 60
1, 168969, Note_on_c, 9, 42, 0
1, 169199, Note_on_c, 9, 56, 0
1, 169199, Note_on_c, 9, 69, 0
1, 169200, Note_on_c, 9, 42, 60
1, 169204, Note_on_c, 9, 42, 0
1, 169320, Note_on_c, 9, 42, 60
1, 169324, Note_on_c, 9, 42, 0
1, 169439, Note_on_c, 9, 36, 0
1, 169440, Note_on_c, 9, 38, 60
1, 169440, Note_on_c, 9, 42, 60
1, 169449, Note_on_c, 9, 42, 0
1, 169679, Note_on_c, 9, 38, 0
1, 169680, Note_on_c, 9, 56, 60
1, 169680, Note_on_c, 9, 69, 60
1, 169680, Note_on_c, 9, 42, 60
1, 169680, Note_on_c, 9, 36, 60
1, 169689, Note_on_c, 9, 42, 0
1, 169919, Note_on_c, 9, 56, 0
1, 169919, Note_on_c, 9, 69, 0
1, 169919, Note_on_c, 9, 36, 0
1, 169920, Note_on_c, 9, 56, 60
1, 169920, Note_on_c, 9, 69, 60
1, 169920, Note_on_c, 9, 42, 60
1, 169920, Note_on_c, 9, 36, 60
1, 169929, Note_on_c, 9, 42, 0
1, 170159, Note_on_c, 9, 56, 0
1, 170159, Note_on_c, 9, 69, 0
1, 170160, Note_on_c, 9, 42, 60
1, 170169, Note_on_c, 9, 42, 0
1, 170399, Note_on_c, 9, 36, 0
1, 170400, Note_on_c, 9, 38, 60
1, 170400, Note_on_c, 9, 42, 60
1, 170409, Note_on_c, 9, 42, 0
1, 170639, Note_on_c, 9, 38, 0
1, 170640, Note_on_c, 9, 42, 60
1, 170640, Note_on_c, 9, 42, 0
1, 170640, Note_on_c, 9, 57, 60
1, 170640, Note_on_c, 9, 57, 0
1, 170670, Note_on_c, 9, 57, 60
1, 170670, Note_on_c, 9, 57, 0
1, 170700, Note_on_c, 9, 57, 60
1, 170700, Note_on_c, 9, 57, 0
1, 170730, Note_on_c, 9, 57, 60
1, 170730, Note_on_c, 9, 57, 0
1, 170760, Note_on_c, 9, 57, 60
1, 170760, Note_on_c, 9, 57, 0
1, 170790, Note_on_c, 9, 57, 60
1, 170790, Note_on_c, 9, 57, 0
1, 170820, Note_on_c, 9, 57, 60
1, 170820, Note_on_c, 9, 57, 0
1, 170850, Note_on_c, 9, 57, 60
1, 170850, Note_on_c, 9, 57, 0
1, 170880, Note_on_c, 9, 56, 60
1, 170880, Note_on_c, 9, 69, 60
1, 170880, Note_on_c, 9, 42, 60
1, 170880, Note_on_c, 9, 36, 60
1, 170889, Note_on_c, 9, 42, 0
1, 171119, Note_on_c, 9, 56, 0
1, 171119, Note_on_c, 9, 69, 0
1, 171120, Note_on_c, 9, 42, 60
1, 171124, Note_on_c, 9, 42, 0
1, 171240, Note_on_c, 9, 42, 60
1, 171244, Note_on_c, 9, 42, 0
1, 171359, Note_on_c, 9, 36, 0
1, 171360, Note_on_c, 9, 38, 60
1, 171360, Note_on_c, 9, 42, 60
1, 171369, Note_on_c, 9, 42, 0
1, 171599, Note_on_c, 9, 38, 0
1, 171600, Note_on_c, 9, 56, 60
1, 171600, Note_on_c, 9, 69, 60
1, 171600, Note_on_c, 9, 42, 60
1, 171600, Note_on_c, 9, 36, 60
1, 171609, Note_on_c, 9, 42, 0
1, 171839, Note_on_c, 9, 56, 0
1, 171839, Note_on_c, 9, 69, 0
1, 171839, Note_on_c, 9, 36, 0
1, 171840, Note_on_c, 9, 56, 60
1, 171840, Note_on_c, 9, 69, 60
1, 171840, Note_on_c, 9, 42, 60
1, 171840, Note_on_c, 9, 36, 60
1, 171849, Note_on_c, 9, 42, 0
1, 172079, Note_on_c, 9, 56, 0
1, 172079, Note_on_c, 9, 69, 0
1, 172080, Note_on_c, 9, 42, 60
1, 172089, Note_on_c, 9, 42, 0
1, 172319, Note_on_c, 9, 36, 0
1, 172320, Note_on_c, 9, 38, 60
1, 172320, Note_on_c, 9, 42, 60
1, 172329, Note_on_c, 9, 42, 0
1, 172559, Note_on_c, 9, 38, 0
1, 172560, Note_on_c, 9, 42, 60
1, 172569, Note_on_c, 9, 42, 0
1, 172570, End_track
0, 0, End_of_file
