0, 0, Header, 1, 1, 480
1, 0, Start_track
1, 0, Title_t, "Drumset"
1, 0, Time_signature, 4, 2, 24, 8
1, 0, Key_signature, 0, "major"
1, 0, Tempo, 625000
1, 0, Control_c, 9, 121, 0
1, 0, Program_c, 9, 0
1, 0, Control_c, 9, 7, 100
1, 0, Control_c, 9, 10, 64
1, 0, Control_c, 9, 91, 0
1, 0, Control_c, 9, 93, 0
1, 0, MIDI_port, 0
1, 1920, Note_on_c, 9, 42, 52
1, 1937, Note_on_c, 9, 42, 0
1, 2400, Note_on_c, 9, 42, 62
1, 2417, Note_on_c, 9, 42, 0
1, 2880, Note_on_c, 9, 42, 68
1, 2897, Note_on_c, 9, 42, 0
1, 3360, Note_on_c, 9, 42, 66
1, 3377, Note_on_c, 9, 42, 0
1, 3840, Note_on_c, 9, 46, 40
1, 3848, Note_on_c, 9, 46, 0
1, 4080, Note_on_c, 9, 64, 30
1, 4080, Note_on_c, 9, 50, 50
1, 4080, Note_on_c, 9, 42, 54
1, 4088, Note_on_c, 9, 64, 0
1, 4088, Note_on_c, 9, 42, 0
1, 4319, Note_on_c, 9, 50, 0
1, 4560, Note_on_c, 9, 64, 36
1, 4560, Note_on_c, 9, 50, 38
1, 4560, Note_on_c, 9, 42, 54
1, 4568, Note_on_c, 9, 64, 0
1, 4568, Note_on_c, 9, 42, 0
1, 4799, Note_on_c, 9, 50, 0
1, 5040, Note_on_c, 9, 41, 29
1, 5040, Note_on_c, 9, 42, 54
1, 5040, Note_on_c, 9, 35, 74
1, 5048, Note_on_c, 9, 42, 0
1, 5279, Note_on_c, 9, 41, 0
1, 5279, Note_on_c, 9, 35, 0
1, 5280, Note_on_c, 9, 64, 26
1, 5280, Note_on_c, 9, 46, 40
1, 5280, Note_on_c, 9, 50, 44
1, 5288, Note_on_c, 9, 64, 0
1, 5288, Note_on_c, 9, 46, 0
1, 5519, Note_on_c, 9, 50, 0
1, 5520, Note_on_c, 9, 42, 54
1, 5528, Note_on_c, 9, 42, 0
1, 5760, Note_on_c, 9, 46, 40
1, 5760, Note_on_c, 9, 35, 40
1, 5768, Note_on_c, 9, 46, 0
1, 5999, Note_on_c, 9, 35, 0
1, 6000, Note_on_c, 9, 64, 42
1, 6000, Note_on_c, 9, 50, 46
1, 6000, Note_on_c, 9, 42, 54
1, 6000, Note_on_c, 9, 35, 38
1, 6008, Note_on_c, 9, 64, 0
1, 6008, Note_on_c, 9, 42, 0
1, 6239, Note_on_c, 9, 50, 0
1, 6239, Note_on_c, 9, 35, 0
1, 6240, Note_on_c, 9, 41, 28
1, 6240, Note_on_c, 9, 35, 95
1, 6479, Note_on_c, 9, 41, 0
1, 6479, Note_on_c, 9, 35, 0
1, 6480, Note_on_c, 9, 64, 44
1, 6480, Note_on_c, 9, 50, 40
1, 6480, Note_on_c, 9, 42, 54
1, 6480, Note_on_c, 9, 35, 33
1, 6488, Note_on_c, 9, 64, 0
1, 6488, Note_on_c, 9, 42, 0
1, 6719, Note_on_c, 9, 50, 0
1, 6719, Note_on_c, 9, 35, 0
1, 6720, Note_on_c, 9, 35, 31
1, 6959, Note_on_c, 9, 35, 0
1, 6960, Note_on_c, 9, 41, 28
1, 6960, Note_on_c, 9, 42, 54
1, 6960, Note_on_c, 9, 35, 71
1, 6968, Note_on_c, 9, 42, 0
1, 7199, Note_on_c, 9, 41, 0
1, 7199, Note_on_c, 9, 35, 0
1, 7200, Note_on_c, 9, 64, 46
1, 7200, Note_on_c, 9, 46, 40
1, 7200, Note_on_c, 9, 50, 52
1, 7200, Note_on_c, 9, 35, 33
1, 7208, Note_on_c, 9, 64, 0
1, 7208, Note_on_c, 9, 46, 0
1, 7439, Note_on_c, 9, 50, 0
1, 7439, Note_on_c, 9, 35, 0
1, 7440, Note_on_c, 9, 42, 54
1, 7440, Note_on_c, 9, 35, 29
1, 7448, Note_on_c, 9, 42, 0
1, 7679, Note_on_c, 9, 35, 0
1, 7680, Note_on_c, 9, 46, 40
1, 7688, Note_on_c, 9, 46, 0
1, 7920, Note_on_c, 9, 64, 44
1, 7920, Note_on_c, 9, 50, 52
1, 7920, Note_on_c, 9, 42, 54
1, 7928, Note_on_c, 9, 64, 0
1, 7928, Note_on_c, 9, 42, 0
1, 8159, Note_on_c, 9, 50, 0
1, 8400, Note_on_c, 9, 64, 40
1, 8400, Note_on_c, 9, 50, 52
1, 8400, Note_on_c, 9, 42, 54
1, 8408, Note_on_c, 9, 64, 0
1, 8408, Note_on_c, 9, 42, 0
1, 8639, Note_on_c, 9, 50, 0
1, 8880, Note_on_c, 9, 41, 28
1, 8880, Note_on_c, 9, 42, 54
1, 8880, Note_on_c, 9, 35, 74
1, 8888, Note_on_c, 9, 42, 0
1, 9119, Note_on_c, 9, 41, 0
1, 9119, Note_on_c, 9, 35, 0
1, 9120, Note_on_c, 9, 64, 34
1, 9120, Note_on_c, 9, 46, 40
1, 9120, Note_on_c, 9, 50, 48
1, 9128, Note_on_c, 9, 64, 0
1, 9128, Note_on_c, 9, 46, 0
1, 9359, Note_on_c, 9, 50, 0
1, 9360, Note_on_c, 9, 42, 54
1, 9368, Note_on_c, 9, 42, 0
1, 9600, Note_on_c, 9, 46, 40
1, 9600, Note_on_c, 9, 35, 40
1, 9608, Note_on_c, 9, 46, 0
1, 9839, Note_on_c, 9, 35, 0
1, 9840, Note_on_c, 9, 64, 40
1, 9840, Note_on_c, 9, 50, 46
1, 9840, Note_on_c, 9, 42, 54
1, 9840, Note_on_c, 9, 35, 38
1, 9848, Note_on_c, 9, 64, 0
1, 9848, Note_on_c, 9, 42, 0
1, 10079, Note_on_c, 9, 50, 0
1, 10079, Note_on_c, 9, 35, 0
1, 10080, Note_on_c, 9, 41, 27
1, 10080, Note_on_c, 9, 35, 95
1, 10319, Note_on_c, 9, 41, 0
1, 10319, Note_on_c, 9, 35, 0
1, 10320, Note_on_c, 9, 64, 44
1, 10320, Note_on_c, 9, 50, 58
1, 10320, Note_on_c, 9, 42, 54
1, 10320, Note_on_c, 9, 35, 33
1, 10328, Note_on_c, 9, 64, 0
1, 10328, Note_on_c, 9, 42, 0
1, 10559, Note_on_c, 9, 50, 0
1, 10559, Note_on_c, 9, 35, 0
1, 10560, Note_on_c, 9, 35, 31
1, 10799, Note_on_c, 9, 35, 0
1, 10800, Note_on_c, 9, 41, 27
1, 10800, Note_on_c, 9, 42, 54
1, 10800, Note_on_c, 9, 35, 71
1, 10808, Note_on_c, 9, 42, 0
1, 11039, Note_on_c, 9, 41, 0
1, 11039, Note_on_c, 9, 35, 0
1, 11040, Note_on_c, 9, 64, 34
1, 11040, Note_on_c, 9, 46, 40
1, 11040, Note_on_c, 9, 50, 56
1, 11040, Note_on_c, 9, 35, 33
1, 11048, Note_on_c, 9, 64, 0
1, 11048, Note_on_c, 9, 46, 0
1, 11279, Note_on_c, 9, 50, 0
1, 11279, Note_on_c, 9, 35, 0
1, 11280, Note_on_c, 9, 42, 54
1, 11280, Note_on_c, 9, 35, 29
1, 11288, Note_on_c, 9, 42, 0
1, 11519, Note_on_c, 9, 35, 0
1, 11520, Note_on_c, 9, 46, 40
1, 11528, Note_on_c, 9, 46, 0
1, 11760, Note_on_c, 9, 64, 30
1, 11760, Note_on_c, 9, 50, 50
1, 11760, Note_on_c, 9, 42, 54
1, 11768, Note_on_c, 9, 64, 0
1, 11768, Note_on_c, 9, 42, 0
1, 11999, Note_on_c, 9, 50, 0
1, 12240, Note_on_c, 9, 64, 36
1, 12240, Note_on_c, 9, 50, 38
1, 12240, Note_on_c, 9, 42, 54
1, 12248, Note_on_c, 9, 64, 0
1, 12248, Note_on_c, 9, 42, 0
1, 12479, Note_on_c, 9, 50, 0
1, 12720, Note_on_c, 9, 41, 29
1, 12720, Note_on_c, 9, 42, 54
1, 12720, Note_on_c, 9, 35, 74
1, 12728, Note_on_c, 9, 42, 0
1, 12959, Note_on_c, 9, 41, 0
1, 12959, Note_on_c, 9, 35, 0
1, 12960, Note_on_c, 9, 64, 26
1, 12960, Note_on_c, 9, 46, 40
1, 12960, Note_on_c, 9, 50, 44
1, 12968, Note_on_c, 9, 64, 0
1, 12968, Note_on_c, 9, 46, 0
1, 13199, Note_on_c, 9, 50, 0
1, 13200, Note_on_c, 9, 42, 54
1, 13208, Note_on_c, 9, 42, 0
1, 13440, Note_on_c, 9, 46, 40
1, 13440, Note_on_c, 9, 35, 40
1, 13448, Note_on_c, 9, 46, 0
1, 13679, Note_on_c, 9, 35, 0
1, 13680, Note_on_c, 9, 64, 42
1, 13680, Note_on_c, 9, 50, 46
1, 13680, Note_on_c, 9, 42, 54
1, 13680, Note_on_c, 9, 35, 38
1, 13688, Note_on_c, 9, 64, 0
1, 13688, Note_on_c, 9, 42, 0
1, 13919, Note_on_c, 9, 50, 0
1, 13919, Note_on_c, 9, 35, 0
1, 13920, Note_on_c, 9, 41, 28
1, 13920, Note_on_c, 9, 35, 95
1, 14159, Note_on_c, 9, 41, 0
1, 14159, Note_on_c, 9, 35, 0
1, 14160, Note_on_c, 9, 64, 44
1, 14160, Note_on_c, 9, 50, 40
1, 14160, Note_on_c, 9, 42, 54
1, 14160, Note_on_c, 9, 35, 33
1, 14168, Note_on_c, 9, 64, 0
1, 14168, Note_on_c, 9, 42, 0
1, 14399, Note_on_c, 9, 50, 0
1, 14399, Note_on_c, 9, 35, 0
1, 14400, Note_on_c, 9, 35, 31
1, 14639, Note_on_c, 9, 35, 0
1, 14640, Note_on_c, 9, 41, 28
1, 14640, Note_on_c, 9, 42, 54
1, 14640, Note_on_c, 9, 35, 71
1, 14648, Note_on_c, 9, 42, 0
1, 14879, Note_on_c, 9, 41, 0
1, 14879, Note_on_c, 9, 35, 0
1, 14880, Note_on_c, 9, 64, 46
1, 14880, Note_on_c, 9, 46, 40
1, 14880, Note_on_c, 9, 50, 52
1, 14880, Note_on_c, 9, 35, 33
1, 14888, Note_on_c, 9, 64, 0
1, 14888, Note_on_c, 9, 46, 0
1, 15119, Note_on_c, 9, 50, 0
1, 15119, Note_on_c, 9, 35, 0
1, 15120, Note_on_c, 9, 42, 54
1, 15120, Note_on_c, 9, 35, 29
1, 15128, Note_on_c, 9, 42, 0
1, 15359, Note_on_c, 9, 35, 0
1, 15360, Note_on_c, 9, 46, 40
1, 15368, Note_on_c, 9, 46, 0
1, 15600, Note_on_c, 9, 64, 44
1, 15600, Note_on_c, 9, 50, 52
1, 15600, Note_on_c, 9, 42, 54
1, 15608, Note_on_c, 9, 64, 0
1, 15608, Note_on_c, 9, 42, 0
1, 15839, Note_on_c, 9, 50, 0
1, 16080, Note_on_c, 9, 64, 40
1, 16080, Note_on_c, 9, 50, 52
1, 16080, Note_on_c, 9, 42, 54
1, 16088, Note_on_c, 9, 64, 0
1, 16088, Note_on_c, 9, 42, 0
1, 16319, Note_on_c, 9, 50, 0
1, 16560, Note_on_c, 9, 41, 28
1, 16560, Note_on_c, 9, 42, 54
1, 16560, Note_on_c, 9, 35, 74
1, 16568, Note_on_c, 9, 42, 0
1, 16799, Note_on_c, 9, 41, 0
1, 16799, Note_on_c, 9, 35, 0
1, 16800, Note_on_c, 9, 64, 34
1, 16800, Note_on_c, 9, 46, 40
1, 16800, Note_on_c, 9, 50, 48
1, 16808, Note_on_c, 9, 64, 0
1, 16808, Note_on_c, 9, 46, 0
1, 17039, Note_on_c, 9, 50, 0
1, 17040, Note_on_c, 9, 42, 54
1, 17048, Note_on_c, 9, 42, 0
1, 17280, Note_on_c, 9, 46, 40
1, 17280, Note_on_c, 9, 35, 40
1, 17288, Note_on_c, 9, 46, 0
1, 17519, Note_on_c, 9, 35, 0
1, 17520, Note_on_c, 9, 64, 40
1, 17520, Note_on_c, 9, 50, 46
1, 17520, Note_on_c, 9, 42, 54
1, 17520, Note_on_c, 9, 35, 38
1, 17528, Note_on_c, 9, 64, 0
1, 17528, Note_on_c, 9, 42, 0
1, 17759, Note_on_c, 9, 50, 0
1, 17759, Note_on_c, 9, 35, 0
1, 17760, Note_on_c, 9, 41, 27
1, 17760, Note_on_c, 9, 35, 95
1, 17999, Note_on_c, 9, 41, 0
1, 17999, Note_on_c, 9, 35, 0
1, 18000, Note_on_c, 9, 64, 44
1, 18000, Note_on_c, 9, 50, 58
1, 18000, Note_on_c, 9, 42, 54
1, 18000, Note_on_c, 9, 35, 33
1, 18008, Note_on_c, 9, 64, 0
1, 18008, Note_on_c, 9, 42, 0
1, 18239, Note_on_c, 9, 50, 0
1, 18239, Note_on_c, 9, 35, 0
1, 18240, Note_on_c, 9, 35, 31
1, 18479, Note_on_c, 9, 35, 0
1, 18480, Note_on_c, 9, 41, 27
1, 18480, Note_on_c, 9, 42, 54
1, 18480, Note_on_c, 9, 35, 71
1, 18488, Note_on_c, 9, 42, 0
1, 18719, Note_on_c, 9, 41, 0
1, 18719, Note_on_c, 9, 35, 0
1, 18720, Note_on_c, 9, 64, 34
1, 18720, Note_on_c, 9, 46, 40
1, 18720, Note_on_c, 9, 50, 56
1, 18720, Note_on_c, 9, 35, 33
1, 18728, Note_on_c, 9, 64, 0
1, 18728, Note_on_c, 9, 46, 0
1, 18959, Note_on_c, 9, 50, 0
1, 18959, Note_on_c, 9, 35, 0
1, 18960, Note_on_c, 9, 42, 54
1, 18960, Note_on_c, 9, 35, 29
1, 18968, Note_on_c, 9, 42, 0
1, 19199, Note_on_c, 9, 35, 0
1, 19200, Note_on_c, 9, 46, 40
1, 19208, Note_on_c, 9, 46, 0
1, 19440, Note_on_c, 9, 64, 30
1, 19440, Note_on_c, 9, 50, 50
1, 19440, Note_on_c, 9, 42, 54
1, 19448, Note_on_c, 9, 64, 0
1, 19448, Note_on_c, 9, 42, 0
1, 19679, Note_on_c, 9, 50, 0
1, 19920, Note_on_c, 9, 64, 36
1, 19920, Note_on_c, 9, 50, 38
1, 19920, Note_on_c, 9, 42, 54
1, 19928, Note_on_c, 9, 64, 0
1, 19928, Note_on_c, 9, 42, 0
1, 20159, Note_on_c, 9, 50, 0
1, 20400, Note_on_c, 9, 41, 29
1, 20400, Note_on_c, 9, 42, 54
1, 20400, Note_on_c, 9, 35, 74
1, 20408, Note_on_c, 9, 42, 0
1, 20639, Note_on_c, 9, 41, 0
1, 20639, Note_on_c, 9, 35, 0
1, 20640, Note_on_c, 9, 64, 26
1, 20640, Note_on_c, 9, 46, 40
1, 20640, Note_on_c, 9, 50, 44
1, 20648, Note_on_c, 9, 64, 0
1, 20648, Note_on_c, 9, 46, 0
1, 20879, Note_on_c, 9, 50, 0
1, 20880, Note_on_c, 9, 42, 54
1, 20888, Note_on_c, 9, 42, 0
1, 21120, Note_on_c, 9, 46, 40
1, 21120, Note_on_c, 9, 35, 40
1, 21128, Note_on_c, 9, 46, 0
1, 21359, Note_on_c, 9, 35, 0
1, 21360, Note_on_c, 9, 64, 42
1, 21360, Note_on_c, 9, 50, 46
1, 21360, Note_on_c, 9, 42, 54
1, 21360, Note_on_c, 9, 35, 38
1, 21368, Note_on_c, 9, 64, 0
1, 21368, Note_on_c, 9, 42, 0
1, 21599, Note_on_c, 9, 50, 0
1, 21599, Note_on_c, 9, 35, 0
1, 21600, Note_on_c, 9, 41, 28
1, 21600, Note_on_c, 9, 35, 95
1, 21839, Note_on_c, 9, 41, 0
1, 21839, Note_on_c, 9, 35, 0
1, 21840, Note_on_c, 9, 64, 44
1, 21840, Note_on_c, 9, 50, 40
1, 21840, Note_on_c, 9, 42, 54
1, 21840, Note_on_c, 9, 35, 33
1, 21848, Note_on_c, 9, 64, 0
1, 21848, Note_on_c, 9, 42, 0
1, 22079, Note_on_c, 9, 50, 0
1, 22079, Note_on_c, 9, 35, 0
1, 22080, Note_on_c, 9, 35, 31
1, 22319, Note_on_c, 9, 35, 0
1, 22320, Note_on_c, 9, 41, 28
1, 22320, Note_on_c, 9, 42, 54
1, 22320, Note_on_c, 9, 35, 71
1, 22328, Note_on_c, 9, 42, 0
1, 22559, Note_on_c, 9, 41, 0
1, 22559, Note_on_c, 9, 35, 0
1, 22560, Note_on_c, 9, 64, 46
1, 22560, Note_on_c, 9, 46, 40
1, 22560, Note_on_c, 9, 50, 52
1, 22560, Note_on_c, 9, 35, 33
1, 22568, Note_on_c, 9, 64, 0
1, 22568, Note_on_c, 9, 46, 0
1, 22799, Note_on_c, 9, 50, 0
1, 22799, Note_on_c, 9, 35, 0
1, 22800, Note_on_c, 9, 42, 54
1, 22800, Note_on_c, 9, 35, 29
1, 22808, Note_on_c, 9, 42, 0
1, 23039, Note_on_c, 9, 35, 0
1, 23040, Note_on_c, 9, 46, 40
1, 23048, Note_on_c, 9, 46, 0
1, 23280, Note_on_c, 9, 64, 44
1, 23280, Note_on_c, 9, 50, 52
1, 23280, Note_on_c, 9, 42, 54
1, 23288, Note_on_c, 9, 64, 0
1, 23288, Note_on_c, 9, 42, 0
1, 23519, Note_on_c, 9, 50, 0
1, 23760, Note_on_c, 9, 64, 40
1, 23760, Note_on_c, 9, 50, 52
1, 23760, Note_on_c, 9, 42, 54
1, 23768, Note_on_c, 9, 64, 0
1, 23768, Note_on_c, 9, 42, 0
1, 23999, Note_on_c, 9, 50, 0
1, 24240, Note_on_c, 9, 41, 28
1, 24240, Note_on_c, 9, 42, 54
1, 24240, Note_on_c, 9, 35, 74
1, 24248, Note_on_c, 9, 42, 0
1, 24479, Note_on_c, 9, 41, 0
1, 24479, Note_on_c, 9, 35, 0
1, 24480, Note_on_c, 9, 64, 34
1, 24480, Note_on_c, 9, 46, 40
1, 24480, Note_on_c, 9, 50, 48
1, 24488, Note_on_c, 9, 64, 0
1, 24488, Note_on_c, 9, 46, 0
1, 24719, Note_on_c, 9, 50, 0
1, 24720, Note_on_c, 9, 42, 54
1, 24728, Note_on_c, 9, 42, 0
1, 24960, Note_on_c, 9, 46, 40
1, 24960, Note_on_c, 9, 35, 40
1, 24968, Note_on_c, 9, 46, 0
1, 25199, Note_on_c, 9, 35, 0
1, 25200, Note_on_c, 9, 64, 40
1, 25200, Note_on_c, 9, 50, 46
1, 25200, Note_on_c, 9, 42, 54
1, 25200, Note_on_c, 9, 35, 38
1, 25208, Note_on_c, 9, 64, 0
1, 25208, Note_on_c, 9, 42, 0
1, 25439, Note_on_c, 9, 50, 0
1, 25439, Note_on_c, 9, 35, 0
1, 25440, Note_on_c, 9, 41, 27
1, 25440, Note_on_c, 9, 35, 95
1, 25679, Note_on_c, 9, 41, 0
1, 25679, Note_on_c, 9, 35, 0
1, 25680, Note_on_c, 9, 64, 44
1, 25680, Note_on_c, 9, 50, 58
1, 25680, Note_on_c, 9, 42, 54
1, 25680, Note_on_c, 9, 35, 33
1, 25688, Note_on_c, 9, 64, 0
1, 25688, Note_on_c, 9, 42, 0
1, 25919, Note_on_c, 9, 50, 0
1, 25919, Note_on_c, 9, 35, 0
1, 25920, Note_on_c, 9, 35, 31
1, 26159, Note_on_c, 9, 35, 0
1, 26160, Note_on_c, 9, 41, 27
1, 26160, Note_on_c, 9, 42, 54
1, 26160, Note_on_c, 9, 35, 71
1, 26168, Note_on_c, 9, 42, 0
1, 26399, Note_on_c, 9, 41, 0
1, 26399, Note_on_c, 9, 35, 0
1, 26400, Note_on_c, 9, 64, 34
1, 26400, Note_on_c, 9, 46, 40
1, 26400, Note_on_c, 9, 50, 56
1, 26400, Note_on_c, 9, 35, 33
1, 26408, Note_on_c, 9, 64, 0
1, 26408, Note_on_c, 9, 46, 0
1, 26639, Note_on_c, 9, 50, 0
1, 26639, Note_on_c, 9, 35, 0
1, 26640, Note_on_c, 9, 42, 54
1, 26640, Note_on_c, 9, 35, 29
1, 26648, Note_on_c, 9, 42, 0
1, 26879, Note_on_c, 9, 35, 0
1, 26880, Note_on_c, 9, 46, 40
1, 26888, Note_on_c, 9, 46, 0
1, 27120, Note_on_c, 9, 64, 30
1, 27120, Note_on_c, 9, 50, 50
1, 27120, Note_on_c, 9, 42, 54
1, 27128, Note_on_c, 9, 64, 0
1, 27128, Note_on_c, 9, 42, 0
1, 27359, Note_on_c, 9, 50, 0
1, 27600, Note_on_c, 9, 64, 36
1, 27600, Note_on_c, 9, 50, 38
1, 27600, Note_on_c, 9, 42, 54
1, 27608, Note_on_c, 9, 64, 0
1, 27608, Note_on_c, 9, 42, 0
1, 27839, Note_on_c, 9, 50, 0
1, 28080, Note_on_c, 9, 41, 29
1, 28080, Note_on_c, 9, 42, 54
1, 28080, Note_on_c, 9, 35, 74
1, 28088, Note_on_c, 9, 42, 0
1, 28319, Note_on_c, 9, 41, 0
1, 28319, Note_on_c, 9, 35, 0
1, 28320, Note_on_c, 9, 64, 26
1, 28320, Note_on_c, 9, 46, 40
1, 28320, Note_on_c, 9, 50, 44
1, 28328, Note_on_c, 9, 64, 0
1, 28328, Note_on_c, 9, 46, 0
1, 28559, Note_on_c, 9, 50, 0
1, 28560, Note_on_c, 9, 42, 54
1, 28568, Note_on_c, 9, 42, 0
1, 28800, Note_on_c, 9, 46, 40
1, 28800, Note_on_c, 9, 35, 40
1, 28808, Note_on_c, 9, 46, 0
1, 29039, Note_on_c, 9, 35, 0
1, 29040, Note_on_c, 9, 64, 42
1, 29040, Note_on_c, 9, 50, 46
1, 29040, Note_on_c, 9, 42, 54
1, 29040, Note_on_c, 9, 35, 38
1, 29048, Note_on_c, 9, 64, 0
1, 29048, Note_on_c, 9, 42, 0
1, 29279, Note_on_c, 9, 50, 0
1, 29279, Note_on_c, 9, 35, 0
1, 29280, Note_on_c, 9, 41, 28
1, 29280, Note_on_c, 9, 35, 95
1, 29519, Note_on_c, 9, 41, 0
1, 29519, Note_on_c, 9, 35, 0
1, 29520, Note_on_c, 9, 64, 44
1, 29520, Note_on_c, 9, 50, 40
1, 29520, Note_on_c, 9, 42, 54
1, 29520, Note_on_c, 9, 35, 33
1, 29528, Note_on_c, 9, 64, 0
1, 29528, Note_on_c, 9, 42, 0
1, 29759, Note_on_c, 9, 50, 0
1, 29759, Note_on_c, 9, 35, 0
1, 29760, Note_on_c, 9, 35, 31
1, 29999, Note_on_c, 9, 35, 0
1, 30000, Note_on_c, 9, 41, 28
1, 30000, Note_on_c, 9, 42, 54
1, 30000, Note_on_c, 9, 35, 71
1, 30008, Note_on_c, 9, 42, 0
1, 30239, Note_on_c, 9, 41, 0
1, 30239, Note_on_c, 9, 35, 0
1, 30240, Note_on_c, 9, 64, 46
1, 30240, Note_on_c, 9, 46, 40
1, 30240, Note_on_c, 9, 50, 52
1, 30240, Note_on_c, 9, 35, 33
1, 30248, Note_on_c, 9, 64, 0
1, 30248, Note_on_c, 9, 46, 0
1, 30479, Note_on_c, 9, 50, 0
1, 30479, Note_on_c, 9, 35, 0
1, 30480, Note_on_c, 9, 42, 54
1, 30480, Note_on_c, 9, 35, 29
1, 30488, Note_on_c, 9, 42, 0
1, 30719, Note_on_c, 9, 35, 0
1, 30720, Note_on_c, 9, 46, 40
1, 30728, Note_on_c, 9, 46, 0
1, 30960, Note_on_c, 9, 64, 44
1, 30960, Note_on_c, 9, 50, 52
1, 30960, Note_on_c, 9, 42, 54
1, 30968, Note_on_c, 9, 64, 0
1, 30968, Note_on_c, 9, 42, 0
1, 31199, Note_on_c, 9, 50, 0
1, 31440, Note_on_c, 9, 64, 40
1, 31440, Note_on_c, 9, 50, 52
1, 31440, Note_on_c, 9, 42, 54
1, 31448, Note_on_c, 9, 64, 0
1, 31448, Note_on_c, 9, 42, 0
1, 31679, Note_on_c, 9, 50, 0
1, 31920, Note_on_c, 9, 41, 28
1, 31920, Note_on_c, 9, 42, 54
1, 31920, Note_on_c, 9, 35, 74
1, 31928, Note_on_c, 9, 42, 0
1, 32159, Note_on_c, 9, 41, 0
1, 32159, Note_on_c, 9, 35, 0
1, 32160, Note_on_c, 9, 64, 34
1, 32160, Note_on_c, 9, 46, 40
1, 32160, Note_on_c, 9, 50, 48
1, 32168, Note_on_c, 9, 64, 0
1, 32168, Note_on_c, 9, 46, 0
1, 32399, Note_on_c, 9, 50, 0
1, 32400, Note_on_c, 9, 42, 54
1, 32408, Note_on_c, 9, 42, 0
1, 32640, Note_on_c, 9, 46, 40
1, 32640, Note_on_c, 9, 35, 40
1, 32648, Note_on_c, 9, 46, 0
1, 32879, Note_on_c, 9, 35, 0
1, 32880, Note_on_c, 9, 64, 40
1, 32880, Note_on_c, 9, 50, 46
1, 32880, Note_on_c, 9, 42, 54
1, 32880, Note_on_c, 9, 35, 38
1, 32888, Note_on_c, 9, 64, 0
1, 32888, Note_on_c, 9, 42, 0
1, 33119, Note_on_c, 9, 50, 0
1, 33119, Note_on_c, 9, 35, 0
1, 33120, Note_on_c, 9, 41, 27
1, 33120, Note_on_c, 9, 35, 95
1, 33359, Note_on_c, 9, 41, 0
1, 33359, Note_on_c, 9, 35, 0
1, 33360, Note_on_c, 9, 64, 44
1, 33360, Note_on_c, 9, 50, 58
1, 33360, Note_on_c, 9, 42, 54
1, 33360, Note_on_c, 9, 35, 33
1, 33368, Note_on_c, 9, 64, 0
1, 33368, Note_on_c, 9, 42, 0
1, 33599, Note_on_c, 9, 50, 0
1, 33599, Note_on_c, 9, 35, 0
1, 33600, Note_on_c, 9, 35, 31
1, 33839, Note_on_c, 9, 35, 0
1, 33840, Note_on_c, 9, 41, 27
1, 33840, Note_on_c, 9, 42, 54
1, 33840, Note_on_c, 9, 35, 71
1, 33848, Note_on_c, 9, 42, 0
1, 34079, Note_on_c, 9, 41, 0
1, 34079, Note_on_c, 9, 35, 0
1, 34080, Note_on_c, 9, 64, 34
1, 34080, Note_on_c, 9, 46, 40
1, 34080, Note_on_c, 9, 50, 56
1, 34080, Note_on_c, 9, 35, 33
1, 34088, Note_on_c, 9, 64, 0
1, 34088, Note_on_c, 9, 46, 0
1, 34319, Note_on_c, 9, 50, 0
1, 34319, Note_on_c, 9, 35, 0
1, 34320, Note_on_c, 9, 42, 54
1, 34320, Note_on_c, 9, 35, 29
1, 34328, Note_on_c, 9, 42, 0
1, 34559, Note_on_c, 9, 35, 0
1, 34560, Note_on_c, 9, 46, 40
1, 34568, Note_on_c, 9, 46, 0
1, 34800, Note_on_c, 9, 64, 30
1, 34800, Note_on_c, 9, 50, 50
1, 34800, Note_on_c, 9, 42, 54
1, 34808, Note_on_c, 9, 64, 0
1, 34808, Note_on_c, 9, 42, 0
1, 35039, Note_on_c, 9, 50, 0
1, 35280, Note_on_c, 9, 64, 36
1, 35280, Note_on_c, 9, 50, 38
1, 35280, Note_on_c, 9, 42, 54
1, 35288, Note_on_c, 9, 64, 0
1, 35288, Note_on_c, 9, 42, 0
1, 35519, Note_on_c, 9, 50, 0
1, 35760, Note_on_c, 9, 41, 29
1, 35760, Note_on_c, 9, 42, 54
1, 35760, Note_on_c, 9, 35, 74
1, 35768, Note_on_c, 9, 42, 0
1, 35999, Note_on_c, 9, 41, 0
1, 35999, Note_on_c, 9, 35, 0
1, 36000, Note_on_c, 9, 64, 26
1, 36000, Note_on_c, 9, 46, 40
1, 36000, Note_on_c, 9, 50, 44
1, 36008, Note_on_c, 9, 64, 0
1, 36008, Note_on_c, 9, 46, 0
1, 36239, Note_on_c, 9, 50, 0
1, 36240, Note_on_c, 9, 42, 54
1, 36248, Note_on_c, 9, 42, 0
1, 36480, Note_on_c, 9, 46, 40
1, 36480, Note_on_c, 9, 35, 40
1, 36488, Note_on_c, 9, 46, 0
1, 36719, Note_on_c, 9, 35, 0
1, 36720, Note_on_c, 9, 64, 42
1, 36720, Note_on_c, 9, 50, 46
1, 36720, Note_on_c, 9, 42, 54
1, 36720, Note_on_c, 9, 35, 38
1, 36728, Note_on_c, 9, 64, 0
1, 36728, Note_on_c, 9, 42, 0
1, 36959, Note_on_c, 9, 50, 0
1, 36959, Note_on_c, 9, 35, 0
1, 36960, Note_on_c, 9, 41, 28
1, 36960, Note_on_c, 9, 35, 95
1, 37199, Note_on_c, 9, 41, 0
1, 37199, Note_on_c, 9, 35, 0
1, 37200, Note_on_c, 9, 64, 44
1, 37200, Note_on_c, 9, 50, 40
1, 37200, Note_on_c, 9, 42, 54
1, 37200, Note_on_c, 9, 35, 33
1, 37208, Note_on_c, 9, 64, 0
1, 37208, Note_on_c, 9, 42, 0
1, 37439, Note_on_c, 9, 50, 0
1, 37439, Note_on_c, 9, 35, 0
1, 37440, Note_on_c, 9, 35, 31
1, 37679, Note_on_c, 9, 35, 0
1, 37680, Note_on_c, 9, 41, 28
1, 37680, Note_on_c, 9, 42, 54
1, 37680, Note_on_c, 9, 35, 71
1, 37688, Note_on_c, 9, 42, 0
1, 37919, Note_on_c, 9, 41, 0
1, 37919, Note_on_c, 9, 35, 0
1, 37920, Note_on_c, 9, 64, 46
1, 37920, Note_on_c, 9, 46, 40
1, 37920, Note_on_c, 9, 50, 52
1, 37920, Note_on_c, 9, 35, 33
1, 37928, Note_on_c, 9, 64, 0
1, 37928, Note_on_c, 9, 46, 0
1, 38159, Note_on_c, 9, 50, 0
1, 38159, Note_on_c, 9, 35, 0
1, 38160, Note_on_c, 9, 42, 54
1, 38160, Note_on_c, 9, 35, 29
1, 38168, Note_on_c, 9, 42, 0
1, 38399, Note_on_c, 9, 35, 0
1, 38400, Note_on_c, 9, 46, 40
1, 38408, Note_on_c, 9, 46, 0
1, 38640, Note_on_c, 9, 64, 44
1, 38640, Note_on_c, 9, 50, 52
1, 38640, Note_on_c, 9, 42, 54
1, 38648, Note_on_c, 9, 64, 0
1, 38648, Note_on_c, 9, 42, 0
1, 38879, Note_on_c, 9, 50, 0
1, 39120, Note_on_c, 9, 64, 40
1, 39120, Note_on_c, 9, 50, 52
1, 39120, Note_on_c, 9, 42, 54
1, 39128, Note_on_c, 9, 64, 0
1, 39128, Note_on_c, 9, 42, 0
1, 39359, Note_on_c, 9, 50, 0
1, 39600, Note_on_c, 9, 41, 28
1, 39600, Note_on_c, 9, 42, 54
1, 39600, Note_on_c, 9, 35, 74
1, 39608, Note_on_c, 9, 42, 0
1, 39839, Note_on_c, 9, 41, 0
1, 39839, Note_on_c, 9, 35, 0
1, 39840, Note_on_c, 9, 64, 34
1, 39840, Note_on_c, 9, 46, 40
1, 39840, Note_on_c, 9, 50, 48
1, 39848, Note_on_c, 9, 64, 0
1, 39848, Note_on_c, 9, 46, 0
1, 40079, Note_on_c, 9, 50, 0
1, 40080, Note_on_c, 9, 42, 54
1, 40088, Note_on_c, 9, 42, 0
1, 40320, Note_on_c, 9, 46, 40
1, 40320, Note_on_c, 9, 35, 40
1, 40328, Note_on_c, 9, 46, 0
1, 40559, Note_on_c, 9, 35, 0
1, 40560, Note_on_c, 9, 64, 40
1, 40560, Note_on_c, 9, 50, 46
1, 40560, Note_on_c, 9, 42, 54
1, 40560, Note_on_c, 9, 35, 38
1, 40568, Note_on_c, 9, 64, 0
1, 40568, Note_on_c, 9, 42, 0
1, 40799, Note_on_c, 9, 50, 0
1, 40799, Note_on_c, 9, 35, 0
1, 40800, Note_on_c, 9, 41, 27
1, 40800, Note_on_c, 9, 35, 95
1, 41039, Note_on_c, 9, 41, 0
1, 41039, Note_on_c, 9, 35, 0
1, 41040, Note_on_c, 9, 64, 44
1, 41040, Note_on_c, 9, 50, 58
1, 41040, Note_on_c, 9, 42, 54
1, 41040, Note_on_c, 9, 35, 33
1, 41048, Note_on_c, 9, 64, 0
1, 41048, Note_on_c, 9, 42, 0
1, 41279, Note_on_c, 9, 50, 0
1, 41279, Note_on_c, 9, 35, 0
1, 41280, Note_on_c, 9, 35, 31
1, 41519, Note_on_c, 9, 35, 0
1, 41520, Note_on_c, 9, 41, 27
1, 41520, Note_on_c, 9, 42, 54
1, 41520, Note_on_c, 9, 35, 71
1, 41528, Note_on_c, 9, 42, 0
1, 41759, Note_on_c, 9, 41, 0
1, 41759, Note_on_c, 9, 35, 0
1, 41760, Note_on_c, 9, 64, 34
1, 41760, Note_on_c, 9, 46, 40
1, 41760, Note_on_c, 9, 50, 56
1, 41760, Note_on_c, 9, 35, 33
1, 41768, Note_on_c, 9, 64, 0
1, 41768, Note_on_c, 9, 46, 0
1, 41999, Note_on_c, 9, 50, 0
1, 41999, Note_on_c, 9, 35, 0
1, 42000, Note_on_c, 9, 42, 54
1, 42000, Note_on_c, 9, 35, 29
1, 42008, Note_on_c, 9, 42, 0
1, 42239, Note_on_c, 9, 35, 0
1, 42240, Note_on_c, 9, 46, 40
1, 42248, Note_on_c, 9, 46, 0
1, 42480, Note_on_c, 9, 64, 30
1, 42480, Note_on_c, 9, 50, 50
1, 42480, Note_on_c, 9, 42, 54
1, 42488, Note_on_c, 9, 64, 0
1, 42488, Note_on_c, 9, 42, 0
1, 42719, Note_on_c, 9, 50, 0
1, 42960, Note_on_c, 9, 64, 36
1, 42960, Note_on_c, 9, 50, 38
1, 42960, Note_on_c, 9, 42, 54
1, 42968, Note_on_c, 9, 64, 0
1, 42968, Note_on_c, 9, 42, 0
1, 43199, Note_on_c, 9, 50, 0
1, 43440, Note_on_c, 9, 41, 29
1, 43440, Note_on_c, 9, 42, 54
1, 43440, Note_on_c, 9, 35, 74
1, 43448, Note_on_c, 9, 42, 0
1, 43679, Note_on_c, 9, 41, 0
1, 43679, Note_on_c, 9, 35, 0
1, 43680, Note_on_c, 9, 64, 26
1, 43680, Note_on_c, 9, 46, 40
1, 43680, Note_on_c, 9, 50, 44
1, 43688, Note_on_c, 9, 64, 0
1, 43688, Note_on_c, 9, 46, 0
1, 43919, Note_on_c, 9, 50, 0
1, 43920, Note_on_c, 9, 42, 54
1, 43928, Note_on_c, 9, 42, 0
1, 44160, Note_on_c, 9, 46, 40
1, 44160, Note_on_c, 9, 35, 40
1, 44168, Note_on_c, 9, 46, 0
1, 44399, Note_on_c, 9, 35, 0
1, 44400, Note_on_c, 9, 64, 42
1, 44400, Note_on_c, 9, 50, 46
1, 44400, Note_on_c, 9, 42, 54
1, 44400, Note_on_c, 9, 35, 38
1, 44408, Note_on_c, 9, 64, 0
1, 44408, Note_on_c, 9, 42, 0
1, 44639, Note_on_c, 9, 50, 0
1, 44639, Note_on_c, 9, 35, 0
1, 44640, Note_on_c, 9, 41, 28
1, 44640, Note_on_c, 9, 35, 95
1, 44879, Note_on_c, 9, 41, 0
1, 44879, Note_on_c, 9, 35, 0
1, 44880, Note_on_c, 9, 64, 44
1, 44880, Note_on_c, 9, 50, 40
1, 44880, Note_on_c, 9, 42, 54
1, 44880, Note_on_c, 9, 35, 33
1, 44888, Note_on_c, 9, 64, 0
1, 44888, Note_on_c, 9, 42, 0
1, 45119, Note_on_c, 9, 50, 0
1, 45119, Note_on_c, 9, 35, 0
1, 45120, Note_on_c, 9, 35, 31
1, 45359, Note_on_c, 9, 35, 0
1, 45360, Note_on_c, 9, 41, 28
1, 45360, Note_on_c, 9, 42, 54
1, 45360, Note_on_c, 9, 35, 71
1, 45368, Note_on_c, 9, 42, 0
1, 45599, Note_on_c, 9, 41, 0
1, 45599, Note_on_c, 9, 35, 0
1, 45600, Note_on_c, 9, 64, 46
1, 45600, Note_on_c, 9, 46, 40
1, 45600, Note_on_c, 9, 50, 52
1, 45600, Note_on_c, 9, 35, 33
1, 45608, Note_on_c, 9, 64, 0
1, 45608, Note_on_c, 9, 46, 0
1, 45839, Note_on_c, 9, 50, 0
1, 45839, Note_on_c, 9, 35, 0
1, 45840, Note_on_c, 9, 42, 54
1, 45840, Note_on_c, 9, 35, 29
1, 45848, Note_on_c, 9, 42, 0
1, 46079, Note_on_c, 9, 35, 0
1, 46080, Note_on_c, 9, 46, 40
1, 46088, Note_on_c, 9, 46, 0
1, 46320, Note_on_c, 9, 64, 44
1, 46320, Note_on_c, 9, 50, 52
1, 46320, Note_on_c, 9, 42, 54
1, 46328, Note_on_c, 9, 64, 0
1, 46328, Note_on_c, 9, 42, 0
1, 46559, Note_on_c, 9, 50, 0
1, 46800, Note_on_c, 9, 64, 40
1, 46800, Note_on_c, 9, 50, 52
1, 46800, Note_on_c, 9, 42, 54
1, 46808, Note_on_c, 9, 64, 0
1, 46808, Note_on_c, 9, 42, 0
1, 47039, Note_on_c, 9, 50, 0
1, 47280, Note_on_c, 9, 41, 28
1, 47280, Note_on_c, 9, 42, 54
1, 47280, Note_on_c, 9, 35, 74
1, 47288, Note_on_c, 9, 42, 0
1, 47519, Note_on_c, 9, 41, 0
1, 47519, Note_on_c, 9, 35, 0
1, 47520, Note_on_c, 9, 64, 34
1, 47520, Note_on_c, 9, 46, 40
1, 47520, Note_on_c, 9, 50, 48
1, 47528, Note_on_c, 9, 64, 0
1, 47528, Note_on_c, 9, 46, 0
1, 47759, Note_on_c, 9, 50, 0
1, 47760, Note_on_c, 9, 42, 54
1, 47768, Note_on_c, 9, 42, 0
1, 48000, Note_on_c, 9, 46, 40
1, 48000, Note_on_c, 9, 35, 40
1, 48008, Note_on_c, 9, 46, 0
1, 48239, Note_on_c, 9, 35, 0
1, 48240, Note_on_c, 9, 64, 40
1, 48240, Note_on_c, 9, 50, 46
1, 48240, Note_on_c, 9, 42, 54
1, 48240, Note_on_c, 9, 35, 38
1, 48248, Note_on_c, 9, 64, 0
1, 48248, Note_on_c, 9, 42, 0
1, 48479, Note_on_c, 9, 50, 0
1, 48479, Note_on_c, 9, 35, 0
1, 48480, Note_on_c, 9, 41, 27
1, 48480, Note_on_c, 9, 35, 95
1, 48719, Note_on_c, 9, 41, 0
1, 48719, Note_on_c, 9, 35, 0
1, 48720, Note_on_c, 9, 64, 44
1, 48720, Note_on_c, 9, 50, 58
1, 48720, Note_on_c, 9, 42, 54
1, 48720, Note_on_c, 9, 35, 33
1, 48728, Note_on_c, 9, 64, 0
1, 48728, Note_on_c, 9, 42, 0
1, 48959, Note_on_c, 9, 50, 0
1, 48959, Note_on_c, 9, 35, 0
1, 48960, Note_on_c, 9, 35, 31
1, 49199, Note_on_c, 9, 35, 0
1, 49200, Note_on_c, 9, 41, 27
1, 49200, Note_on_c, 9, 42, 54
1, 49200, Note_on_c, 9, 35, 71
1, 49208, Note_on_c, 9, 42, 0
1, 49439, Note_on_c, 9, 41, 0
1, 49439, Note_on_c, 9, 35, 0
1, 49440, Note_on_c, 9, 64, 34
1, 49440, Note_on_c, 9, 46, 40
1, 49440, Note_on_c, 9, 50, 56
1, 49440, Note_on_c, 9, 35, 33
1, 49448, Note_on_c, 9, 64, 0
1, 49448, Note_on_c, 9, 46, 0
1, 49679, Note_on_c, 9, 50, 0
1, 49679, Note_on_c, 9, 35, 0
1, 49680, Note_on_c, 9, 42, 54
1, 49680, Note_on_c, 9, 35, 29
1, 49688, Note_on_c, 9, 42, 0
1, 49919, Note_on_c, 9, 35, 0
1, 49920, Note_on_c, 9, 46, 40
1, 49928, Note_on_c, 9, 46, 0
1, 50160, Note_on_c, 9, 64, 30
1, 50160, Note_on_c, 9, 50, 50
1, 50160, Note_on_c, 9, 42, 54
1, 50168, Note_on_c, 9, 64, 0
1, 50168, Note_on_c, 9, 42, 0
1, 50399, Note_on_c, 9, 50, 0
1, 50640, Note_on_c, 9, 64, 36
1, 50640, Note_on_c, 9, 50, 38
1, 50640, Note_on_c, 9, 42, 54
1, 50648, Note_on_c, 9, 64, 0
1, 50648, Note_on_c, 9, 42, 0
1, 50879, Note_on_c, 9, 50, 0
1, 51120, Note_on_c, 9, 41, 29
1, 51120, Note_on_c, 9, 42, 54
1, 51120, Note_on_c, 9, 35, 74
1, 51128, Note_on_c, 9, 42, 0
1, 51359, Note_on_c, 9, 41, 0
1, 51359, Note_on_c, 9, 35, 0
1, 51360, Note_on_c, 9, 64, 26
1, 51360, Note_on_c, 9, 46, 40
1, 51360, Note_on_c, 9, 50, 44
1, 51368, Note_on_c, 9, 64, 0
1, 51368, Note_on_c, 9, 46, 0
1, 51599, Note_on_c, 9, 50, 0
1, 51600, Note_on_c, 9, 42, 54
1, 51608, Note_on_c, 9, 42, 0
1, 51840, Note_on_c, 9, 46, 40
1, 51840, Note_on_c, 9, 35, 40
1, 51848, Note_on_c, 9, 46, 0
1, 52079, Note_on_c, 9, 35, 0
1, 52080, Note_on_c, 9, 64, 42
1, 52080, Note_on_c, 9, 50, 46
1, 52080, Note_on_c, 9, 42, 54
1, 52080, Note_on_c, 9, 35, 38
1, 52088, Note_on_c, 9, 64, 0
1, 52088, Note_on_c, 9, 42, 0
1, 52319, Note_on_c, 9, 50, 0
1, 52319, Note_on_c, 9, 35, 0
1, 52320, Note_on_c, 9, 41, 28
1, 52320, Note_on_c, 9, 35, 95
1, 52559, Note_on_c, 9, 41, 0
1, 52559, Note_on_c, 9, 35, 0
1, 52560, Note_on_c, 9, 64, 44
1, 52560, Note_on_c, 9, 50, 40
1, 52560, Note_on_c, 9, 42, 54
1, 52560, Note_on_c, 9, 35, 33
1, 52568, Note_on_c, 9, 64, 0
1, 52568, Note_on_c, 9, 42, 0
1, 52799, Note_on_c, 9, 50, 0
1, 52799, Note_on_c, 9, 35, 0
1, 52800, Note_on_c, 9, 35, 31
1, 53039, Note_on_c, 9, 35, 0
1, 53040, Note_on_c, 9, 41, 28
1, 53040, Note_on_c, 9, 42, 54
1, 53040, Note_on_c, 9, 35, 71
1, 53048, Note_on_c, 9, 42, 0
1, 53279, Note_on_c, 9, 41, 0
1, 53279, Note_on_c, 9, 35, 0
1, 53280, Note_on_c, 9, 64, 46
1, 53280, Note_on_c, 9, 46, 40
1, 53280, Note_on_c, 9, 50, 52
1, 53280, Note_on_c, 9, 35, 33
1, 53288, Note_on_c, 9, 64, 0
1, 53288, Note_on_c, 9, 46, 0
1, 53519, Note_on_c, 9, 50, 0
1, 53519, Note_on_c, 9, 35, 0
1, 53520, Note_on_c, 9, 42, 54
1, 53520, Note_on_c, 9, 35, 29
1, 53528, Note_on_c, 9, 42, 0
1, 53759, Note_on_c, 9, 35, 0
1, 53760, Note_on_c, 9, 46, 40
1, 53768, Note_on_c, 9, 46, 0
1, 54000, Note_on_c, 9, 64, 44
1, 54000, Note_on_c, 9, 50, 52
1, 54000, Note_on_c, 9, 42, 54
1, 54008, Note_on_c, 9, 64, 0
1, 54008, Note_on_c, 9, 42, 0
1, 54239, Note_on_c, 9, 50, 0
1, 54480, Note_on_c, 9, 64, 40
1, 54480, Note_on_c, 9, 50, 52
1, 54480, Note_on_c, 9, 42, 54
1, 54488, Note_on_c, 9, 64, 0
1, 54488, Note_on_c, 9, 42, 0
1, 54719, Note_on_c, 9, 50, 0
1, 54960, Note_on_c, 9, 41, 28
1, 54960, Note_on_c, 9, 42, 54
1, 54960, Note_on_c, 9, 35, 74
1, 54968, Note_on_c, 9, 42, 0
1, 55199, Note_on_c, 9, 41, 0
1, 55199, Note_on_c, 9, 35, 0
1, 55200, Note_on_c, 9, 64, 34
1, 55200, Note_on_c, 9, 46, 40
1, 55200, Note_on_c, 9, 50, 48
1, 55208, Note_on_c, 9, 64, 0
1, 55208, Note_on_c, 9, 46, 0
1, 55439, Note_on_c, 9, 50, 0
1, 55440, Note_on_c, 9, 42, 54
1, 55448, Note_on_c, 9, 42, 0
1, 55680, Note_on_c, 9, 46, 40
1, 55680, Note_on_c, 9, 35, 40
1, 55688, Note_on_c, 9, 46, 0
1, 55919, Note_on_c, 9, 35, 0
1, 55920, Note_on_c, 9, 64, 40
1, 55920, Note_on_c, 9, 50, 46
1, 55920, Note_on_c, 9, 42, 54
1, 55920, Note_on_c, 9, 35, 38
1, 55928, Note_on_c, 9, 64, 0
1, 55928, Note_on_c, 9, 42, 0
1, 56159, Note_on_c, 9, 50, 0
1, 56159, Note_on_c, 9, 35, 0
1, 56160, Note_on_c, 9, 41, 27
1, 56160, Note_on_c, 9, 35, 95
1, 56399, Note_on_c, 9, 41, 0
1, 56399, Note_on_c, 9, 35, 0
1, 56400, Note_on_c, 9, 64, 44
1, 56400, Note_on_c, 9, 50, 58
1, 56400, Note_on_c, 9, 42, 54
1, 56400, Note_on_c, 9, 35, 33
1, 56408, Note_on_c, 9, 64, 0
1, 56408, Note_on_c, 9, 42, 0
1, 56639, Note_on_c, 9, 50, 0
1, 56639, Note_on_c, 9, 35, 0
1, 56640, Note_on_c, 9, 35, 31
1, 56879, Note_on_c, 9, 35, 0
1, 56880, Note_on_c, 9, 41, 27
1, 56880, Note_on_c, 9, 42, 54
1, 56880, Note_on_c, 9, 35, 71
1, 56888, Note_on_c, 9, 42, 0
1, 57119, Note_on_c, 9, 41, 0
1, 57119, Note_on_c, 9, 35, 0
1, 57120, Note_on_c, 9, 64, 34
1, 57120, Note_on_c, 9, 46, 40
1, 57120, Note_on_c, 9, 50, 56
1, 57120, Note_on_c, 9, 35, 33
1, 57128, Note_on_c, 9, 64, 0
1, 57128, Note_on_c, 9, 46, 0
1, 57359, Note_on_c, 9, 50, 0
1, 57359, Note_on_c, 9, 35, 0
1, 57360, Note_on_c, 9, 42, 54
1, 57360, Note_on_c, 9, 35, 29
1, 57368, Note_on_c, 9, 42, 0
1, 57599, Note_on_c, 9, 35, 0
1, 57600, Note_on_c, 9, 46, 40
1, 57608, Note_on_c, 9, 46, 0
1, 57840, Note_on_c, 9, 64, 30
1, 57840, Note_on_c, 9, 50, 50
1, 57840, Note_on_c, 9, 42, 54
1, 57848, Note_on_c, 9, 64, 0
1, 57848, Note_on_c, 9, 42, 0
1, 58079, Note_on_c, 9, 50, 0
1, 58320, Note_on_c, 9, 64, 36
1, 58320, Note_on_c, 9, 50, 38
1, 58320, Note_on_c, 9, 42, 54
1, 58328, Note_on_c, 9, 64, 0
1, 58328, Note_on_c, 9, 42, 0
1, 58559, Note_on_c, 9, 50, 0
1, 58800, Note_on_c, 9, 41, 29
1, 58800, Note_on_c, 9, 42, 54
1, 58800, Note_on_c, 9, 35, 74
1, 58808, Note_on_c, 9, 42, 0
1, 59039, Note_on_c, 9, 41, 0
1, 59039, Note_on_c, 9, 35, 0
1, 59040, Note_on_c, 9, 64, 26
1, 59040, Note_on_c, 9, 46, 40
1, 59040, Note_on_c, 9, 50, 44
1, 59048, Note_on_c, 9, 64, 0
1, 59048, Note_on_c, 9, 46, 0
1, 59279, Note_on_c, 9, 50, 0
1, 59280, Note_on_c, 9, 42, 54
1, 59288, Note_on_c, 9, 42, 0
1, 59520, Note_on_c, 9, 46, 40
1, 59520, Note_on_c, 9, 35, 40
1, 59528, Note_on_c, 9, 46, 0
1, 59759, Note_on_c, 9, 35, 0
1, 59760, Note_on_c, 9, 64, 42
1, 59760, Note_on_c, 9, 50, 46
1, 59760, Note_on_c, 9, 42, 54
1, 59760, Note_on_c, 9, 35, 38
1, 59768, Note_on_c, 9, 64, 0
1, 59768, Note_on_c, 9, 42, 0
1, 59999, Note_on_c, 9, 50, 0
1, 59999, Note_on_c, 9, 35, 0
1, 60000, Note_on_c, 9, 41, 28
1, 60000, Note_on_c, 9, 35, 95
1, 60239, Note_on_c, 9, 41, 0
1, 60239, Note_on_c, 9, 35, 0
1, 60240, Note_on_c, 9, 64, 44
1, 60240, Note_on_c, 9, 50, 40
1, 60240, Note_on_c, 9, 42, 54
1, 60240, Note_on_c, 9, 35, 33
1, 60248, Note_on_c, 9, 64, 0
1, 60248, Note_on_c, 9, 42, 0
1, 60479, Note_on_c, 9, 50, 0
1, 60479, Note_on_c, 9, 35, 0
1, 60480, Note_on_c, 9, 35, 31
1, 60719, Note_on_c, 9, 35, 0
1, 60720, Note_on_c, 9, 41, 28
1, 60720, Note_on_c, 9, 42, 54
1, 60720, Note_on_c, 9, 35, 71
1, 60728, Note_on_c, 9, 42, 0
1, 60959, Note_on_c, 9, 41, 0
1, 60959, Note_on_c, 9, 35, 0
1, 60960, Note_on_c, 9, 64, 46
1, 60960, Note_on_c, 9, 46, 40
1, 60960, Note_on_c, 9, 50, 52
1, 60960, Note_on_c, 9, 35, 33
1, 60968, Note_on_c, 9, 64, 0
1, 60968, Note_on_c, 9, 46, 0
1, 61199, Note_on_c, 9, 50, 0
1, 61199, Note_on_c, 9, 35, 0
1, 61200, Note_on_c, 9, 42, 54
1, 61200, Note_on_c, 9, 35, 29
1, 61208, Note_on_c, 9, 42, 0
1, 61439, Note_on_c, 9, 35, 0
1, 61440, Note_on_c, 9, 46, 40
1, 61448, Note_on_c, 9, 46, 0
1, 61680, Note_on_c, 9, 64, 44
1, 61680, Note_on_c, 9, 50, 52
1, 61680, Note_on_c, 9, 42, 54
1, 61688, Note_on_c, 9, 64, 0
1, 61688, Note_on_c, 9, 42, 0
1, 61919, Note_on_c, 9, 50, 0
1, 62160, Note_on_c, 9, 64, 40
1, 62160, Note_on_c, 9, 50, 52
1, 62160, Note_on_c, 9, 42, 54
1, 62168, Note_on_c, 9, 64, 0
1, 62168, Note_on_c, 9, 42, 0
1, 62399, Note_on_c, 9, 50, 0
1, 62640, Note_on_c, 9, 41, 28
1, 62640, Note_on_c, 9, 42, 54
1, 62640, Note_on_c, 9, 35, 74
1, 62648, Note_on_c, 9, 42, 0
1, 62879, Note_on_c, 9, 41, 0
1, 62879, Note_on_c, 9, 35, 0
1, 62880, Note_on_c, 9, 64, 34
1, 62880, Note_on_c, 9, 46, 40
1, 62880, Note_on_c, 9, 50, 48
1, 62888, Note_on_c, 9, 64, 0
1, 62888, Note_on_c, 9, 46, 0
1, 63119, Note_on_c, 9, 50, 0
1, 63120, Note_on_c, 9, 42, 54
1, 63128, Note_on_c, 9, 42, 0
1, 63360, Note_on_c, 9, 46, 40
1, 63360, Note_on_c, 9, 35, 40
1, 63368, Note_on_c, 9, 46, 0
1, 63599, Note_on_c, 9, 35, 0
1, 63600, Note_on_c, 9, 64, 40
1, 63600, Note_on_c, 9, 50, 46
1, 63600, Note_on_c, 9, 42, 54
1, 63600, Note_on_c, 9, 35, 38
1, 63608, Note_on_c, 9, 64, 0
1, 63608, Note_on_c, 9, 42, 0
1, 63839, Note_on_c, 9, 50, 0
1, 63839, Note_on_c, 9, 35, 0
1, 63840, Note_on_c, 9, 41, 27
1, 63840, Note_on_c, 9, 35, 95
1, 64079, Note_on_c, 9, 41, 0
1, 64079, Note_on_c, 9, 35, 0
1, 64080, Note_on_c, 9, 64, 44
1, 64080, Note_on_c, 9, 50, 58
1, 64080, Note_on_c, 9, 42, 54
1, 64080, Note_on_c, 9, 35, 33
1, 64088, Note_on_c, 9, 64, 0
1, 64088, Note_on_c, 9, 42, 0
1, 64319, Note_on_c, 9, 50, 0
1, 64319, Note_on_c, 9, 35, 0
1, 64320, Note_on_c, 9, 35, 31
1, 64559, Note_on_c, 9, 35, 0
1, 64560, Note_on_c, 9, 41, 27
1, 64560, Note_on_c, 9, 42, 54
1, 64560, Note_on_c, 9, 35, 71
1, 64568, Note_on_c, 9, 42, 0
1, 64799, Note_on_c, 9, 41, 0
1, 64799, Note_on_c, 9, 35, 0
1, 64800, Note_on_c, 9, 64, 34
1, 64800, Note_on_c, 9, 46, 40
1, 64800, Note_on_c, 9, 50, 56
1, 64800, Note_on_c, 9, 35, 33
1, 64808, Note_on_c, 9, 64, 0
1, 64808, Note_on_c, 9, 46, 0
1, 65039, Note_on_c, 9, 50, 0
1, 65039, Note_on_c, 9, 35, 0
1, 65040, Note_on_c, 9, 42, 54
1, 65040, Note_on_c, 9, 35, 29
1, 65048, Note_on_c, 9, 42, 0
1, 65279, Note_on_c, 9, 35, 0
1, 65280, Note_on_c, 9, 46, 40
1, 65288, Note_on_c, 9, 46, 0
1, 65520, Note_on_c, 9, 64, 30
1, 65520, Note_on_c, 9, 50, 50
1, 65520, Note_on_c, 9, 42, 54
1, 65528, Note_on_c, 9, 64, 0
1, 65528, Note_on_c, 9, 42, 0
1, 65759, Note_on_c, 9, 50, 0
1, 66000, Note_on_c, 9, 64, 36
1, 66000, Note_on_c, 9, 50, 38
1, 66000, Note_on_c, 9, 42, 54
1, 66008, Note_on_c, 9, 64, 0
1, 66008, Note_on_c, 9, 42, 0
1, 66239, Note_on_c, 9, 50, 0
1, 66480, Note_on_c, 9, 41, 29
1, 66480, Note_on_c, 9, 42, 54
1, 66480, Note_on_c, 9, 35, 74
1, 66488, Note_on_c, 9, 42, 0
1, 66719, Note_on_c, 9, 41, 0
1, 66719, Note_on_c, 9, 35, 0
1, 66720, Note_on_c, 9, 64, 26
1, 66720, Note_on_c, 9, 46, 40
1, 66720, Note_on_c, 9, 50, 44
1, 66728, Note_on_c, 9, 64, 0
1, 66728, Note_on_c, 9, 46, 0
1, 66959, Note_on_c, 9, 50, 0
1, 66960, Note_on_c, 9, 42, 54
1, 66968, Note_on_c, 9, 42, 0
1, 67200, Note_on_c, 9, 46, 40
1, 67200, Note_on_c, 9, 35, 40
1, 67208, Note_on_c, 9, 46, 0
1, 67439, Note_on_c, 9, 35, 0
1, 67440, Note_on_c, 9, 64, 42
1, 67440, Note_on_c, 9, 50, 46
1, 67440, Note_on_c, 9, 42, 54
1, 67440, Note_on_c, 9, 35, 38
1, 67448, Note_on_c, 9, 64, 0
1, 67448, Note_on_c, 9, 42, 0
1, 67679, Note_on_c, 9, 50, 0
1, 67679, Note_on_c, 9, 35, 0
1, 67680, Note_on_c, 9, 41, 28
1, 67680, Note_on_c, 9, 35, 95
1, 67919, Note_on_c, 9, 41, 0
1, 67919, Note_on_c, 9, 35, 0
1, 67920, Note_on_c, 9, 64, 44
1, 67920, Note_on_c, 9, 50, 40
1, 67920, Note_on_c, 9, 42, 54
1, 67920, Note_on_c, 9, 35, 33
1, 67928, Note_on_c, 9, 64, 0
1, 67928, Note_on_c, 9, 42, 0
1, 68159, Note_on_c, 9, 50, 0
1, 68159, Note_on_c, 9, 35, 0
1, 68160, Note_on_c, 9, 35, 31
1, 68399, Note_on_c, 9, 35, 0
1, 68400, Note_on_c, 9, 41, 28
1, 68400, Note_on_c, 9, 42, 54
1, 68400, Note_on_c, 9, 35, 71
1, 68408, Note_on_c, 9, 42, 0
1, 68639, Note_on_c, 9, 41, 0
1, 68639, Note_on_c, 9, 35, 0
1, 68640, Note_on_c, 9, 64, 46
1, 68640, Note_on_c, 9, 46, 40
1, 68640, Note_on_c, 9, 50, 52
1, 68640, Note_on_c, 9, 35, 33
1, 68648, Note_on_c, 9, 64, 0
1, 68648, Note_on_c, 9, 46, 0
1, 68879, Note_on_c, 9, 50, 0
1, 68879, Note_on_c, 9, 35, 0
1, 68880, Note_on_c, 9, 42, 54
1, 68880, Note_on_c, 9, 35, 29
1, 68888, Note_on_c, 9, 42, 0
1, 69119, Note_on_c, 9, 35, 0
1, 69120, Note_on_c, 9, 46, 40
1, 69128, Note_on_c, 9, 46, 0
1, 69360, Note_on_c, 9, 64, 44
1, 69360, Note_on_c, 9, 50, 52
1, 69360, Note_on_c, 9, 42, 54
1, 69368, Note_on_c, 9, 64, 0
1, 69368, Note_on_c, 9, 42, 0
1, 69599, Note_on_c, 9, 50, 0
1, 69840, Note_on_c, 9, 64, 40
1, 69840, Note_on_c, 9, 50, 52
1, 69840, Note_on_c, 9, 42, 54
1, 69848, Note_on_c, 9, 64, 0
1, 69848, Note_on_c, 9, 42, 0
1, 70079, Note_on_c, 9, 50, 0
1, 70320, Note_on_c, 9, 41, 28
1, 70320, Note_on_c, 9, 42, 54
1, 70320, Note_on_c, 9, 35, 74
1, 70328, Note_on_c, 9, 42, 0
1, 70559, Note_on_c, 9, 41, 0
1, 70559, Note_on_c, 9, 35, 0
1, 70560, Note_on_c, 9, 64, 34
1, 70560, Note_on_c, 9, 46, 40
1, 70560, Note_on_c, 9, 50, 48
1, 70568, Note_on_c, 9, 64, 0
1, 70568, Note_on_c, 9, 46, 0
1, 70799, Note_on_c, 9, 50, 0
1, 70800, Note_on_c, 9, 42, 54
1, 70808, Note_on_c, 9, 42, 0
1, 71040, Note_on_c, 9, 46, 40
1, 71040, Note_on_c, 9, 35, 40
1, 71048, Note_on_c, 9, 46, 0
1, 71279, Note_on_c, 9, 35, 0
1, 71280, Note_on_c, 9, 64, 40
1, 71280, Note_on_c, 9, 50, 46
1, 71280, Note_on_c, 9, 42, 54
1, 71280, Note_on_c, 9, 35, 38
1, 71288, Note_on_c, 9, 64, 0
1, 71288, Note_on_c, 9, 42, 0
1, 71519, Note_on_c, 9, 50, 0
1, 71519, Note_on_c, 9, 35, 0
1, 71520, Note_on_c, 9, 41, 27
1, 71520, Note_on_c, 9, 35, 95
1, 71759, Note_on_c, 9, 41, 0
1, 71759, Note_on_c, 9, 35, 0
1, 71760, Note_on_c, 9, 64, 44
1, 71760, Note_on_c, 9, 50, 58
1, 71760, Note_on_c, 9, 42, 54
1, 71760, Note_on_c, 9, 35, 33
1, 71768, Note_on_c, 9, 64, 0
1, 71768, Note_on_c, 9, 42, 0
1, 71999, Note_on_c, 9, 50, 0
1, 71999, Note_on_c, 9, 35, 0
1, 72000, Note_on_c, 9, 35, 31
1, 72239, Note_on_c, 9, 35, 0
1, 72240, Note_on_c, 9, 41, 27
1, 72240, Note_on_c, 9, 42, 54
1, 72240, Note_on_c, 9, 35, 71
1, 72248, Note_on_c, 9, 42, 0
1, 72479, Note_on_c, 9, 41, 0
1, 72479, Note_on_c, 9, 35, 0
1, 72480, Note_on_c, 9, 64, 34
1, 72480, Note_on_c, 9, 46, 40
1, 72480, Note_on_c, 9, 50, 56
1, 72480, Note_on_c, 9, 35, 33
1, 72488, Note_on_c, 9, 64, 0
1, 72488, Note_on_c, 9, 46, 0
1, 72719, Note_on_c, 9, 50, 0
1, 72719, Note_on_c, 9, 35, 0
1, 72720, Note_on_c, 9, 42, 54
1, 72720, Note_on_c, 9, 35, 29
1, 72728, Note_on_c, 9, 42, 0
1, 72959, Note_on_c, 9, 35, 0
1, 72960, Note_on_c, 9, 46, 40
1, 72968, Note_on_c, 9, 46, 0
1, 73200, Note_on_c, 9, 64, 30
1, 73200, Note_on_c, 9, 50, 50
1, 73200, Note_on_c, 9, 42, 54
1, 73208, Note_on_c, 9, 64, 0
1, 73208, Note_on_c, 9, 42, 0
1, 73439, Note_on_c, 9, 50, 0
1, 73680, Note_on_c, 9, 64, 36
1, 73680, Note_on_c, 9, 50, 38
1, 73680, Note_on_c, 9, 42, 54
1, 73688, Note_on_c, 9, 64, 0
1, 73688, Note_on_c, 9, 42, 0
1, 73919, Note_on_c, 9, 50, 0
1, 74160, Note_on_c, 9, 41, 29
1, 74160, Note_on_c, 9, 42, 54
1, 74160, Note_on_c, 9, 35, 74
1, 74168, Note_on_c, 9, 42, 0
1, 74399, Note_on_c, 9, 41, 0
1, 74399, Note_on_c, 9, 35, 0
1, 74400, Note_on_c, 9, 64, 26
1, 74400, Note_on_c, 9, 46, 40
1, 74400, Note_on_c, 9, 50, 44
1, 74408, Note_on_c, 9, 64, 0
1, 74408, Note_on_c, 9, 46, 0
1, 74639, Note_on_c, 9, 50, 0
1, 74640, Note_on_c, 9, 42, 54
1, 74648, Note_on_c, 9, 42, 0
1, 74880, Note_on_c, 9, 46, 40
1, 74880, Note_on_c, 9, 35, 40
1, 74888, Note_on_c, 9, 46, 0
1, 75119, Note_on_c, 9, 35, 0
1, 75120, Note_on_c, 9, 64, 42
1, 75120, Note_on_c, 9, 50, 46
1, 75120, Note_on_c, 9, 42, 54
1, 75120, Note_on_c, 9, 35, 38
1, 75128, Note_on_c, 9, 64, 0
1, 75128, Note_on_c, 9, 42, 0
1, 75359, Note_on_c, 9, 50, 0
1, 75359, Note_on_c, 9, 35, 0
1, 75360, Note_on_c, 9, 41, 28
1, 75360, Note_on_c, 9, 35, 95
1, 75599, Note_on_c, 9, 41, 0
1, 75599, Note_on_c, 9, 35, 0
1, 75600, Note_on_c, 9, 64, 44
1, 75600, Note_on_c, 9, 50, 40
1, 75600, Note_on_c, 9, 42, 54
1, 75600, Note_on_c, 9, 35, 33
1, 75608, Note_on_c, 9, 64, 0
1, 75608, Note_on_c, 9, 42, 0
1, 75839, Note_on_c, 9, 50, 0
1, 75839, Note_on_c, 9, 35, 0
1, 75840, Note_on_c, 9, 35, 31
1, 76079, Note_on_c, 9, 35, 0
1, 76080, Note_on_c, 9, 41, 28
1, 76080, Note_on_c, 9, 42, 54
1, 76080, Note_on_c, 9, 35, 71
1, 76088, Note_on_c, 9, 42, 0
1, 76319, Note_on_c, 9, 41, 0
1, 76319, Note_on_c, 9, 35, 0
1, 76320, Note_on_c, 9, 64, 46
1, 76320, Note_on_c, 9, 46, 40
1, 76320, Note_on_c, 9, 50, 52
1, 76320, Note_on_c, 9, 35, 33
1, 76328, Note_on_c, 9, 64, 0
1, 76328, Note_on_c, 9, 46, 0
1, 76559, Note_on_c, 9, 50, 0
1, 76559, Note_on_c, 9, 35, 0
1, 76560, Note_on_c, 9, 42, 54
1, 76560, Note_on_c, 9, 35, 29
1, 76568, Note_on_c, 9, 42, 0
1, 76799, Note_on_c, 9, 35, 0
1, 76800, Note_on_c, 9, 46, 40
1, 76808, Note_on_c, 9, 46, 0
1, 77040, Note_on_c, 9, 64, 44
1, 77040, Note_on_c, 9, 50, 52
1, 77040, Note_on_c, 9, 42, 54
1, 77048, Note_on_c, 9, 64, 0
1, 77048, Note_on_c, 9, 42, 0
1, 77279, Note_on_c, 9, 50, 0
1, 77520, Note_on_c, 9, 64, 40
1, 77520, Note_on_c, 9, 50, 52
1, 77520, Note_on_c, 9, 42, 54
1, 77528, Note_on_c, 9, 64, 0
1, 77528, Note_on_c, 9, 42, 0
1, 77759, Note_on_c, 9, 50, 0
1, 78000, Note_on_c, 9, 41, 28
1, 78000, Note_on_c, 9, 42, 54
1, 78000, Note_on_c, 9, 35, 74
1, 78008, Note_on_c, 9, 42, 0
1, 78239, Note_on_c, 9, 41, 0
1, 78239, Note_on_c, 9, 35, 0
1, 78240, Note_on_c, 9, 64, 34
1, 78240, Note_on_c, 9, 46, 40
1, 78240, Note_on_c, 9, 50, 48
1, 78248, Note_on_c, 9, 64, 0
1, 78248, Note_on_c, 9, 46, 0
1, 78479, Note_on_c, 9, 50, 0
1, 78480, Note_on_c, 9, 42, 54
1, 78488, Note_on_c, 9, 42, 0
1, 78720, Note_on_c, 9, 46, 40
1, 78720, Note_on_c, 9, 35, 40
1, 78728, Note_on_c, 9, 46, 0
1, 78959, Note_on_c, 9, 35, 0
1, 78960, Note_on_c, 9, 64, 40
1, 78960, Note_on_c, 9, 50, 46
1, 78960, Note_on_c, 9, 42, 54
1, 78960, Note_on_c, 9, 35, 38
1, 78968, Note_on_c, 9, 64, 0
1, 78968, Note_on_c, 9, 42, 0
1, 79199, Note_on_c, 9, 50, 0
1, 79199, Note_on_c, 9, 35, 0
1, 79200, Note_on_c, 9, 41, 27
1, 79200, Note_on_c, 9, 35, 95
1, 79439, Note_on_c, 9, 41, 0
1, 79439, Note_on_c, 9, 35, 0
1, 79440, Note_on_c, 9, 64, 44
1, 79440, Note_on_c, 9, 50, 58
1, 79440, Note_on_c, 9, 42, 54
1, 79440, Note_on_c, 9, 35, 33
1, 79448, Note_on_c, 9, 64, 0
1, 79448, Note_on_c, 9, 42, 0
1, 79679, Note_on_c, 9, 50, 0
1, 79679, Note_on_c, 9, 35, 0
1, 79680, Note_on_c, 9, 35, 31
1, 79919, Note_on_c, 9, 35, 0
1, 79920, Note_on_c, 9, 41, 27
1, 79920, Note_on_c, 9, 42, 54
1, 79920, Note_on_c, 9, 35, 71
1, 79928, Note_on_c, 9, 42, 0
1, 80159, Note_on_c, 9, 41, 0
1, 80159, Note_on_c, 9, 35, 0
1, 80160, Note_on_c, 9, 64, 34
1, 80160, Note_on_c, 9, 46, 40
1, 80160, Note_on_c, 9, 50, 56
1, 80160, Note_on_c, 9, 35, 33
1, 80168, Note_on_c, 9, 64, 0
1, 80168, Note_on_c, 9, 46, 0
1, 80399, Note_on_c, 9, 50, 0
1, 80399, Note_on_c, 9, 35, 0
1, 80400, Note_on_c, 9, 42, 54
1, 80400, Note_on_c, 9, 35, 29
1, 80408, Note_on_c, 9, 42, 0
1, 80639, Note_on_c, 9, 35, 0
1, 80640, Note_on_c, 9, 46, 40
1, 80648, Note_on_c, 9, 46, 0
1, 80880, Note_on_c, 9, 64, 30
1, 80880, Note_on_c, 9, 50, 50
1, 80880, Note_on_c, 9, 42, 54
1, 80888, Note_on_c, 9, 64, 0
1, 80888, Note_on_c, 9, 42, 0
1, 81119, Note_on_c, 9, 50, 0
1, 81360, Note_on_c, 9, 64, 36
1, 81360, Note_on_c, 9, 50, 38
1, 81360, Note_on_c, 9, 42, 54
1, 81368, Note_on_c, 9, 64, 0
1, 81368, Note_on_c, 9, 42, 0
1, 81599, Note_on_c, 9, 50, 0
1, 81840, Note_on_c, 9, 41, 29
1, 81840, Note_on_c, 9, 42, 54
1, 81840, Note_on_c, 9, 35, 74
1, 81848, Note_on_c, 9, 42, 0
1, 82079, Note_on_c, 9, 41, 0
1, 82079, Note_on_c, 9, 35, 0
1, 82080, Note_on_c, 9, 64, 26
1, 82080, Note_on_c, 9, 46, 40
1, 82080, Note_on_c, 9, 50, 44
1, 82088, Note_on_c, 9, 64, 0
1, 82088, Note_on_c, 9, 46, 0
1, 82319, Note_on_c, 9, 50, 0
1, 82320, Note_on_c, 9, 42, 54
1, 82328, Note_on_c, 9, 42, 0
1, 82560, Note_on_c, 9, 46, 40
1, 82560, Note_on_c, 9, 35, 40
1, 82568, Note_on_c, 9, 46, 0
1, 82799, Note_on_c, 9, 35, 0
1, 82800, Note_on_c, 9, 64, 42
1, 82800, Note_on_c, 9, 50, 46
1, 82800, Note_on_c, 9, 42, 54
1, 82800, Note_on_c, 9, 35, 38
1, 82808, Note_on_c, 9, 64, 0
1, 82808, Note_on_c, 9, 42, 0
1, 83039, Note_on_c, 9, 50, 0
1, 83039, Note_on_c, 9, 35, 0
1, 83040, Note_on_c, 9, 41, 28
1, 83040, Note_on_c, 9, 35, 95
1, 83279, Note_on_c, 9, 41, 0
1, 83279, Note_on_c, 9, 35, 0
1, 83280, Note_on_c, 9, 64, 44
1, 83280, Note_on_c, 9, 50, 40
1, 83280, Note_on_c, 9, 42, 54
1, 83280, Note_on_c, 9, 35, 33
1, 83288, Note_on_c, 9, 64, 0
1, 83288, Note_on_c, 9, 42, 0
1, 83519, Note_on_c, 9, 50, 0
1, 83519, Note_on_c, 9, 35, 0
1, 83520, Note_on_c, 9, 35, 31
1, 83759, Note_on_c, 9, 35, 0
1, 83760, Note_on_c, 9, 41, 28
1, 83760, Note_on_c, 9, 42, 54
1, 83760, Note_on_c, 9, 35, 71
1, 83768, Note_on_c, 9, 42, 0
1, 83999, Note_on_c, 9, 41, 0
1, 83999, Note_on_c, 9, 35, 0
1, 84000, Note_on_c, 9, 64, 46
1, 84000, Note_on_c, 9, 46, 40
1, 84000, Note_on_c, 9, 50, 52
1, 84000, Note_on_c, 9, 35, 33
1, 84008, Note_on_c, 9, 64, 0
1, 84008, Note_on_c, 9, 46, 0
1, 84239, Note_on_c, 9, 50, 0
1, 84239, Note_on_c, 9, 35, 0
1, 84240, Note_on_c, 9, 42, 54
1, 84240, Note_on_c, 9, 35, 29
1, 84248, Note_on_c, 9, 42, 0
1, 84479, Note_on_c, 9, 35, 0
1, 84480, Note_on_c, 9, 46, 40
1, 84488, Note_on_c, 9, 46, 0
1, 84720, Note_on_c, 9, 64, 44
1, 84720, Note_on_c, 9, 50, 52
1, 84720, Note_on_c, 9, 42, 54
1, 84728, Note_on_c, 9, 64, 0
1, 84728, Note_on_c, 9, 42, 0
1, 84959, Note_on_c, 9, 50, 0
1, 85200, Note_on_c, 9, 64, 40
1, 85200, Note_on_c, 9, 50, 52
1, 85200, Note_on_c, 9, 42, 54
1, 85208, Note_on_c, 9, 64, 0
1, 85208, Note_on_c, 9, 42, 0
1, 85439, Note_on_c, 9, 50, 0
1, 85680, Note_on_c, 9, 41, 28
1, 85680, Note_on_c, 9, 42, 54
1, 85680, Note_on_c, 9, 35, 74
1, 85688, Note_on_c, 9, 42, 0
1, 85919, Note_on_c, 9, 41, 0
1, 85919, Note_on_c, 9, 35, 0
1, 85920, Note_on_c, 9, 64, 34
1, 85920, Note_on_c, 9, 46, 40
1, 85920, Note_on_c, 9, 50, 48
1, 85928, Note_on_c, 9, 64, 0
1, 85928, Note_on_c, 9, 46, 0
1, 86159, Note_on_c, 9, 50, 0
1, 86160, Note_on_c, 9, 42, 54
1, 86168, Note_on_c, 9, 42, 0
1, 86400, Note_on_c, 9, 46, 40
1, 86400, Note_on_c, 9, 35, 40
1, 86408, Note_on_c, 9, 46, 0
1, 86639, Note_on_c, 9, 35, 0
1, 86640, Note_on_c, 9, 64, 40
1, 86640, Note_on_c, 9, 50, 46
1, 86640, Note_on_c, 9, 42, 54
1, 86640, Note_on_c, 9, 35, 38
1, 86648, Note_on_c, 9, 64, 0
1, 86648, Note_on_c, 9, 42, 0
1, 86879, Note_on_c, 9, 50, 0
1, 86879, Note_on_c, 9, 35, 0
1, 86880, Note_on_c, 9, 41, 27
1, 86880, Note_on_c, 9, 35, 95
1, 87119, Note_on_c, 9, 41, 0
1, 87119, Note_on_c, 9, 35, 0
1, 87120, Note_on_c, 9, 64, 44
1, 87120, Note_on_c, 9, 50, 58
1, 87120, Note_on_c, 9, 42, 54
1, 87120, Note_on_c, 9, 35, 33
1, 87128, Note_on_c, 9, 64, 0
1, 87128, Note_on_c, 9, 42, 0
1, 87359, Note_on_c, 9, 50, 0
1, 87359, Note_on_c, 9, 35, 0
1, 87360, Note_on_c, 9, 35, 31
1, 87599, Note_on_c, 9, 35, 0
1, 87600, Note_on_c, 9, 41, 27
1, 87600, Note_on_c, 9, 42, 54
1, 87600, Note_on_c, 9, 35, 71
1, 87608, Note_on_c, 9, 42, 0
1, 87839, Note_on_c, 9, 41, 0
1, 87839, Note_on_c, 9, 35, 0
1, 87840, Note_on_c, 9, 64, 34
1, 87840, Note_on_c, 9, 46, 40
1, 87840, Note_on_c, 9, 50, 56
1, 87840, Note_on_c, 9, 35, 33
1, 87848, Note_on_c, 9, 64, 0
1, 87848, Note_on_c, 9, 46, 0
1, 88079, Note_on_c, 9, 50, 0
1, 88079, Note_on_c, 9, 35, 0
1, 88080, Note_on_c, 9, 42, 54
1, 88080, Note_on_c, 9, 35, 29
1, 88088, Note_on_c, 9, 42, 0
1, 88319, Note_on_c, 9, 35, 0
1, 88320, Note_on_c, 9, 46, 40
1, 88328, Note_on_c, 9, 46, 0
1, 88560, Note_on_c, 9, 64, 30
1, 88560, Note_on_c, 9, 50, 50
1, 88560, Note_on_c, 9, 42, 54
1, 88568, Note_on_c, 9, 64, 0
1, 88568, Note_on_c, 9, 42, 0
1, 88799, Note_on_c, 9, 50, 0
1, 89040, Note_on_c, 9, 64, 36
1, 89040, Note_on_c, 9, 50, 38
1, 89040, Note_on_c, 9, 42, 54
1, 89048, Note_on_c, 9, 64, 0
1, 89048, Note_on_c, 9, 42, 0
1, 89279, Note_on_c, 9, 50, 0
1, 89520, Note_on_c, 9, 41, 29
1, 89520, Note_on_c, 9, 42, 54
1, 89520, Note_on_c, 9, 35, 74
1, 89528, Note_on_c, 9, 42, 0
1, 89759, Note_on_c, 9, 41, 0
1, 89759, Note_on_c, 9, 35, 0
1, 89760, Note_on_c, 9, 64, 26
1, 89760, Note_on_c, 9, 46, 40
1, 89760, Note_on_c, 9, 50, 44
1, 89768, Note_on_c, 9, 64, 0
1, 89768, Note_on_c, 9, 46, 0
1, 89999, Note_on_c, 9, 50, 0
1, 90000, Note_on_c, 9, 42, 54
1, 90008, Note_on_c, 9, 42, 0
1, 90240, Note_on_c, 9, 46, 40
1, 90240, Note_on_c, 9, 35, 40
1, 90248, Note_on_c, 9, 46, 0
1, 90479, Note_on_c, 9, 35, 0
1, 90480, Note_on_c, 9, 64, 42
1, 90480, Note_on_c, 9, 50, 46
1, 90480, Note_on_c, 9, 42, 54
1, 90480, Note_on_c, 9, 35, 38
1, 90488, Note_on_c, 9, 64, 0
1, 90488, Note_on_c, 9, 42, 0
1, 90719, Note_on_c, 9, 50, 0
1, 90719, Note_on_c, 9, 35, 0
1, 90720, Note_on_c, 9, 41, 28
1, 90720, Note_on_c, 9, 35, 95
1, 90959, Note_on_c, 9, 41, 0
1, 90959, Note_on_c, 9, 35, 0
1, 90960, Note_on_c, 9, 64, 44
1, 90960, Note_on_c, 9, 50, 40
1, 90960, Note_on_c, 9, 42, 54
1, 90960, Note_on_c, 9, 35, 33
1, 90968, Note_on_c, 9, 64, 0
1, 90968, Note_on_c, 9, 42, 0
1, 91199, Note_on_c, 9, 50, 0
1, 91199, Note_on_c, 9, 35, 0
1, 91200, Note_on_c, 9, 35, 31
1, 91439, Note_on_c, 9, 35, 0
1, 91440, Note_on_c, 9, 41, 28
1, 91440, Note_on_c, 9, 42, 54
1, 91440, Note_on_c, 9, 35, 71
1, 91448, Note_on_c, 9, 42, 0
1, 91679, Note_on_c, 9, 41, 0
1, 91679, Note_on_c, 9, 35, 0
1, 91680, Note_on_c, 9, 64, 46
1, 91680, Note_on_c, 9, 46, 40
1, 91680, Note_on_c, 9, 50, 52
1, 91680, Note_on_c, 9, 35, 33
1, 91688, Note_on_c, 9, 64, 0
1, 91688, Note_on_c, 9, 46, 0
1, 91919, Note_on_c, 9, 50, 0
1, 91919, Note_on_c, 9, 35, 0
1, 91920, Note_on_c, 9, 42, 54
1, 91920, Note_on_c, 9, 35, 29
1, 91928, Note_on_c, 9, 42, 0
1, 92159, Note_on_c, 9, 35, 0
1, 92160, Note_on_c, 9, 46, 40
1, 92168, Note_on_c, 9, 46, 0
1, 92400, Note_on_c, 9, 64, 44
1, 92400, Note_on_c, 9, 50, 52
1, 92400, Note_on_c, 9, 42, 54
1, 92408, Note_on_c, 9, 64, 0
1, 92408, Note_on_c, 9, 42, 0
1, 92639, Note_on_c, 9, 50, 0
1, 92880, Note_on_c, 9, 64, 40
1, 92880, Note_on_c, 9, 50, 52
1, 92880, Note_on_c, 9, 42, 54
1, 92888, Note_on_c, 9, 64, 0
1, 92888, Note_on_c, 9, 42, 0
1, 93119, Note_on_c, 9, 50, 0
1, 93360, Note_on_c, 9, 41, 28
1, 93360, Note_on_c, 9, 42, 54
1, 93360, Note_on_c, 9, 35, 74
1, 93368, Note_on_c, 9, 42, 0
1, 93599, Note_on_c, 9, 41, 0
1, 93599, Note_on_c, 9, 35, 0
1, 93600, Note_on_c, 9, 64, 34
1, 93600, Note_on_c, 9, 46, 40
1, 93600, Note_on_c, 9, 50, 48
1, 93608, Note_on_c, 9, 64, 0
1, 93608, Note_on_c, 9, 46, 0
1, 93839, Note_on_c, 9, 50, 0
1, 93840, Note_on_c, 9, 42, 54
1, 93848, Note_on_c, 9, 42, 0
1, 94080, Note_on_c, 9, 46, 40
1, 94080, Note_on_c, 9, 35, 40
1, 94088, Note_on_c, 9, 46, 0
1, 94319, Note_on_c, 9, 35, 0
1, 94320, Note_on_c, 9, 64, 40
1, 94320, Note_on_c, 9, 50, 46
1, 94320, Note_on_c, 9, 42, 54
1, 94320, Note_on_c, 9, 35, 38
1, 94328, Note_on_c, 9, 64, 0
1, 94328, Note_on_c, 9, 42, 0
1, 94559, Note_on_c, 9, 50, 0
1, 94559, Note_on_c, 9, 35, 0
1, 94560, Note_on_c, 9, 41, 27
1, 94560, Note_on_c, 9, 35, 95
1, 94799, Note_on_c, 9, 41, 0
1, 94799, Note_on_c, 9, 35, 0
1, 94800, Note_on_c, 9, 64, 44
1, 94800, Note_on_c, 9, 50, 58
1, 94800, Note_on_c, 9, 42, 54
1, 94800, Note_on_c, 9, 35, 33
1, 94808, Note_on_c, 9, 64, 0
1, 94808, Note_on_c, 9, 42, 0
1, 95039, Note_on_c, 9, 50, 0
1, 95039, Note_on_c, 9, 35, 0
1, 95040, Note_on_c, 9, 35, 31
1, 95279, Note_on_c, 9, 35, 0
1, 95280, Note_on_c, 9, 41, 27
1, 95280, Note_on_c, 9, 42, 54
1, 95280, Note_on_c, 9, 35, 71
1, 95288, Note_on_c, 9, 42, 0
1, 95519, Note_on_c, 9, 41, 0
1, 95519, Note_on_c, 9, 35, 0
1, 95520, Note_on_c, 9, 64, 34
1, 95520, Note_on_c, 9, 46, 40
1, 95520, Note_on_c, 9, 50, 56
1, 95520, Note_on_c, 9, 35, 33
1, 95528, Note_on_c, 9, 64, 0
1, 95528, Note_on_c, 9, 46, 0
1, 95759, Note_on_c, 9, 50, 0
1, 95759, Note_on_c, 9, 35, 0
1, 95760, Note_on_c, 9, 42, 54
1, 95760, Note_on_c, 9, 35, 29
1, 95768, Note_on_c, 9, 42, 0
1, 95999, Note_on_c, 9, 35, 0
1, 96000, Note_on_c, 9, 46, 40
1, 96008, Note_on_c, 9, 46, 0
1, 96240, Note_on_c, 9, 64, 30
1, 96240, Note_on_c, 9, 50, 50
1, 96240, Note_on_c, 9, 42, 54
1, 96248, Note_on_c, 9, 64, 0
1, 96248, Note_on_c, 9, 42, 0
1, 96479, Note_on_c, 9, 50, 0
1, 96720, Note_on_c, 9, 64, 36
1, 96720, Note_on_c, 9, 50, 38
1, 96720, Note_on_c, 9, 42, 54
1, 96728, Note_on_c, 9, 64, 0
1, 96728, Note_on_c, 9, 42, 0
1, 96959, Note_on_c, 9, 50, 0
1, 97200, Note_on_c, 9, 41, 29
1, 97200, Note_on_c, 9, 42, 54
1, 97200, Note_on_c, 9, 35, 74
1, 97208, Note_on_c, 9, 42, 0
1, 97439, Note_on_c, 9, 41, 0
1, 97439, Note_on_c, 9, 35, 0
1, 97440, Note_on_c, 9, 64, 26
1, 97440, Note_on_c, 9, 46, 40
1, 97440, Note_on_c, 9, 50, 44
1, 97448, Note_on_c, 9, 64, 0
1, 97448, Note_on_c, 9, 46, 0
1, 97679, Note_on_c, 9, 50, 0
1, 97680, Note_on_c, 9, 42, 54
1, 97688, Note_on_c, 9, 42, 0
1, 97920, Note_on_c, 9, 46, 40
1, 97920, Note_on_c, 9, 35, 40
1, 97928, Note_on_c, 9, 46, 0
1, 98159, Note_on_c, 9, 35, 0
1, 98160, Note_on_c, 9, 64, 42
1, 98160, Note_on_c, 9, 50, 46
1, 98160, Note_on_c, 9, 42, 54
1, 98160, Note_on_c, 9, 35, 38
1, 98168, Note_on_c, 9, 64, 0
1, 98168, Note_on_c, 9, 42, 0
1, 98399, Note_on_c, 9, 50, 0
1, 98399, Note_on_c, 9, 35, 0
1, 98400, Note_on_c, 9, 41, 28
1, 98400, Note_on_c, 9, 35, 95
1, 98639, Note_on_c, 9, 41, 0
1, 98639, Note_on_c, 9, 35, 0
1, 98640, Note_on_c, 9, 64, 44
1, 98640, Note_on_c, 9, 50, 40
1, 98640, Note_on_c, 9, 42, 54
1, 98640, Note_on_c, 9, 35, 33
1, 98648, Note_on_c, 9, 64, 0
1, 98648, Note_on_c, 9, 42, 0
1, 98879, Note_on_c, 9, 50, 0
1, 98879, Note_on_c, 9, 35, 0
1, 98880, Note_on_c, 9, 35, 31
1, 99119, Note_on_c, 9, 35, 0
1, 99120, Note_on_c, 9, 41, 28
1, 99120, Note_on_c, 9, 42, 54
1, 99120, Note_on_c, 9, 35, 71
1, 99128, Note_on_c, 9, 42, 0
1, 99359, Note_on_c, 9, 41, 0
1, 99359, Note_on_c, 9, 35, 0
1, 99360, Note_on_c, 9, 64, 46
1, 99360, Note_on_c, 9, 46, 40
1, 99360, Note_on_c, 9, 50, 52
1, 99360, Note_on_c, 9, 35, 33
1, 99368, Note_on_c, 9, 64, 0
1, 99368, Note_on_c, 9, 46, 0
1, 99599, Note_on_c, 9, 50, 0
1, 99599, Note_on_c, 9, 35, 0
1, 99600, Note_on_c, 9, 42, 54
1, 99600, Note_on_c, 9, 35, 29
1, 99608, Note_on_c, 9, 42, 0
1, 99839, Note_on_c, 9, 35, 0
1, 99840, Note_on_c, 9, 46, 40
1, 99848, Note_on_c, 9, 46, 0
1, 100080, Note_on_c, 9, 64, 44
1, 100080, Note_on_c, 9, 50, 52
1, 100080, Note_on_c, 9, 42, 54
1, 100088, Note_on_c, 9, 64, 0
1, 100088, Note_on_c, 9, 42, 0
1, 100319, Note_on_c, 9, 50, 0
1, 100560, Note_on_c, 9, 64, 40
1, 100560, Note_on_c, 9, 50, 52
1, 100560, Note_on_c, 9, 42, 54
1, 100568, Note_on_c, 9, 64, 0
1, 100568, Note_on_c, 9, 42, 0
1, 100799, Note_on_c, 9, 50, 0
1, 101040, Note_on_c, 9, 41, 28
1, 101040, Note_on_c, 9, 42, 54
1, 101040, Note_on_c, 9, 35, 74
1, 101048, Note_on_c, 9, 42, 0
1, 101279, Note_on_c, 9, 41, 0
1, 101279, Note_on_c, 9, 35, 0
1, 101280, Note_on_c, 9, 64, 34
1, 101280, Note_on_c, 9, 46, 40
1, 101280, Note_on_c, 9, 50, 48
1, 101288, Note_on_c, 9, 64, 0
1, 101288, Note_on_c, 9, 46, 0
1, 101519, Note_on_c, 9, 50, 0
1, 101520, Note_on_c, 9, 42, 54
1, 101528, Note_on_c, 9, 42, 0
1, 101760, Note_on_c, 9, 46, 40
1, 101760, Note_on_c, 9, 35, 40
1, 101768, Note_on_c, 9, 46, 0
1, 101999, Note_on_c, 9, 35, 0
1, 102000, Note_on_c, 9, 64, 40
1, 102000, Note_on_c, 9, 50, 46
1, 102000, Note_on_c, 9, 42, 54
1, 102000, Note_on_c, 9, 35, 38
1, 102008, Note_on_c, 9, 64, 0
1, 102008, Note_on_c, 9, 42, 0
1, 102239, Note_on_c, 9, 50, 0
1, 102239, Note_on_c, 9, 35, 0
1, 102240, Note_on_c, 9, 41, 27
1, 102240, Note_on_c, 9, 35, 95
1, 102479, Note_on_c, 9, 41, 0
1, 102479, Note_on_c, 9, 35, 0
1, 102480, Note_on_c, 9, 64, 44
1, 102480, Note_on_c, 9, 50, 58
1, 102480, Note_on_c, 9, 42, 54
1, 102480, Note_on_c, 9, 35, 33
1, 102488, Note_on_c, 9, 64, 0
1, 102488, Note_on_c, 9, 42, 0
1, 102719, Note_on_c, 9, 50, 0
1, 102719, Note_on_c, 9, 35, 0
1, 102720, Note_on_c, 9, 35, 31
1, 102959, Note_on_c, 9, 35, 0
1, 102960, Note_on_c, 9, 41, 27
1, 102960, Note_on_c, 9, 42, 54
1, 102960, Note_on_c, 9, 35, 71
1, 102968, Note_on_c, 9, 42, 0
1, 103199, Note_on_c, 9, 41, 0
1, 103199, Note_on_c, 9, 35, 0
1, 103200, Note_on_c, 9, 64, 34
1, 103200, Note_on_c, 9, 46, 40
1, 103200, Note_on_c, 9, 50, 56
1, 103200, Note_on_c, 9, 35, 33
1, 103208, Note_on_c, 9, 64, 0
1, 103208, Note_on_c, 9, 46, 0
1, 103439, Note_on_c, 9, 50, 0
1, 103439, Note_on_c, 9, 35, 0
1, 103440, Note_on_c, 9, 42, 54
1, 103440, Note_on_c, 9, 35, 29
1, 103448, Note_on_c, 9, 42, 0
1, 103679, Note_on_c, 9, 35, 0
1, 103680, Note_on_c, 9, 46, 40
1, 103688, Note_on_c, 9, 46, 0
1, 103920, Note_on_c, 9, 64, 30
1, 103920, Note_on_c, 9, 50, 50
1, 103920, Note_on_c, 9, 42, 54
1, 103928, Note_on_c, 9, 64, 0
1, 103928, Note_on_c, 9, 42, 0
1, 104159, Note_on_c, 9, 50, 0
1, 104400, Note_on_c, 9, 64, 36
1, 104400, Note_on_c, 9, 50, 38
1, 104400, Note_on_c, 9, 42, 54
1, 104408, Note_on_c, 9, 64, 0
1, 104408, Note_on_c, 9, 42, 0
1, 104639, Note_on_c, 9, 50, 0
1, 104880, Note_on_c, 9, 41, 29
1, 104880, Note_on_c, 9, 42, 54
1, 104880, Note_on_c, 9, 35, 74
1, 104888, Note_on_c, 9, 42, 0
1, 105119, Note_on_c, 9, 41, 0
1, 105119, Note_on_c, 9, 35, 0
1, 105120, Note_on_c, 9, 64, 26
1, 105120, Note_on_c, 9, 46, 40
1, 105120, Note_on_c, 9, 50, 44
1, 105128, Note_on_c, 9, 64, 0
1, 105128, Note_on_c, 9, 46, 0
1, 105359, Note_on_c, 9, 50, 0
1, 105360, Note_on_c, 9, 42, 54
1, 105368, Note_on_c, 9, 42, 0
1, 105600, Note_on_c, 9, 46, 40
1, 105600, Note_on_c, 9, 35, 40
1, 105608, Note_on_c, 9, 46, 0
1, 105839, Note_on_c, 9, 35, 0
1, 105840, Note_on_c, 9, 64, 42
1, 105840, Note_on_c, 9, 50, 46
1, 105840, Note_on_c, 9, 42, 54
1, 105840, Note_on_c, 9, 35, 38
1, 105848, Note_on_c, 9, 64, 0
1, 105848, Note_on_c, 9, 42, 0
1, 106079, Note_on_c, 9, 50, 0
1, 106079, Note_on_c, 9, 35, 0
1, 106080, Note_on_c, 9, 41, 28
1, 106080, Note_on_c, 9, 35, 95
1, 106319, Note_on_c, 9, 41, 0
1, 106319, Note_on_c, 9, 35, 0
1, 106320, Note_on_c, 9, 64, 44
1, 106320, Note_on_c, 9, 50, 40
1, 106320, Note_on_c, 9, 42, 54
1, 106320, Note_on_c, 9, 35, 33
1, 106328, Note_on_c, 9, 64, 0
1, 106328, Note_on_c, 9, 42, 0
1, 106559, Note_on_c, 9, 50, 0
1, 106559, Note_on_c, 9, 35, 0
1, 106560, Note_on_c, 9, 35, 31
1, 106799, Note_on_c, 9, 35, 0
1, 106800, Note_on_c, 9, 41, 28
1, 106800, Note_on_c, 9, 42, 54
1, 106800, Note_on_c, 9, 35, 71
1, 106808, Note_on_c, 9, 42, 0
1, 107039, Note_on_c, 9, 41, 0
1, 107039, Note_on_c, 9, 35, 0
1, 107040, Note_on_c, 9, 64, 46
1, 107040, Note_on_c, 9, 46, 40
1, 107040, Note_on_c, 9, 50, 52
1, 107040, Note_on_c, 9, 35, 33
1, 107048, Note_on_c, 9, 64, 0
1, 107048, Note_on_c, 9, 46, 0
1, 107279, Note_on_c, 9, 50, 0
1, 107279, Note_on_c, 9, 35, 0
1, 107280, Note_on_c, 9, 42, 54
1, 107280, Note_on_c, 9, 35, 29
1, 107288, Note_on_c, 9, 42, 0
1, 107519, Note_on_c, 9, 35, 0
1, 107520, Note_on_c, 9, 46, 40
1, 107528, Note_on_c, 9, 46, 0
1, 107760, Note_on_c, 9, 64, 44
1, 107760, Note_on_c, 9, 50, 52
1, 107760, Note_on_c, 9, 42, 54
1, 107768, Note_on_c, 9, 64, 0
1, 107768, Note_on_c, 9, 42, 0
1, 107999, Note_on_c, 9, 50, 0
1, 108240, Note_on_c, 9, 64, 40
1, 108240, Note_on_c, 9, 50, 52
1, 108240, Note_on_c, 9, 42, 54
1, 108248, Note_on_c, 9, 64, 0
1, 108248, Note_on_c, 9, 42, 0
1, 108479, Note_on_c, 9, 50, 0
1, 108720, Note_on_c, 9, 41, 28
1, 108720, Note_on_c, 9, 42, 54
1, 108720, Note_on_c, 9, 35, 74
1, 108728, Note_on_c, 9, 42, 0
1, 108959, Note_on_c, 9, 41, 0
1, 108959, Note_on_c, 9, 35, 0
1, 108960, Note_on_c, 9, 64, 34
1, 108960, Note_on_c, 9, 46, 40
1, 108960, Note_on_c, 9, 50, 48
1, 108968, Note_on_c, 9, 64, 0
1, 108968, Note_on_c, 9, 46, 0
1, 109199, Note_on_c, 9, 50, 0
1, 109200, Note_on_c, 9, 42, 54
1, 109208, Note_on_c, 9, 42, 0
1, 109440, Note_on_c, 9, 46, 40
1, 109440, Note_on_c, 9, 35, 40
1, 109448, Note_on_c, 9, 46, 0
1, 109679, Note_on_c, 9, 35, 0
1, 109680, Note_on_c, 9, 64, 40
1, 109680, Note_on_c, 9, 50, 46
1, 109680, Note_on_c, 9, 42, 54
1, 109680, Note_on_c, 9, 35, 38
1, 109688, Note_on_c, 9, 64, 0
1, 109688, Note_on_c, 9, 42, 0
1, 109919, Note_on_c, 9, 50, 0
1, 109919, Note_on_c, 9, 35, 0
1, 109920, Note_on_c, 9, 41, 27
1, 109920, Note_on_c, 9, 35, 95
1, 110159, Note_on_c, 9, 41, 0
1, 110159, Note_on_c, 9, 35, 0
1, 110160, Note_on_c, 9, 64, 44
1, 110160, Note_on_c, 9, 50, 58
1, 110160, Note_on_c, 9, 42, 54
1, 110160, Note_on_c, 9, 35, 33
1, 110168, Note_on_c, 9, 64, 0
1, 110168, Note_on_c, 9, 42, 0
1, 110399, Note_on_c, 9, 50, 0
1, 110399, Note_on_c, 9, 35, 0
1, 110400, Note_on_c, 9, 35, 31
1, 110639, Note_on_c, 9, 35, 0
1, 110640, Note_on_c, 9, 41, 27
1, 110640, Note_on_c, 9, 42, 54
1, 110640, Note_on_c, 9, 35, 71
1, 110648, Note_on_c, 9, 42, 0
1, 110879, Note_on_c, 9, 41, 0
1, 110879, Note_on_c, 9, 35, 0
1, 110880, Note_on_c, 9, 64, 34
1, 110880, Note_on_c, 9, 46, 40
1, 110880, Note_on_c, 9, 50, 56
1, 110880, Note_on_c, 9, 35, 33
1, 110888, Note_on_c, 9, 64, 0
1, 110888, Note_on_c, 9, 46, 0
1, 111119, Note_on_c, 9, 50, 0
1, 111119, Note_on_c, 9, 35, 0
1, 111120, Note_on_c, 9, 42, 54
1, 111120, Note_on_c, 9, 35, 29
1, 111128, Note_on_c, 9, 42, 0
1, 111359, Note_on_c, 9, 35, 0
1, 111360, Note_on_c, 9, 46, 40
1, 111368, Note_on_c, 9, 46, 0
1, 111600, Note_on_c, 9, 64, 30
1, 111600, Note_on_c, 9, 50, 50
1, 111600, Note_on_c, 9, 42, 54
1, 111608, Note_on_c, 9, 64, 0
1, 111608, Note_on_c, 9, 42, 0
1, 111839, Note_on_c, 9, 50, 0
1, 112080, Note_on_c, 9, 64, 36
1, 112080, Note_on_c, 9, 50, 38
1, 112080, Note_on_c, 9, 42, 54
1, 112088, Note_on_c, 9, 64, 0
1, 112088, Note_on_c, 9, 42, 0
1, 112319, Note_on_c, 9, 50, 0
1, 112560, Note_on_c, 9, 41, 29
1, 112560, Note_on_c, 9, 42, 54
1, 112560, Note_on_c, 9, 35, 74
1, 112568, Note_on_c, 9, 42, 0
1, 112799, Note_on_c, 9, 41, 0
1, 112799, Note_on_c, 9, 35, 0
1, 112800, Note_on_c, 9, 64, 26
1, 112800, Note_on_c, 9, 46, 40
1, 112800, Note_on_c, 9, 50, 44
1, 112808, Note_on_c, 9, 64, 0
1, 112808, Note_on_c, 9, 46, 0
1, 113039, Note_on_c, 9, 50, 0
1, 113040, Note_on_c, 9, 42, 54
1, 113048, Note_on_c, 9, 42, 0
1, 113280, Note_on_c, 9, 46, 40
1, 113280, Note_on_c, 9, 35, 40
1, 113288, Note_on_c, 9, 46, 0
1, 113519, Note_on_c, 9, 35, 0
1, 113520, Note_on_c, 9, 64, 42
1, 113520, Note_on_c, 9, 50, 46
1, 113520, Note_on_c, 9, 42, 54
1, 113520, Note_on_c, 9, 35, 38
1, 113528, Note_on_c, 9, 64, 0
1, 113528, Note_on_c, 9, 42, 0
1, 113759, Note_on_c, 9, 50, 0
1, 113759, Note_on_c, 9, 35, 0
1, 113760, Note_on_c, 9, 41, 28
1, 113760, Note_on_c, 9, 35, 95
1, 113999, Note_on_c, 9, 41, 0
1, 113999, Note_on_c, 9, 35, 0
1, 114000, Note_on_c, 9, 64, 44
1, 114000, Note_on_c, 9, 50, 40
1, 114000, Note_on_c, 9, 42, 54
1, 114000, Note_on_c, 9, 35, 33
1, 114008, Note_on_c, 9, 64, 0
1, 114008, Note_on_c, 9, 42, 0
1, 114239, Note_on_c, 9, 50, 0
1, 114239, Note_on_c, 9, 35, 0
1, 114240, Note_on_c, 9, 35, 31
1, 114479, Note_on_c, 9, 35, 0
1, 114480, Note_on_c, 9, 41, 28
1, 114480, Note_on_c, 9, 42, 54
1, 114480, Note_on_c, 9, 35, 71
1, 114488, Note_on_c, 9, 42, 0
1, 114719, Note_on_c, 9, 41, 0
1, 114719, Note_on_c, 9, 35, 0
1, 114720, Note_on_c, 9, 64, 46
1, 114720, Note_on_c, 9, 46, 40
1, 114720, Note_on_c, 9, 50, 52
1, 114720, Note_on_c, 9, 35, 33
1, 114728, Note_on_c, 9, 64, 0
1, 114728, Note_on_c, 9, 46, 0
1, 114959, Note_on_c, 9, 50, 0
1, 114959, Note_on_c, 9, 35, 0
1, 114960, Note_on_c, 9, 42, 54
1, 114960, Note_on_c, 9, 35, 29
1, 114968, Note_on_c, 9, 42, 0
1, 115199, Note_on_c, 9, 35, 0
1, 115200, Note_on_c, 9, 46, 40
1, 115208, Note_on_c, 9, 46, 0
1, 115440, Note_on_c, 9, 64, 44
1, 115440, Note_on_c, 9, 50, 52
1, 115440, Note_on_c, 9, 42, 54
1, 115448, Note_on_c, 9, 64, 0
1, 115448, Note_on_c, 9, 42, 0
1, 115679, Note_on_c, 9, 50, 0
1, 115920, Note_on_c, 9, 64, 40
1, 115920, Note_on_c, 9, 50, 52
1, 115920, Note_on_c, 9, 42, 54
1, 115928, Note_on_c, 9, 64, 0
1, 115928, Note_on_c, 9, 42, 0
1, 116159, Note_on_c, 9, 50, 0
1, 116400, Note_on_c, 9, 41, 28
1, 116400, Note_on_c, 9, 42, 54
1, 116400, Note_on_c, 9, 35, 74
1, 116408, Note_on_c, 9, 42, 0
1, 116639, Note_on_c, 9, 41, 0
1, 116639, Note_on_c, 9, 35, 0
1, 116640, Note_on_c, 9, 64, 34
1, 116640, Note_on_c, 9, 46, 40
1, 116640, Note_on_c, 9, 50, 48
1, 116648, Note_on_c, 9, 64, 0
1, 116648, Note_on_c, 9, 46, 0
1, 116879, Note_on_c, 9, 50, 0
1, 116880, Note_on_c, 9, 42, 54
1, 116888, Note_on_c, 9, 42, 0
1, 117120, Note_on_c, 9, 46, 40
1, 117120, Note_on_c, 9, 35, 40
1, 117128, Note_on_c, 9, 46, 0
1, 117359, Note_on_c, 9, 35, 0
1, 117360, Note_on_c, 9, 64, 40
1, 117360, Note_on_c, 9, 50, 46
1, 117360, Note_on_c, 9, 42, 54
1, 117360, Note_on_c, 9, 35, 38
1, 117368, Note_on_c, 9, 64, 0
1, 117368, Note_on_c, 9, 42, 0
1, 117599, Note_on_c, 9, 50, 0
1, 117599, Note_on_c, 9, 35, 0
1, 117600, Note_on_c, 9, 41, 27
1, 117600, Note_on_c, 9, 35, 95
1, 117839, Note_on_c, 9, 41, 0
1, 117839, Note_on_c, 9, 35, 0
1, 117840, Note_on_c, 9, 64, 44
1, 117840, Note_on_c, 9, 50, 58
1, 117840, Note_on_c, 9, 42, 54
1, 117840, Note_on_c, 9, 35, 33
1, 117848, Note_on_c, 9, 64, 0
1, 117848, Note_on_c, 9, 42, 0
1, 118079, Note_on_c, 9, 50, 0
1, 118079, Note_on_c, 9, 35, 0
1, 118080, Note_on_c, 9, 35, 31
1, 118319, Note_on_c, 9, 35, 0
1, 118320, Note_on_c, 9, 41, 27
1, 118320, Note_on_c, 9, 42, 54
1, 118320, Note_on_c, 9, 35, 71
1, 118328, Note_on_c, 9, 42, 0
1, 118559, Note_on_c, 9, 41, 0
1, 118559, Note_on_c, 9, 35, 0
1, 118560, Note_on_c, 9, 64, 34
1, 118560, Note_on_c, 9, 46, 40
1, 118560, Note_on_c, 9, 50, 56
1, 118560, Note_on_c, 9, 35, 33
1, 118568, Note_on_c, 9, 64, 0
1, 118568, Note_on_c, 9, 46, 0
1, 118799, Note_on_c, 9, 50, 0
1, 118799, Note_on_c, 9, 35, 0
1, 118800, Note_on_c, 9, 42, 54
1, 118800, Note_on_c, 9, 35, 29
1, 118808, Note_on_c, 9, 42, 0
1, 119039, Note_on_c, 9, 35, 0
1, 119040, Note_on_c, 9, 46, 40
1, 119048, Note_on_c, 9, 46, 0
1, 119280, Note_on_c, 9, 64, 30
1, 119280, Note_on_c, 9, 50, 50
1, 119280, Note_on_c, 9, 42, 54
1, 119288, Note_on_c, 9, 64, 0
1, 119288, Note_on_c, 9, 42, 0
1, 119519, Note_on_c, 9, 50, 0
1, 119760, Note_on_c, 9, 64, 36
1, 119760, Note_on_c, 9, 50, 38
1, 119760, Note_on_c, 9, 42, 54
1, 119768, Note_on_c, 9, 64, 0
1, 119768, Note_on_c, 9, 42, 0
1, 119999, Note_on_c, 9, 50, 0
1, 120240, Note_on_c, 9, 41, 29
1, 120240, Note_on_c, 9, 42, 54
1, 120240, Note_on_c, 9, 35, 74
1, 120248, Note_on_c, 9, 42, 0
1, 120479, Note_on_c, 9, 41, 0
1, 120479, Note_on_c, 9, 35, 0
1, 120480, Note_on_c, 9, 64, 26
1, 120480, Note_on_c, 9, 46, 40
1, 120480, Note_on_c, 9, 50, 44
1, 120488, Note_on_c, 9, 64, 0
1, 120488, Note_on_c, 9, 46, 0
1, 120719, Note_on_c, 9, 50, 0
1, 120720, Note_on_c, 9, 42, 54
1, 120728, Note_on_c, 9, 42, 0
1, 120960, Note_on_c, 9, 46, 40
1, 120960, Note_on_c, 9, 35, 40
1, 120968, Note_on_c, 9, 46, 0
1, 121199, Note_on_c, 9, 35, 0
1, 121200, Note_on_c, 9, 64, 42
1, 121200, Note_on_c, 9, 50, 46
1, 121200, Note_on_c, 9, 42, 54
1, 121200, Note_on_c, 9, 35, 38
1, 121208, Note_on_c, 9, 64, 0
1, 121208, Note_on_c, 9, 42, 0
1, 121439, Note_on_c, 9, 50, 0
1, 121439, Note_on_c, 9, 35, 0
1, 121440, Note_on_c, 9, 41, 28
1, 121440, Note_on_c, 9, 35, 95
1, 121679, Note_on_c, 9, 41, 0
1, 121679, Note_on_c, 9, 35, 0
1, 121680, Note_on_c, 9, 64, 44
1, 121680, Note_on_c, 9, 50, 40
1, 121680, Note_on_c, 9, 42, 54
1, 121680, Note_on_c, 9, 35, 33
1, 121688, Note_on_c, 9, 64, 0
1, 121688, Note_on_c, 9, 42, 0
1, 121919, Note_on_c, 9, 50, 0
1, 121919, Note_on_c, 9, 35, 0
1, 121920, Note_on_c, 9, 35, 31
1, 122159, Note_on_c, 9, 35, 0
1, 122160, Note_on_c, 9, 41, 28
1, 122160, Note_on_c, 9, 42, 54
1, 122160, Note_on_c, 9, 35, 71
1, 122168, Note_on_c, 9, 42, 0
1, 122399, Note_on_c, 9, 41, 0
1, 122399, Note_on_c, 9, 35, 0
1, 122400, Note_on_c, 9, 64, 46
1, 122400, Note_on_c, 9, 46, 40
1, 122400, Note_on_c, 9, 50, 52
1, 122400, Note_on_c, 9, 35, 33
1, 122408, Note_on_c, 9, 64, 0
1, 122408, Note_on_c, 9, 46, 0
1, 122639, Note_on_c, 9, 50, 0
1, 122639, Note_on_c, 9, 35, 0
1, 122640, Note_on_c, 9, 42, 54
1, 122640, Note_on_c, 9, 35, 29
1, 122648, Note_on_c, 9, 42, 0
1, 122879, Note_on_c, 9, 35, 0
1, 122880, Note_on_c, 9, 46, 40
1, 122888, Note_on_c, 9, 46, 0
1, 123120, Note_on_c, 9, 64, 44
1, 123120, Note_on_c, 9, 50, 52
1, 123120, Note_on_c, 9, 42, 54
1, 123128, Note_on_c, 9, 64, 0
1, 123128, Note_on_c, 9, 42, 0
1, 123359, Note_on_c, 9, 50, 0
1, 123600, Note_on_c, 9, 64, 40
1, 123600, Note_on_c, 9, 50, 52
1, 123600, Note_on_c, 9, 42, 54
1, 123608, Note_on_c, 9, 64, 0
1, 123608, Note_on_c, 9, 42, 0
1, 123839, Note_on_c, 9, 50, 0
1, 124080, Note_on_c, 9, 41, 28
1, 124080, Note_on_c, 9, 42, 54
1, 124080, Note_on_c, 9, 35, 74
1, 124088, Note_on_c, 9, 42, 0
1, 124319, Note_on_c, 9, 41, 0
1, 124319, Note_on_c, 9, 35, 0
1, 124320, Note_on_c, 9, 64, 34
1, 124320, Note_on_c, 9, 46, 40
1, 124320, Note_on_c, 9, 50, 48
1, 124328, Note_on_c, 9, 64, 0
1, 124328, Note_on_c, 9, 46, 0
1, 124559, Note_on_c, 9, 50, 0
1, 124560, Note_on_c, 9, 42, 54
1, 124568, Note_on_c, 9, 42, 0
1, 124800, Note_on_c, 9, 46, 40
1, 124800, Note_on_c, 9, 35, 40
1, 124808, Note_on_c, 9, 46, 0
1, 125039, Note_on_c, 9, 35, 0
1, 125040, Note_on_c, 9, 64, 40
1, 125040, Note_on_c, 9, 50, 46
1, 125040, Note_on_c, 9, 42, 54
1, 125040, Note_on_c, 9, 35, 38
1, 125048, Note_on_c, 9, 64, 0
1, 125048, Note_on_c, 9, 42, 0
1, 125279, Note_on_c, 9, 50, 0
1, 125279, Note_on_c, 9, 35, 0
1, 125280, Note_on_c, 9, 41, 27
1, 125280, Note_on_c, 9, 35, 95
1, 125519, Note_on_c, 9, 41, 0
1, 125519, Note_on_c, 9, 35, 0
1, 125520, Note_on_c, 9, 64, 44
1, 125520, Note_on_c, 9, 50, 58
1, 125520, Note_on_c, 9, 42, 54
1, 125520, Note_on_c, 9, 35, 33
1, 125528, Note_on_c, 9, 64, 0
1, 125528, Note_on_c, 9, 42, 0
1, 125759, Note_on_c, 9, 50, 0
1, 125759, Note_on_c, 9, 35, 0
1, 125760, Note_on_c, 9, 35, 31
1, 125999, Note_on_c, 9, 35, 0
1, 126000, Note_on_c, 9, 41, 27
1, 126000, Note_on_c, 9, 42, 54
1, 126000, Note_on_c, 9, 35, 71
1, 126008, Note_on_c, 9, 42, 0
1, 126239, Note_on_c, 9, 41, 0
1, 126239, Note_on_c, 9, 35, 0
1, 126240, Note_on_c, 9, 64, 34
1, 126240, Note_on_c, 9, 46, 40
1, 126240, Note_on_c, 9, 50, 56
1, 126240, Note_on_c, 9, 35, 33
1, 126248, Note_on_c, 9, 64, 0
1, 126248, Note_on_c, 9, 46, 0
1, 126479, Note_on_c, 9, 50, 0
1, 126479, Note_on_c, 9, 35, 0
1, 126480, Note_on_c, 9, 42, 54
1, 126480, Note_on_c, 9, 35, 29
1, 126488, Note_on_c, 9, 42, 0
1, 126719, Note_on_c, 9, 35, 0
1, 126720, Note_on_c, 9, 41, 120
1, 126720, Note_on_c, 9, 45, 120
1, 126720, Note_on_c, 9, 46, 40
1, 126720, Note_on_c, 9, 35, 120
1, 126728, Note_on_c, 9, 46, 0
1, 126959, Note_on_c, 9, 41, 0
1, 126959, Note_on_c, 9, 45, 0
1, 126959, Note_on_c, 9, 35, 0
1, 126960, Note_on_c, 9, 64, 30
1, 126960, Note_on_c, 9, 41, 120
1, 126960, Note_on_c, 9, 45, 120
1, 126960, Note_on_c, 9, 50, 50
1, 126960, Note_on_c, 9, 42, 54
1, 126960, Note_on_c, 9, 35, 120
1, 126968, Note_on_c, 9, 64, 0
1, 126968, Note_on_c, 9, 42, 0
1, 127199, Note_on_c, 9, 41, 0
1, 127199, Note_on_c, 9, 45, 0
1, 127199, Note_on_c, 9, 50, 0
1, 127199, Note_on_c, 9, 35, 0
1, 127440, Note_on_c, 9, 64, 36
1, 127440, Note_on_c, 9, 50, 38
1, 127440, Note_on_c, 9, 42, 54
1, 127448, Note_on_c, 9, 64, 0
1, 127448, Note_on_c, 9, 42, 0
1, 127679, Note_on_c, 9, 50, 0
1, 127920, Note_on_c, 9, 41, 29
1, 127920, Note_on_c, 9, 42, 54
1, 127920, Note_on_c, 9, 35, 74
1, 127928, Note_on_c, 9, 42, 0
1, 128159, Note_on_c, 9, 41, 0
1, 128159, Note_on_c, 9, 35, 0
1, 128160, Note_on_c, 9, 64, 26
1, 128160, Note_on_c, 9, 46, 40
1, 128160, Note_on_c, 9, 50, 44
1, 128168, Note_on_c, 9, 64, 0
1, 128168, Note_on_c, 9, 46, 0
1, 128399, Note_on_c, 9, 50, 0
1, 128400, Note_on_c, 9, 42, 54
1, 128408, Note_on_c, 9, 42, 0
1, 128640, Note_on_c, 9, 46, 40
1, 128640, Note_on_c, 9, 35, 40
1, 128648, Note_on_c, 9, 46, 0
1, 128879, Note_on_c, 9, 35, 0
1, 128880, Note_on_c, 9, 64, 42
1, 128880, Note_on_c, 9, 50, 46
1, 128880, Note_on_c, 9, 42, 54
1, 128880, Note_on_c, 9, 35, 38
1, 128888, Note_on_c, 9, 64, 0
1, 128888, Note_on_c, 9, 42, 0
1, 129119, Note_on_c, 9, 50, 0
1, 129119, Note_on_c, 9, 35, 0
1, 129120, Note_on_c, 9, 41, 28
1, 129120, Note_on_c, 9, 35, 95
1, 129359, Note_on_c, 9, 41, 0
1, 129359, Note_on_c, 9, 35, 0
1, 129360, Note_on_c, 9, 64, 44
1, 129360, Note_on_c, 9, 50, 40
1, 129360, Note_on_c, 9, 42, 54
1, 129360, Note_on_c, 9, 35, 33
1, 129368, Note_on_c, 9, 64, 0
1, 129368, Note_on_c, 9, 42, 0
1, 129599, Note_on_c, 9, 50, 0
1, 129599, Note_on_c, 9, 35, 0
1, 129600, Note_on_c, 9, 35, 31
1, 129839, Note_on_c, 9, 35, 0
1, 129840, Note_on_c, 9, 41, 28
1, 129840, Note_on_c, 9, 42, 54
1, 129840, Note_on_c, 9, 35, 71
1, 129848, Note_on_c, 9, 42, 0
1, 130079, Note_on_c, 9, 41, 0
1, 130079, Note_on_c, 9, 35, 0
1, 130080, Note_on_c, 9, 64, 46
1, 130080, Note_on_c, 9, 46, 40
1, 130080, Note_on_c, 9, 50, 52
1, 130080, Note_on_c, 9, 35, 33
1, 130088, Note_on_c, 9, 64, 0
1, 130088, Note_on_c, 9, 46, 0
1, 130319, Note_on_c, 9, 50, 0
1, 130319, Note_on_c, 9, 35, 0
1, 130320, Note_on_c, 9, 42, 54
1, 130320, Note_on_c, 9, 35, 29
1, 130328, Note_on_c, 9, 42, 0
1, 130559, Note_on_c, 9, 35, 0
1, 130560, Note_on_c, 9, 46, 40
1, 130568, Note_on_c, 9, 46, 0
1, 130800, Note_on_c, 9, 64, 44
1, 130800, Note_on_c, 9, 50, 52
1, 130800, Note_on_c, 9, 42, 54
1, 130808, Note_on_c, 9, 64, 0
1, 130808, Note_on_c, 9, 42, 0
1, 131039, Note_on_c, 9, 50, 0
1, 131280, Note_on_c, 9, 64, 40
1, 131280, Note_on_c, 9, 50, 52
1, 131280, Note_on_c, 9, 42, 54
1, 131288, Note_on_c, 9, 64, 0
1, 131288, Note_on_c, 9, 42, 0
1, 131519, Note_on_c, 9, 50, 0
1, 131760, Note_on_c, 9, 41, 28
1, 131760, Note_on_c, 9, 42, 54
1, 131760, Note_on_c, 9, 35, 74
1, 131768, Note_on_c, 9, 42, 0
1, 131999, Note_on_c, 9, 41, 0
1, 131999, Note_on_c, 9, 35, 0
1, 132000, Note_on_c, 9, 64, 34
1, 132000, Note_on_c, 9, 46, 40
1, 132000, Note_on_c, 9, 50, 48
1, 132008, Note_on_c, 9, 64, 0
1, 132008, Note_on_c, 9, 46, 0
1, 132239, Note_on_c, 9, 50, 0
1, 132240, Note_on_c, 9, 42, 54
1, 132248, Note_on_c, 9, 42, 0
1, 132480, Note_on_c, 9, 46, 40
1, 132480, Note_on_c, 9, 35, 40
1, 132488, Note_on_c, 9, 46, 0
1, 132719, Note_on_c, 9, 35, 0
1, 132720, Note_on_c, 9, 64, 40
1, 132720, Note_on_c, 9, 50, 46
1, 132720, Note_on_c, 9, 42, 54
1, 132720, Note_on_c, 9, 35, 38
1, 132728, Note_on_c, 9, 64, 0
1, 132728, Note_on_c, 9, 42, 0
1, 132959, Note_on_c, 9, 50, 0
1, 132959, Note_on_c, 9, 35, 0
1, 132960, Note_on_c, 9, 41, 27
1, 132960, Note_on_c, 9, 35, 95
1, 133199, Note_on_c, 9, 41, 0
1, 133199, Note_on_c, 9, 35, 0
1, 133200, Note_on_c, 9, 64, 44
1, 133200, Note_on_c, 9, 50, 58
1, 133200, Note_on_c, 9, 42, 54
1, 133200, Note_on_c, 9, 35, 33
1, 133208, Note_on_c, 9, 64, 0
1, 133208, Note_on_c, 9, 42, 0
1, 133439, Note_on_c, 9, 50, 0
1, 133439, Note_on_c, 9, 35, 0
1, 133440, Note_on_c, 9, 35, 31
1, 133679, Note_on_c, 9, 35, 0
1, 133680, Note_on_c, 9, 41, 27
1, 133680, Note_on_c, 9, 42, 54
1, 133680, Note_on_c, 9, 35, 71
1, 133688, Note_on_c, 9, 42, 0
1, 133919, Note_on_c, 9, 41, 0
1, 133919, Note_on_c, 9, 35, 0
1, 133920, Note_on_c, 9, 64, 34
1, 133920, Note_on_c, 9, 46, 40
1, 133920, Note_on_c, 9, 50, 56
1, 133920, Note_on_c, 9, 35, 33
1, 133928, Note_on_c, 9, 64, 0
1, 133928, Note_on_c, 9, 46, 0
1, 134159, Note_on_c, 9, 50, 0
1, 134159, Note_on_c, 9, 35, 0
1, 134160, Note_on_c, 9, 42, 54
1, 134160, Note_on_c, 9, 35, 29
1, 134168, Note_on_c, 9, 42, 0
1, 134399, Note_on_c, 9, 35, 0
1, 134400, Note_on_c, 9, 46, 40
1, 134408, Note_on_c, 9, 46, 0
1, 134640, Note_on_c, 9, 64, 30
1, 134640, Note_on_c, 9, 50, 50
1, 134640, Note_on_c, 9, 42, 54
1, 134648, Note_on_c, 9, 64, 0
1, 134648, Note_on_c, 9, 42, 0
1, 134879, Note_on_c, 9, 50, 0
1, 135120, Note_on_c, 9, 64, 36
1, 135120, Note_on_c, 9, 50, 38
1, 135120, Note_on_c, 9, 42, 54
1, 135128, Note_on_c, 9, 64, 0
1, 135128, Note_on_c, 9, 42, 0
1, 135359, Note_on_c, 9, 50, 0
1, 135600, Note_on_c, 9, 41, 29
1, 135600, Note_on_c, 9, 42, 54
1, 135600, Note_on_c, 9, 35, 74
1, 135608, Note_on_c, 9, 42, 0
1, 135839, Note_on_c, 9, 41, 0
1, 135839, Note_on_c, 9, 35, 0
1, 135840, Note_on_c, 9, 64, 26
1, 135840, Note_on_c, 9, 46, 40
1, 135840, Note_on_c, 9, 50, 44
1, 135848, Note_on_c, 9, 64, 0
1, 135848, Note_on_c, 9, 46, 0
1, 136079, Note_on_c, 9, 50, 0
1, 136080, Note_on_c, 9, 42, 54
1, 136088, Note_on_c, 9, 42, 0
1, 136320, Note_on_c, 9, 46, 40
1, 136320, Note_on_c, 9, 35, 40
1, 136328, Note_on_c, 9, 46, 0
1, 136559, Note_on_c, 9, 35, 0
1, 136560, Note_on_c, 9, 64, 42
1, 136560, Note_on_c, 9, 50, 46
1, 136560, Note_on_c, 9, 42, 54
1, 136560, Note_on_c, 9, 35, 38
1, 136568, Note_on_c, 9, 64, 0
1, 136568, Note_on_c, 9, 42, 0
1, 136799, Note_on_c, 9, 50, 0
1, 136799, Note_on_c, 9, 35, 0
1, 136800, Note_on_c, 9, 41, 28
1, 136800, Note_on_c, 9, 35, 95
1, 137039, Note_on_c, 9, 41, 0
1, 137039, Note_on_c, 9, 35, 0
1, 137040, Note_on_c, 9, 64, 44
1, 137040, Note_on_c, 9, 50, 40
1, 137040, Note_on_c, 9, 42, 54
1, 137040, Note_on_c, 9, 35, 33
1, 137048, Note_on_c, 9, 64, 0
1, 137048, Note_on_c, 9, 42, 0
1, 137279, Note_on_c, 9, 50, 0
1, 137279, Note_on_c, 9, 35, 0
1, 137280, Note_on_c, 9, 35, 31
1, 137519, Note_on_c, 9, 35, 0
1, 137520, Note_on_c, 9, 41, 28
1, 137520, Note_on_c, 9, 42, 54
1, 137520, Note_on_c, 9, 35, 71
1, 137528, Note_on_c, 9, 42, 0
1, 137759, Note_on_c, 9, 41, 0
1, 137759, Note_on_c, 9, 35, 0
1, 137760, Note_on_c, 9, 64, 46
1, 137760, Note_on_c, 9, 46, 40
1, 137760, Note_on_c, 9, 50, 52
1, 137760, Note_on_c, 9, 35, 33
1, 137768, Note_on_c, 9, 64, 0
1, 137768, Note_on_c, 9, 46, 0
1, 137999, Note_on_c, 9, 50, 0
1, 137999, Note_on_c, 9, 35, 0
1, 138000, Note_on_c, 9, 42, 54
1, 138000, Note_on_c, 9, 35, 29
1, 138008, Note_on_c, 9, 42, 0
1, 138239, Note_on_c, 9, 35, 0
1, 138240, Note_on_c, 9, 46, 40
1, 138248, Note_on_c, 9, 46, 0
1, 138480, Note_on_c, 9, 64, 44
1, 138480, Note_on_c, 9, 50, 52
1, 138480, Note_on_c, 9, 42, 54
1, 138488, Note_on_c, 9, 64, 0
1, 138488, Note_on_c, 9, 42, 0
1, 138719, Note_on_c, 9, 50, 0
1, 138960, Note_on_c, 9, 64, 40
1, 138960, Note_on_c, 9, 50, 52
1, 138960, Note_on_c, 9, 42, 54
1, 138968, Note_on_c, 9, 64, 0
1, 138968, Note_on_c, 9, 42, 0
1, 139199, Note_on_c, 9, 50, 0
1, 139440, Note_on_c, 9, 41, 28
1, 139440, Note_on_c, 9, 42, 54
1, 139440, Note_on_c, 9, 35, 74
1, 139448, Note_on_c, 9, 42, 0
1, 139679, Note_on_c, 9, 41, 0
1, 139679, Note_on_c, 9, 35, 0
1, 139680, Note_on_c, 9, 64, 34
1, 139680, Note_on_c, 9, 46, 40
1, 139680, Note_on_c, 9, 50, 48
1, 139688, Note_on_c, 9, 64, 0
1, 139688, Note_on_c, 9, 46, 0
1, 139919, Note_on_c, 9, 50, 0
1, 139920, Note_on_c, 9, 42, 54
1, 139928, Note_on_c, 9, 42, 0
1, 140160, Note_on_c, 9, 46, 40
1, 140160, Note_on_c, 9, 35, 40
1, 140168, Note_on_c, 9, 46, 0
1, 140399, Note_on_c, 9, 35, 0
1, 140400, Note_on_c, 9, 64, 40
1, 140400, Note_on_c, 9, 50, 46
1, 140400, Note_on_c, 9, 42, 54
1, 140400, Note_on_c, 9, 35, 38
1, 140408, Note_on_c, 9, 64, 0
1, 140408, Note_on_c, 9, 42, 0
1, 140639, Note_on_c, 9, 50, 0
1, 140639, Note_on_c, 9, 35, 0
1, 140640, Note_on_c, 9, 41, 27
1, 140640, Note_on_c, 9, 35, 95
1, 140879, Note_on_c, 9, 41, 0
1, 140879, Note_on_c, 9, 35, 0
1, 140880, Note_on_c, 9, 64, 44
1, 140880, Note_on_c, 9, 50, 58
1, 140880, Note_on_c, 9, 42, 54
1, 140880, Note_on_c, 9, 35, 33
1, 140888, Note_on_c, 9, 64, 0
1, 140888, Note_on_c, 9, 42, 0
1, 141119, Note_on_c, 9, 50, 0
1, 141119, Note_on_c, 9, 35, 0
1, 141120, Note_on_c, 9, 35, 31
1, 141359, Note_on_c, 9, 35, 0
1, 141360, Note_on_c, 9, 41, 27
1, 141360, Note_on_c, 9, 42, 54
1, 141360, Note_on_c, 9, 35, 71
1, 141368, Note_on_c, 9, 42, 0
1, 141599, Note_on_c, 9, 41, 0
1, 141599, Note_on_c, 9, 35, 0
1, 141600, Note_on_c, 9, 64, 34
1, 141600, Note_on_c, 9, 46, 40
1, 141600, Note_on_c, 9, 50, 56
1, 141600, Note_on_c, 9, 35, 33
1, 141608, Note_on_c, 9, 64, 0
1, 141608, Note_on_c, 9, 46, 0
1, 141839, Note_on_c, 9, 50, 0
1, 141839, Note_on_c, 9, 35, 0
1, 141840, Note_on_c, 9, 42, 54
1, 141840, Note_on_c, 9, 35, 29
1, 141848, Note_on_c, 9, 42, 0
1, 142079, Note_on_c, 9, 35, 0
1, 142080, Note_on_c, 9, 46, 40
1, 142088, Note_on_c, 9, 46, 0
1, 142320, Note_on_c, 9, 64, 30
1, 142320, Note_on_c, 9, 50, 50
1, 142320, Note_on_c, 9, 42, 54
1, 142328, Note_on_c, 9, 64, 0
1, 142328, Note_on_c, 9, 42, 0
1, 142559, Note_on_c, 9, 50, 0
1, 142800, Note_on_c, 9, 64, 36
1, 142800, Note_on_c, 9, 50, 38
1, 142800, Note_on_c, 9, 42, 54
1, 142808, Note_on_c, 9, 64, 0
1, 142808, Note_on_c, 9, 42, 0
1, 143039, Note_on_c, 9, 50, 0
1, 143280, Note_on_c, 9, 41, 29
1, 143280, Note_on_c, 9, 42, 54
1, 143280, Note_on_c, 9, 35, 74
1, 143288, Note_on_c, 9, 42, 0
1, 143519, Note_on_c, 9, 41, 0
1, 143519, Note_on_c, 9, 35, 0
1, 143520, Note_on_c, 9, 64, 26
1, 143520, Note_on_c, 9, 46, 40
1, 143520, Note_on_c, 9, 50, 44
1, 143528, Note_on_c, 9, 64, 0
1, 143528, Note_on_c, 9, 46, 0
1, 143759, Note_on_c, 9, 50, 0
1, 143760, Note_on_c, 9, 42, 54
1, 143768, Note_on_c, 9, 42, 0
1, 144000, Note_on_c, 9, 46, 40
1, 144000, Note_on_c, 9, 35, 40
1, 144008, Note_on_c, 9, 46, 0
1, 144239, Note_on_c, 9, 35, 0
1, 144240, Note_on_c, 9, 64, 42
1, 144240, Note_on_c, 9, 50, 46
1, 144240, Note_on_c, 9, 42, 54
1, 144240, Note_on_c, 9, 35, 38
1, 144248, Note_on_c, 9, 64, 0
1, 144248, Note_on_c, 9, 42, 0
1, 144479, Note_on_c, 9, 50, 0
1, 144479, Note_on_c, 9, 35, 0
1, 144480, Note_on_c, 9, 41, 28
1, 144480, Note_on_c, 9, 35, 95
1, 144719, Note_on_c, 9, 41, 0
1, 144719, Note_on_c, 9, 35, 0
1, 144720, Note_on_c, 9, 64, 44
1, 144720, Note_on_c, 9, 50, 40
1, 144720, Note_on_c, 9, 42, 54
1, 144720, Note_on_c, 9, 35, 33
1, 144728, Note_on_c, 9, 64, 0
1, 144728, Note_on_c, 9, 42, 0
1, 144959, Note_on_c, 9, 50, 0
1, 144959, Note_on_c, 9, 35, 0
1, 144960, Note_on_c, 9, 35, 31
1, 145199, Note_on_c, 9, 35, 0
1, 145200, Note_on_c, 9, 41, 28
1, 145200, Note_on_c, 9, 42, 54
1, 145200, Note_on_c, 9, 35, 71
1, 145208, Note_on_c, 9, 42, 0
1, 145439, Note_on_c, 9, 41, 0
1, 145439, Note_on_c, 9, 35, 0
1, 145440, Note_on_c, 9, 64, 46
1, 145440, Note_on_c, 9, 46, 40
1, 145440, Note_on_c, 9, 50, 52
1, 145440, Note_on_c, 9, 35, 33
1, 145448, Note_on_c, 9, 64, 0
1, 145448, Note_on_c, 9, 46, 0
1, 145679, Note_on_c, 9, 50, 0
1, 145679, Note_on_c, 9, 35, 0
1, 145680, Note_on_c, 9, 42, 54
1, 145680, Note_on_c, 9, 35, 29
1, 145688, Note_on_c, 9, 42, 0
1, 145919, Note_on_c, 9, 35, 0
1, 145920, Note_on_c, 9, 46, 40
1, 145928, Note_on_c, 9, 46, 0
1, 146160, Note_on_c, 9, 64, 44
1, 146160, Note_on_c, 9, 50, 52
1, 146160, Note_on_c, 9, 42, 54
1, 146168, Note_on_c, 9, 64, 0
1, 146168, Note_on_c, 9, 42, 0
1, 146399, Note_on_c, 9, 50, 0
1, 146640, Note_on_c, 9, 64, 40
1, 146640, Note_on_c, 9, 50, 52
1, 146640, Note_on_c, 9, 42, 54
1, 146648, Note_on_c, 9, 64, 0
1, 146648, Note_on_c, 9, 42, 0
1, 146879, Note_on_c, 9, 50, 0
1, 147120, Note_on_c, 9, 41, 28
1, 147120, Note_on_c, 9, 42, 54
1, 147120, Note_on_c, 9, 35, 74
1, 147128, Note_on_c, 9, 42, 0
1, 147359, Note_on_c, 9, 41, 0
1, 147359, Note_on_c, 9, 35, 0
1, 147360, Note_on_c, 9, 64, 34
1, 147360, Note_on_c, 9, 46, 40
1, 147360, Note_on_c, 9, 50, 48
1, 147368, Note_on_c, 9, 64, 0
1, 147368, Note_on_c, 9, 46, 0
1, 147599, Note_on_c, 9, 50, 0
1, 147600, Note_on_c, 9, 42, 54
1, 147608, Note_on_c, 9, 42, 0
1, 147840, Note_on_c, 9, 46, 40
1, 147840, Note_on_c, 9, 35, 40
1, 147848, Note_on_c, 9, 46, 0
1, 148079, Note_on_c, 9, 35, 0
1, 148080, Note_on_c, 9, 64, 40
1, 148080, Note_on_c, 9, 50, 46
1, 148080, Note_on_c, 9, 42, 54
1, 148080, Note_on_c, 9, 35, 38
1, 148088, Note_on_c, 9, 64, 0
1, 148088, Note_on_c, 9, 42, 0
1, 148319, Note_on_c, 9, 50, 0
1, 148319, Note_on_c, 9, 35, 0
1, 148320, Note_on_c, 9, 41, 27
1, 148320, Note_on_c, 9, 35, 95
1, 148559, Note_on_c, 9, 41, 0
1, 148559, Note_on_c, 9, 35, 0
1, 148560, Note_on_c, 9, 64, 44
1, 148560, Note_on_c, 9, 50, 58
1, 148560, Note_on_c, 9, 42, 54
1, 148560, Note_on_c, 9, 35, 33
1, 148568, Note_on_c, 9, 64, 0
1, 148568, Note_on_c, 9, 42, 0
1, 148799, Note_on_c, 9, 50, 0
1, 148799, Note_on_c, 9, 35, 0
1, 148800, Note_on_c, 9, 35, 31
1, 149039, Note_on_c, 9, 35, 0
1, 149040, Note_on_c, 9, 41, 27
1, 149040, Note_on_c, 9, 42, 54
1, 149040, Note_on_c, 9, 35, 71
1, 149048, Note_on_c, 9, 42, 0
1, 149279, Note_on_c, 9, 41, 0
1, 149279, Note_on_c, 9, 35, 0
1, 149280, Note_on_c, 9, 64, 34
1, 149280, Note_on_c, 9, 46, 40
1, 149280, Note_on_c, 9, 50, 56
1, 149280, Note_on_c, 9, 35, 33
1, 149288, Note_on_c, 9, 64, 0
1, 149288, Note_on_c, 9, 46, 0
1, 149519, Note_on_c, 9, 50, 0
1, 149519, Note_on_c, 9, 35, 0
1, 149520, Note_on_c, 9, 42, 54
1, 149520, Note_on_c, 9, 35, 29
1, 149528, Note_on_c, 9, 42, 0
1, 149759, Note_on_c, 9, 35, 0
1, 149760, Note_on_c, 9, 46, 40
1, 149768, Note_on_c, 9, 46, 0
1, 150000, Note_on_c, 9, 64, 30
1, 150000, Note_on_c, 9, 50, 50
1, 150000, Note_on_c, 9, 42, 54
1, 150008, Note_on_c, 9, 64, 0
1, 150008, Note_on_c, 9, 42, 0
1, 150239, Note_on_c, 9, 50, 0
1, 150480, Note_on_c, 9, 64, 36
1, 150480, Note_on_c, 9, 50, 38
1, 150480, Note_on_c, 9, 42, 54
1, 150488, Note_on_c, 9, 64, 0
1, 150488, Note_on_c, 9, 42, 0
1, 150719, Note_on_c, 9, 50, 0
1, 150960, Note_on_c, 9, 41, 29
1, 150960, Note_on_c, 9, 42, 54
1, 150960, Note_on_c, 9, 35, 74
1, 150968, Note_on_c, 9, 42, 0
1, 151199, Note_on_c, 9, 41, 0
1, 151199, Note_on_c, 9, 35, 0
1, 151200, Note_on_c, 9, 64, 26
1, 151200, Note_on_c, 9, 46, 40
1, 151200, Note_on_c, 9, 50, 44
1, 151208, Note_on_c, 9, 64, 0
1, 151208, Note_on_c, 9, 46, 0
1, 151439, Note_on_c, 9, 50, 0
1, 151440, Note_on_c, 9, 42, 54
1, 151448, Note_on_c, 9, 42, 0
1, 151680, Note_on_c, 9, 46, 40
1, 151680, Note_on_c, 9, 35, 40
1, 151688, Note_on_c, 9, 46, 0
1, 151919, Note_on_c, 9, 35, 0
1, 151920, Note_on_c, 9, 64, 42
1, 151920, Note_on_c, 9, 50, 46
1, 151920, Note_on_c, 9, 42, 54
1, 151920, Note_on_c, 9, 35, 38
1, 151928, Note_on_c, 9, 64, 0
1, 151928, Note_on_c, 9, 42, 0
1, 152159, Note_on_c, 9, 50, 0
1, 152159, Note_on_c, 9, 35, 0
1, 152160, Note_on_c, 9, 41, 28
1, 152160, Note_on_c, 9, 35, 95
1, 152399, Note_on_c, 9, 41, 0
1, 152399, Note_on_c, 9, 35, 0
1, 152400, Note_on_c, 9, 64, 44
1, 152400, Note_on_c, 9, 50, 40
1, 152400, Note_on_c, 9, 42, 54
1, 152400, Note_on_c, 9, 35, 33
1, 152408, Note_on_c, 9, 64, 0
1, 152408, Note_on_c, 9, 42, 0
1, 152639, Note_on_c, 9, 50, 0
1, 152639, Note_on_c, 9, 35, 0
1, 152640, Note_on_c, 9, 35, 31
1, 152879, Note_on_c, 9, 35, 0
1, 152880, Note_on_c, 9, 41, 28
1, 152880, Note_on_c, 9, 42, 54
1, 152880, Note_on_c, 9, 35, 71
1, 152888, Note_on_c, 9, 42, 0
1, 153119, Note_on_c, 9, 41, 0
1, 153119, Note_on_c, 9, 35, 0
1, 153120, Note_on_c, 9, 64, 46
1, 153120, Note_on_c, 9, 46, 40
1, 153120, Note_on_c, 9, 50, 52
1, 153120, Note_on_c, 9, 35, 33
1, 153128, Note_on_c, 9, 64, 0
1, 153128, Note_on_c, 9, 46, 0
1, 153359, Note_on_c, 9, 50, 0
1, 153359, Note_on_c, 9, 35, 0
1, 153360, Note_on_c, 9, 42, 54
1, 153360, Note_on_c, 9, 35, 29
1, 153368, Note_on_c, 9, 42, 0
1, 153599, Note_on_c, 9, 35, 0
1, 153600, Note_on_c, 9, 46, 40
1, 153608, Note_on_c, 9, 46, 0
1, 153840, Note_on_c, 9, 64, 44
1, 153840, Note_on_c, 9, 50, 52
1, 153840, Note_on_c, 9, 42, 54
1, 153848, Note_on_c, 9, 64, 0
1, 153848, Note_on_c, 9, 42, 0
1, 154079, Note_on_c, 9, 50, 0
1, 154320, Note_on_c, 9, 64, 40
1, 154320, Note_on_c, 9, 50, 52
1, 154320, Note_on_c, 9, 42, 54
1, 154328, Note_on_c, 9, 64, 0
1, 154328, Note_on_c, 9, 42, 0
1, 154559, Note_on_c, 9, 50, 0
1, 154800, Note_on_c, 9, 41, 28
1, 154800, Note_on_c, 9, 42, 54
1, 154800, Note_on_c, 9, 35, 74
1, 154808, Note_on_c, 9, 42, 0
1, 155039, Note_on_c, 9, 41, 0
1, 155039, Note_on_c, 9, 35, 0
1, 155040, Note_on_c, 9, 64, 34
1, 155040, Note_on_c, 9, 46, 40
1, 155040, Note_on_c, 9, 50, 48
1, 155048, Note_on_c, 9, 64, 0
1, 155048, Note_on_c, 9, 46, 0
1, 155279, Note_on_c, 9, 50, 0
1, 155280, Note_on_c, 9, 42, 54
1, 155288, Note_on_c, 9, 42, 0
1, 155520, Note_on_c, 9, 46, 40
1, 155520, Note_on_c, 9, 50, 120
1, 155520, Note_on_c, 9, 35, 40
1, 155522, Note_on_c, 9, 46, 0
1, 155599, Note_on_c, 9, 50, 0
1, 155600, Note_on_c, 9, 50, 6
1, 155639, Note_on_c, 9, 35, 0
1, 155639, Note_on_c, 9, 50, 0
1, 155640, Note_on_c, 9, 50, 90
1, 155719, Note_on_c, 9, 50, 0
1, 155720, Note_on_c, 9, 50, 30
1, 155720, Note_on_c, 9, 35, 25
1, 155759, Note_on_c, 9, 50, 0
1, 155759, Note_on_c, 9, 35, 0
1, 155760, Note_on_c, 9, 64, 40
1, 155760, Note_on_c, 9, 50, 46
1, 155760, Note_on_c, 9, 42, 54
1, 155760, Note_on_c, 9, 35, 38
1, 155761, Note_on_c, 9, 64, 0
1, 155761, Note_on_c, 9, 42, 0
1, 155819, Note_on_c, 9, 50, 0
1, 155819, Note_on_c, 9, 35, 0
1, 155835, Note_on_c, 9, 48, 25
1, 155835, Note_on_c, 9, 50, 25
1, 155835, Note_on_c, 9, 35, 60
1, 155879, Note_on_c, 9, 48, 0
1, 155879, Note_on_c, 9, 50, 0
1, 155879, Note_on_c, 9, 35, 0
1, 155880, Note_on_c, 9, 48, 120
1, 155880, Note_on_c, 9, 50, 120
1, 155939, Note_on_c, 9, 48, 0
1, 155939, Note_on_c, 9, 50, 0
1, 155970, Note_on_c, 9, 48, 6
1, 155970, Note_on_c, 9, 50, 6
1, 155999, Note_on_c, 9, 48, 0
1, 155999, Note_on_c, 9, 50, 0
1, 156000, Note_on_c, 9, 41, 27
1, 156000, Note_on_c, 9, 48, 90
1, 156000, Note_on_c, 9, 50, 90
1, 156000, Note_on_c, 9, 35, 95
1, 156059, Note_on_c, 9, 41, 0
1, 156059, Note_on_c, 9, 48, 0
1, 156059, Note_on_c, 9, 50, 0
1, 156059, Note_on_c, 9, 35, 0
1, 156075, Note_on_c, 9, 48, 30
1, 156075, Note_on_c, 9, 50, 30
1, 156075, Note_on_c, 9, 35, 25
1, 156119, Note_on_c, 9, 48, 0
1, 156119, Note_on_c, 9, 50, 0
1, 156119, Note_on_c, 9, 35, 0
1, 156120, Note_on_c, 9, 35, 120
1, 156179, Note_on_c, 9, 35, 0
1, 156195, Note_on_c, 9, 47, 25
1, 156195, Note_on_c, 9, 48, 25
1, 156195, Note_on_c, 9, 35, 60
1, 156239, Note_on_c, 9, 47, 0
1, 156239, Note_on_c, 9, 48, 0
1, 156239, Note_on_c, 9, 35, 0
1, 156240, Note_on_c, 9, 64, 44
1, 156240, Note_on_c, 9, 47, 120
1, 156240, Note_on_c, 9, 48, 120
1, 156240, Note_on_c, 9, 50, 58
1, 156240, Note_on_c, 9, 42, 54
1, 156240, Note_on_c, 9, 35, 33
1, 156241, Note_on_c, 9, 64, 0
1, 156241, Note_on_c, 9, 42, 0
1, 156299, Note_on_c, 9, 47, 0
1, 156299, Note_on_c, 9, 48, 0
1, 156299, Note_on_c, 9, 50, 0
1, 156330, Note_on_c, 9, 47, 6
1, 156330, Note_on_c, 9, 48, 6
1, 156359, Note_on_c, 9, 47, 0
1, 156359, Note_on_c, 9, 48, 0
1, 156360, Note_on_c, 9, 47, 90
1, 156360, Note_on_c, 9, 48, 90
1, 156419, Note_on_c, 9, 35, 0
1, 156419, Note_on_c, 9, 47, 0
1, 156419, Note_on_c, 9, 48, 0
1, 156435, Note_on_c, 9, 47, 30
1, 156435, Note_on_c, 9, 48, 30
1, 156435, Note_on_c, 9, 35, 25
1, 156479, Note_on_c, 9, 47, 0
1, 156479, Note_on_c, 9, 48, 0
1, 156479, Note_on_c, 9, 35, 0
1, 156480, Note_on_c, 9, 35, 31
1, 156539, Note_on_c, 9, 35, 0
1, 156555, Note_on_c, 9, 45, 25
1, 156555, Note_on_c, 9, 47, 25
1, 156555, Note_on_c, 9, 35, 60
1, 156599, Note_on_c, 9, 45, 0
1, 156599, Note_on_c, 9, 47, 0
1, 156599, Note_on_c, 9, 35, 0
1, 156600, Note_on_c, 9, 45, 120
1, 156600, Note_on_c, 9, 47, 120
1, 156659, Note_on_c, 9, 45, 0
1, 156659, Note_on_c, 9, 47, 0
1, 156690, Note_on_c, 9, 45, 6
1, 156690, Note_on_c, 9, 47, 6
1, 156719, Note_on_c, 9, 45, 0
1, 156719, Note_on_c, 9, 47, 0
1, 156720, Note_on_c, 9, 41, 27
1, 156720, Note_on_c, 9, 45, 90
1, 156720, Note_on_c, 9, 47, 90
1, 156720, Note_on_c, 9, 42, 54
1, 156720, Note_on_c, 9, 35, 71
1, 156721, Note_on_c, 9, 42, 0
1, 156779, Note_on_c, 9, 41, 0
1, 156779, Note_on_c, 9, 45, 0
1, 156779, Note_on_c, 9, 47, 0
1, 156779, Note_on_c, 9, 35, 0
1, 156795, Note_on_c, 9, 45, 30
1, 156795, Note_on_c, 9, 47, 30
1, 156795, Note_on_c, 9, 35, 9
1, 156839, Note_on_c, 9, 45, 0
1, 156839, Note_on_c, 9, 47, 0
1, 156839, Note_on_c, 9, 35, 0
1, 156840, Note_on_c, 9, 35, 104
1, 156899, Note_on_c, 9, 35, 0
1, 156915, Note_on_c, 9, 45, 25
1, 156915, Note_on_c, 9, 35, 44
1, 156915, Note_on_c, 9, 43, 25
1, 156959, Note_on_c, 9, 45, 0
1, 156959, Note_on_c, 9, 35, 0
1, 156959, Note_on_c, 9, 43, 0
1, 156960, Note_on_c, 9, 64, 34
1, 156960, Note_on_c, 9, 45, 120
1, 156960, Note_on_c, 9, 46, 40
1, 156960, Note_on_c, 9, 50, 56
1, 156960, Note_on_c, 9, 35, 33
1, 156960, Note_on_c, 9, 43, 120
1, 156961, Note_on_c, 9, 64, 0
1, 156961, Note_on_c, 9, 46, 0
1, 157019, Note_on_c, 9, 45, 0
1, 157019, Note_on_c, 9, 50, 0
1, 157019, Note_on_c, 9, 35, 0
1, 157019, Note_on_c, 9, 43, 0
1, 157035, Note_on_c, 9, 45, 60
1, 157035, Note_on_c, 9, 43, 60
1, 157079, Note_on_c, 9, 45, 0
1, 157079, Note_on_c, 9, 43, 0
1, 157155, Note_on_c, 9, 41, 25
1, 157155, Note_on_c, 9, 43, 25
1, 157199, Note_on_c, 9, 41, 0
1, 157199, Note_on_c, 9, 43, 0
1, 157200, Note_on_c, 9, 41, 120
1, 157200, Note_on_c, 9, 42, 54
1, 157200, Note_on_c, 9, 35, 29
1, 157200, Note_on_c, 9, 43, 120
1, 157201, Note_on_c, 9, 42, 0
1, 157259, Note_on_c, 9, 41, 0
1, 157259, Note_on_c, 9, 35, 0
1, 157259, Note_on_c, 9, 43, 0
1, 157275, Note_on_c, 9, 41, 60
1, 157275, Note_on_c, 9, 43, 60
1, 157319, Note_on_c, 9, 41, 0
1, 157319, Note_on_c, 9, 43, 0
1, 157400, Note_on_c, 9, 35, 25
1, 157439, Note_on_c, 9, 35, 0
1, 157440, Note_on_c, 9, 46, 40
1, 157440, Note_on_c, 9, 35, 120
1, 157448, Note_on_c, 9, 46, 0
1, 157519, Note_on_c, 9, 35, 0
1, 157520, Note_on_c, 9, 35, 60
1, 157559, Note_on_c, 9, 35, 0
1, 157680, Note_on_c, 9, 64, 40
1, 157680, Note_on_c, 9, 50, 60
1, 157680, Note_on_c, 9, 42, 54
1, 157683, Note_on_c, 9, 64, 0
1, 157683, Note_on_c, 9, 42, 0
1, 157760, Note_on_c, 9, 35, 6
1, 157799, Note_on_c, 9, 50, 0
1, 157799, Note_on_c, 9, 35, 0
1, 157800, Note_on_c, 9, 35, 90
1, 157879, Note_on_c, 9, 35, 0
1, 157880, Note_on_c, 9, 40, 25
1, 157880, Note_on_c, 9, 35, 30
1, 157919, Note_on_c, 9, 40, 0
1, 157919, Note_on_c, 9, 35, 0
1, 157920, Note_on_c, 9, 40, 120
1, 157999, Note_on_c, 9, 40, 0
1, 158000, Note_on_c, 9, 40, 60
1, 158039, Note_on_c, 9, 40, 0
1, 158120, Note_on_c, 9, 35, 6
1, 158159, Note_on_c, 9, 35, 0
1, 158160, Note_on_c, 9, 64, 46
1, 158160, Note_on_c, 9, 50, 48
1, 158160, Note_on_c, 9, 42, 54
1, 158160, Note_on_c, 9, 35, 90
1, 158168, Note_on_c, 9, 64, 0
1, 158168, Note_on_c, 9, 42, 0
1, 158239, Note_on_c, 9, 35, 0
1, 158240, Note_on_c, 9, 35, 30
1, 158279, Note_on_c, 9, 35, 0
1, 158399, Note_on_c, 9, 50, 0
1, 158640, Note_on_c, 9, 42, 54
1, 158645, Note_on_c, 9, 42, 0
1, 158850, Note_on_c, 9, 40, 25
1, 158879, Note_on_c, 9, 40, 0
1, 158880, Note_on_c, 9, 64, 36
1, 158880, Note_on_c, 9, 40, 120
1, 158880, Note_on_c, 9, 46, 40
1, 158880, Note_on_c, 9, 50, 54
1, 158882, Note_on_c, 9, 64, 0
1, 158882, Note_on_c, 9, 46, 0
1, 158959, Note_on_c, 9, 40, 0
1, 158959, Note_on_c, 9, 50, 0
1, 158960, Note_on_c, 9, 40, 60
1, 158999, Note_on_c, 9, 40, 0
1, 159120, Note_on_c, 9, 42, 54
1, 159128, Note_on_c, 9, 42, 0
1, 159320, Note_on_c, 9, 35, 25
1, 159359, Note_on_c, 9, 35, 0
1, 159360, Note_on_c, 9, 46, 40
1, 159360, Note_on_c, 9, 35, 120
1, 159368, Note_on_c, 9, 46, 0
1, 159439, Note_on_c, 9, 35, 0
1, 159440, Note_on_c, 9, 35, 60
1, 159479, Note_on_c, 9, 35, 0
1, 159560, Note_on_c, 9, 35, 6
1, 159599, Note_on_c, 9, 35, 0
1, 159600, Note_on_c, 9, 64, 52
1, 159600, Note_on_c, 9, 50, 56
1, 159600, Note_on_c, 9, 42, 54
1, 159600, Note_on_c, 9, 35, 90
1, 159603, Note_on_c, 9, 64, 0
1, 159603, Note_on_c, 9, 42, 0
1, 159679, Note_on_c, 9, 35, 0
1, 159680, Note_on_c, 9, 35, 6
1, 159719, Note_on_c, 9, 50, 0
1, 159719, Note_on_c, 9, 35, 0
1, 159720, Note_on_c, 9, 35, 75
1, 159799, Note_on_c, 9, 35, 0
1, 159800, Note_on_c, 9, 40, 25
1, 159800, Note_on_c, 9, 35, 15
1, 159839, Note_on_c, 9, 40, 0
1, 159839, Note_on_c, 9, 35, 0
1, 159840, Note_on_c, 9, 40, 120
1, 159919, Note_on_c, 9, 40, 0
1, 159920, Note_on_c, 9, 40, 60
1, 159959, Note_on_c, 9, 40, 0
1, 160080, Note_on_c, 9, 64, 54
1, 160080, Note_on_c, 9, 50, 50
1, 160080, Note_on_c, 9, 42, 54
1, 160088, Note_on_c, 9, 64, 0
1, 160088, Note_on_c, 9, 42, 0
1, 160319, Note_on_c, 9, 50, 0
1, 160560, Note_on_c, 9, 42, 54
1, 160565, Note_on_c, 9, 42, 0
1, 160770, Note_on_c, 9, 40, 25
1, 160799, Note_on_c, 9, 40, 0
1, 160800, Note_on_c, 9, 64, 56
1, 160800, Note_on_c, 9, 40, 120
1, 160800, Note_on_c, 9, 46, 40
1, 160800, Note_on_c, 9, 50, 62
1, 160802, Note_on_c, 9, 64, 0
1, 160802, Note_on_c, 9, 46, 0
1, 160879, Note_on_c, 9, 40, 0
1, 160879, Note_on_c, 9, 50, 0
1, 160880, Note_on_c, 9, 40, 60
1, 160919, Note_on_c, 9, 40, 0
1, 161040, Note_on_c, 9, 42, 54
1, 161048, Note_on_c, 9, 42, 0
1, 161240, Note_on_c, 9, 35, 25
1, 161279, Note_on_c, 9, 35, 0
1, 161280, Note_on_c, 9, 46, 40
1, 161280, Note_on_c, 9, 35, 120
1, 161288, Note_on_c, 9, 46, 0
1, 161359, Note_on_c, 9, 35, 0
1, 161360, Note_on_c, 9, 35, 60
1, 161399, Note_on_c, 9, 35, 0
1, 161520, Note_on_c, 9, 64, 54
1, 161520, Note_on_c, 9, 50, 62
1, 161520, Note_on_c, 9, 42, 54
1, 161523, Note_on_c, 9, 64, 0
1, 161523, Note_on_c, 9, 42, 0
1, 161600, Note_on_c, 9, 35, 6
1, 161639, Note_on_c, 9, 50, 0
1, 161639, Note_on_c, 9, 35, 0
1, 161640, Note_on_c, 9, 35, 90
1, 161719, Note_on_c, 9, 35, 0
1, 161720, Note_on_c, 9, 40, 25
1, 161720, Note_on_c, 9, 35, 30
1, 161759, Note_on_c, 9, 40, 0
1, 161759, Note_on_c, 9, 35, 0
1, 161760, Note_on_c, 9, 40, 120
1, 161839, Note_on_c, 9, 40, 0
1, 161840, Note_on_c, 9, 40, 60
1, 161879, Note_on_c, 9, 40, 0
1, 162000, Note_on_c, 9, 64, 50
1, 162000, Note_on_c, 9, 50, 62
1, 162000, Note_on_c, 9, 42, 54
1, 162008, Note_on_c, 9, 64, 0
1, 162008, Note_on_c, 9, 42, 0
1, 162239, Note_on_c, 9, 50, 0
1, 162480, Note_on_c, 9, 42, 54
1, 162485, Note_on_c, 9, 42, 0
1, 162690, Note_on_c, 9, 40, 25
1, 162719, Note_on_c, 9, 40, 0
1, 162720, Note_on_c, 9, 64, 44
1, 162720, Note_on_c, 9, 40, 120
1, 162720, Note_on_c, 9, 46, 40
1, 162720, Note_on_c, 9, 50, 58
1, 162722, Note_on_c, 9, 64, 0
1, 162722, Note_on_c, 9, 46, 0
1, 162799, Note_on_c, 9, 40, 0
1, 162799, Note_on_c, 9, 50, 0
1, 162800, Note_on_c, 9, 40, 60
1, 162839, Note_on_c, 9, 40, 0
1, 162960, Note_on_c, 9, 42, 54
1, 162968, Note_on_c, 9, 42, 0
1, 163200, Note_on_c, 9, 46, 40
1, 163208, Note_on_c, 9, 46, 0
1, 163400, Note_on_c, 9, 35, 25
1, 163439, Note_on_c, 9, 35, 0
1, 163440, Note_on_c, 9, 64, 50
1, 163440, Note_on_c, 9, 50, 56
1, 163440, Note_on_c, 9, 42, 54
1, 163440, Note_on_c, 9, 35, 120
1, 163443, Note_on_c, 9, 64, 0
1, 163443, Note_on_c, 9, 42, 0
1, 163519, Note_on_c, 9, 35, 0
1, 163520, Note_on_c, 9, 35, 60
1, 163559, Note_on_c, 9, 50, 0
1, 163559, Note_on_c, 9, 35, 0
1, 163640, Note_on_c, 9, 40, 25
1, 163679, Note_on_c, 9, 40, 0
1, 163680, Note_on_c, 9, 40, 120
1, 163759, Note_on_c, 9, 40, 0
1, 163760, Note_on_c, 9, 40, 60
1, 163799, Note_on_c, 9, 40, 0
1, 163920, Note_on_c, 9, 64, 54
1, 163920, Note_on_c, 9, 50, 68
1, 163920, Note_on_c, 9, 42, 54
1, 163928, Note_on_c, 9, 64, 0
1, 163928, Note_on_c, 9, 42, 0
1, 164159, Note_on_c, 9, 50, 0
1, 164360, Note_on_c, 9, 35, 25
1, 164399, Note_on_c, 9, 35, 0
1, 164400, Note_on_c, 9, 42, 54
1, 164400, Note_on_c, 9, 35, 120
1, 164405, Note_on_c, 9, 42, 0
1, 164479, Note_on_c, 9, 35, 0
1, 164480, Note_on_c, 9, 35, 60
1, 164519, Note_on_c, 9, 35, 0
1, 164610, Note_on_c, 9, 40, 25
1, 164639, Note_on_c, 9, 40, 0
1, 164640, Note_on_c, 9, 64, 44
1, 164640, Note_on_c, 9, 40, 120
1, 164640, Note_on_c, 9, 46, 40
1, 164640, Note_on_c, 9, 50, 66
1, 164642, Note_on_c, 9, 64, 0
1, 164642, Note_on_c, 9, 46, 0
1, 164719, Note_on_c, 9, 40, 0
1, 164719, Note_on_c, 9, 50, 0
1, 164720, Note_on_c, 9, 40, 60
1, 164759, Note_on_c, 9, 40, 0
1, 164880, Note_on_c, 9, 42, 54
1, 164888, Note_on_c, 9, 42, 0
1, 165080, Note_on_c, 9, 35, 25
1, 165119, Note_on_c, 9, 35, 0
1, 165120, Note_on_c, 9, 46, 30
1, 165120, Note_on_c, 9, 35, 120
1, 165128, Note_on_c, 9, 46, 0
1, 165199, Note_on_c, 9, 35, 0
1, 165200, Note_on_c, 9, 35, 60
1, 165239, Note_on_c, 9, 35, 0
1, 165360, Note_on_c, 9, 64, 30
1, 165360, Note_on_c, 9, 50, 50
1, 165360, Note_on_c, 9, 42, 44
1, 165363, Note_on_c, 9, 64, 0
1, 165363, Note_on_c, 9, 42, 0
1, 165440, Note_on_c, 9, 35, 6
1, 165479, Note_on_c, 9, 50, 0
1, 165479, Note_on_c, 9, 35, 0
1, 165480, Note_on_c, 9, 35, 90
1, 165559, Note_on_c, 9, 35, 0
1, 165560, Note_on_c, 9, 40, 25
1, 165560, Note_on_c, 9, 35, 30
1, 165599, Note_on_c, 9, 40, 0
1, 165599, Note_on_c, 9, 35, 0
1, 165600, Note_on_c, 9, 40, 120
1, 165679, Note_on_c, 9, 40, 0
1, 165680, Note_on_c, 9, 40, 60
1, 165719, Note_on_c, 9, 40, 0
1, 165800, Note_on_c, 9, 35, 6
1, 165839, Note_on_c, 9, 35, 0
1, 165840, Note_on_c, 9, 64, 36
1, 165840, Note_on_c, 9, 50, 38
1, 165840, Note_on_c, 9, 42, 44
1, 165840, Note_on_c, 9, 35, 90
1, 165848, Note_on_c, 9, 64, 0
1, 165848, Note_on_c, 9, 42, 0
1, 165919, Note_on_c, 9, 35, 0
1, 165920, Note_on_c, 9, 35, 30
1, 165959, Note_on_c, 9, 35, 0
1, 166079, Note_on_c, 9, 50, 0
1, 166320, Note_on_c, 9, 41, 29
1, 166320, Note_on_c, 9, 42, 44
1, 166320, Note_on_c, 9, 35, 74
1, 166325, Note_on_c, 9, 42, 0
1, 166499, Note_on_c, 9, 41, 0
1, 166530, Note_on_c, 9, 40, 25
1, 166559, Note_on_c, 9, 35, 0
1, 166559, Note_on_c, 9, 40, 0
1, 166560, Note_on_c, 9, 64, 26
1, 166560, Note_on_c, 9, 40, 120
1, 166560, Note_on_c, 9, 46, 30
1, 166560, Note_on_c, 9, 50, 44
1, 166562, Note_on_c, 9, 64, 0
1, 166562, Note_on_c, 9, 46, 0
1, 166639, Note_on_c, 9, 40, 0
1, 166639, Note_on_c, 9, 50, 0
1, 166640, Note_on_c, 9, 40, 60
1, 166679, Note_on_c, 9, 40, 0
1, 166800, Note_on_c, 9, 42, 44
1, 166808, Note_on_c, 9, 42, 0
1, 167000, Note_on_c, 9, 35, 25
1, 167039, Note_on_c, 9, 35, 0
1, 167040, Note_on_c, 9, 46, 30
1, 167040, Note_on_c, 9, 35, 40
1, 167048, Note_on_c, 9, 46, 0
1, 167119, Note_on_c, 9, 35, 0
1, 167120, Note_on_c, 9, 35, 60
1, 167159, Note_on_c, 9, 35, 0
1, 167240, Note_on_c, 9, 35, 6
1, 167279, Note_on_c, 9, 35, 0
1, 167280, Note_on_c, 9, 64, 42
1, 167280, Note_on_c, 9, 50, 46
1, 167280, Note_on_c, 9, 42, 44
1, 167280, Note_on_c, 9, 35, 38
1, 167283, Note_on_c, 9, 64, 0
1, 167283, Note_on_c, 9, 42, 0
1, 167359, Note_on_c, 9, 35, 0
1, 167360, Note_on_c, 9, 35, 6
1, 167399, Note_on_c, 9, 50, 0
1, 167399, Note_on_c, 9, 35, 0
1, 167400, Note_on_c, 9, 35, 75
1, 167479, Note_on_c, 9, 35, 0
1, 167480, Note_on_c, 9, 40, 25
1, 167480, Note_on_c, 9, 35, 15
1, 167519, Note_on_c, 9, 40, 0
1, 167519, Note_on_c, 9, 35, 0
1, 167520, Note_on_c, 9, 41, 28
1, 167520, Note_on_c, 9, 40, 120
1, 167520, Note_on_c, 9, 35, 95
1, 167599, Note_on_c, 9, 41, 0
1, 167599, Note_on_c, 9, 40, 0
1, 167600, Note_on_c, 9, 40, 60
1, 167639, Note_on_c, 9, 40, 0
1, 167759, Note_on_c, 9, 35, 0
1, 167760, Note_on_c, 9, 64, 44
1, 167760, Note_on_c, 9, 50, 40
1, 167760, Note_on_c, 9, 42, 44
1, 167760, Note_on_c, 9, 35, 33
1, 167768, Note_on_c, 9, 64, 0
1, 167768, Note_on_c, 9, 42, 0
1, 167999, Note_on_c, 9, 50, 0
1, 167999, Note_on_c, 9, 35, 0
1, 168000, Note_on_c, 9, 35, 31
1, 168239, Note_on_c, 9, 35, 0
1, 168240, Note_on_c, 9, 41, 28
1, 168240, Note_on_c, 9, 42, 44
1, 168240, Note_on_c, 9, 35, 71
1, 168245, Note_on_c, 9, 42, 0
1, 168419, Note_on_c, 9, 41, 0
1, 168450, Note_on_c, 9, 40, 25
1, 168479, Note_on_c, 9, 35, 0
1, 168479, Note_on_c, 9, 40, 0
1, 168480, Note_on_c, 9, 64, 46
1, 168480, Note_on_c, 9, 40, 120
1, 168480, Note_on_c, 9, 46, 30
1, 168480, Note_on_c, 9, 50, 52
1, 168480, Note_on_c, 9, 35, 33
1, 168482, Note_on_c, 9, 64, 0
1, 168482, Note_on_c, 9, 46, 0
1, 168559, Note_on_c, 9, 40, 0
1, 168559, Note_on_c, 9, 50, 0
1, 168560, Note_on_c, 9, 40, 60
1, 168599, Note_on_c, 9, 40, 0
1, 168719, Note_on_c, 9, 35, 0
1, 168720, Note_on_c, 9, 42, 44
1, 168720, Note_on_c, 9, 35, 29
1, 168728, Note_on_c, 9, 42, 0
1, 168839, Note_on_c, 9, 35, 0
1, 168920, Note_on_c, 9, 35, 25
1, 168959, Note_on_c, 9, 35, 0
1, 168960, Note_on_c, 9, 46, 30
1, 168960, Note_on_c, 9, 35, 120
1, 168968, Note_on_c, 9, 46, 0
1, 169039, Note_on_c, 9, 35, 0
1, 169040, Note_on_c, 9, 35, 60
1, 169079, Note_on_c, 9, 35, 0
1, 169200, Note_on_c, 9, 64, 44
1, 169200, Note_on_c, 9, 50, 52
1, 169200, Note_on_c, 9, 42, 44
1, 169203, Note_on_c, 9, 64, 0
1, 169203, Note_on_c, 9, 42, 0
1, 169280, Note_on_c, 9, 35, 6
1, 169319, Note_on_c, 9, 50, 0
1, 169319, Note_on_c, 9, 35, 0
1, 169320, Note_on_c, 9, 35, 90
1, 169399, Note_on_c, 9, 35, 0
1, 169400, Note_on_c, 9, 40, 25
1, 169400, Note_on_c, 9, 35, 30
1, 169439, Note_on_c, 9, 40, 0
1, 169439, Note_on_c, 9, 35, 0
1, 169440, Note_on_c, 9, 40, 120
1, 169519, Note_on_c, 9, 40, 0
1, 169520, Note_on_c, 9, 40, 60
1, 169559, Note_on_c, 9, 40, 0
1, 169680, Note_on_c, 9, 64, 40
1, 169680, Note_on_c, 9, 50, 52
1, 169680, Note_on_c, 9, 42, 44
1, 169688, Note_on_c, 9, 64, 0
1, 169688, Note_on_c, 9, 42, 0
1, 169919, Note_on_c, 9, 50, 0
1, 170160, Note_on_c, 9, 41, 28
1, 170160, Note_on_c, 9, 42, 44
1, 170160, Note_on_c, 9, 35, 74
1, 170165, Note_on_c, 9, 42, 0
1, 170339, Note_on_c, 9, 41, 0
1, 170370, Note_on_c, 9, 40, 25
1, 170399, Note_on_c, 9, 35, 0
1, 170399, Note_on_c, 9, 40, 0
1, 170400, Note_on_c, 9, 64, 34
1, 170400, Note_on_c, 9, 40, 120
1, 170400, Note_on_c, 9, 46, 30
1, 170400, Note_on_c, 9, 50, 48
1, 170402, Note_on_c, 9, 64, 0
1, 170402, Note_on_c, 9, 46, 0
1, 170479, Note_on_c, 9, 40, 0
1, 170479, Note_on_c, 9, 50, 0
1, 170480, Note_on_c, 9, 40, 60
1, 170519, Note_on_c, 9, 40, 0
1, 170640, Note_on_c, 9, 42, 44
1, 170648, Note_on_c, 9, 42, 0
1, 170880, Note_on_c, 9, 46, 30
1, 170880, Note_on_c, 9, 35, 40
1, 170888, Note_on_c, 9, 46, 0
1, 170999, Note_on_c, 9, 35, 0
1, 171080, Note_on_c, 9, 35, 25
1, 171119, Note_on_c, 9, 35, 0
1, 171120, Note_on_c, 9, 64, 40
1, 171120, Note_on_c, 9, 50, 46
1, 171120, Note_on_c, 9, 42, 44
1, 171120, Note_on_c, 9, 35, 38
1, 171123, Note_on_c, 9, 64, 0
1, 171123, Note_on_c, 9, 42, 0
1, 171199, Note_on_c, 9, 35, 0
1, 171200, Note_on_c, 9, 35, 60
1, 171239, Note_on_c, 9, 50, 0
1, 171239, Note_on_c, 9, 35, 0
1, 171320, Note_on_c, 9, 40, 25
1, 171359, Note_on_c, 9, 40, 0
1, 171360, Note_on_c, 9, 41, 27
1, 171360, Note_on_c, 9, 40, 120
1, 171360, Note_on_c, 9, 35, 95
1, 171439, Note_on_c, 9, 41, 0
1, 171439, Note_on_c, 9, 40, 0
1, 171440, Note_on_c, 9, 40, 60
1, 171479, Note_on_c, 9, 40, 0
1, 171599, Note_on_c, 9, 35, 0
1, 171600, Note_on_c, 9, 64, 44
1, 171600, Note_on_c, 9, 50, 58
1, 171600, Note_on_c, 9, 42, 44
1, 171600, Note_on_c, 9, 35, 33
1, 171608, Note_on_c, 9, 64, 0
1, 171608, Note_on_c, 9, 42, 0
1, 171839, Note_on_c, 9, 50, 0
1, 171839, Note_on_c, 9, 35, 0
1, 171840, Note_on_c, 9, 35, 31
1, 172019, Note_on_c, 9, 35, 0
1, 172050, Note_on_c, 9, 35, 25
1, 172079, Note_on_c, 9, 35, 0
1, 172080, Note_on_c, 9, 41, 27
1, 172080, Note_on_c, 9, 42, 44
1, 172080, Note_on_c, 9, 35, 71
1, 172085, Note_on_c, 9, 42, 0
1, 172159, Note_on_c, 9, 35, 0
1, 172160, Note_on_c, 9, 35, 60
1, 172199, Note_on_c, 9, 35, 0
1, 172259, Note_on_c, 9, 41, 0
1, 172290, Note_on_c, 9, 40, 25
1, 172319, Note_on_c, 9, 40, 0
1, 172320, Note_on_c, 9, 64, 34
1, 172320, Note_on_c, 9, 40, 120
1, 172320, Note_on_c, 9, 46, 30
1, 172320, Note_on_c, 9, 50, 56
1, 172320, Note_on_c, 9, 35, 33
1, 172322, Note_on_c, 9, 64, 0
1, 172322, Note_on_c, 9, 46, 0
1, 172399, Note_on_c, 9, 40, 0
1, 172399, Note_on_c, 9, 50, 0
1, 172400, Note_on_c, 9, 40, 60
1, 172439, Note_on_c, 9, 40, 0
1, 172520, Note_on_c, 9, 40, 6
1, 172520, Note_on_c, 9, 48, 25
1, 172559, Note_on_c, 9, 35, 0
1, 172559, Note_on_c, 9, 40, 0
1, 172559, Note_on_c, 9, 48, 0
1, 172560, Note_on_c, 9, 40, 90
1, 172560, Note_on_c, 9, 48, 120
1, 172560, Note_on_c, 9, 42, 44
1, 172560, Note_on_c, 9, 35, 29
1, 172562, Note_on_c, 9, 42, 0
1, 172639, Note_on_c, 9, 40, 0
1, 172639, Note_on_c, 9, 48, 0
1, 172640, Note_on_c, 9, 40, 6
1, 172640, Note_on_c, 9, 48, 6
1, 172679, Note_on_c, 9, 40, 0
1, 172679, Note_on_c, 9, 48, 0
1, 172680, Note_on_c, 9, 40, 90
1, 172680, Note_on_c, 9, 48, 90
1, 172739, Note_on_c, 9, 35, 0
1, 172759, Note_on_c, 9, 40, 0
1, 172759, Note_on_c, 9, 48, 0
1, 172760, Note_on_c, 9, 40, 30
1, 172760, Note_on_c, 9, 48, 30
1, 172770, Note_on_c, 9, 35, 25
1, 172799, Note_on_c, 9, 40, 0
1, 172799, Note_on_c, 9, 48, 0
1, 172799, Note_on_c, 9, 35, 0
1, 172800, Note_on_c, 9, 46, 30
1, 172800, Note_on_c, 9, 35, 120
1, 172802, Note_on_c, 9, 46, 0
1, 172879, Note_on_c, 9, 35, 0
1, 172880, Note_on_c, 9, 45, 25
1, 172880, Note_on_c, 9, 47, 25
1, 172880, Note_on_c, 9, 35, 60
1, 172919, Note_on_c, 9, 45, 0
1, 172919, Note_on_c, 9, 47, 0
1, 172919, Note_on_c, 9, 35, 0
1, 172920, Note_on_c, 9, 45, 120
1, 172920, Note_on_c, 9, 47, 120
1, 172999, Note_on_c, 9, 45, 0
1, 172999, Note_on_c, 9, 47, 0
1, 173000, Note_on_c, 9, 45, 6
1, 173000, Note_on_c, 9, 47, 6
1, 173039, Note_on_c, 9, 45, 0
1, 173039, Note_on_c, 9, 47, 0
1, 173040, Note_on_c, 9, 64, 30
1, 173040, Note_on_c, 9, 45, 90
1, 173040, Note_on_c, 9, 47, 90
1, 173040, Note_on_c, 9, 50, 50
1, 173040, Note_on_c, 9, 42, 44
1, 173042, Note_on_c, 9, 64, 0
1, 173042, Note_on_c, 9, 42, 0
1, 173119, Note_on_c, 9, 45, 0
1, 173119, Note_on_c, 9, 47, 0
1, 173119, Note_on_c, 9, 50, 0
1, 173120, Note_on_c, 9, 45, 30
1, 173120, Note_on_c, 9, 47, 30
1, 173120, Note_on_c, 9, 35, 6
1, 173159, Note_on_c, 9, 45, 0
1, 173159, Note_on_c, 9, 47, 0
1, 173159, Note_on_c, 9, 35, 0
1, 173160, Note_on_c, 9, 35, 90
1, 173239, Note_on_c, 9, 35, 0
1, 173240, Note_on_c, 9, 40, 6
1, 173240, Note_on_c, 9, 35, 30
1, 173240, Note_on_c, 9, 43, 6
1, 173279, Note_on_c, 9, 40, 0
1, 173279, Note_on_c, 9, 35, 0
1, 173279, Note_on_c, 9, 43, 0
1, 173280, Note_on_c, 9, 40, 90
1, 173280, Note_on_c, 9, 43, 90
1, 173359, Note_on_c, 9, 40, 0
1, 173359, Note_on_c, 9, 43, 0
1, 173360, Note_on_c, 9, 40, 30
1, 173360, Note_on_c, 9, 43, 30
1, 173399, Note_on_c, 9, 40, 0
1, 173399, Note_on_c, 9, 43, 0
1, 173480, Note_on_c, 9, 41, 6
1, 173480, Note_on_c, 9, 40, 25
1, 173480, Note_on_c, 9, 35, 6
1, 173519, Note_on_c, 9, 41, 0
1, 173519, Note_on_c, 9, 40, 0
1, 173519, Note_on_c, 9, 35, 0
1, 173520, Note_on_c, 9, 64, 36
1, 173520, Note_on_c, 9, 41, 90
1, 173520, Note_on_c, 9, 40, 120
1, 173520, Note_on_c, 9, 50, 38
1, 173520, Note_on_c, 9, 42, 44
1, 173520, Note_on_c, 9, 35, 90
1, 173522, Note_on_c, 9, 64, 0
1, 173522, Note_on_c, 9, 42, 0
1, 173599, Note_on_c, 9, 41, 0
1, 173599, Note_on_c, 9, 40, 0
1, 173599, Note_on_c, 9, 50, 0
1, 173599, Note_on_c, 9, 35, 0
1, 173600, Note_on_c, 9, 41, 30
1, 173600, Note_on_c, 9, 40, 60
1, 173600, Note_on_c, 9, 35, 30
1, 173639, Note_on_c, 9, 41, 0
1, 173639, Note_on_c, 9, 40, 0
1, 173639, Note_on_c, 9, 35, 0
1, 174000, Note_on_c, 9, 41, 29
1, 174000, Note_on_c, 9, 42, 44
1, 174000, Note_on_c, 9, 35, 74
1, 174003, Note_on_c, 9, 42, 0
1, 174119, Note_on_c, 9, 41, 0
1, 174200, Note_on_c, 9, 40, 25
1, 174239, Note_on_c, 9, 35, 0
1, 174239, Note_on_c, 9, 40, 0
1, 174240, Note_on_c, 9, 64, 26
1, 174240, Note_on_c, 9, 40, 120
1, 174240, Note_on_c, 9, 46, 30
1, 174240, Note_on_c, 9, 50, 44
1, 174242, Note_on_c, 9, 64, 0
1, 174242, Note_on_c, 9, 46, 0
1, 174319, Note_on_c, 9, 40, 0
1, 174319, Note_on_c, 9, 50, 0
1, 174320, Note_on_c, 9, 40, 60
1, 174359, Note_on_c, 9, 40, 0
1, 174480, Note_on_c, 9, 42, 44
1, 174488, Note_on_c, 9, 42, 0
1, 174680, Note_on_c, 9, 35, 25
1, 174719, Note_on_c, 9, 35, 0
1, 174720, Note_on_c, 9, 46, 30
1, 174720, Note_on_c, 9, 35, 40
1, 174728, Note_on_c, 9, 46, 0
1, 174799, Note_on_c, 9, 35, 0
1, 174800, Note_on_c, 9, 35, 60
1, 174839, Note_on_c, 9, 35, 0
1, 174920, Note_on_c, 9, 35, 6
1, 174959, Note_on_c, 9, 35, 0
1, 174960, Note_on_c, 9, 64, 42
1, 174960, Note_on_c, 9, 50, 46
1, 174960, Note_on_c, 9, 42, 44
1, 174960, Note_on_c, 9, 35, 38
1, 174963, Note_on_c, 9, 64, 0
1, 174963, Note_on_c, 9, 42, 0
1, 175039, Note_on_c, 9, 35, 0
1, 175040, Note_on_c, 9, 35, 6
1, 175079, Note_on_c, 9, 50, 0
1, 175079, Note_on_c, 9, 35, 0
1, 175080, Note_on_c, 9, 35, 75
1, 175159, Note_on_c, 9, 35, 0
1, 175160, Note_on_c, 9, 40, 25
1, 175160, Note_on_c, 9, 35, 15
1, 175199, Note_on_c, 9, 40, 0
1, 175199, Note_on_c, 9, 35, 0
1, 175200, Note_on_c, 9, 41, 28
1, 175200, Note_on_c, 9, 40, 120
1, 175200, Note_on_c, 9, 35, 95
1, 175279, Note_on_c, 9, 41, 0
1, 175279, Note_on_c, 9, 40, 0
1, 175280, Note_on_c, 9, 40, 60
1, 175319, Note_on_c, 9, 40, 0
1, 175439, Note_on_c, 9, 35, 0
1, 175440, Note_on_c, 9, 64, 44
1, 175440, Note_on_c, 9, 50, 40
1, 175440, Note_on_c, 9, 42, 44
1, 175440, Note_on_c, 9, 35, 33
1, 175448, Note_on_c, 9, 64, 0
1, 175448, Note_on_c, 9, 42, 0
1, 175679, Note_on_c, 9, 50, 0
1, 175679, Note_on_c, 9, 35, 0
1, 175680, Note_on_c, 9, 35, 31
1, 175919, Note_on_c, 9, 35, 0
1, 175920, Note_on_c, 9, 41, 28
1, 175920, Note_on_c, 9, 42, 44
1, 175920, Note_on_c, 9, 35, 71
1, 175925, Note_on_c, 9, 42, 0
1, 176099, Note_on_c, 9, 41, 0
1, 176130, Note_on_c, 9, 40, 25
1, 176159, Note_on_c, 9, 35, 0
1, 176159, Note_on_c, 9, 40, 0
1, 176160, Note_on_c, 9, 64, 46
1, 176160, Note_on_c, 9, 40, 120
1, 176160, Note_on_c, 9, 46, 30
1, 176160, Note_on_c, 9, 50, 52
1, 176160, Note_on_c, 9, 35, 33
1, 176162, Note_on_c, 9, 64, 0
1, 176162, Note_on_c, 9, 46, 0
1, 176239, Note_on_c, 9, 40, 0
1, 176239, Note_on_c, 9, 50, 0
1, 176240, Note_on_c, 9, 40, 60
1, 176279, Note_on_c, 9, 40, 0
1, 176399, Note_on_c, 9, 35, 0
1, 176400, Note_on_c, 9, 42, 44
1, 176400, Note_on_c, 9, 35, 29
1, 176408, Note_on_c, 9, 42, 0
1, 176519, Note_on_c, 9, 35, 0
1, 176600, Note_on_c, 9, 35, 25
1, 176639, Note_on_c, 9, 35, 0
1, 176640, Note_on_c, 9, 46, 30
1, 176640, Note_on_c, 9, 35, 120
1, 176648, Note_on_c, 9, 46, 0
1, 176719, Note_on_c, 9, 35, 0
1, 176720, Note_on_c, 9, 35, 60
1, 176759, Note_on_c, 9, 35, 0
1, 176880, Note_on_c, 9, 64, 44
1, 176880, Note_on_c, 9, 50, 52
1, 176880, Note_on_c, 9, 42, 44
1, 176883, Note_on_c, 9, 64, 0
1, 176883, Note_on_c, 9, 42, 0
1, 176960, Note_on_c, 9, 35, 6
1, 176999, Note_on_c, 9, 50, 0
1, 176999, Note_on_c, 9, 35, 0
1, 177000, Note_on_c, 9, 35, 90
1, 177079, Note_on_c, 9, 35, 0
1, 177080, Note_on_c, 9, 40, 25
1, 177080, Note_on_c, 9, 35, 30
1, 177119, Note_on_c, 9, 40, 0
1, 177119, Note_on_c, 9, 35, 0
1, 177120, Note_on_c, 9, 40, 120
1, 177199, Note_on_c, 9, 40, 0
1, 177200, Note_on_c, 9, 40, 60
1, 177239, Note_on_c, 9, 40, 0
1, 177360, Note_on_c, 9, 64, 40
1, 177360, Note_on_c, 9, 50, 52
1, 177360, Note_on_c, 9, 42, 44
1, 177368, Note_on_c, 9, 64, 0
1, 177368, Note_on_c, 9, 42, 0
1, 177599, Note_on_c, 9, 50, 0
1, 177840, Note_on_c, 9, 41, 28
1, 177840, Note_on_c, 9, 42, 44
1, 177840, Note_on_c, 9, 35, 74
1, 177845, Note_on_c, 9, 42, 0
1, 178019, Note_on_c, 9, 41, 0
1, 178050, Note_on_c, 9, 40, 25
1, 178079, Note_on_c, 9, 35, 0
1, 178079, Note_on_c, 9, 40, 0
1, 178080, Note_on_c, 9, 64, 34
1, 178080, Note_on_c, 9, 40, 120
1, 178080, Note_on_c, 9, 46, 30
1, 178080, Note_on_c, 9, 50, 48
1, 178082, Note_on_c, 9, 64, 0
1, 178082, Note_on_c, 9, 46, 0
1, 178159, Note_on_c, 9, 40, 0
1, 178159, Note_on_c, 9, 50, 0
1, 178160, Note_on_c, 9, 40, 60
1, 178199, Note_on_c, 9, 40, 0
1, 178320, Note_on_c, 9, 42, 44
1, 178328, Note_on_c, 9, 42, 0
1, 178560, Note_on_c, 9, 46, 30
1, 178560, Note_on_c, 9, 35, 40
1, 178568, Note_on_c, 9, 46, 0
1, 178679, Note_on_c, 9, 35, 0
1, 178760, Note_on_c, 9, 35, 25
1, 178799, Note_on_c, 9, 35, 0
1, 178800, Note_on_c, 9, 64, 40
1, 178800, Note_on_c, 9, 50, 46
1, 178800, Note_on_c, 9, 42, 44
1, 178800, Note_on_c, 9, 35, 38
1, 178803, Note_on_c, 9, 64, 0
1, 178803, Note_on_c, 9, 42, 0
1, 178879, Note_on_c, 9, 35, 0
1, 178880, Note_on_c, 9, 35, 60
1, 178919, Note_on_c, 9, 50, 0
1, 178919, Note_on_c, 9, 35, 0
1, 179000, Note_on_c, 9, 40, 25
1, 179039, Note_on_c, 9, 40, 0
1, 179040, Note_on_c, 9, 41, 27
1, 179040, Note_on_c, 9, 40, 120
1, 179040, Note_on_c, 9, 35, 95
1, 179119, Note_on_c, 9, 41, 0
1, 179119, Note_on_c, 9, 40, 0
1, 179120, Note_on_c, 9, 40, 60
1, 179159, Note_on_c, 9, 40, 0
1, 179279, Note_on_c, 9, 35, 0
1, 179280, Note_on_c, 9, 64, 44
1, 179280, Note_on_c, 9, 50, 58
1, 179280, Note_on_c, 9, 42, 44
1, 179280, Note_on_c, 9, 35, 33
1, 179288, Note_on_c, 9, 64, 0
1, 179288, Note_on_c, 9, 42, 0
1, 179519, Note_on_c, 9, 50, 0
1, 179519, Note_on_c, 9, 35, 0
1, 179520, Note_on_c, 9, 35, 31
1, 179699, Note_on_c, 9, 35, 0
1, 179730, Note_on_c, 9, 35, 25
1, 179759, Note_on_c, 9, 35, 0
1, 179760, Note_on_c, 9, 41, 27
1, 179760, Note_on_c, 9, 42, 44
1, 179760, Note_on_c, 9, 35, 71
1, 179765, Note_on_c, 9, 42, 0
1, 179839, Note_on_c, 9, 35, 0
1, 179840, Note_on_c, 9, 35, 60
1, 179879, Note_on_c, 9, 35, 0
1, 179939, Note_on_c, 9, 41, 0
1, 179970, Note_on_c, 9, 40, 25
1, 179999, Note_on_c, 9, 40, 0
1, 180000, Note_on_c, 9, 64, 34
1, 180000, Note_on_c, 9, 40, 120
1, 180000, Note_on_c, 9, 46, 30
1, 180000, Note_on_c, 9, 50, 56
1, 180000, Note_on_c, 9, 35, 33
1, 180002, Note_on_c, 9, 64, 0
1, 180002, Note_on_c, 9, 46, 0
1, 180079, Note_on_c, 9, 40, 0
1, 180079, Note_on_c, 9, 50, 0
1, 180079, Note_on_c, 9, 35, 0
1, 180080, Note_on_c, 9, 40, 60
1, 180080, Note_on_c, 9, 35, 6
1, 180119, Note_on_c, 9, 40, 0
1, 180119, Note_on_c, 9, 35, 0
1, 180120, Note_on_c, 9, 35, 90
1, 180199, Note_on_c, 9, 35, 0
1, 180200, Note_on_c, 9, 40, 6
1, 180200, Note_on_c, 9, 48, 25
1, 180200, Note_on_c, 9, 35, 30
1, 180239, Note_on_c, 9, 40, 0
1, 180239, Note_on_c, 9, 48, 0
1, 180239, Note_on_c, 9, 35, 0
1, 180240, Note_on_c, 9, 40, 90
1, 180240, Note_on_c, 9, 48, 120
1, 180240, Note_on_c, 9, 42, 44
1, 180240, Note_on_c, 9, 35, 29
1, 180242, Note_on_c, 9, 42, 0
1, 180319, Note_on_c, 9, 40, 0
1, 180319, Note_on_c, 9, 48, 0
1, 180320, Note_on_c, 9, 40, 6
1, 180320, Note_on_c, 9, 48, 6
1, 180359, Note_on_c, 9, 40, 0
1, 180359, Note_on_c, 9, 48, 0
1, 180360, Note_on_c, 9, 40, 90
1, 180360, Note_on_c, 9, 48, 90
1, 180419, Note_on_c, 9, 35, 0
1, 180439, Note_on_c, 9, 40, 0
1, 180439, Note_on_c, 9, 48, 0
1, 180440, Note_on_c, 9, 40, 30
1, 180440, Note_on_c, 9, 48, 30
1, 180450, Note_on_c, 9, 35, 25
1, 180479, Note_on_c, 9, 40, 0
1, 180479, Note_on_c, 9, 48, 0
1, 180479, Note_on_c, 9, 35, 0
1, 180480, Note_on_c, 9, 46, 30
1, 180480, Note_on_c, 9, 35, 120
1, 180482, Note_on_c, 9, 46, 0
1, 180559, Note_on_c, 9, 35, 0
1, 180560, Note_on_c, 9, 45, 25
1, 180560, Note_on_c, 9, 47, 25
1, 180560, Note_on_c, 9, 35, 60
1, 180599, Note_on_c, 9, 45, 0
1, 180599, Note_on_c, 9, 47, 0
1, 180599, Note_on_c, 9, 35, 0
1, 180600, Note_on_c, 9, 45, 120
1, 180600, Note_on_c, 9, 47, 120
1, 180679, Note_on_c, 9, 45, 0
1, 180679, Note_on_c, 9, 47, 0
1, 180680, Note_on_c, 9, 45, 6
1, 180680, Note_on_c, 9, 47, 6
1, 180719, Note_on_c, 9, 45, 0
1, 180719, Note_on_c, 9, 47, 0
1, 180720, Note_on_c, 9, 64, 30
1, 180720, Note_on_c, 9, 45, 90
1, 180720, Note_on_c, 9, 47, 90
1, 180720, Note_on_c, 9, 50, 50
1, 180720, Note_on_c, 9, 42, 44
1, 180722, Note_on_c, 9, 64, 0
1, 180722, Note_on_c, 9, 42, 0
1, 180799, Note_on_c, 9, 45, 0
1, 180799, Note_on_c, 9, 47, 0
1, 180799, Note_on_c, 9, 50, 0
1, 180800, Note_on_c, 9, 45, 30
1, 180800, Note_on_c, 9, 47, 30
1, 180800, Note_on_c, 9, 35, 6
1, 180839, Note_on_c, 9, 45, 0
1, 180839, Note_on_c, 9, 47, 0
1, 180839, Note_on_c, 9, 35, 0
1, 180840, Note_on_c, 9, 35, 90
1, 180919, Note_on_c, 9, 35, 0
1, 180920, Note_on_c, 9, 40, 6
1, 180920, Note_on_c, 9, 35, 30
1, 180920, Note_on_c, 9, 43, 6
1, 180959, Note_on_c, 9, 40, 0
1, 180959, Note_on_c, 9, 35, 0
1, 180959, Note_on_c, 9, 43, 0
1, 180960, Note_on_c, 9, 40, 90
1, 180960, Note_on_c, 9, 43, 90
1, 181039, Note_on_c, 9, 40, 0
1, 181039, Note_on_c, 9, 43, 0
1, 181040, Note_on_c, 9, 40, 30
1, 181040, Note_on_c, 9, 43, 30
1, 181079, Note_on_c, 9, 40, 0
1, 181079, Note_on_c, 9, 43, 0
1, 181160, Note_on_c, 9, 41, 6
1, 181160, Note_on_c, 9, 40, 25
1, 181160, Note_on_c, 9, 35, 6
1, 181199, Note_on_c, 9, 41, 0
1, 181199, Note_on_c, 9, 40, 0
1, 181199, Note_on_c, 9, 35, 0
1, 181200, Note_on_c, 9, 64, 36
1, 181200, Note_on_c, 9, 41, 90
1, 181200, Note_on_c, 9, 40, 120
1, 181200, Note_on_c, 9, 50, 38
1, 181200, Note_on_c, 9, 42, 44
1, 181200, Note_on_c, 9, 35, 90
1, 181202, Note_on_c, 9, 64, 0
1, 181202, Note_on_c, 9, 42, 0
1, 181279, Note_on_c, 9, 41, 0
1, 181279, Note_on_c, 9, 40, 0
1, 181279, Note_on_c, 9, 50, 0
1, 181279, Note_on_c, 9, 35, 0
1, 181280, Note_on_c, 9, 41, 30
1, 181280, Note_on_c, 9, 40, 60
1, 181280, Note_on_c, 9, 35, 30
1, 181319, Note_on_c, 9, 41, 0
1, 181319, Note_on_c, 9, 40, 0
1, 181319, Note_on_c, 9, 35, 0
1, 181680, Note_on_c, 9, 41, 29
1, 181680, Note_on_c, 9, 42, 44
1, 181680, Note_on_c, 9, 35, 74
1, 181683, Note_on_c, 9, 42, 0
1, 181799, Note_on_c, 9, 41, 0
1, 181880, Note_on_c, 9, 40, 25
1, 181919, Note_on_c, 9, 35, 0
1, 181919, Note_on_c, 9, 40, 0
1, 181920, Note_on_c, 9, 64, 26
1, 181920, Note_on_c, 9, 40, 120
1, 181920, Note_on_c, 9, 46, 30
1, 181920, Note_on_c, 9, 50, 44
1, 181922, Note_on_c, 9, 64, 0
1, 181922, Note_on_c, 9, 46, 0
1, 181999, Note_on_c, 9, 40, 0
1, 181999, Note_on_c, 9, 50, 0
1, 182000, Note_on_c, 9, 40, 60
1, 182039, Note_on_c, 9, 40, 0
1, 182160, Note_on_c, 9, 42, 44
1, 182168, Note_on_c, 9, 42, 0
1, 182360, Note_on_c, 9, 35, 25
1, 182399, Note_on_c, 9, 35, 0
1, 182400, Note_on_c, 9, 46, 30
1, 182400, Note_on_c, 9, 35, 40
1, 182408, Note_on_c, 9, 46, 0
1, 182479, Note_on_c, 9, 35, 0
1, 182480, Note_on_c, 9, 35, 60
1, 182519, Note_on_c, 9, 35, 0
1, 182600, Note_on_c, 9, 35, 6
1, 182639, Note_on_c, 9, 35, 0
1, 182640, Note_on_c, 9, 64, 42
1, 182640, Note_on_c, 9, 50, 46
1, 182640, Note_on_c, 9, 42, 44
1, 182640, Note_on_c, 9, 35, 38
1, 182643, Note_on_c, 9, 64, 0
1, 182643, Note_on_c, 9, 42, 0
1, 182719, Note_on_c, 9, 35, 0
1, 182720, Note_on_c, 9, 35, 6
1, 182759, Note_on_c, 9, 50, 0
1, 182759, Note_on_c, 9, 35, 0
1, 182760, Note_on_c, 9, 35, 75
1, 182839, Note_on_c, 9, 35, 0
1, 182840, Note_on_c, 9, 40, 25
1, 182840, Note_on_c, 9, 35, 15
1, 182879, Note_on_c, 9, 40, 0
1, 182879, Note_on_c, 9, 35, 0
1, 182880, Note_on_c, 9, 41, 28
1, 182880, Note_on_c, 9, 40, 120
1, 182880, Note_on_c, 9, 35, 95
1, 182959, Note_on_c, 9, 41, 0
1, 182959, Note_on_c, 9, 40, 0
1, 182960, Note_on_c, 9, 40, 60
1, 182999, Note_on_c, 9, 40, 0
1, 183119, Note_on_c, 9, 35, 0
1, 183120, Note_on_c, 9, 64, 44
1, 183120, Note_on_c, 9, 50, 40
1, 183120, Note_on_c, 9, 42, 44
1, 183120, Note_on_c, 9, 35, 33
1, 183128, Note_on_c, 9, 64, 0
1, 183128, Note_on_c, 9, 42, 0
1, 183359, Note_on_c, 9, 50, 0
1, 183359, Note_on_c, 9, 35, 0
1, 183360, Note_on_c, 9, 35, 31
1, 183599, Note_on_c, 9, 35, 0
1, 183600, Note_on_c, 9, 41, 28
1, 183600, Note_on_c, 9, 42, 44
1, 183600, Note_on_c, 9, 35, 71
1, 183605, Note_on_c, 9, 42, 0
1, 183779, Note_on_c, 9, 41, 0
1, 183810, Note_on_c, 9, 40, 25
1, 183839, Note_on_c, 9, 35, 0
1, 183839, Note_on_c, 9, 40, 0
1, 183840, Note_on_c, 9, 64, 46
1, 183840, Note_on_c, 9, 40, 120
1, 183840, Note_on_c, 9, 46, 30
1, 183840, Note_on_c, 9, 50, 52
1, 183840, Note_on_c, 9, 35, 33
1, 183842, Note_on_c, 9, 64, 0
1, 183842, Note_on_c, 9, 46, 0
1, 183919, Note_on_c, 9, 40, 0
1, 183919, Note_on_c, 9, 50, 0
1, 183920, Note_on_c, 9, 40, 60
1, 183959, Note_on_c, 9, 40, 0
1, 184079, Note_on_c, 9, 35, 0
1, 184080, Note_on_c, 9, 42, 44
1, 184080, Note_on_c, 9, 35, 29
1, 184088, Note_on_c, 9, 42, 0
1, 184199, Note_on_c, 9, 35, 0
1, 184280, Note_on_c, 9, 35, 25
1, 184319, Note_on_c, 9, 35, 0
1, 184320, Note_on_c, 9, 46, 30
1, 184320, Note_on_c, 9, 35, 120
1, 184328, Note_on_c, 9, 46, 0
1, 184399, Note_on_c, 9, 35, 0
1, 184400, Note_on_c, 9, 35, 60
1, 184439, Note_on_c, 9, 35, 0
1, 184560, Note_on_c, 9, 64, 44
1, 184560, Note_on_c, 9, 50, 52
1, 184560, Note_on_c, 9, 42, 44
1, 184563, Note_on_c, 9, 64, 0
1, 184563, Note_on_c, 9, 42, 0
1, 184640, Note_on_c, 9, 35, 6
1, 184679, Note_on_c, 9, 50, 0
1, 184679, Note_on_c, 9, 35, 0
1, 184680, Note_on_c, 9, 35, 90
1, 184759, Note_on_c, 9, 35, 0
1, 184760, Note_on_c, 9, 40, 25
1, 184760, Note_on_c, 9, 35, 30
1, 184799, Note_on_c, 9, 40, 0
1, 184799, Note_on_c, 9, 35, 0
1, 184800, Note_on_c, 9, 40, 120
1, 184879, Note_on_c, 9, 40, 0
1, 184880, Note_on_c, 9, 40, 60
1, 184919, Note_on_c, 9, 40, 0
1, 185040, Note_on_c, 9, 64, 40
1, 185040, Note_on_c, 9, 50, 52
1, 185040, Note_on_c, 9, 42, 44
1, 185048, Note_on_c, 9, 64, 0
1, 185048, Note_on_c, 9, 42, 0
1, 185279, Note_on_c, 9, 50, 0
1, 185520, Note_on_c, 9, 41, 28
1, 185520, Note_on_c, 9, 42, 44
1, 185520, Note_on_c, 9, 35, 74
1, 185525, Note_on_c, 9, 42, 0
1, 185699, Note_on_c, 9, 41, 0
1, 185730, Note_on_c, 9, 40, 25
1, 185759, Note_on_c, 9, 35, 0
1, 185759, Note_on_c, 9, 40, 0
1, 185760, Note_on_c, 9, 64, 34
1, 185760, Note_on_c, 9, 40, 120
1, 185760, Note_on_c, 9, 46, 30
1, 185760, Note_on_c, 9, 50, 48
1, 185762, Note_on_c, 9, 64, 0
1, 185762, Note_on_c, 9, 46, 0
1, 185839, Note_on_c, 9, 40, 0
1, 185839, Note_on_c, 9, 50, 0
1, 185840, Note_on_c, 9, 40, 60
1, 185879, Note_on_c, 9, 40, 0
1, 186000, Note_on_c, 9, 42, 44
1, 186008, Note_on_c, 9, 42, 0
1, 186240, Note_on_c, 9, 46, 30
1, 186240, Note_on_c, 9, 35, 40
1, 186248, Note_on_c, 9, 46, 0
1, 186359, Note_on_c, 9, 35, 0
1, 186440, Note_on_c, 9, 35, 25
1, 186479, Note_on_c, 9, 35, 0
1, 186480, Note_on_c, 9, 64, 40
1, 186480, Note_on_c, 9, 50, 46
1, 186480, Note_on_c, 9, 42, 44
1, 186480, Note_on_c, 9, 35, 38
1, 186483, Note_on_c, 9, 64, 0
1, 186483, Note_on_c, 9, 42, 0
1, 186559, Note_on_c, 9, 35, 0
1, 186560, Note_on_c, 9, 35, 60
1, 186599, Note_on_c, 9, 50, 0
1, 186599, Note_on_c, 9, 35, 0
1, 186680, Note_on_c, 9, 40, 25
1, 186719, Note_on_c, 9, 40, 0
1, 186720, Note_on_c, 9, 41, 27
1, 186720, Note_on_c, 9, 40, 120
1, 186720, Note_on_c, 9, 35, 95
1, 186799, Note_on_c, 9, 41, 0
1, 186799, Note_on_c, 9, 40, 0
1, 186800, Note_on_c, 9, 40, 60
1, 186839, Note_on_c, 9, 40, 0
1, 186959, Note_on_c, 9, 35, 0
1, 186960, Note_on_c, 9, 64, 44
1, 186960, Note_on_c, 9, 50, 58
1, 186960, Note_on_c, 9, 42, 44
1, 186960, Note_on_c, 9, 35, 33
1, 186968, Note_on_c, 9, 64, 0
1, 186968, Note_on_c, 9, 42, 0
1, 187199, Note_on_c, 9, 50, 0
1, 187199, Note_on_c, 9, 35, 0
1, 187200, Note_on_c, 9, 35, 31
1, 187379, Note_on_c, 9, 35, 0
1, 187410, Note_on_c, 9, 35, 25
1, 187439, Note_on_c, 9, 35, 0
1, 187440, Note_on_c, 9, 41, 27
1, 187440, Note_on_c, 9, 42, 44
1, 187440, Note_on_c, 9, 35, 71
1, 187445, Note_on_c, 9, 42, 0
1, 187519, Note_on_c, 9, 35, 0
1, 187520, Note_on_c, 9, 35, 60
1, 187559, Note_on_c, 9, 35, 0
1, 187619, Note_on_c, 9, 41, 0
1, 187650, Note_on_c, 9, 40, 25
1, 187679, Note_on_c, 9, 40, 0
1, 187680, Note_on_c, 9, 64, 34
1, 187680, Note_on_c, 9, 40, 120
1, 187680, Note_on_c, 9, 46, 30
1, 187680, Note_on_c, 9, 50, 56
1, 187680, Note_on_c, 9, 35, 33
1, 187682, Note_on_c, 9, 64, 0
1, 187682, Note_on_c, 9, 46, 0
1, 187759, Note_on_c, 9, 40, 0
1, 187759, Note_on_c, 9, 50, 0
1, 187759, Note_on_c, 9, 35, 0
1, 187760, Note_on_c, 9, 40, 60
1, 187760, Note_on_c, 9, 35, 6
1, 187799, Note_on_c, 9, 40, 0
1, 187799, Note_on_c, 9, 35, 0
1, 187800, Note_on_c, 9, 35, 90
1, 187879, Note_on_c, 9, 35, 0
1, 187880, Note_on_c, 9, 40, 6
1, 187880, Note_on_c, 9, 48, 25
1, 187880, Note_on_c, 9, 35, 30
1, 187919, Note_on_c, 9, 40, 0
1, 187919, Note_on_c, 9, 48, 0
1, 187919, Note_on_c, 9, 35, 0
1, 187920, Note_on_c, 9, 40, 90
1, 187920, Note_on_c, 9, 48, 120
1, 187920, Note_on_c, 9, 42, 44
1, 187920, Note_on_c, 9, 35, 29
1, 187922, Note_on_c, 9, 42, 0
1, 187999, Note_on_c, 9, 40, 0
1, 187999, Note_on_c, 9, 48, 0
1, 188000, Note_on_c, 9, 40, 6
1, 188000, Note_on_c, 9, 48, 6
1, 188039, Note_on_c, 9, 40, 0
1, 188039, Note_on_c, 9, 48, 0
1, 188040, Note_on_c, 9, 40, 90
1, 188040, Note_on_c, 9, 48, 90
1, 188099, Note_on_c, 9, 35, 0
1, 188119, Note_on_c, 9, 40, 0
1, 188119, Note_on_c, 9, 48, 0
1, 188120, Note_on_c, 9, 40, 30
1, 188120, Note_on_c, 9, 48, 30
1, 188130, Note_on_c, 9, 35, 25
1, 188159, Note_on_c, 9, 40, 0
1, 188159, Note_on_c, 9, 48, 0
1, 188159, Note_on_c, 9, 35, 0
1, 188160, Note_on_c, 9, 46, 30
1, 188160, Note_on_c, 9, 35, 120
1, 188162, Note_on_c, 9, 46, 0
1, 188239, Note_on_c, 9, 35, 0
1, 188240, Note_on_c, 9, 45, 25
1, 188240, Note_on_c, 9, 47, 25
1, 188240, Note_on_c, 9, 35, 60
1, 188279, Note_on_c, 9, 45, 0
1, 188279, Note_on_c, 9, 47, 0
1, 188279, Note_on_c, 9, 35, 0
1, 188280, Note_on_c, 9, 45, 120
1, 188280, Note_on_c, 9, 47, 120
1, 188359, Note_on_c, 9, 45, 0
1, 188359, Note_on_c, 9, 47, 0
1, 188360, Note_on_c, 9, 45, 6
1, 188360, Note_on_c, 9, 47, 6
1, 188399, Note_on_c, 9, 45, 0
1, 188399, Note_on_c, 9, 47, 0
1, 188400, Note_on_c, 9, 64, 30
1, 188400, Note_on_c, 9, 45, 90
1, 188400, Note_on_c, 9, 47, 90
1, 188400, Note_on_c, 9, 50, 50
1, 188400, Note_on_c, 9, 42, 44
1, 188402, Note_on_c, 9, 64, 0
1, 188402, Note_on_c, 9, 42, 0
1, 188479, Note_on_c, 9, 45, 0
1, 188479, Note_on_c, 9, 47, 0
1, 188479, Note_on_c, 9, 50, 0
1, 188480, Note_on_c, 9, 45, 30
1, 188480, Note_on_c, 9, 47, 30
1, 188480, Note_on_c, 9, 35, 6
1, 188519, Note_on_c, 9, 45, 0
1, 188519, Note_on_c, 9, 47, 0
1, 188519, Note_on_c, 9, 35, 0
1, 188520, Note_on_c, 9, 35, 90
1, 188599, Note_on_c, 9, 35, 0
1, 188600, Note_on_c, 9, 40, 6
1, 188600, Note_on_c, 9, 35, 30
1, 188600, Note_on_c, 9, 43, 6
1, 188639, Note_on_c, 9, 40, 0
1, 188639, Note_on_c, 9, 35, 0
1, 188639, Note_on_c, 9, 43, 0
1, 188640, Note_on_c, 9, 40, 90
1, 188640, Note_on_c, 9, 43, 90
1, 188719, Note_on_c, 9, 40, 0
1, 188719, Note_on_c, 9, 43, 0
1, 188720, Note_on_c, 9, 40, 30
1, 188720, Note_on_c, 9, 43, 30
1, 188759, Note_on_c, 9, 40, 0
1, 188759, Note_on_c, 9, 43, 0
1, 188840, Note_on_c, 9, 41, 6
1, 188840, Note_on_c, 9, 40, 25
1, 188840, Note_on_c, 9, 35, 6
1, 188879, Note_on_c, 9, 41, 0
1, 188879, Note_on_c, 9, 40, 0
1, 188879, Note_on_c, 9, 35, 0
1, 188880, Note_on_c, 9, 64, 36
1, 188880, Note_on_c, 9, 41, 90
1, 188880, Note_on_c, 9, 40, 120
1, 188880, Note_on_c, 9, 50, 38
1, 188880, Note_on_c, 9, 42, 44
1, 188880, Note_on_c, 9, 35, 90
1, 188882, Note_on_c, 9, 64, 0
1, 188882, Note_on_c, 9, 42, 0
1, 188959, Note_on_c, 9, 41, 0
1, 188959, Note_on_c, 9, 40, 0
1, 188959, Note_on_c, 9, 50, 0
1, 188959, Note_on_c, 9, 35, 0
1, 188960, Note_on_c, 9, 41, 30
1, 188960, Note_on_c, 9, 40, 60
1, 188960, Note_on_c, 9, 35, 30
1, 188999, Note_on_c, 9, 41, 0
1, 188999, Note_on_c, 9, 40, 0
1, 188999, Note_on_c, 9, 35, 0
1, 189360, Note_on_c, 9, 41, 29
1, 189360, Note_on_c, 9, 42, 44
1, 189360, Note_on_c, 9, 35, 74
1, 189363, Note_on_c, 9, 42, 0
1, 189479, Note_on_c, 9, 41, 0
1, 189560, Note_on_c, 9, 40, 25
1, 189599, Note_on_c, 9, 35, 0
1, 189599, Note_on_c, 9, 40, 0
1, 189600, Note_on_c, 9, 64, 26
1, 189600, Note_on_c, 9, 40, 120
1, 189600, Note_on_c, 9, 46, 30
1, 189600, Note_on_c, 9, 50, 44
1, 189602, Note_on_c, 9, 64, 0
1, 189602, Note_on_c, 9, 46, 0
1, 189679, Note_on_c, 9, 40, 0
1, 189679, Note_on_c, 9, 50, 0
1, 189680, Note_on_c, 9, 40, 60
1, 189719, Note_on_c, 9, 40, 0
1, 189840, Note_on_c, 9, 42, 44
1, 189848, Note_on_c, 9, 42, 0
1, 190040, Note_on_c, 9, 35, 25
1, 190079, Note_on_c, 9, 35, 0
1, 190080, Note_on_c, 9, 46, 30
1, 190080, Note_on_c, 9, 35, 40
1, 190088, Note_on_c, 9, 46, 0
1, 190159, Note_on_c, 9, 35, 0
1, 190160, Note_on_c, 9, 35, 60
1, 190199, Note_on_c, 9, 35, 0
1, 190280, Note_on_c, 9, 35, 6
1, 190319, Note_on_c, 9, 35, 0
1, 190320, Note_on_c, 9, 64, 42
1, 190320, Note_on_c, 9, 50, 46
1, 190320, Note_on_c, 9, 42, 44
1, 190320, Note_on_c, 9, 35, 38
1, 190323, Note_on_c, 9, 64, 0
1, 190323, Note_on_c, 9, 42, 0
1, 190399, Note_on_c, 9, 35, 0
1, 190400, Note_on_c, 9, 35, 6
1, 190439, Note_on_c, 9, 50, 0
1, 190439, Note_on_c, 9, 35, 0
1, 190440, Note_on_c, 9, 35, 75
1, 190519, Note_on_c, 9, 35, 0
1, 190520, Note_on_c, 9, 40, 25
1, 190520, Note_on_c, 9, 35, 15
1, 190559, Note_on_c, 9, 40, 0
1, 190559, Note_on_c, 9, 35, 0
1, 190560, Note_on_c, 9, 41, 28
1, 190560, Note_on_c, 9, 40, 120
1, 190560, Note_on_c, 9, 35, 95
1, 190639, Note_on_c, 9, 41, 0
1, 190639, Note_on_c, 9, 40, 0
1, 190640, Note_on_c, 9, 40, 60
1, 190679, Note_on_c, 9, 40, 0
1, 190799, Note_on_c, 9, 35, 0
1, 190800, Note_on_c, 9, 64, 44
1, 190800, Note_on_c, 9, 50, 40
1, 190800, Note_on_c, 9, 42, 44
1, 190800, Note_on_c, 9, 35, 33
1, 190808, Note_on_c, 9, 64, 0
1, 190808, Note_on_c, 9, 42, 0
1, 191039, Note_on_c, 9, 50, 0
1, 191039, Note_on_c, 9, 35, 0
1, 191040, Note_on_c, 9, 35, 31
1, 191279, Note_on_c, 9, 35, 0
1, 191280, Note_on_c, 9, 41, 28
1, 191280, Note_on_c, 9, 42, 44
1, 191280, Note_on_c, 9, 35, 71
1, 191285, Note_on_c, 9, 42, 0
1, 191459, Note_on_c, 9, 41, 0
1, 191490, Note_on_c, 9, 40, 25
1, 191519, Note_on_c, 9, 35, 0
1, 191519, Note_on_c, 9, 40, 0
1, 191520, Note_on_c, 9, 64, 46
1, 191520, Note_on_c, 9, 40, 120
1, 191520, Note_on_c, 9, 46, 30
1, 191520, Note_on_c, 9, 50, 52
1, 191520, Note_on_c, 9, 35, 33
1, 191522, Note_on_c, 9, 64, 0
1, 191522, Note_on_c, 9, 46, 0
1, 191599, Note_on_c, 9, 40, 0
1, 191599, Note_on_c, 9, 50, 0
1, 191600, Note_on_c, 9, 40, 60
1, 191639, Note_on_c, 9, 40, 0
1, 191759, Note_on_c, 9, 35, 0
1, 191760, Note_on_c, 9, 42, 44
1, 191760, Note_on_c, 9, 35, 29
1, 191768, Note_on_c, 9, 42, 0
1, 191879, Note_on_c, 9, 35, 0
1, 191960, Note_on_c, 9, 35, 25
1, 191999, Note_on_c, 9, 35, 0
1, 192000, Note_on_c, 9, 46, 30
1, 192000, Note_on_c, 9, 35, 120
1, 192008, Note_on_c, 9, 46, 0
1, 192079, Note_on_c, 9, 35, 0
1, 192080, Note_on_c, 9, 35, 60
1, 192119, Note_on_c, 9, 35, 0
1, 192240, Note_on_c, 9, 64, 44
1, 192240, Note_on_c, 9, 50, 52
1, 192240, Note_on_c, 9, 42, 44
1, 192243, Note_on_c, 9, 64, 0
1, 192243, Note_on_c, 9, 42, 0
1, 192320, Note_on_c, 9, 35, 6
1, 192359, Note_on_c, 9, 50, 0
1, 192359, Note_on_c, 9, 35, 0
1, 192360, Note_on_c, 9, 35, 90
1, 192439, Note_on_c, 9, 35, 0
1, 192440, Note_on_c, 9, 40, 25
1, 192440, Note_on_c, 9, 35, 30
1, 192479, Note_on_c, 9, 40, 0
1, 192479, Note_on_c, 9, 35, 0
1, 192480, Note_on_c, 9, 40, 120
1, 192559, Note_on_c, 9, 40, 0
1, 192560, Note_on_c, 9, 40, 60
1, 192599, Note_on_c, 9, 40, 0
1, 192720, Note_on_c, 9, 64, 40
1, 192720, Note_on_c, 9, 50, 52
1, 192720, Note_on_c, 9, 42, 44
1, 192728, Note_on_c, 9, 64, 0
1, 192728, Note_on_c, 9, 42, 0
1, 192959, Note_on_c, 9, 50, 0
1, 193200, Note_on_c, 9, 41, 28
1, 193200, Note_on_c, 9, 42, 44
1, 193200, Note_on_c, 9, 35, 74
1, 193205, Note_on_c, 9, 42, 0
1, 193379, Note_on_c, 9, 41, 0
1, 193410, Note_on_c, 9, 40, 25
1, 193439, Note_on_c, 9, 35, 0
1, 193439, Note_on_c, 9, 40, 0
1, 193440, Note_on_c, 9, 64, 34
1, 193440, Note_on_c, 9, 40, 120
1, 193440, Note_on_c, 9, 46, 30
1, 193440, Note_on_c, 9, 50, 48
1, 193442, Note_on_c, 9, 64, 0
1, 193442, Note_on_c, 9, 46, 0
1, 193519, Note_on_c, 9, 40, 0
1, 193519, Note_on_c, 9, 50, 0
1, 193520, Note_on_c, 9, 40, 60
1, 193559, Note_on_c, 9, 40, 0
1, 193680, Note_on_c, 9, 42, 44
1, 193688, Note_on_c, 9, 42, 0
1, 193920, Note_on_c, 9, 46, 30
1, 193920, Note_on_c, 9, 35, 40
1, 193928, Note_on_c, 9, 46, 0
1, 194039, Note_on_c, 9, 35, 0
1, 194120, Note_on_c, 9, 35, 25
1, 194159, Note_on_c, 9, 35, 0
1, 194160, Note_on_c, 9, 64, 40
1, 194160, Note_on_c, 9, 50, 46
1, 194160, Note_on_c, 9, 42, 44
1, 194160, Note_on_c, 9, 35, 38
1, 194163, Note_on_c, 9, 64, 0
1, 194163, Note_on_c, 9, 42, 0
1, 194239, Note_on_c, 9, 35, 0
1, 194240, Note_on_c, 9, 35, 60
1, 194279, Note_on_c, 9, 50, 0
1, 194279, Note_on_c, 9, 35, 0
1, 194360, Note_on_c, 9, 40, 25
1, 194399, Note_on_c, 9, 40, 0
1, 194400, Note_on_c, 9, 41, 27
1, 194400, Note_on_c, 9, 40, 120
1, 194400, Note_on_c, 9, 35, 95
1, 194479, Note_on_c, 9, 41, 0
1, 194479, Note_on_c, 9, 40, 0
1, 194480, Note_on_c, 9, 40, 60
1, 194519, Note_on_c, 9, 40, 0
1, 194639, Note_on_c, 9, 35, 0
1, 194640, Note_on_c, 9, 64, 44
1, 194640, Note_on_c, 9, 50, 58
1, 194640, Note_on_c, 9, 42, 44
1, 194640, Note_on_c, 9, 35, 33
1, 194648, Note_on_c, 9, 64, 0
1, 194648, Note_on_c, 9, 42, 0
1, 194879, Note_on_c, 9, 50, 0
1, 194879, Note_on_c, 9, 35, 0
1, 194880, Note_on_c, 9, 35, 31
1, 195059, Note_on_c, 9, 35, 0
1, 195090, Note_on_c, 9, 35, 25
1, 195119, Note_on_c, 9, 35, 0
1, 195120, Note_on_c, 9, 41, 27
1, 195120, Note_on_c, 9, 42, 44
1, 195120, Note_on_c, 9, 35, 71
1, 195125, Note_on_c, 9, 42, 0
1, 195199, Note_on_c, 9, 35, 0
1, 195200, Note_on_c, 9, 35, 60
1, 195239, Note_on_c, 9, 35, 0
1, 195299, Note_on_c, 9, 41, 0
1, 195330, Note_on_c, 9, 40, 25
1, 195359, Note_on_c, 9, 40, 0
1, 195360, Note_on_c, 9, 64, 34
1, 195360, Note_on_c, 9, 40, 120
1, 195360, Note_on_c, 9, 46, 30
1, 195360, Note_on_c, 9, 50, 56
1, 195360, Note_on_c, 9, 35, 33
1, 195362, Note_on_c, 9, 64, 0
1, 195362, Note_on_c, 9, 46, 0
1, 195439, Note_on_c, 9, 40, 0
1, 195439, Note_on_c, 9, 50, 0
1, 195439, Note_on_c, 9, 35, 0
1, 195440, Note_on_c, 9, 40, 60
1, 195440, Note_on_c, 9, 35, 6
1, 195479, Note_on_c, 9, 40, 0
1, 195479, Note_on_c, 9, 35, 0
1, 195480, Note_on_c, 9, 35, 90
1, 195559, Note_on_c, 9, 35, 0
1, 195560, Note_on_c, 9, 40, 6
1, 195560, Note_on_c, 9, 48, 25
1, 195560, Note_on_c, 9, 35, 30
1, 195599, Note_on_c, 9, 40, 0
1, 195599, Note_on_c, 9, 48, 0
1, 195599, Note_on_c, 9, 35, 0
1, 195600, Note_on_c, 9, 40, 90
1, 195600, Note_on_c, 9, 48, 120
1, 195600, Note_on_c, 9, 42, 44
1, 195600, Note_on_c, 9, 35, 29
1, 195602, Note_on_c, 9, 42, 0
1, 195679, Note_on_c, 9, 40, 0
1, 195679, Note_on_c, 9, 48, 0
1, 195680, Note_on_c, 9, 40, 6
1, 195680, Note_on_c, 9, 48, 6
1, 195719, Note_on_c, 9, 40, 0
1, 195719, Note_on_c, 9, 48, 0
1, 195720, Note_on_c, 9, 40, 90
1, 195720, Note_on_c, 9, 48, 90
1, 195779, Note_on_c, 9, 35, 0
1, 195799, Note_on_c, 9, 40, 0
1, 195799, Note_on_c, 9, 48, 0
1, 195800, Note_on_c, 9, 40, 30
1, 195800, Note_on_c, 9, 48, 30
1, 195810, Note_on_c, 9, 35, 25
1, 195839, Note_on_c, 9, 40, 0
1, 195839, Note_on_c, 9, 48, 0
1, 195839, Note_on_c, 9, 35, 0
1, 195840, Note_on_c, 9, 46, 30
1, 195840, Note_on_c, 9, 35, 120
1, 195842, Note_on_c, 9, 46, 0
1, 195919, Note_on_c, 9, 35, 0
1, 195920, Note_on_c, 9, 45, 25
1, 195920, Note_on_c, 9, 47, 25
1, 195920, Note_on_c, 9, 35, 60
1, 195959, Note_on_c, 9, 45, 0
1, 195959, Note_on_c, 9, 47, 0
1, 195959, Note_on_c, 9, 35, 0
1, 195960, Note_on_c, 9, 45, 120
1, 195960, Note_on_c, 9, 47, 120
1, 196039, Note_on_c, 9, 45, 0
1, 196039, Note_on_c, 9, 47, 0
1, 196040, Note_on_c, 9, 45, 6
1, 196040, Note_on_c, 9, 47, 6
1, 196079, Note_on_c, 9, 45, 0
1, 196079, Note_on_c, 9, 47, 0
1, 196080, Note_on_c, 9, 64, 30
1, 196080, Note_on_c, 9, 45, 90
1, 196080, Note_on_c, 9, 47, 90
1, 196080, Note_on_c, 9, 50, 50
1, 196080, Note_on_c, 9, 42, 44
1, 196082, Note_on_c, 9, 64, 0
1, 196082, Note_on_c, 9, 42, 0
1, 196159, Note_on_c, 9, 45, 0
1, 196159, Note_on_c, 9, 47, 0
1, 196159, Note_on_c, 9, 50, 0
1, 196160, Note_on_c, 9, 45, 30
1, 196160, Note_on_c, 9, 47, 30
1, 196160, Note_on_c, 9, 35, 6
1, 196199, Note_on_c, 9, 45, 0
1, 196199, Note_on_c, 9, 47, 0
1, 196199, Note_on_c, 9, 35, 0
1, 196200, Note_on_c, 9, 35, 90
1, 196279, Note_on_c, 9, 35, 0
1, 196280, Note_on_c, 9, 40, 6
1, 196280, Note_on_c, 9, 35, 30
1, 196280, Note_on_c, 9, 43, 6
1, 196319, Note_on_c, 9, 40, 0
1, 196319, Note_on_c, 9, 35, 0
1, 196319, Note_on_c, 9, 43, 0
1, 196320, Note_on_c, 9, 40, 90
1, 196320, Note_on_c, 9, 43, 90
1, 196399, Note_on_c, 9, 40, 0
1, 196399, Note_on_c, 9, 43, 0
1, 196400, Note_on_c, 9, 40, 30
1, 196400, Note_on_c, 9, 43, 30
1, 196439, Note_on_c, 9, 40, 0
1, 196439, Note_on_c, 9, 43, 0
1, 196520, Note_on_c, 9, 41, 6
1, 196520, Note_on_c, 9, 40, 25
1, 196520, Note_on_c, 9, 35, 6
1, 196559, Note_on_c, 9, 41, 0
1, 196559, Note_on_c, 9, 40, 0
1, 196559, Note_on_c, 9, 35, 0
1, 196560, Note_on_c, 9, 64, 36
1, 196560, Note_on_c, 9, 41, 90
1, 196560, Note_on_c, 9, 40, 120
1, 196560, Note_on_c, 9, 50, 38
1, 196560, Note_on_c, 9, 42, 44
1, 196560, Note_on_c, 9, 35, 90
1, 196562, Note_on_c, 9, 64, 0
1, 196562, Note_on_c, 9, 42, 0
1, 196639, Note_on_c, 9, 41, 0
1, 196639, Note_on_c, 9, 40, 0
1, 196639, Note_on_c, 9, 50, 0
1, 196639, Note_on_c, 9, 35, 0
1, 196640, Note_on_c, 9, 41, 30
1, 196640, Note_on_c, 9, 40, 60
1, 196640, Note_on_c, 9, 35, 30
1, 196679, Note_on_c, 9, 41, 0
1, 196679, Note_on_c, 9, 40, 0
1, 196679, Note_on_c, 9, 35, 0
1, 197040, Note_on_c, 9, 41, 29
1, 197040, Note_on_c, 9, 42, 44
1, 197040, Note_on_c, 9, 35, 74
1, 197043, Note_on_c, 9, 42, 0
1, 197159, Note_on_c, 9, 41, 0
1, 197240, Note_on_c, 9, 40, 25
1, 197279, Note_on_c, 9, 35, 0
1, 197279, Note_on_c, 9, 40, 0
1, 197280, Note_on_c, 9, 64, 26
1, 197280, Note_on_c, 9, 40, 120
1, 197280, Note_on_c, 9, 46, 30
1, 197280, Note_on_c, 9, 50, 44
1, 197282, Note_on_c, 9, 64, 0
1, 197282, Note_on_c, 9, 46, 0
1, 197359, Note_on_c, 9, 40, 0
1, 197359, Note_on_c, 9, 50, 0
1, 197360, Note_on_c, 9, 40, 60
1, 197399, Note_on_c, 9, 40, 0
1, 197520, Note_on_c, 9, 42, 44
1, 197528, Note_on_c, 9, 42, 0
1, 197720, Note_on_c, 9, 35, 25
1, 197759, Note_on_c, 9, 35, 0
1, 197760, Note_on_c, 9, 46, 30
1, 197760, Note_on_c, 9, 35, 40
1, 197768, Note_on_c, 9, 46, 0
1, 197839, Note_on_c, 9, 35, 0
1, 197840, Note_on_c, 9, 35, 60
1, 197879, Note_on_c, 9, 35, 0
1, 197960, Note_on_c, 9, 35, 6
1, 197999, Note_on_c, 9, 35, 0
1, 198000, Note_on_c, 9, 64, 42
1, 198000, Note_on_c, 9, 50, 46
1, 198000, Note_on_c, 9, 42, 44
1, 198000, Note_on_c, 9, 35, 38
1, 198003, Note_on_c, 9, 64, 0
1, 198003, Note_on_c, 9, 42, 0
1, 198079, Note_on_c, 9, 35, 0
1, 198080, Note_on_c, 9, 35, 6
1, 198119, Note_on_c, 9, 50, 0
1, 198119, Note_on_c, 9, 35, 0
1, 198120, Note_on_c, 9, 35, 75
1, 198199, Note_on_c, 9, 35, 0
1, 198200, Note_on_c, 9, 40, 25
1, 198200, Note_on_c, 9, 35, 15
1, 198239, Note_on_c, 9, 40, 0
1, 198239, Note_on_c, 9, 35, 0
1, 198240, Note_on_c, 9, 41, 28
1, 198240, Note_on_c, 9, 40, 120
1, 198240, Note_on_c, 9, 35, 95
1, 198319, Note_on_c, 9, 41, 0
1, 198319, Note_on_c, 9, 40, 0
1, 198320, Note_on_c, 9, 40, 60
1, 198359, Note_on_c, 9, 40, 0
1, 198479, Note_on_c, 9, 35, 0
1, 198480, Note_on_c, 9, 64, 44
1, 198480, Note_on_c, 9, 50, 40
1, 198480, Note_on_c, 9, 42, 44
1, 198480, Note_on_c, 9, 35, 33
1, 198488, Note_on_c, 9, 64, 0
1, 198488, Note_on_c, 9, 42, 0
1, 198719, Note_on_c, 9, 50, 0
1, 198719, Note_on_c, 9, 35, 0
1, 198720, Note_on_c, 9, 35, 31
1, 198959, Note_on_c, 9, 35, 0
1, 198960, Note_on_c, 9, 41, 28
1, 198960, Note_on_c, 9, 42, 44
1, 198960, Note_on_c, 9, 35, 71
1, 198965, Note_on_c, 9, 42, 0
1, 199139, Note_on_c, 9, 41, 0
1, 199170, Note_on_c, 9, 40, 25
1, 199199, Note_on_c, 9, 35, 0
1, 199199, Note_on_c, 9, 40, 0
1, 199200, Note_on_c, 9, 64, 46
1, 199200, Note_on_c, 9, 40, 120
1, 199200, Note_on_c, 9, 46, 30
1, 199200, Note_on_c, 9, 50, 52
1, 199200, Note_on_c, 9, 35, 33
1, 199202, Note_on_c, 9, 64, 0
1, 199202, Note_on_c, 9, 46, 0
1, 199279, Note_on_c, 9, 40, 0
1, 199279, Note_on_c, 9, 50, 0
1, 199280, Note_on_c, 9, 40, 60
1, 199319, Note_on_c, 9, 40, 0
1, 199439, Note_on_c, 9, 35, 0
1, 199440, Note_on_c, 9, 42, 44
1, 199440, Note_on_c, 9, 35, 29
1, 199448, Note_on_c, 9, 42, 0
1, 199559, Note_on_c, 9, 35, 0
1, 199640, Note_on_c, 9, 35, 25
1, 199679, Note_on_c, 9, 35, 0
1, 199680, Note_on_c, 9, 46, 30
1, 199680, Note_on_c, 9, 35, 120
1, 199688, Note_on_c, 9, 46, 0
1, 199759, Note_on_c, 9, 35, 0
1, 199760, Note_on_c, 9, 35, 60
1, 199799, Note_on_c, 9, 35, 0
1, 199920, Note_on_c, 9, 64, 44
1, 199920, Note_on_c, 9, 50, 52
1, 199920, Note_on_c, 9, 42, 44
1, 199923, Note_on_c, 9, 64, 0
1, 199923, Note_on_c, 9, 42, 0
1, 200000, Note_on_c, 9, 35, 6
1, 200039, Note_on_c, 9, 50, 0
1, 200039, Note_on_c, 9, 35, 0
1, 200040, Note_on_c, 9, 35, 90
1, 200119, Note_on_c, 9, 35, 0
1, 200120, Note_on_c, 9, 40, 25
1, 200120, Note_on_c, 9, 35, 30
1, 200159, Note_on_c, 9, 40, 0
1, 200159, Note_on_c, 9, 35, 0
1, 200160, Note_on_c, 9, 40, 120
1, 200239, Note_on_c, 9, 40, 0
1, 200240, Note_on_c, 9, 40, 60
1, 200279, Note_on_c, 9, 40, 0
1, 200400, Note_on_c, 9, 64, 40
1, 200400, Note_on_c, 9, 50, 52
1, 200400, Note_on_c, 9, 42, 44
1, 200408, Note_on_c, 9, 64, 0
1, 200408, Note_on_c, 9, 42, 0
1, 200639, Note_on_c, 9, 50, 0
1, 200880, Note_on_c, 9, 41, 28
1, 200880, Note_on_c, 9, 42, 44
1, 200880, Note_on_c, 9, 35, 74
1, 200885, Note_on_c, 9, 42, 0
1, 201059, Note_on_c, 9, 41, 0
1, 201090, Note_on_c, 9, 40, 25
1, 201119, Note_on_c, 9, 35, 0
1, 201119, Note_on_c, 9, 40, 0
1, 201120, Note_on_c, 9, 64, 34
1, 201120, Note_on_c, 9, 40, 120
1, 201120, Note_on_c, 9, 46, 30
1, 201120, Note_on_c, 9, 50, 48
1, 201122, Note_on_c, 9, 64, 0
1, 201122, Note_on_c, 9, 46, 0
1, 201199, Note_on_c, 9, 40, 0
1, 201199, Note_on_c, 9, 50, 0
1, 201200, Note_on_c, 9, 40, 60
1, 201239, Note_on_c, 9, 40, 0
1, 201360, Note_on_c, 9, 42, 44
1, 201368, Note_on_c, 9, 42, 0
1, 201600, Note_on_c, 9, 46, 30
1, 201600, Note_on_c, 9, 35, 40
1, 201608, Note_on_c, 9, 46, 0
1, 201719, Note_on_c, 9, 35, 0
1, 201800, Note_on_c, 9, 35, 25
1, 201839, Note_on_c, 9, 35, 0
1, 201840, Note_on_c, 9, 64, 40
1, 201840, Note_on_c, 9, 50, 46
1, 201840, Note_on_c, 9, 42, 44
1, 201840, Note_on_c, 9, 35, 38
1, 201843, Note_on_c, 9, 64, 0
1, 201843, Note_on_c, 9, 42, 0
1, 201919, Note_on_c, 9, 35, 0
1, 201920, Note_on_c, 9, 35, 60
1, 201959, Note_on_c, 9, 50, 0
1, 201959, Note_on_c, 9, 35, 0
1, 202040, Note_on_c, 9, 40, 25
1, 202079, Note_on_c, 9, 40, 0
1, 202080, Note_on_c, 9, 41, 27
1, 202080, Note_on_c, 9, 40, 120
1, 202080, Note_on_c, 9, 35, 95
1, 202159, Note_on_c, 9, 41, 0
1, 202159, Note_on_c, 9, 40, 0
1, 202160, Note_on_c, 9, 40, 60
1, 202199, Note_on_c, 9, 40, 0
1, 202319, Note_on_c, 9, 35, 0
1, 202320, Note_on_c, 9, 64, 44
1, 202320, Note_on_c, 9, 50, 58
1, 202320, Note_on_c, 9, 42, 44
1, 202320, Note_on_c, 9, 35, 33
1, 202328, Note_on_c, 9, 64, 0
1, 202328, Note_on_c, 9, 42, 0
1, 202559, Note_on_c, 9, 50, 0
1, 202559, Note_on_c, 9, 35, 0
1, 202560, Note_on_c, 9, 35, 31
1, 202739, Note_on_c, 9, 35, 0
1, 202770, Note_on_c, 9, 35, 25
1, 202799, Note_on_c, 9, 35, 0
1, 202800, Note_on_c, 9, 41, 27
1, 202800, Note_on_c, 9, 42, 44
1, 202800, Note_on_c, 9, 35, 71
1, 202805, Note_on_c, 9, 42, 0
1, 202879, Note_on_c, 9, 35, 0
1, 202880, Note_on_c, 9, 35, 60
1, 202919, Note_on_c, 9, 35, 0
1, 202979, Note_on_c, 9, 41, 0
1, 203010, Note_on_c, 9, 40, 25
1, 203039, Note_on_c, 9, 40, 0
1, 203040, Note_on_c, 9, 64, 34
1, 203040, Note_on_c, 9, 40, 120
1, 203040, Note_on_c, 9, 46, 30
1, 203040, Note_on_c, 9, 50, 56
1, 203040, Note_on_c, 9, 35, 33
1, 203042, Note_on_c, 9, 64, 0
1, 203042, Note_on_c, 9, 46, 0
1, 203119, Note_on_c, 9, 40, 0
1, 203119, Note_on_c, 9, 50, 0
1, 203120, Note_on_c, 9, 40, 60
1, 203159, Note_on_c, 9, 40, 0
1, 203279, Note_on_c, 9, 35, 0
1, 203280, Note_on_c, 9, 42, 44
1, 203280, Note_on_c, 9, 35, 29
1, 203288, Note_on_c, 9, 42, 0
1, 203459, Note_on_c, 9, 35, 0
1, 203490, Note_on_c, 9, 35, 25
1, 203519, Note_on_c, 9, 35, 0
1, 203520, Note_on_c, 9, 46, 30
1, 203520, Note_on_c, 9, 35, 120
1, 203528, Note_on_c, 9, 46, 0
1, 203599, Note_on_c, 9, 35, 0
1, 203600, Note_on_c, 9, 35, 60
1, 203639, Note_on_c, 9, 35, 0
1, 203760, Note_on_c, 9, 64, 30
1, 203760, Note_on_c, 9, 50, 50
1, 203760, Note_on_c, 9, 42, 44
1, 203763, Note_on_c, 9, 64, 0
1, 203763, Note_on_c, 9, 42, 0
1, 203840, Note_on_c, 9, 35, 6
1, 203879, Note_on_c, 9, 50, 0
1, 203879, Note_on_c, 9, 35, 0
1, 203880, Note_on_c, 9, 35, 90
1, 203959, Note_on_c, 9, 35, 0
1, 203960, Note_on_c, 9, 40, 25
1, 203960, Note_on_c, 9, 35, 30
1, 203999, Note_on_c, 9, 40, 0
1, 203999, Note_on_c, 9, 35, 0
1, 204000, Note_on_c, 9, 40, 120
1, 204079, Note_on_c, 9, 40, 0
1, 204080, Note_on_c, 9, 40, 60
1, 204119, Note_on_c, 9, 40, 0
1, 204200, Note_on_c, 9, 35, 6
1, 204239, Note_on_c, 9, 35, 0
1, 204240, Note_on_c, 9, 64, 36
1, 204240, Note_on_c, 9, 50, 38
1, 204240, Note_on_c, 9, 42, 44
1, 204240, Note_on_c, 9, 35, 90
1, 204248, Note_on_c, 9, 64, 0
1, 204248, Note_on_c, 9, 42, 0
1, 204319, Note_on_c, 9, 35, 0
1, 204320, Note_on_c, 9, 35, 30
1, 204359, Note_on_c, 9, 35, 0
1, 204479, Note_on_c, 9, 50, 0
1, 204720, Note_on_c, 9, 41, 29
1, 204720, Note_on_c, 9, 42, 44
1, 204720, Note_on_c, 9, 35, 74
1, 204725, Note_on_c, 9, 42, 0
1, 204899, Note_on_c, 9, 41, 0
1, 204930, Note_on_c, 9, 40, 25
1, 204959, Note_on_c, 9, 35, 0
1, 204959, Note_on_c, 9, 40, 0
1, 204960, Note_on_c, 9, 64, 26
1, 204960, Note_on_c, 9, 40, 120
1, 204960, Note_on_c, 9, 46, 30
1, 204960, Note_on_c, 9, 50, 44
1, 204962, Note_on_c, 9, 64, 0
1, 204962, Note_on_c, 9, 46, 0
1, 205039, Note_on_c, 9, 40, 0
1, 205039, Note_on_c, 9, 50, 0
1, 205040, Note_on_c, 9, 40, 60
1, 205079, Note_on_c, 9, 40, 0
1, 205200, Note_on_c, 9, 42, 44
1, 205208, Note_on_c, 9, 42, 0
1, 205400, Note_on_c, 9, 35, 25
1, 205439, Note_on_c, 9, 35, 0
1, 205440, Note_on_c, 9, 46, 30
1, 205440, Note_on_c, 9, 35, 40
1, 205448, Note_on_c, 9, 46, 0
1, 205519, Note_on_c, 9, 35, 0
1, 205520, Note_on_c, 9, 35, 60
1, 205559, Note_on_c, 9, 35, 0
1, 205640, Note_on_c, 9, 35, 6
1, 205679, Note_on_c, 9, 35, 0
1, 205680, Note_on_c, 9, 64, 42
1, 205680, Note_on_c, 9, 50, 46
1, 205680, Note_on_c, 9, 42, 44
1, 205680, Note_on_c, 9, 35, 38
1, 205683, Note_on_c, 9, 64, 0
1, 205683, Note_on_c, 9, 42, 0
1, 205759, Note_on_c, 9, 35, 0
1, 205760, Note_on_c, 9, 35, 6
1, 205799, Note_on_c, 9, 50, 0
1, 205799, Note_on_c, 9, 35, 0
1, 205800, Note_on_c, 9, 35, 75
1, 205879, Note_on_c, 9, 35, 0
1, 205880, Note_on_c, 9, 40, 25
1, 205880, Note_on_c, 9, 35, 15
1, 205919, Note_on_c, 9, 40, 0
1, 205919, Note_on_c, 9, 35, 0
1, 205920, Note_on_c, 9, 41, 28
1, 205920, Note_on_c, 9, 40, 120
1, 205920, Note_on_c, 9, 35, 95
1, 205999, Note_on_c, 9, 41, 0
1, 205999, Note_on_c, 9, 40, 0
1, 206000, Note_on_c, 9, 40, 60
1, 206039, Note_on_c, 9, 40, 0
1, 206159, Note_on_c, 9, 35, 0
1, 206160, Note_on_c, 9, 64, 44
1, 206160, Note_on_c, 9, 50, 40
1, 206160, Note_on_c, 9, 42, 44
1, 206160, Note_on_c, 9, 35, 33
1, 206168, Note_on_c, 9, 64, 0
1, 206168, Note_on_c, 9, 42, 0
1, 206399, Note_on_c, 9, 50, 0
1, 206399, Note_on_c, 9, 35, 0
1, 206400, Note_on_c, 9, 35, 31
1, 206639, Note_on_c, 9, 35, 0
1, 206640, Note_on_c, 9, 41, 28
1, 206640, Note_on_c, 9, 42, 44
1, 206640, Note_on_c, 9, 35, 71
1, 206645, Note_on_c, 9, 42, 0
1, 206819, Note_on_c, 9, 41, 0
1, 206850, Note_on_c, 9, 40, 25
1, 206879, Note_on_c, 9, 35, 0
1, 206879, Note_on_c, 9, 40, 0
1, 206880, Note_on_c, 9, 64, 46
1, 206880, Note_on_c, 9, 40, 120
1, 206880, Note_on_c, 9, 46, 30
1, 206880, Note_on_c, 9, 50, 52
1, 206880, Note_on_c, 9, 35, 33
1, 206882, Note_on_c, 9, 64, 0
1, 206882, Note_on_c, 9, 46, 0
1, 206959, Note_on_c, 9, 40, 0
1, 206959, Note_on_c, 9, 50, 0
1, 206960, Note_on_c, 9, 40, 60
1, 206999, Note_on_c, 9, 40, 0
1, 207119, Note_on_c, 9, 35, 0
1, 207120, Note_on_c, 9, 42, 44
1, 207120, Note_on_c, 9, 35, 29
1, 207128, Note_on_c, 9, 42, 0
1, 207239, Note_on_c, 9, 35, 0
1, 207320, Note_on_c, 9, 35, 25
1, 207359, Note_on_c, 9, 35, 0
1, 207360, Note_on_c, 9, 46, 30
1, 207360, Note_on_c, 9, 35, 120
1, 207368, Note_on_c, 9, 46, 0
1, 207439, Note_on_c, 9, 35, 0
1, 207440, Note_on_c, 9, 35, 60
1, 207479, Note_on_c, 9, 35, 0
1, 207600, Note_on_c, 9, 64, 44
1, 207600, Note_on_c, 9, 50, 52
1, 207600, Note_on_c, 9, 42, 44
1, 207603, Note_on_c, 9, 64, 0
1, 207603, Note_on_c, 9, 42, 0
1, 207680, Note_on_c, 9, 35, 6
1, 207719, Note_on_c, 9, 50, 0
1, 207719, Note_on_c, 9, 35, 0
1, 207720, Note_on_c, 9, 35, 90
1, 207799, Note_on_c, 9, 35, 0
1, 207800, Note_on_c, 9, 40, 25
1, 207800, Note_on_c, 9, 35, 30
1, 207839, Note_on_c, 9, 40, 0
1, 207839, Note_on_c, 9, 35, 0
1, 207840, Note_on_c, 9, 40, 120
1, 207919, Note_on_c, 9, 40, 0
1, 207920, Note_on_c, 9, 40, 60
1, 207959, Note_on_c, 9, 40, 0
1, 208080, Note_on_c, 9, 64, 40
1, 208080, Note_on_c, 9, 50, 52
1, 208080, Note_on_c, 9, 42, 44
1, 208088, Note_on_c, 9, 64, 0
1, 208088, Note_on_c, 9, 42, 0
1, 208319, Note_on_c, 9, 50, 0
1, 208560, Note_on_c, 9, 41, 28
1, 208560, Note_on_c, 9, 42, 44
1, 208560, Note_on_c, 9, 35, 74
1, 208565, Note_on_c, 9, 42, 0
1, 208739, Note_on_c, 9, 41, 0
1, 208770, Note_on_c, 9, 40, 25
1, 208799, Note_on_c, 9, 35, 0
1, 208799, Note_on_c, 9, 40, 0
1, 208800, Note_on_c, 9, 64, 34
1, 208800, Note_on_c, 9, 40, 120
1, 208800, Note_on_c, 9, 46, 30
1, 208800, Note_on_c, 9, 50, 48
1, 208802, Note_on_c, 9, 64, 0
1, 208802, Note_on_c, 9, 46, 0
1, 208879, Note_on_c, 9, 40, 0
1, 208879, Note_on_c, 9, 50, 0
1, 208880, Note_on_c, 9, 40, 60
1, 208919, Note_on_c, 9, 40, 0
1, 209040, Note_on_c, 9, 42, 44
1, 209048, Note_on_c, 9, 42, 0
1, 209280, Note_on_c, 9, 46, 30
1, 209280, Note_on_c, 9, 35, 40
1, 209288, Note_on_c, 9, 46, 0
1, 209399, Note_on_c, 9, 35, 0
1, 209480, Note_on_c, 9, 35, 25
1, 209519, Note_on_c, 9, 35, 0
1, 209520, Note_on_c, 9, 64, 40
1, 209520, Note_on_c, 9, 50, 46
1, 209520, Note_on_c, 9, 42, 44
1, 209520, Note_on_c, 9, 35, 38
1, 209523, Note_on_c, 9, 64, 0
1, 209523, Note_on_c, 9, 42, 0
1, 209599, Note_on_c, 9, 35, 0
1, 209600, Note_on_c, 9, 35, 60
1, 209639, Note_on_c, 9, 50, 0
1, 209639, Note_on_c, 9, 35, 0
1, 209720, Note_on_c, 9, 40, 25
1, 209759, Note_on_c, 9, 40, 0
1, 209760, Note_on_c, 9, 41, 27
1, 209760, Note_on_c, 9, 40, 120
1, 209760, Note_on_c, 9, 35, 95
1, 209839, Note_on_c, 9, 41, 0
1, 209839, Note_on_c, 9, 40, 0
1, 209840, Note_on_c, 9, 40, 60
1, 209879, Note_on_c, 9, 40, 0
1, 209999, Note_on_c, 9, 35, 0
1, 210000, Note_on_c, 9, 64, 44
1, 210000, Note_on_c, 9, 50, 58
1, 210000, Note_on_c, 9, 42, 44
1, 210000, Note_on_c, 9, 35, 33
1, 210008, Note_on_c, 9, 64, 0
1, 210008, Note_on_c, 9, 42, 0
1, 210239, Note_on_c, 9, 50, 0
1, 210239, Note_on_c, 9, 35, 0
1, 210240, Note_on_c, 9, 35, 31
1, 210419, Note_on_c, 9, 35, 0
1, 210450, Note_on_c, 9, 35, 25
1, 210479, Note_on_c, 9, 35, 0
1, 210480, Note_on_c, 9, 41, 27
1, 210480, Note_on_c, 9, 42, 44
1, 210480, Note_on_c, 9, 35, 71
1, 210485, Note_on_c, 9, 42, 0
1, 210559, Note_on_c, 9, 35, 0
1, 210560, Note_on_c, 9, 35, 60
1, 210599, Note_on_c, 9, 35, 0
1, 210659, Note_on_c, 9, 41, 0
1, 210690, Note_on_c, 9, 40, 25
1, 210719, Note_on_c, 9, 40, 0
1, 210720, Note_on_c, 9, 64, 34
1, 210720, Note_on_c, 9, 40, 120
1, 210720, Note_on_c, 9, 46, 30
1, 210720, Note_on_c, 9, 50, 56
1, 210720, Note_on_c, 9, 35, 33
1, 210722, Note_on_c, 9, 64, 0
1, 210722, Note_on_c, 9, 46, 0
1, 210799, Note_on_c, 9, 40, 0
1, 210799, Note_on_c, 9, 50, 0
1, 210800, Note_on_c, 9, 40, 60
1, 210839, Note_on_c, 9, 40, 0
1, 210920, Note_on_c, 9, 40, 6
1, 210920, Note_on_c, 9, 48, 25
1, 210959, Note_on_c, 9, 35, 0
1, 210959, Note_on_c, 9, 40, 0
1, 210959, Note_on_c, 9, 48, 0
1, 210960, Note_on_c, 9, 40, 90
1, 210960, Note_on_c, 9, 48, 120
1, 210960, Note_on_c, 9, 42, 44
1, 210960, Note_on_c, 9, 35, 29
1, 210962, Note_on_c, 9, 42, 0
1, 211039, Note_on_c, 9, 40, 0
1, 211039, Note_on_c, 9, 48, 0
1, 211040, Note_on_c, 9, 40, 6
1, 211040, Note_on_c, 9, 48, 6
1, 211079, Note_on_c, 9, 40, 0
1, 211079, Note_on_c, 9, 48, 0
1, 211080, Note_on_c, 9, 40, 90
1, 211080, Note_on_c, 9, 48, 90
1, 211159, Note_on_c, 9, 40, 0
1, 211159, Note_on_c, 9, 48, 0
1, 211160, Note_on_c, 9, 40, 30
1, 211160, Note_on_c, 9, 48, 30
1, 211199, Note_on_c, 9, 35, 0
1, 211199, Note_on_c, 9, 40, 0
1, 211199, Note_on_c, 9, 48, 0
1, 211200, End_track
0, 0, End_of_file
