0, 0, Header, 1, 1, 480
1, 0, Start_track
1, 0, Title_t, "Drumset"
1, 0, Time_signature, 4, 2, 24, 8
1, 0, Key_signature, 0, "major"
1, 0, Tempo, 666667
1, 0, Control_c, 9, 121, 0
1, 0, Program_c, 9, 0
1, 0, Control_c, 9, 7, 100
1, 0, Control_c, 9, 10, 64
1, 0, Control_c, 9, 91, 0
1, 0, Control_c, 9, 93, 0
1, 0, MIDI_port, 0
1, 1680, Note_on_c, 9, 43, 127
1, 1799, Note_on_c, 9, 43, 0
1, 1800, Note_on_c, 9, 43, 127
1, 1919, Note_on_c, 9, 43, 0
1, 1920, Note_on_c, 9, 42, 127
1, 1920, Note_on_c, 9, 57, 127
1, 1920, Note_on_c, 9, 35, 127
1, 1927, Note_on_c, 9, 42, 0
1, 1927, Note_on_c, 9, 57, 0
1, 2160, Note_on_c, 9, 42, 127
1, 2167, Note_on_c, 9, 42, 0
1, 2399, Note_on_c, 9, 35, 0
1, 2400, Note_on_c, 9, 38, 127
1, 2400, Note_on_c, 9, 42, 127
1, 2407, Note_on_c, 9, 42, 0
1, 2639, Note_on_c, 9, 38, 0
1, 2640, Note_on_c, 9, 42, 127
1, 2647, Note_on_c, 9, 42, 0
1, 2880, Note_on_c, 9, 42, 127
1, 2880, Note_on_c, 9, 35, 127
1, 2887, Note_on_c, 9, 42, 0
1, 3120, Note_on_c, 9, 42, 127
1, 3127, Note_on_c, 9, 42, 0
1, 3359, Note_on_c, 9, 35, 0
1, 3360, Note_on_c, 9, 38, 127
1, 3360, Note_on_c, 9, 42, 127
1, 3367, Note_on_c, 9, 42, 0
1, 3599, Note_on_c, 9, 38, 0
1, 3600, Note_on_c, 9, 42, 127
1, 3607, Note_on_c, 9, 42, 0
1, 3840, Note_on_c, 9, 42, 127
1, 3840, Note_on_c, 9, 35, 127
1, 3847, Note_on_c, 9, 42, 0
1, 4080, Note_on_c, 9, 42, 127
1, 4087, Note_on_c, 9, 42, 0
1, 4319, Note_on_c, 9, 35, 0
1, 4320, Note_on_c, 9, 38, 127
1, 4320, Note_on_c, 9, 42, 127
1, 4327, Note_on_c, 9, 42, 0
1, 4559, Note_on_c, 9, 38, 0
1, 4560, Note_on_c, 9, 42, 127
1, 4567, Note_on_c, 9, 42, 0
1, 4800, Note_on_c, 9, 42, 127
1, 4800, Note_on_c, 9, 35, 127
1, 4807, Note_on_c, 9, 42, 0
1, 5040, Note_on_c, 9, 42, 127
1, 5047, Note_on_c, 9, 42, 0
1, 5279, Note_on_c, 9, 35, 0
1, 5280, Note_on_c, 9, 38, 127
1, 5280, Note_on_c, 9, 42, 127
1, 5287, Note_on_c, 9, 42, 0
1, 5519, Note_on_c, 9, 38, 0
1, 5520, Note_on_c, 9, 42, 127
1, 5527, Note_on_c, 9, 42, 0
1, 5760, Note_on_c, 9, 42, 127
1, 5760, Note_on_c, 9, 35, 127
1, 5767, Note_on_c, 9, 42, 0
1, 6000, Note_on_c, 9, 42, 127
1, 6007, Note_on_c, 9, 42, 0
1, 6239, Note_on_c, 9, 35, 0
1, 6240, Note_on_c, 9, 38, 127
1, 6240, Note_on_c, 9, 42, 127
1, 6247, Note_on_c, 9, 42, 0
1, 6479, Note_on_c, 9, 38, 0
1, 6480, Note_on_c, 9, 42, 127
1, 6487, Note_on_c, 9, 42, 0
1, 6720, Note_on_c, 9, 42, 127
1, 6720, Note_on_c, 9, 35, 127
1, 6727, Note_on_c, 9, 42, 0
1, 6960, Note_on_c, 9, 42, 127
1, 6967, Note_on_c, 9, 42, 0
1, 7199, Note_on_c, 9, 35, 0
1, 7200, Note_on_c, 9, 38, 127
1, 7200, Note_on_c, 9, 42, 127
1, 7207, Note_on_c, 9, 42, 0
1, 7439, Note_on_c, 9, 38, 0
1, 7440, Note_on_c, 9, 42, 127
1, 7447, Note_on_c, 9, 42, 0
1, 7680, Note_on_c, 9, 42, 127
1, 7680, Note_on_c, 9, 35, 127
1, 7687, Note_on_c, 9, 42, 0
1, 7920, Note_on_c, 9, 42, 127
1, 7927, Note_on_c, 9, 42, 0
1, 8159, Note_on_c, 9, 35, 0
1, 8160, Note_on_c, 9, 38, 127
1, 8160, Note_on_c, 9, 42, 127
1, 8167, Note_on_c, 9, 42, 0
1, 8399, Note_on_c, 9, 38, 0
1, 8400, Note_on_c, 9, 42, 127
1, 8407, Note_on_c, 9, 42, 0
1, 8640, Note_on_c, 9, 42, 127
1, 8640, Note_on_c, 9, 35, 127
1, 8647, Note_on_c, 9, 42, 0
1, 8880, Note_on_c, 9, 42, 127
1, 8887, Note_on_c, 9, 42, 0
1, 9119, Note_on_c, 9, 35, 0
1, 9120, Note_on_c, 9, 38, 127
1, 9120, Note_on_c, 9, 42, 127
1, 9127, Note_on_c, 9, 42, 0
1, 9359, Note_on_c, 9, 38, 0
1, 9360, Note_on_c, 9, 42, 127
1, 9367, Note_on_c, 9, 42, 0
1, 9600, Note_on_c, 9, 42, 127
1, 9600, Note_on_c, 9, 35, 127
1, 9607, Note_on_c, 9, 42, 0
1, 9840, Note_on_c, 9, 42, 127
1, 9847, Note_on_c, 9, 42, 0
1, 10079, Note_on_c, 9, 35, 0
1, 10080, Note_on_c, 9, 38, 127
1, 10080, Note_on_c, 9, 42, 127
1, 10087, Note_on_c, 9, 42, 0
1, 10319, Note_on_c, 9, 38, 0
1, 10320, Note_on_c, 9, 42, 127
1, 10327, Note_on_c, 9, 42, 0
1, 10560, Note_on_c, 9, 42, 127
1, 10560, Note_on_c, 9, 35, 127
1, 10567, Note_on_c, 9, 42, 0
1, 10800, Note_on_c, 9, 42, 127
1, 10807, Note_on_c, 9, 42, 0
1, 11039, Note_on_c, 9, 35, 0
1, 11040, Note_on_c, 9, 38, 127
1, 11040, Note_on_c, 9, 42, 127
1, 11047, Note_on_c, 9, 42, 0
1, 11279, Note_on_c, 9, 38, 0
1, 11280, Note_on_c, 9, 42, 127
1, 11287, Note_on_c, 9, 42, 0
1, 11520, Note_on_c, 9, 42, 127
1, 11520, Note_on_c, 9, 35, 127
1, 11527, Note_on_c, 9, 42, 0
1, 11760, Note_on_c, 9, 42, 127
1, 11767, Note_on_c, 9, 42, 0
1, 11999, Note_on_c, 9, 35, 0
1, 12000, Note_on_c, 9, 38, 127
1, 12000, Note_on_c, 9, 42, 127
1, 12007, Note_on_c, 9, 42, 0
1, 12239, Note_on_c, 9, 38, 0
1, 12240, Note_on_c, 9, 42, 127
1, 12247, Note_on_c, 9, 42, 0
1, 12480, Note_on_c, 9, 42, 127
1, 12480, Note_on_c, 9, 35, 127
1, 12487, Note_on_c, 9, 42, 0
1, 12720, Note_on_c, 9, 42, 127
1, 12727, Note_on_c, 9, 42, 0
1, 12959, Note_on_c, 9, 35, 0
1, 12960, Note_on_c, 9, 38, 127
1, 12960, Note_on_c, 9, 42, 127
1, 12967, Note_on_c, 9, 42, 0
1, 13199, Note_on_c, 9, 38, 0
1, 13200, Note_on_c, 9, 42, 127
1, 13207, Note_on_c, 9, 42, 0
1, 13440, Note_on_c, 9, 57, 127
1, 13440, Note_on_c, 9, 35, 127
1, 13447, Note_on_c, 9, 57, 0
1, 13679, Note_on_c, 9, 35, 0
1, 13680, Note_on_c, 9, 57, 127
1, 13680, Note_on_c, 9, 35, 127
1, 13687, Note_on_c, 9, 57, 0
1, 13919, Note_on_c, 9, 35, 0
1, 13920, Note_on_c, 9, 38, 127
1, 14159, Note_on_c, 9, 38, 0
1, 14160, Note_on_c, 9, 57, 127
1, 14160, Note_on_c, 9, 35, 127
1, 14167, Note_on_c, 9, 57, 0
1, 14399, Note_on_c, 9, 35, 0
1, 14640, Note_on_c, 9, 57, 127
1, 14640, Note_on_c, 9, 35, 127
1, 14647, Note_on_c, 9, 57, 0
1, 14879, Note_on_c, 9, 35, 0
1, 14880, Note_on_c, 9, 38, 127
1, 15119, Note_on_c, 9, 38, 0
1, 15120, Note_on_c, 9, 57, 127
1, 15120, Note_on_c, 9, 35, 127
1, 15127, Note_on_c, 9, 57, 0
1, 15359, Note_on_c, 9, 35, 0
1, 16800, Note_on_c, 9, 43, 127
1, 17279, Note_on_c, 9, 43, 0
1, 17280, Note_on_c, 9, 42, 127
1, 17280, Note_on_c, 9, 57, 127
1, 17280, Note_on_c, 9, 35, 127
1, 17287, Note_on_c, 9, 42, 0
1, 17287, Note_on_c, 9, 57, 0
1, 17520, Note_on_c, 9, 42, 127
1, 17527, Note_on_c, 9, 42, 0
1, 17759, Note_on_c, 9, 35, 0
1, 17760, Note_on_c, 9, 38, 127
1, 17760, Note_on_c, 9, 42, 127
1, 17767, Note_on_c, 9, 42, 0
1, 17999, Note_on_c, 9, 38, 0
1, 18000, Note_on_c, 9, 42, 127
1, 18007, Note_on_c, 9, 42, 0
1, 18240, Note_on_c, 9, 42, 127
1, 18240, Note_on_c, 9, 35, 127
1, 18247, Note_on_c, 9, 42, 0
1, 18480, Note_on_c, 9, 42, 127
1, 18487, Note_on_c, 9, 42, 0
1, 18719, Note_on_c, 9, 35, 0
1, 18720, Note_on_c, 9, 38, 127
1, 18720, Note_on_c, 9, 42, 127
1, 18727, Note_on_c, 9, 42, 0
1, 18959, Note_on_c, 9, 38, 0
1, 18960, Note_on_c, 9, 42, 127
1, 18967, Note_on_c, 9, 42, 0
1, 19200, Note_on_c, 9, 42, 127
1, 19200, Note_on_c, 9, 35, 127
1, 19207, Note_on_c, 9, 42, 0
1, 19440, Note_on_c, 9, 42, 127
1, 19447, Note_on_c, 9, 42, 0
1, 19679, Note_on_c, 9, 35, 0
1, 19680, Note_on_c, 9, 38, 127
1, 19680, Note_on_c, 9, 42, 127
1, 19687, Note_on_c, 9, 42, 0
1, 19919, Note_on_c, 9, 38, 0
1, 19920, Note_on_c, 9, 42, 127
1, 19927, Note_on_c, 9, 42, 0
1, 20160, Note_on_c, 9, 42, 127
1, 20160, Note_on_c, 9, 35, 127
1, 20167, Note_on_c, 9, 42, 0
1, 20400, Note_on_c, 9, 42, 127
1, 20407, Note_on_c, 9, 42, 0
1, 20639, Note_on_c, 9, 35, 0
1, 20640, Note_on_c, 9, 38, 127
1, 20640, Note_on_c, 9, 42, 127
1, 20647, Note_on_c, 9, 42, 0
1, 20879, Note_on_c, 9, 38, 0
1, 20880, Note_on_c, 9, 42, 127
1, 20887, Note_on_c, 9, 42, 0
1, 21120, Note_on_c, 9, 42, 127
1, 21120, Note_on_c, 9, 35, 127
1, 21127, Note_on_c, 9, 42, 0
1, 21360, Note_on_c, 9, 42, 127
1, 21367, Note_on_c, 9, 42, 0
1, 21599, Note_on_c, 9, 35, 0
1, 21600, Note_on_c, 9, 38, 127
1, 21600, Note_on_c, 9, 42, 127
1, 21607, Note_on_c, 9, 42, 0
1, 21839, Note_on_c, 9, 38, 0
1, 21840, Note_on_c, 9, 42, 127
1, 21847, Note_on_c, 9, 42, 0
1, 22080, Note_on_c, 9, 42, 127
1, 22080, Note_on_c, 9, 35, 127
1, 22087, Note_on_c, 9, 42, 0
1, 22320, Note_on_c, 9, 42, 127
1, 22327, Note_on_c, 9, 42, 0
1, 22559, Note_on_c, 9, 35, 0
1, 22560, Note_on_c, 9, 38, 127
1, 22560, Note_on_c, 9, 42, 127
1, 22567, Note_on_c, 9, 42, 0
1, 22799, Note_on_c, 9, 38, 0
1, 22800, Note_on_c, 9, 42, 127
1, 22807, Note_on_c, 9, 42, 0
1, 23040, Note_on_c, 9, 42, 127
1, 23040, Note_on_c, 9, 35, 127
1, 23047, Note_on_c, 9, 42, 0
1, 23280, Note_on_c, 9, 42, 127
1, 23287, Note_on_c, 9, 42, 0
1, 23519, Note_on_c, 9, 35, 0
1, 23520, Note_on_c, 9, 38, 127
1, 23520, Note_on_c, 9, 42, 127
1, 23527, Note_on_c, 9, 42, 0
1, 23759, Note_on_c, 9, 38, 0
1, 23760, Note_on_c, 9, 42, 127
1, 23767, Note_on_c, 9, 42, 0
1, 24000, Note_on_c, 9, 42, 127
1, 24000, Note_on_c, 9, 35, 127
1, 24007, Note_on_c, 9, 42, 0
1, 24240, Note_on_c, 9, 42, 127
1, 24247, Note_on_c, 9, 42, 0
1, 24479, Note_on_c, 9, 35, 0
1, 24480, Note_on_c, 9, 38, 127
1, 24480, Note_on_c, 9, 42, 127
1, 24487, Note_on_c, 9, 42, 0
1, 24719, Note_on_c, 9, 38, 0
1, 24720, Note_on_c, 9, 42, 127
1, 24727, Note_on_c, 9, 42, 0
1, 24960, Note_on_c, 9, 42, 127
1, 24960, Note_on_c, 9, 35, 127
1, 24967, Note_on_c, 9, 42, 0
1, 25200, Note_on_c, 9, 42, 127
1, 25207, Note_on_c, 9, 42, 0
1, 25439, Note_on_c, 9, 35, 0
1, 25440, Note_on_c, 9, 38, 127
1, 25440, Note_on_c, 9, 42, 127
1, 25447, Note_on_c, 9, 42, 0
1, 25679, Note_on_c, 9, 38, 0
1, 25680, Note_on_c, 9, 42, 127
1, 25687, Note_on_c, 9, 42, 0
1, 25920, Note_on_c, 9, 42, 127
1, 25920, Note_on_c, 9, 35, 127
1, 25927, Note_on_c, 9, 42, 0
1, 26160, Note_on_c, 9, 42, 127
1, 26167, Note_on_c, 9, 42, 0
1, 26399, Note_on_c, 9, 35, 0
1, 26400, Note_on_c, 9, 38, 127
1, 26400, Note_on_c, 9, 42, 127
1, 26407, Note_on_c, 9, 42, 0
1, 26639, Note_on_c, 9, 38, 0
1, 26640, Note_on_c, 9, 42, 127
1, 26647, Note_on_c, 9, 42, 0
1, 26880, Note_on_c, 9, 42, 127
1, 26880, Note_on_c, 9, 35, 127
1, 26887, Note_on_c, 9, 42, 0
1, 27120, Note_on_c, 9, 42, 127
1, 27127, Note_on_c, 9, 42, 0
1, 27359, Note_on_c, 9, 35, 0
1, 27360, Note_on_c, 9, 38, 127
1, 27360, Note_on_c, 9, 42, 127
1, 27367, Note_on_c, 9, 42, 0
1, 27599, Note_on_c, 9, 38, 0
1, 27600, Note_on_c, 9, 42, 127
1, 27607, Note_on_c, 9, 42, 0
1, 27840, Note_on_c, 9, 42, 127
1, 27840, Note_on_c, 9, 35, 127
1, 27847, Note_on_c, 9, 42, 0
1, 28080, Note_on_c, 9, 42, 127
1, 28087, Note_on_c, 9, 42, 0
1, 28319, Note_on_c, 9, 35, 0
1, 28320, Note_on_c, 9, 38, 127
1, 28320, Note_on_c, 9, 42, 127
1, 28327, Note_on_c, 9, 42, 0
1, 28559, Note_on_c, 9, 38, 0
1, 28560, Note_on_c, 9, 42, 127
1, 28567, Note_on_c, 9, 42, 0
1, 28800, Note_on_c, 9, 57, 127
1, 28800, Note_on_c, 9, 35, 127
1, 28807, Note_on_c, 9, 57, 0
1, 29039, Note_on_c, 9, 35, 0
1, 29040, Note_on_c, 9, 57, 127
1, 29040, Note_on_c, 9, 35, 127
1, 29047, Note_on_c, 9, 57, 0
1, 29279, Note_on_c, 9, 35, 0
1, 29280, Note_on_c, 9, 38, 127
1, 29519, Note_on_c, 9, 38, 0
1, 29520, Note_on_c, 9, 57, 127
1, 29520, Note_on_c, 9, 35, 127
1, 29527, Note_on_c, 9, 57, 0
1, 29759, Note_on_c, 9, 35, 0
1, 30000, Note_on_c, 9, 57, 127
1, 30000, Note_on_c, 9, 35, 127
1, 30007, Note_on_c, 9, 57, 0
1, 30239, Note_on_c, 9, 35, 0
1, 30240, Note_on_c, 9, 38, 127
1, 30479, Note_on_c, 9, 38, 0
1, 30480, Note_on_c, 9, 57, 127
1, 30480, Note_on_c, 9, 35, 127
1, 30487, Note_on_c, 9, 57, 0
1, 30719, Note_on_c, 9, 35, 0
1, 32160, Note_on_c, 9, 43, 127
1, 32639, Note_on_c, 9, 43, 0
1, 32640, Note_on_c, 9, 42, 127
1, 32640, Note_on_c, 9, 57, 127
1, 32640, Note_on_c, 9, 35, 127
1, 32647, Note_on_c, 9, 42, 0
1, 32647, Note_on_c, 9, 57, 0
1, 32880, Note_on_c, 9, 42, 127
1, 32887, Note_on_c, 9, 42, 0
1, 33119, Note_on_c, 9, 35, 0
1, 33120, Note_on_c, 9, 38, 127
1, 33120, Note_on_c, 9, 42, 127
1, 33127, Note_on_c, 9, 42, 0
1, 33359, Note_on_c, 9, 38, 0
1, 33360, Note_on_c, 9, 42, 127
1, 33367, Note_on_c, 9, 42, 0
1, 33600, Note_on_c, 9, 42, 127
1, 33600, Note_on_c, 9, 35, 127
1, 33607, Note_on_c, 9, 42, 0
1, 33840, Note_on_c, 9, 42, 127
1, 33847, Note_on_c, 9, 42, 0
1, 34079, Note_on_c, 9, 35, 0
1, 34080, Note_on_c, 9, 38, 127
1, 34080, Note_on_c, 9, 42, 127
1, 34087, Note_on_c, 9, 42, 0
1, 34319, Note_on_c, 9, 38, 0
1, 34320, Note_on_c, 9, 42, 127
1, 34327, Note_on_c, 9, 42, 0
1, 34560, Note_on_c, 9, 42, 127
1, 34560, Note_on_c, 9, 35, 127
1, 34567, Note_on_c, 9, 42, 0
1, 34800, Note_on_c, 9, 42, 127
1, 34807, Note_on_c, 9, 42, 0
1, 35039, Note_on_c, 9, 35, 0
1, 35040, Note_on_c, 9, 38, 127
1, 35040, Note_on_c, 9, 42, 127
1, 35047, Note_on_c, 9, 42, 0
1, 35279, Note_on_c, 9, 38, 0
1, 35280, Note_on_c, 9, 42, 127
1, 35287, Note_on_c, 9, 42, 0
1, 35520, Note_on_c, 9, 42, 127
1, 35520, Note_on_c, 9, 35, 127
1, 35527, Note_on_c, 9, 42, 0
1, 35760, Note_on_c, 9, 42, 127
1, 35767, Note_on_c, 9, 42, 0
1, 35999, Note_on_c, 9, 35, 0
1, 36000, Note_on_c, 9, 38, 127
1, 36000, Note_on_c, 9, 42, 127
1, 36007, Note_on_c, 9, 42, 0
1, 36239, Note_on_c, 9, 38, 0
1, 36240, Note_on_c, 9, 42, 127
1, 36247, Note_on_c, 9, 42, 0
1, 36480, Note_on_c, 9, 42, 127
1, 36480, Note_on_c, 9, 35, 127
1, 36487, Note_on_c, 9, 42, 0
1, 36720, Note_on_c, 9, 42, 127
1, 36727, Note_on_c, 9, 42, 0
1, 36959, Note_on_c, 9, 35, 0
1, 36960, Note_on_c, 9, 38, 127
1, 36960, Note_on_c, 9, 42, 127
1, 36967, Note_on_c, 9, 42, 0
1, 37199, Note_on_c, 9, 38, 0
1, 37200, Note_on_c, 9, 42, 127
1, 37207, Note_on_c, 9, 42, 0
1, 37440, Note_on_c, 9, 42, 127
1, 37440, Note_on_c, 9, 35, 127
1, 37447, Note_on_c, 9, 42, 0
1, 37680, Note_on_c, 9, 42, 127
1, 37687, Note_on_c, 9, 42, 0
1, 37919, Note_on_c, 9, 35, 0
1, 37920, Note_on_c, 9, 38, 127
1, 37920, Note_on_c, 9, 42, 127
1, 37927, Note_on_c, 9, 42, 0
1, 38159, Note_on_c, 9, 38, 0
1, 38160, Note_on_c, 9, 42, 127
1, 38167, Note_on_c, 9, 42, 0
1, 38400, Note_on_c, 9, 42, 127
1, 38400, Note_on_c, 9, 35, 127
1, 38407, Note_on_c, 9, 42, 0
1, 38640, Note_on_c, 9, 42, 127
1, 38647, Note_on_c, 9, 42, 0
1, 38879, Note_on_c, 9, 35, 0
1, 38880, Note_on_c, 9, 38, 127
1, 38880, Note_on_c, 9, 42, 127
1, 38887, Note_on_c, 9, 42, 0
1, 39119, Note_on_c, 9, 38, 0
1, 39120, Note_on_c, 9, 42, 127
1, 39127, Note_on_c, 9, 42, 0
1, 39360, Note_on_c, 9, 42, 127
1, 39360, Note_on_c, 9, 35, 127
1, 39367, Note_on_c, 9, 42, 0
1, 39600, Note_on_c, 9, 42, 127
1, 39607, Note_on_c, 9, 42, 0
1, 39839, Note_on_c, 9, 35, 0
1, 39840, Note_on_c, 9, 38, 127
1, 39840, Note_on_c, 9, 42, 127
1, 39847, Note_on_c, 9, 42, 0
1, 40079, Note_on_c, 9, 38, 0
1, 40080, Note_on_c, 9, 42, 127
1, 40087, Note_on_c, 9, 42, 0
1, 40320, Note_on_c, 9, 42, 127
1, 40320, Note_on_c, 9, 35, 127
1, 40327, Note_on_c, 9, 42, 0
1, 40560, Note_on_c, 9, 42, 127
1, 40567, Note_on_c, 9, 42, 0
1, 40799, Note_on_c, 9, 35, 0
1, 40800, Note_on_c, 9, 38, 127
1, 40800, Note_on_c, 9, 42, 127
1, 40807, Note_on_c, 9, 42, 0
1, 41039, Note_on_c, 9, 38, 0
1, 41040, Note_on_c, 9, 42, 127
1, 41047, Note_on_c, 9, 42, 0
1, 41280, Note_on_c, 9, 42, 127
1, 41280, Note_on_c, 9, 35, 127
1, 41287, Note_on_c, 9, 42, 0
1, 41520, Note_on_c, 9, 42, 127
1, 41527, Note_on_c, 9, 42, 0
1, 41759, Note_on_c, 9, 35, 0
1, 41760, Note_on_c, 9, 38, 127
1, 41760, Note_on_c, 9, 42, 127
1, 41767, Note_on_c, 9, 42, 0
1, 41999, Note_on_c, 9, 38, 0
1, 42000, Note_on_c, 9, 42, 127
1, 42007, Note_on_c, 9, 42, 0
1, 42240, Note_on_c, 9, 42, 127
1, 42240, Note_on_c, 9, 35, 127
1, 42247, Note_on_c, 9, 42, 0
1, 42480, Note_on_c, 9, 42, 127
1, 42487, Note_on_c, 9, 42, 0
1, 42719, Note_on_c, 9, 35, 0
1, 42720, Note_on_c, 9, 38, 127
1, 42720, Note_on_c, 9, 42, 127
1, 42727, Note_on_c, 9, 42, 0
1, 42959, Note_on_c, 9, 38, 0
1, 42960, Note_on_c, 9, 42, 127
1, 42967, Note_on_c, 9, 42, 0
1, 43200, Note_on_c, 9, 42, 127
1, 43200, Note_on_c, 9, 35, 127
1, 43207, Note_on_c, 9, 42, 0
1, 43440, Note_on_c, 9, 42, 127
1, 43447, Note_on_c, 9, 42, 0
1, 43679, Note_on_c, 9, 35, 0
1, 43680, Note_on_c, 9, 38, 127
1, 43680, Note_on_c, 9, 42, 127
1, 43687, Note_on_c, 9, 42, 0
1, 43919, Note_on_c, 9, 38, 0
1, 43920, Note_on_c, 9, 42, 127
1, 43927, Note_on_c, 9, 42, 0
1, 44160, Note_on_c, 9, 57, 127
1, 44160, Note_on_c, 9, 35, 127
1, 44167, Note_on_c, 9, 57, 0
1, 44399, Note_on_c, 9, 35, 0
1, 44400, Note_on_c, 9, 57, 127
1, 44400, Note_on_c, 9, 35, 127
1, 44407, Note_on_c, 9, 57, 0
1, 44639, Note_on_c, 9, 35, 0
1, 44640, Note_on_c, 9, 38, 127
1, 44879, Note_on_c, 9, 38, 0
1, 44880, Note_on_c, 9, 57, 127
1, 44880, Note_on_c, 9, 35, 127
1, 44887, Note_on_c, 9, 57, 0
1, 45119, Note_on_c, 9, 35, 0
1, 45360, Note_on_c, 9, 57, 127
1, 45360, Note_on_c, 9, 35, 127
1, 45367, Note_on_c, 9, 57, 0
1, 45599, Note_on_c, 9, 35, 0
1, 45600, Note_on_c, 9, 38, 127
1, 45839, Note_on_c, 9, 38, 0
1, 45840, Note_on_c, 9, 57, 127
1, 45840, Note_on_c, 9, 35, 127
1, 45847, Note_on_c, 9, 57, 0
1, 46079, Note_on_c, 9, 35, 0
1, 46320, Note_on_c, 9, 57, 127
1, 46320, Note_on_c, 9, 35, 127
1, 46327, Note_on_c, 9, 57, 0
1, 46559, Note_on_c, 9, 35, 0
1, 46560, Note_on_c, 9, 57, 127
1, 46560, Note_on_c, 9, 35, 127
1, 46576, Note_on_c, 9, 57, 0
1, 47039, Note_on_c, 9, 35, 0
1, 47520, Note_on_c, 9, 43, 127
1, 47999, Note_on_c, 9, 43, 0
1, 48000, Note_on_c, 9, 42, 127
1, 48000, Note_on_c, 9, 57, 127
1, 48000, Note_on_c, 9, 35, 127
1, 48007, Note_on_c, 9, 42, 0
1, 48007, Note_on_c, 9, 57, 0
1, 48240, Note_on_c, 9, 42, 127
1, 48247, Note_on_c, 9, 42, 0
1, 48479, Note_on_c, 9, 35, 0
1, 48480, Note_on_c, 9, 38, 127
1, 48480, Note_on_c, 9, 42, 127
1, 48487, Note_on_c, 9, 42, 0
1, 48719, Note_on_c, 9, 38, 0
1, 48720, Note_on_c, 9, 42, 127
1, 48727, Note_on_c, 9, 42, 0
1, 48960, Note_on_c, 9, 42, 127
1, 48960, Note_on_c, 9, 35, 127
1, 48967, Note_on_c, 9, 42, 0
1, 49200, Note_on_c, 9, 42, 127
1, 49207, Note_on_c, 9, 42, 0
1, 49439, Note_on_c, 9, 35, 0
1, 49440, Note_on_c, 9, 38, 127
1, 49440, Note_on_c, 9, 42, 127
1, 49447, Note_on_c, 9, 42, 0
1, 49679, Note_on_c, 9, 38, 0
1, 49680, Note_on_c, 9, 42, 127
1, 49687, Note_on_c, 9, 42, 0
1, 49920, Note_on_c, 9, 42, 127
1, 49920, Note_on_c, 9, 35, 127
1, 49927, Note_on_c, 9, 42, 0
1, 50160, Note_on_c, 9, 42, 127
1, 50167, Note_on_c, 9, 42, 0
1, 50399, Note_on_c, 9, 35, 0
1, 50400, Note_on_c, 9, 38, 127
1, 50400, Note_on_c, 9, 42, 127
1, 50407, Note_on_c, 9, 42, 0
1, 50639, Note_on_c, 9, 38, 0
1, 50640, Note_on_c, 9, 42, 127
1, 50647, Note_on_c, 9, 42, 0
1, 50880, Note_on_c, 9, 42, 127
1, 50880, Note_on_c, 9, 35, 127
1, 50887, Note_on_c, 9, 42, 0
1, 51120, Note_on_c, 9, 42, 127
1, 51127, Note_on_c, 9, 42, 0
1, 51359, Note_on_c, 9, 35, 0
1, 51360, Note_on_c, 9, 38, 127
1, 51360, Note_on_c, 9, 42, 127
1, 51367, Note_on_c, 9, 42, 0
1, 51599, Note_on_c, 9, 38, 0
1, 51600, Note_on_c, 9, 42, 127
1, 51607, Note_on_c, 9, 42, 0
1, 51840, Note_on_c, 9, 42, 127
1, 51840, Note_on_c, 9, 35, 127
1, 51847, Note_on_c, 9, 42, 0
1, 52080, Note_on_c, 9, 42, 127
1, 52087, Note_on_c, 9, 42, 0
1, 52319, Note_on_c, 9, 35, 0
1, 52320, Note_on_c, 9, 38, 127
1, 52320, Note_on_c, 9, 42, 127
1, 52327, Note_on_c, 9, 42, 0
1, 52559, Note_on_c, 9, 38, 0
1, 52560, Note_on_c, 9, 42, 127
1, 52567, Note_on_c, 9, 42, 0
1, 52800, Note_on_c, 9, 42, 127
1, 52800, Note_on_c, 9, 35, 127
1, 52807, Note_on_c, 9, 42, 0
1, 53040, Note_on_c, 9, 42, 127
1, 53047, Note_on_c, 9, 42, 0
1, 53279, Note_on_c, 9, 35, 0
1, 53280, Note_on_c, 9, 38, 127
1, 53280, Note_on_c, 9, 42, 127
1, 53287, Note_on_c, 9, 42, 0
1, 53519, Note_on_c, 9, 38, 0
1, 53520, Note_on_c, 9, 42, 127
1, 53527, Note_on_c, 9, 42, 0
1, 53760, Note_on_c, 9, 57, 127
1, 53760, Note_on_c, 9, 35, 127
1, 53767, Note_on_c, 9, 57, 0
1, 53999, Note_on_c, 9, 35, 0
1, 54000, Note_on_c, 9, 57, 127
1, 54000, Note_on_c, 9, 35, 127
1, 54007, Note_on_c, 9, 57, 0
1, 54239, Note_on_c, 9, 35, 0
1, 54240, Note_on_c, 9, 38, 127
1, 54479, Note_on_c, 9, 38, 0
1, 54480, Note_on_c, 9, 57, 127
1, 54480, Note_on_c, 9, 35, 127
1, 54487, Note_on_c, 9, 57, 0
1, 54719, Note_on_c, 9, 35, 0
1, 54960, Note_on_c, 9, 57, 127
1, 54960, Note_on_c, 9, 35, 127
1, 54967, Note_on_c, 9, 57, 0
1, 55199, Note_on_c, 9, 35, 0
1, 55200, Note_on_c, 9, 38, 127
1, 55439, Note_on_c, 9, 38, 0
1, 55440, Note_on_c, 9, 57, 127
1, 55440, Note_on_c, 9, 35, 127
1, 55447, Note_on_c, 9, 57, 0
1, 55679, Note_on_c, 9, 35, 0
1, 55680, Note_on_c, 9, 42, 127
1, 55680, Note_on_c, 9, 35, 127
1, 55687, Note_on_c, 9, 42, 0
1, 55920, Note_on_c, 9, 42, 127
1, 55927, Note_on_c, 9, 42, 0
1, 56159, Note_on_c, 9, 35, 0
1, 56160, Note_on_c, 9, 38, 127
1, 56160, Note_on_c, 9, 42, 127
1, 56167, Note_on_c, 9, 42, 0
1, 56399, Note_on_c, 9, 38, 0
1, 56400, Note_on_c, 9, 42, 127
1, 56407, Note_on_c, 9, 42, 0
1, 56640, Note_on_c, 9, 42, 127
1, 56640, Note_on_c, 9, 35, 127
1, 56647, Note_on_c, 9, 42, 0
1, 56880, Note_on_c, 9, 42, 127
1, 56887, Note_on_c, 9, 42, 0
1, 57119, Note_on_c, 9, 35, 0
1, 57120, Note_on_c, 9, 38, 127
1, 57120, Note_on_c, 9, 42, 127
1, 57127, Note_on_c, 9, 42, 0
1, 57359, Note_on_c, 9, 38, 0
1, 57360, Note_on_c, 9, 42, 127
1, 57367, Note_on_c, 9, 42, 0
1, 57600, Note_on_c, 9, 42, 127
1, 57600, Note_on_c, 9, 35, 127
1, 57607, Note_on_c, 9, 42, 0
1, 57840, Note_on_c, 9, 42, 127
1, 57847, Note_on_c, 9, 42, 0
1, 58079, Note_on_c, 9, 35, 0
1, 58080, Note_on_c, 9, 38, 127
1, 58080, Note_on_c, 9, 42, 127
1, 58087, Note_on_c, 9, 42, 0
1, 58319, Note_on_c, 9, 38, 0
1, 58320, Note_on_c, 9, 42, 127
1, 58327, Note_on_c, 9, 42, 0
1, 58560, Note_on_c, 9, 42, 127
1, 58560, Note_on_c, 9, 35, 127
1, 58567, Note_on_c, 9, 42, 0
1, 58800, Note_on_c, 9, 42, 127
1, 58807, Note_on_c, 9, 42, 0
1, 59039, Note_on_c, 9, 35, 0
1, 59040, Note_on_c, 9, 38, 127
1, 59040, Note_on_c, 9, 42, 127
1, 59047, Note_on_c, 9, 42, 0
1, 59279, Note_on_c, 9, 38, 0
1, 59280, Note_on_c, 9, 42, 127
1, 59287, Note_on_c, 9, 42, 0
1, 59520, Note_on_c, 9, 42, 127
1, 59520, Note_on_c, 9, 35, 127
1, 59527, Note_on_c, 9, 42, 0
1, 59760, Note_on_c, 9, 42, 127
1, 59767, Note_on_c, 9, 42, 0
1, 59999, Note_on_c, 9, 35, 0
1, 60000, Note_on_c, 9, 38, 127
1, 60000, Note_on_c, 9, 42, 127
1, 60007, Note_on_c, 9, 42, 0
1, 60239, Note_on_c, 9, 38, 0
1, 60240, Note_on_c, 9, 42, 127
1, 60247, Note_on_c, 9, 42, 0
1, 60480, Note_on_c, 9, 42, 127
1, 60480, Note_on_c, 9, 35, 127
1, 60487, Note_on_c, 9, 42, 0
1, 60720, Note_on_c, 9, 42, 127
1, 60727, Note_on_c, 9, 42, 0
1, 60959, Note_on_c, 9, 35, 0
1, 60960, Note_on_c, 9, 38, 127
1, 60960, Note_on_c, 9, 42, 127
1, 60967, Note_on_c, 9, 42, 0
1, 61199, Note_on_c, 9, 38, 0
1, 61200, Note_on_c, 9, 42, 127
1, 61207, Note_on_c, 9, 42, 0
1, 61440, Note_on_c, 9, 57, 127
1, 61440, Note_on_c, 9, 35, 127
1, 61447, Note_on_c, 9, 57, 0
1, 61679, Note_on_c, 9, 35, 0
1, 61680, Note_on_c, 9, 57, 127
1, 61680, Note_on_c, 9, 35, 127
1, 61687, Note_on_c, 9, 57, 0
1, 61919, Note_on_c, 9, 35, 0
1, 61920, Note_on_c, 9, 38, 127
1, 62159, Note_on_c, 9, 38, 0
1, 62160, Note_on_c, 9, 57, 127
1, 62160, Note_on_c, 9, 35, 127
1, 62167, Note_on_c, 9, 57, 0
1, 62399, Note_on_c, 9, 35, 0
1, 62640, Note_on_c, 9, 57, 127
1, 62640, Note_on_c, 9, 35, 127
1, 62647, Note_on_c, 9, 57, 0
1, 62879, Note_on_c, 9, 35, 0
1, 62880, Note_on_c, 9, 38, 127
1, 63119, Note_on_c, 9, 38, 0
1, 63120, Note_on_c, 9, 57, 127
1, 63120, Note_on_c, 9, 35, 127
1, 63127, Note_on_c, 9, 57, 0
1, 63359, Note_on_c, 9, 35, 0
1, 63600, Note_on_c, 9, 57, 127
1, 63600, Note_on_c, 9, 35, 127
1, 63607, Note_on_c, 9, 57, 0
1, 63839, Note_on_c, 9, 35, 0
1, 63840, Note_on_c, 9, 57, 127
1, 63840, Note_on_c, 9, 35, 127
1, 63856, Note_on_c, 9, 57, 0
1, 64319, Note_on_c, 9, 35, 0
1, 66720, Note_on_c, 9, 43, 127
1, 67199, Note_on_c, 9, 43, 0
1, 67200, Note_on_c, 9, 42, 127
1, 67200, Note_on_c, 9, 57, 127
1, 67200, Note_on_c, 9, 35, 127
1, 67207, Note_on_c, 9, 42, 0
1, 67207, Note_on_c, 9, 57, 0
1, 67440, Note_on_c, 9, 42, 127
1, 67447, Note_on_c, 9, 42, 0
1, 67679, Note_on_c, 9, 35, 0
1, 67680, Note_on_c, 9, 38, 127
1, 67680, Note_on_c, 9, 42, 127
1, 67687, Note_on_c, 9, 42, 0
1, 67919, Note_on_c, 9, 38, 0
1, 67920, Note_on_c, 9, 42, 127
1, 67927, Note_on_c, 9, 42, 0
1, 68160, Note_on_c, 9, 42, 127
1, 68160, Note_on_c, 9, 35, 127
1, 68167, Note_on_c, 9, 42, 0
1, 68400, Note_on_c, 9, 42, 127
1, 68407, Note_on_c, 9, 42, 0
1, 68639, Note_on_c, 9, 35, 0
1, 68640, Note_on_c, 9, 38, 127
1, 68640, Note_on_c, 9, 42, 127
1, 68647, Note_on_c, 9, 42, 0
1, 68879, Note_on_c, 9, 38, 0
1, 68880, Note_on_c, 9, 42, 127
1, 68887, Note_on_c, 9, 42, 0
1, 69120, Note_on_c, 9, 42, 127
1, 69120, Note_on_c, 9, 35, 127
1, 69127, Note_on_c, 9, 42, 0
1, 69360, Note_on_c, 9, 42, 127
1, 69367, Note_on_c, 9, 42, 0
1, 69599, Note_on_c, 9, 35, 0
1, 69600, Note_on_c, 9, 38, 127
1, 69600, Note_on_c, 9, 42, 127
1, 69607, Note_on_c, 9, 42, 0
1, 69839, Note_on_c, 9, 38, 0
1, 69840, Note_on_c, 9, 42, 127
1, 69847, Note_on_c, 9, 42, 0
1, 70080, Note_on_c, 9, 42, 127
1, 70080, Note_on_c, 9, 35, 127
1, 70087, Note_on_c, 9, 42, 0
1, 70320, Note_on_c, 9, 42, 127
1, 70327, Note_on_c, 9, 42, 0
1, 70559, Note_on_c, 9, 35, 0
1, 70560, Note_on_c, 9, 38, 127
1, 70560, Note_on_c, 9, 42, 127
1, 70567, Note_on_c, 9, 42, 0
1, 70799, Note_on_c, 9, 38, 0
1, 70800, Note_on_c, 9, 42, 127
1, 70807, Note_on_c, 9, 42, 0
1, 71040, Note_on_c, 9, 42, 127
1, 71040, Note_on_c, 9, 35, 127
1, 71047, Note_on_c, 9, 42, 0
1, 71280, Note_on_c, 9, 42, 127
1, 71287, Note_on_c, 9, 42, 0
1, 71519, Note_on_c, 9, 35, 0
1, 71520, Note_on_c, 9, 38, 127
1, 71520, Note_on_c, 9, 42, 127
1, 71527, Note_on_c, 9, 42, 0
1, 71759, Note_on_c, 9, 38, 0
1, 71760, Note_on_c, 9, 42, 127
1, 71767, Note_on_c, 9, 42, 0
1, 72000, Note_on_c, 9, 42, 127
1, 72000, Note_on_c, 9, 35, 127
1, 72007, Note_on_c, 9, 42, 0
1, 72240, Note_on_c, 9, 42, 127
1, 72247, Note_on_c, 9, 42, 0
1, 72479, Note_on_c, 9, 35, 0
1, 72480, Note_on_c, 9, 38, 127
1, 72480, Note_on_c, 9, 42, 127
1, 72487, Note_on_c, 9, 42, 0
1, 72719, Note_on_c, 9, 38, 0
1, 72720, Note_on_c, 9, 42, 127
1, 72727, Note_on_c, 9, 42, 0
1, 72960, Note_on_c, 9, 42, 127
1, 72960, Note_on_c, 9, 35, 127
1, 72967, Note_on_c, 9, 42, 0
1, 73200, Note_on_c, 9, 42, 127
1, 73207, Note_on_c, 9, 42, 0
1, 73439, Note_on_c, 9, 35, 0
1, 73440, Note_on_c, 9, 38, 127
1, 73440, Note_on_c, 9, 42, 127
1, 73447, Note_on_c, 9, 42, 0
1, 73679, Note_on_c, 9, 38, 0
1, 73680, Note_on_c, 9, 42, 127
1, 73687, Note_on_c, 9, 42, 0
1, 73920, Note_on_c, 9, 42, 127
1, 73920, Note_on_c, 9, 35, 127
1, 73927, Note_on_c, 9, 42, 0
1, 74160, Note_on_c, 9, 42, 127
1, 74167, Note_on_c, 9, 42, 0
1, 74399, Note_on_c, 9, 35, 0
1, 74400, Note_on_c, 9, 38, 127
1, 74400, Note_on_c, 9, 42, 127
1, 74407, Note_on_c, 9, 42, 0
1, 74639, Note_on_c, 9, 38, 0
1, 74640, Note_on_c, 9, 38, 127
1, 74640, Note_on_c, 9, 42, 127
1, 74643, Note_on_c, 9, 42, 0
1, 74759, Note_on_c, 9, 38, 0
1, 74760, Note_on_c, 9, 38, 127
1, 74879, Note_on_c, 9, 38, 0
1, 74880, Note_on_c, 9, 42, 127
1, 74880, Note_on_c, 9, 35, 127
1, 74887, Note_on_c, 9, 42, 0
1, 75120, Note_on_c, 9, 42, 127
1, 75127, Note_on_c, 9, 42, 0
1, 75359, Note_on_c, 9, 35, 0
1, 75360, Note_on_c, 9, 38, 127
1, 75360, Note_on_c, 9, 42, 127
1, 75367, Note_on_c, 9, 42, 0
1, 75599, Note_on_c, 9, 38, 0
1, 75600, Note_on_c, 9, 42, 127
1, 75607, Note_on_c, 9, 42, 0
1, 75840, Note_on_c, 9, 42, 127
1, 75840, Note_on_c, 9, 35, 127
1, 75847, Note_on_c, 9, 42, 0
1, 76080, Note_on_c, 9, 42, 127
1, 76087, Note_on_c, 9, 42, 0
1, 76319, Note_on_c, 9, 35, 0
1, 76320, Note_on_c, 9, 38, 127
1, 76320, Note_on_c, 9, 42, 127
1, 76327, Note_on_c, 9, 42, 0
1, 76559, Note_on_c, 9, 38, 0
1, 76560, Note_on_c, 9, 42, 127
1, 76567, Note_on_c, 9, 42, 0
1, 76800, Note_on_c, 9, 42, 127
1, 76800, Note_on_c, 9, 35, 127
1, 76807, Note_on_c, 9, 42, 0
1, 77040, Note_on_c, 9, 42, 127
1, 77047, Note_on_c, 9, 42, 0
1, 77279, Note_on_c, 9, 35, 0
1, 77280, Note_on_c, 9, 38, 127
1, 77280, Note_on_c, 9, 42, 127
1, 77287, Note_on_c, 9, 42, 0
1, 77519, Note_on_c, 9, 38, 0
1, 77520, Note_on_c, 9, 42, 127
1, 77527, Note_on_c, 9, 42, 0
1, 77760, Note_on_c, 9, 42, 127
1, 77760, Note_on_c, 9, 35, 127
1, 77767, Note_on_c, 9, 42, 0
1, 78000, Note_on_c, 9, 42, 127
1, 78007, Note_on_c, 9, 42, 0
1, 78239, Note_on_c, 9, 35, 0
1, 78240, Note_on_c, 9, 38, 127
1, 78240, Note_on_c, 9, 42, 127
1, 78247, Note_on_c, 9, 42, 0
1, 78479, Note_on_c, 9, 38, 0
1, 78480, Note_on_c, 9, 42, 127
1, 78487, Note_on_c, 9, 42, 0
1, 78720, Note_on_c, 9, 42, 127
1, 78720, Note_on_c, 9, 35, 127
1, 78727, Note_on_c, 9, 42, 0
1, 78960, Note_on_c, 9, 42, 127
1, 78967, Note_on_c, 9, 42, 0
1, 79199, Note_on_c, 9, 35, 0
1, 79200, Note_on_c, 9, 38, 127
1, 79200, Note_on_c, 9, 42, 127
1, 79207, Note_on_c, 9, 42, 0
1, 79439, Note_on_c, 9, 38, 0
1, 79440, Note_on_c, 9, 42, 127
1, 79447, Note_on_c, 9, 42, 0
1, 79680, Note_on_c, 9, 42, 127
1, 79680, Note_on_c, 9, 35, 127
1, 79687, Note_on_c, 9, 42, 0
1, 79920, Note_on_c, 9, 42, 127
1, 79927, Note_on_c, 9, 42, 0
1, 80159, Note_on_c, 9, 35, 0
1, 80160, Note_on_c, 9, 38, 127
1, 80160, Note_on_c, 9, 42, 127
1, 80167, Note_on_c, 9, 42, 0
1, 80399, Note_on_c, 9, 38, 0
1, 80400, Note_on_c, 9, 42, 127
1, 80407, Note_on_c, 9, 42, 0
1, 80640, Note_on_c, 9, 42, 127
1, 80640, Note_on_c, 9, 35, 127
1, 80647, Note_on_c, 9, 42, 0
1, 80880, Note_on_c, 9, 42, 127
1, 80887, Note_on_c, 9, 42, 0
1, 81119, Note_on_c, 9, 35, 0
1, 81120, Note_on_c, 9, 38, 127
1, 81120, Note_on_c, 9, 42, 127
1, 81127, Note_on_c, 9, 42, 0
1, 81359, Note_on_c, 9, 38, 0
1, 81360, Note_on_c, 9, 42, 127
1, 81367, Note_on_c, 9, 42, 0
1, 81600, Note_on_c, 9, 42, 127
1, 81600, Note_on_c, 9, 35, 127
1, 81607, Note_on_c, 9, 42, 0
1, 81840, Note_on_c, 9, 42, 127
1, 81847, Note_on_c, 9, 42, 0
1, 82079, Note_on_c, 9, 35, 0
1, 82080, Note_on_c, 9, 38, 127
1, 82080, Note_on_c, 9, 42, 127
1, 82087, Note_on_c, 9, 42, 0
1, 82319, Note_on_c, 9, 38, 0
1, 82320, Note_on_c, 9, 42, 127
1, 82327, Note_on_c, 9, 42, 0
1, 82560, Note_on_c, 9, 42, 127
1, 82560, Note_on_c, 9, 35, 127
1, 82567, Note_on_c, 9, 42, 0
1, 82800, Note_on_c, 9, 42, 127
1, 82807, Note_on_c, 9, 42, 0
1, 83039, Note_on_c, 9, 35, 0
1, 83040, Note_on_c, 9, 38, 127
1, 83040, Note_on_c, 9, 42, 127
1, 83047, Note_on_c, 9, 42, 0
1, 83279, Note_on_c, 9, 38, 0
1, 83280, Note_on_c, 9, 42, 127
1, 83287, Note_on_c, 9, 42, 0
1, 83520, Note_on_c, 9, 42, 127
1, 83520, Note_on_c, 9, 35, 127
1, 83527, Note_on_c, 9, 42, 0
1, 83760, Note_on_c, 9, 42, 127
1, 83767, Note_on_c, 9, 42, 0
1, 83999, Note_on_c, 9, 35, 0
1, 84000, Note_on_c, 9, 38, 127
1, 84000, Note_on_c, 9, 42, 127
1, 84007, Note_on_c, 9, 42, 0
1, 84239, Note_on_c, 9, 38, 0
1, 84240, Note_on_c, 9, 42, 127
1, 84247, Note_on_c, 9, 42, 0
1, 84480, Note_on_c, 9, 42, 127
1, 84480, Note_on_c, 9, 35, 127
1, 84487, Note_on_c, 9, 42, 0
1, 84720, Note_on_c, 9, 42, 127
1, 84727, Note_on_c, 9, 42, 0
1, 84959, Note_on_c, 9, 35, 0
1, 84960, Note_on_c, 9, 38, 127
1, 84960, Note_on_c, 9, 42, 127
1, 84967, Note_on_c, 9, 42, 0
1, 85199, Note_on_c, 9, 38, 0
1, 85200, Note_on_c, 9, 42, 127
1, 85207, Note_on_c, 9, 42, 0
1, 85440, Note_on_c, 9, 42, 127
1, 85440, Note_on_c, 9, 35, 127
1, 85447, Note_on_c, 9, 42, 0
1, 85680, Note_on_c, 9, 42, 127
1, 85687, Note_on_c, 9, 42, 0
1, 85919, Note_on_c, 9, 35, 0
1, 85920, Note_on_c, 9, 38, 127
1, 85920, Note_on_c, 9, 42, 127
1, 85927, Note_on_c, 9, 42, 0
1, 86159, Note_on_c, 9, 38, 0
1, 86160, Note_on_c, 9, 42, 127
1, 86167, Note_on_c, 9, 42, 0
1, 86400, Note_on_c, 9, 57, 127
1, 86400, Note_on_c, 9, 35, 127
1, 86407, Note_on_c, 9, 57, 0
1, 86639, Note_on_c, 9, 35, 0
1, 86640, Note_on_c, 9, 57, 127
1, 86640, Note_on_c, 9, 35, 127
1, 86647, Note_on_c, 9, 57, 0
1, 86879, Note_on_c, 9, 35, 0
1, 86880, Note_on_c, 9, 38, 127
1, 87119, Note_on_c, 9, 38, 0
1, 87120, Note_on_c, 9, 57, 127
1, 87120, Note_on_c, 9, 35, 127
1, 87127, Note_on_c, 9, 57, 0
1, 87359, Note_on_c, 9, 35, 0
1, 87600, Note_on_c, 9, 57, 127
1, 87600, Note_on_c, 9, 35, 127
1, 87607, Note_on_c, 9, 57, 0
1, 87839, Note_on_c, 9, 35, 0
1, 87840, Note_on_c, 9, 38, 127
1, 88079, Note_on_c, 9, 38, 0
1, 88080, Note_on_c, 9, 57, 127
1, 88080, Note_on_c, 9, 35, 127
1, 88087, Note_on_c, 9, 57, 0
1, 88319, Note_on_c, 9, 35, 0
1, 88560, Note_on_c, 9, 57, 127
1, 88560, Note_on_c, 9, 35, 127
1, 88567, Note_on_c, 9, 57, 0
1, 88799, Note_on_c, 9, 35, 0
1, 88800, Note_on_c, 9, 57, 127
1, 88800, Note_on_c, 9, 35, 127
1, 88816, Note_on_c, 9, 57, 0
1, 89279, Note_on_c, 9, 35, 0
1, 90000, Note_on_c, 9, 57, 127
1, 90000, Note_on_c, 9, 35, 127
1, 90007, Note_on_c, 9, 57, 0
1, 90239, Note_on_c, 9, 35, 0
1, 90480, Note_on_c, 9, 57, 127
1, 90480, Note_on_c, 9, 35, 127
1, 90487, Note_on_c, 9, 57, 0
1, 90719, Note_on_c, 9, 35, 0
1, 90720, Note_on_c, 9, 57, 127
1, 90720, Note_on_c, 9, 35, 127
1, 90736, Note_on_c, 9, 57, 0
1, 91199, Note_on_c, 9, 35, 0
1, 91680, Note_on_c, 9, 43, 127
1, 92159, Note_on_c, 9, 43, 0
1, 92160, Note_on_c, 9, 42, 127
1, 92160, Note_on_c, 9, 57, 127
1, 92160, Note_on_c, 9, 35, 127
1, 92167, Note_on_c, 9, 42, 0
1, 92167, Note_on_c, 9, 57, 0
1, 92400, Note_on_c, 9, 42, 127
1, 92407, Note_on_c, 9, 42, 0
1, 92639, Note_on_c, 9, 35, 0
1, 92640, Note_on_c, 9, 38, 127
1, 92640, Note_on_c, 9, 42, 127
1, 92647, Note_on_c, 9, 42, 0
1, 92879, Note_on_c, 9, 38, 0
1, 92880, Note_on_c, 9, 42, 127
1, 92887, Note_on_c, 9, 42, 0
1, 93120, Note_on_c, 9, 42, 127
1, 93120, Note_on_c, 9, 35, 127
1, 93127, Note_on_c, 9, 42, 0
1, 93360, Note_on_c, 9, 42, 127
1, 93367, Note_on_c, 9, 42, 0
1, 93599, Note_on_c, 9, 35, 0
1, 93600, Note_on_c, 9, 38, 127
1, 93600, Note_on_c, 9, 42, 127
1, 93607, Note_on_c, 9, 42, 0
1, 93839, Note_on_c, 9, 38, 0
1, 93840, Note_on_c, 9, 42, 127
1, 93847, Note_on_c, 9, 42, 0
1, 94080, Note_on_c, 9, 42, 127
1, 94080, Note_on_c, 9, 35, 127
1, 94087, Note_on_c, 9, 42, 0
1, 94320, Note_on_c, 9, 42, 127
1, 94327, Note_on_c, 9, 42, 0
1, 94559, Note_on_c, 9, 35, 0
1, 94560, Note_on_c, 9, 38, 127
1, 94560, Note_on_c, 9, 42, 127
1, 94567, Note_on_c, 9, 42, 0
1, 94799, Note_on_c, 9, 38, 0
1, 94800, Note_on_c, 9, 42, 127
1, 94807, Note_on_c, 9, 42, 0
1, 95040, Note_on_c, 9, 42, 127
1, 95040, Note_on_c, 9, 35, 127
1, 95047, Note_on_c, 9, 42, 0
1, 95280, Note_on_c, 9, 42, 127
1, 95287, Note_on_c, 9, 42, 0
1, 95519, Note_on_c, 9, 35, 0
1, 95520, Note_on_c, 9, 38, 127
1, 95520, Note_on_c, 9, 42, 127
1, 95527, Note_on_c, 9, 42, 0
1, 95759, Note_on_c, 9, 38, 0
1, 95760, Note_on_c, 9, 42, 127
1, 95767, Note_on_c, 9, 42, 0
1, 96000, Note_on_c, 9, 42, 127
1, 96000, Note_on_c, 9, 35, 127
1, 96007, Note_on_c, 9, 42, 0
1, 96240, Note_on_c, 9, 42, 127
1, 96247, Note_on_c, 9, 42, 0
1, 96479, Note_on_c, 9, 35, 0
1, 96480, Note_on_c, 9, 38, 127
1, 96480, Note_on_c, 9, 42, 127
1, 96487, Note_on_c, 9, 42, 0
1, 96719, Note_on_c, 9, 38, 0
1, 96720, Note_on_c, 9, 42, 127
1, 96727, Note_on_c, 9, 42, 0
1, 96960, Note_on_c, 9, 42, 127
1, 96960, Note_on_c, 9, 35, 127
1, 96967, Note_on_c, 9, 42, 0
1, 97200, Note_on_c, 9, 42, 127
1, 97207, Note_on_c, 9, 42, 0
1, 97439, Note_on_c, 9, 35, 0
1, 97440, Note_on_c, 9, 38, 127
1, 97440, Note_on_c, 9, 42, 127
1, 97447, Note_on_c, 9, 42, 0
1, 97679, Note_on_c, 9, 38, 0
1, 97680, Note_on_c, 9, 42, 127
1, 97687, Note_on_c, 9, 42, 0
1, 97920, Note_on_c, 9, 57, 127
1, 97920, Note_on_c, 9, 35, 127
1, 97927, Note_on_c, 9, 57, 0
1, 98159, Note_on_c, 9, 35, 0
1, 98160, Note_on_c, 9, 57, 127
1, 98160, Note_on_c, 9, 35, 127
1, 98167, Note_on_c, 9, 57, 0
1, 98399, Note_on_c, 9, 35, 0
1, 98400, Note_on_c, 9, 38, 127
1, 98639, Note_on_c, 9, 38, 0
1, 98640, Note_on_c, 9, 57, 127
1, 98640, Note_on_c, 9, 35, 127
1, 98647, Note_on_c, 9, 57, 0
1, 98879, Note_on_c, 9, 35, 0
1, 99120, Note_on_c, 9, 57, 127
1, 99120, Note_on_c, 9, 35, 127
1, 99127, Note_on_c, 9, 57, 0
1, 99359, Note_on_c, 9, 35, 0
1, 99360, Note_on_c, 9, 38, 127
1, 99599, Note_on_c, 9, 38, 0
1, 99600, Note_on_c, 9, 57, 127
1, 99600, Note_on_c, 9, 35, 127
1, 99607, Note_on_c, 9, 57, 0
1, 99839, Note_on_c, 9, 35, 0
1, 99840, Note_on_c, 9, 42, 127
1, 99840, Note_on_c, 9, 35, 127
1, 99847, Note_on_c, 9, 42, 0
1, 100080, Note_on_c, 9, 42, 127
1, 100087, Note_on_c, 9, 42, 0
1, 100319, Note_on_c, 9, 35, 0
1, 100320, Note_on_c, 9, 38, 127
1, 100320, Note_on_c, 9, 42, 127
1, 100327, Note_on_c, 9, 42, 0
1, 100559, Note_on_c, 9, 38, 0
1, 100560, Note_on_c, 9, 42, 127
1, 100567, Note_on_c, 9, 42, 0
1, 100800, Note_on_c, 9, 42, 127
1, 100800, Note_on_c, 9, 35, 127
1, 100807, Note_on_c, 9, 42, 0
1, 101040, Note_on_c, 9, 42, 127
1, 101047, Note_on_c, 9, 42, 0
1, 101279, Note_on_c, 9, 35, 0
1, 101280, Note_on_c, 9, 38, 127
1, 101280, Note_on_c, 9, 42, 127
1, 101287, Note_on_c, 9, 42, 0
1, 101519, Note_on_c, 9, 38, 0
1, 101520, Note_on_c, 9, 42, 127
1, 101527, Note_on_c, 9, 42, 0
1, 101760, Note_on_c, 9, 42, 127
1, 101760, Note_on_c, 9, 35, 127
1, 101767, Note_on_c, 9, 42, 0
1, 102000, Note_on_c, 9, 42, 127
1, 102007, Note_on_c, 9, 42, 0
1, 102239, Note_on_c, 9, 35, 0
1, 102240, Note_on_c, 9, 38, 127
1, 102240, Note_on_c, 9, 42, 127
1, 102247, Note_on_c, 9, 42, 0
1, 102479, Note_on_c, 9, 38, 0
1, 102480, Note_on_c, 9, 42, 127
1, 102487, Note_on_c, 9, 42, 0
1, 102720, Note_on_c, 9, 42, 127
1, 102720, Note_on_c, 9, 35, 127
1, 102727, Note_on_c, 9, 42, 0
1, 102960, Note_on_c, 9, 42, 127
1, 102967, Note_on_c, 9, 42, 0
1, 103199, Note_on_c, 9, 35, 0
1, 103200, Note_on_c, 9, 38, 127
1, 103200, Note_on_c, 9, 42, 127
1, 103207, Note_on_c, 9, 42, 0
1, 103439, Note_on_c, 9, 38, 0
1, 103440, Note_on_c, 9, 42, 127
1, 103447, Note_on_c, 9, 42, 0
1, 103680, Note_on_c, 9, 42, 127
1, 103680, Note_on_c, 9, 35, 127
1, 103687, Note_on_c, 9, 42, 0
1, 103920, Note_on_c, 9, 42, 127
1, 103927, Note_on_c, 9, 42, 0
1, 104159, Note_on_c, 9, 35, 0
1, 104160, Note_on_c, 9, 38, 127
1, 104160, Note_on_c, 9, 42, 127
1, 104167, Note_on_c, 9, 42, 0
1, 104399, Note_on_c, 9, 38, 0
1, 104400, Note_on_c, 9, 42, 127
1, 104407, Note_on_c, 9, 42, 0
1, 104640, Note_on_c, 9, 42, 127
1, 104640, Note_on_c, 9, 35, 127
1, 104647, Note_on_c, 9, 42, 0
1, 104880, Note_on_c, 9, 42, 127
1, 104887, Note_on_c, 9, 42, 0
1, 105119, Note_on_c, 9, 35, 0
1, 105120, Note_on_c, 9, 38, 127
1, 105120, Note_on_c, 9, 42, 127
1, 105127, Note_on_c, 9, 42, 0
1, 105359, Note_on_c, 9, 38, 0
1, 105360, Note_on_c, 9, 42, 127
1, 105367, Note_on_c, 9, 42, 0
1, 105600, Note_on_c, 9, 57, 127
1, 105600, Note_on_c, 9, 35, 127
1, 105607, Note_on_c, 9, 57, 0
1, 105839, Note_on_c, 9, 35, 0
1, 105840, Note_on_c, 9, 57, 127
1, 105840, Note_on_c, 9, 35, 127
1, 105847, Note_on_c, 9, 57, 0
1, 106079, Note_on_c, 9, 35, 0
1, 106080, Note_on_c, 9, 38, 127
1, 106319, Note_on_c, 9, 38, 0
1, 106320, Note_on_c, 9, 57, 127
1, 106320, Note_on_c, 9, 35, 127
1, 106327, Note_on_c, 9, 57, 0
1, 106559, Note_on_c, 9, 35, 0
1, 106800, Note_on_c, 9, 57, 127
1, 106800, Note_on_c, 9, 35, 127
1, 106807, Note_on_c, 9, 57, 0
1, 107039, Note_on_c, 9, 35, 0
1, 107040, Note_on_c, 9, 38, 127
1, 107279, Note_on_c, 9, 38, 0
1, 107280, Note_on_c, 9, 57, 127
1, 107280, Note_on_c, 9, 35, 127
1, 107287, Note_on_c, 9, 57, 0
1, 107519, Note_on_c, 9, 35, 0
1, 107760, Note_on_c, 9, 57, 127
1, 107760, Note_on_c, 9, 35, 127
1, 107767, Note_on_c, 9, 57, 0
1, 107999, Note_on_c, 9, 35, 0
1, 108000, Note_on_c, 9, 57, 127
1, 108000, Note_on_c, 9, 35, 127
1, 108016, Note_on_c, 9, 57, 0
1, 108479, Note_on_c, 9, 35, 0
1, 110880, Note_on_c, 9, 43, 127
1, 111359, Note_on_c, 9, 43, 0
1, 111360, Note_on_c, 9, 42, 127
1, 111360, Note_on_c, 9, 57, 127
1, 111360, Note_on_c, 9, 35, 127
1, 111367, Note_on_c, 9, 42, 0
1, 111367, Note_on_c, 9, 57, 0
1, 111600, Note_on_c, 9, 42, 127
1, 111607, Note_on_c, 9, 42, 0
1, 111839, Note_on_c, 9, 35, 0
1, 111840, Note_on_c, 9, 38, 127
1, 111840, Note_on_c, 9, 42, 127
1, 111847, Note_on_c, 9, 42, 0
1, 112079, Note_on_c, 9, 38, 0
1, 112080, Note_on_c, 9, 42, 127
1, 112087, Note_on_c, 9, 42, 0
1, 112320, Note_on_c, 9, 42, 127
1, 112320, Note_on_c, 9, 35, 127
1, 112327, Note_on_c, 9, 42, 0
1, 112560, Note_on_c, 9, 42, 127
1, 112567, Note_on_c, 9, 42, 0
1, 112799, Note_on_c, 9, 35, 0
1, 112800, Note_on_c, 9, 38, 127
1, 112800, Note_on_c, 9, 42, 127
1, 112807, Note_on_c, 9, 42, 0
1, 113039, Note_on_c, 9, 38, 0
1, 113040, Note_on_c, 9, 42, 127
1, 113047, Note_on_c, 9, 42, 0
1, 113280, Note_on_c, 9, 42, 127
1, 113280, Note_on_c, 9, 35, 127
1, 113287, Note_on_c, 9, 42, 0
1, 113520, Note_on_c, 9, 42, 127
1, 113527, Note_on_c, 9, 42, 0
1, 113759, Note_on_c, 9, 35, 0
1, 113760, Note_on_c, 9, 38, 127
1, 113760, Note_on_c, 9, 42, 127
1, 113767, Note_on_c, 9, 42, 0
1, 113999, Note_on_c, 9, 38, 0
1, 114000, Note_on_c, 9, 42, 127
1, 114007, Note_on_c, 9, 42, 0
1, 114240, Note_on_c, 9, 42, 127
1, 114240, Note_on_c, 9, 35, 127
1, 114247, Note_on_c, 9, 42, 0
1, 114480, Note_on_c, 9, 42, 127
1, 114487, Note_on_c, 9, 42, 0
1, 114719, Note_on_c, 9, 35, 0
1, 114720, Note_on_c, 9, 38, 127
1, 114720, Note_on_c, 9, 42, 127
1, 114727, Note_on_c, 9, 42, 0
1, 114959, Note_on_c, 9, 38, 0
1, 114960, Note_on_c, 9, 42, 127
1, 114967, Note_on_c, 9, 42, 0
1, 115200, Note_on_c, 9, 42, 127
1, 115200, Note_on_c, 9, 35, 127
1, 115207, Note_on_c, 9, 42, 0
1, 115440, Note_on_c, 9, 42, 127
1, 115447, Note_on_c, 9, 42, 0
1, 115679, Note_on_c, 9, 35, 0
1, 115680, Note_on_c, 9, 38, 127
1, 115680, Note_on_c, 9, 42, 127
1, 115687, Note_on_c, 9, 42, 0
1, 115919, Note_on_c, 9, 38, 0
1, 115920, Note_on_c, 9, 42, 127
1, 115927, Note_on_c, 9, 42, 0
1, 116160, Note_on_c, 9, 42, 127
1, 116160, Note_on_c, 9, 35, 127
1, 116167, Note_on_c, 9, 42, 0
1, 116400, Note_on_c, 9, 42, 127
1, 116407, Note_on_c, 9, 42, 0
1, 116639, Note_on_c, 9, 35, 0
1, 116640, Note_on_c, 9, 38, 127
1, 116640, Note_on_c, 9, 42, 127
1, 116647, Note_on_c, 9, 42, 0
1, 116879, Note_on_c, 9, 38, 0
1, 116880, Note_on_c, 9, 42, 127
1, 116887, Note_on_c, 9, 42, 0
1, 117120, Note_on_c, 9, 42, 127
1, 117120, Note_on_c, 9, 35, 127
1, 117127, Note_on_c, 9, 42, 0
1, 117360, Note_on_c, 9, 42, 127
1, 117367, Note_on_c, 9, 42, 0
1, 117599, Note_on_c, 9, 35, 0
1, 117600, Note_on_c, 9, 38, 127
1, 117600, Note_on_c, 9, 42, 127
1, 117607, Note_on_c, 9, 42, 0
1, 117839, Note_on_c, 9, 38, 0
1, 117840, Note_on_c, 9, 42, 127
1, 117847, Note_on_c, 9, 42, 0
1, 118080, Note_on_c, 9, 42, 127
1, 118080, Note_on_c, 9, 35, 127
1, 118087, Note_on_c, 9, 42, 0
1, 118320, Note_on_c, 9, 42, 127
1, 118327, Note_on_c, 9, 42, 0
1, 118559, Note_on_c, 9, 35, 0
1, 118560, Note_on_c, 9, 38, 127
1, 118560, Note_on_c, 9, 42, 127
1, 118567, Note_on_c, 9, 42, 0
1, 118799, Note_on_c, 9, 38, 0
1, 118800, Note_on_c, 9, 42, 127
1, 118807, Note_on_c, 9, 42, 0
1, 119040, Note_on_c, 9, 42, 127
1, 119040, Note_on_c, 9, 35, 127
1, 119047, Note_on_c, 9, 42, 0
1, 119280, Note_on_c, 9, 42, 127
1, 119287, Note_on_c, 9, 42, 0
1, 119519, Note_on_c, 9, 35, 0
1, 119520, Note_on_c, 9, 38, 127
1, 119520, Note_on_c, 9, 42, 127
1, 119527, Note_on_c, 9, 42, 0
1, 119759, Note_on_c, 9, 38, 0
1, 119760, Note_on_c, 9, 42, 127
1, 119767, Note_on_c, 9, 42, 0
1, 120000, Note_on_c, 9, 42, 127
1, 120000, Note_on_c, 9, 35, 127
1, 120007, Note_on_c, 9, 42, 0
1, 120240, Note_on_c, 9, 42, 127
1, 120247, Note_on_c, 9, 42, 0
1, 120479, Note_on_c, 9, 35, 0
1, 120480, Note_on_c, 9, 38, 127
1, 120480, Note_on_c, 9, 42, 127
1, 120487, Note_on_c, 9, 42, 0
1, 120719, Note_on_c, 9, 38, 0
1, 120720, Note_on_c, 9, 42, 127
1, 120727, Note_on_c, 9, 42, 0
1, 120960, Note_on_c, 9, 42, 127
1, 120960, Note_on_c, 9, 35, 127
1, 120967, Note_on_c, 9, 42, 0
1, 121200, Note_on_c, 9, 42, 127
1, 121207, Note_on_c, 9, 42, 0
1, 121439, Note_on_c, 9, 35, 0
1, 121440, Note_on_c, 9, 38, 127
1, 121440, Note_on_c, 9, 42, 127
1, 121447, Note_on_c, 9, 42, 0
1, 121679, Note_on_c, 9, 38, 0
1, 121680, Note_on_c, 9, 42, 127
1, 121687, Note_on_c, 9, 42, 0
1, 121920, Note_on_c, 9, 42, 127
1, 121920, Note_on_c, 9, 35, 127
1, 121927, Note_on_c, 9, 42, 0
1, 122160, Note_on_c, 9, 42, 127
1, 122167, Note_on_c, 9, 42, 0
1, 122399, Note_on_c, 9, 35, 0
1, 122400, Note_on_c, 9, 38, 127
1, 122400, Note_on_c, 9, 42, 127
1, 122407, Note_on_c, 9, 42, 0
1, 122639, Note_on_c, 9, 38, 0
1, 122640, Note_on_c, 9, 42, 127
1, 122647, Note_on_c, 9, 42, 0
1, 122880, Note_on_c, 9, 42, 127
1, 122880, Note_on_c, 9, 35, 127
1, 122887, Note_on_c, 9, 42, 0
1, 123120, Note_on_c, 9, 42, 127
1, 123127, Note_on_c, 9, 42, 0
1, 123359, Note_on_c, 9, 35, 0
1, 123360, Note_on_c, 9, 38, 127
1, 123360, Note_on_c, 9, 42, 127
1, 123367, Note_on_c, 9, 42, 0
1, 123599, Note_on_c, 9, 38, 0
1, 123600, Note_on_c, 9, 42, 127
1, 123607, Note_on_c, 9, 42, 0
1, 123840, Note_on_c, 9, 42, 127
1, 123840, Note_on_c, 9, 35, 127
1, 123847, Note_on_c, 9, 42, 0
1, 124080, Note_on_c, 9, 42, 127
1, 124087, Note_on_c, 9, 42, 0
1, 124319, Note_on_c, 9, 35, 0
1, 124320, Note_on_c, 9, 38, 127
1, 124320, Note_on_c, 9, 42, 127
1, 124327, Note_on_c, 9, 42, 0
1, 124559, Note_on_c, 9, 38, 0
1, 124560, Note_on_c, 9, 42, 127
1, 124567, Note_on_c, 9, 42, 0
1, 124800, Note_on_c, 9, 42, 127
1, 124800, Note_on_c, 9, 35, 127
1, 124807, Note_on_c, 9, 42, 0
1, 125040, Note_on_c, 9, 42, 127
1, 125047, Note_on_c, 9, 42, 0
1, 125279, Note_on_c, 9, 35, 0
1, 125280, Note_on_c, 9, 38, 127
1, 125280, Note_on_c, 9, 42, 127
1, 125287, Note_on_c, 9, 42, 0
1, 125519, Note_on_c, 9, 38, 0
1, 125520, Note_on_c, 9, 42, 127
1, 125527, Note_on_c, 9, 42, 0
1, 125760, Note_on_c, 9, 42, 127
1, 125760, Note_on_c, 9, 35, 127
1, 125767, Note_on_c, 9, 42, 0
1, 126000, Note_on_c, 9, 42, 127
1, 126007, Note_on_c, 9, 42, 0
1, 126239, Note_on_c, 9, 35, 0
1, 126240, Note_on_c, 9, 38, 127
1, 126240, Note_on_c, 9, 42, 127
1, 126247, Note_on_c, 9, 42, 0
1, 126479, Note_on_c, 9, 38, 0
1, 126480, Note_on_c, 9, 42, 127
1, 126487, Note_on_c, 9, 42, 0
1, 126720, Note_on_c, 9, 42, 127
1, 126720, Note_on_c, 9, 35, 127
1, 126727, Note_on_c, 9, 42, 0
1, 126960, Note_on_c, 9, 42, 127
1, 126967, Note_on_c, 9, 42, 0
1, 127199, Note_on_c, 9, 35, 0
1, 127200, Note_on_c, 9, 38, 127
1, 127200, Note_on_c, 9, 42, 127
1, 127207, Note_on_c, 9, 42, 0
1, 127439, Note_on_c, 9, 38, 0
1, 127440, Note_on_c, 9, 42, 127
1, 127447, Note_on_c, 9, 42, 0
1, 127680, Note_on_c, 9, 42, 127
1, 127680, Note_on_c, 9, 35, 127
1, 127687, Note_on_c, 9, 42, 0
1, 127920, Note_on_c, 9, 42, 127
1, 127927, Note_on_c, 9, 42, 0
1, 128159, Note_on_c, 9, 35, 0
1, 128160, Note_on_c, 9, 38, 127
1, 128160, Note_on_c, 9, 42, 127
1, 128167, Note_on_c, 9, 42, 0
1, 128399, Note_on_c, 9, 38, 0
1, 128400, Note_on_c, 9, 42, 127
1, 128407, Note_on_c, 9, 42, 0
1, 128640, Note_on_c, 9, 42, 127
1, 128640, Note_on_c, 9, 35, 127
1, 128647, Note_on_c, 9, 42, 0
1, 128880, Note_on_c, 9, 42, 127
1, 128887, Note_on_c, 9, 42, 0
1, 129119, Note_on_c, 9, 35, 0
1, 129120, Note_on_c, 9, 38, 127
1, 129120, Note_on_c, 9, 42, 127
1, 129127, Note_on_c, 9, 42, 0
1, 129359, Note_on_c, 9, 38, 0
1, 129360, Note_on_c, 9, 42, 127
1, 129367, Note_on_c, 9, 42, 0
1, 129600, Note_on_c, 9, 42, 127
1, 129600, Note_on_c, 9, 35, 127
1, 129607, Note_on_c, 9, 42, 0
1, 129840, Note_on_c, 9, 42, 127
1, 129847, Note_on_c, 9, 42, 0
1, 130079, Note_on_c, 9, 35, 0
1, 130080, Note_on_c, 9, 38, 127
1, 130080, Note_on_c, 9, 42, 127
1, 130087, Note_on_c, 9, 42, 0
1, 130319, Note_on_c, 9, 38, 0
1, 130320, Note_on_c, 9, 42, 127
1, 130327, Note_on_c, 9, 42, 0
1, 130560, Note_on_c, 9, 42, 127
1, 130560, Note_on_c, 9, 35, 127
1, 130567, Note_on_c, 9, 42, 0
1, 130800, Note_on_c, 9, 42, 127
1, 130807, Note_on_c, 9, 42, 0
1, 131039, Note_on_c, 9, 35, 0
1, 131040, Note_on_c, 9, 38, 127
1, 131040, Note_on_c, 9, 42, 127
1, 131047, Note_on_c, 9, 42, 0
1, 131279, Note_on_c, 9, 38, 0
1, 131280, Note_on_c, 9, 42, 127
1, 131287, Note_on_c, 9, 42, 0
1, 131520, Note_on_c, 9, 42, 127
1, 131520, Note_on_c, 9, 35, 127
1, 131527, Note_on_c, 9, 42, 0
1, 131760, Note_on_c, 9, 42, 127
1, 131767, Note_on_c, 9, 42, 0
1, 131999, Note_on_c, 9, 35, 0
1, 132000, Note_on_c, 9, 38, 127
1, 132000, Note_on_c, 9, 42, 127
1, 132007, Note_on_c, 9, 42, 0
1, 132239, Note_on_c, 9, 38, 0
1, 132240, Note_on_c, 9, 42, 127
1, 132247, Note_on_c, 9, 42, 0
1, 132480, Note_on_c, 9, 42, 127
1, 132480, Note_on_c, 9, 35, 127
1, 132487, Note_on_c, 9, 42, 0
1, 132720, Note_on_c, 9, 42, 127
1, 132727, Note_on_c, 9, 42, 0
1, 132959, Note_on_c, 9, 35, 0
1, 132960, Note_on_c, 9, 38, 127
1, 132960, Note_on_c, 9, 42, 127
1, 132967, Note_on_c, 9, 42, 0
1, 133199, Note_on_c, 9, 38, 0
1, 133200, Note_on_c, 9, 42, 127
1, 133207, Note_on_c, 9, 42, 0
1, 133440, Note_on_c, 9, 42, 127
1, 133440, Note_on_c, 9, 35, 127
1, 133447, Note_on_c, 9, 42, 0
1, 133680, Note_on_c, 9, 42, 127
1, 133687, Note_on_c, 9, 42, 0
1, 133919, Note_on_c, 9, 35, 0
1, 133920, Note_on_c, 9, 38, 127
1, 133920, Note_on_c, 9, 42, 127
1, 133927, Note_on_c, 9, 42, 0
1, 134159, Note_on_c, 9, 38, 0
1, 134160, Note_on_c, 9, 42, 127
1, 134167, Note_on_c, 9, 42, 0
1, 134400, Note_on_c, 9, 42, 127
1, 134400, Note_on_c, 9, 35, 127
1, 134407, Note_on_c, 9, 42, 0
1, 134640, Note_on_c, 9, 42, 127
1, 134647, Note_on_c, 9, 42, 0
1, 134879, Note_on_c, 9, 35, 0
1, 134880, Note_on_c, 9, 38, 127
1, 134880, Note_on_c, 9, 42, 127
1, 134887, Note_on_c, 9, 42, 0
1, 135119, Note_on_c, 9, 38, 0
1, 135120, Note_on_c, 9, 42, 127
1, 135127, Note_on_c, 9, 42, 0
1, 135360, Note_on_c, 9, 42, 127
1, 135360, Note_on_c, 9, 35, 127
1, 135367, Note_on_c, 9, 42, 0
1, 135600, Note_on_c, 9, 42, 127
1, 135607, Note_on_c, 9, 42, 0
1, 135839, Note_on_c, 9, 35, 0
1, 135840, Note_on_c, 9, 38, 127
1, 135840, Note_on_c, 9, 42, 127
1, 135847, Note_on_c, 9, 42, 0
1, 136079, Note_on_c, 9, 38, 0
1, 136080, Note_on_c, 9, 42, 127
1, 136087, Note_on_c, 9, 42, 0
1, 136320, Note_on_c, 9, 42, 127
1, 136320, Note_on_c, 9, 35, 127
1, 136327, Note_on_c, 9, 42, 0
1, 136560, Note_on_c, 9, 42, 127
1, 136567, Note_on_c, 9, 42, 0
1, 136799, Note_on_c, 9, 35, 0
1, 136800, Note_on_c, 9, 38, 127
1, 136800, Note_on_c, 9, 42, 127
1, 136807, Note_on_c, 9, 42, 0
1, 137039, Note_on_c, 9, 38, 0
1, 137040, Note_on_c, 9, 42, 127
1, 137047, Note_on_c, 9, 42, 0
1, 137280, Note_on_c, 9, 42, 127
1, 137280, Note_on_c, 9, 35, 127
1, 137287, Note_on_c, 9, 42, 0
1, 137520, Note_on_c, 9, 42, 127
1, 137527, Note_on_c, 9, 42, 0
1, 137759, Note_on_c, 9, 35, 0
1, 137760, Note_on_c, 9, 38, 127
1, 137760, Note_on_c, 9, 42, 127
1, 137767, Note_on_c, 9, 42, 0
1, 137999, Note_on_c, 9, 38, 0
1, 138000, Note_on_c, 9, 42, 127
1, 138007, Note_on_c, 9, 42, 0
1, 138240, Note_on_c, 9, 57, 127
1, 138240, Note_on_c, 9, 35, 127
1, 138247, Note_on_c, 9, 57, 0
1, 138479, Note_on_c, 9, 35, 0
1, 138480, Note_on_c, 9, 57, 127
1, 138480, Note_on_c, 9, 35, 127
1, 138487, Note_on_c, 9, 57, 0
1, 138719, Note_on_c, 9, 35, 0
1, 138720, Note_on_c, 9, 38, 127
1, 138959, Note_on_c, 9, 38, 0
1, 138960, Note_on_c, 9, 57, 127
1, 138960, Note_on_c, 9, 35, 127
1, 138967, Note_on_c, 9, 57, 0
1, 139199, Note_on_c, 9, 35, 0
1, 139440, Note_on_c, 9, 57, 127
1, 139440, Note_on_c, 9, 35, 127
1, 139447, Note_on_c, 9, 57, 0
1, 139679, Note_on_c, 9, 35, 0
1, 139680, Note_on_c, 9, 38, 127
1, 139919, Note_on_c, 9, 38, 0
1, 139920, Note_on_c, 9, 57, 127
1, 139920, Note_on_c, 9, 35, 127
1, 139927, Note_on_c, 9, 57, 0
1, 140159, Note_on_c, 9, 35, 0
1, 140400, Note_on_c, 9, 57, 127
1, 140400, Note_on_c, 9, 35, 127
1, 140407, Note_on_c, 9, 57, 0
1, 140639, Note_on_c, 9, 35, 0
1, 140640, Note_on_c, 9, 57, 127
1, 140640, Note_on_c, 9, 35, 127
1, 140656, Note_on_c, 9, 57, 0
1, 141119, Note_on_c, 9, 35, 0
1, 141840, Note_on_c, 9, 57, 127
1, 141840, Note_on_c, 9, 35, 127
1, 141847, Note_on_c, 9, 57, 0
1, 142079, Note_on_c, 9, 35, 0
1, 142320, Note_on_c, 9, 57, 127
1, 142320, Note_on_c, 9, 35, 127
1, 142327, Note_on_c, 9, 57, 0
1, 142559, Note_on_c, 9, 35, 0
1, 142560, Note_on_c, 9, 57, 127
1, 142560, Note_on_c, 9, 35, 127
1, 142576, Note_on_c, 9, 57, 0
1, 143039, Note_on_c, 9, 35, 0
1, 143520, Note_on_c, 9, 43, 127
1, 143999, Note_on_c, 9, 43, 0
1, 144000, Note_on_c, 9, 42, 127
1, 144000, Note_on_c, 9, 57, 127
1, 144000, Note_on_c, 9, 35, 127
1, 144007, Note_on_c, 9, 42, 0
1, 144007, Note_on_c, 9, 57, 0
1, 144240, Note_on_c, 9, 42, 127
1, 144247, Note_on_c, 9, 42, 0
1, 144479, Note_on_c, 9, 35, 0
1, 144480, Note_on_c, 9, 38, 127
1, 144480, Note_on_c, 9, 42, 127
1, 144487, Note_on_c, 9, 42, 0
1, 144719, Note_on_c, 9, 38, 0
1, 144720, Note_on_c, 9, 42, 127
1, 144727, Note_on_c, 9, 42, 0
1, 144960, Note_on_c, 9, 42, 127
1, 144960, Note_on_c, 9, 35, 127
1, 144967, Note_on_c, 9, 42, 0
1, 145200, Note_on_c, 9, 42, 127
1, 145207, Note_on_c, 9, 42, 0
1, 145439, Note_on_c, 9, 35, 0
1, 145440, Note_on_c, 9, 38, 127
1, 145440, Note_on_c, 9, 42, 127
1, 145447, Note_on_c, 9, 42, 0
1, 145679, Note_on_c, 9, 38, 0
1, 145680, Note_on_c, 9, 42, 127
1, 145687, Note_on_c, 9, 42, 0
1, 145920, Note_on_c, 9, 42, 127
1, 145920, Note_on_c, 9, 35, 127
1, 145927, Note_on_c, 9, 42, 0
1, 146160, Note_on_c, 9, 42, 127
1, 146167, Note_on_c, 9, 42, 0
1, 146399, Note_on_c, 9, 35, 0
1, 146400, Note_on_c, 9, 38, 127
1, 146400, Note_on_c, 9, 42, 127
1, 146407, Note_on_c, 9, 42, 0
1, 146639, Note_on_c, 9, 38, 0
1, 146640, Note_on_c, 9, 42, 127
1, 146647, Note_on_c, 9, 42, 0
1, 146880, Note_on_c, 9, 42, 127
1, 146880, Note_on_c, 9, 35, 127
1, 146887, Note_on_c, 9, 42, 0
1, 147120, Note_on_c, 9, 42, 127
1, 147127, Note_on_c, 9, 42, 0
1, 147359, Note_on_c, 9, 35, 0
1, 147360, Note_on_c, 9, 38, 127
1, 147360, Note_on_c, 9, 42, 127
1, 147367, Note_on_c, 9, 42, 0
1, 147599, Note_on_c, 9, 38, 0
1, 147600, Note_on_c, 9, 42, 127
1, 147607, Note_on_c, 9, 42, 0
1, 147840, Note_on_c, 9, 42, 127
1, 147840, Note_on_c, 9, 35, 127
1, 147847, Note_on_c, 9, 42, 0
1, 148080, Note_on_c, 9, 42, 127
1, 148087, Note_on_c, 9, 42, 0
1, 148319, Note_on_c, 9, 35, 0
1, 148320, Note_on_c, 9, 38, 127
1, 148320, Note_on_c, 9, 42, 127
1, 148327, Note_on_c, 9, 42, 0
1, 148559, Note_on_c, 9, 38, 0
1, 148560, Note_on_c, 9, 42, 127
1, 148567, Note_on_c, 9, 42, 0
1, 148800, Note_on_c, 9, 42, 127
1, 148800, Note_on_c, 9, 35, 127
1, 148807, Note_on_c, 9, 42, 0
1, 149040, Note_on_c, 9, 42, 127
1, 149047, Note_on_c, 9, 42, 0
1, 149279, Note_on_c, 9, 35, 0
1, 149280, Note_on_c, 9, 38, 127
1, 149280, Note_on_c, 9, 42, 127
1, 149287, Note_on_c, 9, 42, 0
1, 149519, Note_on_c, 9, 38, 0
1, 149520, Note_on_c, 9, 42, 127
1, 149527, Note_on_c, 9, 42, 0
1, 149760, Note_on_c, 9, 57, 127
1, 149760, Note_on_c, 9, 35, 127
1, 149767, Note_on_c, 9, 57, 0
1, 149999, Note_on_c, 9, 35, 0
1, 150000, Note_on_c, 9, 57, 127
1, 150000, Note_on_c, 9, 35, 127
1, 150007, Note_on_c, 9, 57, 0
1, 150239, Note_on_c, 9, 35, 0
1, 150240, Note_on_c, 9, 38, 127
1, 150479, Note_on_c, 9, 38, 0
1, 150480, Note_on_c, 9, 57, 127
1, 150480, Note_on_c, 9, 35, 127
1, 150487, Note_on_c, 9, 57, 0
1, 150719, Note_on_c, 9, 35, 0
1, 150960, Note_on_c, 9, 57, 127
1, 150960, Note_on_c, 9, 35, 127
1, 150967, Note_on_c, 9, 57, 0
1, 151199, Note_on_c, 9, 35, 0
1, 151200, Note_on_c, 9, 38, 127
1, 151439, Note_on_c, 9, 38, 0
1, 151440, Note_on_c, 9, 57, 127
1, 151440, Note_on_c, 9, 35, 127
1, 151447, Note_on_c, 9, 57, 0
1, 151679, Note_on_c, 9, 35, 0
1, 151680, Note_on_c, 9, 42, 127
1, 151680, Note_on_c, 9, 57, 127
1, 151680, Note_on_c, 9, 35, 127
1, 151687, Note_on_c, 9, 42, 0
1, 151687, Note_on_c, 9, 57, 0
1, 151920, Note_on_c, 9, 42, 127
1, 151927, Note_on_c, 9, 42, 0
1, 152159, Note_on_c, 9, 35, 0
1, 152160, Note_on_c, 9, 38, 127
1, 152160, Note_on_c, 9, 42, 127
1, 152167, Note_on_c, 9, 42, 0
1, 152399, Note_on_c, 9, 38, 0
1, 152400, Note_on_c, 9, 42, 127
1, 152407, Note_on_c, 9, 42, 0
1, 152640, Note_on_c, 9, 42, 127
1, 152640, Note_on_c, 9, 35, 127
1, 152647, Note_on_c, 9, 42, 0
1, 152880, Note_on_c, 9, 42, 127
1, 152887, Note_on_c, 9, 42, 0
1, 153119, Note_on_c, 9, 35, 0
1, 153120, Note_on_c, 9, 38, 127
1, 153120, Note_on_c, 9, 42, 127
1, 153127, Note_on_c, 9, 42, 0
1, 153359, Note_on_c, 9, 38, 0
1, 153360, Note_on_c, 9, 42, 127
1, 153367, Note_on_c, 9, 42, 0
1, 153600, Note_on_c, 9, 42, 127
1, 153600, Note_on_c, 9, 35, 127
1, 153607, Note_on_c, 9, 42, 0
1, 153840, Note_on_c, 9, 42, 127
1, 153847, Note_on_c, 9, 42, 0
1, 154079, Note_on_c, 9, 35, 0
1, 154080, Note_on_c, 9, 38, 127
1, 154080, Note_on_c, 9, 42, 127
1, 154087, Note_on_c, 9, 42, 0
1, 154319, Note_on_c, 9, 38, 0
1, 154320, Note_on_c, 9, 42, 127
1, 154327, Note_on_c, 9, 42, 0
1, 154560, Note_on_c, 9, 42, 127
1, 154560, Note_on_c, 9, 35, 127
1, 154567, Note_on_c, 9, 42, 0
1, 154800, Note_on_c, 9, 42, 127
1, 154807, Note_on_c, 9, 42, 0
1, 155039, Note_on_c, 9, 35, 0
1, 155040, Note_on_c, 9, 38, 127
1, 155040, Note_on_c, 9, 42, 127
1, 155047, Note_on_c, 9, 42, 0
1, 155279, Note_on_c, 9, 38, 0
1, 155280, Note_on_c, 9, 42, 127
1, 155287, Note_on_c, 9, 42, 0
1, 155520, Note_on_c, 9, 42, 127
1, 155520, Note_on_c, 9, 35, 127
1, 155527, Note_on_c, 9, 42, 0
1, 155760, Note_on_c, 9, 42, 127
1, 155767, Note_on_c, 9, 42, 0
1, 155999, Note_on_c, 9, 35, 0
1, 156000, Note_on_c, 9, 38, 127
1, 156000, Note_on_c, 9, 42, 127
1, 156007, Note_on_c, 9, 42, 0
1, 156239, Note_on_c, 9, 38, 0
1, 156240, Note_on_c, 9, 42, 127
1, 156247, Note_on_c, 9, 42, 0
1, 156480, Note_on_c, 9, 42, 127
1, 156480, Note_on_c, 9, 35, 127
1, 156487, Note_on_c, 9, 42, 0
1, 156720, Note_on_c, 9, 42, 127
1, 156727, Note_on_c, 9, 42, 0
1, 156959, Note_on_c, 9, 35, 0
1, 156960, Note_on_c, 9, 38, 127
1, 156960, Note_on_c, 9, 42, 127
1, 156967, Note_on_c, 9, 42, 0
1, 157199, Note_on_c, 9, 38, 0
1, 157200, Note_on_c, 9, 42, 127
1, 157207, Note_on_c, 9, 42, 0
1, 157440, Note_on_c, 9, 57, 127
1, 157440, Note_on_c, 9, 35, 127
1, 157447, Note_on_c, 9, 57, 0
1, 157679, Note_on_c, 9, 35, 0
1, 157680, Note_on_c, 9, 57, 127
1, 157680, Note_on_c, 9, 35, 127
1, 157687, Note_on_c, 9, 57, 0
1, 157919, Note_on_c, 9, 35, 0
1, 157920, Note_on_c, 9, 38, 127
1, 158159, Note_on_c, 9, 38, 0
1, 158160, Note_on_c, 9, 57, 127
1, 158160, Note_on_c, 9, 35, 127
1, 158167, Note_on_c, 9, 57, 0
1, 158399, Note_on_c, 9, 35, 0
1, 158640, Note_on_c, 9, 57, 127
1, 158640, Note_on_c, 9, 35, 127
1, 158647, Note_on_c, 9, 57, 0
1, 158879, Note_on_c, 9, 35, 0
1, 158880, Note_on_c, 9, 38, 127
1, 159119, Note_on_c, 9, 38, 0
1, 159120, Note_on_c, 9, 57, 127
1, 159120, Note_on_c, 9, 35, 127
1, 159127, Note_on_c, 9, 57, 0
1, 159359, Note_on_c, 9, 35, 0
1, 159360, Note_on_c, 9, 42, 127
1, 159360, Note_on_c, 9, 57, 127
1, 159360, Note_on_c, 9, 35, 127
1, 159367, Note_on_c, 9, 42, 0
1, 159367, Note_on_c, 9, 57, 0
1, 159600, Note_on_c, 9, 42, 127
1, 159607, Note_on_c, 9, 42, 0
1, 159839, Note_on_c, 9, 35, 0
1, 159840, Note_on_c, 9, 38, 127
1, 159840, Note_on_c, 9, 42, 127
1, 159847, Note_on_c, 9, 42, 0
1, 160079, Note_on_c, 9, 38, 0
1, 160080, Note_on_c, 9, 42, 127
1, 160087, Note_on_c, 9, 42, 0
1, 160320, Note_on_c, 9, 42, 127
1, 160320, Note_on_c, 9, 35, 127
1, 160327, Note_on_c, 9, 42, 0
1, 160560, Note_on_c, 9, 42, 127
1, 160567, Note_on_c, 9, 42, 0
1, 160799, Note_on_c, 9, 35, 0
1, 160800, Note_on_c, 9, 38, 127
1, 160800, Note_on_c, 9, 42, 127
1, 160807, Note_on_c, 9, 42, 0
1, 161039, Note_on_c, 9, 38, 0
1, 161040, Note_on_c, 9, 42, 127
1, 161047, Note_on_c, 9, 42, 0
1, 161280, Note_on_c, 9, 42, 127
1, 161280, Note_on_c, 9, 35, 127
1, 161287, Note_on_c, 9, 42, 0
1, 161520, Note_on_c, 9, 42, 127
1, 161527, Note_on_c, 9, 42, 0
1, 161759, Note_on_c, 9, 35, 0
1, 161760, Note_on_c, 9, 38, 127
1, 161760, Note_on_c, 9, 42, 127
1, 161767, Note_on_c, 9, 42, 0
1, 161999, Note_on_c, 9, 38, 0
1, 162000, Note_on_c, 9, 42, 127
1, 162007, Note_on_c, 9, 42, 0
1, 162240, Note_on_c, 9, 42, 127
1, 162240, Note_on_c, 9, 35, 127
1, 162247, Note_on_c, 9, 42, 0
1, 162480, Note_on_c, 9, 42, 127
1, 162487, Note_on_c, 9, 42, 0
1, 162719, Note_on_c, 9, 35, 0
1, 162720, Note_on_c, 9, 38, 127
1, 162720, Note_on_c, 9, 42, 127
1, 162727, Note_on_c, 9, 42, 0
1, 162959, Note_on_c, 9, 38, 0
1, 162960, Note_on_c, 9, 42, 127
1, 162967, Note_on_c, 9, 42, 0
1, 163200, Note_on_c, 9, 42, 127
1, 163200, Note_on_c, 9, 35, 127
1, 163207, Note_on_c, 9, 42, 0
1, 163440, Note_on_c, 9, 42, 127
1, 163447, Note_on_c, 9, 42, 0
1, 163679, Note_on_c, 9, 35, 0
1, 163680, Note_on_c, 9, 38, 127
1, 163680, Note_on_c, 9, 42, 127
1, 163687, Note_on_c, 9, 42, 0
1, 163919, Note_on_c, 9, 38, 0
1, 163920, Note_on_c, 9, 42, 127
1, 163927, Note_on_c, 9, 42, 0
1, 164160, Note_on_c, 9, 42, 127
1, 164160, Note_on_c, 9, 35, 127
1, 164167, Note_on_c, 9, 42, 0
1, 164400, Note_on_c, 9, 42, 127
1, 164407, Note_on_c, 9, 42, 0
1, 164639, Note_on_c, 9, 35, 0
1, 164640, Note_on_c, 9, 38, 127
1, 164640, Note_on_c, 9, 42, 127
1, 164647, Note_on_c, 9, 42, 0
1, 164879, Note_on_c, 9, 38, 0
1, 164880, Note_on_c, 9, 42, 127
1, 164887, Note_on_c, 9, 42, 0
1, 165120, Note_on_c, 9, 57, 127
1, 165120, Note_on_c, 9, 35, 127
1, 165127, Note_on_c, 9, 57, 0
1, 165359, Note_on_c, 9, 35, 0
1, 165360, Note_on_c, 9, 57, 127
1, 165360, Note_on_c, 9, 35, 127
1, 165367, Note_on_c, 9, 57, 0
1, 165599, Note_on_c, 9, 35, 0
1, 165600, Note_on_c, 9, 38, 127
1, 165839, Note_on_c, 9, 38, 0
1, 165840, Note_on_c, 9, 57, 127
1, 165840, Note_on_c, 9, 35, 127
1, 165847, Note_on_c, 9, 57, 0
1, 166079, Note_on_c, 9, 35, 0
1, 166320, Note_on_c, 9, 57, 127
1, 166320, Note_on_c, 9, 35, 127
1, 166327, Note_on_c, 9, 57, 0
1, 166559, Note_on_c, 9, 35, 0
1, 166560, Note_on_c, 9, 38, 127
1, 166799, Note_on_c, 9, 38, 0
1, 166800, Note_on_c, 9, 57, 127
1, 166800, Note_on_c, 9, 35, 127
1, 166807, Note_on_c, 9, 57, 0
1, 167039, Note_on_c, 9, 35, 0
1, 167040, Note_on_c, 9, 42, 127
1, 167040, Note_on_c, 9, 57, 127
1, 167040, Note_on_c, 9, 35, 127
1, 167047, Note_on_c, 9, 42, 0
1, 167047, Note_on_c, 9, 57, 0
1, 167280, Note_on_c, 9, 42, 127
1, 167287, Note_on_c, 9, 42, 0
1, 167519, Note_on_c, 9, 35, 0
1, 167520, Note_on_c, 9, 38, 127
1, 167520, Note_on_c, 9, 42, 127
1, 167527, Note_on_c, 9, 42, 0
1, 167759, Note_on_c, 9, 38, 0
1, 167760, Note_on_c, 9, 42, 127
1, 167767, Note_on_c, 9, 42, 0
1, 168000, Note_on_c, 9, 42, 127
1, 168000, Note_on_c, 9, 35, 127
1, 168007, Note_on_c, 9, 42, 0
1, 168240, Note_on_c, 9, 42, 127
1, 168247, Note_on_c, 9, 42, 0
1, 168479, Note_on_c, 9, 35, 0
1, 168480, Note_on_c, 9, 38, 127
1, 168480, Note_on_c, 9, 42, 127
1, 168487, Note_on_c, 9, 42, 0
1, 168719, Note_on_c, 9, 38, 0
1, 168720, Note_on_c, 9, 42, 127
1, 168727, Note_on_c, 9, 42, 0
1, 168960, Note_on_c, 9, 42, 127
1, 168960, Note_on_c, 9, 35, 127
1, 168967, Note_on_c, 9, 42, 0
1, 169200, Note_on_c, 9, 42, 127
1, 169207, Note_on_c, 9, 42, 0
1, 169439, Note_on_c, 9, 35, 0
1, 169440, Note_on_c, 9, 38, 127
1, 169440, Note_on_c, 9, 42, 127
1, 169447, Note_on_c, 9, 42, 0
1, 169679, Note_on_c, 9, 38, 0
1, 169680, Note_on_c, 9, 42, 127
1, 169687, Note_on_c, 9, 42, 0
1, 169920, Note_on_c, 9, 42, 127
1, 169920, Note_on_c, 9, 35, 127
1, 169927, Note_on_c, 9, 42, 0
1, 170160, Note_on_c, 9, 42, 127
1, 170167, Note_on_c, 9, 42, 0
1, 170399, Note_on_c, 9, 35, 0
1, 170400, Note_on_c, 9, 38, 127
1, 170400, Note_on_c, 9, 42, 127
1, 170407, Note_on_c, 9, 42, 0
1, 170639, Note_on_c, 9, 38, 0
1, 170640, Note_on_c, 9, 42, 127
1, 170647, Note_on_c, 9, 42, 0
1, 170880, Note_on_c, 9, 42, 127
1, 170880, Note_on_c, 9, 35, 127
1, 170887, Note_on_c, 9, 42, 0
1, 171120, Note_on_c, 9, 42, 127
1, 171127, Note_on_c, 9, 42, 0
1, 171359, Note_on_c, 9, 35, 0
1, 171360, Note_on_c, 9, 38, 127
1, 171360, Note_on_c, 9, 42, 127
1, 171367, Note_on_c, 9, 42, 0
1, 171599, Note_on_c, 9, 38, 0
1, 171600, Note_on_c, 9, 42, 127
1, 171607, Note_on_c, 9, 42, 0
1, 171840, Note_on_c, 9, 42, 127
1, 171840, Note_on_c, 9, 35, 127
1, 171847, Note_on_c, 9, 42, 0
1, 172080, Note_on_c, 9, 42, 127
1, 172087, Note_on_c, 9, 42, 0
1, 172319, Note_on_c, 9, 35, 0
1, 172320, Note_on_c, 9, 38, 127
1, 172320, Note_on_c, 9, 42, 127
1, 172327, Note_on_c, 9, 42, 0
1, 172559, Note_on_c, 9, 38, 0
1, 172560, Note_on_c, 9, 42, 127
1, 172567, Note_on_c, 9, 42, 0
1, 172800, Note_on_c, 9, 57, 127
1, 172800, Note_on_c, 9, 35, 127
1, 172807, Note_on_c, 9, 57, 0
1, 173039, Note_on_c, 9, 35, 0
1, 173040, Note_on_c, 9, 57, 127
1, 173040, Note_on_c, 9, 35, 127
1, 173047, Note_on_c, 9, 57, 0
1, 173279, Note_on_c, 9, 35, 0
1, 173280, Note_on_c, 9, 38, 127
1, 173519, Note_on_c, 9, 38, 0
1, 173520, Note_on_c, 9, 57, 127
1, 173520, Note_on_c, 9, 35, 127
1, 173527, Note_on_c, 9, 57, 0
1, 173759, Note_on_c, 9, 35, 0
1, 174000, Note_on_c, 9, 57, 127
1, 174000, Note_on_c, 9, 35, 127
1, 174007, Note_on_c, 9, 57, 0
1, 174239, Note_on_c, 9, 35, 0
1, 174240, Note_on_c, 9, 38, 127
1, 174479, Note_on_c, 9, 38, 0
1, 174480, Note_on_c, 9, 57, 127
1, 174480, Note_on_c, 9, 35, 127
1, 174487, Note_on_c, 9, 57, 0
1, 174719, Note_on_c, 9, 35, 0
1, 174720, Note_on_c, 9, 42, 127
1, 174720, Note_on_c, 9, 57, 127
1, 174720, Note_on_c, 9, 35, 127
1, 174727, Note_on_c, 9, 42, 0
1, 174727, Note_on_c, 9, 57, 0
1, 174960, Note_on_c, 9, 42, 127
1, 174967, Note_on_c, 9, 42, 0
1, 175199, Note_on_c, 9, 35, 0
1, 175200, Note_on_c, 9, 38, 127
1, 175200, Note_on_c, 9, 42, 127
1, 175207, Note_on_c, 9, 42, 0
1, 175439, Note_on_c, 9, 38, 0
1, 175440, Note_on_c, 9, 42, 127
1, 175447, Note_on_c, 9, 42, 0
1, 175680, Note_on_c, 9, 42, 127
1, 175680, Note_on_c, 9, 35, 127
1, 175687, Note_on_c, 9, 42, 0
1, 175920, Note_on_c, 9, 42, 127
1, 175927, Note_on_c, 9, 42, 0
1, 176159, Note_on_c, 9, 35, 0
1, 176160, Note_on_c, 9, 38, 127
1, 176160, Note_on_c, 9, 42, 127
1, 176167, Note_on_c, 9, 42, 0
1, 176399, Note_on_c, 9, 38, 0
1, 176400, Note_on_c, 9, 42, 127
1, 176407, Note_on_c, 9, 42, 0
1, 176640, Note_on_c, 9, 42, 127
1, 176640, Note_on_c, 9, 35, 127
1, 176647, Note_on_c, 9, 42, 0
1, 176880, Note_on_c, 9, 42, 127
1, 176887, Note_on_c, 9, 42, 0
1, 177119, Note_on_c, 9, 35, 0
1, 177120, Note_on_c, 9, 38, 127
1, 177120, Note_on_c, 9, 42, 127
1, 177127, Note_on_c, 9, 42, 0
1, 177359, Note_on_c, 9, 38, 0
1, 177360, Note_on_c, 9, 42, 127
1, 177367, Note_on_c, 9, 42, 0
1, 177600, Note_on_c, 9, 42, 127
1, 177600, Note_on_c, 9, 35, 127
1, 177607, Note_on_c, 9, 42, 0
1, 177840, Note_on_c, 9, 42, 127
1, 177847, Note_on_c, 9, 42, 0
1, 178079, Note_on_c, 9, 35, 0
1, 178080, Note_on_c, 9, 38, 127
1, 178080, Note_on_c, 9, 42, 127
1, 178087, Note_on_c, 9, 42, 0
1, 178319, Note_on_c, 9, 38, 0
1, 178320, Note_on_c, 9, 42, 127
1, 178327, Note_on_c, 9, 42, 0
1, 178560, Note_on_c, 9, 42, 127
1, 178560, Note_on_c, 9, 35, 127
1, 178567, Note_on_c, 9, 42, 0
1, 178800, Note_on_c, 9, 42, 127
1, 178807, Note_on_c, 9, 42, 0
1, 179039, Note_on_c, 9, 35, 0
1, 179040, Note_on_c, 9, 38, 127
1, 179040, Note_on_c, 9, 42, 127
1, 179047, Note_on_c, 9, 42, 0
1, 179279, Note_on_c, 9, 38, 0
1, 179280, Note_on_c, 9, 42, 127
1, 179287, Note_on_c, 9, 42, 0
1, 179520, Note_on_c, 9, 42, 127
1, 179520, Note_on_c, 9, 35, 127
1, 179527, Note_on_c, 9, 42, 0
1, 179760, Note_on_c, 9, 42, 127
1, 179767, Note_on_c, 9, 42, 0
1, 179999, Note_on_c, 9, 35, 0
1, 180000, Note_on_c, 9, 38, 127
1, 180000, Note_on_c, 9, 42, 127
1, 180007, Note_on_c, 9, 42, 0
1, 180239, Note_on_c, 9, 38, 0
1, 180240, Note_on_c, 9, 42, 127
1, 180247, Note_on_c, 9, 42, 0
1, 180480, Note_on_c, 9, 57, 127
1, 180480, Note_on_c, 9, 35, 127
1, 180487, Note_on_c, 9, 57, 0
1, 180719, Note_on_c, 9, 35, 0
1, 180720, Note_on_c, 9, 57, 127
1, 180720, Note_on_c, 9, 35, 127
1, 180727, Note_on_c, 9, 57, 0
1, 180959, Note_on_c, 9, 35, 0
1, 180960, Note_on_c, 9, 38, 127
1, 181199, Note_on_c, 9, 38, 0
1, 181200, Note_on_c, 9, 57, 127
1, 181200, Note_on_c, 9, 35, 127
1, 181207, Note_on_c, 9, 57, 0
1, 181439, Note_on_c, 9, 35, 0
1, 181680, Note_on_c, 9, 57, 127
1, 181680, Note_on_c, 9, 35, 127
1, 181687, Note_on_c, 9, 57, 0
1, 181919, Note_on_c, 9, 35, 0
1, 181920, Note_on_c, 9, 38, 127
1, 182159, Note_on_c, 9, 38, 0
1, 182160, Note_on_c, 9, 57, 127
1, 182160, Note_on_c, 9, 35, 127
1, 182167, Note_on_c, 9, 57, 0
1, 182399, Note_on_c, 9, 35, 0
1, 182400, Note_on_c, 9, 42, 127
1, 182400, Note_on_c, 9, 57, 127
1, 182400, Note_on_c, 9, 35, 127
1, 182407, Note_on_c, 9, 42, 0
1, 182407, Note_on_c, 9, 57, 0
1, 182640, Note_on_c, 9, 42, 127
1, 182647, Note_on_c, 9, 42, 0
1, 182879, Note_on_c, 9, 35, 0
1, 182880, Note_on_c, 9, 38, 127
1, 182880, Note_on_c, 9, 42, 127
1, 182887, Note_on_c, 9, 42, 0
1, 183119, Note_on_c, 9, 38, 0
1, 183120, Note_on_c, 9, 42, 127
1, 183127, Note_on_c, 9, 42, 0
1, 183360, Note_on_c, 9, 42, 127
1, 183360, Note_on_c, 9, 35, 127
1, 183367, Note_on_c, 9, 42, 0
1, 183600, Note_on_c, 9, 42, 127
1, 183607, Note_on_c, 9, 42, 0
1, 183839, Note_on_c, 9, 35, 0
1, 183840, Note_on_c, 9, 38, 127
1, 183840, Note_on_c, 9, 42, 127
1, 183847, Note_on_c, 9, 42, 0
1, 184079, Note_on_c, 9, 38, 0
1, 184080, Note_on_c, 9, 42, 127
1, 184087, Note_on_c, 9, 42, 0
1, 184320, Note_on_c, 9, 42, 127
1, 184320, Note_on_c, 9, 35, 127
1, 184327, Note_on_c, 9, 42, 0
1, 184560, Note_on_c, 9, 42, 127
1, 184567, Note_on_c, 9, 42, 0
1, 184799, Note_on_c, 9, 35, 0
1, 184800, Note_on_c, 9, 38, 127
1, 184800, Note_on_c, 9, 42, 127
1, 184807, Note_on_c, 9, 42, 0
1, 185039, Note_on_c, 9, 38, 0
1, 185040, Note_on_c, 9, 42, 127
1, 185047, Note_on_c, 9, 42, 0
1, 185280, Note_on_c, 9, 42, 127
1, 185280, Note_on_c, 9, 35, 127
1, 185287, Note_on_c, 9, 42, 0
1, 185520, Note_on_c, 9, 42, 127
1, 185527, Note_on_c, 9, 42, 0
1, 185759, Note_on_c, 9, 35, 0
1, 185760, Note_on_c, 9, 38, 127
1, 185760, Note_on_c, 9, 42, 127
1, 185767, Note_on_c, 9, 42, 0
1, 185999, Note_on_c, 9, 38, 0
1, 186000, Note_on_c, 9, 42, 127
1, 186007, Note_on_c, 9, 42, 0
1, 186240, Note_on_c, 9, 42, 127
1, 186240, Note_on_c, 9, 35, 127
1, 186247, Note_on_c, 9, 42, 0
1, 186480, Note_on_c, 9, 42, 127
1, 186487, Note_on_c, 9, 42, 0
1, 186719, Note_on_c, 9, 35, 0
1, 186720, Note_on_c, 9, 38, 127
1, 186720, Note_on_c, 9, 42, 127
1, 186727, Note_on_c, 9, 42, 0
1, 186959, Note_on_c, 9, 38, 0
1, 186960, Note_on_c, 9, 42, 127
1, 186967, Note_on_c, 9, 42, 0
1, 187200, Note_on_c, 9, 42, 127
1, 187200, Note_on_c, 9, 35, 127
1, 187207, Note_on_c, 9, 42, 0
1, 187440, Note_on_c, 9, 42, 127
1, 187447, Note_on_c, 9, 42, 0
1, 187679, Note_on_c, 9, 35, 0
1, 187680, Note_on_c, 9, 38, 127
1, 187680, Note_on_c, 9, 42, 127
1, 187687, Note_on_c, 9, 42, 0
1, 187919, Note_on_c, 9, 38, 0
1, 187920, Note_on_c, 9, 42, 127
1, 187927, Note_on_c, 9, 42, 0
1, 188160, Note_on_c, 9, 57, 127
1, 188160, Note_on_c, 9, 35, 127
1, 188167, Note_on_c, 9, 57, 0
1, 188399, Note_on_c, 9, 35, 0
1, 188400, Note_on_c, 9, 57, 127
1, 188400, Note_on_c, 9, 35, 127
1, 188407, Note_on_c, 9, 57, 0
1, 188639, Note_on_c, 9, 35, 0
1, 188640, Note_on_c, 9, 38, 127
1, 188879, Note_on_c, 9, 38, 0
1, 188880, Note_on_c, 9, 57, 127
1, 188880, Note_on_c, 9, 35, 127
1, 188887, Note_on_c, 9, 57, 0
1, 189119, Note_on_c, 9, 35, 0
1, 189360, Note_on_c, 9, 57, 127
1, 189360, Note_on_c, 9, 35, 127
1, 189367, Note_on_c, 9, 57, 0
1, 189599, Note_on_c, 9, 35, 0
1, 189600, Note_on_c, 9, 38, 127
1, 189839, Note_on_c, 9, 38, 0
1, 189840, Note_on_c, 9, 57, 127
1, 189840, Note_on_c, 9, 35, 127
1, 189847, Note_on_c, 9, 57, 0
1, 190079, Note_on_c, 9, 35, 0
1, 190080, Note_on_c, 9, 42, 127
1, 190080, Note_on_c, 9, 57, 127
1, 190080, Note_on_c, 9, 35, 127
1, 190096, Note_on_c, 9, 42, 0
1, 190096, Note_on_c, 9, 57, 0
1, 190559, Note_on_c, 9, 35, 0
1, 190560, End_track
0, 0, End_of_file
