0, 0, Header, 1, 1, 480
1, 0, Start_track
1, 0, Title_t, "Drumset"
1, 0, Time_signature, 4, 2, 24, 8
1, 0, Key_signature, 0, "major"
1, 0, Tempo, 500000
1, 0, Control_c, 9, 121, 0
1, 0, Program_c, 9, 0
1, 0, Control_c, 9, 7, 100
1, 0, Control_c, 9, 10, 64
1, 0, Control_c, 9, 91, 0
1, 0, Control_c, 9, 93, 0
1, 0, MIDI_port, 0
1, 0, Note_on_c, 9, 41, 125
1, 0, Note_on_c, 9, 45, 125
1, 0, Note_on_c, 9, 35, 115
1, 479, Note_on_c, 9, 41, 0
1, 479, Note_on_c, 9, 45, 0
1, 479, Note_on_c, 9, 35, 0
1, 480, Note_on_c, 9, 41, 125
1, 480, Note_on_c, 9, 35, 115
1, 495, Note_on_c, 9, 45, 125
1, 554, Note_on_c, 9, 45, 0
1, 959, Note_on_c, 9, 41, 0
1, 959, Note_on_c, 9, 35, 0
1, 1200, Note_on_c, 9, 42, 90
1, 1210, Note_on_c, 9, 42, 0
1, 1440, Note_on_c, 9, 42, 90
1, 1450, Note_on_c, 9, 42, 0
1, 1680, Note_on_c, 9, 42, 90
1, 1690, Note_on_c, 9, 42, 0
1, 1920, Note_on_c, 9, 42, 90
1, 1920, Note_on_c, 9, 35, 105
1, 1930, Note_on_c, 9, 42, 0
1, 2160, Note_on_c, 9, 42, 90
1, 2170, Note_on_c, 9, 42, 0
1, 2399, Note_on_c, 9, 35, 0
1, 2400, Note_on_c, 9, 42, 90
1, 2410, Note_on_c, 9, 42, 0
1, 2640, Note_on_c, 9, 42, 90
1, 2640, Note_on_c, 9, 35, 105
1, 2650, Note_on_c, 9, 42, 0
1, 2879, Note_on_c, 9, 35, 0
1, 2880, Note_on_c, 9, 42, 90
1, 2880, Note_on_c, 9, 35, 105
1, 2890, Note_on_c, 9, 42, 0
1, 3119, Note_on_c, 9, 35, 0
1, 3120, Note_on_c, 9, 46, 60
1, 3120, Note_on_c, 9, 42, 90
1, 3120, Note_on_c, 9, 35, 105
1, 3130, Note_on_c, 9, 46, 0
1, 3130, Note_on_c, 9, 42, 0
1, 3359, Note_on_c, 9, 35, 0
1, 3360, Note_on_c, 9, 42, 90
1, 3370, Note_on_c, 9, 42, 0
1, 3600, Note_on_c, 9, 46, 60
1, 3600, Note_on_c, 9, 42, 90
1, 3600, Note_on_c, 9, 35, 105
1, 3610, Note_on_c, 9, 46, 0
1, 3610, Note_on_c, 9, 42, 0
1, 3839, Note_on_c, 9, 35, 0
1, 3840, Note_on_c, 9, 41, 125
1, 3840, Note_on_c, 9, 35, 105
1, 3855, Note_on_c, 9, 45, 125
1, 3914, Note_on_c, 9, 45, 0
1, 4079, Note_on_c, 9, 35, 0
1, 4080, Note_on_c, 9, 35, 105
1, 4319, Note_on_c, 9, 41, 0
1, 4319, Note_on_c, 9, 35, 0
1, 4320, Note_on_c, 9, 41, 125
1, 4320, Note_on_c, 9, 35, 105
1, 4335, Note_on_c, 9, 45, 125
1, 4394, Note_on_c, 9, 45, 0
1, 4799, Note_on_c, 9, 41, 0
1, 4799, Note_on_c, 9, 35, 0
1, 5040, Note_on_c, 9, 42, 90
1, 5050, Note_on_c, 9, 42, 0
1, 5280, Note_on_c, 9, 40, 115
1, 5280, Note_on_c, 9, 42, 90
1, 5290, Note_on_c, 9, 42, 0
1, 5519, Note_on_c, 9, 40, 0
1, 5520, Note_on_c, 9, 42, 90
1, 5520, Note_on_c, 9, 35, 115
1, 5530, Note_on_c, 9, 42, 0
1, 5759, Note_on_c, 9, 35, 0
1, 5760, Note_on_c, 9, 42, 90
1, 5760, Note_on_c, 9, 35, 115
1, 5770, Note_on_c, 9, 42, 0
1, 6000, Note_on_c, 9, 42, 90
1, 6010, Note_on_c, 9, 42, 0
1, 6239, Note_on_c, 9, 35, 0
1, 6240, Note_on_c, 9, 40, 115
1, 6240, Note_on_c, 9, 42, 90
1, 6250, Note_on_c, 9, 42, 0
1, 6479, Note_on_c, 9, 40, 0
1, 6480, Note_on_c, 9, 42, 90
1, 6480, Note_on_c, 9, 35, 115
1, 6490, Note_on_c, 9, 42, 0
1, 6719, Note_on_c, 9, 35, 0
1, 6720, Note_on_c, 9, 42, 90
1, 6720, Note_on_c, 9, 35, 115
1, 6724, Note_on_c, 9, 42, 0
1, 6840, Note_on_c, 9, 42, 90
1, 6844, Note_on_c, 9, 42, 0
1, 6959, Note_on_c, 9, 35, 0
1, 6960, Note_on_c, 9, 42, 90
1, 6960, Note_on_c, 9, 35, 115
1, 6964, Note_on_c, 9, 42, 0
1, 7080, Note_on_c, 9, 42, 90
1, 7084, Note_on_c, 9, 42, 0
1, 7199, Note_on_c, 9, 35, 0
1, 7200, Note_on_c, 9, 40, 115
1, 7200, Note_on_c, 9, 42, 90
1, 7204, Note_on_c, 9, 42, 0
1, 7319, Note_on_c, 9, 40, 0
1, 7320, Note_on_c, 9, 42, 90
1, 7324, Note_on_c, 9, 42, 0
1, 7440, Note_on_c, 9, 42, 90
1, 7440, Note_on_c, 9, 35, 115
1, 7444, Note_on_c, 9, 42, 0
1, 7560, Note_on_c, 9, 42, 90
1, 7564, Note_on_c, 9, 42, 0
1, 7679, Note_on_c, 9, 35, 0
1, 7680, Note_on_c, 9, 41, 125
1, 7680, Note_on_c, 9, 40, 115
1, 7680, Note_on_c, 9, 35, 115
1, 7695, Note_on_c, 9, 45, 125
1, 7754, Note_on_c, 9, 45, 0
1, 8159, Note_on_c, 9, 41, 0
1, 8159, Note_on_c, 9, 40, 0
1, 8159, Note_on_c, 9, 35, 0
1, 10800, Note_on_c, 9, 35, 115
1, 11039, Note_on_c, 9, 35, 0
1, 11040, Note_on_c, 9, 40, 115
1, 11059, Note_on_c, 9, 40, 0
1, 11060, Note_on_c, 9, 40, 115
1, 11099, Note_on_c, 9, 40, 0
1, 11280, Note_on_c, 9, 42, 90
1, 11290, Note_on_c, 9, 42, 0
1, 11520, Note_on_c, 9, 42, 90
1, 11520, Note_on_c, 9, 35, 115
1, 11530, Note_on_c, 9, 42, 0
1, 11760, Note_on_c, 9, 42, 90
1, 11770, Note_on_c, 9, 42, 0
1, 11999, Note_on_c, 9, 35, 0
1, 12000, Note_on_c, 9, 40, 115
1, 12000, Note_on_c, 9, 42, 90
1, 12010, Note_on_c, 9, 42, 0
1, 12239, Note_on_c, 9, 40, 0
1, 12240, Note_on_c, 9, 42, 90
1, 12250, Note_on_c, 9, 42, 0
1, 12480, Note_on_c, 9, 42, 90
1, 12480, Note_on_c, 9, 35, 115
1, 12490, Note_on_c, 9, 42, 0
1, 12720, Note_on_c, 9, 42, 90
1, 12730, Note_on_c, 9, 42, 0
1, 12959, Note_on_c, 9, 35, 0
1, 12960, Note_on_c, 9, 40, 115
1, 12960, Note_on_c, 9, 42, 90
1, 12970, Note_on_c, 9, 42, 0
1, 13199, Note_on_c, 9, 40, 0
1, 13200, Note_on_c, 9, 42, 90
1, 13210, Note_on_c, 9, 42, 0
1, 13440, Note_on_c, 9, 42, 90
1, 13440, Note_on_c, 9, 35, 115
1, 13450, Note_on_c, 9, 42, 0
1, 13680, Note_on_c, 9, 42, 90
1, 13690, Note_on_c, 9, 42, 0
1, 13919, Note_on_c, 9, 35, 0
1, 13920, Note_on_c, 9, 40, 115
1, 13920, Note_on_c, 9, 42, 90
1, 13930, Note_on_c, 9, 42, 0
1, 14159, Note_on_c, 9, 40, 0
1, 14160, Note_on_c, 9, 42, 90
1, 14170, Note_on_c, 9, 42, 0
1, 14400, Note_on_c, 9, 42, 90
1, 14400, Note_on_c, 9, 35, 115
1, 14410, Note_on_c, 9, 42, 0
1, 14639, Note_on_c, 9, 35, 0
1, 14640, Note_on_c, 9, 42, 90
1, 14640, Note_on_c, 9, 35, 115
1, 14650, Note_on_c, 9, 42, 0
1, 14879, Note_on_c, 9, 35, 0
1, 14880, Note_on_c, 9, 40, 115
1, 14880, Note_on_c, 9, 42, 90
1, 14890, Note_on_c, 9, 42, 0
1, 15119, Note_on_c, 9, 40, 0
1, 15120, Note_on_c, 9, 42, 90
1, 15130, Note_on_c, 9, 42, 0
1, 15360, Note_on_c, 9, 42, 90
1, 15360, Note_on_c, 9, 35, 115
1, 15370, Note_on_c, 9, 42, 0
1, 15600, Note_on_c, 9, 42, 90
1, 15610, Note_on_c, 9, 42, 0
1, 15839, Note_on_c, 9, 35, 0
1, 15840, Note_on_c, 9, 40, 115
1, 15840, Note_on_c, 9, 42, 90
1, 15850, Note_on_c, 9, 42, 0
1, 16079, Note_on_c, 9, 40, 0
1, 16080, Note_on_c, 9, 42, 90
1, 16090, Note_on_c, 9, 42, 0
1, 16320, Note_on_c, 9, 42, 90
1, 16320, Note_on_c, 9, 35, 115
1, 16330, Note_on_c, 9, 42, 0
1, 16560, Note_on_c, 9, 42, 90
1, 16570, Note_on_c, 9, 42, 0
1, 16799, Note_on_c, 9, 35, 0
1, 16800, Note_on_c, 9, 40, 115
1, 16800, Note_on_c, 9, 42, 90
1, 16810, Note_on_c, 9, 42, 0
1, 17039, Note_on_c, 9, 40, 0
1, 17040, Note_on_c, 9, 42, 90
1, 17050, Note_on_c, 9, 42, 0
1, 17280, Note_on_c, 9, 42, 90
1, 17280, Note_on_c, 9, 35, 115
1, 17290, Note_on_c, 9, 42, 0
1, 17520, Note_on_c, 9, 42, 90
1, 17530, Note_on_c, 9, 42, 0
1, 17759, Note_on_c, 9, 35, 0
1, 17760, Note_on_c, 9, 40, 115
1, 17760, Note_on_c, 9, 42, 90
1, 17770, Note_on_c, 9, 42, 0
1, 17999, Note_on_c, 9, 40, 0
1, 18000, Note_on_c, 9, 42, 90
1, 18010, Note_on_c, 9, 42, 0
1, 18240, Note_on_c, 9, 42, 90
1, 18240, Note_on_c, 9, 35, 115
1, 18250, Note_on_c, 9, 42, 0
1, 18479, Note_on_c, 9, 35, 0
1, 18480, Note_on_c, 9, 42, 90
1, 18480, Note_on_c, 9, 35, 115
1, 18490, Note_on_c, 9, 42, 0
1, 18719, Note_on_c, 9, 35, 0
1, 18720, Note_on_c, 9, 40, 115
1, 18720, Note_on_c, 9, 42, 90
1, 18730, Note_on_c, 9, 42, 0
1, 18959, Note_on_c, 9, 40, 0
1, 18960, Note_on_c, 9, 42, 90
1, 18970, Note_on_c, 9, 42, 0
1, 19200, Note_on_c, 9, 42, 90
1, 19200, Note_on_c, 9, 35, 115
1, 19210, Note_on_c, 9, 42, 0
1, 19440, Note_on_c, 9, 42, 90
1, 19450, Note_on_c, 9, 42, 0
1, 19679, Note_on_c, 9, 35, 0
1, 19680, Note_on_c, 9, 40, 115
1, 19680, Note_on_c, 9, 42, 90
1, 19690, Note_on_c, 9, 42, 0
1, 19919, Note_on_c, 9, 40, 0
1, 19920, Note_on_c, 9, 42, 90
1, 19930, Note_on_c, 9, 42, 0
1, 20160, Note_on_c, 9, 42, 90
1, 20160, Note_on_c, 9, 35, 115
1, 20170, Note_on_c, 9, 42, 0
1, 20400, Note_on_c, 9, 42, 90
1, 20410, Note_on_c, 9, 42, 0
1, 20639, Note_on_c, 9, 35, 0
1, 20640, Note_on_c, 9, 40, 115
1, 20640, Note_on_c, 9, 42, 90
1, 20650, Note_on_c, 9, 42, 0
1, 20879, Note_on_c, 9, 40, 0
1, 20880, Note_on_c, 9, 42, 90
1, 20890, Note_on_c, 9, 42, 0
1, 21120, Note_on_c, 9, 42, 90
1, 21120, Note_on_c, 9, 35, 115
1, 21130, Note_on_c, 9, 42, 0
1, 21360, Note_on_c, 9, 42, 90
1, 21370, Note_on_c, 9, 42, 0
1, 21599, Note_on_c, 9, 35, 0
1, 21600, Note_on_c, 9, 40, 115
1, 21600, Note_on_c, 9, 42, 90
1, 21610, Note_on_c, 9, 42, 0
1, 21839, Note_on_c, 9, 40, 0
1, 21840, Note_on_c, 9, 42, 90
1, 21850, Note_on_c, 9, 42, 0
1, 22080, Note_on_c, 9, 42, 90
1, 22080, Note_on_c, 9, 35, 115
1, 22090, Note_on_c, 9, 42, 0
1, 22319, Note_on_c, 9, 35, 0
1, 22320, Note_on_c, 9, 42, 90
1, 22320, Note_on_c, 9, 35, 115
1, 22330, Note_on_c, 9, 42, 0
1, 22559, Note_on_c, 9, 35, 0
1, 22560, Note_on_c, 9, 40, 115
1, 22560, Note_on_c, 9, 46, 60
1, 22560, Note_on_c, 9, 42, 90
1, 22570, Note_on_c, 9, 46, 0
1, 22570, Note_on_c, 9, 42, 0
1, 22799, Note_on_c, 9, 40, 0
1, 22800, Note_on_c, 9, 42, 90
1, 22810, Note_on_c, 9, 42, 0
1, 23040, Note_on_c, 9, 42, 90
1, 23040, Note_on_c, 9, 35, 115
1, 23050, Note_on_c, 9, 42, 0
1, 23280, Note_on_c, 9, 42, 90
1, 23290, Note_on_c, 9, 42, 0
1, 23519, Note_on_c, 9, 35, 0
1, 23520, Note_on_c, 9, 40, 115
1, 23520, Note_on_c, 9, 42, 90
1, 23530, Note_on_c, 9, 42, 0
1, 23759, Note_on_c, 9, 40, 0
1, 23760, Note_on_c, 9, 42, 90
1, 23770, Note_on_c, 9, 42, 0
1, 24000, Note_on_c, 9, 42, 90
1, 24000, Note_on_c, 9, 35, 115
1, 24010, Note_on_c, 9, 42, 0
1, 24240, Note_on_c, 9, 42, 90
1, 24250, Note_on_c, 9, 42, 0
1, 24479, Note_on_c, 9, 35, 0
1, 24480, Note_on_c, 9, 40, 115
1, 24480, Note_on_c, 9, 42, 90
1, 24490, Note_on_c, 9, 42, 0
1, 24719, Note_on_c, 9, 40, 0
1, 24720, Note_on_c, 9, 42, 90
1, 24730, Note_on_c, 9, 42, 0
1, 24960, Note_on_c, 9, 42, 90
1, 24960, Note_on_c, 9, 35, 115
1, 24970, Note_on_c, 9, 42, 0
1, 25200, Note_on_c, 9, 42, 90
1, 25210, Note_on_c, 9, 42, 0
1, 25439, Note_on_c, 9, 35, 0
1, 25440, Note_on_c, 9, 40, 115
1, 25440, Note_on_c, 9, 42, 90
1, 25450, Note_on_c, 9, 42, 0
1, 25679, Note_on_c, 9, 40, 0
1, 25680, Note_on_c, 9, 42, 90
1, 25690, Note_on_c, 9, 42, 0
1, 25920, Note_on_c, 9, 42, 90
1, 25920, Note_on_c, 9, 35, 115
1, 25930, Note_on_c, 9, 42, 0
1, 26159, Note_on_c, 9, 35, 0
1, 26160, Note_on_c, 9, 42, 90
1, 26160, Note_on_c, 9, 35, 115
1, 26170, Note_on_c, 9, 42, 0
1, 26399, Note_on_c, 9, 35, 0
1, 26400, Note_on_c, 9, 40, 115
1, 26400, Note_on_c, 9, 42, 90
1, 26410, Note_on_c, 9, 42, 0
1, 26639, Note_on_c, 9, 40, 0
1, 26640, Note_on_c, 9, 42, 90
1, 26650, Note_on_c, 9, 42, 0
1, 26880, Note_on_c, 9, 42, 90
1, 26880, Note_on_c, 9, 35, 115
1, 26890, Note_on_c, 9, 42, 0
1, 27120, Note_on_c, 9, 42, 90
1, 27130, Note_on_c, 9, 42, 0
1, 27359, Note_on_c, 9, 35, 0
1, 27360, Note_on_c, 9, 40, 115
1, 27360, Note_on_c, 9, 42, 90
1, 27370, Note_on_c, 9, 42, 0
1, 27599, Note_on_c, 9, 40, 0
1, 27600, Note_on_c, 9, 42, 90
1, 27610, Note_on_c, 9, 42, 0
1, 27840, Note_on_c, 9, 42, 90
1, 27840, Note_on_c, 9, 35, 115
1, 27850, Note_on_c, 9, 42, 0
1, 28080, Note_on_c, 9, 42, 90
1, 28090, Note_on_c, 9, 42, 0
1, 28319, Note_on_c, 9, 35, 0
1, 28320, Note_on_c, 9, 40, 115
1, 28320, Note_on_c, 9, 42, 90
1, 28330, Note_on_c, 9, 42, 0
1, 28559, Note_on_c, 9, 40, 0
1, 28560, Note_on_c, 9, 42, 90
1, 28570, Note_on_c, 9, 42, 0
1, 28800, Note_on_c, 9, 42, 90
1, 28800, Note_on_c, 9, 35, 115
1, 28810, Note_on_c, 9, 42, 0
1, 29040, Note_on_c, 9, 42, 90
1, 29050, Note_on_c, 9, 42, 0
1, 29279, Note_on_c, 9, 35, 0
1, 29280, Note_on_c, 9, 40, 115
1, 29280, Note_on_c, 9, 42, 90
1, 29290, Note_on_c, 9, 42, 0
1, 29519, Note_on_c, 9, 40, 0
1, 29520, Note_on_c, 9, 42, 90
1, 29530, Note_on_c, 9, 42, 0
1, 29760, Note_on_c, 9, 42, 90
1, 29760, Note_on_c, 9, 35, 115
1, 29770, Note_on_c, 9, 42, 0
1, 29999, Note_on_c, 9, 35, 0
1, 30000, Note_on_c, 9, 42, 90
1, 30000, Note_on_c, 9, 35, 115
1, 30010, Note_on_c, 9, 42, 0
1, 30239, Note_on_c, 9, 35, 0
1, 30240, Note_on_c, 9, 40, 115
1, 30240, Note_on_c, 9, 42, 90
1, 30250, Note_on_c, 9, 42, 0
1, 30479, Note_on_c, 9, 40, 0
1, 30480, Note_on_c, 9, 42, 90
1, 30490, Note_on_c, 9, 42, 0
1, 30720, Note_on_c, 9, 41, 125
1, 30720, Note_on_c, 9, 35, 115
1, 30735, Note_on_c, 9, 45, 125
1, 30794, Note_on_c, 9, 45, 0
1, 31199, Note_on_c, 9, 41, 0
1, 31199, Note_on_c, 9, 35, 0
1, 31200, Note_on_c, 9, 41, 125
1, 31200, Note_on_c, 9, 35, 115
1, 31215, Note_on_c, 9, 45, 125
1, 31274, Note_on_c, 9, 45, 0
1, 31679, Note_on_c, 9, 41, 0
1, 31679, Note_on_c, 9, 35, 0
1, 32640, Note_on_c, 9, 49, 100
1, 32640, Note_on_c, 9, 35, 115
1, 32662, Note_on_c, 9, 49, 0
1, 33119, Note_on_c, 9, 35, 0
1, 33120, Note_on_c, 9, 40, 115
1, 33120, Note_on_c, 9, 46, 60
1, 33130, Note_on_c, 9, 46, 0
1, 33359, Note_on_c, 9, 40, 0
1, 33360, Note_on_c, 9, 46, 60
1, 33370, Note_on_c, 9, 46, 0
1, 33600, Note_on_c, 9, 46, 60
1, 33600, Note_on_c, 9, 35, 115
1, 33610, Note_on_c, 9, 46, 0
1, 33840, Note_on_c, 9, 46, 60
1, 33850, Note_on_c, 9, 46, 0
1, 34079, Note_on_c, 9, 35, 0
1, 34080, Note_on_c, 9, 40, 115
1, 34080, Note_on_c, 9, 46, 60
1, 34090, Note_on_c, 9, 46, 0
1, 34319, Note_on_c, 9, 40, 0
1, 34320, Note_on_c, 9, 46, 60
1, 34330, Note_on_c, 9, 46, 0
1, 34560, Note_on_c, 9, 46, 60
1, 34560, Note_on_c, 9, 35, 115
1, 34570, Note_on_c, 9, 46, 0
1, 34800, Note_on_c, 9, 46, 60
1, 34810, Note_on_c, 9, 46, 0
1, 35039, Note_on_c, 9, 35, 0
1, 35040, Note_on_c, 9, 40, 115
1, 35040, Note_on_c, 9, 46, 60
1, 35050, Note_on_c, 9, 46, 0
1, 35279, Note_on_c, 9, 40, 0
1, 35280, Note_on_c, 9, 46, 60
1, 35290, Note_on_c, 9, 46, 0
1, 35520, Note_on_c, 9, 46, 60
1, 35520, Note_on_c, 9, 35, 115
1, 35530, Note_on_c, 9, 46, 0
1, 35759, Note_on_c, 9, 35, 0
1, 35760, Note_on_c, 9, 46, 60
1, 35760, Note_on_c, 9, 35, 115
1, 35770, Note_on_c, 9, 46, 0
1, 35999, Note_on_c, 9, 35, 0
1, 36000, Note_on_c, 9, 40, 115
1, 36000, Note_on_c, 9, 46, 60
1, 36010, Note_on_c, 9, 46, 0
1, 36239, Note_on_c, 9, 40, 0
1, 36240, Note_on_c, 9, 46, 60
1, 36250, Note_on_c, 9, 46, 0
1, 36480, Note_on_c, 9, 46, 60
1, 36480, Note_on_c, 9, 35, 115
1, 36490, Note_on_c, 9, 46, 0
1, 36720, Note_on_c, 9, 46, 60
1, 36730, Note_on_c, 9, 46, 0
1, 36959, Note_on_c, 9, 35, 0
1, 36960, Note_on_c, 9, 40, 115
1, 36960, Note_on_c, 9, 46, 60
1, 36970, Note_on_c, 9, 46, 0
1, 37199, Note_on_c, 9, 40, 0
1, 37200, Note_on_c, 9, 46, 60
1, 37210, Note_on_c, 9, 46, 0
1, 37440, Note_on_c, 9, 46, 60
1, 37440, Note_on_c, 9, 35, 115
1, 37450, Note_on_c, 9, 46, 0
1, 37680, Note_on_c, 9, 46, 60
1, 37690, Note_on_c, 9, 46, 0
1, 37919, Note_on_c, 9, 35, 0
1, 37920, Note_on_c, 9, 40, 115
1, 37920, Note_on_c, 9, 46, 60
1, 37930, Note_on_c, 9, 46, 0
1, 38159, Note_on_c, 9, 40, 0
1, 38160, Note_on_c, 9, 46, 60
1, 38170, Note_on_c, 9, 46, 0
1, 38400, Note_on_c, 9, 46, 60
1, 38400, Note_on_c, 9, 35, 115
1, 38410, Note_on_c, 9, 46, 0
1, 38640, Note_on_c, 9, 46, 60
1, 38650, Note_on_c, 9, 46, 0
1, 38879, Note_on_c, 9, 35, 0
1, 38880, Note_on_c, 9, 40, 115
1, 38880, Note_on_c, 9, 46, 60
1, 38890, Note_on_c, 9, 46, 0
1, 39119, Note_on_c, 9, 40, 0
1, 39120, Note_on_c, 9, 46, 60
1, 39130, Note_on_c, 9, 46, 0
1, 39360, Note_on_c, 9, 46, 60
1, 39360, Note_on_c, 9, 35, 115
1, 39370, Note_on_c, 9, 46, 0
1, 39599, Note_on_c, 9, 35, 0
1, 39600, Note_on_c, 9, 46, 60
1, 39600, Note_on_c, 9, 35, 115
1, 39610, Note_on_c, 9, 46, 0
1, 39839, Note_on_c, 9, 35, 0
1, 39840, Note_on_c, 9, 40, 115
1, 39840, Note_on_c, 9, 46, 60
1, 39850, Note_on_c, 9, 46, 0
1, 40079, Note_on_c, 9, 40, 0
1, 40080, Note_on_c, 9, 46, 60
1, 40090, Note_on_c, 9, 46, 0
1, 40320, Note_on_c, 9, 46, 60
1, 40320, Note_on_c, 9, 35, 115
1, 40330, Note_on_c, 9, 46, 0
1, 40560, Note_on_c, 9, 46, 60
1, 40570, Note_on_c, 9, 46, 0
1, 40799, Note_on_c, 9, 35, 0
1, 40800, Note_on_c, 9, 40, 115
1, 40800, Note_on_c, 9, 46, 60
1, 40810, Note_on_c, 9, 46, 0
1, 41039, Note_on_c, 9, 40, 0
1, 41040, Note_on_c, 9, 46, 60
1, 41050, Note_on_c, 9, 46, 0
1, 41280, Note_on_c, 9, 46, 60
1, 41280, Note_on_c, 9, 35, 115
1, 41290, Note_on_c, 9, 46, 0
1, 41520, Note_on_c, 9, 46, 60
1, 41530, Note_on_c, 9, 46, 0
1, 41759, Note_on_c, 9, 35, 0
1, 41760, Note_on_c, 9, 40, 115
1, 41760, Note_on_c, 9, 46, 60
1, 41770, Note_on_c, 9, 46, 0
1, 41999, Note_on_c, 9, 40, 0
1, 42000, Note_on_c, 9, 46, 60
1, 42010, Note_on_c, 9, 46, 0
1, 42240, Note_on_c, 9, 46, 60
1, 42240, Note_on_c, 9, 35, 115
1, 42250, Note_on_c, 9, 46, 0
1, 42480, Note_on_c, 9, 46, 60
1, 42490, Note_on_c, 9, 46, 0
1, 42719, Note_on_c, 9, 35, 0
1, 42720, Note_on_c, 9, 40, 115
1, 42720, Note_on_c, 9, 46, 60
1, 42730, Note_on_c, 9, 46, 0
1, 42959, Note_on_c, 9, 40, 0
1, 42960, Note_on_c, 9, 46, 60
1, 42970, Note_on_c, 9, 46, 0
1, 43200, Note_on_c, 9, 46, 60
1, 43200, Note_on_c, 9, 35, 115
1, 43210, Note_on_c, 9, 46, 0
1, 43439, Note_on_c, 9, 35, 0
1, 43440, Note_on_c, 9, 46, 60
1, 43440, Note_on_c, 9, 35, 115
1, 43450, Note_on_c, 9, 46, 0
1, 43679, Note_on_c, 9, 35, 0
1, 43680, Note_on_c, 9, 40, 115
1, 43680, Note_on_c, 9, 46, 60
1, 43690, Note_on_c, 9, 46, 0
1, 43919, Note_on_c, 9, 40, 0
1, 43920, Note_on_c, 9, 46, 60
1, 43930, Note_on_c, 9, 46, 0
1, 44160, Note_on_c, 9, 46, 60
1, 44160, Note_on_c, 9, 35, 115
1, 44170, Note_on_c, 9, 46, 0
1, 44400, Note_on_c, 9, 46, 60
1, 44410, Note_on_c, 9, 46, 0
1, 44639, Note_on_c, 9, 35, 0
1, 44640, Note_on_c, 9, 40, 115
1, 44640, Note_on_c, 9, 46, 60
1, 44650, Note_on_c, 9, 46, 0
1, 44879, Note_on_c, 9, 40, 0
1, 44880, Note_on_c, 9, 46, 60
1, 44890, Note_on_c, 9, 46, 0
1, 45120, Note_on_c, 9, 46, 60
1, 45120, Note_on_c, 9, 35, 115
1, 45130, Note_on_c, 9, 46, 0
1, 45360, Note_on_c, 9, 46, 60
1, 45370, Note_on_c, 9, 46, 0
1, 45599, Note_on_c, 9, 35, 0
1, 45600, Note_on_c, 9, 40, 115
1, 45600, Note_on_c, 9, 46, 60
1, 45610, Note_on_c, 9, 46, 0
1, 45839, Note_on_c, 9, 40, 0
1, 45840, Note_on_c, 9, 46, 60
1, 45850, Note_on_c, 9, 46, 0
1, 46080, Note_on_c, 9, 46, 60
1, 46080, Note_on_c, 9, 35, 115
1, 46090, Note_on_c, 9, 46, 0
1, 46320, Note_on_c, 9, 46, 60
1, 46330, Note_on_c, 9, 46, 0
1, 46559, Note_on_c, 9, 35, 0
1, 46560, Note_on_c, 9, 40, 115
1, 46560, Note_on_c, 9, 46, 60
1, 46570, Note_on_c, 9, 46, 0
1, 46799, Note_on_c, 9, 40, 0
1, 46800, Note_on_c, 9, 46, 60
1, 46810, Note_on_c, 9, 46, 0
1, 47040, Note_on_c, 9, 46, 60
1, 47040, Note_on_c, 9, 35, 115
1, 47050, Note_on_c, 9, 46, 0
1, 47279, Note_on_c, 9, 35, 0
1, 47280, Note_on_c, 9, 46, 60
1, 47280, Note_on_c, 9, 35, 115
1, 47290, Note_on_c, 9, 46, 0
1, 47519, Note_on_c, 9, 35, 0
1, 47520, Note_on_c, 9, 40, 115
1, 47520, Note_on_c, 9, 46, 60
1, 47530, Note_on_c, 9, 46, 0
1, 47759, Note_on_c, 9, 40, 0
1, 47760, Note_on_c, 9, 46, 60
1, 47770, Note_on_c, 9, 46, 0
1, 48000, Note_on_c, 9, 49, 100
1, 48000, Note_on_c, 9, 35, 115
1, 48022, Note_on_c, 9, 49, 0
1, 48479, Note_on_c, 9, 35, 0
1, 48480, Note_on_c, 9, 40, 115
1, 48480, Note_on_c, 9, 46, 60
1, 48490, Note_on_c, 9, 46, 0
1, 48719, Note_on_c, 9, 40, 0
1, 48720, Note_on_c, 9, 46, 60
1, 48730, Note_on_c, 9, 46, 0
1, 48960, Note_on_c, 9, 46, 60
1, 48960, Note_on_c, 9, 35, 115
1, 48970, Note_on_c, 9, 46, 0
1, 49200, Note_on_c, 9, 46, 60
1, 49210, Note_on_c, 9, 46, 0
1, 49439, Note_on_c, 9, 35, 0
1, 49440, Note_on_c, 9, 40, 115
1, 49440, Note_on_c, 9, 46, 60
1, 49450, Note_on_c, 9, 46, 0
1, 49679, Note_on_c, 9, 40, 0
1, 49680, Note_on_c, 9, 46, 60
1, 49690, Note_on_c, 9, 46, 0
1, 49920, Note_on_c, 9, 46, 60
1, 49920, Note_on_c, 9, 35, 115
1, 49930, Note_on_c, 9, 46, 0
1, 50160, Note_on_c, 9, 46, 60
1, 50170, Note_on_c, 9, 46, 0
1, 50399, Note_on_c, 9, 35, 0
1, 50400, Note_on_c, 9, 40, 115
1, 50400, Note_on_c, 9, 46, 60
1, 50410, Note_on_c, 9, 46, 0
1, 50639, Note_on_c, 9, 40, 0
1, 50640, Note_on_c, 9, 46, 60
1, 50650, Note_on_c, 9, 46, 0
1, 50880, Note_on_c, 9, 46, 60
1, 50880, Note_on_c, 9, 35, 115
1, 50890, Note_on_c, 9, 46, 0
1, 51119, Note_on_c, 9, 35, 0
1, 51120, Note_on_c, 9, 46, 60
1, 51120, Note_on_c, 9, 35, 115
1, 51130, Note_on_c, 9, 46, 0
1, 51359, Note_on_c, 9, 35, 0
1, 51360, Note_on_c, 9, 40, 115
1, 51360, Note_on_c, 9, 46, 60
1, 51370, Note_on_c, 9, 46, 0
1, 51599, Note_on_c, 9, 40, 0
1, 51600, Note_on_c, 9, 46, 60
1, 51610, Note_on_c, 9, 46, 0
1, 51840, Note_on_c, 9, 46, 60
1, 51840, Note_on_c, 9, 35, 115
1, 51850, Note_on_c, 9, 46, 0
1, 52080, Note_on_c, 9, 46, 60
1, 52090, Note_on_c, 9, 46, 0
1, 52319, Note_on_c, 9, 35, 0
1, 52320, Note_on_c, 9, 40, 115
1, 52320, Note_on_c, 9, 46, 60
1, 52330, Note_on_c, 9, 46, 0
1, 52559, Note_on_c, 9, 40, 0
1, 52560, Note_on_c, 9, 46, 60
1, 52570, Note_on_c, 9, 46, 0
1, 52800, Note_on_c, 9, 46, 60
1, 52800, Note_on_c, 9, 35, 115
1, 52810, Note_on_c, 9, 46, 0
1, 53040, Note_on_c, 9, 46, 60
1, 53050, Note_on_c, 9, 46, 0
1, 53279, Note_on_c, 9, 35, 0
1, 53280, Note_on_c, 9, 40, 115
1, 53280, Note_on_c, 9, 46, 60
1, 53290, Note_on_c, 9, 46, 0
1, 53519, Note_on_c, 9, 40, 0
1, 53520, Note_on_c, 9, 46, 60
1, 53530, Note_on_c, 9, 46, 0
1, 53760, Note_on_c, 9, 46, 60
1, 53760, Note_on_c, 9, 35, 115
1, 53770, Note_on_c, 9, 46, 0
1, 54000, Note_on_c, 9, 46, 60
1, 54010, Note_on_c, 9, 46, 0
1, 54239, Note_on_c, 9, 35, 0
1, 54240, Note_on_c, 9, 40, 115
1, 54240, Note_on_c, 9, 46, 60
1, 54250, Note_on_c, 9, 46, 0
1, 54479, Note_on_c, 9, 40, 0
1, 54480, Note_on_c, 9, 46, 60
1, 54490, Note_on_c, 9, 46, 0
1, 54720, Note_on_c, 9, 46, 60
1, 54720, Note_on_c, 9, 35, 115
1, 54730, Note_on_c, 9, 46, 0
1, 54959, Note_on_c, 9, 35, 0
1, 54960, Note_on_c, 9, 46, 60
1, 54960, Note_on_c, 9, 35, 115
1, 54970, Note_on_c, 9, 46, 0
1, 55199, Note_on_c, 9, 35, 0
1, 55200, Note_on_c, 9, 40, 115
1, 55200, Note_on_c, 9, 46, 60
1, 55210, Note_on_c, 9, 46, 0
1, 55439, Note_on_c, 9, 40, 0
1, 55440, Note_on_c, 9, 46, 60
1, 55450, Note_on_c, 9, 46, 0
1, 55680, Note_on_c, 9, 46, 60
1, 55680, Note_on_c, 9, 35, 115
1, 55690, Note_on_c, 9, 46, 0
1, 55920, Note_on_c, 9, 46, 60
1, 55930, Note_on_c, 9, 46, 0
1, 56159, Note_on_c, 9, 35, 0
1, 56160, Note_on_c, 9, 40, 115
1, 56160, Note_on_c, 9, 46, 60
1, 56170, Note_on_c, 9, 46, 0
1, 56399, Note_on_c, 9, 40, 0
1, 56400, Note_on_c, 9, 46, 60
1, 56410, Note_on_c, 9, 46, 0
1, 56640, Note_on_c, 9, 46, 60
1, 56640, Note_on_c, 9, 35, 115
1, 56650, Note_on_c, 9, 46, 0
1, 56880, Note_on_c, 9, 46, 60
1, 56890, Note_on_c, 9, 46, 0
1, 57119, Note_on_c, 9, 35, 0
1, 57120, Note_on_c, 9, 40, 115
1, 57120, Note_on_c, 9, 46, 60
1, 57130, Note_on_c, 9, 46, 0
1, 57359, Note_on_c, 9, 40, 0
1, 57360, Note_on_c, 9, 46, 60
1, 57370, Note_on_c, 9, 46, 0
1, 57600, Note_on_c, 9, 46, 60
1, 57600, Note_on_c, 9, 35, 115
1, 57610, Note_on_c, 9, 46, 0
1, 57840, Note_on_c, 9, 46, 60
1, 57850, Note_on_c, 9, 46, 0
1, 58079, Note_on_c, 9, 35, 0
1, 58080, Note_on_c, 9, 40, 115
1, 58080, Note_on_c, 9, 46, 60
1, 58090, Note_on_c, 9, 46, 0
1, 58319, Note_on_c, 9, 40, 0
1, 58320, Note_on_c, 9, 46, 60
1, 58330, Note_on_c, 9, 46, 0
1, 58560, Note_on_c, 9, 46, 60
1, 58560, Note_on_c, 9, 35, 115
1, 58570, Note_on_c, 9, 46, 0
1, 58799, Note_on_c, 9, 35, 0
1, 58800, Note_on_c, 9, 46, 60
1, 58800, Note_on_c, 9, 35, 115
1, 58810, Note_on_c, 9, 46, 0
1, 59039, Note_on_c, 9, 35, 0
1, 59040, Note_on_c, 9, 40, 115
1, 59040, Note_on_c, 9, 46, 60
1, 59050, Note_on_c, 9, 46, 0
1, 59279, Note_on_c, 9, 40, 0
1, 59280, Note_on_c, 9, 46, 60
1, 59290, Note_on_c, 9, 46, 0
1, 59520, Note_on_c, 9, 46, 60
1, 59520, Note_on_c, 9, 35, 115
1, 59530, Note_on_c, 9, 46, 0
1, 59760, Note_on_c, 9, 46, 60
1, 59770, Note_on_c, 9, 46, 0
1, 59999, Note_on_c, 9, 35, 0
1, 60000, Note_on_c, 9, 40, 115
1, 60000, Note_on_c, 9, 46, 60
1, 60010, Note_on_c, 9, 46, 0
1, 60239, Note_on_c, 9, 40, 0
1, 60240, Note_on_c, 9, 46, 60
1, 60250, Note_on_c, 9, 46, 0
1, 60480, Note_on_c, 9, 46, 60
1, 60480, Note_on_c, 9, 35, 115
1, 60490, Note_on_c, 9, 46, 0
1, 60720, Note_on_c, 9, 46, 60
1, 60730, Note_on_c, 9, 46, 0
1, 60959, Note_on_c, 9, 35, 0
1, 60960, Note_on_c, 9, 40, 115
1, 60960, Note_on_c, 9, 46, 60
1, 60970, Note_on_c, 9, 46, 0
1, 61199, Note_on_c, 9, 40, 0
1, 61200, Note_on_c, 9, 46, 60
1, 61210, Note_on_c, 9, 46, 0
1, 61440, Note_on_c, 9, 46, 60
1, 61440, Note_on_c, 9, 35, 115
1, 61450, Note_on_c, 9, 46, 0
1, 61680, Note_on_c, 9, 46, 60
1, 61690, Note_on_c, 9, 46, 0
1, 61919, Note_on_c, 9, 35, 0
1, 61920, Note_on_c, 9, 40, 115
1, 61920, Note_on_c, 9, 46, 60
1, 61930, Note_on_c, 9, 46, 0
1, 62159, Note_on_c, 9, 40, 0
1, 62160, Note_on_c, 9, 46, 60
1, 62170, Note_on_c, 9, 46, 0
1, 62400, Note_on_c, 9, 46, 60
1, 62400, Note_on_c, 9, 35, 115
1, 62410, Note_on_c, 9, 46, 0
1, 62639, Note_on_c, 9, 35, 0
1, 62640, Note_on_c, 9, 46, 60
1, 62640, Note_on_c, 9, 35, 115
1, 62650, Note_on_c, 9, 46, 0
1, 62879, Note_on_c, 9, 35, 0
1, 62880, Note_on_c, 9, 40, 115
1, 62880, Note_on_c, 9, 46, 60
1, 62890, Note_on_c, 9, 46, 0
1, 63119, Note_on_c, 9, 40, 0
1, 63120, Note_on_c, 9, 46, 60
1, 63130, Note_on_c, 9, 46, 0
1, 63360, Note_on_c, 9, 41, 125
1, 63360, Note_on_c, 9, 35, 115
1, 63375, Note_on_c, 9, 45, 125
1, 63434, Note_on_c, 9, 45, 0
1, 63839, Note_on_c, 9, 41, 0
1, 63839, Note_on_c, 9, 35, 0
1, 63840, Note_on_c, 9, 41, 125
1, 63840, Note_on_c, 9, 35, 115
1, 63855, Note_on_c, 9, 45, 125
1, 63914, Note_on_c, 9, 45, 0
1, 64079, Note_on_c, 9, 41, 0
1, 64080, Note_on_c, 9, 42, 90
1, 64090, Note_on_c, 9, 42, 0
1, 64319, Note_on_c, 9, 35, 0
1, 64320, Note_on_c, 9, 42, 90
1, 64320, Note_on_c, 9, 35, 115
1, 64330, Note_on_c, 9, 42, 0
1, 64560, Note_on_c, 9, 42, 90
1, 64570, Note_on_c, 9, 42, 0
1, 64799, Note_on_c, 9, 35, 0
1, 64800, Note_on_c, 9, 40, 115
1, 64800, Note_on_c, 9, 42, 90
1, 64810, Note_on_c, 9, 42, 0
1, 65039, Note_on_c, 9, 40, 0
1, 65040, Note_on_c, 9, 42, 90
1, 65040, Note_on_c, 9, 35, 115
1, 65050, Note_on_c, 9, 42, 0
1, 65279, Note_on_c, 9, 35, 0
1, 65280, Note_on_c, 9, 42, 90
1, 65280, Note_on_c, 9, 35, 115
1, 65290, Note_on_c, 9, 42, 0
1, 65520, Note_on_c, 9, 42, 90
1, 65530, Note_on_c, 9, 42, 0
1, 65759, Note_on_c, 9, 35, 0
1, 65760, Note_on_c, 9, 40, 115
1, 65760, Note_on_c, 9, 42, 90
1, 65770, Note_on_c, 9, 42, 0
1, 65999, Note_on_c, 9, 40, 0
1, 66000, Note_on_c, 9, 42, 90
1, 66000, Note_on_c, 9, 35, 115
1, 66010, Note_on_c, 9, 42, 0
1, 66239, Note_on_c, 9, 35, 0
1, 66240, Note_on_c, 9, 42, 90
1, 66240, Note_on_c, 9, 35, 115
1, 66250, Note_on_c, 9, 42, 0
1, 66480, Note_on_c, 9, 42, 90
1, 66490, Note_on_c, 9, 42, 0
1, 66719, Note_on_c, 9, 35, 0
1, 66720, Note_on_c, 9, 40, 115
1, 66720, Note_on_c, 9, 42, 90
1, 66730, Note_on_c, 9, 42, 0
1, 66959, Note_on_c, 9, 40, 0
1, 66960, Note_on_c, 9, 42, 90
1, 66960, Note_on_c, 9, 35, 115
1, 66970, Note_on_c, 9, 42, 0
1, 67199, Note_on_c, 9, 35, 0
1, 67200, Note_on_c, 9, 41, 125
1, 67200, Note_on_c, 9, 35, 115
1, 67215, Note_on_c, 9, 45, 125
1, 67274, Note_on_c, 9, 45, 0
1, 67679, Note_on_c, 9, 41, 0
1, 67679, Note_on_c, 9, 35, 0
1, 67680, Note_on_c, 9, 41, 125
1, 67695, Note_on_c, 9, 45, 125
1, 67754, Note_on_c, 9, 45, 0
1, 67919, Note_on_c, 9, 41, 0
1, 67920, Note_on_c, 9, 42, 90
1, 67930, Note_on_c, 9, 42, 0
1, 68160, Note_on_c, 9, 42, 90
1, 68160, Note_on_c, 9, 35, 115
1, 68170, Note_on_c, 9, 42, 0
1, 68400, Note_on_c, 9, 42, 90
1, 68410, Note_on_c, 9, 42, 0
1, 68639, Note_on_c, 9, 35, 0
1, 68640, Note_on_c, 9, 40, 115
1, 68640, Note_on_c, 9, 42, 90
1, 68650, Note_on_c, 9, 42, 0
1, 68879, Note_on_c, 9, 40, 0
1, 68880, Note_on_c, 9, 42, 90
1, 68880, Note_on_c, 9, 35, 115
1, 68890, Note_on_c, 9, 42, 0
1, 69119, Note_on_c, 9, 35, 0
1, 69120, Note_on_c, 9, 42, 90
1, 69120, Note_on_c, 9, 35, 115
1, 69130, Note_on_c, 9, 42, 0
1, 69360, Note_on_c, 9, 42, 90
1, 69370, Note_on_c, 9, 42, 0
1, 69599, Note_on_c, 9, 35, 0
1, 69600, Note_on_c, 9, 40, 115
1, 69600, Note_on_c, 9, 42, 90
1, 69610, Note_on_c, 9, 42, 0
1, 69839, Note_on_c, 9, 40, 0
1, 69840, Note_on_c, 9, 42, 90
1, 69850, Note_on_c, 9, 42, 0
1, 70080, Note_on_c, 9, 42, 90
1, 70080, Note_on_c, 9, 35, 115
1, 70090, Note_on_c, 9, 42, 0
1, 70319, Note_on_c, 9, 35, 0
1, 70320, Note_on_c, 9, 42, 90
1, 70320, Note_on_c, 9, 35, 115
1, 70330, Note_on_c, 9, 42, 0
1, 70559, Note_on_c, 9, 35, 0
1, 70560, Note_on_c, 9, 40, 115
1, 70560, Note_on_c, 9, 42, 90
1, 70560, Note_on_c, 9, 35, 115
1, 70570, Note_on_c, 9, 42, 0
1, 70799, Note_on_c, 9, 40, 0
1, 70799, Note_on_c, 9, 35, 0
1, 70800, Note_on_c, 9, 42, 90
1, 70800, Note_on_c, 9, 35, 115
1, 70810, Note_on_c, 9, 42, 0
1, 71039, Note_on_c, 9, 35, 0
1, 71040, Note_on_c, 9, 41, 125
1, 71040, Note_on_c, 9, 40, 115
1, 71040, Note_on_c, 9, 35, 115
1, 71055, Note_on_c, 9, 45, 125
1, 71114, Note_on_c, 9, 45, 0
1, 71519, Note_on_c, 9, 41, 0
1, 71519, Note_on_c, 9, 40, 0
1, 71519, Note_on_c, 9, 35, 0
1, 74160, Note_on_c, 9, 35, 115
1, 74399, Note_on_c, 9, 35, 0
1, 74400, Note_on_c, 9, 40, 115
1, 74419, Note_on_c, 9, 40, 0
1, 74420, Note_on_c, 9, 40, 115
1, 74459, Note_on_c, 9, 40, 0
1, 74880, Note_on_c, 9, 42, 90
1, 74880, Note_on_c, 9, 35, 115
1, 74890, Note_on_c, 9, 42, 0
1, 75120, Note_on_c, 9, 42, 90
1, 75130, Note_on_c, 9, 42, 0
1, 75359, Note_on_c, 9, 35, 0
1, 75360, Note_on_c, 9, 40, 115
1, 75360, Note_on_c, 9, 42, 90
1, 75370, Note_on_c, 9, 42, 0
1, 75599, Note_on_c, 9, 40, 0
1, 75600, Note_on_c, 9, 42, 90
1, 75610, Note_on_c, 9, 42, 0
1, 75840, Note_on_c, 9, 42, 90
1, 75840, Note_on_c, 9, 35, 115
1, 75850, Note_on_c, 9, 42, 0
1, 76080, Note_on_c, 9, 42, 90
1, 76090, Note_on_c, 9, 42, 0
1, 76319, Note_on_c, 9, 35, 0
1, 76320, Note_on_c, 9, 40, 115
1, 76320, Note_on_c, 9, 42, 90
1, 76330, Note_on_c, 9, 42, 0
1, 76559, Note_on_c, 9, 40, 0
1, 76560, Note_on_c, 9, 42, 90
1, 76570, Note_on_c, 9, 42, 0
1, 76800, Note_on_c, 9, 42, 90
1, 76800, Note_on_c, 9, 35, 115
1, 76810, Note_on_c, 9, 42, 0
1, 77040, Note_on_c, 9, 42, 90
1, 77050, Note_on_c, 9, 42, 0
1, 77279, Note_on_c, 9, 35, 0
1, 77280, Note_on_c, 9, 40, 115
1, 77280, Note_on_c, 9, 42, 90
1, 77290, Note_on_c, 9, 42, 0
1, 77519, Note_on_c, 9, 40, 0
1, 77520, Note_on_c, 9, 42, 90
1, 77530, Note_on_c, 9, 42, 0
1, 77760, Note_on_c, 9, 42, 90
1, 77760, Note_on_c, 9, 35, 115
1, 77770, Note_on_c, 9, 42, 0
1, 77999, Note_on_c, 9, 35, 0
1, 78000, Note_on_c, 9, 42, 90
1, 78000, Note_on_c, 9, 35, 115
1, 78010, Note_on_c, 9, 42, 0
1, 78239, Note_on_c, 9, 35, 0
1, 78240, Note_on_c, 9, 40, 115
1, 78240, Note_on_c, 9, 42, 90
1, 78250, Note_on_c, 9, 42, 0
1, 78479, Note_on_c, 9, 40, 0
1, 78480, Note_on_c, 9, 42, 90
1, 78490, Note_on_c, 9, 42, 0
1, 78720, Note_on_c, 9, 42, 90
1, 78720, Note_on_c, 9, 35, 115
1, 78730, Note_on_c, 9, 42, 0
1, 78960, Note_on_c, 9, 42, 90
1, 78970, Note_on_c, 9, 42, 0
1, 79199, Note_on_c, 9, 35, 0
1, 79200, Note_on_c, 9, 40, 115
1, 79200, Note_on_c, 9, 42, 90
1, 79210, Note_on_c, 9, 42, 0
1, 79439, Note_on_c, 9, 40, 0
1, 79440, Note_on_c, 9, 42, 90
1, 79450, Note_on_c, 9, 42, 0
1, 79680, Note_on_c, 9, 42, 90
1, 79680, Note_on_c, 9, 35, 115
1, 79690, Note_on_c, 9, 42, 0
1, 79920, Note_on_c, 9, 42, 90
1, 79930, Note_on_c, 9, 42, 0
1, 80159, Note_on_c, 9, 35, 0
1, 80160, Note_on_c, 9, 40, 115
1, 80160, Note_on_c, 9, 42, 90
1, 80170, Note_on_c, 9, 42, 0
1, 80399, Note_on_c, 9, 40, 0
1, 80400, Note_on_c, 9, 42, 90
1, 80410, Note_on_c, 9, 42, 0
1, 80640, Note_on_c, 9, 42, 90
1, 80640, Note_on_c, 9, 35, 115
1, 80650, Note_on_c, 9, 42, 0
1, 80880, Note_on_c, 9, 42, 90
1, 80890, Note_on_c, 9, 42, 0
1, 81119, Note_on_c, 9, 35, 0
1, 81120, Note_on_c, 9, 40, 115
1, 81120, Note_on_c, 9, 42, 90
1, 81130, Note_on_c, 9, 42, 0
1, 81359, Note_on_c, 9, 40, 0
1, 81360, Note_on_c, 9, 42, 90
1, 81370, Note_on_c, 9, 42, 0
1, 81600, Note_on_c, 9, 42, 90
1, 81600, Note_on_c, 9, 35, 115
1, 81610, Note_on_c, 9, 42, 0
1, 81839, Note_on_c, 9, 35, 0
1, 81840, Note_on_c, 9, 42, 90
1, 81840, Note_on_c, 9, 35, 115
1, 81850, Note_on_c, 9, 42, 0
1, 82079, Note_on_c, 9, 35, 0
1, 82080, Note_on_c, 9, 40, 115
1, 82080, Note_on_c, 9, 46, 60
1, 82080, Note_on_c, 9, 42, 90
1, 82090, Note_on_c, 9, 46, 0
1, 82090, Note_on_c, 9, 42, 0
1, 82319, Note_on_c, 9, 40, 0
1, 82320, Note_on_c, 9, 42, 90
1, 82330, Note_on_c, 9, 42, 0
1, 82560, Note_on_c, 9, 42, 90
1, 82560, Note_on_c, 9, 35, 115
1, 82570, Note_on_c, 9, 42, 0
1, 82800, Note_on_c, 9, 42, 90
1, 82810, Note_on_c, 9, 42, 0
1, 83039, Note_on_c, 9, 35, 0
1, 83040, Note_on_c, 9, 40, 115
1, 83040, Note_on_c, 9, 42, 90
1, 83050, Note_on_c, 9, 42, 0
1, 83279, Note_on_c, 9, 40, 0
1, 83280, Note_on_c, 9, 42, 90
1, 83290, Note_on_c, 9, 42, 0
1, 83520, Note_on_c, 9, 42, 90
1, 83520, Note_on_c, 9, 35, 115
1, 83530, Note_on_c, 9, 42, 0
1, 83760, Note_on_c, 9, 42, 90
1, 83770, Note_on_c, 9, 42, 0
1, 83999, Note_on_c, 9, 35, 0
1, 84000, Note_on_c, 9, 40, 115
1, 84000, Note_on_c, 9, 42, 90
1, 84010, Note_on_c, 9, 42, 0
1, 84239, Note_on_c, 9, 40, 0
1, 84240, Note_on_c, 9, 42, 90
1, 84250, Note_on_c, 9, 42, 0
1, 84480, Note_on_c, 9, 42, 90
1, 84480, Note_on_c, 9, 35, 115
1, 84490, Note_on_c, 9, 42, 0
1, 84720, Note_on_c, 9, 42, 90
1, 84730, Note_on_c, 9, 42, 0
1, 84959, Note_on_c, 9, 35, 0
1, 84960, Note_on_c, 9, 40, 115
1, 84960, Note_on_c, 9, 42, 90
1, 84970, Note_on_c, 9, 42, 0
1, 85199, Note_on_c, 9, 40, 0
1, 85200, Note_on_c, 9, 42, 90
1, 85210, Note_on_c, 9, 42, 0
1, 85440, Note_on_c, 9, 42, 90
1, 85440, Note_on_c, 9, 35, 115
1, 85450, Note_on_c, 9, 42, 0
1, 85679, Note_on_c, 9, 35, 0
1, 85680, Note_on_c, 9, 42, 90
1, 85680, Note_on_c, 9, 35, 115
1, 85690, Note_on_c, 9, 42, 0
1, 85919, Note_on_c, 9, 35, 0
1, 85920, Note_on_c, 9, 40, 115
1, 85920, Note_on_c, 9, 46, 60
1, 85920, Note_on_c, 9, 42, 90
1, 85930, Note_on_c, 9, 46, 0
1, 85930, Note_on_c, 9, 42, 0
1, 86159, Note_on_c, 9, 40, 0
1, 86160, Note_on_c, 9, 42, 90
1, 86170, Note_on_c, 9, 42, 0
1, 86400, Note_on_c, 9, 42, 90
1, 86400, Note_on_c, 9, 35, 115
1, 86410, Note_on_c, 9, 42, 0
1, 86640, Note_on_c, 9, 42, 90
1, 86650, Note_on_c, 9, 42, 0
1, 86879, Note_on_c, 9, 35, 0
1, 86880, Note_on_c, 9, 40, 115
1, 86880, Note_on_c, 9, 42, 90
1, 86890, Note_on_c, 9, 42, 0
1, 87119, Note_on_c, 9, 40, 0
1, 87120, Note_on_c, 9, 42, 90
1, 87130, Note_on_c, 9, 42, 0
1, 87360, Note_on_c, 9, 42, 90
1, 87360, Note_on_c, 9, 35, 115
1, 87370, Note_on_c, 9, 42, 0
1, 87600, Note_on_c, 9, 42, 90
1, 87610, Note_on_c, 9, 42, 0
1, 87839, Note_on_c, 9, 35, 0
1, 87840, Note_on_c, 9, 40, 115
1, 87840, Note_on_c, 9, 42, 90
1, 87850, Note_on_c, 9, 42, 0
1, 88079, Note_on_c, 9, 40, 0
1, 88080, Note_on_c, 9, 42, 90
1, 88090, Note_on_c, 9, 42, 0
1, 88320, Note_on_c, 9, 42, 90
1, 88320, Note_on_c, 9, 35, 115
1, 88330, Note_on_c, 9, 42, 0
1, 88560, Note_on_c, 9, 42, 90
1, 88570, Note_on_c, 9, 42, 0
1, 88799, Note_on_c, 9, 35, 0
1, 88800, Note_on_c, 9, 40, 115
1, 88800, Note_on_c, 9, 42, 90
1, 88810, Note_on_c, 9, 42, 0
1, 89039, Note_on_c, 9, 40, 0
1, 89040, Note_on_c, 9, 42, 90
1, 89050, Note_on_c, 9, 42, 0
1, 89280, Note_on_c, 9, 42, 90
1, 89280, Note_on_c, 9, 35, 115
1, 89290, Note_on_c, 9, 42, 0
1, 89519, Note_on_c, 9, 35, 0
1, 89520, Note_on_c, 9, 42, 90
1, 89520, Note_on_c, 9, 35, 115
1, 89530, Note_on_c, 9, 42, 0
1, 89759, Note_on_c, 9, 35, 0
1, 89760, Note_on_c, 9, 40, 115
1, 89760, Note_on_c, 9, 42, 90
1, 89770, Note_on_c, 9, 42, 0
1, 89999, Note_on_c, 9, 40, 0
1, 90000, Note_on_c, 9, 42, 90
1, 90010, Note_on_c, 9, 42, 0
1, 90240, Note_on_c, 9, 42, 90
1, 90240, Note_on_c, 9, 35, 115
1, 90250, Note_on_c, 9, 42, 0
1, 90480, Note_on_c, 9, 42, 90
1, 90490, Note_on_c, 9, 42, 0
1, 90719, Note_on_c, 9, 35, 0
1, 90720, Note_on_c, 9, 40, 115
1, 90720, Note_on_c, 9, 42, 90
1, 90730, Note_on_c, 9, 42, 0
1, 90959, Note_on_c, 9, 40, 0
1, 90960, Note_on_c, 9, 42, 90
1, 90970, Note_on_c, 9, 42, 0
1, 91200, Note_on_c, 9, 42, 90
1, 91200, Note_on_c, 9, 35, 115
1, 91210, Note_on_c, 9, 42, 0
1, 91440, Note_on_c, 9, 42, 90
1, 91450, Note_on_c, 9, 42, 0
1, 91679, Note_on_c, 9, 35, 0
1, 91680, Note_on_c, 9, 40, 115
1, 91680, Note_on_c, 9, 42, 90
1, 91690, Note_on_c, 9, 42, 0
1, 91919, Note_on_c, 9, 40, 0
1, 91920, Note_on_c, 9, 42, 90
1, 91930, Note_on_c, 9, 42, 0
1, 92160, Note_on_c, 9, 42, 90
1, 92160, Note_on_c, 9, 35, 115
1, 92170, Note_on_c, 9, 42, 0
1, 92400, Note_on_c, 9, 42, 90
1, 92410, Note_on_c, 9, 42, 0
1, 92639, Note_on_c, 9, 35, 0
1, 92640, Note_on_c, 9, 40, 115
1, 92640, Note_on_c, 9, 42, 90
1, 92650, Note_on_c, 9, 42, 0
1, 92879, Note_on_c, 9, 40, 0
1, 92880, Note_on_c, 9, 42, 90
1, 92890, Note_on_c, 9, 42, 0
1, 93120, Note_on_c, 9, 42, 90
1, 93120, Note_on_c, 9, 35, 115
1, 93130, Note_on_c, 9, 42, 0
1, 93359, Note_on_c, 9, 35, 0
1, 93360, Note_on_c, 9, 42, 90
1, 93360, Note_on_c, 9, 35, 115
1, 93370, Note_on_c, 9, 42, 0
1, 93599, Note_on_c, 9, 35, 0
1, 93600, Note_on_c, 9, 40, 115
1, 93600, Note_on_c, 9, 46, 60
1, 93600, Note_on_c, 9, 42, 90
1, 93610, Note_on_c, 9, 46, 0
1, 93610, Note_on_c, 9, 42, 0
1, 93839, Note_on_c, 9, 40, 0
1, 93840, Note_on_c, 9, 42, 90
1, 93850, Note_on_c, 9, 42, 0
1, 94080, Note_on_c, 9, 41, 125
1, 94080, Note_on_c, 9, 35, 115
1, 94095, Note_on_c, 9, 45, 125
1, 94154, Note_on_c, 9, 45, 0
1, 94559, Note_on_c, 9, 41, 0
1, 94559, Note_on_c, 9, 35, 0
1, 94560, Note_on_c, 9, 41, 125
1, 94560, Note_on_c, 9, 35, 115
1, 94575, Note_on_c, 9, 45, 125
1, 94634, Note_on_c, 9, 45, 0
1, 95039, Note_on_c, 9, 41, 0
1, 95039, Note_on_c, 9, 35, 0
1, 96000, Note_on_c, 9, 49, 100
1, 96000, Note_on_c, 9, 35, 115
1, 96022, Note_on_c, 9, 49, 0
1, 96479, Note_on_c, 9, 35, 0
1, 96480, Note_on_c, 9, 40, 115
1, 96480, Note_on_c, 9, 46, 60
1, 96490, Note_on_c, 9, 46, 0
1, 96719, Note_on_c, 9, 40, 0
1, 96720, Note_on_c, 9, 46, 60
1, 96730, Note_on_c, 9, 46, 0
1, 96960, Note_on_c, 9, 46, 60
1, 96960, Note_on_c, 9, 35, 115
1, 96970, Note_on_c, 9, 46, 0
1, 97200, Note_on_c, 9, 46, 60
1, 97210, Note_on_c, 9, 46, 0
1, 97439, Note_on_c, 9, 35, 0
1, 97440, Note_on_c, 9, 40, 115
1, 97440, Note_on_c, 9, 46, 60
1, 97450, Note_on_c, 9, 46, 0
1, 97679, Note_on_c, 9, 40, 0
1, 97680, Note_on_c, 9, 46, 60
1, 97690, Note_on_c, 9, 46, 0
1, 97920, Note_on_c, 9, 46, 60
1, 97920, Note_on_c, 9, 35, 115
1, 97930, Note_on_c, 9, 46, 0
1, 98160, Note_on_c, 9, 46, 60
1, 98170, Note_on_c, 9, 46, 0
1, 98399, Note_on_c, 9, 35, 0
1, 98400, Note_on_c, 9, 40, 115
1, 98400, Note_on_c, 9, 46, 60
1, 98410, Note_on_c, 9, 46, 0
1, 98639, Note_on_c, 9, 40, 0
1, 98640, Note_on_c, 9, 46, 60
1, 98650, Note_on_c, 9, 46, 0
1, 98880, Note_on_c, 9, 46, 60
1, 98880, Note_on_c, 9, 35, 115
1, 98890, Note_on_c, 9, 46, 0
1, 99119, Note_on_c, 9, 35, 0
1, 99120, Note_on_c, 9, 46, 60
1, 99120, Note_on_c, 9, 35, 115
1, 99130, Note_on_c, 9, 46, 0
1, 99359, Note_on_c, 9, 35, 0
1, 99360, Note_on_c, 9, 40, 115
1, 99360, Note_on_c, 9, 46, 60
1, 99370, Note_on_c, 9, 46, 0
1, 99599, Note_on_c, 9, 40, 0
1, 99600, Note_on_c, 9, 46, 60
1, 99610, Note_on_c, 9, 46, 0
1, 99840, Note_on_c, 9, 46, 60
1, 99840, Note_on_c, 9, 35, 115
1, 99850, Note_on_c, 9, 46, 0
1, 100080, Note_on_c, 9, 46, 60
1, 100090, Note_on_c, 9, 46, 0
1, 100319, Note_on_c, 9, 35, 0
1, 100320, Note_on_c, 9, 40, 115
1, 100320, Note_on_c, 9, 46, 60
1, 100330, Note_on_c, 9, 46, 0
1, 100559, Note_on_c, 9, 40, 0
1, 100560, Note_on_c, 9, 46, 60
1, 100570, Note_on_c, 9, 46, 0
1, 100800, Note_on_c, 9, 46, 60
1, 100800, Note_on_c, 9, 35, 115
1, 100810, Note_on_c, 9, 46, 0
1, 101040, Note_on_c, 9, 46, 60
1, 101050, Note_on_c, 9, 46, 0
1, 101279, Note_on_c, 9, 35, 0
1, 101280, Note_on_c, 9, 40, 115
1, 101280, Note_on_c, 9, 46, 60
1, 101290, Note_on_c, 9, 46, 0
1, 101519, Note_on_c, 9, 40, 0
1, 101520, Note_on_c, 9, 46, 60
1, 101530, Note_on_c, 9, 46, 0
1, 101760, Note_on_c, 9, 46, 60
1, 101760, Note_on_c, 9, 35, 115
1, 101770, Note_on_c, 9, 46, 0
1, 102000, Note_on_c, 9, 46, 60
1, 102010, Note_on_c, 9, 46, 0
1, 102239, Note_on_c, 9, 35, 0
1, 102240, Note_on_c, 9, 40, 115
1, 102240, Note_on_c, 9, 46, 60
1, 102250, Note_on_c, 9, 46, 0
1, 102479, Note_on_c, 9, 40, 0
1, 102480, Note_on_c, 9, 46, 60
1, 102490, Note_on_c, 9, 46, 0
1, 102720, Note_on_c, 9, 46, 60
1, 102720, Note_on_c, 9, 35, 115
1, 102730, Note_on_c, 9, 46, 0
1, 102959, Note_on_c, 9, 35, 0
1, 102960, Note_on_c, 9, 46, 60
1, 102960, Note_on_c, 9, 35, 115
1, 102970, Note_on_c, 9, 46, 0
1, 103199, Note_on_c, 9, 35, 0
1, 103200, Note_on_c, 9, 40, 115
1, 103200, Note_on_c, 9, 46, 60
1, 103210, Note_on_c, 9, 46, 0
1, 103439, Note_on_c, 9, 40, 0
1, 103440, Note_on_c, 9, 46, 60
1, 103450, Note_on_c, 9, 46, 0
1, 103680, Note_on_c, 9, 46, 60
1, 103680, Note_on_c, 9, 35, 115
1, 103690, Note_on_c, 9, 46, 0
1, 103920, Note_on_c, 9, 46, 60
1, 103930, Note_on_c, 9, 46, 0
1, 104159, Note_on_c, 9, 35, 0
1, 104160, Note_on_c, 9, 40, 115
1, 104160, Note_on_c, 9, 46, 60
1, 104170, Note_on_c, 9, 46, 0
1, 104399, Note_on_c, 9, 40, 0
1, 104400, Note_on_c, 9, 46, 60
1, 104410, Note_on_c, 9, 46, 0
1, 104640, Note_on_c, 9, 46, 60
1, 104640, Note_on_c, 9, 35, 115
1, 104650, Note_on_c, 9, 46, 0
1, 104880, Note_on_c, 9, 46, 60
1, 104890, Note_on_c, 9, 46, 0
1, 105119, Note_on_c, 9, 35, 0
1, 105120, Note_on_c, 9, 40, 115
1, 105120, Note_on_c, 9, 46, 60
1, 105130, Note_on_c, 9, 46, 0
1, 105359, Note_on_c, 9, 40, 0
1, 105360, Note_on_c, 9, 46, 60
1, 105370, Note_on_c, 9, 46, 0
1, 105600, Note_on_c, 9, 46, 60
1, 105600, Note_on_c, 9, 35, 115
1, 105610, Note_on_c, 9, 46, 0
1, 105840, Note_on_c, 9, 46, 60
1, 105850, Note_on_c, 9, 46, 0
1, 106079, Note_on_c, 9, 35, 0
1, 106080, Note_on_c, 9, 40, 115
1, 106080, Note_on_c, 9, 46, 60
1, 106090, Note_on_c, 9, 46, 0
1, 106319, Note_on_c, 9, 40, 0
1, 106320, Note_on_c, 9, 46, 60
1, 106330, Note_on_c, 9, 46, 0
1, 106560, Note_on_c, 9, 46, 60
1, 106560, Note_on_c, 9, 35, 115
1, 106570, Note_on_c, 9, 46, 0
1, 106799, Note_on_c, 9, 35, 0
1, 106800, Note_on_c, 9, 46, 60
1, 106800, Note_on_c, 9, 35, 115
1, 106810, Note_on_c, 9, 46, 0
1, 107039, Note_on_c, 9, 35, 0
1, 107040, Note_on_c, 9, 40, 115
1, 107040, Note_on_c, 9, 46, 60
1, 107050, Note_on_c, 9, 46, 0
1, 107279, Note_on_c, 9, 40, 0
1, 107280, Note_on_c, 9, 46, 60
1, 107290, Note_on_c, 9, 46, 0
1, 107520, Note_on_c, 9, 46, 60
1, 107520, Note_on_c, 9, 35, 115
1, 107530, Note_on_c, 9, 46, 0
1, 107760, Note_on_c, 9, 46, 60
1, 107770, Note_on_c, 9, 46, 0
1, 107999, Note_on_c, 9, 35, 0
1, 108000, Note_on_c, 9, 40, 115
1, 108000, Note_on_c, 9, 46, 60
1, 108010, Note_on_c, 9, 46, 0
1, 108239, Note_on_c, 9, 40, 0
1, 108240, Note_on_c, 9, 46, 60
1, 108250, Note_on_c, 9, 46, 0
1, 108480, Note_on_c, 9, 46, 60
1, 108480, Note_on_c, 9, 35, 115
1, 108490, Note_on_c, 9, 46, 0
1, 108720, Note_on_c, 9, 46, 60
1, 108730, Note_on_c, 9, 46, 0
1, 108959, Note_on_c, 9, 35, 0
1, 108960, Note_on_c, 9, 40, 115
1, 108960, Note_on_c, 9, 46, 60
1, 108970, Note_on_c, 9, 46, 0
1, 109199, Note_on_c, 9, 40, 0
1, 109200, Note_on_c, 9, 46, 60
1, 109210, Note_on_c, 9, 46, 0
1, 109440, Note_on_c, 9, 46, 60
1, 109440, Note_on_c, 9, 35, 115
1, 109450, Note_on_c, 9, 46, 0
1, 109680, Note_on_c, 9, 46, 60
1, 109690, Note_on_c, 9, 46, 0
1, 109919, Note_on_c, 9, 35, 0
1, 109920, Note_on_c, 9, 40, 115
1, 109920, Note_on_c, 9, 46, 60
1, 109930, Note_on_c, 9, 46, 0
1, 110159, Note_on_c, 9, 40, 0
1, 110160, Note_on_c, 9, 46, 60
1, 110170, Note_on_c, 9, 46, 0
1, 110400, Note_on_c, 9, 46, 60
1, 110400, Note_on_c, 9, 35, 115
1, 110410, Note_on_c, 9, 46, 0
1, 110639, Note_on_c, 9, 35, 0
1, 110640, Note_on_c, 9, 46, 60
1, 110640, Note_on_c, 9, 35, 115
1, 110650, Note_on_c, 9, 46, 0
1, 110879, Note_on_c, 9, 35, 0
1, 110880, Note_on_c, 9, 40, 115
1, 110880, Note_on_c, 9, 46, 60
1, 110890, Note_on_c, 9, 46, 0
1, 111119, Note_on_c, 9, 40, 0
1, 111120, Note_on_c, 9, 46, 60
1, 111130, Note_on_c, 9, 46, 0
1, 111360, Note_on_c, 9, 49, 90
1, 111360, Note_on_c, 9, 35, 115
1, 111382, Note_on_c, 9, 49, 0
1, 111839, Note_on_c, 9, 35, 0
1, 111840, Note_on_c, 9, 40, 115
1, 111840, Note_on_c, 9, 46, 60
1, 111850, Note_on_c, 9, 46, 0
1, 112079, Note_on_c, 9, 40, 0
1, 112080, Note_on_c, 9, 46, 60
1, 112090, Note_on_c, 9, 46, 0
1, 112320, Note_on_c, 9, 46, 60
1, 112320, Note_on_c, 9, 35, 115
1, 112330, Note_on_c, 9, 46, 0
1, 112560, Note_on_c, 9, 46, 60
1, 112570, Note_on_c, 9, 46, 0
1, 112799, Note_on_c, 9, 35, 0
1, 112800, Note_on_c, 9, 40, 115
1, 112800, Note_on_c, 9, 46, 60
1, 112810, Note_on_c, 9, 46, 0
1, 113039, Note_on_c, 9, 40, 0
1, 113040, Note_on_c, 9, 46, 60
1, 113050, Note_on_c, 9, 46, 0
1, 113280, Note_on_c, 9, 46, 60
1, 113280, Note_on_c, 9, 35, 115
1, 113290, Note_on_c, 9, 46, 0
1, 113520, Note_on_c, 9, 46, 60
1, 113530, Note_on_c, 9, 46, 0
1, 113759, Note_on_c, 9, 35, 0
1, 113760, Note_on_c, 9, 40, 115
1, 113760, Note_on_c, 9, 46, 60
1, 113770, Note_on_c, 9, 46, 0
1, 113999, Note_on_c, 9, 40, 0
1, 114000, Note_on_c, 9, 46, 60
1, 114010, Note_on_c, 9, 46, 0
1, 114240, Note_on_c, 9, 46, 60
1, 114240, Note_on_c, 9, 35, 115
1, 114250, Note_on_c, 9, 46, 0
1, 114479, Note_on_c, 9, 35, 0
1, 114480, Note_on_c, 9, 46, 60
1, 114480, Note_on_c, 9, 35, 115
1, 114490, Note_on_c, 9, 46, 0
1, 114719, Note_on_c, 9, 35, 0
1, 114720, Note_on_c, 9, 40, 115
1, 114720, Note_on_c, 9, 46, 60
1, 114730, Note_on_c, 9, 46, 0
1, 114959, Note_on_c, 9, 40, 0
1, 114960, Note_on_c, 9, 46, 60
1, 114970, Note_on_c, 9, 46, 0
1, 115200, Note_on_c, 9, 46, 60
1, 115200, Note_on_c, 9, 35, 115
1, 115210, Note_on_c, 9, 46, 0
1, 115440, Note_on_c, 9, 46, 60
1, 115450, Note_on_c, 9, 46, 0
1, 115679, Note_on_c, 9, 35, 0
1, 115680, Note_on_c, 9, 40, 115
1, 115680, Note_on_c, 9, 46, 60
1, 115690, Note_on_c, 9, 46, 0
1, 115919, Note_on_c, 9, 40, 0
1, 115920, Note_on_c, 9, 46, 60
1, 115930, Note_on_c, 9, 46, 0
1, 116160, Note_on_c, 9, 46, 60
1, 116160, Note_on_c, 9, 35, 115
1, 116170, Note_on_c, 9, 46, 0
1, 116400, Note_on_c, 9, 46, 60
1, 116410, Note_on_c, 9, 46, 0
1, 116639, Note_on_c, 9, 35, 0
1, 116640, Note_on_c, 9, 40, 115
1, 116640, Note_on_c, 9, 46, 60
1, 116650, Note_on_c, 9, 46, 0
1, 116879, Note_on_c, 9, 40, 0
1, 116880, Note_on_c, 9, 46, 60
1, 116890, Note_on_c, 9, 46, 0
1, 117120, Note_on_c, 9, 46, 60
1, 117120, Note_on_c, 9, 35, 115
1, 117130, Note_on_c, 9, 46, 0
1, 117360, Note_on_c, 9, 46, 60
1, 117370, Note_on_c, 9, 46, 0
1, 117599, Note_on_c, 9, 35, 0
1, 117600, Note_on_c, 9, 40, 115
1, 117600, Note_on_c, 9, 46, 60
1, 117610, Note_on_c, 9, 46, 0
1, 117839, Note_on_c, 9, 40, 0
1, 117840, Note_on_c, 9, 46, 60
1, 117850, Note_on_c, 9, 46, 0
1, 118080, Note_on_c, 9, 46, 60
1, 118080, Note_on_c, 9, 35, 115
1, 118090, Note_on_c, 9, 46, 0
1, 118319, Note_on_c, 9, 35, 0
1, 118320, Note_on_c, 9, 46, 60
1, 118320, Note_on_c, 9, 35, 115
1, 118330, Note_on_c, 9, 46, 0
1, 118559, Note_on_c, 9, 35, 0
1, 118560, Note_on_c, 9, 40, 115
1, 118560, Note_on_c, 9, 46, 60
1, 118570, Note_on_c, 9, 46, 0
1, 118799, Note_on_c, 9, 40, 0
1, 118800, Note_on_c, 9, 46, 60
1, 118810, Note_on_c, 9, 46, 0
1, 119040, Note_on_c, 9, 46, 60
1, 119040, Note_on_c, 9, 35, 115
1, 119050, Note_on_c, 9, 46, 0
1, 119280, Note_on_c, 9, 46, 60
1, 119290, Note_on_c, 9, 46, 0
1, 119519, Note_on_c, 9, 35, 0
1, 119520, Note_on_c, 9, 40, 115
1, 119520, Note_on_c, 9, 46, 60
1, 119530, Note_on_c, 9, 46, 0
1, 119759, Note_on_c, 9, 40, 0
1, 119760, Note_on_c, 9, 46, 60
1, 119770, Note_on_c, 9, 46, 0
1, 120000, Note_on_c, 9, 46, 60
1, 120000, Note_on_c, 9, 35, 115
1, 120010, Note_on_c, 9, 46, 0
1, 120240, Note_on_c, 9, 46, 60
1, 120250, Note_on_c, 9, 46, 0
1, 120479, Note_on_c, 9, 35, 0
1, 120480, Note_on_c, 9, 40, 115
1, 120480, Note_on_c, 9, 46, 60
1, 120490, Note_on_c, 9, 46, 0
1, 120719, Note_on_c, 9, 40, 0
1, 120720, Note_on_c, 9, 46, 60
1, 120730, Note_on_c, 9, 46, 0
1, 120960, Note_on_c, 9, 46, 60
1, 120960, Note_on_c, 9, 35, 115
1, 120970, Note_on_c, 9, 46, 0
1, 121200, Note_on_c, 9, 46, 60
1, 121210, Note_on_c, 9, 46, 0
1, 121439, Note_on_c, 9, 35, 0
1, 121440, Note_on_c, 9, 40, 115
1, 121440, Note_on_c, 9, 46, 60
1, 121450, Note_on_c, 9, 46, 0
1, 121679, Note_on_c, 9, 40, 0
1, 121680, Note_on_c, 9, 46, 60
1, 121690, Note_on_c, 9, 46, 0
1, 121920, Note_on_c, 9, 46, 60
1, 121920, Note_on_c, 9, 35, 115
1, 121930, Note_on_c, 9, 46, 0
1, 122159, Note_on_c, 9, 35, 0
1, 122160, Note_on_c, 9, 46, 60
1, 122160, Note_on_c, 9, 35, 115
1, 122170, Note_on_c, 9, 46, 0
1, 122399, Note_on_c, 9, 35, 0
1, 122400, Note_on_c, 9, 40, 115
1, 122400, Note_on_c, 9, 46, 60
1, 122410, Note_on_c, 9, 46, 0
1, 122639, Note_on_c, 9, 40, 0
1, 122640, Note_on_c, 9, 46, 60
1, 122650, Note_on_c, 9, 46, 0
1, 122880, Note_on_c, 9, 46, 60
1, 122880, Note_on_c, 9, 35, 115
1, 122890, Note_on_c, 9, 46, 0
1, 123120, Note_on_c, 9, 46, 60
1, 123130, Note_on_c, 9, 46, 0
1, 123359, Note_on_c, 9, 35, 0
1, 123360, Note_on_c, 9, 40, 115
1, 123360, Note_on_c, 9, 46, 60
1, 123370, Note_on_c, 9, 46, 0
1, 123599, Note_on_c, 9, 40, 0
1, 123600, Note_on_c, 9, 46, 60
1, 123610, Note_on_c, 9, 46, 0
1, 123840, Note_on_c, 9, 46, 60
1, 123840, Note_on_c, 9, 35, 115
1, 123850, Note_on_c, 9, 46, 0
1, 124080, Note_on_c, 9, 46, 60
1, 124090, Note_on_c, 9, 46, 0
1, 124319, Note_on_c, 9, 35, 0
1, 124320, Note_on_c, 9, 40, 115
1, 124320, Note_on_c, 9, 46, 60
1, 124330, Note_on_c, 9, 46, 0
1, 124559, Note_on_c, 9, 40, 0
1, 124560, Note_on_c, 9, 46, 60
1, 124570, Note_on_c, 9, 46, 0
1, 124800, Note_on_c, 9, 46, 60
1, 124800, Note_on_c, 9, 35, 115
1, 124810, Note_on_c, 9, 46, 0
1, 125040, Note_on_c, 9, 46, 60
1, 125050, Note_on_c, 9, 46, 0
1, 125279, Note_on_c, 9, 35, 0
1, 125280, Note_on_c, 9, 40, 115
1, 125280, Note_on_c, 9, 46, 60
1, 125290, Note_on_c, 9, 46, 0
1, 125519, Note_on_c, 9, 40, 0
1, 125520, Note_on_c, 9, 46, 60
1, 125530, Note_on_c, 9, 46, 0
1, 125760, Note_on_c, 9, 46, 60
1, 125760, Note_on_c, 9, 35, 115
1, 125770, Note_on_c, 9, 46, 0
1, 125999, Note_on_c, 9, 35, 0
1, 126000, Note_on_c, 9, 46, 60
1, 126000, Note_on_c, 9, 35, 115
1, 126010, Note_on_c, 9, 46, 0
1, 126239, Note_on_c, 9, 35, 0
1, 126240, Note_on_c, 9, 40, 115
1, 126240, Note_on_c, 9, 46, 60
1, 126250, Note_on_c, 9, 46, 0
1, 126479, Note_on_c, 9, 40, 0
1, 126480, Note_on_c, 9, 46, 60
1, 126490, Note_on_c, 9, 46, 0
1, 126720, Note_on_c, 9, 49, 100
1, 126720, Note_on_c, 9, 35, 115
1, 126742, Note_on_c, 9, 49, 0
1, 127199, Note_on_c, 9, 35, 0
1, 127200, Note_on_c, 9, 40, 115
1, 127200, Note_on_c, 9, 46, 60
1, 127210, Note_on_c, 9, 46, 0
1, 127439, Note_on_c, 9, 40, 0
1, 127440, Note_on_c, 9, 46, 60
1, 127450, Note_on_c, 9, 46, 0
1, 127680, Note_on_c, 9, 46, 60
1, 127680, Note_on_c, 9, 35, 115
1, 127690, Note_on_c, 9, 46, 0
1, 127920, Note_on_c, 9, 46, 60
1, 127930, Note_on_c, 9, 46, 0
1, 128159, Note_on_c, 9, 35, 0
1, 128160, Note_on_c, 9, 40, 115
1, 128160, Note_on_c, 9, 46, 60
1, 128170, Note_on_c, 9, 46, 0
1, 128399, Note_on_c, 9, 40, 0
1, 128400, Note_on_c, 9, 46, 60
1, 128410, Note_on_c, 9, 46, 0
1, 128640, Note_on_c, 9, 46, 60
1, 128640, Note_on_c, 9, 35, 115
1, 128650, Note_on_c, 9, 46, 0
1, 128880, Note_on_c, 9, 46, 60
1, 128890, Note_on_c, 9, 46, 0
1, 129119, Note_on_c, 9, 35, 0
1, 129120, Note_on_c, 9, 40, 115
1, 129120, Note_on_c, 9, 46, 60
1, 129130, Note_on_c, 9, 46, 0
1, 129359, Note_on_c, 9, 40, 0
1, 129360, Note_on_c, 9, 46, 60
1, 129370, Note_on_c, 9, 46, 0
1, 129600, Note_on_c, 9, 46, 60
1, 129600, Note_on_c, 9, 35, 115
1, 129610, Note_on_c, 9, 46, 0
1, 129840, Note_on_c, 9, 46, 60
1, 129850, Note_on_c, 9, 46, 0
1, 130079, Note_on_c, 9, 35, 0
1, 130080, Note_on_c, 9, 40, 115
1, 130080, Note_on_c, 9, 46, 60
1, 130090, Note_on_c, 9, 46, 0
1, 130319, Note_on_c, 9, 40, 0
1, 130320, Note_on_c, 9, 46, 60
1, 130330, Note_on_c, 9, 46, 0
1, 130560, Note_on_c, 9, 46, 60
1, 130560, Note_on_c, 9, 35, 115
1, 130570, Note_on_c, 9, 46, 0
1, 130800, Note_on_c, 9, 46, 60
1, 130810, Note_on_c, 9, 46, 0
1, 131039, Note_on_c, 9, 35, 0
1, 131040, Note_on_c, 9, 40, 115
1, 131040, Note_on_c, 9, 46, 60
1, 131050, Note_on_c, 9, 46, 0
1, 131279, Note_on_c, 9, 40, 0
1, 131280, Note_on_c, 9, 46, 60
1, 131290, Note_on_c, 9, 46, 0
1, 131520, Note_on_c, 9, 46, 60
1, 131520, Note_on_c, 9, 35, 115
1, 131530, Note_on_c, 9, 46, 0
1, 131760, Note_on_c, 9, 46, 60
1, 131770, Note_on_c, 9, 46, 0
1, 131999, Note_on_c, 9, 35, 0
1, 132000, Note_on_c, 9, 40, 115
1, 132000, Note_on_c, 9, 46, 60
1, 132010, Note_on_c, 9, 46, 0
1, 132239, Note_on_c, 9, 40, 0
1, 132240, Note_on_c, 9, 46, 60
1, 132250, Note_on_c, 9, 46, 0
1, 132480, Note_on_c, 9, 46, 60
1, 132480, Note_on_c, 9, 35, 115
1, 132490, Note_on_c, 9, 46, 0
1, 132720, Note_on_c, 9, 46, 60
1, 132730, Note_on_c, 9, 46, 0
1, 132959, Note_on_c, 9, 35, 0
1, 132960, Note_on_c, 9, 40, 115
1, 132960, Note_on_c, 9, 46, 60
1, 132970, Note_on_c, 9, 46, 0
1, 133199, Note_on_c, 9, 40, 0
1, 133200, Note_on_c, 9, 46, 60
1, 133210, Note_on_c, 9, 46, 0
1, 133440, Note_on_c, 9, 46, 60
1, 133440, Note_on_c, 9, 35, 115
1, 133450, Note_on_c, 9, 46, 0
1, 133680, Note_on_c, 9, 46, 60
1, 133690, Note_on_c, 9, 46, 0
1, 133919, Note_on_c, 9, 35, 0
1, 133920, Note_on_c, 9, 40, 115
1, 133920, Note_on_c, 9, 46, 60
1, 133930, Note_on_c, 9, 46, 0
1, 134159, Note_on_c, 9, 40, 0
1, 134160, Note_on_c, 9, 46, 60
1, 134170, Note_on_c, 9, 46, 0
1, 134400, Note_on_c, 9, 46, 60
1, 134400, Note_on_c, 9, 35, 115
1, 134410, Note_on_c, 9, 46, 0
1, 134640, Note_on_c, 9, 46, 60
1, 134650, Note_on_c, 9, 46, 0
1, 134879, Note_on_c, 9, 35, 0
1, 134880, Note_on_c, 9, 40, 115
1, 134880, Note_on_c, 9, 46, 60
1, 134890, Note_on_c, 9, 46, 0
1, 135119, Note_on_c, 9, 40, 0
1, 135120, Note_on_c, 9, 46, 60
1, 135130, Note_on_c, 9, 46, 0
1, 135360, Note_on_c, 9, 46, 60
1, 135360, Note_on_c, 9, 35, 115
1, 135370, Note_on_c, 9, 46, 0
1, 135600, Note_on_c, 9, 46, 60
1, 135610, Note_on_c, 9, 46, 0
1, 135839, Note_on_c, 9, 35, 0
1, 135840, Note_on_c, 9, 40, 115
1, 135840, Note_on_c, 9, 46, 60
1, 135850, Note_on_c, 9, 46, 0
1, 136079, Note_on_c, 9, 40, 0
1, 136080, Note_on_c, 9, 46, 60
1, 136090, Note_on_c, 9, 46, 0
1, 136320, Note_on_c, 9, 46, 60
1, 136320, Note_on_c, 9, 35, 115
1, 136330, Note_on_c, 9, 46, 0
1, 136560, Note_on_c, 9, 46, 60
1, 136570, Note_on_c, 9, 46, 0
1, 136799, Note_on_c, 9, 35, 0
1, 136800, Note_on_c, 9, 40, 115
1, 136800, Note_on_c, 9, 46, 60
1, 136810, Note_on_c, 9, 46, 0
1, 137039, Note_on_c, 9, 40, 0
1, 137040, Note_on_c, 9, 46, 60
1, 137050, Note_on_c, 9, 46, 0
1, 137280, Note_on_c, 9, 46, 60
1, 137280, Note_on_c, 9, 35, 115
1, 137290, Note_on_c, 9, 46, 0
1, 137520, Note_on_c, 9, 46, 60
1, 137530, Note_on_c, 9, 46, 0
1, 137759, Note_on_c, 9, 35, 0
1, 137760, Note_on_c, 9, 40, 115
1, 137760, Note_on_c, 9, 46, 60
1, 137770, Note_on_c, 9, 46, 0
1, 137999, Note_on_c, 9, 40, 0
1, 138000, Note_on_c, 9, 46, 60
1, 138010, Note_on_c, 9, 46, 0
1, 138240, Note_on_c, 9, 46, 60
1, 138240, Note_on_c, 9, 35, 115
1, 138250, Note_on_c, 9, 46, 0
1, 138480, Note_on_c, 9, 46, 60
1, 138490, Note_on_c, 9, 46, 0
1, 138719, Note_on_c, 9, 35, 0
1, 138720, Note_on_c, 9, 40, 115
1, 138720, Note_on_c, 9, 46, 60
1, 138730, Note_on_c, 9, 46, 0
1, 138959, Note_on_c, 9, 40, 0
1, 138960, Note_on_c, 9, 46, 60
1, 138970, Note_on_c, 9, 46, 0
1, 139200, Note_on_c, 9, 46, 60
1, 139200, Note_on_c, 9, 35, 115
1, 139210, Note_on_c, 9, 46, 0
1, 139440, Note_on_c, 9, 46, 60
1, 139450, Note_on_c, 9, 46, 0
1, 139679, Note_on_c, 9, 35, 0
1, 139680, Note_on_c, 9, 40, 115
1, 139680, Note_on_c, 9, 46, 60
1, 139690, Note_on_c, 9, 46, 0
1, 139919, Note_on_c, 9, 40, 0
1, 139920, Note_on_c, 9, 46, 60
1, 139930, Note_on_c, 9, 46, 0
1, 140160, Note_on_c, 9, 46, 60
1, 140160, Note_on_c, 9, 35, 115
1, 140170, Note_on_c, 9, 46, 0
1, 140400, Note_on_c, 9, 46, 60
1, 140410, Note_on_c, 9, 46, 0
1, 140639, Note_on_c, 9, 35, 0
1, 140640, Note_on_c, 9, 40, 115
1, 140640, Note_on_c, 9, 46, 60
1, 140650, Note_on_c, 9, 46, 0
1, 140879, Note_on_c, 9, 40, 0
1, 140880, Note_on_c, 9, 46, 60
1, 140890, Note_on_c, 9, 46, 0
1, 141120, Note_on_c, 9, 46, 60
1, 141120, Note_on_c, 9, 35, 115
1, 141130, Note_on_c, 9, 46, 0
1, 141360, Note_on_c, 9, 40, 115
1, 141599, Note_on_c, 9, 35, 0
1, 141599, Note_on_c, 9, 40, 0
1, 141600, Note_on_c, 9, 46, 60
1, 141622, Note_on_c, 9, 46, 0
1, 141840, Note_on_c, 9, 35, 115
1, 142079, Note_on_c, 9, 35, 0
1, 142080, Note_on_c, 9, 49, 100
1, 142102, Note_on_c, 9, 49, 0
1, 149760, Note_on_c, 9, 41, 125
1, 149760, Note_on_c, 9, 35, 115
1, 149775, Note_on_c, 9, 45, 125
1, 149834, Note_on_c, 9, 45, 0
1, 150239, Note_on_c, 9, 41, 0
1, 150239, Note_on_c, 9, 35, 0
1, 150240, Note_on_c, 9, 41, 125
1, 150240, Note_on_c, 9, 35, 115
1, 150255, Note_on_c, 9, 45, 125
1, 150314, Note_on_c, 9, 45, 0
1, 150719, Note_on_c, 9, 41, 0
1, 150719, Note_on_c, 9, 35, 0
1, 151680, Note_on_c, 9, 49, 100
1, 151680, Note_on_c, 9, 35, 115
1, 151702, Note_on_c, 9, 49, 0
1, 152159, Note_on_c, 9, 35, 0
1, 152160, Note_on_c, 9, 40, 115
1, 152160, Note_on_c, 9, 46, 60
1, 152170, Note_on_c, 9, 46, 0
1, 152399, Note_on_c, 9, 40, 0
1, 152400, Note_on_c, 9, 46, 60
1, 152410, Note_on_c, 9, 46, 0
1, 152640, Note_on_c, 9, 46, 60
1, 152640, Note_on_c, 9, 35, 115
1, 152650, Note_on_c, 9, 46, 0
1, 152880, Note_on_c, 9, 46, 60
1, 152890, Note_on_c, 9, 46, 0
1, 153119, Note_on_c, 9, 35, 0
1, 153120, Note_on_c, 9, 40, 115
1, 153120, Note_on_c, 9, 46, 60
1, 153130, Note_on_c, 9, 46, 0
1, 153359, Note_on_c, 9, 40, 0
1, 153360, Note_on_c, 9, 46, 60
1, 153370, Note_on_c, 9, 46, 0
1, 153600, Note_on_c, 9, 46, 60
1, 153600, Note_on_c, 9, 35, 115
1, 153610, Note_on_c, 9, 46, 0
1, 153840, Note_on_c, 9, 46, 60
1, 153850, Note_on_c, 9, 46, 0
1, 154079, Note_on_c, 9, 35, 0
1, 154080, Note_on_c, 9, 40, 115
1, 154080, Note_on_c, 9, 46, 60
1, 154090, Note_on_c, 9, 46, 0
1, 154319, Note_on_c, 9, 40, 0
1, 154320, Note_on_c, 9, 46, 60
1, 154330, Note_on_c, 9, 46, 0
1, 154560, Note_on_c, 9, 46, 60
1, 154560, Note_on_c, 9, 35, 115
1, 154570, Note_on_c, 9, 46, 0
1, 154799, Note_on_c, 9, 35, 0
1, 154800, Note_on_c, 9, 46, 60
1, 154800, Note_on_c, 9, 35, 115
1, 154810, Note_on_c, 9, 46, 0
1, 155039, Note_on_c, 9, 35, 0
1, 155040, Note_on_c, 9, 40, 115
1, 155040, Note_on_c, 9, 46, 60
1, 155050, Note_on_c, 9, 46, 0
1, 155279, Note_on_c, 9, 40, 0
1, 155280, Note_on_c, 9, 46, 60
1, 155290, Note_on_c, 9, 46, 0
1, 155520, Note_on_c, 9, 46, 60
1, 155520, Note_on_c, 9, 35, 115
1, 155530, Note_on_c, 9, 46, 0
1, 155760, Note_on_c, 9, 46, 60
1, 155770, Note_on_c, 9, 46, 0
1, 155999, Note_on_c, 9, 35, 0
1, 156000, Note_on_c, 9, 40, 115
1, 156000, Note_on_c, 9, 46, 60
1, 156010, Note_on_c, 9, 46, 0
1, 156239, Note_on_c, 9, 40, 0
1, 156240, Note_on_c, 9, 46, 60
1, 156250, Note_on_c, 9, 46, 0
1, 156480, Note_on_c, 9, 46, 60
1, 156480, Note_on_c, 9, 35, 115
1, 156490, Note_on_c, 9, 46, 0
1, 156720, Note_on_c, 9, 46, 60
1, 156730, Note_on_c, 9, 46, 0
1, 156959, Note_on_c, 9, 35, 0
1, 156960, Note_on_c, 9, 40, 115
1, 156960, Note_on_c, 9, 46, 60
1, 156970, Note_on_c, 9, 46, 0
1, 157199, Note_on_c, 9, 40, 0
1, 157200, Note_on_c, 9, 46, 60
1, 157210, Note_on_c, 9, 46, 0
1, 157440, Note_on_c, 9, 46, 60
1, 157440, Note_on_c, 9, 35, 115
1, 157450, Note_on_c, 9, 46, 0
1, 157680, Note_on_c, 9, 46, 60
1, 157690, Note_on_c, 9, 46, 0
1, 157919, Note_on_c, 9, 35, 0
1, 157920, Note_on_c, 9, 40, 115
1, 157920, Note_on_c, 9, 46, 60
1, 157930, Note_on_c, 9, 46, 0
1, 158159, Note_on_c, 9, 40, 0
1, 158160, Note_on_c, 9, 46, 60
1, 158170, Note_on_c, 9, 46, 0
1, 158400, Note_on_c, 9, 46, 60
1, 158400, Note_on_c, 9, 35, 115
1, 158410, Note_on_c, 9, 46, 0
1, 158639, Note_on_c, 9, 35, 0
1, 158640, Note_on_c, 9, 46, 60
1, 158640, Note_on_c, 9, 35, 115
1, 158650, Note_on_c, 9, 46, 0
1, 158879, Note_on_c, 9, 35, 0
1, 158880, Note_on_c, 9, 40, 115
1, 158880, Note_on_c, 9, 46, 60
1, 158890, Note_on_c, 9, 46, 0
1, 159119, Note_on_c, 9, 40, 0
1, 159120, Note_on_c, 9, 46, 60
1, 159130, Note_on_c, 9, 46, 0
1, 159360, Note_on_c, 9, 46, 60
1, 159360, Note_on_c, 9, 35, 115
1, 159370, Note_on_c, 9, 46, 0
1, 159600, Note_on_c, 9, 46, 60
1, 159610, Note_on_c, 9, 46, 0
1, 159839, Note_on_c, 9, 35, 0
1, 159840, Note_on_c, 9, 40, 115
1, 159840, Note_on_c, 9, 46, 60
1, 159850, Note_on_c, 9, 46, 0
1, 160079, Note_on_c, 9, 40, 0
1, 160080, Note_on_c, 9, 46, 60
1, 160090, Note_on_c, 9, 46, 0
1, 160320, Note_on_c, 9, 46, 60
1, 160320, Note_on_c, 9, 35, 115
1, 160330, Note_on_c, 9, 46, 0
1, 160560, Note_on_c, 9, 46, 60
1, 160570, Note_on_c, 9, 46, 0
1, 160799, Note_on_c, 9, 35, 0
1, 160800, Note_on_c, 9, 40, 115
1, 160800, Note_on_c, 9, 46, 60
1, 160810, Note_on_c, 9, 46, 0
1, 161039, Note_on_c, 9, 40, 0
1, 161040, Note_on_c, 9, 46, 60
1, 161050, Note_on_c, 9, 46, 0
1, 161280, Note_on_c, 9, 46, 60
1, 161280, Note_on_c, 9, 35, 115
1, 161290, Note_on_c, 9, 46, 0
1, 161520, Note_on_c, 9, 46, 60
1, 161530, Note_on_c, 9, 46, 0
1, 161759, Note_on_c, 9, 35, 0
1, 161760, Note_on_c, 9, 40, 115
1, 161760, Note_on_c, 9, 46, 60
1, 161770, Note_on_c, 9, 46, 0
1, 161999, Note_on_c, 9, 40, 0
1, 162000, Note_on_c, 9, 46, 60
1, 162010, Note_on_c, 9, 46, 0
1, 162240, Note_on_c, 9, 46, 60
1, 162240, Note_on_c, 9, 35, 115
1, 162250, Note_on_c, 9, 46, 0
1, 162479, Note_on_c, 9, 35, 0
1, 162480, Note_on_c, 9, 46, 60
1, 162480, Note_on_c, 9, 35, 115
1, 162490, Note_on_c, 9, 46, 0
1, 162719, Note_on_c, 9, 35, 0
1, 162720, Note_on_c, 9, 40, 115
1, 162720, Note_on_c, 9, 46, 60
1, 162730, Note_on_c, 9, 46, 0
1, 162959, Note_on_c, 9, 40, 0
1, 162960, Note_on_c, 9, 46, 60
1, 162970, Note_on_c, 9, 46, 0
1, 163200, Note_on_c, 9, 46, 60
1, 163200, Note_on_c, 9, 35, 115
1, 163210, Note_on_c, 9, 46, 0
1, 163440, Note_on_c, 9, 46, 60
1, 163450, Note_on_c, 9, 46, 0
1, 163679, Note_on_c, 9, 35, 0
1, 163680, Note_on_c, 9, 40, 115
1, 163680, Note_on_c, 9, 46, 60
1, 163690, Note_on_c, 9, 46, 0
1, 163919, Note_on_c, 9, 40, 0
1, 163920, Note_on_c, 9, 46, 60
1, 163930, Note_on_c, 9, 46, 0
1, 164160, Note_on_c, 9, 46, 60
1, 164160, Note_on_c, 9, 35, 115
1, 164170, Note_on_c, 9, 46, 0
1, 164400, Note_on_c, 9, 46, 60
1, 164410, Note_on_c, 9, 46, 0
1, 164639, Note_on_c, 9, 35, 0
1, 164640, Note_on_c, 9, 40, 115
1, 164640, Note_on_c, 9, 46, 60
1, 164650, Note_on_c, 9, 46, 0
1, 164879, Note_on_c, 9, 40, 0
1, 164880, Note_on_c, 9, 46, 60
1, 164890, Note_on_c, 9, 46, 0
1, 165120, Note_on_c, 9, 46, 60
1, 165120, Note_on_c, 9, 35, 115
1, 165130, Note_on_c, 9, 46, 0
1, 165360, Note_on_c, 9, 46, 60
1, 165370, Note_on_c, 9, 46, 0
1, 165599, Note_on_c, 9, 35, 0
1, 165600, Note_on_c, 9, 40, 115
1, 165600, Note_on_c, 9, 46, 60
1, 165610, Note_on_c, 9, 46, 0
1, 165839, Note_on_c, 9, 40, 0
1, 165840, Note_on_c, 9, 46, 60
1, 165850, Note_on_c, 9, 46, 0
1, 166080, Note_on_c, 9, 46, 60
1, 166080, Note_on_c, 9, 35, 115
1, 166090, Note_on_c, 9, 46, 0
1, 166319, Note_on_c, 9, 35, 0
1, 166320, Note_on_c, 9, 46, 60
1, 166320, Note_on_c, 9, 35, 115
1, 166330, Note_on_c, 9, 46, 0
1, 166559, Note_on_c, 9, 35, 0
1, 166560, Note_on_c, 9, 40, 115
1, 166560, Note_on_c, 9, 46, 60
1, 166570, Note_on_c, 9, 46, 0
1, 166799, Note_on_c, 9, 40, 0
1, 166800, Note_on_c, 9, 46, 60
1, 166810, Note_on_c, 9, 46, 0
1, 167040, Note_on_c, 9, 46, 60
1, 167040, Note_on_c, 9, 35, 115
1, 167050, Note_on_c, 9, 46, 0
1, 167280, Note_on_c, 9, 46, 60
1, 167290, Note_on_c, 9, 46, 0
1, 167519, Note_on_c, 9, 35, 0
1, 167520, Note_on_c, 9, 40, 115
1, 167520, Note_on_c, 9, 46, 60
1, 167530, Note_on_c, 9, 46, 0
1, 167759, Note_on_c, 9, 40, 0
1, 167760, Note_on_c, 9, 46, 60
1, 167770, Note_on_c, 9, 46, 0
1, 168000, Note_on_c, 9, 46, 60
1, 168000, Note_on_c, 9, 35, 115
1, 168010, Note_on_c, 9, 46, 0
1, 168240, Note_on_c, 9, 46, 60
1, 168250, Note_on_c, 9, 46, 0
1, 168479, Note_on_c, 9, 35, 0
1, 168480, Note_on_c, 9, 40, 115
1, 168480, Note_on_c, 9, 46, 60
1, 168490, Note_on_c, 9, 46, 0
1, 168719, Note_on_c, 9, 40, 0
1, 168720, Note_on_c, 9, 46, 60
1, 168730, Note_on_c, 9, 46, 0
1, 168960, Note_on_c, 9, 46, 60
1, 168960, Note_on_c, 9, 35, 115
1, 168970, Note_on_c, 9, 46, 0
1, 169200, Note_on_c, 9, 46, 60
1, 169210, Note_on_c, 9, 46, 0
1, 169439, Note_on_c, 9, 35, 0
1, 169440, Note_on_c, 9, 40, 115
1, 169440, Note_on_c, 9, 46, 60
1, 169450, Note_on_c, 9, 46, 0
1, 169679, Note_on_c, 9, 40, 0
1, 169680, Note_on_c, 9, 46, 60
1, 169690, Note_on_c, 9, 46, 0
1, 169920, Note_on_c, 9, 46, 60
1, 169920, Note_on_c, 9, 35, 115
1, 169930, Note_on_c, 9, 46, 0
1, 170159, Note_on_c, 9, 35, 0
1, 170160, Note_on_c, 9, 46, 60
1, 170160, Note_on_c, 9, 35, 115
1, 170170, Note_on_c, 9, 46, 0
1, 170399, Note_on_c, 9, 35, 0
1, 170400, Note_on_c, 9, 40, 115
1, 170400, Note_on_c, 9, 46, 60
1, 170410, Note_on_c, 9, 46, 0
1, 170639, Note_on_c, 9, 40, 0
1, 170640, Note_on_c, 9, 46, 60
1, 170650, Note_on_c, 9, 46, 0
1, 170880, Note_on_c, 9, 46, 60
1, 170880, Note_on_c, 9, 35, 115
1, 170890, Note_on_c, 9, 46, 0
1, 171120, Note_on_c, 9, 46, 60
1, 171130, Note_on_c, 9, 46, 0
1, 171359, Note_on_c, 9, 35, 0
1, 171360, Note_on_c, 9, 40, 115
1, 171360, Note_on_c, 9, 46, 60
1, 171370, Note_on_c, 9, 46, 0
1, 171599, Note_on_c, 9, 40, 0
1, 171600, Note_on_c, 9, 46, 60
1, 171610, Note_on_c, 9, 46, 0
1, 171840, Note_on_c, 9, 46, 60
1, 171840, Note_on_c, 9, 35, 115
1, 171850, Note_on_c, 9, 46, 0
1, 172080, Note_on_c, 9, 46, 60
1, 172090, Note_on_c, 9, 46, 0
1, 172319, Note_on_c, 9, 35, 0
1, 172320, Note_on_c, 9, 40, 115
1, 172320, Note_on_c, 9, 46, 60
1, 172330, Note_on_c, 9, 46, 0
1, 172559, Note_on_c, 9, 40, 0
1, 172560, Note_on_c, 9, 46, 60
1, 172570, Note_on_c, 9, 46, 0
1, 172800, Note_on_c, 9, 46, 60
1, 172800, Note_on_c, 9, 35, 115
1, 172810, Note_on_c, 9, 46, 0
1, 173040, Note_on_c, 9, 46, 60
1, 173050, Note_on_c, 9, 46, 0
1, 173279, Note_on_c, 9, 35, 0
1, 173280, Note_on_c, 9, 40, 115
1, 173280, Note_on_c, 9, 46, 60
1, 173290, Note_on_c, 9, 46, 0
1, 173519, Note_on_c, 9, 40, 0
1, 173520, Note_on_c, 9, 46, 60
1, 173530, Note_on_c, 9, 46, 0
1, 173760, Note_on_c, 9, 46, 60
1, 173760, Note_on_c, 9, 35, 115
1, 173770, Note_on_c, 9, 46, 0
1, 173999, Note_on_c, 9, 35, 0
1, 174000, Note_on_c, 9, 46, 60
1, 174000, Note_on_c, 9, 35, 115
1, 174010, Note_on_c, 9, 46, 0
1, 174239, Note_on_c, 9, 35, 0
1, 174240, Note_on_c, 9, 40, 115
1, 174240, Note_on_c, 9, 46, 60
1, 174250, Note_on_c, 9, 46, 0
1, 174479, Note_on_c, 9, 40, 0
1, 174480, Note_on_c, 9, 46, 60
1, 174490, Note_on_c, 9, 46, 0
1, 174720, Note_on_c, 9, 46, 60
1, 174720, Note_on_c, 9, 35, 115
1, 174730, Note_on_c, 9, 46, 0
1, 174960, Note_on_c, 9, 46, 60
1, 174970, Note_on_c, 9, 46, 0
1, 175199, Note_on_c, 9, 35, 0
1, 175200, Note_on_c, 9, 40, 115
1, 175200, Note_on_c, 9, 46, 60
1, 175210, Note_on_c, 9, 46, 0
1, 175439, Note_on_c, 9, 40, 0
1, 175440, Note_on_c, 9, 46, 60
1, 175450, Note_on_c, 9, 46, 0
1, 175680, Note_on_c, 9, 46, 60
1, 175680, Note_on_c, 9, 35, 115
1, 175690, Note_on_c, 9, 46, 0
1, 175920, Note_on_c, 9, 46, 60
1, 175930, Note_on_c, 9, 46, 0
1, 176159, Note_on_c, 9, 35, 0
1, 176160, Note_on_c, 9, 40, 115
1, 176160, Note_on_c, 9, 46, 60
1, 176170, Note_on_c, 9, 46, 0
1, 176399, Note_on_c, 9, 40, 0
1, 176400, Note_on_c, 9, 46, 60
1, 176410, Note_on_c, 9, 46, 0
1, 176640, Note_on_c, 9, 46, 60
1, 176640, Note_on_c, 9, 35, 115
1, 176650, Note_on_c, 9, 46, 0
1, 176880, Note_on_c, 9, 46, 60
1, 176890, Note_on_c, 9, 46, 0
1, 177119, Note_on_c, 9, 35, 0
1, 177120, Note_on_c, 9, 40, 115
1, 177120, Note_on_c, 9, 46, 60
1, 177130, Note_on_c, 9, 46, 0
1, 177359, Note_on_c, 9, 40, 0
1, 177360, Note_on_c, 9, 46, 60
1, 177370, Note_on_c, 9, 46, 0
1, 177600, Note_on_c, 9, 46, 60
1, 177600, Note_on_c, 9, 35, 115
1, 177610, Note_on_c, 9, 46, 0
1, 177839, Note_on_c, 9, 35, 0
1, 177840, Note_on_c, 9, 46, 60
1, 177840, Note_on_c, 9, 35, 115
1, 177850, Note_on_c, 9, 46, 0
1, 178079, Note_on_c, 9, 35, 0
1, 178080, Note_on_c, 9, 40, 115
1, 178080, Note_on_c, 9, 46, 60
1, 178090, Note_on_c, 9, 46, 0
1, 178319, Note_on_c, 9, 40, 0
1, 178320, Note_on_c, 9, 46, 60
1, 178330, Note_on_c, 9, 46, 0
1, 178560, Note_on_c, 9, 46, 60
1, 178560, Note_on_c, 9, 35, 115
1, 178570, Note_on_c, 9, 46, 0
1, 178800, Note_on_c, 9, 46, 60
1, 178810, Note_on_c, 9, 46, 0
1, 179039, Note_on_c, 9, 35, 0
1, 179040, Note_on_c, 9, 40, 115
1, 179040, Note_on_c, 9, 46, 60
1, 179050, Note_on_c, 9, 46, 0
1, 179279, Note_on_c, 9, 40, 0
1, 179280, Note_on_c, 9, 46, 60
1, 179290, Note_on_c, 9, 46, 0
1, 179520, Note_on_c, 9, 46, 60
1, 179520, Note_on_c, 9, 35, 115
1, 179530, Note_on_c, 9, 46, 0
1, 179760, Note_on_c, 9, 46, 60
1, 179770, Note_on_c, 9, 46, 0
1, 179999, Note_on_c, 9, 35, 0
1, 180000, Note_on_c, 9, 40, 115
1, 180000, Note_on_c, 9, 46, 60
1, 180010, Note_on_c, 9, 46, 0
1, 180239, Note_on_c, 9, 40, 0
1, 180240, Note_on_c, 9, 46, 60
1, 180250, Note_on_c, 9, 46, 0
1, 180480, Note_on_c, 9, 46, 60
1, 180480, Note_on_c, 9, 35, 115
1, 180490, Note_on_c, 9, 46, 0
1, 180720, Note_on_c, 9, 46, 60
1, 180730, Note_on_c, 9, 46, 0
1, 180959, Note_on_c, 9, 35, 0
1, 180960, Note_on_c, 9, 40, 115
1, 180960, Note_on_c, 9, 46, 60
1, 180970, Note_on_c, 9, 46, 0
1, 181199, Note_on_c, 9, 40, 0
1, 181200, Note_on_c, 9, 46, 60
1, 181210, Note_on_c, 9, 46, 0
1, 181440, Note_on_c, 9, 46, 60
1, 181440, Note_on_c, 9, 35, 115
1, 181462, Note_on_c, 9, 46, 0
1, 181679, Note_on_c, 9, 35, 0
1, 181680, Note_on_c, 9, 35, 115
1, 181919, Note_on_c, 9, 35, 0
1, 181920, Note_on_c, 9, 40, 115
1, 181920, Note_on_c, 9, 46, 60
1, 181942, Note_on_c, 9, 46, 0
1, 182399, Note_on_c, 9, 40, 0
1, 182400, Note_on_c, 9, 49, 100
1, 182400, Note_on_c, 9, 35, 115
1, 182422, Note_on_c, 9, 49, 0
1, 182879, Note_on_c, 9, 35, 0
1, 182880, Note_on_c, 9, 40, 115
1, 182880, Note_on_c, 9, 46, 60
1, 182880, Note_on_c, 9, 51, 120
1, 182890, Note_on_c, 9, 46, 0
1, 182890, Note_on_c, 9, 51, 0
1, 183119, Note_on_c, 9, 40, 0
1, 183120, Note_on_c, 9, 46, 60
1, 183130, Note_on_c, 9, 46, 0
1, 183360, Note_on_c, 9, 46, 60
1, 183360, Note_on_c, 9, 51, 120
1, 183360, Note_on_c, 9, 35, 115
1, 183370, Note_on_c, 9, 46, 0
1, 183370, Note_on_c, 9, 51, 0
1, 183600, Note_on_c, 9, 46, 60
1, 183610, Note_on_c, 9, 46, 0
1, 183839, Note_on_c, 9, 35, 0
1, 183840, Note_on_c, 9, 40, 115
1, 183840, Note_on_c, 9, 46, 60
1, 183840, Note_on_c, 9, 51, 120
1, 183850, Note_on_c, 9, 46, 0
1, 183850, Note_on_c, 9, 51, 0
1, 184079, Note_on_c, 9, 40, 0
1, 184080, Note_on_c, 9, 46, 60
1, 184090, Note_on_c, 9, 46, 0
1, 184320, Note_on_c, 9, 46, 60
1, 184320, Note_on_c, 9, 51, 120
1, 184320, Note_on_c, 9, 35, 115
1, 184330, Note_on_c, 9, 46, 0
1, 184330, Note_on_c, 9, 51, 0
1, 184560, Note_on_c, 9, 46, 60
1, 184570, Note_on_c, 9, 46, 0
1, 184799, Note_on_c, 9, 35, 0
1, 184800, Note_on_c, 9, 40, 115
1, 184800, Note_on_c, 9, 46, 60
1, 184800, Note_on_c, 9, 51, 120
1, 184810, Note_on_c, 9, 46, 0
1, 184810, Note_on_c, 9, 51, 0
1, 185039, Note_on_c, 9, 40, 0
1, 185040, Note_on_c, 9, 46, 60
1, 185050, Note_on_c, 9, 46, 0
1, 185280, Note_on_c, 9, 46, 60
1, 185280, Note_on_c, 9, 51, 120
1, 185280, Note_on_c, 9, 35, 115
1, 185290, Note_on_c, 9, 46, 0
1, 185290, Note_on_c, 9, 51, 0
1, 185519, Note_on_c, 9, 35, 0
1, 185520, Note_on_c, 9, 46, 60
1, 185520, Note_on_c, 9, 35, 115
1, 185530, Note_on_c, 9, 46, 0
1, 185759, Note_on_c, 9, 35, 0
1, 185760, Note_on_c, 9, 40, 115
1, 185760, Note_on_c, 9, 46, 60
1, 185760, Note_on_c, 9, 51, 120
1, 185770, Note_on_c, 9, 46, 0
1, 185770, Note_on_c, 9, 51, 0
1, 185999, Note_on_c, 9, 40, 0
1, 186000, Note_on_c, 9, 46, 60
1, 186010, Note_on_c, 9, 46, 0
1, 186240, Note_on_c, 9, 46, 60
1, 186240, Note_on_c, 9, 51, 120
1, 186240, Note_on_c, 9, 35, 115
1, 186250, Note_on_c, 9, 46, 0
1, 186250, Note_on_c, 9, 51, 0
1, 186480, Note_on_c, 9, 46, 60
1, 186490, Note_on_c, 9, 46, 0
1, 186719, Note_on_c, 9, 35, 0
1, 186720, Note_on_c, 9, 40, 115
1, 186720, Note_on_c, 9, 46, 60
1, 186720, Note_on_c, 9, 51, 120
1, 186730, Note_on_c, 9, 46, 0
1, 186730, Note_on_c, 9, 51, 0
1, 186959, Note_on_c, 9, 40, 0
1, 186960, Note_on_c, 9, 46, 60
1, 186970, Note_on_c, 9, 46, 0
1, 187200, Note_on_c, 9, 46, 60
1, 187200, Note_on_c, 9, 51, 120
1, 187200, Note_on_c, 9, 35, 115
1, 187210, Note_on_c, 9, 46, 0
1, 187210, Note_on_c, 9, 51, 0
1, 187440, Note_on_c, 9, 46, 60
1, 187450, Note_on_c, 9, 46, 0
1, 187679, Note_on_c, 9, 35, 0
1, 187680, Note_on_c, 9, 40, 115
1, 187680, Note_on_c, 9, 46, 60
1, 187680, Note_on_c, 9, 51, 120
1, 187690, Note_on_c, 9, 46, 0
1, 187690, Note_on_c, 9, 51, 0
1, 187919, Note_on_c, 9, 40, 0
1, 187920, Note_on_c, 9, 46, 60
1, 187930, Note_on_c, 9, 46, 0
1, 188160, Note_on_c, 9, 46, 60
1, 188160, Note_on_c, 9, 51, 120
1, 188160, Note_on_c, 9, 35, 115
1, 188170, Note_on_c, 9, 46, 0
1, 188170, Note_on_c, 9, 51, 0
1, 188400, Note_on_c, 9, 46, 60
1, 188410, Note_on_c, 9, 46, 0
1, 188639, Note_on_c, 9, 35, 0
1, 188640, Note_on_c, 9, 40, 115
1, 188640, Note_on_c, 9, 46, 60
1, 188640, Note_on_c, 9, 51, 120
1, 188650, Note_on_c, 9, 46, 0
1, 188650, Note_on_c, 9, 51, 0
1, 188879, Note_on_c, 9, 40, 0
1, 188880, Note_on_c, 9, 46, 60
1, 188890, Note_on_c, 9, 46, 0
1, 189120, Note_on_c, 9, 46, 60
1, 189120, Note_on_c, 9, 51, 120
1, 189120, Note_on_c, 9, 35, 115
1, 189130, Note_on_c, 9, 46, 0
1, 189130, Note_on_c, 9, 51, 0
1, 189359, Note_on_c, 9, 35, 0
1, 189360, Note_on_c, 9, 46, 60
1, 189360, Note_on_c, 9, 35, 115
1, 189370, Note_on_c, 9, 46, 0
1, 189599, Note_on_c, 9, 35, 0
1, 189600, Note_on_c, 9, 40, 115
1, 189600, Note_on_c, 9, 46, 60
1, 189600, Note_on_c, 9, 51, 120
1, 189610, Note_on_c, 9, 46, 0
1, 189610, Note_on_c, 9, 51, 0
1, 189839, Note_on_c, 9, 40, 0
1, 189840, Note_on_c, 9, 46, 60
1, 189850, Note_on_c, 9, 46, 0
1, 190080, Note_on_c, 9, 46, 60
1, 190080, Note_on_c, 9, 49, 80
1, 190080, Note_on_c, 9, 35, 115
1, 190090, Note_on_c, 9, 46, 0
1, 190090, Note_on_c, 9, 49, 0
1, 190320, Note_on_c, 9, 46, 60
1, 190330, Note_on_c, 9, 46, 0
1, 190559, Note_on_c, 9, 35, 0
1, 190560, Note_on_c, 9, 40, 115
1, 190560, Note_on_c, 9, 46, 60
1, 190560, Note_on_c, 9, 51, 120
1, 190570, Note_on_c, 9, 46, 0
1, 190570, Note_on_c, 9, 51, 0
1, 190799, Note_on_c, 9, 40, 0
1, 190800, Note_on_c, 9, 46, 60
1, 190810, Note_on_c, 9, 46, 0
1, 191040, Note_on_c, 9, 46, 60
1, 191040, Note_on_c, 9, 51, 120
1, 191040, Note_on_c, 9, 35, 115
1, 191050, Note_on_c, 9, 46, 0
1, 191050, Note_on_c, 9, 51, 0
1, 191280, Note_on_c, 9, 46, 60
1, 191290, Note_on_c, 9, 46, 0
1, 191519, Note_on_c, 9, 35, 0
1, 191520, Note_on_c, 9, 40, 115
1, 191520, Note_on_c, 9, 46, 60
1, 191520, Note_on_c, 9, 51, 120
1, 191530, Note_on_c, 9, 46, 0
1, 191530, Note_on_c, 9, 51, 0
1, 191759, Note_on_c, 9, 40, 0
1, 191760, Note_on_c, 9, 46, 60
1, 191770, Note_on_c, 9, 46, 0
1, 192000, Note_on_c, 9, 46, 60
1, 192000, Note_on_c, 9, 51, 120
1, 192000, Note_on_c, 9, 35, 115
1, 192010, Note_on_c, 9, 46, 0
1, 192010, Note_on_c, 9, 51, 0
1, 192240, Note_on_c, 9, 46, 60
1, 192250, Note_on_c, 9, 46, 0
1, 192479, Note_on_c, 9, 35, 0
1, 192480, Note_on_c, 9, 40, 115
1, 192480, Note_on_c, 9, 46, 60
1, 192480, Note_on_c, 9, 51, 120
1, 192490, Note_on_c, 9, 46, 0
1, 192490, Note_on_c, 9, 51, 0
1, 192719, Note_on_c, 9, 40, 0
1, 192720, Note_on_c, 9, 46, 60
1, 192730, Note_on_c, 9, 46, 0
1, 192960, Note_on_c, 9, 46, 60
1, 192960, Note_on_c, 9, 51, 120
1, 192960, Note_on_c, 9, 35, 115
1, 192970, Note_on_c, 9, 46, 0
1, 192970, Note_on_c, 9, 51, 0
1, 193199, Note_on_c, 9, 35, 0
1, 193200, Note_on_c, 9, 46, 60
1, 193200, Note_on_c, 9, 35, 115
1, 193210, Note_on_c, 9, 46, 0
1, 193439, Note_on_c, 9, 35, 0
1, 193440, Note_on_c, 9, 40, 115
1, 193440, Note_on_c, 9, 46, 60
1, 193440, Note_on_c, 9, 51, 120
1, 193450, Note_on_c, 9, 46, 0
1, 193450, Note_on_c, 9, 51, 0
1, 193679, Note_on_c, 9, 40, 0
1, 193680, Note_on_c, 9, 46, 60
1, 193690, Note_on_c, 9, 46, 0
1, 193920, Note_on_c, 9, 46, 60
1, 193920, Note_on_c, 9, 51, 120
1, 193920, Note_on_c, 9, 35, 115
1, 193930, Note_on_c, 9, 46, 0
1, 193930, Note_on_c, 9, 51, 0
1, 194160, Note_on_c, 9, 46, 60
1, 194170, Note_on_c, 9, 46, 0
1, 194399, Note_on_c, 9, 35, 0
1, 194400, Note_on_c, 9, 40, 115
1, 194400, Note_on_c, 9, 46, 60
1, 194400, Note_on_c, 9, 51, 120
1, 194410, Note_on_c, 9, 46, 0
1, 194410, Note_on_c, 9, 51, 0
1, 194639, Note_on_c, 9, 40, 0
1, 194640, Note_on_c, 9, 46, 60
1, 194650, Note_on_c, 9, 46, 0
1, 194880, Note_on_c, 9, 46, 60
1, 194880, Note_on_c, 9, 51, 120
1, 194880, Note_on_c, 9, 35, 115
1, 194890, Note_on_c, 9, 46, 0
1, 194890, Note_on_c, 9, 51, 0
1, 195120, Note_on_c, 9, 46, 60
1, 195130, Note_on_c, 9, 46, 0
1, 195359, Note_on_c, 9, 35, 0
1, 195360, Note_on_c, 9, 40, 115
1, 195360, Note_on_c, 9, 46, 60
1, 195360, Note_on_c, 9, 51, 120
1, 195370, Note_on_c, 9, 46, 0
1, 195370, Note_on_c, 9, 51, 0
1, 195599, Note_on_c, 9, 40, 0
1, 195600, Note_on_c, 9, 46, 60
1, 195610, Note_on_c, 9, 46, 0
1, 195840, Note_on_c, 9, 46, 60
1, 195840, Note_on_c, 9, 51, 120
1, 195840, Note_on_c, 9, 35, 115
1, 195850, Note_on_c, 9, 46, 0
1, 195850, Note_on_c, 9, 51, 0
1, 196080, Note_on_c, 9, 46, 60
1, 196090, Note_on_c, 9, 46, 0
1, 196319, Note_on_c, 9, 35, 0
1, 196320, Note_on_c, 9, 40, 115
1, 196320, Note_on_c, 9, 46, 60
1, 196320, Note_on_c, 9, 51, 120
1, 196330, Note_on_c, 9, 46, 0
1, 196330, Note_on_c, 9, 51, 0
1, 196559, Note_on_c, 9, 40, 0
1, 196560, Note_on_c, 9, 46, 60
1, 196570, Note_on_c, 9, 46, 0
1, 196800, Note_on_c, 9, 46, 60
1, 196800, Note_on_c, 9, 51, 120
1, 196800, Note_on_c, 9, 35, 115
1, 196810, Note_on_c, 9, 46, 0
1, 196810, Note_on_c, 9, 51, 0
1, 197039, Note_on_c, 9, 35, 0
1, 197040, Note_on_c, 9, 46, 60
1, 197040, Note_on_c, 9, 35, 115
1, 197050, Note_on_c, 9, 46, 0
1, 197279, Note_on_c, 9, 35, 0
1, 197280, Note_on_c, 9, 40, 115
1, 197280, Note_on_c, 9, 46, 60
1, 197280, Note_on_c, 9, 51, 120
1, 197290, Note_on_c, 9, 46, 0
1, 197290, Note_on_c, 9, 51, 0
1, 197519, Note_on_c, 9, 40, 0
1, 197520, Note_on_c, 9, 46, 60
1, 197530, Note_on_c, 9, 46, 0
1, 197760, Note_on_c, 9, 49, 100
1, 197760, Note_on_c, 9, 35, 115
1, 197782, Note_on_c, 9, 49, 0
1, 198239, Note_on_c, 9, 35, 0
1, 198240, Note_on_c, 9, 40, 115
1, 198240, Note_on_c, 9, 46, 60
1, 198240, Note_on_c, 9, 51, 120
1, 198250, Note_on_c, 9, 46, 0
1, 198250, Note_on_c, 9, 51, 0
1, 198479, Note_on_c, 9, 40, 0
1, 198480, Note_on_c, 9, 46, 60
1, 198490, Note_on_c, 9, 46, 0
1, 198720, Note_on_c, 9, 46, 60
1, 198720, Note_on_c, 9, 51, 120
1, 198720, Note_on_c, 9, 35, 115
1, 198730, Note_on_c, 9, 46, 0
1, 198730, Note_on_c, 9, 51, 0
1, 198960, Note_on_c, 9, 46, 60
1, 198970, Note_on_c, 9, 46, 0
1, 199199, Note_on_c, 9, 35, 0
1, 199200, Note_on_c, 9, 40, 115
1, 199200, Note_on_c, 9, 46, 60
1, 199200, Note_on_c, 9, 51, 120
1, 199210, Note_on_c, 9, 46, 0
1, 199210, Note_on_c, 9, 51, 0
1, 199439, Note_on_c, 9, 40, 0
1, 199440, Note_on_c, 9, 46, 60
1, 199450, Note_on_c, 9, 46, 0
1, 199680, Note_on_c, 9, 46, 60
1, 199680, Note_on_c, 9, 51, 120
1, 199680, Note_on_c, 9, 35, 115
1, 199690, Note_on_c, 9, 46, 0
1, 199690, Note_on_c, 9, 51, 0
1, 199920, Note_on_c, 9, 46, 60
1, 199930, Note_on_c, 9, 46, 0
1, 200159, Note_on_c, 9, 35, 0
1, 200160, Note_on_c, 9, 40, 115
1, 200160, Note_on_c, 9, 46, 60
1, 200160, Note_on_c, 9, 51, 120
1, 200170, Note_on_c, 9, 46, 0
1, 200170, Note_on_c, 9, 51, 0
1, 200399, Note_on_c, 9, 40, 0
1, 200400, Note_on_c, 9, 46, 60
1, 200410, Note_on_c, 9, 46, 0
1, 200640, Note_on_c, 9, 46, 60
1, 200640, Note_on_c, 9, 51, 120
1, 200640, Note_on_c, 9, 35, 115
1, 200650, Note_on_c, 9, 46, 0
1, 200650, Note_on_c, 9, 51, 0
1, 200879, Note_on_c, 9, 35, 0
1, 200880, Note_on_c, 9, 46, 60
1, 200880, Note_on_c, 9, 35, 115
1, 200890, Note_on_c, 9, 46, 0
1, 201119, Note_on_c, 9, 35, 0
1, 201120, Note_on_c, 9, 40, 115
1, 201120, Note_on_c, 9, 46, 60
1, 201120, Note_on_c, 9, 51, 120
1, 201130, Note_on_c, 9, 46, 0
1, 201130, Note_on_c, 9, 51, 0
1, 201359, Note_on_c, 9, 40, 0
1, 201360, Note_on_c, 9, 46, 60
1, 201370, Note_on_c, 9, 46, 0
1, 201600, Note_on_c, 9, 46, 60
1, 201600, Note_on_c, 9, 51, 120
1, 201600, Note_on_c, 9, 35, 115
1, 201610, Note_on_c, 9, 46, 0
1, 201610, Note_on_c, 9, 51, 0
1, 201840, Note_on_c, 9, 46, 60
1, 201850, Note_on_c, 9, 46, 0
1, 202079, Note_on_c, 9, 35, 0
1, 202080, Note_on_c, 9, 40, 115
1, 202080, Note_on_c, 9, 46, 60
1, 202080, Note_on_c, 9, 51, 120
1, 202090, Note_on_c, 9, 46, 0
1, 202090, Note_on_c, 9, 51, 0
1, 202319, Note_on_c, 9, 40, 0
1, 202320, Note_on_c, 9, 46, 60
1, 202330, Note_on_c, 9, 46, 0
1, 202560, Note_on_c, 9, 46, 60
1, 202560, Note_on_c, 9, 51, 120
1, 202560, Note_on_c, 9, 35, 115
1, 202570, Note_on_c, 9, 46, 0
1, 202570, Note_on_c, 9, 51, 0
1, 202800, Note_on_c, 9, 46, 60
1, 202810, Note_on_c, 9, 46, 0
1, 203039, Note_on_c, 9, 35, 0
1, 203040, Note_on_c, 9, 40, 115
1, 203040, Note_on_c, 9, 46, 60
1, 203040, Note_on_c, 9, 51, 120
1, 203050, Note_on_c, 9, 46, 0
1, 203050, Note_on_c, 9, 51, 0
1, 203279, Note_on_c, 9, 40, 0
1, 203280, Note_on_c, 9, 46, 60
1, 203290, Note_on_c, 9, 46, 0
1, 203520, Note_on_c, 9, 46, 60
1, 203520, Note_on_c, 9, 51, 120
1, 203520, Note_on_c, 9, 35, 115
1, 203530, Note_on_c, 9, 46, 0
1, 203530, Note_on_c, 9, 51, 0
1, 203760, Note_on_c, 9, 46, 60
1, 203770, Note_on_c, 9, 46, 0
1, 203999, Note_on_c, 9, 35, 0
1, 204000, Note_on_c, 9, 40, 115
1, 204000, Note_on_c, 9, 46, 60
1, 204000, Note_on_c, 9, 51, 120
1, 204010, Note_on_c, 9, 46, 0
1, 204010, Note_on_c, 9, 51, 0
1, 204239, Note_on_c, 9, 40, 0
1, 204240, Note_on_c, 9, 46, 60
1, 204250, Note_on_c, 9, 46, 0
1, 204480, Note_on_c, 9, 46, 60
1, 204480, Note_on_c, 9, 51, 120
1, 204480, Note_on_c, 9, 35, 115
1, 204490, Note_on_c, 9, 46, 0
1, 204490, Note_on_c, 9, 51, 0
1, 204719, Note_on_c, 9, 35, 0
1, 204720, Note_on_c, 9, 46, 60
1, 204720, Note_on_c, 9, 35, 115
1, 204730, Note_on_c, 9, 46, 0
1, 204959, Note_on_c, 9, 35, 0
1, 204960, Note_on_c, 9, 40, 115
1, 204960, Note_on_c, 9, 46, 60
1, 204960, Note_on_c, 9, 51, 120
1, 204970, Note_on_c, 9, 46, 0
1, 204970, Note_on_c, 9, 51, 0
1, 205199, Note_on_c, 9, 40, 0
1, 205200, Note_on_c, 9, 46, 60
1, 205210, Note_on_c, 9, 46, 0
1, 205440, Note_on_c, 9, 49, 80
1, 205440, Note_on_c, 9, 35, 115
1, 205462, Note_on_c, 9, 49, 0
1, 205919, Note_on_c, 9, 35, 0
1, 205920, Note_on_c, 9, 40, 115
1, 205920, Note_on_c, 9, 46, 60
1, 205920, Note_on_c, 9, 51, 120
1, 205930, Note_on_c, 9, 46, 0
1, 205930, Note_on_c, 9, 51, 0
1, 206159, Note_on_c, 9, 40, 0
1, 206160, Note_on_c, 9, 46, 60
1, 206170, Note_on_c, 9, 46, 0
1, 206400, Note_on_c, 9, 46, 60
1, 206400, Note_on_c, 9, 51, 120
1, 206400, Note_on_c, 9, 35, 115
1, 206410, Note_on_c, 9, 46, 0
1, 206410, Note_on_c, 9, 51, 0
1, 206640, Note_on_c, 9, 46, 60
1, 206650, Note_on_c, 9, 46, 0
1, 206879, Note_on_c, 9, 35, 0
1, 206880, Note_on_c, 9, 40, 115
1, 206880, Note_on_c, 9, 46, 60
1, 206880, Note_on_c, 9, 51, 120
1, 206890, Note_on_c, 9, 46, 0
1, 206890, Note_on_c, 9, 51, 0
1, 207119, Note_on_c, 9, 40, 0
1, 207120, Note_on_c, 9, 46, 60
1, 207130, Note_on_c, 9, 46, 0
1, 207360, Note_on_c, 9, 46, 60
1, 207360, Note_on_c, 9, 51, 120
1, 207360, Note_on_c, 9, 35, 115
1, 207370, Note_on_c, 9, 46, 0
1, 207370, Note_on_c, 9, 51, 0
1, 207600, Note_on_c, 9, 46, 60
1, 207610, Note_on_c, 9, 46, 0
1, 207839, Note_on_c, 9, 35, 0
1, 207840, Note_on_c, 9, 40, 115
1, 207840, Note_on_c, 9, 46, 60
1, 207840, Note_on_c, 9, 51, 120
1, 207850, Note_on_c, 9, 46, 0
1, 207850, Note_on_c, 9, 51, 0
1, 208079, Note_on_c, 9, 40, 0
1, 208080, Note_on_c, 9, 46, 60
1, 208090, Note_on_c, 9, 46, 0
1, 208320, Note_on_c, 9, 46, 60
1, 208320, Note_on_c, 9, 51, 120
1, 208320, Note_on_c, 9, 35, 115
1, 208330, Note_on_c, 9, 46, 0
1, 208330, Note_on_c, 9, 51, 0
1, 208559, Note_on_c, 9, 35, 0
1, 208560, Note_on_c, 9, 46, 60
1, 208560, Note_on_c, 9, 35, 115
1, 208570, Note_on_c, 9, 46, 0
1, 208799, Note_on_c, 9, 35, 0
1, 208800, Note_on_c, 9, 40, 115
1, 208800, Note_on_c, 9, 46, 60
1, 208800, Note_on_c, 9, 51, 120
1, 208810, Note_on_c, 9, 46, 0
1, 208810, Note_on_c, 9, 51, 0
1, 209039, Note_on_c, 9, 40, 0
1, 209040, Note_on_c, 9, 46, 60
1, 209050, Note_on_c, 9, 46, 0
1, 209280, Note_on_c, 9, 46, 60
1, 209280, Note_on_c, 9, 51, 120
1, 209280, Note_on_c, 9, 35, 115
1, 209290, Note_on_c, 9, 46, 0
1, 209290, Note_on_c, 9, 51, 0
1, 209520, Note_on_c, 9, 46, 60
1, 209530, Note_on_c, 9, 46, 0
1, 209759, Note_on_c, 9, 35, 0
1, 209760, Note_on_c, 9, 40, 115
1, 209760, Note_on_c, 9, 46, 60
1, 209760, Note_on_c, 9, 51, 120
1, 209770, Note_on_c, 9, 46, 0
1, 209770, Note_on_c, 9, 51, 0
1, 209999, Note_on_c, 9, 40, 0
1, 210000, Note_on_c, 9, 46, 60
1, 210010, Note_on_c, 9, 46, 0
1, 210240, Note_on_c, 9, 46, 60
1, 210240, Note_on_c, 9, 51, 120
1, 210240, Note_on_c, 9, 35, 115
1, 210250, Note_on_c, 9, 46, 0
1, 210250, Note_on_c, 9, 51, 0
1, 210480, Note_on_c, 9, 46, 60
1, 210490, Note_on_c, 9, 46, 0
1, 210719, Note_on_c, 9, 35, 0
1, 210720, Note_on_c, 9, 40, 115
1, 210720, Note_on_c, 9, 46, 60
1, 210720, Note_on_c, 9, 51, 120
1, 210730, Note_on_c, 9, 46, 0
1, 210730, Note_on_c, 9, 51, 0
1, 210959, Note_on_c, 9, 40, 0
1, 210960, Note_on_c, 9, 46, 60
1, 210970, Note_on_c, 9, 46, 0
1, 211200, Note_on_c, 9, 46, 60
1, 211200, Note_on_c, 9, 51, 120
1, 211200, Note_on_c, 9, 35, 115
1, 211210, Note_on_c, 9, 46, 0
1, 211210, Note_on_c, 9, 51, 0
1, 211440, Note_on_c, 9, 46, 60
1, 211450, Note_on_c, 9, 46, 0
1, 211679, Note_on_c, 9, 35, 0
1, 211680, Note_on_c, 9, 40, 115
1, 211680, Note_on_c, 9, 46, 60
1, 211680, Note_on_c, 9, 51, 120
1, 211690, Note_on_c, 9, 46, 0
1, 211690, Note_on_c, 9, 51, 0
1, 211919, Note_on_c, 9, 40, 0
1, 211920, Note_on_c, 9, 46, 60
1, 211930, Note_on_c, 9, 46, 0
1, 212160, Note_on_c, 9, 46, 60
1, 212160, Note_on_c, 9, 51, 120
1, 212160, Note_on_c, 9, 35, 115
1, 212170, Note_on_c, 9, 46, 0
1, 212170, Note_on_c, 9, 51, 0
1, 212399, Note_on_c, 9, 35, 0
1, 212400, Note_on_c, 9, 46, 60
1, 212400, Note_on_c, 9, 35, 115
1, 212410, Note_on_c, 9, 46, 0
1, 212639, Note_on_c, 9, 35, 0
1, 212640, Note_on_c, 9, 40, 115
1, 212640, Note_on_c, 9, 46, 60
1, 212640, Note_on_c, 9, 51, 120
1, 212650, Note_on_c, 9, 46, 0
1, 212650, Note_on_c, 9, 51, 0
1, 212879, Note_on_c, 9, 40, 0
1, 212880, Note_on_c, 9, 46, 60
1, 212890, Note_on_c, 9, 46, 0
1, 212891, End_track
0, 0, End_of_file
