0, 0, Header, 1, 1, 480
1, 0, Start_track
1, 0, Title_t, "Drumset"
1, 0, Time_signature, 4, 2, 24, 8
1, 0, Key_signature, 0, "major"
1, 0, Tempo, 465116
1, 0, Control_c, 9, 121, 0
1, 0, Program_c, 9, 0
1, 0, Control_c, 9, 7, 100
1, 0, Control_c, 9, 10, 64
1, 0, Control_c, 9, 91, 0
1, 0, Control_c, 9, 93, 0
1, 0, MIDI_port, 1
1, 9360, Note_on_c, 9, 49, 108
1, 9360, Note_on_c, 9, 36, 123
1, 9371, Note_on_c, 9, 49, 0
1, 9599, Note_on_c, 9, 36, 0
1, 9600, Note_on_c, 9, 49, 124
1, 9600, Note_on_c, 9, 36, 123
1, 9611, Note_on_c, 9, 49, 0
1, 9839, Note_on_c, 9, 36, 0
1, 9840, Note_on_c, 9, 49, 92
1, 9840, Note_on_c, 9, 36, 123
1, 9851, Note_on_c, 9, 49, 0
1, 10079, Note_on_c, 9, 36, 0
1, 10080, Note_on_c, 9, 49, 108
1, 10080, Note_on_c, 9, 36, 123
1, 10103, Note_on_c, 9, 49, 0
1, 10559, Note_on_c, 9, 36, 0
1, 15600, Note_on_c, 9, 38, 95
1, 15719, Note_on_c, 9, 38, 0
1, 15720, Note_on_c, 9, 38, 111
1, 15839, Note_on_c, 9, 38, 0
1, 15840, Note_on_c, 9, 38, 127
1, 16079, Note_on_c, 9, 38, 0
1, 16080, Note_on_c, 9, 48, 104
1, 16199, Note_on_c, 9, 48, 0
1, 16200, Note_on_c, 9, 48, 120
1, 16319, Note_on_c, 9, 48, 0
1, 16320, Note_on_c, 9, 48, 127
1, 16559, Note_on_c, 9, 48, 0
1, 16560, Note_on_c, 9, 45, 120
1, 16739, Note_on_c, 9, 45, 0
1, 16780, Note_on_c, 9, 38, 108
1, 16799, Note_on_c, 9, 38, 0
1, 16815, Note_on_c, 9, 38, 127
1, 17039, Note_on_c, 9, 38, 0
1, 17280, Note_on_c, 9, 49, 127
1, 17280, Note_on_c, 9, 36, 123
1, 17291, Note_on_c, 9, 49, 0
1, 17520, Note_on_c, 9, 54, 76
1, 17759, Note_on_c, 9, 36, 0
1, 17759, Note_on_c, 9, 54, 0
1, 17760, Note_on_c, 9, 38, 127
1, 17760, Note_on_c, 9, 54, 92
1, 17999, Note_on_c, 9, 38, 0
1, 17999, Note_on_c, 9, 54, 0
1, 18000, Note_on_c, 9, 54, 52
1, 18239, Note_on_c, 9, 54, 0
1, 18240, Note_on_c, 9, 54, 92
1, 18240, Note_on_c, 9, 36, 123
1, 18479, Note_on_c, 9, 54, 0
1, 18479, Note_on_c, 9, 36, 0
1, 18480, Note_on_c, 9, 54, 45
1, 18480, Note_on_c, 9, 36, 123
1, 18719, Note_on_c, 9, 54, 0
1, 18719, Note_on_c, 9, 36, 0
1, 18720, Note_on_c, 9, 38, 127
1, 18720, Note_on_c, 9, 54, 95
1, 18959, Note_on_c, 9, 38, 0
1, 18959, Note_on_c, 9, 54, 0
1, 18960, Note_on_c, 9, 54, 56
1, 19199, Note_on_c, 9, 54, 0
1, 19200, Note_on_c, 9, 54, 92
1, 19200, Note_on_c, 9, 36, 123
1, 19439, Note_on_c, 9, 54, 0
1, 19439, Note_on_c, 9, 36, 0
1, 19440, Note_on_c, 9, 54, 61
1, 19440, Note_on_c, 9, 36, 123
1, 19679, Note_on_c, 9, 54, 0
1, 19679, Note_on_c, 9, 36, 0
1, 19680, Note_on_c, 9, 38, 127
1, 19680, Note_on_c, 9, 54, 58
1, 19919, Note_on_c, 9, 38, 0
1, 19919, Note_on_c, 9, 54, 0
1, 19920, Note_on_c, 9, 54, 116
1, 20159, Note_on_c, 9, 54, 0
1, 20160, Note_on_c, 9, 54, 92
1, 20160, Note_on_c, 9, 36, 123
1, 20399, Note_on_c, 9, 54, 0
1, 20399, Note_on_c, 9, 36, 0
1, 20400, Note_on_c, 9, 54, 120
1, 20400, Note_on_c, 9, 36, 123
1, 20639, Note_on_c, 9, 54, 0
1, 20639, Note_on_c, 9, 36, 0
1, 20640, Note_on_c, 9, 38, 127
1, 20640, Note_on_c, 9, 54, 80
1, 20879, Note_on_c, 9, 38, 0
1, 20879, Note_on_c, 9, 54, 0
1, 20880, Note_on_c, 9, 54, 121
1, 21119, Note_on_c, 9, 54, 0
1, 21120, Note_on_c, 9, 54, 67
1, 21120, Note_on_c, 9, 36, 123
1, 21359, Note_on_c, 9, 54, 0
1, 21359, Note_on_c, 9, 36, 0
1, 21360, Note_on_c, 9, 54, 87
1, 21360, Note_on_c, 9, 36, 123
1, 21599, Note_on_c, 9, 54, 0
1, 21599, Note_on_c, 9, 36, 0
1, 21600, Note_on_c, 9, 38, 127
1, 21600, Note_on_c, 9, 54, 92
1, 21839, Note_on_c, 9, 38, 0
1, 21839, Note_on_c, 9, 54, 0
1, 21840, Note_on_c, 9, 54, 61
1, 22079, Note_on_c, 9, 54, 0
1, 22080, Note_on_c, 9, 54, 127
1, 22080, Note_on_c, 9, 36, 123
1, 22319, Note_on_c, 9, 54, 0
1, 22319, Note_on_c, 9, 36, 0
1, 22320, Note_on_c, 9, 54, 66
1, 22320, Note_on_c, 9, 36, 123
1, 22559, Note_on_c, 9, 54, 0
1, 22559, Note_on_c, 9, 36, 0
1, 22560, Note_on_c, 9, 38, 127
1, 22560, Note_on_c, 9, 54, 64
1, 22799, Note_on_c, 9, 38, 0
1, 22799, Note_on_c, 9, 54, 0
1, 22800, Note_on_c, 9, 54, 126
1, 23039, Note_on_c, 9, 54, 0
1, 23040, Note_on_c, 9, 54, 82
1, 23040, Note_on_c, 9, 36, 123
1, 23279, Note_on_c, 9, 54, 0
1, 23280, Note_on_c, 9, 54, 62
1, 23519, Note_on_c, 9, 36, 0
1, 23519, Note_on_c, 9, 54, 0
1, 23520, Note_on_c, 9, 38, 127
1, 23520, Note_on_c, 9, 54, 85
1, 23759, Note_on_c, 9, 38, 0
1, 23759, Note_on_c, 9, 54, 0
1, 23760, Note_on_c, 9, 54, 119
1, 23999, Note_on_c, 9, 54, 0
1, 24000, Note_on_c, 9, 54, 81
1, 24000, Note_on_c, 9, 36, 123
1, 24239, Note_on_c, 9, 54, 0
1, 24239, Note_on_c, 9, 36, 0
1, 24240, Note_on_c, 9, 54, 120
1, 24240, Note_on_c, 9, 36, 123
1, 24479, Note_on_c, 9, 54, 0
1, 24479, Note_on_c, 9, 36, 0
1, 24480, Note_on_c, 9, 38, 127
1, 24480, Note_on_c, 9, 54, 76
1, 24719, Note_on_c, 9, 38, 0
1, 24719, Note_on_c, 9, 54, 0
1, 24720, Note_on_c, 9, 54, 121
1, 24959, Note_on_c, 9, 54, 0
1, 24960, Note_on_c, 9, 54, 106
1, 24960, Note_on_c, 9, 36, 123
1, 25199, Note_on_c, 9, 54, 0
1, 25200, Note_on_c, 9, 54, 76
1, 25439, Note_on_c, 9, 36, 0
1, 25439, Note_on_c, 9, 54, 0
1, 25440, Note_on_c, 9, 38, 127
1, 25440, Note_on_c, 9, 54, 114
1, 25679, Note_on_c, 9, 38, 0
1, 25679, Note_on_c, 9, 54, 0
1, 25680, Note_on_c, 9, 54, 70
1, 25919, Note_on_c, 9, 54, 0
1, 25920, Note_on_c, 9, 54, 69
1, 25920, Note_on_c, 9, 36, 123
1, 26159, Note_on_c, 9, 54, 0
1, 26159, Note_on_c, 9, 36, 0
1, 26160, Note_on_c, 9, 54, 119
1, 26160, Note_on_c, 9, 36, 123
1, 26399, Note_on_c, 9, 54, 0
1, 26399, Note_on_c, 9, 36, 0
1, 26400, Note_on_c, 9, 38, 127
1, 26400, Note_on_c, 9, 54, 92
1, 26639, Note_on_c, 9, 38, 0
1, 26639, Note_on_c, 9, 54, 0
1, 26640, Note_on_c, 9, 54, 59
1, 26879, Note_on_c, 9, 54, 0
1, 26880, Note_on_c, 9, 54, 127
1, 26880, Note_on_c, 9, 36, 123
1, 27119, Note_on_c, 9, 54, 0
1, 27119, Note_on_c, 9, 36, 0
1, 27120, Note_on_c, 9, 54, 69
1, 27120, Note_on_c, 9, 36, 123
1, 27359, Note_on_c, 9, 54, 0
1, 27359, Note_on_c, 9, 36, 0
1, 27360, Note_on_c, 9, 38, 127
1, 27360, Note_on_c, 9, 54, 57
1, 27599, Note_on_c, 9, 38, 0
1, 27599, Note_on_c, 9, 54, 0
1, 27600, Note_on_c, 9, 54, 55
1, 27839, Note_on_c, 9, 54, 0
1, 27840, Note_on_c, 9, 54, 118
1, 27840, Note_on_c, 9, 36, 123
1, 28079, Note_on_c, 9, 54, 0
1, 28079, Note_on_c, 9, 36, 0
1, 28080, Note_on_c, 9, 54, 60
1, 28080, Note_on_c, 9, 36, 123
1, 28319, Note_on_c, 9, 54, 0
1, 28319, Note_on_c, 9, 36, 0
1, 28320, Note_on_c, 9, 38, 127
1, 28320, Note_on_c, 9, 54, 73
1, 28559, Note_on_c, 9, 38, 0
1, 28559, Note_on_c, 9, 54, 0
1, 28560, Note_on_c, 9, 54, 127
1, 28799, Note_on_c, 9, 54, 0
1, 28800, Note_on_c, 9, 54, 92
1, 28800, Note_on_c, 9, 36, 123
1, 29039, Note_on_c, 9, 54, 0
1, 29039, Note_on_c, 9, 36, 0
1, 29040, Note_on_c, 9, 54, 60
1, 29040, Note_on_c, 9, 36, 123
1, 29279, Note_on_c, 9, 54, 0
1, 29279, Note_on_c, 9, 36, 0
1, 29280, Note_on_c, 9, 38, 127
1, 29280, Note_on_c, 9, 54, 127
1, 29519, Note_on_c, 9, 38, 0
1, 29519, Note_on_c, 9, 54, 0
1, 29520, Note_on_c, 9, 54, 126
1, 29759, Note_on_c, 9, 54, 0
1, 29760, Note_on_c, 9, 54, 92
1, 29760, Note_on_c, 9, 36, 123
1, 29999, Note_on_c, 9, 54, 0
1, 29999, Note_on_c, 9, 36, 0
1, 30000, Note_on_c, 9, 54, 127
1, 30000, Note_on_c, 9, 36, 123
1, 30239, Note_on_c, 9, 54, 0
1, 30239, Note_on_c, 9, 36, 0
1, 30240, Note_on_c, 9, 38, 127
1, 30240, Note_on_c, 9, 54, 92
1, 30479, Note_on_c, 9, 38, 0
1, 30479, Note_on_c, 9, 54, 0
1, 30480, Note_on_c, 9, 54, 127
1, 30719, Note_on_c, 9, 54, 0
1, 30720, Note_on_c, 9, 54, 92
1, 30720, Note_on_c, 9, 36, 123
1, 30944, Note_on_c, 9, 54, 0
1, 30945, Note_on_c, 9, 54, 54
1, 30959, Note_on_c, 9, 36, 0
1, 30960, Note_on_c, 9, 38, 62
1, 30960, Note_on_c, 9, 36, 123
1, 31019, Note_on_c, 9, 38, 0
1, 31049, Note_on_c, 9, 54, 0
1, 31050, Note_on_c, 9, 38, 54
1, 31079, Note_on_c, 9, 38, 0
1, 31080, Note_on_c, 9, 38, 66
1, 31139, Note_on_c, 9, 38, 0
1, 31185, Note_on_c, 9, 54, 92
1, 31199, Note_on_c, 9, 36, 0
1, 31200, Note_on_c, 9, 38, 111
1, 31319, Note_on_c, 9, 54, 0
1, 31319, Note_on_c, 9, 38, 0
1, 31320, Note_on_c, 9, 50, 103
1, 31439, Note_on_c, 9, 50, 0
1, 31440, Note_on_c, 9, 54, 44
1, 31440, Note_on_c, 9, 36, 123
1, 31559, Note_on_c, 9, 54, 0
1, 31560, Note_on_c, 9, 48, 127
1, 31619, Note_on_c, 9, 48, 0
1, 31665, Note_on_c, 9, 54, 92
1, 31679, Note_on_c, 9, 36, 0
1, 31680, Note_on_c, 9, 50, 127
1, 31799, Note_on_c, 9, 54, 0
1, 31799, Note_on_c, 9, 50, 0
1, 31800, Note_on_c, 9, 48, 104
1, 31859, Note_on_c, 9, 48, 0
1, 31905, Note_on_c, 9, 54, 46
1, 31920, Note_on_c, 9, 48, 44
1, 31920, Note_on_c, 9, 36, 123
1, 32039, Note_on_c, 9, 54, 0
1, 32039, Note_on_c, 9, 48, 0
1, 32040, Note_on_c, 9, 45, 99
1, 32099, Note_on_c, 9, 45, 0
1, 32145, Note_on_c, 9, 38, 127
1, 32145, Note_on_c, 9, 54, 92
1, 32159, Note_on_c, 9, 36, 0
1, 32160, Note_on_c, 9, 45, 127
1, 32399, Note_on_c, 9, 38, 0
1, 32399, Note_on_c, 9, 54, 0
1, 32399, Note_on_c, 9, 45, 0
1, 32400, Note_on_c, 9, 49, 127
1, 32400, Note_on_c, 9, 57, 127
1, 32400, Note_on_c, 9, 36, 123
1, 32408, Note_on_c, 9, 57, 0
1, 32410, Note_on_c, 9, 49, 0
1, 32625, Note_on_c, 9, 54, 74
1, 32625, Note_on_c, 9, 49, 127
1, 32635, Note_on_c, 9, 49, 0
1, 32639, Note_on_c, 9, 36, 0
1, 32879, Note_on_c, 9, 54, 0
1, 32880, Note_on_c, 9, 54, 117
1, 32880, Note_on_c, 9, 36, 123
1, 33119, Note_on_c, 9, 54, 0
1, 33119, Note_on_c, 9, 36, 0
1, 33120, Note_on_c, 9, 38, 127
1, 33120, Note_on_c, 9, 54, 92
1, 33359, Note_on_c, 9, 38, 0
1, 33359, Note_on_c, 9, 54, 0
1, 33360, Note_on_c, 9, 54, 66
1, 33599, Note_on_c, 9, 54, 0
1, 33600, Note_on_c, 9, 54, 113
1, 33600, Note_on_c, 9, 36, 123
1, 33839, Note_on_c, 9, 54, 0
1, 33839, Note_on_c, 9, 36, 0
1, 33840, Note_on_c, 9, 54, 65
1, 33840, Note_on_c, 9, 36, 123
1, 34079, Note_on_c, 9, 54, 0
1, 34079, Note_on_c, 9, 36, 0
1, 34080, Note_on_c, 9, 38, 127
1, 34080, Note_on_c, 9, 54, 75
1, 34319, Note_on_c, 9, 38, 0
1, 34319, Note_on_c, 9, 54, 0
1, 34320, Note_on_c, 9, 54, 116
1, 34559, Note_on_c, 9, 54, 0
1, 34560, Note_on_c, 9, 54, 98
1, 34560, Note_on_c, 9, 36, 123
1, 34799, Note_on_c, 9, 54, 0
1, 34799, Note_on_c, 9, 36, 0
1, 34800, Note_on_c, 9, 54, 57
1, 34800, Note_on_c, 9, 36, 123
1, 35039, Note_on_c, 9, 54, 0
1, 35039, Note_on_c, 9, 36, 0
1, 35040, Note_on_c, 9, 38, 127
1, 35040, Note_on_c, 9, 54, 116
1, 35279, Note_on_c, 9, 38, 0
1, 35279, Note_on_c, 9, 54, 0
1, 35280, Note_on_c, 9, 54, 65
1, 35519, Note_on_c, 9, 54, 0
1, 35520, Note_on_c, 9, 54, 70
1, 35520, Note_on_c, 9, 36, 123
1, 35759, Note_on_c, 9, 54, 0
1, 35759, Note_on_c, 9, 36, 0
1, 35760, Note_on_c, 9, 54, 120
1, 35760, Note_on_c, 9, 36, 123
1, 35999, Note_on_c, 9, 54, 0
1, 35999, Note_on_c, 9, 36, 0
1, 36000, Note_on_c, 9, 38, 127
1, 36000, Note_on_c, 9, 54, 92
1, 36239, Note_on_c, 9, 38, 0
1, 36239, Note_on_c, 9, 54, 0
1, 36240, Note_on_c, 9, 54, 71
1, 36479, Note_on_c, 9, 54, 0
1, 36480, Note_on_c, 9, 54, 127
1, 36480, Note_on_c, 9, 36, 123
1, 36719, Note_on_c, 9, 54, 0
1, 36719, Note_on_c, 9, 36, 0
1, 36720, Note_on_c, 9, 54, 76
1, 36720, Note_on_c, 9, 36, 123
1, 36959, Note_on_c, 9, 54, 0
1, 36959, Note_on_c, 9, 36, 0
1, 36960, Note_on_c, 9, 38, 127
1, 36960, Note_on_c, 9, 54, 66
1, 37199, Note_on_c, 9, 38, 0
1, 37199, Note_on_c, 9, 54, 0
1, 37200, Note_on_c, 9, 54, 100
1, 37439, Note_on_c, 9, 54, 0
1, 37440, Note_on_c, 9, 54, 84
1, 37440, Note_on_c, 9, 36, 123
1, 37679, Note_on_c, 9, 54, 0
1, 37679, Note_on_c, 9, 36, 0
1, 37680, Note_on_c, 9, 54, 76
1, 37680, Note_on_c, 9, 36, 123
1, 37919, Note_on_c, 9, 54, 0
1, 37919, Note_on_c, 9, 36, 0
1, 37920, Note_on_c, 9, 38, 127
1, 37920, Note_on_c, 9, 54, 114
1, 38159, Note_on_c, 9, 38, 0
1, 38159, Note_on_c, 9, 54, 0
1, 38160, Note_on_c, 9, 54, 65
1, 38399, Note_on_c, 9, 54, 0
1, 38400, Note_on_c, 9, 54, 116
1, 38400, Note_on_c, 9, 36, 123
1, 38639, Note_on_c, 9, 54, 0
1, 38640, Note_on_c, 9, 54, 76
1, 38879, Note_on_c, 9, 36, 0
1, 38879, Note_on_c, 9, 54, 0
1, 38880, Note_on_c, 9, 38, 127
1, 38880, Note_on_c, 9, 54, 110
1, 39119, Note_on_c, 9, 38, 0
1, 39119, Note_on_c, 9, 54, 0
1, 39120, Note_on_c, 9, 54, 70
1, 39359, Note_on_c, 9, 54, 0
1, 39360, Note_on_c, 9, 54, 76
1, 39360, Note_on_c, 9, 36, 123
1, 39599, Note_on_c, 9, 54, 0
1, 39599, Note_on_c, 9, 36, 0
1, 39600, Note_on_c, 9, 54, 119
1, 39600, Note_on_c, 9, 36, 123
1, 39619, Note_on_c, 9, 54, 0
1, 39620, Note_on_c, 9, 45, 44
1, 39659, Note_on_c, 9, 45, 0
1, 39690, Note_on_c, 9, 45, 56
1, 39719, Note_on_c, 9, 45, 0
1, 39720, Note_on_c, 9, 45, 46
1, 39839, Note_on_c, 9, 36, 0
1, 39839, Note_on_c, 9, 45, 0
1, 39840, Note_on_c, 9, 38, 127
1, 39840, Note_on_c, 9, 45, 113
1, 39840, Note_on_c, 9, 54, 90
1, 40079, Note_on_c, 9, 38, 0
1, 40079, Note_on_c, 9, 45, 0
1, 40079, Note_on_c, 9, 54, 0
1, 40080, Note_on_c, 9, 54, 62
1, 40099, Note_on_c, 9, 54, 0
1, 40100, Note_on_c, 9, 41, 114
1, 40139, Note_on_c, 9, 41, 0
1, 40320, Note_on_c, 9, 41, 121
1, 40320, Note_on_c, 9, 54, 124
1, 40320, Note_on_c, 9, 36, 123
1, 40559, Note_on_c, 9, 41, 0
1, 40559, Note_on_c, 9, 54, 0
1, 40559, Note_on_c, 9, 36, 0
1, 40560, Note_on_c, 9, 54, 76
1, 40560, Note_on_c, 9, 36, 123
1, 40799, Note_on_c, 9, 54, 0
1, 40799, Note_on_c, 9, 36, 0
1, 40800, Note_on_c, 9, 38, 127
1, 40800, Note_on_c, 9, 54, 81
1, 41039, Note_on_c, 9, 38, 0
1, 41039, Note_on_c, 9, 54, 0
1, 41040, Note_on_c, 9, 54, 127
1, 41279, Note_on_c, 9, 54, 0
1, 41280, Note_on_c, 9, 54, 87
1, 41280, Note_on_c, 9, 36, 123
1, 41519, Note_on_c, 9, 54, 0
1, 41519, Note_on_c, 9, 36, 0
1, 41520, Note_on_c, 9, 54, 64
1, 41520, Note_on_c, 9, 36, 123
1, 41759, Note_on_c, 9, 54, 0
1, 41759, Note_on_c, 9, 36, 0
1, 41760, Note_on_c, 9, 38, 127
1, 41760, Note_on_c, 9, 54, 117
1, 41999, Note_on_c, 9, 38, 0
1, 41999, Note_on_c, 9, 54, 0
1, 42000, Note_on_c, 9, 54, 68
1, 42239, Note_on_c, 9, 54, 0
1, 42240, Note_on_c, 9, 54, 92
1, 42240, Note_on_c, 9, 36, 123
1, 42479, Note_on_c, 9, 54, 0
1, 42479, Note_on_c, 9, 36, 0
1, 42480, Note_on_c, 9, 54, 66
1, 42480, Note_on_c, 9, 36, 123
1, 42719, Note_on_c, 9, 54, 0
1, 42719, Note_on_c, 9, 36, 0
1, 42720, Note_on_c, 9, 38, 127
1, 42720, Note_on_c, 9, 54, 69
1, 42959, Note_on_c, 9, 38, 0
1, 42959, Note_on_c, 9, 54, 0
1, 42960, Note_on_c, 9, 54, 127
1, 43199, Note_on_c, 9, 54, 0
1, 43200, Note_on_c, 9, 54, 92
1, 43200, Note_on_c, 9, 36, 123
1, 43439, Note_on_c, 9, 54, 0
1, 43439, Note_on_c, 9, 36, 0
1, 43440, Note_on_c, 9, 54, 64
1, 43440, Note_on_c, 9, 36, 123
1, 43679, Note_on_c, 9, 54, 0
1, 43679, Note_on_c, 9, 36, 0
1, 43680, Note_on_c, 9, 38, 127
1, 43680, Note_on_c, 9, 54, 127
1, 43919, Note_on_c, 9, 38, 0
1, 43919, Note_on_c, 9, 54, 0
1, 43920, Note_on_c, 9, 54, 69
1, 44159, Note_on_c, 9, 54, 0
1, 44160, Note_on_c, 9, 54, 126
1, 44160, Note_on_c, 9, 36, 123
1, 44399, Note_on_c, 9, 54, 0
1, 44399, Note_on_c, 9, 36, 0
1, 44400, Note_on_c, 9, 54, 70
1, 44400, Note_on_c, 9, 36, 123
1, 44639, Note_on_c, 9, 54, 0
1, 44639, Note_on_c, 9, 36, 0
1, 44640, Note_on_c, 9, 38, 127
1, 44640, Note_on_c, 9, 54, 92
1, 44879, Note_on_c, 9, 38, 0
1, 44879, Note_on_c, 9, 54, 0
1, 44880, Note_on_c, 9, 54, 127
1, 45119, Note_on_c, 9, 54, 0
1, 45120, Note_on_c, 9, 54, 92
1, 45120, Note_on_c, 9, 36, 123
1, 45359, Note_on_c, 9, 54, 0
1, 45359, Note_on_c, 9, 36, 0
1, 45360, Note_on_c, 9, 54, 125
1, 45360, Note_on_c, 9, 36, 123
1, 45599, Note_on_c, 9, 54, 0
1, 45599, Note_on_c, 9, 36, 0
1, 45600, Note_on_c, 9, 38, 127
1, 45600, Note_on_c, 9, 54, 92
1, 45839, Note_on_c, 9, 38, 0
1, 45839, Note_on_c, 9, 54, 0
1, 45840, Note_on_c, 9, 54, 127
1, 46079, Note_on_c, 9, 54, 0
1, 46080, Note_on_c, 9, 54, 92
1, 46080, Note_on_c, 9, 36, 123
1, 46094, Note_on_c, 9, 54, 0
1, 46095, Note_on_c, 9, 48, 78
1, 46095, Note_on_c, 9, 50, 91
1, 46154, Note_on_c, 9, 48, 0
1, 46154, Note_on_c, 9, 50, 0
1, 46320, Note_on_c, 9, 54, 76
1, 46439, Note_on_c, 9, 54, 0
1, 46440, Note_on_c, 9, 45, 102
1, 46440, Note_on_c, 9, 48, 62
1, 46559, Note_on_c, 9, 36, 0
1, 46559, Note_on_c, 9, 45, 0
1, 46559, Note_on_c, 9, 48, 0
1, 46560, Note_on_c, 9, 38, 127
1, 46560, Note_on_c, 9, 54, 92
1, 46799, Note_on_c, 9, 38, 0
1, 46799, Note_on_c, 9, 54, 0
1, 46800, Note_on_c, 9, 54, 76
1, 46819, Note_on_c, 9, 54, 0
1, 46820, Note_on_c, 9, 41, 103
1, 46839, Note_on_c, 9, 41, 0
1, 46840, Note_on_c, 9, 45, 95
1, 46859, Note_on_c, 9, 45, 0
1, 47040, Note_on_c, 9, 54, 92
1, 47040, Note_on_c, 9, 36, 123
1, 47264, Note_on_c, 9, 54, 0
1, 47265, Note_on_c, 9, 38, 127
1, 47279, Note_on_c, 9, 36, 0
1, 47280, Note_on_c, 9, 41, 93
1, 47280, Note_on_c, 9, 45, 93
1, 47280, Note_on_c, 9, 36, 123
1, 47519, Note_on_c, 9, 38, 0
1, 47519, Note_on_c, 9, 41, 0
1, 47519, Note_on_c, 9, 45, 0
1, 47519, Note_on_c, 9, 36, 0
1, 47520, Note_on_c, 9, 48, 120
1, 47534, Note_on_c, 9, 48, 0
1, 47535, Note_on_c, 9, 41, 110
1, 47535, Note_on_c, 9, 45, 120
1, 47594, Note_on_c, 9, 41, 0
1, 47594, Note_on_c, 9, 45, 0
1, 47640, Note_on_c, 9, 45, 120
1, 47759, Note_on_c, 9, 45, 0
1, 47760, Note_on_c, 9, 41, 120
1, 47999, Note_on_c, 9, 41, 0
1, 48000, Note_on_c, 9, 49, 108
1, 48000, Note_on_c, 9, 36, 123
1, 48002, Note_on_c, 9, 49, 0
1, 48029, Note_on_c, 9, 36, 0
1, 48030, Note_on_c, 9, 36, 54
1, 48060, Note_on_c, 9, 51, 54
1, 48068, Note_on_c, 9, 51, 0
1, 48089, Note_on_c, 9, 36, 0
1, 48240, Note_on_c, 9, 54, 76
1, 48240, Note_on_c, 9, 53, 96
1, 48479, Note_on_c, 9, 54, 0
1, 48479, Note_on_c, 9, 53, 0
1, 48480, Note_on_c, 9, 38, 127
1, 48480, Note_on_c, 9, 54, 104
1, 48719, Note_on_c, 9, 38, 0
1, 48719, Note_on_c, 9, 54, 0
1, 48720, Note_on_c, 9, 54, 73
1, 48720, Note_on_c, 9, 53, 100
1, 48720, Note_on_c, 9, 49, 108
1, 48720, Note_on_c, 9, 36, 123
1, 48731, Note_on_c, 9, 49, 0
1, 48959, Note_on_c, 9, 54, 0
1, 48959, Note_on_c, 9, 53, 0
1, 48959, Note_on_c, 9, 36, 0
1, 48960, Note_on_c, 9, 54, 121
1, 49199, Note_on_c, 9, 54, 0
1, 49200, Note_on_c, 9, 54, 68
1, 49200, Note_on_c, 9, 53, 96
1, 49439, Note_on_c, 9, 54, 0
1, 49439, Note_on_c, 9, 53, 0
1, 49440, Note_on_c, 9, 38, 127
1, 49440, Note_on_c, 9, 54, 126
1, 49440, Note_on_c, 9, 49, 108
1, 49440, Note_on_c, 9, 36, 123
1, 49451, Note_on_c, 9, 49, 0
1, 49679, Note_on_c, 9, 38, 0
1, 49679, Note_on_c, 9, 54, 0
1, 49680, Note_on_c, 9, 54, 81
1, 49680, Note_on_c, 9, 53, 98
1, 49919, Note_on_c, 9, 36, 0
1, 49919, Note_on_c, 9, 54, 0
1, 49919, Note_on_c, 9, 53, 0
1, 49920, Note_on_c, 9, 54, 121
1, 50159, Note_on_c, 9, 54, 0
1, 50160, Note_on_c, 9, 38, 127
1, 50160, Note_on_c, 9, 54, 72
1, 50160, Note_on_c, 9, 53, 95
1, 50160, Note_on_c, 9, 49, 108
1, 50160, Note_on_c, 9, 36, 123
1, 50171, Note_on_c, 9, 49, 0
1, 50399, Note_on_c, 9, 38, 0
1, 50399, Note_on_c, 9, 54, 0
1, 50399, Note_on_c, 9, 53, 0
1, 50399, Note_on_c, 9, 36, 0
1, 50400, Note_on_c, 9, 54, 61
1, 50639, Note_on_c, 9, 54, 0
1, 50640, Note_on_c, 9, 54, 122
1, 50640, Note_on_c, 9, 53, 107
1, 50640, Note_on_c, 9, 36, 92
1, 50879, Note_on_c, 9, 54, 0
1, 50879, Note_on_c, 9, 53, 0
1, 50879, Note_on_c, 9, 36, 0
1, 50880, Note_on_c, 9, 38, 127
1, 50880, Note_on_c, 9, 54, 92
1, 50880, Note_on_c, 9, 49, 108
1, 50880, Note_on_c, 9, 36, 123
1, 50891, Note_on_c, 9, 49, 0
1, 51119, Note_on_c, 9, 38, 0
1, 51119, Note_on_c, 9, 54, 0
1, 51119, Note_on_c, 9, 36, 0
1, 51120, Note_on_c, 9, 38, 127
1, 51120, Note_on_c, 9, 54, 69
1, 51120, Note_on_c, 9, 53, 101
1, 51120, Note_on_c, 9, 36, 123
1, 51359, Note_on_c, 9, 38, 0
1, 51359, Note_on_c, 9, 54, 0
1, 51359, Note_on_c, 9, 53, 0
1, 51359, Note_on_c, 9, 36, 0
1, 51360, Note_on_c, 9, 54, 126
1, 51599, Note_on_c, 9, 54, 0
1, 51600, Note_on_c, 9, 54, 67
1, 51600, Note_on_c, 9, 53, 98
1, 51600, Note_on_c, 9, 36, 123
1, 51839, Note_on_c, 9, 54, 0
1, 51839, Note_on_c, 9, 53, 0
1, 51839, Note_on_c, 9, 36, 0
1, 51840, Note_on_c, 9, 54, 126
1, 51840, Note_on_c, 9, 49, 108
1, 51840, Note_on_c, 9, 36, 123
1, 51851, Note_on_c, 9, 49, 0
1, 52079, Note_on_c, 9, 54, 0
1, 52080, Note_on_c, 9, 54, 72
1, 52319, Note_on_c, 9, 36, 0
1, 52319, Note_on_c, 9, 54, 0
1, 52320, Note_on_c, 9, 38, 127
1, 52320, Note_on_c, 9, 54, 66
1, 52559, Note_on_c, 9, 38, 0
1, 52559, Note_on_c, 9, 54, 0
1, 52560, Note_on_c, 9, 54, 127
1, 52799, Note_on_c, 9, 54, 0
1, 52800, Note_on_c, 9, 54, 81
1, 52800, Note_on_c, 9, 36, 123
1, 53039, Note_on_c, 9, 54, 0
1, 53039, Note_on_c, 9, 36, 0
1, 53040, Note_on_c, 9, 54, 44
1, 53040, Note_on_c, 9, 36, 123
1, 53279, Note_on_c, 9, 54, 0
1, 53279, Note_on_c, 9, 36, 0
1, 53280, Note_on_c, 9, 38, 127
1, 53280, Note_on_c, 9, 54, 127
1, 53519, Note_on_c, 9, 38, 0
1, 53519, Note_on_c, 9, 54, 0
1, 53520, Note_on_c, 9, 54, 76
1, 53520, Note_on_c, 9, 49, 108
1, 53520, Note_on_c, 9, 36, 123
1, 53531, Note_on_c, 9, 49, 0
1, 53759, Note_on_c, 9, 54, 0
1, 53759, Note_on_c, 9, 36, 0
1, 53760, Note_on_c, 9, 54, 116
1, 53999, Note_on_c, 9, 54, 0
1, 54000, Note_on_c, 9, 54, 65
1, 54000, Note_on_c, 9, 36, 123
1, 54239, Note_on_c, 9, 54, 0
1, 54239, Note_on_c, 9, 36, 0
1, 54240, Note_on_c, 9, 38, 127
1, 54240, Note_on_c, 9, 54, 67
1, 54479, Note_on_c, 9, 38, 0
1, 54479, Note_on_c, 9, 54, 0
1, 54480, Note_on_c, 9, 54, 61
1, 54719, Note_on_c, 9, 54, 0
1, 54720, Note_on_c, 9, 54, 76
1, 54720, Note_on_c, 9, 36, 123
1, 54959, Note_on_c, 9, 54, 0
1, 54959, Note_on_c, 9, 36, 0
1, 54960, Note_on_c, 9, 54, 126
1, 54960, Note_on_c, 9, 36, 123
1, 54983, Note_on_c, 9, 54, 0
1, 54984, Note_on_c, 9, 38, 54
1, 55031, Note_on_c, 9, 38, 0
1, 55056, Note_on_c, 9, 38, 48
1, 55103, Note_on_c, 9, 38, 0
1, 55104, Note_on_c, 9, 38, 45
1, 55199, Note_on_c, 9, 36, 0
1, 55199, Note_on_c, 9, 38, 0
1, 55200, Note_on_c, 9, 38, 127
1, 55200, Note_on_c, 9, 54, 66
1, 55200, Note_on_c, 9, 46, 53
1, 55211, Note_on_c, 9, 46, 0
1, 55439, Note_on_c, 9, 38, 0
1, 55439, Note_on_c, 9, 54, 0
1, 55440, Note_on_c, 9, 54, 127
1, 55440, Note_on_c, 9, 36, 123
1, 55679, Note_on_c, 9, 54, 0
1, 55679, Note_on_c, 9, 36, 0
1, 55680, Note_on_c, 9, 54, 86
1, 55680, Note_on_c, 9, 49, 108
1, 55680, Note_on_c, 9, 36, 123
1, 55682, Note_on_c, 9, 49, 0
1, 55739, Note_on_c, 9, 54, 0
1, 55740, Note_on_c, 9, 52, 118
1, 55746, Note_on_c, 9, 52, 0
1, 55770, Note_on_c, 9, 49, 34
1, 55774, Note_on_c, 9, 49, 0
1, 55920, Note_on_c, 9, 54, 61
1, 56159, Note_on_c, 9, 36, 0
1, 56159, Note_on_c, 9, 54, 0
1, 56160, Note_on_c, 9, 38, 127
1, 56160, Note_on_c, 9, 54, 80
1, 56399, Note_on_c, 9, 38, 0
1, 56399, Note_on_c, 9, 54, 0
1, 56400, Note_on_c, 9, 54, 44
1, 56639, Note_on_c, 9, 54, 0
1, 56640, Note_on_c, 9, 54, 88
1, 56640, Note_on_c, 9, 36, 123
1, 56879, Note_on_c, 9, 54, 0
1, 56879, Note_on_c, 9, 36, 0
1, 56880, Note_on_c, 9, 54, 63
1, 56880, Note_on_c, 9, 36, 123
1, 57119, Note_on_c, 9, 54, 0
1, 57119, Note_on_c, 9, 36, 0
1, 57120, Note_on_c, 9, 38, 127
1, 57120, Note_on_c, 9, 54, 48
1, 57359, Note_on_c, 9, 38, 0
1, 57359, Note_on_c, 9, 54, 0
1, 57360, Note_on_c, 9, 54, 127
1, 57360, Note_on_c, 9, 49, 108
1, 57360, Note_on_c, 9, 36, 123
1, 57371, Note_on_c, 9, 49, 0
1, 57599, Note_on_c, 9, 54, 0
1, 57599, Note_on_c, 9, 36, 0
1, 57600, Note_on_c, 9, 54, 112
1, 57839, Note_on_c, 9, 54, 0
1, 57840, Note_on_c, 9, 54, 76
1, 57840, Note_on_c, 9, 36, 123
1, 58079, Note_on_c, 9, 54, 0
1, 58079, Note_on_c, 9, 36, 0
1, 58080, Note_on_c, 9, 38, 127
1, 58080, Note_on_c, 9, 54, 92
1, 58319, Note_on_c, 9, 38, 0
1, 58319, Note_on_c, 9, 54, 0
1, 58320, Note_on_c, 9, 54, 76
1, 58359, Note_on_c, 9, 54, 0
1, 58360, Note_on_c, 9, 45, 52
1, 58379, Note_on_c, 9, 45, 0
1, 58440, Note_on_c, 9, 45, 50
1, 58479, Note_on_c, 9, 45, 0
1, 58480, Note_on_c, 9, 45, 59
1, 58559, Note_on_c, 9, 45, 0
1, 58560, Note_on_c, 9, 54, 75
1, 58560, Note_on_c, 9, 36, 123
1, 58574, Note_on_c, 9, 54, 0
1, 58575, Note_on_c, 9, 45, 104
1, 58754, Note_on_c, 9, 45, 0
1, 58785, Note_on_c, 9, 54, 44
1, 58799, Note_on_c, 9, 36, 0
1, 58800, Note_on_c, 9, 41, 57
1, 58800, Note_on_c, 9, 36, 123
1, 58859, Note_on_c, 9, 41, 0
1, 58889, Note_on_c, 9, 54, 0
1, 58890, Note_on_c, 9, 41, 56
1, 58949, Note_on_c, 9, 41, 0
1, 58950, Note_on_c, 9, 41, 56
1, 59009, Note_on_c, 9, 41, 0
1, 59025, Note_on_c, 9, 41, 120
1, 59025, Note_on_c, 9, 38, 127
1, 59025, Note_on_c, 9, 54, 89
1, 59039, Note_on_c, 9, 36, 0
1, 59264, Note_on_c, 9, 41, 0
1, 59279, Note_on_c, 9, 38, 0
1, 59279, Note_on_c, 9, 54, 0
1, 59280, Note_on_c, 9, 54, 61
1, 59280, Note_on_c, 9, 36, 123
1, 59519, Note_on_c, 9, 54, 0
1, 59519, Note_on_c, 9, 36, 0
1, 59520, Note_on_c, 9, 54, 92
1, 59520, Note_on_c, 9, 49, 108
1, 59520, Note_on_c, 9, 52, 64
1, 59520, Note_on_c, 9, 36, 123
1, 59531, Note_on_c, 9, 49, 0
1, 59531, Note_on_c, 9, 52, 0
1, 59759, Note_on_c, 9, 54, 0
1, 59760, Note_on_c, 9, 54, 121
1, 59999, Note_on_c, 9, 36, 0
1, 59999, Note_on_c, 9, 54, 0
1, 60000, Note_on_c, 9, 38, 127
1, 60000, Note_on_c, 9, 54, 92
1, 60239, Note_on_c, 9, 38, 0
1, 60239, Note_on_c, 9, 54, 0
1, 60240, Note_on_c, 9, 54, 122
1, 60479, Note_on_c, 9, 54, 0
1, 60480, Note_on_c, 9, 54, 92
1, 60480, Note_on_c, 9, 36, 123
1, 60719, Note_on_c, 9, 54, 0
1, 60719, Note_on_c, 9, 36, 0
1, 60720, Note_on_c, 9, 54, 125
1, 60720, Note_on_c, 9, 36, 123
1, 60959, Note_on_c, 9, 54, 0
1, 60959, Note_on_c, 9, 36, 0
1, 60960, Note_on_c, 9, 38, 127
1, 60960, Note_on_c, 9, 54, 92
1, 61199, Note_on_c, 9, 38, 0
1, 61199, Note_on_c, 9, 54, 0
1, 61200, Note_on_c, 9, 54, 127
1, 61200, Note_on_c, 9, 49, 108
1, 61200, Note_on_c, 9, 36, 123
1, 61211, Note_on_c, 9, 49, 0
1, 61439, Note_on_c, 9, 54, 0
1, 61439, Note_on_c, 9, 36, 0
1, 61440, Note_on_c, 9, 54, 92
1, 61440, Note_on_c, 9, 53, 94
1, 61679, Note_on_c, 9, 54, 0
1, 61679, Note_on_c, 9, 53, 0
1, 61680, Note_on_c, 9, 54, 65
1, 61680, Note_on_c, 9, 36, 123
1, 61919, Note_on_c, 9, 54, 0
1, 61919, Note_on_c, 9, 36, 0
1, 61920, Note_on_c, 9, 38, 127
1, 61920, Note_on_c, 9, 54, 99
1, 61920, Note_on_c, 9, 53, 95
1, 62159, Note_on_c, 9, 38, 0
1, 62159, Note_on_c, 9, 54, 0
1, 62159, Note_on_c, 9, 53, 0
1, 62160, Note_on_c, 9, 54, 64
1, 62399, Note_on_c, 9, 54, 0
1, 62400, Note_on_c, 9, 54, 100
1, 62400, Note_on_c, 9, 53, 102
1, 62400, Note_on_c, 9, 36, 123
1, 62639, Note_on_c, 9, 54, 0
1, 62639, Note_on_c, 9, 53, 0
1, 62639, Note_on_c, 9, 36, 0
1, 62640, Note_on_c, 9, 54, 66
1, 62640, Note_on_c, 9, 36, 123
1, 62879, Note_on_c, 9, 54, 0
1, 62879, Note_on_c, 9, 36, 0
1, 62880, Note_on_c, 9, 38, 127
1, 62880, Note_on_c, 9, 54, 102
1, 62880, Note_on_c, 9, 53, 105
1, 63119, Note_on_c, 9, 38, 0
1, 63119, Note_on_c, 9, 54, 0
1, 63119, Note_on_c, 9, 53, 0
1, 63120, Note_on_c, 9, 54, 65
1, 63120, Note_on_c, 9, 36, 123
1, 63359, Note_on_c, 9, 54, 0
1, 63359, Note_on_c, 9, 36, 0
1, 63360, Note_on_c, 9, 38, 127
1, 63360, Note_on_c, 9, 36, 123
1, 63599, Note_on_c, 9, 38, 0
1, 63600, Note_on_c, 9, 38, 95
1, 63619, Note_on_c, 9, 38, 0
1, 63620, Note_on_c, 9, 38, 97
1, 63659, Note_on_c, 9, 38, 0
1, 63690, Note_on_c, 9, 38, 61
1, 63719, Note_on_c, 9, 38, 0
1, 63720, Note_on_c, 9, 38, 111
1, 63739, Note_on_c, 9, 38, 0
1, 63740, Note_on_c, 9, 38, 100
1, 63779, Note_on_c, 9, 38, 0
1, 63839, Note_on_c, 9, 36, 0
1, 63840, Note_on_c, 9, 38, 115
1, 63840, Note_on_c, 9, 36, 123
1, 63959, Note_on_c, 9, 38, 0
1, 63960, Note_on_c, 9, 50, 123
1, 64079, Note_on_c, 9, 50, 0
1, 64080, Note_on_c, 9, 48, 120
1, 64080, Note_on_c, 9, 50, 45
1, 64199, Note_on_c, 9, 48, 0
1, 64199, Note_on_c, 9, 50, 0
1, 64200, Note_on_c, 9, 50, 96
1, 64319, Note_on_c, 9, 36, 0
1, 64319, Note_on_c, 9, 50, 0
1, 64320, Note_on_c, 9, 48, 120
1, 64320, Note_on_c, 9, 50, 121
1, 64320, Note_on_c, 9, 36, 123
1, 64439, Note_on_c, 9, 48, 0
1, 64439, Note_on_c, 9, 50, 0
1, 64440, Note_on_c, 9, 48, 122
1, 64499, Note_on_c, 9, 48, 0
1, 64545, Note_on_c, 9, 45, 120
1, 64545, Note_on_c, 9, 48, 44
1, 64604, Note_on_c, 9, 48, 0
1, 64679, Note_on_c, 9, 45, 0
1, 64680, Note_on_c, 9, 48, 120
1, 64739, Note_on_c, 9, 48, 0
1, 64770, Note_on_c, 9, 45, 120
1, 64770, Note_on_c, 9, 48, 120
1, 64799, Note_on_c, 9, 36, 0
1, 64800, Note_on_c, 9, 36, 123
1, 64889, Note_on_c, 9, 48, 0
1, 64919, Note_on_c, 9, 45, 0
1, 64920, Note_on_c, 9, 45, 127
1, 65039, Note_on_c, 9, 36, 0
1, 65039, Note_on_c, 9, 45, 0
1, 65040, Note_on_c, 9, 41, 120
1, 65040, Note_on_c, 9, 36, 123
1, 65159, Note_on_c, 9, 41, 0
1, 65160, Note_on_c, 9, 41, 127
1, 65279, Note_on_c, 9, 36, 0
1, 65279, Note_on_c, 9, 41, 0
1, 65280, Note_on_c, 9, 54, 103
1, 65280, Note_on_c, 9, 49, 108
1, 65280, Note_on_c, 9, 52, 127
1, 65280, Note_on_c, 9, 36, 123
1, 65291, Note_on_c, 9, 49, 0
1, 65291, Note_on_c, 9, 52, 0
1, 65519, Note_on_c, 9, 54, 0
1, 65520, Note_on_c, 9, 54, 67
1, 65759, Note_on_c, 9, 36, 0
1, 65759, Note_on_c, 9, 54, 0
1, 65760, Note_on_c, 9, 38, 127
1, 65760, Note_on_c, 9, 54, 64
1, 65760, Note_on_c, 9, 53, 127
1, 65999, Note_on_c, 9, 38, 0
1, 65999, Note_on_c, 9, 54, 0
1, 65999, Note_on_c, 9, 53, 0
1, 66000, Note_on_c, 9, 54, 125
1, 66239, Note_on_c, 9, 54, 0
1, 66240, Note_on_c, 9, 54, 84
1, 66240, Note_on_c, 9, 53, 127
1, 66240, Note_on_c, 9, 36, 123
1, 66479, Note_on_c, 9, 54, 0
1, 66479, Note_on_c, 9, 53, 0
1, 66479, Note_on_c, 9, 36, 0
1, 66480, Note_on_c, 9, 54, 63
1, 66480, Note_on_c, 9, 36, 123
1, 66719, Note_on_c, 9, 54, 0
1, 66719, Note_on_c, 9, 36, 0
1, 66720, Note_on_c, 9, 38, 127
1, 66720, Note_on_c, 9, 54, 118
1, 66720, Note_on_c, 9, 53, 76
1, 66959, Note_on_c, 9, 38, 0
1, 66959, Note_on_c, 9, 54, 0
1, 66959, Note_on_c, 9, 53, 0
1, 66960, Note_on_c, 9, 54, 67
1, 67199, Note_on_c, 9, 54, 0
1, 67200, Note_on_c, 9, 54, 127
1, 67200, Note_on_c, 9, 53, 103
1, 67200, Note_on_c, 9, 36, 123
1, 67439, Note_on_c, 9, 54, 0
1, 67439, Note_on_c, 9, 53, 0
1, 67440, Note_on_c, 9, 54, 71
1, 67679, Note_on_c, 9, 36, 0
1, 67679, Note_on_c, 9, 54, 0
1, 67680, Note_on_c, 9, 38, 127
1, 67680, Note_on_c, 9, 54, 70
1, 67680, Note_on_c, 9, 53, 96
1, 67919, Note_on_c, 9, 38, 0
1, 67919, Note_on_c, 9, 54, 0
1, 67919, Note_on_c, 9, 53, 0
1, 67920, Note_on_c, 9, 54, 127
1, 68159, Note_on_c, 9, 54, 0
1, 68160, Note_on_c, 9, 54, 79
1, 68160, Note_on_c, 9, 53, 83
1, 68160, Note_on_c, 9, 36, 123
1, 68399, Note_on_c, 9, 54, 0
1, 68399, Note_on_c, 9, 53, 0
1, 68399, Note_on_c, 9, 36, 0
1, 68400, Note_on_c, 9, 54, 126
1, 68400, Note_on_c, 9, 36, 123
1, 68639, Note_on_c, 9, 54, 0
1, 68639, Note_on_c, 9, 36, 0
1, 68640, Note_on_c, 9, 38, 127
1, 68640, Note_on_c, 9, 54, 92
1, 68640, Note_on_c, 9, 53, 96
1, 68879, Note_on_c, 9, 38, 0
1, 68879, Note_on_c, 9, 54, 0
1, 68879, Note_on_c, 9, 53, 0
1, 68880, Note_on_c, 9, 54, 121
1, 69119, Note_on_c, 9, 54, 0
1, 69120, Note_on_c, 9, 54, 107
1, 69120, Note_on_c, 9, 53, 86
1, 69120, Note_on_c, 9, 36, 123
1, 69359, Note_on_c, 9, 54, 0
1, 69359, Note_on_c, 9, 53, 0
1, 69360, Note_on_c, 9, 54, 67
1, 69360, Note_on_c, 9, 53, 75
1, 69599, Note_on_c, 9, 36, 0
1, 69599, Note_on_c, 9, 54, 0
1, 69599, Note_on_c, 9, 53, 0
1, 69600, Note_on_c, 9, 38, 127
1, 69600, Note_on_c, 9, 54, 96
1, 69600, Note_on_c, 9, 53, 96
1, 69839, Note_on_c, 9, 38, 0
1, 69839, Note_on_c, 9, 54, 0
1, 69839, Note_on_c, 9, 53, 0
1, 69840, Note_on_c, 9, 54, 64
1, 69840, Note_on_c, 9, 53, 70
1, 70079, Note_on_c, 9, 54, 0
1, 70079, Note_on_c, 9, 53, 0
1, 70080, Note_on_c, 9, 54, 92
1, 70080, Note_on_c, 9, 53, 96
1, 70080, Note_on_c, 9, 36, 123
1, 70319, Note_on_c, 9, 54, 0
1, 70319, Note_on_c, 9, 53, 0
1, 70319, Note_on_c, 9, 36, 0
1, 70320, Note_on_c, 9, 54, 68
1, 70320, Note_on_c, 9, 53, 73
1, 70320, Note_on_c, 9, 36, 123
1, 70559, Note_on_c, 9, 54, 0
1, 70559, Note_on_c, 9, 53, 0
1, 70559, Note_on_c, 9, 36, 0
1, 70560, Note_on_c, 9, 38, 127
1, 70560, Note_on_c, 9, 54, 103
1, 70560, Note_on_c, 9, 53, 95
1, 70799, Note_on_c, 9, 38, 0
1, 70799, Note_on_c, 9, 54, 0
1, 70799, Note_on_c, 9, 53, 0
1, 70800, Note_on_c, 9, 54, 69
1, 70800, Note_on_c, 9, 53, 73
1, 71039, Note_on_c, 9, 54, 0
1, 71039, Note_on_c, 9, 53, 0
1, 71040, Note_on_c, 9, 54, 125
1, 71040, Note_on_c, 9, 53, 98
1, 71040, Note_on_c, 9, 36, 123
1, 71279, Note_on_c, 9, 54, 0
1, 71279, Note_on_c, 9, 53, 0
1, 71280, Note_on_c, 9, 54, 69
1, 71280, Note_on_c, 9, 53, 67
1, 71519, Note_on_c, 9, 36, 0
1, 71519, Note_on_c, 9, 54, 0
1, 71519, Note_on_c, 9, 53, 0
1, 71520, Note_on_c, 9, 38, 127
1, 71520, Note_on_c, 9, 54, 65
1, 71520, Note_on_c, 9, 53, 93
1, 71759, Note_on_c, 9, 38, 0
1, 71759, Note_on_c, 9, 54, 0
1, 71759, Note_on_c, 9, 53, 0
1, 71760, Note_on_c, 9, 54, 124
1, 71760, Note_on_c, 9, 53, 67
1, 71999, Note_on_c, 9, 54, 0
1, 71999, Note_on_c, 9, 53, 0
1, 72000, Note_on_c, 9, 54, 71
1, 72000, Note_on_c, 9, 53, 90
1, 72000, Note_on_c, 9, 36, 123
1, 72179, Note_on_c, 9, 53, 0
1, 72224, Note_on_c, 9, 54, 0
1, 72225, Note_on_c, 9, 54, 59
1, 72239, Note_on_c, 9, 36, 0
1, 72240, Note_on_c, 9, 51, 61
1, 72240, Note_on_c, 9, 36, 123
1, 72245, Note_on_c, 9, 51, 0
1, 72359, Note_on_c, 9, 54, 0
1, 72360, Note_on_c, 9, 51, 65
1, 72362, Note_on_c, 9, 51, 0
1, 72465, Note_on_c, 9, 38, 127
1, 72465, Note_on_c, 9, 54, 125
1, 72465, Note_on_c, 9, 51, 74
1, 72475, Note_on_c, 9, 51, 0
1, 72479, Note_on_c, 9, 36, 0
1, 72719, Note_on_c, 9, 38, 0
1, 72719, Note_on_c, 9, 54, 0
1, 72720, Note_on_c, 9, 54, 69
1, 72720, Note_on_c, 9, 51, 97
1, 72725, Note_on_c, 9, 51, 0
1, 72839, Note_on_c, 9, 54, 0
1, 72840, Note_on_c, 9, 51, 95
1, 72845, Note_on_c, 9, 51, 0
1, 72960, Note_on_c, 9, 54, 121
1, 72960, Note_on_c, 9, 51, 57
1, 72960, Note_on_c, 9, 36, 123
1, 72971, Note_on_c, 9, 51, 0
1, 73199, Note_on_c, 9, 54, 0
1, 73200, Note_on_c, 9, 54, 69
1, 73200, Note_on_c, 9, 53, 68
1, 73439, Note_on_c, 9, 36, 0
1, 73439, Note_on_c, 9, 54, 0
1, 73439, Note_on_c, 9, 53, 0
1, 73440, Note_on_c, 9, 38, 127
1, 73440, Note_on_c, 9, 54, 72
1, 73440, Note_on_c, 9, 53, 87
1, 73440, Note_on_c, 9, 52, 127
1, 73451, Note_on_c, 9, 52, 0
1, 73679, Note_on_c, 9, 38, 0
1, 73679, Note_on_c, 9, 54, 0
1, 73679, Note_on_c, 9, 53, 0
1, 73680, Note_on_c, 9, 54, 46
1, 73680, Note_on_c, 9, 53, 68
1, 73919, Note_on_c, 9, 54, 0
1, 73919, Note_on_c, 9, 53, 0
1, 73920, Note_on_c, 9, 54, 127
1, 73920, Note_on_c, 9, 53, 88
1, 73920, Note_on_c, 9, 36, 123
1, 74159, Note_on_c, 9, 54, 0
1, 74159, Note_on_c, 9, 53, 0
1, 74159, Note_on_c, 9, 36, 0
1, 74160, Note_on_c, 9, 54, 62
1, 74160, Note_on_c, 9, 53, 71
1, 74160, Note_on_c, 9, 36, 123
1, 74399, Note_on_c, 9, 54, 0
1, 74399, Note_on_c, 9, 53, 0
1, 74399, Note_on_c, 9, 36, 0
1, 74400, Note_on_c, 9, 38, 127
1, 74400, Note_on_c, 9, 54, 122
1, 74400, Note_on_c, 9, 53, 84
1, 74639, Note_on_c, 9, 38, 0
1, 74639, Note_on_c, 9, 54, 0
1, 74639, Note_on_c, 9, 53, 0
1, 74640, Note_on_c, 9, 54, 64
1, 74640, Note_on_c, 9, 53, 70
1, 74879, Note_on_c, 9, 54, 0
1, 74879, Note_on_c, 9, 53, 0
1, 74880, Note_on_c, 9, 54, 123
1, 74880, Note_on_c, 9, 53, 84
1, 74880, Note_on_c, 9, 36, 123
1, 75119, Note_on_c, 9, 54, 0
1, 75119, Note_on_c, 9, 53, 0
1, 75120, Note_on_c, 9, 54, 70
1, 75359, Note_on_c, 9, 36, 0
1, 75359, Note_on_c, 9, 54, 0
1, 75360, Note_on_c, 9, 38, 127
1, 75360, Note_on_c, 9, 54, 53
1, 75360, Note_on_c, 9, 53, 93
1, 75599, Note_on_c, 9, 38, 0
1, 75599, Note_on_c, 9, 54, 0
1, 75599, Note_on_c, 9, 53, 0
1, 75600, Note_on_c, 9, 54, 127
1, 75600, Note_on_c, 9, 53, 69
1, 75839, Note_on_c, 9, 54, 0
1, 75839, Note_on_c, 9, 53, 0
1, 75840, Note_on_c, 9, 54, 83
1, 75840, Note_on_c, 9, 53, 92
1, 75840, Note_on_c, 9, 36, 123
1, 76079, Note_on_c, 9, 54, 0
1, 76079, Note_on_c, 9, 53, 0
1, 76079, Note_on_c, 9, 36, 0
1, 76080, Note_on_c, 9, 54, 50
1, 76080, Note_on_c, 9, 53, 72
1, 76080, Note_on_c, 9, 36, 123
1, 76319, Note_on_c, 9, 54, 0
1, 76319, Note_on_c, 9, 53, 0
1, 76319, Note_on_c, 9, 36, 0
1, 76320, Note_on_c, 9, 38, 127
1, 76320, Note_on_c, 9, 54, 126
1, 76320, Note_on_c, 9, 53, 87
1, 76559, Note_on_c, 9, 38, 0
1, 76559, Note_on_c, 9, 54, 0
1, 76559, Note_on_c, 9, 53, 0
1, 76560, Note_on_c, 9, 54, 65
1, 76560, Note_on_c, 9, 53, 73
1, 76799, Note_on_c, 9, 54, 0
1, 76799, Note_on_c, 9, 53, 0
1, 76800, Note_on_c, 9, 54, 126
1, 76800, Note_on_c, 9, 53, 90
1, 76800, Note_on_c, 9, 36, 123
1, 77039, Note_on_c, 9, 54, 0
1, 77039, Note_on_c, 9, 53, 0
1, 77040, Note_on_c, 9, 54, 75
1, 77040, Note_on_c, 9, 53, 76
1, 77279, Note_on_c, 9, 36, 0
1, 77279, Note_on_c, 9, 54, 0
1, 77279, Note_on_c, 9, 53, 0
1, 77280, Note_on_c, 9, 38, 127
1, 77280, Note_on_c, 9, 54, 127
1, 77280, Note_on_c, 9, 53, 92
1, 77519, Note_on_c, 9, 38, 0
1, 77519, Note_on_c, 9, 54, 0
1, 77519, Note_on_c, 9, 53, 0
1, 77520, Note_on_c, 9, 54, 65
1, 77520, Note_on_c, 9, 53, 72
1, 77699, Note_on_c, 9, 53, 0
1, 77744, Note_on_c, 9, 54, 0
1, 77745, Note_on_c, 9, 54, 124
1, 77760, Note_on_c, 9, 51, 104
1, 77760, Note_on_c, 9, 36, 123
1, 77771, Note_on_c, 9, 51, 0
1, 77999, Note_on_c, 9, 54, 0
1, 77999, Note_on_c, 9, 36, 0
1, 78000, Note_on_c, 9, 51, 66
1, 78000, Note_on_c, 9, 57, 127
1, 78000, Note_on_c, 9, 36, 127
1, 78008, Note_on_c, 9, 51, 0
1, 78010, Note_on_c, 9, 57, 0
1, 78225, Note_on_c, 9, 38, 127
1, 78225, Note_on_c, 9, 54, 96
1, 78239, Note_on_c, 9, 36, 0
1, 78240, Note_on_c, 9, 51, 97
1, 78251, Note_on_c, 9, 51, 0
1, 78479, Note_on_c, 9, 38, 0
1, 78479, Note_on_c, 9, 54, 0
1, 78480, Note_on_c, 9, 49, 127
1, 78480, Note_on_c, 9, 49, 0
1, 78480, Note_on_c, 9, 36, 123
1, 78495, Note_on_c, 9, 51, 57
1, 78496, Note_on_c, 9, 51, 0
1, 78719, Note_on_c, 9, 36, 0
1, 78720, Note_on_c, 9, 54, 127
1, 78734, Note_on_c, 9, 54, 0
1, 78735, Note_on_c, 9, 50, 100
1, 78750, Note_on_c, 9, 48, 116
1, 78809, Note_on_c, 9, 48, 0
1, 78959, Note_on_c, 9, 50, 0
1, 78960, Note_on_c, 9, 57, 127
1, 78960, Note_on_c, 9, 36, 127
1, 78962, Note_on_c, 9, 57, 0
1, 79020, Note_on_c, 9, 48, 107
1, 79020, Note_on_c, 9, 50, 123
1, 79199, Note_on_c, 9, 36, 0
1, 79199, Note_on_c, 9, 48, 0
1, 79199, Note_on_c, 9, 50, 0
1, 79200, Note_on_c, 9, 38, 127
1, 79200, Note_on_c, 9, 54, 118
1, 79379, Note_on_c, 9, 38, 0
1, 79379, Note_on_c, 9, 54, 0
1, 79380, Note_on_c, 9, 45, 109
1, 79380, Note_on_c, 9, 48, 114
1, 79439, Note_on_c, 9, 45, 0
1, 79439, Note_on_c, 9, 48, 0
1, 79440, Note_on_c, 9, 49, 127
1, 79440, Note_on_c, 9, 36, 123
1, 79451, Note_on_c, 9, 49, 0
1, 79679, Note_on_c, 9, 36, 0
1, 79680, Note_on_c, 9, 54, 70
1, 79751, Note_on_c, 9, 54, 0
1, 79752, Note_on_c, 9, 45, 116
1, 79775, Note_on_c, 9, 45, 0
1, 79776, Note_on_c, 9, 48, 106
1, 79799, Note_on_c, 9, 48, 0
1, 79920, Note_on_c, 9, 38, 127
1, 79920, Note_on_c, 9, 54, 76
1, 79920, Note_on_c, 9, 36, 123
1, 80099, Note_on_c, 9, 38, 0
1, 80099, Note_on_c, 9, 54, 0
1, 80100, Note_on_c, 9, 41, 120
1, 80100, Note_on_c, 9, 45, 117
1, 80159, Note_on_c, 9, 36, 0
1, 80159, Note_on_c, 9, 41, 0
1, 80159, Note_on_c, 9, 45, 0
1, 80160, Note_on_c, 9, 38, 126
1, 80160, Note_on_c, 9, 54, 105
1, 80219, Note_on_c, 9, 38, 0
1, 80219, Note_on_c, 9, 54, 0
1, 80220, Note_on_c, 9, 45, 119
1, 80320, Note_on_c, 9, 43, 95
1, 80339, Note_on_c, 9, 45, 0
1, 80370, Note_on_c, 9, 41, 125
1, 80370, Note_on_c, 9, 45, 102
1, 80399, Note_on_c, 9, 43, 0
1, 80399, Note_on_c, 9, 41, 0
1, 80400, Note_on_c, 9, 41, 127
1, 80400, Note_on_c, 9, 54, 76
1, 80489, Note_on_c, 9, 45, 0
1, 80610, Note_on_c, 9, 36, 106
1, 80639, Note_on_c, 9, 41, 0
1, 80639, Note_on_c, 9, 54, 0
1, 80639, Note_on_c, 9, 36, 0
1, 80640, Note_on_c, 9, 38, 127
1, 80640, Note_on_c, 9, 49, 127
1, 80640, Note_on_c, 9, 36, 123
1, 80651, Note_on_c, 9, 49, 0
1, 80879, Note_on_c, 9, 38, 0
1, 80880, Note_on_c, 9, 54, 76
1, 81119, Note_on_c, 9, 36, 0
1, 81119, Note_on_c, 9, 54, 0
1, 81120, Note_on_c, 9, 38, 127
1, 81120, Note_on_c, 9, 54, 92
1, 81359, Note_on_c, 9, 38, 0
1, 81359, Note_on_c, 9, 54, 0
1, 81360, Note_on_c, 9, 54, 52
1, 81599, Note_on_c, 9, 54, 0
1, 81600, Note_on_c, 9, 54, 92
1, 81600, Note_on_c, 9, 36, 123
1, 81839, Note_on_c, 9, 54, 0
1, 81839, Note_on_c, 9, 36, 0
1, 81840, Note_on_c, 9, 54, 45
1, 81840, Note_on_c, 9, 36, 123
1, 82079, Note_on_c, 9, 54, 0
1, 82079, Note_on_c, 9, 36, 0
1, 82080, Note_on_c, 9, 38, 127
1, 82080, Note_on_c, 9, 54, 95
1, 82319, Note_on_c, 9, 38, 0
1, 82319, Note_on_c, 9, 54, 0
1, 82320, Note_on_c, 9, 54, 56
1, 82559, Note_on_c, 9, 54, 0
1, 82560, Note_on_c, 9, 54, 92
1, 82560, Note_on_c, 9, 36, 123
1, 82799, Note_on_c, 9, 54, 0
1, 82799, Note_on_c, 9, 36, 0
1, 82800, Note_on_c, 9, 54, 61
1, 82800, Note_on_c, 9, 36, 123
1, 83039, Note_on_c, 9, 54, 0
1, 83039, Note_on_c, 9, 36, 0
1, 83040, Note_on_c, 9, 38, 127
1, 83040, Note_on_c, 9, 54, 58
1, 83279, Note_on_c, 9, 38, 0
1, 83279, Note_on_c, 9, 54, 0
1, 83280, Note_on_c, 9, 54, 116
1, 83519, Note_on_c, 9, 54, 0
1, 83520, Note_on_c, 9, 54, 92
1, 83520, Note_on_c, 9, 36, 123
1, 83759, Note_on_c, 9, 54, 0
1, 83759, Note_on_c, 9, 36, 0
1, 83760, Note_on_c, 9, 54, 120
1, 83760, Note_on_c, 9, 36, 123
1, 83999, Note_on_c, 9, 54, 0
1, 83999, Note_on_c, 9, 36, 0
1, 84000, Note_on_c, 9, 38, 127
1, 84000, Note_on_c, 9, 54, 80
1, 84239, Note_on_c, 9, 38, 0
1, 84239, Note_on_c, 9, 54, 0
1, 84240, Note_on_c, 9, 54, 121
1, 84479, Note_on_c, 9, 54, 0
1, 84480, Note_on_c, 9, 54, 67
1, 84480, Note_on_c, 9, 36, 123
1, 84719, Note_on_c, 9, 54, 0
1, 84719, Note_on_c, 9, 36, 0
1, 84720, Note_on_c, 9, 54, 87
1, 84720, Note_on_c, 9, 36, 123
1, 84959, Note_on_c, 9, 54, 0
1, 84959, Note_on_c, 9, 36, 0
1, 84960, Note_on_c, 9, 38, 127
1, 84960, Note_on_c, 9, 54, 92
1, 85199, Note_on_c, 9, 38, 0
1, 85199, Note_on_c, 9, 54, 0
1, 85200, Note_on_c, 9, 54, 61
1, 85439, Note_on_c, 9, 54, 0
1, 85440, Note_on_c, 9, 54, 127
1, 85440, Note_on_c, 9, 36, 123
1, 85679, Note_on_c, 9, 54, 0
1, 85679, Note_on_c, 9, 36, 0
1, 85680, Note_on_c, 9, 54, 66
1, 85680, Note_on_c, 9, 36, 123
1, 85919, Note_on_c, 9, 54, 0
1, 85919, Note_on_c, 9, 36, 0
1, 85920, Note_on_c, 9, 38, 127
1, 85920, Note_on_c, 9, 54, 64
1, 86159, Note_on_c, 9, 38, 0
1, 86159, Note_on_c, 9, 54, 0
1, 86160, Note_on_c, 9, 54, 126
1, 86399, Note_on_c, 9, 54, 0
1, 86400, Note_on_c, 9, 54, 82
1, 86400, Note_on_c, 9, 36, 123
1, 86639, Note_on_c, 9, 54, 0
1, 86640, Note_on_c, 9, 54, 62
1, 86879, Note_on_c, 9, 36, 0
1, 86879, Note_on_c, 9, 54, 0
1, 86880, Note_on_c, 9, 38, 127
1, 86880, Note_on_c, 9, 54, 85
1, 87119, Note_on_c, 9, 38, 0
1, 87119, Note_on_c, 9, 54, 0
1, 87120, Note_on_c, 9, 54, 119
1, 87359, Note_on_c, 9, 54, 0
1, 87360, Note_on_c, 9, 54, 81
1, 87360, Note_on_c, 9, 36, 123
1, 87599, Note_on_c, 9, 54, 0
1, 87599, Note_on_c, 9, 36, 0
1, 87600, Note_on_c, 9, 54, 120
1, 87600, Note_on_c, 9, 36, 123
1, 87839, Note_on_c, 9, 54, 0
1, 87839, Note_on_c, 9, 36, 0
1, 87840, Note_on_c, 9, 38, 127
1, 87840, Note_on_c, 9, 54, 76
1, 88079, Note_on_c, 9, 38, 0
1, 88079, Note_on_c, 9, 54, 0
1, 88080, Note_on_c, 9, 54, 121
1, 88319, Note_on_c, 9, 54, 0
1, 88320, Note_on_c, 9, 54, 106
1, 88320, Note_on_c, 9, 36, 123
1, 88559, Note_on_c, 9, 54, 0
1, 88560, Note_on_c, 9, 54, 76
1, 88799, Note_on_c, 9, 36, 0
1, 88799, Note_on_c, 9, 54, 0
1, 88800, Note_on_c, 9, 38, 127
1, 88800, Note_on_c, 9, 54, 114
1, 89039, Note_on_c, 9, 38, 0
1, 89039, Note_on_c, 9, 54, 0
1, 89040, Note_on_c, 9, 54, 70
1, 89279, Note_on_c, 9, 54, 0
1, 89280, Note_on_c, 9, 54, 69
1, 89280, Note_on_c, 9, 36, 123
1, 89519, Note_on_c, 9, 54, 0
1, 89519, Note_on_c, 9, 36, 0
1, 89520, Note_on_c, 9, 54, 119
1, 89520, Note_on_c, 9, 36, 123
1, 89759, Note_on_c, 9, 54, 0
1, 89759, Note_on_c, 9, 36, 0
1, 89760, Note_on_c, 9, 38, 127
1, 89760, Note_on_c, 9, 54, 92
1, 89999, Note_on_c, 9, 38, 0
1, 89999, Note_on_c, 9, 54, 0
1, 90000, Note_on_c, 9, 54, 59
1, 90239, Note_on_c, 9, 54, 0
1, 90240, Note_on_c, 9, 54, 127
1, 90240, Note_on_c, 9, 36, 123
1, 90479, Note_on_c, 9, 54, 0
1, 90479, Note_on_c, 9, 36, 0
1, 90480, Note_on_c, 9, 54, 69
1, 90480, Note_on_c, 9, 36, 123
1, 90719, Note_on_c, 9, 54, 0
1, 90719, Note_on_c, 9, 36, 0
1, 90720, Note_on_c, 9, 38, 127
1, 90720, Note_on_c, 9, 54, 57
1, 90959, Note_on_c, 9, 38, 0
1, 90959, Note_on_c, 9, 54, 0
1, 90960, Note_on_c, 9, 54, 55
1, 91199, Note_on_c, 9, 54, 0
1, 91200, Note_on_c, 9, 54, 118
1, 91200, Note_on_c, 9, 36, 123
1, 91439, Note_on_c, 9, 54, 0
1, 91439, Note_on_c, 9, 36, 0
1, 91440, Note_on_c, 9, 54, 60
1, 91440, Note_on_c, 9, 36, 123
1, 91679, Note_on_c, 9, 54, 0
1, 91679, Note_on_c, 9, 36, 0
1, 91680, Note_on_c, 9, 38, 127
1, 91680, Note_on_c, 9, 54, 73
1, 91919, Note_on_c, 9, 38, 0
1, 91919, Note_on_c, 9, 54, 0
1, 91920, Note_on_c, 9, 54, 127
1, 92159, Note_on_c, 9, 54, 0
1, 92160, Note_on_c, 9, 54, 92
1, 92160, Note_on_c, 9, 36, 123
1, 92399, Note_on_c, 9, 54, 0
1, 92399, Note_on_c, 9, 36, 0
1, 92400, Note_on_c, 9, 54, 60
1, 92400, Note_on_c, 9, 36, 123
1, 92639, Note_on_c, 9, 54, 0
1, 92639, Note_on_c, 9, 36, 0
1, 92640, Note_on_c, 9, 38, 127
1, 92640, Note_on_c, 9, 54, 127
1, 92879, Note_on_c, 9, 38, 0
1, 92879, Note_on_c, 9, 54, 0
1, 92880, Note_on_c, 9, 54, 126
1, 93119, Note_on_c, 9, 54, 0
1, 93120, Note_on_c, 9, 54, 92
1, 93120, Note_on_c, 9, 36, 123
1, 93359, Note_on_c, 9, 54, 0
1, 93359, Note_on_c, 9, 36, 0
1, 93360, Note_on_c, 9, 54, 127
1, 93360, Note_on_c, 9, 36, 123
1, 93599, Note_on_c, 9, 54, 0
1, 93599, Note_on_c, 9, 36, 0
1, 93600, Note_on_c, 9, 38, 127
1, 93600, Note_on_c, 9, 54, 92
1, 93839, Note_on_c, 9, 38, 0
1, 93839, Note_on_c, 9, 54, 0
1, 93840, Note_on_c, 9, 54, 127
1, 94079, Note_on_c, 9, 54, 0
1, 94080, Note_on_c, 9, 54, 92
1, 94080, Note_on_c, 9, 36, 123
1, 94304, Note_on_c, 9, 54, 0
1, 94305, Note_on_c, 9, 54, 54
1, 94319, Note_on_c, 9, 36, 0
1, 94320, Note_on_c, 9, 38, 62
1, 94320, Note_on_c, 9, 36, 123
1, 94379, Note_on_c, 9, 38, 0
1, 94409, Note_on_c, 9, 54, 0
1, 94410, Note_on_c, 9, 38, 54
1, 94439, Note_on_c, 9, 38, 0
1, 94440, Note_on_c, 9, 38, 66
1, 94499, Note_on_c, 9, 38, 0
1, 94545, Note_on_c, 9, 54, 92
1, 94559, Note_on_c, 9, 36, 0
1, 94560, Note_on_c, 9, 38, 111
1, 94679, Note_on_c, 9, 54, 0
1, 94679, Note_on_c, 9, 38, 0
1, 94680, Note_on_c, 9, 50, 103
1, 94799, Note_on_c, 9, 50, 0
1, 94800, Note_on_c, 9, 54, 44
1, 94800, Note_on_c, 9, 36, 123
1, 94919, Note_on_c, 9, 54, 0
1, 94920, Note_on_c, 9, 48, 127
1, 94979, Note_on_c, 9, 48, 0
1, 95025, Note_on_c, 9, 54, 92
1, 95039, Note_on_c, 9, 36, 0
1, 95040, Note_on_c, 9, 50, 127
1, 95159, Note_on_c, 9, 54, 0
1, 95159, Note_on_c, 9, 50, 0
1, 95160, Note_on_c, 9, 48, 104
1, 95219, Note_on_c, 9, 48, 0
1, 95265, Note_on_c, 9, 54, 46
1, 95280, Note_on_c, 9, 48, 44
1, 95280, Note_on_c, 9, 36, 123
1, 95399, Note_on_c, 9, 54, 0
1, 95399, Note_on_c, 9, 48, 0
1, 95400, Note_on_c, 9, 45, 99
1, 95459, Note_on_c, 9, 45, 0
1, 95505, Note_on_c, 9, 38, 127
1, 95505, Note_on_c, 9, 54, 92
1, 95519, Note_on_c, 9, 36, 0
1, 95520, Note_on_c, 9, 45, 127
1, 95759, Note_on_c, 9, 38, 0
1, 95759, Note_on_c, 9, 54, 0
1, 95759, Note_on_c, 9, 45, 0
1, 95760, Note_on_c, 9, 49, 127
1, 95760, Note_on_c, 9, 57, 127
1, 95760, Note_on_c, 9, 36, 123
1, 95768, Note_on_c, 9, 57, 0
1, 95770, Note_on_c, 9, 49, 0
1, 95985, Note_on_c, 9, 54, 74
1, 95985, Note_on_c, 9, 49, 127
1, 95995, Note_on_c, 9, 49, 0
1, 95999, Note_on_c, 9, 36, 0
1, 96239, Note_on_c, 9, 54, 0
1, 96240, Note_on_c, 9, 54, 117
1, 96240, Note_on_c, 9, 36, 123
1, 96479, Note_on_c, 9, 54, 0
1, 96479, Note_on_c, 9, 36, 0
1, 96480, Note_on_c, 9, 38, 127
1, 96480, Note_on_c, 9, 54, 92
1, 96719, Note_on_c, 9, 38, 0
1, 96719, Note_on_c, 9, 54, 0
1, 96720, Note_on_c, 9, 54, 66
1, 96959, Note_on_c, 9, 54, 0
1, 96960, Note_on_c, 9, 54, 113
1, 96960, Note_on_c, 9, 36, 123
1, 97199, Note_on_c, 9, 54, 0
1, 97199, Note_on_c, 9, 36, 0
1, 97200, Note_on_c, 9, 54, 65
1, 97200, Note_on_c, 9, 36, 123
1, 97439, Note_on_c, 9, 54, 0
1, 97439, Note_on_c, 9, 36, 0
1, 97440, Note_on_c, 9, 38, 127
1, 97440, Note_on_c, 9, 54, 75
1, 97679, Note_on_c, 9, 38, 0
1, 97679, Note_on_c, 9, 54, 0
1, 97680, Note_on_c, 9, 54, 116
1, 97919, Note_on_c, 9, 54, 0
1, 97920, Note_on_c, 9, 54, 98
1, 97920, Note_on_c, 9, 36, 123
1, 98159, Note_on_c, 9, 54, 0
1, 98159, Note_on_c, 9, 36, 0
1, 98160, Note_on_c, 9, 54, 57
1, 98160, Note_on_c, 9, 36, 123
1, 98399, Note_on_c, 9, 54, 0
1, 98399, Note_on_c, 9, 36, 0
1, 98400, Note_on_c, 9, 38, 127
1, 98400, Note_on_c, 9, 54, 116
1, 98639, Note_on_c, 9, 38, 0
1, 98639, Note_on_c, 9, 54, 0
1, 98640, Note_on_c, 9, 54, 65
1, 98879, Note_on_c, 9, 54, 0
1, 98880, Note_on_c, 9, 54, 70
1, 98880, Note_on_c, 9, 36, 123
1, 99119, Note_on_c, 9, 54, 0
1, 99119, Note_on_c, 9, 36, 0
1, 99120, Note_on_c, 9, 54, 120
1, 99120, Note_on_c, 9, 36, 123
1, 99359, Note_on_c, 9, 54, 0
1, 99359, Note_on_c, 9, 36, 0
1, 99360, Note_on_c, 9, 38, 127
1, 99360, Note_on_c, 9, 54, 92
1, 99599, Note_on_c, 9, 38, 0
1, 99599, Note_on_c, 9, 54, 0
1, 99600, Note_on_c, 9, 54, 71
1, 99839, Note_on_c, 9, 54, 0
1, 99840, Note_on_c, 9, 54, 127
1, 99840, Note_on_c, 9, 36, 123
1, 100079, Note_on_c, 9, 54, 0
1, 100079, Note_on_c, 9, 36, 0
1, 100080, Note_on_c, 9, 54, 76
1, 100080, Note_on_c, 9, 36, 123
1, 100319, Note_on_c, 9, 54, 0
1, 100319, Note_on_c, 9, 36, 0
1, 100320, Note_on_c, 9, 38, 127
1, 100320, Note_on_c, 9, 54, 66
1, 100559, Note_on_c, 9, 38, 0
1, 100559, Note_on_c, 9, 54, 0
1, 100560, Note_on_c, 9, 54, 100
1, 100799, Note_on_c, 9, 54, 0
1, 100800, Note_on_c, 9, 54, 84
1, 100800, Note_on_c, 9, 36, 123
1, 101039, Note_on_c, 9, 54, 0
1, 101039, Note_on_c, 9, 36, 0
1, 101040, Note_on_c, 9, 54, 76
1, 101040, Note_on_c, 9, 36, 123
1, 101279, Note_on_c, 9, 54, 0
1, 101279, Note_on_c, 9, 36, 0
1, 101280, Note_on_c, 9, 38, 127
1, 101280, Note_on_c, 9, 54, 114
1, 101519, Note_on_c, 9, 38, 0
1, 101519, Note_on_c, 9, 54, 0
1, 101520, Note_on_c, 9, 54, 65
1, 101759, Note_on_c, 9, 54, 0
1, 101760, Note_on_c, 9, 54, 116
1, 101760, Note_on_c, 9, 36, 123
1, 101999, Note_on_c, 9, 54, 0
1, 102000, Note_on_c, 9, 54, 76
1, 102239, Note_on_c, 9, 36, 0
1, 102239, Note_on_c, 9, 54, 0
1, 102240, Note_on_c, 9, 38, 127
1, 102240, Note_on_c, 9, 54, 110
1, 102479, Note_on_c, 9, 38, 0
1, 102479, Note_on_c, 9, 54, 0
1, 102480, Note_on_c, 9, 54, 70
1, 102719, Note_on_c, 9, 54, 0
1, 102720, Note_on_c, 9, 54, 76
1, 102720, Note_on_c, 9, 36, 123
1, 102959, Note_on_c, 9, 54, 0
1, 102959, Note_on_c, 9, 36, 0
1, 102960, Note_on_c, 9, 54, 119
1, 102960, Note_on_c, 9, 36, 123
1, 102979, Note_on_c, 9, 54, 0
1, 102980, Note_on_c, 9, 45, 44
1, 103019, Note_on_c, 9, 45, 0
1, 103050, Note_on_c, 9, 45, 56
1, 103079, Note_on_c, 9, 45, 0
1, 103080, Note_on_c, 9, 45, 46
1, 103199, Note_on_c, 9, 36, 0
1, 103199, Note_on_c, 9, 45, 0
1, 103200, Note_on_c, 9, 38, 127
1, 103200, Note_on_c, 9, 45, 113
1, 103200, Note_on_c, 9, 54, 90
1, 103439, Note_on_c, 9, 38, 0
1, 103439, Note_on_c, 9, 45, 0
1, 103439, Note_on_c, 9, 54, 0
1, 103440, Note_on_c, 9, 54, 62
1, 103459, Note_on_c, 9, 54, 0
1, 103460, Note_on_c, 9, 41, 114
1, 103499, Note_on_c, 9, 41, 0
1, 103680, Note_on_c, 9, 41, 121
1, 103680, Note_on_c, 9, 54, 124
1, 103680, Note_on_c, 9, 36, 123
1, 103919, Note_on_c, 9, 41, 0
1, 103919, Note_on_c, 9, 54, 0
1, 103919, Note_on_c, 9, 36, 0
1, 103920, Note_on_c, 9, 54, 76
1, 103920, Note_on_c, 9, 36, 123
1, 104159, Note_on_c, 9, 54, 0
1, 104159, Note_on_c, 9, 36, 0
1, 104160, Note_on_c, 9, 38, 127
1, 104160, Note_on_c, 9, 54, 81
1, 104399, Note_on_c, 9, 38, 0
1, 104399, Note_on_c, 9, 54, 0
1, 104400, Note_on_c, 9, 54, 127
1, 104639, Note_on_c, 9, 54, 0
1, 104640, Note_on_c, 9, 54, 87
1, 104640, Note_on_c, 9, 36, 123
1, 104879, Note_on_c, 9, 54, 0
1, 104879, Note_on_c, 9, 36, 0
1, 104880, Note_on_c, 9, 54, 64
1, 104880, Note_on_c, 9, 36, 123
1, 105119, Note_on_c, 9, 54, 0
1, 105119, Note_on_c, 9, 36, 0
1, 105120, Note_on_c, 9, 38, 127
1, 105120, Note_on_c, 9, 54, 117
1, 105359, Note_on_c, 9, 38, 0
1, 105359, Note_on_c, 9, 54, 0
1, 105360, Note_on_c, 9, 54, 68
1, 105599, Note_on_c, 9, 54, 0
1, 105600, Note_on_c, 9, 54, 92
1, 105600, Note_on_c, 9, 36, 123
1, 105839, Note_on_c, 9, 54, 0
1, 105839, Note_on_c, 9, 36, 0
1, 105840, Note_on_c, 9, 54, 66
1, 105840, Note_on_c, 9, 36, 123
1, 106079, Note_on_c, 9, 54, 0
1, 106079, Note_on_c, 9, 36, 0
1, 106080, Note_on_c, 9, 38, 127
1, 106080, Note_on_c, 9, 54, 69
1, 106319, Note_on_c, 9, 38, 0
1, 106319, Note_on_c, 9, 54, 0
1, 106320, Note_on_c, 9, 54, 127
1, 106559, Note_on_c, 9, 54, 0
1, 106560, Note_on_c, 9, 54, 92
1, 106560, Note_on_c, 9, 36, 123
1, 106799, Note_on_c, 9, 54, 0
1, 106799, Note_on_c, 9, 36, 0
1, 106800, Note_on_c, 9, 54, 64
1, 106800, Note_on_c, 9, 36, 123
1, 107039, Note_on_c, 9, 54, 0
1, 107039, Note_on_c, 9, 36, 0
1, 107040, Note_on_c, 9, 38, 127
1, 107040, Note_on_c, 9, 54, 127
1, 107279, Note_on_c, 9, 38, 0
1, 107279, Note_on_c, 9, 54, 0
1, 107280, Note_on_c, 9, 54, 69
1, 107519, Note_on_c, 9, 54, 0
1, 107520, Note_on_c, 9, 54, 126
1, 107520, Note_on_c, 9, 36, 123
1, 107759, Note_on_c, 9, 54, 0
1, 107759, Note_on_c, 9, 36, 0
1, 107760, Note_on_c, 9, 54, 70
1, 107760, Note_on_c, 9, 36, 123
1, 107999, Note_on_c, 9, 54, 0
1, 107999, Note_on_c, 9, 36, 0
1, 108000, Note_on_c, 9, 38, 127
1, 108000, Note_on_c, 9, 54, 92
1, 108239, Note_on_c, 9, 38, 0
1, 108239, Note_on_c, 9, 54, 0
1, 108240, Note_on_c, 9, 54, 127
1, 108479, Note_on_c, 9, 54, 0
1, 108480, Note_on_c, 9, 54, 92
1, 108480, Note_on_c, 9, 36, 123
1, 108719, Note_on_c, 9, 54, 0
1, 108719, Note_on_c, 9, 36, 0
1, 108720, Note_on_c, 9, 54, 125
1, 108720, Note_on_c, 9, 36, 123
1, 108959, Note_on_c, 9, 54, 0
1, 108959, Note_on_c, 9, 36, 0
1, 108960, Note_on_c, 9, 38, 127
1, 108960, Note_on_c, 9, 54, 92
1, 109199, Note_on_c, 9, 38, 0
1, 109199, Note_on_c, 9, 54, 0
1, 109200, Note_on_c, 9, 54, 127
1, 109439, Note_on_c, 9, 54, 0
1, 109440, Note_on_c, 9, 54, 92
1, 109440, Note_on_c, 9, 36, 123
1, 109454, Note_on_c, 9, 54, 0
1, 109455, Note_on_c, 9, 48, 78
1, 109455, Note_on_c, 9, 50, 91
1, 109514, Note_on_c, 9, 48, 0
1, 109514, Note_on_c, 9, 50, 0
1, 109680, Note_on_c, 9, 54, 76
1, 109799, Note_on_c, 9, 54, 0
1, 109800, Note_on_c, 9, 45, 102
1, 109800, Note_on_c, 9, 48, 62
1, 109919, Note_on_c, 9, 36, 0
1, 109919, Note_on_c, 9, 45, 0
1, 109919, Note_on_c, 9, 48, 0
1, 109920, Note_on_c, 9, 38, 127
1, 109920, Note_on_c, 9, 54, 92
1, 110159, Note_on_c, 9, 38, 0
1, 110159, Note_on_c, 9, 54, 0
1, 110160, Note_on_c, 9, 54, 76
1, 110179, Note_on_c, 9, 54, 0
1, 110180, Note_on_c, 9, 41, 103
1, 110199, Note_on_c, 9, 41, 0
1, 110200, Note_on_c, 9, 45, 95
1, 110219, Note_on_c, 9, 45, 0
1, 110400, Note_on_c, 9, 54, 92
1, 110400, Note_on_c, 9, 36, 123
1, 110624, Note_on_c, 9, 54, 0
1, 110625, Note_on_c, 9, 38, 127
1, 110639, Note_on_c, 9, 36, 0
1, 110640, Note_on_c, 9, 41, 93
1, 110640, Note_on_c, 9, 45, 93
1, 110640, Note_on_c, 9, 36, 123
1, 110879, Note_on_c, 9, 38, 0
1, 110879, Note_on_c, 9, 41, 0
1, 110879, Note_on_c, 9, 45, 0
1, 110879, Note_on_c, 9, 36, 0
1, 110880, Note_on_c, 9, 48, 120
1, 110894, Note_on_c, 9, 48, 0
1, 110895, Note_on_c, 9, 41, 110
1, 110895, Note_on_c, 9, 45, 120
1, 110954, Note_on_c, 9, 41, 0
1, 110954, Note_on_c, 9, 45, 0
1, 111000, Note_on_c, 9, 45, 120
1, 111119, Note_on_c, 9, 45, 0
1, 111120, Note_on_c, 9, 41, 120
1, 111359, Note_on_c, 9, 41, 0
1, 111360, Note_on_c, 9, 49, 108
1, 111360, Note_on_c, 9, 36, 123
1, 111362, Note_on_c, 9, 49, 0
1, 111389, Note_on_c, 9, 36, 0
1, 111390, Note_on_c, 9, 36, 54
1, 111420, Note_on_c, 9, 51, 54
1, 111428, Note_on_c, 9, 51, 0
1, 111449, Note_on_c, 9, 36, 0
1, 111600, Note_on_c, 9, 54, 76
1, 111600, Note_on_c, 9, 53, 96
1, 111839, Note_on_c, 9, 54, 0
1, 111839, Note_on_c, 9, 53, 0
1, 111840, Note_on_c, 9, 38, 127
1, 111840, Note_on_c, 9, 54, 104
1, 112079, Note_on_c, 9, 38, 0
1, 112079, Note_on_c, 9, 54, 0
1, 112080, Note_on_c, 9, 54, 73
1, 112080, Note_on_c, 9, 53, 100
1, 112080, Note_on_c, 9, 49, 108
1, 112080, Note_on_c, 9, 36, 123
1, 112091, Note_on_c, 9, 49, 0
1, 112319, Note_on_c, 9, 54, 0
1, 112319, Note_on_c, 9, 53, 0
1, 112319, Note_on_c, 9, 36, 0
1, 112320, Note_on_c, 9, 54, 121
1, 112559, Note_on_c, 9, 54, 0
1, 112560, Note_on_c, 9, 54, 68
1, 112560, Note_on_c, 9, 53, 96
1, 112799, Note_on_c, 9, 54, 0
1, 112799, Note_on_c, 9, 53, 0
1, 112800, Note_on_c, 9, 38, 127
1, 112800, Note_on_c, 9, 54, 126
1, 112800, Note_on_c, 9, 49, 108
1, 112800, Note_on_c, 9, 36, 123
1, 112811, Note_on_c, 9, 49, 0
1, 113039, Note_on_c, 9, 38, 0
1, 113039, Note_on_c, 9, 54, 0
1, 113040, Note_on_c, 9, 54, 81
1, 113040, Note_on_c, 9, 53, 98
1, 113279, Note_on_c, 9, 36, 0
1, 113279, Note_on_c, 9, 54, 0
1, 113279, Note_on_c, 9, 53, 0
1, 113280, Note_on_c, 9, 54, 121
1, 113519, Note_on_c, 9, 54, 0
1, 113520, Note_on_c, 9, 38, 127
1, 113520, Note_on_c, 9, 54, 72
1, 113520, Note_on_c, 9, 53, 95
1, 113520, Note_on_c, 9, 49, 108
1, 113520, Note_on_c, 9, 36, 123
1, 113531, Note_on_c, 9, 49, 0
1, 113759, Note_on_c, 9, 38, 0
1, 113759, Note_on_c, 9, 54, 0
1, 113759, Note_on_c, 9, 53, 0
1, 113759, Note_on_c, 9, 36, 0
1, 113760, Note_on_c, 9, 54, 61
1, 113999, Note_on_c, 9, 54, 0
1, 114000, Note_on_c, 9, 54, 122
1, 114000, Note_on_c, 9, 53, 107
1, 114000, Note_on_c, 9, 36, 92
1, 114239, Note_on_c, 9, 54, 0
1, 114239, Note_on_c, 9, 53, 0
1, 114239, Note_on_c, 9, 36, 0
1, 114240, Note_on_c, 9, 38, 127
1, 114240, Note_on_c, 9, 54, 92
1, 114240, Note_on_c, 9, 49, 108
1, 114240, Note_on_c, 9, 36, 123
1, 114251, Note_on_c, 9, 49, 0
1, 114479, Note_on_c, 9, 38, 0
1, 114479, Note_on_c, 9, 54, 0
1, 114479, Note_on_c, 9, 36, 0
1, 114480, Note_on_c, 9, 38, 127
1, 114480, Note_on_c, 9, 54, 69
1, 114480, Note_on_c, 9, 53, 101
1, 114480, Note_on_c, 9, 36, 123
1, 114719, Note_on_c, 9, 38, 0
1, 114719, Note_on_c, 9, 54, 0
1, 114719, Note_on_c, 9, 53, 0
1, 114719, Note_on_c, 9, 36, 0
1, 114720, Note_on_c, 9, 54, 126
1, 114959, Note_on_c, 9, 54, 0
1, 114960, Note_on_c, 9, 54, 67
1, 114960, Note_on_c, 9, 53, 98
1, 114960, Note_on_c, 9, 36, 123
1, 115199, Note_on_c, 9, 54, 0
1, 115199, Note_on_c, 9, 53, 0
1, 115199, Note_on_c, 9, 36, 0
1, 115200, Note_on_c, 9, 54, 126
1, 115200, Note_on_c, 9, 49, 108
1, 115200, Note_on_c, 9, 36, 123
1, 115211, Note_on_c, 9, 49, 0
1, 115439, Note_on_c, 9, 54, 0
1, 115440, Note_on_c, 9, 54, 72
1, 115679, Note_on_c, 9, 36, 0
1, 115679, Note_on_c, 9, 54, 0
1, 115680, Note_on_c, 9, 38, 127
1, 115680, Note_on_c, 9, 54, 66
1, 115919, Note_on_c, 9, 38, 0
1, 115919, Note_on_c, 9, 54, 0
1, 115920, Note_on_c, 9, 54, 127
1, 116159, Note_on_c, 9, 54, 0
1, 116160, Note_on_c, 9, 54, 81
1, 116160, Note_on_c, 9, 36, 123
1, 116399, Note_on_c, 9, 54, 0
1, 116399, Note_on_c, 9, 36, 0
1, 116400, Note_on_c, 9, 54, 44
1, 116400, Note_on_c, 9, 36, 123
1, 116639, Note_on_c, 9, 54, 0
1, 116639, Note_on_c, 9, 36, 0
1, 116640, Note_on_c, 9, 38, 127
1, 116640, Note_on_c, 9, 54, 127
1, 116879, Note_on_c, 9, 38, 0
1, 116879, Note_on_c, 9, 54, 0
1, 116880, Note_on_c, 9, 54, 76
1, 116880, Note_on_c, 9, 49, 108
1, 116880, Note_on_c, 9, 36, 123
1, 116891, Note_on_c, 9, 49, 0
1, 117119, Note_on_c, 9, 54, 0
1, 117119, Note_on_c, 9, 36, 0
1, 117120, Note_on_c, 9, 54, 116
1, 117359, Note_on_c, 9, 54, 0
1, 117360, Note_on_c, 9, 54, 65
1, 117360, Note_on_c, 9, 36, 123
1, 117599, Note_on_c, 9, 54, 0
1, 117599, Note_on_c, 9, 36, 0
1, 117600, Note_on_c, 9, 38, 127
1, 117600, Note_on_c, 9, 54, 67
1, 117839, Note_on_c, 9, 38, 0
1, 117839, Note_on_c, 9, 54, 0
1, 117840, Note_on_c, 9, 54, 61
1, 118079, Note_on_c, 9, 54, 0
1, 118080, Note_on_c, 9, 54, 76
1, 118080, Note_on_c, 9, 36, 123
1, 118319, Note_on_c, 9, 54, 0
1, 118319, Note_on_c, 9, 36, 0
1, 118320, Note_on_c, 9, 54, 126
1, 118320, Note_on_c, 9, 36, 123
1, 118343, Note_on_c, 9, 54, 0
1, 118344, Note_on_c, 9, 38, 54
1, 118391, Note_on_c, 9, 38, 0
1, 118416, Note_on_c, 9, 38, 48
1, 118463, Note_on_c, 9, 38, 0
1, 118464, Note_on_c, 9, 38, 45
1, 118559, Note_on_c, 9, 36, 0
1, 118559, Note_on_c, 9, 38, 0
1, 118560, Note_on_c, 9, 38, 127
1, 118560, Note_on_c, 9, 54, 66
1, 118560, Note_on_c, 9, 46, 53
1, 118571, Note_on_c, 9, 46, 0
1, 118799, Note_on_c, 9, 38, 0
1, 118799, Note_on_c, 9, 54, 0
1, 118800, Note_on_c, 9, 54, 127
1, 118800, Note_on_c, 9, 36, 123
1, 119039, Note_on_c, 9, 54, 0
1, 119039, Note_on_c, 9, 36, 0
1, 119040, Note_on_c, 9, 54, 86
1, 119040, Note_on_c, 9, 49, 108
1, 119040, Note_on_c, 9, 36, 123
1, 119042, Note_on_c, 9, 49, 0
1, 119099, Note_on_c, 9, 54, 0
1, 119100, Note_on_c, 9, 52, 118
1, 119106, Note_on_c, 9, 52, 0
1, 119130, Note_on_c, 9, 49, 34
1, 119134, Note_on_c, 9, 49, 0
1, 119280, Note_on_c, 9, 54, 61
1, 119519, Note_on_c, 9, 36, 0
1, 119519, Note_on_c, 9, 54, 0
1, 119520, Note_on_c, 9, 38, 127
1, 119520, Note_on_c, 9, 54, 80
1, 119759, Note_on_c, 9, 38, 0
1, 119759, Note_on_c, 9, 54, 0
1, 119760, Note_on_c, 9, 54, 44
1, 119999, Note_on_c, 9, 54, 0
1, 120000, Note_on_c, 9, 54, 88
1, 120000, Note_on_c, 9, 36, 123
1, 120239, Note_on_c, 9, 54, 0
1, 120239, Note_on_c, 9, 36, 0
1, 120240, Note_on_c, 9, 54, 63
1, 120240, Note_on_c, 9, 36, 123
1, 120479, Note_on_c, 9, 54, 0
1, 120479, Note_on_c, 9, 36, 0
1, 120480, Note_on_c, 9, 38, 127
1, 120480, Note_on_c, 9, 54, 48
1, 120719, Note_on_c, 9, 38, 0
1, 120719, Note_on_c, 9, 54, 0
1, 120720, Note_on_c, 9, 54, 127
1, 120720, Note_on_c, 9, 49, 108
1, 120720, Note_on_c, 9, 36, 123
1, 120731, Note_on_c, 9, 49, 0
1, 120959, Note_on_c, 9, 54, 0
1, 120959, Note_on_c, 9, 36, 0
1, 120960, Note_on_c, 9, 54, 112
1, 121199, Note_on_c, 9, 54, 0
1, 121200, Note_on_c, 9, 54, 76
1, 121200, Note_on_c, 9, 36, 123
1, 121439, Note_on_c, 9, 54, 0
1, 121439, Note_on_c, 9, 36, 0
1, 121440, Note_on_c, 9, 38, 127
1, 121440, Note_on_c, 9, 54, 92
1, 121679, Note_on_c, 9, 38, 0
1, 121679, Note_on_c, 9, 54, 0
1, 121680, Note_on_c, 9, 54, 76
1, 121719, Note_on_c, 9, 54, 0
1, 121720, Note_on_c, 9, 45, 52
1, 121739, Note_on_c, 9, 45, 0
1, 121800, Note_on_c, 9, 45, 50
1, 121839, Note_on_c, 9, 45, 0
1, 121840, Note_on_c, 9, 45, 59
1, 121919, Note_on_c, 9, 45, 0
1, 121920, Note_on_c, 9, 54, 75
1, 121920, Note_on_c, 9, 36, 123
1, 121934, Note_on_c, 9, 54, 0
1, 121935, Note_on_c, 9, 45, 104
1, 122114, Note_on_c, 9, 45, 0
1, 122145, Note_on_c, 9, 54, 44
1, 122159, Note_on_c, 9, 36, 0
1, 122160, Note_on_c, 9, 41, 57
1, 122160, Note_on_c, 9, 36, 123
1, 122219, Note_on_c, 9, 41, 0
1, 122249, Note_on_c, 9, 54, 0
1, 122250, Note_on_c, 9, 41, 56
1, 122309, Note_on_c, 9, 41, 0
1, 122310, Note_on_c, 9, 41, 56
1, 122369, Note_on_c, 9, 41, 0
1, 122385, Note_on_c, 9, 41, 120
1, 122385, Note_on_c, 9, 38, 127
1, 122385, Note_on_c, 9, 54, 89
1, 122399, Note_on_c, 9, 36, 0
1, 122624, Note_on_c, 9, 41, 0
1, 122639, Note_on_c, 9, 38, 0
1, 122639, Note_on_c, 9, 54, 0
1, 122640, Note_on_c, 9, 54, 61
1, 122640, Note_on_c, 9, 36, 123
1, 122879, Note_on_c, 9, 54, 0
1, 122879, Note_on_c, 9, 36, 0
1, 122880, Note_on_c, 9, 54, 92
1, 122880, Note_on_c, 9, 49, 108
1, 122880, Note_on_c, 9, 52, 64
1, 122880, Note_on_c, 9, 36, 123
1, 122891, Note_on_c, 9, 49, 0
1, 122891, Note_on_c, 9, 52, 0
1, 123119, Note_on_c, 9, 54, 0
1, 123120, Note_on_c, 9, 54, 121
1, 123359, Note_on_c, 9, 36, 0
1, 123359, Note_on_c, 9, 54, 0
1, 123360, Note_on_c, 9, 38, 127
1, 123360, Note_on_c, 9, 54, 92
1, 123599, Note_on_c, 9, 38, 0
1, 123599, Note_on_c, 9, 54, 0
1, 123600, Note_on_c, 9, 54, 122
1, 123839, Note_on_c, 9, 54, 0
1, 123840, Note_on_c, 9, 54, 92
1, 123840, Note_on_c, 9, 36, 123
1, 124079, Note_on_c, 9, 54, 0
1, 124079, Note_on_c, 9, 36, 0
1, 124080, Note_on_c, 9, 54, 125
1, 124080, Note_on_c, 9, 36, 123
1, 124319, Note_on_c, 9, 54, 0
1, 124319, Note_on_c, 9, 36, 0
1, 124320, Note_on_c, 9, 38, 127
1, 124320, Note_on_c, 9, 54, 92
1, 124559, Note_on_c, 9, 38, 0
1, 124559, Note_on_c, 9, 54, 0
1, 124560, Note_on_c, 9, 54, 127
1, 124560, Note_on_c, 9, 49, 108
1, 124560, Note_on_c, 9, 36, 123
1, 124571, Note_on_c, 9, 49, 0
1, 124799, Note_on_c, 9, 54, 0
1, 124799, Note_on_c, 9, 36, 0
1, 124800, Note_on_c, 9, 54, 92
1, 124800, Note_on_c, 9, 53, 94
1, 125039, Note_on_c, 9, 54, 0
1, 125039, Note_on_c, 9, 53, 0
1, 125040, Note_on_c, 9, 54, 65
1, 125040, Note_on_c, 9, 36, 123
1, 125279, Note_on_c, 9, 54, 0
1, 125279, Note_on_c, 9, 36, 0
1, 125280, Note_on_c, 9, 38, 127
1, 125280, Note_on_c, 9, 54, 99
1, 125280, Note_on_c, 9, 53, 95
1, 125519, Note_on_c, 9, 38, 0
1, 125519, Note_on_c, 9, 54, 0
1, 125519, Note_on_c, 9, 53, 0
1, 125520, Note_on_c, 9, 54, 64
1, 125759, Note_on_c, 9, 54, 0
1, 125760, Note_on_c, 9, 54, 100
1, 125760, Note_on_c, 9, 53, 102
1, 125760, Note_on_c, 9, 36, 123
1, 125999, Note_on_c, 9, 54, 0
1, 125999, Note_on_c, 9, 53, 0
1, 125999, Note_on_c, 9, 36, 0
1, 126000, Note_on_c, 9, 54, 66
1, 126000, Note_on_c, 9, 36, 123
1, 126239, Note_on_c, 9, 54, 0
1, 126239, Note_on_c, 9, 36, 0
1, 126240, Note_on_c, 9, 38, 127
1, 126240, Note_on_c, 9, 54, 102
1, 126240, Note_on_c, 9, 53, 105
1, 126479, Note_on_c, 9, 38, 0
1, 126479, Note_on_c, 9, 54, 0
1, 126479, Note_on_c, 9, 53, 0
1, 126480, Note_on_c, 9, 54, 65
1, 126480, Note_on_c, 9, 36, 123
1, 126719, Note_on_c, 9, 54, 0
1, 126719, Note_on_c, 9, 36, 0
1, 126720, Note_on_c, 9, 38, 127
1, 126720, Note_on_c, 9, 36, 123
1, 126959, Note_on_c, 9, 38, 0
1, 126960, Note_on_c, 9, 38, 95
1, 126979, Note_on_c, 9, 38, 0
1, 126980, Note_on_c, 9, 38, 97
1, 127019, Note_on_c, 9, 38, 0
1, 127050, Note_on_c, 9, 38, 61
1, 127079, Note_on_c, 9, 38, 0
1, 127080, Note_on_c, 9, 38, 111
1, 127099, Note_on_c, 9, 38, 0
1, 127100, Note_on_c, 9, 38, 100
1, 127139, Note_on_c, 9, 38, 0
1, 127199, Note_on_c, 9, 36, 0
1, 127200, Note_on_c, 9, 38, 115
1, 127200, Note_on_c, 9, 36, 123
1, 127319, Note_on_c, 9, 38, 0
1, 127320, Note_on_c, 9, 50, 123
1, 127439, Note_on_c, 9, 50, 0
1, 127440, Note_on_c, 9, 48, 120
1, 127440, Note_on_c, 9, 50, 45
1, 127559, Note_on_c, 9, 48, 0
1, 127559, Note_on_c, 9, 50, 0
1, 127560, Note_on_c, 9, 50, 96
1, 127679, Note_on_c, 9, 36, 0
1, 127679, Note_on_c, 9, 50, 0
1, 127680, Note_on_c, 9, 48, 120
1, 127680, Note_on_c, 9, 50, 121
1, 127680, Note_on_c, 9, 36, 123
1, 127799, Note_on_c, 9, 48, 0
1, 127799, Note_on_c, 9, 50, 0
1, 127800, Note_on_c, 9, 48, 122
1, 127859, Note_on_c, 9, 48, 0
1, 127905, Note_on_c, 9, 45, 120
1, 127905, Note_on_c, 9, 48, 44
1, 127964, Note_on_c, 9, 48, 0
1, 128039, Note_on_c, 9, 45, 0
1, 128040, Note_on_c, 9, 48, 120
1, 128099, Note_on_c, 9, 48, 0
1, 128130, Note_on_c, 9, 45, 120
1, 128130, Note_on_c, 9, 48, 120
1, 128159, Note_on_c, 9, 36, 0
1, 128160, Note_on_c, 9, 36, 123
1, 128249, Note_on_c, 9, 48, 0
1, 128279, Note_on_c, 9, 45, 0
1, 128280, Note_on_c, 9, 45, 127
1, 128399, Note_on_c, 9, 36, 0
1, 128399, Note_on_c, 9, 45, 0
1, 128400, Note_on_c, 9, 41, 120
1, 128400, Note_on_c, 9, 36, 123
1, 128519, Note_on_c, 9, 41, 0
1, 128520, Note_on_c, 9, 41, 127
1, 128639, Note_on_c, 9, 36, 0
1, 128639, Note_on_c, 9, 41, 0
1, 128640, Note_on_c, 9, 54, 103
1, 128640, Note_on_c, 9, 49, 108
1, 128640, Note_on_c, 9, 52, 127
1, 128640, Note_on_c, 9, 36, 123
1, 128651, Note_on_c, 9, 49, 0
1, 128651, Note_on_c, 9, 52, 0
1, 128879, Note_on_c, 9, 54, 0
1, 128880, Note_on_c, 9, 54, 67
1, 129119, Note_on_c, 9, 36, 0
1, 129119, Note_on_c, 9, 54, 0
1, 129120, Note_on_c, 9, 38, 127
1, 129120, Note_on_c, 9, 54, 64
1, 129120, Note_on_c, 9, 53, 127
1, 129359, Note_on_c, 9, 38, 0
1, 129359, Note_on_c, 9, 54, 0
1, 129359, Note_on_c, 9, 53, 0
1, 129360, Note_on_c, 9, 54, 125
1, 129599, Note_on_c, 9, 54, 0
1, 129600, Note_on_c, 9, 54, 84
1, 129600, Note_on_c, 9, 53, 127
1, 129600, Note_on_c, 9, 36, 123
1, 129839, Note_on_c, 9, 54, 0
1, 129839, Note_on_c, 9, 53, 0
1, 129839, Note_on_c, 9, 36, 0
1, 129840, Note_on_c, 9, 54, 63
1, 129840, Note_on_c, 9, 36, 123
1, 130079, Note_on_c, 9, 54, 0
1, 130079, Note_on_c, 9, 36, 0
1, 130080, Note_on_c, 9, 38, 127
1, 130080, Note_on_c, 9, 54, 118
1, 130080, Note_on_c, 9, 53, 76
1, 130319, Note_on_c, 9, 38, 0
1, 130319, Note_on_c, 9, 54, 0
1, 130319, Note_on_c, 9, 53, 0
1, 130320, Note_on_c, 9, 54, 67
1, 130559, Note_on_c, 9, 54, 0
1, 130560, Note_on_c, 9, 54, 127
1, 130560, Note_on_c, 9, 53, 103
1, 130560, Note_on_c, 9, 36, 123
1, 130799, Note_on_c, 9, 54, 0
1, 130799, Note_on_c, 9, 53, 0
1, 130800, Note_on_c, 9, 54, 71
1, 131039, Note_on_c, 9, 36, 0
1, 131039, Note_on_c, 9, 54, 0
1, 131040, Note_on_c, 9, 38, 127
1, 131040, Note_on_c, 9, 54, 70
1, 131040, Note_on_c, 9, 53, 96
1, 131279, Note_on_c, 9, 38, 0
1, 131279, Note_on_c, 9, 54, 0
1, 131279, Note_on_c, 9, 53, 0
1, 131280, Note_on_c, 9, 54, 127
1, 131519, Note_on_c, 9, 54, 0
1, 131520, Note_on_c, 9, 54, 79
1, 131520, Note_on_c, 9, 53, 83
1, 131520, Note_on_c, 9, 36, 123
1, 131759, Note_on_c, 9, 54, 0
1, 131759, Note_on_c, 9, 53, 0
1, 131759, Note_on_c, 9, 36, 0
1, 131760, Note_on_c, 9, 54, 126
1, 131760, Note_on_c, 9, 36, 123
1, 131999, Note_on_c, 9, 54, 0
1, 131999, Note_on_c, 9, 36, 0
1, 132000, Note_on_c, 9, 38, 127
1, 132000, Note_on_c, 9, 54, 92
1, 132000, Note_on_c, 9, 53, 96
1, 132239, Note_on_c, 9, 38, 0
1, 132239, Note_on_c, 9, 54, 0
1, 132239, Note_on_c, 9, 53, 0
1, 132240, Note_on_c, 9, 54, 121
1, 132479, Note_on_c, 9, 54, 0
1, 132480, Note_on_c, 9, 54, 107
1, 132480, Note_on_c, 9, 53, 86
1, 132480, Note_on_c, 9, 36, 123
1, 132719, Note_on_c, 9, 54, 0
1, 132719, Note_on_c, 9, 53, 0
1, 132720, Note_on_c, 9, 54, 67
1, 132720, Note_on_c, 9, 53, 75
1, 132959, Note_on_c, 9, 36, 0
1, 132959, Note_on_c, 9, 54, 0
1, 132959, Note_on_c, 9, 53, 0
1, 132960, Note_on_c, 9, 38, 127
1, 132960, Note_on_c, 9, 54, 96
1, 132960, Note_on_c, 9, 53, 96
1, 133199, Note_on_c, 9, 38, 0
1, 133199, Note_on_c, 9, 54, 0
1, 133199, Note_on_c, 9, 53, 0
1, 133200, Note_on_c, 9, 54, 64
1, 133200, Note_on_c, 9, 53, 70
1, 133439, Note_on_c, 9, 54, 0
1, 133439, Note_on_c, 9, 53, 0
1, 133440, Note_on_c, 9, 54, 92
1, 133440, Note_on_c, 9, 53, 96
1, 133440, Note_on_c, 9, 36, 123
1, 133679, Note_on_c, 9, 54, 0
1, 133679, Note_on_c, 9, 53, 0
1, 133679, Note_on_c, 9, 36, 0
1, 133680, Note_on_c, 9, 54, 68
1, 133680, Note_on_c, 9, 53, 73
1, 133680, Note_on_c, 9, 36, 123
1, 133919, Note_on_c, 9, 54, 0
1, 133919, Note_on_c, 9, 53, 0
1, 133919, Note_on_c, 9, 36, 0
1, 133920, Note_on_c, 9, 38, 127
1, 133920, Note_on_c, 9, 54, 103
1, 133920, Note_on_c, 9, 53, 95
1, 134159, Note_on_c, 9, 38, 0
1, 134159, Note_on_c, 9, 54, 0
1, 134159, Note_on_c, 9, 53, 0
1, 134160, Note_on_c, 9, 54, 69
1, 134160, Note_on_c, 9, 53, 73
1, 134399, Note_on_c, 9, 54, 0
1, 134399, Note_on_c, 9, 53, 0
1, 134400, Note_on_c, 9, 54, 125
1, 134400, Note_on_c, 9, 53, 98
1, 134400, Note_on_c, 9, 36, 123
1, 134639, Note_on_c, 9, 54, 0
1, 134639, Note_on_c, 9, 53, 0
1, 134640, Note_on_c, 9, 54, 69
1, 134640, Note_on_c, 9, 53, 67
1, 134879, Note_on_c, 9, 36, 0
1, 134879, Note_on_c, 9, 54, 0
1, 134879, Note_on_c, 9, 53, 0
1, 134880, Note_on_c, 9, 38, 127
1, 134880, Note_on_c, 9, 54, 65
1, 134880, Note_on_c, 9, 53, 93
1, 135119, Note_on_c, 9, 38, 0
1, 135119, Note_on_c, 9, 54, 0
1, 135119, Note_on_c, 9, 53, 0
1, 135120, Note_on_c, 9, 54, 124
1, 135120, Note_on_c, 9, 53, 67
1, 135359, Note_on_c, 9, 54, 0
1, 135359, Note_on_c, 9, 53, 0
1, 135360, Note_on_c, 9, 54, 71
1, 135360, Note_on_c, 9, 53, 90
1, 135360, Note_on_c, 9, 36, 123
1, 135539, Note_on_c, 9, 53, 0
1, 135584, Note_on_c, 9, 54, 0
1, 135585, Note_on_c, 9, 54, 59
1, 135599, Note_on_c, 9, 36, 0
1, 135600, Note_on_c, 9, 51, 61
1, 135600, Note_on_c, 9, 36, 123
1, 135605, Note_on_c, 9, 51, 0
1, 135719, Note_on_c, 9, 54, 0
1, 135720, Note_on_c, 9, 51, 65
1, 135722, Note_on_c, 9, 51, 0
1, 135825, Note_on_c, 9, 38, 127
1, 135825, Note_on_c, 9, 54, 125
1, 135825, Note_on_c, 9, 51, 74
1, 135835, Note_on_c, 9, 51, 0
1, 135839, Note_on_c, 9, 36, 0
1, 136079, Note_on_c, 9, 38, 0
1, 136079, Note_on_c, 9, 54, 0
1, 136080, Note_on_c, 9, 54, 69
1, 136080, Note_on_c, 9, 51, 97
1, 136085, Note_on_c, 9, 51, 0
1, 136199, Note_on_c, 9, 54, 0
1, 136200, Note_on_c, 9, 51, 95
1, 136205, Note_on_c, 9, 51, 0
1, 136320, Note_on_c, 9, 54, 121
1, 136320, Note_on_c, 9, 51, 57
1, 136320, Note_on_c, 9, 36, 123
1, 136331, Note_on_c, 9, 51, 0
1, 136559, Note_on_c, 9, 54, 0
1, 136560, Note_on_c, 9, 54, 69
1, 136560, Note_on_c, 9, 53, 68
1, 136799, Note_on_c, 9, 36, 0
1, 136799, Note_on_c, 9, 54, 0
1, 136799, Note_on_c, 9, 53, 0
1, 136800, Note_on_c, 9, 38, 127
1, 136800, Note_on_c, 9, 54, 72
1, 136800, Note_on_c, 9, 53, 87
1, 136800, Note_on_c, 9, 52, 127
1, 136811, Note_on_c, 9, 52, 0
1, 137039, Note_on_c, 9, 38, 0
1, 137039, Note_on_c, 9, 54, 0
1, 137039, Note_on_c, 9, 53, 0
1, 137040, Note_on_c, 9, 54, 46
1, 137040, Note_on_c, 9, 53, 68
1, 137279, Note_on_c, 9, 54, 0
1, 137279, Note_on_c, 9, 53, 0
1, 137280, Note_on_c, 9, 54, 127
1, 137280, Note_on_c, 9, 53, 88
1, 137280, Note_on_c, 9, 36, 123
1, 137519, Note_on_c, 9, 54, 0
1, 137519, Note_on_c, 9, 53, 0
1, 137519, Note_on_c, 9, 36, 0
1, 137520, Note_on_c, 9, 54, 62
1, 137520, Note_on_c, 9, 53, 71
1, 137520, Note_on_c, 9, 36, 123
1, 137759, Note_on_c, 9, 54, 0
1, 137759, Note_on_c, 9, 53, 0
1, 137759, Note_on_c, 9, 36, 0
1, 137760, Note_on_c, 9, 38, 127
1, 137760, Note_on_c, 9, 54, 122
1, 137760, Note_on_c, 9, 53, 84
1, 137999, Note_on_c, 9, 38, 0
1, 137999, Note_on_c, 9, 54, 0
1, 137999, Note_on_c, 9, 53, 0
1, 138000, Note_on_c, 9, 54, 64
1, 138000, Note_on_c, 9, 53, 70
1, 138239, Note_on_c, 9, 54, 0
1, 138239, Note_on_c, 9, 53, 0
1, 138240, Note_on_c, 9, 54, 123
1, 138240, Note_on_c, 9, 53, 84
1, 138240, Note_on_c, 9, 36, 123
1, 138479, Note_on_c, 9, 54, 0
1, 138479, Note_on_c, 9, 53, 0
1, 138480, Note_on_c, 9, 54, 70
1, 138719, Note_on_c, 9, 36, 0
1, 138719, Note_on_c, 9, 54, 0
1, 138720, Note_on_c, 9, 38, 127
1, 138720, Note_on_c, 9, 54, 53
1, 138720, Note_on_c, 9, 53, 93
1, 138959, Note_on_c, 9, 38, 0
1, 138959, Note_on_c, 9, 54, 0
1, 138959, Note_on_c, 9, 53, 0
1, 138960, Note_on_c, 9, 54, 127
1, 138960, Note_on_c, 9, 53, 69
1, 139199, Note_on_c, 9, 54, 0
1, 139199, Note_on_c, 9, 53, 0
1, 139200, Note_on_c, 9, 54, 83
1, 139200, Note_on_c, 9, 53, 92
1, 139200, Note_on_c, 9, 36, 123
1, 139439, Note_on_c, 9, 54, 0
1, 139439, Note_on_c, 9, 53, 0
1, 139439, Note_on_c, 9, 36, 0
1, 139440, Note_on_c, 9, 54, 50
1, 139440, Note_on_c, 9, 53, 72
1, 139440, Note_on_c, 9, 36, 123
1, 139679, Note_on_c, 9, 54, 0
1, 139679, Note_on_c, 9, 53, 0
1, 139679, Note_on_c, 9, 36, 0
1, 139680, Note_on_c, 9, 38, 127
1, 139680, Note_on_c, 9, 54, 126
1, 139680, Note_on_c, 9, 53, 87
1, 139919, Note_on_c, 9, 38, 0
1, 139919, Note_on_c, 9, 54, 0
1, 139919, Note_on_c, 9, 53, 0
1, 139920, Note_on_c, 9, 54, 65
1, 139920, Note_on_c, 9, 53, 73
1, 140159, Note_on_c, 9, 54, 0
1, 140159, Note_on_c, 9, 53, 0
1, 140160, Note_on_c, 9, 54, 126
1, 140160, Note_on_c, 9, 53, 90
1, 140160, Note_on_c, 9, 36, 123
1, 140399, Note_on_c, 9, 54, 0
1, 140399, Note_on_c, 9, 53, 0
1, 140400, Note_on_c, 9, 54, 75
1, 140400, Note_on_c, 9, 53, 76
1, 140639, Note_on_c, 9, 36, 0
1, 140639, Note_on_c, 9, 54, 0
1, 140639, Note_on_c, 9, 53, 0
1, 140640, Note_on_c, 9, 38, 127
1, 140640, Note_on_c, 9, 54, 127
1, 140640, Note_on_c, 9, 53, 92
1, 140879, Note_on_c, 9, 38, 0
1, 140879, Note_on_c, 9, 54, 0
1, 140879, Note_on_c, 9, 53, 0
1, 140880, Note_on_c, 9, 54, 65
1, 140880, Note_on_c, 9, 53, 72
1, 141059, Note_on_c, 9, 53, 0
1, 141104, Note_on_c, 9, 54, 0
1, 141105, Note_on_c, 9, 54, 124
1, 141120, Note_on_c, 9, 51, 104
1, 141120, Note_on_c, 9, 36, 123
1, 141131, Note_on_c, 9, 51, 0
1, 141359, Note_on_c, 9, 54, 0
1, 141359, Note_on_c, 9, 36, 0
1, 141360, Note_on_c, 9, 51, 66
1, 141360, Note_on_c, 9, 57, 127
1, 141360, Note_on_c, 9, 36, 127
1, 141368, Note_on_c, 9, 51, 0
1, 141370, Note_on_c, 9, 57, 0
1, 141585, Note_on_c, 9, 38, 127
1, 141585, Note_on_c, 9, 54, 96
1, 141599, Note_on_c, 9, 36, 0
1, 141600, Note_on_c, 9, 51, 97
1, 141611, Note_on_c, 9, 51, 0
1, 141839, Note_on_c, 9, 38, 0
1, 141839, Note_on_c, 9, 54, 0
1, 141840, Note_on_c, 9, 49, 127
1, 141840, Note_on_c, 9, 49, 0
1, 141840, Note_on_c, 9, 36, 123
1, 141855, Note_on_c, 9, 51, 57
1, 141856, Note_on_c, 9, 51, 0
1, 142079, Note_on_c, 9, 36, 0
1, 142080, Note_on_c, 9, 54, 127
1, 142094, Note_on_c, 9, 54, 0
1, 142095, Note_on_c, 9, 50, 100
1, 142110, Note_on_c, 9, 48, 116
1, 142169, Note_on_c, 9, 48, 0
1, 142319, Note_on_c, 9, 50, 0
1, 142320, Note_on_c, 9, 57, 127
1, 142320, Note_on_c, 9, 36, 127
1, 142322, Note_on_c, 9, 57, 0
1, 142380, Note_on_c, 9, 48, 107
1, 142380, Note_on_c, 9, 50, 123
1, 142559, Note_on_c, 9, 36, 0
1, 142559, Note_on_c, 9, 48, 0
1, 142559, Note_on_c, 9, 50, 0
1, 142560, Note_on_c, 9, 38, 127
1, 142560, Note_on_c, 9, 54, 118
1, 142739, Note_on_c, 9, 38, 0
1, 142739, Note_on_c, 9, 54, 0
1, 142740, Note_on_c, 9, 45, 109
1, 142740, Note_on_c, 9, 48, 114
1, 142799, Note_on_c, 9, 45, 0
1, 142799, Note_on_c, 9, 48, 0
1, 142800, Note_on_c, 9, 49, 127
1, 142800, Note_on_c, 9, 36, 123
1, 142811, Note_on_c, 9, 49, 0
1, 143039, Note_on_c, 9, 36, 0
1, 143040, Note_on_c, 9, 54, 70
1, 143111, Note_on_c, 9, 54, 0
1, 143112, Note_on_c, 9, 45, 116
1, 143135, Note_on_c, 9, 45, 0
1, 143136, Note_on_c, 9, 48, 106
1, 143159, Note_on_c, 9, 48, 0
1, 143280, Note_on_c, 9, 38, 127
1, 143280, Note_on_c, 9, 54, 76
1, 143280, Note_on_c, 9, 36, 123
1, 143459, Note_on_c, 9, 38, 0
1, 143459, Note_on_c, 9, 54, 0
1, 143460, Note_on_c, 9, 41, 120
1, 143460, Note_on_c, 9, 45, 117
1, 143519, Note_on_c, 9, 36, 0
1, 143519, Note_on_c, 9, 41, 0
1, 143519, Note_on_c, 9, 45, 0
1, 143520, Note_on_c, 9, 38, 126
1, 143520, Note_on_c, 9, 54, 105
1, 143579, Note_on_c, 9, 38, 0
1, 143579, Note_on_c, 9, 54, 0
1, 143580, Note_on_c, 9, 45, 119
1, 143680, Note_on_c, 9, 43, 95
1, 143699, Note_on_c, 9, 45, 0
1, 143730, Note_on_c, 9, 41, 125
1, 143730, Note_on_c, 9, 45, 102
1, 143759, Note_on_c, 9, 43, 0
1, 143759, Note_on_c, 9, 41, 0
1, 143760, Note_on_c, 9, 41, 127
1, 143760, Note_on_c, 9, 54, 76
1, 143849, Note_on_c, 9, 45, 0
1, 143970, Note_on_c, 9, 36, 106
1, 143999, Note_on_c, 9, 41, 0
1, 143999, Note_on_c, 9, 54, 0
1, 143999, Note_on_c, 9, 36, 0
1, 144000, Note_on_c, 9, 38, 127
1, 144000, Note_on_c, 9, 49, 127
1, 144000, Note_on_c, 9, 36, 123
1, 144005, Note_on_c, 9, 49, 0
1, 144119, Note_on_c, 9, 38, 0
1, 144120, Note_on_c, 9, 46, 59
1, 144125, Note_on_c, 9, 46, 0
1, 144240, Note_on_c, 9, 54, 88
1, 144240, Note_on_c, 9, 51, 50
1, 144245, Note_on_c, 9, 51, 0
1, 144359, Note_on_c, 9, 54, 0
1, 144360, Note_on_c, 9, 46, 62
1, 144365, Note_on_c, 9, 46, 0
1, 144479, Note_on_c, 9, 36, 0
1, 144480, Note_on_c, 9, 54, 92
1, 144480, Note_on_c, 9, 51, 101
1, 144480, Note_on_c, 9, 36, 123
1, 144485, Note_on_c, 9, 51, 0
1, 144599, Note_on_c, 9, 54, 0
1, 144600, Note_on_c, 9, 46, 63
1, 144605, Note_on_c, 9, 46, 0
1, 144719, Note_on_c, 9, 36, 0
1, 144720, Note_on_c, 9, 38, 127
1, 144720, Note_on_c, 9, 54, 126
1, 144720, Note_on_c, 9, 51, 47
1, 144720, Note_on_c, 9, 36, 123
1, 144725, Note_on_c, 9, 51, 0
1, 144839, Note_on_c, 9, 38, 0
1, 144839, Note_on_c, 9, 54, 0
1, 144840, Note_on_c, 9, 46, 66
1, 144845, Note_on_c, 9, 46, 0
1, 144959, Note_on_c, 9, 36, 0
1, 144960, Note_on_c, 9, 54, 82
1, 144960, Note_on_c, 9, 51, 101
1, 144965, Note_on_c, 9, 51, 0
1, 145079, Note_on_c, 9, 54, 0
1, 145080, Note_on_c, 9, 46, 59
1, 145085, Note_on_c, 9, 46, 0
1, 145200, Note_on_c, 9, 54, 55
1, 145200, Note_on_c, 9, 51, 50
1, 145200, Note_on_c, 9, 36, 123
1, 145205, Note_on_c, 9, 51, 0
1, 145319, Note_on_c, 9, 54, 0
1, 145320, Note_on_c, 9, 46, 62
1, 145325, Note_on_c, 9, 46, 0
1, 145439, Note_on_c, 9, 36, 0
1, 145440, Note_on_c, 9, 54, 70
1, 145440, Note_on_c, 9, 51, 101
1, 145440, Note_on_c, 9, 36, 123
1, 145445, Note_on_c, 9, 51, 0
1, 145559, Note_on_c, 9, 54, 0
1, 145560, Note_on_c, 9, 46, 63
1, 145565, Note_on_c, 9, 46, 0
1, 145679, Note_on_c, 9, 36, 0
1, 145680, Note_on_c, 9, 38, 127
1, 145680, Note_on_c, 9, 54, 127
1, 145680, Note_on_c, 9, 51, 47
1, 145680, Note_on_c, 9, 49, 108
1, 145680, Note_on_c, 9, 36, 123
1, 145685, Note_on_c, 9, 51, 0
1, 145685, Note_on_c, 9, 49, 0
1, 145799, Note_on_c, 9, 38, 0
1, 145799, Note_on_c, 9, 54, 0
1, 145800, Note_on_c, 9, 46, 66
1, 145805, Note_on_c, 9, 46, 0
1, 145919, Note_on_c, 9, 36, 0
1, 145920, Note_on_c, 9, 54, 92
1, 145920, Note_on_c, 9, 51, 101
1, 145925, Note_on_c, 9, 51, 0
1, 146039, Note_on_c, 9, 54, 0
1, 146040, Note_on_c, 9, 46, 78
1, 146045, Note_on_c, 9, 46, 0
1, 146160, Note_on_c, 9, 54, 76
1, 146160, Note_on_c, 9, 51, 59
1, 146165, Note_on_c, 9, 51, 0
1, 146279, Note_on_c, 9, 54, 0
1, 146280, Note_on_c, 9, 46, 64
1, 146285, Note_on_c, 9, 46, 0
1, 146400, Note_on_c, 9, 54, 92
1, 146400, Note_on_c, 9, 51, 101
1, 146400, Note_on_c, 9, 36, 123
1, 146405, Note_on_c, 9, 51, 0
1, 146519, Note_on_c, 9, 54, 0
1, 146520, Note_on_c, 9, 46, 62
1, 146525, Note_on_c, 9, 46, 0
1, 146639, Note_on_c, 9, 36, 0
1, 146640, Note_on_c, 9, 38, 127
1, 146640, Note_on_c, 9, 54, 127
1, 146640, Note_on_c, 9, 51, 50
1, 146640, Note_on_c, 9, 49, 108
1, 146640, Note_on_c, 9, 36, 123
1, 146645, Note_on_c, 9, 51, 0
1, 146645, Note_on_c, 9, 49, 0
1, 146759, Note_on_c, 9, 38, 0
1, 146759, Note_on_c, 9, 54, 0
1, 146760, Note_on_c, 9, 46, 65
1, 146765, Note_on_c, 9, 46, 0
1, 146879, Note_on_c, 9, 36, 0
1, 146880, Note_on_c, 9, 54, 77
1, 146880, Note_on_c, 9, 51, 101
1, 146885, Note_on_c, 9, 51, 0
1, 146999, Note_on_c, 9, 54, 0
1, 147000, Note_on_c, 9, 46, 64
1, 147005, Note_on_c, 9, 46, 0
1, 147120, Note_on_c, 9, 54, 52
1, 147120, Note_on_c, 9, 51, 50
1, 147125, Note_on_c, 9, 51, 0
1, 147239, Note_on_c, 9, 54, 0
1, 147240, Note_on_c, 9, 46, 70
1, 147245, Note_on_c, 9, 46, 0
1, 147360, Note_on_c, 9, 54, 60
1, 147360, Note_on_c, 9, 51, 101
1, 147365, Note_on_c, 9, 51, 0
1, 147479, Note_on_c, 9, 54, 0
1, 147480, Note_on_c, 9, 46, 64
1, 147485, Note_on_c, 9, 46, 0
1, 147600, Note_on_c, 9, 54, 38
1, 147600, Note_on_c, 9, 51, 49
1, 147600, Note_on_c, 9, 36, 123
1, 147605, Note_on_c, 9, 51, 0
1, 147719, Note_on_c, 9, 54, 0
1, 147720, Note_on_c, 9, 46, 72
1, 147725, Note_on_c, 9, 46, 0
1, 147839, Note_on_c, 9, 36, 0
1, 147840, Note_on_c, 9, 38, 127
1, 147840, Note_on_c, 9, 54, 92
1, 147840, Note_on_c, 9, 51, 101
1, 147840, Note_on_c, 9, 49, 108
1, 147840, Note_on_c, 9, 36, 123
1, 147845, Note_on_c, 9, 51, 0
1, 147845, Note_on_c, 9, 49, 0
1, 147959, Note_on_c, 9, 38, 0
1, 147959, Note_on_c, 9, 54, 0
1, 147960, Note_on_c, 9, 46, 64
1, 147965, Note_on_c, 9, 46, 0
1, 148080, Note_on_c, 9, 54, 70
1, 148080, Note_on_c, 9, 51, 56
1, 148085, Note_on_c, 9, 51, 0
1, 148199, Note_on_c, 9, 54, 0
1, 148200, Note_on_c, 9, 46, 64
1, 148205, Note_on_c, 9, 46, 0
1, 148319, Note_on_c, 9, 36, 0
1, 148320, Note_on_c, 9, 54, 70
1, 148320, Note_on_c, 9, 51, 101
1, 148320, Note_on_c, 9, 36, 123
1, 148325, Note_on_c, 9, 51, 0
1, 148439, Note_on_c, 9, 54, 0
1, 148440, Note_on_c, 9, 46, 64
1, 148445, Note_on_c, 9, 46, 0
1, 148559, Note_on_c, 9, 36, 0
1, 148560, Note_on_c, 9, 38, 127
1, 148560, Note_on_c, 9, 54, 121
1, 148560, Note_on_c, 9, 36, 123
1, 148679, Note_on_c, 9, 38, 0
1, 148679, Note_on_c, 9, 54, 0
1, 148680, Note_on_c, 9, 46, 63
1, 148685, Note_on_c, 9, 46, 0
1, 148799, Note_on_c, 9, 36, 0
1, 148800, Note_on_c, 9, 54, 82
1, 148800, Note_on_c, 9, 51, 101
1, 148805, Note_on_c, 9, 51, 0
1, 148919, Note_on_c, 9, 54, 0
1, 148920, Note_on_c, 9, 46, 64
1, 148925, Note_on_c, 9, 46, 0
1, 149040, Note_on_c, 9, 54, 64
1, 149040, Note_on_c, 9, 51, 56
1, 149040, Note_on_c, 9, 36, 123
1, 149045, Note_on_c, 9, 51, 0
1, 149159, Note_on_c, 9, 54, 0
1, 149160, Note_on_c, 9, 46, 65
1, 149165, Note_on_c, 9, 46, 0
1, 149279, Note_on_c, 9, 36, 0
1, 149280, Note_on_c, 9, 54, 86
1, 149280, Note_on_c, 9, 51, 101
1, 149280, Note_on_c, 9, 36, 123
1, 149285, Note_on_c, 9, 51, 0
1, 149399, Note_on_c, 9, 54, 0
1, 149400, Note_on_c, 9, 46, 65
1, 149405, Note_on_c, 9, 46, 0
1, 149519, Note_on_c, 9, 36, 0
1, 149520, Note_on_c, 9, 38, 127
1, 149520, Note_on_c, 9, 54, 121
1, 149520, Note_on_c, 9, 51, 54
1, 149520, Note_on_c, 9, 49, 108
1, 149520, Note_on_c, 9, 36, 123
1, 149525, Note_on_c, 9, 51, 0
1, 149525, Note_on_c, 9, 49, 0
1, 149639, Note_on_c, 9, 38, 0
1, 149639, Note_on_c, 9, 54, 0
1, 149640, Note_on_c, 9, 46, 65
1, 149645, Note_on_c, 9, 46, 0
1, 149759, Note_on_c, 9, 36, 0
1, 149760, Note_on_c, 9, 54, 92
1, 149760, Note_on_c, 9, 51, 101
1, 149765, Note_on_c, 9, 51, 0
1, 149879, Note_on_c, 9, 54, 0
1, 149880, Note_on_c, 9, 46, 66
1, 149885, Note_on_c, 9, 46, 0
1, 150000, Note_on_c, 9, 54, 76
1, 150000, Note_on_c, 9, 51, 59
1, 150005, Note_on_c, 9, 51, 0
1, 150119, Note_on_c, 9, 54, 0
1, 150120, Note_on_c, 9, 46, 63
1, 150125, Note_on_c, 9, 46, 0
1, 150240, Note_on_c, 9, 54, 92
1, 150240, Note_on_c, 9, 51, 101
1, 150240, Note_on_c, 9, 36, 123
1, 150245, Note_on_c, 9, 51, 0
1, 150359, Note_on_c, 9, 54, 0
1, 150360, Note_on_c, 9, 46, 64
1, 150365, Note_on_c, 9, 46, 0
1, 150479, Note_on_c, 9, 36, 0
1, 150480, Note_on_c, 9, 38, 127
1, 150480, Note_on_c, 9, 54, 121
1, 150480, Note_on_c, 9, 51, 45
1, 150480, Note_on_c, 9, 49, 108
1, 150480, Note_on_c, 9, 36, 123
1, 150485, Note_on_c, 9, 51, 0
1, 150485, Note_on_c, 9, 49, 0
1, 150599, Note_on_c, 9, 38, 0
1, 150599, Note_on_c, 9, 54, 0
1, 150600, Note_on_c, 9, 46, 64
1, 150605, Note_on_c, 9, 46, 0
1, 150719, Note_on_c, 9, 36, 0
1, 150720, Note_on_c, 9, 54, 92
1, 150720, Note_on_c, 9, 51, 101
1, 150725, Note_on_c, 9, 51, 0
1, 150839, Note_on_c, 9, 54, 0
1, 150840, Note_on_c, 9, 46, 64
1, 150845, Note_on_c, 9, 46, 0
1, 150960, Note_on_c, 9, 54, 76
1, 150960, Note_on_c, 9, 51, 69
1, 150965, Note_on_c, 9, 51, 0
1, 151079, Note_on_c, 9, 54, 0
1, 151080, Note_on_c, 9, 46, 68
1, 151085, Note_on_c, 9, 46, 0
1, 151200, Note_on_c, 9, 54, 92
1, 151200, Note_on_c, 9, 51, 101
1, 151205, Note_on_c, 9, 51, 0
1, 151319, Note_on_c, 9, 54, 0
1, 151320, Note_on_c, 9, 46, 65
1, 151325, Note_on_c, 9, 46, 0
1, 151440, Note_on_c, 9, 54, 76
1, 151440, Note_on_c, 9, 51, 86
1, 151440, Note_on_c, 9, 36, 123
1, 151445, Note_on_c, 9, 51, 0
1, 151559, Note_on_c, 9, 54, 0
1, 151560, Note_on_c, 9, 46, 73
1, 151565, Note_on_c, 9, 46, 0
1, 151679, Note_on_c, 9, 36, 0
1, 151680, Note_on_c, 9, 38, 87
1, 151680, Note_on_c, 9, 52, 87
1, 151680, Note_on_c, 9, 36, 123
1, 151685, Note_on_c, 9, 52, 0
1, 151799, Note_on_c, 9, 38, 0
1, 151800, Note_on_c, 9, 38, 103
1, 151800, Note_on_c, 9, 46, 63
1, 151800, Note_on_c, 9, 49, 116
1, 151805, Note_on_c, 9, 46, 0
1, 151805, Note_on_c, 9, 49, 0
1, 151919, Note_on_c, 9, 36, 0
1, 151919, Note_on_c, 9, 38, 0
1, 151920, Note_on_c, 9, 54, 76
1, 151920, Note_on_c, 9, 51, 66
1, 151920, Note_on_c, 9, 53, 127
1, 151920, Note_on_c, 9, 36, 124
1, 151925, Note_on_c, 9, 51, 0
1, 152039, Note_on_c, 9, 54, 0
1, 152039, Note_on_c, 9, 53, 0
1, 152040, Note_on_c, 9, 46, 67
1, 152045, Note_on_c, 9, 46, 0
1, 152159, Note_on_c, 9, 36, 0
1, 152160, Note_on_c, 9, 54, 83
1, 152160, Note_on_c, 9, 51, 119
1, 152160, Note_on_c, 9, 53, 127
1, 152160, Note_on_c, 9, 36, 124
1, 152165, Note_on_c, 9, 51, 0
1, 152279, Note_on_c, 9, 54, 0
1, 152279, Note_on_c, 9, 53, 0
1, 152280, Note_on_c, 9, 46, 65
1, 152285, Note_on_c, 9, 46, 0
1, 152399, Note_on_c, 9, 36, 0
1, 152400, Note_on_c, 9, 38, 77
1, 152400, Note_on_c, 9, 54, 60
1, 152400, Note_on_c, 9, 51, 66
1, 152400, Note_on_c, 9, 36, 123
1, 152405, Note_on_c, 9, 51, 0
1, 152519, Note_on_c, 9, 38, 0
1, 152519, Note_on_c, 9, 54, 0
1, 152520, Note_on_c, 9, 38, 93
1, 152520, Note_on_c, 9, 46, 89
1, 152525, Note_on_c, 9, 46, 0
1, 152639, Note_on_c, 9, 36, 0
1, 152639, Note_on_c, 9, 38, 0
1, 152640, Note_on_c, 9, 38, 127
1, 152640, Note_on_c, 9, 54, 87
1, 152640, Note_on_c, 9, 53, 127
1, 152640, Note_on_c, 9, 49, 127
1, 152645, Note_on_c, 9, 49, 0
1, 152759, Note_on_c, 9, 38, 0
1, 152759, Note_on_c, 9, 54, 0
1, 152759, Note_on_c, 9, 53, 0
1, 152760, Note_on_c, 9, 46, 63
1, 152760, Note_on_c, 9, 49, 36
1, 152765, Note_on_c, 9, 46, 0
1, 152765, Note_on_c, 9, 49, 0
1, 152880, Note_on_c, 9, 51, 48
1, 152880, Note_on_c, 9, 53, 127
1, 152880, Note_on_c, 9, 36, 123
1, 152885, Note_on_c, 9, 51, 0
1, 152999, Note_on_c, 9, 53, 0
1, 153000, Note_on_c, 9, 46, 65
1, 153005, Note_on_c, 9, 46, 0
1, 153119, Note_on_c, 9, 36, 0
1, 153120, Note_on_c, 9, 54, 74
1, 153120, Note_on_c, 9, 51, 101
1, 153120, Note_on_c, 9, 36, 123
1, 153125, Note_on_c, 9, 51, 0
1, 153239, Note_on_c, 9, 54, 0
1, 153240, Note_on_c, 9, 46, 63
1, 153245, Note_on_c, 9, 46, 0
1, 153359, Note_on_c, 9, 36, 0
1, 153360, Note_on_c, 9, 38, 127
1, 153360, Note_on_c, 9, 54, 66
1, 153360, Note_on_c, 9, 51, 58
1, 153360, Note_on_c, 9, 49, 108
1, 153360, Note_on_c, 9, 36, 123
1, 153365, Note_on_c, 9, 51, 0
1, 153365, Note_on_c, 9, 49, 0
1, 153479, Note_on_c, 9, 38, 0
1, 153479, Note_on_c, 9, 54, 0
1, 153480, Note_on_c, 9, 46, 70
1, 153485, Note_on_c, 9, 46, 0
1, 153599, Note_on_c, 9, 36, 0
1, 153600, Note_on_c, 9, 54, 66
1, 153600, Note_on_c, 9, 51, 101
1, 153600, Note_on_c, 9, 52, 127
1, 153605, Note_on_c, 9, 51, 0
1, 153605, Note_on_c, 9, 52, 0
1, 153719, Note_on_c, 9, 54, 0
1, 153720, Note_on_c, 9, 46, 62
1, 153725, Note_on_c, 9, 46, 0
1, 153840, Note_on_c, 9, 54, 66
1, 153840, Note_on_c, 9, 51, 48
1, 153845, Note_on_c, 9, 51, 0
1, 153959, Note_on_c, 9, 54, 0
1, 153960, Note_on_c, 9, 46, 63
1, 153965, Note_on_c, 9, 46, 0
1, 154080, Note_on_c, 9, 54, 92
1, 154080, Note_on_c, 9, 51, 101
1, 154080, Note_on_c, 9, 36, 123
1, 154085, Note_on_c, 9, 51, 0
1, 154199, Note_on_c, 9, 54, 0
1, 154200, Note_on_c, 9, 46, 64
1, 154205, Note_on_c, 9, 46, 0
1, 154319, Note_on_c, 9, 36, 0
1, 154320, Note_on_c, 9, 38, 127
1, 154320, Note_on_c, 9, 54, 76
1, 154320, Note_on_c, 9, 51, 55
1, 154320, Note_on_c, 9, 49, 108
1, 154320, Note_on_c, 9, 36, 123
1, 154325, Note_on_c, 9, 51, 0
1, 154325, Note_on_c, 9, 49, 0
1, 154439, Note_on_c, 9, 38, 0
1, 154439, Note_on_c, 9, 54, 0
1, 154440, Note_on_c, 9, 46, 64
1, 154445, Note_on_c, 9, 46, 0
1, 154559, Note_on_c, 9, 36, 0
1, 154560, Note_on_c, 9, 54, 92
1, 154560, Note_on_c, 9, 51, 101
1, 154565, Note_on_c, 9, 51, 0
1, 154679, Note_on_c, 9, 54, 0
1, 154680, Note_on_c, 9, 46, 64
1, 154685, Note_on_c, 9, 46, 0
1, 154800, Note_on_c, 9, 54, 127
1, 154800, Note_on_c, 9, 51, 58
1, 154805, Note_on_c, 9, 51, 0
1, 154919, Note_on_c, 9, 54, 0
1, 154920, Note_on_c, 9, 46, 64
1, 154925, Note_on_c, 9, 46, 0
1, 155040, Note_on_c, 9, 54, 92
1, 155040, Note_on_c, 9, 51, 101
1, 155045, Note_on_c, 9, 51, 0
1, 155159, Note_on_c, 9, 54, 0
1, 155160, Note_on_c, 9, 46, 64
1, 155165, Note_on_c, 9, 46, 0
1, 155280, Note_on_c, 9, 54, 126
1, 155280, Note_on_c, 9, 51, 47
1, 155280, Note_on_c, 9, 36, 123
1, 155285, Note_on_c, 9, 51, 0
1, 155399, Note_on_c, 9, 54, 0
1, 155400, Note_on_c, 9, 46, 64
1, 155405, Note_on_c, 9, 46, 0
1, 155519, Note_on_c, 9, 36, 0
1, 155520, Note_on_c, 9, 38, 127
1, 155520, Note_on_c, 9, 54, 100
1, 155520, Note_on_c, 9, 51, 101
1, 155520, Note_on_c, 9, 49, 108
1, 155520, Note_on_c, 9, 36, 123
1, 155525, Note_on_c, 9, 51, 0
1, 155525, Note_on_c, 9, 49, 0
1, 155639, Note_on_c, 9, 38, 0
1, 155639, Note_on_c, 9, 54, 0
1, 155640, Note_on_c, 9, 46, 63
1, 155645, Note_on_c, 9, 46, 0
1, 155760, Note_on_c, 9, 54, 67
1, 155760, Note_on_c, 9, 51, 44
1, 155765, Note_on_c, 9, 51, 0
1, 155879, Note_on_c, 9, 54, 0
1, 155880, Note_on_c, 9, 46, 65
1, 155885, Note_on_c, 9, 46, 0
1, 155999, Note_on_c, 9, 36, 0
1, 156000, Note_on_c, 9, 54, 72
1, 156000, Note_on_c, 9, 51, 101
1, 156000, Note_on_c, 9, 36, 123
1, 156005, Note_on_c, 9, 51, 0
1, 156119, Note_on_c, 9, 54, 0
1, 156120, Note_on_c, 9, 46, 64
1, 156125, Note_on_c, 9, 46, 0
1, 156239, Note_on_c, 9, 36, 0
1, 156240, Note_on_c, 9, 38, 127
1, 156240, Note_on_c, 9, 54, 62
1, 156240, Note_on_c, 9, 51, 72
1, 156240, Note_on_c, 9, 36, 123
1, 156245, Note_on_c, 9, 51, 0
1, 156359, Note_on_c, 9, 38, 0
1, 156359, Note_on_c, 9, 54, 0
1, 156360, Note_on_c, 9, 46, 64
1, 156365, Note_on_c, 9, 46, 0
1, 156479, Note_on_c, 9, 36, 0
1, 156480, Note_on_c, 9, 54, 108
1, 156480, Note_on_c, 9, 51, 101
1, 156485, Note_on_c, 9, 51, 0
1, 156599, Note_on_c, 9, 54, 0
1, 156600, Note_on_c, 9, 46, 66
1, 156605, Note_on_c, 9, 46, 0
1, 156720, Note_on_c, 9, 54, 127
1, 156720, Note_on_c, 9, 51, 65
1, 156720, Note_on_c, 9, 36, 123
1, 156725, Note_on_c, 9, 51, 0
1, 156839, Note_on_c, 9, 54, 0
1, 156840, Note_on_c, 9, 46, 68
1, 156845, Note_on_c, 9, 46, 0
1, 156959, Note_on_c, 9, 36, 0
1, 156960, Note_on_c, 9, 54, 80
1, 156960, Note_on_c, 9, 51, 101
1, 156960, Note_on_c, 9, 36, 123
1, 156965, Note_on_c, 9, 51, 0
1, 157079, Note_on_c, 9, 54, 0
1, 157080, Note_on_c, 9, 46, 66
1, 157085, Note_on_c, 9, 46, 0
1, 157199, Note_on_c, 9, 36, 0
1, 157200, Note_on_c, 9, 38, 127
1, 157200, Note_on_c, 9, 54, 127
1, 157200, Note_on_c, 9, 51, 55
1, 157200, Note_on_c, 9, 49, 108
1, 157200, Note_on_c, 9, 36, 123
1, 157205, Note_on_c, 9, 51, 0
1, 157205, Note_on_c, 9, 49, 0
1, 157319, Note_on_c, 9, 38, 0
1, 157319, Note_on_c, 9, 54, 0
1, 157320, Note_on_c, 9, 46, 68
1, 157325, Note_on_c, 9, 46, 0
1, 157439, Note_on_c, 9, 36, 0
1, 157440, Note_on_c, 9, 54, 98
1, 157440, Note_on_c, 9, 51, 101
1, 157445, Note_on_c, 9, 51, 0
1, 157559, Note_on_c, 9, 54, 0
1, 157560, Note_on_c, 9, 46, 66
1, 157565, Note_on_c, 9, 46, 0
1, 157680, Note_on_c, 9, 54, 72
1, 157680, Note_on_c, 9, 51, 66
1, 157685, Note_on_c, 9, 51, 0
1, 157799, Note_on_c, 9, 54, 0
1, 157800, Note_on_c, 9, 46, 69
1, 157805, Note_on_c, 9, 46, 0
1, 157920, Note_on_c, 9, 54, 104
1, 157920, Note_on_c, 9, 51, 101
1, 157920, Note_on_c, 9, 36, 123
1, 157925, Note_on_c, 9, 51, 0
1, 158039, Note_on_c, 9, 54, 0
1, 158040, Note_on_c, 9, 46, 67
1, 158045, Note_on_c, 9, 46, 0
1, 158159, Note_on_c, 9, 36, 0
1, 158160, Note_on_c, 9, 38, 127
1, 158160, Note_on_c, 9, 54, 67
1, 158160, Note_on_c, 9, 51, 72
1, 158160, Note_on_c, 9, 49, 108
1, 158160, Note_on_c, 9, 36, 123
1, 158165, Note_on_c, 9, 51, 0
1, 158165, Note_on_c, 9, 49, 0
1, 158279, Note_on_c, 9, 38, 0
1, 158279, Note_on_c, 9, 54, 0
1, 158280, Note_on_c, 9, 46, 66
1, 158285, Note_on_c, 9, 46, 0
1, 158399, Note_on_c, 9, 36, 0
1, 158400, Note_on_c, 9, 54, 127
1, 158400, Note_on_c, 9, 51, 101
1, 158405, Note_on_c, 9, 51, 0
1, 158519, Note_on_c, 9, 54, 0
1, 158520, Note_on_c, 9, 46, 66
1, 158525, Note_on_c, 9, 46, 0
1, 158640, Note_on_c, 9, 54, 70
1, 158640, Note_on_c, 9, 51, 74
1, 158645, Note_on_c, 9, 51, 0
1, 158759, Note_on_c, 9, 54, 0
1, 158760, Note_on_c, 9, 46, 68
1, 158765, Note_on_c, 9, 46, 0
1, 158880, Note_on_c, 9, 54, 83
1, 158880, Note_on_c, 9, 51, 101
1, 158885, Note_on_c, 9, 51, 0
1, 158999, Note_on_c, 9, 54, 0
1, 159000, Note_on_c, 9, 46, 69
1, 159005, Note_on_c, 9, 46, 0
1, 159120, Note_on_c, 9, 54, 127
1, 159120, Note_on_c, 9, 51, 65
1, 159120, Note_on_c, 9, 36, 123
1, 159125, Note_on_c, 9, 51, 0
1, 159239, Note_on_c, 9, 54, 0
1, 159240, Note_on_c, 9, 46, 66
1, 159245, Note_on_c, 9, 46, 0
1, 159359, Note_on_c, 9, 36, 0
1, 159360, Note_on_c, 9, 46, 114
1, 159360, Note_on_c, 9, 49, 127
1, 159360, Note_on_c, 9, 52, 127
1, 159360, Note_on_c, 9, 36, 123
1, 159383, Note_on_c, 9, 46, 0
1, 159383, Note_on_c, 9, 49, 0
1, 159383, Note_on_c, 9, 52, 0
1, 159839, Note_on_c, 9, 36, 0
1, 159840, Note_on_c, 9, 38, 127
1, 159840, Note_on_c, 9, 46, 114
1, 159842, Note_on_c, 9, 46, 0
1, 159899, Note_on_c, 9, 38, 0
1, 159900, Note_on_c, 9, 38, 127
1, 159900, Note_on_c, 9, 46, 56
1, 159900, Note_on_c, 9, 51, 110
1, 159908, Note_on_c, 9, 46, 0
1, 159908, Note_on_c, 9, 51, 0
1, 160079, Note_on_c, 9, 38, 0
1, 160320, Note_on_c, 9, 46, 114
1, 160320, Note_on_c, 9, 53, 99
1, 160320, Note_on_c, 9, 36, 123
1, 160343, Note_on_c, 9, 46, 0
1, 160679, Note_on_c, 9, 36, 0
1, 160680, Note_on_c, 9, 36, 92
1, 160799, Note_on_c, 9, 53, 0
1, 160799, Note_on_c, 9, 36, 0
1, 160800, Note_on_c, 9, 38, 127
1, 160800, Note_on_c, 9, 46, 114
1, 160800, Note_on_c, 9, 53, 102
1, 160801, Note_on_c, 9, 46, 0
1, 160839, Note_on_c, 9, 38, 0
1, 160839, Note_on_c, 9, 53, 0
1, 160840, Note_on_c, 9, 38, 120
1, 160859, Note_on_c, 9, 38, 0
1, 161280, Note_on_c, 9, 46, 114
1, 161280, Note_on_c, 9, 53, 97
1, 161280, Note_on_c, 9, 36, 123
1, 161303, Note_on_c, 9, 46, 0
1, 161759, Note_on_c, 9, 53, 0
1, 161759, Note_on_c, 9, 36, 0
1, 161760, Note_on_c, 9, 38, 127
1, 161760, Note_on_c, 9, 46, 114
1, 161760, Note_on_c, 9, 53, 107
1, 161763, Note_on_c, 9, 46, 0
1, 161839, Note_on_c, 9, 38, 0
1, 161839, Note_on_c, 9, 53, 0
1, 161840, Note_on_c, 9, 38, 86
1, 161879, Note_on_c, 9, 38, 0
1, 162240, Note_on_c, 9, 46, 114
1, 162240, Note_on_c, 9, 53, 91
1, 162240, Note_on_c, 9, 36, 60
1, 162263, Note_on_c, 9, 46, 0
1, 162359, Note_on_c, 9, 36, 0
1, 162360, Note_on_c, 9, 36, 76
1, 162479, Note_on_c, 9, 36, 0
1, 162480, Note_on_c, 9, 36, 92
1, 162599, Note_on_c, 9, 36, 0
1, 162600, Note_on_c, 9, 36, 108
1, 162719, Note_on_c, 9, 53, 0
1, 162719, Note_on_c, 9, 36, 0
1, 162720, Note_on_c, 9, 38, 127
1, 162720, Note_on_c, 9, 46, 114
1, 162720, Note_on_c, 9, 53, 95
1, 162720, Note_on_c, 9, 52, 127
1, 162722, Note_on_c, 9, 46, 0
1, 162722, Note_on_c, 9, 52, 0
1, 162779, Note_on_c, 9, 38, 0
1, 162779, Note_on_c, 9, 53, 0
1, 162780, Note_on_c, 9, 38, 114
1, 162839, Note_on_c, 9, 38, 0
1, 162840, Note_on_c, 9, 46, 54
1, 162857, Note_on_c, 9, 46, 0
1, 163200, Note_on_c, 9, 46, 114
1, 163200, Note_on_c, 9, 53, 95
1, 163200, Note_on_c, 9, 36, 123
1, 163223, Note_on_c, 9, 46, 0
1, 163679, Note_on_c, 9, 53, 0
1, 163679, Note_on_c, 9, 36, 0
1, 163680, Note_on_c, 9, 38, 127
1, 163680, Note_on_c, 9, 46, 114
1, 163680, Note_on_c, 9, 53, 106
1, 163682, Note_on_c, 9, 46, 0
1, 163739, Note_on_c, 9, 38, 0
1, 163739, Note_on_c, 9, 53, 0
1, 163740, Note_on_c, 9, 38, 103
1, 163919, Note_on_c, 9, 38, 0
1, 164160, Note_on_c, 9, 46, 114
1, 164160, Note_on_c, 9, 53, 90
1, 164183, Note_on_c, 9, 46, 0
1, 164400, Note_on_c, 9, 36, 123
1, 164639, Note_on_c, 9, 53, 0
1, 164639, Note_on_c, 9, 36, 0
1, 164640, Note_on_c, 9, 38, 127
1, 164640, Note_on_c, 9, 46, 114
1, 164642, Note_on_c, 9, 46, 0
1, 164699, Note_on_c, 9, 38, 0
1, 164700, Note_on_c, 9, 38, 118
1, 164700, Note_on_c, 9, 51, 53
1, 164708, Note_on_c, 9, 51, 0
1, 164879, Note_on_c, 9, 38, 0
1, 164880, Note_on_c, 9, 36, 92
1, 165119, Note_on_c, 9, 36, 0
1, 165120, Note_on_c, 9, 46, 114
1, 165120, Note_on_c, 9, 53, 96
1, 165120, Note_on_c, 9, 36, 123
1, 165143, Note_on_c, 9, 46, 0
1, 165599, Note_on_c, 9, 53, 0
1, 165599, Note_on_c, 9, 36, 0
1, 165600, Note_on_c, 9, 38, 127
1, 165600, Note_on_c, 9, 46, 114
1, 165600, Note_on_c, 9, 53, 107
1, 165602, Note_on_c, 9, 46, 0
1, 165659, Note_on_c, 9, 38, 0
1, 165659, Note_on_c, 9, 53, 0
1, 165660, Note_on_c, 9, 38, 92
1, 165839, Note_on_c, 9, 38, 0
1, 166080, Note_on_c, 9, 46, 114
1, 166080, Note_on_c, 9, 53, 93
1, 166103, Note_on_c, 9, 46, 0
1, 166320, Note_on_c, 9, 36, 123
1, 166559, Note_on_c, 9, 53, 0
1, 166559, Note_on_c, 9, 36, 0
1, 166560, Note_on_c, 9, 38, 127
1, 166560, Note_on_c, 9, 46, 114
1, 166562, Note_on_c, 9, 46, 0
1, 166619, Note_on_c, 9, 38, 0
1, 166620, Note_on_c, 9, 40, 125
1, 166620, Note_on_c, 9, 51, 57
1, 166628, Note_on_c, 9, 51, 0
1, 166799, Note_on_c, 9, 40, 0
1, 166800, Note_on_c, 9, 45, 120
1, 167039, Note_on_c, 9, 45, 0
1, 167040, Note_on_c, 9, 46, 114
1, 167040, Note_on_c, 9, 53, 108
1, 167040, Note_on_c, 9, 52, 127
1, 167040, Note_on_c, 9, 36, 123
1, 167063, Note_on_c, 9, 46, 0
1, 167063, Note_on_c, 9, 52, 0
1, 167519, Note_on_c, 9, 53, 0
1, 167519, Note_on_c, 9, 36, 0
1, 167520, Note_on_c, 9, 38, 127
1, 167520, Note_on_c, 9, 46, 114
1, 167520, Note_on_c, 9, 53, 115
1, 167522, Note_on_c, 9, 46, 0
1, 167579, Note_on_c, 9, 38, 0
1, 167579, Note_on_c, 9, 53, 0
1, 167580, Note_on_c, 9, 38, 117
1, 167759, Note_on_c, 9, 38, 0
1, 168000, Note_on_c, 9, 46, 114
1, 168000, Note_on_c, 9, 53, 101
1, 168000, Note_on_c, 9, 36, 123
1, 168023, Note_on_c, 9, 46, 0
1, 168359, Note_on_c, 9, 36, 0
1, 168360, Note_on_c, 9, 36, 92
1, 168479, Note_on_c, 9, 53, 0
1, 168479, Note_on_c, 9, 36, 0
1, 168480, Note_on_c, 9, 38, 127
1, 168480, Note_on_c, 9, 46, 114
1, 168480, Note_on_c, 9, 53, 127
1, 168482, Note_on_c, 9, 46, 0
1, 168539, Note_on_c, 9, 38, 0
1, 168539, Note_on_c, 9, 53, 0
1, 168540, Note_on_c, 9, 38, 91
1, 168719, Note_on_c, 9, 38, 0
1, 168960, Note_on_c, 9, 46, 114
1, 168960, Note_on_c, 9, 53, 121
1, 168960, Note_on_c, 9, 36, 123
1, 168983, Note_on_c, 9, 46, 0
1, 169439, Note_on_c, 9, 53, 0
1, 169439, Note_on_c, 9, 36, 0
1, 169440, Note_on_c, 9, 38, 127
1, 169440, Note_on_c, 9, 46, 114
1, 169440, Note_on_c, 9, 53, 94
1, 169441, Note_on_c, 9, 46, 0
1, 169479, Note_on_c, 9, 38, 0
1, 169479, Note_on_c, 9, 53, 0
1, 169480, Note_on_c, 9, 38, 127
1, 169499, Note_on_c, 9, 38, 0
1, 169920, Note_on_c, 9, 46, 114
1, 169920, Note_on_c, 9, 48, 120
1, 169920, Note_on_c, 9, 53, 103
1, 169920, Note_on_c, 9, 36, 123
1, 169925, Note_on_c, 9, 46, 0
1, 170039, Note_on_c, 9, 48, 0
1, 170039, Note_on_c, 9, 53, 0
1, 170040, Note_on_c, 9, 48, 120
1, 170159, Note_on_c, 9, 48, 0
1, 170160, Note_on_c, 9, 48, 120
1, 170279, Note_on_c, 9, 36, 0
1, 170279, Note_on_c, 9, 48, 0
1, 170280, Note_on_c, 9, 48, 120
1, 170340, Note_on_c, 9, 36, 66
1, 170399, Note_on_c, 9, 48, 0
1, 170399, Note_on_c, 9, 36, 0
1, 170400, Note_on_c, 9, 45, 120
1, 170400, Note_on_c, 9, 46, 58
1, 170400, Note_on_c, 9, 53, 94
1, 170401, Note_on_c, 9, 46, 0
1, 170439, Note_on_c, 9, 45, 0
1, 170439, Note_on_c, 9, 53, 0
1, 170440, Note_on_c, 9, 38, 126
1, 170459, Note_on_c, 9, 38, 0
1, 170520, Note_on_c, 9, 45, 120
1, 170639, Note_on_c, 9, 45, 0
1, 170640, Note_on_c, 9, 41, 120
1, 170759, Note_on_c, 9, 41, 0
1, 170760, Note_on_c, 9, 41, 120
1, 170879, Note_on_c, 9, 41, 0
1, 170880, Note_on_c, 9, 46, 114
1, 170880, Note_on_c, 9, 53, 93
1, 170880, Note_on_c, 9, 52, 127
1, 170880, Note_on_c, 9, 36, 123
1, 170903, Note_on_c, 9, 46, 0
1, 170903, Note_on_c, 9, 52, 0
1, 171359, Note_on_c, 9, 53, 0
1, 171359, Note_on_c, 9, 36, 0
1, 171360, Note_on_c, 9, 38, 127
1, 171360, Note_on_c, 9, 46, 114
1, 171360, Note_on_c, 9, 53, 95
1, 171362, Note_on_c, 9, 46, 0
1, 171419, Note_on_c, 9, 38, 0
1, 171419, Note_on_c, 9, 53, 0
1, 171420, Note_on_c, 9, 40, 120
1, 171599, Note_on_c, 9, 40, 0
1, 171840, Note_on_c, 9, 46, 114
1, 171840, Note_on_c, 9, 53, 97
1, 171840, Note_on_c, 9, 36, 123
1, 171863, Note_on_c, 9, 46, 0
1, 172199, Note_on_c, 9, 36, 0
1, 172200, Note_on_c, 9, 36, 92
1, 172259, Note_on_c, 9, 36, 0
1, 172260, Note_on_c, 9, 36, 120
1, 172319, Note_on_c, 9, 53, 0
1, 172319, Note_on_c, 9, 36, 0
1, 172320, Note_on_c, 9, 38, 117
1, 172320, Note_on_c, 9, 46, 58
1, 172320, Note_on_c, 9, 53, 77
1, 172343, Note_on_c, 9, 46, 0
1, 172799, Note_on_c, 9, 38, 0
1, 172799, Note_on_c, 9, 53, 0
1, 172800, Note_on_c, 9, 46, 114
1, 172800, Note_on_c, 9, 53, 96
1, 172800, Note_on_c, 9, 49, 108
1, 172800, Note_on_c, 9, 36, 123
1, 172823, Note_on_c, 9, 46, 0
1, 172823, Note_on_c, 9, 49, 0
1, 173279, Note_on_c, 9, 53, 0
1, 173279, Note_on_c, 9, 36, 0
1, 173280, Note_on_c, 9, 38, 127
1, 173280, Note_on_c, 9, 46, 114
1, 173280, Note_on_c, 9, 53, 94
1, 173291, Note_on_c, 9, 46, 0
1, 173519, Note_on_c, 9, 38, 0
1, 173519, Note_on_c, 9, 53, 0
1, 173520, Note_on_c, 9, 49, 108
1, 173520, Note_on_c, 9, 36, 123
1, 173531, Note_on_c, 9, 49, 0
1, 173759, Note_on_c, 9, 36, 0
1, 173760, Note_on_c, 9, 46, 114
1, 173760, Note_on_c, 9, 53, 96
1, 173783, Note_on_c, 9, 46, 0
1, 174239, Note_on_c, 9, 53, 0
1, 174240, Note_on_c, 9, 38, 127
1, 174240, Note_on_c, 9, 46, 114
1, 174240, Note_on_c, 9, 53, 97
1, 174240, Note_on_c, 9, 49, 108
1, 174240, Note_on_c, 9, 36, 123
1, 174241, Note_on_c, 9, 46, 0
1, 174241, Note_on_c, 9, 49, 0
1, 174279, Note_on_c, 9, 38, 0
1, 174279, Note_on_c, 9, 53, 0
1, 174280, Note_on_c, 9, 40, 125
1, 174299, Note_on_c, 9, 40, 0
1, 174479, Note_on_c, 9, 36, 0
1, 174480, Note_on_c, 9, 36, 123
1, 174599, Note_on_c, 9, 36, 0
1, 174600, Note_on_c, 9, 36, 120
1, 174719, Note_on_c, 9, 36, 0
1, 174720, Note_on_c, 9, 46, 114
1, 174720, Note_on_c, 9, 46, 0
1, 174720, Note_on_c, 9, 52, 127
1, 174720, Note_on_c, 9, 52, 0
1, 174720, Note_on_c, 9, 36, 123
1, 174750, Note_on_c, 9, 52, 127
1, 174752, Note_on_c, 9, 52, 0
1, 175199, Note_on_c, 9, 36, 0
1, 175200, Note_on_c, 9, 38, 127
1, 175200, Note_on_c, 9, 40, 107
1, 175200, Note_on_c, 9, 46, 114
1, 175200, Note_on_c, 9, 53, 105
1, 175223, Note_on_c, 9, 46, 0
1, 175679, Note_on_c, 9, 38, 0
1, 175679, Note_on_c, 9, 40, 0
1, 175679, Note_on_c, 9, 53, 0
1, 175680, Note_on_c, 9, 46, 114
1, 175680, Note_on_c, 9, 53, 110
1, 175680, Note_on_c, 9, 36, 123
1, 175703, Note_on_c, 9, 46, 0
1, 176039, Note_on_c, 9, 36, 0
1, 176040, Note_on_c, 9, 36, 92
1, 176159, Note_on_c, 9, 53, 0
1, 176159, Note_on_c, 9, 36, 0
1, 176160, Note_on_c, 9, 38, 127
1, 176160, Note_on_c, 9, 40, 119
1, 176160, Note_on_c, 9, 46, 114
1, 176160, Note_on_c, 9, 53, 127
1, 176183, Note_on_c, 9, 46, 0
1, 176639, Note_on_c, 9, 38, 0
1, 176639, Note_on_c, 9, 40, 0
1, 176639, Note_on_c, 9, 53, 0
1, 176640, Note_on_c, 9, 46, 114
1, 176640, Note_on_c, 9, 53, 116
1, 176640, Note_on_c, 9, 36, 123
1, 176663, Note_on_c, 9, 46, 0
1, 177119, Note_on_c, 9, 53, 0
1, 177119, Note_on_c, 9, 36, 0
1, 177120, Note_on_c, 9, 38, 127
1, 177120, Note_on_c, 9, 40, 120
1, 177120, Note_on_c, 9, 46, 55
1, 177122, Note_on_c, 9, 46, 0
1, 177179, Note_on_c, 9, 38, 0
1, 177179, Note_on_c, 9, 40, 0
1, 177180, Note_on_c, 9, 51, 55
1, 177188, Note_on_c, 9, 51, 0
1, 177600, Note_on_c, 9, 46, 114
1, 177600, Note_on_c, 9, 53, 110
1, 177600, Note_on_c, 9, 36, 60
1, 177623, Note_on_c, 9, 46, 0
1, 177719, Note_on_c, 9, 36, 0
1, 177720, Note_on_c, 9, 36, 76
1, 177839, Note_on_c, 9, 36, 0
1, 177840, Note_on_c, 9, 36, 92
1, 177959, Note_on_c, 9, 36, 0
1, 177960, Note_on_c, 9, 36, 108
1, 178079, Note_on_c, 9, 53, 0
1, 178079, Note_on_c, 9, 36, 0
1, 178080, Note_on_c, 9, 38, 127
1, 178080, Note_on_c, 9, 40, 108
1, 178080, Note_on_c, 9, 46, 59
1, 178080, Note_on_c, 9, 53, 109
1, 178080, Note_on_c, 9, 52, 127
1, 178103, Note_on_c, 9, 46, 0
1, 178103, Note_on_c, 9, 52, 0
1, 178559, Note_on_c, 9, 38, 0
1, 178559, Note_on_c, 9, 40, 0
1, 178559, Note_on_c, 9, 53, 0
1, 178560, Note_on_c, 9, 46, 114
1, 178560, Note_on_c, 9, 53, 103
1, 178560, Note_on_c, 9, 36, 123
1, 178583, Note_on_c, 9, 46, 0
1, 179039, Note_on_c, 9, 53, 0
1, 179039, Note_on_c, 9, 36, 0
1, 179040, Note_on_c, 9, 38, 127
1, 179040, Note_on_c, 9, 46, 114
1, 179040, Note_on_c, 9, 53, 109
1, 179042, Note_on_c, 9, 46, 0
1, 179099, Note_on_c, 9, 38, 0
1, 179099, Note_on_c, 9, 53, 0
1, 179100, Note_on_c, 9, 40, 114
1, 179279, Note_on_c, 9, 40, 0
1, 179520, Note_on_c, 9, 46, 114
1, 179520, Note_on_c, 9, 53, 106
1, 179543, Note_on_c, 9, 46, 0
1, 179760, Note_on_c, 9, 36, 123
1, 179999, Note_on_c, 9, 53, 0
1, 179999, Note_on_c, 9, 36, 0
1, 180000, Note_on_c, 9, 38, 127
1, 180000, Note_on_c, 9, 46, 114
1, 180000, Note_on_c, 9, 53, 108
1, 180002, Note_on_c, 9, 46, 0
1, 180059, Note_on_c, 9, 38, 0
1, 180059, Note_on_c, 9, 53, 0
1, 180060, Note_on_c, 9, 40, 119
1, 180239, Note_on_c, 9, 40, 0
1, 180240, Note_on_c, 9, 36, 92
1, 180479, Note_on_c, 9, 36, 0
1, 180480, Note_on_c, 9, 46, 114
1, 180480, Note_on_c, 9, 46, 0
1, 180480, Note_on_c, 9, 36, 123
1, 180510, Note_on_c, 9, 48, 118
1, 180510, Note_on_c, 9, 50, 111
1, 180569, Note_on_c, 9, 48, 0
1, 180569, Note_on_c, 9, 50, 0
1, 180860, Note_on_c, 9, 45, 112
1, 180880, Note_on_c, 9, 48, 82
1, 180899, Note_on_c, 9, 45, 0
1, 180959, Note_on_c, 9, 36, 0
1, 180959, Note_on_c, 9, 48, 0
1, 180960, Note_on_c, 9, 38, 127
1, 180960, Note_on_c, 9, 46, 114
1, 180971, Note_on_c, 9, 46, 0
1, 181199, Note_on_c, 9, 38, 0
1, 181200, Note_on_c, 9, 41, 102
1, 181200, Note_on_c, 9, 45, 126
1, 181439, Note_on_c, 9, 41, 0
1, 181439, Note_on_c, 9, 45, 0
1, 181440, Note_on_c, 9, 46, 114
1, 181448, Note_on_c, 9, 46, 0
1, 181620, Note_on_c, 9, 48, 123
1, 181620, Note_on_c, 9, 50, 127
1, 181680, Note_on_c, 9, 36, 123
1, 181859, Note_on_c, 9, 48, 0
1, 181859, Note_on_c, 9, 50, 0
1, 181890, Note_on_c, 9, 38, 127
1, 181890, Note_on_c, 9, 45, 124
1, 181890, Note_on_c, 9, 46, 114
1, 181890, Note_on_c, 9, 48, 120
1, 181901, Note_on_c, 9, 46, 0
1, 181919, Note_on_c, 9, 36, 0
1, 182009, Note_on_c, 9, 45, 0
1, 182009, Note_on_c, 9, 48, 0
1, 182159, Note_on_c, 9, 38, 0
1, 182160, Note_on_c, 9, 41, 117
1, 182160, Note_on_c, 9, 45, 120
1, 182399, Note_on_c, 9, 41, 0
1, 182399, Note_on_c, 9, 45, 0
1, 182400, Note_on_c, 9, 46, 114
1, 182400, Note_on_c, 9, 46, 0
1, 182400, Note_on_c, 9, 52, 127
1, 182400, Note_on_c, 9, 52, 0
1, 182400, Note_on_c, 9, 36, 123
1, 182415, Note_on_c, 9, 49, 105
1, 182416, Note_on_c, 9, 49, 0
1, 182879, Note_on_c, 9, 36, 0
1, 182880, Note_on_c, 9, 38, 127
1, 182880, Note_on_c, 9, 46, 114
1, 182880, Note_on_c, 9, 46, 0
1, 182880, Note_on_c, 9, 53, 119
1, 182899, Note_on_c, 9, 38, 0
1, 182899, Note_on_c, 9, 53, 0
1, 182900, Note_on_c, 9, 38, 95
1, 182939, Note_on_c, 9, 38, 0
1, 183360, Note_on_c, 9, 46, 114
1, 183360, Note_on_c, 9, 53, 118
1, 183360, Note_on_c, 9, 36, 123
1, 183383, Note_on_c, 9, 46, 0
1, 183719, Note_on_c, 9, 36, 0
1, 183720, Note_on_c, 9, 36, 92
1, 183839, Note_on_c, 9, 53, 0
1, 183839, Note_on_c, 9, 36, 0
1, 183840, Note_on_c, 9, 38, 127
1, 183840, Note_on_c, 9, 46, 114
1, 183840, Note_on_c, 9, 46, 0
1, 183863, Note_on_c, 9, 38, 0
1, 183864, Note_on_c, 9, 40, 127
1, 183887, Note_on_c, 9, 40, 0
1, 183888, Note_on_c, 9, 51, 89
1, 183890, Note_on_c, 9, 51, 0
1, 184320, Note_on_c, 9, 46, 114
1, 184320, Note_on_c, 9, 36, 123
1, 184343, Note_on_c, 9, 46, 0
1, 184799, Note_on_c, 9, 36, 0
1, 184800, Note_on_c, 9, 38, 127
1, 184800, Note_on_c, 9, 46, 114
1, 184823, Note_on_c, 9, 46, 0
1, 185279, Note_on_c, 9, 38, 0
1, 185280, Note_on_c, 9, 46, 114
1, 185280, Note_on_c, 9, 48, 120
1, 185280, Note_on_c, 9, 36, 123
1, 185285, Note_on_c, 9, 46, 0
1, 185399, Note_on_c, 9, 48, 0
1, 185400, Note_on_c, 9, 48, 120
1, 185519, Note_on_c, 9, 48, 0
1, 185520, Note_on_c, 9, 48, 120
1, 185639, Note_on_c, 9, 48, 0
1, 185640, Note_on_c, 9, 48, 120
1, 185759, Note_on_c, 9, 36, 0
1, 185759, Note_on_c, 9, 48, 0
1, 185760, Note_on_c, 9, 45, 120
1, 185879, Note_on_c, 9, 45, 0
1, 185880, Note_on_c, 9, 45, 120
1, 185999, Note_on_c, 9, 45, 0
1, 186000, Note_on_c, 9, 41, 120
1, 186119, Note_on_c, 9, 41, 0
1, 186120, Note_on_c, 9, 41, 120
1, 186239, Note_on_c, 9, 41, 0
1, 186240, Note_on_c, 9, 46, 114
1, 186240, Note_on_c, 9, 52, 127
1, 186240, Note_on_c, 9, 36, 123
1, 186263, Note_on_c, 9, 46, 0
1, 186263, Note_on_c, 9, 52, 0
1, 186719, Note_on_c, 9, 36, 0
1, 186720, Note_on_c, 9, 38, 127
1, 186720, Note_on_c, 9, 46, 114
1, 186743, Note_on_c, 9, 46, 0
1, 187199, Note_on_c, 9, 38, 0
1, 187200, Note_on_c, 9, 46, 114
1, 187200, Note_on_c, 9, 36, 123
1, 187223, Note_on_c, 9, 46, 0
1, 187559, Note_on_c, 9, 36, 0
1, 187560, Note_on_c, 9, 36, 92
1, 187679, Note_on_c, 9, 36, 0
1, 187680, Note_on_c, 9, 38, 127
1, 187680, Note_on_c, 9, 46, 114
1, 187703, Note_on_c, 9, 46, 0
1, 188159, Note_on_c, 9, 38, 0
1, 188160, Note_on_c, 9, 48, 120
1, 188160, Note_on_c, 9, 49, 108
1, 188160, Note_on_c, 9, 36, 123
1, 188177, Note_on_c, 9, 49, 0
1, 188519, Note_on_c, 9, 48, 0
1, 188519, Note_on_c, 9, 36, 0
1, 188520, Note_on_c, 9, 45, 120
1, 188520, Note_on_c, 9, 49, 108
1, 188520, Note_on_c, 9, 36, 123
1, 188525, Note_on_c, 9, 49, 0
1, 188639, Note_on_c, 9, 45, 0
1, 188639, Note_on_c, 9, 36, 0
1, 188880, Note_on_c, 9, 41, 120
1, 188880, Note_on_c, 9, 49, 108
1, 188880, Note_on_c, 9, 36, 123
1, 188891, Note_on_c, 9, 49, 0
1, 189119, Note_on_c, 9, 41, 0
1, 189119, Note_on_c, 9, 36, 0
1, 189240, Note_on_c, 9, 48, 120
1, 189240, Note_on_c, 9, 49, 108
1, 189240, Note_on_c, 9, 36, 123
1, 189257, Note_on_c, 9, 49, 0
1, 189599, Note_on_c, 9, 48, 0
1, 189599, Note_on_c, 9, 36, 0
1, 189600, Note_on_c, 9, 45, 120
1, 189600, Note_on_c, 9, 49, 108
1, 189600, Note_on_c, 9, 36, 123
1, 189617, Note_on_c, 9, 49, 0
1, 189959, Note_on_c, 9, 45, 0
1, 189959, Note_on_c, 9, 36, 0
1, 189960, Note_on_c, 9, 41, 120
1, 189960, Note_on_c, 9, 49, 108
1, 189960, Note_on_c, 9, 36, 123
1, 189965, Note_on_c, 9, 49, 0
1, 190079, Note_on_c, 9, 41, 0
1, 190079, Note_on_c, 9, 36, 0
1, 190080, Note_on_c, 9, 36, 99
1, 190319, Note_on_c, 9, 36, 0
1, 190320, Note_on_c, 9, 49, 108
1, 190320, Note_on_c, 9, 52, 127
1, 190320, Note_on_c, 9, 36, 123
1, 190331, Note_on_c, 9, 49, 0
1, 190331, Note_on_c, 9, 52, 0
1, 190559, Note_on_c, 9, 36, 0
1, 190560, Note_on_c, 9, 49, 36
1, 190565, Note_on_c, 9, 49, 0
1, 190680, Note_on_c, 9, 52, 33
1, 190682, Note_on_c, 9, 52, 0
1, 190740, Note_on_c, 9, 49, 36
1, 190742, Note_on_c, 9, 49, 0
1, 190800, Note_on_c, 9, 52, 38
1, 190805, Note_on_c, 9, 52, 0
1, 190920, Note_on_c, 9, 49, 42
1, 190924, Note_on_c, 9, 49, 0
1, 190950, Note_on_c, 9, 52, 43
1, 190952, Note_on_c, 9, 52, 0
1, 191040, Note_on_c, 9, 49, 47
1, 191042, Note_on_c, 9, 49, 0
1, 191100, Note_on_c, 9, 52, 47
1, 191102, Note_on_c, 9, 52, 0
1, 191160, Note_on_c, 9, 49, 50
1, 191162, Note_on_c, 9, 49, 0
1, 191220, Note_on_c, 9, 49, 52
1, 191220, Note_on_c, 9, 52, 53
1, 191222, Note_on_c, 9, 49, 0
1, 191222, Note_on_c, 9, 52, 0
1, 191400, Note_on_c, 9, 49, 56
1, 191400, Note_on_c, 9, 52, 57
1, 191405, Note_on_c, 9, 49, 0
1, 191405, Note_on_c, 9, 52, 0
1, 191520, Note_on_c, 9, 49, 61
1, 191520, Note_on_c, 9, 52, 62
1, 191525, Note_on_c, 9, 49, 0
1, 191525, Note_on_c, 9, 52, 0
1, 191670, Note_on_c, 9, 49, 66
1, 191670, Note_on_c, 9, 52, 66
1, 191672, Note_on_c, 9, 49, 0
1, 191672, Note_on_c, 9, 52, 0
1, 191760, Note_on_c, 9, 52, 69
1, 191763, Note_on_c, 9, 52, 0
1, 191840, Note_on_c, 9, 49, 72
1, 191843, Note_on_c, 9, 49, 0
1, 191920, Note_on_c, 9, 52, 74
1, 191923, Note_on_c, 9, 52, 0
1, 192000, Note_on_c, 9, 49, 76
1, 192002, Note_on_c, 9, 49, 0
1, 192060, Note_on_c, 9, 52, 78
1, 192062, Note_on_c, 9, 52, 0
1, 192120, Note_on_c, 9, 49, 81
1, 192122, Note_on_c, 9, 49, 0
1, 192180, Note_on_c, 9, 52, 84
1, 192182, Note_on_c, 9, 52, 0
1, 192240, Note_on_c, 9, 49, 86
1, 192245, Note_on_c, 9, 49, 0
1, 192360, Note_on_c, 9, 52, 88
1, 192362, Note_on_c, 9, 52, 0
1, 192420, Note_on_c, 9, 49, 91
1, 192422, Note_on_c, 9, 49, 0
1, 192480, Note_on_c, 9, 52, 93
1, 192482, Note_on_c, 9, 52, 0
1, 192540, Note_on_c, 9, 49, 95
1, 192542, Note_on_c, 9, 49, 0
1, 192600, Note_on_c, 9, 52, 97
1, 192605, Note_on_c, 9, 52, 0
1, 192720, Note_on_c, 9, 49, 99
1, 192722, Note_on_c, 9, 49, 0
1, 192780, Note_on_c, 9, 52, 102
1, 192782, Note_on_c, 9, 52, 0
1, 192840, Note_on_c, 9, 49, 104
1, 192842, Note_on_c, 9, 49, 0
1, 192900, Note_on_c, 9, 52, 107
1, 192902, Note_on_c, 9, 52, 0
1, 192960, Note_on_c, 9, 49, 109
1, 192965, Note_on_c, 9, 49, 0
1, 193080, Note_on_c, 9, 52, 112
1, 193082, Note_on_c, 9, 52, 0
1, 193140, Note_on_c, 9, 49, 114
1, 193142, Note_on_c, 9, 49, 0
1, 193220, Note_on_c, 9, 49, 116
1, 193221, Note_on_c, 9, 49, 0
1, 193280, Note_on_c, 9, 49, 118
1, 193281, Note_on_c, 9, 49, 0
1, 201840, Note_on_c, 9, 49, 108
1, 201840, Note_on_c, 9, 36, 123
1, 201851, Note_on_c, 9, 49, 0
1, 202079, Note_on_c, 9, 36, 0
1, 202080, Note_on_c, 9, 49, 124
1, 202080, Note_on_c, 9, 36, 123
1, 202091, Note_on_c, 9, 49, 0
1, 202319, Note_on_c, 9, 36, 0
1, 202320, Note_on_c, 9, 49, 92
1, 202320, Note_on_c, 9, 36, 108
1, 202331, Note_on_c, 9, 49, 0
1, 202559, Note_on_c, 9, 36, 0
1, 202560, Note_on_c, 9, 49, 108
1, 202560, Note_on_c, 9, 36, 123
1, 202583, Note_on_c, 9, 49, 0
1, 203039, Note_on_c, 9, 36, 0
1, 208080, Note_on_c, 9, 38, 95
1, 208199, Note_on_c, 9, 38, 0
1, 208200, Note_on_c, 9, 38, 111
1, 208319, Note_on_c, 9, 38, 0
1, 208320, Note_on_c, 9, 38, 127
1, 208559, Note_on_c, 9, 38, 0
1, 208560, Note_on_c, 9, 48, 104
1, 208679, Note_on_c, 9, 48, 0
1, 208680, Note_on_c, 9, 48, 120
1, 208799, Note_on_c, 9, 48, 0
1, 208800, Note_on_c, 9, 48, 127
1, 209039, Note_on_c, 9, 48, 0
1, 209040, Note_on_c, 9, 45, 120
1, 209219, Note_on_c, 9, 45, 0
1, 209260, Note_on_c, 9, 38, 108
1, 209279, Note_on_c, 9, 38, 0
1, 209295, Note_on_c, 9, 38, 127
1, 209519, Note_on_c, 9, 38, 0
1, 209760, Note_on_c, 9, 54, 127
1, 209760, Note_on_c, 9, 49, 108
1, 209760, Note_on_c, 9, 36, 123
1, 209771, Note_on_c, 9, 49, 0
1, 209999, Note_on_c, 9, 54, 0
1, 210000, Note_on_c, 9, 54, 61
1, 210239, Note_on_c, 9, 36, 0
1, 210239, Note_on_c, 9, 54, 0
1, 210240, Note_on_c, 9, 38, 127
1, 210240, Note_on_c, 9, 54, 68
1, 210240, Note_on_c, 9, 52, 127
1, 210251, Note_on_c, 9, 52, 0
1, 210479, Note_on_c, 9, 38, 0
1, 210479, Note_on_c, 9, 54, 0
1, 210480, Note_on_c, 9, 54, 127
1, 210719, Note_on_c, 9, 54, 0
1, 210720, Note_on_c, 9, 54, 92
1, 210720, Note_on_c, 9, 36, 123
1, 210959, Note_on_c, 9, 54, 0
1, 210959, Note_on_c, 9, 36, 0
1, 210960, Note_on_c, 9, 54, 65
1, 210960, Note_on_c, 9, 36, 123
1, 211199, Note_on_c, 9, 54, 0
1, 211199, Note_on_c, 9, 36, 0
1, 211200, Note_on_c, 9, 38, 127
1, 211200, Note_on_c, 9, 54, 126
1, 211439, Note_on_c, 9, 38, 0
1, 211439, Note_on_c, 9, 54, 0
1, 211440, Note_on_c, 9, 54, 68
1, 211679, Note_on_c, 9, 54, 0
1, 211680, Note_on_c, 9, 54, 77
1, 211680, Note_on_c, 9, 36, 123
1, 211919, Note_on_c, 9, 54, 0
1, 211920, Note_on_c, 9, 54, 126
1, 212159, Note_on_c, 9, 36, 0
1, 212159, Note_on_c, 9, 54, 0
1, 212160, Note_on_c, 9, 38, 127
1, 212160, Note_on_c, 9, 54, 82
1, 212399, Note_on_c, 9, 38, 0
1, 212399, Note_on_c, 9, 54, 0
1, 212400, Note_on_c, 9, 54, 70
1, 212639, Note_on_c, 9, 54, 0
1, 212640, Note_on_c, 9, 54, 127
1, 212640, Note_on_c, 9, 36, 123
1, 212879, Note_on_c, 9, 54, 0
1, 212879, Note_on_c, 9, 36, 0
1, 212880, Note_on_c, 9, 54, 81
1, 212880, Note_on_c, 9, 36, 123
1, 213119, Note_on_c, 9, 54, 0
1, 213119, Note_on_c, 9, 36, 0
1, 213120, Note_on_c, 9, 38, 127
1, 213120, Note_on_c, 9, 54, 95
1, 213359, Note_on_c, 9, 38, 0
1, 213359, Note_on_c, 9, 54, 0
1, 213360, Note_on_c, 9, 54, 61
1, 213599, Note_on_c, 9, 54, 0
1, 213600, Note_on_c, 9, 54, 83
1, 213600, Note_on_c, 9, 36, 123
1, 213839, Note_on_c, 9, 54, 0
1, 213840, Note_on_c, 9, 54, 38
1, 214079, Note_on_c, 9, 36, 0
1, 214079, Note_on_c, 9, 54, 0
1, 214080, Note_on_c, 9, 38, 127
1, 214080, Note_on_c, 9, 54, 127
1, 214319, Note_on_c, 9, 38, 0
1, 214319, Note_on_c, 9, 54, 0
1, 214320, Note_on_c, 9, 54, 49
1, 214559, Note_on_c, 9, 54, 0
1, 214560, Note_on_c, 9, 54, 73
1, 214560, Note_on_c, 9, 36, 123
1, 214799, Note_on_c, 9, 54, 0
1, 214799, Note_on_c, 9, 36, 0
1, 214800, Note_on_c, 9, 54, 83
1, 214800, Note_on_c, 9, 36, 123
1, 215039, Note_on_c, 9, 54, 0
1, 215039, Note_on_c, 9, 36, 0
1, 215040, Note_on_c, 9, 38, 127
1, 215040, Note_on_c, 9, 54, 92
1, 215279, Note_on_c, 9, 38, 0
1, 215279, Note_on_c, 9, 54, 0
1, 215280, Note_on_c, 9, 54, 76
1, 215519, Note_on_c, 9, 54, 0
1, 215520, Note_on_c, 9, 54, 92
1, 215520, Note_on_c, 9, 36, 123
1, 215759, Note_on_c, 9, 54, 0
1, 215760, Note_on_c, 9, 54, 126
1, 215999, Note_on_c, 9, 36, 0
1, 215999, Note_on_c, 9, 54, 0
1, 216000, Note_on_c, 9, 38, 127
1, 216000, Note_on_c, 9, 54, 92
1, 216239, Note_on_c, 9, 38, 0
1, 216239, Note_on_c, 9, 54, 0
1, 216240, Note_on_c, 9, 54, 125
1, 216479, Note_on_c, 9, 54, 0
1, 216480, Note_on_c, 9, 54, 92
1, 216480, Note_on_c, 9, 36, 123
1, 216719, Note_on_c, 9, 54, 0
1, 216719, Note_on_c, 9, 36, 0
1, 216720, Note_on_c, 9, 54, 120
1, 216720, Note_on_c, 9, 36, 123
1, 216959, Note_on_c, 9, 54, 0
1, 216959, Note_on_c, 9, 36, 0
1, 216960, Note_on_c, 9, 38, 127
1, 216960, Note_on_c, 9, 54, 92
1, 217199, Note_on_c, 9, 38, 0
1, 217199, Note_on_c, 9, 54, 0
1, 217200, Note_on_c, 9, 54, 125
1, 217439, Note_on_c, 9, 54, 0
1, 217440, Note_on_c, 9, 54, 92
1, 217440, Note_on_c, 9, 49, 93
1, 217440, Note_on_c, 9, 36, 123
1, 217451, Note_on_c, 9, 49, 0
1, 217679, Note_on_c, 9, 54, 0
1, 217680, Note_on_c, 9, 54, 61
1, 217919, Note_on_c, 9, 36, 0
1, 217919, Note_on_c, 9, 54, 0
1, 217920, Note_on_c, 9, 38, 127
1, 217920, Note_on_c, 9, 54, 71
1, 217920, Note_on_c, 9, 52, 127
1, 217931, Note_on_c, 9, 52, 0
1, 218159, Note_on_c, 9, 38, 0
1, 218159, Note_on_c, 9, 54, 0
1, 218160, Note_on_c, 9, 54, 44
1, 218399, Note_on_c, 9, 54, 0
1, 218400, Note_on_c, 9, 54, 73
1, 218400, Note_on_c, 9, 36, 123
1, 218639, Note_on_c, 9, 54, 0
1, 218639, Note_on_c, 9, 36, 0
1, 218640, Note_on_c, 9, 54, 127
1, 218640, Note_on_c, 9, 36, 123
1, 218879, Note_on_c, 9, 54, 0
1, 218879, Note_on_c, 9, 36, 0
1, 218880, Note_on_c, 9, 38, 127
1, 218880, Note_on_c, 9, 54, 58
1, 219119, Note_on_c, 9, 38, 0
1, 219119, Note_on_c, 9, 54, 0
1, 219120, Note_on_c, 9, 54, 119
1, 219359, Note_on_c, 9, 54, 0
1, 219360, Note_on_c, 9, 54, 80
1, 219360, Note_on_c, 9, 36, 123
1, 219599, Note_on_c, 9, 54, 0
1, 219600, Note_on_c, 9, 54, 60
1, 219839, Note_on_c, 9, 36, 0
1, 219839, Note_on_c, 9, 54, 0
1, 219840, Note_on_c, 9, 38, 127
1, 219840, Note_on_c, 9, 54, 92
1, 220079, Note_on_c, 9, 38, 0
1, 220079, Note_on_c, 9, 54, 0
1, 220080, Note_on_c, 9, 54, 84
1, 220319, Note_on_c, 9, 54, 0
1, 220320, Note_on_c, 9, 54, 48
1, 220320, Note_on_c, 9, 36, 123
1, 220559, Note_on_c, 9, 54, 0
1, 220559, Note_on_c, 9, 36, 0
1, 220560, Note_on_c, 9, 54, 73
1, 220560, Note_on_c, 9, 36, 123
1, 220799, Note_on_c, 9, 54, 0
1, 220799, Note_on_c, 9, 36, 0
1, 220800, Note_on_c, 9, 38, 127
1, 220800, Note_on_c, 9, 54, 100
1, 221039, Note_on_c, 9, 38, 0
1, 221039, Note_on_c, 9, 54, 0
1, 221040, Note_on_c, 9, 54, 51
1, 221279, Note_on_c, 9, 54, 0
1, 221280, Note_on_c, 9, 54, 67
1, 221280, Note_on_c, 9, 36, 123
1, 221519, Note_on_c, 9, 54, 0
1, 221520, Note_on_c, 9, 54, 120
1, 221759, Note_on_c, 9, 36, 0
1, 221759, Note_on_c, 9, 54, 0
1, 221760, Note_on_c, 9, 38, 127
1, 221760, Note_on_c, 9, 54, 57
1, 221999, Note_on_c, 9, 38, 0
1, 221999, Note_on_c, 9, 54, 0
1, 222000, Note_on_c, 9, 54, 80
1, 222239, Note_on_c, 9, 54, 0
1, 222240, Note_on_c, 9, 54, 87
1, 222240, Note_on_c, 9, 36, 123
1, 222479, Note_on_c, 9, 54, 0
1, 222479, Note_on_c, 9, 36, 0
1, 222480, Note_on_c, 9, 54, 76
1, 222480, Note_on_c, 9, 36, 123
1, 222719, Note_on_c, 9, 54, 0
1, 222719, Note_on_c, 9, 36, 0
1, 222720, Note_on_c, 9, 38, 127
1, 222720, Note_on_c, 9, 54, 107
1, 222959, Note_on_c, 9, 38, 0
1, 222959, Note_on_c, 9, 54, 0
1, 222960, Note_on_c, 9, 54, 57
1, 223199, Note_on_c, 9, 54, 0
1, 223200, Note_on_c, 9, 54, 104
1, 223200, Note_on_c, 9, 36, 123
1, 223439, Note_on_c, 9, 54, 0
1, 223440, Note_on_c, 9, 54, 53
1, 223679, Note_on_c, 9, 36, 0
1, 223679, Note_on_c, 9, 54, 0
1, 223680, Note_on_c, 9, 38, 127
1, 223680, Note_on_c, 9, 54, 92
1, 223919, Note_on_c, 9, 38, 0
1, 223919, Note_on_c, 9, 54, 0
1, 223920, Note_on_c, 9, 54, 76
1, 224159, Note_on_c, 9, 54, 0
1, 224160, Note_on_c, 9, 54, 92
1, 224160, Note_on_c, 9, 36, 123
1, 224399, Note_on_c, 9, 54, 0
1, 224399, Note_on_c, 9, 36, 0
1, 224400, Note_on_c, 9, 38, 127
1, 224400, Note_on_c, 9, 54, 76
1, 224400, Note_on_c, 9, 36, 123
1, 224639, Note_on_c, 9, 38, 0
1, 224639, Note_on_c, 9, 54, 0
1, 224639, Note_on_c, 9, 36, 0
1, 224640, Note_on_c, 9, 45, 120
1, 224640, Note_on_c, 9, 54, 92
1, 224879, Note_on_c, 9, 45, 0
1, 224879, Note_on_c, 9, 54, 0
1, 224880, Note_on_c, 9, 41, 120
1, 224880, Note_on_c, 9, 54, 76
1, 225119, Note_on_c, 9, 41, 0
1, 225119, Note_on_c, 9, 54, 0
1, 225120, Note_on_c, 9, 54, 106
1, 225120, Note_on_c, 9, 49, 108
1, 225120, Note_on_c, 9, 36, 123
1, 225131, Note_on_c, 9, 49, 0
1, 225359, Note_on_c, 9, 54, 0
1, 225360, Note_on_c, 9, 54, 69
1, 225599, Note_on_c, 9, 36, 0
1, 225599, Note_on_c, 9, 54, 0
1, 225600, Note_on_c, 9, 38, 127
1, 225600, Note_on_c, 9, 54, 120
1, 225600, Note_on_c, 9, 52, 127
1, 225611, Note_on_c, 9, 52, 0
1, 225839, Note_on_c, 9, 38, 0
1, 225839, Note_on_c, 9, 54, 0
1, 225840, Note_on_c, 9, 54, 83
1, 226079, Note_on_c, 9, 54, 0
1, 226080, Note_on_c, 9, 54, 92
1, 226080, Note_on_c, 9, 36, 123
1, 226319, Note_on_c, 9, 54, 0
1, 226319, Note_on_c, 9, 36, 0
1, 226320, Note_on_c, 9, 54, 127
1, 226320, Note_on_c, 9, 36, 123
1, 226559, Note_on_c, 9, 54, 0
1, 226559, Note_on_c, 9, 36, 0
1, 226560, Note_on_c, 9, 38, 127
1, 226560, Note_on_c, 9, 54, 77
1, 226799, Note_on_c, 9, 38, 0
1, 226799, Note_on_c, 9, 54, 0
1, 226800, Note_on_c, 9, 54, 53
1, 227039, Note_on_c, 9, 54, 0
1, 227040, Note_on_c, 9, 54, 50
1, 227040, Note_on_c, 9, 36, 123
1, 227279, Note_on_c, 9, 54, 0
1, 227280, Note_on_c, 9, 54, 86
1, 227519, Note_on_c, 9, 36, 0
1, 227519, Note_on_c, 9, 54, 0
1, 227520, Note_on_c, 9, 38, 127
1, 227520, Note_on_c, 9, 54, 64
1, 227759, Note_on_c, 9, 38, 0
1, 227759, Note_on_c, 9, 54, 0
1, 227760, Note_on_c, 9, 54, 41
1, 227999, Note_on_c, 9, 54, 0
1, 228000, Note_on_c, 9, 54, 97
1, 228000, Note_on_c, 9, 36, 123
1, 228239, Note_on_c, 9, 54, 0
1, 228239, Note_on_c, 9, 36, 0
1, 228240, Note_on_c, 9, 54, 76
1, 228240, Note_on_c, 9, 36, 123
1, 228479, Note_on_c, 9, 54, 0
1, 228479, Note_on_c, 9, 36, 0
1, 228480, Note_on_c, 9, 38, 127
1, 228480, Note_on_c, 9, 54, 92
1, 228719, Note_on_c, 9, 38, 0
1, 228719, Note_on_c, 9, 54, 0
1, 228720, Note_on_c, 9, 54, 76
1, 228959, Note_on_c, 9, 54, 0
1, 228960, Note_on_c, 9, 54, 92
1, 228960, Note_on_c, 9, 36, 123
1, 229199, Note_on_c, 9, 54, 0
1, 229200, Note_on_c, 9, 54, 66
1, 229439, Note_on_c, 9, 36, 0
1, 229439, Note_on_c, 9, 54, 0
1, 229440, Note_on_c, 9, 38, 127
1, 229440, Note_on_c, 9, 54, 98
1, 229679, Note_on_c, 9, 38, 0
1, 229679, Note_on_c, 9, 54, 0
1, 229680, Note_on_c, 9, 54, 62
1, 229919, Note_on_c, 9, 54, 0
1, 229920, Note_on_c, 9, 54, 58
1, 229920, Note_on_c, 9, 36, 123
1, 230159, Note_on_c, 9, 54, 0
1, 230159, Note_on_c, 9, 36, 0
1, 230160, Note_on_c, 9, 54, 103
1, 230160, Note_on_c, 9, 36, 123
1, 230399, Note_on_c, 9, 54, 0
1, 230399, Note_on_c, 9, 36, 0
1, 230400, Note_on_c, 9, 38, 127
1, 230400, Note_on_c, 9, 54, 92
1, 230639, Note_on_c, 9, 38, 0
1, 230639, Note_on_c, 9, 54, 0
1, 230640, Note_on_c, 9, 54, 55
1, 230879, Note_on_c, 9, 54, 0
1, 230880, Note_on_c, 9, 54, 108
1, 230880, Note_on_c, 9, 36, 123
1, 231119, Note_on_c, 9, 54, 0
1, 231120, Note_on_c, 9, 54, 60
1, 231359, Note_on_c, 9, 36, 0
1, 231359, Note_on_c, 9, 54, 0
1, 231360, Note_on_c, 9, 38, 127
1, 231360, Note_on_c, 9, 54, 69
1, 231599, Note_on_c, 9, 38, 0
1, 231599, Note_on_c, 9, 54, 0
1, 231600, Note_on_c, 9, 54, 123
1, 231839, Note_on_c, 9, 54, 0
1, 231840, Note_on_c, 9, 54, 92
1, 231840, Note_on_c, 9, 36, 123
1, 232079, Note_on_c, 9, 54, 0
1, 232079, Note_on_c, 9, 36, 0
1, 232080, Note_on_c, 9, 54, 127
1, 232080, Note_on_c, 9, 36, 123
1, 232319, Note_on_c, 9, 54, 0
1, 232319, Note_on_c, 9, 36, 0
1, 232320, Note_on_c, 9, 38, 127
1, 232320, Note_on_c, 9, 54, 92
1, 232559, Note_on_c, 9, 38, 0
1, 232559, Note_on_c, 9, 54, 0
1, 232560, Note_on_c, 9, 54, 65
1, 232799, Note_on_c, 9, 54, 0
1, 232800, Note_on_c, 9, 54, 127
1, 232800, Note_on_c, 9, 49, 93
1, 232800, Note_on_c, 9, 36, 123
1, 232811, Note_on_c, 9, 49, 0
1, 233039, Note_on_c, 9, 54, 0
1, 233040, Note_on_c, 9, 54, 76
1, 233279, Note_on_c, 9, 36, 0
1, 233279, Note_on_c, 9, 54, 0
1, 233280, Note_on_c, 9, 38, 127
1, 233280, Note_on_c, 9, 54, 112
1, 233519, Note_on_c, 9, 38, 0
1, 233519, Note_on_c, 9, 54, 0
1, 233520, Note_on_c, 9, 54, 81
1, 233759, Note_on_c, 9, 54, 0
1, 233760, Note_on_c, 9, 54, 80
1, 233760, Note_on_c, 9, 36, 123
1, 233999, Note_on_c, 9, 54, 0
1, 233999, Note_on_c, 9, 36, 0
1, 234000, Note_on_c, 9, 54, 127
1, 234000, Note_on_c, 9, 36, 123
1, 234239, Note_on_c, 9, 54, 0
1, 234239, Note_on_c, 9, 36, 0
1, 234240, Note_on_c, 9, 38, 127
1, 234240, Note_on_c, 9, 54, 92
1, 234479, Note_on_c, 9, 38, 0
1, 234479, Note_on_c, 9, 54, 0
1, 234480, Note_on_c, 9, 54, 116
1, 234719, Note_on_c, 9, 54, 0
1, 234720, Note_on_c, 9, 54, 35
1, 234720, Note_on_c, 9, 36, 123
1, 234959, Note_on_c, 9, 54, 0
1, 234960, Note_on_c, 9, 54, 121
1, 235199, Note_on_c, 9, 36, 0
1, 235199, Note_on_c, 9, 54, 0
1, 235200, Note_on_c, 9, 38, 127
1, 235200, Note_on_c, 9, 54, 92
1, 235439, Note_on_c, 9, 38, 0
1, 235439, Note_on_c, 9, 54, 0
1, 235440, Note_on_c, 9, 54, 76
1, 235679, Note_on_c, 9, 54, 0
1, 235680, Note_on_c, 9, 54, 92
1, 235680, Note_on_c, 9, 36, 123
1, 235919, Note_on_c, 9, 54, 0
1, 235919, Note_on_c, 9, 36, 0
1, 235920, Note_on_c, 9, 54, 76
1, 235920, Note_on_c, 9, 36, 123
1, 236159, Note_on_c, 9, 54, 0
1, 236159, Note_on_c, 9, 36, 0
1, 236160, Note_on_c, 9, 38, 127
1, 236160, Note_on_c, 9, 54, 92
1, 236399, Note_on_c, 9, 38, 0
1, 236399, Note_on_c, 9, 54, 0
1, 236400, Note_on_c, 9, 54, 76
1, 236639, Note_on_c, 9, 54, 0
1, 236640, Note_on_c, 9, 54, 96
1, 236640, Note_on_c, 9, 36, 123
1, 236879, Note_on_c, 9, 54, 0
1, 236880, Note_on_c, 9, 54, 80
1, 237119, Note_on_c, 9, 36, 0
1, 237119, Note_on_c, 9, 54, 0
1, 237120, Note_on_c, 9, 38, 127
1, 237120, Note_on_c, 9, 54, 96
1, 237359, Note_on_c, 9, 38, 0
1, 237359, Note_on_c, 9, 54, 0
1, 237360, Note_on_c, 9, 54, 80
1, 237599, Note_on_c, 9, 54, 0
1, 237600, Note_on_c, 9, 54, 96
1, 237600, Note_on_c, 9, 36, 123
1, 237839, Note_on_c, 9, 54, 0
1, 237839, Note_on_c, 9, 36, 0
1, 237840, Note_on_c, 9, 54, 78
1, 237840, Note_on_c, 9, 36, 123
1, 238079, Note_on_c, 9, 54, 0
1, 238079, Note_on_c, 9, 36, 0
1, 238080, Note_on_c, 9, 38, 127
1, 238080, Note_on_c, 9, 54, 111
1, 238319, Note_on_c, 9, 38, 0
1, 238319, Note_on_c, 9, 54, 0
1, 238320, Note_on_c, 9, 54, 73
1, 238559, Note_on_c, 9, 54, 0
1, 238560, Note_on_c, 9, 54, 105
1, 238560, Note_on_c, 9, 36, 123
1, 238799, Note_on_c, 9, 54, 0
1, 238800, Note_on_c, 9, 54, 68
1, 239039, Note_on_c, 9, 36, 0
1, 239039, Note_on_c, 9, 54, 0
1, 239040, Note_on_c, 9, 38, 127
1, 239040, Note_on_c, 9, 54, 107
1, 239279, Note_on_c, 9, 38, 0
1, 239279, Note_on_c, 9, 54, 0
1, 239280, Note_on_c, 9, 54, 76
1, 239519, Note_on_c, 9, 54, 0
1, 239520, Note_on_c, 9, 54, 102
1, 239520, Note_on_c, 9, 36, 123
1, 239759, Note_on_c, 9, 54, 0
1, 239759, Note_on_c, 9, 36, 0
1, 239760, Note_on_c, 9, 38, 127
1, 239760, Note_on_c, 9, 54, 69
1, 239760, Note_on_c, 9, 36, 123
1, 239999, Note_on_c, 9, 38, 0
1, 239999, Note_on_c, 9, 54, 0
1, 239999, Note_on_c, 9, 36, 0
1, 240000, Note_on_c, 9, 54, 96
1, 243839, Note_on_c, 9, 54, 0
1, 243840, End_track
0, 0, End_of_file
