0, 0, Header, 1, 1, 480
1, 0, Start_track
1, 0, Title_t, "Drumset"
1, 0, Time_signature, 4, 2, 24, 8
1, 0, Key_signature, 0, "major"
1, 0, Tempo, 444444
1, 0, Control_c, 9, 121, 0
1, 0, Program_c, 9, 0
1, 0, Control_c, 9, 7, 100
1, 0, Control_c, 9, 10, 64
1, 0, Control_c, 9, 91, 0
1, 0, Control_c, 9, 93, 0
1, 0, MIDI_port, 0
1, 1920, Note_on_c, 9, 41, 98
1, 1920, Note_on_c, 9, 49, 82
1, 1920, Note_on_c, 9, 36, 106
1, 1944, Note_on_c, 9, 49, 0
1, 2399, Note_on_c, 9, 41, 0
1, 2399, Note_on_c, 9, 36, 0
1, 2880, Note_on_c, 9, 41, 98
1, 2880, Note_on_c, 9, 57, 80
1, 2880, Note_on_c, 9, 36, 106
1, 2904, Note_on_c, 9, 57, 0
1, 3359, Note_on_c, 9, 41, 0
1, 3359, Note_on_c, 9, 36, 0
1, 3840, Note_on_c, 9, 41, 98
1, 3840, Note_on_c, 9, 49, 82
1, 3840, Note_on_c, 9, 36, 106
1, 3864, Note_on_c, 9, 49, 0
1, 4319, Note_on_c, 9, 41, 0
1, 4319, Note_on_c, 9, 36, 0
1, 5760, Note_on_c, 9, 41, 98
1, 5760, Note_on_c, 9, 49, 82
1, 5760, Note_on_c, 9, 36, 106
1, 5784, Note_on_c, 9, 49, 0
1, 6239, Note_on_c, 9, 41, 0
1, 6239, Note_on_c, 9, 36, 0
1, 6720, Note_on_c, 9, 41, 98
1, 6720, Note_on_c, 9, 57, 80
1, 6720, Note_on_c, 9, 36, 106
1, 6744, Note_on_c, 9, 57, 0
1, 7199, Note_on_c, 9, 41, 0
1, 7199, Note_on_c, 9, 36, 0
1, 7680, Note_on_c, 9, 41, 98
1, 7680, Note_on_c, 9, 49, 82
1, 7680, Note_on_c, 9, 36, 106
1, 7704, Note_on_c, 9, 49, 0
1, 8159, Note_on_c, 9, 41, 0
1, 8159, Note_on_c, 9, 36, 0
1, 9600, Note_on_c, 9, 41, 98
1, 9600, Note_on_c, 9, 49, 82
1, 9600, Note_on_c, 9, 36, 106
1, 9624, Note_on_c, 9, 49, 0
1, 10079, Note_on_c, 9, 41, 0
1, 10079, Note_on_c, 9, 36, 0
1, 10560, Note_on_c, 9, 41, 98
1, 10560, Note_on_c, 9, 57, 80
1, 10560, Note_on_c, 9, 36, 106
1, 10584, Note_on_c, 9, 57, 0
1, 11039, Note_on_c, 9, 41, 0
1, 11039, Note_on_c, 9, 36, 0
1, 11520, Note_on_c, 9, 41, 98
1, 11520, Note_on_c, 9, 49, 82
1, 11520, Note_on_c, 9, 36, 106
1, 11544, Note_on_c, 9, 49, 0
1, 11999, Note_on_c, 9, 41, 0
1, 11999, Note_on_c, 9, 36, 0
1, 13440, Note_on_c, 9, 41, 98
1, 13440, Note_on_c, 9, 49, 82
1, 13440, Note_on_c, 9, 36, 106
1, 13464, Note_on_c, 9, 49, 0
1, 13919, Note_on_c, 9, 41, 0
1, 13919, Note_on_c, 9, 36, 0
1, 14400, Note_on_c, 9, 41, 98
1, 14400, Note_on_c, 9, 57, 80
1, 14400, Note_on_c, 9, 36, 106
1, 14424, Note_on_c, 9, 57, 0
1, 14879, Note_on_c, 9, 41, 0
1, 14879, Note_on_c, 9, 36, 0
1, 15360, Note_on_c, 9, 41, 98
1, 15360, Note_on_c, 9, 49, 82
1, 15360, Note_on_c, 9, 36, 106
1, 15371, Note_on_c, 9, 49, 0
1, 15599, Note_on_c, 9, 41, 0
1, 15600, Note_on_c, 9, 47, 101
1, 15839, Note_on_c, 9, 36, 0
1, 15839, Note_on_c, 9, 47, 0
1, 15840, Note_on_c, 9, 47, 101
1, 15959, Note_on_c, 9, 47, 0
1, 15960, Note_on_c, 9, 40, 57
1, 16019, Note_on_c, 9, 40, 0
1, 16020, Note_on_c, 9, 40, 57
1, 16079, Note_on_c, 9, 40, 0
1, 16140, Note_on_c, 9, 40, 102
1, 16199, Note_on_c, 9, 40, 0
1, 16200, Note_on_c, 9, 40, 102
1, 16259, Note_on_c, 9, 40, 0
1, 16260, Note_on_c, 9, 40, 102
1, 16319, Note_on_c, 9, 40, 0
1, 16380, Note_on_c, 9, 40, 102
1, 16439, Note_on_c, 9, 40, 0
1, 16440, Note_on_c, 9, 47, 101
1, 16679, Note_on_c, 9, 47, 0
1, 16680, Note_on_c, 9, 45, 95
1, 16799, Note_on_c, 9, 45, 0
1, 16800, Note_on_c, 9, 45, 95
1, 16919, Note_on_c, 9, 45, 0
1, 16920, Note_on_c, 9, 45, 95
1, 17039, Note_on_c, 9, 45, 0
1, 17040, Note_on_c, 9, 41, 98
1, 17159, Note_on_c, 9, 41, 0
1, 17160, Note_on_c, 9, 41, 98
1, 17279, Note_on_c, 9, 41, 0
1, 17280, Note_on_c, 9, 57, 80
1, 17280, Note_on_c, 9, 36, 106
1, 17291, Note_on_c, 9, 57, 0
1, 17520, Note_on_c, 9, 41, 98
1, 17639, Note_on_c, 9, 41, 0
1, 17640, Note_on_c, 9, 41, 98
1, 17759, Note_on_c, 9, 36, 0
1, 17759, Note_on_c, 9, 41, 0
1, 17760, Note_on_c, 9, 41, 98
1, 17999, Note_on_c, 9, 41, 0
1, 18000, Note_on_c, 9, 41, 98
1, 18119, Note_on_c, 9, 41, 0
1, 18120, Note_on_c, 9, 41, 98
1, 18239, Note_on_c, 9, 41, 0
1, 18240, Note_on_c, 9, 57, 80
1, 18240, Note_on_c, 9, 36, 106
1, 18251, Note_on_c, 9, 57, 0
1, 18480, Note_on_c, 9, 41, 98
1, 18599, Note_on_c, 9, 41, 0
1, 18600, Note_on_c, 9, 41, 98
1, 18719, Note_on_c, 9, 36, 0
1, 18719, Note_on_c, 9, 41, 0
1, 18720, Note_on_c, 9, 41, 98
1, 18959, Note_on_c, 9, 41, 0
1, 18960, Note_on_c, 9, 41, 98
1, 19079, Note_on_c, 9, 41, 0
1, 19080, Note_on_c, 9, 41, 98
1, 19199, Note_on_c, 9, 41, 0
1, 19200, Note_on_c, 9, 57, 80
1, 19200, Note_on_c, 9, 36, 106
1, 19211, Note_on_c, 9, 57, 0
1, 19440, Note_on_c, 9, 41, 98
1, 19559, Note_on_c, 9, 41, 0
1, 19560, Note_on_c, 9, 41, 98
1, 19679, Note_on_c, 9, 36, 0
1, 19679, Note_on_c, 9, 41, 0
1, 19680, Note_on_c, 9, 41, 98
1, 19919, Note_on_c, 9, 41, 0
1, 19920, Note_on_c, 9, 41, 98
1, 20039, Note_on_c, 9, 41, 0
1, 20040, Note_on_c, 9, 41, 98
1, 20159, Note_on_c, 9, 41, 0
1, 20160, Note_on_c, 9, 41, 98
1, 20399, Note_on_c, 9, 41, 0
1, 20400, Note_on_c, 9, 41, 98
1, 20519, Note_on_c, 9, 41, 0
1, 20520, Note_on_c, 9, 41, 98
1, 20639, Note_on_c, 9, 41, 0
1, 20640, Note_on_c, 9, 41, 98
1, 20879, Note_on_c, 9, 41, 0
1, 20880, Note_on_c, 9, 41, 98
1, 20999, Note_on_c, 9, 41, 0
1, 21000, Note_on_c, 9, 41, 98
1, 21119, Note_on_c, 9, 41, 0
1, 21120, Note_on_c, 9, 57, 80
1, 21120, Note_on_c, 9, 36, 106
1, 21131, Note_on_c, 9, 57, 0
1, 21360, Note_on_c, 9, 41, 98
1, 21479, Note_on_c, 9, 41, 0
1, 21480, Note_on_c, 9, 41, 98
1, 21599, Note_on_c, 9, 36, 0
1, 21599, Note_on_c, 9, 41, 0
1, 21600, Note_on_c, 9, 41, 98
1, 21839, Note_on_c, 9, 41, 0
1, 21840, Note_on_c, 9, 41, 98
1, 21959, Note_on_c, 9, 41, 0
1, 21960, Note_on_c, 9, 41, 98
1, 22079, Note_on_c, 9, 41, 0
1, 22080, Note_on_c, 9, 57, 80
1, 22080, Note_on_c, 9, 36, 106
1, 22091, Note_on_c, 9, 57, 0
1, 22320, Note_on_c, 9, 41, 98
1, 22439, Note_on_c, 9, 41, 0
1, 22440, Note_on_c, 9, 41, 98
1, 22559, Note_on_c, 9, 36, 0
1, 22559, Note_on_c, 9, 41, 0
1, 22560, Note_on_c, 9, 41, 98
1, 22799, Note_on_c, 9, 41, 0
1, 22800, Note_on_c, 9, 41, 98
1, 22919, Note_on_c, 9, 41, 0
1, 22920, Note_on_c, 9, 41, 98
1, 23039, Note_on_c, 9, 41, 0
1, 23040, Note_on_c, 9, 57, 80
1, 23040, Note_on_c, 9, 36, 106
1, 23051, Note_on_c, 9, 57, 0
1, 23280, Note_on_c, 9, 41, 98
1, 23399, Note_on_c, 9, 41, 0
1, 23400, Note_on_c, 9, 41, 98
1, 23519, Note_on_c, 9, 36, 0
1, 23519, Note_on_c, 9, 41, 0
1, 23520, Note_on_c, 9, 41, 98
1, 23759, Note_on_c, 9, 41, 0
1, 23760, Note_on_c, 9, 41, 98
1, 23879, Note_on_c, 9, 41, 0
1, 23880, Note_on_c, 9, 41, 98
1, 23999, Note_on_c, 9, 41, 0
1, 24000, Note_on_c, 9, 47, 101
1, 24239, Note_on_c, 9, 47, 0
1, 24240, Note_on_c, 9, 41, 98
1, 24359, Note_on_c, 9, 41, 0
1, 24360, Note_on_c, 9, 41, 98
1, 24479, Note_on_c, 9, 41, 0
1, 24480, Note_on_c, 9, 41, 98
1, 24599, Note_on_c, 9, 41, 0
1, 24600, Note_on_c, 9, 41, 98
1, 24719, Note_on_c, 9, 41, 0
1, 24720, Note_on_c, 9, 45, 95
1, 24839, Note_on_c, 9, 45, 0
1, 24840, Note_on_c, 9, 45, 95
1, 24959, Note_on_c, 9, 45, 0
1, 24960, Note_on_c, 9, 57, 80
1, 24960, Note_on_c, 9, 36, 106
1, 24971, Note_on_c, 9, 57, 0
1, 25200, Note_on_c, 9, 41, 98
1, 25319, Note_on_c, 9, 41, 0
1, 25320, Note_on_c, 9, 41, 98
1, 25439, Note_on_c, 9, 36, 0
1, 25439, Note_on_c, 9, 41, 0
1, 25440, Note_on_c, 9, 41, 98
1, 25679, Note_on_c, 9, 41, 0
1, 25680, Note_on_c, 9, 41, 98
1, 25799, Note_on_c, 9, 41, 0
1, 25800, Note_on_c, 9, 41, 98
1, 25919, Note_on_c, 9, 41, 0
1, 25920, Note_on_c, 9, 57, 80
1, 25920, Note_on_c, 9, 36, 106
1, 25931, Note_on_c, 9, 57, 0
1, 26160, Note_on_c, 9, 41, 98
1, 26279, Note_on_c, 9, 41, 0
1, 26280, Note_on_c, 9, 41, 98
1, 26399, Note_on_c, 9, 36, 0
1, 26399, Note_on_c, 9, 41, 0
1, 26400, Note_on_c, 9, 41, 98
1, 26639, Note_on_c, 9, 41, 0
1, 26640, Note_on_c, 9, 41, 98
1, 26759, Note_on_c, 9, 41, 0
1, 26760, Note_on_c, 9, 41, 98
1, 26879, Note_on_c, 9, 41, 0
1, 26880, Note_on_c, 9, 57, 80
1, 26880, Note_on_c, 9, 36, 106
1, 26891, Note_on_c, 9, 57, 0
1, 27120, Note_on_c, 9, 41, 98
1, 27239, Note_on_c, 9, 41, 0
1, 27240, Note_on_c, 9, 41, 98
1, 27359, Note_on_c, 9, 36, 0
1, 27359, Note_on_c, 9, 41, 0
1, 27360, Note_on_c, 9, 45, 95
1, 27599, Note_on_c, 9, 45, 0
1, 27600, Note_on_c, 9, 45, 95
1, 27719, Note_on_c, 9, 45, 0
1, 27720, Note_on_c, 9, 45, 95
1, 27839, Note_on_c, 9, 45, 0
1, 27840, Note_on_c, 9, 47, 101
1, 27959, Note_on_c, 9, 47, 0
1, 27960, Note_on_c, 9, 47, 101
1, 28079, Note_on_c, 9, 47, 0
1, 28080, Note_on_c, 9, 47, 101
1, 28199, Note_on_c, 9, 47, 0
1, 28200, Note_on_c, 9, 45, 95
1, 28319, Note_on_c, 9, 45, 0
1, 28320, Note_on_c, 9, 45, 95
1, 28439, Note_on_c, 9, 45, 0
1, 28440, Note_on_c, 9, 45, 95
1, 28559, Note_on_c, 9, 45, 0
1, 28560, Note_on_c, 9, 41, 98
1, 28679, Note_on_c, 9, 41, 0
1, 28680, Note_on_c, 9, 41, 98
1, 28799, Note_on_c, 9, 41, 0
1, 28800, Note_on_c, 9, 57, 80
1, 28800, Note_on_c, 9, 36, 106
1, 28811, Note_on_c, 9, 57, 0
1, 29040, Note_on_c, 9, 41, 98
1, 29159, Note_on_c, 9, 41, 0
1, 29160, Note_on_c, 9, 41, 98
1, 29279, Note_on_c, 9, 36, 0
1, 29279, Note_on_c, 9, 41, 0
1, 29280, Note_on_c, 9, 41, 98
1, 29519, Note_on_c, 9, 41, 0
1, 29520, Note_on_c, 9, 41, 98
1, 29639, Note_on_c, 9, 41, 0
1, 29640, Note_on_c, 9, 41, 98
1, 29759, Note_on_c, 9, 41, 0
1, 29760, Note_on_c, 9, 57, 80
1, 29760, Note_on_c, 9, 36, 106
1, 29771, Note_on_c, 9, 57, 0
1, 30000, Note_on_c, 9, 41, 98
1, 30119, Note_on_c, 9, 41, 0
1, 30120, Note_on_c, 9, 41, 98
1, 30239, Note_on_c, 9, 36, 0
1, 30239, Note_on_c, 9, 41, 0
1, 30240, Note_on_c, 9, 41, 98
1, 30479, Note_on_c, 9, 41, 0
1, 30480, Note_on_c, 9, 41, 98
1, 30599, Note_on_c, 9, 41, 0
1, 30600, Note_on_c, 9, 41, 98
1, 30719, Note_on_c, 9, 41, 0
1, 30720, Note_on_c, 9, 57, 80
1, 30720, Note_on_c, 9, 36, 106
1, 30731, Note_on_c, 9, 57, 0
1, 30960, Note_on_c, 9, 41, 98
1, 31079, Note_on_c, 9, 41, 0
1, 31080, Note_on_c, 9, 41, 98
1, 31199, Note_on_c, 9, 36, 0
1, 31199, Note_on_c, 9, 41, 0
1, 31200, Note_on_c, 9, 41, 98
1, 31439, Note_on_c, 9, 41, 0
1, 31440, Note_on_c, 9, 41, 98
1, 31559, Note_on_c, 9, 41, 0
1, 31560, Note_on_c, 9, 41, 98
1, 31679, Note_on_c, 9, 41, 0
1, 31680, Note_on_c, 9, 41, 98
1, 31919, Note_on_c, 9, 41, 0
1, 31920, Note_on_c, 9, 41, 98
1, 32039, Note_on_c, 9, 41, 0
1, 32040, Note_on_c, 9, 41, 98
1, 32159, Note_on_c, 9, 41, 0
1, 32160, Note_on_c, 9, 41, 98
1, 32399, Note_on_c, 9, 41, 0
1, 32400, Note_on_c, 9, 41, 98
1, 32519, Note_on_c, 9, 41, 0
1, 32520, Note_on_c, 9, 41, 98
1, 32579, Note_on_c, 9, 41, 0
1, 32610, Note_on_c, 9, 40, 102
1, 32639, Note_on_c, 9, 40, 0
1, 32640, Note_on_c, 9, 40, 102
1, 33119, Note_on_c, 9, 40, 0
1, 34560, Note_on_c, 9, 49, 82
1, 34560, Note_on_c, 9, 36, 106
1, 34571, Note_on_c, 9, 49, 0
1, 34800, Note_on_c, 9, 42, 84
1, 34811, Note_on_c, 9, 42, 0
1, 34919, Note_on_c, 9, 36, 0
1, 34920, Note_on_c, 9, 36, 106
1, 35039, Note_on_c, 9, 36, 0
1, 35040, Note_on_c, 9, 40, 102
1, 35279, Note_on_c, 9, 40, 0
1, 35280, Note_on_c, 9, 42, 84
1, 35291, Note_on_c, 9, 42, 0
1, 35400, Note_on_c, 9, 36, 106
1, 35519, Note_on_c, 9, 36, 0
1, 35520, Note_on_c, 9, 36, 106
1, 35760, Note_on_c, 9, 42, 84
1, 35771, Note_on_c, 9, 42, 0
1, 35879, Note_on_c, 9, 36, 0
1, 35880, Note_on_c, 9, 36, 106
1, 35999, Note_on_c, 9, 36, 0
1, 36000, Note_on_c, 9, 40, 102
1, 36239, Note_on_c, 9, 40, 0
1, 36240, Note_on_c, 9, 42, 84
1, 36251, Note_on_c, 9, 42, 0
1, 36360, Note_on_c, 9, 36, 106
1, 36479, Note_on_c, 9, 36, 0
1, 36480, Note_on_c, 9, 36, 106
1, 36720, Note_on_c, 9, 42, 84
1, 36731, Note_on_c, 9, 42, 0
1, 36839, Note_on_c, 9, 36, 0
1, 36840, Note_on_c, 9, 36, 106
1, 36959, Note_on_c, 9, 36, 0
1, 36960, Note_on_c, 9, 40, 102
1, 37199, Note_on_c, 9, 40, 0
1, 37200, Note_on_c, 9, 42, 84
1, 37211, Note_on_c, 9, 42, 0
1, 37320, Note_on_c, 9, 36, 106
1, 37439, Note_on_c, 9, 36, 0
1, 37440, Note_on_c, 9, 36, 106
1, 37680, Note_on_c, 9, 42, 84
1, 37691, Note_on_c, 9, 42, 0
1, 37799, Note_on_c, 9, 36, 0
1, 37800, Note_on_c, 9, 36, 106
1, 37919, Note_on_c, 9, 36, 0
1, 37920, Note_on_c, 9, 40, 102
1, 38159, Note_on_c, 9, 40, 0
1, 38160, Note_on_c, 9, 42, 84
1, 38171, Note_on_c, 9, 42, 0
1, 38280, Note_on_c, 9, 36, 106
1, 38399, Note_on_c, 9, 36, 0
1, 38400, Note_on_c, 9, 36, 106
1, 38640, Note_on_c, 9, 42, 84
1, 38651, Note_on_c, 9, 42, 0
1, 38759, Note_on_c, 9, 36, 0
1, 38760, Note_on_c, 9, 36, 106
1, 38879, Note_on_c, 9, 36, 0
1, 38880, Note_on_c, 9, 40, 102
1, 39119, Note_on_c, 9, 40, 0
1, 39120, Note_on_c, 9, 42, 84
1, 39131, Note_on_c, 9, 42, 0
1, 39240, Note_on_c, 9, 36, 106
1, 39359, Note_on_c, 9, 36, 0
1, 39360, Note_on_c, 9, 36, 106
1, 39600, Note_on_c, 9, 42, 84
1, 39611, Note_on_c, 9, 42, 0
1, 39719, Note_on_c, 9, 36, 0
1, 39720, Note_on_c, 9, 36, 106
1, 39839, Note_on_c, 9, 36, 0
1, 39840, Note_on_c, 9, 40, 102
1, 40079, Note_on_c, 9, 40, 0
1, 40080, Note_on_c, 9, 42, 84
1, 40091, Note_on_c, 9, 42, 0
1, 40200, Note_on_c, 9, 36, 106
1, 40319, Note_on_c, 9, 36, 0
1, 40320, Note_on_c, 9, 36, 106
1, 40560, Note_on_c, 9, 42, 84
1, 40571, Note_on_c, 9, 42, 0
1, 40679, Note_on_c, 9, 36, 0
1, 40680, Note_on_c, 9, 36, 106
1, 40799, Note_on_c, 9, 36, 0
1, 40800, Note_on_c, 9, 40, 102
1, 41039, Note_on_c, 9, 40, 0
1, 41040, Note_on_c, 9, 42, 84
1, 41051, Note_on_c, 9, 42, 0
1, 41160, Note_on_c, 9, 36, 106
1, 41279, Note_on_c, 9, 36, 0
1, 41280, Note_on_c, 9, 36, 106
1, 41520, Note_on_c, 9, 46, 86
1, 41528, Note_on_c, 9, 46, 0
1, 41730, Note_on_c, 9, 40, 102
1, 41759, Note_on_c, 9, 36, 0
1, 41759, Note_on_c, 9, 40, 0
1, 41760, Note_on_c, 9, 40, 102
1, 41999, Note_on_c, 9, 40, 0
1, 42000, Note_on_c, 9, 40, 102
1, 42119, Note_on_c, 9, 40, 0
1, 42120, Note_on_c, 9, 40, 102
1, 42239, Note_on_c, 9, 40, 0
1, 42240, Note_on_c, 9, 49, 82
1, 42240, Note_on_c, 9, 36, 106
1, 42251, Note_on_c, 9, 49, 0
1, 42480, Note_on_c, 9, 42, 84
1, 42491, Note_on_c, 9, 42, 0
1, 42599, Note_on_c, 9, 36, 0
1, 42600, Note_on_c, 9, 36, 106
1, 42719, Note_on_c, 9, 36, 0
1, 42720, Note_on_c, 9, 40, 102
1, 42959, Note_on_c, 9, 40, 0
1, 42960, Note_on_c, 9, 42, 84
1, 42971, Note_on_c, 9, 42, 0
1, 43080, Note_on_c, 9, 36, 106
1, 43199, Note_on_c, 9, 36, 0
1, 43200, Note_on_c, 9, 36, 106
1, 43440, Note_on_c, 9, 42, 84
1, 43451, Note_on_c, 9, 42, 0
1, 43559, Note_on_c, 9, 36, 0
1, 43560, Note_on_c, 9, 36, 106
1, 43679, Note_on_c, 9, 36, 0
1, 43680, Note_on_c, 9, 40, 102
1, 43919, Note_on_c, 9, 40, 0
1, 43920, Note_on_c, 9, 42, 84
1, 43931, Note_on_c, 9, 42, 0
1, 44040, Note_on_c, 9, 36, 106
1, 44159, Note_on_c, 9, 36, 0
1, 44160, Note_on_c, 9, 36, 106
1, 44400, Note_on_c, 9, 42, 84
1, 44411, Note_on_c, 9, 42, 0
1, 44519, Note_on_c, 9, 36, 0
1, 44520, Note_on_c, 9, 36, 106
1, 44639, Note_on_c, 9, 36, 0
1, 44640, Note_on_c, 9, 40, 102
1, 44879, Note_on_c, 9, 40, 0
1, 44880, Note_on_c, 9, 42, 84
1, 44891, Note_on_c, 9, 42, 0
1, 45000, Note_on_c, 9, 36, 106
1, 45119, Note_on_c, 9, 36, 0
1, 45120, Note_on_c, 9, 36, 106
1, 45360, Note_on_c, 9, 42, 84
1, 45371, Note_on_c, 9, 42, 0
1, 45479, Note_on_c, 9, 36, 0
1, 45480, Note_on_c, 9, 36, 106
1, 45599, Note_on_c, 9, 36, 0
1, 45600, Note_on_c, 9, 40, 102
1, 45839, Note_on_c, 9, 40, 0
1, 45840, Note_on_c, 9, 42, 84
1, 45851, Note_on_c, 9, 42, 0
1, 45960, Note_on_c, 9, 36, 106
1, 46079, Note_on_c, 9, 36, 0
1, 46080, Note_on_c, 9, 36, 106
1, 46320, Note_on_c, 9, 42, 84
1, 46331, Note_on_c, 9, 42, 0
1, 46439, Note_on_c, 9, 36, 0
1, 46440, Note_on_c, 9, 36, 106
1, 46559, Note_on_c, 9, 36, 0
1, 46560, Note_on_c, 9, 40, 102
1, 46799, Note_on_c, 9, 40, 0
1, 46800, Note_on_c, 9, 42, 84
1, 46811, Note_on_c, 9, 42, 0
1, 46920, Note_on_c, 9, 36, 106
1, 47039, Note_on_c, 9, 36, 0
1, 47040, Note_on_c, 9, 36, 106
1, 47280, Note_on_c, 9, 42, 84
1, 47291, Note_on_c, 9, 42, 0
1, 47399, Note_on_c, 9, 36, 0
1, 47400, Note_on_c, 9, 36, 106
1, 47519, Note_on_c, 9, 36, 0
1, 47520, Note_on_c, 9, 40, 102
1, 47759, Note_on_c, 9, 40, 0
1, 47760, Note_on_c, 9, 42, 84
1, 47771, Note_on_c, 9, 42, 0
1, 47880, Note_on_c, 9, 36, 106
1, 47999, Note_on_c, 9, 36, 0
1, 48000, Note_on_c, 9, 36, 106
1, 48240, Note_on_c, 9, 42, 84
1, 48251, Note_on_c, 9, 42, 0
1, 48359, Note_on_c, 9, 36, 0
1, 48360, Note_on_c, 9, 36, 106
1, 48479, Note_on_c, 9, 36, 0
1, 48480, Note_on_c, 9, 40, 102
1, 48719, Note_on_c, 9, 40, 0
1, 48720, Note_on_c, 9, 42, 84
1, 48731, Note_on_c, 9, 42, 0
1, 48840, Note_on_c, 9, 36, 106
1, 48959, Note_on_c, 9, 36, 0
1, 48960, Note_on_c, 9, 36, 106
1, 49200, Note_on_c, 9, 42, 84
1, 49211, Note_on_c, 9, 42, 0
1, 49319, Note_on_c, 9, 36, 0
1, 49320, Note_on_c, 9, 36, 106
1, 49439, Note_on_c, 9, 36, 0
1, 49440, Note_on_c, 9, 40, 102
1, 49679, Note_on_c, 9, 40, 0
1, 49680, Note_on_c, 9, 42, 84
1, 49691, Note_on_c, 9, 42, 0
1, 49800, Note_on_c, 9, 36, 106
1, 49919, Note_on_c, 9, 36, 0
1, 49920, Note_on_c, 9, 36, 106
1, 50160, Note_on_c, 9, 42, 84
1, 50171, Note_on_c, 9, 42, 0
1, 50279, Note_on_c, 9, 36, 0
1, 50280, Note_on_c, 9, 36, 106
1, 50399, Note_on_c, 9, 36, 0
1, 50400, Note_on_c, 9, 40, 102
1, 50639, Note_on_c, 9, 40, 0
1, 50640, Note_on_c, 9, 42, 84
1, 50651, Note_on_c, 9, 42, 0
1, 50760, Note_on_c, 9, 36, 106
1, 50879, Note_on_c, 9, 36, 0
1, 50880, Note_on_c, 9, 36, 106
1, 51120, Note_on_c, 9, 42, 84
1, 51131, Note_on_c, 9, 42, 0
1, 51239, Note_on_c, 9, 36, 0
1, 51240, Note_on_c, 9, 36, 106
1, 51359, Note_on_c, 9, 36, 0
1, 51360, Note_on_c, 9, 40, 102
1, 51599, Note_on_c, 9, 40, 0
1, 51600, Note_on_c, 9, 42, 84
1, 51611, Note_on_c, 9, 42, 0
1, 51720, Note_on_c, 9, 36, 106
1, 51839, Note_on_c, 9, 36, 0
1, 51840, Note_on_c, 9, 36, 106
1, 52080, Note_on_c, 9, 42, 84
1, 52091, Note_on_c, 9, 42, 0
1, 52199, Note_on_c, 9, 36, 0
1, 52200, Note_on_c, 9, 36, 106
1, 52319, Note_on_c, 9, 36, 0
1, 52320, Note_on_c, 9, 40, 102
1, 52559, Note_on_c, 9, 40, 0
1, 52560, Note_on_c, 9, 42, 84
1, 52571, Note_on_c, 9, 42, 0
1, 52680, Note_on_c, 9, 36, 106
1, 52799, Note_on_c, 9, 36, 0
1, 52800, Note_on_c, 9, 36, 106
1, 53040, Note_on_c, 9, 42, 84
1, 53051, Note_on_c, 9, 42, 0
1, 53159, Note_on_c, 9, 36, 0
1, 53160, Note_on_c, 9, 36, 106
1, 53279, Note_on_c, 9, 36, 0
1, 53280, Note_on_c, 9, 40, 102
1, 53519, Note_on_c, 9, 40, 0
1, 53520, Note_on_c, 9, 42, 84
1, 53531, Note_on_c, 9, 42, 0
1, 53640, Note_on_c, 9, 36, 106
1, 53759, Note_on_c, 9, 36, 0
1, 53760, Note_on_c, 9, 36, 106
1, 54000, Note_on_c, 9, 42, 84
1, 54011, Note_on_c, 9, 42, 0
1, 54119, Note_on_c, 9, 36, 0
1, 54120, Note_on_c, 9, 36, 106
1, 54239, Note_on_c, 9, 36, 0
1, 54240, Note_on_c, 9, 40, 102
1, 54479, Note_on_c, 9, 40, 0
1, 54480, Note_on_c, 9, 42, 84
1, 54491, Note_on_c, 9, 42, 0
1, 54600, Note_on_c, 9, 36, 106
1, 54719, Note_on_c, 9, 36, 0
1, 54720, Note_on_c, 9, 36, 106
1, 54960, Note_on_c, 9, 42, 84
1, 54971, Note_on_c, 9, 42, 0
1, 55079, Note_on_c, 9, 36, 0
1, 55080, Note_on_c, 9, 36, 106
1, 55199, Note_on_c, 9, 36, 0
1, 55200, Note_on_c, 9, 40, 102
1, 55439, Note_on_c, 9, 40, 0
1, 55440, Note_on_c, 9, 42, 84
1, 55451, Note_on_c, 9, 42, 0
1, 55560, Note_on_c, 9, 36, 106
1, 55679, Note_on_c, 9, 36, 0
1, 55680, Note_on_c, 9, 36, 106
1, 55920, Note_on_c, 9, 42, 84
1, 55931, Note_on_c, 9, 42, 0
1, 56039, Note_on_c, 9, 36, 0
1, 56040, Note_on_c, 9, 36, 106
1, 56159, Note_on_c, 9, 36, 0
1, 56160, Note_on_c, 9, 40, 102
1, 56399, Note_on_c, 9, 40, 0
1, 56400, Note_on_c, 9, 42, 84
1, 56411, Note_on_c, 9, 42, 0
1, 56520, Note_on_c, 9, 36, 106
1, 56639, Note_on_c, 9, 36, 0
1, 56640, Note_on_c, 9, 36, 106
1, 56880, Note_on_c, 9, 42, 84
1, 56891, Note_on_c, 9, 42, 0
1, 56999, Note_on_c, 9, 36, 0
1, 57000, Note_on_c, 9, 36, 106
1, 57119, Note_on_c, 9, 36, 0
1, 57120, Note_on_c, 9, 40, 102
1, 57359, Note_on_c, 9, 40, 0
1, 57360, Note_on_c, 9, 42, 84
1, 57371, Note_on_c, 9, 42, 0
1, 57480, Note_on_c, 9, 36, 106
1, 57599, Note_on_c, 9, 36, 0
1, 57600, Note_on_c, 9, 36, 106
1, 57840, Note_on_c, 9, 42, 84
1, 57851, Note_on_c, 9, 42, 0
1, 57959, Note_on_c, 9, 36, 0
1, 57960, Note_on_c, 9, 36, 106
1, 58079, Note_on_c, 9, 36, 0
1, 58080, Note_on_c, 9, 40, 102
1, 58319, Note_on_c, 9, 40, 0
1, 58320, Note_on_c, 9, 42, 84
1, 58331, Note_on_c, 9, 42, 0
1, 58440, Note_on_c, 9, 36, 106
1, 58559, Note_on_c, 9, 36, 0
1, 58560, Note_on_c, 9, 36, 106
1, 58800, Note_on_c, 9, 42, 84
1, 58811, Note_on_c, 9, 42, 0
1, 58919, Note_on_c, 9, 36, 0
1, 58920, Note_on_c, 9, 36, 106
1, 59039, Note_on_c, 9, 36, 0
1, 59040, Note_on_c, 9, 40, 102
1, 59279, Note_on_c, 9, 40, 0
1, 59280, Note_on_c, 9, 42, 84
1, 59291, Note_on_c, 9, 42, 0
1, 59400, Note_on_c, 9, 36, 106
1, 59519, Note_on_c, 9, 36, 0
1, 59520, Note_on_c, 9, 36, 106
1, 59760, Note_on_c, 9, 42, 84
1, 59771, Note_on_c, 9, 42, 0
1, 59879, Note_on_c, 9, 36, 0
1, 59880, Note_on_c, 9, 36, 106
1, 59999, Note_on_c, 9, 36, 0
1, 60000, Note_on_c, 9, 40, 102
1, 60239, Note_on_c, 9, 40, 0
1, 60240, Note_on_c, 9, 42, 84
1, 60251, Note_on_c, 9, 42, 0
1, 60360, Note_on_c, 9, 36, 106
1, 60479, Note_on_c, 9, 36, 0
1, 60480, Note_on_c, 9, 36, 106
1, 60720, Note_on_c, 9, 42, 84
1, 60731, Note_on_c, 9, 42, 0
1, 60839, Note_on_c, 9, 36, 0
1, 60840, Note_on_c, 9, 36, 106
1, 60959, Note_on_c, 9, 36, 0
1, 60960, Note_on_c, 9, 40, 102
1, 61199, Note_on_c, 9, 40, 0
1, 61200, Note_on_c, 9, 42, 84
1, 61211, Note_on_c, 9, 42, 0
1, 61320, Note_on_c, 9, 36, 106
1, 61439, Note_on_c, 9, 36, 0
1, 61440, Note_on_c, 9, 36, 106
1, 61680, Note_on_c, 9, 42, 84
1, 61691, Note_on_c, 9, 42, 0
1, 61799, Note_on_c, 9, 36, 0
1, 61800, Note_on_c, 9, 36, 106
1, 61919, Note_on_c, 9, 36, 0
1, 61920, Note_on_c, 9, 40, 102
1, 62159, Note_on_c, 9, 40, 0
1, 62160, Note_on_c, 9, 42, 84
1, 62171, Note_on_c, 9, 42, 0
1, 62280, Note_on_c, 9, 36, 106
1, 62399, Note_on_c, 9, 36, 0
1, 62400, Note_on_c, 9, 36, 106
1, 62640, Note_on_c, 9, 42, 84
1, 62651, Note_on_c, 9, 42, 0
1, 62759, Note_on_c, 9, 36, 0
1, 62760, Note_on_c, 9, 36, 106
1, 62879, Note_on_c, 9, 36, 0
1, 62880, Note_on_c, 9, 40, 102
1, 63119, Note_on_c, 9, 40, 0
1, 63120, Note_on_c, 9, 42, 84
1, 63131, Note_on_c, 9, 42, 0
1, 63240, Note_on_c, 9, 36, 106
1, 63359, Note_on_c, 9, 36, 0
1, 63360, Note_on_c, 9, 36, 106
1, 63600, Note_on_c, 9, 42, 84
1, 63611, Note_on_c, 9, 42, 0
1, 63719, Note_on_c, 9, 36, 0
1, 63720, Note_on_c, 9, 36, 106
1, 63839, Note_on_c, 9, 36, 0
1, 63840, Note_on_c, 9, 40, 102
1, 64079, Note_on_c, 9, 40, 0
1, 64080, Note_on_c, 9, 42, 84
1, 64091, Note_on_c, 9, 42, 0
1, 64200, Note_on_c, 9, 36, 106
1, 64319, Note_on_c, 9, 36, 0
1, 64320, Note_on_c, 9, 36, 106
1, 64560, Note_on_c, 9, 42, 84
1, 64571, Note_on_c, 9, 42, 0
1, 64679, Note_on_c, 9, 36, 0
1, 64680, Note_on_c, 9, 36, 106
1, 64799, Note_on_c, 9, 36, 0
1, 64800, Note_on_c, 9, 40, 102
1, 65039, Note_on_c, 9, 40, 0
1, 65040, Note_on_c, 9, 42, 84
1, 65051, Note_on_c, 9, 42, 0
1, 65160, Note_on_c, 9, 36, 106
1, 65279, Note_on_c, 9, 36, 0
1, 65280, Note_on_c, 9, 36, 106
1, 65520, Note_on_c, 9, 42, 84
1, 65531, Note_on_c, 9, 42, 0
1, 65639, Note_on_c, 9, 36, 0
1, 65640, Note_on_c, 9, 36, 106
1, 65759, Note_on_c, 9, 36, 0
1, 65760, Note_on_c, 9, 40, 102
1, 65999, Note_on_c, 9, 40, 0
1, 66000, Note_on_c, 9, 42, 84
1, 66011, Note_on_c, 9, 42, 0
1, 66120, Note_on_c, 9, 36, 106
1, 66239, Note_on_c, 9, 36, 0
1, 66240, Note_on_c, 9, 36, 106
1, 66480, Note_on_c, 9, 42, 84
1, 66491, Note_on_c, 9, 42, 0
1, 66599, Note_on_c, 9, 36, 0
1, 66600, Note_on_c, 9, 36, 106
1, 66719, Note_on_c, 9, 36, 0
1, 66720, Note_on_c, 9, 40, 102
1, 66959, Note_on_c, 9, 40, 0
1, 66960, Note_on_c, 9, 42, 84
1, 66971, Note_on_c, 9, 42, 0
1, 67080, Note_on_c, 9, 36, 106
1, 67199, Note_on_c, 9, 36, 0
1, 67200, Note_on_c, 9, 36, 106
1, 67440, Note_on_c, 9, 42, 84
1, 67451, Note_on_c, 9, 42, 0
1, 67559, Note_on_c, 9, 36, 0
1, 67560, Note_on_c, 9, 36, 106
1, 67679, Note_on_c, 9, 36, 0
1, 67680, Note_on_c, 9, 40, 102
1, 67919, Note_on_c, 9, 40, 0
1, 67920, Note_on_c, 9, 42, 84
1, 67931, Note_on_c, 9, 42, 0
1, 68040, Note_on_c, 9, 36, 106
1, 68159, Note_on_c, 9, 36, 0
1, 68160, Note_on_c, 9, 36, 106
1, 68400, Note_on_c, 9, 42, 84
1, 68411, Note_on_c, 9, 42, 0
1, 68519, Note_on_c, 9, 36, 0
1, 68520, Note_on_c, 9, 36, 106
1, 68639, Note_on_c, 9, 36, 0
1, 68640, Note_on_c, 9, 40, 102
1, 68879, Note_on_c, 9, 40, 0
1, 68880, Note_on_c, 9, 42, 84
1, 68891, Note_on_c, 9, 42, 0
1, 69000, Note_on_c, 9, 36, 106
1, 69119, Note_on_c, 9, 36, 0
1, 69120, Note_on_c, 9, 36, 106
1, 69360, Note_on_c, 9, 42, 84
1, 69371, Note_on_c, 9, 42, 0
1, 69479, Note_on_c, 9, 36, 0
1, 69480, Note_on_c, 9, 36, 106
1, 69599, Note_on_c, 9, 36, 0
1, 69600, Note_on_c, 9, 40, 102
1, 69839, Note_on_c, 9, 40, 0
1, 69840, Note_on_c, 9, 42, 84
1, 69851, Note_on_c, 9, 42, 0
1, 69960, Note_on_c, 9, 36, 106
1, 70079, Note_on_c, 9, 36, 0
1, 70080, Note_on_c, 9, 36, 106
1, 70320, Note_on_c, 9, 42, 84
1, 70331, Note_on_c, 9, 42, 0
1, 70439, Note_on_c, 9, 36, 0
1, 70440, Note_on_c, 9, 36, 106
1, 70559, Note_on_c, 9, 36, 0
1, 70560, Note_on_c, 9, 40, 102
1, 70799, Note_on_c, 9, 40, 0
1, 70800, Note_on_c, 9, 42, 84
1, 70811, Note_on_c, 9, 42, 0
1, 70920, Note_on_c, 9, 36, 106
1, 71039, Note_on_c, 9, 36, 0
1, 71040, Note_on_c, 9, 36, 106
1, 71280, Note_on_c, 9, 42, 84
1, 71291, Note_on_c, 9, 42, 0
1, 71399, Note_on_c, 9, 36, 0
1, 71400, Note_on_c, 9, 36, 106
1, 71519, Note_on_c, 9, 36, 0
1, 71520, Note_on_c, 9, 40, 102
1, 71759, Note_on_c, 9, 40, 0
1, 71760, Note_on_c, 9, 42, 84
1, 71771, Note_on_c, 9, 42, 0
1, 71880, Note_on_c, 9, 36, 106
1, 71999, Note_on_c, 9, 36, 0
1, 72000, Note_on_c, 9, 36, 106
1, 72240, Note_on_c, 9, 46, 86
1, 72248, Note_on_c, 9, 46, 0
1, 72450, Note_on_c, 9, 40, 102
1, 72479, Note_on_c, 9, 36, 0
1, 72479, Note_on_c, 9, 40, 0
1, 72480, Note_on_c, 9, 40, 102
1, 72719, Note_on_c, 9, 40, 0
1, 72720, Note_on_c, 9, 40, 102
1, 72839, Note_on_c, 9, 40, 0
1, 72840, Note_on_c, 9, 40, 102
1, 72959, Note_on_c, 9, 40, 0
1, 72960, Note_on_c, 9, 49, 82
1, 72960, Note_on_c, 9, 36, 106
1, 72971, Note_on_c, 9, 49, 0
1, 73200, Note_on_c, 9, 42, 84
1, 73211, Note_on_c, 9, 42, 0
1, 73319, Note_on_c, 9, 36, 0
1, 73320, Note_on_c, 9, 36, 106
1, 73439, Note_on_c, 9, 36, 0
1, 73440, Note_on_c, 9, 40, 102
1, 73679, Note_on_c, 9, 40, 0
1, 73680, Note_on_c, 9, 42, 84
1, 73691, Note_on_c, 9, 42, 0
1, 73800, Note_on_c, 9, 36, 106
1, 73919, Note_on_c, 9, 36, 0
1, 73920, Note_on_c, 9, 36, 106
1, 74160, Note_on_c, 9, 42, 84
1, 74171, Note_on_c, 9, 42, 0
1, 74279, Note_on_c, 9, 36, 0
1, 74280, Note_on_c, 9, 36, 106
1, 74399, Note_on_c, 9, 36, 0
1, 74400, Note_on_c, 9, 40, 102
1, 74639, Note_on_c, 9, 40, 0
1, 74640, Note_on_c, 9, 42, 84
1, 74651, Note_on_c, 9, 42, 0
1, 74760, Note_on_c, 9, 36, 106
1, 74879, Note_on_c, 9, 36, 0
1, 74880, Note_on_c, 9, 36, 106
1, 75120, Note_on_c, 9, 42, 84
1, 75131, Note_on_c, 9, 42, 0
1, 75239, Note_on_c, 9, 36, 0
1, 75240, Note_on_c, 9, 36, 106
1, 75359, Note_on_c, 9, 36, 0
1, 75360, Note_on_c, 9, 40, 102
1, 75599, Note_on_c, 9, 40, 0
1, 75600, Note_on_c, 9, 42, 84
1, 75611, Note_on_c, 9, 42, 0
1, 75720, Note_on_c, 9, 36, 106
1, 75839, Note_on_c, 9, 36, 0
1, 75840, Note_on_c, 9, 36, 106
1, 76080, Note_on_c, 9, 42, 84
1, 76091, Note_on_c, 9, 42, 0
1, 76199, Note_on_c, 9, 36, 0
1, 76200, Note_on_c, 9, 36, 106
1, 76319, Note_on_c, 9, 36, 0
1, 76320, Note_on_c, 9, 40, 102
1, 76559, Note_on_c, 9, 40, 0
1, 76560, Note_on_c, 9, 42, 84
1, 76571, Note_on_c, 9, 42, 0
1, 76680, Note_on_c, 9, 36, 106
1, 76799, Note_on_c, 9, 36, 0
1, 76800, Note_on_c, 9, 36, 106
1, 77040, Note_on_c, 9, 42, 84
1, 77051, Note_on_c, 9, 42, 0
1, 77159, Note_on_c, 9, 36, 0
1, 77160, Note_on_c, 9, 36, 106
1, 77279, Note_on_c, 9, 36, 0
1, 77280, Note_on_c, 9, 40, 102
1, 77519, Note_on_c, 9, 40, 0
1, 77520, Note_on_c, 9, 42, 84
1, 77531, Note_on_c, 9, 42, 0
1, 77640, Note_on_c, 9, 36, 106
1, 77759, Note_on_c, 9, 36, 0
1, 77760, Note_on_c, 9, 36, 106
1, 78000, Note_on_c, 9, 42, 84
1, 78011, Note_on_c, 9, 42, 0
1, 78119, Note_on_c, 9, 36, 0
1, 78120, Note_on_c, 9, 36, 106
1, 78239, Note_on_c, 9, 36, 0
1, 78240, Note_on_c, 9, 40, 102
1, 78479, Note_on_c, 9, 40, 0
1, 78480, Note_on_c, 9, 42, 84
1, 78491, Note_on_c, 9, 42, 0
1, 78600, Note_on_c, 9, 36, 106
1, 78719, Note_on_c, 9, 36, 0
1, 78720, Note_on_c, 9, 36, 106
1, 78960, Note_on_c, 9, 42, 84
1, 78971, Note_on_c, 9, 42, 0
1, 79079, Note_on_c, 9, 36, 0
1, 79080, Note_on_c, 9, 36, 106
1, 79199, Note_on_c, 9, 36, 0
1, 79200, Note_on_c, 9, 40, 102
1, 79439, Note_on_c, 9, 40, 0
1, 79440, Note_on_c, 9, 42, 84
1, 79451, Note_on_c, 9, 42, 0
1, 79560, Note_on_c, 9, 36, 106
1, 79679, Note_on_c, 9, 36, 0
1, 79680, Note_on_c, 9, 36, 106
1, 79920, Note_on_c, 9, 46, 86
1, 79928, Note_on_c, 9, 46, 0
1, 80130, Note_on_c, 9, 40, 102
1, 80159, Note_on_c, 9, 36, 0
1, 80159, Note_on_c, 9, 40, 0
1, 80160, Note_on_c, 9, 40, 102
1, 80399, Note_on_c, 9, 40, 0
1, 80400, Note_on_c, 9, 40, 102
1, 80519, Note_on_c, 9, 40, 0
1, 80520, Note_on_c, 9, 40, 102
1, 80639, Note_on_c, 9, 40, 0
1, 80640, Note_on_c, 9, 49, 82
1, 80640, Note_on_c, 9, 36, 106
1, 80651, Note_on_c, 9, 49, 0
1, 80880, Note_on_c, 9, 42, 84
1, 80891, Note_on_c, 9, 42, 0
1, 80999, Note_on_c, 9, 36, 0
1, 81000, Note_on_c, 9, 36, 106
1, 81119, Note_on_c, 9, 36, 0
1, 81120, Note_on_c, 9, 40, 102
1, 81359, Note_on_c, 9, 40, 0
1, 81360, Note_on_c, 9, 42, 84
1, 81371, Note_on_c, 9, 42, 0
1, 81480, Note_on_c, 9, 36, 106
1, 81599, Note_on_c, 9, 36, 0
1, 81600, Note_on_c, 9, 36, 106
1, 81840, Note_on_c, 9, 42, 84
1, 81851, Note_on_c, 9, 42, 0
1, 81959, Note_on_c, 9, 36, 0
1, 81960, Note_on_c, 9, 36, 106
1, 82079, Note_on_c, 9, 36, 0
1, 82080, Note_on_c, 9, 40, 102
1, 82319, Note_on_c, 9, 40, 0
1, 82320, Note_on_c, 9, 42, 84
1, 82331, Note_on_c, 9, 42, 0
1, 82440, Note_on_c, 9, 36, 106
1, 82559, Note_on_c, 9, 36, 0
1, 82560, Note_on_c, 9, 36, 106
1, 82800, Note_on_c, 9, 42, 84
1, 82811, Note_on_c, 9, 42, 0
1, 82919, Note_on_c, 9, 36, 0
1, 82920, Note_on_c, 9, 36, 106
1, 83039, Note_on_c, 9, 36, 0
1, 83040, Note_on_c, 9, 40, 102
1, 83279, Note_on_c, 9, 40, 0
1, 83280, Note_on_c, 9, 42, 84
1, 83291, Note_on_c, 9, 42, 0
1, 83400, Note_on_c, 9, 36, 106
1, 83519, Note_on_c, 9, 36, 0
1, 83520, Note_on_c, 9, 36, 106
1, 83760, Note_on_c, 9, 42, 84
1, 83771, Note_on_c, 9, 42, 0
1, 83879, Note_on_c, 9, 36, 0
1, 83880, Note_on_c, 9, 36, 106
1, 83999, Note_on_c, 9, 36, 0
1, 84000, Note_on_c, 9, 40, 102
1, 84239, Note_on_c, 9, 40, 0
1, 84240, Note_on_c, 9, 42, 84
1, 84251, Note_on_c, 9, 42, 0
1, 84360, Note_on_c, 9, 36, 106
1, 84479, Note_on_c, 9, 36, 0
1, 84480, Note_on_c, 9, 36, 106
1, 84720, Note_on_c, 9, 42, 84
1, 84731, Note_on_c, 9, 42, 0
1, 84839, Note_on_c, 9, 36, 0
1, 84840, Note_on_c, 9, 36, 106
1, 84959, Note_on_c, 9, 36, 0
1, 84960, Note_on_c, 9, 40, 102
1, 85199, Note_on_c, 9, 40, 0
1, 85200, Note_on_c, 9, 42, 84
1, 85211, Note_on_c, 9, 42, 0
1, 85320, Note_on_c, 9, 36, 106
1, 85439, Note_on_c, 9, 36, 0
1, 85440, Note_on_c, 9, 36, 106
1, 85680, Note_on_c, 9, 42, 84
1, 85691, Note_on_c, 9, 42, 0
1, 85799, Note_on_c, 9, 36, 0
1, 85800, Note_on_c, 9, 36, 106
1, 85919, Note_on_c, 9, 36, 0
1, 85920, Note_on_c, 9, 40, 102
1, 86159, Note_on_c, 9, 40, 0
1, 86160, Note_on_c, 9, 42, 84
1, 86171, Note_on_c, 9, 42, 0
1, 86280, Note_on_c, 9, 36, 106
1, 86399, Note_on_c, 9, 36, 0
1, 86400, Note_on_c, 9, 36, 106
1, 86640, Note_on_c, 9, 42, 84
1, 86651, Note_on_c, 9, 42, 0
1, 86759, Note_on_c, 9, 36, 0
1, 86760, Note_on_c, 9, 36, 106
1, 86879, Note_on_c, 9, 36, 0
1, 86880, Note_on_c, 9, 40, 102
1, 87119, Note_on_c, 9, 40, 0
1, 87120, Note_on_c, 9, 42, 84
1, 87131, Note_on_c, 9, 42, 0
1, 87240, Note_on_c, 9, 36, 106
1, 87359, Note_on_c, 9, 36, 0
1, 87360, Note_on_c, 9, 36, 106
1, 87600, Note_on_c, 9, 42, 84
1, 87611, Note_on_c, 9, 42, 0
1, 87719, Note_on_c, 9, 36, 0
1, 87720, Note_on_c, 9, 36, 106
1, 87839, Note_on_c, 9, 36, 0
1, 87840, Note_on_c, 9, 40, 102
1, 88079, Note_on_c, 9, 40, 0
1, 88080, Note_on_c, 9, 42, 84
1, 88091, Note_on_c, 9, 42, 0
1, 88200, Note_on_c, 9, 36, 106
1, 88319, Note_on_c, 9, 36, 0
1, 88320, Note_on_c, 9, 36, 106
1, 88560, Note_on_c, 9, 42, 84
1, 88571, Note_on_c, 9, 42, 0
1, 88679, Note_on_c, 9, 36, 0
1, 88680, Note_on_c, 9, 36, 106
1, 88799, Note_on_c, 9, 36, 0
1, 88800, Note_on_c, 9, 40, 102
1, 89039, Note_on_c, 9, 40, 0
1, 89040, Note_on_c, 9, 42, 84
1, 89051, Note_on_c, 9, 42, 0
1, 89160, Note_on_c, 9, 36, 106
1, 89279, Note_on_c, 9, 36, 0
1, 89280, Note_on_c, 9, 36, 106
1, 89520, Note_on_c, 9, 42, 84
1, 89531, Note_on_c, 9, 42, 0
1, 89639, Note_on_c, 9, 36, 0
1, 89640, Note_on_c, 9, 36, 106
1, 89759, Note_on_c, 9, 36, 0
1, 89760, Note_on_c, 9, 40, 102
1, 89999, Note_on_c, 9, 40, 0
1, 90000, Note_on_c, 9, 42, 84
1, 90011, Note_on_c, 9, 42, 0
1, 90120, Note_on_c, 9, 36, 106
1, 90239, Note_on_c, 9, 36, 0
1, 90240, Note_on_c, 9, 36, 106
1, 90480, Note_on_c, 9, 42, 84
1, 90491, Note_on_c, 9, 42, 0
1, 90599, Note_on_c, 9, 36, 0
1, 90600, Note_on_c, 9, 36, 106
1, 90719, Note_on_c, 9, 36, 0
1, 90720, Note_on_c, 9, 40, 102
1, 90959, Note_on_c, 9, 40, 0
1, 90960, Note_on_c, 9, 42, 84
1, 90971, Note_on_c, 9, 42, 0
1, 91080, Note_on_c, 9, 36, 106
1, 91199, Note_on_c, 9, 36, 0
1, 91200, Note_on_c, 9, 36, 106
1, 91440, Note_on_c, 9, 42, 84
1, 91451, Note_on_c, 9, 42, 0
1, 91559, Note_on_c, 9, 36, 0
1, 91560, Note_on_c, 9, 36, 106
1, 91679, Note_on_c, 9, 36, 0
1, 91680, Note_on_c, 9, 40, 102
1, 91919, Note_on_c, 9, 40, 0
1, 91920, Note_on_c, 9, 42, 84
1, 91931, Note_on_c, 9, 42, 0
1, 92040, Note_on_c, 9, 36, 106
1, 92159, Note_on_c, 9, 36, 0
1, 92160, Note_on_c, 9, 36, 106
1, 92400, Note_on_c, 9, 42, 84
1, 92411, Note_on_c, 9, 42, 0
1, 92519, Note_on_c, 9, 36, 0
1, 92520, Note_on_c, 9, 36, 106
1, 92639, Note_on_c, 9, 36, 0
1, 92640, Note_on_c, 9, 40, 102
1, 92879, Note_on_c, 9, 40, 0
1, 92880, Note_on_c, 9, 42, 84
1, 92891, Note_on_c, 9, 42, 0
1, 93000, Note_on_c, 9, 36, 106
1, 93119, Note_on_c, 9, 36, 0
1, 93120, Note_on_c, 9, 36, 106
1, 93360, Note_on_c, 9, 42, 84
1, 93371, Note_on_c, 9, 42, 0
1, 93479, Note_on_c, 9, 36, 0
1, 93480, Note_on_c, 9, 36, 106
1, 93599, Note_on_c, 9, 36, 0
1, 93600, Note_on_c, 9, 40, 102
1, 93839, Note_on_c, 9, 40, 0
1, 93840, Note_on_c, 9, 42, 84
1, 93851, Note_on_c, 9, 42, 0
1, 93960, Note_on_c, 9, 36, 106
1, 94079, Note_on_c, 9, 36, 0
1, 94080, Note_on_c, 9, 36, 106
1, 94320, Note_on_c, 9, 42, 84
1, 94331, Note_on_c, 9, 42, 0
1, 94439, Note_on_c, 9, 36, 0
1, 94440, Note_on_c, 9, 36, 106
1, 94559, Note_on_c, 9, 36, 0
1, 94560, Note_on_c, 9, 40, 102
1, 94799, Note_on_c, 9, 40, 0
1, 94800, Note_on_c, 9, 42, 84
1, 94811, Note_on_c, 9, 42, 0
1, 94920, Note_on_c, 9, 36, 106
1, 95039, Note_on_c, 9, 36, 0
1, 95040, Note_on_c, 9, 36, 106
1, 95280, Note_on_c, 9, 46, 86
1, 95291, Note_on_c, 9, 46, 0
1, 95399, Note_on_c, 9, 36, 0
1, 95400, Note_on_c, 9, 36, 106
1, 95519, Note_on_c, 9, 36, 0
1, 95520, Note_on_c, 9, 40, 102
1, 95759, Note_on_c, 9, 40, 0
1, 95760, Note_on_c, 9, 46, 86
1, 95771, Note_on_c, 9, 46, 0
1, 95880, Note_on_c, 9, 36, 106
1, 95999, Note_on_c, 9, 36, 0
1, 96000, Note_on_c, 9, 55, 95
1, 96000, Note_on_c, 9, 36, 106
1, 96011, Note_on_c, 9, 55, 0
1, 96240, Note_on_c, 9, 42, 84
1, 96251, Note_on_c, 9, 42, 0
1, 96359, Note_on_c, 9, 36, 0
1, 96360, Note_on_c, 9, 36, 106
1, 96479, Note_on_c, 9, 36, 0
1, 96480, Note_on_c, 9, 40, 102
1, 96719, Note_on_c, 9, 40, 0
1, 96720, Note_on_c, 9, 42, 84
1, 96731, Note_on_c, 9, 42, 0
1, 96840, Note_on_c, 9, 36, 106
1, 96959, Note_on_c, 9, 36, 0
1, 96960, Note_on_c, 9, 36, 106
1, 97200, Note_on_c, 9, 42, 84
1, 97211, Note_on_c, 9, 42, 0
1, 97319, Note_on_c, 9, 36, 0
1, 97320, Note_on_c, 9, 36, 106
1, 97439, Note_on_c, 9, 36, 0
1, 97440, Note_on_c, 9, 40, 102
1, 97679, Note_on_c, 9, 40, 0
1, 97680, Note_on_c, 9, 42, 84
1, 97691, Note_on_c, 9, 42, 0
1, 97800, Note_on_c, 9, 36, 106
1, 97919, Note_on_c, 9, 36, 0
1, 97920, Note_on_c, 9, 36, 106
1, 98160, Note_on_c, 9, 42, 84
1, 98171, Note_on_c, 9, 42, 0
1, 98279, Note_on_c, 9, 36, 0
1, 98280, Note_on_c, 9, 36, 106
1, 98399, Note_on_c, 9, 36, 0
1, 98400, Note_on_c, 9, 40, 102
1, 98639, Note_on_c, 9, 40, 0
1, 98640, Note_on_c, 9, 42, 84
1, 98651, Note_on_c, 9, 42, 0
1, 98760, Note_on_c, 9, 36, 106
1, 98879, Note_on_c, 9, 36, 0
1, 98880, Note_on_c, 9, 36, 106
1, 99120, Note_on_c, 9, 42, 84
1, 99131, Note_on_c, 9, 42, 0
1, 99239, Note_on_c, 9, 36, 0
1, 99240, Note_on_c, 9, 36, 106
1, 99359, Note_on_c, 9, 36, 0
1, 99360, Note_on_c, 9, 40, 102
1, 99599, Note_on_c, 9, 40, 0
1, 99600, Note_on_c, 9, 42, 84
1, 99611, Note_on_c, 9, 42, 0
1, 99720, Note_on_c, 9, 36, 106
1, 99839, Note_on_c, 9, 36, 0
1, 99840, Note_on_c, 9, 36, 106
1, 100080, Note_on_c, 9, 42, 84
1, 100091, Note_on_c, 9, 42, 0
1, 100199, Note_on_c, 9, 36, 0
1, 100200, Note_on_c, 9, 36, 106
1, 100319, Note_on_c, 9, 36, 0
1, 100320, Note_on_c, 9, 40, 102
1, 100559, Note_on_c, 9, 40, 0
1, 100560, Note_on_c, 9, 42, 84
1, 100571, Note_on_c, 9, 42, 0
1, 100680, Note_on_c, 9, 36, 106
1, 100799, Note_on_c, 9, 36, 0
1, 100800, Note_on_c, 9, 36, 106
1, 101040, Note_on_c, 9, 42, 84
1, 101051, Note_on_c, 9, 42, 0
1, 101159, Note_on_c, 9, 36, 0
1, 101160, Note_on_c, 9, 36, 106
1, 101279, Note_on_c, 9, 36, 0
1, 101280, Note_on_c, 9, 40, 102
1, 101519, Note_on_c, 9, 40, 0
1, 101520, Note_on_c, 9, 42, 84
1, 101531, Note_on_c, 9, 42, 0
1, 101640, Note_on_c, 9, 36, 106
1, 101759, Note_on_c, 9, 36, 0
1, 101760, Note_on_c, 9, 36, 106
1, 102000, Note_on_c, 9, 42, 84
1, 102011, Note_on_c, 9, 42, 0
1, 102119, Note_on_c, 9, 36, 0
1, 102120, Note_on_c, 9, 36, 106
1, 102239, Note_on_c, 9, 36, 0
1, 102240, Note_on_c, 9, 40, 102
1, 102479, Note_on_c, 9, 40, 0
1, 102480, Note_on_c, 9, 42, 84
1, 102491, Note_on_c, 9, 42, 0
1, 102600, Note_on_c, 9, 36, 106
1, 102719, Note_on_c, 9, 36, 0
1, 102720, Note_on_c, 9, 36, 106
1, 102960, Note_on_c, 9, 42, 84
1, 102971, Note_on_c, 9, 42, 0
1, 103079, Note_on_c, 9, 36, 0
1, 103080, Note_on_c, 9, 36, 106
1, 103199, Note_on_c, 9, 36, 0
1, 103200, Note_on_c, 9, 40, 102
1, 103439, Note_on_c, 9, 40, 0
1, 103440, Note_on_c, 9, 42, 84
1, 103451, Note_on_c, 9, 42, 0
1, 103560, Note_on_c, 9, 36, 106
1, 103679, Note_on_c, 9, 36, 0
1, 103680, Note_on_c, 9, 36, 106
1, 103920, Note_on_c, 9, 42, 84
1, 103931, Note_on_c, 9, 42, 0
1, 104039, Note_on_c, 9, 36, 0
1, 104040, Note_on_c, 9, 36, 106
1, 104159, Note_on_c, 9, 36, 0
1, 104160, Note_on_c, 9, 40, 102
1, 104399, Note_on_c, 9, 40, 0
1, 104400, Note_on_c, 9, 42, 84
1, 104411, Note_on_c, 9, 42, 0
1, 104520, Note_on_c, 9, 36, 106
1, 104639, Note_on_c, 9, 36, 0
1, 104640, Note_on_c, 9, 36, 106
1, 104880, Note_on_c, 9, 42, 84
1, 104891, Note_on_c, 9, 42, 0
1, 104999, Note_on_c, 9, 36, 0
1, 105000, Note_on_c, 9, 36, 106
1, 105119, Note_on_c, 9, 36, 0
1, 105120, Note_on_c, 9, 40, 102
1, 105359, Note_on_c, 9, 40, 0
1, 105360, Note_on_c, 9, 42, 84
1, 105371, Note_on_c, 9, 42, 0
1, 105480, Note_on_c, 9, 36, 106
1, 105599, Note_on_c, 9, 36, 0
1, 105600, Note_on_c, 9, 36, 106
1, 105840, Note_on_c, 9, 42, 84
1, 105851, Note_on_c, 9, 42, 0
1, 105959, Note_on_c, 9, 36, 0
1, 105960, Note_on_c, 9, 36, 106
1, 106079, Note_on_c, 9, 36, 0
1, 106080, Note_on_c, 9, 40, 102
1, 106319, Note_on_c, 9, 40, 0
1, 106320, Note_on_c, 9, 42, 84
1, 106331, Note_on_c, 9, 42, 0
1, 106440, Note_on_c, 9, 36, 106
1, 106559, Note_on_c, 9, 36, 0
1, 106560, Note_on_c, 9, 36, 106
1, 106800, Note_on_c, 9, 42, 84
1, 106811, Note_on_c, 9, 42, 0
1, 106919, Note_on_c, 9, 36, 0
1, 106920, Note_on_c, 9, 36, 106
1, 107039, Note_on_c, 9, 36, 0
1, 107040, Note_on_c, 9, 40, 102
1, 107279, Note_on_c, 9, 40, 0
1, 107280, Note_on_c, 9, 42, 84
1, 107291, Note_on_c, 9, 42, 0
1, 107400, Note_on_c, 9, 36, 106
1, 107519, Note_on_c, 9, 36, 0
1, 107520, Note_on_c, 9, 36, 106
1, 107760, Note_on_c, 9, 42, 84
1, 107771, Note_on_c, 9, 42, 0
1, 107879, Note_on_c, 9, 36, 0
1, 107880, Note_on_c, 9, 36, 106
1, 107999, Note_on_c, 9, 36, 0
1, 108000, Note_on_c, 9, 40, 102
1, 108239, Note_on_c, 9, 40, 0
1, 108240, Note_on_c, 9, 42, 84
1, 108251, Note_on_c, 9, 42, 0
1, 108360, Note_on_c, 9, 36, 106
1, 108479, Note_on_c, 9, 36, 0
1, 108480, Note_on_c, 9, 36, 106
1, 108720, Note_on_c, 9, 42, 84
1, 108731, Note_on_c, 9, 42, 0
1, 108839, Note_on_c, 9, 36, 0
1, 108840, Note_on_c, 9, 36, 106
1, 108959, Note_on_c, 9, 36, 0
1, 108960, Note_on_c, 9, 40, 102
1, 109199, Note_on_c, 9, 40, 0
1, 109200, Note_on_c, 9, 42, 84
1, 109211, Note_on_c, 9, 42, 0
1, 109320, Note_on_c, 9, 36, 106
1, 109439, Note_on_c, 9, 36, 0
1, 109440, Note_on_c, 9, 36, 106
1, 109680, Note_on_c, 9, 42, 84
1, 109691, Note_on_c, 9, 42, 0
1, 109799, Note_on_c, 9, 36, 0
1, 109800, Note_on_c, 9, 36, 106
1, 109919, Note_on_c, 9, 36, 0
1, 109920, Note_on_c, 9, 40, 102
1, 110159, Note_on_c, 9, 40, 0
1, 110160, Note_on_c, 9, 42, 84
1, 110171, Note_on_c, 9, 42, 0
1, 110280, Note_on_c, 9, 36, 106
1, 110399, Note_on_c, 9, 36, 0
1, 110400, Note_on_c, 9, 36, 106
1, 110640, Note_on_c, 9, 46, 86
1, 110648, Note_on_c, 9, 46, 0
1, 110850, Note_on_c, 9, 40, 102
1, 110879, Note_on_c, 9, 36, 0
1, 110879, Note_on_c, 9, 40, 0
1, 110880, Note_on_c, 9, 40, 102
1, 111119, Note_on_c, 9, 40, 0
1, 111120, Note_on_c, 9, 40, 102
1, 111239, Note_on_c, 9, 40, 0
1, 111240, Note_on_c, 9, 40, 102
1, 111359, Note_on_c, 9, 40, 0
1, 111360, Note_on_c, 9, 49, 82
1, 111360, Note_on_c, 9, 36, 106
1, 111371, Note_on_c, 9, 49, 0
1, 111600, Note_on_c, 9, 42, 84
1, 111611, Note_on_c, 9, 42, 0
1, 111719, Note_on_c, 9, 36, 0
1, 111720, Note_on_c, 9, 36, 106
1, 111839, Note_on_c, 9, 36, 0
1, 111840, Note_on_c, 9, 40, 102
1, 112079, Note_on_c, 9, 40, 0
1, 112080, Note_on_c, 9, 42, 84
1, 112091, Note_on_c, 9, 42, 0
1, 112200, Note_on_c, 9, 36, 106
1, 112319, Note_on_c, 9, 36, 0
1, 112320, Note_on_c, 9, 36, 106
1, 112560, Note_on_c, 9, 42, 84
1, 112571, Note_on_c, 9, 42, 0
1, 112679, Note_on_c, 9, 36, 0
1, 112680, Note_on_c, 9, 36, 106
1, 112799, Note_on_c, 9, 36, 0
1, 112800, Note_on_c, 9, 40, 102
1, 113039, Note_on_c, 9, 40, 0
1, 113040, Note_on_c, 9, 42, 84
1, 113051, Note_on_c, 9, 42, 0
1, 113160, Note_on_c, 9, 36, 106
1, 113279, Note_on_c, 9, 36, 0
1, 113280, Note_on_c, 9, 36, 106
1, 113520, Note_on_c, 9, 42, 84
1, 113531, Note_on_c, 9, 42, 0
1, 113639, Note_on_c, 9, 36, 0
1, 113640, Note_on_c, 9, 36, 106
1, 113759, Note_on_c, 9, 36, 0
1, 113760, Note_on_c, 9, 40, 102
1, 113999, Note_on_c, 9, 40, 0
1, 114000, Note_on_c, 9, 42, 84
1, 114011, Note_on_c, 9, 42, 0
1, 114120, Note_on_c, 9, 36, 106
1, 114239, Note_on_c, 9, 36, 0
1, 114240, Note_on_c, 9, 36, 106
1, 114480, Note_on_c, 9, 42, 84
1, 114491, Note_on_c, 9, 42, 0
1, 114599, Note_on_c, 9, 36, 0
1, 114600, Note_on_c, 9, 36, 106
1, 114719, Note_on_c, 9, 36, 0
1, 114720, Note_on_c, 9, 40, 102
1, 114959, Note_on_c, 9, 40, 0
1, 114960, Note_on_c, 9, 42, 84
1, 114971, Note_on_c, 9, 42, 0
1, 115080, Note_on_c, 9, 36, 106
1, 115199, Note_on_c, 9, 36, 0
1, 115200, Note_on_c, 9, 36, 106
1, 115440, Note_on_c, 9, 42, 84
1, 115451, Note_on_c, 9, 42, 0
1, 115559, Note_on_c, 9, 36, 0
1, 115560, Note_on_c, 9, 36, 106
1, 115679, Note_on_c, 9, 36, 0
1, 115680, Note_on_c, 9, 40, 102
1, 115919, Note_on_c, 9, 40, 0
1, 115920, Note_on_c, 9, 42, 84
1, 115931, Note_on_c, 9, 42, 0
1, 116040, Note_on_c, 9, 36, 106
1, 116159, Note_on_c, 9, 36, 0
1, 116160, Note_on_c, 9, 36, 106
1, 116400, Note_on_c, 9, 42, 84
1, 116411, Note_on_c, 9, 42, 0
1, 116519, Note_on_c, 9, 36, 0
1, 116520, Note_on_c, 9, 36, 106
1, 116639, Note_on_c, 9, 36, 0
1, 116640, Note_on_c, 9, 40, 102
1, 116879, Note_on_c, 9, 40, 0
1, 116880, Note_on_c, 9, 42, 84
1, 116891, Note_on_c, 9, 42, 0
1, 117000, Note_on_c, 9, 36, 106
1, 117119, Note_on_c, 9, 36, 0
1, 117120, Note_on_c, 9, 36, 106
1, 117360, Note_on_c, 9, 42, 84
1, 117371, Note_on_c, 9, 42, 0
1, 117479, Note_on_c, 9, 36, 0
1, 117480, Note_on_c, 9, 36, 106
1, 117599, Note_on_c, 9, 36, 0
1, 117600, Note_on_c, 9, 40, 102
1, 117839, Note_on_c, 9, 40, 0
1, 117840, Note_on_c, 9, 42, 84
1, 117851, Note_on_c, 9, 42, 0
1, 117960, Note_on_c, 9, 36, 106
1, 118079, Note_on_c, 9, 36, 0
1, 118080, Note_on_c, 9, 36, 106
1, 118320, Note_on_c, 9, 46, 86
1, 118328, Note_on_c, 9, 46, 0
1, 118530, Note_on_c, 9, 40, 102
1, 118559, Note_on_c, 9, 36, 0
1, 118559, Note_on_c, 9, 40, 0
1, 118560, Note_on_c, 9, 40, 102
1, 118799, Note_on_c, 9, 40, 0
1, 118800, Note_on_c, 9, 40, 102
1, 118919, Note_on_c, 9, 40, 0
1, 118920, Note_on_c, 9, 40, 102
1, 119039, Note_on_c, 9, 40, 0
1, 119040, Note_on_c, 9, 49, 82
1, 119040, Note_on_c, 9, 36, 106
1, 119051, Note_on_c, 9, 49, 0
1, 119280, Note_on_c, 9, 42, 84
1, 119291, Note_on_c, 9, 42, 0
1, 119399, Note_on_c, 9, 36, 0
1, 119400, Note_on_c, 9, 36, 106
1, 119519, Note_on_c, 9, 36, 0
1, 119520, Note_on_c, 9, 40, 102
1, 119759, Note_on_c, 9, 40, 0
1, 119760, Note_on_c, 9, 42, 84
1, 119771, Note_on_c, 9, 42, 0
1, 119880, Note_on_c, 9, 36, 106
1, 119999, Note_on_c, 9, 36, 0
1, 120000, Note_on_c, 9, 36, 106
1, 120240, Note_on_c, 9, 42, 84
1, 120251, Note_on_c, 9, 42, 0
1, 120359, Note_on_c, 9, 36, 0
1, 120360, Note_on_c, 9, 36, 106
1, 120479, Note_on_c, 9, 36, 0
1, 120480, Note_on_c, 9, 40, 102
1, 120719, Note_on_c, 9, 40, 0
1, 120720, Note_on_c, 9, 42, 84
1, 120731, Note_on_c, 9, 42, 0
1, 120840, Note_on_c, 9, 36, 106
1, 120959, Note_on_c, 9, 36, 0
1, 120960, Note_on_c, 9, 36, 106
1, 121200, Note_on_c, 9, 42, 84
1, 121211, Note_on_c, 9, 42, 0
1, 121319, Note_on_c, 9, 36, 0
1, 121320, Note_on_c, 9, 36, 106
1, 121439, Note_on_c, 9, 36, 0
1, 121440, Note_on_c, 9, 40, 102
1, 121679, Note_on_c, 9, 40, 0
1, 121680, Note_on_c, 9, 42, 84
1, 121691, Note_on_c, 9, 42, 0
1, 121800, Note_on_c, 9, 36, 106
1, 121919, Note_on_c, 9, 36, 0
1, 121920, Note_on_c, 9, 36, 106
1, 122160, Note_on_c, 9, 42, 84
1, 122171, Note_on_c, 9, 42, 0
1, 122279, Note_on_c, 9, 36, 0
1, 122280, Note_on_c, 9, 36, 106
1, 122399, Note_on_c, 9, 36, 0
1, 122400, Note_on_c, 9, 40, 102
1, 122639, Note_on_c, 9, 40, 0
1, 122640, Note_on_c, 9, 42, 84
1, 122651, Note_on_c, 9, 42, 0
1, 122760, Note_on_c, 9, 36, 106
1, 122879, Note_on_c, 9, 36, 0
1, 122880, Note_on_c, 9, 36, 106
1, 123120, Note_on_c, 9, 42, 84
1, 123131, Note_on_c, 9, 42, 0
1, 123239, Note_on_c, 9, 36, 0
1, 123240, Note_on_c, 9, 36, 106
1, 123359, Note_on_c, 9, 36, 0
1, 123360, Note_on_c, 9, 40, 102
1, 123599, Note_on_c, 9, 40, 0
1, 123600, Note_on_c, 9, 42, 84
1, 123611, Note_on_c, 9, 42, 0
1, 123720, Note_on_c, 9, 36, 106
1, 123839, Note_on_c, 9, 36, 0
1, 123840, Note_on_c, 9, 36, 106
1, 124080, Note_on_c, 9, 42, 84
1, 124091, Note_on_c, 9, 42, 0
1, 124199, Note_on_c, 9, 36, 0
1, 124200, Note_on_c, 9, 36, 106
1, 124319, Note_on_c, 9, 36, 0
1, 124320, Note_on_c, 9, 40, 102
1, 124559, Note_on_c, 9, 40, 0
1, 124560, Note_on_c, 9, 42, 84
1, 124571, Note_on_c, 9, 42, 0
1, 124680, Note_on_c, 9, 36, 106
1, 124799, Note_on_c, 9, 36, 0
1, 124800, Note_on_c, 9, 36, 106
1, 125040, Note_on_c, 9, 42, 84
1, 125051, Note_on_c, 9, 42, 0
1, 125159, Note_on_c, 9, 36, 0
1, 125160, Note_on_c, 9, 36, 106
1, 125279, Note_on_c, 9, 36, 0
1, 125280, Note_on_c, 9, 40, 102
1, 125519, Note_on_c, 9, 40, 0
1, 125520, Note_on_c, 9, 42, 84
1, 125531, Note_on_c, 9, 42, 0
1, 125640, Note_on_c, 9, 36, 106
1, 125759, Note_on_c, 9, 36, 0
1, 125760, Note_on_c, 9, 36, 106
1, 126000, Note_on_c, 9, 42, 84
1, 126011, Note_on_c, 9, 42, 0
1, 126119, Note_on_c, 9, 36, 0
1, 126120, Note_on_c, 9, 36, 106
1, 126239, Note_on_c, 9, 36, 0
1, 126240, Note_on_c, 9, 40, 102
1, 126479, Note_on_c, 9, 40, 0
1, 126480, Note_on_c, 9, 42, 84
1, 126491, Note_on_c, 9, 42, 0
1, 126600, Note_on_c, 9, 36, 106
1, 126719, Note_on_c, 9, 36, 0
1, 126720, Note_on_c, 9, 36, 106
1, 126960, Note_on_c, 9, 42, 84
1, 126971, Note_on_c, 9, 42, 0
1, 127079, Note_on_c, 9, 36, 0
1, 127080, Note_on_c, 9, 36, 106
1, 127199, Note_on_c, 9, 36, 0
1, 127200, Note_on_c, 9, 40, 102
1, 127439, Note_on_c, 9, 40, 0
1, 127440, Note_on_c, 9, 42, 84
1, 127451, Note_on_c, 9, 42, 0
1, 127560, Note_on_c, 9, 36, 106
1, 127679, Note_on_c, 9, 36, 0
1, 127680, Note_on_c, 9, 36, 106
1, 127920, Note_on_c, 9, 42, 84
1, 127931, Note_on_c, 9, 42, 0
1, 128039, Note_on_c, 9, 36, 0
1, 128040, Note_on_c, 9, 36, 106
1, 128159, Note_on_c, 9, 36, 0
1, 128160, Note_on_c, 9, 40, 102
1, 128399, Note_on_c, 9, 40, 0
1, 128400, Note_on_c, 9, 42, 84
1, 128411, Note_on_c, 9, 42, 0
1, 128520, Note_on_c, 9, 36, 106
1, 128639, Note_on_c, 9, 36, 0
1, 128640, Note_on_c, 9, 36, 106
1, 128880, Note_on_c, 9, 42, 84
1, 128891, Note_on_c, 9, 42, 0
1, 128999, Note_on_c, 9, 36, 0
1, 129000, Note_on_c, 9, 36, 106
1, 129119, Note_on_c, 9, 36, 0
1, 129120, Note_on_c, 9, 40, 102
1, 129359, Note_on_c, 9, 40, 0
1, 129360, Note_on_c, 9, 42, 84
1, 129371, Note_on_c, 9, 42, 0
1, 129480, Note_on_c, 9, 36, 106
1, 129599, Note_on_c, 9, 36, 0
1, 129600, Note_on_c, 9, 36, 106
1, 129840, Note_on_c, 9, 42, 84
1, 129851, Note_on_c, 9, 42, 0
1, 129959, Note_on_c, 9, 36, 0
1, 129960, Note_on_c, 9, 36, 106
1, 130079, Note_on_c, 9, 36, 0
1, 130080, Note_on_c, 9, 40, 102
1, 130319, Note_on_c, 9, 40, 0
1, 130320, Note_on_c, 9, 42, 84
1, 130331, Note_on_c, 9, 42, 0
1, 130440, Note_on_c, 9, 36, 106
1, 130559, Note_on_c, 9, 36, 0
1, 130560, Note_on_c, 9, 36, 106
1, 130800, Note_on_c, 9, 42, 84
1, 130811, Note_on_c, 9, 42, 0
1, 130919, Note_on_c, 9, 36, 0
1, 130920, Note_on_c, 9, 36, 106
1, 131039, Note_on_c, 9, 36, 0
1, 131040, Note_on_c, 9, 40, 102
1, 131279, Note_on_c, 9, 40, 0
1, 131280, Note_on_c, 9, 42, 84
1, 131291, Note_on_c, 9, 42, 0
1, 131400, Note_on_c, 9, 36, 106
1, 131519, Note_on_c, 9, 36, 0
1, 131520, Note_on_c, 9, 36, 106
1, 131760, Note_on_c, 9, 42, 84
1, 131771, Note_on_c, 9, 42, 0
1, 131879, Note_on_c, 9, 36, 0
1, 131880, Note_on_c, 9, 36, 106
1, 131999, Note_on_c, 9, 36, 0
1, 132000, Note_on_c, 9, 40, 102
1, 132239, Note_on_c, 9, 40, 0
1, 132240, Note_on_c, 9, 42, 84
1, 132251, Note_on_c, 9, 42, 0
1, 132360, Note_on_c, 9, 36, 106
1, 132479, Note_on_c, 9, 36, 0
1, 132480, Note_on_c, 9, 36, 106
1, 132720, Note_on_c, 9, 42, 84
1, 132731, Note_on_c, 9, 42, 0
1, 132839, Note_on_c, 9, 36, 0
1, 132840, Note_on_c, 9, 36, 106
1, 132959, Note_on_c, 9, 36, 0
1, 132960, Note_on_c, 9, 40, 102
1, 133199, Note_on_c, 9, 40, 0
1, 133200, Note_on_c, 9, 42, 84
1, 133211, Note_on_c, 9, 42, 0
1, 133320, Note_on_c, 9, 36, 106
1, 133439, Note_on_c, 9, 36, 0
1, 133440, Note_on_c, 9, 36, 106
1, 133680, Note_on_c, 9, 46, 86
1, 133691, Note_on_c, 9, 46, 0
1, 133799, Note_on_c, 9, 36, 0
1, 133800, Note_on_c, 9, 36, 106
1, 133919, Note_on_c, 9, 36, 0
1, 133920, Note_on_c, 9, 40, 102
1, 134159, Note_on_c, 9, 40, 0
1, 134160, Note_on_c, 9, 46, 86
1, 134171, Note_on_c, 9, 46, 0
1, 134280, Note_on_c, 9, 36, 106
1, 134399, Note_on_c, 9, 36, 0
1, 134400, Note_on_c, 9, 55, 95
1, 134400, Note_on_c, 9, 36, 106
1, 134411, Note_on_c, 9, 55, 0
1, 134640, Note_on_c, 9, 42, 84
1, 134651, Note_on_c, 9, 42, 0
1, 134759, Note_on_c, 9, 36, 0
1, 134760, Note_on_c, 9, 36, 106
1, 134879, Note_on_c, 9, 36, 0
1, 134880, Note_on_c, 9, 40, 102
1, 135119, Note_on_c, 9, 40, 0
1, 135120, Note_on_c, 9, 42, 84
1, 135131, Note_on_c, 9, 42, 0
1, 135240, Note_on_c, 9, 36, 106
1, 135359, Note_on_c, 9, 36, 0
1, 135360, Note_on_c, 9, 36, 106
1, 135600, Note_on_c, 9, 42, 84
1, 135611, Note_on_c, 9, 42, 0
1, 135719, Note_on_c, 9, 36, 0
1, 135720, Note_on_c, 9, 36, 106
1, 135839, Note_on_c, 9, 36, 0
1, 135840, Note_on_c, 9, 40, 102
1, 136079, Note_on_c, 9, 40, 0
1, 136080, Note_on_c, 9, 42, 84
1, 136091, Note_on_c, 9, 42, 0
1, 136200, Note_on_c, 9, 36, 106
1, 136319, Note_on_c, 9, 36, 0
1, 136320, Note_on_c, 9, 36, 106
1, 136560, Note_on_c, 9, 42, 84
1, 136571, Note_on_c, 9, 42, 0
1, 136679, Note_on_c, 9, 36, 0
1, 136680, Note_on_c, 9, 36, 106
1, 136799, Note_on_c, 9, 36, 0
1, 136800, Note_on_c, 9, 40, 102
1, 137039, Note_on_c, 9, 40, 0
1, 137040, Note_on_c, 9, 42, 84
1, 137051, Note_on_c, 9, 42, 0
1, 137160, Note_on_c, 9, 36, 106
1, 137279, Note_on_c, 9, 36, 0
1, 137280, Note_on_c, 9, 36, 106
1, 137520, Note_on_c, 9, 42, 84
1, 137531, Note_on_c, 9, 42, 0
1, 137639, Note_on_c, 9, 36, 0
1, 137640, Note_on_c, 9, 36, 106
1, 137759, Note_on_c, 9, 36, 0
1, 137760, Note_on_c, 9, 40, 102
1, 137999, Note_on_c, 9, 40, 0
1, 138000, Note_on_c, 9, 42, 84
1, 138011, Note_on_c, 9, 42, 0
1, 138120, Note_on_c, 9, 36, 106
1, 138239, Note_on_c, 9, 36, 0
1, 138240, Note_on_c, 9, 36, 106
1, 138480, Note_on_c, 9, 42, 84
1, 138491, Note_on_c, 9, 42, 0
1, 138599, Note_on_c, 9, 36, 0
1, 138600, Note_on_c, 9, 36, 106
1, 138719, Note_on_c, 9, 36, 0
1, 138720, Note_on_c, 9, 40, 102
1, 138959, Note_on_c, 9, 40, 0
1, 138960, Note_on_c, 9, 42, 84
1, 138971, Note_on_c, 9, 42, 0
1, 139080, Note_on_c, 9, 36, 106
1, 139199, Note_on_c, 9, 36, 0
1, 139200, Note_on_c, 9, 36, 106
1, 139440, Note_on_c, 9, 42, 84
1, 139451, Note_on_c, 9, 42, 0
1, 139559, Note_on_c, 9, 36, 0
1, 139560, Note_on_c, 9, 36, 106
1, 139679, Note_on_c, 9, 36, 0
1, 139680, Note_on_c, 9, 40, 102
1, 139919, Note_on_c, 9, 40, 0
1, 139920, Note_on_c, 9, 42, 84
1, 139931, Note_on_c, 9, 42, 0
1, 140040, Note_on_c, 9, 36, 106
1, 140159, Note_on_c, 9, 36, 0
1, 140160, Note_on_c, 9, 36, 106
1, 140400, Note_on_c, 9, 42, 84
1, 140411, Note_on_c, 9, 42, 0
1, 140519, Note_on_c, 9, 36, 0
1, 140520, Note_on_c, 9, 36, 106
1, 140639, Note_on_c, 9, 36, 0
1, 140640, Note_on_c, 9, 40, 102
1, 140879, Note_on_c, 9, 40, 0
1, 140880, Note_on_c, 9, 42, 84
1, 140891, Note_on_c, 9, 42, 0
1, 141000, Note_on_c, 9, 36, 106
1, 141119, Note_on_c, 9, 36, 0
1, 141120, Note_on_c, 9, 36, 106
1, 141360, Note_on_c, 9, 42, 84
1, 141371, Note_on_c, 9, 42, 0
1, 141479, Note_on_c, 9, 36, 0
1, 141480, Note_on_c, 9, 36, 106
1, 141599, Note_on_c, 9, 36, 0
1, 141600, Note_on_c, 9, 40, 102
1, 141839, Note_on_c, 9, 40, 0
1, 141840, Note_on_c, 9, 42, 84
1, 141851, Note_on_c, 9, 42, 0
1, 141960, Note_on_c, 9, 36, 106
1, 142079, Note_on_c, 9, 36, 0
1, 142080, Note_on_c, 9, 36, 106
1, 142320, Note_on_c, 9, 42, 84
1, 142331, Note_on_c, 9, 42, 0
1, 142439, Note_on_c, 9, 36, 0
1, 142440, Note_on_c, 9, 36, 106
1, 142559, Note_on_c, 9, 36, 0
1, 142560, Note_on_c, 9, 40, 102
1, 142799, Note_on_c, 9, 40, 0
1, 142800, Note_on_c, 9, 42, 84
1, 142811, Note_on_c, 9, 42, 0
1, 142920, Note_on_c, 9, 36, 106
1, 143039, Note_on_c, 9, 36, 0
1, 143040, Note_on_c, 9, 36, 106
1, 143280, Note_on_c, 9, 42, 84
1, 143291, Note_on_c, 9, 42, 0
1, 143399, Note_on_c, 9, 36, 0
1, 143400, Note_on_c, 9, 36, 106
1, 143519, Note_on_c, 9, 36, 0
1, 143520, Note_on_c, 9, 40, 102
1, 143759, Note_on_c, 9, 40, 0
1, 143760, Note_on_c, 9, 42, 84
1, 143771, Note_on_c, 9, 42, 0
1, 143880, Note_on_c, 9, 36, 106
1, 143999, Note_on_c, 9, 36, 0
1, 144000, Note_on_c, 9, 36, 106
1, 144240, Note_on_c, 9, 42, 84
1, 144251, Note_on_c, 9, 42, 0
1, 144359, Note_on_c, 9, 36, 0
1, 144360, Note_on_c, 9, 36, 106
1, 144479, Note_on_c, 9, 36, 0
1, 144480, Note_on_c, 9, 40, 102
1, 144719, Note_on_c, 9, 40, 0
1, 144720, Note_on_c, 9, 42, 84
1, 144731, Note_on_c, 9, 42, 0
1, 144840, Note_on_c, 9, 36, 106
1, 144959, Note_on_c, 9, 36, 0
1, 144960, Note_on_c, 9, 36, 106
1, 145200, Note_on_c, 9, 42, 84
1, 145211, Note_on_c, 9, 42, 0
1, 145319, Note_on_c, 9, 36, 0
1, 145320, Note_on_c, 9, 36, 106
1, 145439, Note_on_c, 9, 36, 0
1, 145440, Note_on_c, 9, 40, 102
1, 145679, Note_on_c, 9, 40, 0
1, 145680, Note_on_c, 9, 42, 84
1, 145691, Note_on_c, 9, 42, 0
1, 145800, Note_on_c, 9, 36, 106
1, 145919, Note_on_c, 9, 36, 0
1, 145920, Note_on_c, 9, 36, 106
1, 146160, Note_on_c, 9, 42, 84
1, 146171, Note_on_c, 9, 42, 0
1, 146279, Note_on_c, 9, 36, 0
1, 146280, Note_on_c, 9, 36, 106
1, 146399, Note_on_c, 9, 36, 0
1, 146400, Note_on_c, 9, 40, 102
1, 146639, Note_on_c, 9, 40, 0
1, 146640, Note_on_c, 9, 42, 84
1, 146651, Note_on_c, 9, 42, 0
1, 146760, Note_on_c, 9, 36, 106
1, 146879, Note_on_c, 9, 36, 0
1, 146880, Note_on_c, 9, 36, 106
1, 147120, Note_on_c, 9, 42, 84
1, 147131, Note_on_c, 9, 42, 0
1, 147239, Note_on_c, 9, 36, 0
1, 147240, Note_on_c, 9, 36, 106
1, 147359, Note_on_c, 9, 36, 0
1, 147360, Note_on_c, 9, 40, 102
1, 147599, Note_on_c, 9, 40, 0
1, 147600, Note_on_c, 9, 42, 84
1, 147611, Note_on_c, 9, 42, 0
1, 147720, Note_on_c, 9, 36, 106
1, 147839, Note_on_c, 9, 36, 0
1, 147840, Note_on_c, 9, 36, 106
1, 148080, Note_on_c, 9, 42, 84
1, 148091, Note_on_c, 9, 42, 0
1, 148199, Note_on_c, 9, 36, 0
1, 148200, Note_on_c, 9, 36, 106
1, 148319, Note_on_c, 9, 36, 0
1, 148320, Note_on_c, 9, 40, 102
1, 148559, Note_on_c, 9, 40, 0
1, 148560, Note_on_c, 9, 42, 84
1, 148571, Note_on_c, 9, 42, 0
1, 148680, Note_on_c, 9, 36, 106
1, 148799, Note_on_c, 9, 36, 0
1, 148800, Note_on_c, 9, 36, 106
1, 149040, Note_on_c, 9, 46, 86
1, 149048, Note_on_c, 9, 46, 0
1, 149250, Note_on_c, 9, 40, 102
1, 149279, Note_on_c, 9, 36, 0
1, 149279, Note_on_c, 9, 40, 0
1, 149280, Note_on_c, 9, 40, 102
1, 149519, Note_on_c, 9, 40, 0
1, 149520, Note_on_c, 9, 40, 102
1, 149639, Note_on_c, 9, 40, 0
1, 149640, Note_on_c, 9, 40, 102
1, 149759, Note_on_c, 9, 40, 0
1, 149760, Note_on_c, 9, 49, 82
1, 149760, Note_on_c, 9, 36, 106
1, 149771, Note_on_c, 9, 49, 0
1, 150000, Note_on_c, 9, 42, 84
1, 150011, Note_on_c, 9, 42, 0
1, 150119, Note_on_c, 9, 36, 0
1, 150120, Note_on_c, 9, 36, 106
1, 150239, Note_on_c, 9, 36, 0
1, 150240, Note_on_c, 9, 40, 102
1, 150479, Note_on_c, 9, 40, 0
1, 150480, Note_on_c, 9, 42, 84
1, 150491, Note_on_c, 9, 42, 0
1, 150600, Note_on_c, 9, 36, 106
1, 150719, Note_on_c, 9, 36, 0
1, 150720, Note_on_c, 9, 36, 106
1, 150960, Note_on_c, 9, 42, 84
1, 150971, Note_on_c, 9, 42, 0
1, 151079, Note_on_c, 9, 36, 0
1, 151080, Note_on_c, 9, 36, 106
1, 151199, Note_on_c, 9, 36, 0
1, 151200, Note_on_c, 9, 40, 102
1, 151439, Note_on_c, 9, 40, 0
1, 151440, Note_on_c, 9, 42, 84
1, 151451, Note_on_c, 9, 42, 0
1, 151560, Note_on_c, 9, 36, 106
1, 151679, Note_on_c, 9, 36, 0
1, 151680, Note_on_c, 9, 36, 106
1, 151920, Note_on_c, 9, 42, 84
1, 151931, Note_on_c, 9, 42, 0
1, 152039, Note_on_c, 9, 36, 0
1, 152040, Note_on_c, 9, 36, 106
1, 152159, Note_on_c, 9, 36, 0
1, 152160, Note_on_c, 9, 40, 102
1, 152399, Note_on_c, 9, 40, 0
1, 152400, Note_on_c, 9, 42, 84
1, 152411, Note_on_c, 9, 42, 0
1, 152520, Note_on_c, 9, 36, 106
1, 152639, Note_on_c, 9, 36, 0
1, 152640, Note_on_c, 9, 36, 106
1, 152880, Note_on_c, 9, 42, 84
1, 152891, Note_on_c, 9, 42, 0
1, 152999, Note_on_c, 9, 36, 0
1, 153000, Note_on_c, 9, 36, 106
1, 153119, Note_on_c, 9, 36, 0
1, 153120, Note_on_c, 9, 40, 102
1, 153359, Note_on_c, 9, 40, 0
1, 153360, Note_on_c, 9, 42, 84
1, 153371, Note_on_c, 9, 42, 0
1, 153480, Note_on_c, 9, 36, 106
1, 153599, Note_on_c, 9, 36, 0
1, 153600, Note_on_c, 9, 36, 106
1, 153840, Note_on_c, 9, 42, 84
1, 153851, Note_on_c, 9, 42, 0
1, 153959, Note_on_c, 9, 36, 0
1, 153960, Note_on_c, 9, 36, 106
1, 154079, Note_on_c, 9, 36, 0
1, 154080, Note_on_c, 9, 40, 102
1, 154319, Note_on_c, 9, 40, 0
1, 154320, Note_on_c, 9, 42, 84
1, 154331, Note_on_c, 9, 42, 0
1, 154440, Note_on_c, 9, 36, 106
1, 154559, Note_on_c, 9, 36, 0
1, 154560, Note_on_c, 9, 36, 106
1, 154800, Note_on_c, 9, 42, 84
1, 154811, Note_on_c, 9, 42, 0
1, 154919, Note_on_c, 9, 36, 0
1, 154920, Note_on_c, 9, 36, 106
1, 155039, Note_on_c, 9, 36, 0
1, 155040, Note_on_c, 9, 40, 102
1, 155279, Note_on_c, 9, 40, 0
1, 155280, Note_on_c, 9, 42, 84
1, 155291, Note_on_c, 9, 42, 0
1, 155400, Note_on_c, 9, 36, 106
1, 155519, Note_on_c, 9, 36, 0
1, 155520, Note_on_c, 9, 36, 106
1, 155760, Note_on_c, 9, 42, 84
1, 155771, Note_on_c, 9, 42, 0
1, 155879, Note_on_c, 9, 36, 0
1, 155880, Note_on_c, 9, 36, 106
1, 155999, Note_on_c, 9, 36, 0
1, 156000, Note_on_c, 9, 40, 102
1, 156239, Note_on_c, 9, 40, 0
1, 156240, Note_on_c, 9, 42, 84
1, 156251, Note_on_c, 9, 42, 0
1, 156360, Note_on_c, 9, 36, 106
1, 156479, Note_on_c, 9, 36, 0
1, 156480, Note_on_c, 9, 36, 106
1, 156720, Note_on_c, 9, 46, 86
1, 156728, Note_on_c, 9, 46, 0
1, 156930, Note_on_c, 9, 40, 102
1, 156959, Note_on_c, 9, 36, 0
1, 156959, Note_on_c, 9, 40, 0
1, 156960, Note_on_c, 9, 40, 102
1, 157199, Note_on_c, 9, 40, 0
1, 157200, Note_on_c, 9, 40, 102
1, 157319, Note_on_c, 9, 40, 0
1, 157320, Note_on_c, 9, 40, 102
1, 157439, Note_on_c, 9, 40, 0
1, 157440, Note_on_c, 9, 41, 98
1, 157440, Note_on_c, 9, 49, 82
1, 157440, Note_on_c, 9, 36, 106
1, 157464, Note_on_c, 9, 49, 0
1, 157919, Note_on_c, 9, 41, 0
1, 157919, Note_on_c, 9, 36, 0
1, 158400, Note_on_c, 9, 41, 98
1, 158400, Note_on_c, 9, 57, 80
1, 158400, Note_on_c, 9, 36, 106
1, 158424, Note_on_c, 9, 57, 0
1, 158879, Note_on_c, 9, 41, 0
1, 158879, Note_on_c, 9, 36, 0
1, 159360, Note_on_c, 9, 41, 98
1, 159360, Note_on_c, 9, 49, 82
1, 159360, Note_on_c, 9, 36, 106
1, 159371, Note_on_c, 9, 49, 0
1, 159599, Note_on_c, 9, 41, 0
1, 159600, Note_on_c, 9, 40, 57
1, 159659, Note_on_c, 9, 40, 0
1, 159660, Note_on_c, 9, 40, 57
1, 159719, Note_on_c, 9, 40, 0
1, 159720, Note_on_c, 9, 40, 102
1, 159839, Note_on_c, 9, 36, 0
1, 159839, Note_on_c, 9, 40, 0
1, 159840, Note_on_c, 9, 40, 102
1, 160079, Note_on_c, 9, 40, 0
1, 160080, Note_on_c, 9, 40, 57
1, 160139, Note_on_c, 9, 40, 0
1, 160140, Note_on_c, 9, 40, 57
1, 160199, Note_on_c, 9, 40, 0
1, 160200, Note_on_c, 9, 40, 102
1, 160319, Note_on_c, 9, 40, 0
1, 160320, Note_on_c, 9, 40, 102
1, 160559, Note_on_c, 9, 40, 0
1, 160560, Note_on_c, 9, 40, 57
1, 160619, Note_on_c, 9, 40, 0
1, 160620, Note_on_c, 9, 40, 57
1, 160679, Note_on_c, 9, 40, 0
1, 160680, Note_on_c, 9, 40, 102
1, 160799, Note_on_c, 9, 40, 0
1, 160800, Note_on_c, 9, 40, 102
1, 161039, Note_on_c, 9, 40, 0
1, 161040, Note_on_c, 9, 40, 57
1, 161099, Note_on_c, 9, 40, 0
1, 161100, Note_on_c, 9, 40, 57
1, 161159, Note_on_c, 9, 40, 0
1, 161160, Note_on_c, 9, 40, 102
1, 161279, Note_on_c, 9, 40, 0
1, 161280, Note_on_c, 9, 41, 98
1, 161280, Note_on_c, 9, 49, 82
1, 161280, Note_on_c, 9, 36, 106
1, 161304, Note_on_c, 9, 49, 0
1, 161759, Note_on_c, 9, 41, 0
1, 161759, Note_on_c, 9, 36, 0
1, 162240, Note_on_c, 9, 41, 98
1, 162240, Note_on_c, 9, 57, 80
1, 162240, Note_on_c, 9, 36, 106
1, 162264, Note_on_c, 9, 57, 0
1, 162719, Note_on_c, 9, 41, 0
1, 162719, Note_on_c, 9, 36, 0
1, 163200, Note_on_c, 9, 41, 98
1, 163200, Note_on_c, 9, 49, 82
1, 163200, Note_on_c, 9, 36, 106
1, 163224, Note_on_c, 9, 49, 0
1, 163679, Note_on_c, 9, 41, 0
1, 163679, Note_on_c, 9, 36, 0
1, 163680, Note_on_c, 9, 47, 101
1, 163759, Note_on_c, 9, 47, 0
1, 163760, Note_on_c, 9, 40, 57
1, 163839, Note_on_c, 9, 40, 0
1, 163840, Note_on_c, 9, 40, 57
1, 163919, Note_on_c, 9, 40, 0
1, 163920, Note_on_c, 9, 40, 102
1, 163999, Note_on_c, 9, 40, 0
1, 164000, Note_on_c, 9, 40, 102
1, 164079, Note_on_c, 9, 40, 0
1, 164080, Note_on_c, 9, 40, 102
1, 164159, Note_on_c, 9, 40, 0
1, 164160, Note_on_c, 9, 45, 95
1, 164239, Note_on_c, 9, 45, 0
1, 164240, Note_on_c, 9, 40, 57
1, 164319, Note_on_c, 9, 40, 0
1, 164320, Note_on_c, 9, 40, 57
1, 164399, Note_on_c, 9, 40, 0
1, 164400, Note_on_c, 9, 40, 102
1, 164479, Note_on_c, 9, 40, 0
1, 164480, Note_on_c, 9, 40, 102
1, 164559, Note_on_c, 9, 40, 0
1, 164560, Note_on_c, 9, 40, 102
1, 164639, Note_on_c, 9, 40, 0
1, 164640, Note_on_c, 9, 47, 101
1, 164719, Note_on_c, 9, 47, 0
1, 164720, Note_on_c, 9, 40, 57
1, 164799, Note_on_c, 9, 40, 0
1, 164800, Note_on_c, 9, 40, 57
1, 164879, Note_on_c, 9, 40, 0
1, 164880, Note_on_c, 9, 40, 102
1, 164959, Note_on_c, 9, 40, 0
1, 164960, Note_on_c, 9, 40, 102
1, 165039, Note_on_c, 9, 40, 0
1, 165040, Note_on_c, 9, 40, 102
1, 165119, Note_on_c, 9, 40, 0
1, 165120, Note_on_c, 9, 41, 98
1, 165120, Note_on_c, 9, 49, 82
1, 165120, Note_on_c, 9, 36, 106
1, 165144, Note_on_c, 9, 49, 0
1, 165599, Note_on_c, 9, 41, 0
1, 165599, Note_on_c, 9, 36, 0
1, 166080, Note_on_c, 9, 41, 98
1, 166080, Note_on_c, 9, 57, 80
1, 166080, Note_on_c, 9, 36, 106
1, 166104, Note_on_c, 9, 57, 0
1, 166559, Note_on_c, 9, 41, 0
1, 166559, Note_on_c, 9, 36, 0
1, 167040, Note_on_c, 9, 41, 98
1, 167040, Note_on_c, 9, 49, 82
1, 167040, Note_on_c, 9, 36, 106
1, 167051, Note_on_c, 9, 49, 0
1, 167279, Note_on_c, 9, 41, 0
1, 167360, Note_on_c, 9, 40, 57
1, 167399, Note_on_c, 9, 40, 0
1, 167400, Note_on_c, 9, 40, 57
1, 167439, Note_on_c, 9, 40, 0
1, 167440, Note_on_c, 9, 40, 102
1, 167519, Note_on_c, 9, 36, 0
1, 167519, Note_on_c, 9, 40, 0
1, 167520, Note_on_c, 9, 40, 102
1, 167679, Note_on_c, 9, 40, 0
1, 167680, Note_on_c, 9, 40, 102
1, 167839, Note_on_c, 9, 40, 0
1, 167840, Note_on_c, 9, 40, 102
1, 167999, Note_on_c, 9, 40, 0
1, 168000, Note_on_c, 9, 45, 95
1, 168159, Note_on_c, 9, 45, 0
1, 168160, Note_on_c, 9, 45, 95
1, 168319, Note_on_c, 9, 45, 0
1, 168320, Note_on_c, 9, 40, 102
1, 168479, Note_on_c, 9, 40, 0
1, 168480, Note_on_c, 9, 41, 98
1, 168639, Note_on_c, 9, 41, 0
1, 168640, Note_on_c, 9, 41, 98
1, 168799, Note_on_c, 9, 41, 0
1, 168800, Note_on_c, 9, 41, 98
1, 168959, Note_on_c, 9, 41, 0
1, 168960, Note_on_c, 9, 41, 98
1, 168960, Note_on_c, 9, 49, 82
1, 168960, Note_on_c, 9, 36, 106
1, 168984, Note_on_c, 9, 49, 0
1, 169439, Note_on_c, 9, 41, 0
1, 169439, Note_on_c, 9, 36, 0
1, 169920, Note_on_c, 9, 41, 98
1, 169920, Note_on_c, 9, 57, 80
1, 169920, Note_on_c, 9, 36, 106
1, 169944, Note_on_c, 9, 57, 0
1, 170399, Note_on_c, 9, 41, 0
1, 170399, Note_on_c, 9, 36, 0
1, 170880, Note_on_c, 9, 41, 98
1, 170880, Note_on_c, 9, 49, 82
1, 170880, Note_on_c, 9, 36, 106
1, 170891, Note_on_c, 9, 49, 0
1, 171119, Note_on_c, 9, 41, 0
1, 171120, Note_on_c, 9, 47, 101
1, 171359, Note_on_c, 9, 36, 0
1, 171359, Note_on_c, 9, 47, 0
1, 171360, Note_on_c, 9, 47, 101
1, 171479, Note_on_c, 9, 47, 0
1, 171480, Note_on_c, 9, 40, 57
1, 171539, Note_on_c, 9, 40, 0
1, 171540, Note_on_c, 9, 40, 57
1, 171599, Note_on_c, 9, 40, 0
1, 171660, Note_on_c, 9, 40, 102
1, 171719, Note_on_c, 9, 40, 0
1, 171720, Note_on_c, 9, 40, 102
1, 171779, Note_on_c, 9, 40, 0
1, 171780, Note_on_c, 9, 40, 102
1, 171839, Note_on_c, 9, 40, 0
1, 171900, Note_on_c, 9, 40, 102
1, 171959, Note_on_c, 9, 40, 0
1, 171960, Note_on_c, 9, 47, 101
1, 172199, Note_on_c, 9, 47, 0
1, 172200, Note_on_c, 9, 45, 95
1, 172319, Note_on_c, 9, 45, 0
1, 172320, Note_on_c, 9, 45, 95
1, 172439, Note_on_c, 9, 45, 0
1, 172440, Note_on_c, 9, 45, 95
1, 172559, Note_on_c, 9, 45, 0
1, 172560, Note_on_c, 9, 41, 98
1, 172679, Note_on_c, 9, 41, 0
1, 172680, Note_on_c, 9, 41, 98
1, 172799, Note_on_c, 9, 41, 0
1, 172800, Note_on_c, 9, 57, 80
1, 172800, Note_on_c, 9, 36, 106
1, 172811, Note_on_c, 9, 57, 0
1, 173040, Note_on_c, 9, 41, 98
1, 173159, Note_on_c, 9, 41, 0
1, 173160, Note_on_c, 9, 41, 98
1, 173279, Note_on_c, 9, 36, 0
1, 173279, Note_on_c, 9, 41, 0
1, 173280, Note_on_c, 9, 41, 98
1, 173519, Note_on_c, 9, 41, 0
1, 173520, Note_on_c, 9, 41, 98
1, 173639, Note_on_c, 9, 41, 0
1, 173640, Note_on_c, 9, 41, 98
1, 173759, Note_on_c, 9, 41, 0
1, 173760, Note_on_c, 9, 57, 80
1, 173760, Note_on_c, 9, 36, 106
1, 173771, Note_on_c, 9, 57, 0
1, 174000, Note_on_c, 9, 41, 98
1, 174119, Note_on_c, 9, 41, 0
1, 174120, Note_on_c, 9, 41, 98
1, 174239, Note_on_c, 9, 36, 0
1, 174239, Note_on_c, 9, 41, 0
1, 174240, Note_on_c, 9, 41, 98
1, 174479, Note_on_c, 9, 41, 0
1, 174480, Note_on_c, 9, 41, 98
1, 174599, Note_on_c, 9, 41, 0
1, 174600, Note_on_c, 9, 41, 98
1, 174719, Note_on_c, 9, 41, 0
1, 174720, Note_on_c, 9, 57, 80
1, 174720, Note_on_c, 9, 36, 106
1, 174731, Note_on_c, 9, 57, 0
1, 174960, Note_on_c, 9, 41, 98
1, 175079, Note_on_c, 9, 41, 0
1, 175080, Note_on_c, 9, 41, 98
1, 175199, Note_on_c, 9, 36, 0
1, 175199, Note_on_c, 9, 41, 0
1, 175200, Note_on_c, 9, 41, 98
1, 175439, Note_on_c, 9, 41, 0
1, 175440, Note_on_c, 9, 41, 98
1, 175559, Note_on_c, 9, 41, 0
1, 175560, Note_on_c, 9, 41, 98
1, 175679, Note_on_c, 9, 41, 0
1, 175680, Note_on_c, 9, 41, 98
1, 175919, Note_on_c, 9, 41, 0
1, 175920, Note_on_c, 9, 41, 98
1, 176039, Note_on_c, 9, 41, 0
1, 176040, Note_on_c, 9, 41, 98
1, 176159, Note_on_c, 9, 41, 0
1, 176160, Note_on_c, 9, 41, 98
1, 176399, Note_on_c, 9, 41, 0
1, 176400, Note_on_c, 9, 41, 98
1, 176519, Note_on_c, 9, 41, 0
1, 176520, Note_on_c, 9, 41, 98
1, 176639, Note_on_c, 9, 41, 0
1, 176640, Note_on_c, 9, 57, 80
1, 176640, Note_on_c, 9, 36, 106
1, 176651, Note_on_c, 9, 57, 0
1, 176880, Note_on_c, 9, 41, 98
1, 176999, Note_on_c, 9, 41, 0
1, 177000, Note_on_c, 9, 41, 98
1, 177119, Note_on_c, 9, 36, 0
1, 177119, Note_on_c, 9, 41, 0
1, 177120, Note_on_c, 9, 41, 98
1, 177359, Note_on_c, 9, 41, 0
1, 177360, Note_on_c, 9, 41, 98
1, 177479, Note_on_c, 9, 41, 0
1, 177480, Note_on_c, 9, 41, 98
1, 177599, Note_on_c, 9, 41, 0
1, 177600, Note_on_c, 9, 57, 80
1, 177600, Note_on_c, 9, 36, 106
1, 177611, Note_on_c, 9, 57, 0
1, 177840, Note_on_c, 9, 41, 98
1, 177959, Note_on_c, 9, 41, 0
1, 177960, Note_on_c, 9, 41, 98
1, 178079, Note_on_c, 9, 36, 0
1, 178079, Note_on_c, 9, 41, 0
1, 178080, Note_on_c, 9, 41, 98
1, 178319, Note_on_c, 9, 41, 0
1, 178320, Note_on_c, 9, 41, 98
1, 178439, Note_on_c, 9, 41, 0
1, 178440, Note_on_c, 9, 41, 98
1, 178559, Note_on_c, 9, 41, 0
1, 178560, Note_on_c, 9, 57, 80
1, 178560, Note_on_c, 9, 36, 106
1, 178571, Note_on_c, 9, 57, 0
1, 178800, Note_on_c, 9, 41, 98
1, 178919, Note_on_c, 9, 41, 0
1, 178920, Note_on_c, 9, 41, 98
1, 179039, Note_on_c, 9, 36, 0
1, 179039, Note_on_c, 9, 41, 0
1, 179040, Note_on_c, 9, 41, 98
1, 179279, Note_on_c, 9, 41, 0
1, 179280, Note_on_c, 9, 41, 98
1, 179399, Note_on_c, 9, 41, 0
1, 179400, Note_on_c, 9, 41, 98
1, 179519, Note_on_c, 9, 41, 0
1, 179520, Note_on_c, 9, 47, 101
1, 179759, Note_on_c, 9, 47, 0
1, 179760, Note_on_c, 9, 41, 98
1, 179879, Note_on_c, 9, 41, 0
1, 179880, Note_on_c, 9, 41, 98
1, 179999, Note_on_c, 9, 41, 0
1, 180000, Note_on_c, 9, 41, 98
1, 180119, Note_on_c, 9, 41, 0
1, 180120, Note_on_c, 9, 41, 98
1, 180239, Note_on_c, 9, 41, 0
1, 180240, Note_on_c, 9, 45, 95
1, 180359, Note_on_c, 9, 45, 0
1, 180360, Note_on_c, 9, 45, 95
1, 180479, Note_on_c, 9, 45, 0
1, 180480, Note_on_c, 9, 57, 80
1, 180480, Note_on_c, 9, 36, 106
1, 180491, Note_on_c, 9, 57, 0
1, 180720, Note_on_c, 9, 41, 98
1, 180839, Note_on_c, 9, 41, 0
1, 180840, Note_on_c, 9, 41, 98
1, 180959, Note_on_c, 9, 36, 0
1, 180959, Note_on_c, 9, 41, 0
1, 180960, Note_on_c, 9, 41, 98
1, 181199, Note_on_c, 9, 41, 0
1, 181200, Note_on_c, 9, 41, 98
1, 181319, Note_on_c, 9, 41, 0
1, 181320, Note_on_c, 9, 41, 98
1, 181439, Note_on_c, 9, 41, 0
1, 181440, Note_on_c, 9, 57, 80
1, 181440, Note_on_c, 9, 36, 106
1, 181451, Note_on_c, 9, 57, 0
1, 181680, Note_on_c, 9, 41, 98
1, 181799, Note_on_c, 9, 41, 0
1, 181800, Note_on_c, 9, 41, 98
1, 181919, Note_on_c, 9, 36, 0
1, 181919, Note_on_c, 9, 41, 0
1, 181920, Note_on_c, 9, 41, 98
1, 182159, Note_on_c, 9, 41, 0
1, 182160, Note_on_c, 9, 41, 98
1, 182279, Note_on_c, 9, 41, 0
1, 182280, Note_on_c, 9, 41, 98
1, 182399, Note_on_c, 9, 41, 0
1, 182400, Note_on_c, 9, 57, 80
1, 182400, Note_on_c, 9, 36, 106
1, 182411, Note_on_c, 9, 57, 0
1, 182640, Note_on_c, 9, 41, 98
1, 182759, Note_on_c, 9, 41, 0
1, 182760, Note_on_c, 9, 41, 98
1, 182879, Note_on_c, 9, 36, 0
1, 182879, Note_on_c, 9, 41, 0
1, 182880, Note_on_c, 9, 45, 95
1, 183119, Note_on_c, 9, 45, 0
1, 183120, Note_on_c, 9, 45, 95
1, 183239, Note_on_c, 9, 45, 0
1, 183240, Note_on_c, 9, 45, 95
1, 183359, Note_on_c, 9, 45, 0
1, 183360, Note_on_c, 9, 47, 101
1, 183479, Note_on_c, 9, 47, 0
1, 183480, Note_on_c, 9, 47, 101
1, 183599, Note_on_c, 9, 47, 0
1, 183600, Note_on_c, 9, 47, 101
1, 183719, Note_on_c, 9, 47, 0
1, 183720, Note_on_c, 9, 45, 95
1, 183839, Note_on_c, 9, 45, 0
1, 183840, Note_on_c, 9, 45, 95
1, 183959, Note_on_c, 9, 45, 0
1, 183960, Note_on_c, 9, 45, 95
1, 184079, Note_on_c, 9, 45, 0
1, 184080, Note_on_c, 9, 41, 98
1, 184199, Note_on_c, 9, 41, 0
1, 184200, Note_on_c, 9, 41, 98
1, 184319, Note_on_c, 9, 41, 0
1, 184320, Note_on_c, 9, 57, 80
1, 184320, Note_on_c, 9, 36, 106
1, 184331, Note_on_c, 9, 57, 0
1, 184560, Note_on_c, 9, 41, 98
1, 184679, Note_on_c, 9, 41, 0
1, 184680, Note_on_c, 9, 41, 98
1, 184799, Note_on_c, 9, 36, 0
1, 184799, Note_on_c, 9, 41, 0
1, 184800, Note_on_c, 9, 41, 98
1, 185039, Note_on_c, 9, 41, 0
1, 185040, Note_on_c, 9, 41, 98
1, 185159, Note_on_c, 9, 41, 0
1, 185160, Note_on_c, 9, 41, 98
1, 185279, Note_on_c, 9, 41, 0
1, 185280, Note_on_c, 9, 57, 80
1, 185280, Note_on_c, 9, 36, 106
1, 185291, Note_on_c, 9, 57, 0
1, 185520, Note_on_c, 9, 41, 98
1, 185639, Note_on_c, 9, 41, 0
1, 185640, Note_on_c, 9, 41, 98
1, 185759, Note_on_c, 9, 36, 0
1, 185759, Note_on_c, 9, 41, 0
1, 185760, Note_on_c, 9, 41, 98
1, 185999, Note_on_c, 9, 41, 0
1, 186000, Note_on_c, 9, 41, 98
1, 186119, Note_on_c, 9, 41, 0
1, 186120, Note_on_c, 9, 41, 98
1, 186239, Note_on_c, 9, 41, 0
1, 186240, Note_on_c, 9, 57, 80
1, 186240, Note_on_c, 9, 36, 106
1, 186251, Note_on_c, 9, 57, 0
1, 186480, Note_on_c, 9, 41, 98
1, 186599, Note_on_c, 9, 41, 0
1, 186600, Note_on_c, 9, 41, 98
1, 186719, Note_on_c, 9, 36, 0
1, 186719, Note_on_c, 9, 41, 0
1, 186720, Note_on_c, 9, 41, 98
1, 186959, Note_on_c, 9, 41, 0
1, 186960, Note_on_c, 9, 41, 98
1, 187079, Note_on_c, 9, 41, 0
1, 187080, Note_on_c, 9, 41, 98
1, 187199, Note_on_c, 9, 41, 0
1, 187200, Note_on_c, 9, 41, 98
1, 187439, Note_on_c, 9, 41, 0
1, 187440, Note_on_c, 9, 41, 98
1, 187559, Note_on_c, 9, 41, 0
1, 187560, Note_on_c, 9, 41, 98
1, 187679, Note_on_c, 9, 41, 0
1, 187680, Note_on_c, 9, 41, 98
1, 187919, Note_on_c, 9, 41, 0
1, 187920, Note_on_c, 9, 41, 98
1, 188039, Note_on_c, 9, 41, 0
1, 188040, Note_on_c, 9, 41, 98
1, 188099, Note_on_c, 9, 41, 0
1, 188130, Note_on_c, 9, 40, 102
1, 188159, Note_on_c, 9, 40, 0
1, 188160, Note_on_c, 9, 40, 102
1, 188639, Note_on_c, 9, 40, 0
1, 190080, Note_on_c, 9, 49, 82
1, 190080, Note_on_c, 9, 36, 106
1, 190104, Note_on_c, 9, 49, 0
1, 190559, Note_on_c, 9, 36, 0
1, 190560, Note_on_c, 9, 36, 106
1, 191039, Note_on_c, 9, 36, 0
1, 191040, Note_on_c, 9, 36, 106
1, 191519, Note_on_c, 9, 36, 0
1, 191520, Note_on_c, 9, 36, 106
1, 191999, Note_on_c, 9, 36, 0
1, 192000, Note_on_c, 9, 36, 106
1, 192479, Note_on_c, 9, 36, 0
1, 192480, Note_on_c, 9, 36, 106
1, 192959, Note_on_c, 9, 36, 0
1, 192960, Note_on_c, 9, 36, 106
1, 193439, Note_on_c, 9, 36, 0
1, 193440, Note_on_c, 9, 36, 106
1, 193919, Note_on_c, 9, 36, 0
1, 193920, Note_on_c, 9, 36, 106
1, 194240, Note_on_c, 9, 42, 52
1, 194247, Note_on_c, 9, 42, 0
1, 194399, Note_on_c, 9, 36, 0
1, 194400, Note_on_c, 9, 42, 52
1, 194400, Note_on_c, 9, 36, 106
1, 194407, Note_on_c, 9, 42, 0
1, 194560, Note_on_c, 9, 42, 52
1, 194567, Note_on_c, 9, 42, 0
1, 194720, Note_on_c, 9, 42, 52
1, 194727, Note_on_c, 9, 42, 0
1, 194879, Note_on_c, 9, 36, 0
1, 194880, Note_on_c, 9, 42, 52
1, 194880, Note_on_c, 9, 36, 106
1, 194887, Note_on_c, 9, 42, 0
1, 195040, Note_on_c, 9, 42, 52
1, 195047, Note_on_c, 9, 42, 0
1, 195200, Note_on_c, 9, 42, 52
1, 195207, Note_on_c, 9, 42, 0
1, 195359, Note_on_c, 9, 36, 0
1, 195360, Note_on_c, 9, 42, 52
1, 195360, Note_on_c, 9, 36, 106
1, 195367, Note_on_c, 9, 42, 0
1, 195520, Note_on_c, 9, 42, 52
1, 195527, Note_on_c, 9, 42, 0
1, 195680, Note_on_c, 9, 42, 84
1, 195687, Note_on_c, 9, 42, 0
1, 195839, Note_on_c, 9, 36, 0
1, 195840, Note_on_c, 9, 42, 84
1, 195840, Note_on_c, 9, 36, 106
1, 195847, Note_on_c, 9, 42, 0
1, 196000, Note_on_c, 9, 42, 84
1, 196007, Note_on_c, 9, 42, 0
1, 196160, Note_on_c, 9, 42, 84
1, 196167, Note_on_c, 9, 42, 0
1, 196319, Note_on_c, 9, 36, 0
1, 196320, Note_on_c, 9, 46, 86
1, 196320, Note_on_c, 9, 36, 106
1, 196327, Note_on_c, 9, 46, 0
1, 196480, Note_on_c, 9, 46, 86
1, 196487, Note_on_c, 9, 46, 0
1, 196640, Note_on_c, 9, 46, 86
1, 196647, Note_on_c, 9, 46, 0
1, 196799, Note_on_c, 9, 36, 0
1, 196800, Note_on_c, 9, 46, 86
1, 196800, Note_on_c, 9, 36, 106
1, 196807, Note_on_c, 9, 46, 0
1, 196960, Note_on_c, 9, 46, 86
1, 196967, Note_on_c, 9, 46, 0
1, 197120, Note_on_c, 9, 46, 86
1, 197127, Note_on_c, 9, 46, 0
1, 197279, Note_on_c, 9, 36, 0
1, 197280, Note_on_c, 9, 46, 86
1, 197280, Note_on_c, 9, 36, 106
1, 197287, Note_on_c, 9, 46, 0
1, 197440, Note_on_c, 9, 46, 86
1, 197447, Note_on_c, 9, 46, 0
1, 197600, Note_on_c, 9, 46, 86
1, 197607, Note_on_c, 9, 46, 0
1, 197759, Note_on_c, 9, 36, 0
1, 197760, Note_on_c, 9, 44, 95
1, 197760, Note_on_c, 9, 36, 106
1, 197784, Note_on_c, 9, 44, 0
1, 198239, Note_on_c, 9, 36, 0
1, 228480, Note_on_c, 9, 40, 102
1, 228639, Note_on_c, 9, 40, 0
1, 228640, Note_on_c, 9, 40, 102
1, 228799, Note_on_c, 9, 40, 0
1, 228800, Note_on_c, 9, 40, 102
1, 228959, Note_on_c, 9, 40, 0
1, 228960, Note_on_c, 9, 40, 102
1, 229119, Note_on_c, 9, 40, 0
1, 229120, Note_on_c, 9, 40, 102
1, 229279, Note_on_c, 9, 40, 0
1, 229280, Note_on_c, 9, 40, 102
1, 229439, Note_on_c, 9, 40, 0
1, 229440, Note_on_c, 9, 40, 102
1, 229599, Note_on_c, 9, 40, 0
1, 229600, Note_on_c, 9, 40, 102
1, 229759, Note_on_c, 9, 40, 0
1, 229760, Note_on_c, 9, 40, 102
1, 229919, Note_on_c, 9, 40, 0
1, 229920, Note_on_c, 9, 40, 102
1, 230079, Note_on_c, 9, 40, 0
1, 230080, Note_on_c, 9, 40, 102
1, 230239, Note_on_c, 9, 40, 0
1, 230240, Note_on_c, 9, 40, 102
1, 230399, Note_on_c, 9, 40, 0
1, 230400, Note_on_c, 9, 40, 102
1, 230559, Note_on_c, 9, 40, 0
1, 230560, Note_on_c, 9, 40, 102
1, 230719, Note_on_c, 9, 40, 0
1, 230720, Note_on_c, 9, 40, 102
1, 230879, Note_on_c, 9, 40, 0
1, 230880, Note_on_c, 9, 40, 102
1, 231039, Note_on_c, 9, 40, 0
1, 231040, Note_on_c, 9, 40, 102
1, 231199, Note_on_c, 9, 40, 0
1, 231200, Note_on_c, 9, 40, 102
1, 231359, Note_on_c, 9, 40, 0
1, 231360, Note_on_c, 9, 40, 102
1, 231519, Note_on_c, 9, 40, 0
1, 231520, Note_on_c, 9, 40, 102
1, 231679, Note_on_c, 9, 40, 0
1, 231680, Note_on_c, 9, 40, 102
1, 231839, Note_on_c, 9, 40, 0
1, 231840, Note_on_c, 9, 40, 102
1, 231999, Note_on_c, 9, 40, 0
1, 232000, Note_on_c, 9, 40, 102
1, 232159, Note_on_c, 9, 40, 0
1, 232160, Note_on_c, 9, 40, 102
1, 232319, Note_on_c, 9, 40, 0
1, 232320, Note_on_c, 9, 40, 102
1, 232479, Note_on_c, 9, 40, 0
1, 232480, Note_on_c, 9, 40, 102
1, 232639, Note_on_c, 9, 40, 0
1, 232640, Note_on_c, 9, 40, 102
1, 232799, Note_on_c, 9, 40, 0
1, 232800, Note_on_c, 9, 40, 102
1, 232959, Note_on_c, 9, 40, 0
1, 232960, Note_on_c, 9, 40, 102
1, 233119, Note_on_c, 9, 40, 0
1, 233120, Note_on_c, 9, 40, 102
1, 233279, Note_on_c, 9, 40, 0
1, 233280, Note_on_c, 9, 40, 102
1, 233439, Note_on_c, 9, 40, 0
1, 233440, Note_on_c, 9, 40, 102
1, 233599, Note_on_c, 9, 40, 0
1, 233600, Note_on_c, 9, 40, 102
1, 233759, Note_on_c, 9, 40, 0
1, 233760, Note_on_c, 9, 40, 102
1, 233919, Note_on_c, 9, 40, 0
1, 233920, Note_on_c, 9, 40, 102
1, 234079, Note_on_c, 9, 40, 0
1, 234080, Note_on_c, 9, 40, 102
1, 234239, Note_on_c, 9, 40, 0
1, 234240, Note_on_c, 9, 40, 102
1, 234399, Note_on_c, 9, 40, 0
1, 234400, Note_on_c, 9, 40, 102
1, 234559, Note_on_c, 9, 40, 0
1, 234560, Note_on_c, 9, 40, 102
1, 234719, Note_on_c, 9, 40, 0
1, 234720, Note_on_c, 9, 40, 102
1, 234879, Note_on_c, 9, 40, 0
1, 234880, Note_on_c, 9, 40, 102
1, 235039, Note_on_c, 9, 40, 0
1, 235040, Note_on_c, 9, 40, 102
1, 235199, Note_on_c, 9, 40, 0
1, 235200, Note_on_c, 9, 40, 102
1, 235359, Note_on_c, 9, 40, 0
1, 235360, Note_on_c, 9, 40, 102
1, 235519, Note_on_c, 9, 40, 0
1, 235520, Note_on_c, 9, 40, 102
1, 235679, Note_on_c, 9, 40, 0
1, 235680, Note_on_c, 9, 40, 102
1, 235839, Note_on_c, 9, 40, 0
1, 235840, Note_on_c, 9, 40, 102
1, 235999, Note_on_c, 9, 40, 0
1, 236000, Note_on_c, 9, 40, 102
1, 236159, Note_on_c, 9, 40, 0
1, 236160, Note_on_c, 9, 40, 102
1, 236319, Note_on_c, 9, 40, 0
1, 236320, Note_on_c, 9, 40, 102
1, 236479, Note_on_c, 9, 40, 0
1, 236480, Note_on_c, 9, 40, 102
1, 236639, Note_on_c, 9, 40, 0
1, 236640, Note_on_c, 9, 40, 102
1, 236799, Note_on_c, 9, 40, 0
1, 236800, Note_on_c, 9, 40, 102
1, 236959, Note_on_c, 9, 40, 0
1, 236960, Note_on_c, 9, 40, 102
1, 237119, Note_on_c, 9, 40, 0
1, 237120, Note_on_c, 9, 40, 102
1, 237279, Note_on_c, 9, 40, 0
1, 237280, Note_on_c, 9, 40, 102
1, 237439, Note_on_c, 9, 40, 0
1, 237440, Note_on_c, 9, 40, 102
1, 237599, Note_on_c, 9, 40, 0
1, 237600, Note_on_c, 9, 40, 102
1, 237759, Note_on_c, 9, 40, 0
1, 237760, Note_on_c, 9, 40, 102
1, 237919, Note_on_c, 9, 40, 0
1, 237920, Note_on_c, 9, 40, 102
1, 238079, Note_on_c, 9, 40, 0
1, 238080, Note_on_c, 9, 40, 102
1, 238239, Note_on_c, 9, 40, 0
1, 238240, Note_on_c, 9, 40, 102
1, 238399, Note_on_c, 9, 40, 0
1, 238400, Note_on_c, 9, 40, 102
1, 238559, Note_on_c, 9, 40, 0
1, 238560, Note_on_c, 9, 40, 102
1, 238719, Note_on_c, 9, 40, 0
1, 238720, Note_on_c, 9, 40, 102
1, 238879, Note_on_c, 9, 40, 0
1, 238880, Note_on_c, 9, 40, 102
1, 239039, Note_on_c, 9, 40, 0
1, 239040, Note_on_c, 9, 40, 102
1, 239199, Note_on_c, 9, 40, 0
1, 239200, Note_on_c, 9, 40, 102
1, 239359, Note_on_c, 9, 40, 0
1, 239360, Note_on_c, 9, 40, 102
1, 239519, Note_on_c, 9, 40, 0
1, 239520, Note_on_c, 9, 40, 102
1, 239679, Note_on_c, 9, 40, 0
1, 239680, Note_on_c, 9, 40, 102
1, 239839, Note_on_c, 9, 40, 0
1, 239840, Note_on_c, 9, 40, 102
1, 239999, Note_on_c, 9, 40, 0
1, 240000, Note_on_c, 9, 40, 102
1, 240159, Note_on_c, 9, 40, 0
1, 240160, Note_on_c, 9, 40, 102
1, 240319, Note_on_c, 9, 40, 0
1, 240320, Note_on_c, 9, 40, 102
1, 240479, Note_on_c, 9, 40, 0
1, 240480, Note_on_c, 9, 40, 102
1, 240639, Note_on_c, 9, 40, 0
1, 240640, Note_on_c, 9, 40, 102
1, 240799, Note_on_c, 9, 40, 0
1, 240800, Note_on_c, 9, 40, 102
1, 240959, Note_on_c, 9, 40, 0
1, 240960, Note_on_c, 9, 40, 102
1, 241119, Note_on_c, 9, 40, 0
1, 241120, Note_on_c, 9, 40, 102
1, 241279, Note_on_c, 9, 40, 0
1, 241280, Note_on_c, 9, 40, 102
1, 241439, Note_on_c, 9, 40, 0
1, 241440, Note_on_c, 9, 40, 102
1, 241599, Note_on_c, 9, 40, 0
1, 241600, Note_on_c, 9, 40, 102
1, 241759, Note_on_c, 9, 40, 0
1, 241760, Note_on_c, 9, 40, 102
1, 241919, Note_on_c, 9, 40, 0
1, 241920, Note_on_c, 9, 40, 102
1, 242079, Note_on_c, 9, 40, 0
1, 242080, Note_on_c, 9, 40, 102
1, 242239, Note_on_c, 9, 40, 0
1, 242240, Note_on_c, 9, 40, 102
1, 242399, Note_on_c, 9, 40, 0
1, 242400, Note_on_c, 9, 40, 102
1, 242559, Note_on_c, 9, 40, 0
1, 242560, Note_on_c, 9, 40, 102
1, 242719, Note_on_c, 9, 40, 0
1, 242720, Note_on_c, 9, 40, 102
1, 242879, Note_on_c, 9, 40, 0
1, 242880, Note_on_c, 9, 40, 102
1, 243039, Note_on_c, 9, 40, 0
1, 243040, Note_on_c, 9, 40, 102
1, 243199, Note_on_c, 9, 40, 0
1, 243200, Note_on_c, 9, 40, 102
1, 243359, Note_on_c, 9, 40, 0
1, 243360, Note_on_c, 9, 40, 102
1, 243519, Note_on_c, 9, 40, 0
1, 243520, Note_on_c, 9, 40, 102
1, 243679, Note_on_c, 9, 40, 0
1, 243680, Note_on_c, 9, 40, 102
1, 243839, Note_on_c, 9, 40, 0
1, 243840, Note_on_c, 9, 40, 102
1, 243999, Note_on_c, 9, 40, 0
1, 244000, Note_on_c, 9, 40, 102
1, 244159, Note_on_c, 9, 40, 0
1, 244160, Note_on_c, 9, 40, 102
1, 244319, Note_on_c, 9, 40, 0
1, 244320, Note_on_c, 9, 40, 102
1, 244479, Note_on_c, 9, 40, 0
1, 244480, Note_on_c, 9, 40, 102
1, 244639, Note_on_c, 9, 40, 0
1, 244640, Note_on_c, 9, 40, 102
1, 244799, Note_on_c, 9, 40, 0
1, 244800, Note_on_c, 9, 40, 102
1, 244959, Note_on_c, 9, 40, 0
1, 244960, Note_on_c, 9, 40, 102
1, 245119, Note_on_c, 9, 40, 0
1, 245120, Note_on_c, 9, 40, 102
1, 245279, Note_on_c, 9, 40, 0
1, 245280, Note_on_c, 9, 40, 102
1, 245439, Note_on_c, 9, 40, 0
1, 245440, Note_on_c, 9, 40, 102
1, 245599, Note_on_c, 9, 40, 0
1, 245600, Note_on_c, 9, 40, 102
1, 245759, Note_on_c, 9, 40, 0
1, 245760, Note_on_c, 9, 40, 102
1, 245919, Note_on_c, 9, 40, 0
1, 245920, Note_on_c, 9, 40, 102
1, 246079, Note_on_c, 9, 40, 0
1, 246080, Note_on_c, 9, 40, 102
1, 246239, Note_on_c, 9, 40, 0
1, 246240, Note_on_c, 9, 40, 102
1, 246399, Note_on_c, 9, 40, 0
1, 246400, Note_on_c, 9, 40, 102
1, 246559, Note_on_c, 9, 40, 0
1, 246560, Note_on_c, 9, 40, 102
1, 246719, Note_on_c, 9, 40, 0
1, 246720, Note_on_c, 9, 40, 102
1, 246879, Note_on_c, 9, 40, 0
1, 246880, Note_on_c, 9, 40, 102
1, 247039, Note_on_c, 9, 40, 0
1, 247040, Note_on_c, 9, 40, 102
1, 247199, Note_on_c, 9, 40, 0
1, 247200, Note_on_c, 9, 40, 102
1, 247359, Note_on_c, 9, 40, 0
1, 247360, Note_on_c, 9, 40, 102
1, 247519, Note_on_c, 9, 40, 0
1, 247520, Note_on_c, 9, 40, 102
1, 247679, Note_on_c, 9, 40, 0
1, 247680, Note_on_c, 9, 40, 102
1, 247839, Note_on_c, 9, 40, 0
1, 247840, Note_on_c, 9, 40, 102
1, 247999, Note_on_c, 9, 40, 0
1, 248000, Note_on_c, 9, 40, 102
1, 248159, Note_on_c, 9, 40, 0
1, 248160, Note_on_c, 9, 40, 102
1, 248319, Note_on_c, 9, 40, 0
1, 248320, Note_on_c, 9, 40, 102
1, 248479, Note_on_c, 9, 40, 0
1, 248480, Note_on_c, 9, 40, 102
1, 248639, Note_on_c, 9, 40, 0
1, 248640, Note_on_c, 9, 40, 102
1, 248799, Note_on_c, 9, 40, 0
1, 248800, Note_on_c, 9, 40, 102
1, 248959, Note_on_c, 9, 40, 0
1, 248960, Note_on_c, 9, 40, 102
1, 249119, Note_on_c, 9, 40, 0
1, 249120, Note_on_c, 9, 40, 102
1, 249279, Note_on_c, 9, 40, 0
1, 249280, Note_on_c, 9, 40, 102
1, 249439, Note_on_c, 9, 40, 0
1, 249440, Note_on_c, 9, 40, 102
1, 249599, Note_on_c, 9, 40, 0
1, 249600, Note_on_c, 9, 40, 102
1, 249759, Note_on_c, 9, 40, 0
1, 249760, Note_on_c, 9, 40, 102
1, 249919, Note_on_c, 9, 40, 0
1, 249920, Note_on_c, 9, 40, 102
1, 250079, Note_on_c, 9, 40, 0
1, 250080, Note_on_c, 9, 40, 102
1, 250239, Note_on_c, 9, 40, 0
1, 250240, Note_on_c, 9, 40, 102
1, 250399, Note_on_c, 9, 40, 0
1, 250400, Note_on_c, 9, 40, 102
1, 250559, Note_on_c, 9, 40, 0
1, 250560, Note_on_c, 9, 40, 102
1, 250719, Note_on_c, 9, 40, 0
1, 250720, Note_on_c, 9, 40, 102
1, 250879, Note_on_c, 9, 40, 0
1, 250880, Note_on_c, 9, 40, 102
1, 251039, Note_on_c, 9, 40, 0
1, 251040, Note_on_c, 9, 40, 102
1, 251199, Note_on_c, 9, 40, 0
1, 251200, Note_on_c, 9, 40, 102
1, 251359, Note_on_c, 9, 40, 0
1, 251360, Note_on_c, 9, 40, 102
1, 251519, Note_on_c, 9, 40, 0
1, 251520, Note_on_c, 9, 40, 102
1, 251679, Note_on_c, 9, 40, 0
1, 251680, Note_on_c, 9, 40, 102
1, 251839, Note_on_c, 9, 40, 0
1, 251840, Note_on_c, 9, 40, 102
1, 251999, Note_on_c, 9, 40, 0
1, 252000, Note_on_c, 9, 40, 102
1, 252159, Note_on_c, 9, 40, 0
1, 252160, Note_on_c, 9, 40, 102
1, 252319, Note_on_c, 9, 40, 0
1, 252320, Note_on_c, 9, 40, 102
1, 252479, Note_on_c, 9, 40, 0
1, 252480, Note_on_c, 9, 40, 102
1, 252639, Note_on_c, 9, 40, 0
1, 252640, Note_on_c, 9, 40, 102
1, 252799, Note_on_c, 9, 40, 0
1, 252800, Note_on_c, 9, 40, 102
1, 252959, Note_on_c, 9, 40, 0
1, 252960, Note_on_c, 9, 40, 102
1, 253119, Note_on_c, 9, 40, 0
1, 253120, Note_on_c, 9, 40, 102
1, 253279, Note_on_c, 9, 40, 0
1, 253280, Note_on_c, 9, 40, 102
1, 253439, Note_on_c, 9, 40, 0
1, 253440, Note_on_c, 9, 40, 102
1, 253599, Note_on_c, 9, 40, 0
1, 253600, Note_on_c, 9, 40, 102
1, 253759, Note_on_c, 9, 40, 0
1, 253760, Note_on_c, 9, 40, 102
1, 253919, Note_on_c, 9, 40, 0
1, 253920, Note_on_c, 9, 40, 102
1, 254079, Note_on_c, 9, 40, 0
1, 254080, Note_on_c, 9, 40, 102
1, 254239, Note_on_c, 9, 40, 0
1, 254240, Note_on_c, 9, 40, 102
1, 254399, Note_on_c, 9, 40, 0
1, 254400, Note_on_c, 9, 40, 102
1, 254559, Note_on_c, 9, 40, 0
1, 254560, Note_on_c, 9, 40, 102
1, 254719, Note_on_c, 9, 40, 0
1, 254720, Note_on_c, 9, 40, 102
1, 254879, Note_on_c, 9, 40, 0
1, 254880, Note_on_c, 9, 40, 102
1, 255039, Note_on_c, 9, 40, 0
1, 255040, Note_on_c, 9, 40, 102
1, 255199, Note_on_c, 9, 40, 0
1, 255200, Note_on_c, 9, 40, 102
1, 255359, Note_on_c, 9, 40, 0
1, 255360, Note_on_c, 9, 40, 102
1, 255519, Note_on_c, 9, 40, 0
1, 255520, Note_on_c, 9, 40, 102
1, 255679, Note_on_c, 9, 40, 0
1, 255680, Note_on_c, 9, 40, 102
1, 255839, Note_on_c, 9, 40, 0
1, 255840, Note_on_c, 9, 40, 102
1, 255999, Note_on_c, 9, 40, 0
1, 256000, Note_on_c, 9, 40, 102
1, 256159, Note_on_c, 9, 40, 0
1, 256160, Note_on_c, 9, 40, 102
1, 256319, Note_on_c, 9, 40, 0
1, 256320, Note_on_c, 9, 40, 102
1, 256479, Note_on_c, 9, 40, 0
1, 256480, Note_on_c, 9, 40, 102
1, 256639, Note_on_c, 9, 40, 0
1, 256640, Note_on_c, 9, 40, 102
1, 256799, Note_on_c, 9, 40, 0
1, 256800, Note_on_c, 9, 40, 102
1, 256959, Note_on_c, 9, 40, 0
1, 256960, Note_on_c, 9, 40, 102
1, 257119, Note_on_c, 9, 40, 0
1, 257120, Note_on_c, 9, 40, 102
1, 257279, Note_on_c, 9, 40, 0
1, 257280, Note_on_c, 9, 40, 102
1, 257439, Note_on_c, 9, 40, 0
1, 257440, Note_on_c, 9, 40, 102
1, 257599, Note_on_c, 9, 40, 0
1, 257600, Note_on_c, 9, 40, 102
1, 257759, Note_on_c, 9, 40, 0
1, 257760, Note_on_c, 9, 40, 102
1, 257919, Note_on_c, 9, 40, 0
1, 257920, Note_on_c, 9, 40, 102
1, 258079, Note_on_c, 9, 40, 0
1, 258080, Note_on_c, 9, 40, 102
1, 258239, Note_on_c, 9, 40, 0
1, 258240, Note_on_c, 9, 47, 101
1, 258359, Note_on_c, 9, 47, 0
1, 258360, Note_on_c, 9, 47, 101
1, 258560, Note_on_c, 9, 36, 74
1, 258599, Note_on_c, 9, 47, 0
1, 258690, Note_on_c, 9, 40, 102
1, 258719, Note_on_c, 9, 36, 0
1, 258719, Note_on_c, 9, 40, 0
1, 258720, Note_on_c, 9, 40, 102
1, 259199, Note_on_c, 9, 40, 0
1, 259200, Note_on_c, 9, 49, 82
1, 259200, Note_on_c, 9, 36, 106
1, 259224, Note_on_c, 9, 49, 0
1, 259519, Note_on_c, 9, 36, 0
1, 259520, Note_on_c, 9, 36, 106
1, 259680, Note_on_c, 9, 40, 102
1, 259680, Note_on_c, 9, 46, 86
1, 259704, Note_on_c, 9, 46, 0
1, 259839, Note_on_c, 9, 36, 0
1, 259840, Note_on_c, 9, 36, 106
1, 260159, Note_on_c, 9, 40, 0
1, 260159, Note_on_c, 9, 36, 0
1, 260160, Note_on_c, 9, 46, 86
1, 260160, Note_on_c, 9, 36, 106
1, 260184, Note_on_c, 9, 46, 0
1, 260479, Note_on_c, 9, 36, 0
1, 260480, Note_on_c, 9, 36, 106
1, 260639, Note_on_c, 9, 36, 0
1, 260640, Note_on_c, 9, 40, 102
1, 260640, Note_on_c, 9, 57, 48
1, 260664, Note_on_c, 9, 57, 0
1, 261119, Note_on_c, 9, 40, 0
1, 261120, Note_on_c, 9, 46, 86
1, 261120, Note_on_c, 9, 36, 106
1, 261144, Note_on_c, 9, 46, 0
1, 261439, Note_on_c, 9, 36, 0
1, 261440, Note_on_c, 9, 36, 106
1, 261600, Note_on_c, 9, 40, 102
1, 261600, Note_on_c, 9, 46, 86
1, 261624, Note_on_c, 9, 46, 0
1, 261759, Note_on_c, 9, 36, 0
1, 261760, Note_on_c, 9, 36, 106
1, 262079, Note_on_c, 9, 40, 0
1, 262079, Note_on_c, 9, 36, 0
1, 262080, Note_on_c, 9, 46, 86
1, 262080, Note_on_c, 9, 36, 106
1, 262104, Note_on_c, 9, 46, 0
1, 262399, Note_on_c, 9, 36, 0
1, 262400, Note_on_c, 9, 36, 106
1, 262559, Note_on_c, 9, 36, 0
1, 262560, Note_on_c, 9, 40, 102
1, 262560, Note_on_c, 9, 57, 48
1, 262584, Note_on_c, 9, 57, 0
1, 263039, Note_on_c, 9, 40, 0
1, 263040, Note_on_c, 9, 46, 86
1, 263040, Note_on_c, 9, 36, 106
1, 263064, Note_on_c, 9, 46, 0
1, 263359, Note_on_c, 9, 36, 0
1, 263360, Note_on_c, 9, 36, 106
1, 263520, Note_on_c, 9, 40, 102
1, 263520, Note_on_c, 9, 46, 86
1, 263544, Note_on_c, 9, 46, 0
1, 263679, Note_on_c, 9, 36, 0
1, 263680, Note_on_c, 9, 36, 106
1, 263999, Note_on_c, 9, 40, 0
1, 263999, Note_on_c, 9, 36, 0
1, 264000, Note_on_c, 9, 46, 86
1, 264000, Note_on_c, 9, 36, 106
1, 264024, Note_on_c, 9, 46, 0
1, 264319, Note_on_c, 9, 36, 0
1, 264320, Note_on_c, 9, 36, 106
1, 264479, Note_on_c, 9, 36, 0
1, 264480, Note_on_c, 9, 40, 102
1, 264480, Note_on_c, 9, 57, 48
1, 264504, Note_on_c, 9, 57, 0
1, 264959, Note_on_c, 9, 40, 0
1, 264960, Note_on_c, 9, 46, 86
1, 264960, Note_on_c, 9, 36, 106
1, 264984, Note_on_c, 9, 46, 0
1, 265279, Note_on_c, 9, 36, 0
1, 265280, Note_on_c, 9, 36, 106
1, 265440, Note_on_c, 9, 40, 102
1, 265440, Note_on_c, 9, 46, 86
1, 265464, Note_on_c, 9, 46, 0
1, 265599, Note_on_c, 9, 36, 0
1, 265600, Note_on_c, 9, 36, 106
1, 265919, Note_on_c, 9, 40, 0
1, 265919, Note_on_c, 9, 36, 0
1, 265920, Note_on_c, 9, 46, 86
1, 265920, Note_on_c, 9, 36, 106
1, 265944, Note_on_c, 9, 46, 0
1, 266239, Note_on_c, 9, 36, 0
1, 266240, Note_on_c, 9, 36, 106
1, 266399, Note_on_c, 9, 36, 0
1, 266400, Note_on_c, 9, 40, 102
1, 266400, Note_on_c, 9, 57, 48
1, 266424, Note_on_c, 9, 57, 0
1, 266879, Note_on_c, 9, 40, 0
1, 266880, Note_on_c, 9, 46, 86
1, 266880, Note_on_c, 9, 36, 106
1, 266904, Note_on_c, 9, 46, 0
1, 267199, Note_on_c, 9, 36, 0
1, 267200, Note_on_c, 9, 36, 106
1, 267360, Note_on_c, 9, 40, 102
1, 267360, Note_on_c, 9, 46, 86
1, 267384, Note_on_c, 9, 46, 0
1, 267519, Note_on_c, 9, 36, 0
1, 267520, Note_on_c, 9, 36, 106
1, 267839, Note_on_c, 9, 40, 0
1, 267839, Note_on_c, 9, 36, 0
1, 267840, Note_on_c, 9, 46, 86
1, 267840, Note_on_c, 9, 36, 106
1, 267864, Note_on_c, 9, 46, 0
1, 268159, Note_on_c, 9, 36, 0
1, 268160, Note_on_c, 9, 36, 106
1, 268319, Note_on_c, 9, 36, 0
1, 268320, Note_on_c, 9, 40, 102
1, 268320, Note_on_c, 9, 57, 48
1, 268344, Note_on_c, 9, 57, 0
1, 268799, Note_on_c, 9, 40, 0
1, 268800, Note_on_c, 9, 46, 86
1, 268800, Note_on_c, 9, 36, 106
1, 268824, Note_on_c, 9, 46, 0
1, 269119, Note_on_c, 9, 36, 0
1, 269120, Note_on_c, 9, 36, 106
1, 269280, Note_on_c, 9, 40, 102
1, 269280, Note_on_c, 9, 46, 86
1, 269304, Note_on_c, 9, 46, 0
1, 269439, Note_on_c, 9, 36, 0
1, 269440, Note_on_c, 9, 36, 106
1, 269759, Note_on_c, 9, 40, 0
1, 269759, Note_on_c, 9, 36, 0
1, 269760, Note_on_c, 9, 46, 86
1, 269760, Note_on_c, 9, 36, 106
1, 269784, Note_on_c, 9, 46, 0
1, 270079, Note_on_c, 9, 36, 0
1, 270080, Note_on_c, 9, 36, 106
1, 270239, Note_on_c, 9, 36, 0
1, 270240, Note_on_c, 9, 40, 102
1, 270240, Note_on_c, 9, 57, 48
1, 270264, Note_on_c, 9, 57, 0
1, 270719, Note_on_c, 9, 40, 0
1, 270720, Note_on_c, 9, 46, 86
1, 270720, Note_on_c, 9, 36, 106
1, 270744, Note_on_c, 9, 46, 0
1, 271039, Note_on_c, 9, 36, 0
1, 271040, Note_on_c, 9, 36, 106
1, 271200, Note_on_c, 9, 40, 102
1, 271200, Note_on_c, 9, 46, 86
1, 271224, Note_on_c, 9, 46, 0
1, 271359, Note_on_c, 9, 36, 0
1, 271360, Note_on_c, 9, 36, 106
1, 271679, Note_on_c, 9, 40, 0
1, 271679, Note_on_c, 9, 36, 0
1, 271680, Note_on_c, 9, 46, 86
1, 271680, Note_on_c, 9, 36, 106
1, 271704, Note_on_c, 9, 46, 0
1, 271999, Note_on_c, 9, 36, 0
1, 272000, Note_on_c, 9, 36, 106
1, 272159, Note_on_c, 9, 36, 0
1, 272160, Note_on_c, 9, 40, 102
1, 272160, Note_on_c, 9, 57, 48
1, 272184, Note_on_c, 9, 57, 0
1, 272639, Note_on_c, 9, 40, 0
1, 272640, Note_on_c, 9, 46, 86
1, 272640, Note_on_c, 9, 36, 106
1, 272664, Note_on_c, 9, 46, 0
1, 272959, Note_on_c, 9, 36, 0
1, 272960, Note_on_c, 9, 36, 106
1, 273119, Note_on_c, 9, 36, 0
1, 273120, Note_on_c, 9, 40, 102
1, 273120, Note_on_c, 9, 46, 86
1, 273136, Note_on_c, 9, 46, 0
1, 273439, Note_on_c, 9, 40, 0
1, 273440, Note_on_c, 9, 40, 102
1, 273599, Note_on_c, 9, 40, 0
1, 273600, Note_on_c, 9, 49, 82
1, 273600, Note_on_c, 9, 36, 106
1, 273616, Note_on_c, 9, 49, 0
1, 273919, Note_on_c, 9, 36, 0
1, 273920, Note_on_c, 9, 46, 54
1, 273920, Note_on_c, 9, 36, 106
1, 273927, Note_on_c, 9, 46, 0
1, 274079, Note_on_c, 9, 36, 0
1, 274080, Note_on_c, 9, 40, 102
1, 274239, Note_on_c, 9, 40, 0
1, 274240, Note_on_c, 9, 40, 102
1, 274399, Note_on_c, 9, 40, 0
1, 274400, Note_on_c, 9, 40, 102
1, 274559, Note_on_c, 9, 40, 0
1, 274560, Note_on_c, 9, 49, 82
1, 274560, Note_on_c, 9, 36, 106
1, 274584, Note_on_c, 9, 49, 0
1, 274879, Note_on_c, 9, 36, 0
1, 274880, Note_on_c, 9, 36, 106
1, 275040, Note_on_c, 9, 40, 102
1, 275040, Note_on_c, 9, 46, 86
1, 275064, Note_on_c, 9, 46, 0
1, 275199, Note_on_c, 9, 36, 0
1, 275200, Note_on_c, 9, 36, 106
1, 275519, Note_on_c, 9, 40, 0
1, 275519, Note_on_c, 9, 36, 0
1, 275520, Note_on_c, 9, 46, 86
1, 275520, Note_on_c, 9, 36, 106
1, 275544, Note_on_c, 9, 46, 0
1, 275839, Note_on_c, 9, 36, 0
1, 275840, Note_on_c, 9, 36, 106
1, 275999, Note_on_c, 9, 36, 0
1, 276000, Note_on_c, 9, 40, 102
1, 276000, Note_on_c, 9, 57, 48
1, 276024, Note_on_c, 9, 57, 0
1, 276479, Note_on_c, 9, 40, 0
1, 276480, Note_on_c, 9, 46, 86
1, 276480, Note_on_c, 9, 36, 106
1, 276504, Note_on_c, 9, 46, 0
1, 276799, Note_on_c, 9, 36, 0
1, 276800, Note_on_c, 9, 36, 106
1, 276960, Note_on_c, 9, 40, 102
1, 276960, Note_on_c, 9, 46, 86
1, 276984, Note_on_c, 9, 46, 0
1, 277119, Note_on_c, 9, 36, 0
1, 277120, Note_on_c, 9, 36, 106
1, 277439, Note_on_c, 9, 40, 0
1, 277439, Note_on_c, 9, 36, 0
1, 277440, Note_on_c, 9, 46, 86
1, 277440, Note_on_c, 9, 36, 106
1, 277464, Note_on_c, 9, 46, 0
1, 277759, Note_on_c, 9, 36, 0
1, 277760, Note_on_c, 9, 36, 106
1, 277919, Note_on_c, 9, 36, 0
1, 277920, Note_on_c, 9, 40, 102
1, 277920, Note_on_c, 9, 57, 48
1, 277944, Note_on_c, 9, 57, 0
1, 278399, Note_on_c, 9, 40, 0
1, 278400, Note_on_c, 9, 46, 86
1, 278400, Note_on_c, 9, 36, 106
1, 278424, Note_on_c, 9, 46, 0
1, 278719, Note_on_c, 9, 36, 0
1, 278720, Note_on_c, 9, 36, 106
1, 278880, Note_on_c, 9, 40, 102
1, 278880, Note_on_c, 9, 46, 86
1, 278904, Note_on_c, 9, 46, 0
1, 279039, Note_on_c, 9, 36, 0
1, 279040, Note_on_c, 9, 36, 106
1, 279359, Note_on_c, 9, 40, 0
1, 279359, Note_on_c, 9, 36, 0
1, 279360, Note_on_c, 9, 46, 86
1, 279360, Note_on_c, 9, 36, 106
1, 279384, Note_on_c, 9, 46, 0
1, 279679, Note_on_c, 9, 36, 0
1, 279680, Note_on_c, 9, 36, 106
1, 279839, Note_on_c, 9, 36, 0
1, 279840, Note_on_c, 9, 40, 102
1, 279840, Note_on_c, 9, 57, 48
1, 279864, Note_on_c, 9, 57, 0
1, 280319, Note_on_c, 9, 40, 0
1, 280320, Note_on_c, 9, 46, 86
1, 280320, Note_on_c, 9, 36, 106
1, 280344, Note_on_c, 9, 46, 0
1, 280639, Note_on_c, 9, 36, 0
1, 280640, Note_on_c, 9, 36, 106
1, 280800, Note_on_c, 9, 40, 102
1, 280800, Note_on_c, 9, 46, 86
1, 280824, Note_on_c, 9, 46, 0
1, 280959, Note_on_c, 9, 36, 0
1, 280960, Note_on_c, 9, 36, 106
1, 281279, Note_on_c, 9, 40, 0
1, 281279, Note_on_c, 9, 36, 0
1, 281280, Note_on_c, 9, 46, 86
1, 281280, Note_on_c, 9, 36, 106
1, 281304, Note_on_c, 9, 46, 0
1, 281599, Note_on_c, 9, 36, 0
1, 281600, Note_on_c, 9, 36, 106
1, 281759, Note_on_c, 9, 36, 0
1, 281760, Note_on_c, 9, 40, 102
1, 281760, Note_on_c, 9, 57, 48
1, 281784, Note_on_c, 9, 57, 0
1, 282239, Note_on_c, 9, 40, 0
1, 282240, Note_on_c, 9, 46, 86
1, 282240, Note_on_c, 9, 36, 106
1, 282264, Note_on_c, 9, 46, 0
1, 282559, Note_on_c, 9, 36, 0
1, 282560, Note_on_c, 9, 36, 106
1, 282720, Note_on_c, 9, 40, 102
1, 282720, Note_on_c, 9, 46, 86
1, 282744, Note_on_c, 9, 46, 0
1, 282879, Note_on_c, 9, 36, 0
1, 282880, Note_on_c, 9, 36, 106
1, 283199, Note_on_c, 9, 40, 0
1, 283199, Note_on_c, 9, 36, 0
1, 283200, Note_on_c, 9, 46, 86
1, 283200, Note_on_c, 9, 36, 106
1, 283224, Note_on_c, 9, 46, 0
1, 283519, Note_on_c, 9, 36, 0
1, 283520, Note_on_c, 9, 36, 106
1, 283679, Note_on_c, 9, 36, 0
1, 283680, Note_on_c, 9, 40, 102
1, 283680, Note_on_c, 9, 57, 48
1, 283704, Note_on_c, 9, 57, 0
1, 284159, Note_on_c, 9, 40, 0
1, 284160, Note_on_c, 9, 46, 86
1, 284160, Note_on_c, 9, 36, 106
1, 284184, Note_on_c, 9, 46, 0
1, 284479, Note_on_c, 9, 36, 0
1, 284480, Note_on_c, 9, 36, 106
1, 284640, Note_on_c, 9, 40, 102
1, 284640, Note_on_c, 9, 46, 86
1, 284664, Note_on_c, 9, 46, 0
1, 284799, Note_on_c, 9, 36, 0
1, 284800, Note_on_c, 9, 36, 106
1, 285119, Note_on_c, 9, 40, 0
1, 285119, Note_on_c, 9, 36, 0
1, 285120, Note_on_c, 9, 46, 86
1, 285120, Note_on_c, 9, 36, 106
1, 285144, Note_on_c, 9, 46, 0
1, 285439, Note_on_c, 9, 36, 0
1, 285440, Note_on_c, 9, 36, 106
1, 285599, Note_on_c, 9, 36, 0
1, 285600, Note_on_c, 9, 40, 102
1, 285600, Note_on_c, 9, 57, 48
1, 285624, Note_on_c, 9, 57, 0
1, 286079, Note_on_c, 9, 40, 0
1, 286080, Note_on_c, 9, 46, 86
1, 286080, Note_on_c, 9, 36, 106
1, 286104, Note_on_c, 9, 46, 0
1, 286399, Note_on_c, 9, 36, 0
1, 286400, Note_on_c, 9, 36, 106
1, 286560, Note_on_c, 9, 40, 102
1, 286560, Note_on_c, 9, 46, 86
1, 286584, Note_on_c, 9, 46, 0
1, 286719, Note_on_c, 9, 36, 0
1, 286720, Note_on_c, 9, 36, 106
1, 287039, Note_on_c, 9, 40, 0
1, 287039, Note_on_c, 9, 36, 0
1, 287040, Note_on_c, 9, 46, 86
1, 287040, Note_on_c, 9, 36, 106
1, 287064, Note_on_c, 9, 46, 0
1, 287359, Note_on_c, 9, 36, 0
1, 287360, Note_on_c, 9, 36, 106
1, 287519, Note_on_c, 9, 36, 0
1, 287520, Note_on_c, 9, 40, 102
1, 287520, Note_on_c, 9, 57, 48
1, 287536, Note_on_c, 9, 57, 0
1, 287839, Note_on_c, 9, 40, 0
1, 287840, Note_on_c, 9, 40, 70
1, 287999, Note_on_c, 9, 40, 0
1, 288000, Note_on_c, 9, 36, 106
1, 288160, Note_on_c, 9, 41, 98
1, 288160, Note_on_c, 9, 45, 63
1, 288319, Note_on_c, 9, 36, 0
1, 288320, Note_on_c, 9, 36, 106
1, 288479, Note_on_c, 9, 41, 0
1, 288479, Note_on_c, 9, 45, 0
1, 288479, Note_on_c, 9, 36, 0
1, 288480, Note_on_c, 9, 41, 98
1, 288480, Note_on_c, 9, 45, 63
1, 288640, Note_on_c, 9, 36, 106
1, 288799, Note_on_c, 9, 41, 0
1, 288799, Note_on_c, 9, 45, 0
1, 288800, Note_on_c, 9, 41, 98
1, 288800, Note_on_c, 9, 45, 63
1, 288959, Note_on_c, 9, 36, 0
1, 288959, Note_on_c, 9, 41, 0
1, 288959, Note_on_c, 9, 45, 0
1, 288960, Note_on_c, 9, 36, 106
1, 289080, Note_on_c, 9, 41, 98
1, 289080, Note_on_c, 9, 45, 63
1, 289279, Note_on_c, 9, 36, 0
1, 289280, Note_on_c, 9, 36, 106
1, 289319, Note_on_c, 9, 41, 0
1, 289319, Note_on_c, 9, 45, 0
1, 289410, Note_on_c, 9, 40, 102
1, 289439, Note_on_c, 9, 36, 0
1, 289439, Note_on_c, 9, 40, 0
1, 289440, Note_on_c, 9, 40, 102
1, 289919, Note_on_c, 9, 40, 0
1, 289920, Note_on_c, 9, 49, 82
1, 289920, Note_on_c, 9, 36, 106
1, 289944, Note_on_c, 9, 49, 0
1, 290239, Note_on_c, 9, 36, 0
1, 290240, Note_on_c, 9, 36, 106
1, 290400, Note_on_c, 9, 40, 102
1, 290400, Note_on_c, 9, 46, 86
1, 290424, Note_on_c, 9, 46, 0
1, 290559, Note_on_c, 9, 36, 0
1, 290560, Note_on_c, 9, 36, 106
1, 290879, Note_on_c, 9, 40, 0
1, 290879, Note_on_c, 9, 36, 0
1, 290880, Note_on_c, 9, 46, 86
1, 290880, Note_on_c, 9, 36, 106
1, 290904, Note_on_c, 9, 46, 0
1, 291199, Note_on_c, 9, 36, 0
1, 291200, Note_on_c, 9, 36, 106
1, 291359, Note_on_c, 9, 36, 0
1, 291360, Note_on_c, 9, 40, 102
1, 291360, Note_on_c, 9, 57, 48
1, 291384, Note_on_c, 9, 57, 0
1, 291839, Note_on_c, 9, 40, 0
1, 291840, Note_on_c, 9, 46, 86
1, 291840, Note_on_c, 9, 36, 106
1, 291864, Note_on_c, 9, 46, 0
1, 292159, Note_on_c, 9, 36, 0
1, 292160, Note_on_c, 9, 36, 106
1, 292320, Note_on_c, 9, 40, 102
1, 292320, Note_on_c, 9, 46, 86
1, 292344, Note_on_c, 9, 46, 0
1, 292479, Note_on_c, 9, 36, 0
1, 292480, Note_on_c, 9, 36, 106
1, 292799, Note_on_c, 9, 40, 0
1, 292799, Note_on_c, 9, 36, 0
1, 292800, Note_on_c, 9, 46, 86
1, 292800, Note_on_c, 9, 36, 106
1, 292824, Note_on_c, 9, 46, 0
1, 293119, Note_on_c, 9, 36, 0
1, 293120, Note_on_c, 9, 36, 106
1, 293279, Note_on_c, 9, 36, 0
1, 293280, Note_on_c, 9, 40, 102
1, 293280, Note_on_c, 9, 57, 48
1, 293304, Note_on_c, 9, 57, 0
1, 293759, Note_on_c, 9, 40, 0
1, 293760, Note_on_c, 9, 46, 86
1, 293760, Note_on_c, 9, 36, 106
1, 293784, Note_on_c, 9, 46, 0
1, 294079, Note_on_c, 9, 36, 0
1, 294080, Note_on_c, 9, 36, 106
1, 294240, Note_on_c, 9, 40, 102
1, 294240, Note_on_c, 9, 46, 86
1, 294264, Note_on_c, 9, 46, 0
1, 294399, Note_on_c, 9, 36, 0
1, 294400, Note_on_c, 9, 36, 106
1, 294719, Note_on_c, 9, 40, 0
1, 294719, Note_on_c, 9, 36, 0
1, 294720, Note_on_c, 9, 46, 86
1, 294720, Note_on_c, 9, 36, 106
1, 294744, Note_on_c, 9, 46, 0
1, 295039, Note_on_c, 9, 36, 0
1, 295040, Note_on_c, 9, 36, 106
1, 295199, Note_on_c, 9, 36, 0
1, 295200, Note_on_c, 9, 40, 102
1, 295200, Note_on_c, 9, 57, 48
1, 295224, Note_on_c, 9, 57, 0
1, 295679, Note_on_c, 9, 40, 0
1, 295680, Note_on_c, 9, 46, 86
1, 295680, Note_on_c, 9, 36, 106
1, 295704, Note_on_c, 9, 46, 0
1, 295999, Note_on_c, 9, 36, 0
1, 296000, Note_on_c, 9, 36, 106
1, 296160, Note_on_c, 9, 40, 102
1, 296160, Note_on_c, 9, 46, 86
1, 296184, Note_on_c, 9, 46, 0
1, 296319, Note_on_c, 9, 36, 0
1, 296320, Note_on_c, 9, 36, 106
1, 296639, Note_on_c, 9, 40, 0
1, 296639, Note_on_c, 9, 36, 0
1, 296640, Note_on_c, 9, 46, 86
1, 296640, Note_on_c, 9, 36, 106
1, 296664, Note_on_c, 9, 46, 0
1, 296959, Note_on_c, 9, 36, 0
1, 296960, Note_on_c, 9, 36, 106
1, 297119, Note_on_c, 9, 36, 0
1, 297120, Note_on_c, 9, 40, 102
1, 297120, Note_on_c, 9, 57, 48
1, 297144, Note_on_c, 9, 57, 0
1, 297599, Note_on_c, 9, 40, 0
1, 297600, Note_on_c, 9, 46, 86
1, 297600, Note_on_c, 9, 36, 106
1, 297624, Note_on_c, 9, 46, 0
1, 297919, Note_on_c, 9, 36, 0
1, 297920, Note_on_c, 9, 36, 106
1, 298080, Note_on_c, 9, 40, 102
1, 298080, Note_on_c, 9, 46, 86
1, 298104, Note_on_c, 9, 46, 0
1, 298239, Note_on_c, 9, 36, 0
1, 298240, Note_on_c, 9, 36, 106
1, 298559, Note_on_c, 9, 40, 0
1, 298559, Note_on_c, 9, 36, 0
1, 298560, Note_on_c, 9, 46, 86
1, 298560, Note_on_c, 9, 36, 106
1, 298584, Note_on_c, 9, 46, 0
1, 298879, Note_on_c, 9, 36, 0
1, 298880, Note_on_c, 9, 36, 106
1, 299039, Note_on_c, 9, 36, 0
1, 299040, Note_on_c, 9, 40, 102
1, 299040, Note_on_c, 9, 57, 48
1, 299064, Note_on_c, 9, 57, 0
1, 299519, Note_on_c, 9, 40, 0
1, 299520, Note_on_c, 9, 46, 86
1, 299520, Note_on_c, 9, 36, 106
1, 299544, Note_on_c, 9, 46, 0
1, 299839, Note_on_c, 9, 36, 0
1, 299840, Note_on_c, 9, 36, 106
1, 300000, Note_on_c, 9, 40, 102
1, 300000, Note_on_c, 9, 46, 86
1, 300024, Note_on_c, 9, 46, 0
1, 300159, Note_on_c, 9, 36, 0
1, 300160, Note_on_c, 9, 36, 106
1, 300479, Note_on_c, 9, 40, 0
1, 300479, Note_on_c, 9, 36, 0
1, 300480, Note_on_c, 9, 46, 86
1, 300480, Note_on_c, 9, 36, 106
1, 300504, Note_on_c, 9, 46, 0
1, 300799, Note_on_c, 9, 36, 0
1, 300800, Note_on_c, 9, 36, 106
1, 300959, Note_on_c, 9, 36, 0
1, 300960, Note_on_c, 9, 40, 102
1, 300960, Note_on_c, 9, 57, 48
1, 300984, Note_on_c, 9, 57, 0
1, 301439, Note_on_c, 9, 40, 0
1, 301440, Note_on_c, 9, 46, 86
1, 301440, Note_on_c, 9, 36, 106
1, 301464, Note_on_c, 9, 46, 0
1, 301759, Note_on_c, 9, 36, 0
1, 301760, Note_on_c, 9, 36, 106
1, 301920, Note_on_c, 9, 40, 102
1, 301920, Note_on_c, 9, 46, 86
1, 301944, Note_on_c, 9, 46, 0
1, 302079, Note_on_c, 9, 36, 0
1, 302080, Note_on_c, 9, 36, 106
1, 302399, Note_on_c, 9, 40, 0
1, 302399, Note_on_c, 9, 36, 0
1, 302400, Note_on_c, 9, 46, 86
1, 302400, Note_on_c, 9, 36, 106
1, 302424, Note_on_c, 9, 46, 0
1, 302719, Note_on_c, 9, 36, 0
1, 302720, Note_on_c, 9, 36, 106
1, 302879, Note_on_c, 9, 36, 0
1, 302880, Note_on_c, 9, 40, 102
1, 302880, Note_on_c, 9, 57, 48
1, 302904, Note_on_c, 9, 57, 0
1, 303359, Note_on_c, 9, 40, 0
1, 303360, Note_on_c, 9, 46, 86
1, 303360, Note_on_c, 9, 36, 106
1, 303384, Note_on_c, 9, 46, 0
1, 303679, Note_on_c, 9, 36, 0
1, 303680, Note_on_c, 9, 36, 106
1, 303839, Note_on_c, 9, 36, 0
1, 303840, Note_on_c, 9, 40, 102
1, 303840, Note_on_c, 9, 46, 86
1, 303856, Note_on_c, 9, 46, 0
1, 304159, Note_on_c, 9, 40, 0
1, 304160, Note_on_c, 9, 40, 102
1, 304319, Note_on_c, 9, 40, 0
1, 304320, Note_on_c, 9, 49, 82
1, 304320, Note_on_c, 9, 36, 106
1, 304336, Note_on_c, 9, 49, 0
1, 304639, Note_on_c, 9, 36, 0
1, 304640, Note_on_c, 9, 46, 54
1, 304640, Note_on_c, 9, 36, 106
1, 304647, Note_on_c, 9, 46, 0
1, 304799, Note_on_c, 9, 36, 0
1, 304800, Note_on_c, 9, 40, 102
1, 304959, Note_on_c, 9, 40, 0
1, 304960, Note_on_c, 9, 40, 102
1, 305119, Note_on_c, 9, 40, 0
1, 305120, Note_on_c, 9, 40, 102
1, 305279, Note_on_c, 9, 40, 0
1, 305280, Note_on_c, 9, 49, 82
1, 305280, Note_on_c, 9, 36, 106
1, 305304, Note_on_c, 9, 49, 0
1, 305599, Note_on_c, 9, 36, 0
1, 305600, Note_on_c, 9, 36, 106
1, 305760, Note_on_c, 9, 40, 102
1, 305760, Note_on_c, 9, 46, 86
1, 305784, Note_on_c, 9, 46, 0
1, 305919, Note_on_c, 9, 36, 0
1, 305920, Note_on_c, 9, 36, 106
1, 306239, Note_on_c, 9, 40, 0
1, 306239, Note_on_c, 9, 36, 0
1, 306240, Note_on_c, 9, 46, 86
1, 306240, Note_on_c, 9, 36, 106
1, 306264, Note_on_c, 9, 46, 0
1, 306559, Note_on_c, 9, 36, 0
1, 306560, Note_on_c, 9, 36, 106
1, 306719, Note_on_c, 9, 36, 0
1, 306720, Note_on_c, 9, 40, 102
1, 306720, Note_on_c, 9, 57, 48
1, 306744, Note_on_c, 9, 57, 0
1, 307199, Note_on_c, 9, 40, 0
1, 307200, Note_on_c, 9, 46, 86
1, 307200, Note_on_c, 9, 36, 106
1, 307224, Note_on_c, 9, 46, 0
1, 307519, Note_on_c, 9, 36, 0
1, 307520, Note_on_c, 9, 36, 106
1, 307680, Note_on_c, 9, 40, 102
1, 307680, Note_on_c, 9, 46, 86
1, 307704, Note_on_c, 9, 46, 0
1, 307839, Note_on_c, 9, 36, 0
1, 307840, Note_on_c, 9, 36, 106
1, 308159, Note_on_c, 9, 40, 0
1, 308159, Note_on_c, 9, 36, 0
1, 308160, Note_on_c, 9, 46, 86
1, 308160, Note_on_c, 9, 36, 106
1, 308184, Note_on_c, 9, 46, 0
1, 308479, Note_on_c, 9, 36, 0
1, 308480, Note_on_c, 9, 36, 106
1, 308639, Note_on_c, 9, 36, 0
1, 308640, Note_on_c, 9, 40, 102
1, 308640, Note_on_c, 9, 57, 48
1, 308664, Note_on_c, 9, 57, 0
1, 309119, Note_on_c, 9, 40, 0
1, 309120, Note_on_c, 9, 46, 86
1, 309120, Note_on_c, 9, 36, 106
1, 309144, Note_on_c, 9, 46, 0
1, 309439, Note_on_c, 9, 36, 0
1, 309440, Note_on_c, 9, 36, 106
1, 309600, Note_on_c, 9, 40, 102
1, 309600, Note_on_c, 9, 46, 86
1, 309624, Note_on_c, 9, 46, 0
1, 309759, Note_on_c, 9, 36, 0
1, 309760, Note_on_c, 9, 36, 106
1, 310079, Note_on_c, 9, 40, 0
1, 310079, Note_on_c, 9, 36, 0
1, 310080, Note_on_c, 9, 46, 86
1, 310080, Note_on_c, 9, 36, 106
1, 310104, Note_on_c, 9, 46, 0
1, 310399, Note_on_c, 9, 36, 0
1, 310400, Note_on_c, 9, 36, 106
1, 310559, Note_on_c, 9, 36, 0
1, 310560, Note_on_c, 9, 40, 102
1, 310560, Note_on_c, 9, 57, 48
1, 310584, Note_on_c, 9, 57, 0
1, 311039, Note_on_c, 9, 40, 0
1, 311040, Note_on_c, 9, 46, 86
1, 311040, Note_on_c, 9, 36, 106
1, 311064, Note_on_c, 9, 46, 0
1, 311359, Note_on_c, 9, 36, 0
1, 311360, Note_on_c, 9, 36, 106
1, 311520, Note_on_c, 9, 40, 102
1, 311520, Note_on_c, 9, 46, 86
1, 311544, Note_on_c, 9, 46, 0
1, 311679, Note_on_c, 9, 36, 0
1, 311680, Note_on_c, 9, 36, 106
1, 311999, Note_on_c, 9, 40, 0
1, 311999, Note_on_c, 9, 36, 0
1, 312000, Note_on_c, 9, 46, 86
1, 312000, Note_on_c, 9, 36, 106
1, 312024, Note_on_c, 9, 46, 0
1, 312319, Note_on_c, 9, 36, 0
1, 312320, Note_on_c, 9, 36, 106
1, 312479, Note_on_c, 9, 36, 0
1, 312480, Note_on_c, 9, 40, 102
1, 312480, Note_on_c, 9, 57, 48
1, 312504, Note_on_c, 9, 57, 0
1, 312959, Note_on_c, 9, 40, 0
1, 312960, Note_on_c, 9, 46, 86
1, 312960, Note_on_c, 9, 36, 106
1, 312984, Note_on_c, 9, 46, 0
1, 313279, Note_on_c, 9, 36, 0
1, 313280, Note_on_c, 9, 36, 106
1, 313440, Note_on_c, 9, 40, 102
1, 313440, Note_on_c, 9, 46, 86
1, 313464, Note_on_c, 9, 46, 0
1, 313599, Note_on_c, 9, 36, 0
1, 313600, Note_on_c, 9, 36, 106
1, 313919, Note_on_c, 9, 40, 0
1, 313919, Note_on_c, 9, 36, 0
1, 313920, Note_on_c, 9, 46, 86
1, 313920, Note_on_c, 9, 36, 106
1, 313944, Note_on_c, 9, 46, 0
1, 314239, Note_on_c, 9, 36, 0
1, 314240, Note_on_c, 9, 36, 106
1, 314399, Note_on_c, 9, 36, 0
1, 314400, Note_on_c, 9, 40, 102
1, 314400, Note_on_c, 9, 57, 48
1, 314424, Note_on_c, 9, 57, 0
1, 314879, Note_on_c, 9, 40, 0
1, 314880, Note_on_c, 9, 46, 86
1, 314880, Note_on_c, 9, 36, 106
1, 314904, Note_on_c, 9, 46, 0
1, 315199, Note_on_c, 9, 36, 0
1, 315200, Note_on_c, 9, 36, 106
1, 315360, Note_on_c, 9, 40, 102
1, 315360, Note_on_c, 9, 46, 86
1, 315384, Note_on_c, 9, 46, 0
1, 315519, Note_on_c, 9, 36, 0
1, 315520, Note_on_c, 9, 36, 106
1, 315839, Note_on_c, 9, 40, 0
1, 315839, Note_on_c, 9, 36, 0
1, 315840, Note_on_c, 9, 46, 86
1, 315840, Note_on_c, 9, 36, 106
1, 315864, Note_on_c, 9, 46, 0
1, 316159, Note_on_c, 9, 36, 0
1, 316160, Note_on_c, 9, 36, 106
1, 316319, Note_on_c, 9, 36, 0
1, 316320, Note_on_c, 9, 40, 102
1, 316320, Note_on_c, 9, 57, 48
1, 316344, Note_on_c, 9, 57, 0
1, 316799, Note_on_c, 9, 40, 0
1, 316800, Note_on_c, 9, 46, 86
1, 316800, Note_on_c, 9, 36, 106
1, 316824, Note_on_c, 9, 46, 0
1, 317119, Note_on_c, 9, 36, 0
1, 317120, Note_on_c, 9, 36, 106
1, 317280, Note_on_c, 9, 40, 102
1, 317280, Note_on_c, 9, 46, 86
1, 317304, Note_on_c, 9, 46, 0
1, 317439, Note_on_c, 9, 36, 0
1, 317440, Note_on_c, 9, 36, 106
1, 317759, Note_on_c, 9, 40, 0
1, 317759, Note_on_c, 9, 36, 0
1, 317760, Note_on_c, 9, 46, 86
1, 317760, Note_on_c, 9, 36, 106
1, 317784, Note_on_c, 9, 46, 0
1, 318079, Note_on_c, 9, 36, 0
1, 318080, Note_on_c, 9, 36, 106
1, 318239, Note_on_c, 9, 36, 0
1, 318240, Note_on_c, 9, 40, 102
1, 318240, Note_on_c, 9, 57, 48
1, 318256, Note_on_c, 9, 57, 0
1, 318559, Note_on_c, 9, 40, 0
1, 318560, Note_on_c, 9, 40, 70
1, 318719, Note_on_c, 9, 40, 0
1, 318720, Note_on_c, 9, 36, 106
1, 318880, Note_on_c, 9, 41, 98
1, 318880, Note_on_c, 9, 45, 63
1, 319039, Note_on_c, 9, 36, 0
1, 319040, Note_on_c, 9, 36, 106
1, 319199, Note_on_c, 9, 41, 0
1, 319199, Note_on_c, 9, 45, 0
1, 319199, Note_on_c, 9, 36, 0
1, 319200, Note_on_c, 9, 41, 98
1, 319200, Note_on_c, 9, 45, 63
1, 319360, Note_on_c, 9, 36, 106
1, 319519, Note_on_c, 9, 41, 0
1, 319519, Note_on_c, 9, 45, 0
1, 319520, Note_on_c, 9, 41, 98
1, 319520, Note_on_c, 9, 45, 63
1, 319679, Note_on_c, 9, 36, 0
1, 319679, Note_on_c, 9, 41, 0
1, 319679, Note_on_c, 9, 45, 0
1, 319680, Note_on_c, 9, 36, 106
1, 319800, Note_on_c, 9, 41, 98
1, 319800, Note_on_c, 9, 45, 63
1, 319999, Note_on_c, 9, 36, 0
1, 320000, Note_on_c, 9, 36, 106
1, 320039, Note_on_c, 9, 41, 0
1, 320039, Note_on_c, 9, 45, 0
1, 320130, Note_on_c, 9, 40, 102
1, 320159, Note_on_c, 9, 36, 0
1, 320159, Note_on_c, 9, 40, 0
1, 320160, Note_on_c, 9, 40, 102
1, 320639, Note_on_c, 9, 40, 0
1, 320640, Note_on_c, 9, 49, 82
1, 320640, Note_on_c, 9, 36, 106
1, 320664, Note_on_c, 9, 49, 0
1, 320959, Note_on_c, 9, 36, 0
1, 320960, Note_on_c, 9, 36, 106
1, 321120, Note_on_c, 9, 40, 102
1, 321120, Note_on_c, 9, 46, 86
1, 321144, Note_on_c, 9, 46, 0
1, 321279, Note_on_c, 9, 36, 0
1, 321280, Note_on_c, 9, 36, 106
1, 321599, Note_on_c, 9, 40, 0
1, 321599, Note_on_c, 9, 36, 0
1, 321600, Note_on_c, 9, 46, 86
1, 321600, Note_on_c, 9, 36, 106
1, 321624, Note_on_c, 9, 46, 0
1, 321919, Note_on_c, 9, 36, 0
1, 321920, Note_on_c, 9, 36, 106
1, 322079, Note_on_c, 9, 36, 0
1, 322080, Note_on_c, 9, 40, 102
1, 322080, Note_on_c, 9, 57, 48
1, 322104, Note_on_c, 9, 57, 0
1, 322559, Note_on_c, 9, 40, 0
1, 322560, Note_on_c, 9, 46, 86
1, 322560, Note_on_c, 9, 36, 106
1, 322584, Note_on_c, 9, 46, 0
1, 322879, Note_on_c, 9, 36, 0
1, 322880, Note_on_c, 9, 36, 106
1, 323040, Note_on_c, 9, 40, 102
1, 323040, Note_on_c, 9, 46, 86
1, 323064, Note_on_c, 9, 46, 0
1, 323199, Note_on_c, 9, 36, 0
1, 323200, Note_on_c, 9, 36, 106
1, 323519, Note_on_c, 9, 40, 0
1, 323519, Note_on_c, 9, 36, 0
1, 323520, Note_on_c, 9, 46, 86
1, 323520, Note_on_c, 9, 36, 106
1, 323544, Note_on_c, 9, 46, 0
1, 323839, Note_on_c, 9, 36, 0
1, 323840, Note_on_c, 9, 36, 106
1, 323999, Note_on_c, 9, 36, 0
1, 324000, Note_on_c, 9, 40, 102
1, 324000, Note_on_c, 9, 57, 48
1, 324024, Note_on_c, 9, 57, 0
1, 324479, Note_on_c, 9, 40, 0
1, 324480, Note_on_c, 9, 46, 86
1, 324480, Note_on_c, 9, 36, 106
1, 324504, Note_on_c, 9, 46, 0
1, 324799, Note_on_c, 9, 36, 0
1, 324800, Note_on_c, 9, 36, 106
1, 324960, Note_on_c, 9, 40, 102
1, 324960, Note_on_c, 9, 46, 86
1, 324984, Note_on_c, 9, 46, 0
1, 325119, Note_on_c, 9, 36, 0
1, 325120, Note_on_c, 9, 36, 106
1, 325439, Note_on_c, 9, 40, 0
1, 325439, Note_on_c, 9, 36, 0
1, 325440, Note_on_c, 9, 46, 86
1, 325440, Note_on_c, 9, 36, 106
1, 325464, Note_on_c, 9, 46, 0
1, 325759, Note_on_c, 9, 36, 0
1, 325760, Note_on_c, 9, 36, 106
1, 325919, Note_on_c, 9, 36, 0
1, 325920, Note_on_c, 9, 40, 102
1, 325920, Note_on_c, 9, 57, 48
1, 325944, Note_on_c, 9, 57, 0
1, 326399, Note_on_c, 9, 40, 0
1, 326400, Note_on_c, 9, 46, 86
1, 326400, Note_on_c, 9, 36, 106
1, 326424, Note_on_c, 9, 46, 0
1, 326719, Note_on_c, 9, 36, 0
1, 326720, Note_on_c, 9, 36, 106
1, 326880, Note_on_c, 9, 40, 102
1, 326880, Note_on_c, 9, 46, 86
1, 326904, Note_on_c, 9, 46, 0
1, 327039, Note_on_c, 9, 36, 0
1, 327040, Note_on_c, 9, 36, 106
1, 327359, Note_on_c, 9, 40, 0
1, 327359, Note_on_c, 9, 36, 0
1, 327360, Note_on_c, 9, 46, 86
1, 327360, Note_on_c, 9, 36, 106
1, 327384, Note_on_c, 9, 46, 0
1, 327679, Note_on_c, 9, 36, 0
1, 327680, Note_on_c, 9, 36, 106
1, 327839, Note_on_c, 9, 36, 0
1, 327840, Note_on_c, 9, 40, 102
1, 327840, Note_on_c, 9, 57, 48
1, 327864, Note_on_c, 9, 57, 0
1, 328319, Note_on_c, 9, 40, 0
1, 328320, Note_on_c, 9, 46, 86
1, 328320, Note_on_c, 9, 36, 106
1, 328344, Note_on_c, 9, 46, 0
1, 328639, Note_on_c, 9, 36, 0
1, 328640, Note_on_c, 9, 36, 106
1, 328800, Note_on_c, 9, 40, 102
1, 328800, Note_on_c, 9, 46, 86
1, 328824, Note_on_c, 9, 46, 0
1, 328959, Note_on_c, 9, 36, 0
1, 328960, Note_on_c, 9, 36, 106
1, 329279, Note_on_c, 9, 40, 0
1, 329279, Note_on_c, 9, 36, 0
1, 329280, Note_on_c, 9, 46, 86
1, 329280, Note_on_c, 9, 36, 106
1, 329304, Note_on_c, 9, 46, 0
1, 329599, Note_on_c, 9, 36, 0
1, 329600, Note_on_c, 9, 36, 106
1, 329759, Note_on_c, 9, 36, 0
1, 329760, Note_on_c, 9, 40, 102
1, 329760, Note_on_c, 9, 57, 48
1, 329784, Note_on_c, 9, 57, 0
1, 330239, Note_on_c, 9, 40, 0
1, 330240, Note_on_c, 9, 46, 86
1, 330240, Note_on_c, 9, 36, 106
1, 330264, Note_on_c, 9, 46, 0
1, 330559, Note_on_c, 9, 36, 0
1, 330560, Note_on_c, 9, 36, 106
1, 330720, Note_on_c, 9, 40, 102
1, 330720, Note_on_c, 9, 46, 86
1, 330744, Note_on_c, 9, 46, 0
1, 330879, Note_on_c, 9, 36, 0
1, 330880, Note_on_c, 9, 36, 106
1, 331199, Note_on_c, 9, 40, 0
1, 331199, Note_on_c, 9, 36, 0
1, 331200, Note_on_c, 9, 46, 86
1, 331200, Note_on_c, 9, 36, 106
1, 331224, Note_on_c, 9, 46, 0
1, 331519, Note_on_c, 9, 36, 0
1, 331520, Note_on_c, 9, 36, 106
1, 331679, Note_on_c, 9, 36, 0
1, 331680, Note_on_c, 9, 40, 102
1, 331680, Note_on_c, 9, 57, 48
1, 331704, Note_on_c, 9, 57, 0
1, 332159, Note_on_c, 9, 40, 0
1, 332160, Note_on_c, 9, 46, 86
1, 332160, Note_on_c, 9, 36, 106
1, 332184, Note_on_c, 9, 46, 0
1, 332479, Note_on_c, 9, 36, 0
1, 332480, Note_on_c, 9, 36, 106
1, 332640, Note_on_c, 9, 40, 102
1, 332640, Note_on_c, 9, 46, 86
1, 332664, Note_on_c, 9, 46, 0
1, 332799, Note_on_c, 9, 36, 0
1, 332800, Note_on_c, 9, 36, 106
1, 333119, Note_on_c, 9, 40, 0
1, 333119, Note_on_c, 9, 36, 0
1, 333120, Note_on_c, 9, 46, 86
1, 333120, Note_on_c, 9, 36, 106
1, 333144, Note_on_c, 9, 46, 0
1, 333439, Note_on_c, 9, 36, 0
1, 333440, Note_on_c, 9, 36, 106
1, 333599, Note_on_c, 9, 36, 0
1, 333600, Note_on_c, 9, 40, 102
1, 333600, Note_on_c, 9, 57, 48
1, 333624, Note_on_c, 9, 57, 0
1, 334079, Note_on_c, 9, 40, 0
1, 334080, Note_on_c, 9, 46, 86
1, 334080, Note_on_c, 9, 36, 106
1, 334104, Note_on_c, 9, 46, 0
1, 334399, Note_on_c, 9, 36, 0
1, 334400, Note_on_c, 9, 36, 106
1, 334559, Note_on_c, 9, 36, 0
1, 334560, Note_on_c, 9, 40, 102
1, 334560, Note_on_c, 9, 46, 86
1, 334576, Note_on_c, 9, 46, 0
1, 334879, Note_on_c, 9, 40, 0
1, 334880, Note_on_c, 9, 40, 102
1, 335039, Note_on_c, 9, 40, 0
1, 335040, Note_on_c, 9, 49, 82
1, 335040, Note_on_c, 9, 36, 106
1, 335056, Note_on_c, 9, 49, 0
1, 335359, Note_on_c, 9, 36, 0
1, 335360, Note_on_c, 9, 46, 54
1, 335360, Note_on_c, 9, 36, 106
1, 335367, Note_on_c, 9, 46, 0
1, 335519, Note_on_c, 9, 36, 0
1, 335520, Note_on_c, 9, 40, 102
1, 335679, Note_on_c, 9, 40, 0
1, 335680, Note_on_c, 9, 40, 102
1, 335839, Note_on_c, 9, 40, 0
1, 335840, Note_on_c, 9, 40, 102
1, 335999, Note_on_c, 9, 40, 0
1, 336000, Note_on_c, 9, 49, 82
1, 336000, Note_on_c, 9, 36, 106
1, 336024, Note_on_c, 9, 49, 0
1, 336319, Note_on_c, 9, 36, 0
1, 336320, Note_on_c, 9, 36, 106
1, 336480, Note_on_c, 9, 40, 102
1, 336480, Note_on_c, 9, 46, 86
1, 336504, Note_on_c, 9, 46, 0
1, 336639, Note_on_c, 9, 36, 0
1, 336640, Note_on_c, 9, 36, 106
1, 336959, Note_on_c, 9, 40, 0
1, 336959, Note_on_c, 9, 36, 0
1, 336960, Note_on_c, 9, 46, 86
1, 336960, Note_on_c, 9, 36, 106
1, 336984, Note_on_c, 9, 46, 0
1, 337279, Note_on_c, 9, 36, 0
1, 337280, Note_on_c, 9, 36, 106
1, 337439, Note_on_c, 9, 36, 0
1, 337440, Note_on_c, 9, 40, 102
1, 337440, Note_on_c, 9, 57, 48
1, 337464, Note_on_c, 9, 57, 0
1, 337919, Note_on_c, 9, 40, 0
1, 337920, Note_on_c, 9, 46, 86
1, 337920, Note_on_c, 9, 36, 106
1, 337944, Note_on_c, 9, 46, 0
1, 338239, Note_on_c, 9, 36, 0
1, 338240, Note_on_c, 9, 36, 106
1, 338400, Note_on_c, 9, 40, 102
1, 338400, Note_on_c, 9, 46, 86
1, 338424, Note_on_c, 9, 46, 0
1, 338559, Note_on_c, 9, 36, 0
1, 338560, Note_on_c, 9, 36, 106
1, 338879, Note_on_c, 9, 40, 0
1, 338879, Note_on_c, 9, 36, 0
1, 338880, Note_on_c, 9, 46, 86
1, 338880, Note_on_c, 9, 36, 106
1, 338904, Note_on_c, 9, 46, 0
1, 339199, Note_on_c, 9, 36, 0
1, 339200, Note_on_c, 9, 36, 106
1, 339359, Note_on_c, 9, 36, 0
1, 339360, Note_on_c, 9, 40, 102
1, 339360, Note_on_c, 9, 57, 48
1, 339384, Note_on_c, 9, 57, 0
1, 339839, Note_on_c, 9, 40, 0
1, 339840, Note_on_c, 9, 46, 86
1, 339840, Note_on_c, 9, 36, 106
1, 339864, Note_on_c, 9, 46, 0
1, 340159, Note_on_c, 9, 36, 0
1, 340160, Note_on_c, 9, 36, 106
1, 340320, Note_on_c, 9, 40, 102
1, 340320, Note_on_c, 9, 46, 86
1, 340344, Note_on_c, 9, 46, 0
1, 340479, Note_on_c, 9, 36, 0
1, 340480, Note_on_c, 9, 36, 106
1, 340799, Note_on_c, 9, 40, 0
1, 340799, Note_on_c, 9, 36, 0
1, 340800, Note_on_c, 9, 46, 86
1, 340800, Note_on_c, 9, 36, 106
1, 340824, Note_on_c, 9, 46, 0
1, 341119, Note_on_c, 9, 36, 0
1, 341120, Note_on_c, 9, 36, 106
1, 341279, Note_on_c, 9, 36, 0
1, 341280, Note_on_c, 9, 40, 102
1, 341280, Note_on_c, 9, 57, 48
1, 341304, Note_on_c, 9, 57, 0
1, 341759, Note_on_c, 9, 40, 0
1, 341760, Note_on_c, 9, 46, 86
1, 341760, Note_on_c, 9, 36, 106
1, 341784, Note_on_c, 9, 46, 0
1, 342079, Note_on_c, 9, 36, 0
1, 342080, Note_on_c, 9, 36, 106
1, 342240, Note_on_c, 9, 40, 102
1, 342240, Note_on_c, 9, 46, 86
1, 342264, Note_on_c, 9, 46, 0
1, 342399, Note_on_c, 9, 36, 0
1, 342400, Note_on_c, 9, 36, 106
1, 342719, Note_on_c, 9, 40, 0
1, 342719, Note_on_c, 9, 36, 0
1, 342720, Note_on_c, 9, 46, 86
1, 342720, Note_on_c, 9, 36, 106
1, 342744, Note_on_c, 9, 46, 0
1, 343039, Note_on_c, 9, 36, 0
1, 343040, Note_on_c, 9, 36, 106
1, 343199, Note_on_c, 9, 36, 0
1, 343200, Note_on_c, 9, 40, 102
1, 343200, Note_on_c, 9, 57, 48
1, 343224, Note_on_c, 9, 57, 0
1, 343679, Note_on_c, 9, 40, 0
1, 343680, Note_on_c, 9, 46, 86
1, 343680, Note_on_c, 9, 36, 106
1, 343704, Note_on_c, 9, 46, 0
1, 343999, Note_on_c, 9, 36, 0
1, 344000, Note_on_c, 9, 36, 106
1, 344160, Note_on_c, 9, 40, 102
1, 344160, Note_on_c, 9, 46, 86
1, 344184, Note_on_c, 9, 46, 0
1, 344319, Note_on_c, 9, 36, 0
1, 344320, Note_on_c, 9, 36, 106
1, 344639, Note_on_c, 9, 40, 0
1, 344639, Note_on_c, 9, 36, 0
1, 344640, Note_on_c, 9, 46, 86
1, 344640, Note_on_c, 9, 36, 106
1, 344664, Note_on_c, 9, 46, 0
1, 344959, Note_on_c, 9, 36, 0
1, 344960, Note_on_c, 9, 36, 106
1, 345119, Note_on_c, 9, 36, 0
1, 345120, Note_on_c, 9, 40, 102
1, 345120, Note_on_c, 9, 57, 48
1, 345144, Note_on_c, 9, 57, 0
1, 345599, Note_on_c, 9, 40, 0
1, 345600, Note_on_c, 9, 46, 86
1, 345600, Note_on_c, 9, 36, 106
1, 345624, Note_on_c, 9, 46, 0
1, 345919, Note_on_c, 9, 36, 0
1, 345920, Note_on_c, 9, 36, 106
1, 346080, Note_on_c, 9, 40, 102
1, 346080, Note_on_c, 9, 46, 86
1, 346104, Note_on_c, 9, 46, 0
1, 346239, Note_on_c, 9, 36, 0
1, 346240, Note_on_c, 9, 36, 106
1, 346559, Note_on_c, 9, 40, 0
1, 346559, Note_on_c, 9, 36, 0
1, 346560, Note_on_c, 9, 46, 86
1, 346560, Note_on_c, 9, 36, 106
1, 346584, Note_on_c, 9, 46, 0
1, 346879, Note_on_c, 9, 36, 0
1, 346880, Note_on_c, 9, 36, 106
1, 347039, Note_on_c, 9, 36, 0
1, 347040, Note_on_c, 9, 40, 102
1, 347040, Note_on_c, 9, 57, 48
1, 347064, Note_on_c, 9, 57, 0
1, 347519, Note_on_c, 9, 40, 0
1, 347520, Note_on_c, 9, 49, 82
1, 347520, Note_on_c, 9, 36, 106
1, 347538, Note_on_c, 9, 49, 0
1, 347839, Note_on_c, 9, 36, 0
1, 347840, Note_on_c, 9, 36, 106
1, 347970, Note_on_c, 9, 40, 102
1, 347999, Note_on_c, 9, 36, 0
1, 347999, Note_on_c, 9, 40, 0
1, 348000, Note_on_c, 9, 40, 102
1, 348159, Note_on_c, 9, 40, 0
1, 348160, Note_on_c, 9, 40, 102
1, 348319, Note_on_c, 9, 40, 0
1, 348320, Note_on_c, 9, 40, 102
1, 348479, Note_on_c, 9, 40, 0
1, 348480, Note_on_c, 9, 49, 82
1, 348480, Note_on_c, 9, 36, 106
1, 348498, Note_on_c, 9, 49, 0
1, 348799, Note_on_c, 9, 36, 0
1, 348800, Note_on_c, 9, 36, 106
1, 348930, Note_on_c, 9, 40, 102
1, 348959, Note_on_c, 9, 36, 0
1, 348959, Note_on_c, 9, 40, 0
1, 348960, Note_on_c, 9, 40, 102
1, 349119, Note_on_c, 9, 40, 0
1, 349120, Note_on_c, 9, 40, 102
1, 349279, Note_on_c, 9, 40, 0
1, 349280, Note_on_c, 9, 40, 102
1, 349439, Note_on_c, 9, 40, 0
1, 349440, Note_on_c, 9, 49, 82
1, 349440, Note_on_c, 9, 36, 106
1, 349458, Note_on_c, 9, 49, 0
1, 349759, Note_on_c, 9, 36, 0
1, 349760, Note_on_c, 9, 36, 106
1, 349890, Note_on_c, 9, 40, 102
1, 349919, Note_on_c, 9, 36, 0
1, 349919, Note_on_c, 9, 40, 0
1, 349920, Note_on_c, 9, 40, 102
1, 350039, Note_on_c, 9, 40, 0
1, 350040, Note_on_c, 9, 40, 102
1, 350279, Note_on_c, 9, 40, 0
1, 350280, Note_on_c, 9, 40, 102
1, 350339, Note_on_c, 9, 40, 0
1, 350370, Note_on_c, 9, 45, 95
1, 350399, Note_on_c, 9, 45, 0
1, 350400, Note_on_c, 9, 45, 95
1, 350559, Note_on_c, 9, 45, 0
1, 350560, Note_on_c, 9, 45, 95
1, 350719, Note_on_c, 9, 45, 0
1, 350720, Note_on_c, 9, 45, 95
1, 350879, Note_on_c, 9, 45, 0
1, 350880, Note_on_c, 9, 41, 98
1, 351039, Note_on_c, 9, 41, 0
1, 351040, Note_on_c, 9, 41, 98
1, 351199, Note_on_c, 9, 41, 0
1, 351200, Note_on_c, 9, 41, 98
1, 351359, Note_on_c, 9, 41, 0
1, 351360, Note_on_c, 9, 49, 82
1, 351360, Note_on_c, 9, 36, 106
1, 351376, Note_on_c, 9, 49, 0
1, 351679, Note_on_c, 9, 36, 0
1, 351680, Note_on_c, 9, 51, 95
1, 351680, Note_on_c, 9, 36, 106
1, 351687, Note_on_c, 9, 51, 0
1, 351840, Note_on_c, 9, 40, 102
1, 351999, Note_on_c, 9, 36, 0
1, 351999, Note_on_c, 9, 40, 0
1, 352000, Note_on_c, 9, 51, 95
1, 352000, Note_on_c, 9, 36, 106
1, 352016, Note_on_c, 9, 51, 0
1, 352319, Note_on_c, 9, 36, 0
1, 352320, Note_on_c, 9, 51, 95
1, 352320, Note_on_c, 9, 36, 106
1, 352336, Note_on_c, 9, 51, 0
1, 352639, Note_on_c, 9, 36, 0
1, 352640, Note_on_c, 9, 51, 95
1, 352640, Note_on_c, 9, 36, 106
1, 352647, Note_on_c, 9, 51, 0
1, 352800, Note_on_c, 9, 40, 102
1, 352959, Note_on_c, 9, 36, 0
1, 352959, Note_on_c, 9, 40, 0
1, 352960, Note_on_c, 9, 51, 95
1, 352960, Note_on_c, 9, 36, 106
1, 352976, Note_on_c, 9, 51, 0
1, 353279, Note_on_c, 9, 36, 0
1, 353280, Note_on_c, 9, 51, 95
1, 353280, Note_on_c, 9, 36, 106
1, 353296, Note_on_c, 9, 51, 0
1, 353599, Note_on_c, 9, 36, 0
1, 353600, Note_on_c, 9, 51, 95
1, 353600, Note_on_c, 9, 36, 106
1, 353607, Note_on_c, 9, 51, 0
1, 353760, Note_on_c, 9, 40, 102
1, 353919, Note_on_c, 9, 36, 0
1, 353919, Note_on_c, 9, 40, 0
1, 353920, Note_on_c, 9, 51, 95
1, 353920, Note_on_c, 9, 36, 106
1, 353936, Note_on_c, 9, 51, 0
1, 354239, Note_on_c, 9, 36, 0
1, 354240, Note_on_c, 9, 51, 95
1, 354240, Note_on_c, 9, 36, 106
1, 354256, Note_on_c, 9, 51, 0
1, 354559, Note_on_c, 9, 36, 0
1, 354560, Note_on_c, 9, 51, 95
1, 354560, Note_on_c, 9, 36, 106
1, 354567, Note_on_c, 9, 51, 0
1, 354719, Note_on_c, 9, 36, 0
1, 354720, Note_on_c, 9, 40, 102
1, 354879, Note_on_c, 9, 40, 0
1, 354880, Note_on_c, 9, 40, 102
1, 355039, Note_on_c, 9, 40, 0
1, 355040, Note_on_c, 9, 40, 102
1, 355199, Note_on_c, 9, 40, 0
1, 355200, Note_on_c, 9, 49, 82
1, 355200, Note_on_c, 9, 36, 106
1, 355216, Note_on_c, 9, 49, 0
1, 355519, Note_on_c, 9, 36, 0
1, 355520, Note_on_c, 9, 51, 95
1, 355520, Note_on_c, 9, 36, 106
1, 355527, Note_on_c, 9, 51, 0
1, 355680, Note_on_c, 9, 40, 102
1, 355839, Note_on_c, 9, 36, 0
1, 355839, Note_on_c, 9, 40, 0
1, 355840, Note_on_c, 9, 51, 95
1, 355840, Note_on_c, 9, 36, 106
1, 355856, Note_on_c, 9, 51, 0
1, 356159, Note_on_c, 9, 36, 0
1, 356160, Note_on_c, 9, 51, 95
1, 356160, Note_on_c, 9, 36, 106
1, 356176, Note_on_c, 9, 51, 0
1, 356479, Note_on_c, 9, 36, 0
1, 356480, Note_on_c, 9, 51, 95
1, 356480, Note_on_c, 9, 36, 106
1, 356487, Note_on_c, 9, 51, 0
1, 356640, Note_on_c, 9, 40, 102
1, 356799, Note_on_c, 9, 36, 0
1, 356799, Note_on_c, 9, 40, 0
1, 356800, Note_on_c, 9, 51, 95
1, 356800, Note_on_c, 9, 36, 106
1, 356816, Note_on_c, 9, 51, 0
1, 357119, Note_on_c, 9, 36, 0
1, 357120, Note_on_c, 9, 51, 95
1, 357120, Note_on_c, 9, 36, 106
1, 357136, Note_on_c, 9, 51, 0
1, 357439, Note_on_c, 9, 36, 0
1, 357440, Note_on_c, 9, 51, 95
1, 357440, Note_on_c, 9, 36, 106
1, 357447, Note_on_c, 9, 51, 0
1, 357600, Note_on_c, 9, 40, 102
1, 357759, Note_on_c, 9, 36, 0
1, 357759, Note_on_c, 9, 40, 0
1, 357760, Note_on_c, 9, 51, 95
1, 357760, Note_on_c, 9, 36, 106
1, 357776, Note_on_c, 9, 51, 0
1, 358079, Note_on_c, 9, 36, 0
1, 358080, Note_on_c, 9, 51, 95
1, 358080, Note_on_c, 9, 36, 106
1, 358096, Note_on_c, 9, 51, 0
1, 358399, Note_on_c, 9, 36, 0
1, 358400, Note_on_c, 9, 51, 95
1, 358400, Note_on_c, 9, 36, 106
1, 358407, Note_on_c, 9, 51, 0
1, 358559, Note_on_c, 9, 36, 0
1, 358560, Note_on_c, 9, 40, 102
1, 358719, Note_on_c, 9, 40, 0
1, 358720, Note_on_c, 9, 40, 102
1, 358879, Note_on_c, 9, 40, 0
1, 358880, Note_on_c, 9, 40, 102
1, 359039, Note_on_c, 9, 40, 0
1, 359040, Note_on_c, 9, 49, 82
1, 359040, Note_on_c, 9, 36, 106
1, 359056, Note_on_c, 9, 49, 0
1, 359359, Note_on_c, 9, 36, 0
1, 359360, Note_on_c, 9, 51, 95
1, 359360, Note_on_c, 9, 36, 106
1, 359367, Note_on_c, 9, 51, 0
1, 359520, Note_on_c, 9, 40, 102
1, 359679, Note_on_c, 9, 36, 0
1, 359679, Note_on_c, 9, 40, 0
1, 359680, Note_on_c, 9, 51, 95
1, 359680, Note_on_c, 9, 36, 106
1, 359696, Note_on_c, 9, 51, 0
1, 359999, Note_on_c, 9, 36, 0
1, 360000, Note_on_c, 9, 51, 95
1, 360000, Note_on_c, 9, 36, 106
1, 360016, Note_on_c, 9, 51, 0
1, 360319, Note_on_c, 9, 36, 0
1, 360320, Note_on_c, 9, 51, 95
1, 360320, Note_on_c, 9, 36, 106
1, 360327, Note_on_c, 9, 51, 0
1, 360480, Note_on_c, 9, 40, 102
1, 360639, Note_on_c, 9, 36, 0
1, 360639, Note_on_c, 9, 40, 0
1, 360640, Note_on_c, 9, 51, 95
1, 360640, Note_on_c, 9, 36, 106
1, 360656, Note_on_c, 9, 51, 0
1, 360959, Note_on_c, 9, 36, 0
1, 360960, Note_on_c, 9, 51, 95
1, 360960, Note_on_c, 9, 36, 106
1, 360976, Note_on_c, 9, 51, 0
1, 361279, Note_on_c, 9, 36, 0
1, 361280, Note_on_c, 9, 51, 95
1, 361280, Note_on_c, 9, 36, 106
1, 361287, Note_on_c, 9, 51, 0
1, 361440, Note_on_c, 9, 40, 102
1, 361599, Note_on_c, 9, 36, 0
1, 361599, Note_on_c, 9, 40, 0
1, 361600, Note_on_c, 9, 51, 95
1, 361600, Note_on_c, 9, 36, 106
1, 361616, Note_on_c, 9, 51, 0
1, 361919, Note_on_c, 9, 36, 0
1, 361920, Note_on_c, 9, 51, 95
1, 361920, Note_on_c, 9, 36, 106
1, 361936, Note_on_c, 9, 51, 0
1, 362239, Note_on_c, 9, 36, 0
1, 362240, Note_on_c, 9, 51, 95
1, 362240, Note_on_c, 9, 36, 106
1, 362247, Note_on_c, 9, 51, 0
1, 362399, Note_on_c, 9, 36, 0
1, 362400, Note_on_c, 9, 40, 102
1, 362559, Note_on_c, 9, 40, 0
1, 362560, Note_on_c, 9, 40, 102
1, 362719, Note_on_c, 9, 40, 0
1, 362720, Note_on_c, 9, 40, 102
1, 362879, Note_on_c, 9, 40, 0
1, 362880, Note_on_c, 9, 51, 95
1, 362880, Note_on_c, 9, 36, 106
1, 362896, Note_on_c, 9, 51, 0
1, 363199, Note_on_c, 9, 36, 0
1, 363200, Note_on_c, 9, 51, 95
1, 363200, Note_on_c, 9, 36, 106
1, 363207, Note_on_c, 9, 51, 0
1, 363360, Note_on_c, 9, 40, 102
1, 363519, Note_on_c, 9, 36, 0
1, 363519, Note_on_c, 9, 40, 0
1, 363520, Note_on_c, 9, 51, 95
1, 363520, Note_on_c, 9, 36, 106
1, 363536, Note_on_c, 9, 51, 0
1, 363839, Note_on_c, 9, 36, 0
1, 363840, Note_on_c, 9, 51, 95
1, 363840, Note_on_c, 9, 36, 106
1, 363856, Note_on_c, 9, 51, 0
1, 364159, Note_on_c, 9, 36, 0
1, 364160, Note_on_c, 9, 51, 95
1, 364160, Note_on_c, 9, 36, 106
1, 364167, Note_on_c, 9, 51, 0
1, 364320, Note_on_c, 9, 40, 102
1, 364479, Note_on_c, 9, 36, 0
1, 364479, Note_on_c, 9, 40, 0
1, 364480, Note_on_c, 9, 51, 95
1, 364480, Note_on_c, 9, 36, 106
1, 364496, Note_on_c, 9, 51, 0
1, 364799, Note_on_c, 9, 36, 0
1, 364800, Note_on_c, 9, 51, 95
1, 364800, Note_on_c, 9, 36, 106
1, 364816, Note_on_c, 9, 51, 0
1, 365119, Note_on_c, 9, 36, 0
1, 365120, Note_on_c, 9, 51, 95
1, 365120, Note_on_c, 9, 36, 106
1, 365127, Note_on_c, 9, 51, 0
1, 365280, Note_on_c, 9, 40, 102
1, 365439, Note_on_c, 9, 36, 0
1, 365439, Note_on_c, 9, 40, 0
1, 365440, Note_on_c, 9, 51, 95
1, 365440, Note_on_c, 9, 36, 106
1, 365456, Note_on_c, 9, 51, 0
1, 365759, Note_on_c, 9, 36, 0
1, 365760, Note_on_c, 9, 40, 102
1, 365919, Note_on_c, 9, 40, 0
1, 365920, Note_on_c, 9, 40, 102
1, 366079, Note_on_c, 9, 40, 0
1, 366080, Note_on_c, 9, 40, 102
1, 366239, Note_on_c, 9, 40, 0
1, 366240, Note_on_c, 9, 40, 102
1, 366399, Note_on_c, 9, 40, 0
1, 366400, Note_on_c, 9, 40, 102
1, 366559, Note_on_c, 9, 40, 0
1, 366560, Note_on_c, 9, 40, 102
1, 366719, Note_on_c, 9, 40, 0
1, 366720, Note_on_c, 9, 49, 82
1, 366720, Note_on_c, 9, 57, 80
1, 366720, Note_on_c, 9, 36, 106
1, 366796, Note_on_c, 9, 49, 0
1, 366796, Note_on_c, 9, 57, 0
1, 368159, Note_on_c, 9, 36, 0
1, 368160, End_track
0, 0, End_of_file
