0, 0, Header, 1, 1, 480
1, 0, Start_track
1, 0, Title_t, "Drumset"
1, 0, Time_signature, 4, 2, 24, 8
1, 0, Key_signature, 0, "major"
1, 0, Tempo, 500000
1, 0, Control_c, 9, 121, 0
1, 0, Program_c, 9, 0
1, 0, Control_c, 9, 7, 100
1, 0, Control_c, 9, 10, 64
1, 0, Control_c, 9, 91, 0
1, 0, Control_c, 9, 93, 0
1, 0, MIDI_port, 0
1, 0, Note_on_c, 9, 37, 127
1, 22, Note_on_c, 9, 37, 0
1, 480, Note_on_c, 9, 37, 127
1, 502, Note_on_c, 9, 37, 0
1, 960, Note_on_c, 9, 37, 127
1, 982, Note_on_c, 9, 37, 0
1, 1440, Note_on_c, 9, 37, 127
1, 1462, Note_on_c, 9, 37, 0
1, 17280, Note_on_c, 9, 40, 127
1, 17319, Note_on_c, 9, 40, 0
1, 17320, Note_on_c, 9, 40, 127
1, 17399, Note_on_c, 9, 40, 0
1, 17520, Note_on_c, 9, 35, 127
1, 17759, Note_on_c, 9, 35, 0
1, 17760, Note_on_c, 9, 40, 127
1, 17819, Note_on_c, 9, 40, 0
1, 17820, Note_on_c, 9, 40, 127
1, 17999, Note_on_c, 9, 40, 0
1, 18000, Note_on_c, 9, 35, 127
1, 18239, Note_on_c, 9, 35, 0
1, 18240, Note_on_c, 9, 40, 127
1, 18279, Note_on_c, 9, 40, 0
1, 18280, Note_on_c, 9, 40, 127
1, 18359, Note_on_c, 9, 40, 0
1, 18480, Note_on_c, 9, 47, 127
1, 18480, Note_on_c, 9, 35, 127
1, 18719, Note_on_c, 9, 47, 0
1, 18719, Note_on_c, 9, 35, 0
1, 18720, Note_on_c, 9, 45, 127
1, 18720, Note_on_c, 9, 35, 127
1, 18959, Note_on_c, 9, 35, 0
1, 18960, Note_on_c, 9, 43, 127
1, 19199, Note_on_c, 9, 45, 0
1, 19199, Note_on_c, 9, 43, 0
1, 19200, Note_on_c, 9, 57, 127
1, 19200, Note_on_c, 9, 35, 127
1, 19222, Note_on_c, 9, 57, 0
1, 19679, Note_on_c, 9, 35, 0
1, 19680, Note_on_c, 9, 51, 127
1, 19690, Note_on_c, 9, 51, 0
1, 19920, Note_on_c, 9, 51, 127
1, 19930, Note_on_c, 9, 51, 0
1, 20160, Note_on_c, 9, 40, 127
1, 20160, Note_on_c, 9, 51, 127
1, 20182, Note_on_c, 9, 51, 0
1, 20639, Note_on_c, 9, 40, 0
1, 20640, Note_on_c, 9, 51, 127
1, 20650, Note_on_c, 9, 51, 0
1, 20880, Note_on_c, 9, 51, 127
1, 20880, Note_on_c, 9, 35, 127
1, 20890, Note_on_c, 9, 51, 0
1, 21119, Note_on_c, 9, 35, 0
1, 21120, Note_on_c, 9, 51, 127
1, 21120, Note_on_c, 9, 35, 127
1, 21130, Note_on_c, 9, 51, 0
1, 21360, Note_on_c, 9, 51, 127
1, 21370, Note_on_c, 9, 51, 0
1, 21599, Note_on_c, 9, 35, 0
1, 21600, Note_on_c, 9, 51, 127
1, 21622, Note_on_c, 9, 51, 0
1, 22080, Note_on_c, 9, 40, 127
1, 22080, Note_on_c, 9, 51, 127
1, 22102, Note_on_c, 9, 51, 0
1, 22559, Note_on_c, 9, 40, 0
1, 22560, Note_on_c, 9, 51, 127
1, 22570, Note_on_c, 9, 51, 0
1, 22800, Note_on_c, 9, 51, 127
1, 22810, Note_on_c, 9, 51, 0
1, 23040, Note_on_c, 9, 51, 127
1, 23040, Note_on_c, 9, 35, 127
1, 23050, Note_on_c, 9, 51, 0
1, 23280, Note_on_c, 9, 51, 127
1, 23290, Note_on_c, 9, 51, 0
1, 23519, Note_on_c, 9, 35, 0
1, 23520, Note_on_c, 9, 51, 127
1, 23530, Note_on_c, 9, 51, 0
1, 23760, Note_on_c, 9, 51, 127
1, 23770, Note_on_c, 9, 51, 0
1, 24000, Note_on_c, 9, 40, 127
1, 24000, Note_on_c, 9, 51, 127
1, 24010, Note_on_c, 9, 51, 0
1, 24239, Note_on_c, 9, 40, 0
1, 24240, Note_on_c, 9, 51, 125
1, 24250, Note_on_c, 9, 51, 0
1, 24480, Note_on_c, 9, 51, 127
1, 24487, Note_on_c, 9, 51, 0
1, 24705, Note_on_c, 9, 51, 127
1, 24715, Note_on_c, 9, 51, 0
1, 24720, Note_on_c, 9, 35, 127
1, 24959, Note_on_c, 9, 35, 0
1, 24960, Note_on_c, 9, 51, 127
1, 24960, Note_on_c, 9, 35, 127
1, 24970, Note_on_c, 9, 51, 0
1, 25200, Note_on_c, 9, 51, 127
1, 25210, Note_on_c, 9, 51, 0
1, 25439, Note_on_c, 9, 35, 0
1, 25440, Note_on_c, 9, 51, 127
1, 25440, Note_on_c, 9, 35, 127
1, 25450, Note_on_c, 9, 51, 0
1, 25695, Note_on_c, 9, 51, 113
1, 25704, Note_on_c, 9, 51, 0
1, 25919, Note_on_c, 9, 35, 0
1, 25920, Note_on_c, 9, 40, 127
1, 25920, Note_on_c, 9, 51, 127
1, 25930, Note_on_c, 9, 51, 0
1, 26159, Note_on_c, 9, 40, 0
1, 26160, Note_on_c, 9, 51, 127
1, 26160, Note_on_c, 9, 35, 127
1, 26170, Note_on_c, 9, 51, 0
1, 26279, Note_on_c, 9, 35, 0
1, 26280, Note_on_c, 9, 35, 127
1, 26399, Note_on_c, 9, 35, 0
1, 26400, Note_on_c, 9, 41, 127
1, 26400, Note_on_c, 9, 51, 127
1, 26400, Note_on_c, 9, 43, 127
1, 26410, Note_on_c, 9, 51, 0
1, 26639, Note_on_c, 9, 41, 0
1, 26639, Note_on_c, 9, 43, 0
1, 26640, Note_on_c, 9, 51, 127
1, 26640, Note_on_c, 9, 35, 127
1, 26650, Note_on_c, 9, 51, 0
1, 26879, Note_on_c, 9, 35, 0
1, 26880, Note_on_c, 9, 51, 127
1, 26880, Note_on_c, 9, 57, 127
1, 26880, Note_on_c, 9, 35, 127
1, 26902, Note_on_c, 9, 51, 0
1, 26902, Note_on_c, 9, 57, 0
1, 27359, Note_on_c, 9, 35, 0
1, 27360, Note_on_c, 9, 51, 127
1, 27370, Note_on_c, 9, 51, 0
1, 27600, Note_on_c, 9, 51, 127
1, 27610, Note_on_c, 9, 51, 0
1, 27840, Note_on_c, 9, 40, 127
1, 27840, Note_on_c, 9, 51, 127
1, 27850, Note_on_c, 9, 51, 0
1, 28079, Note_on_c, 9, 40, 0
1, 28080, Note_on_c, 9, 51, 127
1, 28090, Note_on_c, 9, 51, 0
1, 28320, Note_on_c, 9, 51, 127
1, 28330, Note_on_c, 9, 51, 0
1, 28560, Note_on_c, 9, 51, 123
1, 28560, Note_on_c, 9, 35, 127
1, 28570, Note_on_c, 9, 51, 0
1, 28799, Note_on_c, 9, 35, 0
1, 28800, Note_on_c, 9, 35, 127
1, 28860, Note_on_c, 9, 51, 127
1, 28867, Note_on_c, 9, 51, 0
1, 29070, Note_on_c, 9, 51, 127
1, 29073, Note_on_c, 9, 51, 0
1, 29279, Note_on_c, 9, 35, 0
1, 29280, Note_on_c, 9, 51, 127
1, 29302, Note_on_c, 9, 51, 0
1, 29760, Note_on_c, 9, 40, 127
1, 29760, Note_on_c, 9, 51, 127
1, 29782, Note_on_c, 9, 51, 0
1, 30239, Note_on_c, 9, 40, 0
1, 30240, Note_on_c, 9, 51, 127
1, 30262, Note_on_c, 9, 51, 0
1, 30720, Note_on_c, 9, 51, 127
1, 30720, Note_on_c, 9, 35, 127
1, 30730, Note_on_c, 9, 51, 0
1, 30960, Note_on_c, 9, 51, 127
1, 30970, Note_on_c, 9, 51, 0
1, 31199, Note_on_c, 9, 35, 0
1, 31200, Note_on_c, 9, 51, 127
1, 31210, Note_on_c, 9, 51, 0
1, 31440, Note_on_c, 9, 51, 125
1, 31450, Note_on_c, 9, 51, 0
1, 31680, Note_on_c, 9, 40, 127
1, 31680, Note_on_c, 9, 51, 127
1, 31690, Note_on_c, 9, 51, 0
1, 31919, Note_on_c, 9, 40, 0
1, 31920, Note_on_c, 9, 51, 127
1, 31930, Note_on_c, 9, 51, 0
1, 32160, Note_on_c, 9, 51, 127
1, 32170, Note_on_c, 9, 51, 0
1, 32400, Note_on_c, 9, 51, 127
1, 32400, Note_on_c, 9, 35, 127
1, 32410, Note_on_c, 9, 51, 0
1, 32639, Note_on_c, 9, 35, 0
1, 32640, Note_on_c, 9, 51, 127
1, 32640, Note_on_c, 9, 35, 127
1, 32650, Note_on_c, 9, 51, 0
1, 32880, Note_on_c, 9, 51, 127
1, 32890, Note_on_c, 9, 51, 0
1, 33119, Note_on_c, 9, 35, 0
1, 33120, Note_on_c, 9, 51, 127
1, 33120, Note_on_c, 9, 35, 127
1, 33130, Note_on_c, 9, 51, 0
1, 33360, Note_on_c, 9, 51, 127
1, 33370, Note_on_c, 9, 51, 0
1, 33599, Note_on_c, 9, 35, 0
1, 33630, Note_on_c, 9, 40, 127
1, 33630, Note_on_c, 9, 51, 127
1, 33631, Note_on_c, 9, 51, 0
1, 33659, Note_on_c, 9, 40, 0
1, 33660, Note_on_c, 9, 40, 127
1, 33839, Note_on_c, 9, 40, 0
1, 33840, Note_on_c, 9, 45, 127
1, 33840, Note_on_c, 9, 51, 127
1, 33840, Note_on_c, 9, 35, 127
1, 33850, Note_on_c, 9, 51, 0
1, 34079, Note_on_c, 9, 45, 0
1, 34079, Note_on_c, 9, 35, 0
1, 34080, Note_on_c, 9, 51, 127
1, 34080, Note_on_c, 9, 43, 127
1, 34090, Note_on_c, 9, 51, 0
1, 34319, Note_on_c, 9, 43, 0
1, 34320, Note_on_c, 9, 51, 124
1, 34320, Note_on_c, 9, 35, 127
1, 34330, Note_on_c, 9, 51, 0
1, 34559, Note_on_c, 9, 35, 0
1, 34560, Note_on_c, 9, 42, 127
1, 34560, Note_on_c, 9, 49, 127
1, 34560, Note_on_c, 9, 35, 127
1, 34582, Note_on_c, 9, 42, 0
1, 34582, Note_on_c, 9, 49, 0
1, 35039, Note_on_c, 9, 35, 0
1, 35040, Note_on_c, 9, 46, 127
1, 35062, Note_on_c, 9, 46, 0
1, 35520, Note_on_c, 9, 40, 127
1, 35520, Note_on_c, 9, 44, 127
1, 35542, Note_on_c, 9, 44, 0
1, 35759, Note_on_c, 9, 40, 0
1, 35760, Note_on_c, 9, 42, 127
1, 35770, Note_on_c, 9, 42, 0
1, 36000, Note_on_c, 9, 44, 127
1, 36022, Note_on_c, 9, 44, 0
1, 36240, Note_on_c, 9, 42, 117
1, 36250, Note_on_c, 9, 42, 0
1, 36480, Note_on_c, 9, 44, 127
1, 36480, Note_on_c, 9, 35, 127
1, 36502, Note_on_c, 9, 44, 0
1, 36720, Note_on_c, 9, 42, 127
1, 36730, Note_on_c, 9, 42, 0
1, 36959, Note_on_c, 9, 35, 0
1, 36960, Note_on_c, 9, 44, 127
1, 36982, Note_on_c, 9, 44, 0
1, 37200, Note_on_c, 9, 42, 110
1, 37210, Note_on_c, 9, 42, 0
1, 37440, Note_on_c, 9, 40, 127
1, 37440, Note_on_c, 9, 44, 127
1, 37462, Note_on_c, 9, 44, 0
1, 37679, Note_on_c, 9, 40, 0
1, 37680, Note_on_c, 9, 42, 125
1, 37690, Note_on_c, 9, 42, 0
1, 37920, Note_on_c, 9, 44, 127
1, 37942, Note_on_c, 9, 44, 0
1, 38160, Note_on_c, 9, 42, 117
1, 38170, Note_on_c, 9, 42, 0
1, 38400, Note_on_c, 9, 42, 127
1, 38400, Note_on_c, 9, 35, 127
1, 38422, Note_on_c, 9, 42, 0
1, 38639, Note_on_c, 9, 35, 0
1, 38640, Note_on_c, 9, 44, 122
1, 38650, Note_on_c, 9, 44, 0
1, 38880, Note_on_c, 9, 42, 127
1, 38902, Note_on_c, 9, 42, 0
1, 39120, Note_on_c, 9, 44, 120
1, 39130, Note_on_c, 9, 44, 0
1, 39360, Note_on_c, 9, 40, 127
1, 39360, Note_on_c, 9, 42, 127
1, 39382, Note_on_c, 9, 42, 0
1, 39600, Note_on_c, 9, 44, 120
1, 39610, Note_on_c, 9, 44, 0
1, 39839, Note_on_c, 9, 40, 0
1, 39840, Note_on_c, 9, 42, 127
1, 39862, Note_on_c, 9, 42, 0
1, 40080, Note_on_c, 9, 44, 121
1, 40090, Note_on_c, 9, 44, 0
1, 40320, Note_on_c, 9, 42, 127
1, 40320, Note_on_c, 9, 35, 127
1, 40342, Note_on_c, 9, 42, 0
1, 40559, Note_on_c, 9, 35, 0
1, 40560, Note_on_c, 9, 44, 127
1, 40570, Note_on_c, 9, 44, 0
1, 40800, Note_on_c, 9, 42, 127
1, 40800, Note_on_c, 9, 35, 127
1, 40822, Note_on_c, 9, 42, 0
1, 41039, Note_on_c, 9, 35, 0
1, 41040, Note_on_c, 9, 44, 127
1, 41050, Note_on_c, 9, 44, 0
1, 41280, Note_on_c, 9, 40, 127
1, 41280, Note_on_c, 9, 42, 127
1, 41302, Note_on_c, 9, 42, 0
1, 41520, Note_on_c, 9, 44, 127
1, 41530, Note_on_c, 9, 44, 0
1, 41759, Note_on_c, 9, 40, 0
1, 41760, Note_on_c, 9, 46, 127
1, 41782, Note_on_c, 9, 46, 0
1, 42240, Note_on_c, 9, 42, 127
1, 42240, Note_on_c, 9, 35, 127
1, 42262, Note_on_c, 9, 42, 0
1, 42479, Note_on_c, 9, 35, 0
1, 42480, Note_on_c, 9, 44, 126
1, 42490, Note_on_c, 9, 44, 0
1, 42720, Note_on_c, 9, 42, 127
1, 42742, Note_on_c, 9, 42, 0
1, 42960, Note_on_c, 9, 44, 127
1, 42970, Note_on_c, 9, 44, 0
1, 43200, Note_on_c, 9, 40, 127
1, 43200, Note_on_c, 9, 42, 127
1, 43222, Note_on_c, 9, 42, 0
1, 43440, Note_on_c, 9, 44, 114
1, 43450, Note_on_c, 9, 44, 0
1, 43679, Note_on_c, 9, 40, 0
1, 43680, Note_on_c, 9, 42, 127
1, 43702, Note_on_c, 9, 42, 0
1, 43920, Note_on_c, 9, 44, 127
1, 43930, Note_on_c, 9, 44, 0
1, 44160, Note_on_c, 9, 42, 127
1, 44160, Note_on_c, 9, 35, 127
1, 44182, Note_on_c, 9, 42, 0
1, 44399, Note_on_c, 9, 35, 0
1, 44400, Note_on_c, 9, 44, 127
1, 44410, Note_on_c, 9, 44, 0
1, 44640, Note_on_c, 9, 42, 127
1, 44662, Note_on_c, 9, 42, 0
1, 44880, Note_on_c, 9, 44, 113
1, 44890, Note_on_c, 9, 44, 0
1, 45120, Note_on_c, 9, 40, 127
1, 45120, Note_on_c, 9, 42, 127
1, 45142, Note_on_c, 9, 42, 0
1, 45360, Note_on_c, 9, 44, 123
1, 45370, Note_on_c, 9, 44, 0
1, 45599, Note_on_c, 9, 40, 0
1, 45600, Note_on_c, 9, 42, 127
1, 45622, Note_on_c, 9, 42, 0
1, 45840, Note_on_c, 9, 44, 127
1, 45850, Note_on_c, 9, 44, 0
1, 46080, Note_on_c, 9, 42, 127
1, 46080, Note_on_c, 9, 35, 127
1, 46102, Note_on_c, 9, 42, 0
1, 46319, Note_on_c, 9, 35, 0
1, 46320, Note_on_c, 9, 44, 127
1, 46330, Note_on_c, 9, 44, 0
1, 46560, Note_on_c, 9, 42, 127
1, 46582, Note_on_c, 9, 42, 0
1, 46800, Note_on_c, 9, 44, 124
1, 46810, Note_on_c, 9, 44, 0
1, 47040, Note_on_c, 9, 40, 127
1, 47040, Note_on_c, 9, 42, 127
1, 47062, Note_on_c, 9, 42, 0
1, 47280, Note_on_c, 9, 44, 112
1, 47290, Note_on_c, 9, 44, 0
1, 47519, Note_on_c, 9, 40, 0
1, 47520, Note_on_c, 9, 42, 127
1, 47542, Note_on_c, 9, 42, 0
1, 47760, Note_on_c, 9, 44, 123
1, 47760, Note_on_c, 9, 35, 127
1, 47770, Note_on_c, 9, 44, 0
1, 47999, Note_on_c, 9, 35, 0
1, 48000, Note_on_c, 9, 42, 127
1, 48000, Note_on_c, 9, 35, 127
1, 48022, Note_on_c, 9, 42, 0
1, 48239, Note_on_c, 9, 35, 0
1, 48240, Note_on_c, 9, 44, 127
1, 48250, Note_on_c, 9, 44, 0
1, 48480, Note_on_c, 9, 42, 127
1, 48480, Note_on_c, 9, 35, 127
1, 48502, Note_on_c, 9, 42, 0
1, 48719, Note_on_c, 9, 35, 0
1, 48720, Note_on_c, 9, 44, 127
1, 48730, Note_on_c, 9, 44, 0
1, 48960, Note_on_c, 9, 40, 127
1, 49199, Note_on_c, 9, 40, 0
1, 49200, Note_on_c, 9, 45, 127
1, 49200, Note_on_c, 9, 35, 127
1, 49439, Note_on_c, 9, 45, 0
1, 49439, Note_on_c, 9, 35, 0
1, 49440, Note_on_c, 9, 43, 127
1, 49919, Note_on_c, 9, 43, 0
1, 49920, Note_on_c, 9, 42, 127
1, 49920, Note_on_c, 9, 35, 127
1, 49942, Note_on_c, 9, 42, 0
1, 50159, Note_on_c, 9, 35, 0
1, 50160, Note_on_c, 9, 44, 126
1, 50170, Note_on_c, 9, 44, 0
1, 50400, Note_on_c, 9, 46, 127
1, 50422, Note_on_c, 9, 46, 0
1, 50880, Note_on_c, 9, 40, 127
1, 50880, Note_on_c, 9, 42, 127
1, 50902, Note_on_c, 9, 42, 0
1, 51120, Note_on_c, 9, 44, 123
1, 51130, Note_on_c, 9, 44, 0
1, 51359, Note_on_c, 9, 40, 0
1, 51360, Note_on_c, 9, 42, 127
1, 51382, Note_on_c, 9, 42, 0
1, 51600, Note_on_c, 9, 44, 127
1, 51610, Note_on_c, 9, 44, 0
1, 51840, Note_on_c, 9, 42, 127
1, 51840, Note_on_c, 9, 35, 127
1, 51862, Note_on_c, 9, 42, 0
1, 52079, Note_on_c, 9, 35, 0
1, 52080, Note_on_c, 9, 44, 124
1, 52090, Note_on_c, 9, 44, 0
1, 52320, Note_on_c, 9, 42, 127
1, 52342, Note_on_c, 9, 42, 0
1, 52560, Note_on_c, 9, 44, 117
1, 52570, Note_on_c, 9, 44, 0
1, 52800, Note_on_c, 9, 40, 127
1, 52800, Note_on_c, 9, 42, 127
1, 52822, Note_on_c, 9, 42, 0
1, 53040, Note_on_c, 9, 44, 114
1, 53050, Note_on_c, 9, 44, 0
1, 53279, Note_on_c, 9, 40, 0
1, 53280, Note_on_c, 9, 42, 127
1, 53302, Note_on_c, 9, 42, 0
1, 53520, Note_on_c, 9, 44, 127
1, 53530, Note_on_c, 9, 44, 0
1, 53760, Note_on_c, 9, 42, 127
1, 53760, Note_on_c, 9, 35, 127
1, 53782, Note_on_c, 9, 42, 0
1, 53999, Note_on_c, 9, 35, 0
1, 54000, Note_on_c, 9, 44, 110
1, 54010, Note_on_c, 9, 44, 0
1, 54240, Note_on_c, 9, 42, 127
1, 54262, Note_on_c, 9, 42, 0
1, 54480, Note_on_c, 9, 44, 127
1, 54490, Note_on_c, 9, 44, 0
1, 54720, Note_on_c, 9, 40, 127
1, 54720, Note_on_c, 9, 42, 127
1, 54742, Note_on_c, 9, 42, 0
1, 54960, Note_on_c, 9, 44, 114
1, 54970, Note_on_c, 9, 44, 0
1, 55199, Note_on_c, 9, 40, 0
1, 55200, Note_on_c, 9, 42, 127
1, 55222, Note_on_c, 9, 42, 0
1, 55440, Note_on_c, 9, 44, 127
1, 55450, Note_on_c, 9, 44, 0
1, 55680, Note_on_c, 9, 42, 127
1, 55680, Note_on_c, 9, 35, 127
1, 55702, Note_on_c, 9, 42, 0
1, 55919, Note_on_c, 9, 35, 0
1, 55920, Note_on_c, 9, 44, 121
1, 55930, Note_on_c, 9, 44, 0
1, 56160, Note_on_c, 9, 42, 127
1, 56160, Note_on_c, 9, 35, 127
1, 56182, Note_on_c, 9, 42, 0
1, 56399, Note_on_c, 9, 35, 0
1, 56400, Note_on_c, 9, 44, 127
1, 56410, Note_on_c, 9, 44, 0
1, 56640, Note_on_c, 9, 40, 127
1, 56640, Note_on_c, 9, 42, 127
1, 56662, Note_on_c, 9, 42, 0
1, 56880, Note_on_c, 9, 44, 127
1, 56890, Note_on_c, 9, 44, 0
1, 57119, Note_on_c, 9, 40, 0
1, 57120, Note_on_c, 9, 46, 127
1, 57142, Note_on_c, 9, 46, 0
1, 57600, Note_on_c, 9, 42, 127
1, 57600, Note_on_c, 9, 35, 127
1, 57622, Note_on_c, 9, 42, 0
1, 57839, Note_on_c, 9, 35, 0
1, 57840, Note_on_c, 9, 44, 127
1, 57850, Note_on_c, 9, 44, 0
1, 58080, Note_on_c, 9, 42, 127
1, 58102, Note_on_c, 9, 42, 0
1, 58320, Note_on_c, 9, 44, 112
1, 58330, Note_on_c, 9, 44, 0
1, 58560, Note_on_c, 9, 40, 127
1, 58560, Note_on_c, 9, 42, 127
1, 58582, Note_on_c, 9, 42, 0
1, 58800, Note_on_c, 9, 44, 112
1, 58810, Note_on_c, 9, 44, 0
1, 59039, Note_on_c, 9, 40, 0
1, 59040, Note_on_c, 9, 42, 127
1, 59062, Note_on_c, 9, 42, 0
1, 59280, Note_on_c, 9, 44, 127
1, 59290, Note_on_c, 9, 44, 0
1, 59520, Note_on_c, 9, 42, 127
1, 59520, Note_on_c, 9, 35, 127
1, 59542, Note_on_c, 9, 42, 0
1, 59759, Note_on_c, 9, 35, 0
1, 59760, Note_on_c, 9, 44, 127
1, 59770, Note_on_c, 9, 44, 0
1, 60000, Note_on_c, 9, 42, 127
1, 60022, Note_on_c, 9, 42, 0
1, 60240, Note_on_c, 9, 44, 127
1, 60250, Note_on_c, 9, 44, 0
1, 60480, Note_on_c, 9, 40, 127
1, 60480, Note_on_c, 9, 42, 127
1, 60502, Note_on_c, 9, 42, 0
1, 60720, Note_on_c, 9, 44, 127
1, 60730, Note_on_c, 9, 44, 0
1, 60959, Note_on_c, 9, 40, 0
1, 60960, Note_on_c, 9, 42, 127
1, 60982, Note_on_c, 9, 42, 0
1, 61200, Note_on_c, 9, 44, 127
1, 61200, Note_on_c, 9, 35, 127
1, 61210, Note_on_c, 9, 44, 0
1, 61439, Note_on_c, 9, 35, 0
1, 61440, Note_on_c, 9, 40, 127
1, 61440, Note_on_c, 9, 49, 127
1, 61462, Note_on_c, 9, 49, 0
1, 61919, Note_on_c, 9, 40, 0
1, 61920, Note_on_c, 9, 46, 127
1, 61942, Note_on_c, 9, 46, 0
1, 62160, Note_on_c, 9, 35, 127
1, 62399, Note_on_c, 9, 35, 0
1, 62400, Note_on_c, 9, 40, 127
1, 62400, Note_on_c, 9, 49, 127
1, 62410, Note_on_c, 9, 49, 0
1, 62639, Note_on_c, 9, 40, 0
1, 62640, Note_on_c, 9, 46, 127
1, 62650, Note_on_c, 9, 46, 0
1, 62880, Note_on_c, 9, 35, 127
1, 63119, Note_on_c, 9, 35, 0
1, 63120, Note_on_c, 9, 35, 127
1, 63359, Note_on_c, 9, 35, 0
1, 63390, Note_on_c, 9, 40, 127
1, 63419, Note_on_c, 9, 40, 0
1, 63420, Note_on_c, 9, 40, 127
1, 63599, Note_on_c, 9, 40, 0
1, 63840, Note_on_c, 9, 35, 127
1, 64079, Note_on_c, 9, 35, 0
1, 64080, Note_on_c, 9, 47, 127
1, 64080, Note_on_c, 9, 35, 127
1, 64319, Note_on_c, 9, 47, 0
1, 64319, Note_on_c, 9, 35, 0
1, 64320, Note_on_c, 9, 45, 127
1, 64320, Note_on_c, 9, 35, 127
1, 64559, Note_on_c, 9, 35, 0
1, 64560, Note_on_c, 9, 35, 127
1, 64799, Note_on_c, 9, 45, 0
1, 64799, Note_on_c, 9, 35, 0
1, 64800, Note_on_c, 9, 41, 127
1, 64800, Note_on_c, 9, 35, 127
1, 64800, Note_on_c, 9, 43, 127
1, 65039, Note_on_c, 9, 41, 0
1, 65039, Note_on_c, 9, 35, 0
1, 65039, Note_on_c, 9, 43, 0
1, 65040, Note_on_c, 9, 41, 127
1, 65040, Note_on_c, 9, 35, 127
1, 65040, Note_on_c, 9, 43, 127
1, 65279, Note_on_c, 9, 41, 0
1, 65279, Note_on_c, 9, 35, 0
1, 65279, Note_on_c, 9, 43, 0
1, 65280, Note_on_c, 9, 49, 127
1, 65280, Note_on_c, 9, 35, 127
1, 65302, Note_on_c, 9, 49, 0
1, 65759, Note_on_c, 9, 35, 0
1, 65760, Note_on_c, 9, 51, 121
1, 65760, Note_on_c, 9, 35, 127
1, 65770, Note_on_c, 9, 51, 0
1, 66000, Note_on_c, 9, 51, 125
1, 66010, Note_on_c, 9, 51, 0
1, 66239, Note_on_c, 9, 35, 0
1, 66240, Note_on_c, 9, 40, 127
1, 66240, Note_on_c, 9, 51, 127
1, 66262, Note_on_c, 9, 51, 0
1, 66719, Note_on_c, 9, 40, 0
1, 66720, Note_on_c, 9, 51, 127
1, 66730, Note_on_c, 9, 51, 0
1, 66960, Note_on_c, 9, 51, 127
1, 66970, Note_on_c, 9, 51, 0
1, 67200, Note_on_c, 9, 51, 127
1, 67200, Note_on_c, 9, 35, 127
1, 67222, Note_on_c, 9, 51, 0
1, 67679, Note_on_c, 9, 35, 0
1, 67680, Note_on_c, 9, 51, 127
1, 67702, Note_on_c, 9, 51, 0
1, 68160, Note_on_c, 9, 40, 127
1, 68160, Note_on_c, 9, 51, 127
1, 68170, Note_on_c, 9, 51, 0
1, 68399, Note_on_c, 9, 40, 0
1, 68400, Note_on_c, 9, 51, 119
1, 68410, Note_on_c, 9, 51, 0
1, 68640, Note_on_c, 9, 51, 127
1, 68662, Note_on_c, 9, 51, 0
1, 68880, Note_on_c, 9, 35, 127
1, 69119, Note_on_c, 9, 35, 0
1, 69120, Note_on_c, 9, 51, 127
1, 69120, Note_on_c, 9, 35, 127
1, 69142, Note_on_c, 9, 51, 0
1, 69599, Note_on_c, 9, 35, 0
1, 69600, Note_on_c, 9, 51, 127
1, 69622, Note_on_c, 9, 51, 0
1, 70080, Note_on_c, 9, 40, 127
1, 70080, Note_on_c, 9, 51, 127
1, 70090, Note_on_c, 9, 51, 0
1, 70319, Note_on_c, 9, 40, 0
1, 70320, Note_on_c, 9, 51, 122
1, 70330, Note_on_c, 9, 51, 0
1, 70560, Note_on_c, 9, 51, 127
1, 70570, Note_on_c, 9, 51, 0
1, 70800, Note_on_c, 9, 51, 127
1, 70800, Note_on_c, 9, 35, 127
1, 70810, Note_on_c, 9, 51, 0
1, 71039, Note_on_c, 9, 35, 0
1, 71040, Note_on_c, 9, 51, 127
1, 71040, Note_on_c, 9, 35, 127
1, 71050, Note_on_c, 9, 51, 0
1, 71280, Note_on_c, 9, 51, 118
1, 71290, Note_on_c, 9, 51, 0
1, 71519, Note_on_c, 9, 35, 0
1, 71520, Note_on_c, 9, 51, 127
1, 71520, Note_on_c, 9, 35, 127
1, 71530, Note_on_c, 9, 51, 0
1, 71805, Note_on_c, 9, 51, 127
1, 71812, Note_on_c, 9, 51, 0
1, 71999, Note_on_c, 9, 35, 0
1, 72000, Note_on_c, 9, 40, 127
1, 72000, Note_on_c, 9, 51, 127
1, 72010, Note_on_c, 9, 51, 0
1, 72239, Note_on_c, 9, 40, 0
1, 72300, Note_on_c, 9, 51, 127
1, 72307, Note_on_c, 9, 51, 0
1, 72480, Note_on_c, 9, 51, 127
1, 72480, Note_on_c, 9, 43, 127
1, 72484, Note_on_c, 9, 51, 0
1, 72600, Note_on_c, 9, 41, 127
1, 72719, Note_on_c, 9, 41, 0
1, 72780, Note_on_c, 9, 51, 123
1, 72787, Note_on_c, 9, 51, 0
1, 72959, Note_on_c, 9, 43, 0
1, 72960, Note_on_c, 9, 49, 127
1, 72960, Note_on_c, 9, 35, 127
1, 72982, Note_on_c, 9, 49, 0
1, 73439, Note_on_c, 9, 35, 0
1, 73440, Note_on_c, 9, 51, 127
1, 73450, Note_on_c, 9, 51, 0
1, 73680, Note_on_c, 9, 51, 127
1, 73690, Note_on_c, 9, 51, 0
1, 73920, Note_on_c, 9, 40, 127
1, 73920, Note_on_c, 9, 51, 127
1, 73930, Note_on_c, 9, 51, 0
1, 74159, Note_on_c, 9, 40, 0
1, 74160, Note_on_c, 9, 51, 127
1, 74170, Note_on_c, 9, 51, 0
1, 74400, Note_on_c, 9, 51, 127
1, 74410, Note_on_c, 9, 51, 0
1, 74640, Note_on_c, 9, 51, 127
1, 74640, Note_on_c, 9, 35, 127
1, 74650, Note_on_c, 9, 51, 0
1, 74879, Note_on_c, 9, 35, 0
1, 74880, Note_on_c, 9, 51, 127
1, 74880, Note_on_c, 9, 35, 127
1, 74890, Note_on_c, 9, 51, 0
1, 75120, Note_on_c, 9, 51, 127
1, 75130, Note_on_c, 9, 51, 0
1, 75359, Note_on_c, 9, 35, 0
1, 75360, Note_on_c, 9, 51, 127
1, 75370, Note_on_c, 9, 51, 0
1, 75600, Note_on_c, 9, 51, 127
1, 75610, Note_on_c, 9, 51, 0
1, 75840, Note_on_c, 9, 40, 127
1, 75840, Note_on_c, 9, 51, 127
1, 75850, Note_on_c, 9, 51, 0
1, 76079, Note_on_c, 9, 40, 0
1, 76080, Note_on_c, 9, 51, 127
1, 76090, Note_on_c, 9, 51, 0
1, 76320, Note_on_c, 9, 51, 127
1, 76330, Note_on_c, 9, 51, 0
1, 76560, Note_on_c, 9, 51, 123
1, 76560, Note_on_c, 9, 35, 127
1, 76570, Note_on_c, 9, 51, 0
1, 76799, Note_on_c, 9, 35, 0
1, 76800, Note_on_c, 9, 51, 127
1, 76800, Note_on_c, 9, 35, 127
1, 76810, Note_on_c, 9, 51, 0
1, 77040, Note_on_c, 9, 51, 127
1, 77050, Note_on_c, 9, 51, 0
1, 77279, Note_on_c, 9, 35, 0
1, 77280, Note_on_c, 9, 51, 127
1, 77290, Note_on_c, 9, 51, 0
1, 77520, Note_on_c, 9, 51, 127
1, 77530, Note_on_c, 9, 51, 0
1, 77760, Note_on_c, 9, 40, 127
1, 77760, Note_on_c, 9, 51, 127
1, 77770, Note_on_c, 9, 51, 0
1, 77999, Note_on_c, 9, 40, 0
1, 78000, Note_on_c, 9, 51, 127
1, 78010, Note_on_c, 9, 51, 0
1, 78240, Note_on_c, 9, 51, 127
1, 78250, Note_on_c, 9, 51, 0
1, 78480, Note_on_c, 9, 51, 127
1, 78480, Note_on_c, 9, 35, 127
1, 78490, Note_on_c, 9, 51, 0
1, 78719, Note_on_c, 9, 35, 0
1, 78720, Note_on_c, 9, 51, 127
1, 78720, Note_on_c, 9, 35, 127
1, 78730, Note_on_c, 9, 51, 0
1, 78960, Note_on_c, 9, 51, 127
1, 78970, Note_on_c, 9, 51, 0
1, 79199, Note_on_c, 9, 35, 0
1, 79200, Note_on_c, 9, 51, 127
1, 79200, Note_on_c, 9, 35, 127
1, 79210, Note_on_c, 9, 51, 0
1, 79440, Note_on_c, 9, 51, 124
1, 79450, Note_on_c, 9, 51, 0
1, 79679, Note_on_c, 9, 35, 0
1, 79680, Note_on_c, 9, 40, 127
1, 79680, Note_on_c, 9, 51, 127
1, 79690, Note_on_c, 9, 51, 0
1, 79919, Note_on_c, 9, 40, 0
1, 79920, Note_on_c, 9, 51, 127
1, 79930, Note_on_c, 9, 51, 0
1, 80160, Note_on_c, 9, 51, 127
1, 80170, Note_on_c, 9, 51, 0
1, 80400, Note_on_c, 9, 51, 127
1, 80410, Note_on_c, 9, 51, 0
1, 80640, Note_on_c, 9, 35, 127
1, 80700, Note_on_c, 9, 51, 127
1, 80707, Note_on_c, 9, 51, 0
1, 80880, Note_on_c, 9, 51, 127
1, 80890, Note_on_c, 9, 51, 0
1, 81119, Note_on_c, 9, 35, 0
1, 81120, Note_on_c, 9, 51, 127
1, 81120, Note_on_c, 9, 35, 127
1, 81130, Note_on_c, 9, 51, 0
1, 81360, Note_on_c, 9, 51, 127
1, 81370, Note_on_c, 9, 51, 0
1, 81599, Note_on_c, 9, 35, 0
1, 81600, Note_on_c, 9, 40, 127
1, 81600, Note_on_c, 9, 57, 127
1, 81622, Note_on_c, 9, 57, 0
1, 82079, Note_on_c, 9, 40, 0
1, 82080, Note_on_c, 9, 51, 127
1, 82090, Note_on_c, 9, 51, 0
1, 82320, Note_on_c, 9, 51, 127
1, 82320, Note_on_c, 9, 35, 127
1, 82330, Note_on_c, 9, 51, 0
1, 82559, Note_on_c, 9, 35, 0
1, 82560, Note_on_c, 9, 35, 127
1, 82620, Note_on_c, 9, 51, 127
1, 82627, Note_on_c, 9, 51, 0
1, 82800, Note_on_c, 9, 51, 127
1, 82810, Note_on_c, 9, 51, 0
1, 83039, Note_on_c, 9, 35, 0
1, 83040, Note_on_c, 9, 51, 127
1, 83050, Note_on_c, 9, 51, 0
1, 83280, Note_on_c, 9, 51, 127
1, 83290, Note_on_c, 9, 51, 0
1, 83520, Note_on_c, 9, 40, 127
1, 83520, Note_on_c, 9, 51, 127
1, 83530, Note_on_c, 9, 51, 0
1, 83759, Note_on_c, 9, 40, 0
1, 83760, Note_on_c, 9, 51, 127
1, 83770, Note_on_c, 9, 51, 0
1, 84000, Note_on_c, 9, 51, 127
1, 84010, Note_on_c, 9, 51, 0
1, 84240, Note_on_c, 9, 35, 127
1, 84270, Note_on_c, 9, 51, 127
1, 84273, Note_on_c, 9, 51, 0
1, 84479, Note_on_c, 9, 35, 0
1, 84480, Note_on_c, 9, 51, 127
1, 84480, Note_on_c, 9, 35, 127
1, 84490, Note_on_c, 9, 51, 0
1, 84750, Note_on_c, 9, 51, 126
1, 84753, Note_on_c, 9, 51, 0
1, 84959, Note_on_c, 9, 35, 0
1, 84960, Note_on_c, 9, 51, 127
1, 84970, Note_on_c, 9, 51, 0
1, 85200, Note_on_c, 9, 51, 127
1, 85210, Note_on_c, 9, 51, 0
1, 85440, Note_on_c, 9, 40, 127
1, 85440, Note_on_c, 9, 51, 127
1, 85450, Note_on_c, 9, 51, 0
1, 85679, Note_on_c, 9, 40, 0
1, 85680, Note_on_c, 9, 51, 121
1, 85690, Note_on_c, 9, 51, 0
1, 85920, Note_on_c, 9, 51, 127
1, 85930, Note_on_c, 9, 51, 0
1, 86160, Note_on_c, 9, 51, 127
1, 86160, Note_on_c, 9, 35, 127
1, 86170, Note_on_c, 9, 51, 0
1, 86399, Note_on_c, 9, 35, 0
1, 86400, Note_on_c, 9, 51, 127
1, 86400, Note_on_c, 9, 35, 127
1, 86410, Note_on_c, 9, 51, 0
1, 86640, Note_on_c, 9, 51, 127
1, 86650, Note_on_c, 9, 51, 0
1, 86879, Note_on_c, 9, 35, 0
1, 86880, Note_on_c, 9, 51, 127
1, 86880, Note_on_c, 9, 35, 127
1, 86890, Note_on_c, 9, 51, 0
1, 87120, Note_on_c, 9, 51, 127
1, 87130, Note_on_c, 9, 51, 0
1, 87359, Note_on_c, 9, 35, 0
1, 87400, Note_on_c, 9, 40, 127
1, 87400, Note_on_c, 9, 51, 127
1, 87400, Note_on_c, 9, 51, 0
1, 87439, Note_on_c, 9, 40, 0
1, 87440, Note_on_c, 9, 40, 127
1, 87479, Note_on_c, 9, 40, 0
1, 87600, Note_on_c, 9, 45, 127
1, 87600, Note_on_c, 9, 51, 127
1, 87610, Note_on_c, 9, 51, 0
1, 87839, Note_on_c, 9, 45, 0
1, 87840, Note_on_c, 9, 51, 127
1, 87840, Note_on_c, 9, 43, 127
1, 87850, Note_on_c, 9, 51, 0
1, 88125, Note_on_c, 9, 41, 127
1, 88125, Note_on_c, 9, 51, 127
1, 88131, Note_on_c, 9, 51, 0
1, 88184, Note_on_c, 9, 41, 0
1, 88319, Note_on_c, 9, 43, 0
1, 88320, Note_on_c, 9, 35, 127
1, 88380, Note_on_c, 9, 49, 127
1, 88387, Note_on_c, 9, 49, 0
1, 88799, Note_on_c, 9, 35, 0
1, 88800, Note_on_c, 9, 51, 127
1, 88810, Note_on_c, 9, 51, 0
1, 89040, Note_on_c, 9, 51, 127
1, 89050, Note_on_c, 9, 51, 0
1, 89280, Note_on_c, 9, 40, 127
1, 89280, Note_on_c, 9, 51, 127
1, 89290, Note_on_c, 9, 51, 0
1, 89519, Note_on_c, 9, 40, 0
1, 89520, Note_on_c, 9, 51, 127
1, 89530, Note_on_c, 9, 51, 0
1, 89760, Note_on_c, 9, 51, 127
1, 89770, Note_on_c, 9, 51, 0
1, 90000, Note_on_c, 9, 51, 127
1, 90000, Note_on_c, 9, 35, 127
1, 90010, Note_on_c, 9, 51, 0
1, 90239, Note_on_c, 9, 35, 0
1, 90240, Note_on_c, 9, 51, 127
1, 90240, Note_on_c, 9, 35, 127
1, 90250, Note_on_c, 9, 51, 0
1, 90510, Note_on_c, 9, 51, 120
1, 90511, Note_on_c, 9, 51, 0
1, 90719, Note_on_c, 9, 35, 0
1, 90720, Note_on_c, 9, 51, 127
1, 90730, Note_on_c, 9, 51, 0
1, 90960, Note_on_c, 9, 51, 127
1, 90970, Note_on_c, 9, 51, 0
1, 91200, Note_on_c, 9, 40, 127
1, 91200, Note_on_c, 9, 51, 127
1, 91210, Note_on_c, 9, 51, 0
1, 91439, Note_on_c, 9, 40, 0
1, 91440, Note_on_c, 9, 51, 127
1, 91450, Note_on_c, 9, 51, 0
1, 91680, Note_on_c, 9, 51, 127
1, 91690, Note_on_c, 9, 51, 0
1, 91920, Note_on_c, 9, 35, 127
1, 91950, Note_on_c, 9, 51, 127
1, 91951, Note_on_c, 9, 51, 0
1, 92159, Note_on_c, 9, 35, 0
1, 92160, Note_on_c, 9, 51, 127
1, 92160, Note_on_c, 9, 35, 127
1, 92170, Note_on_c, 9, 51, 0
1, 92400, Note_on_c, 9, 51, 127
1, 92410, Note_on_c, 9, 51, 0
1, 92639, Note_on_c, 9, 35, 0
1, 92640, Note_on_c, 9, 51, 127
1, 92650, Note_on_c, 9, 51, 0
1, 92880, Note_on_c, 9, 51, 127
1, 92890, Note_on_c, 9, 51, 0
1, 93120, Note_on_c, 9, 40, 127
1, 93120, Note_on_c, 9, 51, 127
1, 93130, Note_on_c, 9, 51, 0
1, 93359, Note_on_c, 9, 40, 0
1, 93360, Note_on_c, 9, 51, 127
1, 93370, Note_on_c, 9, 51, 0
1, 93600, Note_on_c, 9, 51, 127
1, 93610, Note_on_c, 9, 51, 0
1, 93840, Note_on_c, 9, 51, 127
1, 93840, Note_on_c, 9, 35, 127
1, 93850, Note_on_c, 9, 51, 0
1, 94079, Note_on_c, 9, 35, 0
1, 94080, Note_on_c, 9, 51, 127
1, 94080, Note_on_c, 9, 35, 127
1, 94090, Note_on_c, 9, 51, 0
1, 94320, Note_on_c, 9, 51, 127
1, 94330, Note_on_c, 9, 51, 0
1, 94559, Note_on_c, 9, 35, 0
1, 94560, Note_on_c, 9, 35, 127
1, 94560, Note_on_c, 9, 43, 127
1, 94590, Note_on_c, 9, 51, 127
1, 94591, Note_on_c, 9, 51, 0
1, 94800, Note_on_c, 9, 45, 127
1, 94800, Note_on_c, 9, 51, 127
1, 94810, Note_on_c, 9, 51, 0
1, 95039, Note_on_c, 9, 35, 0
1, 95039, Note_on_c, 9, 43, 0
1, 95039, Note_on_c, 9, 45, 0
1, 95040, Note_on_c, 9, 40, 127
1, 95040, Note_on_c, 9, 44, 127
1, 95050, Note_on_c, 9, 44, 0
1, 95280, Note_on_c, 9, 44, 127
1, 95290, Note_on_c, 9, 44, 0
1, 95519, Note_on_c, 9, 40, 0
1, 95520, Note_on_c, 9, 46, 127
1, 95542, Note_on_c, 9, 46, 0
1, 96000, Note_on_c, 9, 42, 127
1, 96000, Note_on_c, 9, 35, 127
1, 96022, Note_on_c, 9, 42, 0
1, 96239, Note_on_c, 9, 35, 0
1, 96240, Note_on_c, 9, 44, 112
1, 96250, Note_on_c, 9, 44, 0
1, 96480, Note_on_c, 9, 42, 127
1, 96502, Note_on_c, 9, 42, 0
1, 96720, Note_on_c, 9, 44, 117
1, 96730, Note_on_c, 9, 44, 0
1, 96960, Note_on_c, 9, 37, 127
1, 96960, Note_on_c, 9, 42, 127
1, 96982, Note_on_c, 9, 37, 0
1, 96982, Note_on_c, 9, 42, 0
1, 97200, Note_on_c, 9, 44, 127
1, 97210, Note_on_c, 9, 44, 0
1, 97440, Note_on_c, 9, 42, 127
1, 97462, Note_on_c, 9, 42, 0
1, 97680, Note_on_c, 9, 44, 125
1, 97690, Note_on_c, 9, 44, 0
1, 97920, Note_on_c, 9, 42, 127
1, 97920, Note_on_c, 9, 35, 127
1, 97942, Note_on_c, 9, 42, 0
1, 98159, Note_on_c, 9, 35, 0
1, 98160, Note_on_c, 9, 44, 127
1, 98170, Note_on_c, 9, 44, 0
1, 98400, Note_on_c, 9, 42, 127
1, 98422, Note_on_c, 9, 42, 0
1, 98640, Note_on_c, 9, 44, 127
1, 98650, Note_on_c, 9, 44, 0
1, 98880, Note_on_c, 9, 37, 127
1, 98880, Note_on_c, 9, 42, 127
1, 98902, Note_on_c, 9, 37, 0
1, 98902, Note_on_c, 9, 42, 0
1, 99120, Note_on_c, 9, 44, 114
1, 99130, Note_on_c, 9, 44, 0
1, 99360, Note_on_c, 9, 42, 127
1, 99382, Note_on_c, 9, 42, 0
1, 99600, Note_on_c, 9, 44, 122
1, 99610, Note_on_c, 9, 44, 0
1, 99840, Note_on_c, 9, 42, 127
1, 99840, Note_on_c, 9, 35, 127
1, 99862, Note_on_c, 9, 42, 0
1, 100079, Note_on_c, 9, 35, 0
1, 100080, Note_on_c, 9, 44, 115
1, 100090, Note_on_c, 9, 44, 0
1, 100320, Note_on_c, 9, 42, 127
1, 100342, Note_on_c, 9, 42, 0
1, 100560, Note_on_c, 9, 44, 122
1, 100570, Note_on_c, 9, 44, 0
1, 100800, Note_on_c, 9, 37, 127
1, 100800, Note_on_c, 9, 42, 127
1, 100822, Note_on_c, 9, 37, 0
1, 100822, Note_on_c, 9, 42, 0
1, 101040, Note_on_c, 9, 44, 117
1, 101050, Note_on_c, 9, 44, 0
1, 101280, Note_on_c, 9, 42, 127
1, 101302, Note_on_c, 9, 42, 0
1, 101520, Note_on_c, 9, 44, 113
1, 101520, Note_on_c, 9, 35, 127
1, 101530, Note_on_c, 9, 44, 0
1, 101759, Note_on_c, 9, 35, 0
1, 101760, Note_on_c, 9, 42, 127
1, 101760, Note_on_c, 9, 35, 127
1, 101782, Note_on_c, 9, 42, 0
1, 101999, Note_on_c, 9, 35, 0
1, 102000, Note_on_c, 9, 44, 120
1, 102010, Note_on_c, 9, 44, 0
1, 102240, Note_on_c, 9, 42, 127
1, 102240, Note_on_c, 9, 35, 127
1, 102262, Note_on_c, 9, 42, 0
1, 102479, Note_on_c, 9, 35, 0
1, 102480, Note_on_c, 9, 44, 123
1, 102490, Note_on_c, 9, 44, 0
1, 102720, Note_on_c, 9, 37, 127
1, 102720, Note_on_c, 9, 42, 127
1, 102742, Note_on_c, 9, 37, 0
1, 102742, Note_on_c, 9, 42, 0
1, 102960, Note_on_c, 9, 44, 127
1, 102970, Note_on_c, 9, 44, 0
1, 103200, Note_on_c, 9, 46, 127
1, 103222, Note_on_c, 9, 46, 0
1, 103680, Note_on_c, 9, 42, 127
1, 103680, Note_on_c, 9, 35, 127
1, 103702, Note_on_c, 9, 42, 0
1, 103919, Note_on_c, 9, 35, 0
1, 103920, Note_on_c, 9, 44, 127
1, 103930, Note_on_c, 9, 44, 0
1, 104160, Note_on_c, 9, 42, 127
1, 104182, Note_on_c, 9, 42, 0
1, 104400, Note_on_c, 9, 44, 121
1, 104410, Note_on_c, 9, 44, 0
1, 104640, Note_on_c, 9, 37, 127
1, 104640, Note_on_c, 9, 42, 127
1, 104662, Note_on_c, 9, 37, 0
1, 104662, Note_on_c, 9, 42, 0
1, 104880, Note_on_c, 9, 44, 126
1, 104890, Note_on_c, 9, 44, 0
1, 105120, Note_on_c, 9, 42, 127
1, 105142, Note_on_c, 9, 42, 0
1, 105360, Note_on_c, 9, 44, 127
1, 105370, Note_on_c, 9, 44, 0
1, 105600, Note_on_c, 9, 42, 127
1, 105600, Note_on_c, 9, 35, 127
1, 105622, Note_on_c, 9, 42, 0
1, 105839, Note_on_c, 9, 35, 0
1, 105840, Note_on_c, 9, 44, 124
1, 105850, Note_on_c, 9, 44, 0
1, 106080, Note_on_c, 9, 42, 127
1, 106102, Note_on_c, 9, 42, 0
1, 106320, Note_on_c, 9, 44, 124
1, 106330, Note_on_c, 9, 44, 0
1, 106560, Note_on_c, 9, 37, 127
1, 106560, Note_on_c, 9, 42, 127
1, 106582, Note_on_c, 9, 37, 0
1, 106582, Note_on_c, 9, 42, 0
1, 106800, Note_on_c, 9, 44, 126
1, 106810, Note_on_c, 9, 44, 0
1, 107040, Note_on_c, 9, 42, 127
1, 107062, Note_on_c, 9, 42, 0
1, 107280, Note_on_c, 9, 44, 122
1, 107290, Note_on_c, 9, 44, 0
1, 107520, Note_on_c, 9, 42, 127
1, 107520, Note_on_c, 9, 35, 127
1, 107542, Note_on_c, 9, 42, 0
1, 107759, Note_on_c, 9, 35, 0
1, 107760, Note_on_c, 9, 44, 127
1, 107770, Note_on_c, 9, 44, 0
1, 108000, Note_on_c, 9, 42, 127
1, 108022, Note_on_c, 9, 42, 0
1, 108240, Note_on_c, 9, 44, 118
1, 108250, Note_on_c, 9, 44, 0
1, 108480, Note_on_c, 9, 37, 127
1, 108480, Note_on_c, 9, 42, 127
1, 108502, Note_on_c, 9, 37, 0
1, 108502, Note_on_c, 9, 42, 0
1, 108720, Note_on_c, 9, 44, 124
1, 108730, Note_on_c, 9, 44, 0
1, 108960, Note_on_c, 9, 42, 127
1, 108982, Note_on_c, 9, 42, 0
1, 109200, Note_on_c, 9, 44, 127
1, 109210, Note_on_c, 9, 44, 0
1, 109440, Note_on_c, 9, 42, 127
1, 109440, Note_on_c, 9, 35, 127
1, 109462, Note_on_c, 9, 42, 0
1, 109679, Note_on_c, 9, 35, 0
1, 109680, Note_on_c, 9, 44, 118
1, 109690, Note_on_c, 9, 44, 0
1, 109920, Note_on_c, 9, 42, 127
1, 109920, Note_on_c, 9, 35, 127
1, 109942, Note_on_c, 9, 42, 0
1, 110159, Note_on_c, 9, 35, 0
1, 110160, Note_on_c, 9, 44, 126
1, 110170, Note_on_c, 9, 44, 0
1, 110400, Note_on_c, 9, 37, 127
1, 110400, Note_on_c, 9, 42, 127
1, 110422, Note_on_c, 9, 37, 0
1, 110422, Note_on_c, 9, 42, 0
1, 110640, Note_on_c, 9, 44, 127
1, 110650, Note_on_c, 9, 44, 0
1, 110880, Note_on_c, 9, 48, 127
1, 111359, Note_on_c, 9, 48, 0
1, 111360, Note_on_c, 9, 42, 127
1, 111360, Note_on_c, 9, 35, 127
1, 111382, Note_on_c, 9, 42, 0
1, 111839, Note_on_c, 9, 35, 0
1, 111840, Note_on_c, 9, 46, 127
1, 111862, Note_on_c, 9, 46, 0
1, 112320, Note_on_c, 9, 37, 127
1, 112320, Note_on_c, 9, 42, 127
1, 112342, Note_on_c, 9, 37, 0
1, 112342, Note_on_c, 9, 42, 0
1, 112560, Note_on_c, 9, 44, 118
1, 112570, Note_on_c, 9, 44, 0
1, 112800, Note_on_c, 9, 42, 127
1, 112822, Note_on_c, 9, 42, 0
1, 113040, Note_on_c, 9, 44, 111
1, 113050, Note_on_c, 9, 44, 0
1, 113280, Note_on_c, 9, 42, 127
1, 113280, Note_on_c, 9, 35, 127
1, 113302, Note_on_c, 9, 42, 0
1, 113519, Note_on_c, 9, 35, 0
1, 113520, Note_on_c, 9, 44, 113
1, 113530, Note_on_c, 9, 44, 0
1, 113760, Note_on_c, 9, 42, 127
1, 113782, Note_on_c, 9, 42, 0
1, 114000, Note_on_c, 9, 44, 120
1, 114010, Note_on_c, 9, 44, 0
1, 114240, Note_on_c, 9, 37, 127
1, 114240, Note_on_c, 9, 42, 127
1, 114262, Note_on_c, 9, 37, 0
1, 114262, Note_on_c, 9, 42, 0
1, 114480, Note_on_c, 9, 44, 127
1, 114490, Note_on_c, 9, 44, 0
1, 114720, Note_on_c, 9, 42, 127
1, 114742, Note_on_c, 9, 42, 0
1, 114960, Note_on_c, 9, 44, 116
1, 114960, Note_on_c, 9, 35, 127
1, 114970, Note_on_c, 9, 44, 0
1, 115199, Note_on_c, 9, 35, 0
1, 115200, Note_on_c, 9, 42, 127
1, 115200, Note_on_c, 9, 35, 127
1, 115222, Note_on_c, 9, 42, 0
1, 115439, Note_on_c, 9, 35, 0
1, 115440, Note_on_c, 9, 44, 113
1, 115450, Note_on_c, 9, 44, 0
1, 115680, Note_on_c, 9, 42, 127
1, 115702, Note_on_c, 9, 42, 0
1, 115920, Note_on_c, 9, 44, 122
1, 115930, Note_on_c, 9, 44, 0
1, 116160, Note_on_c, 9, 37, 127
1, 116160, Note_on_c, 9, 42, 127
1, 116182, Note_on_c, 9, 37, 0
1, 116182, Note_on_c, 9, 42, 0
1, 116400, Note_on_c, 9, 44, 111
1, 116410, Note_on_c, 9, 44, 0
1, 116640, Note_on_c, 9, 42, 127
1, 116662, Note_on_c, 9, 42, 0
1, 116880, Note_on_c, 9, 44, 119
1, 116880, Note_on_c, 9, 35, 127
1, 116890, Note_on_c, 9, 44, 0
1, 117119, Note_on_c, 9, 35, 0
1, 117120, Note_on_c, 9, 42, 127
1, 117120, Note_on_c, 9, 35, 127
1, 117142, Note_on_c, 9, 42, 0
1, 117359, Note_on_c, 9, 35, 0
1, 117360, Note_on_c, 9, 44, 118
1, 117370, Note_on_c, 9, 44, 0
1, 117600, Note_on_c, 9, 42, 127
1, 117600, Note_on_c, 9, 35, 127
1, 117622, Note_on_c, 9, 42, 0
1, 117839, Note_on_c, 9, 35, 0
1, 117840, Note_on_c, 9, 44, 125
1, 117850, Note_on_c, 9, 44, 0
1, 118080, Note_on_c, 9, 37, 127
1, 118080, Note_on_c, 9, 42, 127
1, 118102, Note_on_c, 9, 37, 0
1, 118102, Note_on_c, 9, 42, 0
1, 118320, Note_on_c, 9, 44, 127
1, 118330, Note_on_c, 9, 44, 0
1, 118560, Note_on_c, 9, 46, 127
1, 118582, Note_on_c, 9, 46, 0
1, 119040, Note_on_c, 9, 42, 127
1, 119040, Note_on_c, 9, 35, 127
1, 119062, Note_on_c, 9, 42, 0
1, 119279, Note_on_c, 9, 35, 0
1, 119280, Note_on_c, 9, 44, 119
1, 119290, Note_on_c, 9, 44, 0
1, 119520, Note_on_c, 9, 42, 127
1, 119542, Note_on_c, 9, 42, 0
1, 119760, Note_on_c, 9, 44, 120
1, 119770, Note_on_c, 9, 44, 0
1, 120000, Note_on_c, 9, 37, 127
1, 120000, Note_on_c, 9, 42, 127
1, 120022, Note_on_c, 9, 37, 0
1, 120022, Note_on_c, 9, 42, 0
1, 120240, Note_on_c, 9, 44, 114
1, 120250, Note_on_c, 9, 44, 0
1, 120480, Note_on_c, 9, 42, 127
1, 120502, Note_on_c, 9, 42, 0
1, 120750, Note_on_c, 9, 44, 127
1, 120750, Note_on_c, 9, 35, 127
1, 120751, Note_on_c, 9, 44, 0
1, 120809, Note_on_c, 9, 35, 0
1, 120960, Note_on_c, 9, 42, 127
1, 120960, Note_on_c, 9, 35, 127
1, 120982, Note_on_c, 9, 42, 0
1, 121199, Note_on_c, 9, 35, 0
1, 121200, Note_on_c, 9, 44, 127
1, 121210, Note_on_c, 9, 44, 0
1, 121440, Note_on_c, 9, 42, 127
1, 121462, Note_on_c, 9, 42, 0
1, 121680, Note_on_c, 9, 44, 114
1, 121690, Note_on_c, 9, 44, 0
1, 121920, Note_on_c, 9, 37, 127
1, 121920, Note_on_c, 9, 42, 127
1, 121942, Note_on_c, 9, 37, 0
1, 121942, Note_on_c, 9, 42, 0
1, 122160, Note_on_c, 9, 44, 125
1, 122170, Note_on_c, 9, 44, 0
1, 122400, Note_on_c, 9, 42, 127
1, 122422, Note_on_c, 9, 42, 0
1, 122640, Note_on_c, 9, 44, 127
1, 122650, Note_on_c, 9, 44, 0
1, 122880, Note_on_c, 9, 42, 127
1, 122880, Note_on_c, 9, 35, 127
1, 122902, Note_on_c, 9, 42, 0
1, 123119, Note_on_c, 9, 35, 0
1, 123120, Note_on_c, 9, 44, 127
1, 123130, Note_on_c, 9, 44, 0
1, 123360, Note_on_c, 9, 42, 127
1, 123382, Note_on_c, 9, 42, 0
1, 123600, Note_on_c, 9, 44, 112
1, 123610, Note_on_c, 9, 44, 0
1, 123840, Note_on_c, 9, 37, 127
1, 123840, Note_on_c, 9, 42, 127
1, 123862, Note_on_c, 9, 37, 0
1, 123862, Note_on_c, 9, 42, 0
1, 124080, Note_on_c, 9, 44, 127
1, 124090, Note_on_c, 9, 44, 0
1, 124320, Note_on_c, 9, 42, 127
1, 124342, Note_on_c, 9, 42, 0
1, 124560, Note_on_c, 9, 44, 127
1, 124560, Note_on_c, 9, 35, 127
1, 124570, Note_on_c, 9, 44, 0
1, 124799, Note_on_c, 9, 35, 0
1, 124800, Note_on_c, 9, 40, 127
1, 125279, Note_on_c, 9, 40, 0
1, 125520, Note_on_c, 9, 45, 127
1, 125520, Note_on_c, 9, 35, 127
1, 125639, Note_on_c, 9, 35, 0
1, 125640, Note_on_c, 9, 43, 127
1, 125759, Note_on_c, 9, 45, 0
1, 125759, Note_on_c, 9, 43, 0
1, 125760, Note_on_c, 9, 35, 127
1, 125999, Note_on_c, 9, 35, 0
1, 126000, Note_on_c, 9, 35, 127
1, 126239, Note_on_c, 9, 35, 0
1, 126240, Note_on_c, 9, 41, 127
1, 126240, Note_on_c, 9, 35, 127
1, 126240, Note_on_c, 9, 43, 127
1, 126479, Note_on_c, 9, 35, 0
1, 126479, Note_on_c, 9, 43, 0
1, 126480, Note_on_c, 9, 35, 127
1, 126719, Note_on_c, 9, 41, 0
1, 126719, Note_on_c, 9, 35, 0
1, 126720, Note_on_c, 9, 42, 127
1, 126720, Note_on_c, 9, 35, 127
1, 126742, Note_on_c, 9, 42, 0
1, 126959, Note_on_c, 9, 35, 0
1, 126960, Note_on_c, 9, 44, 121
1, 126970, Note_on_c, 9, 44, 0
1, 127200, Note_on_c, 9, 42, 127
1, 127222, Note_on_c, 9, 42, 0
1, 127440, Note_on_c, 9, 44, 121
1, 127450, Note_on_c, 9, 44, 0
1, 127680, Note_on_c, 9, 40, 127
1, 127680, Note_on_c, 9, 42, 127
1, 127702, Note_on_c, 9, 42, 0
1, 127920, Note_on_c, 9, 44, 117
1, 127930, Note_on_c, 9, 44, 0
1, 128159, Note_on_c, 9, 40, 0
1, 128160, Note_on_c, 9, 42, 127
1, 128182, Note_on_c, 9, 42, 0
1, 128400, Note_on_c, 9, 44, 127
1, 128410, Note_on_c, 9, 44, 0
1, 128640, Note_on_c, 9, 42, 127
1, 128640, Note_on_c, 9, 35, 127
1, 128662, Note_on_c, 9, 42, 0
1, 128879, Note_on_c, 9, 35, 0
1, 128880, Note_on_c, 9, 44, 119
1, 128890, Note_on_c, 9, 44, 0
1, 129120, Note_on_c, 9, 42, 127
1, 129142, Note_on_c, 9, 42, 0
1, 129360, Note_on_c, 9, 44, 114
1, 129370, Note_on_c, 9, 44, 0
1, 129600, Note_on_c, 9, 40, 127
1, 129600, Note_on_c, 9, 42, 127
1, 129622, Note_on_c, 9, 42, 0
1, 129840, Note_on_c, 9, 44, 114
1, 129850, Note_on_c, 9, 44, 0
1, 130079, Note_on_c, 9, 40, 0
1, 130080, Note_on_c, 9, 42, 127
1, 130102, Note_on_c, 9, 42, 0
1, 130320, Note_on_c, 9, 44, 124
1, 130330, Note_on_c, 9, 44, 0
1, 130560, Note_on_c, 9, 42, 127
1, 130560, Note_on_c, 9, 35, 127
1, 130582, Note_on_c, 9, 42, 0
1, 130799, Note_on_c, 9, 35, 0
1, 130800, Note_on_c, 9, 44, 112
1, 130810, Note_on_c, 9, 44, 0
1, 131040, Note_on_c, 9, 42, 127
1, 131062, Note_on_c, 9, 42, 0
1, 131280, Note_on_c, 9, 44, 127
1, 131290, Note_on_c, 9, 44, 0
1, 131520, Note_on_c, 9, 40, 127
1, 131520, Note_on_c, 9, 42, 127
1, 131542, Note_on_c, 9, 42, 0
1, 131760, Note_on_c, 9, 44, 126
1, 131770, Note_on_c, 9, 44, 0
1, 131999, Note_on_c, 9, 40, 0
1, 132000, Note_on_c, 9, 42, 127
1, 132022, Note_on_c, 9, 42, 0
1, 132240, Note_on_c, 9, 44, 123
1, 132250, Note_on_c, 9, 44, 0
1, 132480, Note_on_c, 9, 42, 127
1, 132480, Note_on_c, 9, 35, 127
1, 132502, Note_on_c, 9, 42, 0
1, 132719, Note_on_c, 9, 35, 0
1, 132720, Note_on_c, 9, 44, 127
1, 132730, Note_on_c, 9, 44, 0
1, 132960, Note_on_c, 9, 42, 127
1, 132960, Note_on_c, 9, 35, 127
1, 132982, Note_on_c, 9, 42, 0
1, 133199, Note_on_c, 9, 35, 0
1, 133200, Note_on_c, 9, 44, 125
1, 133210, Note_on_c, 9, 44, 0
1, 133440, Note_on_c, 9, 40, 127
1, 133440, Note_on_c, 9, 42, 127
1, 133462, Note_on_c, 9, 42, 0
1, 133680, Note_on_c, 9, 44, 127
1, 133690, Note_on_c, 9, 44, 0
1, 133919, Note_on_c, 9, 40, 0
1, 133920, Note_on_c, 9, 46, 127
1, 133942, Note_on_c, 9, 46, 0
1, 134400, Note_on_c, 9, 42, 127
1, 134400, Note_on_c, 9, 35, 127
1, 134422, Note_on_c, 9, 42, 0
1, 134639, Note_on_c, 9, 35, 0
1, 134640, Note_on_c, 9, 44, 127
1, 134650, Note_on_c, 9, 44, 0
1, 134880, Note_on_c, 9, 42, 127
1, 134902, Note_on_c, 9, 42, 0
1, 135120, Note_on_c, 9, 44, 110
1, 135130, Note_on_c, 9, 44, 0
1, 135360, Note_on_c, 9, 40, 127
1, 135360, Note_on_c, 9, 42, 127
1, 135382, Note_on_c, 9, 42, 0
1, 135600, Note_on_c, 9, 44, 122
1, 135610, Note_on_c, 9, 44, 0
1, 135839, Note_on_c, 9, 40, 0
1, 135840, Note_on_c, 9, 42, 127
1, 135862, Note_on_c, 9, 42, 0
1, 136080, Note_on_c, 9, 44, 126
1, 136090, Note_on_c, 9, 44, 0
1, 136320, Note_on_c, 9, 42, 127
1, 136320, Note_on_c, 9, 35, 127
1, 136342, Note_on_c, 9, 42, 0
1, 136559, Note_on_c, 9, 35, 0
1, 136560, Note_on_c, 9, 44, 118
1, 136570, Note_on_c, 9, 44, 0
1, 136800, Note_on_c, 9, 42, 127
1, 136822, Note_on_c, 9, 42, 0
1, 137040, Note_on_c, 9, 44, 118
1, 137050, Note_on_c, 9, 44, 0
1, 137280, Note_on_c, 9, 40, 127
1, 137280, Note_on_c, 9, 42, 127
1, 137302, Note_on_c, 9, 42, 0
1, 137520, Note_on_c, 9, 44, 127
1, 137530, Note_on_c, 9, 44, 0
1, 137759, Note_on_c, 9, 40, 0
1, 137760, Note_on_c, 9, 42, 127
1, 137782, Note_on_c, 9, 42, 0
1, 138000, Note_on_c, 9, 44, 122
1, 138010, Note_on_c, 9, 44, 0
1, 138240, Note_on_c, 9, 42, 127
1, 138240, Note_on_c, 9, 35, 127
1, 138262, Note_on_c, 9, 42, 0
1, 138479, Note_on_c, 9, 35, 0
1, 138480, Note_on_c, 9, 44, 126
1, 138490, Note_on_c, 9, 44, 0
1, 138720, Note_on_c, 9, 42, 127
1, 138742, Note_on_c, 9, 42, 0
1, 138960, Note_on_c, 9, 44, 123
1, 138970, Note_on_c, 9, 44, 0
1, 139200, Note_on_c, 9, 40, 127
1, 139200, Note_on_c, 9, 42, 127
1, 139222, Note_on_c, 9, 42, 0
1, 139440, Note_on_c, 9, 44, 120
1, 139450, Note_on_c, 9, 44, 0
1, 139679, Note_on_c, 9, 40, 0
1, 139680, Note_on_c, 9, 42, 127
1, 139702, Note_on_c, 9, 42, 0
1, 139920, Note_on_c, 9, 44, 127
1, 139920, Note_on_c, 9, 35, 127
1, 139930, Note_on_c, 9, 44, 0
1, 140159, Note_on_c, 9, 35, 0
1, 140160, Note_on_c, 9, 42, 127
1, 140160, Note_on_c, 9, 35, 127
1, 140182, Note_on_c, 9, 42, 0
1, 140399, Note_on_c, 9, 35, 0
1, 140400, Note_on_c, 9, 44, 119
1, 140410, Note_on_c, 9, 44, 0
1, 140640, Note_on_c, 9, 42, 127
1, 140640, Note_on_c, 9, 35, 127
1, 140662, Note_on_c, 9, 42, 0
1, 140879, Note_on_c, 9, 35, 0
1, 140880, Note_on_c, 9, 44, 127
1, 140890, Note_on_c, 9, 44, 0
1, 141120, Note_on_c, 9, 40, 127
1, 141120, Note_on_c, 9, 42, 127
1, 141130, Note_on_c, 9, 42, 0
1, 141359, Note_on_c, 9, 40, 0
1, 141360, Note_on_c, 9, 45, 127
1, 141360, Note_on_c, 9, 44, 127
1, 141360, Note_on_c, 9, 35, 127
1, 141370, Note_on_c, 9, 44, 0
1, 141599, Note_on_c, 9, 45, 0
1, 141599, Note_on_c, 9, 35, 0
1, 141600, Note_on_c, 9, 42, 127
1, 141600, Note_on_c, 9, 43, 127
1, 141622, Note_on_c, 9, 42, 0
1, 141839, Note_on_c, 9, 43, 0
1, 141840, Note_on_c, 9, 44, 126
1, 141850, Note_on_c, 9, 44, 0
1, 142080, Note_on_c, 9, 42, 127
1, 142080, Note_on_c, 9, 35, 127
1, 142102, Note_on_c, 9, 42, 0
1, 142559, Note_on_c, 9, 35, 0
1, 142560, Note_on_c, 9, 46, 127
1, 142582, Note_on_c, 9, 46, 0
1, 143040, Note_on_c, 9, 40, 127
1, 143040, Note_on_c, 9, 44, 127
1, 143062, Note_on_c, 9, 44, 0
1, 143279, Note_on_c, 9, 40, 0
1, 143280, Note_on_c, 9, 42, 127
1, 143290, Note_on_c, 9, 42, 0
1, 143520, Note_on_c, 9, 42, 127
1, 143542, Note_on_c, 9, 42, 0
1, 143760, Note_on_c, 9, 44, 121
1, 143770, Note_on_c, 9, 44, 0
1, 144000, Note_on_c, 9, 42, 127
1, 144000, Note_on_c, 9, 35, 127
1, 144022, Note_on_c, 9, 42, 0
1, 144239, Note_on_c, 9, 35, 0
1, 144240, Note_on_c, 9, 44, 117
1, 144250, Note_on_c, 9, 44, 0
1, 144480, Note_on_c, 9, 42, 127
1, 144502, Note_on_c, 9, 42, 0
1, 144720, Note_on_c, 9, 44, 112
1, 144730, Note_on_c, 9, 44, 0
1, 144960, Note_on_c, 9, 40, 127
1, 144960, Note_on_c, 9, 42, 127
1, 144982, Note_on_c, 9, 42, 0
1, 145200, Note_on_c, 9, 44, 127
1, 145210, Note_on_c, 9, 44, 0
1, 145439, Note_on_c, 9, 40, 0
1, 145440, Note_on_c, 9, 42, 127
1, 145462, Note_on_c, 9, 42, 0
1, 145680, Note_on_c, 9, 44, 117
1, 145690, Note_on_c, 9, 44, 0
1, 145920, Note_on_c, 9, 42, 127
1, 145920, Note_on_c, 9, 35, 127
1, 145942, Note_on_c, 9, 42, 0
1, 146159, Note_on_c, 9, 35, 0
1, 146160, Note_on_c, 9, 44, 113
1, 146170, Note_on_c, 9, 44, 0
1, 146400, Note_on_c, 9, 42, 127
1, 146422, Note_on_c, 9, 42, 0
1, 146640, Note_on_c, 9, 44, 126
1, 146650, Note_on_c, 9, 44, 0
1, 146880, Note_on_c, 9, 40, 127
1, 146880, Note_on_c, 9, 42, 127
1, 146902, Note_on_c, 9, 42, 0
1, 147120, Note_on_c, 9, 44, 109
1, 147130, Note_on_c, 9, 44, 0
1, 147359, Note_on_c, 9, 40, 0
1, 147360, Note_on_c, 9, 42, 127
1, 147382, Note_on_c, 9, 42, 0
1, 147600, Note_on_c, 9, 44, 127
1, 147610, Note_on_c, 9, 44, 0
1, 147840, Note_on_c, 9, 42, 127
1, 147840, Note_on_c, 9, 35, 127
1, 147862, Note_on_c, 9, 42, 0
1, 148079, Note_on_c, 9, 35, 0
1, 148080, Note_on_c, 9, 44, 109
1, 148090, Note_on_c, 9, 44, 0
1, 148320, Note_on_c, 9, 42, 127
1, 148320, Note_on_c, 9, 35, 127
1, 148342, Note_on_c, 9, 42, 0
1, 148559, Note_on_c, 9, 35, 0
1, 148560, Note_on_c, 9, 44, 127
1, 148570, Note_on_c, 9, 44, 0
1, 148800, Note_on_c, 9, 40, 127
1, 148800, Note_on_c, 9, 42, 127
1, 148822, Note_on_c, 9, 42, 0
1, 149040, Note_on_c, 9, 44, 127
1, 149050, Note_on_c, 9, 44, 0
1, 149279, Note_on_c, 9, 40, 0
1, 149280, Note_on_c, 9, 46, 127
1, 149302, Note_on_c, 9, 46, 0
1, 149760, Note_on_c, 9, 42, 127
1, 149760, Note_on_c, 9, 35, 127
1, 149782, Note_on_c, 9, 42, 0
1, 149999, Note_on_c, 9, 35, 0
1, 150000, Note_on_c, 9, 44, 111
1, 150010, Note_on_c, 9, 44, 0
1, 150240, Note_on_c, 9, 42, 127
1, 150262, Note_on_c, 9, 42, 0
1, 150480, Note_on_c, 9, 44, 114
1, 150490, Note_on_c, 9, 44, 0
1, 150720, Note_on_c, 9, 40, 127
1, 150720, Note_on_c, 9, 42, 127
1, 150742, Note_on_c, 9, 42, 0
1, 150960, Note_on_c, 9, 44, 127
1, 150970, Note_on_c, 9, 44, 0
1, 151199, Note_on_c, 9, 40, 0
1, 151200, Note_on_c, 9, 42, 127
1, 151222, Note_on_c, 9, 42, 0
1, 151440, Note_on_c, 9, 44, 127
1, 151450, Note_on_c, 9, 44, 0
1, 151680, Note_on_c, 9, 42, 127
1, 151680, Note_on_c, 9, 35, 127
1, 151702, Note_on_c, 9, 42, 0
1, 151919, Note_on_c, 9, 35, 0
1, 151920, Note_on_c, 9, 44, 127
1, 151930, Note_on_c, 9, 44, 0
1, 152160, Note_on_c, 9, 42, 127
1, 152182, Note_on_c, 9, 42, 0
1, 152400, Note_on_c, 9, 44, 125
1, 152410, Note_on_c, 9, 44, 0
1, 152640, Note_on_c, 9, 40, 127
1, 152640, Note_on_c, 9, 42, 127
1, 152662, Note_on_c, 9, 42, 0
1, 152880, Note_on_c, 9, 44, 127
1, 152890, Note_on_c, 9, 44, 0
1, 153119, Note_on_c, 9, 40, 0
1, 153120, Note_on_c, 9, 42, 127
1, 153142, Note_on_c, 9, 42, 0
1, 153360, Note_on_c, 9, 44, 127
1, 153360, Note_on_c, 9, 35, 127
1, 153370, Note_on_c, 9, 44, 0
1, 153599, Note_on_c, 9, 35, 0
1, 153600, Note_on_c, 9, 40, 127
1, 153600, Note_on_c, 9, 42, 127
1, 153622, Note_on_c, 9, 42, 0
1, 153840, Note_on_c, 9, 35, 127
1, 154079, Note_on_c, 9, 40, 0
1, 154079, Note_on_c, 9, 35, 0
1, 154080, Note_on_c, 9, 46, 127
1, 154080, Note_on_c, 9, 35, 127
1, 154102, Note_on_c, 9, 46, 0
1, 154319, Note_on_c, 9, 35, 0
1, 154320, Note_on_c, 9, 35, 127
1, 154559, Note_on_c, 9, 35, 0
1, 154560, Note_on_c, 9, 40, 127
1, 154560, Note_on_c, 9, 35, 127
1, 154799, Note_on_c, 9, 35, 0
1, 154800, Note_on_c, 9, 35, 127
1, 155039, Note_on_c, 9, 40, 0
1, 155039, Note_on_c, 9, 35, 0
1, 155040, Note_on_c, 9, 46, 127
1, 155040, Note_on_c, 9, 35, 127
1, 155062, Note_on_c, 9, 46, 0
1, 155279, Note_on_c, 9, 35, 0
1, 155280, Note_on_c, 9, 35, 127
1, 155519, Note_on_c, 9, 35, 0
1, 155520, Note_on_c, 9, 35, 127
1, 155550, Note_on_c, 9, 40, 127
1, 155759, Note_on_c, 9, 35, 0
1, 155760, Note_on_c, 9, 35, 127
1, 155999, Note_on_c, 9, 40, 0
1, 155999, Note_on_c, 9, 35, 0
1, 156000, Note_on_c, 9, 40, 127
1, 156000, Note_on_c, 9, 35, 127
1, 156039, Note_on_c, 9, 40, 0
1, 156040, Note_on_c, 9, 40, 127
1, 156119, Note_on_c, 9, 40, 0
1, 156239, Note_on_c, 9, 35, 0
1, 156270, Note_on_c, 9, 35, 127
1, 156329, Note_on_c, 9, 35, 0
1, 156480, Note_on_c, 9, 35, 127
1, 156510, Note_on_c, 9, 40, 127
1, 156599, Note_on_c, 9, 40, 0
1, 156719, Note_on_c, 9, 35, 0
1, 156720, Note_on_c, 9, 45, 127
1, 156720, Note_on_c, 9, 35, 127
1, 156959, Note_on_c, 9, 45, 0
1, 156959, Note_on_c, 9, 35, 0
1, 156960, Note_on_c, 9, 35, 127
1, 156960, Note_on_c, 9, 43, 127
1, 157199, Note_on_c, 9, 35, 0
1, 157199, Note_on_c, 9, 43, 0
1, 157200, Note_on_c, 9, 41, 127
1, 157200, Note_on_c, 9, 35, 127
1, 157439, Note_on_c, 9, 41, 0
1, 157439, Note_on_c, 9, 35, 0
1, 157440, Note_on_c, 9, 49, 127
1, 157440, Note_on_c, 9, 35, 127
1, 157462, Note_on_c, 9, 49, 0
1, 157919, Note_on_c, 9, 35, 0
1, 157920, Note_on_c, 9, 35, 127
1, 158399, Note_on_c, 9, 35, 0
1, 158400, Note_on_c, 9, 40, 127
1, 158400, Note_on_c, 9, 57, 127
1, 158422, Note_on_c, 9, 57, 0
1, 158879, Note_on_c, 9, 40, 0
1, 158880, Note_on_c, 9, 51, 125
1, 158890, Note_on_c, 9, 51, 0
1, 159120, Note_on_c, 9, 51, 127
1, 159120, Note_on_c, 9, 35, 127
1, 159130, Note_on_c, 9, 51, 0
1, 159359, Note_on_c, 9, 35, 0
1, 159360, Note_on_c, 9, 51, 127
1, 159360, Note_on_c, 9, 35, 127
1, 159382, Note_on_c, 9, 51, 0
1, 159839, Note_on_c, 9, 35, 0
1, 159840, Note_on_c, 9, 51, 127
1, 159862, Note_on_c, 9, 51, 0
1, 160320, Note_on_c, 9, 40, 127
1, 160320, Note_on_c, 9, 51, 127
1, 160342, Note_on_c, 9, 51, 0
1, 160799, Note_on_c, 9, 40, 0
1, 160800, Note_on_c, 9, 51, 127
1, 160810, Note_on_c, 9, 51, 0
1, 161040, Note_on_c, 9, 51, 127
1, 161040, Note_on_c, 9, 35, 127
1, 161050, Note_on_c, 9, 51, 0
1, 161279, Note_on_c, 9, 35, 0
1, 161280, Note_on_c, 9, 51, 127
1, 161280, Note_on_c, 9, 35, 127
1, 161302, Note_on_c, 9, 51, 0
1, 161759, Note_on_c, 9, 35, 0
1, 161760, Note_on_c, 9, 51, 127
1, 161770, Note_on_c, 9, 51, 0
1, 162000, Note_on_c, 9, 51, 112
1, 162010, Note_on_c, 9, 51, 0
1, 162240, Note_on_c, 9, 40, 127
1, 162240, Note_on_c, 9, 51, 127
1, 162262, Note_on_c, 9, 51, 0
1, 162719, Note_on_c, 9, 40, 0
1, 162720, Note_on_c, 9, 51, 127
1, 162742, Note_on_c, 9, 51, 0
1, 162960, Note_on_c, 9, 35, 127
1, 163199, Note_on_c, 9, 35, 0
1, 163200, Note_on_c, 9, 51, 127
1, 163200, Note_on_c, 9, 35, 127
1, 163222, Note_on_c, 9, 51, 0
1, 163679, Note_on_c, 9, 35, 0
1, 163680, Note_on_c, 9, 51, 127
1, 163680, Note_on_c, 9, 35, 127
1, 163690, Note_on_c, 9, 51, 0
1, 163920, Note_on_c, 9, 51, 122
1, 163930, Note_on_c, 9, 51, 0
1, 164159, Note_on_c, 9, 35, 0
1, 164160, Note_on_c, 9, 40, 127
1, 164160, Note_on_c, 9, 51, 127
1, 164182, Note_on_c, 9, 51, 0
1, 164639, Note_on_c, 9, 40, 0
1, 164640, Note_on_c, 9, 51, 127
1, 164640, Note_on_c, 9, 35, 127
1, 164662, Note_on_c, 9, 51, 0
1, 164879, Note_on_c, 9, 35, 0
1, 164880, Note_on_c, 9, 35, 127
1, 165119, Note_on_c, 9, 35, 0
1, 165120, Note_on_c, 9, 49, 127
1, 165120, Note_on_c, 9, 35, 127
1, 165142, Note_on_c, 9, 49, 0
1, 165599, Note_on_c, 9, 35, 0
1, 165600, Note_on_c, 9, 51, 127
1, 165622, Note_on_c, 9, 51, 0
1, 166080, Note_on_c, 9, 40, 127
1, 166080, Note_on_c, 9, 51, 127
1, 166102, Note_on_c, 9, 51, 0
1, 166559, Note_on_c, 9, 40, 0
1, 166560, Note_on_c, 9, 51, 127
1, 166570, Note_on_c, 9, 51, 0
1, 166800, Note_on_c, 9, 51, 118
1, 166800, Note_on_c, 9, 35, 127
1, 166810, Note_on_c, 9, 51, 0
1, 167039, Note_on_c, 9, 35, 0
1, 167040, Note_on_c, 9, 51, 127
1, 167040, Note_on_c, 9, 35, 127
1, 167062, Note_on_c, 9, 51, 0
1, 167519, Note_on_c, 9, 35, 0
1, 167520, Note_on_c, 9, 51, 127
1, 167530, Note_on_c, 9, 51, 0
1, 167760, Note_on_c, 9, 51, 127
1, 167770, Note_on_c, 9, 51, 0
1, 168000, Note_on_c, 9, 40, 127
1, 168000, Note_on_c, 9, 51, 127
1, 168022, Note_on_c, 9, 51, 0
1, 168479, Note_on_c, 9, 40, 0
1, 168480, Note_on_c, 9, 51, 127
1, 168502, Note_on_c, 9, 51, 0
1, 168960, Note_on_c, 9, 51, 127
1, 168960, Note_on_c, 9, 35, 127
1, 168982, Note_on_c, 9, 51, 0
1, 169439, Note_on_c, 9, 35, 0
1, 169440, Note_on_c, 9, 51, 127
1, 169450, Note_on_c, 9, 51, 0
1, 169680, Note_on_c, 9, 51, 127
1, 169690, Note_on_c, 9, 51, 0
1, 169920, Note_on_c, 9, 40, 127
1, 169920, Note_on_c, 9, 51, 127
1, 169942, Note_on_c, 9, 51, 0
1, 170399, Note_on_c, 9, 40, 0
1, 170400, Note_on_c, 9, 51, 127
1, 170410, Note_on_c, 9, 51, 0
1, 170640, Note_on_c, 9, 51, 127
1, 170640, Note_on_c, 9, 35, 127
1, 170650, Note_on_c, 9, 51, 0
1, 170879, Note_on_c, 9, 35, 0
1, 170880, Note_on_c, 9, 51, 127
1, 170880, Note_on_c, 9, 35, 127
1, 170902, Note_on_c, 9, 51, 0
1, 171359, Note_on_c, 9, 35, 0
1, 171360, Note_on_c, 9, 51, 127
1, 171360, Note_on_c, 9, 35, 127
1, 171382, Note_on_c, 9, 51, 0
1, 171839, Note_on_c, 9, 35, 0
1, 171840, Note_on_c, 9, 40, 127
1, 171840, Note_on_c, 9, 51, 127
1, 171850, Note_on_c, 9, 51, 0
1, 172079, Note_on_c, 9, 40, 0
1, 172080, Note_on_c, 9, 51, 127
1, 172090, Note_on_c, 9, 51, 0
1, 172320, Note_on_c, 9, 51, 127
1, 172330, Note_on_c, 9, 51, 0
1, 172560, Note_on_c, 9, 45, 127
1, 172799, Note_on_c, 9, 45, 0
1, 172800, Note_on_c, 9, 45, 127
1, 173279, Note_on_c, 9, 45, 0
1, 173280, Note_on_c, 9, 43, 127
1, 173759, Note_on_c, 9, 43, 0
1, 173760, Note_on_c, 9, 40, 127
1, 173760, Note_on_c, 9, 57, 127
1, 173782, Note_on_c, 9, 57, 0
1, 174239, Note_on_c, 9, 40, 0
1, 174480, Note_on_c, 9, 51, 127
1, 174490, Note_on_c, 9, 51, 0
1, 174720, Note_on_c, 9, 51, 127
1, 174720, Note_on_c, 9, 35, 127
1, 174742, Note_on_c, 9, 51, 0
1, 175199, Note_on_c, 9, 35, 0
1, 175200, Note_on_c, 9, 51, 127
1, 175210, Note_on_c, 9, 51, 0
1, 175440, Note_on_c, 9, 51, 116
1, 175450, Note_on_c, 9, 51, 0
1, 175680, Note_on_c, 9, 40, 127
1, 175680, Note_on_c, 9, 51, 127
1, 175690, Note_on_c, 9, 51, 0
1, 175919, Note_on_c, 9, 40, 0
1, 175920, Note_on_c, 9, 51, 113
1, 175930, Note_on_c, 9, 51, 0
1, 176160, Note_on_c, 9, 51, 127
1, 176170, Note_on_c, 9, 51, 0
1, 176400, Note_on_c, 9, 51, 115
1, 176400, Note_on_c, 9, 35, 127
1, 176410, Note_on_c, 9, 51, 0
1, 176639, Note_on_c, 9, 35, 0
1, 176640, Note_on_c, 9, 51, 127
1, 176640, Note_on_c, 9, 35, 127
1, 176650, Note_on_c, 9, 51, 0
1, 176880, Note_on_c, 9, 51, 127
1, 176890, Note_on_c, 9, 51, 0
1, 177119, Note_on_c, 9, 35, 0
1, 177120, Note_on_c, 9, 51, 127
1, 177142, Note_on_c, 9, 51, 0
1, 177600, Note_on_c, 9, 40, 127
1, 177600, Note_on_c, 9, 51, 127
1, 177622, Note_on_c, 9, 51, 0
1, 178079, Note_on_c, 9, 40, 0
1, 178080, Note_on_c, 9, 51, 127
1, 178090, Note_on_c, 9, 51, 0
1, 178320, Note_on_c, 9, 51, 120
1, 178330, Note_on_c, 9, 51, 0
1, 178560, Note_on_c, 9, 51, 127
1, 178560, Note_on_c, 9, 35, 127
1, 178582, Note_on_c, 9, 51, 0
1, 179039, Note_on_c, 9, 35, 0
1, 179040, Note_on_c, 9, 51, 127
1, 179040, Note_on_c, 9, 35, 127
1, 179062, Note_on_c, 9, 51, 0
1, 179519, Note_on_c, 9, 35, 0
1, 179520, Note_on_c, 9, 40, 127
1, 179520, Note_on_c, 9, 51, 127
1, 179530, Note_on_c, 9, 51, 0
1, 179759, Note_on_c, 9, 40, 0
1, 179760, Note_on_c, 9, 45, 127
1, 179999, Note_on_c, 9, 45, 0
1, 180000, Note_on_c, 9, 51, 127
1, 180000, Note_on_c, 9, 43, 127
1, 180010, Note_on_c, 9, 51, 0
1, 180240, Note_on_c, 9, 41, 127
1, 180240, Note_on_c, 9, 51, 125
1, 180250, Note_on_c, 9, 51, 0
1, 180479, Note_on_c, 9, 43, 0
1, 180479, Note_on_c, 9, 41, 0
1, 180480, Note_on_c, 9, 49, 127
1, 180480, Note_on_c, 9, 35, 127
1, 180502, Note_on_c, 9, 49, 0
1, 180959, Note_on_c, 9, 35, 0
1, 180960, Note_on_c, 9, 35, 127
1, 181439, Note_on_c, 9, 35, 0
1, 181440, Note_on_c, 9, 40, 127
1, 181440, Note_on_c, 9, 57, 127
1, 181462, Note_on_c, 9, 57, 0
1, 181919, Note_on_c, 9, 40, 0
1, 182160, Note_on_c, 9, 35, 127
1, 182399, Note_on_c, 9, 35, 0
1, 182400, Note_on_c, 9, 51, 127
1, 182400, Note_on_c, 9, 35, 127
1, 182422, Note_on_c, 9, 51, 0
1, 182879, Note_on_c, 9, 35, 0
1, 182880, Note_on_c, 9, 51, 127
1, 182902, Note_on_c, 9, 51, 0
1, 183360, Note_on_c, 9, 40, 127
1, 183360, Note_on_c, 9, 51, 127
1, 183382, Note_on_c, 9, 51, 0
1, 183839, Note_on_c, 9, 40, 0
1, 183840, Note_on_c, 9, 51, 127
1, 183850, Note_on_c, 9, 51, 0
1, 184080, Note_on_c, 9, 51, 125
1, 184090, Note_on_c, 9, 51, 0
1, 184320, Note_on_c, 9, 51, 127
1, 184320, Note_on_c, 9, 35, 127
1, 184342, Note_on_c, 9, 51, 0
1, 184799, Note_on_c, 9, 35, 0
1, 184800, Note_on_c, 9, 51, 127
1, 184822, Note_on_c, 9, 51, 0
1, 185280, Note_on_c, 9, 40, 127
1, 185280, Note_on_c, 9, 51, 127
1, 185302, Note_on_c, 9, 51, 0
1, 185759, Note_on_c, 9, 40, 0
1, 185760, Note_on_c, 9, 51, 127
1, 185770, Note_on_c, 9, 51, 0
1, 186000, Note_on_c, 9, 51, 127
1, 186000, Note_on_c, 9, 35, 127
1, 186010, Note_on_c, 9, 51, 0
1, 186239, Note_on_c, 9, 35, 0
1, 186240, Note_on_c, 9, 51, 127
1, 186240, Note_on_c, 9, 35, 127
1, 186256, Note_on_c, 9, 51, 0
1, 186600, Note_on_c, 9, 40, 127
1, 186719, Note_on_c, 9, 35, 0
1, 186719, Note_on_c, 9, 40, 0
1, 186720, Note_on_c, 9, 40, 127
1, 186959, Note_on_c, 9, 40, 0
1, 186960, Note_on_c, 9, 40, 127
1, 187199, Note_on_c, 9, 40, 0
1, 187200, Note_on_c, 9, 40, 127
1, 187439, Note_on_c, 9, 40, 0
1, 187440, Note_on_c, 9, 45, 127
1, 187679, Note_on_c, 9, 45, 0
1, 187680, Note_on_c, 9, 43, 127
1, 187920, Note_on_c, 9, 41, 127
1, 188159, Note_on_c, 9, 43, 0
1, 188159, Note_on_c, 9, 41, 0
1, 188160, Note_on_c, 9, 49, 127
1, 188160, Note_on_c, 9, 35, 127
1, 188182, Note_on_c, 9, 49, 0
1, 188639, Note_on_c, 9, 35, 0
1, 188640, Note_on_c, 9, 35, 127
1, 188879, Note_on_c, 9, 35, 0
1, 188880, Note_on_c, 9, 35, 127
1, 189119, Note_on_c, 9, 35, 0
1, 189120, Note_on_c, 9, 40, 127
1, 189120, Note_on_c, 9, 57, 127
1, 189142, Note_on_c, 9, 57, 0
1, 189599, Note_on_c, 9, 40, 0
1, 189600, Note_on_c, 9, 51, 127
1, 189622, Note_on_c, 9, 51, 0
1, 190080, Note_on_c, 9, 51, 127
1, 190080, Note_on_c, 9, 35, 127
1, 190102, Note_on_c, 9, 51, 0
1, 190559, Note_on_c, 9, 35, 0
1, 190560, Note_on_c, 9, 51, 127
1, 190570, Note_on_c, 9, 51, 0
1, 190800, Note_on_c, 9, 51, 123
1, 190810, Note_on_c, 9, 51, 0
1, 191040, Note_on_c, 9, 40, 127
1, 191040, Note_on_c, 9, 51, 127
1, 191062, Note_on_c, 9, 51, 0
1, 191519, Note_on_c, 9, 40, 0
1, 191520, Note_on_c, 9, 51, 127
1, 191530, Note_on_c, 9, 51, 0
1, 191760, Note_on_c, 9, 51, 114
1, 191760, Note_on_c, 9, 35, 127
1, 191770, Note_on_c, 9, 51, 0
1, 191999, Note_on_c, 9, 35, 0
1, 192000, Note_on_c, 9, 51, 127
1, 192000, Note_on_c, 9, 35, 127
1, 192022, Note_on_c, 9, 51, 0
1, 192479, Note_on_c, 9, 35, 0
1, 192480, Note_on_c, 9, 51, 127
1, 192480, Note_on_c, 9, 35, 127
1, 192490, Note_on_c, 9, 51, 0
1, 192720, Note_on_c, 9, 51, 127
1, 192730, Note_on_c, 9, 51, 0
1, 192959, Note_on_c, 9, 35, 0
1, 192960, Note_on_c, 9, 40, 127
1, 192960, Note_on_c, 9, 51, 127
1, 192982, Note_on_c, 9, 51, 0
1, 193439, Note_on_c, 9, 40, 0
1, 193440, Note_on_c, 9, 51, 127
1, 193450, Note_on_c, 9, 51, 0
1, 193680, Note_on_c, 9, 51, 123
1, 193680, Note_on_c, 9, 35, 127
1, 193690, Note_on_c, 9, 51, 0
1, 193919, Note_on_c, 9, 35, 0
1, 193920, Note_on_c, 9, 51, 127
1, 193920, Note_on_c, 9, 35, 127
1, 193942, Note_on_c, 9, 51, 0
1, 194399, Note_on_c, 9, 35, 0
1, 194400, Note_on_c, 9, 51, 127
1, 194400, Note_on_c, 9, 35, 127
1, 194410, Note_on_c, 9, 51, 0
1, 194640, Note_on_c, 9, 51, 124
1, 194650, Note_on_c, 9, 51, 0
1, 194879, Note_on_c, 9, 35, 0
1, 194880, Note_on_c, 9, 40, 127
1, 194880, Note_on_c, 9, 51, 127
1, 194902, Note_on_c, 9, 51, 0
1, 195120, Note_on_c, 9, 43, 127
1, 195359, Note_on_c, 9, 40, 0
1, 195359, Note_on_c, 9, 43, 0
1, 195360, Note_on_c, 9, 41, 127
1, 195360, Note_on_c, 9, 51, 127
1, 195382, Note_on_c, 9, 51, 0
1, 195839, Note_on_c, 9, 41, 0
1, 195840, Note_on_c, 9, 49, 127
1, 195840, Note_on_c, 9, 35, 127
1, 195862, Note_on_c, 9, 49, 0
1, 196319, Note_on_c, 9, 35, 0
1, 196320, Note_on_c, 9, 51, 127
1, 196330, Note_on_c, 9, 51, 0
1, 196560, Note_on_c, 9, 51, 127
1, 196570, Note_on_c, 9, 51, 0
1, 196800, Note_on_c, 9, 40, 127
1, 196800, Note_on_c, 9, 51, 127
1, 196822, Note_on_c, 9, 51, 0
1, 197279, Note_on_c, 9, 40, 0
1, 197280, Note_on_c, 9, 51, 127
1, 197302, Note_on_c, 9, 51, 0
1, 197520, Note_on_c, 9, 35, 127
1, 197759, Note_on_c, 9, 35, 0
1, 197760, Note_on_c, 9, 51, 127
1, 197760, Note_on_c, 9, 35, 127
1, 197782, Note_on_c, 9, 51, 0
1, 198239, Note_on_c, 9, 35, 0
1, 198240, Note_on_c, 9, 51, 127
1, 198250, Note_on_c, 9, 51, 0
1, 198480, Note_on_c, 9, 51, 127
1, 198490, Note_on_c, 9, 51, 0
1, 198720, Note_on_c, 9, 40, 127
1, 198720, Note_on_c, 9, 51, 127
1, 198742, Note_on_c, 9, 51, 0
1, 199199, Note_on_c, 9, 40, 0
1, 199200, Note_on_c, 9, 51, 127
1, 199222, Note_on_c, 9, 51, 0
1, 199440, Note_on_c, 9, 35, 127
1, 199679, Note_on_c, 9, 35, 0
1, 199680, Note_on_c, 9, 51, 127
1, 199680, Note_on_c, 9, 35, 127
1, 199702, Note_on_c, 9, 51, 0
1, 200159, Note_on_c, 9, 35, 0
1, 200160, Note_on_c, 9, 51, 127
1, 200170, Note_on_c, 9, 51, 0
1, 200400, Note_on_c, 9, 51, 127
1, 200410, Note_on_c, 9, 51, 0
1, 200640, Note_on_c, 9, 40, 127
1, 200640, Note_on_c, 9, 51, 127
1, 200662, Note_on_c, 9, 51, 0
1, 200880, Note_on_c, 9, 35, 127
1, 201119, Note_on_c, 9, 40, 0
1, 201119, Note_on_c, 9, 35, 0
1, 201120, Note_on_c, 9, 51, 127
1, 201142, Note_on_c, 9, 51, 0
1, 201360, Note_on_c, 9, 35, 127
1, 201599, Note_on_c, 9, 35, 0
1, 201600, Note_on_c, 9, 40, 127
1, 201600, Note_on_c, 9, 51, 127
1, 201610, Note_on_c, 9, 51, 0
1, 201839, Note_on_c, 9, 40, 0
1, 201840, Note_on_c, 9, 51, 127
1, 201840, Note_on_c, 9, 35, 127
1, 201850, Note_on_c, 9, 51, 0
1, 202079, Note_on_c, 9, 35, 0
1, 202080, Note_on_c, 9, 51, 127
1, 202102, Note_on_c, 9, 51, 0
1, 202320, Note_on_c, 9, 35, 127
1, 202559, Note_on_c, 9, 35, 0
1, 202560, Note_on_c, 9, 40, 127
1, 202560, Note_on_c, 9, 45, 127
1, 202560, Note_on_c, 9, 51, 127
1, 202560, Note_on_c, 9, 43, 127
1, 202582, Note_on_c, 9, 51, 0
1, 202799, Note_on_c, 9, 43, 0
1, 202800, Note_on_c, 9, 35, 127
1, 203039, Note_on_c, 9, 40, 0
1, 203039, Note_on_c, 9, 45, 0
1, 203039, Note_on_c, 9, 35, 0
1, 203040, Note_on_c, 9, 45, 127
1, 203040, Note_on_c, 9, 35, 127
1, 203159, Note_on_c, 9, 35, 0
1, 203160, Note_on_c, 9, 43, 127
1, 203279, Note_on_c, 9, 43, 0
1, 203280, Note_on_c, 9, 35, 127
1, 203519, Note_on_c, 9, 45, 0
1, 203519, Note_on_c, 9, 35, 0
1, 203520, Note_on_c, 9, 49, 127
1, 203520, Note_on_c, 9, 35, 127
1, 203542, Note_on_c, 9, 49, 0
1, 203999, Note_on_c, 9, 35, 0
1, 204480, Note_on_c, 9, 40, 127
1, 204480, Note_on_c, 9, 57, 127
1, 204502, Note_on_c, 9, 57, 0
1, 204959, Note_on_c, 9, 40, 0
1, 204990, Note_on_c, 9, 51, 127
1, 204991, Note_on_c, 9, 51, 0
1, 205200, Note_on_c, 9, 51, 122
1, 205200, Note_on_c, 9, 35, 127
1, 205210, Note_on_c, 9, 51, 0
1, 205439, Note_on_c, 9, 35, 0
1, 205440, Note_on_c, 9, 51, 127
1, 205440, Note_on_c, 9, 35, 127
1, 205462, Note_on_c, 9, 51, 0
1, 205919, Note_on_c, 9, 35, 0
1, 205920, Note_on_c, 9, 51, 127
1, 205930, Note_on_c, 9, 51, 0
1, 206160, Note_on_c, 9, 51, 110
1, 206170, Note_on_c, 9, 51, 0
1, 206400, Note_on_c, 9, 40, 127
1, 206400, Note_on_c, 9, 51, 127
1, 206422, Note_on_c, 9, 51, 0
1, 206879, Note_on_c, 9, 40, 0
1, 206880, Note_on_c, 9, 51, 127
1, 206890, Note_on_c, 9, 51, 0
1, 207120, Note_on_c, 9, 51, 117
1, 207120, Note_on_c, 9, 35, 127
1, 207130, Note_on_c, 9, 51, 0
1, 207359, Note_on_c, 9, 35, 0
1, 207360, Note_on_c, 9, 51, 127
1, 207360, Note_on_c, 9, 35, 127
1, 207382, Note_on_c, 9, 51, 0
1, 207839, Note_on_c, 9, 35, 0
1, 207840, Note_on_c, 9, 51, 127
1, 207862, Note_on_c, 9, 51, 0
1, 208320, Note_on_c, 9, 40, 127
1, 208320, Note_on_c, 9, 51, 127
1, 208342, Note_on_c, 9, 51, 0
1, 208799, Note_on_c, 9, 40, 0
1, 208800, Note_on_c, 9, 51, 127
1, 208810, Note_on_c, 9, 51, 0
1, 209040, Note_on_c, 9, 51, 127
1, 209040, Note_on_c, 9, 35, 127
1, 209050, Note_on_c, 9, 51, 0
1, 209279, Note_on_c, 9, 35, 0
1, 209280, Note_on_c, 9, 51, 127
1, 209280, Note_on_c, 9, 35, 127
1, 209302, Note_on_c, 9, 51, 0
1, 209759, Note_on_c, 9, 35, 0
1, 209760, Note_on_c, 9, 51, 127
1, 209760, Note_on_c, 9, 35, 127
1, 209770, Note_on_c, 9, 51, 0
1, 210000, Note_on_c, 9, 51, 122
1, 210010, Note_on_c, 9, 51, 0
1, 210239, Note_on_c, 9, 35, 0
1, 210240, Note_on_c, 9, 40, 127
1, 210240, Note_on_c, 9, 51, 127
1, 210262, Note_on_c, 9, 51, 0
1, 210480, Note_on_c, 9, 43, 127
1, 210719, Note_on_c, 9, 40, 0
1, 210719, Note_on_c, 9, 43, 0
1, 210720, Note_on_c, 9, 41, 127
1, 210720, Note_on_c, 9, 51, 127
1, 210742, Note_on_c, 9, 51, 0
1, 211199, Note_on_c, 9, 41, 0
1, 211200, Note_on_c, 9, 49, 127
1, 211200, Note_on_c, 9, 35, 127
1, 211222, Note_on_c, 9, 49, 0
1, 211679, Note_on_c, 9, 35, 0
1, 211680, Note_on_c, 9, 51, 127
1, 211690, Note_on_c, 9, 51, 0
1, 211920, Note_on_c, 9, 51, 127
1, 211930, Note_on_c, 9, 51, 0
1, 212160, Note_on_c, 9, 40, 127
1, 212160, Note_on_c, 9, 57, 127
1, 212182, Note_on_c, 9, 57, 0
1, 212639, Note_on_c, 9, 40, 0
1, 212640, Note_on_c, 9, 51, 127
1, 212650, Note_on_c, 9, 51, 0
1, 212880, Note_on_c, 9, 51, 126
1, 212890, Note_on_c, 9, 51, 0
1, 212910, Note_on_c, 9, 35, 127
1, 212969, Note_on_c, 9, 35, 0
1, 213120, Note_on_c, 9, 51, 127
1, 213120, Note_on_c, 9, 35, 127
1, 213142, Note_on_c, 9, 51, 0
1, 213599, Note_on_c, 9, 35, 0
1, 213600, Note_on_c, 9, 51, 127
1, 213610, Note_on_c, 9, 51, 0
1, 213840, Note_on_c, 9, 51, 121
1, 213850, Note_on_c, 9, 51, 0
1, 214080, Note_on_c, 9, 40, 127
1, 214080, Note_on_c, 9, 51, 127
1, 214102, Note_on_c, 9, 51, 0
1, 214559, Note_on_c, 9, 40, 0
1, 214560, Note_on_c, 9, 51, 127
1, 214570, Note_on_c, 9, 51, 0
1, 214800, Note_on_c, 9, 51, 127
1, 214800, Note_on_c, 9, 35, 127
1, 214810, Note_on_c, 9, 51, 0
1, 215039, Note_on_c, 9, 35, 0
1, 215040, Note_on_c, 9, 51, 127
1, 215040, Note_on_c, 9, 35, 127
1, 215062, Note_on_c, 9, 51, 0
1, 215519, Note_on_c, 9, 35, 0
1, 215520, Note_on_c, 9, 51, 127
1, 215530, Note_on_c, 9, 51, 0
1, 215760, Note_on_c, 9, 51, 127
1, 215770, Note_on_c, 9, 51, 0
1, 216000, Note_on_c, 9, 40, 127
1, 216000, Note_on_c, 9, 51, 127
1, 216022, Note_on_c, 9, 51, 0
1, 216479, Note_on_c, 9, 40, 0
1, 216480, Note_on_c, 9, 51, 127
1, 216490, Note_on_c, 9, 51, 0
1, 216720, Note_on_c, 9, 51, 127
1, 216720, Note_on_c, 9, 35, 127
1, 216730, Note_on_c, 9, 51, 0
1, 216959, Note_on_c, 9, 35, 0
1, 216960, Note_on_c, 9, 51, 127
1, 216960, Note_on_c, 9, 35, 127
1, 216970, Note_on_c, 9, 51, 0
1, 217260, Note_on_c, 9, 40, 127
1, 217260, Note_on_c, 9, 51, 127
1, 217267, Note_on_c, 9, 51, 0
1, 217279, Note_on_c, 9, 35, 0
1, 217280, Note_on_c, 9, 35, 127
1, 217439, Note_on_c, 9, 40, 0
1, 217439, Note_on_c, 9, 35, 0
1, 217440, Note_on_c, 9, 40, 127
1, 217440, Note_on_c, 9, 51, 127
1, 217440, Note_on_c, 9, 35, 127
1, 217450, Note_on_c, 9, 51, 0
1, 217679, Note_on_c, 9, 40, 0
1, 217679, Note_on_c, 9, 35, 0
1, 217680, Note_on_c, 9, 40, 127
1, 217680, Note_on_c, 9, 51, 127
1, 217680, Note_on_c, 9, 35, 127
1, 217690, Note_on_c, 9, 51, 0
1, 217919, Note_on_c, 9, 40, 0
1, 217919, Note_on_c, 9, 35, 0
1, 217920, Note_on_c, 9, 40, 127
1, 217920, Note_on_c, 9, 51, 127
1, 217930, Note_on_c, 9, 51, 0
1, 218000, Note_on_c, 9, 35, 127
1, 218159, Note_on_c, 9, 40, 0
1, 218220, Note_on_c, 9, 40, 127
1, 218220, Note_on_c, 9, 51, 127
1, 218227, Note_on_c, 9, 51, 0
1, 218239, Note_on_c, 9, 35, 0
1, 218240, Note_on_c, 9, 35, 127
1, 218399, Note_on_c, 9, 40, 0
1, 218399, Note_on_c, 9, 35, 0
1, 218400, Note_on_c, 9, 40, 127
1, 218400, Note_on_c, 9, 35, 127
1, 218639, Note_on_c, 9, 40, 0
1, 218640, Note_on_c, 9, 46, 127
1, 218650, Note_on_c, 9, 46, 0
1, 218879, Note_on_c, 9, 35, 0
1, 218880, Note_on_c, 9, 42, 127
1, 218880, Note_on_c, 9, 35, 127
1, 218902, Note_on_c, 9, 42, 0
1, 219119, Note_on_c, 9, 35, 0
1, 219120, Note_on_c, 9, 44, 127
1, 219120, Note_on_c, 9, 35, 127
1, 219130, Note_on_c, 9, 44, 0
1, 219359, Note_on_c, 9, 35, 0
1, 219360, Note_on_c, 9, 42, 127
1, 219382, Note_on_c, 9, 42, 0
1, 219600, Note_on_c, 9, 44, 127
1, 219610, Note_on_c, 9, 44, 0
1, 219840, Note_on_c, 9, 40, 127
1, 219840, Note_on_c, 9, 42, 127
1, 219862, Note_on_c, 9, 42, 0
1, 220080, Note_on_c, 9, 44, 113
1, 220090, Note_on_c, 9, 44, 0
1, 220319, Note_on_c, 9, 40, 0
1, 220320, Note_on_c, 9, 42, 127
1, 220342, Note_on_c, 9, 42, 0
1, 220560, Note_on_c, 9, 44, 127
1, 220570, Note_on_c, 9, 44, 0
1, 220800, Note_on_c, 9, 42, 127
1, 220800, Note_on_c, 9, 35, 127
1, 220822, Note_on_c, 9, 42, 0
1, 221039, Note_on_c, 9, 35, 0
1, 221040, Note_on_c, 9, 44, 127
1, 221040, Note_on_c, 9, 35, 127
1, 221050, Note_on_c, 9, 44, 0
1, 221279, Note_on_c, 9, 35, 0
1, 221280, Note_on_c, 9, 42, 127
1, 221302, Note_on_c, 9, 42, 0
1, 221520, Note_on_c, 9, 44, 127
1, 221530, Note_on_c, 9, 44, 0
1, 221760, Note_on_c, 9, 40, 127
1, 221760, Note_on_c, 9, 42, 127
1, 221782, Note_on_c, 9, 42, 0
1, 222000, Note_on_c, 9, 44, 125
1, 222010, Note_on_c, 9, 44, 0
1, 222239, Note_on_c, 9, 40, 0
1, 222240, Note_on_c, 9, 42, 127
1, 222262, Note_on_c, 9, 42, 0
1, 222480, Note_on_c, 9, 44, 127
1, 222490, Note_on_c, 9, 44, 0
1, 222720, Note_on_c, 9, 42, 127
1, 222742, Note_on_c, 9, 42, 0
1, 222800, Note_on_c, 9, 35, 127
1, 223039, Note_on_c, 9, 35, 0
1, 223040, Note_on_c, 9, 44, 127
1, 223040, Note_on_c, 9, 35, 127
1, 223046, Note_on_c, 9, 44, 0
1, 223199, Note_on_c, 9, 35, 0
1, 223200, Note_on_c, 9, 42, 127
1, 223222, Note_on_c, 9, 42, 0
1, 223440, Note_on_c, 9, 44, 127
1, 223450, Note_on_c, 9, 44, 0
1, 223680, Note_on_c, 9, 40, 127
1, 223680, Note_on_c, 9, 42, 127
1, 223702, Note_on_c, 9, 42, 0
1, 223920, Note_on_c, 9, 44, 127
1, 223930, Note_on_c, 9, 44, 0
1, 224159, Note_on_c, 9, 40, 0
1, 224160, Note_on_c, 9, 42, 127
1, 224182, Note_on_c, 9, 42, 0
1, 224400, Note_on_c, 9, 44, 127
1, 224400, Note_on_c, 9, 35, 127
1, 224410, Note_on_c, 9, 44, 0
1, 224639, Note_on_c, 9, 35, 0
1, 224700, Note_on_c, 9, 42, 127
1, 224700, Note_on_c, 9, 35, 127
1, 224707, Note_on_c, 9, 42, 0
1, 224879, Note_on_c, 9, 35, 0
1, 224910, Note_on_c, 9, 44, 127
1, 224911, Note_on_c, 9, 44, 0
1, 225120, Note_on_c, 9, 42, 127
1, 225120, Note_on_c, 9, 35, 127
1, 225142, Note_on_c, 9, 42, 0
1, 225359, Note_on_c, 9, 35, 0
1, 225360, Note_on_c, 9, 44, 127
1, 225370, Note_on_c, 9, 44, 0
1, 225600, Note_on_c, 9, 40, 127
1, 225600, Note_on_c, 9, 42, 127
1, 225622, Note_on_c, 9, 42, 0
1, 225840, Note_on_c, 9, 44, 127
1, 225850, Note_on_c, 9, 44, 0
1, 226079, Note_on_c, 9, 40, 0
1, 226080, Note_on_c, 9, 46, 127
1, 226102, Note_on_c, 9, 46, 0
1, 226560, Note_on_c, 9, 42, 127
1, 226560, Note_on_c, 9, 35, 127
1, 226582, Note_on_c, 9, 42, 0
1, 226799, Note_on_c, 9, 35, 0
1, 226800, Note_on_c, 9, 44, 126
1, 226800, Note_on_c, 9, 35, 127
1, 226810, Note_on_c, 9, 44, 0
1, 227039, Note_on_c, 9, 35, 0
1, 227040, Note_on_c, 9, 42, 127
1, 227062, Note_on_c, 9, 42, 0
1, 227280, Note_on_c, 9, 44, 127
1, 227290, Note_on_c, 9, 44, 0
1, 227520, Note_on_c, 9, 40, 127
1, 227520, Note_on_c, 9, 42, 127
1, 227542, Note_on_c, 9, 42, 0
1, 227760, Note_on_c, 9, 44, 127
1, 227770, Note_on_c, 9, 44, 0
1, 227999, Note_on_c, 9, 40, 0
1, 228000, Note_on_c, 9, 42, 127
1, 228022, Note_on_c, 9, 42, 0
1, 228240, Note_on_c, 9, 44, 127
1, 228250, Note_on_c, 9, 44, 0
1, 228480, Note_on_c, 9, 42, 127
1, 228480, Note_on_c, 9, 35, 127
1, 228502, Note_on_c, 9, 42, 0
1, 228719, Note_on_c, 9, 35, 0
1, 228720, Note_on_c, 9, 44, 127
1, 228720, Note_on_c, 9, 35, 127
1, 228730, Note_on_c, 9, 44, 0
1, 228959, Note_on_c, 9, 35, 0
1, 228960, Note_on_c, 9, 42, 127
1, 228982, Note_on_c, 9, 42, 0
1, 229200, Note_on_c, 9, 44, 127
1, 229210, Note_on_c, 9, 44, 0
1, 229440, Note_on_c, 9, 40, 127
1, 229440, Note_on_c, 9, 42, 127
1, 229462, Note_on_c, 9, 42, 0
1, 229680, Note_on_c, 9, 44, 122
1, 229690, Note_on_c, 9, 44, 0
1, 229919, Note_on_c, 9, 40, 0
1, 229920, Note_on_c, 9, 42, 127
1, 229942, Note_on_c, 9, 42, 0
1, 230160, Note_on_c, 9, 44, 127
1, 230170, Note_on_c, 9, 44, 0
1, 230400, Note_on_c, 9, 42, 127
1, 230400, Note_on_c, 9, 35, 127
1, 230422, Note_on_c, 9, 42, 0
1, 230639, Note_on_c, 9, 35, 0
1, 230640, Note_on_c, 9, 44, 117
1, 230640, Note_on_c, 9, 35, 127
1, 230650, Note_on_c, 9, 44, 0
1, 230879, Note_on_c, 9, 35, 0
1, 230880, Note_on_c, 9, 42, 127
1, 230902, Note_on_c, 9, 42, 0
1, 231120, Note_on_c, 9, 44, 127
1, 231130, Note_on_c, 9, 44, 0
1, 231360, Note_on_c, 9, 40, 127
1, 231360, Note_on_c, 9, 42, 127
1, 231382, Note_on_c, 9, 42, 0
1, 231600, Note_on_c, 9, 44, 127
1, 231610, Note_on_c, 9, 44, 0
1, 231839, Note_on_c, 9, 40, 0
1, 231840, Note_on_c, 9, 42, 127
1, 231862, Note_on_c, 9, 42, 0
1, 232080, Note_on_c, 9, 44, 127
1, 232080, Note_on_c, 9, 35, 127
1, 232090, Note_on_c, 9, 44, 0
1, 232319, Note_on_c, 9, 35, 0
1, 232320, Note_on_c, 9, 42, 127
1, 232320, Note_on_c, 9, 35, 127
1, 232342, Note_on_c, 9, 42, 0
1, 232559, Note_on_c, 9, 35, 0
1, 232560, Note_on_c, 9, 44, 127
1, 232570, Note_on_c, 9, 44, 0
1, 232800, Note_on_c, 9, 42, 127
1, 232822, Note_on_c, 9, 42, 0
1, 233040, Note_on_c, 9, 44, 127
1, 233040, Note_on_c, 9, 35, 127
1, 233050, Note_on_c, 9, 44, 0
1, 233279, Note_on_c, 9, 35, 0
1, 233280, Note_on_c, 9, 40, 127
1, 233280, Note_on_c, 9, 42, 127
1, 233302, Note_on_c, 9, 42, 0
1, 233550, Note_on_c, 9, 44, 127
1, 233551, Note_on_c, 9, 44, 0
1, 233759, Note_on_c, 9, 40, 0
1, 233760, Note_on_c, 9, 40, 127
1, 233760, Note_on_c, 9, 42, 127
1, 233760, Note_on_c, 9, 57, 127
1, 233782, Note_on_c, 9, 42, 0
1, 233782, Note_on_c, 9, 57, 0
1, 234000, Note_on_c, 9, 44, 127
1, 234010, Note_on_c, 9, 44, 0
1, 234239, Note_on_c, 9, 40, 0
1, 234240, Note_on_c, 9, 42, 127
1, 234240, Note_on_c, 9, 35, 127
1, 234262, Note_on_c, 9, 42, 0
1, 234479, Note_on_c, 9, 35, 0
1, 234480, Note_on_c, 9, 44, 127
1, 234480, Note_on_c, 9, 35, 127
1, 234490, Note_on_c, 9, 44, 0
1, 234719, Note_on_c, 9, 35, 0
1, 234720, Note_on_c, 9, 42, 127
1, 234742, Note_on_c, 9, 42, 0
1, 234960, Note_on_c, 9, 44, 127
1, 234970, Note_on_c, 9, 44, 0
1, 235200, Note_on_c, 9, 40, 127
1, 235200, Note_on_c, 9, 42, 127
1, 235222, Note_on_c, 9, 42, 0
1, 235440, Note_on_c, 9, 44, 127
1, 235450, Note_on_c, 9, 44, 0
1, 235679, Note_on_c, 9, 40, 0
1, 235680, Note_on_c, 9, 42, 127
1, 235702, Note_on_c, 9, 42, 0
1, 235920, Note_on_c, 9, 44, 127
1, 235930, Note_on_c, 9, 44, 0
1, 236160, Note_on_c, 9, 42, 127
1, 236160, Note_on_c, 9, 35, 127
1, 236182, Note_on_c, 9, 42, 0
1, 236399, Note_on_c, 9, 35, 0
1, 236400, Note_on_c, 9, 44, 122
1, 236400, Note_on_c, 9, 35, 127
1, 236410, Note_on_c, 9, 44, 0
1, 236639, Note_on_c, 9, 35, 0
1, 236640, Note_on_c, 9, 42, 127
1, 236662, Note_on_c, 9, 42, 0
1, 236880, Note_on_c, 9, 44, 127
1, 236890, Note_on_c, 9, 44, 0
1, 237120, Note_on_c, 9, 40, 127
1, 237120, Note_on_c, 9, 42, 127
1, 237142, Note_on_c, 9, 42, 0
1, 237360, Note_on_c, 9, 44, 127
1, 237370, Note_on_c, 9, 44, 0
1, 237599, Note_on_c, 9, 40, 0
1, 237600, Note_on_c, 9, 42, 127
1, 237622, Note_on_c, 9, 42, 0
1, 237840, Note_on_c, 9, 44, 127
1, 237850, Note_on_c, 9, 44, 0
1, 238080, Note_on_c, 9, 42, 127
1, 238080, Note_on_c, 9, 35, 127
1, 238102, Note_on_c, 9, 42, 0
1, 238319, Note_on_c, 9, 35, 0
1, 238320, Note_on_c, 9, 44, 127
1, 238320, Note_on_c, 9, 35, 127
1, 238330, Note_on_c, 9, 44, 0
1, 238559, Note_on_c, 9, 35, 0
1, 238560, Note_on_c, 9, 42, 127
1, 238582, Note_on_c, 9, 42, 0
1, 238800, Note_on_c, 9, 44, 127
1, 238810, Note_on_c, 9, 44, 0
1, 239040, Note_on_c, 9, 40, 127
1, 239040, Note_on_c, 9, 42, 127
1, 239062, Note_on_c, 9, 42, 0
1, 239280, Note_on_c, 9, 44, 127
1, 239290, Note_on_c, 9, 44, 0
1, 239519, Note_on_c, 9, 40, 0
1, 239520, Note_on_c, 9, 42, 127
1, 239542, Note_on_c, 9, 42, 0
1, 239760, Note_on_c, 9, 44, 127
1, 239760, Note_on_c, 9, 35, 127
1, 239770, Note_on_c, 9, 44, 0
1, 239999, Note_on_c, 9, 35, 0
1, 240000, Note_on_c, 9, 42, 127
1, 240000, Note_on_c, 9, 35, 127
1, 240022, Note_on_c, 9, 42, 0
1, 240239, Note_on_c, 9, 35, 0
1, 240240, Note_on_c, 9, 44, 127
1, 240250, Note_on_c, 9, 44, 0
1, 240480, Note_on_c, 9, 42, 127
1, 240480, Note_on_c, 9, 35, 127
1, 240502, Note_on_c, 9, 42, 0
1, 240719, Note_on_c, 9, 35, 0
1, 240720, Note_on_c, 9, 44, 127
1, 240730, Note_on_c, 9, 44, 0
1, 240960, Note_on_c, 9, 40, 127
1, 240960, Note_on_c, 9, 42, 127
1, 240982, Note_on_c, 9, 42, 0
1, 241200, Note_on_c, 9, 44, 127
1, 241200, Note_on_c, 9, 35, 127
1, 241210, Note_on_c, 9, 44, 0
1, 241439, Note_on_c, 9, 40, 0
1, 241439, Note_on_c, 9, 35, 0
1, 241440, Note_on_c, 9, 40, 127
1, 241440, Note_on_c, 9, 42, 127
1, 241440, Note_on_c, 9, 35, 127
1, 241462, Note_on_c, 9, 42, 0
1, 241679, Note_on_c, 9, 35, 0
1, 241680, Note_on_c, 9, 44, 127
1, 241690, Note_on_c, 9, 44, 0
1, 241919, Note_on_c, 9, 40, 0
1, 241920, Note_on_c, 9, 42, 127
1, 241920, Note_on_c, 9, 35, 127
1, 241942, Note_on_c, 9, 42, 0
1, 242239, Note_on_c, 9, 35, 0
1, 242240, Note_on_c, 9, 44, 127
1, 242240, Note_on_c, 9, 35, 127
1, 242246, Note_on_c, 9, 44, 0
1, 242399, Note_on_c, 9, 35, 0
1, 242400, Note_on_c, 9, 46, 127
1, 242422, Note_on_c, 9, 46, 0
1, 242880, Note_on_c, 9, 40, 127
1, 242880, Note_on_c, 9, 42, 127
1, 242902, Note_on_c, 9, 42, 0
1, 243120, Note_on_c, 9, 44, 127
1, 243130, Note_on_c, 9, 44, 0
1, 243359, Note_on_c, 9, 40, 0
1, 243360, Note_on_c, 9, 42, 127
1, 243382, Note_on_c, 9, 42, 0
1, 243600, Note_on_c, 9, 44, 109
1, 243600, Note_on_c, 9, 35, 127
1, 243610, Note_on_c, 9, 44, 0
1, 243839, Note_on_c, 9, 35, 0
1, 243840, Note_on_c, 9, 42, 127
1, 243840, Note_on_c, 9, 35, 127
1, 243862, Note_on_c, 9, 42, 0
1, 244079, Note_on_c, 9, 35, 0
1, 244080, Note_on_c, 9, 44, 114
1, 244080, Note_on_c, 9, 35, 127
1, 244090, Note_on_c, 9, 44, 0
1, 244319, Note_on_c, 9, 35, 0
1, 244320, Note_on_c, 9, 42, 127
1, 244320, Note_on_c, 9, 35, 127
1, 244342, Note_on_c, 9, 42, 0
1, 244559, Note_on_c, 9, 35, 0
1, 244560, Note_on_c, 9, 44, 127
1, 244560, Note_on_c, 9, 35, 127
1, 244570, Note_on_c, 9, 44, 0
1, 244799, Note_on_c, 9, 35, 0
1, 244800, Note_on_c, 9, 40, 127
1, 244800, Note_on_c, 9, 42, 127
1, 244822, Note_on_c, 9, 42, 0
1, 245040, Note_on_c, 9, 44, 127
1, 245050, Note_on_c, 9, 44, 0
1, 245279, Note_on_c, 9, 40, 0
1, 245280, Note_on_c, 9, 42, 127
1, 245302, Note_on_c, 9, 42, 0
1, 245520, Note_on_c, 9, 44, 127
1, 245530, Note_on_c, 9, 44, 0
1, 245760, Note_on_c, 9, 42, 127
1, 245760, Note_on_c, 9, 35, 127
1, 245782, Note_on_c, 9, 42, 0
1, 245999, Note_on_c, 9, 35, 0
1, 246000, Note_on_c, 9, 44, 127
1, 246000, Note_on_c, 9, 35, 127
1, 246010, Note_on_c, 9, 44, 0
1, 246239, Note_on_c, 9, 35, 0
1, 246240, Note_on_c, 9, 42, 127
1, 246262, Note_on_c, 9, 42, 0
1, 246480, Note_on_c, 9, 44, 127
1, 246480, Note_on_c, 9, 35, 127
1, 246490, Note_on_c, 9, 44, 0
1, 246719, Note_on_c, 9, 35, 0
1, 246720, Note_on_c, 9, 40, 127
1, 246720, Note_on_c, 9, 42, 127
1, 246742, Note_on_c, 9, 42, 0
1, 246960, Note_on_c, 9, 44, 127
1, 246970, Note_on_c, 9, 44, 0
1, 247199, Note_on_c, 9, 40, 0
1, 247200, Note_on_c, 9, 42, 127
1, 247222, Note_on_c, 9, 42, 0
1, 247440, Note_on_c, 9, 44, 127
1, 247440, Note_on_c, 9, 35, 127
1, 247450, Note_on_c, 9, 44, 0
1, 247679, Note_on_c, 9, 35, 0
1, 247680, Note_on_c, 9, 42, 127
1, 247680, Note_on_c, 9, 35, 127
1, 247702, Note_on_c, 9, 42, 0
1, 247919, Note_on_c, 9, 35, 0
1, 247920, Note_on_c, 9, 44, 127
1, 247920, Note_on_c, 9, 35, 127
1, 247930, Note_on_c, 9, 44, 0
1, 248159, Note_on_c, 9, 35, 0
1, 248160, Note_on_c, 9, 42, 127
1, 248160, Note_on_c, 9, 35, 127
1, 248182, Note_on_c, 9, 42, 0
1, 248399, Note_on_c, 9, 35, 0
1, 248400, Note_on_c, 9, 44, 127
1, 248400, Note_on_c, 9, 35, 127
1, 248410, Note_on_c, 9, 44, 0
1, 248639, Note_on_c, 9, 35, 0
1, 248640, Note_on_c, 9, 40, 127
1, 248640, Note_on_c, 9, 42, 127
1, 248640, Note_on_c, 9, 35, 127
1, 248662, Note_on_c, 9, 42, 0
1, 248879, Note_on_c, 9, 35, 0
1, 248880, Note_on_c, 9, 44, 127
1, 248880, Note_on_c, 9, 35, 127
1, 248890, Note_on_c, 9, 44, 0
1, 249119, Note_on_c, 9, 40, 0
1, 249119, Note_on_c, 9, 35, 0
1, 249120, Note_on_c, 9, 42, 127
1, 249120, Note_on_c, 9, 35, 127
1, 249142, Note_on_c, 9, 42, 0
1, 249359, Note_on_c, 9, 35, 0
1, 249360, Note_on_c, 9, 44, 127
1, 249360, Note_on_c, 9, 35, 127
1, 249370, Note_on_c, 9, 44, 0
1, 249599, Note_on_c, 9, 35, 0
1, 249600, Note_on_c, 9, 42, 127
1, 249600, Note_on_c, 9, 49, 127
1, 249600, Note_on_c, 9, 35, 127
1, 249622, Note_on_c, 9, 42, 0
1, 249622, Note_on_c, 9, 49, 0
1, 249839, Note_on_c, 9, 35, 0
1, 249840, Note_on_c, 9, 44, 127
1, 249840, Note_on_c, 9, 35, 127
1, 249850, Note_on_c, 9, 44, 0
1, 250079, Note_on_c, 9, 35, 0
1, 250080, Note_on_c, 9, 46, 127
1, 250102, Note_on_c, 9, 46, 0
1, 250560, Note_on_c, 9, 40, 127
1, 250560, Note_on_c, 9, 42, 127
1, 250582, Note_on_c, 9, 42, 0
1, 250800, Note_on_c, 9, 44, 127
1, 250810, Note_on_c, 9, 44, 0
1, 251039, Note_on_c, 9, 40, 0
1, 251040, Note_on_c, 9, 42, 127
1, 251062, Note_on_c, 9, 42, 0
1, 251280, Note_on_c, 9, 44, 127
1, 251290, Note_on_c, 9, 44, 0
1, 251520, Note_on_c, 9, 42, 127
1, 251520, Note_on_c, 9, 35, 127
1, 251542, Note_on_c, 9, 42, 0
1, 251759, Note_on_c, 9, 35, 0
1, 251760, Note_on_c, 9, 44, 119
1, 251760, Note_on_c, 9, 35, 127
1, 251770, Note_on_c, 9, 44, 0
1, 251999, Note_on_c, 9, 35, 0
1, 252000, Note_on_c, 9, 42, 127
1, 252022, Note_on_c, 9, 42, 0
1, 252240, Note_on_c, 9, 44, 109
1, 252250, Note_on_c, 9, 44, 0
1, 252480, Note_on_c, 9, 40, 127
1, 252480, Note_on_c, 9, 42, 127
1, 252502, Note_on_c, 9, 42, 0
1, 252720, Note_on_c, 9, 44, 127
1, 252730, Note_on_c, 9, 44, 0
1, 252959, Note_on_c, 9, 40, 0
1, 252960, Note_on_c, 9, 42, 127
1, 252982, Note_on_c, 9, 42, 0
1, 253200, Note_on_c, 9, 44, 119
1, 253210, Note_on_c, 9, 44, 0
1, 253440, Note_on_c, 9, 42, 127
1, 253440, Note_on_c, 9, 35, 127
1, 253462, Note_on_c, 9, 42, 0
1, 253679, Note_on_c, 9, 35, 0
1, 253680, Note_on_c, 9, 44, 123
1, 253690, Note_on_c, 9, 44, 0
1, 253920, Note_on_c, 9, 42, 127
1, 253942, Note_on_c, 9, 42, 0
1, 254160, Note_on_c, 9, 44, 127
1, 254170, Note_on_c, 9, 44, 0
1, 254400, Note_on_c, 9, 40, 127
1, 254400, Note_on_c, 9, 42, 127
1, 254422, Note_on_c, 9, 42, 0
1, 254640, Note_on_c, 9, 44, 124
1, 254650, Note_on_c, 9, 44, 0
1, 254879, Note_on_c, 9, 40, 0
1, 254880, Note_on_c, 9, 42, 127
1, 254902, Note_on_c, 9, 42, 0
1, 255120, Note_on_c, 9, 44, 127
1, 255130, Note_on_c, 9, 44, 0
1, 255360, Note_on_c, 9, 42, 127
1, 255382, Note_on_c, 9, 42, 0
1, 255600, Note_on_c, 9, 44, 127
1, 255600, Note_on_c, 9, 35, 127
1, 255610, Note_on_c, 9, 44, 0
1, 255839, Note_on_c, 9, 35, 0
1, 255840, Note_on_c, 9, 42, 127
1, 255840, Note_on_c, 9, 35, 127
1, 255862, Note_on_c, 9, 42, 0
1, 256079, Note_on_c, 9, 35, 0
1, 256080, Note_on_c, 9, 44, 125
1, 256080, Note_on_c, 9, 35, 127
1, 256090, Note_on_c, 9, 44, 0
1, 256319, Note_on_c, 9, 35, 0
1, 256320, Note_on_c, 9, 40, 127
1, 256320, Note_on_c, 9, 42, 127
1, 256342, Note_on_c, 9, 42, 0
1, 256560, Note_on_c, 9, 44, 121
1, 256570, Note_on_c, 9, 44, 0
1, 256799, Note_on_c, 9, 40, 0
1, 256800, Note_on_c, 9, 40, 127
1, 256800, Note_on_c, 9, 42, 127
1, 256822, Note_on_c, 9, 42, 0
1, 257040, Note_on_c, 9, 44, 119
1, 257050, Note_on_c, 9, 44, 0
1, 257279, Note_on_c, 9, 40, 0
1, 257280, Note_on_c, 9, 42, 127
1, 257280, Note_on_c, 9, 35, 127
1, 257302, Note_on_c, 9, 42, 0
1, 257519, Note_on_c, 9, 35, 0
1, 257520, Note_on_c, 9, 44, 124
1, 257520, Note_on_c, 9, 35, 127
1, 257530, Note_on_c, 9, 44, 0
1, 257759, Note_on_c, 9, 35, 0
1, 257760, Note_on_c, 9, 42, 127
1, 257782, Note_on_c, 9, 42, 0
1, 258000, Note_on_c, 9, 44, 122
1, 258010, Note_on_c, 9, 44, 0
1, 258240, Note_on_c, 9, 40, 127
1, 258240, Note_on_c, 9, 42, 127
1, 258262, Note_on_c, 9, 42, 0
1, 258480, Note_on_c, 9, 44, 127
1, 258490, Note_on_c, 9, 44, 0
1, 258719, Note_on_c, 9, 40, 0
1, 258720, Note_on_c, 9, 42, 127
1, 258742, Note_on_c, 9, 42, 0
1, 258960, Note_on_c, 9, 44, 124
1, 258960, Note_on_c, 9, 35, 127
1, 258970, Note_on_c, 9, 44, 0
1, 259199, Note_on_c, 9, 35, 0
1, 259200, Note_on_c, 9, 42, 127
1, 259200, Note_on_c, 9, 35, 127
1, 259222, Note_on_c, 9, 42, 0
1, 259439, Note_on_c, 9, 35, 0
1, 259440, Note_on_c, 9, 44, 127
1, 259440, Note_on_c, 9, 35, 127
1, 259450, Note_on_c, 9, 44, 0
1, 259679, Note_on_c, 9, 35, 0
1, 259680, Note_on_c, 9, 42, 127
1, 259702, Note_on_c, 9, 42, 0
1, 259920, Note_on_c, 9, 44, 114
1, 259930, Note_on_c, 9, 44, 0
1, 260160, Note_on_c, 9, 40, 127
1, 260160, Note_on_c, 9, 42, 127
1, 260182, Note_on_c, 9, 42, 0
1, 260400, Note_on_c, 9, 44, 116
1, 260410, Note_on_c, 9, 44, 0
1, 260639, Note_on_c, 9, 40, 0
1, 260640, Note_on_c, 9, 42, 127
1, 260662, Note_on_c, 9, 42, 0
1, 260880, Note_on_c, 9, 44, 109
1, 260890, Note_on_c, 9, 44, 0
1, 261120, Note_on_c, 9, 42, 127
1, 261120, Note_on_c, 9, 35, 127
1, 261142, Note_on_c, 9, 42, 0
1, 261359, Note_on_c, 9, 35, 0
1, 261360, Note_on_c, 9, 44, 127
1, 261360, Note_on_c, 9, 35, 127
1, 261370, Note_on_c, 9, 44, 0
1, 261599, Note_on_c, 9, 35, 0
1, 261600, Note_on_c, 9, 42, 127
1, 261622, Note_on_c, 9, 42, 0
1, 261840, Note_on_c, 9, 44, 109
1, 261850, Note_on_c, 9, 44, 0
1, 262080, Note_on_c, 9, 40, 127
1, 262080, Note_on_c, 9, 42, 127
1, 262102, Note_on_c, 9, 42, 0
1, 262320, Note_on_c, 9, 44, 127
1, 262330, Note_on_c, 9, 44, 0
1, 262559, Note_on_c, 9, 40, 0
1, 262560, Note_on_c, 9, 42, 127
1, 262582, Note_on_c, 9, 42, 0
1, 262800, Note_on_c, 9, 44, 109
1, 262800, Note_on_c, 9, 35, 127
1, 262810, Note_on_c, 9, 44, 0
1, 263039, Note_on_c, 9, 35, 0
1, 263040, Note_on_c, 9, 42, 127
1, 263040, Note_on_c, 9, 35, 127
1, 263050, Note_on_c, 9, 42, 0
1, 263279, Note_on_c, 9, 35, 0
1, 263280, Note_on_c, 9, 40, 127
1, 263280, Note_on_c, 9, 44, 127
1, 263290, Note_on_c, 9, 44, 0
1, 263519, Note_on_c, 9, 40, 0
1, 263520, Note_on_c, 9, 42, 127
1, 263542, Note_on_c, 9, 42, 0
1, 263760, Note_on_c, 9, 44, 127
1, 263760, Note_on_c, 9, 35, 127
1, 263770, Note_on_c, 9, 44, 0
1, 263999, Note_on_c, 9, 35, 0
1, 264000, Note_on_c, 9, 40, 127
1, 264000, Note_on_c, 9, 42, 127
1, 264022, Note_on_c, 9, 42, 0
1, 264240, Note_on_c, 9, 44, 127
1, 264240, Note_on_c, 9, 35, 127
1, 264250, Note_on_c, 9, 44, 0
1, 264479, Note_on_c, 9, 40, 0
1, 264479, Note_on_c, 9, 35, 0
1, 264480, Note_on_c, 9, 40, 127
1, 264480, Note_on_c, 9, 42, 127
1, 264480, Note_on_c, 9, 57, 127
1, 264502, Note_on_c, 9, 42, 0
1, 264502, Note_on_c, 9, 57, 0
1, 264720, Note_on_c, 9, 44, 115
1, 264730, Note_on_c, 9, 44, 0
1, 264959, Note_on_c, 9, 40, 0
1, 264960, Note_on_c, 9, 42, 127
1, 264960, Note_on_c, 9, 49, 127
1, 264960, Note_on_c, 9, 35, 127
1, 264982, Note_on_c, 9, 42, 0
1, 264982, Note_on_c, 9, 49, 0
1, 265199, Note_on_c, 9, 35, 0
1, 265200, Note_on_c, 9, 44, 127
1, 265200, Note_on_c, 9, 35, 127
1, 265210, Note_on_c, 9, 44, 0
1, 265439, Note_on_c, 9, 35, 0
1, 265440, Note_on_c, 9, 46, 127
1, 265462, Note_on_c, 9, 46, 0
1, 265920, Note_on_c, 9, 40, 127
1, 265920, Note_on_c, 9, 42, 127
1, 265942, Note_on_c, 9, 42, 0
1, 266160, Note_on_c, 9, 44, 127
1, 266170, Note_on_c, 9, 44, 0
1, 266399, Note_on_c, 9, 40, 0
1, 266400, Note_on_c, 9, 42, 127
1, 266422, Note_on_c, 9, 42, 0
1, 266640, Note_on_c, 9, 44, 125
1, 266640, Note_on_c, 9, 35, 127
1, 266650, Note_on_c, 9, 44, 0
1, 266879, Note_on_c, 9, 35, 0
1, 266880, Note_on_c, 9, 42, 127
1, 266880, Note_on_c, 9, 35, 127
1, 266902, Note_on_c, 9, 42, 0
1, 267119, Note_on_c, 9, 35, 0
1, 267120, Note_on_c, 9, 44, 116
1, 267120, Note_on_c, 9, 35, 127
1, 267130, Note_on_c, 9, 44, 0
1, 267359, Note_on_c, 9, 35, 0
1, 267360, Note_on_c, 9, 42, 127
1, 267382, Note_on_c, 9, 42, 0
1, 267600, Note_on_c, 9, 44, 125
1, 267610, Note_on_c, 9, 44, 0
1, 267840, Note_on_c, 9, 40, 127
1, 267840, Note_on_c, 9, 42, 127
1, 267862, Note_on_c, 9, 42, 0
1, 268080, Note_on_c, 9, 44, 127
1, 268090, Note_on_c, 9, 44, 0
1, 268319, Note_on_c, 9, 40, 0
1, 268320, Note_on_c, 9, 42, 127
1, 268342, Note_on_c, 9, 42, 0
1, 268560, Note_on_c, 9, 44, 121
1, 268570, Note_on_c, 9, 44, 0
1, 268800, Note_on_c, 9, 42, 127
1, 268800, Note_on_c, 9, 35, 127
1, 268822, Note_on_c, 9, 42, 0
1, 269039, Note_on_c, 9, 35, 0
1, 269040, Note_on_c, 9, 44, 124
1, 269040, Note_on_c, 9, 35, 127
1, 269050, Note_on_c, 9, 44, 0
1, 269279, Note_on_c, 9, 35, 0
1, 269280, Note_on_c, 9, 42, 127
1, 269302, Note_on_c, 9, 42, 0
1, 269520, Note_on_c, 9, 44, 114
1, 269530, Note_on_c, 9, 44, 0
1, 269760, Note_on_c, 9, 40, 127
1, 269760, Note_on_c, 9, 42, 127
1, 269782, Note_on_c, 9, 42, 0
1, 270000, Note_on_c, 9, 44, 127
1, 270010, Note_on_c, 9, 44, 0
1, 270239, Note_on_c, 9, 40, 0
1, 270240, Note_on_c, 9, 42, 127
1, 270262, Note_on_c, 9, 42, 0
1, 270480, Note_on_c, 9, 44, 114
1, 270490, Note_on_c, 9, 44, 0
1, 270720, Note_on_c, 9, 42, 127
1, 270720, Note_on_c, 9, 35, 127
1, 270742, Note_on_c, 9, 42, 0
1, 270959, Note_on_c, 9, 35, 0
1, 270960, Note_on_c, 9, 44, 127
1, 270960, Note_on_c, 9, 35, 127
1, 270970, Note_on_c, 9, 44, 0
1, 271199, Note_on_c, 9, 35, 0
1, 271200, Note_on_c, 9, 42, 127
1, 271222, Note_on_c, 9, 42, 0
1, 271440, Note_on_c, 9, 44, 127
1, 271440, Note_on_c, 9, 35, 127
1, 271450, Note_on_c, 9, 44, 0
1, 271679, Note_on_c, 9, 35, 0
1, 271680, Note_on_c, 9, 40, 127
1, 271680, Note_on_c, 9, 42, 127
1, 271702, Note_on_c, 9, 42, 0
1, 271920, Note_on_c, 9, 44, 127
1, 271930, Note_on_c, 9, 44, 0
1, 272159, Note_on_c, 9, 40, 0
1, 272160, Note_on_c, 9, 40, 127
1, 272160, Note_on_c, 9, 42, 127
1, 272182, Note_on_c, 9, 42, 0
1, 272400, Note_on_c, 9, 44, 123
1, 272410, Note_on_c, 9, 44, 0
1, 272639, Note_on_c, 9, 40, 0
1, 272640, Note_on_c, 9, 42, 127
1, 272640, Note_on_c, 9, 35, 127
1, 272662, Note_on_c, 9, 42, 0
1, 272879, Note_on_c, 9, 35, 0
1, 272880, Note_on_c, 9, 44, 127
1, 272880, Note_on_c, 9, 35, 127
1, 272890, Note_on_c, 9, 44, 0
1, 273119, Note_on_c, 9, 35, 0
1, 273120, Note_on_c, 9, 46, 127
1, 273142, Note_on_c, 9, 46, 0
1, 273600, Note_on_c, 9, 40, 127
1, 273600, Note_on_c, 9, 42, 127
1, 273622, Note_on_c, 9, 42, 0
1, 273840, Note_on_c, 9, 44, 127
1, 273850, Note_on_c, 9, 44, 0
1, 274079, Note_on_c, 9, 40, 0
1, 274080, Note_on_c, 9, 42, 127
1, 274102, Note_on_c, 9, 42, 0
1, 274320, Note_on_c, 9, 44, 126
1, 274320, Note_on_c, 9, 35, 127
1, 274330, Note_on_c, 9, 44, 0
1, 274559, Note_on_c, 9, 35, 0
1, 274560, Note_on_c, 9, 42, 127
1, 274560, Note_on_c, 9, 35, 127
1, 274582, Note_on_c, 9, 42, 0
1, 274799, Note_on_c, 9, 35, 0
1, 274800, Note_on_c, 9, 44, 127
1, 274800, Note_on_c, 9, 35, 127
1, 274810, Note_on_c, 9, 44, 0
1, 275039, Note_on_c, 9, 35, 0
1, 275040, Note_on_c, 9, 42, 127
1, 275062, Note_on_c, 9, 42, 0
1, 275280, Note_on_c, 9, 44, 121
1, 275290, Note_on_c, 9, 44, 0
1, 275520, Note_on_c, 9, 40, 127
1, 275520, Note_on_c, 9, 42, 127
1, 275542, Note_on_c, 9, 42, 0
1, 275760, Note_on_c, 9, 44, 113
1, 275770, Note_on_c, 9, 44, 0
1, 275999, Note_on_c, 9, 40, 0
1, 276000, Note_on_c, 9, 42, 127
1, 276022, Note_on_c, 9, 42, 0
1, 276240, Note_on_c, 9, 44, 127
1, 276250, Note_on_c, 9, 44, 0
1, 276480, Note_on_c, 9, 42, 127
1, 276480, Note_on_c, 9, 35, 127
1, 276502, Note_on_c, 9, 42, 0
1, 276719, Note_on_c, 9, 35, 0
1, 276720, Note_on_c, 9, 44, 109
1, 276720, Note_on_c, 9, 35, 127
1, 276730, Note_on_c, 9, 44, 0
1, 276959, Note_on_c, 9, 35, 0
1, 276960, Note_on_c, 9, 42, 127
1, 276982, Note_on_c, 9, 42, 0
1, 277200, Note_on_c, 9, 44, 127
1, 277210, Note_on_c, 9, 44, 0
1, 277440, Note_on_c, 9, 40, 127
1, 277440, Note_on_c, 9, 42, 127
1, 277462, Note_on_c, 9, 42, 0
1, 277680, Note_on_c, 9, 44, 113
1, 277690, Note_on_c, 9, 44, 0
1, 277919, Note_on_c, 9, 40, 0
1, 277920, Note_on_c, 9, 42, 127
1, 277942, Note_on_c, 9, 42, 0
1, 278160, Note_on_c, 9, 44, 127
1, 278160, Note_on_c, 9, 35, 127
1, 278170, Note_on_c, 9, 44, 0
1, 278399, Note_on_c, 9, 35, 0
1, 278400, Note_on_c, 9, 42, 127
1, 278400, Note_on_c, 9, 35, 127
1, 278422, Note_on_c, 9, 42, 0
1, 278639, Note_on_c, 9, 35, 0
1, 278640, Note_on_c, 9, 44, 127
1, 278650, Note_on_c, 9, 44, 0
1, 278880, Note_on_c, 9, 42, 127
1, 278880, Note_on_c, 9, 35, 127
1, 278890, Note_on_c, 9, 42, 0
1, 279119, Note_on_c, 9, 35, 0
1, 279120, Note_on_c, 9, 45, 127
1, 279120, Note_on_c, 9, 44, 127
1, 279130, Note_on_c, 9, 44, 0
1, 279359, Note_on_c, 9, 45, 0
1, 279360, Note_on_c, 9, 40, 127
1, 279360, Note_on_c, 9, 42, 127
1, 279382, Note_on_c, 9, 42, 0
1, 279600, Note_on_c, 9, 44, 127
1, 279610, Note_on_c, 9, 44, 0
1, 279839, Note_on_c, 9, 40, 0
1, 279840, Note_on_c, 9, 42, 127
1, 279840, Note_on_c, 9, 43, 127
1, 279850, Note_on_c, 9, 42, 0
1, 280079, Note_on_c, 9, 43, 0
1, 280080, Note_on_c, 9, 41, 127
1, 280080, Note_on_c, 9, 44, 127
1, 280090, Note_on_c, 9, 44, 0
1, 280319, Note_on_c, 9, 41, 0
1, 280320, Note_on_c, 9, 42, 127
1, 280320, Note_on_c, 9, 57, 127
1, 280320, Note_on_c, 9, 35, 127
1, 280342, Note_on_c, 9, 42, 0
1, 280342, Note_on_c, 9, 57, 0
1, 280559, Note_on_c, 9, 35, 0
1, 280560, Note_on_c, 9, 44, 127
1, 280570, Note_on_c, 9, 44, 0
1, 280800, Note_on_c, 9, 46, 127
1, 280822, Note_on_c, 9, 46, 0
1, 281280, Note_on_c, 9, 40, 127
1, 281280, Note_on_c, 9, 42, 127
1, 281302, Note_on_c, 9, 42, 0
1, 281520, Note_on_c, 9, 44, 127
1, 281530, Note_on_c, 9, 44, 0
1, 281759, Note_on_c, 9, 40, 0
1, 281760, Note_on_c, 9, 42, 127
1, 281782, Note_on_c, 9, 42, 0
1, 282000, Note_on_c, 9, 44, 127
1, 282000, Note_on_c, 9, 35, 127
1, 282010, Note_on_c, 9, 44, 0
1, 282239, Note_on_c, 9, 35, 0
1, 282240, Note_on_c, 9, 42, 127
1, 282262, Note_on_c, 9, 42, 0
1, 282320, Note_on_c, 9, 35, 127
1, 282559, Note_on_c, 9, 35, 0
1, 282560, Note_on_c, 9, 44, 122
1, 282560, Note_on_c, 9, 35, 127
1, 282566, Note_on_c, 9, 44, 0
1, 282719, Note_on_c, 9, 35, 0
1, 282720, Note_on_c, 9, 42, 127
1, 282742, Note_on_c, 9, 42, 0
1, 282960, Note_on_c, 9, 44, 110
1, 282970, Note_on_c, 9, 44, 0
1, 283200, Note_on_c, 9, 40, 127
1, 283200, Note_on_c, 9, 42, 127
1, 283222, Note_on_c, 9, 42, 0
1, 283440, Note_on_c, 9, 44, 127
1, 283450, Note_on_c, 9, 44, 0
1, 283679, Note_on_c, 9, 40, 0
1, 283680, Note_on_c, 9, 42, 127
1, 283702, Note_on_c, 9, 42, 0
1, 283920, Note_on_c, 9, 44, 127
1, 283930, Note_on_c, 9, 44, 0
1, 284160, Note_on_c, 9, 42, 127
1, 284160, Note_on_c, 9, 35, 127
1, 284182, Note_on_c, 9, 42, 0
1, 284399, Note_on_c, 9, 35, 0
1, 284400, Note_on_c, 9, 44, 113
1, 284400, Note_on_c, 9, 35, 127
1, 284410, Note_on_c, 9, 44, 0
1, 284639, Note_on_c, 9, 35, 0
1, 284640, Note_on_c, 9, 42, 127
1, 284662, Note_on_c, 9, 42, 0
1, 284880, Note_on_c, 9, 44, 122
1, 284890, Note_on_c, 9, 44, 0
1, 285120, Note_on_c, 9, 40, 127
1, 285120, Note_on_c, 9, 42, 127
1, 285142, Note_on_c, 9, 42, 0
1, 285360, Note_on_c, 9, 44, 127
1, 285370, Note_on_c, 9, 44, 0
1, 285599, Note_on_c, 9, 40, 0
1, 285600, Note_on_c, 9, 42, 127
1, 285622, Note_on_c, 9, 42, 0
1, 285840, Note_on_c, 9, 44, 127
1, 285850, Note_on_c, 9, 44, 0
1, 286080, Note_on_c, 9, 42, 127
1, 286080, Note_on_c, 9, 35, 127
1, 286102, Note_on_c, 9, 42, 0
1, 286319, Note_on_c, 9, 35, 0
1, 286320, Note_on_c, 9, 44, 126
1, 286320, Note_on_c, 9, 35, 127
1, 286330, Note_on_c, 9, 44, 0
1, 286559, Note_on_c, 9, 35, 0
1, 286560, Note_on_c, 9, 42, 127
1, 286582, Note_on_c, 9, 42, 0
1, 286800, Note_on_c, 9, 44, 119
1, 286800, Note_on_c, 9, 35, 127
1, 286810, Note_on_c, 9, 44, 0
1, 287039, Note_on_c, 9, 35, 0
1, 287040, Note_on_c, 9, 40, 127
1, 287040, Note_on_c, 9, 42, 127
1, 287062, Note_on_c, 9, 42, 0
1, 287280, Note_on_c, 9, 44, 121
1, 287290, Note_on_c, 9, 44, 0
1, 287519, Note_on_c, 9, 40, 0
1, 287520, Note_on_c, 9, 40, 127
1, 287520, Note_on_c, 9, 42, 127
1, 287520, Note_on_c, 9, 49, 127
1, 287542, Note_on_c, 9, 42, 0
1, 287542, Note_on_c, 9, 49, 0
1, 287760, Note_on_c, 9, 44, 127
1, 287770, Note_on_c, 9, 44, 0
1, 287999, Note_on_c, 9, 40, 0
1, 288000, Note_on_c, 9, 42, 127
1, 288000, Note_on_c, 9, 35, 127
1, 288022, Note_on_c, 9, 42, 0
1, 288239, Note_on_c, 9, 35, 0
1, 288240, Note_on_c, 9, 44, 127
1, 288240, Note_on_c, 9, 35, 127
1, 288250, Note_on_c, 9, 44, 0
1, 288479, Note_on_c, 9, 35, 0
1, 288480, Note_on_c, 9, 46, 127
1, 288502, Note_on_c, 9, 46, 0
1, 288960, Note_on_c, 9, 40, 127
1, 288960, Note_on_c, 9, 42, 127
1, 288982, Note_on_c, 9, 42, 0
1, 289200, Note_on_c, 9, 44, 126
1, 289210, Note_on_c, 9, 44, 0
1, 289439, Note_on_c, 9, 40, 0
1, 289440, Note_on_c, 9, 42, 127
1, 289462, Note_on_c, 9, 42, 0
1, 289680, Note_on_c, 9, 44, 120
1, 289680, Note_on_c, 9, 35, 127
1, 289690, Note_on_c, 9, 44, 0
1, 289919, Note_on_c, 9, 35, 0
1, 289920, Note_on_c, 9, 42, 127
1, 289920, Note_on_c, 9, 35, 127
1, 289942, Note_on_c, 9, 42, 0
1, 290159, Note_on_c, 9, 35, 0
1, 290160, Note_on_c, 9, 44, 109
1, 290170, Note_on_c, 9, 44, 0
1, 290400, Note_on_c, 9, 42, 127
1, 290422, Note_on_c, 9, 42, 0
1, 290640, Note_on_c, 9, 44, 120
1, 290650, Note_on_c, 9, 44, 0
1, 290880, Note_on_c, 9, 40, 127
1, 290880, Note_on_c, 9, 42, 127
1, 290902, Note_on_c, 9, 42, 0
1, 291120, Note_on_c, 9, 44, 124
1, 291130, Note_on_c, 9, 44, 0
1, 291359, Note_on_c, 9, 40, 0
1, 291360, Note_on_c, 9, 42, 127
1, 291382, Note_on_c, 9, 42, 0
1, 291600, Note_on_c, 9, 44, 127
1, 291610, Note_on_c, 9, 44, 0
1, 291840, Note_on_c, 9, 42, 127
1, 291840, Note_on_c, 9, 35, 127
1, 291862, Note_on_c, 9, 42, 0
1, 292079, Note_on_c, 9, 35, 0
1, 292080, Note_on_c, 9, 44, 127
1, 292080, Note_on_c, 9, 35, 127
1, 292090, Note_on_c, 9, 44, 0
1, 292319, Note_on_c, 9, 35, 0
1, 292320, Note_on_c, 9, 42, 127
1, 292342, Note_on_c, 9, 42, 0
1, 292560, Note_on_c, 9, 44, 124
1, 292570, Note_on_c, 9, 44, 0
1, 292800, Note_on_c, 9, 40, 127
1, 292800, Note_on_c, 9, 42, 127
1, 292822, Note_on_c, 9, 42, 0
1, 293040, Note_on_c, 9, 44, 127
1, 293050, Note_on_c, 9, 44, 0
1, 293279, Note_on_c, 9, 40, 0
1, 293280, Note_on_c, 9, 42, 127
1, 293302, Note_on_c, 9, 42, 0
1, 293520, Note_on_c, 9, 44, 127
1, 293520, Note_on_c, 9, 35, 127
1, 293530, Note_on_c, 9, 44, 0
1, 293759, Note_on_c, 9, 35, 0
1, 293760, Note_on_c, 9, 42, 127
1, 293760, Note_on_c, 9, 35, 127
1, 293782, Note_on_c, 9, 42, 0
1, 293999, Note_on_c, 9, 35, 0
1, 294000, Note_on_c, 9, 44, 127
1, 294010, Note_on_c, 9, 44, 0
1, 294240, Note_on_c, 9, 46, 127
1, 294262, Note_on_c, 9, 46, 0
1, 294720, Note_on_c, 9, 40, 127
1, 294720, Note_on_c, 9, 42, 127
1, 294742, Note_on_c, 9, 42, 0
1, 294960, Note_on_c, 9, 44, 127
1, 294970, Note_on_c, 9, 44, 0
1, 295199, Note_on_c, 9, 40, 0
1, 295200, Note_on_c, 9, 46, 127
1, 295222, Note_on_c, 9, 46, 0
1, 295680, Note_on_c, 9, 42, 127
1, 295680, Note_on_c, 9, 35, 127
1, 295702, Note_on_c, 9, 42, 0
1, 295919, Note_on_c, 9, 35, 0
1, 295920, Note_on_c, 9, 44, 112
1, 295920, Note_on_c, 9, 35, 127
1, 295930, Note_on_c, 9, 44, 0
1, 296159, Note_on_c, 9, 35, 0
1, 296160, Note_on_c, 9, 42, 127
1, 296160, Note_on_c, 9, 35, 127
1, 296182, Note_on_c, 9, 42, 0
1, 296399, Note_on_c, 9, 35, 0
1, 296400, Note_on_c, 9, 44, 117
1, 296410, Note_on_c, 9, 44, 0
1, 296640, Note_on_c, 9, 41, 127
1, 296640, Note_on_c, 9, 40, 127
1, 296640, Note_on_c, 9, 42, 127
1, 296662, Note_on_c, 9, 42, 0
1, 296880, Note_on_c, 9, 44, 127
1, 296890, Note_on_c, 9, 44, 0
1, 297119, Note_on_c, 9, 41, 0
1, 297119, Note_on_c, 9, 40, 0
1, 297120, Note_on_c, 9, 42, 127
1, 297142, Note_on_c, 9, 42, 0
1, 297360, Note_on_c, 9, 44, 127
1, 297370, Note_on_c, 9, 44, 0
1, 297600, Note_on_c, 9, 42, 127
1, 297600, Note_on_c, 9, 35, 127
1, 297622, Note_on_c, 9, 42, 0
1, 297839, Note_on_c, 9, 35, 0
1, 297840, Note_on_c, 9, 44, 127
1, 297840, Note_on_c, 9, 35, 127
1, 297850, Note_on_c, 9, 44, 0
1, 298079, Note_on_c, 9, 35, 0
1, 298080, Note_on_c, 9, 42, 127
1, 298102, Note_on_c, 9, 42, 0
1, 298320, Note_on_c, 9, 44, 112
1, 298330, Note_on_c, 9, 44, 0
1, 298560, Note_on_c, 9, 40, 127
1, 298560, Note_on_c, 9, 42, 127
1, 298582, Note_on_c, 9, 42, 0
1, 298800, Note_on_c, 9, 44, 127
1, 298810, Note_on_c, 9, 44, 0
1, 299039, Note_on_c, 9, 40, 0
1, 299040, Note_on_c, 9, 42, 127
1, 299062, Note_on_c, 9, 42, 0
1, 299280, Note_on_c, 9, 44, 127
1, 299280, Note_on_c, 9, 35, 127
1, 299290, Note_on_c, 9, 44, 0
1, 299519, Note_on_c, 9, 35, 0
1, 299520, Note_on_c, 9, 42, 127
1, 299520, Note_on_c, 9, 35, 127
1, 299542, Note_on_c, 9, 42, 0
1, 299759, Note_on_c, 9, 35, 0
1, 299760, Note_on_c, 9, 44, 112
1, 299760, Note_on_c, 9, 35, 127
1, 299770, Note_on_c, 9, 44, 0
1, 299999, Note_on_c, 9, 35, 0
1, 300000, Note_on_c, 9, 42, 127
1, 300022, Note_on_c, 9, 42, 0
1, 300480, Note_on_c, 9, 40, 127
1, 300480, Note_on_c, 9, 42, 127
1, 300480, Note_on_c, 9, 44, 127
1, 300502, Note_on_c, 9, 42, 0
1, 300502, Note_on_c, 9, 44, 0
1, 300959, Note_on_c, 9, 40, 0
1, 300960, Note_on_c, 9, 44, 127
1, 300970, Note_on_c, 9, 44, 0
1, 301080, Note_on_c, 9, 42, 127
1, 301096, Note_on_c, 9, 42, 0
1, 301200, Note_on_c, 9, 44, 127
1, 301200, Note_on_c, 9, 35, 127
1, 301210, Note_on_c, 9, 44, 0
1, 301439, Note_on_c, 9, 35, 0
1, 301440, Note_on_c, 9, 42, 127
1, 301440, Note_on_c, 9, 35, 127
1, 301450, Note_on_c, 9, 42, 0
1, 301679, Note_on_c, 9, 35, 0
1, 301680, Note_on_c, 9, 41, 127
1, 301680, Note_on_c, 9, 40, 127
1, 301680, Note_on_c, 9, 44, 127
1, 301680, Note_on_c, 9, 35, 127
1, 301690, Note_on_c, 9, 44, 0
1, 301919, Note_on_c, 9, 41, 0
1, 301919, Note_on_c, 9, 40, 0
1, 301919, Note_on_c, 9, 35, 0
1, 301920, Note_on_c, 9, 41, 127
1, 301920, Note_on_c, 9, 40, 127
1, 301920, Note_on_c, 9, 42, 127
1, 301920, Note_on_c, 9, 35, 127
1, 301930, Note_on_c, 9, 42, 0
1, 302159, Note_on_c, 9, 41, 0
1, 302159, Note_on_c, 9, 40, 0
1, 302159, Note_on_c, 9, 35, 0
1, 302160, Note_on_c, 9, 41, 127
1, 302160, Note_on_c, 9, 40, 127
1, 302160, Note_on_c, 9, 44, 127
1, 302160, Note_on_c, 9, 35, 127
1, 302170, Note_on_c, 9, 44, 0
1, 302399, Note_on_c, 9, 41, 0
1, 302399, Note_on_c, 9, 40, 0
1, 302399, Note_on_c, 9, 35, 0
1, 302400, Note_on_c, 9, 41, 127
1, 302400, Note_on_c, 9, 40, 127
1, 302400, Note_on_c, 9, 42, 127
1, 302400, Note_on_c, 9, 35, 127
1, 302410, Note_on_c, 9, 42, 0
1, 302639, Note_on_c, 9, 41, 0
1, 302639, Note_on_c, 9, 40, 0
1, 302639, Note_on_c, 9, 35, 0
1, 302640, Note_on_c, 9, 41, 127
1, 302640, Note_on_c, 9, 40, 127
1, 302640, Note_on_c, 9, 44, 127
1, 302640, Note_on_c, 9, 35, 127
1, 302650, Note_on_c, 9, 44, 0
1, 302879, Note_on_c, 9, 41, 0
1, 302879, Note_on_c, 9, 40, 0
1, 302879, Note_on_c, 9, 35, 0
1, 302880, Note_on_c, 9, 40, 127
1, 302880, Note_on_c, 9, 42, 127
1, 302880, Note_on_c, 9, 42, 0
1, 302880, Note_on_c, 9, 35, 127
1, 302919, Note_on_c, 9, 40, 0
1, 302920, Note_on_c, 9, 40, 127
1, 302999, Note_on_c, 9, 40, 0
1, 303119, Note_on_c, 9, 35, 0
1, 303120, Note_on_c, 9, 40, 127
1, 303120, Note_on_c, 9, 44, 127
1, 303120, Note_on_c, 9, 35, 127
1, 303130, Note_on_c, 9, 44, 0
1, 303149, Note_on_c, 9, 40, 0
1, 303150, Note_on_c, 9, 40, 127
1, 303239, Note_on_c, 9, 40, 0
1, 303359, Note_on_c, 9, 35, 0
1, 303360, Note_on_c, 9, 42, 127
1, 303360, Note_on_c, 9, 57, 127
1, 303360, Note_on_c, 9, 35, 127
1, 303382, Note_on_c, 9, 42, 0
1, 303382, Note_on_c, 9, 57, 0
1, 303599, Note_on_c, 9, 35, 0
1, 303600, Note_on_c, 9, 35, 127
1, 303839, Note_on_c, 9, 35, 0
1, 304320, Note_on_c, 9, 44, 127
1, 304342, Note_on_c, 9, 44, 0
1, 305280, Note_on_c, 9, 44, 127
1, 305302, Note_on_c, 9, 44, 0
1, 306240, Note_on_c, 9, 44, 127
1, 306262, Note_on_c, 9, 44, 0
1, 307200, Note_on_c, 9, 40, 127
1, 307200, Note_on_c, 9, 57, 127
1, 307200, Note_on_c, 9, 44, 127
1, 307200, Note_on_c, 9, 35, 127
1, 307210, Note_on_c, 9, 44, 0
1, 307222, Note_on_c, 9, 57, 0
1, 307439, Note_on_c, 9, 35, 0
1, 307440, Note_on_c, 9, 35, 127
1, 307679, Note_on_c, 9, 40, 0
1, 307679, Note_on_c, 9, 35, 0
1, 307680, Note_on_c, 9, 35, 127
1, 307919, Note_on_c, 9, 35, 0
1, 307920, Note_on_c, 9, 35, 127
1, 308159, Note_on_c, 9, 35, 0
1, 308160, Note_on_c, 9, 40, 127
1, 308160, Note_on_c, 9, 44, 127
1, 308160, Note_on_c, 9, 35, 127
1, 308170, Note_on_c, 9, 44, 0
1, 308399, Note_on_c, 9, 35, 0
1, 308400, Note_on_c, 9, 35, 127
1, 308639, Note_on_c, 9, 40, 0
1, 308639, Note_on_c, 9, 35, 0
1, 308640, Note_on_c, 9, 35, 127
1, 308879, Note_on_c, 9, 35, 0
1, 308880, Note_on_c, 9, 35, 127
1, 309119, Note_on_c, 9, 35, 0
1, 309120, Note_on_c, 9, 40, 127
1, 309120, Note_on_c, 9, 44, 127
1, 309120, Note_on_c, 9, 35, 127
1, 309130, Note_on_c, 9, 44, 0
1, 309359, Note_on_c, 9, 35, 0
1, 309360, Note_on_c, 9, 35, 127
1, 309599, Note_on_c, 9, 40, 0
1, 309599, Note_on_c, 9, 35, 0
1, 309600, Note_on_c, 9, 40, 127
1, 309600, Note_on_c, 9, 35, 127
1, 309839, Note_on_c, 9, 35, 0
1, 309840, Note_on_c, 9, 35, 127
1, 310079, Note_on_c, 9, 40, 0
1, 310079, Note_on_c, 9, 35, 0
1, 310080, Note_on_c, 9, 40, 127
1, 310110, Note_on_c, 9, 44, 127
1, 310110, Note_on_c, 9, 35, 127
1, 310111, Note_on_c, 9, 44, 0
1, 310169, Note_on_c, 9, 35, 0
1, 310319, Note_on_c, 9, 40, 0
1, 310320, Note_on_c, 9, 45, 127
1, 310320, Note_on_c, 9, 35, 127
1, 310559, Note_on_c, 9, 45, 0
1, 310559, Note_on_c, 9, 35, 0
1, 310560, Note_on_c, 9, 35, 127
1, 310560, Note_on_c, 9, 43, 127
1, 310799, Note_on_c, 9, 35, 0
1, 310799, Note_on_c, 9, 43, 0
1, 310800, Note_on_c, 9, 35, 127
1, 310800, Note_on_c, 9, 43, 127
1, 311039, Note_on_c, 9, 35, 0
1, 311039, Note_on_c, 9, 43, 0
1, 311040, Note_on_c, 9, 49, 127
1, 311040, Note_on_c, 9, 35, 127
1, 311062, Note_on_c, 9, 49, 0
1, 311519, Note_on_c, 9, 35, 0
1, 311520, Note_on_c, 9, 51, 127
1, 311520, Note_on_c, 9, 35, 127
1, 311530, Note_on_c, 9, 51, 0
1, 311759, Note_on_c, 9, 35, 0
1, 311760, Note_on_c, 9, 51, 127
1, 311760, Note_on_c, 9, 35, 127
1, 311770, Note_on_c, 9, 51, 0
1, 311999, Note_on_c, 9, 35, 0
1, 312000, Note_on_c, 9, 40, 127
1, 312000, Note_on_c, 9, 51, 127
1, 312000, Note_on_c, 9, 57, 127
1, 312010, Note_on_c, 9, 51, 0
1, 312010, Note_on_c, 9, 57, 0
1, 312239, Note_on_c, 9, 40, 0
1, 312240, Note_on_c, 9, 51, 127
1, 312250, Note_on_c, 9, 51, 0
1, 312480, Note_on_c, 9, 51, 127
1, 312490, Note_on_c, 9, 51, 0
1, 312720, Note_on_c, 9, 51, 126
1, 312720, Note_on_c, 9, 35, 127
1, 312730, Note_on_c, 9, 51, 0
1, 312959, Note_on_c, 9, 35, 0
1, 312960, Note_on_c, 9, 51, 127
1, 312960, Note_on_c, 9, 35, 127
1, 312970, Note_on_c, 9, 51, 0
1, 313200, Note_on_c, 9, 51, 127
1, 313210, Note_on_c, 9, 51, 0
1, 313439, Note_on_c, 9, 35, 0
1, 313440, Note_on_c, 9, 51, 127
1, 313450, Note_on_c, 9, 51, 0
1, 313680, Note_on_c, 9, 51, 127
1, 313690, Note_on_c, 9, 51, 0
1, 313920, Note_on_c, 9, 40, 127
1, 313920, Note_on_c, 9, 51, 127
1, 313930, Note_on_c, 9, 51, 0
1, 314159, Note_on_c, 9, 40, 0
1, 314160, Note_on_c, 9, 51, 123
1, 314170, Note_on_c, 9, 51, 0
1, 314400, Note_on_c, 9, 51, 127
1, 314410, Note_on_c, 9, 51, 0
1, 314640, Note_on_c, 9, 51, 127
1, 314640, Note_on_c, 9, 35, 127
1, 314650, Note_on_c, 9, 51, 0
1, 314879, Note_on_c, 9, 35, 0
1, 314880, Note_on_c, 9, 51, 127
1, 314880, Note_on_c, 9, 35, 127
1, 314890, Note_on_c, 9, 51, 0
1, 315120, Note_on_c, 9, 51, 114
1, 315130, Note_on_c, 9, 51, 0
1, 315359, Note_on_c, 9, 35, 0
1, 315360, Note_on_c, 9, 51, 127
1, 315370, Note_on_c, 9, 51, 0
1, 315600, Note_on_c, 9, 51, 127
1, 315610, Note_on_c, 9, 51, 0
1, 315840, Note_on_c, 9, 40, 127
1, 315840, Note_on_c, 9, 51, 127
1, 315850, Note_on_c, 9, 51, 0
1, 316079, Note_on_c, 9, 40, 0
1, 316080, Note_on_c, 9, 51, 127
1, 316090, Note_on_c, 9, 51, 0
1, 316320, Note_on_c, 9, 51, 127
1, 316330, Note_on_c, 9, 51, 0
1, 316560, Note_on_c, 9, 51, 127
1, 316560, Note_on_c, 9, 35, 127
1, 316570, Note_on_c, 9, 51, 0
1, 316799, Note_on_c, 9, 35, 0
1, 316800, Note_on_c, 9, 51, 127
1, 316800, Note_on_c, 9, 35, 127
1, 316810, Note_on_c, 9, 51, 0
1, 317040, Note_on_c, 9, 51, 127
1, 317050, Note_on_c, 9, 51, 0
1, 317279, Note_on_c, 9, 35, 0
1, 317280, Note_on_c, 9, 51, 127
1, 317280, Note_on_c, 9, 35, 127
1, 317290, Note_on_c, 9, 51, 0
1, 317520, Note_on_c, 9, 51, 127
1, 317530, Note_on_c, 9, 51, 0
1, 317759, Note_on_c, 9, 35, 0
1, 317760, Note_on_c, 9, 40, 127
1, 317760, Note_on_c, 9, 51, 127
1, 317770, Note_on_c, 9, 51, 0
1, 317999, Note_on_c, 9, 40, 0
1, 318000, Note_on_c, 9, 51, 127
1, 318010, Note_on_c, 9, 51, 0
1, 318240, Note_on_c, 9, 51, 127
1, 318240, Note_on_c, 9, 43, 127
1, 318241, Note_on_c, 9, 51, 0
1, 318300, Note_on_c, 9, 45, 127
1, 318479, Note_on_c, 9, 45, 0
1, 318480, Note_on_c, 9, 51, 127
1, 318490, Note_on_c, 9, 51, 0
1, 318719, Note_on_c, 9, 43, 0
1, 318720, Note_on_c, 9, 51, 127
1, 318720, Note_on_c, 9, 49, 127
1, 318720, Note_on_c, 9, 35, 127
1, 318730, Note_on_c, 9, 51, 0
1, 318730, Note_on_c, 9, 49, 0
1, 318960, Note_on_c, 9, 51, 121
1, 318970, Note_on_c, 9, 51, 0
1, 319199, Note_on_c, 9, 35, 0
1, 319200, Note_on_c, 9, 51, 127
1, 319210, Note_on_c, 9, 51, 0
1, 319440, Note_on_c, 9, 51, 127
1, 319450, Note_on_c, 9, 51, 0
1, 319680, Note_on_c, 9, 40, 127
1, 319919, Note_on_c, 9, 40, 0
1, 319920, Note_on_c, 9, 51, 125
1, 319930, Note_on_c, 9, 51, 0
1, 320160, Note_on_c, 9, 51, 127
1, 320170, Note_on_c, 9, 51, 0
1, 320400, Note_on_c, 9, 51, 127
1, 320400, Note_on_c, 9, 35, 127
1, 320410, Note_on_c, 9, 51, 0
1, 320639, Note_on_c, 9, 35, 0
1, 320640, Note_on_c, 9, 51, 127
1, 320640, Note_on_c, 9, 35, 127
1, 320650, Note_on_c, 9, 51, 0
1, 320880, Note_on_c, 9, 51, 127
1, 320890, Note_on_c, 9, 51, 0
1, 321119, Note_on_c, 9, 35, 0
1, 321120, Note_on_c, 9, 51, 127
1, 321130, Note_on_c, 9, 51, 0
1, 321360, Note_on_c, 9, 51, 127
1, 321370, Note_on_c, 9, 51, 0
1, 321600, Note_on_c, 9, 40, 127
1, 321600, Note_on_c, 9, 51, 127
1, 321610, Note_on_c, 9, 51, 0
1, 321839, Note_on_c, 9, 40, 0
1, 321840, Note_on_c, 9, 51, 127
1, 321850, Note_on_c, 9, 51, 0
1, 322080, Note_on_c, 9, 51, 127
1, 322090, Note_on_c, 9, 51, 0
1, 322320, Note_on_c, 9, 51, 127
1, 322320, Note_on_c, 9, 35, 127
1, 322330, Note_on_c, 9, 51, 0
1, 322559, Note_on_c, 9, 35, 0
1, 322560, Note_on_c, 9, 51, 127
1, 322560, Note_on_c, 9, 35, 127
1, 322570, Note_on_c, 9, 51, 0
1, 322800, Note_on_c, 9, 51, 127
1, 322810, Note_on_c, 9, 51, 0
1, 323039, Note_on_c, 9, 35, 0
1, 323040, Note_on_c, 9, 51, 127
1, 323050, Note_on_c, 9, 51, 0
1, 323280, Note_on_c, 9, 51, 127
1, 323290, Note_on_c, 9, 51, 0
1, 323520, Note_on_c, 9, 40, 127
1, 323520, Note_on_c, 9, 51, 127
1, 323530, Note_on_c, 9, 51, 0
1, 323759, Note_on_c, 9, 40, 0
1, 323760, Note_on_c, 9, 51, 127
1, 323770, Note_on_c, 9, 51, 0
1, 324000, Note_on_c, 9, 51, 127
1, 324010, Note_on_c, 9, 51, 0
1, 324240, Note_on_c, 9, 51, 127
1, 324240, Note_on_c, 9, 35, 127
1, 324250, Note_on_c, 9, 51, 0
1, 324479, Note_on_c, 9, 35, 0
1, 324480, Note_on_c, 9, 51, 127
1, 324480, Note_on_c, 9, 35, 127
1, 324490, Note_on_c, 9, 51, 0
1, 324720, Note_on_c, 9, 51, 127
1, 324730, Note_on_c, 9, 51, 0
1, 324959, Note_on_c, 9, 35, 0
1, 324960, Note_on_c, 9, 51, 127
1, 324960, Note_on_c, 9, 35, 127
1, 324970, Note_on_c, 9, 51, 0
1, 325200, Note_on_c, 9, 51, 127
1, 325210, Note_on_c, 9, 51, 0
1, 325439, Note_on_c, 9, 35, 0
1, 325440, Note_on_c, 9, 40, 127
1, 325440, Note_on_c, 9, 51, 127
1, 325450, Note_on_c, 9, 51, 0
1, 325679, Note_on_c, 9, 40, 0
1, 325680, Note_on_c, 9, 51, 127
1, 325690, Note_on_c, 9, 51, 0
1, 325920, Note_on_c, 9, 51, 127
1, 325930, Note_on_c, 9, 51, 0
1, 326160, Note_on_c, 9, 45, 127
1, 326160, Note_on_c, 9, 51, 124
1, 326170, Note_on_c, 9, 51, 0
1, 326399, Note_on_c, 9, 45, 0
1, 326400, Note_on_c, 9, 51, 127
1, 326400, Note_on_c, 9, 43, 127
1, 326422, Note_on_c, 9, 51, 0
1, 326879, Note_on_c, 9, 43, 0
1, 326880, Note_on_c, 9, 43, 127
1, 327359, Note_on_c, 9, 43, 0
1, 327360, Note_on_c, 9, 40, 127
1, 327360, Note_on_c, 9, 51, 127
1, 327360, Note_on_c, 9, 57, 127
1, 327370, Note_on_c, 9, 51, 0
1, 327370, Note_on_c, 9, 57, 0
1, 327599, Note_on_c, 9, 40, 0
1, 327600, Note_on_c, 9, 51, 127
1, 327610, Note_on_c, 9, 51, 0
1, 327840, Note_on_c, 9, 51, 127
1, 327850, Note_on_c, 9, 51, 0
1, 328080, Note_on_c, 9, 51, 127
1, 328080, Note_on_c, 9, 35, 127
1, 328090, Note_on_c, 9, 51, 0
1, 328319, Note_on_c, 9, 35, 0
1, 328320, Note_on_c, 9, 51, 127
1, 328320, Note_on_c, 9, 35, 127
1, 328330, Note_on_c, 9, 51, 0
1, 328560, Note_on_c, 9, 51, 127
1, 328570, Note_on_c, 9, 51, 0
1, 328799, Note_on_c, 9, 35, 0
1, 328800, Note_on_c, 9, 51, 127
1, 328810, Note_on_c, 9, 51, 0
1, 329040, Note_on_c, 9, 51, 127
1, 329050, Note_on_c, 9, 51, 0
1, 329280, Note_on_c, 9, 40, 127
1, 329280, Note_on_c, 9, 51, 127
1, 329290, Note_on_c, 9, 51, 0
1, 329519, Note_on_c, 9, 40, 0
1, 329520, Note_on_c, 9, 51, 121
1, 329530, Note_on_c, 9, 51, 0
1, 329760, Note_on_c, 9, 51, 127
1, 329770, Note_on_c, 9, 51, 0
1, 330000, Note_on_c, 9, 51, 127
1, 330000, Note_on_c, 9, 35, 127
1, 330010, Note_on_c, 9, 51, 0
1, 330239, Note_on_c, 9, 35, 0
1, 330240, Note_on_c, 9, 51, 127
1, 330240, Note_on_c, 9, 35, 127
1, 330250, Note_on_c, 9, 51, 0
1, 330480, Note_on_c, 9, 51, 127
1, 330490, Note_on_c, 9, 51, 0
1, 330719, Note_on_c, 9, 35, 0
1, 330720, Note_on_c, 9, 51, 127
1, 330730, Note_on_c, 9, 51, 0
1, 330960, Note_on_c, 9, 51, 127
1, 330970, Note_on_c, 9, 51, 0
1, 331200, Note_on_c, 9, 40, 127
1, 331200, Note_on_c, 9, 51, 127
1, 331210, Note_on_c, 9, 51, 0
1, 331439, Note_on_c, 9, 40, 0
1, 331470, Note_on_c, 9, 51, 127
1, 331471, Note_on_c, 9, 51, 0
1, 331680, Note_on_c, 9, 51, 127
1, 331690, Note_on_c, 9, 51, 0
1, 331920, Note_on_c, 9, 51, 127
1, 331920, Note_on_c, 9, 35, 127
1, 331930, Note_on_c, 9, 51, 0
1, 332159, Note_on_c, 9, 35, 0
1, 332160, Note_on_c, 9, 51, 127
1, 332160, Note_on_c, 9, 35, 127
1, 332170, Note_on_c, 9, 51, 0
1, 332400, Note_on_c, 9, 51, 127
1, 332410, Note_on_c, 9, 51, 0
1, 332639, Note_on_c, 9, 35, 0
1, 332640, Note_on_c, 9, 40, 127
1, 332640, Note_on_c, 9, 51, 127
1, 332640, Note_on_c, 9, 35, 127
1, 332640, Note_on_c, 9, 43, 127
1, 332650, Note_on_c, 9, 51, 0
1, 332879, Note_on_c, 9, 40, 0
1, 332880, Note_on_c, 9, 51, 127
1, 332890, Note_on_c, 9, 51, 0
1, 333119, Note_on_c, 9, 35, 0
1, 333119, Note_on_c, 9, 43, 0
1, 333120, Note_on_c, 9, 40, 127
1, 333120, Note_on_c, 9, 35, 127
1, 333120, Note_on_c, 9, 43, 127
1, 333239, Note_on_c, 9, 40, 0
1, 333240, Note_on_c, 9, 51, 127
1, 333244, Note_on_c, 9, 51, 0
1, 333360, Note_on_c, 9, 51, 127
1, 333370, Note_on_c, 9, 51, 0
1, 333599, Note_on_c, 9, 35, 0
1, 333599, Note_on_c, 9, 43, 0
1, 333660, Note_on_c, 9, 40, 127
1, 333660, Note_on_c, 9, 35, 127
1, 333660, Note_on_c, 9, 43, 127
1, 333839, Note_on_c, 9, 40, 0
1, 333839, Note_on_c, 9, 35, 0
1, 333839, Note_on_c, 9, 43, 0
1, 333840, Note_on_c, 9, 40, 127
1, 333840, Note_on_c, 9, 35, 127
1, 333840, Note_on_c, 9, 43, 127
1, 334079, Note_on_c, 9, 40, 0
1, 334079, Note_on_c, 9, 35, 0
1, 334079, Note_on_c, 9, 43, 0
1, 334080, Note_on_c, 9, 51, 127
1, 334080, Note_on_c, 9, 49, 127
1, 334080, Note_on_c, 9, 35, 127
1, 334090, Note_on_c, 9, 51, 0
1, 334090, Note_on_c, 9, 49, 0
1, 334320, Note_on_c, 9, 51, 127
1, 334330, Note_on_c, 9, 51, 0
1, 334559, Note_on_c, 9, 35, 0
1, 334560, Note_on_c, 9, 51, 127
1, 334560, Note_on_c, 9, 35, 127
1, 334570, Note_on_c, 9, 51, 0
1, 334800, Note_on_c, 9, 51, 127
1, 334804, Note_on_c, 9, 51, 0
1, 334920, Note_on_c, 9, 40, 127
1, 334920, Note_on_c, 9, 51, 127
1, 334924, Note_on_c, 9, 51, 0
1, 335039, Note_on_c, 9, 35, 0
1, 335039, Note_on_c, 9, 40, 0
1, 335040, Note_on_c, 9, 57, 127
1, 335050, Note_on_c, 9, 57, 0
1, 335280, Note_on_c, 9, 51, 127
1, 335290, Note_on_c, 9, 51, 0
1, 335520, Note_on_c, 9, 51, 127
1, 335530, Note_on_c, 9, 51, 0
1, 335760, Note_on_c, 9, 51, 127
1, 335760, Note_on_c, 9, 35, 127
1, 335770, Note_on_c, 9, 51, 0
1, 335999, Note_on_c, 9, 35, 0
1, 336000, Note_on_c, 9, 51, 127
1, 336000, Note_on_c, 9, 35, 127
1, 336010, Note_on_c, 9, 51, 0
1, 336240, Note_on_c, 9, 51, 127
1, 336250, Note_on_c, 9, 51, 0
1, 336479, Note_on_c, 9, 35, 0
1, 336480, Note_on_c, 9, 51, 127
1, 336490, Note_on_c, 9, 51, 0
1, 336720, Note_on_c, 9, 51, 127
1, 336730, Note_on_c, 9, 51, 0
1, 336960, Note_on_c, 9, 40, 127
1, 336960, Note_on_c, 9, 51, 127
1, 336970, Note_on_c, 9, 51, 0
1, 337199, Note_on_c, 9, 40, 0
1, 337200, Note_on_c, 9, 51, 127
1, 337210, Note_on_c, 9, 51, 0
1, 337440, Note_on_c, 9, 51, 127
1, 337450, Note_on_c, 9, 51, 0
1, 337680, Note_on_c, 9, 35, 127
1, 337740, Note_on_c, 9, 51, 127
1, 337747, Note_on_c, 9, 51, 0
1, 337919, Note_on_c, 9, 35, 0
1, 337920, Note_on_c, 9, 51, 127
1, 337920, Note_on_c, 9, 35, 127
1, 337930, Note_on_c, 9, 51, 0
1, 338160, Note_on_c, 9, 51, 127
1, 338170, Note_on_c, 9, 51, 0
1, 338399, Note_on_c, 9, 35, 0
1, 338400, Note_on_c, 9, 51, 127
1, 338410, Note_on_c, 9, 51, 0
1, 338640, Note_on_c, 9, 51, 127
1, 338650, Note_on_c, 9, 51, 0
1, 338880, Note_on_c, 9, 40, 127
1, 338880, Note_on_c, 9, 51, 127
1, 338890, Note_on_c, 9, 51, 0
1, 339119, Note_on_c, 9, 40, 0
1, 339120, Note_on_c, 9, 51, 127
1, 339130, Note_on_c, 9, 51, 0
1, 339360, Note_on_c, 9, 51, 127
1, 339370, Note_on_c, 9, 51, 0
1, 339600, Note_on_c, 9, 51, 127
1, 339600, Note_on_c, 9, 35, 127
1, 339610, Note_on_c, 9, 51, 0
1, 339839, Note_on_c, 9, 35, 0
1, 339840, Note_on_c, 9, 51, 127
1, 339840, Note_on_c, 9, 35, 127
1, 339850, Note_on_c, 9, 51, 0
1, 340080, Note_on_c, 9, 51, 127
1, 340090, Note_on_c, 9, 51, 0
1, 340319, Note_on_c, 9, 35, 0
1, 340320, Note_on_c, 9, 51, 127
1, 340320, Note_on_c, 9, 35, 127
1, 340330, Note_on_c, 9, 51, 0
1, 340560, Note_on_c, 9, 51, 127
1, 340570, Note_on_c, 9, 51, 0
1, 340799, Note_on_c, 9, 35, 0
1, 340800, Note_on_c, 9, 40, 127
1, 340800, Note_on_c, 9, 51, 127
1, 340810, Note_on_c, 9, 51, 0
1, 341039, Note_on_c, 9, 40, 0
1, 341040, Note_on_c, 9, 51, 127
1, 341044, Note_on_c, 9, 51, 0
1, 341160, Note_on_c, 9, 40, 127
1, 341279, Note_on_c, 9, 40, 0
1, 341280, Note_on_c, 9, 40, 127
1, 341280, Note_on_c, 9, 51, 127
1, 341290, Note_on_c, 9, 51, 0
1, 341519, Note_on_c, 9, 40, 0
1, 341520, Note_on_c, 9, 40, 127
1, 341520, Note_on_c, 9, 51, 127
1, 341530, Note_on_c, 9, 51, 0
1, 341759, Note_on_c, 9, 40, 0
1, 341760, Note_on_c, 9, 40, 127
1, 341760, Note_on_c, 9, 51, 127
1, 341770, Note_on_c, 9, 51, 0
1, 341999, Note_on_c, 9, 40, 0
1, 342000, Note_on_c, 9, 49, 127
1, 342000, Note_on_c, 9, 35, 127
1, 342010, Note_on_c, 9, 49, 0
1, 342239, Note_on_c, 9, 35, 0
1, 342480, Note_on_c, 9, 40, 127
1, 342719, Note_on_c, 9, 40, 0
1, 342720, Note_on_c, 9, 57, 127
1, 342720, Note_on_c, 9, 35, 127
1, 342742, Note_on_c, 9, 57, 0
1, 343199, Note_on_c, 9, 35, 0
1, 343200, Note_on_c, 9, 40, 127
1, 343439, Note_on_c, 9, 40, 0
1, 343440, Note_on_c, 9, 49, 127
1, 343440, Note_on_c, 9, 35, 127
1, 343450, Note_on_c, 9, 49, 0
1, 343679, Note_on_c, 9, 35, 0
1, 343920, Note_on_c, 9, 40, 127
1, 344159, Note_on_c, 9, 40, 0
1, 344160, Note_on_c, 9, 57, 127
1, 344160, Note_on_c, 9, 35, 127
1, 344182, Note_on_c, 9, 57, 0
1, 344639, Note_on_c, 9, 35, 0
1, 344640, Note_on_c, 9, 40, 127
1, 345119, Note_on_c, 9, 40, 0
1, 345120, Note_on_c, 9, 41, 127
1, 345120, Note_on_c, 9, 43, 127
1, 345599, Note_on_c, 9, 41, 0
1, 345599, Note_on_c, 9, 43, 0
1, 345600, Note_on_c, 9, 57, 127
1, 345600, Note_on_c, 9, 35, 127
1, 345622, Note_on_c, 9, 57, 0
1, 346079, Note_on_c, 9, 35, 0
1, 356520, Note_on_c, 9, 45, 127
1, 356639, Note_on_c, 9, 45, 0
1, 356640, Note_on_c, 9, 41, 127
1, 356640, Note_on_c, 9, 43, 127
1, 356719, Note_on_c, 9, 43, 0
1, 356720, Note_on_c, 9, 35, 127
1, 356879, Note_on_c, 9, 35, 0
1, 357119, Note_on_c, 9, 41, 0
1, 357120, End_track
0, 0, End_of_file
