0, 0, Header, 1, 1, 480
1, 0, Start_track
1, 0, Title_t, "Drumset"
1, 0, Time_signature, 4, 2, 24, 8
1, 0, Key_signature, 0, "major"
1, 0, Tempo, 487805
1, 0, Control_c, 9, 121, 0
1, 0, Program_c, 9, 0
1, 0, Control_c, 9, 7, 100
1, 0, Control_c, 9, 10, 64
1, 0, Control_c, 9, 91, 0
1, 0, Control_c, 9, 93, 0
1, 0, MIDI_port, 0
1, 1920, Note_on_c, 9, 51, 104
1, 1942, Note_on_c, 9, 51, 0
1, 2400, Note_on_c, 9, 51, 95
1, 2416, Note_on_c, 9, 51, 0
1, 2865, Note_on_c, 9, 51, 120
1, 2865, Note_on_c, 9, 51, 0
1, 3840, Note_on_c, 9, 51, 111
1, 3862, Note_on_c, 9, 51, 0
1, 4320, Note_on_c, 9, 51, 120
1, 4336, Note_on_c, 9, 51, 0
1, 4785, Note_on_c, 9, 51, 115
1, 4785, Note_on_c, 9, 51, 0
1, 5745, Note_on_c, 9, 51, 102
1, 5745, Note_on_c, 9, 51, 0
1, 6240, Note_on_c, 9, 51, 115
1, 6262, Note_on_c, 9, 51, 0
1, 6720, Note_on_c, 9, 51, 119
1, 6742, Note_on_c, 9, 51, 0
1, 7665, Note_on_c, 9, 51, 115
1, 7665, Note_on_c, 9, 51, 0
1, 8145, Note_on_c, 9, 51, 109
1, 8145, Note_on_c, 9, 51, 0
1, 8640, Note_on_c, 9, 38, 110
1, 8654, Note_on_c, 9, 38, 0
1, 8655, Note_on_c, 9, 51, 104
1, 8656, Note_on_c, 9, 51, 0
1, 8760, Note_on_c, 9, 38, 114
1, 8879, Note_on_c, 9, 38, 0
1, 8880, Note_on_c, 9, 38, 106
1, 8999, Note_on_c, 9, 38, 0
1, 9000, Note_on_c, 9, 38, 113
1, 9059, Note_on_c, 9, 38, 0
1, 9105, Note_on_c, 9, 38, 118
1, 9119, Note_on_c, 9, 38, 0
1, 9360, Note_on_c, 9, 38, 121
1, 9539, Note_on_c, 9, 38, 0
1, 9585, Note_on_c, 9, 49, 114
1, 9585, Note_on_c, 9, 49, 0
1, 9585, Note_on_c, 9, 36, 97
1, 9599, Note_on_c, 9, 36, 0
1, 10080, Note_on_c, 9, 38, 108
1, 10080, Note_on_c, 9, 42, 108
1, 10087, Note_on_c, 9, 42, 0
1, 10259, Note_on_c, 9, 38, 0
1, 10305, Note_on_c, 9, 42, 84
1, 10305, Note_on_c, 9, 42, 0
1, 10545, Note_on_c, 9, 36, 93
1, 10559, Note_on_c, 9, 36, 0
1, 10560, Note_on_c, 9, 42, 104
1, 10567, Note_on_c, 9, 42, 0
1, 10785, Note_on_c, 9, 42, 90
1, 10785, Note_on_c, 9, 42, 0
1, 11040, Note_on_c, 9, 38, 107
1, 11040, Note_on_c, 9, 44, 108
1, 11050, Note_on_c, 9, 44, 0
1, 11279, Note_on_c, 9, 38, 0
1, 11280, Note_on_c, 9, 42, 97
1, 11280, Note_on_c, 9, 36, 94
1, 11290, Note_on_c, 9, 42, 0
1, 11459, Note_on_c, 9, 36, 0
1, 11505, Note_on_c, 9, 36, 95
1, 11519, Note_on_c, 9, 36, 0
1, 11520, Note_on_c, 9, 42, 108
1, 11530, Note_on_c, 9, 42, 0
1, 11760, Note_on_c, 9, 42, 104
1, 11770, Note_on_c, 9, 42, 0
1, 12000, Note_on_c, 9, 38, 107
1, 12019, Note_on_c, 9, 38, 0
1, 12020, Note_on_c, 9, 42, 110
1, 12020, Note_on_c, 9, 42, 0
1, 12240, Note_on_c, 9, 42, 95
1, 12250, Note_on_c, 9, 42, 0
1, 12465, Note_on_c, 9, 36, 107
1, 12479, Note_on_c, 9, 36, 0
1, 12480, Note_on_c, 9, 42, 110
1, 12490, Note_on_c, 9, 42, 0
1, 12720, Note_on_c, 9, 42, 100
1, 12727, Note_on_c, 9, 42, 0
1, 12945, Note_on_c, 9, 38, 122
1, 12945, Note_on_c, 9, 44, 118
1, 12945, Note_on_c, 9, 44, 0
1, 12959, Note_on_c, 9, 38, 0
1, 13200, Note_on_c, 9, 42, 102
1, 13207, Note_on_c, 9, 42, 0
1, 13425, Note_on_c, 9, 42, 100
1, 13425, Note_on_c, 9, 42, 0
1, 13440, Note_on_c, 9, 36, 108
1, 13680, Note_on_c, 9, 42, 97
1, 13690, Note_on_c, 9, 42, 0
1, 13919, Note_on_c, 9, 36, 0
1, 13920, Note_on_c, 9, 38, 119
1, 13920, Note_on_c, 9, 42, 108
1, 13930, Note_on_c, 9, 42, 0
1, 14159, Note_on_c, 9, 38, 0
1, 14160, Note_on_c, 9, 42, 100
1, 14170, Note_on_c, 9, 42, 0
1, 14400, Note_on_c, 9, 42, 108
1, 14400, Note_on_c, 9, 36, 99
1, 14407, Note_on_c, 9, 42, 0
1, 14625, Note_on_c, 9, 42, 97
1, 14625, Note_on_c, 9, 42, 0
1, 14879, Note_on_c, 9, 36, 0
1, 14880, Note_on_c, 9, 38, 114
1, 14880, Note_on_c, 9, 44, 115
1, 14890, Note_on_c, 9, 44, 0
1, 15119, Note_on_c, 9, 38, 0
1, 15120, Note_on_c, 9, 42, 104
1, 15120, Note_on_c, 9, 36, 99
1, 15127, Note_on_c, 9, 42, 0
1, 15299, Note_on_c, 9, 36, 0
1, 15345, Note_on_c, 9, 42, 100
1, 15345, Note_on_c, 9, 42, 0
1, 15345, Note_on_c, 9, 36, 103
1, 15359, Note_on_c, 9, 36, 0
1, 15600, Note_on_c, 9, 42, 100
1, 15607, Note_on_c, 9, 42, 0
1, 15825, Note_on_c, 9, 38, 115
1, 15825, Note_on_c, 9, 42, 100
1, 15825, Note_on_c, 9, 42, 0
1, 15839, Note_on_c, 9, 38, 0
1, 16080, Note_on_c, 9, 42, 95
1, 16087, Note_on_c, 9, 42, 0
1, 16305, Note_on_c, 9, 42, 104
1, 16305, Note_on_c, 9, 42, 0
1, 16320, Note_on_c, 9, 36, 93
1, 16560, Note_on_c, 9, 42, 108
1, 16570, Note_on_c, 9, 42, 0
1, 16799, Note_on_c, 9, 36, 0
1, 16800, Note_on_c, 9, 38, 106
1, 16800, Note_on_c, 9, 44, 110
1, 16822, Note_on_c, 9, 44, 0
1, 17039, Note_on_c, 9, 38, 0
1, 17040, Note_on_c, 9, 42, 110
1, 17047, Note_on_c, 9, 42, 0
1, 17265, Note_on_c, 9, 49, 110
1, 17265, Note_on_c, 9, 49, 0
1, 17280, Note_on_c, 9, 36, 107
1, 17745, Note_on_c, 9, 42, 108
1, 17745, Note_on_c, 9, 42, 0
1, 17759, Note_on_c, 9, 36, 0
1, 17760, Note_on_c, 9, 38, 112
1, 17999, Note_on_c, 9, 38, 0
1, 18000, Note_on_c, 9, 42, 84
1, 18010, Note_on_c, 9, 42, 0
1, 18240, Note_on_c, 9, 42, 104
1, 18240, Note_on_c, 9, 36, 105
1, 18250, Note_on_c, 9, 42, 0
1, 18480, Note_on_c, 9, 42, 90
1, 18490, Note_on_c, 9, 42, 0
1, 18719, Note_on_c, 9, 36, 0
1, 18720, Note_on_c, 9, 38, 121
1, 18720, Note_on_c, 9, 44, 119
1, 18730, Note_on_c, 9, 44, 0
1, 18959, Note_on_c, 9, 38, 0
1, 18960, Note_on_c, 9, 42, 97
1, 18960, Note_on_c, 9, 36, 93
1, 18967, Note_on_c, 9, 42, 0
1, 19185, Note_on_c, 9, 57, 118
1, 19185, Note_on_c, 9, 57, 0
1, 19199, Note_on_c, 9, 36, 0
1, 19200, Note_on_c, 9, 36, 103
1, 19440, Note_on_c, 9, 42, 104
1, 19450, Note_on_c, 9, 42, 0
1, 19679, Note_on_c, 9, 36, 0
1, 19680, Note_on_c, 9, 42, 110
1, 19680, Note_on_c, 9, 42, 0
1, 19700, Note_on_c, 9, 38, 117
1, 19739, Note_on_c, 9, 38, 0
1, 19920, Note_on_c, 9, 42, 95
1, 19930, Note_on_c, 9, 42, 0
1, 20160, Note_on_c, 9, 42, 110
1, 20160, Note_on_c, 9, 36, 97
1, 20170, Note_on_c, 9, 42, 0
1, 20400, Note_on_c, 9, 42, 100
1, 20407, Note_on_c, 9, 42, 0
1, 20625, Note_on_c, 9, 38, 111
1, 20639, Note_on_c, 9, 36, 0
1, 20639, Note_on_c, 9, 38, 0
1, 20640, Note_on_c, 9, 44, 118
1, 20662, Note_on_c, 9, 44, 0
1, 20880, Note_on_c, 9, 42, 102
1, 20887, Note_on_c, 9, 42, 0
1, 21105, Note_on_c, 9, 49, 116
1, 21105, Note_on_c, 9, 49, 0
1, 21120, Note_on_c, 9, 36, 102
1, 21360, Note_on_c, 9, 42, 97
1, 21367, Note_on_c, 9, 42, 0
1, 21585, Note_on_c, 9, 38, 118
1, 21585, Note_on_c, 9, 42, 108
1, 21585, Note_on_c, 9, 42, 0
1, 21599, Note_on_c, 9, 36, 0
1, 21599, Note_on_c, 9, 38, 0
1, 21840, Note_on_c, 9, 42, 100
1, 21847, Note_on_c, 9, 42, 0
1, 22065, Note_on_c, 9, 42, 108
1, 22065, Note_on_c, 9, 42, 0
1, 22065, Note_on_c, 9, 36, 97
1, 22079, Note_on_c, 9, 36, 0
1, 22320, Note_on_c, 9, 42, 97
1, 22327, Note_on_c, 9, 42, 0
1, 22545, Note_on_c, 9, 38, 108
1, 22559, Note_on_c, 9, 38, 0
1, 22560, Note_on_c, 9, 44, 120
1, 22570, Note_on_c, 9, 44, 0
1, 22785, Note_on_c, 9, 42, 104
1, 22785, Note_on_c, 9, 42, 0
1, 22800, Note_on_c, 9, 36, 108
1, 22979, Note_on_c, 9, 36, 0
1, 23025, Note_on_c, 9, 36, 96
1, 23039, Note_on_c, 9, 36, 0
1, 23040, Note_on_c, 9, 42, 100
1, 23050, Note_on_c, 9, 42, 0
1, 23280, Note_on_c, 9, 42, 100
1, 23287, Note_on_c, 9, 42, 0
1, 23505, Note_on_c, 9, 42, 100
1, 23505, Note_on_c, 9, 42, 0
1, 23520, Note_on_c, 9, 38, 113
1, 23699, Note_on_c, 9, 38, 0
1, 23745, Note_on_c, 9, 42, 95
1, 23745, Note_on_c, 9, 42, 0
1, 24000, Note_on_c, 9, 42, 104
1, 24000, Note_on_c, 9, 36, 105
1, 24010, Note_on_c, 9, 42, 0
1, 24240, Note_on_c, 9, 42, 108
1, 24250, Note_on_c, 9, 42, 0
1, 24359, Note_on_c, 9, 36, 0
1, 24465, Note_on_c, 9, 44, 110
1, 24465, Note_on_c, 9, 44, 0
1, 24480, Note_on_c, 9, 38, 121
1, 24719, Note_on_c, 9, 38, 0
1, 24720, Note_on_c, 9, 42, 110
1, 24727, Note_on_c, 9, 42, 0
1, 24945, Note_on_c, 9, 57, 112
1, 24945, Note_on_c, 9, 57, 0
1, 24960, Note_on_c, 9, 36, 94
1, 25439, Note_on_c, 9, 36, 0
1, 25440, Note_on_c, 9, 38, 115
1, 25440, Note_on_c, 9, 42, 108
1, 25450, Note_on_c, 9, 42, 0
1, 25679, Note_on_c, 9, 38, 0
1, 25680, Note_on_c, 9, 42, 84
1, 25687, Note_on_c, 9, 42, 0
1, 25905, Note_on_c, 9, 42, 104
1, 25905, Note_on_c, 9, 42, 0
1, 25920, Note_on_c, 9, 36, 103
1, 26160, Note_on_c, 9, 42, 90
1, 26170, Note_on_c, 9, 42, 0
1, 26279, Note_on_c, 9, 36, 0
1, 26385, Note_on_c, 9, 44, 109
1, 26385, Note_on_c, 9, 44, 0
1, 26400, Note_on_c, 9, 38, 108
1, 26625, Note_on_c, 9, 36, 105
1, 26639, Note_on_c, 9, 38, 0
1, 26639, Note_on_c, 9, 36, 0
1, 26640, Note_on_c, 9, 42, 97
1, 26650, Note_on_c, 9, 42, 0
1, 26880, Note_on_c, 9, 49, 110
1, 26880, Note_on_c, 9, 36, 94
1, 26890, Note_on_c, 9, 49, 0
1, 27120, Note_on_c, 9, 42, 104
1, 27127, Note_on_c, 9, 42, 0
1, 27345, Note_on_c, 9, 42, 110
1, 27345, Note_on_c, 9, 42, 0
1, 27359, Note_on_c, 9, 36, 0
1, 27360, Note_on_c, 9, 38, 105
1, 27599, Note_on_c, 9, 38, 0
1, 27600, Note_on_c, 9, 42, 95
1, 27610, Note_on_c, 9, 42, 0
1, 27825, Note_on_c, 9, 36, 91
1, 27839, Note_on_c, 9, 36, 0
1, 27840, Note_on_c, 9, 42, 110
1, 27850, Note_on_c, 9, 42, 0
1, 28080, Note_on_c, 9, 42, 100
1, 28087, Note_on_c, 9, 42, 0
1, 28305, Note_on_c, 9, 38, 120
1, 28305, Note_on_c, 9, 44, 112
1, 28305, Note_on_c, 9, 44, 0
1, 28319, Note_on_c, 9, 38, 0
1, 28560, Note_on_c, 9, 42, 102
1, 28570, Note_on_c, 9, 42, 0
1, 28800, Note_on_c, 9, 57, 116
1, 28800, Note_on_c, 9, 36, 95
1, 28807, Note_on_c, 9, 57, 0
1, 29025, Note_on_c, 9, 42, 97
1, 29025, Note_on_c, 9, 42, 0
1, 29279, Note_on_c, 9, 36, 0
1, 29280, Note_on_c, 9, 38, 111
1, 29280, Note_on_c, 9, 42, 108
1, 29287, Note_on_c, 9, 42, 0
1, 29459, Note_on_c, 9, 38, 0
1, 29505, Note_on_c, 9, 42, 100
1, 29505, Note_on_c, 9, 42, 0
1, 29760, Note_on_c, 9, 42, 108
1, 29760, Note_on_c, 9, 36, 92
1, 29770, Note_on_c, 9, 42, 0
1, 30000, Note_on_c, 9, 42, 97
1, 30010, Note_on_c, 9, 42, 0
1, 30239, Note_on_c, 9, 36, 0
1, 30240, Note_on_c, 9, 38, 119
1, 30240, Note_on_c, 9, 44, 113
1, 30250, Note_on_c, 9, 44, 0
1, 30479, Note_on_c, 9, 38, 0
1, 30480, Note_on_c, 9, 42, 104
1, 30480, Note_on_c, 9, 36, 95
1, 30487, Note_on_c, 9, 42, 0
1, 30690, Note_on_c, 9, 38, 118
1, 30704, Note_on_c, 9, 38, 0
1, 30705, Note_on_c, 9, 38, 116
1, 30719, Note_on_c, 9, 36, 0
1, 30719, Note_on_c, 9, 38, 0
1, 30720, Note_on_c, 9, 42, 100
1, 30730, Note_on_c, 9, 42, 0
1, 30960, Note_on_c, 9, 42, 100
1, 30960, Note_on_c, 9, 36, 99
1, 30967, Note_on_c, 9, 42, 0
1, 31185, Note_on_c, 9, 42, 100
1, 31185, Note_on_c, 9, 42, 0
1, 31199, Note_on_c, 9, 36, 0
1, 31200, Note_on_c, 9, 36, 94
1, 31410, Note_on_c, 9, 38, 121
1, 31424, Note_on_c, 9, 38, 0
1, 31425, Note_on_c, 9, 42, 95
1, 31425, Note_on_c, 9, 42, 0
1, 31440, Note_on_c, 9, 38, 112
1, 31559, Note_on_c, 9, 36, 0
1, 31665, Note_on_c, 9, 36, 94
1, 31679, Note_on_c, 9, 38, 0
1, 31679, Note_on_c, 9, 36, 0
1, 31680, Note_on_c, 9, 42, 104
1, 31690, Note_on_c, 9, 42, 0
1, 31920, Note_on_c, 9, 42, 108
1, 31920, Note_on_c, 9, 36, 99
1, 31927, Note_on_c, 9, 42, 0
1, 32099, Note_on_c, 9, 36, 0
1, 32140, Note_on_c, 9, 38, 119
1, 32145, Note_on_c, 9, 44, 110
1, 32145, Note_on_c, 9, 44, 0
1, 32159, Note_on_c, 9, 38, 0
1, 32160, Note_on_c, 9, 38, 116
1, 32399, Note_on_c, 9, 38, 0
1, 32400, Note_on_c, 9, 42, 110
1, 32407, Note_on_c, 9, 42, 0
1, 32625, Note_on_c, 9, 49, 120
1, 32625, Note_on_c, 9, 49, 0
1, 32640, Note_on_c, 9, 36, 104
1, 33119, Note_on_c, 9, 36, 0
1, 33120, Note_on_c, 9, 38, 121
1, 33120, Note_on_c, 9, 42, 97
1, 33130, Note_on_c, 9, 42, 0
1, 33359, Note_on_c, 9, 38, 0
1, 33360, Note_on_c, 9, 42, 90
1, 33370, Note_on_c, 9, 42, 0
1, 33600, Note_on_c, 9, 42, 96
1, 33600, Note_on_c, 9, 36, 94
1, 33610, Note_on_c, 9, 42, 0
1, 33840, Note_on_c, 9, 42, 91
1, 33850, Note_on_c, 9, 42, 0
1, 34079, Note_on_c, 9, 36, 0
1, 34080, Note_on_c, 9, 38, 117
1, 34080, Note_on_c, 9, 44, 97
1, 34090, Note_on_c, 9, 44, 0
1, 34259, Note_on_c, 9, 38, 0
1, 34305, Note_on_c, 9, 42, 80
1, 34305, Note_on_c, 9, 42, 0
1, 34320, Note_on_c, 9, 36, 106
1, 34559, Note_on_c, 9, 36, 0
1, 34560, Note_on_c, 9, 46, 85
1, 34560, Note_on_c, 9, 36, 98
1, 34570, Note_on_c, 9, 46, 0
1, 34800, Note_on_c, 9, 42, 84
1, 34807, Note_on_c, 9, 42, 0
1, 35025, Note_on_c, 9, 42, 96
1, 35025, Note_on_c, 9, 42, 0
1, 35039, Note_on_c, 9, 36, 0
1, 35040, Note_on_c, 9, 38, 105
1, 35279, Note_on_c, 9, 38, 0
1, 35280, Note_on_c, 9, 42, 93
1, 35290, Note_on_c, 9, 42, 0
1, 35520, Note_on_c, 9, 42, 85
1, 35520, Note_on_c, 9, 36, 91
1, 35530, Note_on_c, 9, 42, 0
1, 35760, Note_on_c, 9, 42, 91
1, 35770, Note_on_c, 9, 42, 0
1, 35999, Note_on_c, 9, 36, 0
1, 36000, Note_on_c, 9, 38, 117
1, 36000, Note_on_c, 9, 44, 93
1, 36022, Note_on_c, 9, 44, 0
1, 36239, Note_on_c, 9, 38, 0
1, 36240, Note_on_c, 9, 42, 78
1, 36250, Note_on_c, 9, 42, 0
1, 36480, Note_on_c, 9, 49, 90
1, 36480, Note_on_c, 9, 36, 92
1, 36490, Note_on_c, 9, 49, 0
1, 36720, Note_on_c, 9, 42, 79
1, 36730, Note_on_c, 9, 42, 0
1, 36959, Note_on_c, 9, 36, 0
1, 36960, Note_on_c, 9, 38, 122
1, 36960, Note_on_c, 9, 42, 98
1, 36970, Note_on_c, 9, 42, 0
1, 37199, Note_on_c, 9, 38, 0
1, 37200, Note_on_c, 9, 42, 80
1, 37210, Note_on_c, 9, 42, 0
1, 37440, Note_on_c, 9, 42, 82
1, 37440, Note_on_c, 9, 36, 104
1, 37450, Note_on_c, 9, 42, 0
1, 37680, Note_on_c, 9, 42, 85
1, 37687, Note_on_c, 9, 42, 0
1, 37799, Note_on_c, 9, 36, 0
1, 37905, Note_on_c, 9, 38, 109
1, 37905, Note_on_c, 9, 44, 89
1, 37905, Note_on_c, 9, 44, 0
1, 37919, Note_on_c, 9, 38, 0
1, 38145, Note_on_c, 9, 42, 90
1, 38145, Note_on_c, 9, 42, 0
1, 38160, Note_on_c, 9, 36, 95
1, 38399, Note_on_c, 9, 36, 0
1, 38400, Note_on_c, 9, 42, 98
1, 38400, Note_on_c, 9, 36, 104
1, 38410, Note_on_c, 9, 42, 0
1, 38640, Note_on_c, 9, 42, 97
1, 38650, Note_on_c, 9, 42, 0
1, 38879, Note_on_c, 9, 36, 0
1, 38880, Note_on_c, 9, 38, 119
1, 38880, Note_on_c, 9, 42, 97
1, 38890, Note_on_c, 9, 42, 0
1, 39119, Note_on_c, 9, 38, 0
1, 39120, Note_on_c, 9, 42, 89
1, 39130, Note_on_c, 9, 42, 0
1, 39360, Note_on_c, 9, 42, 79
1, 39360, Note_on_c, 9, 36, 95
1, 39370, Note_on_c, 9, 42, 0
1, 39600, Note_on_c, 9, 42, 89
1, 39610, Note_on_c, 9, 42, 0
1, 39839, Note_on_c, 9, 36, 0
1, 39840, Note_on_c, 9, 38, 113
1, 39840, Note_on_c, 9, 44, 79
1, 39862, Note_on_c, 9, 44, 0
1, 40079, Note_on_c, 9, 38, 0
1, 40080, Note_on_c, 9, 42, 89
1, 40090, Note_on_c, 9, 42, 0
1, 40320, Note_on_c, 9, 49, 83
1, 40320, Note_on_c, 9, 36, 105
1, 40336, Note_on_c, 9, 49, 0
1, 40785, Note_on_c, 9, 38, 117
1, 40799, Note_on_c, 9, 36, 0
1, 40799, Note_on_c, 9, 38, 0
1, 40800, Note_on_c, 9, 42, 90
1, 40810, Note_on_c, 9, 42, 0
1, 41040, Note_on_c, 9, 42, 88
1, 41050, Note_on_c, 9, 42, 0
1, 41265, Note_on_c, 9, 36, 103
1, 41279, Note_on_c, 9, 36, 0
1, 41280, Note_on_c, 9, 42, 93
1, 41290, Note_on_c, 9, 42, 0
1, 41520, Note_on_c, 9, 42, 94
1, 41527, Note_on_c, 9, 42, 0
1, 41745, Note_on_c, 9, 38, 106
1, 41759, Note_on_c, 9, 38, 0
1, 41760, Note_on_c, 9, 44, 97
1, 41770, Note_on_c, 9, 44, 0
1, 42000, Note_on_c, 9, 42, 80
1, 42000, Note_on_c, 9, 36, 107
1, 42010, Note_on_c, 9, 42, 0
1, 42179, Note_on_c, 9, 36, 0
1, 42225, Note_on_c, 9, 36, 97
1, 42239, Note_on_c, 9, 36, 0
1, 42240, Note_on_c, 9, 46, 91
1, 42250, Note_on_c, 9, 46, 0
1, 42480, Note_on_c, 9, 42, 83
1, 42487, Note_on_c, 9, 42, 0
1, 42705, Note_on_c, 9, 38, 108
1, 42719, Note_on_c, 9, 38, 0
1, 42720, Note_on_c, 9, 42, 95
1, 42730, Note_on_c, 9, 42, 0
1, 42960, Note_on_c, 9, 42, 86
1, 42970, Note_on_c, 9, 42, 0
1, 43200, Note_on_c, 9, 42, 87
1, 43200, Note_on_c, 9, 36, 105
1, 43210, Note_on_c, 9, 42, 0
1, 43440, Note_on_c, 9, 42, 78
1, 43447, Note_on_c, 9, 42, 0
1, 43665, Note_on_c, 9, 38, 113
1, 43679, Note_on_c, 9, 36, 0
1, 43679, Note_on_c, 9, 38, 0
1, 43680, Note_on_c, 9, 44, 82
1, 43702, Note_on_c, 9, 44, 0
1, 43920, Note_on_c, 9, 42, 86
1, 43930, Note_on_c, 9, 42, 0
1, 44160, Note_on_c, 9, 49, 91
1, 44160, Note_on_c, 9, 36, 95
1, 44170, Note_on_c, 9, 49, 0
1, 44400, Note_on_c, 9, 42, 92
1, 44410, Note_on_c, 9, 42, 0
1, 44639, Note_on_c, 9, 36, 0
1, 44640, Note_on_c, 9, 38, 120
1, 44640, Note_on_c, 9, 42, 87
1, 44647, Note_on_c, 9, 42, 0
1, 44819, Note_on_c, 9, 38, 0
1, 44865, Note_on_c, 9, 42, 88
1, 44865, Note_on_c, 9, 42, 0
1, 45105, Note_on_c, 9, 36, 105
1, 45119, Note_on_c, 9, 36, 0
1, 45120, Note_on_c, 9, 42, 86
1, 45127, Note_on_c, 9, 42, 0
1, 45345, Note_on_c, 9, 42, 89
1, 45345, Note_on_c, 9, 42, 0
1, 45600, Note_on_c, 9, 38, 110
1, 45600, Note_on_c, 9, 44, 83
1, 45610, Note_on_c, 9, 44, 0
1, 45839, Note_on_c, 9, 38, 0
1, 45840, Note_on_c, 9, 42, 91
1, 45840, Note_on_c, 9, 36, 98
1, 45844, Note_on_c, 9, 42, 0
1, 46040, Note_on_c, 9, 38, 110
1, 46079, Note_on_c, 9, 36, 0
1, 46079, Note_on_c, 9, 38, 0
1, 46080, Note_on_c, 9, 42, 84
1, 46080, Note_on_c, 9, 42, 0
1, 46100, Note_on_c, 9, 38, 119
1, 46139, Note_on_c, 9, 38, 0
1, 46320, Note_on_c, 9, 42, 84
1, 46320, Note_on_c, 9, 36, 104
1, 46330, Note_on_c, 9, 42, 0
1, 46559, Note_on_c, 9, 36, 0
1, 46560, Note_on_c, 9, 42, 80
1, 46560, Note_on_c, 9, 36, 94
1, 46564, Note_on_c, 9, 42, 0
1, 46760, Note_on_c, 9, 38, 115
1, 46799, Note_on_c, 9, 38, 0
1, 46800, Note_on_c, 9, 38, 105
1, 46814, Note_on_c, 9, 38, 0
1, 46815, Note_on_c, 9, 42, 86
1, 46821, Note_on_c, 9, 42, 0
1, 47025, Note_on_c, 9, 42, 86
1, 47025, Note_on_c, 9, 42, 0
1, 47039, Note_on_c, 9, 36, 0
1, 47040, Note_on_c, 9, 36, 102
1, 47279, Note_on_c, 9, 36, 0
1, 47280, Note_on_c, 9, 42, 80
1, 47280, Note_on_c, 9, 36, 103
1, 47290, Note_on_c, 9, 42, 0
1, 47519, Note_on_c, 9, 36, 0
1, 47520, Note_on_c, 9, 38, 110
1, 47520, Note_on_c, 9, 44, 94
1, 47542, Note_on_c, 9, 44, 0
1, 47759, Note_on_c, 9, 38, 0
1, 47760, Note_on_c, 9, 42, 92
1, 47770, Note_on_c, 9, 42, 0
1, 48000, Note_on_c, 9, 49, 85
1, 48000, Note_on_c, 9, 36, 97
1, 48022, Note_on_c, 9, 49, 0
1, 48479, Note_on_c, 9, 36, 0
1, 48480, Note_on_c, 9, 38, 109
1, 48499, Note_on_c, 9, 38, 0
1, 48500, Note_on_c, 9, 42, 95
1, 48500, Note_on_c, 9, 42, 0
1, 48720, Note_on_c, 9, 42, 91
1, 48730, Note_on_c, 9, 42, 0
1, 48960, Note_on_c, 9, 42, 97
1, 48960, Note_on_c, 9, 36, 101
1, 48970, Note_on_c, 9, 42, 0
1, 49200, Note_on_c, 9, 42, 82
1, 49210, Note_on_c, 9, 42, 0
1, 49319, Note_on_c, 9, 36, 0
1, 49425, Note_on_c, 9, 44, 89
1, 49425, Note_on_c, 9, 44, 0
1, 49440, Note_on_c, 9, 38, 115
1, 49619, Note_on_c, 9, 38, 0
1, 49665, Note_on_c, 9, 42, 88
1, 49665, Note_on_c, 9, 42, 0
1, 49680, Note_on_c, 9, 36, 103
1, 49919, Note_on_c, 9, 36, 0
1, 49920, Note_on_c, 9, 46, 81
1, 49920, Note_on_c, 9, 36, 108
1, 49930, Note_on_c, 9, 46, 0
1, 50160, Note_on_c, 9, 42, 89
1, 50167, Note_on_c, 9, 42, 0
1, 50385, Note_on_c, 9, 42, 78
1, 50385, Note_on_c, 9, 42, 0
1, 50399, Note_on_c, 9, 36, 0
1, 50400, Note_on_c, 9, 38, 122
1, 50639, Note_on_c, 9, 38, 0
1, 50640, Note_on_c, 9, 42, 93
1, 50650, Note_on_c, 9, 42, 0
1, 50880, Note_on_c, 9, 42, 95
1, 50880, Note_on_c, 9, 36, 105
1, 50890, Note_on_c, 9, 42, 0
1, 51120, Note_on_c, 9, 42, 88
1, 51130, Note_on_c, 9, 42, 0
1, 51239, Note_on_c, 9, 36, 0
1, 51345, Note_on_c, 9, 44, 88
1, 51345, Note_on_c, 9, 44, 0
1, 51360, Note_on_c, 9, 38, 105
1, 51599, Note_on_c, 9, 38, 0
1, 51600, Note_on_c, 9, 42, 81
1, 51607, Note_on_c, 9, 42, 0
1, 51825, Note_on_c, 9, 49, 97
1, 51825, Note_on_c, 9, 49, 0
1, 51840, Note_on_c, 9, 36, 94
1, 52080, Note_on_c, 9, 42, 92
1, 52090, Note_on_c, 9, 42, 0
1, 52319, Note_on_c, 9, 36, 0
1, 52320, Note_on_c, 9, 38, 115
1, 52320, Note_on_c, 9, 42, 92
1, 52327, Note_on_c, 9, 42, 0
1, 52499, Note_on_c, 9, 38, 0
1, 52545, Note_on_c, 9, 42, 81
1, 52545, Note_on_c, 9, 42, 0
1, 52785, Note_on_c, 9, 36, 94
1, 52799, Note_on_c, 9, 36, 0
1, 52800, Note_on_c, 9, 42, 96
1, 52810, Note_on_c, 9, 42, 0
1, 53040, Note_on_c, 9, 42, 80
1, 53050, Note_on_c, 9, 42, 0
1, 53265, Note_on_c, 9, 44, 94
1, 53265, Note_on_c, 9, 44, 0
1, 53280, Note_on_c, 9, 38, 108
1, 53505, Note_on_c, 9, 36, 108
1, 53519, Note_on_c, 9, 38, 0
1, 53519, Note_on_c, 9, 36, 0
1, 53520, Note_on_c, 9, 42, 90
1, 53530, Note_on_c, 9, 42, 0
1, 53760, Note_on_c, 9, 42, 91
1, 53760, Note_on_c, 9, 36, 91
1, 53770, Note_on_c, 9, 42, 0
1, 54000, Note_on_c, 9, 42, 86
1, 54007, Note_on_c, 9, 42, 0
1, 54225, Note_on_c, 9, 38, 111
1, 54225, Note_on_c, 9, 42, 88
1, 54225, Note_on_c, 9, 42, 0
1, 54239, Note_on_c, 9, 36, 0
1, 54239, Note_on_c, 9, 38, 0
1, 54480, Note_on_c, 9, 42, 93
1, 54487, Note_on_c, 9, 42, 0
1, 54705, Note_on_c, 9, 42, 93
1, 54705, Note_on_c, 9, 42, 0
1, 54705, Note_on_c, 9, 36, 100
1, 54719, Note_on_c, 9, 36, 0
1, 54960, Note_on_c, 9, 42, 92
1, 54967, Note_on_c, 9, 42, 0
1, 55185, Note_on_c, 9, 38, 117
1, 55185, Note_on_c, 9, 44, 79
1, 55185, Note_on_c, 9, 44, 0
1, 55199, Note_on_c, 9, 38, 0
1, 55425, Note_on_c, 9, 42, 87
1, 55425, Note_on_c, 9, 42, 0
1, 55665, Note_on_c, 9, 36, 97
1, 55679, Note_on_c, 9, 36, 0
1, 55680, Note_on_c, 9, 49, 80
1, 55696, Note_on_c, 9, 49, 0
1, 56145, Note_on_c, 9, 42, 89
1, 56145, Note_on_c, 9, 42, 0
1, 56160, Note_on_c, 9, 38, 115
1, 56399, Note_on_c, 9, 38, 0
1, 56400, Note_on_c, 9, 42, 83
1, 56410, Note_on_c, 9, 42, 0
1, 56625, Note_on_c, 9, 36, 107
1, 56639, Note_on_c, 9, 36, 0
1, 56640, Note_on_c, 9, 42, 79
1, 56650, Note_on_c, 9, 42, 0
1, 56880, Note_on_c, 9, 42, 83
1, 56890, Note_on_c, 9, 42, 0
1, 57120, Note_on_c, 9, 38, 113
1, 57120, Note_on_c, 9, 44, 79
1, 57130, Note_on_c, 9, 44, 0
1, 57359, Note_on_c, 9, 38, 0
1, 57360, Note_on_c, 9, 42, 82
1, 57360, Note_on_c, 9, 36, 94
1, 57370, Note_on_c, 9, 42, 0
1, 57539, Note_on_c, 9, 36, 0
1, 57585, Note_on_c, 9, 36, 101
1, 57599, Note_on_c, 9, 36, 0
1, 57600, Note_on_c, 9, 46, 88
1, 57607, Note_on_c, 9, 46, 0
1, 57825, Note_on_c, 9, 42, 79
1, 57825, Note_on_c, 9, 42, 0
1, 58080, Note_on_c, 9, 38, 116
1, 58080, Note_on_c, 9, 42, 96
1, 58090, Note_on_c, 9, 42, 0
1, 58319, Note_on_c, 9, 38, 0
1, 58320, Note_on_c, 9, 42, 92
1, 58327, Note_on_c, 9, 42, 0
1, 58545, Note_on_c, 9, 42, 78
1, 58545, Note_on_c, 9, 42, 0
1, 58560, Note_on_c, 9, 36, 102
1, 58800, Note_on_c, 9, 42, 80
1, 58810, Note_on_c, 9, 42, 0
1, 59039, Note_on_c, 9, 36, 0
1, 59040, Note_on_c, 9, 38, 117
1, 59040, Note_on_c, 9, 44, 98
1, 59062, Note_on_c, 9, 44, 0
1, 59279, Note_on_c, 9, 38, 0
1, 59280, Note_on_c, 9, 42, 96
1, 59290, Note_on_c, 9, 42, 0
1, 59520, Note_on_c, 9, 49, 89
1, 59520, Note_on_c, 9, 36, 100
1, 59530, Note_on_c, 9, 49, 0
1, 59760, Note_on_c, 9, 42, 84
1, 59770, Note_on_c, 9, 42, 0
1, 59999, Note_on_c, 9, 36, 0
1, 60000, Note_on_c, 9, 38, 115
1, 60000, Note_on_c, 9, 42, 78
1, 60007, Note_on_c, 9, 42, 0
1, 60179, Note_on_c, 9, 38, 0
1, 60225, Note_on_c, 9, 42, 89
1, 60225, Note_on_c, 9, 42, 0
1, 60465, Note_on_c, 9, 36, 94
1, 60479, Note_on_c, 9, 36, 0
1, 60480, Note_on_c, 9, 42, 84
1, 60490, Note_on_c, 9, 42, 0
1, 60720, Note_on_c, 9, 42, 80
1, 60730, Note_on_c, 9, 42, 0
1, 60960, Note_on_c, 9, 38, 110
1, 60960, Note_on_c, 9, 44, 81
1, 60967, Note_on_c, 9, 44, 0
1, 61185, Note_on_c, 9, 36, 94
1, 61199, Note_on_c, 9, 38, 0
1, 61199, Note_on_c, 9, 36, 0
1, 61200, Note_on_c, 9, 42, 96
1, 61207, Note_on_c, 9, 42, 0
1, 61410, Note_on_c, 9, 38, 106
1, 61425, Note_on_c, 9, 42, 83
1, 61425, Note_on_c, 9, 42, 0
1, 61439, Note_on_c, 9, 38, 0
1, 61440, Note_on_c, 9, 38, 116
1, 61619, Note_on_c, 9, 38, 0
1, 61665, Note_on_c, 9, 42, 88
1, 61665, Note_on_c, 9, 42, 0
1, 61665, Note_on_c, 9, 36, 95
1, 61679, Note_on_c, 9, 36, 0
1, 61920, Note_on_c, 9, 42, 96
1, 61920, Note_on_c, 9, 36, 105
1, 61927, Note_on_c, 9, 42, 0
1, 62130, Note_on_c, 9, 38, 122
1, 62144, Note_on_c, 9, 38, 0
1, 62145, Note_on_c, 9, 42, 89
1, 62145, Note_on_c, 9, 42, 0
1, 62160, Note_on_c, 9, 38, 121
1, 62399, Note_on_c, 9, 36, 0
1, 62399, Note_on_c, 9, 38, 0
1, 62400, Note_on_c, 9, 42, 92
1, 62400, Note_on_c, 9, 36, 92
1, 62410, Note_on_c, 9, 42, 0
1, 62639, Note_on_c, 9, 36, 0
1, 62640, Note_on_c, 9, 42, 98
1, 62640, Note_on_c, 9, 36, 91
1, 62647, Note_on_c, 9, 42, 0
1, 62850, Note_on_c, 9, 38, 116
1, 62879, Note_on_c, 9, 36, 0
1, 62879, Note_on_c, 9, 38, 0
1, 62880, Note_on_c, 9, 38, 114
1, 62880, Note_on_c, 9, 44, 85
1, 62902, Note_on_c, 9, 44, 0
1, 62939, Note_on_c, 9, 38, 0
1, 62955, Note_on_c, 9, 48, 38
1, 62999, Note_on_c, 9, 48, 0
1, 63030, Note_on_c, 9, 45, 38
1, 63119, Note_on_c, 9, 45, 0
1, 63120, Note_on_c, 9, 38, 52
1, 63120, Note_on_c, 9, 42, 96
1, 63123, Note_on_c, 9, 42, 0
1, 63209, Note_on_c, 9, 38, 0
1, 63210, Note_on_c, 9, 48, 38
1, 63284, Note_on_c, 9, 48, 0
1, 63285, Note_on_c, 9, 41, 38
1, 63299, Note_on_c, 9, 41, 0
1, 63360, Note_on_c, 9, 49, 87
1, 63360, Note_on_c, 9, 36, 92
1, 63382, Note_on_c, 9, 49, 0
1, 63839, Note_on_c, 9, 36, 0
1, 63840, Note_on_c, 9, 38, 120
1, 63840, Note_on_c, 9, 51, 87
1, 63862, Note_on_c, 9, 51, 0
1, 64319, Note_on_c, 9, 38, 0
1, 64320, Note_on_c, 9, 51, 80
1, 64320, Note_on_c, 9, 36, 98
1, 64342, Note_on_c, 9, 51, 0
1, 64799, Note_on_c, 9, 36, 0
1, 64800, Note_on_c, 9, 38, 108
1, 64800, Note_on_c, 9, 51, 89
1, 64822, Note_on_c, 9, 51, 0
1, 65265, Note_on_c, 9, 36, 105
1, 65279, Note_on_c, 9, 38, 0
1, 65279, Note_on_c, 9, 36, 0
1, 65280, Note_on_c, 9, 51, 96
1, 65302, Note_on_c, 9, 51, 0
1, 65760, Note_on_c, 9, 38, 122
1, 65760, Note_on_c, 9, 51, 87
1, 65782, Note_on_c, 9, 51, 0
1, 66225, Note_on_c, 9, 36, 91
1, 66239, Note_on_c, 9, 38, 0
1, 66239, Note_on_c, 9, 36, 0
1, 66240, Note_on_c, 9, 51, 84
1, 66262, Note_on_c, 9, 51, 0
1, 66480, Note_on_c, 9, 36, 95
1, 66719, Note_on_c, 9, 36, 0
1, 66720, Note_on_c, 9, 38, 109
1, 66720, Note_on_c, 9, 51, 93
1, 66742, Note_on_c, 9, 51, 0
1, 67199, Note_on_c, 9, 38, 0
1, 67200, Note_on_c, 9, 49, 96
1, 67200, Note_on_c, 9, 36, 107
1, 67216, Note_on_c, 9, 49, 0
1, 67665, Note_on_c, 9, 38, 114
1, 67679, Note_on_c, 9, 36, 0
1, 67679, Note_on_c, 9, 38, 0
1, 67680, Note_on_c, 9, 51, 97
1, 67702, Note_on_c, 9, 51, 0
1, 68145, Note_on_c, 9, 36, 94
1, 68159, Note_on_c, 9, 36, 0
1, 68160, Note_on_c, 9, 51, 89
1, 68176, Note_on_c, 9, 51, 0
1, 68625, Note_on_c, 9, 51, 81
1, 68625, Note_on_c, 9, 51, 0
1, 68640, Note_on_c, 9, 38, 122
1, 68999, Note_on_c, 9, 38, 0
1, 69105, Note_on_c, 9, 51, 92
1, 69105, Note_on_c, 9, 51, 0
1, 69120, Note_on_c, 9, 36, 107
1, 69585, Note_on_c, 9, 51, 83
1, 69585, Note_on_c, 9, 51, 0
1, 69599, Note_on_c, 9, 36, 0
1, 69600, Note_on_c, 9, 38, 107
1, 70065, Note_on_c, 9, 36, 107
1, 70079, Note_on_c, 9, 38, 0
1, 70079, Note_on_c, 9, 36, 0
1, 70080, Note_on_c, 9, 51, 95
1, 70102, Note_on_c, 9, 51, 0
1, 70320, Note_on_c, 9, 36, 107
1, 70559, Note_on_c, 9, 36, 0
1, 70560, Note_on_c, 9, 38, 115
1, 70560, Note_on_c, 9, 51, 80
1, 70564, Note_on_c, 9, 51, 0
1, 70679, Note_on_c, 9, 38, 0
1, 70680, Note_on_c, 9, 48, 103
1, 70799, Note_on_c, 9, 48, 0
1, 70800, Note_on_c, 9, 45, 91
1, 70979, Note_on_c, 9, 45, 0
1, 71025, Note_on_c, 9, 49, 82
1, 71025, Note_on_c, 9, 49, 0
1, 71040, Note_on_c, 9, 36, 94
1, 71519, Note_on_c, 9, 36, 0
1, 71520, Note_on_c, 9, 38, 110
1, 71520, Note_on_c, 9, 51, 90
1, 71542, Note_on_c, 9, 51, 0
1, 71985, Note_on_c, 9, 36, 107
1, 71999, Note_on_c, 9, 38, 0
1, 71999, Note_on_c, 9, 36, 0
1, 72000, Note_on_c, 9, 51, 95
1, 72016, Note_on_c, 9, 51, 0
1, 72465, Note_on_c, 9, 38, 117
1, 72479, Note_on_c, 9, 38, 0
1, 72480, Note_on_c, 9, 51, 83
1, 72502, Note_on_c, 9, 51, 0
1, 72960, Note_on_c, 9, 51, 95
1, 72960, Note_on_c, 9, 36, 105
1, 72982, Note_on_c, 9, 51, 0
1, 73439, Note_on_c, 9, 36, 0
1, 73440, Note_on_c, 9, 38, 114
1, 73440, Note_on_c, 9, 51, 83
1, 73462, Note_on_c, 9, 51, 0
1, 73905, Note_on_c, 9, 36, 92
1, 73919, Note_on_c, 9, 38, 0
1, 73919, Note_on_c, 9, 36, 0
1, 73920, Note_on_c, 9, 51, 90
1, 73942, Note_on_c, 9, 51, 0
1, 74160, Note_on_c, 9, 36, 101
1, 74399, Note_on_c, 9, 36, 0
1, 74400, Note_on_c, 9, 38, 118
1, 74400, Note_on_c, 9, 51, 95
1, 74403, Note_on_c, 9, 51, 0
1, 74489, Note_on_c, 9, 38, 0
1, 74490, Note_on_c, 9, 48, 100
1, 74519, Note_on_c, 9, 48, 0
1, 74520, Note_on_c, 9, 45, 107
1, 74639, Note_on_c, 9, 45, 0
1, 74640, Note_on_c, 9, 41, 106
1, 74865, Note_on_c, 9, 36, 104
1, 74879, Note_on_c, 9, 41, 0
1, 74879, Note_on_c, 9, 36, 0
1, 74880, Note_on_c, 9, 51, 84
1, 74902, Note_on_c, 9, 51, 0
1, 75360, Note_on_c, 9, 38, 119
1, 75360, Note_on_c, 9, 51, 83
1, 75382, Note_on_c, 9, 51, 0
1, 75839, Note_on_c, 9, 38, 0
1, 75840, Note_on_c, 9, 51, 93
1, 75840, Note_on_c, 9, 36, 92
1, 75856, Note_on_c, 9, 51, 0
1, 76079, Note_on_c, 9, 36, 0
1, 76080, Note_on_c, 9, 36, 105
1, 76305, Note_on_c, 9, 38, 109
1, 76319, Note_on_c, 9, 36, 0
1, 76319, Note_on_c, 9, 38, 0
1, 76320, Note_on_c, 9, 51, 88
1, 76336, Note_on_c, 9, 51, 0
1, 76770, Note_on_c, 9, 38, 113
1, 76799, Note_on_c, 9, 38, 0
1, 76800, Note_on_c, 9, 38, 109
1, 76800, Note_on_c, 9, 36, 104
1, 76819, Note_on_c, 9, 38, 0
1, 76820, Note_on_c, 9, 51, 78
1, 76820, Note_on_c, 9, 51, 0
1, 77039, Note_on_c, 9, 36, 0
1, 77115, Note_on_c, 9, 38, 108
1, 77115, Note_on_c, 9, 36, 94
1, 77159, Note_on_c, 9, 38, 0
1, 77159, Note_on_c, 9, 36, 0
1, 77440, Note_on_c, 9, 36, 103
1, 77445, Note_on_c, 9, 38, 115
1, 77459, Note_on_c, 9, 36, 0
1, 77459, Note_on_c, 9, 38, 0
1, 77745, Note_on_c, 9, 36, 92
1, 77759, Note_on_c, 9, 36, 0
1, 77760, Note_on_c, 9, 38, 122
1, 78119, Note_on_c, 9, 38, 0
1, 78200, Note_on_c, 9, 38, 107
1, 78239, Note_on_c, 9, 38, 0
1, 78240, Note_on_c, 9, 51, 79
1, 78240, Note_on_c, 9, 51, 0
1, 78240, Note_on_c, 9, 36, 106
1, 78255, Note_on_c, 9, 38, 116
1, 78674, Note_on_c, 9, 38, 0
1, 78705, Note_on_c, 9, 49, 117
1, 78705, Note_on_c, 9, 49, 0
1, 78719, Note_on_c, 9, 36, 0
1, 78720, Note_on_c, 9, 36, 99
1, 79185, Note_on_c, 9, 38, 119
1, 79199, Note_on_c, 9, 36, 0
1, 79199, Note_on_c, 9, 38, 0
1, 79200, Note_on_c, 9, 51, 86
1, 79222, Note_on_c, 9, 51, 0
1, 79440, Note_on_c, 9, 36, 104
1, 79679, Note_on_c, 9, 36, 0
1, 79680, Note_on_c, 9, 51, 90
1, 79702, Note_on_c, 9, 51, 0
1, 80160, Note_on_c, 9, 38, 105
1, 80160, Note_on_c, 9, 51, 95
1, 80176, Note_on_c, 9, 51, 0
1, 80400, Note_on_c, 9, 36, 104
1, 80519, Note_on_c, 9, 38, 0
1, 80579, Note_on_c, 9, 36, 0
1, 80625, Note_on_c, 9, 51, 92
1, 80625, Note_on_c, 9, 51, 0
1, 80625, Note_on_c, 9, 36, 106
1, 80639, Note_on_c, 9, 36, 0
1, 81120, Note_on_c, 9, 38, 117
1, 81120, Note_on_c, 9, 51, 79
1, 81136, Note_on_c, 9, 51, 0
1, 81479, Note_on_c, 9, 38, 0
1, 81585, Note_on_c, 9, 51, 92
1, 81585, Note_on_c, 9, 51, 0
1, 81600, Note_on_c, 9, 36, 100
1, 81839, Note_on_c, 9, 36, 0
1, 81840, Note_on_c, 9, 36, 98
1, 82079, Note_on_c, 9, 36, 0
1, 82080, Note_on_c, 9, 38, 105
1, 82080, Note_on_c, 9, 51, 79
1, 82102, Note_on_c, 9, 51, 0
1, 82545, Note_on_c, 9, 36, 108
1, 82559, Note_on_c, 9, 38, 0
1, 82559, Note_on_c, 9, 36, 0
1, 82560, Note_on_c, 9, 49, 88
1, 82576, Note_on_c, 9, 49, 0
1, 83025, Note_on_c, 9, 38, 120
1, 83039, Note_on_c, 9, 38, 0
1, 83040, Note_on_c, 9, 51, 98
1, 83050, Note_on_c, 9, 51, 0
1, 83280, Note_on_c, 9, 49, 80
1, 83280, Note_on_c, 9, 36, 100
1, 83290, Note_on_c, 9, 49, 0
1, 83519, Note_on_c, 9, 36, 0
1, 83520, Note_on_c, 9, 51, 90
1, 83542, Note_on_c, 9, 51, 0
1, 84000, Note_on_c, 9, 38, 115
1, 84000, Note_on_c, 9, 51, 90
1, 84022, Note_on_c, 9, 51, 0
1, 84240, Note_on_c, 9, 36, 95
1, 84419, Note_on_c, 9, 36, 0
1, 84465, Note_on_c, 9, 36, 108
1, 84479, Note_on_c, 9, 38, 0
1, 84479, Note_on_c, 9, 36, 0
1, 84480, Note_on_c, 9, 51, 89
1, 84502, Note_on_c, 9, 51, 0
1, 84960, Note_on_c, 9, 38, 118
1, 84960, Note_on_c, 9, 51, 90
1, 84982, Note_on_c, 9, 51, 0
1, 85439, Note_on_c, 9, 38, 0
1, 85440, Note_on_c, 9, 51, 93
1, 85440, Note_on_c, 9, 36, 95
1, 85456, Note_on_c, 9, 51, 0
1, 85679, Note_on_c, 9, 36, 0
1, 85680, Note_on_c, 9, 36, 109
1, 85905, Note_on_c, 9, 38, 110
1, 85919, Note_on_c, 9, 36, 0
1, 85919, Note_on_c, 9, 38, 0
1, 85920, Note_on_c, 9, 51, 84
1, 85942, Note_on_c, 9, 51, 0
1, 86400, Note_on_c, 9, 49, 78
1, 86400, Note_on_c, 9, 36, 92
1, 86416, Note_on_c, 9, 49, 0
1, 86865, Note_on_c, 9, 38, 107
1, 86879, Note_on_c, 9, 36, 0
1, 86879, Note_on_c, 9, 38, 0
1, 86880, Note_on_c, 9, 51, 83
1, 86887, Note_on_c, 9, 51, 0
1, 87105, Note_on_c, 9, 49, 84
1, 87105, Note_on_c, 9, 49, 0
1, 87120, Note_on_c, 9, 36, 91
1, 87359, Note_on_c, 9, 36, 0
1, 87360, Note_on_c, 9, 51, 93
1, 87382, Note_on_c, 9, 51, 0
1, 87840, Note_on_c, 9, 38, 120
1, 87840, Note_on_c, 9, 51, 98
1, 87856, Note_on_c, 9, 51, 0
1, 88080, Note_on_c, 9, 36, 94
1, 88199, Note_on_c, 9, 38, 0
1, 88305, Note_on_c, 9, 51, 96
1, 88305, Note_on_c, 9, 51, 0
1, 88319, Note_on_c, 9, 36, 0
1, 88320, Note_on_c, 9, 36, 92
1, 88785, Note_on_c, 9, 38, 116
1, 88799, Note_on_c, 9, 36, 0
1, 88799, Note_on_c, 9, 38, 0
1, 88800, Note_on_c, 9, 51, 92
1, 88822, Note_on_c, 9, 51, 0
1, 89265, Note_on_c, 9, 36, 92
1, 89279, Note_on_c, 9, 36, 0
1, 89280, Note_on_c, 9, 51, 83
1, 89302, Note_on_c, 9, 51, 0
1, 89505, Note_on_c, 9, 36, 94
1, 89519, Note_on_c, 9, 36, 0
1, 89760, Note_on_c, 9, 38, 109
1, 89760, Note_on_c, 9, 51, 86
1, 89782, Note_on_c, 9, 51, 0
1, 90239, Note_on_c, 9, 38, 0
1, 90240, Note_on_c, 9, 49, 92
1, 90240, Note_on_c, 9, 36, 103
1, 90262, Note_on_c, 9, 49, 0
1, 90719, Note_on_c, 9, 36, 0
1, 90720, Note_on_c, 9, 38, 105
1, 90739, Note_on_c, 9, 38, 0
1, 90740, Note_on_c, 9, 51, 93
1, 90740, Note_on_c, 9, 51, 0
1, 90960, Note_on_c, 9, 49, 96
1, 90960, Note_on_c, 9, 36, 101
1, 90970, Note_on_c, 9, 49, 0
1, 91199, Note_on_c, 9, 36, 0
1, 91200, Note_on_c, 9, 51, 98
1, 91222, Note_on_c, 9, 51, 0
1, 91440, Note_on_c, 9, 36, 98
1, 91679, Note_on_c, 9, 36, 0
1, 91680, Note_on_c, 9, 38, 115
1, 91680, Note_on_c, 9, 51, 85
1, 91702, Note_on_c, 9, 51, 0
1, 92159, Note_on_c, 9, 38, 0
1, 92160, Note_on_c, 9, 36, 91
1, 92639, Note_on_c, 9, 36, 0
1, 92640, Note_on_c, 9, 38, 115
1, 93119, Note_on_c, 9, 38, 0
1, 93120, Note_on_c, 9, 36, 103
1, 93585, Note_on_c, 9, 38, 107
1, 93599, Note_on_c, 9, 36, 0
1, 93599, Note_on_c, 9, 38, 0
1, 93680, Note_on_c, 9, 48, 93
1, 93719, Note_on_c, 9, 48, 0
1, 93760, Note_on_c, 9, 45, 102
1, 93779, Note_on_c, 9, 45, 0
1, 93840, Note_on_c, 9, 41, 106
1, 94019, Note_on_c, 9, 41, 0
1, 94065, Note_on_c, 9, 49, 94
1, 94065, Note_on_c, 9, 49, 0
1, 94080, Note_on_c, 9, 36, 103
1, 94559, Note_on_c, 9, 36, 0
1, 94560, Note_on_c, 9, 38, 120
1, 94579, Note_on_c, 9, 38, 0
1, 94580, Note_on_c, 9, 42, 78
1, 94580, Note_on_c, 9, 42, 0
1, 94800, Note_on_c, 9, 42, 94
1, 94807, Note_on_c, 9, 42, 0
1, 95025, Note_on_c, 9, 42, 80
1, 95025, Note_on_c, 9, 42, 0
1, 95040, Note_on_c, 9, 36, 108
1, 95280, Note_on_c, 9, 42, 91
1, 95287, Note_on_c, 9, 42, 0
1, 95505, Note_on_c, 9, 38, 107
1, 95519, Note_on_c, 9, 36, 0
1, 95519, Note_on_c, 9, 38, 0
1, 95520, Note_on_c, 9, 44, 93
1, 95530, Note_on_c, 9, 44, 0
1, 95760, Note_on_c, 9, 42, 86
1, 95760, Note_on_c, 9, 36, 91
1, 95767, Note_on_c, 9, 42, 0
1, 95985, Note_on_c, 9, 46, 93
1, 95985, Note_on_c, 9, 46, 0
1, 95999, Note_on_c, 9, 36, 0
1, 96000, Note_on_c, 9, 36, 91
1, 96240, Note_on_c, 9, 42, 91
1, 96250, Note_on_c, 9, 42, 0
1, 96479, Note_on_c, 9, 36, 0
1, 96480, Note_on_c, 9, 38, 106
1, 96480, Note_on_c, 9, 42, 87
1, 96490, Note_on_c, 9, 42, 0
1, 96719, Note_on_c, 9, 38, 0
1, 96720, Note_on_c, 9, 42, 97
1, 96730, Note_on_c, 9, 42, 0
1, 96960, Note_on_c, 9, 42, 86
1, 96960, Note_on_c, 9, 36, 96
1, 96967, Note_on_c, 9, 42, 0
1, 97185, Note_on_c, 9, 38, 87
1, 97199, Note_on_c, 9, 38, 0
1, 97200, Note_on_c, 9, 42, 93
1, 97207, Note_on_c, 9, 42, 0
1, 97425, Note_on_c, 9, 38, 87
1, 97439, Note_on_c, 9, 36, 0
1, 97439, Note_on_c, 9, 38, 0
1, 97440, Note_on_c, 9, 44, 80
1, 97462, Note_on_c, 9, 44, 0
1, 97560, Note_on_c, 9, 38, 87
1, 97619, Note_on_c, 9, 38, 0
1, 97665, Note_on_c, 9, 38, 87
1, 97679, Note_on_c, 9, 38, 0
1, 97680, Note_on_c, 9, 42, 98
1, 97687, Note_on_c, 9, 42, 0
1, 97905, Note_on_c, 9, 49, 112
1, 97905, Note_on_c, 9, 49, 0
1, 97920, Note_on_c, 9, 36, 101
1, 98385, Note_on_c, 9, 38, 109
1, 98385, Note_on_c, 9, 42, 95
1, 98385, Note_on_c, 9, 42, 0
1, 98399, Note_on_c, 9, 36, 0
1, 98399, Note_on_c, 9, 38, 0
1, 98640, Note_on_c, 9, 42, 80
1, 98650, Note_on_c, 9, 42, 0
1, 98880, Note_on_c, 9, 42, 82
1, 98880, Note_on_c, 9, 36, 92
1, 98890, Note_on_c, 9, 42, 0
1, 99120, Note_on_c, 9, 42, 91
1, 99130, Note_on_c, 9, 42, 0
1, 99359, Note_on_c, 9, 36, 0
1, 99360, Note_on_c, 9, 38, 113
1, 99360, Note_on_c, 9, 44, 83
1, 99370, Note_on_c, 9, 44, 0
1, 99599, Note_on_c, 9, 38, 0
1, 99600, Note_on_c, 9, 42, 94
1, 99600, Note_on_c, 9, 36, 93
1, 99610, Note_on_c, 9, 42, 0
1, 99779, Note_on_c, 9, 36, 0
1, 99825, Note_on_c, 9, 36, 98
1, 99839, Note_on_c, 9, 36, 0
1, 99840, Note_on_c, 9, 46, 93
1, 99850, Note_on_c, 9, 46, 0
1, 100080, Note_on_c, 9, 42, 87
1, 100090, Note_on_c, 9, 42, 0
1, 100320, Note_on_c, 9, 38, 116
1, 100320, Note_on_c, 9, 42, 85
1, 100327, Note_on_c, 9, 42, 0
1, 100499, Note_on_c, 9, 38, 0
1, 100545, Note_on_c, 9, 42, 98
1, 100545, Note_on_c, 9, 42, 0
1, 100800, Note_on_c, 9, 42, 80
1, 100800, Note_on_c, 9, 36, 97
1, 100807, Note_on_c, 9, 42, 0
1, 101025, Note_on_c, 9, 42, 90
1, 101025, Note_on_c, 9, 42, 0
1, 101279, Note_on_c, 9, 36, 0
1, 101280, Note_on_c, 9, 38, 105
1, 101280, Note_on_c, 9, 44, 86
1, 101302, Note_on_c, 9, 44, 0
1, 101519, Note_on_c, 9, 38, 0
1, 101520, Note_on_c, 9, 42, 89
1, 101530, Note_on_c, 9, 42, 0
1, 101760, Note_on_c, 9, 49, 85
1, 101760, Note_on_c, 9, 36, 91
1, 101770, Note_on_c, 9, 49, 0
1, 102000, Note_on_c, 9, 42, 90
1, 102007, Note_on_c, 9, 42, 0
1, 102225, Note_on_c, 9, 42, 78
1, 102225, Note_on_c, 9, 42, 0
1, 102239, Note_on_c, 9, 36, 0
1, 102240, Note_on_c, 9, 38, 119
1, 102479, Note_on_c, 9, 38, 0
1, 102480, Note_on_c, 9, 42, 96
1, 102487, Note_on_c, 9, 42, 0
1, 102705, Note_on_c, 9, 42, 97
1, 102705, Note_on_c, 9, 42, 0
1, 102705, Note_on_c, 9, 36, 95
1, 102719, Note_on_c, 9, 36, 0
1, 102960, Note_on_c, 9, 42, 89
1, 102970, Note_on_c, 9, 42, 0
1, 103200, Note_on_c, 9, 38, 108
1, 103200, Note_on_c, 9, 44, 90
1, 103210, Note_on_c, 9, 44, 0
1, 103439, Note_on_c, 9, 38, 0
1, 103440, Note_on_c, 9, 42, 94
1, 103440, Note_on_c, 9, 36, 91
1, 103450, Note_on_c, 9, 42, 0
1, 103679, Note_on_c, 9, 36, 0
1, 103680, Note_on_c, 9, 42, 93
1, 103680, Note_on_c, 9, 36, 92
1, 103690, Note_on_c, 9, 42, 0
1, 103920, Note_on_c, 9, 42, 80
1, 103927, Note_on_c, 9, 42, 0
1, 104145, Note_on_c, 9, 38, 121
1, 104159, Note_on_c, 9, 36, 0
1, 104159, Note_on_c, 9, 38, 0
1, 104160, Note_on_c, 9, 42, 92
1, 104170, Note_on_c, 9, 42, 0
1, 104400, Note_on_c, 9, 42, 90
1, 104410, Note_on_c, 9, 42, 0
1, 104640, Note_on_c, 9, 42, 83
1, 104640, Note_on_c, 9, 36, 106
1, 104650, Note_on_c, 9, 42, 0
1, 104880, Note_on_c, 9, 42, 84
1, 104887, Note_on_c, 9, 42, 0
1, 105105, Note_on_c, 9, 38, 121
1, 105119, Note_on_c, 9, 36, 0
1, 105119, Note_on_c, 9, 38, 0
1, 105120, Note_on_c, 9, 44, 90
1, 105142, Note_on_c, 9, 44, 0
1, 105345, Note_on_c, 9, 42, 82
1, 105345, Note_on_c, 9, 42, 0
1, 105600, Note_on_c, 9, 49, 89
1, 105600, Note_on_c, 9, 36, 104
1, 105616, Note_on_c, 9, 49, 0
1, 106065, Note_on_c, 9, 38, 112
1, 106079, Note_on_c, 9, 36, 0
1, 106079, Note_on_c, 9, 38, 0
1, 106080, Note_on_c, 9, 42, 94
1, 106090, Note_on_c, 9, 42, 0
1, 106320, Note_on_c, 9, 42, 98
1, 106330, Note_on_c, 9, 42, 0
1, 106560, Note_on_c, 9, 42, 97
1, 106560, Note_on_c, 9, 36, 108
1, 106570, Note_on_c, 9, 42, 0
1, 106800, Note_on_c, 9, 42, 78
1, 106810, Note_on_c, 9, 42, 0
1, 107039, Note_on_c, 9, 36, 0
1, 107040, Note_on_c, 9, 38, 116
1, 107040, Note_on_c, 9, 44, 90
1, 107050, Note_on_c, 9, 44, 0
1, 107219, Note_on_c, 9, 38, 0
1, 107265, Note_on_c, 9, 42, 80
1, 107265, Note_on_c, 9, 42, 0
1, 107280, Note_on_c, 9, 36, 95
1, 107519, Note_on_c, 9, 36, 0
1, 107520, Note_on_c, 9, 46, 90
1, 107520, Note_on_c, 9, 36, 101
1, 107530, Note_on_c, 9, 46, 0
1, 107760, Note_on_c, 9, 42, 91
1, 107767, Note_on_c, 9, 42, 0
1, 107985, Note_on_c, 9, 38, 118
1, 107999, Note_on_c, 9, 36, 0
1, 107999, Note_on_c, 9, 38, 0
1, 108000, Note_on_c, 9, 42, 85
1, 108010, Note_on_c, 9, 42, 0
1, 108240, Note_on_c, 9, 42, 93
1, 108247, Note_on_c, 9, 42, 0
1, 108465, Note_on_c, 9, 42, 90
1, 108465, Note_on_c, 9, 42, 0
1, 108480, Note_on_c, 9, 36, 103
1, 108720, Note_on_c, 9, 42, 96
1, 108730, Note_on_c, 9, 42, 0
1, 108959, Note_on_c, 9, 36, 0
1, 108960, Note_on_c, 9, 38, 117
1, 108960, Note_on_c, 9, 44, 80
1, 108982, Note_on_c, 9, 44, 0
1, 109199, Note_on_c, 9, 38, 0
1, 109200, Note_on_c, 9, 42, 98
1, 109210, Note_on_c, 9, 42, 0
1, 109440, Note_on_c, 9, 49, 92
1, 109440, Note_on_c, 9, 36, 101
1, 109450, Note_on_c, 9, 49, 0
1, 109680, Note_on_c, 9, 42, 93
1, 109690, Note_on_c, 9, 42, 0
1, 109919, Note_on_c, 9, 36, 0
1, 109920, Note_on_c, 9, 38, 107
1, 109920, Note_on_c, 9, 42, 89
1, 109930, Note_on_c, 9, 42, 0
1, 110159, Note_on_c, 9, 38, 0
1, 110160, Note_on_c, 9, 42, 91
1, 110170, Note_on_c, 9, 42, 0
1, 110400, Note_on_c, 9, 42, 84
1, 110400, Note_on_c, 9, 36, 109
1, 110410, Note_on_c, 9, 42, 0
1, 110640, Note_on_c, 9, 42, 91
1, 110650, Note_on_c, 9, 42, 0
1, 110879, Note_on_c, 9, 36, 0
1, 110880, Note_on_c, 9, 38, 118
1, 110880, Note_on_c, 9, 44, 93
1, 110887, Note_on_c, 9, 44, 0
1, 111105, Note_on_c, 9, 36, 94
1, 111119, Note_on_c, 9, 38, 0
1, 111119, Note_on_c, 9, 36, 0
1, 111120, Note_on_c, 9, 42, 96
1, 111127, Note_on_c, 9, 42, 0
1, 111345, Note_on_c, 9, 38, 114
1, 111359, Note_on_c, 9, 38, 0
1, 111360, Note_on_c, 9, 38, 105
1, 111360, Note_on_c, 9, 42, 83
1, 111370, Note_on_c, 9, 42, 0
1, 111599, Note_on_c, 9, 38, 0
1, 111600, Note_on_c, 9, 42, 89
1, 111600, Note_on_c, 9, 36, 99
1, 111610, Note_on_c, 9, 42, 0
1, 111779, Note_on_c, 9, 36, 0
1, 111825, Note_on_c, 9, 36, 101
1, 111839, Note_on_c, 9, 36, 0
1, 111840, Note_on_c, 9, 42, 81
1, 111847, Note_on_c, 9, 42, 0
1, 112050, Note_on_c, 9, 38, 115
1, 112079, Note_on_c, 9, 38, 0
1, 112080, Note_on_c, 9, 38, 120
1, 112080, Note_on_c, 9, 42, 87
1, 112090, Note_on_c, 9, 42, 0
1, 112305, Note_on_c, 9, 36, 98
1, 112319, Note_on_c, 9, 38, 0
1, 112319, Note_on_c, 9, 36, 0
1, 112320, Note_on_c, 9, 42, 97
1, 112330, Note_on_c, 9, 42, 0
1, 112560, Note_on_c, 9, 42, 98
1, 112560, Note_on_c, 9, 36, 100
1, 112570, Note_on_c, 9, 42, 0
1, 112799, Note_on_c, 9, 36, 0
1, 112800, Note_on_c, 9, 38, 119
1, 112800, Note_on_c, 9, 44, 79
1, 112822, Note_on_c, 9, 44, 0
1, 113039, Note_on_c, 9, 38, 0
1, 113040, Note_on_c, 9, 42, 90
1, 113050, Note_on_c, 9, 42, 0
1, 113280, Note_on_c, 9, 49, 79
1, 113280, Note_on_c, 9, 36, 104
1, 113302, Note_on_c, 9, 49, 0
1, 113759, Note_on_c, 9, 36, 0
1, 113760, Note_on_c, 9, 38, 107
1, 113760, Note_on_c, 9, 42, 96
1, 113767, Note_on_c, 9, 42, 0
1, 113939, Note_on_c, 9, 38, 0
1, 113985, Note_on_c, 9, 42, 97
1, 113985, Note_on_c, 9, 42, 0
1, 114240, Note_on_c, 9, 42, 99
1, 114240, Note_on_c, 9, 36, 91
1, 114250, Note_on_c, 9, 42, 0
1, 114480, Note_on_c, 9, 42, 79
1, 114490, Note_on_c, 9, 42, 0
1, 114719, Note_on_c, 9, 36, 0
1, 114720, Note_on_c, 9, 38, 121
1, 114720, Note_on_c, 9, 44, 92
1, 114730, Note_on_c, 9, 44, 0
1, 114959, Note_on_c, 9, 38, 0
1, 114960, Note_on_c, 9, 42, 97
1, 114960, Note_on_c, 9, 36, 91
1, 114970, Note_on_c, 9, 42, 0
1, 115199, Note_on_c, 9, 36, 0
1, 115200, Note_on_c, 9, 46, 96
1, 115200, Note_on_c, 9, 36, 95
1, 115210, Note_on_c, 9, 46, 0
1, 115440, Note_on_c, 9, 42, 94
1, 115450, Note_on_c, 9, 42, 0
1, 115679, Note_on_c, 9, 36, 0
1, 115680, Note_on_c, 9, 38, 113
1, 115680, Note_on_c, 9, 42, 86
1, 115690, Note_on_c, 9, 42, 0
1, 115919, Note_on_c, 9, 38, 0
1, 115920, Note_on_c, 9, 42, 90
1, 115930, Note_on_c, 9, 42, 0
1, 116160, Note_on_c, 9, 42, 98
1, 116160, Note_on_c, 9, 36, 103
1, 116170, Note_on_c, 9, 42, 0
1, 116400, Note_on_c, 9, 42, 90
1, 116407, Note_on_c, 9, 42, 0
1, 116625, Note_on_c, 9, 38, 110
1, 116639, Note_on_c, 9, 36, 0
1, 116639, Note_on_c, 9, 38, 0
1, 116640, Note_on_c, 9, 44, 89
1, 116662, Note_on_c, 9, 44, 0
1, 116880, Note_on_c, 9, 42, 79
1, 116890, Note_on_c, 9, 42, 0
1, 117120, Note_on_c, 9, 49, 87
1, 117120, Note_on_c, 9, 36, 91
1, 117130, Note_on_c, 9, 49, 0
1, 117360, Note_on_c, 9, 42, 83
1, 117370, Note_on_c, 9, 42, 0
1, 117599, Note_on_c, 9, 36, 0
1, 117600, Note_on_c, 9, 38, 106
1, 117600, Note_on_c, 9, 42, 98
1, 117607, Note_on_c, 9, 42, 0
1, 117779, Note_on_c, 9, 38, 0
1, 117825, Note_on_c, 9, 42, 97
1, 117825, Note_on_c, 9, 42, 0
1, 118080, Note_on_c, 9, 42, 79
1, 118080, Note_on_c, 9, 36, 91
1, 118090, Note_on_c, 9, 42, 0
1, 118320, Note_on_c, 9, 42, 81
1, 118327, Note_on_c, 9, 42, 0
1, 118439, Note_on_c, 9, 36, 0
1, 118545, Note_on_c, 9, 38, 108
1, 118545, Note_on_c, 9, 44, 82
1, 118545, Note_on_c, 9, 44, 0
1, 118559, Note_on_c, 9, 38, 0
1, 118785, Note_on_c, 9, 42, 82
1, 118785, Note_on_c, 9, 42, 0
1, 118800, Note_on_c, 9, 36, 93
1, 118979, Note_on_c, 9, 36, 0
1, 119025, Note_on_c, 9, 36, 95
1, 119039, Note_on_c, 9, 36, 0
1, 119040, Note_on_c, 9, 42, 79
1, 119050, Note_on_c, 9, 42, 0
1, 119280, Note_on_c, 9, 42, 81
1, 119287, Note_on_c, 9, 42, 0
1, 119505, Note_on_c, 9, 38, 112
1, 119519, Note_on_c, 9, 38, 0
1, 119520, Note_on_c, 9, 42, 83
1, 119530, Note_on_c, 9, 42, 0
1, 119760, Note_on_c, 9, 42, 91
1, 119770, Note_on_c, 9, 42, 0
1, 120000, Note_on_c, 9, 42, 80
1, 120000, Note_on_c, 9, 36, 106
1, 120010, Note_on_c, 9, 42, 0
1, 120240, Note_on_c, 9, 42, 90
1, 120250, Note_on_c, 9, 42, 0
1, 120479, Note_on_c, 9, 36, 0
1, 120480, Note_on_c, 9, 38, 121
1, 120480, Note_on_c, 9, 44, 89
1, 120502, Note_on_c, 9, 44, 0
1, 120719, Note_on_c, 9, 38, 0
1, 120720, Note_on_c, 9, 42, 81
1, 120730, Note_on_c, 9, 42, 0
1, 120960, Note_on_c, 9, 49, 88
1, 120960, Note_on_c, 9, 36, 103
1, 120976, Note_on_c, 9, 49, 0
1, 121425, Note_on_c, 9, 38, 120
1, 121439, Note_on_c, 9, 36, 0
1, 121439, Note_on_c, 9, 38, 0
1, 121440, Note_on_c, 9, 42, 84
1, 121450, Note_on_c, 9, 42, 0
1, 121680, Note_on_c, 9, 42, 78
1, 121687, Note_on_c, 9, 42, 0
1, 121905, Note_on_c, 9, 42, 88
1, 121905, Note_on_c, 9, 42, 0
1, 121920, Note_on_c, 9, 36, 106
1, 122160, Note_on_c, 9, 42, 96
1, 122170, Note_on_c, 9, 42, 0
1, 122279, Note_on_c, 9, 36, 0
1, 122385, Note_on_c, 9, 44, 90
1, 122385, Note_on_c, 9, 44, 0
1, 122400, Note_on_c, 9, 38, 105
1, 122639, Note_on_c, 9, 38, 0
1, 122640, Note_on_c, 9, 42, 82
1, 122640, Note_on_c, 9, 36, 105
1, 122650, Note_on_c, 9, 42, 0
1, 122879, Note_on_c, 9, 36, 0
1, 122880, Note_on_c, 9, 46, 91
1, 122880, Note_on_c, 9, 36, 104
1, 122890, Note_on_c, 9, 46, 0
1, 123120, Note_on_c, 9, 42, 88
1, 123127, Note_on_c, 9, 42, 0
1, 123345, Note_on_c, 9, 42, 86
1, 123345, Note_on_c, 9, 42, 0
1, 123359, Note_on_c, 9, 36, 0
1, 123360, Note_on_c, 9, 38, 108
1, 123539, Note_on_c, 9, 38, 0
1, 123585, Note_on_c, 9, 42, 79
1, 123585, Note_on_c, 9, 42, 0
1, 123840, Note_on_c, 9, 42, 83
1, 123840, Note_on_c, 9, 36, 102
1, 123847, Note_on_c, 9, 42, 0
1, 124065, Note_on_c, 9, 42, 79
1, 124065, Note_on_c, 9, 42, 0
1, 124199, Note_on_c, 9, 36, 0
1, 124305, Note_on_c, 9, 44, 98
1, 124305, Note_on_c, 9, 44, 0
1, 124320, Note_on_c, 9, 38, 113
1, 124559, Note_on_c, 9, 38, 0
1, 124560, Note_on_c, 9, 42, 78
1, 124567, Note_on_c, 9, 42, 0
1, 124785, Note_on_c, 9, 49, 85
1, 124785, Note_on_c, 9, 49, 0
1, 124800, Note_on_c, 9, 36, 93
1, 125040, Note_on_c, 9, 42, 94
1, 125047, Note_on_c, 9, 42, 0
1, 125265, Note_on_c, 9, 38, 115
1, 125279, Note_on_c, 9, 36, 0
1, 125279, Note_on_c, 9, 38, 0
1, 125280, Note_on_c, 9, 42, 81
1, 125290, Note_on_c, 9, 42, 0
1, 125520, Note_on_c, 9, 42, 79
1, 125530, Note_on_c, 9, 42, 0
1, 125760, Note_on_c, 9, 42, 91
1, 125760, Note_on_c, 9, 36, 100
1, 125770, Note_on_c, 9, 42, 0
1, 126000, Note_on_c, 9, 42, 86
1, 126007, Note_on_c, 9, 42, 0
1, 126225, Note_on_c, 9, 38, 122
1, 126239, Note_on_c, 9, 36, 0
1, 126239, Note_on_c, 9, 38, 0
1, 126240, Note_on_c, 9, 44, 86
1, 126250, Note_on_c, 9, 44, 0
1, 126480, Note_on_c, 9, 42, 92
1, 126480, Note_on_c, 9, 36, 99
1, 126487, Note_on_c, 9, 42, 0
1, 126690, Note_on_c, 9, 38, 106
1, 126704, Note_on_c, 9, 38, 0
1, 126705, Note_on_c, 9, 38, 121
1, 126719, Note_on_c, 9, 36, 0
1, 126719, Note_on_c, 9, 38, 0
1, 126720, Note_on_c, 9, 42, 80
1, 126730, Note_on_c, 9, 42, 0
1, 126960, Note_on_c, 9, 42, 80
1, 126960, Note_on_c, 9, 36, 94
1, 126970, Note_on_c, 9, 42, 0
1, 127139, Note_on_c, 9, 36, 0
1, 127185, Note_on_c, 9, 36, 103
1, 127199, Note_on_c, 9, 36, 0
1, 127200, Note_on_c, 9, 42, 87
1, 127210, Note_on_c, 9, 42, 0
1, 127440, Note_on_c, 9, 38, 113
1, 127440, Note_on_c, 9, 42, 95
1, 127450, Note_on_c, 9, 42, 0
1, 127679, Note_on_c, 9, 38, 0
1, 127680, Note_on_c, 9, 42, 87
1, 127680, Note_on_c, 9, 36, 99
1, 127690, Note_on_c, 9, 42, 0
1, 127859, Note_on_c, 9, 36, 0
1, 127905, Note_on_c, 9, 36, 96
1, 127919, Note_on_c, 9, 36, 0
1, 127920, Note_on_c, 9, 42, 92
1, 127927, Note_on_c, 9, 42, 0
1, 128130, Note_on_c, 9, 38, 109
1, 128159, Note_on_c, 9, 38, 0
1, 128160, Note_on_c, 9, 38, 113
1, 128160, Note_on_c, 9, 44, 92
1, 128182, Note_on_c, 9, 44, 0
1, 128239, Note_on_c, 9, 38, 0
1, 128240, Note_on_c, 9, 48, 38
1, 128279, Note_on_c, 9, 48, 0
1, 128325, Note_on_c, 9, 45, 38
1, 128339, Note_on_c, 9, 45, 0
1, 128400, Note_on_c, 9, 38, 52
1, 128400, Note_on_c, 9, 42, 98
1, 128401, Note_on_c, 9, 42, 0
1, 128459, Note_on_c, 9, 38, 0
1, 128475, Note_on_c, 9, 48, 38
1, 128519, Note_on_c, 9, 48, 0
1, 128520, Note_on_c, 9, 41, 38
1, 128639, Note_on_c, 9, 41, 0
1, 128640, Note_on_c, 9, 49, 92
1, 128640, Note_on_c, 9, 36, 103
1, 128662, Note_on_c, 9, 49, 0
1, 129119, Note_on_c, 9, 36, 0
1, 129120, Note_on_c, 9, 38, 115
1, 129120, Note_on_c, 9, 51, 83
1, 129142, Note_on_c, 9, 51, 0
1, 129599, Note_on_c, 9, 38, 0
1, 129600, Note_on_c, 9, 51, 97
1, 129600, Note_on_c, 9, 36, 102
1, 129622, Note_on_c, 9, 51, 0
1, 130079, Note_on_c, 9, 36, 0
1, 130080, Note_on_c, 9, 51, 79
1, 130080, Note_on_c, 9, 51, 0
1, 130100, Note_on_c, 9, 38, 106
1, 130139, Note_on_c, 9, 38, 0
1, 130545, Note_on_c, 9, 36, 91
1, 130559, Note_on_c, 9, 36, 0
1, 130560, Note_on_c, 9, 51, 86
1, 130582, Note_on_c, 9, 51, 0
1, 131040, Note_on_c, 9, 51, 91
1, 131040, Note_on_c, 9, 51, 0
1, 131055, Note_on_c, 9, 38, 112
1, 131474, Note_on_c, 9, 38, 0
1, 131505, Note_on_c, 9, 51, 88
1, 131505, Note_on_c, 9, 51, 0
1, 131505, Note_on_c, 9, 36, 92
1, 131519, Note_on_c, 9, 36, 0
1, 131760, Note_on_c, 9, 36, 101
1, 131999, Note_on_c, 9, 36, 0
1, 132000, Note_on_c, 9, 38, 114
1, 132000, Note_on_c, 9, 51, 91
1, 132022, Note_on_c, 9, 51, 0
1, 132479, Note_on_c, 9, 38, 0
1, 132480, Note_on_c, 9, 49, 93
1, 132480, Note_on_c, 9, 36, 96
1, 132496, Note_on_c, 9, 49, 0
1, 132945, Note_on_c, 9, 38, 114
1, 132945, Note_on_c, 9, 51, 99
1, 132945, Note_on_c, 9, 51, 0
1, 132959, Note_on_c, 9, 36, 0
1, 132959, Note_on_c, 9, 38, 0
1, 133440, Note_on_c, 9, 51, 85
1, 133440, Note_on_c, 9, 36, 96
1, 133462, Note_on_c, 9, 51, 0
1, 133919, Note_on_c, 9, 36, 0
1, 133920, Note_on_c, 9, 38, 110
1, 133920, Note_on_c, 9, 51, 90
1, 133936, Note_on_c, 9, 51, 0
1, 134279, Note_on_c, 9, 38, 0
1, 134385, Note_on_c, 9, 51, 83
1, 134385, Note_on_c, 9, 51, 0
1, 134400, Note_on_c, 9, 36, 100
1, 134879, Note_on_c, 9, 36, 0
1, 134880, Note_on_c, 9, 38, 117
1, 134899, Note_on_c, 9, 38, 0
1, 134900, Note_on_c, 9, 51, 78
1, 134900, Note_on_c, 9, 51, 0
1, 135360, Note_on_c, 9, 51, 93
1, 135360, Note_on_c, 9, 36, 96
1, 135382, Note_on_c, 9, 51, 0
1, 135599, Note_on_c, 9, 36, 0
1, 135600, Note_on_c, 9, 36, 93
1, 135839, Note_on_c, 9, 36, 0
1, 135840, Note_on_c, 9, 38, 112
1, 135840, Note_on_c, 9, 51, 86
1, 135844, Note_on_c, 9, 51, 0
1, 135959, Note_on_c, 9, 38, 0
1, 135960, Note_on_c, 9, 48, 100
1, 136019, Note_on_c, 9, 48, 0
1, 136065, Note_on_c, 9, 45, 91
1, 136079, Note_on_c, 9, 45, 0
1, 136320, Note_on_c, 9, 49, 79
1, 136320, Note_on_c, 9, 36, 105
1, 136342, Note_on_c, 9, 49, 0
1, 136799, Note_on_c, 9, 36, 0
1, 136800, Note_on_c, 9, 38, 119
1, 136800, Note_on_c, 9, 51, 78
1, 136822, Note_on_c, 9, 51, 0
1, 137279, Note_on_c, 9, 38, 0
1, 137280, Note_on_c, 9, 51, 88
1, 137280, Note_on_c, 9, 36, 97
1, 137296, Note_on_c, 9, 51, 0
1, 137745, Note_on_c, 9, 51, 79
1, 137745, Note_on_c, 9, 51, 0
1, 137759, Note_on_c, 9, 36, 0
1, 137760, Note_on_c, 9, 38, 121
1, 138225, Note_on_c, 9, 36, 101
1, 138239, Note_on_c, 9, 38, 0
1, 138239, Note_on_c, 9, 36, 0
1, 138240, Note_on_c, 9, 51, 93
1, 138262, Note_on_c, 9, 51, 0
1, 138720, Note_on_c, 9, 38, 120
1, 138720, Note_on_c, 9, 51, 90
1, 138742, Note_on_c, 9, 51, 0
1, 139199, Note_on_c, 9, 38, 0
1, 139200, Note_on_c, 9, 51, 98
1, 139200, Note_on_c, 9, 36, 105
1, 139222, Note_on_c, 9, 51, 0
1, 139439, Note_on_c, 9, 36, 0
1, 139440, Note_on_c, 9, 36, 100
1, 139679, Note_on_c, 9, 36, 0
1, 139680, Note_on_c, 9, 38, 119
1, 139680, Note_on_c, 9, 51, 78
1, 139683, Note_on_c, 9, 51, 0
1, 139769, Note_on_c, 9, 38, 0
1, 139770, Note_on_c, 9, 48, 101
1, 139799, Note_on_c, 9, 48, 0
1, 139830, Note_on_c, 9, 45, 97
1, 139919, Note_on_c, 9, 45, 0
1, 139920, Note_on_c, 9, 41, 96
1, 140099, Note_on_c, 9, 41, 0
1, 140145, Note_on_c, 9, 51, 86
1, 140145, Note_on_c, 9, 51, 0
1, 140160, Note_on_c, 9, 36, 108
1, 140639, Note_on_c, 9, 36, 0
1, 140640, Note_on_c, 9, 38, 110
1, 140640, Note_on_c, 9, 51, 79
1, 140662, Note_on_c, 9, 51, 0
1, 141119, Note_on_c, 9, 38, 0
1, 141120, Note_on_c, 9, 51, 79
1, 141120, Note_on_c, 9, 36, 99
1, 141136, Note_on_c, 9, 51, 0
1, 141299, Note_on_c, 9, 36, 0
1, 141345, Note_on_c, 9, 36, 96
1, 141359, Note_on_c, 9, 36, 0
1, 141585, Note_on_c, 9, 38, 107
1, 141585, Note_on_c, 9, 51, 84
1, 141585, Note_on_c, 9, 51, 0
1, 141599, Note_on_c, 9, 38, 0
1, 142050, Note_on_c, 9, 38, 120
1, 142064, Note_on_c, 9, 38, 0
1, 142065, Note_on_c, 9, 38, 107
1, 142079, Note_on_c, 9, 38, 0
1, 142080, Note_on_c, 9, 51, 91
1, 142080, Note_on_c, 9, 36, 92
1, 142090, Note_on_c, 9, 51, 0
1, 142319, Note_on_c, 9, 36, 0
1, 142395, Note_on_c, 9, 38, 115
1, 142395, Note_on_c, 9, 36, 94
1, 142439, Note_on_c, 9, 38, 0
1, 142439, Note_on_c, 9, 36, 0
1, 142680, Note_on_c, 9, 36, 106
1, 142710, Note_on_c, 9, 38, 118
1, 142769, Note_on_c, 9, 38, 0
1, 142919, Note_on_c, 9, 36, 0
1, 143025, Note_on_c, 9, 36, 96
1, 143039, Note_on_c, 9, 36, 0
1, 143040, Note_on_c, 9, 38, 110
1, 143399, Note_on_c, 9, 38, 0
1, 143490, Note_on_c, 9, 38, 111
1, 143504, Note_on_c, 9, 38, 0
1, 143505, Note_on_c, 9, 38, 108
1, 143505, Note_on_c, 9, 51, 80
1, 143514, Note_on_c, 9, 51, 0
1, 143520, Note_on_c, 9, 36, 91
1, 143744, Note_on_c, 9, 38, 0
1, 143999, Note_on_c, 9, 36, 0
1, 144000, Note_on_c, 9, 49, 108
1, 144000, Note_on_c, 9, 36, 98
1, 144022, Note_on_c, 9, 49, 0
1, 144479, Note_on_c, 9, 36, 0
1, 144480, Note_on_c, 9, 38, 112
1, 144480, Note_on_c, 9, 51, 80
1, 144502, Note_on_c, 9, 51, 0
1, 144720, Note_on_c, 9, 36, 107
1, 144959, Note_on_c, 9, 38, 0
1, 144959, Note_on_c, 9, 36, 0
1, 144960, Note_on_c, 9, 51, 84
1, 144976, Note_on_c, 9, 51, 0
1, 145425, Note_on_c, 9, 51, 89
1, 145425, Note_on_c, 9, 51, 0
1, 145440, Note_on_c, 9, 38, 105
1, 145665, Note_on_c, 9, 36, 104
1, 145679, Note_on_c, 9, 36, 0
1, 145799, Note_on_c, 9, 38, 0
1, 145905, Note_on_c, 9, 51, 97
1, 145905, Note_on_c, 9, 51, 0
1, 145920, Note_on_c, 9, 36, 106
1, 146399, Note_on_c, 9, 36, 0
1, 146400, Note_on_c, 9, 51, 97
1, 146400, Note_on_c, 9, 51, 0
1, 146420, Note_on_c, 9, 38, 121
1, 146459, Note_on_c, 9, 38, 0
1, 146865, Note_on_c, 9, 36, 101
1, 146879, Note_on_c, 9, 36, 0
1, 146880, Note_on_c, 9, 51, 78
1, 146902, Note_on_c, 9, 51, 0
1, 147120, Note_on_c, 9, 36, 102
1, 147359, Note_on_c, 9, 36, 0
1, 147360, Note_on_c, 9, 38, 108
1, 147374, Note_on_c, 9, 38, 0
1, 147375, Note_on_c, 9, 51, 92
1, 147392, Note_on_c, 9, 51, 0
1, 147825, Note_on_c, 9, 49, 84
1, 147825, Note_on_c, 9, 49, 0
1, 147825, Note_on_c, 9, 36, 94
1, 147839, Note_on_c, 9, 36, 0
1, 148320, Note_on_c, 9, 38, 105
1, 148320, Note_on_c, 9, 51, 95
1, 148330, Note_on_c, 9, 51, 0
1, 148559, Note_on_c, 9, 38, 0
1, 148560, Note_on_c, 9, 49, 97
1, 148560, Note_on_c, 9, 36, 107
1, 148570, Note_on_c, 9, 49, 0
1, 148799, Note_on_c, 9, 36, 0
1, 148800, Note_on_c, 9, 51, 82
1, 148822, Note_on_c, 9, 51, 0
1, 149280, Note_on_c, 9, 38, 111
1, 149280, Note_on_c, 9, 51, 85
1, 149302, Note_on_c, 9, 51, 0
1, 149520, Note_on_c, 9, 36, 98
1, 149759, Note_on_c, 9, 38, 0
1, 149759, Note_on_c, 9, 36, 0
1, 149760, Note_on_c, 9, 51, 92
1, 149760, Note_on_c, 9, 36, 93
1, 149782, Note_on_c, 9, 51, 0
1, 150239, Note_on_c, 9, 36, 0
1, 150240, Note_on_c, 9, 38, 121
1, 150240, Note_on_c, 9, 51, 98
1, 150262, Note_on_c, 9, 51, 0
1, 150705, Note_on_c, 9, 36, 106
1, 150719, Note_on_c, 9, 38, 0
1, 150719, Note_on_c, 9, 36, 0
1, 150720, Note_on_c, 9, 51, 91
1, 150742, Note_on_c, 9, 51, 0
1, 150960, Note_on_c, 9, 36, 101
1, 151199, Note_on_c, 9, 36, 0
1, 151200, Note_on_c, 9, 38, 106
1, 151200, Note_on_c, 9, 51, 96
1, 151222, Note_on_c, 9, 51, 0
1, 151679, Note_on_c, 9, 38, 0
1, 151680, Note_on_c, 9, 49, 95
1, 151680, Note_on_c, 9, 36, 99
1, 151702, Note_on_c, 9, 49, 0
1, 152159, Note_on_c, 9, 36, 0
1, 152160, Note_on_c, 9, 38, 115
1, 152160, Note_on_c, 9, 51, 92
1, 152170, Note_on_c, 9, 51, 0
1, 152399, Note_on_c, 9, 38, 0
1, 152400, Note_on_c, 9, 49, 80
1, 152400, Note_on_c, 9, 36, 96
1, 152410, Note_on_c, 9, 49, 0
1, 152639, Note_on_c, 9, 36, 0
1, 152640, Note_on_c, 9, 51, 79
1, 152656, Note_on_c, 9, 51, 0
1, 153105, Note_on_c, 9, 38, 116
1, 153119, Note_on_c, 9, 38, 0
1, 153120, Note_on_c, 9, 51, 81
1, 153136, Note_on_c, 9, 51, 0
1, 153360, Note_on_c, 9, 36, 91
1, 153539, Note_on_c, 9, 36, 0
1, 153585, Note_on_c, 9, 51, 97
1, 153585, Note_on_c, 9, 51, 0
1, 153585, Note_on_c, 9, 36, 92
1, 153599, Note_on_c, 9, 36, 0
1, 154065, Note_on_c, 9, 51, 82
1, 154065, Note_on_c, 9, 51, 0
1, 154080, Note_on_c, 9, 38, 117
1, 154545, Note_on_c, 9, 36, 108
1, 154559, Note_on_c, 9, 38, 0
1, 154559, Note_on_c, 9, 36, 0
1, 154560, Note_on_c, 9, 51, 92
1, 154576, Note_on_c, 9, 51, 0
1, 154800, Note_on_c, 9, 36, 96
1, 155025, Note_on_c, 9, 38, 110
1, 155025, Note_on_c, 9, 51, 98
1, 155025, Note_on_c, 9, 51, 0
1, 155039, Note_on_c, 9, 36, 0
1, 155039, Note_on_c, 9, 38, 0
1, 155505, Note_on_c, 9, 49, 83
1, 155505, Note_on_c, 9, 49, 0
1, 155520, Note_on_c, 9, 36, 97
1, 155999, Note_on_c, 9, 36, 0
1, 156000, Note_on_c, 9, 38, 119
1, 156000, Note_on_c, 9, 51, 79
1, 156010, Note_on_c, 9, 51, 0
1, 156239, Note_on_c, 9, 38, 0
1, 156240, Note_on_c, 9, 49, 96
1, 156240, Note_on_c, 9, 36, 103
1, 156250, Note_on_c, 9, 49, 0
1, 156479, Note_on_c, 9, 36, 0
1, 156480, Note_on_c, 9, 51, 80
1, 156496, Note_on_c, 9, 51, 0
1, 156720, Note_on_c, 9, 36, 103
1, 156945, Note_on_c, 9, 38, 111
1, 156959, Note_on_c, 9, 36, 0
1, 156959, Note_on_c, 9, 38, 0
1, 156960, Note_on_c, 9, 51, 91
1, 156982, Note_on_c, 9, 51, 0
1, 157440, Note_on_c, 9, 36, 98
1, 157919, Note_on_c, 9, 36, 0
1, 157920, Note_on_c, 9, 38, 106
1, 158385, Note_on_c, 9, 36, 95
1, 158399, Note_on_c, 9, 38, 0
1, 158399, Note_on_c, 9, 36, 0
1, 158880, Note_on_c, 9, 38, 110
1, 158959, Note_on_c, 9, 38, 0
1, 158960, Note_on_c, 9, 48, 98
1, 158999, Note_on_c, 9, 48, 0
1, 159045, Note_on_c, 9, 45, 104
1, 159059, Note_on_c, 9, 45, 0
1, 159120, Note_on_c, 9, 41, 99
1, 159359, Note_on_c, 9, 41, 0
1, 159360, Note_on_c, 9, 49, 82
1, 159360, Note_on_c, 9, 36, 95
1, 159382, Note_on_c, 9, 49, 0
1, 159839, Note_on_c, 9, 36, 0
1, 159840, Note_on_c, 9, 42, 86
1, 159840, Note_on_c, 9, 42, 0
1, 159860, Note_on_c, 9, 38, 107
1, 159899, Note_on_c, 9, 38, 0
1, 160080, Note_on_c, 9, 49, 97
1, 160080, Note_on_c, 9, 36, 101
1, 160090, Note_on_c, 9, 49, 0
1, 160319, Note_on_c, 9, 36, 0
1, 160560, Note_on_c, 9, 42, 88
1, 160560, Note_on_c, 9, 36, 94
1, 160570, Note_on_c, 9, 42, 0
1, 160799, Note_on_c, 9, 36, 0
1, 160800, Note_on_c, 9, 38, 121
1, 160800, Note_on_c, 9, 49, 94
1, 160800, Note_on_c, 9, 36, 94
1, 160822, Note_on_c, 9, 49, 0
1, 161279, Note_on_c, 9, 38, 0
1, 161279, Note_on_c, 9, 36, 0
1, 162480, Note_on_c, 9, 48, 83
1, 162559, Note_on_c, 9, 48, 0
1, 162560, Note_on_c, 9, 45, 83
1, 162599, Note_on_c, 9, 45, 0
1, 162630, Note_on_c, 9, 41, 83
1, 162689, Note_on_c, 9, 41, 0
1, 162720, Note_on_c, 9, 38, 97
1, 163079, Note_on_c, 9, 38, 0
1, 163185, Note_on_c, 9, 49, 108
1, 163185, Note_on_c, 9, 49, 0
1, 163200, Note_on_c, 9, 36, 105
1, 163679, Note_on_c, 9, 36, 0
1, 163680, Note_on_c, 9, 38, 102
1, 163680, Note_on_c, 9, 51, 100
1, 163702, Note_on_c, 9, 51, 0
1, 163920, Note_on_c, 9, 36, 92
1, 164159, Note_on_c, 9, 38, 0
1, 164159, Note_on_c, 9, 36, 0
1, 164160, Note_on_c, 9, 51, 100
1, 164176, Note_on_c, 9, 51, 0
1, 164625, Note_on_c, 9, 51, 104
1, 164625, Note_on_c, 9, 51, 0
1, 164640, Note_on_c, 9, 38, 99
1, 164865, Note_on_c, 9, 36, 92
1, 164879, Note_on_c, 9, 36, 0
1, 164999, Note_on_c, 9, 38, 0
1, 165105, Note_on_c, 9, 51, 104
1, 165105, Note_on_c, 9, 51, 0
1, 165120, Note_on_c, 9, 36, 107
1, 165585, Note_on_c, 9, 38, 99
1, 165599, Note_on_c, 9, 36, 0
1, 165599, Note_on_c, 9, 38, 0
1, 165600, Note_on_c, 9, 51, 97
1, 165622, Note_on_c, 9, 51, 0
1, 166080, Note_on_c, 9, 51, 97
1, 166080, Note_on_c, 9, 36, 103
1, 166096, Note_on_c, 9, 51, 0
1, 166319, Note_on_c, 9, 36, 0
1, 166320, Note_on_c, 9, 36, 100
1, 166545, Note_on_c, 9, 38, 106
1, 166559, Note_on_c, 9, 36, 0
1, 166559, Note_on_c, 9, 38, 0
1, 166560, Note_on_c, 9, 51, 97
1, 166582, Note_on_c, 9, 51, 0
1, 167040, Note_on_c, 9, 49, 112
1, 167040, Note_on_c, 9, 36, 106
1, 167056, Note_on_c, 9, 49, 0
1, 167505, Note_on_c, 9, 38, 106
1, 167519, Note_on_c, 9, 36, 0
1, 167519, Note_on_c, 9, 38, 0
1, 167520, Note_on_c, 9, 51, 104
1, 167530, Note_on_c, 9, 51, 0
1, 167745, Note_on_c, 9, 36, 102
1, 167759, Note_on_c, 9, 36, 0
1, 167760, Note_on_c, 9, 49, 110
1, 167770, Note_on_c, 9, 49, 0
1, 168000, Note_on_c, 9, 51, 117
1, 168016, Note_on_c, 9, 51, 0
1, 168465, Note_on_c, 9, 51, 108
1, 168465, Note_on_c, 9, 51, 0
1, 168480, Note_on_c, 9, 38, 102
1, 168720, Note_on_c, 9, 36, 101
1, 168959, Note_on_c, 9, 38, 0
1, 168959, Note_on_c, 9, 36, 0
1, 168960, Note_on_c, 9, 51, 108
1, 168960, Note_on_c, 9, 36, 104
1, 168976, Note_on_c, 9, 51, 0
1, 169425, Note_on_c, 9, 38, 104
1, 169425, Note_on_c, 9, 51, 97
1, 169425, Note_on_c, 9, 51, 0
1, 169439, Note_on_c, 9, 36, 0
1, 169439, Note_on_c, 9, 38, 0
1, 169920, Note_on_c, 9, 51, 97
1, 169920, Note_on_c, 9, 36, 102
1, 169936, Note_on_c, 9, 51, 0
1, 170159, Note_on_c, 9, 36, 0
1, 170160, Note_on_c, 9, 36, 97
1, 170385, Note_on_c, 9, 51, 102
1, 170385, Note_on_c, 9, 51, 0
1, 170399, Note_on_c, 9, 36, 0
1, 170400, Note_on_c, 9, 38, 104
1, 170759, Note_on_c, 9, 38, 0
1, 170865, Note_on_c, 9, 49, 110
1, 170865, Note_on_c, 9, 49, 0
1, 170880, Note_on_c, 9, 36, 108
1, 171345, Note_on_c, 9, 38, 99
1, 171359, Note_on_c, 9, 36, 0
1, 171359, Note_on_c, 9, 38, 0
1, 171360, Note_on_c, 9, 51, 104
1, 171370, Note_on_c, 9, 51, 0
1, 171600, Note_on_c, 9, 49, 118
1, 171600, Note_on_c, 9, 36, 95
1, 171607, Note_on_c, 9, 49, 0
1, 171825, Note_on_c, 9, 51, 111
1, 171825, Note_on_c, 9, 51, 0
1, 171839, Note_on_c, 9, 36, 0
1, 172305, Note_on_c, 9, 51, 108
1, 172305, Note_on_c, 9, 51, 0
1, 172320, Note_on_c, 9, 38, 99
1, 172545, Note_on_c, 9, 36, 102
1, 172559, Note_on_c, 9, 36, 0
1, 172799, Note_on_c, 9, 38, 0
1, 172800, Note_on_c, 9, 51, 104
1, 172800, Note_on_c, 9, 36, 98
1, 172816, Note_on_c, 9, 51, 0
1, 173265, Note_on_c, 9, 51, 102
1, 173265, Note_on_c, 9, 51, 0
1, 173279, Note_on_c, 9, 36, 0
1, 173280, Note_on_c, 9, 38, 104
1, 173639, Note_on_c, 9, 38, 0
1, 173745, Note_on_c, 9, 51, 96
1, 173745, Note_on_c, 9, 51, 0
1, 173760, Note_on_c, 9, 36, 101
1, 173999, Note_on_c, 9, 36, 0
1, 174000, Note_on_c, 9, 36, 107
1, 174239, Note_on_c, 9, 36, 0
1, 174240, Note_on_c, 9, 38, 106
1, 174240, Note_on_c, 9, 51, 104
1, 174256, Note_on_c, 9, 51, 0
1, 174599, Note_on_c, 9, 38, 0
1, 174705, Note_on_c, 9, 49, 110
1, 174705, Note_on_c, 9, 49, 0
1, 174720, Note_on_c, 9, 36, 97
1, 175199, Note_on_c, 9, 36, 0
1, 175200, Note_on_c, 9, 51, 108
1, 175200, Note_on_c, 9, 51, 0
1, 175220, Note_on_c, 9, 38, 104
1, 175259, Note_on_c, 9, 38, 0
1, 175425, Note_on_c, 9, 36, 99
1, 175439, Note_on_c, 9, 36, 0
1, 175440, Note_on_c, 9, 49, 110
1, 175447, Note_on_c, 9, 49, 0
1, 175665, Note_on_c, 9, 51, 114
1, 175665, Note_on_c, 9, 51, 0
1, 175920, Note_on_c, 9, 36, 106
1, 176159, Note_on_c, 9, 36, 0
1, 176160, Note_on_c, 9, 38, 106
1, 176160, Note_on_c, 9, 51, 104
1, 176182, Note_on_c, 9, 51, 0
1, 176639, Note_on_c, 9, 38, 0
1, 176640, Note_on_c, 9, 36, 96
1, 177119, Note_on_c, 9, 36, 0
1, 177120, Note_on_c, 9, 36, 108
1, 177599, Note_on_c, 9, 36, 0
1, 177600, Note_on_c, 9, 36, 105
1, 178079, Note_on_c, 9, 36, 0
1, 178080, Note_on_c, 9, 36, 101
1, 178320, Note_on_c, 9, 38, 110
1, 178439, Note_on_c, 9, 36, 0
1, 178545, Note_on_c, 9, 36, 73
1, 178559, Note_on_c, 9, 38, 0
1, 178559, Note_on_c, 9, 36, 0
1, 178560, Note_on_c, 9, 41, 73
1, 178739, Note_on_c, 9, 41, 0
1, 178785, Note_on_c, 9, 41, 83
1, 178799, Note_on_c, 9, 41, 0
1, 178800, Note_on_c, 9, 36, 83
1, 179039, Note_on_c, 9, 36, 0
1, 179040, Note_on_c, 9, 41, 88
1, 179040, Note_on_c, 9, 36, 88
1, 179279, Note_on_c, 9, 41, 0
1, 179279, Note_on_c, 9, 36, 0
1, 179280, Note_on_c, 9, 41, 93
1, 179280, Note_on_c, 9, 36, 93
1, 179519, Note_on_c, 9, 41, 0
1, 179519, Note_on_c, 9, 36, 0
1, 179520, Note_on_c, 9, 41, 91
1, 179520, Note_on_c, 9, 36, 91
1, 179759, Note_on_c, 9, 41, 0
1, 179759, Note_on_c, 9, 36, 0
1, 179760, Note_on_c, 9, 41, 92
1, 179760, Note_on_c, 9, 36, 99
1, 179999, Note_on_c, 9, 41, 0
1, 179999, Note_on_c, 9, 36, 0
1, 180000, Note_on_c, 9, 38, 113
1, 180000, Note_on_c, 9, 36, 95
1, 180479, Note_on_c, 9, 38, 0
1, 180479, Note_on_c, 9, 36, 0
1, 180480, Note_on_c, 9, 49, 108
1, 180480, Note_on_c, 9, 36, 40
1, 180502, Note_on_c, 9, 49, 0
1, 180959, Note_on_c, 9, 36, 0
1, 180960, Note_on_c, 9, 38, 82
1, 180960, Note_on_c, 9, 51, 104
1, 180976, Note_on_c, 9, 51, 0
1, 181319, Note_on_c, 9, 38, 0
1, 181425, Note_on_c, 9, 51, 108
1, 181425, Note_on_c, 9, 51, 0
1, 181440, Note_on_c, 9, 36, 98
1, 181919, Note_on_c, 9, 36, 0
1, 181920, Note_on_c, 9, 38, 71
1, 181920, Note_on_c, 9, 51, 110
1, 181936, Note_on_c, 9, 51, 0
1, 182279, Note_on_c, 9, 38, 0
1, 182385, Note_on_c, 9, 51, 108
1, 182385, Note_on_c, 9, 51, 0
1, 182400, Note_on_c, 9, 36, 92
1, 182865, Note_on_c, 9, 51, 104
1, 182865, Note_on_c, 9, 51, 0
1, 182879, Note_on_c, 9, 36, 0
1, 182880, Note_on_c, 9, 38, 71
1, 183359, Note_on_c, 9, 38, 0
1, 183360, Note_on_c, 9, 51, 104
1, 183360, Note_on_c, 9, 36, 98
1, 183376, Note_on_c, 9, 51, 0
1, 183599, Note_on_c, 9, 36, 0
1, 183600, Note_on_c, 9, 36, 96
1, 183825, Note_on_c, 9, 38, 91
1, 183839, Note_on_c, 9, 36, 0
1, 183839, Note_on_c, 9, 38, 0
1, 183840, Note_on_c, 9, 51, 110
1, 183862, Note_on_c, 9, 51, 0
1, 184320, Note_on_c, 9, 49, 112
1, 184320, Note_on_c, 9, 36, 104
1, 184342, Note_on_c, 9, 49, 0
1, 184799, Note_on_c, 9, 36, 0
1, 184800, Note_on_c, 9, 38, 112
1, 184800, Note_on_c, 9, 51, 100
1, 184822, Note_on_c, 9, 51, 0
1, 185279, Note_on_c, 9, 38, 0
1, 185280, Note_on_c, 9, 51, 104
1, 185280, Note_on_c, 9, 36, 100
1, 185302, Note_on_c, 9, 51, 0
1, 185519, Note_on_c, 9, 36, 0
1, 185520, Note_on_c, 9, 36, 95
1, 185759, Note_on_c, 9, 36, 0
1, 185760, Note_on_c, 9, 51, 110
1, 185760, Note_on_c, 9, 51, 0
1, 185780, Note_on_c, 9, 38, 108
1, 185819, Note_on_c, 9, 38, 0
1, 186240, Time_signature, 3, 2, 24, 8
1, 186240, Note_on_c, 9, 49, 108
1, 186240, Note_on_c, 9, 49, 0
1, 186240, Note_on_c, 9, 36, 97
1, 186260, Note_on_c, 9, 38, 92
1, 186299, Note_on_c, 9, 38, 0
1, 186479, Note_on_c, 9, 36, 0
1, 186560, Note_on_c, 9, 38, 99
1, 186560, Note_on_c, 9, 36, 106
1, 186599, Note_on_c, 9, 38, 0
1, 186599, Note_on_c, 9, 36, 0
1, 186840, Note_on_c, 9, 38, 97
1, 186870, Note_on_c, 9, 36, 108
1, 186929, Note_on_c, 9, 36, 0
1, 187079, Note_on_c, 9, 38, 0
1, 187185, Note_on_c, 9, 38, 104
1, 187199, Note_on_c, 9, 38, 0
1, 187200, Note_on_c, 9, 39, 119
1, 187200, Note_on_c, 9, 36, 98
1, 187379, Note_on_c, 9, 39, 0
1, 187425, Note_on_c, 9, 38, 114
1, 187439, Note_on_c, 9, 38, 0
1, 187515, Note_on_c, 9, 48, 94
1, 187559, Note_on_c, 9, 36, 0
1, 187559, Note_on_c, 9, 48, 0
1, 187600, Note_on_c, 9, 45, 102
1, 187619, Note_on_c, 9, 45, 0
1, 187665, Note_on_c, 9, 36, 103
1, 187679, Note_on_c, 9, 36, 0
1, 187680, Time_signature, 4, 2, 24, 8
1, 187680, Note_on_c, 9, 49, 116
1, 187696, Note_on_c, 9, 49, 0
1, 188145, Note_on_c, 9, 51, 104
1, 188145, Note_on_c, 9, 51, 0
1, 188160, Note_on_c, 9, 38, 102
1, 188399, Note_on_c, 9, 38, 0
1, 188400, Note_on_c, 9, 49, 108
1, 188400, Note_on_c, 9, 36, 104
1, 188410, Note_on_c, 9, 49, 0
1, 188639, Note_on_c, 9, 36, 0
1, 188640, Note_on_c, 9, 36, 99
1, 189119, Note_on_c, 9, 36, 0
1, 189120, Note_on_c, 9, 38, 102
1, 189120, Note_on_c, 9, 51, 104
1, 189142, Note_on_c, 9, 51, 0
1, 189599, Note_on_c, 9, 38, 0
1, 189600, Note_on_c, 9, 51, 104
1, 189600, Note_on_c, 9, 36, 105
1, 189622, Note_on_c, 9, 51, 0
1, 190079, Note_on_c, 9, 36, 0
1, 190080, Note_on_c, 9, 38, 97
1, 190099, Note_on_c, 9, 38, 0
1, 190100, Note_on_c, 9, 51, 108
1, 190100, Note_on_c, 9, 51, 0
1, 190320, Note_on_c, 9, 36, 104
1, 190559, Note_on_c, 9, 36, 0
1, 190560, Note_on_c, 9, 51, 104
1, 190560, Note_on_c, 9, 36, 95
1, 190582, Note_on_c, 9, 51, 0
1, 191039, Note_on_c, 9, 36, 0
1, 191040, Note_on_c, 9, 38, 102
1, 191040, Note_on_c, 9, 51, 108
1, 191056, Note_on_c, 9, 51, 0
1, 191399, Note_on_c, 9, 38, 0
1, 191505, Note_on_c, 9, 49, 104
1, 191505, Note_on_c, 9, 49, 0
1, 191520, Note_on_c, 9, 36, 94
1, 191985, Note_on_c, 9, 51, 104
1, 191985, Note_on_c, 9, 51, 0
1, 191999, Note_on_c, 9, 36, 0
1, 192000, Note_on_c, 9, 38, 99
1, 192239, Note_on_c, 9, 38, 0
1, 192240, Note_on_c, 9, 49, 100
1, 192240, Note_on_c, 9, 36, 101
1, 192250, Note_on_c, 9, 49, 0
1, 192419, Note_on_c, 9, 36, 0
1, 192465, Note_on_c, 9, 36, 105
1, 192479, Note_on_c, 9, 36, 0
1, 192945, Note_on_c, 9, 51, 108
1, 192945, Note_on_c, 9, 51, 0
1, 192960, Note_on_c, 9, 38, 106
1, 193439, Note_on_c, 9, 38, 0
1, 193440, Note_on_c, 9, 51, 104
1, 193440, Note_on_c, 9, 36, 91
1, 193462, Note_on_c, 9, 51, 0
1, 193919, Note_on_c, 9, 36, 0
1, 193920, Note_on_c, 9, 38, 102
1, 193920, Note_on_c, 9, 51, 100
1, 193936, Note_on_c, 9, 51, 0
1, 194160, Note_on_c, 9, 36, 97
1, 194279, Note_on_c, 9, 38, 0
1, 194339, Note_on_c, 9, 36, 0
1, 194385, Note_on_c, 9, 51, 104
1, 194385, Note_on_c, 9, 51, 0
1, 194385, Note_on_c, 9, 36, 100
1, 194399, Note_on_c, 9, 36, 0
1, 194640, Note_on_c, 9, 38, 106
1, 194699, Note_on_c, 9, 38, 0
1, 194745, Note_on_c, 9, 48, 92
1, 194759, Note_on_c, 9, 48, 0
1, 194880, Note_on_c, 9, 48, 88
1, 194894, Note_on_c, 9, 48, 0
1, 194895, Note_on_c, 9, 51, 104
1, 194896, Note_on_c, 9, 51, 0
1, 194955, Note_on_c, 9, 45, 92
1, 194999, Note_on_c, 9, 45, 0
1, 195040, Note_on_c, 9, 45, 92
1, 195059, Note_on_c, 9, 45, 0
1, 195120, Note_on_c, 9, 41, 100
1, 195359, Note_on_c, 9, 41, 0
1, 195360, Note_on_c, 9, 49, 112
1, 195360, Note_on_c, 9, 36, 96
1, 195382, Note_on_c, 9, 49, 0
1, 195839, Note_on_c, 9, 36, 0
1, 195840, Note_on_c, 9, 38, 102
1, 195840, Note_on_c, 9, 51, 104
1, 195847, Note_on_c, 9, 51, 0
1, 196019, Note_on_c, 9, 38, 0
1, 196065, Note_on_c, 9, 49, 108
1, 196065, Note_on_c, 9, 49, 0
1, 196080, Note_on_c, 9, 36, 97
1, 196259, Note_on_c, 9, 36, 0
1, 196305, Note_on_c, 9, 36, 105
1, 196319, Note_on_c, 9, 36, 0
1, 196800, Note_on_c, 9, 38, 102
1, 196800, Note_on_c, 9, 51, 104
1, 196822, Note_on_c, 9, 51, 0
1, 197279, Note_on_c, 9, 38, 0
1, 197280, Note_on_c, 9, 51, 104
1, 197280, Note_on_c, 9, 36, 94
1, 197302, Note_on_c, 9, 51, 0
1, 197759, Note_on_c, 9, 36, 0
1, 197760, Note_on_c, 9, 38, 97
1, 197760, Note_on_c, 9, 51, 108
1, 197782, Note_on_c, 9, 51, 0
1, 198000, Note_on_c, 9, 36, 91
1, 198239, Note_on_c, 9, 38, 0
1, 198239, Note_on_c, 9, 36, 0
1, 198240, Note_on_c, 9, 51, 104
1, 198240, Note_on_c, 9, 36, 94
1, 198262, Note_on_c, 9, 51, 0
1, 198719, Note_on_c, 9, 36, 0
1, 198720, Note_on_c, 9, 38, 102
1, 198720, Note_on_c, 9, 51, 108
1, 198742, Note_on_c, 9, 51, 0
1, 199199, Note_on_c, 9, 38, 0
1, 199200, Note_on_c, 9, 49, 104
1, 199200, Note_on_c, 9, 36, 107
1, 199222, Note_on_c, 9, 49, 0
1, 199679, Note_on_c, 9, 36, 0
1, 199680, Note_on_c, 9, 38, 99
1, 199699, Note_on_c, 9, 38, 0
1, 199700, Note_on_c, 9, 51, 104
1, 199700, Note_on_c, 9, 51, 0
1, 199920, Note_on_c, 9, 49, 100
1, 199920, Note_on_c, 9, 36, 99
1, 199930, Note_on_c, 9, 49, 0
1, 200099, Note_on_c, 9, 36, 0
1, 200145, Note_on_c, 9, 36, 99
1, 200159, Note_on_c, 9, 36, 0
1, 200640, Note_on_c, 9, 38, 106
1, 200640, Note_on_c, 9, 51, 108
1, 200650, Note_on_c, 9, 51, 0
1, 200879, Note_on_c, 9, 38, 0
1, 200880, Note_on_c, 9, 49, 104
1, 200890, Note_on_c, 9, 49, 0
1, 201120, Note_on_c, 9, 36, 97
1, 201599, Note_on_c, 9, 36, 0
1, 201600, Note_on_c, 9, 38, 102
1, 201600, Note_on_c, 9, 51, 100
1, 201622, Note_on_c, 9, 51, 0
1, 201840, Note_on_c, 9, 36, 91
1, 202079, Note_on_c, 9, 38, 0
1, 202079, Note_on_c, 9, 36, 0
1, 202080, Note_on_c, 9, 38, 116
1, 202080, Note_on_c, 9, 51, 104
1, 202084, Note_on_c, 9, 51, 0
1, 202199, Note_on_c, 9, 38, 0
1, 202200, Note_on_c, 9, 48, 100
1, 202319, Note_on_c, 9, 48, 0
1, 202320, Note_on_c, 9, 45, 105
1, 202439, Note_on_c, 9, 45, 0
1, 202440, Note_on_c, 9, 41, 92
1, 202499, Note_on_c, 9, 41, 0
1, 202545, Note_on_c, 9, 38, 106
1, 202559, Note_on_c, 9, 38, 0
1, 202560, Note_on_c, 9, 51, 104
1, 202561, Note_on_c, 9, 51, 0
1, 202620, Note_on_c, 9, 48, 92
1, 202664, Note_on_c, 9, 48, 0
1, 202665, Note_on_c, 9, 45, 92
1, 202679, Note_on_c, 9, 45, 0
1, 202740, Note_on_c, 9, 41, 92
1, 202799, Note_on_c, 9, 41, 0
1, 202800, Note_on_c, 9, 38, 117
1, 202979, Note_on_c, 9, 38, 0
1, 203025, Note_on_c, 9, 49, 109
1, 203025, Note_on_c, 9, 49, 0
1, 203025, Note_on_c, 9, 36, 97
1, 203039, Note_on_c, 9, 36, 0
1, 203520, Note_on_c, 9, 38, 102
1, 203520, Note_on_c, 9, 51, 104
1, 203530, Note_on_c, 9, 51, 0
1, 203759, Note_on_c, 9, 38, 0
1, 203760, Note_on_c, 9, 49, 108
1, 203760, Note_on_c, 9, 36, 99
1, 203770, Note_on_c, 9, 49, 0
1, 203999, Note_on_c, 9, 36, 0
1, 204000, Note_on_c, 9, 36, 91
1, 204479, Note_on_c, 9, 36, 0
1, 204480, Note_on_c, 9, 38, 102
1, 204480, Note_on_c, 9, 51, 104
1, 204502, Note_on_c, 9, 51, 0
1, 204959, Note_on_c, 9, 38, 0
1, 204960, Note_on_c, 9, 51, 104
1, 204960, Note_on_c, 9, 36, 91
1, 204976, Note_on_c, 9, 51, 0
1, 205425, Note_on_c, 9, 51, 108
1, 205425, Note_on_c, 9, 51, 0
1, 205439, Note_on_c, 9, 36, 0
1, 205440, Note_on_c, 9, 38, 97
1, 205665, Note_on_c, 9, 36, 106
1, 205679, Note_on_c, 9, 36, 0
1, 205919, Note_on_c, 9, 38, 0
1, 205920, Note_on_c, 9, 51, 104
1, 205920, Note_on_c, 9, 36, 94
1, 205930, Note_on_c, 9, 51, 0
1, 206160, Note_on_c, 9, 48, 107
1, 206339, Note_on_c, 9, 48, 0
1, 206385, Note_on_c, 9, 38, 102
1, 206385, Note_on_c, 9, 51, 108
1, 206385, Note_on_c, 9, 51, 0
1, 206399, Note_on_c, 9, 36, 0
1, 206399, Note_on_c, 9, 38, 0
1, 206640, Note_on_c, 9, 45, 101
1, 206819, Note_on_c, 9, 45, 0
1, 206865, Note_on_c, 9, 49, 104
1, 206865, Note_on_c, 9, 49, 0
1, 206880, Note_on_c, 9, 36, 107
1, 207359, Note_on_c, 9, 36, 0
1, 207360, Note_on_c, 9, 38, 99
1, 207360, Note_on_c, 9, 51, 104
1, 207370, Note_on_c, 9, 51, 0
1, 207599, Note_on_c, 9, 38, 0
1, 207600, Note_on_c, 9, 49, 100
1, 207600, Note_on_c, 9, 36, 91
1, 207610, Note_on_c, 9, 49, 0
1, 207779, Note_on_c, 9, 36, 0
1, 207825, Note_on_c, 9, 36, 91
1, 207839, Note_on_c, 9, 36, 0
1, 208320, Note_on_c, 9, 38, 106
1, 208320, Note_on_c, 9, 51, 108
1, 208342, Note_on_c, 9, 51, 0
1, 208799, Note_on_c, 9, 38, 0
1, 208800, Note_on_c, 9, 51, 104
1, 208800, Note_on_c, 9, 36, 100
1, 208810, Note_on_c, 9, 51, 0
1, 209040, Note_on_c, 9, 48, 92
1, 209159, Note_on_c, 9, 48, 0
1, 209160, Note_on_c, 9, 45, 92
1, 209279, Note_on_c, 9, 36, 0
1, 209279, Note_on_c, 9, 45, 0
1, 209280, Note_on_c, 9, 45, 88
1, 209280, Note_on_c, 9, 51, 100
1, 209284, Note_on_c, 9, 51, 0
1, 209399, Note_on_c, 9, 45, 0
1, 209400, Note_on_c, 9, 41, 92
1, 209519, Note_on_c, 9, 41, 0
1, 209520, Note_on_c, 9, 41, 102
1, 209639, Note_on_c, 9, 41, 0
1, 209640, Note_on_c, 9, 41, 106
1, 209759, Note_on_c, 9, 41, 0
1, 209760, Note_on_c, 9, 38, 109
1, 209760, Note_on_c, 9, 51, 104
1, 209760, Note_on_c, 9, 36, 98
1, 209761, Note_on_c, 9, 51, 0
1, 209819, Note_on_c, 9, 38, 0
1, 209835, Note_on_c, 9, 48, 106
1, 209879, Note_on_c, 9, 48, 0
1, 209920, Note_on_c, 9, 45, 108
1, 209939, Note_on_c, 9, 36, 0
1, 209939, Note_on_c, 9, 45, 0
1, 209985, Note_on_c, 9, 36, 92
1, 209999, Note_on_c, 9, 36, 0
1, 210000, Note_on_c, 9, 41, 92
1, 210000, Note_on_c, 9, 46, 115
1, 210004, Note_on_c, 9, 46, 0
1, 210119, Note_on_c, 9, 41, 0
1, 210120, Note_on_c, 9, 38, 106
1, 210239, Note_on_c, 9, 38, 0
1, 210240, Note_on_c, 9, 48, 88
1, 210254, Note_on_c, 9, 48, 0
1, 210255, Note_on_c, 9, 51, 104
1, 210256, Note_on_c, 9, 51, 0
1, 210300, Note_on_c, 9, 45, 93
1, 210339, Note_on_c, 9, 45, 0
1, 210340, Note_on_c, 9, 45, 92
1, 210359, Note_on_c, 9, 45, 0
1, 210405, Note_on_c, 9, 41, 96
1, 210419, Note_on_c, 9, 41, 0
1, 210480, Note_on_c, 9, 38, 118
1, 210719, Note_on_c, 9, 38, 0
1, 210720, Note_on_c, 9, 49, 119
1, 210720, Note_on_c, 9, 36, 101
1, 210742, Note_on_c, 9, 49, 0
1, 211199, Note_on_c, 9, 36, 0
1, 211200, Note_on_c, 9, 51, 104
1, 211200, Note_on_c, 9, 51, 0
1, 211220, Note_on_c, 9, 38, 102
1, 211259, Note_on_c, 9, 38, 0
1, 211425, Note_on_c, 9, 36, 107
1, 211439, Note_on_c, 9, 36, 0
1, 211440, Note_on_c, 9, 49, 108
1, 211450, Note_on_c, 9, 49, 0
1, 211680, Note_on_c, 9, 36, 91
1, 212145, Note_on_c, 9, 51, 104
1, 212145, Note_on_c, 9, 51, 0
1, 212159, Note_on_c, 9, 36, 0
1, 212160, Note_on_c, 9, 38, 102
1, 212639, Note_on_c, 9, 38, 0
1, 212640, Note_on_c, 9, 51, 104
1, 212640, Note_on_c, 9, 36, 108
1, 212662, Note_on_c, 9, 51, 0
1, 213119, Note_on_c, 9, 36, 0
1, 213120, Note_on_c, 9, 38, 97
1, 213120, Note_on_c, 9, 51, 108
1, 213142, Note_on_c, 9, 51, 0
1, 213360, Note_on_c, 9, 36, 92
1, 213599, Note_on_c, 9, 38, 0
1, 213599, Note_on_c, 9, 36, 0
1, 213600, Note_on_c, 9, 38, 107
1, 213600, Note_on_c, 9, 51, 104
1, 213616, Note_on_c, 9, 51, 0
1, 213720, Note_on_c, 9, 36, 107
1, 213959, Note_on_c, 9, 38, 0
1, 213959, Note_on_c, 9, 36, 0
1, 213960, Note_on_c, 9, 36, 91
1, 214065, Note_on_c, 9, 51, 108
1, 214065, Note_on_c, 9, 51, 0
1, 214079, Note_on_c, 9, 36, 0
1, 214080, Note_on_c, 9, 38, 102
1, 214200, Note_on_c, 9, 36, 102
1, 214439, Note_on_c, 9, 36, 0
1, 214440, Note_on_c, 9, 36, 104
1, 214559, Note_on_c, 9, 38, 0
1, 214559, Note_on_c, 9, 36, 0
1, 214560, Note_on_c, 9, 49, 104
1, 214560, Note_on_c, 9, 36, 93
1, 214576, Note_on_c, 9, 49, 0
1, 215025, Note_on_c, 9, 51, 104
1, 215025, Note_on_c, 9, 51, 0
1, 215039, Note_on_c, 9, 36, 0
1, 215040, Note_on_c, 9, 38, 99
1, 215279, Note_on_c, 9, 38, 0
1, 215280, Note_on_c, 9, 49, 100
1, 215280, Note_on_c, 9, 36, 105
1, 215290, Note_on_c, 9, 49, 0
1, 215519, Note_on_c, 9, 36, 0
1, 215520, Note_on_c, 9, 36, 103
1, 215999, Note_on_c, 9, 36, 0
1, 216000, Note_on_c, 9, 38, 106
1, 216000, Note_on_c, 9, 51, 108
1, 216007, Note_on_c, 9, 51, 0
1, 216179, Note_on_c, 9, 38, 0
1, 216225, Note_on_c, 9, 49, 104
1, 216225, Note_on_c, 9, 49, 0
1, 216480, Note_on_c, 9, 36, 104
1, 216959, Note_on_c, 9, 36, 0
1, 216960, Note_on_c, 9, 38, 102
1, 216960, Note_on_c, 9, 51, 100
1, 216976, Note_on_c, 9, 51, 0
1, 217200, Note_on_c, 9, 36, 107
1, 217319, Note_on_c, 9, 38, 0
1, 217425, Note_on_c, 9, 48, 92
1, 217439, Note_on_c, 9, 36, 0
1, 217439, Note_on_c, 9, 48, 0
1, 217440, Note_on_c, 9, 51, 104
1, 217462, Note_on_c, 9, 51, 0
1, 217680, Note_on_c, 9, 36, 92
1, 217919, Note_on_c, 9, 36, 0
1, 217920, Note_on_c, 9, 38, 106
1, 217920, Note_on_c, 9, 51, 104
1, 217921, Note_on_c, 9, 51, 0
1, 217979, Note_on_c, 9, 38, 0
1, 217995, Note_on_c, 9, 48, 92
1, 218039, Note_on_c, 9, 48, 0
1, 218070, Note_on_c, 9, 45, 92
1, 218129, Note_on_c, 9, 45, 0
1, 218145, Note_on_c, 9, 41, 94
1, 218159, Note_on_c, 9, 41, 0
1, 218400, Note_on_c, 9, 57, 100
1, 218400, Note_on_c, 9, 36, 100
1, 218422, Note_on_c, 9, 57, 0
1, 218879, Note_on_c, 9, 36, 0
1, 218880, Note_on_c, 9, 38, 102
1, 218880, Note_on_c, 9, 51, 104
1, 218890, Note_on_c, 9, 51, 0
1, 219119, Note_on_c, 9, 38, 0
1, 219120, Note_on_c, 9, 49, 108
1, 219120, Note_on_c, 9, 36, 99
1, 219130, Note_on_c, 9, 49, 0
1, 219359, Note_on_c, 9, 36, 0
1, 219360, Note_on_c, 9, 36, 91
1, 219839, Note_on_c, 9, 36, 0
1, 219840, Note_on_c, 9, 38, 102
1, 219840, Note_on_c, 9, 51, 104
1, 219862, Note_on_c, 9, 51, 0
1, 220319, Note_on_c, 9, 38, 0
1, 220320, Note_on_c, 9, 51, 104
1, 220320, Note_on_c, 9, 36, 91
1, 220336, Note_on_c, 9, 51, 0
1, 220785, Note_on_c, 9, 51, 108
1, 220785, Note_on_c, 9, 51, 0
1, 220799, Note_on_c, 9, 36, 0
1, 220800, Note_on_c, 9, 38, 97
1, 221025, Note_on_c, 9, 36, 106
1, 221039, Note_on_c, 9, 36, 0
1, 221279, Note_on_c, 9, 38, 0
1, 221280, Note_on_c, 9, 51, 104
1, 221280, Note_on_c, 9, 36, 94
1, 221290, Note_on_c, 9, 51, 0
1, 221520, Note_on_c, 9, 48, 107
1, 221699, Note_on_c, 9, 48, 0
1, 221745, Note_on_c, 9, 38, 102
1, 221745, Note_on_c, 9, 51, 108
1, 221745, Note_on_c, 9, 51, 0
1, 221759, Note_on_c, 9, 36, 0
1, 221759, Note_on_c, 9, 38, 0
1, 222000, Note_on_c, 9, 45, 101
1, 222179, Note_on_c, 9, 45, 0
1, 222225, Note_on_c, 9, 49, 104
1, 222225, Note_on_c, 9, 49, 0
1, 222240, Note_on_c, 9, 36, 107
1, 222719, Note_on_c, 9, 36, 0
1, 222720, Note_on_c, 9, 38, 99
1, 222720, Note_on_c, 9, 51, 104
1, 222730, Note_on_c, 9, 51, 0
1, 222959, Note_on_c, 9, 38, 0
1, 222960, Note_on_c, 9, 49, 100
1, 222960, Note_on_c, 9, 36, 91
1, 222970, Note_on_c, 9, 49, 0
1, 223139, Note_on_c, 9, 36, 0
1, 223185, Note_on_c, 9, 36, 91
1, 223199, Note_on_c, 9, 36, 0
1, 223680, Note_on_c, 9, 38, 106
1, 223680, Note_on_c, 9, 51, 108
1, 223702, Note_on_c, 9, 51, 0
1, 224159, Note_on_c, 9, 38, 0
1, 224160, Note_on_c, 9, 51, 104
1, 224160, Note_on_c, 9, 36, 100
1, 224170, Note_on_c, 9, 51, 0
1, 224400, Note_on_c, 9, 48, 92
1, 224519, Note_on_c, 9, 48, 0
1, 224520, Note_on_c, 9, 45, 92
1, 224639, Note_on_c, 9, 36, 0
1, 224639, Note_on_c, 9, 45, 0
1, 224640, Note_on_c, 9, 45, 88
1, 224640, Note_on_c, 9, 51, 100
1, 224644, Note_on_c, 9, 51, 0
1, 224759, Note_on_c, 9, 45, 0
1, 224760, Note_on_c, 9, 41, 92
1, 224879, Note_on_c, 9, 41, 0
1, 224880, Note_on_c, 9, 41, 102
1, 224999, Note_on_c, 9, 41, 0
1, 225000, Note_on_c, 9, 41, 106
1, 225119, Note_on_c, 9, 41, 0
1, 225120, Note_on_c, 9, 38, 109
1, 225120, Note_on_c, 9, 51, 104
1, 225120, Note_on_c, 9, 36, 98
1, 225121, Note_on_c, 9, 51, 0
1, 225179, Note_on_c, 9, 38, 0
1, 225195, Note_on_c, 9, 48, 106
1, 225239, Note_on_c, 9, 48, 0
1, 225280, Note_on_c, 9, 45, 108
1, 225299, Note_on_c, 9, 36, 0
1, 225299, Note_on_c, 9, 45, 0
1, 225345, Note_on_c, 9, 36, 92
1, 225359, Note_on_c, 9, 36, 0
1, 225360, Note_on_c, 9, 41, 92
1, 225360, Note_on_c, 9, 46, 115
1, 225364, Note_on_c, 9, 46, 0
1, 225479, Note_on_c, 9, 41, 0
1, 225480, Note_on_c, 9, 38, 106
1, 225599, Note_on_c, 9, 38, 0
1, 225600, Note_on_c, 9, 48, 88
1, 225614, Note_on_c, 9, 48, 0
1, 225615, Note_on_c, 9, 51, 104
1, 225616, Note_on_c, 9, 51, 0
1, 225660, Note_on_c, 9, 45, 93
1, 225699, Note_on_c, 9, 45, 0
1, 225700, Note_on_c, 9, 45, 92
1, 225719, Note_on_c, 9, 45, 0
1, 225765, Note_on_c, 9, 41, 96
1, 225779, Note_on_c, 9, 41, 0
1, 225840, Note_on_c, 9, 38, 118
1, 226079, Note_on_c, 9, 38, 0
1, 226080, Note_on_c, 9, 49, 119
1, 226080, Note_on_c, 9, 36, 101
1, 226102, Note_on_c, 9, 49, 0
1, 226559, Note_on_c, 9, 36, 0
1, 226560, Note_on_c, 9, 51, 104
1, 226560, Note_on_c, 9, 51, 0
1, 226580, Note_on_c, 9, 38, 102
1, 226619, Note_on_c, 9, 38, 0
1, 226785, Note_on_c, 9, 36, 107
1, 226799, Note_on_c, 9, 36, 0
1, 226800, Note_on_c, 9, 49, 108
1, 226810, Note_on_c, 9, 49, 0
1, 227040, Note_on_c, 9, 36, 91
1, 227505, Note_on_c, 9, 51, 104
1, 227505, Note_on_c, 9, 51, 0
1, 227519, Note_on_c, 9, 36, 0
1, 227520, Note_on_c, 9, 38, 102
1, 227999, Note_on_c, 9, 38, 0
1, 228000, Note_on_c, 9, 51, 104
1, 228000, Note_on_c, 9, 36, 108
1, 228022, Note_on_c, 9, 51, 0
1, 228479, Note_on_c, 9, 36, 0
1, 228480, Note_on_c, 9, 38, 97
1, 228480, Note_on_c, 9, 51, 108
1, 228502, Note_on_c, 9, 51, 0
1, 228720, Note_on_c, 9, 36, 92
1, 228959, Note_on_c, 9, 38, 0
1, 228959, Note_on_c, 9, 36, 0
1, 228960, Note_on_c, 9, 38, 107
1, 228960, Note_on_c, 9, 51, 104
1, 228976, Note_on_c, 9, 51, 0
1, 229080, Note_on_c, 9, 36, 107
1, 229319, Note_on_c, 9, 38, 0
1, 229319, Note_on_c, 9, 36, 0
1, 229320, Note_on_c, 9, 36, 91
1, 229425, Note_on_c, 9, 51, 108
1, 229425, Note_on_c, 9, 51, 0
1, 229439, Note_on_c, 9, 36, 0
1, 229440, Note_on_c, 9, 38, 102
1, 229560, Note_on_c, 9, 36, 102
1, 229799, Note_on_c, 9, 36, 0
1, 229800, Note_on_c, 9, 36, 104
1, 229919, Note_on_c, 9, 38, 0
1, 229919, Note_on_c, 9, 36, 0
1, 229920, Note_on_c, 9, 49, 104
1, 229920, Note_on_c, 9, 36, 93
1, 229936, Note_on_c, 9, 49, 0
1, 230385, Note_on_c, 9, 51, 104
1, 230385, Note_on_c, 9, 51, 0
1, 230399, Note_on_c, 9, 36, 0
1, 230400, Note_on_c, 9, 38, 99
1, 230639, Note_on_c, 9, 38, 0
1, 230640, Note_on_c, 9, 49, 100
1, 230640, Note_on_c, 9, 36, 105
1, 230650, Note_on_c, 9, 49, 0
1, 230879, Note_on_c, 9, 36, 0
1, 230880, Note_on_c, 9, 36, 103
1, 231359, Note_on_c, 9, 36, 0
1, 231360, Note_on_c, 9, 38, 106
1, 231360, Note_on_c, 9, 51, 108
1, 231367, Note_on_c, 9, 51, 0
1, 231539, Note_on_c, 9, 38, 0
1, 231585, Note_on_c, 9, 49, 104
1, 231585, Note_on_c, 9, 49, 0
1, 231840, Note_on_c, 9, 36, 104
1, 232319, Note_on_c, 9, 36, 0
1, 232320, Note_on_c, 9, 38, 102
1, 232320, Note_on_c, 9, 51, 100
1, 232336, Note_on_c, 9, 51, 0
1, 232560, Note_on_c, 9, 36, 107
1, 232679, Note_on_c, 9, 38, 0
1, 232785, Note_on_c, 9, 48, 92
1, 232799, Note_on_c, 9, 36, 0
1, 232799, Note_on_c, 9, 48, 0
1, 232800, Note_on_c, 9, 51, 104
1, 232822, Note_on_c, 9, 51, 0
1, 233040, Note_on_c, 9, 36, 92
1, 233279, Note_on_c, 9, 36, 0
1, 233280, Note_on_c, 9, 38, 106
1, 233280, Note_on_c, 9, 51, 104
1, 233281, Note_on_c, 9, 51, 0
1, 233339, Note_on_c, 9, 38, 0
1, 233355, Note_on_c, 9, 48, 92
1, 233399, Note_on_c, 9, 48, 0
1, 233430, Note_on_c, 9, 45, 92
1, 233489, Note_on_c, 9, 45, 0
1, 233505, Note_on_c, 9, 41, 94
1, 233519, Note_on_c, 9, 41, 0
1, 233760, Note_on_c, 9, 49, 100
1, 233760, Note_on_c, 9, 52, 100
1, 233760, Note_on_c, 9, 36, 100
1, 233782, Note_on_c, 9, 49, 0
1, 233782, Note_on_c, 9, 52, 0
1, 234239, Note_on_c, 9, 36, 0
1, 235485, Note_on_c, 9, 48, 70
1, 235499, Note_on_c, 9, 48, 0
1, 235520, Note_on_c, 9, 47, 106
1, 235559, Note_on_c, 9, 47, 0
1, 235560, Note_on_c, 9, 45, 110
1, 235605, Note_on_c, 9, 43, 95
1, 235619, Note_on_c, 9, 43, 0
1, 235650, Note_on_c, 9, 35, 127
1, 235679, Note_on_c, 9, 45, 0
1, 235679, Note_on_c, 9, 35, 0
1, 235680, End_track
0, 0, End_of_file
