0, 0, Header, 1, 1, 480
1, 0, Start_track
1, 0, Title_t, "Drumset"
1, 0, Time_signature, 4, 2, 24, 8
1, 0, Key_signature, 0, "major"
1, 0, Tempo, 480000
1, 0, Control_c, 9, 121, 0
1, 0, Program_c, 9, 0
1, 0, Control_c, 9, 7, 100
1, 0, Control_c, 9, 10, 64
1, 0, Control_c, 9, 91, 0
1, 0, Control_c, 9, 93, 0
1, 0, MIDI_port, 0
1, 3840, Note_on_c, 9, 49, 87
1, 3840, Note_on_c, 9, 49, 0
1, 3870, Note_on_c, 9, 42, 64
1, 3873, Note_on_c, 9, 42, 0
1, 4080, Note_on_c, 9, 42, 64
1, 4091, Note_on_c, 9, 42, 0
1, 4320, Note_on_c, 9, 38, 64
1, 4320, Note_on_c, 9, 42, 64
1, 4331, Note_on_c, 9, 42, 0
1, 4559, Note_on_c, 9, 38, 0
1, 4560, Note_on_c, 9, 42, 64
1, 4571, Note_on_c, 9, 42, 0
1, 4800, Note_on_c, 9, 42, 64
1, 4811, Note_on_c, 9, 42, 0
1, 5040, Note_on_c, 9, 42, 64
1, 5051, Note_on_c, 9, 42, 0
1, 5280, Note_on_c, 9, 38, 64
1, 5280, Note_on_c, 9, 42, 64
1, 5291, Note_on_c, 9, 42, 0
1, 5519, Note_on_c, 9, 38, 0
1, 5520, Note_on_c, 9, 42, 64
1, 5531, Note_on_c, 9, 42, 0
1, 5760, Note_on_c, 9, 42, 64
1, 5771, Note_on_c, 9, 42, 0
1, 6000, Note_on_c, 9, 42, 64
1, 6011, Note_on_c, 9, 42, 0
1, 6240, Note_on_c, 9, 38, 64
1, 6240, Note_on_c, 9, 42, 64
1, 6251, Note_on_c, 9, 42, 0
1, 6479, Note_on_c, 9, 38, 0
1, 6480, Note_on_c, 9, 42, 64
1, 6491, Note_on_c, 9, 42, 0
1, 6720, Note_on_c, 9, 42, 64
1, 6731, Note_on_c, 9, 42, 0
1, 6960, Note_on_c, 9, 42, 64
1, 6971, Note_on_c, 9, 42, 0
1, 7200, Note_on_c, 9, 38, 64
1, 7200, Note_on_c, 9, 42, 64
1, 7211, Note_on_c, 9, 42, 0
1, 7439, Note_on_c, 9, 38, 0
1, 7440, Note_on_c, 9, 42, 64
1, 7451, Note_on_c, 9, 42, 0
1, 7680, Note_on_c, 9, 42, 64
1, 7691, Note_on_c, 9, 42, 0
1, 7920, Note_on_c, 9, 42, 64
1, 7931, Note_on_c, 9, 42, 0
1, 8160, Note_on_c, 9, 38, 64
1, 8160, Note_on_c, 9, 42, 64
1, 8171, Note_on_c, 9, 42, 0
1, 8399, Note_on_c, 9, 38, 0
1, 8400, Note_on_c, 9, 42, 64
1, 8411, Note_on_c, 9, 42, 0
1, 8640, Note_on_c, 9, 42, 64
1, 8651, Note_on_c, 9, 42, 0
1, 8880, Note_on_c, 9, 42, 64
1, 8891, Note_on_c, 9, 42, 0
1, 9120, Note_on_c, 9, 38, 64
1, 9120, Note_on_c, 9, 42, 64
1, 9131, Note_on_c, 9, 42, 0
1, 9359, Note_on_c, 9, 38, 0
1, 9360, Note_on_c, 9, 42, 64
1, 9371, Note_on_c, 9, 42, 0
1, 9600, Note_on_c, 9, 42, 64
1, 9611, Note_on_c, 9, 42, 0
1, 9840, Note_on_c, 9, 42, 64
1, 9851, Note_on_c, 9, 42, 0
1, 10080, Note_on_c, 9, 38, 64
1, 10080, Note_on_c, 9, 42, 64
1, 10091, Note_on_c, 9, 42, 0
1, 10319, Note_on_c, 9, 38, 0
1, 10320, Note_on_c, 9, 42, 64
1, 10331, Note_on_c, 9, 42, 0
1, 10560, Note_on_c, 9, 42, 64
1, 10571, Note_on_c, 9, 42, 0
1, 10800, Note_on_c, 9, 42, 64
1, 10811, Note_on_c, 9, 42, 0
1, 11040, Note_on_c, 9, 38, 64
1, 11040, Note_on_c, 9, 42, 64
1, 11051, Note_on_c, 9, 42, 0
1, 11279, Note_on_c, 9, 38, 0
1, 11280, Note_on_c, 9, 42, 64
1, 11291, Note_on_c, 9, 42, 0
1, 11520, Note_on_c, 9, 42, 64
1, 11531, Note_on_c, 9, 42, 0
1, 11760, Note_on_c, 9, 42, 64
1, 11771, Note_on_c, 9, 42, 0
1, 12000, Note_on_c, 9, 38, 64
1, 12000, Note_on_c, 9, 42, 64
1, 12011, Note_on_c, 9, 42, 0
1, 12239, Note_on_c, 9, 38, 0
1, 12240, Note_on_c, 9, 42, 64
1, 12251, Note_on_c, 9, 42, 0
1, 12480, Note_on_c, 9, 42, 64
1, 12491, Note_on_c, 9, 42, 0
1, 12720, Note_on_c, 9, 42, 64
1, 12731, Note_on_c, 9, 42, 0
1, 12960, Note_on_c, 9, 38, 64
1, 12960, Note_on_c, 9, 42, 64
1, 12971, Note_on_c, 9, 42, 0
1, 13199, Note_on_c, 9, 38, 0
1, 13200, Note_on_c, 9, 42, 64
1, 13211, Note_on_c, 9, 42, 0
1, 13440, Note_on_c, 9, 42, 64
1, 13451, Note_on_c, 9, 42, 0
1, 13680, Note_on_c, 9, 42, 64
1, 13691, Note_on_c, 9, 42, 0
1, 13920, Note_on_c, 9, 38, 64
1, 13920, Note_on_c, 9, 42, 64
1, 13931, Note_on_c, 9, 42, 0
1, 14159, Note_on_c, 9, 38, 0
1, 14160, Note_on_c, 9, 42, 64
1, 14171, Note_on_c, 9, 42, 0
1, 14400, Note_on_c, 9, 42, 64
1, 14411, Note_on_c, 9, 42, 0
1, 14640, Note_on_c, 9, 42, 64
1, 14651, Note_on_c, 9, 42, 0
1, 14880, Note_on_c, 9, 38, 64
1, 14880, Note_on_c, 9, 42, 64
1, 14891, Note_on_c, 9, 42, 0
1, 15119, Note_on_c, 9, 38, 0
1, 15120, Note_on_c, 9, 42, 64
1, 15131, Note_on_c, 9, 42, 0
1, 15360, Note_on_c, 9, 42, 64
1, 15371, Note_on_c, 9, 42, 0
1, 15600, Note_on_c, 9, 42, 64
1, 15611, Note_on_c, 9, 42, 0
1, 15840, Note_on_c, 9, 38, 64
1, 15840, Note_on_c, 9, 42, 64
1, 15851, Note_on_c, 9, 42, 0
1, 16079, Note_on_c, 9, 38, 0
1, 16080, Note_on_c, 9, 42, 64
1, 16091, Note_on_c, 9, 42, 0
1, 16320, Note_on_c, 9, 42, 64
1, 16331, Note_on_c, 9, 42, 0
1, 16560, Note_on_c, 9, 42, 64
1, 16571, Note_on_c, 9, 42, 0
1, 16800, Note_on_c, 9, 38, 64
1, 16800, Note_on_c, 9, 42, 64
1, 16811, Note_on_c, 9, 42, 0
1, 17039, Note_on_c, 9, 38, 0
1, 17040, Note_on_c, 9, 42, 64
1, 17051, Note_on_c, 9, 42, 0
1, 17280, Note_on_c, 9, 42, 64
1, 17291, Note_on_c, 9, 42, 0
1, 17520, Note_on_c, 9, 42, 64
1, 17531, Note_on_c, 9, 42, 0
1, 17760, Note_on_c, 9, 38, 64
1, 17760, Note_on_c, 9, 42, 64
1, 17771, Note_on_c, 9, 42, 0
1, 17999, Note_on_c, 9, 38, 0
1, 18000, Note_on_c, 9, 42, 64
1, 18011, Note_on_c, 9, 42, 0
1, 18240, Note_on_c, 9, 42, 64
1, 18251, Note_on_c, 9, 42, 0
1, 18480, Note_on_c, 9, 42, 64
1, 18491, Note_on_c, 9, 42, 0
1, 18720, Note_on_c, 9, 38, 64
1, 18720, Note_on_c, 9, 42, 64
1, 18731, Note_on_c, 9, 42, 0
1, 18959, Note_on_c, 9, 38, 0
1, 18960, Note_on_c, 9, 42, 64
1, 18971, Note_on_c, 9, 42, 0
1, 19200, Note_on_c, 9, 42, 64
1, 19200, Note_on_c, 9, 49, 82
1, 19211, Note_on_c, 9, 42, 0
1, 19211, Note_on_c, 9, 49, 0
1, 19440, Note_on_c, 9, 42, 64
1, 19451, Note_on_c, 9, 42, 0
1, 19680, Note_on_c, 9, 38, 64
1, 19680, Note_on_c, 9, 42, 64
1, 19691, Note_on_c, 9, 42, 0
1, 19919, Note_on_c, 9, 38, 0
1, 19920, Note_on_c, 9, 42, 64
1, 19931, Note_on_c, 9, 42, 0
1, 20160, Note_on_c, 9, 42, 64
1, 20171, Note_on_c, 9, 42, 0
1, 20400, Note_on_c, 9, 42, 64
1, 20411, Note_on_c, 9, 42, 0
1, 20640, Note_on_c, 9, 38, 64
1, 20640, Note_on_c, 9, 42, 64
1, 20651, Note_on_c, 9, 42, 0
1, 20879, Note_on_c, 9, 38, 0
1, 20880, Note_on_c, 9, 42, 64
1, 20891, Note_on_c, 9, 42, 0
1, 21120, Note_on_c, 9, 42, 64
1, 21131, Note_on_c, 9, 42, 0
1, 21360, Note_on_c, 9, 42, 64
1, 21371, Note_on_c, 9, 42, 0
1, 21600, Note_on_c, 9, 38, 64
1, 21600, Note_on_c, 9, 42, 64
1, 21611, Note_on_c, 9, 42, 0
1, 21839, Note_on_c, 9, 38, 0
1, 21840, Note_on_c, 9, 42, 64
1, 21851, Note_on_c, 9, 42, 0
1, 22080, Note_on_c, 9, 42, 64
1, 22091, Note_on_c, 9, 42, 0
1, 22320, Note_on_c, 9, 42, 64
1, 22331, Note_on_c, 9, 42, 0
1, 22560, Note_on_c, 9, 38, 64
1, 22560, Note_on_c, 9, 42, 64
1, 22571, Note_on_c, 9, 42, 0
1, 22799, Note_on_c, 9, 38, 0
1, 22800, Note_on_c, 9, 42, 64
1, 22811, Note_on_c, 9, 42, 0
1, 23040, Note_on_c, 9, 42, 64
1, 23051, Note_on_c, 9, 42, 0
1, 23280, Note_on_c, 9, 42, 64
1, 23291, Note_on_c, 9, 42, 0
1, 23520, Note_on_c, 9, 38, 64
1, 23520, Note_on_c, 9, 42, 64
1, 23531, Note_on_c, 9, 42, 0
1, 23759, Note_on_c, 9, 38, 0
1, 23760, Note_on_c, 9, 42, 64
1, 23771, Note_on_c, 9, 42, 0
1, 24000, Note_on_c, 9, 42, 64
1, 24011, Note_on_c, 9, 42, 0
1, 24240, Note_on_c, 9, 42, 64
1, 24251, Note_on_c, 9, 42, 0
1, 24480, Note_on_c, 9, 38, 64
1, 24480, Note_on_c, 9, 42, 64
1, 24491, Note_on_c, 9, 42, 0
1, 24719, Note_on_c, 9, 38, 0
1, 24720, Note_on_c, 9, 42, 64
1, 24731, Note_on_c, 9, 42, 0
1, 24960, Note_on_c, 9, 42, 64
1, 24971, Note_on_c, 9, 42, 0
1, 25200, Note_on_c, 9, 42, 64
1, 25211, Note_on_c, 9, 42, 0
1, 25440, Note_on_c, 9, 38, 64
1, 25440, Note_on_c, 9, 42, 64
1, 25451, Note_on_c, 9, 42, 0
1, 25679, Note_on_c, 9, 38, 0
1, 25680, Note_on_c, 9, 42, 64
1, 25691, Note_on_c, 9, 42, 0
1, 25920, Note_on_c, 9, 42, 64
1, 25931, Note_on_c, 9, 42, 0
1, 26160, Note_on_c, 9, 42, 64
1, 26171, Note_on_c, 9, 42, 0
1, 26400, Note_on_c, 9, 38, 64
1, 26400, Note_on_c, 9, 42, 64
1, 26411, Note_on_c, 9, 42, 0
1, 26639, Note_on_c, 9, 38, 0
1, 26640, Note_on_c, 9, 42, 64
1, 26651, Note_on_c, 9, 42, 0
1, 26880, Note_on_c, 9, 42, 64
1, 26891, Note_on_c, 9, 42, 0
1, 27120, Note_on_c, 9, 42, 64
1, 27131, Note_on_c, 9, 42, 0
1, 27360, Note_on_c, 9, 38, 64
1, 27360, Note_on_c, 9, 42, 64
1, 27371, Note_on_c, 9, 42, 0
1, 27599, Note_on_c, 9, 38, 0
1, 27600, Note_on_c, 9, 42, 64
1, 27611, Note_on_c, 9, 42, 0
1, 27840, Note_on_c, 9, 42, 64
1, 27851, Note_on_c, 9, 42, 0
1, 28080, Note_on_c, 9, 42, 64
1, 28091, Note_on_c, 9, 42, 0
1, 28320, Note_on_c, 9, 38, 64
1, 28320, Note_on_c, 9, 42, 64
1, 28331, Note_on_c, 9, 42, 0
1, 28559, Note_on_c, 9, 38, 0
1, 28560, Note_on_c, 9, 42, 64
1, 28571, Note_on_c, 9, 42, 0
1, 28800, Note_on_c, 9, 42, 64
1, 28811, Note_on_c, 9, 42, 0
1, 29040, Note_on_c, 9, 42, 64
1, 29051, Note_on_c, 9, 42, 0
1, 29280, Note_on_c, 9, 38, 64
1, 29280, Note_on_c, 9, 42, 64
1, 29291, Note_on_c, 9, 42, 0
1, 29519, Note_on_c, 9, 38, 0
1, 29520, Note_on_c, 9, 42, 64
1, 29531, Note_on_c, 9, 42, 0
1, 29760, Note_on_c, 9, 42, 64
1, 29771, Note_on_c, 9, 42, 0
1, 30000, Note_on_c, 9, 42, 64
1, 30011, Note_on_c, 9, 42, 0
1, 30240, Note_on_c, 9, 38, 64
1, 30240, Note_on_c, 9, 42, 64
1, 30251, Note_on_c, 9, 42, 0
1, 30479, Note_on_c, 9, 38, 0
1, 30480, Note_on_c, 9, 42, 64
1, 30491, Note_on_c, 9, 42, 0
1, 30720, Note_on_c, 9, 42, 64
1, 30731, Note_on_c, 9, 42, 0
1, 30960, Note_on_c, 9, 42, 64
1, 30971, Note_on_c, 9, 42, 0
1, 31200, Note_on_c, 9, 38, 64
1, 31200, Note_on_c, 9, 42, 64
1, 31211, Note_on_c, 9, 42, 0
1, 31439, Note_on_c, 9, 38, 0
1, 31440, Note_on_c, 9, 42, 64
1, 31451, Note_on_c, 9, 42, 0
1, 31680, Note_on_c, 9, 42, 64
1, 31691, Note_on_c, 9, 42, 0
1, 31920, Note_on_c, 9, 42, 64
1, 31931, Note_on_c, 9, 42, 0
1, 32160, Note_on_c, 9, 38, 64
1, 32160, Note_on_c, 9, 42, 64
1, 32171, Note_on_c, 9, 42, 0
1, 32399, Note_on_c, 9, 38, 0
1, 32400, Note_on_c, 9, 42, 64
1, 32411, Note_on_c, 9, 42, 0
1, 32640, Note_on_c, 9, 42, 64
1, 32651, Note_on_c, 9, 42, 0
1, 32880, Note_on_c, 9, 42, 64
1, 32891, Note_on_c, 9, 42, 0
1, 33120, Note_on_c, 9, 38, 64
1, 33120, Note_on_c, 9, 42, 64
1, 33131, Note_on_c, 9, 42, 0
1, 33359, Note_on_c, 9, 38, 0
1, 33360, Note_on_c, 9, 42, 64
1, 33371, Note_on_c, 9, 42, 0
1, 33600, Note_on_c, 9, 42, 64
1, 33611, Note_on_c, 9, 42, 0
1, 33840, Note_on_c, 9, 42, 64
1, 33851, Note_on_c, 9, 42, 0
1, 34080, Note_on_c, 9, 38, 64
1, 34080, Note_on_c, 9, 42, 64
1, 34091, Note_on_c, 9, 42, 0
1, 34319, Note_on_c, 9, 38, 0
1, 34320, Note_on_c, 9, 42, 64
1, 34331, Note_on_c, 9, 42, 0
1, 34560, Note_on_c, 9, 42, 64
1, 34571, Note_on_c, 9, 42, 0
1, 34800, Note_on_c, 9, 42, 64
1, 34811, Note_on_c, 9, 42, 0
1, 35040, Note_on_c, 9, 38, 64
1, 35040, Note_on_c, 9, 42, 64
1, 35051, Note_on_c, 9, 42, 0
1, 35279, Note_on_c, 9, 38, 0
1, 35280, Note_on_c, 9, 42, 64
1, 35291, Note_on_c, 9, 42, 0
1, 35520, Note_on_c, 9, 42, 64
1, 35531, Note_on_c, 9, 42, 0
1, 35760, Note_on_c, 9, 42, 64
1, 35771, Note_on_c, 9, 42, 0
1, 36000, Note_on_c, 9, 38, 64
1, 36000, Note_on_c, 9, 42, 64
1, 36011, Note_on_c, 9, 42, 0
1, 36239, Note_on_c, 9, 38, 0
1, 36240, Note_on_c, 9, 42, 64
1, 36251, Note_on_c, 9, 42, 0
1, 36480, Note_on_c, 9, 42, 64
1, 36491, Note_on_c, 9, 42, 0
1, 36720, Note_on_c, 9, 42, 64
1, 36731, Note_on_c, 9, 42, 0
1, 36960, Note_on_c, 9, 38, 64
1, 36960, Note_on_c, 9, 42, 64
1, 36971, Note_on_c, 9, 42, 0
1, 37199, Note_on_c, 9, 38, 0
1, 37200, Note_on_c, 9, 42, 64
1, 37211, Note_on_c, 9, 42, 0
1, 37440, Note_on_c, 9, 42, 64
1, 37451, Note_on_c, 9, 42, 0
1, 37680, Note_on_c, 9, 42, 64
1, 37691, Note_on_c, 9, 42, 0
1, 37920, Note_on_c, 9, 38, 64
1, 37920, Note_on_c, 9, 42, 64
1, 37931, Note_on_c, 9, 42, 0
1, 38159, Note_on_c, 9, 38, 0
1, 38160, Note_on_c, 9, 42, 64
1, 38171, Note_on_c, 9, 42, 0
1, 38400, Note_on_c, 9, 42, 64
1, 38411, Note_on_c, 9, 42, 0
1, 38640, Note_on_c, 9, 42, 64
1, 38651, Note_on_c, 9, 42, 0
1, 38880, Note_on_c, 9, 38, 64
1, 38880, Note_on_c, 9, 42, 64
1, 38891, Note_on_c, 9, 42, 0
1, 39119, Note_on_c, 9, 38, 0
1, 39120, Note_on_c, 9, 42, 64
1, 39131, Note_on_c, 9, 42, 0
1, 39360, Note_on_c, 9, 42, 64
1, 39371, Note_on_c, 9, 42, 0
1, 39600, Note_on_c, 9, 42, 64
1, 39611, Note_on_c, 9, 42, 0
1, 39840, Note_on_c, 9, 38, 64
1, 39840, Note_on_c, 9, 42, 64
1, 39851, Note_on_c, 9, 42, 0
1, 40079, Note_on_c, 9, 38, 0
1, 40080, Note_on_c, 9, 42, 64
1, 40091, Note_on_c, 9, 42, 0
1, 40320, Note_on_c, 9, 42, 64
1, 40331, Note_on_c, 9, 42, 0
1, 40560, Note_on_c, 9, 42, 64
1, 40571, Note_on_c, 9, 42, 0
1, 40800, Note_on_c, 9, 38, 64
1, 40800, Note_on_c, 9, 42, 64
1, 40811, Note_on_c, 9, 42, 0
1, 41039, Note_on_c, 9, 38, 0
1, 41040, Note_on_c, 9, 42, 64
1, 41051, Note_on_c, 9, 42, 0
1, 41280, Note_on_c, 9, 42, 64
1, 41291, Note_on_c, 9, 42, 0
1, 41520, Note_on_c, 9, 42, 64
1, 41531, Note_on_c, 9, 42, 0
1, 41760, Note_on_c, 9, 38, 64
1, 41760, Note_on_c, 9, 42, 64
1, 41771, Note_on_c, 9, 42, 0
1, 41999, Note_on_c, 9, 38, 0
1, 42000, Note_on_c, 9, 42, 64
1, 42011, Note_on_c, 9, 42, 0
1, 42240, Note_on_c, 9, 42, 64
1, 42251, Note_on_c, 9, 42, 0
1, 42480, Note_on_c, 9, 42, 64
1, 42491, Note_on_c, 9, 42, 0
1, 42720, Note_on_c, 9, 38, 64
1, 42720, Note_on_c, 9, 42, 64
1, 42731, Note_on_c, 9, 42, 0
1, 42959, Note_on_c, 9, 38, 0
1, 42960, Note_on_c, 9, 42, 64
1, 42971, Note_on_c, 9, 42, 0
1, 43200, Note_on_c, 9, 42, 64
1, 43211, Note_on_c, 9, 42, 0
1, 43440, Note_on_c, 9, 42, 64
1, 43451, Note_on_c, 9, 42, 0
1, 43680, Note_on_c, 9, 38, 64
1, 43680, Note_on_c, 9, 42, 64
1, 43691, Note_on_c, 9, 42, 0
1, 43919, Note_on_c, 9, 38, 0
1, 43920, Note_on_c, 9, 42, 64
1, 43931, Note_on_c, 9, 42, 0
1, 44160, Note_on_c, 9, 42, 64
1, 44171, Note_on_c, 9, 42, 0
1, 44400, Note_on_c, 9, 42, 64
1, 44411, Note_on_c, 9, 42, 0
1, 44640, Note_on_c, 9, 38, 64
1, 44640, Note_on_c, 9, 42, 64
1, 44651, Note_on_c, 9, 42, 0
1, 44879, Note_on_c, 9, 38, 0
1, 44880, Note_on_c, 9, 42, 64
1, 44891, Note_on_c, 9, 42, 0
1, 45120, Note_on_c, 9, 42, 64
1, 45131, Note_on_c, 9, 42, 0
1, 45360, Note_on_c, 9, 42, 64
1, 45371, Note_on_c, 9, 42, 0
1, 45600, Note_on_c, 9, 38, 64
1, 45600, Note_on_c, 9, 42, 64
1, 45611, Note_on_c, 9, 42, 0
1, 45839, Note_on_c, 9, 38, 0
1, 45840, Note_on_c, 9, 42, 64
1, 45851, Note_on_c, 9, 42, 0
1, 46080, Note_on_c, 9, 42, 64
1, 46091, Note_on_c, 9, 42, 0
1, 46320, Note_on_c, 9, 42, 64
1, 46331, Note_on_c, 9, 42, 0
1, 46560, Note_on_c, 9, 38, 64
1, 46560, Note_on_c, 9, 42, 64
1, 46571, Note_on_c, 9, 42, 0
1, 46799, Note_on_c, 9, 38, 0
1, 46800, Note_on_c, 9, 42, 64
1, 46811, Note_on_c, 9, 42, 0
1, 47040, Note_on_c, 9, 42, 64
1, 47051, Note_on_c, 9, 42, 0
1, 47280, Note_on_c, 9, 42, 64
1, 47291, Note_on_c, 9, 42, 0
1, 47520, Note_on_c, 9, 38, 64
1, 47520, Note_on_c, 9, 42, 64
1, 47531, Note_on_c, 9, 42, 0
1, 47759, Note_on_c, 9, 38, 0
1, 47760, Note_on_c, 9, 42, 64
1, 47771, Note_on_c, 9, 42, 0
1, 48000, Note_on_c, 9, 42, 64
1, 48011, Note_on_c, 9, 42, 0
1, 48240, Note_on_c, 9, 42, 64
1, 48251, Note_on_c, 9, 42, 0
1, 48480, Note_on_c, 9, 38, 64
1, 48480, Note_on_c, 9, 42, 64
1, 48491, Note_on_c, 9, 42, 0
1, 48719, Note_on_c, 9, 38, 0
1, 48720, Note_on_c, 9, 42, 64
1, 48731, Note_on_c, 9, 42, 0
1, 48960, Note_on_c, 9, 42, 64
1, 48971, Note_on_c, 9, 42, 0
1, 49200, Note_on_c, 9, 42, 64
1, 49211, Note_on_c, 9, 42, 0
1, 49440, Note_on_c, 9, 38, 64
1, 49440, Note_on_c, 9, 42, 64
1, 49451, Note_on_c, 9, 42, 0
1, 49679, Note_on_c, 9, 38, 0
1, 49680, Note_on_c, 9, 42, 64
1, 49691, Note_on_c, 9, 42, 0
1, 49920, Note_on_c, 9, 42, 64
1, 49920, Note_on_c, 9, 49, 79
1, 49931, Note_on_c, 9, 42, 0
1, 49931, Note_on_c, 9, 49, 0
1, 50160, Note_on_c, 9, 42, 64
1, 50171, Note_on_c, 9, 42, 0
1, 50400, Note_on_c, 9, 38, 64
1, 50400, Note_on_c, 9, 42, 64
1, 50411, Note_on_c, 9, 42, 0
1, 50639, Note_on_c, 9, 38, 0
1, 50640, Note_on_c, 9, 42, 64
1, 50651, Note_on_c, 9, 42, 0
1, 50880, Note_on_c, 9, 42, 64
1, 50891, Note_on_c, 9, 42, 0
1, 51120, Note_on_c, 9, 42, 64
1, 51131, Note_on_c, 9, 42, 0
1, 51360, Note_on_c, 9, 38, 64
1, 51360, Note_on_c, 9, 42, 64
1, 51371, Note_on_c, 9, 42, 0
1, 51599, Note_on_c, 9, 38, 0
1, 51600, Note_on_c, 9, 42, 64
1, 51611, Note_on_c, 9, 42, 0
1, 51840, Note_on_c, 9, 42, 64
1, 51851, Note_on_c, 9, 42, 0
1, 52080, Note_on_c, 9, 42, 64
1, 52091, Note_on_c, 9, 42, 0
1, 52320, Note_on_c, 9, 38, 64
1, 52320, Note_on_c, 9, 42, 64
1, 52331, Note_on_c, 9, 42, 0
1, 52559, Note_on_c, 9, 38, 0
1, 52560, Note_on_c, 9, 42, 64
1, 52571, Note_on_c, 9, 42, 0
1, 52800, Note_on_c, 9, 42, 64
1, 52811, Note_on_c, 9, 42, 0
1, 53040, Note_on_c, 9, 42, 64
1, 53051, Note_on_c, 9, 42, 0
1, 53280, Note_on_c, 9, 38, 64
1, 53280, Note_on_c, 9, 42, 64
1, 53291, Note_on_c, 9, 42, 0
1, 53519, Note_on_c, 9, 38, 0
1, 53520, Note_on_c, 9, 42, 64
1, 53531, Note_on_c, 9, 42, 0
1, 53760, Note_on_c, 9, 42, 64
1, 53771, Note_on_c, 9, 42, 0
1, 54000, Note_on_c, 9, 42, 64
1, 54011, Note_on_c, 9, 42, 0
1, 54240, Note_on_c, 9, 38, 64
1, 54240, Note_on_c, 9, 42, 64
1, 54251, Note_on_c, 9, 42, 0
1, 54479, Note_on_c, 9, 38, 0
1, 54480, Note_on_c, 9, 42, 64
1, 54491, Note_on_c, 9, 42, 0
1, 54720, Note_on_c, 9, 42, 64
1, 54731, Note_on_c, 9, 42, 0
1, 54960, Note_on_c, 9, 42, 64
1, 54971, Note_on_c, 9, 42, 0
1, 55200, Note_on_c, 9, 38, 64
1, 55200, Note_on_c, 9, 42, 64
1, 55211, Note_on_c, 9, 42, 0
1, 55439, Note_on_c, 9, 38, 0
1, 55440, Note_on_c, 9, 42, 64
1, 55451, Note_on_c, 9, 42, 0
1, 55680, Note_on_c, 9, 42, 64
1, 55691, Note_on_c, 9, 42, 0
1, 55920, Note_on_c, 9, 42, 64
1, 55931, Note_on_c, 9, 42, 0
1, 56160, Note_on_c, 9, 38, 64
1, 56160, Note_on_c, 9, 42, 64
1, 56171, Note_on_c, 9, 42, 0
1, 56399, Note_on_c, 9, 38, 0
1, 56400, Note_on_c, 9, 42, 64
1, 56411, Note_on_c, 9, 42, 0
1, 56640, Note_on_c, 9, 42, 64
1, 56651, Note_on_c, 9, 42, 0
1, 56880, Note_on_c, 9, 42, 64
1, 56891, Note_on_c, 9, 42, 0
1, 57120, Note_on_c, 9, 38, 64
1, 57120, Note_on_c, 9, 42, 64
1, 57131, Note_on_c, 9, 42, 0
1, 57359, Note_on_c, 9, 38, 0
1, 57360, Note_on_c, 9, 42, 64
1, 57371, Note_on_c, 9, 42, 0
1, 57600, Note_on_c, 9, 42, 64
1, 57611, Note_on_c, 9, 42, 0
1, 57840, Note_on_c, 9, 42, 64
1, 57851, Note_on_c, 9, 42, 0
1, 58080, Note_on_c, 9, 38, 64
1, 58080, Note_on_c, 9, 42, 64
1, 58091, Note_on_c, 9, 42, 0
1, 58319, Note_on_c, 9, 38, 0
1, 58320, Note_on_c, 9, 42, 64
1, 58331, Note_on_c, 9, 42, 0
1, 58560, Note_on_c, 9, 42, 64
1, 58571, Note_on_c, 9, 42, 0
1, 58800, Note_on_c, 9, 42, 64
1, 58811, Note_on_c, 9, 42, 0
1, 59040, Note_on_c, 9, 38, 64
1, 59040, Note_on_c, 9, 42, 64
1, 59051, Note_on_c, 9, 42, 0
1, 59279, Note_on_c, 9, 38, 0
1, 59280, Note_on_c, 9, 42, 64
1, 59291, Note_on_c, 9, 42, 0
1, 59520, Note_on_c, 9, 42, 64
1, 59531, Note_on_c, 9, 42, 0
1, 59760, Note_on_c, 9, 42, 64
1, 59771, Note_on_c, 9, 42, 0
1, 60000, Note_on_c, 9, 38, 64
1, 60000, Note_on_c, 9, 42, 64
1, 60011, Note_on_c, 9, 42, 0
1, 60239, Note_on_c, 9, 38, 0
1, 60240, Note_on_c, 9, 42, 64
1, 60251, Note_on_c, 9, 42, 0
1, 60480, Note_on_c, 9, 42, 64
1, 60491, Note_on_c, 9, 42, 0
1, 60720, Note_on_c, 9, 42, 64
1, 60731, Note_on_c, 9, 42, 0
1, 60960, Note_on_c, 9, 38, 64
1, 60960, Note_on_c, 9, 42, 64
1, 60971, Note_on_c, 9, 42, 0
1, 61199, Note_on_c, 9, 38, 0
1, 61200, Note_on_c, 9, 42, 64
1, 61211, Note_on_c, 9, 42, 0
1, 61440, Note_on_c, 9, 42, 64
1, 61451, Note_on_c, 9, 42, 0
1, 61680, Note_on_c, 9, 42, 64
1, 61691, Note_on_c, 9, 42, 0
1, 61920, Note_on_c, 9, 38, 64
1, 61920, Note_on_c, 9, 42, 64
1, 61931, Note_on_c, 9, 42, 0
1, 62159, Note_on_c, 9, 38, 0
1, 62160, Note_on_c, 9, 42, 64
1, 62171, Note_on_c, 9, 42, 0
1, 62400, Note_on_c, 9, 42, 64
1, 62411, Note_on_c, 9, 42, 0
1, 62640, Note_on_c, 9, 42, 64
1, 62651, Note_on_c, 9, 42, 0
1, 62880, Note_on_c, 9, 38, 64
1, 62880, Note_on_c, 9, 42, 64
1, 62891, Note_on_c, 9, 42, 0
1, 63119, Note_on_c, 9, 38, 0
1, 63120, Note_on_c, 9, 42, 64
1, 63131, Note_on_c, 9, 42, 0
1, 63360, Note_on_c, 9, 42, 64
1, 63371, Note_on_c, 9, 42, 0
1, 63600, Note_on_c, 9, 42, 64
1, 63611, Note_on_c, 9, 42, 0
1, 63840, Note_on_c, 9, 38, 64
1, 63840, Note_on_c, 9, 42, 64
1, 63851, Note_on_c, 9, 42, 0
1, 64079, Note_on_c, 9, 38, 0
1, 64080, Note_on_c, 9, 42, 64
1, 64091, Note_on_c, 9, 42, 0
1, 64320, Note_on_c, 9, 42, 64
1, 64331, Note_on_c, 9, 42, 0
1, 64560, Note_on_c, 9, 42, 64
1, 64571, Note_on_c, 9, 42, 0
1, 64800, Note_on_c, 9, 38, 64
1, 64800, Note_on_c, 9, 42, 64
1, 64811, Note_on_c, 9, 42, 0
1, 65039, Note_on_c, 9, 38, 0
1, 65040, Note_on_c, 9, 42, 64
1, 65051, Note_on_c, 9, 42, 0
1, 65280, Note_on_c, 9, 42, 64
1, 65291, Note_on_c, 9, 42, 0
1, 65520, Note_on_c, 9, 42, 64
1, 65531, Note_on_c, 9, 42, 0
1, 65760, Note_on_c, 9, 38, 64
1, 65760, Note_on_c, 9, 42, 64
1, 65771, Note_on_c, 9, 42, 0
1, 65999, Note_on_c, 9, 38, 0
1, 66000, Note_on_c, 9, 42, 64
1, 66011, Note_on_c, 9, 42, 0
1, 66240, Note_on_c, 9, 42, 64
1, 66251, Note_on_c, 9, 42, 0
1, 66480, Note_on_c, 9, 42, 64
1, 66491, Note_on_c, 9, 42, 0
1, 66720, Note_on_c, 9, 38, 64
1, 66720, Note_on_c, 9, 42, 64
1, 66731, Note_on_c, 9, 42, 0
1, 66959, Note_on_c, 9, 38, 0
1, 66960, Note_on_c, 9, 42, 64
1, 66971, Note_on_c, 9, 42, 0
1, 67200, Note_on_c, 9, 42, 64
1, 67211, Note_on_c, 9, 42, 0
1, 67440, Note_on_c, 9, 42, 64
1, 67451, Note_on_c, 9, 42, 0
1, 67680, Note_on_c, 9, 38, 64
1, 67680, Note_on_c, 9, 42, 64
1, 67691, Note_on_c, 9, 42, 0
1, 67919, Note_on_c, 9, 38, 0
1, 67920, Note_on_c, 9, 42, 64
1, 67931, Note_on_c, 9, 42, 0
1, 68160, Note_on_c, 9, 42, 64
1, 68171, Note_on_c, 9, 42, 0
1, 68400, Note_on_c, 9, 42, 64
1, 68411, Note_on_c, 9, 42, 0
1, 68640, Note_on_c, 9, 38, 64
1, 68640, Note_on_c, 9, 42, 64
1, 68651, Note_on_c, 9, 42, 0
1, 68879, Note_on_c, 9, 38, 0
1, 68880, Note_on_c, 9, 42, 64
1, 68891, Note_on_c, 9, 42, 0
1, 69120, Note_on_c, 9, 42, 64
1, 69131, Note_on_c, 9, 42, 0
1, 69360, Note_on_c, 9, 42, 64
1, 69371, Note_on_c, 9, 42, 0
1, 69600, Note_on_c, 9, 38, 64
1, 69600, Note_on_c, 9, 42, 64
1, 69611, Note_on_c, 9, 42, 0
1, 69839, Note_on_c, 9, 38, 0
1, 69840, Note_on_c, 9, 42, 64
1, 69851, Note_on_c, 9, 42, 0
1, 70080, Note_on_c, 9, 42, 64
1, 70091, Note_on_c, 9, 42, 0
1, 70320, Note_on_c, 9, 42, 64
1, 70331, Note_on_c, 9, 42, 0
1, 70560, Note_on_c, 9, 38, 64
1, 70560, Note_on_c, 9, 42, 64
1, 70571, Note_on_c, 9, 42, 0
1, 70799, Note_on_c, 9, 38, 0
1, 70800, Note_on_c, 9, 42, 64
1, 70811, Note_on_c, 9, 42, 0
1, 71040, Note_on_c, 9, 42, 64
1, 71051, Note_on_c, 9, 42, 0
1, 71280, Note_on_c, 9, 42, 64
1, 71291, Note_on_c, 9, 42, 0
1, 71520, Note_on_c, 9, 38, 64
1, 71520, Note_on_c, 9, 42, 64
1, 71531, Note_on_c, 9, 42, 0
1, 71759, Note_on_c, 9, 38, 0
1, 71760, Note_on_c, 9, 42, 64
1, 71771, Note_on_c, 9, 42, 0
1, 72000, Note_on_c, 9, 42, 64
1, 72011, Note_on_c, 9, 42, 0
1, 72240, Note_on_c, 9, 42, 64
1, 72251, Note_on_c, 9, 42, 0
1, 72480, Note_on_c, 9, 38, 64
1, 72480, Note_on_c, 9, 42, 64
1, 72491, Note_on_c, 9, 42, 0
1, 72719, Note_on_c, 9, 38, 0
1, 72720, Note_on_c, 9, 42, 64
1, 72731, Note_on_c, 9, 42, 0
1, 72960, Note_on_c, 9, 42, 64
1, 72971, Note_on_c, 9, 42, 0
1, 73200, Note_on_c, 9, 42, 64
1, 73211, Note_on_c, 9, 42, 0
1, 73440, Note_on_c, 9, 38, 64
1, 73440, Note_on_c, 9, 42, 64
1, 73451, Note_on_c, 9, 42, 0
1, 73679, Note_on_c, 9, 38, 0
1, 73680, Note_on_c, 9, 42, 64
1, 73691, Note_on_c, 9, 42, 0
1, 73920, Note_on_c, 9, 42, 64
1, 73931, Note_on_c, 9, 42, 0
1, 74160, Note_on_c, 9, 42, 64
1, 74171, Note_on_c, 9, 42, 0
1, 74400, Note_on_c, 9, 38, 64
1, 74400, Note_on_c, 9, 42, 64
1, 74411, Note_on_c, 9, 42, 0
1, 74639, Note_on_c, 9, 38, 0
1, 74640, Note_on_c, 9, 42, 64
1, 74651, Note_on_c, 9, 42, 0
1, 74880, Note_on_c, 9, 42, 64
1, 74891, Note_on_c, 9, 42, 0
1, 75120, Note_on_c, 9, 42, 64
1, 75131, Note_on_c, 9, 42, 0
1, 75360, Note_on_c, 9, 38, 64
1, 75360, Note_on_c, 9, 42, 64
1, 75371, Note_on_c, 9, 42, 0
1, 75599, Note_on_c, 9, 38, 0
1, 75600, Note_on_c, 9, 42, 64
1, 75611, Note_on_c, 9, 42, 0
1, 75840, Note_on_c, 9, 42, 64
1, 75851, Note_on_c, 9, 42, 0
1, 76080, Note_on_c, 9, 42, 64
1, 76091, Note_on_c, 9, 42, 0
1, 76320, Note_on_c, 9, 38, 64
1, 76320, Note_on_c, 9, 42, 64
1, 76331, Note_on_c, 9, 42, 0
1, 76559, Note_on_c, 9, 38, 0
1, 76560, Note_on_c, 9, 42, 64
1, 76571, Note_on_c, 9, 42, 0
1, 76800, Note_on_c, 9, 42, 64
1, 76811, Note_on_c, 9, 42, 0
1, 77040, Note_on_c, 9, 42, 64
1, 77051, Note_on_c, 9, 42, 0
1, 77280, Note_on_c, 9, 38, 64
1, 77280, Note_on_c, 9, 42, 64
1, 77291, Note_on_c, 9, 42, 0
1, 77519, Note_on_c, 9, 38, 0
1, 77520, Note_on_c, 9, 42, 64
1, 77531, Note_on_c, 9, 42, 0
1, 77760, Note_on_c, 9, 42, 64
1, 77771, Note_on_c, 9, 42, 0
1, 78000, Note_on_c, 9, 42, 64
1, 78011, Note_on_c, 9, 42, 0
1, 78240, Note_on_c, 9, 38, 64
1, 78240, Note_on_c, 9, 42, 64
1, 78251, Note_on_c, 9, 42, 0
1, 78479, Note_on_c, 9, 38, 0
1, 78480, Note_on_c, 9, 42, 64
1, 78491, Note_on_c, 9, 42, 0
1, 78720, Note_on_c, 9, 42, 64
1, 78731, Note_on_c, 9, 42, 0
1, 78960, Note_on_c, 9, 42, 64
1, 78971, Note_on_c, 9, 42, 0
1, 79200, Note_on_c, 9, 38, 64
1, 79200, Note_on_c, 9, 42, 64
1, 79211, Note_on_c, 9, 42, 0
1, 79439, Note_on_c, 9, 38, 0
1, 79440, Note_on_c, 9, 42, 64
1, 79451, Note_on_c, 9, 42, 0
1, 79680, Note_on_c, 9, 42, 64
1, 79691, Note_on_c, 9, 42, 0
1, 79920, Note_on_c, 9, 42, 64
1, 79931, Note_on_c, 9, 42, 0
1, 80160, Note_on_c, 9, 38, 64
1, 80160, Note_on_c, 9, 42, 64
1, 80171, Note_on_c, 9, 42, 0
1, 80399, Note_on_c, 9, 38, 0
1, 80400, Note_on_c, 9, 42, 64
1, 80411, Note_on_c, 9, 42, 0
1, 80640, Note_on_c, 9, 42, 64
1, 80640, Note_on_c, 9, 49, 79
1, 80651, Note_on_c, 9, 42, 0
1, 80651, Note_on_c, 9, 49, 0
1, 80880, Note_on_c, 9, 42, 64
1, 80891, Note_on_c, 9, 42, 0
1, 81120, Note_on_c, 9, 38, 64
1, 81120, Note_on_c, 9, 42, 64
1, 81131, Note_on_c, 9, 42, 0
1, 81359, Note_on_c, 9, 38, 0
1, 81360, Note_on_c, 9, 42, 64
1, 81371, Note_on_c, 9, 42, 0
1, 81600, Note_on_c, 9, 42, 64
1, 81611, Note_on_c, 9, 42, 0
1, 81840, Note_on_c, 9, 42, 64
1, 81851, Note_on_c, 9, 42, 0
1, 82080, Note_on_c, 9, 38, 64
1, 82080, Note_on_c, 9, 42, 64
1, 82091, Note_on_c, 9, 42, 0
1, 82319, Note_on_c, 9, 38, 0
1, 82320, Note_on_c, 9, 42, 64
1, 82331, Note_on_c, 9, 42, 0
1, 82560, Note_on_c, 9, 42, 64
1, 82571, Note_on_c, 9, 42, 0
1, 82800, Note_on_c, 9, 42, 64
1, 82811, Note_on_c, 9, 42, 0
1, 83040, Note_on_c, 9, 38, 64
1, 83040, Note_on_c, 9, 42, 64
1, 83051, Note_on_c, 9, 42, 0
1, 83279, Note_on_c, 9, 38, 0
1, 83280, Note_on_c, 9, 42, 64
1, 83291, Note_on_c, 9, 42, 0
1, 83520, Note_on_c, 9, 42, 64
1, 83531, Note_on_c, 9, 42, 0
1, 83760, Note_on_c, 9, 42, 64
1, 83771, Note_on_c, 9, 42, 0
1, 84000, Note_on_c, 9, 38, 64
1, 84000, Note_on_c, 9, 42, 64
1, 84011, Note_on_c, 9, 42, 0
1, 84239, Note_on_c, 9, 38, 0
1, 84240, Note_on_c, 9, 42, 64
1, 84251, Note_on_c, 9, 42, 0
1, 84480, Note_on_c, 9, 42, 64
1, 84491, Note_on_c, 9, 42, 0
1, 84720, Note_on_c, 9, 42, 64
1, 84731, Note_on_c, 9, 42, 0
1, 84960, Note_on_c, 9, 38, 64
1, 84960, Note_on_c, 9, 42, 64
1, 84971, Note_on_c, 9, 42, 0
1, 85199, Note_on_c, 9, 38, 0
1, 85200, Note_on_c, 9, 42, 64
1, 85211, Note_on_c, 9, 42, 0
1, 85440, Note_on_c, 9, 42, 64
1, 85451, Note_on_c, 9, 42, 0
1, 85680, Note_on_c, 9, 42, 64
1, 85691, Note_on_c, 9, 42, 0
1, 85920, Note_on_c, 9, 38, 64
1, 85920, Note_on_c, 9, 42, 64
1, 85931, Note_on_c, 9, 42, 0
1, 86159, Note_on_c, 9, 38, 0
1, 86160, Note_on_c, 9, 42, 64
1, 86171, Note_on_c, 9, 42, 0
1, 86400, Note_on_c, 9, 42, 64
1, 86411, Note_on_c, 9, 42, 0
1, 86640, Note_on_c, 9, 42, 64
1, 86651, Note_on_c, 9, 42, 0
1, 86880, Note_on_c, 9, 38, 64
1, 86880, Note_on_c, 9, 42, 64
1, 86891, Note_on_c, 9, 42, 0
1, 87119, Note_on_c, 9, 38, 0
1, 87120, Note_on_c, 9, 42, 64
1, 87131, Note_on_c, 9, 42, 0
1, 87360, Note_on_c, 9, 42, 64
1, 87371, Note_on_c, 9, 42, 0
1, 87600, Note_on_c, 9, 42, 64
1, 87611, Note_on_c, 9, 42, 0
1, 87840, Note_on_c, 9, 38, 64
1, 87840, Note_on_c, 9, 42, 64
1, 87851, Note_on_c, 9, 42, 0
1, 88079, Note_on_c, 9, 38, 0
1, 88080, Note_on_c, 9, 42, 64
1, 88091, Note_on_c, 9, 42, 0
1, 88320, Note_on_c, 9, 42, 64
1, 88331, Note_on_c, 9, 42, 0
1, 88560, Note_on_c, 9, 42, 64
1, 88571, Note_on_c, 9, 42, 0
1, 88800, Note_on_c, 9, 38, 64
1, 88800, Note_on_c, 9, 42, 64
1, 88811, Note_on_c, 9, 42, 0
1, 89039, Note_on_c, 9, 38, 0
1, 89040, Note_on_c, 9, 42, 64
1, 89051, Note_on_c, 9, 42, 0
1, 89280, Note_on_c, 9, 42, 64
1, 89291, Note_on_c, 9, 42, 0
1, 89520, Note_on_c, 9, 42, 64
1, 89531, Note_on_c, 9, 42, 0
1, 89760, Note_on_c, 9, 38, 64
1, 89760, Note_on_c, 9, 42, 64
1, 89771, Note_on_c, 9, 42, 0
1, 89999, Note_on_c, 9, 38, 0
1, 90000, Note_on_c, 9, 42, 64
1, 90011, Note_on_c, 9, 42, 0
1, 90240, Note_on_c, 9, 42, 64
1, 90251, Note_on_c, 9, 42, 0
1, 90480, Note_on_c, 9, 42, 64
1, 90491, Note_on_c, 9, 42, 0
1, 90720, Note_on_c, 9, 38, 64
1, 90720, Note_on_c, 9, 42, 64
1, 90731, Note_on_c, 9, 42, 0
1, 90959, Note_on_c, 9, 38, 0
1, 90960, Note_on_c, 9, 42, 64
1, 90971, Note_on_c, 9, 42, 0
1, 91200, Note_on_c, 9, 42, 64
1, 91211, Note_on_c, 9, 42, 0
1, 91440, Note_on_c, 9, 42, 64
1, 91451, Note_on_c, 9, 42, 0
1, 91680, Note_on_c, 9, 38, 64
1, 91680, Note_on_c, 9, 42, 64
1, 91691, Note_on_c, 9, 42, 0
1, 91919, Note_on_c, 9, 38, 0
1, 91920, Note_on_c, 9, 42, 64
1, 91931, Note_on_c, 9, 42, 0
1, 92160, Note_on_c, 9, 42, 64
1, 92171, Note_on_c, 9, 42, 0
1, 92400, Note_on_c, 9, 42, 64
1, 92411, Note_on_c, 9, 42, 0
1, 92640, Note_on_c, 9, 38, 64
1, 92640, Note_on_c, 9, 42, 64
1, 92651, Note_on_c, 9, 42, 0
1, 92879, Note_on_c, 9, 38, 0
1, 92880, Note_on_c, 9, 42, 64
1, 92891, Note_on_c, 9, 42, 0
1, 93120, Note_on_c, 9, 42, 64
1, 93131, Note_on_c, 9, 42, 0
1, 93360, Note_on_c, 9, 42, 64
1, 93371, Note_on_c, 9, 42, 0
1, 93600, Note_on_c, 9, 38, 64
1, 93600, Note_on_c, 9, 42, 64
1, 93611, Note_on_c, 9, 42, 0
1, 93839, Note_on_c, 9, 38, 0
1, 93840, Note_on_c, 9, 42, 64
1, 93851, Note_on_c, 9, 42, 0
1, 94080, Note_on_c, 9, 42, 64
1, 94091, Note_on_c, 9, 42, 0
1, 94320, Note_on_c, 9, 42, 64
1, 94331, Note_on_c, 9, 42, 0
1, 94560, Note_on_c, 9, 38, 64
1, 94560, Note_on_c, 9, 42, 64
1, 94571, Note_on_c, 9, 42, 0
1, 94799, Note_on_c, 9, 38, 0
1, 94800, Note_on_c, 9, 42, 64
1, 94811, Note_on_c, 9, 42, 0
1, 95040, Note_on_c, 9, 42, 64
1, 95051, Note_on_c, 9, 42, 0
1, 95280, Note_on_c, 9, 42, 64
1, 95291, Note_on_c, 9, 42, 0
1, 95520, Note_on_c, 9, 38, 64
1, 95520, Note_on_c, 9, 42, 64
1, 95531, Note_on_c, 9, 42, 0
1, 95759, Note_on_c, 9, 38, 0
1, 95760, Note_on_c, 9, 42, 64
1, 95771, Note_on_c, 9, 42, 0
1, 96000, Note_on_c, 9, 42, 64
1, 96011, Note_on_c, 9, 42, 0
1, 96240, Note_on_c, 9, 42, 64
1, 96251, Note_on_c, 9, 42, 0
1, 96480, Note_on_c, 9, 38, 64
1, 96480, Note_on_c, 9, 42, 64
1, 96491, Note_on_c, 9, 42, 0
1, 96719, Note_on_c, 9, 38, 0
1, 96720, Note_on_c, 9, 42, 64
1, 96731, Note_on_c, 9, 42, 0
1, 96960, Note_on_c, 9, 42, 64
1, 96971, Note_on_c, 9, 42, 0
1, 97200, Note_on_c, 9, 42, 64
1, 97211, Note_on_c, 9, 42, 0
1, 97440, Note_on_c, 9, 38, 64
1, 97440, Note_on_c, 9, 42, 64
1, 97451, Note_on_c, 9, 42, 0
1, 97679, Note_on_c, 9, 38, 0
1, 97680, Note_on_c, 9, 42, 64
1, 97691, Note_on_c, 9, 42, 0
1, 97920, Note_on_c, 9, 42, 64
1, 97931, Note_on_c, 9, 42, 0
1, 98160, Note_on_c, 9, 42, 64
1, 98171, Note_on_c, 9, 42, 0
1, 98400, Note_on_c, 9, 38, 64
1, 98400, Note_on_c, 9, 42, 64
1, 98411, Note_on_c, 9, 42, 0
1, 98639, Note_on_c, 9, 38, 0
1, 98640, Note_on_c, 9, 42, 64
1, 98651, Note_on_c, 9, 42, 0
1, 98880, Note_on_c, 9, 42, 64
1, 98891, Note_on_c, 9, 42, 0
1, 99120, Note_on_c, 9, 42, 64
1, 99131, Note_on_c, 9, 42, 0
1, 99360, Note_on_c, 9, 38, 64
1, 99360, Note_on_c, 9, 42, 64
1, 99371, Note_on_c, 9, 42, 0
1, 99599, Note_on_c, 9, 38, 0
1, 99600, Note_on_c, 9, 42, 64
1, 99611, Note_on_c, 9, 42, 0
1, 99840, Note_on_c, 9, 42, 64
1, 99851, Note_on_c, 9, 42, 0
1, 100080, Note_on_c, 9, 42, 64
1, 100091, Note_on_c, 9, 42, 0
1, 100320, Note_on_c, 9, 38, 64
1, 100320, Note_on_c, 9, 42, 64
1, 100331, Note_on_c, 9, 42, 0
1, 100559, Note_on_c, 9, 38, 0
1, 100560, Note_on_c, 9, 42, 64
1, 100571, Note_on_c, 9, 42, 0
1, 100800, Note_on_c, 9, 42, 64
1, 100811, Note_on_c, 9, 42, 0
1, 101040, Note_on_c, 9, 42, 64
1, 101051, Note_on_c, 9, 42, 0
1, 101280, Note_on_c, 9, 38, 64
1, 101280, Note_on_c, 9, 42, 64
1, 101291, Note_on_c, 9, 42, 0
1, 101519, Note_on_c, 9, 38, 0
1, 101520, Note_on_c, 9, 42, 64
1, 101531, Note_on_c, 9, 42, 0
1, 101760, Note_on_c, 9, 42, 64
1, 101771, Note_on_c, 9, 42, 0
1, 102000, Note_on_c, 9, 42, 64
1, 102011, Note_on_c, 9, 42, 0
1, 102240, Note_on_c, 9, 38, 64
1, 102240, Note_on_c, 9, 42, 64
1, 102251, Note_on_c, 9, 42, 0
1, 102479, Note_on_c, 9, 38, 0
1, 102480, Note_on_c, 9, 42, 64
1, 102491, Note_on_c, 9, 42, 0
1, 102720, Note_on_c, 9, 42, 64
1, 102731, Note_on_c, 9, 42, 0
1, 102960, Note_on_c, 9, 42, 64
1, 102971, Note_on_c, 9, 42, 0
1, 103200, Note_on_c, 9, 38, 64
1, 103200, Note_on_c, 9, 42, 64
1, 103211, Note_on_c, 9, 42, 0
1, 103439, Note_on_c, 9, 38, 0
1, 103440, Note_on_c, 9, 42, 64
1, 103451, Note_on_c, 9, 42, 0
1, 103680, Note_on_c, 9, 42, 64
1, 103691, Note_on_c, 9, 42, 0
1, 103920, Note_on_c, 9, 42, 64
1, 103931, Note_on_c, 9, 42, 0
1, 104160, Note_on_c, 9, 38, 64
1, 104160, Note_on_c, 9, 42, 64
1, 104171, Note_on_c, 9, 42, 0
1, 104399, Note_on_c, 9, 38, 0
1, 104400, Note_on_c, 9, 42, 64
1, 104411, Note_on_c, 9, 42, 0
1, 104640, Note_on_c, 9, 42, 64
1, 104651, Note_on_c, 9, 42, 0
1, 104880, Note_on_c, 9, 42, 64
1, 104891, Note_on_c, 9, 42, 0
1, 105120, Note_on_c, 9, 38, 64
1, 105120, Note_on_c, 9, 42, 64
1, 105131, Note_on_c, 9, 42, 0
1, 105359, Note_on_c, 9, 38, 0
1, 105360, Note_on_c, 9, 42, 64
1, 105371, Note_on_c, 9, 42, 0
1, 105600, Note_on_c, 9, 42, 64
1, 105611, Note_on_c, 9, 42, 0
1, 105840, Note_on_c, 9, 42, 64
1, 105851, Note_on_c, 9, 42, 0
1, 106080, Note_on_c, 9, 38, 64
1, 106080, Note_on_c, 9, 42, 64
1, 106091, Note_on_c, 9, 42, 0
1, 106319, Note_on_c, 9, 38, 0
1, 106320, Note_on_c, 9, 42, 64
1, 106331, Note_on_c, 9, 42, 0
1, 106560, Note_on_c, 9, 42, 64
1, 106571, Note_on_c, 9, 42, 0
1, 106800, Note_on_c, 9, 42, 64
1, 106811, Note_on_c, 9, 42, 0
1, 107040, Note_on_c, 9, 38, 64
1, 107040, Note_on_c, 9, 42, 64
1, 107051, Note_on_c, 9, 42, 0
1, 107279, Note_on_c, 9, 38, 0
1, 107280, Note_on_c, 9, 42, 64
1, 107291, Note_on_c, 9, 42, 0
1, 107520, Note_on_c, 9, 42, 64
1, 107531, Note_on_c, 9, 42, 0
1, 107760, Note_on_c, 9, 42, 64
1, 107771, Note_on_c, 9, 42, 0
1, 108000, Note_on_c, 9, 38, 64
1, 108000, Note_on_c, 9, 42, 64
1, 108011, Note_on_c, 9, 42, 0
1, 108239, Note_on_c, 9, 38, 0
1, 108240, Note_on_c, 9, 42, 64
1, 108251, Note_on_c, 9, 42, 0
1, 108480, Note_on_c, 9, 42, 64
1, 108491, Note_on_c, 9, 42, 0
1, 108720, Note_on_c, 9, 42, 64
1, 108731, Note_on_c, 9, 42, 0
1, 108960, Note_on_c, 9, 38, 64
1, 108960, Note_on_c, 9, 42, 64
1, 108971, Note_on_c, 9, 42, 0
1, 109199, Note_on_c, 9, 38, 0
1, 109200, Note_on_c, 9, 42, 64
1, 109211, Note_on_c, 9, 42, 0
1, 109440, Note_on_c, 9, 42, 64
1, 109451, Note_on_c, 9, 42, 0
1, 109680, Note_on_c, 9, 42, 64
1, 109691, Note_on_c, 9, 42, 0
1, 109920, Note_on_c, 9, 38, 64
1, 109920, Note_on_c, 9, 42, 64
1, 109931, Note_on_c, 9, 42, 0
1, 110159, Note_on_c, 9, 38, 0
1, 110160, Note_on_c, 9, 42, 64
1, 110171, Note_on_c, 9, 42, 0
1, 110400, Note_on_c, 9, 42, 64
1, 110411, Note_on_c, 9, 42, 0
1, 110640, Note_on_c, 9, 42, 64
1, 110651, Note_on_c, 9, 42, 0
1, 110880, Note_on_c, 9, 38, 64
1, 110880, Note_on_c, 9, 42, 64
1, 110891, Note_on_c, 9, 42, 0
1, 111119, Note_on_c, 9, 38, 0
1, 111120, Note_on_c, 9, 42, 64
1, 111131, Note_on_c, 9, 42, 0
1, 111360, Note_on_c, 9, 42, 64
1, 111371, Note_on_c, 9, 42, 0
1, 111600, Note_on_c, 9, 42, 64
1, 111611, Note_on_c, 9, 42, 0
1, 111840, Note_on_c, 9, 38, 64
1, 111840, Note_on_c, 9, 42, 64
1, 111851, Note_on_c, 9, 42, 0
1, 112079, Note_on_c, 9, 38, 0
1, 112080, Note_on_c, 9, 42, 64
1, 112091, Note_on_c, 9, 42, 0
1, 112320, Note_on_c, 9, 42, 64
1, 112331, Note_on_c, 9, 42, 0
1, 112560, Note_on_c, 9, 42, 64
1, 112571, Note_on_c, 9, 42, 0
1, 112800, Note_on_c, 9, 38, 64
1, 112800, Note_on_c, 9, 42, 64
1, 112811, Note_on_c, 9, 42, 0
1, 113039, Note_on_c, 9, 38, 0
1, 113040, Note_on_c, 9, 42, 64
1, 113051, Note_on_c, 9, 42, 0
1, 113280, Note_on_c, 9, 42, 64
1, 113291, Note_on_c, 9, 42, 0
1, 113520, Note_on_c, 9, 42, 64
1, 113531, Note_on_c, 9, 42, 0
1, 113760, Note_on_c, 9, 38, 64
1, 113760, Note_on_c, 9, 42, 64
1, 113771, Note_on_c, 9, 42, 0
1, 113999, Note_on_c, 9, 38, 0
1, 114000, Note_on_c, 9, 42, 64
1, 114011, Note_on_c, 9, 42, 0
1, 114240, Note_on_c, 9, 42, 64
1, 114251, Note_on_c, 9, 42, 0
1, 114480, Note_on_c, 9, 42, 64
1, 114491, Note_on_c, 9, 42, 0
1, 114720, Note_on_c, 9, 38, 64
1, 114720, Note_on_c, 9, 42, 64
1, 114731, Note_on_c, 9, 42, 0
1, 114959, Note_on_c, 9, 38, 0
1, 114960, Note_on_c, 9, 42, 64
1, 114971, Note_on_c, 9, 42, 0
1, 115200, Note_on_c, 9, 42, 64
1, 115211, Note_on_c, 9, 42, 0
1, 115440, Note_on_c, 9, 42, 64
1, 115451, Note_on_c, 9, 42, 0
1, 115680, Note_on_c, 9, 38, 64
1, 115680, Note_on_c, 9, 42, 64
1, 115691, Note_on_c, 9, 42, 0
1, 115919, Note_on_c, 9, 38, 0
1, 115920, Note_on_c, 9, 42, 64
1, 115931, Note_on_c, 9, 42, 0
1, 116160, Note_on_c, 9, 42, 64
1, 116171, Note_on_c, 9, 42, 0
1, 116400, Note_on_c, 9, 42, 64
1, 116411, Note_on_c, 9, 42, 0
1, 116640, Note_on_c, 9, 38, 64
1, 116640, Note_on_c, 9, 42, 64
1, 116651, Note_on_c, 9, 42, 0
1, 116879, Note_on_c, 9, 38, 0
1, 116880, Note_on_c, 9, 42, 64
1, 116891, Note_on_c, 9, 42, 0
1, 117120, Note_on_c, 9, 42, 64
1, 117131, Note_on_c, 9, 42, 0
1, 117360, Note_on_c, 9, 42, 64
1, 117371, Note_on_c, 9, 42, 0
1, 117600, Note_on_c, 9, 38, 64
1, 117600, Note_on_c, 9, 42, 64
1, 117611, Note_on_c, 9, 42, 0
1, 117839, Note_on_c, 9, 38, 0
1, 117840, Note_on_c, 9, 42, 64
1, 117851, Note_on_c, 9, 42, 0
1, 118080, Note_on_c, 9, 42, 64
1, 118091, Note_on_c, 9, 42, 0
1, 118320, Note_on_c, 9, 42, 64
1, 118331, Note_on_c, 9, 42, 0
1, 118560, Note_on_c, 9, 38, 64
1, 118560, Note_on_c, 9, 42, 64
1, 118571, Note_on_c, 9, 42, 0
1, 118799, Note_on_c, 9, 38, 0
1, 118800, Note_on_c, 9, 42, 64
1, 118811, Note_on_c, 9, 42, 0
1, 119040, Note_on_c, 9, 42, 64
1, 119051, Note_on_c, 9, 42, 0
1, 119280, Note_on_c, 9, 42, 64
1, 119291, Note_on_c, 9, 42, 0
1, 119520, Note_on_c, 9, 38, 64
1, 119520, Note_on_c, 9, 42, 64
1, 119531, Note_on_c, 9, 42, 0
1, 119759, Note_on_c, 9, 38, 0
1, 119760, Note_on_c, 9, 42, 64
1, 119771, Note_on_c, 9, 42, 0
1, 120000, Note_on_c, 9, 42, 64
1, 120011, Note_on_c, 9, 42, 0
1, 120240, Note_on_c, 9, 42, 64
1, 120251, Note_on_c, 9, 42, 0
1, 120480, Note_on_c, 9, 38, 64
1, 120480, Note_on_c, 9, 42, 64
1, 120491, Note_on_c, 9, 42, 0
1, 120719, Note_on_c, 9, 38, 0
1, 120720, Note_on_c, 9, 42, 64
1, 120731, Note_on_c, 9, 42, 0
1, 120960, Note_on_c, 9, 42, 64
1, 120971, Note_on_c, 9, 42, 0
1, 121200, Note_on_c, 9, 42, 64
1, 121211, Note_on_c, 9, 42, 0
1, 121440, Note_on_c, 9, 38, 64
1, 121440, Note_on_c, 9, 42, 64
1, 121451, Note_on_c, 9, 42, 0
1, 121679, Note_on_c, 9, 38, 0
1, 121680, Note_on_c, 9, 42, 64
1, 121691, Note_on_c, 9, 42, 0
1, 121920, Note_on_c, 9, 42, 64
1, 121931, Note_on_c, 9, 42, 0
1, 122160, Note_on_c, 9, 42, 64
1, 122171, Note_on_c, 9, 42, 0
1, 122400, Note_on_c, 9, 38, 64
1, 122400, Note_on_c, 9, 42, 64
1, 122411, Note_on_c, 9, 42, 0
1, 122639, Note_on_c, 9, 38, 0
1, 122640, Note_on_c, 9, 42, 64
1, 122651, Note_on_c, 9, 42, 0
1, 122880, Note_on_c, 9, 42, 64
1, 122891, Note_on_c, 9, 42, 0
1, 123120, Note_on_c, 9, 42, 64
1, 123131, Note_on_c, 9, 42, 0
1, 123360, Note_on_c, 9, 38, 64
1, 123360, Note_on_c, 9, 42, 64
1, 123371, Note_on_c, 9, 42, 0
1, 123599, Note_on_c, 9, 38, 0
1, 123600, Note_on_c, 9, 42, 64
1, 123611, Note_on_c, 9, 42, 0
1, 123840, Note_on_c, 9, 42, 64
1, 123851, Note_on_c, 9, 42, 0
1, 124080, Note_on_c, 9, 42, 64
1, 124091, Note_on_c, 9, 42, 0
1, 124320, Note_on_c, 9, 38, 64
1, 124320, Note_on_c, 9, 42, 64
1, 124331, Note_on_c, 9, 42, 0
1, 124559, Note_on_c, 9, 38, 0
1, 124560, Note_on_c, 9, 42, 64
1, 124571, Note_on_c, 9, 42, 0
1, 124800, Note_on_c, 9, 42, 64
1, 124811, Note_on_c, 9, 42, 0
1, 125040, Note_on_c, 9, 42, 64
1, 125051, Note_on_c, 9, 42, 0
1, 125280, Note_on_c, 9, 38, 64
1, 125280, Note_on_c, 9, 42, 64
1, 125291, Note_on_c, 9, 42, 0
1, 125519, Note_on_c, 9, 38, 0
1, 125520, Note_on_c, 9, 42, 64
1, 125531, Note_on_c, 9, 42, 0
1, 125760, Note_on_c, 9, 42, 64
1, 125771, Note_on_c, 9, 42, 0
1, 126000, Note_on_c, 9, 42, 64
1, 126011, Note_on_c, 9, 42, 0
1, 126240, Note_on_c, 9, 38, 64
1, 126240, Note_on_c, 9, 42, 64
1, 126251, Note_on_c, 9, 42, 0
1, 126479, Note_on_c, 9, 38, 0
1, 126480, Note_on_c, 9, 42, 64
1, 126491, Note_on_c, 9, 42, 0
1, 126720, Note_on_c, 9, 42, 64
1, 126722, Note_on_c, 9, 42, 0
1, 126780, Note_on_c, 9, 49, 71
1, 126788, Note_on_c, 9, 49, 0
1, 126960, Note_on_c, 9, 42, 64
1, 126971, Note_on_c, 9, 42, 0
1, 127200, Note_on_c, 9, 38, 64
1, 127200, Note_on_c, 9, 42, 64
1, 127211, Note_on_c, 9, 42, 0
1, 127439, Note_on_c, 9, 38, 0
1, 127440, Note_on_c, 9, 42, 64
1, 127451, Note_on_c, 9, 42, 0
1, 127680, Note_on_c, 9, 42, 64
1, 127691, Note_on_c, 9, 42, 0
1, 127920, Note_on_c, 9, 42, 64
1, 127931, Note_on_c, 9, 42, 0
1, 128160, Note_on_c, 9, 38, 64
1, 128160, Note_on_c, 9, 42, 64
1, 128171, Note_on_c, 9, 42, 0
1, 128399, Note_on_c, 9, 38, 0
1, 128400, Note_on_c, 9, 42, 64
1, 128411, Note_on_c, 9, 42, 0
1, 128640, Note_on_c, 9, 42, 64
1, 128651, Note_on_c, 9, 42, 0
1, 128880, Note_on_c, 9, 42, 64
1, 128891, Note_on_c, 9, 42, 0
1, 129120, Note_on_c, 9, 38, 64
1, 129120, Note_on_c, 9, 42, 64
1, 129131, Note_on_c, 9, 42, 0
1, 129359, Note_on_c, 9, 38, 0
1, 129360, Note_on_c, 9, 42, 64
1, 129371, Note_on_c, 9, 42, 0
1, 129600, Note_on_c, 9, 42, 64
1, 129611, Note_on_c, 9, 42, 0
1, 129840, Note_on_c, 9, 42, 64
1, 129851, Note_on_c, 9, 42, 0
1, 130080, Note_on_c, 9, 38, 64
1, 130080, Note_on_c, 9, 42, 64
1, 130091, Note_on_c, 9, 42, 0
1, 130319, Note_on_c, 9, 38, 0
1, 130320, Note_on_c, 9, 42, 64
1, 130331, Note_on_c, 9, 42, 0
1, 130560, Note_on_c, 9, 42, 64
1, 130571, Note_on_c, 9, 42, 0
1, 130800, Note_on_c, 9, 42, 64
1, 130811, Note_on_c, 9, 42, 0
1, 131040, Note_on_c, 9, 38, 64
1, 131040, Note_on_c, 9, 42, 64
1, 131051, Note_on_c, 9, 42, 0
1, 131279, Note_on_c, 9, 38, 0
1, 131280, Note_on_c, 9, 42, 64
1, 131291, Note_on_c, 9, 42, 0
1, 131520, Note_on_c, 9, 42, 64
1, 131531, Note_on_c, 9, 42, 0
1, 131760, Note_on_c, 9, 42, 64
1, 131771, Note_on_c, 9, 42, 0
1, 132000, Note_on_c, 9, 38, 64
1, 132000, Note_on_c, 9, 42, 64
1, 132011, Note_on_c, 9, 42, 0
1, 132239, Note_on_c, 9, 38, 0
1, 132240, Note_on_c, 9, 42, 64
1, 132251, Note_on_c, 9, 42, 0
1, 132480, Note_on_c, 9, 42, 64
1, 132491, Note_on_c, 9, 42, 0
1, 132720, Note_on_c, 9, 42, 64
1, 132731, Note_on_c, 9, 42, 0
1, 132960, Note_on_c, 9, 38, 64
1, 132960, Note_on_c, 9, 42, 64
1, 132971, Note_on_c, 9, 42, 0
1, 133199, Note_on_c, 9, 38, 0
1, 133200, Note_on_c, 9, 42, 64
1, 133211, Note_on_c, 9, 42, 0
1, 133440, Note_on_c, 9, 42, 64
1, 133451, Note_on_c, 9, 42, 0
1, 133680, Note_on_c, 9, 42, 64
1, 133691, Note_on_c, 9, 42, 0
1, 133920, Note_on_c, 9, 38, 64
1, 133920, Note_on_c, 9, 42, 64
1, 133931, Note_on_c, 9, 42, 0
1, 134159, Note_on_c, 9, 38, 0
1, 134160, Note_on_c, 9, 42, 64
1, 134171, Note_on_c, 9, 42, 0
1, 134400, Note_on_c, 9, 42, 64
1, 134411, Note_on_c, 9, 42, 0
1, 134640, Note_on_c, 9, 42, 64
1, 134651, Note_on_c, 9, 42, 0
1, 134880, Note_on_c, 9, 38, 64
1, 134880, Note_on_c, 9, 42, 64
1, 134891, Note_on_c, 9, 42, 0
1, 135119, Note_on_c, 9, 38, 0
1, 135120, Note_on_c, 9, 42, 64
1, 135131, Note_on_c, 9, 42, 0
1, 135360, Note_on_c, 9, 42, 64
1, 135371, Note_on_c, 9, 42, 0
1, 135600, Note_on_c, 9, 42, 64
1, 135611, Note_on_c, 9, 42, 0
1, 135840, Note_on_c, 9, 38, 64
1, 135840, Note_on_c, 9, 42, 64
1, 135851, Note_on_c, 9, 42, 0
1, 136079, Note_on_c, 9, 38, 0
1, 136080, Note_on_c, 9, 42, 64
1, 136091, Note_on_c, 9, 42, 0
1, 136320, Note_on_c, 9, 42, 64
1, 136331, Note_on_c, 9, 42, 0
1, 136560, Note_on_c, 9, 42, 64
1, 136571, Note_on_c, 9, 42, 0
1, 136800, Note_on_c, 9, 38, 64
1, 136800, Note_on_c, 9, 42, 64
1, 136811, Note_on_c, 9, 42, 0
1, 137039, Note_on_c, 9, 38, 0
1, 137040, Note_on_c, 9, 42, 64
1, 137051, Note_on_c, 9, 42, 0
1, 137280, Note_on_c, 9, 42, 64
1, 137291, Note_on_c, 9, 42, 0
1, 137520, Note_on_c, 9, 42, 64
1, 137531, Note_on_c, 9, 42, 0
1, 137760, Note_on_c, 9, 38, 64
1, 137760, Note_on_c, 9, 42, 64
1, 137771, Note_on_c, 9, 42, 0
1, 137999, Note_on_c, 9, 38, 0
1, 138000, Note_on_c, 9, 42, 64
1, 138011, Note_on_c, 9, 42, 0
1, 138240, Note_on_c, 9, 42, 64
1, 138251, Note_on_c, 9, 42, 0
1, 138480, Note_on_c, 9, 42, 64
1, 138491, Note_on_c, 9, 42, 0
1, 138720, Note_on_c, 9, 38, 64
1, 138720, Note_on_c, 9, 42, 64
1, 138731, Note_on_c, 9, 42, 0
1, 138959, Note_on_c, 9, 38, 0
1, 138960, Note_on_c, 9, 42, 64
1, 138971, Note_on_c, 9, 42, 0
1, 139200, Note_on_c, 9, 42, 64
1, 139211, Note_on_c, 9, 42, 0
1, 139440, Note_on_c, 9, 42, 64
1, 139451, Note_on_c, 9, 42, 0
1, 139680, Note_on_c, 9, 38, 64
1, 139680, Note_on_c, 9, 42, 64
1, 139691, Note_on_c, 9, 42, 0
1, 139919, Note_on_c, 9, 38, 0
1, 139920, Note_on_c, 9, 42, 64
1, 139931, Note_on_c, 9, 42, 0
1, 140160, Note_on_c, 9, 42, 64
1, 140171, Note_on_c, 9, 42, 0
1, 140400, Note_on_c, 9, 42, 64
1, 140411, Note_on_c, 9, 42, 0
1, 140640, Note_on_c, 9, 38, 64
1, 140640, Note_on_c, 9, 42, 64
1, 140651, Note_on_c, 9, 42, 0
1, 140879, Note_on_c, 9, 38, 0
1, 140880, Note_on_c, 9, 42, 64
1, 140891, Note_on_c, 9, 42, 0
1, 141120, Note_on_c, 9, 42, 64
1, 141131, Note_on_c, 9, 42, 0
1, 141360, Note_on_c, 9, 42, 64
1, 141371, Note_on_c, 9, 42, 0
1, 141600, Note_on_c, 9, 38, 64
1, 141600, Note_on_c, 9, 42, 64
1, 141611, Note_on_c, 9, 42, 0
1, 141839, Note_on_c, 9, 38, 0
1, 141840, Note_on_c, 9, 42, 64
1, 141851, Note_on_c, 9, 42, 0
1, 142080, Note_on_c, 9, 42, 64
1, 142091, Note_on_c, 9, 42, 0
1, 142320, Note_on_c, 9, 42, 64
1, 142331, Note_on_c, 9, 42, 0
1, 142560, Note_on_c, 9, 38, 64
1, 142560, Note_on_c, 9, 42, 64
1, 142571, Note_on_c, 9, 42, 0
1, 142799, Note_on_c, 9, 38, 0
1, 142800, Note_on_c, 9, 42, 64
1, 142811, Note_on_c, 9, 42, 0
1, 143040, Note_on_c, 9, 42, 64
1, 143051, Note_on_c, 9, 42, 0
1, 143280, Note_on_c, 9, 42, 64
1, 143291, Note_on_c, 9, 42, 0
1, 143520, Note_on_c, 9, 38, 64
1, 143520, Note_on_c, 9, 42, 64
1, 143531, Note_on_c, 9, 42, 0
1, 143759, Note_on_c, 9, 38, 0
1, 143760, Note_on_c, 9, 42, 64
1, 143771, Note_on_c, 9, 42, 0
1, 144000, Note_on_c, 9, 42, 64
1, 144011, Note_on_c, 9, 42, 0
1, 144240, Note_on_c, 9, 42, 64
1, 144251, Note_on_c, 9, 42, 0
1, 144480, Note_on_c, 9, 38, 64
1, 144480, Note_on_c, 9, 42, 64
1, 144491, Note_on_c, 9, 42, 0
1, 144719, Note_on_c, 9, 38, 0
1, 144720, Note_on_c, 9, 42, 64
1, 144731, Note_on_c, 9, 42, 0
1, 144960, Note_on_c, 9, 42, 64
1, 144971, Note_on_c, 9, 42, 0
1, 145200, Note_on_c, 9, 42, 64
1, 145211, Note_on_c, 9, 42, 0
1, 145440, Note_on_c, 9, 38, 64
1, 145440, Note_on_c, 9, 42, 64
1, 145451, Note_on_c, 9, 42, 0
1, 145679, Note_on_c, 9, 38, 0
1, 145680, Note_on_c, 9, 42, 64
1, 145691, Note_on_c, 9, 42, 0
1, 145920, Note_on_c, 9, 42, 64
1, 145931, Note_on_c, 9, 42, 0
1, 146160, Note_on_c, 9, 42, 64
1, 146171, Note_on_c, 9, 42, 0
1, 146400, Note_on_c, 9, 38, 64
1, 146400, Note_on_c, 9, 42, 64
1, 146411, Note_on_c, 9, 42, 0
1, 146639, Note_on_c, 9, 38, 0
1, 146640, Note_on_c, 9, 42, 64
1, 146651, Note_on_c, 9, 42, 0
1, 146880, Note_on_c, 9, 42, 64
1, 146891, Note_on_c, 9, 42, 0
1, 147120, Note_on_c, 9, 42, 64
1, 147131, Note_on_c, 9, 42, 0
1, 147360, Note_on_c, 9, 38, 64
1, 147360, Note_on_c, 9, 42, 64
1, 147371, Note_on_c, 9, 42, 0
1, 147599, Note_on_c, 9, 38, 0
1, 147600, Note_on_c, 9, 42, 64
1, 147611, Note_on_c, 9, 42, 0
1, 147840, Note_on_c, 9, 42, 64
1, 147851, Note_on_c, 9, 42, 0
1, 148080, Note_on_c, 9, 42, 64
1, 148091, Note_on_c, 9, 42, 0
1, 148320, Note_on_c, 9, 38, 64
1, 148320, Note_on_c, 9, 42, 64
1, 148331, Note_on_c, 9, 42, 0
1, 148559, Note_on_c, 9, 38, 0
1, 148560, Note_on_c, 9, 42, 64
1, 148571, Note_on_c, 9, 42, 0
1, 148800, Note_on_c, 9, 42, 64
1, 148811, Note_on_c, 9, 42, 0
1, 149040, Note_on_c, 9, 42, 64
1, 149051, Note_on_c, 9, 42, 0
1, 149280, Note_on_c, 9, 38, 64
1, 149280, Note_on_c, 9, 42, 64
1, 149291, Note_on_c, 9, 42, 0
1, 149519, Note_on_c, 9, 38, 0
1, 149520, Note_on_c, 9, 42, 64
1, 149531, Note_on_c, 9, 42, 0
1, 149760, Note_on_c, 9, 42, 64
1, 149771, Note_on_c, 9, 42, 0
1, 150000, Note_on_c, 9, 42, 64
1, 150011, Note_on_c, 9, 42, 0
1, 150240, Note_on_c, 9, 38, 64
1, 150240, Note_on_c, 9, 42, 64
1, 150251, Note_on_c, 9, 42, 0
1, 150479, Note_on_c, 9, 38, 0
1, 150480, Note_on_c, 9, 42, 64
1, 150491, Note_on_c, 9, 42, 0
1, 150720, Note_on_c, 9, 42, 64
1, 150731, Note_on_c, 9, 42, 0
1, 150960, Note_on_c, 9, 42, 64
1, 150971, Note_on_c, 9, 42, 0
1, 151200, Note_on_c, 9, 38, 64
1, 151200, Note_on_c, 9, 42, 64
1, 151211, Note_on_c, 9, 42, 0
1, 151439, Note_on_c, 9, 38, 0
1, 151440, Note_on_c, 9, 42, 64
1, 151451, Note_on_c, 9, 42, 0
1, 151680, Note_on_c, 9, 42, 64
1, 151691, Note_on_c, 9, 42, 0
1, 151920, Note_on_c, 9, 42, 64
1, 151931, Note_on_c, 9, 42, 0
1, 152160, Note_on_c, 9, 38, 64
1, 152160, Note_on_c, 9, 42, 64
1, 152171, Note_on_c, 9, 42, 0
1, 152399, Note_on_c, 9, 38, 0
1, 152400, Note_on_c, 9, 42, 64
1, 152411, Note_on_c, 9, 42, 0
1, 152640, Note_on_c, 9, 42, 64
1, 152651, Note_on_c, 9, 42, 0
1, 152880, Note_on_c, 9, 42, 64
1, 152891, Note_on_c, 9, 42, 0
1, 153120, Note_on_c, 9, 38, 64
1, 153120, Note_on_c, 9, 42, 64
1, 153131, Note_on_c, 9, 42, 0
1, 153359, Note_on_c, 9, 38, 0
1, 153360, Note_on_c, 9, 42, 64
1, 153371, Note_on_c, 9, 42, 0
1, 153600, Note_on_c, 9, 42, 64
1, 153611, Note_on_c, 9, 42, 0
1, 153840, Note_on_c, 9, 42, 64
1, 153851, Note_on_c, 9, 42, 0
1, 154080, Note_on_c, 9, 38, 64
1, 154080, Note_on_c, 9, 42, 64
1, 154091, Note_on_c, 9, 42, 0
1, 154319, Note_on_c, 9, 38, 0
1, 154320, Note_on_c, 9, 42, 64
1, 154331, Note_on_c, 9, 42, 0
1, 154560, Note_on_c, 9, 42, 64
1, 154571, Note_on_c, 9, 42, 0
1, 154800, Note_on_c, 9, 42, 64
1, 154811, Note_on_c, 9, 42, 0
1, 155040, Note_on_c, 9, 38, 64
1, 155040, Note_on_c, 9, 42, 64
1, 155051, Note_on_c, 9, 42, 0
1, 155279, Note_on_c, 9, 38, 0
1, 155280, Note_on_c, 9, 42, 64
1, 155291, Note_on_c, 9, 42, 0
1, 155520, Note_on_c, 9, 42, 64
1, 155531, Note_on_c, 9, 42, 0
1, 155760, Note_on_c, 9, 42, 64
1, 155771, Note_on_c, 9, 42, 0
1, 156000, Note_on_c, 9, 38, 64
1, 156000, Note_on_c, 9, 42, 64
1, 156011, Note_on_c, 9, 42, 0
1, 156239, Note_on_c, 9, 38, 0
1, 156240, Note_on_c, 9, 42, 64
1, 156251, Note_on_c, 9, 42, 0
1, 156480, Note_on_c, 9, 42, 64
1, 156491, Note_on_c, 9, 42, 0
1, 156720, Note_on_c, 9, 42, 64
1, 156731, Note_on_c, 9, 42, 0
1, 156960, Note_on_c, 9, 38, 64
1, 156960, Note_on_c, 9, 42, 64
1, 156971, Note_on_c, 9, 42, 0
1, 157199, Note_on_c, 9, 38, 0
1, 157200, Note_on_c, 9, 42, 64
1, 157211, Note_on_c, 9, 42, 0
1, 157440, Note_on_c, 9, 42, 64
1, 157440, Note_on_c, 9, 49, 62
1, 157451, Note_on_c, 9, 42, 0
1, 157451, Note_on_c, 9, 49, 0
1, 157680, Note_on_c, 9, 42, 64
1, 157691, Note_on_c, 9, 42, 0
1, 157920, Note_on_c, 9, 38, 64
1, 157920, Note_on_c, 9, 42, 64
1, 157931, Note_on_c, 9, 42, 0
1, 158159, Note_on_c, 9, 38, 0
1, 158160, Note_on_c, 9, 42, 64
1, 158171, Note_on_c, 9, 42, 0
1, 158400, Note_on_c, 9, 42, 64
1, 158411, Note_on_c, 9, 42, 0
1, 158640, Note_on_c, 9, 42, 64
1, 158651, Note_on_c, 9, 42, 0
1, 158880, Note_on_c, 9, 38, 64
1, 158880, Note_on_c, 9, 42, 64
1, 158891, Note_on_c, 9, 42, 0
1, 159119, Note_on_c, 9, 38, 0
1, 159120, Note_on_c, 9, 42, 64
1, 159131, Note_on_c, 9, 42, 0
1, 159360, Note_on_c, 9, 42, 64
1, 159371, Note_on_c, 9, 42, 0
1, 159600, Note_on_c, 9, 42, 64
1, 159611, Note_on_c, 9, 42, 0
1, 159840, Note_on_c, 9, 38, 64
1, 159840, Note_on_c, 9, 42, 64
1, 159851, Note_on_c, 9, 42, 0
1, 160079, Note_on_c, 9, 38, 0
1, 160080, Note_on_c, 9, 42, 64
1, 160091, Note_on_c, 9, 42, 0
1, 160320, Note_on_c, 9, 42, 64
1, 160331, Note_on_c, 9, 42, 0
1, 160560, Note_on_c, 9, 42, 64
1, 160571, Note_on_c, 9, 42, 0
1, 160800, Note_on_c, 9, 38, 64
1, 160800, Note_on_c, 9, 42, 64
1, 160811, Note_on_c, 9, 42, 0
1, 161039, Note_on_c, 9, 38, 0
1, 161040, Note_on_c, 9, 42, 64
1, 161051, Note_on_c, 9, 42, 0
1, 161280, Note_on_c, 9, 42, 64
1, 161291, Note_on_c, 9, 42, 0
1, 161520, Note_on_c, 9, 42, 64
1, 161531, Note_on_c, 9, 42, 0
1, 161760, Note_on_c, 9, 38, 64
1, 161760, Note_on_c, 9, 42, 64
1, 161771, Note_on_c, 9, 42, 0
1, 161999, Note_on_c, 9, 38, 0
1, 162000, Note_on_c, 9, 42, 64
1, 162011, Note_on_c, 9, 42, 0
1, 162240, Note_on_c, 9, 42, 64
1, 162251, Note_on_c, 9, 42, 0
1, 162480, Note_on_c, 9, 42, 64
1, 162491, Note_on_c, 9, 42, 0
1, 162720, Note_on_c, 9, 38, 64
1, 162720, Note_on_c, 9, 42, 64
1, 162731, Note_on_c, 9, 42, 0
1, 162959, Note_on_c, 9, 38, 0
1, 162960, Note_on_c, 9, 42, 64
1, 162971, Note_on_c, 9, 42, 0
1, 163200, Note_on_c, 9, 42, 64
1, 163211, Note_on_c, 9, 42, 0
1, 163440, Note_on_c, 9, 42, 64
1, 163451, Note_on_c, 9, 42, 0
1, 163680, Note_on_c, 9, 38, 64
1, 163680, Note_on_c, 9, 42, 64
1, 163691, Note_on_c, 9, 42, 0
1, 163919, Note_on_c, 9, 38, 0
1, 163920, Note_on_c, 9, 42, 64
1, 163931, Note_on_c, 9, 42, 0
1, 164160, Note_on_c, 9, 42, 64
1, 164171, Note_on_c, 9, 42, 0
1, 164400, Note_on_c, 9, 42, 64
1, 164411, Note_on_c, 9, 42, 0
1, 164640, Note_on_c, 9, 38, 64
1, 164640, Note_on_c, 9, 42, 64
1, 164651, Note_on_c, 9, 42, 0
1, 164879, Note_on_c, 9, 38, 0
1, 164880, Note_on_c, 9, 42, 64
1, 164891, Note_on_c, 9, 42, 0
1, 165120, Note_on_c, 9, 42, 64
1, 165131, Note_on_c, 9, 42, 0
1, 165360, Note_on_c, 9, 42, 64
1, 165371, Note_on_c, 9, 42, 0
1, 165600, Note_on_c, 9, 38, 64
1, 165600, Note_on_c, 9, 42, 64
1, 165611, Note_on_c, 9, 42, 0
1, 165839, Note_on_c, 9, 38, 0
1, 165840, Note_on_c, 9, 42, 64
1, 165851, Note_on_c, 9, 42, 0
1, 166080, Note_on_c, 9, 42, 64
1, 166091, Note_on_c, 9, 42, 0
1, 166320, Note_on_c, 9, 42, 64
1, 166331, Note_on_c, 9, 42, 0
1, 166560, Note_on_c, 9, 38, 64
1, 166560, Note_on_c, 9, 42, 64
1, 166571, Note_on_c, 9, 42, 0
1, 166799, Note_on_c, 9, 38, 0
1, 166800, Note_on_c, 9, 42, 64
1, 166811, Note_on_c, 9, 42, 0
1, 167040, Note_on_c, 9, 42, 64
1, 167051, Note_on_c, 9, 42, 0
1, 167280, Note_on_c, 9, 42, 64
1, 167291, Note_on_c, 9, 42, 0
1, 167520, Note_on_c, 9, 38, 64
1, 167520, Note_on_c, 9, 42, 64
1, 167531, Note_on_c, 9, 42, 0
1, 167759, Note_on_c, 9, 38, 0
1, 167760, Note_on_c, 9, 42, 64
1, 167771, Note_on_c, 9, 42, 0
1, 168000, Note_on_c, 9, 42, 64
1, 168011, Note_on_c, 9, 42, 0
1, 168240, Note_on_c, 9, 42, 64
1, 168251, Note_on_c, 9, 42, 0
1, 168480, Note_on_c, 9, 38, 64
1, 168480, Note_on_c, 9, 42, 64
1, 168491, Note_on_c, 9, 42, 0
1, 168719, Note_on_c, 9, 38, 0
1, 168720, Note_on_c, 9, 42, 64
1, 168731, Note_on_c, 9, 42, 0
1, 168960, Note_on_c, 9, 42, 64
1, 168971, Note_on_c, 9, 42, 0
1, 169200, Note_on_c, 9, 42, 64
1, 169211, Note_on_c, 9, 42, 0
1, 169440, Note_on_c, 9, 38, 64
1, 169440, Note_on_c, 9, 42, 64
1, 169451, Note_on_c, 9, 42, 0
1, 169679, Note_on_c, 9, 38, 0
1, 169680, Note_on_c, 9, 42, 64
1, 169691, Note_on_c, 9, 42, 0
1, 169920, Note_on_c, 9, 42, 64
1, 169931, Note_on_c, 9, 42, 0
1, 170160, Note_on_c, 9, 42, 64
1, 170171, Note_on_c, 9, 42, 0
1, 170400, Note_on_c, 9, 38, 64
1, 170400, Note_on_c, 9, 42, 64
1, 170411, Note_on_c, 9, 42, 0
1, 170639, Note_on_c, 9, 38, 0
1, 170640, Note_on_c, 9, 42, 64
1, 170651, Note_on_c, 9, 42, 0
1, 170880, Note_on_c, 9, 42, 64
1, 170891, Note_on_c, 9, 42, 0
1, 171120, Note_on_c, 9, 42, 64
1, 171131, Note_on_c, 9, 42, 0
1, 171360, Note_on_c, 9, 38, 64
1, 171360, Note_on_c, 9, 42, 64
1, 171371, Note_on_c, 9, 42, 0
1, 171599, Note_on_c, 9, 38, 0
1, 171600, Note_on_c, 9, 42, 64
1, 171611, Note_on_c, 9, 42, 0
1, 171840, Note_on_c, 9, 42, 64
1, 171851, Note_on_c, 9, 42, 0
1, 172080, Note_on_c, 9, 42, 64
1, 172091, Note_on_c, 9, 42, 0
1, 172320, Note_on_c, 9, 38, 64
1, 172320, Note_on_c, 9, 42, 64
1, 172331, Note_on_c, 9, 42, 0
1, 172559, Note_on_c, 9, 38, 0
1, 172560, Note_on_c, 9, 42, 64
1, 172571, Note_on_c, 9, 42, 0
1, 172800, Note_on_c, 9, 42, 64
1, 172811, Note_on_c, 9, 42, 0
1, 173040, Note_on_c, 9, 42, 64
1, 173051, Note_on_c, 9, 42, 0
1, 173280, Note_on_c, 9, 38, 64
1, 173280, Note_on_c, 9, 42, 64
1, 173291, Note_on_c, 9, 42, 0
1, 173519, Note_on_c, 9, 38, 0
1, 173520, Note_on_c, 9, 42, 64
1, 173531, Note_on_c, 9, 42, 0
1, 173760, Note_on_c, 9, 42, 64
1, 173771, Note_on_c, 9, 42, 0
1, 174000, Note_on_c, 9, 42, 64
1, 174011, Note_on_c, 9, 42, 0
1, 174240, Note_on_c, 9, 38, 64
1, 174240, Note_on_c, 9, 42, 64
1, 174251, Note_on_c, 9, 42, 0
1, 174479, Note_on_c, 9, 38, 0
1, 174480, Note_on_c, 9, 42, 64
1, 174491, Note_on_c, 9, 42, 0
1, 174720, Note_on_c, 9, 42, 64
1, 174731, Note_on_c, 9, 42, 0
1, 174960, Note_on_c, 9, 42, 64
1, 174971, Note_on_c, 9, 42, 0
1, 175200, Note_on_c, 9, 38, 64
1, 175200, Note_on_c, 9, 42, 64
1, 175211, Note_on_c, 9, 42, 0
1, 175439, Note_on_c, 9, 38, 0
1, 175440, Note_on_c, 9, 42, 64
1, 175451, Note_on_c, 9, 42, 0
1, 175680, Note_on_c, 9, 42, 64
1, 175691, Note_on_c, 9, 42, 0
1, 175920, Note_on_c, 9, 42, 64
1, 175931, Note_on_c, 9, 42, 0
1, 176160, Note_on_c, 9, 38, 64
1, 176160, Note_on_c, 9, 42, 64
1, 176171, Note_on_c, 9, 42, 0
1, 176399, Note_on_c, 9, 38, 0
1, 176400, Note_on_c, 9, 42, 64
1, 176411, Note_on_c, 9, 42, 0
1, 176640, Note_on_c, 9, 42, 64
1, 176651, Note_on_c, 9, 42, 0
1, 176880, Note_on_c, 9, 42, 64
1, 176891, Note_on_c, 9, 42, 0
1, 177120, Note_on_c, 9, 38, 64
1, 177120, Note_on_c, 9, 42, 64
1, 177131, Note_on_c, 9, 42, 0
1, 177359, Note_on_c, 9, 38, 0
1, 177360, Note_on_c, 9, 42, 64
1, 177371, Note_on_c, 9, 42, 0
1, 177600, Note_on_c, 9, 42, 64
1, 177611, Note_on_c, 9, 42, 0
1, 177840, Note_on_c, 9, 42, 64
1, 177851, Note_on_c, 9, 42, 0
1, 178080, Note_on_c, 9, 38, 64
1, 178080, Note_on_c, 9, 42, 64
1, 178091, Note_on_c, 9, 42, 0
1, 178319, Note_on_c, 9, 38, 0
1, 178320, Note_on_c, 9, 42, 64
1, 178331, Note_on_c, 9, 42, 0
1, 178560, Note_on_c, 9, 42, 64
1, 178571, Note_on_c, 9, 42, 0
1, 178800, Note_on_c, 9, 42, 64
1, 178811, Note_on_c, 9, 42, 0
1, 179040, Note_on_c, 9, 38, 64
1, 179040, Note_on_c, 9, 42, 64
1, 179051, Note_on_c, 9, 42, 0
1, 179279, Note_on_c, 9, 38, 0
1, 179280, Note_on_c, 9, 42, 64
1, 179291, Note_on_c, 9, 42, 0
1, 179520, Note_on_c, 9, 42, 64
1, 179531, Note_on_c, 9, 42, 0
1, 179760, Note_on_c, 9, 42, 64
1, 179771, Note_on_c, 9, 42, 0
1, 180000, Note_on_c, 9, 38, 64
1, 180000, Note_on_c, 9, 42, 64
1, 180011, Note_on_c, 9, 42, 0
1, 180239, Note_on_c, 9, 38, 0
1, 180240, Note_on_c, 9, 42, 64
1, 180251, Note_on_c, 9, 42, 0
1, 180480, Note_on_c, 9, 42, 64
1, 180491, Note_on_c, 9, 42, 0
1, 180720, Note_on_c, 9, 42, 64
1, 180731, Note_on_c, 9, 42, 0
1, 180960, Note_on_c, 9, 38, 64
1, 180960, Note_on_c, 9, 42, 64
1, 180971, Note_on_c, 9, 42, 0
1, 181199, Note_on_c, 9, 38, 0
1, 181200, Note_on_c, 9, 42, 64
1, 181211, Note_on_c, 9, 42, 0
1, 181440, Note_on_c, 9, 42, 64
1, 181451, Note_on_c, 9, 42, 0
1, 181680, Note_on_c, 9, 42, 64
1, 181691, Note_on_c, 9, 42, 0
1, 181920, Note_on_c, 9, 38, 64
1, 181920, Note_on_c, 9, 42, 64
1, 181931, Note_on_c, 9, 42, 0
1, 182159, Note_on_c, 9, 38, 0
1, 182160, Note_on_c, 9, 42, 64
1, 182171, Note_on_c, 9, 42, 0
1, 182400, Note_on_c, 9, 42, 64
1, 182411, Note_on_c, 9, 42, 0
1, 182640, Note_on_c, 9, 42, 64
1, 182651, Note_on_c, 9, 42, 0
1, 182880, Note_on_c, 9, 38, 64
1, 182880, Note_on_c, 9, 42, 64
1, 182891, Note_on_c, 9, 42, 0
1, 183119, Note_on_c, 9, 38, 0
1, 183120, Note_on_c, 9, 42, 64
1, 183131, Note_on_c, 9, 42, 0
1, 183360, Note_on_c, 9, 42, 64
1, 183371, Note_on_c, 9, 42, 0
1, 183600, Note_on_c, 9, 42, 64
1, 183611, Note_on_c, 9, 42, 0
1, 183840, Note_on_c, 9, 38, 64
1, 183840, Note_on_c, 9, 42, 64
1, 183851, Note_on_c, 9, 42, 0
1, 184079, Note_on_c, 9, 38, 0
1, 184080, Note_on_c, 9, 42, 64
1, 184091, Note_on_c, 9, 42, 0
1, 184320, Note_on_c, 9, 42, 64
1, 184331, Note_on_c, 9, 42, 0
1, 184560, Note_on_c, 9, 42, 64
1, 184571, Note_on_c, 9, 42, 0
1, 184800, Note_on_c, 9, 38, 64
1, 184800, Note_on_c, 9, 42, 64
1, 184811, Note_on_c, 9, 42, 0
1, 185039, Note_on_c, 9, 38, 0
1, 185040, Note_on_c, 9, 42, 64
1, 185051, Note_on_c, 9, 42, 0
1, 185280, Note_on_c, 9, 42, 64
1, 185291, Note_on_c, 9, 42, 0
1, 185520, Note_on_c, 9, 42, 64
1, 185531, Note_on_c, 9, 42, 0
1, 185760, Note_on_c, 9, 38, 64
1, 185760, Note_on_c, 9, 42, 64
1, 185771, Note_on_c, 9, 42, 0
1, 185999, Note_on_c, 9, 38, 0
1, 186000, Note_on_c, 9, 42, 64
1, 186011, Note_on_c, 9, 42, 0
1, 186240, Note_on_c, 9, 42, 64
1, 186251, Note_on_c, 9, 42, 0
1, 186480, Note_on_c, 9, 42, 64
1, 186491, Note_on_c, 9, 42, 0
1, 186720, Note_on_c, 9, 38, 64
1, 186720, Note_on_c, 9, 42, 64
1, 186731, Note_on_c, 9, 42, 0
1, 186959, Note_on_c, 9, 38, 0
1, 186960, Note_on_c, 9, 42, 64
1, 186971, Note_on_c, 9, 42, 0
1, 187200, Note_on_c, 9, 42, 64
1, 187211, Note_on_c, 9, 42, 0
1, 187440, Note_on_c, 9, 42, 64
1, 187451, Note_on_c, 9, 42, 0
1, 187680, Note_on_c, 9, 38, 64
1, 187680, Note_on_c, 9, 42, 64
1, 187691, Note_on_c, 9, 42, 0
1, 187919, Note_on_c, 9, 38, 0
1, 187920, Note_on_c, 9, 42, 64
1, 187931, Note_on_c, 9, 42, 0
1, 188160, Note_on_c, 9, 42, 64
1, 188160, Note_on_c, 9, 42, 0
1, 188190, Note_on_c, 9, 49, 69
1, 188193, Note_on_c, 9, 49, 0
1, 188400, Note_on_c, 9, 42, 64
1, 188411, Note_on_c, 9, 42, 0
1, 188640, Note_on_c, 9, 38, 64
1, 188640, Note_on_c, 9, 42, 64
1, 188651, Note_on_c, 9, 42, 0
1, 188879, Note_on_c, 9, 38, 0
1, 188880, Note_on_c, 9, 42, 64
1, 188891, Note_on_c, 9, 42, 0
1, 189120, Note_on_c, 9, 42, 64
1, 189131, Note_on_c, 9, 42, 0
1, 189360, Note_on_c, 9, 42, 64
1, 189371, Note_on_c, 9, 42, 0
1, 189600, Note_on_c, 9, 38, 64
1, 189600, Note_on_c, 9, 42, 64
1, 189611, Note_on_c, 9, 42, 0
1, 189839, Note_on_c, 9, 38, 0
1, 189840, Note_on_c, 9, 42, 64
1, 189851, Note_on_c, 9, 42, 0
1, 190080, Note_on_c, 9, 42, 64
1, 190091, Note_on_c, 9, 42, 0
1, 190320, Note_on_c, 9, 42, 64
1, 190331, Note_on_c, 9, 42, 0
1, 190560, Note_on_c, 9, 38, 64
1, 190560, Note_on_c, 9, 42, 64
1, 190571, Note_on_c, 9, 42, 0
1, 190799, Note_on_c, 9, 38, 0
1, 190800, Note_on_c, 9, 42, 64
1, 190811, Note_on_c, 9, 42, 0
1, 191040, Note_on_c, 9, 42, 64
1, 191051, Note_on_c, 9, 42, 0
1, 191280, Note_on_c, 9, 42, 64
1, 191291, Note_on_c, 9, 42, 0
1, 191520, Note_on_c, 9, 38, 64
1, 191520, Note_on_c, 9, 42, 64
1, 191531, Note_on_c, 9, 42, 0
1, 191759, Note_on_c, 9, 38, 0
1, 191760, Note_on_c, 9, 42, 64
1, 191771, Note_on_c, 9, 42, 0
1, 192000, Note_on_c, 9, 42, 64
1, 192011, Note_on_c, 9, 42, 0
1, 192240, Note_on_c, 9, 42, 64
1, 192251, Note_on_c, 9, 42, 0
1, 192480, Note_on_c, 9, 38, 64
1, 192480, Note_on_c, 9, 42, 64
1, 192491, Note_on_c, 9, 42, 0
1, 192719, Note_on_c, 9, 38, 0
1, 192720, Note_on_c, 9, 42, 64
1, 192731, Note_on_c, 9, 42, 0
1, 192960, Note_on_c, 9, 42, 64
1, 192971, Note_on_c, 9, 42, 0
1, 193200, Note_on_c, 9, 42, 64
1, 193211, Note_on_c, 9, 42, 0
1, 193440, Note_on_c, 9, 38, 64
1, 193440, Note_on_c, 9, 42, 64
1, 193451, Note_on_c, 9, 42, 0
1, 193679, Note_on_c, 9, 38, 0
1, 193680, Note_on_c, 9, 42, 64
1, 193691, Note_on_c, 9, 42, 0
1, 193920, Note_on_c, 9, 42, 64
1, 193931, Note_on_c, 9, 42, 0
1, 194160, Note_on_c, 9, 42, 64
1, 194171, Note_on_c, 9, 42, 0
1, 194400, Note_on_c, 9, 38, 64
1, 194400, Note_on_c, 9, 42, 64
1, 194411, Note_on_c, 9, 42, 0
1, 194639, Note_on_c, 9, 38, 0
1, 194640, Note_on_c, 9, 42, 64
1, 194651, Note_on_c, 9, 42, 0
1, 194880, Note_on_c, 9, 42, 64
1, 194891, Note_on_c, 9, 42, 0
1, 195120, Note_on_c, 9, 42, 64
1, 195131, Note_on_c, 9, 42, 0
1, 195360, Note_on_c, 9, 38, 64
1, 195360, Note_on_c, 9, 42, 64
1, 195371, Note_on_c, 9, 42, 0
1, 195599, Note_on_c, 9, 38, 0
1, 195600, Note_on_c, 9, 42, 64
1, 195611, Note_on_c, 9, 42, 0
1, 195840, Note_on_c, 9, 42, 64
1, 195851, Note_on_c, 9, 42, 0
1, 196080, Note_on_c, 9, 42, 64
1, 196091, Note_on_c, 9, 42, 0
1, 196320, Note_on_c, 9, 38, 64
1, 196320, Note_on_c, 9, 42, 64
1, 196331, Note_on_c, 9, 42, 0
1, 196559, Note_on_c, 9, 38, 0
1, 196560, Note_on_c, 9, 42, 64
1, 196571, Note_on_c, 9, 42, 0
1, 196800, Note_on_c, 9, 42, 64
1, 196811, Note_on_c, 9, 42, 0
1, 197040, Note_on_c, 9, 42, 64
1, 197051, Note_on_c, 9, 42, 0
1, 197280, Note_on_c, 9, 38, 64
1, 197280, Note_on_c, 9, 42, 64
1, 197291, Note_on_c, 9, 42, 0
1, 197519, Note_on_c, 9, 38, 0
1, 197520, Note_on_c, 9, 42, 64
1, 197531, Note_on_c, 9, 42, 0
1, 197760, Note_on_c, 9, 42, 64
1, 197771, Note_on_c, 9, 42, 0
1, 198000, Note_on_c, 9, 42, 64
1, 198011, Note_on_c, 9, 42, 0
1, 198240, Note_on_c, 9, 38, 64
1, 198240, Note_on_c, 9, 42, 64
1, 198251, Note_on_c, 9, 42, 0
1, 198479, Note_on_c, 9, 38, 0
1, 198480, Note_on_c, 9, 42, 64
1, 198491, Note_on_c, 9, 42, 0
1, 198720, Note_on_c, 9, 42, 64
1, 198731, Note_on_c, 9, 42, 0
1, 198960, Note_on_c, 9, 42, 64
1, 198971, Note_on_c, 9, 42, 0
1, 199200, Note_on_c, 9, 38, 64
1, 199200, Note_on_c, 9, 42, 64
1, 199211, Note_on_c, 9, 42, 0
1, 199439, Note_on_c, 9, 38, 0
1, 199440, Note_on_c, 9, 42, 64
1, 199451, Note_on_c, 9, 42, 0
1, 199680, Note_on_c, 9, 42, 64
1, 199691, Note_on_c, 9, 42, 0
1, 199920, Note_on_c, 9, 42, 64
1, 199931, Note_on_c, 9, 42, 0
1, 200160, Note_on_c, 9, 38, 64
1, 200160, Note_on_c, 9, 42, 64
1, 200171, Note_on_c, 9, 42, 0
1, 200399, Note_on_c, 9, 38, 0
1, 200400, Note_on_c, 9, 42, 64
1, 200411, Note_on_c, 9, 42, 0
1, 200640, Note_on_c, 9, 42, 64
1, 200651, Note_on_c, 9, 42, 0
1, 200880, Note_on_c, 9, 42, 64
1, 200891, Note_on_c, 9, 42, 0
1, 201120, Note_on_c, 9, 38, 64
1, 201120, Note_on_c, 9, 42, 64
1, 201131, Note_on_c, 9, 42, 0
1, 201359, Note_on_c, 9, 38, 0
1, 201360, Note_on_c, 9, 42, 64
1, 201371, Note_on_c, 9, 42, 0
1, 201600, Note_on_c, 9, 42, 64
1, 201611, Note_on_c, 9, 42, 0
1, 201840, Note_on_c, 9, 42, 64
1, 201851, Note_on_c, 9, 42, 0
1, 202080, Note_on_c, 9, 38, 64
1, 202080, Note_on_c, 9, 42, 64
1, 202091, Note_on_c, 9, 42, 0
1, 202319, Note_on_c, 9, 38, 0
1, 202320, Note_on_c, 9, 42, 64
1, 202331, Note_on_c, 9, 42, 0
1, 202560, Note_on_c, 9, 42, 64
1, 202571, Note_on_c, 9, 42, 0
1, 202800, Note_on_c, 9, 42, 64
1, 202811, Note_on_c, 9, 42, 0
1, 203040, Note_on_c, 9, 38, 64
1, 203040, Note_on_c, 9, 42, 64
1, 203051, Note_on_c, 9, 42, 0
1, 203279, Note_on_c, 9, 38, 0
1, 203280, Note_on_c, 9, 42, 64
1, 203291, Note_on_c, 9, 42, 0
1, 203520, Note_on_c, 9, 42, 64
1, 203531, Note_on_c, 9, 42, 0
1, 203760, Note_on_c, 9, 42, 64
1, 203771, Note_on_c, 9, 42, 0
1, 204000, Note_on_c, 9, 38, 64
1, 204000, Note_on_c, 9, 42, 64
1, 204011, Note_on_c, 9, 42, 0
1, 204239, Note_on_c, 9, 38, 0
1, 204240, Note_on_c, 9, 42, 64
1, 204251, Note_on_c, 9, 42, 0
1, 204480, Note_on_c, 9, 42, 64
1, 204491, Note_on_c, 9, 42, 0
1, 204720, Note_on_c, 9, 42, 64
1, 204731, Note_on_c, 9, 42, 0
1, 204960, Note_on_c, 9, 38, 64
1, 204960, Note_on_c, 9, 42, 64
1, 204971, Note_on_c, 9, 42, 0
1, 205199, Note_on_c, 9, 38, 0
1, 205200, Note_on_c, 9, 42, 64
1, 205211, Note_on_c, 9, 42, 0
1, 205440, Note_on_c, 9, 42, 64
1, 205451, Note_on_c, 9, 42, 0
1, 205680, Note_on_c, 9, 42, 64
1, 205691, Note_on_c, 9, 42, 0
1, 205920, Note_on_c, 9, 38, 64
1, 205920, Note_on_c, 9, 42, 64
1, 205931, Note_on_c, 9, 42, 0
1, 206159, Note_on_c, 9, 38, 0
1, 206160, Note_on_c, 9, 42, 64
1, 206171, Note_on_c, 9, 42, 0
1, 206400, Note_on_c, 9, 42, 64
1, 206411, Note_on_c, 9, 42, 0
1, 206640, Note_on_c, 9, 42, 64
1, 206651, Note_on_c, 9, 42, 0
1, 206880, Note_on_c, 9, 38, 64
1, 206880, Note_on_c, 9, 42, 64
1, 206891, Note_on_c, 9, 42, 0
1, 207119, Note_on_c, 9, 38, 0
1, 207120, Note_on_c, 9, 42, 64
1, 207131, Note_on_c, 9, 42, 0
1, 207360, Note_on_c, 9, 42, 64
1, 207371, Note_on_c, 9, 42, 0
1, 207600, Note_on_c, 9, 42, 64
1, 207611, Note_on_c, 9, 42, 0
1, 207840, Note_on_c, 9, 38, 64
1, 207840, Note_on_c, 9, 42, 64
1, 207851, Note_on_c, 9, 42, 0
1, 208079, Note_on_c, 9, 38, 0
1, 208080, Note_on_c, 9, 42, 64
1, 208091, Note_on_c, 9, 42, 0
1, 208320, Note_on_c, 9, 42, 64
1, 208331, Note_on_c, 9, 42, 0
1, 208560, Note_on_c, 9, 42, 64
1, 208571, Note_on_c, 9, 42, 0
1, 208800, Note_on_c, 9, 38, 64
1, 208800, Note_on_c, 9, 42, 64
1, 208811, Note_on_c, 9, 42, 0
1, 209039, Note_on_c, 9, 38, 0
1, 209040, Note_on_c, 9, 42, 64
1, 209051, Note_on_c, 9, 42, 0
1, 209280, Note_on_c, 9, 42, 64
1, 209291, Note_on_c, 9, 42, 0
1, 209520, Note_on_c, 9, 42, 64
1, 209531, Note_on_c, 9, 42, 0
1, 209760, Note_on_c, 9, 38, 64
1, 209760, Note_on_c, 9, 42, 64
1, 209771, Note_on_c, 9, 42, 0
1, 209999, Note_on_c, 9, 38, 0
1, 210000, Note_on_c, 9, 42, 64
1, 210011, Note_on_c, 9, 42, 0
1, 210240, Note_on_c, 9, 42, 64
1, 210251, Note_on_c, 9, 42, 0
1, 210480, Note_on_c, 9, 42, 64
1, 210491, Note_on_c, 9, 42, 0
1, 210720, Note_on_c, 9, 38, 64
1, 210720, Note_on_c, 9, 42, 64
1, 210731, Note_on_c, 9, 42, 0
1, 210959, Note_on_c, 9, 38, 0
1, 210960, Note_on_c, 9, 42, 64
1, 210971, Note_on_c, 9, 42, 0
1, 211200, Note_on_c, 9, 42, 64
1, 211211, Note_on_c, 9, 42, 0
1, 211440, Note_on_c, 9, 42, 64
1, 211451, Note_on_c, 9, 42, 0
1, 211680, Note_on_c, 9, 38, 64
1, 211680, Note_on_c, 9, 42, 64
1, 211691, Note_on_c, 9, 42, 0
1, 211919, Note_on_c, 9, 38, 0
1, 211920, Note_on_c, 9, 42, 64
1, 211931, Note_on_c, 9, 42, 0
1, 212160, Note_on_c, 9, 42, 64
1, 212171, Note_on_c, 9, 42, 0
1, 212400, Note_on_c, 9, 42, 64
1, 212411, Note_on_c, 9, 42, 0
1, 212640, Note_on_c, 9, 38, 64
1, 212640, Note_on_c, 9, 42, 64
1, 212651, Note_on_c, 9, 42, 0
1, 212879, Note_on_c, 9, 38, 0
1, 212880, Note_on_c, 9, 42, 64
1, 212891, Note_on_c, 9, 42, 0
1, 213120, Note_on_c, 9, 42, 64
1, 213131, Note_on_c, 9, 42, 0
1, 213360, Note_on_c, 9, 42, 64
1, 213371, Note_on_c, 9, 42, 0
1, 213600, Note_on_c, 9, 38, 64
1, 213600, Note_on_c, 9, 42, 64
1, 213611, Note_on_c, 9, 42, 0
1, 213839, Note_on_c, 9, 38, 0
1, 213840, Note_on_c, 9, 42, 64
1, 213851, Note_on_c, 9, 42, 0
1, 214080, Note_on_c, 9, 42, 64
1, 214091, Note_on_c, 9, 42, 0
1, 214320, Note_on_c, 9, 42, 64
1, 214331, Note_on_c, 9, 42, 0
1, 214560, Note_on_c, 9, 38, 64
1, 214560, Note_on_c, 9, 42, 64
1, 214571, Note_on_c, 9, 42, 0
1, 214799, Note_on_c, 9, 38, 0
1, 214800, Note_on_c, 9, 42, 64
1, 214811, Note_on_c, 9, 42, 0
1, 215040, Note_on_c, 9, 42, 64
1, 215051, Note_on_c, 9, 42, 0
1, 215280, Note_on_c, 9, 42, 64
1, 215291, Note_on_c, 9, 42, 0
1, 215520, Note_on_c, 9, 38, 64
1, 215520, Note_on_c, 9, 42, 64
1, 215531, Note_on_c, 9, 42, 0
1, 215759, Note_on_c, 9, 38, 0
1, 215760, Note_on_c, 9, 42, 64
1, 215771, Note_on_c, 9, 42, 0
1, 216000, Note_on_c, 9, 42, 64
1, 216011, Note_on_c, 9, 42, 0
1, 216240, Note_on_c, 9, 42, 64
1, 216251, Note_on_c, 9, 42, 0
1, 216480, Note_on_c, 9, 38, 64
1, 216480, Note_on_c, 9, 42, 64
1, 216491, Note_on_c, 9, 42, 0
1, 216719, Note_on_c, 9, 38, 0
1, 216720, Note_on_c, 9, 42, 64
1, 216731, Note_on_c, 9, 42, 0
1, 216960, Note_on_c, 9, 42, 64
1, 216971, Note_on_c, 9, 42, 0
1, 217200, Note_on_c, 9, 42, 64
1, 217211, Note_on_c, 9, 42, 0
1, 217440, Note_on_c, 9, 38, 64
1, 217440, Note_on_c, 9, 42, 64
1, 217451, Note_on_c, 9, 42, 0
1, 217679, Note_on_c, 9, 38, 0
1, 217680, Note_on_c, 9, 42, 64
1, 217691, Note_on_c, 9, 42, 0
1, 217920, Note_on_c, 9, 42, 64
1, 217931, Note_on_c, 9, 42, 0
1, 218160, Note_on_c, 9, 42, 64
1, 218171, Note_on_c, 9, 42, 0
1, 218400, Note_on_c, 9, 38, 64
1, 218400, Note_on_c, 9, 42, 64
1, 218411, Note_on_c, 9, 42, 0
1, 218639, Note_on_c, 9, 38, 0
1, 218640, Note_on_c, 9, 42, 64
1, 218651, Note_on_c, 9, 42, 0
1, 218880, Note_on_c, 9, 42, 64
1, 218880, Note_on_c, 9, 49, 74
1, 218891, Note_on_c, 9, 42, 0
1, 218891, Note_on_c, 9, 49, 0
1, 219120, Note_on_c, 9, 42, 64
1, 219131, Note_on_c, 9, 42, 0
1, 219360, Note_on_c, 9, 38, 64
1, 219360, Note_on_c, 9, 42, 64
1, 219371, Note_on_c, 9, 42, 0
1, 219599, Note_on_c, 9, 38, 0
1, 219600, Note_on_c, 9, 42, 64
1, 219611, Note_on_c, 9, 42, 0
1, 219840, Note_on_c, 9, 42, 64
1, 219851, Note_on_c, 9, 42, 0
1, 220080, Note_on_c, 9, 42, 64
1, 220091, Note_on_c, 9, 42, 0
1, 220320, Note_on_c, 9, 38, 64
1, 220320, Note_on_c, 9, 42, 64
1, 220331, Note_on_c, 9, 42, 0
1, 220559, Note_on_c, 9, 38, 0
1, 220560, Note_on_c, 9, 42, 64
1, 220571, Note_on_c, 9, 42, 0
1, 220800, Note_on_c, 9, 42, 64
1, 220811, Note_on_c, 9, 42, 0
1, 221040, Note_on_c, 9, 42, 64
1, 221051, Note_on_c, 9, 42, 0
1, 221280, Note_on_c, 9, 38, 64
1, 221280, Note_on_c, 9, 42, 64
1, 221291, Note_on_c, 9, 42, 0
1, 221519, Note_on_c, 9, 38, 0
1, 221520, Note_on_c, 9, 42, 64
1, 221531, Note_on_c, 9, 42, 0
1, 221760, Note_on_c, 9, 42, 64
1, 221771, Note_on_c, 9, 42, 0
1, 222000, Note_on_c, 9, 42, 64
1, 222011, Note_on_c, 9, 42, 0
1, 222240, Note_on_c, 9, 38, 64
1, 222240, Note_on_c, 9, 42, 64
1, 222251, Note_on_c, 9, 42, 0
1, 222479, Note_on_c, 9, 38, 0
1, 222480, Note_on_c, 9, 42, 64
1, 222491, Note_on_c, 9, 42, 0
1, 222720, Note_on_c, 9, 42, 64
1, 222731, Note_on_c, 9, 42, 0
1, 222960, Note_on_c, 9, 42, 64
1, 222971, Note_on_c, 9, 42, 0
1, 223200, Note_on_c, 9, 38, 64
1, 223200, Note_on_c, 9, 42, 64
1, 223211, Note_on_c, 9, 42, 0
1, 223439, Note_on_c, 9, 38, 0
1, 223440, Note_on_c, 9, 42, 64
1, 223451, Note_on_c, 9, 42, 0
1, 223680, Note_on_c, 9, 42, 64
1, 223691, Note_on_c, 9, 42, 0
1, 223920, Note_on_c, 9, 42, 64
1, 223931, Note_on_c, 9, 42, 0
1, 224160, Note_on_c, 9, 38, 64
1, 224160, Note_on_c, 9, 42, 64
1, 224171, Note_on_c, 9, 42, 0
1, 224399, Note_on_c, 9, 38, 0
1, 224400, Note_on_c, 9, 42, 64
1, 224411, Note_on_c, 9, 42, 0
1, 224640, Note_on_c, 9, 42, 64
1, 224651, Note_on_c, 9, 42, 0
1, 224880, Note_on_c, 9, 42, 64
1, 224891, Note_on_c, 9, 42, 0
1, 225120, Note_on_c, 9, 38, 64
1, 225120, Note_on_c, 9, 42, 64
1, 225131, Note_on_c, 9, 42, 0
1, 225359, Note_on_c, 9, 38, 0
1, 225360, Note_on_c, 9, 42, 64
1, 225371, Note_on_c, 9, 42, 0
1, 225600, Note_on_c, 9, 42, 64
1, 225611, Note_on_c, 9, 42, 0
1, 225840, Note_on_c, 9, 42, 64
1, 225851, Note_on_c, 9, 42, 0
1, 226080, Note_on_c, 9, 38, 64
1, 226080, Note_on_c, 9, 42, 64
1, 226091, Note_on_c, 9, 42, 0
1, 226319, Note_on_c, 9, 38, 0
1, 226320, Note_on_c, 9, 42, 64
1, 226331, Note_on_c, 9, 42, 0
1, 226560, Note_on_c, 9, 42, 64
1, 226571, Note_on_c, 9, 42, 0
1, 226800, Note_on_c, 9, 42, 64
1, 226811, Note_on_c, 9, 42, 0
1, 227040, Note_on_c, 9, 38, 64
1, 227040, Note_on_c, 9, 42, 64
1, 227051, Note_on_c, 9, 42, 0
1, 227279, Note_on_c, 9, 38, 0
1, 227280, Note_on_c, 9, 42, 64
1, 227291, Note_on_c, 9, 42, 0
1, 227520, Note_on_c, 9, 42, 64
1, 227531, Note_on_c, 9, 42, 0
1, 227760, Note_on_c, 9, 42, 64
1, 227771, Note_on_c, 9, 42, 0
1, 228000, Note_on_c, 9, 38, 64
1, 228000, Note_on_c, 9, 42, 64
1, 228011, Note_on_c, 9, 42, 0
1, 228239, Note_on_c, 9, 38, 0
1, 228240, Note_on_c, 9, 42, 64
1, 228251, Note_on_c, 9, 42, 0
1, 228480, Note_on_c, 9, 42, 64
1, 228491, Note_on_c, 9, 42, 0
1, 228720, Note_on_c, 9, 42, 64
1, 228731, Note_on_c, 9, 42, 0
1, 228960, Note_on_c, 9, 38, 64
1, 228960, Note_on_c, 9, 42, 64
1, 228971, Note_on_c, 9, 42, 0
1, 229199, Note_on_c, 9, 38, 0
1, 229200, Note_on_c, 9, 42, 64
1, 229211, Note_on_c, 9, 42, 0
1, 229440, Note_on_c, 9, 42, 64
1, 229451, Note_on_c, 9, 42, 0
1, 229680, Note_on_c, 9, 42, 64
1, 229691, Note_on_c, 9, 42, 0
1, 229920, Note_on_c, 9, 38, 64
1, 229920, Note_on_c, 9, 42, 64
1, 229931, Note_on_c, 9, 42, 0
1, 230159, Note_on_c, 9, 38, 0
1, 230160, Note_on_c, 9, 42, 64
1, 230171, Note_on_c, 9, 42, 0
1, 230400, Note_on_c, 9, 42, 64
1, 230411, Note_on_c, 9, 42, 0
1, 230640, Note_on_c, 9, 42, 64
1, 230651, Note_on_c, 9, 42, 0
1, 230880, Note_on_c, 9, 38, 64
1, 230880, Note_on_c, 9, 42, 64
1, 230891, Note_on_c, 9, 42, 0
1, 231119, Note_on_c, 9, 38, 0
1, 231120, Note_on_c, 9, 42, 64
1, 231131, Note_on_c, 9, 42, 0
1, 231360, Note_on_c, 9, 42, 64
1, 231371, Note_on_c, 9, 42, 0
1, 231600, Note_on_c, 9, 42, 64
1, 231611, Note_on_c, 9, 42, 0
1, 231840, Note_on_c, 9, 38, 64
1, 231840, Note_on_c, 9, 42, 64
1, 231851, Note_on_c, 9, 42, 0
1, 232079, Note_on_c, 9, 38, 0
1, 232080, Note_on_c, 9, 42, 64
1, 232091, Note_on_c, 9, 42, 0
1, 232320, Note_on_c, 9, 42, 64
1, 232331, Note_on_c, 9, 42, 0
1, 232560, Note_on_c, 9, 42, 64
1, 232571, Note_on_c, 9, 42, 0
1, 232800, Note_on_c, 9, 38, 64
1, 232800, Note_on_c, 9, 42, 64
1, 232811, Note_on_c, 9, 42, 0
1, 233039, Note_on_c, 9, 38, 0
1, 233040, Note_on_c, 9, 42, 64
1, 233051, Note_on_c, 9, 42, 0
1, 233280, Note_on_c, 9, 42, 64
1, 233291, Note_on_c, 9, 42, 0
1, 233520, Note_on_c, 9, 42, 64
1, 233531, Note_on_c, 9, 42, 0
1, 233760, Note_on_c, 9, 38, 64
1, 233760, Note_on_c, 9, 42, 64
1, 233771, Note_on_c, 9, 42, 0
1, 233999, Note_on_c, 9, 38, 0
1, 234000, Note_on_c, 9, 42, 64
1, 234011, Note_on_c, 9, 42, 0
1, 234240, Note_on_c, 9, 42, 64
1, 234251, Note_on_c, 9, 42, 0
1, 234480, Note_on_c, 9, 42, 64
1, 234491, Note_on_c, 9, 42, 0
1, 234720, Note_on_c, 9, 38, 64
1, 234720, Note_on_c, 9, 42, 64
1, 234731, Note_on_c, 9, 42, 0
1, 234959, Note_on_c, 9, 38, 0
1, 234960, Note_on_c, 9, 42, 64
1, 234971, Note_on_c, 9, 42, 0
1, 235200, Note_on_c, 9, 42, 64
1, 235211, Note_on_c, 9, 42, 0
1, 235440, Note_on_c, 9, 42, 64
1, 235451, Note_on_c, 9, 42, 0
1, 235680, Note_on_c, 9, 38, 64
1, 235680, Note_on_c, 9, 42, 64
1, 235691, Note_on_c, 9, 42, 0
1, 235919, Note_on_c, 9, 38, 0
1, 235920, Note_on_c, 9, 42, 64
1, 235931, Note_on_c, 9, 42, 0
1, 236160, Note_on_c, 9, 42, 64
1, 236171, Note_on_c, 9, 42, 0
1, 236400, Note_on_c, 9, 42, 64
1, 236411, Note_on_c, 9, 42, 0
1, 236640, Note_on_c, 9, 38, 64
1, 236640, Note_on_c, 9, 42, 64
1, 236651, Note_on_c, 9, 42, 0
1, 236879, Note_on_c, 9, 38, 0
1, 236880, Note_on_c, 9, 42, 64
1, 236891, Note_on_c, 9, 42, 0
1, 237120, Note_on_c, 9, 42, 64
1, 237131, Note_on_c, 9, 42, 0
1, 237360, Note_on_c, 9, 42, 64
1, 237371, Note_on_c, 9, 42, 0
1, 237600, Note_on_c, 9, 38, 64
1, 237600, Note_on_c, 9, 42, 64
1, 237611, Note_on_c, 9, 42, 0
1, 237839, Note_on_c, 9, 38, 0
1, 237840, Note_on_c, 9, 42, 64
1, 237851, Note_on_c, 9, 42, 0
1, 238080, Note_on_c, 9, 42, 64
1, 238091, Note_on_c, 9, 42, 0
1, 238320, Note_on_c, 9, 42, 64
1, 238331, Note_on_c, 9, 42, 0
1, 238560, Note_on_c, 9, 38, 64
1, 238560, Note_on_c, 9, 42, 64
1, 238571, Note_on_c, 9, 42, 0
1, 238799, Note_on_c, 9, 38, 0
1, 238800, Note_on_c, 9, 42, 64
1, 238811, Note_on_c, 9, 42, 0
1, 239040, Note_on_c, 9, 42, 64
1, 239051, Note_on_c, 9, 42, 0
1, 239280, Note_on_c, 9, 42, 64
1, 239291, Note_on_c, 9, 42, 0
1, 239520, Note_on_c, 9, 38, 64
1, 239520, Note_on_c, 9, 42, 64
1, 239531, Note_on_c, 9, 42, 0
1, 239759, Note_on_c, 9, 38, 0
1, 239760, Note_on_c, 9, 42, 64
1, 239771, Note_on_c, 9, 42, 0
1, 240000, Note_on_c, 9, 42, 64
1, 240011, Note_on_c, 9, 42, 0
1, 240240, Note_on_c, 9, 42, 64
1, 240251, Note_on_c, 9, 42, 0
1, 240480, Note_on_c, 9, 38, 64
1, 240480, Note_on_c, 9, 42, 64
1, 240491, Note_on_c, 9, 42, 0
1, 240719, Note_on_c, 9, 38, 0
1, 240720, Note_on_c, 9, 42, 64
1, 240731, Note_on_c, 9, 42, 0
1, 240960, Note_on_c, 9, 42, 64
1, 240971, Note_on_c, 9, 42, 0
1, 241200, Note_on_c, 9, 42, 64
1, 241211, Note_on_c, 9, 42, 0
1, 241440, Note_on_c, 9, 38, 64
1, 241440, Note_on_c, 9, 42, 64
1, 241451, Note_on_c, 9, 42, 0
1, 241679, Note_on_c, 9, 38, 0
1, 241680, Note_on_c, 9, 42, 64
1, 241691, Note_on_c, 9, 42, 0
1, 241920, Note_on_c, 9, 42, 64
1, 241931, Note_on_c, 9, 42, 0
1, 242160, Note_on_c, 9, 42, 64
1, 242171, Note_on_c, 9, 42, 0
1, 242400, Note_on_c, 9, 38, 64
1, 242400, Note_on_c, 9, 42, 64
1, 242411, Note_on_c, 9, 42, 0
1, 242639, Note_on_c, 9, 38, 0
1, 242640, Note_on_c, 9, 42, 64
1, 242651, Note_on_c, 9, 42, 0
1, 242880, Note_on_c, 9, 42, 64
1, 242891, Note_on_c, 9, 42, 0
1, 243120, Note_on_c, 9, 42, 64
1, 243131, Note_on_c, 9, 42, 0
1, 243360, Note_on_c, 9, 38, 64
1, 243360, Note_on_c, 9, 42, 64
1, 243371, Note_on_c, 9, 42, 0
1, 243599, Note_on_c, 9, 38, 0
1, 243600, Note_on_c, 9, 42, 64
1, 243611, Note_on_c, 9, 42, 0
1, 243840, Note_on_c, 9, 42, 64
1, 243851, Note_on_c, 9, 42, 0
1, 244080, Note_on_c, 9, 42, 64
1, 244091, Note_on_c, 9, 42, 0
1, 244320, Note_on_c, 9, 38, 64
1, 244320, Note_on_c, 9, 42, 64
1, 244331, Note_on_c, 9, 42, 0
1, 244559, Note_on_c, 9, 38, 0
1, 244560, Note_on_c, 9, 42, 64
1, 244571, Note_on_c, 9, 42, 0
1, 244800, Note_on_c, 9, 42, 64
1, 244811, Note_on_c, 9, 42, 0
1, 245040, Note_on_c, 9, 42, 64
1, 245051, Note_on_c, 9, 42, 0
1, 245280, Note_on_c, 9, 38, 64
1, 245280, Note_on_c, 9, 42, 64
1, 245291, Note_on_c, 9, 42, 0
1, 245519, Note_on_c, 9, 38, 0
1, 245520, Note_on_c, 9, 42, 64
1, 245531, Note_on_c, 9, 42, 0
1, 245760, Note_on_c, 9, 42, 64
1, 245771, Note_on_c, 9, 42, 0
1, 246000, Note_on_c, 9, 42, 64
1, 246011, Note_on_c, 9, 42, 0
1, 246240, Note_on_c, 9, 38, 64
1, 246240, Note_on_c, 9, 42, 64
1, 246251, Note_on_c, 9, 42, 0
1, 246479, Note_on_c, 9, 38, 0
1, 246480, Note_on_c, 9, 42, 64
1, 246491, Note_on_c, 9, 42, 0
1, 246720, Note_on_c, 9, 42, 64
1, 246731, Note_on_c, 9, 42, 0
1, 246960, Note_on_c, 9, 42, 64
1, 246971, Note_on_c, 9, 42, 0
1, 247200, Note_on_c, 9, 38, 64
1, 247200, Note_on_c, 9, 42, 64
1, 247211, Note_on_c, 9, 42, 0
1, 247439, Note_on_c, 9, 38, 0
1, 247440, Note_on_c, 9, 42, 64
1, 247451, Note_on_c, 9, 42, 0
1, 247680, Note_on_c, 9, 42, 64
1, 247691, Note_on_c, 9, 42, 0
1, 247920, Note_on_c, 9, 42, 64
1, 247931, Note_on_c, 9, 42, 0
1, 248160, Note_on_c, 9, 38, 64
1, 248160, Note_on_c, 9, 42, 64
1, 248171, Note_on_c, 9, 42, 0
1, 248399, Note_on_c, 9, 38, 0
1, 248400, Note_on_c, 9, 42, 64
1, 248411, Note_on_c, 9, 42, 0
1, 248640, Note_on_c, 9, 42, 64
1, 248651, Note_on_c, 9, 42, 0
1, 248880, Note_on_c, 9, 42, 64
1, 248891, Note_on_c, 9, 42, 0
1, 249120, Note_on_c, 9, 38, 64
1, 249120, Note_on_c, 9, 42, 64
1, 249131, Note_on_c, 9, 42, 0
1, 249359, Note_on_c, 9, 38, 0
1, 249360, Note_on_c, 9, 42, 64
1, 249371, Note_on_c, 9, 42, 0
1, 249600, Note_on_c, 9, 42, 64
1, 249611, Note_on_c, 9, 42, 0
1, 249840, Note_on_c, 9, 42, 64
1, 249851, Note_on_c, 9, 42, 0
1, 250080, Note_on_c, 9, 38, 64
1, 250080, Note_on_c, 9, 42, 64
1, 250091, Note_on_c, 9, 42, 0
1, 250319, Note_on_c, 9, 38, 0
1, 250320, Note_on_c, 9, 42, 64
1, 250331, Note_on_c, 9, 42, 0
1, 250560, Note_on_c, 9, 42, 64
1, 250571, Note_on_c, 9, 42, 0
1, 250800, Note_on_c, 9, 42, 64
1, 250811, Note_on_c, 9, 42, 0
1, 251040, Note_on_c, 9, 38, 64
1, 251040, Note_on_c, 9, 42, 64
1, 251051, Note_on_c, 9, 42, 0
1, 251279, Note_on_c, 9, 38, 0
1, 251280, Note_on_c, 9, 42, 64
1, 251291, Note_on_c, 9, 42, 0
1, 251520, Note_on_c, 9, 42, 64
1, 251531, Note_on_c, 9, 42, 0
1, 251760, Note_on_c, 9, 42, 64
1, 251771, Note_on_c, 9, 42, 0
1, 252000, Note_on_c, 9, 38, 64
1, 252000, Note_on_c, 9, 42, 64
1, 252011, Note_on_c, 9, 42, 0
1, 252239, Note_on_c, 9, 38, 0
1, 252240, Note_on_c, 9, 42, 64
1, 252251, Note_on_c, 9, 42, 0
1, 252480, Note_on_c, 9, 42, 64
1, 252491, Note_on_c, 9, 42, 0
1, 252720, Note_on_c, 9, 42, 64
1, 252731, Note_on_c, 9, 42, 0
1, 252960, Note_on_c, 9, 38, 64
1, 252960, Note_on_c, 9, 42, 64
1, 252971, Note_on_c, 9, 42, 0
1, 253199, Note_on_c, 9, 38, 0
1, 253200, Note_on_c, 9, 42, 64
1, 253211, Note_on_c, 9, 42, 0
1, 253440, Note_on_c, 9, 42, 64
1, 253451, Note_on_c, 9, 42, 0
1, 253680, Note_on_c, 9, 42, 64
1, 253691, Note_on_c, 9, 42, 0
1, 253920, Note_on_c, 9, 38, 64
1, 253920, Note_on_c, 9, 42, 64
1, 253931, Note_on_c, 9, 42, 0
1, 254159, Note_on_c, 9, 38, 0
1, 254160, Note_on_c, 9, 42, 64
1, 254171, Note_on_c, 9, 42, 0
1, 254400, Note_on_c, 9, 42, 64
1, 254411, Note_on_c, 9, 42, 0
1, 254640, Note_on_c, 9, 42, 64
1, 254651, Note_on_c, 9, 42, 0
1, 254880, Note_on_c, 9, 38, 64
1, 254880, Note_on_c, 9, 42, 64
1, 254891, Note_on_c, 9, 42, 0
1, 255119, Note_on_c, 9, 38, 0
1, 255120, Note_on_c, 9, 42, 64
1, 255131, Note_on_c, 9, 42, 0
1, 255360, Note_on_c, 9, 42, 64
1, 255371, Note_on_c, 9, 42, 0
1, 255600, Note_on_c, 9, 42, 64
1, 255611, Note_on_c, 9, 42, 0
1, 255840, Note_on_c, 9, 38, 64
1, 255840, Note_on_c, 9, 42, 64
1, 255851, Note_on_c, 9, 42, 0
1, 256079, Note_on_c, 9, 38, 0
1, 256080, Note_on_c, 9, 42, 64
1, 256091, Note_on_c, 9, 42, 0
1, 256320, Note_on_c, 9, 42, 64
1, 256331, Note_on_c, 9, 42, 0
1, 256560, Note_on_c, 9, 42, 64
1, 256571, Note_on_c, 9, 42, 0
1, 256800, Note_on_c, 9, 38, 64
1, 256800, Note_on_c, 9, 42, 64
1, 256811, Note_on_c, 9, 42, 0
1, 257039, Note_on_c, 9, 38, 0
1, 257040, Note_on_c, 9, 42, 64
1, 257051, Note_on_c, 9, 42, 0
1, 257280, Note_on_c, 9, 42, 64
1, 257291, Note_on_c, 9, 42, 0
1, 257520, Note_on_c, 9, 42, 64
1, 257531, Note_on_c, 9, 42, 0
1, 257760, Note_on_c, 9, 38, 64
1, 257760, Note_on_c, 9, 42, 64
1, 257771, Note_on_c, 9, 42, 0
1, 257999, Note_on_c, 9, 38, 0
1, 258000, Note_on_c, 9, 42, 64
1, 258011, Note_on_c, 9, 42, 0
1, 258240, Note_on_c, 9, 42, 64
1, 258251, Note_on_c, 9, 42, 0
1, 258480, Note_on_c, 9, 42, 64
1, 258491, Note_on_c, 9, 42, 0
1, 258720, Note_on_c, 9, 38, 64
1, 258720, Note_on_c, 9, 42, 64
1, 258731, Note_on_c, 9, 42, 0
1, 258959, Note_on_c, 9, 38, 0
1, 258960, Note_on_c, 9, 42, 64
1, 258971, Note_on_c, 9, 42, 0
1, 259200, Note_on_c, 9, 42, 64
1, 259211, Note_on_c, 9, 42, 0
1, 259440, Note_on_c, 9, 42, 64
1, 259451, Note_on_c, 9, 42, 0
1, 259680, Note_on_c, 9, 38, 64
1, 259680, Note_on_c, 9, 42, 64
1, 259691, Note_on_c, 9, 42, 0
1, 259919, Note_on_c, 9, 38, 0
1, 259920, Note_on_c, 9, 42, 64
1, 259931, Note_on_c, 9, 42, 0
1, 260160, Note_on_c, 9, 42, 64
1, 260171, Note_on_c, 9, 42, 0
1, 260400, Note_on_c, 9, 42, 64
1, 260411, Note_on_c, 9, 42, 0
1, 260640, Note_on_c, 9, 38, 64
1, 260640, Note_on_c, 9, 42, 64
1, 260651, Note_on_c, 9, 42, 0
1, 260879, Note_on_c, 9, 38, 0
1, 260880, Note_on_c, 9, 42, 64
1, 260891, Note_on_c, 9, 42, 0
1, 261120, Note_on_c, 9, 42, 64
1, 261131, Note_on_c, 9, 42, 0
1, 261360, Note_on_c, 9, 42, 64
1, 261371, Note_on_c, 9, 42, 0
1, 261600, Note_on_c, 9, 38, 64
1, 261600, Note_on_c, 9, 42, 64
1, 261611, Note_on_c, 9, 42, 0
1, 261839, Note_on_c, 9, 38, 0
1, 261840, Note_on_c, 9, 42, 64
1, 261851, Note_on_c, 9, 42, 0
1, 262080, Note_on_c, 9, 42, 64
1, 262091, Note_on_c, 9, 42, 0
1, 262320, Note_on_c, 9, 42, 64
1, 262331, Note_on_c, 9, 42, 0
1, 262560, Note_on_c, 9, 38, 64
1, 262560, Note_on_c, 9, 42, 64
1, 262571, Note_on_c, 9, 42, 0
1, 262799, Note_on_c, 9, 38, 0
1, 262800, Note_on_c, 9, 42, 64
1, 262811, Note_on_c, 9, 42, 0
1, 262812, End_track
0, 0, End_of_file
