0, 0, Header, 1, 1, 480
1, 0, Start_track
1, 0, Title_t, "Drumset"
1, 0, Time_signature, 4, 2, 24, 8
1, 0, Key_signature, 0, "major"
1, 0, Tempo, 447761
1, 0, Control_c, 9, 121, 0
1, 0, Program_c, 9, 0
1, 0, Control_c, 9, 7, 100
1, 0, Control_c, 9, 10, 64
1, 0, Control_c, 9, 91, 0
1, 0, Control_c, 9, 93, 0
1, 0, MIDI_port, 0
1, 2880, Note_on_c, 9, 37, 120
1, 2904, Note_on_c, 9, 37, 0
1, 3360, Note_on_c, 9, 37, 100
1, 3384, Note_on_c, 9, 37, 0
1, 3840, Note_on_c, 9, 37, 100
1, 3864, Note_on_c, 9, 37, 0
1, 4320, Note_on_c, 9, 37, 100
1, 4344, Note_on_c, 9, 37, 0
1, 79440, Note_on_c, 9, 47, 127
1, 79559, Note_on_c, 9, 47, 0
1, 79560, Note_on_c, 9, 47, 127
1, 79679, Note_on_c, 9, 47, 0
1, 79680, Note_on_c, 9, 43, 127
1, 80159, Note_on_c, 9, 43, 0
1, 81360, Note_on_c, 9, 47, 127
1, 81479, Note_on_c, 9, 47, 0
1, 81480, Note_on_c, 9, 47, 127
1, 81599, Note_on_c, 9, 47, 0
1, 81600, Note_on_c, 9, 43, 127
1, 81839, Note_on_c, 9, 43, 0
1, 81840, Note_on_c, 9, 43, 127
1, 82079, Note_on_c, 9, 43, 0
1, 82560, Note_on_c, 9, 47, 127
1, 82679, Note_on_c, 9, 47, 0
1, 82680, Note_on_c, 9, 47, 127
1, 82919, Note_on_c, 9, 47, 0
1, 82920, Note_on_c, 9, 47, 127
1, 83039, Note_on_c, 9, 47, 0
1, 83040, Note_on_c, 9, 43, 127
1, 83279, Note_on_c, 9, 43, 0
1, 83280, Note_on_c, 9, 43, 127
1, 83519, Note_on_c, 9, 43, 0
1, 83520, Note_on_c, 9, 38, 127
1, 83639, Note_on_c, 9, 38, 0
1, 83640, Note_on_c, 9, 38, 127
1, 83759, Note_on_c, 9, 38, 0
1, 83760, Note_on_c, 9, 38, 127
1, 83999, Note_on_c, 9, 38, 0
1, 84960, Note_on_c, 9, 47, 127
1, 85079, Note_on_c, 9, 47, 0
1, 85080, Note_on_c, 9, 47, 127
1, 85319, Note_on_c, 9, 47, 0
1, 85320, Note_on_c, 9, 47, 127
1, 85439, Note_on_c, 9, 47, 0
1, 85440, Note_on_c, 9, 43, 127
1, 85679, Note_on_c, 9, 43, 0
1, 85680, Note_on_c, 9, 43, 127
1, 85919, Note_on_c, 9, 43, 0
1, 87360, Note_on_c, 9, 38, 127
1, 87480, Note_on_c, 9, 43, 127
1, 87599, Note_on_c, 9, 43, 0
1, 87600, Note_on_c, 9, 43, 127
1, 87719, Note_on_c, 9, 43, 0
1, 87720, Note_on_c, 9, 43, 127
1, 87839, Note_on_c, 9, 38, 0
1, 87839, Note_on_c, 9, 43, 0
1, 87840, Note_on_c, 9, 38, 127
1, 88080, Note_on_c, 9, 43, 127
1, 88199, Note_on_c, 9, 43, 0
1, 88200, Note_on_c, 9, 43, 127
1, 88319, Note_on_c, 9, 38, 0
1, 88319, Note_on_c, 9, 43, 0
1, 88320, Note_on_c, 9, 38, 127
1, 88440, Note_on_c, 9, 43, 127
1, 88559, Note_on_c, 9, 43, 0
1, 88560, Note_on_c, 9, 43, 127
1, 88679, Note_on_c, 9, 43, 0
1, 88680, Note_on_c, 9, 43, 127
1, 88799, Note_on_c, 9, 38, 0
1, 88799, Note_on_c, 9, 43, 0
1, 88800, Note_on_c, 9, 38, 127
1, 89279, Note_on_c, 9, 38, 0
1, 90240, Note_on_c, 9, 43, 127
1, 90359, Note_on_c, 9, 43, 0
1, 90360, Note_on_c, 9, 43, 127
1, 90599, Note_on_c, 9, 43, 0
1, 90600, Note_on_c, 9, 43, 127
1, 90719, Note_on_c, 9, 43, 0
1, 90720, Note_on_c, 9, 43, 127
1, 90959, Note_on_c, 9, 43, 0
1, 90960, Note_on_c, 9, 43, 127
1, 91079, Note_on_c, 9, 43, 0
1, 91080, Note_on_c, 9, 43, 127
1, 91199, Note_on_c, 9, 43, 0
1, 91200, Note_on_c, 9, 43, 127
1, 91319, Note_on_c, 9, 43, 0
1, 91320, Note_on_c, 9, 43, 127
1, 91439, Note_on_c, 9, 43, 0
1, 91440, Note_on_c, 9, 43, 127
1, 91559, Note_on_c, 9, 43, 0
1, 91560, Note_on_c, 9, 43, 127
1, 91679, Note_on_c, 9, 43, 0
1, 91680, Note_on_c, 9, 43, 127
1, 91799, Note_on_c, 9, 43, 0
1, 91800, Note_on_c, 9, 43, 127
1, 91920, Note_on_c, 9, 38, 127
1, 92159, Note_on_c, 9, 43, 0
1, 92159, Note_on_c, 9, 38, 0
1, 92160, Note_on_c, 9, 43, 127
1, 92400, Note_on_c, 9, 38, 127
1, 92519, Note_on_c, 9, 43, 0
1, 92520, Note_on_c, 9, 43, 127
1, 92639, Note_on_c, 9, 38, 0
1, 92639, Note_on_c, 9, 43, 0
1, 92640, Note_on_c, 9, 43, 127
1, 93119, Note_on_c, 9, 43, 0
1, 94080, Note_on_c, 9, 43, 127
1, 94199, Note_on_c, 9, 43, 0
1, 94200, Note_on_c, 9, 43, 127
1, 94320, Note_on_c, 9, 38, 127
1, 94439, Note_on_c, 9, 43, 0
1, 94440, Note_on_c, 9, 43, 127
1, 94559, Note_on_c, 9, 38, 0
1, 94559, Note_on_c, 9, 43, 0
1, 94560, Note_on_c, 9, 43, 127
1, 94679, Note_on_c, 9, 43, 0
1, 94680, Note_on_c, 9, 43, 127
1, 94800, Note_on_c, 9, 38, 127
1, 94919, Note_on_c, 9, 43, 0
1, 94920, Note_on_c, 9, 43, 127
1, 95039, Note_on_c, 9, 38, 0
1, 95039, Note_on_c, 9, 43, 0
1, 95040, Note_on_c, 9, 43, 127
1, 95280, Note_on_c, 9, 38, 127
1, 95399, Note_on_c, 9, 43, 0
1, 95400, Note_on_c, 9, 43, 127
1, 95519, Note_on_c, 9, 38, 0
1, 95519, Note_on_c, 9, 43, 0
1, 95520, Note_on_c, 9, 43, 127
1, 95639, Note_on_c, 9, 43, 0
1, 95640, Note_on_c, 9, 43, 127
1, 95760, Note_on_c, 9, 38, 127
1, 95879, Note_on_c, 9, 43, 0
1, 95880, Note_on_c, 9, 43, 127
1, 95999, Note_on_c, 9, 38, 0
1, 95999, Note_on_c, 9, 43, 0
1, 96000, Note_on_c, 9, 43, 127
1, 96119, Note_on_c, 9, 43, 0
1, 96120, Note_on_c, 9, 43, 127
1, 96239, Note_on_c, 9, 43, 0
1, 96240, Note_on_c, 9, 43, 127
1, 96479, Note_on_c, 9, 43, 0
1, 96960, Note_on_c, 9, 43, 127
1, 97080, Note_on_c, 9, 38, 127
1, 97199, Note_on_c, 9, 38, 0
1, 97200, Note_on_c, 9, 38, 127
1, 97319, Note_on_c, 9, 43, 0
1, 97320, Note_on_c, 9, 43, 127
1, 97439, Note_on_c, 9, 38, 0
1, 97439, Note_on_c, 9, 43, 0
1, 97440, Note_on_c, 9, 38, 127
1, 97680, Note_on_c, 9, 43, 127
1, 97919, Note_on_c, 9, 38, 0
1, 97919, Note_on_c, 9, 43, 0
1, 97920, Note_on_c, 9, 38, 127
1, 98160, Note_on_c, 9, 43, 127
1, 98399, Note_on_c, 9, 38, 0
1, 98399, Note_on_c, 9, 43, 0
1, 99000, Note_on_c, 9, 43, 127
1, 99120, Note_on_c, 9, 47, 127
1, 99239, Note_on_c, 9, 47, 0
1, 99240, Note_on_c, 9, 47, 127
1, 99359, Note_on_c, 9, 43, 0
1, 99359, Note_on_c, 9, 47, 0
1, 99360, Note_on_c, 9, 38, 127
1, 99839, Note_on_c, 9, 38, 0
1, 100440, Note_on_c, 9, 43, 127
1, 100560, Note_on_c, 9, 38, 127
1, 100679, Note_on_c, 9, 38, 0
1, 100680, Note_on_c, 9, 38, 127
1, 100799, Note_on_c, 9, 43, 0
1, 100799, Note_on_c, 9, 38, 0
1, 100800, Note_on_c, 9, 43, 127
1, 100919, Note_on_c, 9, 43, 0
1, 100920, Note_on_c, 9, 43, 127
1, 101039, Note_on_c, 9, 43, 0
1, 101040, Note_on_c, 9, 43, 127
1, 101279, Note_on_c, 9, 43, 0
1, 101760, Note_on_c, 9, 43, 127
1, 101880, Note_on_c, 9, 38, 127
1, 101999, Note_on_c, 9, 38, 0
1, 102000, Note_on_c, 9, 38, 127
1, 102119, Note_on_c, 9, 43, 0
1, 102120, Note_on_c, 9, 43, 127
1, 102239, Note_on_c, 9, 38, 0
1, 102239, Note_on_c, 9, 43, 0
1, 102240, Note_on_c, 9, 38, 127
1, 102359, Note_on_c, 9, 38, 0
1, 102360, Note_on_c, 9, 38, 127
1, 102479, Note_on_c, 9, 38, 0
1, 102480, Note_on_c, 9, 38, 127
1, 102599, Note_on_c, 9, 38, 0
1, 102600, Note_on_c, 9, 38, 127
1, 102719, Note_on_c, 9, 38, 0
1, 102720, Note_on_c, 9, 38, 127
1, 102839, Note_on_c, 9, 38, 0
1, 102840, Note_on_c, 9, 38, 127
1, 102959, Note_on_c, 9, 38, 0
1, 102960, Note_on_c, 9, 38, 127
1, 103079, Note_on_c, 9, 38, 0
1, 103080, Note_on_c, 9, 38, 127
1, 103199, Note_on_c, 9, 38, 0
1, 103200, Note_on_c, 9, 38, 127
1, 103279, Note_on_c, 9, 38, 0
1, 103280, Note_on_c, 9, 38, 127
1, 103359, Note_on_c, 9, 38, 0
1, 103360, Note_on_c, 9, 38, 127
1, 103439, Note_on_c, 9, 38, 0
1, 103440, Note_on_c, 9, 38, 127
1, 103519, Note_on_c, 9, 38, 0
1, 103520, Note_on_c, 9, 38, 127
1, 103599, Note_on_c, 9, 38, 0
1, 103600, Note_on_c, 9, 38, 127
1, 103679, Note_on_c, 9, 38, 0
1, 117120, Note_on_c, 9, 47, 127
1, 117239, Note_on_c, 9, 47, 0
1, 117240, Note_on_c, 9, 47, 127
1, 117360, Note_on_c, 9, 43, 127
1, 117599, Note_on_c, 9, 47, 0
1, 117599, Note_on_c, 9, 43, 0
1, 117600, Note_on_c, 9, 47, 127
1, 117840, Note_on_c, 9, 43, 127
1, 118079, Note_on_c, 9, 47, 0
1, 118079, Note_on_c, 9, 43, 0
1, 118080, Note_on_c, 9, 41, 127
1, 118319, Note_on_c, 9, 41, 0
1, 118320, Note_on_c, 9, 41, 127
1, 118499, Note_on_c, 9, 41, 0
1, 118530, Note_on_c, 9, 38, 112
1, 118559, Note_on_c, 9, 38, 0
1, 118560, Note_on_c, 9, 38, 127
1, 118560, Note_on_c, 9, 46, 127
1, 118584, Note_on_c, 9, 46, 0
1, 119039, Note_on_c, 9, 38, 0
1, 119040, Note_on_c, 9, 42, 127
1, 119040, Note_on_c, 9, 36, 127
1, 119051, Note_on_c, 9, 42, 0
1, 119280, Note_on_c, 9, 42, 127
1, 119291, Note_on_c, 9, 42, 0
1, 119519, Note_on_c, 9, 36, 0
1, 119520, Note_on_c, 9, 38, 127
1, 119520, Note_on_c, 9, 42, 127
1, 119531, Note_on_c, 9, 42, 0
1, 119759, Note_on_c, 9, 38, 0
1, 119760, Note_on_c, 9, 42, 127
1, 119771, Note_on_c, 9, 42, 0
1, 120000, Note_on_c, 9, 42, 127
1, 120000, Note_on_c, 9, 36, 127
1, 120011, Note_on_c, 9, 42, 0
1, 120240, Note_on_c, 9, 42, 127
1, 120251, Note_on_c, 9, 42, 0
1, 120479, Note_on_c, 9, 36, 0
1, 120480, Note_on_c, 9, 38, 127
1, 120480, Note_on_c, 9, 42, 127
1, 120491, Note_on_c, 9, 42, 0
1, 120719, Note_on_c, 9, 38, 0
1, 120720, Note_on_c, 9, 42, 127
1, 120731, Note_on_c, 9, 42, 0
1, 120960, Note_on_c, 9, 42, 127
1, 120960, Note_on_c, 9, 36, 127
1, 120971, Note_on_c, 9, 42, 0
1, 121200, Note_on_c, 9, 42, 127
1, 121211, Note_on_c, 9, 42, 0
1, 121439, Note_on_c, 9, 36, 0
1, 121440, Note_on_c, 9, 38, 127
1, 121440, Note_on_c, 9, 42, 127
1, 121451, Note_on_c, 9, 42, 0
1, 121679, Note_on_c, 9, 38, 0
1, 121680, Note_on_c, 9, 42, 127
1, 121691, Note_on_c, 9, 42, 0
1, 121920, Note_on_c, 9, 42, 127
1, 121920, Note_on_c, 9, 36, 127
1, 121931, Note_on_c, 9, 42, 0
1, 122160, Note_on_c, 9, 42, 127
1, 122171, Note_on_c, 9, 42, 0
1, 122399, Note_on_c, 9, 36, 0
1, 122400, Note_on_c, 9, 38, 127
1, 122400, Note_on_c, 9, 42, 127
1, 122411, Note_on_c, 9, 42, 0
1, 122639, Note_on_c, 9, 38, 0
1, 122640, Note_on_c, 9, 46, 127
1, 122651, Note_on_c, 9, 46, 0
1, 122880, Note_on_c, 9, 42, 127
1, 122880, Note_on_c, 9, 36, 127
1, 122891, Note_on_c, 9, 42, 0
1, 123120, Note_on_c, 9, 42, 127
1, 123131, Note_on_c, 9, 42, 0
1, 123359, Note_on_c, 9, 36, 0
1, 123360, Note_on_c, 9, 38, 127
1, 123360, Note_on_c, 9, 42, 127
1, 123371, Note_on_c, 9, 42, 0
1, 123599, Note_on_c, 9, 38, 0
1, 123600, Note_on_c, 9, 42, 127
1, 123611, Note_on_c, 9, 42, 0
1, 123840, Note_on_c, 9, 42, 127
1, 123840, Note_on_c, 9, 36, 127
1, 123851, Note_on_c, 9, 42, 0
1, 124080, Note_on_c, 9, 42, 127
1, 124091, Note_on_c, 9, 42, 0
1, 124319, Note_on_c, 9, 36, 0
1, 124320, Note_on_c, 9, 38, 127
1, 124320, Note_on_c, 9, 42, 127
1, 124331, Note_on_c, 9, 42, 0
1, 124559, Note_on_c, 9, 38, 0
1, 124560, Note_on_c, 9, 42, 127
1, 124571, Note_on_c, 9, 42, 0
1, 124800, Note_on_c, 9, 42, 127
1, 124800, Note_on_c, 9, 36, 127
1, 124811, Note_on_c, 9, 42, 0
1, 125040, Note_on_c, 9, 42, 127
1, 125051, Note_on_c, 9, 42, 0
1, 125279, Note_on_c, 9, 36, 0
1, 125280, Note_on_c, 9, 38, 127
1, 125280, Note_on_c, 9, 42, 127
1, 125291, Note_on_c, 9, 42, 0
1, 125519, Note_on_c, 9, 38, 0
1, 125520, Note_on_c, 9, 42, 127
1, 125531, Note_on_c, 9, 42, 0
1, 125760, Note_on_c, 9, 42, 127
1, 125760, Note_on_c, 9, 36, 127
1, 125771, Note_on_c, 9, 42, 0
1, 126000, Note_on_c, 9, 42, 127
1, 126011, Note_on_c, 9, 42, 0
1, 126239, Note_on_c, 9, 36, 0
1, 126240, Note_on_c, 9, 38, 127
1, 126240, Note_on_c, 9, 42, 127
1, 126251, Note_on_c, 9, 42, 0
1, 126479, Note_on_c, 9, 38, 0
1, 126480, Note_on_c, 9, 46, 127
1, 126491, Note_on_c, 9, 46, 0
1, 126720, Note_on_c, 9, 42, 127
1, 126720, Note_on_c, 9, 36, 127
1, 126731, Note_on_c, 9, 42, 0
1, 126960, Note_on_c, 9, 42, 127
1, 126971, Note_on_c, 9, 42, 0
1, 127199, Note_on_c, 9, 36, 0
1, 127200, Note_on_c, 9, 38, 127
1, 127200, Note_on_c, 9, 42, 127
1, 127211, Note_on_c, 9, 42, 0
1, 127439, Note_on_c, 9, 38, 0
1, 127440, Note_on_c, 9, 42, 127
1, 127451, Note_on_c, 9, 42, 0
1, 127680, Note_on_c, 9, 42, 127
1, 127680, Note_on_c, 9, 36, 127
1, 127691, Note_on_c, 9, 42, 0
1, 127920, Note_on_c, 9, 42, 127
1, 127931, Note_on_c, 9, 42, 0
1, 128159, Note_on_c, 9, 36, 0
1, 128160, Note_on_c, 9, 38, 127
1, 128160, Note_on_c, 9, 42, 127
1, 128171, Note_on_c, 9, 42, 0
1, 128399, Note_on_c, 9, 38, 0
1, 128400, Note_on_c, 9, 42, 127
1, 128411, Note_on_c, 9, 42, 0
1, 128640, Note_on_c, 9, 42, 127
1, 128640, Note_on_c, 9, 36, 127
1, 128651, Note_on_c, 9, 42, 0
1, 128880, Note_on_c, 9, 42, 127
1, 128891, Note_on_c, 9, 42, 0
1, 129119, Note_on_c, 9, 36, 0
1, 129120, Note_on_c, 9, 38, 127
1, 129120, Note_on_c, 9, 42, 127
1, 129131, Note_on_c, 9, 42, 0
1, 129359, Note_on_c, 9, 38, 0
1, 129360, Note_on_c, 9, 42, 127
1, 129371, Note_on_c, 9, 42, 0
1, 129600, Note_on_c, 9, 42, 127
1, 129600, Note_on_c, 9, 36, 127
1, 129611, Note_on_c, 9, 42, 0
1, 129840, Note_on_c, 9, 42, 127
1, 129851, Note_on_c, 9, 42, 0
1, 130079, Note_on_c, 9, 36, 0
1, 130080, Note_on_c, 9, 38, 127
1, 130080, Note_on_c, 9, 42, 127
1, 130091, Note_on_c, 9, 42, 0
1, 130319, Note_on_c, 9, 38, 0
1, 130320, Note_on_c, 9, 46, 127
1, 130320, Note_on_c, 9, 36, 127
1, 130331, Note_on_c, 9, 46, 0
1, 130559, Note_on_c, 9, 36, 0
1, 130560, Note_on_c, 9, 42, 127
1, 130560, Note_on_c, 9, 36, 127
1, 130571, Note_on_c, 9, 42, 0
1, 130800, Note_on_c, 9, 42, 127
1, 130811, Note_on_c, 9, 42, 0
1, 131039, Note_on_c, 9, 36, 0
1, 131040, Note_on_c, 9, 38, 127
1, 131040, Note_on_c, 9, 42, 127
1, 131051, Note_on_c, 9, 42, 0
1, 131279, Note_on_c, 9, 38, 0
1, 131280, Note_on_c, 9, 42, 127
1, 131291, Note_on_c, 9, 42, 0
1, 131520, Note_on_c, 9, 42, 127
1, 131520, Note_on_c, 9, 36, 127
1, 131531, Note_on_c, 9, 42, 0
1, 131760, Note_on_c, 9, 42, 127
1, 131771, Note_on_c, 9, 42, 0
1, 131999, Note_on_c, 9, 36, 0
1, 132000, Note_on_c, 9, 38, 127
1, 132000, Note_on_c, 9, 42, 127
1, 132011, Note_on_c, 9, 42, 0
1, 132239, Note_on_c, 9, 38, 0
1, 132240, Note_on_c, 9, 42, 127
1, 132251, Note_on_c, 9, 42, 0
1, 132480, Note_on_c, 9, 42, 127
1, 132480, Note_on_c, 9, 36, 127
1, 132491, Note_on_c, 9, 42, 0
1, 132720, Note_on_c, 9, 42, 127
1, 132731, Note_on_c, 9, 42, 0
1, 132959, Note_on_c, 9, 36, 0
1, 132960, Note_on_c, 9, 38, 127
1, 132960, Note_on_c, 9, 42, 127
1, 132971, Note_on_c, 9, 42, 0
1, 133199, Note_on_c, 9, 38, 0
1, 133200, Note_on_c, 9, 42, 127
1, 133211, Note_on_c, 9, 42, 0
1, 133440, Note_on_c, 9, 42, 127
1, 133440, Note_on_c, 9, 36, 127
1, 133445, Note_on_c, 9, 42, 0
1, 133560, Note_on_c, 9, 42, 127
1, 133565, Note_on_c, 9, 42, 0
1, 133680, Note_on_c, 9, 42, 127
1, 133685, Note_on_c, 9, 42, 0
1, 133800, Note_on_c, 9, 38, 120
1, 133919, Note_on_c, 9, 36, 0
1, 133919, Note_on_c, 9, 38, 0
1, 133920, Note_on_c, 9, 38, 127
1, 134159, Note_on_c, 9, 38, 0
1, 134160, Note_on_c, 9, 38, 127
1, 134399, Note_on_c, 9, 38, 0
1, 134400, Note_on_c, 9, 42, 127
1, 134400, Note_on_c, 9, 36, 127
1, 134411, Note_on_c, 9, 42, 0
1, 134640, Note_on_c, 9, 42, 127
1, 134651, Note_on_c, 9, 42, 0
1, 134879, Note_on_c, 9, 36, 0
1, 134880, Note_on_c, 9, 38, 127
1, 134880, Note_on_c, 9, 42, 127
1, 134891, Note_on_c, 9, 42, 0
1, 135119, Note_on_c, 9, 38, 0
1, 135120, Note_on_c, 9, 42, 127
1, 135131, Note_on_c, 9, 42, 0
1, 135360, Note_on_c, 9, 42, 127
1, 135360, Note_on_c, 9, 36, 127
1, 135371, Note_on_c, 9, 42, 0
1, 135600, Note_on_c, 9, 42, 127
1, 135611, Note_on_c, 9, 42, 0
1, 135839, Note_on_c, 9, 36, 0
1, 135840, Note_on_c, 9, 38, 127
1, 135840, Note_on_c, 9, 42, 127
1, 135851, Note_on_c, 9, 42, 0
1, 136079, Note_on_c, 9, 38, 0
1, 136080, Note_on_c, 9, 42, 127
1, 136091, Note_on_c, 9, 42, 0
1, 136320, Note_on_c, 9, 42, 127
1, 136320, Note_on_c, 9, 36, 127
1, 136331, Note_on_c, 9, 42, 0
1, 136560, Note_on_c, 9, 42, 127
1, 136571, Note_on_c, 9, 42, 0
1, 136799, Note_on_c, 9, 36, 0
1, 136800, Note_on_c, 9, 38, 127
1, 136800, Note_on_c, 9, 42, 127
1, 136811, Note_on_c, 9, 42, 0
1, 137039, Note_on_c, 9, 38, 0
1, 137040, Note_on_c, 9, 42, 127
1, 137051, Note_on_c, 9, 42, 0
1, 137280, Note_on_c, 9, 42, 127
1, 137280, Note_on_c, 9, 36, 127
1, 137291, Note_on_c, 9, 42, 0
1, 137520, Note_on_c, 9, 42, 127
1, 137531, Note_on_c, 9, 42, 0
1, 137759, Note_on_c, 9, 36, 0
1, 137760, Note_on_c, 9, 38, 127
1, 137760, Note_on_c, 9, 42, 127
1, 137771, Note_on_c, 9, 42, 0
1, 137999, Note_on_c, 9, 38, 0
1, 138000, Note_on_c, 9, 42, 127
1, 138011, Note_on_c, 9, 42, 0
1, 138240, Note_on_c, 9, 42, 127
1, 138240, Note_on_c, 9, 36, 127
1, 138251, Note_on_c, 9, 42, 0
1, 138480, Note_on_c, 9, 42, 127
1, 138491, Note_on_c, 9, 42, 0
1, 138719, Note_on_c, 9, 36, 0
1, 138720, Note_on_c, 9, 38, 127
1, 138720, Note_on_c, 9, 42, 127
1, 138731, Note_on_c, 9, 42, 0
1, 138959, Note_on_c, 9, 38, 0
1, 138960, Note_on_c, 9, 42, 127
1, 138971, Note_on_c, 9, 42, 0
1, 139200, Note_on_c, 9, 42, 127
1, 139200, Note_on_c, 9, 36, 127
1, 139211, Note_on_c, 9, 42, 0
1, 139440, Note_on_c, 9, 42, 127
1, 139451, Note_on_c, 9, 42, 0
1, 139679, Note_on_c, 9, 36, 0
1, 139680, Note_on_c, 9, 38, 127
1, 139680, Note_on_c, 9, 42, 127
1, 139691, Note_on_c, 9, 42, 0
1, 139919, Note_on_c, 9, 38, 0
1, 139920, Note_on_c, 9, 42, 127
1, 139931, Note_on_c, 9, 42, 0
1, 140160, Note_on_c, 9, 42, 127
1, 140160, Note_on_c, 9, 36, 127
1, 140171, Note_on_c, 9, 42, 0
1, 140400, Note_on_c, 9, 42, 127
1, 140411, Note_on_c, 9, 42, 0
1, 140639, Note_on_c, 9, 36, 0
1, 140640, Note_on_c, 9, 38, 127
1, 140640, Note_on_c, 9, 42, 127
1, 140651, Note_on_c, 9, 42, 0
1, 140879, Note_on_c, 9, 38, 0
1, 140880, Note_on_c, 9, 42, 127
1, 140891, Note_on_c, 9, 42, 0
1, 141120, Note_on_c, 9, 42, 127
1, 141120, Note_on_c, 9, 36, 127
1, 141131, Note_on_c, 9, 42, 0
1, 141360, Note_on_c, 9, 42, 127
1, 141371, Note_on_c, 9, 42, 0
1, 141599, Note_on_c, 9, 36, 0
1, 141600, Note_on_c, 9, 38, 127
1, 141600, Note_on_c, 9, 42, 127
1, 141611, Note_on_c, 9, 42, 0
1, 141839, Note_on_c, 9, 38, 0
1, 141840, Note_on_c, 9, 46, 127
1, 141851, Note_on_c, 9, 46, 0
1, 142080, Note_on_c, 9, 42, 127
1, 142080, Note_on_c, 9, 36, 127
1, 142091, Note_on_c, 9, 42, 0
1, 142320, Note_on_c, 9, 42, 127
1, 142331, Note_on_c, 9, 42, 0
1, 142559, Note_on_c, 9, 36, 0
1, 142560, Note_on_c, 9, 38, 127
1, 142560, Note_on_c, 9, 42, 127
1, 142571, Note_on_c, 9, 42, 0
1, 142799, Note_on_c, 9, 38, 0
1, 142800, Note_on_c, 9, 42, 127
1, 142811, Note_on_c, 9, 42, 0
1, 143040, Note_on_c, 9, 42, 127
1, 143040, Note_on_c, 9, 36, 127
1, 143051, Note_on_c, 9, 42, 0
1, 143280, Note_on_c, 9, 42, 127
1, 143291, Note_on_c, 9, 42, 0
1, 143519, Note_on_c, 9, 36, 0
1, 143520, Note_on_c, 9, 38, 127
1, 143520, Note_on_c, 9, 42, 127
1, 143531, Note_on_c, 9, 42, 0
1, 143759, Note_on_c, 9, 38, 0
1, 143760, Note_on_c, 9, 42, 127
1, 143771, Note_on_c, 9, 42, 0
1, 144000, Note_on_c, 9, 42, 127
1, 144000, Note_on_c, 9, 36, 127
1, 144011, Note_on_c, 9, 42, 0
1, 144240, Note_on_c, 9, 42, 127
1, 144251, Note_on_c, 9, 42, 0
1, 144479, Note_on_c, 9, 36, 0
1, 144480, Note_on_c, 9, 38, 127
1, 144480, Note_on_c, 9, 42, 127
1, 144491, Note_on_c, 9, 42, 0
1, 144719, Note_on_c, 9, 38, 0
1, 144720, Note_on_c, 9, 42, 127
1, 144731, Note_on_c, 9, 42, 0
1, 144960, Note_on_c, 9, 42, 127
1, 144960, Note_on_c, 9, 36, 127
1, 144971, Note_on_c, 9, 42, 0
1, 145200, Note_on_c, 9, 42, 127
1, 145211, Note_on_c, 9, 42, 0
1, 145439, Note_on_c, 9, 36, 0
1, 145440, Note_on_c, 9, 38, 127
1, 145440, Note_on_c, 9, 42, 127
1, 145451, Note_on_c, 9, 42, 0
1, 145679, Note_on_c, 9, 38, 0
1, 145680, Note_on_c, 9, 42, 127
1, 145691, Note_on_c, 9, 42, 0
1, 145920, Note_on_c, 9, 42, 127
1, 145920, Note_on_c, 9, 36, 127
1, 145931, Note_on_c, 9, 42, 0
1, 146160, Note_on_c, 9, 42, 127
1, 146171, Note_on_c, 9, 42, 0
1, 146399, Note_on_c, 9, 36, 0
1, 146400, Note_on_c, 9, 38, 127
1, 146400, Note_on_c, 9, 42, 127
1, 146411, Note_on_c, 9, 42, 0
1, 146639, Note_on_c, 9, 38, 0
1, 146640, Note_on_c, 9, 42, 127
1, 146651, Note_on_c, 9, 42, 0
1, 146880, Note_on_c, 9, 42, 127
1, 146880, Note_on_c, 9, 36, 127
1, 146891, Note_on_c, 9, 42, 0
1, 147120, Note_on_c, 9, 42, 127
1, 147131, Note_on_c, 9, 42, 0
1, 147359, Note_on_c, 9, 36, 0
1, 147360, Note_on_c, 9, 38, 127
1, 147360, Note_on_c, 9, 42, 127
1, 147371, Note_on_c, 9, 42, 0
1, 147599, Note_on_c, 9, 38, 0
1, 147600, Note_on_c, 9, 42, 127
1, 147611, Note_on_c, 9, 42, 0
1, 147840, Note_on_c, 9, 42, 127
1, 147840, Note_on_c, 9, 36, 127
1, 147851, Note_on_c, 9, 42, 0
1, 148080, Note_on_c, 9, 42, 127
1, 148091, Note_on_c, 9, 42, 0
1, 148319, Note_on_c, 9, 36, 0
1, 148320, Note_on_c, 9, 38, 127
1, 148320, Note_on_c, 9, 42, 127
1, 148331, Note_on_c, 9, 42, 0
1, 148559, Note_on_c, 9, 38, 0
1, 148560, Note_on_c, 9, 42, 127
1, 148571, Note_on_c, 9, 42, 0
1, 148800, Note_on_c, 9, 42, 127
1, 148800, Note_on_c, 9, 36, 127
1, 148811, Note_on_c, 9, 42, 0
1, 149040, Note_on_c, 9, 46, 127
1, 149051, Note_on_c, 9, 46, 0
1, 149279, Note_on_c, 9, 36, 0
1, 149280, Note_on_c, 9, 38, 127
1, 149280, Note_on_c, 9, 42, 127
1, 149291, Note_on_c, 9, 42, 0
1, 149519, Note_on_c, 9, 38, 0
1, 149520, Note_on_c, 9, 42, 127
1, 149520, Note_on_c, 9, 36, 127
1, 149531, Note_on_c, 9, 42, 0
1, 149759, Note_on_c, 9, 36, 0
1, 149760, Note_on_c, 9, 42, 127
1, 149760, Note_on_c, 9, 36, 127
1, 149771, Note_on_c, 9, 42, 0
1, 150000, Note_on_c, 9, 42, 127
1, 150011, Note_on_c, 9, 42, 0
1, 150239, Note_on_c, 9, 36, 0
1, 150240, Note_on_c, 9, 38, 127
1, 150240, Note_on_c, 9, 42, 127
1, 150251, Note_on_c, 9, 42, 0
1, 150479, Note_on_c, 9, 38, 0
1, 150480, Note_on_c, 9, 42, 127
1, 150491, Note_on_c, 9, 42, 0
1, 150720, Note_on_c, 9, 42, 127
1, 150720, Note_on_c, 9, 36, 127
1, 150731, Note_on_c, 9, 42, 0
1, 150960, Note_on_c, 9, 42, 127
1, 150971, Note_on_c, 9, 42, 0
1, 151199, Note_on_c, 9, 36, 0
1, 151200, Note_on_c, 9, 38, 127
1, 151200, Note_on_c, 9, 42, 127
1, 151211, Note_on_c, 9, 42, 0
1, 151439, Note_on_c, 9, 38, 0
1, 151440, Note_on_c, 9, 42, 127
1, 151451, Note_on_c, 9, 42, 0
1, 151680, Note_on_c, 9, 42, 127
1, 151680, Note_on_c, 9, 36, 127
1, 151691, Note_on_c, 9, 42, 0
1, 151920, Note_on_c, 9, 42, 127
1, 151931, Note_on_c, 9, 42, 0
1, 152159, Note_on_c, 9, 36, 0
1, 152160, Note_on_c, 9, 38, 127
1, 152160, Note_on_c, 9, 42, 127
1, 152171, Note_on_c, 9, 42, 0
1, 152399, Note_on_c, 9, 38, 0
1, 152400, Note_on_c, 9, 42, 127
1, 152411, Note_on_c, 9, 42, 0
1, 152640, Note_on_c, 9, 42, 127
1, 152640, Note_on_c, 9, 36, 127
1, 152651, Note_on_c, 9, 42, 0
1, 152880, Note_on_c, 9, 42, 127
1, 152891, Note_on_c, 9, 42, 0
1, 153119, Note_on_c, 9, 36, 0
1, 153120, Note_on_c, 9, 38, 127
1, 153120, Note_on_c, 9, 42, 127
1, 153131, Note_on_c, 9, 42, 0
1, 153359, Note_on_c, 9, 38, 0
1, 153360, Note_on_c, 9, 42, 127
1, 153371, Note_on_c, 9, 42, 0
1, 153600, Note_on_c, 9, 42, 127
1, 153600, Note_on_c, 9, 36, 127
1, 153611, Note_on_c, 9, 42, 0
1, 153840, Note_on_c, 9, 42, 127
1, 153851, Note_on_c, 9, 42, 0
1, 154079, Note_on_c, 9, 36, 0
1, 154080, Note_on_c, 9, 38, 127
1, 154080, Note_on_c, 9, 42, 127
1, 154091, Note_on_c, 9, 42, 0
1, 154319, Note_on_c, 9, 38, 0
1, 154320, Note_on_c, 9, 42, 127
1, 154331, Note_on_c, 9, 42, 0
1, 154560, Note_on_c, 9, 42, 127
1, 154560, Note_on_c, 9, 36, 127
1, 154571, Note_on_c, 9, 42, 0
1, 154800, Note_on_c, 9, 42, 127
1, 154811, Note_on_c, 9, 42, 0
1, 155039, Note_on_c, 9, 36, 0
1, 155040, Note_on_c, 9, 38, 127
1, 155040, Note_on_c, 9, 42, 127
1, 155051, Note_on_c, 9, 42, 0
1, 155279, Note_on_c, 9, 38, 0
1, 155280, Note_on_c, 9, 42, 127
1, 155291, Note_on_c, 9, 42, 0
1, 155520, Note_on_c, 9, 42, 127
1, 155520, Note_on_c, 9, 36, 127
1, 155531, Note_on_c, 9, 42, 0
1, 155760, Note_on_c, 9, 42, 127
1, 155771, Note_on_c, 9, 42, 0
1, 155999, Note_on_c, 9, 36, 0
1, 156000, Note_on_c, 9, 38, 127
1, 156000, Note_on_c, 9, 42, 127
1, 156011, Note_on_c, 9, 42, 0
1, 156239, Note_on_c, 9, 38, 0
1, 156240, Note_on_c, 9, 42, 127
1, 156251, Note_on_c, 9, 42, 0
1, 156480, Note_on_c, 9, 42, 127
1, 156480, Note_on_c, 9, 36, 127
1, 156491, Note_on_c, 9, 42, 0
1, 156720, Note_on_c, 9, 42, 127
1, 156731, Note_on_c, 9, 42, 0
1, 156959, Note_on_c, 9, 36, 0
1, 156960, Note_on_c, 9, 38, 127
1, 156960, Note_on_c, 9, 42, 127
1, 156971, Note_on_c, 9, 42, 0
1, 157199, Note_on_c, 9, 38, 0
1, 157200, Note_on_c, 9, 46, 127
1, 157200, Note_on_c, 9, 36, 127
1, 157211, Note_on_c, 9, 46, 0
1, 157439, Note_on_c, 9, 36, 0
1, 157440, Note_on_c, 9, 42, 127
1, 157440, Note_on_c, 9, 36, 127
1, 157451, Note_on_c, 9, 42, 0
1, 157680, Note_on_c, 9, 42, 127
1, 157691, Note_on_c, 9, 42, 0
1, 157919, Note_on_c, 9, 36, 0
1, 157920, Note_on_c, 9, 38, 127
1, 157920, Note_on_c, 9, 42, 127
1, 157931, Note_on_c, 9, 42, 0
1, 158159, Note_on_c, 9, 38, 0
1, 158160, Note_on_c, 9, 42, 127
1, 158171, Note_on_c, 9, 42, 0
1, 158400, Note_on_c, 9, 42, 127
1, 158400, Note_on_c, 9, 36, 127
1, 158411, Note_on_c, 9, 42, 0
1, 158640, Note_on_c, 9, 42, 127
1, 158651, Note_on_c, 9, 42, 0
1, 158879, Note_on_c, 9, 36, 0
1, 158880, Note_on_c, 9, 38, 127
1, 158880, Note_on_c, 9, 42, 127
1, 158891, Note_on_c, 9, 42, 0
1, 159119, Note_on_c, 9, 38, 0
1, 159120, Note_on_c, 9, 42, 127
1, 159131, Note_on_c, 9, 42, 0
1, 159360, Note_on_c, 9, 42, 127
1, 159360, Note_on_c, 9, 36, 127
1, 159371, Note_on_c, 9, 42, 0
1, 159600, Note_on_c, 9, 42, 127
1, 159611, Note_on_c, 9, 42, 0
1, 159839, Note_on_c, 9, 36, 0
1, 159840, Note_on_c, 9, 38, 127
1, 159840, Note_on_c, 9, 42, 127
1, 159851, Note_on_c, 9, 42, 0
1, 160079, Note_on_c, 9, 38, 0
1, 160080, Note_on_c, 9, 42, 127
1, 160091, Note_on_c, 9, 42, 0
1, 160320, Note_on_c, 9, 42, 127
1, 160320, Note_on_c, 9, 36, 127
1, 160331, Note_on_c, 9, 42, 0
1, 160560, Note_on_c, 9, 42, 127
1, 160571, Note_on_c, 9, 42, 0
1, 160799, Note_on_c, 9, 36, 0
1, 160800, Note_on_c, 9, 38, 127
1, 160800, Note_on_c, 9, 42, 127
1, 160811, Note_on_c, 9, 42, 0
1, 161039, Note_on_c, 9, 38, 0
1, 161040, Note_on_c, 9, 42, 127
1, 161051, Note_on_c, 9, 42, 0
1, 161280, Note_on_c, 9, 42, 127
1, 161280, Note_on_c, 9, 36, 127
1, 161291, Note_on_c, 9, 42, 0
1, 161520, Note_on_c, 9, 42, 127
1, 161531, Note_on_c, 9, 42, 0
1, 161759, Note_on_c, 9, 36, 0
1, 161760, Note_on_c, 9, 38, 127
1, 161760, Note_on_c, 9, 42, 127
1, 161771, Note_on_c, 9, 42, 0
1, 161999, Note_on_c, 9, 38, 0
1, 162000, Note_on_c, 9, 42, 127
1, 162011, Note_on_c, 9, 42, 0
1, 162240, Note_on_c, 9, 42, 127
1, 162240, Note_on_c, 9, 36, 127
1, 162251, Note_on_c, 9, 42, 0
1, 162480, Note_on_c, 9, 42, 127
1, 162491, Note_on_c, 9, 42, 0
1, 162719, Note_on_c, 9, 36, 0
1, 162720, Note_on_c, 9, 38, 127
1, 162720, Note_on_c, 9, 42, 127
1, 162731, Note_on_c, 9, 42, 0
1, 162959, Note_on_c, 9, 38, 0
1, 162960, Note_on_c, 9, 42, 127
1, 162971, Note_on_c, 9, 42, 0
1, 163200, Note_on_c, 9, 42, 127
1, 163200, Note_on_c, 9, 36, 127
1, 163211, Note_on_c, 9, 42, 0
1, 163440, Note_on_c, 9, 42, 127
1, 163451, Note_on_c, 9, 42, 0
1, 163679, Note_on_c, 9, 36, 0
1, 163680, Note_on_c, 9, 38, 127
1, 163680, Note_on_c, 9, 42, 127
1, 163691, Note_on_c, 9, 42, 0
1, 163919, Note_on_c, 9, 38, 0
1, 163920, Note_on_c, 9, 42, 127
1, 163931, Note_on_c, 9, 42, 0
1, 164160, Note_on_c, 9, 42, 127
1, 164160, Note_on_c, 9, 36, 127
1, 164171, Note_on_c, 9, 42, 0
1, 164400, Note_on_c, 9, 42, 127
1, 164405, Note_on_c, 9, 42, 0
1, 164520, Note_on_c, 9, 38, 120
1, 164639, Note_on_c, 9, 36, 0
1, 164639, Note_on_c, 9, 38, 0
1, 164640, Note_on_c, 9, 38, 127
1, 164880, Note_on_c, 9, 36, 127
1, 165119, Note_on_c, 9, 38, 0
1, 165119, Note_on_c, 9, 36, 0
1, 165120, Note_on_c, 9, 49, 127
1, 165120, Note_on_c, 9, 36, 127
1, 165131, Note_on_c, 9, 49, 0
1, 165360, Note_on_c, 9, 42, 127
1, 165371, Note_on_c, 9, 42, 0
1, 165599, Note_on_c, 9, 36, 0
1, 165600, Note_on_c, 9, 38, 127
1, 165600, Note_on_c, 9, 42, 127
1, 165611, Note_on_c, 9, 42, 0
1, 165839, Note_on_c, 9, 38, 0
1, 165840, Note_on_c, 9, 42, 127
1, 165851, Note_on_c, 9, 42, 0
1, 166080, Note_on_c, 9, 42, 127
1, 166080, Note_on_c, 9, 36, 127
1, 166091, Note_on_c, 9, 42, 0
1, 166320, Note_on_c, 9, 42, 127
1, 166331, Note_on_c, 9, 42, 0
1, 166559, Note_on_c, 9, 36, 0
1, 166560, Note_on_c, 9, 38, 127
1, 166560, Note_on_c, 9, 42, 127
1, 166571, Note_on_c, 9, 42, 0
1, 166799, Note_on_c, 9, 38, 0
1, 166800, Note_on_c, 9, 46, 127
1, 166811, Note_on_c, 9, 46, 0
1, 167040, Note_on_c, 9, 42, 127
1, 167040, Note_on_c, 9, 36, 127
1, 167051, Note_on_c, 9, 42, 0
1, 167280, Note_on_c, 9, 42, 127
1, 167291, Note_on_c, 9, 42, 0
1, 167519, Note_on_c, 9, 36, 0
1, 167520, Note_on_c, 9, 38, 127
1, 167520, Note_on_c, 9, 42, 127
1, 167531, Note_on_c, 9, 42, 0
1, 167759, Note_on_c, 9, 38, 0
1, 167760, Note_on_c, 9, 42, 127
1, 167771, Note_on_c, 9, 42, 0
1, 168000, Note_on_c, 9, 42, 127
1, 168000, Note_on_c, 9, 36, 127
1, 168011, Note_on_c, 9, 42, 0
1, 168240, Note_on_c, 9, 42, 127
1, 168251, Note_on_c, 9, 42, 0
1, 168479, Note_on_c, 9, 36, 0
1, 168480, Note_on_c, 9, 38, 127
1, 168480, Note_on_c, 9, 42, 127
1, 168491, Note_on_c, 9, 42, 0
1, 168719, Note_on_c, 9, 38, 0
1, 168720, Note_on_c, 9, 42, 127
1, 168731, Note_on_c, 9, 42, 0
1, 168960, Note_on_c, 9, 42, 127
1, 168960, Note_on_c, 9, 36, 127
1, 168971, Note_on_c, 9, 42, 0
1, 169200, Note_on_c, 9, 42, 127
1, 169211, Note_on_c, 9, 42, 0
1, 169439, Note_on_c, 9, 36, 0
1, 169440, Note_on_c, 9, 38, 127
1, 169440, Note_on_c, 9, 42, 127
1, 169451, Note_on_c, 9, 42, 0
1, 169679, Note_on_c, 9, 38, 0
1, 169680, Note_on_c, 9, 42, 127
1, 169691, Note_on_c, 9, 42, 0
1, 169920, Note_on_c, 9, 42, 127
1, 169920, Note_on_c, 9, 36, 127
1, 169931, Note_on_c, 9, 42, 0
1, 170160, Note_on_c, 9, 42, 127
1, 170171, Note_on_c, 9, 42, 0
1, 170399, Note_on_c, 9, 36, 0
1, 170400, Note_on_c, 9, 38, 127
1, 170400, Note_on_c, 9, 42, 127
1, 170411, Note_on_c, 9, 42, 0
1, 170639, Note_on_c, 9, 38, 0
1, 170640, Note_on_c, 9, 42, 127
1, 170651, Note_on_c, 9, 42, 0
1, 170880, Note_on_c, 9, 42, 127
1, 170880, Note_on_c, 9, 36, 127
1, 170891, Note_on_c, 9, 42, 0
1, 171120, Note_on_c, 9, 42, 127
1, 171131, Note_on_c, 9, 42, 0
1, 171359, Note_on_c, 9, 36, 0
1, 171360, Note_on_c, 9, 38, 127
1, 171360, Note_on_c, 9, 42, 127
1, 171371, Note_on_c, 9, 42, 0
1, 171599, Note_on_c, 9, 38, 0
1, 171600, Note_on_c, 9, 42, 127
1, 171611, Note_on_c, 9, 42, 0
1, 171840, Note_on_c, 9, 42, 127
1, 171840, Note_on_c, 9, 36, 127
1, 171851, Note_on_c, 9, 42, 0
1, 172080, Note_on_c, 9, 42, 127
1, 172091, Note_on_c, 9, 42, 0
1, 172319, Note_on_c, 9, 36, 0
1, 172320, Note_on_c, 9, 38, 127
1, 172320, Note_on_c, 9, 42, 127
1, 172331, Note_on_c, 9, 42, 0
1, 172559, Note_on_c, 9, 38, 0
1, 172560, Note_on_c, 9, 46, 127
1, 172571, Note_on_c, 9, 46, 0
1, 172800, Note_on_c, 9, 42, 127
1, 172800, Note_on_c, 9, 36, 127
1, 172811, Note_on_c, 9, 42, 0
1, 173040, Note_on_c, 9, 42, 127
1, 173051, Note_on_c, 9, 42, 0
1, 173279, Note_on_c, 9, 36, 0
1, 173280, Note_on_c, 9, 38, 127
1, 173280, Note_on_c, 9, 42, 127
1, 173291, Note_on_c, 9, 42, 0
1, 173519, Note_on_c, 9, 38, 0
1, 173520, Note_on_c, 9, 42, 127
1, 173531, Note_on_c, 9, 42, 0
1, 173760, Note_on_c, 9, 42, 127
1, 173760, Note_on_c, 9, 36, 127
1, 173771, Note_on_c, 9, 42, 0
1, 174000, Note_on_c, 9, 42, 127
1, 174011, Note_on_c, 9, 42, 0
1, 174239, Note_on_c, 9, 36, 0
1, 174240, Note_on_c, 9, 38, 127
1, 174240, Note_on_c, 9, 42, 127
1, 174251, Note_on_c, 9, 42, 0
1, 174479, Note_on_c, 9, 38, 0
1, 174480, Note_on_c, 9, 42, 127
1, 174491, Note_on_c, 9, 42, 0
1, 174720, Note_on_c, 9, 42, 127
1, 174720, Note_on_c, 9, 36, 127
1, 174731, Note_on_c, 9, 42, 0
1, 174960, Note_on_c, 9, 42, 127
1, 174971, Note_on_c, 9, 42, 0
1, 175199, Note_on_c, 9, 36, 0
1, 175200, Note_on_c, 9, 38, 127
1, 175200, Note_on_c, 9, 42, 127
1, 175211, Note_on_c, 9, 42, 0
1, 175439, Note_on_c, 9, 38, 0
1, 175440, Note_on_c, 9, 42, 127
1, 175451, Note_on_c, 9, 42, 0
1, 175680, Note_on_c, 9, 42, 127
1, 175680, Note_on_c, 9, 36, 127
1, 175691, Note_on_c, 9, 42, 0
1, 175920, Note_on_c, 9, 42, 127
1, 175931, Note_on_c, 9, 42, 0
1, 176159, Note_on_c, 9, 36, 0
1, 176160, Note_on_c, 9, 38, 127
1, 176160, Note_on_c, 9, 42, 127
1, 176171, Note_on_c, 9, 42, 0
1, 176399, Note_on_c, 9, 38, 0
1, 176400, Note_on_c, 9, 46, 127
1, 176400, Note_on_c, 9, 36, 127
1, 176411, Note_on_c, 9, 46, 0
1, 176639, Note_on_c, 9, 36, 0
1, 176640, Note_on_c, 9, 42, 127
1, 176640, Note_on_c, 9, 36, 127
1, 176651, Note_on_c, 9, 42, 0
1, 176880, Note_on_c, 9, 42, 127
1, 176891, Note_on_c, 9, 42, 0
1, 177119, Note_on_c, 9, 36, 0
1, 177120, Note_on_c, 9, 38, 127
1, 177120, Note_on_c, 9, 42, 127
1, 177131, Note_on_c, 9, 42, 0
1, 177359, Note_on_c, 9, 38, 0
1, 177360, Note_on_c, 9, 42, 127
1, 177371, Note_on_c, 9, 42, 0
1, 177600, Note_on_c, 9, 42, 127
1, 177600, Note_on_c, 9, 36, 127
1, 177611, Note_on_c, 9, 42, 0
1, 177840, Note_on_c, 9, 42, 127
1, 177851, Note_on_c, 9, 42, 0
1, 178079, Note_on_c, 9, 36, 0
1, 178080, Note_on_c, 9, 38, 127
1, 178080, Note_on_c, 9, 42, 127
1, 178091, Note_on_c, 9, 42, 0
1, 178319, Note_on_c, 9, 38, 0
1, 178320, Note_on_c, 9, 42, 127
1, 178331, Note_on_c, 9, 42, 0
1, 178560, Note_on_c, 9, 42, 127
1, 178560, Note_on_c, 9, 36, 127
1, 178571, Note_on_c, 9, 42, 0
1, 178800, Note_on_c, 9, 42, 127
1, 178811, Note_on_c, 9, 42, 0
1, 179039, Note_on_c, 9, 36, 0
1, 179040, Note_on_c, 9, 38, 127
1, 179040, Note_on_c, 9, 42, 127
1, 179051, Note_on_c, 9, 42, 0
1, 179279, Note_on_c, 9, 38, 0
1, 179280, Note_on_c, 9, 42, 127
1, 179291, Note_on_c, 9, 42, 0
1, 179520, Note_on_c, 9, 42, 127
1, 179520, Note_on_c, 9, 36, 127
1, 179531, Note_on_c, 9, 42, 0
1, 179760, Note_on_c, 9, 42, 127
1, 179771, Note_on_c, 9, 42, 0
1, 179999, Note_on_c, 9, 36, 0
1, 180000, Note_on_c, 9, 38, 127
1, 180000, Note_on_c, 9, 42, 127
1, 180011, Note_on_c, 9, 42, 0
1, 180239, Note_on_c, 9, 38, 0
1, 180240, Note_on_c, 9, 42, 127
1, 180240, Note_on_c, 9, 36, 127
1, 180251, Note_on_c, 9, 42, 0
1, 180479, Note_on_c, 9, 36, 0
1, 180480, Note_on_c, 9, 42, 127
1, 180480, Note_on_c, 9, 36, 127
1, 180491, Note_on_c, 9, 42, 0
1, 180720, Note_on_c, 9, 42, 127
1, 180731, Note_on_c, 9, 42, 0
1, 180959, Note_on_c, 9, 36, 0
1, 180960, Note_on_c, 9, 38, 127
1, 180960, Note_on_c, 9, 42, 127
1, 180971, Note_on_c, 9, 42, 0
1, 181199, Note_on_c, 9, 38, 0
1, 181200, Note_on_c, 9, 42, 127
1, 181211, Note_on_c, 9, 42, 0
1, 181440, Note_on_c, 9, 42, 127
1, 181440, Note_on_c, 9, 36, 127
1, 181451, Note_on_c, 9, 42, 0
1, 181680, Note_on_c, 9, 42, 127
1, 181691, Note_on_c, 9, 42, 0
1, 181919, Note_on_c, 9, 36, 0
1, 181920, Note_on_c, 9, 38, 127
1, 181920, Note_on_c, 9, 42, 127
1, 181931, Note_on_c, 9, 42, 0
1, 182159, Note_on_c, 9, 38, 0
1, 182160, Note_on_c, 9, 47, 127
1, 182279, Note_on_c, 9, 47, 0
1, 182280, Note_on_c, 9, 47, 127
1, 182399, Note_on_c, 9, 47, 0
1, 182400, Note_on_c, 9, 47, 127
1, 182400, Note_on_c, 9, 36, 127
1, 182639, Note_on_c, 9, 47, 0
1, 182640, Note_on_c, 9, 47, 127
1, 182879, Note_on_c, 9, 36, 0
1, 182879, Note_on_c, 9, 47, 0
1, 182880, Note_on_c, 9, 43, 127
1, 183120, Note_on_c, 9, 41, 127
1, 183359, Note_on_c, 9, 43, 0
1, 183359, Note_on_c, 9, 41, 0
1, 183360, Note_on_c, 9, 41, 127
1, 183360, Note_on_c, 9, 36, 127
1, 183599, Note_on_c, 9, 41, 0
1, 183600, Note_on_c, 9, 41, 127
1, 183779, Note_on_c, 9, 41, 0
1, 183810, Note_on_c, 9, 38, 104
1, 183839, Note_on_c, 9, 36, 0
1, 183839, Note_on_c, 9, 38, 0
1, 183840, Note_on_c, 9, 38, 127
1, 184319, Note_on_c, 9, 38, 0
1, 184320, Note_on_c, 9, 49, 127
1, 184320, Note_on_c, 9, 36, 127
1, 184331, Note_on_c, 9, 49, 0
1, 184560, Note_on_c, 9, 42, 127
1, 184571, Note_on_c, 9, 42, 0
1, 184799, Note_on_c, 9, 36, 0
1, 184800, Note_on_c, 9, 38, 127
1, 184800, Note_on_c, 9, 42, 127
1, 184811, Note_on_c, 9, 42, 0
1, 185039, Note_on_c, 9, 38, 0
1, 185040, Note_on_c, 9, 42, 127
1, 185051, Note_on_c, 9, 42, 0
1, 185280, Note_on_c, 9, 42, 127
1, 185280, Note_on_c, 9, 36, 127
1, 185291, Note_on_c, 9, 42, 0
1, 185520, Note_on_c, 9, 42, 127
1, 185531, Note_on_c, 9, 42, 0
1, 185759, Note_on_c, 9, 36, 0
1, 185760, Note_on_c, 9, 38, 127
1, 185760, Note_on_c, 9, 42, 127
1, 185771, Note_on_c, 9, 42, 0
1, 185999, Note_on_c, 9, 38, 0
1, 186000, Note_on_c, 9, 42, 127
1, 186011, Note_on_c, 9, 42, 0
1, 186240, Note_on_c, 9, 42, 127
1, 186240, Note_on_c, 9, 36, 127
1, 186251, Note_on_c, 9, 42, 0
1, 186480, Note_on_c, 9, 42, 127
1, 186491, Note_on_c, 9, 42, 0
1, 186719, Note_on_c, 9, 36, 0
1, 186720, Note_on_c, 9, 38, 127
1, 186720, Note_on_c, 9, 42, 127
1, 186731, Note_on_c, 9, 42, 0
1, 186959, Note_on_c, 9, 38, 0
1, 186960, Note_on_c, 9, 42, 127
1, 186971, Note_on_c, 9, 42, 0
1, 187200, Note_on_c, 9, 42, 127
1, 187200, Note_on_c, 9, 36, 127
1, 187211, Note_on_c, 9, 42, 0
1, 187440, Note_on_c, 9, 42, 127
1, 187451, Note_on_c, 9, 42, 0
1, 187679, Note_on_c, 9, 36, 0
1, 187680, Note_on_c, 9, 38, 127
1, 187680, Note_on_c, 9, 42, 127
1, 187691, Note_on_c, 9, 42, 0
1, 187919, Note_on_c, 9, 38, 0
1, 187920, Note_on_c, 9, 46, 127
1, 187931, Note_on_c, 9, 46, 0
1, 188160, Note_on_c, 9, 42, 127
1, 188160, Note_on_c, 9, 36, 127
1, 188171, Note_on_c, 9, 42, 0
1, 188400, Note_on_c, 9, 42, 127
1, 188411, Note_on_c, 9, 42, 0
1, 188639, Note_on_c, 9, 36, 0
1, 188640, Note_on_c, 9, 38, 127
1, 188640, Note_on_c, 9, 42, 127
1, 188651, Note_on_c, 9, 42, 0
1, 188879, Note_on_c, 9, 38, 0
1, 188880, Note_on_c, 9, 42, 127
1, 188891, Note_on_c, 9, 42, 0
1, 189120, Note_on_c, 9, 42, 127
1, 189120, Note_on_c, 9, 36, 127
1, 189131, Note_on_c, 9, 42, 0
1, 189360, Note_on_c, 9, 42, 127
1, 189371, Note_on_c, 9, 42, 0
1, 189599, Note_on_c, 9, 36, 0
1, 189600, Note_on_c, 9, 38, 127
1, 189600, Note_on_c, 9, 42, 127
1, 189611, Note_on_c, 9, 42, 0
1, 189839, Note_on_c, 9, 38, 0
1, 189840, Note_on_c, 9, 42, 127
1, 189851, Note_on_c, 9, 42, 0
1, 190080, Note_on_c, 9, 42, 127
1, 190080, Note_on_c, 9, 36, 127
1, 190091, Note_on_c, 9, 42, 0
1, 190320, Note_on_c, 9, 42, 127
1, 190331, Note_on_c, 9, 42, 0
1, 190559, Note_on_c, 9, 36, 0
1, 190560, Note_on_c, 9, 38, 127
1, 190560, Note_on_c, 9, 42, 127
1, 190571, Note_on_c, 9, 42, 0
1, 190799, Note_on_c, 9, 38, 0
1, 190800, Note_on_c, 9, 42, 127
1, 190811, Note_on_c, 9, 42, 0
1, 191040, Note_on_c, 9, 42, 127
1, 191040, Note_on_c, 9, 36, 127
1, 191051, Note_on_c, 9, 42, 0
1, 191280, Note_on_c, 9, 42, 127
1, 191291, Note_on_c, 9, 42, 0
1, 191519, Note_on_c, 9, 36, 0
1, 191520, Note_on_c, 9, 38, 127
1, 191520, Note_on_c, 9, 42, 127
1, 191531, Note_on_c, 9, 42, 0
1, 191759, Note_on_c, 9, 38, 0
1, 191760, Note_on_c, 9, 42, 127
1, 191760, Note_on_c, 9, 36, 127
1, 191771, Note_on_c, 9, 42, 0
1, 191999, Note_on_c, 9, 36, 0
1, 192000, Note_on_c, 9, 42, 127
1, 192000, Note_on_c, 9, 36, 127
1, 192011, Note_on_c, 9, 42, 0
1, 192240, Note_on_c, 9, 42, 127
1, 192251, Note_on_c, 9, 42, 0
1, 192479, Note_on_c, 9, 36, 0
1, 192480, Note_on_c, 9, 38, 127
1, 192480, Note_on_c, 9, 42, 127
1, 192491, Note_on_c, 9, 42, 0
1, 192719, Note_on_c, 9, 38, 0
1, 192720, Note_on_c, 9, 42, 127
1, 192731, Note_on_c, 9, 42, 0
1, 192960, Note_on_c, 9, 42, 127
1, 192960, Note_on_c, 9, 36, 127
1, 192971, Note_on_c, 9, 42, 0
1, 193200, Note_on_c, 9, 42, 127
1, 193211, Note_on_c, 9, 42, 0
1, 193439, Note_on_c, 9, 36, 0
1, 193440, Note_on_c, 9, 38, 127
1, 193440, Note_on_c, 9, 42, 127
1, 193451, Note_on_c, 9, 42, 0
1, 193679, Note_on_c, 9, 38, 0
1, 193680, Note_on_c, 9, 42, 127
1, 193691, Note_on_c, 9, 42, 0
1, 193920, Note_on_c, 9, 42, 127
1, 193920, Note_on_c, 9, 36, 127
1, 193931, Note_on_c, 9, 42, 0
1, 194160, Note_on_c, 9, 42, 127
1, 194171, Note_on_c, 9, 42, 0
1, 194399, Note_on_c, 9, 36, 0
1, 194400, Note_on_c, 9, 38, 127
1, 194400, Note_on_c, 9, 42, 127
1, 194411, Note_on_c, 9, 42, 0
1, 194639, Note_on_c, 9, 38, 0
1, 194640, Note_on_c, 9, 42, 127
1, 194651, Note_on_c, 9, 42, 0
1, 194880, Note_on_c, 9, 42, 127
1, 194880, Note_on_c, 9, 36, 127
1, 194891, Note_on_c, 9, 42, 0
1, 195120, Note_on_c, 9, 42, 127
1, 195131, Note_on_c, 9, 42, 0
1, 195359, Note_on_c, 9, 36, 0
1, 195360, Note_on_c, 9, 38, 127
1, 195360, Note_on_c, 9, 42, 127
1, 195371, Note_on_c, 9, 42, 0
1, 195599, Note_on_c, 9, 38, 0
1, 195600, Note_on_c, 9, 42, 127
1, 195600, Note_on_c, 9, 36, 127
1, 195611, Note_on_c, 9, 42, 0
1, 195839, Note_on_c, 9, 36, 0
1, 195840, Note_on_c, 9, 42, 127
1, 195840, Note_on_c, 9, 36, 127
1, 195851, Note_on_c, 9, 42, 0
1, 196080, Note_on_c, 9, 42, 127
1, 196091, Note_on_c, 9, 42, 0
1, 196319, Note_on_c, 9, 36, 0
1, 196320, Note_on_c, 9, 38, 127
1, 196320, Note_on_c, 9, 42, 127
1, 196331, Note_on_c, 9, 42, 0
1, 196559, Note_on_c, 9, 38, 0
1, 196560, Note_on_c, 9, 42, 127
1, 196571, Note_on_c, 9, 42, 0
1, 196800, Note_on_c, 9, 42, 127
1, 196800, Note_on_c, 9, 36, 127
1, 196811, Note_on_c, 9, 42, 0
1, 197040, Note_on_c, 9, 42, 127
1, 197051, Note_on_c, 9, 42, 0
1, 197279, Note_on_c, 9, 36, 0
1, 197280, Note_on_c, 9, 38, 127
1, 197280, Note_on_c, 9, 42, 127
1, 197291, Note_on_c, 9, 42, 0
1, 197519, Note_on_c, 9, 38, 0
1, 197520, Note_on_c, 9, 42, 127
1, 197531, Note_on_c, 9, 42, 0
1, 197760, Note_on_c, 9, 42, 127
1, 197760, Note_on_c, 9, 36, 127
1, 197771, Note_on_c, 9, 42, 0
1, 198000, Note_on_c, 9, 42, 127
1, 198011, Note_on_c, 9, 42, 0
1, 198239, Note_on_c, 9, 36, 0
1, 198240, Note_on_c, 9, 38, 127
1, 198240, Note_on_c, 9, 42, 127
1, 198251, Note_on_c, 9, 42, 0
1, 198479, Note_on_c, 9, 38, 0
1, 198480, Note_on_c, 9, 42, 127
1, 198491, Note_on_c, 9, 42, 0
1, 198720, Note_on_c, 9, 42, 127
1, 198720, Note_on_c, 9, 36, 127
1, 198731, Note_on_c, 9, 42, 0
1, 198960, Note_on_c, 9, 42, 127
1, 198965, Note_on_c, 9, 42, 0
1, 199080, Note_on_c, 9, 38, 127
1, 199199, Note_on_c, 9, 36, 0
1, 199199, Note_on_c, 9, 38, 0
1, 199200, Note_on_c, 9, 38, 127
1, 199200, Note_on_c, 9, 42, 127
1, 199211, Note_on_c, 9, 42, 0
1, 199439, Note_on_c, 9, 38, 0
1, 199440, Note_on_c, 9, 42, 127
1, 199440, Note_on_c, 9, 36, 127
1, 199451, Note_on_c, 9, 42, 0
1, 199679, Note_on_c, 9, 36, 0
1, 199680, Note_on_c, 9, 42, 127
1, 199680, Note_on_c, 9, 36, 127
1, 199691, Note_on_c, 9, 42, 0
1, 199920, Note_on_c, 9, 42, 127
1, 199931, Note_on_c, 9, 42, 0
1, 200159, Note_on_c, 9, 36, 0
1, 200160, Note_on_c, 9, 38, 127
1, 200160, Note_on_c, 9, 42, 127
1, 200171, Note_on_c, 9, 42, 0
1, 200399, Note_on_c, 9, 38, 0
1, 200400, Note_on_c, 9, 42, 127
1, 200411, Note_on_c, 9, 42, 0
1, 200640, Note_on_c, 9, 42, 127
1, 200640, Note_on_c, 9, 36, 127
1, 200651, Note_on_c, 9, 42, 0
1, 200880, Note_on_c, 9, 42, 127
1, 200891, Note_on_c, 9, 42, 0
1, 201119, Note_on_c, 9, 36, 0
1, 201120, Note_on_c, 9, 38, 127
1, 201120, Note_on_c, 9, 42, 127
1, 201131, Note_on_c, 9, 42, 0
1, 201359, Note_on_c, 9, 38, 0
1, 201360, Note_on_c, 9, 42, 127
1, 201371, Note_on_c, 9, 42, 0
1, 201600, Note_on_c, 9, 42, 127
1, 201600, Note_on_c, 9, 36, 127
1, 201611, Note_on_c, 9, 42, 0
1, 201840, Note_on_c, 9, 42, 127
1, 201851, Note_on_c, 9, 42, 0
1, 202079, Note_on_c, 9, 36, 0
1, 202080, Note_on_c, 9, 38, 127
1, 202080, Note_on_c, 9, 42, 127
1, 202091, Note_on_c, 9, 42, 0
1, 202319, Note_on_c, 9, 38, 0
1, 202320, Note_on_c, 9, 42, 127
1, 202331, Note_on_c, 9, 42, 0
1, 202560, Note_on_c, 9, 42, 127
1, 202560, Note_on_c, 9, 36, 127
1, 202571, Note_on_c, 9, 42, 0
1, 202800, Note_on_c, 9, 42, 127
1, 202811, Note_on_c, 9, 42, 0
1, 203039, Note_on_c, 9, 36, 0
1, 203040, Note_on_c, 9, 38, 127
1, 203040, Note_on_c, 9, 42, 127
1, 203051, Note_on_c, 9, 42, 0
1, 203279, Note_on_c, 9, 38, 0
1, 203280, Note_on_c, 9, 46, 127
1, 203291, Note_on_c, 9, 46, 0
1, 203520, Note_on_c, 9, 42, 127
1, 203520, Note_on_c, 9, 36, 127
1, 203531, Note_on_c, 9, 42, 0
1, 203760, Note_on_c, 9, 42, 127
1, 203771, Note_on_c, 9, 42, 0
1, 203999, Note_on_c, 9, 36, 0
1, 204000, Note_on_c, 9, 38, 127
1, 204000, Note_on_c, 9, 42, 127
1, 204011, Note_on_c, 9, 42, 0
1, 204239, Note_on_c, 9, 38, 0
1, 204240, Note_on_c, 9, 42, 127
1, 204251, Note_on_c, 9, 42, 0
1, 204480, Note_on_c, 9, 42, 127
1, 204480, Note_on_c, 9, 36, 127
1, 204491, Note_on_c, 9, 42, 0
1, 204720, Note_on_c, 9, 42, 127
1, 204731, Note_on_c, 9, 42, 0
1, 204959, Note_on_c, 9, 36, 0
1, 204960, Note_on_c, 9, 38, 127
1, 204960, Note_on_c, 9, 42, 127
1, 204971, Note_on_c, 9, 42, 0
1, 205199, Note_on_c, 9, 38, 0
1, 205200, Note_on_c, 9, 42, 127
1, 205211, Note_on_c, 9, 42, 0
1, 205440, Note_on_c, 9, 42, 127
1, 205440, Note_on_c, 9, 36, 127
1, 205451, Note_on_c, 9, 42, 0
1, 205680, Note_on_c, 9, 42, 127
1, 205691, Note_on_c, 9, 42, 0
1, 205919, Note_on_c, 9, 36, 0
1, 205920, Note_on_c, 9, 38, 127
1, 205920, Note_on_c, 9, 42, 127
1, 205931, Note_on_c, 9, 42, 0
1, 206159, Note_on_c, 9, 38, 0
1, 206160, Note_on_c, 9, 42, 127
1, 206171, Note_on_c, 9, 42, 0
1, 206400, Note_on_c, 9, 42, 127
1, 206400, Note_on_c, 9, 36, 127
1, 206411, Note_on_c, 9, 42, 0
1, 206640, Note_on_c, 9, 42, 127
1, 206651, Note_on_c, 9, 42, 0
1, 206879, Note_on_c, 9, 36, 0
1, 206880, Note_on_c, 9, 38, 127
1, 206880, Note_on_c, 9, 42, 127
1, 206904, Note_on_c, 9, 42, 0
1, 207120, Note_on_c, 9, 36, 127
1, 207359, Note_on_c, 9, 38, 0
1, 207359, Note_on_c, 9, 36, 0
1, 207360, Note_on_c, 9, 42, 127
1, 207360, Note_on_c, 9, 36, 127
1, 207371, Note_on_c, 9, 42, 0
1, 207600, Note_on_c, 9, 42, 127
1, 207611, Note_on_c, 9, 42, 0
1, 207839, Note_on_c, 9, 36, 0
1, 207840, Note_on_c, 9, 38, 127
1, 207840, Note_on_c, 9, 42, 127
1, 207851, Note_on_c, 9, 42, 0
1, 208079, Note_on_c, 9, 38, 0
1, 208080, Note_on_c, 9, 42, 127
1, 208091, Note_on_c, 9, 42, 0
1, 208320, Note_on_c, 9, 42, 127
1, 208320, Note_on_c, 9, 36, 127
1, 208331, Note_on_c, 9, 42, 0
1, 208560, Note_on_c, 9, 42, 127
1, 208571, Note_on_c, 9, 42, 0
1, 208799, Note_on_c, 9, 36, 0
1, 208800, Note_on_c, 9, 38, 127
1, 208800, Note_on_c, 9, 42, 127
1, 208811, Note_on_c, 9, 42, 0
1, 209039, Note_on_c, 9, 38, 0
1, 209040, Note_on_c, 9, 42, 127
1, 209051, Note_on_c, 9, 42, 0
1, 209280, Note_on_c, 9, 42, 127
1, 209280, Note_on_c, 9, 36, 127
1, 209291, Note_on_c, 9, 42, 0
1, 209520, Note_on_c, 9, 42, 127
1, 209531, Note_on_c, 9, 42, 0
1, 209759, Note_on_c, 9, 36, 0
1, 209760, Note_on_c, 9, 38, 127
1, 209760, Note_on_c, 9, 42, 127
1, 209771, Note_on_c, 9, 42, 0
1, 209999, Note_on_c, 9, 38, 0
1, 210000, Note_on_c, 9, 42, 127
1, 210011, Note_on_c, 9, 42, 0
1, 210240, Note_on_c, 9, 42, 127
1, 210240, Note_on_c, 9, 36, 127
1, 210251, Note_on_c, 9, 42, 0
1, 210480, Note_on_c, 9, 42, 127
1, 210491, Note_on_c, 9, 42, 0
1, 210719, Note_on_c, 9, 36, 0
1, 210720, Note_on_c, 9, 38, 127
1, 210720, Note_on_c, 9, 42, 127
1, 210731, Note_on_c, 9, 42, 0
1, 210959, Note_on_c, 9, 38, 0
1, 210960, Note_on_c, 9, 46, 127
1, 210960, Note_on_c, 9, 36, 127
1, 210971, Note_on_c, 9, 46, 0
1, 211199, Note_on_c, 9, 36, 0
1, 211200, Note_on_c, 9, 42, 127
1, 211200, Note_on_c, 9, 36, 127
1, 211211, Note_on_c, 9, 42, 0
1, 211440, Note_on_c, 9, 42, 127
1, 211451, Note_on_c, 9, 42, 0
1, 211679, Note_on_c, 9, 36, 0
1, 211680, Note_on_c, 9, 38, 127
1, 211680, Note_on_c, 9, 42, 127
1, 211691, Note_on_c, 9, 42, 0
1, 211919, Note_on_c, 9, 38, 0
1, 211920, Note_on_c, 9, 42, 127
1, 211931, Note_on_c, 9, 42, 0
1, 212160, Note_on_c, 9, 42, 127
1, 212160, Note_on_c, 9, 36, 127
1, 212171, Note_on_c, 9, 42, 0
1, 212400, Note_on_c, 9, 42, 127
1, 212411, Note_on_c, 9, 42, 0
1, 212639, Note_on_c, 9, 36, 0
1, 212640, Note_on_c, 9, 38, 127
1, 212640, Note_on_c, 9, 42, 127
1, 212651, Note_on_c, 9, 42, 0
1, 212879, Note_on_c, 9, 38, 0
1, 212880, Note_on_c, 9, 42, 127
1, 212891, Note_on_c, 9, 42, 0
1, 213120, Note_on_c, 9, 42, 127
1, 213120, Note_on_c, 9, 36, 127
1, 213131, Note_on_c, 9, 42, 0
1, 213360, Note_on_c, 9, 42, 127
1, 213371, Note_on_c, 9, 42, 0
1, 213599, Note_on_c, 9, 36, 0
1, 213600, Note_on_c, 9, 38, 127
1, 213600, Note_on_c, 9, 42, 127
1, 213611, Note_on_c, 9, 42, 0
1, 213839, Note_on_c, 9, 38, 0
1, 213840, Note_on_c, 9, 42, 127
1, 213851, Note_on_c, 9, 42, 0
1, 214080, Note_on_c, 9, 42, 127
1, 214080, Note_on_c, 9, 36, 127
1, 214091, Note_on_c, 9, 42, 0
1, 214320, Note_on_c, 9, 38, 127
1, 214320, Note_on_c, 9, 42, 127
1, 214331, Note_on_c, 9, 42, 0
1, 214559, Note_on_c, 9, 36, 0
1, 214559, Note_on_c, 9, 38, 0
1, 214560, Note_on_c, 9, 38, 127
1, 214560, Note_on_c, 9, 42, 127
1, 214571, Note_on_c, 9, 42, 0
1, 214799, Note_on_c, 9, 38, 0
1, 214800, Note_on_c, 9, 42, 127
1, 214800, Note_on_c, 9, 36, 127
1, 214811, Note_on_c, 9, 42, 0
1, 215039, Note_on_c, 9, 36, 0
1, 215040, Note_on_c, 9, 49, 127
1, 215040, Note_on_c, 9, 36, 127
1, 215051, Note_on_c, 9, 49, 0
1, 215280, Note_on_c, 9, 42, 127
1, 215291, Note_on_c, 9, 42, 0
1, 215519, Note_on_c, 9, 36, 0
1, 215520, Note_on_c, 9, 38, 127
1, 215520, Note_on_c, 9, 42, 127
1, 215531, Note_on_c, 9, 42, 0
1, 215759, Note_on_c, 9, 38, 0
1, 215760, Note_on_c, 9, 42, 127
1, 215771, Note_on_c, 9, 42, 0
1, 216000, Note_on_c, 9, 42, 127
1, 216000, Note_on_c, 9, 36, 127
1, 216011, Note_on_c, 9, 42, 0
1, 216240, Note_on_c, 9, 42, 127
1, 216251, Note_on_c, 9, 42, 0
1, 216479, Note_on_c, 9, 36, 0
1, 216480, Note_on_c, 9, 38, 127
1, 216480, Note_on_c, 9, 42, 127
1, 216491, Note_on_c, 9, 42, 0
1, 216719, Note_on_c, 9, 38, 0
1, 216720, Note_on_c, 9, 42, 127
1, 216731, Note_on_c, 9, 42, 0
1, 216960, Note_on_c, 9, 47, 127
1, 216960, Note_on_c, 9, 36, 127
1, 217079, Note_on_c, 9, 47, 0
1, 217080, Note_on_c, 9, 47, 127
1, 217199, Note_on_c, 9, 36, 0
1, 217200, Note_on_c, 9, 43, 127
1, 217439, Note_on_c, 9, 47, 0
1, 217439, Note_on_c, 9, 43, 0
1, 217440, Note_on_c, 9, 47, 127
1, 217680, Note_on_c, 9, 43, 127
1, 217919, Note_on_c, 9, 47, 0
1, 217919, Note_on_c, 9, 43, 0
1, 217920, Note_on_c, 9, 41, 127
1, 218159, Note_on_c, 9, 41, 0
1, 218160, Note_on_c, 9, 41, 127
1, 218339, Note_on_c, 9, 41, 0
1, 218370, Note_on_c, 9, 38, 104
1, 218399, Note_on_c, 9, 38, 0
1, 218400, Note_on_c, 9, 38, 127
1, 218400, Note_on_c, 9, 46, 127
1, 218424, Note_on_c, 9, 46, 0
1, 218879, Note_on_c, 9, 38, 0
1, 218880, Note_on_c, 9, 49, 127
1, 218880, Note_on_c, 9, 36, 127
1, 218891, Note_on_c, 9, 49, 0
1, 219120, Note_on_c, 9, 42, 127
1, 219131, Note_on_c, 9, 42, 0
1, 219359, Note_on_c, 9, 36, 0
1, 219360, Note_on_c, 9, 38, 127
1, 219360, Note_on_c, 9, 42, 127
1, 219371, Note_on_c, 9, 42, 0
1, 219599, Note_on_c, 9, 38, 0
1, 219600, Note_on_c, 9, 42, 127
1, 219611, Note_on_c, 9, 42, 0
1, 219840, Note_on_c, 9, 42, 127
1, 219840, Note_on_c, 9, 36, 127
1, 219851, Note_on_c, 9, 42, 0
1, 220080, Note_on_c, 9, 42, 127
1, 220091, Note_on_c, 9, 42, 0
1, 220319, Note_on_c, 9, 36, 0
1, 220320, Note_on_c, 9, 38, 127
1, 220320, Note_on_c, 9, 42, 127
1, 220331, Note_on_c, 9, 42, 0
1, 220559, Note_on_c, 9, 38, 0
1, 220560, Note_on_c, 9, 42, 127
1, 220571, Note_on_c, 9, 42, 0
1, 220800, Note_on_c, 9, 42, 127
1, 220800, Note_on_c, 9, 36, 127
1, 220811, Note_on_c, 9, 42, 0
1, 221040, Note_on_c, 9, 42, 127
1, 221051, Note_on_c, 9, 42, 0
1, 221279, Note_on_c, 9, 36, 0
1, 221280, Note_on_c, 9, 38, 127
1, 221280, Note_on_c, 9, 42, 127
1, 221291, Note_on_c, 9, 42, 0
1, 221519, Note_on_c, 9, 38, 0
1, 221520, Note_on_c, 9, 42, 127
1, 221531, Note_on_c, 9, 42, 0
1, 221760, Note_on_c, 9, 42, 127
1, 221760, Note_on_c, 9, 36, 127
1, 221771, Note_on_c, 9, 42, 0
1, 222000, Note_on_c, 9, 42, 127
1, 222011, Note_on_c, 9, 42, 0
1, 222239, Note_on_c, 9, 36, 0
1, 222240, Note_on_c, 9, 38, 127
1, 222240, Note_on_c, 9, 42, 127
1, 222251, Note_on_c, 9, 42, 0
1, 222479, Note_on_c, 9, 38, 0
1, 222480, Note_on_c, 9, 42, 127
1, 222480, Note_on_c, 9, 36, 127
1, 222491, Note_on_c, 9, 42, 0
1, 222719, Note_on_c, 9, 36, 0
1, 222720, Note_on_c, 9, 42, 127
1, 222720, Note_on_c, 9, 36, 127
1, 222731, Note_on_c, 9, 42, 0
1, 222960, Note_on_c, 9, 42, 127
1, 222971, Note_on_c, 9, 42, 0
1, 223199, Note_on_c, 9, 36, 0
1, 223200, Note_on_c, 9, 38, 127
1, 223200, Note_on_c, 9, 42, 127
1, 223211, Note_on_c, 9, 42, 0
1, 223439, Note_on_c, 9, 38, 0
1, 223440, Note_on_c, 9, 42, 127
1, 223451, Note_on_c, 9, 42, 0
1, 223680, Note_on_c, 9, 42, 127
1, 223680, Note_on_c, 9, 36, 127
1, 223691, Note_on_c, 9, 42, 0
1, 223920, Note_on_c, 9, 42, 127
1, 223931, Note_on_c, 9, 42, 0
1, 224159, Note_on_c, 9, 36, 0
1, 224160, Note_on_c, 9, 38, 127
1, 224160, Note_on_c, 9, 42, 127
1, 224171, Note_on_c, 9, 42, 0
1, 224399, Note_on_c, 9, 38, 0
1, 224400, Note_on_c, 9, 42, 127
1, 224411, Note_on_c, 9, 42, 0
1, 224640, Note_on_c, 9, 42, 127
1, 224640, Note_on_c, 9, 36, 127
1, 224651, Note_on_c, 9, 42, 0
1, 224880, Note_on_c, 9, 42, 127
1, 224891, Note_on_c, 9, 42, 0
1, 225119, Note_on_c, 9, 36, 0
1, 225120, Note_on_c, 9, 38, 127
1, 225120, Note_on_c, 9, 42, 127
1, 225131, Note_on_c, 9, 42, 0
1, 225359, Note_on_c, 9, 38, 0
1, 225360, Note_on_c, 9, 42, 127
1, 225371, Note_on_c, 9, 42, 0
1, 225600, Note_on_c, 9, 42, 127
1, 225600, Note_on_c, 9, 36, 127
1, 225611, Note_on_c, 9, 42, 0
1, 225840, Note_on_c, 9, 42, 127
1, 225851, Note_on_c, 9, 42, 0
1, 226079, Note_on_c, 9, 36, 0
1, 226080, Note_on_c, 9, 38, 127
1, 226080, Note_on_c, 9, 42, 127
1, 226091, Note_on_c, 9, 42, 0
1, 226319, Note_on_c, 9, 38, 0
1, 226320, Note_on_c, 9, 46, 127
1, 226331, Note_on_c, 9, 46, 0
1, 226560, Note_on_c, 9, 42, 127
1, 226560, Note_on_c, 9, 36, 127
1, 226571, Note_on_c, 9, 42, 0
1, 226800, Note_on_c, 9, 42, 127
1, 226811, Note_on_c, 9, 42, 0
1, 227039, Note_on_c, 9, 36, 0
1, 227040, Note_on_c, 9, 38, 127
1, 227040, Note_on_c, 9, 42, 127
1, 227051, Note_on_c, 9, 42, 0
1, 227279, Note_on_c, 9, 38, 0
1, 227280, Note_on_c, 9, 42, 127
1, 227291, Note_on_c, 9, 42, 0
1, 227520, Note_on_c, 9, 42, 127
1, 227520, Note_on_c, 9, 36, 127
1, 227531, Note_on_c, 9, 42, 0
1, 227760, Note_on_c, 9, 42, 127
1, 227771, Note_on_c, 9, 42, 0
1, 227999, Note_on_c, 9, 36, 0
1, 228000, Note_on_c, 9, 38, 127
1, 228000, Note_on_c, 9, 42, 127
1, 228011, Note_on_c, 9, 42, 0
1, 228239, Note_on_c, 9, 38, 0
1, 228240, Note_on_c, 9, 42, 127
1, 228251, Note_on_c, 9, 42, 0
1, 228480, Note_on_c, 9, 42, 127
1, 228480, Note_on_c, 9, 36, 127
1, 228491, Note_on_c, 9, 42, 0
1, 228720, Note_on_c, 9, 42, 127
1, 228731, Note_on_c, 9, 42, 0
1, 228959, Note_on_c, 9, 36, 0
1, 228960, Note_on_c, 9, 38, 127
1, 228960, Note_on_c, 9, 42, 127
1, 228971, Note_on_c, 9, 42, 0
1, 229199, Note_on_c, 9, 38, 0
1, 229200, Note_on_c, 9, 42, 127
1, 229211, Note_on_c, 9, 42, 0
1, 229440, Note_on_c, 9, 42, 127
1, 229440, Note_on_c, 9, 36, 127
1, 229451, Note_on_c, 9, 42, 0
1, 229680, Note_on_c, 9, 42, 127
1, 229691, Note_on_c, 9, 42, 0
1, 229919, Note_on_c, 9, 36, 0
1, 229920, Note_on_c, 9, 38, 127
1, 229920, Note_on_c, 9, 42, 127
1, 229931, Note_on_c, 9, 42, 0
1, 230159, Note_on_c, 9, 38, 0
1, 230160, Note_on_c, 9, 42, 127
1, 230160, Note_on_c, 9, 36, 127
1, 230171, Note_on_c, 9, 42, 0
1, 230399, Note_on_c, 9, 36, 0
1, 230400, Note_on_c, 9, 42, 127
1, 230400, Note_on_c, 9, 36, 127
1, 230411, Note_on_c, 9, 42, 0
1, 230640, Note_on_c, 9, 42, 127
1, 230651, Note_on_c, 9, 42, 0
1, 230879, Note_on_c, 9, 36, 0
1, 230880, Note_on_c, 9, 38, 127
1, 230880, Note_on_c, 9, 42, 127
1, 230891, Note_on_c, 9, 42, 0
1, 231119, Note_on_c, 9, 38, 0
1, 231120, Note_on_c, 9, 42, 127
1, 231131, Note_on_c, 9, 42, 0
1, 231360, Note_on_c, 9, 42, 127
1, 231360, Note_on_c, 9, 36, 127
1, 231371, Note_on_c, 9, 42, 0
1, 231600, Note_on_c, 9, 42, 127
1, 231611, Note_on_c, 9, 42, 0
1, 231839, Note_on_c, 9, 36, 0
1, 231840, Note_on_c, 9, 38, 127
1, 231840, Note_on_c, 9, 42, 127
1, 231851, Note_on_c, 9, 42, 0
1, 232079, Note_on_c, 9, 38, 0
1, 232080, Note_on_c, 9, 42, 127
1, 232091, Note_on_c, 9, 42, 0
1, 232320, Note_on_c, 9, 42, 127
1, 232320, Note_on_c, 9, 36, 127
1, 232331, Note_on_c, 9, 42, 0
1, 232560, Note_on_c, 9, 42, 127
1, 232571, Note_on_c, 9, 42, 0
1, 232799, Note_on_c, 9, 36, 0
1, 232800, Note_on_c, 9, 38, 127
1, 232800, Note_on_c, 9, 42, 127
1, 232811, Note_on_c, 9, 42, 0
1, 233039, Note_on_c, 9, 38, 0
1, 233040, Note_on_c, 9, 46, 127
1, 233051, Note_on_c, 9, 46, 0
1, 233280, Note_on_c, 9, 42, 127
1, 233280, Note_on_c, 9, 36, 127
1, 233291, Note_on_c, 9, 42, 0
1, 233519, Note_on_c, 9, 36, 0
1, 233520, Note_on_c, 9, 42, 127
1, 233520, Note_on_c, 9, 36, 127
1, 233531, Note_on_c, 9, 42, 0
1, 233759, Note_on_c, 9, 36, 0
1, 233760, Note_on_c, 9, 38, 127
1, 233760, Note_on_c, 9, 42, 127
1, 233771, Note_on_c, 9, 42, 0
1, 233999, Note_on_c, 9, 38, 0
1, 234000, Note_on_c, 9, 46, 127
1, 234011, Note_on_c, 9, 46, 0
1, 234240, Note_on_c, 9, 42, 127
1, 234240, Note_on_c, 9, 36, 127
1, 234251, Note_on_c, 9, 42, 0
1, 234480, Note_on_c, 9, 42, 127
1, 234491, Note_on_c, 9, 42, 0
1, 234719, Note_on_c, 9, 36, 0
1, 234720, Note_on_c, 9, 38, 127
1, 234720, Note_on_c, 9, 42, 127
1, 234731, Note_on_c, 9, 42, 0
1, 234959, Note_on_c, 9, 38, 0
1, 234960, Note_on_c, 9, 42, 127
1, 234971, Note_on_c, 9, 42, 0
1, 235200, Note_on_c, 9, 42, 127
1, 235200, Note_on_c, 9, 36, 127
1, 235211, Note_on_c, 9, 42, 0
1, 235440, Note_on_c, 9, 42, 127
1, 235451, Note_on_c, 9, 42, 0
1, 235679, Note_on_c, 9, 36, 0
1, 235680, Note_on_c, 9, 38, 127
1, 235680, Note_on_c, 9, 42, 127
1, 235691, Note_on_c, 9, 42, 0
1, 235919, Note_on_c, 9, 38, 0
1, 235920, Note_on_c, 9, 42, 127
1, 235920, Note_on_c, 9, 36, 127
1, 235931, Note_on_c, 9, 42, 0
1, 236159, Note_on_c, 9, 36, 0
1, 236160, Note_on_c, 9, 42, 127
1, 236160, Note_on_c, 9, 36, 127
1, 236171, Note_on_c, 9, 42, 0
1, 236400, Note_on_c, 9, 42, 127
1, 236411, Note_on_c, 9, 42, 0
1, 236639, Note_on_c, 9, 36, 0
1, 236640, Note_on_c, 9, 38, 127
1, 236640, Note_on_c, 9, 42, 127
1, 236651, Note_on_c, 9, 42, 0
1, 236879, Note_on_c, 9, 38, 0
1, 236880, Note_on_c, 9, 42, 127
1, 236891, Note_on_c, 9, 42, 0
1, 237120, Note_on_c, 9, 42, 127
1, 237120, Note_on_c, 9, 36, 127
1, 237131, Note_on_c, 9, 42, 0
1, 237360, Note_on_c, 9, 42, 127
1, 237371, Note_on_c, 9, 42, 0
1, 237599, Note_on_c, 9, 36, 0
1, 237600, Note_on_c, 9, 38, 127
1, 237600, Note_on_c, 9, 42, 127
1, 237611, Note_on_c, 9, 42, 0
1, 237839, Note_on_c, 9, 38, 0
1, 237840, Note_on_c, 9, 46, 127
1, 237851, Note_on_c, 9, 46, 0
1, 238080, Note_on_c, 9, 42, 127
1, 238080, Note_on_c, 9, 36, 127
1, 238091, Note_on_c, 9, 42, 0
1, 238320, Note_on_c, 9, 42, 127
1, 238331, Note_on_c, 9, 42, 0
1, 238559, Note_on_c, 9, 36, 0
1, 238560, Note_on_c, 9, 38, 127
1, 238560, Note_on_c, 9, 42, 127
1, 238571, Note_on_c, 9, 42, 0
1, 238799, Note_on_c, 9, 38, 0
1, 238800, Note_on_c, 9, 42, 127
1, 238811, Note_on_c, 9, 42, 0
1, 239040, Note_on_c, 9, 42, 127
1, 239040, Note_on_c, 9, 36, 127
1, 239051, Note_on_c, 9, 42, 0
1, 239280, Note_on_c, 9, 42, 127
1, 239291, Note_on_c, 9, 42, 0
1, 239519, Note_on_c, 9, 36, 0
1, 239520, Note_on_c, 9, 38, 127
1, 239520, Note_on_c, 9, 42, 127
1, 239531, Note_on_c, 9, 42, 0
1, 239759, Note_on_c, 9, 38, 0
1, 239760, Note_on_c, 9, 42, 127
1, 239771, Note_on_c, 9, 42, 0
1, 240000, Note_on_c, 9, 42, 127
1, 240000, Note_on_c, 9, 36, 127
1, 240011, Note_on_c, 9, 42, 0
1, 240240, Note_on_c, 9, 42, 127
1, 240251, Note_on_c, 9, 42, 0
1, 240479, Note_on_c, 9, 36, 0
1, 240480, Note_on_c, 9, 38, 127
1, 240480, Note_on_c, 9, 42, 127
1, 240491, Note_on_c, 9, 42, 0
1, 240719, Note_on_c, 9, 38, 0
1, 240720, Note_on_c, 9, 42, 127
1, 240731, Note_on_c, 9, 42, 0
1, 240960, Note_on_c, 9, 42, 127
1, 240960, Note_on_c, 9, 36, 127
1, 240971, Note_on_c, 9, 42, 0
1, 241200, Note_on_c, 9, 42, 127
1, 241211, Note_on_c, 9, 42, 0
1, 241439, Note_on_c, 9, 36, 0
1, 241440, Note_on_c, 9, 38, 127
1, 241440, Note_on_c, 9, 42, 127
1, 241451, Note_on_c, 9, 42, 0
1, 241679, Note_on_c, 9, 38, 0
1, 241680, Note_on_c, 9, 46, 127
1, 241691, Note_on_c, 9, 46, 0
1, 241920, Note_on_c, 9, 42, 127
1, 241920, Note_on_c, 9, 36, 127
1, 241931, Note_on_c, 9, 42, 0
1, 242160, Note_on_c, 9, 42, 127
1, 242171, Note_on_c, 9, 42, 0
1, 242399, Note_on_c, 9, 36, 0
1, 242400, Note_on_c, 9, 38, 127
1, 242400, Note_on_c, 9, 42, 127
1, 242411, Note_on_c, 9, 42, 0
1, 242639, Note_on_c, 9, 38, 0
1, 242640, Note_on_c, 9, 42, 127
1, 242651, Note_on_c, 9, 42, 0
1, 242880, Note_on_c, 9, 42, 127
1, 242880, Note_on_c, 9, 36, 127
1, 242891, Note_on_c, 9, 42, 0
1, 243120, Note_on_c, 9, 42, 127
1, 243131, Note_on_c, 9, 42, 0
1, 243359, Note_on_c, 9, 36, 0
1, 243360, Note_on_c, 9, 38, 127
1, 243360, Note_on_c, 9, 42, 127
1, 243371, Note_on_c, 9, 42, 0
1, 243599, Note_on_c, 9, 38, 0
1, 243600, Note_on_c, 9, 42, 127
1, 243611, Note_on_c, 9, 42, 0
1, 243840, Note_on_c, 9, 42, 127
1, 243840, Note_on_c, 9, 36, 127
1, 243851, Note_on_c, 9, 42, 0
1, 244080, Note_on_c, 9, 42, 127
1, 244091, Note_on_c, 9, 42, 0
1, 244319, Note_on_c, 9, 36, 0
1, 244320, Note_on_c, 9, 38, 127
1, 244320, Note_on_c, 9, 42, 127
1, 244331, Note_on_c, 9, 42, 0
1, 244559, Note_on_c, 9, 38, 0
1, 244560, Note_on_c, 9, 42, 127
1, 244571, Note_on_c, 9, 42, 0
1, 244800, Note_on_c, 9, 42, 127
1, 244800, Note_on_c, 9, 36, 127
1, 244811, Note_on_c, 9, 42, 0
1, 245040, Note_on_c, 9, 42, 127
1, 245051, Note_on_c, 9, 42, 0
1, 245279, Note_on_c, 9, 36, 0
1, 245280, Note_on_c, 9, 38, 127
1, 245280, Note_on_c, 9, 42, 127
1, 245291, Note_on_c, 9, 42, 0
1, 245519, Note_on_c, 9, 38, 0
1, 245520, Note_on_c, 9, 46, 127
1, 245520, Note_on_c, 9, 36, 127
1, 245531, Note_on_c, 9, 46, 0
1, 245759, Note_on_c, 9, 36, 0
1, 245760, Note_on_c, 9, 42, 127
1, 245760, Note_on_c, 9, 36, 127
1, 245771, Note_on_c, 9, 42, 0
1, 246000, Note_on_c, 9, 42, 127
1, 246011, Note_on_c, 9, 42, 0
1, 246239, Note_on_c, 9, 36, 0
1, 246240, Note_on_c, 9, 38, 127
1, 246240, Note_on_c, 9, 42, 127
1, 246251, Note_on_c, 9, 42, 0
1, 246479, Note_on_c, 9, 38, 0
1, 246480, Note_on_c, 9, 42, 127
1, 246491, Note_on_c, 9, 42, 0
1, 246720, Note_on_c, 9, 42, 127
1, 246720, Note_on_c, 9, 36, 127
1, 246731, Note_on_c, 9, 42, 0
1, 246960, Note_on_c, 9, 42, 127
1, 246971, Note_on_c, 9, 42, 0
1, 247199, Note_on_c, 9, 36, 0
1, 247200, Note_on_c, 9, 38, 127
1, 247200, Note_on_c, 9, 42, 127
1, 247211, Note_on_c, 9, 42, 0
1, 247439, Note_on_c, 9, 38, 0
1, 247440, Note_on_c, 9, 42, 127
1, 247440, Note_on_c, 9, 36, 127
1, 247451, Note_on_c, 9, 42, 0
1, 247679, Note_on_c, 9, 36, 0
1, 247680, Note_on_c, 9, 38, 127
1, 247799, Note_on_c, 9, 38, 0
1, 247800, Note_on_c, 9, 38, 127
1, 247919, Note_on_c, 9, 38, 0
1, 247920, Note_on_c, 9, 38, 127
1, 248159, Note_on_c, 9, 38, 0
1, 248160, Note_on_c, 9, 36, 127
1, 248399, Note_on_c, 9, 36, 0
1, 248400, Note_on_c, 9, 36, 127
1, 248639, Note_on_c, 9, 36, 0
1, 248640, Note_on_c, 9, 38, 127
1, 248880, Note_on_c, 9, 36, 127
1, 249119, Note_on_c, 9, 38, 0
1, 249119, Note_on_c, 9, 36, 0
1, 249120, Note_on_c, 9, 38, 127
1, 249360, Note_on_c, 9, 36, 127
1, 249479, Note_on_c, 9, 38, 0
1, 249480, Note_on_c, 9, 38, 127
1, 249599, Note_on_c, 9, 36, 0
1, 249599, Note_on_c, 9, 38, 0
1, 249600, Note_on_c, 9, 49, 126
1, 249600, Note_on_c, 9, 36, 127
1, 249611, Note_on_c, 9, 49, 0
1, 249840, Note_on_c, 9, 42, 127
1, 249851, Note_on_c, 9, 42, 0
1, 250079, Note_on_c, 9, 36, 0
1, 250080, Note_on_c, 9, 38, 127
1, 250080, Note_on_c, 9, 42, 127
1, 250091, Note_on_c, 9, 42, 0
1, 250319, Note_on_c, 9, 38, 0
1, 250320, Note_on_c, 9, 42, 127
1, 250331, Note_on_c, 9, 42, 0
1, 250560, Note_on_c, 9, 42, 127
1, 250560, Note_on_c, 9, 36, 127
1, 250571, Note_on_c, 9, 42, 0
1, 250800, Note_on_c, 9, 42, 127
1, 250811, Note_on_c, 9, 42, 0
1, 251039, Note_on_c, 9, 36, 0
1, 251040, Note_on_c, 9, 38, 127
1, 251040, Note_on_c, 9, 42, 127
1, 251051, Note_on_c, 9, 42, 0
1, 251279, Note_on_c, 9, 38, 0
1, 251280, Note_on_c, 9, 42, 127
1, 251291, Note_on_c, 9, 42, 0
1, 251520, Note_on_c, 9, 47, 127
1, 251520, Note_on_c, 9, 36, 127
1, 251639, Note_on_c, 9, 47, 0
1, 251640, Note_on_c, 9, 47, 127
1, 251759, Note_on_c, 9, 47, 0
1, 251760, Note_on_c, 9, 47, 127
1, 251999, Note_on_c, 9, 36, 0
1, 251999, Note_on_c, 9, 47, 0
1, 252000, Note_on_c, 9, 43, 127
1, 252239, Note_on_c, 9, 43, 0
1, 252240, Note_on_c, 9, 43, 127
1, 252479, Note_on_c, 9, 43, 0
1, 252480, Note_on_c, 9, 41, 127
1, 252599, Note_on_c, 9, 41, 0
1, 252600, Note_on_c, 9, 41, 127
1, 252719, Note_on_c, 9, 41, 0
1, 252720, Note_on_c, 9, 41, 127
1, 252899, Note_on_c, 9, 41, 0
1, 252930, Note_on_c, 9, 38, 119
1, 252959, Note_on_c, 9, 38, 0
1, 252960, Note_on_c, 9, 38, 127
1, 253439, Note_on_c, 9, 38, 0
1, 253440, Note_on_c, 9, 49, 126
1, 253440, Note_on_c, 9, 36, 127
1, 253451, Note_on_c, 9, 49, 0
1, 253680, Note_on_c, 9, 42, 127
1, 253691, Note_on_c, 9, 42, 0
1, 253919, Note_on_c, 9, 36, 0
1, 253920, Note_on_c, 9, 38, 127
1, 253920, Note_on_c, 9, 42, 127
1, 253931, Note_on_c, 9, 42, 0
1, 254159, Note_on_c, 9, 38, 0
1, 254160, Note_on_c, 9, 42, 127
1, 254171, Note_on_c, 9, 42, 0
1, 254400, Note_on_c, 9, 42, 127
1, 254400, Note_on_c, 9, 36, 127
1, 254411, Note_on_c, 9, 42, 0
1, 254640, Note_on_c, 9, 42, 127
1, 254651, Note_on_c, 9, 42, 0
1, 254879, Note_on_c, 9, 36, 0
1, 254880, Note_on_c, 9, 38, 127
1, 254880, Note_on_c, 9, 42, 127
1, 254891, Note_on_c, 9, 42, 0
1, 255119, Note_on_c, 9, 38, 0
1, 255120, Note_on_c, 9, 42, 127
1, 255131, Note_on_c, 9, 42, 0
1, 255360, Note_on_c, 9, 42, 127
1, 255360, Note_on_c, 9, 36, 127
1, 255371, Note_on_c, 9, 42, 0
1, 255600, Note_on_c, 9, 42, 127
1, 255611, Note_on_c, 9, 42, 0
1, 255839, Note_on_c, 9, 36, 0
1, 255840, Note_on_c, 9, 38, 127
1, 255840, Note_on_c, 9, 42, 127
1, 255851, Note_on_c, 9, 42, 0
1, 256079, Note_on_c, 9, 38, 0
1, 256080, Note_on_c, 9, 42, 127
1, 256091, Note_on_c, 9, 42, 0
1, 256320, Note_on_c, 9, 42, 127
1, 256320, Note_on_c, 9, 36, 127
1, 256331, Note_on_c, 9, 42, 0
1, 256560, Note_on_c, 9, 42, 127
1, 256571, Note_on_c, 9, 42, 0
1, 256799, Note_on_c, 9, 36, 0
1, 256800, Note_on_c, 9, 38, 127
1, 256800, Note_on_c, 9, 42, 127
1, 256811, Note_on_c, 9, 42, 0
1, 257039, Note_on_c, 9, 38, 0
1, 257040, Note_on_c, 9, 46, 127
1, 257051, Note_on_c, 9, 46, 0
1, 257280, Note_on_c, 9, 42, 127
1, 257280, Note_on_c, 9, 36, 127
1, 257291, Note_on_c, 9, 42, 0
1, 257520, Note_on_c, 9, 42, 127
1, 257531, Note_on_c, 9, 42, 0
1, 257759, Note_on_c, 9, 36, 0
1, 257760, Note_on_c, 9, 38, 127
1, 257760, Note_on_c, 9, 42, 127
1, 257771, Note_on_c, 9, 42, 0
1, 257999, Note_on_c, 9, 38, 0
1, 258000, Note_on_c, 9, 42, 127
1, 258011, Note_on_c, 9, 42, 0
1, 258240, Note_on_c, 9, 42, 127
1, 258240, Note_on_c, 9, 36, 127
1, 258251, Note_on_c, 9, 42, 0
1, 258480, Note_on_c, 9, 42, 127
1, 258491, Note_on_c, 9, 42, 0
1, 258719, Note_on_c, 9, 36, 0
1, 258720, Note_on_c, 9, 38, 127
1, 258720, Note_on_c, 9, 42, 127
1, 258731, Note_on_c, 9, 42, 0
1, 258959, Note_on_c, 9, 38, 0
1, 258960, Note_on_c, 9, 42, 127
1, 258971, Note_on_c, 9, 42, 0
1, 259200, Note_on_c, 9, 42, 127
1, 259200, Note_on_c, 9, 36, 127
1, 259211, Note_on_c, 9, 42, 0
1, 259440, Note_on_c, 9, 42, 127
1, 259451, Note_on_c, 9, 42, 0
1, 259679, Note_on_c, 9, 36, 0
1, 259680, Note_on_c, 9, 38, 127
1, 259680, Note_on_c, 9, 42, 127
1, 259691, Note_on_c, 9, 42, 0
1, 259919, Note_on_c, 9, 38, 0
1, 259920, Note_on_c, 9, 42, 127
1, 259931, Note_on_c, 9, 42, 0
1, 260160, Note_on_c, 9, 42, 127
1, 260160, Note_on_c, 9, 36, 127
1, 260171, Note_on_c, 9, 42, 0
1, 260400, Note_on_c, 9, 42, 127
1, 260411, Note_on_c, 9, 42, 0
1, 260639, Note_on_c, 9, 36, 0
1, 260640, Note_on_c, 9, 38, 127
1, 260640, Note_on_c, 9, 42, 127
1, 260651, Note_on_c, 9, 42, 0
1, 260879, Note_on_c, 9, 38, 0
1, 260880, Note_on_c, 9, 46, 127
1, 260891, Note_on_c, 9, 46, 0
1, 261120, Note_on_c, 9, 42, 127
1, 261120, Note_on_c, 9, 36, 127
1, 261131, Note_on_c, 9, 42, 0
1, 261360, Note_on_c, 9, 42, 127
1, 261371, Note_on_c, 9, 42, 0
1, 261599, Note_on_c, 9, 36, 0
1, 261600, Note_on_c, 9, 38, 127
1, 261600, Note_on_c, 9, 42, 127
1, 261611, Note_on_c, 9, 42, 0
1, 261839, Note_on_c, 9, 38, 0
1, 261840, Note_on_c, 9, 42, 127
1, 261851, Note_on_c, 9, 42, 0
1, 262080, Note_on_c, 9, 42, 127
1, 262080, Note_on_c, 9, 36, 127
1, 262091, Note_on_c, 9, 42, 0
1, 262320, Note_on_c, 9, 42, 127
1, 262331, Note_on_c, 9, 42, 0
1, 262559, Note_on_c, 9, 36, 0
1, 262560, Note_on_c, 9, 38, 127
1, 262560, Note_on_c, 9, 42, 127
1, 262571, Note_on_c, 9, 42, 0
1, 262799, Note_on_c, 9, 38, 0
1, 262800, Note_on_c, 9, 42, 127
1, 262811, Note_on_c, 9, 42, 0
1, 263040, Note_on_c, 9, 42, 127
1, 263040, Note_on_c, 9, 36, 127
1, 263051, Note_on_c, 9, 42, 0
1, 263280, Note_on_c, 9, 42, 127
1, 263291, Note_on_c, 9, 42, 0
1, 263519, Note_on_c, 9, 36, 0
1, 263520, Note_on_c, 9, 38, 127
1, 263520, Note_on_c, 9, 42, 127
1, 263531, Note_on_c, 9, 42, 0
1, 263759, Note_on_c, 9, 38, 0
1, 263760, Note_on_c, 9, 42, 127
1, 263771, Note_on_c, 9, 42, 0
1, 264000, Note_on_c, 9, 42, 127
1, 264000, Note_on_c, 9, 36, 127
1, 264011, Note_on_c, 9, 42, 0
1, 264240, Note_on_c, 9, 42, 127
1, 264251, Note_on_c, 9, 42, 0
1, 264479, Note_on_c, 9, 36, 0
1, 264480, Note_on_c, 9, 38, 127
1, 264480, Note_on_c, 9, 42, 127
1, 264491, Note_on_c, 9, 42, 0
1, 264719, Note_on_c, 9, 38, 0
1, 264720, Note_on_c, 9, 42, 127
1, 264731, Note_on_c, 9, 42, 0
1, 264960, Note_on_c, 9, 42, 127
1, 264960, Note_on_c, 9, 36, 127
1, 264971, Note_on_c, 9, 42, 0
1, 265200, Note_on_c, 9, 42, 127
1, 265211, Note_on_c, 9, 42, 0
1, 265439, Note_on_c, 9, 36, 0
1, 265440, Note_on_c, 9, 38, 127
1, 265440, Note_on_c, 9, 42, 127
1, 265451, Note_on_c, 9, 42, 0
1, 265679, Note_on_c, 9, 38, 0
1, 265680, Note_on_c, 9, 42, 127
1, 265691, Note_on_c, 9, 42, 0
1, 265920, Note_on_c, 9, 42, 127
1, 265920, Note_on_c, 9, 36, 127
1, 265931, Note_on_c, 9, 42, 0
1, 266160, Note_on_c, 9, 42, 127
1, 266171, Note_on_c, 9, 42, 0
1, 266399, Note_on_c, 9, 36, 0
1, 266400, Note_on_c, 9, 38, 127
1, 266400, Note_on_c, 9, 42, 127
1, 266411, Note_on_c, 9, 42, 0
1, 266639, Note_on_c, 9, 38, 0
1, 266640, Note_on_c, 9, 42, 127
1, 266651, Note_on_c, 9, 42, 0
1, 266880, Note_on_c, 9, 42, 127
1, 266880, Note_on_c, 9, 36, 127
1, 266891, Note_on_c, 9, 42, 0
1, 267120, Note_on_c, 9, 42, 127
1, 267131, Note_on_c, 9, 42, 0
1, 267359, Note_on_c, 9, 36, 0
1, 267360, Note_on_c, 9, 38, 127
1, 267360, Note_on_c, 9, 42, 127
1, 267371, Note_on_c, 9, 42, 0
1, 267599, Note_on_c, 9, 38, 0
1, 267600, Note_on_c, 9, 42, 127
1, 267611, Note_on_c, 9, 42, 0
1, 267840, Note_on_c, 9, 42, 127
1, 267840, Note_on_c, 9, 36, 127
1, 267851, Note_on_c, 9, 42, 0
1, 268079, Note_on_c, 9, 36, 0
1, 268080, Note_on_c, 9, 42, 127
1, 268080, Note_on_c, 9, 36, 127
1, 268091, Note_on_c, 9, 42, 0
1, 268319, Note_on_c, 9, 36, 0
1, 268320, Note_on_c, 9, 38, 127
1, 268320, Note_on_c, 9, 42, 127
1, 268331, Note_on_c, 9, 42, 0
1, 268559, Note_on_c, 9, 38, 0
1, 268560, Note_on_c, 9, 46, 127
1, 268571, Note_on_c, 9, 46, 0
1, 268800, Note_on_c, 9, 42, 127
1, 268800, Note_on_c, 9, 36, 127
1, 268811, Note_on_c, 9, 42, 0
1, 269040, Note_on_c, 9, 42, 127
1, 269051, Note_on_c, 9, 42, 0
1, 269279, Note_on_c, 9, 36, 0
1, 269280, Note_on_c, 9, 38, 127
1, 269280, Note_on_c, 9, 42, 127
1, 269291, Note_on_c, 9, 42, 0
1, 269519, Note_on_c, 9, 38, 0
1, 269520, Note_on_c, 9, 42, 127
1, 269531, Note_on_c, 9, 42, 0
1, 269760, Note_on_c, 9, 42, 127
1, 269760, Note_on_c, 9, 36, 127
1, 269771, Note_on_c, 9, 42, 0
1, 270000, Note_on_c, 9, 42, 127
1, 270011, Note_on_c, 9, 42, 0
1, 270239, Note_on_c, 9, 36, 0
1, 270240, Note_on_c, 9, 38, 127
1, 270240, Note_on_c, 9, 42, 127
1, 270251, Note_on_c, 9, 42, 0
1, 270479, Note_on_c, 9, 38, 0
1, 270480, Note_on_c, 9, 42, 127
1, 270491, Note_on_c, 9, 42, 0
1, 270720, Note_on_c, 9, 42, 127
1, 270720, Note_on_c, 9, 36, 127
1, 270731, Note_on_c, 9, 42, 0
1, 270960, Note_on_c, 9, 42, 127
1, 270971, Note_on_c, 9, 42, 0
1, 271199, Note_on_c, 9, 36, 0
1, 271200, Note_on_c, 9, 38, 127
1, 271200, Note_on_c, 9, 42, 127
1, 271211, Note_on_c, 9, 42, 0
1, 271439, Note_on_c, 9, 38, 0
1, 271440, Note_on_c, 9, 42, 127
1, 271451, Note_on_c, 9, 42, 0
1, 271680, Note_on_c, 9, 42, 127
1, 271680, Note_on_c, 9, 36, 127
1, 271691, Note_on_c, 9, 42, 0
1, 271920, Note_on_c, 9, 42, 127
1, 271931, Note_on_c, 9, 42, 0
1, 272159, Note_on_c, 9, 36, 0
1, 272160, Note_on_c, 9, 38, 127
1, 272160, Note_on_c, 9, 42, 127
1, 272171, Note_on_c, 9, 42, 0
1, 272399, Note_on_c, 9, 38, 0
1, 272400, Note_on_c, 9, 42, 127
1, 272411, Note_on_c, 9, 42, 0
1, 272640, Note_on_c, 9, 42, 127
1, 272640, Note_on_c, 9, 36, 127
1, 272651, Note_on_c, 9, 42, 0
1, 272880, Note_on_c, 9, 42, 127
1, 272891, Note_on_c, 9, 42, 0
1, 273119, Note_on_c, 9, 36, 0
1, 273120, Note_on_c, 9, 38, 127
1, 273120, Note_on_c, 9, 42, 127
1, 273131, Note_on_c, 9, 42, 0
1, 273359, Note_on_c, 9, 38, 0
1, 273360, Note_on_c, 9, 42, 127
1, 273371, Note_on_c, 9, 42, 0
1, 273600, Note_on_c, 9, 42, 127
1, 273600, Note_on_c, 9, 36, 127
1, 273611, Note_on_c, 9, 42, 0
1, 273840, Note_on_c, 9, 42, 127
1, 273851, Note_on_c, 9, 42, 0
1, 274079, Note_on_c, 9, 36, 0
1, 274080, Note_on_c, 9, 38, 127
1, 274080, Note_on_c, 9, 42, 127
1, 274091, Note_on_c, 9, 42, 0
1, 274319, Note_on_c, 9, 38, 0
1, 274320, Note_on_c, 9, 42, 127
1, 274331, Note_on_c, 9, 42, 0
1, 274560, Note_on_c, 9, 42, 127
1, 274560, Note_on_c, 9, 36, 127
1, 274571, Note_on_c, 9, 42, 0
1, 274800, Note_on_c, 9, 42, 127
1, 274811, Note_on_c, 9, 42, 0
1, 275039, Note_on_c, 9, 36, 0
1, 275040, Note_on_c, 9, 38, 127
1, 275040, Note_on_c, 9, 42, 127
1, 275051, Note_on_c, 9, 42, 0
1, 275279, Note_on_c, 9, 38, 0
1, 275280, Note_on_c, 9, 42, 127
1, 275291, Note_on_c, 9, 42, 0
1, 275520, Note_on_c, 9, 42, 127
1, 275520, Note_on_c, 9, 36, 127
1, 275531, Note_on_c, 9, 42, 0
1, 275760, Note_on_c, 9, 42, 127
1, 275771, Note_on_c, 9, 42, 0
1, 275999, Note_on_c, 9, 36, 0
1, 276000, Note_on_c, 9, 38, 127
1, 276000, Note_on_c, 9, 42, 127
1, 276011, Note_on_c, 9, 42, 0
1, 276239, Note_on_c, 9, 38, 0
1, 276240, Note_on_c, 9, 46, 127
1, 276251, Note_on_c, 9, 46, 0
1, 276480, Note_on_c, 9, 42, 127
1, 276480, Note_on_c, 9, 36, 127
1, 276491, Note_on_c, 9, 42, 0
1, 276720, Note_on_c, 9, 42, 127
1, 276731, Note_on_c, 9, 42, 0
1, 276959, Note_on_c, 9, 36, 0
1, 276960, Note_on_c, 9, 38, 127
1, 276960, Note_on_c, 9, 42, 127
1, 276971, Note_on_c, 9, 42, 0
1, 277199, Note_on_c, 9, 38, 0
1, 277200, Note_on_c, 9, 42, 127
1, 277211, Note_on_c, 9, 42, 0
1, 277440, Note_on_c, 9, 42, 127
1, 277440, Note_on_c, 9, 36, 127
1, 277451, Note_on_c, 9, 42, 0
1, 277680, Note_on_c, 9, 42, 127
1, 277691, Note_on_c, 9, 42, 0
1, 277919, Note_on_c, 9, 36, 0
1, 277920, Note_on_c, 9, 38, 127
1, 277920, Note_on_c, 9, 42, 127
1, 277931, Note_on_c, 9, 42, 0
1, 278159, Note_on_c, 9, 38, 0
1, 278160, Note_on_c, 9, 42, 127
1, 278171, Note_on_c, 9, 42, 0
1, 278400, Note_on_c, 9, 42, 127
1, 278400, Note_on_c, 9, 36, 127
1, 278411, Note_on_c, 9, 42, 0
1, 278640, Note_on_c, 9, 42, 127
1, 278651, Note_on_c, 9, 42, 0
1, 278879, Note_on_c, 9, 36, 0
1, 278880, Note_on_c, 9, 38, 127
1, 278880, Note_on_c, 9, 42, 127
1, 278891, Note_on_c, 9, 42, 0
1, 279119, Note_on_c, 9, 38, 0
1, 279120, Note_on_c, 9, 42, 127
1, 279131, Note_on_c, 9, 42, 0
1, 279360, Note_on_c, 9, 42, 127
1, 279360, Note_on_c, 9, 36, 127
1, 279371, Note_on_c, 9, 42, 0
1, 279600, Note_on_c, 9, 42, 127
1, 279611, Note_on_c, 9, 42, 0
1, 279839, Note_on_c, 9, 36, 0
1, 279840, Note_on_c, 9, 38, 127
1, 279840, Note_on_c, 9, 42, 127
1, 279851, Note_on_c, 9, 42, 0
1, 280079, Note_on_c, 9, 38, 0
1, 280080, Note_on_c, 9, 42, 127
1, 280091, Note_on_c, 9, 42, 0
1, 280320, Note_on_c, 9, 42, 127
1, 280320, Note_on_c, 9, 36, 127
1, 280331, Note_on_c, 9, 42, 0
1, 280560, Note_on_c, 9, 42, 127
1, 280571, Note_on_c, 9, 42, 0
1, 280799, Note_on_c, 9, 36, 0
1, 280800, Note_on_c, 9, 38, 127
1, 280800, Note_on_c, 9, 42, 127
1, 280811, Note_on_c, 9, 42, 0
1, 281039, Note_on_c, 9, 38, 0
1, 281040, Note_on_c, 9, 42, 127
1, 281051, Note_on_c, 9, 42, 0
1, 281280, Note_on_c, 9, 42, 127
1, 281280, Note_on_c, 9, 36, 127
1, 281291, Note_on_c, 9, 42, 0
1, 281520, Note_on_c, 9, 42, 127
1, 281531, Note_on_c, 9, 42, 0
1, 281759, Note_on_c, 9, 36, 0
1, 281760, Note_on_c, 9, 38, 127
1, 281760, Note_on_c, 9, 42, 127
1, 281771, Note_on_c, 9, 42, 0
1, 281999, Note_on_c, 9, 38, 0
1, 282000, Note_on_c, 9, 42, 127
1, 282011, Note_on_c, 9, 42, 0
1, 282240, Note_on_c, 9, 42, 127
1, 282240, Note_on_c, 9, 36, 127
1, 282251, Note_on_c, 9, 42, 0
1, 282480, Note_on_c, 9, 38, 127
1, 282719, Note_on_c, 9, 36, 0
1, 282719, Note_on_c, 9, 38, 0
1, 282720, Note_on_c, 9, 38, 127
1, 282839, Note_on_c, 9, 38, 0
1, 282840, Note_on_c, 9, 38, 127
1, 282960, Note_on_c, 9, 36, 127
1, 283199, Note_on_c, 9, 38, 0
1, 283199, Note_on_c, 9, 36, 0
1, 283200, Note_on_c, 9, 38, 127
1, 283559, Note_on_c, 9, 38, 0
1, 283560, Note_on_c, 9, 38, 127
1, 283679, Note_on_c, 9, 38, 0
1, 283680, Note_on_c, 9, 38, 127
1, 283920, Note_on_c, 9, 36, 127
1, 284159, Note_on_c, 9, 38, 0
1, 284159, Note_on_c, 9, 36, 0
1, 284160, Note_on_c, 9, 36, 127
1, 284400, Note_on_c, 9, 42, 127
1, 284411, Note_on_c, 9, 42, 0
1, 284639, Note_on_c, 9, 36, 0
1, 284640, Note_on_c, 9, 38, 127
1, 284640, Note_on_c, 9, 42, 127
1, 284651, Note_on_c, 9, 42, 0
1, 284879, Note_on_c, 9, 38, 0
1, 284880, Note_on_c, 9, 42, 127
1, 284891, Note_on_c, 9, 42, 0
1, 285120, Note_on_c, 9, 42, 127
1, 285120, Note_on_c, 9, 36, 127
1, 285131, Note_on_c, 9, 42, 0
1, 285360, Note_on_c, 9, 42, 127
1, 285371, Note_on_c, 9, 42, 0
1, 285599, Note_on_c, 9, 36, 0
1, 285600, Note_on_c, 9, 38, 127
1, 285600, Note_on_c, 9, 42, 127
1, 285611, Note_on_c, 9, 42, 0
1, 285839, Note_on_c, 9, 38, 0
1, 285840, Note_on_c, 9, 42, 127
1, 285851, Note_on_c, 9, 42, 0
1, 286080, Note_on_c, 9, 42, 127
1, 286080, Note_on_c, 9, 36, 127
1, 286091, Note_on_c, 9, 42, 0
1, 286320, Note_on_c, 9, 42, 127
1, 286331, Note_on_c, 9, 42, 0
1, 286559, Note_on_c, 9, 36, 0
1, 286560, Note_on_c, 9, 38, 127
1, 286560, Note_on_c, 9, 42, 127
1, 286571, Note_on_c, 9, 42, 0
1, 286799, Note_on_c, 9, 38, 0
1, 286800, Note_on_c, 9, 42, 127
1, 286811, Note_on_c, 9, 42, 0
1, 287040, Note_on_c, 9, 42, 127
1, 287040, Note_on_c, 9, 36, 127
1, 287051, Note_on_c, 9, 42, 0
1, 287280, Note_on_c, 9, 42, 127
1, 287291, Note_on_c, 9, 42, 0
1, 287519, Note_on_c, 9, 36, 0
1, 287520, Note_on_c, 9, 38, 127
1, 287520, Note_on_c, 9, 42, 127
1, 287531, Note_on_c, 9, 42, 0
1, 287759, Note_on_c, 9, 38, 0
1, 287760, Note_on_c, 9, 42, 127
1, 287771, Note_on_c, 9, 42, 0
1, 288000, Note_on_c, 9, 42, 127
1, 288000, Note_on_c, 9, 36, 127
1, 288011, Note_on_c, 9, 42, 0
1, 288240, Note_on_c, 9, 42, 127
1, 288251, Note_on_c, 9, 42, 0
1, 288479, Note_on_c, 9, 36, 0
1, 288480, Note_on_c, 9, 38, 127
1, 288480, Note_on_c, 9, 42, 127
1, 288491, Note_on_c, 9, 42, 0
1, 288719, Note_on_c, 9, 38, 0
1, 288720, Note_on_c, 9, 42, 127
1, 288731, Note_on_c, 9, 42, 0
1, 288960, Note_on_c, 9, 42, 127
1, 288960, Note_on_c, 9, 36, 127
1, 288971, Note_on_c, 9, 42, 0
1, 289200, Note_on_c, 9, 42, 127
1, 289211, Note_on_c, 9, 42, 0
1, 289439, Note_on_c, 9, 36, 0
1, 289440, Note_on_c, 9, 38, 127
1, 289440, Note_on_c, 9, 42, 127
1, 289451, Note_on_c, 9, 42, 0
1, 289679, Note_on_c, 9, 38, 0
1, 289680, Note_on_c, 9, 42, 127
1, 289691, Note_on_c, 9, 42, 0
1, 289920, Note_on_c, 9, 42, 127
1, 289920, Note_on_c, 9, 36, 127
1, 289931, Note_on_c, 9, 42, 0
1, 290160, Note_on_c, 9, 42, 127
1, 290171, Note_on_c, 9, 42, 0
1, 290399, Note_on_c, 9, 36, 0
1, 290400, Note_on_c, 9, 38, 127
1, 290400, Note_on_c, 9, 42, 127
1, 290411, Note_on_c, 9, 42, 0
1, 290639, Note_on_c, 9, 38, 0
1, 290640, Note_on_c, 9, 42, 127
1, 290651, Note_on_c, 9, 42, 0
1, 290880, Note_on_c, 9, 42, 127
1, 290880, Note_on_c, 9, 36, 127
1, 290891, Note_on_c, 9, 42, 0
1, 291120, Note_on_c, 9, 42, 127
1, 291131, Note_on_c, 9, 42, 0
1, 291359, Note_on_c, 9, 36, 0
1, 291360, Note_on_c, 9, 38, 127
1, 291360, Note_on_c, 9, 42, 127
1, 291371, Note_on_c, 9, 42, 0
1, 291599, Note_on_c, 9, 38, 0
1, 291600, Note_on_c, 9, 46, 127
1, 291600, Note_on_c, 9, 36, 127
1, 291611, Note_on_c, 9, 46, 0
1, 291839, Note_on_c, 9, 36, 0
1, 291840, Note_on_c, 9, 42, 127
1, 291840, Note_on_c, 9, 36, 127
1, 291851, Note_on_c, 9, 42, 0
1, 292080, Note_on_c, 9, 42, 127
1, 292091, Note_on_c, 9, 42, 0
1, 292319, Note_on_c, 9, 36, 0
1, 292320, Note_on_c, 9, 38, 127
1, 292320, Note_on_c, 9, 42, 127
1, 292331, Note_on_c, 9, 42, 0
1, 292559, Note_on_c, 9, 38, 0
1, 292560, Note_on_c, 9, 42, 127
1, 292571, Note_on_c, 9, 42, 0
1, 292800, Note_on_c, 9, 42, 127
1, 292800, Note_on_c, 9, 36, 127
1, 292811, Note_on_c, 9, 42, 0
1, 293040, Note_on_c, 9, 42, 127
1, 293051, Note_on_c, 9, 42, 0
1, 293279, Note_on_c, 9, 36, 0
1, 293280, Note_on_c, 9, 38, 127
1, 293280, Note_on_c, 9, 42, 127
1, 293291, Note_on_c, 9, 42, 0
1, 293519, Note_on_c, 9, 38, 0
1, 293520, Note_on_c, 9, 42, 127
1, 293531, Note_on_c, 9, 42, 0
1, 293760, Note_on_c, 9, 42, 127
1, 293760, Note_on_c, 9, 36, 127
1, 293771, Note_on_c, 9, 42, 0
1, 294000, Note_on_c, 9, 42, 127
1, 294011, Note_on_c, 9, 42, 0
1, 294239, Note_on_c, 9, 36, 0
1, 294240, Note_on_c, 9, 38, 127
1, 294240, Note_on_c, 9, 42, 127
1, 294251, Note_on_c, 9, 42, 0
1, 294479, Note_on_c, 9, 38, 0
1, 294480, Note_on_c, 9, 42, 127
1, 294491, Note_on_c, 9, 42, 0
1, 294720, Note_on_c, 9, 42, 127
1, 294720, Note_on_c, 9, 36, 127
1, 294731, Note_on_c, 9, 42, 0
1, 294960, Note_on_c, 9, 42, 127
1, 294971, Note_on_c, 9, 42, 0
1, 295199, Note_on_c, 9, 36, 0
1, 295200, Note_on_c, 9, 38, 127
1, 295200, Note_on_c, 9, 42, 127
1, 295211, Note_on_c, 9, 42, 0
1, 295439, Note_on_c, 9, 38, 0
1, 295440, Note_on_c, 9, 46, 127
1, 295440, Note_on_c, 9, 36, 127
1, 295451, Note_on_c, 9, 46, 0
1, 295679, Note_on_c, 9, 36, 0
1, 295680, Note_on_c, 9, 42, 127
1, 295680, Note_on_c, 9, 36, 127
1, 295691, Note_on_c, 9, 42, 0
1, 295920, Note_on_c, 9, 42, 127
1, 295931, Note_on_c, 9, 42, 0
1, 296159, Note_on_c, 9, 36, 0
1, 296160, Note_on_c, 9, 38, 127
1, 296160, Note_on_c, 9, 42, 127
1, 296171, Note_on_c, 9, 42, 0
1, 296399, Note_on_c, 9, 38, 0
1, 296400, Note_on_c, 9, 42, 127
1, 296411, Note_on_c, 9, 42, 0
1, 296640, Note_on_c, 9, 42, 127
1, 296640, Note_on_c, 9, 36, 127
1, 296651, Note_on_c, 9, 42, 0
1, 296880, Note_on_c, 9, 42, 127
1, 296891, Note_on_c, 9, 42, 0
1, 297119, Note_on_c, 9, 36, 0
1, 297120, Note_on_c, 9, 38, 127
1, 297120, Note_on_c, 9, 42, 127
1, 297131, Note_on_c, 9, 42, 0
1, 297359, Note_on_c, 9, 38, 0
1, 297360, Note_on_c, 9, 42, 127
1, 297371, Note_on_c, 9, 42, 0
1, 297600, Note_on_c, 9, 42, 127
1, 297600, Note_on_c, 9, 36, 127
1, 297611, Note_on_c, 9, 42, 0
1, 297840, Note_on_c, 9, 42, 127
1, 297851, Note_on_c, 9, 42, 0
1, 298079, Note_on_c, 9, 36, 0
1, 298080, Note_on_c, 9, 38, 127
1, 298080, Note_on_c, 9, 42, 127
1, 298091, Note_on_c, 9, 42, 0
1, 298319, Note_on_c, 9, 38, 0
1, 298320, Note_on_c, 9, 42, 127
1, 298331, Note_on_c, 9, 42, 0
1, 298560, Note_on_c, 9, 42, 127
1, 298560, Note_on_c, 9, 36, 127
1, 298571, Note_on_c, 9, 42, 0
1, 298800, Note_on_c, 9, 42, 127
1, 298811, Note_on_c, 9, 42, 0
1, 299039, Note_on_c, 9, 36, 0
1, 299040, Note_on_c, 9, 38, 127
1, 299040, Note_on_c, 9, 42, 127
1, 299051, Note_on_c, 9, 42, 0
1, 299279, Note_on_c, 9, 38, 0
1, 299280, Note_on_c, 9, 42, 127
1, 299280, Note_on_c, 9, 36, 127
1, 299291, Note_on_c, 9, 42, 0
1, 299519, Note_on_c, 9, 36, 0
1, 299520, Note_on_c, 9, 49, 126
1, 299520, Note_on_c, 9, 36, 127
1, 299531, Note_on_c, 9, 49, 0
1, 299760, Note_on_c, 9, 42, 127
1, 299771, Note_on_c, 9, 42, 0
1, 299999, Note_on_c, 9, 36, 0
1, 300000, Note_on_c, 9, 38, 127
1, 300000, Note_on_c, 9, 42, 127
1, 300011, Note_on_c, 9, 42, 0
1, 300239, Note_on_c, 9, 38, 0
1, 300240, Note_on_c, 9, 42, 127
1, 300251, Note_on_c, 9, 42, 0
1, 300480, Note_on_c, 9, 42, 127
1, 300480, Note_on_c, 9, 36, 127
1, 300491, Note_on_c, 9, 42, 0
1, 300720, Note_on_c, 9, 42, 127
1, 300731, Note_on_c, 9, 42, 0
1, 300959, Note_on_c, 9, 36, 0
1, 300960, Note_on_c, 9, 38, 127
1, 300960, Note_on_c, 9, 42, 127
1, 300971, Note_on_c, 9, 42, 0
1, 301199, Note_on_c, 9, 38, 0
1, 301200, Note_on_c, 9, 42, 127
1, 301211, Note_on_c, 9, 42, 0
1, 301440, Note_on_c, 9, 47, 127
1, 301440, Note_on_c, 9, 36, 127
1, 301559, Note_on_c, 9, 47, 0
1, 301560, Note_on_c, 9, 47, 127
1, 301679, Note_on_c, 9, 36, 0
1, 301680, Note_on_c, 9, 43, 127
1, 301919, Note_on_c, 9, 47, 0
1, 301919, Note_on_c, 9, 43, 0
1, 301920, Note_on_c, 9, 47, 127
1, 302160, Note_on_c, 9, 43, 127
1, 302399, Note_on_c, 9, 47, 0
1, 302399, Note_on_c, 9, 43, 0
1, 302400, Note_on_c, 9, 41, 127
1, 302639, Note_on_c, 9, 41, 0
1, 302640, Note_on_c, 9, 41, 127
1, 302819, Note_on_c, 9, 41, 0
1, 302850, Note_on_c, 9, 38, 112
1, 302879, Note_on_c, 9, 38, 0
1, 302880, Note_on_c, 9, 38, 127
1, 302880, Note_on_c, 9, 46, 127
1, 302904, Note_on_c, 9, 46, 0
1, 303359, Note_on_c, 9, 38, 0
1, 303360, Note_on_c, 9, 49, 127
1, 303360, Note_on_c, 9, 36, 127
1, 303371, Note_on_c, 9, 49, 0
1, 303600, Note_on_c, 9, 42, 127
1, 303611, Note_on_c, 9, 42, 0
1, 303839, Note_on_c, 9, 36, 0
1, 303840, Note_on_c, 9, 38, 127
1, 303840, Note_on_c, 9, 42, 127
1, 303851, Note_on_c, 9, 42, 0
1, 304079, Note_on_c, 9, 38, 0
1, 304080, Note_on_c, 9, 42, 127
1, 304091, Note_on_c, 9, 42, 0
1, 304320, Note_on_c, 9, 42, 127
1, 304320, Note_on_c, 9, 36, 127
1, 304331, Note_on_c, 9, 42, 0
1, 304560, Note_on_c, 9, 42, 127
1, 304571, Note_on_c, 9, 42, 0
1, 304799, Note_on_c, 9, 36, 0
1, 304800, Note_on_c, 9, 38, 127
1, 304800, Note_on_c, 9, 42, 127
1, 304811, Note_on_c, 9, 42, 0
1, 305039, Note_on_c, 9, 38, 0
1, 305040, Note_on_c, 9, 42, 127
1, 305051, Note_on_c, 9, 42, 0
1, 305280, Note_on_c, 9, 42, 127
1, 305280, Note_on_c, 9, 36, 127
1, 305291, Note_on_c, 9, 42, 0
1, 305520, Note_on_c, 9, 42, 127
1, 305531, Note_on_c, 9, 42, 0
1, 305759, Note_on_c, 9, 36, 0
1, 305760, Note_on_c, 9, 38, 127
1, 305760, Note_on_c, 9, 42, 127
1, 305771, Note_on_c, 9, 42, 0
1, 305999, Note_on_c, 9, 38, 0
1, 306000, Note_on_c, 9, 42, 127
1, 306011, Note_on_c, 9, 42, 0
1, 306240, Note_on_c, 9, 42, 127
1, 306240, Note_on_c, 9, 36, 127
1, 306251, Note_on_c, 9, 42, 0
1, 306480, Note_on_c, 9, 42, 127
1, 306491, Note_on_c, 9, 42, 0
1, 306719, Note_on_c, 9, 36, 0
1, 306720, Note_on_c, 9, 38, 127
1, 306720, Note_on_c, 9, 42, 127
1, 306731, Note_on_c, 9, 42, 0
1, 306959, Note_on_c, 9, 38, 0
1, 306960, Note_on_c, 9, 42, 127
1, 306960, Note_on_c, 9, 36, 127
1, 306971, Note_on_c, 9, 42, 0
1, 307199, Note_on_c, 9, 36, 0
1, 307200, Note_on_c, 9, 42, 127
1, 307200, Note_on_c, 9, 36, 127
1, 307211, Note_on_c, 9, 42, 0
1, 307440, Note_on_c, 9, 42, 127
1, 307451, Note_on_c, 9, 42, 0
1, 307679, Note_on_c, 9, 36, 0
1, 307680, Note_on_c, 9, 38, 127
1, 307680, Note_on_c, 9, 42, 127
1, 307691, Note_on_c, 9, 42, 0
1, 307919, Note_on_c, 9, 38, 0
1, 307920, Note_on_c, 9, 42, 127
1, 307931, Note_on_c, 9, 42, 0
1, 308160, Note_on_c, 9, 42, 127
1, 308160, Note_on_c, 9, 36, 127
1, 308171, Note_on_c, 9, 42, 0
1, 308400, Note_on_c, 9, 42, 127
1, 308411, Note_on_c, 9, 42, 0
1, 308639, Note_on_c, 9, 36, 0
1, 308640, Note_on_c, 9, 38, 127
1, 308640, Note_on_c, 9, 42, 127
1, 308651, Note_on_c, 9, 42, 0
1, 308879, Note_on_c, 9, 38, 0
1, 308880, Note_on_c, 9, 42, 127
1, 308891, Note_on_c, 9, 42, 0
1, 309120, Note_on_c, 9, 42, 127
1, 309120, Note_on_c, 9, 36, 127
1, 309131, Note_on_c, 9, 42, 0
1, 309360, Note_on_c, 9, 42, 127
1, 309371, Note_on_c, 9, 42, 0
1, 309599, Note_on_c, 9, 36, 0
1, 309600, Note_on_c, 9, 38, 127
1, 309600, Note_on_c, 9, 42, 127
1, 309611, Note_on_c, 9, 42, 0
1, 309839, Note_on_c, 9, 38, 0
1, 309840, Note_on_c, 9, 42, 127
1, 309851, Note_on_c, 9, 42, 0
1, 310080, Note_on_c, 9, 42, 127
1, 310080, Note_on_c, 9, 36, 127
1, 310091, Note_on_c, 9, 42, 0
1, 310320, Note_on_c, 9, 46, 127
1, 310331, Note_on_c, 9, 46, 0
1, 310559, Note_on_c, 9, 36, 0
1, 310560, Note_on_c, 9, 38, 127
1, 310560, Note_on_c, 9, 42, 127
1, 310571, Note_on_c, 9, 42, 0
1, 310799, Note_on_c, 9, 38, 0
1, 310800, Note_on_c, 9, 46, 127
1, 310811, Note_on_c, 9, 46, 0
1, 311040, Note_on_c, 9, 42, 127
1, 311040, Note_on_c, 9, 36, 127
1, 311051, Note_on_c, 9, 42, 0
1, 311280, Note_on_c, 9, 42, 127
1, 311291, Note_on_c, 9, 42, 0
1, 311519, Note_on_c, 9, 36, 0
1, 311520, Note_on_c, 9, 38, 127
1, 311520, Note_on_c, 9, 42, 127
1, 311531, Note_on_c, 9, 42, 0
1, 311759, Note_on_c, 9, 38, 0
1, 311760, Note_on_c, 9, 42, 127
1, 311771, Note_on_c, 9, 42, 0
1, 312000, Note_on_c, 9, 42, 127
1, 312000, Note_on_c, 9, 36, 127
1, 312011, Note_on_c, 9, 42, 0
1, 312240, Note_on_c, 9, 42, 127
1, 312251, Note_on_c, 9, 42, 0
1, 312479, Note_on_c, 9, 36, 0
1, 312480, Note_on_c, 9, 38, 127
1, 312480, Note_on_c, 9, 42, 127
1, 312491, Note_on_c, 9, 42, 0
1, 312719, Note_on_c, 9, 38, 0
1, 312720, Note_on_c, 9, 42, 127
1, 312731, Note_on_c, 9, 42, 0
1, 312960, Note_on_c, 9, 42, 127
1, 312960, Note_on_c, 9, 36, 127
1, 312971, Note_on_c, 9, 42, 0
1, 313200, Note_on_c, 9, 42, 127
1, 313211, Note_on_c, 9, 42, 0
1, 313439, Note_on_c, 9, 36, 0
1, 313440, Note_on_c, 9, 38, 127
1, 313440, Note_on_c, 9, 42, 127
1, 313451, Note_on_c, 9, 42, 0
1, 313679, Note_on_c, 9, 38, 0
1, 313680, Note_on_c, 9, 42, 127
1, 313691, Note_on_c, 9, 42, 0
1, 313920, Note_on_c, 9, 42, 127
1, 313920, Note_on_c, 9, 36, 127
1, 313931, Note_on_c, 9, 42, 0
1, 314160, Note_on_c, 9, 42, 127
1, 314171, Note_on_c, 9, 42, 0
1, 314399, Note_on_c, 9, 36, 0
1, 314400, Note_on_c, 9, 38, 127
1, 314400, Note_on_c, 9, 42, 127
1, 314411, Note_on_c, 9, 42, 0
1, 314639, Note_on_c, 9, 38, 0
1, 314640, Note_on_c, 9, 42, 127
1, 314640, Note_on_c, 9, 36, 127
1, 314651, Note_on_c, 9, 42, 0
1, 314879, Note_on_c, 9, 36, 0
1, 314880, Note_on_c, 9, 42, 127
1, 314880, Note_on_c, 9, 36, 127
1, 314891, Note_on_c, 9, 42, 0
1, 315120, Note_on_c, 9, 42, 127
1, 315131, Note_on_c, 9, 42, 0
1, 315359, Note_on_c, 9, 36, 0
1, 315360, Note_on_c, 9, 38, 127
1, 315360, Note_on_c, 9, 42, 127
1, 315371, Note_on_c, 9, 42, 0
1, 315599, Note_on_c, 9, 38, 0
1, 315600, Note_on_c, 9, 42, 127
1, 315611, Note_on_c, 9, 42, 0
1, 315840, Note_on_c, 9, 42, 127
1, 315840, Note_on_c, 9, 36, 127
1, 315851, Note_on_c, 9, 42, 0
1, 316080, Note_on_c, 9, 42, 127
1, 316091, Note_on_c, 9, 42, 0
1, 316319, Note_on_c, 9, 36, 0
1, 316320, Note_on_c, 9, 38, 127
1, 316320, Note_on_c, 9, 42, 127
1, 316331, Note_on_c, 9, 42, 0
1, 316559, Note_on_c, 9, 38, 0
1, 316560, Note_on_c, 9, 42, 127
1, 316571, Note_on_c, 9, 42, 0
1, 316800, Note_on_c, 9, 42, 127
1, 316800, Note_on_c, 9, 36, 127
1, 316811, Note_on_c, 9, 42, 0
1, 317040, Note_on_c, 9, 42, 127
1, 317051, Note_on_c, 9, 42, 0
1, 317279, Note_on_c, 9, 36, 0
1, 317280, Note_on_c, 9, 38, 127
1, 317280, Note_on_c, 9, 42, 127
1, 317291, Note_on_c, 9, 42, 0
1, 317519, Note_on_c, 9, 38, 0
1, 317520, Note_on_c, 9, 46, 127
1, 317531, Note_on_c, 9, 46, 0
1, 317760, Note_on_c, 9, 42, 127
1, 317760, Note_on_c, 9, 36, 127
1, 317771, Note_on_c, 9, 42, 0
1, 318000, Note_on_c, 9, 42, 127
1, 318005, Note_on_c, 9, 42, 0
1, 318120, Note_on_c, 9, 38, 127
1, 318239, Note_on_c, 9, 36, 0
1, 318239, Note_on_c, 9, 38, 0
1, 318240, Note_on_c, 9, 38, 127
1, 318240, Note_on_c, 9, 46, 127
1, 318264, Note_on_c, 9, 46, 0
1, 318480, Note_on_c, 9, 36, 127
1, 318719, Note_on_c, 9, 38, 0
1, 318719, Note_on_c, 9, 36, 0
1, 318720, Note_on_c, 9, 42, 127
1, 318720, Note_on_c, 9, 36, 127
1, 318731, Note_on_c, 9, 42, 0
1, 318960, Note_on_c, 9, 42, 127
1, 318971, Note_on_c, 9, 42, 0
1, 319199, Note_on_c, 9, 36, 0
1, 319200, Note_on_c, 9, 38, 127
1, 319200, Note_on_c, 9, 42, 127
1, 319211, Note_on_c, 9, 42, 0
1, 319439, Note_on_c, 9, 38, 0
1, 319440, Note_on_c, 9, 42, 127
1, 319451, Note_on_c, 9, 42, 0
1, 319680, Note_on_c, 9, 42, 127
1, 319680, Note_on_c, 9, 36, 127
1, 319691, Note_on_c, 9, 42, 0
1, 319920, Note_on_c, 9, 42, 127
1, 319931, Note_on_c, 9, 42, 0
1, 320159, Note_on_c, 9, 36, 0
1, 320160, Note_on_c, 9, 38, 127
1, 320160, Note_on_c, 9, 42, 127
1, 320171, Note_on_c, 9, 42, 0
1, 320399, Note_on_c, 9, 38, 0
1, 320400, Note_on_c, 9, 42, 127
1, 320411, Note_on_c, 9, 42, 0
1, 320640, Note_on_c, 9, 42, 127
1, 320640, Note_on_c, 9, 36, 127
1, 320651, Note_on_c, 9, 42, 0
1, 320880, Note_on_c, 9, 42, 127
1, 320891, Note_on_c, 9, 42, 0
1, 321119, Note_on_c, 9, 36, 0
1, 321120, Note_on_c, 9, 38, 127
1, 321120, Note_on_c, 9, 42, 127
1, 321131, Note_on_c, 9, 42, 0
1, 321359, Note_on_c, 9, 38, 0
1, 321360, Note_on_c, 9, 42, 127
1, 321371, Note_on_c, 9, 42, 0
1, 321600, Note_on_c, 9, 42, 127
1, 321600, Note_on_c, 9, 36, 127
1, 321611, Note_on_c, 9, 42, 0
1, 321840, Note_on_c, 9, 42, 127
1, 321851, Note_on_c, 9, 42, 0
1, 322079, Note_on_c, 9, 36, 0
1, 322080, Note_on_c, 9, 38, 127
1, 322080, Note_on_c, 9, 42, 127
1, 322091, Note_on_c, 9, 42, 0
1, 322319, Note_on_c, 9, 38, 0
1, 322320, Note_on_c, 9, 46, 127
1, 322331, Note_on_c, 9, 46, 0
1, 322560, Note_on_c, 9, 42, 127
1, 322560, Note_on_c, 9, 36, 127
1, 322571, Note_on_c, 9, 42, 0
1, 322800, Note_on_c, 9, 42, 127
1, 322811, Note_on_c, 9, 42, 0
1, 323039, Note_on_c, 9, 36, 0
1, 323040, Note_on_c, 9, 38, 127
1, 323040, Note_on_c, 9, 42, 127
1, 323051, Note_on_c, 9, 42, 0
1, 323279, Note_on_c, 9, 38, 0
1, 323280, Note_on_c, 9, 42, 127
1, 323291, Note_on_c, 9, 42, 0
1, 323520, Note_on_c, 9, 42, 127
1, 323520, Note_on_c, 9, 36, 127
1, 323531, Note_on_c, 9, 42, 0
1, 323760, Note_on_c, 9, 42, 127
1, 323771, Note_on_c, 9, 42, 0
1, 323999, Note_on_c, 9, 36, 0
1, 324000, Note_on_c, 9, 38, 127
1, 324000, Note_on_c, 9, 42, 127
1, 324011, Note_on_c, 9, 42, 0
1, 324239, Note_on_c, 9, 38, 0
1, 324240, Note_on_c, 9, 42, 127
1, 324251, Note_on_c, 9, 42, 0
1, 324480, Note_on_c, 9, 42, 127
1, 324480, Note_on_c, 9, 36, 127
1, 324491, Note_on_c, 9, 42, 0
1, 324720, Note_on_c, 9, 42, 127
1, 324731, Note_on_c, 9, 42, 0
1, 324959, Note_on_c, 9, 36, 0
1, 324960, Note_on_c, 9, 38, 127
1, 324960, Note_on_c, 9, 42, 127
1, 324971, Note_on_c, 9, 42, 0
1, 325199, Note_on_c, 9, 38, 0
1, 325200, Note_on_c, 9, 42, 127
1, 325211, Note_on_c, 9, 42, 0
1, 325440, Note_on_c, 9, 42, 127
1, 325440, Note_on_c, 9, 36, 127
1, 325451, Note_on_c, 9, 42, 0
1, 325680, Note_on_c, 9, 42, 127
1, 325691, Note_on_c, 9, 42, 0
1, 325919, Note_on_c, 9, 36, 0
1, 325920, Note_on_c, 9, 38, 127
1, 325920, Note_on_c, 9, 42, 127
1, 325931, Note_on_c, 9, 42, 0
1, 326159, Note_on_c, 9, 38, 0
1, 326160, Note_on_c, 9, 46, 127
1, 326171, Note_on_c, 9, 46, 0
1, 326400, Note_on_c, 9, 42, 127
1, 326400, Note_on_c, 9, 36, 127
1, 326411, Note_on_c, 9, 42, 0
1, 326640, Note_on_c, 9, 42, 127
1, 326651, Note_on_c, 9, 42, 0
1, 326879, Note_on_c, 9, 36, 0
1, 326880, Note_on_c, 9, 38, 127
1, 326880, Note_on_c, 9, 42, 127
1, 326891, Note_on_c, 9, 42, 0
1, 327119, Note_on_c, 9, 38, 0
1, 327120, Note_on_c, 9, 42, 127
1, 327131, Note_on_c, 9, 42, 0
1, 327360, Note_on_c, 9, 42, 127
1, 327360, Note_on_c, 9, 36, 127
1, 327371, Note_on_c, 9, 42, 0
1, 327600, Note_on_c, 9, 42, 127
1, 327611, Note_on_c, 9, 42, 0
1, 327839, Note_on_c, 9, 36, 0
1, 327840, Note_on_c, 9, 38, 127
1, 327840, Note_on_c, 9, 42, 127
1, 327851, Note_on_c, 9, 42, 0
1, 328079, Note_on_c, 9, 38, 0
1, 328080, Note_on_c, 9, 42, 127
1, 328091, Note_on_c, 9, 42, 0
1, 328320, Note_on_c, 9, 42, 127
1, 328320, Note_on_c, 9, 36, 127
1, 328331, Note_on_c, 9, 42, 0
1, 328560, Note_on_c, 9, 42, 127
1, 328571, Note_on_c, 9, 42, 0
1, 328799, Note_on_c, 9, 36, 0
1, 328800, Note_on_c, 9, 38, 127
1, 328800, Note_on_c, 9, 42, 127
1, 328811, Note_on_c, 9, 42, 0
1, 329039, Note_on_c, 9, 38, 0
1, 329040, Note_on_c, 9, 42, 127
1, 329051, Note_on_c, 9, 42, 0
1, 329280, Note_on_c, 9, 42, 127
1, 329280, Note_on_c, 9, 36, 127
1, 329291, Note_on_c, 9, 42, 0
1, 329520, Note_on_c, 9, 42, 127
1, 329531, Note_on_c, 9, 42, 0
1, 329759, Note_on_c, 9, 36, 0
1, 329760, Note_on_c, 9, 38, 127
1, 329760, Note_on_c, 9, 42, 127
1, 329771, Note_on_c, 9, 42, 0
1, 329999, Note_on_c, 9, 38, 0
1, 330000, Note_on_c, 9, 42, 127
1, 330011, Note_on_c, 9, 42, 0
1, 330240, Note_on_c, 9, 42, 127
1, 330240, Note_on_c, 9, 36, 127
1, 330251, Note_on_c, 9, 42, 0
1, 330480, Note_on_c, 9, 42, 127
1, 330491, Note_on_c, 9, 42, 0
1, 330719, Note_on_c, 9, 36, 0
1, 330720, Note_on_c, 9, 38, 127
1, 330720, Note_on_c, 9, 42, 127
1, 330731, Note_on_c, 9, 42, 0
1, 330959, Note_on_c, 9, 38, 0
1, 330960, Note_on_c, 9, 42, 127
1, 330971, Note_on_c, 9, 42, 0
1, 331200, Note_on_c, 9, 42, 127
1, 331200, Note_on_c, 9, 36, 127
1, 331211, Note_on_c, 9, 42, 0
1, 331440, Note_on_c, 9, 42, 127
1, 331451, Note_on_c, 9, 42, 0
1, 331679, Note_on_c, 9, 36, 0
1, 331680, Note_on_c, 9, 38, 127
1, 331680, Note_on_c, 9, 42, 127
1, 331691, Note_on_c, 9, 42, 0
1, 331919, Note_on_c, 9, 38, 0
1, 331920, Note_on_c, 9, 42, 127
1, 331931, Note_on_c, 9, 42, 0
1, 332160, Note_on_c, 9, 42, 127
1, 332160, Note_on_c, 9, 36, 127
1, 332171, Note_on_c, 9, 42, 0
1, 332400, Note_on_c, 9, 42, 127
1, 332411, Note_on_c, 9, 42, 0
1, 332639, Note_on_c, 9, 36, 0
1, 332640, Note_on_c, 9, 38, 127
1, 332640, Note_on_c, 9, 42, 127
1, 332651, Note_on_c, 9, 42, 0
1, 332879, Note_on_c, 9, 38, 0
1, 332880, Note_on_c, 9, 42, 127
1, 332891, Note_on_c, 9, 42, 0
1, 333120, Note_on_c, 9, 42, 127
1, 333120, Note_on_c, 9, 36, 127
1, 333131, Note_on_c, 9, 42, 0
1, 333360, Note_on_c, 9, 38, 127
1, 333360, Note_on_c, 9, 42, 127
1, 333371, Note_on_c, 9, 42, 0
1, 333599, Note_on_c, 9, 36, 0
1, 333599, Note_on_c, 9, 38, 0
1, 333600, Note_on_c, 9, 38, 127
1, 333600, Note_on_c, 9, 42, 127
1, 333611, Note_on_c, 9, 42, 0
1, 333839, Note_on_c, 9, 38, 0
1, 333840, Note_on_c, 9, 46, 127
1, 333851, Note_on_c, 9, 46, 0
1, 334080, Note_on_c, 9, 56, 127
1, 334080, Note_on_c, 9, 42, 127
1, 334080, Note_on_c, 9, 36, 127
1, 334091, Note_on_c, 9, 42, 0
1, 334319, Note_on_c, 9, 56, 0
1, 334320, Note_on_c, 9, 42, 127
1, 334331, Note_on_c, 9, 42, 0
1, 334559, Note_on_c, 9, 36, 0
1, 334560, Note_on_c, 9, 38, 127
1, 334560, Note_on_c, 9, 42, 127
1, 334571, Note_on_c, 9, 42, 0
1, 334799, Note_on_c, 9, 38, 0
1, 334800, Note_on_c, 9, 42, 127
1, 334811, Note_on_c, 9, 42, 0
1, 335040, Note_on_c, 9, 56, 127
1, 335040, Note_on_c, 9, 42, 127
1, 335040, Note_on_c, 9, 36, 127
1, 335051, Note_on_c, 9, 42, 0
1, 335279, Note_on_c, 9, 56, 0
1, 335280, Note_on_c, 9, 42, 127
1, 335291, Note_on_c, 9, 42, 0
1, 335519, Note_on_c, 9, 36, 0
1, 335520, Note_on_c, 9, 38, 127
1, 335520, Note_on_c, 9, 42, 127
1, 335531, Note_on_c, 9, 42, 0
1, 335759, Note_on_c, 9, 38, 0
1, 335760, Note_on_c, 9, 42, 127
1, 335771, Note_on_c, 9, 42, 0
1, 336000, Note_on_c, 9, 56, 127
1, 336000, Note_on_c, 9, 42, 127
1, 336000, Note_on_c, 9, 36, 127
1, 336011, Note_on_c, 9, 42, 0
1, 336239, Note_on_c, 9, 56, 0
1, 336240, Note_on_c, 9, 42, 127
1, 336251, Note_on_c, 9, 42, 0
1, 336479, Note_on_c, 9, 36, 0
1, 336480, Note_on_c, 9, 38, 127
1, 336480, Note_on_c, 9, 42, 127
1, 336491, Note_on_c, 9, 42, 0
1, 336719, Note_on_c, 9, 38, 0
1, 336720, Note_on_c, 9, 42, 127
1, 336731, Note_on_c, 9, 42, 0
1, 336960, Note_on_c, 9, 56, 127
1, 336960, Note_on_c, 9, 42, 127
1, 336960, Note_on_c, 9, 36, 127
1, 336971, Note_on_c, 9, 42, 0
1, 337199, Note_on_c, 9, 56, 0
1, 337200, Note_on_c, 9, 42, 127
1, 337211, Note_on_c, 9, 42, 0
1, 337439, Note_on_c, 9, 36, 0
1, 337440, Note_on_c, 9, 38, 127
1, 337440, Note_on_c, 9, 42, 127
1, 337451, Note_on_c, 9, 42, 0
1, 337679, Note_on_c, 9, 38, 0
1, 337680, Note_on_c, 9, 46, 127
1, 337691, Note_on_c, 9, 46, 0
1, 337920, Note_on_c, 9, 56, 127
1, 337920, Note_on_c, 9, 42, 127
1, 337920, Note_on_c, 9, 36, 127
1, 337931, Note_on_c, 9, 42, 0
1, 338159, Note_on_c, 9, 56, 0
1, 338160, Note_on_c, 9, 42, 127
1, 338171, Note_on_c, 9, 42, 0
1, 338399, Note_on_c, 9, 36, 0
1, 338400, Note_on_c, 9, 38, 127
1, 338400, Note_on_c, 9, 42, 127
1, 338411, Note_on_c, 9, 42, 0
1, 338639, Note_on_c, 9, 38, 0
1, 338640, Note_on_c, 9, 42, 127
1, 338651, Note_on_c, 9, 42, 0
1, 338880, Note_on_c, 9, 56, 127
1, 338880, Note_on_c, 9, 42, 127
1, 338880, Note_on_c, 9, 36, 127
1, 338891, Note_on_c, 9, 42, 0
1, 339119, Note_on_c, 9, 56, 0
1, 339120, Note_on_c, 9, 42, 127
1, 339131, Note_on_c, 9, 42, 0
1, 339359, Note_on_c, 9, 36, 0
1, 339360, Note_on_c, 9, 38, 127
1, 339360, Note_on_c, 9, 42, 127
1, 339371, Note_on_c, 9, 42, 0
1, 339599, Note_on_c, 9, 38, 0
1, 339600, Note_on_c, 9, 42, 127
1, 339611, Note_on_c, 9, 42, 0
1, 339840, Note_on_c, 9, 56, 127
1, 339840, Note_on_c, 9, 42, 127
1, 339840, Note_on_c, 9, 36, 127
1, 339851, Note_on_c, 9, 42, 0
1, 340079, Note_on_c, 9, 56, 0
1, 340080, Note_on_c, 9, 42, 127
1, 340091, Note_on_c, 9, 42, 0
1, 340319, Note_on_c, 9, 36, 0
1, 340320, Note_on_c, 9, 38, 127
1, 340320, Note_on_c, 9, 42, 127
1, 340331, Note_on_c, 9, 42, 0
1, 340559, Note_on_c, 9, 38, 0
1, 340560, Note_on_c, 9, 42, 127
1, 340571, Note_on_c, 9, 42, 0
1, 340800, Note_on_c, 9, 56, 127
1, 340800, Note_on_c, 9, 42, 127
1, 340800, Note_on_c, 9, 36, 127
1, 340811, Note_on_c, 9, 42, 0
1, 341039, Note_on_c, 9, 56, 0
1, 341040, Note_on_c, 9, 42, 127
1, 341051, Note_on_c, 9, 42, 0
1, 341279, Note_on_c, 9, 36, 0
1, 341280, Note_on_c, 9, 38, 127
1, 341280, Note_on_c, 9, 42, 127
1, 341291, Note_on_c, 9, 42, 0
1, 341519, Note_on_c, 9, 38, 0
1, 341520, Note_on_c, 9, 46, 127
1, 341520, Note_on_c, 9, 36, 127
1, 341531, Note_on_c, 9, 46, 0
1, 341759, Note_on_c, 9, 36, 0
1, 341760, Note_on_c, 9, 56, 127
1, 341760, Note_on_c, 9, 42, 127
1, 341760, Note_on_c, 9, 36, 127
1, 341771, Note_on_c, 9, 42, 0
1, 341999, Note_on_c, 9, 56, 0
1, 342000, Note_on_c, 9, 42, 127
1, 342011, Note_on_c, 9, 42, 0
1, 342239, Note_on_c, 9, 36, 0
1, 342240, Note_on_c, 9, 38, 127
1, 342240, Note_on_c, 9, 42, 127
1, 342251, Note_on_c, 9, 42, 0
1, 342479, Note_on_c, 9, 38, 0
1, 342480, Note_on_c, 9, 42, 127
1, 342491, Note_on_c, 9, 42, 0
1, 342720, Note_on_c, 9, 56, 127
1, 342720, Note_on_c, 9, 42, 127
1, 342720, Note_on_c, 9, 36, 127
1, 342731, Note_on_c, 9, 42, 0
1, 342959, Note_on_c, 9, 56, 0
1, 342960, Note_on_c, 9, 42, 127
1, 342971, Note_on_c, 9, 42, 0
1, 343199, Note_on_c, 9, 36, 0
1, 343200, Note_on_c, 9, 38, 127
1, 343200, Note_on_c, 9, 42, 127
1, 343211, Note_on_c, 9, 42, 0
1, 343439, Note_on_c, 9, 38, 0
1, 343440, Note_on_c, 9, 42, 127
1, 343451, Note_on_c, 9, 42, 0
1, 343680, Note_on_c, 9, 56, 127
1, 343680, Note_on_c, 9, 42, 127
1, 343680, Note_on_c, 9, 36, 127
1, 343691, Note_on_c, 9, 42, 0
1, 343919, Note_on_c, 9, 56, 0
1, 343920, Note_on_c, 9, 42, 127
1, 343931, Note_on_c, 9, 42, 0
1, 344159, Note_on_c, 9, 36, 0
1, 344160, Note_on_c, 9, 38, 127
1, 344160, Note_on_c, 9, 42, 127
1, 344171, Note_on_c, 9, 42, 0
1, 344399, Note_on_c, 9, 38, 0
1, 344400, Note_on_c, 9, 42, 127
1, 344411, Note_on_c, 9, 42, 0
1, 344640, Note_on_c, 9, 56, 127
1, 344640, Note_on_c, 9, 42, 127
1, 344640, Note_on_c, 9, 36, 127
1, 344651, Note_on_c, 9, 42, 0
1, 344879, Note_on_c, 9, 56, 0
1, 344880, Note_on_c, 9, 42, 127
1, 344891, Note_on_c, 9, 42, 0
1, 345119, Note_on_c, 9, 36, 0
1, 345120, Note_on_c, 9, 38, 127
1, 345120, Note_on_c, 9, 42, 127
1, 345131, Note_on_c, 9, 42, 0
1, 345359, Note_on_c, 9, 38, 0
1, 345360, Note_on_c, 9, 42, 127
1, 345360, Note_on_c, 9, 36, 127
1, 345371, Note_on_c, 9, 42, 0
1, 345599, Note_on_c, 9, 36, 0
1, 345600, Note_on_c, 9, 56, 127
1, 345600, Note_on_c, 9, 42, 127
1, 345600, Note_on_c, 9, 36, 127
1, 345611, Note_on_c, 9, 42, 0
1, 345839, Note_on_c, 9, 56, 0
1, 345840, Note_on_c, 9, 42, 127
1, 345851, Note_on_c, 9, 42, 0
1, 346079, Note_on_c, 9, 36, 0
1, 346080, Note_on_c, 9, 38, 127
1, 346080, Note_on_c, 9, 42, 127
1, 346091, Note_on_c, 9, 42, 0
1, 346319, Note_on_c, 9, 38, 0
1, 346320, Note_on_c, 9, 42, 127
1, 346331, Note_on_c, 9, 42, 0
1, 346560, Note_on_c, 9, 56, 127
1, 346560, Note_on_c, 9, 42, 127
1, 346560, Note_on_c, 9, 36, 127
1, 346571, Note_on_c, 9, 42, 0
1, 346799, Note_on_c, 9, 56, 0
1, 346800, Note_on_c, 9, 42, 127
1, 346811, Note_on_c, 9, 42, 0
1, 347039, Note_on_c, 9, 36, 0
1, 347040, Note_on_c, 9, 38, 127
1, 347040, Note_on_c, 9, 42, 127
1, 347051, Note_on_c, 9, 42, 0
1, 347279, Note_on_c, 9, 38, 0
1, 347280, Note_on_c, 9, 42, 127
1, 347280, Note_on_c, 9, 36, 127
1, 347291, Note_on_c, 9, 42, 0
1, 347519, Note_on_c, 9, 36, 0
1, 347520, Note_on_c, 9, 56, 127
1, 347520, Note_on_c, 9, 42, 127
1, 347520, Note_on_c, 9, 36, 127
1, 347531, Note_on_c, 9, 42, 0
1, 347759, Note_on_c, 9, 56, 0
1, 347760, Note_on_c, 9, 38, 127
1, 347999, Note_on_c, 9, 36, 0
1, 347999, Note_on_c, 9, 38, 0
1, 348000, Note_on_c, 9, 38, 127
1, 348119, Note_on_c, 9, 38, 0
1, 348120, Note_on_c, 9, 38, 127
1, 348240, Note_on_c, 9, 36, 127
1, 348479, Note_on_c, 9, 38, 0
1, 348479, Note_on_c, 9, 36, 0
1, 348480, Note_on_c, 9, 38, 127
1, 348480, Note_on_c, 9, 56, 127
1, 348839, Note_on_c, 9, 38, 0
1, 348839, Note_on_c, 9, 56, 0
1, 348840, Note_on_c, 9, 38, 127
1, 348959, Note_on_c, 9, 38, 0
1, 348960, Note_on_c, 9, 38, 127
1, 349200, Note_on_c, 9, 36, 127
1, 349439, Note_on_c, 9, 38, 0
1, 349439, Note_on_c, 9, 36, 0
1, 349440, Note_on_c, 9, 56, 127
1, 349440, Note_on_c, 9, 49, 127
1, 349440, Note_on_c, 9, 36, 127
1, 349451, Note_on_c, 9, 49, 0
1, 349679, Note_on_c, 9, 56, 0
1, 349680, Note_on_c, 9, 42, 127
1, 349691, Note_on_c, 9, 42, 0
1, 349919, Note_on_c, 9, 36, 0
1, 349920, Note_on_c, 9, 38, 127
1, 349920, Note_on_c, 9, 42, 127
1, 349931, Note_on_c, 9, 42, 0
1, 350159, Note_on_c, 9, 38, 0
1, 350160, Note_on_c, 9, 42, 127
1, 350171, Note_on_c, 9, 42, 0
1, 350400, Note_on_c, 9, 56, 127
1, 350400, Note_on_c, 9, 42, 127
1, 350400, Note_on_c, 9, 36, 127
1, 350411, Note_on_c, 9, 42, 0
1, 350639, Note_on_c, 9, 56, 0
1, 350640, Note_on_c, 9, 42, 127
1, 350651, Note_on_c, 9, 42, 0
1, 350879, Note_on_c, 9, 36, 0
1, 350880, Note_on_c, 9, 38, 127
1, 350880, Note_on_c, 9, 42, 127
1, 350891, Note_on_c, 9, 42, 0
1, 351119, Note_on_c, 9, 38, 0
1, 351120, Note_on_c, 9, 42, 127
1, 351131, Note_on_c, 9, 42, 0
1, 351360, Note_on_c, 9, 56, 127
1, 351360, Note_on_c, 9, 42, 127
1, 351360, Note_on_c, 9, 36, 127
1, 351371, Note_on_c, 9, 42, 0
1, 351599, Note_on_c, 9, 56, 0
1, 351600, Note_on_c, 9, 42, 127
1, 351611, Note_on_c, 9, 42, 0
1, 351839, Note_on_c, 9, 36, 0
1, 351840, Note_on_c, 9, 38, 127
1, 351840, Note_on_c, 9, 42, 127
1, 351851, Note_on_c, 9, 42, 0
1, 352079, Note_on_c, 9, 38, 0
1, 352080, Note_on_c, 9, 42, 127
1, 352091, Note_on_c, 9, 42, 0
1, 352320, Note_on_c, 9, 56, 127
1, 352320, Note_on_c, 9, 42, 127
1, 352320, Note_on_c, 9, 36, 127
1, 352331, Note_on_c, 9, 42, 0
1, 352559, Note_on_c, 9, 56, 0
1, 352560, Note_on_c, 9, 42, 127
1, 352571, Note_on_c, 9, 42, 0
1, 352799, Note_on_c, 9, 36, 0
1, 352800, Note_on_c, 9, 38, 127
1, 352800, Note_on_c, 9, 42, 127
1, 352811, Note_on_c, 9, 42, 0
1, 353039, Note_on_c, 9, 38, 0
1, 353040, Note_on_c, 9, 46, 127
1, 353040, Note_on_c, 9, 36, 127
1, 353051, Note_on_c, 9, 46, 0
1, 353279, Note_on_c, 9, 36, 0
1, 353280, Note_on_c, 9, 56, 127
1, 353280, Note_on_c, 9, 42, 127
1, 353280, Note_on_c, 9, 36, 127
1, 353291, Note_on_c, 9, 42, 0
1, 353519, Note_on_c, 9, 56, 0
1, 353520, Note_on_c, 9, 42, 127
1, 353531, Note_on_c, 9, 42, 0
1, 353759, Note_on_c, 9, 36, 0
1, 353760, Note_on_c, 9, 38, 127
1, 353760, Note_on_c, 9, 42, 127
1, 353771, Note_on_c, 9, 42, 0
1, 353999, Note_on_c, 9, 38, 0
1, 354000, Note_on_c, 9, 42, 127
1, 354011, Note_on_c, 9, 42, 0
1, 354240, Note_on_c, 9, 56, 127
1, 354240, Note_on_c, 9, 42, 127
1, 354240, Note_on_c, 9, 36, 127
1, 354251, Note_on_c, 9, 42, 0
1, 354479, Note_on_c, 9, 56, 0
1, 354480, Note_on_c, 9, 42, 127
1, 354491, Note_on_c, 9, 42, 0
1, 354719, Note_on_c, 9, 36, 0
1, 354720, Note_on_c, 9, 38, 127
1, 354720, Note_on_c, 9, 42, 127
1, 354731, Note_on_c, 9, 42, 0
1, 354959, Note_on_c, 9, 38, 0
1, 354960, Note_on_c, 9, 42, 127
1, 354971, Note_on_c, 9, 42, 0
1, 355200, Note_on_c, 9, 56, 127
1, 355200, Note_on_c, 9, 42, 127
1, 355200, Note_on_c, 9, 36, 127
1, 355211, Note_on_c, 9, 42, 0
1, 355439, Note_on_c, 9, 56, 0
1, 355440, Note_on_c, 9, 42, 127
1, 355451, Note_on_c, 9, 42, 0
1, 355679, Note_on_c, 9, 36, 0
1, 355680, Note_on_c, 9, 38, 127
1, 355680, Note_on_c, 9, 42, 127
1, 355691, Note_on_c, 9, 42, 0
1, 355919, Note_on_c, 9, 38, 0
1, 355920, Note_on_c, 9, 42, 127
1, 355931, Note_on_c, 9, 42, 0
1, 356160, Note_on_c, 9, 56, 127
1, 356160, Note_on_c, 9, 42, 127
1, 356160, Note_on_c, 9, 36, 127
1, 356171, Note_on_c, 9, 42, 0
1, 356399, Note_on_c, 9, 56, 0
1, 356400, Note_on_c, 9, 42, 127
1, 356411, Note_on_c, 9, 42, 0
1, 356639, Note_on_c, 9, 36, 0
1, 356640, Note_on_c, 9, 38, 127
1, 356640, Note_on_c, 9, 42, 127
1, 356651, Note_on_c, 9, 42, 0
1, 356879, Note_on_c, 9, 38, 0
1, 356880, Note_on_c, 9, 46, 127
1, 356880, Note_on_c, 9, 36, 127
1, 356891, Note_on_c, 9, 46, 0
1, 357119, Note_on_c, 9, 36, 0
1, 357120, Note_on_c, 9, 56, 127
1, 357120, Note_on_c, 9, 42, 127
1, 357120, Note_on_c, 9, 36, 127
1, 357131, Note_on_c, 9, 42, 0
1, 357359, Note_on_c, 9, 56, 0
1, 357360, Note_on_c, 9, 42, 127
1, 357371, Note_on_c, 9, 42, 0
1, 357599, Note_on_c, 9, 36, 0
1, 357600, Note_on_c, 9, 38, 127
1, 357600, Note_on_c, 9, 42, 127
1, 357611, Note_on_c, 9, 42, 0
1, 357839, Note_on_c, 9, 38, 0
1, 357840, Note_on_c, 9, 42, 127
1, 357851, Note_on_c, 9, 42, 0
1, 358080, Note_on_c, 9, 56, 127
1, 358080, Note_on_c, 9, 42, 127
1, 358080, Note_on_c, 9, 36, 127
1, 358091, Note_on_c, 9, 42, 0
1, 358319, Note_on_c, 9, 56, 0
1, 358320, Note_on_c, 9, 42, 127
1, 358331, Note_on_c, 9, 42, 0
1, 358559, Note_on_c, 9, 36, 0
1, 358560, Note_on_c, 9, 38, 127
1, 358560, Note_on_c, 9, 42, 127
1, 358571, Note_on_c, 9, 42, 0
1, 358799, Note_on_c, 9, 38, 0
1, 358800, Note_on_c, 9, 42, 127
1, 358811, Note_on_c, 9, 42, 0
1, 359040, Note_on_c, 9, 56, 127
1, 359040, Note_on_c, 9, 42, 127
1, 359040, Note_on_c, 9, 36, 127
1, 359051, Note_on_c, 9, 42, 0
1, 359279, Note_on_c, 9, 56, 0
1, 359280, Note_on_c, 9, 42, 127
1, 359291, Note_on_c, 9, 42, 0
1, 359519, Note_on_c, 9, 36, 0
1, 359520, Note_on_c, 9, 38, 127
1, 359520, Note_on_c, 9, 42, 127
1, 359531, Note_on_c, 9, 42, 0
1, 359759, Note_on_c, 9, 38, 0
1, 359760, Note_on_c, 9, 42, 127
1, 359771, Note_on_c, 9, 42, 0
1, 360000, Note_on_c, 9, 56, 127
1, 360000, Note_on_c, 9, 42, 127
1, 360000, Note_on_c, 9, 36, 127
1, 360011, Note_on_c, 9, 42, 0
1, 360239, Note_on_c, 9, 56, 0
1, 360240, Note_on_c, 9, 42, 127
1, 360251, Note_on_c, 9, 42, 0
1, 360479, Note_on_c, 9, 36, 0
1, 360480, Note_on_c, 9, 38, 127
1, 360480, Note_on_c, 9, 42, 127
1, 360491, Note_on_c, 9, 42, 0
1, 360719, Note_on_c, 9, 38, 0
1, 360720, Note_on_c, 9, 42, 127
1, 360720, Note_on_c, 9, 36, 127
1, 360731, Note_on_c, 9, 42, 0
1, 360959, Note_on_c, 9, 36, 0
1, 360960, Note_on_c, 9, 56, 127
1, 360960, Note_on_c, 9, 42, 127
1, 360960, Note_on_c, 9, 36, 127
1, 360971, Note_on_c, 9, 42, 0
1, 361199, Note_on_c, 9, 56, 0
1, 361200, Note_on_c, 9, 42, 127
1, 361211, Note_on_c, 9, 42, 0
1, 361439, Note_on_c, 9, 36, 0
1, 361440, Note_on_c, 9, 38, 127
1, 361440, Note_on_c, 9, 42, 127
1, 361451, Note_on_c, 9, 42, 0
1, 361679, Note_on_c, 9, 38, 0
1, 361680, Note_on_c, 9, 42, 127
1, 361691, Note_on_c, 9, 42, 0
1, 361920, Note_on_c, 9, 56, 127
1, 361920, Note_on_c, 9, 42, 127
1, 361920, Note_on_c, 9, 36, 127
1, 361931, Note_on_c, 9, 42, 0
1, 362159, Note_on_c, 9, 56, 0
1, 362160, Note_on_c, 9, 42, 127
1, 362171, Note_on_c, 9, 42, 0
1, 362399, Note_on_c, 9, 36, 0
1, 362400, Note_on_c, 9, 38, 127
1, 362400, Note_on_c, 9, 42, 127
1, 362411, Note_on_c, 9, 42, 0
1, 362639, Note_on_c, 9, 38, 0
1, 362640, Note_on_c, 9, 42, 127
1, 362651, Note_on_c, 9, 42, 0
1, 362880, Note_on_c, 9, 56, 127
1, 362880, Note_on_c, 9, 42, 127
1, 362880, Note_on_c, 9, 36, 127
1, 362898, Note_on_c, 9, 42, 0
1, 363239, Note_on_c, 9, 56, 0
1, 363240, Note_on_c, 9, 38, 127
1, 363359, Note_on_c, 9, 36, 0
1, 363359, Note_on_c, 9, 38, 0
1, 363360, Note_on_c, 9, 38, 127
1, 363600, Note_on_c, 9, 36, 127
1, 363839, Note_on_c, 9, 38, 0
1, 363839, Note_on_c, 9, 36, 0
1, 363840, Note_on_c, 9, 38, 127
1, 363840, Note_on_c, 9, 56, 127
1, 364199, Note_on_c, 9, 38, 0
1, 364199, Note_on_c, 9, 56, 0
1, 364200, Note_on_c, 9, 38, 127
1, 364319, Note_on_c, 9, 38, 0
1, 364320, Note_on_c, 9, 38, 127
1, 364560, Note_on_c, 9, 36, 127
1, 364799, Note_on_c, 9, 38, 0
1, 364799, Note_on_c, 9, 36, 0
1, 364800, Note_on_c, 9, 56, 127
1, 364800, Note_on_c, 9, 49, 127
1, 364800, Note_on_c, 9, 36, 127
1, 364811, Note_on_c, 9, 49, 0
1, 365039, Note_on_c, 9, 56, 0
1, 365040, Note_on_c, 9, 42, 127
1, 365051, Note_on_c, 9, 42, 0
1, 365279, Note_on_c, 9, 36, 0
1, 365280, Note_on_c, 9, 38, 127
1, 365280, Note_on_c, 9, 42, 127
1, 365291, Note_on_c, 9, 42, 0
1, 365519, Note_on_c, 9, 38, 0
1, 365520, Note_on_c, 9, 42, 127
1, 365531, Note_on_c, 9, 42, 0
1, 365760, Note_on_c, 9, 56, 127
1, 365760, Note_on_c, 9, 42, 127
1, 365760, Note_on_c, 9, 36, 127
1, 365771, Note_on_c, 9, 42, 0
1, 365999, Note_on_c, 9, 56, 0
1, 366000, Note_on_c, 9, 42, 127
1, 366011, Note_on_c, 9, 42, 0
1, 366239, Note_on_c, 9, 36, 0
1, 366240, Note_on_c, 9, 38, 127
1, 366240, Note_on_c, 9, 42, 127
1, 366251, Note_on_c, 9, 42, 0
1, 366479, Note_on_c, 9, 38, 0
1, 366480, Note_on_c, 9, 42, 127
1, 366491, Note_on_c, 9, 42, 0
1, 366720, Note_on_c, 9, 56, 127
1, 366720, Note_on_c, 9, 42, 127
1, 366720, Note_on_c, 9, 36, 127
1, 366731, Note_on_c, 9, 42, 0
1, 366959, Note_on_c, 9, 56, 0
1, 366960, Note_on_c, 9, 42, 127
1, 366971, Note_on_c, 9, 42, 0
1, 367199, Note_on_c, 9, 36, 0
1, 367200, Note_on_c, 9, 38, 127
1, 367200, Note_on_c, 9, 42, 127
1, 367211, Note_on_c, 9, 42, 0
1, 367439, Note_on_c, 9, 38, 0
1, 367440, Note_on_c, 9, 42, 127
1, 367451, Note_on_c, 9, 42, 0
1, 367680, Note_on_c, 9, 56, 127
1, 367680, Note_on_c, 9, 42, 127
1, 367680, Note_on_c, 9, 36, 127
1, 367691, Note_on_c, 9, 42, 0
1, 367919, Note_on_c, 9, 56, 0
1, 367920, Note_on_c, 9, 42, 127
1, 367931, Note_on_c, 9, 42, 0
1, 368159, Note_on_c, 9, 36, 0
1, 368160, Note_on_c, 9, 38, 127
1, 368160, Note_on_c, 9, 42, 127
1, 368171, Note_on_c, 9, 42, 0
1, 368399, Note_on_c, 9, 38, 0
1, 368400, Note_on_c, 9, 46, 127
1, 368400, Note_on_c, 9, 36, 127
1, 368411, Note_on_c, 9, 46, 0
1, 368639, Note_on_c, 9, 36, 0
1, 368640, Note_on_c, 9, 56, 127
1, 368640, Note_on_c, 9, 42, 127
1, 368640, Note_on_c, 9, 36, 127
1, 368651, Note_on_c, 9, 42, 0
1, 368879, Note_on_c, 9, 56, 0
1, 368880, Note_on_c, 9, 42, 127
1, 368891, Note_on_c, 9, 42, 0
1, 369119, Note_on_c, 9, 36, 0
1, 369120, Note_on_c, 9, 38, 127
1, 369120, Note_on_c, 9, 42, 127
1, 369131, Note_on_c, 9, 42, 0
1, 369359, Note_on_c, 9, 38, 0
1, 369360, Note_on_c, 9, 42, 127
1, 369371, Note_on_c, 9, 42, 0
1, 369600, Note_on_c, 9, 56, 127
1, 369600, Note_on_c, 9, 42, 127
1, 369600, Note_on_c, 9, 36, 127
1, 369611, Note_on_c, 9, 42, 0
1, 369839, Note_on_c, 9, 56, 0
1, 369840, Note_on_c, 9, 42, 127
1, 369851, Note_on_c, 9, 42, 0
1, 370079, Note_on_c, 9, 36, 0
1, 370080, Note_on_c, 9, 38, 127
1, 370080, Note_on_c, 9, 42, 127
1, 370091, Note_on_c, 9, 42, 0
1, 370319, Note_on_c, 9, 38, 0
1, 370320, Note_on_c, 9, 42, 127
1, 370331, Note_on_c, 9, 42, 0
1, 370560, Note_on_c, 9, 56, 127
1, 370560, Note_on_c, 9, 42, 127
1, 370560, Note_on_c, 9, 36, 127
1, 370571, Note_on_c, 9, 42, 0
1, 370799, Note_on_c, 9, 56, 0
1, 370800, Note_on_c, 9, 42, 127
1, 370811, Note_on_c, 9, 42, 0
1, 371039, Note_on_c, 9, 36, 0
1, 371040, Note_on_c, 9, 38, 127
1, 371040, Note_on_c, 9, 42, 127
1, 371051, Note_on_c, 9, 42, 0
1, 371279, Note_on_c, 9, 38, 0
1, 371280, Note_on_c, 9, 42, 127
1, 371291, Note_on_c, 9, 42, 0
1, 371520, Note_on_c, 9, 56, 127
1, 371520, Note_on_c, 9, 42, 127
1, 371520, Note_on_c, 9, 36, 127
1, 371531, Note_on_c, 9, 42, 0
1, 371759, Note_on_c, 9, 56, 0
1, 371760, Note_on_c, 9, 42, 127
1, 371771, Note_on_c, 9, 42, 0
1, 371999, Note_on_c, 9, 36, 0
1, 372000, Note_on_c, 9, 38, 127
1, 372000, Note_on_c, 9, 42, 127
1, 372011, Note_on_c, 9, 42, 0
1, 372239, Note_on_c, 9, 38, 0
1, 372240, Note_on_c, 9, 46, 127
1, 372240, Note_on_c, 9, 36, 127
1, 372251, Note_on_c, 9, 46, 0
1, 372479, Note_on_c, 9, 36, 0
1, 372480, Note_on_c, 9, 56, 127
1, 372480, Note_on_c, 9, 42, 127
1, 372480, Note_on_c, 9, 36, 127
1, 372491, Note_on_c, 9, 42, 0
1, 372719, Note_on_c, 9, 56, 0
1, 372720, Note_on_c, 9, 42, 127
1, 372731, Note_on_c, 9, 42, 0
1, 372959, Note_on_c, 9, 36, 0
1, 372960, Note_on_c, 9, 38, 127
1, 372960, Note_on_c, 9, 42, 127
1, 372971, Note_on_c, 9, 42, 0
1, 373199, Note_on_c, 9, 38, 0
1, 373200, Note_on_c, 9, 42, 127
1, 373211, Note_on_c, 9, 42, 0
1, 373440, Note_on_c, 9, 56, 127
1, 373440, Note_on_c, 9, 42, 127
1, 373440, Note_on_c, 9, 36, 127
1, 373451, Note_on_c, 9, 42, 0
1, 373679, Note_on_c, 9, 56, 0
1, 373680, Note_on_c, 9, 42, 127
1, 373691, Note_on_c, 9, 42, 0
1, 373919, Note_on_c, 9, 36, 0
1, 373920, Note_on_c, 9, 38, 127
1, 373920, Note_on_c, 9, 42, 127
1, 373931, Note_on_c, 9, 42, 0
1, 374159, Note_on_c, 9, 38, 0
1, 374160, Note_on_c, 9, 42, 127
1, 374171, Note_on_c, 9, 42, 0
1, 374400, Note_on_c, 9, 56, 127
1, 374400, Note_on_c, 9, 42, 127
1, 374400, Note_on_c, 9, 36, 127
1, 374411, Note_on_c, 9, 42, 0
1, 374639, Note_on_c, 9, 56, 0
1, 374640, Note_on_c, 9, 42, 127
1, 374651, Note_on_c, 9, 42, 0
1, 374879, Note_on_c, 9, 36, 0
1, 374880, Note_on_c, 9, 38, 127
1, 374880, Note_on_c, 9, 42, 127
1, 374891, Note_on_c, 9, 42, 0
1, 375119, Note_on_c, 9, 38, 0
1, 375120, Note_on_c, 9, 42, 127
1, 375131, Note_on_c, 9, 42, 0
1, 375360, Note_on_c, 9, 56, 127
1, 375360, Note_on_c, 9, 42, 127
1, 375360, Note_on_c, 9, 36, 127
1, 375371, Note_on_c, 9, 42, 0
1, 375599, Note_on_c, 9, 56, 0
1, 375600, Note_on_c, 9, 42, 127
1, 375611, Note_on_c, 9, 42, 0
1, 375839, Note_on_c, 9, 36, 0
1, 375840, Note_on_c, 9, 38, 127
1, 375840, Note_on_c, 9, 42, 127
1, 375851, Note_on_c, 9, 42, 0
1, 376079, Note_on_c, 9, 38, 0
1, 376080, Note_on_c, 9, 46, 127
1, 376080, Note_on_c, 9, 36, 127
1, 376091, Note_on_c, 9, 46, 0
1, 376319, Note_on_c, 9, 36, 0
1, 376320, Note_on_c, 9, 56, 127
1, 376320, Note_on_c, 9, 42, 127
1, 376320, Note_on_c, 9, 36, 127
1, 376331, Note_on_c, 9, 42, 0
1, 376559, Note_on_c, 9, 56, 0
1, 376560, Note_on_c, 9, 42, 127
1, 376571, Note_on_c, 9, 42, 0
1, 376799, Note_on_c, 9, 36, 0
1, 376800, Note_on_c, 9, 38, 127
1, 376800, Note_on_c, 9, 42, 127
1, 376811, Note_on_c, 9, 42, 0
1, 377039, Note_on_c, 9, 38, 0
1, 377040, Note_on_c, 9, 42, 127
1, 377051, Note_on_c, 9, 42, 0
1, 377280, Note_on_c, 9, 56, 127
1, 377280, Note_on_c, 9, 42, 127
1, 377280, Note_on_c, 9, 36, 127
1, 377291, Note_on_c, 9, 42, 0
1, 377519, Note_on_c, 9, 56, 0
1, 377520, Note_on_c, 9, 42, 127
1, 377531, Note_on_c, 9, 42, 0
1, 377759, Note_on_c, 9, 36, 0
1, 377760, Note_on_c, 9, 38, 127
1, 377760, Note_on_c, 9, 42, 127
1, 377771, Note_on_c, 9, 42, 0
1, 377999, Note_on_c, 9, 38, 0
1, 378000, Note_on_c, 9, 42, 127
1, 378011, Note_on_c, 9, 42, 0
1, 378240, Note_on_c, 9, 56, 127
1, 378240, Note_on_c, 9, 42, 127
1, 378240, Note_on_c, 9, 36, 127
1, 378251, Note_on_c, 9, 42, 0
1, 378479, Note_on_c, 9, 56, 0
1, 378480, Note_on_c, 9, 42, 127
1, 378491, Note_on_c, 9, 42, 0
1, 378719, Note_on_c, 9, 36, 0
1, 378720, Note_on_c, 9, 38, 127
1, 378720, Note_on_c, 9, 42, 127
1, 378731, Note_on_c, 9, 42, 0
1, 378959, Note_on_c, 9, 38, 0
1, 378960, Note_on_c, 9, 42, 127
1, 378960, Note_on_c, 9, 36, 127
1, 378971, Note_on_c, 9, 42, 0
1, 379199, Note_on_c, 9, 36, 0
1, 379200, Note_on_c, 9, 56, 127
1, 379200, Note_on_c, 9, 42, 127
1, 379211, Note_on_c, 9, 42, 0
1, 379439, Note_on_c, 9, 56, 0
1, 379440, Note_on_c, 9, 46, 127
1, 379451, Note_on_c, 9, 46, 0
1, 379680, Note_on_c, 9, 38, 127
1, 379680, Note_on_c, 9, 42, 127
1, 379691, Note_on_c, 9, 42, 0
1, 379919, Note_on_c, 9, 38, 0
1, 379920, Note_on_c, 9, 46, 127
1, 379920, Note_on_c, 9, 36, 127
1, 379931, Note_on_c, 9, 46, 0
1, 380159, Note_on_c, 9, 36, 0
1, 380160, Note_on_c, 9, 56, 127
1, 380160, Note_on_c, 9, 49, 127
1, 380160, Note_on_c, 9, 36, 127
1, 380171, Note_on_c, 9, 49, 0
1, 380399, Note_on_c, 9, 56, 0
1, 380400, Note_on_c, 9, 42, 127
1, 380411, Note_on_c, 9, 42, 0
1, 380639, Note_on_c, 9, 36, 0
1, 380640, Note_on_c, 9, 38, 127
1, 380640, Note_on_c, 9, 42, 127
1, 380651, Note_on_c, 9, 42, 0
1, 380879, Note_on_c, 9, 38, 0
1, 380880, Note_on_c, 9, 42, 127
1, 380891, Note_on_c, 9, 42, 0
1, 381120, Note_on_c, 9, 56, 127
1, 381120, Note_on_c, 9, 42, 127
1, 381120, Note_on_c, 9, 36, 127
1, 381131, Note_on_c, 9, 42, 0
1, 381359, Note_on_c, 9, 56, 0
1, 381360, Note_on_c, 9, 42, 127
1, 381371, Note_on_c, 9, 42, 0
1, 381599, Note_on_c, 9, 36, 0
1, 381600, Note_on_c, 9, 38, 127
1, 381600, Note_on_c, 9, 42, 127
1, 381611, Note_on_c, 9, 42, 0
1, 381839, Note_on_c, 9, 38, 0
1, 381840, Note_on_c, 9, 42, 127
1, 381851, Note_on_c, 9, 42, 0
1, 382080, Note_on_c, 9, 56, 127
1, 382080, Note_on_c, 9, 42, 127
1, 382080, Note_on_c, 9, 36, 127
1, 382091, Note_on_c, 9, 42, 0
1, 382319, Note_on_c, 9, 56, 0
1, 382320, Note_on_c, 9, 42, 127
1, 382331, Note_on_c, 9, 42, 0
1, 382559, Note_on_c, 9, 36, 0
1, 382560, Note_on_c, 9, 38, 127
1, 382560, Note_on_c, 9, 42, 127
1, 382571, Note_on_c, 9, 42, 0
1, 382799, Note_on_c, 9, 38, 0
1, 382800, Note_on_c, 9, 42, 127
1, 382811, Note_on_c, 9, 42, 0
1, 383040, Note_on_c, 9, 56, 127
1, 383040, Note_on_c, 9, 42, 127
1, 383040, Note_on_c, 9, 36, 127
1, 383051, Note_on_c, 9, 42, 0
1, 383279, Note_on_c, 9, 56, 0
1, 383280, Note_on_c, 9, 42, 127
1, 383291, Note_on_c, 9, 42, 0
1, 383519, Note_on_c, 9, 36, 0
1, 383520, Note_on_c, 9, 38, 127
1, 383520, Note_on_c, 9, 42, 127
1, 383531, Note_on_c, 9, 42, 0
1, 383759, Note_on_c, 9, 38, 0
1, 383760, Note_on_c, 9, 42, 127
1, 383760, Note_on_c, 9, 36, 127
1, 383771, Note_on_c, 9, 42, 0
1, 383999, Note_on_c, 9, 36, 0
1, 384000, Note_on_c, 9, 56, 127
1, 384000, Note_on_c, 9, 42, 127
1, 384000, Note_on_c, 9, 36, 127
1, 384011, Note_on_c, 9, 42, 0
1, 384239, Note_on_c, 9, 56, 0
1, 384240, Note_on_c, 9, 42, 127
1, 384251, Note_on_c, 9, 42, 0
1, 384479, Note_on_c, 9, 36, 0
1, 384480, Note_on_c, 9, 38, 127
1, 384480, Note_on_c, 9, 42, 127
1, 384491, Note_on_c, 9, 42, 0
1, 384719, Note_on_c, 9, 38, 0
1, 384720, Note_on_c, 9, 42, 127
1, 384731, Note_on_c, 9, 42, 0
1, 384960, Note_on_c, 9, 56, 127
1, 384960, Note_on_c, 9, 42, 127
1, 384960, Note_on_c, 9, 36, 127
1, 384971, Note_on_c, 9, 42, 0
1, 385199, Note_on_c, 9, 56, 0
1, 385200, Note_on_c, 9, 42, 127
1, 385211, Note_on_c, 9, 42, 0
1, 385439, Note_on_c, 9, 36, 0
1, 385440, Note_on_c, 9, 38, 127
1, 385440, Note_on_c, 9, 42, 127
1, 385451, Note_on_c, 9, 42, 0
1, 385679, Note_on_c, 9, 38, 0
1, 385680, Note_on_c, 9, 42, 127
1, 385691, Note_on_c, 9, 42, 0
1, 385920, Note_on_c, 9, 56, 127
1, 385920, Note_on_c, 9, 42, 127
1, 385920, Note_on_c, 9, 36, 127
1, 385931, Note_on_c, 9, 42, 0
1, 386159, Note_on_c, 9, 56, 0
1, 386160, Note_on_c, 9, 42, 127
1, 386171, Note_on_c, 9, 42, 0
1, 386399, Note_on_c, 9, 36, 0
1, 386400, Note_on_c, 9, 38, 127
1, 386400, Note_on_c, 9, 42, 127
1, 386411, Note_on_c, 9, 42, 0
1, 386639, Note_on_c, 9, 38, 0
1, 386640, Note_on_c, 9, 42, 127
1, 386651, Note_on_c, 9, 42, 0
1, 386880, Note_on_c, 9, 56, 127
1, 386880, Note_on_c, 9, 42, 127
1, 386880, Note_on_c, 9, 36, 127
1, 386891, Note_on_c, 9, 42, 0
1, 387119, Note_on_c, 9, 56, 0
1, 387120, Note_on_c, 9, 42, 127
1, 387131, Note_on_c, 9, 42, 0
1, 387359, Note_on_c, 9, 36, 0
1, 387360, Note_on_c, 9, 38, 127
1, 387360, Note_on_c, 9, 42, 127
1, 387371, Note_on_c, 9, 42, 0
1, 387599, Note_on_c, 9, 38, 0
1, 387600, Note_on_c, 9, 46, 127
1, 387611, Note_on_c, 9, 46, 0
1, 387840, Note_on_c, 9, 56, 127
1, 387840, Note_on_c, 9, 42, 127
1, 387840, Note_on_c, 9, 36, 127
1, 387851, Note_on_c, 9, 42, 0
1, 388079, Note_on_c, 9, 56, 0
1, 388080, Note_on_c, 9, 42, 127
1, 388091, Note_on_c, 9, 42, 0
1, 388319, Note_on_c, 9, 36, 0
1, 388320, Note_on_c, 9, 38, 127
1, 388320, Note_on_c, 9, 42, 127
1, 388331, Note_on_c, 9, 42, 0
1, 388559, Note_on_c, 9, 38, 0
1, 388560, Note_on_c, 9, 42, 127
1, 388571, Note_on_c, 9, 42, 0
1, 388800, Note_on_c, 9, 56, 127
1, 388800, Note_on_c, 9, 42, 127
1, 388800, Note_on_c, 9, 36, 127
1, 388811, Note_on_c, 9, 42, 0
1, 389039, Note_on_c, 9, 56, 0
1, 389040, Note_on_c, 9, 42, 127
1, 389051, Note_on_c, 9, 42, 0
1, 389279, Note_on_c, 9, 36, 0
1, 389280, Note_on_c, 9, 38, 127
1, 389280, Note_on_c, 9, 42, 127
1, 389291, Note_on_c, 9, 42, 0
1, 389519, Note_on_c, 9, 38, 0
1, 389520, Note_on_c, 9, 42, 127
1, 389531, Note_on_c, 9, 42, 0
1, 389760, Note_on_c, 9, 56, 127
1, 389760, Note_on_c, 9, 42, 127
1, 389760, Note_on_c, 9, 36, 127
1, 389771, Note_on_c, 9, 42, 0
1, 389999, Note_on_c, 9, 56, 0
1, 390000, Note_on_c, 9, 42, 127
1, 390011, Note_on_c, 9, 42, 0
1, 390239, Note_on_c, 9, 36, 0
1, 390240, Note_on_c, 9, 38, 127
1, 390240, Note_on_c, 9, 42, 127
1, 390251, Note_on_c, 9, 42, 0
1, 390479, Note_on_c, 9, 38, 0
1, 390480, Note_on_c, 9, 42, 127
1, 390491, Note_on_c, 9, 42, 0
1, 390720, Note_on_c, 9, 56, 127
1, 390720, Note_on_c, 9, 42, 127
1, 390720, Note_on_c, 9, 36, 127
1, 390731, Note_on_c, 9, 42, 0
1, 390959, Note_on_c, 9, 56, 0
1, 390960, Note_on_c, 9, 42, 127
1, 390971, Note_on_c, 9, 42, 0
1, 391199, Note_on_c, 9, 36, 0
1, 391200, Note_on_c, 9, 38, 127
1, 391200, Note_on_c, 9, 42, 127
1, 391211, Note_on_c, 9, 42, 0
1, 391439, Note_on_c, 9, 38, 0
1, 391440, Note_on_c, 9, 42, 127
1, 391440, Note_on_c, 9, 36, 127
1, 391451, Note_on_c, 9, 42, 0
1, 391679, Note_on_c, 9, 36, 0
1, 391680, Note_on_c, 9, 56, 127
1, 391680, Note_on_c, 9, 42, 127
1, 391680, Note_on_c, 9, 36, 127
1, 391691, Note_on_c, 9, 42, 0
1, 391919, Note_on_c, 9, 56, 0
1, 391920, Note_on_c, 9, 42, 127
1, 391931, Note_on_c, 9, 42, 0
1, 392159, Note_on_c, 9, 36, 0
1, 392160, Note_on_c, 9, 38, 127
1, 392160, Note_on_c, 9, 42, 127
1, 392171, Note_on_c, 9, 42, 0
1, 392399, Note_on_c, 9, 38, 0
1, 392400, Note_on_c, 9, 42, 127
1, 392411, Note_on_c, 9, 42, 0
1, 392640, Note_on_c, 9, 56, 127
1, 392640, Note_on_c, 9, 42, 127
1, 392640, Note_on_c, 9, 36, 127
1, 392651, Note_on_c, 9, 42, 0
1, 392879, Note_on_c, 9, 56, 0
1, 392880, Note_on_c, 9, 42, 127
1, 392891, Note_on_c, 9, 42, 0
1, 393119, Note_on_c, 9, 36, 0
1, 393120, Note_on_c, 9, 38, 127
1, 393120, Note_on_c, 9, 42, 127
1, 393131, Note_on_c, 9, 42, 0
1, 393359, Note_on_c, 9, 38, 0
1, 393360, Note_on_c, 9, 42, 127
1, 393371, Note_on_c, 9, 42, 0
1, 393600, Note_on_c, 9, 56, 127
1, 393600, Note_on_c, 9, 42, 127
1, 393600, Note_on_c, 9, 36, 127
1, 393611, Note_on_c, 9, 42, 0
1, 393839, Note_on_c, 9, 56, 0
1, 393840, Note_on_c, 9, 42, 127
1, 393851, Note_on_c, 9, 42, 0
1, 394079, Note_on_c, 9, 36, 0
1, 394080, Note_on_c, 9, 38, 127
1, 394080, Note_on_c, 9, 42, 127
1, 394091, Note_on_c, 9, 42, 0
1, 394319, Note_on_c, 9, 38, 0
1, 394320, Note_on_c, 9, 42, 127
1, 394331, Note_on_c, 9, 42, 0
1, 394560, Note_on_c, 9, 56, 127
1, 394560, Note_on_c, 9, 42, 127
1, 394571, Note_on_c, 9, 42, 0
1, 394799, Note_on_c, 9, 56, 0
1, 394800, Note_on_c, 9, 42, 127
1, 394800, Note_on_c, 9, 36, 127
1, 394808, Note_on_c, 9, 42, 0
1, 395010, Note_on_c, 9, 38, 111
1, 395039, Note_on_c, 9, 36, 0
1, 395039, Note_on_c, 9, 38, 0
1, 395040, Note_on_c, 9, 38, 127
1, 395040, Note_on_c, 9, 46, 127
1, 395064, Note_on_c, 9, 46, 0
1, 395519, Note_on_c, 9, 38, 0
1, 395520, Note_on_c, 9, 56, 127
1, 395520, Note_on_c, 9, 49, 127
1, 395520, Note_on_c, 9, 36, 127
1, 395531, Note_on_c, 9, 49, 0
1, 395759, Note_on_c, 9, 56, 0
1, 395760, Note_on_c, 9, 42, 127
1, 395771, Note_on_c, 9, 42, 0
1, 395999, Note_on_c, 9, 36, 0
1, 396000, Note_on_c, 9, 38, 127
1, 396000, Note_on_c, 9, 42, 127
1, 396011, Note_on_c, 9, 42, 0
1, 396239, Note_on_c, 9, 38, 0
1, 396240, Note_on_c, 9, 42, 127
1, 396251, Note_on_c, 9, 42, 0
1, 396480, Note_on_c, 9, 56, 127
1, 396480, Note_on_c, 9, 42, 127
1, 396480, Note_on_c, 9, 36, 127
1, 396491, Note_on_c, 9, 42, 0
1, 396719, Note_on_c, 9, 56, 0
1, 396720, Note_on_c, 9, 42, 127
1, 396731, Note_on_c, 9, 42, 0
1, 396959, Note_on_c, 9, 36, 0
1, 396960, Note_on_c, 9, 38, 127
1, 396960, Note_on_c, 9, 42, 127
1, 396971, Note_on_c, 9, 42, 0
1, 397199, Note_on_c, 9, 38, 0
1, 397200, Note_on_c, 9, 42, 127
1, 397211, Note_on_c, 9, 42, 0
1, 397440, Note_on_c, 9, 56, 127
1, 397440, Note_on_c, 9, 42, 127
1, 397440, Note_on_c, 9, 36, 127
1, 397451, Note_on_c, 9, 42, 0
1, 397679, Note_on_c, 9, 56, 0
1, 397680, Note_on_c, 9, 42, 127
1, 397691, Note_on_c, 9, 42, 0
1, 397919, Note_on_c, 9, 36, 0
1, 397920, Note_on_c, 9, 38, 127
1, 397920, Note_on_c, 9, 42, 127
1, 397931, Note_on_c, 9, 42, 0
1, 398159, Note_on_c, 9, 38, 0
1, 398160, Note_on_c, 9, 42, 127
1, 398171, Note_on_c, 9, 42, 0
1, 398400, Note_on_c, 9, 56, 127
1, 398400, Note_on_c, 9, 42, 127
1, 398400, Note_on_c, 9, 36, 127
1, 398411, Note_on_c, 9, 42, 0
1, 398639, Note_on_c, 9, 56, 0
1, 398640, Note_on_c, 9, 42, 127
1, 398651, Note_on_c, 9, 42, 0
1, 398879, Note_on_c, 9, 36, 0
1, 398880, Note_on_c, 9, 38, 127
1, 398880, Note_on_c, 9, 42, 127
1, 398891, Note_on_c, 9, 42, 0
1, 399119, Note_on_c, 9, 38, 0
1, 399120, Note_on_c, 9, 46, 127
1, 399120, Note_on_c, 9, 42, 127
1, 399120, Note_on_c, 9, 36, 127
1, 399131, Note_on_c, 9, 46, 0
1, 399131, Note_on_c, 9, 42, 0
1, 399359, Note_on_c, 9, 36, 0
1, 399360, Note_on_c, 9, 56, 127
1, 399360, Note_on_c, 9, 42, 127
1, 399360, Note_on_c, 9, 36, 127
1, 399371, Note_on_c, 9, 42, 0
1, 399599, Note_on_c, 9, 56, 0
1, 399600, Note_on_c, 9, 42, 127
1, 399611, Note_on_c, 9, 42, 0
1, 399839, Note_on_c, 9, 36, 0
1, 399840, Note_on_c, 9, 38, 127
1, 399840, Note_on_c, 9, 42, 127
1, 399851, Note_on_c, 9, 42, 0
1, 400079, Note_on_c, 9, 38, 0
1, 400080, Note_on_c, 9, 42, 127
1, 400091, Note_on_c, 9, 42, 0
1, 400320, Note_on_c, 9, 56, 127
1, 400320, Note_on_c, 9, 42, 127
1, 400320, Note_on_c, 9, 36, 127
1, 400331, Note_on_c, 9, 42, 0
1, 400559, Note_on_c, 9, 56, 0
1, 400560, Note_on_c, 9, 42, 127
1, 400571, Note_on_c, 9, 42, 0
1, 400799, Note_on_c, 9, 36, 0
1, 400800, Note_on_c, 9, 38, 127
1, 400800, Note_on_c, 9, 42, 127
1, 400811, Note_on_c, 9, 42, 0
1, 401039, Note_on_c, 9, 38, 0
1, 401040, Note_on_c, 9, 42, 127
1, 401051, Note_on_c, 9, 42, 0
1, 401052, End_track
0, 0, End_of_file
