0, 0, Header, 1, 1, 480
1, 0, Start_track
1, 0, Title_t, "Drumset"
1, 0, Time_signature, 4, 2, 24, 8
1, 0, Key_signature, 0, "major"
1, 0, Tempo, 652174
1, 0, Control_c, 9, 121, 0
1, 0, Program_c, 9, 0
1, 0, Control_c, 9, 7, 100
1, 0, Control_c, 9, 10, 64
1, 0, Control_c, 9, 91, 0
1, 0, Control_c, 9, 93, 0
1, 0, MIDI_port, 0
1, 41280, Tempo, 555556
1, 42255, Note_on_c, 9, 49, 97
1, 42262, Note_on_c, 9, 49, 0
1, 42735, Note_on_c, 9, 38, 127
1, 42959, Note_on_c, 9, 38, 0
1, 43200, Note_on_c, 9, 38, 127
1, 43439, Note_on_c, 9, 38, 0
1, 43460, Note_on_c, 9, 49, 119
1, 43460, Note_on_c, 9, 49, 0
1, 43890, Note_on_c, 9, 49, 97
1, 43890, Note_on_c, 9, 49, 0
1, 43900, Note_on_c, 9, 35, 112
1, 43919, Note_on_c, 9, 35, 0
1, 44160, Note_on_c, 9, 49, 112
1, 44175, Note_on_c, 9, 35, 112
1, 44179, Note_on_c, 9, 49, 0
1, 44399, Note_on_c, 9, 35, 0
1, 44655, Note_on_c, 9, 38, 97
1, 44879, Note_on_c, 9, 38, 0
1, 44880, Note_on_c, 9, 35, 112
1, 45119, Note_on_c, 9, 35, 0
1, 45135, Note_on_c, 9, 38, 112
1, 45135, Note_on_c, 9, 35, 89
1, 45359, Note_on_c, 9, 38, 0
1, 45359, Note_on_c, 9, 35, 0
1, 45360, Note_on_c, 9, 35, 104
1, 45599, Note_on_c, 9, 35, 0
1, 45825, Note_on_c, 9, 35, 89
1, 45839, Note_on_c, 9, 35, 0
1, 46080, Note_on_c, 9, 35, 127
1, 46559, Note_on_c, 9, 35, 0
1, 46560, Note_on_c, 9, 38, 97
1, 46800, Note_on_c, 9, 35, 112
1, 47039, Note_on_c, 9, 38, 0
1, 47039, Note_on_c, 9, 35, 0
1, 47265, Note_on_c, 9, 35, 127
1, 47279, Note_on_c, 9, 35, 0
1, 47520, Note_on_c, 9, 38, 112
1, 47639, Note_on_c, 9, 38, 0
1, 47640, Note_on_c, 9, 38, 119
1, 47759, Note_on_c, 9, 38, 0
1, 47760, Note_on_c, 9, 38, 119
1, 47849, Note_on_c, 9, 38, 0
1, 47865, Note_on_c, 9, 38, 89
1, 47879, Note_on_c, 9, 38, 0
1, 48000, Note_on_c, 9, 35, 119
1, 48479, Note_on_c, 9, 35, 0
1, 48495, Note_on_c, 9, 38, 119
1, 48719, Note_on_c, 9, 38, 0
1, 48735, Note_on_c, 9, 35, 112
1, 48959, Note_on_c, 9, 35, 0
1, 49940, Note_on_c, 9, 49, 97
1, 49940, Note_on_c, 9, 49, 0
1, 50420, Note_on_c, 9, 38, 112
1, 50459, Note_on_c, 9, 38, 0
1, 50895, Note_on_c, 9, 38, 127
1, 51119, Note_on_c, 9, 38, 0
1, 51135, Note_on_c, 9, 49, 119
1, 51135, Note_on_c, 9, 35, 127
1, 51142, Note_on_c, 9, 49, 0
1, 51359, Note_on_c, 9, 35, 0
1, 51560, Note_on_c, 9, 49, 89
1, 51560, Note_on_c, 9, 49, 0
1, 51585, Note_on_c, 9, 35, 127
1, 51599, Note_on_c, 9, 35, 0
1, 51840, Note_on_c, 9, 49, 97
1, 51855, Note_on_c, 9, 35, 112
1, 51859, Note_on_c, 9, 49, 0
1, 52079, Note_on_c, 9, 35, 0
1, 52320, Note_on_c, 9, 38, 127
1, 52560, Note_on_c, 9, 35, 104
1, 52784, Note_on_c, 9, 35, 0
1, 52785, Note_on_c, 9, 35, 89
1, 52799, Note_on_c, 9, 38, 0
1, 52799, Note_on_c, 9, 35, 0
1, 52815, Note_on_c, 9, 38, 127
1, 52859, Note_on_c, 9, 38, 0
1, 52935, Note_on_c, 9, 38, 89
1, 52979, Note_on_c, 9, 38, 0
1, 53055, Note_on_c, 9, 38, 104
1, 53144, Note_on_c, 9, 38, 0
1, 53145, Note_on_c, 9, 38, 104
1, 53249, Note_on_c, 9, 38, 0
1, 53250, Note_on_c, 9, 45, 97
1, 53279, Note_on_c, 9, 45, 0
1, 53355, Note_on_c, 9, 45, 89
1, 53399, Note_on_c, 9, 45, 0
1, 53480, Note_on_c, 9, 45, 112
1, 53519, Note_on_c, 9, 45, 0
1, 53565, Note_on_c, 9, 45, 89
1, 53759, Note_on_c, 9, 45, 0
1, 53775, Note_on_c, 9, 35, 119
1, 53999, Note_on_c, 9, 35, 0
1, 54255, Note_on_c, 9, 38, 97
1, 54479, Note_on_c, 9, 38, 0
1, 54495, Note_on_c, 9, 35, 97
1, 54719, Note_on_c, 9, 35, 0
1, 54960, Note_on_c, 9, 35, 97
1, 55199, Note_on_c, 9, 35, 0
1, 55215, Note_on_c, 9, 38, 112
1, 55259, Note_on_c, 9, 38, 0
1, 55340, Note_on_c, 9, 38, 89
1, 55379, Note_on_c, 9, 38, 0
1, 55460, Note_on_c, 9, 38, 119
1, 55499, Note_on_c, 9, 38, 0
1, 55560, Note_on_c, 9, 38, 119
1, 55679, Note_on_c, 9, 38, 0
1, 55680, Note_on_c, 9, 35, 89
1, 56159, Note_on_c, 9, 35, 0
1, 56160, Note_on_c, 9, 38, 97
1, 56400, Note_on_c, 9, 35, 127
1, 56639, Note_on_c, 9, 38, 0
1, 56639, Note_on_c, 9, 35, 0
1, 56865, Note_on_c, 9, 35, 89
1, 56879, Note_on_c, 9, 35, 0
1, 57105, Note_on_c, 9, 38, 97
1, 57119, Note_on_c, 9, 38, 0
1, 57600, Note_on_c, 9, 49, 97
1, 57600, Note_on_c, 9, 35, 97
1, 57619, Note_on_c, 9, 49, 0
1, 58079, Note_on_c, 9, 35, 0
1, 58080, Note_on_c, 9, 38, 97
1, 58320, Note_on_c, 9, 35, 112
1, 58559, Note_on_c, 9, 38, 0
1, 58559, Note_on_c, 9, 35, 0
1, 58815, Note_on_c, 9, 35, 89
1, 59039, Note_on_c, 9, 35, 0
1, 59040, Note_on_c, 9, 38, 127
1, 59519, Note_on_c, 9, 38, 0
1, 59520, Note_on_c, 9, 35, 112
1, 59999, Note_on_c, 9, 35, 0
1, 60000, Note_on_c, 9, 38, 97
1, 60255, Note_on_c, 9, 35, 104
1, 60479, Note_on_c, 9, 38, 0
1, 60479, Note_on_c, 9, 35, 0
1, 60735, Note_on_c, 9, 35, 112
1, 60959, Note_on_c, 9, 35, 0
1, 60960, Note_on_c, 9, 38, 112
1, 61439, Note_on_c, 9, 38, 0
1, 61440, Note_on_c, 9, 49, 89
1, 61455, Note_on_c, 9, 35, 127
1, 61459, Note_on_c, 9, 49, 0
1, 61679, Note_on_c, 9, 35, 0
1, 61935, Note_on_c, 9, 38, 127
1, 62159, Note_on_c, 9, 38, 0
1, 62175, Note_on_c, 9, 35, 112
1, 62399, Note_on_c, 9, 35, 0
1, 62420, Note_on_c, 9, 35, 112
1, 62459, Note_on_c, 9, 35, 0
1, 62895, Note_on_c, 9, 38, 127
1, 63119, Note_on_c, 9, 38, 0
1, 63375, Note_on_c, 9, 35, 127
1, 63599, Note_on_c, 9, 35, 0
1, 63840, Note_on_c, 9, 38, 112
1, 64080, Note_on_c, 9, 35, 119
1, 64319, Note_on_c, 9, 38, 0
1, 64319, Note_on_c, 9, 35, 0
1, 64320, Note_on_c, 9, 35, 112
1, 64799, Note_on_c, 9, 35, 0
1, 64800, Note_on_c, 9, 38, 119
1, 65039, Note_on_c, 9, 38, 0
1, 65080, Note_on_c, 9, 38, 112
1, 65099, Note_on_c, 9, 38, 0
1, 65180, Note_on_c, 9, 38, 89
1, 65219, Note_on_c, 9, 38, 0
1, 65280, Note_on_c, 9, 49, 89
1, 65280, Note_on_c, 9, 35, 119
1, 65299, Note_on_c, 9, 49, 0
1, 65759, Note_on_c, 9, 35, 0
1, 65775, Note_on_c, 9, 38, 112
1, 65999, Note_on_c, 9, 38, 0
1, 66000, Note_on_c, 9, 35, 97
1, 66239, Note_on_c, 9, 35, 0
1, 66495, Note_on_c, 9, 35, 104
1, 66719, Note_on_c, 9, 35, 0
1, 66735, Note_on_c, 9, 38, 119
1, 66959, Note_on_c, 9, 38, 0
1, 67215, Note_on_c, 9, 35, 119
1, 67439, Note_on_c, 9, 35, 0
1, 67695, Note_on_c, 9, 38, 97
1, 67919, Note_on_c, 9, 38, 0
1, 68160, Note_on_c, 9, 35, 104
1, 68384, Note_on_c, 9, 35, 0
1, 68385, Note_on_c, 9, 35, 89
1, 68399, Note_on_c, 9, 35, 0
1, 68655, Note_on_c, 9, 38, 97
1, 68879, Note_on_c, 9, 38, 0
1, 69135, Note_on_c, 9, 35, 89
1, 69140, Note_on_c, 9, 49, 112
1, 69140, Note_on_c, 9, 49, 0
1, 69359, Note_on_c, 9, 35, 0
1, 69360, Note_on_c, 9, 38, 97
1, 69599, Note_on_c, 9, 38, 0
1, 69825, Note_on_c, 9, 38, 97
1, 69839, Note_on_c, 9, 38, 0
1, 69860, Note_on_c, 9, 35, 97
1, 69899, Note_on_c, 9, 35, 0
1, 70095, Note_on_c, 9, 35, 112
1, 70305, Note_on_c, 9, 38, 127
1, 70319, Note_on_c, 9, 35, 0
1, 70319, Note_on_c, 9, 38, 0
1, 70800, Note_on_c, 9, 38, 89
1, 71039, Note_on_c, 9, 38, 0
1, 71060, Note_on_c, 9, 35, 104
1, 71099, Note_on_c, 9, 35, 0
1, 71280, Note_on_c, 9, 50, 112
1, 71504, Note_on_c, 9, 50, 0
1, 71505, Note_on_c, 9, 50, 89
1, 71519, Note_on_c, 9, 50, 0
1, 71745, Note_on_c, 9, 45, 104
1, 71939, Note_on_c, 9, 45, 0
1, 71980, Note_on_c, 9, 45, 97
1, 71999, Note_on_c, 9, 45, 0
1, 72980, Note_on_c, 9, 49, 127
1, 72980, Note_on_c, 9, 49, 0
1, 73455, Note_on_c, 9, 38, 112
1, 73679, Note_on_c, 9, 38, 0
1, 73935, Note_on_c, 9, 38, 127
1, 74159, Note_on_c, 9, 38, 0
1, 74180, Note_on_c, 9, 35, 97
1, 74190, Note_on_c, 9, 49, 119
1, 74192, Note_on_c, 9, 49, 0
1, 74219, Note_on_c, 9, 35, 0
1, 74620, Note_on_c, 9, 35, 97
1, 74625, Note_on_c, 9, 49, 89
1, 74625, Note_on_c, 9, 49, 0
1, 74639, Note_on_c, 9, 35, 0
1, 74895, Note_on_c, 9, 49, 127
1, 74900, Note_on_c, 9, 35, 112
1, 74902, Note_on_c, 9, 49, 0
1, 74939, Note_on_c, 9, 35, 0
1, 75360, Note_on_c, 9, 38, 97
1, 75600, Note_on_c, 9, 35, 127
1, 75839, Note_on_c, 9, 38, 0
1, 75839, Note_on_c, 9, 35, 0
1, 75840, Note_on_c, 9, 38, 127
1, 75855, Note_on_c, 9, 35, 119
1, 76079, Note_on_c, 9, 35, 0
1, 76080, Note_on_c, 9, 35, 104
1, 76319, Note_on_c, 9, 38, 0
1, 76319, Note_on_c, 9, 35, 0
1, 76545, Note_on_c, 9, 35, 119
1, 76559, Note_on_c, 9, 35, 0
1, 76800, Note_on_c, 9, 35, 112
1, 76815, Note_on_c, 9, 49, 112
1, 76822, Note_on_c, 9, 49, 0
1, 77279, Note_on_c, 9, 35, 0
1, 77295, Note_on_c, 9, 38, 97
1, 77519, Note_on_c, 9, 38, 0
1, 77535, Note_on_c, 9, 35, 127
1, 77759, Note_on_c, 9, 35, 0
1, 78000, Note_on_c, 9, 35, 127
1, 78239, Note_on_c, 9, 35, 0
1, 78255, Note_on_c, 9, 38, 119
1, 78299, Note_on_c, 9, 38, 0
1, 78360, Note_on_c, 9, 38, 89
1, 78479, Note_on_c, 9, 38, 0
1, 78480, Note_on_c, 9, 38, 89
1, 78569, Note_on_c, 9, 38, 0
1, 78585, Note_on_c, 9, 38, 89
1, 78599, Note_on_c, 9, 38, 0
1, 78705, Note_on_c, 9, 35, 112
1, 78719, Note_on_c, 9, 35, 0
1, 79200, Note_on_c, 9, 38, 97
1, 79440, Note_on_c, 9, 35, 96
1, 79679, Note_on_c, 9, 38, 0
1, 79679, Note_on_c, 9, 35, 0
1, 80160, Note_on_c, 9, 38, 127
1, 80639, Note_on_c, 9, 38, 0
1, 80655, Note_on_c, 9, 49, 112
1, 80662, Note_on_c, 9, 49, 0
1, 81135, Note_on_c, 9, 38, 127
1, 81359, Note_on_c, 9, 38, 0
1, 81600, Note_on_c, 9, 38, 127
1, 81839, Note_on_c, 9, 38, 0
1, 81855, Note_on_c, 9, 35, 97
1, 81860, Note_on_c, 9, 49, 127
1, 81860, Note_on_c, 9, 49, 0
1, 82079, Note_on_c, 9, 35, 0
1, 82290, Note_on_c, 9, 49, 112
1, 82290, Note_on_c, 9, 49, 0
1, 82305, Note_on_c, 9, 35, 127
1, 82319, Note_on_c, 9, 35, 0
1, 82575, Note_on_c, 9, 49, 119
1, 82575, Note_on_c, 9, 35, 112
1, 82582, Note_on_c, 9, 49, 0
1, 82799, Note_on_c, 9, 35, 0
1, 83055, Note_on_c, 9, 38, 127
1, 83279, Note_on_c, 9, 38, 0
1, 83280, Note_on_c, 9, 35, 112
1, 83519, Note_on_c, 9, 35, 0
1, 83535, Note_on_c, 9, 38, 112
1, 83535, Note_on_c, 9, 35, 104
1, 83759, Note_on_c, 9, 38, 0
1, 83759, Note_on_c, 9, 35, 0
1, 83760, Note_on_c, 9, 35, 104
1, 83999, Note_on_c, 9, 35, 0
1, 84225, Note_on_c, 9, 35, 119
1, 84239, Note_on_c, 9, 35, 0
1, 84480, Note_on_c, 9, 35, 127
1, 84495, Note_on_c, 9, 49, 112
1, 84502, Note_on_c, 9, 49, 0
1, 84959, Note_on_c, 9, 35, 0
1, 84975, Note_on_c, 9, 38, 97
1, 85199, Note_on_c, 9, 38, 0
1, 85200, Note_on_c, 9, 35, 104
1, 85439, Note_on_c, 9, 35, 0
1, 85665, Note_on_c, 9, 35, 89
1, 85679, Note_on_c, 9, 35, 0
1, 85920, Note_on_c, 9, 38, 97
1, 86039, Note_on_c, 9, 38, 0
1, 86040, Note_on_c, 9, 38, 89
1, 86159, Note_on_c, 9, 38, 0
1, 86160, Note_on_c, 9, 38, 104
1, 86249, Note_on_c, 9, 38, 0
1, 86265, Note_on_c, 9, 38, 104
1, 86369, Note_on_c, 9, 38, 0
1, 86385, Note_on_c, 9, 49, 97
1, 86385, Note_on_c, 9, 49, 0
1, 86385, Note_on_c, 9, 35, 89
1, 86399, Note_on_c, 9, 35, 0
1, 86865, Note_on_c, 9, 38, 97
1, 86879, Note_on_c, 9, 38, 0
1, 87105, Note_on_c, 9, 35, 104
1, 87119, Note_on_c, 9, 35, 0
1, 87585, Note_on_c, 9, 35, 89
1, 87599, Note_on_c, 9, 35, 0
1, 87840, Note_on_c, 9, 38, 119
1, 88319, Note_on_c, 9, 38, 0
1, 88320, Note_on_c, 9, 49, 112
1, 88320, Note_on_c, 9, 35, 119
1, 88339, Note_on_c, 9, 49, 0
1, 88799, Note_on_c, 9, 35, 0
1, 88815, Note_on_c, 9, 38, 112
1, 89039, Note_on_c, 9, 38, 0
1, 89040, Note_on_c, 9, 35, 104
1, 89279, Note_on_c, 9, 35, 0
1, 89505, Note_on_c, 9, 35, 119
1, 89519, Note_on_c, 9, 35, 0
1, 89760, Note_on_c, 9, 38, 112
1, 90239, Note_on_c, 9, 38, 0
1, 90240, Note_on_c, 9, 49, 104
1, 90240, Note_on_c, 9, 35, 89
1, 90259, Note_on_c, 9, 49, 0
1, 90719, Note_on_c, 9, 35, 0
1, 90735, Note_on_c, 9, 38, 127
1, 90959, Note_on_c, 9, 38, 0
1, 90975, Note_on_c, 9, 35, 119
1, 91199, Note_on_c, 9, 35, 0
1, 91200, Note_on_c, 9, 35, 104
1, 91679, Note_on_c, 9, 35, 0
1, 91680, Note_on_c, 9, 38, 112
1, 92159, Note_on_c, 9, 38, 0
1, 92175, Note_on_c, 9, 49, 112
1, 92175, Note_on_c, 9, 35, 127
1, 92182, Note_on_c, 9, 49, 0
1, 92399, Note_on_c, 9, 35, 0
1, 92415, Note_on_c, 9, 35, 89
1, 92639, Note_on_c, 9, 35, 0
1, 92655, Note_on_c, 9, 38, 119
1, 92879, Note_on_c, 9, 38, 0
1, 92895, Note_on_c, 9, 35, 104
1, 93119, Note_on_c, 9, 35, 0
1, 93375, Note_on_c, 9, 35, 119
1, 93599, Note_on_c, 9, 35, 0
1, 93615, Note_on_c, 9, 38, 127
1, 93839, Note_on_c, 9, 38, 0
1, 93855, Note_on_c, 9, 35, 119
1, 94079, Note_on_c, 9, 35, 0
1, 94080, Note_on_c, 9, 35, 119
1, 94095, Note_on_c, 9, 49, 127
1, 94102, Note_on_c, 9, 49, 0
1, 94559, Note_on_c, 9, 35, 0
1, 94575, Note_on_c, 9, 38, 127
1, 94799, Note_on_c, 9, 38, 0
1, 94800, Note_on_c, 9, 35, 89
1, 95039, Note_on_c, 9, 35, 0
1, 95040, Note_on_c, 9, 35, 119
1, 95519, Note_on_c, 9, 35, 0
1, 95520, Note_on_c, 9, 38, 127
1, 95759, Note_on_c, 9, 38, 0
1, 95760, Note_on_c, 9, 38, 119
1, 95760, Note_on_c, 9, 35, 111
1, 95849, Note_on_c, 9, 38, 0
1, 95865, Note_on_c, 9, 38, 97
1, 95879, Note_on_c, 9, 38, 0
1, 95999, Note_on_c, 9, 35, 0
1, 96000, Note_on_c, 9, 35, 119
1, 96015, Note_on_c, 9, 49, 112
1, 96022, Note_on_c, 9, 49, 0
1, 96479, Note_on_c, 9, 35, 0
1, 96480, Note_on_c, 9, 38, 104
1, 96720, Note_on_c, 9, 35, 119
1, 96959, Note_on_c, 9, 38, 0
1, 96959, Note_on_c, 9, 35, 0
1, 97200, Note_on_c, 9, 35, 111
1, 97439, Note_on_c, 9, 35, 0
1, 97455, Note_on_c, 9, 38, 97
1, 97679, Note_on_c, 9, 38, 0
1, 97935, Note_on_c, 9, 49, 104
1, 97935, Note_on_c, 9, 35, 96
1, 97942, Note_on_c, 9, 49, 0
1, 98159, Note_on_c, 9, 35, 0
1, 98415, Note_on_c, 9, 38, 97
1, 98639, Note_on_c, 9, 38, 0
1, 99120, Note_on_c, 9, 35, 89
1, 99359, Note_on_c, 9, 35, 0
1, 99360, Note_on_c, 9, 38, 127
1, 99839, Note_on_c, 9, 38, 0
1, 99840, Note_on_c, 9, 49, 104
1, 99840, Note_on_c, 9, 35, 104
1, 99849, Note_on_c, 9, 49, 0
1, 100095, Note_on_c, 9, 38, 119
1, 100319, Note_on_c, 9, 35, 0
1, 100319, Note_on_c, 9, 38, 0
1, 100545, Note_on_c, 9, 38, 119
1, 100559, Note_on_c, 9, 38, 0
1, 101040, Note_on_c, 9, 38, 89
1, 101055, Note_on_c, 9, 35, 89
1, 101279, Note_on_c, 9, 38, 0
1, 101279, Note_on_c, 9, 35, 0
1, 101500, Note_on_c, 9, 38, 104
1, 101519, Note_on_c, 9, 38, 0
1, 101775, Note_on_c, 9, 35, 89
1, 101999, Note_on_c, 9, 35, 0
1, 102040, Note_on_c, 9, 50, 127
1, 102059, Note_on_c, 9, 50, 0
1, 102255, Note_on_c, 9, 50, 119
1, 102479, Note_on_c, 9, 50, 0
1, 102510, Note_on_c, 9, 50, 104
1, 102599, Note_on_c, 9, 50, 0
1, 102615, Note_on_c, 9, 45, 104
1, 102659, Note_on_c, 9, 45, 0
1, 102720, Note_on_c, 9, 41, 89
1, 102944, Note_on_c, 9, 41, 0
1, 102945, Note_on_c, 9, 50, 119
1, 102959, Note_on_c, 9, 50, 0
1, 102960, Note_on_c, 9, 35, 127
1, 103040, Note_on_c, 9, 45, 119
1, 103079, Note_on_c, 9, 45, 0
1, 103180, Note_on_c, 9, 41, 127
1, 103199, Note_on_c, 9, 35, 0
1, 103199, Note_on_c, 9, 41, 0
1, 103665, Note_on_c, 9, 49, 89
1, 103665, Note_on_c, 9, 49, 0
1, 103680, Note_on_c, 9, 35, 127
1, 104159, Note_on_c, 9, 35, 0
1, 104160, Note_on_c, 9, 38, 119
1, 104639, Note_on_c, 9, 38, 0
1, 104880, Note_on_c, 9, 35, 89
1, 105105, Note_on_c, 9, 38, 127
1, 105119, Note_on_c, 9, 35, 0
1, 105119, Note_on_c, 9, 38, 0
1, 105600, Note_on_c, 9, 35, 119
1, 106079, Note_on_c, 9, 35, 0
1, 106080, Note_on_c, 9, 38, 119
1, 106335, Note_on_c, 9, 35, 104
1, 106559, Note_on_c, 9, 38, 0
1, 106559, Note_on_c, 9, 35, 0
1, 106800, Note_on_c, 9, 35, 97
1, 107039, Note_on_c, 9, 35, 0
1, 107040, Note_on_c, 9, 38, 97
1, 107519, Note_on_c, 9, 38, 0
1, 107520, Note_on_c, 9, 49, 112
1, 107520, Note_on_c, 9, 35, 119
1, 107539, Note_on_c, 9, 49, 0
1, 107999, Note_on_c, 9, 35, 0
1, 108000, Note_on_c, 9, 38, 127
1, 108240, Note_on_c, 9, 35, 119
1, 108479, Note_on_c, 9, 38, 0
1, 108479, Note_on_c, 9, 35, 0
1, 108705, Note_on_c, 9, 35, 89
1, 108719, Note_on_c, 9, 35, 0
1, 108945, Note_on_c, 9, 38, 112
1, 108959, Note_on_c, 9, 38, 0
1, 109425, Note_on_c, 9, 35, 97
1, 109439, Note_on_c, 9, 35, 0
1, 109920, Note_on_c, 9, 38, 112
1, 110175, Note_on_c, 9, 35, 104
1, 110399, Note_on_c, 9, 38, 0
1, 110399, Note_on_c, 9, 35, 0
1, 110640, Note_on_c, 9, 35, 104
1, 110879, Note_on_c, 9, 35, 0
1, 110880, Note_on_c, 9, 38, 127
1, 111359, Note_on_c, 9, 38, 0
1, 111360, Note_on_c, 9, 49, 112
1, 111360, Note_on_c, 9, 35, 127
1, 111379, Note_on_c, 9, 49, 0
1, 111839, Note_on_c, 9, 35, 0
1, 111855, Note_on_c, 9, 38, 119
1, 112079, Note_on_c, 9, 38, 0
1, 112095, Note_on_c, 9, 35, 89
1, 112319, Note_on_c, 9, 35, 0
1, 112560, Note_on_c, 9, 35, 119
1, 112799, Note_on_c, 9, 35, 0
1, 112800, Note_on_c, 9, 38, 97
1, 113265, Note_on_c, 9, 35, 119
1, 113279, Note_on_c, 9, 38, 0
1, 113279, Note_on_c, 9, 35, 0
1, 113760, Note_on_c, 9, 38, 127
1, 113980, Note_on_c, 9, 35, 89
1, 113999, Note_on_c, 9, 35, 0
1, 114239, Note_on_c, 9, 38, 0
1, 114460, Note_on_c, 9, 35, 104
1, 114479, Note_on_c, 9, 35, 0
1, 114705, Note_on_c, 9, 38, 104
1, 114719, Note_on_c, 9, 38, 0
1, 115200, Note_on_c, 9, 35, 127
1, 115379, Note_on_c, 9, 35, 0
1, 115420, Note_on_c, 9, 35, 89
1, 115439, Note_on_c, 9, 35, 0
1, 115665, Note_on_c, 9, 38, 97
1, 115679, Note_on_c, 9, 38, 0
1, 115900, Note_on_c, 9, 35, 89
1, 115919, Note_on_c, 9, 35, 0
1, 116140, Note_on_c, 9, 38, 97
1, 116159, Note_on_c, 9, 38, 0
1, 116370, Note_on_c, 9, 35, 89
1, 116399, Note_on_c, 9, 35, 0
1, 116625, Note_on_c, 9, 38, 112
1, 116639, Note_on_c, 9, 38, 0
1, 117100, Note_on_c, 9, 35, 127
1, 117119, Note_on_c, 9, 35, 0
1, 117120, Note_on_c, 9, 38, 89
1, 117209, Note_on_c, 9, 38, 0
1, 117225, Note_on_c, 9, 38, 119
1, 117449, Note_on_c, 9, 38, 0
1, 117465, Note_on_c, 9, 38, 104
1, 117479, Note_on_c, 9, 38, 0
1, 117580, Note_on_c, 9, 38, 89
1, 117599, Note_on_c, 9, 38, 0
1, 117600, Note_on_c, 9, 35, 119
1, 117855, Note_on_c, 9, 45, 89
1, 117899, Note_on_c, 9, 45, 0
1, 117960, Note_on_c, 9, 45, 119
1, 118049, Note_on_c, 9, 45, 0
1, 118065, Note_on_c, 9, 45, 112
1, 118079, Note_on_c, 9, 35, 0
1, 118079, Note_on_c, 9, 45, 0
1, 118080, Note_on_c, 9, 35, 104
1, 118305, Note_on_c, 9, 41, 112
1, 118409, Note_on_c, 9, 41, 0
1, 118425, Note_on_c, 9, 41, 81
1, 118529, Note_on_c, 9, 41, 0
1, 118545, Note_on_c, 9, 41, 119
1, 118559, Note_on_c, 9, 35, 0
1, 118559, Note_on_c, 9, 41, 0
1, 118560, Note_on_c, 9, 35, 104
1, 119009, Note_on_c, 9, 35, 0
1, 119025, Note_on_c, 9, 35, 111
1, 119039, Note_on_c, 9, 35, 0
1, 119055, Note_on_c, 9, 49, 97
1, 119062, Note_on_c, 9, 49, 0
1, 119535, Note_on_c, 9, 38, 119
1, 119759, Note_on_c, 9, 38, 0
1, 119775, Note_on_c, 9, 35, 89
1, 119999, Note_on_c, 9, 35, 0
1, 120240, Note_on_c, 9, 35, 104
1, 120479, Note_on_c, 9, 35, 0
1, 120480, Note_on_c, 9, 38, 127
1, 120945, Note_on_c, 9, 35, 89
1, 120959, Note_on_c, 9, 38, 0
1, 120959, Note_on_c, 9, 35, 0
1, 120980, Note_on_c, 9, 49, 127
1, 120980, Note_on_c, 9, 49, 0
1, 121440, Note_on_c, 9, 38, 97
1, 121665, Note_on_c, 9, 35, 89
1, 121679, Note_on_c, 9, 35, 0
1, 121919, Note_on_c, 9, 38, 0
1, 122145, Note_on_c, 9, 35, 111
1, 122159, Note_on_c, 9, 35, 0
1, 122400, Note_on_c, 9, 38, 97
1, 122865, Note_on_c, 9, 35, 89
1, 122879, Note_on_c, 9, 38, 0
1, 122879, Note_on_c, 9, 35, 0
1, 123345, Note_on_c, 9, 38, 127
1, 123580, Note_on_c, 9, 35, 89
1, 123599, Note_on_c, 9, 35, 0
1, 123839, Note_on_c, 9, 38, 0
1, 124060, Note_on_c, 9, 35, 119
1, 124079, Note_on_c, 9, 35, 0
1, 124305, Note_on_c, 9, 38, 89
1, 124319, Note_on_c, 9, 38, 0
1, 124770, Note_on_c, 9, 35, 89
1, 124799, Note_on_c, 9, 35, 0
1, 125295, Note_on_c, 9, 38, 112
1, 125500, Note_on_c, 9, 35, 89
1, 125519, Note_on_c, 9, 38, 0
1, 125519, Note_on_c, 9, 35, 0
1, 125970, Note_on_c, 9, 35, 89
1, 125999, Note_on_c, 9, 35, 0
1, 126240, Note_on_c, 9, 38, 127
1, 126479, Note_on_c, 9, 38, 0
1, 126495, Note_on_c, 9, 49, 89
1, 126502, Note_on_c, 9, 49, 0
1, 126700, Note_on_c, 9, 35, 96
1, 126719, Note_on_c, 9, 35, 0
1, 126735, Note_on_c, 9, 49, 97
1, 126742, Note_on_c, 9, 49, 0
1, 127215, Note_on_c, 9, 38, 119
1, 127439, Note_on_c, 9, 38, 0
1, 127440, Note_on_c, 9, 35, 104
1, 127679, Note_on_c, 9, 35, 0
1, 127905, Note_on_c, 9, 35, 96
1, 127919, Note_on_c, 9, 35, 0
1, 128175, Note_on_c, 9, 38, 89
1, 128399, Note_on_c, 9, 38, 0
1, 128625, Note_on_c, 9, 35, 104
1, 128639, Note_on_c, 9, 35, 0
1, 129120, Note_on_c, 9, 38, 104
1, 129345, Note_on_c, 9, 35, 104
1, 129359, Note_on_c, 9, 35, 0
1, 129599, Note_on_c, 9, 38, 0
1, 129820, Note_on_c, 9, 35, 81
1, 129839, Note_on_c, 9, 35, 0
1, 130080, Note_on_c, 9, 38, 119
1, 130545, Note_on_c, 9, 35, 104
1, 130559, Note_on_c, 9, 38, 0
1, 130559, Note_on_c, 9, 35, 0
1, 130560, Note_on_c, 9, 41, 112
1, 130575, Note_on_c, 9, 49, 112
1, 130582, Note_on_c, 9, 49, 0
1, 130799, Note_on_c, 9, 41, 0
1, 130800, Note_on_c, 9, 41, 119
1, 130800, Note_on_c, 9, 35, 119
1, 131039, Note_on_c, 9, 41, 0
1, 131039, Note_on_c, 9, 35, 0
1, 131040, Note_on_c, 9, 41, 97
1, 131040, Note_on_c, 9, 35, 104
1, 131264, Note_on_c, 9, 35, 0
1, 131265, Note_on_c, 9, 35, 104
1, 131279, Note_on_c, 9, 41, 0
1, 131280, Note_on_c, 9, 41, 97
1, 131504, Note_on_c, 9, 35, 0
1, 131504, Note_on_c, 9, 41, 0
1, 131505, Note_on_c, 9, 41, 97
1, 131505, Note_on_c, 9, 35, 111
1, 131519, Note_on_c, 9, 41, 0
1, 131519, Note_on_c, 9, 35, 0
1, 131745, Note_on_c, 9, 41, 104
1, 131745, Note_on_c, 9, 35, 104
1, 131984, Note_on_c, 9, 41, 0
1, 131984, Note_on_c, 9, 35, 0
1, 131985, Note_on_c, 9, 41, 127
1, 131985, Note_on_c, 9, 35, 112
1, 131999, Note_on_c, 9, 41, 0
1, 131999, Note_on_c, 9, 35, 0
1, 132225, Note_on_c, 9, 41, 97
1, 132225, Note_on_c, 9, 35, 89
1, 132239, Note_on_c, 9, 35, 0
1, 132464, Note_on_c, 9, 41, 0
1, 132465, Note_on_c, 9, 41, 127
1, 132479, Note_on_c, 9, 41, 0
1, 132480, Note_on_c, 9, 35, 104
1, 132959, Note_on_c, 9, 35, 0
1, 134420, Note_on_c, 9, 49, 104
1, 134420, Note_on_c, 9, 49, 0
1, 134900, Note_on_c, 9, 38, 127
1, 134939, Note_on_c, 9, 38, 0
1, 135255, Note_on_c, 9, 38, 112
1, 135299, Note_on_c, 9, 38, 0
1, 135360, Note_on_c, 9, 38, 97
1, 135599, Note_on_c, 9, 38, 0
1, 135615, Note_on_c, 9, 49, 97
1, 135620, Note_on_c, 9, 35, 97
1, 135622, Note_on_c, 9, 49, 0
1, 135659, Note_on_c, 9, 35, 0
1, 136060, Note_on_c, 9, 49, 89
1, 136060, Note_on_c, 9, 49, 0
1, 136065, Note_on_c, 9, 35, 112
1, 136079, Note_on_c, 9, 35, 0
1, 136335, Note_on_c, 9, 49, 89
1, 136335, Note_on_c, 9, 35, 127
1, 136342, Note_on_c, 9, 49, 0
1, 136559, Note_on_c, 9, 35, 0
1, 136815, Note_on_c, 9, 38, 127
1, 137039, Note_on_c, 9, 38, 0
1, 137295, Note_on_c, 9, 38, 112
1, 137295, Note_on_c, 9, 35, 104
1, 137519, Note_on_c, 9, 38, 0
1, 137519, Note_on_c, 9, 35, 0
1, 137535, Note_on_c, 9, 35, 89
1, 137759, Note_on_c, 9, 35, 0
1, 138255, Note_on_c, 9, 35, 112
1, 138260, Note_on_c, 9, 49, 112
1, 138260, Note_on_c, 9, 49, 0
1, 138479, Note_on_c, 9, 35, 0
1, 138735, Note_on_c, 9, 38, 112
1, 138959, Note_on_c, 9, 38, 0
1, 138960, Note_on_c, 9, 35, 119
1, 139199, Note_on_c, 9, 35, 0
1, 139425, Note_on_c, 9, 35, 127
1, 139439, Note_on_c, 9, 35, 0
1, 139665, Note_on_c, 9, 38, 89
1, 139679, Note_on_c, 9, 38, 0
1, 139785, Note_on_c, 9, 38, 104
1, 139889, Note_on_c, 9, 38, 0
1, 139905, Note_on_c, 9, 38, 112
1, 140009, Note_on_c, 9, 38, 0
1, 140025, Note_on_c, 9, 38, 89
1, 140129, Note_on_c, 9, 38, 0
1, 140145, Note_on_c, 9, 49, 112
1, 140145, Note_on_c, 9, 49, 0
1, 140145, Note_on_c, 9, 35, 127
1, 140159, Note_on_c, 9, 35, 0
1, 140640, Note_on_c, 9, 38, 97
1, 140880, Note_on_c, 9, 35, 119
1, 141119, Note_on_c, 9, 38, 0
1, 141119, Note_on_c, 9, 35, 0
1, 142095, Note_on_c, 9, 49, 112
1, 142102, Note_on_c, 9, 49, 0
1, 142575, Note_on_c, 9, 38, 127
1, 142799, Note_on_c, 9, 38, 0
1, 143055, Note_on_c, 9, 38, 97
1, 143279, Note_on_c, 9, 38, 0
1, 143295, Note_on_c, 9, 49, 119
1, 143295, Note_on_c, 9, 35, 97
1, 143302, Note_on_c, 9, 49, 0
1, 143519, Note_on_c, 9, 35, 0
1, 143720, Note_on_c, 9, 35, 127
1, 143740, Note_on_c, 9, 49, 112
1, 143740, Note_on_c, 9, 49, 0
1, 143759, Note_on_c, 9, 35, 0
1, 143985, Note_on_c, 9, 35, 112
1, 143999, Note_on_c, 9, 35, 0
1, 144000, Note_on_c, 9, 49, 119
1, 144019, Note_on_c, 9, 49, 0
1, 144495, Note_on_c, 9, 38, 119
1, 144539, Note_on_c, 9, 38, 0
1, 144540, Note_on_c, 9, 38, 81
1, 144720, Note_on_c, 9, 35, 127
1, 144944, Note_on_c, 9, 38, 0
1, 144945, Note_on_c, 9, 50, 97
1, 144959, Note_on_c, 9, 35, 0
1, 144959, Note_on_c, 9, 50, 0
1, 144975, Note_on_c, 9, 35, 119
1, 145000, Note_on_c, 9, 50, 119
1, 145019, Note_on_c, 9, 50, 0
1, 145199, Note_on_c, 9, 35, 0
1, 145200, Note_on_c, 9, 35, 119
1, 145420, Note_on_c, 9, 45, 127
1, 145439, Note_on_c, 9, 35, 0
1, 145439, Note_on_c, 9, 45, 0
1, 145440, Note_on_c, 9, 45, 119
1, 145665, Note_on_c, 9, 35, 119
1, 145679, Note_on_c, 9, 35, 0
1, 145919, Note_on_c, 9, 45, 0
1, 145920, Note_on_c, 9, 49, 104
1, 145920, Note_on_c, 9, 35, 127
1, 145939, Note_on_c, 9, 49, 0
1, 146399, Note_on_c, 9, 35, 0
1, 146415, Note_on_c, 9, 38, 127
1, 146639, Note_on_c, 9, 38, 0
1, 146655, Note_on_c, 9, 35, 119
1, 146879, Note_on_c, 9, 35, 0
1, 147120, Note_on_c, 9, 35, 104
1, 147359, Note_on_c, 9, 35, 0
1, 147360, Note_on_c, 9, 38, 119
1, 147479, Note_on_c, 9, 38, 0
1, 147480, Note_on_c, 9, 38, 104
1, 147569, Note_on_c, 9, 38, 0
1, 147585, Note_on_c, 9, 38, 97
1, 147599, Note_on_c, 9, 38, 0
1, 147720, Note_on_c, 9, 38, 104
1, 147809, Note_on_c, 9, 38, 0
1, 147825, Note_on_c, 9, 49, 127
1, 147825, Note_on_c, 9, 49, 0
1, 147840, Note_on_c, 9, 35, 104
1, 148305, Note_on_c, 9, 38, 104
1, 148319, Note_on_c, 9, 35, 0
1, 148319, Note_on_c, 9, 38, 0
1, 148560, Note_on_c, 9, 35, 89
1, 148799, Note_on_c, 9, 35, 0
1, 149040, Note_on_c, 9, 35, 104
1, 149279, Note_on_c, 9, 35, 0
1, 149280, Note_on_c, 9, 38, 112
1, 149505, Note_on_c, 9, 35, 119
1, 149519, Note_on_c, 9, 35, 0
1, 149759, Note_on_c, 9, 38, 0
1, 149760, Note_on_c, 9, 49, 112
1, 149760, Note_on_c, 9, 35, 104
1, 149779, Note_on_c, 9, 49, 0
1, 149984, Note_on_c, 9, 35, 0
1, 149985, Note_on_c, 9, 35, 89
1, 149999, Note_on_c, 9, 35, 0
1, 150240, Note_on_c, 9, 38, 112
1, 150480, Note_on_c, 9, 35, 89
1, 150719, Note_on_c, 9, 38, 0
1, 150719, Note_on_c, 9, 35, 0
1, 150720, Note_on_c, 9, 35, 104
1, 150944, Note_on_c, 9, 35, 0
1, 150945, Note_on_c, 9, 35, 119
1, 150959, Note_on_c, 9, 35, 0
1, 151215, Note_on_c, 9, 38, 89
1, 151440, Note_on_c, 9, 35, 89
1, 151664, Note_on_c, 9, 38, 0
1, 151665, Note_on_c, 9, 49, 89
1, 151665, Note_on_c, 9, 49, 0
1, 151679, Note_on_c, 9, 35, 0
1, 151695, Note_on_c, 9, 35, 89
1, 151919, Note_on_c, 9, 35, 0
1, 152160, Note_on_c, 9, 38, 119
1, 152400, Note_on_c, 9, 35, 104
1, 152639, Note_on_c, 9, 38, 0
1, 152639, Note_on_c, 9, 35, 0
1, 152895, Note_on_c, 9, 35, 119
1, 153105, Note_on_c, 9, 38, 89
1, 153119, Note_on_c, 9, 35, 0
1, 153119, Note_on_c, 9, 38, 0
1, 153600, Note_on_c, 9, 35, 127
1, 153615, Note_on_c, 9, 49, 127
1, 153622, Note_on_c, 9, 49, 0
1, 153839, Note_on_c, 9, 35, 0
1, 153840, Note_on_c, 9, 35, 81
1, 154079, Note_on_c, 9, 35, 0
1, 154080, Note_on_c, 9, 38, 89
1, 154559, Note_on_c, 9, 38, 0
1, 154575, Note_on_c, 9, 35, 89
1, 154799, Note_on_c, 9, 35, 0
1, 155040, Note_on_c, 9, 38, 97
1, 155519, Note_on_c, 9, 38, 0
1, 155520, Note_on_c, 9, 49, 127
1, 155520, Note_on_c, 9, 35, 97
1, 155539, Note_on_c, 9, 49, 0
1, 155999, Note_on_c, 9, 35, 0
1, 156000, Note_on_c, 9, 38, 127
1, 156220, Note_on_c, 9, 35, 104
1, 156239, Note_on_c, 9, 35, 0
1, 156479, Note_on_c, 9, 38, 0
1, 156480, Note_on_c, 9, 38, 112
1, 156680, Note_on_c, 9, 35, 97
1, 156719, Note_on_c, 9, 35, 0
1, 156959, Note_on_c, 9, 38, 0
1, 156960, Note_on_c, 9, 38, 127
1, 156979, Note_on_c, 9, 38, 0
1, 156980, Note_on_c, 9, 38, 112
1, 157019, Note_on_c, 9, 38, 0
1, 157425, Note_on_c, 9, 49, 112
1, 157425, Note_on_c, 9, 49, 0
1, 157440, Note_on_c, 9, 35, 119
1, 157919, Note_on_c, 9, 35, 0
1, 157935, Note_on_c, 9, 38, 127
1, 158159, Note_on_c, 9, 38, 0
1, 158160, Note_on_c, 9, 35, 104
1, 158399, Note_on_c, 9, 35, 0
1, 158640, Note_on_c, 9, 35, 89
1, 158879, Note_on_c, 9, 35, 0
1, 158895, Note_on_c, 9, 38, 112
1, 159119, Note_on_c, 9, 38, 0
1, 159120, Note_on_c, 9, 35, 119
1, 159359, Note_on_c, 9, 35, 0
1, 159360, Note_on_c, 9, 49, 127
1, 159379, Note_on_c, 9, 49, 0
1, 159600, Note_on_c, 9, 35, 112
1, 159839, Note_on_c, 9, 35, 0
1, 159855, Note_on_c, 9, 38, 119
1, 160079, Note_on_c, 9, 38, 0
1, 160080, Note_on_c, 9, 35, 104
1, 160319, Note_on_c, 9, 35, 0
1, 160320, Note_on_c, 9, 35, 97
1, 160799, Note_on_c, 9, 35, 0
1, 160815, Note_on_c, 9, 38, 127
1, 161039, Note_on_c, 9, 38, 0
1, 161280, Note_on_c, 9, 35, 97
1, 161295, Note_on_c, 9, 49, 97
1, 161302, Note_on_c, 9, 49, 0
1, 161519, Note_on_c, 9, 35, 0
1, 161535, Note_on_c, 9, 35, 104
1, 161759, Note_on_c, 9, 35, 0
1, 161775, Note_on_c, 9, 38, 89
1, 161999, Note_on_c, 9, 38, 0
1, 162000, Note_on_c, 9, 35, 96
1, 162239, Note_on_c, 9, 35, 0
1, 162480, Note_on_c, 9, 35, 119
1, 162719, Note_on_c, 9, 35, 0
1, 162735, Note_on_c, 9, 38, 104
1, 162959, Note_on_c, 9, 38, 0
1, 162975, Note_on_c, 9, 35, 89
1, 163199, Note_on_c, 9, 35, 0
1, 163200, Note_on_c, 9, 50, 112
1, 163215, Note_on_c, 9, 35, 111
1, 163439, Note_on_c, 9, 50, 0
1, 163439, Note_on_c, 9, 35, 0
1, 163540, Note_on_c, 9, 50, 127
1, 163559, Note_on_c, 9, 50, 0
1, 163560, Note_on_c, 9, 35, 81
1, 163679, Note_on_c, 9, 35, 0
1, 163875, Note_on_c, 9, 50, 112
1, 163890, Note_on_c, 9, 35, 96
1, 163919, Note_on_c, 9, 50, 0
1, 163919, Note_on_c, 9, 35, 0
1, 164160, Note_on_c, 9, 45, 112
1, 164175, Note_on_c, 9, 35, 112
1, 164399, Note_on_c, 9, 45, 0
1, 164399, Note_on_c, 9, 35, 0
1, 164500, Note_on_c, 9, 45, 127
1, 164519, Note_on_c, 9, 45, 0
1, 164520, Note_on_c, 9, 35, 127
1, 164639, Note_on_c, 9, 35, 0
1, 164835, Note_on_c, 9, 45, 97
1, 164850, Note_on_c, 9, 35, 112
1, 164879, Note_on_c, 9, 45, 0
1, 164879, Note_on_c, 9, 35, 0
1, 164880, Note_on_c, 9, 35, 89
1, 165119, Note_on_c, 9, 35, 0
1, 165120, Note_on_c, 9, 49, 127
1, 165120, Note_on_c, 9, 35, 97
1, 165137, Note_on_c, 9, 49, 0
1, 165585, Note_on_c, 9, 38, 89
1, 165599, Note_on_c, 9, 35, 0
1, 165599, Note_on_c, 9, 38, 0
1, 166080, Note_on_c, 9, 35, 127
1, 166559, Note_on_c, 9, 35, 0
1, 166560, Note_on_c, 9, 38, 97
1, 166785, Note_on_c, 9, 35, 104
1, 166799, Note_on_c, 9, 35, 0
1, 167039, Note_on_c, 9, 38, 0
1, 167040, Note_on_c, 9, 49, 112
1, 167059, Note_on_c, 9, 49, 0
1, 167265, Note_on_c, 9, 35, 104
1, 167279, Note_on_c, 9, 35, 0
1, 167535, Note_on_c, 9, 38, 127
1, 167745, Note_on_c, 9, 35, 104
1, 167759, Note_on_c, 9, 38, 0
1, 167984, Note_on_c, 9, 35, 0
1, 167985, Note_on_c, 9, 35, 97
1, 167999, Note_on_c, 9, 35, 0
1, 168495, Note_on_c, 9, 38, 112
1, 168719, Note_on_c, 9, 38, 0
1, 168945, Note_on_c, 9, 35, 119
1, 168959, Note_on_c, 9, 35, 0
1, 168960, Note_on_c, 9, 49, 112
1, 168977, Note_on_c, 9, 49, 0
1, 169425, Note_on_c, 9, 38, 127
1, 169660, Note_on_c, 9, 35, 127
1, 169679, Note_on_c, 9, 35, 0
1, 169919, Note_on_c, 9, 38, 0
1, 170130, Note_on_c, 9, 35, 89
1, 170159, Note_on_c, 9, 35, 0
1, 170400, Note_on_c, 9, 38, 112
1, 170610, Note_on_c, 9, 35, 104
1, 170819, Note_on_c, 9, 35, 0
1, 170850, Note_on_c, 9, 35, 127
1, 170879, Note_on_c, 9, 38, 0
1, 170879, Note_on_c, 9, 35, 0
1, 170880, Note_on_c, 9, 49, 104
1, 170899, Note_on_c, 9, 49, 0
1, 171375, Note_on_c, 9, 38, 127
1, 171599, Note_on_c, 9, 38, 0
1, 171600, Note_on_c, 9, 35, 119
1, 171839, Note_on_c, 9, 35, 0
1, 172080, Note_on_c, 9, 35, 119
1, 172319, Note_on_c, 9, 35, 0
1, 172335, Note_on_c, 9, 38, 97
1, 172559, Note_on_c, 9, 38, 0
1, 172800, Note_on_c, 9, 35, 104
1, 172830, Note_on_c, 9, 49, 119
1, 172847, Note_on_c, 9, 49, 0
1, 173279, Note_on_c, 9, 35, 0
1, 173280, Note_on_c, 9, 38, 112
1, 173740, Note_on_c, 9, 35, 104
1, 173759, Note_on_c, 9, 38, 0
1, 173759, Note_on_c, 9, 35, 0
1, 174240, Note_on_c, 9, 38, 97
1, 174719, Note_on_c, 9, 38, 0
1, 174720, Note_on_c, 9, 49, 89
1, 174720, Note_on_c, 9, 35, 119
1, 174737, Note_on_c, 9, 49, 0
1, 175185, Note_on_c, 9, 38, 127
1, 175199, Note_on_c, 9, 35, 0
1, 175199, Note_on_c, 9, 38, 0
1, 175425, Note_on_c, 9, 35, 127
1, 175439, Note_on_c, 9, 35, 0
1, 175905, Note_on_c, 9, 35, 89
1, 175919, Note_on_c, 9, 35, 0
1, 176160, Note_on_c, 9, 38, 127
1, 176625, Note_on_c, 9, 35, 104
1, 176639, Note_on_c, 9, 38, 0
1, 176639, Note_on_c, 9, 35, 0
1, 176640, Note_on_c, 9, 49, 89
1, 176649, Note_on_c, 9, 49, 0
1, 176895, Note_on_c, 9, 41, 112
1, 177119, Note_on_c, 9, 41, 0
1, 177135, Note_on_c, 9, 41, 89
1, 177344, Note_on_c, 9, 41, 0
1, 177345, Note_on_c, 9, 41, 127
1, 177345, Note_on_c, 9, 35, 97
1, 177359, Note_on_c, 9, 41, 0
1, 177359, Note_on_c, 9, 35, 0
1, 177600, Note_on_c, 9, 49, 97
1, 177609, Note_on_c, 9, 49, 0
1, 177820, Note_on_c, 9, 35, 104
1, 177839, Note_on_c, 9, 35, 0
1, 177840, Note_on_c, 9, 41, 97
1, 178064, Note_on_c, 9, 41, 0
1, 178065, Note_on_c, 9, 41, 119
1, 178079, Note_on_c, 9, 41, 0
1, 178305, Note_on_c, 9, 41, 127
1, 178319, Note_on_c, 9, 41, 0
1, 178545, Note_on_c, 9, 35, 127
1, 178559, Note_on_c, 9, 35, 0
1, 178575, Note_on_c, 9, 49, 104
1, 178582, Note_on_c, 9, 49, 0
1, 178800, Note_on_c, 9, 41, 127
1, 179024, Note_on_c, 9, 41, 0
1, 179025, Note_on_c, 9, 41, 89
1, 179039, Note_on_c, 9, 41, 0
1, 179265, Note_on_c, 9, 41, 112
1, 179265, Note_on_c, 9, 35, 89
1, 179279, Note_on_c, 9, 41, 0
1, 179279, Note_on_c, 9, 35, 0
1, 179520, Note_on_c, 9, 38, 104
1, 179639, Note_on_c, 9, 38, 0
1, 179640, Note_on_c, 9, 38, 119
1, 179729, Note_on_c, 9, 38, 0
1, 179745, Note_on_c, 9, 38, 89
1, 179759, Note_on_c, 9, 38, 0
1, 179860, Note_on_c, 9, 38, 119
1, 179879, Note_on_c, 9, 38, 0
1, 179985, Note_on_c, 9, 45, 119
1, 179999, Note_on_c, 9, 45, 0
1, 180015, Note_on_c, 9, 35, 104
1, 180090, Note_on_c, 9, 45, 119
1, 180209, Note_on_c, 9, 45, 0
1, 180210, Note_on_c, 9, 45, 127
1, 180239, Note_on_c, 9, 35, 0
1, 180239, Note_on_c, 9, 45, 0
1, 180340, Note_on_c, 9, 45, 97
1, 180359, Note_on_c, 9, 45, 0
1, 180495, Note_on_c, 9, 35, 104
1, 180500, Note_on_c, 9, 49, 119
1, 180500, Note_on_c, 9, 49, 0
1, 180719, Note_on_c, 9, 35, 0
1, 180945, Note_on_c, 9, 38, 112
1, 180959, Note_on_c, 9, 38, 0
1, 181660, Note_on_c, 9, 35, 119
1, 181679, Note_on_c, 9, 35, 0
1, 181920, Note_on_c, 9, 38, 112
1, 182369, Note_on_c, 9, 38, 0
1, 182385, Note_on_c, 9, 49, 127
1, 182385, Note_on_c, 9, 49, 0
1, 182415, Note_on_c, 9, 35, 127
1, 182639, Note_on_c, 9, 35, 0
1, 182895, Note_on_c, 9, 38, 97
1, 183119, Note_on_c, 9, 38, 0
1, 183120, Note_on_c, 9, 35, 119
1, 183359, Note_on_c, 9, 35, 0
1, 183375, Note_on_c, 9, 35, 104
1, 183599, Note_on_c, 9, 35, 0
1, 183855, Note_on_c, 9, 38, 127
1, 184079, Note_on_c, 9, 38, 0
1, 184320, Note_on_c, 9, 49, 127
1, 184339, Note_on_c, 9, 49, 0
1, 184340, Note_on_c, 9, 35, 104
1, 184379, Note_on_c, 9, 35, 0
1, 184815, Note_on_c, 9, 38, 104
1, 185039, Note_on_c, 9, 38, 0
1, 185055, Note_on_c, 9, 35, 119
1, 185279, Note_on_c, 9, 35, 0
1, 185295, Note_on_c, 9, 35, 119
1, 185519, Note_on_c, 9, 35, 0
1, 185535, Note_on_c, 9, 35, 119
1, 185759, Note_on_c, 9, 35, 0
1, 185775, Note_on_c, 9, 38, 119
1, 185999, Note_on_c, 9, 38, 0
1, 186000, Note_on_c, 9, 35, 89
1, 186224, Note_on_c, 9, 35, 0
1, 186225, Note_on_c, 9, 35, 104
1, 186239, Note_on_c, 9, 35, 0
1, 186240, Note_on_c, 9, 49, 127
1, 186259, Note_on_c, 9, 49, 0
1, 186465, Note_on_c, 9, 35, 119
1, 186479, Note_on_c, 9, 35, 0
1, 186720, Note_on_c, 9, 38, 112
1, 186945, Note_on_c, 9, 35, 104
1, 187184, Note_on_c, 9, 35, 0
1, 187185, Note_on_c, 9, 35, 119
1, 187199, Note_on_c, 9, 38, 0
1, 187199, Note_on_c, 9, 35, 0
1, 187440, Note_on_c, 9, 35, 96
1, 187679, Note_on_c, 9, 35, 0
1, 187695, Note_on_c, 9, 38, 97
1, 187919, Note_on_c, 9, 38, 0
1, 188160, Note_on_c, 9, 49, 112
1, 188160, Note_on_c, 9, 35, 112
1, 188179, Note_on_c, 9, 49, 0
1, 188639, Note_on_c, 9, 35, 0
1, 188655, Note_on_c, 9, 38, 112
1, 188865, Note_on_c, 9, 35, 104
1, 188879, Note_on_c, 9, 38, 0
1, 188879, Note_on_c, 9, 35, 0
1, 189120, Note_on_c, 9, 35, 119
1, 189344, Note_on_c, 9, 35, 0
1, 189345, Note_on_c, 9, 35, 119
1, 189359, Note_on_c, 9, 35, 0
1, 189615, Note_on_c, 9, 38, 112
1, 189839, Note_on_c, 9, 38, 0
1, 189840, Note_on_c, 9, 35, 89
1, 190079, Note_on_c, 9, 35, 0
1, 190080, Note_on_c, 9, 35, 89
1, 190095, Note_on_c, 9, 49, 112
1, 190102, Note_on_c, 9, 49, 0
1, 190559, Note_on_c, 9, 35, 0
1, 190575, Note_on_c, 9, 38, 112
1, 190785, Note_on_c, 9, 35, 97
1, 190799, Note_on_c, 9, 38, 0
1, 190799, Note_on_c, 9, 35, 0
1, 191040, Note_on_c, 9, 35, 119
1, 191519, Note_on_c, 9, 35, 0
1, 191520, Note_on_c, 9, 38, 104
1, 191999, Note_on_c, 9, 38, 0
1, 192000, Note_on_c, 9, 49, 119
1, 192000, Note_on_c, 9, 35, 127
1, 192017, Note_on_c, 9, 49, 0
1, 192239, Note_on_c, 9, 35, 0
1, 192255, Note_on_c, 9, 35, 104
1, 192465, Note_on_c, 9, 38, 97
1, 192479, Note_on_c, 9, 35, 0
1, 192479, Note_on_c, 9, 38, 0
1, 192705, Note_on_c, 9, 35, 89
1, 192944, Note_on_c, 9, 35, 0
1, 192945, Note_on_c, 9, 35, 104
1, 192959, Note_on_c, 9, 35, 0
1, 192975, Note_on_c, 9, 49, 89
1, 192982, Note_on_c, 9, 49, 0
1, 193185, Note_on_c, 9, 35, 89
1, 193199, Note_on_c, 9, 35, 0
1, 193455, Note_on_c, 9, 38, 97
1, 193665, Note_on_c, 9, 35, 104
1, 193679, Note_on_c, 9, 38, 0
1, 193904, Note_on_c, 9, 35, 0
1, 193905, Note_on_c, 9, 35, 104
1, 193919, Note_on_c, 9, 35, 0
1, 193935, Note_on_c, 9, 49, 112
1, 193935, Note_on_c, 9, 49, 0
1, 194040, Note_on_c, 9, 38, 104
1, 194129, Note_on_c, 9, 38, 0
1, 194145, Note_on_c, 9, 38, 127
1, 194145, Note_on_c, 9, 35, 96
1, 194159, Note_on_c, 9, 35, 0
1, 194249, Note_on_c, 9, 38, 0
1, 194265, Note_on_c, 9, 38, 104
1, 194279, Note_on_c, 9, 38, 0
1, 194380, Note_on_c, 9, 38, 119
1, 194399, Note_on_c, 9, 38, 0
1, 194490, Note_on_c, 9, 38, 104
1, 194609, Note_on_c, 9, 38, 0
1, 194610, Note_on_c, 9, 38, 104
1, 194620, Note_on_c, 9, 35, 89
1, 194639, Note_on_c, 9, 38, 0
1, 194639, Note_on_c, 9, 35, 0
1, 194720, Note_on_c, 9, 38, 81
1, 194759, Note_on_c, 9, 38, 0
1, 194860, Note_on_c, 9, 35, 119
1, 194865, Note_on_c, 9, 45, 119
1, 194879, Note_on_c, 9, 35, 0
1, 194879, Note_on_c, 9, 45, 0
1, 194985, Note_on_c, 9, 45, 112
1, 194999, Note_on_c, 9, 45, 0
1, 195100, Note_on_c, 9, 45, 127
1, 195100, Note_on_c, 9, 35, 97
1, 195119, Note_on_c, 9, 45, 0
1, 195119, Note_on_c, 9, 35, 0
1, 195210, Note_on_c, 9, 45, 89
1, 195239, Note_on_c, 9, 45, 0
1, 195320, Note_on_c, 9, 45, 112
1, 195359, Note_on_c, 9, 45, 0
1, 195440, Note_on_c, 9, 45, 119
1, 195479, Note_on_c, 9, 45, 0
1, 195560, Note_on_c, 9, 45, 97
1, 195599, Note_on_c, 9, 45, 0
1, 195675, Note_on_c, 9, 45, 89
1, 195719, Note_on_c, 9, 45, 0
1, 195820, Note_on_c, 9, 35, 112
1, 195839, Note_on_c, 9, 35, 0
1, 196320, Note_on_c, 9, 38, 127
1, 196339, Note_on_c, 9, 38, 0
1, 196340, Note_on_c, 9, 49, 104
1, 196340, Note_on_c, 9, 49, 0
1, 196545, Note_on_c, 9, 35, 89
1, 196559, Note_on_c, 9, 35, 0
1, 197025, Note_on_c, 9, 35, 89
1, 197039, Note_on_c, 9, 35, 0
1, 197280, Note_on_c, 9, 38, 127
1, 197294, Note_on_c, 9, 38, 0
1, 197295, Note_on_c, 9, 49, 104
1, 197302, Note_on_c, 9, 49, 0
1, 197745, Note_on_c, 9, 35, 96
1, 197759, Note_on_c, 9, 35, 0
1, 198240, Note_on_c, 9, 38, 112
1, 198254, Note_on_c, 9, 38, 0
1, 198255, Note_on_c, 9, 49, 119
1, 198262, Note_on_c, 9, 49, 0
1, 198495, Note_on_c, 9, 35, 89
1, 198719, Note_on_c, 9, 35, 0
1, 198960, Note_on_c, 9, 35, 89
1, 199199, Note_on_c, 9, 35, 0
1, 199200, Note_on_c, 9, 38, 127
1, 199679, Note_on_c, 9, 38, 0
1, 199680, Note_on_c, 9, 35, 104
1, 199700, Note_on_c, 9, 49, 119
1, 199700, Note_on_c, 9, 49, 0
1, 199904, Note_on_c, 9, 35, 0
1, 199905, Note_on_c, 9, 35, 96
1, 199919, Note_on_c, 9, 35, 0
1, 200145, Note_on_c, 9, 38, 89
1, 200159, Note_on_c, 9, 38, 0
1, 200385, Note_on_c, 9, 35, 96
1, 200399, Note_on_c, 9, 35, 0
1, 200860, Note_on_c, 9, 35, 89
1, 200879, Note_on_c, 9, 35, 0
1, 201120, Note_on_c, 9, 38, 104
1, 201134, Note_on_c, 9, 38, 0
1, 201135, Note_on_c, 9, 49, 127
1, 201142, Note_on_c, 9, 49, 0
1, 201585, Note_on_c, 9, 35, 111
1, 201599, Note_on_c, 9, 35, 0
1, 202095, Note_on_c, 9, 38, 104
1, 202319, Note_on_c, 9, 38, 0
1, 202320, Note_on_c, 9, 35, 89
1, 202559, Note_on_c, 9, 35, 0
1, 202815, Note_on_c, 9, 35, 104
1, 203039, Note_on_c, 9, 35, 0
1, 203040, Note_on_c, 9, 38, 112
1, 203519, Note_on_c, 9, 38, 0
1, 203520, Note_on_c, 9, 35, 96
1, 203535, Note_on_c, 9, 49, 127
1, 203542, Note_on_c, 9, 49, 0
1, 203999, Note_on_c, 9, 35, 0
1, 204015, Note_on_c, 9, 38, 97
1, 204239, Note_on_c, 9, 38, 0
1, 204255, Note_on_c, 9, 35, 119
1, 204479, Note_on_c, 9, 35, 0
1, 204735, Note_on_c, 9, 35, 96
1, 204959, Note_on_c, 9, 35, 0
1, 204975, Note_on_c, 9, 38, 104
1, 204989, Note_on_c, 9, 38, 0
1, 204990, Note_on_c, 9, 49, 89
1, 205007, Note_on_c, 9, 49, 0
1, 205440, Note_on_c, 9, 35, 89
1, 205919, Note_on_c, 9, 35, 0
1, 205935, Note_on_c, 9, 38, 97
1, 206145, Note_on_c, 9, 35, 96
1, 206159, Note_on_c, 9, 38, 0
1, 206159, Note_on_c, 9, 35, 0
1, 206625, Note_on_c, 9, 35, 104
1, 206639, Note_on_c, 9, 35, 0
1, 206880, Note_on_c, 9, 38, 127
1, 207359, Note_on_c, 9, 38, 0
1, 207360, Note_on_c, 9, 35, 89
1, 207380, Note_on_c, 9, 49, 89
1, 207380, Note_on_c, 9, 49, 0
1, 207839, Note_on_c, 9, 35, 0
1, 207840, Note_on_c, 9, 38, 119
1, 207959, Note_on_c, 9, 38, 0
1, 207960, Note_on_c, 9, 38, 119
1, 208079, Note_on_c, 9, 38, 0
1, 208080, Note_on_c, 9, 38, 104
1, 208169, Note_on_c, 9, 38, 0
1, 208185, Note_on_c, 9, 38, 104
1, 208199, Note_on_c, 9, 38, 0
1, 208320, Note_on_c, 9, 35, 127
1, 208559, Note_on_c, 9, 35, 0
1, 208560, Note_on_c, 9, 35, 127
1, 208799, Note_on_c, 9, 35, 0
1, 208800, Note_on_c, 9, 38, 89
1, 208889, Note_on_c, 9, 38, 0
1, 208905, Note_on_c, 9, 38, 104
1, 209009, Note_on_c, 9, 38, 0
1, 209025, Note_on_c, 9, 38, 89
1, 209129, Note_on_c, 9, 38, 0
1, 209130, Note_on_c, 9, 38, 96
1, 209159, Note_on_c, 9, 38, 0
1, 209260, Note_on_c, 9, 35, 119
1, 209279, Note_on_c, 9, 35, 0
1, 209500, Note_on_c, 9, 35, 112
1, 209519, Note_on_c, 9, 35, 0
1, 209775, Note_on_c, 9, 38, 89
1, 209819, Note_on_c, 9, 38, 0
1, 209895, Note_on_c, 9, 38, 119
1, 209939, Note_on_c, 9, 38, 0
1, 210000, Note_on_c, 9, 38, 89
1, 210119, Note_on_c, 9, 38, 0
1, 210135, Note_on_c, 9, 38, 119
1, 210179, Note_on_c, 9, 38, 0
1, 210220, Note_on_c, 9, 35, 104
1, 210239, Note_on_c, 9, 35, 0
1, 210255, Note_on_c, 9, 38, 119
1, 210299, Note_on_c, 9, 38, 0
1, 210320, Note_on_c, 9, 38, 96
1, 210359, Note_on_c, 9, 38, 0
1, 210375, Note_on_c, 9, 38, 81
1, 210419, Note_on_c, 9, 38, 0
1, 210435, Note_on_c, 9, 38, 81
1, 210460, Note_on_c, 9, 35, 104
1, 210479, Note_on_c, 9, 38, 0
1, 210479, Note_on_c, 9, 35, 0
1, 210495, Note_on_c, 9, 38, 104
1, 210539, Note_on_c, 9, 38, 0
1, 210540, Note_on_c, 9, 38, 119
1, 210599, Note_on_c, 9, 38, 0
1, 210600, Note_on_c, 9, 38, 89
1, 210659, Note_on_c, 9, 38, 0
1, 210660, Note_on_c, 9, 38, 89
1, 210704, Note_on_c, 9, 38, 0
1, 210705, Note_on_c, 9, 38, 119
1, 210719, Note_on_c, 9, 38, 0
1, 210760, Note_on_c, 9, 38, 111
1, 210779, Note_on_c, 9, 38, 0
1, 210820, Note_on_c, 9, 38, 89
1, 210839, Note_on_c, 9, 38, 0
1, 210860, Note_on_c, 9, 38, 81
1, 210899, Note_on_c, 9, 38, 0
1, 210930, Note_on_c, 9, 38, 96
1, 210959, Note_on_c, 9, 38, 0
1, 210975, Note_on_c, 9, 38, 111
1, 211019, Note_on_c, 9, 38, 0
1, 211050, Note_on_c, 9, 38, 112
1, 211079, Note_on_c, 9, 38, 0
1, 211155, Note_on_c, 9, 38, 89
1, 211170, Note_on_c, 9, 35, 127
1, 211184, Note_on_c, 9, 38, 0
1, 211185, Note_on_c, 9, 49, 97
1, 211185, Note_on_c, 9, 49, 0
1, 211199, Note_on_c, 9, 35, 0
1, 211680, Note_on_c, 9, 38, 127
1, 211935, Note_on_c, 9, 35, 119
1, 212159, Note_on_c, 9, 38, 0
1, 212159, Note_on_c, 9, 35, 0
1, 212415, Note_on_c, 9, 35, 119
1, 212625, Note_on_c, 9, 38, 96
1, 212639, Note_on_c, 9, 35, 0
1, 212640, Note_on_c, 9, 49, 127
1, 212659, Note_on_c, 9, 49, 0
1, 213119, Note_on_c, 9, 38, 0
1, 213120, Note_on_c, 9, 35, 112
1, 213599, Note_on_c, 9, 35, 0
1, 213600, Note_on_c, 9, 38, 89
1, 213840, Note_on_c, 9, 35, 104
1, 214079, Note_on_c, 9, 38, 0
1, 214079, Note_on_c, 9, 35, 0
1, 214305, Note_on_c, 9, 35, 89
1, 214319, Note_on_c, 9, 35, 0
1, 214545, Note_on_c, 9, 38, 97
1, 214559, Note_on_c, 9, 38, 0
1, 215025, Note_on_c, 9, 35, 119
1, 215039, Note_on_c, 9, 35, 0
1, 215040, Note_on_c, 9, 49, 119
1, 215059, Note_on_c, 9, 49, 0
1, 215520, Note_on_c, 9, 38, 89
1, 215760, Note_on_c, 9, 35, 119
1, 215999, Note_on_c, 9, 38, 0
1, 215999, Note_on_c, 9, 35, 0
1, 216240, Note_on_c, 9, 35, 96
1, 216479, Note_on_c, 9, 35, 0
1, 216480, Note_on_c, 9, 49, 104
1, 216480, Note_on_c, 9, 49, 0
1, 216495, Note_on_c, 9, 38, 96
1, 216719, Note_on_c, 9, 38, 0
1, 216945, Note_on_c, 9, 35, 81
1, 216959, Note_on_c, 9, 35, 0
1, 217440, Note_on_c, 9, 38, 127
1, 217680, Note_on_c, 9, 35, 119
1, 217919, Note_on_c, 9, 38, 0
1, 217919, Note_on_c, 9, 35, 0
1, 218160, Note_on_c, 9, 35, 111
1, 218399, Note_on_c, 9, 35, 0
1, 218415, Note_on_c, 9, 38, 97
1, 218639, Note_on_c, 9, 38, 0
1, 218865, Note_on_c, 9, 35, 97
1, 218879, Note_on_c, 9, 35, 0
1, 218895, Note_on_c, 9, 49, 112
1, 218902, Note_on_c, 9, 49, 0
1, 219360, Note_on_c, 9, 38, 97
1, 219600, Note_on_c, 9, 35, 104
1, 219839, Note_on_c, 9, 38, 0
1, 219839, Note_on_c, 9, 35, 0
1, 220065, Note_on_c, 9, 35, 111
1, 220079, Note_on_c, 9, 35, 0
1, 220305, Note_on_c, 9, 38, 112
1, 220319, Note_on_c, 9, 38, 0
1, 220320, Note_on_c, 9, 49, 97
1, 220339, Note_on_c, 9, 49, 0
1, 220785, Note_on_c, 9, 35, 97
1, 220799, Note_on_c, 9, 35, 0
1, 221280, Note_on_c, 9, 38, 97
1, 221505, Note_on_c, 9, 35, 97
1, 221519, Note_on_c, 9, 35, 0
1, 221759, Note_on_c, 9, 38, 0
1, 221985, Note_on_c, 9, 35, 89
1, 221999, Note_on_c, 9, 35, 0
1, 222240, Note_on_c, 9, 38, 104
1, 222705, Note_on_c, 9, 35, 97
1, 222719, Note_on_c, 9, 38, 0
1, 222719, Note_on_c, 9, 35, 0
1, 222735, Note_on_c, 9, 49, 119
1, 222742, Note_on_c, 9, 49, 0
1, 222975, Note_on_c, 9, 38, 112
1, 223019, Note_on_c, 9, 38, 0
1, 223095, Note_on_c, 9, 38, 104
1, 223139, Note_on_c, 9, 38, 0
1, 223200, Note_on_c, 9, 38, 119
1, 223425, Note_on_c, 9, 35, 104
1, 223439, Note_on_c, 9, 38, 0
1, 223439, Note_on_c, 9, 35, 0
1, 223455, Note_on_c, 9, 49, 97
1, 223462, Note_on_c, 9, 49, 0
1, 223935, Note_on_c, 9, 38, 104
1, 223979, Note_on_c, 9, 38, 0
1, 224055, Note_on_c, 9, 38, 89
1, 224099, Note_on_c, 9, 38, 0
1, 224175, Note_on_c, 9, 49, 112
1, 224175, Note_on_c, 9, 49, 0
1, 224280, Note_on_c, 9, 38, 104
1, 224399, Note_on_c, 9, 38, 0
1, 224400, Note_on_c, 9, 38, 112
1, 224625, Note_on_c, 9, 35, 89
1, 224639, Note_on_c, 9, 38, 0
1, 224639, Note_on_c, 9, 35, 0
1, 224655, Note_on_c, 9, 49, 112
1, 224662, Note_on_c, 9, 49, 0
1, 224895, Note_on_c, 9, 38, 127
1, 225119, Note_on_c, 9, 38, 0
1, 225120, Note_on_c, 9, 38, 104
1, 225359, Note_on_c, 9, 38, 0
1, 225360, Note_on_c, 9, 38, 119
1, 225360, Note_on_c, 9, 35, 96
1, 225479, Note_on_c, 9, 38, 0
1, 225495, Note_on_c, 9, 38, 127
1, 225539, Note_on_c, 9, 38, 0
1, 225599, Note_on_c, 9, 35, 0
1, 225615, Note_on_c, 9, 38, 119
1, 225824, Note_on_c, 9, 38, 0
1, 225825, Note_on_c, 9, 38, 104
1, 225825, Note_on_c, 9, 35, 104
1, 225839, Note_on_c, 9, 38, 0
1, 225839, Note_on_c, 9, 35, 0
1, 225960, Note_on_c, 9, 38, 127
1, 226049, Note_on_c, 9, 38, 0
1, 226065, Note_on_c, 9, 38, 89
1, 226079, Note_on_c, 9, 38, 0
1, 226305, Note_on_c, 9, 38, 127
1, 226319, Note_on_c, 9, 38, 0
1, 226545, Note_on_c, 9, 35, 119
1, 226559, Note_on_c, 9, 35, 0
1, 226560, Note_on_c, 9, 49, 112
1, 226579, Note_on_c, 9, 49, 0
1, 227040, Note_on_c, 9, 38, 89
1, 227265, Note_on_c, 9, 35, 119
1, 227279, Note_on_c, 9, 35, 0
1, 227519, Note_on_c, 9, 38, 0
1, 227745, Note_on_c, 9, 35, 119
1, 227759, Note_on_c, 9, 35, 0
1, 227985, Note_on_c, 9, 38, 127
1, 227999, Note_on_c, 9, 38, 0
1, 228225, Note_on_c, 9, 35, 119
1, 228464, Note_on_c, 9, 35, 0
1, 228465, Note_on_c, 9, 35, 81
1, 228479, Note_on_c, 9, 35, 0
1, 228480, Note_on_c, 9, 49, 127
1, 228499, Note_on_c, 9, 49, 0
1, 228975, Note_on_c, 9, 38, 127
1, 229199, Note_on_c, 9, 38, 0
1, 229200, Note_on_c, 9, 35, 119
1, 229439, Note_on_c, 9, 35, 0
1, 229680, Note_on_c, 9, 35, 104
1, 229919, Note_on_c, 9, 35, 0
1, 229935, Note_on_c, 9, 38, 111
1, 230159, Note_on_c, 9, 38, 0
1, 230160, Note_on_c, 9, 35, 127
1, 230399, Note_on_c, 9, 35, 0
1, 230400, Note_on_c, 9, 35, 127
1, 230415, Note_on_c, 9, 49, 97
1, 230422, Note_on_c, 9, 49, 0
1, 230879, Note_on_c, 9, 35, 0
1, 230895, Note_on_c, 9, 38, 81
1, 231119, Note_on_c, 9, 38, 0
1, 231120, Note_on_c, 9, 35, 89
1, 231359, Note_on_c, 9, 35, 0
1, 231600, Note_on_c, 9, 35, 81
1, 231825, Note_on_c, 9, 38, 89
1, 231839, Note_on_c, 9, 35, 0
1, 231839, Note_on_c, 9, 38, 0
1, 232065, Note_on_c, 9, 35, 96
1, 232304, Note_on_c, 9, 35, 0
1, 232305, Note_on_c, 9, 35, 89
1, 232319, Note_on_c, 9, 35, 0
1, 232320, Note_on_c, 9, 49, 89
1, 232339, Note_on_c, 9, 49, 0
1, 232800, Note_on_c, 9, 38, 97
1, 233025, Note_on_c, 9, 35, 96
1, 233039, Note_on_c, 9, 35, 0
1, 233279, Note_on_c, 9, 38, 0
1, 233505, Note_on_c, 9, 35, 89
1, 233519, Note_on_c, 9, 35, 0
1, 233745, Note_on_c, 9, 38, 104
1, 233759, Note_on_c, 9, 38, 0
1, 234225, Note_on_c, 9, 35, 119
1, 234239, Note_on_c, 9, 35, 0
1, 234240, Note_on_c, 9, 49, 97
1, 234259, Note_on_c, 9, 49, 0
1, 234720, Note_on_c, 9, 38, 119
1, 234960, Note_on_c, 9, 35, 89
1, 235199, Note_on_c, 9, 38, 0
1, 235199, Note_on_c, 9, 35, 0
1, 235420, Note_on_c, 9, 35, 104
1, 235439, Note_on_c, 9, 35, 0
1, 235680, Note_on_c, 9, 38, 97
1, 236145, Note_on_c, 9, 35, 89
1, 236159, Note_on_c, 9, 38, 0
1, 236159, Note_on_c, 9, 35, 0
1, 236175, Note_on_c, 9, 49, 89
1, 236182, Note_on_c, 9, 49, 0
1, 236655, Note_on_c, 9, 38, 89
1, 236865, Note_on_c, 9, 35, 89
1, 236879, Note_on_c, 9, 38, 0
1, 236879, Note_on_c, 9, 35, 0
1, 237340, Note_on_c, 9, 35, 81
1, 237359, Note_on_c, 9, 35, 0
1, 237600, Note_on_c, 9, 38, 97
1, 238065, Note_on_c, 9, 35, 89
1, 238079, Note_on_c, 9, 38, 0
1, 238079, Note_on_c, 9, 35, 0
1, 238080, Note_on_c, 9, 49, 112
1, 238089, Note_on_c, 9, 49, 0
1, 238335, Note_on_c, 9, 38, 127
1, 238379, Note_on_c, 9, 38, 0
1, 238460, Note_on_c, 9, 38, 119
1, 238499, Note_on_c, 9, 38, 0
1, 238575, Note_on_c, 9, 38, 119
1, 238785, Note_on_c, 9, 35, 119
1, 238799, Note_on_c, 9, 38, 0
1, 238800, Note_on_c, 9, 49, 89
1, 238809, Note_on_c, 9, 49, 0
1, 239024, Note_on_c, 9, 35, 0
1, 239025, Note_on_c, 9, 35, 119
1, 239039, Note_on_c, 9, 35, 0
1, 239300, Note_on_c, 9, 38, 104
1, 239339, Note_on_c, 9, 38, 0
1, 239420, Note_on_c, 9, 38, 89
1, 239459, Note_on_c, 9, 38, 0
1, 239520, Note_on_c, 9, 49, 119
1, 239524, Note_on_c, 9, 49, 0
1, 239640, Note_on_c, 9, 38, 119
1, 239745, Note_on_c, 9, 35, 119
1, 239759, Note_on_c, 9, 38, 0
1, 239760, Note_on_c, 9, 38, 127
1, 239984, Note_on_c, 9, 35, 0
1, 239984, Note_on_c, 9, 38, 0
1, 239985, Note_on_c, 9, 49, 89
1, 239985, Note_on_c, 9, 49, 0
1, 239985, Note_on_c, 9, 35, 81
1, 239999, Note_on_c, 9, 35, 0
1, 240240, Note_on_c, 9, 38, 127
1, 240479, Note_on_c, 9, 38, 0
1, 240480, Note_on_c, 9, 38, 89
1, 240705, Note_on_c, 9, 35, 104
1, 240719, Note_on_c, 9, 38, 0
1, 240719, Note_on_c, 9, 35, 0
1, 240720, Note_on_c, 9, 38, 104
1, 240839, Note_on_c, 9, 38, 0
1, 240840, Note_on_c, 9, 38, 97
1, 240959, Note_on_c, 9, 38, 0
1, 240960, Note_on_c, 9, 38, 89
1, 241184, Note_on_c, 9, 38, 0
1, 241185, Note_on_c, 9, 38, 89
1, 241185, Note_on_c, 9, 35, 104
1, 241199, Note_on_c, 9, 38, 0
1, 241199, Note_on_c, 9, 35, 0
1, 241320, Note_on_c, 9, 38, 112
1, 241379, Note_on_c, 9, 38, 0
1, 241420, Note_on_c, 9, 38, 119
1, 241439, Note_on_c, 9, 38, 0
1, 241660, Note_on_c, 9, 38, 112
1, 241679, Note_on_c, 9, 38, 0
1, 241920, Note_on_c, 9, 35, 119
1, 241935, Note_on_c, 9, 49, 112
1, 241942, Note_on_c, 9, 49, 0
1, 242399, Note_on_c, 9, 35, 0
1, 242400, Note_on_c, 9, 38, 89
1, 242655, Note_on_c, 9, 35, 104
1, 242879, Note_on_c, 9, 38, 0
1, 242879, Note_on_c, 9, 35, 0
1, 243120, Note_on_c, 9, 35, 104
1, 243359, Note_on_c, 9, 35, 0
1, 243375, Note_on_c, 9, 38, 81
1, 243824, Note_on_c, 9, 38, 0
1, 243825, Note_on_c, 9, 49, 97
1, 243825, Note_on_c, 9, 49, 0
1, 243825, Note_on_c, 9, 35, 119
1, 243839, Note_on_c, 9, 35, 0
1, 244335, Note_on_c, 9, 38, 127
1, 244545, Note_on_c, 9, 35, 81
1, 244559, Note_on_c, 9, 38, 0
1, 244559, Note_on_c, 9, 35, 0
1, 245025, Note_on_c, 9, 35, 104
1, 245039, Note_on_c, 9, 35, 0
1, 245265, Note_on_c, 9, 38, 97
1, 245279, Note_on_c, 9, 38, 0
1, 245520, Note_on_c, 9, 35, 81
1, 245744, Note_on_c, 9, 35, 0
1, 245745, Note_on_c, 9, 35, 119
1, 245759, Note_on_c, 9, 35, 0
1, 245760, Note_on_c, 9, 49, 127
1, 245779, Note_on_c, 9, 49, 0
1, 246255, Note_on_c, 9, 38, 96
1, 246479, Note_on_c, 9, 38, 0
1, 246720, Note_on_c, 9, 35, 119
1, 247199, Note_on_c, 9, 35, 0
1, 247215, Note_on_c, 9, 38, 112
1, 247439, Note_on_c, 9, 38, 0
1, 247695, Note_on_c, 9, 49, 127
1, 247695, Note_on_c, 9, 35, 119
1, 247702, Note_on_c, 9, 49, 0
1, 247919, Note_on_c, 9, 35, 0
1, 247935, Note_on_c, 9, 35, 81
1, 248159, Note_on_c, 9, 35, 0
1, 248180, Note_on_c, 9, 38, 81
1, 248219, Note_on_c, 9, 38, 0
1, 248415, Note_on_c, 9, 35, 104
1, 248639, Note_on_c, 9, 35, 0
1, 248880, Note_on_c, 9, 35, 104
1, 249119, Note_on_c, 9, 35, 0
1, 249135, Note_on_c, 9, 38, 81
1, 249359, Note_on_c, 9, 38, 0
1, 249600, Note_on_c, 9, 49, 89
1, 249600, Note_on_c, 9, 35, 127
1, 249619, Note_on_c, 9, 49, 0
1, 250079, Note_on_c, 9, 35, 0
1, 250095, Note_on_c, 9, 38, 89
1, 250319, Note_on_c, 9, 38, 0
1, 250320, Note_on_c, 9, 35, 119
1, 250559, Note_on_c, 9, 35, 0
1, 250800, Note_on_c, 9, 35, 89
1, 251039, Note_on_c, 9, 35, 0
1, 251055, Note_on_c, 9, 38, 111
1, 251279, Note_on_c, 9, 38, 0
1, 251280, End_track
0, 0, End_of_file
