0, 0, Header, 1, 1, 480
1, 0, Start_track
1, 0, Title_t, "Drumset"
1, 0, Time_signature, 4, 2, 24, 8
1, 0, Key_signature, 0, "major"
1, 0, Tempo, 983607
1, 0, Control_c, 9, 121, 0
1, 0, Program_c, 9, 0
1, 0, Control_c, 9, 7, 100
1, 0, Control_c, 9, 10, 64
1, 0, Control_c, 9, 91, 0
1, 0, Control_c, 9, 93, 0
1, 0, MIDI_port, 0
1, 1920, Tempo, 800000
1, 27840, Note_on_c, 9, 38, 115
1, 28080, Note_on_c, 9, 36, 115
1, 28319, Note_on_c, 9, 38, 0
1, 28319, Note_on_c, 9, 36, 0
1, 28320, Note_on_c, 9, 36, 115
1, 28439, Note_on_c, 9, 36, 0
1, 28440, Note_on_c, 9, 36, 115
1, 28559, Note_on_c, 9, 36, 0
1, 28560, Note_on_c, 9, 36, 115
1, 28799, Note_on_c, 9, 36, 0
1, 28800, Note_on_c, 9, 59, 115
1, 28813, Note_on_c, 9, 59, 0
1, 29280, Note_on_c, 9, 59, 115
1, 29293, Note_on_c, 9, 59, 0
1, 29760, Note_on_c, 9, 59, 115
1, 29773, Note_on_c, 9, 59, 0
1, 30240, Note_on_c, 9, 59, 115
1, 30253, Note_on_c, 9, 59, 0
1, 30720, Note_on_c, 9, 59, 115
1, 30733, Note_on_c, 9, 59, 0
1, 31200, Note_on_c, 9, 59, 115
1, 31213, Note_on_c, 9, 59, 0
1, 31680, Note_on_c, 9, 59, 115
1, 31693, Note_on_c, 9, 59, 0
1, 32160, Note_on_c, 9, 59, 115
1, 32173, Note_on_c, 9, 59, 0
1, 32640, Note_on_c, 9, 59, 115
1, 32653, Note_on_c, 9, 59, 0
1, 33120, Note_on_c, 9, 59, 115
1, 33133, Note_on_c, 9, 59, 0
1, 33600, Note_on_c, 9, 59, 115
1, 33613, Note_on_c, 9, 59, 0
1, 34080, Note_on_c, 9, 59, 115
1, 34093, Note_on_c, 9, 59, 0
1, 34560, Note_on_c, 9, 59, 115
1, 34573, Note_on_c, 9, 59, 0
1, 35040, Note_on_c, 9, 59, 115
1, 35053, Note_on_c, 9, 59, 0
1, 35520, Note_on_c, 9, 38, 115
1, 35520, Note_on_c, 9, 59, 115
1, 35533, Note_on_c, 9, 59, 0
1, 35760, Note_on_c, 9, 36, 115
1, 35999, Note_on_c, 9, 38, 0
1, 35999, Note_on_c, 9, 36, 0
1, 36000, Note_on_c, 9, 59, 115
1, 36000, Note_on_c, 9, 36, 115
1, 36013, Note_on_c, 9, 59, 0
1, 36119, Note_on_c, 9, 36, 0
1, 36120, Note_on_c, 9, 36, 115
1, 36239, Note_on_c, 9, 36, 0
1, 36240, Note_on_c, 9, 36, 115
1, 36479, Note_on_c, 9, 36, 0
1, 36480, Note_on_c, 9, 59, 115
1, 36493, Note_on_c, 9, 59, 0
1, 36960, Note_on_c, 9, 59, 115
1, 36973, Note_on_c, 9, 59, 0
1, 37440, Note_on_c, 9, 59, 115
1, 37453, Note_on_c, 9, 59, 0
1, 37920, Note_on_c, 9, 59, 115
1, 37933, Note_on_c, 9, 59, 0
1, 38400, Note_on_c, 9, 59, 115
1, 38413, Note_on_c, 9, 59, 0
1, 38880, Note_on_c, 9, 59, 115
1, 38893, Note_on_c, 9, 59, 0
1, 39360, Note_on_c, 9, 59, 115
1, 39373, Note_on_c, 9, 59, 0
1, 39840, Note_on_c, 9, 59, 115
1, 39853, Note_on_c, 9, 59, 0
1, 40320, Note_on_c, 9, 59, 115
1, 40333, Note_on_c, 9, 59, 0
1, 40800, Note_on_c, 9, 59, 115
1, 40813, Note_on_c, 9, 59, 0
1, 41280, Note_on_c, 9, 59, 115
1, 41293, Note_on_c, 9, 59, 0
1, 41760, Note_on_c, 9, 59, 115
1, 41773, Note_on_c, 9, 59, 0
1, 42240, Note_on_c, 9, 59, 115
1, 42253, Note_on_c, 9, 59, 0
1, 42720, Note_on_c, 9, 59, 115
1, 42733, Note_on_c, 9, 59, 0
1, 43200, Note_on_c, 9, 38, 115
1, 43200, Note_on_c, 9, 59, 115
1, 43213, Note_on_c, 9, 59, 0
1, 43440, Note_on_c, 9, 36, 115
1, 43679, Note_on_c, 9, 38, 0
1, 43679, Note_on_c, 9, 36, 0
1, 43680, Note_on_c, 9, 59, 115
1, 43680, Note_on_c, 9, 36, 115
1, 43693, Note_on_c, 9, 59, 0
1, 43799, Note_on_c, 9, 36, 0
1, 43800, Note_on_c, 9, 36, 115
1, 43919, Note_on_c, 9, 36, 0
1, 43920, Note_on_c, 9, 36, 115
1, 44159, Note_on_c, 9, 36, 0
1, 44160, Note_on_c, 9, 59, 115
1, 44173, Note_on_c, 9, 59, 0
1, 44640, Note_on_c, 9, 59, 115
1, 44653, Note_on_c, 9, 59, 0
1, 45120, Note_on_c, 9, 59, 115
1, 45133, Note_on_c, 9, 59, 0
1, 45600, Note_on_c, 9, 59, 115
1, 45613, Note_on_c, 9, 59, 0
1, 46080, Note_on_c, 9, 59, 115
1, 46093, Note_on_c, 9, 59, 0
1, 46560, Note_on_c, 9, 59, 115
1, 46573, Note_on_c, 9, 59, 0
1, 47040, Note_on_c, 9, 59, 115
1, 47053, Note_on_c, 9, 59, 0
1, 47520, Note_on_c, 9, 59, 115
1, 47533, Note_on_c, 9, 59, 0
1, 48000, Note_on_c, 9, 59, 115
1, 48000, Note_on_c, 9, 36, 115
1, 48013, Note_on_c, 9, 59, 0
1, 48479, Note_on_c, 9, 36, 0
1, 48480, Note_on_c, 9, 59, 115
1, 48493, Note_on_c, 9, 59, 0
1, 48960, Note_on_c, 9, 59, 115
1, 48973, Note_on_c, 9, 59, 0
1, 49440, Note_on_c, 9, 59, 115
1, 49453, Note_on_c, 9, 59, 0
1, 49680, Note_on_c, 9, 36, 115
1, 49919, Note_on_c, 9, 36, 0
1, 49920, Note_on_c, 9, 59, 115
1, 49920, Note_on_c, 9, 36, 115
1, 49933, Note_on_c, 9, 59, 0
1, 50399, Note_on_c, 9, 36, 0
1, 50400, Note_on_c, 9, 59, 115
1, 50413, Note_on_c, 9, 59, 0
1, 50880, Note_on_c, 9, 38, 115
1, 50880, Note_on_c, 9, 59, 115
1, 50893, Note_on_c, 9, 59, 0
1, 51240, Note_on_c, 9, 36, 115
1, 51359, Note_on_c, 9, 38, 0
1, 51359, Note_on_c, 9, 36, 0
1, 51360, Note_on_c, 9, 59, 115
1, 51360, Note_on_c, 9, 36, 115
1, 51373, Note_on_c, 9, 59, 0
1, 51599, Note_on_c, 9, 36, 0
1, 51600, Note_on_c, 9, 36, 115
1, 51839, Note_on_c, 9, 36, 0
1, 51840, Note_on_c, 9, 59, 115
1, 51840, Note_on_c, 9, 36, 115
1, 51853, Note_on_c, 9, 59, 0
1, 52319, Note_on_c, 9, 36, 0
1, 52320, Note_on_c, 9, 59, 115
1, 52333, Note_on_c, 9, 59, 0
1, 52800, Note_on_c, 9, 59, 115
1, 52813, Note_on_c, 9, 59, 0
1, 53280, Note_on_c, 9, 59, 115
1, 53293, Note_on_c, 9, 59, 0
1, 53760, Note_on_c, 9, 59, 115
1, 53773, Note_on_c, 9, 59, 0
1, 54240, Note_on_c, 9, 59, 115
1, 54253, Note_on_c, 9, 59, 0
1, 54720, Note_on_c, 9, 59, 115
1, 54733, Note_on_c, 9, 59, 0
1, 55200, Note_on_c, 9, 59, 115
1, 55213, Note_on_c, 9, 59, 0
1, 55680, Note_on_c, 9, 59, 115
1, 55680, Note_on_c, 9, 36, 115
1, 55693, Note_on_c, 9, 59, 0
1, 56159, Note_on_c, 9, 36, 0
1, 56160, Note_on_c, 9, 59, 115
1, 56173, Note_on_c, 9, 59, 0
1, 56640, Note_on_c, 9, 59, 115
1, 56653, Note_on_c, 9, 59, 0
1, 57120, Note_on_c, 9, 59, 115
1, 57133, Note_on_c, 9, 59, 0
1, 57360, Note_on_c, 9, 36, 115
1, 57599, Note_on_c, 9, 36, 0
1, 57600, Note_on_c, 9, 59, 115
1, 57600, Note_on_c, 9, 36, 115
1, 57613, Note_on_c, 9, 59, 0
1, 58079, Note_on_c, 9, 36, 0
1, 58080, Note_on_c, 9, 59, 115
1, 58093, Note_on_c, 9, 59, 0
1, 58560, Note_on_c, 9, 38, 115
1, 58560, Note_on_c, 9, 59, 115
1, 58573, Note_on_c, 9, 59, 0
1, 58800, Note_on_c, 9, 36, 115
1, 59039, Note_on_c, 9, 38, 0
1, 59039, Note_on_c, 9, 36, 0
1, 59040, Note_on_c, 9, 59, 115
1, 59040, Note_on_c, 9, 36, 115
1, 59053, Note_on_c, 9, 59, 0
1, 59159, Note_on_c, 9, 36, 0
1, 59160, Note_on_c, 9, 36, 115
1, 59279, Note_on_c, 9, 36, 0
1, 59280, Note_on_c, 9, 36, 115
1, 59519, Note_on_c, 9, 36, 0
1, 59520, Note_on_c, 9, 59, 115
1, 59520, Note_on_c, 9, 36, 115
1, 59533, Note_on_c, 9, 59, 0
1, 59999, Note_on_c, 9, 36, 0
1, 60000, Note_on_c, 9, 38, 115
1, 60000, Note_on_c, 9, 59, 115
1, 60013, Note_on_c, 9, 59, 0
1, 60479, Note_on_c, 9, 38, 0
1, 60480, Note_on_c, 9, 59, 115
1, 60480, Note_on_c, 9, 36, 115
1, 60493, Note_on_c, 9, 59, 0
1, 60719, Note_on_c, 9, 36, 0
1, 60720, Note_on_c, 9, 36, 115
1, 60959, Note_on_c, 9, 36, 0
1, 60960, Note_on_c, 9, 38, 115
1, 60960, Note_on_c, 9, 59, 115
1, 60973, Note_on_c, 9, 59, 0
1, 61200, Note_on_c, 9, 36, 115
1, 61439, Note_on_c, 9, 38, 0
1, 61439, Note_on_c, 9, 36, 0
1, 61440, Note_on_c, 9, 59, 115
1, 61440, Note_on_c, 9, 36, 115
1, 61453, Note_on_c, 9, 59, 0
1, 61919, Note_on_c, 9, 36, 0
1, 61920, Note_on_c, 9, 38, 115
1, 61920, Note_on_c, 9, 59, 115
1, 61933, Note_on_c, 9, 59, 0
1, 62399, Note_on_c, 9, 38, 0
1, 62400, Note_on_c, 9, 59, 115
1, 62400, Note_on_c, 9, 36, 115
1, 62413, Note_on_c, 9, 59, 0
1, 62639, Note_on_c, 9, 36, 0
1, 62640, Note_on_c, 9, 36, 115
1, 62879, Note_on_c, 9, 36, 0
1, 62880, Note_on_c, 9, 38, 115
1, 62880, Note_on_c, 9, 59, 115
1, 62893, Note_on_c, 9, 59, 0
1, 63120, Note_on_c, 9, 36, 115
1, 63359, Note_on_c, 9, 38, 0
1, 63359, Note_on_c, 9, 36, 0
1, 63360, Note_on_c, 9, 59, 115
1, 63360, Note_on_c, 9, 36, 115
1, 63373, Note_on_c, 9, 59, 0
1, 63839, Note_on_c, 9, 36, 0
1, 63840, Note_on_c, 9, 38, 115
1, 63840, Note_on_c, 9, 59, 115
1, 63853, Note_on_c, 9, 59, 0
1, 64319, Note_on_c, 9, 38, 0
1, 64320, Note_on_c, 9, 59, 115
1, 64320, Note_on_c, 9, 36, 115
1, 64333, Note_on_c, 9, 59, 0
1, 64559, Note_on_c, 9, 36, 0
1, 64560, Note_on_c, 9, 36, 115
1, 64799, Note_on_c, 9, 36, 0
1, 64800, Note_on_c, 9, 38, 115
1, 64800, Note_on_c, 9, 59, 115
1, 64813, Note_on_c, 9, 59, 0
1, 65040, Note_on_c, 9, 36, 115
1, 65279, Note_on_c, 9, 38, 0
1, 65279, Note_on_c, 9, 36, 0
1, 65280, Note_on_c, 9, 59, 115
1, 65280, Note_on_c, 9, 36, 115
1, 65293, Note_on_c, 9, 59, 0
1, 65759, Note_on_c, 9, 36, 0
1, 65760, Note_on_c, 9, 38, 115
1, 65760, Note_on_c, 9, 59, 115
1, 65773, Note_on_c, 9, 59, 0
1, 66239, Note_on_c, 9, 38, 0
1, 66240, Note_on_c, 9, 59, 115
1, 66240, Note_on_c, 9, 36, 115
1, 66253, Note_on_c, 9, 59, 0
1, 66479, Note_on_c, 9, 36, 0
1, 66480, Note_on_c, 9, 36, 115
1, 66719, Note_on_c, 9, 36, 0
1, 66720, Note_on_c, 9, 38, 115
1, 66720, Note_on_c, 9, 59, 115
1, 66733, Note_on_c, 9, 59, 0
1, 67199, Note_on_c, 9, 38, 0
1, 67200, Note_on_c, 9, 59, 115
1, 67200, Note_on_c, 9, 36, 115
1, 67213, Note_on_c, 9, 59, 0
1, 67679, Note_on_c, 9, 36, 0
1, 67680, Note_on_c, 9, 38, 115
1, 67680, Note_on_c, 9, 59, 115
1, 67693, Note_on_c, 9, 59, 0
1, 68159, Note_on_c, 9, 38, 0
1, 68160, Note_on_c, 9, 59, 115
1, 68160, Note_on_c, 9, 36, 115
1, 68173, Note_on_c, 9, 59, 0
1, 68399, Note_on_c, 9, 36, 0
1, 68400, Note_on_c, 9, 36, 115
1, 68639, Note_on_c, 9, 36, 0
1, 68640, Note_on_c, 9, 38, 115
1, 68640, Note_on_c, 9, 59, 115
1, 68653, Note_on_c, 9, 59, 0
1, 68880, Note_on_c, 9, 36, 115
1, 69119, Note_on_c, 9, 38, 0
1, 69119, Note_on_c, 9, 36, 0
1, 69120, Note_on_c, 9, 59, 115
1, 69120, Note_on_c, 9, 36, 115
1, 69133, Note_on_c, 9, 59, 0
1, 69599, Note_on_c, 9, 36, 0
1, 69600, Note_on_c, 9, 38, 115
1, 69600, Note_on_c, 9, 59, 115
1, 69613, Note_on_c, 9, 59, 0
1, 70079, Note_on_c, 9, 38, 0
1, 70080, Note_on_c, 9, 59, 115
1, 70080, Note_on_c, 9, 36, 115
1, 70093, Note_on_c, 9, 59, 0
1, 70319, Note_on_c, 9, 36, 0
1, 70320, Note_on_c, 9, 36, 115
1, 70559, Note_on_c, 9, 36, 0
1, 70560, Note_on_c, 9, 38, 115
1, 70560, Note_on_c, 9, 59, 115
1, 70573, Note_on_c, 9, 59, 0
1, 70800, Note_on_c, 9, 36, 115
1, 71039, Note_on_c, 9, 38, 0
1, 71039, Note_on_c, 9, 36, 0
1, 71040, Note_on_c, 9, 59, 115
1, 71040, Note_on_c, 9, 36, 115
1, 71053, Note_on_c, 9, 59, 0
1, 71519, Note_on_c, 9, 36, 0
1, 71520, Note_on_c, 9, 38, 115
1, 71520, Note_on_c, 9, 59, 115
1, 71533, Note_on_c, 9, 59, 0
1, 71999, Note_on_c, 9, 38, 0
1, 72000, Note_on_c, 9, 59, 115
1, 72000, Note_on_c, 9, 36, 115
1, 72013, Note_on_c, 9, 59, 0
1, 72239, Note_on_c, 9, 36, 0
1, 72240, Note_on_c, 9, 36, 115
1, 72479, Note_on_c, 9, 36, 0
1, 72480, Note_on_c, 9, 38, 115
1, 72480, Note_on_c, 9, 59, 115
1, 72493, Note_on_c, 9, 59, 0
1, 72720, Note_on_c, 9, 36, 115
1, 72959, Note_on_c, 9, 38, 0
1, 72959, Note_on_c, 9, 36, 0
1, 72960, Note_on_c, 9, 59, 115
1, 72960, Note_on_c, 9, 36, 115
1, 72973, Note_on_c, 9, 59, 0
1, 73439, Note_on_c, 9, 36, 0
1, 73440, Note_on_c, 9, 38, 115
1, 73440, Note_on_c, 9, 59, 115
1, 73453, Note_on_c, 9, 59, 0
1, 73919, Note_on_c, 9, 38, 0
1, 73920, Note_on_c, 9, 38, 115
1, 73920, Note_on_c, 9, 59, 115
1, 73933, Note_on_c, 9, 59, 0
1, 74160, Note_on_c, 9, 36, 115
1, 74399, Note_on_c, 9, 38, 0
1, 74399, Note_on_c, 9, 36, 0
1, 74400, Note_on_c, 9, 59, 115
1, 74400, Note_on_c, 9, 36, 115
1, 74413, Note_on_c, 9, 59, 0
1, 74519, Note_on_c, 9, 36, 0
1, 74520, Note_on_c, 9, 36, 115
1, 74639, Note_on_c, 9, 36, 0
1, 74640, Note_on_c, 9, 36, 115
1, 74879, Note_on_c, 9, 36, 0
1, 74880, Note_on_c, 9, 59, 115
1, 74880, Note_on_c, 9, 36, 115
1, 74893, Note_on_c, 9, 59, 0
1, 75359, Note_on_c, 9, 36, 0
1, 75360, Note_on_c, 9, 59, 115
1, 75373, Note_on_c, 9, 59, 0
1, 75840, Note_on_c, 9, 59, 115
1, 75853, Note_on_c, 9, 59, 0
1, 76320, Note_on_c, 9, 59, 115
1, 76333, Note_on_c, 9, 59, 0
1, 76800, Note_on_c, 9, 59, 115
1, 76813, Note_on_c, 9, 59, 0
1, 77280, Note_on_c, 9, 59, 115
1, 77293, Note_on_c, 9, 59, 0
1, 77760, Note_on_c, 9, 59, 115
1, 77773, Note_on_c, 9, 59, 0
1, 78240, Note_on_c, 9, 59, 115
1, 78253, Note_on_c, 9, 59, 0
1, 78720, Note_on_c, 9, 59, 115
1, 78720, Note_on_c, 9, 36, 115
1, 78733, Note_on_c, 9, 59, 0
1, 79199, Note_on_c, 9, 36, 0
1, 79200, Note_on_c, 9, 59, 115
1, 79213, Note_on_c, 9, 59, 0
1, 79680, Note_on_c, 9, 59, 115
1, 79693, Note_on_c, 9, 59, 0
1, 80160, Note_on_c, 9, 38, 115
1, 80160, Note_on_c, 9, 59, 115
1, 80173, Note_on_c, 9, 59, 0
1, 80400, Note_on_c, 9, 36, 115
1, 80639, Note_on_c, 9, 38, 0
1, 80639, Note_on_c, 9, 36, 0
1, 80640, Note_on_c, 9, 59, 115
1, 80640, Note_on_c, 9, 36, 115
1, 80653, Note_on_c, 9, 59, 0
1, 81119, Note_on_c, 9, 36, 0
1, 81120, Note_on_c, 9, 59, 115
1, 81133, Note_on_c, 9, 59, 0
1, 81600, Note_on_c, 9, 59, 115
1, 81613, Note_on_c, 9, 59, 0
1, 81960, Note_on_c, 9, 36, 115
1, 82079, Note_on_c, 9, 36, 0
1, 82080, Note_on_c, 9, 59, 115
1, 82080, Note_on_c, 9, 36, 115
1, 82093, Note_on_c, 9, 59, 0
1, 82319, Note_on_c, 9, 36, 0
1, 82320, Note_on_c, 9, 36, 115
1, 82559, Note_on_c, 9, 36, 0
1, 82560, Note_on_c, 9, 59, 115
1, 82560, Note_on_c, 9, 36, 115
1, 82573, Note_on_c, 9, 59, 0
1, 83039, Note_on_c, 9, 36, 0
1, 83040, Note_on_c, 9, 59, 115
1, 83053, Note_on_c, 9, 59, 0
1, 83520, Note_on_c, 9, 59, 115
1, 83533, Note_on_c, 9, 59, 0
1, 84000, Note_on_c, 9, 38, 115
1, 84000, Note_on_c, 9, 59, 115
1, 84013, Note_on_c, 9, 59, 0
1, 84240, Note_on_c, 9, 36, 115
1, 84479, Note_on_c, 9, 38, 0
1, 84479, Note_on_c, 9, 36, 0
1, 84480, Note_on_c, 9, 59, 115
1, 84480, Note_on_c, 9, 36, 115
1, 84493, Note_on_c, 9, 59, 0
1, 84959, Note_on_c, 9, 36, 0
1, 84960, Note_on_c, 9, 59, 115
1, 84973, Note_on_c, 9, 59, 0
1, 85440, Note_on_c, 9, 59, 115
1, 85453, Note_on_c, 9, 59, 0
1, 85920, Note_on_c, 9, 38, 115
1, 85920, Note_on_c, 9, 59, 115
1, 85933, Note_on_c, 9, 59, 0
1, 86399, Note_on_c, 9, 38, 0
1, 86400, Note_on_c, 9, 59, 115
1, 86400, Note_on_c, 9, 36, 115
1, 86413, Note_on_c, 9, 59, 0
1, 86879, Note_on_c, 9, 36, 0
1, 86880, Note_on_c, 9, 59, 115
1, 86893, Note_on_c, 9, 59, 0
1, 87360, Note_on_c, 9, 59, 115
1, 87373, Note_on_c, 9, 59, 0
1, 87840, Note_on_c, 9, 38, 115
1, 87840, Note_on_c, 9, 59, 115
1, 87853, Note_on_c, 9, 59, 0
1, 88080, Note_on_c, 9, 36, 115
1, 88319, Note_on_c, 9, 38, 0
1, 88319, Note_on_c, 9, 36, 0
1, 88320, Note_on_c, 9, 59, 115
1, 88320, Note_on_c, 9, 36, 115
1, 88333, Note_on_c, 9, 59, 0
1, 88799, Note_on_c, 9, 36, 0
1, 88800, Note_on_c, 9, 59, 115
1, 88813, Note_on_c, 9, 59, 0
1, 89280, Note_on_c, 9, 59, 115
1, 89293, Note_on_c, 9, 59, 0
1, 89520, Note_on_c, 9, 36, 115
1, 89759, Note_on_c, 9, 36, 0
1, 89760, Note_on_c, 9, 59, 115
1, 89760, Note_on_c, 9, 36, 115
1, 89773, Note_on_c, 9, 59, 0
1, 89879, Note_on_c, 9, 36, 0
1, 89880, Note_on_c, 9, 36, 115
1, 89999, Note_on_c, 9, 36, 0
1, 90000, Note_on_c, 9, 36, 115
1, 90239, Note_on_c, 9, 36, 0
1, 90240, Note_on_c, 9, 59, 115
1, 90240, Note_on_c, 9, 36, 115
1, 90253, Note_on_c, 9, 59, 0
1, 90719, Note_on_c, 9, 36, 0
1, 90720, Note_on_c, 9, 59, 115
1, 90733, Note_on_c, 9, 59, 0
1, 91200, Note_on_c, 9, 59, 115
1, 91213, Note_on_c, 9, 59, 0
1, 91680, Note_on_c, 9, 38, 115
1, 91680, Note_on_c, 9, 59, 115
1, 91693, Note_on_c, 9, 59, 0
1, 91920, Note_on_c, 9, 36, 115
1, 92159, Note_on_c, 9, 38, 0
1, 92159, Note_on_c, 9, 36, 0
1, 92160, Note_on_c, 9, 59, 115
1, 92160, Note_on_c, 9, 36, 115
1, 92173, Note_on_c, 9, 59, 0
1, 92639, Note_on_c, 9, 36, 0
1, 92640, Note_on_c, 9, 59, 115
1, 92653, Note_on_c, 9, 59, 0
1, 93120, Note_on_c, 9, 59, 115
1, 93133, Note_on_c, 9, 59, 0
1, 93600, Note_on_c, 9, 38, 115
1, 93600, Note_on_c, 9, 59, 115
1, 93613, Note_on_c, 9, 59, 0
1, 94079, Note_on_c, 9, 38, 0
1, 94080, Note_on_c, 9, 59, 115
1, 94080, Note_on_c, 9, 36, 115
1, 94093, Note_on_c, 9, 59, 0
1, 94559, Note_on_c, 9, 36, 0
1, 94560, Note_on_c, 9, 59, 115
1, 94573, Note_on_c, 9, 59, 0
1, 95040, Note_on_c, 9, 59, 115
1, 95053, Note_on_c, 9, 59, 0
1, 95520, Note_on_c, 9, 38, 115
1, 95520, Note_on_c, 9, 59, 115
1, 95533, Note_on_c, 9, 59, 0
1, 95760, Note_on_c, 9, 36, 115
1, 95999, Note_on_c, 9, 38, 0
1, 95999, Note_on_c, 9, 36, 0
1, 96000, Note_on_c, 9, 59, 115
1, 96000, Note_on_c, 9, 36, 115
1, 96013, Note_on_c, 9, 59, 0
1, 96479, Note_on_c, 9, 36, 0
1, 96480, Note_on_c, 9, 59, 115
1, 96493, Note_on_c, 9, 59, 0
1, 96960, Note_on_c, 9, 38, 115
1, 96960, Note_on_c, 9, 59, 115
1, 96973, Note_on_c, 9, 59, 0
1, 97200, Note_on_c, 9, 36, 115
1, 97439, Note_on_c, 9, 38, 0
1, 97439, Note_on_c, 9, 36, 0
1, 97440, Note_on_c, 9, 59, 115
1, 97440, Note_on_c, 9, 36, 115
1, 97453, Note_on_c, 9, 59, 0
1, 97559, Note_on_c, 9, 36, 0
1, 97560, Note_on_c, 9, 36, 115
1, 97679, Note_on_c, 9, 36, 0
1, 97680, Note_on_c, 9, 36, 115
1, 97919, Note_on_c, 9, 36, 0
1, 97920, Note_on_c, 9, 59, 115
1, 97920, Note_on_c, 9, 36, 115
1, 97933, Note_on_c, 9, 59, 0
1, 98399, Note_on_c, 9, 36, 0
1, 98400, Note_on_c, 9, 38, 115
1, 98400, Note_on_c, 9, 59, 115
1, 98413, Note_on_c, 9, 59, 0
1, 98879, Note_on_c, 9, 38, 0
1, 98880, Note_on_c, 9, 59, 115
1, 98880, Note_on_c, 9, 36, 115
1, 98893, Note_on_c, 9, 59, 0
1, 99119, Note_on_c, 9, 36, 0
1, 99120, Note_on_c, 9, 36, 115
1, 99359, Note_on_c, 9, 36, 0
1, 99360, Note_on_c, 9, 38, 115
1, 99360, Note_on_c, 9, 59, 115
1, 99373, Note_on_c, 9, 59, 0
1, 99600, Note_on_c, 9, 36, 115
1, 99839, Note_on_c, 9, 38, 0
1, 99839, Note_on_c, 9, 36, 0
1, 99840, Note_on_c, 9, 59, 115
1, 99840, Note_on_c, 9, 36, 115
1, 99853, Note_on_c, 9, 59, 0
1, 100319, Note_on_c, 9, 36, 0
1, 100320, Note_on_c, 9, 38, 115
1, 100320, Note_on_c, 9, 59, 115
1, 100333, Note_on_c, 9, 59, 0
1, 100799, Note_on_c, 9, 38, 0
1, 100800, Note_on_c, 9, 59, 115
1, 100800, Note_on_c, 9, 36, 115
1, 100813, Note_on_c, 9, 59, 0
1, 101039, Note_on_c, 9, 36, 0
1, 101040, Note_on_c, 9, 36, 115
1, 101279, Note_on_c, 9, 36, 0
1, 101280, Note_on_c, 9, 38, 115
1, 101280, Note_on_c, 9, 59, 115
1, 101293, Note_on_c, 9, 59, 0
1, 101520, Note_on_c, 9, 36, 115
1, 101759, Note_on_c, 9, 38, 0
1, 101759, Note_on_c, 9, 36, 0
1, 101760, Note_on_c, 9, 59, 115
1, 101760, Note_on_c, 9, 36, 115
1, 101773, Note_on_c, 9, 59, 0
1, 102239, Note_on_c, 9, 36, 0
1, 102240, Note_on_c, 9, 38, 115
1, 102240, Note_on_c, 9, 59, 115
1, 102253, Note_on_c, 9, 59, 0
1, 102719, Note_on_c, 9, 38, 0
1, 102720, Note_on_c, 9, 59, 115
1, 102720, Note_on_c, 9, 36, 115
1, 102733, Note_on_c, 9, 59, 0
1, 102959, Note_on_c, 9, 36, 0
1, 102960, Note_on_c, 9, 36, 115
1, 103199, Note_on_c, 9, 36, 0
1, 103200, Note_on_c, 9, 38, 115
1, 103200, Note_on_c, 9, 59, 115
1, 103213, Note_on_c, 9, 59, 0
1, 103440, Note_on_c, 9, 36, 115
1, 103679, Note_on_c, 9, 38, 0
1, 103679, Note_on_c, 9, 36, 0
1, 103680, Note_on_c, 9, 59, 115
1, 103680, Note_on_c, 9, 36, 115
1, 103693, Note_on_c, 9, 59, 0
1, 104159, Note_on_c, 9, 36, 0
1, 104160, Note_on_c, 9, 38, 115
1, 104160, Note_on_c, 9, 59, 115
1, 104173, Note_on_c, 9, 59, 0
1, 104639, Note_on_c, 9, 38, 0
1, 104640, Note_on_c, 9, 38, 115
1, 104640, Note_on_c, 9, 59, 115
1, 104653, Note_on_c, 9, 59, 0
1, 104880, Note_on_c, 9, 36, 115
1, 105119, Note_on_c, 9, 38, 0
1, 105119, Note_on_c, 9, 36, 0
1, 105120, Note_on_c, 9, 59, 115
1, 105120, Note_on_c, 9, 36, 115
1, 105133, Note_on_c, 9, 59, 0
1, 105239, Note_on_c, 9, 36, 0
1, 105240, Note_on_c, 9, 36, 115
1, 105359, Note_on_c, 9, 36, 0
1, 105360, Note_on_c, 9, 36, 115
1, 105599, Note_on_c, 9, 36, 0
1, 105600, Note_on_c, 9, 59, 115
1, 105600, Note_on_c, 9, 36, 115
1, 105613, Note_on_c, 9, 59, 0
1, 106079, Note_on_c, 9, 36, 0
1, 106080, Note_on_c, 9, 38, 115
1, 106080, Note_on_c, 9, 59, 115
1, 106093, Note_on_c, 9, 59, 0
1, 106559, Note_on_c, 9, 38, 0
1, 106560, Note_on_c, 9, 59, 115
1, 106560, Note_on_c, 9, 36, 115
1, 106573, Note_on_c, 9, 59, 0
1, 106799, Note_on_c, 9, 36, 0
1, 106800, Note_on_c, 9, 36, 115
1, 107039, Note_on_c, 9, 36, 0
1, 107040, Note_on_c, 9, 38, 115
1, 107040, Note_on_c, 9, 59, 115
1, 107053, Note_on_c, 9, 59, 0
1, 107280, Note_on_c, 9, 36, 115
1, 107519, Note_on_c, 9, 38, 0
1, 107519, Note_on_c, 9, 36, 0
1, 107520, Note_on_c, 9, 59, 115
1, 107520, Note_on_c, 9, 36, 115
1, 107533, Note_on_c, 9, 59, 0
1, 107999, Note_on_c, 9, 36, 0
1, 108000, Note_on_c, 9, 38, 115
1, 108000, Note_on_c, 9, 59, 115
1, 108013, Note_on_c, 9, 59, 0
1, 108479, Note_on_c, 9, 38, 0
1, 108480, Note_on_c, 9, 59, 115
1, 108480, Note_on_c, 9, 36, 115
1, 108493, Note_on_c, 9, 59, 0
1, 108719, Note_on_c, 9, 36, 0
1, 108720, Note_on_c, 9, 36, 115
1, 108959, Note_on_c, 9, 36, 0
1, 108960, Note_on_c, 9, 38, 115
1, 108960, Note_on_c, 9, 59, 115
1, 108973, Note_on_c, 9, 59, 0
1, 109200, Note_on_c, 9, 36, 115
1, 109439, Note_on_c, 9, 38, 0
1, 109439, Note_on_c, 9, 36, 0
1, 109440, Note_on_c, 9, 59, 115
1, 109440, Note_on_c, 9, 36, 115
1, 109453, Note_on_c, 9, 59, 0
1, 109919, Note_on_c, 9, 36, 0
1, 109920, Note_on_c, 9, 38, 115
1, 109920, Note_on_c, 9, 59, 115
1, 109933, Note_on_c, 9, 59, 0
1, 110399, Note_on_c, 9, 38, 0
1, 110400, Note_on_c, 9, 59, 115
1, 110400, Note_on_c, 9, 36, 115
1, 110413, Note_on_c, 9, 59, 0
1, 110639, Note_on_c, 9, 36, 0
1, 110640, Note_on_c, 9, 36, 115
1, 110879, Note_on_c, 9, 36, 0
1, 110880, Note_on_c, 9, 38, 115
1, 110880, Note_on_c, 9, 59, 115
1, 110893, Note_on_c, 9, 59, 0
1, 111120, Note_on_c, 9, 36, 115
1, 111359, Note_on_c, 9, 38, 0
1, 111359, Note_on_c, 9, 36, 0
1, 111360, Note_on_c, 9, 59, 115
1, 111360, Note_on_c, 9, 36, 115
1, 111373, Note_on_c, 9, 59, 0
1, 111839, Note_on_c, 9, 36, 0
1, 111840, Note_on_c, 9, 38, 115
1, 111840, Note_on_c, 9, 59, 115
1, 111853, Note_on_c, 9, 59, 0
1, 112319, Note_on_c, 9, 38, 0
1, 112320, Note_on_c, 9, 38, 115
1, 112320, Note_on_c, 9, 59, 115
1, 112333, Note_on_c, 9, 59, 0
1, 112560, Note_on_c, 9, 36, 115
1, 112799, Note_on_c, 9, 38, 0
1, 112799, Note_on_c, 9, 36, 0
1, 112800, Note_on_c, 9, 59, 115
1, 112800, Note_on_c, 9, 36, 115
1, 112813, Note_on_c, 9, 59, 0
1, 112919, Note_on_c, 9, 36, 0
1, 112920, Note_on_c, 9, 36, 115
1, 113039, Note_on_c, 9, 36, 0
1, 113040, Note_on_c, 9, 36, 115
1, 113279, Note_on_c, 9, 36, 0
1, 113280, Note_on_c, 9, 36, 115
1, 113759, Note_on_c, 9, 36, 0
1, 114720, Note_on_c, 9, 36, 115
1, 115199, Note_on_c, 9, 36, 0
1, 116640, Note_on_c, 9, 36, 115
1, 116879, Note_on_c, 9, 36, 0
1, 116880, Note_on_c, 9, 36, 115
1, 117119, Note_on_c, 9, 36, 0
1, 117120, Note_on_c, 9, 36, 115
1, 117599, Note_on_c, 9, 36, 0
1, 118560, Note_on_c, 9, 36, 115
1, 119039, Note_on_c, 9, 36, 0
1, 120480, Note_on_c, 9, 36, 115
1, 120719, Note_on_c, 9, 36, 0
1, 120720, Note_on_c, 9, 36, 115
1, 120959, Note_on_c, 9, 36, 0
1, 120960, Note_on_c, 9, 36, 115
1, 121439, Note_on_c, 9, 36, 0
1, 122400, Note_on_c, 9, 36, 115
1, 122879, Note_on_c, 9, 36, 0
1, 124320, Note_on_c, 9, 36, 115
1, 124559, Note_on_c, 9, 36, 0
1, 124560, Note_on_c, 9, 36, 115
1, 124799, Note_on_c, 9, 36, 0
1, 124800, Note_on_c, 9, 36, 115
1, 125279, Note_on_c, 9, 36, 0
1, 126240, Note_on_c, 9, 36, 115
1, 126719, Note_on_c, 9, 36, 0
1, 126720, Note_on_c, 9, 38, 127
1, 126720, Note_on_c, 9, 59, 100
1, 126720, Note_on_c, 9, 36, 120
1, 126733, Note_on_c, 9, 59, 0
1, 126959, Note_on_c, 9, 36, 0
1, 126960, Note_on_c, 9, 36, 115
1, 127199, Note_on_c, 9, 38, 0
1, 127199, Note_on_c, 9, 36, 0
1, 127200, Note_on_c, 9, 59, 100
1, 127200, Note_on_c, 9, 36, 125
1, 127213, Note_on_c, 9, 59, 0
1, 127439, Note_on_c, 9, 36, 0
1, 127440, Note_on_c, 9, 36, 127
1, 127679, Note_on_c, 9, 36, 0
1, 127680, Note_on_c, 9, 59, 100
1, 127680, Note_on_c, 9, 36, 127
1, 127693, Note_on_c, 9, 59, 0
1, 127919, Note_on_c, 9, 36, 0
1, 127920, Note_on_c, 9, 36, 127
1, 128159, Note_on_c, 9, 36, 0
1, 128160, Note_on_c, 9, 38, 127
1, 128160, Note_on_c, 9, 59, 100
1, 128162, Note_on_c, 9, 59, 0
1, 128279, Note_on_c, 9, 38, 0
1, 128280, Note_on_c, 9, 38, 127
1, 128400, Note_on_c, 9, 36, 127
1, 128639, Note_on_c, 9, 38, 0
1, 128639, Note_on_c, 9, 36, 0
1, 128640, Note_on_c, 9, 59, 100
1, 128640, Note_on_c, 9, 36, 115
1, 128653, Note_on_c, 9, 59, 0
1, 129119, Note_on_c, 9, 36, 0
1, 129120, Note_on_c, 9, 38, 115
1, 129120, Note_on_c, 9, 59, 100
1, 129133, Note_on_c, 9, 59, 0
1, 129599, Note_on_c, 9, 38, 0
1, 129600, Note_on_c, 9, 59, 100
1, 129600, Note_on_c, 9, 36, 115
1, 129613, Note_on_c, 9, 59, 0
1, 130079, Note_on_c, 9, 36, 0
1, 130080, Note_on_c, 9, 38, 115
1, 130080, Note_on_c, 9, 59, 100
1, 130093, Note_on_c, 9, 59, 0
1, 130559, Note_on_c, 9, 38, 0
1, 130560, Note_on_c, 9, 59, 100
1, 130560, Note_on_c, 9, 36, 115
1, 130573, Note_on_c, 9, 59, 0
1, 131039, Note_on_c, 9, 36, 0
1, 131040, Note_on_c, 9, 38, 115
1, 131040, Note_on_c, 9, 59, 100
1, 131053, Note_on_c, 9, 59, 0
1, 131519, Note_on_c, 9, 38, 0
1, 131520, Note_on_c, 9, 59, 100
1, 131520, Note_on_c, 9, 36, 115
1, 131533, Note_on_c, 9, 59, 0
1, 131759, Note_on_c, 9, 36, 0
1, 131760, Note_on_c, 9, 36, 115
1, 131999, Note_on_c, 9, 36, 0
1, 132000, Note_on_c, 9, 38, 115
1, 132000, Note_on_c, 9, 59, 100
1, 132013, Note_on_c, 9, 59, 0
1, 132479, Note_on_c, 9, 38, 0
1, 132480, Note_on_c, 9, 59, 100
1, 132480, Note_on_c, 9, 36, 115
1, 132493, Note_on_c, 9, 59, 0
1, 132959, Note_on_c, 9, 36, 0
1, 132960, Note_on_c, 9, 38, 115
1, 132960, Note_on_c, 9, 59, 100
1, 132973, Note_on_c, 9, 59, 0
1, 133439, Note_on_c, 9, 38, 0
1, 133440, Note_on_c, 9, 59, 100
1, 133440, Note_on_c, 9, 36, 115
1, 133453, Note_on_c, 9, 59, 0
1, 133919, Note_on_c, 9, 36, 0
1, 133920, Note_on_c, 9, 38, 115
1, 133920, Note_on_c, 9, 59, 100
1, 133933, Note_on_c, 9, 59, 0
1, 134399, Note_on_c, 9, 38, 0
1, 134400, Note_on_c, 9, 59, 100
1, 134400, Note_on_c, 9, 36, 115
1, 134413, Note_on_c, 9, 59, 0
1, 134879, Note_on_c, 9, 36, 0
1, 134880, Note_on_c, 9, 38, 115
1, 134880, Note_on_c, 9, 59, 100
1, 134893, Note_on_c, 9, 59, 0
1, 135359, Note_on_c, 9, 38, 0
1, 135360, Note_on_c, 9, 59, 100
1, 135360, Note_on_c, 9, 36, 115
1, 135373, Note_on_c, 9, 59, 0
1, 135599, Note_on_c, 9, 36, 0
1, 135600, Note_on_c, 9, 36, 115
1, 135839, Note_on_c, 9, 36, 0
1, 135840, Note_on_c, 9, 38, 115
1, 135840, Note_on_c, 9, 59, 100
1, 135842, Note_on_c, 9, 59, 0
1, 135959, Note_on_c, 9, 38, 0
1, 135960, Note_on_c, 9, 38, 115
1, 136080, Note_on_c, 9, 36, 115
1, 136319, Note_on_c, 9, 38, 0
1, 136319, Note_on_c, 9, 36, 0
1, 136320, Note_on_c, 9, 59, 100
1, 136320, Note_on_c, 9, 36, 115
1, 136333, Note_on_c, 9, 59, 0
1, 136799, Note_on_c, 9, 36, 0
1, 136800, Note_on_c, 9, 38, 115
1, 136800, Note_on_c, 9, 59, 100
1, 136813, Note_on_c, 9, 59, 0
1, 137279, Note_on_c, 9, 38, 0
1, 137280, Note_on_c, 9, 59, 100
1, 137280, Note_on_c, 9, 36, 115
1, 137293, Note_on_c, 9, 59, 0
1, 137759, Note_on_c, 9, 36, 0
1, 137760, Note_on_c, 9, 38, 115
1, 137760, Note_on_c, 9, 59, 100
1, 137773, Note_on_c, 9, 59, 0
1, 138239, Note_on_c, 9, 38, 0
1, 138240, Note_on_c, 9, 59, 100
1, 138240, Note_on_c, 9, 36, 115
1, 138253, Note_on_c, 9, 59, 0
1, 138719, Note_on_c, 9, 36, 0
1, 138720, Note_on_c, 9, 38, 115
1, 138720, Note_on_c, 9, 59, 100
1, 138733, Note_on_c, 9, 59, 0
1, 139199, Note_on_c, 9, 38, 0
1, 139200, Note_on_c, 9, 59, 100
1, 139200, Note_on_c, 9, 36, 115
1, 139213, Note_on_c, 9, 59, 0
1, 139439, Note_on_c, 9, 36, 0
1, 139440, Note_on_c, 9, 36, 115
1, 139679, Note_on_c, 9, 36, 0
1, 139680, Note_on_c, 9, 38, 115
1, 139680, Note_on_c, 9, 59, 100
1, 139693, Note_on_c, 9, 59, 0
1, 140159, Note_on_c, 9, 38, 0
1, 140160, Note_on_c, 9, 59, 100
1, 140160, Note_on_c, 9, 36, 115
1, 140173, Note_on_c, 9, 59, 0
1, 140639, Note_on_c, 9, 36, 0
1, 140640, Note_on_c, 9, 38, 115
1, 140640, Note_on_c, 9, 59, 100
1, 140653, Note_on_c, 9, 59, 0
1, 141119, Note_on_c, 9, 38, 0
1, 141120, Note_on_c, 9, 59, 100
1, 141120, Note_on_c, 9, 36, 115
1, 141133, Note_on_c, 9, 59, 0
1, 141599, Note_on_c, 9, 36, 0
1, 141600, Note_on_c, 9, 38, 115
1, 141600, Note_on_c, 9, 59, 100
1, 141613, Note_on_c, 9, 59, 0
1, 142079, Note_on_c, 9, 38, 0
1, 142080, Note_on_c, 9, 38, 115
1, 142080, Note_on_c, 9, 59, 100
1, 142080, Note_on_c, 9, 36, 115
1, 142093, Note_on_c, 9, 59, 0
1, 142319, Note_on_c, 9, 36, 0
1, 142320, Note_on_c, 9, 36, 115
1, 142559, Note_on_c, 9, 38, 0
1, 142559, Note_on_c, 9, 36, 0
1, 142560, Note_on_c, 9, 59, 100
1, 142560, Note_on_c, 9, 36, 115
1, 142573, Note_on_c, 9, 59, 0
1, 142799, Note_on_c, 9, 36, 0
1, 142800, Note_on_c, 9, 36, 115
1, 143039, Note_on_c, 9, 36, 0
1, 143040, Note_on_c, 9, 59, 100
1, 143040, Note_on_c, 9, 36, 115
1, 143053, Note_on_c, 9, 59, 0
1, 143279, Note_on_c, 9, 36, 0
1, 143280, Note_on_c, 9, 36, 115
1, 143519, Note_on_c, 9, 36, 0
1, 143520, Note_on_c, 9, 59, 100
1, 143520, Note_on_c, 9, 36, 115
1, 143533, Note_on_c, 9, 59, 0
1, 143759, Note_on_c, 9, 36, 0
1, 143760, Note_on_c, 9, 36, 115
1, 143999, Note_on_c, 9, 36, 0
1, 144000, Note_on_c, 9, 59, 100
1, 144000, Note_on_c, 9, 36, 115
1, 144013, Note_on_c, 9, 59, 0
1, 144239, Note_on_c, 9, 36, 0
1, 144240, Note_on_c, 9, 36, 115
1, 144479, Note_on_c, 9, 36, 0
1, 144480, Note_on_c, 9, 59, 100
1, 144480, Note_on_c, 9, 36, 115
1, 144493, Note_on_c, 9, 59, 0
1, 144719, Note_on_c, 9, 36, 0
1, 144720, Note_on_c, 9, 36, 115
1, 144959, Note_on_c, 9, 36, 0
1, 144960, Note_on_c, 9, 38, 115
1, 144960, Note_on_c, 9, 59, 100
1, 144973, Note_on_c, 9, 59, 0
1, 145200, Note_on_c, 9, 36, 115
1, 145439, Note_on_c, 9, 38, 0
1, 145439, Note_on_c, 9, 36, 0
1, 145440, Note_on_c, 9, 59, 100
1, 145440, Note_on_c, 9, 36, 115
1, 145453, Note_on_c, 9, 59, 0
1, 145559, Note_on_c, 9, 36, 0
1, 145560, Note_on_c, 9, 36, 115
1, 145679, Note_on_c, 9, 36, 0
1, 145680, Note_on_c, 9, 36, 115
1, 145919, Note_on_c, 9, 36, 0
1, 145920, Note_on_c, 9, 59, 100
1, 145920, Note_on_c, 9, 36, 115
1, 145933, Note_on_c, 9, 59, 0
1, 146399, Note_on_c, 9, 36, 0
1, 146400, Note_on_c, 9, 38, 115
1, 146400, Note_on_c, 9, 59, 100
1, 146413, Note_on_c, 9, 59, 0
1, 146879, Note_on_c, 9, 38, 0
1, 146880, Note_on_c, 9, 59, 100
1, 146880, Note_on_c, 9, 36, 115
1, 146893, Note_on_c, 9, 59, 0
1, 147119, Note_on_c, 9, 36, 0
1, 147120, Note_on_c, 9, 36, 115
1, 147359, Note_on_c, 9, 36, 0
1, 147360, Note_on_c, 9, 38, 115
1, 147360, Note_on_c, 9, 59, 100
1, 147373, Note_on_c, 9, 59, 0
1, 147600, Note_on_c, 9, 36, 115
1, 147839, Note_on_c, 9, 38, 0
1, 147839, Note_on_c, 9, 36, 0
1, 147840, Note_on_c, 9, 59, 100
1, 147840, Note_on_c, 9, 36, 115
1, 147853, Note_on_c, 9, 59, 0
1, 148319, Note_on_c, 9, 36, 0
1, 148320, Note_on_c, 9, 38, 115
1, 148320, Note_on_c, 9, 59, 100
1, 148333, Note_on_c, 9, 59, 0
1, 148799, Note_on_c, 9, 38, 0
1, 148800, Note_on_c, 9, 59, 100
1, 148800, Note_on_c, 9, 36, 115
1, 148813, Note_on_c, 9, 59, 0
1, 149039, Note_on_c, 9, 36, 0
1, 149040, Note_on_c, 9, 36, 115
1, 149279, Note_on_c, 9, 36, 0
1, 149280, Note_on_c, 9, 38, 115
1, 149280, Note_on_c, 9, 59, 100
1, 149293, Note_on_c, 9, 59, 0
1, 149520, Note_on_c, 9, 36, 115
1, 149759, Note_on_c, 9, 38, 0
1, 149759, Note_on_c, 9, 36, 0
1, 149760, Note_on_c, 9, 59, 100
1, 149760, Note_on_c, 9, 36, 115
1, 149773, Note_on_c, 9, 59, 0
1, 150239, Note_on_c, 9, 36, 0
1, 150240, Note_on_c, 9, 38, 115
1, 150240, Note_on_c, 9, 59, 100
1, 150253, Note_on_c, 9, 59, 0
1, 150719, Note_on_c, 9, 38, 0
1, 150720, Note_on_c, 9, 59, 100
1, 150720, Note_on_c, 9, 36, 115
1, 150733, Note_on_c, 9, 59, 0
1, 150959, Note_on_c, 9, 36, 0
1, 150960, Note_on_c, 9, 36, 115
1, 151199, Note_on_c, 9, 36, 0
1, 151200, Note_on_c, 9, 38, 115
1, 151200, Note_on_c, 9, 59, 100
1, 151213, Note_on_c, 9, 59, 0
1, 151440, Note_on_c, 9, 36, 115
1, 151679, Note_on_c, 9, 38, 0
1, 151679, Note_on_c, 9, 36, 0
1, 151680, Note_on_c, 9, 59, 100
1, 151680, Note_on_c, 9, 36, 115
1, 151693, Note_on_c, 9, 59, 0
1, 152159, Note_on_c, 9, 36, 0
1, 152160, Note_on_c, 9, 38, 115
1, 152160, Note_on_c, 9, 59, 100
1, 152173, Note_on_c, 9, 59, 0
1, 152639, Note_on_c, 9, 38, 0
1, 152640, Note_on_c, 9, 38, 115
1, 152640, Note_on_c, 9, 59, 100
1, 152653, Note_on_c, 9, 59, 0
1, 152880, Note_on_c, 9, 36, 115
1, 153119, Note_on_c, 9, 38, 0
1, 153119, Note_on_c, 9, 36, 0
1, 153120, Note_on_c, 9, 59, 100
1, 153120, Note_on_c, 9, 36, 115
1, 153133, Note_on_c, 9, 59, 0
1, 153239, Note_on_c, 9, 36, 0
1, 153240, Note_on_c, 9, 36, 115
1, 153359, Note_on_c, 9, 36, 0
1, 153360, Note_on_c, 9, 36, 115
1, 153599, Note_on_c, 9, 36, 0
1, 153600, Note_on_c, 9, 59, 100
1, 153600, Note_on_c, 9, 36, 115
1, 153613, Note_on_c, 9, 59, 0
1, 154079, Note_on_c, 9, 36, 0
1, 154080, Note_on_c, 9, 38, 115
1, 154080, Note_on_c, 9, 59, 100
1, 154093, Note_on_c, 9, 59, 0
1, 154559, Note_on_c, 9, 38, 0
1, 154560, Note_on_c, 9, 59, 100
1, 154560, Note_on_c, 9, 36, 115
1, 154573, Note_on_c, 9, 59, 0
1, 154799, Note_on_c, 9, 36, 0
1, 154800, Note_on_c, 9, 36, 115
1, 155039, Note_on_c, 9, 36, 0
1, 155040, Note_on_c, 9, 38, 115
1, 155040, Note_on_c, 9, 59, 100
1, 155053, Note_on_c, 9, 59, 0
1, 155280, Note_on_c, 9, 36, 115
1, 155519, Note_on_c, 9, 38, 0
1, 155519, Note_on_c, 9, 36, 0
1, 155520, Note_on_c, 9, 59, 100
1, 155520, Note_on_c, 9, 36, 115
1, 155533, Note_on_c, 9, 59, 0
1, 155999, Note_on_c, 9, 36, 0
1, 156000, Note_on_c, 9, 38, 115
1, 156000, Note_on_c, 9, 59, 100
1, 156013, Note_on_c, 9, 59, 0
1, 156479, Note_on_c, 9, 38, 0
1, 156480, Note_on_c, 9, 59, 100
1, 156480, Note_on_c, 9, 36, 115
1, 156493, Note_on_c, 9, 59, 0
1, 156719, Note_on_c, 9, 36, 0
1, 156720, Note_on_c, 9, 36, 115
1, 156959, Note_on_c, 9, 36, 0
1, 156960, Note_on_c, 9, 38, 115
1, 156960, Note_on_c, 9, 59, 100
1, 156973, Note_on_c, 9, 59, 0
1, 157200, Note_on_c, 9, 36, 115
1, 157439, Note_on_c, 9, 38, 0
1, 157439, Note_on_c, 9, 36, 0
1, 157440, Note_on_c, 9, 59, 100
1, 157440, Note_on_c, 9, 36, 115
1, 157453, Note_on_c, 9, 59, 0
1, 157919, Note_on_c, 9, 36, 0
1, 157920, Note_on_c, 9, 38, 115
1, 157920, Note_on_c, 9, 59, 100
1, 157933, Note_on_c, 9, 59, 0
1, 158399, Note_on_c, 9, 38, 0
1, 158400, Note_on_c, 9, 59, 100
1, 158400, Note_on_c, 9, 36, 115
1, 158413, Note_on_c, 9, 59, 0
1, 158639, Note_on_c, 9, 36, 0
1, 158640, Note_on_c, 9, 36, 115
1, 158879, Note_on_c, 9, 36, 0
1, 158880, Note_on_c, 9, 38, 115
1, 158880, Note_on_c, 9, 59, 100
1, 158893, Note_on_c, 9, 59, 0
1, 159120, Note_on_c, 9, 36, 115
1, 159359, Note_on_c, 9, 38, 0
1, 159359, Note_on_c, 9, 36, 0
1, 159360, Note_on_c, 9, 59, 100
1, 159360, Note_on_c, 9, 36, 115
1, 159373, Note_on_c, 9, 59, 0
1, 159839, Note_on_c, 9, 36, 0
1, 159840, Note_on_c, 9, 38, 115
1, 159840, Note_on_c, 9, 59, 100
1, 159853, Note_on_c, 9, 59, 0
1, 160319, Note_on_c, 9, 38, 0
1, 160320, Note_on_c, 9, 38, 115
1, 160320, Note_on_c, 9, 59, 100
1, 160333, Note_on_c, 9, 59, 0
1, 160560, Note_on_c, 9, 36, 115
1, 160799, Note_on_c, 9, 38, 0
1, 160799, Note_on_c, 9, 36, 0
1, 160800, Note_on_c, 9, 59, 100
1, 160800, Note_on_c, 9, 36, 115
1, 160813, Note_on_c, 9, 59, 0
1, 160919, Note_on_c, 9, 36, 0
1, 160920, Note_on_c, 9, 36, 115
1, 161039, Note_on_c, 9, 36, 0
1, 161040, Note_on_c, 9, 36, 115
1, 161279, Note_on_c, 9, 36, 0
1, 161280, Note_on_c, 9, 59, 100
1, 161280, Note_on_c, 9, 36, 115
1, 161293, Note_on_c, 9, 59, 0
1, 161759, Note_on_c, 9, 36, 0
1, 161760, Note_on_c, 9, 38, 115
1, 161760, Note_on_c, 9, 59, 100
1, 161773, Note_on_c, 9, 59, 0
1, 162239, Note_on_c, 9, 38, 0
1, 162240, Note_on_c, 9, 59, 100
1, 162240, Note_on_c, 9, 36, 115
1, 162253, Note_on_c, 9, 59, 0
1, 162479, Note_on_c, 9, 36, 0
1, 162480, Note_on_c, 9, 36, 115
1, 162719, Note_on_c, 9, 36, 0
1, 162720, Note_on_c, 9, 38, 115
1, 162720, Note_on_c, 9, 59, 100
1, 162733, Note_on_c, 9, 59, 0
1, 162960, Note_on_c, 9, 36, 115
1, 163199, Note_on_c, 9, 38, 0
1, 163199, Note_on_c, 9, 36, 0
1, 163200, Note_on_c, 9, 59, 100
1, 163200, Note_on_c, 9, 36, 115
1, 163213, Note_on_c, 9, 59, 0
1, 163679, Note_on_c, 9, 36, 0
1, 163680, Note_on_c, 9, 38, 115
1, 163680, Note_on_c, 9, 59, 100
1, 163693, Note_on_c, 9, 59, 0
1, 164159, Note_on_c, 9, 38, 0
1, 164160, Note_on_c, 9, 59, 100
1, 164160, Note_on_c, 9, 36, 115
1, 164173, Note_on_c, 9, 59, 0
1, 164399, Note_on_c, 9, 36, 0
1, 164400, Note_on_c, 9, 36, 115
1, 164639, Note_on_c, 9, 36, 0
1, 164640, Note_on_c, 9, 38, 115
1, 164640, Note_on_c, 9, 59, 100
1, 164653, Note_on_c, 9, 59, 0
1, 164880, Note_on_c, 9, 36, 115
1, 165119, Note_on_c, 9, 38, 0
1, 165119, Note_on_c, 9, 36, 0
1, 165120, Note_on_c, 9, 59, 100
1, 165120, Note_on_c, 9, 36, 115
1, 165133, Note_on_c, 9, 59, 0
1, 165599, Note_on_c, 9, 36, 0
1, 165600, Note_on_c, 9, 38, 115
1, 165600, Note_on_c, 9, 59, 100
1, 165613, Note_on_c, 9, 59, 0
1, 166079, Note_on_c, 9, 38, 0
1, 166080, Note_on_c, 9, 59, 100
1, 166080, Note_on_c, 9, 36, 115
1, 166093, Note_on_c, 9, 59, 0
1, 166319, Note_on_c, 9, 36, 0
1, 166320, Note_on_c, 9, 36, 115
1, 166559, Note_on_c, 9, 36, 0
1, 166560, Note_on_c, 9, 38, 115
1, 166560, Note_on_c, 9, 59, 100
1, 166573, Note_on_c, 9, 59, 0
1, 166800, Note_on_c, 9, 36, 115
1, 167039, Note_on_c, 9, 38, 0
1, 167039, Note_on_c, 9, 36, 0
1, 167040, Note_on_c, 9, 59, 100
1, 167040, Note_on_c, 9, 36, 115
1, 167053, Note_on_c, 9, 59, 0
1, 167519, Note_on_c, 9, 36, 0
1, 167520, Note_on_c, 9, 38, 115
1, 167520, Note_on_c, 9, 59, 100
1, 167533, Note_on_c, 9, 59, 0
1, 167999, Note_on_c, 9, 38, 0
1, 168000, Note_on_c, 9, 38, 115
1, 168000, Note_on_c, 9, 59, 100
1, 168013, Note_on_c, 9, 59, 0
1, 168360, Note_on_c, 9, 36, 115
1, 168479, Note_on_c, 9, 38, 0
1, 168479, Note_on_c, 9, 36, 0
1, 168480, Note_on_c, 9, 59, 100
1, 168480, Note_on_c, 9, 36, 115
1, 168493, Note_on_c, 9, 59, 0
1, 168719, Note_on_c, 9, 36, 0
1, 168720, Note_on_c, 9, 36, 115
1, 168959, Note_on_c, 9, 36, 0
1, 168960, Note_on_c, 9, 59, 100
1, 168960, Note_on_c, 9, 36, 115
1, 168973, Note_on_c, 9, 59, 0
1, 169439, Note_on_c, 9, 36, 0
1, 169440, Note_on_c, 9, 38, 115
1, 169440, Note_on_c, 9, 59, 100
1, 169453, Note_on_c, 9, 59, 0
1, 169919, Note_on_c, 9, 38, 0
1, 169920, Note_on_c, 9, 59, 100
1, 169920, Note_on_c, 9, 36, 115
1, 169933, Note_on_c, 9, 59, 0
1, 170159, Note_on_c, 9, 36, 0
1, 170160, Note_on_c, 9, 36, 115
1, 170399, Note_on_c, 9, 36, 0
1, 170400, Note_on_c, 9, 38, 115
1, 170400, Note_on_c, 9, 59, 100
1, 170413, Note_on_c, 9, 59, 0
1, 170640, Note_on_c, 9, 36, 115
1, 170879, Note_on_c, 9, 38, 0
1, 170879, Note_on_c, 9, 36, 0
1, 170880, Note_on_c, 9, 59, 100
1, 170880, Note_on_c, 9, 36, 115
1, 170893, Note_on_c, 9, 59, 0
1, 171359, Note_on_c, 9, 36, 0
1, 171360, Note_on_c, 9, 38, 115
1, 171360, Note_on_c, 9, 59, 100
1, 171373, Note_on_c, 9, 59, 0
1, 171839, Note_on_c, 9, 38, 0
1, 171840, Note_on_c, 9, 59, 100
1, 171840, Note_on_c, 9, 36, 115
1, 171853, Note_on_c, 9, 59, 0
1, 172079, Note_on_c, 9, 36, 0
1, 172080, Note_on_c, 9, 36, 115
1, 172319, Note_on_c, 9, 36, 0
1, 172320, Note_on_c, 9, 38, 115
1, 172320, Note_on_c, 9, 59, 100
1, 172333, Note_on_c, 9, 59, 0
1, 172560, Note_on_c, 9, 36, 115
1, 172799, Note_on_c, 9, 38, 0
1, 172799, Note_on_c, 9, 36, 0
1, 172800, Note_on_c, 9, 59, 100
1, 172800, Note_on_c, 9, 36, 115
1, 172813, Note_on_c, 9, 59, 0
1, 173279, Note_on_c, 9, 36, 0
1, 173280, Note_on_c, 9, 38, 115
1, 173280, Note_on_c, 9, 59, 100
1, 173293, Note_on_c, 9, 59, 0
1, 173759, Note_on_c, 9, 38, 0
1, 173760, Note_on_c, 9, 59, 100
1, 173760, Note_on_c, 9, 36, 115
1, 173773, Note_on_c, 9, 59, 0
1, 173999, Note_on_c, 9, 36, 0
1, 174000, Note_on_c, 9, 36, 115
1, 174239, Note_on_c, 9, 36, 0
1, 174240, Note_on_c, 9, 38, 115
1, 174240, Note_on_c, 9, 59, 100
1, 174253, Note_on_c, 9, 59, 0
1, 174480, Note_on_c, 9, 36, 115
1, 174719, Note_on_c, 9, 38, 0
1, 174719, Note_on_c, 9, 36, 0
1, 174720, Note_on_c, 9, 59, 100
1, 174720, Note_on_c, 9, 36, 115
1, 174733, Note_on_c, 9, 59, 0
1, 175199, Note_on_c, 9, 36, 0
1, 175200, Note_on_c, 9, 38, 115
1, 175200, Note_on_c, 9, 59, 100
1, 175213, Note_on_c, 9, 59, 0
1, 175679, Note_on_c, 9, 38, 0
1, 175680, Note_on_c, 9, 38, 115
1, 175680, Note_on_c, 9, 59, 100
1, 175693, Note_on_c, 9, 59, 0
1, 175920, Note_on_c, 9, 36, 115
1, 176159, Note_on_c, 9, 38, 0
1, 176159, Note_on_c, 9, 36, 0
1, 176160, Note_on_c, 9, 59, 100
1, 176160, Note_on_c, 9, 36, 115
1, 176173, Note_on_c, 9, 59, 0
1, 176279, Note_on_c, 9, 36, 0
1, 176280, Note_on_c, 9, 36, 115
1, 176399, Note_on_c, 9, 36, 0
1, 176400, Note_on_c, 9, 36, 115
1, 176639, Note_on_c, 9, 36, 0
1, 176640, Note_on_c, 9, 36, 115
1, 177119, Note_on_c, 9, 36, 0
1, 178080, Note_on_c, 9, 36, 115
1, 178559, Note_on_c, 9, 36, 0
1, 180000, Note_on_c, 9, 36, 115
1, 180239, Note_on_c, 9, 36, 0
1, 180240, Note_on_c, 9, 36, 115
1, 180479, Note_on_c, 9, 36, 0
1, 180480, Note_on_c, 9, 36, 115
1, 180959, Note_on_c, 9, 36, 0
1, 181920, Note_on_c, 9, 36, 115
1, 182399, Note_on_c, 9, 36, 0
1, 183840, Note_on_c, 9, 36, 115
1, 184079, Note_on_c, 9, 36, 0
1, 184080, Note_on_c, 9, 36, 115
1, 184319, Note_on_c, 9, 36, 0
1, 184320, Note_on_c, 9, 36, 115
1, 184799, Note_on_c, 9, 36, 0
1, 185760, Note_on_c, 9, 36, 115
1, 186239, Note_on_c, 9, 36, 0
1, 187680, Note_on_c, 9, 36, 115
1, 187919, Note_on_c, 9, 36, 0
1, 187920, Note_on_c, 9, 36, 115
1, 188159, Note_on_c, 9, 36, 0
1, 188160, Note_on_c, 9, 36, 115
1, 188639, Note_on_c, 9, 36, 0
1, 189600, Note_on_c, 9, 36, 100
1, 190079, Note_on_c, 9, 36, 0
1, 190080, Note_on_c, 9, 38, 100
1, 190080, Note_on_c, 9, 59, 100
1, 190080, Note_on_c, 9, 36, 100
1, 190093, Note_on_c, 9, 59, 0
1, 190319, Note_on_c, 9, 36, 0
1, 190320, Note_on_c, 9, 36, 100
1, 190559, Note_on_c, 9, 38, 0
1, 190559, Note_on_c, 9, 36, 0
1, 190560, Note_on_c, 9, 59, 100
1, 190560, Note_on_c, 9, 36, 100
1, 190573, Note_on_c, 9, 59, 0
1, 190799, Note_on_c, 9, 36, 0
1, 190800, Note_on_c, 9, 36, 100
1, 191039, Note_on_c, 9, 36, 0
1, 191040, Note_on_c, 9, 59, 100
1, 191040, Note_on_c, 9, 36, 100
1, 191053, Note_on_c, 9, 59, 0
1, 191279, Note_on_c, 9, 36, 0
1, 191280, Note_on_c, 9, 36, 100
1, 191519, Note_on_c, 9, 36, 0
1, 191520, Note_on_c, 9, 59, 100
1, 191520, Note_on_c, 9, 36, 100
1, 191533, Note_on_c, 9, 59, 0
1, 191759, Note_on_c, 9, 36, 0
1, 191760, Note_on_c, 9, 36, 100
1, 191999, Note_on_c, 9, 36, 0
1, 192000, Note_on_c, 9, 59, 100
1, 192000, Note_on_c, 9, 36, 100
1, 192013, Note_on_c, 9, 59, 0
1, 192239, Note_on_c, 9, 36, 0
1, 192240, Note_on_c, 9, 36, 100
1, 192479, Note_on_c, 9, 36, 0
1, 192480, Note_on_c, 9, 59, 100
1, 192480, Note_on_c, 9, 36, 100
1, 192493, Note_on_c, 9, 59, 0
1, 192719, Note_on_c, 9, 36, 0
1, 192720, Note_on_c, 9, 36, 100
1, 192959, Note_on_c, 9, 36, 0
1, 192960, Note_on_c, 9, 38, 100
1, 192960, Note_on_c, 9, 59, 100
1, 192960, Note_on_c, 9, 36, 100
1, 192973, Note_on_c, 9, 59, 0
1, 193199, Note_on_c, 9, 36, 0
1, 193200, Note_on_c, 9, 36, 100
1, 193439, Note_on_c, 9, 38, 0
1, 193439, Note_on_c, 9, 36, 0
1, 193440, Note_on_c, 9, 38, 100
1, 193440, Note_on_c, 9, 59, 100
1, 193440, Note_on_c, 9, 36, 100
1, 193442, Note_on_c, 9, 59, 0
1, 193559, Note_on_c, 9, 38, 0
1, 193559, Note_on_c, 9, 36, 0
1, 193560, Note_on_c, 9, 38, 100
1, 193560, Note_on_c, 9, 36, 100
1, 193679, Note_on_c, 9, 36, 0
1, 193680, Note_on_c, 9, 36, 100
1, 193919, Note_on_c, 9, 38, 0
1, 193919, Note_on_c, 9, 36, 0
1, 193920, Note_on_c, 9, 59, 100
1, 193920, Note_on_c, 9, 36, 115
1, 193933, Note_on_c, 9, 59, 0
1, 194399, Note_on_c, 9, 36, 0
1, 194400, Note_on_c, 9, 38, 115
1, 194400, Note_on_c, 9, 59, 100
1, 194413, Note_on_c, 9, 59, 0
1, 194879, Note_on_c, 9, 38, 0
1, 194880, Note_on_c, 9, 59, 100
1, 194880, Note_on_c, 9, 36, 115
1, 194893, Note_on_c, 9, 59, 0
1, 195119, Note_on_c, 9, 36, 0
1, 195120, Note_on_c, 9, 36, 115
1, 195359, Note_on_c, 9, 36, 0
1, 195360, Note_on_c, 9, 38, 115
1, 195360, Note_on_c, 9, 59, 100
1, 195373, Note_on_c, 9, 59, 0
1, 195600, Note_on_c, 9, 36, 115
1, 195839, Note_on_c, 9, 38, 0
1, 195839, Note_on_c, 9, 36, 0
1, 195840, Note_on_c, 9, 59, 100
1, 195840, Note_on_c, 9, 36, 115
1, 195853, Note_on_c, 9, 59, 0
1, 196319, Note_on_c, 9, 36, 0
1, 196320, Note_on_c, 9, 38, 115
1, 196320, Note_on_c, 9, 59, 100
1, 196333, Note_on_c, 9, 59, 0
1, 196799, Note_on_c, 9, 38, 0
1, 196800, Note_on_c, 9, 59, 100
1, 196800, Note_on_c, 9, 36, 115
1, 196813, Note_on_c, 9, 59, 0
1, 197039, Note_on_c, 9, 36, 0
1, 197040, Note_on_c, 9, 36, 115
1, 197279, Note_on_c, 9, 36, 0
1, 197280, Note_on_c, 9, 38, 115
1, 197280, Note_on_c, 9, 59, 100
1, 197293, Note_on_c, 9, 59, 0
1, 197520, Note_on_c, 9, 36, 115
1, 197759, Note_on_c, 9, 38, 0
1, 197759, Note_on_c, 9, 36, 0
1, 197760, Note_on_c, 9, 59, 100
1, 197760, Note_on_c, 9, 36, 115
1, 197773, Note_on_c, 9, 59, 0
1, 198239, Note_on_c, 9, 36, 0
1, 198240, Note_on_c, 9, 38, 115
1, 198240, Note_on_c, 9, 59, 100
1, 198253, Note_on_c, 9, 59, 0
1, 198719, Note_on_c, 9, 38, 0
1, 198720, Note_on_c, 9, 59, 100
1, 198720, Note_on_c, 9, 36, 115
1, 198733, Note_on_c, 9, 59, 0
1, 198959, Note_on_c, 9, 36, 0
1, 198960, Note_on_c, 9, 36, 115
1, 199199, Note_on_c, 9, 36, 0
1, 199200, Note_on_c, 9, 38, 115
1, 199200, Note_on_c, 9, 59, 100
1, 199213, Note_on_c, 9, 59, 0
1, 199440, Note_on_c, 9, 36, 115
1, 199679, Note_on_c, 9, 38, 0
1, 199679, Note_on_c, 9, 36, 0
1, 199680, Note_on_c, 9, 59, 100
1, 199680, Note_on_c, 9, 36, 115
1, 199693, Note_on_c, 9, 59, 0
1, 200159, Note_on_c, 9, 36, 0
1, 200160, Note_on_c, 9, 38, 115
1, 200160, Note_on_c, 9, 59, 100
1, 200173, Note_on_c, 9, 59, 0
1, 200639, Note_on_c, 9, 38, 0
1, 200640, Note_on_c, 9, 59, 100
1, 200640, Note_on_c, 9, 36, 115
1, 200653, Note_on_c, 9, 59, 0
1, 200879, Note_on_c, 9, 36, 0
1, 200880, Note_on_c, 9, 36, 115
1, 201119, Note_on_c, 9, 36, 0
1, 201120, Note_on_c, 9, 38, 115
1, 201120, Note_on_c, 9, 59, 100
1, 201122, Note_on_c, 9, 59, 0
1, 201239, Note_on_c, 9, 38, 0
1, 201240, Note_on_c, 9, 38, 115
1, 201360, Note_on_c, 9, 36, 115
1, 201599, Note_on_c, 9, 38, 0
1, 201599, Note_on_c, 9, 36, 0
1, 201600, Note_on_c, 9, 59, 100
1, 201600, Note_on_c, 9, 36, 115
1, 201613, Note_on_c, 9, 59, 0
1, 202079, Note_on_c, 9, 36, 0
1, 202080, Note_on_c, 9, 38, 115
1, 202080, Note_on_c, 9, 59, 100
1, 202093, Note_on_c, 9, 59, 0
1, 202559, Note_on_c, 9, 38, 0
1, 202560, Note_on_c, 9, 59, 100
1, 202560, Note_on_c, 9, 36, 115
1, 202573, Note_on_c, 9, 59, 0
1, 202799, Note_on_c, 9, 36, 0
1, 202800, Note_on_c, 9, 36, 115
1, 203039, Note_on_c, 9, 36, 0
1, 203040, Note_on_c, 9, 38, 115
1, 203040, Note_on_c, 9, 59, 100
1, 203053, Note_on_c, 9, 59, 0
1, 203280, Note_on_c, 9, 36, 115
1, 203519, Note_on_c, 9, 38, 0
1, 203519, Note_on_c, 9, 36, 0
1, 203520, Note_on_c, 9, 59, 100
1, 203520, Note_on_c, 9, 36, 115
1, 203533, Note_on_c, 9, 59, 0
1, 203999, Note_on_c, 9, 36, 0
1, 204000, Note_on_c, 9, 38, 115
1, 204000, Note_on_c, 9, 59, 100
1, 204013, Note_on_c, 9, 59, 0
1, 204479, Note_on_c, 9, 38, 0
1, 204480, Note_on_c, 9, 59, 100
1, 204480, Note_on_c, 9, 36, 115
1, 204493, Note_on_c, 9, 59, 0
1, 204719, Note_on_c, 9, 36, 0
1, 204720, Note_on_c, 9, 36, 115
1, 204959, Note_on_c, 9, 36, 0
1, 204960, Note_on_c, 9, 38, 115
1, 204960, Note_on_c, 9, 59, 100
1, 204973, Note_on_c, 9, 59, 0
1, 205200, Note_on_c, 9, 36, 115
1, 205439, Note_on_c, 9, 38, 0
1, 205439, Note_on_c, 9, 36, 0
1, 205440, Note_on_c, 9, 59, 100
1, 205440, Note_on_c, 9, 36, 115
1, 205453, Note_on_c, 9, 59, 0
1, 205919, Note_on_c, 9, 36, 0
1, 205920, Note_on_c, 9, 38, 115
1, 205920, Note_on_c, 9, 59, 100
1, 205933, Note_on_c, 9, 59, 0
1, 206399, Note_on_c, 9, 38, 0
1, 206400, Note_on_c, 9, 59, 100
1, 206400, Note_on_c, 9, 36, 115
1, 206413, Note_on_c, 9, 59, 0
1, 206639, Note_on_c, 9, 36, 0
1, 206640, Note_on_c, 9, 36, 115
1, 206879, Note_on_c, 9, 36, 0
1, 206880, Note_on_c, 9, 38, 115
1, 206880, Note_on_c, 9, 59, 100
1, 206893, Note_on_c, 9, 59, 0
1, 207120, Note_on_c, 9, 36, 115
1, 207359, Note_on_c, 9, 38, 0
1, 207359, Note_on_c, 9, 36, 0
1, 207360, Note_on_c, 9, 59, 100
1, 207360, Note_on_c, 9, 36, 115
1, 207373, Note_on_c, 9, 59, 0
1, 207839, Note_on_c, 9, 36, 0
1, 207840, Note_on_c, 9, 38, 115
1, 207840, Note_on_c, 9, 59, 100
1, 207853, Note_on_c, 9, 59, 0
1, 208319, Note_on_c, 9, 38, 0
1, 208320, Note_on_c, 9, 38, 115
1, 208320, Note_on_c, 9, 59, 100
1, 208329, Note_on_c, 9, 59, 0
1, 208679, Note_on_c, 9, 38, 0
1, 208680, Note_on_c, 9, 38, 115
1, 208799, Note_on_c, 9, 38, 0
1, 208800, Note_on_c, 9, 38, 115
1, 208800, Note_on_c, 9, 59, 100
1, 208813, Note_on_c, 9, 59, 0
1, 209040, Note_on_c, 9, 36, 115
1, 209279, Note_on_c, 9, 38, 0
1, 209279, Note_on_c, 9, 36, 0
1, 209280, Note_on_c, 9, 59, 100
1, 209280, Note_on_c, 9, 36, 115
1, 209293, Note_on_c, 9, 59, 0
1, 209759, Note_on_c, 9, 36, 0
1, 209760, Note_on_c, 9, 38, 115
1, 209760, Note_on_c, 9, 59, 100
1, 209773, Note_on_c, 9, 59, 0
1, 210239, Note_on_c, 9, 38, 0
1, 210240, Note_on_c, 9, 59, 100
1, 210240, Note_on_c, 9, 36, 115
1, 210253, Note_on_c, 9, 59, 0
1, 210479, Note_on_c, 9, 36, 0
1, 210480, Note_on_c, 9, 36, 115
1, 210719, Note_on_c, 9, 36, 0
1, 210720, Note_on_c, 9, 38, 115
1, 210720, Note_on_c, 9, 59, 100
1, 210733, Note_on_c, 9, 59, 0
1, 210960, Note_on_c, 9, 36, 115
1, 211199, Note_on_c, 9, 38, 0
1, 211199, Note_on_c, 9, 36, 0
1, 211200, Note_on_c, 9, 59, 100
1, 211200, Note_on_c, 9, 36, 115
1, 211213, Note_on_c, 9, 59, 0
1, 211679, Note_on_c, 9, 36, 0
1, 211680, Note_on_c, 9, 38, 115
1, 211680, Note_on_c, 9, 59, 100
1, 211693, Note_on_c, 9, 59, 0
1, 212159, Note_on_c, 9, 38, 0
1, 212160, Note_on_c, 9, 59, 100
1, 212160, Note_on_c, 9, 36, 115
1, 212173, Note_on_c, 9, 59, 0
1, 212399, Note_on_c, 9, 36, 0
1, 212400, Note_on_c, 9, 36, 115
1, 212639, Note_on_c, 9, 36, 0
1, 212640, Note_on_c, 9, 38, 115
1, 212640, Note_on_c, 9, 59, 100
1, 212653, Note_on_c, 9, 59, 0
1, 212880, Note_on_c, 9, 36, 115
1, 213119, Note_on_c, 9, 38, 0
1, 213119, Note_on_c, 9, 36, 0
1, 213120, Note_on_c, 9, 59, 100
1, 213120, Note_on_c, 9, 36, 115
1, 213133, Note_on_c, 9, 59, 0
1, 213599, Note_on_c, 9, 36, 0
1, 213600, Note_on_c, 9, 38, 115
1, 213600, Note_on_c, 9, 59, 100
1, 213613, Note_on_c, 9, 59, 0
1, 214079, Note_on_c, 9, 38, 0
1, 214080, Note_on_c, 9, 59, 100
1, 214080, Note_on_c, 9, 36, 115
1, 214093, Note_on_c, 9, 59, 0
1, 214319, Note_on_c, 9, 36, 0
1, 214320, Note_on_c, 9, 36, 115
1, 214559, Note_on_c, 9, 36, 0
1, 214560, Note_on_c, 9, 38, 115
1, 214560, Note_on_c, 9, 59, 100
1, 214573, Note_on_c, 9, 59, 0
1, 214800, Note_on_c, 9, 36, 115
1, 215039, Note_on_c, 9, 38, 0
1, 215039, Note_on_c, 9, 36, 0
1, 215040, Note_on_c, 9, 59, 100
1, 215040, Note_on_c, 9, 36, 115
1, 215053, Note_on_c, 9, 59, 0
1, 215519, Note_on_c, 9, 36, 0
1, 215520, Note_on_c, 9, 38, 115
1, 215520, Note_on_c, 9, 59, 100
1, 215533, Note_on_c, 9, 59, 0
1, 215999, Note_on_c, 9, 38, 0
1, 216000, Note_on_c, 9, 38, 115
1, 216000, Note_on_c, 9, 59, 100
1, 216006, Note_on_c, 9, 59, 0
1, 216239, Note_on_c, 9, 38, 0
1, 216240, Note_on_c, 9, 38, 115
1, 216479, Note_on_c, 9, 38, 0
1, 216480, Note_on_c, 9, 59, 100
1, 216480, Note_on_c, 9, 36, 115
1, 216493, Note_on_c, 9, 59, 0
1, 216599, Note_on_c, 9, 36, 0
1, 216600, Note_on_c, 9, 36, 115
1, 216719, Note_on_c, 9, 36, 0
1, 216720, Note_on_c, 9, 36, 115
1, 216959, Note_on_c, 9, 36, 0
1, 216960, Note_on_c, 9, 59, 100
1, 216960, Note_on_c, 9, 36, 115
1, 216973, Note_on_c, 9, 59, 0
1, 217439, Note_on_c, 9, 36, 0
1, 217440, Note_on_c, 9, 38, 115
1, 217440, Note_on_c, 9, 59, 100
1, 217453, Note_on_c, 9, 59, 0
1, 217919, Note_on_c, 9, 38, 0
1, 217920, Note_on_c, 9, 59, 100
1, 217920, Note_on_c, 9, 36, 115
1, 217933, Note_on_c, 9, 59, 0
1, 218159, Note_on_c, 9, 36, 0
1, 218160, Note_on_c, 9, 36, 115
1, 218399, Note_on_c, 9, 36, 0
1, 218400, Note_on_c, 9, 38, 115
1, 218400, Note_on_c, 9, 59, 100
1, 218413, Note_on_c, 9, 59, 0
1, 218640, Note_on_c, 9, 36, 115
1, 218879, Note_on_c, 9, 38, 0
1, 218879, Note_on_c, 9, 36, 0
1, 218880, Note_on_c, 9, 59, 100
1, 218880, Note_on_c, 9, 36, 115
1, 218893, Note_on_c, 9, 59, 0
1, 219359, Note_on_c, 9, 36, 0
1, 219360, Note_on_c, 9, 38, 115
1, 219360, Note_on_c, 9, 59, 100
1, 219373, Note_on_c, 9, 59, 0
1, 219839, Note_on_c, 9, 38, 0
1, 219840, Note_on_c, 9, 59, 100
1, 219840, Note_on_c, 9, 36, 115
1, 219853, Note_on_c, 9, 59, 0
1, 220079, Note_on_c, 9, 36, 0
1, 220080, Note_on_c, 9, 36, 115
1, 220319, Note_on_c, 9, 36, 0
1, 220320, Note_on_c, 9, 38, 115
1, 220320, Note_on_c, 9, 59, 100
1, 220333, Note_on_c, 9, 59, 0
1, 220560, Note_on_c, 9, 36, 115
1, 220799, Note_on_c, 9, 38, 0
1, 220799, Note_on_c, 9, 36, 0
1, 220800, Note_on_c, 9, 59, 100
1, 220800, Note_on_c, 9, 36, 115
1, 220813, Note_on_c, 9, 59, 0
1, 221279, Note_on_c, 9, 36, 0
1, 221280, Note_on_c, 9, 38, 115
1, 221280, Note_on_c, 9, 59, 100
1, 221293, Note_on_c, 9, 59, 0
1, 221759, Note_on_c, 9, 38, 0
1, 221760, Note_on_c, 9, 59, 100
1, 221760, Note_on_c, 9, 36, 115
1, 221773, Note_on_c, 9, 59, 0
1, 221999, Note_on_c, 9, 36, 0
1, 222000, Note_on_c, 9, 36, 115
1, 222239, Note_on_c, 9, 36, 0
1, 222240, Note_on_c, 9, 38, 115
1, 222240, Note_on_c, 9, 59, 100
1, 222253, Note_on_c, 9, 59, 0
1, 222480, Note_on_c, 9, 36, 115
1, 222719, Note_on_c, 9, 38, 0
1, 222719, Note_on_c, 9, 36, 0
1, 222720, Note_on_c, 9, 59, 100
1, 222720, Note_on_c, 9, 36, 115
1, 222733, Note_on_c, 9, 59, 0
1, 223199, Note_on_c, 9, 36, 0
1, 223200, Note_on_c, 9, 38, 115
1, 223200, Note_on_c, 9, 59, 100
1, 223213, Note_on_c, 9, 59, 0
1, 223679, Note_on_c, 9, 38, 0
1, 223680, Note_on_c, 9, 38, 115
1, 223680, Note_on_c, 9, 59, 100
1, 223693, Note_on_c, 9, 59, 0
1, 224040, Note_on_c, 9, 36, 115
1, 224159, Note_on_c, 9, 38, 0
1, 224159, Note_on_c, 9, 36, 0
1, 224160, Note_on_c, 9, 59, 100
1, 224160, Note_on_c, 9, 36, 115
1, 224173, Note_on_c, 9, 59, 0
1, 224399, Note_on_c, 9, 36, 0
1, 224400, Note_on_c, 9, 36, 115
1, 224639, Note_on_c, 9, 36, 0
1, 224640, Note_on_c, 9, 59, 100
1, 224640, Note_on_c, 9, 36, 115
1, 224653, Note_on_c, 9, 59, 0
1, 225119, Note_on_c, 9, 36, 0
1, 225120, Note_on_c, 9, 38, 115
1, 225120, Note_on_c, 9, 59, 100
1, 225133, Note_on_c, 9, 59, 0
1, 225599, Note_on_c, 9, 38, 0
1, 225600, Note_on_c, 9, 59, 100
1, 225600, Note_on_c, 9, 36, 115
1, 225613, Note_on_c, 9, 59, 0
1, 225839, Note_on_c, 9, 36, 0
1, 225840, Note_on_c, 9, 36, 115
1, 226079, Note_on_c, 9, 36, 0
1, 226080, Note_on_c, 9, 38, 115
1, 226080, Note_on_c, 9, 59, 100
1, 226093, Note_on_c, 9, 59, 0
1, 226320, Note_on_c, 9, 36, 115
1, 226559, Note_on_c, 9, 38, 0
1, 226559, Note_on_c, 9, 36, 0
1, 226560, Note_on_c, 9, 59, 100
1, 226560, Note_on_c, 9, 36, 115
1, 226573, Note_on_c, 9, 59, 0
1, 227039, Note_on_c, 9, 36, 0
1, 227040, Note_on_c, 9, 38, 115
1, 227040, Note_on_c, 9, 59, 100
1, 227053, Note_on_c, 9, 59, 0
1, 227519, Note_on_c, 9, 38, 0
1, 227520, Note_on_c, 9, 59, 100
1, 227520, Note_on_c, 9, 36, 115
1, 227533, Note_on_c, 9, 59, 0
1, 227759, Note_on_c, 9, 36, 0
1, 227760, Note_on_c, 9, 36, 115
1, 227999, Note_on_c, 9, 36, 0
1, 228000, Note_on_c, 9, 38, 115
1, 228000, Note_on_c, 9, 59, 100
1, 228013, Note_on_c, 9, 59, 0
1, 228240, Note_on_c, 9, 36, 115
1, 228479, Note_on_c, 9, 38, 0
1, 228479, Note_on_c, 9, 36, 0
1, 228480, Note_on_c, 9, 59, 100
1, 228480, Note_on_c, 9, 36, 115
1, 228493, Note_on_c, 9, 59, 0
1, 228959, Note_on_c, 9, 36, 0
1, 228960, Note_on_c, 9, 38, 115
1, 228960, Note_on_c, 9, 59, 100
1, 228973, Note_on_c, 9, 59, 0
1, 229439, Note_on_c, 9, 38, 0
1, 229440, Note_on_c, 9, 59, 100
1, 229440, Note_on_c, 9, 36, 115
1, 229453, Note_on_c, 9, 59, 0
1, 229679, Note_on_c, 9, 36, 0
1, 229680, Note_on_c, 9, 36, 115
1, 229919, Note_on_c, 9, 36, 0
1, 229920, Note_on_c, 9, 38, 115
1, 229920, Note_on_c, 9, 59, 100
1, 229933, Note_on_c, 9, 59, 0
1, 230160, Note_on_c, 9, 36, 115
1, 230399, Note_on_c, 9, 38, 0
1, 230399, Note_on_c, 9, 36, 0
1, 230400, Note_on_c, 9, 59, 100
1, 230400, Note_on_c, 9, 36, 115
1, 230413, Note_on_c, 9, 59, 0
1, 230879, Note_on_c, 9, 36, 0
1, 230880, Note_on_c, 9, 38, 115
1, 230880, Note_on_c, 9, 59, 100
1, 230893, Note_on_c, 9, 59, 0
1, 231359, Note_on_c, 9, 38, 0
1, 231360, Note_on_c, 9, 38, 115
1, 231360, Note_on_c, 9, 59, 100
1, 231369, Note_on_c, 9, 59, 0
1, 231719, Note_on_c, 9, 38, 0
1, 231720, Note_on_c, 9, 38, 115
1, 231839, Note_on_c, 9, 38, 0
1, 231840, Note_on_c, 9, 38, 115
1, 231840, Note_on_c, 9, 59, 100
1, 231853, Note_on_c, 9, 59, 0
1, 232080, Note_on_c, 9, 36, 115
1, 232319, Note_on_c, 9, 38, 0
1, 232319, Note_on_c, 9, 36, 0
1, 232320, Note_on_c, 9, 59, 100
1, 232320, Note_on_c, 9, 36, 115
1, 232333, Note_on_c, 9, 59, 0
1, 232799, Note_on_c, 9, 36, 0
1, 232800, Note_on_c, 9, 38, 115
1, 232800, Note_on_c, 9, 59, 100
1, 232813, Note_on_c, 9, 59, 0
1, 233279, Note_on_c, 9, 38, 0
1, 233280, Note_on_c, 9, 59, 100
1, 233280, Note_on_c, 9, 36, 115
1, 233293, Note_on_c, 9, 59, 0
1, 233519, Note_on_c, 9, 36, 0
1, 233520, Note_on_c, 9, 36, 115
1, 233759, Note_on_c, 9, 36, 0
1, 233760, Note_on_c, 9, 38, 115
1, 233760, Note_on_c, 9, 59, 100
1, 233773, Note_on_c, 9, 59, 0
1, 234000, Note_on_c, 9, 36, 115
1, 234239, Note_on_c, 9, 38, 0
1, 234239, Note_on_c, 9, 36, 0
1, 234240, Note_on_c, 9, 59, 100
1, 234240, Note_on_c, 9, 36, 115
1, 234253, Note_on_c, 9, 59, 0
1, 234719, Note_on_c, 9, 36, 0
1, 234720, Note_on_c, 9, 38, 115
1, 234720, Note_on_c, 9, 59, 100
1, 234733, Note_on_c, 9, 59, 0
1, 235199, Note_on_c, 9, 38, 0
1, 235200, Note_on_c, 9, 38, 115
1, 235200, Note_on_c, 9, 59, 100
1, 235213, Note_on_c, 9, 59, 0
1, 235440, Note_on_c, 9, 36, 115
1, 235679, Note_on_c, 9, 38, 0
1, 235679, Note_on_c, 9, 36, 0
1, 235680, Note_on_c, 9, 59, 100
1, 235680, Note_on_c, 9, 36, 115
1, 235693, Note_on_c, 9, 59, 0
1, 235799, Note_on_c, 9, 36, 0
1, 235800, Note_on_c, 9, 36, 115
1, 235919, Note_on_c, 9, 36, 0
1, 235920, Note_on_c, 9, 36, 115
1, 236159, Note_on_c, 9, 36, 0
1, 236160, Note_on_c, 9, 59, 100
1, 236160, Note_on_c, 9, 36, 115
1, 236173, Note_on_c, 9, 59, 0
1, 236639, Note_on_c, 9, 36, 0
1, 236640, Note_on_c, 9, 38, 115
1, 236640, Note_on_c, 9, 59, 100
1, 236653, Note_on_c, 9, 59, 0
1, 237119, Note_on_c, 9, 38, 0
1, 237120, Note_on_c, 9, 59, 100
1, 237120, Note_on_c, 9, 36, 115
1, 237133, Note_on_c, 9, 59, 0
1, 237599, Note_on_c, 9, 36, 0
1, 237600, Note_on_c, 9, 38, 115
1, 237600, Note_on_c, 9, 59, 100
1, 237613, Note_on_c, 9, 59, 0
1, 238079, Note_on_c, 9, 38, 0
1, 238080, Note_on_c, 9, 59, 100
1, 238080, Note_on_c, 9, 36, 115
1, 238093, Note_on_c, 9, 59, 0
1, 238559, Note_on_c, 9, 36, 0
1, 238560, Note_on_c, 9, 38, 115
1, 238560, Note_on_c, 9, 59, 100
1, 238573, Note_on_c, 9, 59, 0
1, 239039, Note_on_c, 9, 38, 0
1, 239040, Note_on_c, 9, 38, 115
1, 239040, Note_on_c, 9, 59, 100
1, 239053, Note_on_c, 9, 59, 0
1, 239280, Note_on_c, 9, 36, 115
1, 239519, Note_on_c, 9, 38, 0
1, 239519, Note_on_c, 9, 36, 0
1, 239520, Note_on_c, 9, 59, 100
1, 239520, Note_on_c, 9, 36, 115
1, 239533, Note_on_c, 9, 59, 0
1, 239639, Note_on_c, 9, 36, 0
1, 239640, Note_on_c, 9, 36, 115
1, 239759, Note_on_c, 9, 36, 0
1, 239760, Note_on_c, 9, 36, 115
1, 239999, Note_on_c, 9, 36, 0
1, 240000, Note_on_c, 9, 59, 100
1, 240000, Note_on_c, 9, 36, 115
1, 240013, Note_on_c, 9, 59, 0
1, 240479, Note_on_c, 9, 36, 0
1, 240480, Note_on_c, 9, 38, 115
1, 240480, Note_on_c, 9, 59, 100
1, 240493, Note_on_c, 9, 59, 0
1, 240959, Note_on_c, 9, 38, 0
1, 240960, Note_on_c, 9, 59, 100
1, 240960, Note_on_c, 9, 36, 115
1, 240973, Note_on_c, 9, 59, 0
1, 241439, Note_on_c, 9, 36, 0
1, 241440, Note_on_c, 9, 38, 115
1, 241440, Note_on_c, 9, 59, 100
1, 241453, Note_on_c, 9, 59, 0
1, 241919, Note_on_c, 9, 38, 0
1, 241920, Note_on_c, 9, 59, 100
1, 241920, Note_on_c, 9, 36, 115
1, 241926, Note_on_c, 9, 59, 0
1, 242159, Note_on_c, 9, 36, 0
1, 242160, Note_on_c, 9, 38, 115
1, 242160, Note_on_c, 9, 36, 115
1, 242399, Note_on_c, 9, 38, 0
1, 242399, Note_on_c, 9, 36, 0
1, 242400, Note_on_c, 9, 59, 100
1, 242413, Note_on_c, 9, 59, 0
1, 242520, Note_on_c, 9, 36, 115
1, 242879, Note_on_c, 9, 36, 0
1, 242880, Note_on_c, 9, 38, 115
1, 242880, Note_on_c, 9, 59, 100
1, 242893, Note_on_c, 9, 59, 0
1, 243120, Note_on_c, 9, 36, 115
1, 243359, Note_on_c, 9, 38, 0
1, 243359, Note_on_c, 9, 36, 0
1, 243360, Note_on_c, 9, 59, 100
1, 243360, Note_on_c, 9, 36, 115
1, 243373, Note_on_c, 9, 59, 0
1, 243479, Note_on_c, 9, 36, 0
1, 243480, Note_on_c, 9, 36, 115
1, 243599, Note_on_c, 9, 36, 0
1, 243600, Note_on_c, 9, 36, 115
1, 243839, Note_on_c, 9, 36, 0
1, 243840, Note_on_c, 9, 59, 100
1, 243840, Note_on_c, 9, 36, 115
1, 243853, Note_on_c, 9, 59, 0
1, 244319, Note_on_c, 9, 36, 0
1, 244320, Note_on_c, 9, 38, 115
1, 244320, Note_on_c, 9, 59, 100
1, 244333, Note_on_c, 9, 59, 0
1, 244799, Note_on_c, 9, 38, 0
1, 244800, Note_on_c, 9, 59, 100
1, 244800, Note_on_c, 9, 36, 115
1, 244813, Note_on_c, 9, 59, 0
1, 245279, Note_on_c, 9, 36, 0
1, 245280, Note_on_c, 9, 38, 115
1, 245280, Note_on_c, 9, 59, 100
1, 245293, Note_on_c, 9, 59, 0
1, 245759, Note_on_c, 9, 38, 0
1, 245760, Note_on_c, 9, 59, 100
1, 245760, Note_on_c, 9, 36, 115
1, 245773, Note_on_c, 9, 59, 0
1, 246239, Note_on_c, 9, 36, 0
1, 246240, Note_on_c, 9, 38, 115
1, 246240, Note_on_c, 9, 59, 100
1, 246253, Note_on_c, 9, 59, 0
1, 246719, Note_on_c, 9, 38, 0
1, 246720, Note_on_c, 9, 38, 115
1, 246720, Note_on_c, 9, 59, 100
1, 246733, Note_on_c, 9, 59, 0
1, 246960, Note_on_c, 9, 36, 115
1, 247199, Note_on_c, 9, 38, 0
1, 247199, Note_on_c, 9, 36, 0
1, 247200, Note_on_c, 9, 59, 100
1, 247200, Note_on_c, 9, 36, 115
1, 247213, Note_on_c, 9, 59, 0
1, 247319, Note_on_c, 9, 36, 0
1, 247320, Note_on_c, 9, 36, 115
1, 247439, Note_on_c, 9, 36, 0
1, 247440, Note_on_c, 9, 36, 115
1, 247679, Note_on_c, 9, 36, 0
1, 247680, Note_on_c, 9, 59, 100
1, 247680, Note_on_c, 9, 36, 115
1, 247693, Note_on_c, 9, 59, 0
1, 248159, Note_on_c, 9, 36, 0
1, 248160, Note_on_c, 9, 38, 115
1, 248160, Note_on_c, 9, 59, 100
1, 248173, Note_on_c, 9, 59, 0
1, 248639, Note_on_c, 9, 38, 0
1, 248640, Note_on_c, 9, 59, 100
1, 248640, Note_on_c, 9, 36, 115
1, 248653, Note_on_c, 9, 59, 0
1, 248879, Note_on_c, 9, 36, 0
1, 248880, Note_on_c, 9, 36, 115
1, 249119, Note_on_c, 9, 36, 0
1, 249120, Note_on_c, 9, 38, 115
1, 249120, Note_on_c, 9, 59, 100
1, 249133, Note_on_c, 9, 59, 0
1, 249599, Note_on_c, 9, 38, 0
1, 249600, Note_on_c, 9, 59, 100
1, 249600, Note_on_c, 9, 36, 115
1, 249613, Note_on_c, 9, 59, 0
1, 250079, Note_on_c, 9, 36, 0
1, 250080, Note_on_c, 9, 38, 115
1, 250080, Note_on_c, 9, 59, 100
1, 250093, Note_on_c, 9, 59, 0
1, 250559, Note_on_c, 9, 38, 0
1, 250560, Note_on_c, 9, 38, 115
1, 250560, Note_on_c, 9, 59, 100
1, 250573, Note_on_c, 9, 59, 0
1, 250800, Note_on_c, 9, 36, 115
1, 251039, Note_on_c, 9, 38, 0
1, 251039, Note_on_c, 9, 36, 0
1, 251040, Note_on_c, 9, 59, 100
1, 251040, Note_on_c, 9, 36, 115
1, 251053, Note_on_c, 9, 59, 0
1, 251159, Note_on_c, 9, 36, 0
1, 251160, Note_on_c, 9, 36, 115
1, 251279, Note_on_c, 9, 36, 0
1, 251280, Note_on_c, 9, 36, 115
1, 251519, Note_on_c, 9, 36, 0
1, 251520, Note_on_c, 9, 38, 100
1, 251520, Note_on_c, 9, 59, 100
1, 251520, Note_on_c, 9, 57, 115
1, 251520, Note_on_c, 9, 36, 115
1, 251533, Note_on_c, 9, 59, 0
1, 251533, Note_on_c, 9, 57, 0
1, 251999, Note_on_c, 9, 38, 0
1, 251999, Note_on_c, 9, 36, 0
1, 252000, Tempo, 2222222
1, 252160, Tempo, 2307692
1, 253384, Tempo, 625000
1, 255120, Note_on_c, 9, 40, 100
1, 255239, Note_on_c, 9, 40, 0
1, 255240, Note_on_c, 9, 40, 100
1, 255359, Note_on_c, 9, 40, 0
1, 255360, Note_on_c, 9, 40, 100
1, 255599, Note_on_c, 9, 40, 0
1, 255600, Note_on_c, 9, 40, 100
1, 255839, Note_on_c, 9, 40, 0
1, 255840, Note_on_c, 9, 40, 100
1, 256079, Note_on_c, 9, 40, 0
1, 256080, Note_on_c, 9, 40, 100
1, 256199, Note_on_c, 9, 40, 0
1, 256200, Note_on_c, 9, 40, 100
1, 256319, Note_on_c, 9, 40, 0
1, 256320, Note_on_c, 9, 36, 100
1, 256440, Note_on_c, 9, 40, 100
1, 256559, Note_on_c, 9, 40, 0
1, 256560, Note_on_c, 9, 40, 100
1, 256679, Note_on_c, 9, 36, 0
1, 256680, Note_on_c, 9, 36, 100
1, 256799, Note_on_c, 9, 40, 0
1, 256799, Note_on_c, 9, 36, 0
1, 256800, Note_on_c, 9, 40, 100
1, 257039, Note_on_c, 9, 40, 0
1, 257040, Note_on_c, 9, 40, 100
1, 257159, Note_on_c, 9, 40, 0
1, 257160, Note_on_c, 9, 40, 100
1, 257279, Note_on_c, 9, 40, 0
1, 257280, Note_on_c, 9, 40, 100
1, 257519, Note_on_c, 9, 40, 0
1, 257520, Note_on_c, 9, 40, 100
1, 257759, Note_on_c, 9, 40, 0
1, 257760, Note_on_c, 9, 40, 100
1, 257999, Note_on_c, 9, 40, 0
1, 258000, Note_on_c, 9, 40, 100
1, 258119, Note_on_c, 9, 40, 0
1, 258120, Note_on_c, 9, 40, 100
1, 258239, Note_on_c, 9, 40, 0
1, 258240, Note_on_c, 9, 36, 100
1, 258360, Note_on_c, 9, 40, 100
1, 258419, Note_on_c, 9, 40, 0
1, 258420, Note_on_c, 9, 40, 100
1, 258479, Note_on_c, 9, 40, 0
1, 258480, Note_on_c, 9, 40, 100
1, 258539, Note_on_c, 9, 40, 0
1, 258540, Note_on_c, 9, 40, 100
1, 258599, Note_on_c, 9, 36, 0
1, 258600, Note_on_c, 9, 36, 100
1, 258719, Note_on_c, 9, 40, 0
1, 258719, Note_on_c, 9, 36, 0
1, 258720, Note_on_c, 9, 40, 100
1, 258959, Note_on_c, 9, 40, 0
1, 258960, Note_on_c, 9, 40, 100
1, 259079, Note_on_c, 9, 40, 0
1, 259080, Note_on_c, 9, 40, 100
1, 259199, Note_on_c, 9, 40, 0
1, 259200, Note_on_c, 9, 40, 100
1, 259439, Note_on_c, 9, 40, 0
1, 259440, Note_on_c, 9, 40, 100
1, 259679, Note_on_c, 9, 40, 0
1, 259680, Note_on_c, 9, 40, 100
1, 259919, Note_on_c, 9, 40, 0
1, 259920, Note_on_c, 9, 40, 100
1, 259979, Note_on_c, 9, 40, 0
1, 259980, Note_on_c, 9, 40, 100
1, 260039, Note_on_c, 9, 40, 0
1, 260040, Note_on_c, 9, 40, 100
1, 260099, Note_on_c, 9, 40, 0
1, 260100, Note_on_c, 9, 40, 100
1, 260159, Note_on_c, 9, 40, 0
1, 260160, Note_on_c, 9, 36, 100
1, 260280, Note_on_c, 9, 40, 100
1, 260339, Note_on_c, 9, 40, 0
1, 260340, Note_on_c, 9, 40, 100
1, 260399, Note_on_c, 9, 40, 0
1, 260400, Note_on_c, 9, 40, 100
1, 260459, Note_on_c, 9, 40, 0
1, 260460, Note_on_c, 9, 40, 100
1, 260519, Note_on_c, 9, 36, 0
1, 260520, Note_on_c, 9, 36, 100
1, 260639, Note_on_c, 9, 40, 0
1, 260639, Note_on_c, 9, 36, 0
1, 260640, Note_on_c, 9, 40, 100
1, 260879, Note_on_c, 9, 40, 0
1, 260880, Note_on_c, 9, 40, 100
1, 260999, Note_on_c, 9, 40, 0
1, 261000, Note_on_c, 9, 40, 100
1, 261119, Note_on_c, 9, 40, 0
1, 261120, Note_on_c, 9, 40, 100
1, 261359, Note_on_c, 9, 40, 0
1, 261360, Note_on_c, 9, 40, 100
1, 261599, Note_on_c, 9, 40, 0
1, 261600, Note_on_c, 9, 40, 100
1, 261719, Note_on_c, 9, 40, 0
1, 261720, Note_on_c, 9, 40, 100
1, 261839, Note_on_c, 9, 40, 0
1, 261840, Note_on_c, 9, 40, 100
1, 261899, Note_on_c, 9, 40, 0
1, 261900, Note_on_c, 9, 40, 100
1, 261959, Note_on_c, 9, 40, 0
1, 261960, Note_on_c, 9, 40, 100
1, 262019, Note_on_c, 9, 40, 0
1, 262020, Note_on_c, 9, 40, 100
1, 262079, Note_on_c, 9, 40, 0
1, 262080, Note_on_c, 9, 36, 100
1, 262200, Note_on_c, 9, 40, 100
1, 262259, Note_on_c, 9, 40, 0
1, 262260, Note_on_c, 9, 40, 100
1, 262319, Note_on_c, 9, 40, 0
1, 262320, Note_on_c, 9, 40, 100
1, 262379, Note_on_c, 9, 40, 0
1, 262380, Note_on_c, 9, 40, 100
1, 262439, Note_on_c, 9, 36, 0
1, 262440, Note_on_c, 9, 36, 100
1, 262559, Note_on_c, 9, 40, 0
1, 262559, Note_on_c, 9, 36, 0
1, 262560, Note_on_c, 9, 40, 100
1, 262799, Note_on_c, 9, 40, 0
1, 262800, Note_on_c, 9, 40, 100
1, 262919, Note_on_c, 9, 40, 0
1, 262920, Note_on_c, 9, 40, 100
1, 263039, Note_on_c, 9, 40, 0
1, 263040, Note_on_c, 9, 40, 100
1, 263279, Note_on_c, 9, 40, 0
1, 263280, Note_on_c, 9, 40, 100
1, 263519, Note_on_c, 9, 40, 0
1, 263520, Note_on_c, 9, 40, 100
1, 263639, Note_on_c, 9, 40, 0
1, 263640, Note_on_c, 9, 40, 100
1, 263759, Note_on_c, 9, 40, 0
1, 263760, Note_on_c, 9, 40, 100
1, 263819, Note_on_c, 9, 40, 0
1, 263820, Note_on_c, 9, 40, 100
1, 263879, Note_on_c, 9, 40, 0
1, 263880, Note_on_c, 9, 40, 100
1, 263939, Note_on_c, 9, 40, 0
1, 263940, Note_on_c, 9, 40, 100
1, 263999, Note_on_c, 9, 40, 0
1, 264000, Note_on_c, 9, 36, 100
1, 264120, Note_on_c, 9, 40, 100
1, 264179, Note_on_c, 9, 40, 0
1, 264180, Note_on_c, 9, 40, 100
1, 264239, Note_on_c, 9, 40, 0
1, 264240, Note_on_c, 9, 40, 100
1, 264299, Note_on_c, 9, 40, 0
1, 264300, Note_on_c, 9, 40, 100
1, 264359, Note_on_c, 9, 36, 0
1, 264360, Note_on_c, 9, 36, 100
1, 264479, Note_on_c, 9, 40, 0
1, 264479, Note_on_c, 9, 36, 0
1, 264480, Note_on_c, 9, 40, 100
1, 264719, Note_on_c, 9, 40, 0
1, 264720, Note_on_c, 9, 40, 100
1, 264839, Note_on_c, 9, 40, 0
1, 264840, Note_on_c, 9, 40, 100
1, 264959, Note_on_c, 9, 40, 0
1, 264960, Note_on_c, 9, 40, 100
1, 265199, Note_on_c, 9, 40, 0
1, 265200, Note_on_c, 9, 40, 100
1, 265439, Note_on_c, 9, 40, 0
1, 265440, Note_on_c, 9, 40, 100
1, 265559, Note_on_c, 9, 40, 0
1, 265560, Note_on_c, 9, 40, 100
1, 265679, Note_on_c, 9, 40, 0
1, 265680, Note_on_c, 9, 40, 100
1, 265739, Note_on_c, 9, 40, 0
1, 265740, Note_on_c, 9, 40, 100
1, 265799, Note_on_c, 9, 40, 0
1, 265800, Note_on_c, 9, 40, 100
1, 265859, Note_on_c, 9, 40, 0
1, 265860, Note_on_c, 9, 40, 100
1, 265919, Note_on_c, 9, 40, 0
1, 265920, Note_on_c, 9, 36, 100
1, 266040, Note_on_c, 9, 40, 100
1, 266099, Note_on_c, 9, 40, 0
1, 266100, Note_on_c, 9, 40, 100
1, 266159, Note_on_c, 9, 40, 0
1, 266160, Note_on_c, 9, 40, 100
1, 266219, Note_on_c, 9, 40, 0
1, 266220, Note_on_c, 9, 40, 100
1, 266279, Note_on_c, 9, 36, 0
1, 266280, Note_on_c, 9, 36, 100
1, 266399, Note_on_c, 9, 40, 0
1, 266399, Note_on_c, 9, 36, 0
1, 266400, Note_on_c, 9, 40, 100
1, 266639, Note_on_c, 9, 40, 0
1, 266640, Note_on_c, 9, 40, 100
1, 266759, Note_on_c, 9, 40, 0
1, 266760, Note_on_c, 9, 40, 100
1, 266879, Note_on_c, 9, 40, 0
1, 266880, Note_on_c, 9, 40, 100
1, 267119, Note_on_c, 9, 40, 0
1, 267120, Note_on_c, 9, 40, 100
1, 267359, Note_on_c, 9, 40, 0
1, 267360, Note_on_c, 9, 40, 100
1, 267479, Note_on_c, 9, 40, 0
1, 267480, Note_on_c, 9, 40, 100
1, 267599, Note_on_c, 9, 40, 0
1, 267600, Note_on_c, 9, 40, 100
1, 267659, Note_on_c, 9, 40, 0
1, 267660, Note_on_c, 9, 40, 100
1, 267719, Note_on_c, 9, 40, 0
1, 267720, Note_on_c, 9, 40, 100
1, 267779, Note_on_c, 9, 40, 0
1, 267780, Note_on_c, 9, 40, 100
1, 267839, Note_on_c, 9, 40, 0
1, 267840, Note_on_c, 9, 36, 100
1, 267960, Note_on_c, 9, 40, 100
1, 268019, Note_on_c, 9, 40, 0
1, 268020, Note_on_c, 9, 40, 100
1, 268079, Note_on_c, 9, 40, 0
1, 268080, Note_on_c, 9, 40, 100
1, 268139, Note_on_c, 9, 40, 0
1, 268140, Note_on_c, 9, 40, 100
1, 268199, Note_on_c, 9, 36, 0
1, 268200, Note_on_c, 9, 36, 100
1, 268319, Note_on_c, 9, 40, 0
1, 268319, Note_on_c, 9, 36, 0
1, 268320, Note_on_c, 9, 40, 100
1, 268560, Note_on_c, 9, 36, 100
1, 268679, Note_on_c, 9, 36, 0
1, 268680, Note_on_c, 9, 36, 100
1, 268799, Note_on_c, 9, 40, 0
1, 268799, Note_on_c, 9, 36, 0
1, 268800, Note_on_c, 9, 36, 100
1, 269039, Note_on_c, 9, 36, 0
1, 269040, Note_on_c, 9, 36, 100
1, 269279, Note_on_c, 9, 36, 0
1, 269280, Note_on_c, 9, 38, 100
1, 269759, Note_on_c, 9, 38, 0
1, 269760, Note_on_c, 9, 36, 100
1, 269999, Note_on_c, 9, 36, 0
1, 270000, Note_on_c, 9, 36, 100
1, 270239, Note_on_c, 9, 36, 0
1, 270240, Note_on_c, 9, 38, 100
1, 270719, Note_on_c, 9, 38, 0
1, 270720, Note_on_c, 9, 36, 100
1, 270959, Note_on_c, 9, 36, 0
1, 270960, Note_on_c, 9, 36, 100
1, 271199, Note_on_c, 9, 36, 0
1, 271200, Note_on_c, 9, 38, 100
1, 271679, Note_on_c, 9, 38, 0
1, 271680, Note_on_c, 9, 36, 100
1, 271919, Note_on_c, 9, 36, 0
1, 271920, Note_on_c, 9, 36, 100
1, 272159, Note_on_c, 9, 36, 0
1, 272160, Note_on_c, 9, 38, 100
1, 272639, Note_on_c, 9, 38, 0
1, 272640, Note_on_c, 9, 36, 100
1, 272879, Note_on_c, 9, 36, 0
1, 272880, Note_on_c, 9, 36, 100
1, 273119, Note_on_c, 9, 36, 0
1, 273120, Note_on_c, 9, 38, 100
1, 273599, Note_on_c, 9, 38, 0
1, 273600, Note_on_c, 9, 36, 100
1, 273839, Note_on_c, 9, 36, 0
1, 273840, Note_on_c, 9, 36, 100
1, 274079, Note_on_c, 9, 36, 0
1, 274080, Note_on_c, 9, 38, 100
1, 274319, Note_on_c, 9, 38, 0
1, 274320, Note_on_c, 9, 38, 100
1, 274439, Note_on_c, 9, 38, 0
1, 274440, Note_on_c, 9, 38, 100
1, 274559, Note_on_c, 9, 38, 0
1, 274560, Note_on_c, 9, 36, 100
1, 274799, Note_on_c, 9, 36, 0
1, 274800, Note_on_c, 9, 36, 100
1, 275039, Note_on_c, 9, 36, 0
1, 275040, Note_on_c, 9, 38, 100
1, 275160, Note_on_c, 9, 36, 100
1, 275519, Note_on_c, 9, 38, 0
1, 275519, Note_on_c, 9, 36, 0
1, 275520, Note_on_c, 9, 36, 100
1, 275879, Note_on_c, 9, 36, 0
1, 275880, Note_on_c, 9, 36, 100
1, 275999, Note_on_c, 9, 36, 0
1, 276000, Note_on_c, 9, 38, 100
1, 276120, Note_on_c, 9, 36, 100
1, 276479, Note_on_c, 9, 38, 0
1, 276479, Note_on_c, 9, 36, 0
1, 276480, Note_on_c, 9, 36, 100
1, 276959, Note_on_c, 9, 36, 0
1, 276960, Note_on_c, 9, 38, 100
1, 277320, Note_on_c, 9, 36, 100
1, 277439, Note_on_c, 9, 38, 0
1, 277439, Note_on_c, 9, 36, 0
1, 277440, Note_on_c, 9, 38, 100
1, 277679, Note_on_c, 9, 38, 0
1, 277680, Note_on_c, 9, 38, 100
1, 277919, Note_on_c, 9, 38, 0
1, 277920, Note_on_c, 9, 36, 100
1, 278039, Note_on_c, 9, 36, 0
1, 278040, Note_on_c, 9, 36, 100
1, 278159, Note_on_c, 9, 36, 0
1, 278160, Note_on_c, 9, 36, 100
1, 278399, Note_on_c, 9, 36, 0
1, 278400, Note_on_c, 9, 36, 100
1, 278639, Note_on_c, 9, 36, 0
1, 278640, Note_on_c, 9, 36, 100
1, 278879, Note_on_c, 9, 36, 0
1, 278880, Note_on_c, 9, 38, 100
1, 279359, Note_on_c, 9, 38, 0
1, 279360, Note_on_c, 9, 36, 100
1, 279599, Note_on_c, 9, 36, 0
1, 279600, Note_on_c, 9, 36, 100
1, 279839, Note_on_c, 9, 36, 0
1, 279840, Note_on_c, 9, 38, 100
1, 280319, Note_on_c, 9, 38, 0
1, 280320, Note_on_c, 9, 36, 100
1, 280559, Note_on_c, 9, 36, 0
1, 280560, Note_on_c, 9, 36, 100
1, 280799, Note_on_c, 9, 36, 0
1, 280800, Note_on_c, 9, 38, 100
1, 281279, Note_on_c, 9, 38, 0
1, 281280, Note_on_c, 9, 36, 100
1, 281519, Note_on_c, 9, 36, 0
1, 281520, Note_on_c, 9, 36, 100
1, 281759, Note_on_c, 9, 36, 0
1, 281760, Note_on_c, 9, 38, 100
1, 282239, Note_on_c, 9, 38, 0
1, 282240, Note_on_c, 9, 36, 100
1, 282479, Note_on_c, 9, 36, 0
1, 282480, Note_on_c, 9, 36, 100
1, 282719, Note_on_c, 9, 36, 0
1, 282720, Note_on_c, 9, 38, 100
1, 283199, Note_on_c, 9, 38, 0
1, 283200, Note_on_c, 9, 36, 100
1, 283439, Note_on_c, 9, 36, 0
1, 283440, Note_on_c, 9, 36, 100
1, 283679, Note_on_c, 9, 36, 0
1, 283680, Note_on_c, 9, 38, 100
1, 283919, Note_on_c, 9, 38, 0
1, 283920, Note_on_c, 9, 38, 100
1, 284039, Note_on_c, 9, 38, 0
1, 284040, Note_on_c, 9, 38, 100
1, 284159, Note_on_c, 9, 38, 0
1, 284160, Note_on_c, 9, 36, 100
1, 284399, Note_on_c, 9, 36, 0
1, 284400, Note_on_c, 9, 36, 100
1, 284639, Note_on_c, 9, 36, 0
1, 284640, Note_on_c, 9, 38, 100
1, 284760, Note_on_c, 9, 36, 100
1, 285119, Note_on_c, 9, 38, 0
1, 285119, Note_on_c, 9, 36, 0
1, 285120, Note_on_c, 9, 36, 100
1, 285479, Note_on_c, 9, 36, 0
1, 285480, Note_on_c, 9, 36, 100
1, 285599, Note_on_c, 9, 36, 0
1, 285600, Note_on_c, 9, 38, 100
1, 285720, Note_on_c, 9, 36, 100
1, 286079, Note_on_c, 9, 38, 0
1, 286079, Note_on_c, 9, 36, 0
1, 286080, Note_on_c, 9, 36, 100
1, 286559, Note_on_c, 9, 36, 0
1, 286560, Note_on_c, 9, 38, 100
1, 286920, Note_on_c, 9, 36, 100
1, 287039, Note_on_c, 9, 38, 0
1, 287039, Note_on_c, 9, 36, 0
1, 287040, Note_on_c, 9, 38, 100
1, 287279, Note_on_c, 9, 38, 0
1, 287280, Note_on_c, 9, 38, 100
1, 287519, Note_on_c, 9, 38, 0
1, 287520, Note_on_c, 9, 36, 100
1, 287639, Note_on_c, 9, 36, 0
1, 287640, Note_on_c, 9, 36, 100
1, 287759, Note_on_c, 9, 36, 0
1, 287760, Note_on_c, 9, 36, 100
1, 287999, Note_on_c, 9, 36, 0
1, 288000, Note_on_c, 9, 36, 100
1, 288239, Note_on_c, 9, 36, 0
1, 288240, Note_on_c, 9, 36, 100
1, 288479, Note_on_c, 9, 36, 0
1, 288480, Note_on_c, 9, 38, 100
1, 288959, Note_on_c, 9, 38, 0
1, 288960, Note_on_c, 9, 36, 100
1, 289199, Note_on_c, 9, 36, 0
1, 289200, Note_on_c, 9, 36, 100
1, 289439, Note_on_c, 9, 36, 0
1, 289440, Note_on_c, 9, 38, 100
1, 289919, Note_on_c, 9, 38, 0
1, 289920, Note_on_c, 9, 36, 100
1, 290159, Note_on_c, 9, 36, 0
1, 290160, Note_on_c, 9, 36, 100
1, 290399, Note_on_c, 9, 36, 0
1, 290400, Note_on_c, 9, 38, 100
1, 290879, Note_on_c, 9, 38, 0
1, 290880, Note_on_c, 9, 36, 100
1, 291119, Note_on_c, 9, 36, 0
1, 291120, Note_on_c, 9, 36, 100
1, 291359, Note_on_c, 9, 36, 0
1, 291360, Note_on_c, 9, 38, 100
1, 291839, Note_on_c, 9, 38, 0
1, 291840, Note_on_c, 9, 36, 100
1, 292079, Note_on_c, 9, 36, 0
1, 292080, Note_on_c, 9, 36, 100
1, 292319, Note_on_c, 9, 36, 0
1, 292320, Note_on_c, 9, 38, 100
1, 292799, Note_on_c, 9, 38, 0
1, 292800, Note_on_c, 9, 36, 100
1, 293039, Note_on_c, 9, 36, 0
1, 293040, Note_on_c, 9, 36, 100
1, 293279, Note_on_c, 9, 36, 0
1, 293280, Note_on_c, 9, 38, 100
1, 293519, Note_on_c, 9, 38, 0
1, 293520, Note_on_c, 9, 38, 100
1, 293639, Note_on_c, 9, 38, 0
1, 293640, Note_on_c, 9, 38, 100
1, 293759, Note_on_c, 9, 38, 0
1, 293760, Note_on_c, 9, 36, 100
1, 293999, Note_on_c, 9, 36, 0
1, 294000, Note_on_c, 9, 36, 100
1, 294239, Note_on_c, 9, 36, 0
1, 294240, Note_on_c, 9, 38, 100
1, 294360, Note_on_c, 9, 36, 100
1, 294719, Note_on_c, 9, 38, 0
1, 294719, Note_on_c, 9, 36, 0
1, 294720, Note_on_c, 9, 36, 100
1, 295079, Note_on_c, 9, 36, 0
1, 295080, Note_on_c, 9, 36, 100
1, 295199, Note_on_c, 9, 36, 0
1, 295200, Note_on_c, 9, 38, 100
1, 295320, Note_on_c, 9, 36, 100
1, 295679, Note_on_c, 9, 38, 0
1, 295679, Note_on_c, 9, 36, 0
1, 295680, Note_on_c, 9, 36, 100
1, 296159, Note_on_c, 9, 36, 0
1, 296160, Note_on_c, 9, 38, 100
1, 296520, Note_on_c, 9, 36, 100
1, 296639, Note_on_c, 9, 38, 0
1, 296639, Note_on_c, 9, 36, 0
1, 296640, Note_on_c, 9, 38, 100
1, 296879, Note_on_c, 9, 38, 0
1, 296880, Note_on_c, 9, 38, 100
1, 297119, Note_on_c, 9, 38, 0
1, 297120, Note_on_c, 9, 36, 100
1, 297239, Note_on_c, 9, 36, 0
1, 297240, Note_on_c, 9, 36, 100
1, 297359, Note_on_c, 9, 36, 0
1, 297360, Note_on_c, 9, 36, 100
1, 297599, Note_on_c, 9, 36, 0
1, 297600, Note_on_c, 9, 36, 100
1, 297839, Note_on_c, 9, 36, 0
1, 297840, Note_on_c, 9, 36, 100
1, 298079, Note_on_c, 9, 36, 0
1, 298080, Note_on_c, 9, 38, 100
1, 298559, Note_on_c, 9, 38, 0
1, 298560, Note_on_c, 9, 36, 100
1, 298799, Note_on_c, 9, 36, 0
1, 298800, Note_on_c, 9, 36, 100
1, 299039, Note_on_c, 9, 36, 0
1, 299040, Note_on_c, 9, 38, 100
1, 299519, Note_on_c, 9, 38, 0
1, 299520, Note_on_c, 9, 36, 100
1, 299759, Note_on_c, 9, 36, 0
1, 299760, Note_on_c, 9, 36, 100
1, 299999, Note_on_c, 9, 36, 0
1, 300000, Note_on_c, 9, 38, 100
1, 300479, Note_on_c, 9, 38, 0
1, 300480, Note_on_c, 9, 36, 100
1, 300719, Note_on_c, 9, 36, 0
1, 300720, Note_on_c, 9, 36, 100
1, 300959, Note_on_c, 9, 36, 0
1, 300960, Note_on_c, 9, 38, 100
1, 301439, Note_on_c, 9, 38, 0
1, 301440, Note_on_c, 9, 36, 100
1, 301679, Note_on_c, 9, 36, 0
1, 301680, Note_on_c, 9, 36, 100
1, 301919, Note_on_c, 9, 36, 0
1, 301920, Note_on_c, 9, 38, 100
1, 302399, Note_on_c, 9, 38, 0
1, 302400, Note_on_c, 9, 36, 100
1, 302639, Note_on_c, 9, 36, 0
1, 302640, Note_on_c, 9, 36, 100
1, 302879, Note_on_c, 9, 36, 0
1, 302880, Note_on_c, 9, 38, 100
1, 303119, Note_on_c, 9, 38, 0
1, 303120, Note_on_c, 9, 38, 100
1, 303239, Note_on_c, 9, 38, 0
1, 303240, Note_on_c, 9, 38, 100
1, 303359, Note_on_c, 9, 38, 0
1, 303360, Note_on_c, 9, 36, 100
1, 303599, Note_on_c, 9, 36, 0
1, 303600, Note_on_c, 9, 36, 100
1, 303839, Note_on_c, 9, 36, 0
1, 303840, Note_on_c, 9, 38, 100
1, 303960, Note_on_c, 9, 36, 100
1, 304319, Note_on_c, 9, 38, 0
1, 304319, Note_on_c, 9, 36, 0
1, 304320, Note_on_c, 9, 36, 100
1, 304679, Note_on_c, 9, 36, 0
1, 304680, Note_on_c, 9, 36, 100
1, 304799, Note_on_c, 9, 36, 0
1, 304800, Note_on_c, 9, 38, 100
1, 304920, Note_on_c, 9, 36, 100
1, 305279, Note_on_c, 9, 38, 0
1, 305279, Note_on_c, 9, 36, 0
1, 305280, Note_on_c, 9, 36, 100
1, 305759, Note_on_c, 9, 36, 0
1, 305760, Note_on_c, 9, 38, 100
1, 306120, Note_on_c, 9, 36, 100
1, 306239, Note_on_c, 9, 38, 0
1, 306239, Note_on_c, 9, 36, 0
1, 306240, Note_on_c, 9, 38, 100
1, 306479, Note_on_c, 9, 38, 0
1, 306480, Note_on_c, 9, 38, 100
1, 306719, Note_on_c, 9, 38, 0
1, 306720, Note_on_c, 9, 36, 100
1, 306839, Note_on_c, 9, 36, 0
1, 306840, Note_on_c, 9, 36, 100
1, 306959, Note_on_c, 9, 36, 0
1, 306960, Note_on_c, 9, 36, 100
1, 307199, Note_on_c, 9, 36, 0
1, 307200, Note_on_c, 9, 36, 100
1, 307439, Note_on_c, 9, 36, 0
1, 307440, Note_on_c, 9, 36, 100
1, 307679, Note_on_c, 9, 36, 0
1, 307680, Note_on_c, 9, 38, 100
1, 308159, Note_on_c, 9, 38, 0
1, 308160, Note_on_c, 9, 36, 100
1, 308399, Note_on_c, 9, 36, 0
1, 308400, Note_on_c, 9, 36, 100
1, 308639, Note_on_c, 9, 36, 0
1, 308640, Note_on_c, 9, 38, 100
1, 309119, Note_on_c, 9, 38, 0
1, 309120, Note_on_c, 9, 36, 100
1, 309359, Note_on_c, 9, 36, 0
1, 309360, Note_on_c, 9, 36, 100
1, 309599, Note_on_c, 9, 36, 0
1, 309600, Note_on_c, 9, 38, 100
1, 310079, Note_on_c, 9, 38, 0
1, 310080, Note_on_c, 9, 36, 100
1, 310319, Note_on_c, 9, 36, 0
1, 310320, Note_on_c, 9, 36, 100
1, 310559, Note_on_c, 9, 36, 0
1, 310560, Note_on_c, 9, 38, 100
1, 311039, Note_on_c, 9, 38, 0
1, 311040, Note_on_c, 9, 36, 100
1, 311279, Note_on_c, 9, 36, 0
1, 311280, Note_on_c, 9, 36, 100
1, 311519, Note_on_c, 9, 36, 0
1, 311520, Note_on_c, 9, 38, 100
1, 311999, Note_on_c, 9, 38, 0
1, 312000, Note_on_c, 9, 36, 100
1, 312239, Note_on_c, 9, 36, 0
1, 312240, Note_on_c, 9, 36, 100
1, 312479, Note_on_c, 9, 36, 0
1, 312480, Note_on_c, 9, 38, 100
1, 312719, Note_on_c, 9, 38, 0
1, 312720, Note_on_c, 9, 38, 100
1, 312839, Note_on_c, 9, 38, 0
1, 312840, Note_on_c, 9, 38, 100
1, 312959, Note_on_c, 9, 38, 0
1, 312960, Note_on_c, 9, 36, 100
1, 313199, Note_on_c, 9, 36, 0
1, 313200, Note_on_c, 9, 36, 100
1, 313439, Note_on_c, 9, 36, 0
1, 313440, Note_on_c, 9, 38, 100
1, 313560, Note_on_c, 9, 36, 100
1, 313919, Note_on_c, 9, 38, 0
1, 313919, Note_on_c, 9, 36, 0
1, 313920, Note_on_c, 9, 36, 100
1, 314279, Note_on_c, 9, 36, 0
1, 314280, Note_on_c, 9, 36, 100
1, 314399, Note_on_c, 9, 36, 0
1, 314400, Note_on_c, 9, 38, 100
1, 314520, Note_on_c, 9, 36, 100
1, 314879, Note_on_c, 9, 38, 0
1, 314879, Note_on_c, 9, 36, 0
1, 314880, Note_on_c, 9, 36, 100
1, 315359, Note_on_c, 9, 36, 0
1, 315360, Note_on_c, 9, 38, 100
1, 315720, Note_on_c, 9, 36, 100
1, 315839, Note_on_c, 9, 38, 0
1, 315839, Note_on_c, 9, 36, 0
1, 315840, Note_on_c, 9, 38, 100
1, 316079, Note_on_c, 9, 38, 0
1, 316080, Note_on_c, 9, 38, 100
1, 316319, Note_on_c, 9, 38, 0
1, 316320, Note_on_c, 9, 36, 100
1, 316439, Note_on_c, 9, 36, 0
1, 316440, Note_on_c, 9, 36, 100
1, 316559, Note_on_c, 9, 36, 0
1, 316560, Note_on_c, 9, 36, 100
1, 316799, Note_on_c, 9, 36, 0
1, 316800, Note_on_c, 9, 36, 100
1, 317039, Note_on_c, 9, 36, 0
1, 317040, Note_on_c, 9, 36, 100
1, 317279, Note_on_c, 9, 36, 0
1, 317280, Note_on_c, 9, 38, 100
1, 317759, Note_on_c, 9, 38, 0
1, 317760, Note_on_c, 9, 36, 100
1, 317999, Note_on_c, 9, 36, 0
1, 318000, Note_on_c, 9, 36, 100
1, 318239, Note_on_c, 9, 36, 0
1, 318240, Note_on_c, 9, 38, 100
1, 318608, Tempo, 606061
1, 318696, Tempo, 612245
1, 318719, Note_on_c, 9, 38, 0
1, 318720, Note_on_c, 9, 36, 100
1, 318880, Tempo, 618557
1, 318936, Tempo, 625000
1, 318944, Tempo, 631579
1, 318959, Note_on_c, 9, 36, 0
1, 318960, Note_on_c, 9, 36, 100
1, 318968, Tempo, 638298
1, 319168, Tempo, 645161
1, 319199, Note_on_c, 9, 36, 0
1, 319200, Tempo, 652174
1, 319200, Note_on_c, 9, 38, 100
1, 319232, Tempo, 659341
1, 319248, Tempo, 666667
1, 319376, Tempo, 674157
1, 319392, Tempo, 681818
1, 319416, Tempo, 689655
1, 319472, Tempo, 697674
1, 319576, Tempo, 705882
1, 319608, Tempo, 714286
1, 319640, Tempo, 722892
1, 319656, Tempo, 731707
1, 319679, Note_on_c, 9, 38, 0
1, 319680, Note_on_c, 9, 36, 100
1, 319760, Tempo, 740741
1, 319816, Tempo, 750000
1, 319856, Tempo, 759494
1, 319896, Tempo, 769231
1, 319919, Note_on_c, 9, 36, 0
1, 319920, Note_on_c, 9, 36, 100
1, 320159, Note_on_c, 9, 36, 0
1, 320160, Note_on_c, 9, 38, 100
1, 320248, Tempo, 779221
1, 320336, Tempo, 789474
1, 320392, Tempo, 800000
1, 320408, Tempo, 810811
1, 320639, Note_on_c, 9, 38, 0
1, 320640, Note_on_c, 9, 36, 100
1, 320744, Tempo, 821918
1, 320776, Tempo, 833333
1, 320792, Tempo, 845070
1, 320856, Tempo, 857143
1, 320879, Note_on_c, 9, 36, 0
1, 320880, Note_on_c, 9, 36, 100
1, 320888, Tempo, 869565
1, 320968, Tempo, 882353
1, 321000, Tempo, 895522
1, 321119, Note_on_c, 9, 36, 0
1, 321120, Note_on_c, 9, 38, 100
1, 321480, Tempo, 909091
1, 321599, Note_on_c, 9, 38, 0
1, 321600, Note_on_c, 9, 36, 100
1, 321608, Tempo, 923077
1, 321672, Tempo, 937500
1, 321744, Tempo, 952381
1, 321839, Note_on_c, 9, 36, 0
1, 321840, Note_on_c, 9, 36, 100
1, 322079, Note_on_c, 9, 36, 0
1, 322080, Note_on_c, 9, 38, 100
1, 322384, Tempo, 967742
1, 322440, Tempo, 983607
1, 322488, Tempo, 1000000
1, 322536, Tempo, 1016949
1, 322559, Note_on_c, 9, 38, 0
1, 322560, Note_on_c, 9, 36, 100
1, 322568, Tempo, 1034483
1, 322576, Tempo, 1052632
1, 323000, Tempo, 1071429
1, 323039, Note_on_c, 9, 36, 0
1, 323128, Tempo, 1090909
1, 323200, Tempo, 1111111
1, 323288, Tempo, 1090909
1, 323560, Tempo, 1250000
1, 323632, Tempo, 1500000
1, 323633, End_track
0, 0, End_of_file
