0, 0, Header, 1, 1, 480
1, 0, Start_track
1, 0, Title_t, "Drumset"
1, 0, Time_signature, 4, 2, 24, 8
1, 0, Key_signature, 0, "major"
1, 0, Tempo, 405405
1, 0, Control_c, 9, 121, 0
1, 0, Program_c, 9, 0
1, 0, Control_c, 9, 7, 100
1, 0, Control_c, 9, 10, 64
1, 0, Control_c, 9, 91, 0
1, 0, Control_c, 9, 93, 0
1, 0, MIDI_port, 0
1, 0, Note_on_c, 9, 37, 100
1, 27, Note_on_c, 9, 37, 0
1, 960, Note_on_c, 9, 37, 100
1, 987, Note_on_c, 9, 37, 0
1, 1920, Note_on_c, 9, 37, 100
1, 1947, Note_on_c, 9, 37, 0
1, 2400, Note_on_c, 9, 37, 100
1, 2427, Note_on_c, 9, 37, 0
1, 2880, Note_on_c, 9, 37, 100
1, 2907, Note_on_c, 9, 37, 0
1, 4080, Note_on_c, 9, 50, 120
1, 4080, Note_on_c, 9, 36, 110
1, 4319, Note_on_c, 9, 50, 0
1, 4319, Note_on_c, 9, 36, 0
1, 4800, Note_on_c, 9, 50, 120
1, 4800, Note_on_c, 9, 36, 110
1, 5279, Note_on_c, 9, 50, 0
1, 5279, Note_on_c, 9, 36, 0
1, 5280, Note_on_c, 9, 50, 120
1, 5280, Note_on_c, 9, 36, 110
1, 5759, Note_on_c, 9, 50, 0
1, 5759, Note_on_c, 9, 36, 0
1, 5760, Note_on_c, 9, 50, 120
1, 5760, Note_on_c, 9, 36, 110
1, 6239, Note_on_c, 9, 50, 0
1, 6239, Note_on_c, 9, 36, 0
1, 6240, Note_on_c, 9, 50, 120
1, 6240, Note_on_c, 9, 36, 110
1, 6719, Note_on_c, 9, 50, 0
1, 6719, Note_on_c, 9, 36, 0
1, 6720, Note_on_c, 9, 50, 120
1, 6720, Note_on_c, 9, 36, 110
1, 7199, Note_on_c, 9, 50, 0
1, 7199, Note_on_c, 9, 36, 0
1, 7200, Note_on_c, 9, 50, 120
1, 7200, Note_on_c, 9, 36, 110
1, 7679, Note_on_c, 9, 50, 0
1, 7679, Note_on_c, 9, 36, 0
1, 7680, Note_on_c, 9, 50, 120
1, 7680, Note_on_c, 9, 36, 110
1, 8159, Note_on_c, 9, 50, 0
1, 8159, Note_on_c, 9, 36, 0
1, 8160, Note_on_c, 9, 50, 120
1, 8160, Note_on_c, 9, 36, 110
1, 8639, Note_on_c, 9, 50, 0
1, 8639, Note_on_c, 9, 36, 0
1, 8640, Note_on_c, 9, 50, 120
1, 8640, Note_on_c, 9, 36, 110
1, 9119, Note_on_c, 9, 50, 0
1, 9119, Note_on_c, 9, 36, 0
1, 9120, Note_on_c, 9, 50, 120
1, 9120, Note_on_c, 9, 36, 110
1, 9599, Note_on_c, 9, 50, 0
1, 9599, Note_on_c, 9, 36, 0
1, 9600, Note_on_c, 9, 50, 120
1, 9600, Note_on_c, 9, 36, 110
1, 10079, Note_on_c, 9, 50, 0
1, 10079, Note_on_c, 9, 36, 0
1, 10080, Note_on_c, 9, 50, 120
1, 10080, Note_on_c, 9, 36, 110
1, 10559, Note_on_c, 9, 50, 0
1, 10559, Note_on_c, 9, 36, 0
1, 10560, Note_on_c, 9, 50, 120
1, 10560, Note_on_c, 9, 36, 110
1, 10799, Note_on_c, 9, 50, 0
1, 10800, Note_on_c, 9, 50, 100
1, 11039, Note_on_c, 9, 36, 0
1, 11039, Note_on_c, 9, 50, 0
1, 11040, Note_on_c, 9, 50, 120
1, 11040, Note_on_c, 9, 36, 110
1, 11279, Note_on_c, 9, 50, 0
1, 11280, Note_on_c, 9, 50, 100
1, 11519, Note_on_c, 9, 36, 0
1, 11519, Note_on_c, 9, 50, 0
1, 11520, Note_on_c, 9, 50, 120
1, 11520, Note_on_c, 9, 36, 110
1, 11999, Note_on_c, 9, 50, 0
1, 11999, Note_on_c, 9, 36, 0
1, 12000, Note_on_c, 9, 50, 120
1, 12000, Note_on_c, 9, 36, 110
1, 12479, Note_on_c, 9, 50, 0
1, 12479, Note_on_c, 9, 36, 0
1, 12480, Note_on_c, 9, 50, 120
1, 12480, Note_on_c, 9, 36, 110
1, 12719, Note_on_c, 9, 50, 0
1, 12720, Note_on_c, 9, 50, 100
1, 12959, Note_on_c, 9, 36, 0
1, 12959, Note_on_c, 9, 50, 0
1, 12960, Note_on_c, 9, 50, 120
1, 12960, Note_on_c, 9, 36, 110
1, 13439, Note_on_c, 9, 50, 0
1, 13439, Note_on_c, 9, 36, 0
1, 13440, Note_on_c, 9, 50, 120
1, 13440, Note_on_c, 9, 36, 110
1, 13919, Note_on_c, 9, 50, 0
1, 13919, Note_on_c, 9, 36, 0
1, 13920, Note_on_c, 9, 50, 120
1, 13920, Note_on_c, 9, 36, 110
1, 14399, Note_on_c, 9, 50, 0
1, 14399, Note_on_c, 9, 36, 0
1, 14400, Note_on_c, 9, 50, 120
1, 14400, Note_on_c, 9, 36, 110
1, 14639, Note_on_c, 9, 50, 0
1, 14640, Note_on_c, 9, 50, 100
1, 14879, Note_on_c, 9, 36, 0
1, 14879, Note_on_c, 9, 50, 0
1, 14880, Note_on_c, 9, 50, 120
1, 14880, Note_on_c, 9, 36, 110
1, 15119, Note_on_c, 9, 50, 0
1, 15120, Note_on_c, 9, 50, 100
1, 15359, Note_on_c, 9, 36, 0
1, 15359, Note_on_c, 9, 50, 0
1, 15360, Note_on_c, 9, 50, 120
1, 15360, Note_on_c, 9, 36, 110
1, 15839, Note_on_c, 9, 50, 0
1, 15839, Note_on_c, 9, 36, 0
1, 15840, Note_on_c, 9, 50, 120
1, 15840, Note_on_c, 9, 36, 110
1, 16319, Note_on_c, 9, 50, 0
1, 16319, Note_on_c, 9, 36, 0
1, 16320, Note_on_c, 9, 50, 120
1, 16320, Note_on_c, 9, 36, 110
1, 16799, Note_on_c, 9, 50, 0
1, 16799, Note_on_c, 9, 36, 0
1, 16800, Note_on_c, 9, 50, 120
1, 16800, Note_on_c, 9, 36, 110
1, 17279, Note_on_c, 9, 50, 0
1, 17279, Note_on_c, 9, 36, 0
1, 17280, Note_on_c, 9, 50, 120
1, 17280, Note_on_c, 9, 36, 110
1, 17759, Note_on_c, 9, 50, 0
1, 17759, Note_on_c, 9, 36, 0
1, 17760, Note_on_c, 9, 50, 120
1, 17760, Note_on_c, 9, 36, 110
1, 17999, Note_on_c, 9, 50, 0
1, 18000, Note_on_c, 9, 50, 100
1, 18239, Note_on_c, 9, 36, 0
1, 18239, Note_on_c, 9, 50, 0
1, 18240, Note_on_c, 9, 50, 120
1, 18240, Note_on_c, 9, 36, 110
1, 18479, Note_on_c, 9, 50, 0
1, 18480, Note_on_c, 9, 50, 100
1, 18719, Note_on_c, 9, 36, 0
1, 18719, Note_on_c, 9, 50, 0
1, 18720, Note_on_c, 9, 50, 120
1, 18720, Note_on_c, 9, 36, 110
1, 18959, Note_on_c, 9, 50, 0
1, 18960, Note_on_c, 9, 50, 100
1, 19199, Note_on_c, 9, 36, 0
1, 19199, Note_on_c, 9, 50, 0
1, 19200, Note_on_c, 9, 57, 120
1, 19200, Note_on_c, 9, 36, 110
1, 19227, Note_on_c, 9, 57, 0
1, 19679, Note_on_c, 9, 36, 0
1, 19680, Note_on_c, 9, 38, 120
1, 19680, Note_on_c, 9, 49, 120
1, 19680, Note_on_c, 9, 36, 110
1, 19707, Note_on_c, 9, 49, 0
1, 20159, Note_on_c, 9, 38, 0
1, 20159, Note_on_c, 9, 36, 0
1, 20160, Note_on_c, 9, 46, 100
1, 20160, Note_on_c, 9, 36, 110
1, 20173, Note_on_c, 9, 46, 0
1, 20400, Note_on_c, 9, 46, 100
1, 20413, Note_on_c, 9, 46, 0
1, 20639, Note_on_c, 9, 36, 0
1, 20640, Note_on_c, 9, 38, 120
1, 20640, Note_on_c, 9, 46, 120
1, 20640, Note_on_c, 9, 36, 110
1, 20653, Note_on_c, 9, 46, 0
1, 20879, Note_on_c, 9, 38, 0
1, 20880, Note_on_c, 9, 46, 100
1, 20893, Note_on_c, 9, 46, 0
1, 21119, Note_on_c, 9, 36, 0
1, 21120, Note_on_c, 9, 46, 100
1, 21120, Note_on_c, 9, 36, 110
1, 21133, Note_on_c, 9, 46, 0
1, 21360, Note_on_c, 9, 46, 100
1, 21373, Note_on_c, 9, 46, 0
1, 21599, Note_on_c, 9, 36, 0
1, 21600, Note_on_c, 9, 38, 120
1, 21600, Note_on_c, 9, 46, 120
1, 21600, Note_on_c, 9, 36, 110
1, 21613, Note_on_c, 9, 46, 0
1, 21839, Note_on_c, 9, 38, 0
1, 21840, Note_on_c, 9, 46, 100
1, 21853, Note_on_c, 9, 46, 0
1, 22079, Note_on_c, 9, 36, 0
1, 22080, Note_on_c, 9, 46, 100
1, 22080, Note_on_c, 9, 36, 110
1, 22093, Note_on_c, 9, 46, 0
1, 22320, Note_on_c, 9, 46, 100
1, 22333, Note_on_c, 9, 46, 0
1, 22559, Note_on_c, 9, 36, 0
1, 22560, Note_on_c, 9, 38, 120
1, 22560, Note_on_c, 9, 46, 120
1, 22560, Note_on_c, 9, 36, 110
1, 22573, Note_on_c, 9, 46, 0
1, 22799, Note_on_c, 9, 38, 0
1, 22800, Note_on_c, 9, 46, 100
1, 22813, Note_on_c, 9, 46, 0
1, 23039, Note_on_c, 9, 36, 0
1, 23040, Note_on_c, 9, 46, 100
1, 23040, Note_on_c, 9, 36, 110
1, 23053, Note_on_c, 9, 46, 0
1, 23280, Note_on_c, 9, 46, 100
1, 23293, Note_on_c, 9, 46, 0
1, 23519, Note_on_c, 9, 36, 0
1, 23520, Note_on_c, 9, 38, 120
1, 23520, Note_on_c, 9, 46, 120
1, 23520, Note_on_c, 9, 36, 110
1, 23533, Note_on_c, 9, 46, 0
1, 23759, Note_on_c, 9, 38, 0
1, 23760, Note_on_c, 9, 46, 100
1, 23773, Note_on_c, 9, 46, 0
1, 23999, Note_on_c, 9, 36, 0
1, 24000, Note_on_c, 9, 46, 100
1, 24000, Note_on_c, 9, 36, 110
1, 24013, Note_on_c, 9, 46, 0
1, 24240, Note_on_c, 9, 46, 100
1, 24253, Note_on_c, 9, 46, 0
1, 24479, Note_on_c, 9, 36, 0
1, 24480, Note_on_c, 9, 46, 100
1, 24480, Note_on_c, 9, 36, 110
1, 24493, Note_on_c, 9, 46, 0
1, 24720, Note_on_c, 9, 38, 120
1, 24720, Note_on_c, 9, 57, 120
1, 24733, Note_on_c, 9, 57, 0
1, 24959, Note_on_c, 9, 36, 0
1, 24959, Note_on_c, 9, 38, 0
1, 24960, Note_on_c, 9, 46, 100
1, 24960, Note_on_c, 9, 36, 110
1, 24973, Note_on_c, 9, 46, 0
1, 25200, Note_on_c, 9, 46, 100
1, 25213, Note_on_c, 9, 46, 0
1, 25439, Note_on_c, 9, 36, 0
1, 25440, Note_on_c, 9, 38, 120
1, 25440, Note_on_c, 9, 46, 120
1, 25440, Note_on_c, 9, 36, 110
1, 25453, Note_on_c, 9, 46, 0
1, 25679, Note_on_c, 9, 38, 0
1, 25680, Note_on_c, 9, 46, 100
1, 25693, Note_on_c, 9, 46, 0
1, 25919, Note_on_c, 9, 36, 0
1, 25920, Note_on_c, 9, 46, 100
1, 25920, Note_on_c, 9, 36, 110
1, 25933, Note_on_c, 9, 46, 0
1, 26160, Note_on_c, 9, 46, 100
1, 26173, Note_on_c, 9, 46, 0
1, 26399, Note_on_c, 9, 36, 0
1, 26400, Note_on_c, 9, 38, 120
1, 26400, Note_on_c, 9, 46, 120
1, 26413, Note_on_c, 9, 46, 0
1, 26639, Note_on_c, 9, 38, 0
1, 26640, Note_on_c, 9, 46, 100
1, 26640, Note_on_c, 9, 36, 110
1, 26653, Note_on_c, 9, 46, 0
1, 26879, Note_on_c, 9, 36, 0
1, 26880, Note_on_c, 9, 57, 120
1, 26880, Note_on_c, 9, 36, 100
1, 26893, Note_on_c, 9, 57, 0
1, 27120, Note_on_c, 9, 46, 100
1, 27133, Note_on_c, 9, 46, 0
1, 27359, Note_on_c, 9, 36, 0
1, 27360, Note_on_c, 9, 38, 120
1, 27360, Note_on_c, 9, 46, 120
1, 27360, Note_on_c, 9, 36, 110
1, 27373, Note_on_c, 9, 46, 0
1, 27599, Note_on_c, 9, 38, 0
1, 27600, Note_on_c, 9, 46, 100
1, 27613, Note_on_c, 9, 46, 0
1, 27839, Note_on_c, 9, 36, 0
1, 27840, Note_on_c, 9, 46, 100
1, 27840, Note_on_c, 9, 36, 110
1, 27853, Note_on_c, 9, 46, 0
1, 28080, Note_on_c, 9, 46, 100
1, 28093, Note_on_c, 9, 46, 0
1, 28319, Note_on_c, 9, 36, 0
1, 28320, Note_on_c, 9, 38, 120
1, 28320, Note_on_c, 9, 46, 120
1, 28320, Note_on_c, 9, 36, 110
1, 28333, Note_on_c, 9, 46, 0
1, 28559, Note_on_c, 9, 38, 0
1, 28560, Note_on_c, 9, 46, 100
1, 28573, Note_on_c, 9, 46, 0
1, 28799, Note_on_c, 9, 36, 0
1, 28800, Note_on_c, 9, 46, 100
1, 28800, Note_on_c, 9, 36, 110
1, 28813, Note_on_c, 9, 46, 0
1, 29040, Note_on_c, 9, 46, 100
1, 29053, Note_on_c, 9, 46, 0
1, 29279, Note_on_c, 9, 36, 0
1, 29280, Note_on_c, 9, 38, 120
1, 29280, Note_on_c, 9, 46, 120
1, 29280, Note_on_c, 9, 36, 110
1, 29293, Note_on_c, 9, 46, 0
1, 29519, Note_on_c, 9, 38, 0
1, 29520, Note_on_c, 9, 46, 100
1, 29533, Note_on_c, 9, 46, 0
1, 29759, Note_on_c, 9, 36, 0
1, 29760, Note_on_c, 9, 46, 100
1, 29760, Note_on_c, 9, 36, 110
1, 29773, Note_on_c, 9, 46, 0
1, 30000, Note_on_c, 9, 46, 100
1, 30013, Note_on_c, 9, 46, 0
1, 30239, Note_on_c, 9, 36, 0
1, 30240, Note_on_c, 9, 38, 120
1, 30240, Note_on_c, 9, 46, 120
1, 30253, Note_on_c, 9, 46, 0
1, 30479, Note_on_c, 9, 38, 0
1, 30480, Note_on_c, 9, 57, 120
1, 30480, Note_on_c, 9, 36, 110
1, 30493, Note_on_c, 9, 57, 0
1, 30719, Note_on_c, 9, 36, 0
1, 30720, Note_on_c, 9, 46, 100
1, 30733, Note_on_c, 9, 46, 0
1, 30960, Note_on_c, 9, 46, 100
1, 30960, Note_on_c, 9, 36, 110
1, 30973, Note_on_c, 9, 46, 0
1, 31199, Note_on_c, 9, 36, 0
1, 31200, Note_on_c, 9, 38, 120
1, 31200, Note_on_c, 9, 46, 120
1, 31213, Note_on_c, 9, 46, 0
1, 31439, Note_on_c, 9, 38, 0
1, 31440, Note_on_c, 9, 57, 120
1, 31440, Note_on_c, 9, 36, 110
1, 31453, Note_on_c, 9, 57, 0
1, 31679, Note_on_c, 9, 36, 0
1, 31680, Note_on_c, 9, 46, 100
1, 31693, Note_on_c, 9, 46, 0
1, 31920, Note_on_c, 9, 49, 120
1, 31920, Note_on_c, 9, 36, 110
1, 31933, Note_on_c, 9, 49, 0
1, 32159, Note_on_c, 9, 36, 0
1, 32160, Note_on_c, 9, 46, 100
1, 32173, Note_on_c, 9, 46, 0
1, 32400, Note_on_c, 9, 46, 100
1, 32400, Note_on_c, 9, 36, 110
1, 32413, Note_on_c, 9, 46, 0
1, 32639, Note_on_c, 9, 36, 0
1, 32640, Note_on_c, 9, 46, 100
1, 32640, Note_on_c, 9, 36, 100
1, 32653, Note_on_c, 9, 46, 0
1, 32880, Note_on_c, 9, 46, 100
1, 32893, Note_on_c, 9, 46, 0
1, 33119, Note_on_c, 9, 36, 0
1, 33120, Note_on_c, 9, 38, 120
1, 33120, Note_on_c, 9, 46, 120
1, 33120, Note_on_c, 9, 36, 110
1, 33133, Note_on_c, 9, 46, 0
1, 33359, Note_on_c, 9, 38, 0
1, 33360, Note_on_c, 9, 46, 100
1, 33373, Note_on_c, 9, 46, 0
1, 33599, Note_on_c, 9, 36, 0
1, 33600, Note_on_c, 9, 46, 100
1, 33600, Note_on_c, 9, 36, 110
1, 33613, Note_on_c, 9, 46, 0
1, 33839, Note_on_c, 9, 36, 0
1, 33840, Note_on_c, 9, 46, 100
1, 33840, Note_on_c, 9, 36, 100
1, 33853, Note_on_c, 9, 46, 0
1, 34079, Note_on_c, 9, 36, 0
1, 34080, Note_on_c, 9, 46, 100
1, 34093, Note_on_c, 9, 46, 0
1, 34320, Note_on_c, 9, 38, 120
1, 34320, Note_on_c, 9, 57, 120
1, 34320, Note_on_c, 9, 36, 110
1, 34333, Note_on_c, 9, 57, 0
1, 34559, Note_on_c, 9, 38, 0
1, 34559, Note_on_c, 9, 36, 0
1, 38160, Note_on_c, 9, 57, 120
1, 38160, Note_on_c, 9, 36, 110
1, 38173, Note_on_c, 9, 57, 0
1, 38399, Note_on_c, 9, 36, 0
1, 38640, Note_on_c, 9, 46, 100
1, 38653, Note_on_c, 9, 46, 0
1, 38880, Note_on_c, 9, 38, 120
1, 38880, Note_on_c, 9, 46, 120
1, 38880, Note_on_c, 9, 36, 110
1, 38893, Note_on_c, 9, 46, 0
1, 39119, Note_on_c, 9, 38, 0
1, 39120, Note_on_c, 9, 46, 100
1, 39133, Note_on_c, 9, 46, 0
1, 39359, Note_on_c, 9, 36, 0
1, 39360, Note_on_c, 9, 46, 100
1, 39360, Note_on_c, 9, 36, 110
1, 39373, Note_on_c, 9, 46, 0
1, 39600, Note_on_c, 9, 46, 100
1, 39613, Note_on_c, 9, 46, 0
1, 39839, Note_on_c, 9, 36, 0
1, 39840, Note_on_c, 9, 38, 120
1, 39840, Note_on_c, 9, 46, 120
1, 39840, Note_on_c, 9, 36, 110
1, 39853, Note_on_c, 9, 46, 0
1, 40079, Note_on_c, 9, 38, 0
1, 40080, Note_on_c, 9, 46, 100
1, 40093, Note_on_c, 9, 46, 0
1, 40319, Note_on_c, 9, 36, 0
1, 40320, Note_on_c, 9, 46, 100
1, 40320, Note_on_c, 9, 36, 110
1, 40333, Note_on_c, 9, 46, 0
1, 40560, Note_on_c, 9, 46, 100
1, 40573, Note_on_c, 9, 46, 0
1, 40799, Note_on_c, 9, 36, 0
1, 40800, Note_on_c, 9, 38, 120
1, 40800, Note_on_c, 9, 46, 120
1, 40800, Note_on_c, 9, 36, 110
1, 40813, Note_on_c, 9, 46, 0
1, 41039, Note_on_c, 9, 38, 0
1, 41040, Note_on_c, 9, 46, 100
1, 41053, Note_on_c, 9, 46, 0
1, 41279, Note_on_c, 9, 36, 0
1, 41280, Note_on_c, 9, 46, 100
1, 41280, Note_on_c, 9, 36, 110
1, 41293, Note_on_c, 9, 46, 0
1, 41520, Note_on_c, 9, 46, 100
1, 41533, Note_on_c, 9, 46, 0
1, 41759, Note_on_c, 9, 36, 0
1, 41760, Note_on_c, 9, 38, 120
1, 41760, Note_on_c, 9, 46, 120
1, 41760, Note_on_c, 9, 36, 110
1, 41773, Note_on_c, 9, 46, 0
1, 41999, Note_on_c, 9, 38, 0
1, 41999, Note_on_c, 9, 36, 0
1, 42000, Note_on_c, 9, 57, 120
1, 42000, Note_on_c, 9, 36, 100
1, 42013, Note_on_c, 9, 57, 0
1, 42239, Note_on_c, 9, 36, 0
1, 42240, Note_on_c, 9, 49, 120
1, 42240, Note_on_c, 9, 36, 110
1, 42253, Note_on_c, 9, 49, 0
1, 42480, Note_on_c, 9, 46, 100
1, 42493, Note_on_c, 9, 46, 0
1, 42719, Note_on_c, 9, 36, 0
1, 42720, Note_on_c, 9, 38, 120
1, 42720, Note_on_c, 9, 46, 120
1, 42720, Note_on_c, 9, 36, 110
1, 42733, Note_on_c, 9, 46, 0
1, 42959, Note_on_c, 9, 38, 0
1, 42960, Note_on_c, 9, 46, 100
1, 42973, Note_on_c, 9, 46, 0
1, 43199, Note_on_c, 9, 36, 0
1, 43200, Note_on_c, 9, 46, 100
1, 43200, Note_on_c, 9, 36, 110
1, 43213, Note_on_c, 9, 46, 0
1, 43440, Note_on_c, 9, 46, 100
1, 43453, Note_on_c, 9, 46, 0
1, 43679, Note_on_c, 9, 36, 0
1, 43680, Note_on_c, 9, 38, 120
1, 43680, Note_on_c, 9, 46, 120
1, 43680, Note_on_c, 9, 36, 110
1, 43693, Note_on_c, 9, 46, 0
1, 43919, Note_on_c, 9, 38, 0
1, 43920, Note_on_c, 9, 46, 100
1, 43933, Note_on_c, 9, 46, 0
1, 44159, Note_on_c, 9, 36, 0
1, 44160, Note_on_c, 9, 46, 100
1, 44160, Note_on_c, 9, 36, 110
1, 44173, Note_on_c, 9, 46, 0
1, 44400, Note_on_c, 9, 46, 100
1, 44413, Note_on_c, 9, 46, 0
1, 44639, Note_on_c, 9, 36, 0
1, 44640, Note_on_c, 9, 38, 120
1, 44640, Note_on_c, 9, 46, 120
1, 44640, Note_on_c, 9, 36, 110
1, 44653, Note_on_c, 9, 46, 0
1, 44879, Note_on_c, 9, 38, 0
1, 44880, Note_on_c, 9, 46, 100
1, 44893, Note_on_c, 9, 46, 0
1, 45119, Note_on_c, 9, 36, 0
1, 45120, Note_on_c, 9, 46, 100
1, 45120, Note_on_c, 9, 36, 110
1, 45133, Note_on_c, 9, 46, 0
1, 45360, Note_on_c, 9, 46, 100
1, 45373, Note_on_c, 9, 46, 0
1, 45599, Note_on_c, 9, 36, 0
1, 45600, Note_on_c, 9, 38, 120
1, 45600, Note_on_c, 9, 46, 120
1, 45600, Note_on_c, 9, 36, 110
1, 45613, Note_on_c, 9, 46, 0
1, 45839, Note_on_c, 9, 38, 0
1, 45839, Note_on_c, 9, 36, 0
1, 45840, Note_on_c, 9, 57, 120
1, 45840, Note_on_c, 9, 36, 100
1, 45853, Note_on_c, 9, 57, 0
1, 46079, Note_on_c, 9, 36, 0
1, 46080, Note_on_c, 9, 49, 120
1, 46080, Note_on_c, 9, 36, 110
1, 46093, Note_on_c, 9, 49, 0
1, 46320, Note_on_c, 9, 46, 100
1, 46333, Note_on_c, 9, 46, 0
1, 46559, Note_on_c, 9, 36, 0
1, 46560, Note_on_c, 9, 38, 120
1, 46560, Note_on_c, 9, 46, 120
1, 46560, Note_on_c, 9, 36, 110
1, 46573, Note_on_c, 9, 46, 0
1, 46799, Note_on_c, 9, 38, 0
1, 46800, Note_on_c, 9, 46, 100
1, 46813, Note_on_c, 9, 46, 0
1, 47039, Note_on_c, 9, 36, 0
1, 47040, Note_on_c, 9, 46, 100
1, 47040, Note_on_c, 9, 36, 110
1, 47053, Note_on_c, 9, 46, 0
1, 47280, Note_on_c, 9, 46, 100
1, 47293, Note_on_c, 9, 46, 0
1, 47519, Note_on_c, 9, 36, 0
1, 47520, Note_on_c, 9, 38, 120
1, 47520, Note_on_c, 9, 46, 120
1, 47520, Note_on_c, 9, 36, 110
1, 47533, Note_on_c, 9, 46, 0
1, 47759, Note_on_c, 9, 38, 0
1, 47760, Note_on_c, 9, 46, 100
1, 47773, Note_on_c, 9, 46, 0
1, 47999, Note_on_c, 9, 36, 0
1, 48000, Note_on_c, 9, 46, 100
1, 48000, Note_on_c, 9, 36, 110
1, 48013, Note_on_c, 9, 46, 0
1, 48240, Note_on_c, 9, 46, 100
1, 48253, Note_on_c, 9, 46, 0
1, 48479, Note_on_c, 9, 36, 0
1, 48480, Note_on_c, 9, 38, 120
1, 48480, Note_on_c, 9, 46, 120
1, 48480, Note_on_c, 9, 36, 110
1, 48493, Note_on_c, 9, 46, 0
1, 48719, Note_on_c, 9, 38, 0
1, 48720, Note_on_c, 9, 46, 100
1, 48733, Note_on_c, 9, 46, 0
1, 48959, Note_on_c, 9, 36, 0
1, 48960, Note_on_c, 9, 46, 100
1, 48960, Note_on_c, 9, 36, 110
1, 48973, Note_on_c, 9, 46, 0
1, 49200, Note_on_c, 9, 46, 100
1, 49213, Note_on_c, 9, 46, 0
1, 49439, Note_on_c, 9, 36, 0
1, 49440, Note_on_c, 9, 38, 120
1, 49440, Note_on_c, 9, 46, 120
1, 49440, Note_on_c, 9, 36, 110
1, 49453, Note_on_c, 9, 46, 0
1, 49679, Note_on_c, 9, 38, 0
1, 49679, Note_on_c, 9, 36, 0
1, 49680, Note_on_c, 9, 57, 120
1, 49680, Note_on_c, 9, 36, 100
1, 49693, Note_on_c, 9, 57, 0
1, 49919, Note_on_c, 9, 36, 0
1, 49920, Note_on_c, 9, 49, 120
1, 49920, Note_on_c, 9, 36, 110
1, 49933, Note_on_c, 9, 49, 0
1, 50160, Note_on_c, 9, 46, 100
1, 50173, Note_on_c, 9, 46, 0
1, 50399, Note_on_c, 9, 36, 0
1, 50400, Note_on_c, 9, 38, 120
1, 50400, Note_on_c, 9, 46, 120
1, 50400, Note_on_c, 9, 36, 110
1, 50413, Note_on_c, 9, 46, 0
1, 50639, Note_on_c, 9, 38, 0
1, 50640, Note_on_c, 9, 46, 100
1, 50653, Note_on_c, 9, 46, 0
1, 50879, Note_on_c, 9, 36, 0
1, 50880, Note_on_c, 9, 46, 100
1, 50880, Note_on_c, 9, 36, 110
1, 50893, Note_on_c, 9, 46, 0
1, 51120, Note_on_c, 9, 46, 100
1, 51133, Note_on_c, 9, 46, 0
1, 51359, Note_on_c, 9, 36, 0
1, 51360, Note_on_c, 9, 38, 120
1, 51360, Note_on_c, 9, 46, 120
1, 51360, Note_on_c, 9, 36, 110
1, 51373, Note_on_c, 9, 46, 0
1, 51599, Note_on_c, 9, 38, 0
1, 51600, Note_on_c, 9, 46, 100
1, 51613, Note_on_c, 9, 46, 0
1, 51839, Note_on_c, 9, 36, 0
1, 51840, Note_on_c, 9, 46, 100
1, 51840, Note_on_c, 9, 36, 110
1, 51853, Note_on_c, 9, 46, 0
1, 52080, Note_on_c, 9, 46, 100
1, 52093, Note_on_c, 9, 46, 0
1, 52319, Note_on_c, 9, 36, 0
1, 52320, Note_on_c, 9, 38, 120
1, 52320, Note_on_c, 9, 46, 120
1, 52320, Note_on_c, 9, 36, 110
1, 52333, Note_on_c, 9, 46, 0
1, 52559, Note_on_c, 9, 38, 0
1, 52560, Note_on_c, 9, 46, 100
1, 52573, Note_on_c, 9, 46, 0
1, 52799, Note_on_c, 9, 36, 0
1, 52800, Note_on_c, 9, 57, 120
1, 52800, Note_on_c, 9, 36, 110
1, 52813, Note_on_c, 9, 57, 0
1, 53039, Note_on_c, 9, 36, 0
1, 53040, Note_on_c, 9, 49, 100
1, 53040, Note_on_c, 9, 36, 100
1, 53053, Note_on_c, 9, 49, 0
1, 53279, Note_on_c, 9, 36, 0
1, 53280, Note_on_c, 9, 38, 120
1, 53519, Note_on_c, 9, 38, 0
1, 53520, Note_on_c, 9, 57, 120
1, 53520, Note_on_c, 9, 36, 110
1, 53533, Note_on_c, 9, 57, 0
1, 53759, Note_on_c, 9, 36, 0
1, 54000, Note_on_c, 9, 49, 100
1, 54000, Note_on_c, 9, 36, 100
1, 54013, Note_on_c, 9, 49, 0
1, 54239, Note_on_c, 9, 36, 0
1, 54240, Note_on_c, 9, 38, 120
1, 54240, Note_on_c, 9, 46, 120
1, 54253, Note_on_c, 9, 46, 0
1, 54479, Note_on_c, 9, 38, 0
1, 54480, Note_on_c, 9, 46, 100
1, 54493, Note_on_c, 9, 46, 0
1, 54720, Note_on_c, 9, 46, 100
1, 54720, Note_on_c, 9, 36, 110
1, 54733, Note_on_c, 9, 46, 0
1, 54960, Note_on_c, 9, 46, 100
1, 54973, Note_on_c, 9, 46, 0
1, 55199, Note_on_c, 9, 36, 0
1, 55200, Note_on_c, 9, 38, 120
1, 55200, Note_on_c, 9, 46, 120
1, 55200, Note_on_c, 9, 36, 110
1, 55213, Note_on_c, 9, 46, 0
1, 55439, Note_on_c, 9, 38, 0
1, 55440, Note_on_c, 9, 46, 100
1, 55453, Note_on_c, 9, 46, 0
1, 55679, Note_on_c, 9, 36, 0
1, 55680, Note_on_c, 9, 46, 100
1, 55680, Note_on_c, 9, 36, 110
1, 55693, Note_on_c, 9, 46, 0
1, 55920, Note_on_c, 9, 46, 100
1, 55933, Note_on_c, 9, 46, 0
1, 56159, Note_on_c, 9, 36, 0
1, 56160, Note_on_c, 9, 38, 120
1, 56160, Note_on_c, 9, 46, 120
1, 56160, Note_on_c, 9, 36, 110
1, 56173, Note_on_c, 9, 46, 0
1, 56399, Note_on_c, 9, 38, 0
1, 56400, Note_on_c, 9, 46, 100
1, 56413, Note_on_c, 9, 46, 0
1, 56639, Note_on_c, 9, 36, 0
1, 56640, Note_on_c, 9, 46, 100
1, 56640, Note_on_c, 9, 36, 110
1, 56653, Note_on_c, 9, 46, 0
1, 56880, Note_on_c, 9, 46, 100
1, 56893, Note_on_c, 9, 46, 0
1, 57119, Note_on_c, 9, 36, 0
1, 57120, Note_on_c, 9, 38, 120
1, 57120, Note_on_c, 9, 46, 120
1, 57120, Note_on_c, 9, 36, 110
1, 57133, Note_on_c, 9, 46, 0
1, 57359, Note_on_c, 9, 38, 0
1, 57360, Note_on_c, 9, 46, 100
1, 57373, Note_on_c, 9, 46, 0
1, 57599, Note_on_c, 9, 36, 0
1, 57600, Note_on_c, 9, 46, 100
1, 57600, Note_on_c, 9, 36, 110
1, 57613, Note_on_c, 9, 46, 0
1, 57840, Note_on_c, 9, 46, 100
1, 57853, Note_on_c, 9, 46, 0
1, 58079, Note_on_c, 9, 36, 0
1, 58080, Note_on_c, 9, 38, 120
1, 58080, Note_on_c, 9, 46, 120
1, 58080, Note_on_c, 9, 36, 110
1, 58093, Note_on_c, 9, 46, 0
1, 58319, Note_on_c, 9, 38, 0
1, 58320, Note_on_c, 9, 46, 100
1, 58333, Note_on_c, 9, 46, 0
1, 58559, Note_on_c, 9, 36, 0
1, 58560, Note_on_c, 9, 46, 100
1, 58560, Note_on_c, 9, 36, 110
1, 58573, Note_on_c, 9, 46, 0
1, 58800, Note_on_c, 9, 46, 100
1, 58813, Note_on_c, 9, 46, 0
1, 59039, Note_on_c, 9, 36, 0
1, 59040, Note_on_c, 9, 38, 120
1, 59040, Note_on_c, 9, 46, 120
1, 59040, Note_on_c, 9, 36, 110
1, 59053, Note_on_c, 9, 46, 0
1, 59279, Note_on_c, 9, 38, 0
1, 59280, Note_on_c, 9, 46, 100
1, 59293, Note_on_c, 9, 46, 0
1, 59519, Note_on_c, 9, 36, 0
1, 59520, Note_on_c, 9, 46, 100
1, 59520, Note_on_c, 9, 36, 110
1, 59533, Note_on_c, 9, 46, 0
1, 59760, Note_on_c, 9, 46, 100
1, 59773, Note_on_c, 9, 46, 0
1, 59999, Note_on_c, 9, 36, 0
1, 60000, Note_on_c, 9, 38, 120
1, 60000, Note_on_c, 9, 46, 120
1, 60000, Note_on_c, 9, 36, 110
1, 60013, Note_on_c, 9, 46, 0
1, 60239, Note_on_c, 9, 38, 0
1, 60240, Note_on_c, 9, 46, 100
1, 60253, Note_on_c, 9, 46, 0
1, 60479, Note_on_c, 9, 36, 0
1, 60480, Note_on_c, 9, 46, 100
1, 60480, Note_on_c, 9, 36, 110
1, 60493, Note_on_c, 9, 46, 0
1, 60720, Note_on_c, 9, 46, 100
1, 60733, Note_on_c, 9, 46, 0
1, 60959, Note_on_c, 9, 36, 0
1, 60960, Note_on_c, 9, 38, 120
1, 60960, Note_on_c, 9, 46, 120
1, 60960, Note_on_c, 9, 36, 110
1, 60973, Note_on_c, 9, 46, 0
1, 61199, Note_on_c, 9, 38, 0
1, 61200, Note_on_c, 9, 46, 100
1, 61213, Note_on_c, 9, 46, 0
1, 61439, Note_on_c, 9, 36, 0
1, 61440, Note_on_c, 9, 46, 100
1, 61440, Note_on_c, 9, 36, 110
1, 61453, Note_on_c, 9, 46, 0
1, 61680, Note_on_c, 9, 46, 100
1, 61693, Note_on_c, 9, 46, 0
1, 61919, Note_on_c, 9, 36, 0
1, 61920, Note_on_c, 9, 38, 120
1, 61920, Note_on_c, 9, 46, 120
1, 61920, Note_on_c, 9, 36, 110
1, 61933, Note_on_c, 9, 46, 0
1, 62159, Note_on_c, 9, 38, 0
1, 62160, Note_on_c, 9, 46, 100
1, 62173, Note_on_c, 9, 46, 0
1, 62399, Note_on_c, 9, 36, 0
1, 62400, Note_on_c, 9, 46, 100
1, 62400, Note_on_c, 9, 36, 110
1, 62413, Note_on_c, 9, 46, 0
1, 62640, Note_on_c, 9, 46, 100
1, 62653, Note_on_c, 9, 46, 0
1, 62879, Note_on_c, 9, 36, 0
1, 62880, Note_on_c, 9, 38, 120
1, 62880, Note_on_c, 9, 46, 120
1, 62880, Note_on_c, 9, 36, 110
1, 62893, Note_on_c, 9, 46, 0
1, 63119, Note_on_c, 9, 38, 0
1, 63120, Note_on_c, 9, 46, 100
1, 63133, Note_on_c, 9, 46, 0
1, 63359, Note_on_c, 9, 36, 0
1, 63360, Note_on_c, 9, 46, 100
1, 63360, Note_on_c, 9, 36, 110
1, 63373, Note_on_c, 9, 46, 0
1, 63600, Note_on_c, 9, 46, 100
1, 63613, Note_on_c, 9, 46, 0
1, 63839, Note_on_c, 9, 36, 0
1, 63840, Note_on_c, 9, 38, 120
1, 63840, Note_on_c, 9, 46, 120
1, 63840, Note_on_c, 9, 36, 110
1, 63853, Note_on_c, 9, 46, 0
1, 64079, Note_on_c, 9, 38, 0
1, 64080, Note_on_c, 9, 46, 100
1, 64093, Note_on_c, 9, 46, 0
1, 64319, Note_on_c, 9, 36, 0
1, 64320, Note_on_c, 9, 46, 100
1, 64320, Note_on_c, 9, 36, 110
1, 64333, Note_on_c, 9, 46, 0
1, 64560, Note_on_c, 9, 46, 100
1, 64573, Note_on_c, 9, 46, 0
1, 64799, Note_on_c, 9, 36, 0
1, 64800, Note_on_c, 9, 38, 120
1, 64800, Note_on_c, 9, 46, 120
1, 64800, Note_on_c, 9, 36, 110
1, 64813, Note_on_c, 9, 46, 0
1, 65039, Note_on_c, 9, 38, 0
1, 65040, Note_on_c, 9, 46, 100
1, 65053, Note_on_c, 9, 46, 0
1, 65279, Note_on_c, 9, 36, 0
1, 65280, Note_on_c, 9, 46, 100
1, 65280, Note_on_c, 9, 36, 110
1, 65293, Note_on_c, 9, 46, 0
1, 65520, Note_on_c, 9, 46, 100
1, 65533, Note_on_c, 9, 46, 0
1, 65759, Note_on_c, 9, 36, 0
1, 65760, Note_on_c, 9, 38, 120
1, 65760, Note_on_c, 9, 46, 120
1, 65760, Note_on_c, 9, 36, 110
1, 65773, Note_on_c, 9, 46, 0
1, 65999, Note_on_c, 9, 38, 0
1, 66000, Note_on_c, 9, 46, 100
1, 66013, Note_on_c, 9, 46, 0
1, 66239, Note_on_c, 9, 36, 0
1, 66240, Note_on_c, 9, 46, 100
1, 66240, Note_on_c, 9, 36, 110
1, 66253, Note_on_c, 9, 46, 0
1, 66480, Note_on_c, 9, 46, 100
1, 66493, Note_on_c, 9, 46, 0
1, 66719, Note_on_c, 9, 36, 0
1, 66720, Note_on_c, 9, 38, 120
1, 66720, Note_on_c, 9, 46, 120
1, 66720, Note_on_c, 9, 36, 110
1, 66733, Note_on_c, 9, 46, 0
1, 66959, Note_on_c, 9, 38, 0
1, 66960, Note_on_c, 9, 46, 100
1, 66973, Note_on_c, 9, 46, 0
1, 67199, Note_on_c, 9, 36, 0
1, 67200, Note_on_c, 9, 46, 100
1, 67200, Note_on_c, 9, 36, 110
1, 67213, Note_on_c, 9, 46, 0
1, 67440, Note_on_c, 9, 38, 120
1, 67440, Note_on_c, 9, 46, 120
1, 67453, Note_on_c, 9, 46, 0
1, 67679, Note_on_c, 9, 36, 0
1, 67679, Note_on_c, 9, 38, 0
1, 67680, Note_on_c, 9, 46, 100
1, 67680, Note_on_c, 9, 36, 110
1, 67693, Note_on_c, 9, 46, 0
1, 67919, Note_on_c, 9, 36, 0
1, 67920, Note_on_c, 9, 46, 100
1, 67920, Note_on_c, 9, 36, 100
1, 67933, Note_on_c, 9, 46, 0
1, 68159, Note_on_c, 9, 36, 0
1, 68160, Note_on_c, 9, 38, 120
1, 68160, Note_on_c, 9, 46, 120
1, 68173, Note_on_c, 9, 46, 0
1, 68399, Note_on_c, 9, 38, 0
1, 68400, Note_on_c, 9, 46, 100
1, 68400, Note_on_c, 9, 36, 110
1, 68413, Note_on_c, 9, 46, 0
1, 68639, Note_on_c, 9, 36, 0
1, 68640, Note_on_c, 9, 38, 120
1, 68640, Note_on_c, 9, 57, 120
1, 68653, Note_on_c, 9, 57, 0
1, 68879, Note_on_c, 9, 38, 0
1, 68880, Note_on_c, 9, 49, 120
1, 68880, Note_on_c, 9, 36, 110
1, 68893, Note_on_c, 9, 49, 0
1, 69119, Note_on_c, 9, 36, 0
1, 69120, Note_on_c, 9, 57, 120
1, 69120, Note_on_c, 9, 36, 100
1, 69133, Note_on_c, 9, 57, 0
1, 69360, Note_on_c, 9, 51, 100
1, 69373, Note_on_c, 9, 51, 0
1, 69599, Note_on_c, 9, 36, 0
1, 69600, Note_on_c, 9, 38, 120
1, 69600, Note_on_c, 9, 51, 120
1, 69600, Note_on_c, 9, 36, 110
1, 69613, Note_on_c, 9, 51, 0
1, 69839, Note_on_c, 9, 38, 0
1, 69840, Note_on_c, 9, 51, 100
1, 69853, Note_on_c, 9, 51, 0
1, 70079, Note_on_c, 9, 36, 0
1, 70080, Note_on_c, 9, 51, 100
1, 70080, Note_on_c, 9, 36, 110
1, 70093, Note_on_c, 9, 51, 0
1, 70320, Note_on_c, 9, 51, 100
1, 70333, Note_on_c, 9, 51, 0
1, 70559, Note_on_c, 9, 36, 0
1, 70560, Note_on_c, 9, 38, 120
1, 70560, Note_on_c, 9, 51, 120
1, 70560, Note_on_c, 9, 36, 110
1, 70573, Note_on_c, 9, 51, 0
1, 70799, Note_on_c, 9, 38, 0
1, 70800, Note_on_c, 9, 51, 100
1, 70813, Note_on_c, 9, 51, 0
1, 71039, Note_on_c, 9, 36, 0
1, 71040, Note_on_c, 9, 51, 100
1, 71040, Note_on_c, 9, 36, 110
1, 71053, Note_on_c, 9, 51, 0
1, 71280, Note_on_c, 9, 51, 100
1, 71293, Note_on_c, 9, 51, 0
1, 71519, Note_on_c, 9, 36, 0
1, 71520, Note_on_c, 9, 38, 120
1, 71520, Note_on_c, 9, 51, 120
1, 71520, Note_on_c, 9, 36, 110
1, 71533, Note_on_c, 9, 51, 0
1, 71759, Note_on_c, 9, 38, 0
1, 71760, Note_on_c, 9, 51, 100
1, 71773, Note_on_c, 9, 51, 0
1, 71999, Note_on_c, 9, 36, 0
1, 72000, Note_on_c, 9, 57, 120
1, 72000, Note_on_c, 9, 36, 110
1, 72013, Note_on_c, 9, 57, 0
1, 72239, Note_on_c, 9, 36, 0
1, 72240, Note_on_c, 9, 51, 100
1, 72240, Note_on_c, 9, 36, 100
1, 72253, Note_on_c, 9, 51, 0
1, 72479, Note_on_c, 9, 36, 0
1, 72480, Note_on_c, 9, 38, 120
1, 72480, Note_on_c, 9, 51, 120
1, 72493, Note_on_c, 9, 51, 0
1, 72719, Note_on_c, 9, 38, 0
1, 72720, Note_on_c, 9, 49, 120
1, 72720, Note_on_c, 9, 36, 110
1, 72733, Note_on_c, 9, 49, 0
1, 72959, Note_on_c, 9, 36, 0
1, 72960, Note_on_c, 9, 51, 100
1, 72960, Note_on_c, 9, 36, 100
1, 72973, Note_on_c, 9, 51, 0
1, 73200, Note_on_c, 9, 51, 100
1, 73213, Note_on_c, 9, 51, 0
1, 73439, Note_on_c, 9, 36, 0
1, 73440, Note_on_c, 9, 38, 120
1, 73440, Note_on_c, 9, 51, 120
1, 73440, Note_on_c, 9, 36, 110
1, 73453, Note_on_c, 9, 51, 0
1, 73679, Note_on_c, 9, 38, 0
1, 73680, Note_on_c, 9, 51, 100
1, 73693, Note_on_c, 9, 51, 0
1, 73919, Note_on_c, 9, 36, 0
1, 73920, Note_on_c, 9, 51, 100
1, 73920, Note_on_c, 9, 36, 110
1, 73933, Note_on_c, 9, 51, 0
1, 74160, Note_on_c, 9, 51, 100
1, 74173, Note_on_c, 9, 51, 0
1, 74399, Note_on_c, 9, 36, 0
1, 74400, Note_on_c, 9, 38, 120
1, 74400, Note_on_c, 9, 51, 120
1, 74400, Note_on_c, 9, 36, 110
1, 74413, Note_on_c, 9, 51, 0
1, 74639, Note_on_c, 9, 38, 0
1, 74640, Note_on_c, 9, 51, 100
1, 74653, Note_on_c, 9, 51, 0
1, 74879, Note_on_c, 9, 36, 0
1, 74880, Note_on_c, 9, 51, 100
1, 74880, Note_on_c, 9, 36, 110
1, 74893, Note_on_c, 9, 51, 0
1, 75120, Note_on_c, 9, 51, 100
1, 75133, Note_on_c, 9, 51, 0
1, 75359, Note_on_c, 9, 36, 0
1, 75360, Note_on_c, 9, 38, 120
1, 75360, Note_on_c, 9, 51, 120
1, 75360, Note_on_c, 9, 36, 110
1, 75373, Note_on_c, 9, 51, 0
1, 75599, Note_on_c, 9, 38, 0
1, 75600, Note_on_c, 9, 51, 100
1, 75613, Note_on_c, 9, 51, 0
1, 75839, Note_on_c, 9, 36, 0
1, 75840, Note_on_c, 9, 51, 100
1, 75840, Note_on_c, 9, 36, 110
1, 75853, Note_on_c, 9, 51, 0
1, 76080, Note_on_c, 9, 50, 100
1, 76319, Note_on_c, 9, 36, 0
1, 76319, Note_on_c, 9, 50, 0
1, 76320, Note_on_c, 9, 50, 120
1, 76559, Note_on_c, 9, 50, 0
1, 76560, Note_on_c, 9, 50, 100
1, 76679, Note_on_c, 9, 50, 0
1, 76680, Note_on_c, 9, 50, 80
1, 76799, Note_on_c, 9, 50, 0
1, 76800, Note_on_c, 9, 50, 120
1, 77039, Note_on_c, 9, 50, 0
1, 77040, Note_on_c, 9, 57, 120
1, 77040, Note_on_c, 9, 36, 110
1, 77053, Note_on_c, 9, 57, 0
1, 77279, Note_on_c, 9, 36, 0
1, 77280, Note_on_c, 9, 50, 120
1, 77519, Note_on_c, 9, 50, 0
1, 77520, Note_on_c, 9, 49, 120
1, 77520, Note_on_c, 9, 36, 110
1, 77533, Note_on_c, 9, 49, 0
1, 77759, Note_on_c, 9, 36, 0
1, 78000, Note_on_c, 9, 50, 120
1, 78239, Note_on_c, 9, 50, 0
1, 78240, Note_on_c, 9, 50, 100
1, 78479, Note_on_c, 9, 50, 0
1, 78480, Note_on_c, 9, 50, 80
1, 78719, Note_on_c, 9, 50, 0
1, 78720, Note_on_c, 9, 57, 120
1, 78720, Note_on_c, 9, 36, 110
1, 78733, Note_on_c, 9, 57, 0
1, 78959, Note_on_c, 9, 36, 0
1, 78960, Note_on_c, 9, 49, 120
1, 78960, Note_on_c, 9, 36, 100
1, 78973, Note_on_c, 9, 49, 0
1, 79199, Note_on_c, 9, 36, 0
1, 79200, Note_on_c, 9, 51, 100
1, 79213, Note_on_c, 9, 51, 0
1, 79440, Note_on_c, 9, 50, 120
1, 79679, Note_on_c, 9, 50, 0
1, 79680, Note_on_c, 9, 57, 120
1, 79680, Note_on_c, 9, 36, 110
1, 79707, Note_on_c, 9, 57, 0
1, 80159, Note_on_c, 9, 36, 0
1, 80160, Note_on_c, 9, 57, 120
1, 80160, Note_on_c, 9, 36, 110
1, 80173, Note_on_c, 9, 57, 0
1, 80399, Note_on_c, 9, 36, 0
1, 80400, Note_on_c, 9, 49, 120
1, 80400, Note_on_c, 9, 36, 100
1, 80413, Note_on_c, 9, 49, 0
1, 80639, Note_on_c, 9, 36, 0
1, 81120, Note_on_c, 9, 42, 100
1, 81147, Note_on_c, 9, 42, 0
1, 81600, Note_on_c, 9, 42, 100
1, 81627, Note_on_c, 9, 42, 0
1, 82080, Note_on_c, 9, 42, 100
1, 82107, Note_on_c, 9, 42, 0
1, 82560, Note_on_c, 9, 42, 100
1, 82573, Note_on_c, 9, 42, 0
1, 82800, Note_on_c, 9, 50, 120
1, 83039, Note_on_c, 9, 50, 0
1, 83040, Note_on_c, 9, 42, 100
1, 83053, Note_on_c, 9, 42, 0
1, 83280, Note_on_c, 9, 50, 100
1, 83519, Note_on_c, 9, 50, 0
1, 83520, Note_on_c, 9, 42, 100
1, 83533, Note_on_c, 9, 42, 0
1, 83760, Note_on_c, 9, 50, 80
1, 83999, Note_on_c, 9, 50, 0
1, 84000, Note_on_c, 9, 42, 100
1, 84013, Note_on_c, 9, 42, 0
1, 84240, Note_on_c, 9, 57, 120
1, 84240, Note_on_c, 9, 36, 110
1, 84253, Note_on_c, 9, 57, 0
1, 84479, Note_on_c, 9, 36, 0
1, 84720, Note_on_c, 9, 46, 100
1, 84733, Note_on_c, 9, 46, 0
1, 84960, Note_on_c, 9, 38, 120
1, 84960, Note_on_c, 9, 46, 120
1, 84960, Note_on_c, 9, 36, 110
1, 84973, Note_on_c, 9, 46, 0
1, 85199, Note_on_c, 9, 38, 0
1, 85200, Note_on_c, 9, 46, 100
1, 85213, Note_on_c, 9, 46, 0
1, 85439, Note_on_c, 9, 36, 0
1, 85440, Note_on_c, 9, 46, 100
1, 85440, Note_on_c, 9, 36, 110
1, 85453, Note_on_c, 9, 46, 0
1, 85680, Note_on_c, 9, 46, 100
1, 85693, Note_on_c, 9, 46, 0
1, 85919, Note_on_c, 9, 36, 0
1, 85920, Note_on_c, 9, 38, 120
1, 85920, Note_on_c, 9, 46, 120
1, 85920, Note_on_c, 9, 36, 110
1, 85933, Note_on_c, 9, 46, 0
1, 86159, Note_on_c, 9, 38, 0
1, 86160, Note_on_c, 9, 46, 100
1, 86173, Note_on_c, 9, 46, 0
1, 86399, Note_on_c, 9, 36, 0
1, 86400, Note_on_c, 9, 46, 100
1, 86400, Note_on_c, 9, 36, 110
1, 86413, Note_on_c, 9, 46, 0
1, 86640, Note_on_c, 9, 46, 100
1, 86653, Note_on_c, 9, 46, 0
1, 86879, Note_on_c, 9, 36, 0
1, 86880, Note_on_c, 9, 38, 120
1, 86880, Note_on_c, 9, 46, 120
1, 86880, Note_on_c, 9, 36, 110
1, 86893, Note_on_c, 9, 46, 0
1, 87119, Note_on_c, 9, 38, 0
1, 87120, Note_on_c, 9, 46, 100
1, 87133, Note_on_c, 9, 46, 0
1, 87359, Note_on_c, 9, 36, 0
1, 87360, Note_on_c, 9, 46, 100
1, 87360, Note_on_c, 9, 36, 110
1, 87373, Note_on_c, 9, 46, 0
1, 87600, Note_on_c, 9, 46, 100
1, 87613, Note_on_c, 9, 46, 0
1, 87839, Note_on_c, 9, 36, 0
1, 87840, Note_on_c, 9, 38, 120
1, 87840, Note_on_c, 9, 46, 120
1, 87840, Note_on_c, 9, 36, 110
1, 87853, Note_on_c, 9, 46, 0
1, 88079, Note_on_c, 9, 38, 0
1, 88079, Note_on_c, 9, 36, 0
1, 88080, Note_on_c, 9, 57, 120
1, 88080, Note_on_c, 9, 36, 100
1, 88093, Note_on_c, 9, 57, 0
1, 88319, Note_on_c, 9, 36, 0
1, 88320, Note_on_c, 9, 49, 120
1, 88320, Note_on_c, 9, 36, 110
1, 88333, Note_on_c, 9, 49, 0
1, 88560, Note_on_c, 9, 46, 100
1, 88573, Note_on_c, 9, 46, 0
1, 88799, Note_on_c, 9, 36, 0
1, 88800, Note_on_c, 9, 38, 120
1, 88800, Note_on_c, 9, 46, 120
1, 88800, Note_on_c, 9, 36, 110
1, 88813, Note_on_c, 9, 46, 0
1, 89039, Note_on_c, 9, 38, 0
1, 89040, Note_on_c, 9, 46, 100
1, 89053, Note_on_c, 9, 46, 0
1, 89279, Note_on_c, 9, 36, 0
1, 89280, Note_on_c, 9, 46, 100
1, 89280, Note_on_c, 9, 36, 110
1, 89293, Note_on_c, 9, 46, 0
1, 89520, Note_on_c, 9, 46, 100
1, 89533, Note_on_c, 9, 46, 0
1, 89759, Note_on_c, 9, 36, 0
1, 89760, Note_on_c, 9, 38, 120
1, 89760, Note_on_c, 9, 46, 120
1, 89760, Note_on_c, 9, 36, 110
1, 89773, Note_on_c, 9, 46, 0
1, 89999, Note_on_c, 9, 38, 0
1, 90000, Note_on_c, 9, 46, 100
1, 90013, Note_on_c, 9, 46, 0
1, 90239, Note_on_c, 9, 36, 0
1, 90240, Note_on_c, 9, 46, 100
1, 90240, Note_on_c, 9, 36, 110
1, 90253, Note_on_c, 9, 46, 0
1, 90480, Note_on_c, 9, 46, 100
1, 90493, Note_on_c, 9, 46, 0
1, 90719, Note_on_c, 9, 36, 0
1, 90720, Note_on_c, 9, 38, 120
1, 90720, Note_on_c, 9, 46, 120
1, 90720, Note_on_c, 9, 36, 110
1, 90733, Note_on_c, 9, 46, 0
1, 90959, Note_on_c, 9, 38, 0
1, 90960, Note_on_c, 9, 46, 100
1, 90973, Note_on_c, 9, 46, 0
1, 91199, Note_on_c, 9, 36, 0
1, 91200, Note_on_c, 9, 46, 100
1, 91200, Note_on_c, 9, 36, 110
1, 91213, Note_on_c, 9, 46, 0
1, 91440, Note_on_c, 9, 46, 100
1, 91453, Note_on_c, 9, 46, 0
1, 91679, Note_on_c, 9, 36, 0
1, 91680, Note_on_c, 9, 38, 120
1, 91680, Note_on_c, 9, 46, 120
1, 91680, Note_on_c, 9, 36, 110
1, 91693, Note_on_c, 9, 46, 0
1, 91919, Note_on_c, 9, 38, 0
1, 91919, Note_on_c, 9, 36, 0
1, 91920, Note_on_c, 9, 57, 120
1, 91920, Note_on_c, 9, 36, 100
1, 91933, Note_on_c, 9, 57, 0
1, 92159, Note_on_c, 9, 36, 0
1, 92160, Note_on_c, 9, 49, 120
1, 92160, Note_on_c, 9, 36, 110
1, 92173, Note_on_c, 9, 49, 0
1, 92400, Note_on_c, 9, 46, 100
1, 92413, Note_on_c, 9, 46, 0
1, 92639, Note_on_c, 9, 36, 0
1, 92640, Note_on_c, 9, 38, 120
1, 92640, Note_on_c, 9, 46, 120
1, 92640, Note_on_c, 9, 36, 110
1, 92653, Note_on_c, 9, 46, 0
1, 92879, Note_on_c, 9, 38, 0
1, 92880, Note_on_c, 9, 46, 100
1, 92893, Note_on_c, 9, 46, 0
1, 93119, Note_on_c, 9, 36, 0
1, 93120, Note_on_c, 9, 46, 100
1, 93120, Note_on_c, 9, 36, 110
1, 93133, Note_on_c, 9, 46, 0
1, 93360, Note_on_c, 9, 46, 100
1, 93373, Note_on_c, 9, 46, 0
1, 93599, Note_on_c, 9, 36, 0
1, 93600, Note_on_c, 9, 38, 120
1, 93600, Note_on_c, 9, 46, 120
1, 93600, Note_on_c, 9, 36, 110
1, 93613, Note_on_c, 9, 46, 0
1, 93839, Note_on_c, 9, 38, 0
1, 93840, Note_on_c, 9, 46, 100
1, 93853, Note_on_c, 9, 46, 0
1, 94079, Note_on_c, 9, 36, 0
1, 94080, Note_on_c, 9, 46, 100
1, 94080, Note_on_c, 9, 36, 110
1, 94093, Note_on_c, 9, 46, 0
1, 94320, Note_on_c, 9, 46, 100
1, 94333, Note_on_c, 9, 46, 0
1, 94559, Note_on_c, 9, 36, 0
1, 94560, Note_on_c, 9, 38, 120
1, 94560, Note_on_c, 9, 46, 120
1, 94560, Note_on_c, 9, 36, 110
1, 94573, Note_on_c, 9, 46, 0
1, 94799, Note_on_c, 9, 38, 0
1, 94800, Note_on_c, 9, 46, 100
1, 94813, Note_on_c, 9, 46, 0
1, 95039, Note_on_c, 9, 36, 0
1, 95040, Note_on_c, 9, 46, 100
1, 95040, Note_on_c, 9, 36, 110
1, 95053, Note_on_c, 9, 46, 0
1, 95280, Note_on_c, 9, 46, 100
1, 95293, Note_on_c, 9, 46, 0
1, 95519, Note_on_c, 9, 36, 0
1, 95520, Note_on_c, 9, 38, 120
1, 95520, Note_on_c, 9, 46, 120
1, 95520, Note_on_c, 9, 36, 110
1, 95533, Note_on_c, 9, 46, 0
1, 95759, Note_on_c, 9, 38, 0
1, 95759, Note_on_c, 9, 36, 0
1, 95760, Note_on_c, 9, 57, 120
1, 95760, Note_on_c, 9, 36, 100
1, 95773, Note_on_c, 9, 57, 0
1, 95999, Note_on_c, 9, 36, 0
1, 96000, Note_on_c, 9, 49, 120
1, 96000, Note_on_c, 9, 36, 110
1, 96013, Note_on_c, 9, 49, 0
1, 96240, Note_on_c, 9, 46, 100
1, 96253, Note_on_c, 9, 46, 0
1, 96479, Note_on_c, 9, 36, 0
1, 96480, Note_on_c, 9, 38, 120
1, 96480, Note_on_c, 9, 46, 120
1, 96480, Note_on_c, 9, 36, 110
1, 96493, Note_on_c, 9, 46, 0
1, 96719, Note_on_c, 9, 38, 0
1, 96720, Note_on_c, 9, 46, 100
1, 96733, Note_on_c, 9, 46, 0
1, 96959, Note_on_c, 9, 36, 0
1, 96960, Note_on_c, 9, 46, 100
1, 96960, Note_on_c, 9, 36, 110
1, 96973, Note_on_c, 9, 46, 0
1, 97200, Note_on_c, 9, 46, 100
1, 97213, Note_on_c, 9, 46, 0
1, 97439, Note_on_c, 9, 36, 0
1, 97440, Note_on_c, 9, 38, 120
1, 97440, Note_on_c, 9, 46, 120
1, 97440, Note_on_c, 9, 36, 110
1, 97453, Note_on_c, 9, 46, 0
1, 97679, Note_on_c, 9, 38, 0
1, 97680, Note_on_c, 9, 46, 100
1, 97693, Note_on_c, 9, 46, 0
1, 97919, Note_on_c, 9, 36, 0
1, 97920, Note_on_c, 9, 46, 100
1, 97920, Note_on_c, 9, 36, 110
1, 97933, Note_on_c, 9, 46, 0
1, 98160, Note_on_c, 9, 46, 100
1, 98173, Note_on_c, 9, 46, 0
1, 98399, Note_on_c, 9, 36, 0
1, 98400, Note_on_c, 9, 38, 120
1, 98400, Note_on_c, 9, 46, 120
1, 98400, Note_on_c, 9, 36, 110
1, 98413, Note_on_c, 9, 46, 0
1, 98639, Note_on_c, 9, 38, 0
1, 98640, Note_on_c, 9, 46, 100
1, 98653, Note_on_c, 9, 46, 0
1, 98879, Note_on_c, 9, 36, 0
1, 98880, Note_on_c, 9, 46, 100
1, 98880, Note_on_c, 9, 36, 110
1, 98893, Note_on_c, 9, 46, 0
1, 99119, Note_on_c, 9, 36, 0
1, 99120, Note_on_c, 9, 46, 100
1, 99120, Note_on_c, 9, 36, 100
1, 99133, Note_on_c, 9, 46, 0
1, 99359, Note_on_c, 9, 36, 0
1, 99360, Note_on_c, 9, 38, 120
1, 99360, Note_on_c, 9, 46, 120
1, 99373, Note_on_c, 9, 46, 0
1, 99599, Note_on_c, 9, 38, 0
1, 99600, Note_on_c, 9, 57, 120
1, 99600, Note_on_c, 9, 36, 110
1, 99613, Note_on_c, 9, 57, 0
1, 99839, Note_on_c, 9, 36, 0
1, 100080, Note_on_c, 9, 49, 100
1, 100080, Note_on_c, 9, 36, 100
1, 100093, Note_on_c, 9, 49, 0
1, 100319, Note_on_c, 9, 36, 0
1, 100320, Note_on_c, 9, 38, 120
1, 100320, Note_on_c, 9, 46, 120
1, 100333, Note_on_c, 9, 46, 0
1, 100559, Note_on_c, 9, 38, 0
1, 100560, Note_on_c, 9, 46, 100
1, 100573, Note_on_c, 9, 46, 0
1, 100800, Note_on_c, 9, 46, 100
1, 100800, Note_on_c, 9, 36, 110
1, 100813, Note_on_c, 9, 46, 0
1, 101040, Note_on_c, 9, 46, 100
1, 101053, Note_on_c, 9, 46, 0
1, 101279, Note_on_c, 9, 36, 0
1, 101280, Note_on_c, 9, 38, 120
1, 101280, Note_on_c, 9, 46, 120
1, 101280, Note_on_c, 9, 36, 110
1, 101293, Note_on_c, 9, 46, 0
1, 101519, Note_on_c, 9, 38, 0
1, 101520, Note_on_c, 9, 46, 100
1, 101533, Note_on_c, 9, 46, 0
1, 101759, Note_on_c, 9, 36, 0
1, 101760, Note_on_c, 9, 46, 100
1, 101760, Note_on_c, 9, 36, 110
1, 101773, Note_on_c, 9, 46, 0
1, 102000, Note_on_c, 9, 46, 100
1, 102013, Note_on_c, 9, 46, 0
1, 102239, Note_on_c, 9, 36, 0
1, 102240, Note_on_c, 9, 38, 120
1, 102240, Note_on_c, 9, 46, 120
1, 102240, Note_on_c, 9, 36, 110
1, 102253, Note_on_c, 9, 46, 0
1, 102479, Note_on_c, 9, 38, 0
1, 102480, Note_on_c, 9, 46, 100
1, 102493, Note_on_c, 9, 46, 0
1, 102719, Note_on_c, 9, 36, 0
1, 102720, Note_on_c, 9, 46, 100
1, 102720, Note_on_c, 9, 36, 110
1, 102733, Note_on_c, 9, 46, 0
1, 102960, Note_on_c, 9, 46, 100
1, 102973, Note_on_c, 9, 46, 0
1, 103199, Note_on_c, 9, 36, 0
1, 103200, Note_on_c, 9, 38, 120
1, 103200, Note_on_c, 9, 46, 120
1, 103200, Note_on_c, 9, 36, 110
1, 103213, Note_on_c, 9, 46, 0
1, 103439, Note_on_c, 9, 38, 0
1, 103440, Note_on_c, 9, 46, 100
1, 103453, Note_on_c, 9, 46, 0
1, 103679, Note_on_c, 9, 36, 0
1, 103680, Note_on_c, 9, 46, 100
1, 103680, Note_on_c, 9, 36, 110
1, 103693, Note_on_c, 9, 46, 0
1, 103920, Note_on_c, 9, 46, 100
1, 103933, Note_on_c, 9, 46, 0
1, 104159, Note_on_c, 9, 36, 0
1, 104160, Note_on_c, 9, 38, 120
1, 104160, Note_on_c, 9, 46, 120
1, 104160, Note_on_c, 9, 36, 110
1, 104173, Note_on_c, 9, 46, 0
1, 104399, Note_on_c, 9, 38, 0
1, 104400, Note_on_c, 9, 46, 100
1, 104413, Note_on_c, 9, 46, 0
1, 104639, Note_on_c, 9, 36, 0
1, 104640, Note_on_c, 9, 46, 100
1, 104640, Note_on_c, 9, 36, 110
1, 104653, Note_on_c, 9, 46, 0
1, 104880, Note_on_c, 9, 46, 100
1, 104893, Note_on_c, 9, 46, 0
1, 105119, Note_on_c, 9, 36, 0
1, 105120, Note_on_c, 9, 38, 120
1, 105120, Note_on_c, 9, 46, 120
1, 105120, Note_on_c, 9, 36, 110
1, 105133, Note_on_c, 9, 46, 0
1, 105359, Note_on_c, 9, 38, 0
1, 105360, Note_on_c, 9, 46, 100
1, 105373, Note_on_c, 9, 46, 0
1, 105599, Note_on_c, 9, 36, 0
1, 105600, Note_on_c, 9, 46, 100
1, 105600, Note_on_c, 9, 36, 110
1, 105613, Note_on_c, 9, 46, 0
1, 105840, Note_on_c, 9, 46, 100
1, 105853, Note_on_c, 9, 46, 0
1, 106079, Note_on_c, 9, 36, 0
1, 106080, Note_on_c, 9, 38, 120
1, 106080, Note_on_c, 9, 46, 120
1, 106080, Note_on_c, 9, 36, 110
1, 106093, Note_on_c, 9, 46, 0
1, 106319, Note_on_c, 9, 38, 0
1, 106320, Note_on_c, 9, 46, 100
1, 106333, Note_on_c, 9, 46, 0
1, 106559, Note_on_c, 9, 36, 0
1, 106560, Note_on_c, 9, 46, 100
1, 106560, Note_on_c, 9, 36, 110
1, 106573, Note_on_c, 9, 46, 0
1, 106800, Note_on_c, 9, 46, 100
1, 106813, Note_on_c, 9, 46, 0
1, 107039, Note_on_c, 9, 36, 0
1, 107040, Note_on_c, 9, 38, 120
1, 107040, Note_on_c, 9, 46, 120
1, 107040, Note_on_c, 9, 36, 110
1, 107053, Note_on_c, 9, 46, 0
1, 107279, Note_on_c, 9, 38, 0
1, 107280, Note_on_c, 9, 46, 100
1, 107293, Note_on_c, 9, 46, 0
1, 107519, Note_on_c, 9, 36, 0
1, 107520, Note_on_c, 9, 46, 100
1, 107520, Note_on_c, 9, 36, 110
1, 107533, Note_on_c, 9, 46, 0
1, 107760, Note_on_c, 9, 46, 100
1, 107773, Note_on_c, 9, 46, 0
1, 107999, Note_on_c, 9, 36, 0
1, 108000, Note_on_c, 9, 38, 120
1, 108000, Note_on_c, 9, 46, 120
1, 108000, Note_on_c, 9, 36, 110
1, 108013, Note_on_c, 9, 46, 0
1, 108239, Note_on_c, 9, 38, 0
1, 108240, Note_on_c, 9, 46, 100
1, 108253, Note_on_c, 9, 46, 0
1, 108479, Note_on_c, 9, 36, 0
1, 108480, Note_on_c, 9, 46, 100
1, 108480, Note_on_c, 9, 36, 110
1, 108493, Note_on_c, 9, 46, 0
1, 108720, Note_on_c, 9, 46, 100
1, 108733, Note_on_c, 9, 46, 0
1, 108959, Note_on_c, 9, 36, 0
1, 108960, Note_on_c, 9, 38, 120
1, 108960, Note_on_c, 9, 46, 120
1, 108960, Note_on_c, 9, 36, 110
1, 108973, Note_on_c, 9, 46, 0
1, 109199, Note_on_c, 9, 38, 0
1, 109200, Note_on_c, 9, 46, 100
1, 109213, Note_on_c, 9, 46, 0
1, 109439, Note_on_c, 9, 36, 0
1, 109440, Note_on_c, 9, 46, 100
1, 109440, Note_on_c, 9, 36, 110
1, 109453, Note_on_c, 9, 46, 0
1, 109680, Note_on_c, 9, 46, 100
1, 109693, Note_on_c, 9, 46, 0
1, 109919, Note_on_c, 9, 36, 0
1, 109920, Note_on_c, 9, 38, 120
1, 109920, Note_on_c, 9, 46, 120
1, 109920, Note_on_c, 9, 36, 110
1, 109933, Note_on_c, 9, 46, 0
1, 110159, Note_on_c, 9, 38, 0
1, 110160, Note_on_c, 9, 46, 100
1, 110173, Note_on_c, 9, 46, 0
1, 110399, Note_on_c, 9, 36, 0
1, 110400, Note_on_c, 9, 46, 100
1, 110400, Note_on_c, 9, 36, 110
1, 110413, Note_on_c, 9, 46, 0
1, 110640, Note_on_c, 9, 46, 100
1, 110653, Note_on_c, 9, 46, 0
1, 110879, Note_on_c, 9, 36, 0
1, 110880, Note_on_c, 9, 38, 120
1, 110880, Note_on_c, 9, 46, 120
1, 110880, Note_on_c, 9, 36, 110
1, 110893, Note_on_c, 9, 46, 0
1, 111119, Note_on_c, 9, 38, 0
1, 111120, Note_on_c, 9, 46, 100
1, 111133, Note_on_c, 9, 46, 0
1, 111359, Note_on_c, 9, 36, 0
1, 111360, Note_on_c, 9, 46, 100
1, 111360, Note_on_c, 9, 36, 110
1, 111373, Note_on_c, 9, 46, 0
1, 111600, Note_on_c, 9, 46, 100
1, 111613, Note_on_c, 9, 46, 0
1, 111839, Note_on_c, 9, 36, 0
1, 111840, Note_on_c, 9, 38, 120
1, 111840, Note_on_c, 9, 46, 120
1, 111840, Note_on_c, 9, 36, 110
1, 111853, Note_on_c, 9, 46, 0
1, 112079, Note_on_c, 9, 38, 0
1, 112080, Note_on_c, 9, 46, 100
1, 112093, Note_on_c, 9, 46, 0
1, 112319, Note_on_c, 9, 36, 0
1, 112320, Note_on_c, 9, 46, 100
1, 112320, Note_on_c, 9, 36, 110
1, 112333, Note_on_c, 9, 46, 0
1, 112560, Note_on_c, 9, 46, 100
1, 112573, Note_on_c, 9, 46, 0
1, 112799, Note_on_c, 9, 36, 0
1, 112800, Note_on_c, 9, 38, 120
1, 112800, Note_on_c, 9, 46, 120
1, 112800, Note_on_c, 9, 36, 110
1, 112813, Note_on_c, 9, 46, 0
1, 113039, Note_on_c, 9, 38, 0
1, 113040, Note_on_c, 9, 46, 100
1, 113053, Note_on_c, 9, 46, 0
1, 113279, Note_on_c, 9, 36, 0
1, 113280, Note_on_c, 9, 46, 100
1, 113280, Note_on_c, 9, 36, 110
1, 113293, Note_on_c, 9, 46, 0
1, 113520, Note_on_c, 9, 38, 120
1, 113520, Note_on_c, 9, 46, 120
1, 113533, Note_on_c, 9, 46, 0
1, 113759, Note_on_c, 9, 36, 0
1, 113759, Note_on_c, 9, 38, 0
1, 113760, Note_on_c, 9, 46, 100
1, 113760, Note_on_c, 9, 36, 110
1, 113773, Note_on_c, 9, 46, 0
1, 113999, Note_on_c, 9, 36, 0
1, 114000, Note_on_c, 9, 46, 100
1, 114000, Note_on_c, 9, 36, 100
1, 114013, Note_on_c, 9, 46, 0
1, 114239, Note_on_c, 9, 36, 0
1, 114240, Note_on_c, 9, 38, 120
1, 114240, Note_on_c, 9, 46, 120
1, 114253, Note_on_c, 9, 46, 0
1, 114479, Note_on_c, 9, 38, 0
1, 114480, Note_on_c, 9, 46, 100
1, 114480, Note_on_c, 9, 36, 110
1, 114493, Note_on_c, 9, 46, 0
1, 114719, Note_on_c, 9, 36, 0
1, 114720, Note_on_c, 9, 38, 120
1, 114720, Note_on_c, 9, 57, 120
1, 114733, Note_on_c, 9, 57, 0
1, 114959, Note_on_c, 9, 38, 0
1, 114960, Note_on_c, 9, 49, 120
1, 114960, Note_on_c, 9, 36, 110
1, 114973, Note_on_c, 9, 49, 0
1, 115199, Note_on_c, 9, 36, 0
1, 115200, Note_on_c, 9, 57, 120
1, 115200, Note_on_c, 9, 36, 100
1, 115213, Note_on_c, 9, 57, 0
1, 115440, Note_on_c, 9, 51, 100
1, 115453, Note_on_c, 9, 51, 0
1, 115679, Note_on_c, 9, 36, 0
1, 115680, Note_on_c, 9, 38, 120
1, 115680, Note_on_c, 9, 51, 120
1, 115680, Note_on_c, 9, 36, 110
1, 115693, Note_on_c, 9, 51, 0
1, 115919, Note_on_c, 9, 38, 0
1, 115920, Note_on_c, 9, 51, 100
1, 115933, Note_on_c, 9, 51, 0
1, 116159, Note_on_c, 9, 36, 0
1, 116160, Note_on_c, 9, 51, 100
1, 116160, Note_on_c, 9, 36, 110
1, 116173, Note_on_c, 9, 51, 0
1, 116400, Note_on_c, 9, 51, 100
1, 116413, Note_on_c, 9, 51, 0
1, 116639, Note_on_c, 9, 36, 0
1, 116640, Note_on_c, 9, 38, 120
1, 116640, Note_on_c, 9, 51, 120
1, 116640, Note_on_c, 9, 36, 110
1, 116653, Note_on_c, 9, 51, 0
1, 116879, Note_on_c, 9, 38, 0
1, 116880, Note_on_c, 9, 51, 100
1, 116893, Note_on_c, 9, 51, 0
1, 117119, Note_on_c, 9, 36, 0
1, 117120, Note_on_c, 9, 51, 100
1, 117120, Note_on_c, 9, 36, 110
1, 117133, Note_on_c, 9, 51, 0
1, 117360, Note_on_c, 9, 51, 100
1, 117373, Note_on_c, 9, 51, 0
1, 117599, Note_on_c, 9, 36, 0
1, 117600, Note_on_c, 9, 38, 120
1, 117600, Note_on_c, 9, 51, 120
1, 117600, Note_on_c, 9, 36, 110
1, 117613, Note_on_c, 9, 51, 0
1, 117839, Note_on_c, 9, 38, 0
1, 117840, Note_on_c, 9, 51, 100
1, 117853, Note_on_c, 9, 51, 0
1, 118079, Note_on_c, 9, 36, 0
1, 118080, Note_on_c, 9, 57, 120
1, 118080, Note_on_c, 9, 36, 110
1, 118093, Note_on_c, 9, 57, 0
1, 118319, Note_on_c, 9, 36, 0
1, 118320, Note_on_c, 9, 51, 100
1, 118320, Note_on_c, 9, 36, 100
1, 118333, Note_on_c, 9, 51, 0
1, 118559, Note_on_c, 9, 36, 0
1, 118560, Note_on_c, 9, 38, 120
1, 118560, Note_on_c, 9, 51, 120
1, 118573, Note_on_c, 9, 51, 0
1, 118799, Note_on_c, 9, 38, 0
1, 118800, Note_on_c, 9, 49, 120
1, 118800, Note_on_c, 9, 36, 110
1, 118813, Note_on_c, 9, 49, 0
1, 119039, Note_on_c, 9, 36, 0
1, 119040, Note_on_c, 9, 51, 100
1, 119040, Note_on_c, 9, 36, 100
1, 119053, Note_on_c, 9, 51, 0
1, 119280, Note_on_c, 9, 51, 100
1, 119293, Note_on_c, 9, 51, 0
1, 119519, Note_on_c, 9, 36, 0
1, 119520, Note_on_c, 9, 38, 120
1, 119520, Note_on_c, 9, 51, 120
1, 119520, Note_on_c, 9, 36, 110
1, 119533, Note_on_c, 9, 51, 0
1, 119759, Note_on_c, 9, 38, 0
1, 119760, Note_on_c, 9, 51, 100
1, 119773, Note_on_c, 9, 51, 0
1, 119999, Note_on_c, 9, 36, 0
1, 120000, Note_on_c, 9, 51, 100
1, 120000, Note_on_c, 9, 36, 110
1, 120013, Note_on_c, 9, 51, 0
1, 120240, Note_on_c, 9, 51, 100
1, 120253, Note_on_c, 9, 51, 0
1, 120479, Note_on_c, 9, 36, 0
1, 120480, Note_on_c, 9, 38, 120
1, 120480, Note_on_c, 9, 51, 120
1, 120480, Note_on_c, 9, 36, 110
1, 120493, Note_on_c, 9, 51, 0
1, 120719, Note_on_c, 9, 38, 0
1, 120720, Note_on_c, 9, 51, 100
1, 120733, Note_on_c, 9, 51, 0
1, 120959, Note_on_c, 9, 36, 0
1, 120960, Note_on_c, 9, 51, 100
1, 120960, Note_on_c, 9, 36, 110
1, 120973, Note_on_c, 9, 51, 0
1, 121200, Note_on_c, 9, 51, 100
1, 121213, Note_on_c, 9, 51, 0
1, 121439, Note_on_c, 9, 36, 0
1, 121440, Note_on_c, 9, 38, 120
1, 121440, Note_on_c, 9, 51, 120
1, 121440, Note_on_c, 9, 36, 110
1, 121453, Note_on_c, 9, 51, 0
1, 121679, Note_on_c, 9, 38, 0
1, 121680, Note_on_c, 9, 51, 100
1, 121693, Note_on_c, 9, 51, 0
1, 121919, Note_on_c, 9, 36, 0
1, 121920, Note_on_c, 9, 51, 100
1, 121920, Note_on_c, 9, 36, 110
1, 121933, Note_on_c, 9, 51, 0
1, 122160, Note_on_c, 9, 50, 100
1, 122399, Note_on_c, 9, 36, 0
1, 122399, Note_on_c, 9, 50, 0
1, 122400, Note_on_c, 9, 50, 120
1, 122639, Note_on_c, 9, 50, 0
1, 122640, Note_on_c, 9, 50, 100
1, 122759, Note_on_c, 9, 50, 0
1, 122760, Note_on_c, 9, 50, 80
1, 122879, Note_on_c, 9, 50, 0
1, 122880, Note_on_c, 9, 50, 120
1, 123119, Note_on_c, 9, 50, 0
1, 123120, Note_on_c, 9, 57, 120
1, 123120, Note_on_c, 9, 36, 110
1, 123133, Note_on_c, 9, 57, 0
1, 123359, Note_on_c, 9, 36, 0
1, 123360, Note_on_c, 9, 50, 120
1, 123599, Note_on_c, 9, 50, 0
1, 123600, Note_on_c, 9, 49, 120
1, 123600, Note_on_c, 9, 36, 110
1, 123613, Note_on_c, 9, 49, 0
1, 123839, Note_on_c, 9, 36, 0
1, 124080, Note_on_c, 9, 50, 120
1, 124319, Note_on_c, 9, 50, 0
1, 124320, Note_on_c, 9, 50, 100
1, 124559, Note_on_c, 9, 50, 0
1, 124560, Note_on_c, 9, 50, 80
1, 124799, Note_on_c, 9, 50, 0
1, 124800, Note_on_c, 9, 57, 120
1, 124800, Note_on_c, 9, 36, 110
1, 124813, Note_on_c, 9, 57, 0
1, 125039, Note_on_c, 9, 36, 0
1, 125040, Note_on_c, 9, 49, 120
1, 125040, Note_on_c, 9, 36, 100
1, 125053, Note_on_c, 9, 49, 0
1, 125279, Note_on_c, 9, 36, 0
1, 125280, Note_on_c, 9, 51, 100
1, 125293, Note_on_c, 9, 51, 0
1, 125520, Note_on_c, 9, 50, 120
1, 125759, Note_on_c, 9, 50, 0
1, 125760, Note_on_c, 9, 57, 120
1, 125760, Note_on_c, 9, 36, 110
1, 125787, Note_on_c, 9, 57, 0
1, 126239, Note_on_c, 9, 36, 0
1, 126240, Note_on_c, 9, 57, 120
1, 126240, Note_on_c, 9, 36, 110
1, 126253, Note_on_c, 9, 57, 0
1, 126479, Note_on_c, 9, 36, 0
1, 126480, Note_on_c, 9, 49, 120
1, 126480, Note_on_c, 9, 36, 100
1, 126493, Note_on_c, 9, 49, 0
1, 126719, Note_on_c, 9, 36, 0
1, 127200, Note_on_c, 9, 42, 100
1, 127227, Note_on_c, 9, 42, 0
1, 127680, Note_on_c, 9, 42, 100
1, 127707, Note_on_c, 9, 42, 0
1, 128160, Note_on_c, 9, 42, 100
1, 128187, Note_on_c, 9, 42, 0
1, 128640, Note_on_c, 9, 42, 100
1, 128653, Note_on_c, 9, 42, 0
1, 128880, Note_on_c, 9, 50, 120
1, 129119, Note_on_c, 9, 50, 0
1, 129120, Note_on_c, 9, 42, 100
1, 129133, Note_on_c, 9, 42, 0
1, 129360, Note_on_c, 9, 50, 100
1, 129599, Note_on_c, 9, 50, 0
1, 129600, Note_on_c, 9, 42, 100
1, 129613, Note_on_c, 9, 42, 0
1, 129840, Note_on_c, 9, 50, 80
1, 130079, Note_on_c, 9, 50, 0
1, 130080, Note_on_c, 9, 42, 100
1, 130093, Note_on_c, 9, 42, 0
1, 130320, Note_on_c, 9, 57, 120
1, 130320, Note_on_c, 9, 36, 110
1, 130333, Note_on_c, 9, 57, 0
1, 130559, Note_on_c, 9, 36, 0
1, 130800, Note_on_c, 9, 46, 100
1, 130813, Note_on_c, 9, 46, 0
1, 131040, Note_on_c, 9, 38, 120
1, 131040, Note_on_c, 9, 46, 120
1, 131040, Note_on_c, 9, 36, 110
1, 131053, Note_on_c, 9, 46, 0
1, 131279, Note_on_c, 9, 38, 0
1, 131280, Note_on_c, 9, 46, 100
1, 131293, Note_on_c, 9, 46, 0
1, 131519, Note_on_c, 9, 36, 0
1, 131520, Note_on_c, 9, 46, 100
1, 131520, Note_on_c, 9, 36, 110
1, 131533, Note_on_c, 9, 46, 0
1, 131760, Note_on_c, 9, 46, 100
1, 131773, Note_on_c, 9, 46, 0
1, 131999, Note_on_c, 9, 36, 0
1, 132000, Note_on_c, 9, 38, 120
1, 132000, Note_on_c, 9, 46, 120
1, 132000, Note_on_c, 9, 36, 110
1, 132013, Note_on_c, 9, 46, 0
1, 132239, Note_on_c, 9, 38, 0
1, 132240, Note_on_c, 9, 46, 100
1, 132253, Note_on_c, 9, 46, 0
1, 132479, Note_on_c, 9, 36, 0
1, 132480, Note_on_c, 9, 46, 100
1, 132480, Note_on_c, 9, 36, 110
1, 132493, Note_on_c, 9, 46, 0
1, 132720, Note_on_c, 9, 46, 100
1, 132733, Note_on_c, 9, 46, 0
1, 132959, Note_on_c, 9, 36, 0
1, 132960, Note_on_c, 9, 38, 120
1, 132960, Note_on_c, 9, 46, 120
1, 132960, Note_on_c, 9, 36, 110
1, 132973, Note_on_c, 9, 46, 0
1, 133199, Note_on_c, 9, 38, 0
1, 133200, Note_on_c, 9, 46, 100
1, 133213, Note_on_c, 9, 46, 0
1, 133439, Note_on_c, 9, 36, 0
1, 133440, Note_on_c, 9, 46, 100
1, 133440, Note_on_c, 9, 36, 110
1, 133453, Note_on_c, 9, 46, 0
1, 133680, Note_on_c, 9, 46, 100
1, 133693, Note_on_c, 9, 46, 0
1, 133919, Note_on_c, 9, 36, 0
1, 133920, Note_on_c, 9, 38, 120
1, 133920, Note_on_c, 9, 46, 120
1, 133920, Note_on_c, 9, 36, 110
1, 133933, Note_on_c, 9, 46, 0
1, 134159, Note_on_c, 9, 38, 0
1, 134159, Note_on_c, 9, 36, 0
1, 134160, Note_on_c, 9, 57, 120
1, 134160, Note_on_c, 9, 36, 100
1, 134173, Note_on_c, 9, 57, 0
1, 134399, Note_on_c, 9, 36, 0
1, 134400, Note_on_c, 9, 49, 120
1, 134400, Note_on_c, 9, 36, 110
1, 134413, Note_on_c, 9, 49, 0
1, 134640, Note_on_c, 9, 46, 100
1, 134653, Note_on_c, 9, 46, 0
1, 134879, Note_on_c, 9, 36, 0
1, 134880, Note_on_c, 9, 38, 120
1, 134880, Note_on_c, 9, 46, 120
1, 134880, Note_on_c, 9, 36, 110
1, 134893, Note_on_c, 9, 46, 0
1, 135119, Note_on_c, 9, 38, 0
1, 135120, Note_on_c, 9, 46, 100
1, 135133, Note_on_c, 9, 46, 0
1, 135359, Note_on_c, 9, 36, 0
1, 135360, Note_on_c, 9, 46, 100
1, 135360, Note_on_c, 9, 36, 110
1, 135373, Note_on_c, 9, 46, 0
1, 135600, Note_on_c, 9, 46, 100
1, 135613, Note_on_c, 9, 46, 0
1, 135839, Note_on_c, 9, 36, 0
1, 135840, Note_on_c, 9, 38, 120
1, 135840, Note_on_c, 9, 46, 120
1, 135840, Note_on_c, 9, 36, 110
1, 135853, Note_on_c, 9, 46, 0
1, 136079, Note_on_c, 9, 38, 0
1, 136080, Note_on_c, 9, 46, 100
1, 136093, Note_on_c, 9, 46, 0
1, 136319, Note_on_c, 9, 36, 0
1, 136320, Note_on_c, 9, 46, 100
1, 136320, Note_on_c, 9, 36, 110
1, 136333, Note_on_c, 9, 46, 0
1, 136560, Note_on_c, 9, 46, 100
1, 136573, Note_on_c, 9, 46, 0
1, 136799, Note_on_c, 9, 36, 0
1, 136800, Note_on_c, 9, 38, 120
1, 136800, Note_on_c, 9, 46, 120
1, 136800, Note_on_c, 9, 36, 110
1, 136813, Note_on_c, 9, 46, 0
1, 137039, Note_on_c, 9, 38, 0
1, 137040, Note_on_c, 9, 46, 100
1, 137053, Note_on_c, 9, 46, 0
1, 137279, Note_on_c, 9, 36, 0
1, 137280, Note_on_c, 9, 46, 100
1, 137280, Note_on_c, 9, 36, 110
1, 137293, Note_on_c, 9, 46, 0
1, 137520, Note_on_c, 9, 46, 100
1, 137533, Note_on_c, 9, 46, 0
1, 137759, Note_on_c, 9, 36, 0
1, 137760, Note_on_c, 9, 38, 120
1, 137760, Note_on_c, 9, 46, 120
1, 137760, Note_on_c, 9, 36, 110
1, 137773, Note_on_c, 9, 46, 0
1, 137999, Note_on_c, 9, 38, 0
1, 137999, Note_on_c, 9, 36, 0
1, 138000, Note_on_c, 9, 57, 120
1, 138000, Note_on_c, 9, 36, 100
1, 138013, Note_on_c, 9, 57, 0
1, 138239, Note_on_c, 9, 36, 0
1, 138240, Note_on_c, 9, 49, 120
1, 138240, Note_on_c, 9, 36, 110
1, 138253, Note_on_c, 9, 49, 0
1, 138480, Note_on_c, 9, 46, 100
1, 138493, Note_on_c, 9, 46, 0
1, 138719, Note_on_c, 9, 36, 0
1, 138720, Note_on_c, 9, 38, 120
1, 138720, Note_on_c, 9, 46, 120
1, 138720, Note_on_c, 9, 36, 110
1, 138733, Note_on_c, 9, 46, 0
1, 138959, Note_on_c, 9, 38, 0
1, 138960, Note_on_c, 9, 46, 100
1, 138973, Note_on_c, 9, 46, 0
1, 139199, Note_on_c, 9, 36, 0
1, 139200, Note_on_c, 9, 46, 100
1, 139200, Note_on_c, 9, 36, 110
1, 139213, Note_on_c, 9, 46, 0
1, 139440, Note_on_c, 9, 46, 100
1, 139453, Note_on_c, 9, 46, 0
1, 139679, Note_on_c, 9, 36, 0
1, 139680, Note_on_c, 9, 38, 120
1, 139680, Note_on_c, 9, 46, 120
1, 139680, Note_on_c, 9, 36, 110
1, 139693, Note_on_c, 9, 46, 0
1, 139919, Note_on_c, 9, 38, 0
1, 139920, Note_on_c, 9, 46, 100
1, 139933, Note_on_c, 9, 46, 0
1, 140159, Note_on_c, 9, 36, 0
1, 140160, Note_on_c, 9, 46, 100
1, 140160, Note_on_c, 9, 36, 110
1, 140173, Note_on_c, 9, 46, 0
1, 140400, Note_on_c, 9, 46, 100
1, 140413, Note_on_c, 9, 46, 0
1, 140639, Note_on_c, 9, 36, 0
1, 140640, Note_on_c, 9, 38, 120
1, 140640, Note_on_c, 9, 46, 120
1, 140640, Note_on_c, 9, 36, 110
1, 140653, Note_on_c, 9, 46, 0
1, 140879, Note_on_c, 9, 38, 0
1, 140880, Note_on_c, 9, 46, 100
1, 140893, Note_on_c, 9, 46, 0
1, 141119, Note_on_c, 9, 36, 0
1, 141120, Note_on_c, 9, 46, 100
1, 141120, Note_on_c, 9, 36, 110
1, 141133, Note_on_c, 9, 46, 0
1, 141360, Note_on_c, 9, 46, 100
1, 141373, Note_on_c, 9, 46, 0
1, 141599, Note_on_c, 9, 36, 0
1, 141600, Note_on_c, 9, 38, 120
1, 141600, Note_on_c, 9, 46, 120
1, 141600, Note_on_c, 9, 36, 110
1, 141613, Note_on_c, 9, 46, 0
1, 141839, Note_on_c, 9, 38, 0
1, 141839, Note_on_c, 9, 36, 0
1, 141840, Note_on_c, 9, 57, 120
1, 141840, Note_on_c, 9, 36, 100
1, 141853, Note_on_c, 9, 57, 0
1, 142079, Note_on_c, 9, 36, 0
1, 142320, Note_on_c, 9, 46, 100
1, 142333, Note_on_c, 9, 46, 0
1, 142560, Note_on_c, 9, 38, 120
1, 142560, Note_on_c, 9, 46, 120
1, 142560, Note_on_c, 9, 36, 110
1, 142573, Note_on_c, 9, 46, 0
1, 142799, Note_on_c, 9, 38, 0
1, 142800, Note_on_c, 9, 46, 100
1, 142813, Note_on_c, 9, 46, 0
1, 143039, Note_on_c, 9, 36, 0
1, 143040, Note_on_c, 9, 46, 100
1, 143040, Note_on_c, 9, 36, 110
1, 143053, Note_on_c, 9, 46, 0
1, 143279, Note_on_c, 9, 36, 0
1, 143280, Note_on_c, 9, 46, 100
1, 143280, Note_on_c, 9, 36, 100
1, 143293, Note_on_c, 9, 46, 0
1, 143519, Note_on_c, 9, 36, 0
1, 143520, Note_on_c, 9, 38, 120
1, 143520, Note_on_c, 9, 46, 120
1, 143533, Note_on_c, 9, 46, 0
1, 143759, Note_on_c, 9, 38, 0
1, 143760, Note_on_c, 9, 57, 120
1, 143760, Note_on_c, 9, 36, 110
1, 143773, Note_on_c, 9, 57, 0
1, 143999, Note_on_c, 9, 36, 0
1, 144240, Note_on_c, 9, 49, 120
1, 144240, Note_on_c, 9, 36, 110
1, 144253, Note_on_c, 9, 49, 0
1, 144479, Note_on_c, 9, 36, 0
1, 144480, Note_on_c, 9, 38, 120
1, 144719, Note_on_c, 9, 38, 0
1, 144720, Note_on_c, 9, 57, 120
1, 144720, Note_on_c, 9, 36, 110
1, 144733, Note_on_c, 9, 57, 0
1, 144959, Note_on_c, 9, 36, 0
1, 145200, Note_on_c, 9, 49, 120
1, 145200, Note_on_c, 9, 36, 110
1, 145213, Note_on_c, 9, 49, 0
1, 145439, Note_on_c, 9, 36, 0
1, 145440, Note_on_c, 9, 38, 120
1, 145679, Note_on_c, 9, 38, 0
1, 145680, Note_on_c, 9, 57, 120
1, 145680, Note_on_c, 9, 36, 110
1, 145693, Note_on_c, 9, 57, 0
1, 145919, Note_on_c, 9, 36, 0
1, 146160, Note_on_c, 9, 51, 100
1, 146160, Note_on_c, 9, 36, 100
1, 146173, Note_on_c, 9, 51, 0
1, 146399, Note_on_c, 9, 36, 0
1, 146400, Note_on_c, 9, 38, 120
1, 146400, Note_on_c, 9, 51, 120
1, 146400, Note_on_c, 9, 36, 110
1, 146413, Note_on_c, 9, 51, 0
1, 146639, Note_on_c, 9, 38, 0
1, 146640, Note_on_c, 9, 51, 100
1, 146653, Note_on_c, 9, 51, 0
1, 146879, Note_on_c, 9, 36, 0
1, 146880, Note_on_c, 9, 51, 100
1, 146880, Note_on_c, 9, 36, 110
1, 146893, Note_on_c, 9, 51, 0
1, 147120, Note_on_c, 9, 51, 100
1, 147133, Note_on_c, 9, 51, 0
1, 147359, Note_on_c, 9, 36, 0
1, 147360, Note_on_c, 9, 38, 120
1, 147360, Note_on_c, 9, 51, 120
1, 147360, Note_on_c, 9, 36, 110
1, 147373, Note_on_c, 9, 51, 0
1, 147599, Note_on_c, 9, 38, 0
1, 147600, Note_on_c, 9, 51, 100
1, 147613, Note_on_c, 9, 51, 0
1, 147839, Note_on_c, 9, 36, 0
1, 147840, Note_on_c, 9, 51, 100
1, 147840, Note_on_c, 9, 36, 110
1, 147853, Note_on_c, 9, 51, 0
1, 148080, Note_on_c, 9, 51, 100
1, 148093, Note_on_c, 9, 51, 0
1, 148319, Note_on_c, 9, 36, 0
1, 148320, Note_on_c, 9, 38, 120
1, 148320, Note_on_c, 9, 51, 120
1, 148320, Note_on_c, 9, 36, 110
1, 148333, Note_on_c, 9, 51, 0
1, 148559, Note_on_c, 9, 38, 0
1, 148560, Note_on_c, 9, 51, 100
1, 148573, Note_on_c, 9, 51, 0
1, 148799, Note_on_c, 9, 36, 0
1, 148800, Note_on_c, 9, 51, 100
1, 148800, Note_on_c, 9, 36, 110
1, 148813, Note_on_c, 9, 51, 0
1, 149040, Note_on_c, 9, 51, 100
1, 149053, Note_on_c, 9, 51, 0
1, 149279, Note_on_c, 9, 36, 0
1, 149280, Note_on_c, 9, 38, 120
1, 149280, Note_on_c, 9, 51, 120
1, 149280, Note_on_c, 9, 36, 110
1, 149293, Note_on_c, 9, 51, 0
1, 149519, Note_on_c, 9, 38, 0
1, 149519, Note_on_c, 9, 36, 0
1, 149520, Note_on_c, 9, 51, 100
1, 149520, Note_on_c, 9, 36, 100
1, 149533, Note_on_c, 9, 51, 0
1, 149759, Note_on_c, 9, 36, 0
1, 149760, Note_on_c, 9, 51, 100
1, 149760, Note_on_c, 9, 36, 110
1, 149773, Note_on_c, 9, 51, 0
1, 150000, Note_on_c, 9, 51, 100
1, 150013, Note_on_c, 9, 51, 0
1, 150239, Note_on_c, 9, 36, 0
1, 150240, Note_on_c, 9, 38, 120
1, 150240, Note_on_c, 9, 51, 120
1, 150240, Note_on_c, 9, 36, 110
1, 150253, Note_on_c, 9, 51, 0
1, 150479, Note_on_c, 9, 38, 0
1, 150480, Note_on_c, 9, 51, 100
1, 150493, Note_on_c, 9, 51, 0
1, 150719, Note_on_c, 9, 36, 0
1, 150720, Note_on_c, 9, 51, 100
1, 150720, Note_on_c, 9, 36, 110
1, 150733, Note_on_c, 9, 51, 0
1, 150960, Note_on_c, 9, 51, 100
1, 150973, Note_on_c, 9, 51, 0
1, 151199, Note_on_c, 9, 36, 0
1, 151200, Note_on_c, 9, 38, 120
1, 151200, Note_on_c, 9, 51, 120
1, 151200, Note_on_c, 9, 36, 110
1, 151213, Note_on_c, 9, 51, 0
1, 151439, Note_on_c, 9, 38, 0
1, 151440, Note_on_c, 9, 51, 100
1, 151453, Note_on_c, 9, 51, 0
1, 151679, Note_on_c, 9, 36, 0
1, 151680, Note_on_c, 9, 51, 100
1, 151680, Note_on_c, 9, 36, 110
1, 151693, Note_on_c, 9, 51, 0
1, 151920, Note_on_c, 9, 51, 100
1, 151933, Note_on_c, 9, 51, 0
1, 152159, Note_on_c, 9, 36, 0
1, 152160, Note_on_c, 9, 38, 120
1, 152160, Note_on_c, 9, 51, 120
1, 152160, Note_on_c, 9, 36, 110
1, 152173, Note_on_c, 9, 51, 0
1, 152399, Note_on_c, 9, 38, 0
1, 152400, Note_on_c, 9, 51, 100
1, 152413, Note_on_c, 9, 51, 0
1, 152639, Note_on_c, 9, 36, 0
1, 152640, Note_on_c, 9, 51, 100
1, 152640, Note_on_c, 9, 36, 110
1, 152653, Note_on_c, 9, 51, 0
1, 152879, Note_on_c, 9, 36, 0
1, 152880, Note_on_c, 9, 51, 100
1, 152880, Note_on_c, 9, 36, 100
1, 152893, Note_on_c, 9, 51, 0
1, 153119, Note_on_c, 9, 36, 0
1, 153120, Note_on_c, 9, 38, 120
1, 153120, Note_on_c, 9, 51, 120
1, 153133, Note_on_c, 9, 51, 0
1, 153359, Note_on_c, 9, 38, 0
1, 153360, Note_on_c, 9, 51, 100
1, 153360, Note_on_c, 9, 36, 110
1, 153373, Note_on_c, 9, 51, 0
1, 153599, Note_on_c, 9, 36, 0
1, 153600, Note_on_c, 9, 51, 100
1, 153600, Note_on_c, 9, 36, 100
1, 153613, Note_on_c, 9, 51, 0
1, 153840, Note_on_c, 9, 51, 100
1, 153853, Note_on_c, 9, 51, 0
1, 154079, Note_on_c, 9, 36, 0
1, 154080, Note_on_c, 9, 38, 120
1, 154080, Note_on_c, 9, 51, 120
1, 154080, Note_on_c, 9, 36, 110
1, 154093, Note_on_c, 9, 51, 0
1, 154319, Note_on_c, 9, 38, 0
1, 154320, Note_on_c, 9, 51, 100
1, 154333, Note_on_c, 9, 51, 0
1, 154559, Note_on_c, 9, 36, 0
1, 154560, Note_on_c, 9, 51, 100
1, 154560, Note_on_c, 9, 36, 110
1, 154573, Note_on_c, 9, 51, 0
1, 154800, Note_on_c, 9, 51, 100
1, 154813, Note_on_c, 9, 51, 0
1, 155039, Note_on_c, 9, 36, 0
1, 155040, Note_on_c, 9, 38, 120
1, 155040, Note_on_c, 9, 51, 120
1, 155040, Note_on_c, 9, 36, 110
1, 155053, Note_on_c, 9, 51, 0
1, 155279, Note_on_c, 9, 38, 0
1, 155279, Note_on_c, 9, 36, 0
1, 155280, Note_on_c, 9, 51, 100
1, 155280, Note_on_c, 9, 36, 100
1, 155293, Note_on_c, 9, 51, 0
1, 155519, Note_on_c, 9, 36, 0
1, 155520, Note_on_c, 9, 51, 100
1, 155520, Note_on_c, 9, 36, 110
1, 155533, Note_on_c, 9, 51, 0
1, 155760, Note_on_c, 9, 51, 100
1, 155773, Note_on_c, 9, 51, 0
1, 155999, Note_on_c, 9, 36, 0
1, 156000, Note_on_c, 9, 38, 120
1, 156000, Note_on_c, 9, 51, 120
1, 156000, Note_on_c, 9, 36, 110
1, 156013, Note_on_c, 9, 51, 0
1, 156239, Note_on_c, 9, 38, 0
1, 156240, Note_on_c, 9, 51, 100
1, 156253, Note_on_c, 9, 51, 0
1, 156479, Note_on_c, 9, 36, 0
1, 156480, Note_on_c, 9, 51, 100
1, 156480, Note_on_c, 9, 36, 110
1, 156493, Note_on_c, 9, 51, 0
1, 156719, Note_on_c, 9, 36, 0
1, 156720, Note_on_c, 9, 51, 100
1, 156720, Note_on_c, 9, 36, 100
1, 156733, Note_on_c, 9, 51, 0
1, 156959, Note_on_c, 9, 36, 0
1, 156960, Note_on_c, 9, 38, 120
1, 156960, Note_on_c, 9, 51, 120
1, 156973, Note_on_c, 9, 51, 0
1, 157199, Note_on_c, 9, 38, 0
1, 157200, Note_on_c, 9, 51, 100
1, 157200, Note_on_c, 9, 36, 100
1, 157213, Note_on_c, 9, 51, 0
1, 157439, Note_on_c, 9, 36, 0
1, 157440, Note_on_c, 9, 51, 100
1, 157440, Note_on_c, 9, 36, 110
1, 157453, Note_on_c, 9, 51, 0
1, 157680, Note_on_c, 9, 51, 100
1, 157693, Note_on_c, 9, 51, 0
1, 157919, Note_on_c, 9, 36, 0
1, 157920, Note_on_c, 9, 38, 120
1, 157920, Note_on_c, 9, 51, 120
1, 157920, Note_on_c, 9, 36, 110
1, 157933, Note_on_c, 9, 51, 0
1, 158159, Note_on_c, 9, 38, 0
1, 158160, Note_on_c, 9, 51, 100
1, 158173, Note_on_c, 9, 51, 0
1, 158399, Note_on_c, 9, 36, 0
1, 158400, Note_on_c, 9, 51, 100
1, 158400, Note_on_c, 9, 36, 110
1, 158413, Note_on_c, 9, 51, 0
1, 158639, Note_on_c, 9, 36, 0
1, 158640, Note_on_c, 9, 51, 100
1, 158640, Note_on_c, 9, 36, 100
1, 158653, Note_on_c, 9, 51, 0
1, 158879, Note_on_c, 9, 36, 0
1, 158880, Note_on_c, 9, 38, 120
1, 158880, Note_on_c, 9, 51, 120
1, 158893, Note_on_c, 9, 51, 0
1, 159119, Note_on_c, 9, 38, 0
1, 159120, Note_on_c, 9, 57, 120
1, 159120, Note_on_c, 9, 36, 110
1, 159133, Note_on_c, 9, 57, 0
1, 159359, Note_on_c, 9, 36, 0
1, 159600, Note_on_c, 9, 51, 100
1, 159600, Note_on_c, 9, 36, 100
1, 159613, Note_on_c, 9, 51, 0
1, 159839, Note_on_c, 9, 36, 0
1, 159840, Note_on_c, 9, 38, 120
1, 159840, Note_on_c, 9, 51, 120
1, 159853, Note_on_c, 9, 51, 0
1, 160079, Note_on_c, 9, 38, 0
1, 160080, Note_on_c, 9, 51, 100
1, 160093, Note_on_c, 9, 51, 0
1, 160320, Note_on_c, 9, 38, 120
1, 160320, Note_on_c, 9, 51, 120
1, 160333, Note_on_c, 9, 51, 0
1, 160559, Note_on_c, 9, 38, 0
1, 160560, Note_on_c, 9, 51, 100
1, 160560, Note_on_c, 9, 36, 110
1, 160573, Note_on_c, 9, 51, 0
1, 160799, Note_on_c, 9, 36, 0
1, 160800, Note_on_c, 9, 38, 120
1, 160800, Note_on_c, 9, 51, 120
1, 160813, Note_on_c, 9, 51, 0
1, 161039, Note_on_c, 9, 38, 0
1, 161040, Note_on_c, 9, 51, 100
1, 161040, Note_on_c, 9, 36, 110
1, 161053, Note_on_c, 9, 51, 0
1, 161279, Note_on_c, 9, 36, 0
1, 161280, Note_on_c, 9, 57, 120
1, 161280, Note_on_c, 9, 36, 110
1, 161293, Note_on_c, 9, 57, 0
1, 161520, Note_on_c, 9, 42, 100
1, 161533, Note_on_c, 9, 42, 0
1, 161759, Note_on_c, 9, 36, 0
1, 161760, Note_on_c, 9, 38, 120
1, 161760, Note_on_c, 9, 42, 120
1, 161773, Note_on_c, 9, 42, 0
1, 161999, Note_on_c, 9, 38, 0
1, 162000, Note_on_c, 9, 42, 100
1, 162013, Note_on_c, 9, 42, 0
1, 162240, Note_on_c, 9, 42, 100
1, 162240, Note_on_c, 9, 36, 110
1, 162253, Note_on_c, 9, 42, 0
1, 162480, Note_on_c, 9, 42, 100
1, 162493, Note_on_c, 9, 42, 0
1, 162719, Note_on_c, 9, 36, 0
1, 162720, Note_on_c, 9, 38, 120
1, 162720, Note_on_c, 9, 42, 120
1, 162720, Note_on_c, 9, 36, 110
1, 162733, Note_on_c, 9, 42, 0
1, 162959, Note_on_c, 9, 38, 0
1, 162960, Note_on_c, 9, 42, 100
1, 162973, Note_on_c, 9, 42, 0
1, 163199, Note_on_c, 9, 36, 0
1, 163200, Note_on_c, 9, 42, 100
1, 163200, Note_on_c, 9, 36, 110
1, 163213, Note_on_c, 9, 42, 0
1, 163440, Note_on_c, 9, 42, 100
1, 163453, Note_on_c, 9, 42, 0
1, 163679, Note_on_c, 9, 36, 0
1, 163680, Note_on_c, 9, 38, 120
1, 163680, Note_on_c, 9, 42, 120
1, 163680, Note_on_c, 9, 36, 110
1, 163693, Note_on_c, 9, 42, 0
1, 163919, Note_on_c, 9, 38, 0
1, 163920, Note_on_c, 9, 42, 100
1, 163933, Note_on_c, 9, 42, 0
1, 164159, Note_on_c, 9, 36, 0
1, 164160, Note_on_c, 9, 42, 100
1, 164160, Note_on_c, 9, 36, 110
1, 164173, Note_on_c, 9, 42, 0
1, 164399, Note_on_c, 9, 36, 0
1, 164400, Note_on_c, 9, 42, 100
1, 164400, Note_on_c, 9, 36, 100
1, 164413, Note_on_c, 9, 42, 0
1, 164639, Note_on_c, 9, 36, 0
1, 164640, Note_on_c, 9, 38, 120
1, 164640, Note_on_c, 9, 42, 120
1, 164653, Note_on_c, 9, 42, 0
1, 164879, Note_on_c, 9, 38, 0
1, 164880, Note_on_c, 9, 42, 100
1, 164880, Note_on_c, 9, 36, 110
1, 164893, Note_on_c, 9, 42, 0
1, 165119, Note_on_c, 9, 36, 0
1, 165120, Note_on_c, 9, 42, 100
1, 165120, Note_on_c, 9, 36, 110
1, 165133, Note_on_c, 9, 42, 0
1, 165360, Note_on_c, 9, 42, 100
1, 165373, Note_on_c, 9, 42, 0
1, 165599, Note_on_c, 9, 36, 0
1, 165600, Note_on_c, 9, 38, 120
1, 165600, Note_on_c, 9, 42, 120
1, 165600, Note_on_c, 9, 36, 110
1, 165613, Note_on_c, 9, 42, 0
1, 165839, Note_on_c, 9, 38, 0
1, 165840, Note_on_c, 9, 42, 100
1, 165853, Note_on_c, 9, 42, 0
1, 166079, Note_on_c, 9, 36, 0
1, 166080, Note_on_c, 9, 42, 100
1, 166080, Note_on_c, 9, 36, 110
1, 166093, Note_on_c, 9, 42, 0
1, 166320, Note_on_c, 9, 42, 100
1, 166333, Note_on_c, 9, 42, 0
1, 166559, Note_on_c, 9, 36, 0
1, 166560, Note_on_c, 9, 38, 120
1, 166560, Note_on_c, 9, 42, 120
1, 166560, Note_on_c, 9, 36, 110
1, 166573, Note_on_c, 9, 42, 0
1, 166799, Note_on_c, 9, 38, 0
1, 166800, Note_on_c, 9, 42, 100
1, 166813, Note_on_c, 9, 42, 0
1, 167039, Note_on_c, 9, 36, 0
1, 167040, Note_on_c, 9, 42, 100
1, 167040, Note_on_c, 9, 36, 110
1, 167053, Note_on_c, 9, 42, 0
1, 167280, Note_on_c, 9, 42, 100
1, 167293, Note_on_c, 9, 42, 0
1, 167519, Note_on_c, 9, 36, 0
1, 167520, Note_on_c, 9, 38, 120
1, 167520, Note_on_c, 9, 42, 120
1, 167520, Note_on_c, 9, 36, 110
1, 167533, Note_on_c, 9, 42, 0
1, 167759, Note_on_c, 9, 38, 0
1, 167760, Note_on_c, 9, 42, 100
1, 167773, Note_on_c, 9, 42, 0
1, 167999, Note_on_c, 9, 36, 0
1, 168000, Note_on_c, 9, 42, 100
1, 168000, Note_on_c, 9, 36, 110
1, 168013, Note_on_c, 9, 42, 0
1, 168240, Note_on_c, 9, 42, 100
1, 168253, Note_on_c, 9, 42, 0
1, 168479, Note_on_c, 9, 36, 0
1, 168480, Note_on_c, 9, 38, 120
1, 168480, Note_on_c, 9, 42, 120
1, 168480, Note_on_c, 9, 36, 110
1, 168493, Note_on_c, 9, 42, 0
1, 168719, Note_on_c, 9, 38, 0
1, 168720, Note_on_c, 9, 42, 100
1, 168733, Note_on_c, 9, 42, 0
1, 168959, Note_on_c, 9, 36, 0
1, 168960, Note_on_c, 9, 42, 100
1, 168960, Note_on_c, 9, 36, 110
1, 168973, Note_on_c, 9, 42, 0
1, 169200, Note_on_c, 9, 42, 100
1, 169213, Note_on_c, 9, 42, 0
1, 169439, Note_on_c, 9, 36, 0
1, 169440, Note_on_c, 9, 38, 120
1, 169440, Note_on_c, 9, 42, 120
1, 169440, Note_on_c, 9, 36, 110
1, 169453, Note_on_c, 9, 42, 0
1, 169679, Note_on_c, 9, 38, 0
1, 169680, Note_on_c, 9, 42, 100
1, 169693, Note_on_c, 9, 42, 0
1, 169919, Note_on_c, 9, 36, 0
1, 169920, Note_on_c, 9, 42, 100
1, 169920, Note_on_c, 9, 36, 110
1, 169933, Note_on_c, 9, 42, 0
1, 170160, Note_on_c, 9, 42, 100
1, 170173, Note_on_c, 9, 42, 0
1, 170399, Note_on_c, 9, 36, 0
1, 170400, Note_on_c, 9, 38, 120
1, 170400, Note_on_c, 9, 42, 120
1, 170400, Note_on_c, 9, 36, 110
1, 170413, Note_on_c, 9, 42, 0
1, 170639, Note_on_c, 9, 38, 0
1, 170640, Note_on_c, 9, 42, 100
1, 170653, Note_on_c, 9, 42, 0
1, 170879, Note_on_c, 9, 36, 0
1, 170880, Note_on_c, 9, 42, 100
1, 170880, Note_on_c, 9, 36, 110
1, 170893, Note_on_c, 9, 42, 0
1, 171120, Note_on_c, 9, 42, 100
1, 171133, Note_on_c, 9, 42, 0
1, 171359, Note_on_c, 9, 36, 0
1, 171360, Note_on_c, 9, 38, 120
1, 171360, Note_on_c, 9, 42, 120
1, 171360, Note_on_c, 9, 36, 110
1, 171373, Note_on_c, 9, 42, 0
1, 171599, Note_on_c, 9, 38, 0
1, 171600, Note_on_c, 9, 42, 100
1, 171613, Note_on_c, 9, 42, 0
1, 171839, Note_on_c, 9, 36, 0
1, 171840, Note_on_c, 9, 42, 100
1, 171840, Note_on_c, 9, 36, 110
1, 171853, Note_on_c, 9, 42, 0
1, 172080, Note_on_c, 9, 42, 100
1, 172093, Note_on_c, 9, 42, 0
1, 172319, Note_on_c, 9, 36, 0
1, 172320, Note_on_c, 9, 38, 120
1, 172320, Note_on_c, 9, 42, 120
1, 172320, Note_on_c, 9, 36, 110
1, 172333, Note_on_c, 9, 42, 0
1, 172559, Note_on_c, 9, 38, 0
1, 172560, Note_on_c, 9, 42, 100
1, 172573, Note_on_c, 9, 42, 0
1, 172799, Note_on_c, 9, 36, 0
1, 172800, Note_on_c, 9, 42, 100
1, 172800, Note_on_c, 9, 36, 110
1, 172813, Note_on_c, 9, 42, 0
1, 173040, Note_on_c, 9, 42, 100
1, 173053, Note_on_c, 9, 42, 0
1, 173279, Note_on_c, 9, 36, 0
1, 173280, Note_on_c, 9, 38, 120
1, 173280, Note_on_c, 9, 42, 120
1, 173280, Note_on_c, 9, 36, 110
1, 173293, Note_on_c, 9, 42, 0
1, 173519, Note_on_c, 9, 38, 0
1, 173520, Note_on_c, 9, 42, 100
1, 173533, Note_on_c, 9, 42, 0
1, 173759, Note_on_c, 9, 36, 0
1, 173760, Note_on_c, 9, 42, 100
1, 173760, Note_on_c, 9, 36, 110
1, 173773, Note_on_c, 9, 42, 0
1, 174000, Note_on_c, 9, 42, 100
1, 174013, Note_on_c, 9, 42, 0
1, 174239, Note_on_c, 9, 36, 0
1, 174240, Note_on_c, 9, 38, 120
1, 174240, Note_on_c, 9, 42, 120
1, 174240, Note_on_c, 9, 36, 110
1, 174253, Note_on_c, 9, 42, 0
1, 174479, Note_on_c, 9, 38, 0
1, 174480, Note_on_c, 9, 42, 100
1, 174493, Note_on_c, 9, 42, 0
1, 174719, Note_on_c, 9, 36, 0
1, 174720, Note_on_c, 9, 42, 100
1, 174720, Note_on_c, 9, 36, 110
1, 174733, Note_on_c, 9, 42, 0
1, 174960, Note_on_c, 9, 42, 100
1, 174973, Note_on_c, 9, 42, 0
1, 175199, Note_on_c, 9, 36, 0
1, 175200, Note_on_c, 9, 38, 120
1, 175200, Note_on_c, 9, 42, 120
1, 175200, Note_on_c, 9, 36, 110
1, 175213, Note_on_c, 9, 42, 0
1, 175439, Note_on_c, 9, 38, 0
1, 175440, Note_on_c, 9, 42, 100
1, 175453, Note_on_c, 9, 42, 0
1, 175679, Note_on_c, 9, 36, 0
1, 175680, Note_on_c, 9, 42, 100
1, 175680, Note_on_c, 9, 36, 110
1, 175693, Note_on_c, 9, 42, 0
1, 175920, Note_on_c, 9, 42, 100
1, 175933, Note_on_c, 9, 42, 0
1, 176159, Note_on_c, 9, 36, 0
1, 176160, Note_on_c, 9, 38, 120
1, 176160, Note_on_c, 9, 42, 120
1, 176160, Note_on_c, 9, 36, 110
1, 176173, Note_on_c, 9, 42, 0
1, 176399, Note_on_c, 9, 38, 0
1, 176400, Note_on_c, 9, 38, 100
1, 176400, Note_on_c, 9, 42, 100
1, 176413, Note_on_c, 9, 42, 0
1, 176639, Note_on_c, 9, 36, 0
1, 176639, Note_on_c, 9, 38, 0
1, 176640, Note_on_c, 9, 42, 100
1, 176640, Note_on_c, 9, 36, 110
1, 176653, Note_on_c, 9, 42, 0
1, 176880, Note_on_c, 9, 42, 100
1, 176893, Note_on_c, 9, 42, 0
1, 177119, Note_on_c, 9, 36, 0
1, 177120, Note_on_c, 9, 38, 120
1, 177120, Note_on_c, 9, 42, 120
1, 177120, Note_on_c, 9, 36, 110
1, 177133, Note_on_c, 9, 42, 0
1, 177359, Note_on_c, 9, 38, 0
1, 177360, Note_on_c, 9, 42, 100
1, 177373, Note_on_c, 9, 42, 0
1, 177599, Note_on_c, 9, 36, 0
1, 177600, Note_on_c, 9, 42, 100
1, 177600, Note_on_c, 9, 36, 110
1, 177613, Note_on_c, 9, 42, 0
1, 177840, Note_on_c, 9, 42, 100
1, 177853, Note_on_c, 9, 42, 0
1, 178079, Note_on_c, 9, 36, 0
1, 178080, Note_on_c, 9, 38, 120
1, 178080, Note_on_c, 9, 42, 120
1, 178080, Note_on_c, 9, 36, 110
1, 178093, Note_on_c, 9, 42, 0
1, 178319, Note_on_c, 9, 38, 0
1, 178320, Note_on_c, 9, 42, 100
1, 178333, Note_on_c, 9, 42, 0
1, 178559, Note_on_c, 9, 36, 0
1, 178560, Note_on_c, 9, 42, 100
1, 178560, Note_on_c, 9, 36, 110
1, 178573, Note_on_c, 9, 42, 0
1, 178800, Note_on_c, 9, 42, 100
1, 178813, Note_on_c, 9, 42, 0
1, 179039, Note_on_c, 9, 36, 0
1, 179040, Note_on_c, 9, 38, 120
1, 179040, Note_on_c, 9, 42, 120
1, 179040, Note_on_c, 9, 36, 110
1, 179053, Note_on_c, 9, 42, 0
1, 179279, Note_on_c, 9, 38, 0
1, 179280, Note_on_c, 9, 42, 100
1, 179293, Note_on_c, 9, 42, 0
1, 179519, Note_on_c, 9, 36, 0
1, 179520, Note_on_c, 9, 42, 100
1, 179520, Note_on_c, 9, 36, 110
1, 179533, Note_on_c, 9, 42, 0
1, 179760, Note_on_c, 9, 42, 100
1, 179773, Note_on_c, 9, 42, 0
1, 179999, Note_on_c, 9, 36, 0
1, 180000, Note_on_c, 9, 38, 120
1, 180000, Note_on_c, 9, 42, 120
1, 180000, Note_on_c, 9, 36, 110
1, 180013, Note_on_c, 9, 42, 0
1, 180239, Note_on_c, 9, 38, 0
1, 180240, Note_on_c, 9, 42, 100
1, 180253, Note_on_c, 9, 42, 0
1, 180479, Note_on_c, 9, 36, 0
1, 180480, Note_on_c, 9, 42, 100
1, 180480, Note_on_c, 9, 36, 110
1, 180493, Note_on_c, 9, 42, 0
1, 180720, Note_on_c, 9, 42, 100
1, 180733, Note_on_c, 9, 42, 0
1, 180959, Note_on_c, 9, 36, 0
1, 180960, Note_on_c, 9, 38, 120
1, 180960, Note_on_c, 9, 42, 120
1, 180960, Note_on_c, 9, 36, 110
1, 180973, Note_on_c, 9, 42, 0
1, 181199, Note_on_c, 9, 38, 0
1, 181200, Note_on_c, 9, 42, 100
1, 181213, Note_on_c, 9, 42, 0
1, 181439, Note_on_c, 9, 36, 0
1, 181440, Note_on_c, 9, 42, 100
1, 181440, Note_on_c, 9, 36, 110
1, 181453, Note_on_c, 9, 42, 0
1, 181680, Note_on_c, 9, 42, 100
1, 181693, Note_on_c, 9, 42, 0
1, 181919, Note_on_c, 9, 36, 0
1, 181920, Note_on_c, 9, 38, 120
1, 181920, Note_on_c, 9, 42, 120
1, 181920, Note_on_c, 9, 36, 110
1, 181933, Note_on_c, 9, 42, 0
1, 182159, Note_on_c, 9, 38, 0
1, 182160, Note_on_c, 9, 42, 100
1, 182173, Note_on_c, 9, 42, 0
1, 182399, Note_on_c, 9, 36, 0
1, 182400, Note_on_c, 9, 42, 100
1, 182400, Note_on_c, 9, 36, 110
1, 182413, Note_on_c, 9, 42, 0
1, 182640, Note_on_c, 9, 42, 100
1, 182653, Note_on_c, 9, 42, 0
1, 182879, Note_on_c, 9, 36, 0
1, 182880, Note_on_c, 9, 38, 120
1, 182880, Note_on_c, 9, 42, 120
1, 182880, Note_on_c, 9, 36, 110
1, 182893, Note_on_c, 9, 42, 0
1, 183119, Note_on_c, 9, 38, 0
1, 183120, Note_on_c, 9, 42, 100
1, 183133, Note_on_c, 9, 42, 0
1, 183359, Note_on_c, 9, 36, 0
1, 183360, Note_on_c, 9, 42, 100
1, 183360, Note_on_c, 9, 36, 110
1, 183373, Note_on_c, 9, 42, 0
1, 183600, Note_on_c, 9, 42, 100
1, 183613, Note_on_c, 9, 42, 0
1, 183839, Note_on_c, 9, 36, 0
1, 183840, Note_on_c, 9, 38, 120
1, 183840, Note_on_c, 9, 42, 120
1, 183840, Note_on_c, 9, 36, 110
1, 183853, Note_on_c, 9, 42, 0
1, 184079, Note_on_c, 9, 38, 0
1, 184080, Note_on_c, 9, 42, 100
1, 184093, Note_on_c, 9, 42, 0
1, 184319, Note_on_c, 9, 36, 0
1, 184320, Note_on_c, 9, 42, 100
1, 184320, Note_on_c, 9, 36, 110
1, 184333, Note_on_c, 9, 42, 0
1, 184560, Note_on_c, 9, 42, 100
1, 184573, Note_on_c, 9, 42, 0
1, 184799, Note_on_c, 9, 36, 0
1, 184800, Note_on_c, 9, 38, 120
1, 184800, Note_on_c, 9, 42, 120
1, 184800, Note_on_c, 9, 36, 110
1, 184813, Note_on_c, 9, 42, 0
1, 185039, Note_on_c, 9, 38, 0
1, 185040, Note_on_c, 9, 42, 100
1, 185053, Note_on_c, 9, 42, 0
1, 185279, Note_on_c, 9, 36, 0
1, 185280, Note_on_c, 9, 42, 100
1, 185280, Note_on_c, 9, 36, 110
1, 185293, Note_on_c, 9, 42, 0
1, 185520, Note_on_c, 9, 42, 100
1, 185533, Note_on_c, 9, 42, 0
1, 185759, Note_on_c, 9, 36, 0
1, 185760, Note_on_c, 9, 38, 120
1, 185760, Note_on_c, 9, 42, 120
1, 185760, Note_on_c, 9, 36, 110
1, 185773, Note_on_c, 9, 42, 0
1, 185999, Note_on_c, 9, 38, 0
1, 186000, Note_on_c, 9, 42, 100
1, 186013, Note_on_c, 9, 42, 0
1, 186239, Note_on_c, 9, 36, 0
1, 186240, Note_on_c, 9, 42, 100
1, 186240, Note_on_c, 9, 36, 110
1, 186253, Note_on_c, 9, 42, 0
1, 186480, Note_on_c, 9, 42, 100
1, 186493, Note_on_c, 9, 42, 0
1, 186719, Note_on_c, 9, 36, 0
1, 186720, Note_on_c, 9, 38, 120
1, 186720, Note_on_c, 9, 42, 120
1, 186720, Note_on_c, 9, 36, 110
1, 186733, Note_on_c, 9, 42, 0
1, 186959, Note_on_c, 9, 38, 0
1, 186960, Note_on_c, 9, 42, 100
1, 186973, Note_on_c, 9, 42, 0
1, 187199, Note_on_c, 9, 36, 0
1, 187200, Note_on_c, 9, 42, 100
1, 187200, Note_on_c, 9, 36, 110
1, 187213, Note_on_c, 9, 42, 0
1, 187440, Note_on_c, 9, 42, 100
1, 187453, Note_on_c, 9, 42, 0
1, 187679, Note_on_c, 9, 36, 0
1, 187680, Note_on_c, 9, 38, 120
1, 187680, Note_on_c, 9, 42, 120
1, 187680, Note_on_c, 9, 36, 110
1, 187693, Note_on_c, 9, 42, 0
1, 187919, Note_on_c, 9, 38, 0
1, 187920, Note_on_c, 9, 42, 100
1, 187933, Note_on_c, 9, 42, 0
1, 188159, Note_on_c, 9, 36, 0
1, 188160, Note_on_c, 9, 42, 100
1, 188160, Note_on_c, 9, 36, 110
1, 188173, Note_on_c, 9, 42, 0
1, 188400, Note_on_c, 9, 42, 100
1, 188413, Note_on_c, 9, 42, 0
1, 188639, Note_on_c, 9, 36, 0
1, 188640, Note_on_c, 9, 38, 120
1, 188640, Note_on_c, 9, 42, 120
1, 188640, Note_on_c, 9, 36, 110
1, 188653, Note_on_c, 9, 42, 0
1, 188879, Note_on_c, 9, 38, 0
1, 188880, Note_on_c, 9, 42, 100
1, 188893, Note_on_c, 9, 42, 0
1, 189119, Note_on_c, 9, 36, 0
1, 189120, Note_on_c, 9, 42, 100
1, 189120, Note_on_c, 9, 36, 110
1, 189133, Note_on_c, 9, 42, 0
1, 189360, Note_on_c, 9, 42, 100
1, 189373, Note_on_c, 9, 42, 0
1, 189599, Note_on_c, 9, 36, 0
1, 189600, Note_on_c, 9, 38, 120
1, 189600, Note_on_c, 9, 42, 120
1, 189600, Note_on_c, 9, 36, 110
1, 189613, Note_on_c, 9, 42, 0
1, 189839, Note_on_c, 9, 38, 0
1, 189840, Note_on_c, 9, 42, 100
1, 189853, Note_on_c, 9, 42, 0
1, 190079, Note_on_c, 9, 36, 0
1, 190080, Note_on_c, 9, 42, 100
1, 190080, Note_on_c, 9, 36, 110
1, 190093, Note_on_c, 9, 42, 0
1, 190320, Note_on_c, 9, 42, 100
1, 190333, Note_on_c, 9, 42, 0
1, 190559, Note_on_c, 9, 36, 0
1, 190560, Note_on_c, 9, 38, 120
1, 190560, Note_on_c, 9, 42, 120
1, 190560, Note_on_c, 9, 36, 110
1, 190573, Note_on_c, 9, 42, 0
1, 190799, Note_on_c, 9, 38, 0
1, 190800, Note_on_c, 9, 42, 100
1, 190813, Note_on_c, 9, 42, 0
1, 191039, Note_on_c, 9, 36, 0
1, 191040, Note_on_c, 9, 42, 100
1, 191040, Note_on_c, 9, 36, 110
1, 191053, Note_on_c, 9, 42, 0
1, 191279, Note_on_c, 9, 36, 0
1, 191280, Note_on_c, 9, 42, 100
1, 191280, Note_on_c, 9, 36, 100
1, 191293, Note_on_c, 9, 42, 0
1, 191519, Note_on_c, 9, 36, 0
1, 191520, Note_on_c, 9, 38, 120
1, 191520, Note_on_c, 9, 42, 120
1, 191533, Note_on_c, 9, 42, 0
1, 191759, Note_on_c, 9, 38, 0
1, 191760, Note_on_c, 9, 42, 100
1, 191760, Note_on_c, 9, 36, 100
1, 191773, Note_on_c, 9, 42, 0
1, 191999, Note_on_c, 9, 36, 0
1, 192000, Note_on_c, 9, 42, 100
1, 192000, Note_on_c, 9, 36, 110
1, 192013, Note_on_c, 9, 42, 0
1, 192240, Note_on_c, 9, 42, 100
1, 192253, Note_on_c, 9, 42, 0
1, 192479, Note_on_c, 9, 36, 0
1, 192480, Note_on_c, 9, 38, 120
1, 192480, Note_on_c, 9, 42, 120
1, 192480, Note_on_c, 9, 36, 110
1, 192493, Note_on_c, 9, 42, 0
1, 192719, Note_on_c, 9, 38, 0
1, 192720, Note_on_c, 9, 42, 100
1, 192733, Note_on_c, 9, 42, 0
1, 192959, Note_on_c, 9, 36, 0
1, 192960, Note_on_c, 9, 42, 100
1, 192960, Note_on_c, 9, 36, 110
1, 192973, Note_on_c, 9, 42, 0
1, 193200, Note_on_c, 9, 42, 100
1, 193213, Note_on_c, 9, 42, 0
1, 193439, Note_on_c, 9, 36, 0
1, 193440, Note_on_c, 9, 38, 120
1, 193440, Note_on_c, 9, 42, 120
1, 193440, Note_on_c, 9, 36, 110
1, 193453, Note_on_c, 9, 42, 0
1, 193679, Note_on_c, 9, 38, 0
1, 193680, Note_on_c, 9, 42, 100
1, 193693, Note_on_c, 9, 42, 0
1, 193919, Note_on_c, 9, 36, 0
1, 193920, Note_on_c, 9, 42, 100
1, 193920, Note_on_c, 9, 36, 110
1, 193933, Note_on_c, 9, 42, 0
1, 194160, Note_on_c, 9, 42, 100
1, 194173, Note_on_c, 9, 42, 0
1, 194399, Note_on_c, 9, 36, 0
1, 194400, Note_on_c, 9, 38, 120
1, 194400, Note_on_c, 9, 42, 120
1, 194400, Note_on_c, 9, 36, 110
1, 194413, Note_on_c, 9, 42, 0
1, 194639, Note_on_c, 9, 38, 0
1, 194640, Note_on_c, 9, 42, 100
1, 194653, Note_on_c, 9, 42, 0
1, 194879, Note_on_c, 9, 36, 0
1, 194880, Note_on_c, 9, 42, 100
1, 194880, Note_on_c, 9, 36, 110
1, 194893, Note_on_c, 9, 42, 0
1, 195120, Note_on_c, 9, 42, 100
1, 195133, Note_on_c, 9, 42, 0
1, 195359, Note_on_c, 9, 36, 0
1, 195360, Note_on_c, 9, 38, 120
1, 195360, Note_on_c, 9, 42, 120
1, 195360, Note_on_c, 9, 36, 110
1, 195373, Note_on_c, 9, 42, 0
1, 195599, Note_on_c, 9, 38, 0
1, 195600, Note_on_c, 9, 42, 100
1, 195613, Note_on_c, 9, 42, 0
1, 195839, Note_on_c, 9, 36, 0
1, 195840, Note_on_c, 9, 42, 100
1, 195840, Note_on_c, 9, 36, 110
1, 195853, Note_on_c, 9, 42, 0
1, 196080, Note_on_c, 9, 42, 100
1, 196093, Note_on_c, 9, 42, 0
1, 196319, Note_on_c, 9, 36, 0
1, 196320, Note_on_c, 9, 38, 120
1, 196320, Note_on_c, 9, 42, 120
1, 196320, Note_on_c, 9, 36, 110
1, 196333, Note_on_c, 9, 42, 0
1, 196559, Note_on_c, 9, 38, 0
1, 196560, Note_on_c, 9, 42, 100
1, 196573, Note_on_c, 9, 42, 0
1, 196799, Note_on_c, 9, 36, 0
1, 196800, Note_on_c, 9, 42, 100
1, 196800, Note_on_c, 9, 36, 110
1, 196813, Note_on_c, 9, 42, 0
1, 197040, Note_on_c, 9, 42, 100
1, 197053, Note_on_c, 9, 42, 0
1, 197279, Note_on_c, 9, 36, 0
1, 197280, Note_on_c, 9, 38, 120
1, 197280, Note_on_c, 9, 42, 120
1, 197280, Note_on_c, 9, 36, 110
1, 197293, Note_on_c, 9, 42, 0
1, 197519, Note_on_c, 9, 38, 0
1, 197520, Note_on_c, 9, 42, 100
1, 197533, Note_on_c, 9, 42, 0
1, 197759, Note_on_c, 9, 36, 0
1, 197760, Note_on_c, 9, 42, 100
1, 197760, Note_on_c, 9, 36, 110
1, 197773, Note_on_c, 9, 42, 0
1, 198000, Note_on_c, 9, 42, 100
1, 198013, Note_on_c, 9, 42, 0
1, 198239, Note_on_c, 9, 36, 0
1, 198240, Note_on_c, 9, 38, 120
1, 198240, Note_on_c, 9, 42, 120
1, 198240, Note_on_c, 9, 36, 110
1, 198253, Note_on_c, 9, 42, 0
1, 198479, Note_on_c, 9, 38, 0
1, 198480, Note_on_c, 9, 42, 100
1, 198493, Note_on_c, 9, 42, 0
1, 198719, Note_on_c, 9, 36, 0
1, 198720, Note_on_c, 9, 42, 100
1, 198720, Note_on_c, 9, 36, 110
1, 198733, Note_on_c, 9, 42, 0
1, 198960, Note_on_c, 9, 42, 100
1, 198973, Note_on_c, 9, 42, 0
1, 199199, Note_on_c, 9, 36, 0
1, 199200, Note_on_c, 9, 38, 120
1, 199200, Note_on_c, 9, 42, 120
1, 199200, Note_on_c, 9, 36, 110
1, 199213, Note_on_c, 9, 42, 0
1, 199439, Note_on_c, 9, 38, 0
1, 199440, Note_on_c, 9, 42, 100
1, 199453, Note_on_c, 9, 42, 0
1, 199679, Note_on_c, 9, 36, 0
1, 199680, Note_on_c, 9, 42, 100
1, 199680, Note_on_c, 9, 36, 110
1, 199693, Note_on_c, 9, 42, 0
1, 199920, Note_on_c, 9, 42, 100
1, 199933, Note_on_c, 9, 42, 0
1, 200159, Note_on_c, 9, 36, 0
1, 200160, Note_on_c, 9, 38, 120
1, 200160, Note_on_c, 9, 42, 120
1, 200160, Note_on_c, 9, 36, 110
1, 200173, Note_on_c, 9, 42, 0
1, 200399, Note_on_c, 9, 38, 0
1, 200400, Note_on_c, 9, 42, 100
1, 200413, Note_on_c, 9, 42, 0
1, 200639, Note_on_c, 9, 36, 0
1, 200640, Note_on_c, 9, 42, 100
1, 200640, Note_on_c, 9, 36, 110
1, 200653, Note_on_c, 9, 42, 0
1, 200880, Note_on_c, 9, 42, 100
1, 200893, Note_on_c, 9, 42, 0
1, 201119, Note_on_c, 9, 36, 0
1, 201120, Note_on_c, 9, 38, 120
1, 201120, Note_on_c, 9, 42, 120
1, 201120, Note_on_c, 9, 36, 110
1, 201133, Note_on_c, 9, 42, 0
1, 201359, Note_on_c, 9, 38, 0
1, 201360, Note_on_c, 9, 42, 100
1, 201373, Note_on_c, 9, 42, 0
1, 201599, Note_on_c, 9, 36, 0
1, 201600, Note_on_c, 9, 42, 100
1, 201600, Note_on_c, 9, 36, 110
1, 201613, Note_on_c, 9, 42, 0
1, 201840, Note_on_c, 9, 42, 100
1, 201853, Note_on_c, 9, 42, 0
1, 202079, Note_on_c, 9, 36, 0
1, 202080, Note_on_c, 9, 38, 120
1, 202080, Note_on_c, 9, 42, 120
1, 202080, Note_on_c, 9, 36, 110
1, 202093, Note_on_c, 9, 42, 0
1, 202319, Note_on_c, 9, 38, 0
1, 202320, Note_on_c, 9, 42, 100
1, 202333, Note_on_c, 9, 42, 0
1, 202559, Note_on_c, 9, 36, 0
1, 202560, Note_on_c, 9, 42, 100
1, 202560, Note_on_c, 9, 36, 110
1, 202573, Note_on_c, 9, 42, 0
1, 202800, Note_on_c, 9, 42, 100
1, 202813, Note_on_c, 9, 42, 0
1, 203039, Note_on_c, 9, 36, 0
1, 203040, Note_on_c, 9, 38, 120
1, 203040, Note_on_c, 9, 42, 120
1, 203040, Note_on_c, 9, 36, 110
1, 203053, Note_on_c, 9, 42, 0
1, 203279, Note_on_c, 9, 38, 0
1, 203280, Note_on_c, 9, 42, 100
1, 203293, Note_on_c, 9, 42, 0
1, 203519, Note_on_c, 9, 36, 0
1, 203520, Note_on_c, 9, 42, 100
1, 203520, Note_on_c, 9, 36, 110
1, 203533, Note_on_c, 9, 42, 0
1, 203760, Note_on_c, 9, 42, 100
1, 203773, Note_on_c, 9, 42, 0
1, 203999, Note_on_c, 9, 36, 0
1, 204000, Note_on_c, 9, 38, 120
1, 204000, Note_on_c, 9, 42, 120
1, 204000, Note_on_c, 9, 36, 110
1, 204013, Note_on_c, 9, 42, 0
1, 204239, Note_on_c, 9, 38, 0
1, 204240, Note_on_c, 9, 42, 100
1, 204253, Note_on_c, 9, 42, 0
1, 204479, Note_on_c, 9, 36, 0
1, 204480, Note_on_c, 9, 42, 100
1, 204480, Note_on_c, 9, 36, 110
1, 204493, Note_on_c, 9, 42, 0
1, 204720, Note_on_c, 9, 42, 100
1, 204733, Note_on_c, 9, 42, 0
1, 204959, Note_on_c, 9, 36, 0
1, 204960, Note_on_c, 9, 38, 120
1, 204960, Note_on_c, 9, 42, 120
1, 204960, Note_on_c, 9, 36, 110
1, 204973, Note_on_c, 9, 42, 0
1, 205199, Note_on_c, 9, 38, 0
1, 205200, Note_on_c, 9, 42, 100
1, 205213, Note_on_c, 9, 42, 0
1, 205439, Note_on_c, 9, 36, 0
1, 205440, Note_on_c, 9, 42, 100
1, 205440, Note_on_c, 9, 36, 110
1, 205453, Note_on_c, 9, 42, 0
1, 205680, Note_on_c, 9, 42, 100
1, 205693, Note_on_c, 9, 42, 0
1, 205919, Note_on_c, 9, 36, 0
1, 205920, Note_on_c, 9, 38, 120
1, 205920, Note_on_c, 9, 42, 120
1, 205920, Note_on_c, 9, 36, 110
1, 205933, Note_on_c, 9, 42, 0
1, 206159, Note_on_c, 9, 38, 0
1, 206160, Note_on_c, 9, 42, 100
1, 206173, Note_on_c, 9, 42, 0
1, 206399, Note_on_c, 9, 36, 0
1, 206400, Note_on_c, 9, 42, 100
1, 206400, Note_on_c, 9, 36, 110
1, 206413, Note_on_c, 9, 42, 0
1, 206640, Note_on_c, 9, 42, 100
1, 206653, Note_on_c, 9, 42, 0
1, 206879, Note_on_c, 9, 36, 0
1, 206880, Note_on_c, 9, 42, 100
1, 206880, Note_on_c, 9, 36, 110
1, 206893, Note_on_c, 9, 42, 0
1, 207120, Note_on_c, 9, 38, 120
1, 207120, Note_on_c, 9, 42, 120
1, 207133, Note_on_c, 9, 42, 0
1, 207359, Note_on_c, 9, 36, 0
1, 207359, Note_on_c, 9, 38, 0
1, 207360, Note_on_c, 9, 42, 100
1, 207360, Note_on_c, 9, 36, 110
1, 207373, Note_on_c, 9, 42, 0
1, 207600, Note_on_c, 9, 42, 100
1, 207613, Note_on_c, 9, 42, 0
1, 207839, Note_on_c, 9, 36, 0
1, 207840, Note_on_c, 9, 38, 120
1, 207840, Note_on_c, 9, 42, 120
1, 207840, Note_on_c, 9, 36, 110
1, 207853, Note_on_c, 9, 42, 0
1, 208079, Note_on_c, 9, 38, 0
1, 208080, Note_on_c, 9, 42, 100
1, 208093, Note_on_c, 9, 42, 0
1, 208319, Note_on_c, 9, 36, 0
1, 208320, Note_on_c, 9, 42, 100
1, 208320, Note_on_c, 9, 36, 110
1, 208333, Note_on_c, 9, 42, 0
1, 208560, Note_on_c, 9, 42, 100
1, 208573, Note_on_c, 9, 42, 0
1, 208799, Note_on_c, 9, 36, 0
1, 208800, Note_on_c, 9, 42, 100
1, 208800, Note_on_c, 9, 36, 110
1, 208813, Note_on_c, 9, 42, 0
1, 209040, Note_on_c, 9, 38, 120
1, 209040, Note_on_c, 9, 42, 120
1, 209053, Note_on_c, 9, 42, 0
1, 209279, Note_on_c, 9, 36, 0
1, 209279, Note_on_c, 9, 38, 0
1, 209280, Note_on_c, 9, 42, 100
1, 209280, Note_on_c, 9, 36, 110
1, 209293, Note_on_c, 9, 42, 0
1, 209520, Note_on_c, 9, 42, 100
1, 209533, Note_on_c, 9, 42, 0
1, 209759, Note_on_c, 9, 36, 0
1, 209760, Note_on_c, 9, 38, 120
1, 209760, Note_on_c, 9, 42, 120
1, 209760, Note_on_c, 9, 36, 110
1, 209773, Note_on_c, 9, 42, 0
1, 209999, Note_on_c, 9, 38, 0
1, 210000, Note_on_c, 9, 42, 100
1, 210013, Note_on_c, 9, 42, 0
1, 210239, Note_on_c, 9, 36, 0
1, 210240, Note_on_c, 9, 42, 100
1, 210240, Note_on_c, 9, 36, 110
1, 210253, Note_on_c, 9, 42, 0
1, 210480, Note_on_c, 9, 42, 100
1, 210493, Note_on_c, 9, 42, 0
1, 210719, Note_on_c, 9, 36, 0
1, 210720, Note_on_c, 9, 42, 100
1, 210720, Note_on_c, 9, 36, 110
1, 210733, Note_on_c, 9, 42, 0
1, 210960, Note_on_c, 9, 38, 120
1, 210960, Note_on_c, 9, 42, 120
1, 210973, Note_on_c, 9, 42, 0
1, 211199, Note_on_c, 9, 36, 0
1, 211199, Note_on_c, 9, 38, 0
1, 211200, Note_on_c, 9, 42, 100
1, 211200, Note_on_c, 9, 36, 110
1, 211213, Note_on_c, 9, 42, 0
1, 211440, Note_on_c, 9, 42, 100
1, 211453, Note_on_c, 9, 42, 0
1, 211679, Note_on_c, 9, 36, 0
1, 211680, Note_on_c, 9, 38, 120
1, 211680, Note_on_c, 9, 42, 120
1, 211680, Note_on_c, 9, 36, 110
1, 211693, Note_on_c, 9, 42, 0
1, 211919, Note_on_c, 9, 38, 0
1, 211920, Note_on_c, 9, 42, 100
1, 211933, Note_on_c, 9, 42, 0
1, 212159, Note_on_c, 9, 36, 0
1, 212160, Note_on_c, 9, 42, 100
1, 212160, Note_on_c, 9, 36, 110
1, 212173, Note_on_c, 9, 42, 0
1, 212400, Note_on_c, 9, 42, 100
1, 212413, Note_on_c, 9, 42, 0
1, 212639, Note_on_c, 9, 36, 0
1, 212640, Note_on_c, 9, 42, 100
1, 212640, Note_on_c, 9, 36, 110
1, 212653, Note_on_c, 9, 42, 0
1, 212880, Note_on_c, 9, 38, 120
1, 212880, Note_on_c, 9, 42, 120
1, 212893, Note_on_c, 9, 42, 0
1, 213119, Note_on_c, 9, 36, 0
1, 213119, Note_on_c, 9, 38, 0
1, 213120, Note_on_c, 9, 42, 100
1, 213120, Note_on_c, 9, 36, 110
1, 213133, Note_on_c, 9, 42, 0
1, 213360, Note_on_c, 9, 42, 100
1, 213373, Note_on_c, 9, 42, 0
1, 213599, Note_on_c, 9, 36, 0
1, 213600, Note_on_c, 9, 38, 120
1, 213600, Note_on_c, 9, 42, 120
1, 213600, Note_on_c, 9, 36, 110
1, 213613, Note_on_c, 9, 42, 0
1, 213839, Note_on_c, 9, 38, 0
1, 213840, Note_on_c, 9, 42, 100
1, 213853, Note_on_c, 9, 42, 0
1, 214079, Note_on_c, 9, 36, 0
1, 214080, Note_on_c, 9, 42, 100
1, 214080, Note_on_c, 9, 36, 110
1, 214093, Note_on_c, 9, 42, 0
1, 214320, Note_on_c, 9, 42, 100
1, 214333, Note_on_c, 9, 42, 0
1, 214559, Note_on_c, 9, 36, 0
1, 214560, Note_on_c, 9, 42, 100
1, 214560, Note_on_c, 9, 36, 110
1, 214573, Note_on_c, 9, 42, 0
1, 214800, Note_on_c, 9, 38, 120
1, 214800, Note_on_c, 9, 42, 120
1, 214813, Note_on_c, 9, 42, 0
1, 215039, Note_on_c, 9, 36, 0
1, 215039, Note_on_c, 9, 38, 0
1, 216720, Note_on_c, 9, 57, 120
1, 216720, Note_on_c, 9, 36, 110
1, 216733, Note_on_c, 9, 57, 0
1, 216959, Note_on_c, 9, 36, 0
1, 217200, Note_on_c, 9, 46, 100
1, 217213, Note_on_c, 9, 46, 0
1, 217440, Note_on_c, 9, 38, 120
1, 217440, Note_on_c, 9, 46, 120
1, 217440, Note_on_c, 9, 36, 110
1, 217453, Note_on_c, 9, 46, 0
1, 217679, Note_on_c, 9, 38, 0
1, 217680, Note_on_c, 9, 46, 100
1, 217693, Note_on_c, 9, 46, 0
1, 217919, Note_on_c, 9, 36, 0
1, 217920, Note_on_c, 9, 46, 100
1, 217920, Note_on_c, 9, 36, 110
1, 217933, Note_on_c, 9, 46, 0
1, 218160, Note_on_c, 9, 46, 100
1, 218173, Note_on_c, 9, 46, 0
1, 218399, Note_on_c, 9, 36, 0
1, 218400, Note_on_c, 9, 38, 120
1, 218400, Note_on_c, 9, 46, 120
1, 218400, Note_on_c, 9, 36, 110
1, 218413, Note_on_c, 9, 46, 0
1, 218639, Note_on_c, 9, 38, 0
1, 218640, Note_on_c, 9, 46, 100
1, 218653, Note_on_c, 9, 46, 0
1, 218879, Note_on_c, 9, 36, 0
1, 218880, Note_on_c, 9, 46, 100
1, 218880, Note_on_c, 9, 36, 110
1, 218893, Note_on_c, 9, 46, 0
1, 219120, Note_on_c, 9, 46, 100
1, 219133, Note_on_c, 9, 46, 0
1, 219359, Note_on_c, 9, 36, 0
1, 219360, Note_on_c, 9, 38, 120
1, 219360, Note_on_c, 9, 46, 120
1, 219360, Note_on_c, 9, 36, 110
1, 219373, Note_on_c, 9, 46, 0
1, 219599, Note_on_c, 9, 38, 0
1, 219600, Note_on_c, 9, 46, 100
1, 219613, Note_on_c, 9, 46, 0
1, 219839, Note_on_c, 9, 36, 0
1, 219840, Note_on_c, 9, 46, 100
1, 219840, Note_on_c, 9, 36, 110
1, 219853, Note_on_c, 9, 46, 0
1, 220080, Note_on_c, 9, 46, 100
1, 220093, Note_on_c, 9, 46, 0
1, 220319, Note_on_c, 9, 36, 0
1, 220320, Note_on_c, 9, 38, 120
1, 220320, Note_on_c, 9, 46, 120
1, 220320, Note_on_c, 9, 36, 110
1, 220333, Note_on_c, 9, 46, 0
1, 220559, Note_on_c, 9, 38, 0
1, 220559, Note_on_c, 9, 36, 0
1, 220560, Note_on_c, 9, 57, 120
1, 220560, Note_on_c, 9, 36, 100
1, 220573, Note_on_c, 9, 57, 0
1, 220799, Note_on_c, 9, 36, 0
1, 220800, Note_on_c, 9, 49, 120
1, 220800, Note_on_c, 9, 36, 110
1, 220813, Note_on_c, 9, 49, 0
1, 221040, Note_on_c, 9, 46, 100
1, 221053, Note_on_c, 9, 46, 0
1, 221279, Note_on_c, 9, 36, 0
1, 221280, Note_on_c, 9, 38, 120
1, 221280, Note_on_c, 9, 46, 120
1, 221280, Note_on_c, 9, 36, 110
1, 221293, Note_on_c, 9, 46, 0
1, 221519, Note_on_c, 9, 38, 0
1, 221520, Note_on_c, 9, 46, 100
1, 221533, Note_on_c, 9, 46, 0
1, 221759, Note_on_c, 9, 36, 0
1, 221760, Note_on_c, 9, 46, 100
1, 221760, Note_on_c, 9, 36, 110
1, 221773, Note_on_c, 9, 46, 0
1, 222000, Note_on_c, 9, 46, 100
1, 222013, Note_on_c, 9, 46, 0
1, 222239, Note_on_c, 9, 36, 0
1, 222240, Note_on_c, 9, 38, 120
1, 222240, Note_on_c, 9, 46, 120
1, 222240, Note_on_c, 9, 36, 110
1, 222253, Note_on_c, 9, 46, 0
1, 222479, Note_on_c, 9, 38, 0
1, 222480, Note_on_c, 9, 46, 100
1, 222493, Note_on_c, 9, 46, 0
1, 222719, Note_on_c, 9, 36, 0
1, 222720, Note_on_c, 9, 46, 100
1, 222720, Note_on_c, 9, 36, 110
1, 222733, Note_on_c, 9, 46, 0
1, 222960, Note_on_c, 9, 46, 100
1, 222973, Note_on_c, 9, 46, 0
1, 223199, Note_on_c, 9, 36, 0
1, 223200, Note_on_c, 9, 38, 120
1, 223200, Note_on_c, 9, 46, 120
1, 223200, Note_on_c, 9, 36, 110
1, 223213, Note_on_c, 9, 46, 0
1, 223439, Note_on_c, 9, 38, 0
1, 223440, Note_on_c, 9, 46, 100
1, 223453, Note_on_c, 9, 46, 0
1, 223679, Note_on_c, 9, 36, 0
1, 223680, Note_on_c, 9, 46, 100
1, 223680, Note_on_c, 9, 36, 110
1, 223693, Note_on_c, 9, 46, 0
1, 223920, Note_on_c, 9, 46, 100
1, 223933, Note_on_c, 9, 46, 0
1, 224159, Note_on_c, 9, 36, 0
1, 224160, Note_on_c, 9, 38, 120
1, 224160, Note_on_c, 9, 46, 120
1, 224160, Note_on_c, 9, 36, 110
1, 224173, Note_on_c, 9, 46, 0
1, 224399, Note_on_c, 9, 38, 0
1, 224399, Note_on_c, 9, 36, 0
1, 224400, Note_on_c, 9, 57, 120
1, 224400, Note_on_c, 9, 36, 100
1, 224413, Note_on_c, 9, 57, 0
1, 224639, Note_on_c, 9, 36, 0
1, 224640, Note_on_c, 9, 49, 120
1, 224640, Note_on_c, 9, 36, 110
1, 224653, Note_on_c, 9, 49, 0
1, 224880, Note_on_c, 9, 46, 100
1, 224893, Note_on_c, 9, 46, 0
1, 225119, Note_on_c, 9, 36, 0
1, 225120, Note_on_c, 9, 38, 120
1, 225120, Note_on_c, 9, 46, 120
1, 225120, Note_on_c, 9, 36, 110
1, 225133, Note_on_c, 9, 46, 0
1, 225359, Note_on_c, 9, 38, 0
1, 225360, Note_on_c, 9, 46, 100
1, 225373, Note_on_c, 9, 46, 0
1, 225599, Note_on_c, 9, 36, 0
1, 225600, Note_on_c, 9, 46, 100
1, 225600, Note_on_c, 9, 36, 110
1, 225613, Note_on_c, 9, 46, 0
1, 225840, Note_on_c, 9, 46, 100
1, 225853, Note_on_c, 9, 46, 0
1, 226079, Note_on_c, 9, 36, 0
1, 226080, Note_on_c, 9, 38, 120
1, 226080, Note_on_c, 9, 46, 120
1, 226080, Note_on_c, 9, 36, 110
1, 226093, Note_on_c, 9, 46, 0
1, 226319, Note_on_c, 9, 38, 0
1, 226320, Note_on_c, 9, 46, 100
1, 226333, Note_on_c, 9, 46, 0
1, 226559, Note_on_c, 9, 36, 0
1, 226560, Note_on_c, 9, 46, 100
1, 226560, Note_on_c, 9, 36, 110
1, 226573, Note_on_c, 9, 46, 0
1, 226800, Note_on_c, 9, 46, 100
1, 226813, Note_on_c, 9, 46, 0
1, 227039, Note_on_c, 9, 36, 0
1, 227040, Note_on_c, 9, 38, 120
1, 227040, Note_on_c, 9, 46, 120
1, 227040, Note_on_c, 9, 36, 110
1, 227053, Note_on_c, 9, 46, 0
1, 227279, Note_on_c, 9, 38, 0
1, 227280, Note_on_c, 9, 46, 100
1, 227293, Note_on_c, 9, 46, 0
1, 227519, Note_on_c, 9, 36, 0
1, 227520, Note_on_c, 9, 46, 100
1, 227520, Note_on_c, 9, 36, 110
1, 227533, Note_on_c, 9, 46, 0
1, 227760, Note_on_c, 9, 46, 100
1, 227773, Note_on_c, 9, 46, 0
1, 227999, Note_on_c, 9, 36, 0
1, 228000, Note_on_c, 9, 38, 120
1, 228000, Note_on_c, 9, 46, 120
1, 228000, Note_on_c, 9, 36, 110
1, 228013, Note_on_c, 9, 46, 0
1, 228239, Note_on_c, 9, 38, 0
1, 228239, Note_on_c, 9, 36, 0
1, 228240, Note_on_c, 9, 57, 120
1, 228240, Note_on_c, 9, 36, 100
1, 228253, Note_on_c, 9, 57, 0
1, 228479, Note_on_c, 9, 36, 0
1, 228480, Note_on_c, 9, 49, 120
1, 228480, Note_on_c, 9, 36, 110
1, 228493, Note_on_c, 9, 49, 0
1, 228720, Note_on_c, 9, 46, 100
1, 228733, Note_on_c, 9, 46, 0
1, 228959, Note_on_c, 9, 36, 0
1, 228960, Note_on_c, 9, 38, 120
1, 228960, Note_on_c, 9, 46, 120
1, 228960, Note_on_c, 9, 36, 110
1, 228973, Note_on_c, 9, 46, 0
1, 229199, Note_on_c, 9, 38, 0
1, 229200, Note_on_c, 9, 46, 100
1, 229213, Note_on_c, 9, 46, 0
1, 229439, Note_on_c, 9, 36, 0
1, 229440, Note_on_c, 9, 46, 100
1, 229440, Note_on_c, 9, 36, 110
1, 229453, Note_on_c, 9, 46, 0
1, 229680, Note_on_c, 9, 46, 100
1, 229693, Note_on_c, 9, 46, 0
1, 229919, Note_on_c, 9, 36, 0
1, 229920, Note_on_c, 9, 38, 120
1, 229920, Note_on_c, 9, 46, 120
1, 229920, Note_on_c, 9, 36, 110
1, 229933, Note_on_c, 9, 46, 0
1, 230159, Note_on_c, 9, 38, 0
1, 230160, Note_on_c, 9, 46, 100
1, 230173, Note_on_c, 9, 46, 0
1, 230399, Note_on_c, 9, 36, 0
1, 230400, Note_on_c, 9, 46, 100
1, 230400, Note_on_c, 9, 36, 110
1, 230413, Note_on_c, 9, 46, 0
1, 230640, Note_on_c, 9, 46, 100
1, 230653, Note_on_c, 9, 46, 0
1, 230879, Note_on_c, 9, 36, 0
1, 230880, Note_on_c, 9, 46, 100
1, 230880, Note_on_c, 9, 36, 110
1, 230893, Note_on_c, 9, 46, 0
1, 231119, Note_on_c, 9, 36, 0
1, 231120, Note_on_c, 9, 46, 100
1, 231120, Note_on_c, 9, 36, 100
1, 231133, Note_on_c, 9, 46, 0
1, 231359, Note_on_c, 9, 36, 0
1, 231360, Note_on_c, 9, 38, 120
1, 231599, Note_on_c, 9, 38, 0
1, 231600, Note_on_c, 9, 46, 100
1, 231600, Note_on_c, 9, 36, 110
1, 231613, Note_on_c, 9, 46, 0
1, 231839, Note_on_c, 9, 36, 0
1, 231840, Note_on_c, 9, 38, 120
1, 231959, Note_on_c, 9, 38, 0
1, 231960, Note_on_c, 9, 38, 100
1, 232079, Note_on_c, 9, 38, 0
1, 232080, Note_on_c, 9, 57, 120
1, 232080, Note_on_c, 9, 36, 110
1, 232093, Note_on_c, 9, 57, 0
1, 232319, Note_on_c, 9, 36, 0
1, 232320, Note_on_c, 9, 49, 120
1, 232320, Note_on_c, 9, 36, 110
1, 232333, Note_on_c, 9, 49, 0
1, 232560, Note_on_c, 9, 46, 100
1, 232573, Note_on_c, 9, 46, 0
1, 232799, Note_on_c, 9, 36, 0
1, 232800, Note_on_c, 9, 38, 120
1, 232800, Note_on_c, 9, 57, 120
1, 232800, Note_on_c, 9, 36, 110
1, 232813, Note_on_c, 9, 57, 0
1, 233039, Note_on_c, 9, 38, 0
1, 233040, Note_on_c, 9, 46, 100
1, 233053, Note_on_c, 9, 46, 0
1, 233279, Note_on_c, 9, 36, 0
1, 233280, Note_on_c, 9, 46, 100
1, 233280, Note_on_c, 9, 36, 110
1, 233293, Note_on_c, 9, 46, 0
1, 233520, Note_on_c, 9, 46, 100
1, 233533, Note_on_c, 9, 46, 0
1, 233759, Note_on_c, 9, 36, 0
1, 233760, Note_on_c, 9, 38, 120
1, 233760, Note_on_c, 9, 57, 120
1, 233760, Note_on_c, 9, 36, 110
1, 233773, Note_on_c, 9, 57, 0
1, 233999, Note_on_c, 9, 38, 0
1, 234000, Note_on_c, 9, 46, 100
1, 234013, Note_on_c, 9, 46, 0
1, 234239, Note_on_c, 9, 36, 0
1, 234240, Note_on_c, 9, 46, 100
1, 234240, Note_on_c, 9, 36, 110
1, 234253, Note_on_c, 9, 46, 0
1, 234480, Note_on_c, 9, 46, 100
1, 234493, Note_on_c, 9, 46, 0
1, 234719, Note_on_c, 9, 36, 0
1, 234720, Note_on_c, 9, 38, 120
1, 234720, Note_on_c, 9, 57, 120
1, 234720, Note_on_c, 9, 36, 110
1, 234733, Note_on_c, 9, 57, 0
1, 234959, Note_on_c, 9, 38, 0
1, 234960, Note_on_c, 9, 46, 100
1, 234973, Note_on_c, 9, 46, 0
1, 235199, Note_on_c, 9, 36, 0
1, 235200, Note_on_c, 9, 46, 100
1, 235200, Note_on_c, 9, 36, 110
1, 235213, Note_on_c, 9, 46, 0
1, 235440, Note_on_c, 9, 46, 100
1, 235453, Note_on_c, 9, 46, 0
1, 235679, Note_on_c, 9, 36, 0
1, 235680, Note_on_c, 9, 38, 120
1, 235680, Note_on_c, 9, 57, 120
1, 235680, Note_on_c, 9, 36, 110
1, 235693, Note_on_c, 9, 57, 0
1, 235919, Note_on_c, 9, 38, 0
1, 235920, Note_on_c, 9, 49, 100
1, 235933, Note_on_c, 9, 49, 0
1, 236159, Note_on_c, 9, 36, 0
1, 236160, Note_on_c, 9, 46, 100
1, 236160, Note_on_c, 9, 36, 110
1, 236173, Note_on_c, 9, 46, 0
1, 236400, Note_on_c, 9, 46, 100
1, 236413, Note_on_c, 9, 46, 0
1, 236639, Note_on_c, 9, 36, 0
1, 236640, Note_on_c, 9, 38, 120
1, 236640, Note_on_c, 9, 57, 120
1, 236640, Note_on_c, 9, 36, 110
1, 236653, Note_on_c, 9, 57, 0
1, 236879, Note_on_c, 9, 38, 0
1, 236880, Note_on_c, 9, 46, 100
1, 236893, Note_on_c, 9, 46, 0
1, 237119, Note_on_c, 9, 36, 0
1, 237120, Note_on_c, 9, 46, 100
1, 237120, Note_on_c, 9, 36, 110
1, 237133, Note_on_c, 9, 46, 0
1, 237360, Note_on_c, 9, 46, 100
1, 237373, Note_on_c, 9, 46, 0
1, 237599, Note_on_c, 9, 36, 0
1, 237600, Note_on_c, 9, 38, 120
1, 237600, Note_on_c, 9, 57, 120
1, 237600, Note_on_c, 9, 36, 110
1, 237613, Note_on_c, 9, 57, 0
1, 237839, Note_on_c, 9, 38, 0
1, 237840, Note_on_c, 9, 46, 100
1, 237853, Note_on_c, 9, 46, 0
1, 238079, Note_on_c, 9, 36, 0
1, 238080, Note_on_c, 9, 46, 100
1, 238080, Note_on_c, 9, 36, 110
1, 238093, Note_on_c, 9, 46, 0
1, 238320, Note_on_c, 9, 46, 100
1, 238333, Note_on_c, 9, 46, 0
1, 238559, Note_on_c, 9, 36, 0
1, 238560, Note_on_c, 9, 38, 120
1, 238560, Note_on_c, 9, 57, 120
1, 238560, Note_on_c, 9, 36, 110
1, 238573, Note_on_c, 9, 57, 0
1, 238799, Note_on_c, 9, 38, 0
1, 238800, Note_on_c, 9, 46, 100
1, 238813, Note_on_c, 9, 46, 0
1, 239039, Note_on_c, 9, 36, 0
1, 239040, Note_on_c, 9, 46, 100
1, 239040, Note_on_c, 9, 36, 110
1, 239053, Note_on_c, 9, 46, 0
1, 239279, Note_on_c, 9, 36, 0
1, 239280, Note_on_c, 9, 57, 120
1, 239280, Note_on_c, 9, 36, 100
1, 239293, Note_on_c, 9, 57, 0
1, 239519, Note_on_c, 9, 36, 0
1, 239520, Note_on_c, 9, 38, 120
1, 239999, Note_on_c, 9, 38, 0
1, 240000, End_track
0, 0, End_of_file
