0, 0, Header, 1, 1, 480
1, 0, Start_track
1, 0, Title_t, "Drumset"
1, 0, Time_signature, 4, 2, 24, 8
1, 0, Key_signature, 0, "major"
1, 0, Tempo, 487805
1, 0, Control_c, 9, 121, 0
1, 0, Program_c, 9, 0
1, 0, Control_c, 9, 7, 100
1, 0, Control_c, 9, 10, 64
1, 0, Control_c, 9, 91, 0
1, 0, Control_c, 9, 93, 0
1, 0, MIDI_port, 0
1, 6240, Note_on_c, 9, 38, 100
1, 6719, Note_on_c, 9, 38, 0
1, 7200, Note_on_c, 9, 38, 100
1, 7679, Note_on_c, 9, 38, 0
1, 8160, Note_on_c, 9, 38, 100
1, 8639, Note_on_c, 9, 38, 0
1, 9120, Note_on_c, 9, 38, 100
1, 9599, Note_on_c, 9, 38, 0
1, 9600, Note_on_c, 9, 49, 100
1, 9600, Note_on_c, 9, 36, 100
1, 9622, Note_on_c, 9, 49, 0
1, 10079, Note_on_c, 9, 36, 0
1, 10080, Note_on_c, 9, 38, 100
1, 10080, Note_on_c, 9, 46, 80
1, 10102, Note_on_c, 9, 46, 0
1, 10559, Note_on_c, 9, 38, 0
1, 10560, Note_on_c, 9, 46, 80
1, 10560, Note_on_c, 9, 36, 100
1, 10582, Note_on_c, 9, 46, 0
1, 11039, Note_on_c, 9, 36, 0
1, 11040, Note_on_c, 9, 38, 100
1, 11040, Note_on_c, 9, 46, 80
1, 11062, Note_on_c, 9, 46, 0
1, 11519, Note_on_c, 9, 38, 0
1, 11520, Note_on_c, 9, 46, 80
1, 11520, Note_on_c, 9, 36, 100
1, 11542, Note_on_c, 9, 46, 0
1, 11999, Note_on_c, 9, 36, 0
1, 12000, Note_on_c, 9, 38, 100
1, 12000, Note_on_c, 9, 46, 80
1, 12022, Note_on_c, 9, 46, 0
1, 12479, Note_on_c, 9, 38, 0
1, 12480, Note_on_c, 9, 46, 80
1, 12480, Note_on_c, 9, 36, 100
1, 12502, Note_on_c, 9, 46, 0
1, 12959, Note_on_c, 9, 36, 0
1, 12960, Note_on_c, 9, 38, 100
1, 12960, Note_on_c, 9, 46, 80
1, 12982, Note_on_c, 9, 46, 0
1, 13200, Note_on_c, 9, 36, 100
1, 13439, Note_on_c, 9, 38, 0
1, 13439, Note_on_c, 9, 36, 0
1, 13440, Note_on_c, 9, 46, 80
1, 13440, Note_on_c, 9, 36, 100
1, 13462, Note_on_c, 9, 46, 0
1, 13919, Note_on_c, 9, 36, 0
1, 13920, Note_on_c, 9, 38, 100
1, 13920, Note_on_c, 9, 46, 80
1, 13942, Note_on_c, 9, 46, 0
1, 14399, Note_on_c, 9, 38, 0
1, 14400, Note_on_c, 9, 46, 80
1, 14400, Note_on_c, 9, 36, 100
1, 14422, Note_on_c, 9, 46, 0
1, 14879, Note_on_c, 9, 36, 0
1, 14880, Note_on_c, 9, 38, 100
1, 14880, Note_on_c, 9, 46, 80
1, 14902, Note_on_c, 9, 46, 0
1, 15359, Note_on_c, 9, 38, 0
1, 15360, Note_on_c, 9, 46, 80
1, 15360, Note_on_c, 9, 36, 100
1, 15382, Note_on_c, 9, 46, 0
1, 15839, Note_on_c, 9, 36, 0
1, 15840, Note_on_c, 9, 38, 100
1, 15840, Note_on_c, 9, 46, 80
1, 15862, Note_on_c, 9, 46, 0
1, 16319, Note_on_c, 9, 38, 0
1, 16320, Note_on_c, 9, 46, 80
1, 16320, Note_on_c, 9, 36, 100
1, 16330, Note_on_c, 9, 46, 0
1, 16560, Note_on_c, 9, 38, 100
1, 16799, Note_on_c, 9, 36, 0
1, 16799, Note_on_c, 9, 38, 0
1, 16800, Note_on_c, 9, 46, 80
1, 16800, Note_on_c, 9, 36, 100
1, 16810, Note_on_c, 9, 46, 0
1, 17040, Note_on_c, 9, 38, 100
1, 17279, Note_on_c, 9, 36, 0
1, 17279, Note_on_c, 9, 38, 0
1, 17280, Note_on_c, 9, 49, 100
1, 17280, Note_on_c, 9, 36, 100
1, 17290, Note_on_c, 9, 49, 0
1, 17520, Note_on_c, 9, 42, 48
1, 17530, Note_on_c, 9, 42, 0
1, 17759, Note_on_c, 9, 36, 0
1, 17760, Note_on_c, 9, 38, 100
1, 17760, Note_on_c, 9, 42, 80
1, 17770, Note_on_c, 9, 42, 0
1, 17999, Note_on_c, 9, 38, 0
1, 18000, Note_on_c, 9, 42, 48
1, 18010, Note_on_c, 9, 42, 0
1, 18240, Note_on_c, 9, 42, 80
1, 18240, Note_on_c, 9, 36, 100
1, 18250, Note_on_c, 9, 42, 0
1, 18480, Note_on_c, 9, 42, 48
1, 18490, Note_on_c, 9, 42, 0
1, 18719, Note_on_c, 9, 36, 0
1, 18720, Note_on_c, 9, 38, 100
1, 18720, Note_on_c, 9, 42, 80
1, 18730, Note_on_c, 9, 42, 0
1, 18959, Note_on_c, 9, 38, 0
1, 18960, Note_on_c, 9, 42, 48
1, 18970, Note_on_c, 9, 42, 0
1, 19200, Note_on_c, 9, 42, 80
1, 19200, Note_on_c, 9, 36, 100
1, 19210, Note_on_c, 9, 42, 0
1, 19440, Note_on_c, 9, 42, 48
1, 19450, Note_on_c, 9, 42, 0
1, 19679, Note_on_c, 9, 36, 0
1, 19680, Note_on_c, 9, 38, 100
1, 19680, Note_on_c, 9, 42, 80
1, 19690, Note_on_c, 9, 42, 0
1, 19919, Note_on_c, 9, 38, 0
1, 19920, Note_on_c, 9, 42, 48
1, 19930, Note_on_c, 9, 42, 0
1, 20160, Note_on_c, 9, 42, 80
1, 20160, Note_on_c, 9, 36, 100
1, 20170, Note_on_c, 9, 42, 0
1, 20400, Note_on_c, 9, 42, 48
1, 20410, Note_on_c, 9, 42, 0
1, 20639, Note_on_c, 9, 36, 0
1, 20640, Note_on_c, 9, 38, 100
1, 20640, Note_on_c, 9, 42, 80
1, 20650, Note_on_c, 9, 42, 0
1, 20879, Note_on_c, 9, 38, 0
1, 20880, Note_on_c, 9, 42, 48
1, 20880, Note_on_c, 9, 36, 100
1, 20890, Note_on_c, 9, 42, 0
1, 21119, Note_on_c, 9, 36, 0
1, 21120, Note_on_c, 9, 42, 80
1, 21120, Note_on_c, 9, 36, 100
1, 21130, Note_on_c, 9, 42, 0
1, 21360, Note_on_c, 9, 42, 48
1, 21370, Note_on_c, 9, 42, 0
1, 21599, Note_on_c, 9, 36, 0
1, 21600, Note_on_c, 9, 38, 100
1, 21600, Note_on_c, 9, 42, 80
1, 21610, Note_on_c, 9, 42, 0
1, 21839, Note_on_c, 9, 38, 0
1, 21840, Note_on_c, 9, 42, 48
1, 21850, Note_on_c, 9, 42, 0
1, 22080, Note_on_c, 9, 42, 80
1, 22080, Note_on_c, 9, 36, 100
1, 22090, Note_on_c, 9, 42, 0
1, 22320, Note_on_c, 9, 42, 48
1, 22330, Note_on_c, 9, 42, 0
1, 22559, Note_on_c, 9, 36, 0
1, 22560, Note_on_c, 9, 38, 100
1, 22560, Note_on_c, 9, 42, 80
1, 22570, Note_on_c, 9, 42, 0
1, 22799, Note_on_c, 9, 38, 0
1, 22800, Note_on_c, 9, 42, 48
1, 22810, Note_on_c, 9, 42, 0
1, 23040, Note_on_c, 9, 42, 80
1, 23040, Note_on_c, 9, 36, 100
1, 23050, Note_on_c, 9, 42, 0
1, 23280, Note_on_c, 9, 42, 48
1, 23290, Note_on_c, 9, 42, 0
1, 23519, Note_on_c, 9, 36, 0
1, 23520, Note_on_c, 9, 38, 100
1, 23520, Note_on_c, 9, 42, 80
1, 23530, Note_on_c, 9, 42, 0
1, 23759, Note_on_c, 9, 38, 0
1, 23760, Note_on_c, 9, 42, 48
1, 23770, Note_on_c, 9, 42, 0
1, 24000, Note_on_c, 9, 42, 80
1, 24000, Note_on_c, 9, 36, 100
1, 24010, Note_on_c, 9, 42, 0
1, 24240, Note_on_c, 9, 42, 48
1, 24250, Note_on_c, 9, 42, 0
1, 24479, Note_on_c, 9, 36, 0
1, 24480, Note_on_c, 9, 38, 100
1, 24480, Note_on_c, 9, 42, 80
1, 24490, Note_on_c, 9, 42, 0
1, 24719, Note_on_c, 9, 38, 0
1, 24720, Note_on_c, 9, 42, 48
1, 24720, Note_on_c, 9, 36, 100
1, 24730, Note_on_c, 9, 42, 0
1, 24959, Note_on_c, 9, 36, 0
1, 24960, Note_on_c, 9, 42, 80
1, 24960, Note_on_c, 9, 36, 100
1, 24970, Note_on_c, 9, 42, 0
1, 25200, Note_on_c, 9, 42, 48
1, 25210, Note_on_c, 9, 42, 0
1, 25439, Note_on_c, 9, 36, 0
1, 25440, Note_on_c, 9, 38, 100
1, 25440, Note_on_c, 9, 42, 80
1, 25450, Note_on_c, 9, 42, 0
1, 25679, Note_on_c, 9, 38, 0
1, 25680, Note_on_c, 9, 42, 48
1, 25690, Note_on_c, 9, 42, 0
1, 25920, Note_on_c, 9, 42, 80
1, 25920, Note_on_c, 9, 36, 100
1, 25930, Note_on_c, 9, 42, 0
1, 26160, Note_on_c, 9, 42, 48
1, 26170, Note_on_c, 9, 42, 0
1, 26399, Note_on_c, 9, 36, 0
1, 26400, Note_on_c, 9, 38, 100
1, 26400, Note_on_c, 9, 42, 80
1, 26410, Note_on_c, 9, 42, 0
1, 26639, Note_on_c, 9, 38, 0
1, 26640, Note_on_c, 9, 42, 48
1, 26650, Note_on_c, 9, 42, 0
1, 26880, Note_on_c, 9, 42, 80
1, 26880, Note_on_c, 9, 36, 100
1, 26890, Note_on_c, 9, 42, 0
1, 27120, Note_on_c, 9, 42, 48
1, 27130, Note_on_c, 9, 42, 0
1, 27359, Note_on_c, 9, 36, 0
1, 27360, Note_on_c, 9, 38, 100
1, 27360, Note_on_c, 9, 42, 80
1, 27370, Note_on_c, 9, 42, 0
1, 27599, Note_on_c, 9, 38, 0
1, 27600, Note_on_c, 9, 42, 48
1, 27610, Note_on_c, 9, 42, 0
1, 27840, Note_on_c, 9, 42, 80
1, 27840, Note_on_c, 9, 36, 100
1, 27850, Note_on_c, 9, 42, 0
1, 28080, Note_on_c, 9, 42, 48
1, 28090, Note_on_c, 9, 42, 0
1, 28319, Note_on_c, 9, 36, 0
1, 28320, Note_on_c, 9, 38, 100
1, 28320, Note_on_c, 9, 42, 80
1, 28330, Note_on_c, 9, 42, 0
1, 28559, Note_on_c, 9, 38, 0
1, 28560, Note_on_c, 9, 42, 48
1, 28560, Note_on_c, 9, 36, 100
1, 28570, Note_on_c, 9, 42, 0
1, 28799, Note_on_c, 9, 36, 0
1, 28800, Note_on_c, 9, 42, 80
1, 28800, Note_on_c, 9, 36, 100
1, 28810, Note_on_c, 9, 42, 0
1, 29040, Note_on_c, 9, 42, 48
1, 29050, Note_on_c, 9, 42, 0
1, 29279, Note_on_c, 9, 36, 0
1, 29280, Note_on_c, 9, 38, 100
1, 29280, Note_on_c, 9, 42, 80
1, 29290, Note_on_c, 9, 42, 0
1, 29519, Note_on_c, 9, 38, 0
1, 29520, Note_on_c, 9, 42, 48
1, 29530, Note_on_c, 9, 42, 0
1, 29760, Note_on_c, 9, 42, 80
1, 29760, Note_on_c, 9, 36, 100
1, 29770, Note_on_c, 9, 42, 0
1, 30000, Note_on_c, 9, 42, 48
1, 30010, Note_on_c, 9, 42, 0
1, 30239, Note_on_c, 9, 36, 0
1, 30240, Note_on_c, 9, 38, 100
1, 30240, Note_on_c, 9, 42, 80
1, 30250, Note_on_c, 9, 42, 0
1, 30479, Note_on_c, 9, 38, 0
1, 30480, Note_on_c, 9, 38, 100
1, 30480, Note_on_c, 9, 42, 48
1, 30484, Note_on_c, 9, 42, 0
1, 30599, Note_on_c, 9, 38, 0
1, 30600, Note_on_c, 9, 38, 100
1, 30719, Note_on_c, 9, 38, 0
1, 30720, Note_on_c, 9, 49, 100
1, 30720, Note_on_c, 9, 36, 100
1, 30730, Note_on_c, 9, 49, 0
1, 30960, Note_on_c, 9, 42, 48
1, 30970, Note_on_c, 9, 42, 0
1, 31199, Note_on_c, 9, 36, 0
1, 31200, Note_on_c, 9, 38, 100
1, 31200, Note_on_c, 9, 42, 80
1, 31210, Note_on_c, 9, 42, 0
1, 31439, Note_on_c, 9, 38, 0
1, 31440, Note_on_c, 9, 42, 48
1, 31440, Note_on_c, 9, 36, 100
1, 31450, Note_on_c, 9, 42, 0
1, 31679, Note_on_c, 9, 36, 0
1, 31680, Note_on_c, 9, 38, 100
1, 31680, Note_on_c, 9, 42, 80
1, 31690, Note_on_c, 9, 42, 0
1, 31919, Note_on_c, 9, 38, 0
1, 31920, Note_on_c, 9, 38, 100
1, 31920, Note_on_c, 9, 42, 48
1, 31930, Note_on_c, 9, 42, 0
1, 32159, Note_on_c, 9, 38, 0
1, 32160, Note_on_c, 9, 38, 100
1, 32160, Note_on_c, 9, 42, 80
1, 32170, Note_on_c, 9, 42, 0
1, 32399, Note_on_c, 9, 38, 0
1, 32400, Note_on_c, 9, 38, 100
1, 32400, Note_on_c, 9, 42, 48
1, 32410, Note_on_c, 9, 42, 0
1, 32639, Note_on_c, 9, 38, 0
1, 32640, Note_on_c, 9, 49, 100
1, 32640, Note_on_c, 9, 36, 100
1, 32650, Note_on_c, 9, 49, 0
1, 32879, Note_on_c, 9, 36, 0
1, 32880, Note_on_c, 9, 42, 48
1, 32880, Note_on_c, 9, 36, 100
1, 32890, Note_on_c, 9, 42, 0
1, 33119, Note_on_c, 9, 36, 0
1, 33120, Note_on_c, 9, 38, 100
1, 33120, Note_on_c, 9, 42, 80
1, 33130, Note_on_c, 9, 42, 0
1, 33359, Note_on_c, 9, 38, 0
1, 33360, Note_on_c, 9, 42, 48
1, 33370, Note_on_c, 9, 42, 0
1, 33600, Note_on_c, 9, 42, 80
1, 33600, Note_on_c, 9, 36, 100
1, 33610, Note_on_c, 9, 42, 0
1, 33840, Note_on_c, 9, 42, 48
1, 33850, Note_on_c, 9, 42, 0
1, 34079, Note_on_c, 9, 36, 0
1, 34080, Note_on_c, 9, 38, 100
1, 34080, Note_on_c, 9, 42, 80
1, 34090, Note_on_c, 9, 42, 0
1, 34319, Note_on_c, 9, 38, 0
1, 34320, Note_on_c, 9, 42, 48
1, 34330, Note_on_c, 9, 42, 0
1, 34560, Note_on_c, 9, 42, 80
1, 34560, Note_on_c, 9, 36, 100
1, 34570, Note_on_c, 9, 42, 0
1, 34800, Note_on_c, 9, 42, 48
1, 34810, Note_on_c, 9, 42, 0
1, 35039, Note_on_c, 9, 36, 0
1, 35040, Note_on_c, 9, 38, 100
1, 35040, Note_on_c, 9, 42, 80
1, 35050, Note_on_c, 9, 42, 0
1, 35279, Note_on_c, 9, 38, 0
1, 35280, Note_on_c, 9, 42, 48
1, 35290, Note_on_c, 9, 42, 0
1, 35520, Note_on_c, 9, 42, 80
1, 35520, Note_on_c, 9, 36, 100
1, 35530, Note_on_c, 9, 42, 0
1, 35760, Note_on_c, 9, 42, 48
1, 35770, Note_on_c, 9, 42, 0
1, 35999, Note_on_c, 9, 36, 0
1, 36000, Note_on_c, 9, 38, 100
1, 36000, Note_on_c, 9, 42, 80
1, 36010, Note_on_c, 9, 42, 0
1, 36239, Note_on_c, 9, 38, 0
1, 36240, Note_on_c, 9, 42, 48
1, 36240, Note_on_c, 9, 36, 100
1, 36250, Note_on_c, 9, 42, 0
1, 36479, Note_on_c, 9, 36, 0
1, 36480, Note_on_c, 9, 42, 80
1, 36480, Note_on_c, 9, 36, 100
1, 36490, Note_on_c, 9, 42, 0
1, 36720, Note_on_c, 9, 42, 48
1, 36730, Note_on_c, 9, 42, 0
1, 36959, Note_on_c, 9, 36, 0
1, 36960, Note_on_c, 9, 38, 100
1, 36960, Note_on_c, 9, 42, 80
1, 36970, Note_on_c, 9, 42, 0
1, 37199, Note_on_c, 9, 38, 0
1, 37200, Note_on_c, 9, 42, 48
1, 37210, Note_on_c, 9, 42, 0
1, 37440, Note_on_c, 9, 42, 80
1, 37440, Note_on_c, 9, 36, 100
1, 37450, Note_on_c, 9, 42, 0
1, 37680, Note_on_c, 9, 42, 48
1, 37690, Note_on_c, 9, 42, 0
1, 37919, Note_on_c, 9, 36, 0
1, 37920, Note_on_c, 9, 38, 100
1, 37920, Note_on_c, 9, 42, 80
1, 37930, Note_on_c, 9, 42, 0
1, 38159, Note_on_c, 9, 38, 0
1, 38160, Note_on_c, 9, 42, 48
1, 38170, Note_on_c, 9, 42, 0
1, 38400, Note_on_c, 9, 42, 80
1, 38400, Note_on_c, 9, 36, 100
1, 38410, Note_on_c, 9, 42, 0
1, 38640, Note_on_c, 9, 42, 48
1, 38650, Note_on_c, 9, 42, 0
1, 38879, Note_on_c, 9, 36, 0
1, 38880, Note_on_c, 9, 38, 100
1, 38880, Note_on_c, 9, 42, 80
1, 38890, Note_on_c, 9, 42, 0
1, 39119, Note_on_c, 9, 38, 0
1, 39120, Note_on_c, 9, 42, 48
1, 39130, Note_on_c, 9, 42, 0
1, 39360, Note_on_c, 9, 42, 80
1, 39360, Note_on_c, 9, 36, 100
1, 39370, Note_on_c, 9, 42, 0
1, 39600, Note_on_c, 9, 42, 48
1, 39610, Note_on_c, 9, 42, 0
1, 39839, Note_on_c, 9, 36, 0
1, 39840, Note_on_c, 9, 38, 100
1, 39840, Note_on_c, 9, 42, 80
1, 39850, Note_on_c, 9, 42, 0
1, 40079, Note_on_c, 9, 38, 0
1, 40080, Note_on_c, 9, 42, 48
1, 40080, Note_on_c, 9, 36, 100
1, 40090, Note_on_c, 9, 42, 0
1, 40319, Note_on_c, 9, 36, 0
1, 40320, Note_on_c, 9, 42, 80
1, 40320, Note_on_c, 9, 36, 100
1, 40330, Note_on_c, 9, 42, 0
1, 40560, Note_on_c, 9, 42, 48
1, 40570, Note_on_c, 9, 42, 0
1, 40799, Note_on_c, 9, 36, 0
1, 40800, Note_on_c, 9, 38, 100
1, 40800, Note_on_c, 9, 42, 80
1, 40810, Note_on_c, 9, 42, 0
1, 41039, Note_on_c, 9, 38, 0
1, 41040, Note_on_c, 9, 42, 48
1, 41050, Note_on_c, 9, 42, 0
1, 41280, Note_on_c, 9, 42, 80
1, 41280, Note_on_c, 9, 36, 100
1, 41290, Note_on_c, 9, 42, 0
1, 41520, Note_on_c, 9, 42, 48
1, 41530, Note_on_c, 9, 42, 0
1, 41759, Note_on_c, 9, 36, 0
1, 41760, Note_on_c, 9, 38, 100
1, 41760, Note_on_c, 9, 42, 80
1, 41770, Note_on_c, 9, 42, 0
1, 41999, Note_on_c, 9, 38, 0
1, 42000, Note_on_c, 9, 42, 48
1, 42010, Note_on_c, 9, 42, 0
1, 42240, Note_on_c, 9, 42, 80
1, 42240, Note_on_c, 9, 36, 100
1, 42250, Note_on_c, 9, 42, 0
1, 42480, Note_on_c, 9, 42, 48
1, 42490, Note_on_c, 9, 42, 0
1, 42719, Note_on_c, 9, 36, 0
1, 42720, Note_on_c, 9, 38, 100
1, 42720, Note_on_c, 9, 42, 80
1, 42730, Note_on_c, 9, 42, 0
1, 42959, Note_on_c, 9, 38, 0
1, 42960, Note_on_c, 9, 42, 48
1, 42970, Note_on_c, 9, 42, 0
1, 43200, Note_on_c, 9, 42, 80
1, 43200, Note_on_c, 9, 36, 100
1, 43210, Note_on_c, 9, 42, 0
1, 43440, Note_on_c, 9, 42, 48
1, 43450, Note_on_c, 9, 42, 0
1, 43679, Note_on_c, 9, 36, 0
1, 43680, Note_on_c, 9, 38, 100
1, 43680, Note_on_c, 9, 42, 80
1, 43690, Note_on_c, 9, 42, 0
1, 43919, Note_on_c, 9, 38, 0
1, 43920, Note_on_c, 9, 38, 100
1, 43920, Note_on_c, 9, 42, 48
1, 43924, Note_on_c, 9, 42, 0
1, 44039, Note_on_c, 9, 38, 0
1, 44040, Note_on_c, 9, 38, 100
1, 44159, Note_on_c, 9, 38, 0
1, 44160, Note_on_c, 9, 49, 100
1, 44160, Note_on_c, 9, 36, 100
1, 44170, Note_on_c, 9, 49, 0
1, 44400, Note_on_c, 9, 42, 48
1, 44410, Note_on_c, 9, 42, 0
1, 44639, Note_on_c, 9, 36, 0
1, 44640, Note_on_c, 9, 38, 100
1, 44640, Note_on_c, 9, 42, 80
1, 44650, Note_on_c, 9, 42, 0
1, 44879, Note_on_c, 9, 38, 0
1, 44880, Note_on_c, 9, 42, 48
1, 44880, Note_on_c, 9, 49, 100
1, 44880, Note_on_c, 9, 36, 100
1, 44890, Note_on_c, 9, 42, 0
1, 44890, Note_on_c, 9, 49, 0
1, 45119, Note_on_c, 9, 36, 0
1, 45120, Note_on_c, 9, 42, 80
1, 45130, Note_on_c, 9, 42, 0
1, 45360, Note_on_c, 9, 42, 48
1, 45360, Note_on_c, 9, 36, 100
1, 45370, Note_on_c, 9, 42, 0
1, 45599, Note_on_c, 9, 36, 0
1, 45600, Note_on_c, 9, 38, 100
1, 45600, Note_on_c, 9, 42, 80
1, 45610, Note_on_c, 9, 42, 0
1, 45839, Note_on_c, 9, 38, 0
1, 45840, Note_on_c, 9, 42, 48
1, 45840, Note_on_c, 9, 49, 100
1, 45840, Note_on_c, 9, 36, 100
1, 45850, Note_on_c, 9, 42, 0
1, 45850, Note_on_c, 9, 49, 0
1, 46079, Note_on_c, 9, 36, 0
1, 46080, Note_on_c, 9, 42, 80
1, 46090, Note_on_c, 9, 42, 0
1, 46320, Note_on_c, 9, 42, 48
1, 46320, Note_on_c, 9, 36, 100
1, 46330, Note_on_c, 9, 42, 0
1, 46559, Note_on_c, 9, 36, 0
1, 46560, Note_on_c, 9, 38, 100
1, 46560, Note_on_c, 9, 42, 80
1, 46570, Note_on_c, 9, 42, 0
1, 46799, Note_on_c, 9, 38, 0
1, 46800, Note_on_c, 9, 42, 48
1, 46800, Note_on_c, 9, 36, 100
1, 46810, Note_on_c, 9, 42, 0
1, 47039, Note_on_c, 9, 36, 0
1, 47040, Note_on_c, 9, 38, 100
1, 47040, Note_on_c, 9, 42, 80
1, 47050, Note_on_c, 9, 42, 0
1, 47279, Note_on_c, 9, 38, 0
1, 47280, Note_on_c, 9, 38, 100
1, 47280, Note_on_c, 9, 42, 48
1, 47290, Note_on_c, 9, 42, 0
1, 47519, Note_on_c, 9, 38, 0
1, 47520, Note_on_c, 9, 38, 100
1, 47520, Note_on_c, 9, 42, 80
1, 47530, Note_on_c, 9, 42, 0
1, 47759, Note_on_c, 9, 38, 0
1, 47760, Note_on_c, 9, 38, 100
1, 47760, Note_on_c, 9, 42, 48
1, 47770, Note_on_c, 9, 42, 0
1, 47999, Note_on_c, 9, 38, 0
1, 48000, Note_on_c, 9, 56, 100
1, 48000, Note_on_c, 9, 36, 100
1, 48479, Note_on_c, 9, 56, 0
1, 48479, Note_on_c, 9, 36, 0
1, 48480, Note_on_c, 9, 38, 100
1, 48480, Note_on_c, 9, 56, 100
1, 48959, Note_on_c, 9, 38, 0
1, 48959, Note_on_c, 9, 56, 0
1, 48960, Note_on_c, 9, 56, 100
1, 49200, Note_on_c, 9, 36, 100
1, 49439, Note_on_c, 9, 56, 0
1, 49439, Note_on_c, 9, 36, 0
1, 49440, Note_on_c, 9, 38, 100
1, 49440, Note_on_c, 9, 56, 100
1, 49680, Note_on_c, 9, 36, 100
1, 49919, Note_on_c, 9, 38, 0
1, 49919, Note_on_c, 9, 56, 0
1, 49919, Note_on_c, 9, 36, 0
1, 49920, Note_on_c, 9, 56, 100
1, 50160, Note_on_c, 9, 36, 100
1, 50399, Note_on_c, 9, 56, 0
1, 50399, Note_on_c, 9, 36, 0
1, 50400, Note_on_c, 9, 38, 100
1, 50400, Note_on_c, 9, 56, 100
1, 50879, Note_on_c, 9, 38, 0
1, 50879, Note_on_c, 9, 56, 0
1, 50880, Note_on_c, 9, 56, 100
1, 51120, Note_on_c, 9, 36, 100
1, 51359, Note_on_c, 9, 56, 0
1, 51359, Note_on_c, 9, 36, 0
1, 51360, Note_on_c, 9, 38, 100
1, 51360, Note_on_c, 9, 56, 100
1, 51600, Note_on_c, 9, 36, 100
1, 51839, Note_on_c, 9, 38, 0
1, 51839, Note_on_c, 9, 56, 0
1, 51839, Note_on_c, 9, 36, 0
1, 51840, Note_on_c, 9, 56, 100
1, 52080, Note_on_c, 9, 36, 100
1, 52319, Note_on_c, 9, 56, 0
1, 52319, Note_on_c, 9, 36, 0
1, 52320, Note_on_c, 9, 38, 100
1, 52320, Note_on_c, 9, 56, 100
1, 52799, Note_on_c, 9, 38, 0
1, 52799, Note_on_c, 9, 56, 0
1, 52800, Note_on_c, 9, 56, 100
1, 53040, Note_on_c, 9, 36, 100
1, 53279, Note_on_c, 9, 56, 0
1, 53279, Note_on_c, 9, 36, 0
1, 53280, Note_on_c, 9, 38, 100
1, 53280, Note_on_c, 9, 56, 100
1, 53519, Note_on_c, 9, 38, 0
1, 53519, Note_on_c, 9, 56, 0
1, 53520, Note_on_c, 9, 57, 100
1, 53520, Note_on_c, 9, 36, 100
1, 53530, Note_on_c, 9, 57, 0
1, 53759, Note_on_c, 9, 36, 0
1, 53760, Note_on_c, 9, 56, 100
1, 53999, Note_on_c, 9, 56, 0
1, 54000, Note_on_c, 9, 49, 100
1, 54000, Note_on_c, 9, 36, 100
1, 54010, Note_on_c, 9, 49, 0
1, 54239, Note_on_c, 9, 36, 0
1, 54240, Note_on_c, 9, 38, 100
1, 54240, Note_on_c, 9, 56, 100
1, 54479, Note_on_c, 9, 38, 0
1, 54479, Note_on_c, 9, 56, 0
1, 54480, Note_on_c, 9, 57, 100
1, 54480, Note_on_c, 9, 36, 100
1, 54490, Note_on_c, 9, 57, 0
1, 54719, Note_on_c, 9, 36, 0
1, 54720, Note_on_c, 9, 56, 100
1, 54959, Note_on_c, 9, 56, 0
1, 54960, Note_on_c, 9, 49, 100
1, 54960, Note_on_c, 9, 36, 100
1, 54970, Note_on_c, 9, 49, 0
1, 55199, Note_on_c, 9, 36, 0
1, 55200, Note_on_c, 9, 38, 100
1, 55200, Note_on_c, 9, 56, 100
1, 55440, Note_on_c, 9, 36, 100
1, 55679, Note_on_c, 9, 38, 0
1, 55679, Note_on_c, 9, 56, 0
1, 55679, Note_on_c, 9, 36, 0
1, 55680, Note_on_c, 9, 56, 100
1, 55680, Note_on_c, 9, 36, 100
1, 56159, Note_on_c, 9, 56, 0
1, 56159, Note_on_c, 9, 36, 0
1, 56160, Note_on_c, 9, 38, 100
1, 56160, Note_on_c, 9, 56, 100
1, 56639, Note_on_c, 9, 38, 0
1, 56639, Note_on_c, 9, 56, 0
1, 56640, Note_on_c, 9, 56, 100
1, 56880, Note_on_c, 9, 36, 100
1, 57119, Note_on_c, 9, 56, 0
1, 57119, Note_on_c, 9, 36, 0
1, 57120, Note_on_c, 9, 38, 100
1, 57120, Note_on_c, 9, 56, 100
1, 57360, Note_on_c, 9, 36, 100
1, 57599, Note_on_c, 9, 38, 0
1, 57599, Note_on_c, 9, 56, 0
1, 57599, Note_on_c, 9, 36, 0
1, 57600, Note_on_c, 9, 56, 100
1, 57840, Note_on_c, 9, 36, 100
1, 58079, Note_on_c, 9, 56, 0
1, 58079, Note_on_c, 9, 36, 0
1, 58080, Note_on_c, 9, 38, 100
1, 58080, Note_on_c, 9, 56, 100
1, 58559, Note_on_c, 9, 38, 0
1, 58559, Note_on_c, 9, 56, 0
1, 58560, Note_on_c, 9, 56, 100
1, 58800, Note_on_c, 9, 36, 100
1, 59039, Note_on_c, 9, 56, 0
1, 59039, Note_on_c, 9, 36, 0
1, 59040, Note_on_c, 9, 38, 100
1, 59040, Note_on_c, 9, 56, 100
1, 59280, Note_on_c, 9, 36, 100
1, 59519, Note_on_c, 9, 38, 0
1, 59519, Note_on_c, 9, 56, 0
1, 59519, Note_on_c, 9, 36, 0
1, 59520, Note_on_c, 9, 56, 100
1, 59760, Note_on_c, 9, 36, 100
1, 59999, Note_on_c, 9, 56, 0
1, 59999, Note_on_c, 9, 36, 0
1, 60000, Note_on_c, 9, 38, 100
1, 60000, Note_on_c, 9, 56, 100
1, 60479, Note_on_c, 9, 38, 0
1, 60479, Note_on_c, 9, 56, 0
1, 60480, Note_on_c, 9, 56, 100
1, 60720, Note_on_c, 9, 36, 100
1, 60959, Note_on_c, 9, 56, 0
1, 60959, Note_on_c, 9, 36, 0
1, 60960, Note_on_c, 9, 38, 100
1, 60960, Note_on_c, 9, 56, 100
1, 61199, Note_on_c, 9, 38, 0
1, 61199, Note_on_c, 9, 56, 0
1, 61200, Note_on_c, 9, 57, 100
1, 61200, Note_on_c, 9, 36, 100
1, 61210, Note_on_c, 9, 57, 0
1, 61439, Note_on_c, 9, 36, 0
1, 61440, Note_on_c, 9, 56, 100
1, 61679, Note_on_c, 9, 56, 0
1, 61680, Note_on_c, 9, 49, 100
1, 61680, Note_on_c, 9, 36, 100
1, 61690, Note_on_c, 9, 49, 0
1, 61919, Note_on_c, 9, 36, 0
1, 61920, Note_on_c, 9, 38, 100
1, 61920, Note_on_c, 9, 56, 100
1, 62159, Note_on_c, 9, 38, 0
1, 62159, Note_on_c, 9, 56, 0
1, 62160, Note_on_c, 9, 57, 100
1, 62160, Note_on_c, 9, 36, 100
1, 62170, Note_on_c, 9, 57, 0
1, 62399, Note_on_c, 9, 36, 0
1, 62400, Note_on_c, 9, 38, 100
1, 62400, Note_on_c, 9, 56, 100
1, 62639, Note_on_c, 9, 38, 0
1, 62639, Note_on_c, 9, 56, 0
1, 62640, Note_on_c, 9, 49, 100
1, 62640, Note_on_c, 9, 36, 100
1, 62650, Note_on_c, 9, 49, 0
1, 62879, Note_on_c, 9, 36, 0
1, 62880, Note_on_c, 9, 38, 100
1, 62880, Note_on_c, 9, 56, 100
1, 63119, Note_on_c, 9, 38, 0
1, 63119, Note_on_c, 9, 56, 0
1, 63120, Note_on_c, 9, 51, 100
1, 63120, Note_on_c, 9, 36, 100
1, 63130, Note_on_c, 9, 51, 0
1, 63359, Note_on_c, 9, 36, 0
1, 63360, Note_on_c, 9, 51, 100
1, 63360, Note_on_c, 9, 36, 100
1, 63370, Note_on_c, 9, 51, 0
1, 63600, Note_on_c, 9, 51, 70
1, 63610, Note_on_c, 9, 51, 0
1, 63839, Note_on_c, 9, 36, 0
1, 63840, Note_on_c, 9, 38, 100
1, 63840, Note_on_c, 9, 51, 100
1, 63850, Note_on_c, 9, 51, 0
1, 64079, Note_on_c, 9, 38, 0
1, 64080, Note_on_c, 9, 51, 70
1, 64080, Note_on_c, 9, 36, 100
1, 64090, Note_on_c, 9, 51, 0
1, 64319, Note_on_c, 9, 36, 0
1, 64320, Note_on_c, 9, 51, 100
1, 64330, Note_on_c, 9, 51, 0
1, 64560, Note_on_c, 9, 51, 70
1, 64560, Note_on_c, 9, 36, 100
1, 64570, Note_on_c, 9, 51, 0
1, 64799, Note_on_c, 9, 36, 0
1, 64800, Note_on_c, 9, 38, 100
1, 64800, Note_on_c, 9, 51, 100
1, 64810, Note_on_c, 9, 51, 0
1, 65039, Note_on_c, 9, 38, 0
1, 65040, Note_on_c, 9, 51, 70
1, 65040, Note_on_c, 9, 36, 100
1, 65050, Note_on_c, 9, 51, 0
1, 65279, Note_on_c, 9, 36, 0
1, 65280, Note_on_c, 9, 51, 100
1, 65280, Note_on_c, 9, 36, 100
1, 65290, Note_on_c, 9, 51, 0
1, 65520, Note_on_c, 9, 51, 70
1, 65530, Note_on_c, 9, 51, 0
1, 65759, Note_on_c, 9, 36, 0
1, 65760, Note_on_c, 9, 38, 100
1, 65760, Note_on_c, 9, 51, 100
1, 65770, Note_on_c, 9, 51, 0
1, 65999, Note_on_c, 9, 38, 0
1, 66000, Note_on_c, 9, 51, 70
1, 66000, Note_on_c, 9, 36, 100
1, 66010, Note_on_c, 9, 51, 0
1, 66239, Note_on_c, 9, 36, 0
1, 66240, Note_on_c, 9, 51, 100
1, 66250, Note_on_c, 9, 51, 0
1, 66480, Note_on_c, 9, 51, 70
1, 66480, Note_on_c, 9, 36, 100
1, 66490, Note_on_c, 9, 51, 0
1, 66719, Note_on_c, 9, 36, 0
1, 66720, Note_on_c, 9, 38, 100
1, 66720, Note_on_c, 9, 51, 100
1, 66730, Note_on_c, 9, 51, 0
1, 66959, Note_on_c, 9, 38, 0
1, 66960, Note_on_c, 9, 51, 70
1, 66960, Note_on_c, 9, 36, 100
1, 66970, Note_on_c, 9, 51, 0
1, 67199, Note_on_c, 9, 36, 0
1, 67200, Note_on_c, 9, 51, 100
1, 67200, Note_on_c, 9, 36, 100
1, 67210, Note_on_c, 9, 51, 0
1, 67440, Note_on_c, 9, 51, 70
1, 67450, Note_on_c, 9, 51, 0
1, 67679, Note_on_c, 9, 36, 0
1, 67680, Note_on_c, 9, 38, 100
1, 67680, Note_on_c, 9, 51, 100
1, 67690, Note_on_c, 9, 51, 0
1, 67919, Note_on_c, 9, 38, 0
1, 67920, Note_on_c, 9, 51, 70
1, 67920, Note_on_c, 9, 36, 100
1, 67930, Note_on_c, 9, 51, 0
1, 68159, Note_on_c, 9, 36, 0
1, 68160, Note_on_c, 9, 51, 100
1, 68170, Note_on_c, 9, 51, 0
1, 68400, Note_on_c, 9, 51, 70
1, 68400, Note_on_c, 9, 36, 100
1, 68410, Note_on_c, 9, 51, 0
1, 68639, Note_on_c, 9, 36, 0
1, 68640, Note_on_c, 9, 38, 100
1, 68640, Note_on_c, 9, 51, 100
1, 68650, Note_on_c, 9, 51, 0
1, 68879, Note_on_c, 9, 38, 0
1, 68880, Note_on_c, 9, 51, 70
1, 68880, Note_on_c, 9, 36, 100
1, 68890, Note_on_c, 9, 51, 0
1, 69119, Note_on_c, 9, 36, 0
1, 69120, Note_on_c, 9, 51, 100
1, 69120, Note_on_c, 9, 36, 100
1, 69130, Note_on_c, 9, 51, 0
1, 69360, Note_on_c, 9, 51, 70
1, 69370, Note_on_c, 9, 51, 0
1, 69599, Note_on_c, 9, 36, 0
1, 69600, Note_on_c, 9, 38, 100
1, 69600, Note_on_c, 9, 51, 100
1, 69610, Note_on_c, 9, 51, 0
1, 69839, Note_on_c, 9, 38, 0
1, 69840, Note_on_c, 9, 51, 70
1, 69840, Note_on_c, 9, 36, 100
1, 69850, Note_on_c, 9, 51, 0
1, 70079, Note_on_c, 9, 36, 0
1, 70080, Note_on_c, 9, 51, 100
1, 70090, Note_on_c, 9, 51, 0
1, 70320, Note_on_c, 9, 51, 70
1, 70320, Note_on_c, 9, 36, 100
1, 70330, Note_on_c, 9, 51, 0
1, 70559, Note_on_c, 9, 36, 0
1, 70560, Note_on_c, 9, 38, 100
1, 70560, Note_on_c, 9, 51, 100
1, 70570, Note_on_c, 9, 51, 0
1, 70799, Note_on_c, 9, 38, 0
1, 70800, Note_on_c, 9, 51, 70
1, 70800, Note_on_c, 9, 36, 100
1, 70810, Note_on_c, 9, 51, 0
1, 71039, Note_on_c, 9, 36, 0
1, 71040, Note_on_c, 9, 51, 100
1, 71040, Note_on_c, 9, 36, 100
1, 71050, Note_on_c, 9, 51, 0
1, 71280, Note_on_c, 9, 51, 70
1, 71290, Note_on_c, 9, 51, 0
1, 71519, Note_on_c, 9, 36, 0
1, 71520, Note_on_c, 9, 38, 100
1, 71520, Note_on_c, 9, 51, 100
1, 71530, Note_on_c, 9, 51, 0
1, 71759, Note_on_c, 9, 38, 0
1, 71760, Note_on_c, 9, 51, 70
1, 71760, Note_on_c, 9, 36, 100
1, 71770, Note_on_c, 9, 51, 0
1, 71999, Note_on_c, 9, 36, 0
1, 72000, Note_on_c, 9, 51, 100
1, 72010, Note_on_c, 9, 51, 0
1, 72240, Note_on_c, 9, 51, 70
1, 72240, Note_on_c, 9, 36, 100
1, 72250, Note_on_c, 9, 51, 0
1, 72479, Note_on_c, 9, 36, 0
1, 72480, Note_on_c, 9, 38, 100
1, 72480, Note_on_c, 9, 51, 100
1, 72490, Note_on_c, 9, 51, 0
1, 72719, Note_on_c, 9, 38, 0
1, 72720, Note_on_c, 9, 51, 70
1, 72720, Note_on_c, 9, 36, 100
1, 72730, Note_on_c, 9, 51, 0
1, 72959, Note_on_c, 9, 36, 0
1, 72960, Note_on_c, 9, 51, 100
1, 72960, Note_on_c, 9, 36, 100
1, 72970, Note_on_c, 9, 51, 0
1, 73200, Note_on_c, 9, 51, 70
1, 73210, Note_on_c, 9, 51, 0
1, 73439, Note_on_c, 9, 36, 0
1, 73440, Note_on_c, 9, 38, 100
1, 73440, Note_on_c, 9, 51, 100
1, 73450, Note_on_c, 9, 51, 0
1, 73679, Note_on_c, 9, 38, 0
1, 73680, Note_on_c, 9, 51, 70
1, 73680, Note_on_c, 9, 36, 100
1, 73690, Note_on_c, 9, 51, 0
1, 73919, Note_on_c, 9, 36, 0
1, 73920, Note_on_c, 9, 51, 100
1, 73930, Note_on_c, 9, 51, 0
1, 74160, Note_on_c, 9, 51, 70
1, 74160, Note_on_c, 9, 36, 100
1, 74170, Note_on_c, 9, 51, 0
1, 74399, Note_on_c, 9, 36, 0
1, 74400, Note_on_c, 9, 38, 100
1, 74400, Note_on_c, 9, 51, 100
1, 74410, Note_on_c, 9, 51, 0
1, 74639, Note_on_c, 9, 38, 0
1, 74640, Note_on_c, 9, 51, 70
1, 74640, Note_on_c, 9, 36, 100
1, 74650, Note_on_c, 9, 51, 0
1, 74879, Note_on_c, 9, 36, 0
1, 74880, Note_on_c, 9, 51, 100
1, 74880, Note_on_c, 9, 36, 100
1, 74890, Note_on_c, 9, 51, 0
1, 75120, Note_on_c, 9, 51, 70
1, 75130, Note_on_c, 9, 51, 0
1, 75359, Note_on_c, 9, 36, 0
1, 75360, Note_on_c, 9, 38, 100
1, 75360, Note_on_c, 9, 51, 100
1, 75370, Note_on_c, 9, 51, 0
1, 75599, Note_on_c, 9, 38, 0
1, 75600, Note_on_c, 9, 51, 70
1, 75610, Note_on_c, 9, 51, 0
1, 75840, Note_on_c, 9, 51, 100
1, 75840, Note_on_c, 9, 36, 100
1, 75850, Note_on_c, 9, 51, 0
1, 76080, Note_on_c, 9, 51, 70
1, 76090, Note_on_c, 9, 51, 0
1, 76319, Note_on_c, 9, 36, 0
1, 76320, Note_on_c, 9, 38, 100
1, 76320, Note_on_c, 9, 51, 100
1, 76330, Note_on_c, 9, 51, 0
1, 76559, Note_on_c, 9, 38, 0
1, 76560, Note_on_c, 9, 51, 70
1, 76570, Note_on_c, 9, 51, 0
1, 76800, Note_on_c, 9, 38, 100
1, 76800, Note_on_c, 9, 51, 100
1, 76822, Note_on_c, 9, 51, 0
1, 77040, Note_on_c, 9, 36, 100
1, 77040, Note_on_c, 9, 43, 100
1, 77279, Note_on_c, 9, 38, 0
1, 77279, Note_on_c, 9, 36, 0
1, 77279, Note_on_c, 9, 43, 0
1, 77280, Note_on_c, 9, 36, 100
1, 77280, Note_on_c, 9, 43, 100
1, 77520, Note_on_c, 9, 38, 100
1, 77759, Note_on_c, 9, 36, 0
1, 77759, Note_on_c, 9, 43, 0
1, 77759, Note_on_c, 9, 38, 0
1, 78000, Note_on_c, 9, 38, 100
1, 78239, Note_on_c, 9, 38, 0
1, 78240, Note_on_c, 9, 38, 100
1, 78479, Note_on_c, 9, 38, 0
1, 78540, Note_on_c, 9, 38, 100
1, 78599, Note_on_c, 9, 38, 0
1, 78600, Note_on_c, 9, 38, 100
1, 78719, Note_on_c, 9, 38, 0
1, 78720, Note_on_c, 9, 36, 100
1, 79199, Note_on_c, 9, 36, 0
1, 79200, Note_on_c, 9, 38, 100
1, 79679, Note_on_c, 9, 38, 0
1, 80160, Note_on_c, 9, 38, 100
1, 80639, Note_on_c, 9, 38, 0
1, 81120, Note_on_c, 9, 38, 100
1, 81599, Note_on_c, 9, 38, 0
1, 81960, Note_on_c, 9, 45, 100
1, 82000, Note_on_c, 9, 43, 100
1, 82039, Note_on_c, 9, 45, 0
1, 82040, Note_on_c, 9, 41, 100
1, 82079, Note_on_c, 9, 43, 0
1, 82079, Note_on_c, 9, 41, 0
1, 82080, Note_on_c, 9, 36, 100
1, 82319, Note_on_c, 9, 36, 0
1, 82320, Note_on_c, 9, 36, 100
1, 82559, Note_on_c, 9, 36, 0
1, 82560, Note_on_c, 9, 49, 100
1, 82560, Note_on_c, 9, 36, 100
1, 82570, Note_on_c, 9, 49, 0
1, 82800, Note_on_c, 9, 42, 48
1, 82810, Note_on_c, 9, 42, 0
1, 83039, Note_on_c, 9, 36, 0
1, 83040, Note_on_c, 9, 38, 100
1, 83040, Note_on_c, 9, 42, 80
1, 83050, Note_on_c, 9, 42, 0
1, 83279, Note_on_c, 9, 38, 0
1, 83280, Note_on_c, 9, 42, 48
1, 83290, Note_on_c, 9, 42, 0
1, 83520, Note_on_c, 9, 42, 80
1, 83520, Note_on_c, 9, 36, 100
1, 83530, Note_on_c, 9, 42, 0
1, 83760, Note_on_c, 9, 42, 48
1, 83770, Note_on_c, 9, 42, 0
1, 83999, Note_on_c, 9, 36, 0
1, 84000, Note_on_c, 9, 38, 100
1, 84000, Note_on_c, 9, 42, 80
1, 84010, Note_on_c, 9, 42, 0
1, 84239, Note_on_c, 9, 38, 0
1, 84240, Note_on_c, 9, 42, 48
1, 84240, Note_on_c, 9, 36, 100
1, 84250, Note_on_c, 9, 42, 0
1, 84479, Note_on_c, 9, 36, 0
1, 84480, Note_on_c, 9, 42, 80
1, 84480, Note_on_c, 9, 36, 100
1, 84490, Note_on_c, 9, 42, 0
1, 84720, Note_on_c, 9, 42, 48
1, 84730, Note_on_c, 9, 42, 0
1, 84959, Note_on_c, 9, 36, 0
1, 84960, Note_on_c, 9, 38, 100
1, 84960, Note_on_c, 9, 42, 80
1, 84970, Note_on_c, 9, 42, 0
1, 85199, Note_on_c, 9, 38, 0
1, 85200, Note_on_c, 9, 42, 48
1, 85210, Note_on_c, 9, 42, 0
1, 85440, Note_on_c, 9, 42, 80
1, 85440, Note_on_c, 9, 36, 100
1, 85450, Note_on_c, 9, 42, 0
1, 85680, Note_on_c, 9, 42, 48
1, 85690, Note_on_c, 9, 42, 0
1, 85919, Note_on_c, 9, 36, 0
1, 85920, Note_on_c, 9, 38, 100
1, 85920, Note_on_c, 9, 42, 80
1, 85930, Note_on_c, 9, 42, 0
1, 86159, Note_on_c, 9, 38, 0
1, 86160, Note_on_c, 9, 42, 48
1, 86160, Note_on_c, 9, 36, 100
1, 86170, Note_on_c, 9, 42, 0
1, 86399, Note_on_c, 9, 36, 0
1, 86400, Note_on_c, 9, 42, 80
1, 86400, Note_on_c, 9, 36, 100
1, 86410, Note_on_c, 9, 42, 0
1, 86640, Note_on_c, 9, 42, 48
1, 86650, Note_on_c, 9, 42, 0
1, 86879, Note_on_c, 9, 36, 0
1, 86880, Note_on_c, 9, 38, 100
1, 86880, Note_on_c, 9, 42, 80
1, 86890, Note_on_c, 9, 42, 0
1, 87119, Note_on_c, 9, 38, 0
1, 87120, Note_on_c, 9, 42, 48
1, 87130, Note_on_c, 9, 42, 0
1, 87360, Note_on_c, 9, 42, 80
1, 87360, Note_on_c, 9, 36, 100
1, 87370, Note_on_c, 9, 42, 0
1, 87600, Note_on_c, 9, 42, 48
1, 87610, Note_on_c, 9, 42, 0
1, 87839, Note_on_c, 9, 36, 0
1, 87840, Note_on_c, 9, 38, 100
1, 87840, Note_on_c, 9, 42, 80
1, 87850, Note_on_c, 9, 42, 0
1, 88079, Note_on_c, 9, 38, 0
1, 88080, Note_on_c, 9, 42, 48
1, 88080, Note_on_c, 9, 36, 100
1, 88090, Note_on_c, 9, 42, 0
1, 88319, Note_on_c, 9, 36, 0
1, 88320, Note_on_c, 9, 42, 80
1, 88320, Note_on_c, 9, 36, 100
1, 88330, Note_on_c, 9, 42, 0
1, 88560, Note_on_c, 9, 42, 48
1, 88570, Note_on_c, 9, 42, 0
1, 88799, Note_on_c, 9, 36, 0
1, 88800, Note_on_c, 9, 38, 100
1, 88800, Note_on_c, 9, 42, 80
1, 88810, Note_on_c, 9, 42, 0
1, 89039, Note_on_c, 9, 38, 0
1, 89040, Note_on_c, 9, 42, 48
1, 89050, Note_on_c, 9, 42, 0
1, 89280, Note_on_c, 9, 42, 80
1, 89280, Note_on_c, 9, 36, 100
1, 89290, Note_on_c, 9, 42, 0
1, 89520, Note_on_c, 9, 42, 48
1, 89530, Note_on_c, 9, 42, 0
1, 89759, Note_on_c, 9, 36, 0
1, 89760, Note_on_c, 9, 38, 100
1, 89760, Note_on_c, 9, 42, 80
1, 89770, Note_on_c, 9, 42, 0
1, 89999, Note_on_c, 9, 38, 0
1, 90000, Note_on_c, 9, 42, 48
1, 90000, Note_on_c, 9, 36, 100
1, 90010, Note_on_c, 9, 42, 0
1, 90239, Note_on_c, 9, 36, 0
1, 90240, Note_on_c, 9, 42, 80
1, 90240, Note_on_c, 9, 36, 100
1, 90250, Note_on_c, 9, 42, 0
1, 90480, Note_on_c, 9, 42, 48
1, 90490, Note_on_c, 9, 42, 0
1, 90719, Note_on_c, 9, 36, 0
1, 90720, Note_on_c, 9, 38, 100
1, 90720, Note_on_c, 9, 42, 80
1, 90730, Note_on_c, 9, 42, 0
1, 90959, Note_on_c, 9, 38, 0
1, 90960, Note_on_c, 9, 42, 48
1, 90970, Note_on_c, 9, 42, 0
1, 91200, Note_on_c, 9, 42, 80
1, 91200, Note_on_c, 9, 36, 100
1, 91210, Note_on_c, 9, 42, 0
1, 91440, Note_on_c, 9, 42, 48
1, 91450, Note_on_c, 9, 42, 0
1, 91679, Note_on_c, 9, 36, 0
1, 91680, Note_on_c, 9, 38, 100
1, 91680, Note_on_c, 9, 42, 80
1, 91690, Note_on_c, 9, 42, 0
1, 91919, Note_on_c, 9, 38, 0
1, 91920, Note_on_c, 9, 42, 48
1, 91920, Note_on_c, 9, 36, 100
1, 91930, Note_on_c, 9, 42, 0
1, 92159, Note_on_c, 9, 36, 0
1, 92160, Note_on_c, 9, 42, 80
1, 92160, Note_on_c, 9, 36, 100
1, 92170, Note_on_c, 9, 42, 0
1, 92400, Note_on_c, 9, 42, 48
1, 92410, Note_on_c, 9, 42, 0
1, 92639, Note_on_c, 9, 36, 0
1, 92640, Note_on_c, 9, 38, 100
1, 92640, Note_on_c, 9, 42, 80
1, 92650, Note_on_c, 9, 42, 0
1, 92879, Note_on_c, 9, 38, 0
1, 92880, Note_on_c, 9, 42, 48
1, 92890, Note_on_c, 9, 42, 0
1, 93120, Note_on_c, 9, 42, 80
1, 93120, Note_on_c, 9, 36, 100
1, 93130, Note_on_c, 9, 42, 0
1, 93360, Note_on_c, 9, 42, 48
1, 93370, Note_on_c, 9, 42, 0
1, 93599, Note_on_c, 9, 36, 0
1, 93600, Note_on_c, 9, 38, 100
1, 93600, Note_on_c, 9, 42, 80
1, 93610, Note_on_c, 9, 42, 0
1, 93839, Note_on_c, 9, 38, 0
1, 93840, Note_on_c, 9, 38, 100
1, 93840, Note_on_c, 9, 42, 48
1, 93844, Note_on_c, 9, 42, 0
1, 93959, Note_on_c, 9, 38, 0
1, 93960, Note_on_c, 9, 38, 100
1, 94079, Note_on_c, 9, 38, 0
1, 94080, Note_on_c, 9, 42, 80
1, 94080, Note_on_c, 9, 36, 100
1, 94090, Note_on_c, 9, 42, 0
1, 94320, Note_on_c, 9, 42, 48
1, 94330, Note_on_c, 9, 42, 0
1, 94559, Note_on_c, 9, 36, 0
1, 94560, Note_on_c, 9, 38, 100
1, 94560, Note_on_c, 9, 42, 80
1, 94570, Note_on_c, 9, 42, 0
1, 94799, Note_on_c, 9, 38, 0
1, 94800, Note_on_c, 9, 42, 48
1, 94810, Note_on_c, 9, 42, 0
1, 95040, Note_on_c, 9, 42, 80
1, 95040, Note_on_c, 9, 36, 100
1, 95050, Note_on_c, 9, 42, 0
1, 95280, Note_on_c, 9, 42, 48
1, 95290, Note_on_c, 9, 42, 0
1, 95519, Note_on_c, 9, 36, 0
1, 95520, Note_on_c, 9, 38, 100
1, 95520, Note_on_c, 9, 42, 80
1, 95530, Note_on_c, 9, 42, 0
1, 95759, Note_on_c, 9, 38, 0
1, 95760, Note_on_c, 9, 38, 100
1, 95760, Note_on_c, 9, 42, 48
1, 95764, Note_on_c, 9, 42, 0
1, 95879, Note_on_c, 9, 38, 0
1, 95880, Note_on_c, 9, 38, 100
1, 95999, Note_on_c, 9, 38, 0
1, 96000, Note_on_c, 9, 49, 100
1, 96000, Note_on_c, 9, 36, 100
1, 96010, Note_on_c, 9, 49, 0
1, 96240, Note_on_c, 9, 42, 48
1, 96250, Note_on_c, 9, 42, 0
1, 96479, Note_on_c, 9, 36, 0
1, 96480, Note_on_c, 9, 38, 100
1, 96480, Note_on_c, 9, 42, 80
1, 96490, Note_on_c, 9, 42, 0
1, 96719, Note_on_c, 9, 38, 0
1, 96720, Note_on_c, 9, 42, 48
1, 96720, Note_on_c, 9, 36, 100
1, 96730, Note_on_c, 9, 42, 0
1, 96959, Note_on_c, 9, 36, 0
1, 96960, Note_on_c, 9, 42, 80
1, 96970, Note_on_c, 9, 42, 0
1, 97200, Note_on_c, 9, 42, 48
1, 97200, Note_on_c, 9, 36, 100
1, 97210, Note_on_c, 9, 42, 0
1, 97439, Note_on_c, 9, 36, 0
1, 97440, Note_on_c, 9, 38, 100
1, 97440, Note_on_c, 9, 42, 80
1, 97450, Note_on_c, 9, 42, 0
1, 97679, Note_on_c, 9, 38, 0
1, 97680, Note_on_c, 9, 42, 48
1, 97680, Note_on_c, 9, 49, 100
1, 97680, Note_on_c, 9, 36, 100
1, 97690, Note_on_c, 9, 42, 0
1, 97690, Note_on_c, 9, 49, 0
1, 97919, Note_on_c, 9, 36, 0
1, 98160, Note_on_c, 9, 42, 48
1, 98160, Note_on_c, 9, 36, 100
1, 98170, Note_on_c, 9, 42, 0
1, 98399, Note_on_c, 9, 36, 0
1, 98400, Note_on_c, 9, 38, 100
1, 98400, Note_on_c, 9, 42, 80
1, 98410, Note_on_c, 9, 42, 0
1, 98639, Note_on_c, 9, 38, 0
1, 98640, Note_on_c, 9, 42, 48
1, 98650, Note_on_c, 9, 42, 0
1, 98880, Note_on_c, 9, 42, 80
1, 98880, Note_on_c, 9, 36, 100
1, 98890, Note_on_c, 9, 42, 0
1, 99120, Note_on_c, 9, 42, 48
1, 99130, Note_on_c, 9, 42, 0
1, 99359, Note_on_c, 9, 36, 0
1, 99360, Note_on_c, 9, 38, 100
1, 99360, Note_on_c, 9, 42, 80
1, 99370, Note_on_c, 9, 42, 0
1, 99599, Note_on_c, 9, 38, 0
1, 99600, Note_on_c, 9, 42, 48
1, 99600, Note_on_c, 9, 36, 100
1, 99610, Note_on_c, 9, 42, 0
1, 99839, Note_on_c, 9, 36, 0
1, 99840, Note_on_c, 9, 42, 80
1, 99840, Note_on_c, 9, 36, 100
1, 99850, Note_on_c, 9, 42, 0
1, 100080, Note_on_c, 9, 42, 48
1, 100090, Note_on_c, 9, 42, 0
1, 100319, Note_on_c, 9, 36, 0
1, 100320, Note_on_c, 9, 38, 100
1, 100320, Note_on_c, 9, 42, 80
1, 100330, Note_on_c, 9, 42, 0
1, 100559, Note_on_c, 9, 38, 0
1, 100560, Note_on_c, 9, 42, 48
1, 100570, Note_on_c, 9, 42, 0
1, 100800, Note_on_c, 9, 42, 80
1, 100800, Note_on_c, 9, 36, 100
1, 100810, Note_on_c, 9, 42, 0
1, 101040, Note_on_c, 9, 42, 48
1, 101050, Note_on_c, 9, 42, 0
1, 101279, Note_on_c, 9, 36, 0
1, 101280, Note_on_c, 9, 38, 100
1, 101280, Note_on_c, 9, 42, 80
1, 101290, Note_on_c, 9, 42, 0
1, 101519, Note_on_c, 9, 38, 0
1, 101520, Note_on_c, 9, 42, 48
1, 101520, Note_on_c, 9, 36, 100
1, 101530, Note_on_c, 9, 42, 0
1, 101759, Note_on_c, 9, 36, 0
1, 101760, Note_on_c, 9, 42, 80
1, 101760, Note_on_c, 9, 36, 100
1, 101770, Note_on_c, 9, 42, 0
1, 102000, Note_on_c, 9, 42, 48
1, 102010, Note_on_c, 9, 42, 0
1, 102239, Note_on_c, 9, 36, 0
1, 102240, Note_on_c, 9, 38, 100
1, 102240, Note_on_c, 9, 42, 80
1, 102250, Note_on_c, 9, 42, 0
1, 102479, Note_on_c, 9, 38, 0
1, 102480, Note_on_c, 9, 42, 48
1, 102490, Note_on_c, 9, 42, 0
1, 102720, Note_on_c, 9, 42, 80
1, 102720, Note_on_c, 9, 36, 100
1, 102730, Note_on_c, 9, 42, 0
1, 102960, Note_on_c, 9, 42, 48
1, 102970, Note_on_c, 9, 42, 0
1, 103199, Note_on_c, 9, 36, 0
1, 103200, Note_on_c, 9, 38, 100
1, 103200, Note_on_c, 9, 42, 80
1, 103210, Note_on_c, 9, 42, 0
1, 103439, Note_on_c, 9, 38, 0
1, 103440, Note_on_c, 9, 42, 48
1, 103440, Note_on_c, 9, 36, 100
1, 103450, Note_on_c, 9, 42, 0
1, 103679, Note_on_c, 9, 36, 0
1, 103680, Note_on_c, 9, 42, 80
1, 103680, Note_on_c, 9, 36, 100
1, 103690, Note_on_c, 9, 42, 0
1, 103920, Note_on_c, 9, 42, 48
1, 103930, Note_on_c, 9, 42, 0
1, 104159, Note_on_c, 9, 36, 0
1, 104160, Note_on_c, 9, 38, 100
1, 104160, Note_on_c, 9, 42, 80
1, 104170, Note_on_c, 9, 42, 0
1, 104399, Note_on_c, 9, 38, 0
1, 104400, Note_on_c, 9, 42, 48
1, 104410, Note_on_c, 9, 42, 0
1, 104640, Note_on_c, 9, 42, 80
1, 104640, Note_on_c, 9, 36, 100
1, 104650, Note_on_c, 9, 42, 0
1, 104880, Note_on_c, 9, 42, 48
1, 104890, Note_on_c, 9, 42, 0
1, 105119, Note_on_c, 9, 36, 0
1, 105120, Note_on_c, 9, 38, 100
1, 105120, Note_on_c, 9, 42, 80
1, 105130, Note_on_c, 9, 42, 0
1, 105359, Note_on_c, 9, 38, 0
1, 105360, Note_on_c, 9, 42, 48
1, 105360, Note_on_c, 9, 36, 100
1, 105370, Note_on_c, 9, 42, 0
1, 105599, Note_on_c, 9, 36, 0
1, 105600, Note_on_c, 9, 42, 80
1, 105600, Note_on_c, 9, 36, 100
1, 105610, Note_on_c, 9, 42, 0
1, 105840, Note_on_c, 9, 42, 48
1, 105850, Note_on_c, 9, 42, 0
1, 106079, Note_on_c, 9, 36, 0
1, 106080, Note_on_c, 9, 38, 100
1, 106080, Note_on_c, 9, 42, 80
1, 106090, Note_on_c, 9, 42, 0
1, 106319, Note_on_c, 9, 38, 0
1, 106320, Note_on_c, 9, 42, 48
1, 106330, Note_on_c, 9, 42, 0
1, 106560, Note_on_c, 9, 42, 80
1, 106560, Note_on_c, 9, 36, 100
1, 106570, Note_on_c, 9, 42, 0
1, 106800, Note_on_c, 9, 42, 48
1, 106810, Note_on_c, 9, 42, 0
1, 107039, Note_on_c, 9, 36, 0
1, 107040, Note_on_c, 9, 38, 100
1, 107040, Note_on_c, 9, 42, 80
1, 107050, Note_on_c, 9, 42, 0
1, 107279, Note_on_c, 9, 38, 0
1, 107280, Note_on_c, 9, 42, 48
1, 107280, Note_on_c, 9, 36, 100
1, 107290, Note_on_c, 9, 42, 0
1, 107519, Note_on_c, 9, 36, 0
1, 107520, Note_on_c, 9, 42, 80
1, 107520, Note_on_c, 9, 36, 100
1, 107530, Note_on_c, 9, 42, 0
1, 107760, Note_on_c, 9, 42, 48
1, 107770, Note_on_c, 9, 42, 0
1, 107999, Note_on_c, 9, 36, 0
1, 108000, Note_on_c, 9, 38, 100
1, 108000, Note_on_c, 9, 42, 80
1, 108010, Note_on_c, 9, 42, 0
1, 108239, Note_on_c, 9, 38, 0
1, 108240, Note_on_c, 9, 42, 48
1, 108250, Note_on_c, 9, 42, 0
1, 108480, Note_on_c, 9, 42, 80
1, 108480, Note_on_c, 9, 36, 100
1, 108490, Note_on_c, 9, 42, 0
1, 108720, Note_on_c, 9, 42, 48
1, 108730, Note_on_c, 9, 42, 0
1, 108959, Note_on_c, 9, 36, 0
1, 108960, Note_on_c, 9, 38, 100
1, 108960, Note_on_c, 9, 42, 80
1, 108970, Note_on_c, 9, 42, 0
1, 109199, Note_on_c, 9, 38, 0
1, 109200, Note_on_c, 9, 38, 100
1, 109200, Note_on_c, 9, 42, 48
1, 109204, Note_on_c, 9, 42, 0
1, 109319, Note_on_c, 9, 38, 0
1, 109320, Note_on_c, 9, 38, 100
1, 109439, Note_on_c, 9, 38, 0
1, 109440, Note_on_c, 9, 49, 100
1, 109440, Note_on_c, 9, 36, 100
1, 109450, Note_on_c, 9, 49, 0
1, 109680, Note_on_c, 9, 42, 48
1, 109690, Note_on_c, 9, 42, 0
1, 109919, Note_on_c, 9, 36, 0
1, 109920, Note_on_c, 9, 38, 100
1, 109920, Note_on_c, 9, 42, 80
1, 109930, Note_on_c, 9, 42, 0
1, 110159, Note_on_c, 9, 38, 0
1, 110160, Note_on_c, 9, 42, 48
1, 110160, Note_on_c, 9, 49, 100
1, 110160, Note_on_c, 9, 36, 100
1, 110170, Note_on_c, 9, 42, 0
1, 110170, Note_on_c, 9, 49, 0
1, 110399, Note_on_c, 9, 36, 0
1, 110400, Note_on_c, 9, 42, 80
1, 110410, Note_on_c, 9, 42, 0
1, 110640, Note_on_c, 9, 42, 48
1, 110640, Note_on_c, 9, 36, 100
1, 110650, Note_on_c, 9, 42, 0
1, 110879, Note_on_c, 9, 36, 0
1, 110880, Note_on_c, 9, 38, 100
1, 110880, Note_on_c, 9, 42, 80
1, 110890, Note_on_c, 9, 42, 0
1, 111119, Note_on_c, 9, 38, 0
1, 111120, Note_on_c, 9, 42, 48
1, 111120, Note_on_c, 9, 49, 100
1, 111120, Note_on_c, 9, 36, 100
1, 111130, Note_on_c, 9, 42, 0
1, 111130, Note_on_c, 9, 49, 0
1, 111359, Note_on_c, 9, 36, 0
1, 111360, Note_on_c, 9, 42, 80
1, 111370, Note_on_c, 9, 42, 0
1, 111600, Note_on_c, 9, 42, 48
1, 111600, Note_on_c, 9, 36, 100
1, 111610, Note_on_c, 9, 42, 0
1, 111839, Note_on_c, 9, 36, 0
1, 111840, Note_on_c, 9, 38, 100
1, 111840, Note_on_c, 9, 42, 80
1, 111850, Note_on_c, 9, 42, 0
1, 112079, Note_on_c, 9, 38, 0
1, 112080, Note_on_c, 9, 42, 48
1, 112080, Note_on_c, 9, 36, 100
1, 112090, Note_on_c, 9, 42, 0
1, 112319, Note_on_c, 9, 36, 0
1, 112320, Note_on_c, 9, 38, 100
1, 112320, Note_on_c, 9, 42, 80
1, 112330, Note_on_c, 9, 42, 0
1, 112559, Note_on_c, 9, 38, 0
1, 112560, Note_on_c, 9, 42, 48
1, 112560, Note_on_c, 9, 36, 100
1, 112570, Note_on_c, 9, 42, 0
1, 112799, Note_on_c, 9, 36, 0
1, 112800, Note_on_c, 9, 45, 100
1, 112800, Note_on_c, 9, 42, 80
1, 112810, Note_on_c, 9, 42, 0
1, 112920, Note_on_c, 9, 43, 100
1, 113039, Note_on_c, 9, 45, 0
1, 113040, Note_on_c, 9, 41, 100
1, 113040, Note_on_c, 9, 42, 48
1, 113050, Note_on_c, 9, 42, 0
1, 113159, Note_on_c, 9, 43, 0
1, 113160, Note_on_c, 9, 43, 100
1, 113279, Note_on_c, 9, 41, 0
1, 113279, Note_on_c, 9, 43, 0
1, 113280, Note_on_c, 9, 56, 100
1, 113280, Note_on_c, 9, 36, 100
1, 113759, Note_on_c, 9, 56, 0
1, 113759, Note_on_c, 9, 36, 0
1, 113760, Note_on_c, 9, 38, 100
1, 113760, Note_on_c, 9, 56, 100
1, 114239, Note_on_c, 9, 38, 0
1, 114239, Note_on_c, 9, 56, 0
1, 114240, Note_on_c, 9, 56, 100
1, 114480, Note_on_c, 9, 36, 100
1, 114719, Note_on_c, 9, 56, 0
1, 114719, Note_on_c, 9, 36, 0
1, 114720, Note_on_c, 9, 38, 100
1, 114720, Note_on_c, 9, 56, 100
1, 114960, Note_on_c, 9, 36, 100
1, 115199, Note_on_c, 9, 38, 0
1, 115199, Note_on_c, 9, 56, 0
1, 115199, Note_on_c, 9, 36, 0
1, 115200, Note_on_c, 9, 56, 100
1, 115440, Note_on_c, 9, 36, 100
1, 115679, Note_on_c, 9, 56, 0
1, 115679, Note_on_c, 9, 36, 0
1, 115680, Note_on_c, 9, 38, 100
1, 115680, Note_on_c, 9, 56, 100
1, 116159, Note_on_c, 9, 38, 0
1, 116159, Note_on_c, 9, 56, 0
1, 116160, Note_on_c, 9, 56, 100
1, 116400, Note_on_c, 9, 36, 100
1, 116639, Note_on_c, 9, 56, 0
1, 116639, Note_on_c, 9, 36, 0
1, 116640, Note_on_c, 9, 38, 100
1, 116640, Note_on_c, 9, 56, 100
1, 116880, Note_on_c, 9, 36, 100
1, 117119, Note_on_c, 9, 38, 0
1, 117119, Note_on_c, 9, 56, 0
1, 117119, Note_on_c, 9, 36, 0
1, 117120, Note_on_c, 9, 56, 100
1, 117360, Note_on_c, 9, 36, 100
1, 117599, Note_on_c, 9, 56, 0
1, 117599, Note_on_c, 9, 36, 0
1, 117600, Note_on_c, 9, 38, 100
1, 117600, Note_on_c, 9, 56, 100
1, 118079, Note_on_c, 9, 38, 0
1, 118079, Note_on_c, 9, 56, 0
1, 118080, Note_on_c, 9, 56, 100
1, 118320, Note_on_c, 9, 36, 100
1, 118559, Note_on_c, 9, 56, 0
1, 118559, Note_on_c, 9, 36, 0
1, 118560, Note_on_c, 9, 38, 100
1, 118560, Note_on_c, 9, 56, 100
1, 118799, Note_on_c, 9, 38, 0
1, 118799, Note_on_c, 9, 56, 0
1, 118800, Note_on_c, 9, 57, 100
1, 118800, Note_on_c, 9, 36, 100
1, 118810, Note_on_c, 9, 57, 0
1, 119039, Note_on_c, 9, 36, 0
1, 119040, Note_on_c, 9, 56, 100
1, 119279, Note_on_c, 9, 56, 0
1, 119280, Note_on_c, 9, 49, 100
1, 119280, Note_on_c, 9, 36, 100
1, 119290, Note_on_c, 9, 49, 0
1, 119519, Note_on_c, 9, 36, 0
1, 119520, Note_on_c, 9, 38, 100
1, 119520, Note_on_c, 9, 56, 100
1, 119759, Note_on_c, 9, 38, 0
1, 119759, Note_on_c, 9, 56, 0
1, 119760, Note_on_c, 9, 57, 100
1, 119760, Note_on_c, 9, 36, 100
1, 119770, Note_on_c, 9, 57, 0
1, 119999, Note_on_c, 9, 36, 0
1, 120000, Note_on_c, 9, 56, 100
1, 120239, Note_on_c, 9, 56, 0
1, 120240, Note_on_c, 9, 49, 100
1, 120240, Note_on_c, 9, 36, 100
1, 120250, Note_on_c, 9, 49, 0
1, 120479, Note_on_c, 9, 36, 0
1, 120480, Note_on_c, 9, 38, 100
1, 120480, Note_on_c, 9, 56, 100
1, 120720, Note_on_c, 9, 36, 100
1, 120959, Note_on_c, 9, 38, 0
1, 120959, Note_on_c, 9, 56, 0
1, 120959, Note_on_c, 9, 36, 0
1, 120960, Note_on_c, 9, 56, 100
1, 120960, Note_on_c, 9, 36, 100
1, 121439, Note_on_c, 9, 56, 0
1, 121439, Note_on_c, 9, 36, 0
1, 121440, Note_on_c, 9, 38, 100
1, 121440, Note_on_c, 9, 56, 100
1, 121919, Note_on_c, 9, 38, 0
1, 121919, Note_on_c, 9, 56, 0
1, 121920, Note_on_c, 9, 56, 100
1, 122160, Note_on_c, 9, 36, 100
1, 122399, Note_on_c, 9, 56, 0
1, 122399, Note_on_c, 9, 36, 0
1, 122400, Note_on_c, 9, 38, 100
1, 122400, Note_on_c, 9, 56, 100
1, 122640, Note_on_c, 9, 36, 100
1, 122879, Note_on_c, 9, 38, 0
1, 122879, Note_on_c, 9, 56, 0
1, 122879, Note_on_c, 9, 36, 0
1, 122880, Note_on_c, 9, 56, 100
1, 123120, Note_on_c, 9, 36, 100
1, 123359, Note_on_c, 9, 56, 0
1, 123359, Note_on_c, 9, 36, 0
1, 123360, Note_on_c, 9, 38, 100
1, 123360, Note_on_c, 9, 56, 100
1, 123839, Note_on_c, 9, 38, 0
1, 123839, Note_on_c, 9, 56, 0
1, 123840, Note_on_c, 9, 56, 100
1, 124080, Note_on_c, 9, 36, 100
1, 124319, Note_on_c, 9, 56, 0
1, 124319, Note_on_c, 9, 36, 0
1, 124320, Note_on_c, 9, 38, 100
1, 124320, Note_on_c, 9, 56, 100
1, 124560, Note_on_c, 9, 36, 100
1, 124799, Note_on_c, 9, 38, 0
1, 124799, Note_on_c, 9, 56, 0
1, 124799, Note_on_c, 9, 36, 0
1, 124800, Note_on_c, 9, 56, 100
1, 125040, Note_on_c, 9, 36, 100
1, 125279, Note_on_c, 9, 56, 0
1, 125279, Note_on_c, 9, 36, 0
1, 125280, Note_on_c, 9, 38, 100
1, 125280, Note_on_c, 9, 56, 100
1, 125759, Note_on_c, 9, 38, 0
1, 125759, Note_on_c, 9, 56, 0
1, 125760, Note_on_c, 9, 56, 100
1, 126000, Note_on_c, 9, 36, 100
1, 126239, Note_on_c, 9, 56, 0
1, 126239, Note_on_c, 9, 36, 0
1, 126240, Note_on_c, 9, 38, 100
1, 126240, Note_on_c, 9, 56, 100
1, 126479, Note_on_c, 9, 38, 0
1, 126479, Note_on_c, 9, 56, 0
1, 126480, Note_on_c, 9, 57, 100
1, 126480, Note_on_c, 9, 36, 100
1, 126490, Note_on_c, 9, 57, 0
1, 126719, Note_on_c, 9, 36, 0
1, 126720, Note_on_c, 9, 56, 100
1, 126959, Note_on_c, 9, 56, 0
1, 126960, Note_on_c, 9, 49, 100
1, 126960, Note_on_c, 9, 36, 100
1, 126970, Note_on_c, 9, 49, 0
1, 127199, Note_on_c, 9, 36, 0
1, 127200, Note_on_c, 9, 38, 100
1, 127200, Note_on_c, 9, 56, 100
1, 127439, Note_on_c, 9, 38, 0
1, 127439, Note_on_c, 9, 56, 0
1, 127440, Note_on_c, 9, 57, 100
1, 127440, Note_on_c, 9, 36, 100
1, 127450, Note_on_c, 9, 57, 0
1, 127679, Note_on_c, 9, 36, 0
1, 127680, Note_on_c, 9, 38, 100
1, 127680, Note_on_c, 9, 56, 100
1, 127919, Note_on_c, 9, 38, 0
1, 127919, Note_on_c, 9, 56, 0
1, 127920, Note_on_c, 9, 49, 100
1, 127920, Note_on_c, 9, 36, 100
1, 127930, Note_on_c, 9, 49, 0
1, 128159, Note_on_c, 9, 36, 0
1, 128160, Note_on_c, 9, 38, 100
1, 128160, Note_on_c, 9, 56, 100
1, 128399, Note_on_c, 9, 38, 0
1, 128399, Note_on_c, 9, 56, 0
1, 128400, Note_on_c, 9, 51, 100
1, 128400, Note_on_c, 9, 36, 100
1, 128410, Note_on_c, 9, 51, 0
1, 128639, Note_on_c, 9, 36, 0
1, 128640, Note_on_c, 9, 51, 100
1, 128640, Note_on_c, 9, 36, 100
1, 128650, Note_on_c, 9, 51, 0
1, 128880, Note_on_c, 9, 51, 70
1, 128890, Note_on_c, 9, 51, 0
1, 129119, Note_on_c, 9, 36, 0
1, 129120, Note_on_c, 9, 38, 100
1, 129120, Note_on_c, 9, 51, 100
1, 129130, Note_on_c, 9, 51, 0
1, 129359, Note_on_c, 9, 38, 0
1, 129360, Note_on_c, 9, 51, 70
1, 129360, Note_on_c, 9, 36, 100
1, 129370, Note_on_c, 9, 51, 0
1, 129599, Note_on_c, 9, 36, 0
1, 129600, Note_on_c, 9, 51, 100
1, 129610, Note_on_c, 9, 51, 0
1, 129840, Note_on_c, 9, 51, 70
1, 129840, Note_on_c, 9, 36, 100
1, 129850, Note_on_c, 9, 51, 0
1, 130079, Note_on_c, 9, 36, 0
1, 130080, Note_on_c, 9, 38, 100
1, 130080, Note_on_c, 9, 51, 100
1, 130090, Note_on_c, 9, 51, 0
1, 130319, Note_on_c, 9, 38, 0
1, 130320, Note_on_c, 9, 51, 70
1, 130320, Note_on_c, 9, 36, 100
1, 130330, Note_on_c, 9, 51, 0
1, 130559, Note_on_c, 9, 36, 0
1, 130560, Note_on_c, 9, 51, 100
1, 130560, Note_on_c, 9, 36, 100
1, 130570, Note_on_c, 9, 51, 0
1, 130800, Note_on_c, 9, 51, 70
1, 130810, Note_on_c, 9, 51, 0
1, 131039, Note_on_c, 9, 36, 0
1, 131040, Note_on_c, 9, 38, 100
1, 131040, Note_on_c, 9, 51, 100
1, 131050, Note_on_c, 9, 51, 0
1, 131279, Note_on_c, 9, 38, 0
1, 131280, Note_on_c, 9, 51, 70
1, 131280, Note_on_c, 9, 36, 100
1, 131290, Note_on_c, 9, 51, 0
1, 131519, Note_on_c, 9, 36, 0
1, 131520, Note_on_c, 9, 51, 100
1, 131530, Note_on_c, 9, 51, 0
1, 131760, Note_on_c, 9, 51, 70
1, 131760, Note_on_c, 9, 36, 100
1, 131770, Note_on_c, 9, 51, 0
1, 131999, Note_on_c, 9, 36, 0
1, 132000, Note_on_c, 9, 38, 100
1, 132000, Note_on_c, 9, 51, 100
1, 132010, Note_on_c, 9, 51, 0
1, 132239, Note_on_c, 9, 38, 0
1, 132240, Note_on_c, 9, 51, 70
1, 132240, Note_on_c, 9, 36, 100
1, 132250, Note_on_c, 9, 51, 0
1, 132479, Note_on_c, 9, 36, 0
1, 132480, Note_on_c, 9, 51, 100
1, 132480, Note_on_c, 9, 36, 100
1, 132490, Note_on_c, 9, 51, 0
1, 132720, Note_on_c, 9, 51, 70
1, 132730, Note_on_c, 9, 51, 0
1, 132959, Note_on_c, 9, 36, 0
1, 132960, Note_on_c, 9, 38, 100
1, 132960, Note_on_c, 9, 51, 100
1, 132970, Note_on_c, 9, 51, 0
1, 133199, Note_on_c, 9, 38, 0
1, 133200, Note_on_c, 9, 51, 70
1, 133200, Note_on_c, 9, 36, 100
1, 133210, Note_on_c, 9, 51, 0
1, 133439, Note_on_c, 9, 36, 0
1, 133440, Note_on_c, 9, 51, 100
1, 133450, Note_on_c, 9, 51, 0
1, 133680, Note_on_c, 9, 51, 70
1, 133680, Note_on_c, 9, 36, 100
1, 133690, Note_on_c, 9, 51, 0
1, 133919, Note_on_c, 9, 36, 0
1, 133920, Note_on_c, 9, 38, 100
1, 133920, Note_on_c, 9, 51, 100
1, 133930, Note_on_c, 9, 51, 0
1, 134159, Note_on_c, 9, 38, 0
1, 134160, Note_on_c, 9, 51, 70
1, 134160, Note_on_c, 9, 36, 100
1, 134170, Note_on_c, 9, 51, 0
1, 134399, Note_on_c, 9, 36, 0
1, 134400, Note_on_c, 9, 51, 100
1, 134400, Note_on_c, 9, 36, 100
1, 134410, Note_on_c, 9, 51, 0
1, 134640, Note_on_c, 9, 51, 70
1, 134650, Note_on_c, 9, 51, 0
1, 134879, Note_on_c, 9, 36, 0
1, 134880, Note_on_c, 9, 38, 100
1, 134880, Note_on_c, 9, 51, 100
1, 134890, Note_on_c, 9, 51, 0
1, 135119, Note_on_c, 9, 38, 0
1, 135120, Note_on_c, 9, 51, 70
1, 135120, Note_on_c, 9, 36, 100
1, 135130, Note_on_c, 9, 51, 0
1, 135359, Note_on_c, 9, 36, 0
1, 135360, Note_on_c, 9, 51, 100
1, 135370, Note_on_c, 9, 51, 0
1, 135600, Note_on_c, 9, 51, 70
1, 135600, Note_on_c, 9, 36, 100
1, 135610, Note_on_c, 9, 51, 0
1, 135839, Note_on_c, 9, 36, 0
1, 135840, Note_on_c, 9, 38, 100
1, 135840, Note_on_c, 9, 51, 100
1, 135850, Note_on_c, 9, 51, 0
1, 136079, Note_on_c, 9, 38, 0
1, 136080, Note_on_c, 9, 51, 70
1, 136080, Note_on_c, 9, 36, 100
1, 136090, Note_on_c, 9, 51, 0
1, 136319, Note_on_c, 9, 36, 0
1, 136320, Note_on_c, 9, 51, 100
1, 136320, Note_on_c, 9, 36, 100
1, 136330, Note_on_c, 9, 51, 0
1, 136560, Note_on_c, 9, 51, 70
1, 136570, Note_on_c, 9, 51, 0
1, 136799, Note_on_c, 9, 36, 0
1, 136800, Note_on_c, 9, 38, 100
1, 136800, Note_on_c, 9, 51, 100
1, 136810, Note_on_c, 9, 51, 0
1, 137039, Note_on_c, 9, 38, 0
1, 137040, Note_on_c, 9, 51, 70
1, 137040, Note_on_c, 9, 36, 100
1, 137050, Note_on_c, 9, 51, 0
1, 137279, Note_on_c, 9, 36, 0
1, 137280, Note_on_c, 9, 51, 100
1, 137290, Note_on_c, 9, 51, 0
1, 137520, Note_on_c, 9, 51, 70
1, 137520, Note_on_c, 9, 36, 100
1, 137530, Note_on_c, 9, 51, 0
1, 137759, Note_on_c, 9, 36, 0
1, 137760, Note_on_c, 9, 38, 100
1, 137760, Note_on_c, 9, 51, 100
1, 137770, Note_on_c, 9, 51, 0
1, 137999, Note_on_c, 9, 38, 0
1, 138000, Note_on_c, 9, 51, 70
1, 138000, Note_on_c, 9, 36, 100
1, 138010, Note_on_c, 9, 51, 0
1, 138239, Note_on_c, 9, 36, 0
1, 138240, Note_on_c, 9, 51, 100
1, 138240, Note_on_c, 9, 36, 100
1, 138250, Note_on_c, 9, 51, 0
1, 138480, Note_on_c, 9, 51, 70
1, 138490, Note_on_c, 9, 51, 0
1, 138719, Note_on_c, 9, 36, 0
1, 138720, Note_on_c, 9, 38, 100
1, 138720, Note_on_c, 9, 51, 100
1, 138730, Note_on_c, 9, 51, 0
1, 138959, Note_on_c, 9, 38, 0
1, 138960, Note_on_c, 9, 51, 70
1, 138960, Note_on_c, 9, 36, 100
1, 138970, Note_on_c, 9, 51, 0
1, 139199, Note_on_c, 9, 36, 0
1, 139200, Note_on_c, 9, 51, 100
1, 139210, Note_on_c, 9, 51, 0
1, 139440, Note_on_c, 9, 51, 70
1, 139440, Note_on_c, 9, 36, 100
1, 139450, Note_on_c, 9, 51, 0
1, 139679, Note_on_c, 9, 36, 0
1, 139680, Note_on_c, 9, 38, 100
1, 139680, Note_on_c, 9, 51, 100
1, 139690, Note_on_c, 9, 51, 0
1, 139919, Note_on_c, 9, 38, 0
1, 139920, Note_on_c, 9, 51, 70
1, 139920, Note_on_c, 9, 36, 100
1, 139930, Note_on_c, 9, 51, 0
1, 140159, Note_on_c, 9, 36, 0
1, 140160, Note_on_c, 9, 51, 100
1, 140160, Note_on_c, 9, 36, 100
1, 140170, Note_on_c, 9, 51, 0
1, 140400, Note_on_c, 9, 51, 70
1, 140410, Note_on_c, 9, 51, 0
1, 140639, Note_on_c, 9, 36, 0
1, 140640, Note_on_c, 9, 38, 100
1, 140640, Note_on_c, 9, 51, 100
1, 140650, Note_on_c, 9, 51, 0
1, 140879, Note_on_c, 9, 38, 0
1, 140880, Note_on_c, 9, 51, 70
1, 140880, Note_on_c, 9, 36, 100
1, 140890, Note_on_c, 9, 51, 0
1, 141119, Note_on_c, 9, 36, 0
1, 141120, Note_on_c, 9, 51, 100
1, 141130, Note_on_c, 9, 51, 0
1, 141360, Note_on_c, 9, 38, 100
1, 141360, Note_on_c, 9, 51, 70
1, 141370, Note_on_c, 9, 51, 0
1, 141599, Note_on_c, 9, 38, 0
1, 141600, Note_on_c, 9, 38, 100
1, 141600, Note_on_c, 9, 51, 100
1, 141610, Note_on_c, 9, 51, 0
1, 141839, Note_on_c, 9, 38, 0
1, 141840, Note_on_c, 9, 51, 70
1, 141840, Note_on_c, 9, 36, 100
1, 141850, Note_on_c, 9, 51, 0
1, 142079, Note_on_c, 9, 36, 0
1, 142080, Note_on_c, 9, 38, 100
1, 142080, Note_on_c, 9, 51, 100
1, 142090, Note_on_c, 9, 51, 0
1, 142319, Note_on_c, 9, 38, 0
1, 142320, Note_on_c, 9, 51, 70
1, 142320, Note_on_c, 9, 36, 100
1, 142330, Note_on_c, 9, 51, 0
1, 142559, Note_on_c, 9, 36, 0
1, 142560, Note_on_c, 9, 51, 100
1, 142560, Note_on_c, 9, 36, 100
1, 142570, Note_on_c, 9, 51, 0
1, 142800, Note_on_c, 9, 38, 100
1, 142800, Note_on_c, 9, 51, 70
1, 142810, Note_on_c, 9, 51, 0
1, 143039, Note_on_c, 9, 36, 0
1, 143039, Note_on_c, 9, 38, 0
1, 143040, Note_on_c, 9, 38, 100
1, 143040, Note_on_c, 9, 51, 100
1, 143050, Note_on_c, 9, 51, 0
1, 143279, Note_on_c, 9, 38, 0
1, 143280, Note_on_c, 9, 38, 100
1, 143399, Note_on_c, 9, 38, 0
1, 143400, Note_on_c, 9, 38, 100
1, 143519, Note_on_c, 9, 38, 0
1, 143520, Note_on_c, 9, 36, 100
1, 143760, Note_on_c, 9, 38, 100
1, 143879, Note_on_c, 9, 38, 0
1, 143880, Note_on_c, 9, 38, 100
1, 143999, Note_on_c, 9, 36, 0
1, 143999, Note_on_c, 9, 38, 0
1, 144000, Note_on_c, 9, 36, 100
1, 144479, Note_on_c, 9, 36, 0
1, 150780, Note_on_c, 9, 43, 100
1, 150840, Note_on_c, 9, 41, 100
1, 150959, Note_on_c, 9, 43, 0
1, 150959, Note_on_c, 9, 41, 0
1, 150960, Note_on_c, 9, 43, 100
1, 151020, Note_on_c, 9, 41, 100
1, 151199, Note_on_c, 9, 43, 0
1, 151199, Note_on_c, 9, 41, 0
1, 151200, Note_on_c, 9, 38, 100
1, 151679, Note_on_c, 9, 38, 0
1, 152160, Note_on_c, 9, 38, 100
1, 152639, Note_on_c, 9, 38, 0
1, 153120, Note_on_c, 9, 38, 100
1, 153599, Note_on_c, 9, 38, 0
1, 154080, Note_on_c, 9, 38, 100
1, 154559, Note_on_c, 9, 38, 0
1, 154800, Note_on_c, 9, 36, 100
1, 154919, Note_on_c, 9, 36, 0
1, 154920, Note_on_c, 9, 36, 100
1, 155039, Note_on_c, 9, 36, 0
1, 155040, Note_on_c, 9, 38, 100
1, 155279, Note_on_c, 9, 38, 0
1, 155280, Note_on_c, 9, 38, 100
1, 155399, Note_on_c, 9, 38, 0
1, 155400, Note_on_c, 9, 38, 100
1, 155519, Note_on_c, 9, 38, 0
1, 156000, Note_on_c, 9, 38, 100
1, 156239, Note_on_c, 9, 38, 0
1, 156240, Note_on_c, 9, 57, 70
1, 156240, Note_on_c, 9, 36, 100
1, 156250, Note_on_c, 9, 57, 0
1, 156479, Note_on_c, 9, 36, 0
1, 156720, Note_on_c, 9, 36, 100
1, 156959, Note_on_c, 9, 36, 0
1, 156960, Note_on_c, 9, 38, 100
1, 157199, Note_on_c, 9, 38, 0
1, 157200, Note_on_c, 9, 49, 70
1, 157200, Note_on_c, 9, 36, 100
1, 157210, Note_on_c, 9, 49, 0
1, 157439, Note_on_c, 9, 36, 0
1, 157440, Note_on_c, 9, 57, 60
1, 157440, Note_on_c, 9, 36, 100
1, 157462, Note_on_c, 9, 57, 0
1, 157919, Note_on_c, 9, 36, 0
1, 157920, Note_on_c, 9, 38, 100
1, 158159, Note_on_c, 9, 38, 0
1, 158160, Note_on_c, 9, 49, 70
1, 158160, Note_on_c, 9, 36, 100
1, 158170, Note_on_c, 9, 49, 0
1, 158399, Note_on_c, 9, 36, 0
1, 158640, Note_on_c, 9, 38, 100
1, 158640, Note_on_c, 9, 36, 100
1, 158879, Note_on_c, 9, 38, 0
1, 158879, Note_on_c, 9, 36, 0
1, 158880, Note_on_c, 9, 38, 100
1, 158880, Note_on_c, 9, 36, 100
1, 159119, Note_on_c, 9, 38, 0
1, 159119, Note_on_c, 9, 36, 0
1, 159120, Note_on_c, 9, 38, 100
1, 159120, Note_on_c, 9, 36, 100
1, 159359, Note_on_c, 9, 38, 0
1, 159359, Note_on_c, 9, 36, 0
1, 159360, Note_on_c, 9, 49, 100
1, 159360, Note_on_c, 9, 36, 100
1, 159370, Note_on_c, 9, 49, 0
1, 159600, Note_on_c, 9, 42, 48
1, 159610, Note_on_c, 9, 42, 0
1, 159839, Note_on_c, 9, 36, 0
1, 159840, Note_on_c, 9, 38, 100
1, 159840, Note_on_c, 9, 57, 60
1, 159850, Note_on_c, 9, 57, 0
1, 160079, Note_on_c, 9, 38, 0
1, 160080, Note_on_c, 9, 42, 48
1, 160080, Note_on_c, 9, 36, 100
1, 160090, Note_on_c, 9, 42, 0
1, 160319, Note_on_c, 9, 36, 0
1, 160320, Note_on_c, 9, 42, 80
1, 160330, Note_on_c, 9, 42, 0
1, 160560, Note_on_c, 9, 42, 48
1, 160560, Note_on_c, 9, 36, 100
1, 160570, Note_on_c, 9, 42, 0
1, 160799, Note_on_c, 9, 36, 0
1, 160800, Note_on_c, 9, 38, 100
1, 160800, Note_on_c, 9, 49, 60
1, 160810, Note_on_c, 9, 49, 0
1, 161039, Note_on_c, 9, 38, 0
1, 161040, Note_on_c, 9, 42, 48
1, 161040, Note_on_c, 9, 36, 100
1, 161050, Note_on_c, 9, 42, 0
1, 161279, Note_on_c, 9, 36, 0
1, 161280, Note_on_c, 9, 42, 80
1, 161280, Note_on_c, 9, 36, 100
1, 161290, Note_on_c, 9, 42, 0
1, 161520, Note_on_c, 9, 42, 48
1, 161530, Note_on_c, 9, 42, 0
1, 161759, Note_on_c, 9, 36, 0
1, 161760, Note_on_c, 9, 38, 100
1, 161760, Note_on_c, 9, 57, 60
1, 161770, Note_on_c, 9, 57, 0
1, 161999, Note_on_c, 9, 38, 0
1, 162000, Note_on_c, 9, 42, 48
1, 162000, Note_on_c, 9, 36, 100
1, 162010, Note_on_c, 9, 42, 0
1, 162239, Note_on_c, 9, 36, 0
1, 162240, Note_on_c, 9, 42, 80
1, 162250, Note_on_c, 9, 42, 0
1, 162480, Note_on_c, 9, 42, 48
1, 162480, Note_on_c, 9, 36, 100
1, 162490, Note_on_c, 9, 42, 0
1, 162719, Note_on_c, 9, 36, 0
1, 162720, Note_on_c, 9, 38, 100
1, 162720, Note_on_c, 9, 49, 60
1, 162730, Note_on_c, 9, 49, 0
1, 162959, Note_on_c, 9, 38, 0
1, 162960, Note_on_c, 9, 42, 48
1, 162960, Note_on_c, 9, 36, 100
1, 162970, Note_on_c, 9, 42, 0
1, 163199, Note_on_c, 9, 36, 0
1, 163200, Note_on_c, 9, 42, 80
1, 163200, Note_on_c, 9, 36, 100
1, 163210, Note_on_c, 9, 42, 0
1, 163440, Note_on_c, 9, 42, 48
1, 163450, Note_on_c, 9, 42, 0
1, 163679, Note_on_c, 9, 36, 0
1, 163680, Note_on_c, 9, 38, 100
1, 163680, Note_on_c, 9, 57, 60
1, 163690, Note_on_c, 9, 57, 0
1, 163919, Note_on_c, 9, 38, 0
1, 163920, Note_on_c, 9, 42, 48
1, 163920, Note_on_c, 9, 36, 100
1, 163930, Note_on_c, 9, 42, 0
1, 164159, Note_on_c, 9, 36, 0
1, 164160, Note_on_c, 9, 42, 80
1, 164170, Note_on_c, 9, 42, 0
1, 164400, Note_on_c, 9, 42, 48
1, 164400, Note_on_c, 9, 36, 100
1, 164410, Note_on_c, 9, 42, 0
1, 164639, Note_on_c, 9, 36, 0
1, 164640, Note_on_c, 9, 38, 100
1, 164640, Note_on_c, 9, 49, 60
1, 164650, Note_on_c, 9, 49, 0
1, 164879, Note_on_c, 9, 38, 0
1, 164880, Note_on_c, 9, 42, 48
1, 164880, Note_on_c, 9, 36, 100
1, 164890, Note_on_c, 9, 42, 0
1, 165119, Note_on_c, 9, 36, 0
1, 165120, Note_on_c, 9, 42, 80
1, 165120, Note_on_c, 9, 36, 100
1, 165130, Note_on_c, 9, 42, 0
1, 165360, Note_on_c, 9, 42, 48
1, 165370, Note_on_c, 9, 42, 0
1, 165599, Note_on_c, 9, 36, 0
1, 165600, Note_on_c, 9, 38, 100
1, 165600, Note_on_c, 9, 57, 60
1, 165610, Note_on_c, 9, 57, 0
1, 165839, Note_on_c, 9, 38, 0
1, 165840, Note_on_c, 9, 42, 48
1, 165840, Note_on_c, 9, 36, 100
1, 165850, Note_on_c, 9, 42, 0
1, 166079, Note_on_c, 9, 36, 0
1, 166080, Note_on_c, 9, 42, 80
1, 166090, Note_on_c, 9, 42, 0
1, 166320, Note_on_c, 9, 38, 100
1, 166320, Note_on_c, 9, 42, 48
1, 166330, Note_on_c, 9, 42, 0
1, 166559, Note_on_c, 9, 38, 0
1, 166560, Note_on_c, 9, 38, 100
1, 166560, Note_on_c, 9, 42, 80
1, 166570, Note_on_c, 9, 42, 0
1, 166799, Note_on_c, 9, 38, 0
1, 166800, Note_on_c, 9, 38, 100
1, 166800, Note_on_c, 9, 42, 48
1, 166810, Note_on_c, 9, 42, 0
1, 167039, Note_on_c, 9, 38, 0
1, 167040, Note_on_c, 9, 49, 60
1, 167040, Note_on_c, 9, 36, 100
1, 167050, Note_on_c, 9, 49, 0
1, 167279, Note_on_c, 9, 36, 0
1, 167280, Note_on_c, 9, 42, 48
1, 167280, Note_on_c, 9, 36, 100
1, 167290, Note_on_c, 9, 42, 0
1, 167519, Note_on_c, 9, 36, 0
1, 167520, Note_on_c, 9, 38, 100
1, 167520, Note_on_c, 9, 57, 60
1, 167530, Note_on_c, 9, 57, 0
1, 167759, Note_on_c, 9, 38, 0
1, 167760, Note_on_c, 9, 42, 48
1, 167760, Note_on_c, 9, 36, 100
1, 167770, Note_on_c, 9, 42, 0
1, 167999, Note_on_c, 9, 36, 0
1, 168000, Note_on_c, 9, 42, 80
1, 168010, Note_on_c, 9, 42, 0
1, 168240, Note_on_c, 9, 42, 48
1, 168240, Note_on_c, 9, 36, 100
1, 168250, Note_on_c, 9, 42, 0
1, 168479, Note_on_c, 9, 36, 0
1, 168480, Note_on_c, 9, 38, 100
1, 168480, Note_on_c, 9, 57, 60
1, 168490, Note_on_c, 9, 57, 0
1, 168719, Note_on_c, 9, 38, 0
1, 168720, Note_on_c, 9, 42, 48
1, 168720, Note_on_c, 9, 36, 100
1, 168730, Note_on_c, 9, 42, 0
1, 168959, Note_on_c, 9, 36, 0
1, 168960, Note_on_c, 9, 42, 80
1, 168960, Note_on_c, 9, 36, 100
1, 168970, Note_on_c, 9, 42, 0
1, 169200, Note_on_c, 9, 42, 48
1, 169210, Note_on_c, 9, 42, 0
1, 169439, Note_on_c, 9, 36, 0
1, 169440, Note_on_c, 9, 38, 100
1, 169440, Note_on_c, 9, 49, 60
1, 169450, Note_on_c, 9, 49, 0
1, 169679, Note_on_c, 9, 38, 0
1, 169680, Note_on_c, 9, 42, 48
1, 169680, Note_on_c, 9, 36, 100
1, 169690, Note_on_c, 9, 42, 0
1, 169919, Note_on_c, 9, 36, 0
1, 169920, Note_on_c, 9, 42, 80
1, 169930, Note_on_c, 9, 42, 0
1, 170160, Note_on_c, 9, 42, 48
1, 170160, Note_on_c, 9, 36, 100
1, 170170, Note_on_c, 9, 42, 0
1, 170399, Note_on_c, 9, 36, 0
1, 170400, Note_on_c, 9, 38, 100
1, 170400, Note_on_c, 9, 57, 60
1, 170410, Note_on_c, 9, 57, 0
1, 170639, Note_on_c, 9, 38, 0
1, 170640, Note_on_c, 9, 38, 100
1, 170640, Note_on_c, 9, 42, 48
1, 170644, Note_on_c, 9, 42, 0
1, 170759, Note_on_c, 9, 38, 0
1, 170760, Note_on_c, 9, 38, 100
1, 170879, Note_on_c, 9, 38, 0
1, 170880, Note_on_c, 9, 49, 100
1, 170880, Note_on_c, 9, 36, 100
1, 170890, Note_on_c, 9, 49, 0
1, 171120, Note_on_c, 9, 42, 48
1, 171130, Note_on_c, 9, 42, 0
1, 171359, Note_on_c, 9, 36, 0
1, 171360, Note_on_c, 9, 38, 100
1, 171360, Note_on_c, 9, 42, 80
1, 171370, Note_on_c, 9, 42, 0
1, 171599, Note_on_c, 9, 38, 0
1, 171600, Note_on_c, 9, 57, 80
1, 171600, Note_on_c, 9, 36, 100
1, 171610, Note_on_c, 9, 57, 0
1, 171839, Note_on_c, 9, 36, 0
1, 171840, Note_on_c, 9, 42, 80
1, 171850, Note_on_c, 9, 42, 0
1, 172080, Note_on_c, 9, 42, 48
1, 172080, Note_on_c, 9, 36, 100
1, 172090, Note_on_c, 9, 42, 0
1, 172319, Note_on_c, 9, 36, 0
1, 172320, Note_on_c, 9, 38, 100
1, 172320, Note_on_c, 9, 42, 80
1, 172330, Note_on_c, 9, 42, 0
1, 172559, Note_on_c, 9, 38, 0
1, 172560, Note_on_c, 9, 49, 90
1, 172560, Note_on_c, 9, 36, 100
1, 172570, Note_on_c, 9, 49, 0
1, 172799, Note_on_c, 9, 36, 0
1, 172800, Note_on_c, 9, 42, 80
1, 172810, Note_on_c, 9, 42, 0
1, 173040, Note_on_c, 9, 42, 48
1, 173040, Note_on_c, 9, 36, 100
1, 173050, Note_on_c, 9, 42, 0
1, 173279, Note_on_c, 9, 36, 0
1, 173280, Note_on_c, 9, 38, 100
1, 173280, Note_on_c, 9, 42, 80
1, 173290, Note_on_c, 9, 42, 0
1, 173519, Note_on_c, 9, 38, 0
1, 173520, Note_on_c, 9, 57, 100
1, 173520, Note_on_c, 9, 36, 100
1, 173530, Note_on_c, 9, 57, 0
1, 173759, Note_on_c, 9, 36, 0
1, 173760, Note_on_c, 9, 38, 100
1, 173760, Note_on_c, 9, 42, 80
1, 173764, Note_on_c, 9, 42, 0
1, 173879, Note_on_c, 9, 38, 0
1, 173880, Note_on_c, 9, 45, 100
1, 174000, Note_on_c, 9, 43, 100
1, 174119, Note_on_c, 9, 45, 0
1, 174120, Note_on_c, 9, 45, 100
1, 174239, Note_on_c, 9, 43, 0
1, 174239, Note_on_c, 9, 45, 0
1, 174240, Note_on_c, 9, 38, 100
1, 174359, Note_on_c, 9, 38, 0
1, 174360, Note_on_c, 9, 38, 100
1, 174479, Note_on_c, 9, 38, 0
1, 174480, Note_on_c, 9, 38, 100
1, 174599, Note_on_c, 9, 38, 0
1, 174600, Note_on_c, 9, 38, 100
1, 174719, Note_on_c, 9, 38, 0
1, 174720, Note_on_c, 9, 56, 100
1, 174720, Note_on_c, 9, 36, 100
1, 175199, Note_on_c, 9, 56, 0
1, 175199, Note_on_c, 9, 36, 0
1, 175200, Note_on_c, 9, 38, 100
1, 175200, Note_on_c, 9, 56, 100
1, 175679, Note_on_c, 9, 38, 0
1, 175679, Note_on_c, 9, 56, 0
1, 175680, Note_on_c, 9, 56, 100
1, 175920, Note_on_c, 9, 36, 100
1, 176159, Note_on_c, 9, 56, 0
1, 176159, Note_on_c, 9, 36, 0
1, 176160, Note_on_c, 9, 38, 100
1, 176160, Note_on_c, 9, 56, 100
1, 176400, Note_on_c, 9, 36, 100
1, 176639, Note_on_c, 9, 38, 0
1, 176639, Note_on_c, 9, 56, 0
1, 176639, Note_on_c, 9, 36, 0
1, 176640, Note_on_c, 9, 56, 100
1, 176880, Note_on_c, 9, 36, 100
1, 177119, Note_on_c, 9, 56, 0
1, 177119, Note_on_c, 9, 36, 0
1, 177120, Note_on_c, 9, 38, 100
1, 177120, Note_on_c, 9, 56, 100
1, 177599, Note_on_c, 9, 38, 0
1, 177599, Note_on_c, 9, 56, 0
1, 177600, Note_on_c, 9, 56, 100
1, 177840, Note_on_c, 9, 36, 100
1, 178079, Note_on_c, 9, 56, 0
1, 178079, Note_on_c, 9, 36, 0
1, 178080, Note_on_c, 9, 38, 100
1, 178080, Note_on_c, 9, 56, 100
1, 178320, Note_on_c, 9, 36, 100
1, 178559, Note_on_c, 9, 38, 0
1, 178559, Note_on_c, 9, 56, 0
1, 178559, Note_on_c, 9, 36, 0
1, 178560, Note_on_c, 9, 56, 100
1, 178800, Note_on_c, 9, 36, 100
1, 179039, Note_on_c, 9, 56, 0
1, 179039, Note_on_c, 9, 36, 0
1, 179040, Note_on_c, 9, 38, 100
1, 179040, Note_on_c, 9, 56, 100
1, 179519, Note_on_c, 9, 38, 0
1, 179519, Note_on_c, 9, 56, 0
1, 179520, Note_on_c, 9, 56, 100
1, 179760, Note_on_c, 9, 36, 100
1, 179999, Note_on_c, 9, 56, 0
1, 179999, Note_on_c, 9, 36, 0
1, 180000, Note_on_c, 9, 38, 100
1, 180000, Note_on_c, 9, 56, 100
1, 180239, Note_on_c, 9, 38, 0
1, 180239, Note_on_c, 9, 56, 0
1, 180240, Note_on_c, 9, 57, 100
1, 180240, Note_on_c, 9, 36, 100
1, 180250, Note_on_c, 9, 57, 0
1, 180479, Note_on_c, 9, 36, 0
1, 180480, Note_on_c, 9, 56, 100
1, 180719, Note_on_c, 9, 56, 0
1, 180720, Note_on_c, 9, 49, 100
1, 180720, Note_on_c, 9, 36, 100
1, 180730, Note_on_c, 9, 49, 0
1, 180959, Note_on_c, 9, 36, 0
1, 180960, Note_on_c, 9, 38, 100
1, 180960, Note_on_c, 9, 56, 100
1, 181199, Note_on_c, 9, 38, 0
1, 181199, Note_on_c, 9, 56, 0
1, 181200, Note_on_c, 9, 57, 100
1, 181200, Note_on_c, 9, 36, 100
1, 181210, Note_on_c, 9, 57, 0
1, 181439, Note_on_c, 9, 36, 0
1, 181440, Note_on_c, 9, 56, 100
1, 181679, Note_on_c, 9, 56, 0
1, 181680, Note_on_c, 9, 49, 100
1, 181680, Note_on_c, 9, 36, 100
1, 181690, Note_on_c, 9, 49, 0
1, 181919, Note_on_c, 9, 36, 0
1, 181920, Note_on_c, 9, 38, 100
1, 181920, Note_on_c, 9, 56, 100
1, 182160, Note_on_c, 9, 36, 100
1, 182399, Note_on_c, 9, 38, 0
1, 182399, Note_on_c, 9, 56, 0
1, 182399, Note_on_c, 9, 36, 0
1, 182400, Note_on_c, 9, 56, 100
1, 182400, Note_on_c, 9, 36, 100
1, 182879, Note_on_c, 9, 56, 0
1, 182879, Note_on_c, 9, 36, 0
1, 182880, Note_on_c, 9, 38, 100
1, 182880, Note_on_c, 9, 56, 100
1, 183359, Note_on_c, 9, 38, 0
1, 183359, Note_on_c, 9, 56, 0
1, 183360, Note_on_c, 9, 56, 100
1, 183600, Note_on_c, 9, 36, 100
1, 183839, Note_on_c, 9, 56, 0
1, 183839, Note_on_c, 9, 36, 0
1, 183840, Note_on_c, 9, 38, 100
1, 183840, Note_on_c, 9, 56, 100
1, 184080, Note_on_c, 9, 36, 100
1, 184319, Note_on_c, 9, 38, 0
1, 184319, Note_on_c, 9, 56, 0
1, 184319, Note_on_c, 9, 36, 0
1, 184320, Note_on_c, 9, 56, 100
1, 184560, Note_on_c, 9, 36, 100
1, 184799, Note_on_c, 9, 56, 0
1, 184799, Note_on_c, 9, 36, 0
1, 184800, Note_on_c, 9, 38, 100
1, 184800, Note_on_c, 9, 56, 100
1, 185279, Note_on_c, 9, 38, 0
1, 185279, Note_on_c, 9, 56, 0
1, 185280, Note_on_c, 9, 56, 100
1, 185520, Note_on_c, 9, 36, 100
1, 185759, Note_on_c, 9, 56, 0
1, 185759, Note_on_c, 9, 36, 0
1, 185760, Note_on_c, 9, 38, 100
1, 185760, Note_on_c, 9, 56, 100
1, 186000, Note_on_c, 9, 36, 100
1, 186239, Note_on_c, 9, 38, 0
1, 186239, Note_on_c, 9, 56, 0
1, 186239, Note_on_c, 9, 36, 0
1, 186240, Note_on_c, 9, 56, 100
1, 186480, Note_on_c, 9, 36, 100
1, 186719, Note_on_c, 9, 56, 0
1, 186719, Note_on_c, 9, 36, 0
1, 186720, Note_on_c, 9, 38, 100
1, 186720, Note_on_c, 9, 56, 100
1, 187199, Note_on_c, 9, 38, 0
1, 187199, Note_on_c, 9, 56, 0
1, 187200, Note_on_c, 9, 56, 100
1, 187440, Note_on_c, 9, 36, 100
1, 187679, Note_on_c, 9, 56, 0
1, 187679, Note_on_c, 9, 36, 0
1, 187680, Note_on_c, 9, 38, 100
1, 187680, Note_on_c, 9, 56, 100
1, 187919, Note_on_c, 9, 38, 0
1, 187919, Note_on_c, 9, 56, 0
1, 187920, Note_on_c, 9, 57, 100
1, 187920, Note_on_c, 9, 36, 100
1, 187930, Note_on_c, 9, 57, 0
1, 188159, Note_on_c, 9, 36, 0
1, 188160, Note_on_c, 9, 56, 100
1, 188399, Note_on_c, 9, 56, 0
1, 188400, Note_on_c, 9, 49, 100
1, 188400, Note_on_c, 9, 36, 100
1, 188410, Note_on_c, 9, 49, 0
1, 188639, Note_on_c, 9, 36, 0
1, 188640, Note_on_c, 9, 38, 100
1, 188640, Note_on_c, 9, 56, 100
1, 188879, Note_on_c, 9, 38, 0
1, 188879, Note_on_c, 9, 56, 0
1, 188880, Note_on_c, 9, 57, 100
1, 188880, Note_on_c, 9, 36, 100
1, 188890, Note_on_c, 9, 57, 0
1, 189119, Note_on_c, 9, 36, 0
1, 189120, Note_on_c, 9, 38, 100
1, 189120, Note_on_c, 9, 56, 100
1, 189359, Note_on_c, 9, 38, 0
1, 189359, Note_on_c, 9, 56, 0
1, 189360, Note_on_c, 9, 49, 100
1, 189360, Note_on_c, 9, 36, 100
1, 189370, Note_on_c, 9, 49, 0
1, 189599, Note_on_c, 9, 36, 0
1, 189600, Note_on_c, 9, 38, 100
1, 189600, Note_on_c, 9, 56, 100
1, 189839, Note_on_c, 9, 38, 0
1, 189839, Note_on_c, 9, 56, 0
1, 189840, Note_on_c, 9, 51, 100
1, 189840, Note_on_c, 9, 36, 100
1, 189850, Note_on_c, 9, 51, 0
1, 190079, Note_on_c, 9, 36, 0
1, 190080, Note_on_c, 9, 51, 100
1, 190080, Note_on_c, 9, 36, 100
1, 190090, Note_on_c, 9, 51, 0
1, 190320, Note_on_c, 9, 51, 70
1, 190330, Note_on_c, 9, 51, 0
1, 190559, Note_on_c, 9, 36, 0
1, 190560, Note_on_c, 9, 38, 100
1, 190560, Note_on_c, 9, 51, 100
1, 190570, Note_on_c, 9, 51, 0
1, 190799, Note_on_c, 9, 38, 0
1, 190800, Note_on_c, 9, 51, 70
1, 190800, Note_on_c, 9, 36, 100
1, 190810, Note_on_c, 9, 51, 0
1, 191039, Note_on_c, 9, 36, 0
1, 191040, Note_on_c, 9, 51, 100
1, 191050, Note_on_c, 9, 51, 0
1, 191280, Note_on_c, 9, 51, 70
1, 191280, Note_on_c, 9, 36, 100
1, 191290, Note_on_c, 9, 51, 0
1, 191519, Note_on_c, 9, 36, 0
1, 191520, Note_on_c, 9, 38, 100
1, 191520, Note_on_c, 9, 51, 100
1, 191530, Note_on_c, 9, 51, 0
1, 191759, Note_on_c, 9, 38, 0
1, 191760, Note_on_c, 9, 51, 70
1, 191760, Note_on_c, 9, 36, 100
1, 191770, Note_on_c, 9, 51, 0
1, 191999, Note_on_c, 9, 36, 0
1, 192000, Note_on_c, 9, 51, 100
1, 192000, Note_on_c, 9, 36, 100
1, 192010, Note_on_c, 9, 51, 0
1, 192240, Note_on_c, 9, 51, 70
1, 192250, Note_on_c, 9, 51, 0
1, 192479, Note_on_c, 9, 36, 0
1, 192480, Note_on_c, 9, 38, 100
1, 192480, Note_on_c, 9, 51, 100
1, 192490, Note_on_c, 9, 51, 0
1, 192719, Note_on_c, 9, 38, 0
1, 192720, Note_on_c, 9, 51, 70
1, 192720, Note_on_c, 9, 36, 100
1, 192730, Note_on_c, 9, 51, 0
1, 192959, Note_on_c, 9, 36, 0
1, 192960, Note_on_c, 9, 51, 100
1, 192970, Note_on_c, 9, 51, 0
1, 193200, Note_on_c, 9, 51, 70
1, 193200, Note_on_c, 9, 36, 100
1, 193210, Note_on_c, 9, 51, 0
1, 193439, Note_on_c, 9, 36, 0
1, 193440, Note_on_c, 9, 38, 100
1, 193440, Note_on_c, 9, 51, 100
1, 193450, Note_on_c, 9, 51, 0
1, 193679, Note_on_c, 9, 38, 0
1, 193680, Note_on_c, 9, 51, 70
1, 193680, Note_on_c, 9, 36, 100
1, 193690, Note_on_c, 9, 51, 0
1, 193919, Note_on_c, 9, 36, 0
1, 193920, Note_on_c, 9, 51, 100
1, 193920, Note_on_c, 9, 36, 100
1, 193930, Note_on_c, 9, 51, 0
1, 194160, Note_on_c, 9, 51, 70
1, 194170, Note_on_c, 9, 51, 0
1, 194399, Note_on_c, 9, 36, 0
1, 194400, Note_on_c, 9, 38, 100
1, 194400, Note_on_c, 9, 51, 100
1, 194410, Note_on_c, 9, 51, 0
1, 194639, Note_on_c, 9, 38, 0
1, 194640, Note_on_c, 9, 51, 70
1, 194640, Note_on_c, 9, 36, 100
1, 194650, Note_on_c, 9, 51, 0
1, 194879, Note_on_c, 9, 36, 0
1, 194880, Note_on_c, 9, 51, 100
1, 194890, Note_on_c, 9, 51, 0
1, 195120, Note_on_c, 9, 51, 70
1, 195120, Note_on_c, 9, 36, 100
1, 195130, Note_on_c, 9, 51, 0
1, 195359, Note_on_c, 9, 36, 0
1, 195360, Note_on_c, 9, 38, 100
1, 195360, Note_on_c, 9, 51, 100
1, 195370, Note_on_c, 9, 51, 0
1, 195599, Note_on_c, 9, 38, 0
1, 195600, Note_on_c, 9, 51, 70
1, 195600, Note_on_c, 9, 36, 100
1, 195610, Note_on_c, 9, 51, 0
1, 195839, Note_on_c, 9, 36, 0
1, 195840, Note_on_c, 9, 51, 100
1, 195840, Note_on_c, 9, 36, 100
1, 195850, Note_on_c, 9, 51, 0
1, 196080, Note_on_c, 9, 51, 70
1, 196090, Note_on_c, 9, 51, 0
1, 196319, Note_on_c, 9, 36, 0
1, 196320, Note_on_c, 9, 38, 100
1, 196320, Note_on_c, 9, 51, 100
1, 196330, Note_on_c, 9, 51, 0
1, 196559, Note_on_c, 9, 38, 0
1, 196560, Note_on_c, 9, 51, 70
1, 196560, Note_on_c, 9, 36, 100
1, 196570, Note_on_c, 9, 51, 0
1, 196799, Note_on_c, 9, 36, 0
1, 196800, Note_on_c, 9, 51, 100
1, 196810, Note_on_c, 9, 51, 0
1, 197040, Note_on_c, 9, 51, 70
1, 197040, Note_on_c, 9, 36, 100
1, 197050, Note_on_c, 9, 51, 0
1, 197279, Note_on_c, 9, 36, 0
1, 197280, Note_on_c, 9, 38, 100
1, 197280, Note_on_c, 9, 51, 100
1, 197290, Note_on_c, 9, 51, 0
1, 197519, Note_on_c, 9, 38, 0
1, 197520, Note_on_c, 9, 51, 70
1, 197520, Note_on_c, 9, 36, 100
1, 197530, Note_on_c, 9, 51, 0
1, 197759, Note_on_c, 9, 36, 0
1, 197760, Note_on_c, 9, 51, 100
1, 197760, Note_on_c, 9, 36, 100
1, 197770, Note_on_c, 9, 51, 0
1, 198000, Note_on_c, 9, 51, 70
1, 198010, Note_on_c, 9, 51, 0
1, 198239, Note_on_c, 9, 36, 0
1, 198240, Note_on_c, 9, 38, 100
1, 198240, Note_on_c, 9, 51, 100
1, 198250, Note_on_c, 9, 51, 0
1, 198479, Note_on_c, 9, 38, 0
1, 198480, Note_on_c, 9, 51, 70
1, 198480, Note_on_c, 9, 36, 100
1, 198490, Note_on_c, 9, 51, 0
1, 198719, Note_on_c, 9, 36, 0
1, 198720, Note_on_c, 9, 51, 100
1, 198730, Note_on_c, 9, 51, 0
1, 198960, Note_on_c, 9, 51, 70
1, 198960, Note_on_c, 9, 36, 100
1, 198970, Note_on_c, 9, 51, 0
1, 199199, Note_on_c, 9, 36, 0
1, 199200, Note_on_c, 9, 38, 100
1, 199200, Note_on_c, 9, 51, 100
1, 199210, Note_on_c, 9, 51, 0
1, 199439, Note_on_c, 9, 38, 0
1, 199440, Note_on_c, 9, 51, 70
1, 199440, Note_on_c, 9, 36, 100
1, 199450, Note_on_c, 9, 51, 0
1, 199679, Note_on_c, 9, 36, 0
1, 199680, Note_on_c, 9, 51, 100
1, 199680, Note_on_c, 9, 36, 100
1, 199690, Note_on_c, 9, 51, 0
1, 199920, Note_on_c, 9, 51, 70
1, 199930, Note_on_c, 9, 51, 0
1, 200159, Note_on_c, 9, 36, 0
1, 200160, Note_on_c, 9, 38, 100
1, 200160, Note_on_c, 9, 51, 100
1, 200170, Note_on_c, 9, 51, 0
1, 200399, Note_on_c, 9, 38, 0
1, 200400, Note_on_c, 9, 51, 70
1, 200400, Note_on_c, 9, 36, 100
1, 200410, Note_on_c, 9, 51, 0
1, 200639, Note_on_c, 9, 36, 0
1, 200640, Note_on_c, 9, 51, 100
1, 200650, Note_on_c, 9, 51, 0
1, 200880, Note_on_c, 9, 51, 70
1, 200880, Note_on_c, 9, 36, 100
1, 200890, Note_on_c, 9, 51, 0
1, 201119, Note_on_c, 9, 36, 0
1, 201120, Note_on_c, 9, 38, 100
1, 201120, Note_on_c, 9, 51, 100
1, 201130, Note_on_c, 9, 51, 0
1, 201359, Note_on_c, 9, 38, 0
1, 201360, Note_on_c, 9, 51, 70
1, 201360, Note_on_c, 9, 36, 100
1, 201370, Note_on_c, 9, 51, 0
1, 201599, Note_on_c, 9, 36, 0
1, 201600, Note_on_c, 9, 38, 100
1, 201600, Note_on_c, 9, 49, 50
1, 201622, Note_on_c, 9, 49, 0
1, 201840, Note_on_c, 9, 36, 100
1, 202079, Note_on_c, 9, 38, 0
1, 202079, Note_on_c, 9, 36, 0
1, 202080, Note_on_c, 9, 36, 100
1, 202320, Note_on_c, 9, 38, 100
1, 202320, Note_on_c, 9, 57, 60
1, 202330, Note_on_c, 9, 57, 0
1, 202559, Note_on_c, 9, 36, 0
1, 202559, Note_on_c, 9, 38, 0
1, 202560, Note_on_c, 9, 36, 100
1, 202799, Note_on_c, 9, 36, 0
1, 202800, Note_on_c, 9, 36, 100
1, 203039, Note_on_c, 9, 36, 0
1, 203040, Note_on_c, 9, 38, 100
1, 203040, Note_on_c, 9, 49, 70
1, 203062, Note_on_c, 9, 49, 0
1, 203519, Note_on_c, 9, 38, 0
1, 205440, Note_on_c, 9, 49, 80
1, 205440, Note_on_c, 9, 36, 100
1, 205450, Note_on_c, 9, 49, 0
1, 205680, Note_on_c, 9, 38, 100
1, 205919, Note_on_c, 9, 36, 0
1, 205919, Note_on_c, 9, 38, 0
1, 205920, Note_on_c, 9, 36, 100
1, 206159, Note_on_c, 9, 36, 0
1, 206160, Note_on_c, 9, 36, 100
1, 206399, Note_on_c, 9, 36, 0
1, 206400, Note_on_c, 9, 38, 100
1, 206640, Note_on_c, 9, 36, 100
1, 206879, Note_on_c, 9, 38, 0
1, 206879, Note_on_c, 9, 36, 0
1, 206880, Note_on_c, 9, 45, 100
1, 206999, Note_on_c, 9, 45, 0
1, 207000, Note_on_c, 9, 41, 100
1, 207120, Note_on_c, 9, 43, 100
1, 207359, Note_on_c, 9, 41, 0
1, 207359, Note_on_c, 9, 43, 0
1, 207600, Note_on_c, 9, 38, 100
1, 207839, Note_on_c, 9, 38, 0
1, 207840, Note_on_c, 9, 36, 100
1, 208080, Note_on_c, 9, 38, 100
1, 208319, Note_on_c, 9, 36, 0
1, 208319, Note_on_c, 9, 38, 0
1, 208320, Note_on_c, 9, 38, 100
1, 208320, Note_on_c, 9, 57, 80
1, 208342, Note_on_c, 9, 57, 0
1, 208560, Note_on_c, 9, 36, 100
1, 208799, Note_on_c, 9, 38, 0
1, 208799, Note_on_c, 9, 36, 0
1, 208800, Note_on_c, 9, 36, 100
1, 209039, Note_on_c, 9, 36, 0
1, 209040, Note_on_c, 9, 36, 100
1, 209279, Note_on_c, 9, 36, 0
1, 209280, Note_on_c, 9, 51, 100
1, 209280, Note_on_c, 9, 36, 100
1, 209290, Note_on_c, 9, 51, 0
1, 209520, Note_on_c, 9, 51, 70
1, 209530, Note_on_c, 9, 51, 0
1, 209759, Note_on_c, 9, 36, 0
1, 209760, Note_on_c, 9, 38, 100
1, 209760, Note_on_c, 9, 51, 100
1, 209770, Note_on_c, 9, 51, 0
1, 209999, Note_on_c, 9, 38, 0
1, 210000, Note_on_c, 9, 51, 70
1, 210000, Note_on_c, 9, 36, 100
1, 210010, Note_on_c, 9, 51, 0
1, 210239, Note_on_c, 9, 36, 0
1, 210240, Note_on_c, 9, 51, 100
1, 210250, Note_on_c, 9, 51, 0
1, 210480, Note_on_c, 9, 51, 70
1, 210480, Note_on_c, 9, 36, 100
1, 210490, Note_on_c, 9, 51, 0
1, 210719, Note_on_c, 9, 36, 0
1, 210720, Note_on_c, 9, 38, 100
1, 210720, Note_on_c, 9, 51, 100
1, 210730, Note_on_c, 9, 51, 0
1, 210959, Note_on_c, 9, 38, 0
1, 210960, Note_on_c, 9, 51, 70
1, 210960, Note_on_c, 9, 36, 100
1, 210970, Note_on_c, 9, 51, 0
1, 211199, Note_on_c, 9, 36, 0
1, 211200, Note_on_c, 9, 51, 100
1, 211200, Note_on_c, 9, 36, 100
1, 211210, Note_on_c, 9, 51, 0
1, 211440, Note_on_c, 9, 51, 70
1, 211450, Note_on_c, 9, 51, 0
1, 211679, Note_on_c, 9, 36, 0
1, 211680, Note_on_c, 9, 38, 100
1, 211680, Note_on_c, 9, 51, 100
1, 211690, Note_on_c, 9, 51, 0
1, 211919, Note_on_c, 9, 38, 0
1, 211920, Note_on_c, 9, 51, 70
1, 211920, Note_on_c, 9, 36, 100
1, 211930, Note_on_c, 9, 51, 0
1, 212159, Note_on_c, 9, 36, 0
1, 212160, Note_on_c, 9, 51, 100
1, 212170, Note_on_c, 9, 51, 0
1, 212400, Note_on_c, 9, 51, 70
1, 212400, Note_on_c, 9, 36, 100
1, 212410, Note_on_c, 9, 51, 0
1, 212639, Note_on_c, 9, 36, 0
1, 212640, Note_on_c, 9, 38, 100
1, 212640, Note_on_c, 9, 51, 100
1, 212650, Note_on_c, 9, 51, 0
1, 212879, Note_on_c, 9, 38, 0
1, 212880, Note_on_c, 9, 51, 70
1, 212880, Note_on_c, 9, 36, 100
1, 212890, Note_on_c, 9, 51, 0
1, 213119, Note_on_c, 9, 36, 0
1, 213120, Note_on_c, 9, 51, 100
1, 213120, Note_on_c, 9, 36, 100
1, 213130, Note_on_c, 9, 51, 0
1, 213360, Note_on_c, 9, 51, 70
1, 213370, Note_on_c, 9, 51, 0
1, 213599, Note_on_c, 9, 36, 0
1, 213600, Note_on_c, 9, 38, 100
1, 213600, Note_on_c, 9, 51, 100
1, 213610, Note_on_c, 9, 51, 0
1, 213839, Note_on_c, 9, 38, 0
1, 213840, Note_on_c, 9, 51, 70
1, 213840, Note_on_c, 9, 36, 100
1, 213850, Note_on_c, 9, 51, 0
1, 214079, Note_on_c, 9, 36, 0
1, 214080, Note_on_c, 9, 51, 100
1, 214090, Note_on_c, 9, 51, 0
1, 214320, Note_on_c, 9, 51, 70
1, 214320, Note_on_c, 9, 36, 100
1, 214330, Note_on_c, 9, 51, 0
1, 214559, Note_on_c, 9, 36, 0
1, 214560, Note_on_c, 9, 38, 100
1, 214560, Note_on_c, 9, 51, 100
1, 214570, Note_on_c, 9, 51, 0
1, 214799, Note_on_c, 9, 38, 0
1, 214800, Note_on_c, 9, 51, 70
1, 214800, Note_on_c, 9, 36, 100
1, 214810, Note_on_c, 9, 51, 0
1, 215039, Note_on_c, 9, 36, 0
1, 215040, Note_on_c, 9, 51, 100
1, 215040, Note_on_c, 9, 36, 100
1, 215050, Note_on_c, 9, 51, 0
1, 215280, Note_on_c, 9, 51, 70
1, 215290, Note_on_c, 9, 51, 0
1, 215519, Note_on_c, 9, 36, 0
1, 215520, Note_on_c, 9, 38, 100
1, 215520, Note_on_c, 9, 51, 100
1, 215530, Note_on_c, 9, 51, 0
1, 215759, Note_on_c, 9, 38, 0
1, 215760, Note_on_c, 9, 51, 70
1, 215760, Note_on_c, 9, 36, 100
1, 215770, Note_on_c, 9, 51, 0
1, 215999, Note_on_c, 9, 36, 0
1, 216000, Note_on_c, 9, 51, 100
1, 216010, Note_on_c, 9, 51, 0
1, 216240, Note_on_c, 9, 51, 70
1, 216240, Note_on_c, 9, 36, 100
1, 216250, Note_on_c, 9, 51, 0
1, 216479, Note_on_c, 9, 36, 0
1, 216480, Note_on_c, 9, 38, 100
1, 216480, Note_on_c, 9, 51, 100
1, 216490, Note_on_c, 9, 51, 0
1, 216719, Note_on_c, 9, 38, 0
1, 216720, Note_on_c, 9, 51, 70
1, 216720, Note_on_c, 9, 36, 100
1, 216730, Note_on_c, 9, 51, 0
1, 216959, Note_on_c, 9, 36, 0
1, 216960, Note_on_c, 9, 51, 100
1, 216960, Note_on_c, 9, 36, 100
1, 216970, Note_on_c, 9, 51, 0
1, 217200, Note_on_c, 9, 51, 70
1, 217210, Note_on_c, 9, 51, 0
1, 217439, Note_on_c, 9, 36, 0
1, 217440, Note_on_c, 9, 38, 100
1, 217440, Note_on_c, 9, 51, 100
1, 217450, Note_on_c, 9, 51, 0
1, 217679, Note_on_c, 9, 38, 0
1, 217680, Note_on_c, 9, 51, 70
1, 217680, Note_on_c, 9, 36, 100
1, 217690, Note_on_c, 9, 51, 0
1, 217919, Note_on_c, 9, 36, 0
1, 217920, Note_on_c, 9, 51, 100
1, 217930, Note_on_c, 9, 51, 0
1, 218160, Note_on_c, 9, 51, 70
1, 218160, Note_on_c, 9, 36, 100
1, 218170, Note_on_c, 9, 51, 0
1, 218399, Note_on_c, 9, 36, 0
1, 218400, Note_on_c, 9, 38, 100
1, 218400, Note_on_c, 9, 51, 100
1, 218410, Note_on_c, 9, 51, 0
1, 218639, Note_on_c, 9, 38, 0
1, 218640, Note_on_c, 9, 51, 70
1, 218640, Note_on_c, 9, 36, 100
1, 218650, Note_on_c, 9, 51, 0
1, 218879, Note_on_c, 9, 36, 0
1, 218880, Note_on_c, 9, 51, 100
1, 218880, Note_on_c, 9, 36, 100
1, 218890, Note_on_c, 9, 51, 0
1, 219120, Note_on_c, 9, 51, 70
1, 219130, Note_on_c, 9, 51, 0
1, 219359, Note_on_c, 9, 36, 0
1, 219360, Note_on_c, 9, 38, 100
1, 219360, Note_on_c, 9, 51, 100
1, 219370, Note_on_c, 9, 51, 0
1, 219599, Note_on_c, 9, 38, 0
1, 219600, Note_on_c, 9, 51, 70
1, 219600, Note_on_c, 9, 36, 100
1, 219610, Note_on_c, 9, 51, 0
1, 219839, Note_on_c, 9, 36, 0
1, 219840, Note_on_c, 9, 51, 100
1, 219850, Note_on_c, 9, 51, 0
1, 220080, Note_on_c, 9, 51, 70
1, 220080, Note_on_c, 9, 36, 100
1, 220090, Note_on_c, 9, 51, 0
1, 220319, Note_on_c, 9, 36, 0
1, 220320, Note_on_c, 9, 38, 100
1, 220320, Note_on_c, 9, 51, 100
1, 220330, Note_on_c, 9, 51, 0
1, 220559, Note_on_c, 9, 38, 0
1, 220560, Note_on_c, 9, 51, 70
1, 220560, Note_on_c, 9, 36, 100
1, 220570, Note_on_c, 9, 51, 0
1, 220799, Note_on_c, 9, 36, 0
1, 220800, Note_on_c, 9, 51, 100
1, 220800, Note_on_c, 9, 36, 100
1, 220810, Note_on_c, 9, 51, 0
1, 221040, Note_on_c, 9, 51, 70
1, 221050, Note_on_c, 9, 51, 0
1, 221279, Note_on_c, 9, 36, 0
1, 221280, Note_on_c, 9, 38, 100
1, 221280, Note_on_c, 9, 51, 100
1, 221290, Note_on_c, 9, 51, 0
1, 221519, Note_on_c, 9, 38, 0
1, 221520, Note_on_c, 9, 51, 70
1, 221520, Note_on_c, 9, 36, 100
1, 221530, Note_on_c, 9, 51, 0
1, 221759, Note_on_c, 9, 36, 0
1, 221760, Note_on_c, 9, 51, 100
1, 221770, Note_on_c, 9, 51, 0
1, 222000, Note_on_c, 9, 51, 70
1, 222000, Note_on_c, 9, 36, 100
1, 222010, Note_on_c, 9, 51, 0
1, 222239, Note_on_c, 9, 36, 0
1, 222240, Note_on_c, 9, 38, 100
1, 222240, Note_on_c, 9, 51, 100
1, 222250, Note_on_c, 9, 51, 0
1, 222479, Note_on_c, 9, 38, 0
1, 222480, Note_on_c, 9, 51, 70
1, 222480, Note_on_c, 9, 36, 100
1, 222490, Note_on_c, 9, 51, 0
1, 222719, Note_on_c, 9, 36, 0
1, 222720, Note_on_c, 9, 51, 100
1, 222720, Note_on_c, 9, 36, 100
1, 222730, Note_on_c, 9, 51, 0
1, 222960, Note_on_c, 9, 51, 70
1, 222970, Note_on_c, 9, 51, 0
1, 223199, Note_on_c, 9, 36, 0
1, 223200, Note_on_c, 9, 38, 100
1, 223200, Note_on_c, 9, 51, 100
1, 223210, Note_on_c, 9, 51, 0
1, 223439, Note_on_c, 9, 38, 0
1, 223440, Note_on_c, 9, 51, 70
1, 223440, Note_on_c, 9, 36, 100
1, 223450, Note_on_c, 9, 51, 0
1, 223679, Note_on_c, 9, 36, 0
1, 223680, Note_on_c, 9, 51, 100
1, 223690, Note_on_c, 9, 51, 0
1, 223920, Note_on_c, 9, 51, 70
1, 223920, Note_on_c, 9, 36, 100
1, 223930, Note_on_c, 9, 51, 0
1, 224159, Note_on_c, 9, 36, 0
1, 224160, Note_on_c, 9, 38, 100
1, 224160, Note_on_c, 9, 51, 100
1, 224170, Note_on_c, 9, 51, 0
1, 224399, Note_on_c, 9, 38, 0
1, 224400, Note_on_c, 9, 51, 70
1, 224400, Note_on_c, 9, 36, 100
1, 224410, Note_on_c, 9, 51, 0
1, 224639, Note_on_c, 9, 36, 0
1, 224640, Note_on_c, 9, 51, 100
1, 224640, Note_on_c, 9, 36, 100
1, 224650, Note_on_c, 9, 51, 0
1, 224880, Note_on_c, 9, 51, 70
1, 224890, Note_on_c, 9, 51, 0
1, 225119, Note_on_c, 9, 36, 0
1, 225120, Note_on_c, 9, 38, 100
1, 225120, Note_on_c, 9, 51, 100
1, 225130, Note_on_c, 9, 51, 0
1, 225359, Note_on_c, 9, 38, 0
1, 225360, Note_on_c, 9, 51, 70
1, 225360, Note_on_c, 9, 36, 100
1, 225370, Note_on_c, 9, 51, 0
1, 225599, Note_on_c, 9, 36, 0
1, 225600, Note_on_c, 9, 51, 100
1, 225610, Note_on_c, 9, 51, 0
1, 225840, Note_on_c, 9, 51, 70
1, 225840, Note_on_c, 9, 36, 100
1, 225850, Note_on_c, 9, 51, 0
1, 226079, Note_on_c, 9, 36, 0
1, 226080, Note_on_c, 9, 38, 100
1, 226080, Note_on_c, 9, 51, 100
1, 226090, Note_on_c, 9, 51, 0
1, 226319, Note_on_c, 9, 38, 0
1, 226320, Note_on_c, 9, 51, 70
1, 226320, Note_on_c, 9, 36, 100
1, 226330, Note_on_c, 9, 51, 0
1, 226559, Note_on_c, 9, 36, 0
1, 226560, Note_on_c, 9, 51, 100
1, 226560, Note_on_c, 9, 36, 100
1, 226570, Note_on_c, 9, 51, 0
1, 226800, Note_on_c, 9, 51, 70
1, 226810, Note_on_c, 9, 51, 0
1, 227039, Note_on_c, 9, 36, 0
1, 227040, Note_on_c, 9, 38, 100
1, 227040, Note_on_c, 9, 51, 100
1, 227050, Note_on_c, 9, 51, 0
1, 227279, Note_on_c, 9, 38, 0
1, 227280, Note_on_c, 9, 51, 70
1, 227280, Note_on_c, 9, 36, 100
1, 227290, Note_on_c, 9, 51, 0
1, 227519, Note_on_c, 9, 36, 0
1, 227520, Note_on_c, 9, 51, 100
1, 227530, Note_on_c, 9, 51, 0
1, 227760, Note_on_c, 9, 51, 70
1, 227760, Note_on_c, 9, 36, 100
1, 227770, Note_on_c, 9, 51, 0
1, 227999, Note_on_c, 9, 36, 0
1, 228000, Note_on_c, 9, 38, 100
1, 228000, Note_on_c, 9, 51, 100
1, 228010, Note_on_c, 9, 51, 0
1, 228239, Note_on_c, 9, 38, 0
1, 228240, Note_on_c, 9, 51, 70
1, 228240, Note_on_c, 9, 36, 100
1, 228250, Note_on_c, 9, 51, 0
1, 228479, Note_on_c, 9, 36, 0
1, 228480, Note_on_c, 9, 51, 100
1, 228480, Note_on_c, 9, 36, 100
1, 228490, Note_on_c, 9, 51, 0
1, 228720, Note_on_c, 9, 51, 70
1, 228730, Note_on_c, 9, 51, 0
1, 228959, Note_on_c, 9, 36, 0
1, 228960, Note_on_c, 9, 38, 100
1, 228960, Note_on_c, 9, 51, 100
1, 228970, Note_on_c, 9, 51, 0
1, 229199, Note_on_c, 9, 38, 0
1, 229200, Note_on_c, 9, 51, 70
1, 229200, Note_on_c, 9, 36, 100
1, 229210, Note_on_c, 9, 51, 0
1, 229439, Note_on_c, 9, 36, 0
1, 229440, Note_on_c, 9, 51, 100
1, 229450, Note_on_c, 9, 51, 0
1, 229680, Note_on_c, 9, 51, 70
1, 229680, Note_on_c, 9, 36, 100
1, 229690, Note_on_c, 9, 51, 0
1, 229919, Note_on_c, 9, 36, 0
1, 229920, Note_on_c, 9, 38, 100
1, 229920, Note_on_c, 9, 51, 100
1, 229930, Note_on_c, 9, 51, 0
1, 230159, Note_on_c, 9, 38, 0
1, 230160, Note_on_c, 9, 51, 70
1, 230160, Note_on_c, 9, 36, 100
1, 230170, Note_on_c, 9, 51, 0
1, 230399, Note_on_c, 9, 36, 0
1, 230400, Note_on_c, 9, 51, 100
1, 230400, Note_on_c, 9, 36, 100
1, 230410, Note_on_c, 9, 51, 0
1, 230640, Note_on_c, 9, 51, 70
1, 230650, Note_on_c, 9, 51, 0
1, 230879, Note_on_c, 9, 36, 0
1, 230880, Note_on_c, 9, 38, 100
1, 230880, Note_on_c, 9, 51, 100
1, 230890, Note_on_c, 9, 51, 0
1, 231119, Note_on_c, 9, 38, 0
1, 231120, Note_on_c, 9, 51, 70
1, 231120, Note_on_c, 9, 36, 100
1, 231130, Note_on_c, 9, 51, 0
1, 231359, Note_on_c, 9, 36, 0
1, 231360, Note_on_c, 9, 51, 100
1, 231370, Note_on_c, 9, 51, 0
1, 231600, Note_on_c, 9, 51, 70
1, 231600, Note_on_c, 9, 36, 100
1, 231610, Note_on_c, 9, 51, 0
1, 231839, Note_on_c, 9, 36, 0
1, 231840, Note_on_c, 9, 38, 100
1, 231840, Note_on_c, 9, 51, 100
1, 231850, Note_on_c, 9, 51, 0
1, 232079, Note_on_c, 9, 38, 0
1, 232080, Note_on_c, 9, 51, 70
1, 232080, Note_on_c, 9, 36, 100
1, 232090, Note_on_c, 9, 51, 0
1, 232319, Note_on_c, 9, 36, 0
1, 232320, Note_on_c, 9, 51, 100
1, 232320, Note_on_c, 9, 36, 100
1, 232330, Note_on_c, 9, 51, 0
1, 232560, Note_on_c, 9, 51, 70
1, 232570, Note_on_c, 9, 51, 0
1, 232799, Note_on_c, 9, 36, 0
1, 232800, Note_on_c, 9, 38, 100
1, 232800, Note_on_c, 9, 51, 100
1, 232810, Note_on_c, 9, 51, 0
1, 233039, Note_on_c, 9, 38, 0
1, 233040, Note_on_c, 9, 51, 70
1, 233040, Note_on_c, 9, 36, 100
1, 233050, Note_on_c, 9, 51, 0
1, 233279, Note_on_c, 9, 36, 0
1, 233280, Note_on_c, 9, 51, 100
1, 233290, Note_on_c, 9, 51, 0
1, 233520, Note_on_c, 9, 51, 70
1, 233520, Note_on_c, 9, 36, 100
1, 233530, Note_on_c, 9, 51, 0
1, 233759, Note_on_c, 9, 36, 0
1, 233760, Note_on_c, 9, 38, 100
1, 233760, Note_on_c, 9, 51, 100
1, 233770, Note_on_c, 9, 51, 0
1, 233999, Note_on_c, 9, 38, 0
1, 234000, Note_on_c, 9, 51, 70
1, 234000, Note_on_c, 9, 36, 100
1, 234010, Note_on_c, 9, 51, 0
1, 234239, Note_on_c, 9, 36, 0
1, 234240, Note_on_c, 9, 51, 100
1, 234240, Note_on_c, 9, 36, 100
1, 234250, Note_on_c, 9, 51, 0
1, 234480, Note_on_c, 9, 51, 70
1, 234490, Note_on_c, 9, 51, 0
1, 234719, Note_on_c, 9, 36, 0
1, 234720, Note_on_c, 9, 38, 100
1, 234720, Note_on_c, 9, 51, 100
1, 234730, Note_on_c, 9, 51, 0
1, 234959, Note_on_c, 9, 38, 0
1, 234960, Note_on_c, 9, 51, 70
1, 234960, Note_on_c, 9, 36, 100
1, 234970, Note_on_c, 9, 51, 0
1, 235199, Note_on_c, 9, 36, 0
1, 235200, Note_on_c, 9, 51, 100
1, 235210, Note_on_c, 9, 51, 0
1, 235440, Note_on_c, 9, 51, 70
1, 235440, Note_on_c, 9, 36, 100
1, 235450, Note_on_c, 9, 51, 0
1, 235679, Note_on_c, 9, 36, 0
1, 235680, Note_on_c, 9, 38, 100
1, 235680, Note_on_c, 9, 51, 100
1, 235690, Note_on_c, 9, 51, 0
1, 235919, Note_on_c, 9, 38, 0
1, 235920, Note_on_c, 9, 51, 70
1, 235920, Note_on_c, 9, 36, 100
1, 235930, Note_on_c, 9, 51, 0
1, 236159, Note_on_c, 9, 36, 0
1, 236160, Note_on_c, 9, 51, 100
1, 236160, Note_on_c, 9, 36, 100
1, 236170, Note_on_c, 9, 51, 0
1, 236400, Note_on_c, 9, 51, 70
1, 236410, Note_on_c, 9, 51, 0
1, 236639, Note_on_c, 9, 36, 0
1, 236640, Note_on_c, 9, 38, 100
1, 236640, Note_on_c, 9, 51, 100
1, 236650, Note_on_c, 9, 51, 0
1, 236879, Note_on_c, 9, 38, 0
1, 236880, Note_on_c, 9, 51, 70
1, 236880, Note_on_c, 9, 36, 100
1, 236890, Note_on_c, 9, 51, 0
1, 237119, Note_on_c, 9, 36, 0
1, 237120, Note_on_c, 9, 51, 100
1, 237130, Note_on_c, 9, 51, 0
1, 237360, Note_on_c, 9, 51, 70
1, 237360, Note_on_c, 9, 36, 100
1, 237370, Note_on_c, 9, 51, 0
1, 237599, Note_on_c, 9, 36, 0
1, 237600, Note_on_c, 9, 38, 100
1, 237600, Note_on_c, 9, 51, 100
1, 237610, Note_on_c, 9, 51, 0
1, 237839, Note_on_c, 9, 38, 0
1, 237840, Note_on_c, 9, 51, 70
1, 237840, Note_on_c, 9, 36, 100
1, 237850, Note_on_c, 9, 51, 0
1, 238079, Note_on_c, 9, 36, 0
1, 238080, Note_on_c, 9, 51, 100
1, 238080, Note_on_c, 9, 36, 100
1, 238090, Note_on_c, 9, 51, 0
1, 238320, Note_on_c, 9, 51, 70
1, 238330, Note_on_c, 9, 51, 0
1, 238559, Note_on_c, 9, 36, 0
1, 238560, Note_on_c, 9, 38, 100
1, 238560, Note_on_c, 9, 51, 100
1, 238570, Note_on_c, 9, 51, 0
1, 238799, Note_on_c, 9, 38, 0
1, 238800, Note_on_c, 9, 51, 70
1, 238800, Note_on_c, 9, 36, 100
1, 238810, Note_on_c, 9, 51, 0
1, 239039, Note_on_c, 9, 36, 0
1, 239040, Note_on_c, 9, 51, 100
1, 239050, Note_on_c, 9, 51, 0
1, 239280, Note_on_c, 9, 51, 70
1, 239280, Note_on_c, 9, 36, 100
1, 239290, Note_on_c, 9, 51, 0
1, 239519, Note_on_c, 9, 36, 0
1, 239520, Note_on_c, 9, 38, 100
1, 239520, Note_on_c, 9, 51, 100
1, 239530, Note_on_c, 9, 51, 0
1, 239759, Note_on_c, 9, 38, 0
1, 239760, Note_on_c, 9, 51, 70
1, 239760, Note_on_c, 9, 36, 100
1, 239770, Note_on_c, 9, 51, 0
1, 239999, Note_on_c, 9, 36, 0
1, 240000, Note_on_c, 9, 51, 100
1, 240000, Note_on_c, 9, 36, 100
1, 240010, Note_on_c, 9, 51, 0
1, 240240, Note_on_c, 9, 51, 70
1, 240250, Note_on_c, 9, 51, 0
1, 240479, Note_on_c, 9, 36, 0
1, 240480, Note_on_c, 9, 38, 100
1, 240480, Note_on_c, 9, 51, 100
1, 240490, Note_on_c, 9, 51, 0
1, 240719, Note_on_c, 9, 38, 0
1, 240720, Note_on_c, 9, 51, 70
1, 240720, Note_on_c, 9, 36, 100
1, 240730, Note_on_c, 9, 51, 0
1, 240959, Note_on_c, 9, 36, 0
1, 240960, Note_on_c, 9, 51, 100
1, 240970, Note_on_c, 9, 51, 0
1, 241200, Note_on_c, 9, 51, 70
1, 241200, Note_on_c, 9, 36, 100
1, 241210, Note_on_c, 9, 51, 0
1, 241439, Note_on_c, 9, 36, 0
1, 241440, Note_on_c, 9, 38, 100
1, 241440, Note_on_c, 9, 51, 100
1, 241450, Note_on_c, 9, 51, 0
1, 241679, Note_on_c, 9, 38, 0
1, 241680, Note_on_c, 9, 51, 70
1, 241680, Note_on_c, 9, 36, 100
1, 241690, Note_on_c, 9, 51, 0
1, 241919, Note_on_c, 9, 36, 0
1, 241920, Note_on_c, 9, 51, 100
1, 241920, Note_on_c, 9, 36, 100
1, 241930, Note_on_c, 9, 51, 0
1, 242160, Note_on_c, 9, 51, 70
1, 242170, Note_on_c, 9, 51, 0
1, 242399, Note_on_c, 9, 36, 0
1, 242400, Note_on_c, 9, 38, 100
1, 242400, Note_on_c, 9, 51, 100
1, 242410, Note_on_c, 9, 51, 0
1, 242639, Note_on_c, 9, 38, 0
1, 242640, Note_on_c, 9, 51, 70
1, 242640, Note_on_c, 9, 36, 100
1, 242650, Note_on_c, 9, 51, 0
1, 242879, Note_on_c, 9, 36, 0
1, 242880, Note_on_c, 9, 51, 100
1, 242890, Note_on_c, 9, 51, 0
1, 243120, Note_on_c, 9, 51, 70
1, 243120, Note_on_c, 9, 36, 100
1, 243130, Note_on_c, 9, 51, 0
1, 243359, Note_on_c, 9, 36, 0
1, 243360, Note_on_c, 9, 38, 100
1, 243360, Note_on_c, 9, 51, 100
1, 243370, Note_on_c, 9, 51, 0
1, 243599, Note_on_c, 9, 38, 0
1, 243600, Note_on_c, 9, 51, 70
1, 243600, Note_on_c, 9, 36, 100
1, 243610, Note_on_c, 9, 51, 0
1, 243839, Note_on_c, 9, 36, 0
1, 243840, Note_on_c, 9, 51, 100
1, 243840, Note_on_c, 9, 36, 100
1, 243850, Note_on_c, 9, 51, 0
1, 244080, Note_on_c, 9, 51, 70
1, 244090, Note_on_c, 9, 51, 0
1, 244319, Note_on_c, 9, 36, 0
1, 244320, Note_on_c, 9, 38, 100
1, 244320, Note_on_c, 9, 51, 100
1, 244330, Note_on_c, 9, 51, 0
1, 244559, Note_on_c, 9, 38, 0
1, 244560, Note_on_c, 9, 51, 70
1, 244560, Note_on_c, 9, 36, 100
1, 244570, Note_on_c, 9, 51, 0
1, 244799, Note_on_c, 9, 36, 0
1, 244800, Note_on_c, 9, 51, 100
1, 244810, Note_on_c, 9, 51, 0
1, 245040, Note_on_c, 9, 51, 70
1, 245040, Note_on_c, 9, 36, 100
1, 245050, Note_on_c, 9, 51, 0
1, 245279, Note_on_c, 9, 36, 0
1, 245280, Note_on_c, 9, 38, 100
1, 245280, Note_on_c, 9, 51, 100
1, 245290, Note_on_c, 9, 51, 0
1, 245519, Note_on_c, 9, 38, 0
1, 245520, Note_on_c, 9, 51, 70
1, 245520, Note_on_c, 9, 36, 100
1, 245530, Note_on_c, 9, 51, 0
1, 245759, Note_on_c, 9, 36, 0
1, 245760, Note_on_c, 9, 51, 100
1, 245760, Note_on_c, 9, 36, 100
1, 245770, Note_on_c, 9, 51, 0
1, 246000, Note_on_c, 9, 51, 70
1, 246010, Note_on_c, 9, 51, 0
1, 246239, Note_on_c, 9, 36, 0
1, 246240, Note_on_c, 9, 38, 100
1, 246240, Note_on_c, 9, 51, 100
1, 246250, Note_on_c, 9, 51, 0
1, 246479, Note_on_c, 9, 38, 0
1, 246480, Note_on_c, 9, 51, 70
1, 246480, Note_on_c, 9, 36, 100
1, 246490, Note_on_c, 9, 51, 0
1, 246719, Note_on_c, 9, 36, 0
1, 246720, Note_on_c, 9, 51, 100
1, 246730, Note_on_c, 9, 51, 0
1, 246960, Note_on_c, 9, 51, 70
1, 246960, Note_on_c, 9, 36, 100
1, 246970, Note_on_c, 9, 51, 0
1, 247199, Note_on_c, 9, 36, 0
1, 247200, Note_on_c, 9, 38, 100
1, 247200, Note_on_c, 9, 51, 100
1, 247210, Note_on_c, 9, 51, 0
1, 247439, Note_on_c, 9, 38, 0
1, 247440, Note_on_c, 9, 51, 70
1, 247440, Note_on_c, 9, 36, 100
1, 247450, Note_on_c, 9, 51, 0
1, 247679, Note_on_c, 9, 36, 0
1, 247680, Note_on_c, 9, 51, 100
1, 247680, Note_on_c, 9, 36, 100
1, 247690, Note_on_c, 9, 51, 0
1, 247920, Note_on_c, 9, 51, 70
1, 247930, Note_on_c, 9, 51, 0
1, 248159, Note_on_c, 9, 36, 0
1, 248160, Note_on_c, 9, 38, 100
1, 248160, Note_on_c, 9, 51, 100
1, 248170, Note_on_c, 9, 51, 0
1, 248399, Note_on_c, 9, 38, 0
1, 248400, Note_on_c, 9, 51, 70
1, 248400, Note_on_c, 9, 36, 100
1, 248410, Note_on_c, 9, 51, 0
1, 248639, Note_on_c, 9, 36, 0
1, 248640, Note_on_c, 9, 51, 100
1, 248650, Note_on_c, 9, 51, 0
1, 248880, Note_on_c, 9, 51, 70
1, 248880, Note_on_c, 9, 36, 100
1, 248890, Note_on_c, 9, 51, 0
1, 249119, Note_on_c, 9, 36, 0
1, 249120, Note_on_c, 9, 38, 100
1, 249120, Note_on_c, 9, 51, 100
1, 249130, Note_on_c, 9, 51, 0
1, 249359, Note_on_c, 9, 38, 0
1, 249360, Note_on_c, 9, 51, 70
1, 249360, Note_on_c, 9, 36, 100
1, 249370, Note_on_c, 9, 51, 0
1, 249599, Note_on_c, 9, 36, 0
1, 249600, Note_on_c, 9, 51, 100
1, 249600, Note_on_c, 9, 36, 100
1, 249610, Note_on_c, 9, 51, 0
1, 249840, Note_on_c, 9, 51, 70
1, 249850, Note_on_c, 9, 51, 0
1, 250079, Note_on_c, 9, 36, 0
1, 250080, Note_on_c, 9, 38, 100
1, 250080, Note_on_c, 9, 51, 100
1, 250090, Note_on_c, 9, 51, 0
1, 250319, Note_on_c, 9, 38, 0
1, 250320, Note_on_c, 9, 51, 70
1, 250320, Note_on_c, 9, 36, 100
1, 250330, Note_on_c, 9, 51, 0
1, 250559, Note_on_c, 9, 36, 0
1, 250560, Note_on_c, 9, 51, 100
1, 250570, Note_on_c, 9, 51, 0
1, 250800, Note_on_c, 9, 51, 70
1, 250800, Note_on_c, 9, 36, 100
1, 250810, Note_on_c, 9, 51, 0
1, 251039, Note_on_c, 9, 36, 0
1, 251040, Note_on_c, 9, 38, 100
1, 251040, Note_on_c, 9, 51, 100
1, 251050, Note_on_c, 9, 51, 0
1, 251279, Note_on_c, 9, 38, 0
1, 251280, Note_on_c, 9, 51, 70
1, 251280, Note_on_c, 9, 36, 100
1, 251290, Note_on_c, 9, 51, 0
1, 251519, Note_on_c, 9, 36, 0
1, 251520, Note_on_c, 9, 51, 100
1, 251520, Note_on_c, 9, 36, 100
1, 251530, Note_on_c, 9, 51, 0
1, 251760, Note_on_c, 9, 51, 70
1, 251770, Note_on_c, 9, 51, 0
1, 251999, Note_on_c, 9, 36, 0
1, 252000, Note_on_c, 9, 38, 100
1, 252000, Note_on_c, 9, 51, 100
1, 252010, Note_on_c, 9, 51, 0
1, 252239, Note_on_c, 9, 38, 0
1, 252240, Note_on_c, 9, 51, 70
1, 252240, Note_on_c, 9, 36, 100
1, 252250, Note_on_c, 9, 51, 0
1, 252479, Note_on_c, 9, 36, 0
1, 252480, Note_on_c, 9, 51, 100
1, 252490, Note_on_c, 9, 51, 0
1, 252720, Note_on_c, 9, 51, 70
1, 252720, Note_on_c, 9, 36, 100
1, 252730, Note_on_c, 9, 51, 0
1, 252959, Note_on_c, 9, 36, 0
1, 252960, Note_on_c, 9, 38, 100
1, 252960, Note_on_c, 9, 51, 100
1, 252970, Note_on_c, 9, 51, 0
1, 253199, Note_on_c, 9, 38, 0
1, 253200, Note_on_c, 9, 51, 70
1, 253200, Note_on_c, 9, 36, 100
1, 253210, Note_on_c, 9, 51, 0
1, 253439, Note_on_c, 9, 36, 0
1, 253440, Note_on_c, 9, 51, 100
1, 253440, Note_on_c, 9, 36, 100
1, 253450, Note_on_c, 9, 51, 0
1, 253680, Note_on_c, 9, 51, 70
1, 253690, Note_on_c, 9, 51, 0
1, 253919, Note_on_c, 9, 36, 0
1, 253920, Note_on_c, 9, 38, 100
1, 253920, Note_on_c, 9, 51, 100
1, 253930, Note_on_c, 9, 51, 0
1, 254159, Note_on_c, 9, 38, 0
1, 254160, Note_on_c, 9, 51, 70
1, 254160, Note_on_c, 9, 36, 100
1, 254170, Note_on_c, 9, 51, 0
1, 254399, Note_on_c, 9, 36, 0
1, 254400, Note_on_c, 9, 51, 100
1, 254410, Note_on_c, 9, 51, 0
1, 254640, Note_on_c, 9, 51, 70
1, 254640, Note_on_c, 9, 36, 100
1, 254650, Note_on_c, 9, 51, 0
1, 254879, Note_on_c, 9, 36, 0
1, 254880, Note_on_c, 9, 38, 100
1, 254880, Note_on_c, 9, 51, 100
1, 254890, Note_on_c, 9, 51, 0
1, 255119, Note_on_c, 9, 38, 0
1, 255120, Note_on_c, 9, 51, 70
1, 255120, Note_on_c, 9, 36, 100
1, 255130, Note_on_c, 9, 51, 0
1, 255359, Note_on_c, 9, 36, 0
1, 255360, End_track
0, 0, End_of_file
