0, 0, Header, 1, 1, 480
1, 0, Start_track
1, 0, Title_t, "Drumset"
1, 0, Time_signature, 4, 2, 24, 8
1, 0, Key_signature, 0, "major"
1, 0, Tempo, 530973
1, 0, Control_c, 9, 121, 0
1, 0, Program_c, 9, 0
1, 0, Control_c, 9, 7, 100
1, 0, Control_c, 9, 10, 64
1, 0, Control_c, 9, 91, 0
1, 0, Control_c, 9, 93, 0
1, 0, MIDI_port, 0
1, 1920, Note_on_c, 9, 42, 119
1, 1920, Note_on_c, 9, 36, 119
1, 1924, Note_on_c, 9, 42, 0
1, 2039, Note_on_c, 9, 36, 0
1, 2040, Note_on_c, 9, 42, 97
1, 2040, Note_on_c, 9, 36, 84
1, 2044, Note_on_c, 9, 42, 0
1, 2160, Note_on_c, 9, 42, 75
1, 2164, Note_on_c, 9, 42, 0
1, 2280, Note_on_c, 9, 42, 67
1, 2284, Note_on_c, 9, 42, 0
1, 2399, Note_on_c, 9, 36, 0
1, 2400, Note_on_c, 9, 40, 123
1, 2400, Note_on_c, 9, 42, 100
1, 2404, Note_on_c, 9, 42, 0
1, 2519, Note_on_c, 9, 40, 0
1, 2520, Note_on_c, 9, 40, 57
1, 2520, Note_on_c, 9, 42, 82
1, 2524, Note_on_c, 9, 42, 0
1, 2639, Note_on_c, 9, 40, 0
1, 2640, Note_on_c, 9, 42, 54
1, 2644, Note_on_c, 9, 42, 0
1, 2760, Note_on_c, 9, 42, 74
1, 2764, Note_on_c, 9, 42, 0
1, 2880, Note_on_c, 9, 42, 86
1, 2880, Note_on_c, 9, 36, 107
1, 2884, Note_on_c, 9, 42, 0
1, 3000, Note_on_c, 9, 42, 57
1, 3004, Note_on_c, 9, 42, 0
1, 3120, Note_on_c, 9, 42, 63
1, 3124, Note_on_c, 9, 42, 0
1, 3240, Note_on_c, 9, 42, 79
1, 3244, Note_on_c, 9, 42, 0
1, 3359, Note_on_c, 9, 36, 0
1, 3360, Note_on_c, 9, 40, 127
1, 3360, Note_on_c, 9, 42, 86
1, 3364, Note_on_c, 9, 42, 0
1, 3479, Note_on_c, 9, 40, 0
1, 3480, Note_on_c, 9, 40, 64
1, 3599, Note_on_c, 9, 40, 0
1, 3600, Note_on_c, 9, 42, 72
1, 3604, Note_on_c, 9, 42, 0
1, 3720, Note_on_c, 9, 42, 84
1, 3724, Note_on_c, 9, 42, 0
1, 3840, Note_on_c, 9, 42, 86
1, 3840, Note_on_c, 9, 36, 113
1, 3844, Note_on_c, 9, 42, 0
1, 3960, Note_on_c, 9, 42, 90
1, 3964, Note_on_c, 9, 42, 0
1, 4080, Note_on_c, 9, 42, 77
1, 4084, Note_on_c, 9, 42, 0
1, 4200, Note_on_c, 9, 42, 78
1, 4204, Note_on_c, 9, 42, 0
1, 4319, Note_on_c, 9, 36, 0
1, 4320, Note_on_c, 9, 40, 127
1, 4320, Note_on_c, 9, 42, 97
1, 4324, Note_on_c, 9, 42, 0
1, 4439, Note_on_c, 9, 40, 0
1, 4440, Note_on_c, 9, 40, 67
1, 4440, Note_on_c, 9, 42, 86
1, 4444, Note_on_c, 9, 42, 0
1, 4559, Note_on_c, 9, 40, 0
1, 4560, Note_on_c, 9, 42, 75
1, 4564, Note_on_c, 9, 42, 0
1, 4680, Note_on_c, 9, 42, 69
1, 4684, Note_on_c, 9, 42, 0
1, 4800, Note_on_c, 9, 42, 84
1, 4800, Note_on_c, 9, 36, 100
1, 4804, Note_on_c, 9, 42, 0
1, 4920, Note_on_c, 9, 42, 84
1, 4924, Note_on_c, 9, 42, 0
1, 5040, Note_on_c, 9, 42, 79
1, 5044, Note_on_c, 9, 42, 0
1, 5160, Note_on_c, 9, 42, 81
1, 5164, Note_on_c, 9, 42, 0
1, 5279, Note_on_c, 9, 36, 0
1, 5280, Note_on_c, 9, 40, 127
1, 5280, Note_on_c, 9, 42, 82
1, 5284, Note_on_c, 9, 42, 0
1, 5399, Note_on_c, 9, 40, 0
1, 5400, Note_on_c, 9, 40, 64
1, 5400, Note_on_c, 9, 42, 100
1, 5404, Note_on_c, 9, 42, 0
1, 5519, Note_on_c, 9, 40, 0
1, 5520, Note_on_c, 9, 46, 110
1, 5529, Note_on_c, 9, 46, 0
1, 5760, Note_on_c, 9, 42, 110
1, 5760, Note_on_c, 9, 36, 107
1, 5764, Note_on_c, 9, 42, 0
1, 5879, Note_on_c, 9, 36, 0
1, 5880, Note_on_c, 9, 42, 69
1, 5880, Note_on_c, 9, 36, 78
1, 5884, Note_on_c, 9, 42, 0
1, 6000, Note_on_c, 9, 42, 82
1, 6004, Note_on_c, 9, 42, 0
1, 6120, Note_on_c, 9, 42, 84
1, 6124, Note_on_c, 9, 42, 0
1, 6239, Note_on_c, 9, 36, 0
1, 6240, Note_on_c, 9, 40, 122
1, 6240, Note_on_c, 9, 42, 100
1, 6244, Note_on_c, 9, 42, 0
1, 6359, Note_on_c, 9, 40, 0
1, 6360, Note_on_c, 9, 40, 56
1, 6360, Note_on_c, 9, 42, 72
1, 6364, Note_on_c, 9, 42, 0
1, 6479, Note_on_c, 9, 40, 0
1, 6480, Note_on_c, 9, 42, 82
1, 6484, Note_on_c, 9, 42, 0
1, 6600, Note_on_c, 9, 42, 75
1, 6604, Note_on_c, 9, 42, 0
1, 6720, Note_on_c, 9, 42, 82
1, 6720, Note_on_c, 9, 36, 104
1, 6724, Note_on_c, 9, 42, 0
1, 6840, Note_on_c, 9, 42, 77
1, 6844, Note_on_c, 9, 42, 0
1, 6960, Note_on_c, 9, 42, 75
1, 6964, Note_on_c, 9, 42, 0
1, 7080, Note_on_c, 9, 42, 77
1, 7084, Note_on_c, 9, 42, 0
1, 7199, Note_on_c, 9, 36, 0
1, 7200, Note_on_c, 9, 40, 127
1, 7200, Note_on_c, 9, 42, 86
1, 7204, Note_on_c, 9, 42, 0
1, 7319, Note_on_c, 9, 40, 0
1, 7320, Note_on_c, 9, 40, 61
1, 7320, Note_on_c, 9, 42, 86
1, 7324, Note_on_c, 9, 42, 0
1, 7439, Note_on_c, 9, 40, 0
1, 7440, Note_on_c, 9, 42, 59
1, 7444, Note_on_c, 9, 42, 0
1, 7560, Note_on_c, 9, 42, 72
1, 7564, Note_on_c, 9, 42, 0
1, 7680, Note_on_c, 9, 42, 90
1, 7680, Note_on_c, 9, 36, 104
1, 7684, Note_on_c, 9, 42, 0
1, 7800, Note_on_c, 9, 42, 77
1, 7804, Note_on_c, 9, 42, 0
1, 7920, Note_on_c, 9, 42, 81
1, 7924, Note_on_c, 9, 42, 0
1, 8040, Note_on_c, 9, 42, 82
1, 8044, Note_on_c, 9, 42, 0
1, 8159, Note_on_c, 9, 36, 0
1, 8160, Note_on_c, 9, 40, 119
1, 8160, Note_on_c, 9, 42, 86
1, 8164, Note_on_c, 9, 42, 0
1, 8279, Note_on_c, 9, 40, 0
1, 8280, Note_on_c, 9, 40, 53
1, 8280, Note_on_c, 9, 42, 74
1, 8284, Note_on_c, 9, 42, 0
1, 8399, Note_on_c, 9, 40, 0
1, 8400, Note_on_c, 9, 42, 75
1, 8404, Note_on_c, 9, 42, 0
1, 8520, Note_on_c, 9, 42, 67
1, 8524, Note_on_c, 9, 42, 0
1, 8640, Note_on_c, 9, 42, 70
1, 8640, Note_on_c, 9, 36, 100
1, 8644, Note_on_c, 9, 42, 0
1, 8760, Note_on_c, 9, 42, 70
1, 8764, Note_on_c, 9, 42, 0
1, 8880, Note_on_c, 9, 42, 78
1, 8884, Note_on_c, 9, 42, 0
1, 9000, Note_on_c, 9, 42, 67
1, 9004, Note_on_c, 9, 42, 0
1, 9119, Note_on_c, 9, 36, 0
1, 9120, Note_on_c, 9, 40, 122
1, 9120, Note_on_c, 9, 42, 90
1, 9124, Note_on_c, 9, 42, 0
1, 9239, Note_on_c, 9, 40, 0
1, 9240, Note_on_c, 9, 40, 56
1, 9240, Note_on_c, 9, 42, 100
1, 9244, Note_on_c, 9, 42, 0
1, 9359, Note_on_c, 9, 40, 0
1, 9360, Note_on_c, 9, 46, 105
1, 9369, Note_on_c, 9, 46, 0
1, 9600, Note_on_c, 9, 42, 120
1, 9600, Note_on_c, 9, 36, 116
1, 9604, Note_on_c, 9, 42, 0
1, 9719, Note_on_c, 9, 36, 0
1, 9720, Note_on_c, 9, 42, 97
1, 9720, Note_on_c, 9, 36, 84
1, 9724, Note_on_c, 9, 42, 0
1, 9840, Note_on_c, 9, 42, 75
1, 9844, Note_on_c, 9, 42, 0
1, 9960, Note_on_c, 9, 42, 67
1, 9964, Note_on_c, 9, 42, 0
1, 10079, Note_on_c, 9, 36, 0
1, 10080, Note_on_c, 9, 40, 123
1, 10080, Note_on_c, 9, 42, 100
1, 10084, Note_on_c, 9, 42, 0
1, 10199, Note_on_c, 9, 40, 0
1, 10200, Note_on_c, 9, 40, 57
1, 10200, Note_on_c, 9, 42, 82
1, 10204, Note_on_c, 9, 42, 0
1, 10319, Note_on_c, 9, 40, 0
1, 10320, Note_on_c, 9, 42, 54
1, 10324, Note_on_c, 9, 42, 0
1, 10440, Note_on_c, 9, 42, 74
1, 10444, Note_on_c, 9, 42, 0
1, 10560, Note_on_c, 9, 42, 86
1, 10560, Note_on_c, 9, 36, 107
1, 10564, Note_on_c, 9, 42, 0
1, 10680, Note_on_c, 9, 42, 57
1, 10684, Note_on_c, 9, 42, 0
1, 10800, Note_on_c, 9, 42, 63
1, 10804, Note_on_c, 9, 42, 0
1, 10920, Note_on_c, 9, 42, 79
1, 10924, Note_on_c, 9, 42, 0
1, 11039, Note_on_c, 9, 36, 0
1, 11040, Note_on_c, 9, 40, 127
1, 11040, Note_on_c, 9, 42, 86
1, 11044, Note_on_c, 9, 42, 0
1, 11159, Note_on_c, 9, 40, 0
1, 11160, Note_on_c, 9, 40, 64
1, 11279, Note_on_c, 9, 40, 0
1, 11280, Note_on_c, 9, 42, 72
1, 11284, Note_on_c, 9, 42, 0
1, 11400, Note_on_c, 9, 42, 84
1, 11404, Note_on_c, 9, 42, 0
1, 11520, Note_on_c, 9, 42, 86
1, 11520, Note_on_c, 9, 36, 113
1, 11524, Note_on_c, 9, 42, 0
1, 11640, Note_on_c, 9, 42, 90
1, 11644, Note_on_c, 9, 42, 0
1, 11760, Note_on_c, 9, 42, 77
1, 11764, Note_on_c, 9, 42, 0
1, 11880, Note_on_c, 9, 42, 78
1, 11884, Note_on_c, 9, 42, 0
1, 11999, Note_on_c, 9, 36, 0
1, 12000, Note_on_c, 9, 40, 127
1, 12000, Note_on_c, 9, 42, 97
1, 12004, Note_on_c, 9, 42, 0
1, 12119, Note_on_c, 9, 40, 0
1, 12120, Note_on_c, 9, 40, 67
1, 12120, Note_on_c, 9, 42, 86
1, 12124, Note_on_c, 9, 42, 0
1, 12239, Note_on_c, 9, 40, 0
1, 12240, Note_on_c, 9, 42, 75
1, 12244, Note_on_c, 9, 42, 0
1, 12360, Note_on_c, 9, 42, 69
1, 12364, Note_on_c, 9, 42, 0
1, 12480, Note_on_c, 9, 42, 84
1, 12480, Note_on_c, 9, 36, 100
1, 12484, Note_on_c, 9, 42, 0
1, 12600, Note_on_c, 9, 42, 84
1, 12604, Note_on_c, 9, 42, 0
1, 12720, Note_on_c, 9, 42, 79
1, 12724, Note_on_c, 9, 42, 0
1, 12840, Note_on_c, 9, 42, 81
1, 12844, Note_on_c, 9, 42, 0
1, 12959, Note_on_c, 9, 36, 0
1, 12960, Note_on_c, 9, 40, 127
1, 12960, Note_on_c, 9, 42, 82
1, 12964, Note_on_c, 9, 42, 0
1, 13079, Note_on_c, 9, 40, 0
1, 13080, Note_on_c, 9, 40, 64
1, 13080, Note_on_c, 9, 42, 100
1, 13084, Note_on_c, 9, 42, 0
1, 13199, Note_on_c, 9, 40, 0
1, 13200, Note_on_c, 9, 46, 110
1, 13209, Note_on_c, 9, 46, 0
1, 13440, Note_on_c, 9, 42, 110
1, 13440, Note_on_c, 9, 36, 107
1, 13444, Note_on_c, 9, 42, 0
1, 13559, Note_on_c, 9, 36, 0
1, 13560, Note_on_c, 9, 42, 69
1, 13560, Note_on_c, 9, 36, 78
1, 13564, Note_on_c, 9, 42, 0
1, 13680, Note_on_c, 9, 42, 82
1, 13684, Note_on_c, 9, 42, 0
1, 13800, Note_on_c, 9, 42, 84
1, 13804, Note_on_c, 9, 42, 0
1, 13919, Note_on_c, 9, 36, 0
1, 13920, Note_on_c, 9, 40, 122
1, 13920, Note_on_c, 9, 42, 100
1, 13924, Note_on_c, 9, 42, 0
1, 14039, Note_on_c, 9, 40, 0
1, 14040, Note_on_c, 9, 40, 56
1, 14040, Note_on_c, 9, 42, 72
1, 14044, Note_on_c, 9, 42, 0
1, 14159, Note_on_c, 9, 40, 0
1, 14160, Note_on_c, 9, 42, 82
1, 14164, Note_on_c, 9, 42, 0
1, 14280, Note_on_c, 9, 42, 75
1, 14284, Note_on_c, 9, 42, 0
1, 14400, Note_on_c, 9, 42, 82
1, 14400, Note_on_c, 9, 36, 104
1, 14404, Note_on_c, 9, 42, 0
1, 14520, Note_on_c, 9, 42, 77
1, 14524, Note_on_c, 9, 42, 0
1, 14640, Note_on_c, 9, 42, 75
1, 14644, Note_on_c, 9, 42, 0
1, 14760, Note_on_c, 9, 42, 77
1, 14764, Note_on_c, 9, 42, 0
1, 14879, Note_on_c, 9, 36, 0
1, 14880, Note_on_c, 9, 40, 127
1, 14880, Note_on_c, 9, 42, 86
1, 14884, Note_on_c, 9, 42, 0
1, 14999, Note_on_c, 9, 40, 0
1, 15000, Note_on_c, 9, 40, 61
1, 15000, Note_on_c, 9, 42, 86
1, 15004, Note_on_c, 9, 42, 0
1, 15119, Note_on_c, 9, 40, 0
1, 15120, Note_on_c, 9, 42, 59
1, 15124, Note_on_c, 9, 42, 0
1, 15240, Note_on_c, 9, 42, 72
1, 15244, Note_on_c, 9, 42, 0
1, 15360, Note_on_c, 9, 42, 90
1, 15360, Note_on_c, 9, 36, 104
1, 15364, Note_on_c, 9, 42, 0
1, 15480, Note_on_c, 9, 42, 77
1, 15484, Note_on_c, 9, 42, 0
1, 15600, Note_on_c, 9, 42, 81
1, 15604, Note_on_c, 9, 42, 0
1, 15720, Note_on_c, 9, 42, 82
1, 15724, Note_on_c, 9, 42, 0
1, 15839, Note_on_c, 9, 36, 0
1, 15840, Note_on_c, 9, 40, 119
1, 15840, Note_on_c, 9, 42, 86
1, 15844, Note_on_c, 9, 42, 0
1, 15959, Note_on_c, 9, 40, 0
1, 15960, Note_on_c, 9, 40, 53
1, 15960, Note_on_c, 9, 42, 74
1, 15964, Note_on_c, 9, 42, 0
1, 16079, Note_on_c, 9, 40, 0
1, 16080, Note_on_c, 9, 42, 75
1, 16084, Note_on_c, 9, 42, 0
1, 16200, Note_on_c, 9, 42, 67
1, 16204, Note_on_c, 9, 42, 0
1, 16320, Note_on_c, 9, 42, 70
1, 16320, Note_on_c, 9, 52, 78
1, 16320, Note_on_c, 9, 36, 100
1, 16324, Note_on_c, 9, 42, 0
1, 16324, Note_on_c, 9, 52, 0
1, 16440, Note_on_c, 9, 42, 70
1, 16444, Note_on_c, 9, 42, 0
1, 16560, Note_on_c, 9, 42, 78
1, 16564, Note_on_c, 9, 42, 0
1, 16680, Note_on_c, 9, 42, 67
1, 16684, Note_on_c, 9, 42, 0
1, 16799, Note_on_c, 9, 36, 0
1, 16800, Note_on_c, 9, 40, 122
1, 16800, Note_on_c, 9, 42, 90
1, 16804, Note_on_c, 9, 42, 0
1, 16919, Note_on_c, 9, 40, 0
1, 16920, Note_on_c, 9, 40, 56
1, 16920, Note_on_c, 9, 42, 100
1, 16924, Note_on_c, 9, 42, 0
1, 17039, Note_on_c, 9, 40, 0
1, 17040, Note_on_c, 9, 46, 105
1, 17049, Note_on_c, 9, 46, 0
1, 17280, Note_on_c, 9, 42, 120
1, 17280, Note_on_c, 9, 57, 116
1, 17280, Note_on_c, 9, 36, 116
1, 17284, Note_on_c, 9, 42, 0
1, 17284, Note_on_c, 9, 57, 0
1, 17399, Note_on_c, 9, 36, 0
1, 17400, Note_on_c, 9, 42, 97
1, 17400, Note_on_c, 9, 36, 84
1, 17404, Note_on_c, 9, 42, 0
1, 17520, Note_on_c, 9, 42, 75
1, 17524, Note_on_c, 9, 42, 0
1, 17640, Note_on_c, 9, 42, 67
1, 17644, Note_on_c, 9, 42, 0
1, 17759, Note_on_c, 9, 36, 0
1, 17760, Note_on_c, 9, 40, 123
1, 17760, Note_on_c, 9, 42, 100
1, 17764, Note_on_c, 9, 42, 0
1, 17879, Note_on_c, 9, 40, 0
1, 17880, Note_on_c, 9, 40, 57
1, 17880, Note_on_c, 9, 42, 82
1, 17884, Note_on_c, 9, 42, 0
1, 17999, Note_on_c, 9, 40, 0
1, 18000, Note_on_c, 9, 42, 54
1, 18004, Note_on_c, 9, 42, 0
1, 18120, Note_on_c, 9, 42, 74
1, 18124, Note_on_c, 9, 42, 0
1, 18240, Note_on_c, 9, 42, 86
1, 18240, Note_on_c, 9, 36, 107
1, 18244, Note_on_c, 9, 42, 0
1, 18360, Note_on_c, 9, 42, 57
1, 18364, Note_on_c, 9, 42, 0
1, 18480, Note_on_c, 9, 42, 63
1, 18484, Note_on_c, 9, 42, 0
1, 18600, Note_on_c, 9, 42, 79
1, 18604, Note_on_c, 9, 42, 0
1, 18719, Note_on_c, 9, 36, 0
1, 18720, Note_on_c, 9, 40, 127
1, 18720, Note_on_c, 9, 42, 86
1, 18724, Note_on_c, 9, 42, 0
1, 18839, Note_on_c, 9, 40, 0
1, 18840, Note_on_c, 9, 40, 64
1, 18959, Note_on_c, 9, 40, 0
1, 18960, Note_on_c, 9, 42, 72
1, 18964, Note_on_c, 9, 42, 0
1, 19080, Note_on_c, 9, 42, 84
1, 19084, Note_on_c, 9, 42, 0
1, 19200, Note_on_c, 9, 42, 86
1, 19200, Note_on_c, 9, 36, 113
1, 19204, Note_on_c, 9, 42, 0
1, 19320, Note_on_c, 9, 42, 90
1, 19324, Note_on_c, 9, 42, 0
1, 19440, Note_on_c, 9, 42, 77
1, 19444, Note_on_c, 9, 42, 0
1, 19560, Note_on_c, 9, 42, 78
1, 19564, Note_on_c, 9, 42, 0
1, 19679, Note_on_c, 9, 36, 0
1, 19680, Note_on_c, 9, 40, 127
1, 19680, Note_on_c, 9, 42, 97
1, 19684, Note_on_c, 9, 42, 0
1, 19799, Note_on_c, 9, 40, 0
1, 19800, Note_on_c, 9, 40, 67
1, 19800, Note_on_c, 9, 42, 86
1, 19804, Note_on_c, 9, 42, 0
1, 19919, Note_on_c, 9, 40, 0
1, 19920, Note_on_c, 9, 42, 75
1, 19924, Note_on_c, 9, 42, 0
1, 20040, Note_on_c, 9, 42, 69
1, 20044, Note_on_c, 9, 42, 0
1, 20160, Note_on_c, 9, 42, 84
1, 20160, Note_on_c, 9, 36, 100
1, 20164, Note_on_c, 9, 42, 0
1, 20280, Note_on_c, 9, 42, 84
1, 20284, Note_on_c, 9, 42, 0
1, 20400, Note_on_c, 9, 42, 79
1, 20404, Note_on_c, 9, 42, 0
1, 20520, Note_on_c, 9, 42, 81
1, 20524, Note_on_c, 9, 42, 0
1, 20639, Note_on_c, 9, 36, 0
1, 20640, Note_on_c, 9, 40, 127
1, 20640, Note_on_c, 9, 42, 82
1, 20644, Note_on_c, 9, 42, 0
1, 20759, Note_on_c, 9, 40, 0
1, 20760, Note_on_c, 9, 40, 64
1, 20760, Note_on_c, 9, 42, 100
1, 20764, Note_on_c, 9, 42, 0
1, 20879, Note_on_c, 9, 40, 0
1, 20880, Note_on_c, 9, 46, 110
1, 20889, Note_on_c, 9, 46, 0
1, 21120, Note_on_c, 9, 42, 110
1, 21120, Note_on_c, 9, 55, 59
1, 21120, Note_on_c, 9, 36, 107
1, 21124, Note_on_c, 9, 42, 0
1, 21124, Note_on_c, 9, 55, 0
1, 21239, Note_on_c, 9, 36, 0
1, 21240, Note_on_c, 9, 42, 69
1, 21240, Note_on_c, 9, 36, 78
1, 21244, Note_on_c, 9, 42, 0
1, 21360, Note_on_c, 9, 42, 82
1, 21364, Note_on_c, 9, 42, 0
1, 21480, Note_on_c, 9, 42, 84
1, 21484, Note_on_c, 9, 42, 0
1, 21599, Note_on_c, 9, 36, 0
1, 21600, Note_on_c, 9, 40, 122
1, 21600, Note_on_c, 9, 42, 100
1, 21604, Note_on_c, 9, 42, 0
1, 21719, Note_on_c, 9, 40, 0
1, 21720, Note_on_c, 9, 40, 56
1, 21720, Note_on_c, 9, 42, 72
1, 21724, Note_on_c, 9, 42, 0
1, 21839, Note_on_c, 9, 40, 0
1, 21840, Note_on_c, 9, 42, 82
1, 21844, Note_on_c, 9, 42, 0
1, 21960, Note_on_c, 9, 42, 75
1, 21964, Note_on_c, 9, 42, 0
1, 22080, Note_on_c, 9, 42, 82
1, 22080, Note_on_c, 9, 36, 104
1, 22084, Note_on_c, 9, 42, 0
1, 22200, Note_on_c, 9, 42, 77
1, 22204, Note_on_c, 9, 42, 0
1, 22320, Note_on_c, 9, 42, 75
1, 22324, Note_on_c, 9, 42, 0
1, 22440, Note_on_c, 9, 42, 77
1, 22444, Note_on_c, 9, 42, 0
1, 22559, Note_on_c, 9, 36, 0
1, 22560, Note_on_c, 9, 40, 127
1, 22560, Note_on_c, 9, 42, 86
1, 22564, Note_on_c, 9, 42, 0
1, 22679, Note_on_c, 9, 40, 0
1, 22680, Note_on_c, 9, 40, 61
1, 22680, Note_on_c, 9, 42, 86
1, 22684, Note_on_c, 9, 42, 0
1, 22799, Note_on_c, 9, 40, 0
1, 22800, Note_on_c, 9, 42, 59
1, 22804, Note_on_c, 9, 42, 0
1, 22920, Note_on_c, 9, 42, 72
1, 22924, Note_on_c, 9, 42, 0
1, 23040, Note_on_c, 9, 42, 90
1, 23040, Note_on_c, 9, 36, 104
1, 23044, Note_on_c, 9, 42, 0
1, 23160, Note_on_c, 9, 42, 77
1, 23164, Note_on_c, 9, 42, 0
1, 23280, Note_on_c, 9, 42, 81
1, 23284, Note_on_c, 9, 42, 0
1, 23400, Note_on_c, 9, 42, 82
1, 23404, Note_on_c, 9, 42, 0
1, 23519, Note_on_c, 9, 36, 0
1, 23520, Note_on_c, 9, 40, 119
1, 23520, Note_on_c, 9, 42, 86
1, 23524, Note_on_c, 9, 42, 0
1, 23639, Note_on_c, 9, 40, 0
1, 23640, Note_on_c, 9, 40, 53
1, 23640, Note_on_c, 9, 42, 74
1, 23644, Note_on_c, 9, 42, 0
1, 23759, Note_on_c, 9, 40, 0
1, 23760, Note_on_c, 9, 42, 75
1, 23764, Note_on_c, 9, 42, 0
1, 23880, Note_on_c, 9, 42, 67
1, 23884, Note_on_c, 9, 42, 0
1, 24000, Note_on_c, 9, 42, 70
1, 24000, Note_on_c, 9, 36, 100
1, 24004, Note_on_c, 9, 42, 0
1, 24120, Note_on_c, 9, 42, 70
1, 24124, Note_on_c, 9, 42, 0
1, 24240, Note_on_c, 9, 42, 78
1, 24244, Note_on_c, 9, 42, 0
1, 24360, Note_on_c, 9, 42, 67
1, 24364, Note_on_c, 9, 42, 0
1, 24479, Note_on_c, 9, 36, 0
1, 24480, Note_on_c, 9, 40, 122
1, 24480, Note_on_c, 9, 42, 90
1, 24484, Note_on_c, 9, 42, 0
1, 24599, Note_on_c, 9, 40, 0
1, 24600, Note_on_c, 9, 40, 56
1, 24600, Note_on_c, 9, 42, 100
1, 24604, Note_on_c, 9, 42, 0
1, 24719, Note_on_c, 9, 40, 0
1, 24720, Note_on_c, 9, 46, 105
1, 24729, Note_on_c, 9, 46, 0
1, 24960, Note_on_c, 9, 42, 120
1, 24960, Note_on_c, 9, 55, 68
1, 24960, Note_on_c, 9, 36, 116
1, 24964, Note_on_c, 9, 42, 0
1, 24964, Note_on_c, 9, 55, 0
1, 25079, Note_on_c, 9, 36, 0
1, 25080, Note_on_c, 9, 42, 97
1, 25080, Note_on_c, 9, 36, 84
1, 25084, Note_on_c, 9, 42, 0
1, 25200, Note_on_c, 9, 42, 75
1, 25204, Note_on_c, 9, 42, 0
1, 25320, Note_on_c, 9, 42, 67
1, 25324, Note_on_c, 9, 42, 0
1, 25439, Note_on_c, 9, 36, 0
1, 25440, Note_on_c, 9, 40, 123
1, 25440, Note_on_c, 9, 42, 100
1, 25444, Note_on_c, 9, 42, 0
1, 25559, Note_on_c, 9, 40, 0
1, 25560, Note_on_c, 9, 40, 57
1, 25560, Note_on_c, 9, 42, 82
1, 25564, Note_on_c, 9, 42, 0
1, 25679, Note_on_c, 9, 40, 0
1, 25680, Note_on_c, 9, 42, 54
1, 25684, Note_on_c, 9, 42, 0
1, 25800, Note_on_c, 9, 42, 74
1, 25804, Note_on_c, 9, 42, 0
1, 25920, Note_on_c, 9, 42, 86
1, 25920, Note_on_c, 9, 36, 107
1, 25924, Note_on_c, 9, 42, 0
1, 26040, Note_on_c, 9, 42, 57
1, 26044, Note_on_c, 9, 42, 0
1, 26160, Note_on_c, 9, 42, 63
1, 26164, Note_on_c, 9, 42, 0
1, 26280, Note_on_c, 9, 42, 79
1, 26284, Note_on_c, 9, 42, 0
1, 26399, Note_on_c, 9, 36, 0
1, 26400, Note_on_c, 9, 40, 127
1, 26400, Note_on_c, 9, 42, 86
1, 26404, Note_on_c, 9, 42, 0
1, 26519, Note_on_c, 9, 40, 0
1, 26520, Note_on_c, 9, 40, 64
1, 26639, Note_on_c, 9, 40, 0
1, 26640, Note_on_c, 9, 42, 72
1, 26644, Note_on_c, 9, 42, 0
1, 26760, Note_on_c, 9, 42, 84
1, 26764, Note_on_c, 9, 42, 0
1, 26880, Note_on_c, 9, 42, 86
1, 26880, Note_on_c, 9, 36, 113
1, 26884, Note_on_c, 9, 42, 0
1, 27000, Note_on_c, 9, 42, 90
1, 27004, Note_on_c, 9, 42, 0
1, 27120, Note_on_c, 9, 42, 77
1, 27124, Note_on_c, 9, 42, 0
1, 27240, Note_on_c, 9, 42, 78
1, 27244, Note_on_c, 9, 42, 0
1, 27359, Note_on_c, 9, 36, 0
1, 27360, Note_on_c, 9, 40, 127
1, 27360, Note_on_c, 9, 42, 97
1, 27364, Note_on_c, 9, 42, 0
1, 27479, Note_on_c, 9, 40, 0
1, 27480, Note_on_c, 9, 40, 67
1, 27480, Note_on_c, 9, 42, 86
1, 27484, Note_on_c, 9, 42, 0
1, 27599, Note_on_c, 9, 40, 0
1, 27600, Note_on_c, 9, 42, 75
1, 27604, Note_on_c, 9, 42, 0
1, 27720, Note_on_c, 9, 42, 69
1, 27724, Note_on_c, 9, 42, 0
1, 27840, Note_on_c, 9, 42, 84
1, 27840, Note_on_c, 9, 36, 100
1, 27844, Note_on_c, 9, 42, 0
1, 27960, Note_on_c, 9, 42, 84
1, 27964, Note_on_c, 9, 42, 0
1, 28080, Note_on_c, 9, 42, 79
1, 28084, Note_on_c, 9, 42, 0
1, 28200, Note_on_c, 9, 42, 81
1, 28204, Note_on_c, 9, 42, 0
1, 28319, Note_on_c, 9, 36, 0
1, 28320, Note_on_c, 9, 40, 127
1, 28320, Note_on_c, 9, 42, 82
1, 28324, Note_on_c, 9, 42, 0
1, 28439, Note_on_c, 9, 40, 0
1, 28440, Note_on_c, 9, 40, 64
1, 28440, Note_on_c, 9, 42, 100
1, 28444, Note_on_c, 9, 42, 0
1, 28559, Note_on_c, 9, 40, 0
1, 28560, Note_on_c, 9, 46, 110
1, 28569, Note_on_c, 9, 46, 0
1, 28800, Note_on_c, 9, 42, 110
1, 28800, Note_on_c, 9, 55, 82
1, 28800, Note_on_c, 9, 36, 107
1, 28804, Note_on_c, 9, 42, 0
1, 28804, Note_on_c, 9, 55, 0
1, 28919, Note_on_c, 9, 36, 0
1, 28920, Note_on_c, 9, 42, 69
1, 28920, Note_on_c, 9, 36, 78
1, 28924, Note_on_c, 9, 42, 0
1, 29040, Note_on_c, 9, 42, 82
1, 29044, Note_on_c, 9, 42, 0
1, 29160, Note_on_c, 9, 42, 84
1, 29164, Note_on_c, 9, 42, 0
1, 29279, Note_on_c, 9, 36, 0
1, 29280, Note_on_c, 9, 40, 122
1, 29280, Note_on_c, 9, 42, 100
1, 29284, Note_on_c, 9, 42, 0
1, 29399, Note_on_c, 9, 40, 0
1, 29400, Note_on_c, 9, 40, 56
1, 29400, Note_on_c, 9, 42, 72
1, 29404, Note_on_c, 9, 42, 0
1, 29519, Note_on_c, 9, 40, 0
1, 29520, Note_on_c, 9, 42, 82
1, 29524, Note_on_c, 9, 42, 0
1, 29640, Note_on_c, 9, 42, 75
1, 29644, Note_on_c, 9, 42, 0
1, 29760, Note_on_c, 9, 42, 82
1, 29760, Note_on_c, 9, 36, 104
1, 29764, Note_on_c, 9, 42, 0
1, 29880, Note_on_c, 9, 42, 77
1, 29884, Note_on_c, 9, 42, 0
1, 30000, Note_on_c, 9, 42, 75
1, 30004, Note_on_c, 9, 42, 0
1, 30120, Note_on_c, 9, 42, 77
1, 30120, Note_on_c, 9, 52, 78
1, 30124, Note_on_c, 9, 42, 0
1, 30124, Note_on_c, 9, 52, 0
1, 30239, Note_on_c, 9, 36, 0
1, 30240, Note_on_c, 9, 40, 127
1, 30240, Note_on_c, 9, 42, 86
1, 30244, Note_on_c, 9, 42, 0
1, 30359, Note_on_c, 9, 40, 0
1, 30360, Note_on_c, 9, 40, 61
1, 30360, Note_on_c, 9, 42, 86
1, 30364, Note_on_c, 9, 42, 0
1, 30479, Note_on_c, 9, 40, 0
1, 30480, Note_on_c, 9, 42, 59
1, 30484, Note_on_c, 9, 42, 0
1, 30600, Note_on_c, 9, 42, 72
1, 30604, Note_on_c, 9, 42, 0
1, 30720, Note_on_c, 9, 42, 90
1, 30720, Note_on_c, 9, 57, 114
1, 30720, Note_on_c, 9, 36, 104
1, 30724, Note_on_c, 9, 42, 0
1, 30724, Note_on_c, 9, 57, 0
1, 30840, Note_on_c, 9, 42, 77
1, 30844, Note_on_c, 9, 42, 0
1, 30960, Note_on_c, 9, 42, 81
1, 30964, Note_on_c, 9, 42, 0
1, 31080, Note_on_c, 9, 42, 82
1, 31084, Note_on_c, 9, 42, 0
1, 31199, Note_on_c, 9, 36, 0
1, 31200, Note_on_c, 9, 40, 119
1, 31200, Note_on_c, 9, 42, 86
1, 31204, Note_on_c, 9, 42, 0
1, 31319, Note_on_c, 9, 40, 0
1, 31320, Note_on_c, 9, 40, 53
1, 31320, Note_on_c, 9, 42, 74
1, 31324, Note_on_c, 9, 42, 0
1, 31439, Note_on_c, 9, 40, 0
1, 31440, Note_on_c, 9, 42, 75
1, 31444, Note_on_c, 9, 42, 0
1, 31560, Note_on_c, 9, 42, 67
1, 31564, Note_on_c, 9, 42, 0
1, 31680, Note_on_c, 9, 42, 70
1, 31680, Note_on_c, 9, 55, 110
1, 31680, Note_on_c, 9, 36, 100
1, 31684, Note_on_c, 9, 42, 0
1, 31684, Note_on_c, 9, 55, 0
1, 31800, Note_on_c, 9, 42, 70
1, 31804, Note_on_c, 9, 42, 0
1, 31920, Note_on_c, 9, 42, 78
1, 31924, Note_on_c, 9, 42, 0
1, 32040, Note_on_c, 9, 42, 67
1, 32044, Note_on_c, 9, 42, 0
1, 32159, Note_on_c, 9, 36, 0
1, 32160, Note_on_c, 9, 40, 122
1, 32160, Note_on_c, 9, 42, 90
1, 32164, Note_on_c, 9, 42, 0
1, 32279, Note_on_c, 9, 40, 0
1, 32280, Note_on_c, 9, 40, 56
1, 32280, Note_on_c, 9, 42, 100
1, 32284, Note_on_c, 9, 42, 0
1, 32399, Note_on_c, 9, 40, 0
1, 32400, Note_on_c, 9, 46, 105
1, 32409, Note_on_c, 9, 46, 0
1, 32640, Note_on_c, 9, 42, 120
1, 32640, Note_on_c, 9, 36, 116
1, 32644, Note_on_c, 9, 42, 0
1, 32759, Note_on_c, 9, 36, 0
1, 32760, Note_on_c, 9, 42, 97
1, 32760, Note_on_c, 9, 36, 84
1, 32764, Note_on_c, 9, 42, 0
1, 32880, Note_on_c, 9, 42, 75
1, 32884, Note_on_c, 9, 42, 0
1, 33000, Note_on_c, 9, 42, 67
1, 33004, Note_on_c, 9, 42, 0
1, 33119, Note_on_c, 9, 36, 0
1, 33120, Note_on_c, 9, 40, 123
1, 33120, Note_on_c, 9, 42, 100
1, 33124, Note_on_c, 9, 42, 0
1, 33239, Note_on_c, 9, 40, 0
1, 33240, Note_on_c, 9, 40, 57
1, 33240, Note_on_c, 9, 42, 82
1, 33244, Note_on_c, 9, 42, 0
1, 33359, Note_on_c, 9, 40, 0
1, 33360, Note_on_c, 9, 42, 54
1, 33364, Note_on_c, 9, 42, 0
1, 33480, Note_on_c, 9, 42, 74
1, 33484, Note_on_c, 9, 42, 0
1, 33600, Note_on_c, 9, 42, 86
1, 33600, Note_on_c, 9, 36, 107
1, 33604, Note_on_c, 9, 42, 0
1, 33720, Note_on_c, 9, 42, 57
1, 33724, Note_on_c, 9, 42, 0
1, 33840, Note_on_c, 9, 42, 63
1, 33844, Note_on_c, 9, 42, 0
1, 33960, Note_on_c, 9, 42, 79
1, 33964, Note_on_c, 9, 42, 0
1, 34079, Note_on_c, 9, 36, 0
1, 34080, Note_on_c, 9, 40, 127
1, 34080, Note_on_c, 9, 42, 86
1, 34084, Note_on_c, 9, 42, 0
1, 34199, Note_on_c, 9, 40, 0
1, 34200, Note_on_c, 9, 40, 64
1, 34319, Note_on_c, 9, 40, 0
1, 34320, Note_on_c, 9, 42, 72
1, 34324, Note_on_c, 9, 42, 0
1, 34440, Note_on_c, 9, 42, 84
1, 34444, Note_on_c, 9, 42, 0
1, 34560, Note_on_c, 9, 42, 86
1, 34560, Note_on_c, 9, 36, 113
1, 34564, Note_on_c, 9, 42, 0
1, 34680, Note_on_c, 9, 42, 90
1, 34684, Note_on_c, 9, 42, 0
1, 34800, Note_on_c, 9, 42, 77
1, 34804, Note_on_c, 9, 42, 0
1, 34920, Note_on_c, 9, 42, 78
1, 34924, Note_on_c, 9, 42, 0
1, 35039, Note_on_c, 9, 36, 0
1, 35040, Note_on_c, 9, 40, 127
1, 35040, Note_on_c, 9, 42, 97
1, 35044, Note_on_c, 9, 42, 0
1, 35159, Note_on_c, 9, 40, 0
1, 35160, Note_on_c, 9, 40, 67
1, 35160, Note_on_c, 9, 42, 86
1, 35164, Note_on_c, 9, 42, 0
1, 35279, Note_on_c, 9, 40, 0
1, 35280, Note_on_c, 9, 42, 75
1, 35284, Note_on_c, 9, 42, 0
1, 35400, Note_on_c, 9, 42, 69
1, 35404, Note_on_c, 9, 42, 0
1, 35520, Note_on_c, 9, 42, 84
1, 35520, Note_on_c, 9, 36, 100
1, 35524, Note_on_c, 9, 42, 0
1, 35640, Note_on_c, 9, 42, 84
1, 35644, Note_on_c, 9, 42, 0
1, 35760, Note_on_c, 9, 42, 79
1, 35764, Note_on_c, 9, 42, 0
1, 35880, Note_on_c, 9, 42, 81
1, 35884, Note_on_c, 9, 42, 0
1, 35999, Note_on_c, 9, 36, 0
1, 36000, Note_on_c, 9, 40, 127
1, 36000, Note_on_c, 9, 42, 82
1, 36004, Note_on_c, 9, 42, 0
1, 36119, Note_on_c, 9, 40, 0
1, 36120, Note_on_c, 9, 40, 64
1, 36120, Note_on_c, 9, 42, 100
1, 36124, Note_on_c, 9, 42, 0
1, 36239, Note_on_c, 9, 40, 0
1, 36240, Note_on_c, 9, 46, 110
1, 36249, Note_on_c, 9, 46, 0
1, 36480, Note_on_c, 9, 42, 110
1, 36480, Note_on_c, 9, 36, 107
1, 36484, Note_on_c, 9, 42, 0
1, 36599, Note_on_c, 9, 36, 0
1, 36600, Note_on_c, 9, 42, 69
1, 36600, Note_on_c, 9, 36, 78
1, 36604, Note_on_c, 9, 42, 0
1, 36720, Note_on_c, 9, 42, 82
1, 36724, Note_on_c, 9, 42, 0
1, 36840, Note_on_c, 9, 42, 84
1, 36844, Note_on_c, 9, 42, 0
1, 36959, Note_on_c, 9, 36, 0
1, 36960, Note_on_c, 9, 40, 122
1, 36960, Note_on_c, 9, 42, 100
1, 36964, Note_on_c, 9, 42, 0
1, 37079, Note_on_c, 9, 40, 0
1, 37080, Note_on_c, 9, 40, 56
1, 37080, Note_on_c, 9, 42, 72
1, 37084, Note_on_c, 9, 42, 0
1, 37199, Note_on_c, 9, 40, 0
1, 37200, Note_on_c, 9, 42, 82
1, 37204, Note_on_c, 9, 42, 0
1, 37320, Note_on_c, 9, 42, 75
1, 37324, Note_on_c, 9, 42, 0
1, 37440, Note_on_c, 9, 42, 82
1, 37440, Note_on_c, 9, 36, 104
1, 37444, Note_on_c, 9, 42, 0
1, 37560, Note_on_c, 9, 42, 77
1, 37564, Note_on_c, 9, 42, 0
1, 37680, Note_on_c, 9, 42, 75
1, 37684, Note_on_c, 9, 42, 0
1, 37800, Note_on_c, 9, 42, 77
1, 37804, Note_on_c, 9, 42, 0
1, 37919, Note_on_c, 9, 36, 0
1, 37920, Note_on_c, 9, 40, 127
1, 37920, Note_on_c, 9, 42, 86
1, 37924, Note_on_c, 9, 42, 0
1, 38039, Note_on_c, 9, 40, 0
1, 38040, Note_on_c, 9, 40, 61
1, 38040, Note_on_c, 9, 42, 86
1, 38044, Note_on_c, 9, 42, 0
1, 38159, Note_on_c, 9, 40, 0
1, 38160, Note_on_c, 9, 42, 59
1, 38164, Note_on_c, 9, 42, 0
1, 38280, Note_on_c, 9, 42, 72
1, 38284, Note_on_c, 9, 42, 0
1, 38400, Note_on_c, 9, 42, 90
1, 38400, Note_on_c, 9, 36, 104
1, 38404, Note_on_c, 9, 42, 0
1, 38520, Note_on_c, 9, 42, 77
1, 38524, Note_on_c, 9, 42, 0
1, 38640, Note_on_c, 9, 42, 81
1, 38644, Note_on_c, 9, 42, 0
1, 38760, Note_on_c, 9, 42, 82
1, 38764, Note_on_c, 9, 42, 0
1, 38879, Note_on_c, 9, 36, 0
1, 38880, Note_on_c, 9, 40, 119
1, 38880, Note_on_c, 9, 42, 86
1, 38884, Note_on_c, 9, 42, 0
1, 38999, Note_on_c, 9, 40, 0
1, 39000, Note_on_c, 9, 40, 53
1, 39000, Note_on_c, 9, 42, 74
1, 39004, Note_on_c, 9, 42, 0
1, 39119, Note_on_c, 9, 40, 0
1, 39120, Note_on_c, 9, 42, 75
1, 39124, Note_on_c, 9, 42, 0
1, 39240, Note_on_c, 9, 42, 67
1, 39244, Note_on_c, 9, 42, 0
1, 39360, Note_on_c, 9, 42, 70
1, 39360, Note_on_c, 9, 36, 100
1, 39364, Note_on_c, 9, 42, 0
1, 39480, Note_on_c, 9, 42, 70
1, 39484, Note_on_c, 9, 42, 0
1, 39600, Note_on_c, 9, 42, 78
1, 39604, Note_on_c, 9, 42, 0
1, 39720, Note_on_c, 9, 42, 67
1, 39724, Note_on_c, 9, 42, 0
1, 39839, Note_on_c, 9, 36, 0
1, 39840, Note_on_c, 9, 40, 122
1, 39840, Note_on_c, 9, 42, 90
1, 39844, Note_on_c, 9, 42, 0
1, 39959, Note_on_c, 9, 40, 0
1, 39960, Note_on_c, 9, 40, 56
1, 39960, Note_on_c, 9, 42, 100
1, 39964, Note_on_c, 9, 42, 0
1, 40079, Note_on_c, 9, 40, 0
1, 40080, Note_on_c, 9, 46, 105
1, 40089, Note_on_c, 9, 46, 0
1, 40320, Note_on_c, 9, 42, 120
1, 40320, Note_on_c, 9, 36, 116
1, 40324, Note_on_c, 9, 42, 0
1, 40439, Note_on_c, 9, 36, 0
1, 40440, Note_on_c, 9, 42, 97
1, 40440, Note_on_c, 9, 36, 84
1, 40444, Note_on_c, 9, 42, 0
1, 40560, Note_on_c, 9, 42, 75
1, 40564, Note_on_c, 9, 42, 0
1, 40680, Note_on_c, 9, 42, 67
1, 40684, Note_on_c, 9, 42, 0
1, 40799, Note_on_c, 9, 36, 0
1, 40800, Note_on_c, 9, 40, 123
1, 40800, Note_on_c, 9, 42, 100
1, 40804, Note_on_c, 9, 42, 0
1, 40919, Note_on_c, 9, 40, 0
1, 40920, Note_on_c, 9, 40, 57
1, 40920, Note_on_c, 9, 42, 82
1, 40924, Note_on_c, 9, 42, 0
1, 41039, Note_on_c, 9, 40, 0
1, 41040, Note_on_c, 9, 42, 54
1, 41044, Note_on_c, 9, 42, 0
1, 41160, Note_on_c, 9, 42, 74
1, 41164, Note_on_c, 9, 42, 0
1, 41280, Note_on_c, 9, 42, 86
1, 41280, Note_on_c, 9, 36, 107
1, 41284, Note_on_c, 9, 42, 0
1, 41400, Note_on_c, 9, 42, 57
1, 41404, Note_on_c, 9, 42, 0
1, 41520, Note_on_c, 9, 42, 63
1, 41524, Note_on_c, 9, 42, 0
1, 41640, Note_on_c, 9, 42, 79
1, 41644, Note_on_c, 9, 42, 0
1, 41759, Note_on_c, 9, 36, 0
1, 41760, Note_on_c, 9, 40, 127
1, 41760, Note_on_c, 9, 42, 86
1, 41764, Note_on_c, 9, 42, 0
1, 41879, Note_on_c, 9, 40, 0
1, 41880, Note_on_c, 9, 40, 64
1, 41999, Note_on_c, 9, 40, 0
1, 42000, Note_on_c, 9, 42, 72
1, 42004, Note_on_c, 9, 42, 0
1, 42120, Note_on_c, 9, 42, 84
1, 42124, Note_on_c, 9, 42, 0
1, 42240, Note_on_c, 9, 42, 86
1, 42240, Note_on_c, 9, 36, 113
1, 42244, Note_on_c, 9, 42, 0
1, 42360, Note_on_c, 9, 42, 90
1, 42364, Note_on_c, 9, 42, 0
1, 42480, Note_on_c, 9, 42, 77
1, 42484, Note_on_c, 9, 42, 0
1, 42600, Note_on_c, 9, 42, 78
1, 42604, Note_on_c, 9, 42, 0
1, 42719, Note_on_c, 9, 36, 0
1, 42720, Note_on_c, 9, 40, 127
1, 42720, Note_on_c, 9, 42, 97
1, 42724, Note_on_c, 9, 42, 0
1, 42839, Note_on_c, 9, 40, 0
1, 42840, Note_on_c, 9, 40, 67
1, 42840, Note_on_c, 9, 42, 86
1, 42844, Note_on_c, 9, 42, 0
1, 42959, Note_on_c, 9, 40, 0
1, 42960, Note_on_c, 9, 42, 75
1, 42964, Note_on_c, 9, 42, 0
1, 43080, Note_on_c, 9, 42, 69
1, 43084, Note_on_c, 9, 42, 0
1, 43200, Note_on_c, 9, 42, 84
1, 43200, Note_on_c, 9, 36, 100
1, 43204, Note_on_c, 9, 42, 0
1, 43320, Note_on_c, 9, 42, 84
1, 43324, Note_on_c, 9, 42, 0
1, 43440, Note_on_c, 9, 42, 79
1, 43444, Note_on_c, 9, 42, 0
1, 43560, Note_on_c, 9, 42, 81
1, 43564, Note_on_c, 9, 42, 0
1, 43679, Note_on_c, 9, 36, 0
1, 43680, Note_on_c, 9, 40, 127
1, 43680, Note_on_c, 9, 42, 82
1, 43684, Note_on_c, 9, 42, 0
1, 43799, Note_on_c, 9, 40, 0
1, 43800, Note_on_c, 9, 40, 64
1, 43800, Note_on_c, 9, 42, 100
1, 43804, Note_on_c, 9, 42, 0
1, 43919, Note_on_c, 9, 40, 0
1, 43920, Note_on_c, 9, 46, 110
1, 43929, Note_on_c, 9, 46, 0
1, 44160, Note_on_c, 9, 42, 110
1, 44160, Note_on_c, 9, 36, 107
1, 44164, Note_on_c, 9, 42, 0
1, 44279, Note_on_c, 9, 36, 0
1, 44280, Note_on_c, 9, 42, 69
1, 44280, Note_on_c, 9, 36, 78
1, 44284, Note_on_c, 9, 42, 0
1, 44400, Note_on_c, 9, 42, 82
1, 44404, Note_on_c, 9, 42, 0
1, 44520, Note_on_c, 9, 42, 84
1, 44524, Note_on_c, 9, 42, 0
1, 44639, Note_on_c, 9, 36, 0
1, 44640, Note_on_c, 9, 40, 122
1, 44640, Note_on_c, 9, 42, 100
1, 44644, Note_on_c, 9, 42, 0
1, 44759, Note_on_c, 9, 40, 0
1, 44760, Note_on_c, 9, 40, 56
1, 44760, Note_on_c, 9, 42, 72
1, 44764, Note_on_c, 9, 42, 0
1, 44879, Note_on_c, 9, 40, 0
1, 44880, Note_on_c, 9, 42, 82
1, 44884, Note_on_c, 9, 42, 0
1, 45000, Note_on_c, 9, 42, 75
1, 45004, Note_on_c, 9, 42, 0
1, 45120, Note_on_c, 9, 42, 82
1, 45120, Note_on_c, 9, 36, 104
1, 45124, Note_on_c, 9, 42, 0
1, 45240, Note_on_c, 9, 42, 77
1, 45244, Note_on_c, 9, 42, 0
1, 45360, Note_on_c, 9, 42, 75
1, 45364, Note_on_c, 9, 42, 0
1, 45480, Note_on_c, 9, 42, 77
1, 45484, Note_on_c, 9, 42, 0
1, 45599, Note_on_c, 9, 36, 0
1, 45600, Note_on_c, 9, 40, 127
1, 45600, Note_on_c, 9, 42, 86
1, 45604, Note_on_c, 9, 42, 0
1, 45719, Note_on_c, 9, 40, 0
1, 45720, Note_on_c, 9, 40, 61
1, 45720, Note_on_c, 9, 42, 86
1, 45724, Note_on_c, 9, 42, 0
1, 45839, Note_on_c, 9, 40, 0
1, 45840, Note_on_c, 9, 42, 59
1, 45844, Note_on_c, 9, 42, 0
1, 45960, Note_on_c, 9, 42, 72
1, 45964, Note_on_c, 9, 42, 0
1, 46080, Note_on_c, 9, 42, 90
1, 46080, Note_on_c, 9, 36, 104
1, 46084, Note_on_c, 9, 42, 0
1, 46200, Note_on_c, 9, 42, 77
1, 46204, Note_on_c, 9, 42, 0
1, 46320, Note_on_c, 9, 42, 81
1, 46324, Note_on_c, 9, 42, 0
1, 46440, Note_on_c, 9, 42, 82
1, 46444, Note_on_c, 9, 42, 0
1, 46559, Note_on_c, 9, 36, 0
1, 46560, Note_on_c, 9, 40, 119
1, 46560, Note_on_c, 9, 42, 86
1, 46564, Note_on_c, 9, 42, 0
1, 46679, Note_on_c, 9, 40, 0
1, 46680, Note_on_c, 9, 40, 53
1, 46680, Note_on_c, 9, 42, 74
1, 46684, Note_on_c, 9, 42, 0
1, 46799, Note_on_c, 9, 40, 0
1, 46800, Note_on_c, 9, 42, 75
1, 46804, Note_on_c, 9, 42, 0
1, 46920, Note_on_c, 9, 42, 67
1, 46924, Note_on_c, 9, 42, 0
1, 47040, Note_on_c, 9, 42, 70
1, 47040, Note_on_c, 9, 36, 100
1, 47044, Note_on_c, 9, 42, 0
1, 47160, Note_on_c, 9, 42, 70
1, 47164, Note_on_c, 9, 42, 0
1, 47280, Note_on_c, 9, 42, 78
1, 47284, Note_on_c, 9, 42, 0
1, 47400, Note_on_c, 9, 42, 67
1, 47404, Note_on_c, 9, 42, 0
1, 47519, Note_on_c, 9, 36, 0
1, 47520, Note_on_c, 9, 40, 122
1, 47520, Note_on_c, 9, 42, 90
1, 47524, Note_on_c, 9, 42, 0
1, 47639, Note_on_c, 9, 40, 0
1, 47640, Note_on_c, 9, 40, 56
1, 47640, Note_on_c, 9, 42, 100
1, 47644, Note_on_c, 9, 42, 0
1, 47759, Note_on_c, 9, 40, 0
1, 47760, Note_on_c, 9, 46, 105
1, 47769, Note_on_c, 9, 46, 0
1, 48000, Note_on_c, 9, 42, 120
1, 48000, Note_on_c, 9, 36, 116
1, 48004, Note_on_c, 9, 42, 0
1, 48119, Note_on_c, 9, 36, 0
1, 48120, Note_on_c, 9, 42, 97
1, 48120, Note_on_c, 9, 36, 84
1, 48124, Note_on_c, 9, 42, 0
1, 48240, Note_on_c, 9, 42, 75
1, 48244, Note_on_c, 9, 42, 0
1, 48360, Note_on_c, 9, 42, 67
1, 48364, Note_on_c, 9, 42, 0
1, 48479, Note_on_c, 9, 36, 0
1, 48480, Note_on_c, 9, 40, 123
1, 48480, Note_on_c, 9, 42, 100
1, 48484, Note_on_c, 9, 42, 0
1, 48599, Note_on_c, 9, 40, 0
1, 48600, Note_on_c, 9, 40, 57
1, 48600, Note_on_c, 9, 42, 82
1, 48604, Note_on_c, 9, 42, 0
1, 48719, Note_on_c, 9, 40, 0
1, 48720, Note_on_c, 9, 42, 54
1, 48724, Note_on_c, 9, 42, 0
1, 48840, Note_on_c, 9, 42, 74
1, 48844, Note_on_c, 9, 42, 0
1, 48960, Note_on_c, 9, 42, 86
1, 48960, Note_on_c, 9, 36, 107
1, 48964, Note_on_c, 9, 42, 0
1, 49080, Note_on_c, 9, 42, 57
1, 49084, Note_on_c, 9, 42, 0
1, 49200, Note_on_c, 9, 42, 63
1, 49204, Note_on_c, 9, 42, 0
1, 49320, Note_on_c, 9, 42, 79
1, 49324, Note_on_c, 9, 42, 0
1, 49439, Note_on_c, 9, 36, 0
1, 49440, Note_on_c, 9, 40, 127
1, 49440, Note_on_c, 9, 42, 86
1, 49444, Note_on_c, 9, 42, 0
1, 49559, Note_on_c, 9, 40, 0
1, 49560, Note_on_c, 9, 40, 64
1, 49679, Note_on_c, 9, 40, 0
1, 49680, Note_on_c, 9, 42, 72
1, 49684, Note_on_c, 9, 42, 0
1, 49800, Note_on_c, 9, 42, 84
1, 49804, Note_on_c, 9, 42, 0
1, 49920, Note_on_c, 9, 42, 86
1, 49920, Note_on_c, 9, 36, 113
1, 49924, Note_on_c, 9, 42, 0
1, 50040, Note_on_c, 9, 42, 90
1, 50044, Note_on_c, 9, 42, 0
1, 50160, Note_on_c, 9, 42, 77
1, 50164, Note_on_c, 9, 42, 0
1, 50280, Note_on_c, 9, 42, 78
1, 50284, Note_on_c, 9, 42, 0
1, 50399, Note_on_c, 9, 36, 0
1, 50400, Note_on_c, 9, 40, 127
1, 50400, Note_on_c, 9, 42, 97
1, 50404, Note_on_c, 9, 42, 0
1, 50519, Note_on_c, 9, 40, 0
1, 50520, Note_on_c, 9, 40, 67
1, 50520, Note_on_c, 9, 42, 86
1, 50524, Note_on_c, 9, 42, 0
1, 50639, Note_on_c, 9, 40, 0
1, 50640, Note_on_c, 9, 42, 75
1, 50644, Note_on_c, 9, 42, 0
1, 50760, Note_on_c, 9, 42, 69
1, 50764, Note_on_c, 9, 42, 0
1, 50880, Note_on_c, 9, 42, 84
1, 50880, Note_on_c, 9, 36, 100
1, 50884, Note_on_c, 9, 42, 0
1, 51000, Note_on_c, 9, 42, 84
1, 51004, Note_on_c, 9, 42, 0
1, 51120, Note_on_c, 9, 42, 79
1, 51124, Note_on_c, 9, 42, 0
1, 51240, Note_on_c, 9, 42, 81
1, 51244, Note_on_c, 9, 42, 0
1, 51359, Note_on_c, 9, 36, 0
1, 51360, Note_on_c, 9, 40, 127
1, 51360, Note_on_c, 9, 42, 82
1, 51364, Note_on_c, 9, 42, 0
1, 51479, Note_on_c, 9, 40, 0
1, 51480, Note_on_c, 9, 40, 64
1, 51480, Note_on_c, 9, 42, 100
1, 51484, Note_on_c, 9, 42, 0
1, 51599, Note_on_c, 9, 40, 0
1, 51600, Note_on_c, 9, 46, 110
1, 51609, Note_on_c, 9, 46, 0
1, 51840, Note_on_c, 9, 42, 110
1, 51840, Note_on_c, 9, 36, 107
1, 51844, Note_on_c, 9, 42, 0
1, 51959, Note_on_c, 9, 36, 0
1, 51960, Note_on_c, 9, 42, 69
1, 51960, Note_on_c, 9, 36, 78
1, 51964, Note_on_c, 9, 42, 0
1, 52080, Note_on_c, 9, 42, 82
1, 52084, Note_on_c, 9, 42, 0
1, 52200, Note_on_c, 9, 42, 84
1, 52204, Note_on_c, 9, 42, 0
1, 52319, Note_on_c, 9, 36, 0
1, 52320, Note_on_c, 9, 40, 122
1, 52320, Note_on_c, 9, 42, 100
1, 52324, Note_on_c, 9, 42, 0
1, 52439, Note_on_c, 9, 40, 0
1, 52440, Note_on_c, 9, 40, 56
1, 52440, Note_on_c, 9, 42, 72
1, 52444, Note_on_c, 9, 42, 0
1, 52559, Note_on_c, 9, 40, 0
1, 52560, Note_on_c, 9, 42, 82
1, 52564, Note_on_c, 9, 42, 0
1, 52680, Note_on_c, 9, 42, 75
1, 52684, Note_on_c, 9, 42, 0
1, 52800, Note_on_c, 9, 42, 82
1, 52800, Note_on_c, 9, 36, 104
1, 52804, Note_on_c, 9, 42, 0
1, 52920, Note_on_c, 9, 42, 77
1, 52924, Note_on_c, 9, 42, 0
1, 53040, Note_on_c, 9, 42, 75
1, 53044, Note_on_c, 9, 42, 0
1, 53160, Note_on_c, 9, 42, 77
1, 53164, Note_on_c, 9, 42, 0
1, 53279, Note_on_c, 9, 36, 0
1, 53280, Note_on_c, 9, 40, 127
1, 53280, Note_on_c, 9, 42, 86
1, 53284, Note_on_c, 9, 42, 0
1, 53399, Note_on_c, 9, 40, 0
1, 53400, Note_on_c, 9, 40, 61
1, 53400, Note_on_c, 9, 42, 86
1, 53404, Note_on_c, 9, 42, 0
1, 53519, Note_on_c, 9, 40, 0
1, 53520, Note_on_c, 9, 42, 59
1, 53524, Note_on_c, 9, 42, 0
1, 53640, Note_on_c, 9, 42, 72
1, 53644, Note_on_c, 9, 42, 0
1, 53760, Note_on_c, 9, 42, 90
1, 53760, Note_on_c, 9, 36, 104
1, 53764, Note_on_c, 9, 42, 0
1, 53880, Note_on_c, 9, 42, 77
1, 53884, Note_on_c, 9, 42, 0
1, 54000, Note_on_c, 9, 42, 81
1, 54004, Note_on_c, 9, 42, 0
1, 54120, Note_on_c, 9, 42, 82
1, 54124, Note_on_c, 9, 42, 0
1, 54239, Note_on_c, 9, 36, 0
1, 54240, Note_on_c, 9, 40, 119
1, 54240, Note_on_c, 9, 42, 86
1, 54244, Note_on_c, 9, 42, 0
1, 54359, Note_on_c, 9, 40, 0
1, 54360, Note_on_c, 9, 40, 53
1, 54360, Note_on_c, 9, 42, 74
1, 54364, Note_on_c, 9, 42, 0
1, 54479, Note_on_c, 9, 40, 0
1, 54480, Note_on_c, 9, 42, 75
1, 54484, Note_on_c, 9, 42, 0
1, 54600, Note_on_c, 9, 42, 67
1, 54604, Note_on_c, 9, 42, 0
1, 54720, Note_on_c, 9, 42, 70
1, 54720, Note_on_c, 9, 36, 100
1, 54724, Note_on_c, 9, 42, 0
1, 54840, Note_on_c, 9, 42, 70
1, 54844, Note_on_c, 9, 42, 0
1, 54960, Note_on_c, 9, 42, 78
1, 54964, Note_on_c, 9, 42, 0
1, 55080, Note_on_c, 9, 42, 67
1, 55084, Note_on_c, 9, 42, 0
1, 55199, Note_on_c, 9, 36, 0
1, 55200, Note_on_c, 9, 40, 122
1, 55200, Note_on_c, 9, 42, 90
1, 55204, Note_on_c, 9, 42, 0
1, 55319, Note_on_c, 9, 40, 0
1, 55320, Note_on_c, 9, 40, 56
1, 55320, Note_on_c, 9, 42, 100
1, 55324, Note_on_c, 9, 42, 0
1, 55439, Note_on_c, 9, 40, 0
1, 55440, Note_on_c, 9, 46, 105
1, 55449, Note_on_c, 9, 46, 0
1, 55680, Note_on_c, 9, 42, 120
1, 55680, Note_on_c, 9, 36, 116
1, 55684, Note_on_c, 9, 42, 0
1, 55799, Note_on_c, 9, 36, 0
1, 55800, Note_on_c, 9, 42, 97
1, 55800, Note_on_c, 9, 36, 84
1, 55804, Note_on_c, 9, 42, 0
1, 55920, Note_on_c, 9, 42, 75
1, 55924, Note_on_c, 9, 42, 0
1, 56040, Note_on_c, 9, 42, 67
1, 56044, Note_on_c, 9, 42, 0
1, 56159, Note_on_c, 9, 36, 0
1, 56160, Note_on_c, 9, 40, 123
1, 56160, Note_on_c, 9, 42, 100
1, 56164, Note_on_c, 9, 42, 0
1, 56279, Note_on_c, 9, 40, 0
1, 56280, Note_on_c, 9, 40, 57
1, 56280, Note_on_c, 9, 42, 82
1, 56284, Note_on_c, 9, 42, 0
1, 56399, Note_on_c, 9, 40, 0
1, 56400, Note_on_c, 9, 42, 54
1, 56404, Note_on_c, 9, 42, 0
1, 56520, Note_on_c, 9, 42, 74
1, 56524, Note_on_c, 9, 42, 0
1, 56640, Note_on_c, 9, 42, 86
1, 56640, Note_on_c, 9, 36, 107
1, 56644, Note_on_c, 9, 42, 0
1, 56760, Note_on_c, 9, 42, 57
1, 56764, Note_on_c, 9, 42, 0
1, 56880, Note_on_c, 9, 42, 63
1, 56884, Note_on_c, 9, 42, 0
1, 57000, Note_on_c, 9, 42, 79
1, 57004, Note_on_c, 9, 42, 0
1, 57119, Note_on_c, 9, 36, 0
1, 57120, Note_on_c, 9, 40, 127
1, 57120, Note_on_c, 9, 42, 86
1, 57124, Note_on_c, 9, 42, 0
1, 57239, Note_on_c, 9, 40, 0
1, 57240, Note_on_c, 9, 40, 64
1, 57359, Note_on_c, 9, 40, 0
1, 57360, Note_on_c, 9, 42, 72
1, 57364, Note_on_c, 9, 42, 0
1, 57480, Note_on_c, 9, 42, 84
1, 57484, Note_on_c, 9, 42, 0
1, 57600, Note_on_c, 9, 42, 86
1, 57600, Note_on_c, 9, 36, 113
1, 57604, Note_on_c, 9, 42, 0
1, 57720, Note_on_c, 9, 42, 90
1, 57724, Note_on_c, 9, 42, 0
1, 57840, Note_on_c, 9, 42, 77
1, 57844, Note_on_c, 9, 42, 0
1, 57960, Note_on_c, 9, 42, 78
1, 57964, Note_on_c, 9, 42, 0
1, 58079, Note_on_c, 9, 36, 0
1, 58080, Note_on_c, 9, 40, 127
1, 58080, Note_on_c, 9, 42, 97
1, 58084, Note_on_c, 9, 42, 0
1, 58199, Note_on_c, 9, 40, 0
1, 58200, Note_on_c, 9, 40, 67
1, 58200, Note_on_c, 9, 42, 86
1, 58204, Note_on_c, 9, 42, 0
1, 58319, Note_on_c, 9, 40, 0
1, 58320, Note_on_c, 9, 42, 75
1, 58324, Note_on_c, 9, 42, 0
1, 58440, Note_on_c, 9, 42, 69
1, 58444, Note_on_c, 9, 42, 0
1, 58560, Note_on_c, 9, 42, 84
1, 58560, Note_on_c, 9, 36, 100
1, 58564, Note_on_c, 9, 42, 0
1, 58680, Note_on_c, 9, 42, 84
1, 58684, Note_on_c, 9, 42, 0
1, 58800, Note_on_c, 9, 42, 79
1, 58804, Note_on_c, 9, 42, 0
1, 58920, Note_on_c, 9, 42, 81
1, 58924, Note_on_c, 9, 42, 0
1, 59039, Note_on_c, 9, 36, 0
1, 59040, Note_on_c, 9, 40, 127
1, 59040, Note_on_c, 9, 42, 82
1, 59044, Note_on_c, 9, 42, 0
1, 59159, Note_on_c, 9, 40, 0
1, 59160, Note_on_c, 9, 40, 64
1, 59160, Note_on_c, 9, 42, 100
1, 59164, Note_on_c, 9, 42, 0
1, 59279, Note_on_c, 9, 40, 0
1, 59280, Note_on_c, 9, 46, 110
1, 59289, Note_on_c, 9, 46, 0
1, 59520, Note_on_c, 9, 42, 110
1, 59520, Note_on_c, 9, 36, 107
1, 59524, Note_on_c, 9, 42, 0
1, 59639, Note_on_c, 9, 36, 0
1, 59640, Note_on_c, 9, 42, 69
1, 59640, Note_on_c, 9, 36, 78
1, 59644, Note_on_c, 9, 42, 0
1, 59760, Note_on_c, 9, 42, 82
1, 59764, Note_on_c, 9, 42, 0
1, 59880, Note_on_c, 9, 42, 84
1, 59884, Note_on_c, 9, 42, 0
1, 59999, Note_on_c, 9, 36, 0
1, 60000, Note_on_c, 9, 40, 122
1, 60000, Note_on_c, 9, 42, 100
1, 60004, Note_on_c, 9, 42, 0
1, 60119, Note_on_c, 9, 40, 0
1, 60120, Note_on_c, 9, 40, 56
1, 60120, Note_on_c, 9, 42, 72
1, 60124, Note_on_c, 9, 42, 0
1, 60239, Note_on_c, 9, 40, 0
1, 60240, Note_on_c, 9, 42, 82
1, 60244, Note_on_c, 9, 42, 0
1, 60360, Note_on_c, 9, 42, 75
1, 60364, Note_on_c, 9, 42, 0
1, 60480, Note_on_c, 9, 42, 82
1, 60480, Note_on_c, 9, 36, 104
1, 60484, Note_on_c, 9, 42, 0
1, 60600, Note_on_c, 9, 42, 77
1, 60604, Note_on_c, 9, 42, 0
1, 60720, Note_on_c, 9, 42, 75
1, 60724, Note_on_c, 9, 42, 0
1, 60840, Note_on_c, 9, 42, 77
1, 60844, Note_on_c, 9, 42, 0
1, 60959, Note_on_c, 9, 36, 0
1, 60960, Note_on_c, 9, 40, 127
1, 60960, Note_on_c, 9, 42, 86
1, 60964, Note_on_c, 9, 42, 0
1, 61079, Note_on_c, 9, 40, 0
1, 61080, Note_on_c, 9, 40, 61
1, 61080, Note_on_c, 9, 42, 86
1, 61084, Note_on_c, 9, 42, 0
1, 61199, Note_on_c, 9, 40, 0
1, 61200, Note_on_c, 9, 42, 59
1, 61204, Note_on_c, 9, 42, 0
1, 61320, Note_on_c, 9, 42, 72
1, 61324, Note_on_c, 9, 42, 0
1, 61440, Note_on_c, 9, 42, 90
1, 61440, Note_on_c, 9, 36, 104
1, 61444, Note_on_c, 9, 42, 0
1, 61560, Note_on_c, 9, 42, 77
1, 61564, Note_on_c, 9, 42, 0
1, 61680, Note_on_c, 9, 42, 81
1, 61684, Note_on_c, 9, 42, 0
1, 61800, Note_on_c, 9, 42, 82
1, 61804, Note_on_c, 9, 42, 0
1, 61919, Note_on_c, 9, 36, 0
1, 61920, Note_on_c, 9, 40, 119
1, 61920, Note_on_c, 9, 42, 86
1, 61924, Note_on_c, 9, 42, 0
1, 62039, Note_on_c, 9, 40, 0
1, 62040, Note_on_c, 9, 40, 53
1, 62040, Note_on_c, 9, 42, 74
1, 62044, Note_on_c, 9, 42, 0
1, 62159, Note_on_c, 9, 40, 0
1, 62160, Note_on_c, 9, 42, 75
1, 62164, Note_on_c, 9, 42, 0
1, 62280, Note_on_c, 9, 42, 67
1, 62284, Note_on_c, 9, 42, 0
1, 62400, Note_on_c, 9, 42, 70
1, 62400, Note_on_c, 9, 36, 100
1, 62404, Note_on_c, 9, 42, 0
1, 62520, Note_on_c, 9, 42, 70
1, 62524, Note_on_c, 9, 42, 0
1, 62640, Note_on_c, 9, 42, 78
1, 62644, Note_on_c, 9, 42, 0
1, 62760, Note_on_c, 9, 42, 67
1, 62764, Note_on_c, 9, 42, 0
1, 62879, Note_on_c, 9, 36, 0
1, 62880, Note_on_c, 9, 40, 122
1, 62880, Note_on_c, 9, 42, 90
1, 62884, Note_on_c, 9, 42, 0
1, 62999, Note_on_c, 9, 40, 0
1, 63000, Note_on_c, 9, 40, 56
1, 63000, Note_on_c, 9, 42, 100
1, 63004, Note_on_c, 9, 42, 0
1, 63119, Note_on_c, 9, 40, 0
1, 63120, Note_on_c, 9, 46, 105
1, 63129, Note_on_c, 9, 46, 0
1, 63360, Note_on_c, 9, 42, 120
1, 63360, Note_on_c, 9, 36, 116
1, 63364, Note_on_c, 9, 42, 0
1, 63479, Note_on_c, 9, 36, 0
1, 63480, Note_on_c, 9, 42, 97
1, 63480, Note_on_c, 9, 36, 84
1, 63484, Note_on_c, 9, 42, 0
1, 63600, Note_on_c, 9, 42, 75
1, 63604, Note_on_c, 9, 42, 0
1, 63720, Note_on_c, 9, 42, 67
1, 63724, Note_on_c, 9, 42, 0
1, 63839, Note_on_c, 9, 36, 0
1, 63840, Note_on_c, 9, 40, 123
1, 63840, Note_on_c, 9, 42, 100
1, 63844, Note_on_c, 9, 42, 0
1, 63959, Note_on_c, 9, 40, 0
1, 63960, Note_on_c, 9, 40, 57
1, 63960, Note_on_c, 9, 42, 82
1, 63964, Note_on_c, 9, 42, 0
1, 64079, Note_on_c, 9, 40, 0
1, 64080, Note_on_c, 9, 42, 54
1, 64084, Note_on_c, 9, 42, 0
1, 64200, Note_on_c, 9, 42, 74
1, 64204, Note_on_c, 9, 42, 0
1, 64320, Note_on_c, 9, 42, 86
1, 64320, Note_on_c, 9, 36, 107
1, 64324, Note_on_c, 9, 42, 0
1, 64440, Note_on_c, 9, 42, 57
1, 64444, Note_on_c, 9, 42, 0
1, 64560, Note_on_c, 9, 42, 63
1, 64564, Note_on_c, 9, 42, 0
1, 64680, Note_on_c, 9, 42, 79
1, 64684, Note_on_c, 9, 42, 0
1, 64799, Note_on_c, 9, 36, 0
1, 64800, Note_on_c, 9, 40, 127
1, 64800, Note_on_c, 9, 42, 86
1, 64804, Note_on_c, 9, 42, 0
1, 64919, Note_on_c, 9, 40, 0
1, 64920, Note_on_c, 9, 40, 64
1, 65039, Note_on_c, 9, 40, 0
1, 65040, Note_on_c, 9, 42, 72
1, 65044, Note_on_c, 9, 42, 0
1, 65160, Note_on_c, 9, 42, 84
1, 65164, Note_on_c, 9, 42, 0
1, 65280, Note_on_c, 9, 42, 86
1, 65280, Note_on_c, 9, 36, 113
1, 65284, Note_on_c, 9, 42, 0
1, 65400, Note_on_c, 9, 42, 90
1, 65404, Note_on_c, 9, 42, 0
1, 65520, Note_on_c, 9, 42, 77
1, 65524, Note_on_c, 9, 42, 0
1, 65640, Note_on_c, 9, 42, 78
1, 65644, Note_on_c, 9, 42, 0
1, 65759, Note_on_c, 9, 36, 0
1, 65760, Note_on_c, 9, 40, 127
1, 65760, Note_on_c, 9, 42, 97
1, 65764, Note_on_c, 9, 42, 0
1, 65879, Note_on_c, 9, 40, 0
1, 65880, Note_on_c, 9, 40, 67
1, 65880, Note_on_c, 9, 42, 86
1, 65884, Note_on_c, 9, 42, 0
1, 65999, Note_on_c, 9, 40, 0
1, 66000, Note_on_c, 9, 42, 75
1, 66004, Note_on_c, 9, 42, 0
1, 66120, Note_on_c, 9, 42, 69
1, 66124, Note_on_c, 9, 42, 0
1, 66240, Note_on_c, 9, 42, 84
1, 66240, Note_on_c, 9, 36, 100
1, 66244, Note_on_c, 9, 42, 0
1, 66360, Note_on_c, 9, 42, 84
1, 66364, Note_on_c, 9, 42, 0
1, 66480, Note_on_c, 9, 42, 79
1, 66484, Note_on_c, 9, 42, 0
1, 66600, Note_on_c, 9, 42, 81
1, 66604, Note_on_c, 9, 42, 0
1, 66719, Note_on_c, 9, 36, 0
1, 66720, Note_on_c, 9, 40, 127
1, 66720, Note_on_c, 9, 42, 82
1, 66724, Note_on_c, 9, 42, 0
1, 66839, Note_on_c, 9, 40, 0
1, 66840, Note_on_c, 9, 40, 64
1, 66840, Note_on_c, 9, 42, 100
1, 66844, Note_on_c, 9, 42, 0
1, 66959, Note_on_c, 9, 40, 0
1, 66960, Note_on_c, 9, 46, 110
1, 66969, Note_on_c, 9, 46, 0
1, 67200, Note_on_c, 9, 42, 110
1, 67200, Note_on_c, 9, 36, 107
1, 67204, Note_on_c, 9, 42, 0
1, 67319, Note_on_c, 9, 36, 0
1, 67320, Note_on_c, 9, 42, 69
1, 67320, Note_on_c, 9, 36, 78
1, 67324, Note_on_c, 9, 42, 0
1, 67440, Note_on_c, 9, 42, 82
1, 67444, Note_on_c, 9, 42, 0
1, 67560, Note_on_c, 9, 42, 84
1, 67564, Note_on_c, 9, 42, 0
1, 67679, Note_on_c, 9, 36, 0
1, 67680, Note_on_c, 9, 40, 122
1, 67680, Note_on_c, 9, 42, 100
1, 67684, Note_on_c, 9, 42, 0
1, 67799, Note_on_c, 9, 40, 0
1, 67800, Note_on_c, 9, 40, 56
1, 67800, Note_on_c, 9, 42, 72
1, 67804, Note_on_c, 9, 42, 0
1, 67919, Note_on_c, 9, 40, 0
1, 67920, Note_on_c, 9, 42, 82
1, 67924, Note_on_c, 9, 42, 0
1, 68040, Note_on_c, 9, 42, 75
1, 68044, Note_on_c, 9, 42, 0
1, 68160, Note_on_c, 9, 42, 82
1, 68160, Note_on_c, 9, 36, 104
1, 68164, Note_on_c, 9, 42, 0
1, 68280, Note_on_c, 9, 42, 77
1, 68284, Note_on_c, 9, 42, 0
1, 68400, Note_on_c, 9, 42, 75
1, 68404, Note_on_c, 9, 42, 0
1, 68520, Note_on_c, 9, 42, 77
1, 68524, Note_on_c, 9, 42, 0
1, 68639, Note_on_c, 9, 36, 0
1, 68640, Note_on_c, 9, 40, 127
1, 68640, Note_on_c, 9, 42, 86
1, 68644, Note_on_c, 9, 42, 0
1, 68759, Note_on_c, 9, 40, 0
1, 68760, Note_on_c, 9, 40, 61
1, 68760, Note_on_c, 9, 42, 86
1, 68764, Note_on_c, 9, 42, 0
1, 68879, Note_on_c, 9, 40, 0
1, 68880, Note_on_c, 9, 42, 59
1, 68884, Note_on_c, 9, 42, 0
1, 69000, Note_on_c, 9, 42, 72
1, 69004, Note_on_c, 9, 42, 0
1, 69120, Note_on_c, 9, 42, 90
1, 69120, Note_on_c, 9, 36, 104
1, 69124, Note_on_c, 9, 42, 0
1, 69240, Note_on_c, 9, 42, 77
1, 69244, Note_on_c, 9, 42, 0
1, 69360, Note_on_c, 9, 42, 81
1, 69364, Note_on_c, 9, 42, 0
1, 69480, Note_on_c, 9, 42, 82
1, 69484, Note_on_c, 9, 42, 0
1, 69599, Note_on_c, 9, 36, 0
1, 69600, Note_on_c, 9, 40, 119
1, 69600, Note_on_c, 9, 42, 86
1, 69604, Note_on_c, 9, 42, 0
1, 69719, Note_on_c, 9, 40, 0
1, 69720, Note_on_c, 9, 40, 53
1, 69720, Note_on_c, 9, 42, 74
1, 69724, Note_on_c, 9, 42, 0
1, 69839, Note_on_c, 9, 40, 0
1, 69840, Note_on_c, 9, 42, 75
1, 69844, Note_on_c, 9, 42, 0
1, 69960, Note_on_c, 9, 42, 67
1, 69964, Note_on_c, 9, 42, 0
1, 70080, Note_on_c, 9, 42, 70
1, 70080, Note_on_c, 9, 36, 100
1, 70084, Note_on_c, 9, 42, 0
1, 70200, Note_on_c, 9, 42, 70
1, 70204, Note_on_c, 9, 42, 0
1, 70320, Note_on_c, 9, 42, 78
1, 70324, Note_on_c, 9, 42, 0
1, 70440, Note_on_c, 9, 42, 67
1, 70444, Note_on_c, 9, 42, 0
1, 70559, Note_on_c, 9, 36, 0
1, 70560, Note_on_c, 9, 40, 122
1, 70560, Note_on_c, 9, 42, 90
1, 70564, Note_on_c, 9, 42, 0
1, 70679, Note_on_c, 9, 40, 0
1, 70680, Note_on_c, 9, 40, 56
1, 70680, Note_on_c, 9, 42, 100
1, 70684, Note_on_c, 9, 42, 0
1, 70799, Note_on_c, 9, 40, 0
1, 70800, Note_on_c, 9, 46, 105
1, 70809, Note_on_c, 9, 46, 0
1, 71040, Note_on_c, 9, 42, 120
1, 71040, Note_on_c, 9, 36, 116
1, 71044, Note_on_c, 9, 42, 0
1, 71159, Note_on_c, 9, 36, 0
1, 71160, Note_on_c, 9, 42, 97
1, 71160, Note_on_c, 9, 36, 84
1, 71164, Note_on_c, 9, 42, 0
1, 71280, Note_on_c, 9, 42, 75
1, 71284, Note_on_c, 9, 42, 0
1, 71400, Note_on_c, 9, 42, 67
1, 71404, Note_on_c, 9, 42, 0
1, 71519, Note_on_c, 9, 36, 0
1, 71520, Note_on_c, 9, 40, 123
1, 71520, Note_on_c, 9, 42, 100
1, 71524, Note_on_c, 9, 42, 0
1, 71639, Note_on_c, 9, 40, 0
1, 71640, Note_on_c, 9, 40, 57
1, 71640, Note_on_c, 9, 42, 82
1, 71644, Note_on_c, 9, 42, 0
1, 71759, Note_on_c, 9, 40, 0
1, 71760, Note_on_c, 9, 42, 54
1, 71764, Note_on_c, 9, 42, 0
1, 71880, Note_on_c, 9, 42, 74
1, 71884, Note_on_c, 9, 42, 0
1, 72000, Note_on_c, 9, 42, 86
1, 72000, Note_on_c, 9, 36, 107
1, 72004, Note_on_c, 9, 42, 0
1, 72120, Note_on_c, 9, 42, 57
1, 72124, Note_on_c, 9, 42, 0
1, 72240, Note_on_c, 9, 42, 63
1, 72244, Note_on_c, 9, 42, 0
1, 72360, Note_on_c, 9, 42, 79
1, 72364, Note_on_c, 9, 42, 0
1, 72479, Note_on_c, 9, 36, 0
1, 72480, Note_on_c, 9, 40, 127
1, 72480, Note_on_c, 9, 42, 86
1, 72484, Note_on_c, 9, 42, 0
1, 72599, Note_on_c, 9, 40, 0
1, 72600, Note_on_c, 9, 40, 64
1, 72719, Note_on_c, 9, 40, 0
1, 72720, Note_on_c, 9, 42, 72
1, 72724, Note_on_c, 9, 42, 0
1, 72840, Note_on_c, 9, 42, 84
1, 72844, Note_on_c, 9, 42, 0
1, 72960, Note_on_c, 9, 42, 86
1, 72960, Note_on_c, 9, 36, 113
1, 72964, Note_on_c, 9, 42, 0
1, 73080, Note_on_c, 9, 42, 90
1, 73084, Note_on_c, 9, 42, 0
1, 73200, Note_on_c, 9, 42, 77
1, 73204, Note_on_c, 9, 42, 0
1, 73320, Note_on_c, 9, 42, 78
1, 73324, Note_on_c, 9, 42, 0
1, 73439, Note_on_c, 9, 36, 0
1, 73440, Note_on_c, 9, 40, 127
1, 73440, Note_on_c, 9, 42, 97
1, 73444, Note_on_c, 9, 42, 0
1, 73559, Note_on_c, 9, 40, 0
1, 73560, Note_on_c, 9, 40, 67
1, 73560, Note_on_c, 9, 42, 86
1, 73564, Note_on_c, 9, 42, 0
1, 73679, Note_on_c, 9, 40, 0
1, 73680, Note_on_c, 9, 42, 75
1, 73684, Note_on_c, 9, 42, 0
1, 73800, Note_on_c, 9, 42, 69
1, 73804, Note_on_c, 9, 42, 0
1, 73920, Note_on_c, 9, 42, 84
1, 73920, Note_on_c, 9, 36, 100
1, 73924, Note_on_c, 9, 42, 0
1, 74040, Note_on_c, 9, 42, 84
1, 74044, Note_on_c, 9, 42, 0
1, 74160, Note_on_c, 9, 42, 79
1, 74164, Note_on_c, 9, 42, 0
1, 74280, Note_on_c, 9, 42, 81
1, 74284, Note_on_c, 9, 42, 0
1, 74399, Note_on_c, 9, 36, 0
1, 74400, Note_on_c, 9, 40, 127
1, 74400, Note_on_c, 9, 42, 82
1, 74404, Note_on_c, 9, 42, 0
1, 74519, Note_on_c, 9, 40, 0
1, 74520, Note_on_c, 9, 40, 64
1, 74520, Note_on_c, 9, 42, 100
1, 74524, Note_on_c, 9, 42, 0
1, 74639, Note_on_c, 9, 40, 0
1, 74640, Note_on_c, 9, 46, 110
1, 74649, Note_on_c, 9, 46, 0
1, 74880, Note_on_c, 9, 42, 110
1, 74880, Note_on_c, 9, 36, 107
1, 74884, Note_on_c, 9, 42, 0
1, 74999, Note_on_c, 9, 36, 0
1, 75000, Note_on_c, 9, 42, 69
1, 75000, Note_on_c, 9, 36, 78
1, 75004, Note_on_c, 9, 42, 0
1, 75120, Note_on_c, 9, 42, 82
1, 75124, Note_on_c, 9, 42, 0
1, 75240, Note_on_c, 9, 42, 84
1, 75244, Note_on_c, 9, 42, 0
1, 75359, Note_on_c, 9, 36, 0
1, 75360, Note_on_c, 9, 40, 122
1, 75360, Note_on_c, 9, 42, 100
1, 75364, Note_on_c, 9, 42, 0
1, 75479, Note_on_c, 9, 40, 0
1, 75480, Note_on_c, 9, 40, 56
1, 75480, Note_on_c, 9, 42, 72
1, 75484, Note_on_c, 9, 42, 0
1, 75599, Note_on_c, 9, 40, 0
1, 75600, Note_on_c, 9, 42, 82
1, 75604, Note_on_c, 9, 42, 0
1, 75720, Note_on_c, 9, 42, 75
1, 75724, Note_on_c, 9, 42, 0
1, 75840, Note_on_c, 9, 42, 82
1, 75840, Note_on_c, 9, 36, 104
1, 75844, Note_on_c, 9, 42, 0
1, 75960, Note_on_c, 9, 42, 77
1, 75964, Note_on_c, 9, 42, 0
1, 76080, Note_on_c, 9, 42, 75
1, 76084, Note_on_c, 9, 42, 0
1, 76200, Note_on_c, 9, 42, 77
1, 76204, Note_on_c, 9, 42, 0
1, 76319, Note_on_c, 9, 36, 0
1, 76320, Note_on_c, 9, 40, 127
1, 76320, Note_on_c, 9, 42, 86
1, 76324, Note_on_c, 9, 42, 0
1, 76439, Note_on_c, 9, 40, 0
1, 76440, Note_on_c, 9, 40, 61
1, 76440, Note_on_c, 9, 42, 86
1, 76444, Note_on_c, 9, 42, 0
1, 76559, Note_on_c, 9, 40, 0
1, 76560, Note_on_c, 9, 42, 59
1, 76564, Note_on_c, 9, 42, 0
1, 76680, Note_on_c, 9, 42, 72
1, 76684, Note_on_c, 9, 42, 0
1, 76800, Note_on_c, 9, 42, 90
1, 76800, Note_on_c, 9, 36, 104
1, 76804, Note_on_c, 9, 42, 0
1, 76920, Note_on_c, 9, 42, 77
1, 76924, Note_on_c, 9, 42, 0
1, 77040, Note_on_c, 9, 42, 81
1, 77044, Note_on_c, 9, 42, 0
1, 77160, Note_on_c, 9, 42, 82
1, 77164, Note_on_c, 9, 42, 0
1, 77279, Note_on_c, 9, 36, 0
1, 77280, Note_on_c, 9, 40, 119
1, 77280, Note_on_c, 9, 42, 86
1, 77284, Note_on_c, 9, 42, 0
1, 77399, Note_on_c, 9, 40, 0
1, 77400, Note_on_c, 9, 40, 53
1, 77400, Note_on_c, 9, 42, 74
1, 77404, Note_on_c, 9, 42, 0
1, 77519, Note_on_c, 9, 40, 0
1, 77520, Note_on_c, 9, 42, 75
1, 77524, Note_on_c, 9, 42, 0
1, 77640, Note_on_c, 9, 42, 67
1, 77644, Note_on_c, 9, 42, 0
1, 77760, Note_on_c, 9, 42, 70
1, 77760, Note_on_c, 9, 36, 100
1, 77764, Note_on_c, 9, 42, 0
1, 77880, Note_on_c, 9, 42, 70
1, 77884, Note_on_c, 9, 42, 0
1, 78000, Note_on_c, 9, 42, 78
1, 78004, Note_on_c, 9, 42, 0
1, 78120, Note_on_c, 9, 42, 67
1, 78124, Note_on_c, 9, 42, 0
1, 78239, Note_on_c, 9, 36, 0
1, 78240, Note_on_c, 9, 40, 122
1, 78240, Note_on_c, 9, 42, 90
1, 78244, Note_on_c, 9, 42, 0
1, 78359, Note_on_c, 9, 40, 0
1, 78360, Note_on_c, 9, 40, 56
1, 78360, Note_on_c, 9, 42, 100
1, 78364, Note_on_c, 9, 42, 0
1, 78479, Note_on_c, 9, 40, 0
1, 78480, Note_on_c, 9, 46, 105
1, 78489, Note_on_c, 9, 46, 0
1, 78720, Note_on_c, 9, 42, 120
1, 78720, Note_on_c, 9, 36, 116
1, 78724, Note_on_c, 9, 42, 0
1, 78839, Note_on_c, 9, 36, 0
1, 78840, Note_on_c, 9, 42, 97
1, 78840, Note_on_c, 9, 36, 84
1, 78844, Note_on_c, 9, 42, 0
1, 78960, Note_on_c, 9, 42, 75
1, 78964, Note_on_c, 9, 42, 0
1, 79080, Note_on_c, 9, 42, 67
1, 79084, Note_on_c, 9, 42, 0
1, 79199, Note_on_c, 9, 36, 0
1, 79200, Note_on_c, 9, 40, 123
1, 79200, Note_on_c, 9, 42, 100
1, 79204, Note_on_c, 9, 42, 0
1, 79319, Note_on_c, 9, 40, 0
1, 79320, Note_on_c, 9, 40, 57
1, 79320, Note_on_c, 9, 42, 82
1, 79324, Note_on_c, 9, 42, 0
1, 79439, Note_on_c, 9, 40, 0
1, 79440, Note_on_c, 9, 42, 54
1, 79444, Note_on_c, 9, 42, 0
1, 79560, Note_on_c, 9, 42, 74
1, 79564, Note_on_c, 9, 42, 0
1, 79680, Note_on_c, 9, 42, 86
1, 79680, Note_on_c, 9, 36, 107
1, 79684, Note_on_c, 9, 42, 0
1, 79800, Note_on_c, 9, 42, 57
1, 79804, Note_on_c, 9, 42, 0
1, 79920, Note_on_c, 9, 42, 63
1, 79924, Note_on_c, 9, 42, 0
1, 80040, Note_on_c, 9, 42, 79
1, 80044, Note_on_c, 9, 42, 0
1, 80159, Note_on_c, 9, 36, 0
1, 80160, Note_on_c, 9, 40, 127
1, 80160, Note_on_c, 9, 42, 86
1, 80164, Note_on_c, 9, 42, 0
1, 80279, Note_on_c, 9, 40, 0
1, 80280, Note_on_c, 9, 40, 64
1, 80399, Note_on_c, 9, 40, 0
1, 80400, Note_on_c, 9, 42, 72
1, 80404, Note_on_c, 9, 42, 0
1, 80520, Note_on_c, 9, 42, 84
1, 80524, Note_on_c, 9, 42, 0
1, 80640, Note_on_c, 9, 42, 86
1, 80640, Note_on_c, 9, 36, 113
1, 80644, Note_on_c, 9, 42, 0
1, 80760, Note_on_c, 9, 42, 90
1, 80764, Note_on_c, 9, 42, 0
1, 80880, Note_on_c, 9, 42, 77
1, 80884, Note_on_c, 9, 42, 0
1, 81000, Note_on_c, 9, 42, 78
1, 81004, Note_on_c, 9, 42, 0
1, 81119, Note_on_c, 9, 36, 0
1, 81120, Note_on_c, 9, 40, 127
1, 81120, Note_on_c, 9, 42, 97
1, 81124, Note_on_c, 9, 42, 0
1, 81239, Note_on_c, 9, 40, 0
1, 81240, Note_on_c, 9, 40, 67
1, 81240, Note_on_c, 9, 42, 86
1, 81244, Note_on_c, 9, 42, 0
1, 81359, Note_on_c, 9, 40, 0
1, 81360, Note_on_c, 9, 42, 75
1, 81364, Note_on_c, 9, 42, 0
1, 81480, Note_on_c, 9, 42, 69
1, 81484, Note_on_c, 9, 42, 0
1, 81600, Note_on_c, 9, 42, 84
1, 81600, Note_on_c, 9, 36, 100
1, 81604, Note_on_c, 9, 42, 0
1, 81720, Note_on_c, 9, 42, 84
1, 81724, Note_on_c, 9, 42, 0
1, 81840, Note_on_c, 9, 42, 79
1, 81844, Note_on_c, 9, 42, 0
1, 81960, Note_on_c, 9, 42, 81
1, 81964, Note_on_c, 9, 42, 0
1, 82079, Note_on_c, 9, 36, 0
1, 82080, Note_on_c, 9, 40, 127
1, 82080, Note_on_c, 9, 42, 82
1, 82084, Note_on_c, 9, 42, 0
1, 82199, Note_on_c, 9, 40, 0
1, 82200, Note_on_c, 9, 40, 64
1, 82200, Note_on_c, 9, 42, 100
1, 82204, Note_on_c, 9, 42, 0
1, 82319, Note_on_c, 9, 40, 0
1, 82320, Note_on_c, 9, 46, 110
1, 82329, Note_on_c, 9, 46, 0
1, 82560, Note_on_c, 9, 42, 110
1, 82560, Note_on_c, 9, 36, 107
1, 82564, Note_on_c, 9, 42, 0
1, 82679, Note_on_c, 9, 36, 0
1, 82680, Note_on_c, 9, 42, 69
1, 82680, Note_on_c, 9, 36, 78
1, 82684, Note_on_c, 9, 42, 0
1, 82800, Note_on_c, 9, 42, 82
1, 82804, Note_on_c, 9, 42, 0
1, 82920, Note_on_c, 9, 42, 84
1, 82924, Note_on_c, 9, 42, 0
1, 83039, Note_on_c, 9, 36, 0
1, 83040, Note_on_c, 9, 40, 122
1, 83040, Note_on_c, 9, 42, 100
1, 83044, Note_on_c, 9, 42, 0
1, 83159, Note_on_c, 9, 40, 0
1, 83160, Note_on_c, 9, 40, 56
1, 83160, Note_on_c, 9, 42, 72
1, 83164, Note_on_c, 9, 42, 0
1, 83279, Note_on_c, 9, 40, 0
1, 83280, Note_on_c, 9, 42, 82
1, 83284, Note_on_c, 9, 42, 0
1, 83400, Note_on_c, 9, 42, 75
1, 83404, Note_on_c, 9, 42, 0
1, 83520, Note_on_c, 9, 42, 82
1, 83520, Note_on_c, 9, 36, 104
1, 83524, Note_on_c, 9, 42, 0
1, 83640, Note_on_c, 9, 42, 77
1, 83644, Note_on_c, 9, 42, 0
1, 83760, Note_on_c, 9, 42, 75
1, 83764, Note_on_c, 9, 42, 0
1, 83880, Note_on_c, 9, 42, 77
1, 83884, Note_on_c, 9, 42, 0
1, 83999, Note_on_c, 9, 36, 0
1, 84000, Note_on_c, 9, 40, 127
1, 84000, Note_on_c, 9, 42, 86
1, 84004, Note_on_c, 9, 42, 0
1, 84119, Note_on_c, 9, 40, 0
1, 84120, Note_on_c, 9, 40, 61
1, 84120, Note_on_c, 9, 42, 86
1, 84124, Note_on_c, 9, 42, 0
1, 84239, Note_on_c, 9, 40, 0
1, 84240, Note_on_c, 9, 42, 59
1, 84244, Note_on_c, 9, 42, 0
1, 84360, Note_on_c, 9, 42, 72
1, 84364, Note_on_c, 9, 42, 0
1, 84480, Note_on_c, 9, 42, 90
1, 84480, Note_on_c, 9, 36, 104
1, 84484, Note_on_c, 9, 42, 0
1, 84600, Note_on_c, 9, 42, 77
1, 84604, Note_on_c, 9, 42, 0
1, 84720, Note_on_c, 9, 42, 81
1, 84724, Note_on_c, 9, 42, 0
1, 84840, Note_on_c, 9, 42, 82
1, 84844, Note_on_c, 9, 42, 0
1, 84959, Note_on_c, 9, 36, 0
1, 84960, Note_on_c, 9, 40, 119
1, 84960, Note_on_c, 9, 42, 86
1, 84964, Note_on_c, 9, 42, 0
1, 85079, Note_on_c, 9, 40, 0
1, 85080, Note_on_c, 9, 40, 53
1, 85080, Note_on_c, 9, 42, 74
1, 85084, Note_on_c, 9, 42, 0
1, 85199, Note_on_c, 9, 40, 0
1, 85200, Note_on_c, 9, 42, 75
1, 85204, Note_on_c, 9, 42, 0
1, 85320, Note_on_c, 9, 42, 67
1, 85324, Note_on_c, 9, 42, 0
1, 85440, Note_on_c, 9, 42, 70
1, 85440, Note_on_c, 9, 36, 100
1, 85444, Note_on_c, 9, 42, 0
1, 85560, Note_on_c, 9, 42, 70
1, 85564, Note_on_c, 9, 42, 0
1, 85680, Note_on_c, 9, 42, 78
1, 85684, Note_on_c, 9, 42, 0
1, 85800, Note_on_c, 9, 42, 67
1, 85804, Note_on_c, 9, 42, 0
1, 85919, Note_on_c, 9, 36, 0
1, 85920, Note_on_c, 9, 40, 122
1, 85920, Note_on_c, 9, 42, 90
1, 85924, Note_on_c, 9, 42, 0
1, 86039, Note_on_c, 9, 40, 0
1, 86040, Note_on_c, 9, 40, 56
1, 86040, Note_on_c, 9, 42, 100
1, 86044, Note_on_c, 9, 42, 0
1, 86159, Note_on_c, 9, 40, 0
1, 86160, Note_on_c, 9, 46, 105
1, 86169, Note_on_c, 9, 46, 0
1, 86400, Note_on_c, 9, 42, 120
1, 86400, Note_on_c, 9, 36, 116
1, 86404, Note_on_c, 9, 42, 0
1, 86519, Note_on_c, 9, 36, 0
1, 86520, Note_on_c, 9, 42, 97
1, 86520, Note_on_c, 9, 36, 84
1, 86524, Note_on_c, 9, 42, 0
1, 86640, Note_on_c, 9, 42, 75
1, 86644, Note_on_c, 9, 42, 0
1, 86760, Note_on_c, 9, 42, 67
1, 86764, Note_on_c, 9, 42, 0
1, 86879, Note_on_c, 9, 36, 0
1, 86880, Note_on_c, 9, 40, 123
1, 86880, Note_on_c, 9, 42, 100
1, 86884, Note_on_c, 9, 42, 0
1, 86999, Note_on_c, 9, 40, 0
1, 87000, Note_on_c, 9, 40, 57
1, 87000, Note_on_c, 9, 42, 82
1, 87004, Note_on_c, 9, 42, 0
1, 87119, Note_on_c, 9, 40, 0
1, 87120, Note_on_c, 9, 42, 54
1, 87124, Note_on_c, 9, 42, 0
1, 87240, Note_on_c, 9, 42, 74
1, 87244, Note_on_c, 9, 42, 0
1, 87360, Note_on_c, 9, 42, 86
1, 87360, Note_on_c, 9, 36, 107
1, 87364, Note_on_c, 9, 42, 0
1, 87480, Note_on_c, 9, 42, 57
1, 87484, Note_on_c, 9, 42, 0
1, 87600, Note_on_c, 9, 42, 63
1, 87604, Note_on_c, 9, 42, 0
1, 87720, Note_on_c, 9, 42, 79
1, 87724, Note_on_c, 9, 42, 0
1, 87839, Note_on_c, 9, 36, 0
1, 87840, Note_on_c, 9, 40, 127
1, 87840, Note_on_c, 9, 42, 86
1, 87844, Note_on_c, 9, 42, 0
1, 87959, Note_on_c, 9, 40, 0
1, 87960, Note_on_c, 9, 40, 64
1, 88079, Note_on_c, 9, 40, 0
1, 88080, Note_on_c, 9, 42, 72
1, 88084, Note_on_c, 9, 42, 0
1, 88200, Note_on_c, 9, 42, 84
1, 88204, Note_on_c, 9, 42, 0
1, 88320, Note_on_c, 9, 42, 86
1, 88320, Note_on_c, 9, 36, 113
1, 88324, Note_on_c, 9, 42, 0
1, 88440, Note_on_c, 9, 42, 90
1, 88444, Note_on_c, 9, 42, 0
1, 88560, Note_on_c, 9, 42, 77
1, 88564, Note_on_c, 9, 42, 0
1, 88680, Note_on_c, 9, 42, 78
1, 88684, Note_on_c, 9, 42, 0
1, 88799, Note_on_c, 9, 36, 0
1, 88800, Note_on_c, 9, 40, 127
1, 88800, Note_on_c, 9, 42, 97
1, 88804, Note_on_c, 9, 42, 0
1, 88919, Note_on_c, 9, 40, 0
1, 88920, Note_on_c, 9, 40, 67
1, 88920, Note_on_c, 9, 42, 86
1, 88924, Note_on_c, 9, 42, 0
1, 89039, Note_on_c, 9, 40, 0
1, 89040, Note_on_c, 9, 42, 75
1, 89044, Note_on_c, 9, 42, 0
1, 89160, Note_on_c, 9, 42, 69
1, 89164, Note_on_c, 9, 42, 0
1, 89280, Note_on_c, 9, 42, 84
1, 89280, Note_on_c, 9, 36, 100
1, 89284, Note_on_c, 9, 42, 0
1, 89400, Note_on_c, 9, 42, 84
1, 89404, Note_on_c, 9, 42, 0
1, 89520, Note_on_c, 9, 42, 79
1, 89524, Note_on_c, 9, 42, 0
1, 89640, Note_on_c, 9, 42, 81
1, 89644, Note_on_c, 9, 42, 0
1, 89759, Note_on_c, 9, 36, 0
1, 89760, Note_on_c, 9, 40, 127
1, 89760, Note_on_c, 9, 42, 82
1, 89764, Note_on_c, 9, 42, 0
1, 89879, Note_on_c, 9, 40, 0
1, 89880, Note_on_c, 9, 40, 64
1, 89880, Note_on_c, 9, 42, 100
1, 89884, Note_on_c, 9, 42, 0
1, 89999, Note_on_c, 9, 40, 0
1, 90000, Note_on_c, 9, 46, 110
1, 90009, Note_on_c, 9, 46, 0
1, 90240, Note_on_c, 9, 42, 110
1, 90240, Note_on_c, 9, 36, 107
1, 90244, Note_on_c, 9, 42, 0
1, 90359, Note_on_c, 9, 36, 0
1, 90360, Note_on_c, 9, 42, 69
1, 90360, Note_on_c, 9, 36, 78
1, 90364, Note_on_c, 9, 42, 0
1, 90480, Note_on_c, 9, 42, 82
1, 90484, Note_on_c, 9, 42, 0
1, 90600, Note_on_c, 9, 42, 84
1, 90604, Note_on_c, 9, 42, 0
1, 90719, Note_on_c, 9, 36, 0
1, 90720, Note_on_c, 9, 40, 122
1, 90720, Note_on_c, 9, 42, 100
1, 90724, Note_on_c, 9, 42, 0
1, 90839, Note_on_c, 9, 40, 0
1, 90840, Note_on_c, 9, 40, 56
1, 90840, Note_on_c, 9, 42, 72
1, 90844, Note_on_c, 9, 42, 0
1, 90959, Note_on_c, 9, 40, 0
1, 90960, Note_on_c, 9, 42, 82
1, 90964, Note_on_c, 9, 42, 0
1, 91080, Note_on_c, 9, 42, 75
1, 91084, Note_on_c, 9, 42, 0
1, 91200, Note_on_c, 9, 42, 82
1, 91200, Note_on_c, 9, 36, 104
1, 91204, Note_on_c, 9, 42, 0
1, 91320, Note_on_c, 9, 42, 77
1, 91324, Note_on_c, 9, 42, 0
1, 91440, Note_on_c, 9, 42, 75
1, 91444, Note_on_c, 9, 42, 0
1, 91560, Note_on_c, 9, 42, 77
1, 91564, Note_on_c, 9, 42, 0
1, 91679, Note_on_c, 9, 36, 0
1, 91680, Note_on_c, 9, 40, 127
1, 91680, Note_on_c, 9, 42, 86
1, 91684, Note_on_c, 9, 42, 0
1, 91799, Note_on_c, 9, 40, 0
1, 91800, Note_on_c, 9, 40, 61
1, 91800, Note_on_c, 9, 42, 86
1, 91804, Note_on_c, 9, 42, 0
1, 91919, Note_on_c, 9, 40, 0
1, 91920, Note_on_c, 9, 42, 59
1, 91924, Note_on_c, 9, 42, 0
1, 92040, Note_on_c, 9, 42, 72
1, 92044, Note_on_c, 9, 42, 0
1, 92160, Note_on_c, 9, 42, 90
1, 92160, Note_on_c, 9, 36, 104
1, 92164, Note_on_c, 9, 42, 0
1, 92280, Note_on_c, 9, 42, 77
1, 92284, Note_on_c, 9, 42, 0
1, 92400, Note_on_c, 9, 42, 81
1, 92404, Note_on_c, 9, 42, 0
1, 92520, Note_on_c, 9, 42, 82
1, 92524, Note_on_c, 9, 42, 0
1, 92639, Note_on_c, 9, 36, 0
1, 92640, Note_on_c, 9, 40, 119
1, 92640, Note_on_c, 9, 42, 86
1, 92644, Note_on_c, 9, 42, 0
1, 92759, Note_on_c, 9, 40, 0
1, 92760, Note_on_c, 9, 40, 53
1, 92760, Note_on_c, 9, 42, 74
1, 92764, Note_on_c, 9, 42, 0
1, 92879, Note_on_c, 9, 40, 0
1, 92880, Note_on_c, 9, 42, 75
1, 92884, Note_on_c, 9, 42, 0
1, 93000, Note_on_c, 9, 42, 67
1, 93004, Note_on_c, 9, 42, 0
1, 93120, Note_on_c, 9, 42, 70
1, 93120, Note_on_c, 9, 36, 100
1, 93124, Note_on_c, 9, 42, 0
1, 93240, Note_on_c, 9, 42, 70
1, 93244, Note_on_c, 9, 42, 0
1, 93360, Note_on_c, 9, 42, 78
1, 93364, Note_on_c, 9, 42, 0
1, 93480, Note_on_c, 9, 42, 67
1, 93484, Note_on_c, 9, 42, 0
1, 93599, Note_on_c, 9, 36, 0
1, 93600, Note_on_c, 9, 40, 122
1, 93600, Note_on_c, 9, 42, 90
1, 93604, Note_on_c, 9, 42, 0
1, 93719, Note_on_c, 9, 40, 0
1, 93720, Note_on_c, 9, 40, 56
1, 93720, Note_on_c, 9, 42, 100
1, 93724, Note_on_c, 9, 42, 0
1, 93839, Note_on_c, 9, 40, 0
1, 93840, Note_on_c, 9, 46, 105
1, 93849, Note_on_c, 9, 46, 0
1, 94080, Note_on_c, 9, 42, 120
1, 94080, Note_on_c, 9, 36, 116
1, 94084, Note_on_c, 9, 42, 0
1, 94199, Note_on_c, 9, 36, 0
1, 94200, Note_on_c, 9, 42, 97
1, 94200, Note_on_c, 9, 36, 84
1, 94204, Note_on_c, 9, 42, 0
1, 94320, Note_on_c, 9, 42, 75
1, 94324, Note_on_c, 9, 42, 0
1, 94440, Note_on_c, 9, 42, 67
1, 94444, Note_on_c, 9, 42, 0
1, 94559, Note_on_c, 9, 36, 0
1, 94560, Note_on_c, 9, 40, 123
1, 94560, Note_on_c, 9, 42, 100
1, 94564, Note_on_c, 9, 42, 0
1, 94679, Note_on_c, 9, 40, 0
1, 94680, Note_on_c, 9, 40, 57
1, 94680, Note_on_c, 9, 42, 82
1, 94684, Note_on_c, 9, 42, 0
1, 94799, Note_on_c, 9, 40, 0
1, 94800, Note_on_c, 9, 42, 54
1, 94804, Note_on_c, 9, 42, 0
1, 94920, Note_on_c, 9, 42, 74
1, 94924, Note_on_c, 9, 42, 0
1, 95040, Note_on_c, 9, 42, 86
1, 95040, Note_on_c, 9, 36, 107
1, 95044, Note_on_c, 9, 42, 0
1, 95160, Note_on_c, 9, 42, 57
1, 95164, Note_on_c, 9, 42, 0
1, 95280, Note_on_c, 9, 42, 63
1, 95284, Note_on_c, 9, 42, 0
1, 95400, Note_on_c, 9, 42, 79
1, 95404, Note_on_c, 9, 42, 0
1, 95519, Note_on_c, 9, 36, 0
1, 95520, Note_on_c, 9, 40, 127
1, 95520, Note_on_c, 9, 42, 86
1, 95524, Note_on_c, 9, 42, 0
1, 95639, Note_on_c, 9, 40, 0
1, 95640, Note_on_c, 9, 40, 64
1, 95759, Note_on_c, 9, 40, 0
1, 95760, Note_on_c, 9, 42, 72
1, 95764, Note_on_c, 9, 42, 0
1, 95880, Note_on_c, 9, 42, 84
1, 95884, Note_on_c, 9, 42, 0
1, 96000, Note_on_c, 9, 42, 86
1, 96000, Note_on_c, 9, 36, 113
1, 96004, Note_on_c, 9, 42, 0
1, 96120, Note_on_c, 9, 42, 90
1, 96124, Note_on_c, 9, 42, 0
1, 96240, Note_on_c, 9, 42, 77
1, 96244, Note_on_c, 9, 42, 0
1, 96360, Note_on_c, 9, 42, 78
1, 96364, Note_on_c, 9, 42, 0
1, 96479, Note_on_c, 9, 36, 0
1, 96480, Note_on_c, 9, 40, 127
1, 96480, Note_on_c, 9, 42, 97
1, 96484, Note_on_c, 9, 42, 0
1, 96599, Note_on_c, 9, 40, 0
1, 96600, Note_on_c, 9, 40, 67
1, 96600, Note_on_c, 9, 42, 86
1, 96604, Note_on_c, 9, 42, 0
1, 96719, Note_on_c, 9, 40, 0
1, 96720, Note_on_c, 9, 42, 75
1, 96724, Note_on_c, 9, 42, 0
1, 96840, Note_on_c, 9, 42, 69
1, 96844, Note_on_c, 9, 42, 0
1, 96960, Note_on_c, 9, 42, 84
1, 96960, Note_on_c, 9, 36, 100
1, 96964, Note_on_c, 9, 42, 0
1, 97080, Note_on_c, 9, 42, 84
1, 97084, Note_on_c, 9, 42, 0
1, 97200, Note_on_c, 9, 42, 79
1, 97204, Note_on_c, 9, 42, 0
1, 97320, Note_on_c, 9, 42, 81
1, 97324, Note_on_c, 9, 42, 0
1, 97439, Note_on_c, 9, 36, 0
1, 97440, Note_on_c, 9, 40, 127
1, 97440, Note_on_c, 9, 42, 82
1, 97444, Note_on_c, 9, 42, 0
1, 97559, Note_on_c, 9, 40, 0
1, 97560, Note_on_c, 9, 40, 64
1, 97560, Note_on_c, 9, 42, 100
1, 97564, Note_on_c, 9, 42, 0
1, 97679, Note_on_c, 9, 40, 0
1, 97680, Note_on_c, 9, 46, 110
1, 97689, Note_on_c, 9, 46, 0
1, 97920, Note_on_c, 9, 42, 110
1, 97920, Note_on_c, 9, 36, 107
1, 97924, Note_on_c, 9, 42, 0
1, 98039, Note_on_c, 9, 36, 0
1, 98040, Note_on_c, 9, 42, 69
1, 98040, Note_on_c, 9, 36, 78
1, 98044, Note_on_c, 9, 42, 0
1, 98160, Note_on_c, 9, 42, 82
1, 98164, Note_on_c, 9, 42, 0
1, 98280, Note_on_c, 9, 42, 84
1, 98284, Note_on_c, 9, 42, 0
1, 98399, Note_on_c, 9, 36, 0
1, 98400, Note_on_c, 9, 40, 122
1, 98400, Note_on_c, 9, 42, 100
1, 98404, Note_on_c, 9, 42, 0
1, 98519, Note_on_c, 9, 40, 0
1, 98520, Note_on_c, 9, 40, 56
1, 98520, Note_on_c, 9, 42, 72
1, 98524, Note_on_c, 9, 42, 0
1, 98639, Note_on_c, 9, 40, 0
1, 98640, Note_on_c, 9, 42, 82
1, 98644, Note_on_c, 9, 42, 0
1, 98760, Note_on_c, 9, 42, 75
1, 98764, Note_on_c, 9, 42, 0
1, 98880, Note_on_c, 9, 42, 82
1, 98880, Note_on_c, 9, 36, 104
1, 98884, Note_on_c, 9, 42, 0
1, 99000, Note_on_c, 9, 42, 77
1, 99004, Note_on_c, 9, 42, 0
1, 99120, Note_on_c, 9, 42, 75
1, 99124, Note_on_c, 9, 42, 0
1, 99240, Note_on_c, 9, 42, 77
1, 99244, Note_on_c, 9, 42, 0
1, 99359, Note_on_c, 9, 36, 0
1, 99360, Note_on_c, 9, 40, 127
1, 99360, Note_on_c, 9, 42, 86
1, 99364, Note_on_c, 9, 42, 0
1, 99479, Note_on_c, 9, 40, 0
1, 99480, Note_on_c, 9, 40, 61
1, 99480, Note_on_c, 9, 42, 86
1, 99484, Note_on_c, 9, 42, 0
1, 99599, Note_on_c, 9, 40, 0
1, 99600, Note_on_c, 9, 42, 59
1, 99604, Note_on_c, 9, 42, 0
1, 99720, Note_on_c, 9, 42, 72
1, 99724, Note_on_c, 9, 42, 0
1, 99840, Note_on_c, 9, 42, 90
1, 99840, Note_on_c, 9, 36, 104
1, 99844, Note_on_c, 9, 42, 0
1, 99960, Note_on_c, 9, 42, 77
1, 99964, Note_on_c, 9, 42, 0
1, 100080, Note_on_c, 9, 42, 81
1, 100084, Note_on_c, 9, 42, 0
1, 100200, Note_on_c, 9, 42, 82
1, 100204, Note_on_c, 9, 42, 0
1, 100319, Note_on_c, 9, 36, 0
1, 100320, Note_on_c, 9, 40, 119
1, 100320, Note_on_c, 9, 42, 86
1, 100324, Note_on_c, 9, 42, 0
1, 100439, Note_on_c, 9, 40, 0
1, 100440, Note_on_c, 9, 40, 53
1, 100440, Note_on_c, 9, 42, 74
1, 100444, Note_on_c, 9, 42, 0
1, 100559, Note_on_c, 9, 40, 0
1, 100560, Note_on_c, 9, 42, 75
1, 100564, Note_on_c, 9, 42, 0
1, 100680, Note_on_c, 9, 42, 67
1, 100684, Note_on_c, 9, 42, 0
1, 100800, Note_on_c, 9, 42, 70
1, 100800, Note_on_c, 9, 36, 100
1, 100804, Note_on_c, 9, 42, 0
1, 100920, Note_on_c, 9, 42, 70
1, 100924, Note_on_c, 9, 42, 0
1, 101040, Note_on_c, 9, 42, 78
1, 101044, Note_on_c, 9, 42, 0
1, 101160, Note_on_c, 9, 42, 67
1, 101164, Note_on_c, 9, 42, 0
1, 101279, Note_on_c, 9, 36, 0
1, 101280, Note_on_c, 9, 40, 122
1, 101280, Note_on_c, 9, 42, 90
1, 101284, Note_on_c, 9, 42, 0
1, 101399, Note_on_c, 9, 40, 0
1, 101400, Note_on_c, 9, 40, 56
1, 101400, Note_on_c, 9, 42, 100
1, 101404, Note_on_c, 9, 42, 0
1, 101519, Note_on_c, 9, 40, 0
1, 101520, Note_on_c, 9, 46, 105
1, 101529, Note_on_c, 9, 46, 0
1, 101760, Note_on_c, 9, 42, 120
1, 101760, Note_on_c, 9, 36, 116
1, 101764, Note_on_c, 9, 42, 0
1, 101879, Note_on_c, 9, 36, 0
1, 101880, Note_on_c, 9, 42, 97
1, 101880, Note_on_c, 9, 36, 84
1, 101884, Note_on_c, 9, 42, 0
1, 102000, Note_on_c, 9, 42, 75
1, 102004, Note_on_c, 9, 42, 0
1, 102120, Note_on_c, 9, 42, 67
1, 102124, Note_on_c, 9, 42, 0
1, 102239, Note_on_c, 9, 36, 0
1, 102240, Note_on_c, 9, 40, 123
1, 102240, Note_on_c, 9, 42, 100
1, 102244, Note_on_c, 9, 42, 0
1, 102359, Note_on_c, 9, 40, 0
1, 102360, Note_on_c, 9, 40, 57
1, 102360, Note_on_c, 9, 42, 82
1, 102364, Note_on_c, 9, 42, 0
1, 102479, Note_on_c, 9, 40, 0
1, 102480, Note_on_c, 9, 42, 54
1, 102484, Note_on_c, 9, 42, 0
1, 102600, Note_on_c, 9, 42, 74
1, 102604, Note_on_c, 9, 42, 0
1, 102720, Note_on_c, 9, 42, 86
1, 102720, Note_on_c, 9, 36, 107
1, 102724, Note_on_c, 9, 42, 0
1, 102840, Note_on_c, 9, 42, 57
1, 102844, Note_on_c, 9, 42, 0
1, 102960, Note_on_c, 9, 42, 63
1, 102964, Note_on_c, 9, 42, 0
1, 103080, Note_on_c, 9, 42, 79
1, 103084, Note_on_c, 9, 42, 0
1, 103199, Note_on_c, 9, 36, 0
1, 103200, Note_on_c, 9, 40, 127
1, 103200, Note_on_c, 9, 42, 86
1, 103204, Note_on_c, 9, 42, 0
1, 103319, Note_on_c, 9, 40, 0
1, 103320, Note_on_c, 9, 40, 64
1, 103439, Note_on_c, 9, 40, 0
1, 103440, Note_on_c, 9, 42, 72
1, 103444, Note_on_c, 9, 42, 0
1, 103560, Note_on_c, 9, 42, 84
1, 103564, Note_on_c, 9, 42, 0
1, 103680, Note_on_c, 9, 42, 86
1, 103680, Note_on_c, 9, 36, 113
1, 103684, Note_on_c, 9, 42, 0
1, 103800, Note_on_c, 9, 42, 90
1, 103804, Note_on_c, 9, 42, 0
1, 103920, Note_on_c, 9, 42, 77
1, 103924, Note_on_c, 9, 42, 0
1, 104040, Note_on_c, 9, 42, 78
1, 104044, Note_on_c, 9, 42, 0
1, 104159, Note_on_c, 9, 36, 0
1, 104160, Note_on_c, 9, 40, 127
1, 104160, Note_on_c, 9, 42, 97
1, 104164, Note_on_c, 9, 42, 0
1, 104279, Note_on_c, 9, 40, 0
1, 104280, Note_on_c, 9, 40, 67
1, 104280, Note_on_c, 9, 42, 86
1, 104284, Note_on_c, 9, 42, 0
1, 104399, Note_on_c, 9, 40, 0
1, 104400, Note_on_c, 9, 42, 75
1, 104404, Note_on_c, 9, 42, 0
1, 104520, Note_on_c, 9, 42, 69
1, 104524, Note_on_c, 9, 42, 0
1, 104640, Note_on_c, 9, 42, 84
1, 104640, Note_on_c, 9, 36, 100
1, 104644, Note_on_c, 9, 42, 0
1, 104760, Note_on_c, 9, 42, 84
1, 104764, Note_on_c, 9, 42, 0
1, 104880, Note_on_c, 9, 42, 79
1, 104884, Note_on_c, 9, 42, 0
1, 105000, Note_on_c, 9, 42, 81
1, 105004, Note_on_c, 9, 42, 0
1, 105119, Note_on_c, 9, 36, 0
1, 105120, Note_on_c, 9, 40, 127
1, 105120, Note_on_c, 9, 42, 82
1, 105124, Note_on_c, 9, 42, 0
1, 105239, Note_on_c, 9, 40, 0
1, 105240, Note_on_c, 9, 40, 64
1, 105240, Note_on_c, 9, 42, 100
1, 105244, Note_on_c, 9, 42, 0
1, 105359, Note_on_c, 9, 40, 0
1, 105360, Note_on_c, 9, 46, 110
1, 105369, Note_on_c, 9, 46, 0
1, 105600, Note_on_c, 9, 42, 110
1, 105600, Note_on_c, 9, 36, 107
1, 105604, Note_on_c, 9, 42, 0
1, 105719, Note_on_c, 9, 36, 0
1, 105720, Note_on_c, 9, 42, 69
1, 105720, Note_on_c, 9, 36, 78
1, 105724, Note_on_c, 9, 42, 0
1, 105840, Note_on_c, 9, 42, 82
1, 105844, Note_on_c, 9, 42, 0
1, 105960, Note_on_c, 9, 42, 84
1, 105964, Note_on_c, 9, 42, 0
1, 106079, Note_on_c, 9, 36, 0
1, 106080, Note_on_c, 9, 40, 122
1, 106080, Note_on_c, 9, 42, 100
1, 106084, Note_on_c, 9, 42, 0
1, 106199, Note_on_c, 9, 40, 0
1, 106200, Note_on_c, 9, 40, 56
1, 106200, Note_on_c, 9, 42, 72
1, 106204, Note_on_c, 9, 42, 0
1, 106319, Note_on_c, 9, 40, 0
1, 106320, Note_on_c, 9, 42, 82
1, 106324, Note_on_c, 9, 42, 0
1, 106440, Note_on_c, 9, 42, 75
1, 106444, Note_on_c, 9, 42, 0
1, 106560, Note_on_c, 9, 42, 82
1, 106560, Note_on_c, 9, 36, 104
1, 106564, Note_on_c, 9, 42, 0
1, 106680, Note_on_c, 9, 42, 77
1, 106684, Note_on_c, 9, 42, 0
1, 106800, Note_on_c, 9, 42, 75
1, 106804, Note_on_c, 9, 42, 0
1, 106920, Note_on_c, 9, 42, 77
1, 106924, Note_on_c, 9, 42, 0
1, 107039, Note_on_c, 9, 36, 0
1, 107040, Note_on_c, 9, 40, 127
1, 107040, Note_on_c, 9, 42, 86
1, 107044, Note_on_c, 9, 42, 0
1, 107159, Note_on_c, 9, 40, 0
1, 107160, Note_on_c, 9, 40, 61
1, 107160, Note_on_c, 9, 42, 86
1, 107164, Note_on_c, 9, 42, 0
1, 107279, Note_on_c, 9, 40, 0
1, 107280, Note_on_c, 9, 42, 59
1, 107284, Note_on_c, 9, 42, 0
1, 107400, Note_on_c, 9, 42, 72
1, 107404, Note_on_c, 9, 42, 0
1, 107520, Note_on_c, 9, 42, 90
1, 107520, Note_on_c, 9, 36, 104
1, 107524, Note_on_c, 9, 42, 0
1, 107640, Note_on_c, 9, 42, 77
1, 107644, Note_on_c, 9, 42, 0
1, 107760, Note_on_c, 9, 42, 81
1, 107764, Note_on_c, 9, 42, 0
1, 107880, Note_on_c, 9, 42, 82
1, 107884, Note_on_c, 9, 42, 0
1, 107999, Note_on_c, 9, 36, 0
1, 108000, Note_on_c, 9, 40, 119
1, 108000, Note_on_c, 9, 42, 86
1, 108004, Note_on_c, 9, 42, 0
1, 108119, Note_on_c, 9, 40, 0
1, 108120, Note_on_c, 9, 40, 53
1, 108120, Note_on_c, 9, 42, 74
1, 108124, Note_on_c, 9, 42, 0
1, 108239, Note_on_c, 9, 40, 0
1, 108240, Note_on_c, 9, 42, 75
1, 108244, Note_on_c, 9, 42, 0
1, 108360, Note_on_c, 9, 42, 67
1, 108364, Note_on_c, 9, 42, 0
1, 108480, Note_on_c, 9, 42, 70
1, 108480, Note_on_c, 9, 36, 100
1, 108484, Note_on_c, 9, 42, 0
1, 108600, Note_on_c, 9, 42, 70
1, 108604, Note_on_c, 9, 42, 0
1, 108720, Note_on_c, 9, 42, 78
1, 108724, Note_on_c, 9, 42, 0
1, 108840, Note_on_c, 9, 42, 67
1, 108844, Note_on_c, 9, 42, 0
1, 108959, Note_on_c, 9, 36, 0
1, 108960, Note_on_c, 9, 40, 122
1, 108960, Note_on_c, 9, 42, 90
1, 108964, Note_on_c, 9, 42, 0
1, 109079, Note_on_c, 9, 40, 0
1, 109080, Note_on_c, 9, 40, 56
1, 109080, Note_on_c, 9, 42, 100
1, 109084, Note_on_c, 9, 42, 0
1, 109199, Note_on_c, 9, 40, 0
1, 109200, Note_on_c, 9, 46, 105
1, 109209, Note_on_c, 9, 46, 0
1, 109440, Note_on_c, 9, 42, 120
1, 109440, Note_on_c, 9, 36, 116
1, 109444, Note_on_c, 9, 42, 0
1, 109559, Note_on_c, 9, 36, 0
1, 109560, Note_on_c, 9, 42, 97
1, 109560, Note_on_c, 9, 36, 84
1, 109564, Note_on_c, 9, 42, 0
1, 109680, Note_on_c, 9, 42, 75
1, 109684, Note_on_c, 9, 42, 0
1, 109800, Note_on_c, 9, 42, 67
1, 109804, Note_on_c, 9, 42, 0
1, 109919, Note_on_c, 9, 36, 0
1, 109920, Note_on_c, 9, 40, 123
1, 109920, Note_on_c, 9, 42, 100
1, 109924, Note_on_c, 9, 42, 0
1, 110039, Note_on_c, 9, 40, 0
1, 110040, Note_on_c, 9, 40, 57
1, 110040, Note_on_c, 9, 42, 82
1, 110044, Note_on_c, 9, 42, 0
1, 110159, Note_on_c, 9, 40, 0
1, 110160, Note_on_c, 9, 42, 54
1, 110164, Note_on_c, 9, 42, 0
1, 110280, Note_on_c, 9, 42, 74
1, 110284, Note_on_c, 9, 42, 0
1, 110400, Note_on_c, 9, 42, 86
1, 110400, Note_on_c, 9, 36, 107
1, 110404, Note_on_c, 9, 42, 0
1, 110520, Note_on_c, 9, 42, 57
1, 110524, Note_on_c, 9, 42, 0
1, 110640, Note_on_c, 9, 42, 63
1, 110644, Note_on_c, 9, 42, 0
1, 110760, Note_on_c, 9, 42, 79
1, 110764, Note_on_c, 9, 42, 0
1, 110879, Note_on_c, 9, 36, 0
1, 110880, Note_on_c, 9, 40, 127
1, 110880, Note_on_c, 9, 42, 86
1, 110884, Note_on_c, 9, 42, 0
1, 110999, Note_on_c, 9, 40, 0
1, 111000, Note_on_c, 9, 40, 64
1, 111119, Note_on_c, 9, 40, 0
1, 111120, Note_on_c, 9, 42, 72
1, 111124, Note_on_c, 9, 42, 0
1, 111240, Note_on_c, 9, 42, 84
1, 111244, Note_on_c, 9, 42, 0
1, 111360, Note_on_c, 9, 42, 86
1, 111360, Note_on_c, 9, 36, 113
1, 111364, Note_on_c, 9, 42, 0
1, 111480, Note_on_c, 9, 42, 90
1, 111484, Note_on_c, 9, 42, 0
1, 111600, Note_on_c, 9, 42, 77
1, 111604, Note_on_c, 9, 42, 0
1, 111720, Note_on_c, 9, 42, 78
1, 111724, Note_on_c, 9, 42, 0
1, 111839, Note_on_c, 9, 36, 0
1, 111840, Note_on_c, 9, 40, 127
1, 111840, Note_on_c, 9, 42, 97
1, 111844, Note_on_c, 9, 42, 0
1, 111959, Note_on_c, 9, 40, 0
1, 111960, Note_on_c, 9, 40, 67
1, 111960, Note_on_c, 9, 42, 86
1, 111964, Note_on_c, 9, 42, 0
1, 112079, Note_on_c, 9, 40, 0
1, 112080, Note_on_c, 9, 42, 75
1, 112084, Note_on_c, 9, 42, 0
1, 112200, Note_on_c, 9, 42, 69
1, 112204, Note_on_c, 9, 42, 0
1, 112320, Note_on_c, 9, 42, 84
1, 112320, Note_on_c, 9, 36, 100
1, 112324, Note_on_c, 9, 42, 0
1, 112440, Note_on_c, 9, 42, 84
1, 112444, Note_on_c, 9, 42, 0
1, 112560, Note_on_c, 9, 42, 79
1, 112564, Note_on_c, 9, 42, 0
1, 112680, Note_on_c, 9, 42, 81
1, 112684, Note_on_c, 9, 42, 0
1, 112799, Note_on_c, 9, 36, 0
1, 112800, Note_on_c, 9, 40, 127
1, 112800, Note_on_c, 9, 42, 82
1, 112804, Note_on_c, 9, 42, 0
1, 112919, Note_on_c, 9, 40, 0
1, 112920, Note_on_c, 9, 40, 64
1, 112920, Note_on_c, 9, 42, 100
1, 112924, Note_on_c, 9, 42, 0
1, 113039, Note_on_c, 9, 40, 0
1, 113040, Note_on_c, 9, 46, 110
1, 113049, Note_on_c, 9, 46, 0
1, 113280, Note_on_c, 9, 54, 109
1, 113280, Note_on_c, 9, 36, 120
1, 113399, Note_on_c, 9, 54, 0
1, 113400, Note_on_c, 9, 54, 66
1, 113519, Note_on_c, 9, 54, 0
1, 113520, Note_on_c, 9, 54, 48
1, 113639, Note_on_c, 9, 54, 0
1, 113640, Note_on_c, 9, 54, 63
1, 113759, Note_on_c, 9, 36, 0
1, 113759, Note_on_c, 9, 54, 0
1, 113760, Note_on_c, 9, 54, 94
1, 113879, Note_on_c, 9, 54, 0
1, 113880, Note_on_c, 9, 54, 58
1, 113999, Note_on_c, 9, 54, 0
1, 114000, Note_on_c, 9, 54, 49
1, 114000, Note_on_c, 9, 36, 120
1, 114119, Note_on_c, 9, 54, 0
1, 114120, Note_on_c, 9, 54, 54
1, 114239, Note_on_c, 9, 36, 0
1, 114239, Note_on_c, 9, 54, 0
1, 114240, Note_on_c, 9, 54, 68
1, 114240, Note_on_c, 9, 36, 119
1, 114359, Note_on_c, 9, 54, 0
1, 114360, Note_on_c, 9, 54, 52
1, 114479, Note_on_c, 9, 54, 0
1, 114480, Note_on_c, 9, 54, 58
1, 114599, Note_on_c, 9, 54, 0
1, 114600, Note_on_c, 9, 54, 54
1, 114719, Note_on_c, 9, 36, 0
1, 114719, Note_on_c, 9, 54, 0
1, 114720, Note_on_c, 9, 40, 101
1, 114720, Note_on_c, 9, 54, 52
1, 114720, Note_on_c, 9, 28, 120
1, 114839, Note_on_c, 9, 40, 0
1, 114839, Note_on_c, 9, 54, 0
1, 114839, Note_on_c, 9, 28, 0
1, 114840, Note_on_c, 9, 40, 35
1, 114840, Note_on_c, 9, 54, 49
1, 114959, Note_on_c, 9, 40, 0
1, 114959, Note_on_c, 9, 54, 0
1, 114960, Note_on_c, 9, 40, 101
1, 114960, Note_on_c, 9, 54, 47
1, 114960, Note_on_c, 9, 28, 120
1, 115079, Note_on_c, 9, 40, 0
1, 115079, Note_on_c, 9, 54, 0
1, 115079, Note_on_c, 9, 28, 0
1, 115080, Note_on_c, 9, 40, 35
1, 115080, Note_on_c, 9, 54, 67
1, 115199, Note_on_c, 9, 40, 0
1, 115199, Note_on_c, 9, 54, 0
1, 115200, Note_on_c, 9, 54, 109
1, 115200, Note_on_c, 9, 36, 120
1, 115319, Note_on_c, 9, 54, 0
1, 115320, Note_on_c, 9, 54, 66
1, 115439, Note_on_c, 9, 54, 0
1, 115440, Note_on_c, 9, 54, 50
1, 115559, Note_on_c, 9, 54, 0
1, 115560, Note_on_c, 9, 54, 56
1, 115679, Note_on_c, 9, 36, 0
1, 115679, Note_on_c, 9, 54, 0
1, 115680, Note_on_c, 9, 54, 48
1, 115799, Note_on_c, 9, 54, 0
1, 115800, Note_on_c, 9, 54, 63
1, 115919, Note_on_c, 9, 54, 0
1, 115920, Note_on_c, 9, 54, 52
1, 115920, Note_on_c, 9, 36, 116
1, 116039, Note_on_c, 9, 54, 0
1, 116040, Note_on_c, 9, 54, 59
1, 116159, Note_on_c, 9, 36, 0
1, 116159, Note_on_c, 9, 54, 0
1, 116160, Note_on_c, 9, 54, 54
1, 116160, Note_on_c, 9, 36, 119
1, 116279, Note_on_c, 9, 54, 0
1, 116280, Note_on_c, 9, 54, 48
1, 116399, Note_on_c, 9, 54, 0
1, 116400, Note_on_c, 9, 54, 47
1, 116519, Note_on_c, 9, 54, 0
1, 116520, Note_on_c, 9, 54, 52
1, 116639, Note_on_c, 9, 36, 0
1, 116639, Note_on_c, 9, 54, 0
1, 116640, Note_on_c, 9, 40, 101
1, 116640, Note_on_c, 9, 54, 48
1, 116640, Note_on_c, 9, 28, 120
1, 116759, Note_on_c, 9, 40, 0
1, 116759, Note_on_c, 9, 54, 0
1, 116759, Note_on_c, 9, 28, 0
1, 116760, Note_on_c, 9, 40, 35
1, 116760, Note_on_c, 9, 54, 59
1, 116879, Note_on_c, 9, 40, 0
1, 116879, Note_on_c, 9, 54, 0
1, 116880, Note_on_c, 9, 40, 97
1, 116880, Note_on_c, 9, 54, 44
1, 116880, Note_on_c, 9, 28, 120
1, 116999, Note_on_c, 9, 40, 0
1, 116999, Note_on_c, 9, 54, 0
1, 116999, Note_on_c, 9, 28, 0
1, 117000, Note_on_c, 9, 40, 31
1, 117000, Note_on_c, 9, 54, 58
1, 117119, Note_on_c, 9, 40, 0
1, 117119, Note_on_c, 9, 54, 0
1, 117120, Note_on_c, 9, 54, 99
1, 117120, Note_on_c, 9, 36, 120
1, 117239, Note_on_c, 9, 54, 0
1, 117240, Note_on_c, 9, 54, 68
1, 117359, Note_on_c, 9, 54, 0
1, 117360, Note_on_c, 9, 54, 31
1, 117479, Note_on_c, 9, 54, 0
1, 117480, Note_on_c, 9, 54, 52
1, 117599, Note_on_c, 9, 36, 0
1, 117599, Note_on_c, 9, 54, 0
1, 117600, Note_on_c, 9, 54, 49
1, 117719, Note_on_c, 9, 54, 0
1, 117720, Note_on_c, 9, 54, 54
1, 117839, Note_on_c, 9, 54, 0
1, 117840, Note_on_c, 9, 54, 50
1, 117840, Note_on_c, 9, 36, 119
1, 117959, Note_on_c, 9, 54, 0
1, 117960, Note_on_c, 9, 54, 61
1, 118079, Note_on_c, 9, 36, 0
1, 118079, Note_on_c, 9, 54, 0
1, 118080, Note_on_c, 9, 54, 61
1, 118080, Note_on_c, 9, 36, 116
1, 118199, Note_on_c, 9, 54, 0
1, 118200, Note_on_c, 9, 54, 52
1, 118319, Note_on_c, 9, 54, 0
1, 118320, Note_on_c, 9, 54, 48
1, 118439, Note_on_c, 9, 54, 0
1, 118440, Note_on_c, 9, 54, 54
1, 118559, Note_on_c, 9, 36, 0
1, 118559, Note_on_c, 9, 54, 0
1, 118560, Note_on_c, 9, 40, 101
1, 118560, Note_on_c, 9, 54, 54
1, 118560, Note_on_c, 9, 28, 120
1, 118679, Note_on_c, 9, 40, 0
1, 118679, Note_on_c, 9, 54, 0
1, 118679, Note_on_c, 9, 28, 0
1, 118680, Note_on_c, 9, 40, 35
1, 118680, Note_on_c, 9, 54, 73
1, 118799, Note_on_c, 9, 40, 0
1, 118799, Note_on_c, 9, 54, 0
1, 118800, Note_on_c, 9, 40, 101
1, 118800, Note_on_c, 9, 54, 99
1, 118800, Note_on_c, 9, 28, 120
1, 118919, Note_on_c, 9, 40, 0
1, 118919, Note_on_c, 9, 54, 0
1, 118919, Note_on_c, 9, 28, 0
1, 118920, Note_on_c, 9, 40, 35
1, 118920, Note_on_c, 9, 54, 109
1, 119039, Note_on_c, 9, 40, 0
1, 119039, Note_on_c, 9, 54, 0
1, 119040, Note_on_c, 9, 54, 109
1, 119040, Note_on_c, 9, 36, 119
1, 119159, Note_on_c, 9, 54, 0
1, 119160, Note_on_c, 9, 54, 66
1, 119279, Note_on_c, 9, 54, 0
1, 119280, Note_on_c, 9, 54, 35
1, 119399, Note_on_c, 9, 54, 0
1, 119400, Note_on_c, 9, 54, 56
1, 119519, Note_on_c, 9, 36, 0
1, 119519, Note_on_c, 9, 54, 0
1, 119520, Note_on_c, 9, 54, 49
1, 119639, Note_on_c, 9, 54, 0
1, 119640, Note_on_c, 9, 54, 70
1, 119759, Note_on_c, 9, 54, 0
1, 119760, Note_on_c, 9, 54, 51
1, 119760, Note_on_c, 9, 36, 79
1, 119879, Note_on_c, 9, 54, 0
1, 119880, Note_on_c, 9, 54, 56
1, 119999, Note_on_c, 9, 36, 0
1, 119999, Note_on_c, 9, 54, 0
1, 120000, Note_on_c, 9, 54, 54
1, 120000, Note_on_c, 9, 36, 120
1, 120119, Note_on_c, 9, 54, 0
1, 120120, Note_on_c, 9, 54, 63
1, 120239, Note_on_c, 9, 54, 0
1, 120240, Note_on_c, 9, 54, 64
1, 120359, Note_on_c, 9, 54, 0
1, 120360, Note_on_c, 9, 54, 66
1, 120479, Note_on_c, 9, 36, 0
1, 120479, Note_on_c, 9, 54, 0
1, 120480, Note_on_c, 9, 40, 101
1, 120480, Note_on_c, 9, 54, 63
1, 120480, Note_on_c, 9, 28, 120
1, 120599, Note_on_c, 9, 40, 0
1, 120599, Note_on_c, 9, 54, 0
1, 120599, Note_on_c, 9, 28, 0
1, 120600, Note_on_c, 9, 40, 35
1, 120600, Note_on_c, 9, 54, 64
1, 120719, Note_on_c, 9, 40, 0
1, 120719, Note_on_c, 9, 54, 0
1, 120720, Note_on_c, 9, 40, 101
1, 120720, Note_on_c, 9, 54, 61
1, 120720, Note_on_c, 9, 28, 120
1, 120839, Note_on_c, 9, 40, 0
1, 120839, Note_on_c, 9, 54, 0
1, 120839, Note_on_c, 9, 28, 0
1, 120840, Note_on_c, 9, 40, 35
1, 120840, Note_on_c, 9, 54, 77
1, 120959, Note_on_c, 9, 40, 0
1, 120959, Note_on_c, 9, 54, 0
1, 120960, Note_on_c, 9, 54, 104
1, 120960, Note_on_c, 9, 36, 116
1, 121079, Note_on_c, 9, 54, 0
1, 121080, Note_on_c, 9, 54, 67
1, 121199, Note_on_c, 9, 54, 0
1, 121200, Note_on_c, 9, 54, 49
1, 121319, Note_on_c, 9, 54, 0
1, 121320, Note_on_c, 9, 54, 73
1, 121439, Note_on_c, 9, 36, 0
1, 121439, Note_on_c, 9, 54, 0
1, 121440, Note_on_c, 9, 54, 63
1, 121559, Note_on_c, 9, 54, 0
1, 121560, Note_on_c, 9, 54, 56
1, 121679, Note_on_c, 9, 54, 0
1, 121680, Note_on_c, 9, 54, 46
1, 121680, Note_on_c, 9, 36, 96
1, 121799, Note_on_c, 9, 54, 0
1, 121800, Note_on_c, 9, 54, 50
1, 121919, Note_on_c, 9, 36, 0
1, 121919, Note_on_c, 9, 54, 0
1, 121920, Note_on_c, 9, 54, 75
1, 121920, Note_on_c, 9, 36, 120
1, 122039, Note_on_c, 9, 54, 0
1, 122040, Note_on_c, 9, 54, 54
1, 122159, Note_on_c, 9, 54, 0
1, 122160, Note_on_c, 9, 54, 49
1, 122279, Note_on_c, 9, 54, 0
1, 122280, Note_on_c, 9, 54, 68
1, 122399, Note_on_c, 9, 36, 0
1, 122399, Note_on_c, 9, 54, 0
1, 122400, Note_on_c, 9, 40, 101
1, 122400, Note_on_c, 9, 54, 79
1, 122400, Note_on_c, 9, 28, 120
1, 122519, Note_on_c, 9, 40, 0
1, 122519, Note_on_c, 9, 54, 0
1, 122519, Note_on_c, 9, 28, 0
1, 122520, Note_on_c, 9, 40, 35
1, 122520, Note_on_c, 9, 54, 58
1, 122639, Note_on_c, 9, 40, 0
1, 122639, Note_on_c, 9, 54, 0
1, 122640, Note_on_c, 9, 40, 101
1, 122640, Note_on_c, 9, 54, 39
1, 122640, Note_on_c, 9, 28, 120
1, 122759, Note_on_c, 9, 40, 0
1, 122759, Note_on_c, 9, 54, 0
1, 122759, Note_on_c, 9, 28, 0
1, 122760, Note_on_c, 9, 40, 35
1, 122760, Note_on_c, 9, 54, 67
1, 122879, Note_on_c, 9, 40, 0
1, 122879, Note_on_c, 9, 54, 0
1, 122880, Note_on_c, 9, 54, 104
1, 122880, Note_on_c, 9, 36, 119
1, 122999, Note_on_c, 9, 54, 0
1, 123000, Note_on_c, 9, 54, 56
1, 123119, Note_on_c, 9, 54, 0
1, 123120, Note_on_c, 9, 54, 46
1, 123239, Note_on_c, 9, 54, 0
1, 123240, Note_on_c, 9, 54, 60
1, 123359, Note_on_c, 9, 36, 0
1, 123359, Note_on_c, 9, 54, 0
1, 123360, Note_on_c, 9, 54, 53
1, 123479, Note_on_c, 9, 54, 0
1, 123480, Note_on_c, 9, 54, 53
1, 123599, Note_on_c, 9, 54, 0
1, 123600, Note_on_c, 9, 54, 48
1, 123600, Note_on_c, 9, 36, 110
1, 123719, Note_on_c, 9, 54, 0
1, 123720, Note_on_c, 9, 54, 64
1, 123839, Note_on_c, 9, 36, 0
1, 123839, Note_on_c, 9, 54, 0
1, 123840, Note_on_c, 9, 54, 64
1, 123840, Note_on_c, 9, 36, 119
1, 123959, Note_on_c, 9, 54, 0
1, 123960, Note_on_c, 9, 54, 49
1, 124079, Note_on_c, 9, 54, 0
1, 124080, Note_on_c, 9, 54, 48
1, 124199, Note_on_c, 9, 54, 0
1, 124200, Note_on_c, 9, 54, 58
1, 124319, Note_on_c, 9, 36, 0
1, 124319, Note_on_c, 9, 54, 0
1, 124320, Note_on_c, 9, 40, 101
1, 124320, Note_on_c, 9, 54, 64
1, 124320, Note_on_c, 9, 28, 120
1, 124439, Note_on_c, 9, 40, 0
1, 124439, Note_on_c, 9, 54, 0
1, 124439, Note_on_c, 9, 28, 0
1, 124440, Note_on_c, 9, 40, 35
1, 124440, Note_on_c, 9, 54, 51
1, 124559, Note_on_c, 9, 40, 0
1, 124559, Note_on_c, 9, 54, 0
1, 124560, Note_on_c, 9, 40, 101
1, 124560, Note_on_c, 9, 54, 63
1, 124560, Note_on_c, 9, 28, 120
1, 124679, Note_on_c, 9, 40, 0
1, 124679, Note_on_c, 9, 54, 0
1, 124679, Note_on_c, 9, 28, 0
1, 124680, Note_on_c, 9, 40, 35
1, 124680, Note_on_c, 9, 54, 61
1, 124799, Note_on_c, 9, 40, 0
1, 124799, Note_on_c, 9, 54, 0
1, 124800, Note_on_c, 9, 54, 104
1, 124800, Note_on_c, 9, 36, 119
1, 124919, Note_on_c, 9, 54, 0
1, 124920, Note_on_c, 9, 54, 56
1, 125039, Note_on_c, 9, 54, 0
1, 125040, Note_on_c, 9, 54, 47
1, 125159, Note_on_c, 9, 54, 0
1, 125160, Note_on_c, 9, 54, 58
1, 125279, Note_on_c, 9, 36, 0
1, 125279, Note_on_c, 9, 54, 0
1, 125280, Note_on_c, 9, 54, 48
1, 125399, Note_on_c, 9, 54, 0
1, 125400, Note_on_c, 9, 54, 56
1, 125519, Note_on_c, 9, 54, 0
1, 125520, Note_on_c, 9, 54, 56
1, 125520, Note_on_c, 9, 36, 116
1, 125639, Note_on_c, 9, 54, 0
1, 125640, Note_on_c, 9, 54, 54
1, 125759, Note_on_c, 9, 36, 0
1, 125759, Note_on_c, 9, 54, 0
1, 125760, Note_on_c, 9, 54, 56
1, 125760, Note_on_c, 9, 36, 116
1, 125879, Note_on_c, 9, 54, 0
1, 125880, Note_on_c, 9, 54, 54
1, 125999, Note_on_c, 9, 54, 0
1, 126000, Note_on_c, 9, 54, 51
1, 126119, Note_on_c, 9, 54, 0
1, 126120, Note_on_c, 9, 54, 59
1, 126239, Note_on_c, 9, 36, 0
1, 126239, Note_on_c, 9, 54, 0
1, 126240, Note_on_c, 9, 40, 101
1, 126240, Note_on_c, 9, 54, 54
1, 126240, Note_on_c, 9, 28, 120
1, 126359, Note_on_c, 9, 40, 0
1, 126359, Note_on_c, 9, 54, 0
1, 126359, Note_on_c, 9, 28, 0
1, 126360, Note_on_c, 9, 40, 35
1, 126360, Note_on_c, 9, 54, 50
1, 126479, Note_on_c, 9, 40, 0
1, 126479, Note_on_c, 9, 54, 0
1, 126480, Note_on_c, 9, 40, 101
1, 126480, Note_on_c, 9, 54, 56
1, 126480, Note_on_c, 9, 28, 120
1, 126599, Note_on_c, 9, 40, 0
1, 126599, Note_on_c, 9, 54, 0
1, 126599, Note_on_c, 9, 28, 0
1, 126600, Note_on_c, 9, 40, 35
1, 126600, Note_on_c, 9, 54, 66
1, 126719, Note_on_c, 9, 40, 0
1, 126719, Note_on_c, 9, 54, 0
1, 126720, Note_on_c, 9, 54, 94
1, 126720, Note_on_c, 9, 36, 116
1, 126839, Note_on_c, 9, 54, 0
1, 126840, Note_on_c, 9, 54, 67
1, 126959, Note_on_c, 9, 54, 0
1, 126960, Note_on_c, 9, 54, 54
1, 127079, Note_on_c, 9, 54, 0
1, 127080, Note_on_c, 9, 54, 58
1, 127199, Note_on_c, 9, 36, 0
1, 127199, Note_on_c, 9, 54, 0
1, 127200, Note_on_c, 9, 54, 56
1, 127319, Note_on_c, 9, 54, 0
1, 127320, Note_on_c, 9, 54, 61
1, 127439, Note_on_c, 9, 54, 0
1, 127440, Note_on_c, 9, 54, 56
1, 127440, Note_on_c, 9, 36, 99
1, 127559, Note_on_c, 9, 54, 0
1, 127560, Note_on_c, 9, 54, 58
1, 127679, Note_on_c, 9, 36, 0
1, 127679, Note_on_c, 9, 54, 0
1, 127680, Note_on_c, 9, 54, 60
1, 127680, Note_on_c, 9, 36, 113
1, 127799, Note_on_c, 9, 54, 0
1, 127800, Note_on_c, 9, 54, 66
1, 127919, Note_on_c, 9, 54, 0
1, 127920, Note_on_c, 9, 54, 54
1, 128039, Note_on_c, 9, 54, 0
1, 128040, Note_on_c, 9, 54, 63
1, 128159, Note_on_c, 9, 36, 0
1, 128159, Note_on_c, 9, 54, 0
1, 128160, Note_on_c, 9, 40, 101
1, 128160, Note_on_c, 9, 54, 48
1, 128160, Note_on_c, 9, 28, 120
1, 128279, Note_on_c, 9, 40, 0
1, 128279, Note_on_c, 9, 54, 0
1, 128279, Note_on_c, 9, 28, 0
1, 128280, Note_on_c, 9, 40, 35
1, 128280, Note_on_c, 9, 54, 59
1, 128399, Note_on_c, 9, 40, 0
1, 128399, Note_on_c, 9, 54, 0
1, 128400, Note_on_c, 9, 40, 101
1, 128400, Note_on_c, 9, 54, 60
1, 128400, Note_on_c, 9, 28, 120
1, 128519, Note_on_c, 9, 40, 0
1, 128519, Note_on_c, 9, 54, 0
1, 128519, Note_on_c, 9, 28, 0
1, 128520, Note_on_c, 9, 40, 35
1, 128520, Note_on_c, 9, 54, 56
1, 128639, Note_on_c, 9, 40, 0
1, 128639, Note_on_c, 9, 54, 0
1, 128640, Note_on_c, 9, 54, 94
1, 128640, Note_on_c, 9, 36, 116
1, 128759, Note_on_c, 9, 54, 0
1, 128760, Note_on_c, 9, 54, 56
1, 128879, Note_on_c, 9, 54, 0
1, 128880, Note_on_c, 9, 54, 49
1, 128999, Note_on_c, 9, 54, 0
1, 129000, Note_on_c, 9, 54, 58
1, 129119, Note_on_c, 9, 36, 0
1, 129119, Note_on_c, 9, 54, 0
1, 129120, Note_on_c, 9, 54, 53
1, 129239, Note_on_c, 9, 54, 0
1, 129240, Note_on_c, 9, 54, 54
1, 129359, Note_on_c, 9, 54, 0
1, 129360, Note_on_c, 9, 54, 54
1, 129360, Note_on_c, 9, 36, 96
1, 129479, Note_on_c, 9, 54, 0
1, 129480, Note_on_c, 9, 54, 68
1, 129599, Note_on_c, 9, 36, 0
1, 129599, Note_on_c, 9, 54, 0
1, 129600, Note_on_c, 9, 54, 68
1, 129600, Note_on_c, 9, 36, 116
1, 129719, Note_on_c, 9, 54, 0
1, 129720, Note_on_c, 9, 54, 67
1, 129839, Note_on_c, 9, 54, 0
1, 129840, Note_on_c, 9, 54, 61
1, 129959, Note_on_c, 9, 54, 0
1, 129960, Note_on_c, 9, 54, 61
1, 130079, Note_on_c, 9, 36, 0
1, 130079, Note_on_c, 9, 54, 0
1, 130080, Note_on_c, 9, 40, 102
1, 130080, Note_on_c, 9, 54, 68
1, 130080, Note_on_c, 9, 28, 120
1, 130199, Note_on_c, 9, 40, 0
1, 130199, Note_on_c, 9, 54, 0
1, 130199, Note_on_c, 9, 28, 0
1, 130200, Note_on_c, 9, 40, 36
1, 130200, Note_on_c, 9, 54, 56
1, 130319, Note_on_c, 9, 40, 0
1, 130319, Note_on_c, 9, 54, 0
1, 130320, Note_on_c, 9, 40, 102
1, 130320, Note_on_c, 9, 54, 94
1, 130320, Note_on_c, 9, 28, 120
1, 130439, Note_on_c, 9, 40, 0
1, 130439, Note_on_c, 9, 54, 0
1, 130439, Note_on_c, 9, 28, 0
1, 130440, Note_on_c, 9, 40, 36
1, 130440, Note_on_c, 9, 54, 86
1, 130559, Note_on_c, 9, 40, 0
1, 130559, Note_on_c, 9, 54, 0
1, 130560, Note_on_c, 9, 54, 94
1, 130560, Note_on_c, 9, 36, 113
1, 130679, Note_on_c, 9, 54, 0
1, 130680, Note_on_c, 9, 54, 60
1, 130799, Note_on_c, 9, 54, 0
1, 130800, Note_on_c, 9, 54, 44
1, 130919, Note_on_c, 9, 54, 0
1, 130920, Note_on_c, 9, 54, 63
1, 131039, Note_on_c, 9, 36, 0
1, 131039, Note_on_c, 9, 54, 0
1, 131040, Note_on_c, 9, 54, 56
1, 131159, Note_on_c, 9, 54, 0
1, 131160, Note_on_c, 9, 54, 49
1, 131279, Note_on_c, 9, 54, 0
1, 131280, Note_on_c, 9, 54, 54
1, 131280, Note_on_c, 9, 36, 104
1, 131399, Note_on_c, 9, 54, 0
1, 131400, Note_on_c, 9, 54, 61
1, 131519, Note_on_c, 9, 36, 0
1, 131519, Note_on_c, 9, 54, 0
1, 131520, Note_on_c, 9, 54, 63
1, 131520, Note_on_c, 9, 36, 107
1, 131639, Note_on_c, 9, 54, 0
1, 131640, Note_on_c, 9, 54, 59
1, 131759, Note_on_c, 9, 54, 0
1, 131760, Note_on_c, 9, 54, 63
1, 131879, Note_on_c, 9, 54, 0
1, 131880, Note_on_c, 9, 54, 61
1, 131999, Note_on_c, 9, 36, 0
1, 131999, Note_on_c, 9, 54, 0
1, 132000, Note_on_c, 9, 40, 101
1, 132000, Note_on_c, 9, 54, 66
1, 132000, Note_on_c, 9, 28, 120
1, 132119, Note_on_c, 9, 40, 0
1, 132119, Note_on_c, 9, 54, 0
1, 132119, Note_on_c, 9, 28, 0
1, 132120, Note_on_c, 9, 40, 35
1, 132120, Note_on_c, 9, 54, 56
1, 132239, Note_on_c, 9, 40, 0
1, 132239, Note_on_c, 9, 54, 0
1, 132240, Note_on_c, 9, 40, 101
1, 132240, Note_on_c, 9, 54, 68
1, 132240, Note_on_c, 9, 28, 120
1, 132359, Note_on_c, 9, 40, 0
1, 132359, Note_on_c, 9, 54, 0
1, 132359, Note_on_c, 9, 28, 0
1, 132360, Note_on_c, 9, 40, 35
1, 132360, Note_on_c, 9, 54, 63
1, 132479, Note_on_c, 9, 40, 0
1, 132479, Note_on_c, 9, 54, 0
1, 132480, Note_on_c, 9, 54, 99
1, 132480, Note_on_c, 9, 55, 79
1, 132480, Note_on_c, 9, 36, 116
1, 132484, Note_on_c, 9, 55, 0
1, 132599, Note_on_c, 9, 54, 0
1, 132600, Note_on_c, 9, 54, 70
1, 132719, Note_on_c, 9, 54, 0
1, 132720, Note_on_c, 9, 54, 47
1, 132839, Note_on_c, 9, 54, 0
1, 132840, Note_on_c, 9, 54, 70
1, 132959, Note_on_c, 9, 36, 0
1, 132959, Note_on_c, 9, 54, 0
1, 132960, Note_on_c, 9, 54, 71
1, 133079, Note_on_c, 9, 54, 0
1, 133080, Note_on_c, 9, 54, 60
1, 133199, Note_on_c, 9, 54, 0
1, 133200, Note_on_c, 9, 54, 67
1, 133200, Note_on_c, 9, 36, 104
1, 133319, Note_on_c, 9, 54, 0
1, 133320, Note_on_c, 9, 54, 73
1, 133439, Note_on_c, 9, 36, 0
1, 133439, Note_on_c, 9, 54, 0
1, 133440, Note_on_c, 9, 54, 73
1, 133440, Note_on_c, 9, 36, 104
1, 133559, Note_on_c, 9, 54, 0
1, 133560, Note_on_c, 9, 54, 68
1, 133679, Note_on_c, 9, 54, 0
1, 133680, Note_on_c, 9, 54, 56
1, 133799, Note_on_c, 9, 54, 0
1, 133800, Note_on_c, 9, 54, 71
1, 133919, Note_on_c, 9, 36, 0
1, 133919, Note_on_c, 9, 54, 0
1, 133920, Note_on_c, 9, 40, 101
1, 133920, Note_on_c, 9, 54, 58
1, 133920, Note_on_c, 9, 28, 120
1, 134039, Note_on_c, 9, 40, 0
1, 134039, Note_on_c, 9, 54, 0
1, 134039, Note_on_c, 9, 28, 0
1, 134040, Note_on_c, 9, 40, 35
1, 134040, Note_on_c, 9, 54, 64
1, 134159, Note_on_c, 9, 40, 0
1, 134159, Note_on_c, 9, 54, 0
1, 134160, Note_on_c, 9, 40, 101
1, 134160, Note_on_c, 9, 54, 67
1, 134160, Note_on_c, 9, 28, 120
1, 134279, Note_on_c, 9, 40, 0
1, 134279, Note_on_c, 9, 54, 0
1, 134279, Note_on_c, 9, 28, 0
1, 134280, Note_on_c, 9, 40, 35
1, 134280, Note_on_c, 9, 54, 64
1, 134399, Note_on_c, 9, 40, 0
1, 134399, Note_on_c, 9, 54, 0
1, 134400, Note_on_c, 9, 54, 89
1, 134400, Note_on_c, 9, 36, 116
1, 134519, Note_on_c, 9, 54, 0
1, 134520, Note_on_c, 9, 54, 66
1, 134639, Note_on_c, 9, 54, 0
1, 134640, Note_on_c, 9, 54, 56
1, 134759, Note_on_c, 9, 54, 0
1, 134760, Note_on_c, 9, 54, 58
1, 134879, Note_on_c, 9, 36, 0
1, 134879, Note_on_c, 9, 54, 0
1, 134880, Note_on_c, 9, 54, 58
1, 134999, Note_on_c, 9, 54, 0
1, 135000, Note_on_c, 9, 54, 58
1, 135119, Note_on_c, 9, 54, 0
1, 135120, Note_on_c, 9, 54, 71
1, 135120, Note_on_c, 9, 36, 96
1, 135239, Note_on_c, 9, 54, 0
1, 135240, Note_on_c, 9, 54, 61
1, 135359, Note_on_c, 9, 36, 0
1, 135359, Note_on_c, 9, 54, 0
1, 135360, Note_on_c, 9, 54, 70
1, 135360, Note_on_c, 9, 36, 113
1, 135479, Note_on_c, 9, 54, 0
1, 135480, Note_on_c, 9, 54, 68
1, 135599, Note_on_c, 9, 54, 0
1, 135600, Note_on_c, 9, 54, 61
1, 135719, Note_on_c, 9, 54, 0
1, 135720, Note_on_c, 9, 54, 59
1, 135839, Note_on_c, 9, 36, 0
1, 135839, Note_on_c, 9, 54, 0
1, 135840, Note_on_c, 9, 40, 101
1, 135840, Note_on_c, 9, 54, 66
1, 135840, Note_on_c, 9, 28, 120
1, 135959, Note_on_c, 9, 40, 0
1, 135959, Note_on_c, 9, 54, 0
1, 135959, Note_on_c, 9, 28, 0
1, 135960, Note_on_c, 9, 40, 35
1, 135960, Note_on_c, 9, 54, 56
1, 136079, Note_on_c, 9, 40, 0
1, 136079, Note_on_c, 9, 54, 0
1, 136080, Note_on_c, 9, 40, 101
1, 136080, Note_on_c, 9, 54, 61
1, 136080, Note_on_c, 9, 28, 120
1, 136199, Note_on_c, 9, 40, 0
1, 136199, Note_on_c, 9, 54, 0
1, 136199, Note_on_c, 9, 28, 0
1, 136200, Note_on_c, 9, 40, 35
1, 136200, Note_on_c, 9, 54, 67
1, 136319, Note_on_c, 9, 40, 0
1, 136319, Note_on_c, 9, 54, 0
1, 136320, Note_on_c, 9, 36, 116
1, 136799, Note_on_c, 9, 36, 0
1, 137040, Note_on_c, 9, 36, 86
1, 137279, Note_on_c, 9, 36, 0
1, 137280, Note_on_c, 9, 36, 113
1, 137759, Note_on_c, 9, 36, 0
1, 137760, Note_on_c, 9, 40, 101
1, 137760, Note_on_c, 9, 28, 120
1, 137879, Note_on_c, 9, 40, 0
1, 137879, Note_on_c, 9, 28, 0
1, 137880, Note_on_c, 9, 40, 35
1, 137999, Note_on_c, 9, 40, 0
1, 138000, Note_on_c, 9, 40, 101
1, 138000, Note_on_c, 9, 28, 120
1, 138119, Note_on_c, 9, 40, 0
1, 138119, Note_on_c, 9, 28, 0
1, 138120, Note_on_c, 9, 40, 35
1, 138239, Note_on_c, 9, 40, 0
1, 138240, Note_on_c, 9, 36, 116
1, 138719, Note_on_c, 9, 36, 0
1, 138960, Note_on_c, 9, 36, 100
1, 139199, Note_on_c, 9, 36, 0
1, 139200, Note_on_c, 9, 36, 100
1, 139679, Note_on_c, 9, 36, 0
1, 140160, Note_on_c, 9, 42, 119
1, 140160, Note_on_c, 9, 36, 119
1, 140164, Note_on_c, 9, 42, 0
1, 140279, Note_on_c, 9, 36, 0
1, 140280, Note_on_c, 9, 42, 97
1, 140280, Note_on_c, 9, 36, 84
1, 140284, Note_on_c, 9, 42, 0
1, 140400, Note_on_c, 9, 42, 75
1, 140404, Note_on_c, 9, 42, 0
1, 140520, Note_on_c, 9, 42, 67
1, 140524, Note_on_c, 9, 42, 0
1, 140639, Note_on_c, 9, 36, 0
1, 140640, Note_on_c, 9, 40, 123
1, 140640, Note_on_c, 9, 42, 100
1, 140644, Note_on_c, 9, 42, 0
1, 140759, Note_on_c, 9, 40, 0
1, 140760, Note_on_c, 9, 40, 57
1, 140760, Note_on_c, 9, 42, 82
1, 140764, Note_on_c, 9, 42, 0
1, 140879, Note_on_c, 9, 40, 0
1, 140880, Note_on_c, 9, 42, 54
1, 140884, Note_on_c, 9, 42, 0
1, 141000, Note_on_c, 9, 42, 74
1, 141004, Note_on_c, 9, 42, 0
1, 141120, Note_on_c, 9, 42, 86
1, 141120, Note_on_c, 9, 36, 107
1, 141124, Note_on_c, 9, 42, 0
1, 141240, Note_on_c, 9, 42, 57
1, 141244, Note_on_c, 9, 42, 0
1, 141360, Note_on_c, 9, 42, 63
1, 141364, Note_on_c, 9, 42, 0
1, 141480, Note_on_c, 9, 42, 79
1, 141484, Note_on_c, 9, 42, 0
1, 141599, Note_on_c, 9, 36, 0
1, 141600, Note_on_c, 9, 40, 127
1, 141600, Note_on_c, 9, 42, 86
1, 141604, Note_on_c, 9, 42, 0
1, 141719, Note_on_c, 9, 40, 0
1, 141720, Note_on_c, 9, 40, 64
1, 141839, Note_on_c, 9, 40, 0
1, 141840, Note_on_c, 9, 42, 72
1, 141844, Note_on_c, 9, 42, 0
1, 141960, Note_on_c, 9, 42, 84
1, 141964, Note_on_c, 9, 42, 0
1, 142080, Note_on_c, 9, 42, 86
1, 142080, Note_on_c, 9, 36, 113
1, 142084, Note_on_c, 9, 42, 0
1, 142200, Note_on_c, 9, 42, 90
1, 142204, Note_on_c, 9, 42, 0
1, 142320, Note_on_c, 9, 42, 77
1, 142324, Note_on_c, 9, 42, 0
1, 142440, Note_on_c, 9, 42, 78
1, 142444, Note_on_c, 9, 42, 0
1, 142559, Note_on_c, 9, 36, 0
1, 142560, Note_on_c, 9, 40, 127
1, 142560, Note_on_c, 9, 42, 97
1, 142564, Note_on_c, 9, 42, 0
1, 142679, Note_on_c, 9, 40, 0
1, 142680, Note_on_c, 9, 40, 67
1, 142680, Note_on_c, 9, 42, 86
1, 142684, Note_on_c, 9, 42, 0
1, 142799, Note_on_c, 9, 40, 0
1, 142800, Note_on_c, 9, 42, 75
1, 142804, Note_on_c, 9, 42, 0
1, 142920, Note_on_c, 9, 42, 69
1, 142924, Note_on_c, 9, 42, 0
1, 143040, Note_on_c, 9, 42, 84
1, 143040, Note_on_c, 9, 36, 100
1, 143044, Note_on_c, 9, 42, 0
1, 143160, Note_on_c, 9, 42, 84
1, 143164, Note_on_c, 9, 42, 0
1, 143280, Note_on_c, 9, 42, 79
1, 143284, Note_on_c, 9, 42, 0
1, 143400, Note_on_c, 9, 42, 81
1, 143404, Note_on_c, 9, 42, 0
1, 143519, Note_on_c, 9, 36, 0
1, 143520, Note_on_c, 9, 40, 127
1, 143520, Note_on_c, 9, 42, 82
1, 143524, Note_on_c, 9, 42, 0
1, 143639, Note_on_c, 9, 40, 0
1, 143640, Note_on_c, 9, 40, 64
1, 143640, Note_on_c, 9, 42, 100
1, 143644, Note_on_c, 9, 42, 0
1, 143759, Note_on_c, 9, 40, 0
1, 143760, Note_on_c, 9, 46, 110
1, 143769, Note_on_c, 9, 46, 0
1, 144000, Note_on_c, 9, 42, 119
1, 144000, Note_on_c, 9, 36, 119
1, 144004, Note_on_c, 9, 42, 0
1, 144119, Note_on_c, 9, 36, 0
1, 144120, Note_on_c, 9, 42, 97
1, 144120, Note_on_c, 9, 36, 84
1, 144124, Note_on_c, 9, 42, 0
1, 144240, Note_on_c, 9, 42, 75
1, 144244, Note_on_c, 9, 42, 0
1, 144360, Note_on_c, 9, 42, 67
1, 144364, Note_on_c, 9, 42, 0
1, 144479, Note_on_c, 9, 36, 0
1, 144480, Note_on_c, 9, 40, 123
1, 144480, Note_on_c, 9, 42, 100
1, 144484, Note_on_c, 9, 42, 0
1, 144599, Note_on_c, 9, 40, 0
1, 144600, Note_on_c, 9, 40, 57
1, 144600, Note_on_c, 9, 42, 82
1, 144604, Note_on_c, 9, 42, 0
1, 144719, Note_on_c, 9, 40, 0
1, 144720, Note_on_c, 9, 42, 54
1, 144724, Note_on_c, 9, 42, 0
1, 144840, Note_on_c, 9, 42, 74
1, 144844, Note_on_c, 9, 42, 0
1, 144960, Note_on_c, 9, 42, 86
1, 144960, Note_on_c, 9, 36, 107
1, 144964, Note_on_c, 9, 42, 0
1, 145080, Note_on_c, 9, 42, 57
1, 145084, Note_on_c, 9, 42, 0
1, 145200, Note_on_c, 9, 42, 63
1, 145204, Note_on_c, 9, 42, 0
1, 145320, Note_on_c, 9, 42, 79
1, 145324, Note_on_c, 9, 42, 0
1, 145439, Note_on_c, 9, 36, 0
1, 145440, Note_on_c, 9, 40, 127
1, 145440, Note_on_c, 9, 42, 86
1, 145444, Note_on_c, 9, 42, 0
1, 145559, Note_on_c, 9, 40, 0
1, 145560, Note_on_c, 9, 40, 64
1, 145679, Note_on_c, 9, 40, 0
1, 145680, Note_on_c, 9, 42, 72
1, 145684, Note_on_c, 9, 42, 0
1, 145800, Note_on_c, 9, 42, 84
1, 145804, Note_on_c, 9, 42, 0
1, 145920, Note_on_c, 9, 42, 86
1, 145920, Note_on_c, 9, 36, 113
1, 145924, Note_on_c, 9, 42, 0
1, 146040, Note_on_c, 9, 42, 90
1, 146044, Note_on_c, 9, 42, 0
1, 146160, Note_on_c, 9, 42, 77
1, 146164, Note_on_c, 9, 42, 0
1, 146280, Note_on_c, 9, 42, 78
1, 146284, Note_on_c, 9, 42, 0
1, 146399, Note_on_c, 9, 36, 0
1, 146400, Note_on_c, 9, 40, 127
1, 146400, Note_on_c, 9, 42, 97
1, 146404, Note_on_c, 9, 42, 0
1, 146519, Note_on_c, 9, 40, 0
1, 146520, Note_on_c, 9, 40, 67
1, 146520, Note_on_c, 9, 42, 86
1, 146524, Note_on_c, 9, 42, 0
1, 146639, Note_on_c, 9, 40, 0
1, 146640, Note_on_c, 9, 42, 75
1, 146644, Note_on_c, 9, 42, 0
1, 146760, Note_on_c, 9, 42, 69
1, 146764, Note_on_c, 9, 42, 0
1, 146880, Note_on_c, 9, 42, 84
1, 146880, Note_on_c, 9, 36, 100
1, 146884, Note_on_c, 9, 42, 0
1, 147000, Note_on_c, 9, 42, 84
1, 147004, Note_on_c, 9, 42, 0
1, 147120, Note_on_c, 9, 42, 79
1, 147124, Note_on_c, 9, 42, 0
1, 147240, Note_on_c, 9, 42, 81
1, 147244, Note_on_c, 9, 42, 0
1, 147359, Note_on_c, 9, 36, 0
1, 147360, Note_on_c, 9, 40, 127
1, 147360, Note_on_c, 9, 42, 82
1, 147364, Note_on_c, 9, 42, 0
1, 147479, Note_on_c, 9, 40, 0
1, 147480, Note_on_c, 9, 40, 64
1, 147480, Note_on_c, 9, 42, 100
1, 147484, Note_on_c, 9, 42, 0
1, 147599, Note_on_c, 9, 40, 0
1, 147600, Note_on_c, 9, 46, 110
1, 147609, Note_on_c, 9, 46, 0
1, 147840, Note_on_c, 9, 42, 90
1, 147840, Note_on_c, 9, 36, 104
1, 147844, Note_on_c, 9, 42, 0
1, 147960, Note_on_c, 9, 42, 77
1, 147964, Note_on_c, 9, 42, 0
1, 148080, Note_on_c, 9, 42, 81
1, 148084, Note_on_c, 9, 42, 0
1, 148200, Note_on_c, 9, 42, 82
1, 148204, Note_on_c, 9, 42, 0
1, 148319, Note_on_c, 9, 36, 0
1, 148320, Note_on_c, 9, 40, 119
1, 148320, Note_on_c, 9, 42, 86
1, 148324, Note_on_c, 9, 42, 0
1, 148439, Note_on_c, 9, 40, 0
1, 148440, Note_on_c, 9, 40, 53
1, 148440, Note_on_c, 9, 42, 74
1, 148444, Note_on_c, 9, 42, 0
1, 148559, Note_on_c, 9, 40, 0
1, 148560, Note_on_c, 9, 42, 75
1, 148564, Note_on_c, 9, 42, 0
1, 148680, Note_on_c, 9, 42, 67
1, 148684, Note_on_c, 9, 42, 0
1, 148800, Note_on_c, 9, 42, 70
1, 148800, Note_on_c, 9, 36, 100
1, 148804, Note_on_c, 9, 42, 0
1, 148920, Note_on_c, 9, 42, 70
1, 148924, Note_on_c, 9, 42, 0
1, 149040, Note_on_c, 9, 42, 78
1, 149044, Note_on_c, 9, 42, 0
1, 149160, Note_on_c, 9, 42, 67
1, 149164, Note_on_c, 9, 42, 0
1, 149279, Note_on_c, 9, 36, 0
1, 149280, Note_on_c, 9, 40, 122
1, 149280, Note_on_c, 9, 42, 90
1, 149284, Note_on_c, 9, 42, 0
1, 149399, Note_on_c, 9, 40, 0
1, 149400, Note_on_c, 9, 40, 56
1, 149400, Note_on_c, 9, 42, 100
1, 149404, Note_on_c, 9, 42, 0
1, 149519, Note_on_c, 9, 40, 0
1, 149520, Note_on_c, 9, 46, 105
1, 149529, Note_on_c, 9, 46, 0
1, 149760, Note_on_c, 9, 42, 120
1, 149760, Note_on_c, 9, 36, 116
1, 149764, Note_on_c, 9, 42, 0
1, 149879, Note_on_c, 9, 36, 0
1, 149880, Note_on_c, 9, 42, 97
1, 149880, Note_on_c, 9, 36, 84
1, 149884, Note_on_c, 9, 42, 0
1, 150000, Note_on_c, 9, 42, 75
1, 150004, Note_on_c, 9, 42, 0
1, 150120, Note_on_c, 9, 42, 67
1, 150124, Note_on_c, 9, 42, 0
1, 150239, Note_on_c, 9, 36, 0
1, 150240, Note_on_c, 9, 40, 123
1, 150240, Note_on_c, 9, 42, 100
1, 150244, Note_on_c, 9, 42, 0
1, 150359, Note_on_c, 9, 40, 0
1, 150360, Note_on_c, 9, 40, 57
1, 150360, Note_on_c, 9, 42, 82
1, 150364, Note_on_c, 9, 42, 0
1, 150479, Note_on_c, 9, 40, 0
1, 150480, Note_on_c, 9, 42, 54
1, 150484, Note_on_c, 9, 42, 0
1, 150600, Note_on_c, 9, 42, 74
1, 150604, Note_on_c, 9, 42, 0
1, 150720, Note_on_c, 9, 42, 86
1, 150720, Note_on_c, 9, 36, 107
1, 150724, Note_on_c, 9, 42, 0
1, 150840, Note_on_c, 9, 42, 57
1, 150844, Note_on_c, 9, 42, 0
1, 150960, Note_on_c, 9, 42, 63
1, 150964, Note_on_c, 9, 42, 0
1, 151080, Note_on_c, 9, 42, 79
1, 151084, Note_on_c, 9, 42, 0
1, 151199, Note_on_c, 9, 36, 0
1, 151200, Note_on_c, 9, 40, 127
1, 151200, Note_on_c, 9, 42, 86
1, 151204, Note_on_c, 9, 42, 0
1, 151319, Note_on_c, 9, 40, 0
1, 151320, Note_on_c, 9, 40, 64
1, 151439, Note_on_c, 9, 40, 0
1, 151440, Note_on_c, 9, 42, 72
1, 151444, Note_on_c, 9, 42, 0
1, 151560, Note_on_c, 9, 42, 84
1, 151564, Note_on_c, 9, 42, 0
1, 151680, Note_on_c, 9, 42, 86
1, 151680, Note_on_c, 9, 36, 113
1, 151684, Note_on_c, 9, 42, 0
1, 151800, Note_on_c, 9, 42, 90
1, 151804, Note_on_c, 9, 42, 0
1, 151920, Note_on_c, 9, 42, 77
1, 151924, Note_on_c, 9, 42, 0
1, 152040, Note_on_c, 9, 42, 78
1, 152044, Note_on_c, 9, 42, 0
1, 152159, Note_on_c, 9, 36, 0
1, 152160, Note_on_c, 9, 40, 127
1, 152160, Note_on_c, 9, 42, 97
1, 152164, Note_on_c, 9, 42, 0
1, 152279, Note_on_c, 9, 40, 0
1, 152280, Note_on_c, 9, 40, 67
1, 152280, Note_on_c, 9, 42, 86
1, 152284, Note_on_c, 9, 42, 0
1, 152399, Note_on_c, 9, 40, 0
1, 152400, Note_on_c, 9, 42, 75
1, 152404, Note_on_c, 9, 42, 0
1, 152520, Note_on_c, 9, 42, 69
1, 152524, Note_on_c, 9, 42, 0
1, 152640, Note_on_c, 9, 42, 84
1, 152640, Note_on_c, 9, 36, 100
1, 152644, Note_on_c, 9, 42, 0
1, 152760, Note_on_c, 9, 42, 84
1, 152764, Note_on_c, 9, 42, 0
1, 152880, Note_on_c, 9, 42, 79
1, 152884, Note_on_c, 9, 42, 0
1, 153000, Note_on_c, 9, 42, 81
1, 153004, Note_on_c, 9, 42, 0
1, 153119, Note_on_c, 9, 36, 0
1, 153120, Note_on_c, 9, 40, 127
1, 153120, Note_on_c, 9, 42, 82
1, 153124, Note_on_c, 9, 42, 0
1, 153239, Note_on_c, 9, 40, 0
1, 153240, Note_on_c, 9, 40, 64
1, 153240, Note_on_c, 9, 42, 100
1, 153244, Note_on_c, 9, 42, 0
1, 153359, Note_on_c, 9, 40, 0
1, 153360, Note_on_c, 9, 46, 110
1, 153369, Note_on_c, 9, 46, 0
1, 153600, Note_on_c, 9, 42, 110
1, 153600, Note_on_c, 9, 36, 107
1, 153604, Note_on_c, 9, 42, 0
1, 153719, Note_on_c, 9, 36, 0
1, 153720, Note_on_c, 9, 42, 69
1, 153720, Note_on_c, 9, 36, 78
1, 153724, Note_on_c, 9, 42, 0
1, 153840, Note_on_c, 9, 42, 82
1, 153844, Note_on_c, 9, 42, 0
1, 153960, Note_on_c, 9, 42, 84
1, 153964, Note_on_c, 9, 42, 0
1, 154079, Note_on_c, 9, 36, 0
1, 154080, Note_on_c, 9, 40, 122
1, 154080, Note_on_c, 9, 42, 100
1, 154084, Note_on_c, 9, 42, 0
1, 154199, Note_on_c, 9, 40, 0
1, 154200, Note_on_c, 9, 40, 56
1, 154200, Note_on_c, 9, 42, 72
1, 154204, Note_on_c, 9, 42, 0
1, 154319, Note_on_c, 9, 40, 0
1, 154320, Note_on_c, 9, 42, 82
1, 154324, Note_on_c, 9, 42, 0
1, 154440, Note_on_c, 9, 42, 75
1, 154444, Note_on_c, 9, 42, 0
1, 154560, Note_on_c, 9, 42, 82
1, 154560, Note_on_c, 9, 36, 104
1, 154564, Note_on_c, 9, 42, 0
1, 154680, Note_on_c, 9, 42, 77
1, 154684, Note_on_c, 9, 42, 0
1, 154800, Note_on_c, 9, 42, 75
1, 154804, Note_on_c, 9, 42, 0
1, 154920, Note_on_c, 9, 42, 77
1, 154924, Note_on_c, 9, 42, 0
1, 155039, Note_on_c, 9, 36, 0
1, 155040, Note_on_c, 9, 40, 127
1, 155040, Note_on_c, 9, 42, 86
1, 155044, Note_on_c, 9, 42, 0
1, 155159, Note_on_c, 9, 40, 0
1, 155160, Note_on_c, 9, 40, 61
1, 155160, Note_on_c, 9, 42, 86
1, 155164, Note_on_c, 9, 42, 0
1, 155279, Note_on_c, 9, 40, 0
1, 155280, Note_on_c, 9, 42, 59
1, 155284, Note_on_c, 9, 42, 0
1, 155400, Note_on_c, 9, 42, 72
1, 155404, Note_on_c, 9, 42, 0
1, 155520, Note_on_c, 9, 42, 90
1, 155520, Note_on_c, 9, 36, 104
1, 155524, Note_on_c, 9, 42, 0
1, 155640, Note_on_c, 9, 42, 77
1, 155644, Note_on_c, 9, 42, 0
1, 155760, Note_on_c, 9, 42, 81
1, 155764, Note_on_c, 9, 42, 0
1, 155880, Note_on_c, 9, 42, 82
1, 155884, Note_on_c, 9, 42, 0
1, 155999, Note_on_c, 9, 36, 0
1, 156000, Note_on_c, 9, 40, 119
1, 156000, Note_on_c, 9, 42, 86
1, 156004, Note_on_c, 9, 42, 0
1, 156119, Note_on_c, 9, 40, 0
1, 156120, Note_on_c, 9, 40, 53
1, 156120, Note_on_c, 9, 42, 74
1, 156124, Note_on_c, 9, 42, 0
1, 156239, Note_on_c, 9, 40, 0
1, 156240, Note_on_c, 9, 42, 75
1, 156244, Note_on_c, 9, 42, 0
1, 156360, Note_on_c, 9, 42, 67
1, 156364, Note_on_c, 9, 42, 0
1, 156480, Note_on_c, 9, 42, 70
1, 156480, Note_on_c, 9, 36, 100
1, 156484, Note_on_c, 9, 42, 0
1, 156600, Note_on_c, 9, 42, 70
1, 156604, Note_on_c, 9, 42, 0
1, 156720, Note_on_c, 9, 42, 78
1, 156724, Note_on_c, 9, 42, 0
1, 156840, Note_on_c, 9, 42, 67
1, 156844, Note_on_c, 9, 42, 0
1, 156959, Note_on_c, 9, 36, 0
1, 156960, Note_on_c, 9, 40, 122
1, 156960, Note_on_c, 9, 42, 90
1, 156964, Note_on_c, 9, 42, 0
1, 157079, Note_on_c, 9, 40, 0
1, 157080, Note_on_c, 9, 40, 56
1, 157080, Note_on_c, 9, 42, 100
1, 157084, Note_on_c, 9, 42, 0
1, 157199, Note_on_c, 9, 40, 0
1, 157200, Note_on_c, 9, 46, 105
1, 157209, Note_on_c, 9, 46, 0
1, 157440, Note_on_c, 9, 42, 120
1, 157440, Note_on_c, 9, 36, 116
1, 157444, Note_on_c, 9, 42, 0
1, 157559, Note_on_c, 9, 36, 0
1, 157560, Note_on_c, 9, 42, 97
1, 157560, Note_on_c, 9, 36, 84
1, 157564, Note_on_c, 9, 42, 0
1, 157680, Note_on_c, 9, 42, 75
1, 157684, Note_on_c, 9, 42, 0
1, 157800, Note_on_c, 9, 42, 67
1, 157804, Note_on_c, 9, 42, 0
1, 157919, Note_on_c, 9, 36, 0
1, 157920, Note_on_c, 9, 40, 123
1, 157920, Note_on_c, 9, 42, 100
1, 157924, Note_on_c, 9, 42, 0
1, 158039, Note_on_c, 9, 40, 0
1, 158040, Note_on_c, 9, 40, 57
1, 158040, Note_on_c, 9, 42, 82
1, 158044, Note_on_c, 9, 42, 0
1, 158159, Note_on_c, 9, 40, 0
1, 158160, Note_on_c, 9, 42, 54
1, 158164, Note_on_c, 9, 42, 0
1, 158280, Note_on_c, 9, 42, 74
1, 158284, Note_on_c, 9, 42, 0
1, 158400, Note_on_c, 9, 42, 86
1, 158400, Note_on_c, 9, 36, 107
1, 158404, Note_on_c, 9, 42, 0
1, 158520, Note_on_c, 9, 42, 57
1, 158524, Note_on_c, 9, 42, 0
1, 158640, Note_on_c, 9, 42, 63
1, 158644, Note_on_c, 9, 42, 0
1, 158760, Note_on_c, 9, 42, 79
1, 158764, Note_on_c, 9, 42, 0
1, 158879, Note_on_c, 9, 36, 0
1, 158880, Note_on_c, 9, 40, 127
1, 158880, Note_on_c, 9, 42, 86
1, 158884, Note_on_c, 9, 42, 0
1, 158999, Note_on_c, 9, 40, 0
1, 159000, Note_on_c, 9, 40, 64
1, 159119, Note_on_c, 9, 40, 0
1, 159120, Note_on_c, 9, 42, 72
1, 159124, Note_on_c, 9, 42, 0
1, 159240, Note_on_c, 9, 42, 84
1, 159244, Note_on_c, 9, 42, 0
1, 159360, Note_on_c, 9, 42, 86
1, 159360, Note_on_c, 9, 36, 113
1, 159364, Note_on_c, 9, 42, 0
1, 159480, Note_on_c, 9, 42, 90
1, 159484, Note_on_c, 9, 42, 0
1, 159600, Note_on_c, 9, 42, 77
1, 159604, Note_on_c, 9, 42, 0
1, 159720, Note_on_c, 9, 42, 78
1, 159724, Note_on_c, 9, 42, 0
1, 159839, Note_on_c, 9, 36, 0
1, 159840, Note_on_c, 9, 40, 127
1, 159840, Note_on_c, 9, 42, 97
1, 159844, Note_on_c, 9, 42, 0
1, 159959, Note_on_c, 9, 40, 0
1, 159960, Note_on_c, 9, 40, 67
1, 159960, Note_on_c, 9, 42, 86
1, 159964, Note_on_c, 9, 42, 0
1, 160079, Note_on_c, 9, 40, 0
1, 160080, Note_on_c, 9, 42, 75
1, 160084, Note_on_c, 9, 42, 0
1, 160200, Note_on_c, 9, 42, 69
1, 160204, Note_on_c, 9, 42, 0
1, 160320, Note_on_c, 9, 42, 84
1, 160320, Note_on_c, 9, 36, 100
1, 160324, Note_on_c, 9, 42, 0
1, 160440, Note_on_c, 9, 42, 84
1, 160444, Note_on_c, 9, 42, 0
1, 160560, Note_on_c, 9, 42, 79
1, 160564, Note_on_c, 9, 42, 0
1, 160680, Note_on_c, 9, 42, 81
1, 160684, Note_on_c, 9, 42, 0
1, 160799, Note_on_c, 9, 36, 0
1, 160800, Note_on_c, 9, 40, 127
1, 160800, Note_on_c, 9, 42, 82
1, 160804, Note_on_c, 9, 42, 0
1, 160919, Note_on_c, 9, 40, 0
1, 160920, Note_on_c, 9, 40, 64
1, 160920, Note_on_c, 9, 42, 100
1, 160924, Note_on_c, 9, 42, 0
1, 161039, Note_on_c, 9, 40, 0
1, 161040, Note_on_c, 9, 46, 110
1, 161049, Note_on_c, 9, 46, 0
1, 161280, Note_on_c, 9, 42, 110
1, 161280, Note_on_c, 9, 36, 107
1, 161284, Note_on_c, 9, 42, 0
1, 161399, Note_on_c, 9, 36, 0
1, 161400, Note_on_c, 9, 42, 69
1, 161400, Note_on_c, 9, 36, 78
1, 161404, Note_on_c, 9, 42, 0
1, 161520, Note_on_c, 9, 42, 82
1, 161524, Note_on_c, 9, 42, 0
1, 161640, Note_on_c, 9, 42, 84
1, 161644, Note_on_c, 9, 42, 0
1, 161759, Note_on_c, 9, 36, 0
1, 161760, Note_on_c, 9, 40, 122
1, 161760, Note_on_c, 9, 42, 100
1, 161764, Note_on_c, 9, 42, 0
1, 161879, Note_on_c, 9, 40, 0
1, 161880, Note_on_c, 9, 40, 56
1, 161880, Note_on_c, 9, 42, 72
1, 161884, Note_on_c, 9, 42, 0
1, 161999, Note_on_c, 9, 40, 0
1, 162000, Note_on_c, 9, 42, 82
1, 162004, Note_on_c, 9, 42, 0
1, 162120, Note_on_c, 9, 42, 75
1, 162124, Note_on_c, 9, 42, 0
1, 162240, Note_on_c, 9, 42, 82
1, 162240, Note_on_c, 9, 36, 104
1, 162244, Note_on_c, 9, 42, 0
1, 162360, Note_on_c, 9, 42, 77
1, 162364, Note_on_c, 9, 42, 0
1, 162480, Note_on_c, 9, 42, 75
1, 162484, Note_on_c, 9, 42, 0
1, 162600, Note_on_c, 9, 42, 77
1, 162604, Note_on_c, 9, 42, 0
1, 162719, Note_on_c, 9, 36, 0
1, 162720, Note_on_c, 9, 40, 127
1, 162720, Note_on_c, 9, 42, 86
1, 162724, Note_on_c, 9, 42, 0
1, 162839, Note_on_c, 9, 40, 0
1, 162840, Note_on_c, 9, 40, 61
1, 162840, Note_on_c, 9, 42, 86
1, 162844, Note_on_c, 9, 42, 0
1, 162959, Note_on_c, 9, 40, 0
1, 162960, Note_on_c, 9, 42, 59
1, 162964, Note_on_c, 9, 42, 0
1, 163080, Note_on_c, 9, 42, 72
1, 163084, Note_on_c, 9, 42, 0
1, 163200, Note_on_c, 9, 42, 90
1, 163200, Note_on_c, 9, 36, 104
1, 163204, Note_on_c, 9, 42, 0
1, 163320, Note_on_c, 9, 42, 77
1, 163324, Note_on_c, 9, 42, 0
1, 163440, Note_on_c, 9, 42, 81
1, 163444, Note_on_c, 9, 42, 0
1, 163560, Note_on_c, 9, 42, 82
1, 163564, Note_on_c, 9, 42, 0
1, 163679, Note_on_c, 9, 36, 0
1, 163680, Note_on_c, 9, 40, 119
1, 163680, Note_on_c, 9, 42, 86
1, 163684, Note_on_c, 9, 42, 0
1, 163799, Note_on_c, 9, 40, 0
1, 163800, Note_on_c, 9, 40, 53
1, 163800, Note_on_c, 9, 42, 74
1, 163804, Note_on_c, 9, 42, 0
1, 163919, Note_on_c, 9, 40, 0
1, 163920, Note_on_c, 9, 42, 75
1, 163924, Note_on_c, 9, 42, 0
1, 164040, Note_on_c, 9, 42, 67
1, 164044, Note_on_c, 9, 42, 0
1, 164160, Note_on_c, 9, 42, 70
1, 164160, Note_on_c, 9, 36, 100
1, 164164, Note_on_c, 9, 42, 0
1, 164280, Note_on_c, 9, 42, 70
1, 164284, Note_on_c, 9, 42, 0
1, 164400, Note_on_c, 9, 42, 78
1, 164404, Note_on_c, 9, 42, 0
1, 164520, Note_on_c, 9, 42, 67
1, 164524, Note_on_c, 9, 42, 0
1, 164639, Note_on_c, 9, 36, 0
1, 164640, Note_on_c, 9, 40, 122
1, 164640, Note_on_c, 9, 42, 90
1, 164644, Note_on_c, 9, 42, 0
1, 164759, Note_on_c, 9, 40, 0
1, 164760, Note_on_c, 9, 40, 56
1, 164760, Note_on_c, 9, 42, 100
1, 164764, Note_on_c, 9, 42, 0
1, 164879, Note_on_c, 9, 40, 0
1, 164880, Note_on_c, 9, 46, 105
1, 164889, Note_on_c, 9, 46, 0
1, 165120, Note_on_c, 9, 42, 120
1, 165120, Note_on_c, 9, 36, 116
1, 165124, Note_on_c, 9, 42, 0
1, 165239, Note_on_c, 9, 36, 0
1, 165240, Note_on_c, 9, 42, 97
1, 165240, Note_on_c, 9, 36, 84
1, 165244, Note_on_c, 9, 42, 0
1, 165360, Note_on_c, 9, 42, 75
1, 165364, Note_on_c, 9, 42, 0
1, 165480, Note_on_c, 9, 42, 67
1, 165484, Note_on_c, 9, 42, 0
1, 165599, Note_on_c, 9, 36, 0
1, 165600, Note_on_c, 9, 40, 123
1, 165600, Note_on_c, 9, 42, 100
1, 165604, Note_on_c, 9, 42, 0
1, 165719, Note_on_c, 9, 40, 0
1, 165720, Note_on_c, 9, 40, 57
1, 165720, Note_on_c, 9, 42, 82
1, 165724, Note_on_c, 9, 42, 0
1, 165839, Note_on_c, 9, 40, 0
1, 165840, Note_on_c, 9, 42, 54
1, 165844, Note_on_c, 9, 42, 0
1, 165960, Note_on_c, 9, 42, 74
1, 165964, Note_on_c, 9, 42, 0
1, 166080, Note_on_c, 9, 42, 86
1, 166080, Note_on_c, 9, 36, 107
1, 166084, Note_on_c, 9, 42, 0
1, 166200, Note_on_c, 9, 42, 57
1, 166204, Note_on_c, 9, 42, 0
1, 166320, Note_on_c, 9, 42, 63
1, 166324, Note_on_c, 9, 42, 0
1, 166440, Note_on_c, 9, 42, 79
1, 166444, Note_on_c, 9, 42, 0
1, 166559, Note_on_c, 9, 36, 0
1, 166560, Note_on_c, 9, 40, 127
1, 166560, Note_on_c, 9, 42, 86
1, 166564, Note_on_c, 9, 42, 0
1, 166679, Note_on_c, 9, 40, 0
1, 166680, Note_on_c, 9, 40, 64
1, 166799, Note_on_c, 9, 40, 0
1, 166800, Note_on_c, 9, 42, 72
1, 166804, Note_on_c, 9, 42, 0
1, 166920, Note_on_c, 9, 42, 84
1, 166924, Note_on_c, 9, 42, 0
1, 167040, Note_on_c, 9, 42, 86
1, 167040, Note_on_c, 9, 36, 113
1, 167044, Note_on_c, 9, 42, 0
1, 167160, Note_on_c, 9, 42, 90
1, 167164, Note_on_c, 9, 42, 0
1, 167280, Note_on_c, 9, 42, 77
1, 167284, Note_on_c, 9, 42, 0
1, 167400, Note_on_c, 9, 42, 78
1, 167404, Note_on_c, 9, 42, 0
1, 167519, Note_on_c, 9, 36, 0
1, 167520, Note_on_c, 9, 40, 127
1, 167520, Note_on_c, 9, 42, 97
1, 167524, Note_on_c, 9, 42, 0
1, 167639, Note_on_c, 9, 40, 0
1, 167640, Note_on_c, 9, 40, 67
1, 167640, Note_on_c, 9, 42, 86
1, 167644, Note_on_c, 9, 42, 0
1, 167759, Note_on_c, 9, 40, 0
1, 167760, Note_on_c, 9, 42, 75
1, 167764, Note_on_c, 9, 42, 0
1, 167880, Note_on_c, 9, 42, 69
1, 167884, Note_on_c, 9, 42, 0
1, 168000, Note_on_c, 9, 42, 84
1, 168000, Note_on_c, 9, 36, 100
1, 168004, Note_on_c, 9, 42, 0
1, 168120, Note_on_c, 9, 42, 84
1, 168124, Note_on_c, 9, 42, 0
1, 168240, Note_on_c, 9, 42, 79
1, 168244, Note_on_c, 9, 42, 0
1, 168360, Note_on_c, 9, 42, 81
1, 168364, Note_on_c, 9, 42, 0
1, 168479, Note_on_c, 9, 36, 0
1, 168480, Note_on_c, 9, 40, 127
1, 168480, Note_on_c, 9, 42, 82
1, 168484, Note_on_c, 9, 42, 0
1, 168599, Note_on_c, 9, 40, 0
1, 168600, Note_on_c, 9, 40, 64
1, 168600, Note_on_c, 9, 42, 100
1, 168604, Note_on_c, 9, 42, 0
1, 168719, Note_on_c, 9, 40, 0
1, 168720, Note_on_c, 9, 46, 110
1, 168729, Note_on_c, 9, 46, 0
1, 168960, Note_on_c, 9, 42, 110
1, 168960, Note_on_c, 9, 36, 107
1, 168964, Note_on_c, 9, 42, 0
1, 169079, Note_on_c, 9, 36, 0
1, 169080, Note_on_c, 9, 42, 69
1, 169080, Note_on_c, 9, 36, 78
1, 169084, Note_on_c, 9, 42, 0
1, 169200, Note_on_c, 9, 42, 82
1, 169204, Note_on_c, 9, 42, 0
1, 169320, Note_on_c, 9, 42, 84
1, 169324, Note_on_c, 9, 42, 0
1, 169439, Note_on_c, 9, 36, 0
1, 169440, Note_on_c, 9, 40, 122
1, 169440, Note_on_c, 9, 42, 100
1, 169444, Note_on_c, 9, 42, 0
1, 169559, Note_on_c, 9, 40, 0
1, 169560, Note_on_c, 9, 40, 56
1, 169560, Note_on_c, 9, 42, 72
1, 169564, Note_on_c, 9, 42, 0
1, 169679, Note_on_c, 9, 40, 0
1, 169680, Note_on_c, 9, 42, 82
1, 169684, Note_on_c, 9, 42, 0
1, 169800, Note_on_c, 9, 42, 75
1, 169804, Note_on_c, 9, 42, 0
1, 169920, Note_on_c, 9, 42, 82
1, 169920, Note_on_c, 9, 36, 104
1, 169924, Note_on_c, 9, 42, 0
1, 170040, Note_on_c, 9, 42, 77
1, 170044, Note_on_c, 9, 42, 0
1, 170160, Note_on_c, 9, 42, 75
1, 170164, Note_on_c, 9, 42, 0
1, 170280, Note_on_c, 9, 42, 77
1, 170284, Note_on_c, 9, 42, 0
1, 170399, Note_on_c, 9, 36, 0
1, 170400, Note_on_c, 9, 40, 127
1, 170400, Note_on_c, 9, 42, 86
1, 170404, Note_on_c, 9, 42, 0
1, 170519, Note_on_c, 9, 40, 0
1, 170520, Note_on_c, 9, 40, 61
1, 170520, Note_on_c, 9, 42, 86
1, 170524, Note_on_c, 9, 42, 0
1, 170639, Note_on_c, 9, 40, 0
1, 170640, Note_on_c, 9, 42, 59
1, 170644, Note_on_c, 9, 42, 0
1, 170760, Note_on_c, 9, 42, 72
1, 170764, Note_on_c, 9, 42, 0
1, 170880, Note_on_c, 9, 42, 90
1, 170880, Note_on_c, 9, 36, 104
1, 170884, Note_on_c, 9, 42, 0
1, 171000, Note_on_c, 9, 42, 77
1, 171004, Note_on_c, 9, 42, 0
1, 171120, Note_on_c, 9, 42, 81
1, 171124, Note_on_c, 9, 42, 0
1, 171240, Note_on_c, 9, 42, 82
1, 171244, Note_on_c, 9, 42, 0
1, 171359, Note_on_c, 9, 36, 0
1, 171360, Note_on_c, 9, 40, 119
1, 171360, Note_on_c, 9, 42, 86
1, 171364, Note_on_c, 9, 42, 0
1, 171479, Note_on_c, 9, 40, 0
1, 171480, Note_on_c, 9, 40, 53
1, 171480, Note_on_c, 9, 42, 74
1, 171484, Note_on_c, 9, 42, 0
1, 171599, Note_on_c, 9, 40, 0
1, 171600, Note_on_c, 9, 42, 75
1, 171604, Note_on_c, 9, 42, 0
1, 171720, Note_on_c, 9, 42, 67
1, 171724, Note_on_c, 9, 42, 0
1, 171840, Note_on_c, 9, 42, 70
1, 171840, Note_on_c, 9, 36, 100
1, 171844, Note_on_c, 9, 42, 0
1, 171960, Note_on_c, 9, 42, 70
1, 171964, Note_on_c, 9, 42, 0
1, 172080, Note_on_c, 9, 42, 78
1, 172084, Note_on_c, 9, 42, 0
1, 172200, Note_on_c, 9, 42, 67
1, 172204, Note_on_c, 9, 42, 0
1, 172319, Note_on_c, 9, 36, 0
1, 172320, Note_on_c, 9, 40, 122
1, 172320, Note_on_c, 9, 42, 90
1, 172324, Note_on_c, 9, 42, 0
1, 172439, Note_on_c, 9, 40, 0
1, 172440, Note_on_c, 9, 40, 56
1, 172440, Note_on_c, 9, 42, 100
1, 172444, Note_on_c, 9, 42, 0
1, 172559, Note_on_c, 9, 40, 0
1, 172560, Note_on_c, 9, 46, 105
1, 172569, Note_on_c, 9, 46, 0
1, 172800, Note_on_c, 9, 42, 120
1, 172800, Note_on_c, 9, 36, 116
1, 172804, Note_on_c, 9, 42, 0
1, 172919, Note_on_c, 9, 36, 0
1, 172920, Note_on_c, 9, 42, 97
1, 172920, Note_on_c, 9, 36, 84
1, 172924, Note_on_c, 9, 42, 0
1, 173040, Note_on_c, 9, 42, 75
1, 173044, Note_on_c, 9, 42, 0
1, 173160, Note_on_c, 9, 42, 67
1, 173164, Note_on_c, 9, 42, 0
1, 173279, Note_on_c, 9, 36, 0
1, 173280, Note_on_c, 9, 40, 123
1, 173280, Note_on_c, 9, 42, 100
1, 173284, Note_on_c, 9, 42, 0
1, 173399, Note_on_c, 9, 40, 0
1, 173400, Note_on_c, 9, 40, 57
1, 173400, Note_on_c, 9, 42, 82
1, 173404, Note_on_c, 9, 42, 0
1, 173519, Note_on_c, 9, 40, 0
1, 173520, Note_on_c, 9, 42, 54
1, 173524, Note_on_c, 9, 42, 0
1, 173640, Note_on_c, 9, 42, 74
1, 173644, Note_on_c, 9, 42, 0
1, 173760, Note_on_c, 9, 42, 86
1, 173760, Note_on_c, 9, 36, 107
1, 173764, Note_on_c, 9, 42, 0
1, 173880, Note_on_c, 9, 42, 57
1, 173884, Note_on_c, 9, 42, 0
1, 174000, Note_on_c, 9, 42, 63
1, 174004, Note_on_c, 9, 42, 0
1, 174120, Note_on_c, 9, 42, 79
1, 174124, Note_on_c, 9, 42, 0
1, 174239, Note_on_c, 9, 36, 0
1, 174240, Note_on_c, 9, 40, 127
1, 174240, Note_on_c, 9, 42, 86
1, 174244, Note_on_c, 9, 42, 0
1, 174359, Note_on_c, 9, 40, 0
1, 174360, Note_on_c, 9, 40, 64
1, 174479, Note_on_c, 9, 40, 0
1, 174480, Note_on_c, 9, 42, 72
1, 174484, Note_on_c, 9, 42, 0
1, 174600, Note_on_c, 9, 42, 84
1, 174604, Note_on_c, 9, 42, 0
1, 174720, Note_on_c, 9, 42, 86
1, 174720, Note_on_c, 9, 36, 113
1, 174724, Note_on_c, 9, 42, 0
1, 174840, Note_on_c, 9, 42, 90
1, 174844, Note_on_c, 9, 42, 0
1, 174960, Note_on_c, 9, 42, 77
1, 174964, Note_on_c, 9, 42, 0
1, 175080, Note_on_c, 9, 42, 78
1, 175084, Note_on_c, 9, 42, 0
1, 175199, Note_on_c, 9, 36, 0
1, 175200, Note_on_c, 9, 40, 127
1, 175200, Note_on_c, 9, 42, 97
1, 175204, Note_on_c, 9, 42, 0
1, 175319, Note_on_c, 9, 40, 0
1, 175320, Note_on_c, 9, 40, 67
1, 175320, Note_on_c, 9, 42, 86
1, 175324, Note_on_c, 9, 42, 0
1, 175439, Note_on_c, 9, 40, 0
1, 175440, Note_on_c, 9, 42, 75
1, 175444, Note_on_c, 9, 42, 0
1, 175560, Note_on_c, 9, 42, 69
1, 175564, Note_on_c, 9, 42, 0
1, 175680, Note_on_c, 9, 42, 84
1, 175680, Note_on_c, 9, 36, 100
1, 175684, Note_on_c, 9, 42, 0
1, 175800, Note_on_c, 9, 42, 84
1, 175804, Note_on_c, 9, 42, 0
1, 175920, Note_on_c, 9, 42, 79
1, 175924, Note_on_c, 9, 42, 0
1, 176040, Note_on_c, 9, 42, 81
1, 176044, Note_on_c, 9, 42, 0
1, 176159, Note_on_c, 9, 36, 0
1, 176160, Note_on_c, 9, 40, 127
1, 176160, Note_on_c, 9, 42, 82
1, 176164, Note_on_c, 9, 42, 0
1, 176279, Note_on_c, 9, 40, 0
1, 176280, Note_on_c, 9, 40, 64
1, 176280, Note_on_c, 9, 42, 100
1, 176284, Note_on_c, 9, 42, 0
1, 176399, Note_on_c, 9, 40, 0
1, 176400, Note_on_c, 9, 46, 110
1, 176409, Note_on_c, 9, 46, 0
1, 176640, Note_on_c, 9, 42, 110
1, 176640, Note_on_c, 9, 36, 107
1, 176644, Note_on_c, 9, 42, 0
1, 176759, Note_on_c, 9, 36, 0
1, 176760, Note_on_c, 9, 42, 69
1, 176760, Note_on_c, 9, 36, 78
1, 176764, Note_on_c, 9, 42, 0
1, 176880, Note_on_c, 9, 42, 82
1, 176884, Note_on_c, 9, 42, 0
1, 177000, Note_on_c, 9, 42, 84
1, 177004, Note_on_c, 9, 42, 0
1, 177119, Note_on_c, 9, 36, 0
1, 177120, Note_on_c, 9, 40, 122
1, 177120, Note_on_c, 9, 42, 100
1, 177124, Note_on_c, 9, 42, 0
1, 177239, Note_on_c, 9, 40, 0
1, 177240, Note_on_c, 9, 40, 56
1, 177240, Note_on_c, 9, 42, 72
1, 177244, Note_on_c, 9, 42, 0
1, 177359, Note_on_c, 9, 40, 0
1, 177360, Note_on_c, 9, 42, 82
1, 177364, Note_on_c, 9, 42, 0
1, 177480, Note_on_c, 9, 42, 75
1, 177484, Note_on_c, 9, 42, 0
1, 177600, Note_on_c, 9, 42, 82
1, 177600, Note_on_c, 9, 36, 104
1, 177604, Note_on_c, 9, 42, 0
1, 177720, Note_on_c, 9, 42, 77
1, 177724, Note_on_c, 9, 42, 0
1, 177840, Note_on_c, 9, 42, 75
1, 177844, Note_on_c, 9, 42, 0
1, 177960, Note_on_c, 9, 42, 77
1, 177964, Note_on_c, 9, 42, 0
1, 178079, Note_on_c, 9, 36, 0
1, 178080, Note_on_c, 9, 40, 127
1, 178080, Note_on_c, 9, 42, 86
1, 178084, Note_on_c, 9, 42, 0
1, 178199, Note_on_c, 9, 40, 0
1, 178200, Note_on_c, 9, 40, 61
1, 178200, Note_on_c, 9, 42, 86
1, 178204, Note_on_c, 9, 42, 0
1, 178319, Note_on_c, 9, 40, 0
1, 178320, Note_on_c, 9, 42, 59
1, 178324, Note_on_c, 9, 42, 0
1, 178440, Note_on_c, 9, 42, 72
1, 178444, Note_on_c, 9, 42, 0
1, 178560, Note_on_c, 9, 42, 90
1, 178560, Note_on_c, 9, 36, 104
1, 178564, Note_on_c, 9, 42, 0
1, 178680, Note_on_c, 9, 42, 77
1, 178684, Note_on_c, 9, 42, 0
1, 178800, Note_on_c, 9, 42, 81
1, 178804, Note_on_c, 9, 42, 0
1, 178920, Note_on_c, 9, 42, 82
1, 178924, Note_on_c, 9, 42, 0
1, 179039, Note_on_c, 9, 36, 0
1, 179040, Note_on_c, 9, 40, 119
1, 179040, Note_on_c, 9, 42, 86
1, 179044, Note_on_c, 9, 42, 0
1, 179159, Note_on_c, 9, 40, 0
1, 179160, Note_on_c, 9, 40, 53
1, 179160, Note_on_c, 9, 42, 74
1, 179164, Note_on_c, 9, 42, 0
1, 179279, Note_on_c, 9, 40, 0
1, 179280, Note_on_c, 9, 42, 75
1, 179284, Note_on_c, 9, 42, 0
1, 179400, Note_on_c, 9, 42, 67
1, 179404, Note_on_c, 9, 42, 0
1, 179520, Note_on_c, 9, 42, 70
1, 179520, Note_on_c, 9, 36, 100
1, 179524, Note_on_c, 9, 42, 0
1, 179640, Note_on_c, 9, 42, 70
1, 179644, Note_on_c, 9, 42, 0
1, 179760, Note_on_c, 9, 42, 78
1, 179764, Note_on_c, 9, 42, 0
1, 179880, Note_on_c, 9, 42, 67
1, 179884, Note_on_c, 9, 42, 0
1, 179999, Note_on_c, 9, 36, 0
1, 180000, Note_on_c, 9, 40, 122
1, 180000, Note_on_c, 9, 42, 90
1, 180004, Note_on_c, 9, 42, 0
1, 180119, Note_on_c, 9, 40, 0
1, 180120, Note_on_c, 9, 40, 56
1, 180120, Note_on_c, 9, 42, 100
1, 180124, Note_on_c, 9, 42, 0
1, 180239, Note_on_c, 9, 40, 0
1, 180240, Note_on_c, 9, 46, 105
1, 180249, Note_on_c, 9, 46, 0
1, 180480, Note_on_c, 9, 42, 120
1, 180480, Note_on_c, 9, 36, 116
1, 180484, Note_on_c, 9, 42, 0
1, 180599, Note_on_c, 9, 36, 0
1, 180600, Note_on_c, 9, 42, 97
1, 180600, Note_on_c, 9, 36, 84
1, 180604, Note_on_c, 9, 42, 0
1, 180720, Note_on_c, 9, 42, 75
1, 180724, Note_on_c, 9, 42, 0
1, 180840, Note_on_c, 9, 42, 67
1, 180844, Note_on_c, 9, 42, 0
1, 180959, Note_on_c, 9, 36, 0
1, 180960, Note_on_c, 9, 40, 123
1, 180960, Note_on_c, 9, 42, 100
1, 180964, Note_on_c, 9, 42, 0
1, 181079, Note_on_c, 9, 40, 0
1, 181080, Note_on_c, 9, 40, 57
1, 181080, Note_on_c, 9, 42, 82
1, 181084, Note_on_c, 9, 42, 0
1, 181199, Note_on_c, 9, 40, 0
1, 181200, Note_on_c, 9, 42, 54
1, 181204, Note_on_c, 9, 42, 0
1, 181320, Note_on_c, 9, 42, 74
1, 181324, Note_on_c, 9, 42, 0
1, 181440, Note_on_c, 9, 42, 86
1, 181440, Note_on_c, 9, 36, 107
1, 181444, Note_on_c, 9, 42, 0
1, 181560, Note_on_c, 9, 42, 57
1, 181564, Note_on_c, 9, 42, 0
1, 181680, Note_on_c, 9, 42, 63
1, 181684, Note_on_c, 9, 42, 0
1, 181800, Note_on_c, 9, 42, 79
1, 181804, Note_on_c, 9, 42, 0
1, 181919, Note_on_c, 9, 36, 0
1, 181920, Note_on_c, 9, 40, 127
1, 181920, Note_on_c, 9, 42, 86
1, 181924, Note_on_c, 9, 42, 0
1, 182039, Note_on_c, 9, 40, 0
1, 182040, Note_on_c, 9, 40, 64
1, 182159, Note_on_c, 9, 40, 0
1, 182160, Note_on_c, 9, 42, 72
1, 182164, Note_on_c, 9, 42, 0
1, 182280, Note_on_c, 9, 42, 84
1, 182284, Note_on_c, 9, 42, 0
1, 182400, Note_on_c, 9, 42, 86
1, 182400, Note_on_c, 9, 36, 113
1, 182404, Note_on_c, 9, 42, 0
1, 182520, Note_on_c, 9, 42, 90
1, 182524, Note_on_c, 9, 42, 0
1, 182640, Note_on_c, 9, 42, 77
1, 182644, Note_on_c, 9, 42, 0
1, 182760, Note_on_c, 9, 42, 78
1, 182764, Note_on_c, 9, 42, 0
1, 182879, Note_on_c, 9, 36, 0
1, 182880, Note_on_c, 9, 40, 127
1, 182880, Note_on_c, 9, 42, 97
1, 182884, Note_on_c, 9, 42, 0
1, 182999, Note_on_c, 9, 40, 0
1, 183000, Note_on_c, 9, 40, 67
1, 183000, Note_on_c, 9, 42, 86
1, 183004, Note_on_c, 9, 42, 0
1, 183119, Note_on_c, 9, 40, 0
1, 183120, Note_on_c, 9, 42, 75
1, 183124, Note_on_c, 9, 42, 0
1, 183240, Note_on_c, 9, 42, 69
1, 183244, Note_on_c, 9, 42, 0
1, 183360, Note_on_c, 9, 42, 84
1, 183360, Note_on_c, 9, 36, 100
1, 183364, Note_on_c, 9, 42, 0
1, 183480, Note_on_c, 9, 42, 84
1, 183484, Note_on_c, 9, 42, 0
1, 183600, Note_on_c, 9, 42, 79
1, 183604, Note_on_c, 9, 42, 0
1, 183720, Note_on_c, 9, 42, 81
1, 183724, Note_on_c, 9, 42, 0
1, 183839, Note_on_c, 9, 36, 0
1, 183840, Note_on_c, 9, 40, 127
1, 183840, Note_on_c, 9, 42, 82
1, 183844, Note_on_c, 9, 42, 0
1, 183959, Note_on_c, 9, 40, 0
1, 183960, Note_on_c, 9, 40, 64
1, 183960, Note_on_c, 9, 42, 100
1, 183964, Note_on_c, 9, 42, 0
1, 184079, Note_on_c, 9, 40, 0
1, 184080, Note_on_c, 9, 46, 110
1, 184089, Note_on_c, 9, 46, 0
1, 184320, Note_on_c, 9, 42, 110
1, 184320, Note_on_c, 9, 36, 107
1, 184324, Note_on_c, 9, 42, 0
1, 184439, Note_on_c, 9, 36, 0
1, 184440, Note_on_c, 9, 42, 69
1, 184440, Note_on_c, 9, 36, 78
1, 184444, Note_on_c, 9, 42, 0
1, 184560, Note_on_c, 9, 42, 82
1, 184564, Note_on_c, 9, 42, 0
1, 184680, Note_on_c, 9, 42, 84
1, 184684, Note_on_c, 9, 42, 0
1, 184799, Note_on_c, 9, 36, 0
1, 184800, Note_on_c, 9, 40, 122
1, 184800, Note_on_c, 9, 42, 100
1, 184804, Note_on_c, 9, 42, 0
1, 184919, Note_on_c, 9, 40, 0
1, 184920, Note_on_c, 9, 40, 56
1, 184920, Note_on_c, 9, 42, 72
1, 184924, Note_on_c, 9, 42, 0
1, 185039, Note_on_c, 9, 40, 0
1, 185040, Note_on_c, 9, 42, 82
1, 185044, Note_on_c, 9, 42, 0
1, 185160, Note_on_c, 9, 42, 75
1, 185164, Note_on_c, 9, 42, 0
1, 185280, Note_on_c, 9, 42, 82
1, 185280, Note_on_c, 9, 36, 104
1, 185284, Note_on_c, 9, 42, 0
1, 185400, Note_on_c, 9, 42, 77
1, 185404, Note_on_c, 9, 42, 0
1, 185520, Note_on_c, 9, 42, 75
1, 185524, Note_on_c, 9, 42, 0
1, 185640, Note_on_c, 9, 42, 77
1, 185644, Note_on_c, 9, 42, 0
1, 185759, Note_on_c, 9, 36, 0
1, 185760, Note_on_c, 9, 40, 127
1, 185760, Note_on_c, 9, 42, 86
1, 185764, Note_on_c, 9, 42, 0
1, 185879, Note_on_c, 9, 40, 0
1, 185880, Note_on_c, 9, 40, 61
1, 185880, Note_on_c, 9, 42, 86
1, 185884, Note_on_c, 9, 42, 0
1, 185999, Note_on_c, 9, 40, 0
1, 186000, Note_on_c, 9, 42, 59
1, 186004, Note_on_c, 9, 42, 0
1, 186120, Note_on_c, 9, 42, 72
1, 186124, Note_on_c, 9, 42, 0
1, 186240, Note_on_c, 9, 42, 90
1, 186240, Note_on_c, 9, 36, 104
1, 186244, Note_on_c, 9, 42, 0
1, 186360, Note_on_c, 9, 42, 77
1, 186364, Note_on_c, 9, 42, 0
1, 186480, Note_on_c, 9, 42, 81
1, 186484, Note_on_c, 9, 42, 0
1, 186600, Note_on_c, 9, 42, 82
1, 186604, Note_on_c, 9, 42, 0
1, 186719, Note_on_c, 9, 36, 0
1, 186720, Note_on_c, 9, 40, 119
1, 186720, Note_on_c, 9, 42, 86
1, 186724, Note_on_c, 9, 42, 0
1, 186839, Note_on_c, 9, 40, 0
1, 186840, Note_on_c, 9, 40, 53
1, 186840, Note_on_c, 9, 42, 74
1, 186844, Note_on_c, 9, 42, 0
1, 186959, Note_on_c, 9, 40, 0
1, 186960, Note_on_c, 9, 42, 75
1, 186964, Note_on_c, 9, 42, 0
1, 187080, Note_on_c, 9, 42, 67
1, 187084, Note_on_c, 9, 42, 0
1, 187200, Note_on_c, 9, 42, 70
1, 187200, Note_on_c, 9, 36, 100
1, 187204, Note_on_c, 9, 42, 0
1, 187320, Note_on_c, 9, 42, 70
1, 187324, Note_on_c, 9, 42, 0
1, 187440, Note_on_c, 9, 42, 78
1, 187444, Note_on_c, 9, 42, 0
1, 187560, Note_on_c, 9, 42, 67
1, 187564, Note_on_c, 9, 42, 0
1, 187679, Note_on_c, 9, 36, 0
1, 187680, Note_on_c, 9, 40, 122
1, 187680, Note_on_c, 9, 42, 90
1, 187684, Note_on_c, 9, 42, 0
1, 187799, Note_on_c, 9, 40, 0
1, 187800, Note_on_c, 9, 40, 56
1, 187800, Note_on_c, 9, 42, 100
1, 187804, Note_on_c, 9, 42, 0
1, 187919, Note_on_c, 9, 40, 0
1, 187920, Note_on_c, 9, 46, 105
1, 187929, Note_on_c, 9, 46, 0
1, 188160, Note_on_c, 9, 42, 120
1, 188160, Note_on_c, 9, 36, 116
1, 188164, Note_on_c, 9, 42, 0
1, 188279, Note_on_c, 9, 36, 0
1, 188280, Note_on_c, 9, 42, 97
1, 188280, Note_on_c, 9, 36, 84
1, 188284, Note_on_c, 9, 42, 0
1, 188400, Note_on_c, 9, 42, 75
1, 188404, Note_on_c, 9, 42, 0
1, 188520, Note_on_c, 9, 42, 67
1, 188524, Note_on_c, 9, 42, 0
1, 188639, Note_on_c, 9, 36, 0
1, 188640, Note_on_c, 9, 40, 123
1, 188640, Note_on_c, 9, 42, 100
1, 188644, Note_on_c, 9, 42, 0
1, 188759, Note_on_c, 9, 40, 0
1, 188760, Note_on_c, 9, 40, 57
1, 188760, Note_on_c, 9, 42, 82
1, 188764, Note_on_c, 9, 42, 0
1, 188879, Note_on_c, 9, 40, 0
1, 188880, Note_on_c, 9, 42, 54
1, 188884, Note_on_c, 9, 42, 0
1, 189000, Note_on_c, 9, 42, 74
1, 189004, Note_on_c, 9, 42, 0
1, 189120, Note_on_c, 9, 42, 86
1, 189120, Note_on_c, 9, 36, 107
1, 189124, Note_on_c, 9, 42, 0
1, 189240, Note_on_c, 9, 42, 57
1, 189244, Note_on_c, 9, 42, 0
1, 189360, Note_on_c, 9, 42, 63
1, 189364, Note_on_c, 9, 42, 0
1, 189480, Note_on_c, 9, 42, 79
1, 189484, Note_on_c, 9, 42, 0
1, 189599, Note_on_c, 9, 36, 0
1, 189600, Note_on_c, 9, 40, 127
1, 189600, Note_on_c, 9, 42, 86
1, 189604, Note_on_c, 9, 42, 0
1, 189719, Note_on_c, 9, 40, 0
1, 189720, Note_on_c, 9, 40, 64
1, 189839, Note_on_c, 9, 40, 0
1, 189840, Note_on_c, 9, 42, 72
1, 189844, Note_on_c, 9, 42, 0
1, 189960, Note_on_c, 9, 42, 84
1, 189964, Note_on_c, 9, 42, 0
1, 190080, Note_on_c, 9, 42, 86
1, 190080, Note_on_c, 9, 36, 113
1, 190084, Note_on_c, 9, 42, 0
1, 190200, Note_on_c, 9, 42, 90
1, 190204, Note_on_c, 9, 42, 0
1, 190320, Note_on_c, 9, 42, 77
1, 190324, Note_on_c, 9, 42, 0
1, 190440, Note_on_c, 9, 42, 78
1, 190444, Note_on_c, 9, 42, 0
1, 190559, Note_on_c, 9, 36, 0
1, 190560, Note_on_c, 9, 40, 127
1, 190560, Note_on_c, 9, 42, 97
1, 190564, Note_on_c, 9, 42, 0
1, 190679, Note_on_c, 9, 40, 0
1, 190680, Note_on_c, 9, 40, 67
1, 190680, Note_on_c, 9, 42, 86
1, 190684, Note_on_c, 9, 42, 0
1, 190799, Note_on_c, 9, 40, 0
1, 190800, Note_on_c, 9, 42, 75
1, 190804, Note_on_c, 9, 42, 0
1, 190920, Note_on_c, 9, 42, 69
1, 190924, Note_on_c, 9, 42, 0
1, 191040, Note_on_c, 9, 42, 84
1, 191040, Note_on_c, 9, 36, 100
1, 191044, Note_on_c, 9, 42, 0
1, 191160, Note_on_c, 9, 42, 84
1, 191164, Note_on_c, 9, 42, 0
1, 191280, Note_on_c, 9, 42, 79
1, 191284, Note_on_c, 9, 42, 0
1, 191400, Note_on_c, 9, 42, 81
1, 191404, Note_on_c, 9, 42, 0
1, 191519, Note_on_c, 9, 36, 0
1, 191520, Note_on_c, 9, 40, 127
1, 191520, Note_on_c, 9, 42, 82
1, 191524, Note_on_c, 9, 42, 0
1, 191639, Note_on_c, 9, 40, 0
1, 191640, Note_on_c, 9, 40, 64
1, 191640, Note_on_c, 9, 42, 100
1, 191644, Note_on_c, 9, 42, 0
1, 191759, Note_on_c, 9, 40, 0
1, 191760, Note_on_c, 9, 46, 110
1, 191769, Note_on_c, 9, 46, 0
1, 192000, Note_on_c, 9, 54, 109
1, 192000, Note_on_c, 9, 36, 120
1, 192119, Note_on_c, 9, 54, 0
1, 192120, Note_on_c, 9, 54, 66
1, 192239, Note_on_c, 9, 54, 0
1, 192240, Note_on_c, 9, 54, 48
1, 192359, Note_on_c, 9, 54, 0
1, 192360, Note_on_c, 9, 54, 63
1, 192479, Note_on_c, 9, 36, 0
1, 192479, Note_on_c, 9, 54, 0
1, 192480, Note_on_c, 9, 54, 94
1, 192599, Note_on_c, 9, 54, 0
1, 192600, Note_on_c, 9, 54, 58
1, 192719, Note_on_c, 9, 54, 0
1, 192720, Note_on_c, 9, 54, 49
1, 192720, Note_on_c, 9, 36, 120
1, 192839, Note_on_c, 9, 54, 0
1, 192840, Note_on_c, 9, 54, 54
1, 192959, Note_on_c, 9, 36, 0
1, 192959, Note_on_c, 9, 54, 0
1, 192960, Note_on_c, 9, 54, 68
1, 192960, Note_on_c, 9, 36, 119
1, 193079, Note_on_c, 9, 54, 0
1, 193080, Note_on_c, 9, 54, 52
1, 193199, Note_on_c, 9, 54, 0
1, 193200, Note_on_c, 9, 54, 58
1, 193319, Note_on_c, 9, 54, 0
1, 193320, Note_on_c, 9, 54, 54
1, 193439, Note_on_c, 9, 36, 0
1, 193439, Note_on_c, 9, 54, 0
1, 193440, Note_on_c, 9, 40, 101
1, 193440, Note_on_c, 9, 54, 52
1, 193440, Note_on_c, 9, 28, 120
1, 193559, Note_on_c, 9, 40, 0
1, 193559, Note_on_c, 9, 54, 0
1, 193559, Note_on_c, 9, 28, 0
1, 193560, Note_on_c, 9, 40, 35
1, 193560, Note_on_c, 9, 54, 49
1, 193679, Note_on_c, 9, 40, 0
1, 193679, Note_on_c, 9, 54, 0
1, 193680, Note_on_c, 9, 40, 101
1, 193680, Note_on_c, 9, 54, 47
1, 193680, Note_on_c, 9, 28, 120
1, 193799, Note_on_c, 9, 40, 0
1, 193799, Note_on_c, 9, 54, 0
1, 193799, Note_on_c, 9, 28, 0
1, 193800, Note_on_c, 9, 40, 35
1, 193800, Note_on_c, 9, 54, 67
1, 193919, Note_on_c, 9, 40, 0
1, 193919, Note_on_c, 9, 54, 0
1, 193920, Note_on_c, 9, 54, 109
1, 193920, Note_on_c, 9, 36, 120
1, 194039, Note_on_c, 9, 54, 0
1, 194040, Note_on_c, 9, 54, 66
1, 194159, Note_on_c, 9, 54, 0
1, 194160, Note_on_c, 9, 54, 50
1, 194279, Note_on_c, 9, 54, 0
1, 194280, Note_on_c, 9, 54, 56
1, 194399, Note_on_c, 9, 36, 0
1, 194399, Note_on_c, 9, 54, 0
1, 194400, Note_on_c, 9, 54, 48
1, 194519, Note_on_c, 9, 54, 0
1, 194520, Note_on_c, 9, 54, 63
1, 194639, Note_on_c, 9, 54, 0
1, 194640, Note_on_c, 9, 54, 52
1, 194640, Note_on_c, 9, 36, 116
1, 194759, Note_on_c, 9, 54, 0
1, 194760, Note_on_c, 9, 54, 59
1, 194879, Note_on_c, 9, 36, 0
1, 194879, Note_on_c, 9, 54, 0
1, 194880, Note_on_c, 9, 54, 54
1, 194880, Note_on_c, 9, 36, 119
1, 194999, Note_on_c, 9, 54, 0
1, 195000, Note_on_c, 9, 54, 48
1, 195119, Note_on_c, 9, 54, 0
1, 195120, Note_on_c, 9, 54, 47
1, 195239, Note_on_c, 9, 54, 0
1, 195240, Note_on_c, 9, 54, 52
1, 195359, Note_on_c, 9, 36, 0
1, 195359, Note_on_c, 9, 54, 0
1, 195360, Note_on_c, 9, 40, 101
1, 195360, Note_on_c, 9, 54, 48
1, 195360, Note_on_c, 9, 28, 120
1, 195479, Note_on_c, 9, 40, 0
1, 195479, Note_on_c, 9, 54, 0
1, 195479, Note_on_c, 9, 28, 0
1, 195480, Note_on_c, 9, 40, 35
1, 195480, Note_on_c, 9, 54, 59
1, 195599, Note_on_c, 9, 40, 0
1, 195599, Note_on_c, 9, 54, 0
1, 195600, Note_on_c, 9, 40, 97
1, 195600, Note_on_c, 9, 54, 44
1, 195600, Note_on_c, 9, 28, 120
1, 195719, Note_on_c, 9, 40, 0
1, 195719, Note_on_c, 9, 54, 0
1, 195719, Note_on_c, 9, 28, 0
1, 195720, Note_on_c, 9, 40, 31
1, 195720, Note_on_c, 9, 54, 58
1, 195839, Note_on_c, 9, 40, 0
1, 195839, Note_on_c, 9, 54, 0
1, 195840, Note_on_c, 9, 54, 99
1, 195840, Note_on_c, 9, 36, 120
1, 195959, Note_on_c, 9, 54, 0
1, 195960, Note_on_c, 9, 54, 68
1, 196079, Note_on_c, 9, 54, 0
1, 196080, Note_on_c, 9, 54, 31
1, 196199, Note_on_c, 9, 54, 0
1, 196200, Note_on_c, 9, 54, 52
1, 196319, Note_on_c, 9, 36, 0
1, 196319, Note_on_c, 9, 54, 0
1, 196320, Note_on_c, 9, 54, 49
1, 196439, Note_on_c, 9, 54, 0
1, 196440, Note_on_c, 9, 54, 54
1, 196559, Note_on_c, 9, 54, 0
1, 196560, Note_on_c, 9, 54, 50
1, 196560, Note_on_c, 9, 36, 119
1, 196679, Note_on_c, 9, 54, 0
1, 196680, Note_on_c, 9, 54, 61
1, 196799, Note_on_c, 9, 36, 0
1, 196799, Note_on_c, 9, 54, 0
1, 196800, Note_on_c, 9, 54, 61
1, 196800, Note_on_c, 9, 36, 116
1, 196919, Note_on_c, 9, 54, 0
1, 196920, Note_on_c, 9, 54, 52
1, 197039, Note_on_c, 9, 54, 0
1, 197040, Note_on_c, 9, 54, 48
1, 197159, Note_on_c, 9, 54, 0
1, 197160, Note_on_c, 9, 54, 54
1, 197279, Note_on_c, 9, 36, 0
1, 197279, Note_on_c, 9, 54, 0
1, 197280, Note_on_c, 9, 40, 101
1, 197280, Note_on_c, 9, 54, 54
1, 197280, Note_on_c, 9, 28, 120
1, 197399, Note_on_c, 9, 40, 0
1, 197399, Note_on_c, 9, 54, 0
1, 197399, Note_on_c, 9, 28, 0
1, 197400, Note_on_c, 9, 40, 35
1, 197400, Note_on_c, 9, 54, 73
1, 197519, Note_on_c, 9, 40, 0
1, 197519, Note_on_c, 9, 54, 0
1, 197520, Note_on_c, 9, 40, 101
1, 197520, Note_on_c, 9, 54, 99
1, 197520, Note_on_c, 9, 28, 120
1, 197639, Note_on_c, 9, 40, 0
1, 197639, Note_on_c, 9, 54, 0
1, 197639, Note_on_c, 9, 28, 0
1, 197640, Note_on_c, 9, 40, 35
1, 197640, Note_on_c, 9, 54, 109
1, 197759, Note_on_c, 9, 40, 0
1, 197759, Note_on_c, 9, 54, 0
1, 197760, Note_on_c, 9, 54, 109
1, 197760, Note_on_c, 9, 36, 119
1, 197879, Note_on_c, 9, 54, 0
1, 197880, Note_on_c, 9, 54, 66
1, 197999, Note_on_c, 9, 54, 0
1, 198000, Note_on_c, 9, 54, 35
1, 198119, Note_on_c, 9, 54, 0
1, 198120, Note_on_c, 9, 54, 56
1, 198239, Note_on_c, 9, 36, 0
1, 198239, Note_on_c, 9, 54, 0
1, 198240, Note_on_c, 9, 54, 49
1, 198359, Note_on_c, 9, 54, 0
1, 198360, Note_on_c, 9, 54, 70
1, 198479, Note_on_c, 9, 54, 0
1, 198480, Note_on_c, 9, 54, 51
1, 198480, Note_on_c, 9, 36, 79
1, 198599, Note_on_c, 9, 54, 0
1, 198600, Note_on_c, 9, 54, 56
1, 198719, Note_on_c, 9, 36, 0
1, 198719, Note_on_c, 9, 54, 0
1, 198720, Note_on_c, 9, 54, 54
1, 198720, Note_on_c, 9, 36, 120
1, 198839, Note_on_c, 9, 54, 0
1, 198840, Note_on_c, 9, 54, 63
1, 198959, Note_on_c, 9, 54, 0
1, 198960, Note_on_c, 9, 54, 64
1, 199079, Note_on_c, 9, 54, 0
1, 199080, Note_on_c, 9, 54, 66
1, 199199, Note_on_c, 9, 36, 0
1, 199199, Note_on_c, 9, 54, 0
1, 199200, Note_on_c, 9, 40, 101
1, 199200, Note_on_c, 9, 54, 63
1, 199200, Note_on_c, 9, 28, 120
1, 199319, Note_on_c, 9, 40, 0
1, 199319, Note_on_c, 9, 54, 0
1, 199319, Note_on_c, 9, 28, 0
1, 199320, Note_on_c, 9, 40, 35
1, 199320, Note_on_c, 9, 54, 64
1, 199439, Note_on_c, 9, 40, 0
1, 199439, Note_on_c, 9, 54, 0
1, 199440, Note_on_c, 9, 40, 101
1, 199440, Note_on_c, 9, 54, 61
1, 199440, Note_on_c, 9, 28, 120
1, 199559, Note_on_c, 9, 40, 0
1, 199559, Note_on_c, 9, 54, 0
1, 199559, Note_on_c, 9, 28, 0
1, 199560, Note_on_c, 9, 40, 35
1, 199560, Note_on_c, 9, 54, 77
1, 199679, Note_on_c, 9, 40, 0
1, 199679, Note_on_c, 9, 54, 0
1, 199680, Note_on_c, 9, 54, 104
1, 199680, Note_on_c, 9, 36, 116
1, 199799, Note_on_c, 9, 54, 0
1, 199800, Note_on_c, 9, 54, 67
1, 199919, Note_on_c, 9, 54, 0
1, 199920, Note_on_c, 9, 54, 49
1, 200039, Note_on_c, 9, 54, 0
1, 200040, Note_on_c, 9, 54, 73
1, 200159, Note_on_c, 9, 36, 0
1, 200159, Note_on_c, 9, 54, 0
1, 200160, Note_on_c, 9, 54, 63
1, 200279, Note_on_c, 9, 54, 0
1, 200280, Note_on_c, 9, 54, 56
1, 200399, Note_on_c, 9, 54, 0
1, 200400, Note_on_c, 9, 54, 46
1, 200400, Note_on_c, 9, 36, 96
1, 200519, Note_on_c, 9, 54, 0
1, 200520, Note_on_c, 9, 54, 50
1, 200639, Note_on_c, 9, 36, 0
1, 200639, Note_on_c, 9, 54, 0
1, 200640, Note_on_c, 9, 54, 75
1, 200640, Note_on_c, 9, 36, 120
1, 200759, Note_on_c, 9, 54, 0
1, 200760, Note_on_c, 9, 54, 54
1, 200879, Note_on_c, 9, 54, 0
1, 200880, Note_on_c, 9, 54, 49
1, 200999, Note_on_c, 9, 54, 0
1, 201000, Note_on_c, 9, 54, 68
1, 201119, Note_on_c, 9, 36, 0
1, 201119, Note_on_c, 9, 54, 0
1, 201120, Note_on_c, 9, 40, 101
1, 201120, Note_on_c, 9, 54, 79
1, 201120, Note_on_c, 9, 28, 120
1, 201239, Note_on_c, 9, 40, 0
1, 201239, Note_on_c, 9, 54, 0
1, 201239, Note_on_c, 9, 28, 0
1, 201240, Note_on_c, 9, 40, 35
1, 201240, Note_on_c, 9, 54, 58
1, 201359, Note_on_c, 9, 40, 0
1, 201359, Note_on_c, 9, 54, 0
1, 201360, Note_on_c, 9, 40, 101
1, 201360, Note_on_c, 9, 54, 39
1, 201360, Note_on_c, 9, 28, 120
1, 201479, Note_on_c, 9, 40, 0
1, 201479, Note_on_c, 9, 54, 0
1, 201479, Note_on_c, 9, 28, 0
1, 201480, Note_on_c, 9, 40, 35
1, 201480, Note_on_c, 9, 54, 67
1, 201599, Note_on_c, 9, 40, 0
1, 201599, Note_on_c, 9, 54, 0
1, 201600, Note_on_c, 9, 54, 104
1, 201600, Note_on_c, 9, 36, 119
1, 201719, Note_on_c, 9, 54, 0
1, 201720, Note_on_c, 9, 54, 56
1, 201839, Note_on_c, 9, 54, 0
1, 201840, Note_on_c, 9, 54, 46
1, 201959, Note_on_c, 9, 54, 0
1, 201960, Note_on_c, 9, 54, 60
1, 202079, Note_on_c, 9, 36, 0
1, 202079, Note_on_c, 9, 54, 0
1, 202080, Note_on_c, 9, 54, 53
1, 202199, Note_on_c, 9, 54, 0
1, 202200, Note_on_c, 9, 54, 53
1, 202319, Note_on_c, 9, 54, 0
1, 202320, Note_on_c, 9, 54, 48
1, 202320, Note_on_c, 9, 36, 110
1, 202439, Note_on_c, 9, 54, 0
1, 202440, Note_on_c, 9, 54, 64
1, 202559, Note_on_c, 9, 36, 0
1, 202559, Note_on_c, 9, 54, 0
1, 202560, Note_on_c, 9, 54, 64
1, 202560, Note_on_c, 9, 36, 119
1, 202679, Note_on_c, 9, 54, 0
1, 202680, Note_on_c, 9, 54, 49
1, 202799, Note_on_c, 9, 54, 0
1, 202800, Note_on_c, 9, 54, 48
1, 202919, Note_on_c, 9, 54, 0
1, 202920, Note_on_c, 9, 54, 58
1, 203039, Note_on_c, 9, 36, 0
1, 203039, Note_on_c, 9, 54, 0
1, 203040, Note_on_c, 9, 40, 101
1, 203040, Note_on_c, 9, 54, 64
1, 203040, Note_on_c, 9, 28, 120
1, 203159, Note_on_c, 9, 40, 0
1, 203159, Note_on_c, 9, 54, 0
1, 203159, Note_on_c, 9, 28, 0
1, 203160, Note_on_c, 9, 40, 35
1, 203160, Note_on_c, 9, 54, 51
1, 203279, Note_on_c, 9, 40, 0
1, 203279, Note_on_c, 9, 54, 0
1, 203280, Note_on_c, 9, 40, 101
1, 203280, Note_on_c, 9, 54, 63
1, 203280, Note_on_c, 9, 28, 120
1, 203399, Note_on_c, 9, 40, 0
1, 203399, Note_on_c, 9, 54, 0
1, 203399, Note_on_c, 9, 28, 0
1, 203400, Note_on_c, 9, 40, 35
1, 203400, Note_on_c, 9, 54, 61
1, 203519, Note_on_c, 9, 40, 0
1, 203519, Note_on_c, 9, 54, 0
1, 203520, Note_on_c, 9, 54, 104
1, 203520, Note_on_c, 9, 36, 119
1, 203639, Note_on_c, 9, 54, 0
1, 203640, Note_on_c, 9, 54, 56
1, 203759, Note_on_c, 9, 54, 0
1, 203760, Note_on_c, 9, 54, 47
1, 203879, Note_on_c, 9, 54, 0
1, 203880, Note_on_c, 9, 54, 58
1, 203999, Note_on_c, 9, 36, 0
1, 203999, Note_on_c, 9, 54, 0
1, 204000, Note_on_c, 9, 54, 48
1, 204119, Note_on_c, 9, 54, 0
1, 204120, Note_on_c, 9, 54, 56
1, 204239, Note_on_c, 9, 54, 0
1, 204240, Note_on_c, 9, 54, 56
1, 204240, Note_on_c, 9, 36, 116
1, 204359, Note_on_c, 9, 54, 0
1, 204360, Note_on_c, 9, 54, 54
1, 204479, Note_on_c, 9, 36, 0
1, 204479, Note_on_c, 9, 54, 0
1, 204480, Note_on_c, 9, 54, 56
1, 204480, Note_on_c, 9, 36, 116
1, 204599, Note_on_c, 9, 54, 0
1, 204600, Note_on_c, 9, 54, 54
1, 204719, Note_on_c, 9, 54, 0
1, 204720, Note_on_c, 9, 54, 51
1, 204839, Note_on_c, 9, 54, 0
1, 204840, Note_on_c, 9, 54, 59
1, 204959, Note_on_c, 9, 36, 0
1, 204959, Note_on_c, 9, 54, 0
1, 204960, Note_on_c, 9, 40, 101
1, 204960, Note_on_c, 9, 54, 54
1, 204960, Note_on_c, 9, 28, 120
1, 205079, Note_on_c, 9, 40, 0
1, 205079, Note_on_c, 9, 54, 0
1, 205079, Note_on_c, 9, 28, 0
1, 205080, Note_on_c, 9, 40, 35
1, 205080, Note_on_c, 9, 54, 50
1, 205199, Note_on_c, 9, 40, 0
1, 205199, Note_on_c, 9, 54, 0
1, 205200, Note_on_c, 9, 40, 101
1, 205200, Note_on_c, 9, 54, 56
1, 205200, Note_on_c, 9, 28, 120
1, 205319, Note_on_c, 9, 40, 0
1, 205319, Note_on_c, 9, 54, 0
1, 205319, Note_on_c, 9, 28, 0
1, 205320, Note_on_c, 9, 40, 35
1, 205320, Note_on_c, 9, 54, 66
1, 205439, Note_on_c, 9, 40, 0
1, 205439, Note_on_c, 9, 54, 0
1, 205440, Note_on_c, 9, 54, 94
1, 205440, Note_on_c, 9, 36, 116
1, 205559, Note_on_c, 9, 54, 0
1, 205560, Note_on_c, 9, 54, 67
1, 205679, Note_on_c, 9, 54, 0
1, 205680, Note_on_c, 9, 54, 54
1, 205799, Note_on_c, 9, 54, 0
1, 205800, Note_on_c, 9, 54, 58
1, 205919, Note_on_c, 9, 36, 0
1, 205919, Note_on_c, 9, 54, 0
1, 205920, Note_on_c, 9, 54, 56
1, 206039, Note_on_c, 9, 54, 0
1, 206040, Note_on_c, 9, 54, 61
1, 206159, Note_on_c, 9, 54, 0
1, 206160, Note_on_c, 9, 54, 56
1, 206160, Note_on_c, 9, 36, 99
1, 206279, Note_on_c, 9, 54, 0
1, 206280, Note_on_c, 9, 54, 58
1, 206399, Note_on_c, 9, 36, 0
1, 206399, Note_on_c, 9, 54, 0
1, 206400, Note_on_c, 9, 54, 60
1, 206400, Note_on_c, 9, 36, 113
1, 206519, Note_on_c, 9, 54, 0
1, 206520, Note_on_c, 9, 54, 66
1, 206639, Note_on_c, 9, 54, 0
1, 206640, Note_on_c, 9, 54, 54
1, 206759, Note_on_c, 9, 54, 0
1, 206760, Note_on_c, 9, 54, 63
1, 206879, Note_on_c, 9, 36, 0
1, 206879, Note_on_c, 9, 54, 0
1, 206880, Note_on_c, 9, 40, 101
1, 206880, Note_on_c, 9, 54, 48
1, 206880, Note_on_c, 9, 28, 120
1, 206999, Note_on_c, 9, 40, 0
1, 206999, Note_on_c, 9, 54, 0
1, 206999, Note_on_c, 9, 28, 0
1, 207000, Note_on_c, 9, 40, 35
1, 207000, Note_on_c, 9, 54, 59
1, 207119, Note_on_c, 9, 40, 0
1, 207119, Note_on_c, 9, 54, 0
1, 207120, Note_on_c, 9, 40, 101
1, 207120, Note_on_c, 9, 54, 60
1, 207120, Note_on_c, 9, 28, 120
1, 207239, Note_on_c, 9, 40, 0
1, 207239, Note_on_c, 9, 54, 0
1, 207239, Note_on_c, 9, 28, 0
1, 207240, Note_on_c, 9, 40, 35
1, 207240, Note_on_c, 9, 54, 56
1, 207359, Note_on_c, 9, 40, 0
1, 207359, Note_on_c, 9, 54, 0
1, 207360, Note_on_c, 9, 54, 104
1, 207360, Note_on_c, 9, 36, 116
1, 207479, Note_on_c, 9, 54, 0
1, 207480, Note_on_c, 9, 54, 67
1, 207599, Note_on_c, 9, 54, 0
1, 207600, Note_on_c, 9, 54, 49
1, 207719, Note_on_c, 9, 54, 0
1, 207720, Note_on_c, 9, 54, 73
1, 207839, Note_on_c, 9, 36, 0
1, 207839, Note_on_c, 9, 54, 0
1, 207840, Note_on_c, 9, 54, 63
1, 207959, Note_on_c, 9, 54, 0
1, 207960, Note_on_c, 9, 54, 56
1, 208079, Note_on_c, 9, 54, 0
1, 208080, Note_on_c, 9, 54, 46
1, 208080, Note_on_c, 9, 36, 96
1, 208199, Note_on_c, 9, 54, 0
1, 208200, Note_on_c, 9, 54, 50
1, 208319, Note_on_c, 9, 36, 0
1, 208319, Note_on_c, 9, 54, 0
1, 208320, Note_on_c, 9, 54, 75
1, 208320, Note_on_c, 9, 36, 120
1, 208439, Note_on_c, 9, 54, 0
1, 208440, Note_on_c, 9, 54, 54
1, 208559, Note_on_c, 9, 54, 0
1, 208560, Note_on_c, 9, 54, 49
1, 208679, Note_on_c, 9, 54, 0
1, 208680, Note_on_c, 9, 54, 68
1, 208799, Note_on_c, 9, 36, 0
1, 208799, Note_on_c, 9, 54, 0
1, 208800, Note_on_c, 9, 40, 101
1, 208800, Note_on_c, 9, 54, 79
1, 208800, Note_on_c, 9, 28, 120
1, 208919, Note_on_c, 9, 40, 0
1, 208919, Note_on_c, 9, 54, 0
1, 208919, Note_on_c, 9, 28, 0
1, 208920, Note_on_c, 9, 40, 35
1, 208920, Note_on_c, 9, 54, 58
1, 209039, Note_on_c, 9, 40, 0
1, 209039, Note_on_c, 9, 54, 0
1, 209040, Note_on_c, 9, 40, 101
1, 209040, Note_on_c, 9, 54, 39
1, 209040, Note_on_c, 9, 28, 120
1, 209159, Note_on_c, 9, 40, 0
1, 209159, Note_on_c, 9, 54, 0
1, 209159, Note_on_c, 9, 28, 0
1, 209160, Note_on_c, 9, 40, 35
1, 209160, Note_on_c, 9, 54, 67
1, 209279, Note_on_c, 9, 40, 0
1, 209279, Note_on_c, 9, 54, 0
1, 209280, Note_on_c, 9, 54, 104
1, 209280, Note_on_c, 9, 36, 119
1, 209399, Note_on_c, 9, 54, 0
1, 209400, Note_on_c, 9, 54, 56
1, 209519, Note_on_c, 9, 54, 0
1, 209520, Note_on_c, 9, 54, 46
1, 209639, Note_on_c, 9, 54, 0
1, 209640, Note_on_c, 9, 54, 60
1, 209759, Note_on_c, 9, 36, 0
1, 209759, Note_on_c, 9, 54, 0
1, 209760, Note_on_c, 9, 54, 53
1, 209879, Note_on_c, 9, 54, 0
1, 209880, Note_on_c, 9, 54, 53
1, 209999, Note_on_c, 9, 54, 0
1, 210000, Note_on_c, 9, 54, 48
1, 210000, Note_on_c, 9, 36, 110
1, 210119, Note_on_c, 9, 54, 0
1, 210120, Note_on_c, 9, 54, 64
1, 210239, Note_on_c, 9, 36, 0
1, 210239, Note_on_c, 9, 54, 0
1, 210240, Note_on_c, 9, 54, 64
1, 210240, Note_on_c, 9, 36, 119
1, 210359, Note_on_c, 9, 54, 0
1, 210360, Note_on_c, 9, 54, 49
1, 210479, Note_on_c, 9, 54, 0
1, 210480, Note_on_c, 9, 54, 48
1, 210599, Note_on_c, 9, 54, 0
1, 210600, Note_on_c, 9, 54, 58
1, 210719, Note_on_c, 9, 36, 0
1, 210719, Note_on_c, 9, 54, 0
1, 210720, Note_on_c, 9, 40, 101
1, 210720, Note_on_c, 9, 54, 64
1, 210720, Note_on_c, 9, 28, 120
1, 210839, Note_on_c, 9, 40, 0
1, 210839, Note_on_c, 9, 54, 0
1, 210839, Note_on_c, 9, 28, 0
1, 210840, Note_on_c, 9, 40, 35
1, 210840, Note_on_c, 9, 54, 51
1, 210959, Note_on_c, 9, 40, 0
1, 210959, Note_on_c, 9, 54, 0
1, 210960, Note_on_c, 9, 40, 101
1, 210960, Note_on_c, 9, 54, 63
1, 210960, Note_on_c, 9, 28, 120
1, 211079, Note_on_c, 9, 40, 0
1, 211079, Note_on_c, 9, 54, 0
1, 211079, Note_on_c, 9, 28, 0
1, 211080, Note_on_c, 9, 40, 35
1, 211080, Note_on_c, 9, 54, 61
1, 211199, Note_on_c, 9, 40, 0
1, 211199, Note_on_c, 9, 54, 0
1, 211200, Note_on_c, 9, 54, 104
1, 211200, Note_on_c, 9, 36, 119
1, 211319, Note_on_c, 9, 54, 0
1, 211320, Note_on_c, 9, 54, 56
1, 211439, Note_on_c, 9, 54, 0
1, 211440, Note_on_c, 9, 54, 47
1, 211559, Note_on_c, 9, 54, 0
1, 211560, Note_on_c, 9, 54, 58
1, 211679, Note_on_c, 9, 36, 0
1, 211679, Note_on_c, 9, 54, 0
1, 211680, Note_on_c, 9, 54, 48
1, 211799, Note_on_c, 9, 54, 0
1, 211800, Note_on_c, 9, 54, 56
1, 211919, Note_on_c, 9, 54, 0
1, 211920, Note_on_c, 9, 54, 56
1, 211920, Note_on_c, 9, 36, 116
1, 212039, Note_on_c, 9, 54, 0
1, 212040, Note_on_c, 9, 54, 54
1, 212159, Note_on_c, 9, 36, 0
1, 212159, Note_on_c, 9, 54, 0
1, 212160, Note_on_c, 9, 54, 56
1, 212160, Note_on_c, 9, 36, 116
1, 212279, Note_on_c, 9, 54, 0
1, 212280, Note_on_c, 9, 54, 54
1, 212399, Note_on_c, 9, 54, 0
1, 212400, Note_on_c, 9, 54, 51
1, 212519, Note_on_c, 9, 54, 0
1, 212520, Note_on_c, 9, 54, 59
1, 212639, Note_on_c, 9, 36, 0
1, 212639, Note_on_c, 9, 54, 0
1, 212640, Note_on_c, 9, 40, 101
1, 212640, Note_on_c, 9, 54, 54
1, 212640, Note_on_c, 9, 28, 120
1, 212759, Note_on_c, 9, 40, 0
1, 212759, Note_on_c, 9, 54, 0
1, 212759, Note_on_c, 9, 28, 0
1, 212760, Note_on_c, 9, 40, 35
1, 212760, Note_on_c, 9, 54, 50
1, 212879, Note_on_c, 9, 40, 0
1, 212879, Note_on_c, 9, 54, 0
1, 212880, Note_on_c, 9, 40, 101
1, 212880, Note_on_c, 9, 54, 56
1, 212880, Note_on_c, 9, 28, 120
1, 212999, Note_on_c, 9, 40, 0
1, 212999, Note_on_c, 9, 54, 0
1, 212999, Note_on_c, 9, 28, 0
1, 213000, Note_on_c, 9, 40, 35
1, 213000, Note_on_c, 9, 54, 66
1, 213119, Note_on_c, 9, 40, 0
1, 213119, Note_on_c, 9, 54, 0
1, 213120, Note_on_c, 9, 54, 94
1, 213120, Note_on_c, 9, 36, 116
1, 213239, Note_on_c, 9, 54, 0
1, 213240, Note_on_c, 9, 54, 67
1, 213359, Note_on_c, 9, 54, 0
1, 213360, Note_on_c, 9, 54, 54
1, 213479, Note_on_c, 9, 54, 0
1, 213480, Note_on_c, 9, 54, 58
1, 213599, Note_on_c, 9, 36, 0
1, 213599, Note_on_c, 9, 54, 0
1, 213600, Note_on_c, 9, 54, 56
1, 213719, Note_on_c, 9, 54, 0
1, 213720, Note_on_c, 9, 54, 61
1, 213839, Note_on_c, 9, 54, 0
1, 213840, Note_on_c, 9, 54, 56
1, 213840, Note_on_c, 9, 36, 99
1, 213959, Note_on_c, 9, 54, 0
1, 213960, Note_on_c, 9, 54, 58
1, 214079, Note_on_c, 9, 36, 0
1, 214079, Note_on_c, 9, 54, 0
1, 214080, Note_on_c, 9, 54, 60
1, 214080, Note_on_c, 9, 36, 113
1, 214199, Note_on_c, 9, 54, 0
1, 214200, Note_on_c, 9, 54, 66
1, 214319, Note_on_c, 9, 54, 0
1, 214320, Note_on_c, 9, 54, 54
1, 214439, Note_on_c, 9, 54, 0
1, 214440, Note_on_c, 9, 54, 63
1, 214559, Note_on_c, 9, 36, 0
1, 214559, Note_on_c, 9, 54, 0
1, 214560, Note_on_c, 9, 40, 101
1, 214560, Note_on_c, 9, 54, 48
1, 214560, Note_on_c, 9, 28, 120
1, 214679, Note_on_c, 9, 40, 0
1, 214679, Note_on_c, 9, 54, 0
1, 214679, Note_on_c, 9, 28, 0
1, 214680, Note_on_c, 9, 40, 35
1, 214680, Note_on_c, 9, 54, 59
1, 214799, Note_on_c, 9, 40, 0
1, 214799, Note_on_c, 9, 54, 0
1, 214800, Note_on_c, 9, 40, 101
1, 214800, Note_on_c, 9, 54, 60
1, 214800, Note_on_c, 9, 28, 120
1, 214919, Note_on_c, 9, 40, 0
1, 214919, Note_on_c, 9, 54, 0
1, 214919, Note_on_c, 9, 28, 0
1, 214920, Note_on_c, 9, 40, 35
1, 214920, Note_on_c, 9, 54, 56
1, 215039, Note_on_c, 9, 40, 0
1, 215039, Note_on_c, 9, 54, 0
1, 215040, Note_on_c, 9, 54, 109
1, 215040, Note_on_c, 9, 36, 120
1, 215159, Note_on_c, 9, 54, 0
1, 215160, Note_on_c, 9, 54, 66
1, 215279, Note_on_c, 9, 54, 0
1, 215280, Note_on_c, 9, 54, 48
1, 215399, Note_on_c, 9, 54, 0
1, 215400, Note_on_c, 9, 54, 63
1, 215519, Note_on_c, 9, 36, 0
1, 215519, Note_on_c, 9, 54, 0
1, 215520, Note_on_c, 9, 54, 94
1, 215639, Note_on_c, 9, 54, 0
1, 215640, Note_on_c, 9, 54, 58
1, 215759, Note_on_c, 9, 54, 0
1, 215760, Note_on_c, 9, 54, 49
1, 215760, Note_on_c, 9, 36, 120
1, 215879, Note_on_c, 9, 54, 0
1, 215880, Note_on_c, 9, 54, 54
1, 215999, Note_on_c, 9, 36, 0
1, 215999, Note_on_c, 9, 54, 0
1, 216000, Note_on_c, 9, 54, 68
1, 216000, Note_on_c, 9, 36, 119
1, 216119, Note_on_c, 9, 54, 0
1, 216120, Note_on_c, 9, 54, 52
1, 216239, Note_on_c, 9, 54, 0
1, 216240, Note_on_c, 9, 54, 58
1, 216359, Note_on_c, 9, 54, 0
1, 216360, Note_on_c, 9, 54, 54
1, 216479, Note_on_c, 9, 36, 0
1, 216479, Note_on_c, 9, 54, 0
1, 216480, Note_on_c, 9, 40, 101
1, 216480, Note_on_c, 9, 54, 52
1, 216480, Note_on_c, 9, 28, 120
1, 216599, Note_on_c, 9, 40, 0
1, 216599, Note_on_c, 9, 54, 0
1, 216599, Note_on_c, 9, 28, 0
1, 216600, Note_on_c, 9, 40, 35
1, 216600, Note_on_c, 9, 54, 49
1, 216719, Note_on_c, 9, 40, 0
1, 216719, Note_on_c, 9, 54, 0
1, 216720, Note_on_c, 9, 40, 101
1, 216720, Note_on_c, 9, 54, 47
1, 216720, Note_on_c, 9, 28, 120
1, 216839, Note_on_c, 9, 40, 0
1, 216839, Note_on_c, 9, 54, 0
1, 216839, Note_on_c, 9, 28, 0
1, 216840, Note_on_c, 9, 40, 35
1, 216840, Note_on_c, 9, 54, 67
1, 216959, Note_on_c, 9, 40, 0
1, 216959, Note_on_c, 9, 54, 0
1, 216960, Note_on_c, 9, 54, 99
1, 216960, Note_on_c, 9, 36, 120
1, 217079, Note_on_c, 9, 54, 0
1, 217080, Note_on_c, 9, 54, 68
1, 217199, Note_on_c, 9, 54, 0
1, 217200, Note_on_c, 9, 54, 31
1, 217319, Note_on_c, 9, 54, 0
1, 217320, Note_on_c, 9, 54, 52
1, 217439, Note_on_c, 9, 36, 0
1, 217439, Note_on_c, 9, 54, 0
1, 217440, Note_on_c, 9, 54, 49
1, 217559, Note_on_c, 9, 54, 0
1, 217560, Note_on_c, 9, 54, 54
1, 217679, Note_on_c, 9, 54, 0
1, 217680, Note_on_c, 9, 54, 50
1, 217680, Note_on_c, 9, 36, 119
1, 217799, Note_on_c, 9, 54, 0
1, 217800, Note_on_c, 9, 54, 61
1, 217919, Note_on_c, 9, 36, 0
1, 217919, Note_on_c, 9, 54, 0
1, 217920, Note_on_c, 9, 54, 61
1, 217920, Note_on_c, 9, 36, 116
1, 218039, Note_on_c, 9, 54, 0
1, 218040, Note_on_c, 9, 54, 52
1, 218159, Note_on_c, 9, 54, 0
1, 218160, Note_on_c, 9, 54, 48
1, 218279, Note_on_c, 9, 54, 0
1, 218280, Note_on_c, 9, 54, 54
1, 218399, Note_on_c, 9, 36, 0
1, 218399, Note_on_c, 9, 54, 0
1, 218400, Note_on_c, 9, 40, 101
1, 218400, Note_on_c, 9, 54, 54
1, 218400, Note_on_c, 9, 28, 120
1, 218519, Note_on_c, 9, 40, 0
1, 218519, Note_on_c, 9, 54, 0
1, 218519, Note_on_c, 9, 28, 0
1, 218520, Note_on_c, 9, 40, 35
1, 218520, Note_on_c, 9, 54, 73
1, 218639, Note_on_c, 9, 40, 0
1, 218639, Note_on_c, 9, 54, 0
1, 218640, Note_on_c, 9, 40, 101
1, 218640, Note_on_c, 9, 54, 99
1, 218640, Note_on_c, 9, 28, 120
1, 218759, Note_on_c, 9, 40, 0
1, 218759, Note_on_c, 9, 54, 0
1, 218759, Note_on_c, 9, 28, 0
1, 218760, Note_on_c, 9, 40, 35
1, 218760, Note_on_c, 9, 54, 109
1, 218879, Note_on_c, 9, 40, 0
1, 218879, Note_on_c, 9, 54, 0
1, 218880, Note_on_c, 9, 54, 104
1, 218880, Note_on_c, 9, 36, 119
1, 218999, Note_on_c, 9, 54, 0
1, 219000, Note_on_c, 9, 54, 56
1, 219119, Note_on_c, 9, 54, 0
1, 219120, Note_on_c, 9, 54, 46
1, 219239, Note_on_c, 9, 54, 0
1, 219240, Note_on_c, 9, 54, 60
1, 219359, Note_on_c, 9, 36, 0
1, 219359, Note_on_c, 9, 54, 0
1, 219360, Note_on_c, 9, 54, 53
1, 219479, Note_on_c, 9, 54, 0
1, 219480, Note_on_c, 9, 54, 53
1, 219599, Note_on_c, 9, 54, 0
1, 219600, Note_on_c, 9, 54, 48
1, 219600, Note_on_c, 9, 36, 110
1, 219719, Note_on_c, 9, 54, 0
1, 219720, Note_on_c, 9, 54, 64
1, 219839, Note_on_c, 9, 36, 0
1, 219839, Note_on_c, 9, 54, 0
1, 219840, Note_on_c, 9, 54, 64
1, 219840, Note_on_c, 9, 36, 119
1, 219959, Note_on_c, 9, 54, 0
1, 219960, Note_on_c, 9, 54, 49
1, 220079, Note_on_c, 9, 54, 0
1, 220080, Note_on_c, 9, 54, 48
1, 220199, Note_on_c, 9, 54, 0
1, 220200, Note_on_c, 9, 54, 58
1, 220319, Note_on_c, 9, 36, 0
1, 220319, Note_on_c, 9, 54, 0
1, 220320, Note_on_c, 9, 40, 101
1, 220320, Note_on_c, 9, 54, 64
1, 220320, Note_on_c, 9, 28, 120
1, 220439, Note_on_c, 9, 40, 0
1, 220439, Note_on_c, 9, 54, 0
1, 220439, Note_on_c, 9, 28, 0
1, 220440, Note_on_c, 9, 40, 35
1, 220440, Note_on_c, 9, 54, 51
1, 220559, Note_on_c, 9, 40, 0
1, 220559, Note_on_c, 9, 54, 0
1, 220560, Note_on_c, 9, 40, 101
1, 220560, Note_on_c, 9, 54, 63
1, 220560, Note_on_c, 9, 28, 120
1, 220679, Note_on_c, 9, 40, 0
1, 220679, Note_on_c, 9, 54, 0
1, 220679, Note_on_c, 9, 28, 0
1, 220680, Note_on_c, 9, 40, 35
1, 220680, Note_on_c, 9, 54, 61
1, 220799, Note_on_c, 9, 40, 0
1, 220799, Note_on_c, 9, 54, 0
1, 220800, Note_on_c, 9, 36, 119
1, 221279, Note_on_c, 9, 36, 0
1, 221520, Note_on_c, 9, 36, 116
1, 221759, Note_on_c, 9, 36, 0
1, 221760, Note_on_c, 9, 36, 116
1, 222239, Note_on_c, 9, 36, 0
1, 222240, Note_on_c, 9, 40, 101
1, 222240, Note_on_c, 9, 28, 120
1, 222359, Note_on_c, 9, 40, 0
1, 222359, Note_on_c, 9, 28, 0
1, 222360, Note_on_c, 9, 40, 35
1, 222479, Note_on_c, 9, 40, 0
1, 222480, Note_on_c, 9, 40, 101
1, 222480, Note_on_c, 9, 28, 120
1, 222599, Note_on_c, 9, 40, 0
1, 222599, Note_on_c, 9, 28, 0
1, 222600, Note_on_c, 9, 40, 35
1, 222719, Note_on_c, 9, 40, 0
1, 222720, Note_on_c, 9, 36, 116
1, 223199, Note_on_c, 9, 36, 0
1, 223440, Note_on_c, 9, 52, 78
1, 223440, Note_on_c, 9, 36, 99
1, 223449, Note_on_c, 9, 52, 0
1, 223679, Note_on_c, 9, 36, 0
1, 223680, Note_on_c, 9, 36, 113
1, 224159, Note_on_c, 9, 36, 0
1, 224160, Note_on_c, 9, 40, 101
1, 224160, Note_on_c, 9, 28, 120
1, 224279, Note_on_c, 9, 40, 0
1, 224279, Note_on_c, 9, 28, 0
1, 224280, Note_on_c, 9, 40, 35
1, 224399, Note_on_c, 9, 40, 0
1, 224400, Note_on_c, 9, 40, 101
1, 224400, Note_on_c, 9, 28, 120
1, 224519, Note_on_c, 9, 40, 0
1, 224519, Note_on_c, 9, 28, 0
1, 224520, Note_on_c, 9, 40, 35
1, 224639, Note_on_c, 9, 40, 0
1, 224640, Note_on_c, 9, 29, 116
1, 224640, Note_on_c, 9, 42, 119
1, 224640, Note_on_c, 9, 36, 119
1, 224644, Note_on_c, 9, 42, 0
1, 224759, Note_on_c, 9, 29, 0
1, 224759, Note_on_c, 9, 36, 0
1, 224760, Note_on_c, 9, 42, 97
1, 224760, Note_on_c, 9, 36, 84
1, 224764, Note_on_c, 9, 42, 0
1, 224880, Note_on_c, 9, 42, 75
1, 224884, Note_on_c, 9, 42, 0
1, 225000, Note_on_c, 9, 42, 67
1, 225004, Note_on_c, 9, 42, 0
1, 225119, Note_on_c, 9, 36, 0
1, 225120, Note_on_c, 9, 40, 123
1, 225120, Note_on_c, 9, 42, 100
1, 225124, Note_on_c, 9, 42, 0
1, 225239, Note_on_c, 9, 40, 0
1, 225240, Note_on_c, 9, 40, 57
1, 225240, Note_on_c, 9, 42, 82
1, 225244, Note_on_c, 9, 42, 0
1, 225359, Note_on_c, 9, 40, 0
1, 225360, Note_on_c, 9, 42, 54
1, 225364, Note_on_c, 9, 42, 0
1, 225480, Note_on_c, 9, 42, 74
1, 225484, Note_on_c, 9, 42, 0
1, 225600, Note_on_c, 9, 42, 86
1, 225600, Note_on_c, 9, 36, 107
1, 225604, Note_on_c, 9, 42, 0
1, 225720, Note_on_c, 9, 42, 57
1, 225724, Note_on_c, 9, 42, 0
1, 225840, Note_on_c, 9, 42, 63
1, 225844, Note_on_c, 9, 42, 0
1, 225960, Note_on_c, 9, 42, 79
1, 225964, Note_on_c, 9, 42, 0
1, 226079, Note_on_c, 9, 36, 0
1, 226080, Note_on_c, 9, 40, 127
1, 226080, Note_on_c, 9, 42, 86
1, 226084, Note_on_c, 9, 42, 0
1, 226199, Note_on_c, 9, 40, 0
1, 226200, Note_on_c, 9, 40, 64
1, 226319, Note_on_c, 9, 40, 0
1, 226320, Note_on_c, 9, 42, 72
1, 226324, Note_on_c, 9, 42, 0
1, 226440, Note_on_c, 9, 42, 84
1, 226444, Note_on_c, 9, 42, 0
1, 226560, Note_on_c, 9, 42, 86
1, 226560, Note_on_c, 9, 36, 113
1, 226564, Note_on_c, 9, 42, 0
1, 226680, Note_on_c, 9, 42, 90
1, 226684, Note_on_c, 9, 42, 0
1, 226800, Note_on_c, 9, 42, 77
1, 226804, Note_on_c, 9, 42, 0
1, 226920, Note_on_c, 9, 42, 78
1, 226924, Note_on_c, 9, 42, 0
1, 227039, Note_on_c, 9, 36, 0
1, 227040, Note_on_c, 9, 40, 127
1, 227040, Note_on_c, 9, 29, 110
1, 227040, Note_on_c, 9, 42, 97
1, 227044, Note_on_c, 9, 42, 0
1, 227159, Note_on_c, 9, 40, 0
1, 227159, Note_on_c, 9, 29, 0
1, 227160, Note_on_c, 9, 40, 67
1, 227160, Note_on_c, 9, 29, 88
1, 227160, Note_on_c, 9, 42, 86
1, 227164, Note_on_c, 9, 42, 0
1, 227279, Note_on_c, 9, 40, 0
1, 227279, Note_on_c, 9, 29, 0
1, 227280, Note_on_c, 9, 29, 94
1, 227280, Note_on_c, 9, 42, 75
1, 227284, Note_on_c, 9, 42, 0
1, 227399, Note_on_c, 9, 29, 0
1, 227400, Note_on_c, 9, 29, 84
1, 227400, Note_on_c, 9, 42, 69
1, 227404, Note_on_c, 9, 42, 0
1, 227519, Note_on_c, 9, 29, 0
1, 227520, Note_on_c, 9, 29, 84
1, 227520, Note_on_c, 9, 42, 84
1, 227520, Note_on_c, 9, 36, 100
1, 227524, Note_on_c, 9, 42, 0
1, 227639, Note_on_c, 9, 29, 0
1, 227640, Note_on_c, 9, 29, 78
1, 227640, Note_on_c, 9, 42, 84
1, 227644, Note_on_c, 9, 42, 0
1, 227759, Note_on_c, 9, 29, 0
1, 227760, Note_on_c, 9, 29, 94
1, 227760, Note_on_c, 9, 42, 79
1, 227764, Note_on_c, 9, 42, 0
1, 227879, Note_on_c, 9, 29, 0
1, 227880, Note_on_c, 9, 29, 79
1, 227880, Note_on_c, 9, 42, 81
1, 227884, Note_on_c, 9, 42, 0
1, 227999, Note_on_c, 9, 36, 0
1, 227999, Note_on_c, 9, 29, 0
1, 228000, Note_on_c, 9, 40, 127
1, 228000, Note_on_c, 9, 29, 82
1, 228000, Note_on_c, 9, 42, 82
1, 228004, Note_on_c, 9, 42, 0
1, 228119, Note_on_c, 9, 40, 0
1, 228119, Note_on_c, 9, 29, 0
1, 228120, Note_on_c, 9, 40, 64
1, 228120, Note_on_c, 9, 29, 78
1, 228120, Note_on_c, 9, 42, 100
1, 228124, Note_on_c, 9, 42, 0
1, 228239, Note_on_c, 9, 40, 0
1, 228239, Note_on_c, 9, 29, 0
1, 228240, Note_on_c, 9, 46, 110
1, 228240, Note_on_c, 9, 29, 82
1, 228244, Note_on_c, 9, 46, 0
1, 228359, Note_on_c, 9, 29, 0
1, 228360, Note_on_c, 9, 29, 79
1, 228479, Note_on_c, 9, 29, 0
1, 228480, Note_on_c, 9, 29, 79
1, 228480, Note_on_c, 9, 42, 119
1, 228480, Note_on_c, 9, 36, 119
1, 228484, Note_on_c, 9, 42, 0
1, 228599, Note_on_c, 9, 29, 0
1, 228599, Note_on_c, 9, 36, 0
1, 228600, Note_on_c, 9, 29, 78
1, 228600, Note_on_c, 9, 42, 97
1, 228600, Note_on_c, 9, 36, 84
1, 228604, Note_on_c, 9, 42, 0
1, 228719, Note_on_c, 9, 29, 0
1, 228720, Note_on_c, 9, 29, 79
1, 228720, Note_on_c, 9, 42, 75
1, 228724, Note_on_c, 9, 42, 0
1, 228839, Note_on_c, 9, 29, 0
1, 228840, Note_on_c, 9, 29, 79
1, 228840, Note_on_c, 9, 42, 67
1, 228844, Note_on_c, 9, 42, 0
1, 228959, Note_on_c, 9, 36, 0
1, 228959, Note_on_c, 9, 29, 0
1, 228960, Note_on_c, 9, 40, 123
1, 228960, Note_on_c, 9, 29, 78
1, 228960, Note_on_c, 9, 42, 100
1, 228964, Note_on_c, 9, 42, 0
1, 229079, Note_on_c, 9, 40, 0
1, 229079, Note_on_c, 9, 29, 0
1, 229080, Note_on_c, 9, 40, 57
1, 229080, Note_on_c, 9, 29, 78
1, 229080, Note_on_c, 9, 42, 82
1, 229084, Note_on_c, 9, 42, 0
1, 229199, Note_on_c, 9, 40, 0
1, 229199, Note_on_c, 9, 29, 0
1, 229200, Note_on_c, 9, 29, 84
1, 229200, Note_on_c, 9, 42, 54
1, 229204, Note_on_c, 9, 42, 0
1, 229319, Note_on_c, 9, 29, 0
1, 229320, Note_on_c, 9, 29, 78
1, 229320, Note_on_c, 9, 42, 74
1, 229324, Note_on_c, 9, 42, 0
1, 229439, Note_on_c, 9, 29, 0
1, 229440, Note_on_c, 9, 29, 78
1, 229440, Note_on_c, 9, 42, 86
1, 229440, Note_on_c, 9, 36, 107
1, 229444, Note_on_c, 9, 42, 0
1, 229559, Note_on_c, 9, 29, 0
1, 229560, Note_on_c, 9, 29, 78
1, 229560, Note_on_c, 9, 42, 57
1, 229564, Note_on_c, 9, 42, 0
1, 229679, Note_on_c, 9, 29, 0
1, 229680, Note_on_c, 9, 29, 79
1, 229680, Note_on_c, 9, 42, 63
1, 229684, Note_on_c, 9, 42, 0
1, 229799, Note_on_c, 9, 29, 0
1, 229800, Note_on_c, 9, 29, 84
1, 229800, Note_on_c, 9, 42, 79
1, 229804, Note_on_c, 9, 42, 0
1, 229919, Note_on_c, 9, 36, 0
1, 229919, Note_on_c, 9, 29, 0
1, 229920, Note_on_c, 9, 40, 127
1, 229920, Note_on_c, 9, 30, 110
1, 229920, Note_on_c, 9, 42, 86
1, 229924, Note_on_c, 9, 42, 0
1, 230039, Note_on_c, 9, 40, 0
1, 230039, Note_on_c, 9, 30, 0
1, 230040, Note_on_c, 9, 40, 64
1, 230040, Note_on_c, 9, 29, 88
1, 230159, Note_on_c, 9, 40, 0
1, 230159, Note_on_c, 9, 29, 0
1, 230160, Note_on_c, 9, 29, 85
1, 230160, Note_on_c, 9, 42, 72
1, 230164, Note_on_c, 9, 42, 0
1, 230279, Note_on_c, 9, 29, 0
1, 230280, Note_on_c, 9, 29, 84
1, 230280, Note_on_c, 9, 42, 84
1, 230284, Note_on_c, 9, 42, 0
1, 230399, Note_on_c, 9, 29, 0
1, 230400, Note_on_c, 9, 30, 115
1, 230400, Note_on_c, 9, 42, 86
1, 230400, Note_on_c, 9, 36, 113
1, 230404, Note_on_c, 9, 42, 0
1, 230519, Note_on_c, 9, 30, 0
1, 230520, Note_on_c, 9, 29, 78
1, 230520, Note_on_c, 9, 42, 90
1, 230524, Note_on_c, 9, 42, 0
1, 230639, Note_on_c, 9, 29, 0
1, 230640, Note_on_c, 9, 29, 84
1, 230640, Note_on_c, 9, 42, 77
1, 230644, Note_on_c, 9, 42, 0
1, 230759, Note_on_c, 9, 29, 0
1, 230760, Note_on_c, 9, 29, 81
1, 230760, Note_on_c, 9, 42, 78
1, 230764, Note_on_c, 9, 42, 0
1, 230879, Note_on_c, 9, 36, 0
1, 230879, Note_on_c, 9, 29, 0
1, 230880, Note_on_c, 9, 40, 127
1, 230880, Note_on_c, 9, 29, 96
1, 230880, Note_on_c, 9, 42, 97
1, 230884, Note_on_c, 9, 42, 0
1, 230999, Note_on_c, 9, 40, 0
1, 230999, Note_on_c, 9, 29, 0
1, 231000, Note_on_c, 9, 40, 67
1, 231000, Note_on_c, 9, 29, 84
1, 231000, Note_on_c, 9, 42, 86
1, 231004, Note_on_c, 9, 42, 0
1, 231119, Note_on_c, 9, 40, 0
1, 231119, Note_on_c, 9, 29, 0
1, 231120, Note_on_c, 9, 30, 115
1, 231120, Note_on_c, 9, 42, 75
1, 231124, Note_on_c, 9, 42, 0
1, 231239, Note_on_c, 9, 30, 0
1, 231240, Note_on_c, 9, 29, 79
1, 231240, Note_on_c, 9, 42, 69
1, 231244, Note_on_c, 9, 42, 0
1, 231359, Note_on_c, 9, 29, 0
1, 231360, Note_on_c, 9, 30, 120
1, 231360, Note_on_c, 9, 42, 84
1, 231360, Note_on_c, 9, 36, 100
1, 231364, Note_on_c, 9, 42, 0
1, 231479, Note_on_c, 9, 30, 0
1, 231480, Note_on_c, 9, 29, 82
1, 231480, Note_on_c, 9, 42, 84
1, 231484, Note_on_c, 9, 42, 0
1, 231599, Note_on_c, 9, 29, 0
1, 231600, Note_on_c, 9, 30, 115
1, 231600, Note_on_c, 9, 42, 79
1, 231604, Note_on_c, 9, 42, 0
1, 231719, Note_on_c, 9, 30, 0
1, 231720, Note_on_c, 9, 29, 78
1, 231720, Note_on_c, 9, 42, 81
1, 231724, Note_on_c, 9, 42, 0
1, 231839, Note_on_c, 9, 36, 0
1, 231839, Note_on_c, 9, 29, 0
1, 231840, Note_on_c, 9, 40, 127
1, 231840, Note_on_c, 9, 30, 120
1, 231840, Note_on_c, 9, 42, 82
1, 231844, Note_on_c, 9, 42, 0
1, 231959, Note_on_c, 9, 40, 0
1, 231959, Note_on_c, 9, 30, 0
1, 231960, Note_on_c, 9, 40, 64
1, 231960, Note_on_c, 9, 29, 79
1, 231960, Note_on_c, 9, 42, 100
1, 231964, Note_on_c, 9, 42, 0
1, 232079, Note_on_c, 9, 40, 0
1, 232079, Note_on_c, 9, 29, 0
1, 232080, Note_on_c, 9, 46, 110
1, 232080, Note_on_c, 9, 29, 96
1, 232084, Note_on_c, 9, 46, 0
1, 232199, Note_on_c, 9, 29, 0
1, 232200, Note_on_c, 9, 29, 78
1, 232319, Note_on_c, 9, 29, 0
1, 232320, Note_on_c, 9, 29, 91
1, 232320, Note_on_c, 9, 42, 119
1, 232320, Note_on_c, 9, 36, 119
1, 232324, Note_on_c, 9, 42, 0
1, 232439, Note_on_c, 9, 29, 0
1, 232439, Note_on_c, 9, 36, 0
1, 232440, Note_on_c, 9, 29, 85
1, 232440, Note_on_c, 9, 42, 97
1, 232440, Note_on_c, 9, 36, 84
1, 232444, Note_on_c, 9, 42, 0
1, 232559, Note_on_c, 9, 29, 0
1, 232560, Note_on_c, 9, 30, 110
1, 232560, Note_on_c, 9, 42, 75
1, 232564, Note_on_c, 9, 42, 0
1, 232679, Note_on_c, 9, 30, 0
1, 232680, Note_on_c, 9, 29, 78
1, 232680, Note_on_c, 9, 42, 67
1, 232684, Note_on_c, 9, 42, 0
1, 232799, Note_on_c, 9, 36, 0
1, 232799, Note_on_c, 9, 29, 0
1, 232800, Note_on_c, 9, 40, 123
1, 232800, Note_on_c, 9, 29, 84
1, 232800, Note_on_c, 9, 42, 100
1, 232804, Note_on_c, 9, 42, 0
1, 232919, Note_on_c, 9, 40, 0
1, 232919, Note_on_c, 9, 29, 0
1, 232920, Note_on_c, 9, 40, 57
1, 232920, Note_on_c, 9, 29, 79
1, 232920, Note_on_c, 9, 42, 82
1, 232924, Note_on_c, 9, 42, 0
1, 233039, Note_on_c, 9, 40, 0
1, 233039, Note_on_c, 9, 29, 0
1, 233040, Note_on_c, 9, 30, 120
1, 233040, Note_on_c, 9, 42, 54
1, 233044, Note_on_c, 9, 42, 0
1, 233159, Note_on_c, 9, 30, 0
1, 233160, Note_on_c, 9, 29, 78
1, 233160, Note_on_c, 9, 42, 74
1, 233164, Note_on_c, 9, 42, 0
1, 233279, Note_on_c, 9, 29, 0
1, 233280, Note_on_c, 9, 30, 120
1, 233280, Note_on_c, 9, 42, 86
1, 233280, Note_on_c, 9, 36, 107
1, 233284, Note_on_c, 9, 42, 0
1, 233399, Note_on_c, 9, 30, 0
1, 233400, Note_on_c, 9, 30, 92
1, 233400, Note_on_c, 9, 42, 57
1, 233404, Note_on_c, 9, 42, 0
1, 233519, Note_on_c, 9, 30, 0
1, 233520, Note_on_c, 9, 30, 120
1, 233520, Note_on_c, 9, 42, 63
1, 233524, Note_on_c, 9, 42, 0
1, 233639, Note_on_c, 9, 30, 0
1, 233640, Note_on_c, 9, 30, 77
1, 233640, Note_on_c, 9, 42, 79
1, 233644, Note_on_c, 9, 42, 0
1, 233759, Note_on_c, 9, 36, 0
1, 233759, Note_on_c, 9, 30, 0
1, 233760, Note_on_c, 9, 40, 127
1, 233760, Note_on_c, 9, 30, 120
1, 233760, Note_on_c, 9, 42, 86
1, 233764, Note_on_c, 9, 42, 0
1, 233879, Note_on_c, 9, 40, 0
1, 233879, Note_on_c, 9, 30, 0
1, 233880, Note_on_c, 9, 40, 64
1, 233880, Note_on_c, 9, 30, 86
1, 233999, Note_on_c, 9, 40, 0
1, 233999, Note_on_c, 9, 30, 0
1, 234000, Note_on_c, 9, 29, 99
1, 234000, Note_on_c, 9, 42, 72
1, 234004, Note_on_c, 9, 42, 0
1, 234119, Note_on_c, 9, 29, 0
1, 234120, Note_on_c, 9, 29, 91
1, 234120, Note_on_c, 9, 42, 84
1, 234124, Note_on_c, 9, 42, 0
1, 234239, Note_on_c, 9, 29, 0
1, 234240, Note_on_c, 9, 29, 100
1, 234240, Note_on_c, 9, 42, 86
1, 234240, Note_on_c, 9, 36, 113
1, 234244, Note_on_c, 9, 42, 0
1, 234359, Note_on_c, 9, 29, 0
1, 234360, Note_on_c, 9, 29, 86
1, 234360, Note_on_c, 9, 42, 90
1, 234364, Note_on_c, 9, 42, 0
1, 234479, Note_on_c, 9, 29, 0
1, 234480, Note_on_c, 9, 29, 91
1, 234480, Note_on_c, 9, 42, 77
1, 234484, Note_on_c, 9, 42, 0
1, 234599, Note_on_c, 9, 29, 0
1, 234600, Note_on_c, 9, 29, 79
1, 234600, Note_on_c, 9, 42, 78
1, 234604, Note_on_c, 9, 42, 0
1, 234719, Note_on_c, 9, 36, 0
1, 234719, Note_on_c, 9, 29, 0
1, 234720, Note_on_c, 9, 40, 127
1, 234720, Note_on_c, 9, 30, 110
1, 234720, Note_on_c, 9, 42, 97
1, 234724, Note_on_c, 9, 42, 0
1, 234839, Note_on_c, 9, 40, 0
1, 234839, Note_on_c, 9, 30, 0
1, 234840, Note_on_c, 9, 40, 67
1, 234840, Note_on_c, 9, 29, 79
1, 234840, Note_on_c, 9, 42, 86
1, 234844, Note_on_c, 9, 42, 0
1, 234959, Note_on_c, 9, 40, 0
1, 234959, Note_on_c, 9, 29, 0
1, 234960, Note_on_c, 9, 29, 78
1, 234960, Note_on_c, 9, 42, 75
1, 234964, Note_on_c, 9, 42, 0
1, 235079, Note_on_c, 9, 29, 0
1, 235080, Note_on_c, 9, 29, 78
1, 235080, Note_on_c, 9, 42, 69
1, 235084, Note_on_c, 9, 42, 0
1, 235199, Note_on_c, 9, 29, 0
1, 235200, Note_on_c, 9, 29, 90
1, 235200, Note_on_c, 9, 42, 84
1, 235200, Note_on_c, 9, 36, 100
1, 235204, Note_on_c, 9, 42, 0
1, 235319, Note_on_c, 9, 29, 0
1, 235320, Note_on_c, 9, 29, 78
1, 235320, Note_on_c, 9, 42, 84
1, 235324, Note_on_c, 9, 42, 0
1, 235439, Note_on_c, 9, 29, 0
1, 235440, Note_on_c, 9, 29, 94
1, 235440, Note_on_c, 9, 42, 79
1, 235444, Note_on_c, 9, 42, 0
1, 235559, Note_on_c, 9, 29, 0
1, 235560, Note_on_c, 9, 29, 79
1, 235560, Note_on_c, 9, 42, 81
1, 235564, Note_on_c, 9, 42, 0
1, 235679, Note_on_c, 9, 36, 0
1, 235679, Note_on_c, 9, 29, 0
1, 235680, Note_on_c, 9, 40, 127
1, 235680, Note_on_c, 9, 30, 110
1, 235680, Note_on_c, 9, 42, 82
1, 235684, Note_on_c, 9, 42, 0
1, 235799, Note_on_c, 9, 40, 0
1, 235799, Note_on_c, 9, 30, 0
1, 235800, Note_on_c, 9, 40, 64
1, 235800, Note_on_c, 9, 29, 84
1, 235800, Note_on_c, 9, 42, 100
1, 235804, Note_on_c, 9, 42, 0
1, 235919, Note_on_c, 9, 40, 0
1, 235919, Note_on_c, 9, 29, 0
1, 235920, Note_on_c, 9, 46, 110
1, 235920, Note_on_c, 9, 29, 90
1, 235924, Note_on_c, 9, 46, 0
1, 236039, Note_on_c, 9, 29, 0
1, 236040, Note_on_c, 9, 29, 81
1, 236159, Note_on_c, 9, 29, 0
1, 236160, Note_on_c, 9, 29, 100
1, 236160, Note_on_c, 9, 42, 119
1, 236160, Note_on_c, 9, 36, 119
1, 236164, Note_on_c, 9, 42, 0
1, 236279, Note_on_c, 9, 29, 0
1, 236279, Note_on_c, 9, 36, 0
1, 236280, Note_on_c, 9, 29, 82
1, 236280, Note_on_c, 9, 42, 97
1, 236280, Note_on_c, 9, 36, 84
1, 236284, Note_on_c, 9, 42, 0
1, 236399, Note_on_c, 9, 29, 0
1, 236400, Note_on_c, 9, 29, 91
1, 236400, Note_on_c, 9, 42, 75
1, 236404, Note_on_c, 9, 42, 0
1, 236519, Note_on_c, 9, 29, 0
1, 236520, Note_on_c, 9, 29, 84
1, 236520, Note_on_c, 9, 42, 67
1, 236524, Note_on_c, 9, 42, 0
1, 236639, Note_on_c, 9, 36, 0
1, 236639, Note_on_c, 9, 29, 0
1, 236640, Note_on_c, 9, 40, 123
1, 236640, Note_on_c, 9, 30, 105
1, 236640, Note_on_c, 9, 42, 100
1, 236644, Note_on_c, 9, 42, 0
1, 236759, Note_on_c, 9, 40, 0
1, 236759, Note_on_c, 9, 30, 0
1, 236760, Note_on_c, 9, 40, 57
1, 236760, Note_on_c, 9, 29, 88
1, 236760, Note_on_c, 9, 42, 82
1, 236764, Note_on_c, 9, 42, 0
1, 236879, Note_on_c, 9, 40, 0
1, 236879, Note_on_c, 9, 29, 0
1, 236880, Note_on_c, 9, 30, 120
1, 236880, Note_on_c, 9, 42, 54
1, 236884, Note_on_c, 9, 42, 0
1, 236999, Note_on_c, 9, 30, 0
1, 237000, Note_on_c, 9, 29, 86
1, 237000, Note_on_c, 9, 42, 74
1, 237004, Note_on_c, 9, 42, 0
1, 237119, Note_on_c, 9, 29, 0
1, 237120, Note_on_c, 9, 30, 90
1, 237120, Note_on_c, 9, 42, 86
1, 237120, Note_on_c, 9, 36, 107
1, 237124, Note_on_c, 9, 42, 0
1, 237239, Note_on_c, 9, 30, 0
1, 237240, Note_on_c, 9, 29, 85
1, 237240, Note_on_c, 9, 42, 57
1, 237244, Note_on_c, 9, 42, 0
1, 237359, Note_on_c, 9, 29, 0
1, 237360, Note_on_c, 9, 29, 99
1, 237360, Note_on_c, 9, 42, 63
1, 237364, Note_on_c, 9, 42, 0
1, 237479, Note_on_c, 9, 29, 0
1, 237480, Note_on_c, 9, 29, 86
1, 237480, Note_on_c, 9, 42, 79
1, 237484, Note_on_c, 9, 42, 0
1, 237599, Note_on_c, 9, 36, 0
1, 237599, Note_on_c, 9, 29, 0
1, 237600, Note_on_c, 9, 40, 127
1, 237600, Note_on_c, 9, 30, 110
1, 237600, Note_on_c, 9, 42, 86
1, 237604, Note_on_c, 9, 42, 0
1, 237719, Note_on_c, 9, 40, 0
1, 237719, Note_on_c, 9, 30, 0
1, 237720, Note_on_c, 9, 40, 64
1, 237720, Note_on_c, 9, 29, 88
1, 237839, Note_on_c, 9, 40, 0
1, 237839, Note_on_c, 9, 29, 0
1, 237840, Note_on_c, 9, 29, 116
1, 237840, Note_on_c, 9, 42, 72
1, 237844, Note_on_c, 9, 42, 0
1, 237959, Note_on_c, 9, 29, 0
1, 237960, Note_on_c, 9, 42, 84
1, 237964, Note_on_c, 9, 42, 0
1, 238080, Note_on_c, 9, 42, 86
1, 238080, Note_on_c, 9, 36, 113
1, 238084, Note_on_c, 9, 42, 0
1, 238200, Note_on_c, 9, 42, 90
1, 238204, Note_on_c, 9, 42, 0
1, 238320, Note_on_c, 9, 42, 77
1, 238324, Note_on_c, 9, 42, 0
1, 238440, Note_on_c, 9, 42, 78
1, 238444, Note_on_c, 9, 42, 0
1, 238559, Note_on_c, 9, 36, 0
1, 238560, Note_on_c, 9, 40, 127
1, 238560, Note_on_c, 9, 42, 97
1, 238564, Note_on_c, 9, 42, 0
1, 238679, Note_on_c, 9, 40, 0
1, 238680, Note_on_c, 9, 40, 67
1, 238680, Note_on_c, 9, 29, 104
1, 238680, Note_on_c, 9, 42, 86
1, 238684, Note_on_c, 9, 42, 0
1, 238799, Note_on_c, 9, 40, 0
1, 238799, Note_on_c, 9, 29, 0
1, 238800, Note_on_c, 9, 29, 88
1, 238800, Note_on_c, 9, 42, 75
1, 238804, Note_on_c, 9, 42, 0
1, 238919, Note_on_c, 9, 29, 0
1, 238920, Note_on_c, 9, 30, 105
1, 238920, Note_on_c, 9, 42, 69
1, 238924, Note_on_c, 9, 42, 0
1, 239039, Note_on_c, 9, 30, 0
1, 239040, Note_on_c, 9, 29, 78
1, 239040, Note_on_c, 9, 42, 84
1, 239040, Note_on_c, 9, 36, 100
1, 239044, Note_on_c, 9, 42, 0
1, 239159, Note_on_c, 9, 29, 0
1, 239160, Note_on_c, 9, 29, 89
1, 239160, Note_on_c, 9, 42, 84
1, 239164, Note_on_c, 9, 42, 0
1, 239279, Note_on_c, 9, 29, 0
1, 239280, Note_on_c, 9, 29, 78
1, 239280, Note_on_c, 9, 42, 79
1, 239284, Note_on_c, 9, 42, 0
1, 239399, Note_on_c, 9, 29, 0
1, 239400, Note_on_c, 9, 29, 96
1, 239400, Note_on_c, 9, 42, 81
1, 239404, Note_on_c, 9, 42, 0
1, 239519, Note_on_c, 9, 36, 0
1, 239519, Note_on_c, 9, 29, 0
1, 239520, Note_on_c, 9, 40, 127
1, 239520, Note_on_c, 9, 29, 84
1, 239520, Note_on_c, 9, 42, 82
1, 239524, Note_on_c, 9, 42, 0
1, 239639, Note_on_c, 9, 40, 0
1, 239639, Note_on_c, 9, 29, 0
1, 239640, Note_on_c, 9, 40, 64
1, 239640, Note_on_c, 9, 30, 110
1, 239640, Note_on_c, 9, 42, 100
1, 239644, Note_on_c, 9, 42, 0
1, 239759, Note_on_c, 9, 40, 0
1, 239759, Note_on_c, 9, 30, 0
1, 239760, Note_on_c, 9, 46, 110
1, 239760, Note_on_c, 9, 29, 84
1, 239764, Note_on_c, 9, 46, 0
1, 239879, Note_on_c, 9, 29, 0
1, 239880, Note_on_c, 9, 29, 85
1, 239999, Note_on_c, 9, 29, 0
1, 240000, Note_on_c, 9, 29, 84
1, 240000, Note_on_c, 9, 42, 119
1, 240000, Note_on_c, 9, 36, 119
1, 240004, Note_on_c, 9, 42, 0
1, 240119, Note_on_c, 9, 29, 0
1, 240119, Note_on_c, 9, 36, 0
1, 240120, Note_on_c, 9, 29, 91
1, 240120, Note_on_c, 9, 42, 97
1, 240120, Note_on_c, 9, 36, 84
1, 240124, Note_on_c, 9, 42, 0
1, 240239, Note_on_c, 9, 29, 0
1, 240240, Note_on_c, 9, 42, 75
1, 240240, Note_on_c, 9, 52, 120
1, 240244, Note_on_c, 9, 42, 0
1, 240244, Note_on_c, 9, 52, 0
1, 240360, Note_on_c, 9, 42, 67
1, 240364, Note_on_c, 9, 42, 0
1, 240479, Note_on_c, 9, 36, 0
1, 240480, Note_on_c, 9, 40, 123
1, 240480, Note_on_c, 9, 42, 100
1, 240484, Note_on_c, 9, 42, 0
1, 240599, Note_on_c, 9, 40, 0
1, 240600, Note_on_c, 9, 40, 57
1, 240600, Note_on_c, 9, 42, 82
1, 240604, Note_on_c, 9, 42, 0
1, 240719, Note_on_c, 9, 40, 0
1, 240720, Note_on_c, 9, 42, 54
1, 240724, Note_on_c, 9, 42, 0
1, 240840, Note_on_c, 9, 42, 74
1, 240844, Note_on_c, 9, 42, 0
1, 240960, Note_on_c, 9, 42, 86
1, 240960, Note_on_c, 9, 36, 107
1, 240964, Note_on_c, 9, 42, 0
1, 241080, Note_on_c, 9, 42, 57
1, 241084, Note_on_c, 9, 42, 0
1, 241200, Note_on_c, 9, 42, 63
1, 241204, Note_on_c, 9, 42, 0
1, 241320, Note_on_c, 9, 42, 79
1, 241324, Note_on_c, 9, 42, 0
1, 241439, Note_on_c, 9, 36, 0
1, 241440, Note_on_c, 9, 40, 127
1, 241440, Note_on_c, 9, 42, 86
1, 241444, Note_on_c, 9, 42, 0
1, 241559, Note_on_c, 9, 40, 0
1, 241560, Note_on_c, 9, 40, 64
1, 241679, Note_on_c, 9, 40, 0
1, 241680, Note_on_c, 9, 42, 72
1, 241684, Note_on_c, 9, 42, 0
1, 241800, Note_on_c, 9, 42, 84
1, 241804, Note_on_c, 9, 42, 0
1, 241920, Note_on_c, 9, 42, 90
1, 241920, Note_on_c, 9, 36, 104
1, 241924, Note_on_c, 9, 42, 0
1, 242040, Note_on_c, 9, 42, 77
1, 242044, Note_on_c, 9, 42, 0
1, 242160, Note_on_c, 9, 42, 81
1, 242164, Note_on_c, 9, 42, 0
1, 242280, Note_on_c, 9, 42, 82
1, 242284, Note_on_c, 9, 42, 0
1, 242399, Note_on_c, 9, 36, 0
1, 242400, Note_on_c, 9, 40, 119
1, 242400, Note_on_c, 9, 42, 86
1, 242404, Note_on_c, 9, 42, 0
1, 242519, Note_on_c, 9, 40, 0
1, 242520, Note_on_c, 9, 40, 53
1, 242520, Note_on_c, 9, 42, 74
1, 242524, Note_on_c, 9, 42, 0
1, 242639, Note_on_c, 9, 40, 0
1, 242640, Note_on_c, 9, 42, 75
1, 242644, Note_on_c, 9, 42, 0
1, 242760, Note_on_c, 9, 42, 67
1, 242764, Note_on_c, 9, 42, 0
1, 242880, Note_on_c, 9, 42, 70
1, 242880, Note_on_c, 9, 36, 100
1, 242884, Note_on_c, 9, 42, 0
1, 243000, Note_on_c, 9, 42, 70
1, 243004, Note_on_c, 9, 42, 0
1, 243120, Note_on_c, 9, 42, 78
1, 243124, Note_on_c, 9, 42, 0
1, 243240, Note_on_c, 9, 42, 67
1, 243244, Note_on_c, 9, 42, 0
1, 243359, Note_on_c, 9, 36, 0
1, 243360, Note_on_c, 9, 40, 122
1, 243360, Note_on_c, 9, 42, 90
1, 243364, Note_on_c, 9, 42, 0
1, 243479, Note_on_c, 9, 40, 0
1, 243480, Note_on_c, 9, 40, 56
1, 243480, Note_on_c, 9, 42, 100
1, 243484, Note_on_c, 9, 42, 0
1, 243599, Note_on_c, 9, 40, 0
1, 243600, Note_on_c, 9, 46, 105
1, 243609, Note_on_c, 9, 46, 0
1, 243840, Note_on_c, 9, 42, 120
1, 243840, Note_on_c, 9, 36, 116
1, 243844, Note_on_c, 9, 42, 0
1, 243959, Note_on_c, 9, 36, 0
1, 243960, Note_on_c, 9, 42, 97
1, 243960, Note_on_c, 9, 36, 84
1, 243964, Note_on_c, 9, 42, 0
1, 244080, Note_on_c, 9, 42, 75
1, 244084, Note_on_c, 9, 42, 0
1, 244200, Note_on_c, 9, 42, 67
1, 244204, Note_on_c, 9, 42, 0
1, 244319, Note_on_c, 9, 36, 0
1, 244320, Note_on_c, 9, 40, 123
1, 244320, Note_on_c, 9, 42, 100
1, 244324, Note_on_c, 9, 42, 0
1, 244439, Note_on_c, 9, 40, 0
1, 244440, Note_on_c, 9, 40, 57
1, 244440, Note_on_c, 9, 42, 82
1, 244444, Note_on_c, 9, 42, 0
1, 244559, Note_on_c, 9, 40, 0
1, 244560, Note_on_c, 9, 42, 54
1, 244564, Note_on_c, 9, 42, 0
1, 244680, Note_on_c, 9, 42, 74
1, 244684, Note_on_c, 9, 42, 0
1, 244800, Note_on_c, 9, 42, 86
1, 244800, Note_on_c, 9, 36, 107
1, 244804, Note_on_c, 9, 42, 0
1, 244920, Note_on_c, 9, 42, 57
1, 244924, Note_on_c, 9, 42, 0
1, 245040, Note_on_c, 9, 42, 63
1, 245044, Note_on_c, 9, 42, 0
1, 245160, Note_on_c, 9, 42, 79
1, 245164, Note_on_c, 9, 42, 0
1, 245279, Note_on_c, 9, 36, 0
1, 245280, Note_on_c, 9, 40, 127
1, 245280, Note_on_c, 9, 42, 86
1, 245284, Note_on_c, 9, 42, 0
1, 245399, Note_on_c, 9, 40, 0
1, 245400, Note_on_c, 9, 40, 64
1, 245519, Note_on_c, 9, 40, 0
1, 245520, Note_on_c, 9, 42, 72
1, 245524, Note_on_c, 9, 42, 0
1, 245640, Note_on_c, 9, 42, 84
1, 245644, Note_on_c, 9, 42, 0
1, 245760, Note_on_c, 9, 42, 86
1, 245760, Note_on_c, 9, 36, 113
1, 245764, Note_on_c, 9, 42, 0
1, 245880, Note_on_c, 9, 42, 90
1, 245884, Note_on_c, 9, 42, 0
1, 246000, Note_on_c, 9, 42, 77
1, 246004, Note_on_c, 9, 42, 0
1, 246120, Note_on_c, 9, 42, 78
1, 246124, Note_on_c, 9, 42, 0
1, 246239, Note_on_c, 9, 36, 0
1, 246240, Note_on_c, 9, 40, 127
1, 246240, Note_on_c, 9, 42, 97
1, 246244, Note_on_c, 9, 42, 0
1, 246359, Note_on_c, 9, 40, 0
1, 246360, Note_on_c, 9, 40, 67
1, 246360, Note_on_c, 9, 42, 86
1, 246364, Note_on_c, 9, 42, 0
1, 246479, Note_on_c, 9, 40, 0
1, 246480, Note_on_c, 9, 42, 75
1, 246484, Note_on_c, 9, 42, 0
1, 246600, Note_on_c, 9, 42, 69
1, 246604, Note_on_c, 9, 42, 0
1, 246720, Note_on_c, 9, 42, 84
1, 246720, Note_on_c, 9, 36, 100
1, 246724, Note_on_c, 9, 42, 0
1, 246840, Note_on_c, 9, 42, 84
1, 246844, Note_on_c, 9, 42, 0
1, 246960, Note_on_c, 9, 42, 79
1, 246964, Note_on_c, 9, 42, 0
1, 247080, Note_on_c, 9, 42, 81
1, 247084, Note_on_c, 9, 42, 0
1, 247199, Note_on_c, 9, 36, 0
1, 247200, Note_on_c, 9, 40, 127
1, 247200, Note_on_c, 9, 42, 82
1, 247204, Note_on_c, 9, 42, 0
1, 247319, Note_on_c, 9, 40, 0
1, 247320, Note_on_c, 9, 40, 64
1, 247320, Note_on_c, 9, 42, 100
1, 247324, Note_on_c, 9, 42, 0
1, 247439, Note_on_c, 9, 40, 0
1, 247440, Note_on_c, 9, 46, 110
1, 247449, Note_on_c, 9, 46, 0
1, 247680, Note_on_c, 9, 42, 110
1, 247680, Note_on_c, 9, 36, 107
1, 247684, Note_on_c, 9, 42, 0
1, 247799, Note_on_c, 9, 36, 0
1, 247800, Note_on_c, 9, 42, 69
1, 247800, Note_on_c, 9, 36, 78
1, 247804, Note_on_c, 9, 42, 0
1, 247920, Note_on_c, 9, 42, 82
1, 247924, Note_on_c, 9, 42, 0
1, 248040, Note_on_c, 9, 42, 84
1, 248044, Note_on_c, 9, 42, 0
1, 248159, Note_on_c, 9, 36, 0
1, 248160, Note_on_c, 9, 40, 122
1, 248160, Note_on_c, 9, 42, 100
1, 248164, Note_on_c, 9, 42, 0
1, 248279, Note_on_c, 9, 40, 0
1, 248280, Note_on_c, 9, 40, 56
1, 248280, Note_on_c, 9, 42, 72
1, 248284, Note_on_c, 9, 42, 0
1, 248399, Note_on_c, 9, 40, 0
1, 248400, Note_on_c, 9, 42, 82
1, 248404, Note_on_c, 9, 42, 0
1, 248520, Note_on_c, 9, 42, 75
1, 248524, Note_on_c, 9, 42, 0
1, 248640, Note_on_c, 9, 42, 82
1, 248640, Note_on_c, 9, 36, 104
1, 248644, Note_on_c, 9, 42, 0
1, 248760, Note_on_c, 9, 42, 77
1, 248764, Note_on_c, 9, 42, 0
1, 248880, Note_on_c, 9, 42, 75
1, 248884, Note_on_c, 9, 42, 0
1, 249000, Note_on_c, 9, 42, 77
1, 249004, Note_on_c, 9, 42, 0
1, 249119, Note_on_c, 9, 36, 0
1, 249120, Note_on_c, 9, 40, 127
1, 249120, Note_on_c, 9, 42, 86
1, 249124, Note_on_c, 9, 42, 0
1, 249239, Note_on_c, 9, 40, 0
1, 249240, Note_on_c, 9, 40, 61
1, 249240, Note_on_c, 9, 42, 86
1, 249244, Note_on_c, 9, 42, 0
1, 249359, Note_on_c, 9, 40, 0
1, 249360, Note_on_c, 9, 42, 59
1, 249364, Note_on_c, 9, 42, 0
1, 249480, Note_on_c, 9, 42, 72
1, 249484, Note_on_c, 9, 42, 0
1, 249600, Note_on_c, 9, 42, 90
1, 249600, Note_on_c, 9, 36, 104
1, 249604, Note_on_c, 9, 42, 0
1, 249720, Note_on_c, 9, 42, 77
1, 249724, Note_on_c, 9, 42, 0
1, 249840, Note_on_c, 9, 42, 81
1, 249844, Note_on_c, 9, 42, 0
1, 249960, Note_on_c, 9, 42, 82
1, 249964, Note_on_c, 9, 42, 0
1, 250079, Note_on_c, 9, 36, 0
1, 250080, Note_on_c, 9, 40, 119
1, 250080, Note_on_c, 9, 42, 86
1, 250084, Note_on_c, 9, 42, 0
1, 250199, Note_on_c, 9, 40, 0
1, 250200, Note_on_c, 9, 40, 53
1, 250200, Note_on_c, 9, 42, 74
1, 250204, Note_on_c, 9, 42, 0
1, 250319, Note_on_c, 9, 40, 0
1, 250320, Note_on_c, 9, 42, 75
1, 250324, Note_on_c, 9, 42, 0
1, 250440, Note_on_c, 9, 42, 67
1, 250444, Note_on_c, 9, 42, 0
1, 250560, Note_on_c, 9, 42, 70
1, 250560, Note_on_c, 9, 36, 100
1, 250564, Note_on_c, 9, 42, 0
1, 250680, Note_on_c, 9, 42, 70
1, 250684, Note_on_c, 9, 42, 0
1, 250800, Note_on_c, 9, 42, 78
1, 250804, Note_on_c, 9, 42, 0
1, 250920, Note_on_c, 9, 42, 67
1, 250924, Note_on_c, 9, 42, 0
1, 251039, Note_on_c, 9, 36, 0
1, 251040, Note_on_c, 9, 40, 122
1, 251040, Note_on_c, 9, 42, 90
1, 251044, Note_on_c, 9, 42, 0
1, 251159, Note_on_c, 9, 40, 0
1, 251160, Note_on_c, 9, 40, 56
1, 251160, Note_on_c, 9, 42, 100
1, 251164, Note_on_c, 9, 42, 0
1, 251279, Note_on_c, 9, 40, 0
1, 251280, Note_on_c, 9, 46, 105
1, 251289, Note_on_c, 9, 46, 0
1, 251520, Note_on_c, 9, 42, 120
1, 251520, Note_on_c, 9, 36, 116
1, 251524, Note_on_c, 9, 42, 0
1, 251639, Note_on_c, 9, 36, 0
1, 251640, Note_on_c, 9, 42, 97
1, 251640, Note_on_c, 9, 36, 84
1, 251644, Note_on_c, 9, 42, 0
1, 251760, Note_on_c, 9, 42, 75
1, 251764, Note_on_c, 9, 42, 0
1, 251880, Note_on_c, 9, 42, 67
1, 251884, Note_on_c, 9, 42, 0
1, 251999, Note_on_c, 9, 36, 0
1, 252000, Note_on_c, 9, 40, 123
1, 252000, Note_on_c, 9, 42, 100
1, 252004, Note_on_c, 9, 42, 0
1, 252119, Note_on_c, 9, 40, 0
1, 252120, Note_on_c, 9, 40, 57
1, 252120, Note_on_c, 9, 42, 82
1, 252124, Note_on_c, 9, 42, 0
1, 252239, Note_on_c, 9, 40, 0
1, 252240, Note_on_c, 9, 42, 54
1, 252244, Note_on_c, 9, 42, 0
1, 252360, Note_on_c, 9, 42, 74
1, 252364, Note_on_c, 9, 42, 0
1, 252480, Note_on_c, 9, 42, 86
1, 252480, Note_on_c, 9, 36, 107
1, 252484, Note_on_c, 9, 42, 0
1, 252600, Note_on_c, 9, 42, 57
1, 252604, Note_on_c, 9, 42, 0
1, 252720, Note_on_c, 9, 42, 63
1, 252724, Note_on_c, 9, 42, 0
1, 252840, Note_on_c, 9, 42, 79
1, 252844, Note_on_c, 9, 42, 0
1, 252959, Note_on_c, 9, 36, 0
1, 252960, Note_on_c, 9, 40, 127
1, 252960, Note_on_c, 9, 42, 86
1, 252964, Note_on_c, 9, 42, 0
1, 253079, Note_on_c, 9, 40, 0
1, 253080, Note_on_c, 9, 40, 64
1, 253199, Note_on_c, 9, 40, 0
1, 253200, Note_on_c, 9, 42, 72
1, 253204, Note_on_c, 9, 42, 0
1, 253320, Note_on_c, 9, 42, 84
1, 253324, Note_on_c, 9, 42, 0
1, 253440, Note_on_c, 9, 42, 86
1, 253440, Note_on_c, 9, 36, 113
1, 253444, Note_on_c, 9, 42, 0
1, 253560, Note_on_c, 9, 42, 90
1, 253564, Note_on_c, 9, 42, 0
1, 253680, Note_on_c, 9, 42, 77
1, 253684, Note_on_c, 9, 42, 0
1, 253800, Note_on_c, 9, 42, 78
1, 253804, Note_on_c, 9, 42, 0
1, 253919, Note_on_c, 9, 36, 0
1, 253920, Note_on_c, 9, 40, 127
1, 253920, Note_on_c, 9, 42, 97
1, 253924, Note_on_c, 9, 42, 0
1, 254039, Note_on_c, 9, 40, 0
1, 254040, Note_on_c, 9, 40, 67
1, 254040, Note_on_c, 9, 42, 86
1, 254044, Note_on_c, 9, 42, 0
1, 254159, Note_on_c, 9, 40, 0
1, 254160, Note_on_c, 9, 42, 75
1, 254164, Note_on_c, 9, 42, 0
1, 254280, Note_on_c, 9, 42, 69
1, 254284, Note_on_c, 9, 42, 0
1, 254400, Note_on_c, 9, 42, 84
1, 254400, Note_on_c, 9, 36, 100
1, 254404, Note_on_c, 9, 42, 0
1, 254520, Note_on_c, 9, 42, 84
1, 254524, Note_on_c, 9, 42, 0
1, 254640, Note_on_c, 9, 42, 79
1, 254644, Note_on_c, 9, 42, 0
1, 254760, Note_on_c, 9, 42, 81
1, 254764, Note_on_c, 9, 42, 0
1, 254879, Note_on_c, 9, 36, 0
1, 254880, Note_on_c, 9, 40, 127
1, 254880, Note_on_c, 9, 42, 82
1, 254884, Note_on_c, 9, 42, 0
1, 254999, Note_on_c, 9, 40, 0
1, 255000, Note_on_c, 9, 40, 64
1, 255000, Note_on_c, 9, 42, 100
1, 255004, Note_on_c, 9, 42, 0
1, 255119, Note_on_c, 9, 40, 0
1, 255120, Note_on_c, 9, 46, 110
1, 255129, Note_on_c, 9, 46, 0
1, 255360, Note_on_c, 9, 42, 110
1, 255360, Note_on_c, 9, 36, 107
1, 255364, Note_on_c, 9, 42, 0
1, 255479, Note_on_c, 9, 36, 0
1, 255480, Note_on_c, 9, 42, 69
1, 255480, Note_on_c, 9, 36, 78
1, 255484, Note_on_c, 9, 42, 0
1, 255600, Note_on_c, 9, 42, 82
1, 255604, Note_on_c, 9, 42, 0
1, 255720, Note_on_c, 9, 42, 84
1, 255724, Note_on_c, 9, 42, 0
1, 255839, Note_on_c, 9, 36, 0
1, 255840, Note_on_c, 9, 40, 122
1, 255840, Note_on_c, 9, 42, 100
1, 255844, Note_on_c, 9, 42, 0
1, 255959, Note_on_c, 9, 40, 0
1, 255960, Note_on_c, 9, 40, 56
1, 255960, Note_on_c, 9, 42, 72
1, 255964, Note_on_c, 9, 42, 0
1, 256079, Note_on_c, 9, 40, 0
1, 256080, Note_on_c, 9, 42, 82
1, 256084, Note_on_c, 9, 42, 0
1, 256200, Note_on_c, 9, 42, 75
1, 256204, Note_on_c, 9, 42, 0
1, 256320, Note_on_c, 9, 42, 82
1, 256320, Note_on_c, 9, 36, 104
1, 256324, Note_on_c, 9, 42, 0
1, 256440, Note_on_c, 9, 42, 77
1, 256444, Note_on_c, 9, 42, 0
1, 256560, Note_on_c, 9, 42, 75
1, 256564, Note_on_c, 9, 42, 0
1, 256680, Note_on_c, 9, 42, 77
1, 256684, Note_on_c, 9, 42, 0
1, 256799, Note_on_c, 9, 36, 0
1, 256800, Note_on_c, 9, 40, 127
1, 256800, Note_on_c, 9, 42, 86
1, 256804, Note_on_c, 9, 42, 0
1, 256919, Note_on_c, 9, 40, 0
1, 256920, Note_on_c, 9, 40, 61
1, 256920, Note_on_c, 9, 42, 86
1, 256924, Note_on_c, 9, 42, 0
1, 257039, Note_on_c, 9, 40, 0
1, 257040, Note_on_c, 9, 42, 59
1, 257044, Note_on_c, 9, 42, 0
1, 257160, Note_on_c, 9, 42, 72
1, 257164, Note_on_c, 9, 42, 0
1, 257280, Note_on_c, 9, 42, 90
1, 257280, Note_on_c, 9, 36, 104
1, 257284, Note_on_c, 9, 42, 0
1, 257400, Note_on_c, 9, 42, 77
1, 257404, Note_on_c, 9, 42, 0
1, 257520, Note_on_c, 9, 42, 81
1, 257524, Note_on_c, 9, 42, 0
1, 257640, Note_on_c, 9, 42, 82
1, 257644, Note_on_c, 9, 42, 0
1, 257759, Note_on_c, 9, 36, 0
1, 257760, Note_on_c, 9, 40, 119
1, 257760, Note_on_c, 9, 42, 86
1, 257764, Note_on_c, 9, 42, 0
1, 257879, Note_on_c, 9, 40, 0
1, 257880, Note_on_c, 9, 40, 53
1, 257880, Note_on_c, 9, 42, 74
1, 257884, Note_on_c, 9, 42, 0
1, 257999, Note_on_c, 9, 40, 0
1, 258000, Note_on_c, 9, 42, 75
1, 258004, Note_on_c, 9, 42, 0
1, 258120, Note_on_c, 9, 42, 67
1, 258124, Note_on_c, 9, 42, 0
1, 258240, Note_on_c, 9, 42, 70
1, 258240, Note_on_c, 9, 36, 100
1, 258244, Note_on_c, 9, 42, 0
1, 258360, Note_on_c, 9, 42, 70
1, 258364, Note_on_c, 9, 42, 0
1, 258480, Note_on_c, 9, 42, 78
1, 258484, Note_on_c, 9, 42, 0
1, 258600, Note_on_c, 9, 42, 67
1, 258604, Note_on_c, 9, 42, 0
1, 258719, Note_on_c, 9, 36, 0
1, 258720, Note_on_c, 9, 40, 122
1, 258720, Note_on_c, 9, 42, 90
1, 258724, Note_on_c, 9, 42, 0
1, 258839, Note_on_c, 9, 40, 0
1, 258840, Note_on_c, 9, 40, 56
1, 258840, Note_on_c, 9, 42, 100
1, 258844, Note_on_c, 9, 42, 0
1, 258959, Note_on_c, 9, 40, 0
1, 258960, Note_on_c, 9, 46, 105
1, 258969, Note_on_c, 9, 46, 0
1, 259200, Note_on_c, 9, 42, 120
1, 259200, Note_on_c, 9, 36, 116
1, 259204, Note_on_c, 9, 42, 0
1, 259319, Note_on_c, 9, 36, 0
1, 259320, Note_on_c, 9, 42, 97
1, 259320, Note_on_c, 9, 36, 84
1, 259324, Note_on_c, 9, 42, 0
1, 259440, Note_on_c, 9, 42, 75
1, 259444, Note_on_c, 9, 42, 0
1, 259560, Note_on_c, 9, 42, 67
1, 259564, Note_on_c, 9, 42, 0
1, 259679, Note_on_c, 9, 36, 0
1, 259680, Note_on_c, 9, 40, 123
1, 259680, Note_on_c, 9, 42, 100
1, 259684, Note_on_c, 9, 42, 0
1, 259799, Note_on_c, 9, 40, 0
1, 259800, Note_on_c, 9, 40, 57
1, 259800, Note_on_c, 9, 42, 82
1, 259804, Note_on_c, 9, 42, 0
1, 259919, Note_on_c, 9, 40, 0
1, 259920, Note_on_c, 9, 42, 54
1, 259924, Note_on_c, 9, 42, 0
1, 260040, Note_on_c, 9, 42, 74
1, 260044, Note_on_c, 9, 42, 0
1, 260160, Note_on_c, 9, 42, 86
1, 260160, Note_on_c, 9, 36, 107
1, 260164, Note_on_c, 9, 42, 0
1, 260280, Note_on_c, 9, 42, 57
1, 260284, Note_on_c, 9, 42, 0
1, 260400, Note_on_c, 9, 42, 63
1, 260404, Note_on_c, 9, 42, 0
1, 260520, Note_on_c, 9, 42, 79
1, 260524, Note_on_c, 9, 42, 0
1, 260639, Note_on_c, 9, 36, 0
1, 260640, Note_on_c, 9, 40, 127
1, 260640, Note_on_c, 9, 42, 86
1, 260644, Note_on_c, 9, 42, 0
1, 260759, Note_on_c, 9, 40, 0
1, 260760, Note_on_c, 9, 40, 64
1, 260879, Note_on_c, 9, 40, 0
1, 260880, Note_on_c, 9, 42, 72
1, 260884, Note_on_c, 9, 42, 0
1, 261000, Note_on_c, 9, 42, 84
1, 261004, Note_on_c, 9, 42, 0
1, 261120, Note_on_c, 9, 42, 86
1, 261120, Note_on_c, 9, 36, 113
1, 261124, Note_on_c, 9, 42, 0
1, 261240, Note_on_c, 9, 42, 90
1, 261244, Note_on_c, 9, 42, 0
1, 261360, Note_on_c, 9, 42, 77
1, 261364, Note_on_c, 9, 42, 0
1, 261480, Note_on_c, 9, 42, 78
1, 261484, Note_on_c, 9, 42, 0
1, 261599, Note_on_c, 9, 36, 0
1, 261600, Note_on_c, 9, 40, 127
1, 261600, Note_on_c, 9, 42, 97
1, 261604, Note_on_c, 9, 42, 0
1, 261719, Note_on_c, 9, 40, 0
1, 261720, Note_on_c, 9, 40, 67
1, 261720, Note_on_c, 9, 42, 86
1, 261724, Note_on_c, 9, 42, 0
1, 261839, Note_on_c, 9, 40, 0
1, 261840, Note_on_c, 9, 42, 75
1, 261844, Note_on_c, 9, 42, 0
1, 261960, Note_on_c, 9, 42, 69
1, 261964, Note_on_c, 9, 42, 0
1, 262080, Note_on_c, 9, 42, 84
1, 262080, Note_on_c, 9, 36, 100
1, 262084, Note_on_c, 9, 42, 0
1, 262200, Note_on_c, 9, 42, 84
1, 262204, Note_on_c, 9, 42, 0
1, 262320, Note_on_c, 9, 42, 79
1, 262324, Note_on_c, 9, 42, 0
1, 262440, Note_on_c, 9, 42, 81
1, 262444, Note_on_c, 9, 42, 0
1, 262559, Note_on_c, 9, 36, 0
1, 262560, Note_on_c, 9, 40, 127
1, 262560, Note_on_c, 9, 42, 82
1, 262564, Note_on_c, 9, 42, 0
1, 262679, Note_on_c, 9, 40, 0
1, 262680, Note_on_c, 9, 40, 64
1, 262680, Note_on_c, 9, 42, 100
1, 262684, Note_on_c, 9, 42, 0
1, 262799, Note_on_c, 9, 40, 0
1, 262800, Note_on_c, 9, 46, 110
1, 262809, Note_on_c, 9, 46, 0
1, 263040, Note_on_c, 9, 42, 110
1, 263040, Note_on_c, 9, 36, 107
1, 263044, Note_on_c, 9, 42, 0
1, 263159, Note_on_c, 9, 36, 0
1, 263160, Note_on_c, 9, 42, 69
1, 263160, Note_on_c, 9, 36, 78
1, 263164, Note_on_c, 9, 42, 0
1, 263280, Note_on_c, 9, 42, 82
1, 263284, Note_on_c, 9, 42, 0
1, 263400, Note_on_c, 9, 42, 84
1, 263404, Note_on_c, 9, 42, 0
1, 263519, Note_on_c, 9, 36, 0
1, 263520, Note_on_c, 9, 40, 122
1, 263520, Note_on_c, 9, 42, 100
1, 263524, Note_on_c, 9, 42, 0
1, 263639, Note_on_c, 9, 40, 0
1, 263640, Note_on_c, 9, 40, 56
1, 263640, Note_on_c, 9, 42, 72
1, 263644, Note_on_c, 9, 42, 0
1, 263759, Note_on_c, 9, 40, 0
1, 263760, Note_on_c, 9, 42, 82
1, 263764, Note_on_c, 9, 42, 0
1, 263880, Note_on_c, 9, 42, 75
1, 263884, Note_on_c, 9, 42, 0
1, 264000, Note_on_c, 9, 42, 82
1, 264000, Note_on_c, 9, 36, 104
1, 264004, Note_on_c, 9, 42, 0
1, 264120, Note_on_c, 9, 42, 77
1, 264124, Note_on_c, 9, 42, 0
1, 264240, Note_on_c, 9, 42, 75
1, 264244, Note_on_c, 9, 42, 0
1, 264360, Note_on_c, 9, 42, 77
1, 264364, Note_on_c, 9, 42, 0
1, 264479, Note_on_c, 9, 36, 0
1, 264480, Note_on_c, 9, 40, 127
1, 264480, Note_on_c, 9, 42, 86
1, 264484, Note_on_c, 9, 42, 0
1, 264599, Note_on_c, 9, 40, 0
1, 264600, Note_on_c, 9, 40, 61
1, 264600, Note_on_c, 9, 42, 86
1, 264604, Note_on_c, 9, 42, 0
1, 264719, Note_on_c, 9, 40, 0
1, 264720, Note_on_c, 9, 42, 59
1, 264724, Note_on_c, 9, 42, 0
1, 264840, Note_on_c, 9, 42, 72
1, 264844, Note_on_c, 9, 42, 0
1, 264960, Note_on_c, 9, 42, 90
1, 264960, Note_on_c, 9, 36, 104
1, 264964, Note_on_c, 9, 42, 0
1, 265080, Note_on_c, 9, 42, 77
1, 265084, Note_on_c, 9, 42, 0
1, 265200, Note_on_c, 9, 42, 81
1, 265204, Note_on_c, 9, 42, 0
1, 265320, Note_on_c, 9, 42, 82
1, 265324, Note_on_c, 9, 42, 0
1, 265439, Note_on_c, 9, 36, 0
1, 265440, Note_on_c, 9, 40, 119
1, 265440, Note_on_c, 9, 42, 86
1, 265444, Note_on_c, 9, 42, 0
1, 265559, Note_on_c, 9, 40, 0
1, 265560, Note_on_c, 9, 40, 53
1, 265560, Note_on_c, 9, 42, 74
1, 265564, Note_on_c, 9, 42, 0
1, 265679, Note_on_c, 9, 40, 0
1, 265680, Note_on_c, 9, 42, 75
1, 265684, Note_on_c, 9, 42, 0
1, 265800, Note_on_c, 9, 42, 67
1, 265804, Note_on_c, 9, 42, 0
1, 265920, Note_on_c, 9, 42, 70
1, 265920, Note_on_c, 9, 36, 100
1, 265924, Note_on_c, 9, 42, 0
1, 266040, Note_on_c, 9, 42, 70
1, 266044, Note_on_c, 9, 42, 0
1, 266160, Note_on_c, 9, 42, 78
1, 266164, Note_on_c, 9, 42, 0
1, 266280, Note_on_c, 9, 42, 67
1, 266284, Note_on_c, 9, 42, 0
1, 266399, Note_on_c, 9, 36, 0
1, 266400, Note_on_c, 9, 40, 122
1, 266400, Note_on_c, 9, 42, 90
1, 266404, Note_on_c, 9, 42, 0
1, 266519, Note_on_c, 9, 40, 0
1, 266520, Note_on_c, 9, 40, 56
1, 266520, Note_on_c, 9, 42, 100
1, 266524, Note_on_c, 9, 42, 0
1, 266639, Note_on_c, 9, 40, 0
1, 266640, Note_on_c, 9, 46, 105
1, 266649, Note_on_c, 9, 46, 0
1, 266880, Note_on_c, 9, 42, 120
1, 266880, Note_on_c, 9, 36, 116
1, 266884, Note_on_c, 9, 42, 0
1, 266999, Note_on_c, 9, 36, 0
1, 267000, Note_on_c, 9, 42, 97
1, 267000, Note_on_c, 9, 36, 84
1, 267004, Note_on_c, 9, 42, 0
1, 267120, Note_on_c, 9, 42, 75
1, 267124, Note_on_c, 9, 42, 0
1, 267240, Note_on_c, 9, 42, 67
1, 267244, Note_on_c, 9, 42, 0
1, 267359, Note_on_c, 9, 36, 0
1, 267360, Note_on_c, 9, 40, 123
1, 267360, Note_on_c, 9, 42, 100
1, 267364, Note_on_c, 9, 42, 0
1, 267479, Note_on_c, 9, 40, 0
1, 267480, Note_on_c, 9, 40, 57
1, 267480, Note_on_c, 9, 42, 82
1, 267484, Note_on_c, 9, 42, 0
1, 267599, Note_on_c, 9, 40, 0
1, 267600, Note_on_c, 9, 42, 54
1, 267604, Note_on_c, 9, 42, 0
1, 267720, Note_on_c, 9, 42, 74
1, 267724, Note_on_c, 9, 42, 0
1, 267840, Note_on_c, 9, 42, 86
1, 267840, Note_on_c, 9, 36, 107
1, 267844, Note_on_c, 9, 42, 0
1, 267960, Note_on_c, 9, 42, 57
1, 267964, Note_on_c, 9, 42, 0
1, 268080, Note_on_c, 9, 42, 63
1, 268084, Note_on_c, 9, 42, 0
1, 268200, Note_on_c, 9, 42, 79
1, 268204, Note_on_c, 9, 42, 0
1, 268319, Note_on_c, 9, 36, 0
1, 268320, Note_on_c, 9, 40, 127
1, 268320, Note_on_c, 9, 42, 86
1, 268324, Note_on_c, 9, 42, 0
1, 268439, Note_on_c, 9, 40, 0
1, 268440, Note_on_c, 9, 40, 64
1, 268559, Note_on_c, 9, 40, 0
1, 268560, Note_on_c, 9, 42, 72
1, 268564, Note_on_c, 9, 42, 0
1, 268680, Note_on_c, 9, 42, 84
1, 268684, Note_on_c, 9, 42, 0
1, 268800, Note_on_c, 9, 42, 86
1, 268800, Note_on_c, 9, 36, 113
1, 268804, Note_on_c, 9, 42, 0
1, 268920, Note_on_c, 9, 42, 90
1, 268924, Note_on_c, 9, 42, 0
1, 269040, Note_on_c, 9, 42, 77
1, 269044, Note_on_c, 9, 42, 0
1, 269160, Note_on_c, 9, 42, 78
1, 269164, Note_on_c, 9, 42, 0
1, 269279, Note_on_c, 9, 36, 0
1, 269280, Note_on_c, 9, 40, 127
1, 269280, Note_on_c, 9, 42, 97
1, 269284, Note_on_c, 9, 42, 0
1, 269399, Note_on_c, 9, 40, 0
1, 269400, Note_on_c, 9, 40, 67
1, 269400, Note_on_c, 9, 42, 86
1, 269404, Note_on_c, 9, 42, 0
1, 269519, Note_on_c, 9, 40, 0
1, 269520, Note_on_c, 9, 42, 75
1, 269524, Note_on_c, 9, 42, 0
1, 269640, Note_on_c, 9, 42, 69
1, 269644, Note_on_c, 9, 42, 0
1, 269760, Note_on_c, 9, 42, 84
1, 269760, Note_on_c, 9, 36, 100
1, 269764, Note_on_c, 9, 42, 0
1, 269880, Note_on_c, 9, 42, 84
1, 269884, Note_on_c, 9, 42, 0
1, 270000, Note_on_c, 9, 42, 79
1, 270004, Note_on_c, 9, 42, 0
1, 270120, Note_on_c, 9, 42, 81
1, 270124, Note_on_c, 9, 42, 0
1, 270239, Note_on_c, 9, 36, 0
1, 270240, Note_on_c, 9, 40, 127
1, 270240, Note_on_c, 9, 42, 82
1, 270244, Note_on_c, 9, 42, 0
1, 270359, Note_on_c, 9, 40, 0
1, 270360, Note_on_c, 9, 40, 64
1, 270360, Note_on_c, 9, 42, 100
1, 270364, Note_on_c, 9, 42, 0
1, 270479, Note_on_c, 9, 40, 0
1, 270480, Note_on_c, 9, 46, 110
1, 270489, Note_on_c, 9, 46, 0
1, 270720, Note_on_c, 9, 42, 110
1, 270720, Note_on_c, 9, 36, 107
1, 270724, Note_on_c, 9, 42, 0
1, 270839, Note_on_c, 9, 36, 0
1, 270840, Note_on_c, 9, 42, 69
1, 270840, Note_on_c, 9, 36, 78
1, 270844, Note_on_c, 9, 42, 0
1, 270960, Note_on_c, 9, 42, 82
1, 270964, Note_on_c, 9, 42, 0
1, 271080, Note_on_c, 9, 42, 84
1, 271084, Note_on_c, 9, 42, 0
1, 271199, Note_on_c, 9, 36, 0
1, 271200, Note_on_c, 9, 40, 122
1, 271200, Note_on_c, 9, 42, 100
1, 271204, Note_on_c, 9, 42, 0
1, 271319, Note_on_c, 9, 40, 0
1, 271320, Note_on_c, 9, 40, 56
1, 271320, Note_on_c, 9, 42, 72
1, 271324, Note_on_c, 9, 42, 0
1, 271439, Note_on_c, 9, 40, 0
1, 271440, Note_on_c, 9, 42, 82
1, 271444, Note_on_c, 9, 42, 0
1, 271560, Note_on_c, 9, 42, 75
1, 271564, Note_on_c, 9, 42, 0
1, 271680, Note_on_c, 9, 42, 82
1, 271680, Note_on_c, 9, 36, 104
1, 271684, Note_on_c, 9, 42, 0
1, 271800, Note_on_c, 9, 42, 77
1, 271804, Note_on_c, 9, 42, 0
1, 271920, Note_on_c, 9, 42, 75
1, 271924, Note_on_c, 9, 42, 0
1, 272040, Note_on_c, 9, 42, 77
1, 272044, Note_on_c, 9, 42, 0
1, 272159, Note_on_c, 9, 36, 0
1, 272160, Note_on_c, 9, 40, 127
1, 272160, Note_on_c, 9, 42, 86
1, 272164, Note_on_c, 9, 42, 0
1, 272279, Note_on_c, 9, 40, 0
1, 272280, Note_on_c, 9, 40, 61
1, 272280, Note_on_c, 9, 42, 86
1, 272284, Note_on_c, 9, 42, 0
1, 272399, Note_on_c, 9, 40, 0
1, 272400, Note_on_c, 9, 42, 59
1, 272404, Note_on_c, 9, 42, 0
1, 272520, Note_on_c, 9, 42, 72
1, 272524, Note_on_c, 9, 42, 0
1, 272640, Note_on_c, 9, 42, 90
1, 272640, Note_on_c, 9, 36, 104
1, 272644, Note_on_c, 9, 42, 0
1, 272760, Note_on_c, 9, 42, 77
1, 272764, Note_on_c, 9, 42, 0
1, 272880, Note_on_c, 9, 42, 81
1, 272884, Note_on_c, 9, 42, 0
1, 273000, Note_on_c, 9, 42, 82
1, 273004, Note_on_c, 9, 42, 0
1, 273119, Note_on_c, 9, 36, 0
1, 273120, Note_on_c, 9, 40, 119
1, 273120, Note_on_c, 9, 42, 86
1, 273124, Note_on_c, 9, 42, 0
1, 273239, Note_on_c, 9, 40, 0
1, 273240, Note_on_c, 9, 40, 53
1, 273240, Note_on_c, 9, 42, 74
1, 273244, Note_on_c, 9, 42, 0
1, 273359, Note_on_c, 9, 40, 0
1, 273360, Note_on_c, 9, 42, 75
1, 273364, Note_on_c, 9, 42, 0
1, 273480, Note_on_c, 9, 42, 67
1, 273484, Note_on_c, 9, 42, 0
1, 273600, Note_on_c, 9, 42, 70
1, 273600, Note_on_c, 9, 36, 100
1, 273604, Note_on_c, 9, 42, 0
1, 273720, Note_on_c, 9, 42, 70
1, 273724, Note_on_c, 9, 42, 0
1, 273840, Note_on_c, 9, 42, 78
1, 273844, Note_on_c, 9, 42, 0
1, 273960, Note_on_c, 9, 42, 67
1, 273964, Note_on_c, 9, 42, 0
1, 274079, Note_on_c, 9, 36, 0
1, 274080, Note_on_c, 9, 40, 122
1, 274080, Note_on_c, 9, 42, 90
1, 274084, Note_on_c, 9, 42, 0
1, 274199, Note_on_c, 9, 40, 0
1, 274200, Note_on_c, 9, 40, 56
1, 274200, Note_on_c, 9, 42, 100
1, 274204, Note_on_c, 9, 42, 0
1, 274319, Note_on_c, 9, 40, 0
1, 274320, Note_on_c, 9, 46, 105
1, 274329, Note_on_c, 9, 46, 0
1, 274560, Note_on_c, 9, 42, 120
1, 274560, Note_on_c, 9, 36, 116
1, 274564, Note_on_c, 9, 42, 0
1, 274679, Note_on_c, 9, 36, 0
1, 274680, Note_on_c, 9, 42, 97
1, 274680, Note_on_c, 9, 36, 84
1, 274684, Note_on_c, 9, 42, 0
1, 274800, Note_on_c, 9, 42, 75
1, 274804, Note_on_c, 9, 42, 0
1, 274920, Note_on_c, 9, 42, 67
1, 274924, Note_on_c, 9, 42, 0
1, 275039, Note_on_c, 9, 36, 0
1, 275040, Note_on_c, 9, 40, 123
1, 275040, Note_on_c, 9, 42, 100
1, 275044, Note_on_c, 9, 42, 0
1, 275159, Note_on_c, 9, 40, 0
1, 275160, Note_on_c, 9, 40, 57
1, 275160, Note_on_c, 9, 42, 82
1, 275164, Note_on_c, 9, 42, 0
1, 275279, Note_on_c, 9, 40, 0
1, 275280, Note_on_c, 9, 42, 54
1, 275284, Note_on_c, 9, 42, 0
1, 275400, Note_on_c, 9, 42, 74
1, 275404, Note_on_c, 9, 42, 0
1, 275520, Note_on_c, 9, 42, 86
1, 275520, Note_on_c, 9, 36, 107
1, 275524, Note_on_c, 9, 42, 0
1, 275640, Note_on_c, 9, 42, 57
1, 275644, Note_on_c, 9, 42, 0
1, 275760, Note_on_c, 9, 42, 63
1, 275764, Note_on_c, 9, 42, 0
1, 275880, Note_on_c, 9, 42, 79
1, 275884, Note_on_c, 9, 42, 0
1, 275999, Note_on_c, 9, 36, 0
1, 276000, Note_on_c, 9, 40, 127
1, 276000, Note_on_c, 9, 42, 86
1, 276004, Note_on_c, 9, 42, 0
1, 276119, Note_on_c, 9, 40, 0
1, 276120, Note_on_c, 9, 40, 64
1, 276239, Note_on_c, 9, 40, 0
1, 276240, Note_on_c, 9, 42, 72
1, 276244, Note_on_c, 9, 42, 0
1, 276360, Note_on_c, 9, 42, 84
1, 276364, Note_on_c, 9, 42, 0
1, 276480, Note_on_c, 9, 42, 86
1, 276480, Note_on_c, 9, 36, 113
1, 276484, Note_on_c, 9, 42, 0
1, 276600, Note_on_c, 9, 42, 90
1, 276604, Note_on_c, 9, 42, 0
1, 276720, Note_on_c, 9, 42, 77
1, 276724, Note_on_c, 9, 42, 0
1, 276840, Note_on_c, 9, 42, 78
1, 276844, Note_on_c, 9, 42, 0
1, 276959, Note_on_c, 9, 36, 0
1, 276960, Note_on_c, 9, 40, 127
1, 276960, Note_on_c, 9, 42, 97
1, 276964, Note_on_c, 9, 42, 0
1, 277079, Note_on_c, 9, 40, 0
1, 277080, Note_on_c, 9, 40, 67
1, 277080, Note_on_c, 9, 42, 86
1, 277084, Note_on_c, 9, 42, 0
1, 277199, Note_on_c, 9, 40, 0
1, 277200, Note_on_c, 9, 42, 75
1, 277204, Note_on_c, 9, 42, 0
1, 277320, Note_on_c, 9, 42, 69
1, 277324, Note_on_c, 9, 42, 0
1, 277440, Note_on_c, 9, 42, 84
1, 277440, Note_on_c, 9, 36, 100
1, 277444, Note_on_c, 9, 42, 0
1, 277560, Note_on_c, 9, 42, 84
1, 277564, Note_on_c, 9, 42, 0
1, 277680, Note_on_c, 9, 42, 79
1, 277684, Note_on_c, 9, 42, 0
1, 277800, Note_on_c, 9, 42, 81
1, 277804, Note_on_c, 9, 42, 0
1, 277919, Note_on_c, 9, 36, 0
1, 277920, Note_on_c, 9, 40, 127
1, 277920, Note_on_c, 9, 42, 82
1, 277924, Note_on_c, 9, 42, 0
1, 278039, Note_on_c, 9, 40, 0
1, 278040, Note_on_c, 9, 40, 64
1, 278040, Note_on_c, 9, 42, 100
1, 278044, Note_on_c, 9, 42, 0
1, 278159, Note_on_c, 9, 40, 0
1, 278160, Note_on_c, 9, 46, 110
1, 278169, Note_on_c, 9, 46, 0
1, 278400, Note_on_c, 9, 42, 110
1, 278400, Note_on_c, 9, 36, 107
1, 278404, Note_on_c, 9, 42, 0
1, 278519, Note_on_c, 9, 36, 0
1, 278520, Note_on_c, 9, 42, 69
1, 278520, Note_on_c, 9, 36, 78
1, 278524, Note_on_c, 9, 42, 0
1, 278640, Note_on_c, 9, 42, 82
1, 278644, Note_on_c, 9, 42, 0
1, 278760, Note_on_c, 9, 42, 84
1, 278764, Note_on_c, 9, 42, 0
1, 278879, Note_on_c, 9, 36, 0
1, 278880, Note_on_c, 9, 40, 122
1, 278880, Note_on_c, 9, 42, 100
1, 278884, Note_on_c, 9, 42, 0
1, 278999, Note_on_c, 9, 40, 0
1, 279000, Note_on_c, 9, 40, 56
1, 279000, Note_on_c, 9, 42, 72
1, 279004, Note_on_c, 9, 42, 0
1, 279119, Note_on_c, 9, 40, 0
1, 279120, Note_on_c, 9, 42, 82
1, 279124, Note_on_c, 9, 42, 0
1, 279240, Note_on_c, 9, 42, 75
1, 279244, Note_on_c, 9, 42, 0
1, 279360, Note_on_c, 9, 42, 82
1, 279360, Note_on_c, 9, 36, 104
1, 279364, Note_on_c, 9, 42, 0
1, 279480, Note_on_c, 9, 42, 77
1, 279484, Note_on_c, 9, 42, 0
1, 279600, Note_on_c, 9, 42, 75
1, 279604, Note_on_c, 9, 42, 0
1, 279720, Note_on_c, 9, 42, 77
1, 279724, Note_on_c, 9, 42, 0
1, 279839, Note_on_c, 9, 36, 0
1, 279840, Note_on_c, 9, 40, 127
1, 279840, Note_on_c, 9, 42, 86
1, 279844, Note_on_c, 9, 42, 0
1, 279959, Note_on_c, 9, 40, 0
1, 279960, Note_on_c, 9, 40, 61
1, 279960, Note_on_c, 9, 42, 86
1, 279964, Note_on_c, 9, 42, 0
1, 280079, Note_on_c, 9, 40, 0
1, 280080, Note_on_c, 9, 42, 59
1, 280084, Note_on_c, 9, 42, 0
1, 280200, Note_on_c, 9, 42, 72
1, 280204, Note_on_c, 9, 42, 0
1, 280320, Note_on_c, 9, 42, 90
1, 280320, Note_on_c, 9, 36, 104
1, 280324, Note_on_c, 9, 42, 0
1, 280440, Note_on_c, 9, 42, 77
1, 280444, Note_on_c, 9, 42, 0
1, 280560, Note_on_c, 9, 42, 81
1, 280564, Note_on_c, 9, 42, 0
1, 280680, Note_on_c, 9, 42, 82
1, 280684, Note_on_c, 9, 42, 0
1, 280799, Note_on_c, 9, 36, 0
1, 280800, Note_on_c, 9, 40, 119
1, 280800, Note_on_c, 9, 42, 86
1, 280804, Note_on_c, 9, 42, 0
1, 280919, Note_on_c, 9, 40, 0
1, 280920, Note_on_c, 9, 40, 53
1, 280920, Note_on_c, 9, 42, 74
1, 280924, Note_on_c, 9, 42, 0
1, 281039, Note_on_c, 9, 40, 0
1, 281040, Note_on_c, 9, 42, 75
1, 281044, Note_on_c, 9, 42, 0
1, 281160, Note_on_c, 9, 42, 67
1, 281164, Note_on_c, 9, 42, 0
1, 281280, Note_on_c, 9, 42, 70
1, 281280, Note_on_c, 9, 36, 100
1, 281284, Note_on_c, 9, 42, 0
1, 281400, Note_on_c, 9, 42, 70
1, 281404, Note_on_c, 9, 42, 0
1, 281520, Note_on_c, 9, 42, 78
1, 281524, Note_on_c, 9, 42, 0
1, 281640, Note_on_c, 9, 42, 67
1, 281644, Note_on_c, 9, 42, 0
1, 281759, Note_on_c, 9, 36, 0
1, 281760, Note_on_c, 9, 40, 122
1, 281760, Note_on_c, 9, 42, 90
1, 281764, Note_on_c, 9, 42, 0
1, 281879, Note_on_c, 9, 40, 0
1, 281880, Note_on_c, 9, 40, 56
1, 281880, Note_on_c, 9, 42, 100
1, 281884, Note_on_c, 9, 42, 0
1, 281999, Note_on_c, 9, 40, 0
1, 282000, Note_on_c, 9, 46, 105
1, 282009, Note_on_c, 9, 46, 0
1, 282240, Note_on_c, 9, 42, 120
1, 282240, Note_on_c, 9, 36, 116
1, 282244, Note_on_c, 9, 42, 0
1, 282359, Note_on_c, 9, 36, 0
1, 282360, Note_on_c, 9, 42, 97
1, 282360, Note_on_c, 9, 36, 84
1, 282364, Note_on_c, 9, 42, 0
1, 282480, Note_on_c, 9, 42, 75
1, 282484, Note_on_c, 9, 42, 0
1, 282600, Note_on_c, 9, 42, 67
1, 282604, Note_on_c, 9, 42, 0
1, 282719, Note_on_c, 9, 36, 0
1, 282720, Note_on_c, 9, 40, 123
1, 282720, Note_on_c, 9, 42, 100
1, 282724, Note_on_c, 9, 42, 0
1, 282839, Note_on_c, 9, 40, 0
1, 282840, Note_on_c, 9, 40, 57
1, 282840, Note_on_c, 9, 42, 82
1, 282844, Note_on_c, 9, 42, 0
1, 282959, Note_on_c, 9, 40, 0
1, 282960, Note_on_c, 9, 42, 54
1, 282964, Note_on_c, 9, 42, 0
1, 283080, Note_on_c, 9, 42, 74
1, 283084, Note_on_c, 9, 42, 0
1, 283200, Note_on_c, 9, 42, 86
1, 283200, Note_on_c, 9, 36, 107
1, 283204, Note_on_c, 9, 42, 0
1, 283320, Note_on_c, 9, 42, 57
1, 283324, Note_on_c, 9, 42, 0
1, 283440, Note_on_c, 9, 42, 63
1, 283444, Note_on_c, 9, 42, 0
1, 283560, Note_on_c, 9, 42, 79
1, 283564, Note_on_c, 9, 42, 0
1, 283679, Note_on_c, 9, 36, 0
1, 283680, Note_on_c, 9, 40, 127
1, 283680, Note_on_c, 9, 42, 86
1, 283684, Note_on_c, 9, 42, 0
1, 283799, Note_on_c, 9, 40, 0
1, 283800, Note_on_c, 9, 40, 64
1, 283919, Note_on_c, 9, 40, 0
1, 283920, Note_on_c, 9, 42, 72
1, 283924, Note_on_c, 9, 42, 0
1, 284040, Note_on_c, 9, 42, 84
1, 284044, Note_on_c, 9, 42, 0
1, 284160, Note_on_c, 9, 42, 86
1, 284160, Note_on_c, 9, 36, 113
1, 284164, Note_on_c, 9, 42, 0
1, 284280, Note_on_c, 9, 42, 90
1, 284284, Note_on_c, 9, 42, 0
1, 284400, Note_on_c, 9, 42, 77
1, 284404, Note_on_c, 9, 42, 0
1, 284520, Note_on_c, 9, 42, 78
1, 284524, Note_on_c, 9, 42, 0
1, 284639, Note_on_c, 9, 36, 0
1, 284640, Note_on_c, 9, 40, 127
1, 284640, Note_on_c, 9, 42, 97
1, 284644, Note_on_c, 9, 42, 0
1, 284759, Note_on_c, 9, 40, 0
1, 284760, Note_on_c, 9, 40, 67
1, 284760, Note_on_c, 9, 42, 86
1, 284764, Note_on_c, 9, 42, 0
1, 284879, Note_on_c, 9, 40, 0
1, 284880, Note_on_c, 9, 42, 75
1, 284884, Note_on_c, 9, 42, 0
1, 285000, Note_on_c, 9, 42, 69
1, 285004, Note_on_c, 9, 42, 0
1, 285120, Note_on_c, 9, 42, 84
1, 285120, Note_on_c, 9, 36, 100
1, 285124, Note_on_c, 9, 42, 0
1, 285240, Note_on_c, 9, 42, 84
1, 285244, Note_on_c, 9, 42, 0
1, 285360, Note_on_c, 9, 42, 79
1, 285364, Note_on_c, 9, 42, 0
1, 285480, Note_on_c, 9, 42, 81
1, 285484, Note_on_c, 9, 42, 0
1, 285599, Note_on_c, 9, 36, 0
1, 285600, Note_on_c, 9, 40, 127
1, 285600, Note_on_c, 9, 42, 82
1, 285604, Note_on_c, 9, 42, 0
1, 285719, Note_on_c, 9, 40, 0
1, 285720, Note_on_c, 9, 40, 64
1, 285720, Note_on_c, 9, 42, 100
1, 285724, Note_on_c, 9, 42, 0
1, 285839, Note_on_c, 9, 40, 0
1, 285840, Note_on_c, 9, 46, 110
1, 285849, Note_on_c, 9, 46, 0
1, 286080, Note_on_c, 9, 42, 120
1, 286080, Note_on_c, 9, 36, 116
1, 286084, Note_on_c, 9, 42, 0
1, 286199, Note_on_c, 9, 36, 0
1, 286200, Note_on_c, 9, 42, 97
1, 286200, Note_on_c, 9, 36, 84
1, 286204, Note_on_c, 9, 42, 0
1, 286320, Note_on_c, 9, 42, 75
1, 286324, Note_on_c, 9, 42, 0
1, 286440, Note_on_c, 9, 42, 67
1, 286444, Note_on_c, 9, 42, 0
1, 286559, Note_on_c, 9, 36, 0
1, 286560, Note_on_c, 9, 40, 123
1, 286560, Note_on_c, 9, 42, 100
1, 286564, Note_on_c, 9, 42, 0
1, 286679, Note_on_c, 9, 40, 0
1, 286680, Note_on_c, 9, 40, 57
1, 286680, Note_on_c, 9, 42, 82
1, 286684, Note_on_c, 9, 42, 0
1, 286799, Note_on_c, 9, 40, 0
1, 286800, Note_on_c, 9, 42, 54
1, 286804, Note_on_c, 9, 42, 0
1, 286920, Note_on_c, 9, 42, 74
1, 286924, Note_on_c, 9, 42, 0
1, 287040, Note_on_c, 9, 42, 86
1, 287040, Note_on_c, 9, 36, 107
1, 287044, Note_on_c, 9, 42, 0
1, 287160, Note_on_c, 9, 42, 57
1, 287164, Note_on_c, 9, 42, 0
1, 287280, Note_on_c, 9, 42, 63
1, 287284, Note_on_c, 9, 42, 0
1, 287400, Note_on_c, 9, 42, 79
1, 287404, Note_on_c, 9, 42, 0
1, 287519, Note_on_c, 9, 36, 0
1, 287520, Note_on_c, 9, 40, 127
1, 287520, Note_on_c, 9, 42, 86
1, 287524, Note_on_c, 9, 42, 0
1, 287639, Note_on_c, 9, 40, 0
1, 287640, Note_on_c, 9, 40, 64
1, 287759, Note_on_c, 9, 40, 0
1, 287760, Note_on_c, 9, 42, 72
1, 287764, Note_on_c, 9, 42, 0
1, 287880, Note_on_c, 9, 42, 84
1, 287884, Note_on_c, 9, 42, 0
1, 288000, Note_on_c, 9, 42, 86
1, 288000, Note_on_c, 9, 36, 113
1, 288004, Note_on_c, 9, 42, 0
1, 288120, Note_on_c, 9, 42, 90
1, 288124, Note_on_c, 9, 42, 0
1, 288240, Note_on_c, 9, 42, 77
1, 288244, Note_on_c, 9, 42, 0
1, 288360, Note_on_c, 9, 42, 78
1, 288364, Note_on_c, 9, 42, 0
1, 288479, Note_on_c, 9, 36, 0
1, 288480, Note_on_c, 9, 40, 127
1, 288480, Note_on_c, 9, 42, 97
1, 288484, Note_on_c, 9, 42, 0
1, 288599, Note_on_c, 9, 40, 0
1, 288600, Note_on_c, 9, 40, 67
1, 288600, Note_on_c, 9, 42, 86
1, 288604, Note_on_c, 9, 42, 0
1, 288719, Note_on_c, 9, 40, 0
1, 288720, Note_on_c, 9, 42, 75
1, 288724, Note_on_c, 9, 42, 0
1, 288840, Note_on_c, 9, 42, 69
1, 288844, Note_on_c, 9, 42, 0
1, 288960, Note_on_c, 9, 42, 84
1, 288960, Note_on_c, 9, 36, 100
1, 288964, Note_on_c, 9, 42, 0
1, 289080, Note_on_c, 9, 42, 84
1, 289084, Note_on_c, 9, 42, 0
1, 289200, Note_on_c, 9, 42, 79
1, 289204, Note_on_c, 9, 42, 0
1, 289320, Note_on_c, 9, 42, 81
1, 289324, Note_on_c, 9, 42, 0
1, 289439, Note_on_c, 9, 36, 0
1, 289440, Note_on_c, 9, 40, 127
1, 289440, Note_on_c, 9, 42, 82
1, 289444, Note_on_c, 9, 42, 0
1, 289559, Note_on_c, 9, 40, 0
1, 289560, Note_on_c, 9, 40, 64
1, 289560, Note_on_c, 9, 42, 100
1, 289564, Note_on_c, 9, 42, 0
1, 289679, Note_on_c, 9, 40, 0
1, 289680, Note_on_c, 9, 46, 110
1, 289689, Note_on_c, 9, 46, 0
1, 289920, Note_on_c, 9, 42, 110
1, 289920, Note_on_c, 9, 36, 107
1, 289924, Note_on_c, 9, 42, 0
1, 290039, Note_on_c, 9, 36, 0
1, 290040, Note_on_c, 9, 42, 69
1, 290040, Note_on_c, 9, 36, 78
1, 290044, Note_on_c, 9, 42, 0
1, 290160, Note_on_c, 9, 42, 82
1, 290164, Note_on_c, 9, 42, 0
1, 290280, Note_on_c, 9, 42, 84
1, 290284, Note_on_c, 9, 42, 0
1, 290399, Note_on_c, 9, 36, 0
1, 290400, Note_on_c, 9, 40, 122
1, 290400, Note_on_c, 9, 42, 100
1, 290404, Note_on_c, 9, 42, 0
1, 290519, Note_on_c, 9, 40, 0
1, 290520, Note_on_c, 9, 40, 56
1, 290520, Note_on_c, 9, 42, 72
1, 290524, Note_on_c, 9, 42, 0
1, 290639, Note_on_c, 9, 40, 0
1, 290640, Note_on_c, 9, 42, 82
1, 290644, Note_on_c, 9, 42, 0
1, 290760, Note_on_c, 9, 42, 75
1, 290764, Note_on_c, 9, 42, 0
1, 290880, Note_on_c, 9, 42, 82
1, 290880, Note_on_c, 9, 36, 104
1, 290884, Note_on_c, 9, 42, 0
1, 291000, Note_on_c, 9, 42, 77
1, 291004, Note_on_c, 9, 42, 0
1, 291120, Note_on_c, 9, 42, 75
1, 291124, Note_on_c, 9, 42, 0
1, 291240, Note_on_c, 9, 42, 77
1, 291244, Note_on_c, 9, 42, 0
1, 291359, Note_on_c, 9, 36, 0
1, 291360, Note_on_c, 9, 40, 127
1, 291360, Note_on_c, 9, 42, 86
1, 291364, Note_on_c, 9, 42, 0
1, 291479, Note_on_c, 9, 40, 0
1, 291480, Note_on_c, 9, 40, 61
1, 291480, Note_on_c, 9, 42, 86
1, 291484, Note_on_c, 9, 42, 0
1, 291599, Note_on_c, 9, 40, 0
1, 291600, Note_on_c, 9, 42, 59
1, 291604, Note_on_c, 9, 42, 0
1, 291720, Note_on_c, 9, 42, 72
1, 291724, Note_on_c, 9, 42, 0
1, 291840, Note_on_c, 9, 42, 90
1, 291840, Note_on_c, 9, 36, 104
1, 291844, Note_on_c, 9, 42, 0
1, 291960, Note_on_c, 9, 42, 77
1, 291964, Note_on_c, 9, 42, 0
1, 292080, Note_on_c, 9, 42, 81
1, 292084, Note_on_c, 9, 42, 0
1, 292200, Note_on_c, 9, 42, 82
1, 292204, Note_on_c, 9, 42, 0
1, 292319, Note_on_c, 9, 36, 0
1, 292320, Note_on_c, 9, 40, 119
1, 292320, Note_on_c, 9, 42, 86
1, 292324, Note_on_c, 9, 42, 0
1, 292439, Note_on_c, 9, 40, 0
1, 292440, Note_on_c, 9, 40, 53
1, 292440, Note_on_c, 9, 42, 74
1, 292444, Note_on_c, 9, 42, 0
1, 292559, Note_on_c, 9, 40, 0
1, 292560, Note_on_c, 9, 42, 75
1, 292564, Note_on_c, 9, 42, 0
1, 292680, Note_on_c, 9, 42, 67
1, 292684, Note_on_c, 9, 42, 0
1, 292800, Note_on_c, 9, 42, 70
1, 292800, Note_on_c, 9, 36, 100
1, 292804, Note_on_c, 9, 42, 0
1, 292920, Note_on_c, 9, 42, 70
1, 292924, Note_on_c, 9, 42, 0
1, 293040, Note_on_c, 9, 42, 78
1, 293044, Note_on_c, 9, 42, 0
1, 293160, Note_on_c, 9, 42, 67
1, 293164, Note_on_c, 9, 42, 0
1, 293279, Note_on_c, 9, 36, 0
1, 293280, Note_on_c, 9, 40, 122
1, 293280, Note_on_c, 9, 42, 90
1, 293284, Note_on_c, 9, 42, 0
1, 293399, Note_on_c, 9, 40, 0
1, 293400, Note_on_c, 9, 40, 56
1, 293400, Note_on_c, 9, 42, 100
1, 293404, Note_on_c, 9, 42, 0
1, 293519, Note_on_c, 9, 40, 0
1, 293520, Note_on_c, 9, 46, 105
1, 293529, Note_on_c, 9, 46, 0
1, 293760, Note_on_c, 9, 42, 120
1, 293760, Note_on_c, 9, 36, 116
1, 293764, Note_on_c, 9, 42, 0
1, 293879, Note_on_c, 9, 36, 0
1, 293880, Note_on_c, 9, 42, 97
1, 293880, Note_on_c, 9, 36, 84
1, 293884, Note_on_c, 9, 42, 0
1, 294000, Note_on_c, 9, 42, 75
1, 294004, Note_on_c, 9, 42, 0
1, 294120, Note_on_c, 9, 42, 67
1, 294124, Note_on_c, 9, 42, 0
1, 294239, Note_on_c, 9, 36, 0
1, 294240, Note_on_c, 9, 40, 123
1, 294240, Note_on_c, 9, 42, 100
1, 294244, Note_on_c, 9, 42, 0
1, 294359, Note_on_c, 9, 40, 0
1, 294360, Note_on_c, 9, 40, 57
1, 294360, Note_on_c, 9, 42, 82
1, 294364, Note_on_c, 9, 42, 0
1, 294479, Note_on_c, 9, 40, 0
1, 294480, Note_on_c, 9, 42, 54
1, 294484, Note_on_c, 9, 42, 0
1, 294600, Note_on_c, 9, 42, 74
1, 294604, Note_on_c, 9, 42, 0
1, 294720, Note_on_c, 9, 42, 86
1, 294720, Note_on_c, 9, 36, 107
1, 294724, Note_on_c, 9, 42, 0
1, 294840, Note_on_c, 9, 42, 57
1, 294844, Note_on_c, 9, 42, 0
1, 294960, Note_on_c, 9, 42, 63
1, 294964, Note_on_c, 9, 42, 0
1, 295080, Note_on_c, 9, 42, 79
1, 295084, Note_on_c, 9, 42, 0
1, 295199, Note_on_c, 9, 36, 0
1, 295200, Note_on_c, 9, 40, 127
1, 295200, Note_on_c, 9, 42, 86
1, 295204, Note_on_c, 9, 42, 0
1, 295319, Note_on_c, 9, 40, 0
1, 295320, Note_on_c, 9, 40, 64
1, 295439, Note_on_c, 9, 40, 0
1, 295440, Note_on_c, 9, 42, 72
1, 295444, Note_on_c, 9, 42, 0
1, 295560, Note_on_c, 9, 42, 84
1, 295564, Note_on_c, 9, 42, 0
1, 295680, Note_on_c, 9, 42, 86
1, 295680, Note_on_c, 9, 36, 113
1, 295684, Note_on_c, 9, 42, 0
1, 295800, Note_on_c, 9, 42, 90
1, 295804, Note_on_c, 9, 42, 0
1, 295920, Note_on_c, 9, 42, 77
1, 295924, Note_on_c, 9, 42, 0
1, 296040, Note_on_c, 9, 42, 78
1, 296044, Note_on_c, 9, 42, 0
1, 296159, Note_on_c, 9, 36, 0
1, 296160, Note_on_c, 9, 40, 127
1, 296160, Note_on_c, 9, 42, 97
1, 296164, Note_on_c, 9, 42, 0
1, 296279, Note_on_c, 9, 40, 0
1, 296280, Note_on_c, 9, 40, 67
1, 296280, Note_on_c, 9, 42, 86
1, 296284, Note_on_c, 9, 42, 0
1, 296399, Note_on_c, 9, 40, 0
1, 296400, Note_on_c, 9, 42, 75
1, 296404, Note_on_c, 9, 42, 0
1, 296520, Note_on_c, 9, 42, 69
1, 296524, Note_on_c, 9, 42, 0
1, 296640, Note_on_c, 9, 42, 84
1, 296640, Note_on_c, 9, 36, 100
1, 296644, Note_on_c, 9, 42, 0
1, 296760, Note_on_c, 9, 42, 84
1, 296764, Note_on_c, 9, 42, 0
1, 296880, Note_on_c, 9, 42, 79
1, 296884, Note_on_c, 9, 42, 0
1, 297000, Note_on_c, 9, 42, 81
1, 297004, Note_on_c, 9, 42, 0
1, 297119, Note_on_c, 9, 36, 0
1, 297120, Note_on_c, 9, 40, 127
1, 297120, Note_on_c, 9, 42, 82
1, 297124, Note_on_c, 9, 42, 0
1, 297239, Note_on_c, 9, 40, 0
1, 297240, Note_on_c, 9, 40, 64
1, 297240, Note_on_c, 9, 42, 100
1, 297244, Note_on_c, 9, 42, 0
1, 297359, Note_on_c, 9, 40, 0
1, 297360, Note_on_c, 9, 46, 110
1, 297369, Note_on_c, 9, 46, 0
1, 297600, Note_on_c, 9, 42, 110
1, 297600, Note_on_c, 9, 36, 107
1, 297604, Note_on_c, 9, 42, 0
1, 297719, Note_on_c, 9, 36, 0
1, 297720, Note_on_c, 9, 42, 69
1, 297720, Note_on_c, 9, 36, 78
1, 297724, Note_on_c, 9, 42, 0
1, 297840, Note_on_c, 9, 42, 82
1, 297844, Note_on_c, 9, 42, 0
1, 297960, Note_on_c, 9, 42, 84
1, 297964, Note_on_c, 9, 42, 0
1, 298079, Note_on_c, 9, 36, 0
1, 298080, Note_on_c, 9, 40, 122
1, 298080, Note_on_c, 9, 42, 100
1, 298084, Note_on_c, 9, 42, 0
1, 298199, Note_on_c, 9, 40, 0
1, 298200, Note_on_c, 9, 40, 56
1, 298200, Note_on_c, 9, 42, 72
1, 298204, Note_on_c, 9, 42, 0
1, 298319, Note_on_c, 9, 40, 0
1, 298320, Note_on_c, 9, 42, 82
1, 298324, Note_on_c, 9, 42, 0
1, 298440, Note_on_c, 9, 42, 75
1, 298444, Note_on_c, 9, 42, 0
1, 298560, Note_on_c, 9, 42, 82
1, 298560, Note_on_c, 9, 36, 104
1, 298564, Note_on_c, 9, 42, 0
1, 298680, Note_on_c, 9, 42, 77
1, 298684, Note_on_c, 9, 42, 0
1, 298800, Note_on_c, 9, 42, 75
1, 298804, Note_on_c, 9, 42, 0
1, 298920, Note_on_c, 9, 42, 77
1, 298924, Note_on_c, 9, 42, 0
1, 299039, Note_on_c, 9, 36, 0
1, 299040, Note_on_c, 9, 40, 127
1, 299040, Note_on_c, 9, 42, 86
1, 299044, Note_on_c, 9, 42, 0
1, 299159, Note_on_c, 9, 40, 0
1, 299160, Note_on_c, 9, 40, 61
1, 299160, Note_on_c, 9, 42, 86
1, 299164, Note_on_c, 9, 42, 0
1, 299279, Note_on_c, 9, 40, 0
1, 299280, Note_on_c, 9, 42, 59
1, 299284, Note_on_c, 9, 42, 0
1, 299400, Note_on_c, 9, 42, 72
1, 299404, Note_on_c, 9, 42, 0
1, 299520, Note_on_c, 9, 42, 90
1, 299520, Note_on_c, 9, 36, 104
1, 299524, Note_on_c, 9, 42, 0
1, 299640, Note_on_c, 9, 42, 77
1, 299644, Note_on_c, 9, 42, 0
1, 299760, Note_on_c, 9, 42, 81
1, 299764, Note_on_c, 9, 42, 0
1, 299880, Note_on_c, 9, 42, 82
1, 299884, Note_on_c, 9, 42, 0
1, 299999, Note_on_c, 9, 36, 0
1, 300000, Note_on_c, 9, 40, 119
1, 300000, Note_on_c, 9, 42, 86
1, 300004, Note_on_c, 9, 42, 0
1, 300119, Note_on_c, 9, 40, 0
1, 300120, Note_on_c, 9, 40, 53
1, 300120, Note_on_c, 9, 42, 74
1, 300124, Note_on_c, 9, 42, 0
1, 300239, Note_on_c, 9, 40, 0
1, 300240, Note_on_c, 9, 42, 75
1, 300244, Note_on_c, 9, 42, 0
1, 300360, Note_on_c, 9, 42, 67
1, 300364, Note_on_c, 9, 42, 0
1, 300480, Note_on_c, 9, 42, 70
1, 300480, Note_on_c, 9, 36, 100
1, 300484, Note_on_c, 9, 42, 0
1, 300600, Note_on_c, 9, 42, 70
1, 300604, Note_on_c, 9, 42, 0
1, 300720, Note_on_c, 9, 42, 78
1, 300724, Note_on_c, 9, 42, 0
1, 300840, Note_on_c, 9, 42, 67
1, 300844, Note_on_c, 9, 42, 0
1, 300959, Note_on_c, 9, 36, 0
1, 300960, Note_on_c, 9, 40, 122
1, 300960, Note_on_c, 9, 42, 90
1, 300964, Note_on_c, 9, 42, 0
1, 301079, Note_on_c, 9, 40, 0
1, 301080, Note_on_c, 9, 40, 56
1, 301080, Note_on_c, 9, 42, 100
1, 301084, Note_on_c, 9, 42, 0
1, 301199, Note_on_c, 9, 40, 0
1, 301200, Note_on_c, 9, 46, 105
1, 301209, Note_on_c, 9, 46, 0
1, 301440, Note_on_c, 9, 42, 120
1, 301440, Note_on_c, 9, 36, 116
1, 301444, Note_on_c, 9, 42, 0
1, 301559, Note_on_c, 9, 36, 0
1, 301560, Note_on_c, 9, 42, 97
1, 301560, Note_on_c, 9, 36, 84
1, 301564, Note_on_c, 9, 42, 0
1, 301680, Note_on_c, 9, 42, 75
1, 301684, Note_on_c, 9, 42, 0
1, 301800, Note_on_c, 9, 42, 67
1, 301804, Note_on_c, 9, 42, 0
1, 301919, Note_on_c, 9, 36, 0
1, 301920, Note_on_c, 9, 40, 123
1, 301920, Note_on_c, 9, 42, 100
1, 301924, Note_on_c, 9, 42, 0
1, 302039, Note_on_c, 9, 40, 0
1, 302040, Note_on_c, 9, 40, 57
1, 302040, Note_on_c, 9, 42, 82
1, 302044, Note_on_c, 9, 42, 0
1, 302159, Note_on_c, 9, 40, 0
1, 302160, Note_on_c, 9, 42, 54
1, 302164, Note_on_c, 9, 42, 0
1, 302280, Note_on_c, 9, 42, 74
1, 302284, Note_on_c, 9, 42, 0
1, 302400, Note_on_c, 9, 42, 86
1, 302400, Note_on_c, 9, 36, 107
1, 302404, Note_on_c, 9, 42, 0
1, 302520, Note_on_c, 9, 42, 57
1, 302524, Note_on_c, 9, 42, 0
1, 302640, Note_on_c, 9, 42, 63
1, 302644, Note_on_c, 9, 42, 0
1, 302760, Note_on_c, 9, 42, 79
1, 302764, Note_on_c, 9, 42, 0
1, 302879, Note_on_c, 9, 36, 0
1, 302880, Note_on_c, 9, 40, 127
1, 302880, Note_on_c, 9, 42, 86
1, 302884, Note_on_c, 9, 42, 0
1, 302999, Note_on_c, 9, 40, 0
1, 303000, Note_on_c, 9, 40, 64
1, 303119, Note_on_c, 9, 40, 0
1, 303120, Note_on_c, 9, 42, 72
1, 303124, Note_on_c, 9, 42, 0
1, 303240, Note_on_c, 9, 42, 84
1, 303244, Note_on_c, 9, 42, 0
1, 303360, Note_on_c, 9, 42, 86
1, 303360, Note_on_c, 9, 36, 113
1, 303364, Note_on_c, 9, 42, 0
1, 303480, Note_on_c, 9, 42, 90
1, 303484, Note_on_c, 9, 42, 0
1, 303600, Note_on_c, 9, 42, 77
1, 303604, Note_on_c, 9, 42, 0
1, 303720, Note_on_c, 9, 42, 78
1, 303724, Note_on_c, 9, 42, 0
1, 303839, Note_on_c, 9, 36, 0
1, 303840, Note_on_c, 9, 40, 127
1, 303840, Note_on_c, 9, 42, 97
1, 303844, Note_on_c, 9, 42, 0
1, 303959, Note_on_c, 9, 40, 0
1, 303960, Note_on_c, 9, 40, 67
1, 303960, Note_on_c, 9, 42, 86
1, 303964, Note_on_c, 9, 42, 0
1, 304079, Note_on_c, 9, 40, 0
1, 304080, Note_on_c, 9, 42, 75
1, 304084, Note_on_c, 9, 42, 0
1, 304200, Note_on_c, 9, 42, 69
1, 304204, Note_on_c, 9, 42, 0
1, 304320, Note_on_c, 9, 42, 84
1, 304320, Note_on_c, 9, 36, 100
1, 304324, Note_on_c, 9, 42, 0
1, 304440, Note_on_c, 9, 42, 84
1, 304444, Note_on_c, 9, 42, 0
1, 304560, Note_on_c, 9, 42, 79
1, 304564, Note_on_c, 9, 42, 0
1, 304680, Note_on_c, 9, 42, 81
1, 304684, Note_on_c, 9, 42, 0
1, 304799, Note_on_c, 9, 36, 0
1, 304800, Note_on_c, 9, 40, 127
1, 304800, Note_on_c, 9, 42, 82
1, 304804, Note_on_c, 9, 42, 0
1, 304919, Note_on_c, 9, 40, 0
1, 304920, Note_on_c, 9, 40, 64
1, 304920, Note_on_c, 9, 42, 100
1, 304924, Note_on_c, 9, 42, 0
1, 305039, Note_on_c, 9, 40, 0
1, 305040, Note_on_c, 9, 46, 110
1, 305049, Note_on_c, 9, 46, 0
1, 305280, Note_on_c, 9, 42, 110
1, 305280, Note_on_c, 9, 36, 107
1, 305284, Note_on_c, 9, 42, 0
1, 305399, Note_on_c, 9, 36, 0
1, 305400, Note_on_c, 9, 42, 69
1, 305400, Note_on_c, 9, 36, 78
1, 305404, Note_on_c, 9, 42, 0
1, 305520, Note_on_c, 9, 42, 82
1, 305524, Note_on_c, 9, 42, 0
1, 305640, Note_on_c, 9, 42, 84
1, 305644, Note_on_c, 9, 42, 0
1, 305759, Note_on_c, 9, 36, 0
1, 305760, Note_on_c, 9, 40, 122
1, 305760, Note_on_c, 9, 42, 100
1, 305764, Note_on_c, 9, 42, 0
1, 305879, Note_on_c, 9, 40, 0
1, 305880, Note_on_c, 9, 40, 56
1, 305880, Note_on_c, 9, 42, 72
1, 305884, Note_on_c, 9, 42, 0
1, 305999, Note_on_c, 9, 40, 0
1, 306000, Note_on_c, 9, 42, 82
1, 306004, Note_on_c, 9, 42, 0
1, 306120, Note_on_c, 9, 42, 75
1, 306124, Note_on_c, 9, 42, 0
1, 306240, Note_on_c, 9, 42, 82
1, 306240, Note_on_c, 9, 36, 104
1, 306244, Note_on_c, 9, 42, 0
1, 306360, Note_on_c, 9, 42, 77
1, 306364, Note_on_c, 9, 42, 0
1, 306480, Note_on_c, 9, 42, 75
1, 306484, Note_on_c, 9, 42, 0
1, 306600, Note_on_c, 9, 42, 77
1, 306604, Note_on_c, 9, 42, 0
1, 306719, Note_on_c, 9, 36, 0
1, 306720, Note_on_c, 9, 40, 127
1, 306720, Note_on_c, 9, 42, 86
1, 306724, Note_on_c, 9, 42, 0
1, 306839, Note_on_c, 9, 40, 0
1, 306840, Note_on_c, 9, 40, 61
1, 306840, Note_on_c, 9, 42, 86
1, 306844, Note_on_c, 9, 42, 0
1, 306959, Note_on_c, 9, 40, 0
1, 306960, Note_on_c, 9, 42, 59
1, 306964, Note_on_c, 9, 42, 0
1, 307080, Note_on_c, 9, 42, 72
1, 307084, Note_on_c, 9, 42, 0
1, 307200, Note_on_c, 9, 42, 90
1, 307200, Note_on_c, 9, 36, 104
1, 307204, Note_on_c, 9, 42, 0
1, 307320, Note_on_c, 9, 42, 77
1, 307324, Note_on_c, 9, 42, 0
1, 307440, Note_on_c, 9, 42, 81
1, 307444, Note_on_c, 9, 42, 0
1, 307560, Note_on_c, 9, 42, 82
1, 307564, Note_on_c, 9, 42, 0
1, 307679, Note_on_c, 9, 36, 0
1, 307680, Note_on_c, 9, 40, 119
1, 307680, Note_on_c, 9, 42, 86
1, 307684, Note_on_c, 9, 42, 0
1, 307799, Note_on_c, 9, 40, 0
1, 307800, Note_on_c, 9, 40, 53
1, 307800, Note_on_c, 9, 42, 74
1, 307804, Note_on_c, 9, 42, 0
1, 307919, Note_on_c, 9, 40, 0
1, 307920, Note_on_c, 9, 42, 75
1, 307924, Note_on_c, 9, 42, 0
1, 308040, Note_on_c, 9, 42, 67
1, 308044, Note_on_c, 9, 42, 0
1, 308160, Note_on_c, 9, 42, 70
1, 308160, Note_on_c, 9, 36, 100
1, 308164, Note_on_c, 9, 42, 0
1, 308280, Note_on_c, 9, 42, 70
1, 308284, Note_on_c, 9, 42, 0
1, 308400, Note_on_c, 9, 42, 78
1, 308404, Note_on_c, 9, 42, 0
1, 308520, Note_on_c, 9, 42, 67
1, 308524, Note_on_c, 9, 42, 0
1, 308639, Note_on_c, 9, 36, 0
1, 308640, Note_on_c, 9, 40, 122
1, 308640, Note_on_c, 9, 42, 90
1, 308644, Note_on_c, 9, 42, 0
1, 308759, Note_on_c, 9, 40, 0
1, 308760, Note_on_c, 9, 40, 56
1, 308760, Note_on_c, 9, 42, 100
1, 308764, Note_on_c, 9, 42, 0
1, 308879, Note_on_c, 9, 40, 0
1, 308880, Note_on_c, 9, 46, 105
1, 308889, Note_on_c, 9, 46, 0
1, 309120, Note_on_c, 9, 42, 120
1, 309120, Note_on_c, 9, 36, 116
1, 309124, Note_on_c, 9, 42, 0
1, 309239, Note_on_c, 9, 36, 0
1, 309240, Note_on_c, 9, 42, 97
1, 309240, Note_on_c, 9, 36, 84
1, 309244, Note_on_c, 9, 42, 0
1, 309360, Note_on_c, 9, 42, 75
1, 309364, Note_on_c, 9, 42, 0
1, 309480, Note_on_c, 9, 42, 67
1, 309484, Note_on_c, 9, 42, 0
1, 309599, Note_on_c, 9, 36, 0
1, 309600, Note_on_c, 9, 40, 123
1, 309600, Note_on_c, 9, 42, 100
1, 309604, Note_on_c, 9, 42, 0
1, 309719, Note_on_c, 9, 40, 0
1, 309720, Note_on_c, 9, 40, 57
1, 309720, Note_on_c, 9, 42, 82
1, 309724, Note_on_c, 9, 42, 0
1, 309839, Note_on_c, 9, 40, 0
1, 309840, Note_on_c, 9, 42, 54
1, 309844, Note_on_c, 9, 42, 0
1, 309960, Note_on_c, 9, 42, 74
1, 309964, Note_on_c, 9, 42, 0
1, 310080, Note_on_c, 9, 42, 86
1, 310080, Note_on_c, 9, 36, 107
1, 310084, Note_on_c, 9, 42, 0
1, 310200, Note_on_c, 9, 42, 57
1, 310204, Note_on_c, 9, 42, 0
1, 310320, Note_on_c, 9, 42, 63
1, 310324, Note_on_c, 9, 42, 0
1, 310440, Note_on_c, 9, 42, 79
1, 310444, Note_on_c, 9, 42, 0
1, 310559, Note_on_c, 9, 36, 0
1, 310560, Note_on_c, 9, 40, 127
1, 310560, Note_on_c, 9, 42, 86
1, 310564, Note_on_c, 9, 42, 0
1, 310679, Note_on_c, 9, 40, 0
1, 310680, Note_on_c, 9, 40, 64
1, 310799, Note_on_c, 9, 40, 0
1, 310800, Note_on_c, 9, 42, 72
1, 310804, Note_on_c, 9, 42, 0
1, 310920, Note_on_c, 9, 42, 84
1, 310924, Note_on_c, 9, 42, 0
1, 310925, End_track
0, 0, End_of_file
