0, 0, Header, 1, 1, 480
1, 0, Start_track
1, 0, Title_t, "Drumset"
1, 0, Time_signature, 4, 2, 24, 8
1, 0, Key_signature, 0, "major"
1, 0, Tempo, 645161
1, 0, Control_c, 9, 121, 0
1, 0, Program_c, 9, 0
1, 0, Control_c, 9, 7, 100
1, 0, Control_c, 9, 10, 64
1, 0, Control_c, 9, 91, 0
1, 0, Control_c, 9, 93, 0
1, 0, MIDI_port, 1
1, 0, Note_on_c, 9, 41, 95
1, 0, Note_on_c, 9, 36, 95
1, 239, Note_on_c, 9, 41, 0
1, 240, Note_on_c, 9, 41, 95
1, 359, Note_on_c, 9, 41, 0
1, 360, Note_on_c, 9, 45, 95
1, 479, Note_on_c, 9, 36, 0
1, 479, Note_on_c, 9, 45, 0
1, 480, Note_on_c, 9, 45, 95
1, 599, Note_on_c, 9, 45, 0
1, 600, Note_on_c, 9, 41, 95
1, 719, Note_on_c, 9, 41, 0
1, 720, Note_on_c, 9, 47, 95
1, 839, Note_on_c, 9, 47, 0
1, 840, Note_on_c, 9, 47, 95
1, 959, Note_on_c, 9, 47, 0
1, 960, Note_on_c, 9, 41, 95
1, 1079, Note_on_c, 9, 41, 0
1, 1080, Note_on_c, 9, 45, 95
1, 1080, Note_on_c, 9, 36, 95
1, 1199, Note_on_c, 9, 45, 0
1, 1200, Note_on_c, 9, 41, 95
1, 1319, Note_on_c, 9, 36, 0
1, 1320, Note_on_c, 9, 36, 95
1, 1439, Note_on_c, 9, 41, 0
1, 1439, Note_on_c, 9, 36, 0
1, 1440, Note_on_c, 9, 38, 95
1, 1679, Note_on_c, 9, 38, 0
1, 1680, Note_on_c, 9, 45, 50
1, 1919, Note_on_c, 9, 45, 0
1, 1920, Note_on_c, 9, 41, 95
1, 1920, Note_on_c, 9, 36, 95
1, 2159, Note_on_c, 9, 41, 0
1, 2160, Note_on_c, 9, 41, 95
1, 2279, Note_on_c, 9, 41, 0
1, 2280, Note_on_c, 9, 45, 95
1, 2399, Note_on_c, 9, 36, 0
1, 2399, Note_on_c, 9, 45, 0
1, 2400, Note_on_c, 9, 45, 95
1, 2519, Note_on_c, 9, 45, 0
1, 2520, Note_on_c, 9, 41, 95
1, 2639, Note_on_c, 9, 41, 0
1, 2640, Note_on_c, 9, 47, 95
1, 2759, Note_on_c, 9, 47, 0
1, 2760, Note_on_c, 9, 47, 95
1, 2879, Note_on_c, 9, 47, 0
1, 2880, Note_on_c, 9, 41, 95
1, 2999, Note_on_c, 9, 41, 0
1, 3000, Note_on_c, 9, 45, 95
1, 3000, Note_on_c, 9, 36, 95
1, 3119, Note_on_c, 9, 45, 0
1, 3120, Note_on_c, 9, 41, 95
1, 3239, Note_on_c, 9, 36, 0
1, 3240, Note_on_c, 9, 36, 95
1, 3359, Note_on_c, 9, 41, 0
1, 3359, Note_on_c, 9, 36, 0
1, 3360, Note_on_c, 9, 38, 95
1, 3839, Note_on_c, 9, 38, 0
1, 3840, Note_on_c, 9, 41, 95
1, 3840, Note_on_c, 9, 36, 95
1, 4079, Note_on_c, 9, 41, 0
1, 4080, Note_on_c, 9, 41, 95
1, 4199, Note_on_c, 9, 41, 0
1, 4200, Note_on_c, 9, 45, 95
1, 4319, Note_on_c, 9, 36, 0
1, 4319, Note_on_c, 9, 45, 0
1, 4320, Note_on_c, 9, 45, 95
1, 4439, Note_on_c, 9, 45, 0
1, 4440, Note_on_c, 9, 41, 95
1, 4559, Note_on_c, 9, 41, 0
1, 4560, Note_on_c, 9, 47, 95
1, 4679, Note_on_c, 9, 47, 0
1, 4680, Note_on_c, 9, 47, 95
1, 4799, Note_on_c, 9, 47, 0
1, 4800, Note_on_c, 9, 41, 95
1, 4919, Note_on_c, 9, 41, 0
1, 4920, Note_on_c, 9, 45, 95
1, 4920, Note_on_c, 9, 36, 95
1, 5039, Note_on_c, 9, 45, 0
1, 5040, Note_on_c, 9, 41, 95
1, 5159, Note_on_c, 9, 36, 0
1, 5160, Note_on_c, 9, 36, 95
1, 5279, Note_on_c, 9, 41, 0
1, 5279, Note_on_c, 9, 36, 0
1, 5280, Note_on_c, 9, 38, 95
1, 5399, Note_on_c, 9, 38, 0
1, 5400, Note_on_c, 9, 37, 95
1, 5407, Note_on_c, 9, 37, 0
1, 5640, Note_on_c, 9, 37, 95
1, 5643, Note_on_c, 9, 37, 0
1, 5760, Note_on_c, 9, 41, 95
1, 5760, Note_on_c, 9, 36, 95
1, 5999, Note_on_c, 9, 41, 0
1, 6000, Note_on_c, 9, 41, 95
1, 6119, Note_on_c, 9, 41, 0
1, 6120, Note_on_c, 9, 45, 95
1, 6239, Note_on_c, 9, 36, 0
1, 6239, Note_on_c, 9, 45, 0
1, 6240, Note_on_c, 9, 45, 95
1, 6359, Note_on_c, 9, 45, 0
1, 6360, Note_on_c, 9, 41, 95
1, 6479, Note_on_c, 9, 41, 0
1, 6480, Note_on_c, 9, 47, 95
1, 6599, Note_on_c, 9, 47, 0
1, 6600, Note_on_c, 9, 47, 95
1, 6719, Note_on_c, 9, 47, 0
1, 6720, Note_on_c, 9, 41, 95
1, 6839, Note_on_c, 9, 41, 0
1, 6840, Note_on_c, 9, 45, 95
1, 6840, Note_on_c, 9, 36, 95
1, 6959, Note_on_c, 9, 45, 0
1, 6960, Note_on_c, 9, 41, 95
1, 7079, Note_on_c, 9, 36, 0
1, 7080, Note_on_c, 9, 36, 95
1, 7199, Note_on_c, 9, 41, 0
1, 7199, Note_on_c, 9, 36, 0
1, 7200, Note_on_c, 9, 38, 95
1, 7679, Note_on_c, 9, 38, 0
1, 7680, Note_on_c, 9, 41, 95
1, 7680, Note_on_c, 9, 36, 95
1, 7919, Note_on_c, 9, 41, 0
1, 7920, Note_on_c, 9, 41, 95
1, 8039, Note_on_c, 9, 41, 0
1, 8040, Note_on_c, 9, 45, 95
1, 8159, Note_on_c, 9, 36, 0
1, 8159, Note_on_c, 9, 45, 0
1, 8160, Note_on_c, 9, 45, 95
1, 8279, Note_on_c, 9, 45, 0
1, 8280, Note_on_c, 9, 41, 95
1, 8399, Note_on_c, 9, 41, 0
1, 8400, Note_on_c, 9, 47, 95
1, 8519, Note_on_c, 9, 47, 0
1, 8520, Note_on_c, 9, 47, 95
1, 8639, Note_on_c, 9, 47, 0
1, 8640, Note_on_c, 9, 41, 95
1, 8759, Note_on_c, 9, 41, 0
1, 8760, Note_on_c, 9, 45, 95
1, 8760, Note_on_c, 9, 36, 95
1, 8879, Note_on_c, 9, 45, 0
1, 8880, Note_on_c, 9, 41, 95
1, 8999, Note_on_c, 9, 36, 0
1, 9000, Note_on_c, 9, 36, 95
1, 9119, Note_on_c, 9, 41, 0
1, 9119, Note_on_c, 9, 36, 0
1, 9120, Note_on_c, 9, 38, 95
1, 9359, Note_on_c, 9, 38, 0
1, 9360, Note_on_c, 9, 45, 50
1, 9599, Note_on_c, 9, 45, 0
1, 9600, Note_on_c, 9, 41, 95
1, 9600, Note_on_c, 9, 36, 95
1, 9839, Note_on_c, 9, 41, 0
1, 9840, Note_on_c, 9, 41, 95
1, 9959, Note_on_c, 9, 41, 0
1, 9960, Note_on_c, 9, 45, 95
1, 10079, Note_on_c, 9, 36, 0
1, 10079, Note_on_c, 9, 45, 0
1, 10080, Note_on_c, 9, 45, 95
1, 10199, Note_on_c, 9, 45, 0
1, 10200, Note_on_c, 9, 41, 95
1, 10319, Note_on_c, 9, 41, 0
1, 10320, Note_on_c, 9, 47, 95
1, 10439, Note_on_c, 9, 47, 0
1, 10440, Note_on_c, 9, 47, 95
1, 10559, Note_on_c, 9, 47, 0
1, 10560, Note_on_c, 9, 41, 95
1, 10679, Note_on_c, 9, 41, 0
1, 10680, Note_on_c, 9, 45, 95
1, 10680, Note_on_c, 9, 36, 95
1, 10799, Note_on_c, 9, 45, 0
1, 10800, Note_on_c, 9, 41, 95
1, 10919, Note_on_c, 9, 36, 0
1, 10920, Note_on_c, 9, 36, 95
1, 11039, Note_on_c, 9, 41, 0
1, 11039, Note_on_c, 9, 36, 0
1, 11040, Note_on_c, 9, 38, 95
1, 11159, Note_on_c, 9, 38, 0
1, 11160, Note_on_c, 9, 37, 95
1, 11167, Note_on_c, 9, 37, 0
1, 11400, Note_on_c, 9, 37, 95
1, 11403, Note_on_c, 9, 37, 0
1, 11520, Note_on_c, 9, 41, 95
1, 11520, Note_on_c, 9, 36, 95
1, 11759, Note_on_c, 9, 41, 0
1, 11760, Note_on_c, 9, 41, 95
1, 11879, Note_on_c, 9, 41, 0
1, 11880, Note_on_c, 9, 45, 95
1, 11999, Note_on_c, 9, 36, 0
1, 11999, Note_on_c, 9, 45, 0
1, 12000, Note_on_c, 9, 45, 95
1, 12119, Note_on_c, 9, 45, 0
1, 12120, Note_on_c, 9, 41, 95
1, 12239, Note_on_c, 9, 41, 0
1, 12240, Note_on_c, 9, 47, 95
1, 12359, Note_on_c, 9, 47, 0
1, 12360, Note_on_c, 9, 47, 95
1, 12479, Note_on_c, 9, 47, 0
1, 12480, Note_on_c, 9, 41, 95
1, 12599, Note_on_c, 9, 41, 0
1, 12600, Note_on_c, 9, 45, 95
1, 12600, Note_on_c, 9, 36, 95
1, 12719, Note_on_c, 9, 45, 0
1, 12720, Note_on_c, 9, 41, 95
1, 12839, Note_on_c, 9, 36, 0
1, 12840, Note_on_c, 9, 36, 95
1, 12959, Note_on_c, 9, 41, 0
1, 12959, Note_on_c, 9, 36, 0
1, 12960, Note_on_c, 9, 38, 95
1, 13439, Note_on_c, 9, 38, 0
1, 13440, Note_on_c, 9, 41, 95
1, 13440, Note_on_c, 9, 36, 95
1, 13679, Note_on_c, 9, 41, 0
1, 13680, Note_on_c, 9, 41, 95
1, 13799, Note_on_c, 9, 41, 0
1, 13800, Note_on_c, 9, 45, 95
1, 13919, Note_on_c, 9, 36, 0
1, 13919, Note_on_c, 9, 45, 0
1, 13920, Note_on_c, 9, 45, 95
1, 14039, Note_on_c, 9, 45, 0
1, 14040, Note_on_c, 9, 41, 95
1, 14159, Note_on_c, 9, 41, 0
1, 14160, Note_on_c, 9, 47, 95
1, 14279, Note_on_c, 9, 47, 0
1, 14280, Note_on_c, 9, 47, 95
1, 14399, Note_on_c, 9, 47, 0
1, 14400, Note_on_c, 9, 41, 95
1, 14519, Note_on_c, 9, 41, 0
1, 14520, Note_on_c, 9, 45, 95
1, 14520, Note_on_c, 9, 36, 95
1, 14639, Note_on_c, 9, 45, 0
1, 14640, Note_on_c, 9, 41, 95
1, 14759, Note_on_c, 9, 36, 0
1, 14760, Note_on_c, 9, 36, 95
1, 14879, Note_on_c, 9, 41, 0
1, 14879, Note_on_c, 9, 36, 0
1, 14880, Note_on_c, 9, 38, 95
1, 14999, Note_on_c, 9, 38, 0
1, 15000, Note_on_c, 9, 37, 95
1, 15007, Note_on_c, 9, 37, 0
1, 15240, Note_on_c, 9, 37, 95
1, 15243, Note_on_c, 9, 37, 0
1, 15360, Note_on_c, 9, 41, 95
1, 15360, Note_on_c, 9, 36, 95
1, 15599, Note_on_c, 9, 41, 0
1, 15600, Note_on_c, 9, 41, 95
1, 15719, Note_on_c, 9, 41, 0
1, 15720, Note_on_c, 9, 45, 95
1, 15839, Note_on_c, 9, 36, 0
1, 15839, Note_on_c, 9, 45, 0
1, 15840, Note_on_c, 9, 45, 95
1, 15959, Note_on_c, 9, 45, 0
1, 15960, Note_on_c, 9, 41, 95
1, 16079, Note_on_c, 9, 41, 0
1, 16080, Note_on_c, 9, 47, 95
1, 16199, Note_on_c, 9, 47, 0
1, 16200, Note_on_c, 9, 47, 95
1, 16319, Note_on_c, 9, 47, 0
1, 16320, Note_on_c, 9, 41, 95
1, 16439, Note_on_c, 9, 41, 0
1, 16440, Note_on_c, 9, 45, 95
1, 16440, Note_on_c, 9, 36, 95
1, 16559, Note_on_c, 9, 45, 0
1, 16560, Note_on_c, 9, 41, 95
1, 16679, Note_on_c, 9, 36, 0
1, 16680, Note_on_c, 9, 36, 95
1, 16799, Note_on_c, 9, 41, 0
1, 16799, Note_on_c, 9, 36, 0
1, 16800, Note_on_c, 9, 38, 95
1, 17279, Note_on_c, 9, 38, 0
1, 17280, Note_on_c, 9, 41, 95
1, 17280, Note_on_c, 9, 36, 95
1, 17519, Note_on_c, 9, 41, 0
1, 17520, Note_on_c, 9, 41, 95
1, 17639, Note_on_c, 9, 41, 0
1, 17640, Note_on_c, 9, 45, 95
1, 17759, Note_on_c, 9, 36, 0
1, 17759, Note_on_c, 9, 45, 0
1, 17760, Note_on_c, 9, 45, 95
1, 17879, Note_on_c, 9, 45, 0
1, 17880, Note_on_c, 9, 41, 95
1, 17999, Note_on_c, 9, 41, 0
1, 18000, Note_on_c, 9, 47, 95
1, 18119, Note_on_c, 9, 47, 0
1, 18120, Note_on_c, 9, 47, 95
1, 18239, Note_on_c, 9, 47, 0
1, 18240, Note_on_c, 9, 41, 95
1, 18359, Note_on_c, 9, 41, 0
1, 18360, Note_on_c, 9, 45, 95
1, 18360, Note_on_c, 9, 36, 95
1, 18479, Note_on_c, 9, 45, 0
1, 18480, Note_on_c, 9, 41, 95
1, 18599, Note_on_c, 9, 36, 0
1, 18600, Note_on_c, 9, 36, 95
1, 18719, Note_on_c, 9, 41, 0
1, 18719, Note_on_c, 9, 36, 0
1, 18720, Note_on_c, 9, 38, 95
1, 19199, Note_on_c, 9, 38, 0
1, 19200, Note_on_c, 9, 41, 95
1, 19200, Note_on_c, 9, 36, 95
1, 19439, Note_on_c, 9, 41, 0
1, 19440, Note_on_c, 9, 41, 95
1, 19559, Note_on_c, 9, 41, 0
1, 19560, Note_on_c, 9, 45, 95
1, 19679, Note_on_c, 9, 36, 0
1, 19679, Note_on_c, 9, 45, 0
1, 19680, Note_on_c, 9, 45, 95
1, 19799, Note_on_c, 9, 45, 0
1, 19800, Note_on_c, 9, 41, 95
1, 19919, Note_on_c, 9, 41, 0
1, 19920, Note_on_c, 9, 47, 95
1, 20039, Note_on_c, 9, 47, 0
1, 20040, Note_on_c, 9, 47, 95
1, 20159, Note_on_c, 9, 47, 0
1, 20160, Note_on_c, 9, 41, 95
1, 20279, Note_on_c, 9, 41, 0
1, 20280, Note_on_c, 9, 45, 95
1, 20280, Note_on_c, 9, 36, 95
1, 20399, Note_on_c, 9, 45, 0
1, 20400, Note_on_c, 9, 41, 95
1, 20519, Note_on_c, 9, 36, 0
1, 20520, Note_on_c, 9, 36, 95
1, 20639, Note_on_c, 9, 41, 0
1, 20639, Note_on_c, 9, 36, 0
1, 20640, Note_on_c, 9, 38, 95
1, 21119, Note_on_c, 9, 38, 0
1, 21120, Note_on_c, 9, 41, 95
1, 21120, Note_on_c, 9, 36, 95
1, 21359, Note_on_c, 9, 41, 0
1, 21360, Note_on_c, 9, 41, 95
1, 21479, Note_on_c, 9, 41, 0
1, 21480, Note_on_c, 9, 45, 95
1, 21599, Note_on_c, 9, 36, 0
1, 21599, Note_on_c, 9, 45, 0
1, 21600, Note_on_c, 9, 45, 95
1, 21719, Note_on_c, 9, 45, 0
1, 21720, Note_on_c, 9, 41, 95
1, 21839, Note_on_c, 9, 41, 0
1, 21840, Note_on_c, 9, 47, 95
1, 21959, Note_on_c, 9, 47, 0
1, 21960, Note_on_c, 9, 47, 95
1, 22079, Note_on_c, 9, 47, 0
1, 22080, Note_on_c, 9, 41, 95
1, 22199, Note_on_c, 9, 41, 0
1, 22200, Note_on_c, 9, 45, 95
1, 22200, Note_on_c, 9, 36, 95
1, 22319, Note_on_c, 9, 45, 0
1, 22320, Note_on_c, 9, 41, 95
1, 22439, Note_on_c, 9, 36, 0
1, 22440, Note_on_c, 9, 36, 95
1, 22559, Note_on_c, 9, 41, 0
1, 22559, Note_on_c, 9, 36, 0
1, 22560, Note_on_c, 9, 38, 95
1, 23039, Note_on_c, 9, 38, 0
1, 23040, Note_on_c, 9, 41, 95
1, 23040, Note_on_c, 9, 36, 95
1, 23279, Note_on_c, 9, 41, 0
1, 23280, Note_on_c, 9, 41, 95
1, 23399, Note_on_c, 9, 41, 0
1, 23400, Note_on_c, 9, 45, 95
1, 23519, Note_on_c, 9, 36, 0
1, 23519, Note_on_c, 9, 45, 0
1, 23520, Note_on_c, 9, 45, 95
1, 23639, Note_on_c, 9, 45, 0
1, 23640, Note_on_c, 9, 41, 95
1, 23759, Note_on_c, 9, 41, 0
1, 23760, Note_on_c, 9, 47, 95
1, 23879, Note_on_c, 9, 47, 0
1, 23880, Note_on_c, 9, 47, 95
1, 23999, Note_on_c, 9, 47, 0
1, 24000, Note_on_c, 9, 41, 95
1, 24119, Note_on_c, 9, 41, 0
1, 24120, Note_on_c, 9, 45, 95
1, 24120, Note_on_c, 9, 36, 95
1, 24239, Note_on_c, 9, 45, 0
1, 24240, Note_on_c, 9, 41, 95
1, 24359, Note_on_c, 9, 36, 0
1, 24360, Note_on_c, 9, 36, 95
1, 24479, Note_on_c, 9, 41, 0
1, 24479, Note_on_c, 9, 36, 0
1, 24480, Note_on_c, 9, 38, 95
1, 24959, Note_on_c, 9, 38, 0
1, 24960, Note_on_c, 9, 41, 95
1, 24960, Note_on_c, 9, 36, 95
1, 25199, Note_on_c, 9, 41, 0
1, 25200, Note_on_c, 9, 41, 95
1, 25319, Note_on_c, 9, 41, 0
1, 25320, Note_on_c, 9, 45, 95
1, 25439, Note_on_c, 9, 36, 0
1, 25439, Note_on_c, 9, 45, 0
1, 25440, Note_on_c, 9, 45, 95
1, 25559, Note_on_c, 9, 45, 0
1, 25560, Note_on_c, 9, 41, 95
1, 25679, Note_on_c, 9, 41, 0
1, 25680, Note_on_c, 9, 47, 95
1, 25799, Note_on_c, 9, 47, 0
1, 25800, Note_on_c, 9, 47, 95
1, 25919, Note_on_c, 9, 47, 0
1, 25920, Note_on_c, 9, 41, 95
1, 26039, Note_on_c, 9, 41, 0
1, 26040, Note_on_c, 9, 45, 95
1, 26040, Note_on_c, 9, 36, 95
1, 26159, Note_on_c, 9, 45, 0
1, 26160, Note_on_c, 9, 41, 95
1, 26279, Note_on_c, 9, 36, 0
1, 26280, Note_on_c, 9, 36, 95
1, 26399, Note_on_c, 9, 41, 0
1, 26399, Note_on_c, 9, 36, 0
1, 26400, Note_on_c, 9, 38, 95
1, 26639, Note_on_c, 9, 38, 0
1, 26640, Note_on_c, 9, 45, 50
1, 26879, Note_on_c, 9, 45, 0
1, 26880, Note_on_c, 9, 41, 95
1, 26880, Note_on_c, 9, 36, 95
1, 27119, Note_on_c, 9, 41, 0
1, 27120, Note_on_c, 9, 41, 95
1, 27239, Note_on_c, 9, 41, 0
1, 27240, Note_on_c, 9, 45, 95
1, 27359, Note_on_c, 9, 36, 0
1, 27359, Note_on_c, 9, 45, 0
1, 27360, Note_on_c, 9, 45, 95
1, 27479, Note_on_c, 9, 45, 0
1, 27480, Note_on_c, 9, 41, 95
1, 27599, Note_on_c, 9, 41, 0
1, 27600, Note_on_c, 9, 47, 95
1, 27719, Note_on_c, 9, 47, 0
1, 27720, Note_on_c, 9, 47, 95
1, 27839, Note_on_c, 9, 47, 0
1, 27840, Note_on_c, 9, 41, 95
1, 27959, Note_on_c, 9, 41, 0
1, 27960, Note_on_c, 9, 45, 95
1, 27960, Note_on_c, 9, 36, 95
1, 28079, Note_on_c, 9, 45, 0
1, 28080, Note_on_c, 9, 41, 95
1, 28199, Note_on_c, 9, 36, 0
1, 28200, Note_on_c, 9, 36, 95
1, 28319, Note_on_c, 9, 41, 0
1, 28319, Note_on_c, 9, 36, 0
1, 28320, Note_on_c, 9, 38, 95
1, 28799, Note_on_c, 9, 38, 0
1, 28800, Note_on_c, 9, 41, 95
1, 28800, Note_on_c, 9, 36, 95
1, 29039, Note_on_c, 9, 41, 0
1, 29040, Note_on_c, 9, 41, 95
1, 29159, Note_on_c, 9, 41, 0
1, 29160, Note_on_c, 9, 45, 95
1, 29279, Note_on_c, 9, 36, 0
1, 29279, Note_on_c, 9, 45, 0
1, 29280, Note_on_c, 9, 45, 95
1, 29399, Note_on_c, 9, 45, 0
1, 29400, Note_on_c, 9, 41, 95
1, 29519, Note_on_c, 9, 41, 0
1, 29520, Note_on_c, 9, 47, 95
1, 29639, Note_on_c, 9, 47, 0
1, 29640, Note_on_c, 9, 47, 95
1, 29759, Note_on_c, 9, 47, 0
1, 29760, Note_on_c, 9, 41, 95
1, 29879, Note_on_c, 9, 41, 0
1, 29880, Note_on_c, 9, 45, 95
1, 29880, Note_on_c, 9, 36, 95
1, 29999, Note_on_c, 9, 45, 0
1, 30000, Note_on_c, 9, 41, 95
1, 30119, Note_on_c, 9, 36, 0
1, 30120, Note_on_c, 9, 36, 95
1, 30239, Note_on_c, 9, 41, 0
1, 30239, Note_on_c, 9, 36, 0
1, 30240, Note_on_c, 9, 38, 95
1, 30719, Note_on_c, 9, 38, 0
1, 30720, Note_on_c, 9, 41, 95
1, 30720, Note_on_c, 9, 49, 95
1, 30720, Note_on_c, 9, 52, 95
1, 30720, Note_on_c, 9, 55, 95
1, 30720, Note_on_c, 9, 36, 95
1, 30727, Note_on_c, 9, 49, 0
1, 30727, Note_on_c, 9, 52, 0
1, 30727, Note_on_c, 9, 55, 0
1, 30959, Note_on_c, 9, 41, 0
1, 30960, Note_on_c, 9, 41, 95
1, 31079, Note_on_c, 9, 41, 0
1, 31080, Note_on_c, 9, 45, 95
1, 31199, Note_on_c, 9, 36, 0
1, 31199, Note_on_c, 9, 45, 0
1, 31200, Note_on_c, 9, 45, 95
1, 31319, Note_on_c, 9, 45, 0
1, 31320, Note_on_c, 9, 41, 95
1, 31439, Note_on_c, 9, 41, 0
1, 31440, Note_on_c, 9, 47, 95
1, 31559, Note_on_c, 9, 47, 0
1, 31560, Note_on_c, 9, 47, 95
1, 31679, Note_on_c, 9, 47, 0
1, 31680, Note_on_c, 9, 41, 95
1, 31799, Note_on_c, 9, 41, 0
1, 31800, Note_on_c, 9, 45, 95
1, 31800, Note_on_c, 9, 36, 95
1, 31919, Note_on_c, 9, 45, 0
1, 31920, Note_on_c, 9, 41, 95
1, 32039, Note_on_c, 9, 36, 0
1, 32040, Note_on_c, 9, 36, 95
1, 32159, Note_on_c, 9, 41, 0
1, 32159, Note_on_c, 9, 36, 0
1, 32160, Note_on_c, 9, 38, 95
1, 32639, Note_on_c, 9, 38, 0
1, 32640, Note_on_c, 9, 41, 95
1, 32640, Note_on_c, 9, 36, 95
1, 32879, Note_on_c, 9, 41, 0
1, 32880, Note_on_c, 9, 41, 95
1, 32999, Note_on_c, 9, 41, 0
1, 33000, Note_on_c, 9, 45, 95
1, 33119, Note_on_c, 9, 36, 0
1, 33119, Note_on_c, 9, 45, 0
1, 33120, Note_on_c, 9, 45, 95
1, 33239, Note_on_c, 9, 45, 0
1, 33240, Note_on_c, 9, 41, 95
1, 33359, Note_on_c, 9, 41, 0
1, 33360, Note_on_c, 9, 47, 95
1, 33479, Note_on_c, 9, 47, 0
1, 33480, Note_on_c, 9, 47, 95
1, 33599, Note_on_c, 9, 47, 0
1, 33600, Note_on_c, 9, 41, 95
1, 33719, Note_on_c, 9, 41, 0
1, 33720, Note_on_c, 9, 45, 95
1, 33720, Note_on_c, 9, 36, 95
1, 33839, Note_on_c, 9, 45, 0
1, 33840, Note_on_c, 9, 41, 95
1, 33959, Note_on_c, 9, 36, 0
1, 33960, Note_on_c, 9, 36, 95
1, 34079, Note_on_c, 9, 41, 0
1, 34079, Note_on_c, 9, 36, 0
1, 34080, Note_on_c, 9, 38, 95
1, 34559, Note_on_c, 9, 38, 0
1, 34560, Note_on_c, 9, 41, 95
1, 34560, Note_on_c, 9, 36, 95
1, 34799, Note_on_c, 9, 41, 0
1, 34800, Note_on_c, 9, 41, 95
1, 34919, Note_on_c, 9, 41, 0
1, 34920, Note_on_c, 9, 45, 95
1, 35039, Note_on_c, 9, 36, 0
1, 35039, Note_on_c, 9, 45, 0
1, 35040, Note_on_c, 9, 45, 95
1, 35159, Note_on_c, 9, 45, 0
1, 35160, Note_on_c, 9, 41, 95
1, 35279, Note_on_c, 9, 41, 0
1, 35280, Note_on_c, 9, 47, 95
1, 35399, Note_on_c, 9, 47, 0
1, 35400, Note_on_c, 9, 47, 95
1, 35519, Note_on_c, 9, 47, 0
1, 35520, Note_on_c, 9, 41, 95
1, 35639, Note_on_c, 9, 41, 0
1, 35640, Note_on_c, 9, 45, 95
1, 35640, Note_on_c, 9, 36, 95
1, 35759, Note_on_c, 9, 45, 0
1, 35760, Note_on_c, 9, 41, 95
1, 35879, Note_on_c, 9, 36, 0
1, 35880, Note_on_c, 9, 36, 95
1, 35999, Note_on_c, 9, 41, 0
1, 35999, Note_on_c, 9, 36, 0
1, 36000, Note_on_c, 9, 38, 95
1, 36119, Note_on_c, 9, 38, 0
1, 36120, Note_on_c, 9, 37, 95
1, 36127, Note_on_c, 9, 37, 0
1, 36360, Note_on_c, 9, 37, 95
1, 36363, Note_on_c, 9, 37, 0
1, 36480, Note_on_c, 9, 41, 95
1, 36480, Note_on_c, 9, 36, 95
1, 36719, Note_on_c, 9, 41, 0
1, 36720, Note_on_c, 9, 41, 95
1, 36839, Note_on_c, 9, 41, 0
1, 36840, Note_on_c, 9, 45, 95
1, 36959, Note_on_c, 9, 36, 0
1, 36959, Note_on_c, 9, 45, 0
1, 36960, Note_on_c, 9, 45, 95
1, 37079, Note_on_c, 9, 45, 0
1, 37080, Note_on_c, 9, 41, 95
1, 37199, Note_on_c, 9, 41, 0
1, 37200, Note_on_c, 9, 47, 95
1, 37319, Note_on_c, 9, 47, 0
1, 37320, Note_on_c, 9, 47, 95
1, 37439, Note_on_c, 9, 47, 0
1, 37440, Note_on_c, 9, 41, 95
1, 37559, Note_on_c, 9, 41, 0
1, 37560, Note_on_c, 9, 45, 95
1, 37560, Note_on_c, 9, 36, 95
1, 37679, Note_on_c, 9, 45, 0
1, 37680, Note_on_c, 9, 41, 95
1, 37799, Note_on_c, 9, 36, 0
1, 37800, Note_on_c, 9, 36, 95
1, 37919, Note_on_c, 9, 41, 0
1, 37919, Note_on_c, 9, 36, 0
1, 37920, Note_on_c, 9, 38, 95
1, 37920, Note_on_c, 9, 51, 95
1, 37936, Note_on_c, 9, 51, 0
1, 38399, Note_on_c, 9, 38, 0
1, 38400, Note_on_c, 9, 41, 95
1, 38400, Note_on_c, 9, 36, 95
1, 38639, Note_on_c, 9, 41, 0
1, 38640, Note_on_c, 9, 41, 95
1, 38759, Note_on_c, 9, 41, 0
1, 38760, Note_on_c, 9, 45, 95
1, 38879, Note_on_c, 9, 36, 0
1, 38879, Note_on_c, 9, 45, 0
1, 38880, Note_on_c, 9, 45, 95
1, 38999, Note_on_c, 9, 45, 0
1, 39000, Note_on_c, 9, 41, 95
1, 39119, Note_on_c, 9, 41, 0
1, 39120, Note_on_c, 9, 47, 95
1, 39239, Note_on_c, 9, 47, 0
1, 39240, Note_on_c, 9, 47, 95
1, 39359, Note_on_c, 9, 47, 0
1, 39360, Note_on_c, 9, 41, 95
1, 39479, Note_on_c, 9, 41, 0
1, 39480, Note_on_c, 9, 45, 95
1, 39480, Note_on_c, 9, 36, 95
1, 39599, Note_on_c, 9, 45, 0
1, 39600, Note_on_c, 9, 41, 95
1, 39719, Note_on_c, 9, 36, 0
1, 39720, Note_on_c, 9, 36, 95
1, 39839, Note_on_c, 9, 41, 0
1, 39839, Note_on_c, 9, 36, 0
1, 39840, Note_on_c, 9, 38, 95
1, 40319, Note_on_c, 9, 38, 0
1, 40320, Note_on_c, 9, 41, 95
1, 40320, Note_on_c, 9, 36, 95
1, 40559, Note_on_c, 9, 41, 0
1, 40560, Note_on_c, 9, 41, 95
1, 40679, Note_on_c, 9, 41, 0
1, 40680, Note_on_c, 9, 45, 95
1, 40799, Note_on_c, 9, 36, 0
1, 40799, Note_on_c, 9, 45, 0
1, 40800, Note_on_c, 9, 45, 95
1, 40919, Note_on_c, 9, 45, 0
1, 40920, Note_on_c, 9, 41, 95
1, 41039, Note_on_c, 9, 41, 0
1, 41040, Note_on_c, 9, 47, 95
1, 41159, Note_on_c, 9, 47, 0
1, 41160, Note_on_c, 9, 47, 95
1, 41279, Note_on_c, 9, 47, 0
1, 41280, Note_on_c, 9, 41, 95
1, 41399, Note_on_c, 9, 41, 0
1, 41400, Note_on_c, 9, 45, 95
1, 41400, Note_on_c, 9, 36, 95
1, 41519, Note_on_c, 9, 45, 0
1, 41520, Note_on_c, 9, 41, 95
1, 41639, Note_on_c, 9, 36, 0
1, 41640, Note_on_c, 9, 36, 95
1, 41759, Note_on_c, 9, 41, 0
1, 41759, Note_on_c, 9, 36, 0
1, 41760, Note_on_c, 9, 38, 95
1, 42239, Note_on_c, 9, 38, 0
1, 42240, Note_on_c, 9, 41, 95
1, 42240, Note_on_c, 9, 36, 95
1, 42479, Note_on_c, 9, 41, 0
1, 42480, Note_on_c, 9, 41, 95
1, 42599, Note_on_c, 9, 41, 0
1, 42600, Note_on_c, 9, 45, 95
1, 42719, Note_on_c, 9, 36, 0
1, 42719, Note_on_c, 9, 45, 0
1, 42720, Note_on_c, 9, 45, 95
1, 42839, Note_on_c, 9, 45, 0
1, 42840, Note_on_c, 9, 41, 95
1, 42959, Note_on_c, 9, 41, 0
1, 42960, Note_on_c, 9, 47, 95
1, 43079, Note_on_c, 9, 47, 0
1, 43080, Note_on_c, 9, 47, 95
1, 43199, Note_on_c, 9, 47, 0
1, 43200, Note_on_c, 9, 41, 95
1, 43319, Note_on_c, 9, 41, 0
1, 43320, Note_on_c, 9, 45, 95
1, 43320, Note_on_c, 9, 36, 95
1, 43439, Note_on_c, 9, 45, 0
1, 43440, Note_on_c, 9, 41, 95
1, 43559, Note_on_c, 9, 36, 0
1, 43560, Note_on_c, 9, 36, 95
1, 43679, Note_on_c, 9, 41, 0
1, 43679, Note_on_c, 9, 36, 0
1, 43680, Note_on_c, 9, 38, 95
1, 44159, Note_on_c, 9, 38, 0
1, 44160, Note_on_c, 9, 41, 95
1, 44160, Note_on_c, 9, 36, 95
1, 44399, Note_on_c, 9, 41, 0
1, 44400, Note_on_c, 9, 41, 95
1, 44519, Note_on_c, 9, 41, 0
1, 44520, Note_on_c, 9, 45, 95
1, 44639, Note_on_c, 9, 36, 0
1, 44639, Note_on_c, 9, 45, 0
1, 44640, Note_on_c, 9, 45, 95
1, 44759, Note_on_c, 9, 45, 0
1, 44760, Note_on_c, 9, 41, 95
1, 44879, Note_on_c, 9, 41, 0
1, 44880, Note_on_c, 9, 47, 95
1, 44999, Note_on_c, 9, 47, 0
1, 45000, Note_on_c, 9, 47, 95
1, 45119, Note_on_c, 9, 47, 0
1, 45120, Note_on_c, 9, 41, 95
1, 45239, Note_on_c, 9, 41, 0
1, 45240, Note_on_c, 9, 45, 95
1, 45240, Note_on_c, 9, 36, 95
1, 45359, Note_on_c, 9, 45, 0
1, 45360, Note_on_c, 9, 41, 95
1, 45479, Note_on_c, 9, 36, 0
1, 45479, Note_on_c, 9, 41, 0
1, 45480, Note_on_c, 9, 42, 95
1, 45480, Note_on_c, 9, 36, 95
1, 45483, Note_on_c, 9, 42, 0
1, 45599, Note_on_c, 9, 36, 0
1, 45600, Note_on_c, 9, 38, 95
1, 45600, Note_on_c, 9, 46, 95
1, 45603, Note_on_c, 9, 46, 0
1, 45719, Note_on_c, 9, 38, 0
1, 45720, Note_on_c, 9, 42, 95
1, 45723, Note_on_c, 9, 42, 0
1, 45840, Note_on_c, 9, 46, 95
1, 45847, Note_on_c, 9, 46, 0
1, 46080, Note_on_c, 9, 41, 95
1, 46080, Note_on_c, 9, 42, 95
1, 46080, Note_on_c, 9, 36, 95
1, 46087, Note_on_c, 9, 42, 0
1, 46319, Note_on_c, 9, 41, 0
1, 46320, Note_on_c, 9, 41, 95
1, 46439, Note_on_c, 9, 41, 0
1, 46440, Note_on_c, 9, 45, 95
1, 46559, Note_on_c, 9, 36, 0
1, 46559, Note_on_c, 9, 45, 0
1, 46560, Note_on_c, 9, 45, 95
1, 46560, Note_on_c, 9, 42, 95
1, 46563, Note_on_c, 9, 42, 0
1, 46679, Note_on_c, 9, 45, 0
1, 46680, Note_on_c, 9, 41, 95
1, 46799, Note_on_c, 9, 41, 0
1, 46800, Note_on_c, 9, 47, 95
1, 46919, Note_on_c, 9, 47, 0
1, 46920, Note_on_c, 9, 47, 95
1, 47039, Note_on_c, 9, 47, 0
1, 47040, Note_on_c, 9, 41, 95
1, 47040, Note_on_c, 9, 42, 95
1, 47043, Note_on_c, 9, 42, 0
1, 47159, Note_on_c, 9, 41, 0
1, 47160, Note_on_c, 9, 45, 95
1, 47160, Note_on_c, 9, 36, 95
1, 47279, Note_on_c, 9, 45, 0
1, 47280, Note_on_c, 9, 41, 95
1, 47399, Note_on_c, 9, 36, 0
1, 47400, Note_on_c, 9, 36, 95
1, 47519, Note_on_c, 9, 41, 0
1, 47519, Note_on_c, 9, 36, 0
1, 47520, Note_on_c, 9, 38, 95
1, 47520, Note_on_c, 9, 42, 95
1, 47536, Note_on_c, 9, 42, 0
1, 47999, Note_on_c, 9, 38, 0
1, 48000, Note_on_c, 9, 41, 95
1, 48000, Note_on_c, 9, 42, 95
1, 48000, Note_on_c, 9, 36, 95
1, 48007, Note_on_c, 9, 42, 0
1, 48239, Note_on_c, 9, 41, 0
1, 48240, Note_on_c, 9, 41, 95
1, 48359, Note_on_c, 9, 41, 0
1, 48360, Note_on_c, 9, 45, 95
1, 48479, Note_on_c, 9, 36, 0
1, 48479, Note_on_c, 9, 45, 0
1, 48480, Note_on_c, 9, 45, 95
1, 48480, Note_on_c, 9, 42, 95
1, 48483, Note_on_c, 9, 42, 0
1, 48599, Note_on_c, 9, 45, 0
1, 48600, Note_on_c, 9, 41, 95
1, 48719, Note_on_c, 9, 41, 0
1, 48720, Note_on_c, 9, 47, 95
1, 48839, Note_on_c, 9, 47, 0
1, 48840, Note_on_c, 9, 47, 95
1, 48959, Note_on_c, 9, 47, 0
1, 48960, Note_on_c, 9, 41, 95
1, 48960, Note_on_c, 9, 42, 95
1, 48963, Note_on_c, 9, 42, 0
1, 49079, Note_on_c, 9, 41, 0
1, 49080, Note_on_c, 9, 45, 95
1, 49080, Note_on_c, 9, 36, 95
1, 49199, Note_on_c, 9, 45, 0
1, 49200, Note_on_c, 9, 41, 95
1, 49319, Note_on_c, 9, 36, 0
1, 49320, Note_on_c, 9, 36, 95
1, 49439, Note_on_c, 9, 41, 0
1, 49439, Note_on_c, 9, 36, 0
1, 49440, Note_on_c, 9, 38, 95
1, 49440, Note_on_c, 9, 42, 95
1, 49456, Note_on_c, 9, 42, 0
1, 49919, Note_on_c, 9, 38, 0
1, 49920, Note_on_c, 9, 41, 95
1, 49920, Note_on_c, 9, 42, 95
1, 49920, Note_on_c, 9, 36, 95
1, 49927, Note_on_c, 9, 42, 0
1, 50159, Note_on_c, 9, 41, 0
1, 50160, Note_on_c, 9, 41, 95
1, 50279, Note_on_c, 9, 41, 0
1, 50280, Note_on_c, 9, 45, 95
1, 50399, Note_on_c, 9, 36, 0
1, 50399, Note_on_c, 9, 45, 0
1, 50400, Note_on_c, 9, 45, 95
1, 50400, Note_on_c, 9, 42, 95
1, 50403, Note_on_c, 9, 42, 0
1, 50519, Note_on_c, 9, 45, 0
1, 50520, Note_on_c, 9, 41, 95
1, 50639, Note_on_c, 9, 41, 0
1, 50640, Note_on_c, 9, 47, 95
1, 50759, Note_on_c, 9, 47, 0
1, 50760, Note_on_c, 9, 47, 95
1, 50879, Note_on_c, 9, 47, 0
1, 50880, Note_on_c, 9, 41, 95
1, 50880, Note_on_c, 9, 42, 95
1, 50883, Note_on_c, 9, 42, 0
1, 50999, Note_on_c, 9, 41, 0
1, 51000, Note_on_c, 9, 45, 95
1, 51000, Note_on_c, 9, 36, 95
1, 51119, Note_on_c, 9, 45, 0
1, 51120, Note_on_c, 9, 41, 95
1, 51239, Note_on_c, 9, 36, 0
1, 51240, Note_on_c, 9, 36, 95
1, 51359, Note_on_c, 9, 41, 0
1, 51359, Note_on_c, 9, 36, 0
1, 51360, Note_on_c, 9, 38, 95
1, 51360, Note_on_c, 9, 42, 95
1, 51376, Note_on_c, 9, 42, 0
1, 51839, Note_on_c, 9, 38, 0
1, 51840, Note_on_c, 9, 41, 95
1, 51840, Note_on_c, 9, 42, 95
1, 51840, Note_on_c, 9, 36, 95
1, 51847, Note_on_c, 9, 42, 0
1, 52079, Note_on_c, 9, 41, 0
1, 52080, Note_on_c, 9, 41, 95
1, 52199, Note_on_c, 9, 41, 0
1, 52200, Note_on_c, 9, 45, 95
1, 52319, Note_on_c, 9, 36, 0
1, 52319, Note_on_c, 9, 45, 0
1, 52320, Note_on_c, 9, 45, 95
1, 52320, Note_on_c, 9, 42, 95
1, 52323, Note_on_c, 9, 42, 0
1, 52439, Note_on_c, 9, 45, 0
1, 52440, Note_on_c, 9, 41, 95
1, 52559, Note_on_c, 9, 41, 0
1, 52560, Note_on_c, 9, 47, 95
1, 52679, Note_on_c, 9, 47, 0
1, 52680, Note_on_c, 9, 47, 95
1, 52799, Note_on_c, 9, 47, 0
1, 52800, Note_on_c, 9, 41, 95
1, 52800, Note_on_c, 9, 42, 95
1, 52803, Note_on_c, 9, 42, 0
1, 52919, Note_on_c, 9, 41, 0
1, 52920, Note_on_c, 9, 45, 95
1, 52920, Note_on_c, 9, 36, 95
1, 53039, Note_on_c, 9, 45, 0
1, 53040, Note_on_c, 9, 41, 95
1, 53159, Note_on_c, 9, 36, 0
1, 53160, Note_on_c, 9, 36, 95
1, 53279, Note_on_c, 9, 41, 0
1, 53279, Note_on_c, 9, 36, 0
1, 53280, Note_on_c, 9, 38, 95
1, 53280, Note_on_c, 9, 42, 95
1, 53283, Note_on_c, 9, 42, 0
1, 53399, Note_on_c, 9, 38, 0
1, 53400, Note_on_c, 9, 37, 95
1, 53407, Note_on_c, 9, 37, 0
1, 53640, Note_on_c, 9, 37, 95
1, 53643, Note_on_c, 9, 37, 0
1, 53760, Note_on_c, 9, 41, 95
1, 53760, Note_on_c, 9, 42, 95
1, 53760, Note_on_c, 9, 36, 95
1, 53767, Note_on_c, 9, 42, 0
1, 53999, Note_on_c, 9, 41, 0
1, 54000, Note_on_c, 9, 41, 95
1, 54119, Note_on_c, 9, 41, 0
1, 54120, Note_on_c, 9, 45, 95
1, 54239, Note_on_c, 9, 36, 0
1, 54239, Note_on_c, 9, 45, 0
1, 54240, Note_on_c, 9, 45, 95
1, 54240, Note_on_c, 9, 42, 95
1, 54243, Note_on_c, 9, 42, 0
1, 54359, Note_on_c, 9, 45, 0
1, 54360, Note_on_c, 9, 41, 95
1, 54479, Note_on_c, 9, 41, 0
1, 54480, Note_on_c, 9, 47, 95
1, 54599, Note_on_c, 9, 47, 0
1, 54600, Note_on_c, 9, 47, 95
1, 54719, Note_on_c, 9, 47, 0
1, 54720, Note_on_c, 9, 41, 95
1, 54720, Note_on_c, 9, 42, 95
1, 54723, Note_on_c, 9, 42, 0
1, 54839, Note_on_c, 9, 41, 0
1, 54840, Note_on_c, 9, 45, 95
1, 54840, Note_on_c, 9, 36, 95
1, 54959, Note_on_c, 9, 45, 0
1, 54960, Note_on_c, 9, 41, 95
1, 55079, Note_on_c, 9, 36, 0
1, 55080, Note_on_c, 9, 36, 95
1, 55199, Note_on_c, 9, 41, 0
1, 55199, Note_on_c, 9, 36, 0
1, 55200, Note_on_c, 9, 38, 95
1, 55200, Note_on_c, 9, 42, 95
1, 55216, Note_on_c, 9, 42, 0
1, 55679, Note_on_c, 9, 38, 0
1, 55680, Note_on_c, 9, 41, 95
1, 55680, Note_on_c, 9, 42, 95
1, 55680, Note_on_c, 9, 36, 95
1, 55687, Note_on_c, 9, 42, 0
1, 55919, Note_on_c, 9, 41, 0
1, 55920, Note_on_c, 9, 41, 95
1, 56039, Note_on_c, 9, 41, 0
1, 56040, Note_on_c, 9, 45, 95
1, 56159, Note_on_c, 9, 36, 0
1, 56159, Note_on_c, 9, 45, 0
1, 56160, Note_on_c, 9, 45, 95
1, 56160, Note_on_c, 9, 42, 95
1, 56163, Note_on_c, 9, 42, 0
1, 56279, Note_on_c, 9, 45, 0
1, 56280, Note_on_c, 9, 41, 95
1, 56399, Note_on_c, 9, 41, 0
1, 56400, Note_on_c, 9, 47, 95
1, 56519, Note_on_c, 9, 47, 0
1, 56520, Note_on_c, 9, 47, 95
1, 56639, Note_on_c, 9, 47, 0
1, 56640, Note_on_c, 9, 41, 95
1, 56640, Note_on_c, 9, 42, 95
1, 56643, Note_on_c, 9, 42, 0
1, 56759, Note_on_c, 9, 41, 0
1, 56760, Note_on_c, 9, 45, 95
1, 56760, Note_on_c, 9, 36, 95
1, 56879, Note_on_c, 9, 45, 0
1, 56880, Note_on_c, 9, 41, 95
1, 56999, Note_on_c, 9, 36, 0
1, 57000, Note_on_c, 9, 36, 95
1, 57119, Note_on_c, 9, 41, 0
1, 57119, Note_on_c, 9, 36, 0
1, 57120, Note_on_c, 9, 38, 95
1, 57120, Note_on_c, 9, 42, 95
1, 57136, Note_on_c, 9, 42, 0
1, 57599, Note_on_c, 9, 38, 0
1, 57600, Note_on_c, 9, 41, 95
1, 57600, Note_on_c, 9, 42, 95
1, 57600, Note_on_c, 9, 36, 95
1, 57607, Note_on_c, 9, 42, 0
1, 57839, Note_on_c, 9, 41, 0
1, 57840, Note_on_c, 9, 41, 95
1, 57959, Note_on_c, 9, 41, 0
1, 57960, Note_on_c, 9, 45, 95
1, 58079, Note_on_c, 9, 36, 0
1, 58079, Note_on_c, 9, 45, 0
1, 58080, Note_on_c, 9, 45, 95
1, 58080, Note_on_c, 9, 42, 95
1, 58083, Note_on_c, 9, 42, 0
1, 58199, Note_on_c, 9, 45, 0
1, 58200, Note_on_c, 9, 41, 95
1, 58319, Note_on_c, 9, 41, 0
1, 58320, Note_on_c, 9, 47, 95
1, 58439, Note_on_c, 9, 47, 0
1, 58440, Note_on_c, 9, 47, 95
1, 58559, Note_on_c, 9, 47, 0
1, 58560, Note_on_c, 9, 41, 95
1, 58560, Note_on_c, 9, 42, 95
1, 58563, Note_on_c, 9, 42, 0
1, 58679, Note_on_c, 9, 41, 0
1, 58680, Note_on_c, 9, 45, 95
1, 58680, Note_on_c, 9, 36, 95
1, 58799, Note_on_c, 9, 45, 0
1, 58800, Note_on_c, 9, 41, 95
1, 58919, Note_on_c, 9, 36, 0
1, 58920, Note_on_c, 9, 36, 95
1, 59039, Note_on_c, 9, 41, 0
1, 59039, Note_on_c, 9, 36, 0
1, 59040, Note_on_c, 9, 38, 95
1, 59040, Note_on_c, 9, 42, 95
1, 59056, Note_on_c, 9, 42, 0
1, 59519, Note_on_c, 9, 38, 0
1, 59520, Note_on_c, 9, 41, 95
1, 59520, Note_on_c, 9, 42, 95
1, 59520, Note_on_c, 9, 36, 95
1, 59527, Note_on_c, 9, 42, 0
1, 59759, Note_on_c, 9, 41, 0
1, 59760, Note_on_c, 9, 41, 95
1, 59879, Note_on_c, 9, 41, 0
1, 59880, Note_on_c, 9, 45, 95
1, 59999, Note_on_c, 9, 36, 0
1, 59999, Note_on_c, 9, 45, 0
1, 60000, Note_on_c, 9, 45, 95
1, 60000, Note_on_c, 9, 42, 95
1, 60003, Note_on_c, 9, 42, 0
1, 60119, Note_on_c, 9, 45, 0
1, 60120, Note_on_c, 9, 41, 95
1, 60239, Note_on_c, 9, 41, 0
1, 60240, Note_on_c, 9, 47, 95
1, 60359, Note_on_c, 9, 47, 0
1, 60360, Note_on_c, 9, 47, 95
1, 60479, Note_on_c, 9, 47, 0
1, 60480, Note_on_c, 9, 41, 95
1, 60480, Note_on_c, 9, 42, 95
1, 60483, Note_on_c, 9, 42, 0
1, 60599, Note_on_c, 9, 41, 0
1, 60600, Note_on_c, 9, 45, 95
1, 60600, Note_on_c, 9, 36, 95
1, 60719, Note_on_c, 9, 45, 0
1, 60720, Note_on_c, 9, 41, 95
1, 60839, Note_on_c, 9, 36, 0
1, 60840, Note_on_c, 9, 36, 95
1, 60959, Note_on_c, 9, 41, 0
1, 60959, Note_on_c, 9, 36, 0
1, 60960, Note_on_c, 9, 38, 95
1, 60960, Note_on_c, 9, 51, 95
1, 60976, Note_on_c, 9, 51, 0
1, 61439, Note_on_c, 9, 38, 0
1, 61440, Note_on_c, 9, 41, 95
1, 61440, Note_on_c, 9, 42, 95
1, 61440, Note_on_c, 9, 36, 95
1, 61447, Note_on_c, 9, 42, 0
1, 61679, Note_on_c, 9, 41, 0
1, 61680, Note_on_c, 9, 41, 95
1, 61799, Note_on_c, 9, 41, 0
1, 61800, Note_on_c, 9, 45, 95
1, 61919, Note_on_c, 9, 36, 0
1, 61919, Note_on_c, 9, 45, 0
1, 61920, Note_on_c, 9, 45, 95
1, 61920, Note_on_c, 9, 42, 95
1, 61923, Note_on_c, 9, 42, 0
1, 62039, Note_on_c, 9, 45, 0
1, 62040, Note_on_c, 9, 41, 95
1, 62159, Note_on_c, 9, 41, 0
1, 62160, Note_on_c, 9, 47, 95
1, 62279, Note_on_c, 9, 47, 0
1, 62280, Note_on_c, 9, 47, 95
1, 62399, Note_on_c, 9, 47, 0
1, 62400, Note_on_c, 9, 41, 95
1, 62400, Note_on_c, 9, 42, 95
1, 62403, Note_on_c, 9, 42, 0
1, 62519, Note_on_c, 9, 41, 0
1, 62520, Note_on_c, 9, 45, 95
1, 62520, Note_on_c, 9, 36, 95
1, 62639, Note_on_c, 9, 45, 0
1, 62640, Note_on_c, 9, 41, 95
1, 62759, Note_on_c, 9, 36, 0
1, 62760, Note_on_c, 9, 36, 95
1, 62879, Note_on_c, 9, 41, 0
1, 62879, Note_on_c, 9, 36, 0
1, 62880, Note_on_c, 9, 38, 95
1, 62880, Note_on_c, 9, 42, 95
1, 62896, Note_on_c, 9, 42, 0
1, 63359, Note_on_c, 9, 38, 0
1, 63360, Note_on_c, 9, 41, 95
1, 63360, Note_on_c, 9, 42, 95
1, 63360, Note_on_c, 9, 36, 95
1, 63367, Note_on_c, 9, 42, 0
1, 63599, Note_on_c, 9, 41, 0
1, 63600, Note_on_c, 9, 41, 95
1, 63719, Note_on_c, 9, 41, 0
1, 63720, Note_on_c, 9, 45, 95
1, 63839, Note_on_c, 9, 36, 0
1, 63839, Note_on_c, 9, 45, 0
1, 63840, Note_on_c, 9, 45, 95
1, 63840, Note_on_c, 9, 42, 95
1, 63843, Note_on_c, 9, 42, 0
1, 63959, Note_on_c, 9, 45, 0
1, 63960, Note_on_c, 9, 41, 95
1, 64079, Note_on_c, 9, 41, 0
1, 64080, Note_on_c, 9, 47, 95
1, 64199, Note_on_c, 9, 47, 0
1, 64200, Note_on_c, 9, 47, 95
1, 64319, Note_on_c, 9, 47, 0
1, 64320, Note_on_c, 9, 41, 95
1, 64320, Note_on_c, 9, 42, 95
1, 64323, Note_on_c, 9, 42, 0
1, 64439, Note_on_c, 9, 41, 0
1, 64440, Note_on_c, 9, 45, 95
1, 64440, Note_on_c, 9, 36, 95
1, 64559, Note_on_c, 9, 45, 0
1, 64560, Note_on_c, 9, 41, 95
1, 64679, Note_on_c, 9, 36, 0
1, 64680, Note_on_c, 9, 36, 95
1, 64799, Note_on_c, 9, 41, 0
1, 64799, Note_on_c, 9, 36, 0
1, 64800, Note_on_c, 9, 38, 95
1, 64800, Note_on_c, 9, 42, 95
1, 64803, Note_on_c, 9, 42, 0
1, 64919, Note_on_c, 9, 38, 0
1, 64920, Note_on_c, 9, 37, 95
1, 64927, Note_on_c, 9, 37, 0
1, 65160, Note_on_c, 9, 37, 95
1, 65163, Note_on_c, 9, 37, 0
1, 65280, Note_on_c, 9, 41, 95
1, 65280, Note_on_c, 9, 42, 95
1, 65280, Note_on_c, 9, 36, 95
1, 65287, Note_on_c, 9, 42, 0
1, 65519, Note_on_c, 9, 41, 0
1, 65520, Note_on_c, 9, 41, 95
1, 65639, Note_on_c, 9, 41, 0
1, 65640, Note_on_c, 9, 45, 95
1, 65759, Note_on_c, 9, 36, 0
1, 65759, Note_on_c, 9, 45, 0
1, 65760, Note_on_c, 9, 45, 95
1, 65760, Note_on_c, 9, 42, 95
1, 65763, Note_on_c, 9, 42, 0
1, 65879, Note_on_c, 9, 45, 0
1, 65880, Note_on_c, 9, 41, 95
1, 65999, Note_on_c, 9, 41, 0
1, 66000, Note_on_c, 9, 47, 95
1, 66119, Note_on_c, 9, 47, 0
1, 66120, Note_on_c, 9, 47, 95
1, 66239, Note_on_c, 9, 47, 0
1, 66240, Note_on_c, 9, 41, 95
1, 66240, Note_on_c, 9, 42, 95
1, 66243, Note_on_c, 9, 42, 0
1, 66359, Note_on_c, 9, 41, 0
1, 66360, Note_on_c, 9, 45, 95
1, 66360, Note_on_c, 9, 36, 95
1, 66479, Note_on_c, 9, 45, 0
1, 66480, Note_on_c, 9, 41, 95
1, 66599, Note_on_c, 9, 36, 0
1, 66600, Note_on_c, 9, 36, 95
1, 66719, Note_on_c, 9, 41, 0
1, 66719, Note_on_c, 9, 36, 0
1, 66720, Note_on_c, 9, 38, 95
1, 66720, Note_on_c, 9, 42, 95
1, 66736, Note_on_c, 9, 42, 0
1, 67199, Note_on_c, 9, 38, 0
1, 67200, Note_on_c, 9, 41, 95
1, 67200, Note_on_c, 9, 42, 95
1, 67200, Note_on_c, 9, 36, 95
1, 67207, Note_on_c, 9, 42, 0
1, 67439, Note_on_c, 9, 41, 0
1, 67440, Note_on_c, 9, 41, 95
1, 67559, Note_on_c, 9, 41, 0
1, 67560, Note_on_c, 9, 45, 95
1, 67679, Note_on_c, 9, 36, 0
1, 67679, Note_on_c, 9, 45, 0
1, 67680, Note_on_c, 9, 45, 95
1, 67680, Note_on_c, 9, 42, 95
1, 67683, Note_on_c, 9, 42, 0
1, 67799, Note_on_c, 9, 45, 0
1, 67800, Note_on_c, 9, 41, 95
1, 67919, Note_on_c, 9, 41, 0
1, 67920, Note_on_c, 9, 47, 95
1, 68039, Note_on_c, 9, 47, 0
1, 68040, Note_on_c, 9, 47, 95
1, 68159, Note_on_c, 9, 47, 0
1, 68160, Note_on_c, 9, 41, 95
1, 68160, Note_on_c, 9, 42, 95
1, 68163, Note_on_c, 9, 42, 0
1, 68279, Note_on_c, 9, 41, 0
1, 68280, Note_on_c, 9, 45, 95
1, 68280, Note_on_c, 9, 36, 95
1, 68399, Note_on_c, 9, 45, 0
1, 68400, Note_on_c, 9, 41, 95
1, 68519, Note_on_c, 9, 36, 0
1, 68520, Note_on_c, 9, 36, 95
1, 68639, Note_on_c, 9, 41, 0
1, 68639, Note_on_c, 9, 36, 0
1, 68640, Note_on_c, 9, 38, 95
1, 68640, Note_on_c, 9, 42, 95
1, 68640, Note_on_c, 9, 52, 95
1, 68643, Note_on_c, 9, 42, 0
1, 68643, Note_on_c, 9, 52, 0
1, 68759, Note_on_c, 9, 38, 0
1, 68760, Note_on_c, 9, 52, 95
1, 68763, Note_on_c, 9, 52, 0
1, 68880, Note_on_c, 9, 52, 95
1, 68883, Note_on_c, 9, 52, 0
1, 69000, Note_on_c, 9, 52, 95
1, 69003, Note_on_c, 9, 52, 0
1, 69120, Note_on_c, 9, 41, 95
1, 69120, Note_on_c, 9, 42, 95
1, 69120, Note_on_c, 9, 36, 95
1, 69127, Note_on_c, 9, 42, 0
1, 69359, Note_on_c, 9, 41, 0
1, 69360, Note_on_c, 9, 41, 95
1, 69479, Note_on_c, 9, 41, 0
1, 69480, Note_on_c, 9, 45, 95
1, 69599, Note_on_c, 9, 36, 0
1, 69599, Note_on_c, 9, 45, 0
1, 69600, Note_on_c, 9, 45, 95
1, 69600, Note_on_c, 9, 42, 95
1, 69603, Note_on_c, 9, 42, 0
1, 69719, Note_on_c, 9, 45, 0
1, 69720, Note_on_c, 9, 41, 95
1, 69839, Note_on_c, 9, 41, 0
1, 69840, Note_on_c, 9, 47, 95
1, 69959, Note_on_c, 9, 47, 0
1, 69960, Note_on_c, 9, 47, 95
1, 70079, Note_on_c, 9, 47, 0
1, 70080, Note_on_c, 9, 41, 95
1, 70080, Note_on_c, 9, 42, 95
1, 70083, Note_on_c, 9, 42, 0
1, 70199, Note_on_c, 9, 41, 0
1, 70200, Note_on_c, 9, 45, 95
1, 70200, Note_on_c, 9, 36, 95
1, 70319, Note_on_c, 9, 45, 0
1, 70320, Note_on_c, 9, 41, 95
1, 70439, Note_on_c, 9, 36, 0
1, 70440, Note_on_c, 9, 36, 95
1, 70559, Note_on_c, 9, 41, 0
1, 70559, Note_on_c, 9, 36, 0
1, 70560, Note_on_c, 9, 38, 95
1, 70560, Note_on_c, 9, 42, 95
1, 70576, Note_on_c, 9, 42, 0
1, 71039, Note_on_c, 9, 38, 0
1, 71040, Note_on_c, 9, 41, 95
1, 71040, Note_on_c, 9, 42, 95
1, 71040, Note_on_c, 9, 36, 95
1, 71047, Note_on_c, 9, 42, 0
1, 71279, Note_on_c, 9, 41, 0
1, 71280, Note_on_c, 9, 41, 95
1, 71399, Note_on_c, 9, 41, 0
1, 71400, Note_on_c, 9, 45, 95
1, 71519, Note_on_c, 9, 36, 0
1, 71519, Note_on_c, 9, 45, 0
1, 71520, Note_on_c, 9, 45, 95
1, 71520, Note_on_c, 9, 42, 95
1, 71523, Note_on_c, 9, 42, 0
1, 71639, Note_on_c, 9, 45, 0
1, 71640, Note_on_c, 9, 41, 95
1, 71759, Note_on_c, 9, 41, 0
1, 71760, Note_on_c, 9, 47, 95
1, 71879, Note_on_c, 9, 47, 0
1, 71880, Note_on_c, 9, 47, 95
1, 71999, Note_on_c, 9, 47, 0
1, 72000, Note_on_c, 9, 41, 95
1, 72000, Note_on_c, 9, 42, 95
1, 72003, Note_on_c, 9, 42, 0
1, 72119, Note_on_c, 9, 41, 0
1, 72120, Note_on_c, 9, 45, 95
1, 72120, Note_on_c, 9, 36, 95
1, 72239, Note_on_c, 9, 45, 0
1, 72240, Note_on_c, 9, 41, 95
1, 72359, Note_on_c, 9, 36, 0
1, 72360, Note_on_c, 9, 36, 95
1, 72479, Note_on_c, 9, 41, 0
1, 72479, Note_on_c, 9, 36, 0
1, 72480, Note_on_c, 9, 38, 95
1, 72480, Note_on_c, 9, 51, 127
1, 72480, Note_on_c, 9, 42, 95
1, 72483, Note_on_c, 9, 51, 0
1, 72483, Note_on_c, 9, 42, 0
1, 72599, Note_on_c, 9, 38, 0
1, 72600, Note_on_c, 9, 51, 95
1, 72603, Note_on_c, 9, 51, 0
1, 72720, Note_on_c, 9, 51, 127
1, 72723, Note_on_c, 9, 51, 0
1, 72840, Note_on_c, 9, 51, 95
1, 72843, Note_on_c, 9, 51, 0
1, 72960, Note_on_c, 9, 41, 95
1, 72960, Note_on_c, 9, 42, 95
1, 72960, Note_on_c, 9, 36, 95
1, 72967, Note_on_c, 9, 42, 0
1, 73199, Note_on_c, 9, 41, 0
1, 73200, Note_on_c, 9, 41, 95
1, 73319, Note_on_c, 9, 41, 0
1, 73320, Note_on_c, 9, 45, 95
1, 73439, Note_on_c, 9, 36, 0
1, 73439, Note_on_c, 9, 45, 0
1, 73440, Note_on_c, 9, 45, 95
1, 73440, Note_on_c, 9, 42, 95
1, 73443, Note_on_c, 9, 42, 0
1, 73559, Note_on_c, 9, 45, 0
1, 73560, Note_on_c, 9, 41, 95
1, 73679, Note_on_c, 9, 41, 0
1, 73680, Note_on_c, 9, 47, 95
1, 73799, Note_on_c, 9, 47, 0
1, 73800, Note_on_c, 9, 47, 95
1, 73919, Note_on_c, 9, 47, 0
1, 73920, Note_on_c, 9, 41, 95
1, 73920, Note_on_c, 9, 42, 95
1, 73923, Note_on_c, 9, 42, 0
1, 74039, Note_on_c, 9, 41, 0
1, 74040, Note_on_c, 9, 45, 95
1, 74040, Note_on_c, 9, 36, 95
1, 74159, Note_on_c, 9, 45, 0
1, 74160, Note_on_c, 9, 41, 95
1, 74279, Note_on_c, 9, 36, 0
1, 74280, Note_on_c, 9, 36, 95
1, 74399, Note_on_c, 9, 41, 0
1, 74399, Note_on_c, 9, 36, 0
1, 74400, Note_on_c, 9, 38, 95
1, 74400, Note_on_c, 9, 42, 95
1, 74416, Note_on_c, 9, 42, 0
1, 74879, Note_on_c, 9, 38, 0
1, 74880, Note_on_c, 9, 41, 95
1, 74880, Note_on_c, 9, 42, 95
1, 74880, Note_on_c, 9, 36, 95
1, 74887, Note_on_c, 9, 42, 0
1, 75119, Note_on_c, 9, 41, 0
1, 75120, Note_on_c, 9, 41, 95
1, 75239, Note_on_c, 9, 41, 0
1, 75240, Note_on_c, 9, 45, 95
1, 75359, Note_on_c, 9, 36, 0
1, 75359, Note_on_c, 9, 45, 0
1, 75360, Note_on_c, 9, 45, 95
1, 75360, Note_on_c, 9, 42, 95
1, 75363, Note_on_c, 9, 42, 0
1, 75479, Note_on_c, 9, 45, 0
1, 75480, Note_on_c, 9, 41, 95
1, 75599, Note_on_c, 9, 41, 0
1, 75600, Note_on_c, 9, 47, 95
1, 75719, Note_on_c, 9, 47, 0
1, 75720, Note_on_c, 9, 47, 95
1, 75839, Note_on_c, 9, 47, 0
1, 75840, Note_on_c, 9, 41, 95
1, 75840, Note_on_c, 9, 42, 95
1, 75843, Note_on_c, 9, 42, 0
1, 75959, Note_on_c, 9, 41, 0
1, 75960, Note_on_c, 9, 45, 95
1, 75960, Note_on_c, 9, 36, 95
1, 76079, Note_on_c, 9, 45, 0
1, 76080, Note_on_c, 9, 41, 95
1, 76199, Note_on_c, 9, 36, 0
1, 76200, Note_on_c, 9, 36, 95
1, 76319, Note_on_c, 9, 41, 0
1, 76319, Note_on_c, 9, 36, 0
1, 76320, Note_on_c, 9, 38, 95
1, 76320, Note_on_c, 9, 42, 95
1, 76320, Note_on_c, 9, 49, 95
1, 76327, Note_on_c, 9, 42, 0
1, 76327, Note_on_c, 9, 49, 0
1, 76559, Note_on_c, 9, 38, 0
1, 76560, Note_on_c, 9, 55, 95
1, 76567, Note_on_c, 9, 55, 0
1, 76800, Note_on_c, 9, 41, 95
1, 76800, Note_on_c, 9, 42, 95
1, 76800, Note_on_c, 9, 36, 95
1, 76807, Note_on_c, 9, 42, 0
1, 77039, Note_on_c, 9, 41, 0
1, 77040, Note_on_c, 9, 41, 95
1, 77159, Note_on_c, 9, 41, 0
1, 77160, Note_on_c, 9, 45, 95
1, 77279, Note_on_c, 9, 36, 0
1, 77279, Note_on_c, 9, 45, 0
1, 77280, Note_on_c, 9, 45, 95
1, 77280, Note_on_c, 9, 42, 95
1, 77283, Note_on_c, 9, 42, 0
1, 77399, Note_on_c, 9, 45, 0
1, 77400, Note_on_c, 9, 41, 95
1, 77519, Note_on_c, 9, 41, 0
1, 77520, Note_on_c, 9, 47, 95
1, 77639, Note_on_c, 9, 47, 0
1, 77640, Note_on_c, 9, 47, 95
1, 77759, Note_on_c, 9, 47, 0
1, 77760, Note_on_c, 9, 41, 95
1, 77760, Note_on_c, 9, 42, 95
1, 77763, Note_on_c, 9, 42, 0
1, 77879, Note_on_c, 9, 41, 0
1, 77880, Note_on_c, 9, 45, 95
1, 77880, Note_on_c, 9, 36, 95
1, 77999, Note_on_c, 9, 45, 0
1, 78000, Note_on_c, 9, 41, 95
1, 78119, Note_on_c, 9, 36, 0
1, 78120, Note_on_c, 9, 36, 95
1, 78239, Note_on_c, 9, 41, 0
1, 78239, Note_on_c, 9, 36, 0
1, 78240, Note_on_c, 9, 38, 95
1, 78240, Note_on_c, 9, 42, 95
1, 78256, Note_on_c, 9, 42, 0
1, 78719, Note_on_c, 9, 38, 0
1, 78720, Note_on_c, 9, 41, 95
1, 78720, Note_on_c, 9, 42, 95
1, 78720, Note_on_c, 9, 36, 95
1, 78727, Note_on_c, 9, 42, 0
1, 78959, Note_on_c, 9, 41, 0
1, 78960, Note_on_c, 9, 41, 95
1, 79079, Note_on_c, 9, 41, 0
1, 79080, Note_on_c, 9, 45, 95
1, 79199, Note_on_c, 9, 36, 0
1, 79199, Note_on_c, 9, 45, 0
1, 79200, Note_on_c, 9, 45, 95
1, 79200, Note_on_c, 9, 42, 95
1, 79203, Note_on_c, 9, 42, 0
1, 79319, Note_on_c, 9, 45, 0
1, 79320, Note_on_c, 9, 41, 95
1, 79439, Note_on_c, 9, 41, 0
1, 79440, Note_on_c, 9, 47, 95
1, 79559, Note_on_c, 9, 47, 0
1, 79560, Note_on_c, 9, 47, 95
1, 79679, Note_on_c, 9, 47, 0
1, 79680, Note_on_c, 9, 41, 95
1, 79680, Note_on_c, 9, 42, 95
1, 79683, Note_on_c, 9, 42, 0
1, 79799, Note_on_c, 9, 41, 0
1, 79800, Note_on_c, 9, 45, 95
1, 79800, Note_on_c, 9, 36, 95
1, 79919, Note_on_c, 9, 45, 0
1, 79920, Note_on_c, 9, 41, 95
1, 80039, Note_on_c, 9, 36, 0
1, 80040, Note_on_c, 9, 36, 95
1, 80159, Note_on_c, 9, 41, 0
1, 80159, Note_on_c, 9, 36, 0
1, 80160, Note_on_c, 9, 38, 95
1, 80160, Note_on_c, 9, 51, 95
1, 80160, Note_on_c, 9, 42, 95
1, 80163, Note_on_c, 9, 51, 0
1, 80163, Note_on_c, 9, 42, 0
1, 80279, Note_on_c, 9, 38, 0
1, 80280, Note_on_c, 9, 51, 95
1, 80283, Note_on_c, 9, 51, 0
1, 80400, Note_on_c, 9, 51, 95
1, 80407, Note_on_c, 9, 51, 0
1, 80640, Note_on_c, 9, 41, 95
1, 80640, Note_on_c, 9, 42, 95
1, 80640, Note_on_c, 9, 36, 95
1, 80647, Note_on_c, 9, 42, 0
1, 80879, Note_on_c, 9, 41, 0
1, 80880, Note_on_c, 9, 41, 95
1, 80999, Note_on_c, 9, 41, 0
1, 81000, Note_on_c, 9, 45, 95
1, 81119, Note_on_c, 9, 36, 0
1, 81119, Note_on_c, 9, 45, 0
1, 81120, Note_on_c, 9, 45, 95
1, 81120, Note_on_c, 9, 42, 95
1, 81123, Note_on_c, 9, 42, 0
1, 81239, Note_on_c, 9, 45, 0
1, 81240, Note_on_c, 9, 41, 95
1, 81359, Note_on_c, 9, 41, 0
1, 81360, Note_on_c, 9, 47, 95
1, 81479, Note_on_c, 9, 47, 0
1, 81480, Note_on_c, 9, 47, 95
1, 81599, Note_on_c, 9, 47, 0
1, 81600, Note_on_c, 9, 41, 95
1, 81600, Note_on_c, 9, 42, 95
1, 81603, Note_on_c, 9, 42, 0
1, 81719, Note_on_c, 9, 41, 0
1, 81720, Note_on_c, 9, 45, 95
1, 81720, Note_on_c, 9, 36, 95
1, 81839, Note_on_c, 9, 45, 0
1, 81840, Note_on_c, 9, 41, 95
1, 81959, Note_on_c, 9, 36, 0
1, 81960, Note_on_c, 9, 36, 95
1, 82079, Note_on_c, 9, 41, 0
1, 82079, Note_on_c, 9, 36, 0
1, 82080, Note_on_c, 9, 38, 95
1, 82080, Note_on_c, 9, 42, 95
1, 82096, Note_on_c, 9, 42, 0
1, 82559, Note_on_c, 9, 38, 0
1, 82560, Note_on_c, 9, 41, 95
1, 82560, Note_on_c, 9, 42, 95
1, 82560, Note_on_c, 9, 36, 95
1, 82567, Note_on_c, 9, 42, 0
1, 82799, Note_on_c, 9, 41, 0
1, 82800, Note_on_c, 9, 41, 95
1, 82919, Note_on_c, 9, 41, 0
1, 82920, Note_on_c, 9, 45, 95
1, 83039, Note_on_c, 9, 36, 0
1, 83039, Note_on_c, 9, 45, 0
1, 83040, Note_on_c, 9, 45, 95
1, 83040, Note_on_c, 9, 42, 95
1, 83043, Note_on_c, 9, 42, 0
1, 83159, Note_on_c, 9, 45, 0
1, 83160, Note_on_c, 9, 41, 95
1, 83279, Note_on_c, 9, 41, 0
1, 83280, Note_on_c, 9, 47, 95
1, 83399, Note_on_c, 9, 47, 0
1, 83400, Note_on_c, 9, 47, 95
1, 83519, Note_on_c, 9, 47, 0
1, 83520, Note_on_c, 9, 41, 95
1, 83520, Note_on_c, 9, 42, 95
1, 83523, Note_on_c, 9, 42, 0
1, 83639, Note_on_c, 9, 41, 0
1, 83640, Note_on_c, 9, 45, 95
1, 83640, Note_on_c, 9, 36, 95
1, 83759, Note_on_c, 9, 45, 0
1, 83760, Note_on_c, 9, 41, 95
1, 83879, Note_on_c, 9, 36, 0
1, 83880, Note_on_c, 9, 36, 95
1, 83999, Note_on_c, 9, 41, 0
1, 83999, Note_on_c, 9, 36, 0
1, 84000, Note_on_c, 9, 38, 95
1, 84000, Note_on_c, 9, 51, 95
1, 84000, Note_on_c, 9, 42, 95
1, 84003, Note_on_c, 9, 51, 0
1, 84003, Note_on_c, 9, 42, 0
1, 84119, Note_on_c, 9, 38, 0
1, 84120, Note_on_c, 9, 51, 95
1, 84123, Note_on_c, 9, 51, 0
1, 84240, Note_on_c, 9, 51, 95
1, 84247, Note_on_c, 9, 51, 0
1, 84480, Note_on_c, 9, 41, 95
1, 84480, Note_on_c, 9, 42, 95
1, 84480, Note_on_c, 9, 36, 95
1, 84487, Note_on_c, 9, 42, 0
1, 84719, Note_on_c, 9, 41, 0
1, 84720, Note_on_c, 9, 41, 95
1, 84839, Note_on_c, 9, 41, 0
1, 84840, Note_on_c, 9, 45, 95
1, 84959, Note_on_c, 9, 36, 0
1, 84959, Note_on_c, 9, 45, 0
1, 84960, Note_on_c, 9, 45, 95
1, 84960, Note_on_c, 9, 42, 95
1, 84963, Note_on_c, 9, 42, 0
1, 85079, Note_on_c, 9, 45, 0
1, 85080, Note_on_c, 9, 41, 95
1, 85199, Note_on_c, 9, 41, 0
1, 85200, Note_on_c, 9, 47, 95
1, 85319, Note_on_c, 9, 47, 0
1, 85320, Note_on_c, 9, 47, 95
1, 85439, Note_on_c, 9, 47, 0
1, 85440, Note_on_c, 9, 41, 95
1, 85440, Note_on_c, 9, 42, 95
1, 85443, Note_on_c, 9, 42, 0
1, 85559, Note_on_c, 9, 41, 0
1, 85560, Note_on_c, 9, 45, 95
1, 85560, Note_on_c, 9, 36, 95
1, 85679, Note_on_c, 9, 45, 0
1, 85680, Note_on_c, 9, 41, 95
1, 85799, Note_on_c, 9, 36, 0
1, 85800, Note_on_c, 9, 36, 95
1, 85919, Note_on_c, 9, 41, 0
1, 85919, Note_on_c, 9, 36, 0
1, 85920, Note_on_c, 9, 38, 95
1, 85920, Note_on_c, 9, 42, 95
1, 85936, Note_on_c, 9, 42, 0
1, 86399, Note_on_c, 9, 38, 0
1, 86400, Note_on_c, 9, 41, 95
1, 86400, Note_on_c, 9, 42, 95
1, 86400, Note_on_c, 9, 36, 95
1, 86407, Note_on_c, 9, 42, 0
1, 86639, Note_on_c, 9, 41, 0
1, 86640, Note_on_c, 9, 41, 95
1, 86759, Note_on_c, 9, 41, 0
1, 86760, Note_on_c, 9, 45, 95
1, 86879, Note_on_c, 9, 36, 0
1, 86879, Note_on_c, 9, 45, 0
1, 86880, Note_on_c, 9, 45, 95
1, 86880, Note_on_c, 9, 42, 95
1, 86883, Note_on_c, 9, 42, 0
1, 86999, Note_on_c, 9, 45, 0
1, 87000, Note_on_c, 9, 41, 95
1, 87119, Note_on_c, 9, 41, 0
1, 87120, Note_on_c, 9, 47, 95
1, 87239, Note_on_c, 9, 47, 0
1, 87240, Note_on_c, 9, 47, 95
1, 87359, Note_on_c, 9, 47, 0
1, 87360, Note_on_c, 9, 41, 95
1, 87360, Note_on_c, 9, 42, 95
1, 87363, Note_on_c, 9, 42, 0
1, 87479, Note_on_c, 9, 41, 0
1, 87480, Note_on_c, 9, 45, 95
1, 87480, Note_on_c, 9, 36, 95
1, 87599, Note_on_c, 9, 45, 0
1, 87600, Note_on_c, 9, 41, 95
1, 87719, Note_on_c, 9, 36, 0
1, 87720, Note_on_c, 9, 36, 95
1, 87839, Note_on_c, 9, 41, 0
1, 87839, Note_on_c, 9, 36, 0
1, 87840, Note_on_c, 9, 38, 95
1, 87840, Note_on_c, 9, 42, 95
1, 87843, Note_on_c, 9, 42, 0
1, 87959, Note_on_c, 9, 38, 0
1, 87960, Note_on_c, 9, 37, 95
1, 87967, Note_on_c, 9, 37, 0
1, 88200, Note_on_c, 9, 37, 95
1, 88203, Note_on_c, 9, 37, 0
1, 88320, Note_on_c, 9, 41, 95
1, 88320, Note_on_c, 9, 42, 95
1, 88320, Note_on_c, 9, 36, 95
1, 88327, Note_on_c, 9, 42, 0
1, 88559, Note_on_c, 9, 41, 0
1, 88560, Note_on_c, 9, 41, 95
1, 88679, Note_on_c, 9, 41, 0
1, 88680, Note_on_c, 9, 45, 95
1, 88799, Note_on_c, 9, 36, 0
1, 88799, Note_on_c, 9, 45, 0
1, 88800, Note_on_c, 9, 45, 95
1, 88800, Note_on_c, 9, 42, 95
1, 88803, Note_on_c, 9, 42, 0
1, 88919, Note_on_c, 9, 45, 0
1, 88920, Note_on_c, 9, 41, 95
1, 89039, Note_on_c, 9, 41, 0
1, 89040, Note_on_c, 9, 47, 95
1, 89159, Note_on_c, 9, 47, 0
1, 89160, Note_on_c, 9, 47, 95
1, 89279, Note_on_c, 9, 47, 0
1, 89280, Note_on_c, 9, 41, 95
1, 89280, Note_on_c, 9, 42, 95
1, 89283, Note_on_c, 9, 42, 0
1, 89399, Note_on_c, 9, 41, 0
1, 89400, Note_on_c, 9, 45, 95
1, 89400, Note_on_c, 9, 36, 95
1, 89519, Note_on_c, 9, 45, 0
1, 89520, Note_on_c, 9, 41, 95
1, 89639, Note_on_c, 9, 36, 0
1, 89640, Note_on_c, 9, 36, 95
1, 89759, Note_on_c, 9, 41, 0
1, 89759, Note_on_c, 9, 36, 0
1, 89760, Note_on_c, 9, 38, 95
1, 89760, Note_on_c, 9, 42, 95
1, 89776, Note_on_c, 9, 42, 0
1, 90239, Note_on_c, 9, 38, 0
1, 90240, Note_on_c, 9, 41, 95
1, 90240, Note_on_c, 9, 42, 95
1, 90240, Note_on_c, 9, 36, 95
1, 90247, Note_on_c, 9, 42, 0
1, 90479, Note_on_c, 9, 41, 0
1, 90480, Note_on_c, 9, 41, 95
1, 90599, Note_on_c, 9, 41, 0
1, 90600, Note_on_c, 9, 45, 95
1, 90719, Note_on_c, 9, 36, 0
1, 90719, Note_on_c, 9, 45, 0
1, 90720, Note_on_c, 9, 45, 95
1, 90720, Note_on_c, 9, 42, 95
1, 90723, Note_on_c, 9, 42, 0
1, 90839, Note_on_c, 9, 45, 0
1, 90840, Note_on_c, 9, 41, 95
1, 90959, Note_on_c, 9, 41, 0
1, 90960, Note_on_c, 9, 47, 95
1, 91079, Note_on_c, 9, 47, 0
1, 91080, Note_on_c, 9, 47, 95
1, 91199, Note_on_c, 9, 47, 0
1, 91200, Note_on_c, 9, 41, 95
1, 91200, Note_on_c, 9, 42, 95
1, 91203, Note_on_c, 9, 42, 0
1, 91319, Note_on_c, 9, 41, 0
1, 91320, Note_on_c, 9, 45, 95
1, 91320, Note_on_c, 9, 36, 95
1, 91439, Note_on_c, 9, 45, 0
1, 91440, Note_on_c, 9, 41, 95
1, 91559, Note_on_c, 9, 36, 0
1, 91560, Note_on_c, 9, 36, 95
1, 91679, Note_on_c, 9, 41, 0
1, 91679, Note_on_c, 9, 36, 0
1, 91680, Note_on_c, 9, 38, 95
1, 91680, Note_on_c, 9, 53, 95
1, 91680, Note_on_c, 9, 42, 95
1, 91692, Note_on_c, 9, 42, 0
1, 92039, Note_on_c, 9, 38, 0
1, 92039, Note_on_c, 9, 53, 0
1, 92040, Note_on_c, 9, 53, 95
1, 92159, Note_on_c, 9, 53, 0
1, 92160, Note_on_c, 9, 41, 95
1, 92160, Note_on_c, 9, 42, 95
1, 92160, Note_on_c, 9, 36, 95
1, 92167, Note_on_c, 9, 42, 0
1, 92399, Note_on_c, 9, 41, 0
1, 92400, Note_on_c, 9, 41, 95
1, 92519, Note_on_c, 9, 41, 0
1, 92520, Note_on_c, 9, 45, 95
1, 92639, Note_on_c, 9, 36, 0
1, 92639, Note_on_c, 9, 45, 0
1, 92640, Note_on_c, 9, 45, 95
1, 92640, Note_on_c, 9, 42, 95
1, 92643, Note_on_c, 9, 42, 0
1, 92759, Note_on_c, 9, 45, 0
1, 92760, Note_on_c, 9, 41, 95
1, 92879, Note_on_c, 9, 41, 0
1, 92880, Note_on_c, 9, 47, 95
1, 92999, Note_on_c, 9, 47, 0
1, 93000, Note_on_c, 9, 47, 95
1, 93119, Note_on_c, 9, 47, 0
1, 93120, Note_on_c, 9, 41, 95
1, 93120, Note_on_c, 9, 42, 95
1, 93123, Note_on_c, 9, 42, 0
1, 93239, Note_on_c, 9, 41, 0
1, 93240, Note_on_c, 9, 45, 95
1, 93240, Note_on_c, 9, 36, 95
1, 93359, Note_on_c, 9, 45, 0
1, 93360, Note_on_c, 9, 41, 95
1, 93479, Note_on_c, 9, 36, 0
1, 93480, Note_on_c, 9, 36, 95
1, 93599, Note_on_c, 9, 41, 0
1, 93599, Note_on_c, 9, 36, 0
1, 93600, Note_on_c, 9, 38, 95
1, 93600, Note_on_c, 9, 42, 95
1, 93616, Note_on_c, 9, 42, 0
1, 94079, Note_on_c, 9, 38, 0
1, 94080, Note_on_c, 9, 41, 95
1, 94080, Note_on_c, 9, 42, 95
1, 94080, Note_on_c, 9, 36, 95
1, 94087, Note_on_c, 9, 42, 0
1, 94319, Note_on_c, 9, 41, 0
1, 94320, Note_on_c, 9, 41, 95
1, 94439, Note_on_c, 9, 41, 0
1, 94440, Note_on_c, 9, 45, 95
1, 94559, Note_on_c, 9, 36, 0
1, 94559, Note_on_c, 9, 45, 0
1, 94560, Note_on_c, 9, 45, 95
1, 94560, Note_on_c, 9, 42, 95
1, 94563, Note_on_c, 9, 42, 0
1, 94679, Note_on_c, 9, 45, 0
1, 94680, Note_on_c, 9, 41, 95
1, 94799, Note_on_c, 9, 41, 0
1, 94800, Note_on_c, 9, 47, 95
1, 94919, Note_on_c, 9, 47, 0
1, 94920, Note_on_c, 9, 47, 95
1, 95039, Note_on_c, 9, 47, 0
1, 95040, Note_on_c, 9, 41, 95
1, 95040, Note_on_c, 9, 42, 95
1, 95043, Note_on_c, 9, 42, 0
1, 95159, Note_on_c, 9, 41, 0
1, 95160, Note_on_c, 9, 45, 95
1, 95160, Note_on_c, 9, 36, 95
1, 95279, Note_on_c, 9, 45, 0
1, 95280, Note_on_c, 9, 41, 95
1, 95399, Note_on_c, 9, 36, 0
1, 95400, Note_on_c, 9, 36, 95
1, 95519, Note_on_c, 9, 41, 0
1, 95519, Note_on_c, 9, 36, 0
1, 95520, Note_on_c, 9, 38, 95
1, 95520, Note_on_c, 9, 42, 95
1, 95536, Note_on_c, 9, 42, 0
1, 95999, Note_on_c, 9, 38, 0
1, 96000, Note_on_c, 9, 41, 95
1, 96000, Note_on_c, 9, 42, 95
1, 96000, Note_on_c, 9, 36, 95
1, 96007, Note_on_c, 9, 42, 0
1, 96239, Note_on_c, 9, 41, 0
1, 96240, Note_on_c, 9, 41, 95
1, 96359, Note_on_c, 9, 41, 0
1, 96360, Note_on_c, 9, 45, 95
1, 96479, Note_on_c, 9, 36, 0
1, 96479, Note_on_c, 9, 45, 0
1, 96480, Note_on_c, 9, 45, 95
1, 96480, Note_on_c, 9, 42, 95
1, 96483, Note_on_c, 9, 42, 0
1, 96599, Note_on_c, 9, 45, 0
1, 96600, Note_on_c, 9, 41, 95
1, 96719, Note_on_c, 9, 41, 0
1, 96720, Note_on_c, 9, 47, 95
1, 96839, Note_on_c, 9, 47, 0
1, 96840, Note_on_c, 9, 47, 95
1, 96959, Note_on_c, 9, 47, 0
1, 96960, Note_on_c, 9, 41, 95
1, 96960, Note_on_c, 9, 42, 95
1, 96963, Note_on_c, 9, 42, 0
1, 97079, Note_on_c, 9, 41, 0
1, 97080, Note_on_c, 9, 45, 95
1, 97080, Note_on_c, 9, 36, 95
1, 97199, Note_on_c, 9, 45, 0
1, 97200, Note_on_c, 9, 41, 95
1, 97319, Note_on_c, 9, 36, 0
1, 97320, Note_on_c, 9, 36, 95
1, 97439, Note_on_c, 9, 41, 0
1, 97439, Note_on_c, 9, 36, 0
1, 97440, Note_on_c, 9, 38, 95
1, 97440, Note_on_c, 9, 51, 95
1, 97440, Note_on_c, 9, 42, 95
1, 97443, Note_on_c, 9, 51, 0
1, 97443, Note_on_c, 9, 42, 0
1, 97559, Note_on_c, 9, 38, 0
1, 97560, Note_on_c, 9, 51, 95
1, 97563, Note_on_c, 9, 51, 0
1, 97680, Note_on_c, 9, 51, 95
1, 97687, Note_on_c, 9, 51, 0
1, 97920, Note_on_c, 9, 41, 95
1, 97920, Note_on_c, 9, 42, 95
1, 97920, Note_on_c, 9, 36, 95
1, 97927, Note_on_c, 9, 42, 0
1, 98159, Note_on_c, 9, 41, 0
1, 98160, Note_on_c, 9, 41, 95
1, 98279, Note_on_c, 9, 41, 0
1, 98280, Note_on_c, 9, 45, 95
1, 98399, Note_on_c, 9, 36, 0
1, 98399, Note_on_c, 9, 45, 0
1, 98400, Note_on_c, 9, 45, 95
1, 98400, Note_on_c, 9, 42, 95
1, 98403, Note_on_c, 9, 42, 0
1, 98519, Note_on_c, 9, 45, 0
1, 98520, Note_on_c, 9, 41, 95
1, 98639, Note_on_c, 9, 41, 0
1, 98640, Note_on_c, 9, 47, 95
1, 98759, Note_on_c, 9, 47, 0
1, 98760, Note_on_c, 9, 47, 95
1, 98879, Note_on_c, 9, 47, 0
1, 98880, Note_on_c, 9, 41, 95
1, 98880, Note_on_c, 9, 42, 95
1, 98883, Note_on_c, 9, 42, 0
1, 98999, Note_on_c, 9, 41, 0
1, 99000, Note_on_c, 9, 45, 95
1, 99000, Note_on_c, 9, 36, 95
1, 99119, Note_on_c, 9, 45, 0
1, 99120, Note_on_c, 9, 41, 95
1, 99239, Note_on_c, 9, 36, 0
1, 99240, Note_on_c, 9, 36, 95
1, 99359, Note_on_c, 9, 41, 0
1, 99359, Note_on_c, 9, 36, 0
1, 99360, Note_on_c, 9, 38, 95
1, 99360, Note_on_c, 9, 42, 95
1, 99363, Note_on_c, 9, 42, 0
1, 99479, Note_on_c, 9, 38, 0
1, 99480, Note_on_c, 9, 46, 95
1, 99483, Note_on_c, 9, 46, 0
1, 99600, Note_on_c, 9, 42, 95
1, 99603, Note_on_c, 9, 42, 0
1, 99720, Note_on_c, 9, 46, 95
1, 99723, Note_on_c, 9, 46, 0
1, 99840, Note_on_c, 9, 41, 95
1, 99840, Note_on_c, 9, 42, 95
1, 99840, Note_on_c, 9, 36, 95
1, 99847, Note_on_c, 9, 42, 0
1, 100079, Note_on_c, 9, 41, 0
1, 100080, Note_on_c, 9, 41, 95
1, 100199, Note_on_c, 9, 41, 0
1, 100200, Note_on_c, 9, 45, 95
1, 100319, Note_on_c, 9, 36, 0
1, 100319, Note_on_c, 9, 45, 0
1, 100320, Note_on_c, 9, 45, 95
1, 100320, Note_on_c, 9, 42, 95
1, 100323, Note_on_c, 9, 42, 0
1, 100439, Note_on_c, 9, 45, 0
1, 100440, Note_on_c, 9, 41, 95
1, 100559, Note_on_c, 9, 41, 0
1, 100560, Note_on_c, 9, 47, 95
1, 100679, Note_on_c, 9, 47, 0
1, 100680, Note_on_c, 9, 47, 95
1, 100799, Note_on_c, 9, 47, 0
1, 100800, Note_on_c, 9, 41, 95
1, 100800, Note_on_c, 9, 42, 95
1, 100803, Note_on_c, 9, 42, 0
1, 100919, Note_on_c, 9, 41, 0
1, 100920, Note_on_c, 9, 45, 95
1, 100920, Note_on_c, 9, 36, 95
1, 101039, Note_on_c, 9, 45, 0
1, 101040, Note_on_c, 9, 41, 95
1, 101159, Note_on_c, 9, 36, 0
1, 101160, Note_on_c, 9, 36, 95
1, 101279, Note_on_c, 9, 41, 0
1, 101279, Note_on_c, 9, 36, 0
1, 101280, Note_on_c, 9, 38, 95
1, 101280, Note_on_c, 9, 42, 95
1, 101296, Note_on_c, 9, 42, 0
1, 101759, Note_on_c, 9, 38, 0
1, 101760, Note_on_c, 9, 41, 95
1, 101760, Note_on_c, 9, 42, 95
1, 101760, Note_on_c, 9, 36, 95
1, 101767, Note_on_c, 9, 42, 0
1, 101999, Note_on_c, 9, 41, 0
1, 102000, Note_on_c, 9, 41, 95
1, 102119, Note_on_c, 9, 41, 0
1, 102120, Note_on_c, 9, 45, 95
1, 102239, Note_on_c, 9, 36, 0
1, 102239, Note_on_c, 9, 45, 0
1, 102240, Note_on_c, 9, 45, 95
1, 102240, Note_on_c, 9, 42, 95
1, 102243, Note_on_c, 9, 42, 0
1, 102359, Note_on_c, 9, 45, 0
1, 102360, Note_on_c, 9, 41, 95
1, 102479, Note_on_c, 9, 41, 0
1, 102480, Note_on_c, 9, 47, 95
1, 102599, Note_on_c, 9, 47, 0
1, 102600, Note_on_c, 9, 47, 95
1, 102719, Note_on_c, 9, 47, 0
1, 102720, Note_on_c, 9, 41, 95
1, 102720, Note_on_c, 9, 42, 95
1, 102723, Note_on_c, 9, 42, 0
1, 102839, Note_on_c, 9, 41, 0
1, 102840, Note_on_c, 9, 45, 95
1, 102840, Note_on_c, 9, 36, 95
1, 102959, Note_on_c, 9, 45, 0
1, 102960, Note_on_c, 9, 41, 95
1, 103079, Note_on_c, 9, 36, 0
1, 103080, Note_on_c, 9, 36, 95
1, 103199, Note_on_c, 9, 41, 0
1, 103199, Note_on_c, 9, 36, 0
1, 103200, Note_on_c, 9, 38, 95
1, 103200, Note_on_c, 9, 42, 95
1, 103216, Note_on_c, 9, 42, 0
1, 103679, Note_on_c, 9, 38, 0
1, 103680, Note_on_c, 9, 41, 95
1, 103680, Note_on_c, 9, 42, 95
1, 103680, Note_on_c, 9, 36, 95
1, 103687, Note_on_c, 9, 42, 0
1, 103919, Note_on_c, 9, 41, 0
1, 103920, Note_on_c, 9, 41, 95
1, 104039, Note_on_c, 9, 41, 0
1, 104040, Note_on_c, 9, 45, 95
1, 104159, Note_on_c, 9, 36, 0
1, 104159, Note_on_c, 9, 45, 0
1, 104160, Note_on_c, 9, 45, 95
1, 104160, Note_on_c, 9, 42, 95
1, 104163, Note_on_c, 9, 42, 0
1, 104279, Note_on_c, 9, 45, 0
1, 104280, Note_on_c, 9, 41, 95
1, 104399, Note_on_c, 9, 41, 0
1, 104400, Note_on_c, 9, 47, 95
1, 104519, Note_on_c, 9, 47, 0
1, 104520, Note_on_c, 9, 47, 95
1, 104639, Note_on_c, 9, 47, 0
1, 104640, Note_on_c, 9, 41, 95
1, 104640, Note_on_c, 9, 42, 95
1, 104643, Note_on_c, 9, 42, 0
1, 104759, Note_on_c, 9, 41, 0
1, 104760, Note_on_c, 9, 45, 95
1, 104760, Note_on_c, 9, 36, 95
1, 104879, Note_on_c, 9, 45, 0
1, 104880, Note_on_c, 9, 41, 95
1, 104999, Note_on_c, 9, 36, 0
1, 105000, Note_on_c, 9, 36, 95
1, 105119, Note_on_c, 9, 41, 0
1, 105119, Note_on_c, 9, 36, 0
1, 105120, Note_on_c, 9, 38, 95
1, 105120, Note_on_c, 9, 42, 95
1, 105123, Note_on_c, 9, 42, 0
1, 105239, Note_on_c, 9, 38, 0
1, 105240, Note_on_c, 9, 37, 95
1, 105247, Note_on_c, 9, 37, 0
1, 105480, Note_on_c, 9, 37, 95
1, 105483, Note_on_c, 9, 37, 0
1, 105600, Note_on_c, 9, 41, 95
1, 105600, Note_on_c, 9, 42, 95
1, 105600, Note_on_c, 9, 36, 95
1, 105607, Note_on_c, 9, 42, 0
1, 105839, Note_on_c, 9, 41, 0
1, 105840, Note_on_c, 9, 41, 95
1, 105959, Note_on_c, 9, 41, 0
1, 105960, Note_on_c, 9, 45, 95
1, 106079, Note_on_c, 9, 36, 0
1, 106079, Note_on_c, 9, 45, 0
1, 106080, Note_on_c, 9, 45, 95
1, 106080, Note_on_c, 9, 42, 95
1, 106083, Note_on_c, 9, 42, 0
1, 106199, Note_on_c, 9, 45, 0
1, 106200, Note_on_c, 9, 41, 95
1, 106319, Note_on_c, 9, 41, 0
1, 106320, Note_on_c, 9, 47, 95
1, 106439, Note_on_c, 9, 47, 0
1, 106440, Note_on_c, 9, 47, 95
1, 106559, Note_on_c, 9, 47, 0
1, 106560, Note_on_c, 9, 41, 95
1, 106560, Note_on_c, 9, 42, 95
1, 106563, Note_on_c, 9, 42, 0
1, 106679, Note_on_c, 9, 41, 0
1, 106680, Note_on_c, 9, 45, 95
1, 106680, Note_on_c, 9, 36, 95
1, 106799, Note_on_c, 9, 45, 0
1, 106800, Note_on_c, 9, 41, 95
1, 106919, Note_on_c, 9, 36, 0
1, 106920, Note_on_c, 9, 36, 95
1, 107039, Note_on_c, 9, 41, 0
1, 107039, Note_on_c, 9, 36, 0
1, 107040, Note_on_c, 9, 38, 95
1, 107040, Note_on_c, 9, 42, 95
1, 107040, Note_on_c, 9, 52, 95
1, 107056, Note_on_c, 9, 42, 0
1, 107056, Note_on_c, 9, 52, 0
1, 107519, Note_on_c, 9, 38, 0
1, 107520, Note_on_c, 9, 41, 95
1, 107520, Note_on_c, 9, 42, 95
1, 107520, Note_on_c, 9, 36, 95
1, 107527, Note_on_c, 9, 42, 0
1, 107759, Note_on_c, 9, 41, 0
1, 107760, Note_on_c, 9, 41, 95
1, 107879, Note_on_c, 9, 41, 0
1, 107880, Note_on_c, 9, 45, 95
1, 107999, Note_on_c, 9, 36, 0
1, 107999, Note_on_c, 9, 45, 0
1, 108000, Note_on_c, 9, 45, 95
1, 108000, Note_on_c, 9, 42, 95
1, 108003, Note_on_c, 9, 42, 0
1, 108119, Note_on_c, 9, 45, 0
1, 108120, Note_on_c, 9, 41, 95
1, 108239, Note_on_c, 9, 41, 0
1, 108240, Note_on_c, 9, 47, 95
1, 108359, Note_on_c, 9, 47, 0
1, 108360, Note_on_c, 9, 47, 95
1, 108479, Note_on_c, 9, 47, 0
1, 108480, Note_on_c, 9, 41, 95
1, 108480, Note_on_c, 9, 42, 95
1, 108483, Note_on_c, 9, 42, 0
1, 108599, Note_on_c, 9, 41, 0
1, 108600, Note_on_c, 9, 45, 95
1, 108600, Note_on_c, 9, 36, 95
1, 108719, Note_on_c, 9, 45, 0
1, 108720, Note_on_c, 9, 41, 95
1, 108839, Note_on_c, 9, 36, 0
1, 108840, Note_on_c, 9, 36, 95
1, 108959, Note_on_c, 9, 41, 0
1, 108959, Note_on_c, 9, 36, 0
1, 108960, Note_on_c, 9, 38, 95
1, 108960, Note_on_c, 9, 42, 95
1, 108976, Note_on_c, 9, 42, 0
1, 109439, Note_on_c, 9, 38, 0
1, 109440, Note_on_c, 9, 41, 95
1, 109440, Note_on_c, 9, 42, 95
1, 109440, Note_on_c, 9, 36, 95
1, 109447, Note_on_c, 9, 42, 0
1, 109679, Note_on_c, 9, 41, 0
1, 109680, Note_on_c, 9, 41, 95
1, 109799, Note_on_c, 9, 41, 0
1, 109800, Note_on_c, 9, 45, 95
1, 109919, Note_on_c, 9, 36, 0
1, 109919, Note_on_c, 9, 45, 0
1, 109920, Note_on_c, 9, 45, 95
1, 109920, Note_on_c, 9, 42, 95
1, 109923, Note_on_c, 9, 42, 0
1, 110039, Note_on_c, 9, 45, 0
1, 110040, Note_on_c, 9, 41, 95
1, 110159, Note_on_c, 9, 41, 0
1, 110160, Note_on_c, 9, 47, 95
1, 110279, Note_on_c, 9, 47, 0
1, 110280, Note_on_c, 9, 47, 95
1, 110399, Note_on_c, 9, 47, 0
1, 110400, Note_on_c, 9, 41, 95
1, 110400, Note_on_c, 9, 42, 95
1, 110403, Note_on_c, 9, 42, 0
1, 110519, Note_on_c, 9, 41, 0
1, 110520, Note_on_c, 9, 45, 95
1, 110520, Note_on_c, 9, 36, 95
1, 110639, Note_on_c, 9, 45, 0
1, 110640, Note_on_c, 9, 41, 95
1, 110759, Note_on_c, 9, 36, 0
1, 110760, Note_on_c, 9, 36, 95
1, 110879, Note_on_c, 9, 41, 0
1, 110879, Note_on_c, 9, 36, 0
1, 110880, Note_on_c, 9, 38, 95
1, 110880, Note_on_c, 9, 42, 95
1, 110896, Note_on_c, 9, 42, 0
1, 111359, Note_on_c, 9, 38, 0
1, 111360, Note_on_c, 9, 41, 95
1, 111360, Note_on_c, 9, 42, 95
1, 111360, Note_on_c, 9, 36, 95
1, 111367, Note_on_c, 9, 42, 0
1, 111599, Note_on_c, 9, 41, 0
1, 111600, Note_on_c, 9, 41, 95
1, 111719, Note_on_c, 9, 41, 0
1, 111720, Note_on_c, 9, 45, 95
1, 111839, Note_on_c, 9, 36, 0
1, 111839, Note_on_c, 9, 45, 0
1, 111840, Note_on_c, 9, 45, 95
1, 111840, Note_on_c, 9, 42, 95
1, 111843, Note_on_c, 9, 42, 0
1, 111959, Note_on_c, 9, 45, 0
1, 111960, Note_on_c, 9, 41, 95
1, 112079, Note_on_c, 9, 41, 0
1, 112080, Note_on_c, 9, 47, 95
1, 112199, Note_on_c, 9, 47, 0
1, 112200, Note_on_c, 9, 47, 95
1, 112319, Note_on_c, 9, 47, 0
1, 112320, Note_on_c, 9, 41, 95
1, 112320, Note_on_c, 9, 42, 95
1, 112323, Note_on_c, 9, 42, 0
1, 112439, Note_on_c, 9, 41, 0
1, 112440, Note_on_c, 9, 45, 95
1, 112440, Note_on_c, 9, 36, 95
1, 112559, Note_on_c, 9, 45, 0
1, 112560, Note_on_c, 9, 41, 95
1, 112679, Note_on_c, 9, 36, 0
1, 112680, Note_on_c, 9, 36, 95
1, 112799, Note_on_c, 9, 41, 0
1, 112799, Note_on_c, 9, 36, 0
1, 112800, Note_on_c, 9, 38, 95
1, 112800, Note_on_c, 9, 42, 95
1, 112816, Note_on_c, 9, 42, 0
1, 113279, Note_on_c, 9, 38, 0
1, 113280, Note_on_c, 9, 41, 95
1, 113280, Note_on_c, 9, 42, 95
1, 113280, Note_on_c, 9, 36, 95
1, 113287, Note_on_c, 9, 42, 0
1, 113519, Note_on_c, 9, 41, 0
1, 113520, Note_on_c, 9, 41, 95
1, 113639, Note_on_c, 9, 41, 0
1, 113640, Note_on_c, 9, 45, 95
1, 113759, Note_on_c, 9, 36, 0
1, 113759, Note_on_c, 9, 45, 0
1, 113760, Note_on_c, 9, 45, 95
1, 113760, Note_on_c, 9, 42, 95
1, 113763, Note_on_c, 9, 42, 0
1, 113879, Note_on_c, 9, 45, 0
1, 113880, Note_on_c, 9, 41, 95
1, 113999, Note_on_c, 9, 41, 0
1, 114000, Note_on_c, 9, 47, 95
1, 114119, Note_on_c, 9, 47, 0
1, 114120, Note_on_c, 9, 47, 95
1, 114239, Note_on_c, 9, 47, 0
1, 114240, Note_on_c, 9, 41, 95
1, 114240, Note_on_c, 9, 42, 95
1, 114243, Note_on_c, 9, 42, 0
1, 114359, Note_on_c, 9, 41, 0
1, 114360, Note_on_c, 9, 45, 95
1, 114360, Note_on_c, 9, 36, 95
1, 114479, Note_on_c, 9, 45, 0
1, 114480, Note_on_c, 9, 41, 95
1, 114599, Note_on_c, 9, 36, 0
1, 114600, Note_on_c, 9, 36, 95
1, 114719, Note_on_c, 9, 41, 0
1, 114719, Note_on_c, 9, 36, 0
1, 114720, Note_on_c, 9, 38, 95
1, 114720, Note_on_c, 9, 53, 95
1, 114720, Note_on_c, 9, 42, 95
1, 114727, Note_on_c, 9, 42, 0
1, 114959, Note_on_c, 9, 38, 0
1, 114959, Note_on_c, 9, 53, 0
1, 114960, Note_on_c, 9, 51, 95
1, 114967, Note_on_c, 9, 51, 0
1, 115200, Note_on_c, 9, 41, 95
1, 115200, Note_on_c, 9, 42, 95
1, 115200, Note_on_c, 9, 36, 95
1, 115207, Note_on_c, 9, 42, 0
1, 115439, Note_on_c, 9, 41, 0
1, 115440, Note_on_c, 9, 41, 95
1, 115559, Note_on_c, 9, 41, 0
1, 115560, Note_on_c, 9, 45, 95
1, 115679, Note_on_c, 9, 36, 0
1, 115679, Note_on_c, 9, 45, 0
1, 115680, Note_on_c, 9, 45, 95
1, 115680, Note_on_c, 9, 42, 95
1, 115683, Note_on_c, 9, 42, 0
1, 115799, Note_on_c, 9, 45, 0
1, 115800, Note_on_c, 9, 41, 95
1, 115919, Note_on_c, 9, 41, 0
1, 115920, Note_on_c, 9, 47, 95
1, 116039, Note_on_c, 9, 47, 0
1, 116040, Note_on_c, 9, 47, 95
1, 116159, Note_on_c, 9, 47, 0
1, 116160, Note_on_c, 9, 41, 95
1, 116160, Note_on_c, 9, 42, 95
1, 116163, Note_on_c, 9, 42, 0
1, 116279, Note_on_c, 9, 41, 0
1, 116280, Note_on_c, 9, 45, 95
1, 116280, Note_on_c, 9, 36, 95
1, 116399, Note_on_c, 9, 45, 0
1, 116400, Note_on_c, 9, 41, 95
1, 116519, Note_on_c, 9, 36, 0
1, 116520, Note_on_c, 9, 36, 95
1, 116639, Note_on_c, 9, 41, 0
1, 116639, Note_on_c, 9, 36, 0
1, 116640, Note_on_c, 9, 38, 95
1, 116640, Note_on_c, 9, 42, 95
1, 116656, Note_on_c, 9, 42, 0
1, 117119, Note_on_c, 9, 38, 0
1, 117120, Note_on_c, 9, 41, 95
1, 117120, Note_on_c, 9, 42, 95
1, 117120, Note_on_c, 9, 36, 95
1, 117127, Note_on_c, 9, 42, 0
1, 117359, Note_on_c, 9, 41, 0
1, 117360, Note_on_c, 9, 41, 95
1, 117479, Note_on_c, 9, 41, 0
1, 117480, Note_on_c, 9, 45, 95
1, 117599, Note_on_c, 9, 36, 0
1, 117599, Note_on_c, 9, 45, 0
1, 117600, Note_on_c, 9, 45, 95
1, 117600, Note_on_c, 9, 42, 95
1, 117603, Note_on_c, 9, 42, 0
1, 117719, Note_on_c, 9, 45, 0
1, 117720, Note_on_c, 9, 41, 95
1, 117839, Note_on_c, 9, 41, 0
1, 117840, Note_on_c, 9, 47, 95
1, 117959, Note_on_c, 9, 47, 0
1, 117960, Note_on_c, 9, 47, 95
1, 118079, Note_on_c, 9, 47, 0
1, 118080, Note_on_c, 9, 41, 95
1, 118080, Note_on_c, 9, 42, 95
1, 118083, Note_on_c, 9, 42, 0
1, 118199, Note_on_c, 9, 41, 0
1, 118200, Note_on_c, 9, 45, 95
1, 118200, Note_on_c, 9, 36, 95
1, 118319, Note_on_c, 9, 45, 0
1, 118320, Note_on_c, 9, 41, 95
1, 118439, Note_on_c, 9, 36, 0
1, 118440, Note_on_c, 9, 36, 95
1, 118559, Note_on_c, 9, 41, 0
1, 118559, Note_on_c, 9, 36, 0
1, 118560, Note_on_c, 9, 38, 95
1, 118560, Note_on_c, 9, 42, 95
1, 118576, Note_on_c, 9, 42, 0
1, 119039, Note_on_c, 9, 38, 0
1, 119040, Note_on_c, 9, 41, 95
1, 119040, Note_on_c, 9, 42, 95
1, 119040, Note_on_c, 9, 36, 95
1, 119047, Note_on_c, 9, 42, 0
1, 119279, Note_on_c, 9, 41, 0
1, 119280, Note_on_c, 9, 41, 95
1, 119399, Note_on_c, 9, 41, 0
1, 119400, Note_on_c, 9, 45, 95
1, 119519, Note_on_c, 9, 36, 0
1, 119519, Note_on_c, 9, 45, 0
1, 119520, Note_on_c, 9, 45, 95
1, 119520, Note_on_c, 9, 42, 95
1, 119523, Note_on_c, 9, 42, 0
1, 119639, Note_on_c, 9, 45, 0
1, 119640, Note_on_c, 9, 41, 95
1, 119759, Note_on_c, 9, 41, 0
1, 119760, Note_on_c, 9, 47, 95
1, 119879, Note_on_c, 9, 47, 0
1, 119880, Note_on_c, 9, 47, 95
1, 119999, Note_on_c, 9, 47, 0
1, 120000, Note_on_c, 9, 41, 95
1, 120000, Note_on_c, 9, 42, 95
1, 120003, Note_on_c, 9, 42, 0
1, 120119, Note_on_c, 9, 41, 0
1, 120120, Note_on_c, 9, 45, 95
1, 120120, Note_on_c, 9, 36, 95
1, 120239, Note_on_c, 9, 45, 0
1, 120240, Note_on_c, 9, 41, 95
1, 120359, Note_on_c, 9, 36, 0
1, 120360, Note_on_c, 9, 36, 95
1, 120479, Note_on_c, 9, 41, 0
1, 120479, Note_on_c, 9, 36, 0
1, 120480, Note_on_c, 9, 38, 95
1, 120480, Note_on_c, 9, 42, 95
1, 120496, Note_on_c, 9, 42, 0
1, 120959, Note_on_c, 9, 38, 0
1, 120960, Note_on_c, 9, 41, 95
1, 120960, Note_on_c, 9, 42, 95
1, 120960, Note_on_c, 9, 36, 95
1, 120967, Note_on_c, 9, 42, 0
1, 121199, Note_on_c, 9, 41, 0
1, 121200, Note_on_c, 9, 41, 95
1, 121319, Note_on_c, 9, 41, 0
1, 121320, Note_on_c, 9, 45, 95
1, 121439, Note_on_c, 9, 36, 0
1, 121439, Note_on_c, 9, 45, 0
1, 121440, Note_on_c, 9, 45, 95
1, 121440, Note_on_c, 9, 42, 95
1, 121443, Note_on_c, 9, 42, 0
1, 121559, Note_on_c, 9, 45, 0
1, 121560, Note_on_c, 9, 41, 95
1, 121679, Note_on_c, 9, 41, 0
1, 121680, Note_on_c, 9, 47, 95
1, 121799, Note_on_c, 9, 47, 0
1, 121800, Note_on_c, 9, 47, 95
1, 121919, Note_on_c, 9, 47, 0
1, 121920, Note_on_c, 9, 41, 95
1, 121920, Note_on_c, 9, 42, 95
1, 121923, Note_on_c, 9, 42, 0
1, 122039, Note_on_c, 9, 41, 0
1, 122040, Note_on_c, 9, 45, 95
1, 122040, Note_on_c, 9, 36, 95
1, 122159, Note_on_c, 9, 45, 0
1, 122160, Note_on_c, 9, 41, 95
1, 122279, Note_on_c, 9, 36, 0
1, 122280, Note_on_c, 9, 36, 95
1, 122399, Note_on_c, 9, 41, 0
1, 122399, Note_on_c, 9, 36, 0
1, 122400, Note_on_c, 9, 38, 95
1, 122400, Note_on_c, 9, 51, 95
1, 122400, Note_on_c, 9, 42, 95
1, 122400, Note_on_c, 9, 52, 95
1, 122407, Note_on_c, 9, 51, 0
1, 122407, Note_on_c, 9, 42, 0
1, 122407, Note_on_c, 9, 52, 0
1, 122639, Note_on_c, 9, 38, 0
1, 122640, Note_on_c, 9, 51, 95
1, 122643, Note_on_c, 9, 51, 0
1, 122760, Note_on_c, 9, 51, 95
1, 122763, Note_on_c, 9, 51, 0
1, 122880, Note_on_c, 9, 41, 95
1, 122880, Note_on_c, 9, 42, 95
1, 122880, Note_on_c, 9, 36, 95
1, 122887, Note_on_c, 9, 42, 0
1, 123119, Note_on_c, 9, 41, 0
1, 123120, Note_on_c, 9, 41, 95
1, 123239, Note_on_c, 9, 41, 0
1, 123240, Note_on_c, 9, 45, 95
1, 123359, Note_on_c, 9, 36, 0
1, 123359, Note_on_c, 9, 45, 0
1, 123360, Note_on_c, 9, 45, 95
1, 123360, Note_on_c, 9, 42, 95
1, 123363, Note_on_c, 9, 42, 0
1, 123479, Note_on_c, 9, 45, 0
1, 123480, Note_on_c, 9, 41, 95
1, 123599, Note_on_c, 9, 41, 0
1, 123600, Note_on_c, 9, 47, 95
1, 123719, Note_on_c, 9, 47, 0
1, 123720, Note_on_c, 9, 47, 95
1, 123839, Note_on_c, 9, 47, 0
1, 123840, Note_on_c, 9, 41, 95
1, 123840, Note_on_c, 9, 42, 95
1, 123843, Note_on_c, 9, 42, 0
1, 123959, Note_on_c, 9, 41, 0
1, 123960, Note_on_c, 9, 45, 95
1, 123960, Note_on_c, 9, 36, 95
1, 124079, Note_on_c, 9, 45, 0
1, 124080, Note_on_c, 9, 41, 95
1, 124199, Note_on_c, 9, 36, 0
1, 124200, Note_on_c, 9, 36, 95
1, 124319, Note_on_c, 9, 41, 0
1, 124319, Note_on_c, 9, 36, 0
1, 124320, Note_on_c, 9, 38, 95
1, 124320, Note_on_c, 9, 42, 95
1, 124336, Note_on_c, 9, 42, 0
1, 124799, Note_on_c, 9, 38, 0
1, 124800, Note_on_c, 9, 41, 95
1, 124800, Note_on_c, 9, 42, 95
1, 124800, Note_on_c, 9, 36, 95
1, 124807, Note_on_c, 9, 42, 0
1, 125039, Note_on_c, 9, 41, 0
1, 125040, Note_on_c, 9, 41, 95
1, 125159, Note_on_c, 9, 41, 0
1, 125160, Note_on_c, 9, 45, 95
1, 125279, Note_on_c, 9, 36, 0
1, 125279, Note_on_c, 9, 45, 0
1, 125280, Note_on_c, 9, 45, 95
1, 125280, Note_on_c, 9, 42, 95
1, 125283, Note_on_c, 9, 42, 0
1, 125399, Note_on_c, 9, 45, 0
1, 125400, Note_on_c, 9, 41, 95
1, 125519, Note_on_c, 9, 41, 0
1, 125520, Note_on_c, 9, 47, 95
1, 125639, Note_on_c, 9, 47, 0
1, 125640, Note_on_c, 9, 47, 95
1, 125759, Note_on_c, 9, 47, 0
1, 125760, Note_on_c, 9, 41, 95
1, 125760, Note_on_c, 9, 42, 95
1, 125763, Note_on_c, 9, 42, 0
1, 125879, Note_on_c, 9, 41, 0
1, 125880, Note_on_c, 9, 45, 95
1, 125880, Note_on_c, 9, 36, 95
1, 125999, Note_on_c, 9, 45, 0
1, 126000, Note_on_c, 9, 41, 95
1, 126119, Note_on_c, 9, 36, 0
1, 126120, Note_on_c, 9, 36, 95
1, 126239, Note_on_c, 9, 41, 0
1, 126239, Note_on_c, 9, 36, 0
1, 126240, Note_on_c, 9, 38, 95
1, 126240, Note_on_c, 9, 42, 95
1, 126256, Note_on_c, 9, 42, 0
1, 126719, Note_on_c, 9, 38, 0
1, 126720, Note_on_c, 9, 41, 95
1, 126720, Note_on_c, 9, 42, 95
1, 126720, Note_on_c, 9, 36, 95
1, 126727, Note_on_c, 9, 42, 0
1, 126959, Note_on_c, 9, 41, 0
1, 126960, Note_on_c, 9, 41, 95
1, 127079, Note_on_c, 9, 41, 0
1, 127080, Note_on_c, 9, 45, 95
1, 127199, Note_on_c, 9, 36, 0
1, 127199, Note_on_c, 9, 45, 0
1, 127200, Note_on_c, 9, 45, 95
1, 127200, Note_on_c, 9, 42, 95
1, 127203, Note_on_c, 9, 42, 0
1, 127319, Note_on_c, 9, 45, 0
1, 127320, Note_on_c, 9, 41, 95
1, 127439, Note_on_c, 9, 41, 0
1, 127440, Note_on_c, 9, 47, 95
1, 127559, Note_on_c, 9, 47, 0
1, 127560, Note_on_c, 9, 47, 95
1, 127679, Note_on_c, 9, 47, 0
1, 127680, Note_on_c, 9, 41, 95
1, 127680, Note_on_c, 9, 42, 95
1, 127683, Note_on_c, 9, 42, 0
1, 127799, Note_on_c, 9, 41, 0
1, 127800, Note_on_c, 9, 45, 95
1, 127800, Note_on_c, 9, 36, 95
1, 127919, Note_on_c, 9, 45, 0
1, 127920, Note_on_c, 9, 41, 95
1, 128039, Note_on_c, 9, 36, 0
1, 128040, Note_on_c, 9, 36, 95
1, 128159, Note_on_c, 9, 41, 0
1, 128159, Note_on_c, 9, 36, 0
1, 128160, Note_on_c, 9, 38, 95
1, 128160, Note_on_c, 9, 42, 95
1, 128176, Note_on_c, 9, 42, 0
1, 128639, Note_on_c, 9, 38, 0
1, 128640, Note_on_c, 9, 41, 95
1, 128640, Note_on_c, 9, 42, 95
1, 128640, Note_on_c, 9, 36, 95
1, 128647, Note_on_c, 9, 42, 0
1, 128879, Note_on_c, 9, 41, 0
1, 128880, Note_on_c, 9, 41, 95
1, 128999, Note_on_c, 9, 41, 0
1, 129000, Note_on_c, 9, 45, 95
1, 129119, Note_on_c, 9, 36, 0
1, 129119, Note_on_c, 9, 45, 0
1, 129120, Note_on_c, 9, 45, 95
1, 129120, Note_on_c, 9, 42, 95
1, 129123, Note_on_c, 9, 42, 0
1, 129239, Note_on_c, 9, 45, 0
1, 129240, Note_on_c, 9, 41, 95
1, 129359, Note_on_c, 9, 41, 0
1, 129360, Note_on_c, 9, 47, 95
1, 129479, Note_on_c, 9, 47, 0
1, 129480, Note_on_c, 9, 47, 95
1, 129599, Note_on_c, 9, 47, 0
1, 129600, Note_on_c, 9, 41, 95
1, 129600, Note_on_c, 9, 42, 95
1, 129603, Note_on_c, 9, 42, 0
1, 129719, Note_on_c, 9, 41, 0
1, 129720, Note_on_c, 9, 45, 95
1, 129720, Note_on_c, 9, 36, 95
1, 129839, Note_on_c, 9, 45, 0
1, 129840, Note_on_c, 9, 41, 95
1, 129959, Note_on_c, 9, 36, 0
1, 129960, Note_on_c, 9, 36, 95
1, 130079, Note_on_c, 9, 41, 0
1, 130079, Note_on_c, 9, 36, 0
1, 130080, Note_on_c, 9, 38, 95
1, 130080, Note_on_c, 9, 51, 95
1, 130080, Note_on_c, 9, 42, 95
1, 130096, Note_on_c, 9, 51, 0
1, 130096, Note_on_c, 9, 42, 0
1, 130559, Note_on_c, 9, 38, 0
1, 130560, Note_on_c, 9, 41, 95
1, 130560, Note_on_c, 9, 42, 95
1, 130560, Note_on_c, 9, 36, 95
1, 130567, Note_on_c, 9, 42, 0
1, 130799, Note_on_c, 9, 41, 0
1, 130800, Note_on_c, 9, 41, 95
1, 130919, Note_on_c, 9, 41, 0
1, 130920, Note_on_c, 9, 45, 95
1, 131039, Note_on_c, 9, 36, 0
1, 131039, Note_on_c, 9, 45, 0
1, 131040, Note_on_c, 9, 45, 95
1, 131040, Note_on_c, 9, 42, 95
1, 131043, Note_on_c, 9, 42, 0
1, 131159, Note_on_c, 9, 45, 0
1, 131160, Note_on_c, 9, 41, 95
1, 131279, Note_on_c, 9, 41, 0
1, 131280, Note_on_c, 9, 47, 95
1, 131399, Note_on_c, 9, 47, 0
1, 131400, Note_on_c, 9, 47, 95
1, 131519, Note_on_c, 9, 47, 0
1, 131520, Note_on_c, 9, 41, 95
1, 131520, Note_on_c, 9, 42, 95
1, 131523, Note_on_c, 9, 42, 0
1, 131639, Note_on_c, 9, 41, 0
1, 131640, Note_on_c, 9, 45, 95
1, 131640, Note_on_c, 9, 36, 95
1, 131759, Note_on_c, 9, 45, 0
1, 131760, Note_on_c, 9, 41, 95
1, 131879, Note_on_c, 9, 36, 0
1, 131880, Note_on_c, 9, 36, 95
1, 131999, Note_on_c, 9, 41, 0
1, 131999, Note_on_c, 9, 36, 0
1, 132000, Note_on_c, 9, 38, 95
1, 132000, Note_on_c, 9, 42, 95
1, 132016, Note_on_c, 9, 42, 0
1, 132479, Note_on_c, 9, 38, 0
1, 132480, Note_on_c, 9, 41, 95
1, 132480, Note_on_c, 9, 42, 95
1, 132480, Note_on_c, 9, 36, 95
1, 132487, Note_on_c, 9, 42, 0
1, 132719, Note_on_c, 9, 41, 0
1, 132720, Note_on_c, 9, 41, 95
1, 132839, Note_on_c, 9, 41, 0
1, 132840, Note_on_c, 9, 45, 95
1, 132959, Note_on_c, 9, 36, 0
1, 132959, Note_on_c, 9, 45, 0
1, 132960, Note_on_c, 9, 45, 95
1, 132960, Note_on_c, 9, 42, 95
1, 132963, Note_on_c, 9, 42, 0
1, 133079, Note_on_c, 9, 45, 0
1, 133080, Note_on_c, 9, 41, 95
1, 133199, Note_on_c, 9, 41, 0
1, 133200, Note_on_c, 9, 47, 95
1, 133319, Note_on_c, 9, 47, 0
1, 133320, Note_on_c, 9, 47, 95
1, 133439, Note_on_c, 9, 47, 0
1, 133440, Note_on_c, 9, 41, 95
1, 133440, Note_on_c, 9, 42, 95
1, 133443, Note_on_c, 9, 42, 0
1, 133559, Note_on_c, 9, 41, 0
1, 133560, Note_on_c, 9, 45, 95
1, 133560, Note_on_c, 9, 36, 95
1, 133679, Note_on_c, 9, 45, 0
1, 133680, Note_on_c, 9, 41, 95
1, 133799, Note_on_c, 9, 36, 0
1, 133800, Note_on_c, 9, 36, 95
1, 133919, Note_on_c, 9, 41, 0
1, 133919, Note_on_c, 9, 36, 0
1, 133920, Note_on_c, 9, 38, 95
1, 133920, Note_on_c, 9, 42, 95
1, 133936, Note_on_c, 9, 42, 0
1, 134399, Note_on_c, 9, 38, 0
1, 134400, Note_on_c, 9, 41, 95
1, 134400, Note_on_c, 9, 42, 95
1, 134400, Note_on_c, 9, 36, 95
1, 134407, Note_on_c, 9, 42, 0
1, 134639, Note_on_c, 9, 41, 0
1, 134640, Note_on_c, 9, 41, 95
1, 134759, Note_on_c, 9, 41, 0
1, 134760, Note_on_c, 9, 45, 95
1, 134879, Note_on_c, 9, 36, 0
1, 134879, Note_on_c, 9, 45, 0
1, 134880, Note_on_c, 9, 45, 95
1, 134880, Note_on_c, 9, 42, 95
1, 134883, Note_on_c, 9, 42, 0
1, 134999, Note_on_c, 9, 45, 0
1, 135000, Note_on_c, 9, 41, 95
1, 135119, Note_on_c, 9, 41, 0
1, 135120, Note_on_c, 9, 47, 95
1, 135239, Note_on_c, 9, 47, 0
1, 135240, Note_on_c, 9, 47, 95
1, 135359, Note_on_c, 9, 47, 0
1, 135360, Note_on_c, 9, 41, 95
1, 135360, Note_on_c, 9, 42, 95
1, 135363, Note_on_c, 9, 42, 0
1, 135479, Note_on_c, 9, 41, 0
1, 135480, Note_on_c, 9, 45, 95
1, 135480, Note_on_c, 9, 36, 95
1, 135599, Note_on_c, 9, 45, 0
1, 135600, Note_on_c, 9, 41, 95
1, 135719, Note_on_c, 9, 36, 0
1, 135720, Note_on_c, 9, 36, 95
1, 135839, Note_on_c, 9, 41, 0
1, 135839, Note_on_c, 9, 36, 0
1, 135840, Note_on_c, 9, 38, 95
1, 135840, Note_on_c, 9, 42, 95
1, 135856, Note_on_c, 9, 42, 0
1, 136319, Note_on_c, 9, 38, 0
1, 136320, Note_on_c, 9, 41, 95
1, 136320, Note_on_c, 9, 42, 95
1, 136320, Note_on_c, 9, 36, 95
1, 136327, Note_on_c, 9, 42, 0
1, 136559, Note_on_c, 9, 41, 0
1, 136560, Note_on_c, 9, 41, 95
1, 136679, Note_on_c, 9, 41, 0
1, 136680, Note_on_c, 9, 45, 95
1, 136799, Note_on_c, 9, 36, 0
1, 136799, Note_on_c, 9, 45, 0
1, 136800, Note_on_c, 9, 45, 95
1, 136800, Note_on_c, 9, 42, 95
1, 136803, Note_on_c, 9, 42, 0
1, 136919, Note_on_c, 9, 45, 0
1, 136920, Note_on_c, 9, 41, 95
1, 137039, Note_on_c, 9, 41, 0
1, 137040, Note_on_c, 9, 47, 95
1, 137159, Note_on_c, 9, 47, 0
1, 137160, Note_on_c, 9, 47, 95
1, 137279, Note_on_c, 9, 47, 0
1, 137280, Note_on_c, 9, 41, 95
1, 137280, Note_on_c, 9, 42, 95
1, 137283, Note_on_c, 9, 42, 0
1, 137399, Note_on_c, 9, 41, 0
1, 137400, Note_on_c, 9, 45, 95
1, 137400, Note_on_c, 9, 36, 95
1, 137519, Note_on_c, 9, 45, 0
1, 137520, Note_on_c, 9, 41, 95
1, 137639, Note_on_c, 9, 36, 0
1, 137640, Note_on_c, 9, 36, 95
1, 137759, Note_on_c, 9, 41, 0
1, 137759, Note_on_c, 9, 36, 0
1, 137760, Note_on_c, 9, 38, 95
1, 137760, Note_on_c, 9, 53, 95
1, 137760, Note_on_c, 9, 42, 95
1, 137772, Note_on_c, 9, 42, 0
1, 138119, Note_on_c, 9, 38, 0
1, 138119, Note_on_c, 9, 53, 0
1, 138120, Note_on_c, 9, 51, 95
1, 138123, Note_on_c, 9, 51, 0
1, 138240, Note_on_c, 9, 41, 95
1, 138240, Note_on_c, 9, 42, 95
1, 138240, Note_on_c, 9, 36, 95
1, 138247, Note_on_c, 9, 42, 0
1, 138479, Note_on_c, 9, 41, 0
1, 138480, Note_on_c, 9, 41, 95
1, 138599, Note_on_c, 9, 41, 0
1, 138600, Note_on_c, 9, 45, 95
1, 138719, Note_on_c, 9, 36, 0
1, 138719, Note_on_c, 9, 45, 0
1, 138720, Note_on_c, 9, 45, 95
1, 138720, Note_on_c, 9, 42, 95
1, 138723, Note_on_c, 9, 42, 0
1, 138839, Note_on_c, 9, 45, 0
1, 138840, Note_on_c, 9, 41, 95
1, 138959, Note_on_c, 9, 41, 0
1, 138960, Note_on_c, 9, 47, 95
1, 139079, Note_on_c, 9, 47, 0
1, 139080, Note_on_c, 9, 47, 95
1, 139199, Note_on_c, 9, 47, 0
1, 139200, Note_on_c, 9, 41, 95
1, 139200, Note_on_c, 9, 42, 95
1, 139203, Note_on_c, 9, 42, 0
1, 139319, Note_on_c, 9, 41, 0
1, 139320, Note_on_c, 9, 45, 95
1, 139320, Note_on_c, 9, 36, 95
1, 139439, Note_on_c, 9, 45, 0
1, 139440, Note_on_c, 9, 41, 95
1, 139559, Note_on_c, 9, 36, 0
1, 139560, Note_on_c, 9, 36, 95
1, 139679, Note_on_c, 9, 41, 0
1, 139679, Note_on_c, 9, 36, 0
1, 139680, Note_on_c, 9, 38, 95
1, 139680, Note_on_c, 9, 42, 95
1, 139696, Note_on_c, 9, 42, 0
1, 140159, Note_on_c, 9, 38, 0
1, 140160, Note_on_c, 9, 41, 95
1, 140160, Note_on_c, 9, 42, 95
1, 140160, Note_on_c, 9, 36, 95
1, 140167, Note_on_c, 9, 42, 0
1, 140399, Note_on_c, 9, 41, 0
1, 140400, Note_on_c, 9, 41, 95
1, 140519, Note_on_c, 9, 41, 0
1, 140520, Note_on_c, 9, 45, 95
1, 140639, Note_on_c, 9, 36, 0
1, 140639, Note_on_c, 9, 45, 0
1, 140640, Note_on_c, 9, 45, 95
1, 140640, Note_on_c, 9, 42, 95
1, 140643, Note_on_c, 9, 42, 0
1, 140759, Note_on_c, 9, 45, 0
1, 140760, Note_on_c, 9, 41, 95
1, 140879, Note_on_c, 9, 41, 0
1, 140880, Note_on_c, 9, 47, 95
1, 140999, Note_on_c, 9, 47, 0
1, 141000, Note_on_c, 9, 47, 95
1, 141119, Note_on_c, 9, 47, 0
1, 141120, Note_on_c, 9, 41, 95
1, 141120, Note_on_c, 9, 42, 95
1, 141123, Note_on_c, 9, 42, 0
1, 141239, Note_on_c, 9, 41, 0
1, 141240, Note_on_c, 9, 37, 95
1, 141240, Note_on_c, 9, 45, 95
1, 141240, Note_on_c, 9, 36, 95
1, 141243, Note_on_c, 9, 37, 0
1, 141359, Note_on_c, 9, 45, 0
1, 141360, Note_on_c, 9, 41, 95
1, 141479, Note_on_c, 9, 36, 0
1, 141480, Note_on_c, 9, 36, 95
1, 141599, Note_on_c, 9, 41, 0
1, 141599, Note_on_c, 9, 36, 0
1, 141600, Note_on_c, 9, 38, 95
1, 141600, Note_on_c, 9, 51, 95
1, 141600, Note_on_c, 9, 42, 95
1, 141616, Note_on_c, 9, 51, 0
1, 141616, Note_on_c, 9, 42, 0
1, 142079, Note_on_c, 9, 38, 0
1, 142080, Note_on_c, 9, 41, 95
1, 142080, Note_on_c, 9, 42, 95
1, 142080, Note_on_c, 9, 36, 95
1, 142087, Note_on_c, 9, 42, 0
1, 142319, Note_on_c, 9, 41, 0
1, 142320, Note_on_c, 9, 41, 95
1, 142439, Note_on_c, 9, 41, 0
1, 142440, Note_on_c, 9, 45, 95
1, 142559, Note_on_c, 9, 36, 0
1, 142559, Note_on_c, 9, 45, 0
1, 142560, Note_on_c, 9, 45, 95
1, 142560, Note_on_c, 9, 42, 95
1, 142563, Note_on_c, 9, 42, 0
1, 142679, Note_on_c, 9, 45, 0
1, 142680, Note_on_c, 9, 41, 95
1, 142799, Note_on_c, 9, 41, 0
1, 142800, Note_on_c, 9, 47, 95
1, 142919, Note_on_c, 9, 47, 0
1, 142920, Note_on_c, 9, 47, 95
1, 143039, Note_on_c, 9, 47, 0
1, 143040, Note_on_c, 9, 41, 95
1, 143040, Note_on_c, 9, 42, 95
1, 143043, Note_on_c, 9, 42, 0
1, 143159, Note_on_c, 9, 41, 0
1, 143160, Note_on_c, 9, 45, 95
1, 143160, Note_on_c, 9, 36, 95
1, 143279, Note_on_c, 9, 45, 0
1, 143280, Note_on_c, 9, 41, 95
1, 143399, Note_on_c, 9, 36, 0
1, 143400, Note_on_c, 9, 36, 95
1, 143519, Note_on_c, 9, 41, 0
1, 143519, Note_on_c, 9, 36, 0
1, 143520, Note_on_c, 9, 38, 95
1, 143520, Note_on_c, 9, 42, 95
1, 143536, Note_on_c, 9, 42, 0
1, 143999, Note_on_c, 9, 38, 0
1, 144000, Note_on_c, 9, 41, 95
1, 144000, Note_on_c, 9, 42, 95
1, 144000, Note_on_c, 9, 36, 95
1, 144007, Note_on_c, 9, 42, 0
1, 144239, Note_on_c, 9, 41, 0
1, 144240, Note_on_c, 9, 41, 95
1, 144359, Note_on_c, 9, 41, 0
1, 144360, Note_on_c, 9, 45, 95
1, 144479, Note_on_c, 9, 36, 0
1, 144479, Note_on_c, 9, 45, 0
1, 144480, Note_on_c, 9, 45, 95
1, 144480, Note_on_c, 9, 42, 95
1, 144483, Note_on_c, 9, 42, 0
1, 144599, Note_on_c, 9, 45, 0
1, 144600, Note_on_c, 9, 41, 95
1, 144719, Note_on_c, 9, 41, 0
1, 144720, Note_on_c, 9, 47, 95
1, 144839, Note_on_c, 9, 47, 0
1, 144840, Note_on_c, 9, 47, 95
1, 144959, Note_on_c, 9, 47, 0
1, 144960, Note_on_c, 9, 41, 95
1, 144960, Note_on_c, 9, 42, 95
1, 144963, Note_on_c, 9, 42, 0
1, 145079, Note_on_c, 9, 41, 0
1, 145080, Note_on_c, 9, 45, 95
1, 145080, Note_on_c, 9, 36, 95
1, 145199, Note_on_c, 9, 45, 0
1, 145200, Note_on_c, 9, 41, 95
1, 145319, Note_on_c, 9, 36, 0
1, 145320, Note_on_c, 9, 36, 95
1, 145439, Note_on_c, 9, 41, 0
1, 145439, Note_on_c, 9, 36, 0
1, 145440, Note_on_c, 9, 38, 95
1, 145440, Note_on_c, 9, 51, 95
1, 145440, Note_on_c, 9, 42, 95
1, 145452, Note_on_c, 9, 51, 0
1, 145452, Note_on_c, 9, 42, 0
1, 145799, Note_on_c, 9, 38, 0
1, 145800, Note_on_c, 9, 51, 95
1, 145803, Note_on_c, 9, 51, 0
1, 145920, Note_on_c, 9, 41, 95
1, 145920, Note_on_c, 9, 36, 95
1, 146159, Note_on_c, 9, 41, 0
1, 146160, Note_on_c, 9, 41, 95
1, 146279, Note_on_c, 9, 41, 0
1, 146280, Note_on_c, 9, 45, 95
1, 146399, Note_on_c, 9, 36, 0
1, 146399, Note_on_c, 9, 45, 0
1, 146400, Note_on_c, 9, 45, 95
1, 146519, Note_on_c, 9, 45, 0
1, 146520, Note_on_c, 9, 41, 95
1, 146639, Note_on_c, 9, 41, 0
1, 146640, Note_on_c, 9, 47, 95
1, 146759, Note_on_c, 9, 47, 0
1, 146760, Note_on_c, 9, 47, 95
1, 146879, Note_on_c, 9, 47, 0
1, 146880, Note_on_c, 9, 41, 95
1, 146999, Note_on_c, 9, 41, 0
1, 147000, Note_on_c, 9, 45, 95
1, 147000, Note_on_c, 9, 36, 95
1, 147119, Note_on_c, 9, 45, 0
1, 147120, Note_on_c, 9, 41, 95
1, 147239, Note_on_c, 9, 36, 0
1, 147240, Note_on_c, 9, 36, 95
1, 147359, Note_on_c, 9, 41, 0
1, 147359, Note_on_c, 9, 36, 0
1, 147360, Note_on_c, 9, 38, 95
1, 147839, Note_on_c, 9, 38, 0
1, 147840, Note_on_c, 9, 41, 95
1, 147840, Note_on_c, 9, 36, 95
1, 148079, Note_on_c, 9, 41, 0
1, 148080, Note_on_c, 9, 41, 95
1, 148199, Note_on_c, 9, 41, 0
1, 148200, Note_on_c, 9, 45, 95
1, 148319, Note_on_c, 9, 36, 0
1, 148319, Note_on_c, 9, 45, 0
1, 148320, Note_on_c, 9, 45, 95
1, 148439, Note_on_c, 9, 45, 0
1, 148440, Note_on_c, 9, 41, 95
1, 148559, Note_on_c, 9, 41, 0
1, 148560, Note_on_c, 9, 47, 95
1, 148679, Note_on_c, 9, 47, 0
1, 148680, Note_on_c, 9, 47, 95
1, 148799, Note_on_c, 9, 47, 0
1, 148800, Note_on_c, 9, 41, 95
1, 148800, Note_on_c, 9, 37, 95
1, 148803, Note_on_c, 9, 37, 0
1, 148919, Note_on_c, 9, 41, 0
1, 148920, Note_on_c, 9, 45, 95
1, 148920, Note_on_c, 9, 36, 95
1, 149039, Note_on_c, 9, 45, 0
1, 149040, Note_on_c, 9, 41, 95
1, 149159, Note_on_c, 9, 36, 0
1, 149160, Note_on_c, 9, 36, 95
1, 149279, Note_on_c, 9, 41, 0
1, 149279, Note_on_c, 9, 36, 0
1, 149280, Note_on_c, 9, 38, 95
1, 149759, Note_on_c, 9, 38, 0
1, 149760, Note_on_c, 9, 41, 95
1, 149760, Note_on_c, 9, 36, 95
1, 149999, Note_on_c, 9, 41, 0
1, 150000, Note_on_c, 9, 41, 95
1, 150119, Note_on_c, 9, 41, 0
1, 150120, Note_on_c, 9, 45, 95
1, 150239, Note_on_c, 9, 36, 0
1, 150239, Note_on_c, 9, 45, 0
1, 150240, Note_on_c, 9, 45, 95
1, 150359, Note_on_c, 9, 45, 0
1, 150360, Note_on_c, 9, 41, 95
1, 150479, Note_on_c, 9, 41, 0
1, 150480, Note_on_c, 9, 47, 95
1, 150599, Note_on_c, 9, 47, 0
1, 150600, Note_on_c, 9, 47, 95
1, 150719, Note_on_c, 9, 47, 0
1, 150720, Note_on_c, 9, 41, 95
1, 150839, Note_on_c, 9, 41, 0
1, 150840, Note_on_c, 9, 45, 95
1, 150840, Note_on_c, 9, 36, 95
1, 150959, Note_on_c, 9, 45, 0
1, 150960, Note_on_c, 9, 41, 95
1, 151079, Note_on_c, 9, 36, 0
1, 151080, Note_on_c, 9, 36, 95
1, 151199, Note_on_c, 9, 41, 0
1, 151199, Note_on_c, 9, 36, 0
1, 151200, Note_on_c, 9, 38, 95
1, 151679, Note_on_c, 9, 38, 0
1, 151680, Note_on_c, 9, 41, 95
1, 151680, Note_on_c, 9, 36, 95
1, 151919, Note_on_c, 9, 41, 0
1, 151920, Note_on_c, 9, 41, 95
1, 152039, Note_on_c, 9, 41, 0
1, 152040, Note_on_c, 9, 45, 95
1, 152159, Note_on_c, 9, 36, 0
1, 152159, Note_on_c, 9, 45, 0
1, 152160, Note_on_c, 9, 45, 95
1, 152279, Note_on_c, 9, 45, 0
1, 152280, Note_on_c, 9, 41, 95
1, 152399, Note_on_c, 9, 41, 0
1, 152400, Note_on_c, 9, 47, 95
1, 152519, Note_on_c, 9, 47, 0
1, 152520, Note_on_c, 9, 47, 95
1, 152639, Note_on_c, 9, 47, 0
1, 152640, Note_on_c, 9, 41, 95
1, 152759, Note_on_c, 9, 41, 0
1, 152760, Note_on_c, 9, 45, 95
1, 152760, Note_on_c, 9, 36, 95
1, 152879, Note_on_c, 9, 45, 0
1, 152880, Note_on_c, 9, 41, 95
1, 152999, Note_on_c, 9, 36, 0
1, 153000, Note_on_c, 9, 36, 95
1, 153119, Note_on_c, 9, 41, 0
1, 153119, Note_on_c, 9, 36, 0
1, 153120, Note_on_c, 9, 38, 95
1, 153120, Note_on_c, 9, 51, 95
1, 153132, Note_on_c, 9, 51, 0
1, 153479, Note_on_c, 9, 38, 0
1, 153480, Note_on_c, 9, 51, 95
1, 153483, Note_on_c, 9, 51, 0
1, 153600, Note_on_c, 9, 41, 95
1, 153600, Note_on_c, 9, 36, 95
1, 153839, Note_on_c, 9, 41, 0
1, 153840, Note_on_c, 9, 41, 95
1, 153959, Note_on_c, 9, 41, 0
1, 153960, Note_on_c, 9, 45, 95
1, 154079, Note_on_c, 9, 36, 0
1, 154079, Note_on_c, 9, 45, 0
1, 154080, Note_on_c, 9, 45, 95
1, 154199, Note_on_c, 9, 45, 0
1, 154200, Note_on_c, 9, 41, 95
1, 154319, Note_on_c, 9, 41, 0
1, 154320, Note_on_c, 9, 47, 95
1, 154439, Note_on_c, 9, 47, 0
1, 154440, Note_on_c, 9, 47, 95
1, 154559, Note_on_c, 9, 47, 0
1, 154560, Note_on_c, 9, 41, 95
1, 154679, Note_on_c, 9, 41, 0
1, 154680, Note_on_c, 9, 45, 95
1, 154680, Note_on_c, 9, 36, 95
1, 154799, Note_on_c, 9, 45, 0
1, 154800, Note_on_c, 9, 41, 95
1, 154919, Note_on_c, 9, 36, 0
1, 154920, Note_on_c, 9, 36, 95
1, 155039, Note_on_c, 9, 41, 0
1, 155039, Note_on_c, 9, 36, 0
1, 155040, Note_on_c, 9, 38, 95
1, 155519, Note_on_c, 9, 38, 0
1, 155520, Note_on_c, 9, 41, 95
1, 155520, Note_on_c, 9, 36, 95
1, 155759, Note_on_c, 9, 41, 0
1, 155760, Note_on_c, 9, 41, 95
1, 155879, Note_on_c, 9, 41, 0
1, 155880, Note_on_c, 9, 45, 95
1, 155999, Note_on_c, 9, 36, 0
1, 155999, Note_on_c, 9, 45, 0
1, 156000, Note_on_c, 9, 45, 95
1, 156119, Note_on_c, 9, 45, 0
1, 156120, Note_on_c, 9, 41, 95
1, 156239, Note_on_c, 9, 41, 0
1, 156240, Note_on_c, 9, 47, 95
1, 156359, Note_on_c, 9, 47, 0
1, 156360, Note_on_c, 9, 47, 95
1, 156479, Note_on_c, 9, 47, 0
1, 156480, Note_on_c, 9, 41, 95
1, 156599, Note_on_c, 9, 41, 0
1, 156600, Note_on_c, 9, 45, 95
1, 156600, Note_on_c, 9, 36, 95
1, 156719, Note_on_c, 9, 45, 0
1, 156720, Note_on_c, 9, 41, 95
1, 156839, Note_on_c, 9, 36, 0
1, 156840, Note_on_c, 9, 36, 95
1, 156959, Note_on_c, 9, 41, 0
1, 156959, Note_on_c, 9, 36, 0
1, 156960, Note_on_c, 9, 38, 95
1, 157079, Note_on_c, 9, 38, 0
1, 157080, Note_on_c, 9, 37, 95
1, 157087, Note_on_c, 9, 37, 0
1, 157320, Note_on_c, 9, 37, 95
1, 157323, Note_on_c, 9, 37, 0
1, 157440, Note_on_c, 9, 41, 95
1, 157440, Note_on_c, 9, 36, 95
1, 157679, Note_on_c, 9, 41, 0
1, 157680, Note_on_c, 9, 41, 95
1, 157799, Note_on_c, 9, 41, 0
1, 157800, Note_on_c, 9, 45, 95
1, 157919, Note_on_c, 9, 36, 0
1, 157919, Note_on_c, 9, 45, 0
1, 157920, Note_on_c, 9, 45, 95
1, 158039, Note_on_c, 9, 45, 0
1, 158040, Note_on_c, 9, 41, 95
1, 158159, Note_on_c, 9, 41, 0
1, 158160, Note_on_c, 9, 47, 95
1, 158279, Note_on_c, 9, 47, 0
1, 158280, Note_on_c, 9, 47, 95
1, 158399, Note_on_c, 9, 47, 0
1, 158400, Note_on_c, 9, 41, 95
1, 158519, Note_on_c, 9, 41, 0
1, 158520, Note_on_c, 9, 45, 95
1, 158520, Note_on_c, 9, 36, 95
1, 158639, Note_on_c, 9, 45, 0
1, 158640, Note_on_c, 9, 41, 95
1, 158759, Note_on_c, 9, 36, 0
1, 158760, Note_on_c, 9, 36, 95
1, 158879, Note_on_c, 9, 41, 0
1, 158879, Note_on_c, 9, 36, 0
1, 158880, Note_on_c, 9, 38, 95
1, 159359, Note_on_c, 9, 38, 0
1, 159360, Note_on_c, 9, 41, 95
1, 159360, Note_on_c, 9, 36, 95
1, 159599, Note_on_c, 9, 41, 0
1, 159600, Note_on_c, 9, 41, 95
1, 159719, Note_on_c, 9, 41, 0
1, 159720, Note_on_c, 9, 45, 95
1, 159839, Note_on_c, 9, 36, 0
1, 159839, Note_on_c, 9, 45, 0
1, 159840, Note_on_c, 9, 45, 95
1, 159959, Note_on_c, 9, 45, 0
1, 159960, Note_on_c, 9, 41, 95
1, 160079, Note_on_c, 9, 41, 0
1, 160080, Note_on_c, 9, 47, 95
1, 160199, Note_on_c, 9, 47, 0
1, 160200, Note_on_c, 9, 47, 95
1, 160319, Note_on_c, 9, 47, 0
1, 160320, Note_on_c, 9, 41, 95
1, 160439, Note_on_c, 9, 41, 0
1, 160440, Note_on_c, 9, 45, 95
1, 160440, Note_on_c, 9, 36, 95
1, 160559, Note_on_c, 9, 45, 0
1, 160560, Note_on_c, 9, 41, 95
1, 160679, Note_on_c, 9, 36, 0
1, 160680, Note_on_c, 9, 36, 95
1, 160799, Note_on_c, 9, 41, 0
1, 160799, Note_on_c, 9, 36, 0
1, 160800, Note_on_c, 9, 38, 95
1, 161039, Note_on_c, 9, 38, 0
1, 161040, Note_on_c, 9, 37, 95
1, 161040, Note_on_c, 9, 37, 0
1, 161080, Note_on_c, 9, 37, 95
1, 161080, Note_on_c, 9, 37, 0
1, 161120, Note_on_c, 9, 37, 95
1, 161120, Note_on_c, 9, 37, 0
1, 161160, Note_on_c, 9, 37, 95
1, 161160, Note_on_c, 9, 37, 0
1, 161200, Note_on_c, 9, 37, 95
1, 161200, Note_on_c, 9, 37, 0
1, 161240, Note_on_c, 9, 37, 95
1, 161240, Note_on_c, 9, 37, 0
1, 161280, Note_on_c, 9, 41, 95
1, 161280, Note_on_c, 9, 37, 95
1, 161280, Note_on_c, 9, 37, 0
1, 161280, Note_on_c, 9, 36, 95
1, 161319, Note_on_c, 9, 41, 0
1, 161320, Note_on_c, 9, 37, 95
1, 161320, Note_on_c, 9, 37, 0
1, 161360, Note_on_c, 9, 37, 95
1, 161360, Note_on_c, 9, 37, 0
1, 161400, Note_on_c, 9, 37, 95
1, 161400, Note_on_c, 9, 37, 0
1, 161440, Note_on_c, 9, 37, 95
1, 161440, Note_on_c, 9, 37, 0
1, 161480, Note_on_c, 9, 37, 95
1, 161480, Note_on_c, 9, 37, 0
1, 161520, Note_on_c, 9, 41, 95
1, 161639, Note_on_c, 9, 41, 0
1, 161640, Note_on_c, 9, 45, 95
1, 161759, Note_on_c, 9, 36, 0
1, 161759, Note_on_c, 9, 45, 0
1, 161760, Note_on_c, 9, 45, 95
1, 161879, Note_on_c, 9, 45, 0
1, 161880, Note_on_c, 9, 41, 95
1, 161999, Note_on_c, 9, 41, 0
1, 162000, Note_on_c, 9, 47, 95
1, 162119, Note_on_c, 9, 47, 0
1, 162120, Note_on_c, 9, 47, 95
1, 162239, Note_on_c, 9, 47, 0
1, 162240, Note_on_c, 9, 41, 95
1, 162359, Note_on_c, 9, 41, 0
1, 162360, Note_on_c, 9, 45, 95
1, 162360, Note_on_c, 9, 36, 95
1, 162479, Note_on_c, 9, 45, 0
1, 162480, Note_on_c, 9, 41, 95
1, 162599, Note_on_c, 9, 36, 0
1, 162600, Note_on_c, 9, 36, 95
1, 162719, Note_on_c, 9, 41, 0
1, 162719, Note_on_c, 9, 36, 0
1, 162720, Note_on_c, 9, 38, 95
1, 163199, Note_on_c, 9, 38, 0
1, 163200, Note_on_c, 9, 41, 95
1, 163200, Note_on_c, 9, 36, 95
1, 163439, Note_on_c, 9, 41, 0
1, 163440, Note_on_c, 9, 41, 95
1, 163559, Note_on_c, 9, 41, 0
1, 163560, Note_on_c, 9, 45, 95
1, 163679, Note_on_c, 9, 36, 0
1, 163679, Note_on_c, 9, 45, 0
1, 163680, Note_on_c, 9, 45, 95
1, 163799, Note_on_c, 9, 45, 0
1, 163800, Note_on_c, 9, 41, 95
1, 163919, Note_on_c, 9, 41, 0
1, 163920, Note_on_c, 9, 47, 95
1, 164039, Note_on_c, 9, 47, 0
1, 164040, Note_on_c, 9, 47, 95
1, 164159, Note_on_c, 9, 47, 0
1, 164160, Note_on_c, 9, 41, 95
1, 164279, Note_on_c, 9, 41, 0
1, 164280, Note_on_c, 9, 45, 95
1, 164280, Note_on_c, 9, 36, 95
1, 164399, Note_on_c, 9, 45, 0
1, 164400, Note_on_c, 9, 41, 95
1, 164519, Note_on_c, 9, 36, 0
1, 164520, Note_on_c, 9, 36, 95
1, 164639, Note_on_c, 9, 41, 0
1, 164639, Note_on_c, 9, 36, 0
1, 164640, Note_on_c, 9, 38, 95
1, 165119, Note_on_c, 9, 38, 0
1, 165120, Note_on_c, 9, 41, 95
1, 165120, Note_on_c, 9, 36, 95
1, 165359, Note_on_c, 9, 41, 0
1, 165360, Note_on_c, 9, 41, 95
1, 165479, Note_on_c, 9, 41, 0
1, 165480, Note_on_c, 9, 45, 95
1, 165599, Note_on_c, 9, 36, 0
1, 165599, Note_on_c, 9, 45, 0
1, 165600, Note_on_c, 9, 45, 95
1, 165719, Note_on_c, 9, 45, 0
1, 165720, Note_on_c, 9, 41, 95
1, 165839, Note_on_c, 9, 41, 0
1, 165840, Note_on_c, 9, 47, 95
1, 165959, Note_on_c, 9, 47, 0
1, 165960, Note_on_c, 9, 47, 95
1, 166079, Note_on_c, 9, 47, 0
1, 166080, Note_on_c, 9, 41, 95
1, 166199, Note_on_c, 9, 41, 0
1, 166200, Note_on_c, 9, 45, 95
1, 166200, Note_on_c, 9, 36, 95
1, 166319, Note_on_c, 9, 45, 0
1, 166320, Note_on_c, 9, 41, 95
1, 166439, Note_on_c, 9, 36, 0
1, 166440, Note_on_c, 9, 36, 95
1, 166559, Note_on_c, 9, 41, 0
1, 166559, Note_on_c, 9, 36, 0
1, 166560, Note_on_c, 9, 38, 95
1, 167039, Note_on_c, 9, 38, 0
1, 167040, Note_on_c, 9, 41, 95
1, 167040, Note_on_c, 9, 36, 95
1, 167279, Note_on_c, 9, 41, 0
1, 167280, Note_on_c, 9, 41, 95
1, 167399, Note_on_c, 9, 41, 0
1, 167400, Note_on_c, 9, 45, 95
1, 167519, Note_on_c, 9, 36, 0
1, 167519, Note_on_c, 9, 45, 0
1, 167520, Note_on_c, 9, 45, 95
1, 167639, Note_on_c, 9, 45, 0
1, 167640, Note_on_c, 9, 41, 95
1, 167759, Note_on_c, 9, 41, 0
1, 167760, Note_on_c, 9, 47, 95
1, 167879, Note_on_c, 9, 47, 0
1, 167880, Note_on_c, 9, 47, 95
1, 167999, Note_on_c, 9, 47, 0
1, 168000, Note_on_c, 9, 41, 95
1, 168119, Note_on_c, 9, 41, 0
1, 168120, Note_on_c, 9, 45, 95
1, 168120, Note_on_c, 9, 36, 95
1, 168239, Note_on_c, 9, 45, 0
1, 168240, Note_on_c, 9, 41, 95
1, 168359, Note_on_c, 9, 36, 0
1, 168360, Note_on_c, 9, 36, 95
1, 168479, Note_on_c, 9, 41, 0
1, 168479, Note_on_c, 9, 36, 0
1, 168480, Note_on_c, 9, 38, 95
1, 168480, Note_on_c, 9, 51, 95
1, 168496, Note_on_c, 9, 51, 0
1, 168959, Note_on_c, 9, 38, 0
1, 168960, Note_on_c, 9, 41, 95
1, 168960, Note_on_c, 9, 36, 95
1, 169199, Note_on_c, 9, 41, 0
1, 169200, Note_on_c, 9, 41, 95
1, 169319, Note_on_c, 9, 41, 0
1, 169320, Note_on_c, 9, 45, 95
1, 169439, Note_on_c, 9, 36, 0
1, 169439, Note_on_c, 9, 45, 0
1, 169440, Note_on_c, 9, 45, 95
1, 169559, Note_on_c, 9, 45, 0
1, 169560, Note_on_c, 9, 41, 95
1, 169679, Note_on_c, 9, 41, 0
1, 169680, Note_on_c, 9, 47, 95
1, 169799, Note_on_c, 9, 47, 0
1, 169800, Note_on_c, 9, 47, 95
1, 169919, Note_on_c, 9, 47, 0
1, 169920, Note_on_c, 9, 41, 95
1, 170039, Note_on_c, 9, 41, 0
1, 170040, Note_on_c, 9, 45, 95
1, 170040, Note_on_c, 9, 36, 95
1, 170159, Note_on_c, 9, 45, 0
1, 170160, Note_on_c, 9, 41, 95
1, 170279, Note_on_c, 9, 36, 0
1, 170280, Note_on_c, 9, 36, 95
1, 170399, Note_on_c, 9, 41, 0
1, 170399, Note_on_c, 9, 36, 0
1, 170400, Note_on_c, 9, 38, 95
1, 170879, Note_on_c, 9, 38, 0
1, 170880, Note_on_c, 9, 41, 95
1, 170880, Note_on_c, 9, 36, 95
1, 171119, Note_on_c, 9, 41, 0
1, 171120, Note_on_c, 9, 41, 95
1, 171239, Note_on_c, 9, 41, 0
1, 171240, Note_on_c, 9, 45, 95
1, 171359, Note_on_c, 9, 36, 0
1, 171359, Note_on_c, 9, 45, 0
1, 171360, Note_on_c, 9, 45, 95
1, 171479, Note_on_c, 9, 45, 0
1, 171480, Note_on_c, 9, 41, 95
1, 171599, Note_on_c, 9, 41, 0
1, 171600, Note_on_c, 9, 47, 95
1, 171719, Note_on_c, 9, 47, 0
1, 171720, Note_on_c, 9, 47, 95
1, 171839, Note_on_c, 9, 47, 0
1, 171840, Note_on_c, 9, 41, 95
1, 171959, Note_on_c, 9, 41, 0
1, 171960, Note_on_c, 9, 45, 95
1, 171960, Note_on_c, 9, 36, 95
1, 172079, Note_on_c, 9, 45, 0
1, 172080, Note_on_c, 9, 41, 95
1, 172199, Note_on_c, 9, 36, 0
1, 172200, Note_on_c, 9, 36, 95
1, 172319, Note_on_c, 9, 41, 0
1, 172319, Note_on_c, 9, 36, 0
1, 172320, Note_on_c, 9, 38, 95
1, 172799, Note_on_c, 9, 38, 0
1, 172800, Note_on_c, 9, 41, 95
1, 172800, Note_on_c, 9, 36, 95
1, 173039, Note_on_c, 9, 41, 0
1, 173040, Note_on_c, 9, 41, 95
1, 173159, Note_on_c, 9, 41, 0
1, 173160, Note_on_c, 9, 45, 95
1, 173279, Note_on_c, 9, 36, 0
1, 173279, Note_on_c, 9, 45, 0
1, 173280, Note_on_c, 9, 45, 95
1, 173399, Note_on_c, 9, 45, 0
1, 173400, Note_on_c, 9, 41, 95
1, 173519, Note_on_c, 9, 41, 0
1, 173520, Note_on_c, 9, 47, 95
1, 173639, Note_on_c, 9, 47, 0
1, 173640, Note_on_c, 9, 47, 95
1, 173759, Note_on_c, 9, 47, 0
1, 173760, Note_on_c, 9, 41, 95
1, 173879, Note_on_c, 9, 41, 0
1, 173880, Note_on_c, 9, 45, 95
1, 173880, Note_on_c, 9, 36, 95
1, 173999, Note_on_c, 9, 45, 0
1, 174000, Note_on_c, 9, 41, 95
1, 174119, Note_on_c, 9, 36, 0
1, 174120, Note_on_c, 9, 36, 95
1, 174239, Note_on_c, 9, 41, 0
1, 174239, Note_on_c, 9, 36, 0
1, 174240, Note_on_c, 9, 38, 95
1, 174719, Note_on_c, 9, 38, 0
1, 174720, Note_on_c, 9, 41, 95
1, 174720, Note_on_c, 9, 36, 95
1, 174959, Note_on_c, 9, 41, 0
1, 174960, Note_on_c, 9, 41, 95
1, 175079, Note_on_c, 9, 41, 0
1, 175080, Note_on_c, 9, 45, 95
1, 175199, Note_on_c, 9, 36, 0
1, 175199, Note_on_c, 9, 45, 0
1, 175200, Note_on_c, 9, 45, 95
1, 175319, Note_on_c, 9, 45, 0
1, 175320, Note_on_c, 9, 41, 95
1, 175439, Note_on_c, 9, 41, 0
1, 175440, Note_on_c, 9, 47, 95
1, 175559, Note_on_c, 9, 47, 0
1, 175560, Note_on_c, 9, 47, 95
1, 175679, Note_on_c, 9, 47, 0
1, 175680, Note_on_c, 9, 41, 95
1, 175799, Note_on_c, 9, 41, 0
1, 175800, Note_on_c, 9, 45, 95
1, 175800, Note_on_c, 9, 36, 95
1, 175919, Note_on_c, 9, 45, 0
1, 175920, Note_on_c, 9, 41, 95
1, 176039, Note_on_c, 9, 36, 0
1, 176040, Note_on_c, 9, 36, 95
1, 176159, Note_on_c, 9, 41, 0
1, 176159, Note_on_c, 9, 36, 0
1, 176160, Note_on_c, 9, 38, 95
1, 176160, Note_on_c, 9, 53, 95
1, 176279, Note_on_c, 9, 38, 0
1, 176279, Note_on_c, 9, 53, 0
1, 176280, Note_on_c, 9, 51, 95
1, 176287, Note_on_c, 9, 51, 0
1, 176520, Note_on_c, 9, 51, 95
1, 176523, Note_on_c, 9, 51, 0
1, 176640, Note_on_c, 9, 41, 95
1, 176640, Note_on_c, 9, 42, 95
1, 176640, Note_on_c, 9, 36, 95
1, 176647, Note_on_c, 9, 42, 0
1, 176879, Note_on_c, 9, 41, 0
1, 176880, Note_on_c, 9, 41, 95
1, 176999, Note_on_c, 9, 41, 0
1, 177000, Note_on_c, 9, 45, 95
1, 177119, Note_on_c, 9, 36, 0
1, 177119, Note_on_c, 9, 45, 0
1, 177120, Note_on_c, 9, 45, 95
1, 177120, Note_on_c, 9, 42, 95
1, 177123, Note_on_c, 9, 42, 0
1, 177239, Note_on_c, 9, 45, 0
1, 177240, Note_on_c, 9, 41, 95
1, 177359, Note_on_c, 9, 41, 0
1, 177360, Note_on_c, 9, 47, 95
1, 177479, Note_on_c, 9, 47, 0
1, 177480, Note_on_c, 9, 47, 95
1, 177599, Note_on_c, 9, 47, 0
1, 177600, Note_on_c, 9, 41, 95
1, 177600, Note_on_c, 9, 42, 95
1, 177603, Note_on_c, 9, 42, 0
1, 177719, Note_on_c, 9, 41, 0
1, 177720, Note_on_c, 9, 45, 95
1, 177720, Note_on_c, 9, 36, 95
1, 177839, Note_on_c, 9, 45, 0
1, 177840, Note_on_c, 9, 41, 95
1, 177959, Note_on_c, 9, 36, 0
1, 177960, Note_on_c, 9, 36, 95
1, 178079, Note_on_c, 9, 41, 0
1, 178079, Note_on_c, 9, 36, 0
1, 178080, Note_on_c, 9, 38, 95
1, 178080, Note_on_c, 9, 42, 95
1, 178096, Note_on_c, 9, 42, 0
1, 178559, Note_on_c, 9, 38, 0
1, 178560, Note_on_c, 9, 41, 95
1, 178560, Note_on_c, 9, 42, 95
1, 178560, Note_on_c, 9, 36, 95
1, 178567, Note_on_c, 9, 42, 0
1, 178799, Note_on_c, 9, 41, 0
1, 178800, Note_on_c, 9, 41, 95
1, 178919, Note_on_c, 9, 41, 0
1, 178920, Note_on_c, 9, 45, 95
1, 179039, Note_on_c, 9, 36, 0
1, 179039, Note_on_c, 9, 45, 0
1, 179040, Note_on_c, 9, 45, 95
1, 179040, Note_on_c, 9, 42, 95
1, 179043, Note_on_c, 9, 42, 0
1, 179159, Note_on_c, 9, 45, 0
1, 179160, Note_on_c, 9, 41, 95
1, 179279, Note_on_c, 9, 41, 0
1, 179280, Note_on_c, 9, 47, 95
1, 179399, Note_on_c, 9, 47, 0
1, 179400, Note_on_c, 9, 47, 95
1, 179519, Note_on_c, 9, 47, 0
1, 179520, Note_on_c, 9, 41, 95
1, 179520, Note_on_c, 9, 42, 95
1, 179523, Note_on_c, 9, 42, 0
1, 179639, Note_on_c, 9, 41, 0
1, 179640, Note_on_c, 9, 45, 95
1, 179640, Note_on_c, 9, 36, 95
1, 179759, Note_on_c, 9, 45, 0
1, 179760, Note_on_c, 9, 41, 95
1, 179879, Note_on_c, 9, 36, 0
1, 179880, Note_on_c, 9, 36, 95
1, 179999, Note_on_c, 9, 41, 0
1, 179999, Note_on_c, 9, 36, 0
1, 180000, Note_on_c, 9, 38, 95
1, 180000, Note_on_c, 9, 42, 95
1, 180016, Note_on_c, 9, 42, 0
1, 180479, Note_on_c, 9, 38, 0
1, 180480, Note_on_c, 9, 41, 95
1, 180480, Note_on_c, 9, 42, 95
1, 180480, Note_on_c, 9, 36, 95
1, 180487, Note_on_c, 9, 42, 0
1, 180719, Note_on_c, 9, 41, 0
1, 180720, Note_on_c, 9, 41, 95
1, 180839, Note_on_c, 9, 41, 0
1, 180840, Note_on_c, 9, 45, 95
1, 180959, Note_on_c, 9, 36, 0
1, 180959, Note_on_c, 9, 45, 0
1, 180960, Note_on_c, 9, 45, 95
1, 180960, Note_on_c, 9, 42, 95
1, 180963, Note_on_c, 9, 42, 0
1, 181079, Note_on_c, 9, 45, 0
1, 181080, Note_on_c, 9, 41, 95
1, 181199, Note_on_c, 9, 41, 0
1, 181200, Note_on_c, 9, 47, 95
1, 181319, Note_on_c, 9, 47, 0
1, 181320, Note_on_c, 9, 47, 95
1, 181439, Note_on_c, 9, 47, 0
1, 181440, Note_on_c, 9, 41, 95
1, 181440, Note_on_c, 9, 42, 95
1, 181443, Note_on_c, 9, 42, 0
1, 181559, Note_on_c, 9, 41, 0
1, 181560, Note_on_c, 9, 45, 95
1, 181560, Note_on_c, 9, 36, 95
1, 181679, Note_on_c, 9, 45, 0
1, 181680, Note_on_c, 9, 41, 95
1, 181799, Note_on_c, 9, 36, 0
1, 181800, Note_on_c, 9, 36, 95
1, 181919, Note_on_c, 9, 41, 0
1, 181919, Note_on_c, 9, 36, 0
1, 181920, Note_on_c, 9, 37, 95
1, 181920, Note_on_c, 9, 38, 95
1, 181920, Note_on_c, 9, 42, 95
1, 181936, Note_on_c, 9, 37, 0
1, 181936, Note_on_c, 9, 42, 0
1, 182399, Note_on_c, 9, 38, 0
1, 182400, Note_on_c, 9, 41, 95
1, 182400, Note_on_c, 9, 42, 95
1, 182400, Note_on_c, 9, 36, 95
1, 182407, Note_on_c, 9, 42, 0
1, 182639, Note_on_c, 9, 41, 0
1, 182640, Note_on_c, 9, 41, 95
1, 182759, Note_on_c, 9, 41, 0
1, 182760, Note_on_c, 9, 45, 95
1, 182879, Note_on_c, 9, 36, 0
1, 182879, Note_on_c, 9, 45, 0
1, 182880, Note_on_c, 9, 45, 95
1, 182880, Note_on_c, 9, 42, 95
1, 182883, Note_on_c, 9, 42, 0
1, 182999, Note_on_c, 9, 45, 0
1, 183000, Note_on_c, 9, 41, 95
1, 183119, Note_on_c, 9, 41, 0
1, 183120, Note_on_c, 9, 47, 95
1, 183239, Note_on_c, 9, 47, 0
1, 183240, Note_on_c, 9, 47, 95
1, 183359, Note_on_c, 9, 47, 0
1, 183360, Note_on_c, 9, 41, 95
1, 183360, Note_on_c, 9, 42, 95
1, 183363, Note_on_c, 9, 42, 0
1, 183479, Note_on_c, 9, 41, 0
1, 183480, Note_on_c, 9, 45, 95
1, 183480, Note_on_c, 9, 36, 95
1, 183599, Note_on_c, 9, 45, 0
1, 183600, Note_on_c, 9, 41, 95
1, 183719, Note_on_c, 9, 36, 0
1, 183720, Note_on_c, 9, 36, 95
1, 183839, Note_on_c, 9, 41, 0
1, 183839, Note_on_c, 9, 36, 0
1, 183840, Note_on_c, 9, 38, 95
1, 183840, Note_on_c, 9, 51, 95
1, 183840, Note_on_c, 9, 42, 95
1, 183856, Note_on_c, 9, 51, 0
1, 183856, Note_on_c, 9, 42, 0
1, 184319, Note_on_c, 9, 38, 0
1, 184320, Note_on_c, 9, 41, 95
1, 184320, Note_on_c, 9, 42, 95
1, 184320, Note_on_c, 9, 36, 95
1, 184327, Note_on_c, 9, 42, 0
1, 184559, Note_on_c, 9, 41, 0
1, 184560, Note_on_c, 9, 41, 95
1, 184679, Note_on_c, 9, 41, 0
1, 184680, Note_on_c, 9, 45, 95
1, 184799, Note_on_c, 9, 36, 0
1, 184799, Note_on_c, 9, 45, 0
1, 184800, Note_on_c, 9, 45, 95
1, 184800, Note_on_c, 9, 42, 95
1, 184803, Note_on_c, 9, 42, 0
1, 184919, Note_on_c, 9, 45, 0
1, 184920, Note_on_c, 9, 41, 95
1, 185039, Note_on_c, 9, 41, 0
1, 185040, Note_on_c, 9, 47, 95
1, 185159, Note_on_c, 9, 47, 0
1, 185160, Note_on_c, 9, 47, 95
1, 185279, Note_on_c, 9, 47, 0
1, 185280, Note_on_c, 9, 41, 95
1, 185280, Note_on_c, 9, 42, 95
1, 185283, Note_on_c, 9, 42, 0
1, 185399, Note_on_c, 9, 41, 0
1, 185400, Note_on_c, 9, 45, 95
1, 185400, Note_on_c, 9, 36, 95
1, 185519, Note_on_c, 9, 45, 0
1, 185520, Note_on_c, 9, 41, 95
1, 185639, Note_on_c, 9, 36, 0
1, 185640, Note_on_c, 9, 36, 95
1, 185759, Note_on_c, 9, 41, 0
1, 185759, Note_on_c, 9, 36, 0
1, 185760, Note_on_c, 9, 38, 95
1, 185760, Note_on_c, 9, 42, 95
1, 185776, Note_on_c, 9, 42, 0
1, 186239, Note_on_c, 9, 38, 0
1, 186240, Note_on_c, 9, 41, 95
1, 186240, Note_on_c, 9, 42, 95
1, 186240, Note_on_c, 9, 36, 95
1, 186247, Note_on_c, 9, 42, 0
1, 186479, Note_on_c, 9, 41, 0
1, 186480, Note_on_c, 9, 41, 95
1, 186599, Note_on_c, 9, 41, 0
1, 186600, Note_on_c, 9, 45, 95
1, 186719, Note_on_c, 9, 36, 0
1, 186719, Note_on_c, 9, 45, 0
1, 186720, Note_on_c, 9, 45, 95
1, 186720, Note_on_c, 9, 42, 95
1, 186723, Note_on_c, 9, 42, 0
1, 186839, Note_on_c, 9, 45, 0
1, 186840, Note_on_c, 9, 41, 95
1, 186959, Note_on_c, 9, 41, 0
1, 186960, Note_on_c, 9, 47, 95
1, 187079, Note_on_c, 9, 47, 0
1, 187080, Note_on_c, 9, 47, 95
1, 187199, Note_on_c, 9, 47, 0
1, 187200, Note_on_c, 9, 41, 95
1, 187200, Note_on_c, 9, 42, 95
1, 187203, Note_on_c, 9, 42, 0
1, 187319, Note_on_c, 9, 41, 0
1, 187320, Note_on_c, 9, 45, 95
1, 187320, Note_on_c, 9, 36, 95
1, 187439, Note_on_c, 9, 45, 0
1, 187440, Note_on_c, 9, 41, 95
1, 187559, Note_on_c, 9, 36, 0
1, 187560, Note_on_c, 9, 36, 95
1, 187679, Note_on_c, 9, 41, 0
1, 187679, Note_on_c, 9, 36, 0
1, 187680, Note_on_c, 9, 38, 95
1, 187680, Note_on_c, 9, 42, 95
1, 187680, Note_on_c, 9, 52, 95
1, 187696, Note_on_c, 9, 42, 0
1, 187696, Note_on_c, 9, 52, 0
1, 188159, Note_on_c, 9, 38, 0
1, 188160, Note_on_c, 9, 41, 95
1, 188160, Note_on_c, 9, 42, 95
1, 188160, Note_on_c, 9, 36, 95
1, 188167, Note_on_c, 9, 42, 0
1, 188399, Note_on_c, 9, 41, 0
1, 188400, Note_on_c, 9, 41, 95
1, 188400, Note_on_c, 9, 52, 95
1, 188403, Note_on_c, 9, 52, 0
1, 188519, Note_on_c, 9, 41, 0
1, 188520, Note_on_c, 9, 45, 95
1, 188639, Note_on_c, 9, 36, 0
1, 188639, Note_on_c, 9, 45, 0
1, 188640, Note_on_c, 9, 45, 95
1, 188640, Note_on_c, 9, 42, 95
1, 188643, Note_on_c, 9, 42, 0
1, 188759, Note_on_c, 9, 45, 0
1, 188760, Note_on_c, 9, 41, 95
1, 188879, Note_on_c, 9, 41, 0
1, 188880, Note_on_c, 9, 47, 95
1, 188880, Note_on_c, 9, 55, 95
1, 188883, Note_on_c, 9, 55, 0
1, 188999, Note_on_c, 9, 47, 0
1, 189000, Note_on_c, 9, 47, 95
1, 189119, Note_on_c, 9, 47, 0
1, 189120, Note_on_c, 9, 41, 95
1, 189120, Note_on_c, 9, 42, 95
1, 189123, Note_on_c, 9, 42, 0
1, 189239, Note_on_c, 9, 41, 0
1, 189240, Note_on_c, 9, 45, 95
1, 189240, Note_on_c, 9, 36, 95
1, 189359, Note_on_c, 9, 45, 0
1, 189360, Note_on_c, 9, 41, 95
1, 189360, Note_on_c, 9, 52, 95
1, 189367, Note_on_c, 9, 52, 0
1, 189479, Note_on_c, 9, 36, 0
1, 189480, Note_on_c, 9, 36, 95
1, 189599, Note_on_c, 9, 41, 0
1, 189599, Note_on_c, 9, 36, 0
1, 189600, Note_on_c, 9, 38, 95
1, 189600, Note_on_c, 9, 42, 95
1, 189607, Note_on_c, 9, 42, 0
1, 189839, Note_on_c, 9, 38, 0
1, 189840, Note_on_c, 9, 55, 95
1, 189847, Note_on_c, 9, 55, 0
1, 190080, Note_on_c, 9, 41, 95
1, 190080, Note_on_c, 9, 42, 95
1, 190080, Note_on_c, 9, 36, 95
1, 190087, Note_on_c, 9, 42, 0
1, 190319, Note_on_c, 9, 41, 0
1, 190320, Note_on_c, 9, 41, 95
1, 190439, Note_on_c, 9, 41, 0
1, 190440, Note_on_c, 9, 45, 95
1, 190559, Note_on_c, 9, 36, 0
1, 190559, Note_on_c, 9, 45, 0
1, 190560, Note_on_c, 9, 45, 95
1, 190560, Note_on_c, 9, 42, 95
1, 190563, Note_on_c, 9, 42, 0
1, 190679, Note_on_c, 9, 45, 0
1, 190680, Note_on_c, 9, 41, 95
1, 190799, Note_on_c, 9, 41, 0
1, 190800, Note_on_c, 9, 47, 95
1, 190919, Note_on_c, 9, 47, 0
1, 190920, Note_on_c, 9, 47, 95
1, 191039, Note_on_c, 9, 47, 0
1, 191040, Note_on_c, 9, 41, 95
1, 191040, Note_on_c, 9, 42, 95
1, 191043, Note_on_c, 9, 42, 0
1, 191159, Note_on_c, 9, 41, 0
1, 191160, Note_on_c, 9, 45, 95
1, 191160, Note_on_c, 9, 36, 95
1, 191279, Note_on_c, 9, 45, 0
1, 191280, Note_on_c, 9, 41, 95
1, 191399, Note_on_c, 9, 36, 0
1, 191400, Note_on_c, 9, 36, 95
1, 191519, Note_on_c, 9, 41, 0
1, 191519, Note_on_c, 9, 36, 0
1, 191520, Note_on_c, 9, 38, 95
1, 191520, Note_on_c, 9, 42, 95
1, 191536, Note_on_c, 9, 42, 0
1, 191999, Note_on_c, 9, 38, 0
1, 192000, Note_on_c, 9, 41, 95
1, 192000, Note_on_c, 9, 42, 95
1, 192000, Note_on_c, 9, 36, 95
1, 192007, Note_on_c, 9, 42, 0
1, 192239, Note_on_c, 9, 41, 0
1, 192240, Note_on_c, 9, 41, 95
1, 192359, Note_on_c, 9, 41, 0
1, 192360, Note_on_c, 9, 45, 95
1, 192479, Note_on_c, 9, 36, 0
1, 192479, Note_on_c, 9, 45, 0
1, 192480, Note_on_c, 9, 45, 95
1, 192480, Note_on_c, 9, 42, 95
1, 192483, Note_on_c, 9, 42, 0
1, 192599, Note_on_c, 9, 45, 0
1, 192600, Note_on_c, 9, 41, 95
1, 192719, Note_on_c, 9, 41, 0
1, 192720, Note_on_c, 9, 47, 95
1, 192839, Note_on_c, 9, 47, 0
1, 192840, Note_on_c, 9, 47, 95
1, 192959, Note_on_c, 9, 47, 0
1, 192960, Note_on_c, 9, 41, 95
1, 192960, Note_on_c, 9, 42, 95
1, 192963, Note_on_c, 9, 42, 0
1, 193079, Note_on_c, 9, 41, 0
1, 193080, Note_on_c, 9, 45, 95
1, 193080, Note_on_c, 9, 36, 95
1, 193199, Note_on_c, 9, 45, 0
1, 193200, Note_on_c, 9, 41, 95
1, 193319, Note_on_c, 9, 36, 0
1, 193320, Note_on_c, 9, 36, 95
1, 193439, Note_on_c, 9, 41, 0
1, 193439, Note_on_c, 9, 36, 0
1, 193440, Note_on_c, 9, 38, 95
1, 193440, Note_on_c, 9, 42, 95
1, 193456, Note_on_c, 9, 42, 0
1, 193919, Note_on_c, 9, 38, 0
1, 193920, Note_on_c, 9, 41, 95
1, 193920, Note_on_c, 9, 42, 95
1, 193920, Note_on_c, 9, 36, 95
1, 193927, Note_on_c, 9, 42, 0
1, 194159, Note_on_c, 9, 41, 0
1, 194160, Note_on_c, 9, 41, 95
1, 194279, Note_on_c, 9, 41, 0
1, 194280, Note_on_c, 9, 45, 95
1, 194399, Note_on_c, 9, 36, 0
1, 194399, Note_on_c, 9, 45, 0
1, 194400, Note_on_c, 9, 45, 95
1, 194400, Note_on_c, 9, 42, 95
1, 194403, Note_on_c, 9, 42, 0
1, 194519, Note_on_c, 9, 45, 0
1, 194520, Note_on_c, 9, 41, 95
1, 194639, Note_on_c, 9, 41, 0
1, 194640, Note_on_c, 9, 47, 95
1, 194759, Note_on_c, 9, 47, 0
1, 194760, Note_on_c, 9, 47, 95
1, 194879, Note_on_c, 9, 47, 0
1, 194880, Note_on_c, 9, 41, 95
1, 194880, Note_on_c, 9, 42, 95
1, 194883, Note_on_c, 9, 42, 0
1, 194999, Note_on_c, 9, 41, 0
1, 195000, Note_on_c, 9, 45, 95
1, 195000, Note_on_c, 9, 36, 95
1, 195119, Note_on_c, 9, 45, 0
1, 195120, Note_on_c, 9, 41, 95
1, 195239, Note_on_c, 9, 36, 0
1, 195240, Note_on_c, 9, 36, 95
1, 195359, Note_on_c, 9, 41, 0
1, 195359, Note_on_c, 9, 36, 0
1, 195360, Note_on_c, 9, 38, 95
1, 195360, Note_on_c, 9, 42, 95
1, 195376, Note_on_c, 9, 42, 0
1, 195839, Note_on_c, 9, 38, 0
1, 195840, Note_on_c, 9, 41, 95
1, 195840, Note_on_c, 9, 42, 95
1, 195840, Note_on_c, 9, 36, 95
1, 195847, Note_on_c, 9, 42, 0
1, 196079, Note_on_c, 9, 41, 0
1, 196080, Note_on_c, 9, 41, 95
1, 196199, Note_on_c, 9, 41, 0
1, 196200, Note_on_c, 9, 45, 95
1, 196319, Note_on_c, 9, 36, 0
1, 196319, Note_on_c, 9, 45, 0
1, 196320, Note_on_c, 9, 45, 95
1, 196320, Note_on_c, 9, 42, 95
1, 196323, Note_on_c, 9, 42, 0
1, 196439, Note_on_c, 9, 45, 0
1, 196440, Note_on_c, 9, 41, 95
1, 196559, Note_on_c, 9, 41, 0
1, 196560, Note_on_c, 9, 47, 95
1, 196679, Note_on_c, 9, 47, 0
1, 196680, Note_on_c, 9, 47, 95
1, 196799, Note_on_c, 9, 47, 0
1, 196800, Note_on_c, 9, 41, 95
1, 196800, Note_on_c, 9, 42, 95
1, 196803, Note_on_c, 9, 42, 0
1, 196919, Note_on_c, 9, 41, 0
1, 196920, Note_on_c, 9, 45, 95
1, 196920, Note_on_c, 9, 36, 95
1, 197039, Note_on_c, 9, 45, 0
1, 197040, Note_on_c, 9, 41, 95
1, 197159, Note_on_c, 9, 36, 0
1, 197160, Note_on_c, 9, 36, 95
1, 197279, Note_on_c, 9, 41, 0
1, 197279, Note_on_c, 9, 36, 0
1, 197280, Note_on_c, 9, 38, 95
1, 197280, Note_on_c, 9, 42, 95
1, 197296, Note_on_c, 9, 42, 0
1, 197759, Note_on_c, 9, 38, 0
1, 197760, Note_on_c, 9, 41, 95
1, 197760, Note_on_c, 9, 42, 95
1, 197760, Note_on_c, 9, 36, 95
1, 197767, Note_on_c, 9, 42, 0
1, 197999, Note_on_c, 9, 41, 0
1, 198000, Note_on_c, 9, 41, 95
1, 198119, Note_on_c, 9, 41, 0
1, 198120, Note_on_c, 9, 45, 95
1, 198239, Note_on_c, 9, 36, 0
1, 198239, Note_on_c, 9, 45, 0
1, 198240, Note_on_c, 9, 45, 95
1, 198240, Note_on_c, 9, 42, 95
1, 198243, Note_on_c, 9, 42, 0
1, 198359, Note_on_c, 9, 45, 0
1, 198360, Note_on_c, 9, 41, 95
1, 198479, Note_on_c, 9, 41, 0
1, 198480, Note_on_c, 9, 47, 95
1, 198599, Note_on_c, 9, 47, 0
1, 198600, Note_on_c, 9, 47, 95
1, 198719, Note_on_c, 9, 47, 0
1, 198720, Note_on_c, 9, 41, 95
1, 198720, Note_on_c, 9, 42, 95
1, 198723, Note_on_c, 9, 42, 0
1, 198839, Note_on_c, 9, 41, 0
1, 198840, Note_on_c, 9, 45, 95
1, 198840, Note_on_c, 9, 36, 95
1, 198959, Note_on_c, 9, 45, 0
1, 198960, Note_on_c, 9, 41, 95
1, 199079, Note_on_c, 9, 36, 0
1, 199080, Note_on_c, 9, 36, 95
1, 199199, Note_on_c, 9, 41, 0
1, 199199, Note_on_c, 9, 36, 0
1, 199200, Note_on_c, 9, 38, 95
1, 199200, Note_on_c, 9, 42, 95
1, 199216, Note_on_c, 9, 42, 0
1, 199679, Note_on_c, 9, 38, 0
1, 199680, Note_on_c, 9, 41, 95
1, 199680, Note_on_c, 9, 42, 95
1, 199680, Note_on_c, 9, 36, 95
1, 199687, Note_on_c, 9, 42, 0
1, 199919, Note_on_c, 9, 41, 0
1, 199920, Note_on_c, 9, 41, 95
1, 200039, Note_on_c, 9, 41, 0
1, 200040, Note_on_c, 9, 45, 95
1, 200159, Note_on_c, 9, 36, 0
1, 200159, Note_on_c, 9, 45, 0
1, 200160, Note_on_c, 9, 45, 95
1, 200160, Note_on_c, 9, 42, 95
1, 200163, Note_on_c, 9, 42, 0
1, 200279, Note_on_c, 9, 45, 0
1, 200280, Note_on_c, 9, 41, 95
1, 200399, Note_on_c, 9, 41, 0
1, 200400, Note_on_c, 9, 47, 95
1, 200519, Note_on_c, 9, 47, 0
1, 200520, Note_on_c, 9, 47, 95
1, 200639, Note_on_c, 9, 47, 0
1, 200640, Note_on_c, 9, 41, 95
1, 200640, Note_on_c, 9, 42, 95
1, 200643, Note_on_c, 9, 42, 0
1, 200759, Note_on_c, 9, 41, 0
1, 200760, Note_on_c, 9, 45, 95
1, 200760, Note_on_c, 9, 36, 95
1, 200879, Note_on_c, 9, 45, 0
1, 200880, Note_on_c, 9, 41, 95
1, 200999, Note_on_c, 9, 36, 0
1, 201000, Note_on_c, 9, 36, 95
1, 201119, Note_on_c, 9, 41, 0
1, 201119, Note_on_c, 9, 36, 0
1, 201120, Note_on_c, 9, 38, 95
1, 201120, Note_on_c, 9, 42, 95
1, 201136, Note_on_c, 9, 42, 0
1, 201599, Note_on_c, 9, 38, 0
1, 201600, Note_on_c, 9, 41, 95
1, 201600, Note_on_c, 9, 42, 95
1, 201600, Note_on_c, 9, 36, 95
1, 201607, Note_on_c, 9, 42, 0
1, 201839, Note_on_c, 9, 41, 0
1, 201840, Note_on_c, 9, 41, 95
1, 201959, Note_on_c, 9, 41, 0
1, 201960, Note_on_c, 9, 45, 95
1, 202079, Note_on_c, 9, 36, 0
1, 202079, Note_on_c, 9, 45, 0
1, 202080, Note_on_c, 9, 45, 95
1, 202080, Note_on_c, 9, 42, 95
1, 202083, Note_on_c, 9, 42, 0
1, 202199, Note_on_c, 9, 45, 0
1, 202200, Note_on_c, 9, 41, 95
1, 202319, Note_on_c, 9, 41, 0
1, 202320, Note_on_c, 9, 47, 95
1, 202439, Note_on_c, 9, 47, 0
1, 202440, Note_on_c, 9, 47, 95
1, 202559, Note_on_c, 9, 47, 0
1, 202560, Note_on_c, 9, 41, 95
1, 202560, Note_on_c, 9, 42, 95
1, 202563, Note_on_c, 9, 42, 0
1, 202679, Note_on_c, 9, 41, 0
1, 202680, Note_on_c, 9, 45, 95
1, 202680, Note_on_c, 9, 36, 95
1, 202799, Note_on_c, 9, 45, 0
1, 202800, Note_on_c, 9, 41, 95
1, 202919, Note_on_c, 9, 36, 0
1, 202920, Note_on_c, 9, 36, 95
1, 203039, Note_on_c, 9, 41, 0
1, 203039, Note_on_c, 9, 36, 0
1, 203040, Note_on_c, 9, 38, 95
1, 203040, Note_on_c, 9, 42, 95
1, 203056, Note_on_c, 9, 42, 0
1, 203519, Note_on_c, 9, 38, 0
1, 203520, Note_on_c, 9, 41, 95
1, 203520, Note_on_c, 9, 42, 95
1, 203520, Note_on_c, 9, 36, 95
1, 203527, Note_on_c, 9, 42, 0
1, 203759, Note_on_c, 9, 41, 0
1, 203760, Note_on_c, 9, 41, 95
1, 203879, Note_on_c, 9, 41, 0
1, 203880, Note_on_c, 9, 45, 95
1, 203999, Note_on_c, 9, 36, 0
1, 203999, Note_on_c, 9, 45, 0
1, 204000, Note_on_c, 9, 45, 95
1, 204000, Note_on_c, 9, 42, 95
1, 204003, Note_on_c, 9, 42, 0
1, 204119, Note_on_c, 9, 45, 0
1, 204120, Note_on_c, 9, 41, 95
1, 204239, Note_on_c, 9, 41, 0
1, 204240, Note_on_c, 9, 47, 95
1, 204359, Note_on_c, 9, 47, 0
1, 204360, Note_on_c, 9, 47, 95
1, 204479, Note_on_c, 9, 47, 0
1, 204480, Note_on_c, 9, 41, 95
1, 204480, Note_on_c, 9, 42, 95
1, 204483, Note_on_c, 9, 42, 0
1, 204599, Note_on_c, 9, 41, 0
1, 204600, Note_on_c, 9, 45, 95
1, 204600, Note_on_c, 9, 36, 95
1, 204719, Note_on_c, 9, 45, 0
1, 204720, Note_on_c, 9, 41, 95
1, 204839, Note_on_c, 9, 36, 0
1, 204840, Note_on_c, 9, 36, 95
1, 204959, Note_on_c, 9, 41, 0
1, 204959, Note_on_c, 9, 36, 0
1, 204960, Note_on_c, 9, 38, 95
1, 204960, Note_on_c, 9, 42, 95
1, 204976, Note_on_c, 9, 42, 0
1, 205439, Note_on_c, 9, 38, 0
1, 205440, Note_on_c, 9, 41, 95
1, 205440, Note_on_c, 9, 42, 95
1, 205440, Note_on_c, 9, 36, 95
1, 205447, Note_on_c, 9, 42, 0
1, 205679, Note_on_c, 9, 41, 0
1, 205680, Note_on_c, 9, 41, 95
1, 205799, Note_on_c, 9, 41, 0
1, 205800, Note_on_c, 9, 45, 95
1, 205919, Note_on_c, 9, 36, 0
1, 205919, Note_on_c, 9, 45, 0
1, 205920, Note_on_c, 9, 45, 95
1, 205920, Note_on_c, 9, 42, 95
1, 205923, Note_on_c, 9, 42, 0
1, 206039, Note_on_c, 9, 45, 0
1, 206040, Note_on_c, 9, 41, 95
1, 206159, Note_on_c, 9, 41, 0
1, 206160, Note_on_c, 9, 47, 95
1, 206279, Note_on_c, 9, 47, 0
1, 206280, Note_on_c, 9, 47, 95
1, 206399, Note_on_c, 9, 47, 0
1, 206400, Note_on_c, 9, 41, 95
1, 206400, Note_on_c, 9, 42, 95
1, 206403, Note_on_c, 9, 42, 0
1, 206519, Note_on_c, 9, 41, 0
1, 206520, Note_on_c, 9, 45, 95
1, 206520, Note_on_c, 9, 36, 95
1, 206639, Note_on_c, 9, 45, 0
1, 206640, Note_on_c, 9, 41, 95
1, 206759, Note_on_c, 9, 36, 0
1, 206760, Note_on_c, 9, 36, 95
1, 206879, Note_on_c, 9, 41, 0
1, 206879, Note_on_c, 9, 36, 0
1, 206880, Note_on_c, 9, 38, 95
1, 206880, Note_on_c, 9, 51, 95
1, 206880, Note_on_c, 9, 42, 95
1, 206887, Note_on_c, 9, 51, 0
1, 206887, Note_on_c, 9, 42, 0
1, 207119, Note_on_c, 9, 38, 0
1, 207120, Note_on_c, 9, 52, 95
1, 207127, Note_on_c, 9, 52, 0
1, 207360, Note_on_c, 9, 41, 95
1, 207360, Note_on_c, 9, 42, 95
1, 207360, Note_on_c, 9, 36, 95
1, 207367, Note_on_c, 9, 42, 0
1, 207599, Note_on_c, 9, 41, 0
1, 207600, Note_on_c, 9, 41, 95
1, 207719, Note_on_c, 9, 41, 0
1, 207720, Note_on_c, 9, 45, 95
1, 207839, Note_on_c, 9, 36, 0
1, 207839, Note_on_c, 9, 45, 0
1, 207840, Note_on_c, 9, 45, 95
1, 207840, Note_on_c, 9, 42, 95
1, 207843, Note_on_c, 9, 42, 0
1, 207959, Note_on_c, 9, 45, 0
1, 207960, Note_on_c, 9, 41, 95
1, 208079, Note_on_c, 9, 41, 0
1, 208080, Note_on_c, 9, 47, 95
1, 208199, Note_on_c, 9, 47, 0
1, 208200, Note_on_c, 9, 47, 95
1, 208319, Note_on_c, 9, 47, 0
1, 208320, Note_on_c, 9, 41, 95
1, 208320, Note_on_c, 9, 42, 95
1, 208323, Note_on_c, 9, 42, 0
1, 208439, Note_on_c, 9, 41, 0
1, 208440, Note_on_c, 9, 45, 95
1, 208440, Note_on_c, 9, 36, 95
1, 208559, Note_on_c, 9, 45, 0
1, 208560, Note_on_c, 9, 41, 95
1, 208679, Note_on_c, 9, 36, 0
1, 208680, Note_on_c, 9, 36, 95
1, 208799, Note_on_c, 9, 41, 0
1, 208799, Note_on_c, 9, 36, 0
1, 208800, Note_on_c, 9, 38, 95
1, 208800, Note_on_c, 9, 42, 95
1, 208816, Note_on_c, 9, 42, 0
1, 209279, Note_on_c, 9, 38, 0
1, 209280, Note_on_c, 9, 41, 95
1, 209280, Note_on_c, 9, 42, 95
1, 209280, Note_on_c, 9, 36, 95
1, 209287, Note_on_c, 9, 42, 0
1, 209519, Note_on_c, 9, 41, 0
1, 209520, Note_on_c, 9, 41, 95
1, 209639, Note_on_c, 9, 41, 0
1, 209640, Note_on_c, 9, 45, 95
1, 209759, Note_on_c, 9, 36, 0
1, 209759, Note_on_c, 9, 45, 0
1, 209760, Note_on_c, 9, 45, 95
1, 209760, Note_on_c, 9, 42, 95
1, 209763, Note_on_c, 9, 42, 0
1, 209879, Note_on_c, 9, 45, 0
1, 209880, Note_on_c, 9, 41, 95
1, 209999, Note_on_c, 9, 41, 0
1, 210000, Note_on_c, 9, 47, 95
1, 210119, Note_on_c, 9, 47, 0
1, 210120, Note_on_c, 9, 47, 95
1, 210239, Note_on_c, 9, 47, 0
1, 210240, Note_on_c, 9, 41, 95
1, 210240, Note_on_c, 9, 42, 95
1, 210243, Note_on_c, 9, 42, 0
1, 210359, Note_on_c, 9, 41, 0
1, 210360, Note_on_c, 9, 45, 95
1, 210360, Note_on_c, 9, 36, 95
1, 210479, Note_on_c, 9, 45, 0
1, 210480, Note_on_c, 9, 41, 95
1, 210599, Note_on_c, 9, 36, 0
1, 210600, Note_on_c, 9, 36, 95
1, 210719, Note_on_c, 9, 41, 0
1, 210719, Note_on_c, 9, 36, 0
1, 210720, Note_on_c, 9, 38, 95
1, 210720, Note_on_c, 9, 47, 95
1, 210720, Note_on_c, 9, 42, 95
1, 210723, Note_on_c, 9, 42, 0
1, 210839, Note_on_c, 9, 38, 0
1, 210839, Note_on_c, 9, 47, 0
1, 210840, Note_on_c, 9, 47, 95
1, 210959, Note_on_c, 9, 47, 0
1, 210960, Note_on_c, 9, 45, 95
1, 211079, Note_on_c, 9, 45, 0
1, 211080, Note_on_c, 9, 41, 95
1, 211199, Note_on_c, 9, 41, 0
1, 211200, Note_on_c, 9, 41, 95
1, 211200, Note_on_c, 9, 42, 95
1, 211200, Note_on_c, 9, 36, 95
1, 211207, Note_on_c, 9, 42, 0
1, 211439, Note_on_c, 9, 41, 0
1, 211440, Note_on_c, 9, 41, 95
1, 211559, Note_on_c, 9, 41, 0
1, 211560, Note_on_c, 9, 45, 95
1, 211679, Note_on_c, 9, 36, 0
1, 211679, Note_on_c, 9, 45, 0
1, 211680, Note_on_c, 9, 45, 95
1, 211680, Note_on_c, 9, 42, 95
1, 211683, Note_on_c, 9, 42, 0
1, 211799, Note_on_c, 9, 45, 0
1, 211800, Note_on_c, 9, 41, 95
1, 211919, Note_on_c, 9, 41, 0
1, 211920, Note_on_c, 9, 47, 95
1, 212039, Note_on_c, 9, 47, 0
1, 212040, Note_on_c, 9, 47, 95
1, 212159, Note_on_c, 9, 47, 0
1, 212160, Note_on_c, 9, 41, 95
1, 212160, Note_on_c, 9, 42, 95
1, 212163, Note_on_c, 9, 42, 0
1, 212279, Note_on_c, 9, 41, 0
1, 212280, Note_on_c, 9, 45, 95
1, 212280, Note_on_c, 9, 36, 95
1, 212399, Note_on_c, 9, 45, 0
1, 212400, Note_on_c, 9, 41, 95
1, 212519, Note_on_c, 9, 36, 0
1, 212520, Note_on_c, 9, 36, 95
1, 212639, Note_on_c, 9, 41, 0
1, 212639, Note_on_c, 9, 36, 0
1, 212640, Note_on_c, 9, 38, 95
1, 212640, Note_on_c, 9, 42, 95
1, 212656, Note_on_c, 9, 42, 0
1, 213119, Note_on_c, 9, 38, 0
1, 213120, Note_on_c, 9, 41, 95
1, 213120, Note_on_c, 9, 42, 95
1, 213120, Note_on_c, 9, 36, 95
1, 213127, Note_on_c, 9, 42, 0
1, 213359, Note_on_c, 9, 41, 0
1, 213360, Note_on_c, 9, 41, 95
1, 213479, Note_on_c, 9, 41, 0
1, 213480, Note_on_c, 9, 45, 95
1, 213599, Note_on_c, 9, 36, 0
1, 213599, Note_on_c, 9, 45, 0
1, 213600, Note_on_c, 9, 45, 95
1, 213600, Note_on_c, 9, 42, 95
1, 213603, Note_on_c, 9, 42, 0
1, 213719, Note_on_c, 9, 45, 0
1, 213720, Note_on_c, 9, 41, 95
1, 213839, Note_on_c, 9, 41, 0
1, 213840, Note_on_c, 9, 47, 95
1, 213959, Note_on_c, 9, 47, 0
1, 213960, Note_on_c, 9, 47, 95
1, 214079, Note_on_c, 9, 47, 0
1, 214080, Note_on_c, 9, 41, 95
1, 214080, Note_on_c, 9, 42, 95
1, 214083, Note_on_c, 9, 42, 0
1, 214199, Note_on_c, 9, 41, 0
1, 214200, Note_on_c, 9, 45, 95
1, 214200, Note_on_c, 9, 36, 95
1, 214319, Note_on_c, 9, 45, 0
1, 214320, Note_on_c, 9, 41, 95
1, 214439, Note_on_c, 9, 36, 0
1, 214440, Note_on_c, 9, 36, 95
1, 214559, Note_on_c, 9, 41, 0
1, 214559, Note_on_c, 9, 36, 0
1, 214560, Note_on_c, 9, 38, 95
1, 214560, Note_on_c, 9, 47, 95
1, 214560, Note_on_c, 9, 42, 95
1, 214563, Note_on_c, 9, 42, 0
1, 214679, Note_on_c, 9, 38, 0
1, 214679, Note_on_c, 9, 47, 0
1, 214680, Note_on_c, 9, 47, 95
1, 214799, Note_on_c, 9, 47, 0
1, 214800, Note_on_c, 9, 45, 95
1, 214919, Note_on_c, 9, 45, 0
1, 214920, Note_on_c, 9, 41, 95
1, 215039, Note_on_c, 9, 41, 0
1, 215040, Note_on_c, 9, 41, 95
1, 215040, Note_on_c, 9, 42, 95
1, 215040, Note_on_c, 9, 36, 95
1, 215047, Note_on_c, 9, 42, 0
1, 215279, Note_on_c, 9, 41, 0
1, 215280, Note_on_c, 9, 41, 95
1, 215399, Note_on_c, 9, 41, 0
1, 215400, Note_on_c, 9, 45, 95
1, 215519, Note_on_c, 9, 36, 0
1, 215519, Note_on_c, 9, 45, 0
1, 215520, Note_on_c, 9, 45, 95
1, 215520, Note_on_c, 9, 42, 95
1, 215523, Note_on_c, 9, 42, 0
1, 215639, Note_on_c, 9, 45, 0
1, 215640, Note_on_c, 9, 41, 95
1, 215759, Note_on_c, 9, 41, 0
1, 215760, Note_on_c, 9, 47, 95
1, 215879, Note_on_c, 9, 47, 0
1, 215880, Note_on_c, 9, 47, 95
1, 215999, Note_on_c, 9, 47, 0
1, 216000, Note_on_c, 9, 41, 95
1, 216000, Note_on_c, 9, 42, 95
1, 216003, Note_on_c, 9, 42, 0
1, 216119, Note_on_c, 9, 41, 0
1, 216120, Note_on_c, 9, 45, 95
1, 216120, Note_on_c, 9, 36, 95
1, 216239, Note_on_c, 9, 45, 0
1, 216240, Note_on_c, 9, 41, 95
1, 216359, Note_on_c, 9, 36, 0
1, 216360, Note_on_c, 9, 36, 95
1, 216479, Note_on_c, 9, 41, 0
1, 216479, Note_on_c, 9, 36, 0
1, 216480, Note_on_c, 9, 38, 95
1, 216480, Note_on_c, 9, 42, 95
1, 216496, Note_on_c, 9, 42, 0
1, 216959, Note_on_c, 9, 38, 0
1, 216960, Note_on_c, 9, 41, 95
1, 216960, Note_on_c, 9, 42, 95
1, 216960, Note_on_c, 9, 36, 95
1, 216967, Note_on_c, 9, 42, 0
1, 217199, Note_on_c, 9, 41, 0
1, 217200, Note_on_c, 9, 41, 95
1, 217319, Note_on_c, 9, 41, 0
1, 217320, Note_on_c, 9, 45, 95
1, 217439, Note_on_c, 9, 36, 0
1, 217439, Note_on_c, 9, 45, 0
1, 217440, Note_on_c, 9, 45, 95
1, 217440, Note_on_c, 9, 42, 95
1, 217443, Note_on_c, 9, 42, 0
1, 217559, Note_on_c, 9, 45, 0
1, 217560, Note_on_c, 9, 41, 95
1, 217679, Note_on_c, 9, 41, 0
1, 217680, Note_on_c, 9, 47, 95
1, 217799, Note_on_c, 9, 47, 0
1, 217800, Note_on_c, 9, 47, 95
1, 217919, Note_on_c, 9, 47, 0
1, 217920, Note_on_c, 9, 41, 95
1, 217920, Note_on_c, 9, 42, 95
1, 217923, Note_on_c, 9, 42, 0
1, 218039, Note_on_c, 9, 41, 0
1, 218040, Note_on_c, 9, 45, 95
1, 218040, Note_on_c, 9, 36, 95
1, 218159, Note_on_c, 9, 45, 0
1, 218160, Note_on_c, 9, 41, 95
1, 218279, Note_on_c, 9, 36, 0
1, 218280, Note_on_c, 9, 36, 95
1, 218399, Note_on_c, 9, 41, 0
1, 218399, Note_on_c, 9, 36, 0
1, 218400, Note_on_c, 9, 38, 95
1, 218400, Note_on_c, 9, 42, 95
1, 218416, Note_on_c, 9, 42, 0
1, 218879, Note_on_c, 9, 38, 0
1, 218880, Note_on_c, 9, 41, 95
1, 218880, Note_on_c, 9, 42, 95
1, 218880, Note_on_c, 9, 36, 95
1, 218887, Note_on_c, 9, 42, 0
1, 219119, Note_on_c, 9, 41, 0
1, 219120, Note_on_c, 9, 41, 95
1, 219239, Note_on_c, 9, 41, 0
1, 219240, Note_on_c, 9, 45, 95
1, 219359, Note_on_c, 9, 36, 0
1, 219359, Note_on_c, 9, 45, 0
1, 219360, Note_on_c, 9, 45, 95
1, 219360, Note_on_c, 9, 42, 95
1, 219363, Note_on_c, 9, 42, 0
1, 219479, Note_on_c, 9, 45, 0
1, 219480, Note_on_c, 9, 41, 95
1, 219599, Note_on_c, 9, 41, 0
1, 219600, Note_on_c, 9, 47, 95
1, 219719, Note_on_c, 9, 47, 0
1, 219720, Note_on_c, 9, 47, 95
1, 219839, Note_on_c, 9, 47, 0
1, 219840, Note_on_c, 9, 41, 95
1, 219840, Note_on_c, 9, 37, 95
1, 219840, Note_on_c, 9, 42, 95
1, 219843, Note_on_c, 9, 37, 0
1, 219843, Note_on_c, 9, 42, 0
1, 219959, Note_on_c, 9, 41, 0
1, 219960, Note_on_c, 9, 45, 95
1, 219960, Note_on_c, 9, 36, 95
1, 220079, Note_on_c, 9, 45, 0
1, 220080, Note_on_c, 9, 41, 95
1, 220199, Note_on_c, 9, 36, 0
1, 220200, Note_on_c, 9, 36, 95
1, 220319, Note_on_c, 9, 41, 0
1, 220319, Note_on_c, 9, 36, 0
1, 220320, Note_on_c, 9, 38, 95
1, 220320, Note_on_c, 9, 42, 95
1, 220323, Note_on_c, 9, 42, 0
1, 220439, Note_on_c, 9, 38, 0
1, 220440, Note_on_c, 9, 37, 95
1, 220447, Note_on_c, 9, 37, 0
1, 220680, Note_on_c, 9, 37, 95
1, 220683, Note_on_c, 9, 37, 0
1, 220800, Note_on_c, 9, 41, 95
1, 220800, Note_on_c, 9, 42, 95
1, 220800, Note_on_c, 9, 36, 95
1, 220807, Note_on_c, 9, 42, 0
1, 221039, Note_on_c, 9, 41, 0
1, 221040, Note_on_c, 9, 41, 95
1, 221159, Note_on_c, 9, 41, 0
1, 221160, Note_on_c, 9, 45, 95
1, 221279, Note_on_c, 9, 36, 0
1, 221279, Note_on_c, 9, 45, 0
1, 221280, Note_on_c, 9, 45, 95
1, 221280, Note_on_c, 9, 42, 95
1, 221283, Note_on_c, 9, 42, 0
1, 221399, Note_on_c, 9, 45, 0
1, 221400, Note_on_c, 9, 41, 95
1, 221519, Note_on_c, 9, 41, 0
1, 221520, Note_on_c, 9, 47, 95
1, 221639, Note_on_c, 9, 47, 0
1, 221640, Note_on_c, 9, 47, 95
1, 221759, Note_on_c, 9, 47, 0
1, 221760, Note_on_c, 9, 41, 95
1, 221760, Note_on_c, 9, 42, 95
1, 221763, Note_on_c, 9, 42, 0
1, 221879, Note_on_c, 9, 41, 0
1, 221880, Note_on_c, 9, 45, 95
1, 221880, Note_on_c, 9, 36, 95
1, 221999, Note_on_c, 9, 45, 0
1, 222000, Note_on_c, 9, 41, 95
1, 222119, Note_on_c, 9, 36, 0
1, 222120, Note_on_c, 9, 36, 95
1, 222239, Note_on_c, 9, 41, 0
1, 222239, Note_on_c, 9, 36, 0
1, 222240, Note_on_c, 9, 38, 95
1, 222240, Note_on_c, 9, 47, 95
1, 222240, Note_on_c, 9, 42, 95
1, 222243, Note_on_c, 9, 42, 0
1, 222359, Note_on_c, 9, 38, 0
1, 222359, Note_on_c, 9, 47, 0
1, 222360, Note_on_c, 9, 47, 95
1, 222479, Note_on_c, 9, 47, 0
1, 222480, Note_on_c, 9, 45, 95
1, 222599, Note_on_c, 9, 45, 0
1, 222600, Note_on_c, 9, 41, 95
1, 222719, Note_on_c, 9, 41, 0
1, 222720, Note_on_c, 9, 41, 95
1, 222720, Note_on_c, 9, 42, 95
1, 222720, Note_on_c, 9, 36, 95
1, 222727, Note_on_c, 9, 42, 0
1, 222959, Note_on_c, 9, 41, 0
1, 222960, Note_on_c, 9, 41, 95
1, 223079, Note_on_c, 9, 41, 0
1, 223080, Note_on_c, 9, 45, 95
1, 223199, Note_on_c, 9, 36, 0
1, 223199, Note_on_c, 9, 45, 0
1, 223200, Note_on_c, 9, 45, 95
1, 223200, Note_on_c, 9, 42, 95
1, 223203, Note_on_c, 9, 42, 0
1, 223319, Note_on_c, 9, 45, 0
1, 223320, Note_on_c, 9, 41, 95
1, 223439, Note_on_c, 9, 41, 0
1, 223440, Note_on_c, 9, 47, 95
1, 223559, Note_on_c, 9, 47, 0
1, 223560, Note_on_c, 9, 47, 95
1, 223679, Note_on_c, 9, 47, 0
1, 223680, Note_on_c, 9, 41, 95
1, 223680, Note_on_c, 9, 42, 95
1, 223683, Note_on_c, 9, 42, 0
1, 223799, Note_on_c, 9, 41, 0
1, 223800, Note_on_c, 9, 45, 95
1, 223800, Note_on_c, 9, 36, 95
1, 223919, Note_on_c, 9, 45, 0
1, 223920, Note_on_c, 9, 41, 95
1, 224039, Note_on_c, 9, 36, 0
1, 224040, Note_on_c, 9, 36, 95
1, 224159, Note_on_c, 9, 41, 0
1, 224159, Note_on_c, 9, 36, 0
1, 224160, Note_on_c, 9, 38, 95
1, 224160, Note_on_c, 9, 42, 95
1, 224176, Note_on_c, 9, 42, 0
1, 224639, Note_on_c, 9, 38, 0
1, 224640, Note_on_c, 9, 41, 95
1, 224640, Note_on_c, 9, 42, 95
1, 224640, Note_on_c, 9, 36, 95
1, 224647, Note_on_c, 9, 42, 0
1, 224879, Note_on_c, 9, 41, 0
1, 224880, Note_on_c, 9, 41, 95
1, 224999, Note_on_c, 9, 41, 0
1, 225000, Note_on_c, 9, 45, 95
1, 225119, Note_on_c, 9, 36, 0
1, 225119, Note_on_c, 9, 45, 0
1, 225120, Note_on_c, 9, 45, 95
1, 225120, Note_on_c, 9, 42, 95
1, 225123, Note_on_c, 9, 42, 0
1, 225239, Note_on_c, 9, 45, 0
1, 225240, Note_on_c, 9, 41, 95
1, 225359, Note_on_c, 9, 41, 0
1, 225360, Note_on_c, 9, 47, 95
1, 225479, Note_on_c, 9, 47, 0
1, 225480, Note_on_c, 9, 47, 95
1, 225599, Note_on_c, 9, 47, 0
1, 225600, Note_on_c, 9, 41, 95
1, 225600, Note_on_c, 9, 42, 95
1, 225603, Note_on_c, 9, 42, 0
1, 225719, Note_on_c, 9, 41, 0
1, 225720, Note_on_c, 9, 45, 95
1, 225720, Note_on_c, 9, 36, 95
1, 225839, Note_on_c, 9, 45, 0
1, 225840, Note_on_c, 9, 41, 95
1, 225959, Note_on_c, 9, 36, 0
1, 225960, Note_on_c, 9, 36, 95
1, 226079, Note_on_c, 9, 41, 0
1, 226079, Note_on_c, 9, 36, 0
1, 226080, Note_on_c, 9, 38, 95
1, 226080, Note_on_c, 9, 53, 95
1, 226080, Note_on_c, 9, 42, 95
1, 226087, Note_on_c, 9, 42, 0
1, 226319, Note_on_c, 9, 38, 0
1, 226319, Note_on_c, 9, 53, 0
1, 226320, Note_on_c, 9, 53, 95
1, 226439, Note_on_c, 9, 53, 0
1, 226440, Note_on_c, 9, 51, 95
1, 226443, Note_on_c, 9, 51, 0
1, 226560, Note_on_c, 9, 41, 95
1, 226560, Note_on_c, 9, 42, 95
1, 226560, Note_on_c, 9, 36, 95
1, 226567, Note_on_c, 9, 42, 0
1, 226799, Note_on_c, 9, 41, 0
1, 226800, Note_on_c, 9, 41, 95
1, 226919, Note_on_c, 9, 41, 0
1, 226920, Note_on_c, 9, 45, 95
1, 227039, Note_on_c, 9, 36, 0
1, 227039, Note_on_c, 9, 45, 0
1, 227040, Note_on_c, 9, 45, 95
1, 227040, Note_on_c, 9, 42, 95
1, 227043, Note_on_c, 9, 42, 0
1, 227159, Note_on_c, 9, 45, 0
1, 227160, Note_on_c, 9, 41, 95
1, 227279, Note_on_c, 9, 41, 0
1, 227280, Note_on_c, 9, 47, 95
1, 227399, Note_on_c, 9, 47, 0
1, 227400, Note_on_c, 9, 47, 95
1, 227519, Note_on_c, 9, 47, 0
1, 227520, Note_on_c, 9, 41, 95
1, 227520, Note_on_c, 9, 42, 95
1, 227523, Note_on_c, 9, 42, 0
1, 227639, Note_on_c, 9, 41, 0
1, 227640, Note_on_c, 9, 45, 95
1, 227640, Note_on_c, 9, 36, 95
1, 227759, Note_on_c, 9, 45, 0
1, 227760, Note_on_c, 9, 41, 95
1, 227879, Note_on_c, 9, 36, 0
1, 227880, Note_on_c, 9, 36, 95
1, 227999, Note_on_c, 9, 41, 0
1, 227999, Note_on_c, 9, 36, 0
1, 228000, Note_on_c, 9, 38, 95
1, 228000, Note_on_c, 9, 42, 95
1, 228016, Note_on_c, 9, 42, 0
1, 228479, Note_on_c, 9, 38, 0
1, 228480, Note_on_c, 9, 41, 95
1, 228480, Note_on_c, 9, 42, 95
1, 228480, Note_on_c, 9, 36, 95
1, 228487, Note_on_c, 9, 42, 0
1, 228719, Note_on_c, 9, 41, 0
1, 228720, Note_on_c, 9, 41, 95
1, 228839, Note_on_c, 9, 41, 0
1, 228840, Note_on_c, 9, 45, 95
1, 228959, Note_on_c, 9, 36, 0
1, 228959, Note_on_c, 9, 45, 0
1, 228960, Note_on_c, 9, 45, 95
1, 228960, Note_on_c, 9, 42, 95
1, 228963, Note_on_c, 9, 42, 0
1, 229079, Note_on_c, 9, 45, 0
1, 229080, Note_on_c, 9, 41, 95
1, 229199, Note_on_c, 9, 41, 0
1, 229200, Note_on_c, 9, 47, 95
1, 229319, Note_on_c, 9, 47, 0
1, 229320, Note_on_c, 9, 47, 95
1, 229439, Note_on_c, 9, 47, 0
1, 229440, Note_on_c, 9, 41, 95
1, 229440, Note_on_c, 9, 42, 95
1, 229443, Note_on_c, 9, 42, 0
1, 229559, Note_on_c, 9, 41, 0
1, 229560, Note_on_c, 9, 45, 95
1, 229560, Note_on_c, 9, 36, 95
1, 229679, Note_on_c, 9, 45, 0
1, 229680, Note_on_c, 9, 41, 95
1, 229799, Note_on_c, 9, 36, 0
1, 229800, Note_on_c, 9, 36, 95
1, 229919, Note_on_c, 9, 41, 0
1, 229919, Note_on_c, 9, 36, 0
1, 229920, Note_on_c, 9, 38, 95
1, 229920, Note_on_c, 9, 42, 95
1, 229936, Note_on_c, 9, 42, 0
1, 230399, Note_on_c, 9, 38, 0
1, 230400, Note_on_c, 9, 41, 95
1, 230400, Note_on_c, 9, 42, 95
1, 230400, Note_on_c, 9, 36, 95
1, 230407, Note_on_c, 9, 42, 0
1, 230639, Note_on_c, 9, 41, 0
1, 230640, Note_on_c, 9, 41, 95
1, 230759, Note_on_c, 9, 41, 0
1, 230760, Note_on_c, 9, 45, 95
1, 230879, Note_on_c, 9, 36, 0
1, 230879, Note_on_c, 9, 45, 0
1, 230880, Note_on_c, 9, 45, 95
1, 230880, Note_on_c, 9, 42, 95
1, 230883, Note_on_c, 9, 42, 0
1, 230999, Note_on_c, 9, 45, 0
1, 231000, Note_on_c, 9, 41, 95
1, 231119, Note_on_c, 9, 41, 0
1, 231120, Note_on_c, 9, 47, 95
1, 231239, Note_on_c, 9, 47, 0
1, 231240, Note_on_c, 9, 47, 95
1, 231359, Note_on_c, 9, 47, 0
1, 231360, Note_on_c, 9, 41, 95
1, 231360, Note_on_c, 9, 42, 95
1, 231363, Note_on_c, 9, 42, 0
1, 231479, Note_on_c, 9, 41, 0
1, 231480, Note_on_c, 9, 45, 95
1, 231480, Note_on_c, 9, 36, 95
1, 231599, Note_on_c, 9, 45, 0
1, 231600, Note_on_c, 9, 41, 95
1, 231719, Note_on_c, 9, 36, 0
1, 231720, Note_on_c, 9, 36, 95
1, 231839, Note_on_c, 9, 41, 0
1, 231839, Note_on_c, 9, 36, 0
1, 231840, Note_on_c, 9, 38, 95
1, 231840, Note_on_c, 9, 42, 95
1, 231856, Note_on_c, 9, 42, 0
1, 232319, Note_on_c, 9, 38, 0
1, 232320, Note_on_c, 9, 41, 95
1, 232320, Note_on_c, 9, 42, 95
1, 232320, Note_on_c, 9, 36, 95
1, 232327, Note_on_c, 9, 42, 0
1, 232559, Note_on_c, 9, 41, 0
1, 232560, Note_on_c, 9, 41, 95
1, 232679, Note_on_c, 9, 41, 0
1, 232680, Note_on_c, 9, 45, 95
1, 232799, Note_on_c, 9, 36, 0
1, 232799, Note_on_c, 9, 45, 0
1, 232800, Note_on_c, 9, 45, 95
1, 232800, Note_on_c, 9, 42, 95
1, 232803, Note_on_c, 9, 42, 0
1, 232919, Note_on_c, 9, 45, 0
1, 232920, Note_on_c, 9, 41, 95
1, 233039, Note_on_c, 9, 41, 0
1, 233040, Note_on_c, 9, 47, 95
1, 233159, Note_on_c, 9, 47, 0
1, 233160, Note_on_c, 9, 47, 95
1, 233279, Note_on_c, 9, 47, 0
1, 233280, Note_on_c, 9, 41, 95
1, 233280, Note_on_c, 9, 42, 95
1, 233283, Note_on_c, 9, 42, 0
1, 233399, Note_on_c, 9, 41, 0
1, 233400, Note_on_c, 9, 45, 95
1, 233400, Note_on_c, 9, 36, 95
1, 233519, Note_on_c, 9, 45, 0
1, 233520, Note_on_c, 9, 41, 95
1, 233639, Note_on_c, 9, 36, 0
1, 233640, Note_on_c, 9, 36, 95
1, 233759, Note_on_c, 9, 41, 0
1, 233759, Note_on_c, 9, 36, 0
1, 233760, Note_on_c, 9, 38, 95
1, 233760, Note_on_c, 9, 53, 95
1, 233760, Note_on_c, 9, 42, 95
1, 233767, Note_on_c, 9, 42, 0
1, 233999, Note_on_c, 9, 38, 0
1, 233999, Note_on_c, 9, 53, 0
1, 234000, Note_on_c, 9, 51, 95
1, 234007, Note_on_c, 9, 51, 0
1, 234240, Note_on_c, 9, 41, 95
1, 234240, Note_on_c, 9, 42, 95
1, 234240, Note_on_c, 9, 36, 95
1, 234247, Note_on_c, 9, 42, 0
1, 234479, Note_on_c, 9, 41, 0
1, 234480, Note_on_c, 9, 41, 95
1, 234599, Note_on_c, 9, 41, 0
1, 234600, Note_on_c, 9, 45, 95
1, 234719, Note_on_c, 9, 36, 0
1, 234719, Note_on_c, 9, 45, 0
1, 234720, Note_on_c, 9, 45, 95
1, 234720, Note_on_c, 9, 42, 95
1, 234723, Note_on_c, 9, 42, 0
1, 234839, Note_on_c, 9, 45, 0
1, 234840, Note_on_c, 9, 41, 95
1, 234959, Note_on_c, 9, 41, 0
1, 234960, Note_on_c, 9, 47, 95
1, 235079, Note_on_c, 9, 47, 0
1, 235080, Note_on_c, 9, 47, 95
1, 235199, Note_on_c, 9, 47, 0
1, 235200, Note_on_c, 9, 41, 95
1, 235200, Note_on_c, 9, 42, 95
1, 235203, Note_on_c, 9, 42, 0
1, 235319, Note_on_c, 9, 41, 0
1, 235320, Note_on_c, 9, 45, 95
1, 235320, Note_on_c, 9, 36, 95
1, 235439, Note_on_c, 9, 45, 0
1, 235440, Note_on_c, 9, 41, 95
1, 235559, Note_on_c, 9, 36, 0
1, 235560, Note_on_c, 9, 36, 95
1, 235679, Note_on_c, 9, 41, 0
1, 235679, Note_on_c, 9, 36, 0
1, 235680, Note_on_c, 9, 38, 95
1, 235680, Note_on_c, 9, 42, 95
1, 235696, Note_on_c, 9, 42, 0
1, 236159, Note_on_c, 9, 38, 0
1, 236160, Note_on_c, 9, 41, 95
1, 236160, Note_on_c, 9, 42, 95
1, 236160, Note_on_c, 9, 36, 95
1, 236167, Note_on_c, 9, 42, 0
1, 236399, Note_on_c, 9, 41, 0
1, 236400, Note_on_c, 9, 41, 95
1, 236519, Note_on_c, 9, 41, 0
1, 236520, Note_on_c, 9, 45, 95
1, 236639, Note_on_c, 9, 36, 0
1, 236639, Note_on_c, 9, 45, 0
1, 236640, Note_on_c, 9, 45, 95
1, 236640, Note_on_c, 9, 42, 95
1, 236643, Note_on_c, 9, 42, 0
1, 236759, Note_on_c, 9, 45, 0
1, 236760, Note_on_c, 9, 41, 95
1, 236879, Note_on_c, 9, 41, 0
1, 236880, Note_on_c, 9, 47, 95
1, 236999, Note_on_c, 9, 47, 0
1, 237000, Note_on_c, 9, 47, 95
1, 237119, Note_on_c, 9, 47, 0
1, 237120, Note_on_c, 9, 41, 95
1, 237120, Note_on_c, 9, 42, 95
1, 237123, Note_on_c, 9, 42, 0
1, 237239, Note_on_c, 9, 41, 0
1, 237240, Note_on_c, 9, 45, 95
1, 237240, Note_on_c, 9, 36, 95
1, 237359, Note_on_c, 9, 45, 0
1, 237360, Note_on_c, 9, 41, 95
1, 237479, Note_on_c, 9, 36, 0
1, 237480, Note_on_c, 9, 36, 95
1, 237599, Note_on_c, 9, 41, 0
1, 237599, Note_on_c, 9, 36, 0
1, 237600, Note_on_c, 9, 38, 95
1, 237600, Note_on_c, 9, 42, 95
1, 237600, Note_on_c, 9, 52, 95
1, 237616, Note_on_c, 9, 42, 0
1, 237616, Note_on_c, 9, 52, 0
1, 238079, Note_on_c, 9, 38, 0
1, 238080, Note_on_c, 9, 41, 95
1, 238080, Note_on_c, 9, 42, 95
1, 238080, Note_on_c, 9, 36, 95
1, 238087, Note_on_c, 9, 42, 0
1, 238319, Note_on_c, 9, 41, 0
1, 238320, Note_on_c, 9, 41, 95
1, 238439, Note_on_c, 9, 41, 0
1, 238440, Note_on_c, 9, 45, 95
1, 238559, Note_on_c, 9, 36, 0
1, 238559, Note_on_c, 9, 45, 0
1, 238560, Note_on_c, 9, 45, 95
1, 238560, Note_on_c, 9, 42, 95
1, 238563, Note_on_c, 9, 42, 0
1, 238679, Note_on_c, 9, 45, 0
1, 238680, Note_on_c, 9, 41, 95
1, 238799, Note_on_c, 9, 41, 0
1, 238800, Note_on_c, 9, 47, 95
1, 238919, Note_on_c, 9, 47, 0
1, 238920, Note_on_c, 9, 47, 95
1, 239039, Note_on_c, 9, 47, 0
1, 239040, Note_on_c, 9, 41, 95
1, 239040, Note_on_c, 9, 42, 95
1, 239043, Note_on_c, 9, 42, 0
1, 239159, Note_on_c, 9, 41, 0
1, 239160, Note_on_c, 9, 45, 95
1, 239160, Note_on_c, 9, 36, 95
1, 239279, Note_on_c, 9, 45, 0
1, 239280, Note_on_c, 9, 41, 95
1, 239399, Note_on_c, 9, 36, 0
1, 239400, Note_on_c, 9, 36, 95
1, 239519, Note_on_c, 9, 41, 0
1, 239519, Note_on_c, 9, 36, 0
1, 239520, Note_on_c, 9, 38, 95
1, 239520, Note_on_c, 9, 42, 95
1, 239536, Note_on_c, 9, 42, 0
1, 239999, Note_on_c, 9, 38, 0
1, 240000, Note_on_c, 9, 41, 95
1, 240000, Note_on_c, 9, 42, 95
1, 240000, Note_on_c, 9, 36, 95
1, 240007, Note_on_c, 9, 42, 0
1, 240239, Note_on_c, 9, 41, 0
1, 240240, Note_on_c, 9, 41, 95
1, 240359, Note_on_c, 9, 41, 0
1, 240360, Note_on_c, 9, 45, 95
1, 240479, Note_on_c, 9, 36, 0
1, 240479, Note_on_c, 9, 45, 0
1, 240480, Note_on_c, 9, 45, 95
1, 240480, Note_on_c, 9, 42, 95
1, 240483, Note_on_c, 9, 42, 0
1, 240599, Note_on_c, 9, 45, 0
1, 240600, Note_on_c, 9, 41, 95
1, 240719, Note_on_c, 9, 41, 0
1, 240720, Note_on_c, 9, 47, 95
1, 240839, Note_on_c, 9, 47, 0
1, 240840, Note_on_c, 9, 47, 95
1, 240959, Note_on_c, 9, 47, 0
1, 240960, Note_on_c, 9, 41, 95
1, 240960, Note_on_c, 9, 42, 95
1, 240963, Note_on_c, 9, 42, 0
1, 241079, Note_on_c, 9, 41, 0
1, 241080, Note_on_c, 9, 45, 95
1, 241080, Note_on_c, 9, 36, 95
1, 241199, Note_on_c, 9, 45, 0
1, 241200, Note_on_c, 9, 41, 95
1, 241319, Note_on_c, 9, 36, 0
1, 241320, Note_on_c, 9, 36, 95
1, 241439, Note_on_c, 9, 41, 0
1, 241439, Note_on_c, 9, 36, 0
1, 241440, Note_on_c, 9, 38, 95
1, 241440, Note_on_c, 9, 42, 95
1, 241456, Note_on_c, 9, 42, 0
1, 241919, Note_on_c, 9, 38, 0
1, 241920, Note_on_c, 9, 41, 95
1, 241920, Note_on_c, 9, 42, 95
1, 241920, Note_on_c, 9, 36, 95
1, 241927, Note_on_c, 9, 42, 0
1, 242159, Note_on_c, 9, 41, 0
1, 242160, Note_on_c, 9, 41, 95
1, 242279, Note_on_c, 9, 41, 0
1, 242280, Note_on_c, 9, 45, 95
1, 242399, Note_on_c, 9, 36, 0
1, 242399, Note_on_c, 9, 45, 0
1, 242400, Note_on_c, 9, 45, 95
1, 242400, Note_on_c, 9, 42, 95
1, 242403, Note_on_c, 9, 42, 0
1, 242519, Note_on_c, 9, 45, 0
1, 242520, Note_on_c, 9, 41, 95
1, 242639, Note_on_c, 9, 41, 0
1, 242640, Note_on_c, 9, 47, 95
1, 242759, Note_on_c, 9, 47, 0
1, 242760, Note_on_c, 9, 47, 95
1, 242879, Note_on_c, 9, 47, 0
1, 242880, Note_on_c, 9, 41, 95
1, 242880, Note_on_c, 9, 42, 95
1, 242883, Note_on_c, 9, 42, 0
1, 242999, Note_on_c, 9, 41, 0
1, 243000, Note_on_c, 9, 45, 95
1, 243000, Note_on_c, 9, 36, 95
1, 243119, Note_on_c, 9, 45, 0
1, 243120, Note_on_c, 9, 41, 95
1, 243239, Note_on_c, 9, 36, 0
1, 243240, Note_on_c, 9, 36, 95
1, 243359, Note_on_c, 9, 41, 0
1, 243359, Note_on_c, 9, 36, 0
1, 243360, Note_on_c, 9, 38, 95
1, 243360, Note_on_c, 9, 53, 95
1, 243360, Note_on_c, 9, 42, 95
1, 243376, Note_on_c, 9, 42, 0
1, 243839, Note_on_c, 9, 38, 0
1, 243839, Note_on_c, 9, 53, 0
1, 243840, Note_on_c, 9, 41, 95
1, 243840, Note_on_c, 9, 42, 95
1, 243840, Note_on_c, 9, 36, 95
1, 243847, Note_on_c, 9, 42, 0
1, 244079, Note_on_c, 9, 41, 0
1, 244080, Note_on_c, 9, 41, 95
1, 244199, Note_on_c, 9, 41, 0
1, 244200, Note_on_c, 9, 45, 95
1, 244319, Note_on_c, 9, 36, 0
1, 244319, Note_on_c, 9, 45, 0
1, 244320, Note_on_c, 9, 45, 95
1, 244320, Note_on_c, 9, 42, 95
1, 244323, Note_on_c, 9, 42, 0
1, 244439, Note_on_c, 9, 45, 0
1, 244440, Note_on_c, 9, 41, 95
1, 244559, Note_on_c, 9, 41, 0
1, 244560, Note_on_c, 9, 47, 95
1, 244679, Note_on_c, 9, 47, 0
1, 244680, Note_on_c, 9, 47, 95
1, 244799, Note_on_c, 9, 47, 0
1, 244800, Note_on_c, 9, 41, 95
1, 244800, Note_on_c, 9, 42, 95
1, 244803, Note_on_c, 9, 42, 0
1, 244919, Note_on_c, 9, 41, 0
1, 244920, Note_on_c, 9, 45, 95
1, 244920, Note_on_c, 9, 36, 95
1, 245039, Note_on_c, 9, 45, 0
1, 245040, Note_on_c, 9, 41, 95
1, 245159, Note_on_c, 9, 36, 0
1, 245160, Note_on_c, 9, 36, 95
1, 245279, Note_on_c, 9, 41, 0
1, 245279, Note_on_c, 9, 36, 0
1, 245280, Note_on_c, 9, 38, 95
1, 245280, Note_on_c, 9, 42, 95
1, 245280, Note_on_c, 9, 52, 127
1, 245283, Note_on_c, 9, 42, 0
1, 245283, Note_on_c, 9, 52, 0
1, 245399, Note_on_c, 9, 38, 0
1, 245400, Note_on_c, 9, 52, 95
1, 245403, Note_on_c, 9, 52, 0
1, 245520, Note_on_c, 9, 52, 127
1, 245523, Note_on_c, 9, 52, 0
1, 245640, Note_on_c, 9, 52, 95
1, 245643, Note_on_c, 9, 52, 0
1, 245760, Note_on_c, 9, 41, 95
1, 245760, Note_on_c, 9, 42, 95
1, 245760, Note_on_c, 9, 36, 95
1, 245767, Note_on_c, 9, 42, 0
1, 245999, Note_on_c, 9, 41, 0
1, 246000, Note_on_c, 9, 41, 95
1, 246119, Note_on_c, 9, 41, 0
1, 246120, Note_on_c, 9, 45, 95
1, 246239, Note_on_c, 9, 36, 0
1, 246239, Note_on_c, 9, 45, 0
1, 246240, Note_on_c, 9, 45, 95
1, 246240, Note_on_c, 9, 42, 95
1, 246243, Note_on_c, 9, 42, 0
1, 246359, Note_on_c, 9, 45, 0
1, 246360, Note_on_c, 9, 41, 95
1, 246479, Note_on_c, 9, 41, 0
1, 246480, Note_on_c, 9, 47, 95
1, 246599, Note_on_c, 9, 47, 0
1, 246600, Note_on_c, 9, 47, 95
1, 246719, Note_on_c, 9, 47, 0
1, 246720, Note_on_c, 9, 41, 95
1, 246839, Note_on_c, 9, 41, 0
1, 246840, Note_on_c, 9, 45, 95
1, 246840, Note_on_c, 9, 36, 95
1, 246959, Note_on_c, 9, 45, 0
1, 246960, Note_on_c, 9, 41, 95
1, 247079, Note_on_c, 9, 36, 0
1, 247080, Note_on_c, 9, 36, 95
1, 247199, Note_on_c, 9, 41, 0
1, 247199, Note_on_c, 9, 36, 0
1, 247200, Note_on_c, 9, 38, 95
1, 247679, Note_on_c, 9, 38, 0
1, 247680, Note_on_c, 9, 41, 95
1, 247680, Note_on_c, 9, 36, 95
1, 247919, Note_on_c, 9, 41, 0
1, 247920, Note_on_c, 9, 41, 95
1, 248039, Note_on_c, 9, 41, 0
1, 248040, Note_on_c, 9, 45, 95
1, 248159, Note_on_c, 9, 36, 0
1, 248159, Note_on_c, 9, 45, 0
1, 248160, Note_on_c, 9, 45, 95
1, 248279, Note_on_c, 9, 45, 0
1, 248280, Note_on_c, 9, 41, 95
1, 248399, Note_on_c, 9, 41, 0
1, 248400, Note_on_c, 9, 47, 95
1, 248519, Note_on_c, 9, 47, 0
1, 248520, Note_on_c, 9, 47, 95
1, 248639, Note_on_c, 9, 47, 0
1, 248640, Note_on_c, 9, 41, 95
1, 248759, Note_on_c, 9, 41, 0
1, 248760, Note_on_c, 9, 45, 95
1, 248760, Note_on_c, 9, 36, 95
1, 248879, Note_on_c, 9, 45, 0
1, 248880, Note_on_c, 9, 41, 95
1, 248999, Note_on_c, 9, 36, 0
1, 249000, Note_on_c, 9, 36, 95
1, 249119, Note_on_c, 9, 41, 0
1, 249119, Note_on_c, 9, 36, 0
1, 249120, Note_on_c, 9, 38, 95
1, 249239, Note_on_c, 9, 38, 0
1, 249240, Note_on_c, 9, 37, 95
1, 249247, Note_on_c, 9, 37, 0
1, 249480, Note_on_c, 9, 37, 95
1, 249483, Note_on_c, 9, 37, 0
1, 249600, Note_on_c, 9, 41, 95
1, 249600, Note_on_c, 9, 36, 95
1, 249839, Note_on_c, 9, 41, 0
1, 249840, Note_on_c, 9, 41, 95
1, 249959, Note_on_c, 9, 41, 0
1, 249960, Note_on_c, 9, 45, 95
1, 250079, Note_on_c, 9, 36, 0
1, 250079, Note_on_c, 9, 45, 0
1, 250080, Note_on_c, 9, 45, 95
1, 250199, Note_on_c, 9, 45, 0
1, 250200, Note_on_c, 9, 41, 95
1, 250319, Note_on_c, 9, 41, 0
1, 250320, Note_on_c, 9, 47, 95
1, 250439, Note_on_c, 9, 47, 0
1, 250440, Note_on_c, 9, 47, 95
1, 250559, Note_on_c, 9, 47, 0
1, 250560, Note_on_c, 9, 41, 95
1, 250679, Note_on_c, 9, 41, 0
1, 250680, Note_on_c, 9, 45, 95
1, 250680, Note_on_c, 9, 36, 95
1, 250799, Note_on_c, 9, 45, 0
1, 250800, Note_on_c, 9, 41, 95
1, 250919, Note_on_c, 9, 36, 0
1, 250920, Note_on_c, 9, 36, 95
1, 251039, Note_on_c, 9, 41, 0
1, 251039, Note_on_c, 9, 36, 0
1, 251040, Note_on_c, 9, 38, 95
1, 251519, Note_on_c, 9, 38, 0
1, 251520, Note_on_c, 9, 41, 95
1, 251520, Note_on_c, 9, 36, 95
1, 251759, Note_on_c, 9, 41, 0
1, 251760, Note_on_c, 9, 41, 95
1, 251879, Note_on_c, 9, 41, 0
1, 251880, Note_on_c, 9, 45, 95
1, 251999, Note_on_c, 9, 36, 0
1, 251999, Note_on_c, 9, 45, 0
1, 252000, Note_on_c, 9, 45, 95
1, 252119, Note_on_c, 9, 45, 0
1, 252120, Note_on_c, 9, 41, 95
1, 252239, Note_on_c, 9, 41, 0
1, 252240, Note_on_c, 9, 47, 95
1, 252359, Note_on_c, 9, 47, 0
1, 252360, Note_on_c, 9, 47, 95
1, 252479, Note_on_c, 9, 47, 0
1, 252480, Note_on_c, 9, 41, 95
1, 252599, Note_on_c, 9, 41, 0
1, 252600, Note_on_c, 9, 45, 95
1, 252600, Note_on_c, 9, 36, 95
1, 252719, Note_on_c, 9, 45, 0
1, 252720, Note_on_c, 9, 41, 95
1, 252839, Note_on_c, 9, 36, 0
1, 252840, Note_on_c, 9, 36, 95
1, 252959, Note_on_c, 9, 41, 0
1, 252959, Note_on_c, 9, 36, 0
1, 252960, Note_on_c, 9, 38, 95
1, 252960, Note_on_c, 9, 51, 95
1, 252976, Note_on_c, 9, 51, 0
1, 253439, Note_on_c, 9, 38, 0
1, 253440, Note_on_c, 9, 41, 95
1, 253440, Note_on_c, 9, 36, 95
1, 253679, Note_on_c, 9, 41, 0
1, 253680, Note_on_c, 9, 41, 95
1, 253799, Note_on_c, 9, 41, 0
1, 253800, Note_on_c, 9, 45, 95
1, 253919, Note_on_c, 9, 36, 0
1, 253919, Note_on_c, 9, 45, 0
1, 253920, Note_on_c, 9, 45, 95
1, 254039, Note_on_c, 9, 45, 0
1, 254040, Note_on_c, 9, 41, 95
1, 254159, Note_on_c, 9, 41, 0
1, 254160, Note_on_c, 9, 47, 95
1, 254279, Note_on_c, 9, 47, 0
1, 254280, Note_on_c, 9, 47, 95
1, 254399, Note_on_c, 9, 47, 0
1, 254400, Note_on_c, 9, 41, 95
1, 254519, Note_on_c, 9, 41, 0
1, 254520, Note_on_c, 9, 45, 95
1, 254520, Note_on_c, 9, 36, 95
1, 254639, Note_on_c, 9, 45, 0
1, 254640, Note_on_c, 9, 41, 95
1, 254759, Note_on_c, 9, 36, 0
1, 254760, Note_on_c, 9, 36, 95
1, 254879, Note_on_c, 9, 41, 0
1, 254879, Note_on_c, 9, 36, 0
1, 254880, Note_on_c, 9, 38, 95
1, 255359, Note_on_c, 9, 38, 0
1, 255360, Note_on_c, 9, 41, 95
1, 255360, Note_on_c, 9, 36, 95
1, 255599, Note_on_c, 9, 41, 0
1, 255600, Note_on_c, 9, 41, 95
1, 255719, Note_on_c, 9, 41, 0
1, 255720, Note_on_c, 9, 45, 95
1, 255839, Note_on_c, 9, 36, 0
1, 255839, Note_on_c, 9, 45, 0
1, 255840, Note_on_c, 9, 45, 95
1, 255959, Note_on_c, 9, 45, 0
1, 255960, Note_on_c, 9, 41, 95
1, 256079, Note_on_c, 9, 41, 0
1, 256080, Note_on_c, 9, 47, 95
1, 256199, Note_on_c, 9, 47, 0
1, 256200, Note_on_c, 9, 47, 95
1, 256319, Note_on_c, 9, 47, 0
1, 256320, Note_on_c, 9, 41, 95
1, 256439, Note_on_c, 9, 41, 0
1, 256440, Note_on_c, 9, 45, 95
1, 256440, Note_on_c, 9, 36, 95
1, 256559, Note_on_c, 9, 45, 0
1, 256560, Note_on_c, 9, 41, 95
1, 256679, Note_on_c, 9, 36, 0
1, 256680, Note_on_c, 9, 36, 95
1, 256799, Note_on_c, 9, 41, 0
1, 256799, Note_on_c, 9, 36, 0
1, 256800, Note_on_c, 9, 38, 95
1, 256919, Note_on_c, 9, 38, 0
1, 256920, Note_on_c, 9, 37, 95
1, 256927, Note_on_c, 9, 37, 0
1, 257160, Note_on_c, 9, 37, 95
1, 257163, Note_on_c, 9, 37, 0
1, 257280, Note_on_c, 9, 41, 95
1, 257280, Note_on_c, 9, 36, 95
1, 257519, Note_on_c, 9, 41, 0
1, 257520, Note_on_c, 9, 41, 95
1, 257639, Note_on_c, 9, 41, 0
1, 257640, Note_on_c, 9, 45, 95
1, 257759, Note_on_c, 9, 36, 0
1, 257759, Note_on_c, 9, 45, 0
1, 257760, Note_on_c, 9, 45, 95
1, 257879, Note_on_c, 9, 45, 0
1, 257880, Note_on_c, 9, 41, 95
1, 257999, Note_on_c, 9, 41, 0
1, 258000, Note_on_c, 9, 47, 95
1, 258119, Note_on_c, 9, 47, 0
1, 258120, Note_on_c, 9, 47, 95
1, 258239, Note_on_c, 9, 47, 0
1, 258240, Note_on_c, 9, 41, 95
1, 258359, Note_on_c, 9, 41, 0
1, 258360, Note_on_c, 9, 45, 95
1, 258360, Note_on_c, 9, 36, 95
1, 258479, Note_on_c, 9, 45, 0
1, 258480, Note_on_c, 9, 41, 95
1, 258599, Note_on_c, 9, 36, 0
1, 258600, Note_on_c, 9, 36, 95
1, 258719, Note_on_c, 9, 41, 0
1, 258719, Note_on_c, 9, 36, 0
1, 258720, Note_on_c, 9, 38, 95
1, 259199, Note_on_c, 9, 38, 0
1, 259200, Note_on_c, 9, 41, 95
1, 259200, Note_on_c, 9, 36, 95
1, 259439, Note_on_c, 9, 41, 0
1, 259440, Note_on_c, 9, 41, 95
1, 259559, Note_on_c, 9, 41, 0
1, 259560, Note_on_c, 9, 45, 95
1, 259679, Note_on_c, 9, 36, 0
1, 259679, Note_on_c, 9, 45, 0
1, 259680, Note_on_c, 9, 45, 95
1, 259799, Note_on_c, 9, 45, 0
1, 259800, Note_on_c, 9, 41, 95
1, 259919, Note_on_c, 9, 41, 0
1, 259920, Note_on_c, 9, 47, 95
1, 260039, Note_on_c, 9, 47, 0
1, 260040, Note_on_c, 9, 47, 95
1, 260159, Note_on_c, 9, 47, 0
1, 260160, Note_on_c, 9, 41, 95
1, 260279, Note_on_c, 9, 41, 0
1, 260280, Note_on_c, 9, 45, 95
1, 260280, Note_on_c, 9, 36, 95
1, 260399, Note_on_c, 9, 45, 0
1, 260400, Note_on_c, 9, 41, 95
1, 260519, Note_on_c, 9, 36, 0
1, 260520, Note_on_c, 9, 36, 95
1, 260639, Note_on_c, 9, 41, 0
1, 260639, Note_on_c, 9, 36, 0
1, 260640, Note_on_c, 9, 38, 95
1, 260640, Note_on_c, 9, 79, 95
1, 260759, Note_on_c, 9, 38, 0
1, 260759, Note_on_c, 9, 79, 0
1, 260760, Note_on_c, 9, 38, 95
1, 260760, Note_on_c, 9, 79, 95
1, 260879, Note_on_c, 9, 38, 0
1, 260879, Note_on_c, 9, 79, 0
1, 260880, Note_on_c, 9, 37, 95
1, 260880, Note_on_c, 9, 37, 0
1, 260920, Note_on_c, 9, 37, 95
1, 260920, Note_on_c, 9, 37, 0
1, 260960, Note_on_c, 9, 37, 95
1, 260960, Note_on_c, 9, 37, 0
1, 261000, Note_on_c, 9, 37, 95
1, 261000, Note_on_c, 9, 37, 0
1, 261040, Note_on_c, 9, 37, 95
1, 261040, Note_on_c, 9, 37, 0
1, 261080, Note_on_c, 9, 37, 95
1, 261080, Note_on_c, 9, 37, 0
1, 261120, Note_on_c, 9, 41, 95
1, 261120, Note_on_c, 9, 37, 95
1, 261120, Note_on_c, 9, 37, 0
1, 261120, Note_on_c, 9, 36, 95
1, 261159, Note_on_c, 9, 41, 0
1, 261160, Note_on_c, 9, 37, 95
1, 261160, Note_on_c, 9, 37, 0
1, 261200, Note_on_c, 9, 37, 95
1, 261200, Note_on_c, 9, 37, 0
1, 261240, Note_on_c, 9, 37, 95
1, 261240, Note_on_c, 9, 37, 0
1, 261280, Note_on_c, 9, 37, 95
1, 261280, Note_on_c, 9, 37, 0
1, 261320, Note_on_c, 9, 37, 95
1, 261320, Note_on_c, 9, 37, 0
1, 261360, Note_on_c, 9, 41, 95
1, 261479, Note_on_c, 9, 41, 0
1, 261480, Note_on_c, 9, 45, 95
1, 261599, Note_on_c, 9, 36, 0
1, 261599, Note_on_c, 9, 45, 0
1, 261600, Note_on_c, 9, 45, 95
1, 261719, Note_on_c, 9, 45, 0
1, 261720, Note_on_c, 9, 41, 95
1, 261839, Note_on_c, 9, 41, 0
1, 261840, Note_on_c, 9, 47, 95
1, 261959, Note_on_c, 9, 47, 0
1, 261960, Note_on_c, 9, 47, 95
1, 262079, Note_on_c, 9, 47, 0
1, 262080, Note_on_c, 9, 41, 95
1, 262199, Note_on_c, 9, 41, 0
1, 262200, Note_on_c, 9, 45, 95
1, 262200, Note_on_c, 9, 36, 95
1, 262319, Note_on_c, 9, 45, 0
1, 262320, Note_on_c, 9, 41, 95
1, 262439, Note_on_c, 9, 36, 0
1, 262440, Note_on_c, 9, 36, 95
1, 262559, Note_on_c, 9, 41, 0
1, 262559, Note_on_c, 9, 36, 0
1, 262560, Note_on_c, 9, 38, 95
1, 263039, Note_on_c, 9, 38, 0
1, 263040, Note_on_c, 9, 41, 95
1, 263040, Note_on_c, 9, 36, 95
1, 263279, Note_on_c, 9, 41, 0
1, 263280, Note_on_c, 9, 41, 95
1, 263399, Note_on_c, 9, 41, 0
1, 263400, Note_on_c, 9, 45, 95
1, 263519, Note_on_c, 9, 36, 0
1, 263519, Note_on_c, 9, 45, 0
1, 263520, Note_on_c, 9, 45, 95
1, 263639, Note_on_c, 9, 45, 0
1, 263640, Note_on_c, 9, 41, 95
1, 263759, Note_on_c, 9, 41, 0
1, 263760, Note_on_c, 9, 47, 95
1, 263879, Note_on_c, 9, 47, 0
1, 263880, Note_on_c, 9, 47, 95
1, 263999, Note_on_c, 9, 47, 0
1, 264000, Note_on_c, 9, 41, 95
1, 264119, Note_on_c, 9, 41, 0
1, 264120, Note_on_c, 9, 45, 95
1, 264120, Note_on_c, 9, 36, 95
1, 264239, Note_on_c, 9, 45, 0
1, 264240, Note_on_c, 9, 41, 95
1, 264359, Note_on_c, 9, 36, 0
1, 264360, Note_on_c, 9, 36, 95
1, 264479, Note_on_c, 9, 41, 0
1, 264479, Note_on_c, 9, 36, 0
1, 264480, Note_on_c, 9, 38, 95
1, 264719, Note_on_c, 9, 38, 0
1, 264720, Note_on_c, 9, 45, 50
1, 264959, Note_on_c, 9, 45, 0
1, 264960, Note_on_c, 9, 41, 95
1, 264960, Note_on_c, 9, 36, 95
1, 265199, Note_on_c, 9, 41, 0
1, 265200, Note_on_c, 9, 41, 95
1, 265319, Note_on_c, 9, 41, 0
1, 265320, Note_on_c, 9, 45, 95
1, 265439, Note_on_c, 9, 36, 0
1, 265439, Note_on_c, 9, 45, 0
1, 265440, Note_on_c, 9, 45, 95
1, 265559, Note_on_c, 9, 45, 0
1, 265560, Note_on_c, 9, 41, 95
1, 265679, Note_on_c, 9, 41, 0
1, 265680, Note_on_c, 9, 47, 95
1, 265799, Note_on_c, 9, 47, 0
1, 265800, Note_on_c, 9, 47, 95
1, 265919, Note_on_c, 9, 47, 0
1, 265920, Note_on_c, 9, 41, 95
1, 266039, Note_on_c, 9, 41, 0
1, 266040, Note_on_c, 9, 45, 95
1, 266040, Note_on_c, 9, 36, 95
1, 266159, Note_on_c, 9, 45, 0
1, 266160, Note_on_c, 9, 41, 95
1, 266279, Note_on_c, 9, 36, 0
1, 266280, Note_on_c, 9, 36, 95
1, 266399, Note_on_c, 9, 41, 0
1, 266399, Note_on_c, 9, 36, 0
1, 266400, Note_on_c, 9, 38, 95
1, 266519, Note_on_c, 9, 38, 0
1, 266520, Note_on_c, 9, 37, 95
1, 266527, Note_on_c, 9, 37, 0
1, 266760, Note_on_c, 9, 37, 95
1, 266763, Note_on_c, 9, 37, 0
1, 266880, Note_on_c, 9, 41, 95
1, 266880, Note_on_c, 9, 36, 95
1, 267119, Note_on_c, 9, 41, 0
1, 267120, Note_on_c, 9, 41, 95
1, 267239, Note_on_c, 9, 41, 0
1, 267240, Note_on_c, 9, 45, 95
1, 267359, Note_on_c, 9, 36, 0
1, 267359, Note_on_c, 9, 45, 0
1, 267360, Note_on_c, 9, 45, 95
1, 267479, Note_on_c, 9, 45, 0
1, 267480, Note_on_c, 9, 41, 95
1, 267599, Note_on_c, 9, 41, 0
1, 267600, Note_on_c, 9, 47, 95
1, 267719, Note_on_c, 9, 47, 0
1, 267720, Note_on_c, 9, 47, 95
1, 267839, Note_on_c, 9, 47, 0
1, 267840, Note_on_c, 9, 41, 95
1, 267959, Note_on_c, 9, 41, 0
1, 267960, Note_on_c, 9, 45, 95
1, 267960, Note_on_c, 9, 36, 95
1, 268079, Note_on_c, 9, 45, 0
1, 268080, Note_on_c, 9, 41, 95
1, 268199, Note_on_c, 9, 36, 0
1, 268200, Note_on_c, 9, 36, 95
1, 268319, Note_on_c, 9, 41, 0
1, 268319, Note_on_c, 9, 36, 0
1, 268320, Note_on_c, 9, 38, 95
1, 268320, Note_on_c, 9, 51, 95
1, 268336, Note_on_c, 9, 51, 0
1, 268799, Note_on_c, 9, 38, 0
1, 268800, Note_on_c, 9, 41, 95
1, 268800, Note_on_c, 9, 36, 95
1, 269039, Note_on_c, 9, 41, 0
1, 269040, Note_on_c, 9, 41, 95
1, 269159, Note_on_c, 9, 41, 0
1, 269160, Note_on_c, 9, 45, 95
1, 269279, Note_on_c, 9, 36, 0
1, 269279, Note_on_c, 9, 45, 0
1, 269280, Note_on_c, 9, 45, 95
1, 269399, Note_on_c, 9, 45, 0
1, 269400, Note_on_c, 9, 41, 95
1, 269519, Note_on_c, 9, 41, 0
1, 269520, Note_on_c, 9, 47, 95
1, 269639, Note_on_c, 9, 47, 0
1, 269640, Note_on_c, 9, 47, 95
1, 269759, Note_on_c, 9, 47, 0
1, 269760, Note_on_c, 9, 41, 95
1, 269879, Note_on_c, 9, 41, 0
1, 269880, Note_on_c, 9, 45, 95
1, 269880, Note_on_c, 9, 36, 95
1, 269999, Note_on_c, 9, 45, 0
1, 270000, Note_on_c, 9, 41, 95
1, 270119, Note_on_c, 9, 36, 0
1, 270120, Note_on_c, 9, 36, 95
1, 270239, Note_on_c, 9, 41, 0
1, 270239, Note_on_c, 9, 36, 0
1, 270240, Note_on_c, 9, 38, 95
1, 270719, Note_on_c, 9, 38, 0
1, 270720, Note_on_c, 9, 41, 95
1, 270720, Note_on_c, 9, 36, 95
1, 270959, Note_on_c, 9, 41, 0
1, 270960, Note_on_c, 9, 41, 95
1, 271079, Note_on_c, 9, 41, 0
1, 271080, Note_on_c, 9, 45, 95
1, 271199, Note_on_c, 9, 36, 0
1, 271199, Note_on_c, 9, 45, 0
1, 271200, Note_on_c, 9, 45, 95
1, 271319, Note_on_c, 9, 45, 0
1, 271320, Note_on_c, 9, 41, 95
1, 271439, Note_on_c, 9, 41, 0
1, 271440, Note_on_c, 9, 47, 95
1, 271559, Note_on_c, 9, 47, 0
1, 271560, Note_on_c, 9, 47, 95
1, 271679, Note_on_c, 9, 47, 0
1, 271680, Note_on_c, 9, 41, 95
1, 271799, Note_on_c, 9, 41, 0
1, 271800, Note_on_c, 9, 45, 95
1, 271800, Note_on_c, 9, 36, 95
1, 271919, Note_on_c, 9, 45, 0
1, 271920, Note_on_c, 9, 41, 95
1, 272039, Note_on_c, 9, 36, 0
1, 272040, Note_on_c, 9, 36, 95
1, 272159, Note_on_c, 9, 41, 0
1, 272159, Note_on_c, 9, 36, 0
1, 272160, Note_on_c, 9, 38, 95
1, 272399, Note_on_c, 9, 38, 0
1, 272400, Note_on_c, 9, 45, 50
1, 272639, Note_on_c, 9, 45, 0
1, 272640, Note_on_c, 9, 41, 95
1, 272640, Note_on_c, 9, 36, 95
1, 272879, Note_on_c, 9, 41, 0
1, 272880, Note_on_c, 9, 41, 95
1, 272999, Note_on_c, 9, 41, 0
1, 273000, Note_on_c, 9, 45, 95
1, 273119, Note_on_c, 9, 36, 0
1, 273119, Note_on_c, 9, 45, 0
1, 273120, Note_on_c, 9, 45, 95
1, 273239, Note_on_c, 9, 45, 0
1, 273240, Note_on_c, 9, 41, 95
1, 273359, Note_on_c, 9, 41, 0
1, 273360, Note_on_c, 9, 47, 95
1, 273479, Note_on_c, 9, 47, 0
1, 273480, Note_on_c, 9, 47, 95
1, 273599, Note_on_c, 9, 47, 0
1, 273600, Note_on_c, 9, 41, 95
1, 273719, Note_on_c, 9, 41, 0
1, 273720, Note_on_c, 9, 45, 95
1, 273720, Note_on_c, 9, 36, 95
1, 273839, Note_on_c, 9, 45, 0
1, 273840, Note_on_c, 9, 41, 95
1, 273959, Note_on_c, 9, 36, 0
1, 273960, Note_on_c, 9, 36, 95
1, 274079, Note_on_c, 9, 41, 0
1, 274079, Note_on_c, 9, 36, 0
1, 274080, Note_on_c, 9, 38, 95
1, 274559, Note_on_c, 9, 38, 0
1, 274560, Note_on_c, 9, 41, 95
1, 274560, Note_on_c, 9, 36, 95
1, 274799, Note_on_c, 9, 41, 0
1, 274800, Note_on_c, 9, 41, 95
1, 274919, Note_on_c, 9, 41, 0
1, 274920, Note_on_c, 9, 45, 95
1, 275039, Note_on_c, 9, 36, 0
1, 275039, Note_on_c, 9, 45, 0
1, 275040, Note_on_c, 9, 45, 95
1, 275159, Note_on_c, 9, 45, 0
1, 275160, Note_on_c, 9, 41, 95
1, 275279, Note_on_c, 9, 41, 0
1, 275280, Note_on_c, 9, 47, 95
1, 275399, Note_on_c, 9, 47, 0
1, 275400, Note_on_c, 9, 47, 95
1, 275519, Note_on_c, 9, 47, 0
1, 275520, Note_on_c, 9, 41, 95
1, 275639, Note_on_c, 9, 41, 0
1, 275640, Note_on_c, 9, 45, 95
1, 275640, Note_on_c, 9, 36, 95
1, 275759, Note_on_c, 9, 45, 0
1, 275760, Note_on_c, 9, 41, 95
1, 275879, Note_on_c, 9, 41, 0
1, 275880, Note_on_c, 9, 38, 95
1, 275999, Note_on_c, 9, 36, 0
1, 275999, Note_on_c, 9, 38, 0
1, 276000, Note_on_c, 9, 47, 95
1, 276079, Note_on_c, 9, 47, 0
1, 276080, Note_on_c, 9, 47, 95
1, 276159, Note_on_c, 9, 47, 0
1, 276160, Note_on_c, 9, 45, 95
1, 276239, Note_on_c, 9, 45, 0
1, 276240, Note_on_c, 9, 47, 95
1, 276319, Note_on_c, 9, 47, 0
1, 276320, Note_on_c, 9, 45, 95
1, 276399, Note_on_c, 9, 45, 0
1, 276400, Note_on_c, 9, 41, 95
1, 276479, Note_on_c, 9, 41, 0
1, 276480, Note_on_c, 9, 41, 95
1, 276480, Note_on_c, 9, 51, 95
1, 276480, Note_on_c, 9, 36, 95
1, 276487, Note_on_c, 9, 51, 0
1, 276719, Note_on_c, 9, 41, 0
1, 276720, Note_on_c, 9, 41, 95
1, 276839, Note_on_c, 9, 41, 0
1, 276840, Note_on_c, 9, 45, 95
1, 276959, Note_on_c, 9, 36, 0
1, 276959, Note_on_c, 9, 45, 0
1, 276960, Note_on_c, 9, 45, 95
1, 276960, Note_on_c, 9, 42, 95
1, 276963, Note_on_c, 9, 42, 0
1, 277079, Note_on_c, 9, 45, 0
1, 277080, Note_on_c, 9, 41, 95
1, 277199, Note_on_c, 9, 41, 0
1, 277200, Note_on_c, 9, 47, 95
1, 277319, Note_on_c, 9, 47, 0
1, 277320, Note_on_c, 9, 47, 95
1, 277439, Note_on_c, 9, 47, 0
1, 277440, Note_on_c, 9, 41, 95
1, 277440, Note_on_c, 9, 42, 95
1, 277443, Note_on_c, 9, 42, 0
1, 277559, Note_on_c, 9, 41, 0
1, 277560, Note_on_c, 9, 45, 95
1, 277560, Note_on_c, 9, 36, 95
1, 277679, Note_on_c, 9, 45, 0
1, 277680, Note_on_c, 9, 41, 95
1, 277799, Note_on_c, 9, 36, 0
1, 277800, Note_on_c, 9, 36, 95
1, 277919, Note_on_c, 9, 41, 0
1, 277919, Note_on_c, 9, 36, 0
1, 277920, Note_on_c, 9, 38, 95
1, 277920, Note_on_c, 9, 42, 95
1, 277936, Note_on_c, 9, 42, 0
1, 278399, Note_on_c, 9, 38, 0
1, 278400, Note_on_c, 9, 41, 95
1, 278400, Note_on_c, 9, 42, 95
1, 278400, Note_on_c, 9, 36, 95
1, 278407, Note_on_c, 9, 42, 0
1, 278639, Note_on_c, 9, 41, 0
1, 278640, Note_on_c, 9, 41, 95
1, 278759, Note_on_c, 9, 41, 0
1, 278760, Note_on_c, 9, 45, 95
1, 278879, Note_on_c, 9, 36, 0
1, 278879, Note_on_c, 9, 45, 0
1, 278880, Note_on_c, 9, 45, 95
1, 278880, Note_on_c, 9, 42, 95
1, 278883, Note_on_c, 9, 42, 0
1, 278999, Note_on_c, 9, 45, 0
1, 279000, Note_on_c, 9, 41, 95
1, 279119, Note_on_c, 9, 41, 0
1, 279120, Note_on_c, 9, 47, 95
1, 279239, Note_on_c, 9, 47, 0
1, 279240, Note_on_c, 9, 47, 95
1, 279359, Note_on_c, 9, 47, 0
1, 279360, Note_on_c, 9, 41, 95
1, 279360, Note_on_c, 9, 42, 95
1, 279363, Note_on_c, 9, 42, 0
1, 279479, Note_on_c, 9, 41, 0
1, 279480, Note_on_c, 9, 45, 95
1, 279480, Note_on_c, 9, 36, 95
1, 279599, Note_on_c, 9, 45, 0
1, 279600, Note_on_c, 9, 41, 95
1, 279719, Note_on_c, 9, 36, 0
1, 279720, Note_on_c, 9, 36, 95
1, 279839, Note_on_c, 9, 41, 0
1, 279839, Note_on_c, 9, 36, 0
1, 279840, Note_on_c, 9, 38, 95
1, 279840, Note_on_c, 9, 42, 95
1, 279843, Note_on_c, 9, 42, 0
1, 279959, Note_on_c, 9, 38, 0
1, 279960, Note_on_c, 9, 46, 95
1, 279963, Note_on_c, 9, 46, 0
1, 280080, Note_on_c, 9, 42, 95
1, 280083, Note_on_c, 9, 42, 0
1, 280200, Note_on_c, 9, 46, 95
1, 280203, Note_on_c, 9, 46, 0
1, 280320, Note_on_c, 9, 41, 95
1, 280320, Note_on_c, 9, 42, 95
1, 280320, Note_on_c, 9, 36, 95
1, 280327, Note_on_c, 9, 42, 0
1, 280559, Note_on_c, 9, 41, 0
1, 280560, Note_on_c, 9, 41, 95
1, 280679, Note_on_c, 9, 41, 0
1, 280680, Note_on_c, 9, 45, 95
1, 280799, Note_on_c, 9, 36, 0
1, 280799, Note_on_c, 9, 45, 0
1, 280800, Note_on_c, 9, 45, 95
1, 280800, Note_on_c, 9, 42, 95
1, 280803, Note_on_c, 9, 42, 0
1, 280919, Note_on_c, 9, 45, 0
1, 280920, Note_on_c, 9, 41, 95
1, 281039, Note_on_c, 9, 41, 0
1, 281040, Note_on_c, 9, 47, 95
1, 281159, Note_on_c, 9, 47, 0
1, 281160, Note_on_c, 9, 47, 95
1, 281279, Note_on_c, 9, 47, 0
1, 281280, Note_on_c, 9, 41, 95
1, 281280, Note_on_c, 9, 42, 95
1, 281283, Note_on_c, 9, 42, 0
1, 281399, Note_on_c, 9, 41, 0
1, 281400, Note_on_c, 9, 45, 95
1, 281400, Note_on_c, 9, 36, 95
1, 281519, Note_on_c, 9, 45, 0
1, 281520, Note_on_c, 9, 41, 95
1, 281639, Note_on_c, 9, 36, 0
1, 281640, Note_on_c, 9, 36, 95
1, 281759, Note_on_c, 9, 41, 0
1, 281759, Note_on_c, 9, 36, 0
1, 281760, Note_on_c, 9, 38, 95
1, 281760, Note_on_c, 9, 42, 95
1, 281776, Note_on_c, 9, 42, 0
1, 282239, Note_on_c, 9, 38, 0
1, 282240, Note_on_c, 9, 41, 95
1, 282240, Note_on_c, 9, 42, 95
1, 282240, Note_on_c, 9, 36, 95
1, 282247, Note_on_c, 9, 42, 0
1, 282479, Note_on_c, 9, 41, 0
1, 282480, Note_on_c, 9, 41, 95
1, 282599, Note_on_c, 9, 41, 0
1, 282600, Note_on_c, 9, 45, 95
1, 282719, Note_on_c, 9, 36, 0
1, 282719, Note_on_c, 9, 45, 0
1, 282720, Note_on_c, 9, 45, 95
1, 282720, Note_on_c, 9, 42, 95
1, 282723, Note_on_c, 9, 42, 0
1, 282839, Note_on_c, 9, 45, 0
1, 282840, Note_on_c, 9, 41, 95
1, 282959, Note_on_c, 9, 41, 0
1, 282960, Note_on_c, 9, 47, 95
1, 283079, Note_on_c, 9, 47, 0
1, 283080, Note_on_c, 9, 47, 95
1, 283199, Note_on_c, 9, 47, 0
1, 283200, Note_on_c, 9, 41, 95
1, 283200, Note_on_c, 9, 42, 95
1, 283203, Note_on_c, 9, 42, 0
1, 283319, Note_on_c, 9, 41, 0
1, 283320, Note_on_c, 9, 45, 95
1, 283320, Note_on_c, 9, 36, 95
1, 283439, Note_on_c, 9, 45, 0
1, 283440, Note_on_c, 9, 41, 95
1, 283559, Note_on_c, 9, 36, 0
1, 283560, Note_on_c, 9, 36, 95
1, 283679, Note_on_c, 9, 41, 0
1, 283679, Note_on_c, 9, 36, 0
1, 283680, Note_on_c, 9, 38, 95
1, 283680, Note_on_c, 9, 42, 95
1, 283683, Note_on_c, 9, 42, 0
1, 283799, Note_on_c, 9, 38, 0
1, 283800, Note_on_c, 9, 46, 95
1, 283803, Note_on_c, 9, 46, 0
1, 283920, Note_on_c, 9, 42, 95
1, 283923, Note_on_c, 9, 42, 0
1, 284040, Note_on_c, 9, 46, 95
1, 284043, Note_on_c, 9, 46, 0
1, 284160, Note_on_c, 9, 41, 95
1, 284160, Note_on_c, 9, 42, 95
1, 284160, Note_on_c, 9, 36, 95
1, 284167, Note_on_c, 9, 42, 0
1, 284399, Note_on_c, 9, 41, 0
1, 284400, Note_on_c, 9, 41, 95
1, 284519, Note_on_c, 9, 41, 0
1, 284520, Note_on_c, 9, 45, 95
1, 284639, Note_on_c, 9, 36, 0
1, 284639, Note_on_c, 9, 45, 0
1, 284640, Note_on_c, 9, 45, 95
1, 284640, Note_on_c, 9, 42, 95
1, 284643, Note_on_c, 9, 42, 0
1, 284759, Note_on_c, 9, 45, 0
1, 284760, Note_on_c, 9, 41, 95
1, 284879, Note_on_c, 9, 41, 0
1, 284880, Note_on_c, 9, 47, 95
1, 284999, Note_on_c, 9, 47, 0
1, 285000, Note_on_c, 9, 47, 95
1, 285119, Note_on_c, 9, 47, 0
1, 285120, Note_on_c, 9, 41, 95
1, 285120, Note_on_c, 9, 42, 95
1, 285123, Note_on_c, 9, 42, 0
1, 285239, Note_on_c, 9, 41, 0
1, 285240, Note_on_c, 9, 45, 95
1, 285240, Note_on_c, 9, 36, 95
1, 285359, Note_on_c, 9, 45, 0
1, 285360, Note_on_c, 9, 41, 95
1, 285479, Note_on_c, 9, 36, 0
1, 285480, Note_on_c, 9, 36, 95
1, 285599, Note_on_c, 9, 41, 0
1, 285599, Note_on_c, 9, 36, 0
1, 285600, Note_on_c, 9, 38, 95
1, 285600, Note_on_c, 9, 42, 95
1, 285616, Note_on_c, 9, 42, 0
1, 286079, Note_on_c, 9, 38, 0
1, 286080, Note_on_c, 9, 41, 95
1, 286080, Note_on_c, 9, 42, 95
1, 286080, Note_on_c, 9, 36, 95
1, 286087, Note_on_c, 9, 42, 0
1, 286319, Note_on_c, 9, 41, 0
1, 286320, Note_on_c, 9, 41, 95
1, 286439, Note_on_c, 9, 41, 0
1, 286440, Note_on_c, 9, 45, 95
1, 286559, Note_on_c, 9, 36, 0
1, 286559, Note_on_c, 9, 45, 0
1, 286560, Note_on_c, 9, 45, 95
1, 286560, Note_on_c, 9, 42, 95
1, 286563, Note_on_c, 9, 42, 0
1, 286679, Note_on_c, 9, 45, 0
1, 286680, Note_on_c, 9, 41, 95
1, 286799, Note_on_c, 9, 41, 0
1, 286800, Note_on_c, 9, 47, 95
1, 286919, Note_on_c, 9, 47, 0
1, 286920, Note_on_c, 9, 47, 95
1, 287039, Note_on_c, 9, 47, 0
1, 287040, Note_on_c, 9, 41, 95
1, 287040, Note_on_c, 9, 42, 95
1, 287043, Note_on_c, 9, 42, 0
1, 287159, Note_on_c, 9, 41, 0
1, 287160, Note_on_c, 9, 45, 95
1, 287160, Note_on_c, 9, 36, 95
1, 287279, Note_on_c, 9, 45, 0
1, 287280, Note_on_c, 9, 41, 95
1, 287399, Note_on_c, 9, 36, 0
1, 287400, Note_on_c, 9, 36, 95
1, 287519, Note_on_c, 9, 41, 0
1, 287519, Note_on_c, 9, 36, 0
1, 287520, Note_on_c, 9, 38, 95
1, 287520, Note_on_c, 9, 42, 95
1, 287523, Note_on_c, 9, 42, 0
1, 287639, Note_on_c, 9, 38, 0
1, 287640, Note_on_c, 9, 46, 95
1, 287643, Note_on_c, 9, 46, 0
1, 287760, Note_on_c, 9, 42, 95
1, 287763, Note_on_c, 9, 42, 0
1, 287880, Note_on_c, 9, 46, 95
1, 287883, Note_on_c, 9, 46, 0
1, 288000, Note_on_c, 9, 41, 95
1, 288000, Note_on_c, 9, 42, 95
1, 288000, Note_on_c, 9, 36, 95
1, 288007, Note_on_c, 9, 42, 0
1, 288239, Note_on_c, 9, 41, 0
1, 288240, Note_on_c, 9, 41, 95
1, 288359, Note_on_c, 9, 41, 0
1, 288360, Note_on_c, 9, 45, 95
1, 288479, Note_on_c, 9, 36, 0
1, 288479, Note_on_c, 9, 45, 0
1, 288480, Note_on_c, 9, 45, 95
1, 288480, Note_on_c, 9, 42, 95
1, 288483, Note_on_c, 9, 42, 0
1, 288599, Note_on_c, 9, 45, 0
1, 288600, Note_on_c, 9, 41, 95
1, 288719, Note_on_c, 9, 41, 0
1, 288720, Note_on_c, 9, 47, 95
1, 288839, Note_on_c, 9, 47, 0
1, 288840, Note_on_c, 9, 47, 95
1, 288959, Note_on_c, 9, 47, 0
1, 288960, Note_on_c, 9, 41, 95
1, 288960, Note_on_c, 9, 42, 95
1, 288963, Note_on_c, 9, 42, 0
1, 289079, Note_on_c, 9, 41, 0
1, 289080, Note_on_c, 9, 45, 95
1, 289080, Note_on_c, 9, 36, 95
1, 289199, Note_on_c, 9, 45, 0
1, 289200, Note_on_c, 9, 41, 95
1, 289319, Note_on_c, 9, 36, 0
1, 289320, Note_on_c, 9, 36, 95
1, 289439, Note_on_c, 9, 41, 0
1, 289439, Note_on_c, 9, 36, 0
1, 289440, Note_on_c, 9, 38, 95
1, 289440, Note_on_c, 9, 42, 95
1, 289456, Note_on_c, 9, 42, 0
1, 289919, Note_on_c, 9, 38, 0
1, 289920, Note_on_c, 9, 41, 95
1, 289920, Note_on_c, 9, 42, 95
1, 289920, Note_on_c, 9, 36, 95
1, 289927, Note_on_c, 9, 42, 0
1, 290159, Note_on_c, 9, 41, 0
1, 290160, Note_on_c, 9, 41, 95
1, 290279, Note_on_c, 9, 41, 0
1, 290280, Note_on_c, 9, 45, 95
1, 290399, Note_on_c, 9, 36, 0
1, 290399, Note_on_c, 9, 45, 0
1, 290400, Note_on_c, 9, 45, 95
1, 290400, Note_on_c, 9, 42, 95
1, 290403, Note_on_c, 9, 42, 0
1, 290519, Note_on_c, 9, 45, 0
1, 290520, Note_on_c, 9, 41, 95
1, 290639, Note_on_c, 9, 41, 0
1, 290640, Note_on_c, 9, 47, 95
1, 290759, Note_on_c, 9, 47, 0
1, 290760, Note_on_c, 9, 47, 95
1, 290879, Note_on_c, 9, 47, 0
1, 290880, Note_on_c, 9, 41, 95
1, 290880, Note_on_c, 9, 42, 95
1, 290883, Note_on_c, 9, 42, 0
1, 290999, Note_on_c, 9, 41, 0
1, 291000, Note_on_c, 9, 45, 95
1, 291000, Note_on_c, 9, 36, 95
1, 291119, Note_on_c, 9, 45, 0
1, 291120, Note_on_c, 9, 41, 95
1, 291239, Note_on_c, 9, 36, 0
1, 291240, Note_on_c, 9, 36, 95
1, 291359, Note_on_c, 9, 41, 0
1, 291359, Note_on_c, 9, 36, 0
1, 291360, Note_on_c, 9, 38, 95
1, 291360, Note_on_c, 9, 42, 95
1, 291363, Note_on_c, 9, 42, 0
1, 291479, Note_on_c, 9, 38, 0
1, 291480, Note_on_c, 9, 46, 95
1, 291483, Note_on_c, 9, 46, 0
1, 291600, Note_on_c, 9, 42, 95
1, 291603, Note_on_c, 9, 42, 0
1, 291720, Note_on_c, 9, 46, 95
1, 291723, Note_on_c, 9, 46, 0
1, 291840, Note_on_c, 9, 41, 95
1, 291840, Note_on_c, 9, 42, 95
1, 291840, Note_on_c, 9, 36, 95
1, 291847, Note_on_c, 9, 42, 0
1, 292079, Note_on_c, 9, 41, 0
1, 292080, Note_on_c, 9, 41, 95
1, 292199, Note_on_c, 9, 41, 0
1, 292200, Note_on_c, 9, 45, 95
1, 292319, Note_on_c, 9, 36, 0
1, 292319, Note_on_c, 9, 45, 0
1, 292320, Note_on_c, 9, 45, 95
1, 292320, Note_on_c, 9, 42, 95
1, 292323, Note_on_c, 9, 42, 0
1, 292439, Note_on_c, 9, 45, 0
1, 292440, Note_on_c, 9, 41, 95
1, 292559, Note_on_c, 9, 41, 0
1, 292560, Note_on_c, 9, 47, 95
1, 292679, Note_on_c, 9, 47, 0
1, 292680, Note_on_c, 9, 47, 95
1, 292799, Note_on_c, 9, 47, 0
1, 292800, Note_on_c, 9, 41, 95
1, 292800, Note_on_c, 9, 42, 95
1, 292803, Note_on_c, 9, 42, 0
1, 292919, Note_on_c, 9, 41, 0
1, 292920, Note_on_c, 9, 45, 95
1, 292920, Note_on_c, 9, 36, 95
1, 293039, Note_on_c, 9, 45, 0
1, 293040, Note_on_c, 9, 41, 95
1, 293159, Note_on_c, 9, 36, 0
1, 293160, Note_on_c, 9, 36, 95
1, 293279, Note_on_c, 9, 41, 0
1, 293279, Note_on_c, 9, 36, 0
1, 293280, Note_on_c, 9, 38, 95
1, 293280, Note_on_c, 9, 42, 95
1, 293296, Note_on_c, 9, 42, 0
1, 293759, Note_on_c, 9, 38, 0
1, 293760, Note_on_c, 9, 41, 95
1, 293760, Note_on_c, 9, 42, 95
1, 293760, Note_on_c, 9, 36, 95
1, 293767, Note_on_c, 9, 42, 0
1, 293999, Note_on_c, 9, 41, 0
1, 294000, Note_on_c, 9, 41, 95
1, 294119, Note_on_c, 9, 41, 0
1, 294120, Note_on_c, 9, 45, 95
1, 294239, Note_on_c, 9, 36, 0
1, 294239, Note_on_c, 9, 45, 0
1, 294240, Note_on_c, 9, 45, 95
1, 294240, Note_on_c, 9, 42, 95
1, 294243, Note_on_c, 9, 42, 0
1, 294359, Note_on_c, 9, 45, 0
1, 294360, Note_on_c, 9, 41, 95
1, 294479, Note_on_c, 9, 41, 0
1, 294480, Note_on_c, 9, 47, 95
1, 294599, Note_on_c, 9, 47, 0
1, 294600, Note_on_c, 9, 47, 95
1, 294719, Note_on_c, 9, 47, 0
1, 294720, Note_on_c, 9, 41, 95
1, 294720, Note_on_c, 9, 42, 95
1, 294723, Note_on_c, 9, 42, 0
1, 294839, Note_on_c, 9, 41, 0
1, 294840, Note_on_c, 9, 45, 95
1, 294840, Note_on_c, 9, 36, 95
1, 294959, Note_on_c, 9, 45, 0
1, 294960, Note_on_c, 9, 41, 95
1, 295079, Note_on_c, 9, 36, 0
1, 295080, Note_on_c, 9, 36, 95
1, 295199, Note_on_c, 9, 41, 0
1, 295199, Note_on_c, 9, 36, 0
1, 295200, Note_on_c, 9, 38, 95
1, 295200, Note_on_c, 9, 42, 95
1, 295207, Note_on_c, 9, 42, 0
1, 295439, Note_on_c, 9, 38, 0
1, 295440, Note_on_c, 9, 55, 95
1, 295447, Note_on_c, 9, 55, 0
1, 295680, Note_on_c, 9, 41, 95
1, 295680, Note_on_c, 9, 42, 95
1, 295680, Note_on_c, 9, 36, 95
1, 295687, Note_on_c, 9, 42, 0
1, 295919, Note_on_c, 9, 41, 0
1, 295920, Note_on_c, 9, 41, 95
1, 296039, Note_on_c, 9, 41, 0
1, 296040, Note_on_c, 9, 45, 95
1, 296159, Note_on_c, 9, 36, 0
1, 296159, Note_on_c, 9, 45, 0
1, 296160, Note_on_c, 9, 45, 95
1, 296160, Note_on_c, 9, 42, 95
1, 296163, Note_on_c, 9, 42, 0
1, 296279, Note_on_c, 9, 45, 0
1, 296280, Note_on_c, 9, 41, 95
1, 296399, Note_on_c, 9, 41, 0
1, 296400, Note_on_c, 9, 47, 95
1, 296519, Note_on_c, 9, 47, 0
1, 296520, Note_on_c, 9, 47, 95
1, 296639, Note_on_c, 9, 47, 0
1, 296640, Note_on_c, 9, 41, 95
1, 296640, Note_on_c, 9, 42, 95
1, 296643, Note_on_c, 9, 42, 0
1, 296759, Note_on_c, 9, 41, 0
1, 296760, Note_on_c, 9, 45, 95
1, 296760, Note_on_c, 9, 36, 95
1, 296879, Note_on_c, 9, 45, 0
1, 296880, Note_on_c, 9, 41, 95
1, 296999, Note_on_c, 9, 36, 0
1, 297000, Note_on_c, 9, 36, 95
1, 297119, Note_on_c, 9, 41, 0
1, 297119, Note_on_c, 9, 36, 0
1, 297120, Note_on_c, 9, 38, 95
1, 297120, Note_on_c, 9, 42, 95
1, 297127, Note_on_c, 9, 42, 0
1, 297359, Note_on_c, 9, 38, 0
1, 297360, Note_on_c, 9, 55, 95
1, 297367, Note_on_c, 9, 55, 0
1, 297600, Note_on_c, 9, 41, 95
1, 297600, Note_on_c, 9, 42, 95
1, 297600, Note_on_c, 9, 36, 95
1, 297607, Note_on_c, 9, 42, 0
1, 297839, Note_on_c, 9, 41, 0
1, 297840, Note_on_c, 9, 41, 95
1, 297959, Note_on_c, 9, 41, 0
1, 297960, Note_on_c, 9, 45, 95
1, 298079, Note_on_c, 9, 36, 0
1, 298079, Note_on_c, 9, 45, 0
1, 298080, Note_on_c, 9, 45, 95
1, 298080, Note_on_c, 9, 46, 95
1, 298083, Note_on_c, 9, 46, 0
1, 298199, Note_on_c, 9, 45, 0
1, 298200, Note_on_c, 9, 41, 95
1, 298319, Note_on_c, 9, 41, 0
1, 298320, Note_on_c, 9, 47, 95
1, 298439, Note_on_c, 9, 47, 0
1, 298440, Note_on_c, 9, 47, 95
1, 298559, Note_on_c, 9, 47, 0
1, 298560, Note_on_c, 9, 41, 95
1, 298560, Note_on_c, 9, 37, 95
1, 298563, Note_on_c, 9, 37, 0
1, 298679, Note_on_c, 9, 41, 0
1, 298680, Note_on_c, 9, 45, 95
1, 298680, Note_on_c, 9, 36, 95
1, 298799, Note_on_c, 9, 45, 0
1, 298800, Note_on_c, 9, 41, 95
1, 298919, Note_on_c, 9, 36, 0
1, 298920, Note_on_c, 9, 36, 95
1, 299039, Note_on_c, 9, 41, 0
1, 299039, Note_on_c, 9, 36, 0
1, 299040, Note_on_c, 9, 38, 95
1, 299040, Note_on_c, 9, 47, 95
1, 299519, Note_on_c, 9, 38, 0
1, 299519, Note_on_c, 9, 47, 0
1, 299520, Note_on_c, 9, 41, 95
1, 299520, Note_on_c, 9, 42, 95
1, 299520, Note_on_c, 9, 36, 95
1, 299527, Note_on_c, 9, 42, 0
1, 299759, Note_on_c, 9, 41, 0
1, 299760, Note_on_c, 9, 41, 95
1, 299879, Note_on_c, 9, 41, 0
1, 299880, Note_on_c, 9, 45, 95
1, 299999, Note_on_c, 9, 36, 0
1, 299999, Note_on_c, 9, 45, 0
1, 300000, Note_on_c, 9, 45, 95
1, 300000, Note_on_c, 9, 42, 95
1, 300003, Note_on_c, 9, 42, 0
1, 300119, Note_on_c, 9, 45, 0
1, 300120, Note_on_c, 9, 41, 95
1, 300239, Note_on_c, 9, 41, 0
1, 300240, Note_on_c, 9, 47, 95
1, 300359, Note_on_c, 9, 47, 0
1, 300360, Note_on_c, 9, 47, 95
1, 300479, Note_on_c, 9, 47, 0
1, 300480, Note_on_c, 9, 41, 95
1, 300480, Note_on_c, 9, 42, 95
1, 300483, Note_on_c, 9, 42, 0
1, 300599, Note_on_c, 9, 41, 0
1, 300600, Note_on_c, 9, 45, 95
1, 300600, Note_on_c, 9, 36, 95
1, 300719, Note_on_c, 9, 45, 0
1, 300720, Note_on_c, 9, 41, 95
1, 300839, Note_on_c, 9, 36, 0
1, 300840, Note_on_c, 9, 36, 95
1, 300959, Note_on_c, 9, 41, 0
1, 300959, Note_on_c, 9, 36, 0
1, 300960, Note_on_c, 9, 38, 95
1, 300960, Note_on_c, 9, 42, 95
1, 300976, Note_on_c, 9, 42, 0
1, 301439, Note_on_c, 9, 38, 0
1, 301440, Note_on_c, 9, 41, 95
1, 301440, Note_on_c, 9, 46, 95
1, 301440, Note_on_c, 9, 36, 95
1, 301447, Note_on_c, 9, 46, 0
1, 301679, Note_on_c, 9, 41, 0
1, 301680, Note_on_c, 9, 41, 95
1, 301799, Note_on_c, 9, 41, 0
1, 301800, Note_on_c, 9, 45, 95
1, 301919, Note_on_c, 9, 36, 0
1, 301919, Note_on_c, 9, 45, 0
1, 301920, Note_on_c, 9, 45, 95
1, 301920, Note_on_c, 9, 42, 95
1, 301923, Note_on_c, 9, 42, 0
1, 302039, Note_on_c, 9, 45, 0
1, 302040, Note_on_c, 9, 41, 95
1, 302159, Note_on_c, 9, 41, 0
1, 302160, Note_on_c, 9, 47, 95
1, 302279, Note_on_c, 9, 47, 0
1, 302280, Note_on_c, 9, 47, 95
1, 302399, Note_on_c, 9, 47, 0
1, 302400, Note_on_c, 9, 41, 95
1, 302400, Note_on_c, 9, 42, 95
1, 302403, Note_on_c, 9, 42, 0
1, 302519, Note_on_c, 9, 41, 0
1, 302520, Note_on_c, 9, 45, 95
1, 302520, Note_on_c, 9, 36, 95
1, 302639, Note_on_c, 9, 45, 0
1, 302640, Note_on_c, 9, 41, 95
1, 302759, Note_on_c, 9, 36, 0
1, 302760, Note_on_c, 9, 36, 95
1, 302879, Note_on_c, 9, 41, 0
1, 302879, Note_on_c, 9, 36, 0
1, 302880, Note_on_c, 9, 38, 95
1, 302880, Note_on_c, 9, 46, 95
1, 302896, Note_on_c, 9, 46, 0
1, 303359, Note_on_c, 9, 38, 0
1, 303360, Note_on_c, 9, 41, 95
1, 303360, Note_on_c, 9, 46, 95
1, 303360, Note_on_c, 9, 36, 95
1, 303367, Note_on_c, 9, 46, 0
1, 303599, Note_on_c, 9, 41, 0
1, 303600, Note_on_c, 9, 41, 95
1, 303719, Note_on_c, 9, 41, 0
1, 303720, Note_on_c, 9, 45, 95
1, 303839, Note_on_c, 9, 36, 0
1, 303839, Note_on_c, 9, 45, 0
1, 303840, Note_on_c, 9, 45, 95
1, 303840, Note_on_c, 9, 42, 95
1, 303843, Note_on_c, 9, 42, 0
1, 303959, Note_on_c, 9, 45, 0
1, 303960, Note_on_c, 9, 41, 95
1, 304079, Note_on_c, 9, 41, 0
1, 304080, Note_on_c, 9, 47, 95
1, 304199, Note_on_c, 9, 47, 0
1, 304200, Note_on_c, 9, 47, 95
1, 304319, Note_on_c, 9, 47, 0
1, 304320, Note_on_c, 9, 41, 95
1, 304320, Note_on_c, 9, 42, 95
1, 304323, Note_on_c, 9, 42, 0
1, 304439, Note_on_c, 9, 41, 0
1, 304440, Note_on_c, 9, 45, 95
1, 304440, Note_on_c, 9, 36, 95
1, 304559, Note_on_c, 9, 45, 0
1, 304560, Note_on_c, 9, 41, 95
1, 304679, Note_on_c, 9, 36, 0
1, 304680, Note_on_c, 9, 36, 95
1, 304799, Note_on_c, 9, 41, 0
1, 304799, Note_on_c, 9, 36, 0
1, 304800, Note_on_c, 9, 38, 95
1, 304800, Note_on_c, 9, 46, 95
1, 304816, Note_on_c, 9, 46, 0
1, 305279, Note_on_c, 9, 38, 0
1, 305280, Note_on_c, 9, 41, 95
1, 305280, Note_on_c, 9, 46, 95
1, 305280, Note_on_c, 9, 36, 95
1, 305287, Note_on_c, 9, 46, 0
1, 305519, Note_on_c, 9, 41, 0
1, 305520, Note_on_c, 9, 41, 95
1, 305639, Note_on_c, 9, 41, 0
1, 305640, Note_on_c, 9, 45, 95
1, 305759, Note_on_c, 9, 36, 0
1, 305759, Note_on_c, 9, 45, 0
1, 305760, Note_on_c, 9, 45, 95
1, 305760, Note_on_c, 9, 42, 95
1, 305763, Note_on_c, 9, 42, 0
1, 305879, Note_on_c, 9, 45, 0
1, 305880, Note_on_c, 9, 41, 95
1, 305999, Note_on_c, 9, 41, 0
1, 306000, Note_on_c, 9, 47, 95
1, 306119, Note_on_c, 9, 47, 0
1, 306120, Note_on_c, 9, 47, 95
1, 306239, Note_on_c, 9, 47, 0
1, 306240, Note_on_c, 9, 41, 95
1, 306240, Note_on_c, 9, 42, 95
1, 306243, Note_on_c, 9, 42, 0
1, 306359, Note_on_c, 9, 41, 0
1, 306360, Note_on_c, 9, 45, 95
1, 306360, Note_on_c, 9, 36, 95
1, 306479, Note_on_c, 9, 45, 0
1, 306480, Note_on_c, 9, 41, 95
1, 306599, Note_on_c, 9, 41, 0
1, 306600, Note_on_c, 9, 38, 95
1, 306600, Note_on_c, 9, 46, 95
1, 306603, Note_on_c, 9, 46, 0
1, 306719, Note_on_c, 9, 36, 0
1, 306719, Note_on_c, 9, 38, 0
1, 306720, Note_on_c, 9, 47, 95
1, 306799, Note_on_c, 9, 47, 0
1, 306800, Note_on_c, 9, 47, 95
1, 306879, Note_on_c, 9, 47, 0
1, 306880, Note_on_c, 9, 45, 95
1, 306959, Note_on_c, 9, 45, 0
1, 306960, Note_on_c, 9, 47, 95
1, 307039, Note_on_c, 9, 47, 0
1, 307040, Note_on_c, 9, 45, 95
1, 307119, Note_on_c, 9, 45, 0
1, 307120, Note_on_c, 9, 41, 95
1, 307199, Note_on_c, 9, 41, 0
1, 307200, Note_on_c, 9, 42, 95
1, 307200, Note_on_c, 9, 49, 95
1, 307200, Note_on_c, 9, 36, 95
1, 307207, Note_on_c, 9, 42, 0
1, 307207, Note_on_c, 9, 49, 0
1, 307440, Note_on_c, 9, 47, 95
1, 307559, Note_on_c, 9, 36, 0
1, 307559, Note_on_c, 9, 47, 0
1, 307560, Note_on_c, 9, 42, 95
1, 307560, Note_on_c, 9, 36, 95
1, 307563, Note_on_c, 9, 42, 0
1, 307679, Note_on_c, 9, 36, 0
1, 307800, Note_on_c, 9, 50, 95
1, 307919, Note_on_c, 9, 50, 0
1, 307920, Note_on_c, 9, 47, 95
1, 307920, Note_on_c, 9, 49, 95
1, 307923, Note_on_c, 9, 49, 0
1, 308039, Note_on_c, 9, 47, 0
1, 308040, Note_on_c, 9, 45, 95
1, 308040, Note_on_c, 9, 36, 95
1, 308159, Note_on_c, 9, 45, 0
1, 308159, Note_on_c, 9, 36, 0
1, 308160, Note_on_c, 9, 45, 95
1, 308279, Note_on_c, 9, 45, 0
1, 308280, Note_on_c, 9, 38, 95
1, 308399, Note_on_c, 9, 38, 0
1, 308400, Note_on_c, 9, 50, 95
1, 308520, Note_on_c, 9, 36, 95
1, 308639, Note_on_c, 9, 50, 0
1, 308639, Note_on_c, 9, 36, 0
1, 308760, Note_on_c, 9, 50, 95
1, 308880, Note_on_c, 9, 36, 95
1, 308999, Note_on_c, 9, 50, 0
1, 309000, Note_on_c, 9, 55, 95
1, 309003, Note_on_c, 9, 55, 0
1, 309119, Note_on_c, 9, 36, 0
1, 309120, Note_on_c, 9, 42, 95
1, 309120, Note_on_c, 9, 49, 95
1, 309120, Note_on_c, 9, 36, 95
1, 309127, Note_on_c, 9, 42, 0
1, 309127, Note_on_c, 9, 49, 0
1, 309360, Note_on_c, 9, 47, 95
1, 309479, Note_on_c, 9, 36, 0
1, 309479, Note_on_c, 9, 47, 0
1, 309480, Note_on_c, 9, 42, 95
1, 309480, Note_on_c, 9, 36, 95
1, 309483, Note_on_c, 9, 42, 0
1, 309599, Note_on_c, 9, 36, 0
1, 309720, Note_on_c, 9, 50, 95
1, 309839, Note_on_c, 9, 50, 0
1, 309840, Note_on_c, 9, 47, 95
1, 309840, Note_on_c, 9, 42, 95
1, 309843, Note_on_c, 9, 42, 0
1, 309959, Note_on_c, 9, 47, 0
1, 309960, Note_on_c, 9, 45, 95
1, 309960, Note_on_c, 9, 36, 95
1, 310079, Note_on_c, 9, 45, 0
1, 310079, Note_on_c, 9, 36, 0
1, 310080, Note_on_c, 9, 45, 95
1, 310199, Note_on_c, 9, 45, 0
1, 310200, Note_on_c, 9, 38, 95
1, 310319, Note_on_c, 9, 38, 0
1, 310320, Note_on_c, 9, 50, 95
1, 310440, Note_on_c, 9, 36, 95
1, 310559, Note_on_c, 9, 50, 0
1, 310559, Note_on_c, 9, 36, 0
1, 310680, Note_on_c, 9, 50, 95
1, 310800, Note_on_c, 9, 36, 95
1, 310919, Note_on_c, 9, 50, 0
1, 310920, Note_on_c, 9, 55, 95
1, 310923, Note_on_c, 9, 55, 0
1, 311039, Note_on_c, 9, 36, 0
1, 311040, Note_on_c, 9, 42, 95
1, 311040, Note_on_c, 9, 49, 95
1, 311040, Note_on_c, 9, 36, 95
1, 311047, Note_on_c, 9, 42, 0
1, 311047, Note_on_c, 9, 49, 0
1, 311280, Note_on_c, 9, 47, 95
1, 311399, Note_on_c, 9, 36, 0
1, 311399, Note_on_c, 9, 47, 0
1, 311400, Note_on_c, 9, 42, 95
1, 311400, Note_on_c, 9, 36, 95
1, 311403, Note_on_c, 9, 42, 0
1, 311519, Note_on_c, 9, 36, 0
1, 311640, Note_on_c, 9, 50, 95
1, 311759, Note_on_c, 9, 50, 0
1, 311760, Note_on_c, 9, 47, 95
1, 311760, Note_on_c, 9, 49, 95
1, 311763, Note_on_c, 9, 49, 0
1, 311879, Note_on_c, 9, 47, 0
1, 311880, Note_on_c, 9, 45, 95
1, 311880, Note_on_c, 9, 36, 95
1, 311999, Note_on_c, 9, 45, 0
1, 311999, Note_on_c, 9, 36, 0
1, 312000, Note_on_c, 9, 45, 95
1, 312119, Note_on_c, 9, 45, 0
1, 312120, Note_on_c, 9, 38, 95
1, 312239, Note_on_c, 9, 38, 0
1, 312240, Note_on_c, 9, 50, 95
1, 312360, Note_on_c, 9, 36, 95
1, 312479, Note_on_c, 9, 50, 0
1, 312479, Note_on_c, 9, 36, 0
1, 312600, Note_on_c, 9, 50, 95
1, 312720, Note_on_c, 9, 36, 95
1, 312839, Note_on_c, 9, 50, 0
1, 312840, Note_on_c, 9, 55, 95
1, 312843, Note_on_c, 9, 55, 0
1, 312959, Note_on_c, 9, 36, 0
1, 312960, Note_on_c, 9, 42, 95
1, 312960, Note_on_c, 9, 49, 95
1, 312960, Note_on_c, 9, 36, 95
1, 312967, Note_on_c, 9, 42, 0
1, 312967, Note_on_c, 9, 49, 0
1, 313200, Note_on_c, 9, 47, 95
1, 313319, Note_on_c, 9, 36, 0
1, 313319, Note_on_c, 9, 47, 0
1, 313320, Note_on_c, 9, 42, 95
1, 313320, Note_on_c, 9, 36, 95
1, 313323, Note_on_c, 9, 42, 0
1, 313439, Note_on_c, 9, 36, 0
1, 313560, Note_on_c, 9, 50, 95
1, 313679, Note_on_c, 9, 50, 0
1, 313680, Note_on_c, 9, 47, 95
1, 313680, Note_on_c, 9, 49, 95
1, 313683, Note_on_c, 9, 49, 0
1, 313799, Note_on_c, 9, 47, 0
1, 313800, Note_on_c, 9, 45, 95
1, 313800, Note_on_c, 9, 36, 95
1, 313919, Note_on_c, 9, 45, 0
1, 313919, Note_on_c, 9, 36, 0
1, 313920, Note_on_c, 9, 45, 95
1, 314039, Note_on_c, 9, 45, 0
1, 314040, Note_on_c, 9, 38, 95
1, 314159, Note_on_c, 9, 38, 0
1, 314160, Note_on_c, 9, 50, 95
1, 314280, Note_on_c, 9, 36, 95
1, 314399, Note_on_c, 9, 50, 0
1, 314399, Note_on_c, 9, 36, 0
1, 314520, Note_on_c, 9, 50, 95
1, 314640, Note_on_c, 9, 36, 95
1, 314759, Note_on_c, 9, 50, 0
1, 314760, Note_on_c, 9, 55, 95
1, 314763, Note_on_c, 9, 55, 0
1, 314879, Note_on_c, 9, 36, 0
1, 314880, Note_on_c, 9, 42, 95
1, 314880, Note_on_c, 9, 49, 95
1, 314880, Note_on_c, 9, 36, 95
1, 314887, Note_on_c, 9, 42, 0
1, 314887, Note_on_c, 9, 49, 0
1, 315120, Note_on_c, 9, 47, 95
1, 315239, Note_on_c, 9, 36, 0
1, 315239, Note_on_c, 9, 47, 0
1, 315240, Note_on_c, 9, 42, 95
1, 315240, Note_on_c, 9, 36, 95
1, 315243, Note_on_c, 9, 42, 0
1, 315359, Note_on_c, 9, 36, 0
1, 315480, Note_on_c, 9, 50, 95
1, 315599, Note_on_c, 9, 50, 0
1, 315600, Note_on_c, 9, 47, 95
1, 315600, Note_on_c, 9, 49, 95
1, 315603, Note_on_c, 9, 49, 0
1, 315719, Note_on_c, 9, 47, 0
1, 315720, Note_on_c, 9, 45, 95
1, 315720, Note_on_c, 9, 36, 95
1, 315839, Note_on_c, 9, 45, 0
1, 315839, Note_on_c, 9, 36, 0
1, 315840, Note_on_c, 9, 45, 95
1, 315959, Note_on_c, 9, 45, 0
1, 315960, Note_on_c, 9, 38, 95
1, 316079, Note_on_c, 9, 38, 0
1, 316080, Note_on_c, 9, 50, 95
1, 316200, Note_on_c, 9, 36, 95
1, 316319, Note_on_c, 9, 50, 0
1, 316319, Note_on_c, 9, 36, 0
1, 316440, Note_on_c, 9, 50, 95
1, 316560, Note_on_c, 9, 36, 95
1, 316679, Note_on_c, 9, 50, 0
1, 316680, Note_on_c, 9, 55, 95
1, 316683, Note_on_c, 9, 55, 0
1, 316799, Note_on_c, 9, 36, 0
1, 316800, Note_on_c, 9, 42, 95
1, 316800, Note_on_c, 9, 49, 95
1, 316800, Note_on_c, 9, 36, 95
1, 316807, Note_on_c, 9, 42, 0
1, 316807, Note_on_c, 9, 49, 0
1, 317040, Note_on_c, 9, 47, 95
1, 317159, Note_on_c, 9, 36, 0
1, 317159, Note_on_c, 9, 47, 0
1, 317160, Note_on_c, 9, 42, 95
1, 317160, Note_on_c, 9, 36, 95
1, 317163, Note_on_c, 9, 42, 0
1, 317279, Note_on_c, 9, 36, 0
1, 317400, Note_on_c, 9, 50, 95
1, 317519, Note_on_c, 9, 50, 0
1, 317520, Note_on_c, 9, 47, 95
1, 317520, Note_on_c, 9, 49, 95
1, 317523, Note_on_c, 9, 49, 0
1, 317639, Note_on_c, 9, 47, 0
1, 317640, Note_on_c, 9, 45, 95
1, 317640, Note_on_c, 9, 36, 95
1, 317759, Note_on_c, 9, 45, 0
1, 317759, Note_on_c, 9, 36, 0
1, 317760, Note_on_c, 9, 45, 95
1, 317879, Note_on_c, 9, 45, 0
1, 317880, Note_on_c, 9, 38, 95
1, 317999, Note_on_c, 9, 38, 0
1, 318000, Note_on_c, 9, 50, 95
1, 318120, Note_on_c, 9, 36, 95
1, 318239, Note_on_c, 9, 50, 0
1, 318239, Note_on_c, 9, 36, 0
1, 318360, Note_on_c, 9, 50, 95
1, 318480, Note_on_c, 9, 36, 95
1, 318599, Note_on_c, 9, 50, 0
1, 318600, Note_on_c, 9, 55, 95
1, 318603, Note_on_c, 9, 55, 0
1, 318719, Note_on_c, 9, 36, 0
1, 318720, Note_on_c, 9, 42, 95
1, 318720, Note_on_c, 9, 49, 95
1, 318720, Note_on_c, 9, 36, 95
1, 318727, Note_on_c, 9, 42, 0
1, 318727, Note_on_c, 9, 49, 0
1, 318960, Note_on_c, 9, 47, 95
1, 319079, Note_on_c, 9, 36, 0
1, 319079, Note_on_c, 9, 47, 0
1, 319080, Note_on_c, 9, 42, 95
1, 319080, Note_on_c, 9, 36, 95
1, 319083, Note_on_c, 9, 42, 0
1, 319199, Note_on_c, 9, 36, 0
1, 319320, Note_on_c, 9, 50, 95
1, 319439, Note_on_c, 9, 50, 0
1, 319440, Note_on_c, 9, 47, 95
1, 319440, Note_on_c, 9, 49, 95
1, 319443, Note_on_c, 9, 49, 0
1, 319559, Note_on_c, 9, 47, 0
1, 319560, Note_on_c, 9, 45, 95
1, 319560, Note_on_c, 9, 36, 95
1, 319679, Note_on_c, 9, 45, 0
1, 319679, Note_on_c, 9, 36, 0
1, 319680, Note_on_c, 9, 45, 95
1, 319799, Note_on_c, 9, 45, 0
1, 319800, Note_on_c, 9, 38, 95
1, 319919, Note_on_c, 9, 38, 0
1, 319920, Note_on_c, 9, 50, 95
1, 320040, Note_on_c, 9, 36, 95
1, 320159, Note_on_c, 9, 50, 0
1, 320159, Note_on_c, 9, 36, 0
1, 320280, Note_on_c, 9, 50, 95
1, 320400, Note_on_c, 9, 36, 95
1, 320519, Note_on_c, 9, 50, 0
1, 320520, Note_on_c, 9, 55, 95
1, 320523, Note_on_c, 9, 55, 0
1, 320639, Note_on_c, 9, 36, 0
1, 320640, Note_on_c, 9, 42, 95
1, 320640, Note_on_c, 9, 49, 95
1, 320640, Note_on_c, 9, 36, 95
1, 320647, Note_on_c, 9, 42, 0
1, 320647, Note_on_c, 9, 49, 0
1, 320880, Note_on_c, 9, 47, 95
1, 320999, Note_on_c, 9, 36, 0
1, 320999, Note_on_c, 9, 47, 0
1, 321000, Note_on_c, 9, 42, 95
1, 321000, Note_on_c, 9, 36, 95
1, 321003, Note_on_c, 9, 42, 0
1, 321119, Note_on_c, 9, 36, 0
1, 321240, Note_on_c, 9, 50, 95
1, 321359, Note_on_c, 9, 50, 0
1, 321360, Note_on_c, 9, 47, 95
1, 321360, Note_on_c, 9, 49, 95
1, 321363, Note_on_c, 9, 49, 0
1, 321479, Note_on_c, 9, 47, 0
1, 321480, Note_on_c, 9, 45, 95
1, 321480, Note_on_c, 9, 36, 95
1, 321599, Note_on_c, 9, 45, 0
1, 321599, Note_on_c, 9, 36, 0
1, 321600, Note_on_c, 9, 45, 95
1, 321719, Note_on_c, 9, 45, 0
1, 321720, Note_on_c, 9, 38, 95
1, 321839, Note_on_c, 9, 38, 0
1, 321840, Note_on_c, 9, 50, 95
1, 321840, Note_on_c, 9, 49, 95
1, 321843, Note_on_c, 9, 49, 0
1, 321959, Note_on_c, 9, 50, 0
1, 321960, Note_on_c, 9, 49, 95
1, 321960, Note_on_c, 9, 36, 95
1, 321963, Note_on_c, 9, 49, 0
1, 322079, Note_on_c, 9, 36, 0
1, 322200, Note_on_c, 9, 52, 95
1, 322207, Note_on_c, 9, 52, 0
1, 322320, Note_on_c, 9, 36, 95
1, 322440, Note_on_c, 9, 55, 95
1, 322443, Note_on_c, 9, 55, 0
1, 322559, Note_on_c, 9, 36, 0
1, 322560, Note_on_c, 9, 41, 95
1, 322560, Note_on_c, 9, 42, 95
1, 322560, Note_on_c, 9, 36, 95
1, 322563, Note_on_c, 9, 42, 0
1, 322679, Note_on_c, 9, 41, 0
1, 322680, Note_on_c, 9, 41, 95
1, 322719, Note_on_c, 9, 41, 0
1, 322720, Note_on_c, 9, 41, 95
1, 322759, Note_on_c, 9, 41, 0
1, 322760, Note_on_c, 9, 41, 95
1, 322799, Note_on_c, 9, 36, 0
1, 322799, Note_on_c, 9, 41, 0
1, 322800, Note_on_c, 9, 47, 95
1, 322800, Note_on_c, 9, 36, 95
1, 322919, Note_on_c, 9, 47, 0
1, 322919, Note_on_c, 9, 36, 0
1, 322920, Note_on_c, 9, 38, 95
1, 322920, Note_on_c, 9, 50, 95
1, 322920, Note_on_c, 9, 36, 95
1, 323039, Note_on_c, 9, 38, 0
1, 323039, Note_on_c, 9, 50, 0
1, 323039, Note_on_c, 9, 36, 0
1, 323040, Note_on_c, 9, 38, 95
1, 323040, Note_on_c, 9, 50, 95
1, 323040, Note_on_c, 9, 42, 95
1, 323043, Note_on_c, 9, 42, 0
1, 323159, Note_on_c, 9, 38, 0
1, 323159, Note_on_c, 9, 50, 0
1, 323160, Note_on_c, 9, 47, 95
1, 323279, Note_on_c, 9, 47, 0
1, 323280, Note_on_c, 9, 47, 95
1, 323399, Note_on_c, 9, 47, 0
1, 323400, Note_on_c, 9, 45, 95
1, 323400, Note_on_c, 9, 36, 95
1, 323519, Note_on_c, 9, 45, 0
1, 323519, Note_on_c, 9, 36, 0
1, 323520, Note_on_c, 9, 41, 95
1, 323520, Note_on_c, 9, 42, 95
1, 323527, Note_on_c, 9, 42, 0
1, 323640, Note_on_c, 9, 43, 95
1, 323759, Note_on_c, 9, 41, 0
1, 323759, Note_on_c, 9, 43, 0
1, 323760, Note_on_c, 9, 38, 95
1, 323760, Note_on_c, 9, 36, 95
1, 323879, Note_on_c, 9, 36, 0
1, 323880, Note_on_c, 9, 36, 95
1, 323880, Note_on_c, 9, 43, 95
1, 323999, Note_on_c, 9, 38, 0
1, 323999, Note_on_c, 9, 36, 0
1, 323999, Note_on_c, 9, 43, 0
1, 324000, Note_on_c, 9, 42, 95
1, 324000, Note_on_c, 9, 43, 95
1, 324016, Note_on_c, 9, 42, 0
1, 324119, Note_on_c, 9, 43, 0
1, 324120, Note_on_c, 9, 36, 95
1, 324239, Note_on_c, 9, 36, 0
1, 324240, Note_on_c, 9, 43, 95
1, 324359, Note_on_c, 9, 43, 0
1, 324360, Note_on_c, 9, 43, 95
1, 324479, Note_on_c, 9, 43, 0
1, 324480, Note_on_c, 9, 41, 95
1, 324480, Note_on_c, 9, 42, 95
1, 324480, Note_on_c, 9, 36, 95
1, 324483, Note_on_c, 9, 42, 0
1, 324599, Note_on_c, 9, 41, 0
1, 324600, Note_on_c, 9, 41, 95
1, 324639, Note_on_c, 9, 41, 0
1, 324640, Note_on_c, 9, 41, 95
1, 324679, Note_on_c, 9, 41, 0
1, 324680, Note_on_c, 9, 41, 95
1, 324719, Note_on_c, 9, 36, 0
1, 324719, Note_on_c, 9, 41, 0
1, 324720, Note_on_c, 9, 47, 95
1, 324720, Note_on_c, 9, 36, 95
1, 324839, Note_on_c, 9, 47, 0
1, 324839, Note_on_c, 9, 36, 0
1, 324840, Note_on_c, 9, 38, 95
1, 324840, Note_on_c, 9, 50, 95
1, 324840, Note_on_c, 9, 36, 95
1, 324959, Note_on_c, 9, 38, 0
1, 324959, Note_on_c, 9, 50, 0
1, 324959, Note_on_c, 9, 36, 0
1, 324960, Note_on_c, 9, 38, 95
1, 324960, Note_on_c, 9, 50, 95
1, 324960, Note_on_c, 9, 42, 95
1, 324963, Note_on_c, 9, 42, 0
1, 325079, Note_on_c, 9, 38, 0
1, 325079, Note_on_c, 9, 50, 0
1, 325080, Note_on_c, 9, 47, 95
1, 325199, Note_on_c, 9, 47, 0
1, 325200, Note_on_c, 9, 47, 95
1, 325319, Note_on_c, 9, 47, 0
1, 325320, Note_on_c, 9, 45, 95
1, 325320, Note_on_c, 9, 36, 95
1, 325439, Note_on_c, 9, 45, 0
1, 325439, Note_on_c, 9, 36, 0
1, 325440, Note_on_c, 9, 41, 95
1, 325440, Note_on_c, 9, 42, 95
1, 325447, Note_on_c, 9, 42, 0
1, 325560, Note_on_c, 9, 43, 95
1, 325679, Note_on_c, 9, 41, 0
1, 325679, Note_on_c, 9, 43, 0
1, 325680, Note_on_c, 9, 38, 95
1, 325680, Note_on_c, 9, 36, 95
1, 325799, Note_on_c, 9, 36, 0
1, 325800, Note_on_c, 9, 36, 95
1, 325800, Note_on_c, 9, 43, 95
1, 325919, Note_on_c, 9, 38, 0
1, 325919, Note_on_c, 9, 36, 0
1, 325919, Note_on_c, 9, 43, 0
1, 325920, Note_on_c, 9, 38, 95
1, 326040, Note_on_c, 9, 36, 95
1, 326159, Note_on_c, 9, 36, 0
1, 326160, Note_on_c, 9, 43, 95
1, 326279, Note_on_c, 9, 43, 0
1, 326280, Note_on_c, 9, 43, 95
1, 326399, Note_on_c, 9, 38, 0
1, 326399, Note_on_c, 9, 43, 0
1, 326400, Note_on_c, 9, 41, 95
1, 326400, Note_on_c, 9, 42, 95
1, 326400, Note_on_c, 9, 36, 95
1, 326403, Note_on_c, 9, 42, 0
1, 326519, Note_on_c, 9, 41, 0
1, 326520, Note_on_c, 9, 41, 95
1, 326559, Note_on_c, 9, 41, 0
1, 326560, Note_on_c, 9, 41, 95
1, 326599, Note_on_c, 9, 41, 0
1, 326600, Note_on_c, 9, 41, 95
1, 326639, Note_on_c, 9, 36, 0
1, 326639, Note_on_c, 9, 41, 0
1, 326640, Note_on_c, 9, 47, 95
1, 326640, Note_on_c, 9, 36, 95
1, 326759, Note_on_c, 9, 47, 0
1, 326759, Note_on_c, 9, 36, 0
1, 326760, Note_on_c, 9, 38, 95
1, 326760, Note_on_c, 9, 50, 95
1, 326760, Note_on_c, 9, 36, 95
1, 326879, Note_on_c, 9, 38, 0
1, 326879, Note_on_c, 9, 50, 0
1, 326879, Note_on_c, 9, 36, 0
1, 326880, Note_on_c, 9, 38, 95
1, 326880, Note_on_c, 9, 50, 95
1, 326880, Note_on_c, 9, 42, 95
1, 326883, Note_on_c, 9, 42, 0
1, 326999, Note_on_c, 9, 38, 0
1, 326999, Note_on_c, 9, 50, 0
1, 327000, Note_on_c, 9, 47, 95
1, 327119, Note_on_c, 9, 47, 0
1, 327120, Note_on_c, 9, 47, 95
1, 327239, Note_on_c, 9, 47, 0
1, 327240, Note_on_c, 9, 45, 95
1, 327240, Note_on_c, 9, 36, 95
1, 327359, Note_on_c, 9, 45, 0
1, 327359, Note_on_c, 9, 36, 0
1, 327360, Note_on_c, 9, 41, 95
1, 327360, Note_on_c, 9, 42, 95
1, 327367, Note_on_c, 9, 42, 0
1, 327480, Note_on_c, 9, 43, 95
1, 327599, Note_on_c, 9, 41, 0
1, 327599, Note_on_c, 9, 43, 0
1, 327600, Note_on_c, 9, 38, 95
1, 327600, Note_on_c, 9, 36, 95
1, 327719, Note_on_c, 9, 36, 0
1, 327720, Note_on_c, 9, 43, 95
1, 327839, Note_on_c, 9, 38, 0
1, 327839, Note_on_c, 9, 43, 0
1, 327840, Note_on_c, 9, 48, 95
1, 327840, Note_on_c, 9, 42, 95
1, 327847, Note_on_c, 9, 42, 0
1, 327960, Note_on_c, 9, 36, 95
1, 328079, Note_on_c, 9, 48, 0
1, 328080, Note_on_c, 9, 48, 95
1, 328199, Note_on_c, 9, 36, 0
1, 328200, Note_on_c, 9, 43, 95
1, 328319, Note_on_c, 9, 48, 0
1, 328319, Note_on_c, 9, 43, 0
1, 328320, Note_on_c, 9, 41, 95
1, 328320, Note_on_c, 9, 42, 95
1, 328320, Note_on_c, 9, 36, 95
1, 328323, Note_on_c, 9, 42, 0
1, 328439, Note_on_c, 9, 41, 0
1, 328440, Note_on_c, 9, 41, 95
1, 328479, Note_on_c, 9, 41, 0
1, 328480, Note_on_c, 9, 41, 95
1, 328519, Note_on_c, 9, 41, 0
1, 328520, Note_on_c, 9, 41, 95
1, 328559, Note_on_c, 9, 36, 0
1, 328559, Note_on_c, 9, 41, 0
1, 328560, Note_on_c, 9, 47, 95
1, 328560, Note_on_c, 9, 36, 95
1, 328679, Note_on_c, 9, 47, 0
1, 328679, Note_on_c, 9, 36, 0
1, 328680, Note_on_c, 9, 38, 95
1, 328680, Note_on_c, 9, 50, 95
1, 328680, Note_on_c, 9, 36, 95
1, 328799, Note_on_c, 9, 38, 0
1, 328799, Note_on_c, 9, 50, 0
1, 328799, Note_on_c, 9, 36, 0
1, 328800, Note_on_c, 9, 38, 95
1, 328800, Note_on_c, 9, 50, 95
1, 328800, Note_on_c, 9, 42, 95
1, 328803, Note_on_c, 9, 42, 0
1, 328919, Note_on_c, 9, 38, 0
1, 328919, Note_on_c, 9, 50, 0
1, 328920, Note_on_c, 9, 47, 95
1, 329039, Note_on_c, 9, 47, 0
1, 329040, Note_on_c, 9, 47, 95
1, 329159, Note_on_c, 9, 47, 0
1, 329160, Note_on_c, 9, 45, 95
1, 329160, Note_on_c, 9, 36, 95
1, 329279, Note_on_c, 9, 45, 0
1, 329279, Note_on_c, 9, 36, 0
1, 329280, Note_on_c, 9, 41, 95
1, 329280, Note_on_c, 9, 42, 95
1, 329287, Note_on_c, 9, 42, 0
1, 329400, Note_on_c, 9, 43, 95
1, 329519, Note_on_c, 9, 41, 0
1, 329519, Note_on_c, 9, 43, 0
1, 329520, Note_on_c, 9, 38, 95
1, 329520, Note_on_c, 9, 36, 95
1, 329639, Note_on_c, 9, 36, 0
1, 329640, Note_on_c, 9, 36, 95
1, 329640, Note_on_c, 9, 43, 95
1, 329759, Note_on_c, 9, 38, 0
1, 329759, Note_on_c, 9, 36, 0
1, 329759, Note_on_c, 9, 43, 0
1, 329760, Note_on_c, 9, 42, 95
1, 329760, Note_on_c, 9, 43, 95
1, 329772, Note_on_c, 9, 42, 0
1, 329879, Note_on_c, 9, 43, 0
1, 329880, Note_on_c, 9, 36, 95
1, 329999, Note_on_c, 9, 36, 0
1, 330000, Note_on_c, 9, 43, 95
1, 330119, Note_on_c, 9, 43, 0
1, 330120, Note_on_c, 9, 49, 95
1, 330120, Note_on_c, 9, 43, 95
1, 330123, Note_on_c, 9, 49, 0
1, 330239, Note_on_c, 9, 43, 0
1, 330240, Note_on_c, 9, 41, 95
1, 330240, Note_on_c, 9, 42, 95
1, 330240, Note_on_c, 9, 36, 95
1, 330243, Note_on_c, 9, 42, 0
1, 330359, Note_on_c, 9, 41, 0
1, 330360, Note_on_c, 9, 41, 95
1, 330399, Note_on_c, 9, 41, 0
1, 330400, Note_on_c, 9, 41, 95
1, 330439, Note_on_c, 9, 41, 0
1, 330440, Note_on_c, 9, 41, 95
1, 330479, Note_on_c, 9, 36, 0
1, 330479, Note_on_c, 9, 41, 0
1, 330480, Note_on_c, 9, 47, 95
1, 330480, Note_on_c, 9, 36, 95
1, 330599, Note_on_c, 9, 47, 0
1, 330599, Note_on_c, 9, 36, 0
1, 330600, Note_on_c, 9, 38, 95
1, 330600, Note_on_c, 9, 50, 95
1, 330600, Note_on_c, 9, 36, 95
1, 330719, Note_on_c, 9, 38, 0
1, 330719, Note_on_c, 9, 50, 0
1, 330719, Note_on_c, 9, 36, 0
1, 330720, Note_on_c, 9, 38, 95
1, 330720, Note_on_c, 9, 50, 95
1, 330720, Note_on_c, 9, 42, 95
1, 330723, Note_on_c, 9, 42, 0
1, 330839, Note_on_c, 9, 38, 0
1, 330839, Note_on_c, 9, 50, 0
1, 330840, Note_on_c, 9, 47, 95
1, 330959, Note_on_c, 9, 47, 0
1, 330960, Note_on_c, 9, 47, 95
1, 331079, Note_on_c, 9, 47, 0
1, 331080, Note_on_c, 9, 45, 95
1, 331080, Note_on_c, 9, 36, 95
1, 331199, Note_on_c, 9, 45, 0
1, 331199, Note_on_c, 9, 36, 0
1, 331200, Note_on_c, 9, 41, 95
1, 331200, Note_on_c, 9, 42, 95
1, 331207, Note_on_c, 9, 42, 0
1, 331320, Note_on_c, 9, 43, 95
1, 331439, Note_on_c, 9, 41, 0
1, 331439, Note_on_c, 9, 43, 0
1, 331440, Note_on_c, 9, 38, 95
1, 331440, Note_on_c, 9, 36, 95
1, 331559, Note_on_c, 9, 36, 0
1, 331560, Note_on_c, 9, 36, 95
1, 331560, Note_on_c, 9, 43, 95
1, 331679, Note_on_c, 9, 38, 0
1, 331679, Note_on_c, 9, 36, 0
1, 331679, Note_on_c, 9, 43, 0
1, 331680, Note_on_c, 9, 42, 95
1, 331680, Note_on_c, 9, 43, 95
1, 331683, Note_on_c, 9, 42, 0
1, 331800, Note_on_c, 9, 38, 95
1, 331919, Note_on_c, 9, 43, 0
1, 331920, Note_on_c, 9, 36, 95
1, 332039, Note_on_c, 9, 36, 0
1, 332040, Note_on_c, 9, 43, 95
1, 332159, Note_on_c, 9, 38, 0
1, 332159, Note_on_c, 9, 43, 0
1, 332160, Note_on_c, 9, 41, 95
1, 332160, Note_on_c, 9, 42, 95
1, 332160, Note_on_c, 9, 36, 95
1, 332163, Note_on_c, 9, 42, 0
1, 332279, Note_on_c, 9, 41, 0
1, 332280, Note_on_c, 9, 41, 95
1, 332319, Note_on_c, 9, 41, 0
1, 332320, Note_on_c, 9, 41, 95
1, 332359, Note_on_c, 9, 41, 0
1, 332360, Note_on_c, 9, 41, 95
1, 332399, Note_on_c, 9, 36, 0
1, 332399, Note_on_c, 9, 41, 0
1, 332400, Note_on_c, 9, 47, 95
1, 332400, Note_on_c, 9, 36, 95
1, 332519, Note_on_c, 9, 47, 0
1, 332519, Note_on_c, 9, 36, 0
1, 332520, Note_on_c, 9, 38, 95
1, 332520, Note_on_c, 9, 50, 95
1, 332520, Note_on_c, 9, 36, 95
1, 332639, Note_on_c, 9, 38, 0
1, 332639, Note_on_c, 9, 50, 0
1, 332639, Note_on_c, 9, 36, 0
1, 332640, Note_on_c, 9, 38, 95
1, 332640, Note_on_c, 9, 50, 95
1, 332640, Note_on_c, 9, 42, 95
1, 332643, Note_on_c, 9, 42, 0
1, 332759, Note_on_c, 9, 38, 0
1, 332759, Note_on_c, 9, 50, 0
1, 332760, Note_on_c, 9, 47, 95
1, 332879, Note_on_c, 9, 47, 0
1, 332880, Note_on_c, 9, 47, 95
1, 332999, Note_on_c, 9, 47, 0
1, 333000, Note_on_c, 9, 45, 95
1, 333000, Note_on_c, 9, 36, 95
1, 333119, Note_on_c, 9, 45, 0
1, 333119, Note_on_c, 9, 36, 0
1, 333120, Note_on_c, 9, 41, 95
1, 333120, Note_on_c, 9, 42, 95
1, 333127, Note_on_c, 9, 42, 0
1, 333240, Note_on_c, 9, 43, 95
1, 333359, Note_on_c, 9, 41, 0
1, 333359, Note_on_c, 9, 43, 0
1, 333360, Note_on_c, 9, 38, 95
1, 333360, Note_on_c, 9, 36, 95
1, 333479, Note_on_c, 9, 36, 0
1, 333480, Note_on_c, 9, 36, 95
1, 333480, Note_on_c, 9, 43, 95
1, 333599, Note_on_c, 9, 38, 0
1, 333599, Note_on_c, 9, 36, 0
1, 333599, Note_on_c, 9, 43, 0
1, 333600, Note_on_c, 9, 42, 95
1, 333600, Note_on_c, 9, 43, 95
1, 333603, Note_on_c, 9, 42, 0
1, 333720, Note_on_c, 9, 38, 95
1, 333839, Note_on_c, 9, 43, 0
1, 333840, Note_on_c, 9, 36, 95
1, 333959, Note_on_c, 9, 36, 0
1, 333960, Note_on_c, 9, 43, 95
1, 334079, Note_on_c, 9, 38, 0
1, 334079, Note_on_c, 9, 43, 0
1, 334080, Note_on_c, 9, 41, 95
1, 334080, Note_on_c, 9, 42, 95
1, 334080, Note_on_c, 9, 36, 95
1, 334083, Note_on_c, 9, 42, 0
1, 334199, Note_on_c, 9, 41, 0
1, 334200, Note_on_c, 9, 41, 95
1, 334239, Note_on_c, 9, 41, 0
1, 334240, Note_on_c, 9, 41, 95
1, 334279, Note_on_c, 9, 41, 0
1, 334280, Note_on_c, 9, 41, 95
1, 334319, Note_on_c, 9, 36, 0
1, 334319, Note_on_c, 9, 41, 0
1, 334320, Note_on_c, 9, 47, 95
1, 334320, Note_on_c, 9, 36, 95
1, 334439, Note_on_c, 9, 47, 0
1, 334439, Note_on_c, 9, 36, 0
1, 334440, Note_on_c, 9, 38, 95
1, 334440, Note_on_c, 9, 50, 95
1, 334440, Note_on_c, 9, 36, 95
1, 334559, Note_on_c, 9, 38, 0
1, 334559, Note_on_c, 9, 50, 0
1, 334559, Note_on_c, 9, 36, 0
1, 334560, Note_on_c, 9, 38, 95
1, 334560, Note_on_c, 9, 50, 95
1, 334560, Note_on_c, 9, 42, 95
1, 334563, Note_on_c, 9, 42, 0
1, 334679, Note_on_c, 9, 38, 0
1, 334679, Note_on_c, 9, 50, 0
1, 334680, Note_on_c, 9, 47, 95
1, 334799, Note_on_c, 9, 47, 0
1, 334800, Note_on_c, 9, 47, 95
1, 334919, Note_on_c, 9, 47, 0
1, 334920, Note_on_c, 9, 45, 95
1, 334920, Note_on_c, 9, 36, 95
1, 335039, Note_on_c, 9, 45, 0
1, 335039, Note_on_c, 9, 36, 0
1, 335040, Note_on_c, 9, 41, 95
1, 335040, Note_on_c, 9, 42, 95
1, 335047, Note_on_c, 9, 42, 0
1, 335160, Note_on_c, 9, 43, 95
1, 335279, Note_on_c, 9, 41, 0
1, 335279, Note_on_c, 9, 43, 0
1, 335280, Note_on_c, 9, 38, 95
1, 335280, Note_on_c, 9, 36, 95
1, 335399, Note_on_c, 9, 36, 0
1, 335400, Note_on_c, 9, 36, 95
1, 335400, Note_on_c, 9, 43, 95
1, 335519, Note_on_c, 9, 38, 0
1, 335519, Note_on_c, 9, 36, 0
1, 335519, Note_on_c, 9, 43, 0
1, 335520, Note_on_c, 9, 42, 95
1, 335520, Note_on_c, 9, 43, 95
1, 335523, Note_on_c, 9, 42, 0
1, 335640, Note_on_c, 9, 38, 95
1, 335759, Note_on_c, 9, 43, 0
1, 335760, Note_on_c, 9, 36, 95
1, 335879, Note_on_c, 9, 36, 0
1, 335880, Note_on_c, 9, 43, 95
1, 335999, Note_on_c, 9, 38, 0
1, 335999, Note_on_c, 9, 43, 0
1, 336000, Note_on_c, 9, 41, 95
1, 336000, Note_on_c, 9, 42, 95
1, 336000, Note_on_c, 9, 36, 95
1, 336003, Note_on_c, 9, 42, 0
1, 336119, Note_on_c, 9, 41, 0
1, 336120, Note_on_c, 9, 41, 95
1, 336159, Note_on_c, 9, 41, 0
1, 336160, Note_on_c, 9, 41, 95
1, 336199, Note_on_c, 9, 41, 0
1, 336200, Note_on_c, 9, 41, 95
1, 336239, Note_on_c, 9, 36, 0
1, 336239, Note_on_c, 9, 41, 0
1, 336240, Note_on_c, 9, 47, 95
1, 336240, Note_on_c, 9, 36, 95
1, 336359, Note_on_c, 9, 47, 0
1, 336359, Note_on_c, 9, 36, 0
1, 336360, Note_on_c, 9, 38, 95
1, 336360, Note_on_c, 9, 50, 95
1, 336360, Note_on_c, 9, 36, 95
1, 336479, Note_on_c, 9, 38, 0
1, 336479, Note_on_c, 9, 50, 0
1, 336479, Note_on_c, 9, 36, 0
1, 336480, Note_on_c, 9, 38, 95
1, 336480, Note_on_c, 9, 50, 95
1, 336480, Note_on_c, 9, 42, 95
1, 336483, Note_on_c, 9, 42, 0
1, 336599, Note_on_c, 9, 38, 0
1, 336599, Note_on_c, 9, 50, 0
1, 336600, Note_on_c, 9, 47, 95
1, 336719, Note_on_c, 9, 47, 0
1, 336720, Note_on_c, 9, 47, 95
1, 336839, Note_on_c, 9, 47, 0
1, 336840, Note_on_c, 9, 45, 95
1, 336840, Note_on_c, 9, 36, 95
1, 336959, Note_on_c, 9, 45, 0
1, 336959, Note_on_c, 9, 36, 0
1, 336960, Note_on_c, 9, 41, 95
1, 336960, Note_on_c, 9, 42, 95
1, 336967, Note_on_c, 9, 42, 0
1, 337080, Note_on_c, 9, 43, 95
1, 337199, Note_on_c, 9, 41, 0
1, 337199, Note_on_c, 9, 43, 0
1, 337200, Note_on_c, 9, 38, 95
1, 337200, Note_on_c, 9, 36, 95
1, 337319, Note_on_c, 9, 36, 0
1, 337320, Note_on_c, 9, 36, 95
1, 337320, Note_on_c, 9, 43, 95
1, 337439, Note_on_c, 9, 38, 0
1, 337439, Note_on_c, 9, 36, 0
1, 337439, Note_on_c, 9, 43, 0
1, 337440, Note_on_c, 9, 42, 95
1, 337440, Note_on_c, 9, 43, 95
1, 337443, Note_on_c, 9, 42, 0
1, 337560, Note_on_c, 9, 38, 95
1, 337679, Note_on_c, 9, 43, 0
1, 337680, Note_on_c, 9, 36, 95
1, 337799, Note_on_c, 9, 36, 0
1, 337800, Note_on_c, 9, 43, 95
1, 337919, Note_on_c, 9, 38, 0
1, 337919, Note_on_c, 9, 43, 0
1, 337920, Note_on_c, 9, 41, 95
1, 337920, Note_on_c, 9, 42, 95
1, 337920, Note_on_c, 9, 49, 95
1, 337920, Note_on_c, 9, 36, 95
1, 337923, Note_on_c, 9, 42, 0
1, 337923, Note_on_c, 9, 49, 0
1, 338039, Note_on_c, 9, 41, 0
1, 338040, Note_on_c, 9, 41, 95
1, 338079, Note_on_c, 9, 41, 0
1, 338080, Note_on_c, 9, 41, 95
1, 338119, Note_on_c, 9, 41, 0
1, 338120, Note_on_c, 9, 41, 95
1, 338159, Note_on_c, 9, 36, 0
1, 338159, Note_on_c, 9, 41, 0
1, 338160, Note_on_c, 9, 47, 95
1, 338160, Note_on_c, 9, 36, 95
1, 338279, Note_on_c, 9, 47, 0
1, 338279, Note_on_c, 9, 36, 0
1, 338280, Note_on_c, 9, 38, 95
1, 338280, Note_on_c, 9, 50, 95
1, 338280, Note_on_c, 9, 36, 95
1, 338399, Note_on_c, 9, 38, 0
1, 338399, Note_on_c, 9, 50, 0
1, 338399, Note_on_c, 9, 36, 0
1, 338400, Note_on_c, 9, 38, 95
1, 338400, Note_on_c, 9, 42, 95
1, 338403, Note_on_c, 9, 42, 0
1, 338519, Note_on_c, 9, 38, 0
1, 338520, Note_on_c, 9, 47, 95
1, 338639, Note_on_c, 9, 47, 0
1, 338640, Note_on_c, 9, 47, 95
1, 338640, Note_on_c, 9, 49, 95
1, 338643, Note_on_c, 9, 49, 0
1, 338759, Note_on_c, 9, 47, 0
1, 338760, Note_on_c, 9, 45, 95
1, 338760, Note_on_c, 9, 36, 95
1, 338879, Note_on_c, 9, 45, 0
1, 338879, Note_on_c, 9, 36, 0
1, 338880, Note_on_c, 9, 41, 95
1, 338880, Note_on_c, 9, 42, 95
1, 338883, Note_on_c, 9, 42, 0
1, 338999, Note_on_c, 9, 41, 0
1, 339000, Note_on_c, 9, 55, 95
1, 339000, Note_on_c, 9, 43, 95
1, 339003, Note_on_c, 9, 55, 0
1, 339119, Note_on_c, 9, 43, 0
1, 339120, Note_on_c, 9, 38, 95
1, 339120, Note_on_c, 9, 36, 95
1, 339239, Note_on_c, 9, 38, 0
1, 339239, Note_on_c, 9, 36, 0
1, 339240, Note_on_c, 9, 49, 95
1, 339240, Note_on_c, 9, 36, 95
1, 339240, Note_on_c, 9, 43, 95
1, 339243, Note_on_c, 9, 49, 0
1, 339359, Note_on_c, 9, 36, 0
1, 339359, Note_on_c, 9, 43, 0
1, 339360, Note_on_c, 9, 42, 95
1, 339360, Note_on_c, 9, 43, 95
1, 339363, Note_on_c, 9, 42, 0
1, 339480, Note_on_c, 9, 38, 95
1, 339480, Note_on_c, 9, 55, 95
1, 339492, Note_on_c, 9, 55, 0
1, 339599, Note_on_c, 9, 43, 0
1, 339600, Note_on_c, 9, 36, 95
1, 339719, Note_on_c, 9, 36, 0
1, 339720, Note_on_c, 9, 43, 95
1, 339839, Note_on_c, 9, 38, 0
1, 339839, Note_on_c, 9, 43, 0
1, 339840, Note_on_c, 9, 41, 95
1, 339840, Note_on_c, 9, 42, 95
1, 339840, Note_on_c, 9, 49, 95
1, 339840, Note_on_c, 9, 36, 95
1, 339843, Note_on_c, 9, 42, 0
1, 339843, Note_on_c, 9, 49, 0
1, 339959, Note_on_c, 9, 41, 0
1, 339960, Note_on_c, 9, 41, 95
1, 339999, Note_on_c, 9, 41, 0
1, 340000, Note_on_c, 9, 41, 95
1, 340039, Note_on_c, 9, 41, 0
1, 340040, Note_on_c, 9, 41, 95
1, 340079, Note_on_c, 9, 36, 0
1, 340079, Note_on_c, 9, 41, 0
1, 340080, Note_on_c, 9, 47, 95
1, 340080, Note_on_c, 9, 36, 95
1, 340199, Note_on_c, 9, 47, 0
1, 340199, Note_on_c, 9, 36, 0
1, 340200, Note_on_c, 9, 38, 95
1, 340200, Note_on_c, 9, 50, 95
1, 340200, Note_on_c, 9, 36, 95
1, 340319, Note_on_c, 9, 38, 0
1, 340319, Note_on_c, 9, 50, 0
1, 340319, Note_on_c, 9, 36, 0
1, 340320, Note_on_c, 9, 38, 95
1, 340320, Note_on_c, 9, 42, 95
1, 340323, Note_on_c, 9, 42, 0
1, 340439, Note_on_c, 9, 38, 0
1, 340440, Note_on_c, 9, 47, 95
1, 340559, Note_on_c, 9, 47, 0
1, 340560, Note_on_c, 9, 47, 95
1, 340560, Note_on_c, 9, 49, 95
1, 340563, Note_on_c, 9, 49, 0
1, 340679, Note_on_c, 9, 47, 0
1, 340680, Note_on_c, 9, 45, 95
1, 340680, Note_on_c, 9, 36, 95
1, 340799, Note_on_c, 9, 45, 0
1, 340799, Note_on_c, 9, 36, 0
1, 340800, Note_on_c, 9, 41, 95
1, 340800, Note_on_c, 9, 42, 95
1, 340803, Note_on_c, 9, 42, 0
1, 340919, Note_on_c, 9, 41, 0
1, 340920, Note_on_c, 9, 55, 95
1, 340920, Note_on_c, 9, 43, 95
1, 340923, Note_on_c, 9, 55, 0
1, 341039, Note_on_c, 9, 43, 0
1, 341040, Note_on_c, 9, 38, 95
1, 341040, Note_on_c, 9, 36, 95
1, 341159, Note_on_c, 9, 38, 0
1, 341159, Note_on_c, 9, 36, 0
1, 341160, Note_on_c, 9, 49, 95
1, 341160, Note_on_c, 9, 36, 95
1, 341160, Note_on_c, 9, 43, 95
1, 341163, Note_on_c, 9, 49, 0
1, 341279, Note_on_c, 9, 36, 0
1, 341279, Note_on_c, 9, 43, 0
1, 341280, Note_on_c, 9, 42, 95
1, 341280, Note_on_c, 9, 43, 95
1, 341283, Note_on_c, 9, 42, 0
1, 341400, Note_on_c, 9, 38, 95
1, 341400, Note_on_c, 9, 55, 95
1, 341412, Note_on_c, 9, 55, 0
1, 341519, Note_on_c, 9, 43, 0
1, 341520, Note_on_c, 9, 36, 95
1, 341639, Note_on_c, 9, 36, 0
1, 341640, Note_on_c, 9, 43, 95
1, 341759, Note_on_c, 9, 38, 0
1, 341759, Note_on_c, 9, 43, 0
1, 341760, Note_on_c, 9, 41, 95
1, 341760, Note_on_c, 9, 42, 95
1, 341760, Note_on_c, 9, 49, 95
1, 341760, Note_on_c, 9, 36, 95
1, 341763, Note_on_c, 9, 42, 0
1, 341763, Note_on_c, 9, 49, 0
1, 341879, Note_on_c, 9, 41, 0
1, 341880, Note_on_c, 9, 41, 95
1, 341919, Note_on_c, 9, 41, 0
1, 341920, Note_on_c, 9, 41, 95
1, 341959, Note_on_c, 9, 41, 0
1, 341960, Note_on_c, 9, 41, 95
1, 341999, Note_on_c, 9, 36, 0
1, 341999, Note_on_c, 9, 41, 0
1, 342000, Note_on_c, 9, 47, 95
1, 342000, Note_on_c, 9, 36, 95
1, 342119, Note_on_c, 9, 47, 0
1, 342119, Note_on_c, 9, 36, 0
1, 342120, Note_on_c, 9, 38, 95
1, 342120, Note_on_c, 9, 50, 95
1, 342120, Note_on_c, 9, 36, 95
1, 342239, Note_on_c, 9, 38, 0
1, 342239, Note_on_c, 9, 50, 0
1, 342239, Note_on_c, 9, 36, 0
1, 342240, Note_on_c, 9, 38, 95
1, 342240, Note_on_c, 9, 42, 95
1, 342243, Note_on_c, 9, 42, 0
1, 342359, Note_on_c, 9, 38, 0
1, 342360, Note_on_c, 9, 47, 95
1, 342479, Note_on_c, 9, 47, 0
1, 342480, Note_on_c, 9, 47, 95
1, 342480, Note_on_c, 9, 49, 95
1, 342483, Note_on_c, 9, 49, 0
1, 342599, Note_on_c, 9, 47, 0
1, 342600, Note_on_c, 9, 45, 95
1, 342600, Note_on_c, 9, 36, 95
1, 342719, Note_on_c, 9, 45, 0
1, 342719, Note_on_c, 9, 36, 0
1, 342720, Note_on_c, 9, 41, 95
1, 342720, Note_on_c, 9, 42, 95
1, 342723, Note_on_c, 9, 42, 0
1, 342839, Note_on_c, 9, 41, 0
1, 342840, Note_on_c, 9, 55, 95
1, 342840, Note_on_c, 9, 43, 95
1, 342843, Note_on_c, 9, 55, 0
1, 342959, Note_on_c, 9, 43, 0
1, 342960, Note_on_c, 9, 38, 95
1, 342960, Note_on_c, 9, 36, 95
1, 343079, Note_on_c, 9, 38, 0
1, 343079, Note_on_c, 9, 36, 0
1, 343080, Note_on_c, 9, 49, 95
1, 343080, Note_on_c, 9, 36, 95
1, 343080, Note_on_c, 9, 43, 95
1, 343083, Note_on_c, 9, 49, 0
1, 343199, Note_on_c, 9, 36, 0
1, 343199, Note_on_c, 9, 43, 0
1, 343200, Note_on_c, 9, 42, 95
1, 343200, Note_on_c, 9, 43, 95
1, 343203, Note_on_c, 9, 42, 0
1, 343320, Note_on_c, 9, 38, 95
1, 343320, Note_on_c, 9, 55, 95
1, 343332, Note_on_c, 9, 55, 0
1, 343439, Note_on_c, 9, 43, 0
1, 343440, Note_on_c, 9, 36, 95
1, 343559, Note_on_c, 9, 36, 0
1, 343560, Note_on_c, 9, 43, 95
1, 343679, Note_on_c, 9, 38, 0
1, 343679, Note_on_c, 9, 43, 0
1, 343680, Note_on_c, 9, 41, 95
1, 343680, Note_on_c, 9, 42, 95
1, 343680, Note_on_c, 9, 49, 95
1, 343680, Note_on_c, 9, 52, 95
1, 343680, Note_on_c, 9, 36, 95
1, 343683, Note_on_c, 9, 42, 0
1, 343683, Note_on_c, 9, 49, 0
1, 343683, Note_on_c, 9, 52, 0
1, 343799, Note_on_c, 9, 41, 0
1, 343800, Note_on_c, 9, 41, 95
1, 343839, Note_on_c, 9, 41, 0
1, 343840, Note_on_c, 9, 41, 95
1, 343879, Note_on_c, 9, 41, 0
1, 343880, Note_on_c, 9, 41, 95
1, 343919, Note_on_c, 9, 36, 0
1, 343919, Note_on_c, 9, 41, 0
1, 343920, Note_on_c, 9, 47, 95
1, 343920, Note_on_c, 9, 36, 95
1, 344039, Note_on_c, 9, 47, 0
1, 344039, Note_on_c, 9, 36, 0
1, 344040, Note_on_c, 9, 38, 95
1, 344040, Note_on_c, 9, 50, 95
1, 344040, Note_on_c, 9, 36, 95
1, 344159, Note_on_c, 9, 38, 0
1, 344159, Note_on_c, 9, 50, 0
1, 344159, Note_on_c, 9, 36, 0
1, 344160, Note_on_c, 9, 38, 95
1, 344160, Note_on_c, 9, 50, 95
1, 344160, Note_on_c, 9, 42, 95
1, 344163, Note_on_c, 9, 42, 0
1, 344279, Note_on_c, 9, 38, 0
1, 344279, Note_on_c, 9, 50, 0
1, 344280, Note_on_c, 9, 47, 95
1, 344399, Note_on_c, 9, 47, 0
1, 344400, Note_on_c, 9, 47, 95
1, 344400, Note_on_c, 9, 49, 95
1, 344400, Note_on_c, 9, 52, 95
1, 344403, Note_on_c, 9, 49, 0
1, 344403, Note_on_c, 9, 52, 0
1, 344519, Note_on_c, 9, 47, 0
1, 344520, Note_on_c, 9, 45, 95
1, 344520, Note_on_c, 9, 36, 95
1, 344639, Note_on_c, 9, 45, 0
1, 344639, Note_on_c, 9, 36, 0
1, 344640, Note_on_c, 9, 41, 95
1, 344640, Note_on_c, 9, 42, 95
1, 344647, Note_on_c, 9, 42, 0
1, 344760, Note_on_c, 9, 43, 95
1, 344879, Note_on_c, 9, 41, 0
1, 344879, Note_on_c, 9, 43, 0
1, 344880, Note_on_c, 9, 38, 95
1, 344880, Note_on_c, 9, 36, 95
1, 344999, Note_on_c, 9, 36, 0
1, 345000, Note_on_c, 9, 36, 95
1, 345000, Note_on_c, 9, 43, 95
1, 345119, Note_on_c, 9, 38, 0
1, 345119, Note_on_c, 9, 36, 0
1, 345119, Note_on_c, 9, 43, 0
1, 345120, Note_on_c, 9, 42, 95
1, 345120, Note_on_c, 9, 43, 95
1, 345123, Note_on_c, 9, 42, 0
1, 345240, Note_on_c, 9, 38, 95
1, 345359, Note_on_c, 9, 43, 0
1, 345360, Note_on_c, 9, 36, 95
1, 345479, Note_on_c, 9, 36, 0
1, 345480, Note_on_c, 9, 43, 95
1, 345599, Note_on_c, 9, 38, 0
1, 345599, Note_on_c, 9, 43, 0
1, 345600, Note_on_c, 9, 41, 95
1, 345600, Note_on_c, 9, 42, 95
1, 345600, Note_on_c, 9, 49, 95
1, 345600, Note_on_c, 9, 52, 95
1, 345600, Note_on_c, 9, 36, 95
1, 345603, Note_on_c, 9, 42, 0
1, 345603, Note_on_c, 9, 49, 0
1, 345603, Note_on_c, 9, 52, 0
1, 345719, Note_on_c, 9, 41, 0
1, 345720, Note_on_c, 9, 41, 95
1, 345759, Note_on_c, 9, 41, 0
1, 345760, Note_on_c, 9, 41, 95
1, 345799, Note_on_c, 9, 41, 0
1, 345800, Note_on_c, 9, 41, 95
1, 345839, Note_on_c, 9, 36, 0
1, 345839, Note_on_c, 9, 41, 0
1, 345840, Note_on_c, 9, 47, 95
1, 345840, Note_on_c, 9, 36, 95
1, 345959, Note_on_c, 9, 47, 0
1, 345959, Note_on_c, 9, 36, 0
1, 345960, Note_on_c, 9, 38, 95
1, 345960, Note_on_c, 9, 50, 95
1, 345960, Note_on_c, 9, 36, 95
1, 346079, Note_on_c, 9, 38, 0
1, 346079, Note_on_c, 9, 50, 0
1, 346079, Note_on_c, 9, 36, 0
1, 346080, Note_on_c, 9, 38, 95
1, 346080, Note_on_c, 9, 50, 95
1, 346080, Note_on_c, 9, 42, 95
1, 346083, Note_on_c, 9, 42, 0
1, 346199, Note_on_c, 9, 38, 0
1, 346199, Note_on_c, 9, 50, 0
1, 346200, Note_on_c, 9, 47, 95
1, 346319, Note_on_c, 9, 47, 0
1, 346320, Note_on_c, 9, 47, 95
1, 346320, Note_on_c, 9, 49, 95
1, 346320, Note_on_c, 9, 52, 95
1, 346323, Note_on_c, 9, 49, 0
1, 346323, Note_on_c, 9, 52, 0
1, 346439, Note_on_c, 9, 47, 0
1, 346440, Note_on_c, 9, 45, 95
1, 346440, Note_on_c, 9, 36, 95
1, 346559, Note_on_c, 9, 45, 0
1, 346559, Note_on_c, 9, 36, 0
1, 346560, Note_on_c, 9, 41, 95
1, 346560, Note_on_c, 9, 42, 95
1, 346567, Note_on_c, 9, 42, 0
1, 346680, Note_on_c, 9, 43, 95
1, 346799, Note_on_c, 9, 41, 0
1, 346799, Note_on_c, 9, 43, 0
1, 346800, Note_on_c, 9, 38, 95
1, 346800, Note_on_c, 9, 36, 95
1, 346919, Note_on_c, 9, 36, 0
1, 346920, Note_on_c, 9, 36, 95
1, 346920, Note_on_c, 9, 43, 95
1, 347039, Note_on_c, 9, 38, 0
1, 347039, Note_on_c, 9, 36, 0
1, 347039, Note_on_c, 9, 43, 0
1, 347040, Note_on_c, 9, 42, 95
1, 347040, Note_on_c, 9, 43, 95
1, 347043, Note_on_c, 9, 42, 0
1, 347160, Note_on_c, 9, 38, 95
1, 347279, Note_on_c, 9, 43, 0
1, 347280, Note_on_c, 9, 36, 95
1, 347399, Note_on_c, 9, 36, 0
1, 347400, Note_on_c, 9, 43, 95
1, 347519, Note_on_c, 9, 38, 0
1, 347519, Note_on_c, 9, 43, 0
1, 347520, Note_on_c, 9, 41, 95
1, 347520, Note_on_c, 9, 42, 95
1, 347520, Note_on_c, 9, 49, 95
1, 347520, Note_on_c, 9, 52, 95
1, 347520, Note_on_c, 9, 36, 95
1, 347523, Note_on_c, 9, 42, 0
1, 347523, Note_on_c, 9, 49, 0
1, 347523, Note_on_c, 9, 52, 0
1, 347639, Note_on_c, 9, 41, 0
1, 347640, Note_on_c, 9, 41, 95
1, 347679, Note_on_c, 9, 41, 0
1, 347680, Note_on_c, 9, 41, 95
1, 347719, Note_on_c, 9, 41, 0
1, 347720, Note_on_c, 9, 41, 95
1, 347759, Note_on_c, 9, 36, 0
1, 347759, Note_on_c, 9, 41, 0
1, 347760, Note_on_c, 9, 47, 95
1, 347760, Note_on_c, 9, 36, 95
1, 347879, Note_on_c, 9, 47, 0
1, 347879, Note_on_c, 9, 36, 0
1, 347880, Note_on_c, 9, 38, 95
1, 347880, Note_on_c, 9, 50, 95
1, 347880, Note_on_c, 9, 36, 95
1, 347999, Note_on_c, 9, 38, 0
1, 347999, Note_on_c, 9, 50, 0
1, 347999, Note_on_c, 9, 36, 0
1, 348000, Note_on_c, 9, 38, 95
1, 348000, Note_on_c, 9, 50, 95
1, 348000, Note_on_c, 9, 42, 95
1, 348003, Note_on_c, 9, 42, 0
1, 348119, Note_on_c, 9, 38, 0
1, 348119, Note_on_c, 9, 50, 0
1, 348120, Note_on_c, 9, 47, 95
1, 348239, Note_on_c, 9, 47, 0
1, 348240, Note_on_c, 9, 47, 95
1, 348240, Note_on_c, 9, 49, 95
1, 348240, Note_on_c, 9, 52, 95
1, 348243, Note_on_c, 9, 49, 0
1, 348243, Note_on_c, 9, 52, 0
1, 348359, Note_on_c, 9, 47, 0
1, 348360, Note_on_c, 9, 45, 95
1, 348360, Note_on_c, 9, 36, 95
1, 348479, Note_on_c, 9, 45, 0
1, 348479, Note_on_c, 9, 36, 0
1, 348480, Note_on_c, 9, 41, 95
1, 348480, Note_on_c, 9, 42, 95
1, 348487, Note_on_c, 9, 42, 0
1, 348600, Note_on_c, 9, 43, 95
1, 348719, Note_on_c, 9, 41, 0
1, 348719, Note_on_c, 9, 43, 0
1, 348720, Note_on_c, 9, 38, 95
1, 348720, Note_on_c, 9, 36, 95
1, 348839, Note_on_c, 9, 36, 0
1, 348840, Note_on_c, 9, 36, 95
1, 348840, Note_on_c, 9, 43, 95
1, 348959, Note_on_c, 9, 38, 0
1, 348959, Note_on_c, 9, 36, 0
1, 348959, Note_on_c, 9, 43, 0
1, 348960, Note_on_c, 9, 42, 95
1, 348960, Note_on_c, 9, 43, 95
1, 348963, Note_on_c, 9, 42, 0
1, 349080, Note_on_c, 9, 38, 95
1, 349199, Note_on_c, 9, 43, 0
1, 349200, Note_on_c, 9, 36, 95
1, 349319, Note_on_c, 9, 36, 0
1, 349320, Note_on_c, 9, 43, 95
1, 349439, Note_on_c, 9, 38, 0
1, 349439, Note_on_c, 9, 43, 0
1, 349440, Note_on_c, 9, 41, 95
1, 349440, Note_on_c, 9, 42, 95
1, 349440, Note_on_c, 9, 49, 95
1, 349440, Note_on_c, 9, 52, 95
1, 349440, Note_on_c, 9, 36, 95
1, 349443, Note_on_c, 9, 42, 0
1, 349443, Note_on_c, 9, 49, 0
1, 349443, Note_on_c, 9, 52, 0
1, 349559, Note_on_c, 9, 41, 0
1, 349560, Note_on_c, 9, 41, 95
1, 349599, Note_on_c, 9, 41, 0
1, 349600, Note_on_c, 9, 41, 95
1, 349639, Note_on_c, 9, 41, 0
1, 349640, Note_on_c, 9, 41, 95
1, 349679, Note_on_c, 9, 36, 0
1, 349679, Note_on_c, 9, 41, 0
1, 349680, Note_on_c, 9, 47, 95
1, 349680, Note_on_c, 9, 36, 95
1, 349799, Note_on_c, 9, 47, 0
1, 349799, Note_on_c, 9, 36, 0
1, 349800, Note_on_c, 9, 38, 95
1, 349800, Note_on_c, 9, 50, 95
1, 349800, Note_on_c, 9, 36, 95
1, 349919, Note_on_c, 9, 38, 0
1, 349919, Note_on_c, 9, 50, 0
1, 349919, Note_on_c, 9, 36, 0
1, 349920, Note_on_c, 9, 38, 95
1, 349920, Note_on_c, 9, 50, 95
1, 349920, Note_on_c, 9, 42, 95
1, 349923, Note_on_c, 9, 42, 0
1, 350039, Note_on_c, 9, 38, 0
1, 350039, Note_on_c, 9, 50, 0
1, 350040, Note_on_c, 9, 47, 95
1, 350159, Note_on_c, 9, 47, 0
1, 350160, Note_on_c, 9, 47, 95
1, 350160, Note_on_c, 9, 49, 95
1, 350160, Note_on_c, 9, 52, 95
1, 350163, Note_on_c, 9, 49, 0
1, 350163, Note_on_c, 9, 52, 0
1, 350279, Note_on_c, 9, 47, 0
1, 350280, Note_on_c, 9, 45, 95
1, 350280, Note_on_c, 9, 36, 95
1, 350399, Note_on_c, 9, 45, 0
1, 350399, Note_on_c, 9, 36, 0
1, 350400, Note_on_c, 9, 41, 95
1, 350400, Note_on_c, 9, 42, 95
1, 350407, Note_on_c, 9, 42, 0
1, 350520, Note_on_c, 9, 43, 95
1, 350639, Note_on_c, 9, 41, 0
1, 350639, Note_on_c, 9, 43, 0
1, 350640, Note_on_c, 9, 38, 95
1, 350640, Note_on_c, 9, 36, 95
1, 350759, Note_on_c, 9, 36, 0
1, 350760, Note_on_c, 9, 36, 95
1, 350760, Note_on_c, 9, 43, 95
1, 350879, Note_on_c, 9, 38, 0
1, 350879, Note_on_c, 9, 36, 0
1, 350879, Note_on_c, 9, 43, 0
1, 350880, Note_on_c, 9, 42, 95
1, 350880, Note_on_c, 9, 49, 95
1, 350880, Note_on_c, 9, 52, 95
1, 350880, Note_on_c, 9, 43, 95
1, 350883, Note_on_c, 9, 42, 0
1, 350883, Note_on_c, 9, 49, 0
1, 350883, Note_on_c, 9, 52, 0
1, 351000, Note_on_c, 9, 38, 95
1, 351119, Note_on_c, 9, 43, 0
1, 351120, Note_on_c, 9, 36, 95
1, 351239, Note_on_c, 9, 36, 0
1, 351240, Note_on_c, 9, 43, 95
1, 351359, Note_on_c, 9, 38, 0
1, 351359, Note_on_c, 9, 43, 0
1, 351360, Note_on_c, 9, 41, 95
1, 351360, Note_on_c, 9, 42, 95
1, 351360, Note_on_c, 9, 49, 95
1, 351360, Note_on_c, 9, 52, 95
1, 351360, Note_on_c, 9, 36, 95
1, 351363, Note_on_c, 9, 42, 0
1, 351363, Note_on_c, 9, 49, 0
1, 351363, Note_on_c, 9, 52, 0
1, 351479, Note_on_c, 9, 41, 0
1, 351480, Note_on_c, 9, 41, 95
1, 351519, Note_on_c, 9, 41, 0
1, 351520, Note_on_c, 9, 41, 95
1, 351559, Note_on_c, 9, 41, 0
1, 351560, Note_on_c, 9, 41, 95
1, 351599, Note_on_c, 9, 36, 0
1, 351599, Note_on_c, 9, 41, 0
1, 351600, Note_on_c, 9, 47, 95
1, 351600, Note_on_c, 9, 36, 95
1, 351719, Note_on_c, 9, 47, 0
1, 351719, Note_on_c, 9, 36, 0
1, 351720, Note_on_c, 9, 38, 95
1, 351720, Note_on_c, 9, 50, 95
1, 351720, Note_on_c, 9, 36, 95
1, 351839, Note_on_c, 9, 38, 0
1, 351839, Note_on_c, 9, 50, 0
1, 351839, Note_on_c, 9, 36, 0
1, 351840, Note_on_c, 9, 38, 95
1, 351840, Note_on_c, 9, 50, 95
1, 351840, Note_on_c, 9, 42, 95
1, 351843, Note_on_c, 9, 42, 0
1, 351959, Note_on_c, 9, 38, 0
1, 351959, Note_on_c, 9, 50, 0
1, 351960, Note_on_c, 9, 47, 95
1, 352079, Note_on_c, 9, 47, 0
1, 352080, Note_on_c, 9, 47, 95
1, 352080, Note_on_c, 9, 49, 95
1, 352080, Note_on_c, 9, 52, 95
1, 352083, Note_on_c, 9, 49, 0
1, 352083, Note_on_c, 9, 52, 0
1, 352199, Note_on_c, 9, 47, 0
1, 352200, Note_on_c, 9, 45, 95
1, 352200, Note_on_c, 9, 36, 95
1, 352319, Note_on_c, 9, 45, 0
1, 352319, Note_on_c, 9, 36, 0
1, 352320, Note_on_c, 9, 41, 95
1, 352320, Note_on_c, 9, 42, 95
1, 352327, Note_on_c, 9, 42, 0
1, 352440, Note_on_c, 9, 43, 95
1, 352559, Note_on_c, 9, 41, 0
1, 352559, Note_on_c, 9, 43, 0
1, 352560, Note_on_c, 9, 38, 95
1, 352560, Note_on_c, 9, 36, 95
1, 352679, Note_on_c, 9, 36, 0
1, 352680, Note_on_c, 9, 36, 95
1, 352680, Note_on_c, 9, 43, 95
1, 352799, Note_on_c, 9, 38, 0
1, 352799, Note_on_c, 9, 36, 0
1, 352799, Note_on_c, 9, 43, 0
1, 352800, Note_on_c, 9, 42, 95
1, 352800, Note_on_c, 9, 43, 95
1, 352803, Note_on_c, 9, 42, 0
1, 352920, Note_on_c, 9, 38, 95
1, 353039, Note_on_c, 9, 43, 0
1, 353040, Note_on_c, 9, 36, 95
1, 353159, Note_on_c, 9, 36, 0
1, 353160, Note_on_c, 9, 43, 95
1, 353279, Note_on_c, 9, 38, 0
1, 353279, Note_on_c, 9, 43, 0
1, 353280, Note_on_c, 9, 41, 95
1, 353280, Note_on_c, 9, 42, 95
1, 353280, Note_on_c, 9, 49, 95
1, 353280, Note_on_c, 9, 52, 95
1, 353280, Note_on_c, 9, 36, 95
1, 353283, Note_on_c, 9, 42, 0
1, 353283, Note_on_c, 9, 49, 0
1, 353283, Note_on_c, 9, 52, 0
1, 353399, Note_on_c, 9, 41, 0
1, 353400, Note_on_c, 9, 41, 95
1, 353439, Note_on_c, 9, 41, 0
1, 353440, Note_on_c, 9, 41, 95
1, 353479, Note_on_c, 9, 41, 0
1, 353480, Note_on_c, 9, 41, 95
1, 353519, Note_on_c, 9, 36, 0
1, 353519, Note_on_c, 9, 41, 0
1, 353520, Note_on_c, 9, 47, 95
1, 353520, Note_on_c, 9, 36, 95
1, 353639, Note_on_c, 9, 47, 0
1, 353639, Note_on_c, 9, 36, 0
1, 353640, Note_on_c, 9, 38, 95
1, 353640, Note_on_c, 9, 50, 95
1, 353640, Note_on_c, 9, 36, 95
1, 353759, Note_on_c, 9, 38, 0
1, 353759, Note_on_c, 9, 50, 0
1, 353759, Note_on_c, 9, 36, 0
1, 353760, Note_on_c, 9, 38, 95
1, 353760, Note_on_c, 9, 50, 95
1, 353760, Note_on_c, 9, 42, 95
1, 353763, Note_on_c, 9, 42, 0
1, 353879, Note_on_c, 9, 38, 0
1, 353879, Note_on_c, 9, 50, 0
1, 353880, Note_on_c, 9, 47, 95
1, 353999, Note_on_c, 9, 47, 0
1, 354000, Note_on_c, 9, 47, 95
1, 354119, Note_on_c, 9, 47, 0
1, 354120, Note_on_c, 9, 45, 95
1, 354120, Note_on_c, 9, 36, 95
1, 354239, Note_on_c, 9, 45, 0
1, 354239, Note_on_c, 9, 36, 0
1, 354240, Note_on_c, 9, 41, 95
1, 354240, Note_on_c, 9, 42, 95
1, 354247, Note_on_c, 9, 42, 0
1, 354360, Note_on_c, 9, 43, 95
1, 354479, Note_on_c, 9, 41, 0
1, 354479, Note_on_c, 9, 43, 0
1, 354480, Note_on_c, 9, 38, 95
1, 354480, Note_on_c, 9, 36, 95
1, 354599, Note_on_c, 9, 36, 0
1, 354600, Note_on_c, 9, 36, 95
1, 354600, Note_on_c, 9, 43, 95
1, 354719, Note_on_c, 9, 38, 0
1, 354719, Note_on_c, 9, 36, 0
1, 354719, Note_on_c, 9, 43, 0
1, 354720, Note_on_c, 9, 42, 95
1, 354720, Note_on_c, 9, 43, 95
1, 354723, Note_on_c, 9, 42, 0
1, 354840, Note_on_c, 9, 38, 95
1, 354959, Note_on_c, 9, 43, 0
1, 354960, Note_on_c, 9, 36, 95
1, 355079, Note_on_c, 9, 36, 0
1, 355080, Note_on_c, 9, 43, 95
1, 355199, Note_on_c, 9, 38, 0
1, 355199, Note_on_c, 9, 43, 0
1, 355200, Note_on_c, 9, 41, 95
1, 355200, Note_on_c, 9, 42, 95
1, 355200, Note_on_c, 9, 49, 95
1, 355200, Note_on_c, 9, 52, 95
1, 355200, Note_on_c, 9, 36, 95
1, 355203, Note_on_c, 9, 42, 0
1, 355203, Note_on_c, 9, 49, 0
1, 355203, Note_on_c, 9, 52, 0
1, 355319, Note_on_c, 9, 41, 0
1, 355320, Note_on_c, 9, 41, 95
1, 355359, Note_on_c, 9, 41, 0
1, 355360, Note_on_c, 9, 41, 95
1, 355399, Note_on_c, 9, 41, 0
1, 355400, Note_on_c, 9, 41, 95
1, 355439, Note_on_c, 9, 36, 0
1, 355439, Note_on_c, 9, 41, 0
1, 355440, Note_on_c, 9, 47, 95
1, 355440, Note_on_c, 9, 36, 95
1, 355559, Note_on_c, 9, 47, 0
1, 355559, Note_on_c, 9, 36, 0
1, 355560, Note_on_c, 9, 38, 95
1, 355560, Note_on_c, 9, 50, 95
1, 355560, Note_on_c, 9, 36, 95
1, 355679, Note_on_c, 9, 38, 0
1, 355679, Note_on_c, 9, 50, 0
1, 355679, Note_on_c, 9, 36, 0
1, 355680, Note_on_c, 9, 38, 95
1, 355680, Note_on_c, 9, 50, 95
1, 355680, Note_on_c, 9, 42, 95
1, 355683, Note_on_c, 9, 42, 0
1, 355799, Note_on_c, 9, 38, 0
1, 355799, Note_on_c, 9, 50, 0
1, 355800, Note_on_c, 9, 47, 95
1, 355919, Note_on_c, 9, 47, 0
1, 355920, Note_on_c, 9, 47, 95
1, 355920, Note_on_c, 9, 49, 95
1, 355920, Note_on_c, 9, 52, 95
1, 355923, Note_on_c, 9, 49, 0
1, 355923, Note_on_c, 9, 52, 0
1, 356039, Note_on_c, 9, 47, 0
1, 356040, Note_on_c, 9, 45, 95
1, 356040, Note_on_c, 9, 36, 95
1, 356159, Note_on_c, 9, 45, 0
1, 356159, Note_on_c, 9, 36, 0
1, 356160, Note_on_c, 9, 41, 95
1, 356160, Note_on_c, 9, 42, 95
1, 356167, Note_on_c, 9, 42, 0
1, 356280, Note_on_c, 9, 43, 95
1, 356399, Note_on_c, 9, 41, 0
1, 356399, Note_on_c, 9, 43, 0
1, 356400, Note_on_c, 9, 38, 95
1, 356400, Note_on_c, 9, 36, 95
1, 356519, Note_on_c, 9, 36, 0
1, 356520, Note_on_c, 9, 36, 95
1, 356520, Note_on_c, 9, 43, 95
1, 356639, Note_on_c, 9, 38, 0
1, 356639, Note_on_c, 9, 36, 0
1, 356639, Note_on_c, 9, 43, 0
1, 356640, Note_on_c, 9, 42, 95
1, 356640, Note_on_c, 9, 43, 95
1, 356643, Note_on_c, 9, 42, 0
1, 356760, Note_on_c, 9, 38, 95
1, 356879, Note_on_c, 9, 43, 0
1, 356880, Note_on_c, 9, 36, 95
1, 356999, Note_on_c, 9, 36, 0
1, 357000, Note_on_c, 9, 43, 95
1, 357119, Note_on_c, 9, 38, 0
1, 357119, Note_on_c, 9, 43, 0
1, 357120, Note_on_c, 9, 41, 95
1, 357120, Note_on_c, 9, 42, 95
1, 357120, Note_on_c, 9, 36, 95
1, 357123, Note_on_c, 9, 42, 0
1, 357239, Note_on_c, 9, 41, 0
1, 357240, Note_on_c, 9, 41, 95
1, 357279, Note_on_c, 9, 41, 0
1, 357280, Note_on_c, 9, 41, 95
1, 357319, Note_on_c, 9, 41, 0
1, 357320, Note_on_c, 9, 41, 95
1, 357359, Note_on_c, 9, 36, 0
1, 357359, Note_on_c, 9, 41, 0
1, 357360, Note_on_c, 9, 47, 95
1, 357360, Note_on_c, 9, 36, 95
1, 357479, Note_on_c, 9, 47, 0
1, 357479, Note_on_c, 9, 36, 0
1, 357480, Note_on_c, 9, 38, 95
1, 357480, Note_on_c, 9, 50, 95
1, 357480, Note_on_c, 9, 36, 95
1, 357599, Note_on_c, 9, 38, 0
1, 357599, Note_on_c, 9, 50, 0
1, 357599, Note_on_c, 9, 36, 0
1, 357600, Note_on_c, 9, 38, 95
1, 357600, Note_on_c, 9, 50, 95
1, 357600, Note_on_c, 9, 42, 95
1, 357603, Note_on_c, 9, 42, 0
1, 357719, Note_on_c, 9, 38, 0
1, 357719, Note_on_c, 9, 50, 0
1, 357720, Note_on_c, 9, 47, 95
1, 357839, Note_on_c, 9, 47, 0
1, 357840, Note_on_c, 9, 47, 95
1, 357959, Note_on_c, 9, 47, 0
1, 357960, Note_on_c, 9, 45, 95
1, 357960, Note_on_c, 9, 36, 95
1, 358079, Note_on_c, 9, 45, 0
1, 358079, Note_on_c, 9, 36, 0
1, 358080, Note_on_c, 9, 41, 95
1, 358080, Note_on_c, 9, 42, 95
1, 358087, Note_on_c, 9, 42, 0
1, 358200, Note_on_c, 9, 43, 95
1, 358319, Note_on_c, 9, 41, 0
1, 358319, Note_on_c, 9, 43, 0
1, 358320, Note_on_c, 9, 38, 95
1, 358320, Note_on_c, 9, 36, 95
1, 358439, Note_on_c, 9, 36, 0
1, 358440, Note_on_c, 9, 36, 95
1, 358440, Note_on_c, 9, 43, 95
1, 358559, Note_on_c, 9, 38, 0
1, 358559, Note_on_c, 9, 36, 0
1, 358559, Note_on_c, 9, 43, 0
1, 358560, Note_on_c, 9, 42, 95
1, 358560, Note_on_c, 9, 43, 95
1, 358563, Note_on_c, 9, 42, 0
1, 358680, Note_on_c, 9, 38, 95
1, 358799, Note_on_c, 9, 43, 0
1, 358800, Note_on_c, 9, 36, 95
1, 358919, Note_on_c, 9, 36, 0
1, 358920, Note_on_c, 9, 43, 95
1, 359039, Note_on_c, 9, 38, 0
1, 359039, Note_on_c, 9, 43, 0
1, 359040, Note_on_c, 9, 41, 95
1, 359040, Note_on_c, 9, 42, 95
1, 359040, Note_on_c, 9, 49, 95
1, 359040, Note_on_c, 9, 52, 95
1, 359040, Note_on_c, 9, 36, 95
1, 359043, Note_on_c, 9, 42, 0
1, 359043, Note_on_c, 9, 49, 0
1, 359043, Note_on_c, 9, 52, 0
1, 359159, Note_on_c, 9, 41, 0
1, 359160, Note_on_c, 9, 41, 95
1, 359199, Note_on_c, 9, 41, 0
1, 359200, Note_on_c, 9, 41, 95
1, 359239, Note_on_c, 9, 41, 0
1, 359240, Note_on_c, 9, 41, 95
1, 359279, Note_on_c, 9, 36, 0
1, 359279, Note_on_c, 9, 41, 0
1, 359280, Note_on_c, 9, 47, 95
1, 359280, Note_on_c, 9, 36, 95
1, 359399, Note_on_c, 9, 47, 0
1, 359399, Note_on_c, 9, 36, 0
1, 359400, Note_on_c, 9, 38, 95
1, 359400, Note_on_c, 9, 50, 95
1, 359400, Note_on_c, 9, 36, 95
1, 359519, Note_on_c, 9, 38, 0
1, 359519, Note_on_c, 9, 50, 0
1, 359519, Note_on_c, 9, 36, 0
1, 359520, Note_on_c, 9, 38, 95
1, 359520, Note_on_c, 9, 50, 95
1, 359520, Note_on_c, 9, 42, 95
1, 359523, Note_on_c, 9, 42, 0
1, 359639, Note_on_c, 9, 38, 0
1, 359639, Note_on_c, 9, 50, 0
1, 359640, Note_on_c, 9, 47, 95
1, 359759, Note_on_c, 9, 47, 0
1, 359760, Note_on_c, 9, 47, 95
1, 359760, Note_on_c, 9, 49, 95
1, 359760, Note_on_c, 9, 52, 95
1, 359763, Note_on_c, 9, 49, 0
1, 359763, Note_on_c, 9, 52, 0
1, 359879, Note_on_c, 9, 47, 0
1, 359880, Note_on_c, 9, 45, 95
1, 359880, Note_on_c, 9, 36, 95
1, 359999, Note_on_c, 9, 45, 0
1, 359999, Note_on_c, 9, 36, 0
1, 360000, Note_on_c, 9, 41, 95
1, 360000, Note_on_c, 9, 42, 95
1, 360007, Note_on_c, 9, 42, 0
1, 360120, Note_on_c, 9, 43, 95
1, 360239, Note_on_c, 9, 41, 0
1, 360239, Note_on_c, 9, 43, 0
1, 360240, Note_on_c, 9, 38, 95
1, 360240, Note_on_c, 9, 36, 95
1, 360359, Note_on_c, 9, 36, 0
1, 360360, Note_on_c, 9, 36, 95
1, 360360, Note_on_c, 9, 43, 95
1, 360479, Note_on_c, 9, 38, 0
1, 360479, Note_on_c, 9, 36, 0
1, 360479, Note_on_c, 9, 43, 0
1, 360480, Note_on_c, 9, 42, 95
1, 360480, Note_on_c, 9, 43, 95
1, 360483, Note_on_c, 9, 42, 0
1, 360600, Note_on_c, 9, 38, 95
1, 360719, Note_on_c, 9, 43, 0
1, 360720, Note_on_c, 9, 36, 95
1, 360839, Note_on_c, 9, 36, 0
1, 360840, Note_on_c, 9, 43, 95
1, 360959, Note_on_c, 9, 38, 0
1, 360959, Note_on_c, 9, 43, 0
1, 360960, Note_on_c, 9, 41, 95
1, 360960, Note_on_c, 9, 42, 95
1, 360960, Note_on_c, 9, 49, 95
1, 360960, Note_on_c, 9, 52, 95
1, 360960, Note_on_c, 9, 36, 95
1, 360963, Note_on_c, 9, 42, 0
1, 360963, Note_on_c, 9, 49, 0
1, 360963, Note_on_c, 9, 52, 0
1, 361079, Note_on_c, 9, 41, 0
1, 361080, Note_on_c, 9, 41, 95
1, 361119, Note_on_c, 9, 41, 0
1, 361120, Note_on_c, 9, 41, 95
1, 361159, Note_on_c, 9, 41, 0
1, 361160, Note_on_c, 9, 41, 95
1, 361199, Note_on_c, 9, 36, 0
1, 361199, Note_on_c, 9, 41, 0
1, 361200, Note_on_c, 9, 47, 95
1, 361200, Note_on_c, 9, 36, 95
1, 361319, Note_on_c, 9, 47, 0
1, 361319, Note_on_c, 9, 36, 0
1, 361320, Note_on_c, 9, 38, 95
1, 361320, Note_on_c, 9, 50, 95
1, 361320, Note_on_c, 9, 36, 95
1, 361439, Note_on_c, 9, 38, 0
1, 361439, Note_on_c, 9, 50, 0
1, 361439, Note_on_c, 9, 36, 0
1, 361440, Note_on_c, 9, 38, 95
1, 361440, Note_on_c, 9, 50, 95
1, 361440, Note_on_c, 9, 42, 95
1, 361443, Note_on_c, 9, 42, 0
1, 361559, Note_on_c, 9, 38, 0
1, 361559, Note_on_c, 9, 50, 0
1, 361560, Note_on_c, 9, 47, 95
1, 361679, Note_on_c, 9, 47, 0
1, 361680, Note_on_c, 9, 47, 95
1, 361680, Note_on_c, 9, 49, 95
1, 361680, Note_on_c, 9, 52, 95
1, 361683, Note_on_c, 9, 49, 0
1, 361683, Note_on_c, 9, 52, 0
1, 361799, Note_on_c, 9, 47, 0
1, 361800, Note_on_c, 9, 45, 95
1, 361800, Note_on_c, 9, 36, 95
1, 361919, Note_on_c, 9, 45, 0
1, 361919, Note_on_c, 9, 36, 0
1, 361920, Note_on_c, 9, 41, 95
1, 361920, Note_on_c, 9, 42, 95
1, 361927, Note_on_c, 9, 42, 0
1, 362040, Note_on_c, 9, 43, 95
1, 362159, Note_on_c, 9, 41, 0
1, 362159, Note_on_c, 9, 43, 0
1, 362160, Note_on_c, 9, 38, 95
1, 362160, Note_on_c, 9, 36, 95
1, 362279, Note_on_c, 9, 36, 0
1, 362280, Note_on_c, 9, 36, 95
1, 362280, Note_on_c, 9, 43, 95
1, 362399, Note_on_c, 9, 38, 0
1, 362399, Note_on_c, 9, 36, 0
1, 362399, Note_on_c, 9, 43, 0
1, 362400, Note_on_c, 9, 42, 95
1, 362400, Note_on_c, 9, 43, 95
1, 362403, Note_on_c, 9, 42, 0
1, 362520, Note_on_c, 9, 38, 95
1, 362639, Note_on_c, 9, 43, 0
1, 362640, Note_on_c, 9, 36, 95
1, 362759, Note_on_c, 9, 36, 0
1, 362760, Note_on_c, 9, 43, 127
1, 362879, Note_on_c, 9, 38, 0
1, 362879, Note_on_c, 9, 43, 0
1, 362880, Note_on_c, 9, 49, 127
1, 362880, Note_on_c, 9, 52, 127
1, 362896, Note_on_c, 9, 49, 0
1, 362896, Note_on_c, 9, 52, 0
1, 364800, Note_on_c, 9, 41, 95
1, 364800, Note_on_c, 9, 49, 95
1, 364800, Note_on_c, 9, 36, 95
1, 364807, Note_on_c, 9, 49, 0
1, 365039, Note_on_c, 9, 41, 0
1, 365040, Note_on_c, 9, 41, 95
1, 365079, Note_on_c, 9, 41, 0
1, 365080, Note_on_c, 9, 41, 95
1, 365119, Note_on_c, 9, 41, 0
1, 365120, Note_on_c, 9, 41, 95
1, 365159, Note_on_c, 9, 36, 0
1, 365159, Note_on_c, 9, 41, 0
1, 365160, Note_on_c, 9, 47, 95
1, 365160, Note_on_c, 9, 36, 95
1, 365279, Note_on_c, 9, 47, 0
1, 365279, Note_on_c, 9, 36, 0
1, 365280, Note_on_c, 9, 38, 95
1, 365280, Note_on_c, 9, 50, 95
1, 365280, Note_on_c, 9, 36, 95
1, 365399, Note_on_c, 9, 38, 0
1, 365399, Note_on_c, 9, 50, 0
1, 365400, Note_on_c, 9, 38, 95
1, 365400, Note_on_c, 9, 50, 95
1, 365519, Note_on_c, 9, 38, 0
1, 365519, Note_on_c, 9, 50, 0
1, 365520, Note_on_c, 9, 47, 95
1, 365520, Note_on_c, 9, 49, 95
1, 365520, Note_on_c, 9, 52, 95
1, 365523, Note_on_c, 9, 49, 0
1, 365523, Note_on_c, 9, 52, 0
1, 365639, Note_on_c, 9, 47, 0
1, 365640, Note_on_c, 9, 47, 95
1, 365759, Note_on_c, 9, 36, 0
1, 365759, Note_on_c, 9, 47, 0
1, 365760, Note_on_c, 9, 45, 95
1, 365760, Note_on_c, 9, 36, 95
1, 365879, Note_on_c, 9, 45, 0
1, 365880, Note_on_c, 9, 41, 95
1, 365999, Note_on_c, 9, 36, 0
1, 366000, Note_on_c, 9, 43, 95
1, 366119, Note_on_c, 9, 41, 0
1, 366119, Note_on_c, 9, 43, 0
1, 366120, Note_on_c, 9, 38, 95
1, 366120, Note_on_c, 9, 36, 95
1, 366239, Note_on_c, 9, 38, 0
1, 366239, Note_on_c, 9, 36, 0
1, 366240, Note_on_c, 9, 49, 95
1, 366240, Note_on_c, 9, 36, 95
1, 366240, Note_on_c, 9, 43, 95
1, 366247, Note_on_c, 9, 49, 0
1, 366359, Note_on_c, 9, 36, 0
1, 366359, Note_on_c, 9, 43, 0
1, 366360, Note_on_c, 9, 43, 95
1, 366480, Note_on_c, 9, 38, 95
1, 366599, Note_on_c, 9, 43, 0
1, 366600, Note_on_c, 9, 36, 95
1, 366600, Note_on_c, 9, 43, 95
1, 366719, Note_on_c, 9, 38, 0
1, 366719, Note_on_c, 9, 36, 0
1, 366719, Note_on_c, 9, 43, 0
1, 366720, Note_on_c, 9, 41, 95
1, 366720, Note_on_c, 9, 49, 50
1, 366720, Note_on_c, 9, 36, 95
1, 366727, Note_on_c, 9, 49, 0
1, 366959, Note_on_c, 9, 41, 0
1, 366960, Note_on_c, 9, 41, 95
1, 366999, Note_on_c, 9, 41, 0
1, 367000, Note_on_c, 9, 41, 95
1, 367039, Note_on_c, 9, 41, 0
1, 367040, Note_on_c, 9, 41, 95
1, 367079, Note_on_c, 9, 36, 0
1, 367079, Note_on_c, 9, 41, 0
1, 367080, Note_on_c, 9, 47, 95
1, 367080, Note_on_c, 9, 36, 95
1, 367199, Note_on_c, 9, 47, 0
1, 367199, Note_on_c, 9, 36, 0
1, 367200, Note_on_c, 9, 38, 95
1, 367200, Note_on_c, 9, 50, 95
1, 367200, Note_on_c, 9, 36, 95
1, 367319, Note_on_c, 9, 38, 0
1, 367319, Note_on_c, 9, 50, 0
1, 367320, Note_on_c, 9, 38, 95
1, 367320, Note_on_c, 9, 50, 95
1, 367439, Note_on_c, 9, 38, 0
1, 367439, Note_on_c, 9, 50, 0
1, 367440, Note_on_c, 9, 47, 95
1, 367440, Note_on_c, 9, 49, 95
1, 367440, Note_on_c, 9, 52, 95
1, 367443, Note_on_c, 9, 49, 0
1, 367443, Note_on_c, 9, 52, 0
1, 367559, Note_on_c, 9, 47, 0
1, 367560, Note_on_c, 9, 47, 95
1, 367679, Note_on_c, 9, 36, 0
1, 367679, Note_on_c, 9, 47, 0
1, 367680, Note_on_c, 9, 45, 95
1, 367680, Note_on_c, 9, 36, 95
1, 367799, Note_on_c, 9, 45, 0
1, 367800, Note_on_c, 9, 41, 95
1, 367919, Note_on_c, 9, 36, 0
1, 367920, Note_on_c, 9, 43, 95
1, 368039, Note_on_c, 9, 41, 0
1, 368039, Note_on_c, 9, 43, 0
1, 368040, Note_on_c, 9, 38, 95
1, 368040, Note_on_c, 9, 36, 95
1, 368159, Note_on_c, 9, 38, 0
1, 368159, Note_on_c, 9, 36, 0
1, 368160, Note_on_c, 9, 49, 95
1, 368160, Note_on_c, 9, 36, 95
1, 368160, Note_on_c, 9, 43, 95
1, 368167, Note_on_c, 9, 49, 0
1, 368279, Note_on_c, 9, 36, 0
1, 368279, Note_on_c, 9, 43, 0
1, 368280, Note_on_c, 9, 43, 95
1, 368400, Note_on_c, 9, 38, 95
1, 368519, Note_on_c, 9, 43, 0
1, 368520, Note_on_c, 9, 36, 95
1, 368520, Note_on_c, 9, 43, 95
1, 368639, Note_on_c, 9, 38, 0
1, 368639, Note_on_c, 9, 36, 0
1, 368639, Note_on_c, 9, 43, 0
1, 368640, Note_on_c, 9, 41, 95
1, 368640, Note_on_c, 9, 49, 50
1, 368640, Note_on_c, 9, 36, 95
1, 368647, Note_on_c, 9, 49, 0
1, 368879, Note_on_c, 9, 41, 0
1, 368880, Note_on_c, 9, 41, 95
1, 368919, Note_on_c, 9, 41, 0
1, 368920, Note_on_c, 9, 41, 95
1, 368959, Note_on_c, 9, 41, 0
1, 368960, Note_on_c, 9, 41, 95
1, 368999, Note_on_c, 9, 36, 0
1, 368999, Note_on_c, 9, 41, 0
1, 369000, Note_on_c, 9, 47, 95
1, 369000, Note_on_c, 9, 36, 95
1, 369119, Note_on_c, 9, 47, 0
1, 369119, Note_on_c, 9, 36, 0
1, 369120, Note_on_c, 9, 38, 95
1, 369120, Note_on_c, 9, 50, 95
1, 369120, Note_on_c, 9, 36, 95
1, 369239, Note_on_c, 9, 38, 0
1, 369239, Note_on_c, 9, 50, 0
1, 369240, Note_on_c, 9, 38, 95
1, 369240, Note_on_c, 9, 50, 95
1, 369359, Note_on_c, 9, 38, 0
1, 369359, Note_on_c, 9, 50, 0
1, 369360, Note_on_c, 9, 47, 95
1, 369360, Note_on_c, 9, 49, 95
1, 369360, Note_on_c, 9, 52, 95
1, 369363, Note_on_c, 9, 49, 0
1, 369363, Note_on_c, 9, 52, 0
1, 369479, Note_on_c, 9, 47, 0
1, 369480, Note_on_c, 9, 47, 95
1, 369599, Note_on_c, 9, 36, 0
1, 369599, Note_on_c, 9, 47, 0
1, 369600, Note_on_c, 9, 45, 95
1, 369600, Note_on_c, 9, 36, 95
1, 369719, Note_on_c, 9, 45, 0
1, 369720, Note_on_c, 9, 41, 95
1, 369839, Note_on_c, 9, 36, 0
1, 369840, Note_on_c, 9, 43, 95
1, 369959, Note_on_c, 9, 41, 0
1, 369959, Note_on_c, 9, 43, 0
1, 369960, Note_on_c, 9, 38, 95
1, 369960, Note_on_c, 9, 36, 95
1, 370079, Note_on_c, 9, 38, 0
1, 370079, Note_on_c, 9, 36, 0
1, 370080, Note_on_c, 9, 49, 95
1, 370080, Note_on_c, 9, 36, 95
1, 370080, Note_on_c, 9, 43, 95
1, 370087, Note_on_c, 9, 49, 0
1, 370199, Note_on_c, 9, 36, 0
1, 370199, Note_on_c, 9, 43, 0
1, 370200, Note_on_c, 9, 43, 95
1, 370320, Note_on_c, 9, 38, 95
1, 370439, Note_on_c, 9, 43, 0
1, 370440, Note_on_c, 9, 36, 95
1, 370440, Note_on_c, 9, 43, 95
1, 370559, Note_on_c, 9, 38, 0
1, 370559, Note_on_c, 9, 36, 0
1, 370559, Note_on_c, 9, 43, 0
1, 370560, Note_on_c, 9, 41, 95
1, 370560, Note_on_c, 9, 49, 50
1, 370560, Note_on_c, 9, 36, 95
1, 370567, Note_on_c, 9, 49, 0
1, 370799, Note_on_c, 9, 41, 0
1, 370800, Note_on_c, 9, 41, 95
1, 370839, Note_on_c, 9, 41, 0
1, 370840, Note_on_c, 9, 41, 95
1, 370879, Note_on_c, 9, 41, 0
1, 370880, Note_on_c, 9, 41, 95
1, 370919, Note_on_c, 9, 36, 0
1, 370919, Note_on_c, 9, 41, 0
1, 370920, Note_on_c, 9, 47, 95
1, 370920, Note_on_c, 9, 36, 95
1, 371039, Note_on_c, 9, 47, 0
1, 371039, Note_on_c, 9, 36, 0
1, 371040, Note_on_c, 9, 38, 95
1, 371040, Note_on_c, 9, 50, 95
1, 371040, Note_on_c, 9, 36, 95
1, 371159, Note_on_c, 9, 38, 0
1, 371159, Note_on_c, 9, 50, 0
1, 371160, Note_on_c, 9, 38, 95
1, 371160, Note_on_c, 9, 50, 95
1, 371279, Note_on_c, 9, 38, 0
1, 371279, Note_on_c, 9, 50, 0
1, 371280, Note_on_c, 9, 47, 95
1, 371280, Note_on_c, 9, 49, 95
1, 371280, Note_on_c, 9, 52, 95
1, 371283, Note_on_c, 9, 49, 0
1, 371283, Note_on_c, 9, 52, 0
1, 371399, Note_on_c, 9, 47, 0
1, 371400, Note_on_c, 9, 47, 95
1, 371519, Note_on_c, 9, 36, 0
1, 371519, Note_on_c, 9, 47, 0
1, 371520, Note_on_c, 9, 45, 95
1, 371520, Note_on_c, 9, 36, 95
1, 371639, Note_on_c, 9, 45, 0
1, 371640, Note_on_c, 9, 41, 95
1, 371759, Note_on_c, 9, 36, 0
1, 371760, Note_on_c, 9, 43, 95
1, 371879, Note_on_c, 9, 41, 0
1, 371879, Note_on_c, 9, 43, 0
1, 371880, Note_on_c, 9, 38, 95
1, 371880, Note_on_c, 9, 36, 95
1, 371999, Note_on_c, 9, 38, 0
1, 371999, Note_on_c, 9, 36, 0
1, 372000, Note_on_c, 9, 49, 95
1, 372000, Note_on_c, 9, 36, 95
1, 372000, Note_on_c, 9, 43, 95
1, 372007, Note_on_c, 9, 49, 0
1, 372119, Note_on_c, 9, 36, 0
1, 372119, Note_on_c, 9, 43, 0
1, 372120, Note_on_c, 9, 43, 95
1, 372240, Note_on_c, 9, 38, 95
1, 372359, Note_on_c, 9, 43, 0
1, 372360, Note_on_c, 9, 36, 95
1, 372360, Note_on_c, 9, 43, 95
1, 372479, Note_on_c, 9, 38, 0
1, 372479, Note_on_c, 9, 36, 0
1, 372479, Note_on_c, 9, 43, 0
1, 372480, Note_on_c, 9, 41, 95
1, 372480, Note_on_c, 9, 49, 50
1, 372480, Note_on_c, 9, 36, 95
1, 372487, Note_on_c, 9, 49, 0
1, 372719, Note_on_c, 9, 41, 0
1, 372720, Note_on_c, 9, 41, 95
1, 372759, Note_on_c, 9, 41, 0
1, 372760, Note_on_c, 9, 41, 95
1, 372799, Note_on_c, 9, 41, 0
1, 372800, Note_on_c, 9, 41, 95
1, 372839, Note_on_c, 9, 36, 0
1, 372839, Note_on_c, 9, 41, 0
1, 372840, Note_on_c, 9, 47, 95
1, 372840, Note_on_c, 9, 36, 95
1, 372959, Note_on_c, 9, 47, 0
1, 372959, Note_on_c, 9, 36, 0
1, 372960, Note_on_c, 9, 38, 95
1, 372960, Note_on_c, 9, 50, 95
1, 372960, Note_on_c, 9, 36, 95
1, 373079, Note_on_c, 9, 38, 0
1, 373079, Note_on_c, 9, 50, 0
1, 373080, Note_on_c, 9, 38, 95
1, 373080, Note_on_c, 9, 50, 95
1, 373199, Note_on_c, 9, 38, 0
1, 373199, Note_on_c, 9, 50, 0
1, 373200, Note_on_c, 9, 47, 95
1, 373200, Note_on_c, 9, 49, 95
1, 373200, Note_on_c, 9, 52, 95
1, 373203, Note_on_c, 9, 49, 0
1, 373203, Note_on_c, 9, 52, 0
1, 373319, Note_on_c, 9, 47, 0
1, 373320, Note_on_c, 9, 47, 95
1, 373439, Note_on_c, 9, 36, 0
1, 373439, Note_on_c, 9, 47, 0
1, 373440, Note_on_c, 9, 45, 95
1, 373440, Note_on_c, 9, 36, 95
1, 373559, Note_on_c, 9, 45, 0
1, 373560, Note_on_c, 9, 41, 95
1, 373679, Note_on_c, 9, 36, 0
1, 373680, Note_on_c, 9, 43, 95
1, 373799, Note_on_c, 9, 41, 0
1, 373799, Note_on_c, 9, 43, 0
1, 373800, Note_on_c, 9, 38, 95
1, 373800, Note_on_c, 9, 36, 95
1, 373919, Note_on_c, 9, 38, 0
1, 373919, Note_on_c, 9, 36, 0
1, 373920, Note_on_c, 9, 49, 95
1, 373920, Note_on_c, 9, 36, 95
1, 373920, Note_on_c, 9, 43, 95
1, 373927, Note_on_c, 9, 49, 0
1, 374039, Note_on_c, 9, 36, 0
1, 374039, Note_on_c, 9, 43, 0
1, 374040, Note_on_c, 9, 43, 95
1, 374160, Note_on_c, 9, 38, 95
1, 374279, Note_on_c, 9, 43, 0
1, 374280, Note_on_c, 9, 36, 95
1, 374280, Note_on_c, 9, 43, 95
1, 374399, Note_on_c, 9, 38, 0
1, 374399, Note_on_c, 9, 36, 0
1, 374399, Note_on_c, 9, 43, 0
1, 374400, Note_on_c, 9, 41, 95
1, 374400, Note_on_c, 9, 49, 50
1, 374400, Note_on_c, 9, 36, 95
1, 374407, Note_on_c, 9, 49, 0
1, 374639, Note_on_c, 9, 41, 0
1, 374640, Note_on_c, 9, 41, 95
1, 374679, Note_on_c, 9, 41, 0
1, 374680, Note_on_c, 9, 41, 95
1, 374719, Note_on_c, 9, 41, 0
1, 374720, Note_on_c, 9, 41, 95
1, 374759, Note_on_c, 9, 36, 0
1, 374759, Note_on_c, 9, 41, 0
1, 374760, Note_on_c, 9, 47, 95
1, 374760, Note_on_c, 9, 36, 95
1, 374879, Note_on_c, 9, 47, 0
1, 374879, Note_on_c, 9, 36, 0
1, 374880, Note_on_c, 9, 38, 95
1, 374880, Note_on_c, 9, 50, 95
1, 374880, Note_on_c, 9, 36, 95
1, 374999, Note_on_c, 9, 38, 0
1, 374999, Note_on_c, 9, 50, 0
1, 375000, Note_on_c, 9, 38, 95
1, 375000, Note_on_c, 9, 50, 95
1, 375119, Note_on_c, 9, 38, 0
1, 375119, Note_on_c, 9, 50, 0
1, 375120, Note_on_c, 9, 47, 95
1, 375120, Note_on_c, 9, 49, 95
1, 375120, Note_on_c, 9, 52, 95
1, 375123, Note_on_c, 9, 49, 0
1, 375123, Note_on_c, 9, 52, 0
1, 375239, Note_on_c, 9, 47, 0
1, 375240, Note_on_c, 9, 47, 95
1, 375359, Note_on_c, 9, 36, 0
1, 375359, Note_on_c, 9, 47, 0
1, 375360, Note_on_c, 9, 45, 95
1, 375360, Note_on_c, 9, 36, 95
1, 375479, Note_on_c, 9, 45, 0
1, 375480, Note_on_c, 9, 41, 95
1, 375599, Note_on_c, 9, 36, 0
1, 375600, Note_on_c, 9, 43, 95
1, 375719, Note_on_c, 9, 41, 0
1, 375719, Note_on_c, 9, 43, 0
1, 375720, Note_on_c, 9, 38, 95
1, 375720, Note_on_c, 9, 36, 95
1, 375839, Note_on_c, 9, 38, 0
1, 375839, Note_on_c, 9, 36, 0
1, 375840, Note_on_c, 9, 37, 95
1, 375840, Note_on_c, 9, 36, 95
1, 375840, Note_on_c, 9, 43, 95
1, 375847, Note_on_c, 9, 37, 0
1, 375959, Note_on_c, 9, 36, 0
1, 375959, Note_on_c, 9, 43, 0
1, 375960, Note_on_c, 9, 43, 95
1, 376080, Note_on_c, 9, 38, 95
1, 376199, Note_on_c, 9, 43, 0
1, 376200, Note_on_c, 9, 36, 95
1, 376200, Note_on_c, 9, 43, 95
1, 376319, Note_on_c, 9, 38, 0
1, 376319, Note_on_c, 9, 36, 0
1, 376319, Note_on_c, 9, 43, 0
1, 376320, Note_on_c, 9, 41, 95
1, 376320, Note_on_c, 9, 49, 50
1, 376320, Note_on_c, 9, 36, 95
1, 376327, Note_on_c, 9, 49, 0
1, 376559, Note_on_c, 9, 41, 0
1, 376560, Note_on_c, 9, 41, 95
1, 376599, Note_on_c, 9, 41, 0
1, 376600, Note_on_c, 9, 41, 95
1, 376639, Note_on_c, 9, 41, 0
1, 376640, Note_on_c, 9, 41, 95
1, 376679, Note_on_c, 9, 36, 0
1, 376679, Note_on_c, 9, 41, 0
1, 376680, Note_on_c, 9, 47, 95
1, 376680, Note_on_c, 9, 36, 95
1, 376799, Note_on_c, 9, 47, 0
1, 376799, Note_on_c, 9, 36, 0
1, 376800, Note_on_c, 9, 38, 95
1, 376800, Note_on_c, 9, 50, 95
1, 376800, Note_on_c, 9, 36, 95
1, 376919, Note_on_c, 9, 38, 0
1, 376919, Note_on_c, 9, 50, 0
1, 376920, Note_on_c, 9, 38, 95
1, 376920, Note_on_c, 9, 50, 95
1, 377039, Note_on_c, 9, 38, 0
1, 377039, Note_on_c, 9, 50, 0
1, 377040, Note_on_c, 9, 47, 95
1, 377040, Note_on_c, 9, 49, 95
1, 377040, Note_on_c, 9, 52, 95
1, 377043, Note_on_c, 9, 49, 0
1, 377043, Note_on_c, 9, 52, 0
1, 377159, Note_on_c, 9, 47, 0
1, 377160, Note_on_c, 9, 47, 95
1, 377279, Note_on_c, 9, 36, 0
1, 377279, Note_on_c, 9, 47, 0
1, 377280, Note_on_c, 9, 45, 95
1, 377280, Note_on_c, 9, 36, 95
1, 377399, Note_on_c, 9, 45, 0
1, 377400, Note_on_c, 9, 41, 95
1, 377519, Note_on_c, 9, 36, 0
1, 377520, Note_on_c, 9, 43, 95
1, 377639, Note_on_c, 9, 41, 0
1, 377639, Note_on_c, 9, 43, 0
1, 377640, Note_on_c, 9, 38, 95
1, 377640, Note_on_c, 9, 36, 95
1, 377759, Note_on_c, 9, 38, 0
1, 377759, Note_on_c, 9, 36, 0
1, 377760, Note_on_c, 9, 49, 95
1, 377760, Note_on_c, 9, 36, 95
1, 377760, Note_on_c, 9, 43, 95
1, 377767, Note_on_c, 9, 49, 0
1, 377879, Note_on_c, 9, 36, 0
1, 377879, Note_on_c, 9, 43, 0
1, 377880, Note_on_c, 9, 43, 95
1, 378000, Note_on_c, 9, 38, 95
1, 378119, Note_on_c, 9, 43, 0
1, 378120, Note_on_c, 9, 36, 95
1, 378120, Note_on_c, 9, 43, 95
1, 378239, Note_on_c, 9, 38, 0
1, 378239, Note_on_c, 9, 36, 0
1, 378239, Note_on_c, 9, 43, 0
1, 378240, Note_on_c, 9, 41, 95
1, 378240, Note_on_c, 9, 49, 50
1, 378240, Note_on_c, 9, 36, 95
1, 378247, Note_on_c, 9, 49, 0
1, 378479, Note_on_c, 9, 41, 0
1, 378480, Note_on_c, 9, 41, 95
1, 378519, Note_on_c, 9, 41, 0
1, 378520, Note_on_c, 9, 41, 95
1, 378559, Note_on_c, 9, 41, 0
1, 378560, Note_on_c, 9, 41, 95
1, 378599, Note_on_c, 9, 36, 0
1, 378599, Note_on_c, 9, 41, 0
1, 378600, Note_on_c, 9, 47, 95
1, 378600, Note_on_c, 9, 36, 95
1, 378719, Note_on_c, 9, 47, 0
1, 378719, Note_on_c, 9, 36, 0
1, 378720, Note_on_c, 9, 38, 95
1, 378720, Note_on_c, 9, 50, 95
1, 378720, Note_on_c, 9, 36, 95
1, 378839, Note_on_c, 9, 38, 0
1, 378839, Note_on_c, 9, 50, 0
1, 378840, Note_on_c, 9, 38, 95
1, 378840, Note_on_c, 9, 50, 95
1, 378959, Note_on_c, 9, 38, 0
1, 378959, Note_on_c, 9, 50, 0
1, 378960, Note_on_c, 9, 47, 95
1, 378960, Note_on_c, 9, 49, 95
1, 378960, Note_on_c, 9, 52, 95
1, 378963, Note_on_c, 9, 49, 0
1, 378963, Note_on_c, 9, 52, 0
1, 379079, Note_on_c, 9, 47, 0
1, 379080, Note_on_c, 9, 47, 95
1, 379199, Note_on_c, 9, 36, 0
1, 379199, Note_on_c, 9, 47, 0
1, 379200, Note_on_c, 9, 45, 95
1, 379200, Note_on_c, 9, 36, 95
1, 379319, Note_on_c, 9, 45, 0
1, 379320, Note_on_c, 9, 41, 95
1, 379439, Note_on_c, 9, 36, 0
1, 379440, Note_on_c, 9, 43, 95
1, 379559, Note_on_c, 9, 41, 0
1, 379559, Note_on_c, 9, 43, 0
1, 379560, Note_on_c, 9, 38, 95
1, 379560, Note_on_c, 9, 36, 95
1, 379679, Note_on_c, 9, 38, 0
1, 379679, Note_on_c, 9, 36, 0
1, 379680, Note_on_c, 9, 49, 95
1, 379680, Note_on_c, 9, 36, 95
1, 379680, Note_on_c, 9, 43, 95
1, 379687, Note_on_c, 9, 49, 0
1, 379799, Note_on_c, 9, 36, 0
1, 379799, Note_on_c, 9, 43, 0
1, 379800, Note_on_c, 9, 43, 95
1, 379920, Note_on_c, 9, 38, 95
1, 380039, Note_on_c, 9, 43, 0
1, 380040, Note_on_c, 9, 36, 95
1, 380040, Note_on_c, 9, 43, 95
1, 380159, Note_on_c, 9, 38, 0
1, 380159, Note_on_c, 9, 36, 0
1, 380159, Note_on_c, 9, 43, 0
1, 380160, Note_on_c, 9, 41, 95
1, 380160, Note_on_c, 9, 52, 127
1, 380160, Note_on_c, 9, 36, 95
1, 380167, Note_on_c, 9, 52, 0
1, 380399, Note_on_c, 9, 41, 0
1, 380399, Note_on_c, 9, 36, 0
1, 380400, Note_on_c, 9, 47, 95
1, 380400, Note_on_c, 9, 36, 95
1, 380639, Note_on_c, 9, 47, 0
1, 380639, Note_on_c, 9, 36, 0
1, 380640, Note_on_c, 9, 45, 95
1, 380640, Note_on_c, 9, 36, 95
1, 380879, Note_on_c, 9, 45, 0
1, 380880, Note_on_c, 9, 49, 127
1, 380887, Note_on_c, 9, 49, 0
1, 381119, Note_on_c, 9, 36, 0
1, 381120, Note_on_c, 9, 47, 95
1, 381120, Note_on_c, 9, 36, 95
1, 381479, Note_on_c, 9, 47, 0
1, 381479, Note_on_c, 9, 36, 0
1, 381480, Note_on_c, 9, 45, 95
1, 381480, Note_on_c, 9, 36, 95
1, 381599, Note_on_c, 9, 45, 0
1, 381599, Note_on_c, 9, 36, 0
1, 381600, Note_on_c, 9, 41, 95
1, 381840, Note_on_c, 9, 43, 95
1, 382079, Note_on_c, 9, 41, 0
1, 382079, Note_on_c, 9, 43, 0
1, 382080, Note_on_c, 9, 41, 95
1, 382080, Note_on_c, 9, 52, 127
1, 382080, Note_on_c, 9, 36, 95
1, 382087, Note_on_c, 9, 52, 0
1, 382319, Note_on_c, 9, 41, 0
1, 382319, Note_on_c, 9, 36, 0
1, 382320, Note_on_c, 9, 47, 95
1, 382320, Note_on_c, 9, 36, 95
1, 382559, Note_on_c, 9, 47, 0
1, 382559, Note_on_c, 9, 36, 0
1, 382560, Note_on_c, 9, 45, 95
1, 382560, Note_on_c, 9, 36, 95
1, 382799, Note_on_c, 9, 45, 0
1, 382800, Note_on_c, 9, 49, 127
1, 382807, Note_on_c, 9, 49, 0
1, 383039, Note_on_c, 9, 36, 0
1, 383040, Note_on_c, 9, 47, 95
1, 383040, Note_on_c, 9, 36, 95
1, 383399, Note_on_c, 9, 47, 0
1, 383399, Note_on_c, 9, 36, 0
1, 383400, Note_on_c, 9, 45, 95
1, 383400, Note_on_c, 9, 36, 95
1, 383519, Note_on_c, 9, 45, 0
1, 383519, Note_on_c, 9, 36, 0
1, 383520, Note_on_c, 9, 41, 95
1, 383760, Note_on_c, 9, 43, 95
1, 383999, Note_on_c, 9, 41, 0
1, 383999, Note_on_c, 9, 43, 0
1, 384000, Note_on_c, 9, 41, 95
1, 384000, Note_on_c, 9, 52, 127
1, 384000, Note_on_c, 9, 36, 95
1, 384007, Note_on_c, 9, 52, 0
1, 384239, Note_on_c, 9, 41, 0
1, 384239, Note_on_c, 9, 36, 0
1, 384240, Note_on_c, 9, 47, 95
1, 384240, Note_on_c, 9, 36, 95
1, 384479, Note_on_c, 9, 47, 0
1, 384479, Note_on_c, 9, 36, 0
1, 384480, Note_on_c, 9, 45, 95
1, 384480, Note_on_c, 9, 36, 95
1, 384719, Note_on_c, 9, 45, 0
1, 384720, Note_on_c, 9, 49, 127
1, 384727, Note_on_c, 9, 49, 0
1, 384959, Note_on_c, 9, 36, 0
1, 384960, Note_on_c, 9, 47, 95
1, 384960, Note_on_c, 9, 36, 95
1, 385319, Note_on_c, 9, 47, 0
1, 385319, Note_on_c, 9, 36, 0
1, 385320, Note_on_c, 9, 45, 95
1, 385320, Note_on_c, 9, 36, 95
1, 385439, Note_on_c, 9, 45, 0
1, 385439, Note_on_c, 9, 36, 0
1, 385440, Note_on_c, 9, 41, 95
1, 385680, Note_on_c, 9, 43, 95
1, 385919, Note_on_c, 9, 41, 0
1, 385919, Note_on_c, 9, 43, 0
1, 385920, Note_on_c, 9, 41, 95
1, 385920, Note_on_c, 9, 52, 127
1, 385920, Note_on_c, 9, 36, 95
1, 385927, Note_on_c, 9, 52, 0
1, 386159, Note_on_c, 9, 41, 0
1, 386159, Note_on_c, 9, 36, 0
1, 386160, Note_on_c, 9, 47, 95
1, 386160, Note_on_c, 9, 36, 95
1, 386399, Note_on_c, 9, 47, 0
1, 386399, Note_on_c, 9, 36, 0
1, 386400, Note_on_c, 9, 45, 95
1, 386400, Note_on_c, 9, 36, 95
1, 386639, Note_on_c, 9, 45, 0
1, 386640, Note_on_c, 9, 49, 127
1, 386647, Note_on_c, 9, 49, 0
1, 386879, Note_on_c, 9, 36, 0
1, 386880, Note_on_c, 9, 47, 95
1, 386880, Note_on_c, 9, 36, 95
1, 387239, Note_on_c, 9, 47, 0
1, 387239, Note_on_c, 9, 36, 0
1, 387240, Note_on_c, 9, 45, 95
1, 387240, Note_on_c, 9, 36, 95
1, 387359, Note_on_c, 9, 45, 0
1, 387359, Note_on_c, 9, 36, 0
1, 387360, Note_on_c, 9, 41, 95
1, 387600, Note_on_c, 9, 43, 95
1, 387839, Note_on_c, 9, 41, 0
1, 387839, Note_on_c, 9, 43, 0
1, 387840, Note_on_c, 9, 41, 95
1, 387840, Note_on_c, 9, 52, 127
1, 387840, Note_on_c, 9, 36, 95
1, 387847, Note_on_c, 9, 52, 0
1, 388079, Note_on_c, 9, 41, 0
1, 388079, Note_on_c, 9, 36, 0
1, 388080, Note_on_c, 9, 47, 95
1, 388080, Note_on_c, 9, 36, 95
1, 388319, Note_on_c, 9, 47, 0
1, 388319, Note_on_c, 9, 36, 0
1, 388320, Note_on_c, 9, 45, 95
1, 388320, Note_on_c, 9, 36, 95
1, 388559, Note_on_c, 9, 45, 0
1, 388560, Note_on_c, 9, 49, 127
1, 388567, Note_on_c, 9, 49, 0
1, 388799, Note_on_c, 9, 36, 0
1, 388800, Note_on_c, 9, 47, 95
1, 388800, Note_on_c, 9, 36, 95
1, 389159, Note_on_c, 9, 47, 0
1, 389159, Note_on_c, 9, 36, 0
1, 389160, Note_on_c, 9, 45, 95
1, 389160, Note_on_c, 9, 36, 95
1, 389279, Note_on_c, 9, 45, 0
1, 389279, Note_on_c, 9, 36, 0
1, 389280, Note_on_c, 9, 41, 95
1, 389520, Note_on_c, 9, 43, 95
1, 389759, Note_on_c, 9, 41, 0
1, 389759, Note_on_c, 9, 43, 0
1, 389760, Note_on_c, 9, 41, 95
1, 389760, Note_on_c, 9, 52, 127
1, 389760, Note_on_c, 9, 36, 95
1, 389767, Note_on_c, 9, 52, 0
1, 389999, Note_on_c, 9, 41, 0
1, 389999, Note_on_c, 9, 36, 0
1, 390000, Note_on_c, 9, 47, 95
1, 390000, Note_on_c, 9, 36, 95
1, 390239, Note_on_c, 9, 47, 0
1, 390239, Note_on_c, 9, 36, 0
1, 390240, Note_on_c, 9, 45, 95
1, 390240, Note_on_c, 9, 36, 95
1, 390479, Note_on_c, 9, 45, 0
1, 390480, Note_on_c, 9, 49, 127
1, 390487, Note_on_c, 9, 49, 0
1, 390719, Note_on_c, 9, 36, 0
1, 390720, Note_on_c, 9, 47, 95
1, 390720, Note_on_c, 9, 36, 95
1, 391079, Note_on_c, 9, 47, 0
1, 391079, Note_on_c, 9, 36, 0
1, 391080, Note_on_c, 9, 45, 95
1, 391080, Note_on_c, 9, 36, 95
1, 391199, Note_on_c, 9, 45, 0
1, 391199, Note_on_c, 9, 36, 0
1, 391200, Note_on_c, 9, 41, 95
1, 391440, Note_on_c, 9, 43, 95
1, 391679, Note_on_c, 9, 41, 0
1, 391679, Note_on_c, 9, 43, 0
1, 391680, Note_on_c, 9, 41, 95
1, 391680, Note_on_c, 9, 52, 127
1, 391680, Note_on_c, 9, 36, 95
1, 391687, Note_on_c, 9, 52, 0
1, 391919, Note_on_c, 9, 41, 0
1, 391919, Note_on_c, 9, 36, 0
1, 391920, Note_on_c, 9, 47, 95
1, 391920, Note_on_c, 9, 36, 95
1, 392159, Note_on_c, 9, 47, 0
1, 392159, Note_on_c, 9, 36, 0
1, 392160, Note_on_c, 9, 45, 95
1, 392160, Note_on_c, 9, 36, 95
1, 392399, Note_on_c, 9, 45, 0
1, 392400, Note_on_c, 9, 49, 127
1, 392407, Note_on_c, 9, 49, 0
1, 392639, Note_on_c, 9, 36, 0
1, 392640, Note_on_c, 9, 47, 95
1, 392640, Note_on_c, 9, 36, 95
1, 392999, Note_on_c, 9, 47, 0
1, 392999, Note_on_c, 9, 36, 0
1, 393000, Note_on_c, 9, 45, 95
1, 393000, Note_on_c, 9, 36, 95
1, 393119, Note_on_c, 9, 45, 0
1, 393119, Note_on_c, 9, 36, 0
1, 393120, Note_on_c, 9, 41, 95
1, 393360, Note_on_c, 9, 43, 95
1, 393599, Note_on_c, 9, 41, 0
1, 393599, Note_on_c, 9, 43, 0
1, 393600, Note_on_c, 9, 41, 95
1, 393600, Note_on_c, 9, 52, 127
1, 393600, Note_on_c, 9, 36, 95
1, 393607, Note_on_c, 9, 52, 0
1, 393839, Note_on_c, 9, 41, 0
1, 393839, Note_on_c, 9, 36, 0
1, 393840, Note_on_c, 9, 47, 95
1, 393840, Note_on_c, 9, 36, 95
1, 394079, Note_on_c, 9, 47, 0
1, 394079, Note_on_c, 9, 36, 0
1, 394080, Note_on_c, 9, 45, 95
1, 394080, Note_on_c, 9, 36, 95
1, 394319, Note_on_c, 9, 45, 0
1, 394320, Note_on_c, 9, 49, 127
1, 394327, Note_on_c, 9, 49, 0
1, 394559, Note_on_c, 9, 36, 0
1, 394560, Note_on_c, 9, 47, 95
1, 394560, Note_on_c, 9, 36, 95
1, 394919, Note_on_c, 9, 47, 0
1, 394919, Note_on_c, 9, 36, 0
1, 394920, Note_on_c, 9, 45, 95
1, 394920, Note_on_c, 9, 36, 95
1, 395039, Note_on_c, 9, 45, 0
1, 395039, Note_on_c, 9, 36, 0
1, 395040, Note_on_c, 9, 41, 95
1, 395280, Note_on_c, 9, 43, 95
1, 395519, Note_on_c, 9, 41, 0
1, 395519, Note_on_c, 9, 43, 0
1, 395520, Note_on_c, 9, 41, 95
1, 395520, Note_on_c, 9, 42, 95
1, 395520, Note_on_c, 9, 49, 95
1, 395520, Note_on_c, 9, 52, 95
1, 395520, Note_on_c, 9, 36, 95
1, 395523, Note_on_c, 9, 42, 0
1, 395523, Note_on_c, 9, 49, 0
1, 395523, Note_on_c, 9, 52, 0
1, 395639, Note_on_c, 9, 41, 0
1, 395640, Note_on_c, 9, 41, 95
1, 395679, Note_on_c, 9, 41, 0
1, 395680, Note_on_c, 9, 41, 95
1, 395719, Note_on_c, 9, 41, 0
1, 395720, Note_on_c, 9, 41, 95
1, 395759, Note_on_c, 9, 36, 0
1, 395759, Note_on_c, 9, 41, 0
1, 395760, Note_on_c, 9, 47, 95
1, 395760, Note_on_c, 9, 36, 95
1, 395879, Note_on_c, 9, 47, 0
1, 395879, Note_on_c, 9, 36, 0
1, 395880, Note_on_c, 9, 38, 95
1, 395880, Note_on_c, 9, 50, 95
1, 395880, Note_on_c, 9, 36, 95
1, 395999, Note_on_c, 9, 38, 0
1, 395999, Note_on_c, 9, 50, 0
1, 395999, Note_on_c, 9, 36, 0
1, 396000, Note_on_c, 9, 38, 95
1, 396000, Note_on_c, 9, 50, 95
1, 396000, Note_on_c, 9, 42, 95
1, 396003, Note_on_c, 9, 42, 0
1, 396119, Note_on_c, 9, 38, 0
1, 396119, Note_on_c, 9, 50, 0
1, 396120, Note_on_c, 9, 47, 95
1, 396239, Note_on_c, 9, 47, 0
1, 396240, Note_on_c, 9, 47, 95
1, 396240, Note_on_c, 9, 49, 95
1, 396240, Note_on_c, 9, 52, 95
1, 396243, Note_on_c, 9, 49, 0
1, 396243, Note_on_c, 9, 52, 0
1, 396359, Note_on_c, 9, 47, 0
1, 396360, Note_on_c, 9, 45, 95
1, 396360, Note_on_c, 9, 36, 95
1, 396479, Note_on_c, 9, 45, 0
1, 396479, Note_on_c, 9, 36, 0
1, 396480, Note_on_c, 9, 41, 95
1, 396480, Note_on_c, 9, 42, 95
1, 396487, Note_on_c, 9, 42, 0
1, 396600, Note_on_c, 9, 43, 95
1, 396719, Note_on_c, 9, 41, 0
1, 396719, Note_on_c, 9, 43, 0
1, 396720, Note_on_c, 9, 38, 95
1, 396720, Note_on_c, 9, 36, 95
1, 396839, Note_on_c, 9, 36, 0
1, 396840, Note_on_c, 9, 36, 95
1, 396840, Note_on_c, 9, 43, 95
1, 396959, Note_on_c, 9, 38, 0
1, 396959, Note_on_c, 9, 36, 0
1, 396959, Note_on_c, 9, 43, 0
1, 396960, Note_on_c, 9, 42, 95
1, 396960, Note_on_c, 9, 43, 95
1, 396963, Note_on_c, 9, 42, 0
1, 397080, Note_on_c, 9, 38, 95
1, 397199, Note_on_c, 9, 43, 0
1, 397200, Note_on_c, 9, 36, 95
1, 397319, Note_on_c, 9, 36, 0
1, 397320, Note_on_c, 9, 43, 127
1, 397439, Note_on_c, 9, 38, 0
1, 397439, Note_on_c, 9, 43, 0
1, 397440, Note_on_c, 9, 41, 95
1, 397440, Note_on_c, 9, 42, 95
1, 397440, Note_on_c, 9, 49, 95
1, 397440, Note_on_c, 9, 52, 95
1, 397440, Note_on_c, 9, 36, 95
1, 397443, Note_on_c, 9, 42, 0
1, 397443, Note_on_c, 9, 49, 0
1, 397443, Note_on_c, 9, 52, 0
1, 397559, Note_on_c, 9, 41, 0
1, 397560, Note_on_c, 9, 41, 95
1, 397599, Note_on_c, 9, 41, 0
1, 397600, Note_on_c, 9, 41, 95
1, 397639, Note_on_c, 9, 41, 0
1, 397640, Note_on_c, 9, 41, 95
1, 397679, Note_on_c, 9, 36, 0
1, 397679, Note_on_c, 9, 41, 0
1, 397680, Note_on_c, 9, 47, 95
1, 397680, Note_on_c, 9, 36, 95
1, 397799, Note_on_c, 9, 47, 0
1, 397799, Note_on_c, 9, 36, 0
1, 397800, Note_on_c, 9, 38, 95
1, 397800, Note_on_c, 9, 50, 95
1, 397800, Note_on_c, 9, 36, 95
1, 397919, Note_on_c, 9, 38, 0
1, 397919, Note_on_c, 9, 50, 0
1, 397919, Note_on_c, 9, 36, 0
1, 397920, Note_on_c, 9, 38, 95
1, 397920, Note_on_c, 9, 50, 95
1, 397920, Note_on_c, 9, 42, 95
1, 397923, Note_on_c, 9, 42, 0
1, 398039, Note_on_c, 9, 38, 0
1, 398039, Note_on_c, 9, 50, 0
1, 398040, Note_on_c, 9, 47, 95
1, 398159, Note_on_c, 9, 47, 0
1, 398160, Note_on_c, 9, 47, 95
1, 398160, Note_on_c, 9, 49, 95
1, 398160, Note_on_c, 9, 52, 95
1, 398163, Note_on_c, 9, 49, 0
1, 398163, Note_on_c, 9, 52, 0
1, 398279, Note_on_c, 9, 47, 0
1, 398280, Note_on_c, 9, 45, 95
1, 398280, Note_on_c, 9, 36, 95
1, 398399, Note_on_c, 9, 45, 0
1, 398399, Note_on_c, 9, 36, 0
1, 398400, Note_on_c, 9, 41, 95
1, 398400, Note_on_c, 9, 42, 95
1, 398407, Note_on_c, 9, 42, 0
1, 398520, Note_on_c, 9, 43, 95
1, 398639, Note_on_c, 9, 41, 0
1, 398639, Note_on_c, 9, 43, 0
1, 398640, Note_on_c, 9, 38, 95
1, 398640, Note_on_c, 9, 36, 95
1, 398759, Note_on_c, 9, 36, 0
1, 398760, Note_on_c, 9, 36, 95
1, 398760, Note_on_c, 9, 43, 95
1, 398879, Note_on_c, 9, 38, 0
1, 398879, Note_on_c, 9, 36, 0
1, 398879, Note_on_c, 9, 43, 0
1, 398880, Note_on_c, 9, 42, 95
1, 398880, Note_on_c, 9, 43, 95
1, 398883, Note_on_c, 9, 42, 0
1, 399000, Note_on_c, 9, 38, 95
1, 399119, Note_on_c, 9, 43, 0
1, 399120, Note_on_c, 9, 36, 95
1, 399239, Note_on_c, 9, 36, 0
1, 399240, Note_on_c, 9, 43, 127
1, 399359, Note_on_c, 9, 38, 0
1, 399359, Note_on_c, 9, 43, 0
1, 399360, Note_on_c, 9, 41, 95
1, 399360, Note_on_c, 9, 42, 95
1, 399360, Note_on_c, 9, 49, 95
1, 399360, Note_on_c, 9, 52, 95
1, 399360, Note_on_c, 9, 36, 95
1, 399363, Note_on_c, 9, 42, 0
1, 399363, Note_on_c, 9, 49, 0
1, 399363, Note_on_c, 9, 52, 0
1, 399479, Note_on_c, 9, 41, 0
1, 399480, Note_on_c, 9, 41, 95
1, 399519, Note_on_c, 9, 41, 0
1, 399520, Note_on_c, 9, 41, 95
1, 399559, Note_on_c, 9, 41, 0
1, 399560, Note_on_c, 9, 41, 95
1, 399599, Note_on_c, 9, 36, 0
1, 399599, Note_on_c, 9, 41, 0
1, 399600, Note_on_c, 9, 47, 95
1, 399600, Note_on_c, 9, 36, 95
1, 399719, Note_on_c, 9, 47, 0
1, 399719, Note_on_c, 9, 36, 0
1, 399720, Note_on_c, 9, 38, 95
1, 399720, Note_on_c, 9, 50, 95
1, 399720, Note_on_c, 9, 36, 95
1, 399839, Note_on_c, 9, 38, 0
1, 399839, Note_on_c, 9, 50, 0
1, 399839, Note_on_c, 9, 36, 0
1, 399840, Note_on_c, 9, 38, 95
1, 399840, Note_on_c, 9, 50, 95
1, 399840, Note_on_c, 9, 42, 95
1, 399843, Note_on_c, 9, 42, 0
1, 399959, Note_on_c, 9, 38, 0
1, 399959, Note_on_c, 9, 50, 0
1, 399960, Note_on_c, 9, 47, 95
1, 400079, Note_on_c, 9, 47, 0
1, 400080, Note_on_c, 9, 47, 95
1, 400080, Note_on_c, 9, 49, 95
1, 400080, Note_on_c, 9, 52, 95
1, 400083, Note_on_c, 9, 49, 0
1, 400083, Note_on_c, 9, 52, 0
1, 400199, Note_on_c, 9, 47, 0
1, 400200, Note_on_c, 9, 45, 95
1, 400200, Note_on_c, 9, 36, 95
1, 400319, Note_on_c, 9, 45, 0
1, 400319, Note_on_c, 9, 36, 0
1, 400320, Note_on_c, 9, 41, 95
1, 400320, Note_on_c, 9, 42, 95
1, 400327, Note_on_c, 9, 42, 0
1, 400440, Note_on_c, 9, 43, 95
1, 400559, Note_on_c, 9, 41, 0
1, 400559, Note_on_c, 9, 43, 0
1, 400560, Note_on_c, 9, 38, 95
1, 400560, Note_on_c, 9, 36, 95
1, 400679, Note_on_c, 9, 36, 0
1, 400680, Note_on_c, 9, 36, 95
1, 400680, Note_on_c, 9, 43, 95
1, 400799, Note_on_c, 9, 38, 0
1, 400799, Note_on_c, 9, 36, 0
1, 400799, Note_on_c, 9, 43, 0
1, 400800, Note_on_c, 9, 42, 95
1, 400800, Note_on_c, 9, 43, 95
1, 400803, Note_on_c, 9, 42, 0
1, 400920, Note_on_c, 9, 38, 95
1, 401039, Note_on_c, 9, 43, 0
1, 401040, Note_on_c, 9, 36, 95
1, 401159, Note_on_c, 9, 36, 0
1, 401160, Note_on_c, 9, 43, 127
1, 401279, Note_on_c, 9, 38, 0
1, 401279, Note_on_c, 9, 43, 0
1, 401280, Note_on_c, 9, 41, 95
1, 401280, Note_on_c, 9, 42, 95
1, 401280, Note_on_c, 9, 49, 95
1, 401280, Note_on_c, 9, 52, 95
1, 401280, Note_on_c, 9, 36, 95
1, 401283, Note_on_c, 9, 42, 0
1, 401283, Note_on_c, 9, 49, 0
1, 401283, Note_on_c, 9, 52, 0
1, 401399, Note_on_c, 9, 41, 0
1, 401400, Note_on_c, 9, 41, 95
1, 401439, Note_on_c, 9, 41, 0
1, 401440, Note_on_c, 9, 41, 95
1, 401479, Note_on_c, 9, 41, 0
1, 401480, Note_on_c, 9, 41, 95
1, 401519, Note_on_c, 9, 36, 0
1, 401519, Note_on_c, 9, 41, 0
1, 401520, Note_on_c, 9, 47, 95
1, 401520, Note_on_c, 9, 36, 95
1, 401639, Note_on_c, 9, 47, 0
1, 401639, Note_on_c, 9, 36, 0
1, 401640, Note_on_c, 9, 38, 95
1, 401640, Note_on_c, 9, 50, 95
1, 401640, Note_on_c, 9, 36, 95
1, 401759, Note_on_c, 9, 38, 0
1, 401759, Note_on_c, 9, 50, 0
1, 401759, Note_on_c, 9, 36, 0
1, 401760, Note_on_c, 9, 38, 95
1, 401760, Note_on_c, 9, 50, 95
1, 401760, Note_on_c, 9, 42, 95
1, 401763, Note_on_c, 9, 42, 0
1, 401879, Note_on_c, 9, 38, 0
1, 401879, Note_on_c, 9, 50, 0
1, 401880, Note_on_c, 9, 47, 95
1, 401999, Note_on_c, 9, 47, 0
1, 402000, Note_on_c, 9, 47, 95
1, 402000, Note_on_c, 9, 49, 95
1, 402000, Note_on_c, 9, 52, 95
1, 402003, Note_on_c, 9, 49, 0
1, 402003, Note_on_c, 9, 52, 0
1, 402119, Note_on_c, 9, 47, 0
1, 402120, Note_on_c, 9, 45, 95
1, 402120, Note_on_c, 9, 36, 95
1, 402239, Note_on_c, 9, 45, 0
1, 402239, Note_on_c, 9, 36, 0
1, 402240, Note_on_c, 9, 41, 95
1, 402240, Note_on_c, 9, 42, 95
1, 402247, Note_on_c, 9, 42, 0
1, 402360, Note_on_c, 9, 43, 95
1, 402479, Note_on_c, 9, 41, 0
1, 402479, Note_on_c, 9, 43, 0
1, 402480, Note_on_c, 9, 38, 95
1, 402480, Note_on_c, 9, 36, 95
1, 402599, Note_on_c, 9, 36, 0
1, 402600, Note_on_c, 9, 36, 95
1, 402600, Note_on_c, 9, 43, 95
1, 402719, Note_on_c, 9, 38, 0
1, 402719, Note_on_c, 9, 36, 0
1, 402719, Note_on_c, 9, 43, 0
1, 402840, Note_on_c, 9, 38, 95
1, 402840, Note_on_c, 9, 47, 95
1, 402840, Note_on_c, 9, 36, 95
1, 402840, Note_on_c, 9, 43, 95
1, 402959, Note_on_c, 9, 38, 0
1, 402959, Note_on_c, 9, 47, 0
1, 402959, Note_on_c, 9, 36, 0
1, 402959, Note_on_c, 9, 43, 0
1, 402960, Note_on_c, 9, 38, 95
1, 402960, Note_on_c, 9, 47, 95
1, 402960, Note_on_c, 9, 36, 95
1, 402960, Note_on_c, 9, 43, 95
1, 403079, Note_on_c, 9, 38, 0
1, 403079, Note_on_c, 9, 47, 0
1, 403079, Note_on_c, 9, 36, 0
1, 403079, Note_on_c, 9, 43, 0
1, 403080, Note_on_c, 9, 38, 95
1, 403080, Note_on_c, 9, 47, 95
1, 403080, Note_on_c, 9, 36, 95
1, 403080, Note_on_c, 9, 43, 127
1, 403199, Note_on_c, 9, 38, 0
1, 403199, Note_on_c, 9, 47, 0
1, 403199, Note_on_c, 9, 36, 0
1, 403199, Note_on_c, 9, 43, 0
1, 403200, Note_on_c, 9, 52, 95
1, 403200, Note_on_c, 9, 36, 95
1, 403212, Note_on_c, 9, 52, 0
1, 403559, Note_on_c, 9, 36, 0
1, 403560, Note_on_c, 9, 52, 95
1, 403560, Note_on_c, 9, 36, 95
1, 403563, Note_on_c, 9, 52, 0
1, 403679, Note_on_c, 9, 36, 0
1, 403920, Note_on_c, 9, 49, 95
1, 403923, Note_on_c, 9, 49, 0
1, 404040, Note_on_c, 9, 41, 95
1, 404099, Note_on_c, 9, 41, 0
1, 404100, Note_on_c, 9, 41, 95
1, 404100, Note_on_c, 9, 36, 95
1, 404159, Note_on_c, 9, 41, 0
1, 404159, Note_on_c, 9, 36, 0
1, 404160, Note_on_c, 9, 41, 95
1, 404219, Note_on_c, 9, 41, 0
1, 404220, Note_on_c, 9, 41, 95
1, 404279, Note_on_c, 9, 41, 0
1, 404280, Note_on_c, 9, 41, 95
1, 404339, Note_on_c, 9, 41, 0
1, 404340, Note_on_c, 9, 41, 95
1, 404399, Note_on_c, 9, 41, 0
1, 404400, Note_on_c, 9, 41, 95
1, 404400, Note_on_c, 9, 36, 95
1, 404459, Note_on_c, 9, 41, 0
1, 404460, Note_on_c, 9, 41, 95
1, 404519, Note_on_c, 9, 36, 0
1, 404519, Note_on_c, 9, 41, 0
1, 404520, Note_on_c, 9, 41, 95
1, 404520, Note_on_c, 9, 36, 95
1, 404639, Note_on_c, 9, 41, 0
1, 404639, Note_on_c, 9, 36, 0
1, 405120, Note_on_c, 9, 52, 95
1, 405120, Note_on_c, 9, 36, 95
1, 405132, Note_on_c, 9, 52, 0
1, 405479, Note_on_c, 9, 36, 0
1, 405480, Note_on_c, 9, 52, 95
1, 405480, Note_on_c, 9, 36, 95
1, 405483, Note_on_c, 9, 52, 0
1, 405599, Note_on_c, 9, 36, 0
1, 405840, Note_on_c, 9, 49, 95
1, 405843, Note_on_c, 9, 49, 0
1, 405960, Note_on_c, 9, 41, 95
1, 406019, Note_on_c, 9, 41, 0
1, 406020, Note_on_c, 9, 41, 95
1, 406020, Note_on_c, 9, 36, 95
1, 406079, Note_on_c, 9, 41, 0
1, 406079, Note_on_c, 9, 36, 0
1, 406080, Note_on_c, 9, 41, 95
1, 406139, Note_on_c, 9, 41, 0
1, 406140, Note_on_c, 9, 41, 95
1, 406199, Note_on_c, 9, 41, 0
1, 406200, Note_on_c, 9, 41, 95
1, 406259, Note_on_c, 9, 41, 0
1, 406260, Note_on_c, 9, 41, 95
1, 406319, Note_on_c, 9, 41, 0
1, 406320, Note_on_c, 9, 41, 95
1, 406320, Note_on_c, 9, 36, 95
1, 406379, Note_on_c, 9, 41, 0
1, 406380, Note_on_c, 9, 41, 95
1, 406439, Note_on_c, 9, 36, 0
1, 406439, Note_on_c, 9, 41, 0
1, 406440, Note_on_c, 9, 41, 95
1, 406440, Note_on_c, 9, 36, 95
1, 406559, Note_on_c, 9, 41, 0
1, 406559, Note_on_c, 9, 36, 0
1, 407040, Note_on_c, 9, 52, 95
1, 407040, Note_on_c, 9, 36, 95
1, 407052, Note_on_c, 9, 52, 0
1, 407399, Note_on_c, 9, 36, 0
1, 407400, Note_on_c, 9, 52, 95
1, 407400, Note_on_c, 9, 36, 95
1, 407403, Note_on_c, 9, 52, 0
1, 407519, Note_on_c, 9, 36, 0
1, 407760, Note_on_c, 9, 49, 95
1, 407763, Note_on_c, 9, 49, 0
1, 407880, Note_on_c, 9, 41, 95
1, 407939, Note_on_c, 9, 41, 0
1, 407940, Note_on_c, 9, 41, 95
1, 407940, Note_on_c, 9, 36, 95
1, 407999, Note_on_c, 9, 41, 0
1, 407999, Note_on_c, 9, 36, 0
1, 408000, Note_on_c, 9, 41, 95
1, 408059, Note_on_c, 9, 41, 0
1, 408060, Note_on_c, 9, 41, 95
1, 408119, Note_on_c, 9, 41, 0
1, 408120, Note_on_c, 9, 41, 95
1, 408179, Note_on_c, 9, 41, 0
1, 408180, Note_on_c, 9, 41, 95
1, 408239, Note_on_c, 9, 41, 0
1, 408240, Note_on_c, 9, 41, 95
1, 408240, Note_on_c, 9, 36, 95
1, 408299, Note_on_c, 9, 41, 0
1, 408300, Note_on_c, 9, 41, 95
1, 408359, Note_on_c, 9, 36, 0
1, 408359, Note_on_c, 9, 41, 0
1, 408360, Note_on_c, 9, 41, 95
1, 408360, Note_on_c, 9, 36, 95
1, 408479, Note_on_c, 9, 41, 0
1, 408479, Note_on_c, 9, 36, 0
1, 408960, Note_on_c, 9, 52, 95
1, 408960, Note_on_c, 9, 36, 95
1, 408972, Note_on_c, 9, 52, 0
1, 409319, Note_on_c, 9, 36, 0
1, 409320, Note_on_c, 9, 52, 95
1, 409320, Note_on_c, 9, 36, 95
1, 409323, Note_on_c, 9, 52, 0
1, 409439, Note_on_c, 9, 36, 0
1, 409680, Note_on_c, 9, 49, 95
1, 409687, Note_on_c, 9, 49, 0
1, 409920, Note_on_c, 9, 47, 95
1, 410040, Note_on_c, 9, 36, 95
1, 410159, Note_on_c, 9, 47, 0
1, 410160, Note_on_c, 9, 45, 95
1, 410279, Note_on_c, 9, 45, 0
1, 410280, Note_on_c, 9, 47, 95
1, 410399, Note_on_c, 9, 36, 0
1, 410399, Note_on_c, 9, 47, 0
1, 410520, Note_on_c, 9, 36, 95
1, 410640, Note_on_c, 9, 41, 95
1, 410640, Note_on_c, 9, 38, 95
1, 410759, Note_on_c, 9, 41, 0
1, 410759, Note_on_c, 9, 38, 0
1, 410760, Note_on_c, 9, 41, 95
1, 410760, Note_on_c, 9, 38, 95
1, 410879, Note_on_c, 9, 36, 0
1, 410879, Note_on_c, 9, 41, 0
1, 410879, Note_on_c, 9, 38, 0
1, 410880, Note_on_c, 9, 49, 95
1, 410880, Note_on_c, 9, 36, 95
1, 410883, Note_on_c, 9, 49, 0
1, 411000, Note_on_c, 9, 51, 95
1, 411007, Note_on_c, 9, 51, 0
1, 411119, Note_on_c, 9, 36, 0
1, 411120, Note_on_c, 9, 36, 95
1, 411240, Note_on_c, 9, 50, 95
1, 411279, Note_on_c, 9, 50, 0
1, 411280, Note_on_c, 9, 50, 95
1, 411319, Note_on_c, 9, 50, 0
1, 411320, Note_on_c, 9, 47, 95
1, 411359, Note_on_c, 9, 36, 0
1, 411359, Note_on_c, 9, 47, 0
1, 411360, Note_on_c, 9, 47, 95
1, 411479, Note_on_c, 9, 47, 0
1, 411480, Note_on_c, 9, 53, 95
1, 411599, Note_on_c, 9, 53, 0
1, 411600, Note_on_c, 9, 49, 95
1, 411600, Note_on_c, 9, 36, 95
1, 411607, Note_on_c, 9, 49, 0
1, 411839, Note_on_c, 9, 36, 0
1, 411840, Note_on_c, 9, 51, 95
1, 411852, Note_on_c, 9, 51, 0
1, 412080, Note_on_c, 9, 36, 95
1, 412200, Note_on_c, 9, 50, 95
1, 412239, Note_on_c, 9, 50, 0
1, 412240, Note_on_c, 9, 50, 95
1, 412279, Note_on_c, 9, 50, 0
1, 412280, Note_on_c, 9, 47, 95
1, 412319, Note_on_c, 9, 36, 0
1, 412319, Note_on_c, 9, 47, 0
1, 412320, Note_on_c, 9, 45, 95
1, 412440, Note_on_c, 9, 36, 95
1, 412499, Note_on_c, 9, 36, 0
1, 412500, Note_on_c, 9, 36, 95
1, 412559, Note_on_c, 9, 36, 0
1, 412560, Note_on_c, 9, 36, 95
1, 412619, Note_on_c, 9, 36, 0
1, 412620, Note_on_c, 9, 36, 95
1, 412679, Note_on_c, 9, 36, 0
1, 412680, Note_on_c, 9, 36, 95
1, 412799, Note_on_c, 9, 45, 0
1, 412799, Note_on_c, 9, 36, 0
1, 412800, Note_on_c, 9, 49, 95
1, 412800, Note_on_c, 9, 36, 95
1, 412803, Note_on_c, 9, 49, 0
1, 412920, Note_on_c, 9, 51, 95
1, 412927, Note_on_c, 9, 51, 0
1, 413039, Note_on_c, 9, 36, 0
1, 413040, Note_on_c, 9, 36, 95
1, 413160, Note_on_c, 9, 50, 95
1, 413199, Note_on_c, 9, 50, 0
1, 413200, Note_on_c, 9, 50, 95
1, 413239, Note_on_c, 9, 50, 0
1, 413240, Note_on_c, 9, 47, 95
1, 413279, Note_on_c, 9, 36, 0
1, 413279, Note_on_c, 9, 47, 0
1, 413280, Note_on_c, 9, 47, 95
1, 413399, Note_on_c, 9, 47, 0
1, 413400, Note_on_c, 9, 53, 95
1, 413519, Note_on_c, 9, 53, 0
1, 413520, Note_on_c, 9, 49, 95
1, 413520, Note_on_c, 9, 36, 95
1, 413527, Note_on_c, 9, 49, 0
1, 413759, Note_on_c, 9, 36, 0
1, 413760, Note_on_c, 9, 51, 95
1, 413772, Note_on_c, 9, 51, 0
1, 414000, Note_on_c, 9, 36, 95
1, 414120, Note_on_c, 9, 50, 95
1, 414159, Note_on_c, 9, 50, 0
1, 414160, Note_on_c, 9, 50, 95
1, 414199, Note_on_c, 9, 50, 0
1, 414200, Note_on_c, 9, 47, 95
1, 414239, Note_on_c, 9, 36, 0
1, 414239, Note_on_c, 9, 47, 0
1, 414240, Note_on_c, 9, 45, 95
1, 414360, Note_on_c, 9, 36, 95
1, 414419, Note_on_c, 9, 36, 0
1, 414420, Note_on_c, 9, 36, 95
1, 414479, Note_on_c, 9, 36, 0
1, 414480, Note_on_c, 9, 36, 95
1, 414539, Note_on_c, 9, 36, 0
1, 414540, Note_on_c, 9, 36, 95
1, 414599, Note_on_c, 9, 36, 0
1, 414600, Note_on_c, 9, 36, 95
1, 414719, Note_on_c, 9, 45, 0
1, 414719, Note_on_c, 9, 36, 0
1, 414720, Note_on_c, 9, 49, 95
1, 414720, Note_on_c, 9, 36, 95
1, 414723, Note_on_c, 9, 49, 0
1, 414840, Note_on_c, 9, 51, 95
1, 414847, Note_on_c, 9, 51, 0
1, 414959, Note_on_c, 9, 36, 0
1, 414960, Note_on_c, 9, 36, 95
1, 415080, Note_on_c, 9, 50, 95
1, 415119, Note_on_c, 9, 50, 0
1, 415120, Note_on_c, 9, 50, 95
1, 415159, Note_on_c, 9, 50, 0
1, 415160, Note_on_c, 9, 47, 95
1, 415199, Note_on_c, 9, 36, 0
1, 415199, Note_on_c, 9, 47, 0
1, 415200, Note_on_c, 9, 47, 95
1, 415319, Note_on_c, 9, 47, 0
1, 415320, Note_on_c, 9, 53, 95
1, 415439, Note_on_c, 9, 53, 0
1, 415440, Note_on_c, 9, 49, 95
1, 415440, Note_on_c, 9, 36, 95
1, 415447, Note_on_c, 9, 49, 0
1, 415679, Note_on_c, 9, 36, 0
1, 415680, Note_on_c, 9, 51, 95
1, 415692, Note_on_c, 9, 51, 0
1, 415920, Note_on_c, 9, 36, 95
1, 416040, Note_on_c, 9, 50, 95
1, 416079, Note_on_c, 9, 50, 0
1, 416080, Note_on_c, 9, 50, 95
1, 416119, Note_on_c, 9, 50, 0
1, 416120, Note_on_c, 9, 47, 95
1, 416159, Note_on_c, 9, 36, 0
1, 416159, Note_on_c, 9, 47, 0
1, 416160, Note_on_c, 9, 45, 95
1, 416280, Note_on_c, 9, 36, 95
1, 416339, Note_on_c, 9, 36, 0
1, 416340, Note_on_c, 9, 36, 95
1, 416399, Note_on_c, 9, 36, 0
1, 416400, Note_on_c, 9, 36, 95
1, 416459, Note_on_c, 9, 36, 0
1, 416460, Note_on_c, 9, 36, 95
1, 416519, Note_on_c, 9, 36, 0
1, 416520, Note_on_c, 9, 36, 95
1, 416639, Note_on_c, 9, 45, 0
1, 416639, Note_on_c, 9, 36, 0
1, 416640, Note_on_c, 9, 49, 95
1, 416640, Note_on_c, 9, 36, 95
1, 416647, Note_on_c, 9, 49, 0
1, 416880, Note_on_c, 9, 51, 95
1, 416887, Note_on_c, 9, 51, 0
1, 416999, Note_on_c, 9, 36, 0
1, 417000, Note_on_c, 9, 36, 95
1, 417119, Note_on_c, 9, 36, 0
1, 417120, Note_on_c, 9, 51, 95
1, 417123, Note_on_c, 9, 51, 0
1, 417240, Note_on_c, 9, 50, 95
1, 417359, Note_on_c, 9, 50, 0
1, 417360, Note_on_c, 9, 47, 95
1, 417479, Note_on_c, 9, 47, 0
1, 417480, Note_on_c, 9, 47, 95
1, 417599, Note_on_c, 9, 47, 0
1, 417600, Note_on_c, 9, 38, 95
1, 417719, Note_on_c, 9, 38, 0
1, 417720, Note_on_c, 9, 51, 95
1, 417727, Note_on_c, 9, 51, 0
1, 417840, Note_on_c, 9, 36, 95
1, 417960, Note_on_c, 9, 51, 95
1, 417963, Note_on_c, 9, 51, 0
1, 418079, Note_on_c, 9, 36, 0
1, 418080, Note_on_c, 9, 50, 95
1, 418159, Note_on_c, 9, 50, 0
1, 418160, Note_on_c, 9, 50, 95
1, 418199, Note_on_c, 9, 50, 0
1, 418200, Note_on_c, 9, 50, 95
1, 418239, Note_on_c, 9, 50, 0
1, 418240, Note_on_c, 9, 47, 95
1, 418240, Note_on_c, 9, 50, 95
1, 418240, Note_on_c, 9, 36, 95
1, 418279, Note_on_c, 9, 47, 0
1, 418279, Note_on_c, 9, 50, 0
1, 418279, Note_on_c, 9, 36, 0
1, 418280, Note_on_c, 9, 47, 95
1, 418280, Note_on_c, 9, 50, 95
1, 418280, Note_on_c, 9, 36, 95
1, 418319, Note_on_c, 9, 47, 0
1, 418319, Note_on_c, 9, 50, 0
1, 418319, Note_on_c, 9, 36, 0
1, 418320, Note_on_c, 9, 45, 95
1, 418320, Note_on_c, 9, 47, 95
1, 418359, Note_on_c, 9, 45, 0
1, 418359, Note_on_c, 9, 47, 0
1, 418360, Note_on_c, 9, 45, 95
1, 418360, Note_on_c, 9, 47, 95
1, 418399, Note_on_c, 9, 45, 0
1, 418399, Note_on_c, 9, 47, 0
1, 418400, Note_on_c, 9, 41, 95
1, 418400, Note_on_c, 9, 45, 95
1, 418439, Note_on_c, 9, 41, 0
1, 418439, Note_on_c, 9, 45, 0
1, 418440, Note_on_c, 9, 41, 95
1, 418440, Note_on_c, 9, 45, 95
1, 418440, Note_on_c, 9, 36, 95
1, 418479, Note_on_c, 9, 41, 0
1, 418479, Note_on_c, 9, 45, 0
1, 418480, Note_on_c, 9, 41, 95
1, 418519, Note_on_c, 9, 41, 0
1, 418520, Note_on_c, 9, 41, 95
1, 418559, Note_on_c, 9, 36, 0
1, 418559, Note_on_c, 9, 41, 0
1, 418560, Note_on_c, 9, 49, 95
1, 418560, Note_on_c, 9, 36, 95
1, 418563, Note_on_c, 9, 49, 0
1, 418680, Note_on_c, 9, 51, 95
1, 418687, Note_on_c, 9, 51, 0
1, 418799, Note_on_c, 9, 36, 0
1, 418800, Note_on_c, 9, 36, 95
1, 418920, Note_on_c, 9, 50, 95
1, 418959, Note_on_c, 9, 50, 0
1, 418960, Note_on_c, 9, 50, 95
1, 418999, Note_on_c, 9, 50, 0
1, 419000, Note_on_c, 9, 47, 95
1, 419039, Note_on_c, 9, 36, 0
1, 419039, Note_on_c, 9, 47, 0
1, 419040, Note_on_c, 9, 47, 95
1, 419159, Note_on_c, 9, 47, 0
1, 419160, Note_on_c, 9, 53, 95
1, 419279, Note_on_c, 9, 53, 0
1, 419280, Note_on_c, 9, 49, 95
1, 419280, Note_on_c, 9, 36, 95
1, 419287, Note_on_c, 9, 49, 0
1, 419519, Note_on_c, 9, 36, 0
1, 419520, Note_on_c, 9, 51, 95
1, 419532, Note_on_c, 9, 51, 0
1, 419760, Note_on_c, 9, 36, 95
1, 419880, Note_on_c, 9, 50, 95
1, 419919, Note_on_c, 9, 50, 0
1, 419920, Note_on_c, 9, 50, 95
1, 419959, Note_on_c, 9, 50, 0
1, 419960, Note_on_c, 9, 47, 95
1, 419999, Note_on_c, 9, 36, 0
1, 419999, Note_on_c, 9, 47, 0
1, 420000, Note_on_c, 9, 45, 95
1, 420120, Note_on_c, 9, 36, 95
1, 420179, Note_on_c, 9, 36, 0
1, 420180, Note_on_c, 9, 36, 95
1, 420239, Note_on_c, 9, 36, 0
1, 420240, Note_on_c, 9, 36, 95
1, 420299, Note_on_c, 9, 36, 0
1, 420300, Note_on_c, 9, 36, 95
1, 420359, Note_on_c, 9, 36, 0
1, 420360, Note_on_c, 9, 36, 95
1, 420479, Note_on_c, 9, 45, 0
1, 420479, Note_on_c, 9, 36, 0
1, 420480, Note_on_c, 9, 49, 95
1, 420480, Note_on_c, 9, 36, 95
1, 420483, Note_on_c, 9, 49, 0
1, 420600, Note_on_c, 9, 51, 95
1, 420607, Note_on_c, 9, 51, 0
1, 420719, Note_on_c, 9, 36, 0
1, 420720, Note_on_c, 9, 36, 95
1, 420840, Note_on_c, 9, 50, 95
1, 420879, Note_on_c, 9, 50, 0
1, 420880, Note_on_c, 9, 50, 95
1, 420919, Note_on_c, 9, 50, 0
1, 420920, Note_on_c, 9, 47, 95
1, 420959, Note_on_c, 9, 36, 0
1, 420959, Note_on_c, 9, 47, 0
1, 420960, Note_on_c, 9, 47, 95
1, 421079, Note_on_c, 9, 47, 0
1, 421080, Note_on_c, 9, 53, 95
1, 421199, Note_on_c, 9, 53, 0
1, 421200, Note_on_c, 9, 49, 95
1, 421200, Note_on_c, 9, 36, 95
1, 421207, Note_on_c, 9, 49, 0
1, 421439, Note_on_c, 9, 36, 0
1, 421440, Note_on_c, 9, 51, 95
1, 421440, Note_on_c, 9, 55, 95
1, 421452, Note_on_c, 9, 51, 0
1, 421452, Note_on_c, 9, 55, 0
1, 421680, Note_on_c, 9, 36, 95
1, 421800, Note_on_c, 9, 50, 95
1, 421839, Note_on_c, 9, 50, 0
1, 421840, Note_on_c, 9, 50, 95
1, 421879, Note_on_c, 9, 50, 0
1, 421880, Note_on_c, 9, 47, 95
1, 421919, Note_on_c, 9, 36, 0
1, 421919, Note_on_c, 9, 47, 0
1, 421920, Note_on_c, 9, 45, 95
1, 422040, Note_on_c, 9, 36, 95
1, 422099, Note_on_c, 9, 36, 0
1, 422100, Note_on_c, 9, 36, 95
1, 422159, Note_on_c, 9, 36, 0
1, 422160, Note_on_c, 9, 36, 95
1, 422219, Note_on_c, 9, 36, 0
1, 422220, Note_on_c, 9, 36, 95
1, 422279, Note_on_c, 9, 36, 0
1, 422280, Note_on_c, 9, 36, 95
1, 422399, Note_on_c, 9, 45, 0
1, 422399, Note_on_c, 9, 36, 0
1, 422400, Note_on_c, 9, 49, 95
1, 422400, Note_on_c, 9, 36, 95
1, 422403, Note_on_c, 9, 49, 0
1, 422520, Note_on_c, 9, 51, 95
1, 422527, Note_on_c, 9, 51, 0
1, 422639, Note_on_c, 9, 36, 0
1, 422640, Note_on_c, 9, 36, 95
1, 422760, Note_on_c, 9, 50, 95
1, 422799, Note_on_c, 9, 50, 0
1, 422800, Note_on_c, 9, 50, 95
1, 422839, Note_on_c, 9, 50, 0
1, 422840, Note_on_c, 9, 47, 95
1, 422879, Note_on_c, 9, 36, 0
1, 422879, Note_on_c, 9, 47, 0
1, 422880, Note_on_c, 9, 47, 95
1, 422999, Note_on_c, 9, 47, 0
1, 423000, Note_on_c, 9, 53, 95
1, 423119, Note_on_c, 9, 53, 0
1, 423120, Note_on_c, 9, 49, 95
1, 423120, Note_on_c, 9, 36, 95
1, 423127, Note_on_c, 9, 49, 0
1, 423359, Note_on_c, 9, 36, 0
1, 423360, Note_on_c, 9, 51, 95
1, 423360, Note_on_c, 9, 55, 95
1, 423372, Note_on_c, 9, 51, 0
1, 423372, Note_on_c, 9, 55, 0
1, 423600, Note_on_c, 9, 36, 95
1, 423720, Note_on_c, 9, 50, 95
1, 423759, Note_on_c, 9, 50, 0
1, 423760, Note_on_c, 9, 50, 95
1, 423799, Note_on_c, 9, 50, 0
1, 423800, Note_on_c, 9, 47, 95
1, 423839, Note_on_c, 9, 36, 0
1, 423839, Note_on_c, 9, 47, 0
1, 423840, Note_on_c, 9, 45, 95
1, 423960, Note_on_c, 9, 36, 95
1, 424019, Note_on_c, 9, 36, 0
1, 424020, Note_on_c, 9, 36, 95
1, 424079, Note_on_c, 9, 36, 0
1, 424080, Note_on_c, 9, 36, 95
1, 424139, Note_on_c, 9, 36, 0
1, 424140, Note_on_c, 9, 36, 95
1, 424199, Note_on_c, 9, 36, 0
1, 424200, Note_on_c, 9, 36, 95
1, 424319, Note_on_c, 9, 45, 0
1, 424319, Note_on_c, 9, 36, 0
1, 424320, Note_on_c, 9, 49, 95
1, 424320, Note_on_c, 9, 36, 95
1, 424323, Note_on_c, 9, 49, 0
1, 424440, Note_on_c, 9, 51, 95
1, 424447, Note_on_c, 9, 51, 0
1, 424559, Note_on_c, 9, 36, 0
1, 424560, Note_on_c, 9, 36, 95
1, 424680, Note_on_c, 9, 50, 95
1, 424719, Note_on_c, 9, 50, 0
1, 424720, Note_on_c, 9, 50, 95
1, 424759, Note_on_c, 9, 50, 0
1, 424760, Note_on_c, 9, 47, 95
1, 424799, Note_on_c, 9, 36, 0
1, 424799, Note_on_c, 9, 47, 0
1, 424800, Note_on_c, 9, 47, 95
1, 424800, Note_on_c, 9, 51, 95
1, 424803, Note_on_c, 9, 51, 0
1, 424919, Note_on_c, 9, 47, 0
1, 424920, Note_on_c, 9, 53, 95
1, 425039, Note_on_c, 9, 53, 0
1, 425040, Note_on_c, 9, 49, 95
1, 425040, Note_on_c, 9, 36, 95
1, 425047, Note_on_c, 9, 49, 0
1, 425279, Note_on_c, 9, 36, 0
1, 425280, Note_on_c, 9, 51, 95
1, 425292, Note_on_c, 9, 51, 0
1, 425520, Note_on_c, 9, 36, 95
1, 425640, Note_on_c, 9, 50, 95
1, 425679, Note_on_c, 9, 50, 0
1, 425680, Note_on_c, 9, 50, 95
1, 425719, Note_on_c, 9, 50, 0
1, 425720, Note_on_c, 9, 47, 95
1, 425759, Note_on_c, 9, 36, 0
1, 425759, Note_on_c, 9, 47, 0
1, 425760, Note_on_c, 9, 45, 95
1, 425879, Note_on_c, 9, 45, 0
1, 425880, Note_on_c, 9, 51, 95
1, 425880, Note_on_c, 9, 36, 95
1, 425881, Note_on_c, 9, 51, 0
1, 425939, Note_on_c, 9, 36, 0
1, 425940, Note_on_c, 9, 51, 95
1, 425940, Note_on_c, 9, 36, 95
1, 425941, Note_on_c, 9, 51, 0
1, 425999, Note_on_c, 9, 36, 0
1, 426000, Note_on_c, 9, 51, 95
1, 426000, Note_on_c, 9, 36, 95
1, 426007, Note_on_c, 9, 51, 0
1, 426059, Note_on_c, 9, 36, 0
1, 426060, Note_on_c, 9, 36, 95
1, 426119, Note_on_c, 9, 36, 0
1, 426120, Note_on_c, 9, 36, 95
1, 426239, Note_on_c, 9, 36, 0
1, 426240, Note_on_c, 9, 49, 95
1, 426240, Note_on_c, 9, 36, 95
1, 426243, Note_on_c, 9, 49, 0
1, 426360, Note_on_c, 9, 51, 95
1, 426367, Note_on_c, 9, 51, 0
1, 426479, Note_on_c, 9, 36, 0
1, 426480, Note_on_c, 9, 36, 95
1, 426600, Note_on_c, 9, 50, 95
1, 426639, Note_on_c, 9, 50, 0
1, 426640, Note_on_c, 9, 50, 95
1, 426679, Note_on_c, 9, 50, 0
1, 426680, Note_on_c, 9, 47, 95
1, 426719, Note_on_c, 9, 36, 0
1, 426719, Note_on_c, 9, 47, 0
1, 426720, Note_on_c, 9, 47, 95
1, 426839, Note_on_c, 9, 47, 0
1, 426840, Note_on_c, 9, 53, 95
1, 426959, Note_on_c, 9, 53, 0
1, 426960, Note_on_c, 9, 49, 95
1, 426960, Note_on_c, 9, 36, 95
1, 426967, Note_on_c, 9, 49, 0
1, 427199, Note_on_c, 9, 36, 0
1, 427200, Note_on_c, 9, 51, 95
1, 427212, Note_on_c, 9, 51, 0
1, 427440, Note_on_c, 9, 36, 95
1, 427560, Note_on_c, 9, 50, 95
1, 427599, Note_on_c, 9, 50, 0
1, 427600, Note_on_c, 9, 50, 95
1, 427639, Note_on_c, 9, 50, 0
1, 427640, Note_on_c, 9, 47, 95
1, 427679, Note_on_c, 9, 36, 0
1, 427679, Note_on_c, 9, 47, 0
1, 427680, Note_on_c, 9, 45, 95
1, 427800, Note_on_c, 9, 36, 95
1, 427859, Note_on_c, 9, 36, 0
1, 427860, Note_on_c, 9, 36, 95
1, 427919, Note_on_c, 9, 36, 0
1, 427920, Note_on_c, 9, 36, 95
1, 427979, Note_on_c, 9, 36, 0
1, 427980, Note_on_c, 9, 36, 95
1, 428039, Note_on_c, 9, 36, 0
1, 428040, Note_on_c, 9, 36, 95
1, 428159, Note_on_c, 9, 45, 0
1, 428159, Note_on_c, 9, 36, 0
1, 428160, Note_on_c, 9, 49, 95
1, 428160, Note_on_c, 9, 36, 95
1, 428167, Note_on_c, 9, 49, 0
1, 428400, Note_on_c, 9, 51, 95
1, 428407, Note_on_c, 9, 51, 0
1, 428519, Note_on_c, 9, 36, 0
1, 428520, Note_on_c, 9, 36, 95
1, 428639, Note_on_c, 9, 36, 0
1, 428640, Note_on_c, 9, 51, 95
1, 428643, Note_on_c, 9, 51, 0
1, 428760, Note_on_c, 9, 50, 95
1, 428879, Note_on_c, 9, 50, 0
1, 428880, Note_on_c, 9, 47, 95
1, 428999, Note_on_c, 9, 47, 0
1, 429000, Note_on_c, 9, 47, 95
1, 429119, Note_on_c, 9, 47, 0
1, 429120, Note_on_c, 9, 38, 95
1, 429239, Note_on_c, 9, 38, 0
1, 429240, Note_on_c, 9, 51, 95
1, 429247, Note_on_c, 9, 51, 0
1, 429360, Note_on_c, 9, 36, 95
1, 429480, Note_on_c, 9, 51, 95
1, 429483, Note_on_c, 9, 51, 0
1, 429599, Note_on_c, 9, 36, 0
1, 429600, Note_on_c, 9, 50, 95
1, 429679, Note_on_c, 9, 50, 0
1, 429680, Note_on_c, 9, 50, 95
1, 429719, Note_on_c, 9, 50, 0
1, 429720, Note_on_c, 9, 50, 95
1, 429759, Note_on_c, 9, 50, 0
1, 429760, Note_on_c, 9, 47, 95
1, 429760, Note_on_c, 9, 50, 95
1, 429760, Note_on_c, 9, 36, 95
1, 429799, Note_on_c, 9, 47, 0
1, 429799, Note_on_c, 9, 50, 0
1, 429799, Note_on_c, 9, 36, 0
1, 429800, Note_on_c, 9, 47, 95
1, 429800, Note_on_c, 9, 50, 95
1, 429800, Note_on_c, 9, 36, 95
1, 429839, Note_on_c, 9, 47, 0
1, 429839, Note_on_c, 9, 50, 0
1, 429839, Note_on_c, 9, 36, 0
1, 429840, Note_on_c, 9, 45, 95
1, 429840, Note_on_c, 9, 47, 95
1, 429879, Note_on_c, 9, 45, 0
1, 429879, Note_on_c, 9, 47, 0
1, 429880, Note_on_c, 9, 45, 95
1, 429880, Note_on_c, 9, 47, 95
1, 429919, Note_on_c, 9, 45, 0
1, 429919, Note_on_c, 9, 47, 0
1, 429920, Note_on_c, 9, 41, 95
1, 429920, Note_on_c, 9, 45, 95
1, 429959, Note_on_c, 9, 41, 0
1, 429959, Note_on_c, 9, 45, 0
1, 429960, Note_on_c, 9, 41, 95
1, 429960, Note_on_c, 9, 45, 95
1, 429960, Note_on_c, 9, 36, 95
1, 429999, Note_on_c, 9, 41, 0
1, 429999, Note_on_c, 9, 45, 0
1, 430000, Note_on_c, 9, 41, 95
1, 430039, Note_on_c, 9, 41, 0
1, 430040, Note_on_c, 9, 41, 95
1, 430079, Note_on_c, 9, 36, 0
1, 430079, Note_on_c, 9, 41, 0
1, 430080, Note_on_c, 9, 49, 95
1, 430080, Note_on_c, 9, 36, 95
1, 430087, Note_on_c, 9, 49, 0
1, 430320, Note_on_c, 9, 51, 95
1, 430327, Note_on_c, 9, 51, 0
1, 430439, Note_on_c, 9, 36, 0
1, 430440, Note_on_c, 9, 36, 95
1, 430559, Note_on_c, 9, 36, 0
1, 430560, Note_on_c, 9, 51, 95
1, 430563, Note_on_c, 9, 51, 0
1, 430680, Note_on_c, 9, 50, 95
1, 430799, Note_on_c, 9, 50, 0
1, 430800, Note_on_c, 9, 47, 95
1, 430919, Note_on_c, 9, 47, 0
1, 430920, Note_on_c, 9, 47, 95
1, 431039, Note_on_c, 9, 47, 0
1, 431040, Note_on_c, 9, 38, 95
1, 431159, Note_on_c, 9, 38, 0
1, 431160, Note_on_c, 9, 51, 95
1, 431167, Note_on_c, 9, 51, 0
1, 431280, Note_on_c, 9, 36, 95
1, 431400, Note_on_c, 9, 51, 95
1, 431403, Note_on_c, 9, 51, 0
1, 431519, Note_on_c, 9, 36, 0
1, 431520, Note_on_c, 9, 50, 95
1, 431599, Note_on_c, 9, 50, 0
1, 431600, Note_on_c, 9, 50, 95
1, 431639, Note_on_c, 9, 50, 0
1, 431640, Note_on_c, 9, 50, 95
1, 431679, Note_on_c, 9, 50, 0
1, 431680, Note_on_c, 9, 47, 95
1, 431680, Note_on_c, 9, 50, 95
1, 431680, Note_on_c, 9, 36, 95
1, 431719, Note_on_c, 9, 47, 0
1, 431719, Note_on_c, 9, 50, 0
1, 431719, Note_on_c, 9, 36, 0
1, 431720, Note_on_c, 9, 47, 95
1, 431720, Note_on_c, 9, 50, 95
1, 431720, Note_on_c, 9, 36, 95
1, 431759, Note_on_c, 9, 47, 0
1, 431759, Note_on_c, 9, 50, 0
1, 431759, Note_on_c, 9, 36, 0
1, 431760, Note_on_c, 9, 45, 95
1, 431760, Note_on_c, 9, 47, 95
1, 431799, Note_on_c, 9, 45, 0
1, 431799, Note_on_c, 9, 47, 0
1, 431800, Note_on_c, 9, 45, 95
1, 431800, Note_on_c, 9, 47, 95
1, 431839, Note_on_c, 9, 45, 0
1, 431839, Note_on_c, 9, 47, 0
1, 431840, Note_on_c, 9, 41, 95
1, 431840, Note_on_c, 9, 45, 95
1, 431879, Note_on_c, 9, 41, 0
1, 431879, Note_on_c, 9, 45, 0
1, 431880, Note_on_c, 9, 41, 95
1, 431880, Note_on_c, 9, 45, 95
1, 431880, Note_on_c, 9, 36, 95
1, 431919, Note_on_c, 9, 41, 0
1, 431919, Note_on_c, 9, 45, 0
1, 431920, Note_on_c, 9, 41, 95
1, 431959, Note_on_c, 9, 41, 0
1, 431960, Note_on_c, 9, 41, 95
1, 431999, Note_on_c, 9, 36, 0
1, 431999, Note_on_c, 9, 41, 0
1, 432000, Note_on_c, 9, 49, 95
1, 432000, Note_on_c, 9, 36, 95
1, 432003, Note_on_c, 9, 49, 0
1, 432120, Note_on_c, 9, 51, 95
1, 432127, Note_on_c, 9, 51, 0
1, 432239, Note_on_c, 9, 36, 0
1, 432240, Note_on_c, 9, 36, 95
1, 432360, Note_on_c, 9, 50, 95
1, 432399, Note_on_c, 9, 50, 0
1, 432400, Note_on_c, 9, 50, 95
1, 432439, Note_on_c, 9, 50, 0
1, 432440, Note_on_c, 9, 47, 95
1, 432479, Note_on_c, 9, 36, 0
1, 432479, Note_on_c, 9, 47, 0
1, 432480, Note_on_c, 9, 47, 95
1, 432599, Note_on_c, 9, 47, 0
1, 432600, Note_on_c, 9, 53, 95
1, 432719, Note_on_c, 9, 53, 0
1, 432720, Note_on_c, 9, 49, 95
1, 432720, Note_on_c, 9, 36, 95
1, 432727, Note_on_c, 9, 49, 0
1, 432959, Note_on_c, 9, 36, 0
1, 432960, Note_on_c, 9, 51, 95
1, 432972, Note_on_c, 9, 51, 0
1, 433200, Note_on_c, 9, 36, 95
1, 433320, Note_on_c, 9, 50, 95
1, 433359, Note_on_c, 9, 50, 0
1, 433360, Note_on_c, 9, 50, 95
1, 433399, Note_on_c, 9, 50, 0
1, 433400, Note_on_c, 9, 47, 95
1, 433439, Note_on_c, 9, 36, 0
1, 433439, Note_on_c, 9, 47, 0
1, 433440, Note_on_c, 9, 45, 95
1, 433560, Note_on_c, 9, 36, 95
1, 433619, Note_on_c, 9, 36, 0
1, 433620, Note_on_c, 9, 36, 95
1, 433679, Note_on_c, 9, 36, 0
1, 433680, Note_on_c, 9, 36, 95
1, 433739, Note_on_c, 9, 36, 0
1, 433740, Note_on_c, 9, 36, 95
1, 433799, Note_on_c, 9, 36, 0
1, 433800, Note_on_c, 9, 36, 95
1, 433919, Note_on_c, 9, 45, 0
1, 433919, Note_on_c, 9, 36, 0
1, 433920, Note_on_c, 9, 49, 95
1, 433920, Note_on_c, 9, 36, 95
1, 433927, Note_on_c, 9, 49, 0
1, 434160, Note_on_c, 9, 51, 95
1, 434167, Note_on_c, 9, 51, 0
1, 434279, Note_on_c, 9, 36, 0
1, 434280, Note_on_c, 9, 36, 95
1, 434399, Note_on_c, 9, 36, 0
1, 434400, Note_on_c, 9, 51, 95
1, 434403, Note_on_c, 9, 51, 0
1, 434520, Note_on_c, 9, 50, 95
1, 434639, Note_on_c, 9, 50, 0
1, 434640, Note_on_c, 9, 47, 95
1, 434759, Note_on_c, 9, 47, 0
1, 434760, Note_on_c, 9, 47, 95
1, 434879, Note_on_c, 9, 47, 0
1, 434880, Note_on_c, 9, 38, 95
1, 434999, Note_on_c, 9, 38, 0
1, 435000, Note_on_c, 9, 51, 95
1, 435007, Note_on_c, 9, 51, 0
1, 435120, Note_on_c, 9, 36, 95
1, 435240, Note_on_c, 9, 51, 95
1, 435243, Note_on_c, 9, 51, 0
1, 435359, Note_on_c, 9, 36, 0
1, 435360, Note_on_c, 9, 50, 95
1, 435439, Note_on_c, 9, 50, 0
1, 435440, Note_on_c, 9, 50, 95
1, 435479, Note_on_c, 9, 50, 0
1, 435480, Note_on_c, 9, 50, 95
1, 435519, Note_on_c, 9, 50, 0
1, 435520, Note_on_c, 9, 47, 95
1, 435520, Note_on_c, 9, 50, 95
1, 435520, Note_on_c, 9, 36, 95
1, 435559, Note_on_c, 9, 47, 0
1, 435559, Note_on_c, 9, 50, 0
1, 435559, Note_on_c, 9, 36, 0
1, 435560, Note_on_c, 9, 47, 95
1, 435560, Note_on_c, 9, 50, 95
1, 435560, Note_on_c, 9, 36, 95
1, 435599, Note_on_c, 9, 47, 0
1, 435599, Note_on_c, 9, 50, 0
1, 435599, Note_on_c, 9, 36, 0
1, 435600, Note_on_c, 9, 45, 95
1, 435600, Note_on_c, 9, 47, 95
1, 435639, Note_on_c, 9, 45, 0
1, 435639, Note_on_c, 9, 47, 0
1, 435640, Note_on_c, 9, 45, 95
1, 435640, Note_on_c, 9, 47, 95
1, 435679, Note_on_c, 9, 45, 0
1, 435679, Note_on_c, 9, 47, 0
1, 435680, Note_on_c, 9, 41, 95
1, 435680, Note_on_c, 9, 45, 95
1, 435719, Note_on_c, 9, 41, 0
1, 435719, Note_on_c, 9, 45, 0
1, 435720, Note_on_c, 9, 41, 95
1, 435720, Note_on_c, 9, 45, 95
1, 435720, Note_on_c, 9, 36, 95
1, 435759, Note_on_c, 9, 41, 0
1, 435759, Note_on_c, 9, 45, 0
1, 435760, Note_on_c, 9, 41, 95
1, 435799, Note_on_c, 9, 41, 0
1, 435800, Note_on_c, 9, 41, 95
1, 435839, Note_on_c, 9, 36, 0
1, 435839, Note_on_c, 9, 41, 0
1, 435840, Note_on_c, 9, 49, 95
1, 435840, Note_on_c, 9, 36, 95
1, 435847, Note_on_c, 9, 49, 0
1, 436080, Note_on_c, 9, 51, 95
1, 436087, Note_on_c, 9, 51, 0
1, 436199, Note_on_c, 9, 36, 0
1, 436200, Note_on_c, 9, 36, 95
1, 436319, Note_on_c, 9, 36, 0
1, 436320, Note_on_c, 9, 51, 95
1, 436323, Note_on_c, 9, 51, 0
1, 436440, Note_on_c, 9, 50, 95
1, 436559, Note_on_c, 9, 50, 0
1, 436560, Note_on_c, 9, 47, 95
1, 436679, Note_on_c, 9, 47, 0
1, 436680, Note_on_c, 9, 47, 95
1, 436799, Note_on_c, 9, 47, 0
1, 436800, Note_on_c, 9, 50, 95
1, 436879, Note_on_c, 9, 50, 0
1, 436880, Note_on_c, 9, 50, 95
1, 436919, Note_on_c, 9, 50, 0
1, 436920, Note_on_c, 9, 50, 95
1, 436959, Note_on_c, 9, 50, 0
1, 436960, Note_on_c, 9, 47, 95
1, 436960, Note_on_c, 9, 50, 95
1, 436960, Note_on_c, 9, 36, 95
1, 436999, Note_on_c, 9, 47, 0
1, 436999, Note_on_c, 9, 50, 0
1, 436999, Note_on_c, 9, 36, 0
1, 437000, Note_on_c, 9, 47, 95
1, 437000, Note_on_c, 9, 50, 95
1, 437000, Note_on_c, 9, 36, 95
1, 437039, Note_on_c, 9, 47, 0
1, 437039, Note_on_c, 9, 50, 0
1, 437039, Note_on_c, 9, 36, 0
1, 437040, Note_on_c, 9, 45, 95
1, 437040, Note_on_c, 9, 47, 95
1, 437079, Note_on_c, 9, 45, 0
1, 437079, Note_on_c, 9, 47, 0
1, 437080, Note_on_c, 9, 45, 95
1, 437080, Note_on_c, 9, 47, 95
1, 437119, Note_on_c, 9, 45, 0
1, 437119, Note_on_c, 9, 47, 0
1, 437120, Note_on_c, 9, 41, 95
1, 437120, Note_on_c, 9, 45, 95
1, 437159, Note_on_c, 9, 41, 0
1, 437159, Note_on_c, 9, 45, 0
1, 437160, Note_on_c, 9, 41, 95
1, 437160, Note_on_c, 9, 45, 95
1, 437160, Note_on_c, 9, 36, 95
1, 437199, Note_on_c, 9, 41, 0
1, 437199, Note_on_c, 9, 45, 0
1, 437200, Note_on_c, 9, 41, 95
1, 437239, Note_on_c, 9, 41, 0
1, 437240, Note_on_c, 9, 41, 95
1, 437279, Note_on_c, 9, 36, 0
1, 437279, Note_on_c, 9, 41, 0
1, 437280, Note_on_c, 9, 47, 95
1, 437280, Note_on_c, 9, 49, 95
1, 437280, Note_on_c, 9, 36, 95
1, 437292, Note_on_c, 9, 49, 0
1, 437639, Note_on_c, 9, 47, 0
1, 437639, Note_on_c, 9, 36, 0
1, 437640, Note_on_c, 9, 47, 95
1, 437640, Note_on_c, 9, 49, 95
1, 437640, Note_on_c, 9, 36, 95
1, 437643, Note_on_c, 9, 49, 0
1, 437759, Note_on_c, 9, 47, 0
1, 437759, Note_on_c, 9, 36, 0
1, 437880, Note_on_c, 9, 47, 95
1, 438120, Note_on_c, 9, 36, 95
1, 438239, Note_on_c, 9, 47, 0
1, 438239, Note_on_c, 9, 36, 0
1, 438240, Note_on_c, 9, 47, 95
1, 438480, Note_on_c, 9, 36, 95
1, 438599, Note_on_c, 9, 47, 0
1, 438599, Note_on_c, 9, 36, 0
1, 438600, Note_on_c, 9, 38, 127
1, 438600, Note_on_c, 9, 47, 127
1, 438600, Note_on_c, 9, 36, 127
1, 438719, Note_on_c, 9, 38, 0
1, 438719, Note_on_c, 9, 47, 0
1, 438719, Note_on_c, 9, 36, 0
1, 438840, Note_on_c, 9, 38, 127
1, 438840, Note_on_c, 9, 47, 127
1, 438840, Note_on_c, 9, 36, 127
1, 438959, Note_on_c, 9, 38, 0
1, 438959, Note_on_c, 9, 47, 0
1, 438959, Note_on_c, 9, 36, 0
1, 438960, Note_on_c, 9, 38, 127
1, 438960, Note_on_c, 9, 47, 127
1, 438960, Note_on_c, 9, 36, 127
1, 439199, Note_on_c, 9, 38, 0
1, 439199, Note_on_c, 9, 47, 0
1, 439199, Note_on_c, 9, 36, 0
1, 439200, Note_on_c, 9, 38, 127
1, 439200, Note_on_c, 9, 47, 127
1, 439200, Note_on_c, 9, 36, 127
1, 439439, Note_on_c, 9, 38, 0
1, 439439, Note_on_c, 9, 47, 0
1, 439439, Note_on_c, 9, 36, 0
1, 439440, Note_on_c, 9, 38, 127
1, 439440, Note_on_c, 9, 47, 127
1, 439440, Note_on_c, 9, 36, 127
1, 439679, Note_on_c, 9, 38, 0
1, 439679, Note_on_c, 9, 47, 0
1, 439679, Note_on_c, 9, 36, 0
1, 439680, Note_on_c, 9, 49, 127
1, 439680, Note_on_c, 9, 52, 127
1, 439680, Note_on_c, 9, 36, 127
1, 439750, Note_on_c, 9, 49, 0
1, 439750, Note_on_c, 9, 52, 0
1, 441599, Note_on_c, 9, 36, 0
1, 441600, Tempo, 800000
1, 449280, Tempo, 923077
1, 449281, End_track
0, 0, End_of_file
