0, 0, Header, 1, 1, 480
1, 0, Start_track
1, 0, Title_t, "Drumset"
1, 0, Time_signature, 4, 2, 24, 8
1, 0, Key_signature, 0, "major"
1, 0, Tempo, 428571
1, 0, Control_c, 9, 121, 0
1, 0, Program_c, 9, 0
1, 0, Control_c, 9, 7, 100
1, 0, Control_c, 9, 10, 64
1, 0, Control_c, 9, 91, 0
1, 0, Control_c, 9, 93, 0
1, 0, MIDI_port, 0
1, 5760, Note_on_c, 9, 56, 127
1, 5760, Note_on_c, 9, 49, 125
1, 5760, Note_on_c, 9, 44, 127
1, 5760, Note_on_c, 9, 36, 127
1, 5772, Note_on_c, 9, 44, 0
1, 5785, Note_on_c, 9, 49, 0
1, 5999, Note_on_c, 9, 36, 0
1, 6000, Note_on_c, 9, 44, 106
1, 6012, Note_on_c, 9, 44, 0
1, 6239, Note_on_c, 9, 56, 0
1, 6240, Note_on_c, 9, 56, 127
1, 6240, Note_on_c, 9, 44, 127
1, 6240, Note_on_c, 9, 36, 127
1, 6252, Note_on_c, 9, 44, 0
1, 6479, Note_on_c, 9, 36, 0
1, 6480, Note_on_c, 9, 44, 84
1, 6492, Note_on_c, 9, 44, 0
1, 6719, Note_on_c, 9, 56, 0
1, 6720, Note_on_c, 9, 54, 127
1, 6720, Note_on_c, 9, 56, 127
1, 6720, Note_on_c, 9, 44, 127
1, 6720, Note_on_c, 9, 36, 127
1, 6732, Note_on_c, 9, 44, 0
1, 6959, Note_on_c, 9, 54, 0
1, 6959, Note_on_c, 9, 56, 0
1, 6959, Note_on_c, 9, 36, 0
1, 6960, Note_on_c, 9, 54, 127
1, 6960, Note_on_c, 9, 44, 82
1, 6972, Note_on_c, 9, 44, 0
1, 7199, Note_on_c, 9, 54, 0
1, 7200, Note_on_c, 9, 54, 127
1, 7200, Note_on_c, 9, 44, 127
1, 7200, Note_on_c, 9, 36, 127
1, 7212, Note_on_c, 9, 44, 0
1, 7439, Note_on_c, 9, 36, 0
1, 7440, Note_on_c, 9, 44, 95
1, 7452, Note_on_c, 9, 44, 0
1, 7679, Note_on_c, 9, 54, 0
1, 7680, Note_on_c, 9, 56, 127
1, 7680, Note_on_c, 9, 44, 126
1, 7680, Note_on_c, 9, 36, 127
1, 7692, Note_on_c, 9, 44, 0
1, 7919, Note_on_c, 9, 36, 0
1, 7920, Note_on_c, 9, 44, 101
1, 7932, Note_on_c, 9, 44, 0
1, 8159, Note_on_c, 9, 56, 0
1, 8160, Note_on_c, 9, 56, 127
1, 8160, Note_on_c, 9, 44, 126
1, 8160, Note_on_c, 9, 36, 127
1, 8172, Note_on_c, 9, 44, 0
1, 8399, Note_on_c, 9, 36, 0
1, 8400, Note_on_c, 9, 44, 96
1, 8412, Note_on_c, 9, 44, 0
1, 8639, Note_on_c, 9, 56, 0
1, 8640, Note_on_c, 9, 54, 127
1, 8640, Note_on_c, 9, 56, 127
1, 8640, Note_on_c, 9, 44, 122
1, 8640, Note_on_c, 9, 36, 127
1, 8652, Note_on_c, 9, 44, 0
1, 8879, Note_on_c, 9, 54, 0
1, 8879, Note_on_c, 9, 56, 0
1, 8879, Note_on_c, 9, 36, 0
1, 8880, Note_on_c, 9, 54, 127
1, 8880, Note_on_c, 9, 44, 94
1, 8892, Note_on_c, 9, 44, 0
1, 9119, Note_on_c, 9, 54, 0
1, 9120, Note_on_c, 9, 54, 127
1, 9120, Note_on_c, 9, 44, 127
1, 9120, Note_on_c, 9, 36, 127
1, 9132, Note_on_c, 9, 44, 0
1, 9135, Note_on_c, 9, 56, 127
1, 9359, Note_on_c, 9, 36, 0
1, 9359, Note_on_c, 9, 56, 0
1, 9360, Note_on_c, 9, 44, 102
1, 9372, Note_on_c, 9, 44, 0
1, 9599, Note_on_c, 9, 54, 0
1, 9600, Note_on_c, 9, 56, 127
1, 9600, Note_on_c, 9, 44, 127
1, 9600, Note_on_c, 9, 36, 127
1, 9612, Note_on_c, 9, 44, 0
1, 9839, Note_on_c, 9, 36, 0
1, 9840, Note_on_c, 9, 44, 96
1, 9852, Note_on_c, 9, 44, 0
1, 10079, Note_on_c, 9, 56, 0
1, 10080, Note_on_c, 9, 56, 127
1, 10080, Note_on_c, 9, 44, 127
1, 10080, Note_on_c, 9, 36, 127
1, 10092, Note_on_c, 9, 44, 0
1, 10319, Note_on_c, 9, 36, 0
1, 10320, Note_on_c, 9, 44, 95
1, 10332, Note_on_c, 9, 44, 0
1, 10559, Note_on_c, 9, 56, 0
1, 10560, Note_on_c, 9, 54, 127
1, 10560, Note_on_c, 9, 56, 127
1, 10560, Note_on_c, 9, 44, 127
1, 10560, Note_on_c, 9, 36, 127
1, 10572, Note_on_c, 9, 44, 0
1, 10799, Note_on_c, 9, 54, 0
1, 10799, Note_on_c, 9, 56, 0
1, 10799, Note_on_c, 9, 36, 0
1, 10800, Note_on_c, 9, 54, 127
1, 10800, Note_on_c, 9, 44, 96
1, 10812, Note_on_c, 9, 44, 0
1, 11039, Note_on_c, 9, 54, 0
1, 11040, Note_on_c, 9, 54, 127
1, 11040, Note_on_c, 9, 56, 127
1, 11040, Note_on_c, 9, 44, 127
1, 11040, Note_on_c, 9, 36, 127
1, 11052, Note_on_c, 9, 44, 0
1, 11279, Note_on_c, 9, 36, 0
1, 11280, Note_on_c, 9, 44, 99
1, 11292, Note_on_c, 9, 44, 0
1, 11519, Note_on_c, 9, 54, 0
1, 11519, Note_on_c, 9, 56, 0
1, 11520, Note_on_c, 9, 56, 127
1, 11520, Note_on_c, 9, 44, 127
1, 11520, Note_on_c, 9, 36, 127
1, 11532, Note_on_c, 9, 44, 0
1, 11759, Note_on_c, 9, 36, 0
1, 11760, Note_on_c, 9, 44, 95
1, 11772, Note_on_c, 9, 44, 0
1, 11999, Note_on_c, 9, 56, 0
1, 12000, Note_on_c, 9, 56, 127
1, 12000, Note_on_c, 9, 44, 127
1, 12000, Note_on_c, 9, 36, 127
1, 12012, Note_on_c, 9, 44, 0
1, 12239, Note_on_c, 9, 36, 0
1, 12240, Note_on_c, 9, 44, 99
1, 12252, Note_on_c, 9, 44, 0
1, 12479, Note_on_c, 9, 56, 0
1, 12480, Note_on_c, 9, 54, 127
1, 12480, Note_on_c, 9, 56, 127
1, 12480, Note_on_c, 9, 44, 126
1, 12480, Note_on_c, 9, 36, 127
1, 12492, Note_on_c, 9, 44, 0
1, 12719, Note_on_c, 9, 54, 0
1, 12719, Note_on_c, 9, 56, 0
1, 12719, Note_on_c, 9, 36, 0
1, 12720, Note_on_c, 9, 54, 127
1, 12720, Note_on_c, 9, 44, 97
1, 12732, Note_on_c, 9, 44, 0
1, 12959, Note_on_c, 9, 54, 0
1, 12960, Note_on_c, 9, 54, 127
1, 12960, Note_on_c, 9, 56, 127
1, 12960, Note_on_c, 9, 44, 127
1, 12960, Note_on_c, 9, 36, 127
1, 12972, Note_on_c, 9, 44, 0
1, 13199, Note_on_c, 9, 36, 0
1, 13200, Note_on_c, 9, 44, 98
1, 13212, Note_on_c, 9, 44, 0
1, 13439, Note_on_c, 9, 54, 0
1, 13439, Note_on_c, 9, 56, 0
1, 13440, Note_on_c, 9, 56, 127
1, 13440, Note_on_c, 9, 44, 127
1, 13440, Note_on_c, 9, 36, 127
1, 13452, Note_on_c, 9, 44, 0
1, 13679, Note_on_c, 9, 36, 0
1, 13680, Note_on_c, 9, 44, 92
1, 13692, Note_on_c, 9, 44, 0
1, 13919, Note_on_c, 9, 56, 0
1, 13920, Note_on_c, 9, 56, 127
1, 13920, Note_on_c, 9, 44, 127
1, 13920, Note_on_c, 9, 36, 127
1, 13932, Note_on_c, 9, 44, 0
1, 14159, Note_on_c, 9, 36, 0
1, 14160, Note_on_c, 9, 44, 97
1, 14172, Note_on_c, 9, 44, 0
1, 14399, Note_on_c, 9, 56, 0
1, 14400, Note_on_c, 9, 54, 127
1, 14400, Note_on_c, 9, 56, 127
1, 14400, Note_on_c, 9, 44, 127
1, 14400, Note_on_c, 9, 36, 127
1, 14412, Note_on_c, 9, 44, 0
1, 14639, Note_on_c, 9, 54, 0
1, 14639, Note_on_c, 9, 56, 0
1, 14639, Note_on_c, 9, 36, 0
1, 14640, Note_on_c, 9, 54, 127
1, 14640, Note_on_c, 9, 44, 106
1, 14652, Note_on_c, 9, 44, 0
1, 14879, Note_on_c, 9, 54, 0
1, 14880, Note_on_c, 9, 54, 127
1, 14880, Note_on_c, 9, 56, 127
1, 14880, Note_on_c, 9, 44, 127
1, 14880, Note_on_c, 9, 36, 127
1, 14892, Note_on_c, 9, 44, 0
1, 15119, Note_on_c, 9, 36, 0
1, 15120, Note_on_c, 9, 44, 92
1, 15132, Note_on_c, 9, 44, 0
1, 15359, Note_on_c, 9, 54, 0
1, 15359, Note_on_c, 9, 56, 0
1, 15360, Note_on_c, 9, 56, 127
1, 15360, Note_on_c, 9, 44, 127
1, 15360, Note_on_c, 9, 36, 127
1, 15372, Note_on_c, 9, 44, 0
1, 15599, Note_on_c, 9, 36, 0
1, 15600, Note_on_c, 9, 44, 97
1, 15612, Note_on_c, 9, 44, 0
1, 15839, Note_on_c, 9, 56, 0
1, 15840, Note_on_c, 9, 56, 127
1, 15840, Note_on_c, 9, 44, 127
1, 15840, Note_on_c, 9, 36, 127
1, 15852, Note_on_c, 9, 44, 0
1, 16079, Note_on_c, 9, 36, 0
1, 16080, Note_on_c, 9, 44, 97
1, 16092, Note_on_c, 9, 44, 0
1, 16319, Note_on_c, 9, 56, 0
1, 16320, Note_on_c, 9, 54, 127
1, 16320, Note_on_c, 9, 56, 127
1, 16320, Note_on_c, 9, 44, 127
1, 16320, Note_on_c, 9, 36, 127
1, 16332, Note_on_c, 9, 44, 0
1, 16559, Note_on_c, 9, 54, 0
1, 16559, Note_on_c, 9, 56, 0
1, 16559, Note_on_c, 9, 36, 0
1, 16560, Note_on_c, 9, 54, 127
1, 16560, Note_on_c, 9, 44, 103
1, 16572, Note_on_c, 9, 44, 0
1, 16799, Note_on_c, 9, 54, 0
1, 16800, Note_on_c, 9, 54, 127
1, 16800, Note_on_c, 9, 56, 127
1, 16800, Note_on_c, 9, 44, 127
1, 16800, Note_on_c, 9, 36, 127
1, 16812, Note_on_c, 9, 44, 0
1, 17039, Note_on_c, 9, 36, 0
1, 17040, Note_on_c, 9, 44, 99
1, 17052, Note_on_c, 9, 44, 0
1, 17279, Note_on_c, 9, 54, 0
1, 17279, Note_on_c, 9, 56, 0
1, 17280, Note_on_c, 9, 56, 127
1, 17280, Note_on_c, 9, 49, 125
1, 17280, Note_on_c, 9, 44, 127
1, 17280, Note_on_c, 9, 36, 127
1, 17292, Note_on_c, 9, 44, 0
1, 17305, Note_on_c, 9, 49, 0
1, 17519, Note_on_c, 9, 36, 0
1, 17520, Note_on_c, 9, 44, 98
1, 17532, Note_on_c, 9, 44, 0
1, 17759, Note_on_c, 9, 56, 0
1, 17760, Note_on_c, 9, 56, 127
1, 17760, Note_on_c, 9, 44, 127
1, 17760, Note_on_c, 9, 36, 127
1, 17772, Note_on_c, 9, 44, 0
1, 17999, Note_on_c, 9, 36, 0
1, 18000, Note_on_c, 9, 44, 97
1, 18012, Note_on_c, 9, 44, 0
1, 18239, Note_on_c, 9, 56, 0
1, 18240, Note_on_c, 9, 54, 127
1, 18240, Note_on_c, 9, 56, 127
1, 18240, Note_on_c, 9, 44, 127
1, 18240, Note_on_c, 9, 36, 127
1, 18252, Note_on_c, 9, 44, 0
1, 18479, Note_on_c, 9, 54, 0
1, 18479, Note_on_c, 9, 56, 0
1, 18479, Note_on_c, 9, 36, 0
1, 18480, Note_on_c, 9, 54, 127
1, 18480, Note_on_c, 9, 44, 101
1, 18492, Note_on_c, 9, 44, 0
1, 18719, Note_on_c, 9, 54, 0
1, 18720, Note_on_c, 9, 54, 127
1, 18720, Note_on_c, 9, 56, 127
1, 18720, Note_on_c, 9, 44, 127
1, 18720, Note_on_c, 9, 36, 127
1, 18732, Note_on_c, 9, 44, 0
1, 18959, Note_on_c, 9, 36, 0
1, 18960, Note_on_c, 9, 44, 104
1, 18972, Note_on_c, 9, 44, 0
1, 19199, Note_on_c, 9, 54, 0
1, 19199, Note_on_c, 9, 56, 0
1, 19200, Note_on_c, 9, 56, 127
1, 19200, Note_on_c, 9, 44, 127
1, 19200, Note_on_c, 9, 36, 127
1, 19212, Note_on_c, 9, 44, 0
1, 19439, Note_on_c, 9, 36, 0
1, 19440, Note_on_c, 9, 44, 99
1, 19452, Note_on_c, 9, 44, 0
1, 19679, Note_on_c, 9, 56, 0
1, 19680, Note_on_c, 9, 56, 127
1, 19680, Note_on_c, 9, 44, 127
1, 19680, Note_on_c, 9, 36, 127
1, 19692, Note_on_c, 9, 44, 0
1, 19919, Note_on_c, 9, 36, 0
1, 19920, Note_on_c, 9, 44, 103
1, 19932, Note_on_c, 9, 44, 0
1, 20159, Note_on_c, 9, 56, 0
1, 20160, Note_on_c, 9, 54, 127
1, 20160, Note_on_c, 9, 56, 127
1, 20160, Note_on_c, 9, 44, 127
1, 20160, Note_on_c, 9, 36, 127
1, 20172, Note_on_c, 9, 44, 0
1, 20399, Note_on_c, 9, 54, 0
1, 20399, Note_on_c, 9, 56, 0
1, 20399, Note_on_c, 9, 36, 0
1, 20400, Note_on_c, 9, 54, 127
1, 20400, Note_on_c, 9, 44, 107
1, 20412, Note_on_c, 9, 44, 0
1, 20639, Note_on_c, 9, 54, 0
1, 20640, Note_on_c, 9, 54, 127
1, 20640, Note_on_c, 9, 56, 127
1, 20640, Note_on_c, 9, 44, 127
1, 20640, Note_on_c, 9, 36, 127
1, 20652, Note_on_c, 9, 44, 0
1, 20879, Note_on_c, 9, 36, 0
1, 20880, Note_on_c, 9, 44, 111
1, 20892, Note_on_c, 9, 44, 0
1, 21119, Note_on_c, 9, 54, 0
1, 21119, Note_on_c, 9, 56, 0
1, 21120, Note_on_c, 9, 56, 127
1, 21120, Note_on_c, 9, 44, 127
1, 21120, Note_on_c, 9, 36, 127
1, 21132, Note_on_c, 9, 44, 0
1, 21359, Note_on_c, 9, 36, 0
1, 21360, Note_on_c, 9, 44, 105
1, 21372, Note_on_c, 9, 44, 0
1, 21599, Note_on_c, 9, 56, 0
1, 21600, Note_on_c, 9, 56, 127
1, 21600, Note_on_c, 9, 44, 127
1, 21600, Note_on_c, 9, 36, 127
1, 21612, Note_on_c, 9, 44, 0
1, 21839, Note_on_c, 9, 36, 0
1, 21840, Note_on_c, 9, 44, 105
1, 21852, Note_on_c, 9, 44, 0
1, 22079, Note_on_c, 9, 56, 0
1, 22080, Note_on_c, 9, 54, 127
1, 22080, Note_on_c, 9, 56, 127
1, 22080, Note_on_c, 9, 44, 127
1, 22080, Note_on_c, 9, 36, 127
1, 22092, Note_on_c, 9, 44, 0
1, 22319, Note_on_c, 9, 54, 0
1, 22319, Note_on_c, 9, 56, 0
1, 22319, Note_on_c, 9, 36, 0
1, 22320, Note_on_c, 9, 54, 127
1, 22320, Note_on_c, 9, 44, 106
1, 22332, Note_on_c, 9, 44, 0
1, 22559, Note_on_c, 9, 54, 0
1, 22560, Note_on_c, 9, 54, 127
1, 22560, Note_on_c, 9, 44, 126
1, 22560, Note_on_c, 9, 36, 127
1, 22572, Note_on_c, 9, 44, 0
1, 22575, Note_on_c, 9, 56, 127
1, 22799, Note_on_c, 9, 36, 0
1, 22799, Note_on_c, 9, 56, 0
1, 22800, Note_on_c, 9, 44, 100
1, 22812, Note_on_c, 9, 44, 0
1, 23039, Note_on_c, 9, 54, 0
1, 23040, Note_on_c, 9, 56, 127
1, 23040, Note_on_c, 9, 44, 127
1, 23040, Note_on_c, 9, 36, 127
1, 23052, Note_on_c, 9, 44, 0
1, 23279, Note_on_c, 9, 36, 0
1, 23280, Note_on_c, 9, 44, 99
1, 23292, Note_on_c, 9, 44, 0
1, 23519, Note_on_c, 9, 56, 0
1, 23520, Note_on_c, 9, 56, 127
1, 23520, Note_on_c, 9, 44, 122
1, 23520, Note_on_c, 9, 36, 127
1, 23532, Note_on_c, 9, 44, 0
1, 23759, Note_on_c, 9, 36, 0
1, 23760, Note_on_c, 9, 44, 98
1, 23772, Note_on_c, 9, 44, 0
1, 23999, Note_on_c, 9, 56, 0
1, 24000, Note_on_c, 9, 54, 127
1, 24000, Note_on_c, 9, 44, 127
1, 24000, Note_on_c, 9, 36, 127
1, 24012, Note_on_c, 9, 44, 0
1, 24015, Note_on_c, 9, 56, 127
1, 24239, Note_on_c, 9, 54, 0
1, 24239, Note_on_c, 9, 36, 0
1, 24239, Note_on_c, 9, 56, 0
1, 24240, Note_on_c, 9, 54, 127
1, 24240, Note_on_c, 9, 44, 99
1, 24252, Note_on_c, 9, 44, 0
1, 24479, Note_on_c, 9, 54, 0
1, 24480, Note_on_c, 9, 54, 127
1, 24480, Note_on_c, 9, 56, 127
1, 24480, Note_on_c, 9, 44, 127
1, 24480, Note_on_c, 9, 36, 127
1, 24492, Note_on_c, 9, 44, 0
1, 24719, Note_on_c, 9, 36, 0
1, 24720, Note_on_c, 9, 44, 94
1, 24732, Note_on_c, 9, 44, 0
1, 24959, Note_on_c, 9, 54, 0
1, 24959, Note_on_c, 9, 56, 0
1, 24960, Note_on_c, 9, 56, 127
1, 24960, Note_on_c, 9, 44, 127
1, 24960, Note_on_c, 9, 36, 127
1, 24972, Note_on_c, 9, 44, 0
1, 25199, Note_on_c, 9, 36, 0
1, 25200, Note_on_c, 9, 44, 93
1, 25212, Note_on_c, 9, 44, 0
1, 25439, Note_on_c, 9, 56, 0
1, 25440, Note_on_c, 9, 56, 127
1, 25440, Note_on_c, 9, 44, 127
1, 25440, Note_on_c, 9, 36, 127
1, 25452, Note_on_c, 9, 44, 0
1, 25679, Note_on_c, 9, 36, 0
1, 25680, Note_on_c, 9, 44, 96
1, 25692, Note_on_c, 9, 44, 0
1, 25919, Note_on_c, 9, 56, 0
1, 25920, Note_on_c, 9, 54, 127
1, 25920, Note_on_c, 9, 56, 127
1, 25920, Note_on_c, 9, 44, 127
1, 25920, Note_on_c, 9, 36, 127
1, 25932, Note_on_c, 9, 44, 0
1, 26159, Note_on_c, 9, 54, 0
1, 26159, Note_on_c, 9, 56, 0
1, 26159, Note_on_c, 9, 36, 0
1, 26160, Note_on_c, 9, 54, 127
1, 26160, Note_on_c, 9, 44, 93
1, 26172, Note_on_c, 9, 44, 0
1, 26399, Note_on_c, 9, 54, 0
1, 26400, Note_on_c, 9, 54, 127
1, 26400, Note_on_c, 9, 56, 127
1, 26400, Note_on_c, 9, 44, 127
1, 26400, Note_on_c, 9, 36, 127
1, 26412, Note_on_c, 9, 44, 0
1, 26639, Note_on_c, 9, 36, 0
1, 26640, Note_on_c, 9, 44, 91
1, 26652, Note_on_c, 9, 44, 0
1, 26879, Note_on_c, 9, 54, 0
1, 26879, Note_on_c, 9, 56, 0
1, 26880, Note_on_c, 9, 56, 127
1, 26880, Note_on_c, 9, 44, 127
1, 26880, Note_on_c, 9, 36, 127
1, 26892, Note_on_c, 9, 44, 0
1, 27119, Note_on_c, 9, 36, 0
1, 27120, Note_on_c, 9, 44, 90
1, 27132, Note_on_c, 9, 44, 0
1, 27359, Note_on_c, 9, 56, 0
1, 27360, Note_on_c, 9, 56, 127
1, 27360, Note_on_c, 9, 44, 127
1, 27360, Note_on_c, 9, 36, 127
1, 27372, Note_on_c, 9, 44, 0
1, 27599, Note_on_c, 9, 36, 0
1, 27600, Note_on_c, 9, 44, 88
1, 27612, Note_on_c, 9, 44, 0
1, 27839, Note_on_c, 9, 56, 0
1, 27840, Note_on_c, 9, 54, 127
1, 27840, Note_on_c, 9, 44, 127
1, 27840, Note_on_c, 9, 36, 127
1, 27852, Note_on_c, 9, 44, 0
1, 27855, Note_on_c, 9, 56, 127
1, 28079, Note_on_c, 9, 54, 0
1, 28079, Note_on_c, 9, 36, 0
1, 28079, Note_on_c, 9, 56, 0
1, 28080, Note_on_c, 9, 54, 127
1, 28080, Note_on_c, 9, 44, 93
1, 28092, Note_on_c, 9, 44, 0
1, 28319, Note_on_c, 9, 54, 0
1, 28320, Note_on_c, 9, 56, 127
1, 28320, Note_on_c, 9, 44, 127
1, 28320, Note_on_c, 9, 36, 127
1, 28332, Note_on_c, 9, 44, 0
1, 28559, Note_on_c, 9, 36, 0
1, 28560, Note_on_c, 9, 44, 91
1, 28572, Note_on_c, 9, 44, 0
1, 28799, Note_on_c, 9, 56, 0
1, 28800, Note_on_c, 9, 56, 127
1, 28800, Note_on_c, 9, 44, 127
1, 28800, Note_on_c, 9, 36, 127
1, 28812, Note_on_c, 9, 44, 0
1, 29039, Note_on_c, 9, 36, 0
1, 29040, Note_on_c, 9, 44, 96
1, 29052, Note_on_c, 9, 44, 0
1, 29279, Note_on_c, 9, 56, 0
1, 29280, Note_on_c, 9, 56, 127
1, 29280, Note_on_c, 9, 44, 126
1, 29280, Note_on_c, 9, 36, 127
1, 29292, Note_on_c, 9, 44, 0
1, 29519, Note_on_c, 9, 36, 0
1, 29520, Note_on_c, 9, 44, 86
1, 29532, Note_on_c, 9, 44, 0
1, 29759, Note_on_c, 9, 56, 0
1, 29760, Note_on_c, 9, 54, 127
1, 29760, Note_on_c, 9, 44, 127
1, 29760, Note_on_c, 9, 36, 127
1, 29772, Note_on_c, 9, 44, 0
1, 29775, Note_on_c, 9, 56, 127
1, 29999, Note_on_c, 9, 54, 0
1, 29999, Note_on_c, 9, 36, 0
1, 29999, Note_on_c, 9, 56, 0
1, 30000, Note_on_c, 9, 54, 127
1, 30000, Note_on_c, 9, 44, 95
1, 30012, Note_on_c, 9, 44, 0
1, 30239, Note_on_c, 9, 54, 0
1, 30240, Note_on_c, 9, 54, 127
1, 30240, Note_on_c, 9, 56, 127
1, 30240, Note_on_c, 9, 44, 127
1, 30240, Note_on_c, 9, 36, 127
1, 30252, Note_on_c, 9, 44, 0
1, 30479, Note_on_c, 9, 36, 0
1, 30480, Note_on_c, 9, 44, 100
1, 30492, Note_on_c, 9, 44, 0
1, 30719, Note_on_c, 9, 54, 0
1, 30719, Note_on_c, 9, 56, 0
1, 30720, Note_on_c, 9, 56, 127
1, 30720, Note_on_c, 9, 44, 127
1, 30720, Note_on_c, 9, 36, 127
1, 30732, Note_on_c, 9, 44, 0
1, 30959, Note_on_c, 9, 36, 0
1, 30960, Note_on_c, 9, 44, 87
1, 30972, Note_on_c, 9, 44, 0
1, 31199, Note_on_c, 9, 56, 0
1, 31200, Note_on_c, 9, 56, 127
1, 31200, Note_on_c, 9, 44, 126
1, 31200, Note_on_c, 9, 36, 127
1, 31212, Note_on_c, 9, 44, 0
1, 31439, Note_on_c, 9, 36, 0
1, 31440, Note_on_c, 9, 44, 91
1, 31452, Note_on_c, 9, 44, 0
1, 31679, Note_on_c, 9, 56, 0
1, 31680, Note_on_c, 9, 54, 127
1, 31680, Note_on_c, 9, 44, 127
1, 31680, Note_on_c, 9, 36, 127
1, 31692, Note_on_c, 9, 44, 0
1, 31695, Note_on_c, 9, 56, 127
1, 31919, Note_on_c, 9, 54, 0
1, 31919, Note_on_c, 9, 36, 0
1, 31919, Note_on_c, 9, 56, 0
1, 31920, Note_on_c, 9, 54, 127
1, 31920, Note_on_c, 9, 44, 89
1, 31932, Note_on_c, 9, 44, 0
1, 32159, Note_on_c, 9, 54, 0
1, 32160, Note_on_c, 9, 54, 127
1, 32160, Note_on_c, 9, 56, 127
1, 32160, Note_on_c, 9, 44, 126
1, 32160, Note_on_c, 9, 36, 127
1, 32172, Note_on_c, 9, 44, 0
1, 32399, Note_on_c, 9, 36, 0
1, 32400, Note_on_c, 9, 44, 99
1, 32412, Note_on_c, 9, 44, 0
1, 32639, Note_on_c, 9, 54, 0
1, 32639, Note_on_c, 9, 56, 0
1, 32640, Note_on_c, 9, 56, 127
1, 32640, Note_on_c, 9, 44, 127
1, 32640, Note_on_c, 9, 36, 127
1, 32652, Note_on_c, 9, 44, 0
1, 32879, Note_on_c, 9, 36, 0
1, 32880, Note_on_c, 9, 44, 85
1, 32892, Note_on_c, 9, 44, 0
1, 33119, Note_on_c, 9, 56, 0
1, 33120, Note_on_c, 9, 56, 127
1, 33120, Note_on_c, 9, 44, 124
1, 33120, Note_on_c, 9, 36, 127
1, 33132, Note_on_c, 9, 44, 0
1, 33359, Note_on_c, 9, 36, 0
1, 33360, Note_on_c, 9, 44, 94
1, 33372, Note_on_c, 9, 44, 0
1, 33599, Note_on_c, 9, 56, 0
1, 33600, Note_on_c, 9, 54, 127
1, 33600, Note_on_c, 9, 56, 127
1, 33600, Note_on_c, 9, 44, 124
1, 33600, Note_on_c, 9, 36, 127
1, 33612, Note_on_c, 9, 44, 0
1, 33839, Note_on_c, 9, 54, 0
1, 33839, Note_on_c, 9, 56, 0
1, 33839, Note_on_c, 9, 36, 0
1, 33840, Note_on_c, 9, 54, 127
1, 33840, Note_on_c, 9, 44, 94
1, 33852, Note_on_c, 9, 44, 0
1, 34079, Note_on_c, 9, 54, 0
1, 34080, Note_on_c, 9, 54, 127
1, 34080, Note_on_c, 9, 56, 127
1, 34080, Note_on_c, 9, 44, 127
1, 34080, Note_on_c, 9, 36, 127
1, 34092, Note_on_c, 9, 44, 0
1, 34319, Note_on_c, 9, 36, 0
1, 34320, Note_on_c, 9, 44, 90
1, 34332, Note_on_c, 9, 44, 0
1, 34559, Note_on_c, 9, 54, 0
1, 34559, Note_on_c, 9, 56, 0
1, 34560, Note_on_c, 9, 56, 127
1, 34560, Note_on_c, 9, 44, 126
1, 34560, Note_on_c, 9, 36, 127
1, 34572, Note_on_c, 9, 44, 0
1, 34799, Note_on_c, 9, 36, 0
1, 34800, Note_on_c, 9, 44, 96
1, 34812, Note_on_c, 9, 44, 0
1, 35039, Note_on_c, 9, 56, 0
1, 35040, Note_on_c, 9, 56, 127
1, 35040, Note_on_c, 9, 44, 126
1, 35040, Note_on_c, 9, 36, 127
1, 35052, Note_on_c, 9, 44, 0
1, 35279, Note_on_c, 9, 36, 0
1, 35280, Note_on_c, 9, 44, 99
1, 35292, Note_on_c, 9, 44, 0
1, 35519, Note_on_c, 9, 56, 0
1, 35520, Note_on_c, 9, 54, 127
1, 35520, Note_on_c, 9, 56, 127
1, 35520, Note_on_c, 9, 44, 124
1, 35520, Note_on_c, 9, 36, 127
1, 35532, Note_on_c, 9, 44, 0
1, 35759, Note_on_c, 9, 54, 0
1, 35759, Note_on_c, 9, 56, 0
1, 35759, Note_on_c, 9, 36, 0
1, 35760, Note_on_c, 9, 54, 127
1, 35760, Note_on_c, 9, 44, 90
1, 35772, Note_on_c, 9, 44, 0
1, 35999, Note_on_c, 9, 54, 0
1, 36000, Note_on_c, 9, 54, 127
1, 36000, Note_on_c, 9, 44, 127
1, 36000, Note_on_c, 9, 36, 127
1, 36012, Note_on_c, 9, 44, 0
1, 36015, Note_on_c, 9, 56, 127
1, 36239, Note_on_c, 9, 36, 0
1, 36239, Note_on_c, 9, 56, 0
1, 36240, Note_on_c, 9, 44, 95
1, 36252, Note_on_c, 9, 44, 0
1, 36479, Note_on_c, 9, 54, 0
1, 36480, Note_on_c, 9, 56, 127
1, 36480, Note_on_c, 9, 44, 127
1, 36480, Note_on_c, 9, 36, 127
1, 36492, Note_on_c, 9, 44, 0
1, 36719, Note_on_c, 9, 36, 0
1, 36720, Note_on_c, 9, 44, 100
1, 36732, Note_on_c, 9, 44, 0
1, 36959, Note_on_c, 9, 56, 0
1, 36960, Note_on_c, 9, 56, 127
1, 36960, Note_on_c, 9, 44, 127
1, 36960, Note_on_c, 9, 36, 127
1, 36972, Note_on_c, 9, 44, 0
1, 37199, Note_on_c, 9, 36, 0
1, 37200, Note_on_c, 9, 44, 99
1, 37212, Note_on_c, 9, 44, 0
1, 37439, Note_on_c, 9, 56, 0
1, 37440, Note_on_c, 9, 54, 127
1, 37440, Note_on_c, 9, 44, 127
1, 37440, Note_on_c, 9, 36, 127
1, 37452, Note_on_c, 9, 44, 0
1, 37455, Note_on_c, 9, 56, 127
1, 37679, Note_on_c, 9, 54, 0
1, 37679, Note_on_c, 9, 36, 0
1, 37679, Note_on_c, 9, 56, 0
1, 37680, Note_on_c, 9, 54, 127
1, 37680, Note_on_c, 9, 44, 95
1, 37692, Note_on_c, 9, 44, 0
1, 37919, Note_on_c, 9, 54, 0
1, 37920, Note_on_c, 9, 54, 127
1, 37920, Note_on_c, 9, 44, 126
1, 37920, Note_on_c, 9, 36, 127
1, 37932, Note_on_c, 9, 44, 0
1, 37935, Note_on_c, 9, 56, 127
1, 38159, Note_on_c, 9, 36, 0
1, 38159, Note_on_c, 9, 56, 0
1, 38160, Note_on_c, 9, 44, 101
1, 38172, Note_on_c, 9, 44, 0
1, 38399, Note_on_c, 9, 54, 0
1, 38400, Note_on_c, 9, 56, 127
1, 38400, Note_on_c, 9, 44, 127
1, 38400, Note_on_c, 9, 36, 127
1, 38412, Note_on_c, 9, 44, 0
1, 38639, Note_on_c, 9, 36, 0
1, 38640, Note_on_c, 9, 44, 102
1, 38652, Note_on_c, 9, 44, 0
1, 38879, Note_on_c, 9, 56, 0
1, 38880, Note_on_c, 9, 56, 127
1, 38880, Note_on_c, 9, 44, 127
1, 38880, Note_on_c, 9, 36, 127
1, 38892, Note_on_c, 9, 44, 0
1, 39119, Note_on_c, 9, 36, 0
1, 39120, Note_on_c, 9, 44, 94
1, 39132, Note_on_c, 9, 44, 0
1, 39359, Note_on_c, 9, 56, 0
1, 39360, Note_on_c, 9, 54, 127
1, 39360, Note_on_c, 9, 56, 127
1, 39360, Note_on_c, 9, 44, 127
1, 39360, Note_on_c, 9, 36, 127
1, 39372, Note_on_c, 9, 44, 0
1, 39599, Note_on_c, 9, 54, 0
1, 39599, Note_on_c, 9, 56, 0
1, 39599, Note_on_c, 9, 36, 0
1, 39600, Note_on_c, 9, 54, 127
1, 39600, Note_on_c, 9, 44, 94
1, 39612, Note_on_c, 9, 44, 0
1, 39839, Note_on_c, 9, 54, 0
1, 39840, Note_on_c, 9, 54, 127
1, 39840, Note_on_c, 9, 44, 127
1, 39840, Note_on_c, 9, 36, 127
1, 39852, Note_on_c, 9, 44, 0
1, 39855, Note_on_c, 9, 56, 127
1, 40079, Note_on_c, 9, 36, 0
1, 40079, Note_on_c, 9, 56, 0
1, 40080, Note_on_c, 9, 44, 99
1, 40092, Note_on_c, 9, 44, 0
1, 40319, Note_on_c, 9, 54, 0
1, 40320, Note_on_c, 9, 56, 127
1, 40320, Note_on_c, 9, 49, 125
1, 40320, Note_on_c, 9, 44, 127
1, 40320, Note_on_c, 9, 36, 127
1, 40332, Note_on_c, 9, 44, 0
1, 40345, Note_on_c, 9, 49, 0
1, 40559, Note_on_c, 9, 36, 0
1, 40560, Note_on_c, 9, 44, 99
1, 40572, Note_on_c, 9, 44, 0
1, 40799, Note_on_c, 9, 56, 0
1, 40800, Note_on_c, 9, 56, 127
1, 40800, Note_on_c, 9, 44, 127
1, 40800, Note_on_c, 9, 36, 127
1, 40812, Note_on_c, 9, 44, 0
1, 41039, Note_on_c, 9, 36, 0
1, 41040, Note_on_c, 9, 44, 99
1, 41052, Note_on_c, 9, 44, 0
1, 41279, Note_on_c, 9, 56, 0
1, 41280, Note_on_c, 9, 54, 127
1, 41280, Note_on_c, 9, 56, 127
1, 41280, Note_on_c, 9, 44, 127
1, 41280, Note_on_c, 9, 36, 127
1, 41292, Note_on_c, 9, 44, 0
1, 41519, Note_on_c, 9, 54, 0
1, 41519, Note_on_c, 9, 56, 0
1, 41519, Note_on_c, 9, 36, 0
1, 41520, Note_on_c, 9, 54, 127
1, 41520, Note_on_c, 9, 44, 99
1, 41532, Note_on_c, 9, 44, 0
1, 41759, Note_on_c, 9, 54, 0
1, 41760, Note_on_c, 9, 54, 127
1, 41760, Note_on_c, 9, 56, 127
1, 41760, Note_on_c, 9, 44, 127
1, 41760, Note_on_c, 9, 36, 127
1, 41772, Note_on_c, 9, 44, 0
1, 41999, Note_on_c, 9, 36, 0
1, 42000, Note_on_c, 9, 44, 105
1, 42012, Note_on_c, 9, 44, 0
1, 42239, Note_on_c, 9, 54, 0
1, 42239, Note_on_c, 9, 56, 0
1, 42240, Note_on_c, 9, 56, 127
1, 42240, Note_on_c, 9, 44, 126
1, 42240, Note_on_c, 9, 36, 127
1, 42252, Note_on_c, 9, 44, 0
1, 42479, Note_on_c, 9, 36, 0
1, 42480, Note_on_c, 9, 44, 104
1, 42492, Note_on_c, 9, 44, 0
1, 42719, Note_on_c, 9, 56, 0
1, 42720, Note_on_c, 9, 56, 127
1, 42720, Note_on_c, 9, 44, 124
1, 42720, Note_on_c, 9, 36, 127
1, 42732, Note_on_c, 9, 44, 0
1, 42959, Note_on_c, 9, 36, 0
1, 42960, Note_on_c, 9, 44, 105
1, 42972, Note_on_c, 9, 44, 0
1, 43199, Note_on_c, 9, 56, 0
1, 43200, Note_on_c, 9, 54, 127
1, 43200, Note_on_c, 9, 56, 127
1, 43200, Note_on_c, 9, 44, 122
1, 43200, Note_on_c, 9, 36, 127
1, 43212, Note_on_c, 9, 44, 0
1, 43439, Note_on_c, 9, 54, 0
1, 43439, Note_on_c, 9, 56, 0
1, 43439, Note_on_c, 9, 36, 0
1, 43440, Note_on_c, 9, 54, 127
1, 43440, Note_on_c, 9, 44, 99
1, 43452, Note_on_c, 9, 44, 0
1, 43679, Note_on_c, 9, 54, 0
1, 43680, Note_on_c, 9, 54, 127
1, 43680, Note_on_c, 9, 44, 126
1, 43680, Note_on_c, 9, 36, 127
1, 43692, Note_on_c, 9, 44, 0
1, 43695, Note_on_c, 9, 56, 127
1, 43919, Note_on_c, 9, 36, 0
1, 43919, Note_on_c, 9, 56, 0
1, 43920, Note_on_c, 9, 44, 107
1, 43932, Note_on_c, 9, 44, 0
1, 44159, Note_on_c, 9, 54, 0
1, 44160, Note_on_c, 9, 56, 127
1, 44160, Note_on_c, 9, 44, 127
1, 44160, Note_on_c, 9, 36, 127
1, 44172, Note_on_c, 9, 44, 0
1, 44399, Note_on_c, 9, 36, 0
1, 44400, Note_on_c, 9, 44, 105
1, 44412, Note_on_c, 9, 44, 0
1, 44639, Note_on_c, 9, 56, 0
1, 44640, Note_on_c, 9, 56, 127
1, 44640, Note_on_c, 9, 44, 127
1, 44640, Note_on_c, 9, 36, 127
1, 44652, Note_on_c, 9, 44, 0
1, 44879, Note_on_c, 9, 36, 0
1, 44880, Note_on_c, 9, 44, 101
1, 44892, Note_on_c, 9, 44, 0
1, 45119, Note_on_c, 9, 56, 0
1, 45120, Note_on_c, 9, 54, 127
1, 45120, Note_on_c, 9, 56, 127
1, 45120, Note_on_c, 9, 44, 127
1, 45120, Note_on_c, 9, 36, 127
1, 45132, Note_on_c, 9, 44, 0
1, 45359, Note_on_c, 9, 54, 0
1, 45359, Note_on_c, 9, 56, 0
1, 45359, Note_on_c, 9, 36, 0
1, 45360, Note_on_c, 9, 54, 127
1, 45360, Note_on_c, 9, 44, 110
1, 45372, Note_on_c, 9, 44, 0
1, 45599, Note_on_c, 9, 54, 0
1, 45600, Note_on_c, 9, 54, 127
1, 45600, Note_on_c, 9, 56, 127
1, 45600, Note_on_c, 9, 44, 126
1, 45600, Note_on_c, 9, 36, 127
1, 45612, Note_on_c, 9, 44, 0
1, 45839, Note_on_c, 9, 36, 0
1, 45840, Note_on_c, 9, 44, 108
1, 45852, Note_on_c, 9, 44, 0
1, 46079, Note_on_c, 9, 54, 0
1, 46079, Note_on_c, 9, 56, 0
1, 46080, Note_on_c, 9, 56, 127
1, 46080, Note_on_c, 9, 44, 124
1, 46080, Note_on_c, 9, 36, 127
1, 46092, Note_on_c, 9, 44, 0
1, 46319, Note_on_c, 9, 36, 0
1, 46320, Note_on_c, 9, 44, 105
1, 46332, Note_on_c, 9, 44, 0
1, 46559, Note_on_c, 9, 56, 0
1, 46560, Note_on_c, 9, 56, 127
1, 46560, Note_on_c, 9, 44, 126
1, 46560, Note_on_c, 9, 36, 127
1, 46572, Note_on_c, 9, 44, 0
1, 46799, Note_on_c, 9, 36, 0
1, 46800, Note_on_c, 9, 44, 107
1, 46812, Note_on_c, 9, 44, 0
1, 47039, Note_on_c, 9, 56, 0
1, 47040, Note_on_c, 9, 54, 127
1, 47040, Note_on_c, 9, 56, 127
1, 47040, Note_on_c, 9, 44, 120
1, 47040, Note_on_c, 9, 36, 127
1, 47052, Note_on_c, 9, 44, 0
1, 47279, Note_on_c, 9, 54, 0
1, 47279, Note_on_c, 9, 56, 0
1, 47279, Note_on_c, 9, 36, 0
1, 47280, Note_on_c, 9, 54, 127
1, 47280, Note_on_c, 9, 44, 108
1, 47292, Note_on_c, 9, 44, 0
1, 47519, Note_on_c, 9, 54, 0
1, 47520, Note_on_c, 9, 54, 127
1, 47520, Note_on_c, 9, 56, 127
1, 47520, Note_on_c, 9, 44, 120
1, 47520, Note_on_c, 9, 36, 127
1, 47532, Note_on_c, 9, 44, 0
1, 47759, Note_on_c, 9, 36, 0
1, 47760, Note_on_c, 9, 44, 108
1, 47772, Note_on_c, 9, 44, 0
1, 47999, Note_on_c, 9, 54, 0
1, 47999, Note_on_c, 9, 56, 0
1, 48000, Note_on_c, 9, 56, 127
1, 48000, Note_on_c, 9, 44, 122
1, 48000, Note_on_c, 9, 36, 127
1, 48012, Note_on_c, 9, 44, 0
1, 48239, Note_on_c, 9, 36, 0
1, 48240, Note_on_c, 9, 44, 103
1, 48252, Note_on_c, 9, 44, 0
1, 48479, Note_on_c, 9, 56, 0
1, 48480, Note_on_c, 9, 56, 127
1, 48480, Note_on_c, 9, 44, 127
1, 48480, Note_on_c, 9, 36, 127
1, 48492, Note_on_c, 9, 44, 0
1, 48719, Note_on_c, 9, 36, 0
1, 48720, Note_on_c, 9, 44, 99
1, 48732, Note_on_c, 9, 44, 0
1, 48959, Note_on_c, 9, 56, 0
1, 48960, Note_on_c, 9, 54, 127
1, 48960, Note_on_c, 9, 56, 127
1, 48960, Note_on_c, 9, 44, 124
1, 48960, Note_on_c, 9, 36, 127
1, 48972, Note_on_c, 9, 44, 0
1, 49199, Note_on_c, 9, 54, 0
1, 49199, Note_on_c, 9, 56, 0
1, 49199, Note_on_c, 9, 36, 0
1, 49200, Note_on_c, 9, 54, 127
1, 49200, Note_on_c, 9, 44, 98
1, 49212, Note_on_c, 9, 44, 0
1, 49439, Note_on_c, 9, 54, 0
1, 49440, Note_on_c, 9, 54, 127
1, 49440, Note_on_c, 9, 56, 127
1, 49440, Note_on_c, 9, 44, 127
1, 49440, Note_on_c, 9, 36, 127
1, 49452, Note_on_c, 9, 44, 0
1, 49679, Note_on_c, 9, 36, 0
1, 49680, Note_on_c, 9, 44, 97
1, 49692, Note_on_c, 9, 44, 0
1, 49919, Note_on_c, 9, 54, 0
1, 49919, Note_on_c, 9, 56, 0
1, 49920, Note_on_c, 9, 56, 127
1, 49920, Note_on_c, 9, 44, 127
1, 49920, Note_on_c, 9, 36, 127
1, 49932, Note_on_c, 9, 44, 0
1, 50159, Note_on_c, 9, 36, 0
1, 50160, Note_on_c, 9, 44, 105
1, 50172, Note_on_c, 9, 44, 0
1, 50399, Note_on_c, 9, 56, 0
1, 50400, Note_on_c, 9, 56, 127
1, 50400, Note_on_c, 9, 44, 122
1, 50400, Note_on_c, 9, 36, 127
1, 50412, Note_on_c, 9, 44, 0
1, 50639, Note_on_c, 9, 36, 0
1, 50640, Note_on_c, 9, 44, 110
1, 50652, Note_on_c, 9, 44, 0
1, 50879, Note_on_c, 9, 56, 0
1, 50880, Note_on_c, 9, 54, 127
1, 50880, Note_on_c, 9, 56, 127
1, 50880, Note_on_c, 9, 44, 127
1, 50880, Note_on_c, 9, 36, 127
1, 50892, Note_on_c, 9, 44, 0
1, 51119, Note_on_c, 9, 54, 0
1, 51119, Note_on_c, 9, 56, 0
1, 51119, Note_on_c, 9, 36, 0
1, 51120, Note_on_c, 9, 54, 127
1, 51120, Note_on_c, 9, 44, 108
1, 51132, Note_on_c, 9, 44, 0
1, 51359, Note_on_c, 9, 54, 0
1, 51360, Note_on_c, 9, 54, 127
1, 51360, Note_on_c, 9, 56, 127
1, 51360, Note_on_c, 9, 44, 124
1, 51360, Note_on_c, 9, 36, 127
1, 51372, Note_on_c, 9, 44, 0
1, 51599, Note_on_c, 9, 36, 0
1, 51600, Note_on_c, 9, 44, 112
1, 51612, Note_on_c, 9, 44, 0
1, 51839, Note_on_c, 9, 54, 0
1, 51839, Note_on_c, 9, 56, 0
1, 51840, Note_on_c, 9, 56, 127
1, 51840, Note_on_c, 9, 44, 127
1, 51840, Note_on_c, 9, 36, 127
1, 51852, Note_on_c, 9, 44, 0
1, 52079, Note_on_c, 9, 36, 0
1, 52080, Note_on_c, 9, 44, 94
1, 52092, Note_on_c, 9, 44, 0
1, 52319, Note_on_c, 9, 56, 0
1, 52320, Note_on_c, 9, 56, 127
1, 52320, Note_on_c, 9, 44, 127
1, 52320, Note_on_c, 9, 36, 127
1, 52332, Note_on_c, 9, 44, 0
1, 52559, Note_on_c, 9, 36, 0
1, 52560, Note_on_c, 9, 44, 100
1, 52572, Note_on_c, 9, 44, 0
1, 52799, Note_on_c, 9, 56, 0
1, 52800, Note_on_c, 9, 54, 127
1, 52800, Note_on_c, 9, 56, 127
1, 52800, Note_on_c, 9, 44, 127
1, 52800, Note_on_c, 9, 36, 127
1, 52812, Note_on_c, 9, 44, 0
1, 53039, Note_on_c, 9, 54, 0
1, 53039, Note_on_c, 9, 56, 0
1, 53039, Note_on_c, 9, 36, 0
1, 53040, Note_on_c, 9, 54, 127
1, 53040, Note_on_c, 9, 44, 94
1, 53052, Note_on_c, 9, 44, 0
1, 53279, Note_on_c, 9, 54, 0
1, 53280, Note_on_c, 9, 54, 127
1, 53280, Note_on_c, 9, 56, 127
1, 53280, Note_on_c, 9, 44, 127
1, 53280, Note_on_c, 9, 36, 127
1, 53292, Note_on_c, 9, 44, 0
1, 53519, Note_on_c, 9, 36, 0
1, 53520, Note_on_c, 9, 44, 93
1, 53532, Note_on_c, 9, 44, 0
1, 53759, Note_on_c, 9, 54, 0
1, 53759, Note_on_c, 9, 56, 0
1, 53760, Note_on_c, 9, 56, 127
1, 53760, Note_on_c, 9, 44, 127
1, 53760, Note_on_c, 9, 36, 127
1, 53772, Note_on_c, 9, 44, 0
1, 53999, Note_on_c, 9, 36, 0
1, 54000, Note_on_c, 9, 44, 99
1, 54012, Note_on_c, 9, 44, 0
1, 54239, Note_on_c, 9, 56, 0
1, 54240, Note_on_c, 9, 56, 127
1, 54240, Note_on_c, 9, 44, 127
1, 54240, Note_on_c, 9, 36, 127
1, 54252, Note_on_c, 9, 44, 0
1, 54479, Note_on_c, 9, 36, 0
1, 54480, Note_on_c, 9, 44, 94
1, 54492, Note_on_c, 9, 44, 0
1, 54719, Note_on_c, 9, 56, 0
1, 54720, Note_on_c, 9, 54, 127
1, 54720, Note_on_c, 9, 56, 127
1, 54720, Note_on_c, 9, 44, 127
1, 54720, Note_on_c, 9, 36, 127
1, 54732, Note_on_c, 9, 44, 0
1, 54959, Note_on_c, 9, 54, 0
1, 54959, Note_on_c, 9, 56, 0
1, 54959, Note_on_c, 9, 36, 0
1, 54960, Note_on_c, 9, 54, 127
1, 54960, Note_on_c, 9, 44, 94
1, 54972, Note_on_c, 9, 44, 0
1, 55199, Note_on_c, 9, 54, 0
1, 55200, Note_on_c, 9, 54, 127
1, 55200, Note_on_c, 9, 56, 127
1, 55200, Note_on_c, 9, 44, 127
1, 55200, Note_on_c, 9, 36, 127
1, 55212, Note_on_c, 9, 44, 0
1, 55439, Note_on_c, 9, 36, 0
1, 55440, Note_on_c, 9, 44, 87
1, 55452, Note_on_c, 9, 44, 0
1, 55679, Note_on_c, 9, 54, 0
1, 55679, Note_on_c, 9, 56, 0
1, 55680, Note_on_c, 9, 56, 127
1, 55680, Note_on_c, 9, 44, 127
1, 55680, Note_on_c, 9, 36, 127
1, 55692, Note_on_c, 9, 44, 0
1, 55919, Note_on_c, 9, 36, 0
1, 55920, Note_on_c, 9, 44, 94
1, 55932, Note_on_c, 9, 44, 0
1, 56159, Note_on_c, 9, 56, 0
1, 56160, Note_on_c, 9, 56, 127
1, 56160, Note_on_c, 9, 44, 126
1, 56160, Note_on_c, 9, 36, 127
1, 56172, Note_on_c, 9, 44, 0
1, 56399, Note_on_c, 9, 36, 0
1, 56400, Note_on_c, 9, 44, 94
1, 56412, Note_on_c, 9, 44, 0
1, 56639, Note_on_c, 9, 56, 0
1, 56640, Note_on_c, 9, 54, 127
1, 56640, Note_on_c, 9, 56, 127
1, 56640, Note_on_c, 9, 44, 127
1, 56640, Note_on_c, 9, 36, 127
1, 56652, Note_on_c, 9, 44, 0
1, 56879, Note_on_c, 9, 54, 0
1, 56879, Note_on_c, 9, 56, 0
1, 56879, Note_on_c, 9, 36, 0
1, 56880, Note_on_c, 9, 54, 127
1, 56880, Note_on_c, 9, 44, 90
1, 56892, Note_on_c, 9, 44, 0
1, 57119, Note_on_c, 9, 54, 0
1, 57120, Note_on_c, 9, 54, 127
1, 57120, Note_on_c, 9, 56, 127
1, 57120, Note_on_c, 9, 44, 127
1, 57120, Note_on_c, 9, 36, 127
1, 57132, Note_on_c, 9, 44, 0
1, 57359, Note_on_c, 9, 36, 0
1, 57360, Note_on_c, 9, 44, 94
1, 57372, Note_on_c, 9, 44, 0
1, 57599, Note_on_c, 9, 54, 0
1, 57599, Note_on_c, 9, 56, 0
1, 57600, Note_on_c, 9, 56, 127
1, 57600, Note_on_c, 9, 44, 127
1, 57600, Note_on_c, 9, 36, 127
1, 57612, Note_on_c, 9, 44, 0
1, 57839, Note_on_c, 9, 36, 0
1, 57840, Note_on_c, 9, 44, 96
1, 57852, Note_on_c, 9, 44, 0
1, 58079, Note_on_c, 9, 56, 0
1, 58080, Note_on_c, 9, 56, 127
1, 58080, Note_on_c, 9, 44, 127
1, 58080, Note_on_c, 9, 36, 127
1, 58092, Note_on_c, 9, 44, 0
1, 58319, Note_on_c, 9, 36, 0
1, 58320, Note_on_c, 9, 44, 99
1, 58332, Note_on_c, 9, 44, 0
1, 58559, Note_on_c, 9, 56, 0
1, 58560, Note_on_c, 9, 54, 127
1, 58560, Note_on_c, 9, 56, 127
1, 58560, Note_on_c, 9, 44, 127
1, 58560, Note_on_c, 9, 36, 127
1, 58572, Note_on_c, 9, 44, 0
1, 58799, Note_on_c, 9, 54, 0
1, 58799, Note_on_c, 9, 56, 0
1, 58799, Note_on_c, 9, 36, 0
1, 58800, Note_on_c, 9, 54, 127
1, 58800, Note_on_c, 9, 44, 81
1, 58812, Note_on_c, 9, 44, 0
1, 59039, Note_on_c, 9, 54, 0
1, 59040, Note_on_c, 9, 54, 127
1, 59040, Note_on_c, 9, 56, 127
1, 59040, Note_on_c, 9, 44, 127
1, 59040, Note_on_c, 9, 36, 127
1, 59052, Note_on_c, 9, 44, 0
1, 59279, Note_on_c, 9, 36, 0
1, 59280, Note_on_c, 9, 44, 94
1, 59292, Note_on_c, 9, 44, 0
1, 59519, Note_on_c, 9, 54, 0
1, 59519, Note_on_c, 9, 56, 0
1, 59520, Note_on_c, 9, 56, 127
1, 59520, Note_on_c, 9, 44, 127
1, 59520, Note_on_c, 9, 36, 127
1, 59532, Note_on_c, 9, 44, 0
1, 59759, Note_on_c, 9, 36, 0
1, 59760, Note_on_c, 9, 44, 100
1, 59772, Note_on_c, 9, 44, 0
1, 59999, Note_on_c, 9, 56, 0
1, 60000, Note_on_c, 9, 56, 127
1, 60000, Note_on_c, 9, 44, 127
1, 60000, Note_on_c, 9, 36, 127
1, 60012, Note_on_c, 9, 44, 0
1, 60239, Note_on_c, 9, 36, 0
1, 60240, Note_on_c, 9, 44, 94
1, 60252, Note_on_c, 9, 44, 0
1, 60479, Note_on_c, 9, 56, 0
1, 60480, Note_on_c, 9, 54, 127
1, 60480, Note_on_c, 9, 56, 127
1, 60480, Note_on_c, 9, 44, 126
1, 60480, Note_on_c, 9, 36, 127
1, 60492, Note_on_c, 9, 44, 0
1, 60719, Note_on_c, 9, 54, 0
1, 60719, Note_on_c, 9, 56, 0
1, 60719, Note_on_c, 9, 36, 0
1, 60720, Note_on_c, 9, 54, 127
1, 60720, Note_on_c, 9, 44, 93
1, 60732, Note_on_c, 9, 44, 0
1, 60959, Note_on_c, 9, 54, 0
1, 60960, Note_on_c, 9, 54, 127
1, 60960, Note_on_c, 9, 56, 127
1, 60960, Note_on_c, 9, 44, 127
1, 60960, Note_on_c, 9, 36, 127
1, 60972, Note_on_c, 9, 44, 0
1, 61199, Note_on_c, 9, 36, 0
1, 61200, Note_on_c, 9, 44, 95
1, 61212, Note_on_c, 9, 44, 0
1, 61439, Note_on_c, 9, 54, 0
1, 61439, Note_on_c, 9, 56, 0
1, 61440, Note_on_c, 9, 56, 127
1, 61440, Note_on_c, 9, 44, 127
1, 61440, Note_on_c, 9, 36, 127
1, 61452, Note_on_c, 9, 44, 0
1, 61679, Note_on_c, 9, 36, 0
1, 61680, Note_on_c, 9, 44, 98
1, 61692, Note_on_c, 9, 44, 0
1, 61919, Note_on_c, 9, 56, 0
1, 61920, Note_on_c, 9, 56, 127
1, 61920, Note_on_c, 9, 44, 127
1, 61920, Note_on_c, 9, 36, 127
1, 61932, Note_on_c, 9, 44, 0
1, 62159, Note_on_c, 9, 36, 0
1, 62160, Note_on_c, 9, 44, 99
1, 62172, Note_on_c, 9, 44, 0
1, 62399, Note_on_c, 9, 56, 0
1, 62400, Note_on_c, 9, 54, 127
1, 62400, Note_on_c, 9, 56, 127
1, 62400, Note_on_c, 9, 44, 126
1, 62400, Note_on_c, 9, 36, 127
1, 62412, Note_on_c, 9, 44, 0
1, 62639, Note_on_c, 9, 54, 0
1, 62639, Note_on_c, 9, 56, 0
1, 62639, Note_on_c, 9, 36, 0
1, 62640, Note_on_c, 9, 54, 127
1, 62640, Note_on_c, 9, 44, 96
1, 62652, Note_on_c, 9, 44, 0
1, 62879, Note_on_c, 9, 54, 0
1, 62880, Note_on_c, 9, 54, 127
1, 62880, Note_on_c, 9, 56, 127
1, 62880, Note_on_c, 9, 44, 124
1, 62880, Note_on_c, 9, 36, 127
1, 62892, Note_on_c, 9, 44, 0
1, 63119, Note_on_c, 9, 36, 0
1, 63120, Note_on_c, 9, 44, 101
1, 63132, Note_on_c, 9, 44, 0
1, 63359, Note_on_c, 9, 54, 0
1, 63359, Note_on_c, 9, 56, 0
1, 63360, Note_on_c, 9, 56, 127
1, 63360, Note_on_c, 9, 44, 126
1, 63360, Note_on_c, 9, 36, 127
1, 63372, Note_on_c, 9, 44, 0
1, 63599, Note_on_c, 9, 36, 0
1, 63600, Note_on_c, 9, 44, 97
1, 63612, Note_on_c, 9, 44, 0
1, 63839, Note_on_c, 9, 56, 0
1, 63840, Note_on_c, 9, 56, 127
1, 63840, Note_on_c, 9, 44, 126
1, 63840, Note_on_c, 9, 36, 127
1, 63852, Note_on_c, 9, 44, 0
1, 64079, Note_on_c, 9, 36, 0
1, 64080, Note_on_c, 9, 44, 96
1, 64092, Note_on_c, 9, 44, 0
1, 64319, Note_on_c, 9, 56, 0
1, 64320, Note_on_c, 9, 54, 127
1, 64320, Note_on_c, 9, 56, 127
1, 64320, Note_on_c, 9, 44, 126
1, 64320, Note_on_c, 9, 36, 127
1, 64332, Note_on_c, 9, 44, 0
1, 64559, Note_on_c, 9, 54, 0
1, 64559, Note_on_c, 9, 56, 0
1, 64559, Note_on_c, 9, 36, 0
1, 64560, Note_on_c, 9, 54, 127
1, 64560, Note_on_c, 9, 44, 102
1, 64572, Note_on_c, 9, 44, 0
1, 64799, Note_on_c, 9, 54, 0
1, 64800, Note_on_c, 9, 54, 127
1, 64800, Note_on_c, 9, 44, 127
1, 64800, Note_on_c, 9, 36, 127
1, 64812, Note_on_c, 9, 44, 0
1, 64815, Note_on_c, 9, 56, 127
1, 65039, Note_on_c, 9, 36, 0
1, 65039, Note_on_c, 9, 56, 0
1, 65040, Note_on_c, 9, 44, 99
1, 65052, Note_on_c, 9, 44, 0
1, 65279, Note_on_c, 9, 54, 0
1, 65280, Note_on_c, 9, 56, 127
1, 65280, Note_on_c, 9, 44, 126
1, 65280, Note_on_c, 9, 36, 127
1, 65292, Note_on_c, 9, 44, 0
1, 65519, Note_on_c, 9, 36, 0
1, 65520, Note_on_c, 9, 44, 100
1, 65532, Note_on_c, 9, 44, 0
1, 65759, Note_on_c, 9, 56, 0
1, 65760, Note_on_c, 9, 56, 127
1, 65760, Note_on_c, 9, 44, 127
1, 65760, Note_on_c, 9, 36, 127
1, 65772, Note_on_c, 9, 44, 0
1, 65999, Note_on_c, 9, 36, 0
1, 66000, Note_on_c, 9, 44, 102
1, 66012, Note_on_c, 9, 44, 0
1, 66239, Note_on_c, 9, 56, 0
1, 66240, Note_on_c, 9, 54, 127
1, 66240, Note_on_c, 9, 56, 127
1, 66240, Note_on_c, 9, 44, 124
1, 66240, Note_on_c, 9, 36, 127
1, 66252, Note_on_c, 9, 44, 0
1, 66479, Note_on_c, 9, 54, 0
1, 66479, Note_on_c, 9, 56, 0
1, 66479, Note_on_c, 9, 36, 0
1, 66480, Note_on_c, 9, 54, 127
1, 66480, Note_on_c, 9, 44, 96
1, 66492, Note_on_c, 9, 44, 0
1, 66719, Note_on_c, 9, 54, 0
1, 66720, Note_on_c, 9, 54, 127
1, 66720, Note_on_c, 9, 44, 119
1, 66720, Note_on_c, 9, 36, 127
1, 66732, Note_on_c, 9, 44, 0
1, 66735, Note_on_c, 9, 56, 127
1, 66959, Note_on_c, 9, 36, 0
1, 66959, Note_on_c, 9, 56, 0
1, 66960, Note_on_c, 9, 44, 105
1, 66972, Note_on_c, 9, 44, 0
1, 67199, Note_on_c, 9, 54, 0
1, 67200, Note_on_c, 9, 56, 127
1, 67200, Note_on_c, 9, 44, 127
1, 67200, Note_on_c, 9, 36, 127
1, 67212, Note_on_c, 9, 44, 0
1, 67439, Note_on_c, 9, 36, 0
1, 67440, Note_on_c, 9, 44, 101
1, 67452, Note_on_c, 9, 44, 0
1, 67679, Note_on_c, 9, 56, 0
1, 67680, Note_on_c, 9, 56, 127
1, 67680, Note_on_c, 9, 44, 127
1, 67680, Note_on_c, 9, 36, 127
1, 67692, Note_on_c, 9, 44, 0
1, 67919, Note_on_c, 9, 36, 0
1, 67920, Note_on_c, 9, 44, 99
1, 67932, Note_on_c, 9, 44, 0
1, 68159, Note_on_c, 9, 56, 0
1, 68160, Note_on_c, 9, 54, 127
1, 68160, Note_on_c, 9, 56, 127
1, 68160, Note_on_c, 9, 44, 127
1, 68160, Note_on_c, 9, 36, 127
1, 68172, Note_on_c, 9, 44, 0
1, 68399, Note_on_c, 9, 54, 0
1, 68399, Note_on_c, 9, 56, 0
1, 68399, Note_on_c, 9, 36, 0
1, 68400, Note_on_c, 9, 54, 127
1, 68400, Note_on_c, 9, 44, 99
1, 68412, Note_on_c, 9, 44, 0
1, 68639, Note_on_c, 9, 54, 0
1, 68640, Note_on_c, 9, 54, 127
1, 68640, Note_on_c, 9, 56, 127
1, 68640, Note_on_c, 9, 44, 127
1, 68640, Note_on_c, 9, 36, 127
1, 68652, Note_on_c, 9, 44, 0
1, 68879, Note_on_c, 9, 36, 0
1, 68880, Note_on_c, 9, 44, 103
1, 68892, Note_on_c, 9, 44, 0
1, 69119, Note_on_c, 9, 54, 0
1, 69119, Note_on_c, 9, 56, 0
1, 69120, Note_on_c, 9, 56, 127
1, 69120, Note_on_c, 9, 44, 127
1, 69120, Note_on_c, 9, 36, 127
1, 69132, Note_on_c, 9, 44, 0
1, 69359, Note_on_c, 9, 36, 0
1, 69360, Note_on_c, 9, 44, 101
1, 69372, Note_on_c, 9, 44, 0
1, 69599, Note_on_c, 9, 56, 0
1, 69600, Note_on_c, 9, 56, 127
1, 69600, Note_on_c, 9, 44, 127
1, 69600, Note_on_c, 9, 36, 127
1, 69612, Note_on_c, 9, 44, 0
1, 69839, Note_on_c, 9, 36, 0
1, 69840, Note_on_c, 9, 44, 103
1, 69852, Note_on_c, 9, 44, 0
1, 70079, Note_on_c, 9, 56, 0
1, 70080, Note_on_c, 9, 54, 127
1, 70080, Note_on_c, 9, 56, 127
1, 70080, Note_on_c, 9, 44, 126
1, 70080, Note_on_c, 9, 36, 127
1, 70092, Note_on_c, 9, 44, 0
1, 70319, Note_on_c, 9, 54, 0
1, 70319, Note_on_c, 9, 56, 0
1, 70319, Note_on_c, 9, 36, 0
1, 70320, Note_on_c, 9, 54, 127
1, 70320, Note_on_c, 9, 44, 98
1, 70332, Note_on_c, 9, 44, 0
1, 70559, Note_on_c, 9, 54, 0
1, 70560, Note_on_c, 9, 54, 127
1, 70560, Note_on_c, 9, 56, 127
1, 70560, Note_on_c, 9, 44, 127
1, 70560, Note_on_c, 9, 36, 127
1, 70572, Note_on_c, 9, 44, 0
1, 70799, Note_on_c, 9, 36, 0
1, 70800, Note_on_c, 9, 44, 88
1, 70812, Note_on_c, 9, 44, 0
1, 71039, Note_on_c, 9, 54, 0
1, 71039, Note_on_c, 9, 56, 0
1, 71040, Note_on_c, 9, 56, 127
1, 71040, Note_on_c, 9, 49, 125
1, 71040, Note_on_c, 9, 44, 126
1, 71040, Note_on_c, 9, 36, 127
1, 71052, Note_on_c, 9, 44, 0
1, 71065, Note_on_c, 9, 49, 0
1, 71279, Note_on_c, 9, 36, 0
1, 71280, Note_on_c, 9, 44, 98
1, 71292, Note_on_c, 9, 44, 0
1, 71519, Note_on_c, 9, 56, 0
1, 71520, Note_on_c, 9, 56, 127
1, 71520, Note_on_c, 9, 44, 126
1, 71520, Note_on_c, 9, 36, 127
1, 71532, Note_on_c, 9, 44, 0
1, 71759, Note_on_c, 9, 36, 0
1, 71760, Note_on_c, 9, 44, 91
1, 71772, Note_on_c, 9, 44, 0
1, 71999, Note_on_c, 9, 56, 0
1, 72000, Note_on_c, 9, 54, 127
1, 72000, Note_on_c, 9, 56, 127
1, 72000, Note_on_c, 9, 44, 127
1, 72000, Note_on_c, 9, 36, 127
1, 72012, Note_on_c, 9, 44, 0
1, 72239, Note_on_c, 9, 54, 0
1, 72239, Note_on_c, 9, 56, 0
1, 72239, Note_on_c, 9, 36, 0
1, 72240, Note_on_c, 9, 54, 127
1, 72240, Note_on_c, 9, 44, 99
1, 72252, Note_on_c, 9, 44, 0
1, 72479, Note_on_c, 9, 54, 0
1, 72480, Note_on_c, 9, 54, 127
1, 72480, Note_on_c, 9, 56, 127
1, 72480, Note_on_c, 9, 44, 127
1, 72480, Note_on_c, 9, 36, 127
1, 72492, Note_on_c, 9, 44, 0
1, 72719, Note_on_c, 9, 36, 0
1, 72720, Note_on_c, 9, 44, 103
1, 72732, Note_on_c, 9, 44, 0
1, 72959, Note_on_c, 9, 54, 0
1, 72959, Note_on_c, 9, 56, 0
1, 72960, Note_on_c, 9, 56, 127
1, 72960, Note_on_c, 9, 44, 127
1, 72960, Note_on_c, 9, 36, 127
1, 72972, Note_on_c, 9, 44, 0
1, 73199, Note_on_c, 9, 36, 0
1, 73200, Note_on_c, 9, 44, 106
1, 73212, Note_on_c, 9, 44, 0
1, 73439, Note_on_c, 9, 56, 0
1, 73440, Note_on_c, 9, 56, 127
1, 73440, Note_on_c, 9, 44, 127
1, 73440, Note_on_c, 9, 36, 127
1, 73452, Note_on_c, 9, 44, 0
1, 73679, Note_on_c, 9, 36, 0
1, 73680, Note_on_c, 9, 44, 110
1, 73692, Note_on_c, 9, 44, 0
1, 73919, Note_on_c, 9, 56, 0
1, 73920, Note_on_c, 9, 54, 127
1, 73920, Note_on_c, 9, 56, 127
1, 73920, Note_on_c, 9, 44, 127
1, 73920, Note_on_c, 9, 36, 127
1, 73932, Note_on_c, 9, 44, 0
1, 74159, Note_on_c, 9, 54, 0
1, 74159, Note_on_c, 9, 56, 0
1, 74159, Note_on_c, 9, 36, 0
1, 74160, Note_on_c, 9, 54, 127
1, 74160, Note_on_c, 9, 44, 127
1, 74172, Note_on_c, 9, 44, 0
1, 74399, Note_on_c, 9, 54, 0
1, 74400, Note_on_c, 9, 54, 127
1, 74400, Note_on_c, 9, 56, 127
1, 74400, Note_on_c, 9, 44, 127
1, 74400, Note_on_c, 9, 36, 127
1, 74412, Note_on_c, 9, 44, 0
1, 74639, Note_on_c, 9, 36, 0
1, 74640, Note_on_c, 9, 44, 127
1, 74652, Note_on_c, 9, 44, 0
1, 74879, Note_on_c, 9, 54, 0
1, 74879, Note_on_c, 9, 56, 0
1, 74880, Note_on_c, 9, 56, 127
1, 74880, Note_on_c, 9, 49, 125
1, 74880, Note_on_c, 9, 44, 127
1, 74880, Note_on_c, 9, 36, 127
1, 74892, Note_on_c, 9, 44, 0
1, 74905, Note_on_c, 9, 49, 0
1, 75119, Note_on_c, 9, 36, 0
1, 75120, Note_on_c, 9, 44, 104
1, 75132, Note_on_c, 9, 44, 0
1, 75359, Note_on_c, 9, 56, 0
1, 75360, Note_on_c, 9, 56, 127
1, 75360, Note_on_c, 9, 44, 127
1, 75360, Note_on_c, 9, 36, 127
1, 75372, Note_on_c, 9, 44, 0
1, 75599, Note_on_c, 9, 36, 0
1, 75600, Note_on_c, 9, 44, 104
1, 75612, Note_on_c, 9, 44, 0
1, 75839, Note_on_c, 9, 56, 0
1, 75840, Note_on_c, 9, 54, 127
1, 75840, Note_on_c, 9, 56, 127
1, 75840, Note_on_c, 9, 44, 126
1, 75840, Note_on_c, 9, 36, 127
1, 75852, Note_on_c, 9, 44, 0
1, 76079, Note_on_c, 9, 54, 0
1, 76079, Note_on_c, 9, 56, 0
1, 76079, Note_on_c, 9, 36, 0
1, 76080, Note_on_c, 9, 54, 127
1, 76080, Note_on_c, 9, 44, 98
1, 76092, Note_on_c, 9, 44, 0
1, 76319, Note_on_c, 9, 54, 0
1, 76320, Note_on_c, 9, 54, 127
1, 76320, Note_on_c, 9, 56, 127
1, 76320, Note_on_c, 9, 44, 127
1, 76320, Note_on_c, 9, 36, 127
1, 76332, Note_on_c, 9, 44, 0
1, 76559, Note_on_c, 9, 36, 0
1, 76560, Note_on_c, 9, 44, 93
1, 76572, Note_on_c, 9, 44, 0
1, 76799, Note_on_c, 9, 54, 0
1, 76799, Note_on_c, 9, 56, 0
1, 76800, Note_on_c, 9, 56, 127
1, 76800, Note_on_c, 9, 44, 122
1, 76800, Note_on_c, 9, 36, 127
1, 76812, Note_on_c, 9, 44, 0
1, 77039, Note_on_c, 9, 36, 0
1, 77040, Note_on_c, 9, 44, 99
1, 77052, Note_on_c, 9, 44, 0
1, 77279, Note_on_c, 9, 56, 0
1, 77280, Note_on_c, 9, 56, 127
1, 77280, Note_on_c, 9, 44, 127
1, 77280, Note_on_c, 9, 36, 127
1, 77292, Note_on_c, 9, 44, 0
1, 77519, Note_on_c, 9, 36, 0
1, 77520, Note_on_c, 9, 44, 98
1, 77532, Note_on_c, 9, 44, 0
1, 77759, Note_on_c, 9, 56, 0
1, 77760, Note_on_c, 9, 54, 127
1, 77760, Note_on_c, 9, 56, 127
1, 77760, Note_on_c, 9, 44, 127
1, 77760, Note_on_c, 9, 36, 127
1, 77772, Note_on_c, 9, 44, 0
1, 77999, Note_on_c, 9, 54, 0
1, 77999, Note_on_c, 9, 56, 0
1, 77999, Note_on_c, 9, 36, 0
1, 78000, Note_on_c, 9, 54, 127
1, 78000, Note_on_c, 9, 44, 101
1, 78012, Note_on_c, 9, 44, 0
1, 78239, Note_on_c, 9, 54, 0
1, 78240, Note_on_c, 9, 54, 127
1, 78240, Note_on_c, 9, 56, 127
1, 78240, Note_on_c, 9, 44, 122
1, 78240, Note_on_c, 9, 36, 127
1, 78252, Note_on_c, 9, 44, 0
1, 78479, Note_on_c, 9, 36, 0
1, 78480, Note_on_c, 9, 44, 97
1, 78492, Note_on_c, 9, 44, 0
1, 78719, Note_on_c, 9, 54, 0
1, 78719, Note_on_c, 9, 56, 0
1, 78720, Note_on_c, 9, 56, 127
1, 78720, Note_on_c, 9, 44, 127
1, 78720, Note_on_c, 9, 36, 127
1, 78732, Note_on_c, 9, 44, 0
1, 78959, Note_on_c, 9, 36, 0
1, 78960, Note_on_c, 9, 44, 95
1, 78972, Note_on_c, 9, 44, 0
1, 79199, Note_on_c, 9, 56, 0
1, 79200, Note_on_c, 9, 56, 127
1, 79200, Note_on_c, 9, 44, 127
1, 79200, Note_on_c, 9, 36, 127
1, 79212, Note_on_c, 9, 44, 0
1, 79439, Note_on_c, 9, 36, 0
1, 79440, Note_on_c, 9, 44, 97
1, 79452, Note_on_c, 9, 44, 0
1, 79679, Note_on_c, 9, 56, 0
1, 79680, Note_on_c, 9, 54, 127
1, 79680, Note_on_c, 9, 56, 127
1, 79680, Note_on_c, 9, 44, 127
1, 79680, Note_on_c, 9, 36, 127
1, 79692, Note_on_c, 9, 44, 0
1, 79919, Note_on_c, 9, 54, 0
1, 79919, Note_on_c, 9, 56, 0
1, 79919, Note_on_c, 9, 36, 0
1, 79920, Note_on_c, 9, 54, 127
1, 79920, Note_on_c, 9, 44, 99
1, 79932, Note_on_c, 9, 44, 0
1, 80159, Note_on_c, 9, 54, 0
1, 80160, Note_on_c, 9, 56, 127
1, 80160, Note_on_c, 9, 44, 124
1, 80160, Note_on_c, 9, 36, 127
1, 80172, Note_on_c, 9, 44, 0
1, 80399, Note_on_c, 9, 36, 0
1, 80400, Note_on_c, 9, 44, 96
1, 80412, Note_on_c, 9, 44, 0
1, 80639, Note_on_c, 9, 56, 0
1, 80640, Note_on_c, 9, 56, 127
1, 80640, Note_on_c, 9, 44, 127
1, 80640, Note_on_c, 9, 36, 127
1, 80652, Note_on_c, 9, 44, 0
1, 80879, Note_on_c, 9, 36, 0
1, 80880, Note_on_c, 9, 44, 99
1, 80892, Note_on_c, 9, 44, 0
1, 81119, Note_on_c, 9, 56, 0
1, 81120, Note_on_c, 9, 56, 127
1, 81120, Note_on_c, 9, 44, 127
1, 81120, Note_on_c, 9, 36, 127
1, 81132, Note_on_c, 9, 44, 0
1, 81359, Note_on_c, 9, 36, 0
1, 81360, Note_on_c, 9, 44, 94
1, 81372, Note_on_c, 9, 44, 0
1, 81599, Note_on_c, 9, 56, 0
1, 81600, Note_on_c, 9, 54, 127
1, 81600, Note_on_c, 9, 56, 127
1, 81600, Note_on_c, 9, 44, 127
1, 81600, Note_on_c, 9, 36, 127
1, 81612, Note_on_c, 9, 44, 0
1, 81839, Note_on_c, 9, 54, 0
1, 81839, Note_on_c, 9, 56, 0
1, 81839, Note_on_c, 9, 36, 0
1, 81840, Note_on_c, 9, 54, 127
1, 81840, Note_on_c, 9, 44, 97
1, 81852, Note_on_c, 9, 44, 0
1, 82079, Note_on_c, 9, 54, 0
1, 82080, Note_on_c, 9, 54, 127
1, 82080, Note_on_c, 9, 56, 127
1, 82080, Note_on_c, 9, 44, 126
1, 82080, Note_on_c, 9, 36, 127
1, 82092, Note_on_c, 9, 44, 0
1, 82319, Note_on_c, 9, 36, 0
1, 82320, Note_on_c, 9, 44, 98
1, 82332, Note_on_c, 9, 44, 0
1, 82559, Note_on_c, 9, 54, 0
1, 82559, Note_on_c, 9, 56, 0
1, 82560, Note_on_c, 9, 56, 127
1, 82560, Note_on_c, 9, 49, 125
1, 82560, Note_on_c, 9, 44, 127
1, 82560, Note_on_c, 9, 36, 127
1, 82572, Note_on_c, 9, 44, 0
1, 82585, Note_on_c, 9, 49, 0
1, 82799, Note_on_c, 9, 36, 0
1, 82800, Note_on_c, 9, 44, 94
1, 82812, Note_on_c, 9, 44, 0
1, 83039, Note_on_c, 9, 56, 0
1, 83040, Note_on_c, 9, 56, 127
1, 83040, Note_on_c, 9, 44, 127
1, 83040, Note_on_c, 9, 36, 127
1, 83052, Note_on_c, 9, 44, 0
1, 83279, Note_on_c, 9, 36, 0
1, 83280, Note_on_c, 9, 44, 90
1, 83292, Note_on_c, 9, 44, 0
1, 83519, Note_on_c, 9, 56, 0
1, 83520, Note_on_c, 9, 54, 127
1, 83520, Note_on_c, 9, 56, 127
1, 83520, Note_on_c, 9, 44, 124
1, 83520, Note_on_c, 9, 36, 127
1, 83532, Note_on_c, 9, 44, 0
1, 83759, Note_on_c, 9, 54, 0
1, 83759, Note_on_c, 9, 56, 0
1, 83759, Note_on_c, 9, 36, 0
1, 83760, Note_on_c, 9, 54, 127
1, 83760, Note_on_c, 9, 44, 96
1, 83772, Note_on_c, 9, 44, 0
1, 83999, Note_on_c, 9, 54, 0
1, 84000, Note_on_c, 9, 54, 127
1, 84000, Note_on_c, 9, 56, 127
1, 84000, Note_on_c, 9, 44, 124
1, 84000, Note_on_c, 9, 36, 127
1, 84012, Note_on_c, 9, 44, 0
1, 84239, Note_on_c, 9, 36, 0
1, 84240, Note_on_c, 9, 44, 101
1, 84252, Note_on_c, 9, 44, 0
1, 84479, Note_on_c, 9, 54, 0
1, 84479, Note_on_c, 9, 56, 0
1, 84480, Note_on_c, 9, 56, 127
1, 84480, Note_on_c, 9, 44, 122
1, 84480, Note_on_c, 9, 36, 127
1, 84492, Note_on_c, 9, 44, 0
1, 84719, Note_on_c, 9, 36, 0
1, 84720, Note_on_c, 9, 44, 92
1, 84732, Note_on_c, 9, 44, 0
1, 84959, Note_on_c, 9, 56, 0
1, 84960, Note_on_c, 9, 56, 127
1, 84960, Note_on_c, 9, 44, 124
1, 84960, Note_on_c, 9, 36, 127
1, 84972, Note_on_c, 9, 44, 0
1, 85199, Note_on_c, 9, 36, 0
1, 85200, Note_on_c, 9, 44, 94
1, 85212, Note_on_c, 9, 44, 0
1, 85439, Note_on_c, 9, 56, 0
1, 85440, Note_on_c, 9, 54, 127
1, 85440, Note_on_c, 9, 44, 122
1, 85440, Note_on_c, 9, 36, 127
1, 85452, Note_on_c, 9, 44, 0
1, 85455, Note_on_c, 9, 56, 127
1, 85679, Note_on_c, 9, 54, 0
1, 85679, Note_on_c, 9, 36, 0
1, 85679, Note_on_c, 9, 56, 0
1, 85680, Note_on_c, 9, 54, 127
1, 85680, Note_on_c, 9, 44, 92
1, 85692, Note_on_c, 9, 44, 0
1, 85919, Note_on_c, 9, 54, 0
1, 85920, Note_on_c, 9, 54, 127
1, 85920, Note_on_c, 9, 44, 127
1, 85920, Note_on_c, 9, 36, 127
1, 85932, Note_on_c, 9, 44, 0
1, 85935, Note_on_c, 9, 56, 127
1, 86159, Note_on_c, 9, 36, 0
1, 86159, Note_on_c, 9, 56, 0
1, 86160, Note_on_c, 9, 44, 91
1, 86172, Note_on_c, 9, 44, 0
1, 86399, Note_on_c, 9, 54, 0
1, 86400, Note_on_c, 9, 56, 127
1, 86400, Note_on_c, 9, 44, 126
1, 86400, Note_on_c, 9, 36, 127
1, 86412, Note_on_c, 9, 44, 0
1, 86639, Note_on_c, 9, 36, 0
1, 86640, Note_on_c, 9, 44, 93
1, 86652, Note_on_c, 9, 44, 0
1, 86879, Note_on_c, 9, 56, 0
1, 86880, Note_on_c, 9, 56, 127
1, 86880, Note_on_c, 9, 44, 126
1, 86880, Note_on_c, 9, 36, 127
1, 86892, Note_on_c, 9, 44, 0
1, 87119, Note_on_c, 9, 36, 0
1, 87120, Note_on_c, 9, 44, 98
1, 87132, Note_on_c, 9, 44, 0
1, 87359, Note_on_c, 9, 56, 0
1, 87360, Note_on_c, 9, 54, 127
1, 87360, Note_on_c, 9, 44, 118
1, 87360, Note_on_c, 9, 36, 127
1, 87372, Note_on_c, 9, 44, 0
1, 87375, Note_on_c, 9, 56, 127
1, 87599, Note_on_c, 9, 54, 0
1, 87599, Note_on_c, 9, 36, 0
1, 87599, Note_on_c, 9, 56, 0
1, 87600, Note_on_c, 9, 54, 127
1, 87600, Note_on_c, 9, 44, 79
1, 87612, Note_on_c, 9, 44, 0
1, 87839, Note_on_c, 9, 54, 0
1, 87840, Note_on_c, 9, 54, 127
1, 87840, Note_on_c, 9, 56, 127
1, 87840, Note_on_c, 9, 44, 124
1, 87840, Note_on_c, 9, 36, 127
1, 87852, Note_on_c, 9, 44, 0
1, 88079, Note_on_c, 9, 36, 0
1, 88080, Note_on_c, 9, 44, 94
1, 88092, Note_on_c, 9, 44, 0
1, 88319, Note_on_c, 9, 54, 0
1, 88319, Note_on_c, 9, 56, 0
1, 88320, Note_on_c, 9, 56, 127
1, 88320, Note_on_c, 9, 44, 124
1, 88320, Note_on_c, 9, 36, 127
1, 88332, Note_on_c, 9, 44, 0
1, 88559, Note_on_c, 9, 36, 0
1, 88560, Note_on_c, 9, 44, 92
1, 88572, Note_on_c, 9, 44, 0
1, 88799, Note_on_c, 9, 56, 0
1, 88800, Note_on_c, 9, 56, 127
1, 88800, Note_on_c, 9, 44, 127
1, 88800, Note_on_c, 9, 36, 127
1, 88812, Note_on_c, 9, 44, 0
1, 89039, Note_on_c, 9, 36, 0
1, 89040, Note_on_c, 9, 44, 94
1, 89052, Note_on_c, 9, 44, 0
1, 89279, Note_on_c, 9, 56, 0
1, 89280, Note_on_c, 9, 54, 127
1, 89280, Note_on_c, 9, 56, 127
1, 89280, Note_on_c, 9, 44, 127
1, 89280, Note_on_c, 9, 36, 127
1, 89292, Note_on_c, 9, 44, 0
1, 89519, Note_on_c, 9, 54, 0
1, 89519, Note_on_c, 9, 56, 0
1, 89519, Note_on_c, 9, 36, 0
1, 89520, Note_on_c, 9, 54, 127
1, 89520, Note_on_c, 9, 44, 94
1, 89532, Note_on_c, 9, 44, 0
1, 89759, Note_on_c, 9, 54, 0
1, 89760, Note_on_c, 9, 54, 127
1, 89760, Note_on_c, 9, 56, 127
1, 89760, Note_on_c, 9, 44, 127
1, 89760, Note_on_c, 9, 36, 127
1, 89772, Note_on_c, 9, 44, 0
1, 89999, Note_on_c, 9, 36, 0
1, 90000, Note_on_c, 9, 44, 73
1, 90012, Note_on_c, 9, 44, 0
1, 90239, Note_on_c, 9, 54, 0
1, 90239, Note_on_c, 9, 56, 0
1, 90240, Note_on_c, 9, 56, 127
1, 90240, Note_on_c, 9, 44, 124
1, 90240, Note_on_c, 9, 36, 127
1, 90252, Note_on_c, 9, 44, 0
1, 90479, Note_on_c, 9, 36, 0
1, 90480, Note_on_c, 9, 44, 79
1, 90492, Note_on_c, 9, 44, 0
1, 90719, Note_on_c, 9, 56, 0
1, 90720, Note_on_c, 9, 56, 127
1, 90720, Note_on_c, 9, 44, 127
1, 90720, Note_on_c, 9, 36, 127
1, 90732, Note_on_c, 9, 44, 0
1, 90959, Note_on_c, 9, 36, 0
1, 90960, Note_on_c, 9, 44, 92
1, 90972, Note_on_c, 9, 44, 0
1, 91199, Note_on_c, 9, 56, 0
1, 91200, Note_on_c, 9, 54, 127
1, 91200, Note_on_c, 9, 56, 127
1, 91200, Note_on_c, 9, 44, 126
1, 91200, Note_on_c, 9, 36, 127
1, 91212, Note_on_c, 9, 44, 0
1, 91439, Note_on_c, 9, 54, 0
1, 91439, Note_on_c, 9, 56, 0
1, 91439, Note_on_c, 9, 36, 0
1, 91440, Note_on_c, 9, 54, 127
1, 91440, Note_on_c, 9, 44, 94
1, 91452, Note_on_c, 9, 44, 0
1, 91679, Note_on_c, 9, 54, 0
1, 91680, Note_on_c, 9, 54, 127
1, 91680, Note_on_c, 9, 56, 127
1, 91680, Note_on_c, 9, 44, 126
1, 91680, Note_on_c, 9, 36, 127
1, 91692, Note_on_c, 9, 44, 0
1, 91919, Note_on_c, 9, 36, 0
1, 91920, Note_on_c, 9, 44, 92
1, 91932, Note_on_c, 9, 44, 0
1, 92159, Note_on_c, 9, 54, 0
1, 92159, Note_on_c, 9, 56, 0
1, 92160, Note_on_c, 9, 56, 127
1, 92160, Note_on_c, 9, 44, 122
1, 92160, Note_on_c, 9, 36, 127
1, 92172, Note_on_c, 9, 44, 0
1, 92399, Note_on_c, 9, 36, 0
1, 92400, Note_on_c, 9, 44, 92
1, 92412, Note_on_c, 9, 44, 0
1, 92639, Note_on_c, 9, 56, 0
1, 92640, Note_on_c, 9, 56, 127
1, 92640, Note_on_c, 9, 44, 124
1, 92640, Note_on_c, 9, 36, 127
1, 92652, Note_on_c, 9, 44, 0
1, 92879, Note_on_c, 9, 36, 0
1, 92880, Note_on_c, 9, 44, 82
1, 92892, Note_on_c, 9, 44, 0
1, 93119, Note_on_c, 9, 56, 0
1, 93120, Note_on_c, 9, 54, 127
1, 93120, Note_on_c, 9, 56, 127
1, 93120, Note_on_c, 9, 44, 127
1, 93120, Note_on_c, 9, 36, 127
1, 93132, Note_on_c, 9, 44, 0
1, 93359, Note_on_c, 9, 54, 0
1, 93359, Note_on_c, 9, 56, 0
1, 93359, Note_on_c, 9, 36, 0
1, 93360, Note_on_c, 9, 54, 127
1, 93360, Note_on_c, 9, 44, 94
1, 93372, Note_on_c, 9, 44, 0
1, 93599, Note_on_c, 9, 54, 0
1, 93600, Note_on_c, 9, 56, 127
1, 93600, Note_on_c, 9, 44, 126
1, 93600, Note_on_c, 9, 36, 127
1, 93612, Note_on_c, 9, 44, 0
1, 93839, Note_on_c, 9, 36, 0
1, 93840, Note_on_c, 9, 44, 91
1, 93852, Note_on_c, 9, 44, 0
1, 94079, Note_on_c, 9, 56, 0
1, 94080, Note_on_c, 9, 56, 127
1, 94080, Note_on_c, 9, 44, 126
1, 94080, Note_on_c, 9, 36, 127
1, 94092, Note_on_c, 9, 44, 0
1, 94319, Note_on_c, 9, 36, 0
1, 94320, Note_on_c, 9, 44, 97
1, 94332, Note_on_c, 9, 44, 0
1, 94559, Note_on_c, 9, 56, 0
1, 94560, Note_on_c, 9, 56, 127
1, 94560, Note_on_c, 9, 44, 126
1, 94560, Note_on_c, 9, 36, 127
1, 94572, Note_on_c, 9, 44, 0
1, 94799, Note_on_c, 9, 36, 0
1, 94800, Note_on_c, 9, 44, 88
1, 94812, Note_on_c, 9, 44, 0
1, 95039, Note_on_c, 9, 56, 0
1, 95040, Note_on_c, 9, 54, 127
1, 95040, Note_on_c, 9, 56, 127
1, 95040, Note_on_c, 9, 44, 124
1, 95040, Note_on_c, 9, 36, 127
1, 95052, Note_on_c, 9, 44, 0
1, 95279, Note_on_c, 9, 54, 0
1, 95279, Note_on_c, 9, 56, 0
1, 95279, Note_on_c, 9, 36, 0
1, 95280, Note_on_c, 9, 54, 127
1, 95280, Note_on_c, 9, 44, 89
1, 95292, Note_on_c, 9, 44, 0
1, 95519, Note_on_c, 9, 54, 0
1, 95520, Note_on_c, 9, 54, 127
1, 95520, Note_on_c, 9, 56, 127
1, 95520, Note_on_c, 9, 44, 122
1, 95520, Note_on_c, 9, 36, 127
1, 95532, Note_on_c, 9, 44, 0
1, 95759, Note_on_c, 9, 36, 0
1, 95760, Note_on_c, 9, 44, 94
1, 95772, Note_on_c, 9, 44, 0
1, 95999, Note_on_c, 9, 54, 0
1, 95999, Note_on_c, 9, 56, 0
1, 96000, Note_on_c, 9, 56, 127
1, 96000, Note_on_c, 9, 44, 122
1, 96000, Note_on_c, 9, 36, 127
1, 96012, Note_on_c, 9, 44, 0
1, 96239, Note_on_c, 9, 36, 0
1, 96240, Note_on_c, 9, 44, 89
1, 96252, Note_on_c, 9, 44, 0
1, 96479, Note_on_c, 9, 56, 0
1, 96480, Note_on_c, 9, 56, 127
1, 96480, Note_on_c, 9, 44, 122
1, 96480, Note_on_c, 9, 36, 127
1, 96492, Note_on_c, 9, 44, 0
1, 96719, Note_on_c, 9, 36, 0
1, 96720, Note_on_c, 9, 44, 84
1, 96732, Note_on_c, 9, 44, 0
1, 96959, Note_on_c, 9, 56, 0
1, 96960, Note_on_c, 9, 54, 127
1, 96960, Note_on_c, 9, 56, 127
1, 96960, Note_on_c, 9, 44, 126
1, 96960, Note_on_c, 9, 36, 127
1, 96972, Note_on_c, 9, 44, 0
1, 97199, Note_on_c, 9, 54, 0
1, 97199, Note_on_c, 9, 56, 0
1, 97199, Note_on_c, 9, 36, 0
1, 97200, Note_on_c, 9, 54, 127
1, 97200, Note_on_c, 9, 44, 95
1, 97212, Note_on_c, 9, 44, 0
1, 97439, Note_on_c, 9, 54, 0
1, 97440, Note_on_c, 9, 54, 127
1, 97440, Note_on_c, 9, 56, 127
1, 97440, Note_on_c, 9, 44, 126
1, 97440, Note_on_c, 9, 36, 127
1, 97452, Note_on_c, 9, 44, 0
1, 97679, Note_on_c, 9, 36, 0
1, 97680, Note_on_c, 9, 44, 92
1, 97692, Note_on_c, 9, 44, 0
1, 97919, Note_on_c, 9, 54, 0
1, 97919, Note_on_c, 9, 56, 0
1, 97920, Note_on_c, 9, 56, 127
1, 97920, Note_on_c, 9, 44, 124
1, 97920, Note_on_c, 9, 36, 127
1, 97932, Note_on_c, 9, 44, 0
1, 98159, Note_on_c, 9, 36, 0
1, 98160, Note_on_c, 9, 44, 92
1, 98172, Note_on_c, 9, 44, 0
1, 98399, Note_on_c, 9, 56, 0
1, 98400, Note_on_c, 9, 56, 127
1, 98400, Note_on_c, 9, 44, 122
1, 98400, Note_on_c, 9, 36, 127
1, 98412, Note_on_c, 9, 44, 0
1, 98639, Note_on_c, 9, 36, 0
1, 98640, Note_on_c, 9, 44, 93
1, 98652, Note_on_c, 9, 44, 0
1, 98879, Note_on_c, 9, 56, 0
1, 98880, Note_on_c, 9, 54, 127
1, 98880, Note_on_c, 9, 56, 127
1, 98880, Note_on_c, 9, 44, 124
1, 98880, Note_on_c, 9, 36, 127
1, 98892, Note_on_c, 9, 44, 0
1, 99119, Note_on_c, 9, 54, 0
1, 99119, Note_on_c, 9, 56, 0
1, 99119, Note_on_c, 9, 36, 0
1, 99120, Note_on_c, 9, 54, 127
1, 99120, Note_on_c, 9, 44, 99
1, 99132, Note_on_c, 9, 44, 0
1, 99359, Note_on_c, 9, 54, 0
1, 99360, Note_on_c, 9, 54, 127
1, 99360, Note_on_c, 9, 56, 127
1, 99360, Note_on_c, 9, 44, 122
1, 99360, Note_on_c, 9, 36, 127
1, 99372, Note_on_c, 9, 44, 0
1, 99599, Note_on_c, 9, 36, 0
1, 99600, Note_on_c, 9, 44, 92
1, 99612, Note_on_c, 9, 44, 0
1, 99839, Note_on_c, 9, 54, 0
1, 99839, Note_on_c, 9, 56, 0
1, 99840, Note_on_c, 9, 56, 127
1, 99840, Note_on_c, 9, 44, 124
1, 99840, Note_on_c, 9, 36, 127
1, 99852, Note_on_c, 9, 44, 0
1, 100079, Note_on_c, 9, 36, 0
1, 100080, Note_on_c, 9, 44, 95
1, 100092, Note_on_c, 9, 44, 0
1, 100319, Note_on_c, 9, 56, 0
1, 100320, Note_on_c, 9, 56, 127
1, 100320, Note_on_c, 9, 44, 122
1, 100320, Note_on_c, 9, 36, 127
1, 100332, Note_on_c, 9, 44, 0
1, 100559, Note_on_c, 9, 36, 0
1, 100560, Note_on_c, 9, 44, 96
1, 100572, Note_on_c, 9, 44, 0
1, 100799, Note_on_c, 9, 56, 0
1, 100800, Note_on_c, 9, 54, 127
1, 100800, Note_on_c, 9, 56, 127
1, 100800, Note_on_c, 9, 44, 126
1, 100800, Note_on_c, 9, 36, 127
1, 100812, Note_on_c, 9, 44, 0
1, 101039, Note_on_c, 9, 54, 0
1, 101039, Note_on_c, 9, 56, 0
1, 101039, Note_on_c, 9, 36, 0
1, 101040, Note_on_c, 9, 54, 127
1, 101040, Note_on_c, 9, 44, 99
1, 101052, Note_on_c, 9, 44, 0
1, 101279, Note_on_c, 9, 54, 0
1, 101280, Note_on_c, 9, 54, 127
1, 101280, Note_on_c, 9, 44, 127
1, 101280, Note_on_c, 9, 36, 127
1, 101292, Note_on_c, 9, 44, 0
1, 101295, Note_on_c, 9, 56, 127
1, 101519, Note_on_c, 9, 36, 0
1, 101519, Note_on_c, 9, 56, 0
1, 101520, Note_on_c, 9, 44, 98
1, 101532, Note_on_c, 9, 44, 0
1, 101759, Note_on_c, 9, 54, 0
1, 101760, Note_on_c, 9, 56, 127
1, 101760, Note_on_c, 9, 44, 122
1, 101760, Note_on_c, 9, 36, 127
1, 101772, Note_on_c, 9, 44, 0
1, 101999, Note_on_c, 9, 36, 0
1, 102000, Note_on_c, 9, 44, 98
1, 102012, Note_on_c, 9, 44, 0
1, 102239, Note_on_c, 9, 56, 0
1, 102240, Note_on_c, 9, 56, 127
1, 102240, Note_on_c, 9, 44, 124
1, 102240, Note_on_c, 9, 36, 127
1, 102252, Note_on_c, 9, 44, 0
1, 102479, Note_on_c, 9, 36, 0
1, 102480, Note_on_c, 9, 44, 96
1, 102492, Note_on_c, 9, 44, 0
1, 102719, Note_on_c, 9, 56, 0
1, 102720, Note_on_c, 9, 54, 127
1, 102720, Note_on_c, 9, 44, 122
1, 102720, Note_on_c, 9, 36, 127
1, 102732, Note_on_c, 9, 44, 0
1, 102735, Note_on_c, 9, 56, 127
1, 102959, Note_on_c, 9, 54, 0
1, 102959, Note_on_c, 9, 36, 0
1, 102959, Note_on_c, 9, 56, 0
1, 102960, Note_on_c, 9, 54, 127
1, 102960, Note_on_c, 9, 44, 99
1, 102972, Note_on_c, 9, 44, 0
1, 103199, Note_on_c, 9, 54, 0
1, 103200, Note_on_c, 9, 54, 127
1, 103200, Note_on_c, 9, 44, 124
1, 103200, Note_on_c, 9, 36, 127
1, 103212, Note_on_c, 9, 44, 0
1, 103215, Note_on_c, 9, 56, 127
1, 103439, Note_on_c, 9, 36, 0
1, 103439, Note_on_c, 9, 56, 0
1, 103440, Note_on_c, 9, 44, 94
1, 103452, Note_on_c, 9, 44, 0
1, 103679, Note_on_c, 9, 54, 0
1, 103680, Note_on_c, 9, 56, 127
1, 103680, Note_on_c, 9, 44, 126
1, 103680, Note_on_c, 9, 36, 127
1, 103692, Note_on_c, 9, 44, 0
1, 103919, Note_on_c, 9, 36, 0
1, 103920, Note_on_c, 9, 44, 89
1, 103932, Note_on_c, 9, 44, 0
1, 104159, Note_on_c, 9, 56, 0
1, 104160, Note_on_c, 9, 56, 127
1, 104160, Note_on_c, 9, 44, 126
1, 104160, Note_on_c, 9, 36, 127
1, 104172, Note_on_c, 9, 44, 0
1, 104399, Note_on_c, 9, 36, 0
1, 104400, Note_on_c, 9, 44, 98
1, 104412, Note_on_c, 9, 44, 0
1, 104639, Note_on_c, 9, 56, 0
1, 104640, Note_on_c, 9, 54, 127
1, 104640, Note_on_c, 9, 56, 127
1, 104640, Note_on_c, 9, 44, 126
1, 104640, Note_on_c, 9, 36, 127
1, 104652, Note_on_c, 9, 44, 0
1, 104879, Note_on_c, 9, 54, 0
1, 104879, Note_on_c, 9, 56, 0
1, 104879, Note_on_c, 9, 36, 0
1, 104880, Note_on_c, 9, 54, 127
1, 104880, Note_on_c, 9, 44, 97
1, 104892, Note_on_c, 9, 44, 0
1, 105119, Note_on_c, 9, 54, 0
1, 105120, Note_on_c, 9, 54, 127
1, 105120, Note_on_c, 9, 44, 126
1, 105120, Note_on_c, 9, 36, 127
1, 105132, Note_on_c, 9, 44, 0
1, 105135, Note_on_c, 9, 56, 127
1, 105359, Note_on_c, 9, 36, 0
1, 105359, Note_on_c, 9, 56, 0
1, 105360, Note_on_c, 9, 44, 83
1, 105372, Note_on_c, 9, 44, 0
1, 105599, Note_on_c, 9, 54, 0
1, 105600, Note_on_c, 9, 56, 127
1, 105600, Note_on_c, 9, 49, 125
1, 105600, Note_on_c, 9, 44, 122
1, 105600, Note_on_c, 9, 36, 127
1, 105612, Note_on_c, 9, 44, 0
1, 105625, Note_on_c, 9, 49, 0
1, 105839, Note_on_c, 9, 36, 0
1, 105840, Note_on_c, 9, 44, 93
1, 105852, Note_on_c, 9, 44, 0
1, 106079, Note_on_c, 9, 56, 0
1, 106080, Note_on_c, 9, 56, 127
1, 106080, Note_on_c, 9, 44, 126
1, 106080, Note_on_c, 9, 36, 127
1, 106092, Note_on_c, 9, 44, 0
1, 106319, Note_on_c, 9, 36, 0
1, 106320, Note_on_c, 9, 44, 96
1, 106332, Note_on_c, 9, 44, 0
1, 106559, Note_on_c, 9, 56, 0
1, 106560, Note_on_c, 9, 54, 127
1, 106560, Note_on_c, 9, 56, 127
1, 106560, Note_on_c, 9, 44, 124
1, 106560, Note_on_c, 9, 36, 127
1, 106572, Note_on_c, 9, 44, 0
1, 106799, Note_on_c, 9, 54, 0
1, 106799, Note_on_c, 9, 56, 0
1, 106799, Note_on_c, 9, 36, 0
1, 106800, Note_on_c, 9, 54, 127
1, 106800, Note_on_c, 9, 44, 90
1, 106812, Note_on_c, 9, 44, 0
1, 107039, Note_on_c, 9, 54, 0
1, 107040, Note_on_c, 9, 54, 127
1, 107040, Note_on_c, 9, 56, 127
1, 107040, Note_on_c, 9, 44, 126
1, 107040, Note_on_c, 9, 36, 127
1, 107052, Note_on_c, 9, 44, 0
1, 107279, Note_on_c, 9, 36, 0
1, 107280, Note_on_c, 9, 44, 93
1, 107292, Note_on_c, 9, 44, 0
1, 107519, Note_on_c, 9, 54, 0
1, 107519, Note_on_c, 9, 56, 0
1, 107520, Note_on_c, 9, 56, 127
1, 107520, Note_on_c, 9, 44, 126
1, 107520, Note_on_c, 9, 36, 127
1, 107532, Note_on_c, 9, 44, 0
1, 107759, Note_on_c, 9, 36, 0
1, 107760, Note_on_c, 9, 44, 99
1, 107772, Note_on_c, 9, 44, 0
1, 107999, Note_on_c, 9, 56, 0
1, 108000, Note_on_c, 9, 56, 127
1, 108000, Note_on_c, 9, 44, 124
1, 108000, Note_on_c, 9, 36, 127
1, 108012, Note_on_c, 9, 44, 0
1, 108239, Note_on_c, 9, 36, 0
1, 108240, Note_on_c, 9, 44, 79
1, 108252, Note_on_c, 9, 44, 0
1, 108479, Note_on_c, 9, 56, 0
1, 108480, Note_on_c, 9, 54, 127
1, 108480, Note_on_c, 9, 56, 127
1, 108480, Note_on_c, 9, 44, 124
1, 108480, Note_on_c, 9, 36, 127
1, 108492, Note_on_c, 9, 44, 0
1, 108719, Note_on_c, 9, 54, 0
1, 108719, Note_on_c, 9, 56, 0
1, 108719, Note_on_c, 9, 36, 0
1, 108720, Note_on_c, 9, 54, 127
1, 108720, Note_on_c, 9, 44, 96
1, 108732, Note_on_c, 9, 44, 0
1, 108959, Note_on_c, 9, 54, 0
1, 108960, Note_on_c, 9, 54, 127
1, 108960, Note_on_c, 9, 44, 126
1, 108960, Note_on_c, 9, 36, 127
1, 108972, Note_on_c, 9, 44, 0
1, 108975, Note_on_c, 9, 56, 127
1, 109199, Note_on_c, 9, 36, 0
1, 109199, Note_on_c, 9, 56, 0
1, 109200, Note_on_c, 9, 44, 89
1, 109212, Note_on_c, 9, 44, 0
1, 109439, Note_on_c, 9, 54, 0
1, 109440, Note_on_c, 9, 56, 127
1, 109440, Note_on_c, 9, 44, 124
1, 109440, Note_on_c, 9, 36, 127
1, 109452, Note_on_c, 9, 44, 0
1, 109679, Note_on_c, 9, 36, 0
1, 109680, Note_on_c, 9, 44, 92
1, 109692, Note_on_c, 9, 44, 0
1, 109919, Note_on_c, 9, 56, 0
1, 109920, Note_on_c, 9, 56, 127
1, 109920, Note_on_c, 9, 44, 126
1, 109920, Note_on_c, 9, 36, 127
1, 109932, Note_on_c, 9, 44, 0
1, 110159, Note_on_c, 9, 36, 0
1, 110160, Note_on_c, 9, 44, 94
1, 110172, Note_on_c, 9, 44, 0
1, 110399, Note_on_c, 9, 56, 0
1, 110400, Note_on_c, 9, 54, 127
1, 110400, Note_on_c, 9, 56, 127
1, 110400, Note_on_c, 9, 44, 127
1, 110400, Note_on_c, 9, 36, 127
1, 110412, Note_on_c, 9, 44, 0
1, 110639, Note_on_c, 9, 54, 0
1, 110639, Note_on_c, 9, 56, 0
1, 110639, Note_on_c, 9, 36, 0
1, 110640, Note_on_c, 9, 54, 127
1, 110640, Note_on_c, 9, 44, 88
1, 110652, Note_on_c, 9, 44, 0
1, 110879, Note_on_c, 9, 54, 0
1, 110880, Note_on_c, 9, 54, 127
1, 110880, Note_on_c, 9, 56, 127
1, 110880, Note_on_c, 9, 44, 126
1, 110880, Note_on_c, 9, 36, 127
1, 110892, Note_on_c, 9, 44, 0
1, 111119, Note_on_c, 9, 36, 0
1, 111120, Note_on_c, 9, 44, 92
1, 111132, Note_on_c, 9, 44, 0
1, 111359, Note_on_c, 9, 54, 0
1, 111359, Note_on_c, 9, 56, 0
1, 111360, Note_on_c, 9, 56, 127
1, 111360, Note_on_c, 9, 44, 127
1, 111360, Note_on_c, 9, 36, 127
1, 111372, Note_on_c, 9, 44, 0
1, 111599, Note_on_c, 9, 36, 0
1, 111600, Note_on_c, 9, 44, 88
1, 111612, Note_on_c, 9, 44, 0
1, 111839, Note_on_c, 9, 56, 0
1, 111840, Note_on_c, 9, 56, 127
1, 111840, Note_on_c, 9, 44, 127
1, 111840, Note_on_c, 9, 36, 127
1, 111852, Note_on_c, 9, 44, 0
1, 112079, Note_on_c, 9, 36, 0
1, 112080, Note_on_c, 9, 44, 96
1, 112092, Note_on_c, 9, 44, 0
1, 112319, Note_on_c, 9, 56, 0
1, 112320, Note_on_c, 9, 54, 127
1, 112320, Note_on_c, 9, 56, 127
1, 112320, Note_on_c, 9, 44, 127
1, 112320, Note_on_c, 9, 36, 127
1, 112332, Note_on_c, 9, 44, 0
1, 112559, Note_on_c, 9, 54, 0
1, 112559, Note_on_c, 9, 56, 0
1, 112559, Note_on_c, 9, 36, 0
1, 112560, Note_on_c, 9, 54, 127
1, 112560, Note_on_c, 9, 44, 84
1, 112572, Note_on_c, 9, 44, 0
1, 112799, Note_on_c, 9, 54, 0
1, 112800, Note_on_c, 9, 54, 127
1, 112800, Note_on_c, 9, 56, 127
1, 112800, Note_on_c, 9, 44, 127
1, 112800, Note_on_c, 9, 36, 127
1, 112812, Note_on_c, 9, 44, 0
1, 113039, Note_on_c, 9, 36, 0
1, 113040, Note_on_c, 9, 44, 81
1, 113052, Note_on_c, 9, 44, 0
1, 113279, Note_on_c, 9, 54, 0
1, 113279, Note_on_c, 9, 56, 0
1, 113280, Note_on_c, 9, 56, 127
1, 113280, Note_on_c, 9, 44, 127
1, 113280, Note_on_c, 9, 36, 127
1, 113292, Note_on_c, 9, 44, 0
1, 113519, Note_on_c, 9, 36, 0
1, 113520, Note_on_c, 9, 44, 90
1, 113532, Note_on_c, 9, 44, 0
1, 113759, Note_on_c, 9, 56, 0
1, 113760, Note_on_c, 9, 56, 127
1, 113760, Note_on_c, 9, 44, 127
1, 113760, Note_on_c, 9, 36, 127
1, 113772, Note_on_c, 9, 44, 0
1, 113999, Note_on_c, 9, 36, 0
1, 114000, Note_on_c, 9, 44, 98
1, 114012, Note_on_c, 9, 44, 0
1, 114239, Note_on_c, 9, 56, 0
1, 114240, Note_on_c, 9, 54, 127
1, 114240, Note_on_c, 9, 56, 127
1, 114240, Note_on_c, 9, 44, 127
1, 114240, Note_on_c, 9, 36, 127
1, 114252, Note_on_c, 9, 44, 0
1, 114479, Note_on_c, 9, 54, 0
1, 114479, Note_on_c, 9, 56, 0
1, 114479, Note_on_c, 9, 36, 0
1, 114480, Note_on_c, 9, 54, 127
1, 114480, Note_on_c, 9, 44, 90
1, 114492, Note_on_c, 9, 44, 0
1, 114719, Note_on_c, 9, 54, 0
1, 114720, Note_on_c, 9, 54, 127
1, 114720, Note_on_c, 9, 56, 127
1, 114720, Note_on_c, 9, 44, 126
1, 114720, Note_on_c, 9, 36, 127
1, 114732, Note_on_c, 9, 44, 0
1, 114959, Note_on_c, 9, 36, 0
1, 114960, Note_on_c, 9, 44, 97
1, 114972, Note_on_c, 9, 44, 0
1, 115199, Note_on_c, 9, 54, 0
1, 115199, Note_on_c, 9, 56, 0
1, 115200, Note_on_c, 9, 56, 127
1, 115200, Note_on_c, 9, 44, 126
1, 115200, Note_on_c, 9, 36, 127
1, 115212, Note_on_c, 9, 44, 0
1, 115439, Note_on_c, 9, 36, 0
1, 115440, Note_on_c, 9, 44, 98
1, 115452, Note_on_c, 9, 44, 0
1, 115679, Note_on_c, 9, 56, 0
1, 115680, Note_on_c, 9, 56, 127
1, 115680, Note_on_c, 9, 44, 124
1, 115680, Note_on_c, 9, 36, 127
1, 115692, Note_on_c, 9, 44, 0
1, 115919, Note_on_c, 9, 36, 0
1, 115920, Note_on_c, 9, 44, 97
1, 115932, Note_on_c, 9, 44, 0
1, 116159, Note_on_c, 9, 56, 0
1, 116160, Note_on_c, 9, 54, 127
1, 116160, Note_on_c, 9, 56, 127
1, 116160, Note_on_c, 9, 44, 122
1, 116160, Note_on_c, 9, 36, 127
1, 116172, Note_on_c, 9, 44, 0
1, 116399, Note_on_c, 9, 54, 0
1, 116399, Note_on_c, 9, 56, 0
1, 116399, Note_on_c, 9, 36, 0
1, 116400, Note_on_c, 9, 54, 127
1, 116400, Note_on_c, 9, 44, 92
1, 116412, Note_on_c, 9, 44, 0
1, 116639, Note_on_c, 9, 54, 0
1, 116640, Note_on_c, 9, 54, 127
1, 116640, Note_on_c, 9, 56, 127
1, 116640, Note_on_c, 9, 44, 124
1, 116640, Note_on_c, 9, 36, 127
1, 116652, Note_on_c, 9, 44, 0
1, 116879, Note_on_c, 9, 36, 0
1, 116880, Note_on_c, 9, 44, 100
1, 116892, Note_on_c, 9, 44, 0
1, 117119, Note_on_c, 9, 54, 0
1, 117119, Note_on_c, 9, 56, 0
1, 117120, Note_on_c, 9, 56, 127
1, 117120, Note_on_c, 9, 44, 124
1, 117120, Note_on_c, 9, 36, 127
1, 117132, Note_on_c, 9, 44, 0
1, 117359, Note_on_c, 9, 36, 0
1, 117360, Note_on_c, 9, 44, 90
1, 117372, Note_on_c, 9, 44, 0
1, 117599, Note_on_c, 9, 56, 0
1, 117600, Note_on_c, 9, 56, 127
1, 117600, Note_on_c, 9, 44, 124
1, 117600, Note_on_c, 9, 36, 127
1, 117612, Note_on_c, 9, 44, 0
1, 117839, Note_on_c, 9, 36, 0
1, 117840, Note_on_c, 9, 44, 94
1, 117852, Note_on_c, 9, 44, 0
1, 118079, Note_on_c, 9, 56, 0
1, 118080, Note_on_c, 9, 54, 127
1, 118080, Note_on_c, 9, 56, 127
1, 118080, Note_on_c, 9, 44, 126
1, 118080, Note_on_c, 9, 36, 127
1, 118092, Note_on_c, 9, 44, 0
1, 118319, Note_on_c, 9, 54, 0
1, 118319, Note_on_c, 9, 56, 0
1, 118319, Note_on_c, 9, 36, 0
1, 118320, Note_on_c, 9, 54, 127
1, 118320, Note_on_c, 9, 44, 92
1, 118332, Note_on_c, 9, 44, 0
1, 118559, Note_on_c, 9, 54, 0
1, 118560, Note_on_c, 9, 54, 127
1, 118560, Note_on_c, 9, 56, 127
1, 118560, Note_on_c, 9, 44, 127
1, 118560, Note_on_c, 9, 36, 127
1, 118572, Note_on_c, 9, 44, 0
1, 118799, Note_on_c, 9, 36, 0
1, 118800, Note_on_c, 9, 44, 92
1, 118812, Note_on_c, 9, 44, 0
1, 119039, Note_on_c, 9, 54, 0
1, 119039, Note_on_c, 9, 56, 0
1, 119040, Note_on_c, 9, 56, 127
1, 119040, Note_on_c, 9, 44, 127
1, 119040, Note_on_c, 9, 36, 127
1, 119052, Note_on_c, 9, 44, 0
1, 119279, Note_on_c, 9, 36, 0
1, 119280, Note_on_c, 9, 44, 97
1, 119292, Note_on_c, 9, 44, 0
1, 119519, Note_on_c, 9, 56, 0
1, 119520, Note_on_c, 9, 56, 127
1, 119520, Note_on_c, 9, 44, 127
1, 119520, Note_on_c, 9, 36, 127
1, 119532, Note_on_c, 9, 44, 0
1, 119759, Note_on_c, 9, 36, 0
1, 119760, Note_on_c, 9, 44, 88
1, 119772, Note_on_c, 9, 44, 0
1, 119999, Note_on_c, 9, 56, 0
1, 120000, Note_on_c, 9, 54, 127
1, 120000, Note_on_c, 9, 56, 127
1, 120000, Note_on_c, 9, 44, 127
1, 120000, Note_on_c, 9, 36, 127
1, 120012, Note_on_c, 9, 44, 0
1, 120239, Note_on_c, 9, 54, 0
1, 120239, Note_on_c, 9, 56, 0
1, 120239, Note_on_c, 9, 36, 0
1, 120240, Note_on_c, 9, 54, 127
1, 120240, Note_on_c, 9, 44, 86
1, 120252, Note_on_c, 9, 44, 0
1, 120479, Note_on_c, 9, 54, 0
1, 120480, Note_on_c, 9, 54, 127
1, 120480, Note_on_c, 9, 56, 127
1, 120480, Note_on_c, 9, 44, 127
1, 120480, Note_on_c, 9, 36, 127
1, 120492, Note_on_c, 9, 44, 0
1, 120719, Note_on_c, 9, 36, 0
1, 120720, Note_on_c, 9, 44, 95
1, 120732, Note_on_c, 9, 44, 0
1, 120959, Note_on_c, 9, 54, 0
1, 120959, Note_on_c, 9, 56, 0
1, 120960, Note_on_c, 9, 56, 127
1, 120960, Note_on_c, 9, 44, 127
1, 120960, Note_on_c, 9, 36, 127
1, 120972, Note_on_c, 9, 44, 0
1, 121199, Note_on_c, 9, 36, 0
1, 121200, Note_on_c, 9, 44, 97
1, 121212, Note_on_c, 9, 44, 0
1, 121439, Note_on_c, 9, 56, 0
1, 121440, Note_on_c, 9, 56, 127
1, 121440, Note_on_c, 9, 44, 127
1, 121440, Note_on_c, 9, 36, 127
1, 121452, Note_on_c, 9, 44, 0
1, 121679, Note_on_c, 9, 36, 0
1, 121680, Note_on_c, 9, 44, 101
1, 121692, Note_on_c, 9, 44, 0
1, 121919, Note_on_c, 9, 56, 0
1, 121920, Note_on_c, 9, 54, 127
1, 121920, Note_on_c, 9, 56, 127
1, 121920, Note_on_c, 9, 44, 127
1, 121920, Note_on_c, 9, 36, 127
1, 121932, Note_on_c, 9, 44, 0
1, 122159, Note_on_c, 9, 54, 0
1, 122159, Note_on_c, 9, 56, 0
1, 122159, Note_on_c, 9, 36, 0
1, 122160, Note_on_c, 9, 54, 127
1, 122160, Note_on_c, 9, 44, 95
1, 122172, Note_on_c, 9, 44, 0
1, 122399, Note_on_c, 9, 54, 0
1, 122400, Note_on_c, 9, 54, 127
1, 122400, Note_on_c, 9, 56, 127
1, 122400, Note_on_c, 9, 44, 127
1, 122400, Note_on_c, 9, 36, 127
1, 122412, Note_on_c, 9, 44, 0
1, 122639, Note_on_c, 9, 36, 0
1, 122640, Note_on_c, 9, 44, 97
1, 122652, Note_on_c, 9, 44, 0
1, 122879, Note_on_c, 9, 54, 0
1, 122879, Note_on_c, 9, 56, 0
1, 122880, Note_on_c, 9, 56, 127
1, 122880, Note_on_c, 9, 44, 127
1, 122880, Note_on_c, 9, 36, 127
1, 122892, Note_on_c, 9, 44, 0
1, 123119, Note_on_c, 9, 36, 0
1, 123120, Note_on_c, 9, 44, 94
1, 123132, Note_on_c, 9, 44, 0
1, 123359, Note_on_c, 9, 56, 0
1, 123360, Note_on_c, 9, 56, 127
1, 123360, Note_on_c, 9, 44, 124
1, 123360, Note_on_c, 9, 36, 127
1, 123372, Note_on_c, 9, 44, 0
1, 123599, Note_on_c, 9, 36, 0
1, 123600, Note_on_c, 9, 44, 99
1, 123612, Note_on_c, 9, 44, 0
1, 123839, Note_on_c, 9, 56, 0
1, 123840, Note_on_c, 9, 54, 127
1, 123840, Note_on_c, 9, 56, 127
1, 123840, Note_on_c, 9, 44, 124
1, 123840, Note_on_c, 9, 36, 127
1, 123852, Note_on_c, 9, 44, 0
1, 124079, Note_on_c, 9, 54, 0
1, 124079, Note_on_c, 9, 56, 0
1, 124079, Note_on_c, 9, 36, 0
1, 124080, Note_on_c, 9, 54, 127
1, 124080, Note_on_c, 9, 44, 94
1, 124092, Note_on_c, 9, 44, 0
1, 124319, Note_on_c, 9, 54, 0
1, 124320, Note_on_c, 9, 54, 127
1, 124320, Note_on_c, 9, 56, 127
1, 124320, Note_on_c, 9, 44, 126
1, 124320, Note_on_c, 9, 36, 127
1, 124332, Note_on_c, 9, 44, 0
1, 124559, Note_on_c, 9, 36, 0
1, 124560, Note_on_c, 9, 44, 100
1, 124572, Note_on_c, 9, 44, 0
1, 124799, Note_on_c, 9, 54, 0
1, 124799, Note_on_c, 9, 56, 0
1, 124800, Note_on_c, 9, 56, 127
1, 124800, Note_on_c, 9, 44, 127
1, 124800, Note_on_c, 9, 36, 127
1, 124812, Note_on_c, 9, 44, 0
1, 125039, Note_on_c, 9, 36, 0
1, 125040, Note_on_c, 9, 44, 99
1, 125052, Note_on_c, 9, 44, 0
1, 125279, Note_on_c, 9, 56, 0
1, 125280, Note_on_c, 9, 56, 127
1, 125280, Note_on_c, 9, 44, 127
1, 125280, Note_on_c, 9, 36, 127
1, 125292, Note_on_c, 9, 44, 0
1, 125519, Note_on_c, 9, 36, 0
1, 125520, Note_on_c, 9, 44, 74
1, 125532, Note_on_c, 9, 44, 0
1, 125759, Note_on_c, 9, 56, 0
1, 125760, Note_on_c, 9, 54, 127
1, 125760, Note_on_c, 9, 56, 127
1, 125760, Note_on_c, 9, 44, 127
1, 125760, Note_on_c, 9, 36, 127
1, 125772, Note_on_c, 9, 44, 0
1, 125999, Note_on_c, 9, 54, 0
1, 125999, Note_on_c, 9, 56, 0
1, 125999, Note_on_c, 9, 36, 0
1, 126000, Note_on_c, 9, 54, 127
1, 126000, Note_on_c, 9, 44, 95
1, 126012, Note_on_c, 9, 44, 0
1, 126239, Note_on_c, 9, 54, 0
1, 126240, Note_on_c, 9, 54, 127
1, 126240, Note_on_c, 9, 56, 127
1, 126240, Note_on_c, 9, 44, 127
1, 126240, Note_on_c, 9, 36, 127
1, 126252, Note_on_c, 9, 44, 0
1, 126479, Note_on_c, 9, 36, 0
1, 126480, Note_on_c, 9, 44, 102
1, 126492, Note_on_c, 9, 44, 0
1, 126719, Note_on_c, 9, 54, 0
1, 126719, Note_on_c, 9, 56, 0
1, 126720, Note_on_c, 9, 56, 127
1, 126720, Note_on_c, 9, 44, 127
1, 126720, Note_on_c, 9, 36, 127
1, 126732, Note_on_c, 9, 44, 0
1, 126959, Note_on_c, 9, 36, 0
1, 126960, Note_on_c, 9, 44, 95
1, 126972, Note_on_c, 9, 44, 0
1, 127199, Note_on_c, 9, 56, 0
1, 127200, Note_on_c, 9, 56, 127
1, 127200, Note_on_c, 9, 44, 126
1, 127200, Note_on_c, 9, 36, 127
1, 127212, Note_on_c, 9, 44, 0
1, 127439, Note_on_c, 9, 36, 0
1, 127440, Note_on_c, 9, 44, 90
1, 127452, Note_on_c, 9, 44, 0
1, 127679, Note_on_c, 9, 56, 0
1, 127680, Note_on_c, 9, 54, 127
1, 127680, Note_on_c, 9, 56, 127
1, 127680, Note_on_c, 9, 44, 124
1, 127680, Note_on_c, 9, 36, 127
1, 127692, Note_on_c, 9, 44, 0
1, 127919, Note_on_c, 9, 54, 0
1, 127919, Note_on_c, 9, 56, 0
1, 127919, Note_on_c, 9, 36, 0
1, 127920, Note_on_c, 9, 54, 127
1, 127920, Note_on_c, 9, 44, 96
1, 127932, Note_on_c, 9, 44, 0
1, 128159, Note_on_c, 9, 54, 0
1, 128160, Note_on_c, 9, 54, 127
1, 128160, Note_on_c, 9, 56, 127
1, 128160, Note_on_c, 9, 44, 127
1, 128160, Note_on_c, 9, 36, 127
1, 128172, Note_on_c, 9, 44, 0
1, 128399, Note_on_c, 9, 36, 0
1, 128400, Note_on_c, 9, 44, 99
1, 128412, Note_on_c, 9, 44, 0
1, 128639, Note_on_c, 9, 54, 0
1, 128639, Note_on_c, 9, 56, 0
1, 128640, Note_on_c, 9, 56, 127
1, 128640, Note_on_c, 9, 44, 127
1, 128640, Note_on_c, 9, 36, 127
1, 128652, Note_on_c, 9, 44, 0
1, 128879, Note_on_c, 9, 36, 0
1, 128880, Note_on_c, 9, 44, 100
1, 128892, Note_on_c, 9, 44, 0
1, 129119, Note_on_c, 9, 56, 0
1, 129120, Note_on_c, 9, 56, 127
1, 129120, Note_on_c, 9, 44, 127
1, 129120, Note_on_c, 9, 36, 127
1, 129132, Note_on_c, 9, 44, 0
1, 129359, Note_on_c, 9, 36, 0
1, 129360, Note_on_c, 9, 44, 97
1, 129372, Note_on_c, 9, 44, 0
1, 129599, Note_on_c, 9, 56, 0
1, 129600, Note_on_c, 9, 54, 127
1, 129600, Note_on_c, 9, 56, 127
1, 129600, Note_on_c, 9, 44, 127
1, 129600, Note_on_c, 9, 36, 127
1, 129612, Note_on_c, 9, 44, 0
1, 129839, Note_on_c, 9, 54, 0
1, 129839, Note_on_c, 9, 56, 0
1, 129839, Note_on_c, 9, 36, 0
1, 129840, Note_on_c, 9, 54, 127
1, 129840, Note_on_c, 9, 44, 94
1, 129852, Note_on_c, 9, 44, 0
1, 130079, Note_on_c, 9, 54, 0
1, 130080, Note_on_c, 9, 54, 127
1, 130080, Note_on_c, 9, 56, 127
1, 130080, Note_on_c, 9, 44, 126
1, 130080, Note_on_c, 9, 36, 127
1, 130092, Note_on_c, 9, 44, 0
1, 130319, Note_on_c, 9, 36, 0
1, 130320, Note_on_c, 9, 44, 94
1, 130332, Note_on_c, 9, 44, 0
1, 130559, Note_on_c, 9, 54, 0
1, 130559, Note_on_c, 9, 56, 0
1, 130560, Note_on_c, 9, 56, 127
1, 130560, Note_on_c, 9, 44, 127
1, 130560, Note_on_c, 9, 36, 127
1, 130572, Note_on_c, 9, 44, 0
1, 130799, Note_on_c, 9, 36, 0
1, 130800, Note_on_c, 9, 44, 92
1, 130812, Note_on_c, 9, 44, 0
1, 131039, Note_on_c, 9, 56, 0
1, 131040, Note_on_c, 9, 56, 127
1, 131040, Note_on_c, 9, 44, 126
1, 131040, Note_on_c, 9, 36, 127
1, 131052, Note_on_c, 9, 44, 0
1, 131279, Note_on_c, 9, 36, 0
1, 131280, Note_on_c, 9, 44, 94
1, 131292, Note_on_c, 9, 44, 0
1, 131519, Note_on_c, 9, 56, 0
1, 131520, Note_on_c, 9, 54, 127
1, 131520, Note_on_c, 9, 56, 127
1, 131520, Note_on_c, 9, 44, 126
1, 131520, Note_on_c, 9, 36, 127
1, 131532, Note_on_c, 9, 44, 0
1, 131759, Note_on_c, 9, 54, 0
1, 131759, Note_on_c, 9, 56, 0
1, 131759, Note_on_c, 9, 36, 0
1, 131760, Note_on_c, 9, 54, 127
1, 131760, Note_on_c, 9, 44, 96
1, 131772, Note_on_c, 9, 44, 0
1, 131999, Note_on_c, 9, 54, 0
1, 132000, Note_on_c, 9, 54, 127
1, 132000, Note_on_c, 9, 56, 127
1, 132000, Note_on_c, 9, 44, 126
1, 132000, Note_on_c, 9, 36, 127
1, 132012, Note_on_c, 9, 44, 0
1, 132239, Note_on_c, 9, 36, 0
1, 132240, Note_on_c, 9, 44, 94
1, 132252, Note_on_c, 9, 44, 0
1, 132479, Note_on_c, 9, 54, 0
1, 132479, Note_on_c, 9, 56, 0
1, 132480, Note_on_c, 9, 56, 127
1, 132480, Note_on_c, 9, 44, 127
1, 132480, Note_on_c, 9, 36, 127
1, 132492, Note_on_c, 9, 44, 0
1, 132719, Note_on_c, 9, 36, 0
1, 132720, Note_on_c, 9, 44, 98
1, 132732, Note_on_c, 9, 44, 0
1, 132959, Note_on_c, 9, 56, 0
1, 132960, Note_on_c, 9, 56, 127
1, 132960, Note_on_c, 9, 44, 126
1, 132960, Note_on_c, 9, 36, 127
1, 132972, Note_on_c, 9, 44, 0
1, 133199, Note_on_c, 9, 36, 0
1, 133200, Note_on_c, 9, 44, 100
1, 133212, Note_on_c, 9, 44, 0
1, 133439, Note_on_c, 9, 56, 0
1, 133440, Note_on_c, 9, 54, 127
1, 133440, Note_on_c, 9, 56, 127
1, 133440, Note_on_c, 9, 44, 127
1, 133440, Note_on_c, 9, 36, 127
1, 133452, Note_on_c, 9, 44, 0
1, 133679, Note_on_c, 9, 54, 0
1, 133679, Note_on_c, 9, 56, 0
1, 133679, Note_on_c, 9, 36, 0
1, 133680, Note_on_c, 9, 54, 127
1, 133680, Note_on_c, 9, 44, 95
1, 133692, Note_on_c, 9, 44, 0
1, 133919, Note_on_c, 9, 54, 0
1, 133920, Note_on_c, 9, 54, 127
1, 133920, Note_on_c, 9, 56, 127
1, 133920, Note_on_c, 9, 44, 127
1, 133920, Note_on_c, 9, 36, 127
1, 133932, Note_on_c, 9, 44, 0
1, 134159, Note_on_c, 9, 36, 0
1, 134160, Note_on_c, 9, 44, 98
1, 134172, Note_on_c, 9, 44, 0
1, 134399, Note_on_c, 9, 54, 0
1, 134399, Note_on_c, 9, 56, 0
1, 134400, Note_on_c, 9, 56, 127
1, 134400, Note_on_c, 9, 44, 127
1, 134400, Note_on_c, 9, 36, 127
1, 134412, Note_on_c, 9, 44, 0
1, 134639, Note_on_c, 9, 36, 0
1, 134640, Note_on_c, 9, 44, 97
1, 134652, Note_on_c, 9, 44, 0
1, 134879, Note_on_c, 9, 56, 0
1, 134880, Note_on_c, 9, 56, 127
1, 134880, Note_on_c, 9, 44, 126
1, 134880, Note_on_c, 9, 36, 127
1, 134892, Note_on_c, 9, 44, 0
1, 135119, Note_on_c, 9, 36, 0
1, 135120, Note_on_c, 9, 44, 101
1, 135132, Note_on_c, 9, 44, 0
1, 135359, Note_on_c, 9, 56, 0
1, 135360, Note_on_c, 9, 54, 127
1, 135360, Note_on_c, 9, 56, 127
1, 135360, Note_on_c, 9, 44, 127
1, 135360, Note_on_c, 9, 36, 127
1, 135372, Note_on_c, 9, 44, 0
1, 135599, Note_on_c, 9, 54, 0
1, 135599, Note_on_c, 9, 56, 0
1, 135599, Note_on_c, 9, 36, 0
1, 135600, Note_on_c, 9, 54, 127
1, 135600, Note_on_c, 9, 44, 96
1, 135612, Note_on_c, 9, 44, 0
1, 135839, Note_on_c, 9, 54, 0
1, 135840, Note_on_c, 9, 54, 127
1, 135840, Note_on_c, 9, 56, 127
1, 135840, Note_on_c, 9, 44, 126
1, 135840, Note_on_c, 9, 36, 127
1, 135852, Note_on_c, 9, 44, 0
1, 136079, Note_on_c, 9, 36, 0
1, 136080, Note_on_c, 9, 44, 99
1, 136092, Note_on_c, 9, 44, 0
1, 136319, Note_on_c, 9, 54, 0
1, 136319, Note_on_c, 9, 56, 0
1, 136320, Note_on_c, 9, 56, 127
1, 136320, Note_on_c, 9, 49, 125
1, 136320, Note_on_c, 9, 44, 126
1, 136320, Note_on_c, 9, 36, 127
1, 136332, Note_on_c, 9, 44, 0
1, 136345, Note_on_c, 9, 49, 0
1, 136559, Note_on_c, 9, 36, 0
1, 136560, Note_on_c, 9, 44, 82
1, 136572, Note_on_c, 9, 44, 0
1, 136799, Note_on_c, 9, 56, 0
1, 136800, Note_on_c, 9, 56, 127
1, 136800, Note_on_c, 9, 44, 126
1, 136800, Note_on_c, 9, 36, 127
1, 136812, Note_on_c, 9, 44, 0
1, 137039, Note_on_c, 9, 36, 0
1, 137040, Note_on_c, 9, 44, 87
1, 137052, Note_on_c, 9, 44, 0
1, 137279, Note_on_c, 9, 56, 0
1, 137280, Note_on_c, 9, 54, 127
1, 137280, Note_on_c, 9, 56, 127
1, 137280, Note_on_c, 9, 44, 127
1, 137280, Note_on_c, 9, 36, 127
1, 137292, Note_on_c, 9, 44, 0
1, 137519, Note_on_c, 9, 54, 0
1, 137519, Note_on_c, 9, 56, 0
1, 137519, Note_on_c, 9, 36, 0
1, 137520, Note_on_c, 9, 54, 127
1, 137520, Note_on_c, 9, 44, 104
1, 137532, Note_on_c, 9, 44, 0
1, 137759, Note_on_c, 9, 54, 0
1, 137760, Note_on_c, 9, 54, 127
1, 137760, Note_on_c, 9, 56, 127
1, 137760, Note_on_c, 9, 44, 127
1, 137760, Note_on_c, 9, 36, 127
1, 137772, Note_on_c, 9, 44, 0
1, 137999, Note_on_c, 9, 36, 0
1, 138000, Note_on_c, 9, 44, 98
1, 138012, Note_on_c, 9, 44, 0
1, 138239, Note_on_c, 9, 54, 0
1, 138239, Note_on_c, 9, 56, 0
1, 138240, Note_on_c, 9, 56, 127
1, 138240, Note_on_c, 9, 44, 127
1, 138240, Note_on_c, 9, 36, 127
1, 138252, Note_on_c, 9, 44, 0
1, 138479, Note_on_c, 9, 36, 0
1, 138480, Note_on_c, 9, 44, 119
1, 138492, Note_on_c, 9, 44, 0
1, 138719, Note_on_c, 9, 56, 0
1, 138720, Note_on_c, 9, 56, 127
1, 138720, Note_on_c, 9, 44, 127
1, 138720, Note_on_c, 9, 36, 127
1, 138732, Note_on_c, 9, 44, 0
1, 138959, Note_on_c, 9, 36, 0
1, 138960, Note_on_c, 9, 44, 124
1, 138972, Note_on_c, 9, 44, 0
1, 139199, Note_on_c, 9, 56, 0
1, 139200, Note_on_c, 9, 54, 127
1, 139200, Note_on_c, 9, 56, 127
1, 139200, Note_on_c, 9, 44, 127
1, 139200, Note_on_c, 9, 36, 127
1, 139212, Note_on_c, 9, 44, 0
1, 139439, Note_on_c, 9, 54, 0
1, 139439, Note_on_c, 9, 56, 0
1, 139439, Note_on_c, 9, 36, 0
1, 139440, Note_on_c, 9, 54, 127
1, 139440, Note_on_c, 9, 44, 127
1, 139452, Note_on_c, 9, 44, 0
1, 139679, Note_on_c, 9, 54, 0
1, 139680, Note_on_c, 9, 54, 127
1, 139680, Note_on_c, 9, 56, 127
1, 139680, Note_on_c, 9, 44, 127
1, 139680, Note_on_c, 9, 36, 127
1, 139692, Note_on_c, 9, 44, 0
1, 139919, Note_on_c, 9, 36, 0
1, 139920, Note_on_c, 9, 44, 127
1, 139932, Note_on_c, 9, 44, 0
1, 140159, Note_on_c, 9, 54, 0
1, 140159, Note_on_c, 9, 56, 0
1, 140160, Note_on_c, 9, 56, 127
1, 140160, Note_on_c, 9, 49, 125
1, 140160, Note_on_c, 9, 44, 124
1, 140160, Note_on_c, 9, 36, 127
1, 140172, Note_on_c, 9, 44, 0
1, 140185, Note_on_c, 9, 49, 0
1, 140399, Note_on_c, 9, 36, 0
1, 140400, Note_on_c, 9, 44, 109
1, 140412, Note_on_c, 9, 44, 0
1, 140639, Note_on_c, 9, 56, 0
1, 140640, Note_on_c, 9, 56, 127
1, 140640, Note_on_c, 9, 44, 127
1, 140640, Note_on_c, 9, 36, 127
1, 140652, Note_on_c, 9, 44, 0
1, 140879, Note_on_c, 9, 36, 0
1, 140880, Note_on_c, 9, 44, 99
1, 140892, Note_on_c, 9, 44, 0
1, 141119, Note_on_c, 9, 56, 0
1, 141120, Note_on_c, 9, 54, 127
1, 141120, Note_on_c, 9, 56, 127
1, 141120, Note_on_c, 9, 44, 126
1, 141120, Note_on_c, 9, 36, 127
1, 141132, Note_on_c, 9, 44, 0
1, 141359, Note_on_c, 9, 54, 0
1, 141359, Note_on_c, 9, 56, 0
1, 141359, Note_on_c, 9, 36, 0
1, 141360, Note_on_c, 9, 54, 127
1, 141360, Note_on_c, 9, 44, 86
1, 141372, Note_on_c, 9, 44, 0
1, 141599, Note_on_c, 9, 54, 0
1, 141600, Note_on_c, 9, 54, 127
1, 141600, Note_on_c, 9, 56, 127
1, 141600, Note_on_c, 9, 44, 124
1, 141600, Note_on_c, 9, 36, 127
1, 141612, Note_on_c, 9, 44, 0
1, 141839, Note_on_c, 9, 36, 0
1, 141840, Note_on_c, 9, 44, 97
1, 141852, Note_on_c, 9, 44, 0
1, 142079, Note_on_c, 9, 54, 0
1, 142079, Note_on_c, 9, 56, 0
1, 142080, Note_on_c, 9, 56, 127
1, 142080, Note_on_c, 9, 44, 122
1, 142080, Note_on_c, 9, 36, 127
1, 142092, Note_on_c, 9, 44, 0
1, 142319, Note_on_c, 9, 36, 0
1, 142320, Note_on_c, 9, 44, 85
1, 142332, Note_on_c, 9, 44, 0
1, 142559, Note_on_c, 9, 56, 0
1, 142560, Note_on_c, 9, 56, 127
1, 142560, Note_on_c, 9, 44, 127
1, 142560, Note_on_c, 9, 36, 127
1, 142572, Note_on_c, 9, 44, 0
1, 142799, Note_on_c, 9, 36, 0
1, 142800, Note_on_c, 9, 44, 97
1, 142812, Note_on_c, 9, 44, 0
1, 143039, Note_on_c, 9, 56, 0
1, 143040, Note_on_c, 9, 54, 127
1, 143040, Note_on_c, 9, 56, 127
1, 143040, Note_on_c, 9, 44, 120
1, 143040, Note_on_c, 9, 36, 127
1, 143052, Note_on_c, 9, 44, 0
1, 143279, Note_on_c, 9, 54, 0
1, 143279, Note_on_c, 9, 56, 0
1, 143279, Note_on_c, 9, 36, 0
1, 143280, Note_on_c, 9, 54, 127
1, 143280, Note_on_c, 9, 44, 94
1, 143292, Note_on_c, 9, 44, 0
1, 143519, Note_on_c, 9, 54, 0
1, 143520, Note_on_c, 9, 54, 127
1, 143520, Note_on_c, 9, 44, 127
1, 143520, Note_on_c, 9, 36, 127
1, 143532, Note_on_c, 9, 44, 0
1, 143535, Note_on_c, 9, 56, 127
1, 143759, Note_on_c, 9, 36, 0
1, 143759, Note_on_c, 9, 56, 0
1, 143760, Note_on_c, 9, 44, 98
1, 143772, Note_on_c, 9, 44, 0
1, 143999, Note_on_c, 9, 54, 0
1, 144000, Note_on_c, 9, 56, 127
1, 144000, Note_on_c, 9, 44, 127
1, 144000, Note_on_c, 9, 36, 127
1, 144012, Note_on_c, 9, 44, 0
1, 144239, Note_on_c, 9, 36, 0
1, 144240, Note_on_c, 9, 44, 84
1, 144252, Note_on_c, 9, 44, 0
1, 144479, Note_on_c, 9, 56, 0
1, 144480, Note_on_c, 9, 56, 127
1, 144480, Note_on_c, 9, 44, 127
1, 144480, Note_on_c, 9, 36, 127
1, 144492, Note_on_c, 9, 44, 0
1, 144719, Note_on_c, 9, 36, 0
1, 144720, Note_on_c, 9, 44, 87
1, 144732, Note_on_c, 9, 44, 0
1, 144959, Note_on_c, 9, 56, 0
1, 144960, Note_on_c, 9, 54, 127
1, 144960, Note_on_c, 9, 56, 127
1, 144960, Note_on_c, 9, 44, 126
1, 144960, Note_on_c, 9, 36, 127
1, 144972, Note_on_c, 9, 44, 0
1, 145199, Note_on_c, 9, 54, 0
1, 145199, Note_on_c, 9, 56, 0
1, 145199, Note_on_c, 9, 36, 0
1, 145200, Note_on_c, 9, 54, 127
1, 145200, Note_on_c, 9, 44, 77
1, 145212, Note_on_c, 9, 44, 0
1, 145439, Note_on_c, 9, 54, 0
1, 145440, Note_on_c, 9, 54, 127
1, 145440, Note_on_c, 9, 44, 126
1, 145440, Note_on_c, 9, 36, 127
1, 145452, Note_on_c, 9, 44, 0
1, 145455, Note_on_c, 9, 56, 127
1, 145679, Note_on_c, 9, 36, 0
1, 145679, Note_on_c, 9, 56, 0
1, 145680, Note_on_c, 9, 44, 88
1, 145692, Note_on_c, 9, 44, 0
1, 145919, Note_on_c, 9, 54, 0
1, 145920, Note_on_c, 9, 56, 127
1, 145920, Note_on_c, 9, 44, 127
1, 145920, Note_on_c, 9, 36, 127
1, 145932, Note_on_c, 9, 44, 0
1, 146159, Note_on_c, 9, 36, 0
1, 146160, Note_on_c, 9, 44, 90
1, 146172, Note_on_c, 9, 44, 0
1, 146399, Note_on_c, 9, 56, 0
1, 146400, Note_on_c, 9, 56, 127
1, 146400, Note_on_c, 9, 44, 127
1, 146400, Note_on_c, 9, 36, 127
1, 146412, Note_on_c, 9, 44, 0
1, 146639, Note_on_c, 9, 36, 0
1, 146640, Note_on_c, 9, 44, 86
1, 146652, Note_on_c, 9, 44, 0
1, 146879, Note_on_c, 9, 56, 0
1, 146880, Note_on_c, 9, 54, 127
1, 146880, Note_on_c, 9, 56, 127
1, 146880, Note_on_c, 9, 44, 126
1, 146880, Note_on_c, 9, 36, 127
1, 146892, Note_on_c, 9, 44, 0
1, 147119, Note_on_c, 9, 54, 0
1, 147119, Note_on_c, 9, 56, 0
1, 147119, Note_on_c, 9, 36, 0
1, 147120, Note_on_c, 9, 54, 127
1, 147120, Note_on_c, 9, 44, 95
1, 147132, Note_on_c, 9, 44, 0
1, 147359, Note_on_c, 9, 54, 0
1, 147360, Note_on_c, 9, 54, 127
1, 147360, Note_on_c, 9, 56, 127
1, 147360, Note_on_c, 9, 44, 127
1, 147360, Note_on_c, 9, 36, 127
1, 147372, Note_on_c, 9, 44, 0
1, 147599, Note_on_c, 9, 36, 0
1, 147600, Note_on_c, 9, 44, 90
1, 147612, Note_on_c, 9, 44, 0
1, 147839, Note_on_c, 9, 54, 0
1, 147839, Note_on_c, 9, 56, 0
1, 147840, Note_on_c, 9, 56, 127
1, 147840, Note_on_c, 9, 49, 125
1, 147840, Note_on_c, 9, 44, 124
1, 147840, Note_on_c, 9, 36, 127
1, 147852, Note_on_c, 9, 44, 0
1, 147865, Note_on_c, 9, 49, 0
1, 148079, Note_on_c, 9, 36, 0
1, 148080, Note_on_c, 9, 44, 92
1, 148092, Note_on_c, 9, 44, 0
1, 148319, Note_on_c, 9, 56, 0
1, 148320, Note_on_c, 9, 56, 127
1, 148320, Note_on_c, 9, 44, 117
1, 148320, Note_on_c, 9, 36, 127
1, 148332, Note_on_c, 9, 44, 0
1, 148559, Note_on_c, 9, 36, 0
1, 148560, Note_on_c, 9, 44, 80
1, 148572, Note_on_c, 9, 44, 0
1, 148799, Note_on_c, 9, 56, 0
1, 148800, Note_on_c, 9, 54, 127
1, 148800, Note_on_c, 9, 56, 127
1, 148800, Note_on_c, 9, 44, 124
1, 148800, Note_on_c, 9, 36, 127
1, 148812, Note_on_c, 9, 44, 0
1, 149039, Note_on_c, 9, 54, 0
1, 149039, Note_on_c, 9, 56, 0
1, 149039, Note_on_c, 9, 36, 0
1, 149040, Note_on_c, 9, 54, 127
1, 149040, Note_on_c, 9, 44, 85
1, 149052, Note_on_c, 9, 44, 0
1, 149279, Note_on_c, 9, 54, 0
1, 149280, Note_on_c, 9, 54, 127
1, 149280, Note_on_c, 9, 56, 127
1, 149280, Note_on_c, 9, 44, 124
1, 149280, Note_on_c, 9, 36, 127
1, 149292, Note_on_c, 9, 44, 0
1, 149519, Note_on_c, 9, 36, 0
1, 149520, Note_on_c, 9, 44, 92
1, 149532, Note_on_c, 9, 44, 0
1, 149759, Note_on_c, 9, 54, 0
1, 149759, Note_on_c, 9, 56, 0
1, 149760, Note_on_c, 9, 56, 127
1, 149760, Note_on_c, 9, 44, 124
1, 149760, Note_on_c, 9, 36, 127
1, 149772, Note_on_c, 9, 44, 0
1, 149999, Note_on_c, 9, 36, 0
1, 150000, Note_on_c, 9, 44, 97
1, 150012, Note_on_c, 9, 44, 0
1, 150239, Note_on_c, 9, 56, 0
1, 150240, Note_on_c, 9, 56, 127
1, 150240, Note_on_c, 9, 44, 127
1, 150240, Note_on_c, 9, 36, 127
1, 150252, Note_on_c, 9, 44, 0
1, 150479, Note_on_c, 9, 36, 0
1, 150480, Note_on_c, 9, 44, 83
1, 150492, Note_on_c, 9, 44, 0
1, 150719, Note_on_c, 9, 56, 0
1, 150720, Note_on_c, 9, 54, 127
1, 150720, Note_on_c, 9, 44, 124
1, 150720, Note_on_c, 9, 36, 127
1, 150732, Note_on_c, 9, 44, 0
1, 150735, Note_on_c, 9, 56, 127
1, 150959, Note_on_c, 9, 54, 0
1, 150959, Note_on_c, 9, 36, 0
1, 150959, Note_on_c, 9, 56, 0
1, 150960, Note_on_c, 9, 54, 127
1, 150960, Note_on_c, 9, 44, 94
1, 150972, Note_on_c, 9, 44, 0
1, 151199, Note_on_c, 9, 54, 0
1, 151200, Note_on_c, 9, 54, 127
1, 151200, Note_on_c, 9, 56, 127
1, 151200, Note_on_c, 9, 44, 124
1, 151200, Note_on_c, 9, 36, 127
1, 151212, Note_on_c, 9, 44, 0
1, 151439, Note_on_c, 9, 36, 0
1, 151440, Note_on_c, 9, 44, 94
1, 151452, Note_on_c, 9, 44, 0
1, 151679, Note_on_c, 9, 54, 0
1, 151679, Note_on_c, 9, 56, 0
1, 151680, Note_on_c, 9, 56, 127
1, 151680, Note_on_c, 9, 44, 118
1, 151680, Note_on_c, 9, 36, 127
1, 151692, Note_on_c, 9, 44, 0
1, 151919, Note_on_c, 9, 36, 0
1, 151920, Note_on_c, 9, 44, 86
1, 151932, Note_on_c, 9, 44, 0
1, 152159, Note_on_c, 9, 56, 0
1, 152160, Note_on_c, 9, 56, 127
1, 152160, Note_on_c, 9, 44, 122
1, 152160, Note_on_c, 9, 36, 127
1, 152172, Note_on_c, 9, 44, 0
1, 152399, Note_on_c, 9, 36, 0
1, 152400, Note_on_c, 9, 44, 88
1, 152412, Note_on_c, 9, 44, 0
1, 152639, Note_on_c, 9, 56, 0
1, 152640, Note_on_c, 9, 54, 127
1, 152640, Note_on_c, 9, 56, 127
1, 152640, Note_on_c, 9, 44, 122
1, 152640, Note_on_c, 9, 36, 127
1, 152652, Note_on_c, 9, 44, 0
1, 152879, Note_on_c, 9, 54, 0
1, 152879, Note_on_c, 9, 56, 0
1, 152879, Note_on_c, 9, 36, 0
1, 152880, Note_on_c, 9, 54, 127
1, 152880, Note_on_c, 9, 44, 94
1, 152892, Note_on_c, 9, 44, 0
1, 153119, Note_on_c, 9, 54, 0
1, 153120, Note_on_c, 9, 54, 127
1, 153120, Note_on_c, 9, 44, 122
1, 153120, Note_on_c, 9, 36, 127
1, 153132, Note_on_c, 9, 44, 0
1, 153135, Note_on_c, 9, 56, 127
1, 153359, Note_on_c, 9, 36, 0
1, 153359, Note_on_c, 9, 56, 0
1, 153360, Note_on_c, 9, 44, 83
1, 153372, Note_on_c, 9, 44, 0
1, 153599, Note_on_c, 9, 54, 0
1, 153600, Note_on_c, 9, 56, 127
1, 153600, Note_on_c, 9, 44, 126
1, 153600, Note_on_c, 9, 36, 127
1, 153612, Note_on_c, 9, 44, 0
1, 153839, Note_on_c, 9, 36, 0
1, 153840, Note_on_c, 9, 44, 78
1, 153852, Note_on_c, 9, 44, 0
1, 154079, Note_on_c, 9, 56, 0
1, 154080, Note_on_c, 9, 56, 127
1, 154080, Note_on_c, 9, 44, 127
1, 154080, Note_on_c, 9, 36, 127
1, 154092, Note_on_c, 9, 44, 0
1, 154319, Note_on_c, 9, 36, 0
1, 154320, Note_on_c, 9, 44, 88
1, 154332, Note_on_c, 9, 44, 0
1, 154559, Note_on_c, 9, 56, 0
1, 154560, Note_on_c, 9, 54, 127
1, 154560, Note_on_c, 9, 56, 127
1, 154560, Note_on_c, 9, 44, 126
1, 154560, Note_on_c, 9, 36, 127
1, 154572, Note_on_c, 9, 44, 0
1, 154799, Note_on_c, 9, 54, 0
1, 154799, Note_on_c, 9, 56, 0
1, 154799, Note_on_c, 9, 36, 0
1, 154800, Note_on_c, 9, 54, 127
1, 154800, Note_on_c, 9, 44, 91
1, 154812, Note_on_c, 9, 44, 0
1, 155039, Note_on_c, 9, 54, 0
1, 155040, Note_on_c, 9, 54, 127
1, 155040, Note_on_c, 9, 56, 127
1, 155040, Note_on_c, 9, 44, 126
1, 155040, Note_on_c, 9, 36, 127
1, 155052, Note_on_c, 9, 44, 0
1, 155279, Note_on_c, 9, 36, 0
1, 155280, Note_on_c, 9, 44, 85
1, 155292, Note_on_c, 9, 44, 0
1, 155519, Note_on_c, 9, 54, 0
1, 155519, Note_on_c, 9, 56, 0
1, 155520, Note_on_c, 9, 56, 127
1, 155520, Note_on_c, 9, 44, 127
1, 155520, Note_on_c, 9, 36, 127
1, 155532, Note_on_c, 9, 44, 0
1, 155759, Note_on_c, 9, 36, 0
1, 155760, Note_on_c, 9, 44, 92
1, 155772, Note_on_c, 9, 44, 0
1, 155999, Note_on_c, 9, 56, 0
1, 156000, Note_on_c, 9, 56, 127
1, 156000, Note_on_c, 9, 44, 127
1, 156000, Note_on_c, 9, 36, 127
1, 156012, Note_on_c, 9, 44, 0
1, 156239, Note_on_c, 9, 36, 0
1, 156240, Note_on_c, 9, 44, 87
1, 156252, Note_on_c, 9, 44, 0
1, 156479, Note_on_c, 9, 56, 0
1, 156480, Note_on_c, 9, 54, 127
1, 156480, Note_on_c, 9, 44, 127
1, 156480, Note_on_c, 9, 36, 127
1, 156492, Note_on_c, 9, 44, 0
1, 156495, Note_on_c, 9, 56, 127
1, 156719, Note_on_c, 9, 54, 0
1, 156719, Note_on_c, 9, 36, 0
1, 156719, Note_on_c, 9, 56, 0
1, 156720, Note_on_c, 9, 54, 127
1, 156720, Note_on_c, 9, 44, 101
1, 156732, Note_on_c, 9, 44, 0
1, 156959, Note_on_c, 9, 54, 0
1, 156960, Note_on_c, 9, 54, 127
1, 156960, Note_on_c, 9, 56, 127
1, 156960, Note_on_c, 9, 44, 124
1, 156960, Note_on_c, 9, 36, 127
1, 156972, Note_on_c, 9, 44, 0
1, 157199, Note_on_c, 9, 36, 0
1, 157200, Note_on_c, 9, 44, 101
1, 157212, Note_on_c, 9, 44, 0
1, 157439, Note_on_c, 9, 54, 0
1, 157439, Note_on_c, 9, 56, 0
1, 157440, Note_on_c, 9, 56, 127
1, 157440, Note_on_c, 9, 44, 122
1, 157440, Note_on_c, 9, 36, 127
1, 157452, Note_on_c, 9, 44, 0
1, 157679, Note_on_c, 9, 36, 0
1, 157680, Note_on_c, 9, 44, 97
1, 157692, Note_on_c, 9, 44, 0
1, 157919, Note_on_c, 9, 56, 0
1, 157920, Note_on_c, 9, 56, 127
1, 157920, Note_on_c, 9, 44, 126
1, 157920, Note_on_c, 9, 36, 127
1, 157932, Note_on_c, 9, 44, 0
1, 158159, Note_on_c, 9, 36, 0
1, 158160, Note_on_c, 9, 44, 97
1, 158172, Note_on_c, 9, 44, 0
1, 158399, Note_on_c, 9, 56, 0
1, 158400, Note_on_c, 9, 54, 127
1, 158400, Note_on_c, 9, 44, 120
1, 158400, Note_on_c, 9, 36, 127
1, 158412, Note_on_c, 9, 44, 0
1, 158415, Note_on_c, 9, 56, 127
1, 158639, Note_on_c, 9, 54, 0
1, 158639, Note_on_c, 9, 36, 0
1, 158639, Note_on_c, 9, 56, 0
1, 158640, Note_on_c, 9, 54, 127
1, 158640, Note_on_c, 9, 44, 93
1, 158652, Note_on_c, 9, 44, 0
1, 158879, Note_on_c, 9, 54, 0
1, 158880, Note_on_c, 9, 54, 127
1, 158880, Note_on_c, 9, 56, 127
1, 158880, Note_on_c, 9, 44, 122
1, 158880, Note_on_c, 9, 36, 127
1, 158892, Note_on_c, 9, 44, 0
1, 159119, Note_on_c, 9, 36, 0
1, 159120, Note_on_c, 9, 44, 87
1, 159132, Note_on_c, 9, 44, 0
1, 159359, Note_on_c, 9, 54, 0
1, 159359, Note_on_c, 9, 56, 0
1, 159360, Note_on_c, 9, 56, 127
1, 159360, Note_on_c, 9, 44, 122
1, 159360, Note_on_c, 9, 36, 127
1, 159372, Note_on_c, 9, 44, 0
1, 159599, Note_on_c, 9, 36, 0
1, 159600, Note_on_c, 9, 44, 94
1, 159612, Note_on_c, 9, 44, 0
1, 159839, Note_on_c, 9, 56, 0
1, 159840, Note_on_c, 9, 56, 127
1, 159840, Note_on_c, 9, 44, 122
1, 159840, Note_on_c, 9, 36, 127
1, 159852, Note_on_c, 9, 44, 0
1, 160079, Note_on_c, 9, 36, 0
1, 160080, Note_on_c, 9, 44, 94
1, 160092, Note_on_c, 9, 44, 0
1, 160319, Note_on_c, 9, 56, 0
1, 160320, Note_on_c, 9, 54, 127
1, 160320, Note_on_c, 9, 44, 124
1, 160320, Note_on_c, 9, 36, 127
1, 160332, Note_on_c, 9, 44, 0
1, 160335, Note_on_c, 9, 56, 127
1, 160559, Note_on_c, 9, 54, 0
1, 160559, Note_on_c, 9, 36, 0
1, 160559, Note_on_c, 9, 56, 0
1, 160560, Note_on_c, 9, 54, 127
1, 160560, Note_on_c, 9, 44, 93
1, 160572, Note_on_c, 9, 44, 0
1, 160799, Note_on_c, 9, 54, 0
1, 160800, Note_on_c, 9, 54, 127
1, 160800, Note_on_c, 9, 56, 127
1, 160800, Note_on_c, 9, 44, 127
1, 160800, Note_on_c, 9, 36, 127
1, 160812, Note_on_c, 9, 44, 0
1, 161039, Note_on_c, 9, 36, 0
1, 161040, Note_on_c, 9, 44, 85
1, 161052, Note_on_c, 9, 44, 0
1, 161279, Note_on_c, 9, 54, 0
1, 161279, Note_on_c, 9, 56, 0
1, 161280, Note_on_c, 9, 56, 127
1, 161280, Note_on_c, 9, 44, 127
1, 161280, Note_on_c, 9, 36, 127
1, 161292, Note_on_c, 9, 44, 0
1, 161519, Note_on_c, 9, 36, 0
1, 161520, Note_on_c, 9, 44, 95
1, 161532, Note_on_c, 9, 44, 0
1, 161759, Note_on_c, 9, 56, 0
1, 161760, Note_on_c, 9, 56, 127
1, 161760, Note_on_c, 9, 44, 126
1, 161760, Note_on_c, 9, 36, 127
1, 161772, Note_on_c, 9, 44, 0
1, 161999, Note_on_c, 9, 36, 0
1, 162000, Note_on_c, 9, 44, 88
1, 162012, Note_on_c, 9, 44, 0
1, 162239, Note_on_c, 9, 56, 0
1, 162240, Note_on_c, 9, 54, 127
1, 162240, Note_on_c, 9, 56, 127
1, 162240, Note_on_c, 9, 44, 127
1, 162240, Note_on_c, 9, 36, 127
1, 162252, Note_on_c, 9, 44, 0
1, 162479, Note_on_c, 9, 54, 0
1, 162479, Note_on_c, 9, 56, 0
1, 162479, Note_on_c, 9, 36, 0
1, 162480, Note_on_c, 9, 54, 127
1, 162480, Note_on_c, 9, 44, 99
1, 162492, Note_on_c, 9, 44, 0
1, 162719, Note_on_c, 9, 54, 0
1, 162720, Note_on_c, 9, 54, 127
1, 162720, Note_on_c, 9, 56, 127
1, 162720, Note_on_c, 9, 44, 127
1, 162720, Note_on_c, 9, 36, 127
1, 162732, Note_on_c, 9, 44, 0
1, 162959, Note_on_c, 9, 36, 0
1, 162960, Note_on_c, 9, 44, 105
1, 162972, Note_on_c, 9, 44, 0
1, 163199, Note_on_c, 9, 54, 0
1, 163199, Note_on_c, 9, 56, 0
1, 163200, Note_on_c, 9, 56, 127
1, 163200, Note_on_c, 9, 44, 126
1, 163200, Note_on_c, 9, 36, 127
1, 163212, Note_on_c, 9, 44, 0
1, 163439, Note_on_c, 9, 36, 0
1, 163440, Note_on_c, 9, 44, 103
1, 163452, Note_on_c, 9, 44, 0
1, 163679, Note_on_c, 9, 56, 0
1, 163680, Note_on_c, 9, 56, 127
1, 163680, Note_on_c, 9, 44, 127
1, 163680, Note_on_c, 9, 36, 127
1, 163692, Note_on_c, 9, 44, 0
1, 163919, Note_on_c, 9, 36, 0
1, 163920, Note_on_c, 9, 44, 94
1, 163932, Note_on_c, 9, 44, 0
1, 164159, Note_on_c, 9, 56, 0
1, 164160, Note_on_c, 9, 54, 127
1, 164160, Note_on_c, 9, 44, 124
1, 164160, Note_on_c, 9, 36, 127
1, 164172, Note_on_c, 9, 44, 0
1, 164175, Note_on_c, 9, 56, 127
1, 164399, Note_on_c, 9, 54, 0
1, 164399, Note_on_c, 9, 36, 0
1, 164399, Note_on_c, 9, 56, 0
1, 164400, Note_on_c, 9, 54, 127
1, 164400, Note_on_c, 9, 44, 107
1, 164412, Note_on_c, 9, 44, 0
1, 164639, Note_on_c, 9, 54, 0
1, 164640, Note_on_c, 9, 54, 127
1, 164640, Note_on_c, 9, 56, 127
1, 164640, Note_on_c, 9, 44, 127
1, 164640, Note_on_c, 9, 36, 127
1, 164652, Note_on_c, 9, 44, 0
1, 164879, Note_on_c, 9, 36, 0
1, 164880, Note_on_c, 9, 44, 106
1, 164892, Note_on_c, 9, 44, 0
1, 165119, Note_on_c, 9, 54, 0
1, 165119, Note_on_c, 9, 56, 0
1, 165120, Note_on_c, 9, 56, 127
1, 165120, Note_on_c, 9, 44, 127
1, 165120, Note_on_c, 9, 36, 127
1, 165132, Note_on_c, 9, 44, 0
1, 165359, Note_on_c, 9, 36, 0
1, 165360, Note_on_c, 9, 44, 100
1, 165372, Note_on_c, 9, 44, 0
1, 165599, Note_on_c, 9, 56, 0
1, 165600, Note_on_c, 9, 56, 127
1, 165600, Note_on_c, 9, 44, 127
1, 165600, Note_on_c, 9, 36, 127
1, 165612, Note_on_c, 9, 44, 0
1, 165839, Note_on_c, 9, 36, 0
1, 165840, Note_on_c, 9, 44, 105
1, 165852, Note_on_c, 9, 44, 0
1, 166079, Note_on_c, 9, 56, 0
1, 166080, Note_on_c, 9, 54, 127
1, 166080, Note_on_c, 9, 44, 126
1, 166080, Note_on_c, 9, 36, 127
1, 166092, Note_on_c, 9, 44, 0
1, 166095, Note_on_c, 9, 56, 127
1, 166319, Note_on_c, 9, 54, 0
1, 166319, Note_on_c, 9, 36, 0
1, 166319, Note_on_c, 9, 56, 0
1, 166320, Note_on_c, 9, 54, 127
1, 166320, Note_on_c, 9, 44, 91
1, 166332, Note_on_c, 9, 44, 0
1, 166559, Note_on_c, 9, 54, 0
1, 166560, Note_on_c, 9, 54, 127
1, 166560, Note_on_c, 9, 56, 127
1, 166560, Note_on_c, 9, 44, 127
1, 166560, Note_on_c, 9, 36, 127
1, 166572, Note_on_c, 9, 44, 0
1, 166799, Note_on_c, 9, 36, 0
1, 166800, Note_on_c, 9, 44, 118
1, 166812, Note_on_c, 9, 44, 0
1, 167039, Note_on_c, 9, 54, 0
1, 167039, Note_on_c, 9, 56, 0
1, 167040, Note_on_c, 9, 56, 127
1, 167040, Note_on_c, 9, 44, 122
1, 167040, Note_on_c, 9, 36, 127
1, 167052, Note_on_c, 9, 44, 0
1, 167279, Note_on_c, 9, 36, 0
1, 167280, Note_on_c, 9, 44, 106
1, 167292, Note_on_c, 9, 44, 0
1, 167519, Note_on_c, 9, 56, 0
1, 167520, Note_on_c, 9, 56, 127
1, 167520, Note_on_c, 9, 44, 126
1, 167520, Note_on_c, 9, 36, 127
1, 167532, Note_on_c, 9, 44, 0
1, 167759, Note_on_c, 9, 36, 0
1, 167760, Note_on_c, 9, 44, 89
1, 167772, Note_on_c, 9, 44, 0
1, 167999, Note_on_c, 9, 56, 0
1, 168000, Note_on_c, 9, 54, 127
1, 168000, Note_on_c, 9, 56, 127
1, 168000, Note_on_c, 9, 44, 126
1, 168000, Note_on_c, 9, 36, 127
1, 168012, Note_on_c, 9, 44, 0
1, 168239, Note_on_c, 9, 54, 0
1, 168239, Note_on_c, 9, 56, 0
1, 168239, Note_on_c, 9, 36, 0
1, 168240, Note_on_c, 9, 54, 127
1, 168240, Note_on_c, 9, 44, 99
1, 168252, Note_on_c, 9, 44, 0
1, 168479, Note_on_c, 9, 54, 0
1, 168480, Note_on_c, 9, 54, 127
1, 168480, Note_on_c, 9, 44, 126
1, 168480, Note_on_c, 9, 36, 127
1, 168492, Note_on_c, 9, 44, 0
1, 168495, Note_on_c, 9, 56, 127
1, 168719, Note_on_c, 9, 36, 0
1, 168719, Note_on_c, 9, 56, 0
1, 168720, Note_on_c, 9, 44, 101
1, 168732, Note_on_c, 9, 44, 0
1, 168959, Note_on_c, 9, 54, 0
1, 168960, Note_on_c, 9, 56, 127
1, 168960, Note_on_c, 9, 44, 127
1, 168960, Note_on_c, 9, 36, 127
1, 168972, Note_on_c, 9, 44, 0
1, 169199, Note_on_c, 9, 36, 0
1, 169200, Note_on_c, 9, 44, 96
1, 169212, Note_on_c, 9, 44, 0
1, 169439, Note_on_c, 9, 56, 0
1, 169440, Note_on_c, 9, 56, 127
1, 169440, Note_on_c, 9, 44, 127
1, 169440, Note_on_c, 9, 36, 127
1, 169452, Note_on_c, 9, 44, 0
1, 169679, Note_on_c, 9, 36, 0
1, 169680, Note_on_c, 9, 44, 101
1, 169692, Note_on_c, 9, 44, 0
1, 169919, Note_on_c, 9, 56, 0
1, 169920, Note_on_c, 9, 54, 127
1, 169920, Note_on_c, 9, 56, 127
1, 169920, Note_on_c, 9, 44, 127
1, 169920, Note_on_c, 9, 36, 127
1, 169932, Note_on_c, 9, 44, 0
1, 170159, Note_on_c, 9, 54, 0
1, 170159, Note_on_c, 9, 56, 0
1, 170159, Note_on_c, 9, 36, 0
1, 170160, Note_on_c, 9, 54, 127
1, 170160, Note_on_c, 9, 44, 98
1, 170172, Note_on_c, 9, 44, 0
1, 170399, Note_on_c, 9, 54, 0
1, 170400, Note_on_c, 9, 54, 127
1, 170400, Note_on_c, 9, 56, 127
1, 170400, Note_on_c, 9, 44, 127
1, 170400, Note_on_c, 9, 36, 127
1, 170412, Note_on_c, 9, 44, 0
1, 170639, Note_on_c, 9, 36, 0
1, 170640, Note_on_c, 9, 44, 101
1, 170652, Note_on_c, 9, 44, 0
1, 170879, Note_on_c, 9, 54, 0
1, 170879, Note_on_c, 9, 56, 0
1, 170880, Note_on_c, 9, 56, 127
1, 170880, Note_on_c, 9, 49, 125
1, 170880, Note_on_c, 9, 44, 127
1, 170880, Note_on_c, 9, 36, 127
1, 170892, Note_on_c, 9, 44, 0
1, 170905, Note_on_c, 9, 49, 0
1, 171119, Note_on_c, 9, 36, 0
1, 171120, Note_on_c, 9, 44, 101
1, 171132, Note_on_c, 9, 44, 0
1, 171359, Note_on_c, 9, 56, 0
1, 171360, Note_on_c, 9, 56, 127
1, 171360, Note_on_c, 9, 44, 127
1, 171360, Note_on_c, 9, 36, 127
1, 171372, Note_on_c, 9, 44, 0
1, 171599, Note_on_c, 9, 36, 0
1, 171600, Note_on_c, 9, 44, 102
1, 171612, Note_on_c, 9, 44, 0
1, 171839, Note_on_c, 9, 56, 0
1, 171840, Note_on_c, 9, 54, 127
1, 171840, Note_on_c, 9, 56, 127
1, 171840, Note_on_c, 9, 44, 127
1, 171840, Note_on_c, 9, 36, 127
1, 171852, Note_on_c, 9, 44, 0
1, 172079, Note_on_c, 9, 54, 0
1, 172079, Note_on_c, 9, 56, 0
1, 172079, Note_on_c, 9, 36, 0
1, 172080, Note_on_c, 9, 54, 127
1, 172080, Note_on_c, 9, 44, 94
1, 172092, Note_on_c, 9, 44, 0
1, 172319, Note_on_c, 9, 54, 0
1, 172320, Note_on_c, 9, 54, 127
1, 172320, Note_on_c, 9, 56, 127
1, 172320, Note_on_c, 9, 44, 126
1, 172320, Note_on_c, 9, 36, 127
1, 172332, Note_on_c, 9, 44, 0
1, 172559, Note_on_c, 9, 36, 0
1, 172560, Note_on_c, 9, 44, 92
1, 172572, Note_on_c, 9, 44, 0
1, 172799, Note_on_c, 9, 54, 0
1, 172799, Note_on_c, 9, 56, 0
1, 172800, Note_on_c, 9, 56, 127
1, 172800, Note_on_c, 9, 44, 127
1, 172800, Note_on_c, 9, 36, 127
1, 172812, Note_on_c, 9, 44, 0
1, 173039, Note_on_c, 9, 36, 0
1, 173040, Note_on_c, 9, 44, 105
1, 173052, Note_on_c, 9, 44, 0
1, 173279, Note_on_c, 9, 56, 0
1, 173280, Note_on_c, 9, 56, 127
1, 173280, Note_on_c, 9, 44, 126
1, 173280, Note_on_c, 9, 36, 127
1, 173292, Note_on_c, 9, 44, 0
1, 173519, Note_on_c, 9, 36, 0
1, 173520, Note_on_c, 9, 44, 101
1, 173532, Note_on_c, 9, 44, 0
1, 173759, Note_on_c, 9, 56, 0
1, 173760, Note_on_c, 9, 54, 127
1, 173760, Note_on_c, 9, 56, 127
1, 173760, Note_on_c, 9, 44, 126
1, 173760, Note_on_c, 9, 36, 127
1, 173772, Note_on_c, 9, 44, 0
1, 173999, Note_on_c, 9, 54, 0
1, 173999, Note_on_c, 9, 56, 0
1, 173999, Note_on_c, 9, 36, 0
1, 174000, Note_on_c, 9, 54, 127
1, 174000, Note_on_c, 9, 44, 106
1, 174012, Note_on_c, 9, 44, 0
1, 174239, Note_on_c, 9, 54, 0
1, 174240, Note_on_c, 9, 54, 127
1, 174240, Note_on_c, 9, 56, 127
1, 174240, Note_on_c, 9, 44, 124
1, 174240, Note_on_c, 9, 36, 127
1, 174252, Note_on_c, 9, 44, 0
1, 174479, Note_on_c, 9, 36, 0
1, 174480, Note_on_c, 9, 44, 97
1, 174492, Note_on_c, 9, 44, 0
1, 174719, Note_on_c, 9, 54, 0
1, 174719, Note_on_c, 9, 56, 0
1, 174720, Note_on_c, 9, 56, 127
1, 174720, Note_on_c, 9, 44, 127
1, 174720, Note_on_c, 9, 36, 127
1, 174732, Note_on_c, 9, 44, 0
1, 174959, Note_on_c, 9, 36, 0
1, 174960, Note_on_c, 9, 44, 96
1, 174972, Note_on_c, 9, 44, 0
1, 175199, Note_on_c, 9, 56, 0
1, 175200, Note_on_c, 9, 56, 127
1, 175200, Note_on_c, 9, 44, 127
1, 175200, Note_on_c, 9, 36, 127
1, 175212, Note_on_c, 9, 44, 0
1, 175439, Note_on_c, 9, 36, 0
1, 175440, Note_on_c, 9, 44, 96
1, 175452, Note_on_c, 9, 44, 0
1, 175679, Note_on_c, 9, 56, 0
1, 175680, Note_on_c, 9, 54, 127
1, 175680, Note_on_c, 9, 56, 127
1, 175680, Note_on_c, 9, 44, 127
1, 175680, Note_on_c, 9, 36, 127
1, 175692, Note_on_c, 9, 44, 0
1, 175919, Note_on_c, 9, 54, 0
1, 175919, Note_on_c, 9, 56, 0
1, 175919, Note_on_c, 9, 36, 0
1, 175920, Note_on_c, 9, 54, 127
1, 175920, Note_on_c, 9, 44, 102
1, 175932, Note_on_c, 9, 44, 0
1, 176159, Note_on_c, 9, 54, 0
1, 176160, Note_on_c, 9, 54, 127
1, 176160, Note_on_c, 9, 56, 127
1, 176160, Note_on_c, 9, 44, 127
1, 176160, Note_on_c, 9, 36, 127
1, 176172, Note_on_c, 9, 44, 0
1, 176399, Note_on_c, 9, 36, 0
1, 176400, Note_on_c, 9, 44, 96
1, 176412, Note_on_c, 9, 44, 0
1, 176639, Note_on_c, 9, 54, 0
1, 176639, Note_on_c, 9, 56, 0
1, 176640, Note_on_c, 9, 56, 127
1, 176640, Note_on_c, 9, 44, 127
1, 176640, Note_on_c, 9, 36, 127
1, 176652, Note_on_c, 9, 44, 0
1, 176879, Note_on_c, 9, 36, 0
1, 176880, Note_on_c, 9, 44, 97
1, 176892, Note_on_c, 9, 44, 0
1, 177119, Note_on_c, 9, 56, 0
1, 177120, Note_on_c, 9, 56, 127
1, 177120, Note_on_c, 9, 44, 127
1, 177120, Note_on_c, 9, 36, 127
1, 177132, Note_on_c, 9, 44, 0
1, 177359, Note_on_c, 9, 36, 0
1, 177360, Note_on_c, 9, 44, 98
1, 177372, Note_on_c, 9, 44, 0
1, 177599, Note_on_c, 9, 56, 0
1, 177600, Note_on_c, 9, 54, 127
1, 177600, Note_on_c, 9, 56, 127
1, 177600, Note_on_c, 9, 44, 126
1, 177600, Note_on_c, 9, 36, 127
1, 177612, Note_on_c, 9, 44, 0
1, 177839, Note_on_c, 9, 54, 0
1, 177839, Note_on_c, 9, 56, 0
1, 177839, Note_on_c, 9, 36, 0
1, 177840, Note_on_c, 9, 54, 127
1, 177840, Note_on_c, 9, 44, 90
1, 177852, Note_on_c, 9, 44, 0
1, 178079, Note_on_c, 9, 54, 0
1, 178080, Note_on_c, 9, 54, 127
1, 178080, Note_on_c, 9, 56, 127
1, 178080, Note_on_c, 9, 44, 124
1, 178080, Note_on_c, 9, 36, 127
1, 178092, Note_on_c, 9, 44, 0
1, 178319, Note_on_c, 9, 36, 0
1, 178320, Note_on_c, 9, 44, 90
1, 178332, Note_on_c, 9, 44, 0
1, 178559, Note_on_c, 9, 54, 0
1, 178559, Note_on_c, 9, 56, 0
1, 178560, Note_on_c, 9, 56, 127
1, 178560, Note_on_c, 9, 49, 125
1, 178560, Note_on_c, 9, 44, 122
1, 178560, Note_on_c, 9, 36, 127
1, 178572, Note_on_c, 9, 44, 0
1, 178585, Note_on_c, 9, 49, 0
1, 178799, Note_on_c, 9, 36, 0
1, 178800, Note_on_c, 9, 44, 100
1, 178812, Note_on_c, 9, 44, 0
1, 179039, Note_on_c, 9, 56, 0
1, 179040, Note_on_c, 9, 56, 127
1, 179040, Note_on_c, 9, 44, 124
1, 179040, Note_on_c, 9, 36, 127
1, 179052, Note_on_c, 9, 44, 0
1, 179279, Note_on_c, 9, 36, 0
1, 179280, Note_on_c, 9, 44, 105
1, 179292, Note_on_c, 9, 44, 0
1, 179519, Note_on_c, 9, 56, 0
1, 179520, Note_on_c, 9, 54, 127
1, 179520, Note_on_c, 9, 56, 127
1, 179520, Note_on_c, 9, 44, 124
1, 179520, Note_on_c, 9, 36, 127
1, 179532, Note_on_c, 9, 44, 0
1, 179759, Note_on_c, 9, 54, 0
1, 179759, Note_on_c, 9, 56, 0
1, 179759, Note_on_c, 9, 36, 0
1, 179760, Note_on_c, 9, 54, 127
1, 179760, Note_on_c, 9, 44, 101
1, 179772, Note_on_c, 9, 44, 0
1, 179999, Note_on_c, 9, 54, 0
1, 180000, Note_on_c, 9, 54, 127
1, 180000, Note_on_c, 9, 56, 127
1, 180000, Note_on_c, 9, 44, 122
1, 180000, Note_on_c, 9, 36, 127
1, 180012, Note_on_c, 9, 44, 0
1, 180239, Note_on_c, 9, 36, 0
1, 180240, Note_on_c, 9, 44, 96
1, 180252, Note_on_c, 9, 44, 0
1, 180479, Note_on_c, 9, 54, 0
1, 180479, Note_on_c, 9, 56, 0
1, 180480, Note_on_c, 9, 56, 127
1, 180480, Note_on_c, 9, 44, 124
1, 180480, Note_on_c, 9, 36, 127
1, 180492, Note_on_c, 9, 44, 0
1, 180719, Note_on_c, 9, 36, 0
1, 180720, Note_on_c, 9, 44, 104
1, 180732, Note_on_c, 9, 44, 0
1, 180959, Note_on_c, 9, 56, 0
1, 180960, Note_on_c, 9, 56, 127
1, 180960, Note_on_c, 9, 44, 126
1, 180960, Note_on_c, 9, 36, 127
1, 180972, Note_on_c, 9, 44, 0
1, 181199, Note_on_c, 9, 36, 0
1, 181200, Note_on_c, 9, 44, 99
1, 181212, Note_on_c, 9, 44, 0
1, 181439, Note_on_c, 9, 56, 0
1, 181440, Note_on_c, 9, 54, 127
1, 181440, Note_on_c, 9, 56, 127
1, 181440, Note_on_c, 9, 44, 124
1, 181440, Note_on_c, 9, 36, 127
1, 181452, Note_on_c, 9, 44, 0
1, 181679, Note_on_c, 9, 54, 0
1, 181679, Note_on_c, 9, 56, 0
1, 181679, Note_on_c, 9, 36, 0
1, 181680, Note_on_c, 9, 54, 127
1, 181680, Note_on_c, 9, 44, 97
1, 181692, Note_on_c, 9, 44, 0
1, 181919, Note_on_c, 9, 54, 0
1, 181920, Note_on_c, 9, 54, 127
1, 181920, Note_on_c, 9, 56, 127
1, 181920, Note_on_c, 9, 44, 126
1, 181920, Note_on_c, 9, 36, 127
1, 181932, Note_on_c, 9, 44, 0
1, 182159, Note_on_c, 9, 36, 0
1, 182160, Note_on_c, 9, 44, 103
1, 182172, Note_on_c, 9, 44, 0
1, 182399, Note_on_c, 9, 54, 0
1, 182399, Note_on_c, 9, 56, 0
1, 182400, Note_on_c, 9, 56, 127
1, 182400, Note_on_c, 9, 44, 126
1, 182400, Note_on_c, 9, 36, 127
1, 182412, Note_on_c, 9, 44, 0
1, 182639, Note_on_c, 9, 36, 0
1, 182640, Note_on_c, 9, 44, 94
1, 182652, Note_on_c, 9, 44, 0
1, 182879, Note_on_c, 9, 56, 0
1, 182880, Note_on_c, 9, 56, 127
1, 182880, Note_on_c, 9, 44, 127
1, 182880, Note_on_c, 9, 36, 127
1, 182892, Note_on_c, 9, 44, 0
1, 183119, Note_on_c, 9, 36, 0
1, 183120, Note_on_c, 9, 44, 96
1, 183132, Note_on_c, 9, 44, 0
1, 183359, Note_on_c, 9, 56, 0
1, 183360, Note_on_c, 9, 54, 127
1, 183360, Note_on_c, 9, 56, 127
1, 183360, Note_on_c, 9, 44, 126
1, 183360, Note_on_c, 9, 36, 127
1, 183372, Note_on_c, 9, 44, 0
1, 183599, Note_on_c, 9, 54, 0
1, 183599, Note_on_c, 9, 56, 0
1, 183599, Note_on_c, 9, 36, 0
1, 183600, Note_on_c, 9, 54, 127
1, 183600, Note_on_c, 9, 44, 89
1, 183612, Note_on_c, 9, 44, 0
1, 183839, Note_on_c, 9, 54, 0
1, 183840, Note_on_c, 9, 54, 127
1, 183840, Note_on_c, 9, 56, 127
1, 183840, Note_on_c, 9, 44, 126
1, 183840, Note_on_c, 9, 36, 127
1, 183852, Note_on_c, 9, 44, 0
1, 184079, Note_on_c, 9, 36, 0
1, 184080, Note_on_c, 9, 44, 94
1, 184092, Note_on_c, 9, 44, 0
1, 184319, Note_on_c, 9, 54, 0
1, 184319, Note_on_c, 9, 56, 0
1, 184320, Note_on_c, 9, 56, 127
1, 184320, Note_on_c, 9, 44, 127
1, 184320, Note_on_c, 9, 36, 127
1, 184332, Note_on_c, 9, 44, 0
1, 184559, Note_on_c, 9, 36, 0
1, 184560, Note_on_c, 9, 44, 79
1, 184572, Note_on_c, 9, 44, 0
1, 184799, Note_on_c, 9, 56, 0
1, 184800, Note_on_c, 9, 56, 127
1, 184800, Note_on_c, 9, 44, 127
1, 184800, Note_on_c, 9, 36, 127
1, 184812, Note_on_c, 9, 44, 0
1, 185039, Note_on_c, 9, 36, 0
1, 185040, Note_on_c, 9, 44, 85
1, 185052, Note_on_c, 9, 44, 0
1, 185279, Note_on_c, 9, 56, 0
1, 185280, Note_on_c, 9, 54, 127
1, 185280, Note_on_c, 9, 56, 127
1, 185280, Note_on_c, 9, 44, 127
1, 185280, Note_on_c, 9, 36, 127
1, 185292, Note_on_c, 9, 44, 0
1, 185519, Note_on_c, 9, 54, 0
1, 185519, Note_on_c, 9, 56, 0
1, 185519, Note_on_c, 9, 36, 0
1, 185520, Note_on_c, 9, 54, 127
1, 185520, Note_on_c, 9, 44, 101
1, 185532, Note_on_c, 9, 44, 0
1, 185759, Note_on_c, 9, 54, 0
1, 185760, Note_on_c, 9, 54, 127
1, 185760, Note_on_c, 9, 56, 127
1, 185760, Note_on_c, 9, 44, 124
1, 185760, Note_on_c, 9, 36, 127
1, 185772, Note_on_c, 9, 44, 0
1, 185999, Note_on_c, 9, 36, 0
1, 186000, Note_on_c, 9, 44, 97
1, 186012, Note_on_c, 9, 44, 0
1, 186239, Note_on_c, 9, 54, 0
1, 186239, Note_on_c, 9, 56, 0
1, 186240, Note_on_c, 9, 56, 127
1, 186240, Note_on_c, 9, 44, 124
1, 186240, Note_on_c, 9, 36, 127
1, 186252, Note_on_c, 9, 44, 0
1, 186479, Note_on_c, 9, 36, 0
1, 186480, Note_on_c, 9, 44, 94
1, 186492, Note_on_c, 9, 44, 0
1, 186719, Note_on_c, 9, 56, 0
1, 186720, Note_on_c, 9, 56, 127
1, 186720, Note_on_c, 9, 44, 127
1, 186720, Note_on_c, 9, 36, 127
1, 186732, Note_on_c, 9, 44, 0
1, 186959, Note_on_c, 9, 36, 0
1, 186960, Note_on_c, 9, 44, 95
1, 186972, Note_on_c, 9, 44, 0
1, 187199, Note_on_c, 9, 56, 0
1, 187200, Note_on_c, 9, 54, 127
1, 187200, Note_on_c, 9, 56, 127
1, 187200, Note_on_c, 9, 44, 124
1, 187200, Note_on_c, 9, 36, 127
1, 187212, Note_on_c, 9, 44, 0
1, 187439, Note_on_c, 9, 54, 0
1, 187439, Note_on_c, 9, 56, 0
1, 187439, Note_on_c, 9, 36, 0
1, 187440, Note_on_c, 9, 54, 127
1, 187440, Note_on_c, 9, 44, 104
1, 187452, Note_on_c, 9, 44, 0
1, 187679, Note_on_c, 9, 54, 0
1, 187680, Note_on_c, 9, 54, 127
1, 187680, Note_on_c, 9, 56, 127
1, 187680, Note_on_c, 9, 44, 122
1, 187680, Note_on_c, 9, 36, 127
1, 187692, Note_on_c, 9, 44, 0
1, 187919, Note_on_c, 9, 36, 0
1, 187920, Note_on_c, 9, 44, 87
1, 187932, Note_on_c, 9, 44, 0
1, 188159, Note_on_c, 9, 54, 0
1, 188159, Note_on_c, 9, 56, 0
1, 188160, Note_on_c, 9, 56, 127
1, 188160, Note_on_c, 9, 44, 120
1, 188160, Note_on_c, 9, 36, 127
1, 188172, Note_on_c, 9, 44, 0
1, 188399, Note_on_c, 9, 36, 0
1, 188400, Note_on_c, 9, 44, 84
1, 188412, Note_on_c, 9, 44, 0
1, 188639, Note_on_c, 9, 56, 0
1, 188640, Note_on_c, 9, 56, 127
1, 188640, Note_on_c, 9, 44, 124
1, 188640, Note_on_c, 9, 36, 127
1, 188652, Note_on_c, 9, 44, 0
1, 188879, Note_on_c, 9, 36, 0
1, 188880, Note_on_c, 9, 44, 82
1, 188892, Note_on_c, 9, 44, 0
1, 189119, Note_on_c, 9, 56, 0
1, 189120, Note_on_c, 9, 54, 127
1, 189120, Note_on_c, 9, 56, 127
1, 189120, Note_on_c, 9, 44, 124
1, 189120, Note_on_c, 9, 36, 127
1, 189132, Note_on_c, 9, 44, 0
1, 189359, Note_on_c, 9, 54, 0
1, 189359, Note_on_c, 9, 56, 0
1, 189359, Note_on_c, 9, 36, 0
1, 189360, Note_on_c, 9, 54, 127
1, 189360, Note_on_c, 9, 44, 79
1, 189372, Note_on_c, 9, 44, 0
1, 189599, Note_on_c, 9, 54, 0
1, 189600, Note_on_c, 9, 54, 127
1, 189600, Note_on_c, 9, 56, 127
1, 189600, Note_on_c, 9, 44, 119
1, 189600, Note_on_c, 9, 36, 127
1, 189612, Note_on_c, 9, 44, 0
1, 189839, Note_on_c, 9, 36, 0
1, 189840, Note_on_c, 9, 44, 88
1, 189852, Note_on_c, 9, 44, 0
1, 190079, Note_on_c, 9, 54, 0
1, 190079, Note_on_c, 9, 56, 0
1, 190080, Note_on_c, 9, 56, 127
1, 190080, Note_on_c, 9, 44, 120
1, 190080, Note_on_c, 9, 36, 127
1, 190092, Note_on_c, 9, 44, 0
1, 190319, Note_on_c, 9, 36, 0
1, 190320, Note_on_c, 9, 44, 109
1, 190332, Note_on_c, 9, 44, 0
1, 190559, Note_on_c, 9, 56, 0
1, 190560, Note_on_c, 9, 56, 127
1, 190560, Note_on_c, 9, 44, 122
1, 190560, Note_on_c, 9, 36, 127
1, 190572, Note_on_c, 9, 44, 0
1, 190799, Note_on_c, 9, 36, 0
1, 190800, Note_on_c, 9, 44, 105
1, 190812, Note_on_c, 9, 44, 0
1, 191039, Note_on_c, 9, 56, 0
1, 191040, Note_on_c, 9, 54, 127
1, 191040, Note_on_c, 9, 56, 127
1, 191040, Note_on_c, 9, 44, 124
1, 191040, Note_on_c, 9, 36, 127
1, 191052, Note_on_c, 9, 44, 0
1, 191279, Note_on_c, 9, 54, 0
1, 191279, Note_on_c, 9, 56, 0
1, 191279, Note_on_c, 9, 36, 0
1, 191280, Note_on_c, 9, 54, 127
1, 191280, Note_on_c, 9, 44, 106
1, 191292, Note_on_c, 9, 44, 0
1, 191519, Note_on_c, 9, 54, 0
1, 191520, Note_on_c, 9, 54, 127
1, 191520, Note_on_c, 9, 56, 127
1, 191520, Note_on_c, 9, 44, 122
1, 191520, Note_on_c, 9, 36, 127
1, 191532, Note_on_c, 9, 44, 0
1, 191759, Note_on_c, 9, 36, 0
1, 191760, Note_on_c, 9, 44, 117
1, 191772, Note_on_c, 9, 44, 0
1, 191999, Note_on_c, 9, 54, 0
1, 191999, Note_on_c, 9, 56, 0
1, 192000, Note_on_c, 9, 56, 127
1, 192000, Note_on_c, 9, 44, 122
1, 192000, Note_on_c, 9, 36, 127
1, 192012, Note_on_c, 9, 44, 0
1, 192239, Note_on_c, 9, 36, 0
1, 192240, Note_on_c, 9, 44, 96
1, 192252, Note_on_c, 9, 44, 0
1, 192479, Note_on_c, 9, 56, 0
1, 192480, Note_on_c, 9, 56, 127
1, 192480, Note_on_c, 9, 44, 122
1, 192480, Note_on_c, 9, 36, 127
1, 192492, Note_on_c, 9, 44, 0
1, 192719, Note_on_c, 9, 36, 0
1, 192720, Note_on_c, 9, 44, 98
1, 192732, Note_on_c, 9, 44, 0
1, 192959, Note_on_c, 9, 56, 0
1, 192960, Note_on_c, 9, 54, 127
1, 192960, Note_on_c, 9, 56, 127
1, 192960, Note_on_c, 9, 44, 120
1, 192960, Note_on_c, 9, 36, 127
1, 192972, Note_on_c, 9, 44, 0
1, 193199, Note_on_c, 9, 54, 0
1, 193199, Note_on_c, 9, 56, 0
1, 193199, Note_on_c, 9, 36, 0
1, 193200, Note_on_c, 9, 54, 127
1, 193200, Note_on_c, 9, 44, 101
1, 193212, Note_on_c, 9, 44, 0
1, 193439, Note_on_c, 9, 54, 0
1, 193440, Note_on_c, 9, 54, 127
1, 193440, Note_on_c, 9, 56, 127
1, 193440, Note_on_c, 9, 44, 126
1, 193440, Note_on_c, 9, 36, 127
1, 193452, Note_on_c, 9, 44, 0
1, 193679, Note_on_c, 9, 36, 0
1, 193680, Note_on_c, 9, 44, 107
1, 193692, Note_on_c, 9, 44, 0
1, 193919, Note_on_c, 9, 54, 0
1, 193919, Note_on_c, 9, 56, 0
1, 193920, Note_on_c, 9, 56, 127
1, 193920, Note_on_c, 9, 44, 120
1, 193920, Note_on_c, 9, 36, 127
1, 193932, Note_on_c, 9, 44, 0
1, 194159, Note_on_c, 9, 36, 0
1, 194160, Note_on_c, 9, 44, 104
1, 194172, Note_on_c, 9, 44, 0
1, 194399, Note_on_c, 9, 56, 0
1, 194400, Note_on_c, 9, 56, 127
1, 194400, Note_on_c, 9, 44, 127
1, 194400, Note_on_c, 9, 36, 127
1, 194412, Note_on_c, 9, 44, 0
1, 194639, Note_on_c, 9, 36, 0
1, 194640, Note_on_c, 9, 44, 99
1, 194652, Note_on_c, 9, 44, 0
1, 194879, Note_on_c, 9, 56, 0
1, 194880, Note_on_c, 9, 54, 127
1, 194880, Note_on_c, 9, 56, 127
1, 194880, Note_on_c, 9, 44, 122
1, 194880, Note_on_c, 9, 36, 127
1, 194892, Note_on_c, 9, 44, 0
1, 195119, Note_on_c, 9, 54, 0
1, 195119, Note_on_c, 9, 56, 0
1, 195119, Note_on_c, 9, 36, 0
1, 195120, Note_on_c, 9, 54, 127
1, 195120, Note_on_c, 9, 44, 104
1, 195132, Note_on_c, 9, 44, 0
1, 195359, Note_on_c, 9, 54, 0
1, 195360, Note_on_c, 9, 54, 127
1, 195360, Note_on_c, 9, 56, 127
1, 195360, Note_on_c, 9, 44, 126
1, 195360, Note_on_c, 9, 36, 127
1, 195372, Note_on_c, 9, 44, 0
1, 195599, Note_on_c, 9, 36, 0
1, 195600, Note_on_c, 9, 44, 95
1, 195612, Note_on_c, 9, 44, 0
1, 195839, Note_on_c, 9, 54, 0
1, 195839, Note_on_c, 9, 56, 0
1, 195840, Note_on_c, 9, 56, 127
1, 195840, Note_on_c, 9, 44, 126
1, 195840, Note_on_c, 9, 36, 127
1, 195852, Note_on_c, 9, 44, 0
1, 196079, Note_on_c, 9, 36, 0
1, 196080, Note_on_c, 9, 44, 107
1, 196092, Note_on_c, 9, 44, 0
1, 196319, Note_on_c, 9, 56, 0
1, 196320, Note_on_c, 9, 56, 127
1, 196320, Note_on_c, 9, 44, 127
1, 196320, Note_on_c, 9, 36, 127
1, 196332, Note_on_c, 9, 44, 0
1, 196559, Note_on_c, 9, 36, 0
1, 196560, Note_on_c, 9, 44, 101
1, 196572, Note_on_c, 9, 44, 0
1, 196799, Note_on_c, 9, 56, 0
1, 196800, Note_on_c, 9, 54, 127
1, 196800, Note_on_c, 9, 56, 127
1, 196800, Note_on_c, 9, 44, 124
1, 196800, Note_on_c, 9, 36, 127
1, 196812, Note_on_c, 9, 44, 0
1, 197039, Note_on_c, 9, 54, 0
1, 197039, Note_on_c, 9, 56, 0
1, 197039, Note_on_c, 9, 36, 0
1, 197040, Note_on_c, 9, 54, 127
1, 197040, Note_on_c, 9, 44, 105
1, 197052, Note_on_c, 9, 44, 0
1, 197279, Note_on_c, 9, 54, 0
1, 197280, Note_on_c, 9, 54, 127
1, 197280, Note_on_c, 9, 56, 127
1, 197280, Note_on_c, 9, 44, 124
1, 197280, Note_on_c, 9, 36, 127
1, 197292, Note_on_c, 9, 44, 0
1, 197519, Note_on_c, 9, 36, 0
1, 197520, Note_on_c, 9, 44, 101
1, 197532, Note_on_c, 9, 44, 0
1, 197759, Note_on_c, 9, 54, 0
1, 197759, Note_on_c, 9, 56, 0
1, 197760, Note_on_c, 9, 56, 127
1, 197760, Note_on_c, 9, 44, 124
1, 197760, Note_on_c, 9, 36, 127
1, 197772, Note_on_c, 9, 44, 0
1, 197999, Note_on_c, 9, 36, 0
1, 198000, Note_on_c, 9, 44, 105
1, 198012, Note_on_c, 9, 44, 0
1, 198239, Note_on_c, 9, 56, 0
1, 198240, Note_on_c, 9, 56, 127
1, 198240, Note_on_c, 9, 44, 122
1, 198240, Note_on_c, 9, 36, 127
1, 198252, Note_on_c, 9, 44, 0
1, 198479, Note_on_c, 9, 36, 0
1, 198480, Note_on_c, 9, 44, 109
1, 198492, Note_on_c, 9, 44, 0
1, 198719, Note_on_c, 9, 56, 0
1, 198720, Note_on_c, 9, 54, 127
1, 198720, Note_on_c, 9, 56, 127
1, 198720, Note_on_c, 9, 44, 127
1, 198720, Note_on_c, 9, 36, 127
1, 198732, Note_on_c, 9, 44, 0
1, 198959, Note_on_c, 9, 54, 0
1, 198959, Note_on_c, 9, 56, 0
1, 198959, Note_on_c, 9, 36, 0
1, 198960, Note_on_c, 9, 54, 127
1, 198960, Note_on_c, 9, 44, 99
1, 198972, Note_on_c, 9, 44, 0
1, 199199, Note_on_c, 9, 54, 0
1, 199200, Note_on_c, 9, 54, 127
1, 199200, Note_on_c, 9, 56, 127
1, 199200, Note_on_c, 9, 44, 127
1, 199200, Note_on_c, 9, 36, 127
1, 199212, Note_on_c, 9, 44, 0
1, 199439, Note_on_c, 9, 36, 0
1, 199440, Note_on_c, 9, 44, 112
1, 199452, Note_on_c, 9, 44, 0
1, 199679, Note_on_c, 9, 54, 0
1, 199679, Note_on_c, 9, 56, 0
1, 199680, Note_on_c, 9, 56, 127
1, 199680, Note_on_c, 9, 44, 127
1, 199680, Note_on_c, 9, 36, 127
1, 199692, Note_on_c, 9, 44, 0
1, 199919, Note_on_c, 9, 36, 0
1, 199920, Note_on_c, 9, 44, 105
1, 199932, Note_on_c, 9, 44, 0
1, 200159, Note_on_c, 9, 56, 0
1, 200160, Note_on_c, 9, 56, 127
1, 200160, Note_on_c, 9, 44, 124
1, 200160, Note_on_c, 9, 36, 127
1, 200172, Note_on_c, 9, 44, 0
1, 200399, Note_on_c, 9, 36, 0
1, 200400, Note_on_c, 9, 44, 101
1, 200412, Note_on_c, 9, 44, 0
1, 200639, Note_on_c, 9, 56, 0
1, 200640, Note_on_c, 9, 54, 127
1, 200640, Note_on_c, 9, 56, 127
1, 200640, Note_on_c, 9, 44, 126
1, 200640, Note_on_c, 9, 36, 127
1, 200652, Note_on_c, 9, 44, 0
1, 200879, Note_on_c, 9, 54, 0
1, 200879, Note_on_c, 9, 56, 0
1, 200879, Note_on_c, 9, 36, 0
1, 200880, Note_on_c, 9, 54, 127
1, 200880, Note_on_c, 9, 44, 105
1, 200892, Note_on_c, 9, 44, 0
1, 201119, Note_on_c, 9, 54, 0
1, 201120, Note_on_c, 9, 54, 127
1, 201120, Note_on_c, 9, 56, 127
1, 201120, Note_on_c, 9, 44, 122
1, 201120, Note_on_c, 9, 36, 127
1, 201132, Note_on_c, 9, 44, 0
1, 201359, Note_on_c, 9, 36, 0
1, 201360, Note_on_c, 9, 44, 88
1, 201372, Note_on_c, 9, 44, 0
1, 201599, Note_on_c, 9, 54, 0
1, 201599, Note_on_c, 9, 56, 0
1, 201600, Note_on_c, 9, 56, 127
1, 201600, Note_on_c, 9, 49, 125
1, 201600, Note_on_c, 9, 44, 127
1, 201600, Note_on_c, 9, 36, 127
1, 201612, Note_on_c, 9, 44, 0
1, 201625, Note_on_c, 9, 49, 0
1, 201839, Note_on_c, 9, 36, 0
1, 201840, Note_on_c, 9, 44, 97
1, 201852, Note_on_c, 9, 44, 0
1, 202079, Note_on_c, 9, 56, 0
1, 202080, Note_on_c, 9, 56, 127
1, 202080, Note_on_c, 9, 44, 126
1, 202080, Note_on_c, 9, 36, 127
1, 202092, Note_on_c, 9, 44, 0
1, 202319, Note_on_c, 9, 36, 0
1, 202320, Note_on_c, 9, 44, 104
1, 202332, Note_on_c, 9, 44, 0
1, 202559, Note_on_c, 9, 56, 0
1, 202560, Note_on_c, 9, 54, 127
1, 202560, Note_on_c, 9, 56, 127
1, 202560, Note_on_c, 9, 44, 124
1, 202560, Note_on_c, 9, 36, 127
1, 202572, Note_on_c, 9, 44, 0
1, 202799, Note_on_c, 9, 54, 0
1, 202799, Note_on_c, 9, 56, 0
1, 202799, Note_on_c, 9, 36, 0
1, 202800, Note_on_c, 9, 54, 127
1, 202800, Note_on_c, 9, 44, 98
1, 202812, Note_on_c, 9, 44, 0
1, 203039, Note_on_c, 9, 54, 0
1, 203040, Note_on_c, 9, 54, 127
1, 203040, Note_on_c, 9, 56, 127
1, 203040, Note_on_c, 9, 44, 127
1, 203040, Note_on_c, 9, 36, 127
1, 203052, Note_on_c, 9, 44, 0
1, 203279, Note_on_c, 9, 36, 0
1, 203280, Note_on_c, 9, 44, 116
1, 203292, Note_on_c, 9, 44, 0
1, 203519, Note_on_c, 9, 54, 0
1, 203519, Note_on_c, 9, 56, 0
1, 203520, Note_on_c, 9, 56, 127
1, 203520, Note_on_c, 9, 44, 127
1, 203520, Note_on_c, 9, 36, 127
1, 203532, Note_on_c, 9, 44, 0
1, 203759, Note_on_c, 9, 36, 0
1, 203760, Note_on_c, 9, 44, 97
1, 203772, Note_on_c, 9, 44, 0
1, 203999, Note_on_c, 9, 56, 0
1, 204000, Note_on_c, 9, 56, 127
1, 204000, Note_on_c, 9, 44, 126
1, 204000, Note_on_c, 9, 36, 127
1, 204012, Note_on_c, 9, 44, 0
1, 204239, Note_on_c, 9, 36, 0
1, 204240, Note_on_c, 9, 44, 105
1, 204252, Note_on_c, 9, 44, 0
1, 204479, Note_on_c, 9, 56, 0
1, 204480, Note_on_c, 9, 54, 127
1, 204480, Note_on_c, 9, 56, 127
1, 204480, Note_on_c, 9, 44, 127
1, 204480, Note_on_c, 9, 36, 127
1, 204492, Note_on_c, 9, 44, 0
1, 204719, Note_on_c, 9, 54, 0
1, 204719, Note_on_c, 9, 56, 0
1, 204719, Note_on_c, 9, 36, 0
1, 204720, Note_on_c, 9, 54, 127
1, 204720, Note_on_c, 9, 44, 108
1, 204732, Note_on_c, 9, 44, 0
1, 204959, Note_on_c, 9, 54, 0
1, 204960, Note_on_c, 9, 54, 127
1, 204960, Note_on_c, 9, 56, 127
1, 204960, Note_on_c, 9, 44, 127
1, 204960, Note_on_c, 9, 36, 127
1, 204972, Note_on_c, 9, 44, 0
1, 205199, Note_on_c, 9, 36, 0
1, 205200, Note_on_c, 9, 44, 103
1, 205212, Note_on_c, 9, 44, 0
1, 205439, Note_on_c, 9, 54, 0
1, 205439, Note_on_c, 9, 56, 0
1, 205440, Note_on_c, 9, 56, 127
1, 205440, Note_on_c, 9, 49, 125
1, 205440, Note_on_c, 9, 44, 127
1, 205440, Note_on_c, 9, 36, 127
1, 205452, Note_on_c, 9, 44, 0
1, 205465, Note_on_c, 9, 49, 0
1, 205679, Note_on_c, 9, 36, 0
1, 205680, Note_on_c, 9, 44, 90
1, 205692, Note_on_c, 9, 44, 0
1, 205919, Note_on_c, 9, 56, 0
1, 205920, Note_on_c, 9, 56, 127
1, 205920, Note_on_c, 9, 44, 127
1, 205920, Note_on_c, 9, 36, 127
1, 205932, Note_on_c, 9, 44, 0
1, 206159, Note_on_c, 9, 36, 0
1, 206160, Note_on_c, 9, 44, 101
1, 206172, Note_on_c, 9, 44, 0
1, 206399, Note_on_c, 9, 56, 0
1, 206400, Note_on_c, 9, 54, 127
1, 206400, Note_on_c, 9, 56, 127
1, 206400, Note_on_c, 9, 44, 120
1, 206400, Note_on_c, 9, 36, 127
1, 206412, Note_on_c, 9, 44, 0
1, 206639, Note_on_c, 9, 54, 0
1, 206639, Note_on_c, 9, 56, 0
1, 206639, Note_on_c, 9, 36, 0
1, 206640, Note_on_c, 9, 54, 127
1, 206640, Note_on_c, 9, 44, 94
1, 206652, Note_on_c, 9, 44, 0
1, 206879, Note_on_c, 9, 54, 0
1, 206880, Note_on_c, 9, 54, 127
1, 206880, Note_on_c, 9, 56, 127
1, 206880, Note_on_c, 9, 44, 126
1, 206880, Note_on_c, 9, 36, 127
1, 206892, Note_on_c, 9, 44, 0
1, 207119, Note_on_c, 9, 36, 0
1, 207120, Note_on_c, 9, 44, 97
1, 207132, Note_on_c, 9, 44, 0
1, 207359, Note_on_c, 9, 54, 0
1, 207359, Note_on_c, 9, 56, 0
1, 207360, Note_on_c, 9, 56, 127
1, 207360, Note_on_c, 9, 44, 122
1, 207360, Note_on_c, 9, 36, 127
1, 207372, Note_on_c, 9, 44, 0
1, 207599, Note_on_c, 9, 36, 0
1, 207600, Note_on_c, 9, 44, 96
1, 207612, Note_on_c, 9, 44, 0
1, 207839, Note_on_c, 9, 56, 0
1, 207840, Note_on_c, 9, 56, 127
1, 207840, Note_on_c, 9, 44, 122
1, 207840, Note_on_c, 9, 36, 127
1, 207852, Note_on_c, 9, 44, 0
1, 208079, Note_on_c, 9, 36, 0
1, 208080, Note_on_c, 9, 44, 95
1, 208092, Note_on_c, 9, 44, 0
1, 208319, Note_on_c, 9, 56, 0
1, 208320, Note_on_c, 9, 54, 127
1, 208320, Note_on_c, 9, 56, 127
1, 208320, Note_on_c, 9, 44, 126
1, 208320, Note_on_c, 9, 36, 127
1, 208332, Note_on_c, 9, 44, 0
1, 208559, Note_on_c, 9, 54, 0
1, 208559, Note_on_c, 9, 56, 0
1, 208559, Note_on_c, 9, 36, 0
1, 208560, Note_on_c, 9, 54, 127
1, 208560, Note_on_c, 9, 44, 99
1, 208572, Note_on_c, 9, 44, 0
1, 208799, Note_on_c, 9, 54, 0
1, 208800, Note_on_c, 9, 54, 127
1, 208800, Note_on_c, 9, 44, 120
1, 208800, Note_on_c, 9, 36, 127
1, 208812, Note_on_c, 9, 44, 0
1, 208815, Note_on_c, 9, 56, 127
1, 209039, Note_on_c, 9, 36, 0
1, 209039, Note_on_c, 9, 56, 0
1, 209040, Note_on_c, 9, 44, 106
1, 209052, Note_on_c, 9, 44, 0
1, 209279, Note_on_c, 9, 54, 0
1, 209280, Note_on_c, 9, 56, 127
1, 209280, Note_on_c, 9, 44, 124
1, 209280, Note_on_c, 9, 36, 127
1, 209292, Note_on_c, 9, 44, 0
1, 209519, Note_on_c, 9, 36, 0
1, 209520, Note_on_c, 9, 44, 93
1, 209532, Note_on_c, 9, 44, 0
1, 209759, Note_on_c, 9, 56, 0
1, 209760, Note_on_c, 9, 56, 127
1, 209760, Note_on_c, 9, 44, 126
1, 209760, Note_on_c, 9, 36, 127
1, 209772, Note_on_c, 9, 44, 0
1, 209999, Note_on_c, 9, 36, 0
1, 210000, Note_on_c, 9, 44, 90
1, 210012, Note_on_c, 9, 44, 0
1, 210239, Note_on_c, 9, 56, 0
1, 210240, Note_on_c, 9, 54, 127
1, 210240, Note_on_c, 9, 56, 127
1, 210240, Note_on_c, 9, 44, 126
1, 210240, Note_on_c, 9, 36, 127
1, 210252, Note_on_c, 9, 44, 0
1, 210479, Note_on_c, 9, 54, 0
1, 210479, Note_on_c, 9, 56, 0
1, 210479, Note_on_c, 9, 36, 0
1, 210480, Note_on_c, 9, 54, 127
1, 210480, Note_on_c, 9, 44, 102
1, 210492, Note_on_c, 9, 44, 0
1, 210719, Note_on_c, 9, 54, 0
1, 210720, Note_on_c, 9, 54, 127
1, 210720, Note_on_c, 9, 56, 127
1, 210720, Note_on_c, 9, 44, 127
1, 210720, Note_on_c, 9, 36, 127
1, 210732, Note_on_c, 9, 44, 0
1, 210959, Note_on_c, 9, 36, 0
1, 210960, Note_on_c, 9, 44, 104
1, 210972, Note_on_c, 9, 44, 0
1, 211199, Note_on_c, 9, 54, 0
1, 211199, Note_on_c, 9, 56, 0
1, 211200, Note_on_c, 9, 56, 127
1, 211200, Note_on_c, 9, 44, 124
1, 211200, Note_on_c, 9, 36, 127
1, 211212, Note_on_c, 9, 44, 0
1, 211439, Note_on_c, 9, 36, 0
1, 211440, Note_on_c, 9, 44, 104
1, 211452, Note_on_c, 9, 44, 0
1, 211679, Note_on_c, 9, 56, 0
1, 211680, Note_on_c, 9, 56, 127
1, 211680, Note_on_c, 9, 44, 126
1, 211680, Note_on_c, 9, 36, 127
1, 211692, Note_on_c, 9, 44, 0
1, 211919, Note_on_c, 9, 36, 0
1, 211920, Note_on_c, 9, 44, 109
1, 211932, Note_on_c, 9, 44, 0
1, 212159, Note_on_c, 9, 56, 0
1, 212160, Note_on_c, 9, 54, 127
1, 212160, Note_on_c, 9, 56, 127
1, 212160, Note_on_c, 9, 44, 126
1, 212160, Note_on_c, 9, 36, 127
1, 212172, Note_on_c, 9, 44, 0
1, 212399, Note_on_c, 9, 54, 0
1, 212399, Note_on_c, 9, 56, 0
1, 212399, Note_on_c, 9, 36, 0
1, 212400, Note_on_c, 9, 54, 127
1, 212400, Note_on_c, 9, 44, 103
1, 212412, Note_on_c, 9, 44, 0
1, 212639, Note_on_c, 9, 54, 0
1, 212640, Note_on_c, 9, 54, 127
1, 212640, Note_on_c, 9, 44, 127
1, 212640, Note_on_c, 9, 36, 127
1, 212652, Note_on_c, 9, 44, 0
1, 212655, Note_on_c, 9, 56, 127
1, 212879, Note_on_c, 9, 36, 0
1, 212879, Note_on_c, 9, 56, 0
1, 212880, Note_on_c, 9, 44, 100
1, 212892, Note_on_c, 9, 44, 0
1, 213119, Note_on_c, 9, 54, 0
1, 213120, Note_on_c, 9, 56, 127
1, 213120, Note_on_c, 9, 44, 124
1, 213120, Note_on_c, 9, 36, 127
1, 213132, Note_on_c, 9, 44, 0
1, 213359, Note_on_c, 9, 36, 0
1, 213360, Note_on_c, 9, 44, 99
1, 213372, Note_on_c, 9, 44, 0
1, 213599, Note_on_c, 9, 56, 0
1, 213600, Note_on_c, 9, 56, 127
1, 213600, Note_on_c, 9, 44, 126
1, 213600, Note_on_c, 9, 36, 127
1, 213612, Note_on_c, 9, 44, 0
1, 213839, Note_on_c, 9, 36, 0
1, 213840, Note_on_c, 9, 44, 96
1, 213852, Note_on_c, 9, 44, 0
1, 214079, Note_on_c, 9, 56, 0
1, 214080, Note_on_c, 9, 54, 127
1, 214080, Note_on_c, 9, 56, 127
1, 214080, Note_on_c, 9, 44, 126
1, 214080, Note_on_c, 9, 36, 127
1, 214092, Note_on_c, 9, 44, 0
1, 214319, Note_on_c, 9, 54, 0
1, 214319, Note_on_c, 9, 56, 0
1, 214319, Note_on_c, 9, 36, 0
1, 214320, Note_on_c, 9, 54, 127
1, 214320, Note_on_c, 9, 44, 101
1, 214332, Note_on_c, 9, 44, 0
1, 214559, Note_on_c, 9, 54, 0
1, 214560, Note_on_c, 9, 54, 127
1, 214560, Note_on_c, 9, 56, 127
1, 214560, Note_on_c, 9, 44, 124
1, 214560, Note_on_c, 9, 36, 127
1, 214572, Note_on_c, 9, 44, 0
1, 214799, Note_on_c, 9, 36, 0
1, 214800, Note_on_c, 9, 44, 105
1, 214812, Note_on_c, 9, 44, 0
1, 215039, Note_on_c, 9, 54, 0
1, 215039, Note_on_c, 9, 56, 0
1, 215040, Note_on_c, 9, 56, 127
1, 215040, Note_on_c, 9, 44, 126
1, 215040, Note_on_c, 9, 36, 127
1, 215052, Note_on_c, 9, 44, 0
1, 215279, Note_on_c, 9, 36, 0
1, 215280, Note_on_c, 9, 44, 94
1, 215292, Note_on_c, 9, 44, 0
1, 215519, Note_on_c, 9, 56, 0
1, 215520, Note_on_c, 9, 56, 127
1, 215520, Note_on_c, 9, 44, 126
1, 215520, Note_on_c, 9, 36, 127
1, 215532, Note_on_c, 9, 44, 0
1, 215759, Note_on_c, 9, 36, 0
1, 215760, Note_on_c, 9, 44, 95
1, 215772, Note_on_c, 9, 44, 0
1, 215999, Note_on_c, 9, 56, 0
1, 216000, Note_on_c, 9, 54, 127
1, 216000, Note_on_c, 9, 56, 127
1, 216000, Note_on_c, 9, 44, 120
1, 216000, Note_on_c, 9, 36, 127
1, 216012, Note_on_c, 9, 44, 0
1, 216239, Note_on_c, 9, 54, 0
1, 216239, Note_on_c, 9, 56, 0
1, 216239, Note_on_c, 9, 36, 0
1, 216240, Note_on_c, 9, 54, 127
1, 216240, Note_on_c, 9, 44, 102
1, 216252, Note_on_c, 9, 44, 0
1, 216479, Note_on_c, 9, 54, 0
1, 216480, Note_on_c, 9, 54, 127
1, 216480, Note_on_c, 9, 56, 127
1, 216480, Note_on_c, 9, 44, 122
1, 216480, Note_on_c, 9, 36, 127
1, 216492, Note_on_c, 9, 44, 0
1, 216719, Note_on_c, 9, 36, 0
1, 216720, Note_on_c, 9, 44, 97
1, 216732, Note_on_c, 9, 44, 0
1, 216959, Note_on_c, 9, 54, 0
1, 216959, Note_on_c, 9, 56, 0
1, 216960, Note_on_c, 9, 56, 127
1, 216960, Note_on_c, 9, 44, 127
1, 216960, Note_on_c, 9, 36, 127
1, 216972, Note_on_c, 9, 44, 0
1, 217199, Note_on_c, 9, 36, 0
1, 217200, Note_on_c, 9, 44, 99
1, 217212, Note_on_c, 9, 44, 0
1, 217439, Note_on_c, 9, 56, 0
1, 217440, Note_on_c, 9, 56, 127
1, 217440, Note_on_c, 9, 44, 127
1, 217440, Note_on_c, 9, 36, 127
1, 217452, Note_on_c, 9, 44, 0
1, 217679, Note_on_c, 9, 36, 0
1, 217680, Note_on_c, 9, 44, 104
1, 217692, Note_on_c, 9, 44, 0
1, 217919, Note_on_c, 9, 56, 0
1, 217920, Note_on_c, 9, 54, 127
1, 217920, Note_on_c, 9, 56, 127
1, 217920, Note_on_c, 9, 44, 120
1, 217920, Note_on_c, 9, 36, 127
1, 217932, Note_on_c, 9, 44, 0
1, 218159, Note_on_c, 9, 54, 0
1, 218159, Note_on_c, 9, 56, 0
1, 218159, Note_on_c, 9, 36, 0
1, 218160, Note_on_c, 9, 54, 127
1, 218160, Note_on_c, 9, 44, 91
1, 218172, Note_on_c, 9, 44, 0
1, 218399, Note_on_c, 9, 54, 0
1, 218400, Note_on_c, 9, 54, 127
1, 218400, Note_on_c, 9, 56, 127
1, 218400, Note_on_c, 9, 44, 127
1, 218400, Note_on_c, 9, 36, 127
1, 218412, Note_on_c, 9, 44, 0
1, 218639, Note_on_c, 9, 36, 0
1, 218640, Note_on_c, 9, 44, 103
1, 218652, Note_on_c, 9, 44, 0
1, 218879, Note_on_c, 9, 54, 0
1, 218879, Note_on_c, 9, 56, 0
1, 218880, Note_on_c, 9, 56, 127
1, 218880, Note_on_c, 9, 44, 124
1, 218880, Note_on_c, 9, 36, 127
1, 218892, Note_on_c, 9, 44, 0
1, 219119, Note_on_c, 9, 36, 0
1, 219120, Note_on_c, 9, 44, 100
1, 219132, Note_on_c, 9, 44, 0
1, 219359, Note_on_c, 9, 56, 0
1, 219360, Note_on_c, 9, 56, 127
1, 219360, Note_on_c, 9, 44, 124
1, 219360, Note_on_c, 9, 36, 127
1, 219372, Note_on_c, 9, 44, 0
1, 219599, Note_on_c, 9, 36, 0
1, 219600, Note_on_c, 9, 44, 94
1, 219612, Note_on_c, 9, 44, 0
1, 219839, Note_on_c, 9, 56, 0
1, 219840, Note_on_c, 9, 54, 127
1, 219840, Note_on_c, 9, 56, 127
1, 219840, Note_on_c, 9, 44, 124
1, 219840, Note_on_c, 9, 36, 127
1, 219852, Note_on_c, 9, 44, 0
1, 220079, Note_on_c, 9, 54, 0
1, 220079, Note_on_c, 9, 56, 0
1, 220079, Note_on_c, 9, 36, 0
1, 220080, Note_on_c, 9, 54, 127
1, 220080, Note_on_c, 9, 44, 94
1, 220092, Note_on_c, 9, 44, 0
1, 220319, Note_on_c, 9, 54, 0
1, 220320, Note_on_c, 9, 54, 127
1, 220320, Note_on_c, 9, 56, 127
1, 220320, Note_on_c, 9, 44, 126
1, 220320, Note_on_c, 9, 36, 127
1, 220332, Note_on_c, 9, 44, 0
1, 220559, Note_on_c, 9, 36, 0
1, 220560, Note_on_c, 9, 44, 95
1, 220572, Note_on_c, 9, 44, 0
1, 220799, Note_on_c, 9, 54, 0
1, 220799, Note_on_c, 9, 56, 0
1, 220800, Note_on_c, 9, 56, 127
1, 220800, Note_on_c, 9, 44, 124
1, 220800, Note_on_c, 9, 36, 127
1, 220812, Note_on_c, 9, 44, 0
1, 221039, Note_on_c, 9, 36, 0
1, 221040, Note_on_c, 9, 44, 96
1, 221052, Note_on_c, 9, 44, 0
1, 221279, Note_on_c, 9, 56, 0
1, 221280, Note_on_c, 9, 56, 127
1, 221280, Note_on_c, 9, 44, 122
1, 221280, Note_on_c, 9, 36, 127
1, 221292, Note_on_c, 9, 44, 0
1, 221519, Note_on_c, 9, 36, 0
1, 221520, Note_on_c, 9, 44, 98
1, 221532, Note_on_c, 9, 44, 0
1, 221759, Note_on_c, 9, 56, 0
1, 221760, Note_on_c, 9, 54, 127
1, 221760, Note_on_c, 9, 56, 127
1, 221760, Note_on_c, 9, 44, 120
1, 221760, Note_on_c, 9, 36, 127
1, 221772, Note_on_c, 9, 44, 0
1, 221999, Note_on_c, 9, 54, 0
1, 221999, Note_on_c, 9, 56, 0
1, 221999, Note_on_c, 9, 36, 0
1, 222000, Note_on_c, 9, 54, 127
1, 222000, Note_on_c, 9, 44, 107
1, 222012, Note_on_c, 9, 44, 0
1, 222239, Note_on_c, 9, 54, 0
1, 222240, Note_on_c, 9, 54, 127
1, 222240, Note_on_c, 9, 44, 116
1, 222240, Note_on_c, 9, 36, 127
1, 222252, Note_on_c, 9, 44, 0
1, 222255, Note_on_c, 9, 56, 127
1, 222479, Note_on_c, 9, 36, 0
1, 222479, Note_on_c, 9, 56, 0
1, 222480, Note_on_c, 9, 44, 108
1, 222492, Note_on_c, 9, 44, 0
1, 222719, Note_on_c, 9, 54, 0
1, 222720, Note_on_c, 9, 56, 127
1, 222720, Note_on_c, 9, 44, 122
1, 222720, Note_on_c, 9, 36, 127
1, 222732, Note_on_c, 9, 44, 0
1, 222959, Note_on_c, 9, 36, 0
1, 222960, Note_on_c, 9, 44, 106
1, 222972, Note_on_c, 9, 44, 0
1, 223199, Note_on_c, 9, 56, 0
1, 223200, Note_on_c, 9, 56, 127
1, 223200, Note_on_c, 9, 44, 122
1, 223200, Note_on_c, 9, 36, 127
1, 223212, Note_on_c, 9, 44, 0
1, 223439, Note_on_c, 9, 36, 0
1, 223440, Note_on_c, 9, 44, 108
1, 223452, Note_on_c, 9, 44, 0
1, 223679, Note_on_c, 9, 56, 0
1, 223680, Note_on_c, 9, 54, 127
1, 223680, Note_on_c, 9, 56, 127
1, 223680, Note_on_c, 9, 44, 119
1, 223680, Note_on_c, 9, 36, 127
1, 223692, Note_on_c, 9, 44, 0
1, 223919, Note_on_c, 9, 54, 0
1, 223919, Note_on_c, 9, 56, 0
1, 223919, Note_on_c, 9, 36, 0
1, 223920, Note_on_c, 9, 54, 127
1, 223920, Note_on_c, 9, 44, 111
1, 223932, Note_on_c, 9, 44, 0
1, 224159, Note_on_c, 9, 54, 0
1, 224160, Note_on_c, 9, 54, 127
1, 224160, Note_on_c, 9, 56, 127
1, 224160, Note_on_c, 9, 44, 127
1, 224160, Note_on_c, 9, 36, 127
1, 224172, Note_on_c, 9, 44, 0
1, 224399, Note_on_c, 9, 36, 0
1, 224400, Note_on_c, 9, 44, 89
1, 224412, Note_on_c, 9, 44, 0
1, 224639, Note_on_c, 9, 54, 0
1, 224639, Note_on_c, 9, 56, 0
1, 224640, Note_on_c, 9, 56, 127
1, 224640, Note_on_c, 9, 44, 127
1, 224640, Note_on_c, 9, 36, 127
1, 224652, Note_on_c, 9, 44, 0
1, 224879, Note_on_c, 9, 36, 0
1, 224880, Note_on_c, 9, 44, 112
1, 224892, Note_on_c, 9, 44, 0
1, 225119, Note_on_c, 9, 56, 0
1, 225120, Note_on_c, 9, 56, 127
1, 225120, Note_on_c, 9, 44, 116
1, 225120, Note_on_c, 9, 36, 127
1, 225132, Note_on_c, 9, 44, 0
1, 225359, Note_on_c, 9, 36, 0
1, 225360, Note_on_c, 9, 44, 116
1, 225372, Note_on_c, 9, 44, 0
1, 225599, Note_on_c, 9, 56, 0
1, 225600, Note_on_c, 9, 54, 127
1, 225600, Note_on_c, 9, 56, 127
1, 225600, Note_on_c, 9, 44, 120
1, 225600, Note_on_c, 9, 36, 127
1, 225612, Note_on_c, 9, 44, 0
1, 225839, Note_on_c, 9, 54, 0
1, 225839, Note_on_c, 9, 56, 0
1, 225839, Note_on_c, 9, 36, 0
1, 225840, Note_on_c, 9, 54, 127
1, 225840, Note_on_c, 9, 44, 113
1, 225852, Note_on_c, 9, 44, 0
1, 226079, Note_on_c, 9, 54, 0
1, 226080, Note_on_c, 9, 54, 127
1, 226080, Note_on_c, 9, 56, 127
1, 226080, Note_on_c, 9, 44, 127
1, 226080, Note_on_c, 9, 36, 127
1, 226092, Note_on_c, 9, 44, 0
1, 226319, Note_on_c, 9, 36, 0
1, 226320, Note_on_c, 9, 44, 113
1, 226332, Note_on_c, 9, 44, 0
1, 226559, Note_on_c, 9, 54, 0
1, 226559, Note_on_c, 9, 56, 0
1, 226560, Note_on_c, 9, 56, 127
1, 226560, Note_on_c, 9, 44, 120
1, 226560, Note_on_c, 9, 36, 127
1, 226572, Note_on_c, 9, 44, 0
1, 226799, Note_on_c, 9, 36, 0
1, 226800, Note_on_c, 9, 44, 119
1, 226812, Note_on_c, 9, 44, 0
1, 227039, Note_on_c, 9, 56, 0
1, 227040, Note_on_c, 9, 56, 127
1, 227040, Note_on_c, 9, 44, 120
1, 227040, Note_on_c, 9, 36, 127
1, 227052, Note_on_c, 9, 44, 0
1, 227279, Note_on_c, 9, 36, 0
1, 227280, Note_on_c, 9, 44, 119
1, 227292, Note_on_c, 9, 44, 0
1, 227519, Note_on_c, 9, 56, 0
1, 227520, Note_on_c, 9, 54, 119
1, 227520, Note_on_c, 9, 56, 127
1, 227520, Note_on_c, 9, 44, 127
1, 227520, Note_on_c, 9, 36, 127
1, 227532, Note_on_c, 9, 44, 0
1, 227759, Note_on_c, 9, 54, 0
1, 227759, Note_on_c, 9, 56, 0
1, 227759, Note_on_c, 9, 36, 0
1, 227760, Note_on_c, 9, 54, 119
1, 227760, Note_on_c, 9, 44, 120
1, 227772, Note_on_c, 9, 44, 0
1, 227999, Note_on_c, 9, 54, 0
1, 228000, Note_on_c, 9, 54, 119
1, 228000, Note_on_c, 9, 56, 127
1, 228000, Note_on_c, 9, 44, 127
1, 228000, Note_on_c, 9, 36, 127
1, 228012, Note_on_c, 9, 44, 0
1, 228239, Note_on_c, 9, 36, 0
1, 228240, Note_on_c, 9, 44, 122
1, 228252, Note_on_c, 9, 44, 0
1, 228479, Note_on_c, 9, 54, 0
1, 228479, Note_on_c, 9, 56, 0
1, 228480, Note_on_c, 9, 56, 127
1, 228480, Note_on_c, 9, 49, 125
1, 228480, Note_on_c, 9, 44, 127
1, 228480, Note_on_c, 9, 36, 127
1, 228492, Note_on_c, 9, 44, 0
1, 228505, Note_on_c, 9, 49, 0
1, 228719, Note_on_c, 9, 36, 0
1, 228720, Note_on_c, 9, 44, 110
1, 228732, Note_on_c, 9, 44, 0
1, 228959, Note_on_c, 9, 56, 0
1, 228960, Note_on_c, 9, 56, 127
1, 228960, Note_on_c, 9, 44, 127
1, 228960, Note_on_c, 9, 36, 127
1, 228972, Note_on_c, 9, 44, 0
1, 229199, Note_on_c, 9, 36, 0
1, 229200, Note_on_c, 9, 44, 118
1, 229212, Note_on_c, 9, 44, 0
1, 229439, Note_on_c, 9, 56, 0
1, 229440, Note_on_c, 9, 54, 119
1, 229440, Note_on_c, 9, 56, 127
1, 229440, Note_on_c, 9, 44, 120
1, 229440, Note_on_c, 9, 36, 127
1, 229452, Note_on_c, 9, 44, 0
1, 229679, Note_on_c, 9, 54, 0
1, 229679, Note_on_c, 9, 56, 0
1, 229679, Note_on_c, 9, 36, 0
1, 229680, Note_on_c, 9, 54, 119
1, 229680, Note_on_c, 9, 44, 111
1, 229692, Note_on_c, 9, 44, 0
1, 229919, Note_on_c, 9, 54, 0
1, 229920, Note_on_c, 9, 54, 119
1, 229920, Note_on_c, 9, 56, 127
1, 229920, Note_on_c, 9, 44, 127
1, 229920, Note_on_c, 9, 36, 127
1, 229932, Note_on_c, 9, 44, 0
1, 230159, Note_on_c, 9, 36, 0
1, 230160, Note_on_c, 9, 44, 116
1, 230172, Note_on_c, 9, 44, 0
1, 230399, Note_on_c, 9, 54, 0
1, 230399, Note_on_c, 9, 56, 0
1, 230400, Note_on_c, 9, 56, 127
1, 230400, Note_on_c, 9, 44, 122
1, 230400, Note_on_c, 9, 36, 127
1, 230412, Note_on_c, 9, 44, 0
1, 230639, Note_on_c, 9, 36, 0
1, 230640, Note_on_c, 9, 44, 120
1, 230652, Note_on_c, 9, 44, 0
1, 230879, Note_on_c, 9, 56, 0
1, 230880, Note_on_c, 9, 56, 127
1, 230880, Note_on_c, 9, 44, 126
1, 230880, Note_on_c, 9, 36, 127
1, 230892, Note_on_c, 9, 44, 0
1, 231119, Note_on_c, 9, 36, 0
1, 231120, Note_on_c, 9, 44, 120
1, 231132, Note_on_c, 9, 44, 0
1, 231359, Note_on_c, 9, 56, 0
1, 231360, Note_on_c, 9, 54, 119
1, 231360, Note_on_c, 9, 56, 127
1, 231360, Note_on_c, 9, 44, 127
1, 231360, Note_on_c, 9, 36, 127
1, 231372, Note_on_c, 9, 44, 0
1, 231599, Note_on_c, 9, 54, 0
1, 231599, Note_on_c, 9, 56, 0
1, 231599, Note_on_c, 9, 36, 0
1, 231600, Note_on_c, 9, 54, 119
1, 231600, Note_on_c, 9, 44, 107
1, 231612, Note_on_c, 9, 44, 0
1, 231839, Note_on_c, 9, 54, 0
1, 231840, Note_on_c, 9, 54, 119
1, 231840, Note_on_c, 9, 56, 127
1, 231840, Note_on_c, 9, 44, 127
1, 231840, Note_on_c, 9, 36, 127
1, 231852, Note_on_c, 9, 44, 0
1, 232079, Note_on_c, 9, 36, 0
1, 232080, Note_on_c, 9, 44, 117
1, 232092, Note_on_c, 9, 44, 0
1, 232319, Note_on_c, 9, 54, 0
1, 232319, Note_on_c, 9, 56, 0
1, 232320, Note_on_c, 9, 56, 127
1, 232320, Note_on_c, 9, 44, 127
1, 232320, Note_on_c, 9, 36, 127
1, 232332, Note_on_c, 9, 44, 0
1, 232559, Note_on_c, 9, 36, 0
1, 232560, Note_on_c, 9, 44, 111
1, 232572, Note_on_c, 9, 44, 0
1, 232799, Note_on_c, 9, 56, 0
1, 232800, Note_on_c, 9, 56, 127
1, 232800, Note_on_c, 9, 44, 127
1, 232800, Note_on_c, 9, 36, 127
1, 232812, Note_on_c, 9, 44, 0
1, 233039, Note_on_c, 9, 36, 0
1, 233040, Note_on_c, 9, 44, 114
1, 233052, Note_on_c, 9, 44, 0
1, 233279, Note_on_c, 9, 56, 0
1, 233280, Note_on_c, 9, 54, 119
1, 233280, Note_on_c, 9, 56, 127
1, 233280, Note_on_c, 9, 44, 127
1, 233280, Note_on_c, 9, 36, 127
1, 233292, Note_on_c, 9, 44, 0
1, 233519, Note_on_c, 9, 54, 0
1, 233519, Note_on_c, 9, 56, 0
1, 233519, Note_on_c, 9, 36, 0
1, 233520, Note_on_c, 9, 54, 119
1, 233520, Note_on_c, 9, 44, 119
1, 233532, Note_on_c, 9, 44, 0
1, 233759, Note_on_c, 9, 54, 0
1, 233760, Note_on_c, 9, 56, 127
1, 233760, Note_on_c, 9, 44, 127
1, 233760, Note_on_c, 9, 36, 127
1, 233772, Note_on_c, 9, 44, 0
1, 233999, Note_on_c, 9, 36, 0
1, 234000, Note_on_c, 9, 44, 111
1, 234012, Note_on_c, 9, 44, 0
1, 234239, Note_on_c, 9, 56, 0
1, 234240, Note_on_c, 9, 56, 127
1, 234240, Note_on_c, 9, 44, 127
1, 234240, Note_on_c, 9, 36, 127
1, 234252, Note_on_c, 9, 44, 0
1, 234479, Note_on_c, 9, 36, 0
1, 234480, Note_on_c, 9, 44, 110
1, 234492, Note_on_c, 9, 44, 0
1, 234719, Note_on_c, 9, 56, 0
1, 234720, Note_on_c, 9, 56, 127
1, 234720, Note_on_c, 9, 44, 127
1, 234720, Note_on_c, 9, 36, 127
1, 234732, Note_on_c, 9, 44, 0
1, 234959, Note_on_c, 9, 36, 0
1, 234960, Note_on_c, 9, 44, 111
1, 234972, Note_on_c, 9, 44, 0
1, 235199, Note_on_c, 9, 56, 0
1, 235200, Note_on_c, 9, 54, 119
1, 235200, Note_on_c, 9, 56, 127
1, 235200, Note_on_c, 9, 44, 127
1, 235200, Note_on_c, 9, 36, 127
1, 235212, Note_on_c, 9, 44, 0
1, 235439, Note_on_c, 9, 54, 0
1, 235439, Note_on_c, 9, 56, 0
1, 235439, Note_on_c, 9, 36, 0
1, 235440, Note_on_c, 9, 54, 119
1, 235440, Note_on_c, 9, 44, 117
1, 235452, Note_on_c, 9, 44, 0
1, 235679, Note_on_c, 9, 54, 0
1, 235680, Note_on_c, 9, 54, 119
1, 235680, Note_on_c, 9, 44, 126
1, 235680, Note_on_c, 9, 36, 127
1, 235692, Note_on_c, 9, 44, 0
1, 235695, Note_on_c, 9, 56, 127
1, 235919, Note_on_c, 9, 36, 0
1, 235919, Note_on_c, 9, 56, 0
1, 235920, Note_on_c, 9, 44, 111
1, 235932, Note_on_c, 9, 44, 0
1, 236159, Note_on_c, 9, 54, 0
1, 236160, Note_on_c, 9, 56, 127
1, 236160, Note_on_c, 9, 49, 125
1, 236160, Note_on_c, 9, 44, 127
1, 236160, Note_on_c, 9, 36, 127
1, 236172, Note_on_c, 9, 44, 0
1, 236185, Note_on_c, 9, 49, 0
1, 236399, Note_on_c, 9, 36, 0
1, 236400, Note_on_c, 9, 44, 86
1, 236412, Note_on_c, 9, 44, 0
1, 236639, Note_on_c, 9, 56, 0
1, 236640, Note_on_c, 9, 56, 127
1, 236640, Note_on_c, 9, 49, 125
1, 236640, Note_on_c, 9, 44, 127
1, 236640, Note_on_c, 9, 36, 127
1, 236652, Note_on_c, 9, 44, 0
1, 236665, Note_on_c, 9, 49, 0
1, 236879, Note_on_c, 9, 36, 0
1, 236880, Note_on_c, 9, 44, 99
1, 236892, Note_on_c, 9, 44, 0
1, 237119, Note_on_c, 9, 56, 0
1, 237120, Note_on_c, 9, 54, 119
1, 237120, Note_on_c, 9, 56, 127
1, 237120, Note_on_c, 9, 44, 107
1, 237120, Note_on_c, 9, 36, 127
1, 237132, Note_on_c, 9, 44, 0
1, 237359, Note_on_c, 9, 54, 0
1, 237359, Note_on_c, 9, 56, 0
1, 237359, Note_on_c, 9, 36, 0
1, 237360, Note_on_c, 9, 54, 119
1, 237360, Note_on_c, 9, 44, 120
1, 237372, Note_on_c, 9, 44, 0
1, 237599, Note_on_c, 9, 54, 0
1, 237600, Note_on_c, 9, 54, 119
1, 237600, Note_on_c, 9, 56, 127
1, 237600, Note_on_c, 9, 44, 127
1, 237600, Note_on_c, 9, 36, 127
1, 237612, Note_on_c, 9, 44, 0
1, 237839, Note_on_c, 9, 36, 0
1, 237840, Note_on_c, 9, 44, 127
1, 237852, Note_on_c, 9, 44, 0
1, 238079, Note_on_c, 9, 54, 0
1, 238079, Note_on_c, 9, 56, 0
1, 238080, Note_on_c, 9, 56, 127
1, 238080, Note_on_c, 9, 49, 125
1, 238080, Note_on_c, 9, 44, 127
1, 238080, Note_on_c, 9, 36, 127
1, 238105, Note_on_c, 9, 49, 0
1, 238105, Note_on_c, 9, 44, 0
1, 238559, Note_on_c, 9, 56, 0
1, 238559, Note_on_c, 9, 36, 0
1, 238560, End_track
0, 0, End_of_file
