0, 0, Header, 1, 1, 480
1, 0, Start_track
1, 0, Title_t, "Drumset"
1, 0, Time_signature, 4, 2, 24, 8
1, 0, Key_signature, 0, "major"
1, 0, Tempo, 500000
1, 0, Control_c, 9, 121, 0
1, 0, Program_c, 9, 0
1, 0, Control_c, 9, 7, 100
1, 0, Control_c, 9, 10, 64
1, 0, Control_c, 9, 91, 0
1, 0, Control_c, 9, 93, 0
1, 0, MIDI_port, 0
1, 1920, Note_on_c, 9, 42, 106
1, 1942, Note_on_c, 9, 42, 0
1, 2400, Note_on_c, 9, 42, 106
1, 2422, Note_on_c, 9, 42, 0
1, 2880, Note_on_c, 9, 42, 106
1, 2902, Note_on_c, 9, 42, 0
1, 3360, Note_on_c, 9, 42, 106
1, 3382, Note_on_c, 9, 42, 0
1, 3840, Tempo, 480000
1, 3840, Note_on_c, 9, 42, 106
1, 3863, Note_on_c, 9, 42, 0
1, 4320, Note_on_c, 9, 42, 106
1, 4343, Note_on_c, 9, 42, 0
1, 4800, Note_on_c, 9, 42, 106
1, 4823, Note_on_c, 9, 42, 0
1, 5280, Note_on_c, 9, 42, 106
1, 5303, Note_on_c, 9, 42, 0
1, 5760, Note_on_c, 9, 42, 106
1, 5783, Note_on_c, 9, 42, 0
1, 6240, Note_on_c, 9, 42, 106
1, 6263, Note_on_c, 9, 42, 0
1, 6720, Note_on_c, 9, 42, 106
1, 6743, Note_on_c, 9, 42, 0
1, 7200, Note_on_c, 9, 42, 106
1, 7223, Note_on_c, 9, 42, 0
1, 7680, Note_on_c, 9, 42, 106
1, 7703, Note_on_c, 9, 42, 0
1, 8160, Note_on_c, 9, 42, 106
1, 8183, Note_on_c, 9, 42, 0
1, 8640, Note_on_c, 9, 42, 106
1, 8663, Note_on_c, 9, 42, 0
1, 9120, Note_on_c, 9, 42, 106
1, 9143, Note_on_c, 9, 42, 0
1, 9360, Note_on_c, 9, 36, 106
1, 9599, Note_on_c, 9, 36, 0
1, 9600, Note_on_c, 9, 42, 106
1, 9600, Note_on_c, 9, 36, 106
1, 9605, Note_on_c, 9, 42, 0
1, 9720, Note_on_c, 9, 42, 106
1, 9725, Note_on_c, 9, 42, 0
1, 9840, Note_on_c, 9, 42, 106
1, 9845, Note_on_c, 9, 42, 0
1, 9960, Note_on_c, 9, 42, 106
1, 9965, Note_on_c, 9, 42, 0
1, 10079, Note_on_c, 9, 36, 0
1, 10080, Note_on_c, 9, 42, 106
1, 10085, Note_on_c, 9, 42, 0
1, 10200, Note_on_c, 9, 42, 106
1, 10205, Note_on_c, 9, 42, 0
1, 10320, Note_on_c, 9, 42, 106
1, 10325, Note_on_c, 9, 42, 0
1, 10440, Note_on_c, 9, 42, 106
1, 10440, Note_on_c, 9, 36, 106
1, 10445, Note_on_c, 9, 42, 0
1, 10559, Note_on_c, 9, 36, 0
1, 10560, Note_on_c, 9, 42, 106
1, 10560, Note_on_c, 9, 36, 106
1, 10565, Note_on_c, 9, 42, 0
1, 10680, Note_on_c, 9, 42, 106
1, 10685, Note_on_c, 9, 42, 0
1, 10800, Note_on_c, 9, 42, 106
1, 10805, Note_on_c, 9, 42, 0
1, 10920, Note_on_c, 9, 42, 106
1, 10925, Note_on_c, 9, 42, 0
1, 11039, Note_on_c, 9, 36, 0
1, 11040, Note_on_c, 9, 42, 106
1, 11045, Note_on_c, 9, 42, 0
1, 11160, Note_on_c, 9, 42, 106
1, 11165, Note_on_c, 9, 42, 0
1, 11280, Note_on_c, 9, 42, 106
1, 11285, Note_on_c, 9, 42, 0
1, 11400, Note_on_c, 9, 42, 106
1, 11400, Note_on_c, 9, 36, 106
1, 11405, Note_on_c, 9, 42, 0
1, 11519, Note_on_c, 9, 36, 0
1, 11520, Note_on_c, 9, 42, 106
1, 11520, Note_on_c, 9, 36, 106
1, 11525, Note_on_c, 9, 42, 0
1, 11640, Note_on_c, 9, 42, 106
1, 11645, Note_on_c, 9, 42, 0
1, 11760, Note_on_c, 9, 42, 106
1, 11765, Note_on_c, 9, 42, 0
1, 11880, Note_on_c, 9, 42, 106
1, 11885, Note_on_c, 9, 42, 0
1, 11999, Note_on_c, 9, 36, 0
1, 12000, Note_on_c, 9, 42, 106
1, 12005, Note_on_c, 9, 42, 0
1, 12120, Note_on_c, 9, 42, 106
1, 12125, Note_on_c, 9, 42, 0
1, 12240, Note_on_c, 9, 42, 106
1, 12245, Note_on_c, 9, 42, 0
1, 12360, Note_on_c, 9, 42, 106
1, 12360, Note_on_c, 9, 36, 106
1, 12365, Note_on_c, 9, 42, 0
1, 12479, Note_on_c, 9, 36, 0
1, 12480, Note_on_c, 9, 42, 106
1, 12480, Note_on_c, 9, 36, 106
1, 12485, Note_on_c, 9, 42, 0
1, 12600, Note_on_c, 9, 42, 106
1, 12605, Note_on_c, 9, 42, 0
1, 12720, Note_on_c, 9, 42, 106
1, 12725, Note_on_c, 9, 42, 0
1, 12840, Note_on_c, 9, 42, 106
1, 12845, Note_on_c, 9, 42, 0
1, 12959, Note_on_c, 9, 36, 0
1, 12960, Note_on_c, 9, 42, 106
1, 12965, Note_on_c, 9, 42, 0
1, 13080, Note_on_c, 9, 42, 106
1, 13085, Note_on_c, 9, 42, 0
1, 13200, Note_on_c, 9, 42, 106
1, 13205, Note_on_c, 9, 42, 0
1, 13320, Note_on_c, 9, 42, 106
1, 13320, Note_on_c, 9, 36, 106
1, 13325, Note_on_c, 9, 42, 0
1, 13439, Note_on_c, 9, 36, 0
1, 13440, Note_on_c, 9, 42, 106
1, 13440, Note_on_c, 9, 36, 106
1, 13445, Note_on_c, 9, 42, 0
1, 13560, Note_on_c, 9, 42, 106
1, 13565, Note_on_c, 9, 42, 0
1, 13680, Note_on_c, 9, 42, 106
1, 13685, Note_on_c, 9, 42, 0
1, 13800, Note_on_c, 9, 42, 106
1, 13805, Note_on_c, 9, 42, 0
1, 13919, Note_on_c, 9, 36, 0
1, 13920, Note_on_c, 9, 42, 106
1, 13925, Note_on_c, 9, 42, 0
1, 14040, Note_on_c, 9, 42, 106
1, 14045, Note_on_c, 9, 42, 0
1, 14160, Note_on_c, 9, 42, 106
1, 14165, Note_on_c, 9, 42, 0
1, 14280, Note_on_c, 9, 42, 106
1, 14280, Note_on_c, 9, 36, 106
1, 14285, Note_on_c, 9, 42, 0
1, 14399, Note_on_c, 9, 36, 0
1, 14400, Note_on_c, 9, 42, 106
1, 14400, Note_on_c, 9, 36, 106
1, 14405, Note_on_c, 9, 42, 0
1, 14520, Note_on_c, 9, 42, 106
1, 14525, Note_on_c, 9, 42, 0
1, 14640, Note_on_c, 9, 42, 106
1, 14645, Note_on_c, 9, 42, 0
1, 14760, Note_on_c, 9, 42, 106
1, 14765, Note_on_c, 9, 42, 0
1, 14879, Note_on_c, 9, 36, 0
1, 14880, Note_on_c, 9, 42, 106
1, 14885, Note_on_c, 9, 42, 0
1, 15000, Note_on_c, 9, 42, 106
1, 15005, Note_on_c, 9, 42, 0
1, 15120, Note_on_c, 9, 42, 106
1, 15125, Note_on_c, 9, 42, 0
1, 15240, Note_on_c, 9, 42, 106
1, 15240, Note_on_c, 9, 36, 106
1, 15245, Note_on_c, 9, 42, 0
1, 15359, Note_on_c, 9, 36, 0
1, 15360, Note_on_c, 9, 42, 106
1, 15360, Note_on_c, 9, 36, 106
1, 15365, Note_on_c, 9, 42, 0
1, 15480, Note_on_c, 9, 42, 106
1, 15485, Note_on_c, 9, 42, 0
1, 15600, Note_on_c, 9, 42, 106
1, 15605, Note_on_c, 9, 42, 0
1, 15720, Note_on_c, 9, 42, 106
1, 15725, Note_on_c, 9, 42, 0
1, 15839, Note_on_c, 9, 36, 0
1, 15840, Note_on_c, 9, 42, 106
1, 15845, Note_on_c, 9, 42, 0
1, 15960, Note_on_c, 9, 42, 106
1, 15965, Note_on_c, 9, 42, 0
1, 16080, Note_on_c, 9, 42, 106
1, 16085, Note_on_c, 9, 42, 0
1, 16200, Note_on_c, 9, 42, 106
1, 16200, Note_on_c, 9, 36, 106
1, 16205, Note_on_c, 9, 42, 0
1, 16319, Note_on_c, 9, 36, 0
1, 16320, Note_on_c, 9, 42, 106
1, 16320, Note_on_c, 9, 36, 106
1, 16331, Note_on_c, 9, 42, 0
1, 16560, Note_on_c, 9, 38, 106
1, 16679, Note_on_c, 9, 38, 0
1, 16680, Note_on_c, 9, 38, 106
1, 16799, Note_on_c, 9, 36, 0
1, 16799, Note_on_c, 9, 38, 0
1, 16800, Note_on_c, 9, 38, 127
1, 17279, Note_on_c, 9, 38, 0
1, 17280, Note_on_c, 9, 42, 106
1, 17280, Note_on_c, 9, 49, 106
1, 17280, Note_on_c, 9, 36, 106
1, 17285, Note_on_c, 9, 42, 0
1, 17285, Note_on_c, 9, 49, 0
1, 17400, Note_on_c, 9, 42, 106
1, 17405, Note_on_c, 9, 42, 0
1, 17520, Note_on_c, 9, 42, 106
1, 17525, Note_on_c, 9, 42, 0
1, 17640, Note_on_c, 9, 42, 106
1, 17645, Note_on_c, 9, 42, 0
1, 17759, Note_on_c, 9, 36, 0
1, 17760, Note_on_c, 9, 38, 127
1, 17760, Note_on_c, 9, 42, 106
1, 17765, Note_on_c, 9, 42, 0
1, 17879, Note_on_c, 9, 38, 0
1, 17880, Note_on_c, 9, 42, 106
1, 17885, Note_on_c, 9, 42, 0
1, 18000, Note_on_c, 9, 42, 106
1, 18005, Note_on_c, 9, 42, 0
1, 18120, Note_on_c, 9, 42, 106
1, 18125, Note_on_c, 9, 42, 0
1, 18240, Note_on_c, 9, 42, 106
1, 18240, Note_on_c, 9, 36, 106
1, 18245, Note_on_c, 9, 42, 0
1, 18360, Note_on_c, 9, 42, 106
1, 18365, Note_on_c, 9, 42, 0
1, 18479, Note_on_c, 9, 36, 0
1, 18480, Note_on_c, 9, 42, 106
1, 18480, Note_on_c, 9, 36, 106
1, 18485, Note_on_c, 9, 42, 0
1, 18600, Note_on_c, 9, 42, 106
1, 18605, Note_on_c, 9, 42, 0
1, 18719, Note_on_c, 9, 36, 0
1, 18720, Note_on_c, 9, 38, 127
1, 18720, Note_on_c, 9, 42, 106
1, 18725, Note_on_c, 9, 42, 0
1, 18839, Note_on_c, 9, 38, 0
1, 18840, Note_on_c, 9, 42, 106
1, 18845, Note_on_c, 9, 42, 0
1, 18960, Note_on_c, 9, 42, 106
1, 18960, Note_on_c, 9, 36, 106
1, 18965, Note_on_c, 9, 42, 0
1, 19080, Note_on_c, 9, 42, 106
1, 19085, Note_on_c, 9, 42, 0
1, 19199, Note_on_c, 9, 36, 0
1, 19200, Note_on_c, 9, 42, 106
1, 19205, Note_on_c, 9, 42, 0
1, 19320, Note_on_c, 9, 42, 106
1, 19325, Note_on_c, 9, 42, 0
1, 19440, Note_on_c, 9, 42, 106
1, 19440, Note_on_c, 9, 36, 106
1, 19445, Note_on_c, 9, 42, 0
1, 19560, Note_on_c, 9, 42, 106
1, 19565, Note_on_c, 9, 42, 0
1, 19679, Note_on_c, 9, 36, 0
1, 19680, Note_on_c, 9, 38, 127
1, 19680, Note_on_c, 9, 42, 106
1, 19685, Note_on_c, 9, 42, 0
1, 19799, Note_on_c, 9, 38, 0
1, 19800, Note_on_c, 9, 42, 106
1, 19805, Note_on_c, 9, 42, 0
1, 19920, Note_on_c, 9, 42, 106
1, 19925, Note_on_c, 9, 42, 0
1, 20040, Note_on_c, 9, 42, 106
1, 20045, Note_on_c, 9, 42, 0
1, 20160, Note_on_c, 9, 42, 106
1, 20160, Note_on_c, 9, 36, 106
1, 20165, Note_on_c, 9, 42, 0
1, 20280, Note_on_c, 9, 42, 106
1, 20285, Note_on_c, 9, 42, 0
1, 20400, Note_on_c, 9, 42, 106
1, 20405, Note_on_c, 9, 42, 0
1, 20520, Note_on_c, 9, 42, 106
1, 20525, Note_on_c, 9, 42, 0
1, 20639, Note_on_c, 9, 36, 0
1, 20640, Note_on_c, 9, 38, 127
1, 20640, Note_on_c, 9, 42, 106
1, 20645, Note_on_c, 9, 42, 0
1, 20759, Note_on_c, 9, 38, 0
1, 20760, Note_on_c, 9, 42, 106
1, 20765, Note_on_c, 9, 42, 0
1, 20880, Note_on_c, 9, 42, 106
1, 20885, Note_on_c, 9, 42, 0
1, 21000, Note_on_c, 9, 42, 106
1, 21005, Note_on_c, 9, 42, 0
1, 21120, Note_on_c, 9, 42, 106
1, 21120, Note_on_c, 9, 36, 106
1, 21125, Note_on_c, 9, 42, 0
1, 21240, Note_on_c, 9, 42, 106
1, 21245, Note_on_c, 9, 42, 0
1, 21360, Note_on_c, 9, 42, 106
1, 21365, Note_on_c, 9, 42, 0
1, 21480, Note_on_c, 9, 42, 106
1, 21485, Note_on_c, 9, 42, 0
1, 21599, Note_on_c, 9, 36, 0
1, 21600, Note_on_c, 9, 38, 127
1, 21600, Note_on_c, 9, 42, 106
1, 21605, Note_on_c, 9, 42, 0
1, 21719, Note_on_c, 9, 38, 0
1, 21720, Note_on_c, 9, 42, 106
1, 21725, Note_on_c, 9, 42, 0
1, 21840, Note_on_c, 9, 42, 106
1, 21845, Note_on_c, 9, 42, 0
1, 21960, Note_on_c, 9, 42, 106
1, 21965, Note_on_c, 9, 42, 0
1, 22080, Note_on_c, 9, 42, 106
1, 22080, Note_on_c, 9, 36, 106
1, 22085, Note_on_c, 9, 42, 0
1, 22200, Note_on_c, 9, 42, 106
1, 22205, Note_on_c, 9, 42, 0
1, 22319, Note_on_c, 9, 36, 0
1, 22320, Note_on_c, 9, 42, 106
1, 22320, Note_on_c, 9, 36, 106
1, 22325, Note_on_c, 9, 42, 0
1, 22440, Note_on_c, 9, 42, 106
1, 22445, Note_on_c, 9, 42, 0
1, 22559, Note_on_c, 9, 36, 0
1, 22560, Note_on_c, 9, 38, 127
1, 22560, Note_on_c, 9, 42, 106
1, 22565, Note_on_c, 9, 42, 0
1, 22679, Note_on_c, 9, 38, 0
1, 22680, Note_on_c, 9, 42, 106
1, 22685, Note_on_c, 9, 42, 0
1, 22800, Note_on_c, 9, 42, 106
1, 22800, Note_on_c, 9, 36, 106
1, 22805, Note_on_c, 9, 42, 0
1, 22920, Note_on_c, 9, 42, 106
1, 22925, Note_on_c, 9, 42, 0
1, 23039, Note_on_c, 9, 36, 0
1, 23040, Note_on_c, 9, 42, 106
1, 23045, Note_on_c, 9, 42, 0
1, 23160, Note_on_c, 9, 42, 106
1, 23165, Note_on_c, 9, 42, 0
1, 23280, Note_on_c, 9, 42, 106
1, 23280, Note_on_c, 9, 36, 106
1, 23285, Note_on_c, 9, 42, 0
1, 23400, Note_on_c, 9, 42, 106
1, 23405, Note_on_c, 9, 42, 0
1, 23519, Note_on_c, 9, 36, 0
1, 23520, Note_on_c, 9, 38, 127
1, 23520, Note_on_c, 9, 42, 106
1, 23525, Note_on_c, 9, 42, 0
1, 23639, Note_on_c, 9, 38, 0
1, 23640, Note_on_c, 9, 42, 106
1, 23645, Note_on_c, 9, 42, 0
1, 23760, Note_on_c, 9, 42, 106
1, 23765, Note_on_c, 9, 42, 0
1, 23880, Note_on_c, 9, 42, 106
1, 23885, Note_on_c, 9, 42, 0
1, 24000, Note_on_c, 9, 42, 106
1, 24000, Note_on_c, 9, 36, 106
1, 24005, Note_on_c, 9, 42, 0
1, 24120, Note_on_c, 9, 42, 106
1, 24125, Note_on_c, 9, 42, 0
1, 24240, Note_on_c, 9, 42, 106
1, 24245, Note_on_c, 9, 42, 0
1, 24360, Note_on_c, 9, 42, 106
1, 24365, Note_on_c, 9, 42, 0
1, 24479, Note_on_c, 9, 36, 0
1, 24480, Note_on_c, 9, 38, 127
1, 24839, Note_on_c, 9, 38, 0
1, 24840, Note_on_c, 9, 38, 127
1, 24959, Note_on_c, 9, 38, 0
1, 24960, Note_on_c, 9, 42, 106
1, 24960, Note_on_c, 9, 49, 106
1, 24960, Note_on_c, 9, 36, 106
1, 24965, Note_on_c, 9, 42, 0
1, 24965, Note_on_c, 9, 49, 0
1, 25080, Note_on_c, 9, 42, 106
1, 25085, Note_on_c, 9, 42, 0
1, 25200, Note_on_c, 9, 42, 106
1, 25205, Note_on_c, 9, 42, 0
1, 25320, Note_on_c, 9, 42, 106
1, 25325, Note_on_c, 9, 42, 0
1, 25439, Note_on_c, 9, 36, 0
1, 25440, Note_on_c, 9, 38, 127
1, 25440, Note_on_c, 9, 42, 106
1, 25445, Note_on_c, 9, 42, 0
1, 25559, Note_on_c, 9, 38, 0
1, 25560, Note_on_c, 9, 42, 106
1, 25565, Note_on_c, 9, 42, 0
1, 25680, Note_on_c, 9, 42, 106
1, 25685, Note_on_c, 9, 42, 0
1, 25800, Note_on_c, 9, 42, 106
1, 25805, Note_on_c, 9, 42, 0
1, 25920, Note_on_c, 9, 42, 106
1, 25920, Note_on_c, 9, 36, 106
1, 25925, Note_on_c, 9, 42, 0
1, 26040, Note_on_c, 9, 42, 106
1, 26045, Note_on_c, 9, 42, 0
1, 26159, Note_on_c, 9, 36, 0
1, 26160, Note_on_c, 9, 42, 106
1, 26160, Note_on_c, 9, 36, 106
1, 26165, Note_on_c, 9, 42, 0
1, 26280, Note_on_c, 9, 42, 106
1, 26285, Note_on_c, 9, 42, 0
1, 26399, Note_on_c, 9, 36, 0
1, 26400, Note_on_c, 9, 38, 127
1, 26400, Note_on_c, 9, 42, 106
1, 26405, Note_on_c, 9, 42, 0
1, 26519, Note_on_c, 9, 38, 0
1, 26520, Note_on_c, 9, 42, 106
1, 26525, Note_on_c, 9, 42, 0
1, 26640, Note_on_c, 9, 42, 106
1, 26640, Note_on_c, 9, 36, 106
1, 26645, Note_on_c, 9, 42, 0
1, 26760, Note_on_c, 9, 42, 106
1, 26765, Note_on_c, 9, 42, 0
1, 26879, Note_on_c, 9, 36, 0
1, 26880, Note_on_c, 9, 42, 106
1, 26885, Note_on_c, 9, 42, 0
1, 27000, Note_on_c, 9, 42, 106
1, 27005, Note_on_c, 9, 42, 0
1, 27120, Note_on_c, 9, 42, 106
1, 27120, Note_on_c, 9, 36, 106
1, 27125, Note_on_c, 9, 42, 0
1, 27240, Note_on_c, 9, 42, 106
1, 27245, Note_on_c, 9, 42, 0
1, 27359, Note_on_c, 9, 36, 0
1, 27360, Note_on_c, 9, 38, 106
1, 27360, Note_on_c, 9, 42, 106
1, 27365, Note_on_c, 9, 42, 0
1, 27479, Note_on_c, 9, 38, 0
1, 27480, Note_on_c, 9, 42, 106
1, 27485, Note_on_c, 9, 42, 0
1, 27600, Note_on_c, 9, 42, 106
1, 27605, Note_on_c, 9, 42, 0
1, 27720, Note_on_c, 9, 42, 106
1, 27725, Note_on_c, 9, 42, 0
1, 27840, Note_on_c, 9, 42, 106
1, 27840, Note_on_c, 9, 36, 106
1, 27845, Note_on_c, 9, 42, 0
1, 27960, Note_on_c, 9, 42, 106
1, 27965, Note_on_c, 9, 42, 0
1, 28080, Note_on_c, 9, 42, 106
1, 28085, Note_on_c, 9, 42, 0
1, 28200, Note_on_c, 9, 42, 106
1, 28205, Note_on_c, 9, 42, 0
1, 28319, Note_on_c, 9, 36, 0
1, 28320, Note_on_c, 9, 38, 106
1, 28320, Note_on_c, 9, 42, 106
1, 28325, Note_on_c, 9, 42, 0
1, 28439, Note_on_c, 9, 38, 0
1, 28440, Note_on_c, 9, 42, 106
1, 28445, Note_on_c, 9, 42, 0
1, 28560, Note_on_c, 9, 42, 106
1, 28565, Note_on_c, 9, 42, 0
1, 28680, Note_on_c, 9, 42, 106
1, 28685, Note_on_c, 9, 42, 0
1, 28800, Note_on_c, 9, 42, 106
1, 28800, Note_on_c, 9, 36, 106
1, 28805, Note_on_c, 9, 42, 0
1, 28920, Note_on_c, 9, 42, 106
1, 28925, Note_on_c, 9, 42, 0
1, 29040, Note_on_c, 9, 42, 106
1, 29045, Note_on_c, 9, 42, 0
1, 29160, Note_on_c, 9, 42, 106
1, 29165, Note_on_c, 9, 42, 0
1, 29279, Note_on_c, 9, 36, 0
1, 29280, Note_on_c, 9, 38, 127
1, 29280, Note_on_c, 9, 42, 106
1, 29285, Note_on_c, 9, 42, 0
1, 29399, Note_on_c, 9, 38, 0
1, 29400, Note_on_c, 9, 42, 106
1, 29405, Note_on_c, 9, 42, 0
1, 29520, Note_on_c, 9, 42, 106
1, 29525, Note_on_c, 9, 42, 0
1, 29640, Note_on_c, 9, 42, 106
1, 29645, Note_on_c, 9, 42, 0
1, 29760, Note_on_c, 9, 42, 106
1, 29760, Note_on_c, 9, 36, 106
1, 29765, Note_on_c, 9, 42, 0
1, 29880, Note_on_c, 9, 42, 106
1, 29885, Note_on_c, 9, 42, 0
1, 29999, Note_on_c, 9, 36, 0
1, 30000, Note_on_c, 9, 42, 106
1, 30000, Note_on_c, 9, 36, 106
1, 30005, Note_on_c, 9, 42, 0
1, 30120, Note_on_c, 9, 42, 106
1, 30125, Note_on_c, 9, 42, 0
1, 30239, Note_on_c, 9, 36, 0
1, 30240, Note_on_c, 9, 38, 127
1, 30240, Note_on_c, 9, 42, 106
1, 30245, Note_on_c, 9, 42, 0
1, 30359, Note_on_c, 9, 38, 0
1, 30360, Note_on_c, 9, 42, 106
1, 30365, Note_on_c, 9, 42, 0
1, 30480, Note_on_c, 9, 42, 106
1, 30480, Note_on_c, 9, 36, 106
1, 30485, Note_on_c, 9, 42, 0
1, 30600, Note_on_c, 9, 42, 106
1, 30605, Note_on_c, 9, 42, 0
1, 30719, Note_on_c, 9, 36, 0
1, 30720, Note_on_c, 9, 42, 106
1, 30725, Note_on_c, 9, 42, 0
1, 30840, Note_on_c, 9, 42, 106
1, 30845, Note_on_c, 9, 42, 0
1, 30960, Note_on_c, 9, 42, 106
1, 30960, Note_on_c, 9, 36, 106
1, 30965, Note_on_c, 9, 42, 0
1, 31080, Note_on_c, 9, 42, 106
1, 31085, Note_on_c, 9, 42, 0
1, 31199, Note_on_c, 9, 36, 0
1, 31200, Note_on_c, 9, 38, 106
1, 31200, Note_on_c, 9, 42, 106
1, 31205, Note_on_c, 9, 42, 0
1, 31319, Note_on_c, 9, 38, 0
1, 31320, Note_on_c, 9, 42, 106
1, 31325, Note_on_c, 9, 42, 0
1, 31440, Note_on_c, 9, 42, 106
1, 31445, Note_on_c, 9, 42, 0
1, 31560, Note_on_c, 9, 42, 106
1, 31565, Note_on_c, 9, 42, 0
1, 31680, Note_on_c, 9, 42, 106
1, 31680, Note_on_c, 9, 36, 106
1, 31685, Note_on_c, 9, 42, 0
1, 31800, Note_on_c, 9, 42, 106
1, 31805, Note_on_c, 9, 42, 0
1, 31920, Note_on_c, 9, 42, 106
1, 31925, Note_on_c, 9, 42, 0
1, 32040, Note_on_c, 9, 38, 106
1, 32040, Note_on_c, 9, 42, 106
1, 32045, Note_on_c, 9, 42, 0
1, 32159, Note_on_c, 9, 36, 0
1, 32159, Note_on_c, 9, 38, 0
1, 32160, Note_on_c, 9, 38, 127
1, 32519, Note_on_c, 9, 38, 0
1, 32520, Note_on_c, 9, 38, 106
1, 32639, Note_on_c, 9, 38, 0
1, 32640, Note_on_c, 9, 42, 106
1, 32640, Note_on_c, 9, 49, 106
1, 32640, Note_on_c, 9, 36, 106
1, 32645, Note_on_c, 9, 42, 0
1, 32645, Note_on_c, 9, 49, 0
1, 32760, Note_on_c, 9, 42, 106
1, 32765, Note_on_c, 9, 42, 0
1, 32880, Note_on_c, 9, 42, 106
1, 32885, Note_on_c, 9, 42, 0
1, 33000, Note_on_c, 9, 42, 106
1, 33005, Note_on_c, 9, 42, 0
1, 33119, Note_on_c, 9, 36, 0
1, 33120, Note_on_c, 9, 38, 127
1, 33120, Note_on_c, 9, 42, 106
1, 33125, Note_on_c, 9, 42, 0
1, 33239, Note_on_c, 9, 38, 0
1, 33240, Note_on_c, 9, 42, 106
1, 33245, Note_on_c, 9, 42, 0
1, 33360, Note_on_c, 9, 42, 106
1, 33365, Note_on_c, 9, 42, 0
1, 33480, Note_on_c, 9, 42, 106
1, 33485, Note_on_c, 9, 42, 0
1, 33600, Note_on_c, 9, 42, 106
1, 33600, Note_on_c, 9, 36, 106
1, 33605, Note_on_c, 9, 42, 0
1, 33720, Note_on_c, 9, 42, 106
1, 33725, Note_on_c, 9, 42, 0
1, 33840, Note_on_c, 9, 42, 106
1, 33845, Note_on_c, 9, 42, 0
1, 33960, Note_on_c, 9, 42, 106
1, 33965, Note_on_c, 9, 42, 0
1, 34079, Note_on_c, 9, 36, 0
1, 34080, Note_on_c, 9, 38, 127
1, 34080, Note_on_c, 9, 42, 106
1, 34085, Note_on_c, 9, 42, 0
1, 34199, Note_on_c, 9, 38, 0
1, 34200, Note_on_c, 9, 42, 106
1, 34205, Note_on_c, 9, 42, 0
1, 34320, Note_on_c, 9, 42, 106
1, 34325, Note_on_c, 9, 42, 0
1, 34440, Note_on_c, 9, 42, 106
1, 34445, Note_on_c, 9, 42, 0
1, 34560, Note_on_c, 9, 42, 106
1, 34560, Note_on_c, 9, 36, 106
1, 34565, Note_on_c, 9, 42, 0
1, 34680, Note_on_c, 9, 42, 106
1, 34685, Note_on_c, 9, 42, 0
1, 34800, Note_on_c, 9, 42, 106
1, 34805, Note_on_c, 9, 42, 0
1, 34920, Note_on_c, 9, 42, 106
1, 34925, Note_on_c, 9, 42, 0
1, 35039, Note_on_c, 9, 36, 0
1, 35040, Note_on_c, 9, 38, 127
1, 35040, Note_on_c, 9, 42, 106
1, 35045, Note_on_c, 9, 42, 0
1, 35159, Note_on_c, 9, 38, 0
1, 35160, Note_on_c, 9, 42, 106
1, 35165, Note_on_c, 9, 42, 0
1, 35280, Note_on_c, 9, 42, 106
1, 35285, Note_on_c, 9, 42, 0
1, 35400, Note_on_c, 9, 42, 106
1, 35405, Note_on_c, 9, 42, 0
1, 35520, Note_on_c, 9, 42, 106
1, 35520, Note_on_c, 9, 36, 106
1, 35525, Note_on_c, 9, 42, 0
1, 35640, Note_on_c, 9, 42, 106
1, 35645, Note_on_c, 9, 42, 0
1, 35760, Note_on_c, 9, 42, 106
1, 35765, Note_on_c, 9, 42, 0
1, 35880, Note_on_c, 9, 42, 106
1, 35885, Note_on_c, 9, 42, 0
1, 35999, Note_on_c, 9, 36, 0
1, 36000, Note_on_c, 9, 38, 127
1, 36000, Note_on_c, 9, 42, 106
1, 36005, Note_on_c, 9, 42, 0
1, 36119, Note_on_c, 9, 38, 0
1, 36120, Note_on_c, 9, 42, 106
1, 36125, Note_on_c, 9, 42, 0
1, 36240, Note_on_c, 9, 42, 106
1, 36245, Note_on_c, 9, 42, 0
1, 36360, Note_on_c, 9, 42, 106
1, 36365, Note_on_c, 9, 42, 0
1, 36480, Note_on_c, 9, 42, 106
1, 36480, Note_on_c, 9, 36, 106
1, 36485, Note_on_c, 9, 42, 0
1, 36600, Note_on_c, 9, 42, 106
1, 36605, Note_on_c, 9, 42, 0
1, 36720, Note_on_c, 9, 42, 106
1, 36725, Note_on_c, 9, 42, 0
1, 36840, Note_on_c, 9, 42, 106
1, 36845, Note_on_c, 9, 42, 0
1, 36959, Note_on_c, 9, 36, 0
1, 36960, Note_on_c, 9, 38, 127
1, 36960, Note_on_c, 9, 42, 106
1, 36965, Note_on_c, 9, 42, 0
1, 37079, Note_on_c, 9, 38, 0
1, 37080, Note_on_c, 9, 42, 106
1, 37085, Note_on_c, 9, 42, 0
1, 37200, Note_on_c, 9, 42, 106
1, 37205, Note_on_c, 9, 42, 0
1, 37320, Note_on_c, 9, 42, 106
1, 37325, Note_on_c, 9, 42, 0
1, 37440, Note_on_c, 9, 42, 106
1, 37440, Note_on_c, 9, 36, 106
1, 37445, Note_on_c, 9, 42, 0
1, 37560, Note_on_c, 9, 42, 106
1, 37565, Note_on_c, 9, 42, 0
1, 37680, Note_on_c, 9, 42, 106
1, 37685, Note_on_c, 9, 42, 0
1, 37800, Note_on_c, 9, 42, 106
1, 37805, Note_on_c, 9, 42, 0
1, 37919, Note_on_c, 9, 36, 0
1, 37920, Note_on_c, 9, 38, 127
1, 37920, Note_on_c, 9, 42, 106
1, 37925, Note_on_c, 9, 42, 0
1, 38039, Note_on_c, 9, 38, 0
1, 38040, Note_on_c, 9, 42, 106
1, 38045, Note_on_c, 9, 42, 0
1, 38160, Note_on_c, 9, 42, 106
1, 38165, Note_on_c, 9, 42, 0
1, 38280, Note_on_c, 9, 42, 106
1, 38285, Note_on_c, 9, 42, 0
1, 38400, Note_on_c, 9, 42, 106
1, 38400, Note_on_c, 9, 36, 106
1, 38405, Note_on_c, 9, 42, 0
1, 38520, Note_on_c, 9, 42, 106
1, 38525, Note_on_c, 9, 42, 0
1, 38640, Note_on_c, 9, 42, 106
1, 38645, Note_on_c, 9, 42, 0
1, 38760, Note_on_c, 9, 42, 106
1, 38765, Note_on_c, 9, 42, 0
1, 38879, Note_on_c, 9, 36, 0
1, 38880, Note_on_c, 9, 38, 127
1, 38880, Note_on_c, 9, 42, 106
1, 38885, Note_on_c, 9, 42, 0
1, 38999, Note_on_c, 9, 38, 0
1, 39000, Note_on_c, 9, 42, 106
1, 39005, Note_on_c, 9, 42, 0
1, 39120, Note_on_c, 9, 42, 106
1, 39125, Note_on_c, 9, 42, 0
1, 39240, Note_on_c, 9, 42, 106
1, 39245, Note_on_c, 9, 42, 0
1, 39360, Note_on_c, 9, 42, 106
1, 39360, Note_on_c, 9, 36, 106
1, 39365, Note_on_c, 9, 42, 0
1, 39480, Note_on_c, 9, 42, 106
1, 39485, Note_on_c, 9, 42, 0
1, 39600, Note_on_c, 9, 42, 106
1, 39605, Note_on_c, 9, 42, 0
1, 39720, Note_on_c, 9, 42, 106
1, 39725, Note_on_c, 9, 42, 0
1, 39839, Note_on_c, 9, 36, 0
1, 39840, Note_on_c, 9, 38, 127
1, 39840, Note_on_c, 9, 42, 106
1, 39845, Note_on_c, 9, 42, 0
1, 39959, Note_on_c, 9, 38, 0
1, 39960, Note_on_c, 9, 42, 106
1, 39965, Note_on_c, 9, 42, 0
1, 40080, Note_on_c, 9, 42, 106
1, 40085, Note_on_c, 9, 42, 0
1, 40200, Note_on_c, 9, 42, 106
1, 40205, Note_on_c, 9, 42, 0
1, 40320, Note_on_c, 9, 42, 106
1, 40320, Note_on_c, 9, 36, 106
1, 40325, Note_on_c, 9, 42, 0
1, 40440, Note_on_c, 9, 42, 106
1, 40445, Note_on_c, 9, 42, 0
1, 40560, Note_on_c, 9, 42, 106
1, 40565, Note_on_c, 9, 42, 0
1, 40680, Note_on_c, 9, 42, 106
1, 40685, Note_on_c, 9, 42, 0
1, 40799, Note_on_c, 9, 36, 0
1, 40800, Note_on_c, 9, 38, 127
1, 40800, Note_on_c, 9, 42, 106
1, 40805, Note_on_c, 9, 42, 0
1, 40919, Note_on_c, 9, 38, 0
1, 40920, Note_on_c, 9, 42, 106
1, 40925, Note_on_c, 9, 42, 0
1, 41040, Note_on_c, 9, 42, 106
1, 41045, Note_on_c, 9, 42, 0
1, 41160, Note_on_c, 9, 42, 106
1, 41165, Note_on_c, 9, 42, 0
1, 41280, Note_on_c, 9, 42, 106
1, 41280, Note_on_c, 9, 36, 106
1, 41285, Note_on_c, 9, 42, 0
1, 41400, Note_on_c, 9, 42, 106
1, 41405, Note_on_c, 9, 42, 0
1, 41520, Note_on_c, 9, 42, 106
1, 41525, Note_on_c, 9, 42, 0
1, 41640, Note_on_c, 9, 42, 106
1, 41645, Note_on_c, 9, 42, 0
1, 41759, Note_on_c, 9, 36, 0
1, 41760, Note_on_c, 9, 38, 127
1, 41760, Note_on_c, 9, 42, 106
1, 41765, Note_on_c, 9, 42, 0
1, 41879, Note_on_c, 9, 38, 0
1, 41880, Note_on_c, 9, 42, 106
1, 41885, Note_on_c, 9, 42, 0
1, 42000, Note_on_c, 9, 42, 106
1, 42005, Note_on_c, 9, 42, 0
1, 42120, Note_on_c, 9, 42, 106
1, 42125, Note_on_c, 9, 42, 0
1, 42240, Note_on_c, 9, 42, 106
1, 42240, Note_on_c, 9, 36, 106
1, 42245, Note_on_c, 9, 42, 0
1, 42360, Note_on_c, 9, 42, 106
1, 42365, Note_on_c, 9, 42, 0
1, 42480, Note_on_c, 9, 42, 106
1, 42485, Note_on_c, 9, 42, 0
1, 42600, Note_on_c, 9, 42, 106
1, 42605, Note_on_c, 9, 42, 0
1, 42719, Note_on_c, 9, 36, 0
1, 42720, Note_on_c, 9, 38, 127
1, 42720, Note_on_c, 9, 42, 106
1, 42725, Note_on_c, 9, 42, 0
1, 42839, Note_on_c, 9, 38, 0
1, 42840, Note_on_c, 9, 42, 106
1, 42845, Note_on_c, 9, 42, 0
1, 42960, Note_on_c, 9, 42, 106
1, 42965, Note_on_c, 9, 42, 0
1, 43080, Note_on_c, 9, 42, 106
1, 43085, Note_on_c, 9, 42, 0
1, 43200, Note_on_c, 9, 42, 106
1, 43200, Note_on_c, 9, 36, 106
1, 43205, Note_on_c, 9, 42, 0
1, 43320, Note_on_c, 9, 42, 106
1, 43325, Note_on_c, 9, 42, 0
1, 43440, Note_on_c, 9, 42, 106
1, 43445, Note_on_c, 9, 42, 0
1, 43560, Note_on_c, 9, 42, 106
1, 43565, Note_on_c, 9, 42, 0
1, 43679, Note_on_c, 9, 36, 0
1, 43680, Note_on_c, 9, 38, 127
1, 43680, Note_on_c, 9, 42, 106
1, 43685, Note_on_c, 9, 42, 0
1, 43799, Note_on_c, 9, 38, 0
1, 43800, Note_on_c, 9, 42, 106
1, 43805, Note_on_c, 9, 42, 0
1, 43920, Note_on_c, 9, 42, 106
1, 43925, Note_on_c, 9, 42, 0
1, 44040, Note_on_c, 9, 42, 106
1, 44045, Note_on_c, 9, 42, 0
1, 44160, Note_on_c, 9, 42, 106
1, 44160, Note_on_c, 9, 36, 106
1, 44165, Note_on_c, 9, 42, 0
1, 44280, Note_on_c, 9, 42, 106
1, 44285, Note_on_c, 9, 42, 0
1, 44400, Note_on_c, 9, 42, 106
1, 44405, Note_on_c, 9, 42, 0
1, 44520, Note_on_c, 9, 42, 106
1, 44525, Note_on_c, 9, 42, 0
1, 44639, Note_on_c, 9, 36, 0
1, 44640, Note_on_c, 9, 38, 127
1, 44640, Note_on_c, 9, 42, 106
1, 44645, Note_on_c, 9, 42, 0
1, 44759, Note_on_c, 9, 38, 0
1, 44760, Note_on_c, 9, 42, 106
1, 44765, Note_on_c, 9, 42, 0
1, 44880, Note_on_c, 9, 42, 106
1, 44885, Note_on_c, 9, 42, 0
1, 45000, Note_on_c, 9, 42, 106
1, 45005, Note_on_c, 9, 42, 0
1, 45120, Note_on_c, 9, 42, 106
1, 45120, Note_on_c, 9, 36, 106
1, 45125, Note_on_c, 9, 42, 0
1, 45240, Note_on_c, 9, 42, 106
1, 45245, Note_on_c, 9, 42, 0
1, 45360, Note_on_c, 9, 42, 106
1, 45365, Note_on_c, 9, 42, 0
1, 45480, Note_on_c, 9, 42, 106
1, 45485, Note_on_c, 9, 42, 0
1, 45599, Note_on_c, 9, 36, 0
1, 45600, Note_on_c, 9, 38, 127
1, 45600, Note_on_c, 9, 42, 106
1, 45605, Note_on_c, 9, 42, 0
1, 45719, Note_on_c, 9, 38, 0
1, 45720, Note_on_c, 9, 42, 106
1, 45725, Note_on_c, 9, 42, 0
1, 45840, Note_on_c, 9, 42, 106
1, 45845, Note_on_c, 9, 42, 0
1, 45960, Note_on_c, 9, 42, 106
1, 45965, Note_on_c, 9, 42, 0
1, 46080, Note_on_c, 9, 42, 106
1, 46080, Note_on_c, 9, 36, 106
1, 46085, Note_on_c, 9, 42, 0
1, 46200, Note_on_c, 9, 42, 106
1, 46205, Note_on_c, 9, 42, 0
1, 46320, Note_on_c, 9, 42, 106
1, 46325, Note_on_c, 9, 42, 0
1, 46440, Note_on_c, 9, 42, 106
1, 46445, Note_on_c, 9, 42, 0
1, 46559, Note_on_c, 9, 36, 0
1, 46560, Note_on_c, 9, 38, 127
1, 46560, Note_on_c, 9, 42, 106
1, 46565, Note_on_c, 9, 42, 0
1, 46679, Note_on_c, 9, 38, 0
1, 46680, Note_on_c, 9, 42, 106
1, 46685, Note_on_c, 9, 42, 0
1, 46800, Note_on_c, 9, 42, 106
1, 46805, Note_on_c, 9, 42, 0
1, 46920, Note_on_c, 9, 42, 106
1, 46925, Note_on_c, 9, 42, 0
1, 47040, Note_on_c, 9, 42, 106
1, 47040, Note_on_c, 9, 36, 106
1, 47045, Note_on_c, 9, 42, 0
1, 47160, Note_on_c, 9, 42, 106
1, 47165, Note_on_c, 9, 42, 0
1, 47280, Note_on_c, 9, 42, 106
1, 47285, Note_on_c, 9, 42, 0
1, 47400, Note_on_c, 9, 42, 106
1, 47405, Note_on_c, 9, 42, 0
1, 47519, Note_on_c, 9, 36, 0
1, 47520, Note_on_c, 9, 38, 127
1, 47520, Note_on_c, 9, 42, 106
1, 47525, Note_on_c, 9, 42, 0
1, 47639, Note_on_c, 9, 38, 0
1, 47640, Note_on_c, 9, 42, 106
1, 47645, Note_on_c, 9, 42, 0
1, 47760, Note_on_c, 9, 42, 106
1, 47765, Note_on_c, 9, 42, 0
1, 47880, Note_on_c, 9, 38, 106
1, 47880, Note_on_c, 9, 42, 106
1, 47885, Note_on_c, 9, 42, 0
1, 47999, Note_on_c, 9, 38, 0
1, 48000, Note_on_c, 9, 42, 106
1, 48000, Note_on_c, 9, 49, 106
1, 48000, Note_on_c, 9, 36, 106
1, 48005, Note_on_c, 9, 42, 0
1, 48005, Note_on_c, 9, 49, 0
1, 48120, Note_on_c, 9, 42, 106
1, 48125, Note_on_c, 9, 42, 0
1, 48240, Note_on_c, 9, 42, 106
1, 48245, Note_on_c, 9, 42, 0
1, 48360, Note_on_c, 9, 42, 106
1, 48365, Note_on_c, 9, 42, 0
1, 48479, Note_on_c, 9, 36, 0
1, 48480, Note_on_c, 9, 38, 127
1, 48480, Note_on_c, 9, 42, 106
1, 48485, Note_on_c, 9, 42, 0
1, 48599, Note_on_c, 9, 38, 0
1, 48600, Note_on_c, 9, 42, 106
1, 48605, Note_on_c, 9, 42, 0
1, 48720, Note_on_c, 9, 42, 106
1, 48725, Note_on_c, 9, 42, 0
1, 48840, Note_on_c, 9, 42, 106
1, 48845, Note_on_c, 9, 42, 0
1, 48960, Note_on_c, 9, 42, 106
1, 48960, Note_on_c, 9, 36, 106
1, 48965, Note_on_c, 9, 42, 0
1, 49080, Note_on_c, 9, 42, 106
1, 49085, Note_on_c, 9, 42, 0
1, 49200, Note_on_c, 9, 42, 106
1, 49205, Note_on_c, 9, 42, 0
1, 49320, Note_on_c, 9, 42, 106
1, 49325, Note_on_c, 9, 42, 0
1, 49439, Note_on_c, 9, 36, 0
1, 49440, Note_on_c, 9, 38, 127
1, 49440, Note_on_c, 9, 42, 106
1, 49445, Note_on_c, 9, 42, 0
1, 49559, Note_on_c, 9, 38, 0
1, 49560, Note_on_c, 9, 42, 106
1, 49565, Note_on_c, 9, 42, 0
1, 49680, Note_on_c, 9, 42, 106
1, 49685, Note_on_c, 9, 42, 0
1, 49800, Note_on_c, 9, 42, 106
1, 49805, Note_on_c, 9, 42, 0
1, 49920, Note_on_c, 9, 42, 106
1, 49920, Note_on_c, 9, 36, 106
1, 49925, Note_on_c, 9, 42, 0
1, 50040, Note_on_c, 9, 42, 106
1, 50045, Note_on_c, 9, 42, 0
1, 50160, Note_on_c, 9, 42, 106
1, 50165, Note_on_c, 9, 42, 0
1, 50280, Note_on_c, 9, 42, 106
1, 50285, Note_on_c, 9, 42, 0
1, 50399, Note_on_c, 9, 36, 0
1, 50400, Note_on_c, 9, 38, 127
1, 50400, Note_on_c, 9, 42, 106
1, 50405, Note_on_c, 9, 42, 0
1, 50519, Note_on_c, 9, 38, 0
1, 50520, Note_on_c, 9, 42, 106
1, 50525, Note_on_c, 9, 42, 0
1, 50640, Note_on_c, 9, 42, 106
1, 50645, Note_on_c, 9, 42, 0
1, 50760, Note_on_c, 9, 42, 106
1, 50765, Note_on_c, 9, 42, 0
1, 50880, Note_on_c, 9, 42, 106
1, 50880, Note_on_c, 9, 36, 106
1, 50885, Note_on_c, 9, 42, 0
1, 51000, Note_on_c, 9, 42, 106
1, 51005, Note_on_c, 9, 42, 0
1, 51120, Note_on_c, 9, 42, 106
1, 51125, Note_on_c, 9, 42, 0
1, 51240, Note_on_c, 9, 42, 106
1, 51245, Note_on_c, 9, 42, 0
1, 51359, Note_on_c, 9, 36, 0
1, 51360, Note_on_c, 9, 38, 127
1, 51360, Note_on_c, 9, 42, 106
1, 51365, Note_on_c, 9, 42, 0
1, 51479, Note_on_c, 9, 38, 0
1, 51480, Note_on_c, 9, 42, 106
1, 51485, Note_on_c, 9, 42, 0
1, 51600, Note_on_c, 9, 42, 106
1, 51605, Note_on_c, 9, 42, 0
1, 51720, Note_on_c, 9, 42, 106
1, 51725, Note_on_c, 9, 42, 0
1, 51840, Note_on_c, 9, 42, 106
1, 51840, Note_on_c, 9, 36, 106
1, 51845, Note_on_c, 9, 42, 0
1, 51960, Note_on_c, 9, 42, 106
1, 51965, Note_on_c, 9, 42, 0
1, 52080, Note_on_c, 9, 42, 106
1, 52085, Note_on_c, 9, 42, 0
1, 52200, Note_on_c, 9, 42, 106
1, 52205, Note_on_c, 9, 42, 0
1, 52319, Note_on_c, 9, 36, 0
1, 52320, Note_on_c, 9, 38, 127
1, 52320, Note_on_c, 9, 42, 106
1, 52325, Note_on_c, 9, 42, 0
1, 52439, Note_on_c, 9, 38, 0
1, 52440, Note_on_c, 9, 42, 106
1, 52445, Note_on_c, 9, 42, 0
1, 52560, Note_on_c, 9, 42, 106
1, 52565, Note_on_c, 9, 42, 0
1, 52680, Note_on_c, 9, 42, 106
1, 52685, Note_on_c, 9, 42, 0
1, 52800, Note_on_c, 9, 42, 106
1, 52800, Note_on_c, 9, 36, 106
1, 52805, Note_on_c, 9, 42, 0
1, 52920, Note_on_c, 9, 42, 106
1, 52925, Note_on_c, 9, 42, 0
1, 53040, Note_on_c, 9, 42, 106
1, 53045, Note_on_c, 9, 42, 0
1, 53160, Note_on_c, 9, 42, 106
1, 53165, Note_on_c, 9, 42, 0
1, 53279, Note_on_c, 9, 36, 0
1, 53280, Note_on_c, 9, 38, 127
1, 53280, Note_on_c, 9, 42, 106
1, 53285, Note_on_c, 9, 42, 0
1, 53399, Note_on_c, 9, 38, 0
1, 53400, Note_on_c, 9, 42, 106
1, 53405, Note_on_c, 9, 42, 0
1, 53520, Note_on_c, 9, 42, 106
1, 53525, Note_on_c, 9, 42, 0
1, 53640, Note_on_c, 9, 42, 106
1, 53645, Note_on_c, 9, 42, 0
1, 53760, Note_on_c, 9, 42, 106
1, 53760, Note_on_c, 9, 36, 106
1, 53765, Note_on_c, 9, 42, 0
1, 53880, Note_on_c, 9, 42, 106
1, 53885, Note_on_c, 9, 42, 0
1, 54000, Note_on_c, 9, 42, 106
1, 54005, Note_on_c, 9, 42, 0
1, 54120, Note_on_c, 9, 42, 106
1, 54125, Note_on_c, 9, 42, 0
1, 54239, Note_on_c, 9, 36, 0
1, 54240, Note_on_c, 9, 38, 127
1, 54240, Note_on_c, 9, 42, 106
1, 54245, Note_on_c, 9, 42, 0
1, 54359, Note_on_c, 9, 38, 0
1, 54360, Note_on_c, 9, 42, 106
1, 54365, Note_on_c, 9, 42, 0
1, 54480, Note_on_c, 9, 42, 106
1, 54485, Note_on_c, 9, 42, 0
1, 54600, Note_on_c, 9, 42, 106
1, 54605, Note_on_c, 9, 42, 0
1, 54720, Note_on_c, 9, 42, 106
1, 54720, Note_on_c, 9, 36, 106
1, 54725, Note_on_c, 9, 42, 0
1, 54840, Note_on_c, 9, 42, 106
1, 54845, Note_on_c, 9, 42, 0
1, 54960, Note_on_c, 9, 42, 106
1, 54965, Note_on_c, 9, 42, 0
1, 55080, Note_on_c, 9, 42, 106
1, 55085, Note_on_c, 9, 42, 0
1, 55199, Note_on_c, 9, 36, 0
1, 55200, Note_on_c, 9, 38, 127
1, 55200, Note_on_c, 9, 42, 106
1, 55205, Note_on_c, 9, 42, 0
1, 55319, Note_on_c, 9, 38, 0
1, 55320, Note_on_c, 9, 42, 106
1, 55325, Note_on_c, 9, 42, 0
1, 55440, Note_on_c, 9, 42, 106
1, 55445, Note_on_c, 9, 42, 0
1, 55560, Note_on_c, 9, 42, 106
1, 55565, Note_on_c, 9, 42, 0
1, 55680, Note_on_c, 9, 42, 106
1, 55680, Note_on_c, 9, 36, 106
1, 55685, Note_on_c, 9, 42, 0
1, 55800, Note_on_c, 9, 42, 106
1, 55805, Note_on_c, 9, 42, 0
1, 55920, Note_on_c, 9, 42, 106
1, 55925, Note_on_c, 9, 42, 0
1, 56040, Note_on_c, 9, 42, 106
1, 56045, Note_on_c, 9, 42, 0
1, 56159, Note_on_c, 9, 36, 0
1, 56160, Note_on_c, 9, 38, 127
1, 56160, Note_on_c, 9, 42, 106
1, 56165, Note_on_c, 9, 42, 0
1, 56279, Note_on_c, 9, 38, 0
1, 56280, Note_on_c, 9, 42, 106
1, 56285, Note_on_c, 9, 42, 0
1, 56400, Note_on_c, 9, 42, 106
1, 56405, Note_on_c, 9, 42, 0
1, 56520, Note_on_c, 9, 42, 106
1, 56525, Note_on_c, 9, 42, 0
1, 56640, Note_on_c, 9, 42, 106
1, 56640, Note_on_c, 9, 36, 106
1, 56645, Note_on_c, 9, 42, 0
1, 56760, Note_on_c, 9, 42, 106
1, 56765, Note_on_c, 9, 42, 0
1, 56880, Note_on_c, 9, 42, 106
1, 56885, Note_on_c, 9, 42, 0
1, 57000, Note_on_c, 9, 42, 106
1, 57005, Note_on_c, 9, 42, 0
1, 57119, Note_on_c, 9, 36, 0
1, 57120, Note_on_c, 9, 38, 127
1, 57120, Note_on_c, 9, 42, 106
1, 57125, Note_on_c, 9, 42, 0
1, 57239, Note_on_c, 9, 38, 0
1, 57240, Note_on_c, 9, 42, 106
1, 57245, Note_on_c, 9, 42, 0
1, 57360, Note_on_c, 9, 42, 106
1, 57365, Note_on_c, 9, 42, 0
1, 57480, Note_on_c, 9, 42, 106
1, 57485, Note_on_c, 9, 42, 0
1, 57600, Note_on_c, 9, 42, 106
1, 57600, Note_on_c, 9, 36, 106
1, 57605, Note_on_c, 9, 42, 0
1, 57720, Note_on_c, 9, 42, 106
1, 57725, Note_on_c, 9, 42, 0
1, 57840, Note_on_c, 9, 42, 106
1, 57845, Note_on_c, 9, 42, 0
1, 57960, Note_on_c, 9, 42, 106
1, 57965, Note_on_c, 9, 42, 0
1, 58079, Note_on_c, 9, 36, 0
1, 58080, Note_on_c, 9, 38, 127
1, 58080, Note_on_c, 9, 42, 106
1, 58085, Note_on_c, 9, 42, 0
1, 58199, Note_on_c, 9, 38, 0
1, 58200, Note_on_c, 9, 42, 106
1, 58205, Note_on_c, 9, 42, 0
1, 58320, Note_on_c, 9, 42, 106
1, 58325, Note_on_c, 9, 42, 0
1, 58440, Note_on_c, 9, 42, 106
1, 58445, Note_on_c, 9, 42, 0
1, 58560, Note_on_c, 9, 42, 106
1, 58560, Note_on_c, 9, 36, 106
1, 58565, Note_on_c, 9, 42, 0
1, 58680, Note_on_c, 9, 42, 106
1, 58685, Note_on_c, 9, 42, 0
1, 58800, Note_on_c, 9, 42, 106
1, 58805, Note_on_c, 9, 42, 0
1, 58920, Note_on_c, 9, 42, 106
1, 58925, Note_on_c, 9, 42, 0
1, 59039, Note_on_c, 9, 36, 0
1, 59040, Note_on_c, 9, 38, 127
1, 59040, Note_on_c, 9, 42, 106
1, 59045, Note_on_c, 9, 42, 0
1, 59159, Note_on_c, 9, 38, 0
1, 59160, Note_on_c, 9, 42, 106
1, 59165, Note_on_c, 9, 42, 0
1, 59280, Note_on_c, 9, 42, 106
1, 59285, Note_on_c, 9, 42, 0
1, 59400, Note_on_c, 9, 42, 106
1, 59405, Note_on_c, 9, 42, 0
1, 59520, Note_on_c, 9, 42, 106
1, 59520, Note_on_c, 9, 36, 106
1, 59525, Note_on_c, 9, 42, 0
1, 59640, Note_on_c, 9, 42, 106
1, 59645, Note_on_c, 9, 42, 0
1, 59760, Note_on_c, 9, 42, 106
1, 59765, Note_on_c, 9, 42, 0
1, 59880, Note_on_c, 9, 42, 106
1, 59885, Note_on_c, 9, 42, 0
1, 59999, Note_on_c, 9, 36, 0
1, 60000, Note_on_c, 9, 38, 127
1, 60000, Note_on_c, 9, 42, 106
1, 60005, Note_on_c, 9, 42, 0
1, 60119, Note_on_c, 9, 38, 0
1, 60120, Note_on_c, 9, 42, 106
1, 60125, Note_on_c, 9, 42, 0
1, 60240, Note_on_c, 9, 42, 106
1, 60245, Note_on_c, 9, 42, 0
1, 60360, Note_on_c, 9, 42, 106
1, 60365, Note_on_c, 9, 42, 0
1, 60480, Note_on_c, 9, 42, 106
1, 60480, Note_on_c, 9, 36, 106
1, 60485, Note_on_c, 9, 42, 0
1, 60600, Note_on_c, 9, 42, 106
1, 60605, Note_on_c, 9, 42, 0
1, 60720, Note_on_c, 9, 42, 106
1, 60725, Note_on_c, 9, 42, 0
1, 60840, Note_on_c, 9, 42, 106
1, 60845, Note_on_c, 9, 42, 0
1, 60959, Note_on_c, 9, 36, 0
1, 60960, Note_on_c, 9, 38, 127
1, 60960, Note_on_c, 9, 42, 106
1, 60965, Note_on_c, 9, 42, 0
1, 61079, Note_on_c, 9, 38, 0
1, 61080, Note_on_c, 9, 42, 106
1, 61085, Note_on_c, 9, 42, 0
1, 61200, Note_on_c, 9, 42, 106
1, 61205, Note_on_c, 9, 42, 0
1, 61320, Note_on_c, 9, 42, 106
1, 61325, Note_on_c, 9, 42, 0
1, 61440, Note_on_c, 9, 42, 106
1, 61440, Note_on_c, 9, 36, 106
1, 61445, Note_on_c, 9, 42, 0
1, 61560, Note_on_c, 9, 42, 106
1, 61565, Note_on_c, 9, 42, 0
1, 61680, Note_on_c, 9, 42, 106
1, 61685, Note_on_c, 9, 42, 0
1, 61800, Note_on_c, 9, 42, 106
1, 61805, Note_on_c, 9, 42, 0
1, 61919, Note_on_c, 9, 36, 0
1, 61920, Note_on_c, 9, 38, 127
1, 61920, Note_on_c, 9, 42, 106
1, 61925, Note_on_c, 9, 42, 0
1, 62039, Note_on_c, 9, 38, 0
1, 62040, Note_on_c, 9, 42, 106
1, 62045, Note_on_c, 9, 42, 0
1, 62160, Note_on_c, 9, 42, 106
1, 62165, Note_on_c, 9, 42, 0
1, 62280, Note_on_c, 9, 42, 106
1, 62285, Note_on_c, 9, 42, 0
1, 62400, Note_on_c, 9, 42, 106
1, 62400, Note_on_c, 9, 36, 106
1, 62405, Note_on_c, 9, 42, 0
1, 62520, Note_on_c, 9, 42, 106
1, 62525, Note_on_c, 9, 42, 0
1, 62640, Note_on_c, 9, 38, 106
1, 62640, Note_on_c, 9, 42, 106
1, 62645, Note_on_c, 9, 42, 0
1, 62759, Note_on_c, 9, 38, 0
1, 62760, Note_on_c, 9, 38, 106
1, 62760, Note_on_c, 9, 42, 106
1, 62765, Note_on_c, 9, 42, 0
1, 62879, Note_on_c, 9, 36, 0
1, 62879, Note_on_c, 9, 38, 0
1, 62880, Note_on_c, 9, 38, 127
1, 62880, Note_on_c, 9, 42, 106
1, 62891, Note_on_c, 9, 42, 0
1, 63119, Note_on_c, 9, 38, 0
1, 63120, Note_on_c, 9, 38, 106
1, 63239, Note_on_c, 9, 38, 0
1, 63240, Note_on_c, 9, 38, 106
1, 63359, Note_on_c, 9, 38, 0
1, 63360, Note_on_c, 9, 42, 106
1, 63360, Note_on_c, 9, 49, 106
1, 63360, Note_on_c, 9, 36, 106
1, 63365, Note_on_c, 9, 42, 0
1, 63365, Note_on_c, 9, 49, 0
1, 63480, Note_on_c, 9, 42, 106
1, 63485, Note_on_c, 9, 42, 0
1, 63600, Note_on_c, 9, 42, 106
1, 63605, Note_on_c, 9, 42, 0
1, 63720, Note_on_c, 9, 42, 106
1, 63725, Note_on_c, 9, 42, 0
1, 63839, Note_on_c, 9, 36, 0
1, 63840, Note_on_c, 9, 38, 127
1, 63840, Note_on_c, 9, 42, 106
1, 63845, Note_on_c, 9, 42, 0
1, 63959, Note_on_c, 9, 38, 0
1, 63960, Note_on_c, 9, 42, 106
1, 63965, Note_on_c, 9, 42, 0
1, 64080, Note_on_c, 9, 42, 106
1, 64085, Note_on_c, 9, 42, 0
1, 64200, Note_on_c, 9, 42, 106
1, 64205, Note_on_c, 9, 42, 0
1, 64320, Note_on_c, 9, 42, 106
1, 64320, Note_on_c, 9, 36, 106
1, 64325, Note_on_c, 9, 42, 0
1, 64440, Note_on_c, 9, 42, 106
1, 64445, Note_on_c, 9, 42, 0
1, 64559, Note_on_c, 9, 36, 0
1, 64560, Note_on_c, 9, 42, 106
1, 64560, Note_on_c, 9, 36, 106
1, 64565, Note_on_c, 9, 42, 0
1, 64680, Note_on_c, 9, 42, 106
1, 64685, Note_on_c, 9, 42, 0
1, 64799, Note_on_c, 9, 36, 0
1, 64800, Note_on_c, 9, 38, 127
1, 64800, Note_on_c, 9, 42, 106
1, 64805, Note_on_c, 9, 42, 0
1, 64919, Note_on_c, 9, 38, 0
1, 64920, Note_on_c, 9, 42, 106
1, 64925, Note_on_c, 9, 42, 0
1, 65040, Note_on_c, 9, 42, 106
1, 65040, Note_on_c, 9, 36, 106
1, 65045, Note_on_c, 9, 42, 0
1, 65160, Note_on_c, 9, 42, 106
1, 65165, Note_on_c, 9, 42, 0
1, 65279, Note_on_c, 9, 36, 0
1, 65280, Note_on_c, 9, 42, 106
1, 65285, Note_on_c, 9, 42, 0
1, 65400, Note_on_c, 9, 42, 106
1, 65405, Note_on_c, 9, 42, 0
1, 65520, Note_on_c, 9, 42, 106
1, 65520, Note_on_c, 9, 36, 106
1, 65525, Note_on_c, 9, 42, 0
1, 65640, Note_on_c, 9, 42, 106
1, 65645, Note_on_c, 9, 42, 0
1, 65759, Note_on_c, 9, 36, 0
1, 65760, Note_on_c, 9, 38, 127
1, 65760, Note_on_c, 9, 42, 106
1, 65765, Note_on_c, 9, 42, 0
1, 65879, Note_on_c, 9, 38, 0
1, 65880, Note_on_c, 9, 42, 106
1, 65885, Note_on_c, 9, 42, 0
1, 66000, Note_on_c, 9, 42, 106
1, 66005, Note_on_c, 9, 42, 0
1, 66120, Note_on_c, 9, 42, 106
1, 66125, Note_on_c, 9, 42, 0
1, 66240, Note_on_c, 9, 42, 106
1, 66240, Note_on_c, 9, 36, 106
1, 66245, Note_on_c, 9, 42, 0
1, 66360, Note_on_c, 9, 42, 106
1, 66365, Note_on_c, 9, 42, 0
1, 66480, Note_on_c, 9, 42, 106
1, 66485, Note_on_c, 9, 42, 0
1, 66600, Note_on_c, 9, 42, 106
1, 66605, Note_on_c, 9, 42, 0
1, 66719, Note_on_c, 9, 36, 0
1, 66720, Note_on_c, 9, 38, 127
1, 66720, Note_on_c, 9, 42, 106
1, 66725, Note_on_c, 9, 42, 0
1, 66839, Note_on_c, 9, 38, 0
1, 66840, Note_on_c, 9, 42, 106
1, 66845, Note_on_c, 9, 42, 0
1, 66960, Note_on_c, 9, 42, 106
1, 66960, Note_on_c, 9, 36, 106
1, 66965, Note_on_c, 9, 42, 0
1, 67080, Note_on_c, 9, 42, 106
1, 67085, Note_on_c, 9, 42, 0
1, 67199, Note_on_c, 9, 36, 0
1, 67200, Note_on_c, 9, 42, 106
1, 67205, Note_on_c, 9, 42, 0
1, 67320, Note_on_c, 9, 42, 106
1, 67325, Note_on_c, 9, 42, 0
1, 67440, Note_on_c, 9, 42, 106
1, 67440, Note_on_c, 9, 36, 106
1, 67445, Note_on_c, 9, 42, 0
1, 67560, Note_on_c, 9, 42, 106
1, 67565, Note_on_c, 9, 42, 0
1, 67679, Note_on_c, 9, 36, 0
1, 67680, Note_on_c, 9, 38, 127
1, 67680, Note_on_c, 9, 42, 106
1, 67685, Note_on_c, 9, 42, 0
1, 67799, Note_on_c, 9, 38, 0
1, 67800, Note_on_c, 9, 42, 106
1, 67805, Note_on_c, 9, 42, 0
1, 67920, Note_on_c, 9, 42, 106
1, 67925, Note_on_c, 9, 42, 0
1, 68040, Note_on_c, 9, 42, 106
1, 68045, Note_on_c, 9, 42, 0
1, 68160, Note_on_c, 9, 42, 106
1, 68160, Note_on_c, 9, 36, 106
1, 68165, Note_on_c, 9, 42, 0
1, 68280, Note_on_c, 9, 42, 106
1, 68285, Note_on_c, 9, 42, 0
1, 68400, Note_on_c, 9, 42, 106
1, 68405, Note_on_c, 9, 42, 0
1, 68520, Note_on_c, 9, 42, 106
1, 68525, Note_on_c, 9, 42, 0
1, 68639, Note_on_c, 9, 36, 0
1, 68640, Note_on_c, 9, 38, 127
1, 68640, Note_on_c, 9, 42, 106
1, 68645, Note_on_c, 9, 42, 0
1, 68759, Note_on_c, 9, 38, 0
1, 68760, Note_on_c, 9, 42, 106
1, 68765, Note_on_c, 9, 42, 0
1, 68880, Note_on_c, 9, 42, 106
1, 68885, Note_on_c, 9, 42, 0
1, 69000, Note_on_c, 9, 42, 106
1, 69005, Note_on_c, 9, 42, 0
1, 69120, Note_on_c, 9, 42, 106
1, 69120, Note_on_c, 9, 36, 106
1, 69125, Note_on_c, 9, 42, 0
1, 69240, Note_on_c, 9, 42, 106
1, 69245, Note_on_c, 9, 42, 0
1, 69360, Note_on_c, 9, 42, 106
1, 69365, Note_on_c, 9, 42, 0
1, 69480, Note_on_c, 9, 42, 106
1, 69485, Note_on_c, 9, 42, 0
1, 69599, Note_on_c, 9, 36, 0
1, 69600, Note_on_c, 9, 38, 127
1, 69600, Note_on_c, 9, 42, 106
1, 69605, Note_on_c, 9, 42, 0
1, 69719, Note_on_c, 9, 38, 0
1, 69720, Note_on_c, 9, 42, 106
1, 69725, Note_on_c, 9, 42, 0
1, 69840, Note_on_c, 9, 42, 106
1, 69845, Note_on_c, 9, 42, 0
1, 69960, Note_on_c, 9, 42, 106
1, 69965, Note_on_c, 9, 42, 0
1, 70080, Note_on_c, 9, 42, 106
1, 70080, Note_on_c, 9, 36, 106
1, 70085, Note_on_c, 9, 42, 0
1, 70200, Note_on_c, 9, 42, 106
1, 70205, Note_on_c, 9, 42, 0
1, 70320, Note_on_c, 9, 42, 106
1, 70325, Note_on_c, 9, 42, 0
1, 70440, Note_on_c, 9, 42, 106
1, 70445, Note_on_c, 9, 42, 0
1, 70559, Note_on_c, 9, 36, 0
1, 70560, Note_on_c, 9, 38, 127
1, 70919, Note_on_c, 9, 38, 0
1, 70920, Note_on_c, 9, 38, 106
1, 71039, Note_on_c, 9, 38, 0
1, 71040, Note_on_c, 9, 42, 106
1, 71040, Note_on_c, 9, 49, 106
1, 71040, Note_on_c, 9, 36, 106
1, 71045, Note_on_c, 9, 42, 0
1, 71045, Note_on_c, 9, 49, 0
1, 71160, Note_on_c, 9, 42, 106
1, 71165, Note_on_c, 9, 42, 0
1, 71280, Note_on_c, 9, 42, 106
1, 71285, Note_on_c, 9, 42, 0
1, 71400, Note_on_c, 9, 42, 106
1, 71405, Note_on_c, 9, 42, 0
1, 71519, Note_on_c, 9, 36, 0
1, 71520, Note_on_c, 9, 38, 127
1, 71520, Note_on_c, 9, 42, 106
1, 71525, Note_on_c, 9, 42, 0
1, 71639, Note_on_c, 9, 38, 0
1, 71640, Note_on_c, 9, 42, 106
1, 71645, Note_on_c, 9, 42, 0
1, 71760, Note_on_c, 9, 42, 106
1, 71765, Note_on_c, 9, 42, 0
1, 71880, Note_on_c, 9, 42, 106
1, 71885, Note_on_c, 9, 42, 0
1, 72000, Note_on_c, 9, 42, 106
1, 72000, Note_on_c, 9, 36, 106
1, 72005, Note_on_c, 9, 42, 0
1, 72120, Note_on_c, 9, 42, 106
1, 72125, Note_on_c, 9, 42, 0
1, 72239, Note_on_c, 9, 36, 0
1, 72240, Note_on_c, 9, 42, 106
1, 72240, Note_on_c, 9, 36, 106
1, 72245, Note_on_c, 9, 42, 0
1, 72360, Note_on_c, 9, 42, 106
1, 72365, Note_on_c, 9, 42, 0
1, 72479, Note_on_c, 9, 36, 0
1, 72480, Note_on_c, 9, 38, 127
1, 72480, Note_on_c, 9, 42, 106
1, 72485, Note_on_c, 9, 42, 0
1, 72599, Note_on_c, 9, 38, 0
1, 72600, Note_on_c, 9, 42, 106
1, 72605, Note_on_c, 9, 42, 0
1, 72720, Note_on_c, 9, 42, 106
1, 72720, Note_on_c, 9, 36, 106
1, 72725, Note_on_c, 9, 42, 0
1, 72840, Note_on_c, 9, 42, 106
1, 72845, Note_on_c, 9, 42, 0
1, 72959, Note_on_c, 9, 36, 0
1, 72960, Note_on_c, 9, 42, 106
1, 72960, Note_on_c, 9, 36, 106
1, 72965, Note_on_c, 9, 42, 0
1, 73080, Note_on_c, 9, 42, 106
1, 73085, Note_on_c, 9, 42, 0
1, 73200, Note_on_c, 9, 42, 106
1, 73205, Note_on_c, 9, 42, 0
1, 73320, Note_on_c, 9, 42, 106
1, 73325, Note_on_c, 9, 42, 0
1, 73439, Note_on_c, 9, 36, 0
1, 73440, Note_on_c, 9, 38, 127
1, 73440, Note_on_c, 9, 42, 106
1, 73445, Note_on_c, 9, 42, 0
1, 73559, Note_on_c, 9, 38, 0
1, 73560, Note_on_c, 9, 42, 106
1, 73565, Note_on_c, 9, 42, 0
1, 73680, Note_on_c, 9, 42, 106
1, 73685, Note_on_c, 9, 42, 0
1, 73800, Note_on_c, 9, 42, 106
1, 73805, Note_on_c, 9, 42, 0
1, 73920, Note_on_c, 9, 42, 106
1, 73920, Note_on_c, 9, 36, 106
1, 73925, Note_on_c, 9, 42, 0
1, 74040, Note_on_c, 9, 42, 106
1, 74045, Note_on_c, 9, 42, 0
1, 74159, Note_on_c, 9, 36, 0
1, 74160, Note_on_c, 9, 42, 106
1, 74160, Note_on_c, 9, 36, 106
1, 74165, Note_on_c, 9, 42, 0
1, 74280, Note_on_c, 9, 42, 106
1, 74285, Note_on_c, 9, 42, 0
1, 74399, Note_on_c, 9, 36, 0
1, 74400, Note_on_c, 9, 38, 127
1, 74400, Note_on_c, 9, 42, 106
1, 74405, Note_on_c, 9, 42, 0
1, 74519, Note_on_c, 9, 38, 0
1, 74520, Note_on_c, 9, 42, 106
1, 74525, Note_on_c, 9, 42, 0
1, 74640, Note_on_c, 9, 42, 106
1, 74640, Note_on_c, 9, 36, 106
1, 74645, Note_on_c, 9, 42, 0
1, 74760, Note_on_c, 9, 42, 106
1, 74765, Note_on_c, 9, 42, 0
1, 74879, Note_on_c, 9, 36, 0
1, 74880, Note_on_c, 9, 42, 106
1, 74885, Note_on_c, 9, 42, 0
1, 75000, Note_on_c, 9, 42, 106
1, 75005, Note_on_c, 9, 42, 0
1, 75120, Note_on_c, 9, 42, 106
1, 75120, Note_on_c, 9, 36, 106
1, 75125, Note_on_c, 9, 42, 0
1, 75240, Note_on_c, 9, 42, 106
1, 75245, Note_on_c, 9, 42, 0
1, 75359, Note_on_c, 9, 36, 0
1, 75360, Note_on_c, 9, 38, 127
1, 75360, Note_on_c, 9, 42, 106
1, 75365, Note_on_c, 9, 42, 0
1, 75479, Note_on_c, 9, 38, 0
1, 75480, Note_on_c, 9, 42, 106
1, 75485, Note_on_c, 9, 42, 0
1, 75600, Note_on_c, 9, 42, 106
1, 75605, Note_on_c, 9, 42, 0
1, 75720, Note_on_c, 9, 42, 106
1, 75725, Note_on_c, 9, 42, 0
1, 75840, Note_on_c, 9, 42, 106
1, 75840, Note_on_c, 9, 36, 106
1, 75845, Note_on_c, 9, 42, 0
1, 75960, Note_on_c, 9, 42, 106
1, 75965, Note_on_c, 9, 42, 0
1, 76080, Note_on_c, 9, 42, 106
1, 76085, Note_on_c, 9, 42, 0
1, 76200, Note_on_c, 9, 38, 106
1, 76200, Note_on_c, 9, 42, 106
1, 76205, Note_on_c, 9, 42, 0
1, 76319, Note_on_c, 9, 36, 0
1, 76319, Note_on_c, 9, 38, 0
1, 76320, Note_on_c, 9, 38, 127
1, 76320, Note_on_c, 9, 42, 106
1, 76331, Note_on_c, 9, 42, 0
1, 76559, Note_on_c, 9, 38, 0
1, 76560, Note_on_c, 9, 38, 106
1, 76679, Note_on_c, 9, 38, 0
1, 76680, Note_on_c, 9, 38, 106
1, 76799, Note_on_c, 9, 38, 0
1, 76800, Note_on_c, 9, 42, 106
1, 76800, Note_on_c, 9, 49, 106
1, 76800, Note_on_c, 9, 36, 106
1, 76811, Note_on_c, 9, 42, 0
1, 76811, Note_on_c, 9, 49, 0
1, 77039, Note_on_c, 9, 36, 0
1, 77040, Note_on_c, 9, 42, 106
1, 77040, Note_on_c, 9, 49, 106
1, 77040, Note_on_c, 9, 36, 106
1, 77051, Note_on_c, 9, 42, 0
1, 77051, Note_on_c, 9, 49, 0
1, 77279, Note_on_c, 9, 36, 0
1, 77280, Note_on_c, 9, 42, 106
1, 77280, Note_on_c, 9, 49, 106
1, 77280, Note_on_c, 9, 36, 106
1, 77303, Note_on_c, 9, 42, 0
1, 77303, Note_on_c, 9, 49, 0
1, 77759, Note_on_c, 9, 36, 0
1, 80160, Note_on_c, 9, 38, 106
1, 80519, Note_on_c, 9, 38, 0
1, 80520, Note_on_c, 9, 38, 106
1, 80639, Note_on_c, 9, 38, 0
1, 80640, Note_on_c, 9, 42, 106
1, 80640, Note_on_c, 9, 49, 106
1, 80640, Note_on_c, 9, 36, 106
1, 80645, Note_on_c, 9, 42, 0
1, 80645, Note_on_c, 9, 49, 0
1, 80760, Note_on_c, 9, 42, 106
1, 80765, Note_on_c, 9, 42, 0
1, 80880, Note_on_c, 9, 42, 106
1, 80885, Note_on_c, 9, 42, 0
1, 81000, Note_on_c, 9, 42, 106
1, 81005, Note_on_c, 9, 42, 0
1, 81119, Note_on_c, 9, 36, 0
1, 81120, Note_on_c, 9, 38, 127
1, 81120, Note_on_c, 9, 42, 106
1, 81125, Note_on_c, 9, 42, 0
1, 81239, Note_on_c, 9, 38, 0
1, 81240, Note_on_c, 9, 42, 106
1, 81245, Note_on_c, 9, 42, 0
1, 81360, Note_on_c, 9, 42, 106
1, 81365, Note_on_c, 9, 42, 0
1, 81480, Note_on_c, 9, 42, 106
1, 81485, Note_on_c, 9, 42, 0
1, 81600, Note_on_c, 9, 42, 106
1, 81600, Note_on_c, 9, 36, 106
1, 81605, Note_on_c, 9, 42, 0
1, 81720, Note_on_c, 9, 42, 106
1, 81725, Note_on_c, 9, 42, 0
1, 81840, Note_on_c, 9, 42, 106
1, 81845, Note_on_c, 9, 42, 0
1, 81960, Note_on_c, 9, 42, 106
1, 81965, Note_on_c, 9, 42, 0
1, 82079, Note_on_c, 9, 36, 0
1, 82080, Note_on_c, 9, 38, 127
1, 82080, Note_on_c, 9, 42, 106
1, 82085, Note_on_c, 9, 42, 0
1, 82199, Note_on_c, 9, 38, 0
1, 82200, Note_on_c, 9, 42, 106
1, 82205, Note_on_c, 9, 42, 0
1, 82320, Note_on_c, 9, 42, 106
1, 82325, Note_on_c, 9, 42, 0
1, 82440, Note_on_c, 9, 42, 106
1, 82445, Note_on_c, 9, 42, 0
1, 82560, Note_on_c, 9, 42, 106
1, 82560, Note_on_c, 9, 36, 106
1, 82565, Note_on_c, 9, 42, 0
1, 82680, Note_on_c, 9, 42, 106
1, 82685, Note_on_c, 9, 42, 0
1, 82800, Note_on_c, 9, 42, 106
1, 82805, Note_on_c, 9, 42, 0
1, 82920, Note_on_c, 9, 42, 106
1, 82925, Note_on_c, 9, 42, 0
1, 83039, Note_on_c, 9, 36, 0
1, 83040, Note_on_c, 9, 38, 127
1, 83040, Note_on_c, 9, 42, 106
1, 83045, Note_on_c, 9, 42, 0
1, 83159, Note_on_c, 9, 38, 0
1, 83160, Note_on_c, 9, 42, 106
1, 83165, Note_on_c, 9, 42, 0
1, 83280, Note_on_c, 9, 42, 106
1, 83285, Note_on_c, 9, 42, 0
1, 83400, Note_on_c, 9, 42, 106
1, 83405, Note_on_c, 9, 42, 0
1, 83520, Note_on_c, 9, 42, 106
1, 83520, Note_on_c, 9, 36, 106
1, 83525, Note_on_c, 9, 42, 0
1, 83640, Note_on_c, 9, 42, 106
1, 83645, Note_on_c, 9, 42, 0
1, 83760, Note_on_c, 9, 42, 106
1, 83765, Note_on_c, 9, 42, 0
1, 83880, Note_on_c, 9, 42, 106
1, 83885, Note_on_c, 9, 42, 0
1, 83999, Note_on_c, 9, 36, 0
1, 84000, Note_on_c, 9, 38, 127
1, 84000, Note_on_c, 9, 42, 106
1, 84005, Note_on_c, 9, 42, 0
1, 84119, Note_on_c, 9, 38, 0
1, 84120, Note_on_c, 9, 42, 106
1, 84125, Note_on_c, 9, 42, 0
1, 84240, Note_on_c, 9, 42, 106
1, 84245, Note_on_c, 9, 42, 0
1, 84360, Note_on_c, 9, 42, 106
1, 84365, Note_on_c, 9, 42, 0
1, 84480, Note_on_c, 9, 42, 106
1, 84480, Note_on_c, 9, 36, 106
1, 84485, Note_on_c, 9, 42, 0
1, 84600, Note_on_c, 9, 42, 106
1, 84605, Note_on_c, 9, 42, 0
1, 84720, Note_on_c, 9, 42, 106
1, 84725, Note_on_c, 9, 42, 0
1, 84840, Note_on_c, 9, 42, 106
1, 84845, Note_on_c, 9, 42, 0
1, 84959, Note_on_c, 9, 36, 0
1, 84960, Note_on_c, 9, 38, 127
1, 84960, Note_on_c, 9, 42, 106
1, 84965, Note_on_c, 9, 42, 0
1, 85079, Note_on_c, 9, 38, 0
1, 85080, Note_on_c, 9, 42, 106
1, 85085, Note_on_c, 9, 42, 0
1, 85200, Note_on_c, 9, 42, 106
1, 85205, Note_on_c, 9, 42, 0
1, 85320, Note_on_c, 9, 42, 106
1, 85325, Note_on_c, 9, 42, 0
1, 85440, Note_on_c, 9, 42, 106
1, 85440, Note_on_c, 9, 36, 106
1, 85445, Note_on_c, 9, 42, 0
1, 85560, Note_on_c, 9, 42, 106
1, 85565, Note_on_c, 9, 42, 0
1, 85680, Note_on_c, 9, 42, 106
1, 85685, Note_on_c, 9, 42, 0
1, 85800, Note_on_c, 9, 42, 106
1, 85805, Note_on_c, 9, 42, 0
1, 85919, Note_on_c, 9, 36, 0
1, 85920, Note_on_c, 9, 38, 127
1, 85920, Note_on_c, 9, 42, 106
1, 85925, Note_on_c, 9, 42, 0
1, 86039, Note_on_c, 9, 38, 0
1, 86040, Note_on_c, 9, 42, 106
1, 86045, Note_on_c, 9, 42, 0
1, 86160, Note_on_c, 9, 42, 106
1, 86165, Note_on_c, 9, 42, 0
1, 86280, Note_on_c, 9, 42, 106
1, 86285, Note_on_c, 9, 42, 0
1, 86400, Note_on_c, 9, 42, 106
1, 86400, Note_on_c, 9, 36, 106
1, 86405, Note_on_c, 9, 42, 0
1, 86520, Note_on_c, 9, 42, 106
1, 86525, Note_on_c, 9, 42, 0
1, 86640, Note_on_c, 9, 42, 106
1, 86645, Note_on_c, 9, 42, 0
1, 86760, Note_on_c, 9, 42, 106
1, 86765, Note_on_c, 9, 42, 0
1, 86879, Note_on_c, 9, 36, 0
1, 86880, Note_on_c, 9, 38, 127
1, 86880, Note_on_c, 9, 42, 106
1, 86885, Note_on_c, 9, 42, 0
1, 86999, Note_on_c, 9, 38, 0
1, 87000, Note_on_c, 9, 42, 106
1, 87005, Note_on_c, 9, 42, 0
1, 87120, Note_on_c, 9, 42, 106
1, 87125, Note_on_c, 9, 42, 0
1, 87240, Note_on_c, 9, 42, 106
1, 87245, Note_on_c, 9, 42, 0
1, 87360, Note_on_c, 9, 42, 106
1, 87360, Note_on_c, 9, 36, 106
1, 87365, Note_on_c, 9, 42, 0
1, 87480, Note_on_c, 9, 42, 106
1, 87485, Note_on_c, 9, 42, 0
1, 87600, Note_on_c, 9, 42, 106
1, 87605, Note_on_c, 9, 42, 0
1, 87720, Note_on_c, 9, 42, 106
1, 87725, Note_on_c, 9, 42, 0
1, 87839, Note_on_c, 9, 36, 0
1, 87840, Note_on_c, 9, 38, 127
1, 87840, Note_on_c, 9, 42, 106
1, 87845, Note_on_c, 9, 42, 0
1, 87959, Note_on_c, 9, 38, 0
1, 87960, Note_on_c, 9, 42, 106
1, 87965, Note_on_c, 9, 42, 0
1, 88080, Note_on_c, 9, 42, 106
1, 88085, Note_on_c, 9, 42, 0
1, 88200, Note_on_c, 9, 42, 106
1, 88205, Note_on_c, 9, 42, 0
1, 88320, Note_on_c, 9, 42, 106
1, 88320, Note_on_c, 9, 36, 106
1, 88325, Note_on_c, 9, 42, 0
1, 88440, Note_on_c, 9, 42, 106
1, 88445, Note_on_c, 9, 42, 0
1, 88560, Note_on_c, 9, 42, 106
1, 88565, Note_on_c, 9, 42, 0
1, 88680, Note_on_c, 9, 42, 106
1, 88685, Note_on_c, 9, 42, 0
1, 88799, Note_on_c, 9, 36, 0
1, 88800, Note_on_c, 9, 38, 127
1, 88800, Note_on_c, 9, 42, 106
1, 88805, Note_on_c, 9, 42, 0
1, 88919, Note_on_c, 9, 38, 0
1, 88920, Note_on_c, 9, 42, 106
1, 88925, Note_on_c, 9, 42, 0
1, 89040, Note_on_c, 9, 42, 106
1, 89045, Note_on_c, 9, 42, 0
1, 89160, Note_on_c, 9, 42, 106
1, 89165, Note_on_c, 9, 42, 0
1, 89280, Note_on_c, 9, 42, 106
1, 89280, Note_on_c, 9, 36, 106
1, 89285, Note_on_c, 9, 42, 0
1, 89400, Note_on_c, 9, 42, 106
1, 89405, Note_on_c, 9, 42, 0
1, 89520, Note_on_c, 9, 42, 106
1, 89525, Note_on_c, 9, 42, 0
1, 89640, Note_on_c, 9, 42, 106
1, 89645, Note_on_c, 9, 42, 0
1, 89759, Note_on_c, 9, 36, 0
1, 89760, Note_on_c, 9, 38, 127
1, 89760, Note_on_c, 9, 42, 106
1, 89765, Note_on_c, 9, 42, 0
1, 89879, Note_on_c, 9, 38, 0
1, 89880, Note_on_c, 9, 42, 106
1, 89885, Note_on_c, 9, 42, 0
1, 90000, Note_on_c, 9, 42, 106
1, 90005, Note_on_c, 9, 42, 0
1, 90120, Note_on_c, 9, 42, 106
1, 90125, Note_on_c, 9, 42, 0
1, 90240, Note_on_c, 9, 42, 106
1, 90240, Note_on_c, 9, 36, 106
1, 90245, Note_on_c, 9, 42, 0
1, 90360, Note_on_c, 9, 42, 106
1, 90365, Note_on_c, 9, 42, 0
1, 90480, Note_on_c, 9, 42, 106
1, 90485, Note_on_c, 9, 42, 0
1, 90600, Note_on_c, 9, 42, 106
1, 90605, Note_on_c, 9, 42, 0
1, 90719, Note_on_c, 9, 36, 0
1, 90720, Note_on_c, 9, 38, 127
1, 90720, Note_on_c, 9, 42, 106
1, 90725, Note_on_c, 9, 42, 0
1, 90839, Note_on_c, 9, 38, 0
1, 90840, Note_on_c, 9, 42, 106
1, 90845, Note_on_c, 9, 42, 0
1, 90960, Note_on_c, 9, 42, 106
1, 90965, Note_on_c, 9, 42, 0
1, 91080, Note_on_c, 9, 42, 106
1, 91085, Note_on_c, 9, 42, 0
1, 91200, Note_on_c, 9, 42, 106
1, 91200, Note_on_c, 9, 36, 106
1, 91205, Note_on_c, 9, 42, 0
1, 91320, Note_on_c, 9, 42, 106
1, 91325, Note_on_c, 9, 42, 0
1, 91440, Note_on_c, 9, 42, 106
1, 91445, Note_on_c, 9, 42, 0
1, 91560, Note_on_c, 9, 42, 106
1, 91565, Note_on_c, 9, 42, 0
1, 91679, Note_on_c, 9, 36, 0
1, 91680, Note_on_c, 9, 38, 127
1, 91680, Note_on_c, 9, 42, 106
1, 91685, Note_on_c, 9, 42, 0
1, 91799, Note_on_c, 9, 38, 0
1, 91800, Note_on_c, 9, 42, 106
1, 91805, Note_on_c, 9, 42, 0
1, 91920, Note_on_c, 9, 42, 106
1, 91925, Note_on_c, 9, 42, 0
1, 92040, Note_on_c, 9, 42, 106
1, 92045, Note_on_c, 9, 42, 0
1, 92160, Note_on_c, 9, 42, 106
1, 92160, Note_on_c, 9, 49, 106
1, 92160, Note_on_c, 9, 36, 106
1, 92165, Note_on_c, 9, 42, 0
1, 92165, Note_on_c, 9, 49, 0
1, 92280, Note_on_c, 9, 42, 106
1, 92285, Note_on_c, 9, 42, 0
1, 92400, Note_on_c, 9, 42, 106
1, 92405, Note_on_c, 9, 42, 0
1, 92520, Note_on_c, 9, 42, 106
1, 92525, Note_on_c, 9, 42, 0
1, 92639, Note_on_c, 9, 36, 0
1, 92640, Note_on_c, 9, 38, 127
1, 92640, Note_on_c, 9, 42, 106
1, 92645, Note_on_c, 9, 42, 0
1, 92759, Note_on_c, 9, 38, 0
1, 92760, Note_on_c, 9, 42, 106
1, 92765, Note_on_c, 9, 42, 0
1, 92880, Note_on_c, 9, 42, 106
1, 92885, Note_on_c, 9, 42, 0
1, 93000, Note_on_c, 9, 42, 106
1, 93005, Note_on_c, 9, 42, 0
1, 93120, Note_on_c, 9, 42, 106
1, 93120, Note_on_c, 9, 36, 106
1, 93125, Note_on_c, 9, 42, 0
1, 93240, Note_on_c, 9, 42, 106
1, 93245, Note_on_c, 9, 42, 0
1, 93360, Note_on_c, 9, 42, 106
1, 93365, Note_on_c, 9, 42, 0
1, 93480, Note_on_c, 9, 42, 106
1, 93485, Note_on_c, 9, 42, 0
1, 93599, Note_on_c, 9, 36, 0
1, 93600, Note_on_c, 9, 38, 127
1, 93600, Note_on_c, 9, 42, 106
1, 93605, Note_on_c, 9, 42, 0
1, 93719, Note_on_c, 9, 38, 0
1, 93720, Note_on_c, 9, 42, 106
1, 93725, Note_on_c, 9, 42, 0
1, 93840, Note_on_c, 9, 42, 106
1, 93845, Note_on_c, 9, 42, 0
1, 93960, Note_on_c, 9, 42, 106
1, 93965, Note_on_c, 9, 42, 0
1, 94080, Note_on_c, 9, 42, 106
1, 94080, Note_on_c, 9, 49, 106
1, 94080, Note_on_c, 9, 36, 106
1, 94085, Note_on_c, 9, 42, 0
1, 94085, Note_on_c, 9, 49, 0
1, 94200, Note_on_c, 9, 42, 106
1, 94205, Note_on_c, 9, 42, 0
1, 94320, Note_on_c, 9, 42, 106
1, 94325, Note_on_c, 9, 42, 0
1, 94440, Note_on_c, 9, 42, 106
1, 94445, Note_on_c, 9, 42, 0
1, 94559, Note_on_c, 9, 36, 0
1, 94560, Note_on_c, 9, 38, 127
1, 94560, Note_on_c, 9, 42, 106
1, 94565, Note_on_c, 9, 42, 0
1, 94679, Note_on_c, 9, 38, 0
1, 94680, Note_on_c, 9, 42, 106
1, 94685, Note_on_c, 9, 42, 0
1, 94800, Note_on_c, 9, 42, 106
1, 94805, Note_on_c, 9, 42, 0
1, 94920, Note_on_c, 9, 42, 106
1, 94925, Note_on_c, 9, 42, 0
1, 95040, Note_on_c, 9, 42, 106
1, 95040, Note_on_c, 9, 36, 106
1, 95045, Note_on_c, 9, 42, 0
1, 95160, Note_on_c, 9, 42, 106
1, 95165, Note_on_c, 9, 42, 0
1, 95280, Note_on_c, 9, 42, 106
1, 95285, Note_on_c, 9, 42, 0
1, 95400, Note_on_c, 9, 42, 106
1, 95405, Note_on_c, 9, 42, 0
1, 95519, Note_on_c, 9, 36, 0
1, 95520, Note_on_c, 9, 38, 127
1, 95520, Note_on_c, 9, 42, 106
1, 95525, Note_on_c, 9, 42, 0
1, 95639, Note_on_c, 9, 38, 0
1, 95640, Note_on_c, 9, 42, 106
1, 95645, Note_on_c, 9, 42, 0
1, 95760, Note_on_c, 9, 42, 106
1, 95765, Note_on_c, 9, 42, 0
1, 95880, Note_on_c, 9, 38, 106
1, 95880, Note_on_c, 9, 42, 106
1, 95885, Note_on_c, 9, 42, 0
1, 95999, Note_on_c, 9, 38, 0
1, 96000, Note_on_c, 9, 42, 106
1, 96000, Note_on_c, 9, 49, 106
1, 96000, Note_on_c, 9, 36, 106
1, 96005, Note_on_c, 9, 42, 0
1, 96005, Note_on_c, 9, 49, 0
1, 96120, Note_on_c, 9, 42, 106
1, 96125, Note_on_c, 9, 42, 0
1, 96240, Note_on_c, 9, 42, 106
1, 96245, Note_on_c, 9, 42, 0
1, 96360, Note_on_c, 9, 42, 106
1, 96365, Note_on_c, 9, 42, 0
1, 96479, Note_on_c, 9, 36, 0
1, 96480, Note_on_c, 9, 38, 127
1, 96480, Note_on_c, 9, 42, 106
1, 96485, Note_on_c, 9, 42, 0
1, 96599, Note_on_c, 9, 38, 0
1, 96600, Note_on_c, 9, 42, 106
1, 96605, Note_on_c, 9, 42, 0
1, 96720, Note_on_c, 9, 42, 106
1, 96725, Note_on_c, 9, 42, 0
1, 96840, Note_on_c, 9, 42, 106
1, 96845, Note_on_c, 9, 42, 0
1, 96960, Note_on_c, 9, 42, 106
1, 96960, Note_on_c, 9, 36, 106
1, 96965, Note_on_c, 9, 42, 0
1, 97080, Note_on_c, 9, 42, 106
1, 97085, Note_on_c, 9, 42, 0
1, 97200, Note_on_c, 9, 42, 106
1, 97205, Note_on_c, 9, 42, 0
1, 97320, Note_on_c, 9, 42, 106
1, 97325, Note_on_c, 9, 42, 0
1, 97439, Note_on_c, 9, 36, 0
1, 97440, Note_on_c, 9, 38, 127
1, 97440, Note_on_c, 9, 42, 106
1, 97445, Note_on_c, 9, 42, 0
1, 97559, Note_on_c, 9, 38, 0
1, 97560, Note_on_c, 9, 42, 106
1, 97565, Note_on_c, 9, 42, 0
1, 97680, Note_on_c, 9, 42, 106
1, 97685, Note_on_c, 9, 42, 0
1, 97800, Note_on_c, 9, 42, 106
1, 97805, Note_on_c, 9, 42, 0
1, 97920, Note_on_c, 9, 42, 106
1, 97920, Note_on_c, 9, 36, 106
1, 97925, Note_on_c, 9, 42, 0
1, 98040, Note_on_c, 9, 42, 106
1, 98045, Note_on_c, 9, 42, 0
1, 98160, Note_on_c, 9, 42, 106
1, 98165, Note_on_c, 9, 42, 0
1, 98280, Note_on_c, 9, 42, 106
1, 98285, Note_on_c, 9, 42, 0
1, 98399, Note_on_c, 9, 36, 0
1, 98400, Note_on_c, 9, 38, 127
1, 98400, Note_on_c, 9, 42, 106
1, 98405, Note_on_c, 9, 42, 0
1, 98519, Note_on_c, 9, 38, 0
1, 98520, Note_on_c, 9, 42, 106
1, 98525, Note_on_c, 9, 42, 0
1, 98640, Note_on_c, 9, 42, 106
1, 98645, Note_on_c, 9, 42, 0
1, 98760, Note_on_c, 9, 42, 106
1, 98765, Note_on_c, 9, 42, 0
1, 98880, Note_on_c, 9, 42, 106
1, 98880, Note_on_c, 9, 36, 106
1, 98885, Note_on_c, 9, 42, 0
1, 99000, Note_on_c, 9, 42, 106
1, 99005, Note_on_c, 9, 42, 0
1, 99120, Note_on_c, 9, 42, 106
1, 99125, Note_on_c, 9, 42, 0
1, 99240, Note_on_c, 9, 42, 106
1, 99245, Note_on_c, 9, 42, 0
1, 99359, Note_on_c, 9, 36, 0
1, 99360, Note_on_c, 9, 38, 127
1, 99360, Note_on_c, 9, 42, 106
1, 99365, Note_on_c, 9, 42, 0
1, 99479, Note_on_c, 9, 38, 0
1, 99480, Note_on_c, 9, 42, 106
1, 99485, Note_on_c, 9, 42, 0
1, 99600, Note_on_c, 9, 42, 106
1, 99605, Note_on_c, 9, 42, 0
1, 99720, Note_on_c, 9, 42, 106
1, 99725, Note_on_c, 9, 42, 0
1, 99840, Note_on_c, 9, 42, 106
1, 99840, Note_on_c, 9, 36, 106
1, 99845, Note_on_c, 9, 42, 0
1, 99960, Note_on_c, 9, 42, 106
1, 99965, Note_on_c, 9, 42, 0
1, 100080, Note_on_c, 9, 42, 106
1, 100085, Note_on_c, 9, 42, 0
1, 100200, Note_on_c, 9, 42, 106
1, 100205, Note_on_c, 9, 42, 0
1, 100319, Note_on_c, 9, 36, 0
1, 100320, Note_on_c, 9, 38, 127
1, 100320, Note_on_c, 9, 42, 106
1, 100325, Note_on_c, 9, 42, 0
1, 100439, Note_on_c, 9, 38, 0
1, 100440, Note_on_c, 9, 42, 106
1, 100445, Note_on_c, 9, 42, 0
1, 100560, Note_on_c, 9, 42, 106
1, 100565, Note_on_c, 9, 42, 0
1, 100680, Note_on_c, 9, 42, 106
1, 100685, Note_on_c, 9, 42, 0
1, 100800, Note_on_c, 9, 42, 106
1, 100800, Note_on_c, 9, 36, 106
1, 100805, Note_on_c, 9, 42, 0
1, 100920, Note_on_c, 9, 42, 106
1, 100925, Note_on_c, 9, 42, 0
1, 101040, Note_on_c, 9, 42, 106
1, 101045, Note_on_c, 9, 42, 0
1, 101160, Note_on_c, 9, 42, 106
1, 101165, Note_on_c, 9, 42, 0
1, 101279, Note_on_c, 9, 36, 0
1, 101280, Note_on_c, 9, 38, 127
1, 101280, Note_on_c, 9, 42, 106
1, 101285, Note_on_c, 9, 42, 0
1, 101399, Note_on_c, 9, 38, 0
1, 101400, Note_on_c, 9, 42, 106
1, 101405, Note_on_c, 9, 42, 0
1, 101520, Note_on_c, 9, 42, 106
1, 101525, Note_on_c, 9, 42, 0
1, 101640, Note_on_c, 9, 42, 106
1, 101645, Note_on_c, 9, 42, 0
1, 101760, Note_on_c, 9, 42, 106
1, 101760, Note_on_c, 9, 36, 106
1, 101765, Note_on_c, 9, 42, 0
1, 101880, Note_on_c, 9, 42, 106
1, 101885, Note_on_c, 9, 42, 0
1, 102000, Note_on_c, 9, 42, 106
1, 102005, Note_on_c, 9, 42, 0
1, 102120, Note_on_c, 9, 42, 106
1, 102125, Note_on_c, 9, 42, 0
1, 102239, Note_on_c, 9, 36, 0
1, 102240, Note_on_c, 9, 38, 127
1, 102240, Note_on_c, 9, 42, 106
1, 102245, Note_on_c, 9, 42, 0
1, 102359, Note_on_c, 9, 38, 0
1, 102360, Note_on_c, 9, 42, 106
1, 102365, Note_on_c, 9, 42, 0
1, 102480, Note_on_c, 9, 42, 106
1, 102485, Note_on_c, 9, 42, 0
1, 102600, Note_on_c, 9, 42, 106
1, 102605, Note_on_c, 9, 42, 0
1, 102720, Note_on_c, 9, 42, 106
1, 102720, Note_on_c, 9, 36, 106
1, 102725, Note_on_c, 9, 42, 0
1, 102840, Note_on_c, 9, 42, 106
1, 102845, Note_on_c, 9, 42, 0
1, 102960, Note_on_c, 9, 42, 106
1, 102965, Note_on_c, 9, 42, 0
1, 103080, Note_on_c, 9, 42, 106
1, 103085, Note_on_c, 9, 42, 0
1, 103199, Note_on_c, 9, 36, 0
1, 103200, Note_on_c, 9, 38, 127
1, 103200, Note_on_c, 9, 42, 106
1, 103205, Note_on_c, 9, 42, 0
1, 103319, Note_on_c, 9, 38, 0
1, 103320, Note_on_c, 9, 42, 106
1, 103325, Note_on_c, 9, 42, 0
1, 103440, Note_on_c, 9, 42, 106
1, 103445, Note_on_c, 9, 42, 0
1, 103560, Note_on_c, 9, 42, 106
1, 103565, Note_on_c, 9, 42, 0
1, 103680, Note_on_c, 9, 42, 106
1, 103680, Note_on_c, 9, 36, 106
1, 103685, Note_on_c, 9, 42, 0
1, 103800, Note_on_c, 9, 42, 106
1, 103805, Note_on_c, 9, 42, 0
1, 103920, Note_on_c, 9, 42, 106
1, 103925, Note_on_c, 9, 42, 0
1, 104040, Note_on_c, 9, 42, 106
1, 104045, Note_on_c, 9, 42, 0
1, 104159, Note_on_c, 9, 36, 0
1, 104160, Note_on_c, 9, 38, 127
1, 104160, Note_on_c, 9, 42, 106
1, 104165, Note_on_c, 9, 42, 0
1, 104279, Note_on_c, 9, 38, 0
1, 104280, Note_on_c, 9, 42, 106
1, 104285, Note_on_c, 9, 42, 0
1, 104400, Note_on_c, 9, 42, 106
1, 104405, Note_on_c, 9, 42, 0
1, 104520, Note_on_c, 9, 42, 106
1, 104525, Note_on_c, 9, 42, 0
1, 104640, Note_on_c, 9, 42, 106
1, 104640, Note_on_c, 9, 36, 106
1, 104645, Note_on_c, 9, 42, 0
1, 104760, Note_on_c, 9, 42, 106
1, 104765, Note_on_c, 9, 42, 0
1, 104880, Note_on_c, 9, 42, 106
1, 104885, Note_on_c, 9, 42, 0
1, 105000, Note_on_c, 9, 42, 106
1, 105005, Note_on_c, 9, 42, 0
1, 105119, Note_on_c, 9, 36, 0
1, 105120, Note_on_c, 9, 38, 127
1, 105120, Note_on_c, 9, 42, 106
1, 105125, Note_on_c, 9, 42, 0
1, 105239, Note_on_c, 9, 38, 0
1, 105240, Note_on_c, 9, 42, 106
1, 105245, Note_on_c, 9, 42, 0
1, 105360, Note_on_c, 9, 42, 106
1, 105365, Note_on_c, 9, 42, 0
1, 105480, Note_on_c, 9, 42, 106
1, 105485, Note_on_c, 9, 42, 0
1, 105600, Note_on_c, 9, 42, 106
1, 105600, Note_on_c, 9, 36, 106
1, 105605, Note_on_c, 9, 42, 0
1, 105720, Note_on_c, 9, 42, 106
1, 105725, Note_on_c, 9, 42, 0
1, 105840, Note_on_c, 9, 42, 106
1, 105845, Note_on_c, 9, 42, 0
1, 105960, Note_on_c, 9, 42, 106
1, 105965, Note_on_c, 9, 42, 0
1, 106079, Note_on_c, 9, 36, 0
1, 106080, Note_on_c, 9, 38, 127
1, 106080, Note_on_c, 9, 42, 106
1, 106085, Note_on_c, 9, 42, 0
1, 106199, Note_on_c, 9, 38, 0
1, 106200, Note_on_c, 9, 42, 106
1, 106205, Note_on_c, 9, 42, 0
1, 106320, Note_on_c, 9, 42, 106
1, 106325, Note_on_c, 9, 42, 0
1, 106440, Note_on_c, 9, 42, 106
1, 106445, Note_on_c, 9, 42, 0
1, 106560, Note_on_c, 9, 42, 106
1, 106560, Note_on_c, 9, 36, 106
1, 106565, Note_on_c, 9, 42, 0
1, 106680, Note_on_c, 9, 42, 106
1, 106685, Note_on_c, 9, 42, 0
1, 106800, Note_on_c, 9, 42, 106
1, 106805, Note_on_c, 9, 42, 0
1, 106920, Note_on_c, 9, 42, 106
1, 106925, Note_on_c, 9, 42, 0
1, 107039, Note_on_c, 9, 36, 0
1, 107040, Note_on_c, 9, 38, 127
1, 107040, Note_on_c, 9, 42, 106
1, 107045, Note_on_c, 9, 42, 0
1, 107159, Note_on_c, 9, 38, 0
1, 107160, Note_on_c, 9, 42, 106
1, 107165, Note_on_c, 9, 42, 0
1, 107280, Note_on_c, 9, 42, 106
1, 107285, Note_on_c, 9, 42, 0
1, 107400, Note_on_c, 9, 38, 106
1, 107400, Note_on_c, 9, 42, 106
1, 107405, Note_on_c, 9, 42, 0
1, 107519, Note_on_c, 9, 38, 0
1, 107520, Note_on_c, 9, 42, 106
1, 107520, Note_on_c, 9, 49, 106
1, 107520, Note_on_c, 9, 36, 106
1, 107525, Note_on_c, 9, 42, 0
1, 107525, Note_on_c, 9, 49, 0
1, 107640, Note_on_c, 9, 42, 106
1, 107645, Note_on_c, 9, 42, 0
1, 107760, Note_on_c, 9, 42, 106
1, 107765, Note_on_c, 9, 42, 0
1, 107880, Note_on_c, 9, 42, 106
1, 107885, Note_on_c, 9, 42, 0
1, 107999, Note_on_c, 9, 36, 0
1, 108000, Note_on_c, 9, 38, 127
1, 108000, Note_on_c, 9, 42, 106
1, 108005, Note_on_c, 9, 42, 0
1, 108119, Note_on_c, 9, 38, 0
1, 108120, Note_on_c, 9, 42, 106
1, 108125, Note_on_c, 9, 42, 0
1, 108240, Note_on_c, 9, 42, 106
1, 108245, Note_on_c, 9, 42, 0
1, 108360, Note_on_c, 9, 42, 106
1, 108365, Note_on_c, 9, 42, 0
1, 108480, Note_on_c, 9, 42, 106
1, 108480, Note_on_c, 9, 36, 106
1, 108485, Note_on_c, 9, 42, 0
1, 108600, Note_on_c, 9, 42, 106
1, 108605, Note_on_c, 9, 42, 0
1, 108720, Note_on_c, 9, 42, 106
1, 108725, Note_on_c, 9, 42, 0
1, 108840, Note_on_c, 9, 42, 106
1, 108845, Note_on_c, 9, 42, 0
1, 108959, Note_on_c, 9, 36, 0
1, 108960, Note_on_c, 9, 38, 127
1, 108960, Note_on_c, 9, 42, 106
1, 108965, Note_on_c, 9, 42, 0
1, 109079, Note_on_c, 9, 38, 0
1, 109080, Note_on_c, 9, 42, 106
1, 109085, Note_on_c, 9, 42, 0
1, 109200, Note_on_c, 9, 42, 106
1, 109205, Note_on_c, 9, 42, 0
1, 109320, Note_on_c, 9, 42, 106
1, 109325, Note_on_c, 9, 42, 0
1, 109440, Note_on_c, 9, 42, 106
1, 109440, Note_on_c, 9, 49, 106
1, 109440, Note_on_c, 9, 36, 106
1, 109445, Note_on_c, 9, 42, 0
1, 109445, Note_on_c, 9, 49, 0
1, 109560, Note_on_c, 9, 42, 106
1, 109565, Note_on_c, 9, 42, 0
1, 109680, Note_on_c, 9, 42, 106
1, 109685, Note_on_c, 9, 42, 0
1, 109800, Note_on_c, 9, 42, 106
1, 109805, Note_on_c, 9, 42, 0
1, 109919, Note_on_c, 9, 36, 0
1, 109920, Note_on_c, 9, 38, 127
1, 109920, Note_on_c, 9, 42, 106
1, 109925, Note_on_c, 9, 42, 0
1, 110039, Note_on_c, 9, 38, 0
1, 110040, Note_on_c, 9, 42, 106
1, 110045, Note_on_c, 9, 42, 0
1, 110160, Note_on_c, 9, 42, 106
1, 110165, Note_on_c, 9, 42, 0
1, 110280, Note_on_c, 9, 42, 106
1, 110285, Note_on_c, 9, 42, 0
1, 110400, Note_on_c, 9, 42, 106
1, 110400, Note_on_c, 9, 36, 106
1, 110405, Note_on_c, 9, 42, 0
1, 110520, Note_on_c, 9, 42, 106
1, 110525, Note_on_c, 9, 42, 0
1, 110640, Note_on_c, 9, 42, 106
1, 110645, Note_on_c, 9, 42, 0
1, 110760, Note_on_c, 9, 42, 106
1, 110765, Note_on_c, 9, 42, 0
1, 110879, Note_on_c, 9, 36, 0
1, 110880, Note_on_c, 9, 38, 127
1, 110880, Note_on_c, 9, 42, 106
1, 110885, Note_on_c, 9, 42, 0
1, 110999, Note_on_c, 9, 38, 0
1, 111000, Note_on_c, 9, 42, 106
1, 111005, Note_on_c, 9, 42, 0
1, 111120, Note_on_c, 9, 42, 106
1, 111125, Note_on_c, 9, 42, 0
1, 111240, Note_on_c, 9, 38, 106
1, 111240, Note_on_c, 9, 42, 106
1, 111245, Note_on_c, 9, 42, 0
1, 111359, Note_on_c, 9, 38, 0
1, 111360, Note_on_c, 9, 42, 106
1, 111360, Note_on_c, 9, 49, 106
1, 111360, Note_on_c, 9, 36, 106
1, 111365, Note_on_c, 9, 42, 0
1, 111365, Note_on_c, 9, 49, 0
1, 111480, Note_on_c, 9, 42, 106
1, 111485, Note_on_c, 9, 42, 0
1, 111600, Note_on_c, 9, 42, 106
1, 111605, Note_on_c, 9, 42, 0
1, 111720, Note_on_c, 9, 42, 106
1, 111725, Note_on_c, 9, 42, 0
1, 111839, Note_on_c, 9, 36, 0
1, 111840, Note_on_c, 9, 38, 127
1, 111840, Note_on_c, 9, 42, 106
1, 111845, Note_on_c, 9, 42, 0
1, 111959, Note_on_c, 9, 38, 0
1, 111960, Note_on_c, 9, 42, 106
1, 111965, Note_on_c, 9, 42, 0
1, 112080, Note_on_c, 9, 42, 106
1, 112085, Note_on_c, 9, 42, 0
1, 112200, Note_on_c, 9, 42, 106
1, 112205, Note_on_c, 9, 42, 0
1, 112320, Note_on_c, 9, 42, 106
1, 112320, Note_on_c, 9, 36, 106
1, 112325, Note_on_c, 9, 42, 0
1, 112440, Note_on_c, 9, 42, 106
1, 112445, Note_on_c, 9, 42, 0
1, 112560, Note_on_c, 9, 42, 106
1, 112565, Note_on_c, 9, 42, 0
1, 112680, Note_on_c, 9, 42, 106
1, 112685, Note_on_c, 9, 42, 0
1, 112799, Note_on_c, 9, 36, 0
1, 112800, Note_on_c, 9, 38, 127
1, 112800, Note_on_c, 9, 42, 106
1, 112805, Note_on_c, 9, 42, 0
1, 112919, Note_on_c, 9, 38, 0
1, 112920, Note_on_c, 9, 42, 106
1, 112925, Note_on_c, 9, 42, 0
1, 113040, Note_on_c, 9, 42, 106
1, 113045, Note_on_c, 9, 42, 0
1, 113160, Note_on_c, 9, 42, 106
1, 113165, Note_on_c, 9, 42, 0
1, 113280, Note_on_c, 9, 42, 106
1, 113280, Note_on_c, 9, 36, 106
1, 113285, Note_on_c, 9, 42, 0
1, 113400, Note_on_c, 9, 42, 106
1, 113405, Note_on_c, 9, 42, 0
1, 113520, Note_on_c, 9, 42, 106
1, 113525, Note_on_c, 9, 42, 0
1, 113640, Note_on_c, 9, 42, 106
1, 113645, Note_on_c, 9, 42, 0
1, 113759, Note_on_c, 9, 36, 0
1, 113760, Note_on_c, 9, 38, 127
1, 113760, Note_on_c, 9, 42, 106
1, 113765, Note_on_c, 9, 42, 0
1, 113879, Note_on_c, 9, 38, 0
1, 113880, Note_on_c, 9, 42, 106
1, 113885, Note_on_c, 9, 42, 0
1, 114000, Note_on_c, 9, 42, 106
1, 114005, Note_on_c, 9, 42, 0
1, 114120, Note_on_c, 9, 42, 106
1, 114125, Note_on_c, 9, 42, 0
1, 114240, Note_on_c, 9, 42, 106
1, 114240, Note_on_c, 9, 36, 106
1, 114245, Note_on_c, 9, 42, 0
1, 114360, Note_on_c, 9, 42, 106
1, 114365, Note_on_c, 9, 42, 0
1, 114480, Note_on_c, 9, 42, 106
1, 114485, Note_on_c, 9, 42, 0
1, 114600, Note_on_c, 9, 42, 106
1, 114605, Note_on_c, 9, 42, 0
1, 114719, Note_on_c, 9, 36, 0
1, 114720, Note_on_c, 9, 38, 127
1, 114720, Note_on_c, 9, 42, 106
1, 114725, Note_on_c, 9, 42, 0
1, 114839, Note_on_c, 9, 38, 0
1, 114840, Note_on_c, 9, 42, 106
1, 114845, Note_on_c, 9, 42, 0
1, 114960, Note_on_c, 9, 42, 106
1, 114965, Note_on_c, 9, 42, 0
1, 115080, Note_on_c, 9, 42, 106
1, 115085, Note_on_c, 9, 42, 0
1, 115200, Note_on_c, 9, 42, 106
1, 115200, Note_on_c, 9, 36, 106
1, 115205, Note_on_c, 9, 42, 0
1, 115320, Note_on_c, 9, 42, 106
1, 115325, Note_on_c, 9, 42, 0
1, 115440, Note_on_c, 9, 42, 106
1, 115445, Note_on_c, 9, 42, 0
1, 115560, Note_on_c, 9, 42, 106
1, 115565, Note_on_c, 9, 42, 0
1, 115679, Note_on_c, 9, 36, 0
1, 115680, Note_on_c, 9, 38, 127
1, 115680, Note_on_c, 9, 42, 106
1, 115685, Note_on_c, 9, 42, 0
1, 115799, Note_on_c, 9, 38, 0
1, 115800, Note_on_c, 9, 42, 106
1, 115805, Note_on_c, 9, 42, 0
1, 115920, Note_on_c, 9, 42, 106
1, 115925, Note_on_c, 9, 42, 0
1, 116040, Note_on_c, 9, 42, 106
1, 116045, Note_on_c, 9, 42, 0
1, 116160, Note_on_c, 9, 42, 106
1, 116160, Note_on_c, 9, 36, 106
1, 116165, Note_on_c, 9, 42, 0
1, 116280, Note_on_c, 9, 42, 106
1, 116285, Note_on_c, 9, 42, 0
1, 116400, Note_on_c, 9, 42, 106
1, 116405, Note_on_c, 9, 42, 0
1, 116520, Note_on_c, 9, 42, 106
1, 116525, Note_on_c, 9, 42, 0
1, 116639, Note_on_c, 9, 36, 0
1, 116640, Note_on_c, 9, 38, 127
1, 116640, Note_on_c, 9, 42, 106
1, 116645, Note_on_c, 9, 42, 0
1, 116759, Note_on_c, 9, 38, 0
1, 116760, Note_on_c, 9, 42, 106
1, 116765, Note_on_c, 9, 42, 0
1, 116880, Note_on_c, 9, 42, 106
1, 116885, Note_on_c, 9, 42, 0
1, 117000, Note_on_c, 9, 42, 106
1, 117005, Note_on_c, 9, 42, 0
1, 117120, Note_on_c, 9, 42, 106
1, 117120, Note_on_c, 9, 36, 106
1, 117125, Note_on_c, 9, 42, 0
1, 117240, Note_on_c, 9, 42, 106
1, 117245, Note_on_c, 9, 42, 0
1, 117360, Note_on_c, 9, 42, 106
1, 117365, Note_on_c, 9, 42, 0
1, 117480, Note_on_c, 9, 42, 106
1, 117485, Note_on_c, 9, 42, 0
1, 117599, Note_on_c, 9, 36, 0
1, 117600, Note_on_c, 9, 38, 127
1, 117600, Note_on_c, 9, 42, 106
1, 117605, Note_on_c, 9, 42, 0
1, 117719, Note_on_c, 9, 38, 0
1, 117720, Note_on_c, 9, 42, 106
1, 117725, Note_on_c, 9, 42, 0
1, 117840, Note_on_c, 9, 42, 106
1, 117845, Note_on_c, 9, 42, 0
1, 117960, Note_on_c, 9, 42, 106
1, 117965, Note_on_c, 9, 42, 0
1, 118080, Note_on_c, 9, 42, 106
1, 118080, Note_on_c, 9, 36, 106
1, 118085, Note_on_c, 9, 42, 0
1, 118200, Note_on_c, 9, 42, 106
1, 118205, Note_on_c, 9, 42, 0
1, 118320, Note_on_c, 9, 42, 106
1, 118325, Note_on_c, 9, 42, 0
1, 118440, Note_on_c, 9, 42, 106
1, 118445, Note_on_c, 9, 42, 0
1, 118559, Note_on_c, 9, 36, 0
1, 118560, Note_on_c, 9, 38, 127
1, 118560, Note_on_c, 9, 42, 106
1, 118565, Note_on_c, 9, 42, 0
1, 118679, Note_on_c, 9, 38, 0
1, 118680, Note_on_c, 9, 42, 106
1, 118685, Note_on_c, 9, 42, 0
1, 118800, Note_on_c, 9, 42, 106
1, 118805, Note_on_c, 9, 42, 0
1, 118920, Note_on_c, 9, 42, 106
1, 118925, Note_on_c, 9, 42, 0
1, 119040, Note_on_c, 9, 42, 106
1, 119040, Note_on_c, 9, 36, 106
1, 119045, Note_on_c, 9, 42, 0
1, 119160, Note_on_c, 9, 42, 106
1, 119165, Note_on_c, 9, 42, 0
1, 119280, Note_on_c, 9, 42, 106
1, 119285, Note_on_c, 9, 42, 0
1, 119400, Note_on_c, 9, 42, 106
1, 119405, Note_on_c, 9, 42, 0
1, 119519, Note_on_c, 9, 36, 0
1, 119520, Note_on_c, 9, 38, 127
1, 119520, Note_on_c, 9, 42, 106
1, 119525, Note_on_c, 9, 42, 0
1, 119639, Note_on_c, 9, 38, 0
1, 119640, Note_on_c, 9, 42, 106
1, 119645, Note_on_c, 9, 42, 0
1, 119760, Note_on_c, 9, 42, 106
1, 119765, Note_on_c, 9, 42, 0
1, 119880, Note_on_c, 9, 42, 106
1, 119885, Note_on_c, 9, 42, 0
1, 120000, Note_on_c, 9, 42, 106
1, 120000, Note_on_c, 9, 36, 106
1, 120005, Note_on_c, 9, 42, 0
1, 120120, Note_on_c, 9, 42, 106
1, 120125, Note_on_c, 9, 42, 0
1, 120240, Note_on_c, 9, 42, 106
1, 120245, Note_on_c, 9, 42, 0
1, 120360, Note_on_c, 9, 42, 106
1, 120365, Note_on_c, 9, 42, 0
1, 120479, Note_on_c, 9, 36, 0
1, 120480, Note_on_c, 9, 38, 127
1, 120480, Note_on_c, 9, 42, 106
1, 120485, Note_on_c, 9, 42, 0
1, 120599, Note_on_c, 9, 38, 0
1, 120600, Note_on_c, 9, 42, 106
1, 120605, Note_on_c, 9, 42, 0
1, 120720, Note_on_c, 9, 42, 106
1, 120725, Note_on_c, 9, 42, 0
1, 120840, Note_on_c, 9, 42, 106
1, 120845, Note_on_c, 9, 42, 0
1, 120960, Note_on_c, 9, 42, 106
1, 120960, Note_on_c, 9, 36, 106
1, 120965, Note_on_c, 9, 42, 0
1, 121080, Note_on_c, 9, 42, 106
1, 121085, Note_on_c, 9, 42, 0
1, 121200, Note_on_c, 9, 42, 106
1, 121205, Note_on_c, 9, 42, 0
1, 121320, Note_on_c, 9, 42, 106
1, 121325, Note_on_c, 9, 42, 0
1, 121439, Note_on_c, 9, 36, 0
1, 121440, Note_on_c, 9, 38, 127
1, 121440, Note_on_c, 9, 42, 106
1, 121445, Note_on_c, 9, 42, 0
1, 121559, Note_on_c, 9, 38, 0
1, 121560, Note_on_c, 9, 42, 106
1, 121565, Note_on_c, 9, 42, 0
1, 121680, Note_on_c, 9, 42, 106
1, 121685, Note_on_c, 9, 42, 0
1, 121800, Note_on_c, 9, 42, 106
1, 121805, Note_on_c, 9, 42, 0
1, 121920, Note_on_c, 9, 42, 106
1, 121920, Note_on_c, 9, 36, 106
1, 121925, Note_on_c, 9, 42, 0
1, 122040, Note_on_c, 9, 42, 106
1, 122045, Note_on_c, 9, 42, 0
1, 122160, Note_on_c, 9, 42, 106
1, 122165, Note_on_c, 9, 42, 0
1, 122280, Note_on_c, 9, 42, 106
1, 122285, Note_on_c, 9, 42, 0
1, 122399, Note_on_c, 9, 36, 0
1, 122400, Note_on_c, 9, 38, 127
1, 122400, Note_on_c, 9, 42, 106
1, 122405, Note_on_c, 9, 42, 0
1, 122519, Note_on_c, 9, 38, 0
1, 122520, Note_on_c, 9, 42, 106
1, 122525, Note_on_c, 9, 42, 0
1, 122640, Note_on_c, 9, 42, 106
1, 122645, Note_on_c, 9, 42, 0
1, 122760, Note_on_c, 9, 42, 106
1, 122765, Note_on_c, 9, 42, 0
1, 122880, Note_on_c, 9, 42, 106
1, 122880, Note_on_c, 9, 36, 106
1, 122885, Note_on_c, 9, 42, 0
1, 123000, Note_on_c, 9, 42, 106
1, 123005, Note_on_c, 9, 42, 0
1, 123120, Note_on_c, 9, 42, 106
1, 123125, Note_on_c, 9, 42, 0
1, 123240, Note_on_c, 9, 42, 106
1, 123245, Note_on_c, 9, 42, 0
1, 123359, Note_on_c, 9, 36, 0
1, 123360, Note_on_c, 9, 38, 127
1, 123360, Note_on_c, 9, 42, 106
1, 123365, Note_on_c, 9, 42, 0
1, 123479, Note_on_c, 9, 38, 0
1, 123480, Note_on_c, 9, 42, 106
1, 123485, Note_on_c, 9, 42, 0
1, 123600, Note_on_c, 9, 42, 106
1, 123605, Note_on_c, 9, 42, 0
1, 123720, Note_on_c, 9, 42, 106
1, 123725, Note_on_c, 9, 42, 0
1, 123840, Note_on_c, 9, 42, 106
1, 123840, Note_on_c, 9, 36, 106
1, 123845, Note_on_c, 9, 42, 0
1, 123960, Note_on_c, 9, 42, 106
1, 123965, Note_on_c, 9, 42, 0
1, 124080, Note_on_c, 9, 42, 106
1, 124085, Note_on_c, 9, 42, 0
1, 124200, Note_on_c, 9, 42, 106
1, 124205, Note_on_c, 9, 42, 0
1, 124319, Note_on_c, 9, 36, 0
1, 124320, Note_on_c, 9, 38, 127
1, 124320, Note_on_c, 9, 42, 106
1, 124325, Note_on_c, 9, 42, 0
1, 124439, Note_on_c, 9, 38, 0
1, 124440, Note_on_c, 9, 42, 106
1, 124445, Note_on_c, 9, 42, 0
1, 124560, Note_on_c, 9, 42, 106
1, 124565, Note_on_c, 9, 42, 0
1, 124680, Note_on_c, 9, 42, 106
1, 124685, Note_on_c, 9, 42, 0
1, 124800, Note_on_c, 9, 42, 106
1, 124800, Note_on_c, 9, 36, 106
1, 124805, Note_on_c, 9, 42, 0
1, 124920, Note_on_c, 9, 42, 106
1, 124925, Note_on_c, 9, 42, 0
1, 125040, Note_on_c, 9, 42, 106
1, 125045, Note_on_c, 9, 42, 0
1, 125160, Note_on_c, 9, 42, 106
1, 125165, Note_on_c, 9, 42, 0
1, 125279, Note_on_c, 9, 36, 0
1, 125280, Note_on_c, 9, 38, 127
1, 125280, Note_on_c, 9, 42, 106
1, 125285, Note_on_c, 9, 42, 0
1, 125399, Note_on_c, 9, 38, 0
1, 125400, Note_on_c, 9, 42, 106
1, 125405, Note_on_c, 9, 42, 0
1, 125520, Note_on_c, 9, 42, 106
1, 125525, Note_on_c, 9, 42, 0
1, 125640, Note_on_c, 9, 42, 106
1, 125645, Note_on_c, 9, 42, 0
1, 125760, Note_on_c, 9, 42, 106
1, 125760, Note_on_c, 9, 36, 106
1, 125765, Note_on_c, 9, 42, 0
1, 125880, Note_on_c, 9, 42, 106
1, 125885, Note_on_c, 9, 42, 0
1, 126000, Note_on_c, 9, 42, 106
1, 126005, Note_on_c, 9, 42, 0
1, 126120, Note_on_c, 9, 42, 106
1, 126125, Note_on_c, 9, 42, 0
1, 126239, Note_on_c, 9, 36, 0
1, 126240, Note_on_c, 9, 38, 127
1, 126240, Note_on_c, 9, 42, 106
1, 126245, Note_on_c, 9, 42, 0
1, 126359, Note_on_c, 9, 38, 0
1, 126360, Note_on_c, 9, 42, 106
1, 126365, Note_on_c, 9, 42, 0
1, 126480, Note_on_c, 9, 42, 106
1, 126485, Note_on_c, 9, 42, 0
1, 126600, Note_on_c, 9, 38, 106
1, 126600, Note_on_c, 9, 42, 106
1, 126605, Note_on_c, 9, 42, 0
1, 126719, Note_on_c, 9, 38, 0
1, 126720, Note_on_c, 9, 42, 106
1, 126720, Note_on_c, 9, 49, 106
1, 126720, Note_on_c, 9, 36, 106
1, 126725, Note_on_c, 9, 42, 0
1, 126725, Note_on_c, 9, 49, 0
1, 126840, Note_on_c, 9, 42, 106
1, 126845, Note_on_c, 9, 42, 0
1, 126960, Note_on_c, 9, 42, 106
1, 126965, Note_on_c, 9, 42, 0
1, 127080, Note_on_c, 9, 42, 106
1, 127085, Note_on_c, 9, 42, 0
1, 127199, Note_on_c, 9, 36, 0
1, 127200, Note_on_c, 9, 38, 127
1, 127200, Note_on_c, 9, 42, 106
1, 127205, Note_on_c, 9, 42, 0
1, 127319, Note_on_c, 9, 38, 0
1, 127320, Note_on_c, 9, 42, 106
1, 127325, Note_on_c, 9, 42, 0
1, 127440, Note_on_c, 9, 42, 106
1, 127445, Note_on_c, 9, 42, 0
1, 127560, Note_on_c, 9, 42, 106
1, 127565, Note_on_c, 9, 42, 0
1, 127680, Note_on_c, 9, 42, 106
1, 127680, Note_on_c, 9, 36, 106
1, 127685, Note_on_c, 9, 42, 0
1, 127800, Note_on_c, 9, 42, 106
1, 127805, Note_on_c, 9, 42, 0
1, 127920, Note_on_c, 9, 42, 106
1, 127925, Note_on_c, 9, 42, 0
1, 128040, Note_on_c, 9, 42, 106
1, 128045, Note_on_c, 9, 42, 0
1, 128159, Note_on_c, 9, 36, 0
1, 128160, Note_on_c, 9, 38, 127
1, 128160, Note_on_c, 9, 42, 106
1, 128165, Note_on_c, 9, 42, 0
1, 128279, Note_on_c, 9, 38, 0
1, 128280, Note_on_c, 9, 42, 106
1, 128285, Note_on_c, 9, 42, 0
1, 128400, Note_on_c, 9, 42, 106
1, 128405, Note_on_c, 9, 42, 0
1, 128520, Note_on_c, 9, 42, 106
1, 128525, Note_on_c, 9, 42, 0
1, 128640, Note_on_c, 9, 42, 106
1, 128640, Note_on_c, 9, 36, 106
1, 128645, Note_on_c, 9, 42, 0
1, 128760, Note_on_c, 9, 42, 106
1, 128765, Note_on_c, 9, 42, 0
1, 128880, Note_on_c, 9, 42, 106
1, 128885, Note_on_c, 9, 42, 0
1, 129000, Note_on_c, 9, 42, 106
1, 129005, Note_on_c, 9, 42, 0
1, 129119, Note_on_c, 9, 36, 0
1, 129120, Note_on_c, 9, 38, 127
1, 129120, Note_on_c, 9, 42, 106
1, 129125, Note_on_c, 9, 42, 0
1, 129239, Note_on_c, 9, 38, 0
1, 129240, Note_on_c, 9, 42, 106
1, 129245, Note_on_c, 9, 42, 0
1, 129360, Note_on_c, 9, 42, 106
1, 129365, Note_on_c, 9, 42, 0
1, 129480, Note_on_c, 9, 42, 106
1, 129485, Note_on_c, 9, 42, 0
1, 129600, Note_on_c, 9, 42, 106
1, 129600, Note_on_c, 9, 36, 106
1, 129605, Note_on_c, 9, 42, 0
1, 129720, Note_on_c, 9, 42, 106
1, 129725, Note_on_c, 9, 42, 0
1, 129840, Note_on_c, 9, 42, 106
1, 129845, Note_on_c, 9, 42, 0
1, 129960, Note_on_c, 9, 42, 106
1, 129965, Note_on_c, 9, 42, 0
1, 130079, Note_on_c, 9, 36, 0
1, 130080, Note_on_c, 9, 38, 127
1, 130080, Note_on_c, 9, 42, 106
1, 130085, Note_on_c, 9, 42, 0
1, 130199, Note_on_c, 9, 38, 0
1, 130200, Note_on_c, 9, 42, 106
1, 130205, Note_on_c, 9, 42, 0
1, 130320, Note_on_c, 9, 42, 106
1, 130325, Note_on_c, 9, 42, 0
1, 130440, Note_on_c, 9, 42, 106
1, 130445, Note_on_c, 9, 42, 0
1, 130560, Note_on_c, 9, 42, 106
1, 130560, Note_on_c, 9, 36, 106
1, 130565, Note_on_c, 9, 42, 0
1, 130680, Note_on_c, 9, 42, 106
1, 130685, Note_on_c, 9, 42, 0
1, 130800, Note_on_c, 9, 42, 106
1, 130805, Note_on_c, 9, 42, 0
1, 130920, Note_on_c, 9, 42, 106
1, 130925, Note_on_c, 9, 42, 0
1, 131039, Note_on_c, 9, 36, 0
1, 131040, Note_on_c, 9, 38, 127
1, 131040, Note_on_c, 9, 42, 106
1, 131045, Note_on_c, 9, 42, 0
1, 131159, Note_on_c, 9, 38, 0
1, 131160, Note_on_c, 9, 42, 106
1, 131165, Note_on_c, 9, 42, 0
1, 131280, Note_on_c, 9, 42, 106
1, 131285, Note_on_c, 9, 42, 0
1, 131400, Note_on_c, 9, 42, 106
1, 131405, Note_on_c, 9, 42, 0
1, 131520, Note_on_c, 9, 42, 106
1, 131520, Note_on_c, 9, 36, 106
1, 131525, Note_on_c, 9, 42, 0
1, 131640, Note_on_c, 9, 42, 106
1, 131645, Note_on_c, 9, 42, 0
1, 131760, Note_on_c, 9, 42, 106
1, 131765, Note_on_c, 9, 42, 0
1, 131880, Note_on_c, 9, 42, 106
1, 131885, Note_on_c, 9, 42, 0
1, 131999, Note_on_c, 9, 36, 0
1, 132000, Note_on_c, 9, 38, 127
1, 132000, Note_on_c, 9, 42, 106
1, 132005, Note_on_c, 9, 42, 0
1, 132119, Note_on_c, 9, 38, 0
1, 132120, Note_on_c, 9, 42, 106
1, 132125, Note_on_c, 9, 42, 0
1, 132240, Note_on_c, 9, 42, 106
1, 132245, Note_on_c, 9, 42, 0
1, 132360, Note_on_c, 9, 42, 106
1, 132365, Note_on_c, 9, 42, 0
1, 132480, Note_on_c, 9, 42, 106
1, 132480, Note_on_c, 9, 36, 106
1, 132485, Note_on_c, 9, 42, 0
1, 132600, Note_on_c, 9, 42, 106
1, 132605, Note_on_c, 9, 42, 0
1, 132720, Note_on_c, 9, 42, 106
1, 132725, Note_on_c, 9, 42, 0
1, 132840, Note_on_c, 9, 42, 106
1, 132845, Note_on_c, 9, 42, 0
1, 132959, Note_on_c, 9, 36, 0
1, 132960, Note_on_c, 9, 38, 127
1, 132960, Note_on_c, 9, 42, 106
1, 132965, Note_on_c, 9, 42, 0
1, 133079, Note_on_c, 9, 38, 0
1, 133080, Note_on_c, 9, 42, 106
1, 133085, Note_on_c, 9, 42, 0
1, 133200, Note_on_c, 9, 42, 106
1, 133205, Note_on_c, 9, 42, 0
1, 133320, Note_on_c, 9, 42, 106
1, 133325, Note_on_c, 9, 42, 0
1, 133440, Note_on_c, 9, 42, 106
1, 133440, Note_on_c, 9, 36, 106
1, 133445, Note_on_c, 9, 42, 0
1, 133560, Note_on_c, 9, 42, 106
1, 133565, Note_on_c, 9, 42, 0
1, 133680, Note_on_c, 9, 42, 106
1, 133685, Note_on_c, 9, 42, 0
1, 133800, Note_on_c, 9, 42, 106
1, 133805, Note_on_c, 9, 42, 0
1, 133919, Note_on_c, 9, 36, 0
1, 133920, Note_on_c, 9, 38, 127
1, 133920, Note_on_c, 9, 42, 106
1, 133925, Note_on_c, 9, 42, 0
1, 134039, Note_on_c, 9, 38, 0
1, 134040, Note_on_c, 9, 42, 106
1, 134045, Note_on_c, 9, 42, 0
1, 134160, Note_on_c, 9, 42, 106
1, 134165, Note_on_c, 9, 42, 0
1, 134280, Note_on_c, 9, 42, 106
1, 134285, Note_on_c, 9, 42, 0
1, 134400, Note_on_c, 9, 42, 106
1, 134400, Note_on_c, 9, 36, 106
1, 134405, Note_on_c, 9, 42, 0
1, 134520, Note_on_c, 9, 42, 106
1, 134525, Note_on_c, 9, 42, 0
1, 134640, Note_on_c, 9, 42, 106
1, 134645, Note_on_c, 9, 42, 0
1, 134760, Note_on_c, 9, 42, 106
1, 134765, Note_on_c, 9, 42, 0
1, 134879, Note_on_c, 9, 36, 0
1, 134880, Note_on_c, 9, 38, 127
1, 134880, Note_on_c, 9, 42, 106
1, 134885, Note_on_c, 9, 42, 0
1, 134999, Note_on_c, 9, 38, 0
1, 135000, Note_on_c, 9, 42, 106
1, 135005, Note_on_c, 9, 42, 0
1, 135120, Note_on_c, 9, 42, 106
1, 135125, Note_on_c, 9, 42, 0
1, 135240, Note_on_c, 9, 42, 106
1, 135245, Note_on_c, 9, 42, 0
1, 135360, Note_on_c, 9, 42, 106
1, 135360, Note_on_c, 9, 36, 106
1, 135365, Note_on_c, 9, 42, 0
1, 135480, Note_on_c, 9, 42, 106
1, 135485, Note_on_c, 9, 42, 0
1, 135600, Note_on_c, 9, 42, 106
1, 135605, Note_on_c, 9, 42, 0
1, 135720, Note_on_c, 9, 42, 106
1, 135725, Note_on_c, 9, 42, 0
1, 135839, Note_on_c, 9, 36, 0
1, 135840, Note_on_c, 9, 38, 127
1, 135840, Note_on_c, 9, 42, 106
1, 135845, Note_on_c, 9, 42, 0
1, 135959, Note_on_c, 9, 38, 0
1, 135960, Note_on_c, 9, 42, 106
1, 135965, Note_on_c, 9, 42, 0
1, 136080, Note_on_c, 9, 42, 106
1, 136085, Note_on_c, 9, 42, 0
1, 136200, Note_on_c, 9, 42, 106
1, 136205, Note_on_c, 9, 42, 0
1, 136320, Note_on_c, 9, 42, 106
1, 136320, Note_on_c, 9, 36, 106
1, 136325, Note_on_c, 9, 42, 0
1, 136440, Note_on_c, 9, 42, 106
1, 136445, Note_on_c, 9, 42, 0
1, 136560, Note_on_c, 9, 42, 106
1, 136565, Note_on_c, 9, 42, 0
1, 136680, Note_on_c, 9, 42, 106
1, 136685, Note_on_c, 9, 42, 0
1, 136799, Note_on_c, 9, 36, 0
1, 136800, Note_on_c, 9, 38, 127
1, 136800, Note_on_c, 9, 42, 106
1, 136805, Note_on_c, 9, 42, 0
1, 136919, Note_on_c, 9, 38, 0
1, 136920, Note_on_c, 9, 42, 106
1, 136925, Note_on_c, 9, 42, 0
1, 137040, Note_on_c, 9, 42, 106
1, 137045, Note_on_c, 9, 42, 0
1, 137160, Note_on_c, 9, 42, 106
1, 137165, Note_on_c, 9, 42, 0
1, 137280, Note_on_c, 9, 42, 106
1, 137280, Note_on_c, 9, 36, 106
1, 137285, Note_on_c, 9, 42, 0
1, 137400, Note_on_c, 9, 42, 106
1, 137405, Note_on_c, 9, 42, 0
1, 137520, Note_on_c, 9, 42, 106
1, 137525, Note_on_c, 9, 42, 0
1, 137640, Note_on_c, 9, 42, 106
1, 137645, Note_on_c, 9, 42, 0
1, 137759, Note_on_c, 9, 36, 0
1, 137760, Note_on_c, 9, 38, 127
1, 137760, Note_on_c, 9, 42, 106
1, 137765, Note_on_c, 9, 42, 0
1, 137879, Note_on_c, 9, 38, 0
1, 137880, Note_on_c, 9, 42, 106
1, 137885, Note_on_c, 9, 42, 0
1, 138000, Note_on_c, 9, 42, 106
1, 138005, Note_on_c, 9, 42, 0
1, 138120, Note_on_c, 9, 42, 106
1, 138125, Note_on_c, 9, 42, 0
1, 138240, Note_on_c, 9, 42, 106
1, 138240, Note_on_c, 9, 36, 106
1, 138245, Note_on_c, 9, 42, 0
1, 138360, Note_on_c, 9, 42, 106
1, 138365, Note_on_c, 9, 42, 0
1, 138480, Note_on_c, 9, 42, 106
1, 138485, Note_on_c, 9, 42, 0
1, 138600, Note_on_c, 9, 42, 106
1, 138605, Note_on_c, 9, 42, 0
1, 138719, Note_on_c, 9, 36, 0
1, 138720, Note_on_c, 9, 38, 127
1, 138720, Note_on_c, 9, 42, 106
1, 138725, Note_on_c, 9, 42, 0
1, 138839, Note_on_c, 9, 38, 0
1, 138840, Note_on_c, 9, 42, 106
1, 138845, Note_on_c, 9, 42, 0
1, 138960, Note_on_c, 9, 42, 106
1, 138965, Note_on_c, 9, 42, 0
1, 139080, Note_on_c, 9, 42, 106
1, 139085, Note_on_c, 9, 42, 0
1, 139200, Note_on_c, 9, 42, 106
1, 139200, Note_on_c, 9, 36, 106
1, 139205, Note_on_c, 9, 42, 0
1, 139320, Note_on_c, 9, 42, 106
1, 139325, Note_on_c, 9, 42, 0
1, 139440, Note_on_c, 9, 42, 106
1, 139445, Note_on_c, 9, 42, 0
1, 139560, Note_on_c, 9, 42, 106
1, 139565, Note_on_c, 9, 42, 0
1, 139679, Note_on_c, 9, 36, 0
1, 139680, Note_on_c, 9, 38, 127
1, 139680, Note_on_c, 9, 42, 106
1, 139685, Note_on_c, 9, 42, 0
1, 139799, Note_on_c, 9, 38, 0
1, 139800, Note_on_c, 9, 42, 106
1, 139805, Note_on_c, 9, 42, 0
1, 139920, Note_on_c, 9, 42, 106
1, 139925, Note_on_c, 9, 42, 0
1, 140040, Note_on_c, 9, 42, 106
1, 140045, Note_on_c, 9, 42, 0
1, 140160, Note_on_c, 9, 42, 106
1, 140160, Note_on_c, 9, 36, 106
1, 140165, Note_on_c, 9, 42, 0
1, 140280, Note_on_c, 9, 42, 106
1, 140285, Note_on_c, 9, 42, 0
1, 140400, Note_on_c, 9, 42, 106
1, 140405, Note_on_c, 9, 42, 0
1, 140520, Note_on_c, 9, 42, 106
1, 140525, Note_on_c, 9, 42, 0
1, 140639, Note_on_c, 9, 36, 0
1, 140640, Note_on_c, 9, 38, 127
1, 140640, Note_on_c, 9, 42, 106
1, 140645, Note_on_c, 9, 42, 0
1, 140759, Note_on_c, 9, 38, 0
1, 140760, Note_on_c, 9, 42, 106
1, 140765, Note_on_c, 9, 42, 0
1, 140880, Note_on_c, 9, 42, 106
1, 140885, Note_on_c, 9, 42, 0
1, 141000, Note_on_c, 9, 42, 106
1, 141005, Note_on_c, 9, 42, 0
1, 141120, Note_on_c, 9, 38, 106
1, 141120, Note_on_c, 9, 42, 106
1, 141120, Note_on_c, 9, 36, 106
1, 141131, Note_on_c, 9, 42, 0
1, 141359, Note_on_c, 9, 38, 0
1, 141360, Note_on_c, 9, 38, 106
1, 141479, Note_on_c, 9, 38, 0
1, 141480, Note_on_c, 9, 38, 106
1, 141599, Note_on_c, 9, 36, 0
1, 141599, Note_on_c, 9, 38, 0
1, 141600, Note_on_c, 9, 38, 106
1, 141839, Note_on_c, 9, 38, 0
1, 141840, Note_on_c, 9, 38, 106
1, 141959, Note_on_c, 9, 38, 0
1, 141960, Note_on_c, 9, 38, 106
1, 142079, Note_on_c, 9, 38, 0
1, 142080, Note_on_c, 9, 38, 106
1, 142080, Note_on_c, 9, 42, 106
1, 142080, Note_on_c, 9, 49, 106
1, 142080, Note_on_c, 9, 36, 106
1, 142085, Note_on_c, 9, 42, 0
1, 142085, Note_on_c, 9, 49, 0
1, 142199, Note_on_c, 9, 38, 0
1, 142200, Note_on_c, 9, 42, 106
1, 142205, Note_on_c, 9, 42, 0
1, 142320, Note_on_c, 9, 42, 106
1, 142325, Note_on_c, 9, 42, 0
1, 142440, Note_on_c, 9, 42, 106
1, 142445, Note_on_c, 9, 42, 0
1, 142559, Note_on_c, 9, 36, 0
1, 142560, Note_on_c, 9, 38, 127
1, 142560, Note_on_c, 9, 42, 106
1, 142565, Note_on_c, 9, 42, 0
1, 142679, Note_on_c, 9, 38, 0
1, 142680, Note_on_c, 9, 42, 106
1, 142685, Note_on_c, 9, 42, 0
1, 142800, Note_on_c, 9, 42, 106
1, 142805, Note_on_c, 9, 42, 0
1, 142920, Note_on_c, 9, 42, 106
1, 142925, Note_on_c, 9, 42, 0
1, 143040, Note_on_c, 9, 42, 106
1, 143040, Note_on_c, 9, 36, 106
1, 143045, Note_on_c, 9, 42, 0
1, 143160, Note_on_c, 9, 42, 106
1, 143165, Note_on_c, 9, 42, 0
1, 143279, Note_on_c, 9, 36, 0
1, 143280, Note_on_c, 9, 42, 106
1, 143280, Note_on_c, 9, 36, 106
1, 143285, Note_on_c, 9, 42, 0
1, 143400, Note_on_c, 9, 42, 106
1, 143405, Note_on_c, 9, 42, 0
1, 143519, Note_on_c, 9, 36, 0
1, 143520, Note_on_c, 9, 38, 127
1, 143520, Note_on_c, 9, 42, 106
1, 143525, Note_on_c, 9, 42, 0
1, 143639, Note_on_c, 9, 38, 0
1, 143640, Note_on_c, 9, 42, 106
1, 143645, Note_on_c, 9, 42, 0
1, 143760, Note_on_c, 9, 42, 106
1, 143760, Note_on_c, 9, 36, 106
1, 143765, Note_on_c, 9, 42, 0
1, 143880, Note_on_c, 9, 42, 106
1, 143885, Note_on_c, 9, 42, 0
1, 143999, Note_on_c, 9, 36, 0
1, 144000, Note_on_c, 9, 42, 106
1, 144005, Note_on_c, 9, 42, 0
1, 144120, Note_on_c, 9, 42, 106
1, 144125, Note_on_c, 9, 42, 0
1, 144240, Note_on_c, 9, 42, 106
1, 144240, Note_on_c, 9, 36, 106
1, 144245, Note_on_c, 9, 42, 0
1, 144360, Note_on_c, 9, 42, 106
1, 144365, Note_on_c, 9, 42, 0
1, 144479, Note_on_c, 9, 36, 0
1, 144480, Note_on_c, 9, 38, 127
1, 144480, Note_on_c, 9, 42, 106
1, 144485, Note_on_c, 9, 42, 0
1, 144599, Note_on_c, 9, 38, 0
1, 144600, Note_on_c, 9, 42, 106
1, 144605, Note_on_c, 9, 42, 0
1, 144720, Note_on_c, 9, 42, 106
1, 144725, Note_on_c, 9, 42, 0
1, 144840, Note_on_c, 9, 42, 106
1, 144845, Note_on_c, 9, 42, 0
1, 144960, Note_on_c, 9, 42, 106
1, 144960, Note_on_c, 9, 36, 106
1, 144965, Note_on_c, 9, 42, 0
1, 145080, Note_on_c, 9, 42, 106
1, 145085, Note_on_c, 9, 42, 0
1, 145200, Note_on_c, 9, 42, 106
1, 145205, Note_on_c, 9, 42, 0
1, 145320, Note_on_c, 9, 42, 106
1, 145325, Note_on_c, 9, 42, 0
1, 145439, Note_on_c, 9, 36, 0
1, 145440, Note_on_c, 9, 38, 127
1, 145440, Note_on_c, 9, 42, 106
1, 145445, Note_on_c, 9, 42, 0
1, 145559, Note_on_c, 9, 38, 0
1, 145560, Note_on_c, 9, 42, 106
1, 145565, Note_on_c, 9, 42, 0
1, 145680, Note_on_c, 9, 42, 106
1, 145680, Note_on_c, 9, 36, 106
1, 145685, Note_on_c, 9, 42, 0
1, 145800, Note_on_c, 9, 42, 106
1, 145805, Note_on_c, 9, 42, 0
1, 145919, Note_on_c, 9, 36, 0
1, 145920, Note_on_c, 9, 42, 106
1, 145925, Note_on_c, 9, 42, 0
1, 146040, Note_on_c, 9, 42, 106
1, 146045, Note_on_c, 9, 42, 0
1, 146160, Note_on_c, 9, 42, 106
1, 146165, Note_on_c, 9, 42, 0
1, 146280, Note_on_c, 9, 42, 106
1, 146285, Note_on_c, 9, 42, 0
1, 146400, Note_on_c, 9, 38, 127
1, 146400, Note_on_c, 9, 42, 106
1, 146405, Note_on_c, 9, 42, 0
1, 146519, Note_on_c, 9, 38, 0
1, 146520, Note_on_c, 9, 42, 106
1, 146525, Note_on_c, 9, 42, 0
1, 146640, Note_on_c, 9, 42, 106
1, 146645, Note_on_c, 9, 42, 0
1, 146760, Note_on_c, 9, 42, 106
1, 146765, Note_on_c, 9, 42, 0
1, 146880, Note_on_c, 9, 42, 106
1, 146880, Note_on_c, 9, 36, 106
1, 146885, Note_on_c, 9, 42, 0
1, 147000, Note_on_c, 9, 42, 106
1, 147005, Note_on_c, 9, 42, 0
1, 147120, Note_on_c, 9, 42, 106
1, 147125, Note_on_c, 9, 42, 0
1, 147240, Note_on_c, 9, 42, 106
1, 147245, Note_on_c, 9, 42, 0
1, 147359, Note_on_c, 9, 36, 0
1, 147360, Note_on_c, 9, 38, 127
1, 147360, Note_on_c, 9, 42, 106
1, 147365, Note_on_c, 9, 42, 0
1, 147479, Note_on_c, 9, 38, 0
1, 147480, Note_on_c, 9, 42, 106
1, 147485, Note_on_c, 9, 42, 0
1, 147600, Note_on_c, 9, 42, 106
1, 147605, Note_on_c, 9, 42, 0
1, 147720, Note_on_c, 9, 42, 106
1, 147725, Note_on_c, 9, 42, 0
1, 147840, Note_on_c, 9, 42, 106
1, 147840, Note_on_c, 9, 36, 106
1, 147845, Note_on_c, 9, 42, 0
1, 147960, Note_on_c, 9, 42, 106
1, 147965, Note_on_c, 9, 42, 0
1, 148080, Note_on_c, 9, 42, 106
1, 148085, Note_on_c, 9, 42, 0
1, 148200, Note_on_c, 9, 42, 106
1, 148205, Note_on_c, 9, 42, 0
1, 148319, Note_on_c, 9, 36, 0
1, 148320, Note_on_c, 9, 38, 127
1, 148320, Note_on_c, 9, 42, 106
1, 148325, Note_on_c, 9, 42, 0
1, 148439, Note_on_c, 9, 38, 0
1, 148440, Note_on_c, 9, 42, 106
1, 148445, Note_on_c, 9, 42, 0
1, 148560, Note_on_c, 9, 42, 106
1, 148565, Note_on_c, 9, 42, 0
1, 148680, Note_on_c, 9, 42, 106
1, 148685, Note_on_c, 9, 42, 0
1, 148800, Note_on_c, 9, 42, 106
1, 148800, Note_on_c, 9, 36, 106
1, 148805, Note_on_c, 9, 42, 0
1, 148920, Note_on_c, 9, 42, 106
1, 148925, Note_on_c, 9, 42, 0
1, 149040, Note_on_c, 9, 42, 106
1, 149045, Note_on_c, 9, 42, 0
1, 149160, Note_on_c, 9, 42, 106
1, 149165, Note_on_c, 9, 42, 0
1, 149279, Note_on_c, 9, 36, 0
1, 149280, Note_on_c, 9, 38, 127
1, 149280, Note_on_c, 9, 42, 106
1, 149285, Note_on_c, 9, 42, 0
1, 149399, Note_on_c, 9, 38, 0
1, 149400, Note_on_c, 9, 42, 106
1, 149405, Note_on_c, 9, 42, 0
1, 149520, Note_on_c, 9, 42, 106
1, 149525, Note_on_c, 9, 42, 0
1, 149640, Note_on_c, 9, 38, 106
1, 149640, Note_on_c, 9, 42, 106
1, 149645, Note_on_c, 9, 42, 0
1, 149759, Note_on_c, 9, 38, 0
1, 149760, Note_on_c, 9, 42, 106
1, 149760, Note_on_c, 9, 49, 106
1, 149760, Note_on_c, 9, 36, 106
1, 149765, Note_on_c, 9, 42, 0
1, 149765, Note_on_c, 9, 49, 0
1, 149880, Note_on_c, 9, 42, 106
1, 149885, Note_on_c, 9, 42, 0
1, 150000, Note_on_c, 9, 42, 106
1, 150005, Note_on_c, 9, 42, 0
1, 150120, Note_on_c, 9, 42, 106
1, 150125, Note_on_c, 9, 42, 0
1, 150239, Note_on_c, 9, 36, 0
1, 150240, Note_on_c, 9, 38, 127
1, 150240, Note_on_c, 9, 42, 106
1, 150245, Note_on_c, 9, 42, 0
1, 150359, Note_on_c, 9, 38, 0
1, 150360, Note_on_c, 9, 42, 106
1, 150365, Note_on_c, 9, 42, 0
1, 150480, Note_on_c, 9, 42, 106
1, 150485, Note_on_c, 9, 42, 0
1, 150600, Note_on_c, 9, 42, 106
1, 150605, Note_on_c, 9, 42, 0
1, 150720, Note_on_c, 9, 42, 106
1, 150720, Note_on_c, 9, 36, 106
1, 150725, Note_on_c, 9, 42, 0
1, 150840, Note_on_c, 9, 42, 106
1, 150845, Note_on_c, 9, 42, 0
1, 150959, Note_on_c, 9, 36, 0
1, 150960, Note_on_c, 9, 42, 106
1, 150960, Note_on_c, 9, 36, 106
1, 150965, Note_on_c, 9, 42, 0
1, 151080, Note_on_c, 9, 42, 106
1, 151085, Note_on_c, 9, 42, 0
1, 151199, Note_on_c, 9, 36, 0
1, 151200, Note_on_c, 9, 38, 127
1, 151200, Note_on_c, 9, 42, 106
1, 151205, Note_on_c, 9, 42, 0
1, 151319, Note_on_c, 9, 38, 0
1, 151320, Note_on_c, 9, 42, 106
1, 151325, Note_on_c, 9, 42, 0
1, 151440, Note_on_c, 9, 42, 106
1, 151440, Note_on_c, 9, 36, 106
1, 151445, Note_on_c, 9, 42, 0
1, 151560, Note_on_c, 9, 42, 106
1, 151565, Note_on_c, 9, 42, 0
1, 151679, Note_on_c, 9, 36, 0
1, 151680, Note_on_c, 9, 42, 106
1, 151685, Note_on_c, 9, 42, 0
1, 151800, Note_on_c, 9, 42, 106
1, 151805, Note_on_c, 9, 42, 0
1, 151920, Note_on_c, 9, 42, 106
1, 151920, Note_on_c, 9, 36, 106
1, 151925, Note_on_c, 9, 42, 0
1, 152040, Note_on_c, 9, 42, 106
1, 152045, Note_on_c, 9, 42, 0
1, 152159, Note_on_c, 9, 36, 0
1, 152160, Note_on_c, 9, 38, 127
1, 152160, Note_on_c, 9, 42, 106
1, 152165, Note_on_c, 9, 42, 0
1, 152279, Note_on_c, 9, 38, 0
1, 152280, Note_on_c, 9, 42, 106
1, 152285, Note_on_c, 9, 42, 0
1, 152400, Note_on_c, 9, 42, 106
1, 152405, Note_on_c, 9, 42, 0
1, 152520, Note_on_c, 9, 42, 106
1, 152525, Note_on_c, 9, 42, 0
1, 152640, Note_on_c, 9, 42, 106
1, 152640, Note_on_c, 9, 36, 106
1, 152645, Note_on_c, 9, 42, 0
1, 152760, Note_on_c, 9, 42, 106
1, 152765, Note_on_c, 9, 42, 0
1, 152880, Note_on_c, 9, 42, 106
1, 152885, Note_on_c, 9, 42, 0
1, 153000, Note_on_c, 9, 42, 106
1, 153005, Note_on_c, 9, 42, 0
1, 153119, Note_on_c, 9, 36, 0
1, 153120, Note_on_c, 9, 38, 127
1, 153120, Note_on_c, 9, 42, 106
1, 153125, Note_on_c, 9, 42, 0
1, 153239, Note_on_c, 9, 38, 0
1, 153240, Note_on_c, 9, 42, 106
1, 153245, Note_on_c, 9, 42, 0
1, 153360, Note_on_c, 9, 42, 106
1, 153360, Note_on_c, 9, 36, 106
1, 153365, Note_on_c, 9, 42, 0
1, 153480, Note_on_c, 9, 42, 106
1, 153485, Note_on_c, 9, 42, 0
1, 153599, Note_on_c, 9, 36, 0
1, 153600, Note_on_c, 9, 42, 106
1, 153605, Note_on_c, 9, 42, 0
1, 153720, Note_on_c, 9, 42, 106
1, 153725, Note_on_c, 9, 42, 0
1, 153840, Note_on_c, 9, 42, 106
1, 153845, Note_on_c, 9, 42, 0
1, 153960, Note_on_c, 9, 42, 106
1, 153965, Note_on_c, 9, 42, 0
1, 154080, Note_on_c, 9, 38, 127
1, 154080, Note_on_c, 9, 42, 106
1, 154085, Note_on_c, 9, 42, 0
1, 154199, Note_on_c, 9, 38, 0
1, 154200, Note_on_c, 9, 42, 106
1, 154205, Note_on_c, 9, 42, 0
1, 154320, Note_on_c, 9, 42, 106
1, 154325, Note_on_c, 9, 42, 0
1, 154440, Note_on_c, 9, 42, 106
1, 154445, Note_on_c, 9, 42, 0
1, 154560, Note_on_c, 9, 42, 106
1, 154560, Note_on_c, 9, 36, 106
1, 154565, Note_on_c, 9, 42, 0
1, 154680, Note_on_c, 9, 42, 106
1, 154685, Note_on_c, 9, 42, 0
1, 154800, Note_on_c, 9, 42, 106
1, 154805, Note_on_c, 9, 42, 0
1, 154920, Note_on_c, 9, 42, 106
1, 154925, Note_on_c, 9, 42, 0
1, 155039, Note_on_c, 9, 36, 0
1, 155040, Note_on_c, 9, 38, 127
1, 155040, Note_on_c, 9, 42, 106
1, 155045, Note_on_c, 9, 42, 0
1, 155159, Note_on_c, 9, 38, 0
1, 155160, Note_on_c, 9, 42, 106
1, 155165, Note_on_c, 9, 42, 0
1, 155280, Note_on_c, 9, 42, 106
1, 155280, Note_on_c, 9, 36, 106
1, 155285, Note_on_c, 9, 42, 0
1, 155400, Note_on_c, 9, 38, 106
1, 155400, Note_on_c, 9, 42, 106
1, 155405, Note_on_c, 9, 42, 0
1, 155519, Note_on_c, 9, 36, 0
1, 155519, Note_on_c, 9, 38, 0
1, 155520, Note_on_c, 9, 42, 106
1, 155520, Note_on_c, 9, 49, 106
1, 155520, Note_on_c, 9, 36, 106
1, 155531, Note_on_c, 9, 42, 0
1, 155531, Note_on_c, 9, 49, 0
1, 155759, Note_on_c, 9, 36, 0
1, 155760, Note_on_c, 9, 42, 106
1, 155760, Note_on_c, 9, 49, 106
1, 155760, Note_on_c, 9, 36, 106
1, 155771, Note_on_c, 9, 42, 0
1, 155771, Note_on_c, 9, 49, 0
1, 155999, Note_on_c, 9, 36, 0
1, 156000, Note_on_c, 9, 42, 106
1, 156000, Note_on_c, 9, 49, 106
1, 156000, Note_on_c, 9, 36, 106
1, 156023, Note_on_c, 9, 42, 0
1, 156023, Note_on_c, 9, 49, 0
1, 156479, Note_on_c, 9, 36, 0
1, 158880, Note_on_c, 9, 38, 127
1, 158880, Note_on_c, 9, 42, 106
1, 158897, Note_on_c, 9, 42, 0
1, 159239, Note_on_c, 9, 38, 0
1, 159240, Note_on_c, 9, 38, 106
1, 159359, Note_on_c, 9, 38, 0
1, 159360, Note_on_c, 9, 42, 106
1, 159360, Note_on_c, 9, 49, 106
1, 159360, Note_on_c, 9, 36, 106
1, 159365, Note_on_c, 9, 42, 0
1, 159365, Note_on_c, 9, 49, 0
1, 159480, Note_on_c, 9, 42, 106
1, 159485, Note_on_c, 9, 42, 0
1, 159600, Note_on_c, 9, 42, 106
1, 159605, Note_on_c, 9, 42, 0
1, 159720, Note_on_c, 9, 42, 106
1, 159725, Note_on_c, 9, 42, 0
1, 159839, Note_on_c, 9, 36, 0
1, 159840, Note_on_c, 9, 38, 127
1, 159840, Note_on_c, 9, 42, 106
1, 159845, Note_on_c, 9, 42, 0
1, 159959, Note_on_c, 9, 38, 0
1, 159960, Note_on_c, 9, 42, 106
1, 159965, Note_on_c, 9, 42, 0
1, 160080, Note_on_c, 9, 42, 106
1, 160085, Note_on_c, 9, 42, 0
1, 160200, Note_on_c, 9, 42, 106
1, 160205, Note_on_c, 9, 42, 0
1, 160320, Note_on_c, 9, 42, 106
1, 160320, Note_on_c, 9, 36, 106
1, 160325, Note_on_c, 9, 42, 0
1, 160440, Note_on_c, 9, 42, 106
1, 160445, Note_on_c, 9, 42, 0
1, 160560, Note_on_c, 9, 42, 106
1, 160565, Note_on_c, 9, 42, 0
1, 160680, Note_on_c, 9, 42, 106
1, 160685, Note_on_c, 9, 42, 0
1, 160799, Note_on_c, 9, 36, 0
1, 160800, Note_on_c, 9, 38, 127
1, 160800, Note_on_c, 9, 42, 106
1, 160805, Note_on_c, 9, 42, 0
1, 160919, Note_on_c, 9, 38, 0
1, 160920, Note_on_c, 9, 42, 106
1, 160925, Note_on_c, 9, 42, 0
1, 161040, Note_on_c, 9, 42, 106
1, 161045, Note_on_c, 9, 42, 0
1, 161160, Note_on_c, 9, 42, 106
1, 161165, Note_on_c, 9, 42, 0
1, 161280, Note_on_c, 9, 42, 106
1, 161280, Note_on_c, 9, 36, 106
1, 161285, Note_on_c, 9, 42, 0
1, 161400, Note_on_c, 9, 42, 106
1, 161405, Note_on_c, 9, 42, 0
1, 161520, Note_on_c, 9, 42, 106
1, 161525, Note_on_c, 9, 42, 0
1, 161640, Note_on_c, 9, 42, 106
1, 161645, Note_on_c, 9, 42, 0
1, 161759, Note_on_c, 9, 36, 0
1, 161760, Note_on_c, 9, 38, 127
1, 161760, Note_on_c, 9, 42, 106
1, 161765, Note_on_c, 9, 42, 0
1, 161879, Note_on_c, 9, 38, 0
1, 161880, Note_on_c, 9, 42, 106
1, 161885, Note_on_c, 9, 42, 0
1, 162000, Note_on_c, 9, 42, 106
1, 162005, Note_on_c, 9, 42, 0
1, 162120, Note_on_c, 9, 42, 106
1, 162125, Note_on_c, 9, 42, 0
1, 162240, Note_on_c, 9, 42, 106
1, 162240, Note_on_c, 9, 36, 106
1, 162245, Note_on_c, 9, 42, 0
1, 162360, Note_on_c, 9, 42, 106
1, 162365, Note_on_c, 9, 42, 0
1, 162480, Note_on_c, 9, 42, 106
1, 162485, Note_on_c, 9, 42, 0
1, 162600, Note_on_c, 9, 42, 106
1, 162605, Note_on_c, 9, 42, 0
1, 162719, Note_on_c, 9, 36, 0
1, 162720, Note_on_c, 9, 38, 127
1, 162720, Note_on_c, 9, 42, 106
1, 162725, Note_on_c, 9, 42, 0
1, 162839, Note_on_c, 9, 38, 0
1, 162840, Note_on_c, 9, 42, 106
1, 162845, Note_on_c, 9, 42, 0
1, 162960, Note_on_c, 9, 42, 106
1, 162965, Note_on_c, 9, 42, 0
1, 163080, Note_on_c, 9, 42, 106
1, 163085, Note_on_c, 9, 42, 0
1, 163200, Note_on_c, 9, 42, 106
1, 163200, Note_on_c, 9, 36, 106
1, 163205, Note_on_c, 9, 42, 0
1, 163320, Note_on_c, 9, 42, 106
1, 163325, Note_on_c, 9, 42, 0
1, 163440, Note_on_c, 9, 42, 106
1, 163445, Note_on_c, 9, 42, 0
1, 163560, Note_on_c, 9, 42, 106
1, 163565, Note_on_c, 9, 42, 0
1, 163679, Note_on_c, 9, 36, 0
1, 163680, Note_on_c, 9, 38, 127
1, 163680, Note_on_c, 9, 42, 106
1, 163685, Note_on_c, 9, 42, 0
1, 163799, Note_on_c, 9, 38, 0
1, 163800, Note_on_c, 9, 42, 106
1, 163805, Note_on_c, 9, 42, 0
1, 163920, Note_on_c, 9, 42, 106
1, 163925, Note_on_c, 9, 42, 0
1, 164040, Note_on_c, 9, 42, 106
1, 164045, Note_on_c, 9, 42, 0
1, 164160, Note_on_c, 9, 42, 106
1, 164160, Note_on_c, 9, 36, 106
1, 164165, Note_on_c, 9, 42, 0
1, 164280, Note_on_c, 9, 42, 106
1, 164285, Note_on_c, 9, 42, 0
1, 164400, Note_on_c, 9, 42, 106
1, 164405, Note_on_c, 9, 42, 0
1, 164520, Note_on_c, 9, 42, 106
1, 164525, Note_on_c, 9, 42, 0
1, 164639, Note_on_c, 9, 36, 0
1, 164640, Note_on_c, 9, 38, 127
1, 164640, Note_on_c, 9, 42, 106
1, 164645, Note_on_c, 9, 42, 0
1, 164759, Note_on_c, 9, 38, 0
1, 164760, Note_on_c, 9, 42, 106
1, 164765, Note_on_c, 9, 42, 0
1, 164880, Note_on_c, 9, 42, 106
1, 164885, Note_on_c, 9, 42, 0
1, 165000, Note_on_c, 9, 42, 106
1, 165005, Note_on_c, 9, 42, 0
1, 165120, Note_on_c, 9, 42, 106
1, 165120, Note_on_c, 9, 36, 106
1, 165125, Note_on_c, 9, 42, 0
1, 165240, Note_on_c, 9, 42, 106
1, 165245, Note_on_c, 9, 42, 0
1, 165360, Note_on_c, 9, 42, 106
1, 165365, Note_on_c, 9, 42, 0
1, 165480, Note_on_c, 9, 42, 106
1, 165485, Note_on_c, 9, 42, 0
1, 165599, Note_on_c, 9, 36, 0
1, 165600, Note_on_c, 9, 38, 127
1, 165600, Note_on_c, 9, 42, 106
1, 165605, Note_on_c, 9, 42, 0
1, 165719, Note_on_c, 9, 38, 0
1, 165720, Note_on_c, 9, 42, 106
1, 165725, Note_on_c, 9, 42, 0
1, 165840, Note_on_c, 9, 42, 106
1, 165845, Note_on_c, 9, 42, 0
1, 165960, Note_on_c, 9, 42, 106
1, 165965, Note_on_c, 9, 42, 0
1, 166080, Note_on_c, 9, 42, 106
1, 166080, Note_on_c, 9, 36, 106
1, 166085, Note_on_c, 9, 42, 0
1, 166200, Note_on_c, 9, 42, 106
1, 166205, Note_on_c, 9, 42, 0
1, 166320, Note_on_c, 9, 42, 106
1, 166325, Note_on_c, 9, 42, 0
1, 166440, Note_on_c, 9, 42, 106
1, 166445, Note_on_c, 9, 42, 0
1, 166559, Note_on_c, 9, 36, 0
1, 166560, Note_on_c, 9, 38, 127
1, 166560, Note_on_c, 9, 42, 106
1, 166565, Note_on_c, 9, 42, 0
1, 166679, Note_on_c, 9, 38, 0
1, 166680, Note_on_c, 9, 42, 106
1, 166685, Note_on_c, 9, 42, 0
1, 166800, Note_on_c, 9, 42, 106
1, 166805, Note_on_c, 9, 42, 0
1, 166920, Note_on_c, 9, 42, 106
1, 166925, Note_on_c, 9, 42, 0
1, 167040, Note_on_c, 9, 42, 106
1, 167040, Note_on_c, 9, 36, 106
1, 167045, Note_on_c, 9, 42, 0
1, 167160, Note_on_c, 9, 42, 106
1, 167165, Note_on_c, 9, 42, 0
1, 167280, Note_on_c, 9, 42, 106
1, 167285, Note_on_c, 9, 42, 0
1, 167400, Note_on_c, 9, 42, 106
1, 167405, Note_on_c, 9, 42, 0
1, 167519, Note_on_c, 9, 36, 0
1, 167520, Note_on_c, 9, 38, 127
1, 167520, Note_on_c, 9, 42, 106
1, 167525, Note_on_c, 9, 42, 0
1, 167639, Note_on_c, 9, 38, 0
1, 167640, Note_on_c, 9, 42, 106
1, 167645, Note_on_c, 9, 42, 0
1, 167760, Note_on_c, 9, 42, 106
1, 167765, Note_on_c, 9, 42, 0
1, 167880, Note_on_c, 9, 42, 106
1, 167885, Note_on_c, 9, 42, 0
1, 168000, Note_on_c, 9, 42, 106
1, 168000, Note_on_c, 9, 36, 106
1, 168005, Note_on_c, 9, 42, 0
1, 168120, Note_on_c, 9, 42, 106
1, 168125, Note_on_c, 9, 42, 0
1, 168240, Note_on_c, 9, 42, 106
1, 168245, Note_on_c, 9, 42, 0
1, 168360, Note_on_c, 9, 42, 106
1, 168365, Note_on_c, 9, 42, 0
1, 168479, Note_on_c, 9, 36, 0
1, 168480, Note_on_c, 9, 38, 127
1, 168480, Note_on_c, 9, 42, 106
1, 168485, Note_on_c, 9, 42, 0
1, 168599, Note_on_c, 9, 38, 0
1, 168600, Note_on_c, 9, 42, 106
1, 168605, Note_on_c, 9, 42, 0
1, 168720, Note_on_c, 9, 42, 106
1, 168725, Note_on_c, 9, 42, 0
1, 168840, Note_on_c, 9, 42, 106
1, 168845, Note_on_c, 9, 42, 0
1, 168960, Note_on_c, 9, 42, 106
1, 168960, Note_on_c, 9, 36, 106
1, 168965, Note_on_c, 9, 42, 0
1, 169080, Note_on_c, 9, 42, 106
1, 169085, Note_on_c, 9, 42, 0
1, 169200, Note_on_c, 9, 42, 106
1, 169205, Note_on_c, 9, 42, 0
1, 169320, Note_on_c, 9, 42, 106
1, 169325, Note_on_c, 9, 42, 0
1, 169439, Note_on_c, 9, 36, 0
1, 169440, Note_on_c, 9, 38, 127
1, 169440, Note_on_c, 9, 42, 106
1, 169445, Note_on_c, 9, 42, 0
1, 169559, Note_on_c, 9, 38, 0
1, 169560, Note_on_c, 9, 42, 106
1, 169565, Note_on_c, 9, 42, 0
1, 169680, Note_on_c, 9, 42, 106
1, 169685, Note_on_c, 9, 42, 0
1, 169800, Note_on_c, 9, 42, 106
1, 169805, Note_on_c, 9, 42, 0
1, 169920, Note_on_c, 9, 42, 106
1, 169920, Note_on_c, 9, 36, 106
1, 169925, Note_on_c, 9, 42, 0
1, 170040, Note_on_c, 9, 42, 106
1, 170045, Note_on_c, 9, 42, 0
1, 170160, Note_on_c, 9, 42, 106
1, 170165, Note_on_c, 9, 42, 0
1, 170280, Note_on_c, 9, 42, 106
1, 170285, Note_on_c, 9, 42, 0
1, 170399, Note_on_c, 9, 36, 0
1, 170400, Note_on_c, 9, 38, 127
1, 170400, Note_on_c, 9, 42, 106
1, 170405, Note_on_c, 9, 42, 0
1, 170519, Note_on_c, 9, 38, 0
1, 170520, Note_on_c, 9, 42, 106
1, 170525, Note_on_c, 9, 42, 0
1, 170640, Note_on_c, 9, 42, 106
1, 170645, Note_on_c, 9, 42, 0
1, 170760, Note_on_c, 9, 42, 106
1, 170765, Note_on_c, 9, 42, 0
1, 170880, Note_on_c, 9, 42, 106
1, 170880, Note_on_c, 9, 49, 106
1, 170880, Note_on_c, 9, 36, 106
1, 170885, Note_on_c, 9, 42, 0
1, 170885, Note_on_c, 9, 49, 0
1, 171000, Note_on_c, 9, 42, 106
1, 171005, Note_on_c, 9, 42, 0
1, 171120, Note_on_c, 9, 42, 106
1, 171125, Note_on_c, 9, 42, 0
1, 171240, Note_on_c, 9, 42, 106
1, 171245, Note_on_c, 9, 42, 0
1, 171359, Note_on_c, 9, 36, 0
1, 171360, Note_on_c, 9, 38, 127
1, 171360, Note_on_c, 9, 42, 106
1, 171365, Note_on_c, 9, 42, 0
1, 171479, Note_on_c, 9, 38, 0
1, 171480, Note_on_c, 9, 42, 106
1, 171485, Note_on_c, 9, 42, 0
1, 171600, Note_on_c, 9, 42, 106
1, 171605, Note_on_c, 9, 42, 0
1, 171720, Note_on_c, 9, 42, 106
1, 171725, Note_on_c, 9, 42, 0
1, 171840, Note_on_c, 9, 42, 106
1, 171840, Note_on_c, 9, 36, 106
1, 171845, Note_on_c, 9, 42, 0
1, 171960, Note_on_c, 9, 42, 106
1, 171965, Note_on_c, 9, 42, 0
1, 172080, Note_on_c, 9, 42, 106
1, 172085, Note_on_c, 9, 42, 0
1, 172200, Note_on_c, 9, 42, 106
1, 172205, Note_on_c, 9, 42, 0
1, 172319, Note_on_c, 9, 36, 0
1, 172320, Note_on_c, 9, 38, 127
1, 172320, Note_on_c, 9, 42, 106
1, 172325, Note_on_c, 9, 42, 0
1, 172439, Note_on_c, 9, 38, 0
1, 172440, Note_on_c, 9, 42, 106
1, 172445, Note_on_c, 9, 42, 0
1, 172560, Note_on_c, 9, 42, 106
1, 172565, Note_on_c, 9, 42, 0
1, 172680, Note_on_c, 9, 42, 106
1, 172685, Note_on_c, 9, 42, 0
1, 172800, Note_on_c, 9, 42, 106
1, 172800, Note_on_c, 9, 49, 106
1, 172800, Note_on_c, 9, 36, 106
1, 172805, Note_on_c, 9, 42, 0
1, 172805, Note_on_c, 9, 49, 0
1, 172920, Note_on_c, 9, 42, 106
1, 172925, Note_on_c, 9, 42, 0
1, 173040, Note_on_c, 9, 42, 106
1, 173045, Note_on_c, 9, 42, 0
1, 173160, Note_on_c, 9, 42, 106
1, 173165, Note_on_c, 9, 42, 0
1, 173279, Note_on_c, 9, 36, 0
1, 173280, Note_on_c, 9, 38, 127
1, 173280, Note_on_c, 9, 42, 106
1, 173285, Note_on_c, 9, 42, 0
1, 173399, Note_on_c, 9, 38, 0
1, 173400, Note_on_c, 9, 42, 106
1, 173405, Note_on_c, 9, 42, 0
1, 173520, Note_on_c, 9, 42, 106
1, 173525, Note_on_c, 9, 42, 0
1, 173640, Note_on_c, 9, 42, 106
1, 173645, Note_on_c, 9, 42, 0
1, 173760, Note_on_c, 9, 42, 106
1, 173760, Note_on_c, 9, 36, 106
1, 173765, Note_on_c, 9, 42, 0
1, 173880, Note_on_c, 9, 42, 106
1, 173885, Note_on_c, 9, 42, 0
1, 174000, Note_on_c, 9, 42, 106
1, 174005, Note_on_c, 9, 42, 0
1, 174120, Note_on_c, 9, 42, 106
1, 174125, Note_on_c, 9, 42, 0
1, 174239, Note_on_c, 9, 36, 0
1, 174240, Note_on_c, 9, 38, 127
1, 174240, Note_on_c, 9, 42, 106
1, 174245, Note_on_c, 9, 42, 0
1, 174359, Note_on_c, 9, 38, 0
1, 174360, Note_on_c, 9, 42, 106
1, 174365, Note_on_c, 9, 42, 0
1, 174480, Note_on_c, 9, 42, 106
1, 174485, Note_on_c, 9, 42, 0
1, 174600, Note_on_c, 9, 38, 106
1, 174600, Note_on_c, 9, 42, 106
1, 174605, Note_on_c, 9, 42, 0
1, 174719, Note_on_c, 9, 38, 0
1, 174720, Note_on_c, 9, 42, 106
1, 174720, Note_on_c, 9, 49, 106
1, 174720, Note_on_c, 9, 36, 106
1, 174725, Note_on_c, 9, 42, 0
1, 174725, Note_on_c, 9, 49, 0
1, 174840, Note_on_c, 9, 42, 106
1, 174845, Note_on_c, 9, 42, 0
1, 174960, Note_on_c, 9, 42, 106
1, 174965, Note_on_c, 9, 42, 0
1, 175080, Note_on_c, 9, 42, 106
1, 175085, Note_on_c, 9, 42, 0
1, 175199, Note_on_c, 9, 36, 0
1, 175200, Note_on_c, 9, 38, 127
1, 175200, Note_on_c, 9, 42, 106
1, 175205, Note_on_c, 9, 42, 0
1, 175319, Note_on_c, 9, 38, 0
1, 175320, Note_on_c, 9, 42, 106
1, 175325, Note_on_c, 9, 42, 0
1, 175440, Note_on_c, 9, 42, 106
1, 175445, Note_on_c, 9, 42, 0
1, 175560, Note_on_c, 9, 42, 106
1, 175565, Note_on_c, 9, 42, 0
1, 175680, Note_on_c, 9, 42, 106
1, 175680, Note_on_c, 9, 36, 106
1, 175685, Note_on_c, 9, 42, 0
1, 175800, Note_on_c, 9, 42, 106
1, 175805, Note_on_c, 9, 42, 0
1, 175920, Note_on_c, 9, 42, 106
1, 175925, Note_on_c, 9, 42, 0
1, 176040, Note_on_c, 9, 42, 106
1, 176045, Note_on_c, 9, 42, 0
1, 176159, Note_on_c, 9, 36, 0
1, 176160, Note_on_c, 9, 38, 127
1, 176160, Note_on_c, 9, 42, 106
1, 176165, Note_on_c, 9, 42, 0
1, 176279, Note_on_c, 9, 38, 0
1, 176280, Note_on_c, 9, 42, 106
1, 176285, Note_on_c, 9, 42, 0
1, 176400, Note_on_c, 9, 42, 106
1, 176405, Note_on_c, 9, 42, 0
1, 176520, Note_on_c, 9, 42, 106
1, 176525, Note_on_c, 9, 42, 0
1, 176640, Note_on_c, 9, 42, 106
1, 176640, Note_on_c, 9, 36, 106
1, 176645, Note_on_c, 9, 42, 0
1, 176760, Note_on_c, 9, 42, 106
1, 176765, Note_on_c, 9, 42, 0
1, 176880, Note_on_c, 9, 42, 106
1, 176885, Note_on_c, 9, 42, 0
1, 177000, Note_on_c, 9, 42, 106
1, 177005, Note_on_c, 9, 42, 0
1, 177119, Note_on_c, 9, 36, 0
1, 177120, Note_on_c, 9, 38, 127
1, 177120, Note_on_c, 9, 42, 106
1, 177125, Note_on_c, 9, 42, 0
1, 177239, Note_on_c, 9, 38, 0
1, 177240, Note_on_c, 9, 42, 106
1, 177245, Note_on_c, 9, 42, 0
1, 177360, Note_on_c, 9, 42, 106
1, 177365, Note_on_c, 9, 42, 0
1, 177480, Note_on_c, 9, 42, 106
1, 177485, Note_on_c, 9, 42, 0
1, 177600, Note_on_c, 9, 42, 106
1, 177600, Note_on_c, 9, 36, 106
1, 177605, Note_on_c, 9, 42, 0
1, 177720, Note_on_c, 9, 42, 106
1, 177725, Note_on_c, 9, 42, 0
1, 177840, Note_on_c, 9, 42, 106
1, 177845, Note_on_c, 9, 42, 0
1, 177960, Note_on_c, 9, 42, 106
1, 177965, Note_on_c, 9, 42, 0
1, 178079, Note_on_c, 9, 36, 0
1, 178080, Note_on_c, 9, 38, 127
1, 178080, Note_on_c, 9, 42, 106
1, 178085, Note_on_c, 9, 42, 0
1, 178199, Note_on_c, 9, 38, 0
1, 178200, Note_on_c, 9, 42, 106
1, 178205, Note_on_c, 9, 42, 0
1, 178320, Note_on_c, 9, 42, 106
1, 178325, Note_on_c, 9, 42, 0
1, 178440, Note_on_c, 9, 42, 106
1, 178445, Note_on_c, 9, 42, 0
1, 178560, Note_on_c, 9, 42, 106
1, 178560, Note_on_c, 9, 36, 106
1, 178565, Note_on_c, 9, 42, 0
1, 178680, Note_on_c, 9, 42, 106
1, 178685, Note_on_c, 9, 42, 0
1, 178800, Note_on_c, 9, 42, 106
1, 178805, Note_on_c, 9, 42, 0
1, 178920, Note_on_c, 9, 42, 106
1, 178925, Note_on_c, 9, 42, 0
1, 179039, Note_on_c, 9, 36, 0
1, 179040, Note_on_c, 9, 38, 127
1, 179040, Note_on_c, 9, 42, 106
1, 179045, Note_on_c, 9, 42, 0
1, 179159, Note_on_c, 9, 38, 0
1, 179160, Note_on_c, 9, 42, 106
1, 179165, Note_on_c, 9, 42, 0
1, 179280, Note_on_c, 9, 42, 106
1, 179285, Note_on_c, 9, 42, 0
1, 179400, Note_on_c, 9, 42, 106
1, 179405, Note_on_c, 9, 42, 0
1, 179520, Note_on_c, 9, 42, 106
1, 179520, Note_on_c, 9, 36, 106
1, 179525, Note_on_c, 9, 42, 0
1, 179640, Note_on_c, 9, 42, 106
1, 179645, Note_on_c, 9, 42, 0
1, 179760, Note_on_c, 9, 42, 106
1, 179765, Note_on_c, 9, 42, 0
1, 179880, Note_on_c, 9, 42, 106
1, 179885, Note_on_c, 9, 42, 0
1, 179999, Note_on_c, 9, 36, 0
1, 180000, Note_on_c, 9, 38, 127
1, 180000, Note_on_c, 9, 42, 106
1, 180005, Note_on_c, 9, 42, 0
1, 180119, Note_on_c, 9, 38, 0
1, 180120, Note_on_c, 9, 42, 106
1, 180125, Note_on_c, 9, 42, 0
1, 180240, Note_on_c, 9, 42, 106
1, 180245, Note_on_c, 9, 42, 0
1, 180360, Note_on_c, 9, 42, 106
1, 180365, Note_on_c, 9, 42, 0
1, 180480, Note_on_c, 9, 42, 106
1, 180480, Note_on_c, 9, 36, 106
1, 180485, Note_on_c, 9, 42, 0
1, 180600, Note_on_c, 9, 42, 106
1, 180605, Note_on_c, 9, 42, 0
1, 180720, Note_on_c, 9, 42, 106
1, 180725, Note_on_c, 9, 42, 0
1, 180840, Note_on_c, 9, 42, 106
1, 180845, Note_on_c, 9, 42, 0
1, 180959, Note_on_c, 9, 36, 0
1, 180960, Note_on_c, 9, 38, 127
1, 180960, Note_on_c, 9, 42, 106
1, 180965, Note_on_c, 9, 42, 0
1, 181079, Note_on_c, 9, 38, 0
1, 181080, Note_on_c, 9, 42, 106
1, 181085, Note_on_c, 9, 42, 0
1, 181200, Note_on_c, 9, 42, 106
1, 181205, Note_on_c, 9, 42, 0
1, 181320, Note_on_c, 9, 42, 106
1, 181325, Note_on_c, 9, 42, 0
1, 181440, Note_on_c, 9, 42, 106
1, 181440, Note_on_c, 9, 36, 106
1, 181445, Note_on_c, 9, 42, 0
1, 181560, Note_on_c, 9, 42, 106
1, 181565, Note_on_c, 9, 42, 0
1, 181680, Note_on_c, 9, 42, 106
1, 181685, Note_on_c, 9, 42, 0
1, 181800, Note_on_c, 9, 42, 106
1, 181805, Note_on_c, 9, 42, 0
1, 181919, Note_on_c, 9, 36, 0
1, 181920, Note_on_c, 9, 38, 127
1, 181920, Note_on_c, 9, 42, 106
1, 181925, Note_on_c, 9, 42, 0
1, 182039, Note_on_c, 9, 38, 0
1, 182040, Note_on_c, 9, 42, 106
1, 182045, Note_on_c, 9, 42, 0
1, 182160, Note_on_c, 9, 42, 106
1, 182165, Note_on_c, 9, 42, 0
1, 182280, Note_on_c, 9, 42, 106
1, 182285, Note_on_c, 9, 42, 0
1, 182400, Note_on_c, 9, 42, 106
1, 182400, Note_on_c, 9, 36, 106
1, 182405, Note_on_c, 9, 42, 0
1, 182520, Note_on_c, 9, 42, 106
1, 182525, Note_on_c, 9, 42, 0
1, 182640, Note_on_c, 9, 42, 106
1, 182645, Note_on_c, 9, 42, 0
1, 182760, Note_on_c, 9, 42, 106
1, 182765, Note_on_c, 9, 42, 0
1, 182879, Note_on_c, 9, 36, 0
1, 182880, Note_on_c, 9, 38, 127
1, 182880, Note_on_c, 9, 42, 106
1, 182885, Note_on_c, 9, 42, 0
1, 182999, Note_on_c, 9, 38, 0
1, 183000, Note_on_c, 9, 42, 106
1, 183005, Note_on_c, 9, 42, 0
1, 183120, Note_on_c, 9, 42, 106
1, 183125, Note_on_c, 9, 42, 0
1, 183240, Note_on_c, 9, 42, 106
1, 183245, Note_on_c, 9, 42, 0
1, 183360, Note_on_c, 9, 42, 106
1, 183360, Note_on_c, 9, 36, 106
1, 183365, Note_on_c, 9, 42, 0
1, 183480, Note_on_c, 9, 42, 106
1, 183485, Note_on_c, 9, 42, 0
1, 183600, Note_on_c, 9, 42, 106
1, 183605, Note_on_c, 9, 42, 0
1, 183720, Note_on_c, 9, 42, 106
1, 183725, Note_on_c, 9, 42, 0
1, 183839, Note_on_c, 9, 36, 0
1, 183840, Note_on_c, 9, 38, 127
1, 183840, Note_on_c, 9, 42, 106
1, 183845, Note_on_c, 9, 42, 0
1, 183959, Note_on_c, 9, 38, 0
1, 183960, Note_on_c, 9, 42, 106
1, 183965, Note_on_c, 9, 42, 0
1, 184080, Note_on_c, 9, 42, 106
1, 184085, Note_on_c, 9, 42, 0
1, 184200, Note_on_c, 9, 42, 106
1, 184205, Note_on_c, 9, 42, 0
1, 184320, Note_on_c, 9, 42, 106
1, 184320, Note_on_c, 9, 36, 106
1, 184325, Note_on_c, 9, 42, 0
1, 184440, Note_on_c, 9, 42, 106
1, 184445, Note_on_c, 9, 42, 0
1, 184560, Note_on_c, 9, 42, 106
1, 184565, Note_on_c, 9, 42, 0
1, 184680, Note_on_c, 9, 42, 106
1, 184685, Note_on_c, 9, 42, 0
1, 184799, Note_on_c, 9, 36, 0
1, 184800, Note_on_c, 9, 38, 127
1, 184800, Note_on_c, 9, 42, 106
1, 184805, Note_on_c, 9, 42, 0
1, 184919, Note_on_c, 9, 38, 0
1, 184920, Note_on_c, 9, 42, 106
1, 184925, Note_on_c, 9, 42, 0
1, 185040, Note_on_c, 9, 42, 106
1, 185045, Note_on_c, 9, 42, 0
1, 185160, Note_on_c, 9, 42, 106
1, 185165, Note_on_c, 9, 42, 0
1, 185280, Note_on_c, 9, 42, 106
1, 185280, Note_on_c, 9, 36, 106
1, 185285, Note_on_c, 9, 42, 0
1, 185400, Note_on_c, 9, 42, 106
1, 185405, Note_on_c, 9, 42, 0
1, 185520, Note_on_c, 9, 42, 106
1, 185525, Note_on_c, 9, 42, 0
1, 185640, Note_on_c, 9, 42, 106
1, 185645, Note_on_c, 9, 42, 0
1, 185759, Note_on_c, 9, 36, 0
1, 185760, Note_on_c, 9, 38, 127
1, 185760, Note_on_c, 9, 42, 106
1, 185765, Note_on_c, 9, 42, 0
1, 185879, Note_on_c, 9, 38, 0
1, 185880, Note_on_c, 9, 42, 106
1, 185885, Note_on_c, 9, 42, 0
1, 186000, Note_on_c, 9, 42, 106
1, 186005, Note_on_c, 9, 42, 0
1, 186120, Note_on_c, 9, 42, 106
1, 186125, Note_on_c, 9, 42, 0
1, 186240, Note_on_c, 9, 42, 106
1, 186240, Note_on_c, 9, 49, 106
1, 186240, Note_on_c, 9, 36, 106
1, 186245, Note_on_c, 9, 42, 0
1, 186245, Note_on_c, 9, 49, 0
1, 186360, Note_on_c, 9, 42, 106
1, 186365, Note_on_c, 9, 42, 0
1, 186480, Note_on_c, 9, 42, 106
1, 186485, Note_on_c, 9, 42, 0
1, 186600, Note_on_c, 9, 42, 106
1, 186605, Note_on_c, 9, 42, 0
1, 186719, Note_on_c, 9, 36, 0
1, 186720, Note_on_c, 9, 38, 127
1, 186720, Note_on_c, 9, 42, 106
1, 186725, Note_on_c, 9, 42, 0
1, 186839, Note_on_c, 9, 38, 0
1, 186840, Note_on_c, 9, 42, 106
1, 186845, Note_on_c, 9, 42, 0
1, 186960, Note_on_c, 9, 42, 106
1, 186965, Note_on_c, 9, 42, 0
1, 187080, Note_on_c, 9, 42, 106
1, 187085, Note_on_c, 9, 42, 0
1, 187200, Note_on_c, 9, 42, 106
1, 187200, Note_on_c, 9, 36, 106
1, 187205, Note_on_c, 9, 42, 0
1, 187320, Note_on_c, 9, 42, 106
1, 187325, Note_on_c, 9, 42, 0
1, 187440, Note_on_c, 9, 42, 106
1, 187445, Note_on_c, 9, 42, 0
1, 187560, Note_on_c, 9, 42, 106
1, 187565, Note_on_c, 9, 42, 0
1, 187679, Note_on_c, 9, 36, 0
1, 187680, Note_on_c, 9, 38, 127
1, 187680, Note_on_c, 9, 42, 106
1, 187685, Note_on_c, 9, 42, 0
1, 187799, Note_on_c, 9, 38, 0
1, 187800, Note_on_c, 9, 42, 106
1, 187805, Note_on_c, 9, 42, 0
1, 187920, Note_on_c, 9, 42, 106
1, 187925, Note_on_c, 9, 42, 0
1, 188040, Note_on_c, 9, 42, 106
1, 188045, Note_on_c, 9, 42, 0
1, 188160, Note_on_c, 9, 42, 106
1, 188160, Note_on_c, 9, 49, 106
1, 188160, Note_on_c, 9, 36, 106
1, 188165, Note_on_c, 9, 42, 0
1, 188165, Note_on_c, 9, 49, 0
1, 188280, Note_on_c, 9, 42, 106
1, 188285, Note_on_c, 9, 42, 0
1, 188400, Note_on_c, 9, 42, 106
1, 188405, Note_on_c, 9, 42, 0
1, 188520, Note_on_c, 9, 42, 106
1, 188525, Note_on_c, 9, 42, 0
1, 188639, Note_on_c, 9, 36, 0
1, 188640, Note_on_c, 9, 38, 127
1, 188640, Note_on_c, 9, 42, 106
1, 188645, Note_on_c, 9, 42, 0
1, 188759, Note_on_c, 9, 38, 0
1, 188760, Note_on_c, 9, 42, 106
1, 188765, Note_on_c, 9, 42, 0
1, 188880, Note_on_c, 9, 42, 106
1, 188885, Note_on_c, 9, 42, 0
1, 189000, Note_on_c, 9, 42, 106
1, 189005, Note_on_c, 9, 42, 0
1, 189120, Note_on_c, 9, 42, 106
1, 189120, Note_on_c, 9, 36, 106
1, 189125, Note_on_c, 9, 42, 0
1, 189240, Note_on_c, 9, 42, 106
1, 189245, Note_on_c, 9, 42, 0
1, 189360, Note_on_c, 9, 42, 106
1, 189365, Note_on_c, 9, 42, 0
1, 189480, Note_on_c, 9, 42, 106
1, 189485, Note_on_c, 9, 42, 0
1, 189599, Note_on_c, 9, 36, 0
1, 189600, Note_on_c, 9, 38, 127
1, 189600, Note_on_c, 9, 42, 106
1, 189605, Note_on_c, 9, 42, 0
1, 189719, Note_on_c, 9, 38, 0
1, 189720, Note_on_c, 9, 42, 106
1, 189725, Note_on_c, 9, 42, 0
1, 189840, Note_on_c, 9, 42, 106
1, 189845, Note_on_c, 9, 42, 0
1, 189960, Note_on_c, 9, 38, 106
1, 189960, Note_on_c, 9, 42, 106
1, 189965, Note_on_c, 9, 42, 0
1, 190079, Note_on_c, 9, 38, 0
1, 190080, Note_on_c, 9, 42, 106
1, 190080, Note_on_c, 9, 49, 106
1, 190080, Note_on_c, 9, 36, 106
1, 190085, Note_on_c, 9, 42, 0
1, 190085, Note_on_c, 9, 49, 0
1, 190200, Note_on_c, 9, 42, 106
1, 190205, Note_on_c, 9, 42, 0
1, 190320, Note_on_c, 9, 42, 106
1, 190325, Note_on_c, 9, 42, 0
1, 190440, Note_on_c, 9, 42, 106
1, 190445, Note_on_c, 9, 42, 0
1, 190559, Note_on_c, 9, 36, 0
1, 190560, Note_on_c, 9, 38, 127
1, 190560, Note_on_c, 9, 42, 106
1, 190565, Note_on_c, 9, 42, 0
1, 190679, Note_on_c, 9, 38, 0
1, 190680, Note_on_c, 9, 42, 106
1, 190685, Note_on_c, 9, 42, 0
1, 190800, Note_on_c, 9, 42, 106
1, 190805, Note_on_c, 9, 42, 0
1, 190920, Note_on_c, 9, 42, 106
1, 190925, Note_on_c, 9, 42, 0
1, 191040, Note_on_c, 9, 42, 106
1, 191040, Note_on_c, 9, 36, 106
1, 191045, Note_on_c, 9, 42, 0
1, 191160, Note_on_c, 9, 42, 106
1, 191165, Note_on_c, 9, 42, 0
1, 191280, Note_on_c, 9, 42, 106
1, 191285, Note_on_c, 9, 42, 0
1, 191400, Note_on_c, 9, 42, 106
1, 191405, Note_on_c, 9, 42, 0
1, 191519, Note_on_c, 9, 36, 0
1, 191520, Note_on_c, 9, 38, 127
1, 191520, Note_on_c, 9, 42, 106
1, 191525, Note_on_c, 9, 42, 0
1, 191639, Note_on_c, 9, 38, 0
1, 191640, Note_on_c, 9, 42, 106
1, 191645, Note_on_c, 9, 42, 0
1, 191760, Note_on_c, 9, 42, 106
1, 191765, Note_on_c, 9, 42, 0
1, 191880, Note_on_c, 9, 42, 106
1, 191885, Note_on_c, 9, 42, 0
1, 192000, Note_on_c, 9, 42, 106
1, 192000, Note_on_c, 9, 36, 106
1, 192005, Note_on_c, 9, 42, 0
1, 192120, Note_on_c, 9, 42, 106
1, 192125, Note_on_c, 9, 42, 0
1, 192240, Note_on_c, 9, 42, 106
1, 192245, Note_on_c, 9, 42, 0
1, 192360, Note_on_c, 9, 42, 106
1, 192365, Note_on_c, 9, 42, 0
1, 192479, Note_on_c, 9, 36, 0
1, 192480, Note_on_c, 9, 38, 127
1, 192480, Note_on_c, 9, 42, 106
1, 192485, Note_on_c, 9, 42, 0
1, 192599, Note_on_c, 9, 38, 0
1, 192600, Note_on_c, 9, 42, 106
1, 192605, Note_on_c, 9, 42, 0
1, 192720, Note_on_c, 9, 42, 106
1, 192725, Note_on_c, 9, 42, 0
1, 192840, Note_on_c, 9, 42, 106
1, 192845, Note_on_c, 9, 42, 0
1, 192960, Note_on_c, 9, 42, 106
1, 192960, Note_on_c, 9, 36, 106
1, 192965, Note_on_c, 9, 42, 0
1, 193080, Note_on_c, 9, 42, 106
1, 193085, Note_on_c, 9, 42, 0
1, 193200, Note_on_c, 9, 42, 106
1, 193205, Note_on_c, 9, 42, 0
1, 193320, Note_on_c, 9, 42, 106
1, 193325, Note_on_c, 9, 42, 0
1, 193439, Note_on_c, 9, 36, 0
1, 193440, Note_on_c, 9, 38, 127
1, 193440, Note_on_c, 9, 42, 106
1, 193445, Note_on_c, 9, 42, 0
1, 193559, Note_on_c, 9, 38, 0
1, 193560, Note_on_c, 9, 42, 106
1, 193565, Note_on_c, 9, 42, 0
1, 193680, Note_on_c, 9, 42, 106
1, 193685, Note_on_c, 9, 42, 0
1, 193800, Note_on_c, 9, 42, 106
1, 193805, Note_on_c, 9, 42, 0
1, 193920, Note_on_c, 9, 42, 106
1, 193920, Note_on_c, 9, 36, 106
1, 193925, Note_on_c, 9, 42, 0
1, 194040, Note_on_c, 9, 42, 106
1, 194045, Note_on_c, 9, 42, 0
1, 194160, Note_on_c, 9, 42, 106
1, 194165, Note_on_c, 9, 42, 0
1, 194280, Note_on_c, 9, 42, 106
1, 194285, Note_on_c, 9, 42, 0
1, 194399, Note_on_c, 9, 36, 0
1, 194400, Note_on_c, 9, 38, 127
1, 194400, Note_on_c, 9, 42, 106
1, 194405, Note_on_c, 9, 42, 0
1, 194519, Note_on_c, 9, 38, 0
1, 194520, Note_on_c, 9, 42, 106
1, 194525, Note_on_c, 9, 42, 0
1, 194640, Note_on_c, 9, 42, 106
1, 194645, Note_on_c, 9, 42, 0
1, 194760, Note_on_c, 9, 42, 106
1, 194765, Note_on_c, 9, 42, 0
1, 194880, Note_on_c, 9, 42, 106
1, 194880, Note_on_c, 9, 36, 106
1, 194885, Note_on_c, 9, 42, 0
1, 195000, Note_on_c, 9, 42, 106
1, 195005, Note_on_c, 9, 42, 0
1, 195120, Note_on_c, 9, 42, 106
1, 195125, Note_on_c, 9, 42, 0
1, 195240, Note_on_c, 9, 42, 106
1, 195245, Note_on_c, 9, 42, 0
1, 195359, Note_on_c, 9, 36, 0
1, 195360, Note_on_c, 9, 38, 127
1, 195360, Note_on_c, 9, 42, 106
1, 195365, Note_on_c, 9, 42, 0
1, 195479, Note_on_c, 9, 38, 0
1, 195480, Note_on_c, 9, 42, 106
1, 195485, Note_on_c, 9, 42, 0
1, 195600, Note_on_c, 9, 42, 106
1, 195605, Note_on_c, 9, 42, 0
1, 195720, Note_on_c, 9, 42, 106
1, 195725, Note_on_c, 9, 42, 0
1, 195840, Note_on_c, 9, 42, 106
1, 195840, Note_on_c, 9, 36, 106
1, 195845, Note_on_c, 9, 42, 0
1, 195960, Note_on_c, 9, 42, 106
1, 195965, Note_on_c, 9, 42, 0
1, 196080, Note_on_c, 9, 42, 106
1, 196085, Note_on_c, 9, 42, 0
1, 196200, Note_on_c, 9, 42, 106
1, 196205, Note_on_c, 9, 42, 0
1, 196319, Note_on_c, 9, 36, 0
1, 196320, Note_on_c, 9, 38, 127
1, 196320, Note_on_c, 9, 42, 106
1, 196325, Note_on_c, 9, 42, 0
1, 196439, Note_on_c, 9, 38, 0
1, 196440, Note_on_c, 9, 42, 106
1, 196445, Note_on_c, 9, 42, 0
1, 196560, Note_on_c, 9, 42, 106
1, 196565, Note_on_c, 9, 42, 0
1, 196680, Note_on_c, 9, 42, 106
1, 196685, Note_on_c, 9, 42, 0
1, 196800, Note_on_c, 9, 42, 106
1, 196800, Note_on_c, 9, 36, 106
1, 196805, Note_on_c, 9, 42, 0
1, 196920, Note_on_c, 9, 42, 106
1, 196925, Note_on_c, 9, 42, 0
1, 197040, Note_on_c, 9, 42, 106
1, 197045, Note_on_c, 9, 42, 0
1, 197160, Note_on_c, 9, 42, 106
1, 197165, Note_on_c, 9, 42, 0
1, 197279, Note_on_c, 9, 36, 0
1, 197280, Note_on_c, 9, 38, 127
1, 197280, Note_on_c, 9, 42, 106
1, 197285, Note_on_c, 9, 42, 0
1, 197399, Note_on_c, 9, 38, 0
1, 197400, Note_on_c, 9, 42, 106
1, 197405, Note_on_c, 9, 42, 0
1, 197520, Note_on_c, 9, 42, 106
1, 197525, Note_on_c, 9, 42, 0
1, 197640, Note_on_c, 9, 42, 106
1, 197645, Note_on_c, 9, 42, 0
1, 197760, Note_on_c, 9, 42, 106
1, 197760, Note_on_c, 9, 36, 106
1, 197765, Note_on_c, 9, 42, 0
1, 197880, Note_on_c, 9, 42, 106
1, 197885, Note_on_c, 9, 42, 0
1, 198000, Note_on_c, 9, 42, 106
1, 198005, Note_on_c, 9, 42, 0
1, 198120, Note_on_c, 9, 42, 106
1, 198125, Note_on_c, 9, 42, 0
1, 198239, Note_on_c, 9, 36, 0
1, 198240, Note_on_c, 9, 38, 127
1, 198240, Note_on_c, 9, 42, 106
1, 198245, Note_on_c, 9, 42, 0
1, 198359, Note_on_c, 9, 38, 0
1, 198360, Note_on_c, 9, 42, 106
1, 198365, Note_on_c, 9, 42, 0
1, 198480, Note_on_c, 9, 42, 106
1, 198485, Note_on_c, 9, 42, 0
1, 198600, Note_on_c, 9, 42, 106
1, 198605, Note_on_c, 9, 42, 0
1, 198720, Note_on_c, 9, 42, 106
1, 198720, Note_on_c, 9, 36, 106
1, 198725, Note_on_c, 9, 42, 0
1, 198840, Note_on_c, 9, 42, 106
1, 198845, Note_on_c, 9, 42, 0
1, 198960, Note_on_c, 9, 42, 106
1, 198965, Note_on_c, 9, 42, 0
1, 199080, Note_on_c, 9, 42, 106
1, 199085, Note_on_c, 9, 42, 0
1, 199199, Note_on_c, 9, 36, 0
1, 199200, Note_on_c, 9, 38, 127
1, 199200, Note_on_c, 9, 42, 106
1, 199205, Note_on_c, 9, 42, 0
1, 199319, Note_on_c, 9, 38, 0
1, 199320, Note_on_c, 9, 42, 106
1, 199325, Note_on_c, 9, 42, 0
1, 199440, Note_on_c, 9, 42, 106
1, 199445, Note_on_c, 9, 42, 0
1, 199560, Note_on_c, 9, 42, 106
1, 199565, Note_on_c, 9, 42, 0
1, 199680, Note_on_c, 9, 42, 106
1, 199680, Note_on_c, 9, 36, 106
1, 199685, Note_on_c, 9, 42, 0
1, 199800, Note_on_c, 9, 42, 106
1, 199805, Note_on_c, 9, 42, 0
1, 199920, Note_on_c, 9, 42, 106
1, 199925, Note_on_c, 9, 42, 0
1, 200040, Note_on_c, 9, 42, 106
1, 200045, Note_on_c, 9, 42, 0
1, 200159, Note_on_c, 9, 36, 0
1, 200160, Note_on_c, 9, 38, 127
1, 200160, Note_on_c, 9, 42, 106
1, 200165, Note_on_c, 9, 42, 0
1, 200279, Note_on_c, 9, 38, 0
1, 200280, Note_on_c, 9, 42, 106
1, 200285, Note_on_c, 9, 42, 0
1, 200400, Note_on_c, 9, 42, 106
1, 200405, Note_on_c, 9, 42, 0
1, 200520, Note_on_c, 9, 42, 106
1, 200525, Note_on_c, 9, 42, 0
1, 200640, Note_on_c, 9, 42, 106
1, 200640, Note_on_c, 9, 36, 106
1, 200645, Note_on_c, 9, 42, 0
1, 200760, Note_on_c, 9, 42, 106
1, 200765, Note_on_c, 9, 42, 0
1, 200880, Note_on_c, 9, 42, 106
1, 200885, Note_on_c, 9, 42, 0
1, 201000, Note_on_c, 9, 42, 106
1, 201005, Note_on_c, 9, 42, 0
1, 201119, Note_on_c, 9, 36, 0
1, 201120, Note_on_c, 9, 38, 127
1, 201120, Note_on_c, 9, 42, 106
1, 201125, Note_on_c, 9, 42, 0
1, 201239, Note_on_c, 9, 38, 0
1, 201240, Note_on_c, 9, 42, 106
1, 201245, Note_on_c, 9, 42, 0
1, 201360, Note_on_c, 9, 42, 106
1, 201365, Note_on_c, 9, 42, 0
1, 201480, Note_on_c, 9, 42, 106
1, 201485, Note_on_c, 9, 42, 0
1, 201600, Note_on_c, 9, 42, 106
1, 201600, Note_on_c, 9, 49, 106
1, 201600, Note_on_c, 9, 36, 106
1, 201605, Note_on_c, 9, 42, 0
1, 201605, Note_on_c, 9, 49, 0
1, 201720, Note_on_c, 9, 42, 106
1, 201725, Note_on_c, 9, 42, 0
1, 201840, Note_on_c, 9, 42, 106
1, 201845, Note_on_c, 9, 42, 0
1, 201960, Note_on_c, 9, 42, 106
1, 201965, Note_on_c, 9, 42, 0
1, 202079, Note_on_c, 9, 36, 0
1, 202080, Note_on_c, 9, 38, 127
1, 202080, Note_on_c, 9, 42, 106
1, 202085, Note_on_c, 9, 42, 0
1, 202199, Note_on_c, 9, 38, 0
1, 202200, Note_on_c, 9, 42, 106
1, 202205, Note_on_c, 9, 42, 0
1, 202320, Note_on_c, 9, 42, 106
1, 202325, Note_on_c, 9, 42, 0
1, 202440, Note_on_c, 9, 42, 106
1, 202445, Note_on_c, 9, 42, 0
1, 202560, Note_on_c, 9, 42, 106
1, 202560, Note_on_c, 9, 36, 106
1, 202565, Note_on_c, 9, 42, 0
1, 202680, Note_on_c, 9, 42, 106
1, 202685, Note_on_c, 9, 42, 0
1, 202800, Note_on_c, 9, 42, 106
1, 202805, Note_on_c, 9, 42, 0
1, 202920, Note_on_c, 9, 42, 106
1, 202925, Note_on_c, 9, 42, 0
1, 203039, Note_on_c, 9, 36, 0
1, 203040, Note_on_c, 9, 38, 127
1, 203040, Note_on_c, 9, 42, 106
1, 203045, Note_on_c, 9, 42, 0
1, 203159, Note_on_c, 9, 38, 0
1, 203160, Note_on_c, 9, 42, 106
1, 203165, Note_on_c, 9, 42, 0
1, 203280, Note_on_c, 9, 42, 106
1, 203285, Note_on_c, 9, 42, 0
1, 203400, Note_on_c, 9, 42, 106
1, 203405, Note_on_c, 9, 42, 0
1, 203520, Note_on_c, 9, 42, 106
1, 203520, Note_on_c, 9, 49, 106
1, 203520, Note_on_c, 9, 36, 106
1, 203525, Note_on_c, 9, 42, 0
1, 203525, Note_on_c, 9, 49, 0
1, 203640, Note_on_c, 9, 42, 106
1, 203645, Note_on_c, 9, 42, 0
1, 203760, Note_on_c, 9, 42, 106
1, 203765, Note_on_c, 9, 42, 0
1, 203880, Note_on_c, 9, 42, 106
1, 203885, Note_on_c, 9, 42, 0
1, 203999, Note_on_c, 9, 36, 0
1, 204000, Note_on_c, 9, 38, 127
1, 204000, Note_on_c, 9, 42, 106
1, 204005, Note_on_c, 9, 42, 0
1, 204119, Note_on_c, 9, 38, 0
1, 204120, Note_on_c, 9, 42, 106
1, 204125, Note_on_c, 9, 42, 0
1, 204240, Note_on_c, 9, 42, 106
1, 204245, Note_on_c, 9, 42, 0
1, 204360, Note_on_c, 9, 42, 106
1, 204365, Note_on_c, 9, 42, 0
1, 204480, Note_on_c, 9, 42, 106
1, 204480, Note_on_c, 9, 36, 106
1, 204485, Note_on_c, 9, 42, 0
1, 204600, Note_on_c, 9, 42, 106
1, 204605, Note_on_c, 9, 42, 0
1, 204720, Note_on_c, 9, 42, 106
1, 204725, Note_on_c, 9, 42, 0
1, 204840, Note_on_c, 9, 42, 106
1, 204845, Note_on_c, 9, 42, 0
1, 204959, Note_on_c, 9, 36, 0
1, 204960, Note_on_c, 9, 38, 127
1, 204960, Note_on_c, 9, 42, 106
1, 204965, Note_on_c, 9, 42, 0
1, 205079, Note_on_c, 9, 38, 0
1, 205080, Note_on_c, 9, 42, 106
1, 205085, Note_on_c, 9, 42, 0
1, 205200, Note_on_c, 9, 42, 106
1, 205205, Note_on_c, 9, 42, 0
1, 205320, Note_on_c, 9, 38, 106
1, 205320, Note_on_c, 9, 42, 106
1, 205325, Note_on_c, 9, 42, 0
1, 205439, Note_on_c, 9, 38, 0
1, 205440, Note_on_c, 9, 42, 106
1, 205440, Note_on_c, 9, 49, 106
1, 205440, Note_on_c, 9, 36, 106
1, 205445, Note_on_c, 9, 42, 0
1, 205445, Note_on_c, 9, 49, 0
1, 205560, Note_on_c, 9, 42, 106
1, 205565, Note_on_c, 9, 42, 0
1, 205680, Note_on_c, 9, 42, 106
1, 205685, Note_on_c, 9, 42, 0
1, 205800, Note_on_c, 9, 42, 106
1, 205805, Note_on_c, 9, 42, 0
1, 205919, Note_on_c, 9, 36, 0
1, 205920, Note_on_c, 9, 38, 127
1, 205920, Note_on_c, 9, 42, 106
1, 205925, Note_on_c, 9, 42, 0
1, 206039, Note_on_c, 9, 38, 0
1, 206040, Note_on_c, 9, 42, 106
1, 206045, Note_on_c, 9, 42, 0
1, 206160, Note_on_c, 9, 42, 106
1, 206165, Note_on_c, 9, 42, 0
1, 206280, Note_on_c, 9, 42, 106
1, 206285, Note_on_c, 9, 42, 0
1, 206400, Note_on_c, 9, 42, 106
1, 206400, Note_on_c, 9, 36, 106
1, 206405, Note_on_c, 9, 42, 0
1, 206520, Note_on_c, 9, 42, 106
1, 206525, Note_on_c, 9, 42, 0
1, 206640, Note_on_c, 9, 42, 106
1, 206645, Note_on_c, 9, 42, 0
1, 206760, Note_on_c, 9, 42, 106
1, 206765, Note_on_c, 9, 42, 0
1, 206879, Note_on_c, 9, 36, 0
1, 206880, Note_on_c, 9, 38, 127
1, 206880, Note_on_c, 9, 42, 106
1, 206885, Note_on_c, 9, 42, 0
1, 206999, Note_on_c, 9, 38, 0
1, 207000, Note_on_c, 9, 42, 106
1, 207005, Note_on_c, 9, 42, 0
1, 207120, Note_on_c, 9, 42, 106
1, 207125, Note_on_c, 9, 42, 0
1, 207240, Note_on_c, 9, 42, 106
1, 207245, Note_on_c, 9, 42, 0
1, 207360, Note_on_c, 9, 42, 106
1, 207360, Note_on_c, 9, 36, 106
1, 207365, Note_on_c, 9, 42, 0
1, 207480, Note_on_c, 9, 42, 106
1, 207485, Note_on_c, 9, 42, 0
1, 207600, Note_on_c, 9, 42, 106
1, 207605, Note_on_c, 9, 42, 0
1, 207720, Note_on_c, 9, 42, 106
1, 207725, Note_on_c, 9, 42, 0
1, 207839, Note_on_c, 9, 36, 0
1, 207840, Note_on_c, 9, 38, 127
1, 207840, Note_on_c, 9, 42, 106
1, 207845, Note_on_c, 9, 42, 0
1, 207959, Note_on_c, 9, 38, 0
1, 207960, Note_on_c, 9, 42, 106
1, 207965, Note_on_c, 9, 42, 0
1, 208080, Note_on_c, 9, 42, 106
1, 208085, Note_on_c, 9, 42, 0
1, 208200, Note_on_c, 9, 42, 106
1, 208205, Note_on_c, 9, 42, 0
1, 208320, Note_on_c, 9, 42, 106
1, 208320, Note_on_c, 9, 36, 106
1, 208325, Note_on_c, 9, 42, 0
1, 208440, Note_on_c, 9, 42, 106
1, 208445, Note_on_c, 9, 42, 0
1, 208560, Note_on_c, 9, 42, 106
1, 208565, Note_on_c, 9, 42, 0
1, 208680, Note_on_c, 9, 42, 106
1, 208685, Note_on_c, 9, 42, 0
1, 208799, Note_on_c, 9, 36, 0
1, 208800, Note_on_c, 9, 38, 127
1, 208800, Note_on_c, 9, 42, 106
1, 208805, Note_on_c, 9, 42, 0
1, 208919, Note_on_c, 9, 38, 0
1, 208920, Note_on_c, 9, 42, 106
1, 208925, Note_on_c, 9, 42, 0
1, 209040, Note_on_c, 9, 42, 106
1, 209045, Note_on_c, 9, 42, 0
1, 209160, Note_on_c, 9, 42, 106
1, 209165, Note_on_c, 9, 42, 0
1, 209280, Note_on_c, 9, 42, 106
1, 209280, Note_on_c, 9, 36, 106
1, 209285, Note_on_c, 9, 42, 0
1, 209400, Note_on_c, 9, 42, 106
1, 209405, Note_on_c, 9, 42, 0
1, 209520, Note_on_c, 9, 42, 106
1, 209525, Note_on_c, 9, 42, 0
1, 209640, Note_on_c, 9, 42, 106
1, 209645, Note_on_c, 9, 42, 0
1, 209759, Note_on_c, 9, 36, 0
1, 209760, Note_on_c, 9, 38, 127
1, 209760, Note_on_c, 9, 42, 106
1, 209765, Note_on_c, 9, 42, 0
1, 209879, Note_on_c, 9, 38, 0
1, 209880, Note_on_c, 9, 42, 106
1, 209885, Note_on_c, 9, 42, 0
1, 210000, Note_on_c, 9, 42, 106
1, 210005, Note_on_c, 9, 42, 0
1, 210120, Note_on_c, 9, 42, 106
1, 210125, Note_on_c, 9, 42, 0
1, 210240, Note_on_c, 9, 42, 106
1, 210240, Note_on_c, 9, 36, 106
1, 210245, Note_on_c, 9, 42, 0
1, 210360, Note_on_c, 9, 42, 106
1, 210365, Note_on_c, 9, 42, 0
1, 210480, Note_on_c, 9, 42, 106
1, 210485, Note_on_c, 9, 42, 0
1, 210600, Note_on_c, 9, 42, 106
1, 210605, Note_on_c, 9, 42, 0
1, 210719, Note_on_c, 9, 36, 0
1, 210720, Note_on_c, 9, 38, 127
1, 210720, Note_on_c, 9, 42, 106
1, 210725, Note_on_c, 9, 42, 0
1, 210839, Note_on_c, 9, 38, 0
1, 210840, Note_on_c, 9, 42, 106
1, 210845, Note_on_c, 9, 42, 0
1, 210960, Note_on_c, 9, 42, 106
1, 210965, Note_on_c, 9, 42, 0
1, 211080, Note_on_c, 9, 42, 106
1, 211085, Note_on_c, 9, 42, 0
1, 211200, Note_on_c, 9, 42, 106
1, 211200, Note_on_c, 9, 36, 106
1, 211205, Note_on_c, 9, 42, 0
1, 211320, Note_on_c, 9, 42, 106
1, 211325, Note_on_c, 9, 42, 0
1, 211440, Note_on_c, 9, 42, 106
1, 211445, Note_on_c, 9, 42, 0
1, 211560, Note_on_c, 9, 42, 106
1, 211565, Note_on_c, 9, 42, 0
1, 211679, Note_on_c, 9, 36, 0
1, 211680, Note_on_c, 9, 38, 127
1, 211680, Note_on_c, 9, 42, 106
1, 211685, Note_on_c, 9, 42, 0
1, 211799, Note_on_c, 9, 38, 0
1, 211800, Note_on_c, 9, 42, 106
1, 211805, Note_on_c, 9, 42, 0
1, 211920, Note_on_c, 9, 42, 106
1, 211925, Note_on_c, 9, 42, 0
1, 212040, Note_on_c, 9, 42, 106
1, 212045, Note_on_c, 9, 42, 0
1, 212160, Note_on_c, 9, 42, 106
1, 212160, Note_on_c, 9, 36, 106
1, 212165, Note_on_c, 9, 42, 0
1, 212280, Note_on_c, 9, 42, 106
1, 212285, Note_on_c, 9, 42, 0
1, 212400, Note_on_c, 9, 42, 106
1, 212405, Note_on_c, 9, 42, 0
1, 212520, Note_on_c, 9, 42, 106
1, 212525, Note_on_c, 9, 42, 0
1, 212639, Note_on_c, 9, 36, 0
1, 212640, Note_on_c, 9, 38, 127
1, 212640, Note_on_c, 9, 42, 106
1, 212645, Note_on_c, 9, 42, 0
1, 212759, Note_on_c, 9, 38, 0
1, 212760, Note_on_c, 9, 42, 106
1, 212765, Note_on_c, 9, 42, 0
1, 212880, Note_on_c, 9, 42, 106
1, 212885, Note_on_c, 9, 42, 0
1, 213000, Note_on_c, 9, 42, 106
1, 213005, Note_on_c, 9, 42, 0
1, 213120, Note_on_c, 9, 42, 106
1, 213120, Note_on_c, 9, 36, 106
1, 213125, Note_on_c, 9, 42, 0
1, 213240, Note_on_c, 9, 42, 106
1, 213245, Note_on_c, 9, 42, 0
1, 213360, Note_on_c, 9, 42, 106
1, 213365, Note_on_c, 9, 42, 0
1, 213480, Note_on_c, 9, 42, 106
1, 213485, Note_on_c, 9, 42, 0
1, 213599, Note_on_c, 9, 36, 0
1, 213600, Note_on_c, 9, 38, 127
1, 213600, Note_on_c, 9, 42, 106
1, 213605, Note_on_c, 9, 42, 0
1, 213719, Note_on_c, 9, 38, 0
1, 213720, Note_on_c, 9, 42, 106
1, 213725, Note_on_c, 9, 42, 0
1, 213840, Note_on_c, 9, 42, 106
1, 213845, Note_on_c, 9, 42, 0
1, 213960, Note_on_c, 9, 42, 106
1, 213965, Note_on_c, 9, 42, 0
1, 214080, Note_on_c, 9, 42, 106
1, 214080, Note_on_c, 9, 36, 106
1, 214085, Note_on_c, 9, 42, 0
1, 214200, Note_on_c, 9, 42, 106
1, 214205, Note_on_c, 9, 42, 0
1, 214320, Note_on_c, 9, 42, 106
1, 214325, Note_on_c, 9, 42, 0
1, 214440, Note_on_c, 9, 42, 106
1, 214445, Note_on_c, 9, 42, 0
1, 214559, Note_on_c, 9, 36, 0
1, 214560, Note_on_c, 9, 38, 127
1, 214560, Note_on_c, 9, 42, 106
1, 214565, Note_on_c, 9, 42, 0
1, 214679, Note_on_c, 9, 38, 0
1, 214680, Note_on_c, 9, 42, 106
1, 214685, Note_on_c, 9, 42, 0
1, 214800, Note_on_c, 9, 42, 106
1, 214805, Note_on_c, 9, 42, 0
1, 214920, Note_on_c, 9, 42, 106
1, 214925, Note_on_c, 9, 42, 0
1, 215040, Note_on_c, 9, 42, 106
1, 215040, Note_on_c, 9, 36, 106
1, 215045, Note_on_c, 9, 42, 0
1, 215160, Note_on_c, 9, 42, 106
1, 215165, Note_on_c, 9, 42, 0
1, 215280, Note_on_c, 9, 42, 106
1, 215285, Note_on_c, 9, 42, 0
1, 215400, Note_on_c, 9, 42, 106
1, 215405, Note_on_c, 9, 42, 0
1, 215519, Note_on_c, 9, 36, 0
1, 215520, Note_on_c, 9, 38, 127
1, 215520, Note_on_c, 9, 42, 106
1, 215525, Note_on_c, 9, 42, 0
1, 215639, Note_on_c, 9, 38, 0
1, 215640, Note_on_c, 9, 42, 106
1, 215645, Note_on_c, 9, 42, 0
1, 215760, Note_on_c, 9, 42, 106
1, 215765, Note_on_c, 9, 42, 0
1, 215880, Note_on_c, 9, 42, 106
1, 215885, Note_on_c, 9, 42, 0
1, 216000, Note_on_c, 9, 42, 106
1, 216000, Note_on_c, 9, 36, 106
1, 216005, Note_on_c, 9, 42, 0
1, 216120, Note_on_c, 9, 42, 106
1, 216125, Note_on_c, 9, 42, 0
1, 216240, Note_on_c, 9, 42, 106
1, 216245, Note_on_c, 9, 42, 0
1, 216360, Note_on_c, 9, 42, 106
1, 216365, Note_on_c, 9, 42, 0
1, 216479, Note_on_c, 9, 36, 0
1, 216480, Note_on_c, 9, 38, 127
1, 216480, Note_on_c, 9, 42, 106
1, 216485, Note_on_c, 9, 42, 0
1, 216599, Note_on_c, 9, 38, 0
1, 216600, Note_on_c, 9, 42, 106
1, 216605, Note_on_c, 9, 42, 0
1, 216720, Note_on_c, 9, 42, 106
1, 216725, Note_on_c, 9, 42, 0
1, 216840, Note_on_c, 9, 42, 106
1, 216845, Note_on_c, 9, 42, 0
1, 216960, Note_on_c, 9, 42, 106
1, 216960, Note_on_c, 9, 49, 106
1, 216960, Note_on_c, 9, 36, 106
1, 216965, Note_on_c, 9, 42, 0
1, 216965, Note_on_c, 9, 49, 0
1, 217080, Note_on_c, 9, 42, 106
1, 217085, Note_on_c, 9, 42, 0
1, 217200, Note_on_c, 9, 42, 106
1, 217205, Note_on_c, 9, 42, 0
1, 217320, Note_on_c, 9, 42, 106
1, 217325, Note_on_c, 9, 42, 0
1, 217439, Note_on_c, 9, 36, 0
1, 217440, Note_on_c, 9, 38, 127
1, 217440, Note_on_c, 9, 42, 106
1, 217445, Note_on_c, 9, 42, 0
1, 217559, Note_on_c, 9, 38, 0
1, 217560, Note_on_c, 9, 42, 106
1, 217565, Note_on_c, 9, 42, 0
1, 217680, Note_on_c, 9, 42, 106
1, 217685, Note_on_c, 9, 42, 0
1, 217800, Note_on_c, 9, 42, 106
1, 217805, Note_on_c, 9, 42, 0
1, 217920, Note_on_c, 9, 42, 106
1, 217920, Note_on_c, 9, 36, 106
1, 217925, Note_on_c, 9, 42, 0
1, 218040, Note_on_c, 9, 42, 106
1, 218045, Note_on_c, 9, 42, 0
1, 218160, Note_on_c, 9, 42, 106
1, 218165, Note_on_c, 9, 42, 0
1, 218280, Note_on_c, 9, 42, 106
1, 218285, Note_on_c, 9, 42, 0
1, 218399, Note_on_c, 9, 36, 0
1, 218400, Note_on_c, 9, 38, 127
1, 218400, Note_on_c, 9, 42, 106
1, 218405, Note_on_c, 9, 42, 0
1, 218519, Note_on_c, 9, 38, 0
1, 218520, Note_on_c, 9, 42, 106
1, 218525, Note_on_c, 9, 42, 0
1, 218640, Note_on_c, 9, 42, 106
1, 218645, Note_on_c, 9, 42, 0
1, 218760, Note_on_c, 9, 42, 106
1, 218765, Note_on_c, 9, 42, 0
1, 218880, Note_on_c, 9, 42, 106
1, 218880, Note_on_c, 9, 49, 106
1, 218880, Note_on_c, 9, 36, 106
1, 218885, Note_on_c, 9, 42, 0
1, 218885, Note_on_c, 9, 49, 0
1, 219000, Note_on_c, 9, 42, 106
1, 219005, Note_on_c, 9, 42, 0
1, 219120, Note_on_c, 9, 42, 106
1, 219125, Note_on_c, 9, 42, 0
1, 219240, Note_on_c, 9, 42, 106
1, 219245, Note_on_c, 9, 42, 0
1, 219359, Note_on_c, 9, 36, 0
1, 219360, Note_on_c, 9, 38, 127
1, 219360, Note_on_c, 9, 42, 106
1, 219365, Note_on_c, 9, 42, 0
1, 219479, Note_on_c, 9, 38, 0
1, 219480, Note_on_c, 9, 42, 106
1, 219485, Note_on_c, 9, 42, 0
1, 219600, Note_on_c, 9, 42, 106
1, 219605, Note_on_c, 9, 42, 0
1, 219720, Note_on_c, 9, 42, 106
1, 219725, Note_on_c, 9, 42, 0
1, 219840, Note_on_c, 9, 42, 106
1, 219840, Note_on_c, 9, 49, 106
1, 219840, Note_on_c, 9, 36, 106
1, 219845, Note_on_c, 9, 42, 0
1, 219845, Note_on_c, 9, 49, 0
1, 219960, Note_on_c, 9, 42, 106
1, 219965, Note_on_c, 9, 42, 0
1, 220080, Note_on_c, 9, 42, 106
1, 220085, Note_on_c, 9, 42, 0
1, 220200, Note_on_c, 9, 42, 106
1, 220205, Note_on_c, 9, 42, 0
1, 220319, Note_on_c, 9, 36, 0
1, 220320, Note_on_c, 9, 38, 127
1, 220320, Note_on_c, 9, 42, 106
1, 220325, Note_on_c, 9, 42, 0
1, 220439, Note_on_c, 9, 38, 0
1, 220440, Note_on_c, 9, 42, 106
1, 220445, Note_on_c, 9, 42, 0
1, 220560, Note_on_c, 9, 42, 106
1, 220565, Note_on_c, 9, 42, 0
1, 220680, Note_on_c, 9, 38, 106
1, 220680, Note_on_c, 9, 42, 106
1, 220685, Note_on_c, 9, 42, 0
1, 220799, Note_on_c, 9, 38, 0
1, 220800, Note_on_c, 9, 42, 106
1, 220800, Note_on_c, 9, 49, 106
1, 220800, Note_on_c, 9, 36, 106
1, 220805, Note_on_c, 9, 42, 0
1, 220805, Note_on_c, 9, 49, 0
1, 220920, Note_on_c, 9, 42, 106
1, 220925, Note_on_c, 9, 42, 0
1, 221040, Note_on_c, 9, 42, 106
1, 221045, Note_on_c, 9, 42, 0
1, 221160, Note_on_c, 9, 42, 106
1, 221165, Note_on_c, 9, 42, 0
1, 221279, Note_on_c, 9, 36, 0
1, 221280, Note_on_c, 9, 38, 127
1, 221280, Note_on_c, 9, 42, 106
1, 221285, Note_on_c, 9, 42, 0
1, 221399, Note_on_c, 9, 38, 0
1, 221400, Note_on_c, 9, 42, 106
1, 221405, Note_on_c, 9, 42, 0
1, 221520, Note_on_c, 9, 42, 106
1, 221525, Note_on_c, 9, 42, 0
1, 221640, Note_on_c, 9, 42, 106
1, 221645, Note_on_c, 9, 42, 0
1, 221760, Note_on_c, 9, 42, 106
1, 221760, Note_on_c, 9, 36, 106
1, 221765, Note_on_c, 9, 42, 0
1, 221880, Note_on_c, 9, 42, 106
1, 221885, Note_on_c, 9, 42, 0
1, 222000, Note_on_c, 9, 42, 106
1, 222005, Note_on_c, 9, 42, 0
1, 222120, Note_on_c, 9, 42, 106
1, 222125, Note_on_c, 9, 42, 0
1, 222239, Note_on_c, 9, 36, 0
1, 222240, Note_on_c, 9, 38, 127
1, 222240, Note_on_c, 9, 42, 106
1, 222245, Note_on_c, 9, 42, 0
1, 222359, Note_on_c, 9, 38, 0
1, 222360, Note_on_c, 9, 42, 106
1, 222365, Note_on_c, 9, 42, 0
1, 222480, Note_on_c, 9, 42, 106
1, 222485, Note_on_c, 9, 42, 0
1, 222600, Note_on_c, 9, 42, 106
1, 222605, Note_on_c, 9, 42, 0
1, 222720, Note_on_c, 9, 42, 106
1, 222720, Note_on_c, 9, 36, 106
1, 222725, Note_on_c, 9, 42, 0
1, 222840, Note_on_c, 9, 42, 106
1, 222845, Note_on_c, 9, 42, 0
1, 222960, Note_on_c, 9, 42, 106
1, 222965, Note_on_c, 9, 42, 0
1, 223080, Note_on_c, 9, 42, 106
1, 223085, Note_on_c, 9, 42, 0
1, 223199, Note_on_c, 9, 36, 0
1, 223200, Note_on_c, 9, 38, 127
1, 223200, Note_on_c, 9, 42, 106
1, 223205, Note_on_c, 9, 42, 0
1, 223319, Note_on_c, 9, 38, 0
1, 223320, Note_on_c, 9, 42, 106
1, 223325, Note_on_c, 9, 42, 0
1, 223440, Note_on_c, 9, 42, 106
1, 223445, Note_on_c, 9, 42, 0
1, 223560, Note_on_c, 9, 42, 106
1, 223565, Note_on_c, 9, 42, 0
1, 223680, Note_on_c, 9, 42, 106
1, 223680, Note_on_c, 9, 36, 106
1, 223685, Note_on_c, 9, 42, 0
1, 223800, Note_on_c, 9, 42, 106
1, 223805, Note_on_c, 9, 42, 0
1, 223920, Note_on_c, 9, 42, 106
1, 223925, Note_on_c, 9, 42, 0
1, 224040, Note_on_c, 9, 42, 106
1, 224045, Note_on_c, 9, 42, 0
1, 224159, Note_on_c, 9, 36, 0
1, 224160, Note_on_c, 9, 38, 127
1, 224160, Note_on_c, 9, 42, 106
1, 224165, Note_on_c, 9, 42, 0
1, 224279, Note_on_c, 9, 38, 0
1, 224280, Note_on_c, 9, 42, 106
1, 224285, Note_on_c, 9, 42, 0
1, 224400, Note_on_c, 9, 42, 106
1, 224405, Note_on_c, 9, 42, 0
1, 224520, Note_on_c, 9, 38, 106
1, 224520, Note_on_c, 9, 42, 106
1, 224525, Note_on_c, 9, 42, 0
1, 224639, Note_on_c, 9, 38, 0
1, 224640, Note_on_c, 9, 42, 106
1, 224640, Note_on_c, 9, 49, 106
1, 224640, Note_on_c, 9, 36, 106
1, 224645, Note_on_c, 9, 42, 0
1, 224645, Note_on_c, 9, 49, 0
1, 224760, Note_on_c, 9, 42, 106
1, 224765, Note_on_c, 9, 42, 0
1, 224880, Note_on_c, 9, 42, 106
1, 224885, Note_on_c, 9, 42, 0
1, 225000, Note_on_c, 9, 42, 106
1, 225005, Note_on_c, 9, 42, 0
1, 225119, Note_on_c, 9, 36, 0
1, 225120, Note_on_c, 9, 38, 127
1, 225120, Note_on_c, 9, 42, 106
1, 225125, Note_on_c, 9, 42, 0
1, 225239, Note_on_c, 9, 38, 0
1, 225240, Note_on_c, 9, 42, 106
1, 225245, Note_on_c, 9, 42, 0
1, 225360, Note_on_c, 9, 42, 106
1, 225365, Note_on_c, 9, 42, 0
1, 225480, Note_on_c, 9, 42, 106
1, 225485, Note_on_c, 9, 42, 0
1, 225600, Note_on_c, 9, 42, 106
1, 225600, Note_on_c, 9, 36, 106
1, 225605, Note_on_c, 9, 42, 0
1, 225720, Note_on_c, 9, 42, 106
1, 225725, Note_on_c, 9, 42, 0
1, 225840, Note_on_c, 9, 42, 106
1, 225845, Note_on_c, 9, 42, 0
1, 225960, Note_on_c, 9, 42, 106
1, 225965, Note_on_c, 9, 42, 0
1, 226079, Note_on_c, 9, 36, 0
1, 226080, Note_on_c, 9, 38, 127
1, 226080, Note_on_c, 9, 42, 106
1, 226085, Note_on_c, 9, 42, 0
1, 226199, Note_on_c, 9, 38, 0
1, 226200, Note_on_c, 9, 42, 106
1, 226205, Note_on_c, 9, 42, 0
1, 226320, Note_on_c, 9, 42, 106
1, 226325, Note_on_c, 9, 42, 0
1, 226440, Note_on_c, 9, 42, 106
1, 226445, Note_on_c, 9, 42, 0
1, 226560, Note_on_c, 9, 42, 106
1, 226560, Note_on_c, 9, 36, 106
1, 226565, Note_on_c, 9, 42, 0
1, 226680, Note_on_c, 9, 42, 106
1, 226685, Note_on_c, 9, 42, 0
1, 226800, Note_on_c, 9, 42, 106
1, 226805, Note_on_c, 9, 42, 0
1, 226920, Note_on_c, 9, 42, 106
1, 226925, Note_on_c, 9, 42, 0
1, 227039, Note_on_c, 9, 36, 0
1, 227040, Note_on_c, 9, 38, 127
1, 227040, Note_on_c, 9, 42, 106
1, 227045, Note_on_c, 9, 42, 0
1, 227159, Note_on_c, 9, 38, 0
1, 227160, Note_on_c, 9, 42, 106
1, 227165, Note_on_c, 9, 42, 0
1, 227280, Note_on_c, 9, 42, 106
1, 227285, Note_on_c, 9, 42, 0
1, 227400, Note_on_c, 9, 42, 106
1, 227405, Note_on_c, 9, 42, 0
1, 227520, Note_on_c, 9, 42, 106
1, 227520, Note_on_c, 9, 36, 106
1, 227525, Note_on_c, 9, 42, 0
1, 227640, Note_on_c, 9, 42, 106
1, 227645, Note_on_c, 9, 42, 0
1, 227760, Note_on_c, 9, 42, 106
1, 227765, Note_on_c, 9, 42, 0
1, 227880, Note_on_c, 9, 42, 106
1, 227885, Note_on_c, 9, 42, 0
1, 227999, Note_on_c, 9, 36, 0
1, 228000, Note_on_c, 9, 38, 127
1, 228000, Note_on_c, 9, 42, 106
1, 228005, Note_on_c, 9, 42, 0
1, 228119, Note_on_c, 9, 38, 0
1, 228120, Note_on_c, 9, 42, 106
1, 228125, Note_on_c, 9, 42, 0
1, 228240, Note_on_c, 9, 42, 106
1, 228245, Note_on_c, 9, 42, 0
1, 228360, Note_on_c, 9, 38, 106
1, 228360, Note_on_c, 9, 42, 106
1, 228365, Note_on_c, 9, 42, 0
1, 228479, Note_on_c, 9, 38, 0
1, 228480, Note_on_c, 9, 42, 106
1, 228480, Note_on_c, 9, 49, 106
1, 228480, Note_on_c, 9, 36, 106
1, 228485, Note_on_c, 9, 42, 0
1, 228485, Note_on_c, 9, 49, 0
1, 228600, Note_on_c, 9, 42, 106
1, 228605, Note_on_c, 9, 42, 0
1, 228720, Note_on_c, 9, 42, 106
1, 228725, Note_on_c, 9, 42, 0
1, 228840, Note_on_c, 9, 42, 106
1, 228845, Note_on_c, 9, 42, 0
1, 228959, Note_on_c, 9, 36, 0
1, 228960, Note_on_c, 9, 38, 127
1, 228960, Note_on_c, 9, 42, 106
1, 228965, Note_on_c, 9, 42, 0
1, 229079, Note_on_c, 9, 38, 0
1, 229080, Note_on_c, 9, 42, 106
1, 229085, Note_on_c, 9, 42, 0
1, 229200, Note_on_c, 9, 42, 106
1, 229205, Note_on_c, 9, 42, 0
1, 229320, Note_on_c, 9, 42, 106
1, 229325, Note_on_c, 9, 42, 0
1, 229440, Note_on_c, 9, 42, 106
1, 229440, Note_on_c, 9, 36, 106
1, 229445, Note_on_c, 9, 42, 0
1, 229560, Note_on_c, 9, 42, 106
1, 229565, Note_on_c, 9, 42, 0
1, 229680, Note_on_c, 9, 42, 106
1, 229685, Note_on_c, 9, 42, 0
1, 229800, Note_on_c, 9, 42, 106
1, 229805, Note_on_c, 9, 42, 0
1, 229919, Note_on_c, 9, 36, 0
1, 229920, Note_on_c, 9, 38, 127
1, 229920, Note_on_c, 9, 42, 106
1, 229925, Note_on_c, 9, 42, 0
1, 230039, Note_on_c, 9, 38, 0
1, 230040, Note_on_c, 9, 42, 106
1, 230045, Note_on_c, 9, 42, 0
1, 230160, Note_on_c, 9, 42, 106
1, 230165, Note_on_c, 9, 42, 0
1, 230280, Note_on_c, 9, 42, 106
1, 230285, Note_on_c, 9, 42, 0
1, 230400, Note_on_c, 9, 42, 106
1, 230400, Note_on_c, 9, 36, 106
1, 230405, Note_on_c, 9, 42, 0
1, 230520, Note_on_c, 9, 42, 106
1, 230525, Note_on_c, 9, 42, 0
1, 230640, Note_on_c, 9, 42, 106
1, 230645, Note_on_c, 9, 42, 0
1, 230760, Note_on_c, 9, 42, 106
1, 230765, Note_on_c, 9, 42, 0
1, 230879, Note_on_c, 9, 36, 0
1, 230880, Note_on_c, 9, 38, 127
1, 230880, Note_on_c, 9, 42, 106
1, 230885, Note_on_c, 9, 42, 0
1, 230999, Note_on_c, 9, 38, 0
1, 231000, Note_on_c, 9, 42, 106
1, 231005, Note_on_c, 9, 42, 0
1, 231120, Note_on_c, 9, 42, 106
1, 231125, Note_on_c, 9, 42, 0
1, 231240, Note_on_c, 9, 42, 106
1, 231245, Note_on_c, 9, 42, 0
1, 231360, Note_on_c, 9, 42, 106
1, 231360, Note_on_c, 9, 36, 106
1, 231365, Note_on_c, 9, 42, 0
1, 231480, Note_on_c, 9, 42, 106
1, 231485, Note_on_c, 9, 42, 0
1, 231600, Note_on_c, 9, 42, 106
1, 231605, Note_on_c, 9, 42, 0
1, 231720, Note_on_c, 9, 42, 106
1, 231725, Note_on_c, 9, 42, 0
1, 231839, Note_on_c, 9, 36, 0
1, 231840, Note_on_c, 9, 38, 127
1, 231840, Note_on_c, 9, 42, 106
1, 231845, Note_on_c, 9, 42, 0
1, 231959, Note_on_c, 9, 38, 0
1, 231960, Note_on_c, 9, 42, 106
1, 231965, Note_on_c, 9, 42, 0
1, 232080, Note_on_c, 9, 42, 106
1, 232085, Note_on_c, 9, 42, 0
1, 232200, Note_on_c, 9, 38, 106
1, 232200, Note_on_c, 9, 42, 106
1, 232205, Note_on_c, 9, 42, 0
1, 232319, Note_on_c, 9, 38, 0
1, 232320, Note_on_c, 9, 42, 106
1, 232320, Note_on_c, 9, 49, 106
1, 232320, Note_on_c, 9, 36, 106
1, 232325, Note_on_c, 9, 42, 0
1, 232325, Note_on_c, 9, 49, 0
1, 232440, Note_on_c, 9, 42, 106
1, 232445, Note_on_c, 9, 42, 0
1, 232560, Note_on_c, 9, 42, 106
1, 232565, Note_on_c, 9, 42, 0
1, 232680, Note_on_c, 9, 42, 106
1, 232685, Note_on_c, 9, 42, 0
1, 232799, Note_on_c, 9, 36, 0
1, 232800, Note_on_c, 9, 38, 127
1, 232800, Note_on_c, 9, 42, 106
1, 232805, Note_on_c, 9, 42, 0
1, 232919, Note_on_c, 9, 38, 0
1, 232920, Note_on_c, 9, 42, 106
1, 232925, Note_on_c, 9, 42, 0
1, 233040, Note_on_c, 9, 42, 106
1, 233045, Note_on_c, 9, 42, 0
1, 233160, Note_on_c, 9, 42, 106
1, 233165, Note_on_c, 9, 42, 0
1, 233280, Note_on_c, 9, 42, 106
1, 233280, Note_on_c, 9, 36, 106
1, 233285, Note_on_c, 9, 42, 0
1, 233400, Note_on_c, 9, 42, 106
1, 233405, Note_on_c, 9, 42, 0
1, 233520, Note_on_c, 9, 42, 106
1, 233525, Note_on_c, 9, 42, 0
1, 233640, Note_on_c, 9, 42, 106
1, 233645, Note_on_c, 9, 42, 0
1, 233759, Note_on_c, 9, 36, 0
1, 233760, Note_on_c, 9, 38, 127
1, 233760, Note_on_c, 9, 42, 106
1, 233765, Note_on_c, 9, 42, 0
1, 233879, Note_on_c, 9, 38, 0
1, 233880, Note_on_c, 9, 42, 106
1, 233885, Note_on_c, 9, 42, 0
1, 234000, Note_on_c, 9, 42, 106
1, 234005, Note_on_c, 9, 42, 0
1, 234120, Note_on_c, 9, 42, 106
1, 234125, Note_on_c, 9, 42, 0
1, 234240, Note_on_c, 9, 42, 106
1, 234240, Note_on_c, 9, 36, 106
1, 234245, Note_on_c, 9, 42, 0
1, 234360, Note_on_c, 9, 42, 106
1, 234365, Note_on_c, 9, 42, 0
1, 234480, Note_on_c, 9, 42, 106
1, 234485, Note_on_c, 9, 42, 0
1, 234600, Note_on_c, 9, 42, 106
1, 234605, Note_on_c, 9, 42, 0
1, 234719, Note_on_c, 9, 36, 0
1, 234720, Note_on_c, 9, 38, 127
1, 234720, Note_on_c, 9, 42, 106
1, 234725, Note_on_c, 9, 42, 0
1, 234839, Note_on_c, 9, 38, 0
1, 234840, Note_on_c, 9, 42, 106
1, 234845, Note_on_c, 9, 42, 0
1, 234960, Note_on_c, 9, 42, 106
1, 234965, Note_on_c, 9, 42, 0
1, 235080, Note_on_c, 9, 42, 106
1, 235085, Note_on_c, 9, 42, 0
1, 235200, Note_on_c, 9, 42, 106
1, 235200, Note_on_c, 9, 36, 106
1, 235205, Note_on_c, 9, 42, 0
1, 235320, Note_on_c, 9, 42, 106
1, 235325, Note_on_c, 9, 42, 0
1, 235440, Note_on_c, 9, 42, 106
1, 235445, Note_on_c, 9, 42, 0
1, 235560, Note_on_c, 9, 42, 106
1, 235565, Note_on_c, 9, 42, 0
1, 235679, Note_on_c, 9, 36, 0
1, 235680, Note_on_c, 9, 38, 127
1, 235680, Note_on_c, 9, 42, 106
1, 235685, Note_on_c, 9, 42, 0
1, 235799, Note_on_c, 9, 38, 0
1, 235800, Note_on_c, 9, 42, 106
1, 235805, Note_on_c, 9, 42, 0
1, 235920, Note_on_c, 9, 42, 106
1, 235925, Note_on_c, 9, 42, 0
1, 236040, Note_on_c, 9, 38, 106
1, 236040, Note_on_c, 9, 42, 106
1, 236045, Note_on_c, 9, 42, 0
1, 236159, Note_on_c, 9, 38, 0
1, 236160, Note_on_c, 9, 42, 106
1, 236160, Note_on_c, 9, 49, 106
1, 236160, Note_on_c, 9, 36, 106
1, 236165, Note_on_c, 9, 42, 0
1, 236165, Note_on_c, 9, 49, 0
1, 236280, Note_on_c, 9, 42, 106
1, 236285, Note_on_c, 9, 42, 0
1, 236400, Note_on_c, 9, 42, 106
1, 236405, Note_on_c, 9, 42, 0
1, 236520, Note_on_c, 9, 42, 106
1, 236525, Note_on_c, 9, 42, 0
1, 236639, Note_on_c, 9, 36, 0
1, 236640, Note_on_c, 9, 38, 127
1, 236640, Note_on_c, 9, 42, 106
1, 236645, Note_on_c, 9, 42, 0
1, 236759, Note_on_c, 9, 38, 0
1, 236760, Note_on_c, 9, 42, 106
1, 236765, Note_on_c, 9, 42, 0
1, 236880, Note_on_c, 9, 42, 106
1, 236885, Note_on_c, 9, 42, 0
1, 237000, Note_on_c, 9, 42, 106
1, 237005, Note_on_c, 9, 42, 0
1, 237120, Note_on_c, 9, 42, 106
1, 237120, Note_on_c, 9, 36, 106
1, 237125, Note_on_c, 9, 42, 0
1, 237240, Note_on_c, 9, 42, 106
1, 237245, Note_on_c, 9, 42, 0
1, 237360, Note_on_c, 9, 42, 106
1, 237365, Note_on_c, 9, 42, 0
1, 237480, Note_on_c, 9, 42, 106
1, 237485, Note_on_c, 9, 42, 0
1, 237599, Note_on_c, 9, 36, 0
1, 237600, Note_on_c, 9, 38, 127
1, 237600, Note_on_c, 9, 42, 106
1, 237605, Note_on_c, 9, 42, 0
1, 237719, Note_on_c, 9, 38, 0
1, 237720, Note_on_c, 9, 42, 106
1, 237725, Note_on_c, 9, 42, 0
1, 237840, Note_on_c, 9, 42, 106
1, 237845, Note_on_c, 9, 42, 0
1, 237960, Note_on_c, 9, 42, 106
1, 237965, Note_on_c, 9, 42, 0
1, 238080, Note_on_c, 9, 42, 106
1, 238080, Note_on_c, 9, 36, 106
1, 238085, Note_on_c, 9, 42, 0
1, 238200, Note_on_c, 9, 42, 106
1, 238205, Note_on_c, 9, 42, 0
1, 238320, Note_on_c, 9, 42, 106
1, 238325, Note_on_c, 9, 42, 0
1, 238440, Note_on_c, 9, 42, 106
1, 238445, Note_on_c, 9, 42, 0
1, 238559, Note_on_c, 9, 36, 0
1, 238560, Note_on_c, 9, 38, 127
1, 238560, Note_on_c, 9, 42, 106
1, 238565, Note_on_c, 9, 42, 0
1, 238679, Note_on_c, 9, 38, 0
1, 238680, Note_on_c, 9, 42, 106
1, 238685, Note_on_c, 9, 42, 0
1, 238800, Note_on_c, 9, 42, 106
1, 238805, Note_on_c, 9, 42, 0
1, 238920, Note_on_c, 9, 42, 106
1, 238925, Note_on_c, 9, 42, 0
1, 239040, Note_on_c, 9, 42, 106
1, 239040, Note_on_c, 9, 36, 106
1, 239045, Note_on_c, 9, 42, 0
1, 239160, Note_on_c, 9, 42, 106
1, 239165, Note_on_c, 9, 42, 0
1, 239280, Note_on_c, 9, 42, 106
1, 239285, Note_on_c, 9, 42, 0
1, 239400, Note_on_c, 9, 42, 106
1, 239405, Note_on_c, 9, 42, 0
1, 239519, Note_on_c, 9, 36, 0
1, 239520, Note_on_c, 9, 38, 127
1, 239520, Note_on_c, 9, 42, 106
1, 239525, Note_on_c, 9, 42, 0
1, 239639, Note_on_c, 9, 38, 0
1, 239640, Note_on_c, 9, 42, 106
1, 239645, Note_on_c, 9, 42, 0
1, 239760, Note_on_c, 9, 42, 106
1, 239765, Note_on_c, 9, 42, 0
1, 239880, Note_on_c, 9, 38, 106
1, 239880, Note_on_c, 9, 42, 106
1, 239885, Note_on_c, 9, 42, 0
1, 239999, Note_on_c, 9, 38, 0
1, 240000, Note_on_c, 9, 42, 106
1, 240000, Note_on_c, 9, 49, 106
1, 240000, Note_on_c, 9, 36, 106
1, 240005, Note_on_c, 9, 42, 0
1, 240005, Note_on_c, 9, 49, 0
1, 240120, Note_on_c, 9, 42, 106
1, 240125, Note_on_c, 9, 42, 0
1, 240240, Note_on_c, 9, 42, 106
1, 240245, Note_on_c, 9, 42, 0
1, 240360, Note_on_c, 9, 42, 106
1, 240365, Note_on_c, 9, 42, 0
1, 240479, Note_on_c, 9, 36, 0
1, 240480, Note_on_c, 9, 38, 127
1, 240480, Note_on_c, 9, 42, 106
1, 240485, Note_on_c, 9, 42, 0
1, 240599, Note_on_c, 9, 38, 0
1, 240600, Note_on_c, 9, 42, 106
1, 240605, Note_on_c, 9, 42, 0
1, 240720, Note_on_c, 9, 42, 106
1, 240725, Note_on_c, 9, 42, 0
1, 240840, Note_on_c, 9, 42, 106
1, 240845, Note_on_c, 9, 42, 0
1, 240960, Note_on_c, 9, 42, 106
1, 240960, Note_on_c, 9, 36, 106
1, 240965, Note_on_c, 9, 42, 0
1, 241080, Note_on_c, 9, 42, 106
1, 241085, Note_on_c, 9, 42, 0
1, 241200, Note_on_c, 9, 42, 106
1, 241205, Note_on_c, 9, 42, 0
1, 241320, Note_on_c, 9, 42, 106
1, 241325, Note_on_c, 9, 42, 0
1, 241439, Note_on_c, 9, 36, 0
1, 241440, Note_on_c, 9, 38, 127
1, 241440, Note_on_c, 9, 42, 106
1, 241445, Note_on_c, 9, 42, 0
1, 241559, Note_on_c, 9, 38, 0
1, 241560, Note_on_c, 9, 42, 106
1, 241565, Note_on_c, 9, 42, 0
1, 241680, Note_on_c, 9, 42, 106
1, 241685, Note_on_c, 9, 42, 0
1, 241800, Note_on_c, 9, 42, 106
1, 241805, Note_on_c, 9, 42, 0
1, 241920, Note_on_c, 9, 42, 106
1, 241920, Note_on_c, 9, 36, 106
1, 241925, Note_on_c, 9, 42, 0
1, 242040, Note_on_c, 9, 42, 106
1, 242045, Note_on_c, 9, 42, 0
1, 242160, Note_on_c, 9, 42, 106
1, 242165, Note_on_c, 9, 42, 0
1, 242280, Note_on_c, 9, 42, 106
1, 242285, Note_on_c, 9, 42, 0
1, 242399, Note_on_c, 9, 36, 0
1, 242400, Note_on_c, 9, 38, 127
1, 242400, Note_on_c, 9, 42, 106
1, 242405, Note_on_c, 9, 42, 0
1, 242519, Note_on_c, 9, 38, 0
1, 242520, Note_on_c, 9, 42, 106
1, 242525, Note_on_c, 9, 42, 0
1, 242640, Note_on_c, 9, 42, 106
1, 242645, Note_on_c, 9, 42, 0
1, 242760, Note_on_c, 9, 42, 106
1, 242765, Note_on_c, 9, 42, 0
1, 242880, Note_on_c, 9, 42, 106
1, 242880, Note_on_c, 9, 36, 106
1, 242885, Note_on_c, 9, 42, 0
1, 243000, Note_on_c, 9, 42, 106
1, 243005, Note_on_c, 9, 42, 0
1, 243120, Note_on_c, 9, 42, 106
1, 243125, Note_on_c, 9, 42, 0
1, 243240, Note_on_c, 9, 42, 106
1, 243245, Note_on_c, 9, 42, 0
1, 243359, Note_on_c, 9, 36, 0
1, 243360, Note_on_c, 9, 38, 127
1, 243360, Note_on_c, 9, 42, 106
1, 243365, Note_on_c, 9, 42, 0
1, 243479, Note_on_c, 9, 38, 0
1, 243480, Note_on_c, 9, 42, 106
1, 243485, Note_on_c, 9, 42, 0
1, 243600, Note_on_c, 9, 42, 106
1, 243605, Note_on_c, 9, 42, 0
1, 243720, Note_on_c, 9, 38, 106
1, 243720, Note_on_c, 9, 42, 106
1, 243725, Note_on_c, 9, 42, 0
1, 243839, Note_on_c, 9, 38, 0
1, 243840, Note_on_c, 9, 42, 106
1, 243840, Note_on_c, 9, 49, 106
1, 243840, Note_on_c, 9, 36, 106
1, 243845, Note_on_c, 9, 42, 0
1, 243845, Note_on_c, 9, 49, 0
1, 243960, Note_on_c, 9, 42, 106
1, 243965, Note_on_c, 9, 42, 0
1, 244080, Note_on_c, 9, 42, 106
1, 244085, Note_on_c, 9, 42, 0
1, 244200, Note_on_c, 9, 42, 106
1, 244205, Note_on_c, 9, 42, 0
1, 244319, Note_on_c, 9, 36, 0
1, 244320, Note_on_c, 9, 38, 127
1, 244320, Note_on_c, 9, 42, 106
1, 244325, Note_on_c, 9, 42, 0
1, 244439, Note_on_c, 9, 38, 0
1, 244440, Note_on_c, 9, 42, 106
1, 244445, Note_on_c, 9, 42, 0
1, 244560, Note_on_c, 9, 42, 106
1, 244565, Note_on_c, 9, 42, 0
1, 244680, Note_on_c, 9, 42, 106
1, 244685, Note_on_c, 9, 42, 0
1, 244800, Note_on_c, 9, 42, 106
1, 244800, Note_on_c, 9, 36, 106
1, 244805, Note_on_c, 9, 42, 0
1, 244920, Note_on_c, 9, 42, 106
1, 244925, Note_on_c, 9, 42, 0
1, 245040, Note_on_c, 9, 42, 106
1, 245045, Note_on_c, 9, 42, 0
1, 245160, Note_on_c, 9, 42, 106
1, 245165, Note_on_c, 9, 42, 0
1, 245279, Note_on_c, 9, 36, 0
1, 245280, Note_on_c, 9, 38, 127
1, 245280, Note_on_c, 9, 42, 106
1, 245285, Note_on_c, 9, 42, 0
1, 245399, Note_on_c, 9, 38, 0
1, 245400, Note_on_c, 9, 42, 106
1, 245405, Note_on_c, 9, 42, 0
1, 245520, Note_on_c, 9, 42, 106
1, 245525, Note_on_c, 9, 42, 0
1, 245640, Note_on_c, 9, 42, 106
1, 245645, Note_on_c, 9, 42, 0
1, 245760, Note_on_c, 9, 42, 106
1, 245760, Note_on_c, 9, 36, 106
1, 245765, Note_on_c, 9, 42, 0
1, 245880, Note_on_c, 9, 42, 106
1, 245885, Note_on_c, 9, 42, 0
1, 246000, Note_on_c, 9, 42, 106
1, 246005, Note_on_c, 9, 42, 0
1, 246120, Note_on_c, 9, 42, 106
1, 246125, Note_on_c, 9, 42, 0
1, 246239, Note_on_c, 9, 36, 0
1, 246240, Note_on_c, 9, 38, 127
1, 246240, Note_on_c, 9, 42, 106
1, 246245, Note_on_c, 9, 42, 0
1, 246359, Note_on_c, 9, 38, 0
1, 246360, Note_on_c, 9, 42, 106
1, 246365, Note_on_c, 9, 42, 0
1, 246480, Note_on_c, 9, 42, 106
1, 246485, Note_on_c, 9, 42, 0
1, 246600, Note_on_c, 9, 42, 106
1, 246605, Note_on_c, 9, 42, 0
1, 246720, Note_on_c, 9, 42, 106
1, 246720, Note_on_c, 9, 36, 106
1, 246725, Note_on_c, 9, 42, 0
1, 246840, Note_on_c, 9, 42, 106
1, 246845, Note_on_c, 9, 42, 0
1, 246960, Note_on_c, 9, 42, 106
1, 246965, Note_on_c, 9, 42, 0
1, 247080, Note_on_c, 9, 42, 106
1, 247085, Note_on_c, 9, 42, 0
1, 247199, Note_on_c, 9, 36, 0
1, 247200, Note_on_c, 9, 38, 127
1, 247200, Note_on_c, 9, 42, 106
1, 247205, Note_on_c, 9, 42, 0
1, 247319, Note_on_c, 9, 38, 0
1, 247320, Note_on_c, 9, 42, 106
1, 247325, Note_on_c, 9, 42, 0
1, 247440, Note_on_c, 9, 42, 106
1, 247445, Note_on_c, 9, 42, 0
1, 247560, Note_on_c, 9, 38, 106
1, 247560, Note_on_c, 9, 42, 106
1, 247565, Note_on_c, 9, 42, 0
1, 247679, Note_on_c, 9, 38, 0
1, 247680, Note_on_c, 9, 42, 106
1, 247680, Note_on_c, 9, 49, 106
1, 247680, Note_on_c, 9, 36, 106
1, 247685, Note_on_c, 9, 42, 0
1, 247685, Note_on_c, 9, 49, 0
1, 247800, Note_on_c, 9, 42, 106
1, 247805, Note_on_c, 9, 42, 0
1, 247920, Note_on_c, 9, 42, 106
1, 247925, Note_on_c, 9, 42, 0
1, 248040, Note_on_c, 9, 42, 106
1, 248045, Note_on_c, 9, 42, 0
1, 248159, Note_on_c, 9, 36, 0
1, 248160, Note_on_c, 9, 38, 127
1, 248160, Note_on_c, 9, 42, 106
1, 248165, Note_on_c, 9, 42, 0
1, 248279, Note_on_c, 9, 38, 0
1, 248280, Note_on_c, 9, 42, 106
1, 248285, Note_on_c, 9, 42, 0
1, 248400, Note_on_c, 9, 42, 106
1, 248405, Note_on_c, 9, 42, 0
1, 248520, Note_on_c, 9, 42, 106
1, 248525, Note_on_c, 9, 42, 0
1, 248640, Note_on_c, 9, 42, 106
1, 248640, Note_on_c, 9, 36, 106
1, 248645, Note_on_c, 9, 42, 0
1, 248760, Note_on_c, 9, 42, 106
1, 248765, Note_on_c, 9, 42, 0
1, 248880, Note_on_c, 9, 42, 106
1, 248885, Note_on_c, 9, 42, 0
1, 249000, Note_on_c, 9, 42, 106
1, 249005, Note_on_c, 9, 42, 0
1, 249119, Note_on_c, 9, 36, 0
1, 249120, Note_on_c, 9, 38, 127
1, 249120, Note_on_c, 9, 42, 106
1, 249125, Note_on_c, 9, 42, 0
1, 249239, Note_on_c, 9, 38, 0
1, 249240, Note_on_c, 9, 42, 106
1, 249245, Note_on_c, 9, 42, 0
1, 249360, Note_on_c, 9, 42, 106
1, 249365, Note_on_c, 9, 42, 0
1, 249480, Note_on_c, 9, 42, 106
1, 249485, Note_on_c, 9, 42, 0
1, 249600, Note_on_c, 9, 42, 106
1, 249600, Note_on_c, 9, 36, 106
1, 249605, Note_on_c, 9, 42, 0
1, 249720, Note_on_c, 9, 42, 106
1, 249725, Note_on_c, 9, 42, 0
1, 249840, Note_on_c, 9, 42, 106
1, 249845, Note_on_c, 9, 42, 0
1, 249960, Note_on_c, 9, 42, 106
1, 249965, Note_on_c, 9, 42, 0
1, 250079, Note_on_c, 9, 36, 0
1, 250080, Note_on_c, 9, 38, 127
1, 250080, Note_on_c, 9, 42, 106
1, 250085, Note_on_c, 9, 42, 0
1, 250199, Note_on_c, 9, 38, 0
1, 250200, Note_on_c, 9, 42, 106
1, 250205, Note_on_c, 9, 42, 0
1, 250320, Note_on_c, 9, 42, 106
1, 250325, Note_on_c, 9, 42, 0
1, 250440, Note_on_c, 9, 42, 106
1, 250445, Note_on_c, 9, 42, 0
1, 250560, Note_on_c, 9, 42, 106
1, 250560, Note_on_c, 9, 36, 106
1, 250565, Note_on_c, 9, 42, 0
1, 250680, Note_on_c, 9, 42, 106
1, 250685, Note_on_c, 9, 42, 0
1, 250800, Note_on_c, 9, 42, 106
1, 250805, Note_on_c, 9, 42, 0
1, 250920, Note_on_c, 9, 42, 106
1, 250925, Note_on_c, 9, 42, 0
1, 251039, Note_on_c, 9, 36, 0
1, 251040, Note_on_c, 9, 38, 127
1, 251040, Note_on_c, 9, 42, 106
1, 251045, Note_on_c, 9, 42, 0
1, 251159, Note_on_c, 9, 38, 0
1, 251160, Note_on_c, 9, 42, 106
1, 251165, Note_on_c, 9, 42, 0
1, 251280, Note_on_c, 9, 42, 106
1, 251285, Note_on_c, 9, 42, 0
1, 251400, Note_on_c, 9, 38, 106
1, 251400, Note_on_c, 9, 42, 106
1, 251405, Note_on_c, 9, 42, 0
1, 251519, Note_on_c, 9, 38, 0
1, 251520, Note_on_c, 9, 42, 106
1, 251520, Note_on_c, 9, 49, 106
1, 251520, Note_on_c, 9, 36, 106
1, 251525, Note_on_c, 9, 42, 0
1, 251525, Note_on_c, 9, 49, 0
1, 251640, Note_on_c, 9, 42, 106
1, 251645, Note_on_c, 9, 42, 0
1, 251760, Note_on_c, 9, 42, 106
1, 251765, Note_on_c, 9, 42, 0
1, 251880, Note_on_c, 9, 42, 106
1, 251885, Note_on_c, 9, 42, 0
1, 251999, Note_on_c, 9, 36, 0
1, 252000, Note_on_c, 9, 38, 127
1, 252000, Note_on_c, 9, 42, 106
1, 252005, Note_on_c, 9, 42, 0
1, 252119, Note_on_c, 9, 38, 0
1, 252120, Note_on_c, 9, 42, 106
1, 252125, Note_on_c, 9, 42, 0
1, 252240, Note_on_c, 9, 42, 106
1, 252245, Note_on_c, 9, 42, 0
1, 252360, Note_on_c, 9, 42, 106
1, 252365, Note_on_c, 9, 42, 0
1, 252480, Note_on_c, 9, 42, 106
1, 252480, Note_on_c, 9, 36, 106
1, 252485, Note_on_c, 9, 42, 0
1, 252600, Note_on_c, 9, 42, 106
1, 252605, Note_on_c, 9, 42, 0
1, 252720, Note_on_c, 9, 42, 106
1, 252725, Note_on_c, 9, 42, 0
1, 252840, Note_on_c, 9, 42, 106
1, 252845, Note_on_c, 9, 42, 0
1, 252959, Note_on_c, 9, 36, 0
1, 252960, Note_on_c, 9, 38, 127
1, 252960, Note_on_c, 9, 42, 106
1, 252965, Note_on_c, 9, 42, 0
1, 253079, Note_on_c, 9, 38, 0
1, 253080, Note_on_c, 9, 42, 106
1, 253085, Note_on_c, 9, 42, 0
1, 253200, Note_on_c, 9, 42, 106
1, 253205, Note_on_c, 9, 42, 0
1, 253320, Note_on_c, 9, 42, 106
1, 253325, Note_on_c, 9, 42, 0
1, 253440, Note_on_c, 9, 42, 106
1, 253440, Note_on_c, 9, 36, 106
1, 253445, Note_on_c, 9, 42, 0
1, 253560, Note_on_c, 9, 42, 106
1, 253565, Note_on_c, 9, 42, 0
1, 253680, Note_on_c, 9, 42, 106
1, 253685, Note_on_c, 9, 42, 0
1, 253800, Note_on_c, 9, 42, 106
1, 253805, Note_on_c, 9, 42, 0
1, 253919, Note_on_c, 9, 36, 0
1, 253920, Note_on_c, 9, 38, 127
1, 253920, Note_on_c, 9, 42, 106
1, 253925, Note_on_c, 9, 42, 0
1, 254039, Note_on_c, 9, 38, 0
1, 254040, Note_on_c, 9, 42, 106
1, 254045, Note_on_c, 9, 42, 0
1, 254160, Note_on_c, 9, 42, 106
1, 254165, Note_on_c, 9, 42, 0
1, 254280, Note_on_c, 9, 42, 106
1, 254285, Note_on_c, 9, 42, 0
1, 254400, Note_on_c, 9, 42, 106
1, 254400, Note_on_c, 9, 36, 106
1, 254405, Note_on_c, 9, 42, 0
1, 254520, Note_on_c, 9, 42, 106
1, 254525, Note_on_c, 9, 42, 0
1, 254640, Note_on_c, 9, 42, 106
1, 254645, Note_on_c, 9, 42, 0
1, 254760, Note_on_c, 9, 42, 106
1, 254765, Note_on_c, 9, 42, 0
1, 254879, Note_on_c, 9, 36, 0
1, 254880, Note_on_c, 9, 38, 127
1, 254880, Note_on_c, 9, 42, 106
1, 254885, Note_on_c, 9, 42, 0
1, 254999, Note_on_c, 9, 38, 0
1, 255000, Note_on_c, 9, 42, 106
1, 255005, Note_on_c, 9, 42, 0
1, 255120, Note_on_c, 9, 42, 106
1, 255125, Note_on_c, 9, 42, 0
1, 255240, Note_on_c, 9, 42, 106
1, 255245, Note_on_c, 9, 42, 0
1, 255360, Note_on_c, 9, 42, 106
1, 255360, Note_on_c, 9, 36, 106
1, 255365, Note_on_c, 9, 42, 0
1, 255480, Note_on_c, 9, 42, 106
1, 255485, Note_on_c, 9, 42, 0
1, 255600, Note_on_c, 9, 42, 106
1, 255605, Note_on_c, 9, 42, 0
1, 255720, Note_on_c, 9, 42, 106
1, 255725, Note_on_c, 9, 42, 0
1, 255839, Note_on_c, 9, 36, 0
1, 255840, Note_on_c, 9, 38, 127
1, 255840, Note_on_c, 9, 42, 106
1, 255845, Note_on_c, 9, 42, 0
1, 255959, Note_on_c, 9, 38, 0
1, 255960, Note_on_c, 9, 42, 106
1, 255965, Note_on_c, 9, 42, 0
1, 256080, Note_on_c, 9, 42, 106
1, 256085, Note_on_c, 9, 42, 0
1, 256200, Note_on_c, 9, 42, 106
1, 256205, Note_on_c, 9, 42, 0
1, 256320, Note_on_c, 9, 42, 106
1, 256320, Note_on_c, 9, 36, 106
1, 256325, Note_on_c, 9, 42, 0
1, 256440, Note_on_c, 9, 42, 106
1, 256445, Note_on_c, 9, 42, 0
1, 256560, Note_on_c, 9, 42, 106
1, 256565, Note_on_c, 9, 42, 0
1, 256680, Note_on_c, 9, 42, 106
1, 256685, Note_on_c, 9, 42, 0
1, 256799, Note_on_c, 9, 36, 0
1, 256800, Note_on_c, 9, 38, 127
1, 256800, Note_on_c, 9, 42, 106
1, 256805, Note_on_c, 9, 42, 0
1, 256919, Note_on_c, 9, 38, 0
1, 256920, Note_on_c, 9, 42, 106
1, 256925, Note_on_c, 9, 42, 0
1, 257040, Note_on_c, 9, 42, 106
1, 257045, Note_on_c, 9, 42, 0
1, 257160, Note_on_c, 9, 42, 106
1, 257165, Note_on_c, 9, 42, 0
1, 257280, Note_on_c, 9, 42, 106
1, 257280, Note_on_c, 9, 36, 106
1, 257285, Note_on_c, 9, 42, 0
1, 257400, Note_on_c, 9, 42, 106
1, 257405, Note_on_c, 9, 42, 0
1, 257520, Note_on_c, 9, 42, 106
1, 257525, Note_on_c, 9, 42, 0
1, 257640, Note_on_c, 9, 42, 106
1, 257645, Note_on_c, 9, 42, 0
1, 257759, Note_on_c, 9, 36, 0
1, 257760, Note_on_c, 9, 38, 127
1, 257760, Note_on_c, 9, 42, 106
1, 257765, Note_on_c, 9, 42, 0
1, 257879, Note_on_c, 9, 38, 0
1, 257880, Note_on_c, 9, 42, 106
1, 257885, Note_on_c, 9, 42, 0
1, 258000, Note_on_c, 9, 42, 106
1, 258005, Note_on_c, 9, 42, 0
1, 258120, Note_on_c, 9, 42, 106
1, 258125, Note_on_c, 9, 42, 0
1, 258240, Note_on_c, 9, 42, 106
1, 258240, Note_on_c, 9, 36, 106
1, 258245, Note_on_c, 9, 42, 0
1, 258360, Note_on_c, 9, 42, 106
1, 258365, Note_on_c, 9, 42, 0
1, 258480, Note_on_c, 9, 42, 106
1, 258485, Note_on_c, 9, 42, 0
1, 258600, Note_on_c, 9, 42, 106
1, 258605, Note_on_c, 9, 42, 0
1, 258719, Note_on_c, 9, 36, 0
1, 258720, Note_on_c, 9, 38, 127
1, 258720, Note_on_c, 9, 42, 106
1, 258725, Note_on_c, 9, 42, 0
1, 258839, Note_on_c, 9, 38, 0
1, 258840, Note_on_c, 9, 42, 106
1, 258845, Note_on_c, 9, 42, 0
1, 258960, Note_on_c, 9, 42, 106
1, 258965, Note_on_c, 9, 42, 0
1, 259080, Note_on_c, 9, 42, 106
1, 259085, Note_on_c, 9, 42, 0
1, 259200, Note_on_c, 9, 42, 106
1, 259200, Note_on_c, 9, 36, 106
1, 259205, Note_on_c, 9, 42, 0
1, 259320, Note_on_c, 9, 42, 106
1, 259325, Note_on_c, 9, 42, 0
1, 259440, Note_on_c, 9, 42, 106
1, 259445, Note_on_c, 9, 42, 0
1, 259560, Note_on_c, 9, 42, 106
1, 259565, Note_on_c, 9, 42, 0
1, 259679, Note_on_c, 9, 36, 0
1, 259680, Note_on_c, 9, 38, 127
1, 259680, Note_on_c, 9, 42, 106
1, 259685, Note_on_c, 9, 42, 0
1, 259799, Note_on_c, 9, 38, 0
1, 259800, Note_on_c, 9, 42, 106
1, 259805, Note_on_c, 9, 42, 0
1, 259920, Note_on_c, 9, 42, 106
1, 259925, Note_on_c, 9, 42, 0
1, 260040, Note_on_c, 9, 42, 106
1, 260045, Note_on_c, 9, 42, 0
1, 260160, Note_on_c, 9, 42, 106
1, 260160, Note_on_c, 9, 36, 106
1, 260165, Note_on_c, 9, 42, 0
1, 260280, Note_on_c, 9, 42, 106
1, 260285, Note_on_c, 9, 42, 0
1, 260400, Note_on_c, 9, 42, 106
1, 260405, Note_on_c, 9, 42, 0
1, 260520, Note_on_c, 9, 42, 106
1, 260525, Note_on_c, 9, 42, 0
1, 260639, Note_on_c, 9, 36, 0
1, 260640, Note_on_c, 9, 38, 127
1, 260640, Note_on_c, 9, 42, 106
1, 260645, Note_on_c, 9, 42, 0
1, 260759, Note_on_c, 9, 38, 0
1, 260760, Note_on_c, 9, 42, 106
1, 260765, Note_on_c, 9, 42, 0
1, 260880, Note_on_c, 9, 42, 106
1, 260885, Note_on_c, 9, 42, 0
1, 261000, Note_on_c, 9, 42, 106
1, 261005, Note_on_c, 9, 42, 0
1, 261120, Note_on_c, 9, 42, 106
1, 261120, Note_on_c, 9, 36, 106
1, 261125, Note_on_c, 9, 42, 0
1, 261240, Note_on_c, 9, 42, 106
1, 261245, Note_on_c, 9, 42, 0
1, 261360, Note_on_c, 9, 42, 106
1, 261365, Note_on_c, 9, 42, 0
1, 261480, Note_on_c, 9, 42, 106
1, 261485, Note_on_c, 9, 42, 0
1, 261599, Note_on_c, 9, 36, 0
1, 261600, Note_on_c, 9, 38, 127
1, 261600, Note_on_c, 9, 42, 106
1, 261605, Note_on_c, 9, 42, 0
1, 261719, Note_on_c, 9, 38, 0
1, 261720, Note_on_c, 9, 42, 106
1, 261725, Note_on_c, 9, 42, 0
1, 261840, Note_on_c, 9, 42, 106
1, 261845, Note_on_c, 9, 42, 0
1, 261960, Note_on_c, 9, 42, 106
1, 261965, Note_on_c, 9, 42, 0
1, 262080, Note_on_c, 9, 42, 106
1, 262080, Note_on_c, 9, 36, 106
1, 262085, Note_on_c, 9, 42, 0
1, 262200, Note_on_c, 9, 42, 106
1, 262205, Note_on_c, 9, 42, 0
1, 262320, Note_on_c, 9, 42, 106
1, 262325, Note_on_c, 9, 42, 0
1, 262440, Note_on_c, 9, 42, 106
1, 262445, Note_on_c, 9, 42, 0
1, 262559, Note_on_c, 9, 36, 0
1, 262560, Note_on_c, 9, 38, 127
1, 262560, Note_on_c, 9, 42, 106
1, 262565, Note_on_c, 9, 42, 0
1, 262679, Note_on_c, 9, 38, 0
1, 262680, Note_on_c, 9, 42, 106
1, 262685, Note_on_c, 9, 42, 0
1, 262800, Note_on_c, 9, 42, 106
1, 262805, Note_on_c, 9, 42, 0
1, 262920, Note_on_c, 9, 38, 106
1, 262920, Note_on_c, 9, 42, 106
1, 262925, Note_on_c, 9, 42, 0
1, 263039, Note_on_c, 9, 38, 0
1, 263040, Note_on_c, 9, 42, 106
1, 263040, Note_on_c, 9, 49, 106
1, 263040, Note_on_c, 9, 36, 106
1, 263045, Note_on_c, 9, 42, 0
1, 263045, Note_on_c, 9, 49, 0
1, 263160, Note_on_c, 9, 42, 106
1, 263165, Note_on_c, 9, 42, 0
1, 263280, Note_on_c, 9, 42, 106
1, 263285, Note_on_c, 9, 42, 0
1, 263400, Note_on_c, 9, 42, 106
1, 263405, Note_on_c, 9, 42, 0
1, 263519, Note_on_c, 9, 36, 0
1, 263520, Note_on_c, 9, 38, 127
1, 263520, Note_on_c, 9, 42, 106
1, 263525, Note_on_c, 9, 42, 0
1, 263639, Note_on_c, 9, 38, 0
1, 263640, Note_on_c, 9, 42, 106
1, 263645, Note_on_c, 9, 42, 0
1, 263760, Note_on_c, 9, 42, 106
1, 263765, Note_on_c, 9, 42, 0
1, 263880, Note_on_c, 9, 42, 106
1, 263885, Note_on_c, 9, 42, 0
1, 264000, Note_on_c, 9, 42, 106
1, 264000, Note_on_c, 9, 36, 106
1, 264005, Note_on_c, 9, 42, 0
1, 264120, Note_on_c, 9, 42, 106
1, 264125, Note_on_c, 9, 42, 0
1, 264240, Note_on_c, 9, 42, 106
1, 264245, Note_on_c, 9, 42, 0
1, 264360, Note_on_c, 9, 42, 106
1, 264365, Note_on_c, 9, 42, 0
1, 264479, Note_on_c, 9, 36, 0
1, 264480, Note_on_c, 9, 38, 127
1, 264480, Note_on_c, 9, 42, 106
1, 264485, Note_on_c, 9, 42, 0
1, 264599, Note_on_c, 9, 38, 0
1, 264600, Note_on_c, 9, 42, 106
1, 264605, Note_on_c, 9, 42, 0
1, 264720, Note_on_c, 9, 42, 106
1, 264725, Note_on_c, 9, 42, 0
1, 264840, Note_on_c, 9, 38, 106
1, 264840, Note_on_c, 9, 42, 106
1, 264845, Note_on_c, 9, 42, 0
1, 264959, Note_on_c, 9, 38, 0
1, 264960, Note_on_c, 9, 42, 106
1, 264960, Note_on_c, 9, 49, 106
1, 264960, Note_on_c, 9, 36, 106
1, 264965, Note_on_c, 9, 42, 0
1, 264965, Note_on_c, 9, 49, 0
1, 265080, Note_on_c, 9, 42, 106
1, 265085, Note_on_c, 9, 42, 0
1, 265200, Note_on_c, 9, 42, 106
1, 265205, Note_on_c, 9, 42, 0
1, 265320, Note_on_c, 9, 42, 106
1, 265325, Note_on_c, 9, 42, 0
1, 265439, Note_on_c, 9, 36, 0
1, 265440, Note_on_c, 9, 38, 127
1, 265440, Note_on_c, 9, 42, 106
1, 265445, Note_on_c, 9, 42, 0
1, 265559, Note_on_c, 9, 38, 0
1, 265560, Note_on_c, 9, 42, 106
1, 265565, Note_on_c, 9, 42, 0
1, 265680, Note_on_c, 9, 42, 106
1, 265685, Note_on_c, 9, 42, 0
1, 265800, Note_on_c, 9, 42, 106
1, 265805, Note_on_c, 9, 42, 0
1, 265920, Note_on_c, 9, 42, 106
1, 265920, Note_on_c, 9, 36, 106
1, 265925, Note_on_c, 9, 42, 0
1, 266040, Note_on_c, 9, 42, 106
1, 266045, Note_on_c, 9, 42, 0
1, 266160, Note_on_c, 9, 42, 106
1, 266165, Note_on_c, 9, 42, 0
1, 266280, Note_on_c, 9, 42, 106
1, 266285, Note_on_c, 9, 42, 0
1, 266399, Note_on_c, 9, 36, 0
1, 266400, Note_on_c, 9, 38, 127
1, 266400, Note_on_c, 9, 42, 106
1, 266405, Note_on_c, 9, 42, 0
1, 266519, Note_on_c, 9, 38, 0
1, 266520, Note_on_c, 9, 42, 106
1, 266525, Note_on_c, 9, 42, 0
1, 266640, Note_on_c, 9, 42, 106
1, 266645, Note_on_c, 9, 42, 0
1, 266760, Note_on_c, 9, 38, 106
1, 266760, Note_on_c, 9, 42, 106
1, 266765, Note_on_c, 9, 42, 0
1, 266879, Note_on_c, 9, 38, 0
1, 266880, Note_on_c, 9, 42, 106
1, 266880, Note_on_c, 9, 49, 106
1, 266880, Note_on_c, 9, 36, 106
1, 266885, Note_on_c, 9, 42, 0
1, 266885, Note_on_c, 9, 49, 0
1, 267000, Note_on_c, 9, 42, 106
1, 267005, Note_on_c, 9, 42, 0
1, 267120, Note_on_c, 9, 42, 106
1, 267125, Note_on_c, 9, 42, 0
1, 267240, Note_on_c, 9, 42, 106
1, 267245, Note_on_c, 9, 42, 0
1, 267359, Note_on_c, 9, 36, 0
1, 267360, Note_on_c, 9, 38, 127
1, 267360, Note_on_c, 9, 42, 106
1, 267365, Note_on_c, 9, 42, 0
1, 267479, Note_on_c, 9, 38, 0
1, 267480, Note_on_c, 9, 42, 106
1, 267485, Note_on_c, 9, 42, 0
1, 267600, Note_on_c, 9, 42, 106
1, 267605, Note_on_c, 9, 42, 0
1, 267720, Note_on_c, 9, 42, 106
1, 267725, Note_on_c, 9, 42, 0
1, 267840, Note_on_c, 9, 42, 106
1, 267840, Note_on_c, 9, 36, 106
1, 267845, Note_on_c, 9, 42, 0
1, 267960, Note_on_c, 9, 42, 106
1, 267965, Note_on_c, 9, 42, 0
1, 268080, Note_on_c, 9, 42, 106
1, 268085, Note_on_c, 9, 42, 0
1, 268200, Note_on_c, 9, 42, 106
1, 268205, Note_on_c, 9, 42, 0
1, 268319, Note_on_c, 9, 36, 0
1, 268320, Note_on_c, 9, 38, 127
1, 268320, Note_on_c, 9, 42, 106
1, 268325, Note_on_c, 9, 42, 0
1, 268439, Note_on_c, 9, 38, 0
1, 268440, Note_on_c, 9, 42, 106
1, 268445, Note_on_c, 9, 42, 0
1, 268560, Note_on_c, 9, 42, 106
1, 268565, Note_on_c, 9, 42, 0
1, 268680, Note_on_c, 9, 42, 106
1, 268685, Note_on_c, 9, 42, 0
1, 268800, Note_on_c, 9, 42, 106
1, 268800, Note_on_c, 9, 36, 106
1, 268805, Note_on_c, 9, 42, 0
1, 268920, Note_on_c, 9, 42, 106
1, 268925, Note_on_c, 9, 42, 0
1, 269040, Note_on_c, 9, 42, 106
1, 269045, Note_on_c, 9, 42, 0
1, 269160, Note_on_c, 9, 42, 106
1, 269165, Note_on_c, 9, 42, 0
1, 269279, Note_on_c, 9, 36, 0
1, 269280, Note_on_c, 9, 38, 127
1, 269280, Note_on_c, 9, 42, 106
1, 269285, Note_on_c, 9, 42, 0
1, 269399, Note_on_c, 9, 38, 0
1, 269400, Note_on_c, 9, 42, 106
1, 269405, Note_on_c, 9, 42, 0
1, 269520, Note_on_c, 9, 42, 106
1, 269525, Note_on_c, 9, 42, 0
1, 269640, Note_on_c, 9, 42, 106
1, 269645, Note_on_c, 9, 42, 0
1, 269760, Note_on_c, 9, 42, 106
1, 269760, Note_on_c, 9, 36, 106
1, 269765, Note_on_c, 9, 42, 0
1, 269880, Note_on_c, 9, 42, 106
1, 269885, Note_on_c, 9, 42, 0
1, 270000, Note_on_c, 9, 42, 106
1, 270005, Note_on_c, 9, 42, 0
1, 270120, Note_on_c, 9, 42, 106
1, 270125, Note_on_c, 9, 42, 0
1, 270239, Note_on_c, 9, 36, 0
1, 270240, Note_on_c, 9, 38, 127
1, 270240, Note_on_c, 9, 42, 106
1, 270245, Note_on_c, 9, 42, 0
1, 270359, Note_on_c, 9, 38, 0
1, 270360, Note_on_c, 9, 42, 106
1, 270365, Note_on_c, 9, 42, 0
1, 270480, Note_on_c, 9, 42, 106
1, 270485, Note_on_c, 9, 42, 0
1, 270600, Note_on_c, 9, 42, 106
1, 270605, Note_on_c, 9, 42, 0
1, 270720, Note_on_c, 9, 42, 106
1, 270720, Note_on_c, 9, 36, 106
1, 270725, Note_on_c, 9, 42, 0
1, 270840, Note_on_c, 9, 42, 106
1, 270845, Note_on_c, 9, 42, 0
1, 270960, Note_on_c, 9, 42, 106
1, 270965, Note_on_c, 9, 42, 0
1, 271080, Note_on_c, 9, 42, 106
1, 271085, Note_on_c, 9, 42, 0
1, 271199, Note_on_c, 9, 36, 0
1, 271200, Note_on_c, 9, 38, 127
1, 271200, Note_on_c, 9, 42, 106
1, 271205, Note_on_c, 9, 42, 0
1, 271319, Note_on_c, 9, 38, 0
1, 271320, Note_on_c, 9, 42, 106
1, 271325, Note_on_c, 9, 42, 0
1, 271440, Note_on_c, 9, 42, 106
1, 271445, Note_on_c, 9, 42, 0
1, 271560, Note_on_c, 9, 42, 106
1, 271565, Note_on_c, 9, 42, 0
1, 271680, Note_on_c, 9, 42, 106
1, 271680, Note_on_c, 9, 36, 106
1, 271685, Note_on_c, 9, 42, 0
1, 271800, Note_on_c, 9, 42, 106
1, 271805, Note_on_c, 9, 42, 0
1, 271920, Note_on_c, 9, 42, 106
1, 271925, Note_on_c, 9, 42, 0
1, 272040, Note_on_c, 9, 42, 106
1, 272045, Note_on_c, 9, 42, 0
1, 272159, Note_on_c, 9, 36, 0
1, 272160, Note_on_c, 9, 38, 127
1, 272160, Note_on_c, 9, 42, 106
1, 272165, Note_on_c, 9, 42, 0
1, 272279, Note_on_c, 9, 38, 0
1, 272280, Note_on_c, 9, 42, 106
1, 272285, Note_on_c, 9, 42, 0
1, 272400, Note_on_c, 9, 42, 106
1, 272405, Note_on_c, 9, 42, 0
1, 272520, Note_on_c, 9, 42, 106
1, 272525, Note_on_c, 9, 42, 0
1, 272640, Note_on_c, 9, 42, 106
1, 272640, Note_on_c, 9, 36, 106
1, 272645, Note_on_c, 9, 42, 0
1, 272760, Note_on_c, 9, 42, 106
1, 272765, Note_on_c, 9, 42, 0
1, 272880, Note_on_c, 9, 42, 106
1, 272885, Note_on_c, 9, 42, 0
1, 273000, Note_on_c, 9, 42, 106
1, 273005, Note_on_c, 9, 42, 0
1, 273119, Note_on_c, 9, 36, 0
1, 273120, Note_on_c, 9, 38, 127
1, 273120, Note_on_c, 9, 42, 106
1, 273125, Note_on_c, 9, 42, 0
1, 273239, Note_on_c, 9, 38, 0
1, 273240, Note_on_c, 9, 42, 106
1, 273245, Note_on_c, 9, 42, 0
1, 273360, Note_on_c, 9, 42, 106
1, 273365, Note_on_c, 9, 42, 0
1, 273480, Note_on_c, 9, 42, 106
1, 273485, Note_on_c, 9, 42, 0
1, 273600, Note_on_c, 9, 42, 106
1, 273600, Note_on_c, 9, 36, 106
1, 273605, Note_on_c, 9, 42, 0
1, 273720, Note_on_c, 9, 42, 106
1, 273725, Note_on_c, 9, 42, 0
1, 273840, Note_on_c, 9, 42, 106
1, 273845, Note_on_c, 9, 42, 0
1, 273960, Note_on_c, 9, 42, 106
1, 273965, Note_on_c, 9, 42, 0
1, 274079, Note_on_c, 9, 36, 0
1, 274080, Note_on_c, 9, 38, 127
1, 274080, Note_on_c, 9, 42, 106
1, 274085, Note_on_c, 9, 42, 0
1, 274199, Note_on_c, 9, 38, 0
1, 274200, Note_on_c, 9, 42, 106
1, 274205, Note_on_c, 9, 42, 0
1, 274320, Note_on_c, 9, 42, 106
1, 274325, Note_on_c, 9, 42, 0
1, 274440, Note_on_c, 9, 42, 106
1, 274445, Note_on_c, 9, 42, 0
1, 274560, Note_on_c, 9, 42, 106
1, 274560, Note_on_c, 9, 36, 106
1, 274565, Note_on_c, 9, 42, 0
1, 274680, Note_on_c, 9, 42, 106
1, 274685, Note_on_c, 9, 42, 0
1, 274800, Note_on_c, 9, 42, 106
1, 274805, Note_on_c, 9, 42, 0
1, 274920, Note_on_c, 9, 42, 106
1, 274925, Note_on_c, 9, 42, 0
1, 275039, Note_on_c, 9, 36, 0
1, 275040, Note_on_c, 9, 38, 127
1, 275040, Note_on_c, 9, 42, 106
1, 275045, Note_on_c, 9, 42, 0
1, 275159, Note_on_c, 9, 38, 0
1, 275160, Note_on_c, 9, 42, 106
1, 275165, Note_on_c, 9, 42, 0
1, 275280, Note_on_c, 9, 42, 106
1, 275285, Note_on_c, 9, 42, 0
1, 275400, Note_on_c, 9, 42, 106
1, 275405, Note_on_c, 9, 42, 0
1, 275520, Note_on_c, 9, 42, 106
1, 275520, Note_on_c, 9, 36, 106
1, 275525, Note_on_c, 9, 42, 0
1, 275640, Note_on_c, 9, 42, 106
1, 275645, Note_on_c, 9, 42, 0
1, 275760, Note_on_c, 9, 42, 106
1, 275765, Note_on_c, 9, 42, 0
1, 275880, Note_on_c, 9, 42, 106
1, 275885, Note_on_c, 9, 42, 0
1, 275999, Note_on_c, 9, 36, 0
1, 276000, Note_on_c, 9, 38, 127
1, 276000, Note_on_c, 9, 42, 106
1, 276005, Note_on_c, 9, 42, 0
1, 276119, Note_on_c, 9, 38, 0
1, 276120, Note_on_c, 9, 42, 106
1, 276125, Note_on_c, 9, 42, 0
1, 276240, Note_on_c, 9, 42, 106
1, 276245, Note_on_c, 9, 42, 0
1, 276360, Note_on_c, 9, 42, 106
1, 276365, Note_on_c, 9, 42, 0
1, 276480, Note_on_c, 9, 42, 106
1, 276480, Note_on_c, 9, 36, 106
1, 276485, Note_on_c, 9, 42, 0
1, 276600, Note_on_c, 9, 42, 106
1, 276605, Note_on_c, 9, 42, 0
1, 276720, Note_on_c, 9, 42, 106
1, 276725, Note_on_c, 9, 42, 0
1, 276840, Note_on_c, 9, 42, 106
1, 276845, Note_on_c, 9, 42, 0
1, 276959, Note_on_c, 9, 36, 0
1, 276960, Note_on_c, 9, 38, 127
1, 276960, Note_on_c, 9, 42, 106
1, 276965, Note_on_c, 9, 42, 0
1, 277079, Note_on_c, 9, 38, 0
1, 277080, Note_on_c, 9, 42, 106
1, 277085, Note_on_c, 9, 42, 0
1, 277200, Note_on_c, 9, 42, 106
1, 277205, Note_on_c, 9, 42, 0
1, 277320, Note_on_c, 9, 42, 106
1, 277325, Note_on_c, 9, 42, 0
1, 277440, Note_on_c, 9, 42, 106
1, 277440, Note_on_c, 9, 36, 106
1, 277445, Note_on_c, 9, 42, 0
1, 277560, Note_on_c, 9, 42, 106
1, 277565, Note_on_c, 9, 42, 0
1, 277680, Note_on_c, 9, 42, 106
1, 277685, Note_on_c, 9, 42, 0
1, 277800, Note_on_c, 9, 42, 106
1, 277805, Note_on_c, 9, 42, 0
1, 277919, Note_on_c, 9, 36, 0
1, 277920, Note_on_c, 9, 38, 127
1, 277920, Note_on_c, 9, 42, 106
1, 277925, Note_on_c, 9, 42, 0
1, 278039, Note_on_c, 9, 38, 0
1, 278040, Note_on_c, 9, 42, 106
1, 278045, Note_on_c, 9, 42, 0
1, 278160, Note_on_c, 9, 42, 106
1, 278165, Note_on_c, 9, 42, 0
1, 278280, Note_on_c, 9, 38, 106
1, 278280, Note_on_c, 9, 42, 106
1, 278285, Note_on_c, 9, 42, 0
1, 278399, Note_on_c, 9, 38, 0
1, 278400, Note_on_c, 9, 42, 106
1, 278400, Note_on_c, 9, 49, 106
1, 278400, Note_on_c, 9, 36, 106
1, 278405, Note_on_c, 9, 42, 0
1, 278405, Note_on_c, 9, 49, 0
1, 278520, Note_on_c, 9, 42, 106
1, 278525, Note_on_c, 9, 42, 0
1, 278640, Note_on_c, 9, 42, 106
1, 278645, Note_on_c, 9, 42, 0
1, 278760, Note_on_c, 9, 42, 106
1, 278765, Note_on_c, 9, 42, 0
1, 278879, Note_on_c, 9, 36, 0
1, 278880, Note_on_c, 9, 38, 127
1, 278880, Note_on_c, 9, 42, 106
1, 278885, Note_on_c, 9, 42, 0
1, 278999, Note_on_c, 9, 38, 0
1, 279000, Note_on_c, 9, 42, 106
1, 279005, Note_on_c, 9, 42, 0
1, 279120, Note_on_c, 9, 42, 106
1, 279125, Note_on_c, 9, 42, 0
1, 279240, Note_on_c, 9, 42, 106
1, 279245, Note_on_c, 9, 42, 0
1, 279360, Note_on_c, 9, 42, 106
1, 279360, Note_on_c, 9, 36, 106
1, 279365, Note_on_c, 9, 42, 0
1, 279480, Note_on_c, 9, 42, 106
1, 279485, Note_on_c, 9, 42, 0
1, 279600, Note_on_c, 9, 42, 106
1, 279605, Note_on_c, 9, 42, 0
1, 279720, Note_on_c, 9, 42, 106
1, 279725, Note_on_c, 9, 42, 0
1, 279839, Note_on_c, 9, 36, 0
1, 279840, Note_on_c, 9, 38, 127
1, 279840, Note_on_c, 9, 42, 106
1, 279845, Note_on_c, 9, 42, 0
1, 279959, Note_on_c, 9, 38, 0
1, 279960, Note_on_c, 9, 42, 106
1, 279965, Note_on_c, 9, 42, 0
1, 280080, Note_on_c, 9, 42, 106
1, 280085, Note_on_c, 9, 42, 0
1, 280200, Note_on_c, 9, 38, 106
1, 280200, Note_on_c, 9, 42, 106
1, 280205, Note_on_c, 9, 42, 0
1, 280319, Note_on_c, 9, 38, 0
1, 280320, Note_on_c, 9, 42, 106
1, 280320, Note_on_c, 9, 49, 106
1, 280320, Note_on_c, 9, 36, 106
1, 280325, Note_on_c, 9, 42, 0
1, 280325, Note_on_c, 9, 49, 0
1, 280440, Note_on_c, 9, 42, 106
1, 280445, Note_on_c, 9, 42, 0
1, 280560, Note_on_c, 9, 42, 106
1, 280565, Note_on_c, 9, 42, 0
1, 280680, Note_on_c, 9, 42, 106
1, 280685, Note_on_c, 9, 42, 0
1, 280799, Note_on_c, 9, 36, 0
1, 280800, Note_on_c, 9, 38, 127
1, 280800, Note_on_c, 9, 42, 106
1, 280805, Note_on_c, 9, 42, 0
1, 280919, Note_on_c, 9, 38, 0
1, 280920, Note_on_c, 9, 42, 106
1, 280925, Note_on_c, 9, 42, 0
1, 281040, Note_on_c, 9, 42, 106
1, 281045, Note_on_c, 9, 42, 0
1, 281160, Note_on_c, 9, 42, 106
1, 281165, Note_on_c, 9, 42, 0
1, 281280, Note_on_c, 9, 42, 106
1, 281280, Note_on_c, 9, 36, 106
1, 281285, Note_on_c, 9, 42, 0
1, 281400, Note_on_c, 9, 42, 106
1, 281405, Note_on_c, 9, 42, 0
1, 281520, Note_on_c, 9, 42, 106
1, 281525, Note_on_c, 9, 42, 0
1, 281640, Note_on_c, 9, 42, 106
1, 281645, Note_on_c, 9, 42, 0
1, 281759, Note_on_c, 9, 36, 0
1, 281760, Note_on_c, 9, 38, 127
1, 281760, Note_on_c, 9, 42, 106
1, 281765, Note_on_c, 9, 42, 0
1, 281879, Note_on_c, 9, 38, 0
1, 281880, Note_on_c, 9, 42, 106
1, 281885, Note_on_c, 9, 42, 0
1, 282000, Note_on_c, 9, 42, 106
1, 282005, Note_on_c, 9, 42, 0
1, 282120, Note_on_c, 9, 38, 106
1, 282120, Note_on_c, 9, 42, 106
1, 282125, Note_on_c, 9, 42, 0
1, 282239, Note_on_c, 9, 38, 0
1, 282240, Note_on_c, 9, 42, 106
1, 282240, Note_on_c, 9, 49, 106
1, 282240, Note_on_c, 9, 36, 106
1, 282245, Note_on_c, 9, 42, 0
1, 282245, Note_on_c, 9, 49, 0
1, 282360, Note_on_c, 9, 42, 106
1, 282365, Note_on_c, 9, 42, 0
1, 282480, Note_on_c, 9, 42, 106
1, 282485, Note_on_c, 9, 42, 0
1, 282600, Note_on_c, 9, 42, 106
1, 282605, Note_on_c, 9, 42, 0
1, 282719, Note_on_c, 9, 36, 0
1, 282720, Note_on_c, 9, 38, 127
1, 282720, Note_on_c, 9, 42, 106
1, 282725, Note_on_c, 9, 42, 0
1, 282839, Note_on_c, 9, 38, 0
1, 282840, Note_on_c, 9, 42, 106
1, 282845, Note_on_c, 9, 42, 0
1, 282960, Note_on_c, 9, 42, 106
1, 282965, Note_on_c, 9, 42, 0
1, 283080, Note_on_c, 9, 42, 106
1, 283085, Note_on_c, 9, 42, 0
1, 283200, Note_on_c, 9, 42, 106
1, 283200, Note_on_c, 9, 36, 106
1, 283205, Note_on_c, 9, 42, 0
1, 283320, Note_on_c, 9, 42, 106
1, 283325, Note_on_c, 9, 42, 0
1, 283440, Note_on_c, 9, 42, 106
1, 283445, Note_on_c, 9, 42, 0
1, 283560, Note_on_c, 9, 42, 106
1, 283565, Note_on_c, 9, 42, 0
1, 283679, Note_on_c, 9, 36, 0
1, 283680, Note_on_c, 9, 38, 127
1, 283680, Note_on_c, 9, 42, 106
1, 283685, Note_on_c, 9, 42, 0
1, 283799, Note_on_c, 9, 38, 0
1, 283800, Note_on_c, 9, 42, 106
1, 283805, Note_on_c, 9, 42, 0
1, 283920, Note_on_c, 9, 42, 106
1, 283925, Note_on_c, 9, 42, 0
1, 284040, Note_on_c, 9, 42, 106
1, 284045, Note_on_c, 9, 42, 0
1, 284160, Note_on_c, 9, 42, 106
1, 284160, Note_on_c, 9, 36, 106
1, 284165, Note_on_c, 9, 42, 0
1, 284280, Note_on_c, 9, 42, 106
1, 284285, Note_on_c, 9, 42, 0
1, 284400, Note_on_c, 9, 42, 106
1, 284405, Note_on_c, 9, 42, 0
1, 284520, Note_on_c, 9, 42, 106
1, 284525, Note_on_c, 9, 42, 0
1, 284639, Note_on_c, 9, 36, 0
1, 284640, Note_on_c, 9, 38, 127
1, 284640, Note_on_c, 9, 42, 106
1, 284645, Note_on_c, 9, 42, 0
1, 284759, Note_on_c, 9, 38, 0
1, 284760, Note_on_c, 9, 42, 106
1, 284765, Note_on_c, 9, 42, 0
1, 284880, Note_on_c, 9, 42, 106
1, 284885, Note_on_c, 9, 42, 0
1, 285000, Note_on_c, 9, 42, 106
1, 285005, Note_on_c, 9, 42, 0
1, 285120, Note_on_c, 9, 42, 106
1, 285120, Note_on_c, 9, 36, 106
1, 285125, Note_on_c, 9, 42, 0
1, 285240, Note_on_c, 9, 42, 106
1, 285245, Note_on_c, 9, 42, 0
1, 285360, Note_on_c, 9, 42, 106
1, 285365, Note_on_c, 9, 42, 0
1, 285480, Note_on_c, 9, 42, 106
1, 285485, Note_on_c, 9, 42, 0
1, 285599, Note_on_c, 9, 36, 0
1, 285600, Note_on_c, 9, 38, 127
1, 285600, Note_on_c, 9, 42, 106
1, 285605, Note_on_c, 9, 42, 0
1, 285719, Note_on_c, 9, 38, 0
1, 285720, Note_on_c, 9, 42, 106
1, 285725, Note_on_c, 9, 42, 0
1, 285840, Note_on_c, 9, 42, 106
1, 285845, Note_on_c, 9, 42, 0
1, 285960, Note_on_c, 9, 42, 106
1, 285965, Note_on_c, 9, 42, 0
1, 286080, Note_on_c, 9, 42, 106
1, 286080, Note_on_c, 9, 36, 106
1, 286085, Note_on_c, 9, 42, 0
1, 286200, Note_on_c, 9, 42, 106
1, 286205, Note_on_c, 9, 42, 0
1, 286320, Note_on_c, 9, 42, 106
1, 286325, Note_on_c, 9, 42, 0
1, 286440, Note_on_c, 9, 42, 106
1, 286445, Note_on_c, 9, 42, 0
1, 286559, Note_on_c, 9, 36, 0
1, 286560, Note_on_c, 9, 38, 127
1, 286560, Note_on_c, 9, 42, 106
1, 286565, Note_on_c, 9, 42, 0
1, 286679, Note_on_c, 9, 38, 0
1, 286680, Note_on_c, 9, 42, 106
1, 286685, Note_on_c, 9, 42, 0
1, 286800, Note_on_c, 9, 42, 106
1, 286805, Note_on_c, 9, 42, 0
1, 286920, Note_on_c, 9, 42, 106
1, 286925, Note_on_c, 9, 42, 0
1, 287040, Note_on_c, 9, 42, 106
1, 287040, Note_on_c, 9, 36, 106
1, 287045, Note_on_c, 9, 42, 0
1, 287160, Note_on_c, 9, 42, 106
1, 287165, Note_on_c, 9, 42, 0
1, 287280, Note_on_c, 9, 42, 106
1, 287285, Note_on_c, 9, 42, 0
1, 287400, Note_on_c, 9, 42, 106
1, 287405, Note_on_c, 9, 42, 0
1, 287519, Note_on_c, 9, 36, 0
1, 287520, Note_on_c, 9, 38, 127
1, 287520, Note_on_c, 9, 42, 106
1, 287525, Note_on_c, 9, 42, 0
1, 287639, Note_on_c, 9, 38, 0
1, 287640, Note_on_c, 9, 42, 106
1, 287645, Note_on_c, 9, 42, 0
1, 287760, Note_on_c, 9, 42, 106
1, 287765, Note_on_c, 9, 42, 0
1, 287880, Note_on_c, 9, 42, 106
1, 287885, Note_on_c, 9, 42, 0
1, 288000, Note_on_c, 9, 42, 106
1, 288000, Note_on_c, 9, 36, 106
1, 288005, Note_on_c, 9, 42, 0
1, 288120, Note_on_c, 9, 42, 106
1, 288125, Note_on_c, 9, 42, 0
1, 288240, Note_on_c, 9, 42, 106
1, 288245, Note_on_c, 9, 42, 0
1, 288360, Note_on_c, 9, 42, 106
1, 288365, Note_on_c, 9, 42, 0
1, 288479, Note_on_c, 9, 36, 0
1, 288480, Note_on_c, 9, 38, 127
1, 288480, Note_on_c, 9, 42, 106
1, 288485, Note_on_c, 9, 42, 0
1, 288599, Note_on_c, 9, 38, 0
1, 288600, Note_on_c, 9, 42, 106
1, 288605, Note_on_c, 9, 42, 0
1, 288720, Note_on_c, 9, 42, 106
1, 288725, Note_on_c, 9, 42, 0
1, 288840, Note_on_c, 9, 42, 106
1, 288845, Note_on_c, 9, 42, 0
1, 288960, Note_on_c, 9, 42, 106
1, 288960, Note_on_c, 9, 36, 106
1, 288965, Note_on_c, 9, 42, 0
1, 289080, Note_on_c, 9, 42, 106
1, 289085, Note_on_c, 9, 42, 0
1, 289200, Note_on_c, 9, 42, 106
1, 289205, Note_on_c, 9, 42, 0
1, 289320, Note_on_c, 9, 42, 106
1, 289325, Note_on_c, 9, 42, 0
1, 289439, Note_on_c, 9, 36, 0
1, 289440, Note_on_c, 9, 38, 127
1, 289440, Note_on_c, 9, 42, 106
1, 289445, Note_on_c, 9, 42, 0
1, 289559, Note_on_c, 9, 38, 0
1, 289560, Note_on_c, 9, 42, 106
1, 289565, Note_on_c, 9, 42, 0
1, 289680, Note_on_c, 9, 42, 106
1, 289685, Note_on_c, 9, 42, 0
1, 289800, Note_on_c, 9, 42, 106
1, 289805, Note_on_c, 9, 42, 0
1, 289920, Note_on_c, 9, 42, 106
1, 289920, Note_on_c, 9, 36, 106
1, 289925, Note_on_c, 9, 42, 0
1, 290040, Note_on_c, 9, 42, 106
1, 290045, Note_on_c, 9, 42, 0
1, 290160, Note_on_c, 9, 42, 106
1, 290165, Note_on_c, 9, 42, 0
1, 290280, Note_on_c, 9, 42, 106
1, 290285, Note_on_c, 9, 42, 0
1, 290399, Note_on_c, 9, 36, 0
1, 290400, Note_on_c, 9, 38, 127
1, 290400, Note_on_c, 9, 42, 106
1, 290405, Note_on_c, 9, 42, 0
1, 290519, Note_on_c, 9, 38, 0
1, 290520, Note_on_c, 9, 42, 106
1, 290525, Note_on_c, 9, 42, 0
1, 290640, Note_on_c, 9, 42, 106
1, 290645, Note_on_c, 9, 42, 0
1, 290760, Note_on_c, 9, 42, 106
1, 290765, Note_on_c, 9, 42, 0
1, 290880, Note_on_c, 9, 42, 106
1, 290880, Note_on_c, 9, 36, 106
1, 290885, Note_on_c, 9, 42, 0
1, 291000, Note_on_c, 9, 42, 106
1, 291005, Note_on_c, 9, 42, 0
1, 291120, Note_on_c, 9, 42, 106
1, 291125, Note_on_c, 9, 42, 0
1, 291240, Note_on_c, 9, 42, 106
1, 291245, Note_on_c, 9, 42, 0
1, 291359, Note_on_c, 9, 36, 0
1, 291360, Note_on_c, 9, 38, 127
1, 291360, Note_on_c, 9, 42, 106
1, 291365, Note_on_c, 9, 42, 0
1, 291479, Note_on_c, 9, 38, 0
1, 291480, Note_on_c, 9, 42, 106
1, 291485, Note_on_c, 9, 42, 0
1, 291600, Note_on_c, 9, 42, 106
1, 291605, Note_on_c, 9, 42, 0
1, 291720, Note_on_c, 9, 42, 106
1, 291725, Note_on_c, 9, 42, 0
1, 291840, Note_on_c, 9, 42, 106
1, 291840, Note_on_c, 9, 36, 106
1, 291845, Note_on_c, 9, 42, 0
1, 291960, Note_on_c, 9, 42, 106
1, 291965, Note_on_c, 9, 42, 0
1, 292080, Note_on_c, 9, 42, 106
1, 292085, Note_on_c, 9, 42, 0
1, 292200, Note_on_c, 9, 42, 106
1, 292205, Note_on_c, 9, 42, 0
1, 292319, Note_on_c, 9, 36, 0
1, 292320, Note_on_c, 9, 38, 127
1, 292320, Note_on_c, 9, 42, 106
1, 292325, Note_on_c, 9, 42, 0
1, 292439, Note_on_c, 9, 38, 0
1, 292440, Note_on_c, 9, 42, 106
1, 292445, Note_on_c, 9, 42, 0
1, 292560, Note_on_c, 9, 42, 106
1, 292565, Note_on_c, 9, 42, 0
1, 292680, Note_on_c, 9, 42, 106
1, 292685, Note_on_c, 9, 42, 0
1, 292800, Note_on_c, 9, 42, 106
1, 292800, Note_on_c, 9, 36, 106
1, 292805, Note_on_c, 9, 42, 0
1, 292920, Note_on_c, 9, 42, 106
1, 292925, Note_on_c, 9, 42, 0
1, 293040, Note_on_c, 9, 42, 106
1, 293045, Note_on_c, 9, 42, 0
1, 293160, Note_on_c, 9, 42, 106
1, 293165, Note_on_c, 9, 42, 0
1, 293279, Note_on_c, 9, 36, 0
1, 293280, Note_on_c, 9, 38, 127
1, 293280, Note_on_c, 9, 42, 106
1, 293285, Note_on_c, 9, 42, 0
1, 293399, Note_on_c, 9, 38, 0
1, 293400, Note_on_c, 9, 42, 106
1, 293405, Note_on_c, 9, 42, 0
1, 293520, Note_on_c, 9, 42, 106
1, 293525, Note_on_c, 9, 42, 0
1, 293640, Note_on_c, 9, 38, 106
1, 293640, Note_on_c, 9, 42, 106
1, 293645, Note_on_c, 9, 42, 0
1, 293759, Note_on_c, 9, 38, 0
1, 293760, Note_on_c, 9, 42, 106
1, 293760, Note_on_c, 9, 49, 106
1, 293760, Note_on_c, 9, 36, 106
1, 293765, Note_on_c, 9, 42, 0
1, 293765, Note_on_c, 9, 49, 0
1, 293880, Note_on_c, 9, 42, 106
1, 293885, Note_on_c, 9, 42, 0
1, 294000, Note_on_c, 9, 42, 106
1, 294005, Note_on_c, 9, 42, 0
1, 294120, Note_on_c, 9, 42, 106
1, 294125, Note_on_c, 9, 42, 0
1, 294239, Note_on_c, 9, 36, 0
1, 294240, Note_on_c, 9, 38, 127
1, 294240, Note_on_c, 9, 42, 106
1, 294245, Note_on_c, 9, 42, 0
1, 294359, Note_on_c, 9, 38, 0
1, 294360, Note_on_c, 9, 42, 106
1, 294365, Note_on_c, 9, 42, 0
1, 294480, Note_on_c, 9, 42, 106
1, 294485, Note_on_c, 9, 42, 0
1, 294600, Note_on_c, 9, 42, 106
1, 294605, Note_on_c, 9, 42, 0
1, 294720, Note_on_c, 9, 42, 106
1, 294720, Note_on_c, 9, 36, 106
1, 294725, Note_on_c, 9, 42, 0
1, 294840, Note_on_c, 9, 42, 106
1, 294845, Note_on_c, 9, 42, 0
1, 294960, Note_on_c, 9, 42, 106
1, 294965, Note_on_c, 9, 42, 0
1, 295080, Note_on_c, 9, 42, 106
1, 295085, Note_on_c, 9, 42, 0
1, 295199, Note_on_c, 9, 36, 0
1, 295200, Note_on_c, 9, 38, 127
1, 295200, Note_on_c, 9, 42, 106
1, 295205, Note_on_c, 9, 42, 0
1, 295319, Note_on_c, 9, 38, 0
1, 295320, Note_on_c, 9, 42, 106
1, 295325, Note_on_c, 9, 42, 0
1, 295440, Note_on_c, 9, 42, 106
1, 295445, Note_on_c, 9, 42, 0
1, 295560, Note_on_c, 9, 38, 106
1, 295560, Note_on_c, 9, 42, 106
1, 295565, Note_on_c, 9, 42, 0
1, 295679, Note_on_c, 9, 38, 0
1, 295680, Note_on_c, 9, 42, 106
1, 295680, Note_on_c, 9, 49, 106
1, 295680, Note_on_c, 9, 36, 106
1, 295685, Note_on_c, 9, 42, 0
1, 295685, Note_on_c, 9, 49, 0
1, 295800, Note_on_c, 9, 42, 106
1, 295805, Note_on_c, 9, 42, 0
1, 295920, Note_on_c, 9, 42, 106
1, 295925, Note_on_c, 9, 42, 0
1, 296040, Note_on_c, 9, 42, 106
1, 296045, Note_on_c, 9, 42, 0
1, 296159, Note_on_c, 9, 36, 0
1, 296160, Note_on_c, 9, 38, 127
1, 296160, Note_on_c, 9, 42, 106
1, 296165, Note_on_c, 9, 42, 0
1, 296279, Note_on_c, 9, 38, 0
1, 296280, Note_on_c, 9, 42, 106
1, 296285, Note_on_c, 9, 42, 0
1, 296400, Note_on_c, 9, 42, 106
1, 296405, Note_on_c, 9, 42, 0
1, 296520, Note_on_c, 9, 42, 106
1, 296525, Note_on_c, 9, 42, 0
1, 296640, Note_on_c, 9, 42, 106
1, 296640, Note_on_c, 9, 36, 106
1, 296645, Note_on_c, 9, 42, 0
1, 296760, Note_on_c, 9, 42, 106
1, 296765, Note_on_c, 9, 42, 0
1, 296880, Note_on_c, 9, 42, 106
1, 296885, Note_on_c, 9, 42, 0
1, 297000, Note_on_c, 9, 42, 106
1, 297005, Note_on_c, 9, 42, 0
1, 297119, Note_on_c, 9, 36, 0
1, 297120, Note_on_c, 9, 38, 127
1, 297120, Note_on_c, 9, 42, 106
1, 297125, Note_on_c, 9, 42, 0
1, 297239, Note_on_c, 9, 38, 0
1, 297240, Note_on_c, 9, 42, 106
1, 297245, Note_on_c, 9, 42, 0
1, 297360, Note_on_c, 9, 42, 106
1, 297365, Note_on_c, 9, 42, 0
1, 297480, Note_on_c, 9, 38, 106
1, 297480, Note_on_c, 9, 42, 106
1, 297485, Note_on_c, 9, 42, 0
1, 297599, Note_on_c, 9, 38, 0
1, 297600, Note_on_c, 9, 42, 106
1, 297600, Note_on_c, 9, 49, 106
1, 297600, Note_on_c, 9, 36, 106
1, 297605, Note_on_c, 9, 42, 0
1, 297605, Note_on_c, 9, 49, 0
1, 297720, Note_on_c, 9, 42, 106
1, 297725, Note_on_c, 9, 42, 0
1, 297840, Note_on_c, 9, 42, 106
1, 297845, Note_on_c, 9, 42, 0
1, 297960, Note_on_c, 9, 42, 106
1, 297965, Note_on_c, 9, 42, 0
1, 298079, Note_on_c, 9, 36, 0
1, 298080, Note_on_c, 9, 38, 127
1, 298080, Note_on_c, 9, 42, 106
1, 298085, Note_on_c, 9, 42, 0
1, 298199, Note_on_c, 9, 38, 0
1, 298200, Note_on_c, 9, 42, 106
1, 298205, Note_on_c, 9, 42, 0
1, 298320, Note_on_c, 9, 42, 106
1, 298325, Note_on_c, 9, 42, 0
1, 298440, Note_on_c, 9, 42, 106
1, 298445, Note_on_c, 9, 42, 0
1, 298560, Note_on_c, 9, 42, 106
1, 298560, Note_on_c, 9, 36, 106
1, 298565, Note_on_c, 9, 42, 0
1, 298680, Note_on_c, 9, 42, 106
1, 298685, Note_on_c, 9, 42, 0
1, 298800, Note_on_c, 9, 42, 106
1, 298805, Note_on_c, 9, 42, 0
1, 298920, Note_on_c, 9, 42, 106
1, 298925, Note_on_c, 9, 42, 0
1, 299039, Note_on_c, 9, 36, 0
1, 299040, Note_on_c, 9, 38, 127
1, 299040, Note_on_c, 9, 42, 106
1, 299045, Note_on_c, 9, 42, 0
1, 299159, Note_on_c, 9, 38, 0
1, 299160, Note_on_c, 9, 42, 106
1, 299165, Note_on_c, 9, 42, 0
1, 299280, Note_on_c, 9, 42, 106
1, 299285, Note_on_c, 9, 42, 0
1, 299400, Note_on_c, 9, 42, 106
1, 299405, Note_on_c, 9, 42, 0
1, 299520, Note_on_c, 9, 42, 106
1, 299520, Note_on_c, 9, 36, 106
1, 299525, Note_on_c, 9, 42, 0
1, 299640, Note_on_c, 9, 42, 106
1, 299645, Note_on_c, 9, 42, 0
1, 299760, Note_on_c, 9, 42, 106
1, 299765, Note_on_c, 9, 42, 0
1, 299880, Note_on_c, 9, 42, 106
1, 299885, Note_on_c, 9, 42, 0
1, 299999, Note_on_c, 9, 36, 0
1, 300000, Note_on_c, 9, 38, 127
1, 300000, Note_on_c, 9, 42, 106
1, 300005, Note_on_c, 9, 42, 0
1, 300119, Note_on_c, 9, 38, 0
1, 300120, Note_on_c, 9, 42, 106
1, 300125, Note_on_c, 9, 42, 0
1, 300240, Note_on_c, 9, 42, 106
1, 300245, Note_on_c, 9, 42, 0
1, 300360, Note_on_c, 9, 42, 106
1, 300365, Note_on_c, 9, 42, 0
1, 300480, Note_on_c, 9, 42, 106
1, 300480, Note_on_c, 9, 36, 106
1, 300485, Note_on_c, 9, 42, 0
1, 300600, Note_on_c, 9, 42, 106
1, 300605, Note_on_c, 9, 42, 0
1, 300720, Note_on_c, 9, 42, 106
1, 300725, Note_on_c, 9, 42, 0
1, 300840, Note_on_c, 9, 42, 106
1, 300845, Note_on_c, 9, 42, 0
1, 300959, Note_on_c, 9, 36, 0
1, 300960, Note_on_c, 9, 38, 127
1, 300960, Note_on_c, 9, 42, 106
1, 300965, Note_on_c, 9, 42, 0
1, 301079, Note_on_c, 9, 38, 0
1, 301080, Note_on_c, 9, 42, 106
1, 301085, Note_on_c, 9, 42, 0
1, 301200, Note_on_c, 9, 42, 106
1, 301205, Note_on_c, 9, 42, 0
1, 301320, Note_on_c, 9, 42, 106
1, 301325, Note_on_c, 9, 42, 0
1, 301440, Note_on_c, 9, 42, 106
1, 301440, Note_on_c, 9, 36, 106
1, 301445, Note_on_c, 9, 42, 0
1, 301560, Note_on_c, 9, 42, 106
1, 301565, Note_on_c, 9, 42, 0
1, 301680, Note_on_c, 9, 42, 106
1, 301685, Note_on_c, 9, 42, 0
1, 301800, Note_on_c, 9, 42, 106
1, 301805, Note_on_c, 9, 42, 0
1, 301919, Note_on_c, 9, 36, 0
1, 301920, Note_on_c, 9, 38, 127
1, 301920, Note_on_c, 9, 42, 106
1, 301925, Note_on_c, 9, 42, 0
1, 302039, Note_on_c, 9, 38, 0
1, 302040, Note_on_c, 9, 42, 106
1, 302045, Note_on_c, 9, 42, 0
1, 302160, Note_on_c, 9, 42, 106
1, 302165, Note_on_c, 9, 42, 0
1, 302280, Note_on_c, 9, 42, 106
1, 302285, Note_on_c, 9, 42, 0
1, 302400, Note_on_c, 9, 42, 106
1, 302400, Note_on_c, 9, 36, 106
1, 302405, Note_on_c, 9, 42, 0
1, 302520, Note_on_c, 9, 42, 106
1, 302525, Note_on_c, 9, 42, 0
1, 302640, Note_on_c, 9, 42, 106
1, 302645, Note_on_c, 9, 42, 0
1, 302760, Note_on_c, 9, 42, 106
1, 302765, Note_on_c, 9, 42, 0
1, 302879, Note_on_c, 9, 36, 0
1, 302880, Note_on_c, 9, 38, 127
1, 302880, Note_on_c, 9, 42, 106
1, 302885, Note_on_c, 9, 42, 0
1, 302999, Note_on_c, 9, 38, 0
1, 303000, Note_on_c, 9, 42, 106
1, 303005, Note_on_c, 9, 42, 0
1, 303120, Note_on_c, 9, 42, 106
1, 303125, Note_on_c, 9, 42, 0
1, 303240, Note_on_c, 9, 42, 106
1, 303245, Note_on_c, 9, 42, 0
1, 303360, Note_on_c, 9, 42, 106
1, 303360, Note_on_c, 9, 36, 106
1, 303365, Note_on_c, 9, 42, 0
1, 303480, Note_on_c, 9, 42, 106
1, 303485, Note_on_c, 9, 42, 0
1, 303600, Note_on_c, 9, 42, 106
1, 303605, Note_on_c, 9, 42, 0
1, 303720, Note_on_c, 9, 42, 106
1, 303725, Note_on_c, 9, 42, 0
1, 303839, Note_on_c, 9, 36, 0
1, 303840, Note_on_c, 9, 38, 127
1, 303840, Note_on_c, 9, 42, 106
1, 303845, Note_on_c, 9, 42, 0
1, 303959, Note_on_c, 9, 38, 0
1, 303960, Note_on_c, 9, 42, 106
1, 303965, Note_on_c, 9, 42, 0
1, 304080, Note_on_c, 9, 42, 106
1, 304085, Note_on_c, 9, 42, 0
1, 304200, Note_on_c, 9, 42, 106
1, 304205, Note_on_c, 9, 42, 0
1, 304320, Note_on_c, 9, 42, 106
1, 304320, Note_on_c, 9, 36, 106
1, 304325, Note_on_c, 9, 42, 0
1, 304440, Note_on_c, 9, 42, 106
1, 304445, Note_on_c, 9, 42, 0
1, 304560, Note_on_c, 9, 42, 106
1, 304565, Note_on_c, 9, 42, 0
1, 304680, Note_on_c, 9, 42, 106
1, 304685, Note_on_c, 9, 42, 0
1, 304799, Note_on_c, 9, 36, 0
1, 304800, Note_on_c, 9, 38, 127
1, 304800, Note_on_c, 9, 42, 106
1, 304805, Note_on_c, 9, 42, 0
1, 304919, Note_on_c, 9, 38, 0
1, 304920, Note_on_c, 9, 42, 106
1, 304925, Note_on_c, 9, 42, 0
1, 305040, Note_on_c, 9, 42, 106
1, 305045, Note_on_c, 9, 42, 0
1, 305160, Note_on_c, 9, 42, 106
1, 305165, Note_on_c, 9, 42, 0
1, 305280, Note_on_c, 9, 42, 106
1, 305280, Note_on_c, 9, 36, 106
1, 305285, Note_on_c, 9, 42, 0
1, 305400, Note_on_c, 9, 42, 106
1, 305405, Note_on_c, 9, 42, 0
1, 305520, Note_on_c, 9, 42, 106
1, 305525, Note_on_c, 9, 42, 0
1, 305640, Note_on_c, 9, 42, 106
1, 305645, Note_on_c, 9, 42, 0
1, 305759, Note_on_c, 9, 36, 0
1, 305760, Note_on_c, 9, 38, 127
1, 305760, Note_on_c, 9, 42, 106
1, 305765, Note_on_c, 9, 42, 0
1, 305879, Note_on_c, 9, 38, 0
1, 305880, Note_on_c, 9, 42, 106
1, 305885, Note_on_c, 9, 42, 0
1, 306000, Note_on_c, 9, 42, 106
1, 306005, Note_on_c, 9, 42, 0
1, 306120, Note_on_c, 9, 42, 106
1, 306125, Note_on_c, 9, 42, 0
1, 306240, Note_on_c, 9, 42, 106
1, 306240, Note_on_c, 9, 36, 106
1, 306245, Note_on_c, 9, 42, 0
1, 306360, Note_on_c, 9, 42, 106
1, 306365, Note_on_c, 9, 42, 0
1, 306480, Note_on_c, 9, 42, 106
1, 306485, Note_on_c, 9, 42, 0
1, 306600, Note_on_c, 9, 42, 106
1, 306605, Note_on_c, 9, 42, 0
1, 306719, Note_on_c, 9, 36, 0
1, 306720, Note_on_c, 9, 38, 127
1, 306720, Note_on_c, 9, 42, 106
1, 306725, Note_on_c, 9, 42, 0
1, 306839, Note_on_c, 9, 38, 0
1, 306840, Note_on_c, 9, 42, 106
1, 306845, Note_on_c, 9, 42, 0
1, 306960, Note_on_c, 9, 42, 106
1, 306965, Note_on_c, 9, 42, 0
1, 307080, Note_on_c, 9, 42, 106
1, 307085, Note_on_c, 9, 42, 0
1, 307200, Note_on_c, 9, 42, 106
1, 307200, Note_on_c, 9, 36, 106
1, 307205, Note_on_c, 9, 42, 0
1, 307320, Note_on_c, 9, 42, 106
1, 307325, Note_on_c, 9, 42, 0
1, 307440, Note_on_c, 9, 42, 106
1, 307445, Note_on_c, 9, 42, 0
1, 307560, Note_on_c, 9, 42, 106
1, 307565, Note_on_c, 9, 42, 0
1, 307679, Note_on_c, 9, 36, 0
1, 307680, Note_on_c, 9, 38, 127
1, 307680, Note_on_c, 9, 42, 106
1, 307685, Note_on_c, 9, 42, 0
1, 307799, Note_on_c, 9, 38, 0
1, 307800, Note_on_c, 9, 42, 106
1, 307805, Note_on_c, 9, 42, 0
1, 307920, Note_on_c, 9, 42, 106
1, 307925, Note_on_c, 9, 42, 0
1, 308040, Note_on_c, 9, 42, 106
1, 308045, Note_on_c, 9, 42, 0
1, 308160, Note_on_c, 9, 42, 106
1, 308160, Note_on_c, 9, 36, 106
1, 308165, Note_on_c, 9, 42, 0
1, 308280, Note_on_c, 9, 42, 106
1, 308285, Note_on_c, 9, 42, 0
1, 308400, Note_on_c, 9, 42, 106
1, 308405, Note_on_c, 9, 42, 0
1, 308520, Note_on_c, 9, 42, 106
1, 308525, Note_on_c, 9, 42, 0
1, 308639, Note_on_c, 9, 36, 0
1, 308640, Note_on_c, 9, 38, 127
1, 308640, Note_on_c, 9, 42, 106
1, 308645, Note_on_c, 9, 42, 0
1, 308759, Note_on_c, 9, 38, 0
1, 308760, Note_on_c, 9, 42, 106
1, 308765, Note_on_c, 9, 42, 0
1, 308880, Note_on_c, 9, 42, 106
1, 308885, Note_on_c, 9, 42, 0
1, 309000, Note_on_c, 9, 38, 106
1, 309000, Note_on_c, 9, 42, 106
1, 309005, Note_on_c, 9, 42, 0
1, 309119, Note_on_c, 9, 38, 0
1, 309120, Note_on_c, 9, 42, 106
1, 309120, Note_on_c, 9, 49, 106
1, 309120, Note_on_c, 9, 36, 106
1, 309125, Note_on_c, 9, 42, 0
1, 309125, Note_on_c, 9, 49, 0
1, 309240, Note_on_c, 9, 42, 106
1, 309245, Note_on_c, 9, 42, 0
1, 309360, Note_on_c, 9, 42, 106
1, 309365, Note_on_c, 9, 42, 0
1, 309480, Note_on_c, 9, 42, 106
1, 309485, Note_on_c, 9, 42, 0
1, 309599, Note_on_c, 9, 36, 0
1, 309600, Note_on_c, 9, 38, 127
1, 309600, Note_on_c, 9, 42, 106
1, 309605, Note_on_c, 9, 42, 0
1, 309719, Note_on_c, 9, 38, 0
1, 309720, Note_on_c, 9, 42, 106
1, 309725, Note_on_c, 9, 42, 0
1, 309840, Note_on_c, 9, 42, 106
1, 309845, Note_on_c, 9, 42, 0
1, 309960, Note_on_c, 9, 42, 106
1, 309965, Note_on_c, 9, 42, 0
1, 310080, Note_on_c, 9, 42, 106
1, 310080, Note_on_c, 9, 36, 106
1, 310085, Note_on_c, 9, 42, 0
1, 310200, Note_on_c, 9, 42, 106
1, 310205, Note_on_c, 9, 42, 0
1, 310320, Note_on_c, 9, 42, 106
1, 310325, Note_on_c, 9, 42, 0
1, 310440, Note_on_c, 9, 42, 106
1, 310445, Note_on_c, 9, 42, 0
1, 310559, Note_on_c, 9, 36, 0
1, 310560, Note_on_c, 9, 38, 127
1, 310560, Note_on_c, 9, 42, 106
1, 310565, Note_on_c, 9, 42, 0
1, 310679, Note_on_c, 9, 38, 0
1, 310680, Note_on_c, 9, 42, 106
1, 310685, Note_on_c, 9, 42, 0
1, 310800, Note_on_c, 9, 42, 106
1, 310805, Note_on_c, 9, 42, 0
1, 310920, Note_on_c, 9, 38, 106
1, 310920, Note_on_c, 9, 42, 106
1, 310925, Note_on_c, 9, 42, 0
1, 311039, Note_on_c, 9, 38, 0
1, 311040, Note_on_c, 9, 42, 106
1, 311040, Note_on_c, 9, 49, 106
1, 311040, Note_on_c, 9, 36, 106
1, 311045, Note_on_c, 9, 42, 0
1, 311045, Note_on_c, 9, 49, 0
1, 311160, Note_on_c, 9, 42, 106
1, 311165, Note_on_c, 9, 42, 0
1, 311280, Note_on_c, 9, 42, 106
1, 311285, Note_on_c, 9, 42, 0
1, 311400, Note_on_c, 9, 42, 106
1, 311405, Note_on_c, 9, 42, 0
1, 311519, Note_on_c, 9, 36, 0
1, 311520, Note_on_c, 9, 38, 127
1, 311520, Note_on_c, 9, 42, 106
1, 311525, Note_on_c, 9, 42, 0
1, 311639, Note_on_c, 9, 38, 0
1, 311640, Note_on_c, 9, 42, 106
1, 311645, Note_on_c, 9, 42, 0
1, 311760, Note_on_c, 9, 42, 106
1, 311765, Note_on_c, 9, 42, 0
1, 311880, Note_on_c, 9, 42, 106
1, 311885, Note_on_c, 9, 42, 0
1, 312000, Note_on_c, 9, 42, 106
1, 312000, Note_on_c, 9, 49, 106
1, 312000, Note_on_c, 9, 36, 106
1, 312005, Note_on_c, 9, 42, 0
1, 312005, Note_on_c, 9, 49, 0
1, 312120, Note_on_c, 9, 42, 106
1, 312125, Note_on_c, 9, 42, 0
1, 312240, Note_on_c, 9, 42, 106
1, 312245, Note_on_c, 9, 42, 0
1, 312360, Note_on_c, 9, 42, 106
1, 312365, Note_on_c, 9, 42, 0
1, 312479, Note_on_c, 9, 36, 0
1, 312480, Note_on_c, 9, 38, 127
1, 312480, Note_on_c, 9, 42, 106
1, 312485, Note_on_c, 9, 42, 0
1, 312599, Note_on_c, 9, 38, 0
1, 312600, Note_on_c, 9, 42, 106
1, 312605, Note_on_c, 9, 42, 0
1, 312720, Note_on_c, 9, 42, 106
1, 312725, Note_on_c, 9, 42, 0
1, 312840, Note_on_c, 9, 38, 106
1, 312840, Note_on_c, 9, 42, 106
1, 312845, Note_on_c, 9, 42, 0
1, 312959, Note_on_c, 9, 38, 0
1, 312960, Note_on_c, 9, 42, 106
1, 312960, Note_on_c, 9, 49, 106
1, 312960, Note_on_c, 9, 36, 106
1, 312965, Note_on_c, 9, 42, 0
1, 312965, Note_on_c, 9, 49, 0
1, 313080, Note_on_c, 9, 42, 106
1, 313085, Note_on_c, 9, 42, 0
1, 313200, Note_on_c, 9, 42, 106
1, 313205, Note_on_c, 9, 42, 0
1, 313320, Note_on_c, 9, 42, 106
1, 313325, Note_on_c, 9, 42, 0
1, 313439, Note_on_c, 9, 36, 0
1, 313440, Note_on_c, 9, 38, 127
1, 313440, Note_on_c, 9, 42, 106
1, 313445, Note_on_c, 9, 42, 0
1, 313559, Note_on_c, 9, 38, 0
1, 313560, Note_on_c, 9, 42, 106
1, 313565, Note_on_c, 9, 42, 0
1, 313680, Note_on_c, 9, 42, 106
1, 313685, Note_on_c, 9, 42, 0
1, 313800, Note_on_c, 9, 42, 106
1, 313805, Note_on_c, 9, 42, 0
1, 313920, Note_on_c, 9, 42, 106
1, 313920, Note_on_c, 9, 36, 106
1, 313925, Note_on_c, 9, 42, 0
1, 314040, Note_on_c, 9, 42, 106
1, 314045, Note_on_c, 9, 42, 0
1, 314160, Note_on_c, 9, 42, 106
1, 314165, Note_on_c, 9, 42, 0
1, 314280, Note_on_c, 9, 42, 106
1, 314285, Note_on_c, 9, 42, 0
1, 314399, Note_on_c, 9, 36, 0
1, 314400, Note_on_c, 9, 38, 127
1, 314400, Note_on_c, 9, 42, 106
1, 314405, Note_on_c, 9, 42, 0
1, 314519, Note_on_c, 9, 38, 0
1, 314520, Note_on_c, 9, 42, 106
1, 314525, Note_on_c, 9, 42, 0
1, 314640, Note_on_c, 9, 42, 106
1, 314645, Note_on_c, 9, 42, 0
1, 314760, Note_on_c, 9, 42, 106
1, 314765, Note_on_c, 9, 42, 0
1, 314880, Note_on_c, 9, 42, 106
1, 314880, Note_on_c, 9, 36, 106
1, 314885, Note_on_c, 9, 42, 0
1, 315000, Note_on_c, 9, 42, 106
1, 315005, Note_on_c, 9, 42, 0
1, 315120, Note_on_c, 9, 42, 106
1, 315125, Note_on_c, 9, 42, 0
1, 315240, Note_on_c, 9, 42, 106
1, 315245, Note_on_c, 9, 42, 0
1, 315359, Note_on_c, 9, 36, 0
1, 315360, Note_on_c, 9, 38, 127
1, 315360, Note_on_c, 9, 42, 106
1, 315365, Note_on_c, 9, 42, 0
1, 315479, Note_on_c, 9, 38, 0
1, 315480, Note_on_c, 9, 42, 106
1, 315485, Note_on_c, 9, 42, 0
1, 315600, Note_on_c, 9, 42, 106
1, 315605, Note_on_c, 9, 42, 0
1, 315720, Note_on_c, 9, 42, 106
1, 315725, Note_on_c, 9, 42, 0
1, 315840, Note_on_c, 9, 42, 106
1, 315840, Note_on_c, 9, 36, 106
1, 315845, Note_on_c, 9, 42, 0
1, 315960, Note_on_c, 9, 42, 106
1, 315965, Note_on_c, 9, 42, 0
1, 316080, Note_on_c, 9, 42, 106
1, 316085, Note_on_c, 9, 42, 0
1, 316200, Note_on_c, 9, 42, 106
1, 316205, Note_on_c, 9, 42, 0
1, 316319, Note_on_c, 9, 36, 0
1, 316320, Note_on_c, 9, 38, 127
1, 316320, Note_on_c, 9, 42, 106
1, 316325, Note_on_c, 9, 42, 0
1, 316439, Note_on_c, 9, 38, 0
1, 316440, Note_on_c, 9, 42, 106
1, 316445, Note_on_c, 9, 42, 0
1, 316560, Note_on_c, 9, 42, 106
1, 316565, Note_on_c, 9, 42, 0
1, 316680, Note_on_c, 9, 42, 106
1, 316685, Note_on_c, 9, 42, 0
1, 316800, Note_on_c, 9, 42, 106
1, 316800, Note_on_c, 9, 36, 106
1, 316805, Note_on_c, 9, 42, 0
1, 316920, Note_on_c, 9, 42, 106
1, 316925, Note_on_c, 9, 42, 0
1, 317040, Note_on_c, 9, 42, 106
1, 317045, Note_on_c, 9, 42, 0
1, 317160, Note_on_c, 9, 42, 106
1, 317165, Note_on_c, 9, 42, 0
1, 317279, Note_on_c, 9, 36, 0
1, 317280, Note_on_c, 9, 38, 127
1, 317280, Note_on_c, 9, 42, 106
1, 317285, Note_on_c, 9, 42, 0
1, 317399, Note_on_c, 9, 38, 0
1, 317400, Note_on_c, 9, 42, 106
1, 317405, Note_on_c, 9, 42, 0
1, 317520, Note_on_c, 9, 42, 106
1, 317525, Note_on_c, 9, 42, 0
1, 317640, Note_on_c, 9, 42, 106
1, 317645, Note_on_c, 9, 42, 0
1, 317760, Note_on_c, 9, 42, 106
1, 317760, Note_on_c, 9, 36, 106
1, 317765, Note_on_c, 9, 42, 0
1, 317880, Note_on_c, 9, 42, 106
1, 317885, Note_on_c, 9, 42, 0
1, 318000, Note_on_c, 9, 42, 106
1, 318005, Note_on_c, 9, 42, 0
1, 318120, Note_on_c, 9, 42, 106
1, 318125, Note_on_c, 9, 42, 0
1, 318239, Note_on_c, 9, 36, 0
1, 318240, Note_on_c, 9, 38, 127
1, 318240, Note_on_c, 9, 42, 106
1, 318245, Note_on_c, 9, 42, 0
1, 318359, Note_on_c, 9, 38, 0
1, 318360, Note_on_c, 9, 42, 106
1, 318365, Note_on_c, 9, 42, 0
1, 318480, Note_on_c, 9, 42, 106
1, 318485, Note_on_c, 9, 42, 0
1, 318600, Note_on_c, 9, 42, 106
1, 318605, Note_on_c, 9, 42, 0
1, 318720, Note_on_c, 9, 42, 106
1, 318720, Note_on_c, 9, 36, 106
1, 318725, Note_on_c, 9, 42, 0
1, 318840, Note_on_c, 9, 42, 106
1, 318845, Note_on_c, 9, 42, 0
1, 318960, Note_on_c, 9, 42, 106
1, 318965, Note_on_c, 9, 42, 0
1, 319080, Note_on_c, 9, 42, 106
1, 319085, Note_on_c, 9, 42, 0
1, 319199, Note_on_c, 9, 36, 0
1, 319200, Note_on_c, 9, 38, 127
1, 319200, Note_on_c, 9, 42, 106
1, 319205, Note_on_c, 9, 42, 0
1, 319319, Note_on_c, 9, 38, 0
1, 319320, Note_on_c, 9, 42, 106
1, 319325, Note_on_c, 9, 42, 0
1, 319440, Note_on_c, 9, 42, 106
1, 319445, Note_on_c, 9, 42, 0
1, 319560, Note_on_c, 9, 42, 106
1, 319565, Note_on_c, 9, 42, 0
1, 319680, Note_on_c, 9, 42, 106
1, 319680, Note_on_c, 9, 36, 106
1, 319685, Note_on_c, 9, 42, 0
1, 319800, Note_on_c, 9, 42, 106
1, 319805, Note_on_c, 9, 42, 0
1, 319920, Note_on_c, 9, 42, 106
1, 319925, Note_on_c, 9, 42, 0
1, 320040, Note_on_c, 9, 42, 106
1, 320045, Note_on_c, 9, 42, 0
1, 320159, Note_on_c, 9, 36, 0
1, 320160, Note_on_c, 9, 38, 127
1, 320160, Note_on_c, 9, 42, 106
1, 320165, Note_on_c, 9, 42, 0
1, 320279, Note_on_c, 9, 38, 0
1, 320280, Note_on_c, 9, 42, 106
1, 320285, Note_on_c, 9, 42, 0
1, 320400, Note_on_c, 9, 42, 106
1, 320405, Note_on_c, 9, 42, 0
1, 320520, Note_on_c, 9, 42, 106
1, 320525, Note_on_c, 9, 42, 0
1, 320640, Note_on_c, 9, 42, 106
1, 320640, Note_on_c, 9, 36, 106
1, 320645, Note_on_c, 9, 42, 0
1, 320760, Note_on_c, 9, 42, 106
1, 320765, Note_on_c, 9, 42, 0
1, 320880, Note_on_c, 9, 42, 106
1, 320885, Note_on_c, 9, 42, 0
1, 321000, Note_on_c, 9, 42, 106
1, 321005, Note_on_c, 9, 42, 0
1, 321119, Note_on_c, 9, 36, 0
1, 321120, Note_on_c, 9, 38, 127
1, 321120, Note_on_c, 9, 42, 106
1, 321125, Note_on_c, 9, 42, 0
1, 321239, Note_on_c, 9, 38, 0
1, 321240, Note_on_c, 9, 42, 106
1, 321245, Note_on_c, 9, 42, 0
1, 321360, Note_on_c, 9, 42, 106
1, 321365, Note_on_c, 9, 42, 0
1, 321480, Note_on_c, 9, 42, 106
1, 321485, Note_on_c, 9, 42, 0
1, 321600, Note_on_c, 9, 42, 106
1, 321600, Note_on_c, 9, 36, 106
1, 321605, Note_on_c, 9, 42, 0
1, 321720, Note_on_c, 9, 42, 106
1, 321725, Note_on_c, 9, 42, 0
1, 321840, Note_on_c, 9, 42, 106
1, 321845, Note_on_c, 9, 42, 0
1, 321960, Note_on_c, 9, 42, 106
1, 321965, Note_on_c, 9, 42, 0
1, 322079, Note_on_c, 9, 36, 0
1, 322080, Note_on_c, 9, 38, 127
1, 322080, Note_on_c, 9, 42, 106
1, 322085, Note_on_c, 9, 42, 0
1, 322199, Note_on_c, 9, 38, 0
1, 322200, Note_on_c, 9, 42, 106
1, 322205, Note_on_c, 9, 42, 0
1, 322320, Note_on_c, 9, 42, 106
1, 322325, Note_on_c, 9, 42, 0
1, 322440, Note_on_c, 9, 42, 106
1, 322445, Note_on_c, 9, 42, 0
1, 322560, Note_on_c, 9, 42, 106
1, 322560, Note_on_c, 9, 36, 106
1, 322565, Note_on_c, 9, 42, 0
1, 322680, Note_on_c, 9, 42, 106
1, 322685, Note_on_c, 9, 42, 0
1, 322800, Note_on_c, 9, 42, 106
1, 322805, Note_on_c, 9, 42, 0
1, 322920, Note_on_c, 9, 42, 106
1, 322925, Note_on_c, 9, 42, 0
1, 323039, Note_on_c, 9, 36, 0
1, 323040, Note_on_c, 9, 38, 127
1, 323040, Note_on_c, 9, 42, 106
1, 323045, Note_on_c, 9, 42, 0
1, 323159, Note_on_c, 9, 38, 0
1, 323160, Note_on_c, 9, 42, 106
1, 323165, Note_on_c, 9, 42, 0
1, 323280, Note_on_c, 9, 42, 106
1, 323285, Note_on_c, 9, 42, 0
1, 323400, Note_on_c, 9, 42, 106
1, 323405, Note_on_c, 9, 42, 0
1, 323520, Note_on_c, 9, 42, 106
1, 323520, Note_on_c, 9, 36, 106
1, 323525, Note_on_c, 9, 42, 0
1, 323640, Note_on_c, 9, 42, 106
1, 323645, Note_on_c, 9, 42, 0
1, 323760, Note_on_c, 9, 42, 106
1, 323765, Note_on_c, 9, 42, 0
1, 323880, Note_on_c, 9, 42, 106
1, 323885, Note_on_c, 9, 42, 0
1, 323999, Note_on_c, 9, 36, 0
1, 324000, Note_on_c, 9, 38, 127
1, 324000, Note_on_c, 9, 42, 106
1, 324005, Note_on_c, 9, 42, 0
1, 324119, Note_on_c, 9, 38, 0
1, 324120, Note_on_c, 9, 42, 106
1, 324125, Note_on_c, 9, 42, 0
1, 324240, Note_on_c, 9, 42, 106
1, 324245, Note_on_c, 9, 42, 0
1, 324360, Note_on_c, 9, 38, 106
1, 324360, Note_on_c, 9, 42, 106
1, 324365, Note_on_c, 9, 42, 0
1, 324479, Note_on_c, 9, 38, 0
1, 324480, Note_on_c, 9, 42, 106
1, 324480, Note_on_c, 9, 49, 106
1, 324480, Note_on_c, 9, 36, 106
1, 324485, Note_on_c, 9, 42, 0
1, 324485, Note_on_c, 9, 49, 0
1, 324600, Note_on_c, 9, 42, 106
1, 324605, Note_on_c, 9, 42, 0
1, 324720, Note_on_c, 9, 42, 106
1, 324725, Note_on_c, 9, 42, 0
1, 324840, Note_on_c, 9, 42, 106
1, 324845, Note_on_c, 9, 42, 0
1, 324959, Note_on_c, 9, 36, 0
1, 324960, Note_on_c, 9, 38, 127
1, 324960, Note_on_c, 9, 42, 106
1, 324965, Note_on_c, 9, 42, 0
1, 325079, Note_on_c, 9, 38, 0
1, 325080, Note_on_c, 9, 42, 106
1, 325085, Note_on_c, 9, 42, 0
1, 325200, Note_on_c, 9, 42, 106
1, 325205, Note_on_c, 9, 42, 0
1, 325320, Note_on_c, 9, 42, 106
1, 325325, Note_on_c, 9, 42, 0
1, 325440, Note_on_c, 9, 42, 106
1, 325440, Note_on_c, 9, 36, 106
1, 325445, Note_on_c, 9, 42, 0
1, 325560, Note_on_c, 9, 42, 106
1, 325565, Note_on_c, 9, 42, 0
1, 325680, Note_on_c, 9, 42, 106
1, 325685, Note_on_c, 9, 42, 0
1, 325800, Note_on_c, 9, 42, 106
1, 325805, Note_on_c, 9, 42, 0
1, 325919, Note_on_c, 9, 36, 0
1, 325920, Note_on_c, 9, 38, 127
1, 325920, Note_on_c, 9, 42, 106
1, 325925, Note_on_c, 9, 42, 0
1, 326039, Note_on_c, 9, 38, 0
1, 326040, Note_on_c, 9, 42, 106
1, 326045, Note_on_c, 9, 42, 0
1, 326160, Note_on_c, 9, 42, 106
1, 326165, Note_on_c, 9, 42, 0
1, 326280, Note_on_c, 9, 38, 106
1, 326280, Note_on_c, 9, 42, 106
1, 326285, Note_on_c, 9, 42, 0
1, 326399, Note_on_c, 9, 38, 0
1, 326400, Note_on_c, 9, 42, 106
1, 326400, Note_on_c, 9, 49, 106
1, 326400, Note_on_c, 9, 36, 106
1, 326405, Note_on_c, 9, 42, 0
1, 326405, Note_on_c, 9, 49, 0
1, 326520, Note_on_c, 9, 42, 106
1, 326525, Note_on_c, 9, 42, 0
1, 326640, Note_on_c, 9, 42, 106
1, 326645, Note_on_c, 9, 42, 0
1, 326760, Note_on_c, 9, 42, 106
1, 326765, Note_on_c, 9, 42, 0
1, 326879, Note_on_c, 9, 36, 0
1, 326880, Note_on_c, 9, 38, 127
1, 326880, Note_on_c, 9, 42, 106
1, 326885, Note_on_c, 9, 42, 0
1, 326999, Note_on_c, 9, 38, 0
1, 327000, Note_on_c, 9, 42, 106
1, 327005, Note_on_c, 9, 42, 0
1, 327120, Note_on_c, 9, 42, 106
1, 327125, Note_on_c, 9, 42, 0
1, 327240, Note_on_c, 9, 42, 106
1, 327245, Note_on_c, 9, 42, 0
1, 327360, Note_on_c, 9, 42, 106
1, 327360, Note_on_c, 9, 36, 106
1, 327365, Note_on_c, 9, 42, 0
1, 327480, Note_on_c, 9, 42, 106
1, 327485, Note_on_c, 9, 42, 0
1, 327600, Note_on_c, 9, 42, 106
1, 327605, Note_on_c, 9, 42, 0
1, 327720, Note_on_c, 9, 42, 106
1, 327725, Note_on_c, 9, 42, 0
1, 327839, Note_on_c, 9, 36, 0
1, 327840, Note_on_c, 9, 38, 127
1, 327840, Note_on_c, 9, 42, 106
1, 327845, Note_on_c, 9, 42, 0
1, 327959, Note_on_c, 9, 38, 0
1, 327960, Note_on_c, 9, 42, 106
1, 327965, Note_on_c, 9, 42, 0
1, 328080, Note_on_c, 9, 42, 106
1, 328085, Note_on_c, 9, 42, 0
1, 328200, Note_on_c, 9, 38, 106
1, 328200, Note_on_c, 9, 42, 106
1, 328205, Note_on_c, 9, 42, 0
1, 328319, Note_on_c, 9, 38, 0
1, 328320, Note_on_c, 9, 42, 106
1, 328320, Note_on_c, 9, 49, 106
1, 328320, Note_on_c, 9, 36, 106
1, 328325, Note_on_c, 9, 42, 0
1, 328325, Note_on_c, 9, 49, 0
1, 328440, Note_on_c, 9, 42, 106
1, 328445, Note_on_c, 9, 42, 0
1, 328560, Note_on_c, 9, 42, 106
1, 328565, Note_on_c, 9, 42, 0
1, 328680, Note_on_c, 9, 42, 106
1, 328685, Note_on_c, 9, 42, 0
1, 328799, Note_on_c, 9, 36, 0
1, 328800, Note_on_c, 9, 38, 127
1, 328800, Note_on_c, 9, 42, 106
1, 328805, Note_on_c, 9, 42, 0
1, 328919, Note_on_c, 9, 38, 0
1, 328920, Note_on_c, 9, 42, 106
1, 328925, Note_on_c, 9, 42, 0
1, 329040, Note_on_c, 9, 42, 106
1, 329045, Note_on_c, 9, 42, 0
1, 329160, Note_on_c, 9, 42, 106
1, 329165, Note_on_c, 9, 42, 0
1, 329280, Note_on_c, 9, 42, 106
1, 329280, Note_on_c, 9, 36, 106
1, 329285, Note_on_c, 9, 42, 0
1, 329400, Note_on_c, 9, 42, 106
1, 329405, Note_on_c, 9, 42, 0
1, 329520, Note_on_c, 9, 42, 106
1, 329525, Note_on_c, 9, 42, 0
1, 329640, Note_on_c, 9, 42, 106
1, 329645, Note_on_c, 9, 42, 0
1, 329759, Note_on_c, 9, 36, 0
1, 329760, Note_on_c, 9, 38, 127
1, 329760, Note_on_c, 9, 42, 106
1, 329765, Note_on_c, 9, 42, 0
1, 329879, Note_on_c, 9, 38, 0
1, 329880, Note_on_c, 9, 42, 106
1, 329885, Note_on_c, 9, 42, 0
1, 330000, Note_on_c, 9, 42, 106
1, 330005, Note_on_c, 9, 42, 0
1, 330120, Note_on_c, 9, 42, 106
1, 330125, Note_on_c, 9, 42, 0
1, 330240, Note_on_c, 9, 42, 106
1, 330240, Note_on_c, 9, 36, 106
1, 330245, Note_on_c, 9, 42, 0
1, 330360, Note_on_c, 9, 42, 106
1, 330365, Note_on_c, 9, 42, 0
1, 330480, Note_on_c, 9, 42, 106
1, 330485, Note_on_c, 9, 42, 0
1, 330600, Note_on_c, 9, 42, 106
1, 330605, Note_on_c, 9, 42, 0
1, 330719, Note_on_c, 9, 36, 0
1, 330720, Note_on_c, 9, 38, 127
1, 330720, Note_on_c, 9, 42, 106
1, 330725, Note_on_c, 9, 42, 0
1, 330839, Note_on_c, 9, 38, 0
1, 330840, Note_on_c, 9, 42, 106
1, 330845, Note_on_c, 9, 42, 0
1, 330960, Note_on_c, 9, 42, 106
1, 330965, Note_on_c, 9, 42, 0
1, 331080, Note_on_c, 9, 42, 106
1, 331085, Note_on_c, 9, 42, 0
1, 331200, Note_on_c, 9, 42, 106
1, 331200, Note_on_c, 9, 36, 106
1, 331205, Note_on_c, 9, 42, 0
1, 331320, Note_on_c, 9, 42, 106
1, 331325, Note_on_c, 9, 42, 0
1, 331440, Note_on_c, 9, 42, 106
1, 331445, Note_on_c, 9, 42, 0
1, 331560, Note_on_c, 9, 42, 106
1, 331565, Note_on_c, 9, 42, 0
1, 331679, Note_on_c, 9, 36, 0
1, 331680, Note_on_c, 9, 38, 127
1, 331680, Note_on_c, 9, 42, 106
1, 331685, Note_on_c, 9, 42, 0
1, 331799, Note_on_c, 9, 38, 0
1, 331800, Note_on_c, 9, 42, 106
1, 331805, Note_on_c, 9, 42, 0
1, 331920, Note_on_c, 9, 42, 106
1, 331925, Note_on_c, 9, 42, 0
1, 332040, Note_on_c, 9, 42, 106
1, 332045, Note_on_c, 9, 42, 0
1, 332160, Note_on_c, 9, 42, 106
1, 332160, Note_on_c, 9, 36, 106
1, 332165, Note_on_c, 9, 42, 0
1, 332280, Note_on_c, 9, 42, 106
1, 332285, Note_on_c, 9, 42, 0
1, 332400, Note_on_c, 9, 42, 106
1, 332405, Note_on_c, 9, 42, 0
1, 332520, Note_on_c, 9, 42, 106
1, 332525, Note_on_c, 9, 42, 0
1, 332639, Note_on_c, 9, 36, 0
1, 332640, Note_on_c, 9, 38, 127
1, 332640, Note_on_c, 9, 42, 106
1, 332645, Note_on_c, 9, 42, 0
1, 332759, Note_on_c, 9, 38, 0
1, 332760, Note_on_c, 9, 42, 106
1, 332765, Note_on_c, 9, 42, 0
1, 332880, Note_on_c, 9, 42, 106
1, 332885, Note_on_c, 9, 42, 0
1, 333000, Note_on_c, 9, 42, 106
1, 333005, Note_on_c, 9, 42, 0
1, 333120, Note_on_c, 9, 42, 106
1, 333120, Note_on_c, 9, 36, 106
1, 333125, Note_on_c, 9, 42, 0
1, 333240, Note_on_c, 9, 42, 106
1, 333245, Note_on_c, 9, 42, 0
1, 333360, Note_on_c, 9, 42, 106
1, 333365, Note_on_c, 9, 42, 0
1, 333480, Note_on_c, 9, 42, 106
1, 333485, Note_on_c, 9, 42, 0
1, 333599, Note_on_c, 9, 36, 0
1, 333600, Note_on_c, 9, 38, 127
1, 333600, Note_on_c, 9, 42, 106
1, 333605, Note_on_c, 9, 42, 0
1, 333719, Note_on_c, 9, 38, 0
1, 333720, Note_on_c, 9, 42, 106
1, 333725, Note_on_c, 9, 42, 0
1, 333840, Note_on_c, 9, 42, 106
1, 333845, Note_on_c, 9, 42, 0
1, 333960, Note_on_c, 9, 42, 106
1, 333965, Note_on_c, 9, 42, 0
1, 334080, Note_on_c, 9, 42, 106
1, 334080, Note_on_c, 9, 36, 106
1, 334085, Note_on_c, 9, 42, 0
1, 334200, Note_on_c, 9, 42, 106
1, 334205, Note_on_c, 9, 42, 0
1, 334320, Note_on_c, 9, 42, 106
1, 334325, Note_on_c, 9, 42, 0
1, 334440, Note_on_c, 9, 42, 106
1, 334445, Note_on_c, 9, 42, 0
1, 334559, Note_on_c, 9, 36, 0
1, 334560, Note_on_c, 9, 38, 127
1, 334560, Note_on_c, 9, 42, 106
1, 334565, Note_on_c, 9, 42, 0
1, 334679, Note_on_c, 9, 38, 0
1, 334680, Note_on_c, 9, 42, 106
1, 334685, Note_on_c, 9, 42, 0
1, 334800, Note_on_c, 9, 42, 106
1, 334805, Note_on_c, 9, 42, 0
1, 334920, Note_on_c, 9, 42, 106
1, 334925, Note_on_c, 9, 42, 0
1, 335040, Note_on_c, 9, 42, 106
1, 335040, Note_on_c, 9, 36, 106
1, 335045, Note_on_c, 9, 42, 0
1, 335160, Note_on_c, 9, 42, 106
1, 335165, Note_on_c, 9, 42, 0
1, 335280, Note_on_c, 9, 42, 106
1, 335285, Note_on_c, 9, 42, 0
1, 335400, Note_on_c, 9, 42, 106
1, 335405, Note_on_c, 9, 42, 0
1, 335519, Note_on_c, 9, 36, 0
1, 335520, Note_on_c, 9, 38, 127
1, 335520, Note_on_c, 9, 42, 106
1, 335525, Note_on_c, 9, 42, 0
1, 335639, Note_on_c, 9, 38, 0
1, 335640, Note_on_c, 9, 42, 106
1, 335645, Note_on_c, 9, 42, 0
1, 335760, Note_on_c, 9, 42, 106
1, 335765, Note_on_c, 9, 42, 0
1, 335880, Note_on_c, 9, 42, 106
1, 335885, Note_on_c, 9, 42, 0
1, 336000, Note_on_c, 9, 42, 106
1, 336000, Note_on_c, 9, 36, 106
1, 336005, Note_on_c, 9, 42, 0
1, 336120, Note_on_c, 9, 42, 106
1, 336125, Note_on_c, 9, 42, 0
1, 336240, Note_on_c, 9, 42, 106
1, 336245, Note_on_c, 9, 42, 0
1, 336360, Note_on_c, 9, 42, 106
1, 336365, Note_on_c, 9, 42, 0
1, 336479, Note_on_c, 9, 36, 0
1, 336480, Note_on_c, 9, 38, 127
1, 336480, Note_on_c, 9, 42, 106
1, 336485, Note_on_c, 9, 42, 0
1, 336599, Note_on_c, 9, 38, 0
1, 336600, Note_on_c, 9, 42, 106
1, 336605, Note_on_c, 9, 42, 0
1, 336720, Note_on_c, 9, 42, 106
1, 336725, Note_on_c, 9, 42, 0
1, 336840, Note_on_c, 9, 42, 106
1, 336845, Note_on_c, 9, 42, 0
1, 336960, Note_on_c, 9, 42, 106
1, 336960, Note_on_c, 9, 36, 106
1, 336965, Note_on_c, 9, 42, 0
1, 337080, Note_on_c, 9, 42, 106
1, 337085, Note_on_c, 9, 42, 0
1, 337200, Note_on_c, 9, 42, 106
1, 337205, Note_on_c, 9, 42, 0
1, 337320, Note_on_c, 9, 42, 106
1, 337325, Note_on_c, 9, 42, 0
1, 337439, Note_on_c, 9, 36, 0
1, 337440, Note_on_c, 9, 38, 127
1, 337440, Note_on_c, 9, 42, 106
1, 337445, Note_on_c, 9, 42, 0
1, 337559, Note_on_c, 9, 38, 0
1, 337560, Note_on_c, 9, 42, 106
1, 337565, Note_on_c, 9, 42, 0
1, 337680, Note_on_c, 9, 42, 106
1, 337685, Note_on_c, 9, 42, 0
1, 337800, Note_on_c, 9, 42, 106
1, 337805, Note_on_c, 9, 42, 0
1, 337920, Note_on_c, 9, 42, 106
1, 337920, Note_on_c, 9, 36, 106
1, 337925, Note_on_c, 9, 42, 0
1, 338040, Note_on_c, 9, 42, 106
1, 338045, Note_on_c, 9, 42, 0
1, 338160, Note_on_c, 9, 42, 106
1, 338165, Note_on_c, 9, 42, 0
1, 338280, Note_on_c, 9, 42, 106
1, 338285, Note_on_c, 9, 42, 0
1, 338399, Note_on_c, 9, 36, 0
1, 338400, Note_on_c, 9, 38, 127
1, 338400, Note_on_c, 9, 42, 106
1, 338405, Note_on_c, 9, 42, 0
1, 338519, Note_on_c, 9, 38, 0
1, 338520, Note_on_c, 9, 42, 106
1, 338525, Note_on_c, 9, 42, 0
1, 338640, Note_on_c, 9, 42, 106
1, 338645, Note_on_c, 9, 42, 0
1, 338760, Note_on_c, 9, 42, 106
1, 338765, Note_on_c, 9, 42, 0
1, 338880, Note_on_c, 9, 42, 106
1, 338880, Note_on_c, 9, 36, 106
1, 338885, Note_on_c, 9, 42, 0
1, 339000, Note_on_c, 9, 42, 106
1, 339005, Note_on_c, 9, 42, 0
1, 339120, Note_on_c, 9, 42, 106
1, 339125, Note_on_c, 9, 42, 0
1, 339240, Note_on_c, 9, 42, 106
1, 339245, Note_on_c, 9, 42, 0
1, 339359, Note_on_c, 9, 36, 0
1, 339360, Note_on_c, 9, 38, 127
1, 339360, Note_on_c, 9, 42, 106
1, 339365, Note_on_c, 9, 42, 0
1, 339479, Note_on_c, 9, 38, 0
1, 339480, Note_on_c, 9, 42, 106
1, 339485, Note_on_c, 9, 42, 0
1, 339600, Note_on_c, 9, 42, 106
1, 339605, Note_on_c, 9, 42, 0
1, 339720, Note_on_c, 9, 38, 106
1, 339720, Note_on_c, 9, 42, 106
1, 339725, Note_on_c, 9, 42, 0
1, 339839, Note_on_c, 9, 38, 0
1, 339840, Note_on_c, 9, 42, 106
1, 339840, Note_on_c, 9, 49, 106
1, 339840, Note_on_c, 9, 36, 106
1, 339845, Note_on_c, 9, 42, 0
1, 339845, Note_on_c, 9, 49, 0
1, 339960, Note_on_c, 9, 42, 106
1, 339965, Note_on_c, 9, 42, 0
1, 340080, Note_on_c, 9, 42, 106
1, 340085, Note_on_c, 9, 42, 0
1, 340200, Note_on_c, 9, 42, 106
1, 340205, Note_on_c, 9, 42, 0
1, 340319, Note_on_c, 9, 36, 0
1, 340320, Note_on_c, 9, 38, 127
1, 340320, Note_on_c, 9, 42, 106
1, 340325, Note_on_c, 9, 42, 0
1, 340439, Note_on_c, 9, 38, 0
1, 340440, Note_on_c, 9, 42, 106
1, 340445, Note_on_c, 9, 42, 0
1, 340560, Note_on_c, 9, 42, 106
1, 340565, Note_on_c, 9, 42, 0
1, 340680, Note_on_c, 9, 42, 106
1, 340685, Note_on_c, 9, 42, 0
1, 340800, Note_on_c, 9, 42, 106
1, 340800, Note_on_c, 9, 36, 106
1, 340805, Note_on_c, 9, 42, 0
1, 340920, Note_on_c, 9, 42, 106
1, 340925, Note_on_c, 9, 42, 0
1, 341040, Note_on_c, 9, 42, 106
1, 341045, Note_on_c, 9, 42, 0
1, 341160, Note_on_c, 9, 42, 106
1, 341165, Note_on_c, 9, 42, 0
1, 341279, Note_on_c, 9, 36, 0
1, 341280, Note_on_c, 9, 38, 127
1, 341280, Note_on_c, 9, 42, 106
1, 341285, Note_on_c, 9, 42, 0
1, 341399, Note_on_c, 9, 38, 0
1, 341400, Note_on_c, 9, 42, 106
1, 341405, Note_on_c, 9, 42, 0
1, 341520, Note_on_c, 9, 42, 106
1, 341525, Note_on_c, 9, 42, 0
1, 341640, Note_on_c, 9, 38, 106
1, 341640, Note_on_c, 9, 42, 106
1, 341645, Note_on_c, 9, 42, 0
1, 341759, Note_on_c, 9, 38, 0
1, 341760, Note_on_c, 9, 42, 106
1, 341760, Note_on_c, 9, 49, 106
1, 341760, Note_on_c, 9, 36, 106
1, 341765, Note_on_c, 9, 42, 0
1, 341765, Note_on_c, 9, 49, 0
1, 341880, Note_on_c, 9, 42, 106
1, 341885, Note_on_c, 9, 42, 0
1, 342000, Note_on_c, 9, 42, 106
1, 342005, Note_on_c, 9, 42, 0
1, 342120, Note_on_c, 9, 42, 106
1, 342125, Note_on_c, 9, 42, 0
1, 342239, Note_on_c, 9, 36, 0
1, 342240, Note_on_c, 9, 38, 127
1, 342240, Note_on_c, 9, 42, 106
1, 342245, Note_on_c, 9, 42, 0
1, 342359, Note_on_c, 9, 38, 0
1, 342360, Note_on_c, 9, 42, 106
1, 342365, Note_on_c, 9, 42, 0
1, 342480, Note_on_c, 9, 42, 106
1, 342485, Note_on_c, 9, 42, 0
1, 342600, Note_on_c, 9, 42, 106
1, 342605, Note_on_c, 9, 42, 0
1, 342720, Note_on_c, 9, 42, 106
1, 342720, Note_on_c, 9, 49, 106
1, 342720, Note_on_c, 9, 36, 106
1, 342725, Note_on_c, 9, 42, 0
1, 342725, Note_on_c, 9, 49, 0
1, 342840, Note_on_c, 9, 42, 106
1, 342845, Note_on_c, 9, 42, 0
1, 342960, Note_on_c, 9, 42, 106
1, 342965, Note_on_c, 9, 42, 0
1, 343080, Note_on_c, 9, 42, 106
1, 343085, Note_on_c, 9, 42, 0
1, 343199, Note_on_c, 9, 36, 0
1, 343200, Note_on_c, 9, 38, 127
1, 343200, Note_on_c, 9, 42, 106
1, 343205, Note_on_c, 9, 42, 0
1, 343319, Note_on_c, 9, 38, 0
1, 343320, Note_on_c, 9, 42, 106
1, 343325, Note_on_c, 9, 42, 0
1, 343440, Note_on_c, 9, 42, 106
1, 343445, Note_on_c, 9, 42, 0
1, 343560, Note_on_c, 9, 38, 106
1, 343560, Note_on_c, 9, 42, 106
1, 343565, Note_on_c, 9, 42, 0
1, 343679, Note_on_c, 9, 38, 0
1, 343680, Note_on_c, 9, 42, 106
1, 343680, Note_on_c, 9, 49, 106
1, 343680, Note_on_c, 9, 36, 106
1, 343685, Note_on_c, 9, 42, 0
1, 343685, Note_on_c, 9, 49, 0
1, 343800, Note_on_c, 9, 42, 106
1, 343805, Note_on_c, 9, 42, 0
1, 343920, Note_on_c, 9, 42, 106
1, 343925, Note_on_c, 9, 42, 0
1, 344040, Note_on_c, 9, 42, 106
1, 344045, Note_on_c, 9, 42, 0
1, 344159, Note_on_c, 9, 36, 0
1, 344160, Note_on_c, 9, 38, 127
1, 344160, Note_on_c, 9, 42, 106
1, 344165, Note_on_c, 9, 42, 0
1, 344279, Note_on_c, 9, 38, 0
1, 344280, Note_on_c, 9, 42, 106
1, 344285, Note_on_c, 9, 42, 0
1, 344400, Note_on_c, 9, 42, 106
1, 344405, Note_on_c, 9, 42, 0
1, 344520, Note_on_c, 9, 42, 106
1, 344525, Note_on_c, 9, 42, 0
1, 344640, Note_on_c, 9, 42, 106
1, 344640, Note_on_c, 9, 36, 106
1, 344645, Note_on_c, 9, 42, 0
1, 344760, Note_on_c, 9, 42, 106
1, 344765, Note_on_c, 9, 42, 0
1, 344880, Note_on_c, 9, 42, 106
1, 344885, Note_on_c, 9, 42, 0
1, 345000, Note_on_c, 9, 42, 106
1, 345005, Note_on_c, 9, 42, 0
1, 345119, Note_on_c, 9, 36, 0
1, 345120, Note_on_c, 9, 38, 127
1, 345120, Note_on_c, 9, 42, 106
1, 345125, Note_on_c, 9, 42, 0
1, 345239, Note_on_c, 9, 38, 0
1, 345240, Note_on_c, 9, 42, 106
1, 345245, Note_on_c, 9, 42, 0
1, 345360, Note_on_c, 9, 42, 106
1, 345365, Note_on_c, 9, 42, 0
1, 345480, Note_on_c, 9, 42, 106
1, 345485, Note_on_c, 9, 42, 0
1, 345600, Note_on_c, 9, 42, 106
1, 345600, Note_on_c, 9, 36, 106
1, 345605, Note_on_c, 9, 42, 0
1, 345720, Note_on_c, 9, 42, 106
1, 345725, Note_on_c, 9, 42, 0
1, 345840, Note_on_c, 9, 42, 106
1, 345845, Note_on_c, 9, 42, 0
1, 345960, Note_on_c, 9, 42, 106
1, 345965, Note_on_c, 9, 42, 0
1, 346079, Note_on_c, 9, 36, 0
1, 346080, Note_on_c, 9, 38, 127
1, 346080, Note_on_c, 9, 42, 106
1, 346085, Note_on_c, 9, 42, 0
1, 346199, Note_on_c, 9, 38, 0
1, 346200, Note_on_c, 9, 42, 106
1, 346205, Note_on_c, 9, 42, 0
1, 346320, Note_on_c, 9, 42, 106
1, 346325, Note_on_c, 9, 42, 0
1, 346440, Note_on_c, 9, 42, 106
1, 346445, Note_on_c, 9, 42, 0
1, 346560, Note_on_c, 9, 42, 106
1, 346560, Note_on_c, 9, 36, 106
1, 346565, Note_on_c, 9, 42, 0
1, 346680, Note_on_c, 9, 42, 106
1, 346685, Note_on_c, 9, 42, 0
1, 346800, Note_on_c, 9, 42, 106
1, 346805, Note_on_c, 9, 42, 0
1, 346920, Note_on_c, 9, 42, 106
1, 346925, Note_on_c, 9, 42, 0
1, 347039, Note_on_c, 9, 36, 0
1, 347040, Note_on_c, 9, 38, 127
1, 347040, Note_on_c, 9, 42, 106
1, 347045, Note_on_c, 9, 42, 0
1, 347159, Note_on_c, 9, 38, 0
1, 347160, Note_on_c, 9, 42, 106
1, 347165, Note_on_c, 9, 42, 0
1, 347280, Note_on_c, 9, 42, 106
1, 347285, Note_on_c, 9, 42, 0
1, 347400, Note_on_c, 9, 38, 106
1, 347400, Note_on_c, 9, 42, 106
1, 347405, Note_on_c, 9, 42, 0
1, 347519, Note_on_c, 9, 38, 0
1, 347520, Note_on_c, 9, 42, 106
1, 347520, Note_on_c, 9, 49, 106
1, 347520, Note_on_c, 9, 36, 106
1, 347525, Note_on_c, 9, 42, 0
1, 347525, Note_on_c, 9, 49, 0
1, 347640, Note_on_c, 9, 42, 106
1, 347645, Note_on_c, 9, 42, 0
1, 347760, Note_on_c, 9, 42, 106
1, 347765, Note_on_c, 9, 42, 0
1, 347880, Note_on_c, 9, 42, 106
1, 347885, Note_on_c, 9, 42, 0
1, 347999, Note_on_c, 9, 36, 0
1, 348000, Note_on_c, 9, 38, 127
1, 348000, Note_on_c, 9, 42, 106
1, 348005, Note_on_c, 9, 42, 0
1, 348119, Note_on_c, 9, 38, 0
1, 348120, Note_on_c, 9, 42, 106
1, 348125, Note_on_c, 9, 42, 0
1, 348240, Note_on_c, 9, 42, 106
1, 348245, Note_on_c, 9, 42, 0
1, 348360, Note_on_c, 9, 42, 106
1, 348365, Note_on_c, 9, 42, 0
1, 348480, Note_on_c, 9, 42, 106
1, 348480, Note_on_c, 9, 36, 106
1, 348485, Note_on_c, 9, 42, 0
1, 348600, Note_on_c, 9, 42, 106
1, 348605, Note_on_c, 9, 42, 0
1, 348720, Note_on_c, 9, 42, 106
1, 348725, Note_on_c, 9, 42, 0
1, 348840, Note_on_c, 9, 42, 106
1, 348845, Note_on_c, 9, 42, 0
1, 348959, Note_on_c, 9, 36, 0
1, 348960, Note_on_c, 9, 38, 127
1, 348960, Note_on_c, 9, 42, 106
1, 348965, Note_on_c, 9, 42, 0
1, 349079, Note_on_c, 9, 38, 0
1, 349080, Note_on_c, 9, 42, 106
1, 349085, Note_on_c, 9, 42, 0
1, 349200, Note_on_c, 9, 42, 106
1, 349205, Note_on_c, 9, 42, 0
1, 349320, Note_on_c, 9, 42, 106
1, 349325, Note_on_c, 9, 42, 0
1, 349440, Note_on_c, 9, 42, 106
1, 349440, Note_on_c, 9, 36, 106
1, 349445, Note_on_c, 9, 42, 0
1, 349560, Note_on_c, 9, 42, 106
1, 349565, Note_on_c, 9, 42, 0
1, 349680, Note_on_c, 9, 42, 106
1, 349685, Note_on_c, 9, 42, 0
1, 349800, Note_on_c, 9, 42, 106
1, 349805, Note_on_c, 9, 42, 0
1, 349919, Note_on_c, 9, 36, 0
1, 349920, Note_on_c, 9, 38, 127
1, 349920, Note_on_c, 9, 42, 106
1, 349925, Note_on_c, 9, 42, 0
1, 350039, Note_on_c, 9, 38, 0
1, 350040, Note_on_c, 9, 42, 106
1, 350045, Note_on_c, 9, 42, 0
1, 350160, Note_on_c, 9, 42, 106
1, 350165, Note_on_c, 9, 42, 0
1, 350280, Note_on_c, 9, 42, 106
1, 350285, Note_on_c, 9, 42, 0
1, 350400, Note_on_c, 9, 42, 106
1, 350400, Note_on_c, 9, 36, 106
1, 350405, Note_on_c, 9, 42, 0
1, 350520, Note_on_c, 9, 42, 106
1, 350525, Note_on_c, 9, 42, 0
1, 350640, Note_on_c, 9, 42, 106
1, 350645, Note_on_c, 9, 42, 0
1, 350760, Note_on_c, 9, 42, 106
1, 350765, Note_on_c, 9, 42, 0
1, 350879, Note_on_c, 9, 36, 0
1, 350880, Note_on_c, 9, 38, 127
1, 350880, Note_on_c, 9, 42, 106
1, 350885, Note_on_c, 9, 42, 0
1, 350999, Note_on_c, 9, 38, 0
1, 351000, Note_on_c, 9, 42, 106
1, 351005, Note_on_c, 9, 42, 0
1, 351120, Note_on_c, 9, 42, 106
1, 351125, Note_on_c, 9, 42, 0
1, 351240, Note_on_c, 9, 38, 106
1, 351240, Note_on_c, 9, 42, 106
1, 351245, Note_on_c, 9, 42, 0
1, 351359, Note_on_c, 9, 38, 0
1, 351360, Note_on_c, 9, 42, 106
1, 351360, Note_on_c, 9, 49, 106
1, 351360, Note_on_c, 9, 36, 106
1, 351365, Note_on_c, 9, 42, 0
1, 351365, Note_on_c, 9, 49, 0
1, 351480, Note_on_c, 9, 42, 106
1, 351485, Note_on_c, 9, 42, 0
1, 351600, Note_on_c, 9, 42, 106
1, 351605, Note_on_c, 9, 42, 0
1, 351720, Note_on_c, 9, 42, 106
1, 351725, Note_on_c, 9, 42, 0
1, 351839, Note_on_c, 9, 36, 0
1, 351840, Note_on_c, 9, 38, 127
1, 351840, Note_on_c, 9, 42, 106
1, 351845, Note_on_c, 9, 42, 0
1, 351959, Note_on_c, 9, 38, 0
1, 351960, Note_on_c, 9, 42, 106
1, 351965, Note_on_c, 9, 42, 0
1, 352080, Note_on_c, 9, 42, 106
1, 352085, Note_on_c, 9, 42, 0
1, 352200, Note_on_c, 9, 42, 106
1, 352205, Note_on_c, 9, 42, 0
1, 352320, Note_on_c, 9, 42, 106
1, 352320, Note_on_c, 9, 36, 106
1, 352325, Note_on_c, 9, 42, 0
1, 352440, Note_on_c, 9, 42, 106
1, 352445, Note_on_c, 9, 42, 0
1, 352560, Note_on_c, 9, 42, 106
1, 352565, Note_on_c, 9, 42, 0
1, 352680, Note_on_c, 9, 42, 106
1, 352685, Note_on_c, 9, 42, 0
1, 352799, Note_on_c, 9, 36, 0
1, 352800, Note_on_c, 9, 38, 127
1, 352800, Note_on_c, 9, 42, 106
1, 352805, Note_on_c, 9, 42, 0
1, 352919, Note_on_c, 9, 38, 0
1, 352920, Note_on_c, 9, 42, 106
1, 352925, Note_on_c, 9, 42, 0
1, 353040, Note_on_c, 9, 42, 106
1, 353045, Note_on_c, 9, 42, 0
1, 353160, Note_on_c, 9, 42, 106
1, 353165, Note_on_c, 9, 42, 0
1, 353280, Note_on_c, 9, 42, 106
1, 353280, Note_on_c, 9, 36, 106
1, 353285, Note_on_c, 9, 42, 0
1, 353400, Note_on_c, 9, 42, 106
1, 353405, Note_on_c, 9, 42, 0
1, 353520, Note_on_c, 9, 42, 106
1, 353525, Note_on_c, 9, 42, 0
1, 353640, Note_on_c, 9, 42, 106
1, 353645, Note_on_c, 9, 42, 0
1, 353759, Note_on_c, 9, 36, 0
1, 353760, Note_on_c, 9, 38, 127
1, 353760, Note_on_c, 9, 42, 106
1, 353765, Note_on_c, 9, 42, 0
1, 353879, Note_on_c, 9, 38, 0
1, 353880, Note_on_c, 9, 42, 106
1, 353885, Note_on_c, 9, 42, 0
1, 354000, Note_on_c, 9, 42, 106
1, 354005, Note_on_c, 9, 42, 0
1, 354120, Note_on_c, 9, 42, 106
1, 354125, Note_on_c, 9, 42, 0
1, 354240, Note_on_c, 9, 42, 106
1, 354240, Note_on_c, 9, 36, 106
1, 354245, Note_on_c, 9, 42, 0
1, 354360, Note_on_c, 9, 42, 106
1, 354365, Note_on_c, 9, 42, 0
1, 354480, Note_on_c, 9, 42, 106
1, 354485, Note_on_c, 9, 42, 0
1, 354600, Note_on_c, 9, 42, 106
1, 354605, Note_on_c, 9, 42, 0
1, 354719, Note_on_c, 9, 36, 0
1, 354720, Note_on_c, 9, 42, 106
1, 354720, Note_on_c, 9, 49, 106
1, 354720, Note_on_c, 9, 36, 106
1, 354731, Note_on_c, 9, 42, 0
1, 354731, Note_on_c, 9, 49, 0
1, 354959, Note_on_c, 9, 36, 0
1, 354960, Note_on_c, 9, 42, 106
1, 354960, Note_on_c, 9, 49, 106
1, 354960, Note_on_c, 9, 36, 106
1, 354971, Note_on_c, 9, 42, 0
1, 354971, Note_on_c, 9, 49, 0
1, 355199, Note_on_c, 9, 36, 0
1, 355200, End_track
0, 0, End_of_file
