0, 0, Header, 1, 1, 480
1, 0, Start_track
1, 0, Title_t, "Drumset"
1, 0, Time_signature, 1, 2, 24, 8
1, 0, Key_signature, 0, "major"
1, 0, Tempo, 500000
1, 0, Control_c, 9, 121, 0
1, 0, Program_c, 9, 0
1, 0, Control_c, 9, 7, 100
1, 0, Control_c, 9, 10, 64
1, 0, Control_c, 9, 91, 0
1, 0, Control_c, 9, 93, 0
1, 0, MIDI_port, 0
1, 480, Time_signature, 4, 2, 24, 8
1, 6240, Note_on_c, 9, 38, 127
1, 6259, Note_on_c, 9, 38, 0
1, 6260, Note_on_c, 9, 38, 127
1, 6299, Note_on_c, 9, 38, 0
1, 6360, Note_on_c, 9, 36, 127
1, 6599, Note_on_c, 9, 36, 0
1, 6600, Note_on_c, 9, 36, 127
1, 6719, Note_on_c, 9, 36, 0
1, 6720, Note_on_c, 9, 38, 127
1, 6739, Note_on_c, 9, 38, 0
1, 6740, Note_on_c, 9, 38, 127
1, 6779, Note_on_c, 9, 38, 0
1, 6840, Note_on_c, 9, 36, 127
1, 7079, Note_on_c, 9, 36, 0
1, 7080, Note_on_c, 9, 36, 127
1, 7199, Note_on_c, 9, 36, 0
1, 7200, Note_on_c, 9, 38, 127
1, 7219, Note_on_c, 9, 38, 0
1, 7220, Note_on_c, 9, 38, 127
1, 7259, Note_on_c, 9, 38, 0
1, 7320, Note_on_c, 9, 36, 127
1, 7559, Note_on_c, 9, 36, 0
1, 7560, Note_on_c, 9, 36, 127
1, 7679, Note_on_c, 9, 36, 0
1, 7680, Note_on_c, 9, 38, 127
1, 7699, Note_on_c, 9, 38, 0
1, 7700, Note_on_c, 9, 38, 127
1, 7739, Note_on_c, 9, 38, 0
1, 7800, Note_on_c, 9, 36, 127
1, 8039, Note_on_c, 9, 36, 0
1, 8040, Note_on_c, 9, 36, 127
1, 8159, Note_on_c, 9, 36, 0
1, 8160, Note_on_c, 9, 38, 127
1, 8160, Note_on_c, 9, 36, 127
1, 8639, Note_on_c, 9, 38, 0
1, 8639, Note_on_c, 9, 36, 0
1, 8640, Note_on_c, 9, 38, 127
1, 8640, Note_on_c, 9, 36, 127
1, 9119, Note_on_c, 9, 38, 0
1, 9119, Note_on_c, 9, 36, 0
1, 9120, Note_on_c, 9, 38, 127
1, 9239, Note_on_c, 9, 38, 0
1, 9240, Note_on_c, 9, 38, 127
1, 9360, Note_on_c, 9, 35, 127
1, 9360, Note_on_c, 9, 36, 127
1, 9599, Note_on_c, 9, 38, 0
1, 9599, Note_on_c, 9, 35, 0
1, 9599, Note_on_c, 9, 36, 0
1, 9600, Note_on_c, 9, 38, 127
1, 9719, Note_on_c, 9, 38, 0
1, 9720, Note_on_c, 9, 38, 127
1, 9840, Note_on_c, 9, 35, 127
1, 9840, Note_on_c, 9, 36, 127
1, 10079, Note_on_c, 9, 38, 0
1, 10079, Note_on_c, 9, 35, 0
1, 10079, Note_on_c, 9, 36, 0
1, 10080, Note_on_c, 9, 38, 127
1, 10080, Note_on_c, 9, 36, 127
1, 10559, Note_on_c, 9, 38, 0
1, 10559, Note_on_c, 9, 36, 0
1, 10560, Note_on_c, 9, 38, 127
1, 10560, Note_on_c, 9, 36, 127
1, 11039, Note_on_c, 9, 38, 0
1, 11039, Note_on_c, 9, 36, 0
1, 11040, Note_on_c, 9, 38, 127
1, 11159, Note_on_c, 9, 38, 0
1, 11160, Note_on_c, 9, 38, 127
1, 11280, Note_on_c, 9, 35, 127
1, 11280, Note_on_c, 9, 36, 127
1, 11519, Note_on_c, 9, 38, 0
1, 11519, Note_on_c, 9, 35, 0
1, 11519, Note_on_c, 9, 36, 0
1, 11520, Note_on_c, 9, 38, 127
1, 11639, Note_on_c, 9, 38, 0
1, 11640, Note_on_c, 9, 38, 127
1, 11760, Note_on_c, 9, 35, 127
1, 11760, Note_on_c, 9, 36, 127
1, 11999, Note_on_c, 9, 38, 0
1, 11999, Note_on_c, 9, 35, 0
1, 11999, Note_on_c, 9, 36, 0
1, 12000, Note_on_c, 9, 38, 127
1, 12000, Note_on_c, 9, 36, 127
1, 12479, Note_on_c, 9, 38, 0
1, 12479, Note_on_c, 9, 36, 0
1, 12480, Note_on_c, 9, 38, 127
1, 12480, Note_on_c, 9, 36, 127
1, 12959, Note_on_c, 9, 38, 0
1, 12959, Note_on_c, 9, 36, 0
1, 12960, Note_on_c, 9, 38, 127
1, 13079, Note_on_c, 9, 38, 0
1, 13080, Note_on_c, 9, 38, 127
1, 13200, Note_on_c, 9, 35, 127
1, 13200, Note_on_c, 9, 36, 127
1, 13439, Note_on_c, 9, 38, 0
1, 13439, Note_on_c, 9, 35, 0
1, 13439, Note_on_c, 9, 36, 0
1, 13440, Note_on_c, 9, 38, 127
1, 13559, Note_on_c, 9, 38, 0
1, 13560, Note_on_c, 9, 38, 127
1, 13680, Note_on_c, 9, 35, 127
1, 13680, Note_on_c, 9, 36, 127
1, 13919, Note_on_c, 9, 38, 0
1, 13919, Note_on_c, 9, 35, 0
1, 13919, Note_on_c, 9, 36, 0
1, 13920, Note_on_c, 9, 38, 127
1, 13920, Note_on_c, 9, 36, 127
1, 14399, Note_on_c, 9, 38, 0
1, 14399, Note_on_c, 9, 36, 0
1, 14400, Note_on_c, 9, 38, 127
1, 14400, Note_on_c, 9, 36, 127
1, 14879, Note_on_c, 9, 38, 0
1, 14879, Note_on_c, 9, 36, 0
1, 14880, Note_on_c, 9, 38, 127
1, 14999, Note_on_c, 9, 38, 0
1, 15000, Note_on_c, 9, 38, 127
1, 15120, Note_on_c, 9, 35, 127
1, 15120, Note_on_c, 9, 36, 127
1, 15359, Note_on_c, 9, 38, 0
1, 15359, Note_on_c, 9, 35, 0
1, 15359, Note_on_c, 9, 36, 0
1, 15360, Note_on_c, 9, 38, 127
1, 15479, Note_on_c, 9, 38, 0
1, 15480, Note_on_c, 9, 38, 127
1, 15600, Note_on_c, 9, 35, 127
1, 15600, Note_on_c, 9, 36, 127
1, 15839, Note_on_c, 9, 38, 0
1, 15839, Note_on_c, 9, 35, 0
1, 15839, Note_on_c, 9, 36, 0
1, 15840, Note_on_c, 9, 38, 127
1, 15840, Note_on_c, 9, 36, 127
1, 16319, Note_on_c, 9, 38, 0
1, 16319, Note_on_c, 9, 36, 0
1, 16320, Note_on_c, 9, 38, 127
1, 16320, Note_on_c, 9, 36, 127
1, 16799, Note_on_c, 9, 38, 0
1, 16799, Note_on_c, 9, 36, 0
1, 16800, Note_on_c, 9, 38, 127
1, 16919, Note_on_c, 9, 38, 0
1, 16920, Note_on_c, 9, 38, 127
1, 17040, Note_on_c, 9, 35, 127
1, 17040, Note_on_c, 9, 36, 127
1, 17279, Note_on_c, 9, 38, 0
1, 17279, Note_on_c, 9, 35, 0
1, 17279, Note_on_c, 9, 36, 0
1, 17280, Note_on_c, 9, 38, 127
1, 17399, Note_on_c, 9, 38, 0
1, 17400, Note_on_c, 9, 38, 127
1, 17520, Note_on_c, 9, 35, 127
1, 17520, Note_on_c, 9, 36, 127
1, 17759, Note_on_c, 9, 38, 0
1, 17759, Note_on_c, 9, 35, 0
1, 17759, Note_on_c, 9, 36, 0
1, 17760, Note_on_c, 9, 38, 127
1, 17760, Note_on_c, 9, 36, 127
1, 18239, Note_on_c, 9, 38, 0
1, 18239, Note_on_c, 9, 36, 0
1, 18240, Note_on_c, 9, 38, 127
1, 18240, Note_on_c, 9, 36, 127
1, 18719, Note_on_c, 9, 38, 0
1, 18719, Note_on_c, 9, 36, 0
1, 18720, Note_on_c, 9, 38, 127
1, 18839, Note_on_c, 9, 38, 0
1, 18840, Note_on_c, 9, 38, 127
1, 18960, Note_on_c, 9, 35, 127
1, 18960, Note_on_c, 9, 36, 127
1, 19199, Note_on_c, 9, 38, 0
1, 19199, Note_on_c, 9, 35, 0
1, 19199, Note_on_c, 9, 36, 0
1, 19200, Note_on_c, 9, 38, 127
1, 19319, Note_on_c, 9, 38, 0
1, 19320, Note_on_c, 9, 38, 127
1, 19440, Note_on_c, 9, 35, 127
1, 19440, Note_on_c, 9, 36, 127
1, 19679, Note_on_c, 9, 38, 0
1, 19679, Note_on_c, 9, 35, 0
1, 19679, Note_on_c, 9, 36, 0
1, 19680, Note_on_c, 9, 38, 127
1, 19680, Note_on_c, 9, 36, 127
1, 20159, Note_on_c, 9, 38, 0
1, 20159, Note_on_c, 9, 36, 0
1, 20160, Note_on_c, 9, 38, 127
1, 20160, Note_on_c, 9, 36, 127
1, 20639, Note_on_c, 9, 38, 0
1, 20639, Note_on_c, 9, 36, 0
1, 20640, Note_on_c, 9, 38, 127
1, 20759, Note_on_c, 9, 38, 0
1, 20760, Note_on_c, 9, 38, 127
1, 20880, Note_on_c, 9, 35, 127
1, 20880, Note_on_c, 9, 36, 127
1, 21119, Note_on_c, 9, 38, 0
1, 21119, Note_on_c, 9, 35, 0
1, 21119, Note_on_c, 9, 36, 0
1, 21120, Note_on_c, 9, 38, 127
1, 21239, Note_on_c, 9, 38, 0
1, 21240, Note_on_c, 9, 38, 127
1, 21360, Note_on_c, 9, 35, 127
1, 21360, Note_on_c, 9, 36, 127
1, 21599, Note_on_c, 9, 38, 0
1, 21599, Note_on_c, 9, 35, 0
1, 21599, Note_on_c, 9, 36, 0
1, 21600, Note_on_c, 9, 38, 127
1, 21600, Note_on_c, 9, 36, 127
1, 22079, Note_on_c, 9, 38, 0
1, 22079, Note_on_c, 9, 36, 0
1, 22080, Note_on_c, 9, 38, 127
1, 22080, Note_on_c, 9, 36, 127
1, 22559, Note_on_c, 9, 38, 0
1, 22559, Note_on_c, 9, 36, 0
1, 22560, Note_on_c, 9, 38, 127
1, 22560, Note_on_c, 9, 35, 127
1, 22799, Note_on_c, 9, 38, 0
1, 22799, Note_on_c, 9, 35, 0
1, 22800, Note_on_c, 9, 38, 127
1, 22800, Note_on_c, 9, 36, 127
1, 23039, Note_on_c, 9, 38, 0
1, 23039, Note_on_c, 9, 36, 0
1, 23040, Note_on_c, 9, 38, 127
1, 23040, Note_on_c, 9, 36, 127
1, 23159, Note_on_c, 9, 38, 0
1, 23159, Note_on_c, 9, 36, 0
1, 23160, Note_on_c, 9, 38, 127
1, 23160, Note_on_c, 9, 36, 127
1, 23279, Note_on_c, 9, 38, 0
1, 23279, Note_on_c, 9, 36, 0
1, 23280, Note_on_c, 9, 38, 127
1, 23280, Note_on_c, 9, 36, 127
1, 23399, Note_on_c, 9, 38, 0
1, 23399, Note_on_c, 9, 36, 0
1, 23400, Note_on_c, 9, 38, 127
1, 23400, Note_on_c, 9, 36, 127
1, 23519, Note_on_c, 9, 38, 0
1, 23519, Note_on_c, 9, 36, 0
1, 23520, Note_on_c, 9, 36, 127
1, 23759, Note_on_c, 9, 36, 0
1, 23760, Note_on_c, 9, 36, 127
1, 23999, Note_on_c, 9, 36, 0
1, 24000, Note_on_c, 9, 38, 127
1, 24479, Note_on_c, 9, 38, 0
1, 24480, Note_on_c, 9, 36, 127
1, 24719, Note_on_c, 9, 36, 0
1, 24720, Note_on_c, 9, 36, 127
1, 24959, Note_on_c, 9, 36, 0
1, 24960, Note_on_c, 9, 38, 127
1, 25439, Note_on_c, 9, 38, 0
1, 25440, Note_on_c, 9, 36, 127
1, 25679, Note_on_c, 9, 36, 0
1, 25680, Note_on_c, 9, 36, 127
1, 25919, Note_on_c, 9, 36, 0
1, 25920, Note_on_c, 9, 38, 127
1, 26399, Note_on_c, 9, 38, 0
1, 26400, Note_on_c, 9, 36, 127
1, 26639, Note_on_c, 9, 36, 0
1, 26640, Note_on_c, 9, 36, 127
1, 26879, Note_on_c, 9, 36, 0
1, 26880, Note_on_c, 9, 38, 127
1, 27359, Note_on_c, 9, 38, 0
1, 27360, Note_on_c, 9, 36, 127
1, 27599, Note_on_c, 9, 36, 0
1, 27600, Note_on_c, 9, 36, 127
1, 27839, Note_on_c, 9, 36, 0
1, 27840, Note_on_c, 9, 38, 127
1, 28319, Note_on_c, 9, 38, 0
1, 28320, Note_on_c, 9, 36, 127
1, 28559, Note_on_c, 9, 36, 0
1, 28560, Note_on_c, 9, 36, 127
1, 28799, Note_on_c, 9, 36, 0
1, 28800, Note_on_c, 9, 38, 127
1, 29279, Note_on_c, 9, 38, 0
1, 29280, Note_on_c, 9, 36, 127
1, 29519, Note_on_c, 9, 36, 0
1, 29520, Note_on_c, 9, 36, 127
1, 29759, Note_on_c, 9, 36, 0
1, 29760, Note_on_c, 9, 38, 127
1, 30239, Note_on_c, 9, 38, 0
1, 30240, Note_on_c, 9, 36, 127
1, 30479, Note_on_c, 9, 36, 0
1, 30480, Note_on_c, 9, 36, 127
1, 30719, Note_on_c, 9, 36, 0
1, 30720, Note_on_c, 9, 38, 127
1, 31199, Note_on_c, 9, 38, 0
1, 31200, Note_on_c, 9, 36, 127
1, 31439, Note_on_c, 9, 36, 0
1, 31440, Note_on_c, 9, 36, 127
1, 31679, Note_on_c, 9, 36, 0
1, 31680, Note_on_c, 9, 38, 127
1, 32159, Note_on_c, 9, 38, 0
1, 32160, Note_on_c, 9, 36, 127
1, 32399, Note_on_c, 9, 36, 0
1, 32400, Note_on_c, 9, 36, 127
1, 32639, Note_on_c, 9, 36, 0
1, 32640, Note_on_c, 9, 38, 127
1, 33119, Note_on_c, 9, 38, 0
1, 33120, Note_on_c, 9, 36, 127
1, 33359, Note_on_c, 9, 36, 0
1, 33360, Note_on_c, 9, 36, 127
1, 33599, Note_on_c, 9, 36, 0
1, 33600, Note_on_c, 9, 38, 127
1, 34079, Note_on_c, 9, 38, 0
1, 34080, Note_on_c, 9, 36, 127
1, 34319, Note_on_c, 9, 36, 0
1, 34320, Note_on_c, 9, 36, 127
1, 34559, Note_on_c, 9, 36, 0
1, 34560, Note_on_c, 9, 38, 127
1, 35039, Note_on_c, 9, 38, 0
1, 35040, Note_on_c, 9, 36, 127
1, 35279, Note_on_c, 9, 36, 0
1, 35280, Note_on_c, 9, 36, 127
1, 35519, Note_on_c, 9, 36, 0
1, 35520, Note_on_c, 9, 38, 127
1, 35999, Note_on_c, 9, 38, 0
1, 36000, Note_on_c, 9, 36, 127
1, 36239, Note_on_c, 9, 36, 0
1, 36240, Note_on_c, 9, 36, 127
1, 36479, Note_on_c, 9, 36, 0
1, 36480, Note_on_c, 9, 38, 127
1, 36959, Note_on_c, 9, 38, 0
1, 36960, Note_on_c, 9, 36, 127
1, 37199, Note_on_c, 9, 36, 0
1, 37200, Note_on_c, 9, 36, 127
1, 37439, Note_on_c, 9, 36, 0
1, 37440, Note_on_c, 9, 38, 127
1, 37919, Note_on_c, 9, 38, 0
1, 37920, Note_on_c, 9, 36, 127
1, 38159, Note_on_c, 9, 36, 0
1, 38160, Note_on_c, 9, 36, 127
1, 38399, Note_on_c, 9, 36, 0
1, 38400, Note_on_c, 9, 38, 127
1, 38879, Note_on_c, 9, 38, 0
1, 38880, Note_on_c, 9, 36, 127
1, 39119, Note_on_c, 9, 36, 0
1, 39120, Note_on_c, 9, 36, 127
1, 39359, Note_on_c, 9, 36, 0
1, 39360, Note_on_c, 9, 38, 127
1, 39839, Note_on_c, 9, 38, 0
1, 39840, Note_on_c, 9, 36, 127
1, 40079, Note_on_c, 9, 36, 0
1, 40080, Note_on_c, 9, 36, 127
1, 40319, Note_on_c, 9, 36, 0
1, 40320, Note_on_c, 9, 38, 127
1, 40799, Note_on_c, 9, 38, 0
1, 40800, Note_on_c, 9, 36, 127
1, 41039, Note_on_c, 9, 36, 0
1, 41040, Note_on_c, 9, 36, 127
1, 41279, Note_on_c, 9, 36, 0
1, 41280, Note_on_c, 9, 38, 127
1, 41759, Note_on_c, 9, 38, 0
1, 41760, Note_on_c, 9, 36, 127
1, 41999, Note_on_c, 9, 36, 0
1, 42000, Note_on_c, 9, 36, 127
1, 42239, Note_on_c, 9, 36, 0
1, 42240, Note_on_c, 9, 38, 127
1, 42719, Note_on_c, 9, 38, 0
1, 42720, Note_on_c, 9, 36, 127
1, 42959, Note_on_c, 9, 36, 0
1, 42960, Note_on_c, 9, 36, 127
1, 43199, Note_on_c, 9, 36, 0
1, 43200, Note_on_c, 9, 38, 127
1, 43679, Note_on_c, 9, 38, 0
1, 43680, Note_on_c, 9, 36, 127
1, 43919, Note_on_c, 9, 36, 0
1, 43920, Note_on_c, 9, 36, 127
1, 44159, Note_on_c, 9, 36, 0
1, 44160, Note_on_c, 9, 38, 127
1, 44639, Note_on_c, 9, 38, 0
1, 44640, Note_on_c, 9, 36, 127
1, 44879, Note_on_c, 9, 36, 0
1, 44880, Note_on_c, 9, 36, 127
1, 45119, Note_on_c, 9, 36, 0
1, 45120, Note_on_c, 9, 38, 127
1, 45599, Note_on_c, 9, 38, 0
1, 45600, Note_on_c, 9, 36, 127
1, 45839, Note_on_c, 9, 36, 0
1, 45840, Note_on_c, 9, 36, 127
1, 46079, Note_on_c, 9, 36, 0
1, 46080, Note_on_c, 9, 38, 127
1, 46319, Note_on_c, 9, 38, 0
1, 46320, Note_on_c, 9, 38, 127
1, 46559, Note_on_c, 9, 38, 0
1, 46560, Note_on_c, 9, 38, 102
1, 46560, Note_on_c, 9, 36, 102
1, 46679, Note_on_c, 9, 38, 0
1, 46679, Note_on_c, 9, 36, 0
1, 46680, Note_on_c, 9, 38, 127
1, 46680, Note_on_c, 9, 36, 127
1, 46799, Note_on_c, 9, 36, 0
1, 46800, Note_on_c, 9, 36, 127
1, 47039, Note_on_c, 9, 38, 0
1, 47039, Note_on_c, 9, 36, 0
1, 47040, Note_on_c, 9, 38, 102
1, 47040, Note_on_c, 9, 36, 102
1, 47519, Note_on_c, 9, 38, 0
1, 47519, Note_on_c, 9, 36, 0
1, 47520, Note_on_c, 9, 38, 102
1, 47520, Note_on_c, 9, 36, 127
1, 47639, Note_on_c, 9, 38, 0
1, 47639, Note_on_c, 9, 36, 0
1, 47640, Note_on_c, 9, 38, 127
1, 47640, Note_on_c, 9, 36, 127
1, 47759, Note_on_c, 9, 36, 0
1, 47760, Note_on_c, 9, 36, 127
1, 47999, Note_on_c, 9, 38, 0
1, 47999, Note_on_c, 9, 36, 0
1, 48000, Note_on_c, 9, 38, 102
1, 48000, Note_on_c, 9, 36, 127
1, 48239, Note_on_c, 9, 36, 0
1, 48240, Note_on_c, 9, 36, 127
1, 48479, Note_on_c, 9, 38, 0
1, 48479, Note_on_c, 9, 36, 0
1, 48480, Note_on_c, 9, 38, 102
1, 48480, Note_on_c, 9, 36, 102
1, 48599, Note_on_c, 9, 38, 0
1, 48599, Note_on_c, 9, 36, 0
1, 48600, Note_on_c, 9, 38, 127
1, 48600, Note_on_c, 9, 36, 127
1, 48719, Note_on_c, 9, 36, 0
1, 48720, Note_on_c, 9, 36, 127
1, 48959, Note_on_c, 9, 38, 0
1, 48959, Note_on_c, 9, 36, 0
1, 48960, Note_on_c, 9, 38, 102
1, 48960, Note_on_c, 9, 36, 102
1, 49439, Note_on_c, 9, 38, 0
1, 49439, Note_on_c, 9, 36, 0
1, 49440, Note_on_c, 9, 38, 102
1, 49440, Note_on_c, 9, 36, 127
1, 49559, Note_on_c, 9, 38, 0
1, 49559, Note_on_c, 9, 36, 0
1, 49560, Note_on_c, 9, 38, 127
1, 49560, Note_on_c, 9, 36, 127
1, 49679, Note_on_c, 9, 36, 0
1, 49680, Note_on_c, 9, 36, 127
1, 49919, Note_on_c, 9, 38, 0
1, 49919, Note_on_c, 9, 36, 0
1, 49920, Note_on_c, 9, 38, 102
1, 49920, Note_on_c, 9, 36, 127
1, 50159, Note_on_c, 9, 38, 0
1, 50159, Note_on_c, 9, 36, 0
1, 50160, Note_on_c, 9, 38, 127
1, 50160, Note_on_c, 9, 36, 127
1, 50399, Note_on_c, 9, 38, 0
1, 50399, Note_on_c, 9, 36, 0
1, 50400, Note_on_c, 9, 38, 102
1, 50400, Note_on_c, 9, 36, 102
1, 50519, Note_on_c, 9, 38, 0
1, 50519, Note_on_c, 9, 36, 0
1, 50520, Note_on_c, 9, 38, 127
1, 50520, Note_on_c, 9, 36, 127
1, 50639, Note_on_c, 9, 36, 0
1, 50640, Note_on_c, 9, 36, 127
1, 50879, Note_on_c, 9, 38, 0
1, 50879, Note_on_c, 9, 36, 0
1, 50880, Note_on_c, 9, 38, 102
1, 50880, Note_on_c, 9, 36, 102
1, 51359, Note_on_c, 9, 38, 0
1, 51359, Note_on_c, 9, 36, 0
1, 51360, Note_on_c, 9, 38, 102
1, 51360, Note_on_c, 9, 36, 127
1, 51479, Note_on_c, 9, 38, 0
1, 51479, Note_on_c, 9, 36, 0
1, 51480, Note_on_c, 9, 38, 127
1, 51480, Note_on_c, 9, 36, 127
1, 51599, Note_on_c, 9, 36, 0
1, 51600, Note_on_c, 9, 36, 127
1, 51839, Note_on_c, 9, 38, 0
1, 51839, Note_on_c, 9, 36, 0
1, 51840, Note_on_c, 9, 38, 102
1, 51840, Note_on_c, 9, 36, 127
1, 52079, Note_on_c, 9, 36, 0
1, 52080, Note_on_c, 9, 36, 127
1, 52319, Note_on_c, 9, 38, 0
1, 52319, Note_on_c, 9, 36, 0
1, 52320, Note_on_c, 9, 38, 102
1, 52320, Note_on_c, 9, 36, 102
1, 52439, Note_on_c, 9, 38, 0
1, 52439, Note_on_c, 9, 36, 0
1, 52440, Note_on_c, 9, 38, 127
1, 52440, Note_on_c, 9, 36, 127
1, 52559, Note_on_c, 9, 36, 0
1, 52560, Note_on_c, 9, 36, 127
1, 52799, Note_on_c, 9, 38, 0
1, 52799, Note_on_c, 9, 36, 0
1, 52800, Note_on_c, 9, 38, 102
1, 52800, Note_on_c, 9, 36, 102
1, 53279, Note_on_c, 9, 38, 0
1, 53279, Note_on_c, 9, 36, 0
1, 53280, Note_on_c, 9, 38, 102
1, 53280, Note_on_c, 9, 36, 127
1, 53399, Note_on_c, 9, 38, 0
1, 53399, Note_on_c, 9, 36, 0
1, 53400, Note_on_c, 9, 38, 127
1, 53400, Note_on_c, 9, 36, 127
1, 53519, Note_on_c, 9, 36, 0
1, 53520, Note_on_c, 9, 36, 127
1, 53759, Note_on_c, 9, 38, 0
1, 53759, Note_on_c, 9, 36, 0
1, 53760, Note_on_c, 9, 38, 102
1, 53760, Note_on_c, 9, 36, 127
1, 53999, Note_on_c, 9, 38, 0
1, 53999, Note_on_c, 9, 36, 0
1, 54000, Note_on_c, 9, 38, 127
1, 54000, Note_on_c, 9, 36, 127
1, 54239, Note_on_c, 9, 38, 0
1, 54239, Note_on_c, 9, 36, 0
1, 54240, Note_on_c, 9, 38, 102
1, 54240, Note_on_c, 9, 36, 102
1, 54359, Note_on_c, 9, 38, 0
1, 54359, Note_on_c, 9, 36, 0
1, 54360, Note_on_c, 9, 38, 127
1, 54360, Note_on_c, 9, 36, 127
1, 54479, Note_on_c, 9, 36, 0
1, 54480, Note_on_c, 9, 36, 127
1, 54719, Note_on_c, 9, 38, 0
1, 54719, Note_on_c, 9, 36, 0
1, 54720, Note_on_c, 9, 38, 102
1, 54720, Note_on_c, 9, 36, 102
1, 55199, Note_on_c, 9, 38, 0
1, 55199, Note_on_c, 9, 36, 0
1, 55200, Note_on_c, 9, 38, 102
1, 55200, Note_on_c, 9, 36, 127
1, 55319, Note_on_c, 9, 38, 0
1, 55319, Note_on_c, 9, 36, 0
1, 55320, Note_on_c, 9, 38, 127
1, 55320, Note_on_c, 9, 36, 127
1, 55439, Note_on_c, 9, 36, 0
1, 55440, Note_on_c, 9, 36, 127
1, 55679, Note_on_c, 9, 38, 0
1, 55679, Note_on_c, 9, 36, 0
1, 55680, Note_on_c, 9, 38, 102
1, 55680, Note_on_c, 9, 36, 127
1, 55919, Note_on_c, 9, 36, 0
1, 55920, Note_on_c, 9, 36, 127
1, 56159, Note_on_c, 9, 38, 0
1, 56159, Note_on_c, 9, 36, 0
1, 56160, Note_on_c, 9, 38, 102
1, 56160, Note_on_c, 9, 36, 102
1, 56279, Note_on_c, 9, 38, 0
1, 56279, Note_on_c, 9, 36, 0
1, 56280, Note_on_c, 9, 38, 127
1, 56280, Note_on_c, 9, 36, 127
1, 56399, Note_on_c, 9, 36, 0
1, 56400, Note_on_c, 9, 36, 127
1, 56639, Note_on_c, 9, 38, 0
1, 56639, Note_on_c, 9, 36, 0
1, 56640, Note_on_c, 9, 38, 102
1, 56640, Note_on_c, 9, 36, 102
1, 57119, Note_on_c, 9, 38, 0
1, 57119, Note_on_c, 9, 36, 0
1, 57120, Note_on_c, 9, 38, 102
1, 57120, Note_on_c, 9, 36, 127
1, 57239, Note_on_c, 9, 38, 0
1, 57239, Note_on_c, 9, 36, 0
1, 57240, Note_on_c, 9, 38, 127
1, 57240, Note_on_c, 9, 36, 127
1, 57359, Note_on_c, 9, 36, 0
1, 57360, Note_on_c, 9, 36, 127
1, 57599, Note_on_c, 9, 38, 0
1, 57599, Note_on_c, 9, 36, 0
1, 57600, Note_on_c, 9, 38, 102
1, 57600, Note_on_c, 9, 36, 127
1, 57839, Note_on_c, 9, 38, 0
1, 57839, Note_on_c, 9, 36, 0
1, 57840, Note_on_c, 9, 38, 127
1, 57840, Note_on_c, 9, 36, 127
1, 58079, Note_on_c, 9, 38, 0
1, 58079, Note_on_c, 9, 36, 0
1, 58080, Note_on_c, 9, 38, 102
1, 58080, Note_on_c, 9, 36, 102
1, 58199, Note_on_c, 9, 38, 0
1, 58199, Note_on_c, 9, 36, 0
1, 58200, Note_on_c, 9, 38, 127
1, 58200, Note_on_c, 9, 36, 127
1, 58319, Note_on_c, 9, 36, 0
1, 58320, Note_on_c, 9, 36, 127
1, 58559, Note_on_c, 9, 38, 0
1, 58559, Note_on_c, 9, 36, 0
1, 58560, Note_on_c, 9, 38, 102
1, 58560, Note_on_c, 9, 36, 102
1, 59039, Note_on_c, 9, 38, 0
1, 59039, Note_on_c, 9, 36, 0
1, 59040, Note_on_c, 9, 38, 102
1, 59040, Note_on_c, 9, 36, 127
1, 59159, Note_on_c, 9, 38, 0
1, 59159, Note_on_c, 9, 36, 0
1, 59160, Note_on_c, 9, 38, 127
1, 59160, Note_on_c, 9, 36, 127
1, 59279, Note_on_c, 9, 36, 0
1, 59280, Note_on_c, 9, 36, 127
1, 59519, Note_on_c, 9, 38, 0
1, 59519, Note_on_c, 9, 36, 0
1, 59520, Note_on_c, 9, 38, 102
1, 59520, Note_on_c, 9, 36, 127
1, 59759, Note_on_c, 9, 36, 0
1, 59760, Note_on_c, 9, 36, 127
1, 59999, Note_on_c, 9, 38, 0
1, 59999, Note_on_c, 9, 36, 0
1, 60000, Note_on_c, 9, 38, 127
1, 60000, Note_on_c, 9, 36, 127
1, 60119, Note_on_c, 9, 38, 0
1, 60120, Note_on_c, 9, 38, 127
1, 60239, Note_on_c, 9, 36, 0
1, 60239, Note_on_c, 9, 38, 0
1, 60240, Note_on_c, 9, 38, 127
1, 60240, Note_on_c, 9, 36, 127
1, 60359, Note_on_c, 9, 38, 0
1, 60360, Note_on_c, 9, 38, 127
1, 60479, Note_on_c, 9, 36, 0
1, 60479, Note_on_c, 9, 38, 0
1, 60480, Note_on_c, 9, 38, 127
1, 60480, Note_on_c, 9, 36, 127
1, 60599, Note_on_c, 9, 38, 0
1, 60600, Note_on_c, 9, 38, 127
1, 60719, Note_on_c, 9, 36, 0
1, 60719, Note_on_c, 9, 38, 0
1, 60720, Note_on_c, 9, 38, 127
1, 60720, Note_on_c, 9, 36, 127
1, 60839, Note_on_c, 9, 38, 0
1, 60840, Note_on_c, 9, 38, 127
1, 60959, Note_on_c, 9, 36, 0
1, 60959, Note_on_c, 9, 38, 0
1, 60960, Note_on_c, 9, 38, 127
1, 60960, Note_on_c, 9, 36, 127
1, 61079, Note_on_c, 9, 38, 0
1, 61080, Note_on_c, 9, 38, 127
1, 61199, Note_on_c, 9, 36, 0
1, 61199, Note_on_c, 9, 38, 0
1, 61200, Note_on_c, 9, 38, 127
1, 61200, Note_on_c, 9, 36, 127
1, 61319, Note_on_c, 9, 38, 0
1, 61320, Note_on_c, 9, 38, 127
1, 61439, Note_on_c, 9, 36, 0
1, 61439, Note_on_c, 9, 38, 0
1, 61440, Note_on_c, 9, 38, 127
1, 61440, Note_on_c, 9, 36, 127
1, 61679, Note_on_c, 9, 36, 0
1, 61680, Note_on_c, 9, 36, 127
1, 61919, Note_on_c, 9, 38, 0
1, 61919, Note_on_c, 9, 36, 0
1, 61920, Note_on_c, 9, 38, 127
1, 61920, Note_on_c, 9, 36, 127
1, 62399, Note_on_c, 9, 38, 0
1, 62399, Note_on_c, 9, 36, 0
1, 62400, Note_on_c, 9, 38, 127
1, 62400, Note_on_c, 9, 36, 127
1, 62879, Note_on_c, 9, 38, 0
1, 62879, Note_on_c, 9, 36, 0
1, 62880, Note_on_c, 9, 38, 127
1, 62999, Note_on_c, 9, 38, 0
1, 63000, Note_on_c, 9, 38, 127
1, 63120, Note_on_c, 9, 35, 127
1, 63120, Note_on_c, 9, 36, 127
1, 63359, Note_on_c, 9, 38, 0
1, 63359, Note_on_c, 9, 35, 0
1, 63359, Note_on_c, 9, 36, 0
1, 63360, Note_on_c, 9, 38, 127
1, 63479, Note_on_c, 9, 38, 0
1, 63480, Note_on_c, 9, 38, 127
1, 63600, Note_on_c, 9, 35, 127
1, 63600, Note_on_c, 9, 36, 127
1, 63839, Note_on_c, 9, 38, 0
1, 63839, Note_on_c, 9, 35, 0
1, 63839, Note_on_c, 9, 36, 0
1, 63840, Note_on_c, 9, 38, 127
1, 63840, Note_on_c, 9, 36, 127
1, 64319, Note_on_c, 9, 38, 0
1, 64319, Note_on_c, 9, 36, 0
1, 64320, Note_on_c, 9, 38, 127
1, 64320, Note_on_c, 9, 36, 127
1, 64799, Note_on_c, 9, 38, 0
1, 64799, Note_on_c, 9, 36, 0
1, 64800, Note_on_c, 9, 38, 127
1, 64919, Note_on_c, 9, 38, 0
1, 64920, Note_on_c, 9, 38, 127
1, 65040, Note_on_c, 9, 35, 127
1, 65040, Note_on_c, 9, 36, 127
1, 65279, Note_on_c, 9, 38, 0
1, 65279, Note_on_c, 9, 35, 0
1, 65279, Note_on_c, 9, 36, 0
1, 65280, Note_on_c, 9, 38, 127
1, 65399, Note_on_c, 9, 38, 0
1, 65400, Note_on_c, 9, 38, 127
1, 65520, Note_on_c, 9, 35, 127
1, 65520, Note_on_c, 9, 36, 127
1, 65759, Note_on_c, 9, 38, 0
1, 65759, Note_on_c, 9, 35, 0
1, 65759, Note_on_c, 9, 36, 0
1, 65760, Note_on_c, 9, 38, 127
1, 65760, Note_on_c, 9, 36, 127
1, 66239, Note_on_c, 9, 38, 0
1, 66239, Note_on_c, 9, 36, 0
1, 66240, Note_on_c, 9, 38, 127
1, 66240, Note_on_c, 9, 36, 127
1, 66719, Note_on_c, 9, 38, 0
1, 66719, Note_on_c, 9, 36, 0
1, 66720, Note_on_c, 9, 38, 127
1, 66839, Note_on_c, 9, 38, 0
1, 66840, Note_on_c, 9, 38, 127
1, 66960, Note_on_c, 9, 35, 127
1, 66960, Note_on_c, 9, 36, 127
1, 67199, Note_on_c, 9, 38, 0
1, 67199, Note_on_c, 9, 35, 0
1, 67199, Note_on_c, 9, 36, 0
1, 67200, Note_on_c, 9, 38, 127
1, 67319, Note_on_c, 9, 38, 0
1, 67320, Note_on_c, 9, 38, 127
1, 67440, Note_on_c, 9, 35, 127
1, 67440, Note_on_c, 9, 36, 127
1, 67679, Note_on_c, 9, 38, 0
1, 67679, Note_on_c, 9, 35, 0
1, 67679, Note_on_c, 9, 36, 0
1, 67680, Note_on_c, 9, 38, 127
1, 67680, Note_on_c, 9, 36, 127
1, 68159, Note_on_c, 9, 38, 0
1, 68159, Note_on_c, 9, 36, 0
1, 68160, Note_on_c, 9, 38, 127
1, 68160, Note_on_c, 9, 36, 127
1, 68639, Note_on_c, 9, 38, 0
1, 68639, Note_on_c, 9, 36, 0
1, 68640, Note_on_c, 9, 38, 127
1, 68759, Note_on_c, 9, 38, 0
1, 68760, Note_on_c, 9, 38, 127
1, 68880, Note_on_c, 9, 35, 127
1, 68880, Note_on_c, 9, 36, 127
1, 69119, Note_on_c, 9, 38, 0
1, 69119, Note_on_c, 9, 35, 0
1, 69119, Note_on_c, 9, 36, 0
1, 69120, Note_on_c, 9, 38, 127
1, 69239, Note_on_c, 9, 38, 0
1, 69240, Note_on_c, 9, 38, 127
1, 69360, Note_on_c, 9, 35, 127
1, 69360, Note_on_c, 9, 36, 127
1, 69599, Note_on_c, 9, 38, 0
1, 69599, Note_on_c, 9, 35, 0
1, 69599, Note_on_c, 9, 36, 0
1, 69600, Note_on_c, 9, 38, 127
1, 69600, Note_on_c, 9, 36, 127
1, 70079, Note_on_c, 9, 38, 0
1, 70079, Note_on_c, 9, 36, 0
1, 70080, Note_on_c, 9, 38, 127
1, 70080, Note_on_c, 9, 36, 127
1, 70559, Note_on_c, 9, 38, 0
1, 70559, Note_on_c, 9, 36, 0
1, 70560, Note_on_c, 9, 38, 127
1, 70679, Note_on_c, 9, 38, 0
1, 70680, Note_on_c, 9, 38, 127
1, 70800, Note_on_c, 9, 35, 127
1, 70800, Note_on_c, 9, 36, 127
1, 71039, Note_on_c, 9, 38, 0
1, 71039, Note_on_c, 9, 35, 0
1, 71039, Note_on_c, 9, 36, 0
1, 71040, Note_on_c, 9, 38, 127
1, 71159, Note_on_c, 9, 38, 0
1, 71160, Note_on_c, 9, 38, 127
1, 71280, Note_on_c, 9, 35, 127
1, 71280, Note_on_c, 9, 36, 127
1, 71519, Note_on_c, 9, 38, 0
1, 71519, Note_on_c, 9, 35, 0
1, 71519, Note_on_c, 9, 36, 0
1, 71520, Note_on_c, 9, 38, 127
1, 71520, Note_on_c, 9, 36, 127
1, 71999, Note_on_c, 9, 38, 0
1, 71999, Note_on_c, 9, 36, 0
1, 72000, Note_on_c, 9, 38, 127
1, 72000, Note_on_c, 9, 36, 127
1, 72479, Note_on_c, 9, 38, 0
1, 72479, Note_on_c, 9, 36, 0
1, 72480, Note_on_c, 9, 38, 127
1, 72599, Note_on_c, 9, 38, 0
1, 72600, Note_on_c, 9, 38, 127
1, 72720, Note_on_c, 9, 35, 127
1, 72720, Note_on_c, 9, 36, 127
1, 72959, Note_on_c, 9, 38, 0
1, 72959, Note_on_c, 9, 35, 0
1, 72959, Note_on_c, 9, 36, 0
1, 72960, Note_on_c, 9, 38, 127
1, 73079, Note_on_c, 9, 38, 0
1, 73080, Note_on_c, 9, 38, 127
1, 73200, Note_on_c, 9, 35, 127
1, 73200, Note_on_c, 9, 36, 127
1, 73439, Note_on_c, 9, 38, 0
1, 73439, Note_on_c, 9, 35, 0
1, 73439, Note_on_c, 9, 36, 0
1, 73440, Note_on_c, 9, 38, 127
1, 73440, Note_on_c, 9, 36, 127
1, 73919, Note_on_c, 9, 38, 0
1, 73919, Note_on_c, 9, 36, 0
1, 73920, Note_on_c, 9, 38, 127
1, 73920, Note_on_c, 9, 36, 127
1, 74399, Note_on_c, 9, 38, 0
1, 74399, Note_on_c, 9, 36, 0
1, 74400, Note_on_c, 9, 38, 127
1, 74519, Note_on_c, 9, 38, 0
1, 74520, Note_on_c, 9, 38, 127
1, 74640, Note_on_c, 9, 35, 127
1, 74640, Note_on_c, 9, 36, 127
1, 74879, Note_on_c, 9, 38, 0
1, 74879, Note_on_c, 9, 35, 0
1, 74879, Note_on_c, 9, 36, 0
1, 74880, Note_on_c, 9, 38, 127
1, 74999, Note_on_c, 9, 38, 0
1, 75000, Note_on_c, 9, 38, 127
1, 75120, Note_on_c, 9, 35, 127
1, 75120, Note_on_c, 9, 36, 127
1, 75359, Note_on_c, 9, 38, 0
1, 75359, Note_on_c, 9, 35, 0
1, 75359, Note_on_c, 9, 36, 0
1, 75360, Note_on_c, 9, 38, 127
1, 75360, Note_on_c, 9, 36, 127
1, 75839, Note_on_c, 9, 38, 0
1, 75839, Note_on_c, 9, 36, 0
1, 75840, Note_on_c, 9, 38, 127
1, 75840, Note_on_c, 9, 36, 127
1, 76319, Note_on_c, 9, 38, 0
1, 76319, Note_on_c, 9, 36, 0
1, 76320, Note_on_c, 9, 38, 127
1, 76439, Note_on_c, 9, 38, 0
1, 76440, Note_on_c, 9, 38, 127
1, 76560, Note_on_c, 9, 35, 127
1, 76560, Note_on_c, 9, 36, 127
1, 76799, Note_on_c, 9, 38, 0
1, 76799, Note_on_c, 9, 35, 0
1, 76799, Note_on_c, 9, 36, 0
1, 76800, Note_on_c, 9, 38, 127
1, 76919, Note_on_c, 9, 38, 0
1, 76920, Note_on_c, 9, 38, 127
1, 77040, Note_on_c, 9, 35, 127
1, 77040, Note_on_c, 9, 36, 127
1, 77279, Note_on_c, 9, 38, 0
1, 77279, Note_on_c, 9, 35, 0
1, 77279, Note_on_c, 9, 36, 0
1, 77280, Note_on_c, 9, 38, 127
1, 77280, Note_on_c, 9, 36, 127
1, 77759, Note_on_c, 9, 38, 0
1, 77759, Note_on_c, 9, 36, 0
1, 77760, Note_on_c, 9, 38, 127
1, 77760, Note_on_c, 9, 36, 127
1, 77999, Note_on_c, 9, 36, 0
1, 78000, Note_on_c, 9, 36, 127
1, 78239, Note_on_c, 9, 38, 0
1, 78239, Note_on_c, 9, 36, 0
1, 78240, Note_on_c, 9, 38, 127
1, 78240, Note_on_c, 9, 36, 127
1, 78479, Note_on_c, 9, 38, 0
1, 78479, Note_on_c, 9, 36, 0
1, 78480, Note_on_c, 9, 41, 127
1, 78480, Note_on_c, 9, 38, 127
1, 78480, Note_on_c, 9, 36, 127
1, 78719, Note_on_c, 9, 41, 0
1, 78719, Note_on_c, 9, 38, 0
1, 78719, Note_on_c, 9, 36, 0
1, 79200, Note_on_c, 9, 38, 127
1, 79200, Note_on_c, 9, 36, 127
1, 79679, Note_on_c, 9, 38, 0
1, 79679, Note_on_c, 9, 36, 0
1, 79680, Note_on_c, 9, 38, 127
1, 79680, Note_on_c, 9, 36, 127
1, 79919, Note_on_c, 9, 36, 0
1, 79920, Note_on_c, 9, 36, 127
1, 80159, Note_on_c, 9, 38, 0
1, 80159, Note_on_c, 9, 36, 0
1, 80160, Note_on_c, 9, 38, 127
1, 80160, Note_on_c, 9, 36, 127
1, 80399, Note_on_c, 9, 38, 0
1, 80399, Note_on_c, 9, 36, 0
1, 80400, Note_on_c, 9, 41, 127
1, 80400, Note_on_c, 9, 38, 127
1, 80400, Note_on_c, 9, 36, 127
1, 80639, Note_on_c, 9, 41, 0
1, 80639, Note_on_c, 9, 38, 0
1, 80639, Note_on_c, 9, 36, 0
1, 80640, Note_on_c, 9, 38, 127
1, 80640, Note_on_c, 9, 36, 127
1, 80759, Note_on_c, 9, 38, 0
1, 80759, Note_on_c, 9, 36, 0
1, 80760, Note_on_c, 9, 38, 127
1, 80760, Note_on_c, 9, 36, 127
1, 80879, Note_on_c, 9, 38, 0
1, 80879, Note_on_c, 9, 36, 0
1, 80880, Note_on_c, 9, 38, 127
1, 80880, Note_on_c, 9, 36, 127
1, 81119, Note_on_c, 9, 38, 0
1, 81119, Note_on_c, 9, 36, 0
1, 81120, Note_on_c, 9, 38, 127
1, 81120, Note_on_c, 9, 36, 127
1, 81599, Note_on_c, 9, 38, 0
1, 81599, Note_on_c, 9, 36, 0
1, 81600, Note_on_c, 9, 38, 127
1, 81600, Note_on_c, 9, 36, 127
1, 81839, Note_on_c, 9, 36, 0
1, 81840, Note_on_c, 9, 36, 127
1, 82079, Note_on_c, 9, 38, 0
1, 82079, Note_on_c, 9, 36, 0
1, 82080, Note_on_c, 9, 38, 127
1, 82080, Note_on_c, 9, 36, 127
1, 82319, Note_on_c, 9, 38, 0
1, 82319, Note_on_c, 9, 36, 0
1, 82320, Note_on_c, 9, 41, 127
1, 82320, Note_on_c, 9, 38, 127
1, 82320, Note_on_c, 9, 36, 127
1, 82559, Note_on_c, 9, 41, 0
1, 82559, Note_on_c, 9, 38, 0
1, 82559, Note_on_c, 9, 36, 0
1, 83040, Note_on_c, 9, 38, 127
1, 83040, Note_on_c, 9, 36, 127
1, 83519, Note_on_c, 9, 38, 0
1, 83519, Note_on_c, 9, 36, 0
1, 83520, Note_on_c, 9, 38, 127
1, 83520, Note_on_c, 9, 36, 127
1, 83759, Note_on_c, 9, 36, 0
1, 83760, Note_on_c, 9, 36, 127
1, 83999, Note_on_c, 9, 38, 0
1, 83999, Note_on_c, 9, 36, 0
1, 84000, Note_on_c, 9, 38, 127
1, 84000, Note_on_c, 9, 36, 127
1, 84239, Note_on_c, 9, 38, 0
1, 84239, Note_on_c, 9, 36, 0
1, 84240, Note_on_c, 9, 41, 127
1, 84240, Note_on_c, 9, 38, 127
1, 84240, Note_on_c, 9, 36, 127
1, 84479, Note_on_c, 9, 41, 0
1, 84479, Note_on_c, 9, 38, 0
1, 84479, Note_on_c, 9, 36, 0
1, 84480, Note_on_c, 9, 38, 127
1, 84480, Note_on_c, 9, 36, 127
1, 84599, Note_on_c, 9, 38, 0
1, 84599, Note_on_c, 9, 36, 0
1, 84600, Note_on_c, 9, 38, 127
1, 84600, Note_on_c, 9, 36, 127
1, 84719, Note_on_c, 9, 38, 0
1, 84719, Note_on_c, 9, 36, 0
1, 84720, Note_on_c, 9, 38, 127
1, 84720, Note_on_c, 9, 36, 127
1, 84959, Note_on_c, 9, 38, 0
1, 84959, Note_on_c, 9, 36, 0
1, 84960, Note_on_c, 9, 36, 127
1, 85199, Note_on_c, 9, 36, 0
1, 85200, Note_on_c, 9, 36, 127
1, 85439, Note_on_c, 9, 36, 0
1, 85440, Note_on_c, 9, 38, 127
1, 85919, Note_on_c, 9, 38, 0
1, 85920, Note_on_c, 9, 36, 127
1, 86159, Note_on_c, 9, 36, 0
1, 86160, Note_on_c, 9, 36, 127
1, 86399, Note_on_c, 9, 36, 0
1, 86400, Note_on_c, 9, 38, 127
1, 86879, Note_on_c, 9, 38, 0
1, 86880, Note_on_c, 9, 36, 127
1, 87119, Note_on_c, 9, 36, 0
1, 87120, Note_on_c, 9, 36, 127
1, 87359, Note_on_c, 9, 36, 0
1, 87360, Note_on_c, 9, 38, 127
1, 87839, Note_on_c, 9, 38, 0
1, 87840, Note_on_c, 9, 36, 127
1, 88079, Note_on_c, 9, 36, 0
1, 88080, Note_on_c, 9, 36, 127
1, 88319, Note_on_c, 9, 36, 0
1, 88320, Note_on_c, 9, 38, 127
1, 88799, Note_on_c, 9, 38, 0
1, 88800, Note_on_c, 9, 36, 127
1, 89039, Note_on_c, 9, 36, 0
1, 89040, Note_on_c, 9, 36, 127
1, 89279, Note_on_c, 9, 36, 0
1, 89280, Note_on_c, 9, 38, 127
1, 89759, Note_on_c, 9, 38, 0
1, 89760, Note_on_c, 9, 36, 127
1, 89999, Note_on_c, 9, 36, 0
1, 90000, Note_on_c, 9, 36, 127
1, 90239, Note_on_c, 9, 36, 0
1, 90240, Note_on_c, 9, 38, 127
1, 90719, Note_on_c, 9, 38, 0
1, 90720, Note_on_c, 9, 36, 127
1, 90959, Note_on_c, 9, 36, 0
1, 90960, Note_on_c, 9, 36, 127
1, 91199, Note_on_c, 9, 36, 0
1, 91200, Note_on_c, 9, 38, 127
1, 91679, Note_on_c, 9, 38, 0
1, 91680, Note_on_c, 9, 36, 127
1, 91919, Note_on_c, 9, 36, 0
1, 91920, Note_on_c, 9, 36, 127
1, 92159, Note_on_c, 9, 36, 0
1, 92160, Note_on_c, 9, 38, 127
1, 92639, Note_on_c, 9, 38, 0
1, 92640, Note_on_c, 9, 36, 127
1, 92879, Note_on_c, 9, 36, 0
1, 92880, Note_on_c, 9, 36, 127
1, 93119, Note_on_c, 9, 36, 0
1, 93120, Note_on_c, 9, 38, 127
1, 93599, Note_on_c, 9, 38, 0
1, 93600, Note_on_c, 9, 36, 127
1, 93839, Note_on_c, 9, 36, 0
1, 93840, Note_on_c, 9, 36, 127
1, 94079, Note_on_c, 9, 36, 0
1, 94080, Note_on_c, 9, 38, 127
1, 94559, Note_on_c, 9, 38, 0
1, 94560, Note_on_c, 9, 36, 127
1, 94799, Note_on_c, 9, 36, 0
1, 94800, Note_on_c, 9, 36, 127
1, 95039, Note_on_c, 9, 36, 0
1, 95040, Note_on_c, 9, 38, 127
1, 95519, Note_on_c, 9, 38, 0
1, 95520, Note_on_c, 9, 36, 127
1, 95759, Note_on_c, 9, 36, 0
1, 95760, Note_on_c, 9, 36, 127
1, 95999, Note_on_c, 9, 36, 0
1, 96000, Note_on_c, 9, 38, 127
1, 96479, Note_on_c, 9, 38, 0
1, 96480, Note_on_c, 9, 36, 127
1, 96719, Note_on_c, 9, 36, 0
1, 96720, Note_on_c, 9, 36, 127
1, 96959, Note_on_c, 9, 36, 0
1, 96960, Note_on_c, 9, 38, 127
1, 97439, Note_on_c, 9, 38, 0
1, 97440, Note_on_c, 9, 36, 127
1, 97679, Note_on_c, 9, 36, 0
1, 97680, Note_on_c, 9, 36, 127
1, 97919, Note_on_c, 9, 36, 0
1, 97920, Note_on_c, 9, 38, 127
1, 98399, Note_on_c, 9, 38, 0
1, 98400, Note_on_c, 9, 36, 127
1, 98639, Note_on_c, 9, 36, 0
1, 98640, Note_on_c, 9, 36, 127
1, 98879, Note_on_c, 9, 36, 0
1, 98880, Note_on_c, 9, 38, 127
1, 99359, Note_on_c, 9, 38, 0
1, 99360, Note_on_c, 9, 36, 127
1, 99599, Note_on_c, 9, 36, 0
1, 99600, Note_on_c, 9, 36, 127
1, 99839, Note_on_c, 9, 36, 0
1, 99840, Note_on_c, 9, 38, 127
1, 100319, Note_on_c, 9, 38, 0
1, 100320, Note_on_c, 9, 36, 127
1, 100559, Note_on_c, 9, 36, 0
1, 100560, Note_on_c, 9, 36, 127
1, 100799, Note_on_c, 9, 36, 0
1, 100800, Note_on_c, 9, 38, 127
1, 101279, Note_on_c, 9, 38, 0
1, 101280, Note_on_c, 9, 36, 127
1, 101519, Note_on_c, 9, 36, 0
1, 101520, Note_on_c, 9, 36, 127
1, 101759, Note_on_c, 9, 36, 0
1, 101760, Note_on_c, 9, 38, 127
1, 102239, Note_on_c, 9, 38, 0
1, 102240, Note_on_c, 9, 36, 127
1, 102479, Note_on_c, 9, 36, 0
1, 102480, Note_on_c, 9, 36, 127
1, 102719, Note_on_c, 9, 36, 0
1, 102720, Note_on_c, 9, 38, 127
1, 103199, Note_on_c, 9, 38, 0
1, 103200, Note_on_c, 9, 36, 127
1, 103439, Note_on_c, 9, 36, 0
1, 103440, Note_on_c, 9, 36, 127
1, 103679, Note_on_c, 9, 36, 0
1, 103680, Note_on_c, 9, 38, 127
1, 104159, Note_on_c, 9, 38, 0
1, 104160, Note_on_c, 9, 36, 127
1, 104399, Note_on_c, 9, 36, 0
1, 104400, Note_on_c, 9, 36, 127
1, 104639, Note_on_c, 9, 36, 0
1, 104640, Note_on_c, 9, 38, 127
1, 105119, Note_on_c, 9, 38, 0
1, 105120, Note_on_c, 9, 36, 127
1, 105359, Note_on_c, 9, 36, 0
1, 105360, Note_on_c, 9, 36, 127
1, 105599, Note_on_c, 9, 36, 0
1, 105600, Note_on_c, 9, 38, 127
1, 106079, Note_on_c, 9, 38, 0
1, 106080, Note_on_c, 9, 36, 127
1, 106319, Note_on_c, 9, 36, 0
1, 106320, Note_on_c, 9, 36, 127
1, 106559, Note_on_c, 9, 36, 0
1, 106560, Note_on_c, 9, 38, 127
1, 107039, Note_on_c, 9, 38, 0
1, 107040, Note_on_c, 9, 36, 127
1, 107279, Note_on_c, 9, 36, 0
1, 107280, Note_on_c, 9, 36, 127
1, 107519, Note_on_c, 9, 36, 0
1, 107520, Note_on_c, 9, 38, 127
1, 107759, Note_on_c, 9, 38, 0
1, 107760, Note_on_c, 9, 38, 127
1, 107999, Note_on_c, 9, 38, 0
1, 108000, Note_on_c, 9, 38, 102
1, 108000, Note_on_c, 9, 36, 102
1, 108119, Note_on_c, 9, 38, 0
1, 108119, Note_on_c, 9, 36, 0
1, 108120, Note_on_c, 9, 38, 127
1, 108120, Note_on_c, 9, 36, 127
1, 108239, Note_on_c, 9, 36, 0
1, 108240, Note_on_c, 9, 36, 127
1, 108479, Note_on_c, 9, 38, 0
1, 108479, Note_on_c, 9, 36, 0
1, 108480, Note_on_c, 9, 38, 102
1, 108480, Note_on_c, 9, 36, 102
1, 108959, Note_on_c, 9, 38, 0
1, 108959, Note_on_c, 9, 36, 0
1, 108960, Note_on_c, 9, 38, 102
1, 108960, Note_on_c, 9, 36, 127
1, 109079, Note_on_c, 9, 38, 0
1, 109079, Note_on_c, 9, 36, 0
1, 109080, Note_on_c, 9, 38, 127
1, 109080, Note_on_c, 9, 36, 127
1, 109199, Note_on_c, 9, 36, 0
1, 109200, Note_on_c, 9, 36, 127
1, 109439, Note_on_c, 9, 38, 0
1, 109439, Note_on_c, 9, 36, 0
1, 109440, Note_on_c, 9, 38, 102
1, 109440, Note_on_c, 9, 36, 127
1, 109679, Note_on_c, 9, 36, 0
1, 109680, Note_on_c, 9, 36, 127
1, 109919, Note_on_c, 9, 38, 0
1, 109919, Note_on_c, 9, 36, 0
1, 109920, Note_on_c, 9, 38, 102
1, 109920, Note_on_c, 9, 36, 102
1, 110039, Note_on_c, 9, 38, 0
1, 110039, Note_on_c, 9, 36, 0
1, 110040, Note_on_c, 9, 38, 127
1, 110040, Note_on_c, 9, 36, 127
1, 110159, Note_on_c, 9, 36, 0
1, 110160, Note_on_c, 9, 36, 127
1, 110399, Note_on_c, 9, 38, 0
1, 110399, Note_on_c, 9, 36, 0
1, 110400, Note_on_c, 9, 38, 102
1, 110400, Note_on_c, 9, 36, 102
1, 110879, Note_on_c, 9, 38, 0
1, 110879, Note_on_c, 9, 36, 0
1, 110880, Note_on_c, 9, 38, 102
1, 110880, Note_on_c, 9, 36, 127
1, 110999, Note_on_c, 9, 38, 0
1, 110999, Note_on_c, 9, 36, 0
1, 111000, Note_on_c, 9, 38, 127
1, 111000, Note_on_c, 9, 36, 127
1, 111119, Note_on_c, 9, 36, 0
1, 111120, Note_on_c, 9, 36, 127
1, 111359, Note_on_c, 9, 38, 0
1, 111359, Note_on_c, 9, 36, 0
1, 111360, Note_on_c, 9, 38, 102
1, 111360, Note_on_c, 9, 36, 127
1, 111599, Note_on_c, 9, 38, 0
1, 111599, Note_on_c, 9, 36, 0
1, 111600, Note_on_c, 9, 38, 127
1, 111600, Note_on_c, 9, 36, 127
1, 111839, Note_on_c, 9, 38, 0
1, 111839, Note_on_c, 9, 36, 0
1, 111840, Note_on_c, 9, 38, 102
1, 111840, Note_on_c, 9, 36, 102
1, 111959, Note_on_c, 9, 38, 0
1, 111959, Note_on_c, 9, 36, 0
1, 111960, Note_on_c, 9, 38, 127
1, 111960, Note_on_c, 9, 36, 127
1, 112079, Note_on_c, 9, 36, 0
1, 112080, Note_on_c, 9, 36, 127
1, 112319, Note_on_c, 9, 38, 0
1, 112319, Note_on_c, 9, 36, 0
1, 112320, Note_on_c, 9, 38, 102
1, 112320, Note_on_c, 9, 36, 102
1, 112799, Note_on_c, 9, 38, 0
1, 112799, Note_on_c, 9, 36, 0
1, 112800, Note_on_c, 9, 38, 102
1, 112800, Note_on_c, 9, 36, 127
1, 112919, Note_on_c, 9, 38, 0
1, 112919, Note_on_c, 9, 36, 0
1, 112920, Note_on_c, 9, 38, 127
1, 112920, Note_on_c, 9, 36, 127
1, 113039, Note_on_c, 9, 36, 0
1, 113040, Note_on_c, 9, 36, 127
1, 113279, Note_on_c, 9, 38, 0
1, 113279, Note_on_c, 9, 36, 0
1, 113280, Note_on_c, 9, 38, 102
1, 113280, Note_on_c, 9, 36, 127
1, 113519, Note_on_c, 9, 36, 0
1, 113520, Note_on_c, 9, 36, 127
1, 113759, Note_on_c, 9, 38, 0
1, 113759, Note_on_c, 9, 36, 0
1, 113760, Note_on_c, 9, 38, 102
1, 113760, Note_on_c, 9, 36, 102
1, 113879, Note_on_c, 9, 38, 0
1, 113879, Note_on_c, 9, 36, 0
1, 113880, Note_on_c, 9, 38, 127
1, 113880, Note_on_c, 9, 36, 127
1, 113999, Note_on_c, 9, 36, 0
1, 114000, Note_on_c, 9, 36, 127
1, 114239, Note_on_c, 9, 38, 0
1, 114239, Note_on_c, 9, 36, 0
1, 114240, Note_on_c, 9, 38, 102
1, 114240, Note_on_c, 9, 36, 102
1, 114719, Note_on_c, 9, 38, 0
1, 114719, Note_on_c, 9, 36, 0
1, 114720, Note_on_c, 9, 38, 102
1, 114720, Note_on_c, 9, 36, 127
1, 114839, Note_on_c, 9, 38, 0
1, 114839, Note_on_c, 9, 36, 0
1, 114840, Note_on_c, 9, 38, 127
1, 114840, Note_on_c, 9, 36, 127
1, 114959, Note_on_c, 9, 36, 0
1, 114960, Note_on_c, 9, 36, 127
1, 115199, Note_on_c, 9, 38, 0
1, 115199, Note_on_c, 9, 36, 0
1, 115200, Note_on_c, 9, 38, 102
1, 115200, Note_on_c, 9, 36, 127
1, 115439, Note_on_c, 9, 38, 0
1, 115439, Note_on_c, 9, 36, 0
1, 115440, Note_on_c, 9, 38, 127
1, 115440, Note_on_c, 9, 36, 127
1, 115679, Note_on_c, 9, 38, 0
1, 115679, Note_on_c, 9, 36, 0
1, 115680, Note_on_c, 9, 38, 102
1, 115680, Note_on_c, 9, 36, 102
1, 115799, Note_on_c, 9, 38, 0
1, 115799, Note_on_c, 9, 36, 0
1, 115800, Note_on_c, 9, 38, 127
1, 115800, Note_on_c, 9, 36, 127
1, 115919, Note_on_c, 9, 36, 0
1, 115920, Note_on_c, 9, 36, 127
1, 116159, Note_on_c, 9, 38, 0
1, 116159, Note_on_c, 9, 36, 0
1, 116160, Note_on_c, 9, 38, 102
1, 116160, Note_on_c, 9, 36, 102
1, 116639, Note_on_c, 9, 38, 0
1, 116639, Note_on_c, 9, 36, 0
1, 116640, Note_on_c, 9, 38, 102
1, 116640, Note_on_c, 9, 36, 127
1, 116759, Note_on_c, 9, 38, 0
1, 116759, Note_on_c, 9, 36, 0
1, 116760, Note_on_c, 9, 38, 127
1, 116760, Note_on_c, 9, 36, 127
1, 116879, Note_on_c, 9, 36, 0
1, 116880, Note_on_c, 9, 36, 127
1, 117119, Note_on_c, 9, 38, 0
1, 117119, Note_on_c, 9, 36, 0
1, 117120, Note_on_c, 9, 38, 102
1, 117120, Note_on_c, 9, 36, 127
1, 117359, Note_on_c, 9, 36, 0
1, 117360, Note_on_c, 9, 36, 127
1, 117599, Note_on_c, 9, 38, 0
1, 117599, Note_on_c, 9, 36, 0
1, 117600, Note_on_c, 9, 38, 102
1, 117600, Note_on_c, 9, 36, 102
1, 117719, Note_on_c, 9, 38, 0
1, 117719, Note_on_c, 9, 36, 0
1, 117720, Note_on_c, 9, 38, 127
1, 117720, Note_on_c, 9, 36, 127
1, 117839, Note_on_c, 9, 36, 0
1, 117840, Note_on_c, 9, 36, 127
1, 118079, Note_on_c, 9, 38, 0
1, 118079, Note_on_c, 9, 36, 0
1, 118080, Note_on_c, 9, 38, 102
1, 118080, Note_on_c, 9, 36, 102
1, 118559, Note_on_c, 9, 38, 0
1, 118559, Note_on_c, 9, 36, 0
1, 118560, Note_on_c, 9, 38, 102
1, 118560, Note_on_c, 9, 36, 127
1, 118679, Note_on_c, 9, 38, 0
1, 118679, Note_on_c, 9, 36, 0
1, 118680, Note_on_c, 9, 38, 127
1, 118680, Note_on_c, 9, 36, 127
1, 118799, Note_on_c, 9, 36, 0
1, 118800, Note_on_c, 9, 36, 127
1, 119039, Note_on_c, 9, 38, 0
1, 119039, Note_on_c, 9, 36, 0
1, 119040, Note_on_c, 9, 38, 102
1, 119040, Note_on_c, 9, 36, 127
1, 119279, Note_on_c, 9, 38, 0
1, 119279, Note_on_c, 9, 36, 0
1, 119280, Note_on_c, 9, 38, 127
1, 119280, Note_on_c, 9, 36, 127
1, 119519, Note_on_c, 9, 38, 0
1, 119519, Note_on_c, 9, 36, 0
1, 119520, Note_on_c, 9, 38, 102
1, 119520, Note_on_c, 9, 36, 102
1, 119639, Note_on_c, 9, 38, 0
1, 119639, Note_on_c, 9, 36, 0
1, 119640, Note_on_c, 9, 38, 127
1, 119640, Note_on_c, 9, 36, 127
1, 119759, Note_on_c, 9, 36, 0
1, 119760, Note_on_c, 9, 36, 127
1, 119999, Note_on_c, 9, 38, 0
1, 119999, Note_on_c, 9, 36, 0
1, 120000, Note_on_c, 9, 38, 102
1, 120000, Note_on_c, 9, 36, 102
1, 120479, Note_on_c, 9, 38, 0
1, 120479, Note_on_c, 9, 36, 0
1, 120480, Note_on_c, 9, 38, 102
1, 120480, Note_on_c, 9, 36, 127
1, 120599, Note_on_c, 9, 38, 0
1, 120599, Note_on_c, 9, 36, 0
1, 120600, Note_on_c, 9, 38, 127
1, 120600, Note_on_c, 9, 36, 127
1, 120719, Note_on_c, 9, 36, 0
1, 120720, Note_on_c, 9, 36, 127
1, 120959, Note_on_c, 9, 38, 0
1, 120959, Note_on_c, 9, 36, 0
1, 120960, Note_on_c, 9, 38, 102
1, 120960, Note_on_c, 9, 36, 127
1, 121199, Note_on_c, 9, 36, 0
1, 121200, Note_on_c, 9, 36, 127
1, 121439, Note_on_c, 9, 38, 0
1, 121439, Note_on_c, 9, 36, 0
1, 121440, Note_on_c, 9, 38, 127
1, 121440, Note_on_c, 9, 36, 127
1, 121559, Note_on_c, 9, 38, 0
1, 121560, Note_on_c, 9, 38, 127
1, 121679, Note_on_c, 9, 36, 0
1, 121679, Note_on_c, 9, 38, 0
1, 121680, Note_on_c, 9, 38, 127
1, 121680, Note_on_c, 9, 36, 127
1, 121799, Note_on_c, 9, 38, 0
1, 121800, Note_on_c, 9, 38, 127
1, 121919, Note_on_c, 9, 36, 0
1, 121919, Note_on_c, 9, 38, 0
1, 121920, Note_on_c, 9, 38, 127
1, 121920, Note_on_c, 9, 36, 127
1, 122039, Note_on_c, 9, 38, 0
1, 122040, Note_on_c, 9, 38, 127
1, 122159, Note_on_c, 9, 36, 0
1, 122159, Note_on_c, 9, 38, 0
1, 122160, Note_on_c, 9, 38, 127
1, 122160, Note_on_c, 9, 36, 127
1, 122279, Note_on_c, 9, 38, 0
1, 122280, Note_on_c, 9, 38, 127
1, 122399, Note_on_c, 9, 36, 0
1, 122399, Note_on_c, 9, 38, 0
1, 122400, Note_on_c, 9, 38, 127
1, 122400, Note_on_c, 9, 36, 127
1, 122519, Note_on_c, 9, 38, 0
1, 122520, Note_on_c, 9, 38, 127
1, 122639, Note_on_c, 9, 36, 0
1, 122639, Note_on_c, 9, 38, 0
1, 122640, Note_on_c, 9, 38, 127
1, 122640, Note_on_c, 9, 36, 127
1, 122759, Note_on_c, 9, 38, 0
1, 122760, Note_on_c, 9, 38, 127
1, 122879, Note_on_c, 9, 36, 0
1, 122879, Note_on_c, 9, 38, 0
1, 122880, Note_on_c, 9, 38, 127
1, 122880, Note_on_c, 9, 36, 127
1, 123119, Note_on_c, 9, 36, 0
1, 123120, Note_on_c, 9, 36, 127
1, 123359, Note_on_c, 9, 38, 0
1, 123359, Note_on_c, 9, 36, 0
1, 123360, Note_on_c, 9, 38, 127
1, 123360, Note_on_c, 9, 36, 127
1, 123839, Note_on_c, 9, 38, 0
1, 123839, Note_on_c, 9, 36, 0
1, 123840, Note_on_c, 9, 38, 127
1, 123840, Note_on_c, 9, 36, 127
1, 124319, Note_on_c, 9, 38, 0
1, 124319, Note_on_c, 9, 36, 0
1, 124320, Note_on_c, 9, 38, 127
1, 124439, Note_on_c, 9, 38, 0
1, 124440, Note_on_c, 9, 38, 127
1, 124560, Note_on_c, 9, 35, 127
1, 124560, Note_on_c, 9, 36, 127
1, 124799, Note_on_c, 9, 38, 0
1, 124799, Note_on_c, 9, 35, 0
1, 124799, Note_on_c, 9, 36, 0
1, 124800, Note_on_c, 9, 38, 127
1, 124919, Note_on_c, 9, 38, 0
1, 124920, Note_on_c, 9, 38, 127
1, 125040, Note_on_c, 9, 35, 127
1, 125040, Note_on_c, 9, 36, 127
1, 125279, Note_on_c, 9, 38, 0
1, 125279, Note_on_c, 9, 35, 0
1, 125279, Note_on_c, 9, 36, 0
1, 125280, Note_on_c, 9, 38, 127
1, 125280, Note_on_c, 9, 36, 127
1, 125759, Note_on_c, 9, 38, 0
1, 125759, Note_on_c, 9, 36, 0
1, 125760, Note_on_c, 9, 38, 127
1, 125760, Note_on_c, 9, 36, 127
1, 126239, Note_on_c, 9, 38, 0
1, 126239, Note_on_c, 9, 36, 0
1, 126240, Note_on_c, 9, 38, 127
1, 126359, Note_on_c, 9, 38, 0
1, 126360, Note_on_c, 9, 38, 127
1, 126480, Note_on_c, 9, 35, 127
1, 126480, Note_on_c, 9, 36, 127
1, 126719, Note_on_c, 9, 38, 0
1, 126719, Note_on_c, 9, 35, 0
1, 126719, Note_on_c, 9, 36, 0
1, 126720, Note_on_c, 9, 38, 127
1, 126839, Note_on_c, 9, 38, 0
1, 126840, Note_on_c, 9, 38, 127
1, 126960, Note_on_c, 9, 35, 127
1, 126960, Note_on_c, 9, 36, 127
1, 127199, Note_on_c, 9, 38, 0
1, 127199, Note_on_c, 9, 35, 0
1, 127199, Note_on_c, 9, 36, 0
1, 127200, Note_on_c, 9, 38, 127
1, 127200, Note_on_c, 9, 36, 127
1, 127679, Note_on_c, 9, 38, 0
1, 127679, Note_on_c, 9, 36, 0
1, 127680, Note_on_c, 9, 38, 127
1, 127680, Note_on_c, 9, 36, 127
1, 128159, Note_on_c, 9, 38, 0
1, 128159, Note_on_c, 9, 36, 0
1, 128160, Note_on_c, 9, 38, 127
1, 128279, Note_on_c, 9, 38, 0
1, 128280, Note_on_c, 9, 38, 127
1, 128400, Note_on_c, 9, 35, 127
1, 128400, Note_on_c, 9, 36, 127
1, 128639, Note_on_c, 9, 38, 0
1, 128639, Note_on_c, 9, 35, 0
1, 128639, Note_on_c, 9, 36, 0
1, 128640, Note_on_c, 9, 38, 127
1, 128759, Note_on_c, 9, 38, 0
1, 128760, Note_on_c, 9, 38, 127
1, 128880, Note_on_c, 9, 35, 127
1, 128880, Note_on_c, 9, 36, 127
1, 129119, Note_on_c, 9, 38, 0
1, 129119, Note_on_c, 9, 35, 0
1, 129119, Note_on_c, 9, 36, 0
1, 129120, Note_on_c, 9, 38, 127
1, 129120, Note_on_c, 9, 36, 127
1, 129599, Note_on_c, 9, 38, 0
1, 129599, Note_on_c, 9, 36, 0
1, 129600, Note_on_c, 9, 38, 127
1, 129600, Note_on_c, 9, 36, 127
1, 130079, Note_on_c, 9, 38, 0
1, 130079, Note_on_c, 9, 36, 0
1, 130080, Note_on_c, 9, 38, 127
1, 130199, Note_on_c, 9, 38, 0
1, 130200, Note_on_c, 9, 38, 127
1, 130320, Note_on_c, 9, 35, 127
1, 130320, Note_on_c, 9, 36, 127
1, 130559, Note_on_c, 9, 38, 0
1, 130559, Note_on_c, 9, 35, 0
1, 130559, Note_on_c, 9, 36, 0
1, 130560, Note_on_c, 9, 38, 127
1, 130679, Note_on_c, 9, 38, 0
1, 130680, Note_on_c, 9, 38, 127
1, 130800, Note_on_c, 9, 35, 127
1, 130800, Note_on_c, 9, 36, 127
1, 131039, Note_on_c, 9, 38, 0
1, 131039, Note_on_c, 9, 35, 0
1, 131039, Note_on_c, 9, 36, 0
1, 131040, Note_on_c, 9, 38, 127
1, 131040, Note_on_c, 9, 36, 127
1, 131519, Note_on_c, 9, 38, 0
1, 131519, Note_on_c, 9, 36, 0
1, 131520, Note_on_c, 9, 38, 127
1, 131520, Note_on_c, 9, 36, 127
1, 131999, Note_on_c, 9, 38, 0
1, 131999, Note_on_c, 9, 36, 0
1, 132000, Note_on_c, 9, 38, 127
1, 132119, Note_on_c, 9, 38, 0
1, 132120, Note_on_c, 9, 38, 127
1, 132240, Note_on_c, 9, 35, 127
1, 132240, Note_on_c, 9, 36, 127
1, 132479, Note_on_c, 9, 38, 0
1, 132479, Note_on_c, 9, 35, 0
1, 132479, Note_on_c, 9, 36, 0
1, 132480, Note_on_c, 9, 38, 127
1, 132599, Note_on_c, 9, 38, 0
1, 132600, Note_on_c, 9, 38, 127
1, 132720, Note_on_c, 9, 35, 127
1, 132720, Note_on_c, 9, 36, 127
1, 132959, Note_on_c, 9, 38, 0
1, 132959, Note_on_c, 9, 35, 0
1, 132959, Note_on_c, 9, 36, 0
1, 132960, Note_on_c, 9, 38, 127
1, 132960, Note_on_c, 9, 36, 127
1, 133439, Note_on_c, 9, 38, 0
1, 133439, Note_on_c, 9, 36, 0
1, 133440, Note_on_c, 9, 38, 127
1, 133440, Note_on_c, 9, 36, 127
1, 133919, Note_on_c, 9, 38, 0
1, 133919, Note_on_c, 9, 36, 0
1, 133920, Note_on_c, 9, 38, 127
1, 134039, Note_on_c, 9, 38, 0
1, 134040, Note_on_c, 9, 38, 127
1, 134160, Note_on_c, 9, 35, 127
1, 134160, Note_on_c, 9, 36, 127
1, 134399, Note_on_c, 9, 38, 0
1, 134399, Note_on_c, 9, 35, 0
1, 134399, Note_on_c, 9, 36, 0
1, 134400, Note_on_c, 9, 38, 127
1, 134519, Note_on_c, 9, 38, 0
1, 134520, Note_on_c, 9, 38, 127
1, 134640, Note_on_c, 9, 35, 127
1, 134640, Note_on_c, 9, 36, 127
1, 134879, Note_on_c, 9, 38, 0
1, 134879, Note_on_c, 9, 35, 0
1, 134879, Note_on_c, 9, 36, 0
1, 134880, Note_on_c, 9, 38, 127
1, 134880, Note_on_c, 9, 36, 127
1, 135359, Note_on_c, 9, 38, 0
1, 135359, Note_on_c, 9, 36, 0
1, 135360, Note_on_c, 9, 38, 127
1, 135360, Note_on_c, 9, 36, 127
1, 135839, Note_on_c, 9, 38, 0
1, 135839, Note_on_c, 9, 36, 0
1, 135840, Note_on_c, 9, 38, 127
1, 135959, Note_on_c, 9, 38, 0
1, 135960, Note_on_c, 9, 38, 127
1, 136080, Note_on_c, 9, 35, 127
1, 136080, Note_on_c, 9, 36, 127
1, 136319, Note_on_c, 9, 38, 0
1, 136319, Note_on_c, 9, 35, 0
1, 136319, Note_on_c, 9, 36, 0
1, 136320, Note_on_c, 9, 38, 127
1, 136439, Note_on_c, 9, 38, 0
1, 136440, Note_on_c, 9, 38, 127
1, 136560, Note_on_c, 9, 35, 127
1, 136560, Note_on_c, 9, 36, 127
1, 136799, Note_on_c, 9, 38, 0
1, 136799, Note_on_c, 9, 35, 0
1, 136799, Note_on_c, 9, 36, 0
1, 136800, Note_on_c, 9, 38, 127
1, 136800, Note_on_c, 9, 36, 127
1, 137279, Note_on_c, 9, 38, 0
1, 137279, Note_on_c, 9, 36, 0
1, 137280, Note_on_c, 9, 38, 127
1, 137280, Note_on_c, 9, 36, 127
1, 137759, Note_on_c, 9, 38, 0
1, 137759, Note_on_c, 9, 36, 0
1, 137760, Note_on_c, 9, 38, 127
1, 137879, Note_on_c, 9, 38, 0
1, 137880, Note_on_c, 9, 38, 127
1, 138000, Note_on_c, 9, 35, 127
1, 138000, Note_on_c, 9, 36, 127
1, 138239, Note_on_c, 9, 38, 0
1, 138239, Note_on_c, 9, 35, 0
1, 138239, Note_on_c, 9, 36, 0
1, 138240, Note_on_c, 9, 38, 127
1, 138359, Note_on_c, 9, 38, 0
1, 138360, Note_on_c, 9, 38, 127
1, 138480, Note_on_c, 9, 35, 127
1, 138480, Note_on_c, 9, 36, 127
1, 138719, Note_on_c, 9, 38, 0
1, 138719, Note_on_c, 9, 35, 0
1, 138719, Note_on_c, 9, 36, 0
1, 138720, Note_on_c, 9, 38, 127
1, 138720, Note_on_c, 9, 36, 127
1, 139199, Note_on_c, 9, 38, 0
1, 139199, Note_on_c, 9, 36, 0
1, 139200, Note_on_c, 9, 38, 127
1, 139200, Note_on_c, 9, 36, 127
1, 139439, Note_on_c, 9, 36, 0
1, 139440, Note_on_c, 9, 36, 127
1, 139679, Note_on_c, 9, 38, 0
1, 139679, Note_on_c, 9, 36, 0
1, 139680, Note_on_c, 9, 38, 127
1, 139680, Note_on_c, 9, 36, 127
1, 139919, Note_on_c, 9, 38, 0
1, 139919, Note_on_c, 9, 36, 0
1, 139920, Note_on_c, 9, 41, 127
1, 139920, Note_on_c, 9, 38, 127
1, 139920, Note_on_c, 9, 36, 127
1, 140159, Note_on_c, 9, 41, 0
1, 140159, Note_on_c, 9, 38, 0
1, 140159, Note_on_c, 9, 36, 0
1, 140640, Note_on_c, 9, 38, 127
1, 140640, Note_on_c, 9, 36, 127
1, 141119, Note_on_c, 9, 38, 0
1, 141119, Note_on_c, 9, 36, 0
1, 141120, Note_on_c, 9, 38, 127
1, 141120, Note_on_c, 9, 36, 127
1, 141359, Note_on_c, 9, 36, 0
1, 141360, Note_on_c, 9, 36, 127
1, 141599, Note_on_c, 9, 38, 0
1, 141599, Note_on_c, 9, 36, 0
1, 141600, Note_on_c, 9, 38, 127
1, 141600, Note_on_c, 9, 36, 127
1, 141839, Note_on_c, 9, 38, 0
1, 141839, Note_on_c, 9, 36, 0
1, 141840, Note_on_c, 9, 41, 127
1, 141840, Note_on_c, 9, 38, 127
1, 141840, Note_on_c, 9, 36, 127
1, 142079, Note_on_c, 9, 41, 0
1, 142079, Note_on_c, 9, 38, 0
1, 142079, Note_on_c, 9, 36, 0
1, 142080, Note_on_c, 9, 38, 127
1, 142080, Note_on_c, 9, 36, 127
1, 142199, Note_on_c, 9, 38, 0
1, 142199, Note_on_c, 9, 36, 0
1, 142200, Note_on_c, 9, 38, 127
1, 142200, Note_on_c, 9, 36, 127
1, 142319, Note_on_c, 9, 38, 0
1, 142319, Note_on_c, 9, 36, 0
1, 142320, Note_on_c, 9, 38, 127
1, 142320, Note_on_c, 9, 36, 127
1, 142559, Note_on_c, 9, 38, 0
1, 142559, Note_on_c, 9, 36, 0
1, 142560, Note_on_c, 9, 38, 127
1, 142560, Note_on_c, 9, 36, 127
1, 143039, Note_on_c, 9, 38, 0
1, 143039, Note_on_c, 9, 36, 0
1, 143040, Note_on_c, 9, 38, 127
1, 143040, Note_on_c, 9, 36, 127
1, 143279, Note_on_c, 9, 36, 0
1, 143280, Note_on_c, 9, 36, 127
1, 143519, Note_on_c, 9, 38, 0
1, 143519, Note_on_c, 9, 36, 0
1, 143520, Note_on_c, 9, 38, 127
1, 143520, Note_on_c, 9, 36, 127
1, 143759, Note_on_c, 9, 38, 0
1, 143759, Note_on_c, 9, 36, 0
1, 143760, Note_on_c, 9, 41, 127
1, 143760, Note_on_c, 9, 38, 127
1, 143760, Note_on_c, 9, 36, 127
1, 143999, Note_on_c, 9, 41, 0
1, 143999, Note_on_c, 9, 38, 0
1, 143999, Note_on_c, 9, 36, 0
1, 144480, Note_on_c, 9, 38, 127
1, 144480, Note_on_c, 9, 36, 127
1, 144959, Note_on_c, 9, 38, 0
1, 144959, Note_on_c, 9, 36, 0
1, 144960, Note_on_c, 9, 38, 127
1, 144960, Note_on_c, 9, 36, 127
1, 145199, Note_on_c, 9, 36, 0
1, 145200, Note_on_c, 9, 36, 127
1, 145439, Note_on_c, 9, 38, 0
1, 145439, Note_on_c, 9, 36, 0
1, 145440, Note_on_c, 9, 38, 127
1, 145440, Note_on_c, 9, 36, 127
1, 145679, Note_on_c, 9, 38, 0
1, 145679, Note_on_c, 9, 36, 0
1, 145680, Note_on_c, 9, 41, 127
1, 145680, Note_on_c, 9, 38, 127
1, 145680, Note_on_c, 9, 36, 127
1, 145919, Note_on_c, 9, 41, 0
1, 145919, Note_on_c, 9, 38, 0
1, 145919, Note_on_c, 9, 36, 0
1, 145920, Note_on_c, 9, 38, 127
1, 145920, Note_on_c, 9, 36, 127
1, 146039, Note_on_c, 9, 38, 0
1, 146039, Note_on_c, 9, 36, 0
1, 146040, Note_on_c, 9, 38, 127
1, 146040, Note_on_c, 9, 36, 127
1, 146159, Note_on_c, 9, 38, 0
1, 146159, Note_on_c, 9, 36, 0
1, 146160, Note_on_c, 9, 38, 127
1, 146160, Note_on_c, 9, 36, 127
1, 146399, Note_on_c, 9, 38, 0
1, 146399, Note_on_c, 9, 36, 0
1, 146400, Note_on_c, 9, 38, 127
1, 146400, Note_on_c, 9, 36, 127
1, 146879, Note_on_c, 9, 38, 0
1, 146879, Note_on_c, 9, 36, 0
1, 146880, Note_on_c, 9, 38, 127
1, 146880, Note_on_c, 9, 36, 127
1, 147359, Note_on_c, 9, 38, 0
1, 147359, Note_on_c, 9, 36, 0
1, 147360, Note_on_c, 9, 38, 127
1, 147479, Note_on_c, 9, 38, 0
1, 147480, Note_on_c, 9, 38, 127
1, 147600, Note_on_c, 9, 35, 127
1, 147600, Note_on_c, 9, 36, 127
1, 147839, Note_on_c, 9, 38, 0
1, 147839, Note_on_c, 9, 35, 0
1, 147839, Note_on_c, 9, 36, 0
1, 147840, Note_on_c, 9, 38, 127
1, 147959, Note_on_c, 9, 38, 0
1, 147960, Note_on_c, 9, 38, 127
1, 148080, Note_on_c, 9, 35, 127
1, 148080, Note_on_c, 9, 36, 127
1, 148319, Note_on_c, 9, 38, 0
1, 148319, Note_on_c, 9, 35, 0
1, 148319, Note_on_c, 9, 36, 0
1, 148320, Note_on_c, 9, 38, 127
1, 148320, Note_on_c, 9, 36, 127
1, 148799, Note_on_c, 9, 38, 0
1, 148799, Note_on_c, 9, 36, 0
1, 148800, Note_on_c, 9, 38, 127
1, 148800, Note_on_c, 9, 36, 127
1, 149279, Note_on_c, 9, 38, 0
1, 149279, Note_on_c, 9, 36, 0
1, 149280, Note_on_c, 9, 38, 127
1, 149399, Note_on_c, 9, 38, 0
1, 149400, Note_on_c, 9, 38, 127
1, 149520, Note_on_c, 9, 35, 127
1, 149520, Note_on_c, 9, 36, 127
1, 149759, Note_on_c, 9, 38, 0
1, 149759, Note_on_c, 9, 35, 0
1, 149759, Note_on_c, 9, 36, 0
1, 149760, Note_on_c, 9, 38, 127
1, 149879, Note_on_c, 9, 38, 0
1, 149880, Note_on_c, 9, 38, 127
1, 150000, Note_on_c, 9, 35, 127
1, 150000, Note_on_c, 9, 36, 127
1, 150239, Note_on_c, 9, 38, 0
1, 150239, Note_on_c, 9, 35, 0
1, 150239, Note_on_c, 9, 36, 0
1, 150240, Note_on_c, 9, 38, 127
1, 150240, Note_on_c, 9, 36, 127
1, 150719, Note_on_c, 9, 38, 0
1, 150719, Note_on_c, 9, 36, 0
1, 150720, Note_on_c, 9, 38, 127
1, 150720, Note_on_c, 9, 36, 127
1, 151199, Note_on_c, 9, 38, 0
1, 151199, Note_on_c, 9, 36, 0
1, 151200, Note_on_c, 9, 38, 127
1, 151319, Note_on_c, 9, 38, 0
1, 151320, Note_on_c, 9, 38, 127
1, 151440, Note_on_c, 9, 35, 127
1, 151440, Note_on_c, 9, 36, 127
1, 151679, Note_on_c, 9, 38, 0
1, 151679, Note_on_c, 9, 35, 0
1, 151679, Note_on_c, 9, 36, 0
1, 151680, Note_on_c, 9, 38, 127
1, 151799, Note_on_c, 9, 38, 0
1, 151800, Note_on_c, 9, 38, 127
1, 151920, Note_on_c, 9, 35, 127
1, 151920, Note_on_c, 9, 36, 127
1, 152159, Note_on_c, 9, 38, 0
1, 152159, Note_on_c, 9, 35, 0
1, 152159, Note_on_c, 9, 36, 0
1, 152160, Note_on_c, 9, 38, 127
1, 152160, Note_on_c, 9, 36, 127
1, 152639, Note_on_c, 9, 38, 0
1, 152639, Note_on_c, 9, 36, 0
1, 152640, Note_on_c, 9, 38, 127
1, 152640, Note_on_c, 9, 36, 127
1, 153119, Note_on_c, 9, 38, 0
1, 153119, Note_on_c, 9, 36, 0
1, 153120, Note_on_c, 9, 38, 127
1, 153239, Note_on_c, 9, 38, 0
1, 153240, Note_on_c, 9, 38, 127
1, 153360, Note_on_c, 9, 35, 127
1, 153360, Note_on_c, 9, 36, 127
1, 153599, Note_on_c, 9, 38, 0
1, 153599, Note_on_c, 9, 35, 0
1, 153599, Note_on_c, 9, 36, 0
1, 153600, Note_on_c, 9, 38, 127
1, 153719, Note_on_c, 9, 38, 0
1, 153720, Note_on_c, 9, 38, 127
1, 153840, Note_on_c, 9, 35, 127
1, 153840, Note_on_c, 9, 36, 127
1, 154079, Note_on_c, 9, 38, 0
1, 154079, Note_on_c, 9, 35, 0
1, 154079, Note_on_c, 9, 36, 0
1, 154080, Note_on_c, 9, 38, 127
1, 154080, Note_on_c, 9, 36, 127
1, 154559, Note_on_c, 9, 38, 0
1, 154559, Note_on_c, 9, 36, 0
1, 154560, Note_on_c, 9, 38, 127
1, 154560, Note_on_c, 9, 36, 127
1, 155039, Note_on_c, 9, 38, 0
1, 155039, Note_on_c, 9, 36, 0
1, 155040, Note_on_c, 9, 38, 127
1, 155159, Note_on_c, 9, 38, 0
1, 155160, Note_on_c, 9, 38, 127
1, 155280, Note_on_c, 9, 35, 127
1, 155280, Note_on_c, 9, 36, 127
1, 155519, Note_on_c, 9, 38, 0
1, 155519, Note_on_c, 9, 35, 0
1, 155519, Note_on_c, 9, 36, 0
1, 155520, Note_on_c, 9, 38, 127
1, 155639, Note_on_c, 9, 38, 0
1, 155640, Note_on_c, 9, 38, 127
1, 155760, Note_on_c, 9, 35, 127
1, 155760, Note_on_c, 9, 36, 127
1, 155999, Note_on_c, 9, 38, 0
1, 155999, Note_on_c, 9, 35, 0
1, 155999, Note_on_c, 9, 36, 0
1, 156000, Note_on_c, 9, 38, 127
1, 156000, Note_on_c, 9, 36, 127
1, 156479, Note_on_c, 9, 38, 0
1, 156479, Note_on_c, 9, 36, 0
1, 156480, Note_on_c, 9, 38, 127
1, 156480, Note_on_c, 9, 36, 127
1, 156959, Note_on_c, 9, 38, 0
1, 156959, Note_on_c, 9, 36, 0
1, 156960, Note_on_c, 9, 38, 127
1, 157079, Note_on_c, 9, 38, 0
1, 157080, Note_on_c, 9, 38, 127
1, 157200, Note_on_c, 9, 35, 127
1, 157200, Note_on_c, 9, 36, 127
1, 157439, Note_on_c, 9, 38, 0
1, 157439, Note_on_c, 9, 35, 0
1, 157439, Note_on_c, 9, 36, 0
1, 157440, Note_on_c, 9, 38, 127
1, 157559, Note_on_c, 9, 38, 0
1, 157560, Note_on_c, 9, 38, 127
1, 157680, Note_on_c, 9, 35, 127
1, 157680, Note_on_c, 9, 36, 127
1, 157919, Note_on_c, 9, 38, 0
1, 157919, Note_on_c, 9, 35, 0
1, 157919, Note_on_c, 9, 36, 0
1, 157920, Note_on_c, 9, 38, 127
1, 157920, Note_on_c, 9, 36, 127
1, 158399, Note_on_c, 9, 38, 0
1, 158399, Note_on_c, 9, 36, 0
1, 158400, Note_on_c, 9, 38, 127
1, 158400, Note_on_c, 9, 36, 127
1, 158879, Note_on_c, 9, 38, 0
1, 158879, Note_on_c, 9, 36, 0
1, 158880, Note_on_c, 9, 38, 127
1, 158999, Note_on_c, 9, 38, 0
1, 159000, Note_on_c, 9, 38, 127
1, 159120, Note_on_c, 9, 35, 127
1, 159120, Note_on_c, 9, 36, 127
1, 159359, Note_on_c, 9, 38, 0
1, 159359, Note_on_c, 9, 35, 0
1, 159359, Note_on_c, 9, 36, 0
1, 159360, Note_on_c, 9, 38, 127
1, 159479, Note_on_c, 9, 38, 0
1, 159480, Note_on_c, 9, 38, 127
1, 159600, Note_on_c, 9, 35, 127
1, 159600, Note_on_c, 9, 36, 127
1, 159839, Note_on_c, 9, 38, 0
1, 159839, Note_on_c, 9, 35, 0
1, 159839, Note_on_c, 9, 36, 0
1, 159840, Note_on_c, 9, 38, 127
1, 159840, Note_on_c, 9, 36, 127
1, 160319, Note_on_c, 9, 38, 0
1, 160319, Note_on_c, 9, 36, 0
1, 160320, Note_on_c, 9, 38, 127
1, 160320, Note_on_c, 9, 36, 127
1, 160799, Note_on_c, 9, 38, 0
1, 160799, Note_on_c, 9, 36, 0
1, 160800, Note_on_c, 9, 38, 127
1, 160919, Note_on_c, 9, 38, 0
1, 160920, Note_on_c, 9, 38, 127
1, 161040, Note_on_c, 9, 35, 127
1, 161040, Note_on_c, 9, 36, 127
1, 161279, Note_on_c, 9, 38, 0
1, 161279, Note_on_c, 9, 35, 0
1, 161279, Note_on_c, 9, 36, 0
1, 161280, Note_on_c, 9, 38, 127
1, 161399, Note_on_c, 9, 38, 0
1, 161400, Note_on_c, 9, 38, 127
1, 161520, Note_on_c, 9, 35, 127
1, 161520, Note_on_c, 9, 36, 127
1, 161759, Note_on_c, 9, 38, 0
1, 161759, Note_on_c, 9, 35, 0
1, 161759, Note_on_c, 9, 36, 0
1, 161760, Note_on_c, 9, 38, 127
1, 161760, Note_on_c, 9, 36, 127
1, 162239, Note_on_c, 9, 38, 0
1, 162239, Note_on_c, 9, 36, 0
1, 162240, Note_on_c, 9, 38, 127
1, 162240, Note_on_c, 9, 36, 127
1, 162719, Note_on_c, 9, 38, 0
1, 162719, Note_on_c, 9, 36, 0
1, 162720, Note_on_c, 9, 38, 127
1, 162839, Note_on_c, 9, 38, 0
1, 162840, Note_on_c, 9, 38, 127
1, 162960, Note_on_c, 9, 35, 127
1, 162960, Note_on_c, 9, 36, 127
1, 163199, Note_on_c, 9, 38, 0
1, 163199, Note_on_c, 9, 35, 0
1, 163199, Note_on_c, 9, 36, 0
1, 163200, Note_on_c, 9, 38, 127
1, 163319, Note_on_c, 9, 38, 0
1, 163320, Note_on_c, 9, 38, 127
1, 163440, Note_on_c, 9, 35, 127
1, 163440, Note_on_c, 9, 36, 127
1, 163679, Note_on_c, 9, 38, 0
1, 163679, Note_on_c, 9, 35, 0
1, 163679, Note_on_c, 9, 36, 0
1, 163680, Note_on_c, 9, 38, 127
1, 163680, Note_on_c, 9, 36, 127
1, 164159, Note_on_c, 9, 38, 0
1, 164159, Note_on_c, 9, 36, 0
1, 164160, Note_on_c, 9, 38, 127
1, 164160, Note_on_c, 9, 36, 127
1, 164639, Note_on_c, 9, 38, 0
1, 164639, Note_on_c, 9, 36, 0
1, 164640, Note_on_c, 9, 38, 127
1, 164759, Note_on_c, 9, 38, 0
1, 164760, Note_on_c, 9, 38, 127
1, 164880, Note_on_c, 9, 35, 127
1, 164880, Note_on_c, 9, 36, 127
1, 165119, Note_on_c, 9, 38, 0
1, 165119, Note_on_c, 9, 35, 0
1, 165119, Note_on_c, 9, 36, 0
1, 165120, Note_on_c, 9, 38, 127
1, 165239, Note_on_c, 9, 38, 0
1, 165240, Note_on_c, 9, 38, 127
1, 165360, Note_on_c, 9, 35, 127
1, 165360, Note_on_c, 9, 36, 127
1, 165599, Note_on_c, 9, 38, 0
1, 165599, Note_on_c, 9, 35, 0
1, 165599, Note_on_c, 9, 36, 0
1, 165600, Note_on_c, 9, 38, 127
1, 165600, Note_on_c, 9, 36, 127
1, 166079, Note_on_c, 9, 38, 0
1, 166079, Note_on_c, 9, 36, 0
1, 166080, Note_on_c, 9, 38, 127
1, 166080, Note_on_c, 9, 36, 127
1, 166559, Note_on_c, 9, 38, 0
1, 166559, Note_on_c, 9, 36, 0
1, 166560, Note_on_c, 9, 38, 127
1, 166679, Note_on_c, 9, 38, 0
1, 166680, Note_on_c, 9, 38, 127
1, 166800, Note_on_c, 9, 35, 127
1, 166800, Note_on_c, 9, 36, 127
1, 167039, Note_on_c, 9, 38, 0
1, 167039, Note_on_c, 9, 35, 0
1, 167039, Note_on_c, 9, 36, 0
1, 167040, Note_on_c, 9, 38, 127
1, 167159, Note_on_c, 9, 38, 0
1, 167160, Note_on_c, 9, 38, 127
1, 167280, Note_on_c, 9, 35, 127
1, 167280, Note_on_c, 9, 36, 127
1, 167519, Note_on_c, 9, 38, 0
1, 167519, Note_on_c, 9, 35, 0
1, 167519, Note_on_c, 9, 36, 0
1, 167520, Note_on_c, 9, 38, 127
1, 167520, Note_on_c, 9, 36, 127
1, 167999, Note_on_c, 9, 38, 0
1, 167999, Note_on_c, 9, 36, 0
1, 168000, Note_on_c, 9, 38, 127
1, 168000, Note_on_c, 9, 36, 127
1, 168479, Note_on_c, 9, 38, 0
1, 168479, Note_on_c, 9, 36, 0
1, 168480, Note_on_c, 9, 38, 127
1, 168599, Note_on_c, 9, 38, 0
1, 168600, Note_on_c, 9, 38, 127
1, 168720, Note_on_c, 9, 35, 127
1, 168720, Note_on_c, 9, 36, 127
1, 168959, Note_on_c, 9, 38, 0
1, 168959, Note_on_c, 9, 35, 0
1, 168959, Note_on_c, 9, 36, 0
1, 168960, Note_on_c, 9, 38, 127
1, 169079, Note_on_c, 9, 38, 0
1, 169080, Note_on_c, 9, 38, 127
1, 169200, Note_on_c, 9, 35, 127
1, 169200, Note_on_c, 9, 36, 127
1, 169439, Note_on_c, 9, 38, 0
1, 169439, Note_on_c, 9, 35, 0
1, 169439, Note_on_c, 9, 36, 0
1, 169440, Note_on_c, 9, 38, 127
1, 169440, Note_on_c, 9, 36, 127
1, 169919, Note_on_c, 9, 38, 0
1, 169919, Note_on_c, 9, 36, 0
1, 169920, Note_on_c, 9, 38, 127
1, 169920, Note_on_c, 9, 36, 127
1, 170399, Note_on_c, 9, 38, 0
1, 170399, Note_on_c, 9, 36, 0
1, 170400, Note_on_c, 9, 38, 127
1, 170519, Note_on_c, 9, 38, 0
1, 170520, Note_on_c, 9, 38, 127
1, 170640, Note_on_c, 9, 35, 127
1, 170640, Note_on_c, 9, 36, 127
1, 170879, Note_on_c, 9, 38, 0
1, 170879, Note_on_c, 9, 35, 0
1, 170879, Note_on_c, 9, 36, 0
1, 170880, Note_on_c, 9, 38, 127
1, 170999, Note_on_c, 9, 38, 0
1, 171000, Note_on_c, 9, 38, 127
1, 171120, Note_on_c, 9, 35, 127
1, 171120, Note_on_c, 9, 36, 127
1, 171359, Note_on_c, 9, 38, 0
1, 171359, Note_on_c, 9, 35, 0
1, 171359, Note_on_c, 9, 36, 0
1, 171360, Note_on_c, 9, 38, 127
1, 171360, Note_on_c, 9, 36, 127
1, 171839, Note_on_c, 9, 38, 0
1, 171839, Note_on_c, 9, 36, 0
1, 171840, Note_on_c, 9, 38, 127
1, 171840, Note_on_c, 9, 36, 127
1, 172319, Note_on_c, 9, 38, 0
1, 172319, Note_on_c, 9, 36, 0
1, 172320, Note_on_c, 9, 38, 127
1, 172439, Note_on_c, 9, 38, 0
1, 172440, Note_on_c, 9, 38, 127
1, 172560, Note_on_c, 9, 35, 127
1, 172560, Note_on_c, 9, 36, 127
1, 172799, Note_on_c, 9, 38, 0
1, 172799, Note_on_c, 9, 35, 0
1, 172799, Note_on_c, 9, 36, 0
1, 172800, Note_on_c, 9, 38, 127
1, 172919, Note_on_c, 9, 38, 0
1, 172920, Note_on_c, 9, 38, 127
1, 173040, Note_on_c, 9, 35, 127
1, 173040, Note_on_c, 9, 36, 127
1, 173279, Note_on_c, 9, 38, 0
1, 173279, Note_on_c, 9, 35, 0
1, 173279, Note_on_c, 9, 36, 0
1, 173280, Note_on_c, 9, 38, 127
1, 173280, Note_on_c, 9, 36, 127
1, 173759, Note_on_c, 9, 38, 0
1, 173759, Note_on_c, 9, 36, 0
1, 173760, Note_on_c, 9, 38, 127
1, 173760, Note_on_c, 9, 36, 127
1, 174239, Note_on_c, 9, 38, 0
1, 174239, Note_on_c, 9, 36, 0
1, 174240, Note_on_c, 9, 38, 127
1, 174359, Note_on_c, 9, 38, 0
1, 174360, Note_on_c, 9, 38, 127
1, 174480, Note_on_c, 9, 35, 127
1, 174480, Note_on_c, 9, 36, 127
1, 174719, Note_on_c, 9, 38, 0
1, 174719, Note_on_c, 9, 35, 0
1, 174719, Note_on_c, 9, 36, 0
1, 174720, Note_on_c, 9, 38, 127
1, 174839, Note_on_c, 9, 38, 0
1, 174840, Note_on_c, 9, 38, 127
1, 174960, Note_on_c, 9, 35, 127
1, 174960, Note_on_c, 9, 36, 127
1, 175199, Note_on_c, 9, 38, 0
1, 175199, Note_on_c, 9, 35, 0
1, 175199, Note_on_c, 9, 36, 0
1, 175200, Note_on_c, 9, 38, 127
1, 175200, Note_on_c, 9, 36, 127
1, 175679, Note_on_c, 9, 38, 0
1, 175679, Note_on_c, 9, 36, 0
1, 175680, Note_on_c, 9, 38, 127
1, 175680, Note_on_c, 9, 36, 127
1, 176159, Note_on_c, 9, 38, 0
1, 176159, Note_on_c, 9, 36, 0
1, 176160, Note_on_c, 9, 38, 127
1, 176279, Note_on_c, 9, 38, 0
1, 176280, Note_on_c, 9, 38, 127
1, 176399, Note_on_c, 9, 38, 0
1, 176400, Note_on_c, 9, 38, 127
1, 176400, Note_on_c, 9, 35, 127
1, 176400, Note_on_c, 9, 36, 127
1, 176519, Note_on_c, 9, 38, 0
1, 176520, Note_on_c, 9, 38, 127
1, 176639, Note_on_c, 9, 35, 0
1, 176639, Note_on_c, 9, 36, 0
1, 176639, Note_on_c, 9, 38, 0
1, 176640, Note_on_c, 9, 38, 127
1, 176759, Note_on_c, 9, 38, 0
1, 176760, Note_on_c, 9, 38, 127
1, 176879, Note_on_c, 9, 38, 0
1, 176880, Note_on_c, 9, 38, 127
1, 176880, Note_on_c, 9, 35, 127
1, 176880, Note_on_c, 9, 36, 127
1, 176999, Note_on_c, 9, 38, 0
1, 177000, Note_on_c, 9, 38, 127
1, 177119, Note_on_c, 9, 35, 0
1, 177119, Note_on_c, 9, 36, 0
1, 177119, Note_on_c, 9, 38, 0
1, 177120, Note_on_c, 9, 36, 127
1, 177359, Note_on_c, 9, 36, 0
1, 177360, Note_on_c, 9, 36, 127
1, 177599, Note_on_c, 9, 36, 0
1, 177600, Note_on_c, 9, 38, 127
1, 178079, Note_on_c, 9, 38, 0
1, 178080, Note_on_c, 9, 36, 127
1, 178319, Note_on_c, 9, 36, 0
1, 178320, Note_on_c, 9, 36, 127
1, 178559, Note_on_c, 9, 36, 0
1, 178560, Note_on_c, 9, 38, 127
1, 179039, Note_on_c, 9, 38, 0
1, 179040, Note_on_c, 9, 36, 127
1, 179279, Note_on_c, 9, 36, 0
1, 179280, Note_on_c, 9, 36, 127
1, 179519, Note_on_c, 9, 36, 0
1, 179520, Note_on_c, 9, 38, 127
1, 179999, Note_on_c, 9, 38, 0
1, 180000, Note_on_c, 9, 36, 127
1, 180239, Note_on_c, 9, 36, 0
1, 180240, Note_on_c, 9, 36, 127
1, 180479, Note_on_c, 9, 36, 0
1, 180480, Note_on_c, 9, 38, 127
1, 180959, Note_on_c, 9, 38, 0
1, 180960, Note_on_c, 9, 36, 127
1, 181199, Note_on_c, 9, 36, 0
1, 181200, Note_on_c, 9, 36, 127
1, 181439, Note_on_c, 9, 36, 0
1, 181440, Note_on_c, 9, 38, 127
1, 181919, Note_on_c, 9, 38, 0
1, 181920, Note_on_c, 9, 36, 127
1, 182159, Note_on_c, 9, 36, 0
1, 182160, Note_on_c, 9, 36, 127
1, 182399, Note_on_c, 9, 36, 0
1, 182400, Note_on_c, 9, 38, 127
1, 182879, Note_on_c, 9, 38, 0
1, 182880, Note_on_c, 9, 36, 127
1, 183119, Note_on_c, 9, 36, 0
1, 183120, Note_on_c, 9, 36, 127
1, 183359, Note_on_c, 9, 36, 0
1, 183360, Note_on_c, 9, 38, 127
1, 183839, Note_on_c, 9, 38, 0
1, 183840, Note_on_c, 9, 36, 127
1, 184079, Note_on_c, 9, 36, 0
1, 184080, Note_on_c, 9, 36, 127
1, 184319, Note_on_c, 9, 36, 0
1, 184320, Note_on_c, 9, 38, 127
1, 184799, Note_on_c, 9, 38, 0
1, 184800, Note_on_c, 9, 36, 127
1, 185039, Note_on_c, 9, 36, 0
1, 185040, Note_on_c, 9, 36, 127
1, 185279, Note_on_c, 9, 36, 0
1, 185280, Note_on_c, 9, 38, 127
1, 185759, Note_on_c, 9, 38, 0
1, 185760, Note_on_c, 9, 36, 127
1, 185999, Note_on_c, 9, 36, 0
1, 186000, Note_on_c, 9, 36, 127
1, 186239, Note_on_c, 9, 36, 0
1, 186240, Note_on_c, 9, 38, 127
1, 186719, Note_on_c, 9, 38, 0
1, 186720, Note_on_c, 9, 36, 127
1, 186959, Note_on_c, 9, 36, 0
1, 186960, Note_on_c, 9, 36, 127
1, 187199, Note_on_c, 9, 36, 0
1, 187200, Note_on_c, 9, 38, 127
1, 187679, Note_on_c, 9, 38, 0
1, 187680, Note_on_c, 9, 36, 127
1, 187919, Note_on_c, 9, 36, 0
1, 187920, Note_on_c, 9, 36, 127
1, 188159, Note_on_c, 9, 36, 0
1, 188160, Note_on_c, 9, 38, 127
1, 188639, Note_on_c, 9, 38, 0
1, 188640, Note_on_c, 9, 36, 127
1, 188879, Note_on_c, 9, 36, 0
1, 188880, Note_on_c, 9, 36, 127
1, 189119, Note_on_c, 9, 36, 0
1, 189120, Note_on_c, 9, 38, 127
1, 189599, Note_on_c, 9, 38, 0
1, 189600, Note_on_c, 9, 36, 127
1, 189839, Note_on_c, 9, 36, 0
1, 189840, Note_on_c, 9, 36, 127
1, 190079, Note_on_c, 9, 36, 0
1, 190080, Note_on_c, 9, 38, 127
1, 190559, Note_on_c, 9, 38, 0
1, 190560, Note_on_c, 9, 36, 127
1, 190799, Note_on_c, 9, 36, 0
1, 190800, Note_on_c, 9, 36, 127
1, 191039, Note_on_c, 9, 36, 0
1, 191040, Note_on_c, 9, 38, 127
1, 191519, Note_on_c, 9, 38, 0
1, 191520, Note_on_c, 9, 36, 127
1, 191759, Note_on_c, 9, 36, 0
1, 191760, Note_on_c, 9, 36, 127
1, 191999, Note_on_c, 9, 36, 0
1, 192000, Note_on_c, 9, 38, 127
1, 192479, Note_on_c, 9, 38, 0
1, 192480, Note_on_c, 9, 36, 127
1, 192719, Note_on_c, 9, 36, 0
1, 192720, Note_on_c, 9, 36, 127
1, 192959, Note_on_c, 9, 36, 0
1, 192960, Note_on_c, 9, 38, 127
1, 193439, Note_on_c, 9, 38, 0
1, 193440, Note_on_c, 9, 36, 127
1, 193679, Note_on_c, 9, 36, 0
1, 193680, Note_on_c, 9, 36, 127
1, 193919, Note_on_c, 9, 36, 0
1, 193920, Note_on_c, 9, 38, 127
1, 194399, Note_on_c, 9, 38, 0
1, 194400, Note_on_c, 9, 36, 127
1, 194639, Note_on_c, 9, 36, 0
1, 194640, Note_on_c, 9, 36, 127
1, 194879, Note_on_c, 9, 36, 0
1, 194880, Note_on_c, 9, 38, 127
1, 195359, Note_on_c, 9, 38, 0
1, 195360, Note_on_c, 9, 36, 127
1, 195599, Note_on_c, 9, 36, 0
1, 195600, Note_on_c, 9, 36, 127
1, 195839, Note_on_c, 9, 36, 0
1, 195840, Note_on_c, 9, 38, 127
1, 196319, Note_on_c, 9, 38, 0
1, 196320, Note_on_c, 9, 36, 127
1, 196559, Note_on_c, 9, 36, 0
1, 196560, Note_on_c, 9, 36, 127
1, 196799, Note_on_c, 9, 36, 0
1, 196800, Note_on_c, 9, 38, 127
1, 197279, Note_on_c, 9, 38, 0
1, 197280, Note_on_c, 9, 36, 127
1, 197519, Note_on_c, 9, 36, 0
1, 197520, Note_on_c, 9, 36, 127
1, 197759, Note_on_c, 9, 36, 0
1, 197760, Note_on_c, 9, 38, 127
1, 198239, Note_on_c, 9, 38, 0
1, 198240, Note_on_c, 9, 36, 127
1, 198479, Note_on_c, 9, 36, 0
1, 198480, Note_on_c, 9, 36, 127
1, 198719, Note_on_c, 9, 36, 0
1, 198720, Note_on_c, 9, 38, 127
1, 199199, Note_on_c, 9, 38, 0
1, 199200, Note_on_c, 9, 36, 127
1, 199439, Note_on_c, 9, 36, 0
1, 199440, Note_on_c, 9, 36, 127
1, 199679, Note_on_c, 9, 36, 0
1, 199680, Note_on_c, 9, 38, 127
1, 199919, Note_on_c, 9, 38, 0
1, 199920, Note_on_c, 9, 38, 127
1, 200159, Note_on_c, 9, 38, 0
1, 200160, Note_on_c, 9, 38, 102
1, 200160, Note_on_c, 9, 36, 102
1, 200279, Note_on_c, 9, 38, 0
1, 200279, Note_on_c, 9, 36, 0
1, 200280, Note_on_c, 9, 38, 127
1, 200280, Note_on_c, 9, 36, 127
1, 200399, Note_on_c, 9, 36, 0
1, 200400, Note_on_c, 9, 36, 127
1, 200639, Note_on_c, 9, 38, 0
1, 200639, Note_on_c, 9, 36, 0
1, 200640, Note_on_c, 9, 38, 102
1, 200640, Note_on_c, 9, 36, 102
1, 201119, Note_on_c, 9, 38, 0
1, 201119, Note_on_c, 9, 36, 0
1, 201120, Note_on_c, 9, 38, 102
1, 201120, Note_on_c, 9, 36, 127
1, 201239, Note_on_c, 9, 38, 0
1, 201239, Note_on_c, 9, 36, 0
1, 201240, Note_on_c, 9, 38, 127
1, 201240, Note_on_c, 9, 36, 127
1, 201359, Note_on_c, 9, 36, 0
1, 201360, Note_on_c, 9, 36, 127
1, 201599, Note_on_c, 9, 38, 0
1, 201599, Note_on_c, 9, 36, 0
1, 201600, Note_on_c, 9, 38, 102
1, 201600, Note_on_c, 9, 36, 127
1, 201839, Note_on_c, 9, 36, 0
1, 201840, Note_on_c, 9, 36, 127
1, 202079, Note_on_c, 9, 38, 0
1, 202079, Note_on_c, 9, 36, 0
1, 202080, Note_on_c, 9, 38, 102
1, 202080, Note_on_c, 9, 36, 102
1, 202199, Note_on_c, 9, 38, 0
1, 202199, Note_on_c, 9, 36, 0
1, 202200, Note_on_c, 9, 38, 127
1, 202200, Note_on_c, 9, 36, 127
1, 202319, Note_on_c, 9, 36, 0
1, 202320, Note_on_c, 9, 36, 127
1, 202559, Note_on_c, 9, 38, 0
1, 202559, Note_on_c, 9, 36, 0
1, 202560, Note_on_c, 9, 38, 102
1, 202560, Note_on_c, 9, 36, 102
1, 203039, Note_on_c, 9, 38, 0
1, 203039, Note_on_c, 9, 36, 0
1, 203040, Note_on_c, 9, 38, 102
1, 203040, Note_on_c, 9, 36, 127
1, 203159, Note_on_c, 9, 38, 0
1, 203159, Note_on_c, 9, 36, 0
1, 203160, Note_on_c, 9, 38, 127
1, 203160, Note_on_c, 9, 36, 127
1, 203279, Note_on_c, 9, 36, 0
1, 203280, Note_on_c, 9, 36, 127
1, 203519, Note_on_c, 9, 38, 0
1, 203519, Note_on_c, 9, 36, 0
1, 203520, Note_on_c, 9, 38, 102
1, 203520, Note_on_c, 9, 36, 127
1, 203759, Note_on_c, 9, 38, 0
1, 203759, Note_on_c, 9, 36, 0
1, 203760, Note_on_c, 9, 38, 127
1, 203760, Note_on_c, 9, 36, 127
1, 203999, Note_on_c, 9, 38, 0
1, 203999, Note_on_c, 9, 36, 0
1, 204000, Note_on_c, 9, 38, 102
1, 204000, Note_on_c, 9, 36, 102
1, 204119, Note_on_c, 9, 38, 0
1, 204119, Note_on_c, 9, 36, 0
1, 204120, Note_on_c, 9, 38, 127
1, 204120, Note_on_c, 9, 36, 127
1, 204239, Note_on_c, 9, 36, 0
1, 204240, Note_on_c, 9, 36, 127
1, 204479, Note_on_c, 9, 38, 0
1, 204479, Note_on_c, 9, 36, 0
1, 204480, Note_on_c, 9, 38, 102
1, 204480, Note_on_c, 9, 36, 102
1, 204959, Note_on_c, 9, 38, 0
1, 204959, Note_on_c, 9, 36, 0
1, 204960, Note_on_c, 9, 38, 102
1, 204960, Note_on_c, 9, 36, 127
1, 205079, Note_on_c, 9, 38, 0
1, 205079, Note_on_c, 9, 36, 0
1, 205080, Note_on_c, 9, 38, 127
1, 205080, Note_on_c, 9, 36, 127
1, 205199, Note_on_c, 9, 36, 0
1, 205200, Note_on_c, 9, 36, 127
1, 205439, Note_on_c, 9, 38, 0
1, 205439, Note_on_c, 9, 36, 0
1, 205440, Note_on_c, 9, 38, 102
1, 205440, Note_on_c, 9, 36, 127
1, 205679, Note_on_c, 9, 36, 0
1, 205680, Note_on_c, 9, 36, 127
1, 205919, Note_on_c, 9, 38, 0
1, 205919, Note_on_c, 9, 36, 0
1, 205920, Note_on_c, 9, 38, 102
1, 205920, Note_on_c, 9, 36, 102
1, 206039, Note_on_c, 9, 38, 0
1, 206039, Note_on_c, 9, 36, 0
1, 206040, Note_on_c, 9, 38, 127
1, 206040, Note_on_c, 9, 36, 127
1, 206159, Note_on_c, 9, 36, 0
1, 206160, Note_on_c, 9, 36, 127
1, 206399, Note_on_c, 9, 38, 0
1, 206399, Note_on_c, 9, 36, 0
1, 206400, Note_on_c, 9, 38, 102
1, 206400, Note_on_c, 9, 36, 102
1, 206879, Note_on_c, 9, 38, 0
1, 206879, Note_on_c, 9, 36, 0
1, 206880, Note_on_c, 9, 38, 102
1, 206880, Note_on_c, 9, 36, 127
1, 206999, Note_on_c, 9, 38, 0
1, 206999, Note_on_c, 9, 36, 0
1, 207000, Note_on_c, 9, 38, 127
1, 207000, Note_on_c, 9, 36, 127
1, 207119, Note_on_c, 9, 36, 0
1, 207120, Note_on_c, 9, 36, 127
1, 207359, Note_on_c, 9, 38, 0
1, 207359, Note_on_c, 9, 36, 0
1, 207360, Note_on_c, 9, 38, 102
1, 207360, Note_on_c, 9, 36, 127
1, 207599, Note_on_c, 9, 38, 0
1, 207599, Note_on_c, 9, 36, 0
1, 207600, Note_on_c, 9, 38, 127
1, 207600, Note_on_c, 9, 36, 127
1, 207839, Note_on_c, 9, 38, 0
1, 207839, Note_on_c, 9, 36, 0
1, 207840, Note_on_c, 9, 38, 102
1, 207840, Note_on_c, 9, 36, 102
1, 207959, Note_on_c, 9, 38, 0
1, 207959, Note_on_c, 9, 36, 0
1, 207960, Note_on_c, 9, 38, 127
1, 207960, Note_on_c, 9, 36, 127
1, 208079, Note_on_c, 9, 36, 0
1, 208080, Note_on_c, 9, 36, 127
1, 208319, Note_on_c, 9, 38, 0
1, 208319, Note_on_c, 9, 36, 0
1, 208320, Note_on_c, 9, 38, 102
1, 208320, Note_on_c, 9, 36, 102
1, 208799, Note_on_c, 9, 38, 0
1, 208799, Note_on_c, 9, 36, 0
1, 208800, Note_on_c, 9, 38, 102
1, 208800, Note_on_c, 9, 36, 127
1, 208919, Note_on_c, 9, 38, 0
1, 208919, Note_on_c, 9, 36, 0
1, 208920, Note_on_c, 9, 38, 127
1, 208920, Note_on_c, 9, 36, 127
1, 209039, Note_on_c, 9, 36, 0
1, 209040, Note_on_c, 9, 36, 127
1, 209279, Note_on_c, 9, 38, 0
1, 209279, Note_on_c, 9, 36, 0
1, 209280, Note_on_c, 9, 38, 102
1, 209280, Note_on_c, 9, 36, 127
1, 209519, Note_on_c, 9, 36, 0
1, 209520, Note_on_c, 9, 36, 127
1, 209759, Note_on_c, 9, 38, 0
1, 209759, Note_on_c, 9, 36, 0
1, 209760, Note_on_c, 9, 38, 102
1, 209760, Note_on_c, 9, 36, 102
1, 209879, Note_on_c, 9, 38, 0
1, 209879, Note_on_c, 9, 36, 0
1, 209880, Note_on_c, 9, 38, 127
1, 209880, Note_on_c, 9, 36, 127
1, 209999, Note_on_c, 9, 36, 0
1, 210000, Note_on_c, 9, 36, 127
1, 210239, Note_on_c, 9, 38, 0
1, 210239, Note_on_c, 9, 36, 0
1, 210240, Note_on_c, 9, 38, 102
1, 210240, Note_on_c, 9, 36, 102
1, 210719, Note_on_c, 9, 38, 0
1, 210719, Note_on_c, 9, 36, 0
1, 210720, Note_on_c, 9, 38, 102
1, 210720, Note_on_c, 9, 36, 127
1, 210839, Note_on_c, 9, 38, 0
1, 210839, Note_on_c, 9, 36, 0
1, 210840, Note_on_c, 9, 38, 127
1, 210840, Note_on_c, 9, 36, 127
1, 210959, Note_on_c, 9, 36, 0
1, 210960, Note_on_c, 9, 36, 127
1, 211199, Note_on_c, 9, 38, 0
1, 211199, Note_on_c, 9, 36, 0
1, 211200, Note_on_c, 9, 38, 102
1, 211200, Note_on_c, 9, 36, 127
1, 211439, Note_on_c, 9, 38, 0
1, 211439, Note_on_c, 9, 36, 0
1, 211440, Note_on_c, 9, 38, 127
1, 211440, Note_on_c, 9, 36, 127
1, 211679, Note_on_c, 9, 38, 0
1, 211679, Note_on_c, 9, 36, 0
1, 211680, Note_on_c, 9, 38, 102
1, 211680, Note_on_c, 9, 36, 102
1, 211799, Note_on_c, 9, 38, 0
1, 211799, Note_on_c, 9, 36, 0
1, 211800, Note_on_c, 9, 38, 127
1, 211800, Note_on_c, 9, 36, 127
1, 211919, Note_on_c, 9, 36, 0
1, 211920, Note_on_c, 9, 36, 127
1, 212159, Note_on_c, 9, 38, 0
1, 212159, Note_on_c, 9, 36, 0
1, 212160, Note_on_c, 9, 38, 102
1, 212160, Note_on_c, 9, 36, 102
1, 212639, Note_on_c, 9, 38, 0
1, 212639, Note_on_c, 9, 36, 0
1, 212640, Note_on_c, 9, 38, 102
1, 212640, Note_on_c, 9, 36, 127
1, 212759, Note_on_c, 9, 38, 0
1, 212759, Note_on_c, 9, 36, 0
1, 212760, Note_on_c, 9, 38, 127
1, 212760, Note_on_c, 9, 36, 127
1, 212879, Note_on_c, 9, 36, 0
1, 212880, Note_on_c, 9, 36, 127
1, 213119, Note_on_c, 9, 38, 0
1, 213119, Note_on_c, 9, 36, 0
1, 213120, Note_on_c, 9, 38, 102
1, 213120, Note_on_c, 9, 36, 127
1, 213359, Note_on_c, 9, 36, 0
1, 213360, Note_on_c, 9, 36, 127
1, 213599, Note_on_c, 9, 38, 0
1, 213599, Note_on_c, 9, 36, 0
1, 213600, Note_on_c, 9, 38, 127
1, 213600, Note_on_c, 9, 36, 127
1, 213719, Note_on_c, 9, 38, 0
1, 213720, Note_on_c, 9, 38, 127
1, 213839, Note_on_c, 9, 36, 0
1, 213839, Note_on_c, 9, 38, 0
1, 213840, Note_on_c, 9, 38, 127
1, 213840, Note_on_c, 9, 36, 127
1, 213959, Note_on_c, 9, 38, 0
1, 213960, Note_on_c, 9, 38, 127
1, 214079, Note_on_c, 9, 36, 0
1, 214079, Note_on_c, 9, 38, 0
1, 214080, Note_on_c, 9, 38, 127
1, 214080, Note_on_c, 9, 36, 127
1, 214199, Note_on_c, 9, 38, 0
1, 214200, Note_on_c, 9, 38, 127
1, 214319, Note_on_c, 9, 36, 0
1, 214319, Note_on_c, 9, 38, 0
1, 214320, Note_on_c, 9, 38, 127
1, 214320, Note_on_c, 9, 36, 127
1, 214439, Note_on_c, 9, 38, 0
1, 214440, Note_on_c, 9, 38, 127
1, 214559, Note_on_c, 9, 36, 0
1, 214559, Note_on_c, 9, 38, 0
1, 214560, Note_on_c, 9, 38, 127
1, 214560, Note_on_c, 9, 36, 127
1, 214679, Note_on_c, 9, 38, 0
1, 214680, Note_on_c, 9, 38, 127
1, 214799, Note_on_c, 9, 36, 0
1, 214799, Note_on_c, 9, 38, 0
1, 214800, Note_on_c, 9, 38, 127
1, 214800, Note_on_c, 9, 36, 127
1, 214919, Note_on_c, 9, 38, 0
1, 214920, Note_on_c, 9, 38, 127
1, 215039, Note_on_c, 9, 36, 0
1, 215039, Note_on_c, 9, 38, 0
1, 215040, Note_on_c, 9, 38, 127
1, 215040, Note_on_c, 9, 36, 127
1, 215279, Note_on_c, 9, 36, 0
1, 215280, Note_on_c, 9, 36, 127
1, 215519, Note_on_c, 9, 38, 0
1, 215519, Note_on_c, 9, 36, 0
1, 215520, Note_on_c, 9, 38, 127
1, 215520, Note_on_c, 9, 36, 127
1, 215999, Note_on_c, 9, 38, 0
1, 215999, Note_on_c, 9, 36, 0
1, 216000, Note_on_c, 9, 38, 127
1, 216000, Note_on_c, 9, 36, 127
1, 216479, Note_on_c, 9, 38, 0
1, 216479, Note_on_c, 9, 36, 0
1, 216480, Note_on_c, 9, 38, 127
1, 216599, Note_on_c, 9, 38, 0
1, 216600, Note_on_c, 9, 38, 127
1, 216720, Note_on_c, 9, 35, 127
1, 216720, Note_on_c, 9, 36, 127
1, 216959, Note_on_c, 9, 38, 0
1, 216959, Note_on_c, 9, 35, 0
1, 216959, Note_on_c, 9, 36, 0
1, 216960, Note_on_c, 9, 38, 127
1, 217079, Note_on_c, 9, 38, 0
1, 217080, Note_on_c, 9, 38, 127
1, 217200, Note_on_c, 9, 35, 127
1, 217200, Note_on_c, 9, 36, 127
1, 217439, Note_on_c, 9, 38, 0
1, 217439, Note_on_c, 9, 35, 0
1, 217439, Note_on_c, 9, 36, 0
1, 217440, Note_on_c, 9, 38, 127
1, 217440, Note_on_c, 9, 36, 127
1, 217919, Note_on_c, 9, 38, 0
1, 217919, Note_on_c, 9, 36, 0
1, 217920, Note_on_c, 9, 38, 127
1, 217920, Note_on_c, 9, 36, 127
1, 218399, Note_on_c, 9, 38, 0
1, 218399, Note_on_c, 9, 36, 0
1, 218400, Note_on_c, 9, 38, 127
1, 218519, Note_on_c, 9, 38, 0
1, 218520, Note_on_c, 9, 38, 127
1, 218640, Note_on_c, 9, 35, 127
1, 218640, Note_on_c, 9, 36, 127
1, 218879, Note_on_c, 9, 38, 0
1, 218879, Note_on_c, 9, 35, 0
1, 218879, Note_on_c, 9, 36, 0
1, 218880, Note_on_c, 9, 38, 127
1, 218999, Note_on_c, 9, 38, 0
1, 219000, Note_on_c, 9, 38, 127
1, 219120, Note_on_c, 9, 35, 127
1, 219120, Note_on_c, 9, 36, 127
1, 219359, Note_on_c, 9, 38, 0
1, 219359, Note_on_c, 9, 35, 0
1, 219359, Note_on_c, 9, 36, 0
1, 219360, Note_on_c, 9, 38, 127
1, 219360, Note_on_c, 9, 36, 127
1, 219839, Note_on_c, 9, 38, 0
1, 219839, Note_on_c, 9, 36, 0
1, 219840, Note_on_c, 9, 38, 127
1, 219840, Note_on_c, 9, 36, 127
1, 220319, Note_on_c, 9, 38, 0
1, 220319, Note_on_c, 9, 36, 0
1, 220320, Note_on_c, 9, 38, 127
1, 220439, Note_on_c, 9, 38, 0
1, 220440, Note_on_c, 9, 38, 127
1, 220560, Note_on_c, 9, 35, 127
1, 220560, Note_on_c, 9, 36, 127
1, 220799, Note_on_c, 9, 38, 0
1, 220799, Note_on_c, 9, 35, 0
1, 220799, Note_on_c, 9, 36, 0
1, 220800, Note_on_c, 9, 38, 127
1, 220919, Note_on_c, 9, 38, 0
1, 220920, Note_on_c, 9, 38, 127
1, 221040, Note_on_c, 9, 35, 127
1, 221040, Note_on_c, 9, 36, 127
1, 221279, Note_on_c, 9, 38, 0
1, 221279, Note_on_c, 9, 35, 0
1, 221279, Note_on_c, 9, 36, 0
1, 221280, Note_on_c, 9, 38, 127
1, 221280, Note_on_c, 9, 36, 127
1, 221759, Note_on_c, 9, 38, 0
1, 221759, Note_on_c, 9, 36, 0
1, 221760, Note_on_c, 9, 38, 127
1, 221760, Note_on_c, 9, 36, 127
1, 222239, Note_on_c, 9, 38, 0
1, 222239, Note_on_c, 9, 36, 0
1, 222240, Note_on_c, 9, 38, 127
1, 222359, Note_on_c, 9, 38, 0
1, 222360, Note_on_c, 9, 38, 127
1, 222480, Note_on_c, 9, 35, 127
1, 222480, Note_on_c, 9, 36, 127
1, 222719, Note_on_c, 9, 38, 0
1, 222719, Note_on_c, 9, 35, 0
1, 222719, Note_on_c, 9, 36, 0
1, 222720, Note_on_c, 9, 38, 127
1, 222839, Note_on_c, 9, 38, 0
1, 222840, Note_on_c, 9, 38, 127
1, 222960, Note_on_c, 9, 35, 127
1, 222960, Note_on_c, 9, 36, 127
1, 223199, Note_on_c, 9, 38, 0
1, 223199, Note_on_c, 9, 35, 0
1, 223199, Note_on_c, 9, 36, 0
1, 223200, Note_on_c, 9, 38, 127
1, 223200, Note_on_c, 9, 36, 127
1, 223679, Note_on_c, 9, 38, 0
1, 223679, Note_on_c, 9, 36, 0
1, 223680, Note_on_c, 9, 38, 127
1, 223680, Note_on_c, 9, 36, 127
1, 224159, Note_on_c, 9, 38, 0
1, 224159, Note_on_c, 9, 36, 0
1, 224160, Note_on_c, 9, 38, 127
1, 224279, Note_on_c, 9, 38, 0
1, 224280, Note_on_c, 9, 38, 127
1, 224400, Note_on_c, 9, 35, 127
1, 224400, Note_on_c, 9, 36, 127
1, 224639, Note_on_c, 9, 38, 0
1, 224639, Note_on_c, 9, 35, 0
1, 224639, Note_on_c, 9, 36, 0
1, 224640, Note_on_c, 9, 38, 127
1, 224759, Note_on_c, 9, 38, 0
1, 224760, Note_on_c, 9, 38, 127
1, 224880, Note_on_c, 9, 35, 127
1, 224880, Note_on_c, 9, 36, 127
1, 225119, Note_on_c, 9, 38, 0
1, 225119, Note_on_c, 9, 35, 0
1, 225119, Note_on_c, 9, 36, 0
1, 225120, Note_on_c, 9, 38, 127
1, 225120, Note_on_c, 9, 36, 127
1, 225599, Note_on_c, 9, 38, 0
1, 225599, Note_on_c, 9, 36, 0
1, 225600, Note_on_c, 9, 38, 127
1, 225600, Note_on_c, 9, 36, 127
1, 226079, Note_on_c, 9, 38, 0
1, 226079, Note_on_c, 9, 36, 0
1, 226080, Note_on_c, 9, 38, 127
1, 226199, Note_on_c, 9, 38, 0
1, 226200, Note_on_c, 9, 38, 127
1, 226320, Note_on_c, 9, 35, 127
1, 226320, Note_on_c, 9, 36, 127
1, 226559, Note_on_c, 9, 38, 0
1, 226559, Note_on_c, 9, 35, 0
1, 226559, Note_on_c, 9, 36, 0
1, 226560, Note_on_c, 9, 38, 127
1, 226679, Note_on_c, 9, 38, 0
1, 226680, Note_on_c, 9, 38, 127
1, 226800, Note_on_c, 9, 35, 127
1, 226800, Note_on_c, 9, 36, 127
1, 227039, Note_on_c, 9, 38, 0
1, 227039, Note_on_c, 9, 35, 0
1, 227039, Note_on_c, 9, 36, 0
1, 227040, Note_on_c, 9, 38, 127
1, 227040, Note_on_c, 9, 36, 127
1, 227519, Note_on_c, 9, 38, 0
1, 227519, Note_on_c, 9, 36, 0
1, 227520, Note_on_c, 9, 38, 127
1, 227520, Note_on_c, 9, 36, 127
1, 227999, Note_on_c, 9, 38, 0
1, 227999, Note_on_c, 9, 36, 0
1, 228000, Note_on_c, 9, 38, 127
1, 228119, Note_on_c, 9, 38, 0
1, 228120, Note_on_c, 9, 38, 127
1, 228240, Note_on_c, 9, 35, 127
1, 228240, Note_on_c, 9, 36, 127
1, 228479, Note_on_c, 9, 38, 0
1, 228479, Note_on_c, 9, 35, 0
1, 228479, Note_on_c, 9, 36, 0
1, 228480, Note_on_c, 9, 38, 127
1, 228599, Note_on_c, 9, 38, 0
1, 228600, Note_on_c, 9, 38, 127
1, 228720, Note_on_c, 9, 35, 127
1, 228720, Note_on_c, 9, 36, 127
1, 228959, Note_on_c, 9, 38, 0
1, 228959, Note_on_c, 9, 35, 0
1, 228959, Note_on_c, 9, 36, 0
1, 228960, Note_on_c, 9, 38, 127
1, 228960, Note_on_c, 9, 36, 127
1, 229439, Note_on_c, 9, 38, 0
1, 229439, Note_on_c, 9, 36, 0
1, 229440, Note_on_c, 9, 38, 127
1, 229440, Note_on_c, 9, 36, 127
1, 229919, Note_on_c, 9, 38, 0
1, 229919, Note_on_c, 9, 36, 0
1, 229920, Note_on_c, 9, 38, 127
1, 230039, Note_on_c, 9, 38, 0
1, 230040, Note_on_c, 9, 38, 127
1, 230160, Note_on_c, 9, 35, 127
1, 230160, Note_on_c, 9, 36, 127
1, 230399, Note_on_c, 9, 38, 0
1, 230399, Note_on_c, 9, 35, 0
1, 230399, Note_on_c, 9, 36, 0
1, 230400, Note_on_c, 9, 38, 127
1, 230519, Note_on_c, 9, 38, 0
1, 230520, Note_on_c, 9, 38, 127
1, 230640, Note_on_c, 9, 35, 127
1, 230640, Note_on_c, 9, 36, 127
1, 230879, Note_on_c, 9, 38, 0
1, 230879, Note_on_c, 9, 35, 0
1, 230879, Note_on_c, 9, 36, 0
1, 230880, Note_on_c, 9, 38, 127
1, 230880, Note_on_c, 9, 36, 127
1, 231359, Note_on_c, 9, 38, 0
1, 231359, Note_on_c, 9, 36, 0
1, 231360, Note_on_c, 9, 38, 127
1, 231360, Note_on_c, 9, 36, 127
1, 231839, Note_on_c, 9, 38, 0
1, 231839, Note_on_c, 9, 36, 0
1, 231840, Note_on_c, 9, 38, 127
1, 231959, Note_on_c, 9, 38, 0
1, 231960, Note_on_c, 9, 38, 127
1, 232080, Note_on_c, 9, 36, 127
1, 232319, Note_on_c, 9, 38, 0
1, 232319, Note_on_c, 9, 36, 0
1, 232320, Note_on_c, 9, 38, 127
1, 232439, Note_on_c, 9, 38, 0
1, 232440, Note_on_c, 9, 38, 127
1, 232560, Note_on_c, 9, 36, 127
1, 232799, Note_on_c, 9, 38, 0
1, 232799, Note_on_c, 9, 36, 0
1, 232800, Note_on_c, 9, 38, 127
1, 232800, Note_on_c, 9, 36, 127
1, 233279, Note_on_c, 9, 38, 0
1, 233279, Note_on_c, 9, 36, 0
1, 233280, Note_on_c, 9, 38, 127
1, 233280, Note_on_c, 9, 36, 127
1, 233759, Note_on_c, 9, 38, 0
1, 233759, Note_on_c, 9, 36, 0
1, 233760, Note_on_c, 9, 38, 127
1, 233879, Note_on_c, 9, 38, 0
1, 233880, Note_on_c, 9, 38, 127
1, 233950, Tempo, 495868
1, 234000, Note_on_c, 9, 36, 127
1, 234239, Note_on_c, 9, 38, 0
1, 234239, Note_on_c, 9, 36, 0
1, 234240, Note_on_c, 9, 38, 127
1, 234359, Note_on_c, 9, 38, 0
1, 234360, Note_on_c, 9, 38, 127
1, 234480, Note_on_c, 9, 36, 127
1, 234719, Note_on_c, 9, 38, 0
1, 234719, Note_on_c, 9, 36, 0
1, 234720, Note_on_c, 9, 38, 127
1, 234720, Note_on_c, 9, 35, 127
1, 234720, Note_on_c, 9, 36, 127
1, 235199, Note_on_c, 9, 38, 0
1, 235199, Note_on_c, 9, 35, 0
1, 235199, Note_on_c, 9, 36, 0
1, 235200, Note_on_c, 9, 38, 127
1, 235200, Note_on_c, 9, 35, 127
1, 235200, Note_on_c, 9, 36, 127
1, 235679, Note_on_c, 9, 38, 0
1, 235679, Note_on_c, 9, 35, 0
1, 235679, Note_on_c, 9, 36, 0
1, 235680, Note_on_c, 9, 38, 127
1, 235799, Note_on_c, 9, 38, 0
1, 235800, Note_on_c, 9, 38, 127
1, 235920, Note_on_c, 9, 35, 127
1, 235920, Note_on_c, 9, 36, 127
1, 236159, Note_on_c, 9, 38, 0
1, 236159, Note_on_c, 9, 35, 0
1, 236159, Note_on_c, 9, 36, 0
1, 236160, Note_on_c, 9, 38, 127
1, 236279, Note_on_c, 9, 38, 0
1, 236280, Note_on_c, 9, 38, 127
1, 236400, Note_on_c, 9, 35, 127
1, 236400, Note_on_c, 9, 36, 127
1, 236639, Note_on_c, 9, 38, 0
1, 236639, Note_on_c, 9, 35, 0
1, 236639, Note_on_c, 9, 36, 0
1, 236640, Note_on_c, 9, 38, 127
1, 236640, Note_on_c, 9, 36, 127
1, 237020, Tempo, 491803
1, 237119, Note_on_c, 9, 38, 0
1, 237119, Note_on_c, 9, 36, 0
1, 237120, Note_on_c, 9, 38, 127
1, 237120, Note_on_c, 9, 36, 127
1, 237599, Note_on_c, 9, 38, 0
1, 237599, Note_on_c, 9, 36, 0
1, 237600, Note_on_c, 9, 38, 127
1, 237719, Note_on_c, 9, 38, 0
1, 237720, Note_on_c, 9, 38, 127
1, 237840, Note_on_c, 9, 35, 127
1, 237840, Note_on_c, 9, 36, 127
1, 238079, Note_on_c, 9, 38, 0
1, 238079, Note_on_c, 9, 35, 0
1, 238079, Note_on_c, 9, 36, 0
1, 238080, Note_on_c, 9, 38, 127
1, 238199, Note_on_c, 9, 38, 0
1, 238200, Note_on_c, 9, 38, 127
1, 238320, Note_on_c, 9, 35, 127
1, 238320, Note_on_c, 9, 36, 127
1, 238559, Note_on_c, 9, 38, 0
1, 238559, Note_on_c, 9, 35, 0
1, 238559, Note_on_c, 9, 36, 0
1, 238560, Note_on_c, 9, 38, 127
1, 238560, Note_on_c, 9, 35, 127
1, 238560, Note_on_c, 9, 36, 127
1, 239039, Note_on_c, 9, 38, 0
1, 239039, Note_on_c, 9, 35, 0
1, 239039, Note_on_c, 9, 36, 0
1, 239040, Note_on_c, 9, 38, 127
1, 239040, Note_on_c, 9, 35, 127
1, 239040, Note_on_c, 9, 36, 127
1, 239519, Note_on_c, 9, 38, 0
1, 239519, Note_on_c, 9, 35, 0
1, 239519, Note_on_c, 9, 36, 0
1, 239520, Note_on_c, 9, 38, 127
1, 239520, Note_on_c, 9, 35, 127
1, 239520, Note_on_c, 9, 36, 127
1, 239999, Note_on_c, 9, 38, 0
1, 239999, Note_on_c, 9, 35, 0
1, 239999, Note_on_c, 9, 36, 0
1, 240000, Note_on_c, 9, 38, 127
1, 240000, Note_on_c, 9, 35, 127
1, 240000, Note_on_c, 9, 36, 127
1, 240090, Tempo, 487805
1, 240479, Note_on_c, 9, 38, 0
1, 240479, Note_on_c, 9, 35, 0
1, 240479, Note_on_c, 9, 36, 0
1, 240480, Note_on_c, 9, 38, 127
1, 240480, Note_on_c, 9, 35, 127
1, 240480, Note_on_c, 9, 36, 127
1, 240959, Note_on_c, 9, 38, 0
1, 240959, Note_on_c, 9, 35, 0
1, 240959, Note_on_c, 9, 36, 0
1, 240960, Note_on_c, 9, 38, 127
1, 240960, Note_on_c, 9, 35, 127
1, 240960, Note_on_c, 9, 36, 127
1, 241439, Note_on_c, 9, 38, 0
1, 241439, Note_on_c, 9, 35, 0
1, 241439, Note_on_c, 9, 36, 0
1, 241440, Note_on_c, 9, 38, 127
1, 241440, Note_on_c, 9, 35, 127
1, 241440, Note_on_c, 9, 36, 127
1, 241919, Note_on_c, 9, 38, 0
1, 241919, Note_on_c, 9, 35, 0
1, 241919, Note_on_c, 9, 36, 0
1, 241920, Note_on_c, 9, 38, 127
1, 241920, Note_on_c, 9, 35, 127
1, 241920, Note_on_c, 9, 36, 127
1, 242399, Note_on_c, 9, 38, 0
1, 242399, Note_on_c, 9, 35, 0
1, 242399, Note_on_c, 9, 36, 0
1, 242400, Note_on_c, 9, 38, 127
1, 242400, Note_on_c, 9, 35, 127
1, 242400, Note_on_c, 9, 36, 127
1, 242879, Note_on_c, 9, 38, 0
1, 242879, Note_on_c, 9, 35, 0
1, 242879, Note_on_c, 9, 36, 0
1, 242880, Note_on_c, 9, 38, 127
1, 242880, Note_on_c, 9, 35, 127
1, 242880, Note_on_c, 9, 36, 127
1, 243160, Tempo, 483871
1, 243359, Note_on_c, 9, 38, 0
1, 243359, Note_on_c, 9, 35, 0
1, 243359, Note_on_c, 9, 36, 0
1, 243360, Note_on_c, 9, 38, 127
1, 243360, Note_on_c, 9, 35, 127
1, 243360, Note_on_c, 9, 36, 127
1, 243839, Note_on_c, 9, 38, 0
1, 243839, Note_on_c, 9, 35, 0
1, 243839, Note_on_c, 9, 36, 0
1, 243840, Note_on_c, 9, 38, 127
1, 243840, Note_on_c, 9, 35, 127
1, 243840, Note_on_c, 9, 36, 127
1, 244319, Note_on_c, 9, 38, 0
1, 244319, Note_on_c, 9, 35, 0
1, 244319, Note_on_c, 9, 36, 0
1, 244320, Tempo, 480000
1, 244320, Note_on_c, 9, 38, 127
1, 244320, Note_on_c, 9, 35, 127
1, 244320, Note_on_c, 9, 36, 127
1, 244350, Tempo, 483871
1, 244380, Tempo, 487805
1, 244410, Tempo, 491803
1, 244440, Tempo, 495868
1, 244470, Tempo, 500000
1, 244500, Tempo, 504202
1, 244530, Tempo, 508475
1, 244560, Tempo, 512821
1, 244590, Tempo, 517241
1, 244620, Tempo, 521739
1, 244650, Tempo, 526316
1, 244680, Tempo, 530973
1, 244710, Tempo, 535714
1, 244740, Tempo, 540541
1, 244770, Tempo, 545455
1, 244799, Note_on_c, 9, 38, 0
1, 244799, Note_on_c, 9, 35, 0
1, 244799, Note_on_c, 9, 36, 0
1, 244800, Note_on_c, 9, 38, 127
1, 244800, Note_on_c, 9, 35, 127
1, 244800, Note_on_c, 9, 36, 127
1, 245279, Note_on_c, 9, 38, 0
1, 245279, Note_on_c, 9, 35, 0
1, 245279, Note_on_c, 9, 36, 0
1, 245280, Note_on_c, 9, 38, 127
1, 245280, Note_on_c, 9, 35, 127
1, 245280, Note_on_c, 9, 36, 127
1, 245759, Note_on_c, 9, 38, 0
1, 245759, Note_on_c, 9, 35, 0
1, 245759, Note_on_c, 9, 36, 0
1, 245760, Note_on_c, 9, 38, 127
1, 245760, Note_on_c, 9, 35, 127
1, 245760, Note_on_c, 9, 36, 127
1, 245879, Note_on_c, 9, 38, 0
1, 245879, Note_on_c, 9, 35, 0
1, 245879, Note_on_c, 9, 36, 0
1, 245880, Note_on_c, 9, 38, 127
1, 245880, Note_on_c, 9, 36, 127
1, 245999, Note_on_c, 9, 38, 0
1, 245999, Note_on_c, 9, 36, 0
1, 246000, Note_on_c, 9, 38, 127
1, 246000, Note_on_c, 9, 35, 127
1, 246000, Note_on_c, 9, 36, 127
1, 246119, Note_on_c, 9, 38, 0
1, 246119, Note_on_c, 9, 35, 0
1, 246119, Note_on_c, 9, 36, 0
1, 246120, Note_on_c, 9, 38, 127
1, 246120, Note_on_c, 9, 36, 127
1, 246239, Note_on_c, 9, 38, 0
1, 246239, Note_on_c, 9, 36, 0
1, 246240, Note_on_c, 9, 38, 127
1, 246240, Note_on_c, 9, 35, 127
1, 246240, Note_on_c, 9, 36, 127
1, 246719, Note_on_c, 9, 38, 0
1, 246719, Note_on_c, 9, 35, 0
1, 246719, Note_on_c, 9, 36, 0
1, 246720, End_track
0, 0, End_of_file
