0, 0, Header, 1, 1, 480
1, 0, Start_track
1, 0, Title_t, "Drumset"
1, 0, Time_signature, 4, 2, 24, 8
1, 0, Key_signature, 0, "major"
1, 0, Tempo, 517241
1, 0, Control_c, 9, 121, 0
1, 0, Program_c, 9, 0
1, 0, Control_c, 9, 7, 100
1, 0, Control_c, 9, 10, 64
1, 0, Control_c, 9, 91, 0
1, 0, Control_c, 9, 93, 0
1, 0, MIDI_port, 0
1, 1680, Note_on_c, 9, 38, 123
1, 1680, Note_on_c, 9, 49, 104
1, 1680, Note_on_c, 9, 35, 103
1, 1690, Note_on_c, 9, 49, 0
1, 1919, Note_on_c, 9, 38, 0
1, 1919, Note_on_c, 9, 35, 0
1, 2370, Note_on_c, 9, 38, 126
1, 2370, Note_on_c, 9, 40, 87
1, 2370, Note_on_c, 9, 42, 74
1, 2375, Note_on_c, 9, 42, 0
1, 2489, Note_on_c, 9, 38, 0
1, 2489, Note_on_c, 9, 40, 0
1, 2520, Note_on_c, 9, 42, 43
1, 2524, Note_on_c, 9, 42, 0
1, 2640, Note_on_c, 9, 42, 51
1, 2644, Note_on_c, 9, 42, 0
1, 2760, Note_on_c, 9, 42, 49
1, 2764, Note_on_c, 9, 42, 0
1, 2880, Note_on_c, 9, 42, 63
1, 2880, Note_on_c, 9, 35, 103
1, 2890, Note_on_c, 9, 42, 0
1, 3119, Note_on_c, 9, 35, 0
1, 3120, Note_on_c, 9, 42, 67
1, 3120, Note_on_c, 9, 35, 105
1, 3130, Note_on_c, 9, 42, 0
1, 3359, Note_on_c, 9, 35, 0
1, 3360, Note_on_c, 9, 38, 123
1, 3360, Note_on_c, 9, 40, 84
1, 3599, Note_on_c, 9, 38, 0
1, 3599, Note_on_c, 9, 40, 0
1, 3600, Note_on_c, 9, 42, 69
1, 3604, Note_on_c, 9, 42, 0
1, 3720, Note_on_c, 9, 42, 39
1, 3724, Note_on_c, 9, 42, 0
1, 3840, Note_on_c, 9, 42, 69
1, 3840, Note_on_c, 9, 35, 104
1, 3850, Note_on_c, 9, 42, 0
1, 4079, Note_on_c, 9, 35, 0
1, 4080, Note_on_c, 9, 42, 69
1, 4080, Note_on_c, 9, 35, 104
1, 4090, Note_on_c, 9, 42, 0
1, 4319, Note_on_c, 9, 35, 0
1, 4320, Note_on_c, 9, 38, 124
1, 4320, Note_on_c, 9, 40, 85
1, 4559, Note_on_c, 9, 38, 0
1, 4559, Note_on_c, 9, 40, 0
1, 4560, Note_on_c, 9, 42, 67
1, 4564, Note_on_c, 9, 42, 0
1, 4680, Note_on_c, 9, 42, 45
1, 4684, Note_on_c, 9, 42, 0
1, 4800, Note_on_c, 9, 42, 55
1, 4800, Note_on_c, 9, 35, 103
1, 4804, Note_on_c, 9, 42, 0
1, 4920, Note_on_c, 9, 42, 47
1, 4924, Note_on_c, 9, 42, 0
1, 5039, Note_on_c, 9, 35, 0
1, 5040, Note_on_c, 9, 42, 67
1, 5040, Note_on_c, 9, 35, 101
1, 5047, Note_on_c, 9, 42, 0
1, 5250, Note_on_c, 9, 38, 126
1, 5250, Note_on_c, 9, 40, 87
1, 5250, Note_on_c, 9, 42, 51
1, 5260, Note_on_c, 9, 42, 0
1, 5279, Note_on_c, 9, 35, 0
1, 5369, Note_on_c, 9, 38, 0
1, 5369, Note_on_c, 9, 40, 0
1, 5520, Note_on_c, 9, 46, 75
1, 5520, Note_on_c, 9, 35, 108
1, 5530, Note_on_c, 9, 46, 0
1, 5759, Note_on_c, 9, 35, 0
1, 5760, Note_on_c, 9, 42, 74
1, 5770, Note_on_c, 9, 42, 0
1, 6000, Note_on_c, 9, 42, 72
1, 6007, Note_on_c, 9, 42, 0
1, 6210, Note_on_c, 9, 38, 125
1, 6210, Note_on_c, 9, 40, 86
1, 6210, Note_on_c, 9, 42, 74
1, 6215, Note_on_c, 9, 42, 0
1, 6329, Note_on_c, 9, 38, 0
1, 6329, Note_on_c, 9, 40, 0
1, 6360, Note_on_c, 9, 42, 43
1, 6364, Note_on_c, 9, 42, 0
1, 6480, Note_on_c, 9, 42, 43
1, 6484, Note_on_c, 9, 42, 0
1, 6600, Note_on_c, 9, 42, 47
1, 6604, Note_on_c, 9, 42, 0
1, 6720, Note_on_c, 9, 42, 61
1, 6720, Note_on_c, 9, 35, 101
1, 6730, Note_on_c, 9, 42, 0
1, 6959, Note_on_c, 9, 35, 0
1, 6960, Note_on_c, 9, 42, 69
1, 6960, Note_on_c, 9, 35, 105
1, 6970, Note_on_c, 9, 42, 0
1, 7199, Note_on_c, 9, 35, 0
1, 7200, Note_on_c, 9, 38, 124
1, 7200, Note_on_c, 9, 40, 85
1, 7439, Note_on_c, 9, 38, 0
1, 7439, Note_on_c, 9, 40, 0
1, 7440, Note_on_c, 9, 42, 73
1, 7444, Note_on_c, 9, 42, 0
1, 7560, Note_on_c, 9, 42, 43
1, 7564, Note_on_c, 9, 42, 0
1, 7680, Note_on_c, 9, 42, 57
1, 7680, Note_on_c, 9, 35, 103
1, 7690, Note_on_c, 9, 42, 0
1, 7919, Note_on_c, 9, 35, 0
1, 7920, Note_on_c, 9, 42, 45
1, 7920, Note_on_c, 9, 35, 103
1, 7930, Note_on_c, 9, 42, 0
1, 8159, Note_on_c, 9, 35, 0
1, 8160, Note_on_c, 9, 38, 124
1, 8160, Note_on_c, 9, 40, 85
1, 8399, Note_on_c, 9, 38, 0
1, 8399, Note_on_c, 9, 40, 0
1, 8400, Note_on_c, 9, 42, 63
1, 8404, Note_on_c, 9, 42, 0
1, 8520, Note_on_c, 9, 42, 35
1, 8524, Note_on_c, 9, 42, 0
1, 8640, Note_on_c, 9, 42, 65
1, 8640, Note_on_c, 9, 35, 103
1, 8650, Note_on_c, 9, 42, 0
1, 8879, Note_on_c, 9, 35, 0
1, 8880, Note_on_c, 9, 42, 47
1, 8880, Note_on_c, 9, 35, 104
1, 8889, Note_on_c, 9, 42, 0
1, 9105, Note_on_c, 9, 42, 61
1, 9105, Note_on_c, 9, 42, 0
1, 9119, Note_on_c, 9, 35, 0
1, 9120, Note_on_c, 9, 38, 125
1, 9120, Note_on_c, 9, 40, 86
1, 9299, Note_on_c, 9, 38, 0
1, 9299, Note_on_c, 9, 40, 0
1, 9345, Note_on_c, 9, 46, 71
1, 9354, Note_on_c, 9, 46, 0
1, 9360, Note_on_c, 9, 35, 106
1, 9585, Note_on_c, 9, 42, 57
1, 9585, Note_on_c, 9, 42, 0
1, 9599, Note_on_c, 9, 35, 0
1, 9840, Note_on_c, 9, 42, 71
1, 9847, Note_on_c, 9, 42, 0
1, 10050, Note_on_c, 9, 38, 124
1, 10050, Note_on_c, 9, 40, 85
1, 10050, Note_on_c, 9, 42, 72
1, 10055, Note_on_c, 9, 42, 0
1, 10169, Note_on_c, 9, 38, 0
1, 10169, Note_on_c, 9, 40, 0
1, 10200, Note_on_c, 9, 42, 43
1, 10204, Note_on_c, 9, 42, 0
1, 10320, Note_on_c, 9, 42, 45
1, 10324, Note_on_c, 9, 42, 0
1, 10440, Note_on_c, 9, 42, 49
1, 10444, Note_on_c, 9, 42, 0
1, 10560, Note_on_c, 9, 42, 69
1, 10560, Note_on_c, 9, 35, 103
1, 10570, Note_on_c, 9, 42, 0
1, 10799, Note_on_c, 9, 35, 0
1, 10800, Note_on_c, 9, 42, 63
1, 10800, Note_on_c, 9, 35, 104
1, 10810, Note_on_c, 9, 42, 0
1, 11039, Note_on_c, 9, 35, 0
1, 11040, Note_on_c, 9, 38, 125
1, 11040, Note_on_c, 9, 40, 86
1, 11279, Note_on_c, 9, 38, 0
1, 11279, Note_on_c, 9, 40, 0
1, 11280, Note_on_c, 9, 42, 69
1, 11284, Note_on_c, 9, 42, 0
1, 11400, Note_on_c, 9, 42, 49
1, 11404, Note_on_c, 9, 42, 0
1, 11520, Note_on_c, 9, 42, 49
1, 11520, Note_on_c, 9, 35, 102
1, 11530, Note_on_c, 9, 42, 0
1, 11759, Note_on_c, 9, 35, 0
1, 11760, Note_on_c, 9, 42, 65
1, 11760, Note_on_c, 9, 35, 102
1, 11770, Note_on_c, 9, 42, 0
1, 11999, Note_on_c, 9, 35, 0
1, 12000, Note_on_c, 9, 38, 125
1, 12000, Note_on_c, 9, 40, 86
1, 12239, Note_on_c, 9, 38, 0
1, 12239, Note_on_c, 9, 40, 0
1, 12240, Note_on_c, 9, 42, 69
1, 12244, Note_on_c, 9, 42, 0
1, 12360, Note_on_c, 9, 42, 47
1, 12364, Note_on_c, 9, 42, 0
1, 12480, Note_on_c, 9, 42, 53
1, 12480, Note_on_c, 9, 35, 103
1, 12484, Note_on_c, 9, 42, 0
1, 12600, Note_on_c, 9, 42, 49
1, 12604, Note_on_c, 9, 42, 0
1, 12719, Note_on_c, 9, 35, 0
1, 12720, Note_on_c, 9, 42, 69
1, 12720, Note_on_c, 9, 35, 99
1, 12730, Note_on_c, 9, 42, 0
1, 12959, Note_on_c, 9, 35, 0
1, 12960, Note_on_c, 9, 38, 127
1, 12960, Note_on_c, 9, 40, 88
1, 12960, Note_on_c, 9, 42, 59
1, 12970, Note_on_c, 9, 42, 0
1, 13199, Note_on_c, 9, 38, 0
1, 13199, Note_on_c, 9, 40, 0
1, 13200, Note_on_c, 9, 46, 67
1, 13200, Note_on_c, 9, 35, 102
1, 13210, Note_on_c, 9, 46, 0
1, 13439, Note_on_c, 9, 35, 0
1, 13455, Note_on_c, 9, 42, 52
1, 13464, Note_on_c, 9, 42, 0
1, 13680, Note_on_c, 9, 42, 69
1, 13690, Note_on_c, 9, 42, 0
1, 13920, Note_on_c, 9, 38, 126
1, 13920, Note_on_c, 9, 40, 87
1, 13920, Note_on_c, 9, 42, 74
1, 13924, Note_on_c, 9, 42, 0
1, 14039, Note_on_c, 9, 38, 0
1, 14039, Note_on_c, 9, 40, 0
1, 14040, Note_on_c, 9, 42, 43
1, 14044, Note_on_c, 9, 42, 0
1, 14160, Note_on_c, 9, 42, 53
1, 14164, Note_on_c, 9, 42, 0
1, 14280, Note_on_c, 9, 42, 43
1, 14284, Note_on_c, 9, 42, 0
1, 14400, Note_on_c, 9, 42, 71
1, 14400, Note_on_c, 9, 35, 103
1, 14410, Note_on_c, 9, 42, 0
1, 14639, Note_on_c, 9, 35, 0
1, 14640, Note_on_c, 9, 42, 71
1, 14640, Note_on_c, 9, 35, 103
1, 14650, Note_on_c, 9, 42, 0
1, 14879, Note_on_c, 9, 35, 0
1, 14880, Note_on_c, 9, 38, 125
1, 14880, Note_on_c, 9, 40, 86
1, 15119, Note_on_c, 9, 38, 0
1, 15119, Note_on_c, 9, 40, 0
1, 15120, Note_on_c, 9, 42, 74
1, 15124, Note_on_c, 9, 42, 0
1, 15240, Note_on_c, 9, 42, 39
1, 15244, Note_on_c, 9, 42, 0
1, 15360, Note_on_c, 9, 42, 41
1, 15360, Note_on_c, 9, 35, 100
1, 15370, Note_on_c, 9, 42, 0
1, 15599, Note_on_c, 9, 35, 0
1, 15600, Note_on_c, 9, 42, 69
1, 15600, Note_on_c, 9, 35, 100
1, 15610, Note_on_c, 9, 42, 0
1, 15839, Note_on_c, 9, 35, 0
1, 15840, Note_on_c, 9, 38, 124
1, 15840, Note_on_c, 9, 40, 85
1, 16079, Note_on_c, 9, 38, 0
1, 16079, Note_on_c, 9, 40, 0
1, 16080, Note_on_c, 9, 42, 75
1, 16084, Note_on_c, 9, 42, 0
1, 16200, Note_on_c, 9, 42, 59
1, 16204, Note_on_c, 9, 42, 0
1, 16320, Note_on_c, 9, 42, 75
1, 16320, Note_on_c, 9, 35, 100
1, 16330, Note_on_c, 9, 42, 0
1, 16559, Note_on_c, 9, 35, 0
1, 16560, Note_on_c, 9, 42, 57
1, 16560, Note_on_c, 9, 35, 104
1, 16567, Note_on_c, 9, 42, 0
1, 16770, Note_on_c, 9, 38, 126
1, 16770, Note_on_c, 9, 40, 87
1, 16770, Note_on_c, 9, 42, 20
1, 16779, Note_on_c, 9, 42, 0
1, 16799, Note_on_c, 9, 35, 0
1, 17009, Note_on_c, 9, 38, 0
1, 17009, Note_on_c, 9, 40, 0
1, 17025, Note_on_c, 9, 46, 73
1, 17025, Note_on_c, 9, 46, 0
1, 17040, Note_on_c, 9, 49, 80
1, 17040, Note_on_c, 9, 52, 77
1, 17040, Note_on_c, 9, 35, 103
1, 17050, Note_on_c, 9, 49, 0
1, 17050, Note_on_c, 9, 52, 0
1, 17279, Note_on_c, 9, 35, 0
1, 17280, Note_on_c, 9, 42, 51
1, 17290, Note_on_c, 9, 42, 0
1, 17520, Note_on_c, 9, 42, 74
1, 17530, Note_on_c, 9, 42, 0
1, 17760, Note_on_c, 9, 38, 126
1, 17760, Note_on_c, 9, 40, 87
1, 17760, Note_on_c, 9, 42, 73
1, 17764, Note_on_c, 9, 42, 0
1, 17879, Note_on_c, 9, 38, 0
1, 17879, Note_on_c, 9, 40, 0
1, 17880, Note_on_c, 9, 42, 43
1, 17884, Note_on_c, 9, 42, 0
1, 18000, Note_on_c, 9, 42, 61
1, 18004, Note_on_c, 9, 42, 0
1, 18120, Note_on_c, 9, 42, 49
1, 18124, Note_on_c, 9, 42, 0
1, 18240, Note_on_c, 9, 42, 72
1, 18240, Note_on_c, 9, 35, 98
1, 18250, Note_on_c, 9, 42, 0
1, 18479, Note_on_c, 9, 35, 0
1, 18480, Note_on_c, 9, 42, 67
1, 18480, Note_on_c, 9, 35, 102
1, 18490, Note_on_c, 9, 42, 0
1, 18719, Note_on_c, 9, 35, 0
1, 18720, Note_on_c, 9, 38, 125
1, 18720, Note_on_c, 9, 40, 86
1, 18959, Note_on_c, 9, 38, 0
1, 18959, Note_on_c, 9, 40, 0
1, 18960, Note_on_c, 9, 42, 72
1, 18964, Note_on_c, 9, 42, 0
1, 19080, Note_on_c, 9, 42, 39
1, 19084, Note_on_c, 9, 42, 0
1, 19200, Note_on_c, 9, 42, 63
1, 19200, Note_on_c, 9, 35, 104
1, 19210, Note_on_c, 9, 42, 0
1, 19439, Note_on_c, 9, 35, 0
1, 19440, Note_on_c, 9, 42, 67
1, 19440, Note_on_c, 9, 35, 103
1, 19450, Note_on_c, 9, 42, 0
1, 19679, Note_on_c, 9, 35, 0
1, 19680, Note_on_c, 9, 38, 124
1, 19680, Note_on_c, 9, 40, 85
1, 19919, Note_on_c, 9, 38, 0
1, 19919, Note_on_c, 9, 40, 0
1, 19920, Note_on_c, 9, 42, 73
1, 19924, Note_on_c, 9, 42, 0
1, 20040, Note_on_c, 9, 42, 37
1, 20044, Note_on_c, 9, 42, 0
1, 20160, Note_on_c, 9, 42, 63
1, 20160, Note_on_c, 9, 35, 104
1, 20170, Note_on_c, 9, 42, 0
1, 20399, Note_on_c, 9, 35, 0
1, 20400, Note_on_c, 9, 42, 51
1, 20400, Note_on_c, 9, 35, 104
1, 20410, Note_on_c, 9, 42, 0
1, 20639, Note_on_c, 9, 35, 0
1, 20640, Note_on_c, 9, 38, 125
1, 20640, Note_on_c, 9, 40, 86
1, 20640, Note_on_c, 9, 42, 60
1, 20649, Note_on_c, 9, 42, 0
1, 20819, Note_on_c, 9, 38, 0
1, 20819, Note_on_c, 9, 40, 0
1, 20865, Note_on_c, 9, 46, 87
1, 20865, Note_on_c, 9, 46, 0
1, 20880, Note_on_c, 9, 35, 105
1, 21119, Note_on_c, 9, 35, 0
1, 21120, Note_on_c, 9, 42, 63
1, 21130, Note_on_c, 9, 42, 0
1, 21360, Note_on_c, 9, 42, 73
1, 21370, Note_on_c, 9, 42, 0
1, 21600, Note_on_c, 9, 38, 127
1, 21600, Note_on_c, 9, 40, 88
1, 21600, Note_on_c, 9, 42, 73
1, 21604, Note_on_c, 9, 42, 0
1, 21719, Note_on_c, 9, 38, 0
1, 21719, Note_on_c, 9, 40, 0
1, 21720, Note_on_c, 9, 42, 45
1, 21724, Note_on_c, 9, 42, 0
1, 21840, Note_on_c, 9, 42, 67
1, 21844, Note_on_c, 9, 42, 0
1, 21960, Note_on_c, 9, 42, 45
1, 21964, Note_on_c, 9, 42, 0
1, 22080, Note_on_c, 9, 42, 74
1, 22080, Note_on_c, 9, 35, 104
1, 22090, Note_on_c, 9, 42, 0
1, 22319, Note_on_c, 9, 35, 0
1, 22320, Note_on_c, 9, 42, 65
1, 22320, Note_on_c, 9, 35, 104
1, 22330, Note_on_c, 9, 42, 0
1, 22559, Note_on_c, 9, 35, 0
1, 22560, Note_on_c, 9, 38, 126
1, 22560, Note_on_c, 9, 40, 87
1, 22799, Note_on_c, 9, 38, 0
1, 22799, Note_on_c, 9, 40, 0
1, 22800, Note_on_c, 9, 42, 72
1, 22804, Note_on_c, 9, 42, 0
1, 22920, Note_on_c, 9, 42, 43
1, 22924, Note_on_c, 9, 42, 0
1, 23040, Note_on_c, 9, 42, 73
1, 23040, Note_on_c, 9, 35, 102
1, 23050, Note_on_c, 9, 42, 0
1, 23279, Note_on_c, 9, 35, 0
1, 23280, Note_on_c, 9, 42, 74
1, 23280, Note_on_c, 9, 35, 104
1, 23290, Note_on_c, 9, 42, 0
1, 23519, Note_on_c, 9, 35, 0
1, 23520, Note_on_c, 9, 38, 125
1, 23520, Note_on_c, 9, 40, 86
1, 23759, Note_on_c, 9, 38, 0
1, 23759, Note_on_c, 9, 40, 0
1, 23760, Note_on_c, 9, 42, 76
1, 23764, Note_on_c, 9, 42, 0
1, 23880, Note_on_c, 9, 42, 55
1, 23884, Note_on_c, 9, 42, 0
1, 24000, Note_on_c, 9, 42, 72
1, 24000, Note_on_c, 9, 35, 106
1, 24010, Note_on_c, 9, 42, 0
1, 24239, Note_on_c, 9, 35, 0
1, 24240, Note_on_c, 9, 42, 51
1, 24240, Note_on_c, 9, 35, 108
1, 24249, Note_on_c, 9, 42, 0
1, 24465, Note_on_c, 9, 42, 65
1, 24465, Note_on_c, 9, 42, 0
1, 24479, Note_on_c, 9, 35, 0
1, 24480, Note_on_c, 9, 38, 125
1, 24480, Note_on_c, 9, 40, 86
1, 24659, Note_on_c, 9, 38, 0
1, 24659, Note_on_c, 9, 40, 0
1, 24700, Note_on_c, 9, 46, 89
1, 24700, Note_on_c, 9, 46, 0
1, 24720, Note_on_c, 9, 35, 108
1, 24945, Note_on_c, 9, 42, 57
1, 24945, Note_on_c, 9, 42, 0
1, 24959, Note_on_c, 9, 35, 0
1, 25200, Note_on_c, 9, 42, 75
1, 25210, Note_on_c, 9, 42, 0
1, 25440, Note_on_c, 9, 38, 127
1, 25440, Note_on_c, 9, 40, 88
1, 25440, Note_on_c, 9, 42, 73
1, 25444, Note_on_c, 9, 42, 0
1, 25559, Note_on_c, 9, 38, 0
1, 25559, Note_on_c, 9, 40, 0
1, 25560, Note_on_c, 9, 42, 47
1, 25564, Note_on_c, 9, 42, 0
1, 25680, Note_on_c, 9, 42, 67
1, 25684, Note_on_c, 9, 42, 0
1, 25800, Note_on_c, 9, 42, 43
1, 25804, Note_on_c, 9, 42, 0
1, 25920, Note_on_c, 9, 42, 73
1, 25920, Note_on_c, 9, 35, 108
1, 25930, Note_on_c, 9, 42, 0
1, 26159, Note_on_c, 9, 35, 0
1, 26160, Note_on_c, 9, 42, 65
1, 26160, Note_on_c, 9, 35, 104
1, 26170, Note_on_c, 9, 42, 0
1, 26399, Note_on_c, 9, 35, 0
1, 26400, Note_on_c, 9, 38, 127
1, 26400, Note_on_c, 9, 40, 88
1, 26639, Note_on_c, 9, 38, 0
1, 26639, Note_on_c, 9, 40, 0
1, 26640, Note_on_c, 9, 42, 74
1, 26644, Note_on_c, 9, 42, 0
1, 26760, Note_on_c, 9, 42, 43
1, 26764, Note_on_c, 9, 42, 0
1, 26880, Note_on_c, 9, 42, 72
1, 26880, Note_on_c, 9, 35, 104
1, 26890, Note_on_c, 9, 42, 0
1, 27119, Note_on_c, 9, 35, 0
1, 27120, Note_on_c, 9, 42, 71
1, 27120, Note_on_c, 9, 35, 108
1, 27130, Note_on_c, 9, 42, 0
1, 27359, Note_on_c, 9, 35, 0
1, 27360, Note_on_c, 9, 38, 125
1, 27360, Note_on_c, 9, 40, 86
1, 27599, Note_on_c, 9, 38, 0
1, 27599, Note_on_c, 9, 40, 0
1, 27600, Note_on_c, 9, 42, 74
1, 27604, Note_on_c, 9, 42, 0
1, 27720, Note_on_c, 9, 42, 45
1, 27724, Note_on_c, 9, 42, 0
1, 27840, Note_on_c, 9, 42, 67
1, 27840, Note_on_c, 9, 35, 106
1, 27844, Note_on_c, 9, 42, 0
1, 27960, Note_on_c, 9, 42, 43
1, 27964, Note_on_c, 9, 42, 0
1, 28079, Note_on_c, 9, 35, 0
1, 28080, Note_on_c, 9, 42, 72
1, 28080, Note_on_c, 9, 35, 106
1, 28089, Note_on_c, 9, 42, 0
1, 28305, Note_on_c, 9, 42, 59
1, 28305, Note_on_c, 9, 42, 0
1, 28319, Note_on_c, 9, 35, 0
1, 28320, Note_on_c, 9, 38, 126
1, 28320, Note_on_c, 9, 40, 87
1, 28559, Note_on_c, 9, 38, 0
1, 28559, Note_on_c, 9, 40, 0
1, 28560, Note_on_c, 9, 46, 65
1, 28560, Note_on_c, 9, 35, 108
1, 28570, Note_on_c, 9, 46, 0
1, 28799, Note_on_c, 9, 35, 0
1, 28815, Note_on_c, 9, 42, 64
1, 28824, Note_on_c, 9, 42, 0
1, 29040, Note_on_c, 9, 42, 72
1, 29047, Note_on_c, 9, 42, 0
1, 29250, Note_on_c, 9, 38, 126
1, 29250, Note_on_c, 9, 40, 87
1, 29250, Note_on_c, 9, 42, 74
1, 29255, Note_on_c, 9, 42, 0
1, 29369, Note_on_c, 9, 38, 0
1, 29369, Note_on_c, 9, 40, 0
1, 29400, Note_on_c, 9, 42, 33
1, 29404, Note_on_c, 9, 42, 0
1, 29520, Note_on_c, 9, 42, 69
1, 29524, Note_on_c, 9, 42, 0
1, 29640, Note_on_c, 9, 42, 43
1, 29644, Note_on_c, 9, 42, 0
1, 29760, Note_on_c, 9, 42, 72
1, 29760, Note_on_c, 9, 35, 106
1, 29764, Note_on_c, 9, 42, 0
1, 29880, Note_on_c, 9, 42, 47
1, 29884, Note_on_c, 9, 42, 0
1, 29999, Note_on_c, 9, 35, 0
1, 30000, Note_on_c, 9, 42, 76
1, 30000, Note_on_c, 9, 35, 106
1, 30010, Note_on_c, 9, 42, 0
1, 30239, Note_on_c, 9, 35, 0
1, 30240, Note_on_c, 9, 38, 125
1, 30240, Note_on_c, 9, 40, 86
1, 30479, Note_on_c, 9, 38, 0
1, 30479, Note_on_c, 9, 40, 0
1, 30480, Note_on_c, 9, 42, 74
1, 30484, Note_on_c, 9, 42, 0
1, 30600, Note_on_c, 9, 42, 35
1, 30604, Note_on_c, 9, 42, 0
1, 30720, Note_on_c, 9, 42, 65
1, 30720, Note_on_c, 9, 35, 107
1, 30724, Note_on_c, 9, 42, 0
1, 30840, Note_on_c, 9, 42, 31
1, 30844, Note_on_c, 9, 42, 0
1, 30959, Note_on_c, 9, 35, 0
1, 30960, Note_on_c, 9, 42, 74
1, 30960, Note_on_c, 9, 35, 108
1, 30970, Note_on_c, 9, 42, 0
1, 31199, Note_on_c, 9, 35, 0
1, 31200, Note_on_c, 9, 38, 126
1, 31200, Note_on_c, 9, 40, 87
1, 31439, Note_on_c, 9, 38, 0
1, 31439, Note_on_c, 9, 40, 0
1, 31440, Note_on_c, 9, 42, 75
1, 31444, Note_on_c, 9, 42, 0
1, 31560, Note_on_c, 9, 42, 41
1, 31564, Note_on_c, 9, 42, 0
1, 31680, Note_on_c, 9, 42, 63
1, 31680, Note_on_c, 9, 35, 108
1, 31684, Note_on_c, 9, 42, 0
1, 31800, Note_on_c, 9, 42, 45
1, 31804, Note_on_c, 9, 42, 0
1, 31919, Note_on_c, 9, 35, 0
1, 31920, Note_on_c, 9, 42, 65
1, 31920, Note_on_c, 9, 35, 106
1, 31930, Note_on_c, 9, 42, 0
1, 32159, Note_on_c, 9, 35, 0
1, 32160, Note_on_c, 9, 38, 126
1, 32160, Note_on_c, 9, 40, 87
1, 32160, Note_on_c, 9, 42, 47
1, 32169, Note_on_c, 9, 42, 0
1, 32339, Note_on_c, 9, 38, 0
1, 32339, Note_on_c, 9, 40, 0
1, 32385, Note_on_c, 9, 42, 79
1, 32385, Note_on_c, 9, 42, 0
1, 32400, Note_on_c, 9, 49, 76
1, 32400, Note_on_c, 9, 49, 0
1, 32400, Note_on_c, 9, 52, 73
1, 32400, Note_on_c, 9, 52, 0
1, 32400, Note_on_c, 9, 35, 108
1, 32415, Note_on_c, 9, 46, 65
1, 32424, Note_on_c, 9, 46, 0
1, 32639, Note_on_c, 9, 35, 0
1, 32655, Note_on_c, 9, 42, 55
1, 32664, Note_on_c, 9, 42, 0
1, 32880, Note_on_c, 9, 42, 74
1, 32884, Note_on_c, 9, 42, 0
1, 33000, Note_on_c, 9, 42, 63
1, 33004, Note_on_c, 9, 42, 0
1, 33120, Note_on_c, 9, 38, 125
1, 33120, Note_on_c, 9, 40, 86
1, 33359, Note_on_c, 9, 38, 0
1, 33359, Note_on_c, 9, 40, 0
1, 33360, Note_on_c, 9, 42, 76
1, 33364, Note_on_c, 9, 42, 0
1, 33480, Note_on_c, 9, 42, 47
1, 33484, Note_on_c, 9, 42, 0
1, 33600, Note_on_c, 9, 42, 16
1, 33600, Note_on_c, 9, 35, 98
1, 33610, Note_on_c, 9, 42, 0
1, 33839, Note_on_c, 9, 35, 0
1, 33840, Note_on_c, 9, 42, 83
1, 33840, Note_on_c, 9, 35, 106
1, 33844, Note_on_c, 9, 42, 0
1, 33960, Note_on_c, 9, 42, 49
1, 33964, Note_on_c, 9, 42, 0
1, 34079, Note_on_c, 9, 35, 0
1, 34080, Note_on_c, 9, 38, 124
1, 34080, Note_on_c, 9, 40, 85
1, 34319, Note_on_c, 9, 38, 0
1, 34319, Note_on_c, 9, 40, 0
1, 34320, Note_on_c, 9, 42, 67
1, 34324, Note_on_c, 9, 42, 0
1, 34440, Note_on_c, 9, 42, 67
1, 34444, Note_on_c, 9, 42, 0
1, 34560, Note_on_c, 9, 42, 39
1, 34560, Note_on_c, 9, 35, 104
1, 34570, Note_on_c, 9, 42, 0
1, 34799, Note_on_c, 9, 35, 0
1, 34800, Note_on_c, 9, 42, 78
1, 34800, Note_on_c, 9, 35, 105
1, 34804, Note_on_c, 9, 42, 0
1, 34920, Note_on_c, 9, 42, 47
1, 34924, Note_on_c, 9, 42, 0
1, 35039, Note_on_c, 9, 35, 0
1, 35040, Note_on_c, 9, 38, 124
1, 35040, Note_on_c, 9, 40, 85
1, 35279, Note_on_c, 9, 38, 0
1, 35279, Note_on_c, 9, 40, 0
1, 35280, Note_on_c, 9, 42, 75
1, 35284, Note_on_c, 9, 42, 0
1, 35400, Note_on_c, 9, 42, 53
1, 35404, Note_on_c, 9, 42, 0
1, 35520, Note_on_c, 9, 42, 75
1, 35520, Note_on_c, 9, 35, 104
1, 35530, Note_on_c, 9, 42, 0
1, 35759, Note_on_c, 9, 35, 0
1, 35760, Note_on_c, 9, 42, 74
1, 35760, Note_on_c, 9, 35, 103
1, 35769, Note_on_c, 9, 42, 0
1, 35985, Note_on_c, 9, 42, 61
1, 35985, Note_on_c, 9, 42, 0
1, 35999, Note_on_c, 9, 35, 0
1, 36000, Note_on_c, 9, 38, 125
1, 36000, Note_on_c, 9, 40, 86
1, 36239, Note_on_c, 9, 38, 0
1, 36239, Note_on_c, 9, 40, 0
1, 36240, Note_on_c, 9, 46, 73
1, 36240, Note_on_c, 9, 35, 106
1, 36250, Note_on_c, 9, 46, 0
1, 36479, Note_on_c, 9, 35, 0
1, 36495, Note_on_c, 9, 42, 62
1, 36504, Note_on_c, 9, 42, 0
1, 36720, Note_on_c, 9, 42, 77
1, 36724, Note_on_c, 9, 42, 0
1, 36840, Note_on_c, 9, 42, 67
1, 36844, Note_on_c, 9, 42, 0
1, 36960, Note_on_c, 9, 38, 126
1, 36960, Note_on_c, 9, 40, 87
1, 37199, Note_on_c, 9, 38, 0
1, 37199, Note_on_c, 9, 40, 0
1, 37200, Note_on_c, 9, 42, 73
1, 37204, Note_on_c, 9, 42, 0
1, 37320, Note_on_c, 9, 42, 53
1, 37324, Note_on_c, 9, 42, 0
1, 37440, Note_on_c, 9, 42, 16
1, 37440, Note_on_c, 9, 35, 102
1, 37450, Note_on_c, 9, 42, 0
1, 37679, Note_on_c, 9, 35, 0
1, 37680, Note_on_c, 9, 42, 78
1, 37680, Note_on_c, 9, 35, 105
1, 37684, Note_on_c, 9, 42, 0
1, 37800, Note_on_c, 9, 42, 41
1, 37804, Note_on_c, 9, 42, 0
1, 37919, Note_on_c, 9, 35, 0
1, 37920, Note_on_c, 9, 38, 124
1, 37920, Note_on_c, 9, 40, 85
1, 38159, Note_on_c, 9, 38, 0
1, 38159, Note_on_c, 9, 40, 0
1, 38160, Note_on_c, 9, 42, 74
1, 38164, Note_on_c, 9, 42, 0
1, 38280, Note_on_c, 9, 42, 41
1, 38284, Note_on_c, 9, 42, 0
1, 38400, Note_on_c, 9, 42, 76
1, 38400, Note_on_c, 9, 35, 107
1, 38410, Note_on_c, 9, 42, 0
1, 38639, Note_on_c, 9, 35, 0
1, 38640, Note_on_c, 9, 42, 76
1, 38640, Note_on_c, 9, 35, 106
1, 38644, Note_on_c, 9, 42, 0
1, 38760, Note_on_c, 9, 42, 53
1, 38764, Note_on_c, 9, 42, 0
1, 38879, Note_on_c, 9, 35, 0
1, 38880, Note_on_c, 9, 38, 124
1, 38880, Note_on_c, 9, 40, 85
1, 38999, Note_on_c, 9, 38, 0
1, 38999, Note_on_c, 9, 40, 0
1, 39000, Note_on_c, 9, 42, 47
1, 39004, Note_on_c, 9, 42, 0
1, 39120, Note_on_c, 9, 42, 16
1, 39124, Note_on_c, 9, 42, 0
1, 39240, Note_on_c, 9, 42, 61
1, 39244, Note_on_c, 9, 42, 0
1, 39360, Note_on_c, 9, 42, 78
1, 39360, Note_on_c, 9, 35, 106
1, 39370, Note_on_c, 9, 42, 0
1, 39599, Note_on_c, 9, 35, 0
1, 39600, Note_on_c, 9, 42, 73
1, 39600, Note_on_c, 9, 35, 104
1, 39604, Note_on_c, 9, 42, 0
1, 39720, Note_on_c, 9, 42, 59
1, 39724, Note_on_c, 9, 42, 0
1, 39839, Note_on_c, 9, 35, 0
1, 39840, Note_on_c, 9, 38, 126
1, 39840, Note_on_c, 9, 40, 87
1, 40019, Note_on_c, 9, 38, 0
1, 40019, Note_on_c, 9, 40, 0
1, 40060, Note_on_c, 9, 46, 67
1, 40060, Note_on_c, 9, 46, 0
1, 40080, Note_on_c, 9, 35, 108
1, 40319, Note_on_c, 9, 35, 0
1, 40320, Note_on_c, 9, 42, 55
1, 40330, Note_on_c, 9, 42, 0
1, 40560, Note_on_c, 9, 42, 74
1, 40564, Note_on_c, 9, 42, 0
1, 40680, Note_on_c, 9, 42, 63
1, 40684, Note_on_c, 9, 42, 0
1, 40800, Note_on_c, 9, 38, 124
1, 40800, Note_on_c, 9, 40, 85
1, 40919, Note_on_c, 9, 38, 0
1, 40919, Note_on_c, 9, 40, 0
1, 40920, Note_on_c, 9, 42, 45
1, 40924, Note_on_c, 9, 42, 0
1, 41040, Note_on_c, 9, 42, 69
1, 41044, Note_on_c, 9, 42, 0
1, 41160, Note_on_c, 9, 42, 37
1, 41164, Note_on_c, 9, 42, 0
1, 41280, Note_on_c, 9, 42, 67
1, 41280, Note_on_c, 9, 35, 107
1, 41290, Note_on_c, 9, 42, 0
1, 41519, Note_on_c, 9, 35, 0
1, 41520, Note_on_c, 9, 42, 84
1, 41520, Note_on_c, 9, 35, 105
1, 41524, Note_on_c, 9, 42, 0
1, 41640, Note_on_c, 9, 42, 47
1, 41644, Note_on_c, 9, 42, 0
1, 41759, Note_on_c, 9, 35, 0
1, 41760, Note_on_c, 9, 38, 124
1, 41760, Note_on_c, 9, 40, 85
1, 41999, Note_on_c, 9, 38, 0
1, 41999, Note_on_c, 9, 40, 0
1, 42000, Note_on_c, 9, 42, 18
1, 42004, Note_on_c, 9, 42, 0
1, 42120, Note_on_c, 9, 42, 45
1, 42124, Note_on_c, 9, 42, 0
1, 42240, Note_on_c, 9, 42, 78
1, 42240, Note_on_c, 9, 35, 107
1, 42250, Note_on_c, 9, 42, 0
1, 42479, Note_on_c, 9, 35, 0
1, 42480, Note_on_c, 9, 42, 76
1, 42480, Note_on_c, 9, 35, 104
1, 42484, Note_on_c, 9, 42, 0
1, 42600, Note_on_c, 9, 42, 53
1, 42604, Note_on_c, 9, 42, 0
1, 42719, Note_on_c, 9, 35, 0
1, 42720, Note_on_c, 9, 38, 124
1, 42720, Note_on_c, 9, 40, 85
1, 42839, Note_on_c, 9, 38, 0
1, 42839, Note_on_c, 9, 40, 0
1, 42840, Note_on_c, 9, 42, 16
1, 42844, Note_on_c, 9, 42, 0
1, 42960, Note_on_c, 9, 42, 67
1, 42964, Note_on_c, 9, 42, 0
1, 43080, Note_on_c, 9, 42, 74
1, 43084, Note_on_c, 9, 42, 0
1, 43200, Note_on_c, 9, 42, 57
1, 43200, Note_on_c, 9, 35, 109
1, 43210, Note_on_c, 9, 42, 0
1, 43439, Note_on_c, 9, 35, 0
1, 43440, Note_on_c, 9, 42, 74
1, 43440, Note_on_c, 9, 35, 105
1, 43450, Note_on_c, 9, 42, 0
1, 43679, Note_on_c, 9, 35, 0
1, 43680, Note_on_c, 9, 38, 125
1, 43680, Note_on_c, 9, 40, 86
1, 43680, Note_on_c, 9, 42, 49
1, 43684, Note_on_c, 9, 42, 0
1, 43799, Note_on_c, 9, 38, 0
1, 43799, Note_on_c, 9, 40, 0
1, 43800, Note_on_c, 9, 42, 16
1, 43804, Note_on_c, 9, 42, 0
1, 43920, Note_on_c, 9, 46, 65
1, 43920, Note_on_c, 9, 35, 107
1, 43930, Note_on_c, 9, 46, 0
1, 44159, Note_on_c, 9, 35, 0
1, 44180, Note_on_c, 9, 42, 49
1, 44180, Note_on_c, 9, 42, 0
1, 44400, Note_on_c, 9, 42, 51
1, 44404, Note_on_c, 9, 42, 0
1, 44520, Note_on_c, 9, 42, 69
1, 44524, Note_on_c, 9, 42, 0
1, 44640, Note_on_c, 9, 38, 126
1, 44640, Note_on_c, 9, 40, 87
1, 44759, Note_on_c, 9, 38, 0
1, 44759, Note_on_c, 9, 40, 0
1, 44760, Note_on_c, 9, 42, 73
1, 44764, Note_on_c, 9, 42, 0
1, 44880, Note_on_c, 9, 42, 55
1, 44884, Note_on_c, 9, 42, 0
1, 45000, Note_on_c, 9, 42, 69
1, 45004, Note_on_c, 9, 42, 0
1, 45120, Note_on_c, 9, 42, 69
1, 45120, Note_on_c, 9, 35, 106
1, 45130, Note_on_c, 9, 42, 0
1, 45359, Note_on_c, 9, 35, 0
1, 45360, Note_on_c, 9, 42, 81
1, 45360, Note_on_c, 9, 35, 106
1, 45364, Note_on_c, 9, 42, 0
1, 45480, Note_on_c, 9, 42, 59
1, 45484, Note_on_c, 9, 42, 0
1, 45599, Note_on_c, 9, 35, 0
1, 45600, Note_on_c, 9, 38, 125
1, 45600, Note_on_c, 9, 40, 86
1, 45600, Note_on_c, 9, 42, 45
1, 45604, Note_on_c, 9, 42, 0
1, 45719, Note_on_c, 9, 38, 0
1, 45719, Note_on_c, 9, 40, 0
1, 45720, Note_on_c, 9, 42, 61
1, 45724, Note_on_c, 9, 42, 0
1, 45840, Note_on_c, 9, 42, 65
1, 45844, Note_on_c, 9, 42, 0
1, 45960, Note_on_c, 9, 42, 76
1, 45964, Note_on_c, 9, 42, 0
1, 46080, Note_on_c, 9, 35, 103
1, 46319, Note_on_c, 9, 35, 0
1, 46320, Note_on_c, 9, 42, 77
1, 46320, Note_on_c, 9, 35, 105
1, 46324, Note_on_c, 9, 42, 0
1, 46440, Note_on_c, 9, 42, 55
1, 46444, Note_on_c, 9, 42, 0
1, 46559, Note_on_c, 9, 35, 0
1, 46560, Note_on_c, 9, 38, 124
1, 46560, Note_on_c, 9, 40, 85
1, 46679, Note_on_c, 9, 38, 0
1, 46679, Note_on_c, 9, 40, 0
1, 46680, Note_on_c, 9, 42, 63
1, 46684, Note_on_c, 9, 42, 0
1, 46800, Note_on_c, 9, 42, 59
1, 46804, Note_on_c, 9, 42, 0
1, 46920, Note_on_c, 9, 42, 75
1, 46924, Note_on_c, 9, 42, 0
1, 47040, Note_on_c, 9, 42, 71
1, 47040, Note_on_c, 9, 35, 107
1, 47050, Note_on_c, 9, 42, 0
1, 47279, Note_on_c, 9, 35, 0
1, 47280, Note_on_c, 9, 42, 78
1, 47280, Note_on_c, 9, 35, 104
1, 47289, Note_on_c, 9, 42, 0
1, 47505, Note_on_c, 9, 42, 78
1, 47505, Note_on_c, 9, 42, 0
1, 47519, Note_on_c, 9, 35, 0
1, 47520, Note_on_c, 9, 38, 125
1, 47520, Note_on_c, 9, 40, 86
1, 47639, Note_on_c, 9, 38, 0
1, 47639, Note_on_c, 9, 40, 0
1, 47640, Note_on_c, 9, 42, 67
1, 47643, Note_on_c, 9, 42, 0
1, 47730, Note_on_c, 9, 46, 77
1, 47730, Note_on_c, 9, 46, 0
1, 47760, Note_on_c, 9, 49, 76
1, 47760, Note_on_c, 9, 52, 73
1, 47760, Note_on_c, 9, 35, 110
1, 47770, Note_on_c, 9, 49, 0
1, 47770, Note_on_c, 9, 52, 0
1, 47999, Note_on_c, 9, 35, 0
1, 48000, Note_on_c, 9, 42, 59
1, 48010, Note_on_c, 9, 42, 0
1, 48240, Note_on_c, 9, 51, 52
1, 48240, Note_on_c, 9, 42, 78
1, 48247, Note_on_c, 9, 51, 0
1, 48247, Note_on_c, 9, 42, 0
1, 48450, Note_on_c, 9, 38, 125
1, 48450, Note_on_c, 9, 40, 115
1, 48450, Note_on_c, 9, 51, 51
1, 48450, Note_on_c, 9, 42, 74
1, 48455, Note_on_c, 9, 51, 0
1, 48455, Note_on_c, 9, 42, 0
1, 48569, Note_on_c, 9, 38, 0
1, 48569, Note_on_c, 9, 40, 0
1, 48600, Note_on_c, 9, 51, 42
1, 48600, Note_on_c, 9, 42, 43
1, 48604, Note_on_c, 9, 51, 0
1, 48604, Note_on_c, 9, 42, 0
1, 48720, Note_on_c, 9, 51, 46
1, 48720, Note_on_c, 9, 42, 57
1, 48724, Note_on_c, 9, 51, 0
1, 48724, Note_on_c, 9, 42, 0
1, 48840, Note_on_c, 9, 51, 42
1, 48840, Note_on_c, 9, 42, 43
1, 48844, Note_on_c, 9, 51, 0
1, 48844, Note_on_c, 9, 42, 0
1, 48960, Note_on_c, 9, 51, 51
1, 48960, Note_on_c, 9, 42, 74
1, 48960, Note_on_c, 9, 35, 104
1, 48970, Note_on_c, 9, 51, 0
1, 48970, Note_on_c, 9, 42, 0
1, 49199, Note_on_c, 9, 35, 0
1, 49200, Note_on_c, 9, 51, 49
1, 49200, Note_on_c, 9, 42, 67
1, 49200, Note_on_c, 9, 35, 105
1, 49207, Note_on_c, 9, 51, 0
1, 49207, Note_on_c, 9, 42, 0
1, 49410, Note_on_c, 9, 38, 121
1, 49410, Note_on_c, 9, 40, 111
1, 49410, Note_on_c, 9, 51, 42
1, 49410, Note_on_c, 9, 42, 41
1, 49420, Note_on_c, 9, 51, 0
1, 49420, Note_on_c, 9, 42, 0
1, 49439, Note_on_c, 9, 35, 0
1, 49529, Note_on_c, 9, 38, 0
1, 49529, Note_on_c, 9, 40, 0
1, 49680, Note_on_c, 9, 51, 49
1, 49680, Note_on_c, 9, 42, 69
1, 49684, Note_on_c, 9, 51, 0
1, 49684, Note_on_c, 9, 42, 0
1, 49800, Note_on_c, 9, 51, 42
1, 49800, Note_on_c, 9, 42, 43
1, 49804, Note_on_c, 9, 51, 0
1, 49804, Note_on_c, 9, 42, 0
1, 49920, Note_on_c, 9, 51, 51
1, 49920, Note_on_c, 9, 42, 74
1, 49920, Note_on_c, 9, 35, 108
1, 49930, Note_on_c, 9, 51, 0
1, 49930, Note_on_c, 9, 42, 0
1, 50159, Note_on_c, 9, 35, 0
1, 50160, Note_on_c, 9, 51, 46
1, 50160, Note_on_c, 9, 42, 57
1, 50160, Note_on_c, 9, 35, 107
1, 50170, Note_on_c, 9, 51, 0
1, 50170, Note_on_c, 9, 42, 0
1, 50399, Note_on_c, 9, 35, 0
1, 50400, Note_on_c, 9, 38, 124
1, 50400, Note_on_c, 9, 40, 114
1, 50639, Note_on_c, 9, 38, 0
1, 50639, Note_on_c, 9, 40, 0
1, 50640, Note_on_c, 9, 51, 48
1, 50640, Note_on_c, 9, 42, 65
1, 50644, Note_on_c, 9, 51, 0
1, 50644, Note_on_c, 9, 42, 0
1, 50760, Note_on_c, 9, 51, 43
1, 50760, Note_on_c, 9, 42, 45
1, 50764, Note_on_c, 9, 51, 0
1, 50764, Note_on_c, 9, 42, 0
1, 50880, Note_on_c, 9, 51, 47
1, 50880, Note_on_c, 9, 42, 61
1, 50880, Note_on_c, 9, 35, 108
1, 50884, Note_on_c, 9, 51, 0
1, 50884, Note_on_c, 9, 42, 0
1, 51000, Note_on_c, 9, 51, 42
1, 51000, Note_on_c, 9, 42, 43
1, 51004, Note_on_c, 9, 51, 0
1, 51004, Note_on_c, 9, 42, 0
1, 51119, Note_on_c, 9, 35, 0
1, 51120, Note_on_c, 9, 51, 49
1, 51120, Note_on_c, 9, 42, 69
1, 51120, Note_on_c, 9, 35, 105
1, 51130, Note_on_c, 9, 51, 0
1, 51130, Note_on_c, 9, 42, 0
1, 51359, Note_on_c, 9, 35, 0
1, 51360, Note_on_c, 9, 38, 125
1, 51360, Note_on_c, 9, 40, 115
1, 51360, Note_on_c, 9, 51, 46
1, 51360, Note_on_c, 9, 42, 57
1, 51369, Note_on_c, 9, 51, 0
1, 51369, Note_on_c, 9, 42, 0
1, 51539, Note_on_c, 9, 38, 0
1, 51539, Note_on_c, 9, 40, 0
1, 51585, Note_on_c, 9, 46, 59
1, 51585, Note_on_c, 9, 46, 0
1, 51600, Note_on_c, 9, 51, 40
1, 51600, Note_on_c, 9, 35, 109
1, 51610, Note_on_c, 9, 51, 0
1, 51839, Note_on_c, 9, 35, 0
1, 51840, Note_on_c, 9, 51, 41
1, 51840, Note_on_c, 9, 51, 0
1, 51840, Note_on_c, 9, 42, 57
1, 51840, Note_on_c, 9, 42, 0
1, 51855, Note_on_c, 9, 49, 62
1, 51855, Note_on_c, 9, 52, 59
1, 51864, Note_on_c, 9, 49, 0
1, 51864, Note_on_c, 9, 52, 0
1, 52080, Note_on_c, 9, 51, 50
1, 52080, Note_on_c, 9, 42, 72
1, 52087, Note_on_c, 9, 51, 0
1, 52087, Note_on_c, 9, 42, 0
1, 52290, Note_on_c, 9, 38, 125
1, 52290, Note_on_c, 9, 40, 115
1, 52290, Note_on_c, 9, 51, 52
1, 52290, Note_on_c, 9, 42, 77
1, 52295, Note_on_c, 9, 51, 0
1, 52295, Note_on_c, 9, 42, 0
1, 52409, Note_on_c, 9, 38, 0
1, 52409, Note_on_c, 9, 40, 0
1, 52440, Note_on_c, 9, 51, 42
1, 52440, Note_on_c, 9, 42, 43
1, 52444, Note_on_c, 9, 51, 0
1, 52444, Note_on_c, 9, 42, 0
1, 52560, Note_on_c, 9, 51, 47
1, 52560, Note_on_c, 9, 42, 63
1, 52564, Note_on_c, 9, 51, 0
1, 52564, Note_on_c, 9, 42, 0
1, 52680, Note_on_c, 9, 51, 46
1, 52680, Note_on_c, 9, 42, 55
1, 52684, Note_on_c, 9, 51, 0
1, 52684, Note_on_c, 9, 42, 0
1, 52800, Note_on_c, 9, 51, 50
1, 52800, Note_on_c, 9, 42, 72
1, 52800, Note_on_c, 9, 35, 108
1, 52810, Note_on_c, 9, 51, 0
1, 52810, Note_on_c, 9, 42, 0
1, 53039, Note_on_c, 9, 35, 0
1, 53040, Note_on_c, 9, 51, 50
1, 53040, Note_on_c, 9, 42, 72
1, 53040, Note_on_c, 9, 35, 105
1, 53050, Note_on_c, 9, 51, 0
1, 53050, Note_on_c, 9, 42, 0
1, 53279, Note_on_c, 9, 35, 0
1, 53280, Note_on_c, 9, 38, 125
1, 53280, Note_on_c, 9, 40, 115
1, 53280, Note_on_c, 9, 51, 43
1, 53280, Note_on_c, 9, 42, 47
1, 53290, Note_on_c, 9, 51, 0
1, 53290, Note_on_c, 9, 42, 0
1, 53519, Note_on_c, 9, 38, 0
1, 53519, Note_on_c, 9, 40, 0
1, 53520, Note_on_c, 9, 51, 48
1, 53520, Note_on_c, 9, 42, 65
1, 53524, Note_on_c, 9, 51, 0
1, 53524, Note_on_c, 9, 42, 0
1, 53640, Note_on_c, 9, 51, 42
1, 53640, Note_on_c, 9, 42, 41
1, 53644, Note_on_c, 9, 51, 0
1, 53644, Note_on_c, 9, 42, 0
1, 53760, Note_on_c, 9, 51, 51
1, 53760, Note_on_c, 9, 42, 75
1, 53760, Note_on_c, 9, 35, 106
1, 53770, Note_on_c, 9, 51, 0
1, 53770, Note_on_c, 9, 42, 0
1, 53999, Note_on_c, 9, 35, 0
1, 54000, Note_on_c, 9, 51, 50
1, 54000, Note_on_c, 9, 42, 72
1, 54000, Note_on_c, 9, 35, 106
1, 54010, Note_on_c, 9, 51, 0
1, 54010, Note_on_c, 9, 42, 0
1, 54239, Note_on_c, 9, 35, 0
1, 54240, Note_on_c, 9, 38, 126
1, 54240, Note_on_c, 9, 40, 116
1, 54479, Note_on_c, 9, 38, 0
1, 54479, Note_on_c, 9, 40, 0
1, 54480, Note_on_c, 9, 51, 51
1, 54480, Note_on_c, 9, 42, 76
1, 54484, Note_on_c, 9, 51, 0
1, 54484, Note_on_c, 9, 42, 0
1, 54600, Note_on_c, 9, 51, 41
1, 54600, Note_on_c, 9, 42, 39
1, 54604, Note_on_c, 9, 51, 0
1, 54604, Note_on_c, 9, 42, 0
1, 54720, Note_on_c, 9, 51, 50
1, 54720, Note_on_c, 9, 42, 72
1, 54720, Note_on_c, 9, 35, 108
1, 54724, Note_on_c, 9, 51, 0
1, 54724, Note_on_c, 9, 42, 0
1, 54840, Note_on_c, 9, 51, 42
1, 54840, Note_on_c, 9, 42, 41
1, 54844, Note_on_c, 9, 51, 0
1, 54844, Note_on_c, 9, 42, 0
1, 54959, Note_on_c, 9, 35, 0
1, 54960, Note_on_c, 9, 51, 47
1, 54960, Note_on_c, 9, 42, 61
1, 54960, Note_on_c, 9, 35, 105
1, 54970, Note_on_c, 9, 51, 0
1, 54970, Note_on_c, 9, 42, 0
1, 55199, Note_on_c, 9, 35, 0
1, 55200, Note_on_c, 9, 38, 125
1, 55200, Note_on_c, 9, 40, 115
1, 55200, Note_on_c, 9, 51, 43
1, 55200, Note_on_c, 9, 42, 47
1, 55210, Note_on_c, 9, 51, 0
1, 55210, Note_on_c, 9, 42, 0
1, 55439, Note_on_c, 9, 38, 0
1, 55439, Note_on_c, 9, 40, 0
1, 55440, Note_on_c, 9, 46, 71
1, 55440, Note_on_c, 9, 51, 43
1, 55440, Note_on_c, 9, 35, 109
1, 55450, Note_on_c, 9, 46, 0
1, 55450, Note_on_c, 9, 51, 0
1, 55679, Note_on_c, 9, 35, 0
1, 55680, Note_on_c, 9, 51, 42
1, 55680, Note_on_c, 9, 42, 61
1, 55690, Note_on_c, 9, 51, 0
1, 55690, Note_on_c, 9, 42, 0
1, 55920, Note_on_c, 9, 51, 52
1, 55920, Note_on_c, 9, 42, 78
1, 55927, Note_on_c, 9, 51, 0
1, 55927, Note_on_c, 9, 42, 0
1, 56130, Note_on_c, 9, 38, 127
1, 56130, Note_on_c, 9, 40, 117
1, 56130, Note_on_c, 9, 51, 51
1, 56130, Note_on_c, 9, 42, 74
1, 56135, Note_on_c, 9, 51, 0
1, 56135, Note_on_c, 9, 42, 0
1, 56249, Note_on_c, 9, 38, 0
1, 56249, Note_on_c, 9, 40, 0
1, 56280, Note_on_c, 9, 51, 42
1, 56280, Note_on_c, 9, 42, 43
1, 56284, Note_on_c, 9, 51, 0
1, 56284, Note_on_c, 9, 42, 0
1, 56400, Note_on_c, 9, 51, 46
1, 56400, Note_on_c, 9, 42, 57
1, 56404, Note_on_c, 9, 51, 0
1, 56404, Note_on_c, 9, 42, 0
1, 56520, Note_on_c, 9, 51, 42
1, 56520, Note_on_c, 9, 42, 43
1, 56524, Note_on_c, 9, 51, 0
1, 56524, Note_on_c, 9, 42, 0
1, 56640, Note_on_c, 9, 51, 51
1, 56640, Note_on_c, 9, 42, 74
1, 56640, Note_on_c, 9, 35, 104
1, 56650, Note_on_c, 9, 51, 0
1, 56650, Note_on_c, 9, 42, 0
1, 56879, Note_on_c, 9, 35, 0
1, 56880, Note_on_c, 9, 51, 49
1, 56880, Note_on_c, 9, 42, 67
1, 56880, Note_on_c, 9, 35, 105
1, 56890, Note_on_c, 9, 51, 0
1, 56890, Note_on_c, 9, 42, 0
1, 57119, Note_on_c, 9, 35, 0
1, 57120, Note_on_c, 9, 38, 124
1, 57120, Note_on_c, 9, 40, 114
1, 57120, Note_on_c, 9, 51, 42
1, 57120, Note_on_c, 9, 42, 41
1, 57130, Note_on_c, 9, 51, 0
1, 57130, Note_on_c, 9, 42, 0
1, 57359, Note_on_c, 9, 38, 0
1, 57359, Note_on_c, 9, 40, 0
1, 57360, Note_on_c, 9, 51, 49
1, 57360, Note_on_c, 9, 42, 69
1, 57364, Note_on_c, 9, 51, 0
1, 57364, Note_on_c, 9, 42, 0
1, 57480, Note_on_c, 9, 51, 42
1, 57480, Note_on_c, 9, 42, 43
1, 57484, Note_on_c, 9, 51, 0
1, 57484, Note_on_c, 9, 42, 0
1, 57600, Note_on_c, 9, 51, 51
1, 57600, Note_on_c, 9, 42, 74
1, 57600, Note_on_c, 9, 35, 108
1, 57610, Note_on_c, 9, 51, 0
1, 57610, Note_on_c, 9, 42, 0
1, 57839, Note_on_c, 9, 35, 0
1, 57840, Note_on_c, 9, 51, 46
1, 57840, Note_on_c, 9, 42, 57
1, 57840, Note_on_c, 9, 35, 106
1, 57850, Note_on_c, 9, 51, 0
1, 57850, Note_on_c, 9, 42, 0
1, 58079, Note_on_c, 9, 35, 0
1, 58080, Note_on_c, 9, 38, 126
1, 58080, Note_on_c, 9, 40, 116
1, 58319, Note_on_c, 9, 38, 0
1, 58319, Note_on_c, 9, 40, 0
1, 58320, Note_on_c, 9, 51, 48
1, 58320, Note_on_c, 9, 42, 65
1, 58324, Note_on_c, 9, 51, 0
1, 58324, Note_on_c, 9, 42, 0
1, 58440, Note_on_c, 9, 51, 43
1, 58440, Note_on_c, 9, 42, 45
1, 58444, Note_on_c, 9, 51, 0
1, 58444, Note_on_c, 9, 42, 0
1, 58560, Note_on_c, 9, 51, 47
1, 58560, Note_on_c, 9, 42, 61
1, 58560, Note_on_c, 9, 35, 108
1, 58564, Note_on_c, 9, 51, 0
1, 58564, Note_on_c, 9, 42, 0
1, 58680, Note_on_c, 9, 51, 42
1, 58680, Note_on_c, 9, 42, 43
1, 58684, Note_on_c, 9, 51, 0
1, 58684, Note_on_c, 9, 42, 0
1, 58799, Note_on_c, 9, 35, 0
1, 58800, Note_on_c, 9, 51, 49
1, 58800, Note_on_c, 9, 42, 69
1, 58800, Note_on_c, 9, 35, 108
1, 58810, Note_on_c, 9, 51, 0
1, 58810, Note_on_c, 9, 42, 0
1, 59039, Note_on_c, 9, 35, 0
1, 59040, Note_on_c, 9, 38, 124
1, 59040, Note_on_c, 9, 40, 114
1, 59040, Note_on_c, 9, 51, 46
1, 59040, Note_on_c, 9, 42, 57
1, 59050, Note_on_c, 9, 51, 0
1, 59050, Note_on_c, 9, 42, 0
1, 59279, Note_on_c, 9, 38, 0
1, 59279, Note_on_c, 9, 40, 0
1, 59280, Note_on_c, 9, 46, 67
1, 59280, Note_on_c, 9, 51, 42
1, 59280, Note_on_c, 9, 49, 72
1, 59280, Note_on_c, 9, 52, 69
1, 59280, Note_on_c, 9, 35, 109
1, 59290, Note_on_c, 9, 46, 0
1, 59290, Note_on_c, 9, 51, 0
1, 59290, Note_on_c, 9, 49, 0
1, 59290, Note_on_c, 9, 52, 0
1, 59519, Note_on_c, 9, 35, 0
1, 59520, Note_on_c, 9, 51, 40
1, 59520, Note_on_c, 9, 42, 63
1, 59530, Note_on_c, 9, 51, 0
1, 59530, Note_on_c, 9, 42, 0
1, 59760, Note_on_c, 9, 51, 49
1, 59760, Note_on_c, 9, 42, 67
1, 59767, Note_on_c, 9, 51, 0
1, 59767, Note_on_c, 9, 42, 0
1, 59970, Note_on_c, 9, 38, 126
1, 59970, Note_on_c, 9, 40, 116
1, 59970, Note_on_c, 9, 51, 48
1, 59970, Note_on_c, 9, 42, 65
1, 59975, Note_on_c, 9, 51, 0
1, 59975, Note_on_c, 9, 42, 0
1, 60089, Note_on_c, 9, 38, 0
1, 60089, Note_on_c, 9, 40, 0
1, 60120, Note_on_c, 9, 51, 43
1, 60120, Note_on_c, 9, 42, 47
1, 60124, Note_on_c, 9, 51, 0
1, 60124, Note_on_c, 9, 42, 0
1, 60240, Note_on_c, 9, 51, 49
1, 60240, Note_on_c, 9, 42, 69
1, 60244, Note_on_c, 9, 51, 0
1, 60244, Note_on_c, 9, 42, 0
1, 60360, Note_on_c, 9, 51, 43
1, 60360, Note_on_c, 9, 42, 45
1, 60364, Note_on_c, 9, 51, 0
1, 60364, Note_on_c, 9, 42, 0
1, 60480, Note_on_c, 9, 51, 50
1, 60480, Note_on_c, 9, 42, 72
1, 60480, Note_on_c, 9, 35, 106
1, 60490, Note_on_c, 9, 51, 0
1, 60490, Note_on_c, 9, 42, 0
1, 60719, Note_on_c, 9, 35, 0
1, 60720, Note_on_c, 9, 51, 50
1, 60720, Note_on_c, 9, 42, 73
1, 60720, Note_on_c, 9, 35, 107
1, 60730, Note_on_c, 9, 51, 0
1, 60730, Note_on_c, 9, 42, 0
1, 60959, Note_on_c, 9, 35, 0
1, 60960, Note_on_c, 9, 38, 124
1, 60960, Note_on_c, 9, 40, 114
1, 61199, Note_on_c, 9, 38, 0
1, 61199, Note_on_c, 9, 40, 0
1, 61200, Note_on_c, 9, 51, 52
1, 61200, Note_on_c, 9, 42, 78
1, 61204, Note_on_c, 9, 51, 0
1, 61204, Note_on_c, 9, 42, 0
1, 61320, Note_on_c, 9, 51, 42
1, 61320, Note_on_c, 9, 42, 43
1, 61324, Note_on_c, 9, 51, 0
1, 61324, Note_on_c, 9, 42, 0
1, 61440, Note_on_c, 9, 51, 51
1, 61440, Note_on_c, 9, 42, 76
1, 61440, Note_on_c, 9, 35, 107
1, 61450, Note_on_c, 9, 51, 0
1, 61450, Note_on_c, 9, 42, 0
1, 61679, Note_on_c, 9, 35, 0
1, 61680, Note_on_c, 9, 51, 45
1, 61680, Note_on_c, 9, 42, 53
1, 61680, Note_on_c, 9, 35, 106
1, 61690, Note_on_c, 9, 51, 0
1, 61690, Note_on_c, 9, 42, 0
1, 61919, Note_on_c, 9, 35, 0
1, 61920, Note_on_c, 9, 38, 125
1, 61920, Note_on_c, 9, 40, 115
1, 62159, Note_on_c, 9, 38, 0
1, 62159, Note_on_c, 9, 40, 0
1, 62160, Note_on_c, 9, 51, 51
1, 62160, Note_on_c, 9, 42, 74
1, 62164, Note_on_c, 9, 51, 0
1, 62164, Note_on_c, 9, 42, 0
1, 62280, Note_on_c, 9, 51, 43
1, 62280, Note_on_c, 9, 42, 47
1, 62284, Note_on_c, 9, 51, 0
1, 62284, Note_on_c, 9, 42, 0
1, 62400, Note_on_c, 9, 51, 50
1, 62400, Note_on_c, 9, 42, 72
1, 62400, Note_on_c, 9, 35, 106
1, 62410, Note_on_c, 9, 51, 0
1, 62410, Note_on_c, 9, 42, 0
1, 62639, Note_on_c, 9, 35, 0
1, 62640, Note_on_c, 9, 51, 45
1, 62640, Note_on_c, 9, 42, 51
1, 62640, Note_on_c, 9, 35, 107
1, 62649, Note_on_c, 9, 51, 0
1, 62649, Note_on_c, 9, 42, 0
1, 62865, Note_on_c, 9, 51, 50
1, 62865, Note_on_c, 9, 51, 0
1, 62865, Note_on_c, 9, 42, 72
1, 62865, Note_on_c, 9, 42, 0
1, 62879, Note_on_c, 9, 35, 0
1, 62880, Note_on_c, 9, 38, 126
1, 62880, Note_on_c, 9, 40, 116
1, 63059, Note_on_c, 9, 38, 0
1, 63059, Note_on_c, 9, 40, 0
1, 63105, Note_on_c, 9, 46, 67
1, 63105, Note_on_c, 9, 46, 0
1, 63105, Note_on_c, 9, 51, 42
1, 63105, Note_on_c, 9, 51, 0
1, 63120, Note_on_c, 9, 49, 66
1, 63120, Note_on_c, 9, 52, 63
1, 63120, Note_on_c, 9, 35, 111
1, 63130, Note_on_c, 9, 49, 0
1, 63130, Note_on_c, 9, 52, 0
1, 63359, Note_on_c, 9, 35, 0
1, 63360, Note_on_c, 9, 42, 56
1, 63370, Note_on_c, 9, 42, 0
1, 63600, Note_on_c, 9, 42, 74
1, 63607, Note_on_c, 9, 42, 0
1, 63810, Note_on_c, 9, 38, 126
1, 63810, Note_on_c, 9, 40, 87
1, 63810, Note_on_c, 9, 42, 65
1, 63815, Note_on_c, 9, 42, 0
1, 63929, Note_on_c, 9, 38, 0
1, 63929, Note_on_c, 9, 40, 0
1, 63960, Note_on_c, 9, 42, 45
1, 63964, Note_on_c, 9, 42, 0
1, 64080, Note_on_c, 9, 42, 57
1, 64084, Note_on_c, 9, 42, 0
1, 64200, Note_on_c, 9, 42, 35
1, 64204, Note_on_c, 9, 42, 0
1, 64320, Note_on_c, 9, 42, 74
1, 64320, Note_on_c, 9, 35, 103
1, 64330, Note_on_c, 9, 42, 0
1, 64559, Note_on_c, 9, 35, 0
1, 64560, Note_on_c, 9, 42, 63
1, 64560, Note_on_c, 9, 35, 105
1, 64567, Note_on_c, 9, 42, 0
1, 64770, Note_on_c, 9, 38, 123
1, 64770, Note_on_c, 9, 40, 84
1, 64770, Note_on_c, 9, 42, 72
1, 64775, Note_on_c, 9, 42, 0
1, 64799, Note_on_c, 9, 35, 0
1, 64889, Note_on_c, 9, 38, 0
1, 64889, Note_on_c, 9, 40, 0
1, 64920, Note_on_c, 9, 42, 41
1, 64924, Note_on_c, 9, 42, 0
1, 65040, Note_on_c, 9, 42, 61
1, 65044, Note_on_c, 9, 42, 0
1, 65160, Note_on_c, 9, 42, 41
1, 65164, Note_on_c, 9, 42, 0
1, 65280, Note_on_c, 9, 42, 69
1, 65280, Note_on_c, 9, 35, 104
1, 65290, Note_on_c, 9, 42, 0
1, 65519, Note_on_c, 9, 35, 0
1, 65520, Note_on_c, 9, 42, 72
1, 65520, Note_on_c, 9, 35, 104
1, 65530, Note_on_c, 9, 42, 0
1, 65759, Note_on_c, 9, 35, 0
1, 65760, Note_on_c, 9, 38, 124
1, 65760, Note_on_c, 9, 40, 85
1, 65999, Note_on_c, 9, 38, 0
1, 65999, Note_on_c, 9, 40, 0
1, 66000, Note_on_c, 9, 42, 72
1, 66004, Note_on_c, 9, 42, 0
1, 66120, Note_on_c, 9, 42, 39
1, 66124, Note_on_c, 9, 42, 0
1, 66240, Note_on_c, 9, 42, 72
1, 66240, Note_on_c, 9, 35, 103
1, 66250, Note_on_c, 9, 42, 0
1, 66479, Note_on_c, 9, 35, 0
1, 66480, Note_on_c, 9, 42, 67
1, 66480, Note_on_c, 9, 35, 101
1, 66487, Note_on_c, 9, 42, 0
1, 66690, Note_on_c, 9, 38, 126
1, 66690, Note_on_c, 9, 40, 87
1, 66690, Note_on_c, 9, 42, 51
1, 66695, Note_on_c, 9, 42, 0
1, 66719, Note_on_c, 9, 35, 0
1, 66809, Note_on_c, 9, 38, 0
1, 66809, Note_on_c, 9, 40, 0
1, 66840, Note_on_c, 9, 42, 65
1, 66844, Note_on_c, 9, 42, 0
1, 66960, Note_on_c, 9, 46, 67
1, 66960, Note_on_c, 9, 35, 108
1, 66970, Note_on_c, 9, 46, 0
1, 67199, Note_on_c, 9, 35, 0
1, 67200, Note_on_c, 9, 42, 55
1, 67210, Note_on_c, 9, 42, 0
1, 67440, Note_on_c, 9, 42, 55
1, 67444, Note_on_c, 9, 42, 0
1, 67560, Note_on_c, 9, 42, 45
1, 67563, Note_on_c, 9, 42, 0
1, 67650, Note_on_c, 9, 38, 125
1, 67650, Note_on_c, 9, 40, 86
1, 67650, Note_on_c, 9, 42, 69
1, 67660, Note_on_c, 9, 42, 0
1, 67769, Note_on_c, 9, 38, 0
1, 67769, Note_on_c, 9, 40, 0
1, 67920, Note_on_c, 9, 42, 65
1, 67924, Note_on_c, 9, 42, 0
1, 68040, Note_on_c, 9, 42, 37
1, 68044, Note_on_c, 9, 42, 0
1, 68160, Note_on_c, 9, 42, 67
1, 68160, Note_on_c, 9, 35, 101
1, 68170, Note_on_c, 9, 42, 0
1, 68399, Note_on_c, 9, 35, 0
1, 68400, Note_on_c, 9, 42, 61
1, 68400, Note_on_c, 9, 35, 105
1, 68409, Note_on_c, 9, 42, 0
1, 68625, Note_on_c, 9, 42, 67
1, 68625, Note_on_c, 9, 42, 0
1, 68639, Note_on_c, 9, 35, 0
1, 68640, Note_on_c, 9, 38, 124
1, 68640, Note_on_c, 9, 40, 85
1, 68759, Note_on_c, 9, 38, 0
1, 68759, Note_on_c, 9, 40, 0
1, 68760, Note_on_c, 9, 42, 43
1, 68764, Note_on_c, 9, 42, 0
1, 68880, Note_on_c, 9, 42, 31
1, 68884, Note_on_c, 9, 42, 0
1, 69000, Note_on_c, 9, 42, 16
1, 69004, Note_on_c, 9, 42, 0
1, 69120, Note_on_c, 9, 42, 69
1, 69120, Note_on_c, 9, 35, 103
1, 69130, Note_on_c, 9, 42, 0
1, 69359, Note_on_c, 9, 35, 0
1, 69360, Note_on_c, 9, 42, 61
1, 69360, Note_on_c, 9, 35, 103
1, 69364, Note_on_c, 9, 42, 0
1, 69480, Note_on_c, 9, 42, 33
1, 69483, Note_on_c, 9, 42, 0
1, 69585, Note_on_c, 9, 42, 73
1, 69585, Note_on_c, 9, 42, 0
1, 69599, Note_on_c, 9, 35, 0
1, 69600, Note_on_c, 9, 38, 124
1, 69600, Note_on_c, 9, 40, 85
1, 69839, Note_on_c, 9, 38, 0
1, 69839, Note_on_c, 9, 40, 0
1, 69840, Note_on_c, 9, 42, 67
1, 69844, Note_on_c, 9, 42, 0
1, 69960, Note_on_c, 9, 42, 39
1, 69964, Note_on_c, 9, 42, 0
1, 70080, Note_on_c, 9, 42, 72
1, 70080, Note_on_c, 9, 35, 103
1, 70090, Note_on_c, 9, 42, 0
1, 70319, Note_on_c, 9, 35, 0
1, 70320, Note_on_c, 9, 42, 59
1, 70320, Note_on_c, 9, 35, 104
1, 70327, Note_on_c, 9, 42, 0
1, 70530, Note_on_c, 9, 38, 125
1, 70530, Note_on_c, 9, 40, 86
1, 70530, Note_on_c, 9, 42, 35
1, 70535, Note_on_c, 9, 42, 0
1, 70559, Note_on_c, 9, 35, 0
1, 70649, Note_on_c, 9, 38, 0
1, 70649, Note_on_c, 9, 40, 0
1, 70680, Note_on_c, 9, 42, 69
1, 70683, Note_on_c, 9, 42, 0
1, 70785, Note_on_c, 9, 49, 68
1, 70785, Note_on_c, 9, 49, 0
1, 70785, Note_on_c, 9, 52, 65
1, 70785, Note_on_c, 9, 52, 0
1, 70800, Note_on_c, 9, 46, 67
1, 70800, Note_on_c, 9, 35, 106
1, 70810, Note_on_c, 9, 46, 0
1, 71039, Note_on_c, 9, 35, 0
1, 71040, Note_on_c, 9, 42, 55
1, 71050, Note_on_c, 9, 42, 0
1, 71280, Note_on_c, 9, 42, 65
1, 71284, Note_on_c, 9, 42, 0
1, 71400, Note_on_c, 9, 42, 35
1, 71403, Note_on_c, 9, 42, 0
1, 71490, Note_on_c, 9, 38, 124
1, 71490, Note_on_c, 9, 40, 85
1, 71490, Note_on_c, 9, 42, 69
1, 71500, Note_on_c, 9, 42, 0
1, 71609, Note_on_c, 9, 38, 0
1, 71609, Note_on_c, 9, 40, 0
1, 71760, Note_on_c, 9, 42, 63
1, 71770, Note_on_c, 9, 42, 0
1, 72000, Note_on_c, 9, 42, 41
1, 72000, Note_on_c, 9, 35, 103
1, 72010, Note_on_c, 9, 42, 0
1, 72239, Note_on_c, 9, 35, 0
1, 72240, Note_on_c, 9, 42, 65
1, 72240, Note_on_c, 9, 35, 104
1, 72249, Note_on_c, 9, 42, 0
1, 72465, Note_on_c, 9, 42, 74
1, 72465, Note_on_c, 9, 42, 0
1, 72479, Note_on_c, 9, 35, 0
1, 72480, Note_on_c, 9, 38, 125
1, 72480, Note_on_c, 9, 40, 86
1, 72599, Note_on_c, 9, 38, 0
1, 72599, Note_on_c, 9, 40, 0
1, 72600, Note_on_c, 9, 42, 28
1, 72604, Note_on_c, 9, 42, 0
1, 72720, Note_on_c, 9, 42, 57
1, 72724, Note_on_c, 9, 42, 0
1, 72840, Note_on_c, 9, 42, 33
1, 72844, Note_on_c, 9, 42, 0
1, 72960, Note_on_c, 9, 42, 67
1, 72960, Note_on_c, 9, 35, 102
1, 72970, Note_on_c, 9, 42, 0
1, 73199, Note_on_c, 9, 35, 0
1, 73200, Note_on_c, 9, 42, 59
1, 73200, Note_on_c, 9, 35, 102
1, 73210, Note_on_c, 9, 42, 0
1, 73439, Note_on_c, 9, 35, 0
1, 73440, Note_on_c, 9, 38, 125
1, 73440, Note_on_c, 9, 40, 86
1, 73679, Note_on_c, 9, 38, 0
1, 73679, Note_on_c, 9, 40, 0
1, 73680, Note_on_c, 9, 42, 65
1, 73684, Note_on_c, 9, 42, 0
1, 73800, Note_on_c, 9, 42, 43
1, 73804, Note_on_c, 9, 42, 0
1, 73920, Note_on_c, 9, 42, 61
1, 73920, Note_on_c, 9, 35, 103
1, 73930, Note_on_c, 9, 42, 0
1, 74159, Note_on_c, 9, 35, 0
1, 74160, Note_on_c, 9, 42, 67
1, 74160, Note_on_c, 9, 35, 99
1, 74164, Note_on_c, 9, 42, 0
1, 74280, Note_on_c, 9, 42, 43
1, 74283, Note_on_c, 9, 42, 0
1, 74370, Note_on_c, 9, 38, 127
1, 74370, Note_on_c, 9, 40, 88
1, 74370, Note_on_c, 9, 42, 67
1, 74380, Note_on_c, 9, 42, 0
1, 74399, Note_on_c, 9, 35, 0
1, 74489, Note_on_c, 9, 38, 0
1, 74489, Note_on_c, 9, 40, 0
1, 74640, Note_on_c, 9, 46, 65
1, 74640, Note_on_c, 9, 49, 70
1, 74640, Note_on_c, 9, 52, 67
1, 74640, Note_on_c, 9, 35, 102
1, 74650, Note_on_c, 9, 46, 0
1, 74650, Note_on_c, 9, 49, 0
1, 74650, Note_on_c, 9, 52, 0
1, 74879, Note_on_c, 9, 35, 0
1, 74880, Note_on_c, 9, 42, 57
1, 74890, Note_on_c, 9, 42, 0
1, 75120, Note_on_c, 9, 42, 67
1, 75130, Note_on_c, 9, 42, 0
1, 75360, Note_on_c, 9, 38, 126
1, 75360, Note_on_c, 9, 40, 87
1, 75360, Note_on_c, 9, 42, 43
1, 75370, Note_on_c, 9, 42, 0
1, 75599, Note_on_c, 9, 38, 0
1, 75599, Note_on_c, 9, 40, 0
1, 75600, Note_on_c, 9, 42, 65
1, 75604, Note_on_c, 9, 42, 0
1, 75720, Note_on_c, 9, 42, 35
1, 75724, Note_on_c, 9, 42, 0
1, 75840, Note_on_c, 9, 38, 110
1, 75840, Note_on_c, 9, 27, 108
1, 75840, Note_on_c, 9, 28, 120
1, 75840, Note_on_c, 9, 36, 110
1, 75855, Note_on_c, 9, 42, 59
1, 75855, Note_on_c, 9, 55, 51
1, 75855, Note_on_c, 9, 35, 103
1, 75863, Note_on_c, 9, 42, 0
1, 75863, Note_on_c, 9, 55, 0
1, 75914, Note_on_c, 9, 35, 0
1, 76019, Note_on_c, 9, 38, 0
1, 76019, Note_on_c, 9, 27, 0
1, 76019, Note_on_c, 9, 28, 0
1, 76065, Note_on_c, 9, 27, 110
1, 76065, Note_on_c, 9, 42, 67
1, 76065, Note_on_c, 9, 42, 0
1, 76079, Note_on_c, 9, 36, 0
1, 76079, Note_on_c, 9, 27, 0
1, 76080, Note_on_c, 9, 38, 124
1, 76080, Note_on_c, 9, 27, 110
1, 76080, Note_on_c, 9, 28, 127
1, 76080, Note_on_c, 9, 55, 51
1, 76080, Note_on_c, 9, 35, 103
1, 76089, Note_on_c, 9, 55, 0
1, 76095, Note_on_c, 9, 36, 124
1, 76154, Note_on_c, 9, 36, 0
1, 76304, Note_on_c, 9, 38, 0
1, 76304, Note_on_c, 9, 27, 0
1, 76305, Note_on_c, 9, 38, 124
1, 76319, Note_on_c, 9, 28, 0
1, 76319, Note_on_c, 9, 35, 0
1, 76319, Note_on_c, 9, 38, 0
1, 76320, Note_on_c, 9, 41, 116
1, 76320, Note_on_c, 9, 38, 125
1, 76320, Note_on_c, 9, 42, 51
1, 76330, Note_on_c, 9, 42, 0
1, 76559, Note_on_c, 9, 41, 0
1, 76559, Note_on_c, 9, 38, 0
1, 76560, Note_on_c, 9, 42, 67
1, 76564, Note_on_c, 9, 42, 0
1, 76680, Note_on_c, 9, 42, 39
1, 76684, Note_on_c, 9, 42, 0
1, 76800, Note_on_c, 9, 42, 61
1, 76800, Note_on_c, 9, 35, 100
1, 76804, Note_on_c, 9, 42, 0
1, 76920, Note_on_c, 9, 42, 33
1, 76924, Note_on_c, 9, 42, 0
1, 77039, Note_on_c, 9, 35, 0
1, 77040, Note_on_c, 9, 42, 67
1, 77040, Note_on_c, 9, 35, 100
1, 77049, Note_on_c, 9, 42, 0
1, 77265, Note_on_c, 9, 38, 116
1, 77265, Note_on_c, 9, 40, 85
1, 77265, Note_on_c, 9, 27, 116
1, 77265, Note_on_c, 9, 28, 124
1, 77265, Note_on_c, 9, 42, 49
1, 77265, Note_on_c, 9, 42, 0
1, 77265, Note_on_c, 9, 55, 51
1, 77274, Note_on_c, 9, 55, 0
1, 77279, Note_on_c, 9, 35, 0
1, 77280, Note_on_c, 9, 36, 116
1, 77504, Note_on_c, 9, 38, 0
1, 77504, Note_on_c, 9, 40, 0
1, 77504, Note_on_c, 9, 27, 0
1, 77504, Note_on_c, 9, 28, 0
1, 77520, Note_on_c, 9, 42, 71
1, 77524, Note_on_c, 9, 42, 0
1, 77640, Note_on_c, 9, 42, 39
1, 77644, Note_on_c, 9, 42, 0
1, 77759, Note_on_c, 9, 36, 0
1, 77760, Note_on_c, 9, 42, 69
1, 77760, Note_on_c, 9, 35, 100
1, 77770, Note_on_c, 9, 42, 0
1, 77999, Note_on_c, 9, 35, 0
1, 78000, Note_on_c, 9, 42, 55
1, 78000, Note_on_c, 9, 35, 104
1, 78009, Note_on_c, 9, 42, 0
1, 78225, Note_on_c, 9, 38, 126
1, 78225, Note_on_c, 9, 40, 87
1, 78239, Note_on_c, 9, 35, 0
1, 78240, Note_on_c, 9, 42, 74
1, 78240, Note_on_c, 9, 42, 0
1, 78254, Note_on_c, 9, 38, 0
1, 78254, Note_on_c, 9, 40, 0
1, 78255, Note_on_c, 9, 41, 110
1, 78314, Note_on_c, 9, 41, 0
1, 78480, Note_on_c, 9, 46, 65
1, 78480, Note_on_c, 9, 49, 62
1, 78480, Note_on_c, 9, 52, 59
1, 78480, Note_on_c, 9, 35, 103
1, 78490, Note_on_c, 9, 46, 0
1, 78490, Note_on_c, 9, 49, 0
1, 78490, Note_on_c, 9, 52, 0
1, 78719, Note_on_c, 9, 35, 0
1, 78720, Note_on_c, 9, 42, 57
1, 78730, Note_on_c, 9, 42, 0
1, 78960, Note_on_c, 9, 42, 61
1, 78970, Note_on_c, 9, 42, 0
1, 79200, Note_on_c, 9, 38, 126
1, 79200, Note_on_c, 9, 40, 87
1, 79200, Note_on_c, 9, 42, 72
1, 79210, Note_on_c, 9, 42, 0
1, 79439, Note_on_c, 9, 38, 0
1, 79439, Note_on_c, 9, 40, 0
1, 79440, Note_on_c, 9, 42, 72
1, 79444, Note_on_c, 9, 42, 0
1, 79560, Note_on_c, 9, 42, 41
1, 79564, Note_on_c, 9, 42, 0
1, 79680, Note_on_c, 9, 42, 71
1, 79680, Note_on_c, 9, 35, 98
1, 79690, Note_on_c, 9, 42, 0
1, 79919, Note_on_c, 9, 35, 0
1, 79920, Note_on_c, 9, 42, 72
1, 79920, Note_on_c, 9, 35, 102
1, 79927, Note_on_c, 9, 42, 0
1, 80130, Note_on_c, 9, 38, 125
1, 80130, Note_on_c, 9, 40, 86
1, 80130, Note_on_c, 9, 42, 35
1, 80140, Note_on_c, 9, 42, 0
1, 80159, Note_on_c, 9, 35, 0
1, 80249, Note_on_c, 9, 38, 0
1, 80249, Note_on_c, 9, 40, 0
1, 80400, Note_on_c, 9, 42, 63
1, 80404, Note_on_c, 9, 42, 0
1, 80520, Note_on_c, 9, 42, 41
1, 80524, Note_on_c, 9, 42, 0
1, 80640, Note_on_c, 9, 42, 72
1, 80640, Note_on_c, 9, 35, 104
1, 80650, Note_on_c, 9, 42, 0
1, 80879, Note_on_c, 9, 35, 0
1, 80880, Note_on_c, 9, 42, 72
1, 80880, Note_on_c, 9, 35, 103
1, 80889, Note_on_c, 9, 42, 0
1, 81105, Note_on_c, 9, 42, 43
1, 81105, Note_on_c, 9, 42, 0
1, 81119, Note_on_c, 9, 35, 0
1, 81120, Note_on_c, 9, 38, 124
1, 81120, Note_on_c, 9, 40, 85
1, 81359, Note_on_c, 9, 38, 0
1, 81359, Note_on_c, 9, 40, 0
1, 81360, Note_on_c, 9, 42, 65
1, 81364, Note_on_c, 9, 42, 0
1, 81480, Note_on_c, 9, 42, 41
1, 81484, Note_on_c, 9, 42, 0
1, 81600, Note_on_c, 9, 42, 67
1, 81600, Note_on_c, 9, 35, 104
1, 81604, Note_on_c, 9, 42, 0
1, 81720, Note_on_c, 9, 42, 41
1, 81724, Note_on_c, 9, 42, 0
1, 81839, Note_on_c, 9, 35, 0
1, 81840, Note_on_c, 9, 42, 73
1, 81840, Note_on_c, 9, 35, 104
1, 81850, Note_on_c, 9, 42, 0
1, 82079, Note_on_c, 9, 35, 0
1, 82080, Note_on_c, 9, 38, 125
1, 82080, Note_on_c, 9, 40, 86
1, 82080, Note_on_c, 9, 42, 57
1, 82090, Note_on_c, 9, 42, 0
1, 82319, Note_on_c, 9, 38, 0
1, 82319, Note_on_c, 9, 40, 0
1, 82320, Note_on_c, 9, 46, 67
1, 82320, Note_on_c, 9, 35, 105
1, 82330, Note_on_c, 9, 46, 0
1, 82559, Note_on_c, 9, 35, 0
1, 82560, Note_on_c, 9, 42, 59
1, 82570, Note_on_c, 9, 42, 0
1, 82800, Note_on_c, 9, 42, 72
1, 82810, Note_on_c, 9, 42, 0
1, 83040, Note_on_c, 9, 38, 127
1, 83040, Note_on_c, 9, 40, 88
1, 83040, Note_on_c, 9, 42, 73
1, 83044, Note_on_c, 9, 42, 0
1, 83159, Note_on_c, 9, 38, 0
1, 83159, Note_on_c, 9, 40, 0
1, 83160, Note_on_c, 9, 42, 37
1, 83164, Note_on_c, 9, 42, 0
1, 83280, Note_on_c, 9, 42, 63
1, 83284, Note_on_c, 9, 42, 0
1, 83400, Note_on_c, 9, 42, 37
1, 83404, Note_on_c, 9, 42, 0
1, 83520, Note_on_c, 9, 42, 71
1, 83520, Note_on_c, 9, 35, 104
1, 83530, Note_on_c, 9, 42, 0
1, 83759, Note_on_c, 9, 35, 0
1, 83760, Note_on_c, 9, 42, 69
1, 83760, Note_on_c, 9, 35, 104
1, 83770, Note_on_c, 9, 42, 0
1, 83999, Note_on_c, 9, 35, 0
1, 84000, Note_on_c, 9, 38, 126
1, 84000, Note_on_c, 9, 40, 87
1, 84239, Note_on_c, 9, 38, 0
1, 84239, Note_on_c, 9, 40, 0
1, 84240, Note_on_c, 9, 42, 74
1, 84244, Note_on_c, 9, 42, 0
1, 84360, Note_on_c, 9, 42, 43
1, 84364, Note_on_c, 9, 42, 0
1, 84480, Note_on_c, 9, 42, 67
1, 84480, Note_on_c, 9, 35, 102
1, 84490, Note_on_c, 9, 42, 0
1, 84719, Note_on_c, 9, 35, 0
1, 84720, Note_on_c, 9, 38, 110
1, 84720, Note_on_c, 9, 27, 106
1, 84720, Note_on_c, 9, 28, 118
1, 84720, Note_on_c, 9, 42, 65
1, 84720, Note_on_c, 9, 55, 51
1, 84720, Note_on_c, 9, 35, 104
1, 84722, Note_on_c, 9, 42, 0
1, 84722, Note_on_c, 9, 55, 0
1, 84779, Note_on_c, 9, 38, 0
1, 84779, Note_on_c, 9, 27, 0
1, 84779, Note_on_c, 9, 28, 0
1, 84810, Note_on_c, 9, 38, 35
1, 84810, Note_on_c, 9, 27, 51
1, 84810, Note_on_c, 9, 28, 112
1, 84810, Note_on_c, 9, 55, 51
1, 84815, Note_on_c, 9, 55, 0
1, 84929, Note_on_c, 9, 38, 0
1, 84929, Note_on_c, 9, 27, 0
1, 84929, Note_on_c, 9, 28, 0
1, 84959, Note_on_c, 9, 35, 0
1, 84960, Note_on_c, 9, 38, 125
1, 84960, Note_on_c, 9, 40, 86
1, 85019, Note_on_c, 9, 38, 0
1, 85019, Note_on_c, 9, 40, 0
1, 85050, Note_on_c, 9, 38, 104
1, 85050, Note_on_c, 9, 27, 114
1, 85050, Note_on_c, 9, 28, 118
1, 85050, Note_on_c, 9, 55, 51
1, 85054, Note_on_c, 9, 55, 0
1, 85169, Note_on_c, 9, 38, 0
1, 85169, Note_on_c, 9, 27, 0
1, 85169, Note_on_c, 9, 28, 0
1, 85170, Note_on_c, 9, 38, 127
1, 85170, Note_on_c, 9, 27, 124
1, 85170, Note_on_c, 9, 28, 127
1, 85170, Note_on_c, 9, 42, 74
1, 85175, Note_on_c, 9, 42, 0
1, 85289, Note_on_c, 9, 38, 0
1, 85289, Note_on_c, 9, 27, 0
1, 85289, Note_on_c, 9, 28, 0
1, 85320, Note_on_c, 9, 42, 47
1, 85320, Note_on_c, 9, 55, 51
1, 85323, Note_on_c, 9, 42, 0
1, 85323, Note_on_c, 9, 55, 0
1, 85425, Note_on_c, 9, 38, 124
1, 85425, Note_on_c, 9, 27, 118
1, 85425, Note_on_c, 9, 28, 118
1, 85425, Note_on_c, 9, 42, 69
1, 85425, Note_on_c, 9, 42, 0
1, 85425, Note_on_c, 9, 55, 51
1, 85434, Note_on_c, 9, 55, 0
1, 85440, Note_on_c, 9, 35, 106
1, 85664, Note_on_c, 9, 38, 0
1, 85664, Note_on_c, 9, 27, 0
1, 85664, Note_on_c, 9, 28, 0
1, 85679, Note_on_c, 9, 35, 0
1, 85680, Note_on_c, 9, 42, 45
1, 85680, Note_on_c, 9, 35, 108
1, 85687, Note_on_c, 9, 42, 0
1, 85890, Note_on_c, 9, 38, 125
1, 85890, Note_on_c, 9, 40, 86
1, 85890, Note_on_c, 9, 27, 112
1, 85890, Note_on_c, 9, 28, 124
1, 85890, Note_on_c, 9, 29, 82
1, 85890, Note_on_c, 9, 42, 71
1, 85890, Note_on_c, 9, 55, 51
1, 85900, Note_on_c, 9, 42, 0
1, 85900, Note_on_c, 9, 55, 0
1, 85919, Note_on_c, 9, 35, 0
1, 86009, Note_on_c, 9, 38, 0
1, 86009, Note_on_c, 9, 40, 0
1, 86009, Note_on_c, 9, 27, 0
1, 86009, Note_on_c, 9, 28, 0
1, 86009, Note_on_c, 9, 29, 0
1, 86160, Note_on_c, 9, 46, 69
1, 86160, Note_on_c, 9, 49, 66
1, 86160, Note_on_c, 9, 52, 63
1, 86160, Note_on_c, 9, 35, 108
1, 86170, Note_on_c, 9, 46, 0
1, 86170, Note_on_c, 9, 49, 0
1, 86170, Note_on_c, 9, 52, 0
1, 86399, Note_on_c, 9, 35, 0
1, 86400, Note_on_c, 9, 42, 52
1, 86410, Note_on_c, 9, 42, 0
1, 86640, Note_on_c, 9, 42, 67
1, 86650, Note_on_c, 9, 42, 0
1, 86880, Note_on_c, 9, 38, 127
1, 86880, Note_on_c, 9, 40, 88
1, 86880, Note_on_c, 9, 42, 72
1, 86884, Note_on_c, 9, 42, 0
1, 86999, Note_on_c, 9, 38, 0
1, 86999, Note_on_c, 9, 40, 0
1, 87000, Note_on_c, 9, 42, 35
1, 87004, Note_on_c, 9, 42, 0
1, 87120, Note_on_c, 9, 42, 61
1, 87124, Note_on_c, 9, 42, 0
1, 87240, Note_on_c, 9, 42, 35
1, 87244, Note_on_c, 9, 42, 0
1, 87360, Note_on_c, 9, 42, 69
1, 87360, Note_on_c, 9, 35, 108
1, 87370, Note_on_c, 9, 42, 0
1, 87599, Note_on_c, 9, 35, 0
1, 87600, Note_on_c, 9, 42, 72
1, 87600, Note_on_c, 9, 35, 104
1, 87607, Note_on_c, 9, 42, 0
1, 87810, Note_on_c, 9, 38, 127
1, 87810, Note_on_c, 9, 40, 88
1, 87810, Note_on_c, 9, 42, 33
1, 87820, Note_on_c, 9, 42, 0
1, 87839, Note_on_c, 9, 35, 0
1, 87929, Note_on_c, 9, 38, 0
1, 87929, Note_on_c, 9, 40, 0
1, 88080, Note_on_c, 9, 42, 72
1, 88084, Note_on_c, 9, 42, 0
1, 88200, Note_on_c, 9, 42, 39
1, 88204, Note_on_c, 9, 42, 0
1, 88320, Note_on_c, 9, 42, 73
1, 88320, Note_on_c, 9, 35, 104
1, 88330, Note_on_c, 9, 42, 0
1, 88559, Note_on_c, 9, 35, 0
1, 88560, Note_on_c, 9, 42, 74
1, 88560, Note_on_c, 9, 35, 108
1, 88569, Note_on_c, 9, 42, 0
1, 88785, Note_on_c, 9, 42, 37
1, 88785, Note_on_c, 9, 42, 0
1, 88799, Note_on_c, 9, 35, 0
1, 88800, Note_on_c, 9, 38, 125
1, 88800, Note_on_c, 9, 40, 86
1, 89039, Note_on_c, 9, 38, 0
1, 89039, Note_on_c, 9, 40, 0
1, 89040, Note_on_c, 9, 42, 72
1, 89044, Note_on_c, 9, 42, 0
1, 89160, Note_on_c, 9, 42, 39
1, 89164, Note_on_c, 9, 42, 0
1, 89280, Note_on_c, 9, 42, 73
1, 89280, Note_on_c, 9, 35, 106
1, 89284, Note_on_c, 9, 42, 0
1, 89400, Note_on_c, 9, 42, 39
1, 89404, Note_on_c, 9, 42, 0
1, 89519, Note_on_c, 9, 35, 0
1, 89520, Note_on_c, 9, 42, 72
1, 89520, Note_on_c, 9, 35, 106
1, 89529, Note_on_c, 9, 42, 0
1, 89745, Note_on_c, 9, 42, 51
1, 89745, Note_on_c, 9, 42, 0
1, 89759, Note_on_c, 9, 35, 0
1, 89760, Note_on_c, 9, 38, 126
1, 89760, Note_on_c, 9, 40, 87
1, 89999, Note_on_c, 9, 38, 0
1, 89999, Note_on_c, 9, 40, 0
1, 90000, Note_on_c, 9, 46, 61
1, 90000, Note_on_c, 9, 35, 108
1, 90010, Note_on_c, 9, 46, 0
1, 90239, Note_on_c, 9, 35, 0
1, 90240, Note_on_c, 9, 42, 58
1, 90250, Note_on_c, 9, 42, 0
1, 90480, Note_on_c, 9, 42, 75
1, 90487, Note_on_c, 9, 42, 0
1, 90690, Note_on_c, 9, 38, 126
1, 90690, Note_on_c, 9, 40, 87
1, 90690, Note_on_c, 9, 42, 69
1, 90695, Note_on_c, 9, 42, 0
1, 90809, Note_on_c, 9, 38, 0
1, 90809, Note_on_c, 9, 40, 0
1, 90840, Note_on_c, 9, 42, 35
1, 90844, Note_on_c, 9, 42, 0
1, 90960, Note_on_c, 9, 42, 67
1, 90964, Note_on_c, 9, 42, 0
1, 91080, Note_on_c, 9, 42, 39
1, 91084, Note_on_c, 9, 42, 0
1, 91200, Note_on_c, 9, 42, 65
1, 91200, Note_on_c, 9, 35, 106
1, 91210, Note_on_c, 9, 42, 0
1, 91439, Note_on_c, 9, 35, 0
1, 91440, Note_on_c, 9, 42, 73
1, 91440, Note_on_c, 9, 35, 106
1, 91450, Note_on_c, 9, 42, 0
1, 91679, Note_on_c, 9, 35, 0
1, 91680, Note_on_c, 9, 38, 125
1, 91680, Note_on_c, 9, 40, 86
1, 91919, Note_on_c, 9, 38, 0
1, 91919, Note_on_c, 9, 40, 0
1, 91920, Note_on_c, 9, 42, 67
1, 91924, Note_on_c, 9, 42, 0
1, 92040, Note_on_c, 9, 42, 41
1, 92044, Note_on_c, 9, 42, 0
1, 92160, Note_on_c, 9, 42, 69
1, 92160, Note_on_c, 9, 35, 107
1, 92170, Note_on_c, 9, 42, 0
1, 92399, Note_on_c, 9, 35, 0
1, 92400, Note_on_c, 9, 42, 69
1, 92400, Note_on_c, 9, 35, 108
1, 92410, Note_on_c, 9, 42, 0
1, 92639, Note_on_c, 9, 35, 0
1, 92640, Note_on_c, 9, 38, 126
1, 92640, Note_on_c, 9, 40, 87
1, 92879, Note_on_c, 9, 38, 0
1, 92879, Note_on_c, 9, 40, 0
1, 92880, Note_on_c, 9, 42, 72
1, 92884, Note_on_c, 9, 42, 0
1, 93000, Note_on_c, 9, 42, 39
1, 93004, Note_on_c, 9, 42, 0
1, 93120, Note_on_c, 9, 42, 69
1, 93120, Note_on_c, 9, 35, 108
1, 93124, Note_on_c, 9, 42, 0
1, 93240, Note_on_c, 9, 42, 16
1, 93244, Note_on_c, 9, 42, 0
1, 93359, Note_on_c, 9, 35, 0
1, 93360, Note_on_c, 9, 42, 69
1, 93360, Note_on_c, 9, 35, 106
1, 93369, Note_on_c, 9, 42, 0
1, 93585, Note_on_c, 9, 42, 47
1, 93585, Note_on_c, 9, 42, 0
1, 93599, Note_on_c, 9, 35, 0
1, 93600, Note_on_c, 9, 38, 126
1, 93600, Note_on_c, 9, 40, 87
1, 93839, Note_on_c, 9, 38, 0
1, 93839, Note_on_c, 9, 40, 0
1, 93840, Note_on_c, 9, 46, 69
1, 93840, Note_on_c, 9, 35, 108
1, 93850, Note_on_c, 9, 46, 0
1, 94079, Note_on_c, 9, 35, 0
1, 94080, Note_on_c, 9, 42, 57
1, 94090, Note_on_c, 9, 42, 0
1, 94320, Note_on_c, 9, 42, 69
1, 94327, Note_on_c, 9, 42, 0
1, 94530, Note_on_c, 9, 38, 125
1, 94530, Note_on_c, 9, 40, 86
1, 94530, Note_on_c, 9, 42, 74
1, 94535, Note_on_c, 9, 42, 0
1, 94649, Note_on_c, 9, 38, 0
1, 94649, Note_on_c, 9, 40, 0
1, 94680, Note_on_c, 9, 42, 28
1, 94684, Note_on_c, 9, 42, 0
1, 94800, Note_on_c, 9, 42, 61
1, 94804, Note_on_c, 9, 42, 0
1, 94920, Note_on_c, 9, 42, 24
1, 94924, Note_on_c, 9, 42, 0
1, 95040, Note_on_c, 9, 42, 69
1, 95040, Note_on_c, 9, 35, 98
1, 95050, Note_on_c, 9, 42, 0
1, 95279, Note_on_c, 9, 35, 0
1, 95280, Note_on_c, 9, 42, 69
1, 95280, Note_on_c, 9, 35, 106
1, 95289, Note_on_c, 9, 42, 0
1, 95505, Note_on_c, 9, 42, 74
1, 95505, Note_on_c, 9, 42, 0
1, 95519, Note_on_c, 9, 35, 0
1, 95520, Note_on_c, 9, 38, 124
1, 95520, Note_on_c, 9, 40, 85
1, 95639, Note_on_c, 9, 38, 0
1, 95639, Note_on_c, 9, 40, 0
1, 95640, Note_on_c, 9, 42, 41
1, 95644, Note_on_c, 9, 42, 0
1, 95760, Note_on_c, 9, 42, 65
1, 95764, Note_on_c, 9, 42, 0
1, 95880, Note_on_c, 9, 42, 76
1, 95884, Note_on_c, 9, 42, 0
1, 96000, Note_on_c, 9, 42, 72
1, 96000, Note_on_c, 9, 35, 104
1, 96010, Note_on_c, 9, 42, 0
1, 96239, Note_on_c, 9, 35, 0
1, 96240, Note_on_c, 9, 42, 72
1, 96240, Note_on_c, 9, 35, 105
1, 96244, Note_on_c, 9, 42, 0
1, 96360, Note_on_c, 9, 42, 37
1, 96364, Note_on_c, 9, 42, 0
1, 96479, Note_on_c, 9, 35, 0
1, 96480, Note_on_c, 9, 38, 124
1, 96480, Note_on_c, 9, 40, 85
1, 96480, Note_on_c, 9, 42, 73
1, 96490, Note_on_c, 9, 42, 0
1, 96719, Note_on_c, 9, 38, 0
1, 96719, Note_on_c, 9, 40, 0
1, 96720, Note_on_c, 9, 42, 65
1, 96724, Note_on_c, 9, 42, 0
1, 96840, Note_on_c, 9, 42, 39
1, 96844, Note_on_c, 9, 42, 0
1, 96960, Note_on_c, 9, 42, 69
1, 96960, Note_on_c, 9, 35, 104
1, 96970, Note_on_c, 9, 42, 0
1, 97199, Note_on_c, 9, 35, 0
1, 97200, Note_on_c, 9, 42, 72
1, 97200, Note_on_c, 9, 35, 103
1, 97209, Note_on_c, 9, 42, 0
1, 97425, Note_on_c, 9, 42, 73
1, 97425, Note_on_c, 9, 42, 0
1, 97439, Note_on_c, 9, 35, 0
1, 97440, Note_on_c, 9, 38, 125
1, 97440, Note_on_c, 9, 40, 86
1, 97559, Note_on_c, 9, 38, 0
1, 97559, Note_on_c, 9, 40, 0
1, 97560, Note_on_c, 9, 42, 39
1, 97564, Note_on_c, 9, 42, 0
1, 97680, Note_on_c, 9, 46, 63
1, 97680, Note_on_c, 9, 35, 106
1, 97690, Note_on_c, 9, 46, 0
1, 97919, Note_on_c, 9, 35, 0
1, 97920, Note_on_c, 9, 42, 58
1, 97930, Note_on_c, 9, 42, 0
1, 98160, Note_on_c, 9, 42, 65
1, 98164, Note_on_c, 9, 42, 0
1, 98280, Note_on_c, 9, 42, 41
1, 98283, Note_on_c, 9, 42, 0
1, 98385, Note_on_c, 9, 42, 65
1, 98385, Note_on_c, 9, 42, 0
1, 98400, Note_on_c, 9, 38, 126
1, 98400, Note_on_c, 9, 40, 87
1, 98639, Note_on_c, 9, 38, 0
1, 98639, Note_on_c, 9, 40, 0
1, 98640, Note_on_c, 9, 42, 69
1, 98644, Note_on_c, 9, 42, 0
1, 98760, Note_on_c, 9, 42, 37
1, 98764, Note_on_c, 9, 42, 0
1, 98880, Note_on_c, 9, 42, 67
1, 98880, Note_on_c, 9, 35, 102
1, 98890, Note_on_c, 9, 42, 0
1, 99119, Note_on_c, 9, 35, 0
1, 99120, Note_on_c, 9, 42, 65
1, 99120, Note_on_c, 9, 35, 105
1, 99130, Note_on_c, 9, 42, 0
1, 99359, Note_on_c, 9, 35, 0
1, 99360, Note_on_c, 9, 38, 124
1, 99360, Note_on_c, 9, 40, 85
1, 99599, Note_on_c, 9, 38, 0
1, 99599, Note_on_c, 9, 40, 0
1, 99600, Note_on_c, 9, 42, 73
1, 99604, Note_on_c, 9, 42, 0
1, 99720, Note_on_c, 9, 42, 31
1, 99724, Note_on_c, 9, 42, 0
1, 99840, Note_on_c, 9, 42, 65
1, 99840, Note_on_c, 9, 35, 107
1, 99850, Note_on_c, 9, 42, 0
1, 100079, Note_on_c, 9, 35, 0
1, 100080, Note_on_c, 9, 42, 69
1, 100080, Note_on_c, 9, 35, 106
1, 100090, Note_on_c, 9, 42, 0
1, 100319, Note_on_c, 9, 35, 0
1, 100320, Note_on_c, 9, 38, 124
1, 100320, Note_on_c, 9, 40, 85
1, 100559, Note_on_c, 9, 38, 0
1, 100559, Note_on_c, 9, 40, 0
1, 100560, Note_on_c, 9, 42, 72
1, 100564, Note_on_c, 9, 42, 0
1, 100680, Note_on_c, 9, 42, 43
1, 100684, Note_on_c, 9, 42, 0
1, 100800, Note_on_c, 9, 42, 72
1, 100800, Note_on_c, 9, 35, 106
1, 100810, Note_on_c, 9, 42, 0
1, 101039, Note_on_c, 9, 35, 0
1, 101040, Note_on_c, 9, 42, 71
1, 101040, Note_on_c, 9, 35, 104
1, 101044, Note_on_c, 9, 42, 0
1, 101160, Note_on_c, 9, 42, 43
1, 101164, Note_on_c, 9, 42, 0
1, 101279, Note_on_c, 9, 35, 0
1, 101280, Note_on_c, 9, 38, 126
1, 101280, Note_on_c, 9, 40, 87
1, 101280, Note_on_c, 9, 42, 71
1, 101290, Note_on_c, 9, 42, 0
1, 101519, Note_on_c, 9, 38, 0
1, 101519, Note_on_c, 9, 40, 0
1, 101520, Note_on_c, 9, 46, 69
1, 101520, Note_on_c, 9, 35, 108
1, 101530, Note_on_c, 9, 46, 0
1, 101759, Note_on_c, 9, 35, 0
1, 101760, Note_on_c, 9, 42, 57
1, 101764, Note_on_c, 9, 42, 0
1, 101880, Note_on_c, 9, 42, 33
1, 101884, Note_on_c, 9, 42, 0
1, 102000, Note_on_c, 9, 42, 63
1, 102004, Note_on_c, 9, 42, 0
1, 102120, Note_on_c, 9, 42, 35
1, 102124, Note_on_c, 9, 42, 0
1, 102240, Note_on_c, 9, 38, 124
1, 102240, Note_on_c, 9, 40, 85
1, 102240, Note_on_c, 9, 42, 55
1, 102250, Note_on_c, 9, 42, 0
1, 102479, Note_on_c, 9, 38, 0
1, 102479, Note_on_c, 9, 40, 0
1, 102480, Note_on_c, 9, 42, 63
1, 102490, Note_on_c, 9, 42, 0
1, 102720, Note_on_c, 9, 35, 107
1, 102959, Note_on_c, 9, 35, 0
1, 102960, Note_on_c, 9, 42, 73
1, 102960, Note_on_c, 9, 35, 105
1, 102969, Note_on_c, 9, 42, 0
1, 103185, Note_on_c, 9, 42, 75
1, 103185, Note_on_c, 9, 42, 0
1, 103199, Note_on_c, 9, 35, 0
1, 103200, Note_on_c, 9, 38, 124
1, 103200, Note_on_c, 9, 40, 85
1, 103319, Note_on_c, 9, 38, 0
1, 103319, Note_on_c, 9, 40, 0
1, 103320, Note_on_c, 9, 42, 35
1, 103324, Note_on_c, 9, 42, 0
1, 103440, Note_on_c, 9, 42, 51
1, 103444, Note_on_c, 9, 42, 0
1, 103560, Note_on_c, 9, 42, 33
1, 103564, Note_on_c, 9, 42, 0
1, 103680, Note_on_c, 9, 42, 67
1, 103680, Note_on_c, 9, 35, 107
1, 103690, Note_on_c, 9, 42, 0
1, 103919, Note_on_c, 9, 35, 0
1, 103920, Note_on_c, 9, 42, 67
1, 103920, Note_on_c, 9, 35, 104
1, 103930, Note_on_c, 9, 42, 0
1, 104159, Note_on_c, 9, 35, 0
1, 104160, Note_on_c, 9, 38, 124
1, 104160, Note_on_c, 9, 40, 85
1, 104160, Note_on_c, 9, 42, 72
1, 104170, Note_on_c, 9, 42, 0
1, 104399, Note_on_c, 9, 38, 0
1, 104399, Note_on_c, 9, 40, 0
1, 104400, Note_on_c, 9, 42, 69
1, 104404, Note_on_c, 9, 42, 0
1, 104520, Note_on_c, 9, 42, 43
1, 104524, Note_on_c, 9, 42, 0
1, 104640, Note_on_c, 9, 42, 72
1, 104640, Note_on_c, 9, 35, 109
1, 104650, Note_on_c, 9, 42, 0
1, 104879, Note_on_c, 9, 35, 0
1, 104880, Note_on_c, 9, 42, 69
1, 104880, Note_on_c, 9, 35, 105
1, 104884, Note_on_c, 9, 42, 0
1, 105000, Note_on_c, 9, 42, 39
1, 105004, Note_on_c, 9, 42, 0
1, 105119, Note_on_c, 9, 35, 0
1, 105120, Note_on_c, 9, 38, 125
1, 105120, Note_on_c, 9, 40, 86
1, 105120, Note_on_c, 9, 42, 69
1, 105130, Note_on_c, 9, 42, 0
1, 105359, Note_on_c, 9, 38, 0
1, 105359, Note_on_c, 9, 40, 0
1, 105360, Note_on_c, 9, 46, 69
1, 105360, Note_on_c, 9, 35, 107
1, 105370, Note_on_c, 9, 46, 0
1, 105599, Note_on_c, 9, 35, 0
1, 105600, Note_on_c, 9, 42, 59
1, 105610, Note_on_c, 9, 42, 0
1, 105840, Note_on_c, 9, 42, 69
1, 105844, Note_on_c, 9, 42, 0
1, 105960, Note_on_c, 9, 42, 37
1, 105964, Note_on_c, 9, 42, 0
1, 106080, Note_on_c, 9, 38, 126
1, 106080, Note_on_c, 9, 40, 87
1, 106080, Note_on_c, 9, 42, 67
1, 106090, Note_on_c, 9, 42, 0
1, 106319, Note_on_c, 9, 38, 0
1, 106319, Note_on_c, 9, 40, 0
1, 106320, Note_on_c, 9, 42, 69
1, 106324, Note_on_c, 9, 42, 0
1, 106440, Note_on_c, 9, 42, 39
1, 106444, Note_on_c, 9, 42, 0
1, 106560, Note_on_c, 9, 42, 72
1, 106560, Note_on_c, 9, 35, 106
1, 106570, Note_on_c, 9, 42, 0
1, 106799, Note_on_c, 9, 35, 0
1, 106800, Note_on_c, 9, 42, 65
1, 106800, Note_on_c, 9, 35, 106
1, 106810, Note_on_c, 9, 42, 0
1, 107039, Note_on_c, 9, 35, 0
1, 107040, Note_on_c, 9, 38, 125
1, 107040, Note_on_c, 9, 40, 86
1, 107040, Note_on_c, 9, 42, 20
1, 107050, Note_on_c, 9, 42, 0
1, 107279, Note_on_c, 9, 38, 0
1, 107279, Note_on_c, 9, 40, 0
1, 107280, Note_on_c, 9, 42, 75
1, 107284, Note_on_c, 9, 42, 0
1, 107400, Note_on_c, 9, 42, 39
1, 107404, Note_on_c, 9, 42, 0
1, 107520, Note_on_c, 9, 42, 73
1, 107520, Note_on_c, 9, 35, 103
1, 107530, Note_on_c, 9, 42, 0
1, 107759, Note_on_c, 9, 35, 0
1, 107760, Note_on_c, 9, 42, 72
1, 107760, Note_on_c, 9, 35, 105
1, 107767, Note_on_c, 9, 42, 0
1, 107970, Note_on_c, 9, 38, 124
1, 107970, Note_on_c, 9, 40, 85
1, 107970, Note_on_c, 9, 42, 39
1, 107980, Note_on_c, 9, 42, 0
1, 107999, Note_on_c, 9, 35, 0
1, 108089, Note_on_c, 9, 38, 0
1, 108089, Note_on_c, 9, 40, 0
1, 108240, Note_on_c, 9, 42, 72
1, 108244, Note_on_c, 9, 42, 0
1, 108360, Note_on_c, 9, 42, 39
1, 108364, Note_on_c, 9, 42, 0
1, 108480, Note_on_c, 9, 42, 75
1, 108480, Note_on_c, 9, 35, 107
1, 108490, Note_on_c, 9, 42, 0
1, 108719, Note_on_c, 9, 35, 0
1, 108720, Note_on_c, 9, 42, 43
1, 108720, Note_on_c, 9, 35, 104
1, 108729, Note_on_c, 9, 42, 0
1, 108945, Note_on_c, 9, 42, 73
1, 108945, Note_on_c, 9, 42, 0
1, 108959, Note_on_c, 9, 35, 0
1, 108960, Note_on_c, 9, 38, 125
1, 108960, Note_on_c, 9, 40, 86
1, 109199, Note_on_c, 9, 38, 0
1, 109199, Note_on_c, 9, 40, 0
1, 109200, Note_on_c, 9, 46, 69
1, 109200, Note_on_c, 9, 49, 74
1, 109200, Note_on_c, 9, 52, 71
1, 109200, Note_on_c, 9, 35, 110
1, 109210, Note_on_c, 9, 46, 0
1, 109210, Note_on_c, 9, 49, 0
1, 109210, Note_on_c, 9, 52, 0
1, 109439, Note_on_c, 9, 35, 0
1, 109440, Note_on_c, 9, 51, 42
1, 109440, Note_on_c, 9, 42, 59
1, 109450, Note_on_c, 9, 51, 0
1, 109450, Note_on_c, 9, 42, 0
1, 109680, Note_on_c, 9, 51, 51
1, 109680, Note_on_c, 9, 42, 75
1, 109687, Note_on_c, 9, 51, 0
1, 109687, Note_on_c, 9, 42, 0
1, 109890, Note_on_c, 9, 38, 125
1, 109890, Note_on_c, 9, 40, 115
1, 109890, Note_on_c, 9, 51, 51
1, 109890, Note_on_c, 9, 42, 74
1, 109895, Note_on_c, 9, 51, 0
1, 109895, Note_on_c, 9, 42, 0
1, 110009, Note_on_c, 9, 38, 0
1, 110009, Note_on_c, 9, 40, 0
1, 110040, Note_on_c, 9, 51, 39
1, 110040, Note_on_c, 9, 42, 33
1, 110044, Note_on_c, 9, 51, 0
1, 110044, Note_on_c, 9, 42, 0
1, 110160, Note_on_c, 9, 51, 49
1, 110160, Note_on_c, 9, 42, 69
1, 110164, Note_on_c, 9, 51, 0
1, 110164, Note_on_c, 9, 42, 0
1, 110280, Note_on_c, 9, 51, 41
1, 110280, Note_on_c, 9, 42, 39
1, 110284, Note_on_c, 9, 51, 0
1, 110284, Note_on_c, 9, 42, 0
1, 110400, Note_on_c, 9, 51, 50
1, 110400, Note_on_c, 9, 42, 73
1, 110400, Note_on_c, 9, 35, 104
1, 110410, Note_on_c, 9, 51, 0
1, 110410, Note_on_c, 9, 42, 0
1, 110639, Note_on_c, 9, 35, 0
1, 110640, Note_on_c, 9, 51, 49
1, 110640, Note_on_c, 9, 42, 67
1, 110640, Note_on_c, 9, 35, 105
1, 110650, Note_on_c, 9, 51, 0
1, 110650, Note_on_c, 9, 42, 0
1, 110879, Note_on_c, 9, 35, 0
1, 110880, Note_on_c, 9, 38, 121
1, 110880, Note_on_c, 9, 40, 111
1, 110880, Note_on_c, 9, 51, 40
1, 110880, Note_on_c, 9, 42, 37
1, 110890, Note_on_c, 9, 51, 0
1, 110890, Note_on_c, 9, 42, 0
1, 111119, Note_on_c, 9, 38, 0
1, 111119, Note_on_c, 9, 40, 0
1, 111120, Note_on_c, 9, 51, 48
1, 111120, Note_on_c, 9, 42, 65
1, 111124, Note_on_c, 9, 51, 0
1, 111124, Note_on_c, 9, 42, 0
1, 111240, Note_on_c, 9, 51, 41
1, 111240, Note_on_c, 9, 42, 39
1, 111244, Note_on_c, 9, 51, 0
1, 111244, Note_on_c, 9, 42, 0
1, 111360, Note_on_c, 9, 51, 50
1, 111360, Note_on_c, 9, 42, 71
1, 111360, Note_on_c, 9, 35, 108
1, 111364, Note_on_c, 9, 51, 0
1, 111364, Note_on_c, 9, 42, 0
1, 111480, Note_on_c, 9, 51, 42
1, 111480, Note_on_c, 9, 42, 43
1, 111484, Note_on_c, 9, 51, 0
1, 111484, Note_on_c, 9, 42, 0
1, 111599, Note_on_c, 9, 35, 0
1, 111600, Note_on_c, 9, 51, 50
1, 111600, Note_on_c, 9, 42, 72
1, 111600, Note_on_c, 9, 35, 107
1, 111609, Note_on_c, 9, 51, 0
1, 111609, Note_on_c, 9, 42, 0
1, 111825, Note_on_c, 9, 51, 42
1, 111825, Note_on_c, 9, 51, 0
1, 111825, Note_on_c, 9, 42, 43
1, 111825, Note_on_c, 9, 42, 0
1, 111839, Note_on_c, 9, 35, 0
1, 111840, Note_on_c, 9, 38, 124
1, 111840, Note_on_c, 9, 40, 114
1, 112079, Note_on_c, 9, 38, 0
1, 112079, Note_on_c, 9, 40, 0
1, 112080, Note_on_c, 9, 51, 47
1, 112080, Note_on_c, 9, 42, 63
1, 112084, Note_on_c, 9, 51, 0
1, 112084, Note_on_c, 9, 42, 0
1, 112200, Note_on_c, 9, 51, 39
1, 112200, Note_on_c, 9, 42, 33
1, 112204, Note_on_c, 9, 51, 0
1, 112204, Note_on_c, 9, 42, 0
1, 112320, Note_on_c, 9, 51, 49
1, 112320, Note_on_c, 9, 42, 67
1, 112320, Note_on_c, 9, 35, 108
1, 112324, Note_on_c, 9, 51, 0
1, 112324, Note_on_c, 9, 42, 0
1, 112440, Note_on_c, 9, 51, 40
1, 112440, Note_on_c, 9, 42, 35
1, 112444, Note_on_c, 9, 51, 0
1, 112444, Note_on_c, 9, 42, 0
1, 112559, Note_on_c, 9, 35, 0
1, 112560, Note_on_c, 9, 51, 50
1, 112560, Note_on_c, 9, 42, 72
1, 112560, Note_on_c, 9, 35, 105
1, 112570, Note_on_c, 9, 51, 0
1, 112570, Note_on_c, 9, 42, 0
1, 112799, Note_on_c, 9, 35, 0
1, 112800, Note_on_c, 9, 38, 125
1, 112800, Note_on_c, 9, 40, 115
1, 112800, Note_on_c, 9, 51, 43
1, 112800, Note_on_c, 9, 42, 47
1, 112810, Note_on_c, 9, 51, 0
1, 112810, Note_on_c, 9, 42, 0
1, 113039, Note_on_c, 9, 38, 0
1, 113039, Note_on_c, 9, 40, 0
1, 113040, Note_on_c, 9, 46, 69
1, 113040, Note_on_c, 9, 51, 43
1, 113040, Note_on_c, 9, 35, 109
1, 113050, Note_on_c, 9, 46, 0
1, 113050, Note_on_c, 9, 51, 0
1, 113279, Note_on_c, 9, 35, 0
1, 113280, Note_on_c, 9, 51, 41
1, 113280, Note_on_c, 9, 42, 57
1, 113290, Note_on_c, 9, 51, 0
1, 113290, Note_on_c, 9, 42, 0
1, 113520, Note_on_c, 9, 51, 50
1, 113520, Note_on_c, 9, 42, 71
1, 113527, Note_on_c, 9, 51, 0
1, 113527, Note_on_c, 9, 42, 0
1, 113730, Note_on_c, 9, 38, 125
1, 113730, Note_on_c, 9, 40, 115
1, 113730, Note_on_c, 9, 51, 50
1, 113730, Note_on_c, 9, 42, 73
1, 113735, Note_on_c, 9, 51, 0
1, 113735, Note_on_c, 9, 42, 0
1, 113849, Note_on_c, 9, 38, 0
1, 113849, Note_on_c, 9, 40, 0
1, 113880, Note_on_c, 9, 51, 40
1, 113880, Note_on_c, 9, 42, 35
1, 113884, Note_on_c, 9, 51, 0
1, 113884, Note_on_c, 9, 42, 0
1, 114000, Note_on_c, 9, 51, 49
1, 114000, Note_on_c, 9, 42, 67
1, 114004, Note_on_c, 9, 51, 0
1, 114004, Note_on_c, 9, 42, 0
1, 114120, Note_on_c, 9, 51, 40
1, 114120, Note_on_c, 9, 42, 35
1, 114124, Note_on_c, 9, 51, 0
1, 114124, Note_on_c, 9, 42, 0
1, 114240, Note_on_c, 9, 51, 50
1, 114240, Note_on_c, 9, 42, 72
1, 114240, Note_on_c, 9, 35, 108
1, 114250, Note_on_c, 9, 51, 0
1, 114250, Note_on_c, 9, 42, 0
1, 114479, Note_on_c, 9, 35, 0
1, 114480, Note_on_c, 9, 51, 51
1, 114480, Note_on_c, 9, 42, 74
1, 114480, Note_on_c, 9, 35, 105
1, 114487, Note_on_c, 9, 51, 0
1, 114487, Note_on_c, 9, 42, 0
1, 114690, Note_on_c, 9, 38, 125
1, 114690, Note_on_c, 9, 40, 115
1, 114690, Note_on_c, 9, 51, 40
1, 114690, Note_on_c, 9, 42, 35
1, 114700, Note_on_c, 9, 51, 0
1, 114700, Note_on_c, 9, 42, 0
1, 114719, Note_on_c, 9, 35, 0
1, 114809, Note_on_c, 9, 38, 0
1, 114809, Note_on_c, 9, 40, 0
1, 114960, Note_on_c, 9, 51, 50
1, 114960, Note_on_c, 9, 42, 71
1, 114964, Note_on_c, 9, 51, 0
1, 114964, Note_on_c, 9, 42, 0
1, 115080, Note_on_c, 9, 51, 42
1, 115080, Note_on_c, 9, 42, 41
1, 115084, Note_on_c, 9, 51, 0
1, 115084, Note_on_c, 9, 42, 0
1, 115200, Note_on_c, 9, 51, 51
1, 115200, Note_on_c, 9, 42, 74
1, 115200, Note_on_c, 9, 35, 106
1, 115210, Note_on_c, 9, 51, 0
1, 115210, Note_on_c, 9, 42, 0
1, 115439, Note_on_c, 9, 35, 0
1, 115440, Note_on_c, 9, 51, 49
1, 115440, Note_on_c, 9, 42, 69
1, 115440, Note_on_c, 9, 35, 106
1, 115450, Note_on_c, 9, 51, 0
1, 115450, Note_on_c, 9, 42, 0
1, 115679, Note_on_c, 9, 35, 0
1, 115680, Note_on_c, 9, 51, 43
1, 115680, Note_on_c, 9, 51, 0
1, 115680, Note_on_c, 9, 42, 45
1, 115680, Note_on_c, 9, 42, 0
1, 115700, Note_on_c, 9, 38, 126
1, 115700, Note_on_c, 9, 40, 116
1, 115739, Note_on_c, 9, 38, 0
1, 115739, Note_on_c, 9, 40, 0
1, 115920, Note_on_c, 9, 51, 49
1, 115920, Note_on_c, 9, 42, 69
1, 115924, Note_on_c, 9, 51, 0
1, 115924, Note_on_c, 9, 42, 0
1, 116040, Note_on_c, 9, 51, 41
1, 116040, Note_on_c, 9, 42, 39
1, 116044, Note_on_c, 9, 51, 0
1, 116044, Note_on_c, 9, 42, 0
1, 116160, Note_on_c, 9, 51, 51
1, 116160, Note_on_c, 9, 42, 74
1, 116160, Note_on_c, 9, 35, 108
1, 116170, Note_on_c, 9, 51, 0
1, 116170, Note_on_c, 9, 42, 0
1, 116399, Note_on_c, 9, 35, 0
1, 116400, Note_on_c, 9, 51, 43
1, 116400, Note_on_c, 9, 42, 47
1, 116400, Note_on_c, 9, 35, 105
1, 116410, Note_on_c, 9, 51, 0
1, 116410, Note_on_c, 9, 42, 0
1, 116639, Note_on_c, 9, 35, 0
1, 116640, Note_on_c, 9, 38, 125
1, 116640, Note_on_c, 9, 40, 115
1, 116640, Note_on_c, 9, 51, 47
1, 116640, Note_on_c, 9, 42, 63
1, 116650, Note_on_c, 9, 51, 0
1, 116650, Note_on_c, 9, 42, 0
1, 116879, Note_on_c, 9, 38, 0
1, 116879, Note_on_c, 9, 40, 0
1, 116880, Note_on_c, 9, 46, 69
1, 116880, Note_on_c, 9, 51, 43
1, 116880, Note_on_c, 9, 49, 58
1, 116880, Note_on_c, 9, 52, 55
1, 116880, Note_on_c, 9, 35, 109
1, 116890, Note_on_c, 9, 46, 0
1, 116890, Note_on_c, 9, 51, 0
1, 116890, Note_on_c, 9, 49, 0
1, 116890, Note_on_c, 9, 52, 0
1, 117119, Note_on_c, 9, 35, 0
1, 117120, Note_on_c, 9, 51, 41
1, 117120, Note_on_c, 9, 42, 57
1, 117130, Note_on_c, 9, 51, 0
1, 117130, Note_on_c, 9, 42, 0
1, 117360, Note_on_c, 9, 51, 50
1, 117360, Note_on_c, 9, 42, 71
1, 117367, Note_on_c, 9, 51, 0
1, 117367, Note_on_c, 9, 42, 0
1, 117570, Note_on_c, 9, 38, 127
1, 117570, Note_on_c, 9, 40, 117
1, 117570, Note_on_c, 9, 51, 51
1, 117570, Note_on_c, 9, 42, 74
1, 117575, Note_on_c, 9, 51, 0
1, 117575, Note_on_c, 9, 42, 0
1, 117689, Note_on_c, 9, 38, 0
1, 117689, Note_on_c, 9, 40, 0
1, 117720, Note_on_c, 9, 51, 41
1, 117720, Note_on_c, 9, 42, 39
1, 117724, Note_on_c, 9, 51, 0
1, 117724, Note_on_c, 9, 42, 0
1, 117840, Note_on_c, 9, 51, 49
1, 117840, Note_on_c, 9, 42, 69
1, 117844, Note_on_c, 9, 51, 0
1, 117844, Note_on_c, 9, 42, 0
1, 117960, Note_on_c, 9, 51, 41
1, 117960, Note_on_c, 9, 42, 39
1, 117964, Note_on_c, 9, 51, 0
1, 117964, Note_on_c, 9, 42, 0
1, 118080, Note_on_c, 9, 51, 50
1, 118080, Note_on_c, 9, 42, 72
1, 118080, Note_on_c, 9, 35, 104
1, 118090, Note_on_c, 9, 51, 0
1, 118090, Note_on_c, 9, 42, 0
1, 118319, Note_on_c, 9, 35, 0
1, 118320, Note_on_c, 9, 51, 50
1, 118320, Note_on_c, 9, 42, 72
1, 118320, Note_on_c, 9, 35, 105
1, 118329, Note_on_c, 9, 51, 0
1, 118329, Note_on_c, 9, 42, 0
1, 118545, Note_on_c, 9, 51, 41
1, 118545, Note_on_c, 9, 51, 0
1, 118545, Note_on_c, 9, 42, 39
1, 118545, Note_on_c, 9, 42, 0
1, 118559, Note_on_c, 9, 35, 0
1, 118560, Note_on_c, 9, 38, 124
1, 118560, Note_on_c, 9, 40, 114
1, 118799, Note_on_c, 9, 38, 0
1, 118799, Note_on_c, 9, 40, 0
1, 118800, Note_on_c, 9, 51, 47
1, 118800, Note_on_c, 9, 42, 61
1, 118804, Note_on_c, 9, 51, 0
1, 118804, Note_on_c, 9, 42, 0
1, 118920, Note_on_c, 9, 51, 41
1, 118920, Note_on_c, 9, 42, 39
1, 118924, Note_on_c, 9, 51, 0
1, 118924, Note_on_c, 9, 42, 0
1, 119040, Note_on_c, 9, 51, 47
1, 119040, Note_on_c, 9, 42, 63
1, 119040, Note_on_c, 9, 35, 108
1, 119044, Note_on_c, 9, 51, 0
1, 119044, Note_on_c, 9, 42, 0
1, 119160, Note_on_c, 9, 51, 41
1, 119160, Note_on_c, 9, 42, 39
1, 119164, Note_on_c, 9, 51, 0
1, 119164, Note_on_c, 9, 42, 0
1, 119279, Note_on_c, 9, 35, 0
1, 119280, Note_on_c, 9, 51, 50
1, 119280, Note_on_c, 9, 42, 71
1, 119280, Note_on_c, 9, 35, 106
1, 119290, Note_on_c, 9, 51, 0
1, 119290, Note_on_c, 9, 42, 0
1, 119519, Note_on_c, 9, 35, 0
1, 119520, Note_on_c, 9, 38, 126
1, 119520, Note_on_c, 9, 40, 116
1, 119520, Note_on_c, 9, 51, 41
1, 119520, Note_on_c, 9, 42, 39
1, 119530, Note_on_c, 9, 51, 0
1, 119530, Note_on_c, 9, 42, 0
1, 119759, Note_on_c, 9, 38, 0
1, 119759, Note_on_c, 9, 40, 0
1, 119760, Note_on_c, 9, 51, 49
1, 119760, Note_on_c, 9, 42, 69
1, 119764, Note_on_c, 9, 51, 0
1, 119764, Note_on_c, 9, 42, 0
1, 119880, Note_on_c, 9, 51, 42
1, 119880, Note_on_c, 9, 42, 41
1, 119884, Note_on_c, 9, 51, 0
1, 119884, Note_on_c, 9, 42, 0
1, 120000, Note_on_c, 9, 51, 51
1, 120000, Note_on_c, 9, 42, 76
1, 120000, Note_on_c, 9, 35, 108
1, 120010, Note_on_c, 9, 51, 0
1, 120010, Note_on_c, 9, 42, 0
1, 120239, Note_on_c, 9, 35, 0
1, 120240, Note_on_c, 9, 51, 43
1, 120240, Note_on_c, 9, 42, 45
1, 120240, Note_on_c, 9, 35, 108
1, 120250, Note_on_c, 9, 51, 0
1, 120250, Note_on_c, 9, 42, 0
1, 120479, Note_on_c, 9, 35, 0
1, 120480, Note_on_c, 9, 38, 124
1, 120480, Note_on_c, 9, 40, 114
1, 120480, Note_on_c, 9, 51, 49
1, 120480, Note_on_c, 9, 42, 69
1, 120490, Note_on_c, 9, 51, 0
1, 120490, Note_on_c, 9, 42, 0
1, 120719, Note_on_c, 9, 38, 0
1, 120719, Note_on_c, 9, 40, 0
1, 120720, Note_on_c, 9, 46, 71
1, 120720, Note_on_c, 9, 51, 43
1, 120720, Note_on_c, 9, 49, 66
1, 120720, Note_on_c, 9, 52, 63
1, 120720, Note_on_c, 9, 35, 109
1, 120730, Note_on_c, 9, 46, 0
1, 120730, Note_on_c, 9, 51, 0
1, 120730, Note_on_c, 9, 49, 0
1, 120730, Note_on_c, 9, 52, 0
1, 120959, Note_on_c, 9, 35, 0
1, 120960, Note_on_c, 9, 42, 56
1, 120960, Note_on_c, 9, 42, 0
1, 120975, Note_on_c, 9, 51, 34
1, 120984, Note_on_c, 9, 51, 0
1, 121200, Note_on_c, 9, 51, 47
1, 121200, Note_on_c, 9, 42, 61
1, 121207, Note_on_c, 9, 51, 0
1, 121207, Note_on_c, 9, 42, 0
1, 121410, Note_on_c, 9, 38, 126
1, 121410, Note_on_c, 9, 40, 116
1, 121410, Note_on_c, 9, 51, 51
1, 121410, Note_on_c, 9, 42, 76
1, 121415, Note_on_c, 9, 51, 0
1, 121415, Note_on_c, 9, 42, 0
1, 121529, Note_on_c, 9, 38, 0
1, 121529, Note_on_c, 9, 40, 0
1, 121560, Note_on_c, 9, 51, 41
1, 121560, Note_on_c, 9, 42, 39
1, 121564, Note_on_c, 9, 51, 0
1, 121564, Note_on_c, 9, 42, 0
1, 121680, Note_on_c, 9, 51, 50
1, 121680, Note_on_c, 9, 42, 71
1, 121684, Note_on_c, 9, 51, 0
1, 121684, Note_on_c, 9, 42, 0
1, 121800, Note_on_c, 9, 51, 40
1, 121800, Note_on_c, 9, 42, 35
1, 121804, Note_on_c, 9, 51, 0
1, 121804, Note_on_c, 9, 42, 0
1, 121920, Note_on_c, 9, 51, 50
1, 121920, Note_on_c, 9, 42, 72
1, 121920, Note_on_c, 9, 35, 106
1, 121930, Note_on_c, 9, 51, 0
1, 121930, Note_on_c, 9, 42, 0
1, 122159, Note_on_c, 9, 35, 0
1, 122160, Note_on_c, 9, 51, 50
1, 122160, Note_on_c, 9, 42, 72
1, 122160, Note_on_c, 9, 35, 107
1, 122167, Note_on_c, 9, 51, 0
1, 122167, Note_on_c, 9, 42, 0
1, 122370, Note_on_c, 9, 38, 124
1, 122370, Note_on_c, 9, 40, 114
1, 122370, Note_on_c, 9, 51, 41
1, 122370, Note_on_c, 9, 42, 39
1, 122380, Note_on_c, 9, 51, 0
1, 122380, Note_on_c, 9, 42, 0
1, 122399, Note_on_c, 9, 35, 0
1, 122489, Note_on_c, 9, 38, 0
1, 122489, Note_on_c, 9, 40, 0
1, 122640, Note_on_c, 9, 51, 50
1, 122640, Note_on_c, 9, 42, 72
1, 122644, Note_on_c, 9, 51, 0
1, 122644, Note_on_c, 9, 42, 0
1, 122760, Note_on_c, 9, 51, 41
1, 122760, Note_on_c, 9, 42, 39
1, 122764, Note_on_c, 9, 51, 0
1, 122764, Note_on_c, 9, 42, 0
1, 122880, Note_on_c, 9, 51, 50
1, 122880, Note_on_c, 9, 42, 72
1, 122880, Note_on_c, 9, 35, 107
1, 122890, Note_on_c, 9, 51, 0
1, 122890, Note_on_c, 9, 42, 0
1, 123119, Note_on_c, 9, 35, 0
1, 123120, Note_on_c, 9, 51, 49
1, 123120, Note_on_c, 9, 42, 69
1, 123120, Note_on_c, 9, 35, 106
1, 123129, Note_on_c, 9, 51, 0
1, 123129, Note_on_c, 9, 42, 0
1, 123345, Note_on_c, 9, 51, 42
1, 123345, Note_on_c, 9, 51, 0
1, 123345, Note_on_c, 9, 42, 43
1, 123345, Note_on_c, 9, 42, 0
1, 123359, Note_on_c, 9, 35, 0
1, 123360, Note_on_c, 9, 38, 125
1, 123360, Note_on_c, 9, 40, 115
1, 123599, Note_on_c, 9, 38, 0
1, 123599, Note_on_c, 9, 40, 0
1, 123600, Note_on_c, 9, 51, 49
1, 123600, Note_on_c, 9, 42, 69
1, 123604, Note_on_c, 9, 51, 0
1, 123604, Note_on_c, 9, 42, 0
1, 123720, Note_on_c, 9, 51, 41
1, 123720, Note_on_c, 9, 42, 39
1, 123724, Note_on_c, 9, 51, 0
1, 123724, Note_on_c, 9, 42, 0
1, 123840, Note_on_c, 9, 51, 50
1, 123840, Note_on_c, 9, 42, 73
1, 123840, Note_on_c, 9, 35, 106
1, 123850, Note_on_c, 9, 51, 0
1, 123850, Note_on_c, 9, 42, 0
1, 124079, Note_on_c, 9, 35, 0
1, 124080, Note_on_c, 9, 51, 43
1, 124080, Note_on_c, 9, 42, 45
1, 124080, Note_on_c, 9, 35, 107
1, 124089, Note_on_c, 9, 51, 0
1, 124089, Note_on_c, 9, 42, 0
1, 124305, Note_on_c, 9, 51, 49
1, 124305, Note_on_c, 9, 51, 0
1, 124305, Note_on_c, 9, 42, 67
1, 124305, Note_on_c, 9, 42, 0
1, 124319, Note_on_c, 9, 35, 0
1, 124320, Note_on_c, 9, 38, 126
1, 124320, Note_on_c, 9, 40, 116
1, 124499, Note_on_c, 9, 38, 0
1, 124499, Note_on_c, 9, 40, 0
1, 124545, Note_on_c, 9, 46, 69
1, 124545, Note_on_c, 9, 46, 0
1, 124545, Note_on_c, 9, 51, 43
1, 124545, Note_on_c, 9, 51, 0
1, 124560, Note_on_c, 9, 49, 74
1, 124560, Note_on_c, 9, 52, 71
1, 124560, Note_on_c, 9, 35, 111
1, 124570, Note_on_c, 9, 49, 0
1, 124570, Note_on_c, 9, 52, 0
1, 124799, Note_on_c, 9, 35, 0
1, 124800, Note_on_c, 9, 42, 57
1, 124810, Note_on_c, 9, 42, 0
1, 125040, Note_on_c, 9, 42, 47
1, 125047, Note_on_c, 9, 42, 0
1, 125250, Note_on_c, 9, 38, 126
1, 125250, Note_on_c, 9, 40, 87
1, 125250, Note_on_c, 9, 42, 72
1, 125260, Note_on_c, 9, 42, 0
1, 125369, Note_on_c, 9, 38, 0
1, 125369, Note_on_c, 9, 40, 0
1, 125520, Note_on_c, 9, 42, 69
1, 125524, Note_on_c, 9, 42, 0
1, 125640, Note_on_c, 9, 42, 39
1, 125644, Note_on_c, 9, 42, 0
1, 125760, Note_on_c, 9, 42, 67
1, 125760, Note_on_c, 9, 35, 103
1, 125770, Note_on_c, 9, 42, 0
1, 125999, Note_on_c, 9, 35, 0
1, 126000, Note_on_c, 9, 42, 69
1, 126000, Note_on_c, 9, 35, 105
1, 126007, Note_on_c, 9, 42, 0
1, 126210, Note_on_c, 9, 38, 123
1, 126210, Note_on_c, 9, 40, 84
1, 126210, Note_on_c, 9, 42, 41
1, 126220, Note_on_c, 9, 42, 0
1, 126239, Note_on_c, 9, 35, 0
1, 126329, Note_on_c, 9, 38, 0
1, 126329, Note_on_c, 9, 40, 0
1, 126480, Note_on_c, 9, 42, 69
1, 126484, Note_on_c, 9, 42, 0
1, 126600, Note_on_c, 9, 42, 41
1, 126604, Note_on_c, 9, 42, 0
1, 126720, Note_on_c, 9, 42, 71
1, 126720, Note_on_c, 9, 35, 104
1, 126730, Note_on_c, 9, 42, 0
1, 126959, Note_on_c, 9, 35, 0
1, 126960, Note_on_c, 9, 42, 72
1, 126960, Note_on_c, 9, 35, 104
1, 126964, Note_on_c, 9, 42, 0
1, 127080, Note_on_c, 9, 42, 43
1, 127083, Note_on_c, 9, 42, 0
1, 127185, Note_on_c, 9, 42, 72
1, 127185, Note_on_c, 9, 42, 0
1, 127199, Note_on_c, 9, 35, 0
1, 127200, Note_on_c, 9, 38, 124
1, 127200, Note_on_c, 9, 40, 85
1, 127439, Note_on_c, 9, 38, 0
1, 127439, Note_on_c, 9, 40, 0
1, 127440, Note_on_c, 9, 42, 69
1, 127444, Note_on_c, 9, 42, 0
1, 127560, Note_on_c, 9, 42, 41
1, 127564, Note_on_c, 9, 42, 0
1, 127680, Note_on_c, 9, 42, 73
1, 127680, Note_on_c, 9, 35, 103
1, 127690, Note_on_c, 9, 42, 0
1, 127919, Note_on_c, 9, 35, 0
1, 127920, Note_on_c, 9, 42, 72
1, 127920, Note_on_c, 9, 35, 101
1, 127927, Note_on_c, 9, 42, 0
1, 128130, Note_on_c, 9, 38, 126
1, 128130, Note_on_c, 9, 40, 87
1, 128130, Note_on_c, 9, 42, 43
1, 128140, Note_on_c, 9, 42, 0
1, 128159, Note_on_c, 9, 35, 0
1, 128249, Note_on_c, 9, 38, 0
1, 128249, Note_on_c, 9, 40, 0
1, 128400, Note_on_c, 9, 46, 67
1, 128400, Note_on_c, 9, 35, 108
1, 128410, Note_on_c, 9, 46, 0
1, 128639, Note_on_c, 9, 35, 0
1, 128640, Note_on_c, 9, 42, 63
1, 128650, Note_on_c, 9, 42, 0
1, 128880, Note_on_c, 9, 42, 61
1, 128884, Note_on_c, 9, 42, 0
1, 129000, Note_on_c, 9, 42, 43
1, 129003, Note_on_c, 9, 42, 0
1, 129090, Note_on_c, 9, 38, 125
1, 129090, Note_on_c, 9, 40, 86
1, 129090, Note_on_c, 9, 42, 72
1, 129100, Note_on_c, 9, 42, 0
1, 129209, Note_on_c, 9, 38, 0
1, 129209, Note_on_c, 9, 40, 0
1, 129360, Note_on_c, 9, 42, 67
1, 129369, Note_on_c, 9, 42, 0
1, 129585, Note_on_c, 9, 38, 110
1, 129585, Note_on_c, 9, 27, 108
1, 129585, Note_on_c, 9, 28, 120
1, 129585, Note_on_c, 9, 42, 45
1, 129585, Note_on_c, 9, 42, 0
1, 129585, Note_on_c, 9, 55, 51
1, 129592, Note_on_c, 9, 55, 0
1, 129600, Note_on_c, 9, 35, 101
1, 129600, Note_on_c, 9, 36, 110
1, 129824, Note_on_c, 9, 38, 0
1, 129824, Note_on_c, 9, 27, 0
1, 129824, Note_on_c, 9, 28, 0
1, 129825, Note_on_c, 9, 27, 110
1, 129825, Note_on_c, 9, 42, 69
1, 129825, Note_on_c, 9, 42, 0
1, 129839, Note_on_c, 9, 35, 0
1, 129839, Note_on_c, 9, 36, 0
1, 129839, Note_on_c, 9, 27, 0
1, 129840, Note_on_c, 9, 38, 124
1, 129840, Note_on_c, 9, 27, 110
1, 129840, Note_on_c, 9, 28, 127
1, 129840, Note_on_c, 9, 55, 51
1, 129840, Note_on_c, 9, 35, 105
1, 129843, Note_on_c, 9, 55, 0
1, 129855, Note_on_c, 9, 36, 124
1, 129884, Note_on_c, 9, 38, 0
1, 129884, Note_on_c, 9, 27, 0
1, 129885, Note_on_c, 9, 38, 124
1, 129914, Note_on_c, 9, 36, 0
1, 129959, Note_on_c, 9, 28, 0
1, 129959, Note_on_c, 9, 38, 0
1, 129960, Note_on_c, 9, 42, 37
1, 129963, Note_on_c, 9, 42, 0
1, 130065, Note_on_c, 9, 42, 65
1, 130065, Note_on_c, 9, 42, 0
1, 130079, Note_on_c, 9, 35, 0
1, 130080, Note_on_c, 9, 38, 124
1, 130080, Note_on_c, 9, 40, 85
1, 130319, Note_on_c, 9, 38, 0
1, 130319, Note_on_c, 9, 40, 0
1, 130320, Note_on_c, 9, 42, 72
1, 130330, Note_on_c, 9, 42, 0
1, 130560, Note_on_c, 9, 42, 53
1, 130560, Note_on_c, 9, 35, 103
1, 130570, Note_on_c, 9, 42, 0
1, 130799, Note_on_c, 9, 35, 0
1, 130800, Note_on_c, 9, 42, 67
1, 130800, Note_on_c, 9, 35, 103
1, 130804, Note_on_c, 9, 42, 0
1, 130920, Note_on_c, 9, 42, 31
1, 130923, Note_on_c, 9, 42, 0
1, 131025, Note_on_c, 9, 38, 124
1, 131025, Note_on_c, 9, 40, 85
1, 131025, Note_on_c, 9, 27, 116
1, 131025, Note_on_c, 9, 28, 124
1, 131025, Note_on_c, 9, 42, 72
1, 131025, Note_on_c, 9, 42, 0
1, 131025, Note_on_c, 9, 55, 51
1, 131034, Note_on_c, 9, 55, 0
1, 131039, Note_on_c, 9, 35, 0
1, 131040, Note_on_c, 9, 36, 116
1, 131264, Note_on_c, 9, 38, 0
1, 131264, Note_on_c, 9, 40, 0
1, 131264, Note_on_c, 9, 27, 0
1, 131264, Note_on_c, 9, 28, 0
1, 131280, Note_on_c, 9, 42, 49
1, 131290, Note_on_c, 9, 42, 0
1, 131519, Note_on_c, 9, 36, 0
1, 131520, Note_on_c, 9, 42, 71
1, 131520, Note_on_c, 9, 35, 103
1, 131524, Note_on_c, 9, 42, 0
1, 131640, Note_on_c, 9, 42, 41
1, 131644, Note_on_c, 9, 42, 0
1, 131759, Note_on_c, 9, 35, 0
1, 131760, Note_on_c, 9, 42, 69
1, 131760, Note_on_c, 9, 35, 104
1, 131764, Note_on_c, 9, 42, 0
1, 131880, Note_on_c, 9, 42, 35
1, 131883, Note_on_c, 9, 42, 0
1, 131985, Note_on_c, 9, 42, 75
1, 131985, Note_on_c, 9, 42, 0
1, 131999, Note_on_c, 9, 35, 0
1, 132000, Note_on_c, 9, 38, 125
1, 132000, Note_on_c, 9, 40, 86
1, 132014, Note_on_c, 9, 38, 0
1, 132014, Note_on_c, 9, 40, 0
1, 132015, Note_on_c, 9, 41, 114
1, 132194, Note_on_c, 9, 41, 0
1, 132225, Note_on_c, 9, 46, 71
1, 132225, Note_on_c, 9, 46, 0
1, 132240, Note_on_c, 9, 49, 60
1, 132240, Note_on_c, 9, 52, 57
1, 132240, Note_on_c, 9, 35, 106
1, 132250, Note_on_c, 9, 49, 0
1, 132250, Note_on_c, 9, 52, 0
1, 132479, Note_on_c, 9, 35, 0
1, 132480, Note_on_c, 9, 42, 57
1, 132484, Note_on_c, 9, 42, 0
1, 132600, Note_on_c, 9, 42, 33
1, 132604, Note_on_c, 9, 42, 0
1, 132720, Note_on_c, 9, 42, 41
1, 132724, Note_on_c, 9, 42, 0
1, 132840, Note_on_c, 9, 42, 35
1, 132843, Note_on_c, 9, 42, 0
1, 132930, Note_on_c, 9, 38, 124
1, 132930, Note_on_c, 9, 40, 85
1, 132930, Note_on_c, 9, 42, 75
1, 132940, Note_on_c, 9, 42, 0
1, 133049, Note_on_c, 9, 38, 0
1, 133049, Note_on_c, 9, 40, 0
1, 133200, Note_on_c, 9, 42, 72
1, 133210, Note_on_c, 9, 42, 0
1, 133440, Note_on_c, 9, 42, 71
1, 133440, Note_on_c, 9, 35, 103
1, 133450, Note_on_c, 9, 42, 0
1, 133679, Note_on_c, 9, 35, 0
1, 133680, Note_on_c, 9, 42, 63
1, 133680, Note_on_c, 9, 35, 104
1, 133690, Note_on_c, 9, 42, 0
1, 133919, Note_on_c, 9, 35, 0
1, 133920, Note_on_c, 9, 38, 125
1, 133920, Note_on_c, 9, 40, 86
1, 133920, Note_on_c, 9, 42, 43
1, 133930, Note_on_c, 9, 42, 0
1, 134159, Note_on_c, 9, 38, 0
1, 134159, Note_on_c, 9, 40, 0
1, 134160, Note_on_c, 9, 42, 69
1, 134164, Note_on_c, 9, 42, 0
1, 134280, Note_on_c, 9, 42, 41
1, 134284, Note_on_c, 9, 42, 0
1, 134400, Note_on_c, 9, 42, 73
1, 134400, Note_on_c, 9, 35, 102
1, 134410, Note_on_c, 9, 42, 0
1, 134639, Note_on_c, 9, 35, 0
1, 134640, Note_on_c, 9, 42, 74
1, 134640, Note_on_c, 9, 35, 102
1, 134649, Note_on_c, 9, 42, 0
1, 134865, Note_on_c, 9, 42, 51
1, 134865, Note_on_c, 9, 42, 0
1, 134879, Note_on_c, 9, 35, 0
1, 134880, Note_on_c, 9, 38, 125
1, 134880, Note_on_c, 9, 40, 86
1, 135119, Note_on_c, 9, 38, 0
1, 135119, Note_on_c, 9, 40, 0
1, 135120, Note_on_c, 9, 42, 69
1, 135124, Note_on_c, 9, 42, 0
1, 135240, Note_on_c, 9, 42, 39
1, 135244, Note_on_c, 9, 42, 0
1, 135360, Note_on_c, 9, 42, 69
1, 135360, Note_on_c, 9, 35, 103
1, 135364, Note_on_c, 9, 42, 0
1, 135480, Note_on_c, 9, 42, 43
1, 135484, Note_on_c, 9, 42, 0
1, 135599, Note_on_c, 9, 35, 0
1, 135600, Note_on_c, 9, 42, 73
1, 135600, Note_on_c, 9, 35, 99
1, 135607, Note_on_c, 9, 42, 0
1, 135810, Note_on_c, 9, 38, 127
1, 135810, Note_on_c, 9, 40, 88
1, 135810, Note_on_c, 9, 42, 51
1, 135820, Note_on_c, 9, 42, 0
1, 135839, Note_on_c, 9, 35, 0
1, 135929, Note_on_c, 9, 38, 0
1, 135929, Note_on_c, 9, 40, 0
1, 136080, Note_on_c, 9, 46, 71
1, 136080, Note_on_c, 9, 35, 102
1, 136090, Note_on_c, 9, 46, 0
1, 136319, Note_on_c, 9, 35, 0
1, 136320, Note_on_c, 9, 42, 56
1, 136330, Note_on_c, 9, 42, 0
1, 136560, Note_on_c, 9, 42, 71
1, 136570, Note_on_c, 9, 42, 0
1, 136800, Note_on_c, 9, 38, 126
1, 136800, Note_on_c, 9, 40, 87
1, 136800, Note_on_c, 9, 42, 55
1, 136810, Note_on_c, 9, 42, 0
1, 137039, Note_on_c, 9, 38, 0
1, 137039, Note_on_c, 9, 40, 0
1, 137040, Note_on_c, 9, 42, 67
1, 137044, Note_on_c, 9, 42, 0
1, 137160, Note_on_c, 9, 42, 39
1, 137164, Note_on_c, 9, 42, 0
1, 137280, Note_on_c, 9, 42, 61
1, 137280, Note_on_c, 9, 35, 103
1, 137290, Note_on_c, 9, 42, 0
1, 137519, Note_on_c, 9, 35, 0
1, 137520, Note_on_c, 9, 42, 51
1, 137520, Note_on_c, 9, 35, 103
1, 137530, Note_on_c, 9, 42, 0
1, 137759, Note_on_c, 9, 35, 0
1, 137760, Note_on_c, 9, 38, 125
1, 137760, Note_on_c, 9, 40, 86
1, 137999, Note_on_c, 9, 38, 0
1, 137999, Note_on_c, 9, 40, 0
1, 138000, Note_on_c, 9, 42, 74
1, 138004, Note_on_c, 9, 42, 0
1, 138120, Note_on_c, 9, 42, 49
1, 138124, Note_on_c, 9, 42, 0
1, 138240, Note_on_c, 9, 42, 61
1, 138240, Note_on_c, 9, 35, 100
1, 138244, Note_on_c, 9, 42, 0
1, 138360, Note_on_c, 9, 42, 47
1, 138364, Note_on_c, 9, 42, 0
1, 138479, Note_on_c, 9, 35, 0
1, 138480, Note_on_c, 9, 38, 110
1, 138480, Note_on_c, 9, 27, 106
1, 138480, Note_on_c, 9, 28, 118
1, 138480, Note_on_c, 9, 42, 69
1, 138480, Note_on_c, 9, 55, 51
1, 138480, Note_on_c, 9, 35, 100
1, 138482, Note_on_c, 9, 42, 0
1, 138482, Note_on_c, 9, 55, 0
1, 138539, Note_on_c, 9, 38, 0
1, 138539, Note_on_c, 9, 27, 0
1, 138539, Note_on_c, 9, 28, 0
1, 138570, Note_on_c, 9, 38, 35
1, 138570, Note_on_c, 9, 27, 51
1, 138570, Note_on_c, 9, 28, 112
1, 138570, Note_on_c, 9, 55, 51
1, 138575, Note_on_c, 9, 55, 0
1, 138689, Note_on_c, 9, 38, 0
1, 138689, Note_on_c, 9, 27, 0
1, 138689, Note_on_c, 9, 28, 0
1, 138719, Note_on_c, 9, 35, 0
1, 138720, Note_on_c, 9, 38, 124
1, 138720, Note_on_c, 9, 40, 85
1, 138720, Note_on_c, 9, 42, 57
1, 138722, Note_on_c, 9, 42, 0
1, 138779, Note_on_c, 9, 38, 0
1, 138779, Note_on_c, 9, 40, 0
1, 138810, Note_on_c, 9, 38, 104
1, 138810, Note_on_c, 9, 27, 114
1, 138810, Note_on_c, 9, 28, 118
1, 138810, Note_on_c, 9, 55, 51
1, 138815, Note_on_c, 9, 55, 0
1, 138929, Note_on_c, 9, 38, 0
1, 138929, Note_on_c, 9, 27, 0
1, 138929, Note_on_c, 9, 28, 0
1, 138960, Note_on_c, 9, 38, 127
1, 138960, Note_on_c, 9, 27, 124
1, 138960, Note_on_c, 9, 28, 127
1, 138960, Note_on_c, 9, 42, 67
1, 138962, Note_on_c, 9, 42, 0
1, 139019, Note_on_c, 9, 38, 0
1, 139019, Note_on_c, 9, 27, 0
1, 139019, Note_on_c, 9, 28, 0
1, 139065, Note_on_c, 9, 42, 45
1, 139065, Note_on_c, 9, 42, 0
1, 139080, Note_on_c, 9, 55, 51
1, 139083, Note_on_c, 9, 55, 0
1, 139185, Note_on_c, 9, 38, 124
1, 139185, Note_on_c, 9, 27, 118
1, 139185, Note_on_c, 9, 28, 118
1, 139185, Note_on_c, 9, 42, 72
1, 139185, Note_on_c, 9, 42, 0
1, 139185, Note_on_c, 9, 55, 51
1, 139188, Note_on_c, 9, 55, 0
1, 139200, Note_on_c, 9, 35, 100
1, 139244, Note_on_c, 9, 38, 0
1, 139244, Note_on_c, 9, 27, 0
1, 139244, Note_on_c, 9, 28, 0
1, 139320, Note_on_c, 9, 42, 49
1, 139324, Note_on_c, 9, 42, 0
1, 139439, Note_on_c, 9, 35, 0
1, 139440, Note_on_c, 9, 42, 69
1, 139440, Note_on_c, 9, 35, 104
1, 139449, Note_on_c, 9, 42, 0
1, 139665, Note_on_c, 9, 38, 126
1, 139665, Note_on_c, 9, 40, 87
1, 139679, Note_on_c, 9, 35, 0
1, 139679, Note_on_c, 9, 38, 0
1, 139679, Note_on_c, 9, 40, 0
1, 139680, Note_on_c, 9, 38, 126
1, 139680, Note_on_c, 9, 40, 87
1, 139680, Note_on_c, 9, 27, 112
1, 139680, Note_on_c, 9, 28, 124
1, 139680, Note_on_c, 9, 29, 82
1, 139680, Note_on_c, 9, 42, 47
1, 139680, Note_on_c, 9, 42, 0
1, 139694, Note_on_c, 9, 38, 0
1, 139694, Note_on_c, 9, 40, 0
1, 139694, Note_on_c, 9, 27, 0
1, 139694, Note_on_c, 9, 28, 0
1, 139694, Note_on_c, 9, 29, 0
1, 139695, Note_on_c, 9, 55, 51
1, 139703, Note_on_c, 9, 55, 0
1, 139905, Note_on_c, 9, 46, 71
1, 139905, Note_on_c, 9, 46, 0
1, 139920, Note_on_c, 9, 49, 78
1, 139920, Note_on_c, 9, 52, 75
1, 139920, Note_on_c, 9, 35, 103
1, 139930, Note_on_c, 9, 49, 0
1, 139930, Note_on_c, 9, 52, 0
1, 140159, Note_on_c, 9, 35, 0
1, 140160, Note_on_c, 9, 42, 59
1, 140169, Note_on_c, 9, 42, 0
1, 140385, Note_on_c, 9, 42, 67
1, 140385, Note_on_c, 9, 42, 0
1, 140400, Note_on_c, 9, 32, 73
1, 140519, Note_on_c, 9, 32, 0
1, 140520, Note_on_c, 9, 32, 59
1, 140579, Note_on_c, 9, 32, 0
1, 140625, Note_on_c, 9, 38, 126
1, 140625, Note_on_c, 9, 40, 87
1, 140625, Note_on_c, 9, 32, 65
1, 140625, Note_on_c, 9, 42, 59
1, 140625, Note_on_c, 9, 42, 0
1, 140684, Note_on_c, 9, 38, 0
1, 140684, Note_on_c, 9, 40, 0
1, 140684, Note_on_c, 9, 32, 0
1, 140760, Note_on_c, 9, 32, 57
1, 140819, Note_on_c, 9, 32, 0
1, 140850, Note_on_c, 9, 32, 73
1, 140850, Note_on_c, 9, 42, 63
1, 140855, Note_on_c, 9, 42, 0
1, 140969, Note_on_c, 9, 32, 0
1, 141000, Note_on_c, 9, 32, 65
1, 141000, Note_on_c, 9, 42, 45
1, 141004, Note_on_c, 9, 42, 0
1, 141119, Note_on_c, 9, 32, 0
1, 141120, Note_on_c, 9, 32, 75
1, 141120, Note_on_c, 9, 42, 72
1, 141120, Note_on_c, 9, 35, 98
1, 141130, Note_on_c, 9, 42, 0
1, 141359, Note_on_c, 9, 32, 0
1, 141359, Note_on_c, 9, 35, 0
1, 141360, Note_on_c, 9, 32, 65
1, 141360, Note_on_c, 9, 42, 72
1, 141360, Note_on_c, 9, 35, 102
1, 141369, Note_on_c, 9, 42, 0
1, 141539, Note_on_c, 9, 32, 0
1, 141585, Note_on_c, 9, 38, 125
1, 141585, Note_on_c, 9, 40, 86
1, 141585, Note_on_c, 9, 32, 67
1, 141585, Note_on_c, 9, 42, 51
1, 141585, Note_on_c, 9, 42, 0
1, 141599, Note_on_c, 9, 35, 0
1, 141764, Note_on_c, 9, 38, 0
1, 141764, Note_on_c, 9, 40, 0
1, 141764, Note_on_c, 9, 32, 0
1, 141810, Note_on_c, 9, 46, 80
1, 141810, Note_on_c, 9, 32, 63
1, 141814, Note_on_c, 9, 46, 0
1, 141929, Note_on_c, 9, 32, 0
1, 141930, Note_on_c, 9, 46, 80
1, 141935, Note_on_c, 9, 46, 0
1, 142080, Note_on_c, 9, 42, 74
1, 142080, Note_on_c, 9, 35, 104
1, 142084, Note_on_c, 9, 42, 0
1, 142200, Note_on_c, 9, 42, 45
1, 142203, Note_on_c, 9, 42, 0
1, 142305, Note_on_c, 9, 42, 16
1, 142305, Note_on_c, 9, 42, 0
1, 142319, Note_on_c, 9, 35, 0
1, 142320, Note_on_c, 9, 32, 73
1, 142320, Note_on_c, 9, 35, 103
1, 142439, Note_on_c, 9, 32, 0
1, 142440, Note_on_c, 9, 32, 59
1, 142499, Note_on_c, 9, 32, 0
1, 142545, Note_on_c, 9, 42, 57
1, 142545, Note_on_c, 9, 42, 0
1, 142559, Note_on_c, 9, 35, 0
1, 142560, Note_on_c, 9, 32, 65
1, 142574, Note_on_c, 9, 32, 0
1, 142575, Note_on_c, 9, 38, 124
1, 142575, Note_on_c, 9, 40, 85
1, 142619, Note_on_c, 9, 38, 0
1, 142619, Note_on_c, 9, 40, 0
1, 142680, Note_on_c, 9, 32, 57
1, 142799, Note_on_c, 9, 32, 0
1, 142800, Note_on_c, 9, 32, 67
1, 142800, Note_on_c, 9, 42, 67
1, 142804, Note_on_c, 9, 42, 0
1, 142919, Note_on_c, 9, 32, 0
1, 142920, Note_on_c, 9, 32, 57
1, 142920, Note_on_c, 9, 42, 41
1, 142924, Note_on_c, 9, 42, 0
1, 143039, Note_on_c, 9, 32, 0
1, 143040, Note_on_c, 9, 32, 71
1, 143040, Note_on_c, 9, 42, 65
1, 143040, Note_on_c, 9, 35, 104
1, 143044, Note_on_c, 9, 42, 0
1, 143159, Note_on_c, 9, 32, 0
1, 143160, Note_on_c, 9, 42, 43
1, 143163, Note_on_c, 9, 42, 0
1, 143265, Note_on_c, 9, 42, 16
1, 143265, Note_on_c, 9, 42, 0
1, 143279, Note_on_c, 9, 35, 0
1, 143280, Note_on_c, 9, 32, 65
1, 143280, Note_on_c, 9, 35, 104
1, 143519, Note_on_c, 9, 32, 0
1, 143519, Note_on_c, 9, 35, 0
1, 143520, Note_on_c, 9, 38, 125
1, 143520, Note_on_c, 9, 40, 86
1, 143520, Note_on_c, 9, 32, 63
1, 143520, Note_on_c, 9, 42, 57
1, 143529, Note_on_c, 9, 42, 0
1, 143699, Note_on_c, 9, 38, 0
1, 143699, Note_on_c, 9, 40, 0
1, 143699, Note_on_c, 9, 32, 0
1, 143745, Note_on_c, 9, 46, 69
1, 143745, Note_on_c, 9, 46, 0
1, 143760, Note_on_c, 9, 32, 61
1, 143760, Note_on_c, 9, 35, 105
1, 143999, Note_on_c, 9, 32, 0
1, 143999, Note_on_c, 9, 35, 0
1, 144000, Note_on_c, 9, 42, 57
1, 144007, Note_on_c, 9, 42, 0
1, 144210, Note_on_c, 9, 32, 81
1, 144210, Note_on_c, 9, 42, 69
1, 144215, Note_on_c, 9, 42, 0
1, 144329, Note_on_c, 9, 32, 0
1, 144360, Note_on_c, 9, 32, 65
1, 144479, Note_on_c, 9, 32, 0
1, 144480, Note_on_c, 9, 38, 127
1, 144480, Note_on_c, 9, 40, 88
1, 144480, Note_on_c, 9, 32, 67
1, 144480, Note_on_c, 9, 42, 73
1, 144484, Note_on_c, 9, 42, 0
1, 144599, Note_on_c, 9, 38, 0
1, 144599, Note_on_c, 9, 40, 0
1, 144599, Note_on_c, 9, 32, 0
1, 144600, Note_on_c, 9, 32, 55
1, 144600, Note_on_c, 9, 42, 51
1, 144604, Note_on_c, 9, 42, 0
1, 144719, Note_on_c, 9, 32, 0
1, 144720, Note_on_c, 9, 32, 73
1, 144720, Note_on_c, 9, 42, 69
1, 144722, Note_on_c, 9, 42, 0
1, 144779, Note_on_c, 9, 32, 0
1, 144825, Note_on_c, 9, 42, 41
1, 144825, Note_on_c, 9, 42, 0
1, 144840, Note_on_c, 9, 32, 59
1, 144959, Note_on_c, 9, 32, 0
1, 144960, Note_on_c, 9, 32, 79
1, 144960, Note_on_c, 9, 42, 74
1, 144960, Note_on_c, 9, 35, 104
1, 144970, Note_on_c, 9, 42, 0
1, 145199, Note_on_c, 9, 32, 0
1, 145199, Note_on_c, 9, 35, 0
1, 145200, Note_on_c, 9, 42, 76
1, 145200, Note_on_c, 9, 42, 0
1, 145200, Note_on_c, 9, 35, 104
1, 145215, Note_on_c, 9, 32, 67
1, 145259, Note_on_c, 9, 32, 0
1, 145320, Note_on_c, 9, 42, 51
1, 145323, Note_on_c, 9, 42, 0
1, 145425, Note_on_c, 9, 42, 69
1, 145425, Note_on_c, 9, 42, 0
1, 145439, Note_on_c, 9, 35, 0
1, 145440, Note_on_c, 9, 38, 126
1, 145440, Note_on_c, 9, 40, 87
1, 145440, Note_on_c, 9, 32, 77
1, 145619, Note_on_c, 9, 38, 0
1, 145619, Note_on_c, 9, 40, 0
1, 145619, Note_on_c, 9, 32, 0
1, 145665, Note_on_c, 9, 46, 60
1, 145665, Note_on_c, 9, 46, 0
1, 145665, Note_on_c, 9, 32, 63
1, 145665, Note_on_c, 9, 42, 74
1, 145665, Note_on_c, 9, 42, 0
1, 145680, Note_on_c, 9, 46, 60
1, 145689, Note_on_c, 9, 46, 0
1, 145904, Note_on_c, 9, 32, 0
1, 145905, Note_on_c, 9, 46, 60
1, 145905, Note_on_c, 9, 46, 0
1, 145920, Note_on_c, 9, 42, 84
1, 145927, Note_on_c, 9, 42, 0
1, 146130, Note_on_c, 9, 28, 108
1, 146144, Note_on_c, 9, 28, 0
1, 146145, Note_on_c, 9, 38, 108
1, 146145, Note_on_c, 9, 27, 106
1, 146145, Note_on_c, 9, 28, 108
1, 146159, Note_on_c, 9, 38, 0
1, 146159, Note_on_c, 9, 28, 0
1, 146160, Note_on_c, 9, 38, 108
1, 146160, Note_on_c, 9, 42, 73
1, 146160, Note_on_c, 9, 42, 0
1, 146160, Note_on_c, 9, 36, 108
1, 146174, Note_on_c, 9, 27, 0
1, 146174, Note_on_c, 9, 38, 0
1, 146175, Note_on_c, 9, 55, 51
1, 146183, Note_on_c, 9, 55, 0
1, 146385, Note_on_c, 9, 42, 74
1, 146385, Note_on_c, 9, 42, 0
1, 146399, Note_on_c, 9, 36, 0
1, 146400, Note_on_c, 9, 38, 125
1, 146400, Note_on_c, 9, 40, 86
1, 146519, Note_on_c, 9, 38, 0
1, 146519, Note_on_c, 9, 40, 0
1, 146520, Note_on_c, 9, 42, 47
1, 146524, Note_on_c, 9, 42, 0
1, 146640, Note_on_c, 9, 42, 67
1, 146644, Note_on_c, 9, 42, 0
1, 146760, Note_on_c, 9, 42, 41
1, 146763, Note_on_c, 9, 42, 0
1, 146865, Note_on_c, 9, 38, 108
1, 146865, Note_on_c, 9, 27, 110
1, 146865, Note_on_c, 9, 28, 114
1, 146865, Note_on_c, 9, 42, 75
1, 146865, Note_on_c, 9, 42, 0
1, 146865, Note_on_c, 9, 55, 51
1, 146874, Note_on_c, 9, 55, 0
1, 146880, Note_on_c, 9, 36, 110
1, 147104, Note_on_c, 9, 38, 0
1, 147104, Note_on_c, 9, 27, 0
1, 147104, Note_on_c, 9, 28, 0
1, 147120, Note_on_c, 9, 42, 51
1, 147129, Note_on_c, 9, 42, 0
1, 147345, Note_on_c, 9, 27, 98
1, 147359, Note_on_c, 9, 36, 0
1, 147359, Note_on_c, 9, 27, 0
1, 147360, Note_on_c, 9, 38, 96
1, 147360, Note_on_c, 9, 40, 86
1, 147360, Note_on_c, 9, 27, 98
1, 147360, Note_on_c, 9, 28, 108
1, 147360, Note_on_c, 9, 42, 76
1, 147360, Note_on_c, 9, 42, 0
1, 147360, Note_on_c, 9, 36, 98
1, 147374, Note_on_c, 9, 38, 0
1, 147374, Note_on_c, 9, 40, 0
1, 147374, Note_on_c, 9, 27, 0
1, 147374, Note_on_c, 9, 28, 0
1, 147375, Note_on_c, 9, 55, 51
1, 147376, Note_on_c, 9, 55, 0
1, 147480, Note_on_c, 9, 42, 45
1, 147483, Note_on_c, 9, 42, 0
1, 147585, Note_on_c, 9, 49, 62
1, 147585, Note_on_c, 9, 49, 0
1, 147585, Note_on_c, 9, 52, 59
1, 147585, Note_on_c, 9, 52, 0
1, 147599, Note_on_c, 9, 36, 0
1, 147600, Note_on_c, 9, 46, 71
1, 147600, Note_on_c, 9, 35, 108
1, 147610, Note_on_c, 9, 46, 0
1, 147839, Note_on_c, 9, 35, 0
1, 147840, Note_on_c, 9, 42, 61
1, 147850, Note_on_c, 9, 42, 0
1, 148080, Note_on_c, 9, 42, 69
1, 148090, Note_on_c, 9, 42, 0
1, 148320, Note_on_c, 9, 38, 127
1, 148320, Note_on_c, 9, 40, 88
1, 148320, Note_on_c, 9, 42, 76
1, 148330, Note_on_c, 9, 42, 0
1, 148559, Note_on_c, 9, 38, 0
1, 148559, Note_on_c, 9, 40, 0
1, 148560, Note_on_c, 9, 42, 72
1, 148564, Note_on_c, 9, 42, 0
1, 148680, Note_on_c, 9, 42, 43
1, 148684, Note_on_c, 9, 42, 0
1, 148800, Note_on_c, 9, 42, 74
1, 148800, Note_on_c, 9, 35, 108
1, 148804, Note_on_c, 9, 42, 0
1, 148920, Note_on_c, 9, 42, 41
1, 148924, Note_on_c, 9, 42, 0
1, 149039, Note_on_c, 9, 35, 0
1, 149040, Note_on_c, 9, 42, 65
1, 149040, Note_on_c, 9, 35, 104
1, 149044, Note_on_c, 9, 42, 0
1, 149160, Note_on_c, 9, 42, 49
1, 149164, Note_on_c, 9, 42, 0
1, 149279, Note_on_c, 9, 35, 0
1, 149280, Note_on_c, 9, 38, 127
1, 149280, Note_on_c, 9, 40, 88
1, 149399, Note_on_c, 9, 38, 0
1, 149399, Note_on_c, 9, 40, 0
1, 149400, Note_on_c, 9, 42, 74
1, 149404, Note_on_c, 9, 42, 0
1, 149520, Note_on_c, 9, 42, 47
1, 149530, Note_on_c, 9, 42, 0
1, 149760, Note_on_c, 9, 35, 104
1, 149999, Note_on_c, 9, 35, 0
1, 150000, Note_on_c, 9, 42, 72
1, 150000, Note_on_c, 9, 35, 108
1, 150009, Note_on_c, 9, 42, 0
1, 150225, Note_on_c, 9, 42, 61
1, 150225, Note_on_c, 9, 42, 0
1, 150239, Note_on_c, 9, 35, 0
1, 150240, Note_on_c, 9, 38, 125
1, 150240, Note_on_c, 9, 40, 86
1, 150479, Note_on_c, 9, 38, 0
1, 150479, Note_on_c, 9, 40, 0
1, 150480, Note_on_c, 9, 42, 67
1, 150484, Note_on_c, 9, 42, 0
1, 150600, Note_on_c, 9, 42, 41
1, 150604, Note_on_c, 9, 42, 0
1, 150720, Note_on_c, 9, 42, 69
1, 150720, Note_on_c, 9, 35, 106
1, 150730, Note_on_c, 9, 42, 0
1, 150959, Note_on_c, 9, 35, 0
1, 150960, Note_on_c, 9, 42, 72
1, 150960, Note_on_c, 9, 35, 106
1, 150970, Note_on_c, 9, 42, 0
1, 151199, Note_on_c, 9, 35, 0
1, 151200, Note_on_c, 9, 38, 126
1, 151200, Note_on_c, 9, 40, 87
1, 151200, Note_on_c, 9, 42, 53
1, 151210, Note_on_c, 9, 42, 0
1, 151439, Note_on_c, 9, 38, 0
1, 151439, Note_on_c, 9, 40, 0
1, 151440, Note_on_c, 9, 46, 67
1, 151440, Note_on_c, 9, 35, 108
1, 151450, Note_on_c, 9, 46, 0
1, 151679, Note_on_c, 9, 35, 0
1, 151680, Note_on_c, 9, 42, 57
1, 151684, Note_on_c, 9, 42, 0
1, 151800, Note_on_c, 9, 42, 37
1, 151804, Note_on_c, 9, 42, 0
1, 151920, Note_on_c, 9, 42, 74
1, 151927, Note_on_c, 9, 42, 0
1, 152130, Note_on_c, 9, 38, 126
1, 152130, Note_on_c, 9, 40, 87
1, 152130, Note_on_c, 9, 42, 59
1, 152140, Note_on_c, 9, 42, 0
1, 152249, Note_on_c, 9, 38, 0
1, 152249, Note_on_c, 9, 40, 0
1, 152400, Note_on_c, 9, 42, 57
1, 152404, Note_on_c, 9, 42, 0
1, 152520, Note_on_c, 9, 42, 45
1, 152524, Note_on_c, 9, 42, 0
1, 152640, Note_on_c, 9, 42, 65
1, 152640, Note_on_c, 9, 35, 106
1, 152650, Note_on_c, 9, 42, 0
1, 152879, Note_on_c, 9, 35, 0
1, 152880, Note_on_c, 9, 42, 72
1, 152880, Note_on_c, 9, 35, 106
1, 152890, Note_on_c, 9, 42, 0
1, 153119, Note_on_c, 9, 35, 0
1, 153120, Note_on_c, 9, 38, 125
1, 153120, Note_on_c, 9, 40, 86
1, 153120, Note_on_c, 9, 42, 57
1, 153130, Note_on_c, 9, 42, 0
1, 153359, Note_on_c, 9, 38, 0
1, 153359, Note_on_c, 9, 40, 0
1, 153360, Note_on_c, 9, 42, 65
1, 153364, Note_on_c, 9, 42, 0
1, 153480, Note_on_c, 9, 42, 49
1, 153484, Note_on_c, 9, 42, 0
1, 153600, Note_on_c, 9, 42, 69
1, 153600, Note_on_c, 9, 35, 107
1, 153604, Note_on_c, 9, 42, 0
1, 153720, Note_on_c, 9, 42, 39
1, 153724, Note_on_c, 9, 42, 0
1, 153839, Note_on_c, 9, 35, 0
1, 153840, Note_on_c, 9, 42, 72
1, 153840, Note_on_c, 9, 35, 108
1, 153850, Note_on_c, 9, 42, 0
1, 154079, Note_on_c, 9, 35, 0
1, 154080, Note_on_c, 9, 38, 126
1, 154080, Note_on_c, 9, 40, 87
1, 154080, Note_on_c, 9, 42, 53
1, 154090, Note_on_c, 9, 42, 0
1, 154319, Note_on_c, 9, 38, 0
1, 154319, Note_on_c, 9, 40, 0
1, 154320, Note_on_c, 9, 42, 63
1, 154324, Note_on_c, 9, 42, 0
1, 154440, Note_on_c, 9, 42, 43
1, 154444, Note_on_c, 9, 42, 0
1, 154560, Note_on_c, 9, 42, 61
1, 154560, Note_on_c, 9, 35, 108
1, 154564, Note_on_c, 9, 42, 0
1, 154680, Note_on_c, 9, 42, 41
1, 154690, Note_on_c, 9, 42, 0
1, 154799, Note_on_c, 9, 35, 0
1, 154800, Note_on_c, 9, 35, 106
1, 154920, Note_on_c, 9, 42, 67
1, 154924, Note_on_c, 9, 42, 0
1, 155039, Note_on_c, 9, 35, 0
1, 155040, Note_on_c, 9, 38, 126
1, 155040, Note_on_c, 9, 40, 87
1, 155159, Note_on_c, 9, 38, 0
1, 155159, Note_on_c, 9, 40, 0
1, 155160, Note_on_c, 9, 42, 76
1, 155164, Note_on_c, 9, 42, 0
1, 155280, Note_on_c, 9, 46, 67
1, 155280, Note_on_c, 9, 35, 108
1, 155290, Note_on_c, 9, 46, 0
1, 155519, Note_on_c, 9, 35, 0
1, 155520, Note_on_c, 9, 42, 57
1, 155530, Note_on_c, 9, 42, 0
1, 155760, Note_on_c, 9, 42, 74
1, 155770, Note_on_c, 9, 42, 0
1, 156000, Note_on_c, 9, 38, 125
1, 156000, Note_on_c, 9, 40, 86
1, 156000, Note_on_c, 9, 42, 57
1, 156010, Note_on_c, 9, 42, 0
1, 156239, Note_on_c, 9, 38, 0
1, 156239, Note_on_c, 9, 40, 0
1, 156240, Note_on_c, 9, 42, 63
1, 156244, Note_on_c, 9, 42, 0
1, 156360, Note_on_c, 9, 42, 43
1, 156364, Note_on_c, 9, 42, 0
1, 156480, Note_on_c, 9, 42, 65
1, 156480, Note_on_c, 9, 35, 98
1, 156484, Note_on_c, 9, 42, 0
1, 156600, Note_on_c, 9, 42, 39
1, 156604, Note_on_c, 9, 42, 0
1, 156719, Note_on_c, 9, 35, 0
1, 156720, Note_on_c, 9, 42, 71
1, 156720, Note_on_c, 9, 35, 106
1, 156730, Note_on_c, 9, 42, 0
1, 156959, Note_on_c, 9, 35, 0
1, 156960, Note_on_c, 9, 38, 124
1, 156960, Note_on_c, 9, 40, 85
1, 156960, Note_on_c, 9, 42, 59
1, 156970, Note_on_c, 9, 42, 0
1, 157199, Note_on_c, 9, 38, 0
1, 157199, Note_on_c, 9, 40, 0
1, 157200, Note_on_c, 9, 42, 65
1, 157204, Note_on_c, 9, 42, 0
1, 157320, Note_on_c, 9, 42, 51
1, 157324, Note_on_c, 9, 42, 0
1, 157440, Note_on_c, 9, 42, 63
1, 157440, Note_on_c, 9, 35, 104
1, 157450, Note_on_c, 9, 42, 0
1, 157679, Note_on_c, 9, 35, 0
1, 157680, Note_on_c, 9, 42, 72
1, 157680, Note_on_c, 9, 35, 105
1, 157687, Note_on_c, 9, 42, 0
1, 157890, Note_on_c, 9, 38, 124
1, 157890, Note_on_c, 9, 40, 85
1, 157890, Note_on_c, 9, 42, 61
1, 157900, Note_on_c, 9, 42, 0
1, 157919, Note_on_c, 9, 35, 0
1, 158009, Note_on_c, 9, 38, 0
1, 158009, Note_on_c, 9, 40, 0
1, 158160, Note_on_c, 9, 42, 73
1, 158164, Note_on_c, 9, 42, 0
1, 158280, Note_on_c, 9, 42, 47
1, 158284, Note_on_c, 9, 42, 0
1, 158400, Note_on_c, 9, 42, 74
1, 158400, Note_on_c, 9, 35, 104
1, 158410, Note_on_c, 9, 42, 0
1, 158639, Note_on_c, 9, 35, 0
1, 158640, Note_on_c, 9, 42, 74
1, 158640, Note_on_c, 9, 35, 103
1, 158649, Note_on_c, 9, 42, 0
1, 158865, Note_on_c, 9, 42, 57
1, 158865, Note_on_c, 9, 42, 0
1, 158879, Note_on_c, 9, 35, 0
1, 158880, Note_on_c, 9, 38, 125
1, 158880, Note_on_c, 9, 40, 86
1, 159119, Note_on_c, 9, 38, 0
1, 159119, Note_on_c, 9, 40, 0
1, 159120, Note_on_c, 9, 46, 67
1, 159120, Note_on_c, 9, 35, 106
1, 159130, Note_on_c, 9, 46, 0
1, 159359, Note_on_c, 9, 35, 0
1, 159360, Note_on_c, 9, 42, 64
1, 159370, Note_on_c, 9, 42, 0
1, 159600, Note_on_c, 9, 42, 72
1, 159610, Note_on_c, 9, 42, 0
1, 159840, Note_on_c, 9, 38, 126
1, 159840, Note_on_c, 9, 40, 87
1, 159840, Note_on_c, 9, 42, 69
1, 159850, Note_on_c, 9, 42, 0
1, 160079, Note_on_c, 9, 38, 0
1, 160079, Note_on_c, 9, 40, 0
1, 160080, Note_on_c, 9, 42, 65
1, 160084, Note_on_c, 9, 42, 0
1, 160200, Note_on_c, 9, 42, 43
1, 160204, Note_on_c, 9, 42, 0
1, 160320, Note_on_c, 9, 42, 74
1, 160320, Note_on_c, 9, 35, 102
1, 160324, Note_on_c, 9, 42, 0
1, 160440, Note_on_c, 9, 42, 47
1, 160444, Note_on_c, 9, 42, 0
1, 160559, Note_on_c, 9, 35, 0
1, 160560, Note_on_c, 9, 42, 74
1, 160560, Note_on_c, 9, 35, 105
1, 160570, Note_on_c, 9, 42, 0
1, 160799, Note_on_c, 9, 35, 0
1, 160800, Note_on_c, 9, 38, 124
1, 160800, Note_on_c, 9, 40, 85
1, 160800, Note_on_c, 9, 42, 61
1, 160810, Note_on_c, 9, 42, 0
1, 161039, Note_on_c, 9, 38, 0
1, 161039, Note_on_c, 9, 40, 0
1, 161040, Note_on_c, 9, 42, 69
1, 161044, Note_on_c, 9, 42, 0
1, 161160, Note_on_c, 9, 42, 45
1, 161164, Note_on_c, 9, 42, 0
1, 161280, Note_on_c, 9, 42, 72
1, 161280, Note_on_c, 9, 35, 107
1, 161290, Note_on_c, 9, 42, 0
1, 161519, Note_on_c, 9, 35, 0
1, 161520, Note_on_c, 9, 42, 73
1, 161520, Note_on_c, 9, 35, 106
1, 161530, Note_on_c, 9, 42, 0
1, 161759, Note_on_c, 9, 35, 0
1, 161760, Note_on_c, 9, 38, 124
1, 161760, Note_on_c, 9, 40, 85
1, 161760, Note_on_c, 9, 42, 53
1, 161770, Note_on_c, 9, 42, 0
1, 161999, Note_on_c, 9, 38, 0
1, 161999, Note_on_c, 9, 40, 0
1, 162000, Note_on_c, 9, 42, 74
1, 162004, Note_on_c, 9, 42, 0
1, 162120, Note_on_c, 9, 42, 45
1, 162124, Note_on_c, 9, 42, 0
1, 162240, Note_on_c, 9, 42, 72
1, 162240, Note_on_c, 9, 35, 106
1, 162244, Note_on_c, 9, 42, 0
1, 162360, Note_on_c, 9, 42, 39
1, 162364, Note_on_c, 9, 42, 0
1, 162479, Note_on_c, 9, 35, 0
1, 162480, Note_on_c, 9, 42, 73
1, 162480, Note_on_c, 9, 35, 104
1, 162490, Note_on_c, 9, 42, 0
1, 162719, Note_on_c, 9, 35, 0
1, 162720, Note_on_c, 9, 38, 126
1, 162720, Note_on_c, 9, 40, 87
1, 162720, Note_on_c, 9, 42, 47
1, 162729, Note_on_c, 9, 42, 0
1, 162899, Note_on_c, 9, 38, 0
1, 162899, Note_on_c, 9, 40, 0
1, 162945, Note_on_c, 9, 46, 63
1, 162945, Note_on_c, 9, 46, 0
1, 162960, Note_on_c, 9, 49, 78
1, 162960, Note_on_c, 9, 52, 75
1, 162960, Note_on_c, 9, 35, 108
1, 162970, Note_on_c, 9, 49, 0
1, 162970, Note_on_c, 9, 52, 0
1, 163199, Note_on_c, 9, 35, 0
1, 163200, Note_on_c, 9, 51, 35
1, 163200, Note_on_c, 9, 42, 58
1, 163210, Note_on_c, 9, 51, 0
1, 163210, Note_on_c, 9, 42, 0
1, 163440, Note_on_c, 9, 51, 49
1, 163440, Note_on_c, 9, 42, 67
1, 163447, Note_on_c, 9, 51, 0
1, 163447, Note_on_c, 9, 42, 0
1, 163650, Note_on_c, 9, 38, 124
1, 163650, Note_on_c, 9, 40, 114
1, 163650, Note_on_c, 9, 51, 47
1, 163650, Note_on_c, 9, 42, 63
1, 163660, Note_on_c, 9, 51, 0
1, 163660, Note_on_c, 9, 42, 0
1, 163769, Note_on_c, 9, 38, 0
1, 163769, Note_on_c, 9, 40, 0
1, 163920, Note_on_c, 9, 51, 50
1, 163920, Note_on_c, 9, 42, 72
1, 163924, Note_on_c, 9, 51, 0
1, 163924, Note_on_c, 9, 42, 0
1, 164040, Note_on_c, 9, 51, 43
1, 164040, Note_on_c, 9, 42, 45
1, 164044, Note_on_c, 9, 51, 0
1, 164044, Note_on_c, 9, 42, 0
1, 164160, Note_on_c, 9, 51, 51
1, 164160, Note_on_c, 9, 42, 74
1, 164160, Note_on_c, 9, 35, 107
1, 164170, Note_on_c, 9, 51, 0
1, 164170, Note_on_c, 9, 42, 0
1, 164399, Note_on_c, 9, 35, 0
1, 164400, Note_on_c, 9, 51, 47
1, 164400, Note_on_c, 9, 42, 61
1, 164400, Note_on_c, 9, 35, 105
1, 164409, Note_on_c, 9, 51, 0
1, 164409, Note_on_c, 9, 42, 0
1, 164625, Note_on_c, 9, 51, 47
1, 164625, Note_on_c, 9, 51, 0
1, 164625, Note_on_c, 9, 42, 61
1, 164625, Note_on_c, 9, 42, 0
1, 164639, Note_on_c, 9, 35, 0
1, 164640, Note_on_c, 9, 38, 124
1, 164640, Note_on_c, 9, 40, 114
1, 164879, Note_on_c, 9, 38, 0
1, 164879, Note_on_c, 9, 40, 0
1, 164880, Note_on_c, 9, 51, 50
1, 164880, Note_on_c, 9, 42, 72
1, 164884, Note_on_c, 9, 51, 0
1, 164884, Note_on_c, 9, 42, 0
1, 165000, Note_on_c, 9, 51, 43
1, 165000, Note_on_c, 9, 42, 47
1, 165004, Note_on_c, 9, 51, 0
1, 165004, Note_on_c, 9, 42, 0
1, 165120, Note_on_c, 9, 51, 51
1, 165120, Note_on_c, 9, 42, 74
1, 165120, Note_on_c, 9, 35, 107
1, 165130, Note_on_c, 9, 51, 0
1, 165130, Note_on_c, 9, 42, 0
1, 165359, Note_on_c, 9, 35, 0
1, 165360, Note_on_c, 9, 51, 49
1, 165360, Note_on_c, 9, 42, 69
1, 165360, Note_on_c, 9, 35, 104
1, 165370, Note_on_c, 9, 51, 0
1, 165370, Note_on_c, 9, 42, 0
1, 165599, Note_on_c, 9, 35, 0
1, 165600, Note_on_c, 9, 38, 124
1, 165600, Note_on_c, 9, 40, 114
1, 165600, Note_on_c, 9, 51, 46
1, 165600, Note_on_c, 9, 42, 55
1, 165610, Note_on_c, 9, 51, 0
1, 165610, Note_on_c, 9, 42, 0
1, 165839, Note_on_c, 9, 38, 0
1, 165839, Note_on_c, 9, 40, 0
1, 165840, Note_on_c, 9, 51, 49
1, 165840, Note_on_c, 9, 42, 69
1, 165844, Note_on_c, 9, 51, 0
1, 165844, Note_on_c, 9, 42, 0
1, 165960, Note_on_c, 9, 51, 43
1, 165960, Note_on_c, 9, 42, 47
1, 165964, Note_on_c, 9, 51, 0
1, 165964, Note_on_c, 9, 42, 0
1, 166080, Note_on_c, 9, 51, 49
1, 166080, Note_on_c, 9, 42, 67
1, 166080, Note_on_c, 9, 35, 109
1, 166090, Note_on_c, 9, 51, 0
1, 166090, Note_on_c, 9, 42, 0
1, 166319, Note_on_c, 9, 35, 0
1, 166320, Note_on_c, 9, 51, 51
1, 166320, Note_on_c, 9, 42, 74
1, 166320, Note_on_c, 9, 35, 105
1, 166324, Note_on_c, 9, 51, 0
1, 166324, Note_on_c, 9, 42, 0
1, 166440, Note_on_c, 9, 51, 45
1, 166440, Note_on_c, 9, 42, 51
1, 166443, Note_on_c, 9, 51, 0
1, 166443, Note_on_c, 9, 42, 0
1, 166530, Note_on_c, 9, 38, 125
1, 166530, Note_on_c, 9, 40, 115
1, 166530, Note_on_c, 9, 51, 51
1, 166530, Note_on_c, 9, 42, 74
1, 166535, Note_on_c, 9, 51, 0
1, 166535, Note_on_c, 9, 42, 0
1, 166559, Note_on_c, 9, 35, 0
1, 166649, Note_on_c, 9, 38, 0
1, 166649, Note_on_c, 9, 40, 0
1, 166680, Note_on_c, 9, 51, 43
1, 166680, Note_on_c, 9, 42, 47
1, 166683, Note_on_c, 9, 51, 0
1, 166683, Note_on_c, 9, 42, 0
1, 166785, Note_on_c, 9, 49, 72
1, 166785, Note_on_c, 9, 49, 0
1, 166785, Note_on_c, 9, 52, 69
1, 166785, Note_on_c, 9, 52, 0
1, 166800, Note_on_c, 9, 46, 73
1, 166800, Note_on_c, 9, 51, 44
1, 166800, Note_on_c, 9, 35, 107
1, 166810, Note_on_c, 9, 46, 0
1, 166810, Note_on_c, 9, 51, 0
1, 167039, Note_on_c, 9, 35, 0
1, 167040, Note_on_c, 9, 51, 38
1, 167040, Note_on_c, 9, 42, 58
1, 167050, Note_on_c, 9, 51, 0
1, 167050, Note_on_c, 9, 42, 0
1, 167280, Note_on_c, 9, 51, 50
1, 167280, Note_on_c, 9, 42, 73
1, 167284, Note_on_c, 9, 51, 0
1, 167284, Note_on_c, 9, 42, 0
1, 167400, Note_on_c, 9, 51, 45
1, 167400, Note_on_c, 9, 42, 51
1, 167404, Note_on_c, 9, 51, 0
1, 167404, Note_on_c, 9, 42, 0
1, 167520, Note_on_c, 9, 38, 126
1, 167520, Note_on_c, 9, 40, 116
1, 167520, Note_on_c, 9, 51, 50
1, 167520, Note_on_c, 9, 42, 71
1, 167530, Note_on_c, 9, 51, 0
1, 167530, Note_on_c, 9, 42, 0
1, 167759, Note_on_c, 9, 38, 0
1, 167759, Note_on_c, 9, 40, 0
1, 167760, Note_on_c, 9, 51, 50
1, 167760, Note_on_c, 9, 42, 71
1, 167764, Note_on_c, 9, 51, 0
1, 167764, Note_on_c, 9, 42, 0
1, 167880, Note_on_c, 9, 51, 45
1, 167880, Note_on_c, 9, 42, 51
1, 167884, Note_on_c, 9, 51, 0
1, 167884, Note_on_c, 9, 42, 0
1, 168000, Note_on_c, 9, 51, 49
1, 168000, Note_on_c, 9, 42, 69
1, 168000, Note_on_c, 9, 35, 106
1, 168010, Note_on_c, 9, 51, 0
1, 168010, Note_on_c, 9, 42, 0
1, 168239, Note_on_c, 9, 35, 0
1, 168240, Note_on_c, 9, 51, 50
1, 168240, Note_on_c, 9, 42, 71
1, 168240, Note_on_c, 9, 35, 106
1, 168249, Note_on_c, 9, 51, 0
1, 168249, Note_on_c, 9, 42, 0
1, 168465, Note_on_c, 9, 51, 46
1, 168465, Note_on_c, 9, 51, 0
1, 168465, Note_on_c, 9, 42, 57
1, 168465, Note_on_c, 9, 42, 0
1, 168479, Note_on_c, 9, 35, 0
1, 168480, Note_on_c, 9, 38, 125
1, 168480, Note_on_c, 9, 40, 115
1, 168719, Note_on_c, 9, 38, 0
1, 168719, Note_on_c, 9, 40, 0
1, 168720, Note_on_c, 9, 51, 46
1, 168720, Note_on_c, 9, 42, 57
1, 168724, Note_on_c, 9, 51, 0
1, 168724, Note_on_c, 9, 42, 0
1, 168840, Note_on_c, 9, 51, 43
1, 168840, Note_on_c, 9, 42, 47
1, 168844, Note_on_c, 9, 51, 0
1, 168844, Note_on_c, 9, 42, 0
1, 168960, Note_on_c, 9, 51, 48
1, 168960, Note_on_c, 9, 42, 65
1, 168960, Note_on_c, 9, 35, 103
1, 168964, Note_on_c, 9, 51, 0
1, 168964, Note_on_c, 9, 42, 0
1, 169080, Note_on_c, 9, 51, 42
1, 169080, Note_on_c, 9, 42, 43
1, 169084, Note_on_c, 9, 51, 0
1, 169084, Note_on_c, 9, 42, 0
1, 169199, Note_on_c, 9, 35, 0
1, 169200, Note_on_c, 9, 51, 50
1, 169200, Note_on_c, 9, 42, 72
1, 169200, Note_on_c, 9, 35, 105
1, 169207, Note_on_c, 9, 51, 0
1, 169207, Note_on_c, 9, 42, 0
1, 169410, Note_on_c, 9, 38, 124
1, 169410, Note_on_c, 9, 40, 114
1, 169410, Note_on_c, 9, 51, 47
1, 169410, Note_on_c, 9, 42, 61
1, 169420, Note_on_c, 9, 51, 0
1, 169420, Note_on_c, 9, 42, 0
1, 169439, Note_on_c, 9, 35, 0
1, 169529, Note_on_c, 9, 38, 0
1, 169529, Note_on_c, 9, 40, 0
1, 169680, Note_on_c, 9, 51, 49
1, 169680, Note_on_c, 9, 42, 69
1, 169684, Note_on_c, 9, 51, 0
1, 169684, Note_on_c, 9, 42, 0
1, 169800, Note_on_c, 9, 51, 43
1, 169800, Note_on_c, 9, 42, 45
1, 169804, Note_on_c, 9, 51, 0
1, 169804, Note_on_c, 9, 42, 0
1, 169920, Note_on_c, 9, 51, 49
1, 169920, Note_on_c, 9, 42, 67
1, 169920, Note_on_c, 9, 35, 107
1, 169930, Note_on_c, 9, 51, 0
1, 169930, Note_on_c, 9, 42, 0
1, 170159, Note_on_c, 9, 35, 0
1, 170160, Note_on_c, 9, 51, 48
1, 170160, Note_on_c, 9, 42, 65
1, 170160, Note_on_c, 9, 35, 104
1, 170170, Note_on_c, 9, 51, 0
1, 170170, Note_on_c, 9, 42, 0
1, 170399, Note_on_c, 9, 35, 0
1, 170400, Note_on_c, 9, 38, 125
1, 170400, Note_on_c, 9, 40, 115
1, 170400, Note_on_c, 9, 51, 50
1, 170400, Note_on_c, 9, 42, 72
1, 170410, Note_on_c, 9, 51, 0
1, 170410, Note_on_c, 9, 42, 0
1, 170639, Note_on_c, 9, 38, 0
1, 170639, Note_on_c, 9, 40, 0
1, 170640, Note_on_c, 9, 46, 59
1, 170640, Note_on_c, 9, 51, 40
1, 170640, Note_on_c, 9, 49, 54
1, 170640, Note_on_c, 9, 52, 51
1, 170640, Note_on_c, 9, 35, 110
1, 170650, Note_on_c, 9, 46, 0
1, 170650, Note_on_c, 9, 51, 0
1, 170650, Note_on_c, 9, 49, 0
1, 170650, Note_on_c, 9, 52, 0
1, 170879, Note_on_c, 9, 35, 0
1, 170880, Note_on_c, 9, 51, 40
1, 170880, Note_on_c, 9, 42, 55
1, 170890, Note_on_c, 9, 51, 0
1, 170890, Note_on_c, 9, 42, 0
1, 171120, Note_on_c, 9, 51, 50
1, 171120, Note_on_c, 9, 42, 72
1, 171130, Note_on_c, 9, 51, 0
1, 171130, Note_on_c, 9, 42, 0
1, 171360, Note_on_c, 9, 38, 125
1, 171360, Note_on_c, 9, 40, 115
1, 171360, Note_on_c, 9, 51, 51
1, 171360, Note_on_c, 9, 42, 75
1, 171364, Note_on_c, 9, 51, 0
1, 171364, Note_on_c, 9, 42, 0
1, 171479, Note_on_c, 9, 38, 0
1, 171479, Note_on_c, 9, 40, 0
1, 171480, Note_on_c, 9, 51, 42
1, 171480, Note_on_c, 9, 42, 43
1, 171484, Note_on_c, 9, 51, 0
1, 171484, Note_on_c, 9, 42, 0
1, 171600, Note_on_c, 9, 51, 47
1, 171600, Note_on_c, 9, 42, 61
1, 171604, Note_on_c, 9, 51, 0
1, 171604, Note_on_c, 9, 42, 0
1, 171720, Note_on_c, 9, 51, 42
1, 171720, Note_on_c, 9, 42, 43
1, 171724, Note_on_c, 9, 51, 0
1, 171724, Note_on_c, 9, 42, 0
1, 171840, Note_on_c, 9, 51, 51
1, 171840, Note_on_c, 9, 42, 75
1, 171840, Note_on_c, 9, 35, 104
1, 171850, Note_on_c, 9, 51, 0
1, 171850, Note_on_c, 9, 42, 0
1, 172079, Note_on_c, 9, 35, 0
1, 172080, Note_on_c, 9, 51, 51
1, 172080, Note_on_c, 9, 42, 74
1, 172080, Note_on_c, 9, 35, 105
1, 172090, Note_on_c, 9, 51, 0
1, 172090, Note_on_c, 9, 42, 0
1, 172319, Note_on_c, 9, 35, 0
1, 172320, Note_on_c, 9, 38, 121
1, 172320, Note_on_c, 9, 40, 111
1, 172320, Note_on_c, 9, 51, 46
1, 172320, Note_on_c, 9, 42, 59
1, 172330, Note_on_c, 9, 51, 0
1, 172330, Note_on_c, 9, 42, 0
1, 172559, Note_on_c, 9, 38, 0
1, 172559, Note_on_c, 9, 40, 0
1, 172560, Note_on_c, 9, 51, 49
1, 172560, Note_on_c, 9, 42, 69
1, 172564, Note_on_c, 9, 51, 0
1, 172564, Note_on_c, 9, 42, 0
1, 172680, Note_on_c, 9, 51, 43
1, 172680, Note_on_c, 9, 42, 45
1, 172684, Note_on_c, 9, 51, 0
1, 172684, Note_on_c, 9, 42, 0
1, 172800, Note_on_c, 9, 51, 49
1, 172800, Note_on_c, 9, 42, 69
1, 172800, Note_on_c, 9, 35, 108
1, 172804, Note_on_c, 9, 51, 0
1, 172804, Note_on_c, 9, 42, 0
1, 172920, Note_on_c, 9, 51, 42
1, 172920, Note_on_c, 9, 42, 41
1, 172924, Note_on_c, 9, 51, 0
1, 172924, Note_on_c, 9, 42, 0
1, 173039, Note_on_c, 9, 35, 0
1, 173040, Note_on_c, 9, 51, 50
1, 173040, Note_on_c, 9, 42, 72
1, 173040, Note_on_c, 9, 35, 107
1, 173050, Note_on_c, 9, 51, 0
1, 173050, Note_on_c, 9, 42, 0
1, 173279, Note_on_c, 9, 35, 0
1, 173280, Note_on_c, 9, 38, 124
1, 173280, Note_on_c, 9, 40, 114
1, 173280, Note_on_c, 9, 51, 47
1, 173280, Note_on_c, 9, 42, 61
1, 173290, Note_on_c, 9, 51, 0
1, 173290, Note_on_c, 9, 42, 0
1, 173519, Note_on_c, 9, 38, 0
1, 173519, Note_on_c, 9, 40, 0
1, 173520, Note_on_c, 9, 51, 48
1, 173520, Note_on_c, 9, 42, 65
1, 173524, Note_on_c, 9, 51, 0
1, 173524, Note_on_c, 9, 42, 0
1, 173640, Note_on_c, 9, 51, 43
1, 173640, Note_on_c, 9, 42, 45
1, 173644, Note_on_c, 9, 51, 0
1, 173644, Note_on_c, 9, 42, 0
1, 173760, Note_on_c, 9, 51, 50
1, 173760, Note_on_c, 9, 42, 72
1, 173760, Note_on_c, 9, 35, 108
1, 173770, Note_on_c, 9, 51, 0
1, 173770, Note_on_c, 9, 42, 0
1, 173999, Note_on_c, 9, 35, 0
1, 174000, Note_on_c, 9, 51, 46
1, 174000, Note_on_c, 9, 42, 57
1, 174000, Note_on_c, 9, 35, 105
1, 174007, Note_on_c, 9, 51, 0
1, 174007, Note_on_c, 9, 42, 0
1, 174210, Note_on_c, 9, 38, 125
1, 174210, Note_on_c, 9, 40, 115
1, 174210, Note_on_c, 9, 51, 50
1, 174210, Note_on_c, 9, 42, 72
1, 174215, Note_on_c, 9, 51, 0
1, 174215, Note_on_c, 9, 42, 0
1, 174239, Note_on_c, 9, 35, 0
1, 174329, Note_on_c, 9, 38, 0
1, 174329, Note_on_c, 9, 40, 0
1, 174360, Note_on_c, 9, 51, 43
1, 174360, Note_on_c, 9, 42, 45
1, 174363, Note_on_c, 9, 51, 0
1, 174363, Note_on_c, 9, 42, 0
1, 174465, Note_on_c, 9, 49, 78
1, 174465, Note_on_c, 9, 49, 0
1, 174465, Note_on_c, 9, 52, 75
1, 174465, Note_on_c, 9, 52, 0
1, 174480, Note_on_c, 9, 46, 69
1, 174480, Note_on_c, 9, 51, 43
1, 174480, Note_on_c, 9, 35, 109
1, 174490, Note_on_c, 9, 46, 0
1, 174490, Note_on_c, 9, 51, 0
1, 174719, Note_on_c, 9, 35, 0
1, 174720, Note_on_c, 9, 51, 40
1, 174720, Note_on_c, 9, 42, 63
1, 174730, Note_on_c, 9, 51, 0
1, 174730, Note_on_c, 9, 42, 0
1, 174960, Note_on_c, 9, 51, 46
1, 174960, Note_on_c, 9, 42, 59
1, 174967, Note_on_c, 9, 51, 0
1, 174967, Note_on_c, 9, 42, 0
1, 175170, Note_on_c, 9, 38, 125
1, 175170, Note_on_c, 9, 40, 115
1, 175170, Note_on_c, 9, 51, 50
1, 175170, Note_on_c, 9, 42, 73
1, 175175, Note_on_c, 9, 51, 0
1, 175175, Note_on_c, 9, 42, 0
1, 175289, Note_on_c, 9, 38, 0
1, 175289, Note_on_c, 9, 40, 0
1, 175320, Note_on_c, 9, 51, 43
1, 175320, Note_on_c, 9, 42, 47
1, 175324, Note_on_c, 9, 51, 0
1, 175324, Note_on_c, 9, 42, 0
1, 175440, Note_on_c, 9, 51, 50
1, 175440, Note_on_c, 9, 42, 72
1, 175444, Note_on_c, 9, 51, 0
1, 175444, Note_on_c, 9, 42, 0
1, 175560, Note_on_c, 9, 51, 43
1, 175560, Note_on_c, 9, 42, 45
1, 175564, Note_on_c, 9, 51, 0
1, 175564, Note_on_c, 9, 42, 0
1, 175680, Note_on_c, 9, 51, 51
1, 175680, Note_on_c, 9, 42, 74
1, 175680, Note_on_c, 9, 35, 108
1, 175690, Note_on_c, 9, 51, 0
1, 175690, Note_on_c, 9, 42, 0
1, 175919, Note_on_c, 9, 35, 0
1, 175920, Note_on_c, 9, 51, 49
1, 175920, Note_on_c, 9, 42, 69
1, 175920, Note_on_c, 9, 35, 105
1, 175930, Note_on_c, 9, 51, 0
1, 175930, Note_on_c, 9, 42, 0
1, 176159, Note_on_c, 9, 35, 0
1, 176160, Note_on_c, 9, 38, 125
1, 176160, Note_on_c, 9, 40, 115
1, 176160, Note_on_c, 9, 51, 47
1, 176160, Note_on_c, 9, 42, 63
1, 176170, Note_on_c, 9, 51, 0
1, 176170, Note_on_c, 9, 42, 0
1, 176399, Note_on_c, 9, 38, 0
1, 176399, Note_on_c, 9, 40, 0
1, 176400, Note_on_c, 9, 51, 51
1, 176400, Note_on_c, 9, 42, 74
1, 176404, Note_on_c, 9, 51, 0
1, 176404, Note_on_c, 9, 42, 0
1, 176520, Note_on_c, 9, 51, 43
1, 176520, Note_on_c, 9, 42, 45
1, 176524, Note_on_c, 9, 51, 0
1, 176524, Note_on_c, 9, 42, 0
1, 176640, Note_on_c, 9, 51, 51
1, 176640, Note_on_c, 9, 42, 74
1, 176640, Note_on_c, 9, 35, 106
1, 176650, Note_on_c, 9, 51, 0
1, 176650, Note_on_c, 9, 42, 0
1, 176879, Note_on_c, 9, 35, 0
1, 176880, Note_on_c, 9, 51, 50
1, 176880, Note_on_c, 9, 42, 72
1, 176880, Note_on_c, 9, 35, 106
1, 176890, Note_on_c, 9, 51, 0
1, 176890, Note_on_c, 9, 42, 0
1, 177119, Note_on_c, 9, 35, 0
1, 177120, Note_on_c, 9, 51, 47
1, 177120, Note_on_c, 9, 51, 0
1, 177120, Note_on_c, 9, 42, 61
1, 177120, Note_on_c, 9, 42, 0
1, 177140, Note_on_c, 9, 38, 126
1, 177140, Note_on_c, 9, 40, 116
1, 177179, Note_on_c, 9, 38, 0
1, 177179, Note_on_c, 9, 40, 0
1, 177360, Note_on_c, 9, 51, 50
1, 177360, Note_on_c, 9, 42, 71
1, 177364, Note_on_c, 9, 51, 0
1, 177364, Note_on_c, 9, 42, 0
1, 177480, Note_on_c, 9, 51, 42
1, 177480, Note_on_c, 9, 42, 43
1, 177484, Note_on_c, 9, 51, 0
1, 177484, Note_on_c, 9, 42, 0
1, 177600, Note_on_c, 9, 51, 49
1, 177600, Note_on_c, 9, 42, 67
1, 177600, Note_on_c, 9, 35, 108
1, 177604, Note_on_c, 9, 51, 0
1, 177604, Note_on_c, 9, 42, 0
1, 177720, Note_on_c, 9, 51, 42
1, 177720, Note_on_c, 9, 42, 41
1, 177724, Note_on_c, 9, 51, 0
1, 177724, Note_on_c, 9, 42, 0
1, 177839, Note_on_c, 9, 35, 0
1, 177840, Note_on_c, 9, 51, 50
1, 177840, Note_on_c, 9, 42, 73
1, 177840, Note_on_c, 9, 35, 105
1, 177850, Note_on_c, 9, 51, 0
1, 177850, Note_on_c, 9, 42, 0
1, 178079, Note_on_c, 9, 35, 0
1, 178080, Note_on_c, 9, 38, 125
1, 178080, Note_on_c, 9, 40, 115
1, 178080, Note_on_c, 9, 51, 48
1, 178080, Note_on_c, 9, 42, 65
1, 178089, Note_on_c, 9, 51, 0
1, 178089, Note_on_c, 9, 42, 0
1, 178259, Note_on_c, 9, 38, 0
1, 178259, Note_on_c, 9, 40, 0
1, 178305, Note_on_c, 9, 46, 67
1, 178305, Note_on_c, 9, 46, 0
1, 178305, Note_on_c, 9, 51, 42
1, 178305, Note_on_c, 9, 51, 0
1, 178320, Note_on_c, 9, 49, 66
1, 178320, Note_on_c, 9, 52, 63
1, 178320, Note_on_c, 9, 35, 109
1, 178330, Note_on_c, 9, 49, 0
1, 178330, Note_on_c, 9, 52, 0
1, 178559, Note_on_c, 9, 35, 0
1, 178560, Note_on_c, 9, 51, 35
1, 178560, Note_on_c, 9, 42, 58
1, 178570, Note_on_c, 9, 51, 0
1, 178570, Note_on_c, 9, 42, 0
1, 178800, Note_on_c, 9, 51, 46
1, 178800, Note_on_c, 9, 42, 59
1, 178807, Note_on_c, 9, 51, 0
1, 178807, Note_on_c, 9, 42, 0
1, 179010, Note_on_c, 9, 38, 127
1, 179010, Note_on_c, 9, 40, 117
1, 179010, Note_on_c, 9, 51, 50
1, 179010, Note_on_c, 9, 42, 72
1, 179015, Note_on_c, 9, 51, 0
1, 179015, Note_on_c, 9, 42, 0
1, 179129, Note_on_c, 9, 38, 0
1, 179129, Note_on_c, 9, 40, 0
1, 179160, Note_on_c, 9, 51, 42
1, 179160, Note_on_c, 9, 42, 43
1, 179164, Note_on_c, 9, 51, 0
1, 179164, Note_on_c, 9, 42, 0
1, 179280, Note_on_c, 9, 51, 44
1, 179280, Note_on_c, 9, 42, 49
1, 179284, Note_on_c, 9, 51, 0
1, 179284, Note_on_c, 9, 42, 0
1, 179400, Note_on_c, 9, 51, 42
1, 179400, Note_on_c, 9, 42, 41
1, 179404, Note_on_c, 9, 51, 0
1, 179404, Note_on_c, 9, 42, 0
1, 179520, Note_on_c, 9, 51, 50
1, 179520, Note_on_c, 9, 42, 72
1, 179520, Note_on_c, 9, 35, 104
1, 179530, Note_on_c, 9, 51, 0
1, 179530, Note_on_c, 9, 42, 0
1, 179759, Note_on_c, 9, 35, 0
1, 179760, Note_on_c, 9, 51, 49
1, 179760, Note_on_c, 9, 42, 69
1, 179760, Note_on_c, 9, 35, 105
1, 179769, Note_on_c, 9, 51, 0
1, 179769, Note_on_c, 9, 42, 0
1, 179985, Note_on_c, 9, 51, 46
1, 179985, Note_on_c, 9, 51, 0
1, 179985, Note_on_c, 9, 42, 57
1, 179985, Note_on_c, 9, 42, 0
1, 179999, Note_on_c, 9, 35, 0
1, 180000, Note_on_c, 9, 38, 124
1, 180000, Note_on_c, 9, 40, 114
1, 180239, Note_on_c, 9, 38, 0
1, 180239, Note_on_c, 9, 40, 0
1, 180240, Note_on_c, 9, 51, 46
1, 180240, Note_on_c, 9, 42, 55
1, 180244, Note_on_c, 9, 51, 0
1, 180244, Note_on_c, 9, 42, 0
1, 180360, Note_on_c, 9, 51, 42
1, 180360, Note_on_c, 9, 42, 41
1, 180364, Note_on_c, 9, 51, 0
1, 180364, Note_on_c, 9, 42, 0
1, 180480, Note_on_c, 9, 51, 49
1, 180480, Note_on_c, 9, 42, 69
1, 180480, Note_on_c, 9, 35, 108
1, 180490, Note_on_c, 9, 51, 0
1, 180490, Note_on_c, 9, 42, 0
1, 180719, Note_on_c, 9, 35, 0
1, 180720, Note_on_c, 9, 51, 50
1, 180720, Note_on_c, 9, 42, 72
1, 180720, Note_on_c, 9, 35, 106
1, 180729, Note_on_c, 9, 51, 0
1, 180729, Note_on_c, 9, 42, 0
1, 180945, Note_on_c, 9, 51, 47
1, 180945, Note_on_c, 9, 51, 0
1, 180945, Note_on_c, 9, 42, 61
1, 180945, Note_on_c, 9, 42, 0
1, 180959, Note_on_c, 9, 35, 0
1, 180960, Note_on_c, 9, 38, 126
1, 180960, Note_on_c, 9, 40, 116
1, 181199, Note_on_c, 9, 38, 0
1, 181199, Note_on_c, 9, 40, 0
1, 181200, Note_on_c, 9, 51, 50
1, 181200, Note_on_c, 9, 42, 73
1, 181204, Note_on_c, 9, 51, 0
1, 181204, Note_on_c, 9, 42, 0
1, 181320, Note_on_c, 9, 51, 40
1, 181320, Note_on_c, 9, 42, 37
1, 181324, Note_on_c, 9, 51, 0
1, 181324, Note_on_c, 9, 42, 0
1, 181440, Note_on_c, 9, 51, 46
1, 181440, Note_on_c, 9, 42, 59
1, 181440, Note_on_c, 9, 35, 108
1, 181444, Note_on_c, 9, 51, 0
1, 181444, Note_on_c, 9, 42, 0
1, 181560, Note_on_c, 9, 51, 43
1, 181560, Note_on_c, 9, 42, 45
1, 181564, Note_on_c, 9, 51, 0
1, 181564, Note_on_c, 9, 42, 0
1, 181679, Note_on_c, 9, 35, 0
1, 181680, Note_on_c, 9, 51, 50
1, 181680, Note_on_c, 9, 42, 72
1, 181680, Note_on_c, 9, 35, 108
1, 181687, Note_on_c, 9, 51, 0
1, 181687, Note_on_c, 9, 42, 0
1, 181890, Note_on_c, 9, 38, 124
1, 181890, Note_on_c, 9, 40, 114
1, 181890, Note_on_c, 9, 51, 47
1, 181890, Note_on_c, 9, 42, 61
1, 181899, Note_on_c, 9, 51, 0
1, 181899, Note_on_c, 9, 42, 0
1, 181919, Note_on_c, 9, 35, 0
1, 182129, Note_on_c, 9, 38, 0
1, 182129, Note_on_c, 9, 40, 0
1, 182145, Note_on_c, 9, 49, 74
1, 182145, Note_on_c, 9, 49, 0
1, 182145, Note_on_c, 9, 52, 71
1, 182145, Note_on_c, 9, 52, 0
1, 182160, Note_on_c, 9, 46, 63
1, 182160, Note_on_c, 9, 51, 41
1, 182160, Note_on_c, 9, 35, 109
1, 182170, Note_on_c, 9, 46, 0
1, 182170, Note_on_c, 9, 51, 0
1, 182399, Note_on_c, 9, 35, 0
1, 182400, Note_on_c, 9, 51, 30
1, 182400, Note_on_c, 9, 42, 58
1, 182410, Note_on_c, 9, 51, 0
1, 182410, Note_on_c, 9, 42, 0
1, 182640, Note_on_c, 9, 51, 50
1, 182640, Note_on_c, 9, 42, 73
1, 182647, Note_on_c, 9, 51, 0
1, 182647, Note_on_c, 9, 42, 0
1, 182850, Note_on_c, 9, 38, 126
1, 182850, Note_on_c, 9, 40, 116
1, 182850, Note_on_c, 9, 51, 51
1, 182850, Note_on_c, 9, 42, 74
1, 182855, Note_on_c, 9, 51, 0
1, 182855, Note_on_c, 9, 42, 0
1, 182969, Note_on_c, 9, 38, 0
1, 182969, Note_on_c, 9, 40, 0
1, 183000, Note_on_c, 9, 51, 42
1, 183000, Note_on_c, 9, 42, 43
1, 183004, Note_on_c, 9, 51, 0
1, 183004, Note_on_c, 9, 42, 0
1, 183120, Note_on_c, 9, 51, 49
1, 183120, Note_on_c, 9, 42, 67
1, 183124, Note_on_c, 9, 51, 0
1, 183124, Note_on_c, 9, 42, 0
1, 183240, Note_on_c, 9, 51, 40
1, 183240, Note_on_c, 9, 42, 37
1, 183244, Note_on_c, 9, 51, 0
1, 183244, Note_on_c, 9, 42, 0
1, 183360, Note_on_c, 9, 51, 50
1, 183360, Note_on_c, 9, 42, 72
1, 183360, Note_on_c, 9, 35, 106
1, 183370, Note_on_c, 9, 51, 0
1, 183370, Note_on_c, 9, 42, 0
1, 183599, Note_on_c, 9, 35, 0
1, 183600, Note_on_c, 9, 51, 50
1, 183600, Note_on_c, 9, 42, 73
1, 183600, Note_on_c, 9, 35, 107
1, 183607, Note_on_c, 9, 51, 0
1, 183607, Note_on_c, 9, 42, 0
1, 183810, Note_on_c, 9, 38, 124
1, 183810, Note_on_c, 9, 40, 114
1, 183810, Note_on_c, 9, 51, 43
1, 183810, Note_on_c, 9, 42, 45
1, 183820, Note_on_c, 9, 51, 0
1, 183820, Note_on_c, 9, 42, 0
1, 183839, Note_on_c, 9, 35, 0
1, 183929, Note_on_c, 9, 38, 0
1, 183929, Note_on_c, 9, 40, 0
1, 184080, Note_on_c, 9, 51, 50
1, 184080, Note_on_c, 9, 42, 72
1, 184084, Note_on_c, 9, 51, 0
1, 184084, Note_on_c, 9, 42, 0
1, 184200, Note_on_c, 9, 51, 43
1, 184200, Note_on_c, 9, 42, 45
1, 184204, Note_on_c, 9, 51, 0
1, 184204, Note_on_c, 9, 42, 0
1, 184320, Note_on_c, 9, 51, 50
1, 184320, Note_on_c, 9, 42, 72
1, 184320, Note_on_c, 9, 35, 107
1, 184324, Note_on_c, 9, 51, 0
1, 184324, Note_on_c, 9, 42, 0
1, 184440, Note_on_c, 9, 51, 43
1, 184440, Note_on_c, 9, 42, 45
1, 184444, Note_on_c, 9, 51, 0
1, 184444, Note_on_c, 9, 42, 0
1, 184559, Note_on_c, 9, 35, 0
1, 184560, Note_on_c, 9, 51, 50
1, 184560, Note_on_c, 9, 42, 72
1, 184560, Note_on_c, 9, 35, 106
1, 184569, Note_on_c, 9, 51, 0
1, 184569, Note_on_c, 9, 42, 0
1, 184785, Note_on_c, 9, 51, 47
1, 184785, Note_on_c, 9, 51, 0
1, 184785, Note_on_c, 9, 42, 61
1, 184785, Note_on_c, 9, 42, 0
1, 184799, Note_on_c, 9, 35, 0
1, 184800, Note_on_c, 9, 38, 125
1, 184800, Note_on_c, 9, 40, 115
1, 185039, Note_on_c, 9, 38, 0
1, 185039, Note_on_c, 9, 40, 0
1, 185040, Note_on_c, 9, 51, 49
1, 185040, Note_on_c, 9, 42, 67
1, 185044, Note_on_c, 9, 51, 0
1, 185044, Note_on_c, 9, 42, 0
1, 185160, Note_on_c, 9, 51, 43
1, 185160, Note_on_c, 9, 42, 47
1, 185164, Note_on_c, 9, 51, 0
1, 185164, Note_on_c, 9, 42, 0
1, 185280, Note_on_c, 9, 51, 51
1, 185280, Note_on_c, 9, 42, 74
1, 185280, Note_on_c, 9, 35, 106
1, 185284, Note_on_c, 9, 51, 0
1, 185284, Note_on_c, 9, 42, 0
1, 185400, Note_on_c, 9, 51, 43
1, 185400, Note_on_c, 9, 42, 45
1, 185404, Note_on_c, 9, 51, 0
1, 185404, Note_on_c, 9, 42, 0
1, 185519, Note_on_c, 9, 35, 0
1, 185520, Note_on_c, 9, 51, 51
1, 185520, Note_on_c, 9, 42, 74
1, 185520, Note_on_c, 9, 35, 107
1, 185529, Note_on_c, 9, 51, 0
1, 185529, Note_on_c, 9, 42, 0
1, 185745, Note_on_c, 9, 51, 46
1, 185745, Note_on_c, 9, 51, 0
1, 185745, Note_on_c, 9, 42, 59
1, 185745, Note_on_c, 9, 42, 0
1, 185759, Note_on_c, 9, 35, 0
1, 185760, Note_on_c, 9, 38, 126
1, 185760, Note_on_c, 9, 40, 116
1, 185999, Note_on_c, 9, 38, 0
1, 185999, Note_on_c, 9, 40, 0
1, 186000, Note_on_c, 9, 46, 65
1, 186000, Note_on_c, 9, 51, 42
1, 186000, Note_on_c, 9, 49, 66
1, 186000, Note_on_c, 9, 52, 63
1, 186000, Note_on_c, 9, 35, 111
1, 186010, Note_on_c, 9, 46, 0
1, 186010, Note_on_c, 9, 51, 0
1, 186010, Note_on_c, 9, 49, 0
1, 186010, Note_on_c, 9, 52, 0
1, 186239, Note_on_c, 9, 35, 0
1, 186240, Note_on_c, 9, 51, 40
1, 186240, Note_on_c, 9, 42, 64
1, 186250, Note_on_c, 9, 51, 0
1, 186250, Note_on_c, 9, 42, 0
1, 186480, Note_on_c, 9, 51, 50
1, 186480, Note_on_c, 9, 42, 72
1, 186490, Note_on_c, 9, 51, 0
1, 186490, Note_on_c, 9, 42, 0
1, 186720, Note_on_c, 9, 38, 127
1, 186720, Note_on_c, 9, 40, 117
1, 186720, Note_on_c, 9, 51, 51
1, 186720, Note_on_c, 9, 42, 75
1, 186724, Note_on_c, 9, 51, 0
1, 186724, Note_on_c, 9, 42, 0
1, 186839, Note_on_c, 9, 38, 0
1, 186839, Note_on_c, 9, 40, 0
1, 186840, Note_on_c, 9, 51, 43
1, 186840, Note_on_c, 9, 42, 47
1, 186844, Note_on_c, 9, 51, 0
1, 186844, Note_on_c, 9, 42, 0
1, 186960, Note_on_c, 9, 51, 49
1, 186960, Note_on_c, 9, 42, 69
1, 186964, Note_on_c, 9, 51, 0
1, 186964, Note_on_c, 9, 42, 0
1, 187080, Note_on_c, 9, 51, 42
1, 187080, Note_on_c, 9, 42, 43
1, 187084, Note_on_c, 9, 51, 0
1, 187084, Note_on_c, 9, 42, 0
1, 187200, Note_on_c, 9, 51, 51
1, 187200, Note_on_c, 9, 42, 76
1, 187200, Note_on_c, 9, 35, 104
1, 187210, Note_on_c, 9, 51, 0
1, 187210, Note_on_c, 9, 42, 0
1, 187439, Note_on_c, 9, 35, 0
1, 187440, Note_on_c, 9, 51, 50
1, 187440, Note_on_c, 9, 42, 72
1, 187440, Note_on_c, 9, 35, 104
1, 187449, Note_on_c, 9, 51, 0
1, 187449, Note_on_c, 9, 42, 0
1, 187665, Note_on_c, 9, 51, 46
1, 187665, Note_on_c, 9, 51, 0
1, 187665, Note_on_c, 9, 42, 57
1, 187665, Note_on_c, 9, 42, 0
1, 187679, Note_on_c, 9, 35, 0
1, 187680, Note_on_c, 9, 38, 126
1, 187680, Note_on_c, 9, 40, 116
1, 187919, Note_on_c, 9, 38, 0
1, 187919, Note_on_c, 9, 40, 0
1, 187920, Note_on_c, 9, 51, 49
1, 187920, Note_on_c, 9, 42, 69
1, 187924, Note_on_c, 9, 51, 0
1, 187924, Note_on_c, 9, 42, 0
1, 188040, Note_on_c, 9, 51, 42
1, 188040, Note_on_c, 9, 42, 41
1, 188044, Note_on_c, 9, 51, 0
1, 188044, Note_on_c, 9, 42, 0
1, 188160, Note_on_c, 9, 51, 51
1, 188160, Note_on_c, 9, 42, 74
1, 188160, Note_on_c, 9, 35, 102
1, 188164, Note_on_c, 9, 51, 0
1, 188164, Note_on_c, 9, 42, 0
1, 188280, Note_on_c, 9, 51, 45
1, 188280, Note_on_c, 9, 42, 53
1, 188284, Note_on_c, 9, 51, 0
1, 188284, Note_on_c, 9, 42, 0
1, 188399, Note_on_c, 9, 35, 0
1, 188400, Note_on_c, 9, 51, 50
1, 188400, Note_on_c, 9, 42, 72
1, 188400, Note_on_c, 9, 35, 104
1, 188409, Note_on_c, 9, 51, 0
1, 188409, Note_on_c, 9, 42, 0
1, 188625, Note_on_c, 9, 51, 46
1, 188625, Note_on_c, 9, 51, 0
1, 188625, Note_on_c, 9, 42, 59
1, 188625, Note_on_c, 9, 42, 0
1, 188639, Note_on_c, 9, 35, 0
1, 188640, Note_on_c, 9, 38, 125
1, 188640, Note_on_c, 9, 40, 115
1, 188879, Note_on_c, 9, 38, 0
1, 188879, Note_on_c, 9, 40, 0
1, 188880, Note_on_c, 9, 51, 47
1, 188880, Note_on_c, 9, 42, 63
1, 188884, Note_on_c, 9, 51, 0
1, 188884, Note_on_c, 9, 42, 0
1, 189000, Note_on_c, 9, 51, 43
1, 189000, Note_on_c, 9, 42, 45
1, 189004, Note_on_c, 9, 51, 0
1, 189004, Note_on_c, 9, 42, 0
1, 189120, Note_on_c, 9, 51, 47
1, 189120, Note_on_c, 9, 42, 63
1, 189120, Note_on_c, 9, 35, 106
1, 189124, Note_on_c, 9, 51, 0
1, 189124, Note_on_c, 9, 42, 0
1, 189240, Note_on_c, 9, 51, 44
1, 189240, Note_on_c, 9, 42, 49
1, 189244, Note_on_c, 9, 51, 0
1, 189244, Note_on_c, 9, 42, 0
1, 189359, Note_on_c, 9, 35, 0
1, 189360, Note_on_c, 9, 51, 50
1, 189360, Note_on_c, 9, 42, 72
1, 189360, Note_on_c, 9, 35, 108
1, 189370, Note_on_c, 9, 51, 0
1, 189370, Note_on_c, 9, 42, 0
1, 189599, Note_on_c, 9, 35, 0
1, 189600, Note_on_c, 9, 38, 125
1, 189600, Note_on_c, 9, 40, 115
1, 189600, Note_on_c, 9, 51, 47
1, 189600, Note_on_c, 9, 42, 61
1, 189610, Note_on_c, 9, 51, 0
1, 189610, Note_on_c, 9, 42, 0
1, 189839, Note_on_c, 9, 38, 0
1, 189839, Note_on_c, 9, 40, 0
1, 189840, Note_on_c, 9, 46, 67
1, 189840, Note_on_c, 9, 51, 42
1, 189840, Note_on_c, 9, 49, 66
1, 189840, Note_on_c, 9, 52, 63
1, 189840, Note_on_c, 9, 35, 108
1, 189850, Note_on_c, 9, 46, 0
1, 189850, Note_on_c, 9, 51, 0
1, 189850, Note_on_c, 9, 49, 0
1, 189850, Note_on_c, 9, 52, 0
1, 190079, Note_on_c, 9, 35, 0
1, 190080, Note_on_c, 9, 51, 40
1, 190080, Note_on_c, 9, 42, 55
1, 190090, Note_on_c, 9, 51, 0
1, 190090, Note_on_c, 9, 42, 0
1, 190320, Note_on_c, 9, 51, 51
1, 190320, Note_on_c, 9, 42, 76
1, 190330, Note_on_c, 9, 51, 0
1, 190330, Note_on_c, 9, 42, 0
1, 190560, Note_on_c, 9, 38, 127
1, 190560, Note_on_c, 9, 40, 117
1, 190560, Note_on_c, 9, 51, 51
1, 190560, Note_on_c, 9, 42, 75
1, 190564, Note_on_c, 9, 51, 0
1, 190564, Note_on_c, 9, 42, 0
1, 190679, Note_on_c, 9, 38, 0
1, 190679, Note_on_c, 9, 40, 0
1, 190680, Note_on_c, 9, 51, 46
1, 190680, Note_on_c, 9, 42, 55
1, 190684, Note_on_c, 9, 51, 0
1, 190684, Note_on_c, 9, 42, 0
1, 190800, Note_on_c, 9, 51, 44
1, 190800, Note_on_c, 9, 42, 49
1, 190804, Note_on_c, 9, 51, 0
1, 190804, Note_on_c, 9, 42, 0
1, 190920, Note_on_c, 9, 51, 44
1, 190920, Note_on_c, 9, 42, 49
1, 190924, Note_on_c, 9, 51, 0
1, 190924, Note_on_c, 9, 42, 0
1, 191040, Note_on_c, 9, 51, 51
1, 191040, Note_on_c, 9, 42, 75
1, 191040, Note_on_c, 9, 35, 108
1, 191050, Note_on_c, 9, 51, 0
1, 191050, Note_on_c, 9, 42, 0
1, 191279, Note_on_c, 9, 35, 0
1, 191280, Note_on_c, 9, 51, 50
1, 191280, Note_on_c, 9, 42, 72
1, 191280, Note_on_c, 9, 35, 104
1, 191290, Note_on_c, 9, 51, 0
1, 191290, Note_on_c, 9, 42, 0
1, 191519, Note_on_c, 9, 35, 0
1, 191520, Note_on_c, 9, 38, 127
1, 191520, Note_on_c, 9, 40, 117
1, 191520, Note_on_c, 9, 51, 46
1, 191520, Note_on_c, 9, 42, 59
1, 191530, Note_on_c, 9, 51, 0
1, 191530, Note_on_c, 9, 42, 0
1, 191759, Note_on_c, 9, 38, 0
1, 191759, Note_on_c, 9, 40, 0
1, 191760, Note_on_c, 9, 51, 50
1, 191760, Note_on_c, 9, 42, 72
1, 191764, Note_on_c, 9, 51, 0
1, 191764, Note_on_c, 9, 42, 0
1, 191880, Note_on_c, 9, 51, 42
1, 191880, Note_on_c, 9, 42, 43
1, 191884, Note_on_c, 9, 51, 0
1, 191884, Note_on_c, 9, 42, 0
1, 192000, Note_on_c, 9, 51, 48
1, 192000, Note_on_c, 9, 42, 65
1, 192000, Note_on_c, 9, 35, 104
1, 192004, Note_on_c, 9, 51, 0
1, 192004, Note_on_c, 9, 42, 0
1, 192120, Note_on_c, 9, 51, 42
1, 192120, Note_on_c, 9, 42, 43
1, 192124, Note_on_c, 9, 51, 0
1, 192124, Note_on_c, 9, 42, 0
1, 192239, Note_on_c, 9, 35, 0
1, 192240, Note_on_c, 9, 51, 49
1, 192240, Note_on_c, 9, 42, 67
1, 192240, Note_on_c, 9, 35, 108
1, 192249, Note_on_c, 9, 51, 0
1, 192249, Note_on_c, 9, 42, 0
1, 192465, Note_on_c, 9, 51, 48
1, 192465, Note_on_c, 9, 51, 0
1, 192465, Note_on_c, 9, 42, 65
1, 192465, Note_on_c, 9, 42, 0
1, 192479, Note_on_c, 9, 35, 0
1, 192480, Note_on_c, 9, 38, 125
1, 192659, Note_on_c, 9, 38, 0
1, 192705, Note_on_c, 9, 38, 124
1, 192705, Note_on_c, 9, 27, 120
1, 192705, Note_on_c, 9, 51, 50
1, 192705, Note_on_c, 9, 42, 72
1, 192705, Note_on_c, 9, 55, 23
1, 192707, Note_on_c, 9, 51, 0
1, 192707, Note_on_c, 9, 42, 0
1, 192707, Note_on_c, 9, 55, 0
1, 192764, Note_on_c, 9, 38, 0
1, 192764, Note_on_c, 9, 27, 0
1, 192810, Note_on_c, 9, 38, 57
1, 192810, Note_on_c, 9, 27, 65
1, 192810, Note_on_c, 9, 51, 42
1, 192810, Note_on_c, 9, 42, 41
1, 192810, Note_on_c, 9, 55, 23
1, 192815, Note_on_c, 9, 51, 0
1, 192815, Note_on_c, 9, 42, 0
1, 192815, Note_on_c, 9, 55, 0
1, 192929, Note_on_c, 9, 38, 0
1, 192929, Note_on_c, 9, 27, 0
1, 192960, Note_on_c, 9, 51, 51
1, 192960, Note_on_c, 9, 42, 74
1, 192960, Note_on_c, 9, 35, 106
1, 192963, Note_on_c, 9, 51, 0
1, 192963, Note_on_c, 9, 42, 0
1, 193050, Note_on_c, 9, 38, 98
1, 193050, Note_on_c, 9, 27, 88
1, 193050, Note_on_c, 9, 55, 23
1, 193054, Note_on_c, 9, 55, 0
1, 193169, Note_on_c, 9, 38, 0
1, 193169, Note_on_c, 9, 27, 0
1, 193170, Note_on_c, 9, 38, 121
1, 193170, Note_on_c, 9, 27, 108
1, 193170, Note_on_c, 9, 51, 46
1, 193170, Note_on_c, 9, 42, 55
1, 193175, Note_on_c, 9, 51, 0
1, 193175, Note_on_c, 9, 42, 0
1, 193199, Note_on_c, 9, 35, 0
1, 193200, Note_on_c, 9, 35, 106
1, 193289, Note_on_c, 9, 38, 0
1, 193289, Note_on_c, 9, 27, 0
1, 193320, Note_on_c, 9, 41, 68
1, 193320, Note_on_c, 9, 55, 23
1, 193322, Note_on_c, 9, 55, 0
1, 193379, Note_on_c, 9, 41, 0
1, 193410, Note_on_c, 9, 38, 126
1, 193410, Note_on_c, 9, 27, 122
1, 193410, Note_on_c, 9, 51, 51
1, 193410, Note_on_c, 9, 42, 74
1, 193410, Note_on_c, 9, 55, 23
1, 193420, Note_on_c, 9, 51, 0
1, 193420, Note_on_c, 9, 42, 0
1, 193420, Note_on_c, 9, 55, 0
1, 193439, Note_on_c, 9, 35, 0
1, 193529, Note_on_c, 9, 38, 0
1, 193529, Note_on_c, 9, 27, 0
1, 193680, Note_on_c, 9, 41, 78
1, 193680, Note_on_c, 9, 46, 65
1, 193680, Note_on_c, 9, 51, 42
1, 193680, Note_on_c, 9, 49, 76
1, 193680, Note_on_c, 9, 52, 73
1, 193680, Note_on_c, 9, 35, 108
1, 193690, Note_on_c, 9, 46, 0
1, 193690, Note_on_c, 9, 51, 0
1, 193690, Note_on_c, 9, 49, 0
1, 193690, Note_on_c, 9, 52, 0
1, 193919, Note_on_c, 9, 41, 0
1, 193919, Note_on_c, 9, 35, 0
1, 193920, End_track
0, 0, End_of_file
