0, 0, Header, 1, 1, 480
1, 0, Start_track
1, 0, Title_t, "Drumset"
1, 0, Time_signature, 4, 2, 24, 8
1, 0, Key_signature, 0, "major"
1, 0, Tempo, 582524
1, 0, Control_c, 9, 121, 0
1, 0, Program_c, 9, 0
1, 0, Control_c, 9, 7, 100
1, 0, Control_c, 9, 10, 64
1, 0, Control_c, 9, 91, 0
1, 0, Control_c, 9, 93, 0
1, 0, MIDI_port, 0
1, 1920, Note_on_c, 9, 42, 84
1, 1938, Note_on_c, 9, 42, 0
1, 2400, Note_on_c, 9, 42, 64
1, 2418, Note_on_c, 9, 42, 0
1, 2880, Note_on_c, 9, 42, 64
1, 2898, Note_on_c, 9, 42, 0
1, 3360, Note_on_c, 9, 42, 64
1, 3378, Note_on_c, 9, 42, 0
1, 10920, Note_on_c, 9, 40, 87
1, 11039, Note_on_c, 9, 40, 0
1, 11040, Note_on_c, 9, 40, 77
1, 11279, Note_on_c, 9, 40, 0
1, 11280, Note_on_c, 9, 45, 94
1, 11519, Note_on_c, 9, 45, 0
1, 11520, Note_on_c, 9, 42, 86
1, 11520, Note_on_c, 9, 49, 71
1, 11520, Note_on_c, 9, 35, 108
1, 11528, Note_on_c, 9, 42, 0
1, 11528, Note_on_c, 9, 49, 0
1, 11760, Note_on_c, 9, 42, 36
1, 11768, Note_on_c, 9, 42, 0
1, 11999, Note_on_c, 9, 35, 0
1, 12000, Note_on_c, 9, 40, 89
1, 12000, Note_on_c, 9, 42, 91
1, 12003, Note_on_c, 9, 42, 0
1, 12119, Note_on_c, 9, 40, 0
1, 12120, Note_on_c, 9, 40, 37
1, 12239, Note_on_c, 9, 40, 0
1, 12240, Note_on_c, 9, 42, 43
1, 12248, Note_on_c, 9, 42, 0
1, 12480, Note_on_c, 9, 42, 95
1, 12480, Note_on_c, 9, 35, 105
1, 12488, Note_on_c, 9, 42, 0
1, 12720, Note_on_c, 9, 42, 38
1, 12728, Note_on_c, 9, 42, 0
1, 12959, Note_on_c, 9, 35, 0
1, 12960, Note_on_c, 9, 40, 89
1, 12960, Note_on_c, 9, 42, 92
1, 12963, Note_on_c, 9, 42, 0
1, 13079, Note_on_c, 9, 40, 0
1, 13080, Note_on_c, 9, 40, 45
1, 13199, Note_on_c, 9, 40, 0
1, 13200, Note_on_c, 9, 42, 47
1, 13203, Note_on_c, 9, 42, 0
1, 13320, Note_on_c, 9, 40, 50
1, 13379, Note_on_c, 9, 40, 0
1, 13380, Note_on_c, 9, 40, 32
1, 13439, Note_on_c, 9, 40, 0
1, 13440, Note_on_c, 9, 42, 86
1, 13440, Note_on_c, 9, 35, 108
1, 13448, Note_on_c, 9, 42, 0
1, 13680, Note_on_c, 9, 42, 36
1, 13688, Note_on_c, 9, 42, 0
1, 13919, Note_on_c, 9, 35, 0
1, 13920, Note_on_c, 9, 40, 89
1, 13920, Note_on_c, 9, 42, 91
1, 13923, Note_on_c, 9, 42, 0
1, 14039, Note_on_c, 9, 40, 0
1, 14040, Note_on_c, 9, 40, 37
1, 14159, Note_on_c, 9, 40, 0
1, 14160, Note_on_c, 9, 42, 43
1, 14168, Note_on_c, 9, 42, 0
1, 14400, Note_on_c, 9, 42, 95
1, 14400, Note_on_c, 9, 35, 105
1, 14408, Note_on_c, 9, 42, 0
1, 14640, Note_on_c, 9, 42, 38
1, 14648, Note_on_c, 9, 42, 0
1, 14879, Note_on_c, 9, 35, 0
1, 14880, Note_on_c, 9, 40, 89
1, 14880, Note_on_c, 9, 42, 92
1, 14883, Note_on_c, 9, 42, 0
1, 14999, Note_on_c, 9, 40, 0
1, 15000, Note_on_c, 9, 40, 45
1, 15000, Note_on_c, 9, 44, 84
1, 15013, Note_on_c, 9, 44, 0
1, 15119, Note_on_c, 9, 40, 0
1, 15120, Note_on_c, 9, 46, 61
1, 15128, Note_on_c, 9, 46, 0
1, 15360, Note_on_c, 9, 42, 86
1, 15360, Note_on_c, 9, 35, 108
1, 15368, Note_on_c, 9, 42, 0
1, 15600, Note_on_c, 9, 42, 36
1, 15608, Note_on_c, 9, 42, 0
1, 15839, Note_on_c, 9, 35, 0
1, 15840, Note_on_c, 9, 40, 89
1, 15840, Note_on_c, 9, 42, 91
1, 15843, Note_on_c, 9, 42, 0
1, 15959, Note_on_c, 9, 40, 0
1, 15960, Note_on_c, 9, 40, 37
1, 16079, Note_on_c, 9, 40, 0
1, 16080, Note_on_c, 9, 42, 43
1, 16088, Note_on_c, 9, 42, 0
1, 16320, Note_on_c, 9, 42, 95
1, 16320, Note_on_c, 9, 35, 105
1, 16328, Note_on_c, 9, 42, 0
1, 16560, Note_on_c, 9, 42, 38
1, 16568, Note_on_c, 9, 42, 0
1, 16799, Note_on_c, 9, 35, 0
1, 16800, Note_on_c, 9, 40, 89
1, 16800, Note_on_c, 9, 42, 92
1, 16803, Note_on_c, 9, 42, 0
1, 16919, Note_on_c, 9, 40, 0
1, 16920, Note_on_c, 9, 40, 45
1, 17039, Note_on_c, 9, 40, 0
1, 17040, Note_on_c, 9, 42, 47
1, 17043, Note_on_c, 9, 42, 0
1, 17160, Note_on_c, 9, 40, 50
1, 17219, Note_on_c, 9, 40, 0
1, 17220, Note_on_c, 9, 40, 32
1, 17279, Note_on_c, 9, 40, 0
1, 17280, Note_on_c, 9, 42, 86
1, 17280, Note_on_c, 9, 35, 108
1, 17288, Note_on_c, 9, 42, 0
1, 17520, Note_on_c, 9, 42, 36
1, 17528, Note_on_c, 9, 42, 0
1, 17759, Note_on_c, 9, 35, 0
1, 17760, Note_on_c, 9, 40, 89
1, 17760, Note_on_c, 9, 42, 91
1, 17763, Note_on_c, 9, 42, 0
1, 17879, Note_on_c, 9, 40, 0
1, 17880, Note_on_c, 9, 40, 37
1, 17999, Note_on_c, 9, 40, 0
1, 18000, Note_on_c, 9, 42, 43
1, 18008, Note_on_c, 9, 42, 0
1, 18240, Note_on_c, 9, 46, 70
1, 18240, Note_on_c, 9, 35, 105
1, 18253, Note_on_c, 9, 46, 0
1, 18479, Note_on_c, 9, 35, 0
1, 18480, Note_on_c, 9, 44, 80
1, 18488, Note_on_c, 9, 44, 0
1, 18600, Note_on_c, 9, 40, 87
1, 18719, Note_on_c, 9, 40, 0
1, 18720, Note_on_c, 9, 40, 88
1, 18720, Note_on_c, 9, 42, 92
1, 18728, Note_on_c, 9, 42, 0
1, 18959, Note_on_c, 9, 40, 0
1, 18960, Note_on_c, 9, 42, 61
1, 18960, Note_on_c, 9, 35, 105
1, 18968, Note_on_c, 9, 42, 0
1, 19199, Note_on_c, 9, 35, 0
1, 19200, Note_on_c, 9, 42, 86
1, 19200, Note_on_c, 9, 49, 71
1, 19200, Note_on_c, 9, 35, 108
1, 19208, Note_on_c, 9, 42, 0
1, 19208, Note_on_c, 9, 49, 0
1, 19440, Note_on_c, 9, 42, 36
1, 19448, Note_on_c, 9, 42, 0
1, 19679, Note_on_c, 9, 35, 0
1, 19680, Note_on_c, 9, 40, 89
1, 19680, Note_on_c, 9, 42, 91
1, 19688, Note_on_c, 9, 42, 0
1, 19919, Note_on_c, 9, 40, 0
1, 19920, Note_on_c, 9, 42, 43
1, 19928, Note_on_c, 9, 42, 0
1, 20160, Note_on_c, 9, 42, 95
1, 20160, Note_on_c, 9, 35, 105
1, 20168, Note_on_c, 9, 42, 0
1, 20400, Note_on_c, 9, 42, 38
1, 20408, Note_on_c, 9, 42, 0
1, 20639, Note_on_c, 9, 35, 0
1, 20640, Note_on_c, 9, 40, 89
1, 20640, Note_on_c, 9, 42, 92
1, 20648, Note_on_c, 9, 42, 0
1, 20879, Note_on_c, 9, 40, 0
1, 20880, Note_on_c, 9, 42, 47
1, 20888, Note_on_c, 9, 42, 0
1, 21120, Note_on_c, 9, 42, 86
1, 21120, Note_on_c, 9, 35, 108
1, 21128, Note_on_c, 9, 42, 0
1, 21360, Note_on_c, 9, 42, 36
1, 21368, Note_on_c, 9, 42, 0
1, 21599, Note_on_c, 9, 35, 0
1, 21600, Note_on_c, 9, 40, 89
1, 21600, Note_on_c, 9, 42, 91
1, 21603, Note_on_c, 9, 42, 0
1, 21719, Note_on_c, 9, 40, 0
1, 21720, Note_on_c, 9, 40, 37
1, 21839, Note_on_c, 9, 40, 0
1, 21840, Note_on_c, 9, 42, 43
1, 21848, Note_on_c, 9, 42, 0
1, 22080, Note_on_c, 9, 42, 95
1, 22080, Note_on_c, 9, 35, 105
1, 22088, Note_on_c, 9, 42, 0
1, 22320, Note_on_c, 9, 42, 38
1, 22328, Note_on_c, 9, 42, 0
1, 22559, Note_on_c, 9, 35, 0
1, 22560, Note_on_c, 9, 40, 89
1, 22560, Note_on_c, 9, 42, 92
1, 22563, Note_on_c, 9, 42, 0
1, 22679, Note_on_c, 9, 40, 0
1, 22680, Note_on_c, 9, 40, 45
1, 22799, Note_on_c, 9, 40, 0
1, 22800, Note_on_c, 9, 42, 61
1, 22803, Note_on_c, 9, 42, 0
1, 22920, Note_on_c, 9, 40, 50
1, 22979, Note_on_c, 9, 40, 0
1, 22980, Note_on_c, 9, 40, 32
1, 23039, Note_on_c, 9, 40, 0
1, 23040, Note_on_c, 9, 42, 86
1, 23040, Note_on_c, 9, 35, 108
1, 23048, Note_on_c, 9, 42, 0
1, 23280, Note_on_c, 9, 42, 36
1, 23288, Note_on_c, 9, 42, 0
1, 23519, Note_on_c, 9, 35, 0
1, 23520, Note_on_c, 9, 40, 89
1, 23520, Note_on_c, 9, 42, 91
1, 23523, Note_on_c, 9, 42, 0
1, 23639, Note_on_c, 9, 40, 0
1, 23640, Note_on_c, 9, 40, 37
1, 23759, Note_on_c, 9, 40, 0
1, 23760, Note_on_c, 9, 42, 43
1, 23768, Note_on_c, 9, 42, 0
1, 24000, Note_on_c, 9, 42, 95
1, 24000, Note_on_c, 9, 35, 105
1, 24008, Note_on_c, 9, 42, 0
1, 24240, Note_on_c, 9, 42, 38
1, 24248, Note_on_c, 9, 42, 0
1, 24479, Note_on_c, 9, 35, 0
1, 24480, Note_on_c, 9, 40, 89
1, 24480, Note_on_c, 9, 42, 92
1, 24483, Note_on_c, 9, 42, 0
1, 24599, Note_on_c, 9, 40, 0
1, 24600, Note_on_c, 9, 40, 45
1, 24719, Note_on_c, 9, 40, 0
1, 24720, Note_on_c, 9, 42, 47
1, 24728, Note_on_c, 9, 42, 0
1, 24960, Note_on_c, 9, 42, 86
1, 24960, Note_on_c, 9, 35, 108
1, 24968, Note_on_c, 9, 42, 0
1, 25200, Note_on_c, 9, 42, 36
1, 25208, Note_on_c, 9, 42, 0
1, 25439, Note_on_c, 9, 35, 0
1, 25440, Note_on_c, 9, 40, 89
1, 25440, Note_on_c, 9, 42, 91
1, 25443, Note_on_c, 9, 42, 0
1, 25559, Note_on_c, 9, 40, 0
1, 25560, Note_on_c, 9, 40, 37
1, 25679, Note_on_c, 9, 40, 0
1, 25680, Note_on_c, 9, 42, 43
1, 25688, Note_on_c, 9, 42, 0
1, 25920, Note_on_c, 9, 42, 95
1, 25920, Note_on_c, 9, 35, 105
1, 25928, Note_on_c, 9, 42, 0
1, 26160, Note_on_c, 9, 42, 38
1, 26168, Note_on_c, 9, 42, 0
1, 26399, Note_on_c, 9, 35, 0
1, 26400, Note_on_c, 9, 40, 89
1, 26400, Note_on_c, 9, 42, 92
1, 26403, Note_on_c, 9, 42, 0
1, 26519, Note_on_c, 9, 40, 0
1, 26520, Note_on_c, 9, 40, 45
1, 26639, Note_on_c, 9, 40, 0
1, 26640, Note_on_c, 9, 46, 61
1, 26648, Note_on_c, 9, 46, 0
1, 26880, Note_on_c, 9, 42, 86
1, 26880, Note_on_c, 9, 35, 108
1, 26888, Note_on_c, 9, 42, 0
1, 27120, Note_on_c, 9, 42, 36
1, 27128, Note_on_c, 9, 42, 0
1, 27359, Note_on_c, 9, 35, 0
1, 27360, Note_on_c, 9, 40, 89
1, 27360, Note_on_c, 9, 42, 91
1, 27363, Note_on_c, 9, 42, 0
1, 27479, Note_on_c, 9, 40, 0
1, 27480, Note_on_c, 9, 40, 37
1, 27599, Note_on_c, 9, 40, 0
1, 27600, Note_on_c, 9, 42, 43
1, 27608, Note_on_c, 9, 42, 0
1, 27840, Note_on_c, 9, 42, 95
1, 27840, Note_on_c, 9, 35, 105
1, 27848, Note_on_c, 9, 42, 0
1, 28080, Note_on_c, 9, 42, 38
1, 28088, Note_on_c, 9, 42, 0
1, 28319, Note_on_c, 9, 35, 0
1, 28320, Note_on_c, 9, 40, 89
1, 28320, Note_on_c, 9, 42, 92
1, 28323, Note_on_c, 9, 42, 0
1, 28439, Note_on_c, 9, 40, 0
1, 28440, Note_on_c, 9, 40, 45
1, 28559, Note_on_c, 9, 40, 0
1, 28560, Note_on_c, 9, 42, 47
1, 28568, Note_on_c, 9, 42, 0
1, 28800, Note_on_c, 9, 42, 86
1, 28800, Note_on_c, 9, 35, 108
1, 28808, Note_on_c, 9, 42, 0
1, 29040, Note_on_c, 9, 42, 36
1, 29048, Note_on_c, 9, 42, 0
1, 29279, Note_on_c, 9, 35, 0
1, 29280, Note_on_c, 9, 40, 89
1, 29280, Note_on_c, 9, 42, 91
1, 29283, Note_on_c, 9, 42, 0
1, 29399, Note_on_c, 9, 40, 0
1, 29400, Note_on_c, 9, 40, 37
1, 29519, Note_on_c, 9, 40, 0
1, 29520, Note_on_c, 9, 42, 43
1, 29528, Note_on_c, 9, 42, 0
1, 29760, Note_on_c, 9, 42, 95
1, 29760, Note_on_c, 9, 35, 105
1, 29768, Note_on_c, 9, 42, 0
1, 30000, Note_on_c, 9, 42, 38
1, 30008, Note_on_c, 9, 42, 0
1, 30119, Note_on_c, 9, 35, 0
1, 30120, Note_on_c, 9, 35, 105
1, 30239, Note_on_c, 9, 35, 0
1, 30240, Note_on_c, 9, 40, 89
1, 30240, Note_on_c, 9, 42, 92
1, 30248, Note_on_c, 9, 42, 0
1, 30479, Note_on_c, 9, 40, 0
1, 30480, Note_on_c, 9, 42, 61
1, 30488, Note_on_c, 9, 42, 0
1, 30720, Note_on_c, 9, 42, 86
1, 30720, Note_on_c, 9, 35, 108
1, 30728, Note_on_c, 9, 42, 0
1, 30960, Note_on_c, 9, 42, 36
1, 30968, Note_on_c, 9, 42, 0
1, 31199, Note_on_c, 9, 35, 0
1, 31200, Note_on_c, 9, 40, 89
1, 31200, Note_on_c, 9, 42, 91
1, 31203, Note_on_c, 9, 42, 0
1, 31319, Note_on_c, 9, 40, 0
1, 31320, Note_on_c, 9, 40, 45
1, 31439, Note_on_c, 9, 40, 0
1, 31440, Note_on_c, 9, 42, 43
1, 31448, Note_on_c, 9, 42, 0
1, 31680, Note_on_c, 9, 42, 95
1, 31680, Note_on_c, 9, 35, 105
1, 31688, Note_on_c, 9, 42, 0
1, 31920, Note_on_c, 9, 42, 38
1, 31928, Note_on_c, 9, 42, 0
1, 32159, Note_on_c, 9, 35, 0
1, 32160, Note_on_c, 9, 40, 89
1, 32160, Note_on_c, 9, 42, 92
1, 32163, Note_on_c, 9, 42, 0
1, 32279, Note_on_c, 9, 40, 0
1, 32280, Note_on_c, 9, 40, 45
1, 32399, Note_on_c, 9, 40, 0
1, 32400, Note_on_c, 9, 42, 47
1, 32403, Note_on_c, 9, 42, 0
1, 32520, Note_on_c, 9, 40, 50
1, 32579, Note_on_c, 9, 40, 0
1, 32580, Note_on_c, 9, 40, 32
1, 32639, Note_on_c, 9, 40, 0
1, 32640, Note_on_c, 9, 42, 86
1, 32640, Note_on_c, 9, 35, 108
1, 32648, Note_on_c, 9, 42, 0
1, 32880, Note_on_c, 9, 42, 36
1, 32888, Note_on_c, 9, 42, 0
1, 33119, Note_on_c, 9, 35, 0
1, 33120, Note_on_c, 9, 40, 89
1, 33120, Note_on_c, 9, 42, 91
1, 33123, Note_on_c, 9, 42, 0
1, 33239, Note_on_c, 9, 40, 0
1, 33240, Note_on_c, 9, 40, 37
1, 33359, Note_on_c, 9, 40, 0
1, 33360, Note_on_c, 9, 42, 43
1, 33368, Note_on_c, 9, 42, 0
1, 33600, Note_on_c, 9, 46, 74
1, 33600, Note_on_c, 9, 35, 105
1, 33608, Note_on_c, 9, 46, 0
1, 33840, Note_on_c, 9, 40, 50
1, 33959, Note_on_c, 9, 40, 0
1, 33960, Note_on_c, 9, 40, 87
1, 34079, Note_on_c, 9, 35, 0
1, 34079, Note_on_c, 9, 40, 0
1, 34080, Note_on_c, 9, 40, 88
1, 34080, Note_on_c, 9, 42, 92
1, 34088, Note_on_c, 9, 42, 0
1, 34319, Note_on_c, 9, 40, 0
1, 34320, Note_on_c, 9, 42, 61
1, 34320, Note_on_c, 9, 49, 60
1, 34320, Note_on_c, 9, 35, 105
1, 34328, Note_on_c, 9, 42, 0
1, 34328, Note_on_c, 9, 49, 0
1, 34559, Note_on_c, 9, 35, 0
1, 34560, Note_on_c, 9, 42, 86
1, 34560, Note_on_c, 9, 49, 71
1, 34560, Note_on_c, 9, 55, 36
1, 34560, Note_on_c, 9, 35, 108
1, 34568, Note_on_c, 9, 42, 0
1, 34568, Note_on_c, 9, 49, 0
1, 34568, Note_on_c, 9, 55, 0
1, 34800, Note_on_c, 9, 42, 36
1, 34808, Note_on_c, 9, 42, 0
1, 35039, Note_on_c, 9, 35, 0
1, 35040, Note_on_c, 9, 40, 89
1, 35040, Note_on_c, 9, 42, 91
1, 35040, Note_on_c, 9, 55, 36
1, 35043, Note_on_c, 9, 42, 0
1, 35043, Note_on_c, 9, 55, 0
1, 35159, Note_on_c, 9, 40, 0
1, 35160, Note_on_c, 9, 40, 37
1, 35279, Note_on_c, 9, 40, 0
1, 35280, Note_on_c, 9, 42, 43
1, 35288, Note_on_c, 9, 42, 0
1, 35520, Note_on_c, 9, 42, 95
1, 35520, Note_on_c, 9, 55, 36
1, 35520, Note_on_c, 9, 35, 105
1, 35528, Note_on_c, 9, 42, 0
1, 35528, Note_on_c, 9, 55, 0
1, 35760, Note_on_c, 9, 42, 38
1, 35768, Note_on_c, 9, 42, 0
1, 35999, Note_on_c, 9, 35, 0
1, 36000, Note_on_c, 9, 40, 89
1, 36000, Note_on_c, 9, 42, 92
1, 36000, Note_on_c, 9, 55, 36
1, 36003, Note_on_c, 9, 42, 0
1, 36003, Note_on_c, 9, 55, 0
1, 36119, Note_on_c, 9, 40, 0
1, 36120, Note_on_c, 9, 40, 45
1, 36239, Note_on_c, 9, 40, 0
1, 36240, Note_on_c, 9, 42, 47
1, 36243, Note_on_c, 9, 42, 0
1, 36360, Note_on_c, 9, 40, 50
1, 36419, Note_on_c, 9, 40, 0
1, 36420, Note_on_c, 9, 40, 32
1, 36479, Note_on_c, 9, 40, 0
1, 36480, Note_on_c, 9, 42, 86
1, 36480, Note_on_c, 9, 55, 36
1, 36480, Note_on_c, 9, 35, 108
1, 36488, Note_on_c, 9, 42, 0
1, 36488, Note_on_c, 9, 55, 0
1, 36720, Note_on_c, 9, 42, 36
1, 36728, Note_on_c, 9, 42, 0
1, 36959, Note_on_c, 9, 35, 0
1, 36960, Note_on_c, 9, 40, 89
1, 36960, Note_on_c, 9, 42, 91
1, 36960, Note_on_c, 9, 55, 36
1, 36963, Note_on_c, 9, 42, 0
1, 36963, Note_on_c, 9, 55, 0
1, 37079, Note_on_c, 9, 40, 0
1, 37080, Note_on_c, 9, 40, 37
1, 37199, Note_on_c, 9, 40, 0
1, 37200, Note_on_c, 9, 42, 43
1, 37208, Note_on_c, 9, 42, 0
1, 37440, Note_on_c, 9, 42, 95
1, 37440, Note_on_c, 9, 55, 36
1, 37440, Note_on_c, 9, 35, 105
1, 37448, Note_on_c, 9, 42, 0
1, 37448, Note_on_c, 9, 55, 0
1, 37680, Note_on_c, 9, 42, 38
1, 37688, Note_on_c, 9, 42, 0
1, 37919, Note_on_c, 9, 35, 0
1, 37920, Note_on_c, 9, 40, 89
1, 37920, Note_on_c, 9, 42, 92
1, 37920, Note_on_c, 9, 55, 36
1, 37923, Note_on_c, 9, 42, 0
1, 37923, Note_on_c, 9, 55, 0
1, 38039, Note_on_c, 9, 40, 0
1, 38040, Note_on_c, 9, 40, 45
1, 38040, Note_on_c, 9, 44, 84
1, 38053, Note_on_c, 9, 44, 0
1, 38159, Note_on_c, 9, 40, 0
1, 38160, Note_on_c, 9, 46, 61
1, 38168, Note_on_c, 9, 46, 0
1, 38400, Note_on_c, 9, 42, 86
1, 38400, Note_on_c, 9, 55, 36
1, 38400, Note_on_c, 9, 35, 108
1, 38408, Note_on_c, 9, 42, 0
1, 38408, Note_on_c, 9, 55, 0
1, 38640, Note_on_c, 9, 42, 36
1, 38648, Note_on_c, 9, 42, 0
1, 38879, Note_on_c, 9, 35, 0
1, 38880, Note_on_c, 9, 40, 89
1, 38880, Note_on_c, 9, 42, 91
1, 38880, Note_on_c, 9, 55, 36
1, 38883, Note_on_c, 9, 42, 0
1, 38883, Note_on_c, 9, 55, 0
1, 38999, Note_on_c, 9, 40, 0
1, 39000, Note_on_c, 9, 40, 37
1, 39119, Note_on_c, 9, 40, 0
1, 39120, Note_on_c, 9, 42, 43
1, 39128, Note_on_c, 9, 42, 0
1, 39360, Note_on_c, 9, 42, 95
1, 39360, Note_on_c, 9, 55, 36
1, 39360, Note_on_c, 9, 35, 105
1, 39368, Note_on_c, 9, 42, 0
1, 39368, Note_on_c, 9, 55, 0
1, 39600, Note_on_c, 9, 42, 38
1, 39608, Note_on_c, 9, 42, 0
1, 39839, Note_on_c, 9, 35, 0
1, 39840, Note_on_c, 9, 40, 89
1, 39840, Note_on_c, 9, 42, 92
1, 39840, Note_on_c, 9, 55, 36
1, 39843, Note_on_c, 9, 42, 0
1, 39843, Note_on_c, 9, 55, 0
1, 39959, Note_on_c, 9, 40, 0
1, 39960, Note_on_c, 9, 40, 45
1, 40079, Note_on_c, 9, 40, 0
1, 40080, Note_on_c, 9, 42, 47
1, 40083, Note_on_c, 9, 42, 0
1, 40200, Note_on_c, 9, 40, 50
1, 40259, Note_on_c, 9, 40, 0
1, 40260, Note_on_c, 9, 40, 32
1, 40319, Note_on_c, 9, 40, 0
1, 40320, Note_on_c, 9, 42, 86
1, 40320, Note_on_c, 9, 55, 36
1, 40320, Note_on_c, 9, 35, 108
1, 40328, Note_on_c, 9, 42, 0
1, 40328, Note_on_c, 9, 55, 0
1, 40560, Note_on_c, 9, 42, 36
1, 40568, Note_on_c, 9, 42, 0
1, 40799, Note_on_c, 9, 35, 0
1, 40800, Note_on_c, 9, 40, 89
1, 40800, Note_on_c, 9, 42, 91
1, 40800, Note_on_c, 9, 55, 36
1, 40803, Note_on_c, 9, 42, 0
1, 40803, Note_on_c, 9, 55, 0
1, 40919, Note_on_c, 9, 40, 0
1, 40920, Note_on_c, 9, 40, 37
1, 41039, Note_on_c, 9, 40, 0
1, 41040, Note_on_c, 9, 42, 43
1, 41048, Note_on_c, 9, 42, 0
1, 41280, Note_on_c, 9, 42, 86
1, 41280, Note_on_c, 9, 55, 36
1, 41280, Note_on_c, 9, 35, 105
1, 41283, Note_on_c, 9, 42, 0
1, 41283, Note_on_c, 9, 55, 0
1, 41400, Note_on_c, 9, 40, 37
1, 41519, Note_on_c, 9, 40, 0
1, 41520, Note_on_c, 9, 42, 36
1, 41528, Note_on_c, 9, 42, 0
1, 41639, Note_on_c, 9, 35, 0
1, 41640, Note_on_c, 9, 35, 105
1, 41759, Note_on_c, 9, 35, 0
1, 41760, Note_on_c, 9, 40, 88
1, 41760, Note_on_c, 9, 42, 92
1, 41760, Note_on_c, 9, 55, 54
1, 41768, Note_on_c, 9, 42, 0
1, 41768, Note_on_c, 9, 55, 0
1, 41999, Note_on_c, 9, 40, 0
1, 42000, Note_on_c, 9, 42, 72
1, 42000, Note_on_c, 9, 35, 105
1, 42008, Note_on_c, 9, 42, 0
1, 42239, Note_on_c, 9, 35, 0
1, 42240, Note_on_c, 9, 42, 86
1, 42240, Note_on_c, 9, 49, 55
1, 42240, Note_on_c, 9, 55, 36
1, 42240, Note_on_c, 9, 35, 108
1, 42248, Note_on_c, 9, 42, 0
1, 42248, Note_on_c, 9, 49, 0
1, 42248, Note_on_c, 9, 55, 0
1, 42480, Note_on_c, 9, 42, 36
1, 42488, Note_on_c, 9, 42, 0
1, 42719, Note_on_c, 9, 35, 0
1, 42720, Note_on_c, 9, 40, 89
1, 42720, Note_on_c, 9, 42, 91
1, 42720, Note_on_c, 9, 55, 36
1, 42723, Note_on_c, 9, 42, 0
1, 42723, Note_on_c, 9, 55, 0
1, 42839, Note_on_c, 9, 40, 0
1, 42840, Note_on_c, 9, 40, 37
1, 42959, Note_on_c, 9, 40, 0
1, 42960, Note_on_c, 9, 42, 43
1, 42968, Note_on_c, 9, 42, 0
1, 43200, Note_on_c, 9, 42, 95
1, 43200, Note_on_c, 9, 55, 36
1, 43200, Note_on_c, 9, 35, 105
1, 43208, Note_on_c, 9, 42, 0
1, 43208, Note_on_c, 9, 55, 0
1, 43440, Note_on_c, 9, 42, 38
1, 43448, Note_on_c, 9, 42, 0
1, 43679, Note_on_c, 9, 35, 0
1, 43680, Note_on_c, 9, 40, 89
1, 43680, Note_on_c, 9, 42, 92
1, 43680, Note_on_c, 9, 55, 36
1, 43683, Note_on_c, 9, 42, 0
1, 43683, Note_on_c, 9, 55, 0
1, 43799, Note_on_c, 9, 40, 0
1, 43800, Note_on_c, 9, 40, 45
1, 43919, Note_on_c, 9, 40, 0
1, 43920, Note_on_c, 9, 42, 47
1, 43923, Note_on_c, 9, 42, 0
1, 44040, Note_on_c, 9, 40, 50
1, 44099, Note_on_c, 9, 40, 0
1, 44100, Note_on_c, 9, 40, 32
1, 44159, Note_on_c, 9, 40, 0
1, 44160, Note_on_c, 9, 42, 86
1, 44160, Note_on_c, 9, 55, 36
1, 44160, Note_on_c, 9, 35, 108
1, 44168, Note_on_c, 9, 42, 0
1, 44168, Note_on_c, 9, 55, 0
1, 44400, Note_on_c, 9, 42, 36
1, 44408, Note_on_c, 9, 42, 0
1, 44639, Note_on_c, 9, 35, 0
1, 44640, Note_on_c, 9, 40, 89
1, 44640, Note_on_c, 9, 42, 91
1, 44640, Note_on_c, 9, 55, 36
1, 44643, Note_on_c, 9, 42, 0
1, 44643, Note_on_c, 9, 55, 0
1, 44759, Note_on_c, 9, 40, 0
1, 44760, Note_on_c, 9, 40, 37
1, 44879, Note_on_c, 9, 40, 0
1, 44880, Note_on_c, 9, 42, 43
1, 44888, Note_on_c, 9, 42, 0
1, 45120, Note_on_c, 9, 42, 95
1, 45120, Note_on_c, 9, 55, 36
1, 45120, Note_on_c, 9, 35, 105
1, 45128, Note_on_c, 9, 42, 0
1, 45128, Note_on_c, 9, 55, 0
1, 45360, Note_on_c, 9, 42, 38
1, 45368, Note_on_c, 9, 42, 0
1, 45599, Note_on_c, 9, 35, 0
1, 45600, Note_on_c, 9, 40, 89
1, 45600, Note_on_c, 9, 42, 92
1, 45600, Note_on_c, 9, 55, 36
1, 45603, Note_on_c, 9, 42, 0
1, 45603, Note_on_c, 9, 55, 0
1, 45719, Note_on_c, 9, 40, 0
1, 45720, Note_on_c, 9, 40, 45
1, 45720, Note_on_c, 9, 44, 84
1, 45733, Note_on_c, 9, 44, 0
1, 45839, Note_on_c, 9, 40, 0
1, 45840, Note_on_c, 9, 46, 61
1, 45848, Note_on_c, 9, 46, 0
1, 46080, Note_on_c, 9, 42, 86
1, 46080, Note_on_c, 9, 55, 36
1, 46080, Note_on_c, 9, 35, 108
1, 46088, Note_on_c, 9, 42, 0
1, 46088, Note_on_c, 9, 55, 0
1, 46320, Note_on_c, 9, 42, 36
1, 46328, Note_on_c, 9, 42, 0
1, 46559, Note_on_c, 9, 35, 0
1, 46560, Note_on_c, 9, 40, 89
1, 46560, Note_on_c, 9, 42, 91
1, 46560, Note_on_c, 9, 55, 36
1, 46563, Note_on_c, 9, 42, 0
1, 46563, Note_on_c, 9, 55, 0
1, 46679, Note_on_c, 9, 40, 0
1, 46680, Note_on_c, 9, 40, 37
1, 46799, Note_on_c, 9, 40, 0
1, 46800, Note_on_c, 9, 42, 43
1, 46808, Note_on_c, 9, 42, 0
1, 47040, Note_on_c, 9, 42, 95
1, 47040, Note_on_c, 9, 55, 36
1, 47040, Note_on_c, 9, 35, 105
1, 47048, Note_on_c, 9, 42, 0
1, 47048, Note_on_c, 9, 55, 0
1, 47280, Note_on_c, 9, 42, 38
1, 47288, Note_on_c, 9, 42, 0
1, 47519, Note_on_c, 9, 35, 0
1, 47520, Note_on_c, 9, 40, 89
1, 47520, Note_on_c, 9, 42, 92
1, 47520, Note_on_c, 9, 55, 36
1, 47523, Note_on_c, 9, 42, 0
1, 47523, Note_on_c, 9, 55, 0
1, 47639, Note_on_c, 9, 40, 0
1, 47640, Note_on_c, 9, 40, 45
1, 47759, Note_on_c, 9, 40, 0
1, 47760, Note_on_c, 9, 42, 47
1, 47763, Note_on_c, 9, 42, 0
1, 47880, Note_on_c, 9, 40, 50
1, 47939, Note_on_c, 9, 40, 0
1, 47940, Note_on_c, 9, 40, 32
1, 47999, Note_on_c, 9, 40, 0
1, 48000, Note_on_c, 9, 46, 68
1, 48000, Note_on_c, 9, 55, 36
1, 48000, Note_on_c, 9, 35, 108
1, 48008, Note_on_c, 9, 46, 0
1, 48008, Note_on_c, 9, 55, 0
1, 48240, Note_on_c, 9, 46, 36
1, 48248, Note_on_c, 9, 46, 0
1, 48479, Note_on_c, 9, 35, 0
1, 48480, Note_on_c, 9, 40, 89
1, 48480, Note_on_c, 9, 46, 76
1, 48480, Note_on_c, 9, 55, 36
1, 48483, Note_on_c, 9, 46, 0
1, 48483, Note_on_c, 9, 55, 0
1, 48599, Note_on_c, 9, 40, 0
1, 48600, Note_on_c, 9, 40, 37
1, 48719, Note_on_c, 9, 40, 0
1, 48720, Note_on_c, 9, 46, 74
1, 48728, Note_on_c, 9, 46, 0
1, 48960, Note_on_c, 9, 48, 94
1, 48960, Note_on_c, 9, 35, 106
1, 49079, Note_on_c, 9, 48, 0
1, 49080, Note_on_c, 9, 40, 75
1, 49199, Note_on_c, 9, 40, 0
1, 49200, Note_on_c, 9, 40, 83
1, 49319, Note_on_c, 9, 35, 0
1, 49319, Note_on_c, 9, 40, 0
1, 49320, Note_on_c, 9, 47, 88
1, 49320, Note_on_c, 9, 35, 110
1, 49439, Note_on_c, 9, 47, 0
1, 49439, Note_on_c, 9, 35, 0
1, 49440, Note_on_c, 9, 35, 110
1, 49440, Note_on_c, 9, 43, 73
1, 49679, Note_on_c, 9, 35, 0
1, 49679, Note_on_c, 9, 43, 0
1, 49680, Note_on_c, 9, 41, 82
1, 49680, Note_on_c, 9, 49, 60
1, 49680, Note_on_c, 9, 35, 110
1, 49688, Note_on_c, 9, 49, 0
1, 49919, Note_on_c, 9, 41, 0
1, 49919, Note_on_c, 9, 35, 0
1, 49920, Note_on_c, 9, 42, 86
1, 49920, Note_on_c, 9, 57, 63
1, 49920, Note_on_c, 9, 35, 108
1, 49928, Note_on_c, 9, 42, 0
1, 49928, Note_on_c, 9, 57, 0
1, 50160, Note_on_c, 9, 42, 36
1, 50168, Note_on_c, 9, 42, 0
1, 50399, Note_on_c, 9, 35, 0
1, 50400, Note_on_c, 9, 40, 89
1, 50400, Note_on_c, 9, 42, 91
1, 50403, Note_on_c, 9, 42, 0
1, 50519, Note_on_c, 9, 40, 0
1, 50520, Note_on_c, 9, 40, 37
1, 50639, Note_on_c, 9, 40, 0
1, 50640, Note_on_c, 9, 42, 43
1, 50648, Note_on_c, 9, 42, 0
1, 50880, Note_on_c, 9, 42, 95
1, 50880, Note_on_c, 9, 35, 105
1, 50888, Note_on_c, 9, 42, 0
1, 51120, Note_on_c, 9, 42, 38
1, 51128, Note_on_c, 9, 42, 0
1, 51359, Note_on_c, 9, 35, 0
1, 51360, Note_on_c, 9, 40, 89
1, 51360, Note_on_c, 9, 42, 92
1, 51363, Note_on_c, 9, 42, 0
1, 51479, Note_on_c, 9, 40, 0
1, 51480, Note_on_c, 9, 40, 45
1, 51599, Note_on_c, 9, 40, 0
1, 51600, Note_on_c, 9, 42, 47
1, 51603, Note_on_c, 9, 42, 0
1, 51720, Note_on_c, 9, 40, 50
1, 51779, Note_on_c, 9, 40, 0
1, 51780, Note_on_c, 9, 40, 32
1, 51839, Note_on_c, 9, 40, 0
1, 51840, Note_on_c, 9, 42, 86
1, 51840, Note_on_c, 9, 35, 108
1, 51848, Note_on_c, 9, 42, 0
1, 52080, Note_on_c, 9, 42, 36
1, 52088, Note_on_c, 9, 42, 0
1, 52319, Note_on_c, 9, 35, 0
1, 52320, Note_on_c, 9, 40, 89
1, 52320, Note_on_c, 9, 42, 91
1, 52323, Note_on_c, 9, 42, 0
1, 52439, Note_on_c, 9, 40, 0
1, 52440, Note_on_c, 9, 40, 37
1, 52559, Note_on_c, 9, 40, 0
1, 52560, Note_on_c, 9, 42, 43
1, 52568, Note_on_c, 9, 42, 0
1, 52800, Note_on_c, 9, 42, 95
1, 52800, Note_on_c, 9, 35, 105
1, 52808, Note_on_c, 9, 42, 0
1, 53040, Note_on_c, 9, 42, 38
1, 53048, Note_on_c, 9, 42, 0
1, 53279, Note_on_c, 9, 35, 0
1, 53280, Note_on_c, 9, 40, 89
1, 53280, Note_on_c, 9, 42, 92
1, 53283, Note_on_c, 9, 42, 0
1, 53399, Note_on_c, 9, 40, 0
1, 53400, Note_on_c, 9, 40, 45
1, 53400, Note_on_c, 9, 44, 84
1, 53413, Note_on_c, 9, 44, 0
1, 53519, Note_on_c, 9, 40, 0
1, 53520, Note_on_c, 9, 46, 61
1, 53528, Note_on_c, 9, 46, 0
1, 53760, Note_on_c, 9, 42, 86
1, 53760, Note_on_c, 9, 35, 108
1, 53768, Note_on_c, 9, 42, 0
1, 54000, Note_on_c, 9, 42, 36
1, 54008, Note_on_c, 9, 42, 0
1, 54239, Note_on_c, 9, 35, 0
1, 54240, Note_on_c, 9, 40, 89
1, 54240, Note_on_c, 9, 42, 91
1, 54243, Note_on_c, 9, 42, 0
1, 54359, Note_on_c, 9, 40, 0
1, 54360, Note_on_c, 9, 40, 37
1, 54479, Note_on_c, 9, 40, 0
1, 54480, Note_on_c, 9, 42, 43
1, 54488, Note_on_c, 9, 42, 0
1, 54720, Note_on_c, 9, 42, 95
1, 54720, Note_on_c, 9, 35, 105
1, 54728, Note_on_c, 9, 42, 0
1, 54960, Note_on_c, 9, 42, 38
1, 54968, Note_on_c, 9, 42, 0
1, 55199, Note_on_c, 9, 35, 0
1, 55200, Note_on_c, 9, 40, 89
1, 55200, Note_on_c, 9, 42, 92
1, 55203, Note_on_c, 9, 42, 0
1, 55319, Note_on_c, 9, 40, 0
1, 55320, Note_on_c, 9, 40, 45
1, 55439, Note_on_c, 9, 40, 0
1, 55440, Note_on_c, 9, 42, 47
1, 55443, Note_on_c, 9, 42, 0
1, 55560, Note_on_c, 9, 40, 50
1, 55619, Note_on_c, 9, 40, 0
1, 55620, Note_on_c, 9, 40, 32
1, 55679, Note_on_c, 9, 40, 0
1, 55680, Note_on_c, 9, 42, 86
1, 55680, Note_on_c, 9, 35, 108
1, 55688, Note_on_c, 9, 42, 0
1, 55920, Note_on_c, 9, 42, 36
1, 55928, Note_on_c, 9, 42, 0
1, 56159, Note_on_c, 9, 35, 0
1, 56160, Note_on_c, 9, 40, 89
1, 56160, Note_on_c, 9, 42, 91
1, 56163, Note_on_c, 9, 42, 0
1, 56279, Note_on_c, 9, 40, 0
1, 56280, Note_on_c, 9, 40, 37
1, 56399, Note_on_c, 9, 40, 0
1, 56400, Note_on_c, 9, 42, 43
1, 56408, Note_on_c, 9, 42, 0
1, 56640, Note_on_c, 9, 42, 70
1, 56640, Note_on_c, 9, 35, 105
1, 56648, Note_on_c, 9, 42, 0
1, 56880, Note_on_c, 9, 42, 80
1, 56888, Note_on_c, 9, 42, 0
1, 56999, Note_on_c, 9, 35, 0
1, 57000, Note_on_c, 9, 35, 105
1, 57119, Note_on_c, 9, 35, 0
1, 57120, Note_on_c, 9, 40, 88
1, 57120, Note_on_c, 9, 42, 92
1, 57128, Note_on_c, 9, 42, 0
1, 57359, Note_on_c, 9, 40, 0
1, 57360, Note_on_c, 9, 46, 61
1, 57368, Note_on_c, 9, 46, 0
1, 57600, Note_on_c, 9, 42, 86
1, 57600, Note_on_c, 9, 57, 63
1, 57600, Note_on_c, 9, 35, 108
1, 57608, Note_on_c, 9, 42, 0
1, 57608, Note_on_c, 9, 57, 0
1, 57840, Note_on_c, 9, 42, 36
1, 57848, Note_on_c, 9, 42, 0
1, 58079, Note_on_c, 9, 35, 0
1, 58080, Note_on_c, 9, 40, 89
1, 58080, Note_on_c, 9, 42, 91
1, 58083, Note_on_c, 9, 42, 0
1, 58199, Note_on_c, 9, 40, 0
1, 58200, Note_on_c, 9, 40, 37
1, 58319, Note_on_c, 9, 40, 0
1, 58320, Note_on_c, 9, 42, 43
1, 58328, Note_on_c, 9, 42, 0
1, 58560, Note_on_c, 9, 42, 95
1, 58560, Note_on_c, 9, 35, 105
1, 58568, Note_on_c, 9, 42, 0
1, 58800, Note_on_c, 9, 42, 38
1, 58808, Note_on_c, 9, 42, 0
1, 59039, Note_on_c, 9, 35, 0
1, 59040, Note_on_c, 9, 40, 89
1, 59040, Note_on_c, 9, 42, 92
1, 59043, Note_on_c, 9, 42, 0
1, 59159, Note_on_c, 9, 40, 0
1, 59160, Note_on_c, 9, 40, 45
1, 59279, Note_on_c, 9, 40, 0
1, 59280, Note_on_c, 9, 42, 47
1, 59283, Note_on_c, 9, 42, 0
1, 59400, Note_on_c, 9, 40, 50
1, 59459, Note_on_c, 9, 40, 0
1, 59460, Note_on_c, 9, 40, 32
1, 59519, Note_on_c, 9, 40, 0
1, 59520, Note_on_c, 9, 42, 86
1, 59520, Note_on_c, 9, 35, 108
1, 59528, Note_on_c, 9, 42, 0
1, 59760, Note_on_c, 9, 42, 36
1, 59768, Note_on_c, 9, 42, 0
1, 59999, Note_on_c, 9, 35, 0
1, 60000, Note_on_c, 9, 40, 89
1, 60000, Note_on_c, 9, 42, 91
1, 60003, Note_on_c, 9, 42, 0
1, 60119, Note_on_c, 9, 40, 0
1, 60120, Note_on_c, 9, 40, 37
1, 60239, Note_on_c, 9, 40, 0
1, 60240, Note_on_c, 9, 42, 43
1, 60248, Note_on_c, 9, 42, 0
1, 60480, Note_on_c, 9, 42, 95
1, 60480, Note_on_c, 9, 35, 105
1, 60488, Note_on_c, 9, 42, 0
1, 60720, Note_on_c, 9, 42, 38
1, 60728, Note_on_c, 9, 42, 0
1, 60959, Note_on_c, 9, 35, 0
1, 60960, Note_on_c, 9, 40, 89
1, 60960, Note_on_c, 9, 42, 92
1, 60963, Note_on_c, 9, 42, 0
1, 61079, Note_on_c, 9, 40, 0
1, 61080, Note_on_c, 9, 40, 45
1, 61080, Note_on_c, 9, 44, 84
1, 61093, Note_on_c, 9, 44, 0
1, 61199, Note_on_c, 9, 40, 0
1, 61200, Note_on_c, 9, 46, 61
1, 61208, Note_on_c, 9, 46, 0
1, 61440, Note_on_c, 9, 42, 86
1, 61440, Note_on_c, 9, 35, 108
1, 61448, Note_on_c, 9, 42, 0
1, 61680, Note_on_c, 9, 42, 36
1, 61688, Note_on_c, 9, 42, 0
1, 61919, Note_on_c, 9, 35, 0
1, 61920, Note_on_c, 9, 40, 89
1, 61920, Note_on_c, 9, 42, 91
1, 61923, Note_on_c, 9, 42, 0
1, 62039, Note_on_c, 9, 40, 0
1, 62040, Note_on_c, 9, 40, 37
1, 62159, Note_on_c, 9, 40, 0
1, 62160, Note_on_c, 9, 42, 43
1, 62168, Note_on_c, 9, 42, 0
1, 62400, Note_on_c, 9, 42, 95
1, 62400, Note_on_c, 9, 35, 105
1, 62408, Note_on_c, 9, 42, 0
1, 62640, Note_on_c, 9, 42, 38
1, 62648, Note_on_c, 9, 42, 0
1, 62879, Note_on_c, 9, 35, 0
1, 62880, Note_on_c, 9, 40, 89
1, 62880, Note_on_c, 9, 42, 92
1, 62883, Note_on_c, 9, 42, 0
1, 62999, Note_on_c, 9, 40, 0
1, 63000, Note_on_c, 9, 40, 45
1, 63119, Note_on_c, 9, 40, 0
1, 63120, Note_on_c, 9, 42, 47
1, 63123, Note_on_c, 9, 42, 0
1, 63240, Note_on_c, 9, 40, 50
1, 63299, Note_on_c, 9, 40, 0
1, 63300, Note_on_c, 9, 40, 32
1, 63359, Note_on_c, 9, 40, 0
1, 63360, Note_on_c, 9, 42, 86
1, 63360, Note_on_c, 9, 35, 108
1, 63368, Note_on_c, 9, 42, 0
1, 63600, Note_on_c, 9, 42, 36
1, 63608, Note_on_c, 9, 42, 0
1, 63839, Note_on_c, 9, 35, 0
1, 63840, Note_on_c, 9, 40, 89
1, 63840, Note_on_c, 9, 42, 91
1, 63843, Note_on_c, 9, 42, 0
1, 63959, Note_on_c, 9, 40, 0
1, 63960, Note_on_c, 9, 40, 37
1, 64079, Note_on_c, 9, 40, 0
1, 64080, Note_on_c, 9, 42, 43
1, 64088, Note_on_c, 9, 42, 0
1, 64320, Note_on_c, 9, 46, 70
1, 64320, Note_on_c, 9, 35, 105
1, 64333, Note_on_c, 9, 46, 0
1, 64559, Note_on_c, 9, 35, 0
1, 64560, Note_on_c, 9, 44, 80
1, 64568, Note_on_c, 9, 44, 0
1, 64680, Note_on_c, 9, 40, 87
1, 64799, Note_on_c, 9, 40, 0
1, 64800, Note_on_c, 9, 40, 88
1, 64800, Note_on_c, 9, 42, 92
1, 64808, Note_on_c, 9, 42, 0
1, 65039, Note_on_c, 9, 40, 0
1, 65040, Note_on_c, 9, 42, 61
1, 65040, Note_on_c, 9, 57, 50
1, 65040, Note_on_c, 9, 35, 105
1, 65048, Note_on_c, 9, 42, 0
1, 65048, Note_on_c, 9, 57, 0
1, 65279, Note_on_c, 9, 35, 0
1, 65280, Note_on_c, 9, 42, 86
1, 65280, Note_on_c, 9, 49, 71
1, 65280, Note_on_c, 9, 55, 36
1, 65280, Note_on_c, 9, 35, 108
1, 65288, Note_on_c, 9, 42, 0
1, 65288, Note_on_c, 9, 49, 0
1, 65288, Note_on_c, 9, 55, 0
1, 65520, Note_on_c, 9, 42, 36
1, 65528, Note_on_c, 9, 42, 0
1, 65759, Note_on_c, 9, 35, 0
1, 65760, Note_on_c, 9, 40, 89
1, 65760, Note_on_c, 9, 42, 91
1, 65760, Note_on_c, 9, 55, 36
1, 65763, Note_on_c, 9, 42, 0
1, 65763, Note_on_c, 9, 55, 0
1, 65879, Note_on_c, 9, 40, 0
1, 65880, Note_on_c, 9, 40, 37
1, 65999, Note_on_c, 9, 40, 0
1, 66000, Note_on_c, 9, 42, 43
1, 66008, Note_on_c, 9, 42, 0
1, 66240, Note_on_c, 9, 42, 95
1, 66240, Note_on_c, 9, 55, 36
1, 66240, Note_on_c, 9, 35, 105
1, 66248, Note_on_c, 9, 42, 0
1, 66248, Note_on_c, 9, 55, 0
1, 66480, Note_on_c, 9, 42, 38
1, 66488, Note_on_c, 9, 42, 0
1, 66719, Note_on_c, 9, 35, 0
1, 66720, Note_on_c, 9, 40, 89
1, 66720, Note_on_c, 9, 42, 92
1, 66720, Note_on_c, 9, 55, 36
1, 66723, Note_on_c, 9, 42, 0
1, 66723, Note_on_c, 9, 55, 0
1, 66839, Note_on_c, 9, 40, 0
1, 66840, Note_on_c, 9, 40, 45
1, 66959, Note_on_c, 9, 40, 0
1, 66960, Note_on_c, 9, 42, 47
1, 66963, Note_on_c, 9, 42, 0
1, 67080, Note_on_c, 9, 40, 50
1, 67139, Note_on_c, 9, 40, 0
1, 67140, Note_on_c, 9, 40, 32
1, 67199, Note_on_c, 9, 40, 0
1, 67200, Note_on_c, 9, 42, 86
1, 67200, Note_on_c, 9, 55, 36
1, 67200, Note_on_c, 9, 35, 108
1, 67208, Note_on_c, 9, 42, 0
1, 67208, Note_on_c, 9, 55, 0
1, 67440, Note_on_c, 9, 42, 36
1, 67448, Note_on_c, 9, 42, 0
1, 67679, Note_on_c, 9, 35, 0
1, 67680, Note_on_c, 9, 40, 89
1, 67680, Note_on_c, 9, 42, 91
1, 67680, Note_on_c, 9, 55, 36
1, 67683, Note_on_c, 9, 42, 0
1, 67683, Note_on_c, 9, 55, 0
1, 67799, Note_on_c, 9, 40, 0
1, 67800, Note_on_c, 9, 40, 37
1, 67919, Note_on_c, 9, 40, 0
1, 67920, Note_on_c, 9, 42, 43
1, 67928, Note_on_c, 9, 42, 0
1, 68160, Note_on_c, 9, 42, 95
1, 68160, Note_on_c, 9, 55, 36
1, 68160, Note_on_c, 9, 35, 105
1, 68168, Note_on_c, 9, 42, 0
1, 68168, Note_on_c, 9, 55, 0
1, 68400, Note_on_c, 9, 42, 38
1, 68408, Note_on_c, 9, 42, 0
1, 68639, Note_on_c, 9, 35, 0
1, 68640, Note_on_c, 9, 40, 89
1, 68640, Note_on_c, 9, 42, 92
1, 68640, Note_on_c, 9, 55, 36
1, 68643, Note_on_c, 9, 42, 0
1, 68643, Note_on_c, 9, 55, 0
1, 68759, Note_on_c, 9, 40, 0
1, 68760, Note_on_c, 9, 40, 45
1, 68760, Note_on_c, 9, 44, 84
1, 68773, Note_on_c, 9, 44, 0
1, 68879, Note_on_c, 9, 40, 0
1, 68880, Note_on_c, 9, 46, 61
1, 68888, Note_on_c, 9, 46, 0
1, 69120, Note_on_c, 9, 42, 86
1, 69120, Note_on_c, 9, 55, 36
1, 69120, Note_on_c, 9, 35, 108
1, 69128, Note_on_c, 9, 42, 0
1, 69128, Note_on_c, 9, 55, 0
1, 69360, Note_on_c, 9, 42, 36
1, 69368, Note_on_c, 9, 42, 0
1, 69599, Note_on_c, 9, 35, 0
1, 69600, Note_on_c, 9, 40, 89
1, 69600, Note_on_c, 9, 42, 91
1, 69600, Note_on_c, 9, 55, 36
1, 69603, Note_on_c, 9, 42, 0
1, 69603, Note_on_c, 9, 55, 0
1, 69719, Note_on_c, 9, 40, 0
1, 69720, Note_on_c, 9, 40, 37
1, 69839, Note_on_c, 9, 40, 0
1, 69840, Note_on_c, 9, 42, 43
1, 69848, Note_on_c, 9, 42, 0
1, 70080, Note_on_c, 9, 42, 95
1, 70080, Note_on_c, 9, 55, 36
1, 70080, Note_on_c, 9, 35, 105
1, 70088, Note_on_c, 9, 42, 0
1, 70088, Note_on_c, 9, 55, 0
1, 70320, Note_on_c, 9, 42, 38
1, 70328, Note_on_c, 9, 42, 0
1, 70559, Note_on_c, 9, 35, 0
1, 70560, Note_on_c, 9, 40, 89
1, 70560, Note_on_c, 9, 42, 92
1, 70560, Note_on_c, 9, 55, 36
1, 70563, Note_on_c, 9, 42, 0
1, 70563, Note_on_c, 9, 55, 0
1, 70679, Note_on_c, 9, 40, 0
1, 70680, Note_on_c, 9, 40, 45
1, 70799, Note_on_c, 9, 40, 0
1, 70800, Note_on_c, 9, 42, 47
1, 70803, Note_on_c, 9, 42, 0
1, 70920, Note_on_c, 9, 40, 50
1, 70979, Note_on_c, 9, 40, 0
1, 70980, Note_on_c, 9, 40, 32
1, 71039, Note_on_c, 9, 40, 0
1, 71040, Note_on_c, 9, 42, 86
1, 71040, Note_on_c, 9, 55, 36
1, 71040, Note_on_c, 9, 35, 108
1, 71048, Note_on_c, 9, 42, 0
1, 71048, Note_on_c, 9, 55, 0
1, 71280, Note_on_c, 9, 42, 36
1, 71288, Note_on_c, 9, 42, 0
1, 71519, Note_on_c, 9, 35, 0
1, 71520, Note_on_c, 9, 40, 89
1, 71520, Note_on_c, 9, 42, 91
1, 71520, Note_on_c, 9, 55, 36
1, 71523, Note_on_c, 9, 42, 0
1, 71523, Note_on_c, 9, 55, 0
1, 71639, Note_on_c, 9, 40, 0
1, 71640, Note_on_c, 9, 40, 37
1, 71759, Note_on_c, 9, 40, 0
1, 71760, Note_on_c, 9, 42, 43
1, 71768, Note_on_c, 9, 42, 0
1, 72000, Note_on_c, 9, 42, 86
1, 72000, Note_on_c, 9, 55, 36
1, 72000, Note_on_c, 9, 35, 105
1, 72003, Note_on_c, 9, 42, 0
1, 72003, Note_on_c, 9, 55, 0
1, 72120, Note_on_c, 9, 40, 37
1, 72239, Note_on_c, 9, 40, 0
1, 72240, Note_on_c, 9, 42, 36
1, 72248, Note_on_c, 9, 42, 0
1, 72359, Note_on_c, 9, 35, 0
1, 72360, Note_on_c, 9, 35, 105
1, 72479, Note_on_c, 9, 35, 0
1, 72480, Note_on_c, 9, 40, 88
1, 72480, Note_on_c, 9, 42, 92
1, 72480, Note_on_c, 9, 55, 54
1, 72488, Note_on_c, 9, 42, 0
1, 72488, Note_on_c, 9, 55, 0
1, 72719, Note_on_c, 9, 40, 0
1, 72720, Note_on_c, 9, 46, 73
1, 72720, Note_on_c, 9, 35, 105
1, 72728, Note_on_c, 9, 46, 0
1, 72959, Note_on_c, 9, 35, 0
1, 72960, Note_on_c, 9, 42, 86
1, 72960, Note_on_c, 9, 55, 36
1, 72960, Note_on_c, 9, 35, 108
1, 72968, Note_on_c, 9, 42, 0
1, 72968, Note_on_c, 9, 55, 0
1, 73200, Note_on_c, 9, 42, 36
1, 73208, Note_on_c, 9, 42, 0
1, 73439, Note_on_c, 9, 35, 0
1, 73440, Note_on_c, 9, 40, 89
1, 73440, Note_on_c, 9, 42, 91
1, 73440, Note_on_c, 9, 55, 36
1, 73443, Note_on_c, 9, 42, 0
1, 73443, Note_on_c, 9, 55, 0
1, 73559, Note_on_c, 9, 40, 0
1, 73560, Note_on_c, 9, 40, 37
1, 73679, Note_on_c, 9, 40, 0
1, 73680, Note_on_c, 9, 42, 43
1, 73688, Note_on_c, 9, 42, 0
1, 73920, Note_on_c, 9, 42, 95
1, 73920, Note_on_c, 9, 55, 36
1, 73920, Note_on_c, 9, 35, 105
1, 73928, Note_on_c, 9, 42, 0
1, 73928, Note_on_c, 9, 55, 0
1, 74160, Note_on_c, 9, 42, 38
1, 74168, Note_on_c, 9, 42, 0
1, 74399, Note_on_c, 9, 35, 0
1, 74400, Note_on_c, 9, 40, 89
1, 74400, Note_on_c, 9, 42, 92
1, 74400, Note_on_c, 9, 55, 36
1, 74403, Note_on_c, 9, 42, 0
1, 74403, Note_on_c, 9, 55, 0
1, 74519, Note_on_c, 9, 40, 0
1, 74520, Note_on_c, 9, 40, 45
1, 74639, Note_on_c, 9, 40, 0
1, 74640, Note_on_c, 9, 42, 47
1, 74643, Note_on_c, 9, 42, 0
1, 74760, Note_on_c, 9, 40, 50
1, 74819, Note_on_c, 9, 40, 0
1, 74820, Note_on_c, 9, 40, 32
1, 74879, Note_on_c, 9, 40, 0
1, 74880, Note_on_c, 9, 42, 86
1, 74880, Note_on_c, 9, 55, 36
1, 74880, Note_on_c, 9, 35, 108
1, 74888, Note_on_c, 9, 42, 0
1, 74888, Note_on_c, 9, 55, 0
1, 75120, Note_on_c, 9, 42, 36
1, 75128, Note_on_c, 9, 42, 0
1, 75359, Note_on_c, 9, 35, 0
1, 75360, Note_on_c, 9, 40, 89
1, 75360, Note_on_c, 9, 42, 91
1, 75360, Note_on_c, 9, 55, 36
1, 75363, Note_on_c, 9, 42, 0
1, 75363, Note_on_c, 9, 55, 0
1, 75479, Note_on_c, 9, 40, 0
1, 75480, Note_on_c, 9, 40, 37
1, 75599, Note_on_c, 9, 40, 0
1, 75600, Note_on_c, 9, 42, 43
1, 75608, Note_on_c, 9, 42, 0
1, 75840, Note_on_c, 9, 42, 95
1, 75840, Note_on_c, 9, 55, 36
1, 75840, Note_on_c, 9, 35, 105
1, 75848, Note_on_c, 9, 42, 0
1, 75848, Note_on_c, 9, 55, 0
1, 76080, Note_on_c, 9, 42, 38
1, 76088, Note_on_c, 9, 42, 0
1, 76319, Note_on_c, 9, 35, 0
1, 76320, Note_on_c, 9, 40, 89
1, 76320, Note_on_c, 9, 42, 92
1, 76320, Note_on_c, 9, 55, 36
1, 76323, Note_on_c, 9, 42, 0
1, 76323, Note_on_c, 9, 55, 0
1, 76439, Note_on_c, 9, 40, 0
1, 76440, Note_on_c, 9, 40, 45
1, 76440, Note_on_c, 9, 44, 84
1, 76453, Note_on_c, 9, 44, 0
1, 76559, Note_on_c, 9, 40, 0
1, 76560, Note_on_c, 9, 46, 61
1, 76568, Note_on_c, 9, 46, 0
1, 76800, Note_on_c, 9, 42, 86
1, 76800, Note_on_c, 9, 55, 36
1, 76800, Note_on_c, 9, 35, 108
1, 76808, Note_on_c, 9, 42, 0
1, 76808, Note_on_c, 9, 55, 0
1, 77040, Note_on_c, 9, 42, 36
1, 77048, Note_on_c, 9, 42, 0
1, 77279, Note_on_c, 9, 35, 0
1, 77280, Note_on_c, 9, 40, 89
1, 77280, Note_on_c, 9, 42, 91
1, 77280, Note_on_c, 9, 55, 36
1, 77283, Note_on_c, 9, 42, 0
1, 77283, Note_on_c, 9, 55, 0
1, 77399, Note_on_c, 9, 40, 0
1, 77400, Note_on_c, 9, 40, 37
1, 77519, Note_on_c, 9, 40, 0
1, 77520, Note_on_c, 9, 42, 43
1, 77528, Note_on_c, 9, 42, 0
1, 77760, Note_on_c, 9, 42, 95
1, 77760, Note_on_c, 9, 55, 36
1, 77760, Note_on_c, 9, 35, 105
1, 77768, Note_on_c, 9, 42, 0
1, 77768, Note_on_c, 9, 55, 0
1, 78000, Note_on_c, 9, 42, 38
1, 78008, Note_on_c, 9, 42, 0
1, 78239, Note_on_c, 9, 35, 0
1, 78240, Note_on_c, 9, 40, 89
1, 78240, Note_on_c, 9, 42, 92
1, 78240, Note_on_c, 9, 55, 36
1, 78243, Note_on_c, 9, 42, 0
1, 78243, Note_on_c, 9, 55, 0
1, 78359, Note_on_c, 9, 40, 0
1, 78360, Note_on_c, 9, 40, 45
1, 78479, Note_on_c, 9, 40, 0
1, 78480, Note_on_c, 9, 42, 47
1, 78483, Note_on_c, 9, 42, 0
1, 78600, Note_on_c, 9, 40, 50
1, 78659, Note_on_c, 9, 40, 0
1, 78660, Note_on_c, 9, 40, 32
1, 78719, Note_on_c, 9, 40, 0
1, 78720, Note_on_c, 9, 46, 68
1, 78720, Note_on_c, 9, 55, 36
1, 78720, Note_on_c, 9, 35, 108
1, 78728, Note_on_c, 9, 46, 0
1, 78728, Note_on_c, 9, 55, 0
1, 78960, Note_on_c, 9, 46, 36
1, 78968, Note_on_c, 9, 46, 0
1, 79199, Note_on_c, 9, 35, 0
1, 79200, Note_on_c, 9, 40, 89
1, 79200, Note_on_c, 9, 46, 76
1, 79200, Note_on_c, 9, 55, 36
1, 79203, Note_on_c, 9, 46, 0
1, 79203, Note_on_c, 9, 55, 0
1, 79319, Note_on_c, 9, 40, 0
1, 79320, Note_on_c, 9, 40, 37
1, 79439, Note_on_c, 9, 40, 0
1, 79440, Note_on_c, 9, 46, 74
1, 79448, Note_on_c, 9, 46, 0
1, 79680, Note_on_c, 9, 48, 94
1, 79680, Note_on_c, 9, 35, 106
1, 79799, Note_on_c, 9, 48, 0
1, 79800, Note_on_c, 9, 40, 75
1, 79919, Note_on_c, 9, 40, 0
1, 79920, Note_on_c, 9, 40, 83
1, 80039, Note_on_c, 9, 35, 0
1, 80039, Note_on_c, 9, 40, 0
1, 80040, Note_on_c, 9, 47, 88
1, 80040, Note_on_c, 9, 35, 110
1, 80159, Note_on_c, 9, 47, 0
1, 80159, Note_on_c, 9, 35, 0
1, 80160, Note_on_c, 9, 35, 110
1, 80160, Note_on_c, 9, 43, 73
1, 80399, Note_on_c, 9, 35, 0
1, 80399, Note_on_c, 9, 43, 0
1, 80400, Note_on_c, 9, 41, 82
1, 80400, Note_on_c, 9, 49, 60
1, 80400, Note_on_c, 9, 35, 110
1, 80408, Note_on_c, 9, 49, 0
1, 80639, Note_on_c, 9, 41, 0
1, 80639, Note_on_c, 9, 35, 0
1, 80640, Note_on_c, 9, 57, 65
1, 80640, Note_on_c, 9, 35, 110
1, 80658, Note_on_c, 9, 57, 0
1, 81119, Note_on_c, 9, 35, 0
1, 81120, Note_on_c, 9, 48, 76
1, 81120, Note_on_c, 9, 35, 90
1, 81120, Note_on_c, 9, 43, 79
1, 81599, Note_on_c, 9, 48, 0
1, 81599, Note_on_c, 9, 35, 0
1, 81599, Note_on_c, 9, 43, 0
1, 82080, Note_on_c, 9, 48, 71
1, 82080, Note_on_c, 9, 35, 90
1, 82080, Note_on_c, 9, 43, 72
1, 82559, Note_on_c, 9, 48, 0
1, 82559, Note_on_c, 9, 35, 0
1, 82559, Note_on_c, 9, 43, 0
1, 83040, Note_on_c, 9, 48, 71
1, 83040, Note_on_c, 9, 35, 90
1, 83040, Note_on_c, 9, 43, 72
1, 83519, Note_on_c, 9, 48, 0
1, 83519, Note_on_c, 9, 35, 0
1, 83519, Note_on_c, 9, 43, 0
1, 84000, Note_on_c, 9, 48, 71
1, 84000, Note_on_c, 9, 35, 90
1, 84000, Note_on_c, 9, 43, 72
1, 84479, Note_on_c, 9, 48, 0
1, 84479, Note_on_c, 9, 35, 0
1, 84479, Note_on_c, 9, 43, 0
1, 84960, Note_on_c, 9, 48, 71
1, 84960, Note_on_c, 9, 35, 90
1, 84960, Note_on_c, 9, 43, 72
1, 85439, Note_on_c, 9, 48, 0
1, 85439, Note_on_c, 9, 35, 0
1, 85439, Note_on_c, 9, 43, 0
1, 85920, Note_on_c, 9, 48, 71
1, 85920, Note_on_c, 9, 35, 90
1, 85920, Note_on_c, 9, 43, 72
1, 86399, Note_on_c, 9, 48, 0
1, 86399, Note_on_c, 9, 35, 0
1, 86399, Note_on_c, 9, 43, 0
1, 86880, Note_on_c, 9, 48, 71
1, 86880, Note_on_c, 9, 35, 90
1, 86880, Note_on_c, 9, 43, 72
1, 87359, Note_on_c, 9, 48, 0
1, 87359, Note_on_c, 9, 35, 0
1, 87359, Note_on_c, 9, 43, 0
1, 87840, Note_on_c, 9, 48, 71
1, 87840, Note_on_c, 9, 35, 90
1, 87840, Note_on_c, 9, 43, 72
1, 88319, Note_on_c, 9, 48, 0
1, 88319, Note_on_c, 9, 35, 0
1, 88319, Note_on_c, 9, 43, 0
1, 88800, Note_on_c, 9, 48, 71
1, 88800, Note_on_c, 9, 35, 90
1, 88800, Note_on_c, 9, 43, 72
1, 89279, Note_on_c, 9, 48, 0
1, 89279, Note_on_c, 9, 35, 0
1, 89279, Note_on_c, 9, 43, 0
1, 89760, Note_on_c, 9, 48, 71
1, 89760, Note_on_c, 9, 35, 90
1, 89760, Note_on_c, 9, 43, 72
1, 90239, Note_on_c, 9, 48, 0
1, 90239, Note_on_c, 9, 35, 0
1, 90239, Note_on_c, 9, 43, 0
1, 90240, Tempo, 571429
1, 90240, Note_on_c, 9, 40, 22
1, 90359, Note_on_c, 9, 40, 0
1, 90360, Note_on_c, 9, 40, 27
1, 90479, Note_on_c, 9, 40, 0
1, 90480, Note_on_c, 9, 40, 32
1, 90599, Note_on_c, 9, 40, 0
1, 90600, Note_on_c, 9, 40, 37
1, 90719, Note_on_c, 9, 40, 0
1, 90720, Note_on_c, 9, 40, 41
1, 90720, Note_on_c, 9, 48, 71
1, 90720, Note_on_c, 9, 35, 90
1, 90720, Note_on_c, 9, 43, 72
1, 90839, Note_on_c, 9, 40, 0
1, 90839, Note_on_c, 9, 48, 0
1, 90840, Note_on_c, 9, 40, 46
1, 90959, Note_on_c, 9, 40, 0
1, 90960, Note_on_c, 9, 40, 51
1, 91079, Note_on_c, 9, 40, 0
1, 91080, Note_on_c, 9, 40, 55
1, 91199, Note_on_c, 9, 35, 0
1, 91199, Note_on_c, 9, 43, 0
1, 91199, Note_on_c, 9, 40, 0
1, 91200, Note_on_c, 9, 40, 64
1, 91319, Note_on_c, 9, 40, 0
1, 91320, Note_on_c, 9, 40, 66
1, 91439, Note_on_c, 9, 40, 0
1, 91440, Note_on_c, 9, 40, 69
1, 91559, Note_on_c, 9, 40, 0
1, 91560, Note_on_c, 9, 40, 72
1, 91679, Note_on_c, 9, 40, 0
1, 91680, Note_on_c, 9, 40, 74
1, 91799, Note_on_c, 9, 40, 0
1, 91800, Note_on_c, 9, 40, 77
1, 91919, Note_on_c, 9, 40, 0
1, 91920, Note_on_c, 9, 40, 80
1, 92039, Note_on_c, 9, 40, 0
1, 92040, Note_on_c, 9, 40, 82
1, 92159, Note_on_c, 9, 40, 0
1, 92160, Note_on_c, 9, 40, 86
1, 92160, Note_on_c, 9, 54, 68
1, 92160, Note_on_c, 9, 53, 66
1, 92160, Note_on_c, 9, 69, 44
1, 92160, Note_on_c, 9, 42, 86
1, 92160, Note_on_c, 9, 49, 65
1, 92160, Note_on_c, 9, 35, 109
1, 92164, Note_on_c, 9, 42, 0
1, 92164, Note_on_c, 9, 49, 0
1, 92279, Note_on_c, 9, 40, 0
1, 92279, Note_on_c, 9, 54, 0
1, 92279, Note_on_c, 9, 53, 0
1, 92279, Note_on_c, 9, 69, 0
1, 92280, Note_on_c, 9, 54, 41
1, 92280, Note_on_c, 9, 82, 44
1, 92399, Note_on_c, 9, 54, 0
1, 92399, Note_on_c, 9, 82, 0
1, 92400, Note_on_c, 9, 54, 68
1, 92400, Note_on_c, 9, 69, 44
1, 92400, Note_on_c, 9, 42, 36
1, 92404, Note_on_c, 9, 42, 0
1, 92519, Note_on_c, 9, 35, 0
1, 92519, Note_on_c, 9, 54, 0
1, 92519, Note_on_c, 9, 69, 0
1, 92520, Note_on_c, 9, 54, 49
1, 92520, Note_on_c, 9, 82, 44
1, 92520, Note_on_c, 9, 35, 103
1, 92639, Note_on_c, 9, 54, 0
1, 92639, Note_on_c, 9, 82, 0
1, 92639, Note_on_c, 9, 35, 0
1, 92640, Note_on_c, 9, 40, 86
1, 92640, Note_on_c, 9, 54, 68
1, 92640, Note_on_c, 9, 53, 66
1, 92640, Note_on_c, 9, 69, 44
1, 92640, Note_on_c, 9, 42, 91
1, 92644, Note_on_c, 9, 42, 0
1, 92759, Note_on_c, 9, 40, 0
1, 92759, Note_on_c, 9, 54, 0
1, 92759, Note_on_c, 9, 53, 0
1, 92759, Note_on_c, 9, 69, 0
1, 92760, Note_on_c, 9, 54, 45
1, 92760, Note_on_c, 9, 82, 44
1, 92879, Note_on_c, 9, 54, 0
1, 92879, Note_on_c, 9, 82, 0
1, 92880, Note_on_c, 9, 54, 68
1, 92880, Note_on_c, 9, 69, 44
1, 92880, Note_on_c, 9, 42, 43
1, 92880, Note_on_c, 9, 35, 97
1, 92884, Note_on_c, 9, 42, 0
1, 92999, Note_on_c, 9, 54, 0
1, 92999, Note_on_c, 9, 69, 0
1, 93000, Note_on_c, 9, 54, 44
1, 93000, Note_on_c, 9, 82, 44
1, 93119, Note_on_c, 9, 35, 0
1, 93119, Note_on_c, 9, 54, 0
1, 93119, Note_on_c, 9, 82, 0
1, 93120, Note_on_c, 9, 40, 86
1, 93120, Note_on_c, 9, 54, 68
1, 93120, Note_on_c, 9, 53, 66
1, 93120, Note_on_c, 9, 69, 44
1, 93120, Note_on_c, 9, 42, 95
1, 93120, Note_on_c, 9, 35, 109
1, 93124, Note_on_c, 9, 42, 0
1, 93239, Note_on_c, 9, 40, 0
1, 93239, Note_on_c, 9, 54, 0
1, 93239, Note_on_c, 9, 53, 0
1, 93239, Note_on_c, 9, 69, 0
1, 93240, Note_on_c, 9, 54, 48
1, 93240, Note_on_c, 9, 82, 44
1, 93359, Note_on_c, 9, 54, 0
1, 93359, Note_on_c, 9, 82, 0
1, 93360, Note_on_c, 9, 54, 68
1, 93360, Note_on_c, 9, 69, 44
1, 93360, Note_on_c, 9, 42, 38
1, 93364, Note_on_c, 9, 42, 0
1, 93479, Note_on_c, 9, 35, 0
1, 93479, Note_on_c, 9, 54, 0
1, 93479, Note_on_c, 9, 69, 0
1, 93480, Note_on_c, 9, 54, 47
1, 93480, Note_on_c, 9, 82, 44
1, 93480, Note_on_c, 9, 35, 111
1, 93599, Note_on_c, 9, 54, 0
1, 93599, Note_on_c, 9, 82, 0
1, 93599, Note_on_c, 9, 35, 0
1, 93600, Note_on_c, 9, 40, 86
1, 93600, Note_on_c, 9, 54, 68
1, 93600, Note_on_c, 9, 53, 66
1, 93600, Note_on_c, 9, 69, 44
1, 93600, Note_on_c, 9, 42, 92
1, 93604, Note_on_c, 9, 42, 0
1, 93719, Note_on_c, 9, 40, 0
1, 93719, Note_on_c, 9, 54, 0
1, 93719, Note_on_c, 9, 53, 0
1, 93719, Note_on_c, 9, 69, 0
1, 93720, Note_on_c, 9, 54, 46
1, 93720, Note_on_c, 9, 82, 44
1, 93839, Note_on_c, 9, 54, 0
1, 93839, Note_on_c, 9, 82, 0
1, 93840, Note_on_c, 9, 54, 68
1, 93840, Note_on_c, 9, 69, 44
1, 93840, Note_on_c, 9, 42, 47
1, 93840, Note_on_c, 9, 35, 101
1, 93844, Note_on_c, 9, 42, 0
1, 93959, Note_on_c, 9, 54, 0
1, 93959, Note_on_c, 9, 69, 0
1, 93960, Note_on_c, 9, 54, 51
1, 93960, Note_on_c, 9, 82, 44
1, 94079, Note_on_c, 9, 35, 0
1, 94079, Note_on_c, 9, 54, 0
1, 94079, Note_on_c, 9, 82, 0
1, 94080, Note_on_c, 9, 40, 86
1, 94080, Note_on_c, 9, 54, 68
1, 94080, Note_on_c, 9, 53, 66
1, 94080, Note_on_c, 9, 69, 44
1, 94080, Note_on_c, 9, 42, 86
1, 94080, Note_on_c, 9, 35, 109
1, 94084, Note_on_c, 9, 42, 0
1, 94199, Note_on_c, 9, 40, 0
1, 94199, Note_on_c, 9, 54, 0
1, 94199, Note_on_c, 9, 53, 0
1, 94199, Note_on_c, 9, 69, 0
1, 94200, Note_on_c, 9, 54, 41
1, 94200, Note_on_c, 9, 82, 44
1, 94319, Note_on_c, 9, 54, 0
1, 94319, Note_on_c, 9, 82, 0
1, 94320, Note_on_c, 9, 54, 68
1, 94320, Note_on_c, 9, 69, 44
1, 94320, Note_on_c, 9, 42, 36
1, 94324, Note_on_c, 9, 42, 0
1, 94439, Note_on_c, 9, 35, 0
1, 94439, Note_on_c, 9, 54, 0
1, 94439, Note_on_c, 9, 69, 0
1, 94440, Note_on_c, 9, 54, 49
1, 94440, Note_on_c, 9, 82, 44
1, 94440, Note_on_c, 9, 35, 103
1, 94559, Note_on_c, 9, 54, 0
1, 94559, Note_on_c, 9, 82, 0
1, 94559, Note_on_c, 9, 35, 0
1, 94560, Note_on_c, 9, 40, 86
1, 94560, Note_on_c, 9, 54, 68
1, 94560, Note_on_c, 9, 53, 66
1, 94560, Note_on_c, 9, 69, 44
1, 94560, Note_on_c, 9, 42, 91
1, 94564, Note_on_c, 9, 42, 0
1, 94679, Note_on_c, 9, 40, 0
1, 94679, Note_on_c, 9, 54, 0
1, 94679, Note_on_c, 9, 53, 0
1, 94679, Note_on_c, 9, 69, 0
1, 94680, Note_on_c, 9, 54, 45
1, 94680, Note_on_c, 9, 82, 44
1, 94799, Note_on_c, 9, 54, 0
1, 94799, Note_on_c, 9, 82, 0
1, 94800, Note_on_c, 9, 54, 68
1, 94800, Note_on_c, 9, 69, 44
1, 94800, Note_on_c, 9, 42, 43
1, 94800, Note_on_c, 9, 35, 97
1, 94804, Note_on_c, 9, 42, 0
1, 94919, Note_on_c, 9, 54, 0
1, 94919, Note_on_c, 9, 69, 0
1, 94920, Note_on_c, 9, 54, 44
1, 94920, Note_on_c, 9, 82, 44
1, 95039, Note_on_c, 9, 35, 0
1, 95039, Note_on_c, 9, 54, 0
1, 95039, Note_on_c, 9, 82, 0
1, 95040, Note_on_c, 9, 40, 86
1, 95040, Note_on_c, 9, 54, 68
1, 95040, Note_on_c, 9, 53, 66
1, 95040, Note_on_c, 9, 69, 44
1, 95040, Note_on_c, 9, 42, 95
1, 95040, Note_on_c, 9, 35, 109
1, 95044, Note_on_c, 9, 42, 0
1, 95159, Note_on_c, 9, 40, 0
1, 95159, Note_on_c, 9, 54, 0
1, 95159, Note_on_c, 9, 53, 0
1, 95159, Note_on_c, 9, 69, 0
1, 95160, Note_on_c, 9, 54, 48
1, 95160, Note_on_c, 9, 82, 44
1, 95279, Note_on_c, 9, 54, 0
1, 95279, Note_on_c, 9, 82, 0
1, 95280, Note_on_c, 9, 54, 68
1, 95280, Note_on_c, 9, 69, 44
1, 95280, Note_on_c, 9, 42, 38
1, 95284, Note_on_c, 9, 42, 0
1, 95399, Note_on_c, 9, 35, 0
1, 95399, Note_on_c, 9, 54, 0
1, 95399, Note_on_c, 9, 69, 0
1, 95400, Note_on_c, 9, 54, 47
1, 95400, Note_on_c, 9, 82, 44
1, 95400, Note_on_c, 9, 35, 111
1, 95519, Note_on_c, 9, 54, 0
1, 95519, Note_on_c, 9, 82, 0
1, 95519, Note_on_c, 9, 35, 0
1, 95520, Note_on_c, 9, 40, 86
1, 95520, Note_on_c, 9, 54, 68
1, 95520, Note_on_c, 9, 53, 66
1, 95520, Note_on_c, 9, 69, 44
1, 95520, Note_on_c, 9, 42, 92
1, 95524, Note_on_c, 9, 42, 0
1, 95639, Note_on_c, 9, 40, 0
1, 95639, Note_on_c, 9, 54, 0
1, 95639, Note_on_c, 9, 53, 0
1, 95639, Note_on_c, 9, 69, 0
1, 95640, Note_on_c, 9, 54, 46
1, 95640, Note_on_c, 9, 82, 44
1, 95759, Note_on_c, 9, 54, 0
1, 95759, Note_on_c, 9, 82, 0
1, 95760, Note_on_c, 9, 54, 68
1, 95760, Note_on_c, 9, 69, 44
1, 95760, Note_on_c, 9, 42, 47
1, 95760, Note_on_c, 9, 35, 101
1, 95764, Note_on_c, 9, 42, 0
1, 95879, Note_on_c, 9, 54, 0
1, 95879, Note_on_c, 9, 69, 0
1, 95880, Note_on_c, 9, 54, 51
1, 95880, Note_on_c, 9, 82, 44
1, 95999, Note_on_c, 9, 35, 0
1, 95999, Note_on_c, 9, 54, 0
1, 95999, Note_on_c, 9, 82, 0
1, 96000, Note_on_c, 9, 40, 86
1, 96000, Note_on_c, 9, 54, 68
1, 96000, Note_on_c, 9, 53, 66
1, 96000, Note_on_c, 9, 69, 44
1, 96000, Note_on_c, 9, 42, 86
1, 96000, Note_on_c, 9, 49, 65
1, 96000, Note_on_c, 9, 35, 109
1, 96004, Note_on_c, 9, 42, 0
1, 96004, Note_on_c, 9, 49, 0
1, 96119, Note_on_c, 9, 40, 0
1, 96119, Note_on_c, 9, 54, 0
1, 96119, Note_on_c, 9, 53, 0
1, 96119, Note_on_c, 9, 69, 0
1, 96120, Note_on_c, 9, 54, 41
1, 96120, Note_on_c, 9, 82, 44
1, 96239, Note_on_c, 9, 54, 0
1, 96239, Note_on_c, 9, 82, 0
1, 96240, Note_on_c, 9, 54, 68
1, 96240, Note_on_c, 9, 69, 44
1, 96240, Note_on_c, 9, 42, 36
1, 96244, Note_on_c, 9, 42, 0
1, 96359, Note_on_c, 9, 35, 0
1, 96359, Note_on_c, 9, 54, 0
1, 96359, Note_on_c, 9, 69, 0
1, 96360, Note_on_c, 9, 54, 49
1, 96360, Note_on_c, 9, 82, 44
1, 96360, Note_on_c, 9, 35, 103
1, 96479, Note_on_c, 9, 54, 0
1, 96479, Note_on_c, 9, 82, 0
1, 96479, Note_on_c, 9, 35, 0
1, 96480, Note_on_c, 9, 40, 86
1, 96480, Note_on_c, 9, 54, 68
1, 96480, Note_on_c, 9, 53, 66
1, 96480, Note_on_c, 9, 69, 44
1, 96480, Note_on_c, 9, 42, 91
1, 96484, Note_on_c, 9, 42, 0
1, 96599, Note_on_c, 9, 40, 0
1, 96599, Note_on_c, 9, 54, 0
1, 96599, Note_on_c, 9, 53, 0
1, 96599, Note_on_c, 9, 69, 0
1, 96600, Note_on_c, 9, 54, 45
1, 96600, Note_on_c, 9, 82, 44
1, 96719, Note_on_c, 9, 54, 0
1, 96719, Note_on_c, 9, 82, 0
1, 96720, Note_on_c, 9, 54, 68
1, 96720, Note_on_c, 9, 69, 44
1, 96720, Note_on_c, 9, 42, 43
1, 96720, Note_on_c, 9, 35, 97
1, 96724, Note_on_c, 9, 42, 0
1, 96839, Note_on_c, 9, 54, 0
1, 96839, Note_on_c, 9, 69, 0
1, 96840, Note_on_c, 9, 54, 44
1, 96840, Note_on_c, 9, 82, 44
1, 96959, Note_on_c, 9, 35, 0
1, 96959, Note_on_c, 9, 54, 0
1, 96959, Note_on_c, 9, 82, 0
1, 96960, Note_on_c, 9, 40, 86
1, 96960, Note_on_c, 9, 54, 68
1, 96960, Note_on_c, 9, 53, 66
1, 96960, Note_on_c, 9, 69, 44
1, 96960, Note_on_c, 9, 42, 95
1, 96960, Note_on_c, 9, 35, 109
1, 96964, Note_on_c, 9, 42, 0
1, 97079, Note_on_c, 9, 40, 0
1, 97079, Note_on_c, 9, 54, 0
1, 97079, Note_on_c, 9, 53, 0
1, 97079, Note_on_c, 9, 69, 0
1, 97080, Note_on_c, 9, 54, 48
1, 97080, Note_on_c, 9, 82, 44
1, 97199, Note_on_c, 9, 54, 0
1, 97199, Note_on_c, 9, 82, 0
1, 97200, Note_on_c, 9, 54, 68
1, 97200, Note_on_c, 9, 69, 44
1, 97200, Note_on_c, 9, 42, 38
1, 97204, Note_on_c, 9, 42, 0
1, 97319, Note_on_c, 9, 35, 0
1, 97319, Note_on_c, 9, 54, 0
1, 97319, Note_on_c, 9, 69, 0
1, 97320, Note_on_c, 9, 54, 47
1, 97320, Note_on_c, 9, 82, 44
1, 97320, Note_on_c, 9, 35, 111
1, 97439, Note_on_c, 9, 54, 0
1, 97439, Note_on_c, 9, 82, 0
1, 97439, Note_on_c, 9, 35, 0
1, 97440, Note_on_c, 9, 40, 86
1, 97440, Note_on_c, 9, 54, 68
1, 97440, Note_on_c, 9, 53, 66
1, 97440, Note_on_c, 9, 69, 44
1, 97440, Note_on_c, 9, 42, 92
1, 97444, Note_on_c, 9, 42, 0
1, 97559, Note_on_c, 9, 40, 0
1, 97559, Note_on_c, 9, 54, 0
1, 97559, Note_on_c, 9, 53, 0
1, 97559, Note_on_c, 9, 69, 0
1, 97560, Note_on_c, 9, 54, 46
1, 97560, Note_on_c, 9, 82, 44
1, 97679, Note_on_c, 9, 54, 0
1, 97679, Note_on_c, 9, 82, 0
1, 97680, Note_on_c, 9, 54, 68
1, 97680, Note_on_c, 9, 69, 44
1, 97680, Note_on_c, 9, 42, 47
1, 97680, Note_on_c, 9, 35, 101
1, 97684, Note_on_c, 9, 42, 0
1, 97799, Note_on_c, 9, 54, 0
1, 97799, Note_on_c, 9, 69, 0
1, 97800, Note_on_c, 9, 54, 51
1, 97800, Note_on_c, 9, 82, 44
1, 97919, Note_on_c, 9, 35, 0
1, 97919, Note_on_c, 9, 54, 0
1, 97919, Note_on_c, 9, 82, 0
1, 97920, Note_on_c, 9, 40, 86
1, 97920, Note_on_c, 9, 54, 68
1, 97920, Note_on_c, 9, 53, 66
1, 97920, Note_on_c, 9, 69, 44
1, 97920, Note_on_c, 9, 42, 86
1, 97920, Note_on_c, 9, 35, 109
1, 97924, Note_on_c, 9, 42, 0
1, 98039, Note_on_c, 9, 40, 0
1, 98039, Note_on_c, 9, 54, 0
1, 98039, Note_on_c, 9, 53, 0
1, 98039, Note_on_c, 9, 69, 0
1, 98040, Note_on_c, 9, 54, 41
1, 98040, Note_on_c, 9, 82, 44
1, 98159, Note_on_c, 9, 54, 0
1, 98159, Note_on_c, 9, 82, 0
1, 98160, Note_on_c, 9, 54, 68
1, 98160, Note_on_c, 9, 69, 44
1, 98160, Note_on_c, 9, 42, 36
1, 98164, Note_on_c, 9, 42, 0
1, 98279, Note_on_c, 9, 35, 0
1, 98279, Note_on_c, 9, 54, 0
1, 98279, Note_on_c, 9, 69, 0
1, 98280, Note_on_c, 9, 54, 49
1, 98280, Note_on_c, 9, 82, 44
1, 98280, Note_on_c, 9, 35, 103
1, 98399, Note_on_c, 9, 54, 0
1, 98399, Note_on_c, 9, 82, 0
1, 98399, Note_on_c, 9, 35, 0
1, 98400, Note_on_c, 9, 40, 86
1, 98400, Note_on_c, 9, 54, 68
1, 98400, Note_on_c, 9, 53, 66
1, 98400, Note_on_c, 9, 69, 44
1, 98400, Note_on_c, 9, 42, 91
1, 98404, Note_on_c, 9, 42, 0
1, 98519, Note_on_c, 9, 40, 0
1, 98519, Note_on_c, 9, 54, 0
1, 98519, Note_on_c, 9, 53, 0
1, 98519, Note_on_c, 9, 69, 0
1, 98520, Note_on_c, 9, 54, 45
1, 98520, Note_on_c, 9, 82, 44
1, 98639, Note_on_c, 9, 54, 0
1, 98639, Note_on_c, 9, 82, 0
1, 98640, Note_on_c, 9, 54, 68
1, 98640, Note_on_c, 9, 69, 44
1, 98640, Note_on_c, 9, 42, 43
1, 98640, Note_on_c, 9, 35, 97
1, 98644, Note_on_c, 9, 42, 0
1, 98759, Note_on_c, 9, 54, 0
1, 98759, Note_on_c, 9, 69, 0
1, 98760, Note_on_c, 9, 54, 44
1, 98760, Note_on_c, 9, 82, 44
1, 98879, Note_on_c, 9, 35, 0
1, 98879, Note_on_c, 9, 54, 0
1, 98879, Note_on_c, 9, 82, 0
1, 98880, Note_on_c, 9, 40, 86
1, 98880, Note_on_c, 9, 54, 68
1, 98880, Note_on_c, 9, 53, 66
1, 98880, Note_on_c, 9, 69, 44
1, 98880, Note_on_c, 9, 42, 95
1, 98880, Note_on_c, 9, 35, 109
1, 98884, Note_on_c, 9, 42, 0
1, 98999, Note_on_c, 9, 40, 0
1, 98999, Note_on_c, 9, 54, 0
1, 98999, Note_on_c, 9, 53, 0
1, 98999, Note_on_c, 9, 69, 0
1, 99000, Note_on_c, 9, 54, 48
1, 99000, Note_on_c, 9, 82, 44
1, 99119, Note_on_c, 9, 54, 0
1, 99119, Note_on_c, 9, 82, 0
1, 99120, Note_on_c, 9, 54, 68
1, 99120, Note_on_c, 9, 69, 44
1, 99120, Note_on_c, 9, 42, 38
1, 99124, Note_on_c, 9, 42, 0
1, 99239, Note_on_c, 9, 35, 0
1, 99239, Note_on_c, 9, 54, 0
1, 99239, Note_on_c, 9, 69, 0
1, 99240, Note_on_c, 9, 54, 47
1, 99240, Note_on_c, 9, 82, 44
1, 99240, Note_on_c, 9, 35, 111
1, 99359, Note_on_c, 9, 54, 0
1, 99359, Note_on_c, 9, 82, 0
1, 99359, Note_on_c, 9, 35, 0
1, 99360, Note_on_c, 9, 40, 86
1, 99360, Note_on_c, 9, 54, 68
1, 99360, Note_on_c, 9, 53, 66
1, 99360, Note_on_c, 9, 69, 44
1, 99360, Note_on_c, 9, 42, 92
1, 99364, Note_on_c, 9, 42, 0
1, 99479, Note_on_c, 9, 40, 0
1, 99479, Note_on_c, 9, 54, 0
1, 99479, Note_on_c, 9, 53, 0
1, 99479, Note_on_c, 9, 69, 0
1, 99480, Note_on_c, 9, 54, 46
1, 99480, Note_on_c, 9, 82, 44
1, 99599, Note_on_c, 9, 54, 0
1, 99599, Note_on_c, 9, 82, 0
1, 99600, Note_on_c, 9, 54, 68
1, 99600, Note_on_c, 9, 69, 44
1, 99600, Note_on_c, 9, 42, 47
1, 99600, Note_on_c, 9, 35, 101
1, 99604, Note_on_c, 9, 42, 0
1, 99719, Note_on_c, 9, 54, 0
1, 99719, Note_on_c, 9, 69, 0
1, 99720, Note_on_c, 9, 54, 51
1, 99720, Note_on_c, 9, 82, 44
1, 99839, Note_on_c, 9, 35, 0
1, 99839, Note_on_c, 9, 54, 0
1, 99839, Note_on_c, 9, 82, 0
1, 99840, Note_on_c, 9, 40, 86
1, 99840, Note_on_c, 9, 54, 68
1, 99840, Note_on_c, 9, 53, 66
1, 99840, Note_on_c, 9, 69, 44
1, 99840, Note_on_c, 9, 42, 86
1, 99840, Note_on_c, 9, 49, 65
1, 99840, Note_on_c, 9, 35, 109
1, 99844, Note_on_c, 9, 42, 0
1, 99844, Note_on_c, 9, 49, 0
1, 99959, Note_on_c, 9, 40, 0
1, 99959, Note_on_c, 9, 54, 0
1, 99959, Note_on_c, 9, 53, 0
1, 99959, Note_on_c, 9, 69, 0
1, 99960, Note_on_c, 9, 54, 41
1, 99960, Note_on_c, 9, 82, 44
1, 100079, Note_on_c, 9, 54, 0
1, 100079, Note_on_c, 9, 82, 0
1, 100080, Note_on_c, 9, 54, 68
1, 100080, Note_on_c, 9, 69, 44
1, 100080, Note_on_c, 9, 42, 36
1, 100084, Note_on_c, 9, 42, 0
1, 100199, Note_on_c, 9, 35, 0
1, 100199, Note_on_c, 9, 54, 0
1, 100199, Note_on_c, 9, 69, 0
1, 100200, Note_on_c, 9, 54, 49
1, 100200, Note_on_c, 9, 82, 44
1, 100200, Note_on_c, 9, 35, 103
1, 100319, Note_on_c, 9, 54, 0
1, 100319, Note_on_c, 9, 82, 0
1, 100319, Note_on_c, 9, 35, 0
1, 100320, Note_on_c, 9, 40, 86
1, 100320, Note_on_c, 9, 54, 68
1, 100320, Note_on_c, 9, 53, 66
1, 100320, Note_on_c, 9, 69, 44
1, 100320, Note_on_c, 9, 42, 91
1, 100324, Note_on_c, 9, 42, 0
1, 100439, Note_on_c, 9, 40, 0
1, 100439, Note_on_c, 9, 54, 0
1, 100439, Note_on_c, 9, 53, 0
1, 100439, Note_on_c, 9, 69, 0
1, 100440, Note_on_c, 9, 54, 45
1, 100440, Note_on_c, 9, 82, 44
1, 100559, Note_on_c, 9, 54, 0
1, 100559, Note_on_c, 9, 82, 0
1, 100560, Note_on_c, 9, 54, 68
1, 100560, Note_on_c, 9, 69, 44
1, 100560, Note_on_c, 9, 42, 43
1, 100560, Note_on_c, 9, 35, 97
1, 100564, Note_on_c, 9, 42, 0
1, 100679, Note_on_c, 9, 54, 0
1, 100679, Note_on_c, 9, 69, 0
1, 100680, Note_on_c, 9, 54, 44
1, 100680, Note_on_c, 9, 82, 44
1, 100799, Note_on_c, 9, 35, 0
1, 100799, Note_on_c, 9, 54, 0
1, 100799, Note_on_c, 9, 82, 0
1, 100800, Note_on_c, 9, 40, 86
1, 100800, Note_on_c, 9, 54, 68
1, 100800, Note_on_c, 9, 53, 66
1, 100800, Note_on_c, 9, 69, 44
1, 100800, Note_on_c, 9, 42, 95
1, 100800, Note_on_c, 9, 35, 109
1, 100804, Note_on_c, 9, 42, 0
1, 100919, Note_on_c, 9, 40, 0
1, 100919, Note_on_c, 9, 54, 0
1, 100919, Note_on_c, 9, 53, 0
1, 100919, Note_on_c, 9, 69, 0
1, 100920, Note_on_c, 9, 54, 48
1, 100920, Note_on_c, 9, 82, 44
1, 101039, Note_on_c, 9, 54, 0
1, 101039, Note_on_c, 9, 82, 0
1, 101040, Note_on_c, 9, 54, 68
1, 101040, Note_on_c, 9, 69, 44
1, 101040, Note_on_c, 9, 42, 38
1, 101044, Note_on_c, 9, 42, 0
1, 101159, Note_on_c, 9, 35, 0
1, 101159, Note_on_c, 9, 54, 0
1, 101159, Note_on_c, 9, 69, 0
1, 101160, Note_on_c, 9, 54, 47
1, 101160, Note_on_c, 9, 82, 44
1, 101160, Note_on_c, 9, 35, 111
1, 101279, Note_on_c, 9, 54, 0
1, 101279, Note_on_c, 9, 82, 0
1, 101279, Note_on_c, 9, 35, 0
1, 101280, Note_on_c, 9, 40, 86
1, 101280, Note_on_c, 9, 54, 68
1, 101280, Note_on_c, 9, 53, 66
1, 101280, Note_on_c, 9, 69, 44
1, 101280, Note_on_c, 9, 42, 92
1, 101284, Note_on_c, 9, 42, 0
1, 101399, Note_on_c, 9, 40, 0
1, 101399, Note_on_c, 9, 54, 0
1, 101399, Note_on_c, 9, 53, 0
1, 101399, Note_on_c, 9, 69, 0
1, 101400, Note_on_c, 9, 54, 46
1, 101400, Note_on_c, 9, 82, 44
1, 101519, Note_on_c, 9, 54, 0
1, 101519, Note_on_c, 9, 82, 0
1, 101520, Note_on_c, 9, 54, 68
1, 101520, Note_on_c, 9, 69, 44
1, 101520, Note_on_c, 9, 42, 47
1, 101520, Note_on_c, 9, 35, 101
1, 101524, Note_on_c, 9, 42, 0
1, 101639, Note_on_c, 9, 54, 0
1, 101639, Note_on_c, 9, 69, 0
1, 101640, Note_on_c, 9, 54, 51
1, 101640, Note_on_c, 9, 82, 44
1, 101759, Note_on_c, 9, 35, 0
1, 101759, Note_on_c, 9, 54, 0
1, 101759, Note_on_c, 9, 82, 0
1, 101760, Note_on_c, 9, 40, 86
1, 101760, Note_on_c, 9, 54, 68
1, 101760, Note_on_c, 9, 53, 66
1, 101760, Note_on_c, 9, 69, 44
1, 101760, Note_on_c, 9, 42, 86
1, 101760, Note_on_c, 9, 35, 109
1, 101764, Note_on_c, 9, 42, 0
1, 101879, Note_on_c, 9, 40, 0
1, 101879, Note_on_c, 9, 54, 0
1, 101879, Note_on_c, 9, 53, 0
1, 101879, Note_on_c, 9, 69, 0
1, 101880, Note_on_c, 9, 54, 41
1, 101880, Note_on_c, 9, 82, 44
1, 101999, Note_on_c, 9, 54, 0
1, 101999, Note_on_c, 9, 82, 0
1, 102000, Note_on_c, 9, 54, 68
1, 102000, Note_on_c, 9, 69, 44
1, 102000, Note_on_c, 9, 42, 36
1, 102004, Note_on_c, 9, 42, 0
1, 102119, Note_on_c, 9, 35, 0
1, 102119, Note_on_c, 9, 54, 0
1, 102119, Note_on_c, 9, 69, 0
1, 102120, Note_on_c, 9, 54, 49
1, 102120, Note_on_c, 9, 82, 44
1, 102120, Note_on_c, 9, 35, 103
1, 102239, Note_on_c, 9, 54, 0
1, 102239, Note_on_c, 9, 82, 0
1, 102239, Note_on_c, 9, 35, 0
1, 102240, Note_on_c, 9, 40, 86
1, 102240, Note_on_c, 9, 54, 68
1, 102240, Note_on_c, 9, 53, 66
1, 102240, Note_on_c, 9, 69, 44
1, 102240, Note_on_c, 9, 42, 91
1, 102244, Note_on_c, 9, 42, 0
1, 102359, Note_on_c, 9, 40, 0
1, 102359, Note_on_c, 9, 54, 0
1, 102359, Note_on_c, 9, 53, 0
1, 102359, Note_on_c, 9, 69, 0
1, 102360, Note_on_c, 9, 54, 45
1, 102360, Note_on_c, 9, 82, 44
1, 102479, Note_on_c, 9, 54, 0
1, 102479, Note_on_c, 9, 82, 0
1, 102480, Note_on_c, 9, 54, 68
1, 102480, Note_on_c, 9, 69, 44
1, 102480, Note_on_c, 9, 42, 43
1, 102480, Note_on_c, 9, 35, 97
1, 102484, Note_on_c, 9, 42, 0
1, 102599, Note_on_c, 9, 54, 0
1, 102599, Note_on_c, 9, 69, 0
1, 102600, Note_on_c, 9, 54, 44
1, 102600, Note_on_c, 9, 82, 44
1, 102719, Note_on_c, 9, 35, 0
1, 102719, Note_on_c, 9, 54, 0
1, 102719, Note_on_c, 9, 82, 0
1, 102720, Note_on_c, 9, 40, 86
1, 102720, Note_on_c, 9, 54, 68
1, 102720, Note_on_c, 9, 53, 66
1, 102720, Note_on_c, 9, 69, 44
1, 102720, Note_on_c, 9, 42, 95
1, 102720, Note_on_c, 9, 35, 109
1, 102724, Note_on_c, 9, 42, 0
1, 102839, Note_on_c, 9, 40, 0
1, 102839, Note_on_c, 9, 54, 0
1, 102839, Note_on_c, 9, 53, 0
1, 102839, Note_on_c, 9, 69, 0
1, 102840, Note_on_c, 9, 54, 48
1, 102840, Note_on_c, 9, 82, 44
1, 102959, Note_on_c, 9, 54, 0
1, 102959, Note_on_c, 9, 82, 0
1, 102960, Note_on_c, 9, 54, 68
1, 102960, Note_on_c, 9, 69, 44
1, 102960, Note_on_c, 9, 42, 38
1, 102964, Note_on_c, 9, 42, 0
1, 103079, Note_on_c, 9, 35, 0
1, 103079, Note_on_c, 9, 54, 0
1, 103079, Note_on_c, 9, 69, 0
1, 103080, Note_on_c, 9, 54, 47
1, 103080, Note_on_c, 9, 82, 44
1, 103080, Note_on_c, 9, 35, 111
1, 103199, Note_on_c, 9, 54, 0
1, 103199, Note_on_c, 9, 82, 0
1, 103199, Note_on_c, 9, 35, 0
1, 103200, Note_on_c, 9, 40, 86
1, 103200, Note_on_c, 9, 54, 68
1, 103200, Note_on_c, 9, 53, 66
1, 103200, Note_on_c, 9, 69, 44
1, 103200, Note_on_c, 9, 42, 92
1, 103204, Note_on_c, 9, 42, 0
1, 103319, Note_on_c, 9, 40, 0
1, 103319, Note_on_c, 9, 54, 0
1, 103319, Note_on_c, 9, 53, 0
1, 103319, Note_on_c, 9, 69, 0
1, 103320, Note_on_c, 9, 54, 46
1, 103320, Note_on_c, 9, 82, 44
1, 103439, Note_on_c, 9, 54, 0
1, 103439, Note_on_c, 9, 82, 0
1, 103440, Note_on_c, 9, 54, 68
1, 103440, Note_on_c, 9, 69, 44
1, 103440, Note_on_c, 9, 42, 47
1, 103440, Note_on_c, 9, 35, 101
1, 103444, Note_on_c, 9, 42, 0
1, 103559, Note_on_c, 9, 54, 0
1, 103559, Note_on_c, 9, 69, 0
1, 103560, Note_on_c, 9, 54, 51
1, 103560, Note_on_c, 9, 82, 44
1, 103679, Note_on_c, 9, 35, 0
1, 103679, Note_on_c, 9, 54, 0
1, 103679, Note_on_c, 9, 82, 0
1, 103680, Note_on_c, 9, 40, 86
1, 103680, Note_on_c, 9, 54, 68
1, 103680, Note_on_c, 9, 53, 66
1, 103680, Note_on_c, 9, 69, 44
1, 103680, Note_on_c, 9, 42, 86
1, 103680, Note_on_c, 9, 49, 65
1, 103680, Note_on_c, 9, 35, 109
1, 103684, Note_on_c, 9, 42, 0
1, 103684, Note_on_c, 9, 49, 0
1, 103799, Note_on_c, 9, 40, 0
1, 103799, Note_on_c, 9, 54, 0
1, 103799, Note_on_c, 9, 53, 0
1, 103799, Note_on_c, 9, 69, 0
1, 103800, Note_on_c, 9, 54, 41
1, 103800, Note_on_c, 9, 82, 44
1, 103919, Note_on_c, 9, 54, 0
1, 103919, Note_on_c, 9, 82, 0
1, 103920, Note_on_c, 9, 54, 68
1, 103920, Note_on_c, 9, 69, 44
1, 103920, Note_on_c, 9, 42, 36
1, 103924, Note_on_c, 9, 42, 0
1, 104039, Note_on_c, 9, 35, 0
1, 104039, Note_on_c, 9, 54, 0
1, 104039, Note_on_c, 9, 69, 0
1, 104040, Note_on_c, 9, 54, 49
1, 104040, Note_on_c, 9, 82, 44
1, 104040, Note_on_c, 9, 35, 103
1, 104159, Note_on_c, 9, 54, 0
1, 104159, Note_on_c, 9, 82, 0
1, 104159, Note_on_c, 9, 35, 0
1, 104160, Note_on_c, 9, 40, 86
1, 104160, Note_on_c, 9, 54, 68
1, 104160, Note_on_c, 9, 53, 66
1, 104160, Note_on_c, 9, 69, 44
1, 104160, Note_on_c, 9, 42, 91
1, 104164, Note_on_c, 9, 42, 0
1, 104279, Note_on_c, 9, 40, 0
1, 104279, Note_on_c, 9, 54, 0
1, 104279, Note_on_c, 9, 53, 0
1, 104279, Note_on_c, 9, 69, 0
1, 104280, Note_on_c, 9, 54, 45
1, 104280, Note_on_c, 9, 82, 44
1, 104399, Note_on_c, 9, 54, 0
1, 104399, Note_on_c, 9, 82, 0
1, 104400, Note_on_c, 9, 54, 68
1, 104400, Note_on_c, 9, 69, 44
1, 104400, Note_on_c, 9, 42, 43
1, 104400, Note_on_c, 9, 35, 97
1, 104404, Note_on_c, 9, 42, 0
1, 104519, Note_on_c, 9, 54, 0
1, 104519, Note_on_c, 9, 69, 0
1, 104520, Note_on_c, 9, 54, 44
1, 104520, Note_on_c, 9, 82, 44
1, 104639, Note_on_c, 9, 35, 0
1, 104639, Note_on_c, 9, 54, 0
1, 104639, Note_on_c, 9, 82, 0
1, 104640, Note_on_c, 9, 40, 86
1, 104640, Note_on_c, 9, 54, 68
1, 104640, Note_on_c, 9, 53, 66
1, 104640, Note_on_c, 9, 69, 44
1, 104640, Note_on_c, 9, 42, 95
1, 104640, Note_on_c, 9, 35, 109
1, 104644, Note_on_c, 9, 42, 0
1, 104759, Note_on_c, 9, 40, 0
1, 104759, Note_on_c, 9, 54, 0
1, 104759, Note_on_c, 9, 53, 0
1, 104759, Note_on_c, 9, 69, 0
1, 104760, Note_on_c, 9, 54, 48
1, 104760, Note_on_c, 9, 82, 44
1, 104879, Note_on_c, 9, 54, 0
1, 104879, Note_on_c, 9, 82, 0
1, 104880, Note_on_c, 9, 54, 68
1, 104880, Note_on_c, 9, 69, 44
1, 104880, Note_on_c, 9, 42, 38
1, 104884, Note_on_c, 9, 42, 0
1, 104999, Note_on_c, 9, 35, 0
1, 104999, Note_on_c, 9, 54, 0
1, 104999, Note_on_c, 9, 69, 0
1, 105000, Note_on_c, 9, 54, 47
1, 105000, Note_on_c, 9, 82, 44
1, 105000, Note_on_c, 9, 35, 111
1, 105119, Note_on_c, 9, 54, 0
1, 105119, Note_on_c, 9, 82, 0
1, 105119, Note_on_c, 9, 35, 0
1, 105120, Note_on_c, 9, 40, 86
1, 105120, Note_on_c, 9, 54, 68
1, 105120, Note_on_c, 9, 53, 66
1, 105120, Note_on_c, 9, 69, 44
1, 105120, Note_on_c, 9, 42, 92
1, 105124, Note_on_c, 9, 42, 0
1, 105239, Note_on_c, 9, 40, 0
1, 105239, Note_on_c, 9, 54, 0
1, 105239, Note_on_c, 9, 53, 0
1, 105239, Note_on_c, 9, 69, 0
1, 105240, Note_on_c, 9, 54, 46
1, 105240, Note_on_c, 9, 82, 44
1, 105359, Note_on_c, 9, 54, 0
1, 105359, Note_on_c, 9, 82, 0
1, 105360, Note_on_c, 9, 54, 68
1, 105360, Note_on_c, 9, 69, 44
1, 105360, Note_on_c, 9, 42, 47
1, 105360, Note_on_c, 9, 35, 101
1, 105364, Note_on_c, 9, 42, 0
1, 105479, Note_on_c, 9, 54, 0
1, 105479, Note_on_c, 9, 69, 0
1, 105480, Note_on_c, 9, 54, 51
1, 105480, Note_on_c, 9, 82, 44
1, 105599, Note_on_c, 9, 35, 0
1, 105599, Note_on_c, 9, 54, 0
1, 105599, Note_on_c, 9, 82, 0
1, 105600, Note_on_c, 9, 40, 86
1, 105600, Note_on_c, 9, 54, 68
1, 105600, Note_on_c, 9, 53, 66
1, 105600, Note_on_c, 9, 69, 44
1, 105600, Note_on_c, 9, 42, 86
1, 105600, Note_on_c, 9, 35, 109
1, 105604, Note_on_c, 9, 42, 0
1, 105719, Note_on_c, 9, 40, 0
1, 105719, Note_on_c, 9, 54, 0
1, 105719, Note_on_c, 9, 53, 0
1, 105719, Note_on_c, 9, 69, 0
1, 105720, Note_on_c, 9, 54, 41
1, 105720, Note_on_c, 9, 82, 44
1, 105839, Note_on_c, 9, 54, 0
1, 105839, Note_on_c, 9, 82, 0
1, 105840, Note_on_c, 9, 54, 68
1, 105840, Note_on_c, 9, 69, 44
1, 105840, Note_on_c, 9, 42, 36
1, 105844, Note_on_c, 9, 42, 0
1, 105959, Note_on_c, 9, 35, 0
1, 105959, Note_on_c, 9, 54, 0
1, 105959, Note_on_c, 9, 69, 0
1, 105960, Note_on_c, 9, 54, 49
1, 105960, Note_on_c, 9, 82, 44
1, 105960, Note_on_c, 9, 35, 103
1, 106079, Note_on_c, 9, 54, 0
1, 106079, Note_on_c, 9, 82, 0
1, 106079, Note_on_c, 9, 35, 0
1, 106080, Note_on_c, 9, 40, 86
1, 106080, Note_on_c, 9, 54, 68
1, 106080, Note_on_c, 9, 53, 66
1, 106080, Note_on_c, 9, 69, 44
1, 106080, Note_on_c, 9, 42, 91
1, 106084, Note_on_c, 9, 42, 0
1, 106199, Note_on_c, 9, 40, 0
1, 106199, Note_on_c, 9, 54, 0
1, 106199, Note_on_c, 9, 53, 0
1, 106199, Note_on_c, 9, 69, 0
1, 106200, Note_on_c, 9, 54, 45
1, 106200, Note_on_c, 9, 82, 44
1, 106319, Note_on_c, 9, 54, 0
1, 106319, Note_on_c, 9, 82, 0
1, 106320, Note_on_c, 9, 54, 68
1, 106320, Note_on_c, 9, 69, 44
1, 106320, Note_on_c, 9, 42, 43
1, 106320, Note_on_c, 9, 35, 97
1, 106324, Note_on_c, 9, 42, 0
1, 106439, Note_on_c, 9, 54, 0
1, 106439, Note_on_c, 9, 69, 0
1, 106440, Note_on_c, 9, 54, 44
1, 106440, Note_on_c, 9, 82, 44
1, 106559, Note_on_c, 9, 35, 0
1, 106559, Note_on_c, 9, 54, 0
1, 106559, Note_on_c, 9, 82, 0
1, 106560, Note_on_c, 9, 40, 86
1, 106560, Note_on_c, 9, 54, 68
1, 106560, Note_on_c, 9, 53, 66
1, 106560, Note_on_c, 9, 69, 44
1, 106560, Note_on_c, 9, 42, 95
1, 106560, Note_on_c, 9, 35, 109
1, 106564, Note_on_c, 9, 42, 0
1, 106679, Note_on_c, 9, 40, 0
1, 106679, Note_on_c, 9, 54, 0
1, 106679, Note_on_c, 9, 53, 0
1, 106679, Note_on_c, 9, 69, 0
1, 106679, Note_on_c, 9, 35, 0
1, 106680, Note_on_c, 9, 54, 48
1, 106680, Note_on_c, 9, 82, 44
1, 106680, Note_on_c, 9, 35, 111
1, 106799, Note_on_c, 9, 54, 0
1, 106799, Note_on_c, 9, 82, 0
1, 106800, Note_on_c, 9, 54, 68
1, 106800, Note_on_c, 9, 69, 44
1, 106800, Note_on_c, 9, 42, 38
1, 106804, Note_on_c, 9, 42, 0
1, 106919, Note_on_c, 9, 54, 0
1, 106919, Note_on_c, 9, 69, 0
1, 106920, Note_on_c, 9, 54, 47
1, 106920, Note_on_c, 9, 82, 44
1, 107039, Note_on_c, 9, 35, 0
1, 107039, Note_on_c, 9, 54, 0
1, 107039, Note_on_c, 9, 82, 0
1, 107040, Note_on_c, 9, 40, 86
1, 107040, Note_on_c, 9, 54, 68
1, 107040, Note_on_c, 9, 53, 66
1, 107040, Note_on_c, 9, 69, 44
1, 107040, Note_on_c, 9, 42, 92
1, 107044, Note_on_c, 9, 42, 0
1, 107159, Note_on_c, 9, 40, 0
1, 107159, Note_on_c, 9, 54, 0
1, 107159, Note_on_c, 9, 53, 0
1, 107159, Note_on_c, 9, 69, 0
1, 107160, Note_on_c, 9, 54, 46
1, 107160, Note_on_c, 9, 82, 44
1, 107279, Note_on_c, 9, 54, 0
1, 107279, Note_on_c, 9, 82, 0
1, 107280, Note_on_c, 9, 54, 68
1, 107280, Note_on_c, 9, 69, 44
1, 107280, Note_on_c, 9, 42, 47
1, 107280, Note_on_c, 9, 35, 101
1, 107284, Note_on_c, 9, 42, 0
1, 107399, Note_on_c, 9, 54, 0
1, 107399, Note_on_c, 9, 69, 0
1, 107400, Note_on_c, 9, 54, 51
1, 107400, Note_on_c, 9, 82, 44
1, 107519, Note_on_c, 9, 35, 0
1, 107519, Note_on_c, 9, 54, 0
1, 107519, Note_on_c, 9, 82, 0
1, 107520, Note_on_c, 9, 40, 86
1, 107520, Note_on_c, 9, 54, 68
1, 107520, Note_on_c, 9, 53, 66
1, 107520, Note_on_c, 9, 69, 44
1, 107520, Note_on_c, 9, 42, 86
1, 107520, Note_on_c, 9, 49, 65
1, 107520, Note_on_c, 9, 35, 109
1, 107524, Note_on_c, 9, 42, 0
1, 107524, Note_on_c, 9, 49, 0
1, 107639, Note_on_c, 9, 40, 0
1, 107639, Note_on_c, 9, 54, 0
1, 107639, Note_on_c, 9, 53, 0
1, 107639, Note_on_c, 9, 69, 0
1, 107640, Note_on_c, 9, 54, 41
1, 107640, Note_on_c, 9, 82, 44
1, 107759, Note_on_c, 9, 54, 0
1, 107759, Note_on_c, 9, 82, 0
1, 107760, Note_on_c, 9, 54, 68
1, 107760, Note_on_c, 9, 69, 44
1, 107760, Note_on_c, 9, 42, 36
1, 107764, Note_on_c, 9, 42, 0
1, 107879, Note_on_c, 9, 35, 0
1, 107879, Note_on_c, 9, 54, 0
1, 107879, Note_on_c, 9, 69, 0
1, 107880, Note_on_c, 9, 54, 49
1, 107880, Note_on_c, 9, 82, 44
1, 107880, Note_on_c, 9, 35, 103
1, 107999, Note_on_c, 9, 54, 0
1, 107999, Note_on_c, 9, 82, 0
1, 107999, Note_on_c, 9, 35, 0
1, 108000, Note_on_c, 9, 40, 86
1, 108000, Note_on_c, 9, 54, 68
1, 108000, Note_on_c, 9, 53, 66
1, 108000, Note_on_c, 9, 69, 44
1, 108000, Note_on_c, 9, 42, 91
1, 108004, Note_on_c, 9, 42, 0
1, 108119, Note_on_c, 9, 40, 0
1, 108119, Note_on_c, 9, 54, 0
1, 108119, Note_on_c, 9, 53, 0
1, 108119, Note_on_c, 9, 69, 0
1, 108120, Note_on_c, 9, 54, 45
1, 108120, Note_on_c, 9, 82, 44
1, 108239, Note_on_c, 9, 54, 0
1, 108239, Note_on_c, 9, 82, 0
1, 108240, Note_on_c, 9, 54, 68
1, 108240, Note_on_c, 9, 69, 44
1, 108240, Note_on_c, 9, 42, 43
1, 108240, Note_on_c, 9, 35, 97
1, 108244, Note_on_c, 9, 42, 0
1, 108359, Note_on_c, 9, 54, 0
1, 108359, Note_on_c, 9, 69, 0
1, 108360, Note_on_c, 9, 54, 44
1, 108360, Note_on_c, 9, 82, 44
1, 108479, Note_on_c, 9, 35, 0
1, 108479, Note_on_c, 9, 54, 0
1, 108479, Note_on_c, 9, 82, 0
1, 108480, Note_on_c, 9, 40, 86
1, 108480, Note_on_c, 9, 54, 68
1, 108480, Note_on_c, 9, 53, 66
1, 108480, Note_on_c, 9, 69, 44
1, 108480, Note_on_c, 9, 42, 95
1, 108480, Note_on_c, 9, 35, 109
1, 108484, Note_on_c, 9, 42, 0
1, 108599, Note_on_c, 9, 40, 0
1, 108599, Note_on_c, 9, 54, 0
1, 108599, Note_on_c, 9, 53, 0
1, 108599, Note_on_c, 9, 69, 0
1, 108600, Note_on_c, 9, 54, 48
1, 108600, Note_on_c, 9, 82, 44
1, 108719, Note_on_c, 9, 54, 0
1, 108719, Note_on_c, 9, 82, 0
1, 108720, Note_on_c, 9, 54, 68
1, 108720, Note_on_c, 9, 69, 44
1, 108720, Note_on_c, 9, 42, 38
1, 108724, Note_on_c, 9, 42, 0
1, 108839, Note_on_c, 9, 35, 0
1, 108839, Note_on_c, 9, 54, 0
1, 108839, Note_on_c, 9, 69, 0
1, 108840, Note_on_c, 9, 54, 47
1, 108840, Note_on_c, 9, 82, 44
1, 108840, Note_on_c, 9, 35, 111
1, 108959, Note_on_c, 9, 54, 0
1, 108959, Note_on_c, 9, 82, 0
1, 108959, Note_on_c, 9, 35, 0
1, 108960, Note_on_c, 9, 40, 86
1, 108960, Note_on_c, 9, 54, 68
1, 108960, Note_on_c, 9, 53, 66
1, 108960, Note_on_c, 9, 69, 44
1, 108960, Note_on_c, 9, 42, 92
1, 108964, Note_on_c, 9, 42, 0
1, 109079, Note_on_c, 9, 40, 0
1, 109079, Note_on_c, 9, 54, 0
1, 109079, Note_on_c, 9, 53, 0
1, 109079, Note_on_c, 9, 69, 0
1, 109080, Note_on_c, 9, 54, 46
1, 109080, Note_on_c, 9, 82, 44
1, 109199, Note_on_c, 9, 54, 0
1, 109199, Note_on_c, 9, 82, 0
1, 109200, Note_on_c, 9, 54, 68
1, 109200, Note_on_c, 9, 69, 44
1, 109200, Note_on_c, 9, 42, 47
1, 109200, Note_on_c, 9, 35, 101
1, 109204, Note_on_c, 9, 42, 0
1, 109319, Note_on_c, 9, 54, 0
1, 109319, Note_on_c, 9, 69, 0
1, 109320, Note_on_c, 9, 54, 51
1, 109320, Note_on_c, 9, 82, 44
1, 109439, Note_on_c, 9, 35, 0
1, 109439, Note_on_c, 9, 54, 0
1, 109439, Note_on_c, 9, 82, 0
1, 109440, Note_on_c, 9, 40, 86
1, 109440, Note_on_c, 9, 54, 68
1, 109440, Note_on_c, 9, 53, 66
1, 109440, Note_on_c, 9, 69, 44
1, 109440, Note_on_c, 9, 42, 86
1, 109440, Note_on_c, 9, 35, 109
1, 109444, Note_on_c, 9, 42, 0
1, 109559, Note_on_c, 9, 40, 0
1, 109559, Note_on_c, 9, 54, 0
1, 109559, Note_on_c, 9, 53, 0
1, 109559, Note_on_c, 9, 69, 0
1, 109560, Note_on_c, 9, 54, 41
1, 109560, Note_on_c, 9, 82, 44
1, 109679, Note_on_c, 9, 54, 0
1, 109679, Note_on_c, 9, 82, 0
1, 109680, Note_on_c, 9, 54, 68
1, 109680, Note_on_c, 9, 69, 44
1, 109680, Note_on_c, 9, 42, 36
1, 109684, Note_on_c, 9, 42, 0
1, 109799, Note_on_c, 9, 35, 0
1, 109799, Note_on_c, 9, 54, 0
1, 109799, Note_on_c, 9, 69, 0
1, 109800, Note_on_c, 9, 54, 49
1, 109800, Note_on_c, 9, 82, 44
1, 109800, Note_on_c, 9, 35, 103
1, 109919, Note_on_c, 9, 54, 0
1, 109919, Note_on_c, 9, 82, 0
1, 109919, Note_on_c, 9, 35, 0
1, 109920, Note_on_c, 9, 40, 86
1, 109920, Note_on_c, 9, 54, 68
1, 109920, Note_on_c, 9, 53, 66
1, 109920, Note_on_c, 9, 69, 44
1, 109920, Note_on_c, 9, 42, 91
1, 109924, Note_on_c, 9, 42, 0
1, 110039, Note_on_c, 9, 40, 0
1, 110039, Note_on_c, 9, 54, 0
1, 110039, Note_on_c, 9, 53, 0
1, 110039, Note_on_c, 9, 69, 0
1, 110040, Note_on_c, 9, 54, 45
1, 110040, Note_on_c, 9, 82, 44
1, 110159, Note_on_c, 9, 54, 0
1, 110159, Note_on_c, 9, 82, 0
1, 110160, Note_on_c, 9, 54, 68
1, 110160, Note_on_c, 9, 69, 44
1, 110160, Note_on_c, 9, 42, 43
1, 110160, Note_on_c, 9, 35, 97
1, 110164, Note_on_c, 9, 42, 0
1, 110279, Note_on_c, 9, 54, 0
1, 110279, Note_on_c, 9, 69, 0
1, 110280, Note_on_c, 9, 54, 44
1, 110280, Note_on_c, 9, 82, 44
1, 110399, Note_on_c, 9, 35, 0
1, 110399, Note_on_c, 9, 54, 0
1, 110399, Note_on_c, 9, 82, 0
1, 110400, Note_on_c, 9, 40, 86
1, 110400, Note_on_c, 9, 54, 68
1, 110400, Note_on_c, 9, 53, 66
1, 110400, Note_on_c, 9, 69, 44
1, 110400, Note_on_c, 9, 42, 95
1, 110400, Note_on_c, 9, 35, 109
1, 110404, Note_on_c, 9, 42, 0
1, 110519, Note_on_c, 9, 40, 0
1, 110519, Note_on_c, 9, 54, 0
1, 110519, Note_on_c, 9, 53, 0
1, 110519, Note_on_c, 9, 69, 0
1, 110520, Note_on_c, 9, 54, 48
1, 110520, Note_on_c, 9, 82, 44
1, 110639, Note_on_c, 9, 54, 0
1, 110639, Note_on_c, 9, 82, 0
1, 110640, Note_on_c, 9, 54, 68
1, 110640, Note_on_c, 9, 69, 44
1, 110640, Note_on_c, 9, 42, 38
1, 110644, Note_on_c, 9, 42, 0
1, 110759, Note_on_c, 9, 35, 0
1, 110759, Note_on_c, 9, 54, 0
1, 110759, Note_on_c, 9, 69, 0
1, 110760, Note_on_c, 9, 54, 47
1, 110760, Note_on_c, 9, 82, 44
1, 110760, Note_on_c, 9, 35, 111
1, 110879, Note_on_c, 9, 54, 0
1, 110879, Note_on_c, 9, 82, 0
1, 110879, Note_on_c, 9, 35, 0
1, 110880, Note_on_c, 9, 40, 86
1, 110880, Note_on_c, 9, 54, 68
1, 110880, Note_on_c, 9, 53, 66
1, 110880, Note_on_c, 9, 69, 44
1, 110880, Note_on_c, 9, 42, 92
1, 110884, Note_on_c, 9, 42, 0
1, 110999, Note_on_c, 9, 40, 0
1, 110999, Note_on_c, 9, 54, 0
1, 110999, Note_on_c, 9, 53, 0
1, 110999, Note_on_c, 9, 69, 0
1, 111000, Note_on_c, 9, 54, 46
1, 111000, Note_on_c, 9, 82, 44
1, 111119, Note_on_c, 9, 54, 0
1, 111119, Note_on_c, 9, 82, 0
1, 111120, Note_on_c, 9, 54, 68
1, 111120, Note_on_c, 9, 69, 44
1, 111120, Note_on_c, 9, 42, 47
1, 111120, Note_on_c, 9, 35, 101
1, 111124, Note_on_c, 9, 42, 0
1, 111239, Note_on_c, 9, 54, 0
1, 111239, Note_on_c, 9, 69, 0
1, 111240, Note_on_c, 9, 54, 51
1, 111240, Note_on_c, 9, 82, 44
1, 111359, Note_on_c, 9, 35, 0
1, 111359, Note_on_c, 9, 54, 0
1, 111359, Note_on_c, 9, 82, 0
1, 111360, Note_on_c, 9, 40, 86
1, 111360, Note_on_c, 9, 54, 68
1, 111360, Note_on_c, 9, 53, 66
1, 111360, Note_on_c, 9, 69, 44
1, 111360, Note_on_c, 9, 42, 86
1, 111360, Note_on_c, 9, 49, 65
1, 111360, Note_on_c, 9, 35, 109
1, 111364, Note_on_c, 9, 42, 0
1, 111364, Note_on_c, 9, 49, 0
1, 111479, Note_on_c, 9, 40, 0
1, 111479, Note_on_c, 9, 54, 0
1, 111479, Note_on_c, 9, 53, 0
1, 111479, Note_on_c, 9, 69, 0
1, 111480, Note_on_c, 9, 54, 41
1, 111480, Note_on_c, 9, 82, 44
1, 111599, Note_on_c, 9, 54, 0
1, 111599, Note_on_c, 9, 82, 0
1, 111600, Note_on_c, 9, 54, 68
1, 111600, Note_on_c, 9, 69, 44
1, 111600, Note_on_c, 9, 42, 36
1, 111604, Note_on_c, 9, 42, 0
1, 111719, Note_on_c, 9, 35, 0
1, 111719, Note_on_c, 9, 54, 0
1, 111719, Note_on_c, 9, 69, 0
1, 111720, Note_on_c, 9, 54, 49
1, 111720, Note_on_c, 9, 82, 44
1, 111720, Note_on_c, 9, 35, 103
1, 111839, Note_on_c, 9, 54, 0
1, 111839, Note_on_c, 9, 82, 0
1, 111839, Note_on_c, 9, 35, 0
1, 111840, Note_on_c, 9, 40, 86
1, 111840, Note_on_c, 9, 54, 68
1, 111840, Note_on_c, 9, 53, 66
1, 111840, Note_on_c, 9, 69, 44
1, 111840, Note_on_c, 9, 42, 91
1, 111844, Note_on_c, 9, 42, 0
1, 111959, Note_on_c, 9, 40, 0
1, 111959, Note_on_c, 9, 54, 0
1, 111959, Note_on_c, 9, 53, 0
1, 111959, Note_on_c, 9, 69, 0
1, 111960, Note_on_c, 9, 54, 45
1, 111960, Note_on_c, 9, 82, 44
1, 112079, Note_on_c, 9, 54, 0
1, 112079, Note_on_c, 9, 82, 0
1, 112080, Note_on_c, 9, 54, 68
1, 112080, Note_on_c, 9, 69, 44
1, 112080, Note_on_c, 9, 42, 43
1, 112080, Note_on_c, 9, 35, 97
1, 112084, Note_on_c, 9, 42, 0
1, 112199, Note_on_c, 9, 54, 0
1, 112199, Note_on_c, 9, 69, 0
1, 112200, Note_on_c, 9, 54, 44
1, 112200, Note_on_c, 9, 82, 44
1, 112319, Note_on_c, 9, 35, 0
1, 112319, Note_on_c, 9, 54, 0
1, 112319, Note_on_c, 9, 82, 0
1, 112320, Note_on_c, 9, 40, 86
1, 112320, Note_on_c, 9, 54, 68
1, 112320, Note_on_c, 9, 53, 66
1, 112320, Note_on_c, 9, 69, 44
1, 112320, Note_on_c, 9, 42, 95
1, 112320, Note_on_c, 9, 35, 109
1, 112324, Note_on_c, 9, 42, 0
1, 112439, Note_on_c, 9, 40, 0
1, 112439, Note_on_c, 9, 54, 0
1, 112439, Note_on_c, 9, 53, 0
1, 112439, Note_on_c, 9, 69, 0
1, 112440, Note_on_c, 9, 54, 48
1, 112440, Note_on_c, 9, 82, 44
1, 112559, Note_on_c, 9, 54, 0
1, 112559, Note_on_c, 9, 82, 0
1, 112560, Note_on_c, 9, 54, 68
1, 112560, Note_on_c, 9, 69, 44
1, 112560, Note_on_c, 9, 42, 38
1, 112564, Note_on_c, 9, 42, 0
1, 112679, Note_on_c, 9, 35, 0
1, 112679, Note_on_c, 9, 54, 0
1, 112679, Note_on_c, 9, 69, 0
1, 112680, Note_on_c, 9, 54, 47
1, 112680, Note_on_c, 9, 82, 44
1, 112680, Note_on_c, 9, 35, 111
1, 112799, Note_on_c, 9, 54, 0
1, 112799, Note_on_c, 9, 82, 0
1, 112799, Note_on_c, 9, 35, 0
1, 112800, Note_on_c, 9, 40, 86
1, 112800, Note_on_c, 9, 54, 68
1, 112800, Note_on_c, 9, 53, 66
1, 112800, Note_on_c, 9, 69, 44
1, 112800, Note_on_c, 9, 42, 92
1, 112804, Note_on_c, 9, 42, 0
1, 112919, Note_on_c, 9, 40, 0
1, 112919, Note_on_c, 9, 54, 0
1, 112919, Note_on_c, 9, 53, 0
1, 112919, Note_on_c, 9, 69, 0
1, 112920, Note_on_c, 9, 54, 46
1, 112920, Note_on_c, 9, 82, 44
1, 113039, Note_on_c, 9, 54, 0
1, 113039, Note_on_c, 9, 82, 0
1, 113040, Note_on_c, 9, 54, 68
1, 113040, Note_on_c, 9, 69, 44
1, 113040, Note_on_c, 9, 42, 47
1, 113040, Note_on_c, 9, 35, 101
1, 113044, Note_on_c, 9, 42, 0
1, 113159, Note_on_c, 9, 54, 0
1, 113159, Note_on_c, 9, 69, 0
1, 113160, Note_on_c, 9, 54, 51
1, 113160, Note_on_c, 9, 82, 44
1, 113279, Note_on_c, 9, 35, 0
1, 113279, Note_on_c, 9, 54, 0
1, 113279, Note_on_c, 9, 82, 0
1, 113280, Note_on_c, 9, 40, 86
1, 113280, Note_on_c, 9, 54, 68
1, 113280, Note_on_c, 9, 53, 66
1, 113280, Note_on_c, 9, 69, 44
1, 113280, Note_on_c, 9, 42, 86
1, 113280, Note_on_c, 9, 35, 109
1, 113284, Note_on_c, 9, 42, 0
1, 113399, Note_on_c, 9, 40, 0
1, 113399, Note_on_c, 9, 54, 0
1, 113399, Note_on_c, 9, 53, 0
1, 113399, Note_on_c, 9, 69, 0
1, 113400, Note_on_c, 9, 54, 41
1, 113400, Note_on_c, 9, 82, 44
1, 113519, Note_on_c, 9, 54, 0
1, 113519, Note_on_c, 9, 82, 0
1, 113520, Note_on_c, 9, 54, 68
1, 113520, Note_on_c, 9, 69, 44
1, 113520, Note_on_c, 9, 42, 36
1, 113524, Note_on_c, 9, 42, 0
1, 113639, Note_on_c, 9, 35, 0
1, 113639, Note_on_c, 9, 54, 0
1, 113639, Note_on_c, 9, 69, 0
1, 113640, Note_on_c, 9, 54, 49
1, 113640, Note_on_c, 9, 82, 44
1, 113640, Note_on_c, 9, 35, 103
1, 113759, Note_on_c, 9, 54, 0
1, 113759, Note_on_c, 9, 82, 0
1, 113759, Note_on_c, 9, 35, 0
1, 113760, Note_on_c, 9, 40, 86
1, 113760, Note_on_c, 9, 54, 68
1, 113760, Note_on_c, 9, 53, 66
1, 113760, Note_on_c, 9, 69, 44
1, 113760, Note_on_c, 9, 42, 91
1, 113764, Note_on_c, 9, 42, 0
1, 113879, Note_on_c, 9, 40, 0
1, 113879, Note_on_c, 9, 54, 0
1, 113879, Note_on_c, 9, 53, 0
1, 113879, Note_on_c, 9, 69, 0
1, 113880, Note_on_c, 9, 54, 45
1, 113880, Note_on_c, 9, 82, 44
1, 113999, Note_on_c, 9, 54, 0
1, 113999, Note_on_c, 9, 82, 0
1, 114000, Note_on_c, 9, 54, 68
1, 114000, Note_on_c, 9, 69, 44
1, 114000, Note_on_c, 9, 42, 43
1, 114000, Note_on_c, 9, 35, 97
1, 114004, Note_on_c, 9, 42, 0
1, 114119, Note_on_c, 9, 54, 0
1, 114119, Note_on_c, 9, 69, 0
1, 114120, Note_on_c, 9, 54, 44
1, 114120, Note_on_c, 9, 82, 44
1, 114239, Note_on_c, 9, 35, 0
1, 114239, Note_on_c, 9, 54, 0
1, 114239, Note_on_c, 9, 82, 0
1, 114240, Note_on_c, 9, 40, 86
1, 114240, Note_on_c, 9, 54, 68
1, 114240, Note_on_c, 9, 53, 66
1, 114240, Note_on_c, 9, 69, 44
1, 114240, Note_on_c, 9, 42, 95
1, 114240, Note_on_c, 9, 35, 109
1, 114244, Note_on_c, 9, 42, 0
1, 114359, Note_on_c, 9, 40, 0
1, 114359, Note_on_c, 9, 54, 0
1, 114359, Note_on_c, 9, 53, 0
1, 114359, Note_on_c, 9, 69, 0
1, 114360, Note_on_c, 9, 54, 48
1, 114360, Note_on_c, 9, 82, 44
1, 114479, Note_on_c, 9, 54, 0
1, 114479, Note_on_c, 9, 82, 0
1, 114480, Note_on_c, 9, 54, 68
1, 114480, Note_on_c, 9, 69, 44
1, 114480, Note_on_c, 9, 42, 38
1, 114484, Note_on_c, 9, 42, 0
1, 114599, Note_on_c, 9, 35, 0
1, 114599, Note_on_c, 9, 54, 0
1, 114599, Note_on_c, 9, 69, 0
1, 114600, Note_on_c, 9, 54, 47
1, 114600, Note_on_c, 9, 82, 44
1, 114600, Note_on_c, 9, 35, 111
1, 114719, Note_on_c, 9, 54, 0
1, 114719, Note_on_c, 9, 82, 0
1, 114719, Note_on_c, 9, 35, 0
1, 114720, Note_on_c, 9, 40, 86
1, 114720, Note_on_c, 9, 54, 68
1, 114720, Note_on_c, 9, 53, 66
1, 114720, Note_on_c, 9, 69, 44
1, 114720, Note_on_c, 9, 42, 92
1, 114724, Note_on_c, 9, 42, 0
1, 114839, Note_on_c, 9, 40, 0
1, 114839, Note_on_c, 9, 54, 0
1, 114839, Note_on_c, 9, 53, 0
1, 114839, Note_on_c, 9, 69, 0
1, 114840, Note_on_c, 9, 54, 46
1, 114840, Note_on_c, 9, 82, 44
1, 114959, Note_on_c, 9, 54, 0
1, 114959, Note_on_c, 9, 82, 0
1, 114960, Note_on_c, 9, 54, 68
1, 114960, Note_on_c, 9, 69, 44
1, 114960, Note_on_c, 9, 42, 47
1, 114960, Note_on_c, 9, 35, 101
1, 114964, Note_on_c, 9, 42, 0
1, 115079, Note_on_c, 9, 54, 0
1, 115079, Note_on_c, 9, 69, 0
1, 115080, Note_on_c, 9, 54, 51
1, 115080, Note_on_c, 9, 82, 44
1, 115199, Note_on_c, 9, 35, 0
1, 115199, Note_on_c, 9, 54, 0
1, 115199, Note_on_c, 9, 82, 0
1, 115200, Note_on_c, 9, 40, 86
1, 115200, Note_on_c, 9, 54, 68
1, 115200, Note_on_c, 9, 53, 66
1, 115200, Note_on_c, 9, 69, 44
1, 115200, Note_on_c, 9, 42, 86
1, 115200, Note_on_c, 9, 49, 65
1, 115200, Note_on_c, 9, 35, 109
1, 115204, Note_on_c, 9, 42, 0
1, 115204, Note_on_c, 9, 49, 0
1, 115319, Note_on_c, 9, 40, 0
1, 115319, Note_on_c, 9, 54, 0
1, 115319, Note_on_c, 9, 53, 0
1, 115319, Note_on_c, 9, 69, 0
1, 115320, Note_on_c, 9, 54, 41
1, 115320, Note_on_c, 9, 82, 44
1, 115439, Note_on_c, 9, 54, 0
1, 115439, Note_on_c, 9, 82, 0
1, 115440, Note_on_c, 9, 54, 68
1, 115440, Note_on_c, 9, 69, 44
1, 115440, Note_on_c, 9, 42, 36
1, 115444, Note_on_c, 9, 42, 0
1, 115559, Note_on_c, 9, 35, 0
1, 115559, Note_on_c, 9, 54, 0
1, 115559, Note_on_c, 9, 69, 0
1, 115560, Note_on_c, 9, 54, 49
1, 115560, Note_on_c, 9, 82, 44
1, 115560, Note_on_c, 9, 35, 103
1, 115679, Note_on_c, 9, 54, 0
1, 115679, Note_on_c, 9, 82, 0
1, 115679, Note_on_c, 9, 35, 0
1, 115680, Note_on_c, 9, 40, 86
1, 115680, Note_on_c, 9, 54, 68
1, 115680, Note_on_c, 9, 53, 66
1, 115680, Note_on_c, 9, 69, 44
1, 115680, Note_on_c, 9, 42, 91
1, 115684, Note_on_c, 9, 42, 0
1, 115799, Note_on_c, 9, 40, 0
1, 115799, Note_on_c, 9, 54, 0
1, 115799, Note_on_c, 9, 53, 0
1, 115799, Note_on_c, 9, 69, 0
1, 115800, Note_on_c, 9, 54, 45
1, 115800, Note_on_c, 9, 82, 44
1, 115919, Note_on_c, 9, 54, 0
1, 115919, Note_on_c, 9, 82, 0
1, 115920, Note_on_c, 9, 54, 68
1, 115920, Note_on_c, 9, 69, 44
1, 115920, Note_on_c, 9, 42, 43
1, 115920, Note_on_c, 9, 35, 97
1, 115924, Note_on_c, 9, 42, 0
1, 116039, Note_on_c, 9, 54, 0
1, 116039, Note_on_c, 9, 69, 0
1, 116040, Note_on_c, 9, 54, 44
1, 116040, Note_on_c, 9, 82, 44
1, 116159, Note_on_c, 9, 35, 0
1, 116159, Note_on_c, 9, 54, 0
1, 116159, Note_on_c, 9, 82, 0
1, 116160, Note_on_c, 9, 40, 86
1, 116160, Note_on_c, 9, 54, 68
1, 116160, Note_on_c, 9, 53, 66
1, 116160, Note_on_c, 9, 69, 44
1, 116160, Note_on_c, 9, 42, 95
1, 116160, Note_on_c, 9, 35, 109
1, 116164, Note_on_c, 9, 42, 0
1, 116279, Note_on_c, 9, 40, 0
1, 116279, Note_on_c, 9, 54, 0
1, 116279, Note_on_c, 9, 53, 0
1, 116279, Note_on_c, 9, 69, 0
1, 116280, Note_on_c, 9, 54, 48
1, 116280, Note_on_c, 9, 82, 44
1, 116399, Note_on_c, 9, 54, 0
1, 116399, Note_on_c, 9, 82, 0
1, 116400, Note_on_c, 9, 54, 68
1, 116400, Note_on_c, 9, 69, 44
1, 116400, Note_on_c, 9, 42, 38
1, 116404, Note_on_c, 9, 42, 0
1, 116519, Note_on_c, 9, 35, 0
1, 116519, Note_on_c, 9, 54, 0
1, 116519, Note_on_c, 9, 69, 0
1, 116520, Note_on_c, 9, 54, 47
1, 116520, Note_on_c, 9, 82, 44
1, 116520, Note_on_c, 9, 35, 111
1, 116639, Note_on_c, 9, 54, 0
1, 116639, Note_on_c, 9, 82, 0
1, 116639, Note_on_c, 9, 35, 0
1, 116640, Note_on_c, 9, 40, 86
1, 116640, Note_on_c, 9, 54, 68
1, 116640, Note_on_c, 9, 53, 66
1, 116640, Note_on_c, 9, 69, 44
1, 116640, Note_on_c, 9, 42, 92
1, 116644, Note_on_c, 9, 42, 0
1, 116759, Note_on_c, 9, 40, 0
1, 116759, Note_on_c, 9, 54, 0
1, 116759, Note_on_c, 9, 53, 0
1, 116759, Note_on_c, 9, 69, 0
1, 116760, Note_on_c, 9, 54, 46
1, 116760, Note_on_c, 9, 82, 44
1, 116879, Note_on_c, 9, 54, 0
1, 116879, Note_on_c, 9, 82, 0
1, 116880, Note_on_c, 9, 54, 68
1, 116880, Note_on_c, 9, 69, 44
1, 116880, Note_on_c, 9, 42, 47
1, 116880, Note_on_c, 9, 35, 101
1, 116884, Note_on_c, 9, 42, 0
1, 116999, Note_on_c, 9, 54, 0
1, 116999, Note_on_c, 9, 69, 0
1, 117000, Note_on_c, 9, 54, 51
1, 117000, Note_on_c, 9, 82, 44
1, 117119, Note_on_c, 9, 35, 0
1, 117119, Note_on_c, 9, 54, 0
1, 117119, Note_on_c, 9, 82, 0
1, 117120, Note_on_c, 9, 40, 86
1, 117120, Note_on_c, 9, 54, 68
1, 117120, Note_on_c, 9, 53, 66
1, 117120, Note_on_c, 9, 69, 44
1, 117120, Note_on_c, 9, 42, 86
1, 117120, Note_on_c, 9, 35, 109
1, 117124, Note_on_c, 9, 42, 0
1, 117239, Note_on_c, 9, 40, 0
1, 117239, Note_on_c, 9, 54, 0
1, 117239, Note_on_c, 9, 53, 0
1, 117239, Note_on_c, 9, 69, 0
1, 117240, Note_on_c, 9, 54, 41
1, 117240, Note_on_c, 9, 82, 44
1, 117359, Note_on_c, 9, 54, 0
1, 117359, Note_on_c, 9, 82, 0
1, 117360, Note_on_c, 9, 54, 68
1, 117360, Note_on_c, 9, 69, 44
1, 117360, Note_on_c, 9, 42, 36
1, 117364, Note_on_c, 9, 42, 0
1, 117479, Note_on_c, 9, 35, 0
1, 117479, Note_on_c, 9, 54, 0
1, 117479, Note_on_c, 9, 69, 0
1, 117480, Note_on_c, 9, 54, 49
1, 117480, Note_on_c, 9, 82, 44
1, 117480, Note_on_c, 9, 35, 103
1, 117599, Note_on_c, 9, 54, 0
1, 117599, Note_on_c, 9, 82, 0
1, 117599, Note_on_c, 9, 35, 0
1, 117600, Note_on_c, 9, 40, 86
1, 117600, Note_on_c, 9, 54, 68
1, 117600, Note_on_c, 9, 53, 66
1, 117600, Note_on_c, 9, 69, 44
1, 117600, Note_on_c, 9, 42, 91
1, 117604, Note_on_c, 9, 42, 0
1, 117719, Note_on_c, 9, 40, 0
1, 117719, Note_on_c, 9, 54, 0
1, 117719, Note_on_c, 9, 53, 0
1, 117719, Note_on_c, 9, 69, 0
1, 117720, Note_on_c, 9, 54, 45
1, 117720, Note_on_c, 9, 82, 44
1, 117839, Note_on_c, 9, 54, 0
1, 117839, Note_on_c, 9, 82, 0
1, 117840, Note_on_c, 9, 54, 68
1, 117840, Note_on_c, 9, 69, 44
1, 117840, Note_on_c, 9, 42, 43
1, 117840, Note_on_c, 9, 35, 97
1, 117844, Note_on_c, 9, 42, 0
1, 117959, Note_on_c, 9, 54, 0
1, 117959, Note_on_c, 9, 69, 0
1, 117960, Note_on_c, 9, 54, 44
1, 117960, Note_on_c, 9, 82, 44
1, 118079, Note_on_c, 9, 35, 0
1, 118079, Note_on_c, 9, 54, 0
1, 118079, Note_on_c, 9, 82, 0
1, 118080, Note_on_c, 9, 40, 86
1, 118080, Note_on_c, 9, 54, 68
1, 118080, Note_on_c, 9, 53, 66
1, 118080, Note_on_c, 9, 69, 44
1, 118080, Note_on_c, 9, 42, 95
1, 118080, Note_on_c, 9, 35, 109
1, 118084, Note_on_c, 9, 42, 0
1, 118199, Note_on_c, 9, 40, 0
1, 118199, Note_on_c, 9, 54, 0
1, 118199, Note_on_c, 9, 53, 0
1, 118199, Note_on_c, 9, 69, 0
1, 118200, Note_on_c, 9, 54, 48
1, 118200, Note_on_c, 9, 82, 44
1, 118319, Note_on_c, 9, 54, 0
1, 118319, Note_on_c, 9, 82, 0
1, 118320, Note_on_c, 9, 54, 68
1, 118320, Note_on_c, 9, 69, 44
1, 118320, Note_on_c, 9, 42, 38
1, 118324, Note_on_c, 9, 42, 0
1, 118439, Note_on_c, 9, 35, 0
1, 118439, Note_on_c, 9, 54, 0
1, 118439, Note_on_c, 9, 69, 0
1, 118440, Note_on_c, 9, 54, 47
1, 118440, Note_on_c, 9, 82, 44
1, 118440, Note_on_c, 9, 35, 111
1, 118559, Note_on_c, 9, 54, 0
1, 118559, Note_on_c, 9, 82, 0
1, 118559, Note_on_c, 9, 35, 0
1, 118560, Note_on_c, 9, 40, 86
1, 118560, Note_on_c, 9, 54, 68
1, 118560, Note_on_c, 9, 53, 66
1, 118560, Note_on_c, 9, 69, 44
1, 118560, Note_on_c, 9, 42, 92
1, 118564, Note_on_c, 9, 42, 0
1, 118679, Note_on_c, 9, 40, 0
1, 118679, Note_on_c, 9, 54, 0
1, 118679, Note_on_c, 9, 53, 0
1, 118679, Note_on_c, 9, 69, 0
1, 118680, Note_on_c, 9, 54, 46
1, 118680, Note_on_c, 9, 82, 44
1, 118799, Note_on_c, 9, 54, 0
1, 118799, Note_on_c, 9, 82, 0
1, 118800, Note_on_c, 9, 54, 68
1, 118800, Note_on_c, 9, 69, 44
1, 118800, Note_on_c, 9, 42, 47
1, 118800, Note_on_c, 9, 35, 101
1, 118804, Note_on_c, 9, 42, 0
1, 118919, Note_on_c, 9, 54, 0
1, 118919, Note_on_c, 9, 69, 0
1, 118920, Note_on_c, 9, 54, 51
1, 118920, Note_on_c, 9, 82, 44
1, 119039, Note_on_c, 9, 35, 0
1, 119039, Note_on_c, 9, 54, 0
1, 119039, Note_on_c, 9, 82, 0
1, 119040, Note_on_c, 9, 40, 86
1, 119040, Note_on_c, 9, 54, 68
1, 119040, Note_on_c, 9, 53, 66
1, 119040, Note_on_c, 9, 69, 44
1, 119040, Note_on_c, 9, 42, 86
1, 119040, Note_on_c, 9, 49, 65
1, 119040, Note_on_c, 9, 35, 109
1, 119044, Note_on_c, 9, 42, 0
1, 119044, Note_on_c, 9, 49, 0
1, 119159, Note_on_c, 9, 40, 0
1, 119159, Note_on_c, 9, 54, 0
1, 119159, Note_on_c, 9, 53, 0
1, 119159, Note_on_c, 9, 69, 0
1, 119160, Note_on_c, 9, 54, 41
1, 119160, Note_on_c, 9, 82, 44
1, 119279, Note_on_c, 9, 54, 0
1, 119279, Note_on_c, 9, 82, 0
1, 119280, Note_on_c, 9, 54, 68
1, 119280, Note_on_c, 9, 69, 44
1, 119280, Note_on_c, 9, 42, 36
1, 119284, Note_on_c, 9, 42, 0
1, 119399, Note_on_c, 9, 35, 0
1, 119399, Note_on_c, 9, 54, 0
1, 119399, Note_on_c, 9, 69, 0
1, 119400, Note_on_c, 9, 54, 49
1, 119400, Note_on_c, 9, 82, 44
1, 119400, Note_on_c, 9, 35, 103
1, 119519, Note_on_c, 9, 54, 0
1, 119519, Note_on_c, 9, 82, 0
1, 119519, Note_on_c, 9, 35, 0
1, 119520, Note_on_c, 9, 40, 86
1, 119520, Note_on_c, 9, 54, 68
1, 119520, Note_on_c, 9, 53, 66
1, 119520, Note_on_c, 9, 69, 44
1, 119520, Note_on_c, 9, 42, 91
1, 119524, Note_on_c, 9, 42, 0
1, 119639, Note_on_c, 9, 40, 0
1, 119639, Note_on_c, 9, 54, 0
1, 119639, Note_on_c, 9, 53, 0
1, 119639, Note_on_c, 9, 69, 0
1, 119640, Note_on_c, 9, 54, 45
1, 119640, Note_on_c, 9, 82, 44
1, 119759, Note_on_c, 9, 54, 0
1, 119759, Note_on_c, 9, 82, 0
1, 119760, Note_on_c, 9, 54, 68
1, 119760, Note_on_c, 9, 69, 44
1, 119760, Note_on_c, 9, 42, 43
1, 119760, Note_on_c, 9, 35, 97
1, 119764, Note_on_c, 9, 42, 0
1, 119879, Note_on_c, 9, 54, 0
1, 119879, Note_on_c, 9, 69, 0
1, 119880, Note_on_c, 9, 54, 44
1, 119880, Note_on_c, 9, 82, 44
1, 119999, Note_on_c, 9, 35, 0
1, 119999, Note_on_c, 9, 54, 0
1, 119999, Note_on_c, 9, 82, 0
1, 120000, Note_on_c, 9, 40, 86
1, 120000, Note_on_c, 9, 54, 68
1, 120000, Note_on_c, 9, 53, 66
1, 120000, Note_on_c, 9, 69, 44
1, 120000, Note_on_c, 9, 42, 95
1, 120000, Note_on_c, 9, 35, 109
1, 120004, Note_on_c, 9, 42, 0
1, 120119, Note_on_c, 9, 40, 0
1, 120119, Note_on_c, 9, 54, 0
1, 120119, Note_on_c, 9, 53, 0
1, 120119, Note_on_c, 9, 69, 0
1, 120120, Note_on_c, 9, 54, 48
1, 120120, Note_on_c, 9, 82, 44
1, 120239, Note_on_c, 9, 54, 0
1, 120239, Note_on_c, 9, 82, 0
1, 120240, Note_on_c, 9, 54, 68
1, 120240, Note_on_c, 9, 69, 44
1, 120240, Note_on_c, 9, 42, 38
1, 120244, Note_on_c, 9, 42, 0
1, 120359, Note_on_c, 9, 35, 0
1, 120359, Note_on_c, 9, 54, 0
1, 120359, Note_on_c, 9, 69, 0
1, 120360, Note_on_c, 9, 54, 47
1, 120360, Note_on_c, 9, 82, 44
1, 120360, Note_on_c, 9, 35, 111
1, 120479, Note_on_c, 9, 54, 0
1, 120479, Note_on_c, 9, 82, 0
1, 120479, Note_on_c, 9, 35, 0
1, 120480, Note_on_c, 9, 40, 86
1, 120480, Note_on_c, 9, 54, 68
1, 120480, Note_on_c, 9, 53, 66
1, 120480, Note_on_c, 9, 69, 44
1, 120480, Note_on_c, 9, 42, 92
1, 120484, Note_on_c, 9, 42, 0
1, 120599, Note_on_c, 9, 40, 0
1, 120599, Note_on_c, 9, 54, 0
1, 120599, Note_on_c, 9, 53, 0
1, 120599, Note_on_c, 9, 69, 0
1, 120600, Note_on_c, 9, 54, 46
1, 120600, Note_on_c, 9, 82, 44
1, 120719, Note_on_c, 9, 54, 0
1, 120719, Note_on_c, 9, 82, 0
1, 120720, Note_on_c, 9, 54, 68
1, 120720, Note_on_c, 9, 69, 44
1, 120720, Note_on_c, 9, 42, 47
1, 120720, Note_on_c, 9, 35, 101
1, 120724, Note_on_c, 9, 42, 0
1, 120839, Note_on_c, 9, 54, 0
1, 120839, Note_on_c, 9, 69, 0
1, 120840, Note_on_c, 9, 54, 51
1, 120840, Note_on_c, 9, 82, 44
1, 120959, Note_on_c, 9, 35, 0
1, 120959, Note_on_c, 9, 54, 0
1, 120959, Note_on_c, 9, 82, 0
1, 120960, Note_on_c, 9, 40, 86
1, 120960, Note_on_c, 9, 54, 68
1, 120960, Note_on_c, 9, 53, 66
1, 120960, Note_on_c, 9, 69, 44
1, 120960, Note_on_c, 9, 42, 86
1, 120960, Note_on_c, 9, 35, 109
1, 120964, Note_on_c, 9, 42, 0
1, 121079, Note_on_c, 9, 40, 0
1, 121079, Note_on_c, 9, 54, 0
1, 121079, Note_on_c, 9, 53, 0
1, 121079, Note_on_c, 9, 69, 0
1, 121080, Note_on_c, 9, 40, 86
1, 121080, Note_on_c, 9, 54, 41
1, 121080, Note_on_c, 9, 82, 44
1, 121199, Note_on_c, 9, 35, 0
1, 121199, Note_on_c, 9, 40, 0
1, 121199, Note_on_c, 9, 54, 0
1, 121199, Note_on_c, 9, 82, 0
1, 121200, Note_on_c, 9, 54, 68
1, 121200, Note_on_c, 9, 69, 44
1, 121200, Note_on_c, 9, 42, 36
1, 121200, Note_on_c, 9, 35, 103
1, 121204, Note_on_c, 9, 42, 0
1, 121319, Note_on_c, 9, 54, 0
1, 121319, Note_on_c, 9, 69, 0
1, 121319, Note_on_c, 9, 35, 0
1, 121320, Note_on_c, 9, 54, 49
1, 121320, Note_on_c, 9, 82, 44
1, 121320, Note_on_c, 9, 35, 103
1, 121439, Note_on_c, 9, 54, 0
1, 121439, Note_on_c, 9, 82, 0
1, 121439, Note_on_c, 9, 35, 0
1, 121440, Note_on_c, 9, 40, 86
1, 121440, Note_on_c, 9, 54, 68
1, 121440, Note_on_c, 9, 53, 66
1, 121440, Note_on_c, 9, 69, 44
1, 121440, Note_on_c, 9, 42, 91
1, 121444, Note_on_c, 9, 42, 0
1, 121559, Note_on_c, 9, 40, 0
1, 121559, Note_on_c, 9, 54, 0
1, 121559, Note_on_c, 9, 53, 0
1, 121559, Note_on_c, 9, 69, 0
1, 121560, Note_on_c, 9, 54, 45
1, 121560, Note_on_c, 9, 82, 44
1, 121679, Note_on_c, 9, 54, 0
1, 121679, Note_on_c, 9, 82, 0
1, 121680, Note_on_c, 9, 40, 86
1, 121680, Note_on_c, 9, 54, 68
1, 121680, Note_on_c, 9, 69, 44
1, 121680, Note_on_c, 9, 42, 43
1, 121680, Note_on_c, 9, 35, 97
1, 121684, Note_on_c, 9, 42, 0
1, 121799, Note_on_c, 9, 40, 0
1, 121799, Note_on_c, 9, 54, 0
1, 121799, Note_on_c, 9, 69, 0
1, 121800, Note_on_c, 9, 54, 44
1, 121800, Note_on_c, 9, 82, 44
1, 121919, Note_on_c, 9, 35, 0
1, 121919, Note_on_c, 9, 54, 0
1, 121919, Note_on_c, 9, 82, 0
1, 121920, Note_on_c, 9, 40, 86
1, 121920, Note_on_c, 9, 54, 68
1, 121920, Note_on_c, 9, 53, 66
1, 121920, Note_on_c, 9, 69, 44
1, 121920, Note_on_c, 9, 42, 95
1, 121920, Note_on_c, 9, 35, 109
1, 121924, Note_on_c, 9, 42, 0
1, 122039, Note_on_c, 9, 40, 0
1, 122039, Note_on_c, 9, 54, 0
1, 122039, Note_on_c, 9, 53, 0
1, 122039, Note_on_c, 9, 69, 0
1, 122040, Note_on_c, 9, 54, 48
1, 122040, Note_on_c, 9, 82, 44
1, 122159, Note_on_c, 9, 35, 0
1, 122159, Note_on_c, 9, 54, 0
1, 122159, Note_on_c, 9, 82, 0
1, 122160, Note_on_c, 9, 54, 68
1, 122160, Note_on_c, 9, 69, 44
1, 122160, Note_on_c, 9, 42, 38
1, 122160, Note_on_c, 9, 35, 111
1, 122164, Note_on_c, 9, 42, 0
1, 122279, Note_on_c, 9, 54, 0
1, 122279, Note_on_c, 9, 69, 0
1, 122279, Note_on_c, 9, 35, 0
1, 122280, Note_on_c, 9, 40, 86
1, 122280, Note_on_c, 9, 54, 47
1, 122280, Note_on_c, 9, 82, 44
1, 122280, Note_on_c, 9, 35, 111
1, 122399, Note_on_c, 9, 40, 0
1, 122399, Note_on_c, 9, 54, 0
1, 122399, Note_on_c, 9, 82, 0
1, 122399, Note_on_c, 9, 35, 0
1, 122400, Note_on_c, 9, 40, 86
1, 122400, Note_on_c, 9, 54, 68
1, 122400, Note_on_c, 9, 53, 66
1, 122400, Note_on_c, 9, 69, 44
1, 122400, Note_on_c, 9, 42, 92
1, 122404, Note_on_c, 9, 42, 0
1, 122519, Note_on_c, 9, 40, 0
1, 122519, Note_on_c, 9, 54, 0
1, 122519, Note_on_c, 9, 53, 0
1, 122519, Note_on_c, 9, 69, 0
1, 122520, Note_on_c, 9, 54, 46
1, 122520, Note_on_c, 9, 82, 44
1, 122639, Note_on_c, 9, 54, 0
1, 122639, Note_on_c, 9, 82, 0
1, 122640, Note_on_c, 9, 54, 68
1, 122640, Note_on_c, 9, 69, 44
1, 122640, Note_on_c, 9, 42, 47
1, 122640, Note_on_c, 9, 35, 101
1, 122644, Note_on_c, 9, 42, 0
1, 122759, Note_on_c, 9, 54, 0
1, 122759, Note_on_c, 9, 69, 0
1, 122760, Note_on_c, 9, 54, 51
1, 122760, Note_on_c, 9, 82, 44
1, 122879, Note_on_c, 9, 35, 0
1, 122879, Note_on_c, 9, 54, 0
1, 122879, Note_on_c, 9, 82, 0
1, 122880, Note_on_c, 9, 42, 86
1, 122880, Note_on_c, 9, 57, 63
1, 122880, Note_on_c, 9, 35, 108
1, 122889, Note_on_c, 9, 42, 0
1, 122889, Note_on_c, 9, 57, 0
1, 123120, Note_on_c, 9, 42, 36
1, 123129, Note_on_c, 9, 42, 0
1, 123359, Note_on_c, 9, 35, 0
1, 123360, Note_on_c, 9, 40, 89
1, 123360, Note_on_c, 9, 42, 91
1, 123364, Note_on_c, 9, 42, 0
1, 123479, Note_on_c, 9, 40, 0
1, 123480, Note_on_c, 9, 40, 37
1, 123599, Note_on_c, 9, 40, 0
1, 123600, Note_on_c, 9, 42, 43
1, 123609, Note_on_c, 9, 42, 0
1, 123840, Note_on_c, 9, 42, 95
1, 123840, Note_on_c, 9, 35, 105
1, 123849, Note_on_c, 9, 42, 0
1, 124080, Note_on_c, 9, 42, 38
1, 124089, Note_on_c, 9, 42, 0
1, 124319, Note_on_c, 9, 35, 0
1, 124320, Note_on_c, 9, 40, 89
1, 124320, Note_on_c, 9, 42, 92
1, 124324, Note_on_c, 9, 42, 0
1, 124439, Note_on_c, 9, 40, 0
1, 124440, Note_on_c, 9, 40, 45
1, 124559, Note_on_c, 9, 40, 0
1, 124560, Note_on_c, 9, 42, 47
1, 124564, Note_on_c, 9, 42, 0
1, 124680, Note_on_c, 9, 40, 50
1, 124739, Note_on_c, 9, 40, 0
1, 124740, Note_on_c, 9, 40, 32
1, 124799, Note_on_c, 9, 40, 0
1, 124800, Note_on_c, 9, 42, 86
1, 124800, Note_on_c, 9, 35, 108
1, 124809, Note_on_c, 9, 42, 0
1, 125040, Note_on_c, 9, 42, 36
1, 125049, Note_on_c, 9, 42, 0
1, 125279, Note_on_c, 9, 35, 0
1, 125280, Note_on_c, 9, 40, 89
1, 125280, Note_on_c, 9, 42, 91
1, 125284, Note_on_c, 9, 42, 0
1, 125399, Note_on_c, 9, 40, 0
1, 125400, Note_on_c, 9, 40, 37
1, 125519, Note_on_c, 9, 40, 0
1, 125520, Note_on_c, 9, 42, 43
1, 125529, Note_on_c, 9, 42, 0
1, 125760, Note_on_c, 9, 42, 95
1, 125760, Note_on_c, 9, 35, 105
1, 125769, Note_on_c, 9, 42, 0
1, 126000, Note_on_c, 9, 42, 38
1, 126009, Note_on_c, 9, 42, 0
1, 126239, Note_on_c, 9, 35, 0
1, 126240, Note_on_c, 9, 40, 89
1, 126240, Note_on_c, 9, 42, 92
1, 126244, Note_on_c, 9, 42, 0
1, 126359, Note_on_c, 9, 40, 0
1, 126360, Note_on_c, 9, 40, 45
1, 126360, Note_on_c, 9, 44, 84
1, 126374, Note_on_c, 9, 44, 0
1, 126479, Note_on_c, 9, 40, 0
1, 126480, Note_on_c, 9, 46, 61
1, 126489, Note_on_c, 9, 46, 0
1, 126720, Note_on_c, 9, 42, 86
1, 126720, Note_on_c, 9, 35, 108
1, 126729, Note_on_c, 9, 42, 0
1, 126960, Note_on_c, 9, 42, 36
1, 126969, Note_on_c, 9, 42, 0
1, 127199, Note_on_c, 9, 35, 0
1, 127200, Note_on_c, 9, 40, 89
1, 127200, Note_on_c, 9, 42, 91
1, 127204, Note_on_c, 9, 42, 0
1, 127319, Note_on_c, 9, 40, 0
1, 127320, Note_on_c, 9, 40, 37
1, 127439, Note_on_c, 9, 40, 0
1, 127440, Note_on_c, 9, 42, 43
1, 127449, Note_on_c, 9, 42, 0
1, 127680, Note_on_c, 9, 42, 95
1, 127680, Note_on_c, 9, 35, 105
1, 127689, Note_on_c, 9, 42, 0
1, 127920, Note_on_c, 9, 42, 38
1, 127929, Note_on_c, 9, 42, 0
1, 128159, Note_on_c, 9, 35, 0
1, 128160, Note_on_c, 9, 40, 89
1, 128160, Note_on_c, 9, 42, 92
1, 128164, Note_on_c, 9, 42, 0
1, 128279, Note_on_c, 9, 40, 0
1, 128280, Note_on_c, 9, 40, 45
1, 128399, Note_on_c, 9, 40, 0
1, 128400, Note_on_c, 9, 42, 47
1, 128404, Note_on_c, 9, 42, 0
1, 128520, Note_on_c, 9, 40, 50
1, 128579, Note_on_c, 9, 40, 0
1, 128580, Note_on_c, 9, 40, 32
1, 128639, Note_on_c, 9, 40, 0
1, 128640, Note_on_c, 9, 42, 86
1, 128640, Note_on_c, 9, 35, 108
1, 128649, Note_on_c, 9, 42, 0
1, 128880, Note_on_c, 9, 42, 36
1, 128889, Note_on_c, 9, 42, 0
1, 129119, Note_on_c, 9, 35, 0
1, 129120, Note_on_c, 9, 40, 89
1, 129120, Note_on_c, 9, 42, 91
1, 129124, Note_on_c, 9, 42, 0
1, 129239, Note_on_c, 9, 40, 0
1, 129240, Note_on_c, 9, 40, 37
1, 129359, Note_on_c, 9, 40, 0
1, 129360, Note_on_c, 9, 42, 43
1, 129369, Note_on_c, 9, 42, 0
1, 129600, Note_on_c, 9, 46, 74
1, 129600, Note_on_c, 9, 35, 105
1, 129609, Note_on_c, 9, 46, 0
1, 129840, Note_on_c, 9, 40, 88
1, 129840, Note_on_c, 9, 50, 93
1, 129959, Note_on_c, 9, 35, 0
1, 129959, Note_on_c, 9, 40, 0
1, 129959, Note_on_c, 9, 50, 0
1, 129960, Note_on_c, 9, 47, 75
1, 129960, Note_on_c, 9, 35, 105
1, 130079, Note_on_c, 9, 47, 0
1, 130079, Note_on_c, 9, 35, 0
1, 130080, Note_on_c, 9, 40, 88
1, 130080, Note_on_c, 9, 42, 92
1, 130080, Note_on_c, 9, 43, 89
1, 130089, Note_on_c, 9, 42, 0
1, 130319, Note_on_c, 9, 40, 0
1, 130320, Note_on_c, 9, 41, 94
1, 130320, Note_on_c, 9, 46, 61
1, 130329, Note_on_c, 9, 46, 0
1, 130559, Note_on_c, 9, 43, 0
1, 130559, Note_on_c, 9, 41, 0
1, 130560, Note_on_c, 9, 42, 86
1, 130560, Note_on_c, 9, 57, 63
1, 130560, Note_on_c, 9, 35, 108
1, 130569, Note_on_c, 9, 42, 0
1, 130569, Note_on_c, 9, 57, 0
1, 130800, Note_on_c, 9, 42, 36
1, 130809, Note_on_c, 9, 42, 0
1, 131039, Note_on_c, 9, 35, 0
1, 131040, Note_on_c, 9, 40, 89
1, 131040, Note_on_c, 9, 42, 91
1, 131044, Note_on_c, 9, 42, 0
1, 131159, Note_on_c, 9, 40, 0
1, 131160, Note_on_c, 9, 40, 37
1, 131279, Note_on_c, 9, 40, 0
1, 131280, Note_on_c, 9, 42, 43
1, 131289, Note_on_c, 9, 42, 0
1, 131520, Note_on_c, 9, 42, 95
1, 131520, Note_on_c, 9, 35, 105
1, 131529, Note_on_c, 9, 42, 0
1, 131760, Note_on_c, 9, 42, 38
1, 131769, Note_on_c, 9, 42, 0
1, 131999, Note_on_c, 9, 35, 0
1, 132000, Note_on_c, 9, 40, 89
1, 132000, Note_on_c, 9, 42, 92
1, 132004, Note_on_c, 9, 42, 0
1, 132119, Note_on_c, 9, 40, 0
1, 132120, Note_on_c, 9, 40, 45
1, 132239, Note_on_c, 9, 40, 0
1, 132240, Note_on_c, 9, 42, 47
1, 132244, Note_on_c, 9, 42, 0
1, 132360, Note_on_c, 9, 40, 50
1, 132419, Note_on_c, 9, 40, 0
1, 132420, Note_on_c, 9, 40, 32
1, 132479, Note_on_c, 9, 40, 0
1, 132480, Note_on_c, 9, 42, 86
1, 132480, Note_on_c, 9, 35, 108
1, 132489, Note_on_c, 9, 42, 0
1, 132720, Note_on_c, 9, 42, 36
1, 132729, Note_on_c, 9, 42, 0
1, 132959, Note_on_c, 9, 35, 0
1, 132960, Note_on_c, 9, 40, 89
1, 132960, Note_on_c, 9, 42, 91
1, 132964, Note_on_c, 9, 42, 0
1, 133079, Note_on_c, 9, 40, 0
1, 133080, Note_on_c, 9, 40, 37
1, 133199, Note_on_c, 9, 40, 0
1, 133200, Note_on_c, 9, 42, 43
1, 133209, Note_on_c, 9, 42, 0
1, 133440, Note_on_c, 9, 42, 95
1, 133440, Note_on_c, 9, 35, 105
1, 133449, Note_on_c, 9, 42, 0
1, 133680, Note_on_c, 9, 42, 38
1, 133689, Note_on_c, 9, 42, 0
1, 133919, Note_on_c, 9, 35, 0
1, 133920, Note_on_c, 9, 40, 89
1, 133920, Note_on_c, 9, 42, 92
1, 133924, Note_on_c, 9, 42, 0
1, 134039, Note_on_c, 9, 40, 0
1, 134040, Note_on_c, 9, 40, 45
1, 134040, Note_on_c, 9, 44, 84
1, 134054, Note_on_c, 9, 44, 0
1, 134159, Note_on_c, 9, 40, 0
1, 134160, Note_on_c, 9, 46, 61
1, 134169, Note_on_c, 9, 46, 0
1, 134400, Note_on_c, 9, 42, 86
1, 134400, Note_on_c, 9, 35, 108
1, 134409, Note_on_c, 9, 42, 0
1, 134640, Note_on_c, 9, 42, 36
1, 134649, Note_on_c, 9, 42, 0
1, 134879, Note_on_c, 9, 35, 0
1, 134880, Note_on_c, 9, 40, 89
1, 134880, Note_on_c, 9, 42, 91
1, 134884, Note_on_c, 9, 42, 0
1, 134999, Note_on_c, 9, 40, 0
1, 135000, Note_on_c, 9, 40, 37
1, 135119, Note_on_c, 9, 40, 0
1, 135120, Note_on_c, 9, 42, 43
1, 135129, Note_on_c, 9, 42, 0
1, 135360, Note_on_c, 9, 42, 95
1, 135360, Note_on_c, 9, 35, 105
1, 135369, Note_on_c, 9, 42, 0
1, 135600, Note_on_c, 9, 42, 38
1, 135609, Note_on_c, 9, 42, 0
1, 135839, Note_on_c, 9, 35, 0
1, 135840, Note_on_c, 9, 40, 89
1, 135840, Note_on_c, 9, 42, 92
1, 135844, Note_on_c, 9, 42, 0
1, 135959, Note_on_c, 9, 40, 0
1, 135960, Note_on_c, 9, 40, 45
1, 136079, Note_on_c, 9, 40, 0
1, 136080, Note_on_c, 9, 42, 47
1, 136084, Note_on_c, 9, 42, 0
1, 136200, Note_on_c, 9, 40, 50
1, 136259, Note_on_c, 9, 40, 0
1, 136260, Note_on_c, 9, 40, 32
1, 136319, Note_on_c, 9, 40, 0
1, 136320, Note_on_c, 9, 42, 86
1, 136320, Note_on_c, 9, 35, 108
1, 136329, Note_on_c, 9, 42, 0
1, 136560, Note_on_c, 9, 42, 36
1, 136569, Note_on_c, 9, 42, 0
1, 136799, Note_on_c, 9, 35, 0
1, 136800, Note_on_c, 9, 40, 89
1, 136800, Note_on_c, 9, 42, 91
1, 136804, Note_on_c, 9, 42, 0
1, 136919, Note_on_c, 9, 40, 0
1, 136920, Note_on_c, 9, 40, 37
1, 137039, Note_on_c, 9, 40, 0
1, 137040, Note_on_c, 9, 42, 43
1, 137049, Note_on_c, 9, 42, 0
1, 137280, Note_on_c, 9, 42, 70
1, 137280, Note_on_c, 9, 35, 105
1, 137289, Note_on_c, 9, 42, 0
1, 137520, Note_on_c, 9, 42, 80
1, 137529, Note_on_c, 9, 42, 0
1, 137639, Note_on_c, 9, 35, 0
1, 137640, Note_on_c, 9, 35, 105
1, 137759, Note_on_c, 9, 35, 0
1, 137760, Note_on_c, 9, 40, 88
1, 137760, Note_on_c, 9, 42, 92
1, 137769, Note_on_c, 9, 42, 0
1, 137999, Note_on_c, 9, 40, 0
1, 138000, Note_on_c, 9, 46, 61
1, 138009, Note_on_c, 9, 46, 0
1, 138240, Note_on_c, 9, 42, 86
1, 138240, Note_on_c, 9, 57, 63
1, 138240, Note_on_c, 9, 35, 108
1, 138249, Note_on_c, 9, 42, 0
1, 138249, Note_on_c, 9, 57, 0
1, 138480, Note_on_c, 9, 42, 36
1, 138489, Note_on_c, 9, 42, 0
1, 138719, Note_on_c, 9, 35, 0
1, 138720, Note_on_c, 9, 40, 89
1, 138720, Note_on_c, 9, 42, 91
1, 138724, Note_on_c, 9, 42, 0
1, 138839, Note_on_c, 9, 40, 0
1, 138840, Note_on_c, 9, 40, 37
1, 138959, Note_on_c, 9, 40, 0
1, 138960, Note_on_c, 9, 42, 43
1, 138969, Note_on_c, 9, 42, 0
1, 139200, Note_on_c, 9, 42, 95
1, 139200, Note_on_c, 9, 35, 105
1, 139209, Note_on_c, 9, 42, 0
1, 139440, Note_on_c, 9, 42, 38
1, 139449, Note_on_c, 9, 42, 0
1, 139679, Note_on_c, 9, 35, 0
1, 139680, Note_on_c, 9, 40, 89
1, 139680, Note_on_c, 9, 42, 92
1, 139684, Note_on_c, 9, 42, 0
1, 139799, Note_on_c, 9, 40, 0
1, 139800, Note_on_c, 9, 40, 45
1, 139919, Note_on_c, 9, 40, 0
1, 139920, Note_on_c, 9, 42, 47
1, 139924, Note_on_c, 9, 42, 0
1, 140040, Note_on_c, 9, 40, 50
1, 140099, Note_on_c, 9, 40, 0
1, 140100, Note_on_c, 9, 40, 32
1, 140159, Note_on_c, 9, 40, 0
1, 140160, Note_on_c, 9, 42, 86
1, 140160, Note_on_c, 9, 35, 108
1, 140169, Note_on_c, 9, 42, 0
1, 140400, Note_on_c, 9, 42, 36
1, 140409, Note_on_c, 9, 42, 0
1, 140639, Note_on_c, 9, 35, 0
1, 140640, Note_on_c, 9, 40, 89
1, 140640, Note_on_c, 9, 42, 91
1, 140644, Note_on_c, 9, 42, 0
1, 140759, Note_on_c, 9, 40, 0
1, 140760, Note_on_c, 9, 40, 37
1, 140879, Note_on_c, 9, 40, 0
1, 140880, Note_on_c, 9, 42, 43
1, 140889, Note_on_c, 9, 42, 0
1, 141120, Note_on_c, 9, 42, 95
1, 141120, Note_on_c, 9, 35, 105
1, 141129, Note_on_c, 9, 42, 0
1, 141360, Note_on_c, 9, 42, 38
1, 141369, Note_on_c, 9, 42, 0
1, 141599, Note_on_c, 9, 35, 0
1, 141600, Note_on_c, 9, 40, 89
1, 141600, Note_on_c, 9, 42, 92
1, 141604, Note_on_c, 9, 42, 0
1, 141719, Note_on_c, 9, 40, 0
1, 141720, Note_on_c, 9, 40, 45
1, 141720, Note_on_c, 9, 44, 84
1, 141734, Note_on_c, 9, 44, 0
1, 141839, Note_on_c, 9, 40, 0
1, 141840, Note_on_c, 9, 46, 61
1, 141849, Note_on_c, 9, 46, 0
1, 142080, Note_on_c, 9, 42, 86
1, 142080, Note_on_c, 9, 35, 108
1, 142089, Note_on_c, 9, 42, 0
1, 142320, Note_on_c, 9, 42, 36
1, 142329, Note_on_c, 9, 42, 0
1, 142559, Note_on_c, 9, 35, 0
1, 142560, Note_on_c, 9, 40, 89
1, 142560, Note_on_c, 9, 42, 91
1, 142564, Note_on_c, 9, 42, 0
1, 142679, Note_on_c, 9, 40, 0
1, 142680, Note_on_c, 9, 40, 37
1, 142799, Note_on_c, 9, 40, 0
1, 142800, Note_on_c, 9, 42, 43
1, 142809, Note_on_c, 9, 42, 0
1, 143040, Note_on_c, 9, 42, 95
1, 143040, Note_on_c, 9, 35, 105
1, 143049, Note_on_c, 9, 42, 0
1, 143280, Note_on_c, 9, 42, 38
1, 143289, Note_on_c, 9, 42, 0
1, 143519, Note_on_c, 9, 35, 0
1, 143520, Note_on_c, 9, 40, 89
1, 143520, Note_on_c, 9, 42, 92
1, 143524, Note_on_c, 9, 42, 0
1, 143639, Note_on_c, 9, 40, 0
1, 143640, Note_on_c, 9, 40, 45
1, 143759, Note_on_c, 9, 40, 0
1, 143760, Note_on_c, 9, 42, 47
1, 143764, Note_on_c, 9, 42, 0
1, 143880, Note_on_c, 9, 40, 50
1, 143939, Note_on_c, 9, 40, 0
1, 143940, Note_on_c, 9, 40, 32
1, 143999, Note_on_c, 9, 40, 0
1, 144000, Note_on_c, 9, 42, 86
1, 144000, Note_on_c, 9, 35, 108
1, 144009, Note_on_c, 9, 42, 0
1, 144240, Note_on_c, 9, 42, 36
1, 144249, Note_on_c, 9, 42, 0
1, 144479, Note_on_c, 9, 35, 0
1, 144480, Note_on_c, 9, 40, 89
1, 144480, Note_on_c, 9, 42, 91
1, 144484, Note_on_c, 9, 42, 0
1, 144599, Note_on_c, 9, 40, 0
1, 144600, Note_on_c, 9, 40, 37
1, 144719, Note_on_c, 9, 40, 0
1, 144720, Note_on_c, 9, 42, 43
1, 144729, Note_on_c, 9, 42, 0
1, 144960, Note_on_c, 9, 46, 70
1, 144960, Note_on_c, 9, 35, 105
1, 144974, Note_on_c, 9, 46, 0
1, 145199, Note_on_c, 9, 35, 0
1, 145200, Note_on_c, 9, 44, 80
1, 145209, Note_on_c, 9, 44, 0
1, 145320, Note_on_c, 9, 40, 87
1, 145439, Note_on_c, 9, 40, 0
1, 145440, Note_on_c, 9, 40, 88
1, 145440, Note_on_c, 9, 42, 92
1, 145449, Note_on_c, 9, 42, 0
1, 145679, Note_on_c, 9, 40, 0
1, 145680, Note_on_c, 9, 42, 61
1, 145680, Note_on_c, 9, 57, 50
1, 145680, Note_on_c, 9, 35, 105
1, 145689, Note_on_c, 9, 42, 0
1, 145689, Note_on_c, 9, 57, 0
1, 145919, Note_on_c, 9, 35, 0
1, 145920, Note_on_c, 9, 42, 86
1, 145920, Note_on_c, 9, 49, 71
1, 145920, Note_on_c, 9, 55, 36
1, 145920, Note_on_c, 9, 35, 108
1, 145929, Note_on_c, 9, 42, 0
1, 145929, Note_on_c, 9, 49, 0
1, 145929, Note_on_c, 9, 55, 0
1, 146160, Note_on_c, 9, 42, 36
1, 146169, Note_on_c, 9, 42, 0
1, 146399, Note_on_c, 9, 35, 0
1, 146400, Note_on_c, 9, 40, 89
1, 146400, Note_on_c, 9, 42, 91
1, 146400, Note_on_c, 9, 55, 36
1, 146404, Note_on_c, 9, 42, 0
1, 146404, Note_on_c, 9, 55, 0
1, 146519, Note_on_c, 9, 40, 0
1, 146520, Note_on_c, 9, 40, 37
1, 146639, Note_on_c, 9, 40, 0
1, 146640, Note_on_c, 9, 42, 43
1, 146649, Note_on_c, 9, 42, 0
1, 146880, Note_on_c, 9, 42, 95
1, 146880, Note_on_c, 9, 55, 36
1, 146880, Note_on_c, 9, 35, 105
1, 146889, Note_on_c, 9, 42, 0
1, 146889, Note_on_c, 9, 55, 0
1, 147120, Note_on_c, 9, 42, 38
1, 147129, Note_on_c, 9, 42, 0
1, 147359, Note_on_c, 9, 35, 0
1, 147360, Note_on_c, 9, 40, 89
1, 147360, Note_on_c, 9, 42, 92
1, 147360, Note_on_c, 9, 55, 36
1, 147364, Note_on_c, 9, 42, 0
1, 147364, Note_on_c, 9, 55, 0
1, 147479, Note_on_c, 9, 40, 0
1, 147480, Note_on_c, 9, 40, 45
1, 147599, Note_on_c, 9, 40, 0
1, 147600, Note_on_c, 9, 42, 47
1, 147604, Note_on_c, 9, 42, 0
1, 147720, Note_on_c, 9, 40, 50
1, 147779, Note_on_c, 9, 40, 0
1, 147780, Note_on_c, 9, 40, 32
1, 147839, Note_on_c, 9, 40, 0
1, 147840, Note_on_c, 9, 42, 86
1, 147840, Note_on_c, 9, 55, 36
1, 147840, Note_on_c, 9, 35, 108
1, 147849, Note_on_c, 9, 42, 0
1, 147849, Note_on_c, 9, 55, 0
1, 148080, Note_on_c, 9, 42, 36
1, 148089, Note_on_c, 9, 42, 0
1, 148319, Note_on_c, 9, 35, 0
1, 148320, Note_on_c, 9, 40, 89
1, 148320, Note_on_c, 9, 42, 91
1, 148320, Note_on_c, 9, 55, 36
1, 148324, Note_on_c, 9, 42, 0
1, 148324, Note_on_c, 9, 55, 0
1, 148439, Note_on_c, 9, 40, 0
1, 148440, Note_on_c, 9, 40, 37
1, 148559, Note_on_c, 9, 40, 0
1, 148560, Note_on_c, 9, 42, 43
1, 148569, Note_on_c, 9, 42, 0
1, 148800, Note_on_c, 9, 42, 95
1, 148800, Note_on_c, 9, 55, 36
1, 148800, Note_on_c, 9, 35, 105
1, 148809, Note_on_c, 9, 42, 0
1, 148809, Note_on_c, 9, 55, 0
1, 149040, Note_on_c, 9, 42, 38
1, 149049, Note_on_c, 9, 42, 0
1, 149279, Note_on_c, 9, 35, 0
1, 149280, Note_on_c, 9, 40, 89
1, 149280, Note_on_c, 9, 42, 92
1, 149280, Note_on_c, 9, 55, 36
1, 149284, Note_on_c, 9, 42, 0
1, 149284, Note_on_c, 9, 55, 0
1, 149399, Note_on_c, 9, 40, 0
1, 149400, Note_on_c, 9, 40, 45
1, 149400, Note_on_c, 9, 44, 84
1, 149414, Note_on_c, 9, 44, 0
1, 149519, Note_on_c, 9, 40, 0
1, 149520, Note_on_c, 9, 46, 61
1, 149529, Note_on_c, 9, 46, 0
1, 149760, Note_on_c, 9, 42, 86
1, 149760, Note_on_c, 9, 55, 36
1, 149760, Note_on_c, 9, 35, 108
1, 149769, Note_on_c, 9, 42, 0
1, 149769, Note_on_c, 9, 55, 0
1, 150000, Note_on_c, 9, 42, 36
1, 150009, Note_on_c, 9, 42, 0
1, 150239, Note_on_c, 9, 35, 0
1, 150240, Note_on_c, 9, 40, 89
1, 150240, Note_on_c, 9, 42, 91
1, 150240, Note_on_c, 9, 55, 36
1, 150244, Note_on_c, 9, 42, 0
1, 150244, Note_on_c, 9, 55, 0
1, 150359, Note_on_c, 9, 40, 0
1, 150360, Note_on_c, 9, 40, 37
1, 150479, Note_on_c, 9, 40, 0
1, 150480, Note_on_c, 9, 42, 43
1, 150489, Note_on_c, 9, 42, 0
1, 150720, Note_on_c, 9, 42, 95
1, 150720, Note_on_c, 9, 55, 36
1, 150720, Note_on_c, 9, 35, 105
1, 150729, Note_on_c, 9, 42, 0
1, 150729, Note_on_c, 9, 55, 0
1, 150960, Note_on_c, 9, 42, 38
1, 150969, Note_on_c, 9, 42, 0
1, 151199, Note_on_c, 9, 35, 0
1, 151200, Note_on_c, 9, 40, 89
1, 151200, Note_on_c, 9, 42, 92
1, 151200, Note_on_c, 9, 55, 36
1, 151204, Note_on_c, 9, 42, 0
1, 151204, Note_on_c, 9, 55, 0
1, 151319, Note_on_c, 9, 40, 0
1, 151320, Note_on_c, 9, 40, 45
1, 151439, Note_on_c, 9, 40, 0
1, 151440, Note_on_c, 9, 42, 47
1, 151444, Note_on_c, 9, 42, 0
1, 151560, Note_on_c, 9, 40, 50
1, 151619, Note_on_c, 9, 40, 0
1, 151620, Note_on_c, 9, 40, 32
1, 151679, Note_on_c, 9, 40, 0
1, 151680, Note_on_c, 9, 42, 86
1, 151680, Note_on_c, 9, 55, 36
1, 151680, Note_on_c, 9, 35, 108
1, 151689, Note_on_c, 9, 42, 0
1, 151689, Note_on_c, 9, 55, 0
1, 151920, Note_on_c, 9, 42, 36
1, 151929, Note_on_c, 9, 42, 0
1, 152159, Note_on_c, 9, 35, 0
1, 152160, Note_on_c, 9, 40, 89
1, 152160, Note_on_c, 9, 42, 91
1, 152160, Note_on_c, 9, 55, 36
1, 152164, Note_on_c, 9, 42, 0
1, 152164, Note_on_c, 9, 55, 0
1, 152279, Note_on_c, 9, 40, 0
1, 152280, Note_on_c, 9, 40, 37
1, 152399, Note_on_c, 9, 40, 0
1, 152400, Note_on_c, 9, 42, 43
1, 152409, Note_on_c, 9, 42, 0
1, 152640, Note_on_c, 9, 42, 86
1, 152640, Note_on_c, 9, 55, 36
1, 152640, Note_on_c, 9, 35, 105
1, 152644, Note_on_c, 9, 42, 0
1, 152644, Note_on_c, 9, 55, 0
1, 152760, Note_on_c, 9, 40, 37
1, 152879, Note_on_c, 9, 40, 0
1, 152880, Note_on_c, 9, 42, 36
1, 152889, Note_on_c, 9, 42, 0
1, 152999, Note_on_c, 9, 35, 0
1, 153000, Note_on_c, 9, 35, 105
1, 153119, Note_on_c, 9, 35, 0
1, 153120, Note_on_c, 9, 40, 88
1, 153120, Note_on_c, 9, 42, 92
1, 153120, Note_on_c, 9, 55, 54
1, 153129, Note_on_c, 9, 42, 0
1, 153129, Note_on_c, 9, 55, 0
1, 153359, Note_on_c, 9, 40, 0
1, 153360, Note_on_c, 9, 46, 73
1, 153360, Note_on_c, 9, 35, 105
1, 153369, Note_on_c, 9, 46, 0
1, 153599, Note_on_c, 9, 35, 0
1, 153600, Note_on_c, 9, 42, 86
1, 153600, Note_on_c, 9, 55, 36
1, 153600, Note_on_c, 9, 35, 108
1, 153609, Note_on_c, 9, 42, 0
1, 153609, Note_on_c, 9, 55, 0
1, 153840, Note_on_c, 9, 42, 36
1, 153849, Note_on_c, 9, 42, 0
1, 154079, Note_on_c, 9, 35, 0
1, 154080, Note_on_c, 9, 40, 89
1, 154080, Note_on_c, 9, 42, 91
1, 154080, Note_on_c, 9, 55, 36
1, 154084, Note_on_c, 9, 42, 0
1, 154084, Note_on_c, 9, 55, 0
1, 154199, Note_on_c, 9, 40, 0
1, 154200, Note_on_c, 9, 40, 37
1, 154319, Note_on_c, 9, 40, 0
1, 154320, Note_on_c, 9, 42, 43
1, 154329, Note_on_c, 9, 42, 0
1, 154560, Note_on_c, 9, 42, 95
1, 154560, Note_on_c, 9, 55, 36
1, 154560, Note_on_c, 9, 35, 105
1, 154569, Note_on_c, 9, 42, 0
1, 154569, Note_on_c, 9, 55, 0
1, 154800, Note_on_c, 9, 42, 38
1, 154809, Note_on_c, 9, 42, 0
1, 155039, Note_on_c, 9, 35, 0
1, 155040, Note_on_c, 9, 40, 89
1, 155040, Note_on_c, 9, 42, 92
1, 155040, Note_on_c, 9, 55, 36
1, 155044, Note_on_c, 9, 42, 0
1, 155044, Note_on_c, 9, 55, 0
1, 155159, Note_on_c, 9, 40, 0
1, 155160, Note_on_c, 9, 40, 45
1, 155279, Note_on_c, 9, 40, 0
1, 155280, Note_on_c, 9, 42, 47
1, 155284, Note_on_c, 9, 42, 0
1, 155400, Note_on_c, 9, 40, 50
1, 155459, Note_on_c, 9, 40, 0
1, 155460, Note_on_c, 9, 40, 32
1, 155519, Note_on_c, 9, 40, 0
1, 155520, Note_on_c, 9, 42, 86
1, 155520, Note_on_c, 9, 55, 36
1, 155520, Note_on_c, 9, 35, 108
1, 155529, Note_on_c, 9, 42, 0
1, 155529, Note_on_c, 9, 55, 0
1, 155760, Note_on_c, 9, 42, 36
1, 155769, Note_on_c, 9, 42, 0
1, 155999, Note_on_c, 9, 35, 0
1, 156000, Note_on_c, 9, 40, 89
1, 156000, Note_on_c, 9, 42, 91
1, 156000, Note_on_c, 9, 55, 36
1, 156004, Note_on_c, 9, 42, 0
1, 156004, Note_on_c, 9, 55, 0
1, 156119, Note_on_c, 9, 40, 0
1, 156120, Note_on_c, 9, 40, 37
1, 156239, Note_on_c, 9, 40, 0
1, 156240, Note_on_c, 9, 42, 43
1, 156249, Note_on_c, 9, 42, 0
1, 156480, Note_on_c, 9, 42, 95
1, 156480, Note_on_c, 9, 55, 36
1, 156480, Note_on_c, 9, 35, 105
1, 156489, Note_on_c, 9, 42, 0
1, 156489, Note_on_c, 9, 55, 0
1, 156720, Note_on_c, 9, 42, 38
1, 156729, Note_on_c, 9, 42, 0
1, 156959, Note_on_c, 9, 35, 0
1, 156960, Note_on_c, 9, 40, 89
1, 156960, Note_on_c, 9, 42, 92
1, 156960, Note_on_c, 9, 55, 36
1, 156964, Note_on_c, 9, 42, 0
1, 156964, Note_on_c, 9, 55, 0
1, 157079, Note_on_c, 9, 40, 0
1, 157080, Note_on_c, 9, 40, 45
1, 157080, Note_on_c, 9, 44, 84
1, 157094, Note_on_c, 9, 44, 0
1, 157199, Note_on_c, 9, 40, 0
1, 157200, Note_on_c, 9, 46, 61
1, 157209, Note_on_c, 9, 46, 0
1, 157440, Note_on_c, 9, 42, 86
1, 157440, Note_on_c, 9, 55, 36
1, 157440, Note_on_c, 9, 35, 108
1, 157449, Note_on_c, 9, 42, 0
1, 157449, Note_on_c, 9, 55, 0
1, 157680, Note_on_c, 9, 42, 36
1, 157689, Note_on_c, 9, 42, 0
1, 157919, Note_on_c, 9, 35, 0
1, 157920, Note_on_c, 9, 40, 89
1, 157920, Note_on_c, 9, 42, 91
1, 157920, Note_on_c, 9, 55, 36
1, 157924, Note_on_c, 9, 42, 0
1, 157924, Note_on_c, 9, 55, 0
1, 158039, Note_on_c, 9, 40, 0
1, 158040, Note_on_c, 9, 40, 37
1, 158159, Note_on_c, 9, 40, 0
1, 158160, Note_on_c, 9, 42, 43
1, 158169, Note_on_c, 9, 42, 0
1, 158400, Note_on_c, 9, 42, 95
1, 158400, Note_on_c, 9, 55, 36
1, 158400, Note_on_c, 9, 35, 105
1, 158409, Note_on_c, 9, 42, 0
1, 158409, Note_on_c, 9, 55, 0
1, 158640, Note_on_c, 9, 42, 38
1, 158649, Note_on_c, 9, 42, 0
1, 158879, Note_on_c, 9, 35, 0
1, 158880, Note_on_c, 9, 40, 89
1, 158880, Note_on_c, 9, 42, 92
1, 158880, Note_on_c, 9, 55, 36
1, 158884, Note_on_c, 9, 42, 0
1, 158884, Note_on_c, 9, 55, 0
1, 158999, Note_on_c, 9, 40, 0
1, 159000, Note_on_c, 9, 40, 45
1, 159119, Note_on_c, 9, 40, 0
1, 159120, Note_on_c, 9, 42, 47
1, 159124, Note_on_c, 9, 42, 0
1, 159240, Note_on_c, 9, 40, 50
1, 159299, Note_on_c, 9, 40, 0
1, 159300, Note_on_c, 9, 40, 32
1, 159359, Note_on_c, 9, 40, 0
1, 159360, Note_on_c, 9, 46, 68
1, 159360, Note_on_c, 9, 55, 36
1, 159360, Note_on_c, 9, 35, 108
1, 159369, Note_on_c, 9, 46, 0
1, 159369, Note_on_c, 9, 55, 0
1, 159600, Note_on_c, 9, 46, 36
1, 159609, Note_on_c, 9, 46, 0
1, 159839, Note_on_c, 9, 35, 0
1, 159840, Note_on_c, 9, 40, 89
1, 159840, Note_on_c, 9, 46, 76
1, 159840, Note_on_c, 9, 55, 36
1, 159844, Note_on_c, 9, 46, 0
1, 159844, Note_on_c, 9, 55, 0
1, 159959, Note_on_c, 9, 40, 0
1, 159960, Note_on_c, 9, 40, 37
1, 160079, Note_on_c, 9, 40, 0
1, 160080, Note_on_c, 9, 46, 74
1, 160089, Note_on_c, 9, 46, 0
1, 160320, Note_on_c, 9, 48, 94
1, 160320, Note_on_c, 9, 35, 106
1, 160439, Note_on_c, 9, 48, 0
1, 160440, Note_on_c, 9, 40, 75
1, 160559, Note_on_c, 9, 40, 0
1, 160560, Note_on_c, 9, 40, 83
1, 160679, Note_on_c, 9, 35, 0
1, 160679, Note_on_c, 9, 40, 0
1, 160680, Note_on_c, 9, 47, 88
1, 160680, Note_on_c, 9, 35, 110
1, 160799, Note_on_c, 9, 47, 0
1, 160799, Note_on_c, 9, 35, 0
1, 160800, Note_on_c, 9, 35, 110
1, 160800, Note_on_c, 9, 43, 73
1, 161039, Note_on_c, 9, 35, 0
1, 161039, Note_on_c, 9, 43, 0
1, 161040, Note_on_c, 9, 41, 82
1, 161040, Note_on_c, 9, 49, 60
1, 161040, Note_on_c, 9, 35, 110
1, 161049, Note_on_c, 9, 49, 0
1, 161279, Note_on_c, 9, 41, 0
1, 161279, Note_on_c, 9, 35, 0
1, 161280, Note_on_c, 9, 57, 65
1, 161280, Note_on_c, 9, 35, 110
1, 161299, Note_on_c, 9, 57, 0
1, 161759, Note_on_c, 9, 35, 0
1, 161760, Note_on_c, 9, 48, 76
1, 161760, Note_on_c, 9, 35, 90
1, 161760, Note_on_c, 9, 43, 79
1, 162239, Note_on_c, 9, 48, 0
1, 162239, Note_on_c, 9, 35, 0
1, 162239, Note_on_c, 9, 43, 0
1, 162720, Note_on_c, 9, 48, 71
1, 162720, Note_on_c, 9, 35, 90
1, 162720, Note_on_c, 9, 43, 72
1, 163199, Note_on_c, 9, 48, 0
1, 163199, Note_on_c, 9, 35, 0
1, 163199, Note_on_c, 9, 43, 0
1, 163680, Note_on_c, 9, 48, 71
1, 163680, Note_on_c, 9, 35, 90
1, 163680, Note_on_c, 9, 43, 72
1, 164159, Note_on_c, 9, 48, 0
1, 164159, Note_on_c, 9, 35, 0
1, 164159, Note_on_c, 9, 43, 0
1, 164640, Note_on_c, 9, 48, 71
1, 164640, Note_on_c, 9, 35, 90
1, 164640, Note_on_c, 9, 43, 72
1, 165119, Note_on_c, 9, 48, 0
1, 165119, Note_on_c, 9, 35, 0
1, 165119, Note_on_c, 9, 43, 0
1, 165600, Note_on_c, 9, 48, 71
1, 165600, Note_on_c, 9, 35, 90
1, 165600, Note_on_c, 9, 43, 72
1, 166079, Note_on_c, 9, 48, 0
1, 166079, Note_on_c, 9, 35, 0
1, 166079, Note_on_c, 9, 43, 0
1, 166560, Note_on_c, 9, 48, 71
1, 166560, Note_on_c, 9, 35, 90
1, 166560, Note_on_c, 9, 43, 72
1, 167039, Note_on_c, 9, 48, 0
1, 167039, Note_on_c, 9, 35, 0
1, 167039, Note_on_c, 9, 43, 0
1, 167520, Note_on_c, 9, 48, 71
1, 167520, Note_on_c, 9, 35, 90
1, 167520, Note_on_c, 9, 43, 72
1, 167999, Note_on_c, 9, 48, 0
1, 167999, Note_on_c, 9, 35, 0
1, 167999, Note_on_c, 9, 43, 0
1, 168480, Note_on_c, 9, 48, 71
1, 168480, Note_on_c, 9, 35, 90
1, 168480, Note_on_c, 9, 43, 72
1, 168959, Note_on_c, 9, 48, 0
1, 168959, Note_on_c, 9, 35, 0
1, 168959, Note_on_c, 9, 43, 0
1, 169440, Note_on_c, 9, 48, 71
1, 169440, Note_on_c, 9, 35, 90
1, 169440, Note_on_c, 9, 43, 72
1, 169919, Note_on_c, 9, 48, 0
1, 169919, Note_on_c, 9, 35, 0
1, 169919, Note_on_c, 9, 43, 0
1, 170400, Note_on_c, 9, 48, 71
1, 170400, Note_on_c, 9, 35, 90
1, 170400, Note_on_c, 9, 43, 72
1, 170879, Note_on_c, 9, 48, 0
1, 170879, Note_on_c, 9, 35, 0
1, 170879, Note_on_c, 9, 43, 0
1, 170880, Note_on_c, 9, 40, 22
1, 170999, Note_on_c, 9, 40, 0
1, 171000, Note_on_c, 9, 40, 27
1, 171119, Note_on_c, 9, 40, 0
1, 171120, Note_on_c, 9, 40, 32
1, 171239, Note_on_c, 9, 40, 0
1, 171240, Note_on_c, 9, 40, 37
1, 171359, Note_on_c, 9, 40, 0
1, 171360, Note_on_c, 9, 40, 41
1, 171360, Note_on_c, 9, 48, 71
1, 171360, Note_on_c, 9, 35, 90
1, 171360, Note_on_c, 9, 43, 72
1, 171479, Note_on_c, 9, 40, 0
1, 171479, Note_on_c, 9, 48, 0
1, 171480, Note_on_c, 9, 40, 46
1, 171599, Note_on_c, 9, 40, 0
1, 171600, Note_on_c, 9, 40, 51
1, 171719, Note_on_c, 9, 40, 0
1, 171720, Note_on_c, 9, 40, 55
1, 171839, Note_on_c, 9, 35, 0
1, 171839, Note_on_c, 9, 43, 0
1, 171839, Note_on_c, 9, 40, 0
1, 171840, Note_on_c, 9, 40, 64
1, 171959, Note_on_c, 9, 40, 0
1, 171960, Note_on_c, 9, 40, 66
1, 172079, Note_on_c, 9, 40, 0
1, 172080, Note_on_c, 9, 40, 69
1, 172199, Note_on_c, 9, 40, 0
1, 172200, Note_on_c, 9, 40, 72
1, 172319, Note_on_c, 9, 40, 0
1, 172320, Note_on_c, 9, 40, 74
1, 172439, Note_on_c, 9, 40, 0
1, 172440, Note_on_c, 9, 40, 77
1, 172559, Note_on_c, 9, 40, 0
1, 172560, Note_on_c, 9, 40, 80
1, 172679, Note_on_c, 9, 40, 0
1, 172680, Note_on_c, 9, 40, 82
1, 172799, Note_on_c, 9, 40, 0
1, 172800, Note_on_c, 9, 40, 86
1, 172800, Note_on_c, 9, 54, 68
1, 172800, Note_on_c, 9, 53, 66
1, 172800, Note_on_c, 9, 69, 44
1, 172800, Note_on_c, 9, 42, 86
1, 172800, Note_on_c, 9, 49, 65
1, 172800, Note_on_c, 9, 35, 109
1, 172804, Note_on_c, 9, 42, 0
1, 172804, Note_on_c, 9, 49, 0
1, 172919, Note_on_c, 9, 40, 0
1, 172919, Note_on_c, 9, 54, 0
1, 172919, Note_on_c, 9, 53, 0
1, 172919, Note_on_c, 9, 69, 0
1, 172920, Note_on_c, 9, 54, 41
1, 172920, Note_on_c, 9, 82, 44
1, 173039, Note_on_c, 9, 54, 0
1, 173039, Note_on_c, 9, 82, 0
1, 173040, Note_on_c, 9, 54, 68
1, 173040, Note_on_c, 9, 69, 44
1, 173040, Note_on_c, 9, 42, 36
1, 173044, Note_on_c, 9, 42, 0
1, 173159, Note_on_c, 9, 35, 0
1, 173159, Note_on_c, 9, 54, 0
1, 173159, Note_on_c, 9, 69, 0
1, 173160, Note_on_c, 9, 54, 49
1, 173160, Note_on_c, 9, 82, 44
1, 173160, Note_on_c, 9, 35, 103
1, 173279, Note_on_c, 9, 54, 0
1, 173279, Note_on_c, 9, 82, 0
1, 173279, Note_on_c, 9, 35, 0
1, 173280, Note_on_c, 9, 40, 86
1, 173280, Note_on_c, 9, 54, 68
1, 173280, Note_on_c, 9, 53, 66
1, 173280, Note_on_c, 9, 69, 44
1, 173280, Note_on_c, 9, 42, 91
1, 173284, Note_on_c, 9, 42, 0
1, 173399, Note_on_c, 9, 40, 0
1, 173399, Note_on_c, 9, 54, 0
1, 173399, Note_on_c, 9, 53, 0
1, 173399, Note_on_c, 9, 69, 0
1, 173400, Note_on_c, 9, 54, 45
1, 173400, Note_on_c, 9, 82, 44
1, 173519, Note_on_c, 9, 54, 0
1, 173519, Note_on_c, 9, 82, 0
1, 173520, Note_on_c, 9, 54, 68
1, 173520, Note_on_c, 9, 69, 44
1, 173520, Note_on_c, 9, 42, 43
1, 173520, Note_on_c, 9, 35, 97
1, 173524, Note_on_c, 9, 42, 0
1, 173639, Note_on_c, 9, 54, 0
1, 173639, Note_on_c, 9, 69, 0
1, 173640, Note_on_c, 9, 54, 44
1, 173640, Note_on_c, 9, 82, 44
1, 173759, Note_on_c, 9, 35, 0
1, 173759, Note_on_c, 9, 54, 0
1, 173759, Note_on_c, 9, 82, 0
1, 173760, Note_on_c, 9, 40, 86
1, 173760, Note_on_c, 9, 54, 68
1, 173760, Note_on_c, 9, 53, 66
1, 173760, Note_on_c, 9, 69, 44
1, 173760, Note_on_c, 9, 42, 95
1, 173760, Note_on_c, 9, 35, 109
1, 173764, Note_on_c, 9, 42, 0
1, 173879, Note_on_c, 9, 40, 0
1, 173879, Note_on_c, 9, 54, 0
1, 173879, Note_on_c, 9, 53, 0
1, 173879, Note_on_c, 9, 69, 0
1, 173880, Note_on_c, 9, 54, 48
1, 173880, Note_on_c, 9, 82, 44
1, 173999, Note_on_c, 9, 54, 0
1, 173999, Note_on_c, 9, 82, 0
1, 174000, Note_on_c, 9, 54, 68
1, 174000, Note_on_c, 9, 69, 44
1, 174000, Note_on_c, 9, 42, 38
1, 174004, Note_on_c, 9, 42, 0
1, 174119, Note_on_c, 9, 35, 0
1, 174119, Note_on_c, 9, 54, 0
1, 174119, Note_on_c, 9, 69, 0
1, 174120, Note_on_c, 9, 54, 47
1, 174120, Note_on_c, 9, 82, 44
1, 174120, Note_on_c, 9, 35, 111
1, 174239, Note_on_c, 9, 54, 0
1, 174239, Note_on_c, 9, 82, 0
1, 174239, Note_on_c, 9, 35, 0
1, 174240, Note_on_c, 9, 40, 86
1, 174240, Note_on_c, 9, 54, 68
1, 174240, Note_on_c, 9, 53, 66
1, 174240, Note_on_c, 9, 69, 44
1, 174240, Note_on_c, 9, 42, 92
1, 174244, Note_on_c, 9, 42, 0
1, 174359, Note_on_c, 9, 40, 0
1, 174359, Note_on_c, 9, 54, 0
1, 174359, Note_on_c, 9, 53, 0
1, 174359, Note_on_c, 9, 69, 0
1, 174360, Note_on_c, 9, 54, 46
1, 174360, Note_on_c, 9, 82, 44
1, 174479, Note_on_c, 9, 54, 0
1, 174479, Note_on_c, 9, 82, 0
1, 174480, Note_on_c, 9, 54, 68
1, 174480, Note_on_c, 9, 69, 44
1, 174480, Note_on_c, 9, 42, 47
1, 174480, Note_on_c, 9, 35, 101
1, 174484, Note_on_c, 9, 42, 0
1, 174599, Note_on_c, 9, 54, 0
1, 174599, Note_on_c, 9, 69, 0
1, 174600, Note_on_c, 9, 54, 51
1, 174600, Note_on_c, 9, 82, 44
1, 174719, Note_on_c, 9, 35, 0
1, 174719, Note_on_c, 9, 54, 0
1, 174719, Note_on_c, 9, 82, 0
1, 174720, Note_on_c, 9, 40, 86
1, 174720, Note_on_c, 9, 54, 68
1, 174720, Note_on_c, 9, 53, 66
1, 174720, Note_on_c, 9, 69, 44
1, 174720, Note_on_c, 9, 42, 86
1, 174720, Note_on_c, 9, 35, 109
1, 174724, Note_on_c, 9, 42, 0
1, 174839, Note_on_c, 9, 40, 0
1, 174839, Note_on_c, 9, 54, 0
1, 174839, Note_on_c, 9, 53, 0
1, 174839, Note_on_c, 9, 69, 0
1, 174840, Note_on_c, 9, 54, 41
1, 174840, Note_on_c, 9, 82, 44
1, 174959, Note_on_c, 9, 54, 0
1, 174959, Note_on_c, 9, 82, 0
1, 174960, Note_on_c, 9, 54, 68
1, 174960, Note_on_c, 9, 69, 44
1, 174960, Note_on_c, 9, 42, 36
1, 174964, Note_on_c, 9, 42, 0
1, 175079, Note_on_c, 9, 35, 0
1, 175079, Note_on_c, 9, 54, 0
1, 175079, Note_on_c, 9, 69, 0
1, 175080, Note_on_c, 9, 54, 49
1, 175080, Note_on_c, 9, 82, 44
1, 175080, Note_on_c, 9, 35, 103
1, 175199, Note_on_c, 9, 54, 0
1, 175199, Note_on_c, 9, 82, 0
1, 175199, Note_on_c, 9, 35, 0
1, 175200, Note_on_c, 9, 40, 86
1, 175200, Note_on_c, 9, 54, 68
1, 175200, Note_on_c, 9, 53, 66
1, 175200, Note_on_c, 9, 69, 44
1, 175200, Note_on_c, 9, 42, 91
1, 175204, Note_on_c, 9, 42, 0
1, 175319, Note_on_c, 9, 40, 0
1, 175319, Note_on_c, 9, 54, 0
1, 175319, Note_on_c, 9, 53, 0
1, 175319, Note_on_c, 9, 69, 0
1, 175320, Note_on_c, 9, 54, 45
1, 175320, Note_on_c, 9, 82, 44
1, 175439, Note_on_c, 9, 54, 0
1, 175439, Note_on_c, 9, 82, 0
1, 175440, Note_on_c, 9, 54, 68
1, 175440, Note_on_c, 9, 69, 44
1, 175440, Note_on_c, 9, 42, 43
1, 175440, Note_on_c, 9, 35, 97
1, 175444, Note_on_c, 9, 42, 0
1, 175559, Note_on_c, 9, 54, 0
1, 175559, Note_on_c, 9, 69, 0
1, 175560, Note_on_c, 9, 54, 44
1, 175560, Note_on_c, 9, 82, 44
1, 175679, Note_on_c, 9, 35, 0
1, 175679, Note_on_c, 9, 54, 0
1, 175679, Note_on_c, 9, 82, 0
1, 175680, Note_on_c, 9, 40, 86
1, 175680, Note_on_c, 9, 54, 68
1, 175680, Note_on_c, 9, 53, 66
1, 175680, Note_on_c, 9, 69, 44
1, 175680, Note_on_c, 9, 42, 95
1, 175680, Note_on_c, 9, 35, 109
1, 175684, Note_on_c, 9, 42, 0
1, 175799, Note_on_c, 9, 40, 0
1, 175799, Note_on_c, 9, 54, 0
1, 175799, Note_on_c, 9, 53, 0
1, 175799, Note_on_c, 9, 69, 0
1, 175800, Note_on_c, 9, 54, 48
1, 175800, Note_on_c, 9, 82, 44
1, 175919, Note_on_c, 9, 54, 0
1, 175919, Note_on_c, 9, 82, 0
1, 175920, Note_on_c, 9, 54, 68
1, 175920, Note_on_c, 9, 69, 44
1, 175920, Note_on_c, 9, 42, 38
1, 175924, Note_on_c, 9, 42, 0
1, 176039, Note_on_c, 9, 35, 0
1, 176039, Note_on_c, 9, 54, 0
1, 176039, Note_on_c, 9, 69, 0
1, 176040, Note_on_c, 9, 54, 47
1, 176040, Note_on_c, 9, 82, 44
1, 176040, Note_on_c, 9, 35, 111
1, 176159, Note_on_c, 9, 54, 0
1, 176159, Note_on_c, 9, 82, 0
1, 176159, Note_on_c, 9, 35, 0
1, 176160, Note_on_c, 9, 40, 86
1, 176160, Note_on_c, 9, 54, 68
1, 176160, Note_on_c, 9, 53, 66
1, 176160, Note_on_c, 9, 69, 44
1, 176160, Note_on_c, 9, 42, 92
1, 176164, Note_on_c, 9, 42, 0
1, 176279, Note_on_c, 9, 40, 0
1, 176279, Note_on_c, 9, 54, 0
1, 176279, Note_on_c, 9, 53, 0
1, 176279, Note_on_c, 9, 69, 0
1, 176280, Note_on_c, 9, 54, 46
1, 176280, Note_on_c, 9, 82, 44
1, 176399, Note_on_c, 9, 54, 0
1, 176399, Note_on_c, 9, 82, 0
1, 176400, Note_on_c, 9, 54, 68
1, 176400, Note_on_c, 9, 69, 44
1, 176400, Note_on_c, 9, 42, 47
1, 176400, Note_on_c, 9, 35, 101
1, 176404, Note_on_c, 9, 42, 0
1, 176519, Note_on_c, 9, 54, 0
1, 176519, Note_on_c, 9, 69, 0
1, 176520, Note_on_c, 9, 54, 51
1, 176520, Note_on_c, 9, 82, 44
1, 176639, Note_on_c, 9, 35, 0
1, 176639, Note_on_c, 9, 54, 0
1, 176639, Note_on_c, 9, 82, 0
1, 176640, Note_on_c, 9, 40, 86
1, 176640, Note_on_c, 9, 54, 68
1, 176640, Note_on_c, 9, 53, 66
1, 176640, Note_on_c, 9, 69, 44
1, 176640, Note_on_c, 9, 42, 86
1, 176640, Note_on_c, 9, 49, 65
1, 176640, Note_on_c, 9, 35, 109
1, 176644, Note_on_c, 9, 42, 0
1, 176644, Note_on_c, 9, 49, 0
1, 176759, Note_on_c, 9, 40, 0
1, 176759, Note_on_c, 9, 54, 0
1, 176759, Note_on_c, 9, 53, 0
1, 176759, Note_on_c, 9, 69, 0
1, 176760, Note_on_c, 9, 54, 41
1, 176760, Note_on_c, 9, 82, 44
1, 176879, Note_on_c, 9, 54, 0
1, 176879, Note_on_c, 9, 82, 0
1, 176880, Note_on_c, 9, 54, 68
1, 176880, Note_on_c, 9, 69, 44
1, 176880, Note_on_c, 9, 42, 36
1, 176884, Note_on_c, 9, 42, 0
1, 176999, Note_on_c, 9, 35, 0
1, 176999, Note_on_c, 9, 54, 0
1, 176999, Note_on_c, 9, 69, 0
1, 177000, Note_on_c, 9, 54, 49
1, 177000, Note_on_c, 9, 82, 44
1, 177000, Note_on_c, 9, 35, 103
1, 177119, Note_on_c, 9, 54, 0
1, 177119, Note_on_c, 9, 82, 0
1, 177119, Note_on_c, 9, 35, 0
1, 177120, Note_on_c, 9, 40, 86
1, 177120, Note_on_c, 9, 54, 68
1, 177120, Note_on_c, 9, 53, 66
1, 177120, Note_on_c, 9, 69, 44
1, 177120, Note_on_c, 9, 42, 91
1, 177124, Note_on_c, 9, 42, 0
1, 177239, Note_on_c, 9, 40, 0
1, 177239, Note_on_c, 9, 54, 0
1, 177239, Note_on_c, 9, 53, 0
1, 177239, Note_on_c, 9, 69, 0
1, 177240, Note_on_c, 9, 54, 45
1, 177240, Note_on_c, 9, 82, 44
1, 177359, Note_on_c, 9, 54, 0
1, 177359, Note_on_c, 9, 82, 0
1, 177360, Note_on_c, 9, 54, 68
1, 177360, Note_on_c, 9, 69, 44
1, 177360, Note_on_c, 9, 42, 43
1, 177360, Note_on_c, 9, 35, 97
1, 177364, Note_on_c, 9, 42, 0
1, 177479, Note_on_c, 9, 54, 0
1, 177479, Note_on_c, 9, 69, 0
1, 177480, Note_on_c, 9, 54, 44
1, 177480, Note_on_c, 9, 82, 44
1, 177599, Note_on_c, 9, 35, 0
1, 177599, Note_on_c, 9, 54, 0
1, 177599, Note_on_c, 9, 82, 0
1, 177600, Note_on_c, 9, 40, 86
1, 177600, Note_on_c, 9, 54, 68
1, 177600, Note_on_c, 9, 53, 66
1, 177600, Note_on_c, 9, 69, 44
1, 177600, Note_on_c, 9, 42, 95
1, 177600, Note_on_c, 9, 35, 109
1, 177604, Note_on_c, 9, 42, 0
1, 177719, Note_on_c, 9, 40, 0
1, 177719, Note_on_c, 9, 54, 0
1, 177719, Note_on_c, 9, 53, 0
1, 177719, Note_on_c, 9, 69, 0
1, 177720, Note_on_c, 9, 54, 48
1, 177720, Note_on_c, 9, 82, 44
1, 177839, Note_on_c, 9, 54, 0
1, 177839, Note_on_c, 9, 82, 0
1, 177840, Note_on_c, 9, 54, 68
1, 177840, Note_on_c, 9, 69, 44
1, 177840, Note_on_c, 9, 42, 38
1, 177844, Note_on_c, 9, 42, 0
1, 177959, Note_on_c, 9, 35, 0
1, 177959, Note_on_c, 9, 54, 0
1, 177959, Note_on_c, 9, 69, 0
1, 177960, Note_on_c, 9, 54, 47
1, 177960, Note_on_c, 9, 82, 44
1, 177960, Note_on_c, 9, 35, 111
1, 178079, Note_on_c, 9, 54, 0
1, 178079, Note_on_c, 9, 82, 0
1, 178079, Note_on_c, 9, 35, 0
1, 178080, Note_on_c, 9, 40, 86
1, 178080, Note_on_c, 9, 54, 68
1, 178080, Note_on_c, 9, 53, 66
1, 178080, Note_on_c, 9, 69, 44
1, 178080, Note_on_c, 9, 42, 92
1, 178084, Note_on_c, 9, 42, 0
1, 178199, Note_on_c, 9, 40, 0
1, 178199, Note_on_c, 9, 54, 0
1, 178199, Note_on_c, 9, 53, 0
1, 178199, Note_on_c, 9, 69, 0
1, 178200, Note_on_c, 9, 54, 46
1, 178200, Note_on_c, 9, 82, 44
1, 178319, Note_on_c, 9, 54, 0
1, 178319, Note_on_c, 9, 82, 0
1, 178320, Note_on_c, 9, 54, 68
1, 178320, Note_on_c, 9, 69, 44
1, 178320, Note_on_c, 9, 42, 47
1, 178320, Note_on_c, 9, 35, 101
1, 178324, Note_on_c, 9, 42, 0
1, 178439, Note_on_c, 9, 54, 0
1, 178439, Note_on_c, 9, 69, 0
1, 178440, Note_on_c, 9, 54, 51
1, 178440, Note_on_c, 9, 82, 44
1, 178559, Note_on_c, 9, 35, 0
1, 178559, Note_on_c, 9, 54, 0
1, 178559, Note_on_c, 9, 82, 0
1, 178560, Note_on_c, 9, 40, 86
1, 178560, Note_on_c, 9, 54, 68
1, 178560, Note_on_c, 9, 53, 66
1, 178560, Note_on_c, 9, 69, 44
1, 178560, Note_on_c, 9, 42, 86
1, 178560, Note_on_c, 9, 35, 109
1, 178564, Note_on_c, 9, 42, 0
1, 178679, Note_on_c, 9, 40, 0
1, 178679, Note_on_c, 9, 54, 0
1, 178679, Note_on_c, 9, 53, 0
1, 178679, Note_on_c, 9, 69, 0
1, 178680, Note_on_c, 9, 54, 41
1, 178680, Note_on_c, 9, 82, 44
1, 178799, Note_on_c, 9, 54, 0
1, 178799, Note_on_c, 9, 82, 0
1, 178800, Note_on_c, 9, 54, 68
1, 178800, Note_on_c, 9, 69, 44
1, 178800, Note_on_c, 9, 42, 36
1, 178804, Note_on_c, 9, 42, 0
1, 178919, Note_on_c, 9, 35, 0
1, 178919, Note_on_c, 9, 54, 0
1, 178919, Note_on_c, 9, 69, 0
1, 178920, Note_on_c, 9, 54, 49
1, 178920, Note_on_c, 9, 82, 44
1, 178920, Note_on_c, 9, 35, 103
1, 179039, Note_on_c, 9, 54, 0
1, 179039, Note_on_c, 9, 82, 0
1, 179039, Note_on_c, 9, 35, 0
1, 179040, Note_on_c, 9, 40, 86
1, 179040, Note_on_c, 9, 54, 68
1, 179040, Note_on_c, 9, 53, 66
1, 179040, Note_on_c, 9, 69, 44
1, 179040, Note_on_c, 9, 42, 91
1, 179044, Note_on_c, 9, 42, 0
1, 179159, Note_on_c, 9, 40, 0
1, 179159, Note_on_c, 9, 54, 0
1, 179159, Note_on_c, 9, 53, 0
1, 179159, Note_on_c, 9, 69, 0
1, 179160, Note_on_c, 9, 54, 45
1, 179160, Note_on_c, 9, 82, 44
1, 179279, Note_on_c, 9, 54, 0
1, 179279, Note_on_c, 9, 82, 0
1, 179280, Note_on_c, 9, 54, 68
1, 179280, Note_on_c, 9, 69, 44
1, 179280, Note_on_c, 9, 42, 43
1, 179280, Note_on_c, 9, 35, 97
1, 179284, Note_on_c, 9, 42, 0
1, 179399, Note_on_c, 9, 54, 0
1, 179399, Note_on_c, 9, 69, 0
1, 179400, Note_on_c, 9, 54, 44
1, 179400, Note_on_c, 9, 82, 44
1, 179519, Note_on_c, 9, 35, 0
1, 179519, Note_on_c, 9, 54, 0
1, 179519, Note_on_c, 9, 82, 0
1, 179520, Note_on_c, 9, 40, 86
1, 179520, Note_on_c, 9, 54, 68
1, 179520, Note_on_c, 9, 53, 66
1, 179520, Note_on_c, 9, 69, 44
1, 179520, Note_on_c, 9, 42, 95
1, 179520, Note_on_c, 9, 35, 109
1, 179524, Note_on_c, 9, 42, 0
1, 179639, Note_on_c, 9, 40, 0
1, 179639, Note_on_c, 9, 54, 0
1, 179639, Note_on_c, 9, 53, 0
1, 179639, Note_on_c, 9, 69, 0
1, 179640, Note_on_c, 9, 54, 48
1, 179640, Note_on_c, 9, 82, 44
1, 179759, Note_on_c, 9, 54, 0
1, 179759, Note_on_c, 9, 82, 0
1, 179760, Note_on_c, 9, 54, 68
1, 179760, Note_on_c, 9, 69, 44
1, 179760, Note_on_c, 9, 42, 38
1, 179764, Note_on_c, 9, 42, 0
1, 179879, Note_on_c, 9, 35, 0
1, 179879, Note_on_c, 9, 54, 0
1, 179879, Note_on_c, 9, 69, 0
1, 179880, Note_on_c, 9, 54, 47
1, 179880, Note_on_c, 9, 82, 44
1, 179880, Note_on_c, 9, 35, 111
1, 179999, Note_on_c, 9, 54, 0
1, 179999, Note_on_c, 9, 82, 0
1, 179999, Note_on_c, 9, 35, 0
1, 180000, Note_on_c, 9, 40, 86
1, 180000, Note_on_c, 9, 54, 68
1, 180000, Note_on_c, 9, 53, 66
1, 180000, Note_on_c, 9, 69, 44
1, 180000, Note_on_c, 9, 42, 92
1, 180004, Note_on_c, 9, 42, 0
1, 180119, Note_on_c, 9, 40, 0
1, 180119, Note_on_c, 9, 54, 0
1, 180119, Note_on_c, 9, 53, 0
1, 180119, Note_on_c, 9, 69, 0
1, 180120, Note_on_c, 9, 54, 46
1, 180120, Note_on_c, 9, 82, 44
1, 180239, Note_on_c, 9, 54, 0
1, 180239, Note_on_c, 9, 82, 0
1, 180240, Note_on_c, 9, 54, 68
1, 180240, Note_on_c, 9, 69, 44
1, 180240, Note_on_c, 9, 42, 47
1, 180240, Note_on_c, 9, 35, 101
1, 180244, Note_on_c, 9, 42, 0
1, 180359, Note_on_c, 9, 54, 0
1, 180359, Note_on_c, 9, 69, 0
1, 180360, Note_on_c, 9, 54, 51
1, 180360, Note_on_c, 9, 82, 44
1, 180479, Note_on_c, 9, 35, 0
1, 180479, Note_on_c, 9, 54, 0
1, 180479, Note_on_c, 9, 82, 0
1, 180480, Note_on_c, 9, 40, 86
1, 180480, Note_on_c, 9, 54, 68
1, 180480, Note_on_c, 9, 53, 66
1, 180480, Note_on_c, 9, 69, 44
1, 180480, Note_on_c, 9, 42, 86
1, 180480, Note_on_c, 9, 49, 65
1, 180480, Note_on_c, 9, 35, 109
1, 180484, Note_on_c, 9, 42, 0
1, 180484, Note_on_c, 9, 49, 0
1, 180599, Note_on_c, 9, 40, 0
1, 180599, Note_on_c, 9, 54, 0
1, 180599, Note_on_c, 9, 53, 0
1, 180599, Note_on_c, 9, 69, 0
1, 180600, Note_on_c, 9, 54, 41
1, 180600, Note_on_c, 9, 82, 44
1, 180719, Note_on_c, 9, 54, 0
1, 180719, Note_on_c, 9, 82, 0
1, 180720, Note_on_c, 9, 54, 68
1, 180720, Note_on_c, 9, 69, 44
1, 180720, Note_on_c, 9, 42, 36
1, 180724, Note_on_c, 9, 42, 0
1, 180839, Note_on_c, 9, 35, 0
1, 180839, Note_on_c, 9, 54, 0
1, 180839, Note_on_c, 9, 69, 0
1, 180840, Note_on_c, 9, 54, 49
1, 180840, Note_on_c, 9, 82, 44
1, 180840, Note_on_c, 9, 35, 103
1, 180959, Note_on_c, 9, 54, 0
1, 180959, Note_on_c, 9, 82, 0
1, 180959, Note_on_c, 9, 35, 0
1, 180960, Note_on_c, 9, 40, 86
1, 180960, Note_on_c, 9, 54, 68
1, 180960, Note_on_c, 9, 53, 66
1, 180960, Note_on_c, 9, 69, 44
1, 180960, Note_on_c, 9, 42, 91
1, 180964, Note_on_c, 9, 42, 0
1, 181079, Note_on_c, 9, 40, 0
1, 181079, Note_on_c, 9, 54, 0
1, 181079, Note_on_c, 9, 53, 0
1, 181079, Note_on_c, 9, 69, 0
1, 181080, Note_on_c, 9, 54, 45
1, 181080, Note_on_c, 9, 82, 44
1, 181199, Note_on_c, 9, 54, 0
1, 181199, Note_on_c, 9, 82, 0
1, 181200, Note_on_c, 9, 54, 68
1, 181200, Note_on_c, 9, 69, 44
1, 181200, Note_on_c, 9, 42, 43
1, 181200, Note_on_c, 9, 35, 97
1, 181204, Note_on_c, 9, 42, 0
1, 181319, Note_on_c, 9, 54, 0
1, 181319, Note_on_c, 9, 69, 0
1, 181320, Note_on_c, 9, 54, 44
1, 181320, Note_on_c, 9, 82, 44
1, 181439, Note_on_c, 9, 35, 0
1, 181439, Note_on_c, 9, 54, 0
1, 181439, Note_on_c, 9, 82, 0
1, 181440, Note_on_c, 9, 40, 86
1, 181440, Note_on_c, 9, 54, 68
1, 181440, Note_on_c, 9, 53, 66
1, 181440, Note_on_c, 9, 69, 44
1, 181440, Note_on_c, 9, 42, 95
1, 181440, Note_on_c, 9, 35, 109
1, 181444, Note_on_c, 9, 42, 0
1, 181559, Note_on_c, 9, 40, 0
1, 181559, Note_on_c, 9, 54, 0
1, 181559, Note_on_c, 9, 53, 0
1, 181559, Note_on_c, 9, 69, 0
1, 181560, Note_on_c, 9, 54, 48
1, 181560, Note_on_c, 9, 82, 44
1, 181679, Note_on_c, 9, 54, 0
1, 181679, Note_on_c, 9, 82, 0
1, 181680, Note_on_c, 9, 54, 68
1, 181680, Note_on_c, 9, 69, 44
1, 181680, Note_on_c, 9, 42, 38
1, 181684, Note_on_c, 9, 42, 0
1, 181799, Note_on_c, 9, 35, 0
1, 181799, Note_on_c, 9, 54, 0
1, 181799, Note_on_c, 9, 69, 0
1, 181800, Note_on_c, 9, 54, 47
1, 181800, Note_on_c, 9, 82, 44
1, 181800, Note_on_c, 9, 35, 111
1, 181919, Note_on_c, 9, 54, 0
1, 181919, Note_on_c, 9, 82, 0
1, 181919, Note_on_c, 9, 35, 0
1, 181920, Note_on_c, 9, 40, 86
1, 181920, Note_on_c, 9, 54, 68
1, 181920, Note_on_c, 9, 53, 66
1, 181920, Note_on_c, 9, 69, 44
1, 181920, Note_on_c, 9, 42, 92
1, 181924, Note_on_c, 9, 42, 0
1, 182039, Note_on_c, 9, 40, 0
1, 182039, Note_on_c, 9, 54, 0
1, 182039, Note_on_c, 9, 53, 0
1, 182039, Note_on_c, 9, 69, 0
1, 182040, Note_on_c, 9, 54, 46
1, 182040, Note_on_c, 9, 82, 44
1, 182159, Note_on_c, 9, 54, 0
1, 182159, Note_on_c, 9, 82, 0
1, 182160, Note_on_c, 9, 54, 68
1, 182160, Note_on_c, 9, 69, 44
1, 182160, Note_on_c, 9, 42, 47
1, 182160, Note_on_c, 9, 35, 101
1, 182164, Note_on_c, 9, 42, 0
1, 182279, Note_on_c, 9, 54, 0
1, 182279, Note_on_c, 9, 69, 0
1, 182280, Note_on_c, 9, 54, 51
1, 182280, Note_on_c, 9, 82, 44
1, 182399, Note_on_c, 9, 35, 0
1, 182399, Note_on_c, 9, 54, 0
1, 182399, Note_on_c, 9, 82, 0
1, 182400, Note_on_c, 9, 40, 86
1, 182400, Note_on_c, 9, 54, 68
1, 182400, Note_on_c, 9, 53, 66
1, 182400, Note_on_c, 9, 69, 44
1, 182400, Note_on_c, 9, 42, 86
1, 182400, Note_on_c, 9, 35, 109
1, 182404, Note_on_c, 9, 42, 0
1, 182519, Note_on_c, 9, 40, 0
1, 182519, Note_on_c, 9, 54, 0
1, 182519, Note_on_c, 9, 53, 0
1, 182519, Note_on_c, 9, 69, 0
1, 182520, Note_on_c, 9, 54, 41
1, 182520, Note_on_c, 9, 82, 44
1, 182639, Note_on_c, 9, 54, 0
1, 182639, Note_on_c, 9, 82, 0
1, 182640, Note_on_c, 9, 54, 68
1, 182640, Note_on_c, 9, 69, 44
1, 182640, Note_on_c, 9, 42, 36
1, 182644, Note_on_c, 9, 42, 0
1, 182759, Note_on_c, 9, 35, 0
1, 182759, Note_on_c, 9, 54, 0
1, 182759, Note_on_c, 9, 69, 0
1, 182760, Note_on_c, 9, 54, 49
1, 182760, Note_on_c, 9, 82, 44
1, 182760, Note_on_c, 9, 35, 103
1, 182879, Note_on_c, 9, 54, 0
1, 182879, Note_on_c, 9, 82, 0
1, 182879, Note_on_c, 9, 35, 0
1, 182880, Note_on_c, 9, 40, 86
1, 182880, Note_on_c, 9, 54, 68
1, 182880, Note_on_c, 9, 53, 66
1, 182880, Note_on_c, 9, 69, 44
1, 182880, Note_on_c, 9, 42, 91
1, 182884, Note_on_c, 9, 42, 0
1, 182999, Note_on_c, 9, 40, 0
1, 182999, Note_on_c, 9, 54, 0
1, 182999, Note_on_c, 9, 53, 0
1, 182999, Note_on_c, 9, 69, 0
1, 183000, Note_on_c, 9, 54, 45
1, 183000, Note_on_c, 9, 82, 44
1, 183119, Note_on_c, 9, 54, 0
1, 183119, Note_on_c, 9, 82, 0
1, 183120, Note_on_c, 9, 54, 68
1, 183120, Note_on_c, 9, 69, 44
1, 183120, Note_on_c, 9, 42, 43
1, 183120, Note_on_c, 9, 35, 97
1, 183124, Note_on_c, 9, 42, 0
1, 183239, Note_on_c, 9, 54, 0
1, 183239, Note_on_c, 9, 69, 0
1, 183240, Note_on_c, 9, 54, 44
1, 183240, Note_on_c, 9, 82, 44
1, 183359, Note_on_c, 9, 35, 0
1, 183359, Note_on_c, 9, 54, 0
1, 183359, Note_on_c, 9, 82, 0
1, 183360, Note_on_c, 9, 40, 86
1, 183360, Note_on_c, 9, 54, 68
1, 183360, Note_on_c, 9, 53, 66
1, 183360, Note_on_c, 9, 69, 44
1, 183360, Note_on_c, 9, 42, 95
1, 183360, Note_on_c, 9, 35, 109
1, 183364, Note_on_c, 9, 42, 0
1, 183479, Note_on_c, 9, 40, 0
1, 183479, Note_on_c, 9, 54, 0
1, 183479, Note_on_c, 9, 53, 0
1, 183479, Note_on_c, 9, 69, 0
1, 183480, Note_on_c, 9, 54, 48
1, 183480, Note_on_c, 9, 82, 44
1, 183599, Note_on_c, 9, 54, 0
1, 183599, Note_on_c, 9, 82, 0
1, 183600, Note_on_c, 9, 54, 68
1, 183600, Note_on_c, 9, 69, 44
1, 183600, Note_on_c, 9, 42, 38
1, 183604, Note_on_c, 9, 42, 0
1, 183719, Note_on_c, 9, 35, 0
1, 183719, Note_on_c, 9, 54, 0
1, 183719, Note_on_c, 9, 69, 0
1, 183720, Note_on_c, 9, 54, 47
1, 183720, Note_on_c, 9, 82, 44
1, 183720, Note_on_c, 9, 35, 111
1, 183839, Note_on_c, 9, 54, 0
1, 183839, Note_on_c, 9, 82, 0
1, 183839, Note_on_c, 9, 35, 0
1, 183840, Note_on_c, 9, 40, 86
1, 183840, Note_on_c, 9, 54, 68
1, 183840, Note_on_c, 9, 53, 66
1, 183840, Note_on_c, 9, 69, 44
1, 183840, Note_on_c, 9, 42, 92
1, 183844, Note_on_c, 9, 42, 0
1, 183959, Note_on_c, 9, 40, 0
1, 183959, Note_on_c, 9, 54, 0
1, 183959, Note_on_c, 9, 53, 0
1, 183959, Note_on_c, 9, 69, 0
1, 183960, Note_on_c, 9, 54, 46
1, 183960, Note_on_c, 9, 82, 44
1, 184079, Note_on_c, 9, 54, 0
1, 184079, Note_on_c, 9, 82, 0
1, 184080, Note_on_c, 9, 54, 68
1, 184080, Note_on_c, 9, 69, 44
1, 184080, Note_on_c, 9, 42, 47
1, 184080, Note_on_c, 9, 35, 101
1, 184084, Note_on_c, 9, 42, 0
1, 184199, Note_on_c, 9, 54, 0
1, 184199, Note_on_c, 9, 69, 0
1, 184200, Note_on_c, 9, 54, 51
1, 184200, Note_on_c, 9, 82, 44
1, 184319, Note_on_c, 9, 35, 0
1, 184319, Note_on_c, 9, 54, 0
1, 184319, Note_on_c, 9, 82, 0
1, 184320, Note_on_c, 9, 40, 86
1, 184320, Note_on_c, 9, 54, 68
1, 184320, Note_on_c, 9, 53, 66
1, 184320, Note_on_c, 9, 69, 44
1, 184320, Note_on_c, 9, 42, 86
1, 184320, Note_on_c, 9, 49, 65
1, 184320, Note_on_c, 9, 35, 109
1, 184324, Note_on_c, 9, 42, 0
1, 184324, Note_on_c, 9, 49, 0
1, 184439, Note_on_c, 9, 40, 0
1, 184439, Note_on_c, 9, 54, 0
1, 184439, Note_on_c, 9, 53, 0
1, 184439, Note_on_c, 9, 69, 0
1, 184440, Note_on_c, 9, 54, 41
1, 184440, Note_on_c, 9, 82, 44
1, 184559, Note_on_c, 9, 54, 0
1, 184559, Note_on_c, 9, 82, 0
1, 184560, Note_on_c, 9, 54, 68
1, 184560, Note_on_c, 9, 69, 44
1, 184560, Note_on_c, 9, 42, 36
1, 184564, Note_on_c, 9, 42, 0
1, 184679, Note_on_c, 9, 35, 0
1, 184679, Note_on_c, 9, 54, 0
1, 184679, Note_on_c, 9, 69, 0
1, 184680, Note_on_c, 9, 54, 49
1, 184680, Note_on_c, 9, 82, 44
1, 184680, Note_on_c, 9, 35, 103
1, 184799, Note_on_c, 9, 54, 0
1, 184799, Note_on_c, 9, 82, 0
1, 184799, Note_on_c, 9, 35, 0
1, 184800, Note_on_c, 9, 40, 86
1, 184800, Note_on_c, 9, 54, 68
1, 184800, Note_on_c, 9, 53, 66
1, 184800, Note_on_c, 9, 69, 44
1, 184800, Note_on_c, 9, 42, 91
1, 184804, Note_on_c, 9, 42, 0
1, 184919, Note_on_c, 9, 40, 0
1, 184919, Note_on_c, 9, 54, 0
1, 184919, Note_on_c, 9, 53, 0
1, 184919, Note_on_c, 9, 69, 0
1, 184920, Note_on_c, 9, 54, 45
1, 184920, Note_on_c, 9, 82, 44
1, 185039, Note_on_c, 9, 54, 0
1, 185039, Note_on_c, 9, 82, 0
1, 185040, Note_on_c, 9, 54, 68
1, 185040, Note_on_c, 9, 69, 44
1, 185040, Note_on_c, 9, 42, 43
1, 185040, Note_on_c, 9, 35, 97
1, 185044, Note_on_c, 9, 42, 0
1, 185159, Note_on_c, 9, 54, 0
1, 185159, Note_on_c, 9, 69, 0
1, 185160, Note_on_c, 9, 54, 44
1, 185160, Note_on_c, 9, 82, 44
1, 185279, Note_on_c, 9, 35, 0
1, 185279, Note_on_c, 9, 54, 0
1, 185279, Note_on_c, 9, 82, 0
1, 185280, Note_on_c, 9, 40, 86
1, 185280, Note_on_c, 9, 54, 68
1, 185280, Note_on_c, 9, 53, 66
1, 185280, Note_on_c, 9, 69, 44
1, 185280, Note_on_c, 9, 42, 95
1, 185280, Note_on_c, 9, 35, 109
1, 185284, Note_on_c, 9, 42, 0
1, 185399, Note_on_c, 9, 40, 0
1, 185399, Note_on_c, 9, 54, 0
1, 185399, Note_on_c, 9, 53, 0
1, 185399, Note_on_c, 9, 69, 0
1, 185400, Note_on_c, 9, 54, 48
1, 185400, Note_on_c, 9, 82, 44
1, 185519, Note_on_c, 9, 54, 0
1, 185519, Note_on_c, 9, 82, 0
1, 185520, Note_on_c, 9, 54, 68
1, 185520, Note_on_c, 9, 69, 44
1, 185520, Note_on_c, 9, 42, 38
1, 185524, Note_on_c, 9, 42, 0
1, 185639, Note_on_c, 9, 35, 0
1, 185639, Note_on_c, 9, 54, 0
1, 185639, Note_on_c, 9, 69, 0
1, 185640, Note_on_c, 9, 54, 47
1, 185640, Note_on_c, 9, 82, 44
1, 185640, Note_on_c, 9, 35, 111
1, 185759, Note_on_c, 9, 54, 0
1, 185759, Note_on_c, 9, 82, 0
1, 185759, Note_on_c, 9, 35, 0
1, 185760, Note_on_c, 9, 40, 86
1, 185760, Note_on_c, 9, 54, 68
1, 185760, Note_on_c, 9, 53, 66
1, 185760, Note_on_c, 9, 69, 44
1, 185760, Note_on_c, 9, 42, 92
1, 185764, Note_on_c, 9, 42, 0
1, 185879, Note_on_c, 9, 40, 0
1, 185879, Note_on_c, 9, 54, 0
1, 185879, Note_on_c, 9, 53, 0
1, 185879, Note_on_c, 9, 69, 0
1, 185880, Note_on_c, 9, 54, 46
1, 185880, Note_on_c, 9, 82, 44
1, 185999, Note_on_c, 9, 54, 0
1, 185999, Note_on_c, 9, 82, 0
1, 186000, Note_on_c, 9, 54, 68
1, 186000, Note_on_c, 9, 69, 44
1, 186000, Note_on_c, 9, 42, 47
1, 186000, Note_on_c, 9, 35, 101
1, 186004, Note_on_c, 9, 42, 0
1, 186119, Note_on_c, 9, 54, 0
1, 186119, Note_on_c, 9, 69, 0
1, 186120, Note_on_c, 9, 54, 51
1, 186120, Note_on_c, 9, 82, 44
1, 186239, Note_on_c, 9, 35, 0
1, 186239, Note_on_c, 9, 54, 0
1, 186239, Note_on_c, 9, 82, 0
1, 186240, Note_on_c, 9, 40, 86
1, 186240, Note_on_c, 9, 54, 68
1, 186240, Note_on_c, 9, 53, 66
1, 186240, Note_on_c, 9, 69, 44
1, 186240, Note_on_c, 9, 42, 86
1, 186240, Note_on_c, 9, 35, 109
1, 186244, Note_on_c, 9, 42, 0
1, 186359, Note_on_c, 9, 40, 0
1, 186359, Note_on_c, 9, 54, 0
1, 186359, Note_on_c, 9, 53, 0
1, 186359, Note_on_c, 9, 69, 0
1, 186360, Note_on_c, 9, 54, 41
1, 186360, Note_on_c, 9, 82, 44
1, 186479, Note_on_c, 9, 54, 0
1, 186479, Note_on_c, 9, 82, 0
1, 186480, Note_on_c, 9, 54, 68
1, 186480, Note_on_c, 9, 69, 44
1, 186480, Note_on_c, 9, 42, 36
1, 186484, Note_on_c, 9, 42, 0
1, 186599, Note_on_c, 9, 35, 0
1, 186599, Note_on_c, 9, 54, 0
1, 186599, Note_on_c, 9, 69, 0
1, 186600, Note_on_c, 9, 54, 49
1, 186600, Note_on_c, 9, 82, 44
1, 186600, Note_on_c, 9, 35, 103
1, 186719, Note_on_c, 9, 54, 0
1, 186719, Note_on_c, 9, 82, 0
1, 186719, Note_on_c, 9, 35, 0
1, 186720, Note_on_c, 9, 40, 86
1, 186720, Note_on_c, 9, 54, 68
1, 186720, Note_on_c, 9, 53, 66
1, 186720, Note_on_c, 9, 69, 44
1, 186720, Note_on_c, 9, 42, 91
1, 186724, Note_on_c, 9, 42, 0
1, 186839, Note_on_c, 9, 40, 0
1, 186839, Note_on_c, 9, 54, 0
1, 186839, Note_on_c, 9, 53, 0
1, 186839, Note_on_c, 9, 69, 0
1, 186840, Note_on_c, 9, 54, 45
1, 186840, Note_on_c, 9, 82, 44
1, 186959, Note_on_c, 9, 54, 0
1, 186959, Note_on_c, 9, 82, 0
1, 186960, Note_on_c, 9, 54, 68
1, 186960, Note_on_c, 9, 69, 44
1, 186960, Note_on_c, 9, 42, 43
1, 186960, Note_on_c, 9, 35, 97
1, 186964, Note_on_c, 9, 42, 0
1, 187079, Note_on_c, 9, 54, 0
1, 187079, Note_on_c, 9, 69, 0
1, 187080, Note_on_c, 9, 54, 44
1, 187080, Note_on_c, 9, 82, 44
1, 187199, Note_on_c, 9, 35, 0
1, 187199, Note_on_c, 9, 54, 0
1, 187199, Note_on_c, 9, 82, 0
1, 187200, Note_on_c, 9, 40, 86
1, 187200, Note_on_c, 9, 54, 68
1, 187200, Note_on_c, 9, 53, 66
1, 187200, Note_on_c, 9, 69, 44
1, 187200, Note_on_c, 9, 42, 95
1, 187200, Note_on_c, 9, 35, 109
1, 187204, Note_on_c, 9, 42, 0
1, 187319, Note_on_c, 9, 40, 0
1, 187319, Note_on_c, 9, 54, 0
1, 187319, Note_on_c, 9, 53, 0
1, 187319, Note_on_c, 9, 69, 0
1, 187319, Note_on_c, 9, 35, 0
1, 187320, Note_on_c, 9, 54, 48
1, 187320, Note_on_c, 9, 82, 44
1, 187320, Note_on_c, 9, 35, 111
1, 187439, Note_on_c, 9, 54, 0
1, 187439, Note_on_c, 9, 82, 0
1, 187440, Note_on_c, 9, 54, 68
1, 187440, Note_on_c, 9, 69, 44
1, 187440, Note_on_c, 9, 42, 38
1, 187444, Note_on_c, 9, 42, 0
1, 187559, Note_on_c, 9, 54, 0
1, 187559, Note_on_c, 9, 69, 0
1, 187560, Note_on_c, 9, 54, 47
1, 187560, Note_on_c, 9, 82, 44
1, 187679, Note_on_c, 9, 35, 0
1, 187679, Note_on_c, 9, 54, 0
1, 187679, Note_on_c, 9, 82, 0
1, 187680, Note_on_c, 9, 40, 86
1, 187680, Note_on_c, 9, 54, 68
1, 187680, Note_on_c, 9, 53, 66
1, 187680, Note_on_c, 9, 69, 44
1, 187680, Note_on_c, 9, 42, 92
1, 187684, Note_on_c, 9, 42, 0
1, 187799, Note_on_c, 9, 40, 0
1, 187799, Note_on_c, 9, 54, 0
1, 187799, Note_on_c, 9, 53, 0
1, 187799, Note_on_c, 9, 69, 0
1, 187800, Note_on_c, 9, 54, 46
1, 187800, Note_on_c, 9, 82, 44
1, 187919, Note_on_c, 9, 54, 0
1, 187919, Note_on_c, 9, 82, 0
1, 187920, Note_on_c, 9, 54, 68
1, 187920, Note_on_c, 9, 69, 44
1, 187920, Note_on_c, 9, 42, 47
1, 187920, Note_on_c, 9, 35, 101
1, 187924, Note_on_c, 9, 42, 0
1, 188039, Note_on_c, 9, 54, 0
1, 188039, Note_on_c, 9, 69, 0
1, 188040, Note_on_c, 9, 54, 51
1, 188040, Note_on_c, 9, 82, 44
1, 188159, Note_on_c, 9, 35, 0
1, 188159, Note_on_c, 9, 54, 0
1, 188159, Note_on_c, 9, 82, 0
1, 188160, Note_on_c, 9, 40, 86
1, 188160, Note_on_c, 9, 54, 68
1, 188160, Note_on_c, 9, 53, 66
1, 188160, Note_on_c, 9, 69, 44
1, 188160, Note_on_c, 9, 42, 86
1, 188160, Note_on_c, 9, 49, 65
1, 188160, Note_on_c, 9, 35, 109
1, 188164, Note_on_c, 9, 42, 0
1, 188164, Note_on_c, 9, 49, 0
1, 188279, Note_on_c, 9, 40, 0
1, 188279, Note_on_c, 9, 54, 0
1, 188279, Note_on_c, 9, 53, 0
1, 188279, Note_on_c, 9, 69, 0
1, 188280, Note_on_c, 9, 54, 41
1, 188280, Note_on_c, 9, 82, 44
1, 188399, Note_on_c, 9, 54, 0
1, 188399, Note_on_c, 9, 82, 0
1, 188400, Note_on_c, 9, 54, 68
1, 188400, Note_on_c, 9, 69, 44
1, 188400, Note_on_c, 9, 42, 36
1, 188404, Note_on_c, 9, 42, 0
1, 188519, Note_on_c, 9, 35, 0
1, 188519, Note_on_c, 9, 54, 0
1, 188519, Note_on_c, 9, 69, 0
1, 188520, Note_on_c, 9, 54, 49
1, 188520, Note_on_c, 9, 82, 44
1, 188520, Note_on_c, 9, 35, 103
1, 188639, Note_on_c, 9, 54, 0
1, 188639, Note_on_c, 9, 82, 0
1, 188639, Note_on_c, 9, 35, 0
1, 188640, Note_on_c, 9, 40, 86
1, 188640, Note_on_c, 9, 54, 68
1, 188640, Note_on_c, 9, 53, 66
1, 188640, Note_on_c, 9, 69, 44
1, 188640, Note_on_c, 9, 42, 91
1, 188644, Note_on_c, 9, 42, 0
1, 188759, Note_on_c, 9, 40, 0
1, 188759, Note_on_c, 9, 54, 0
1, 188759, Note_on_c, 9, 53, 0
1, 188759, Note_on_c, 9, 69, 0
1, 188760, Note_on_c, 9, 54, 45
1, 188760, Note_on_c, 9, 82, 44
1, 188879, Note_on_c, 9, 54, 0
1, 188879, Note_on_c, 9, 82, 0
1, 188880, Note_on_c, 9, 54, 68
1, 188880, Note_on_c, 9, 69, 44
1, 188880, Note_on_c, 9, 42, 43
1, 188880, Note_on_c, 9, 35, 97
1, 188884, Note_on_c, 9, 42, 0
1, 188999, Note_on_c, 9, 54, 0
1, 188999, Note_on_c, 9, 69, 0
1, 189000, Note_on_c, 9, 54, 44
1, 189000, Note_on_c, 9, 82, 44
1, 189119, Note_on_c, 9, 35, 0
1, 189119, Note_on_c, 9, 54, 0
1, 189119, Note_on_c, 9, 82, 0
1, 189120, Note_on_c, 9, 40, 86
1, 189120, Note_on_c, 9, 54, 68
1, 189120, Note_on_c, 9, 53, 66
1, 189120, Note_on_c, 9, 69, 44
1, 189120, Note_on_c, 9, 42, 95
1, 189120, Note_on_c, 9, 35, 109
1, 189124, Note_on_c, 9, 42, 0
1, 189239, Note_on_c, 9, 40, 0
1, 189239, Note_on_c, 9, 54, 0
1, 189239, Note_on_c, 9, 53, 0
1, 189239, Note_on_c, 9, 69, 0
1, 189240, Note_on_c, 9, 54, 48
1, 189240, Note_on_c, 9, 82, 44
1, 189359, Note_on_c, 9, 54, 0
1, 189359, Note_on_c, 9, 82, 0
1, 189360, Note_on_c, 9, 54, 68
1, 189360, Note_on_c, 9, 69, 44
1, 189360, Note_on_c, 9, 42, 38
1, 189364, Note_on_c, 9, 42, 0
1, 189479, Note_on_c, 9, 35, 0
1, 189479, Note_on_c, 9, 54, 0
1, 189479, Note_on_c, 9, 69, 0
1, 189480, Note_on_c, 9, 54, 47
1, 189480, Note_on_c, 9, 82, 44
1, 189480, Note_on_c, 9, 35, 111
1, 189599, Note_on_c, 9, 54, 0
1, 189599, Note_on_c, 9, 82, 0
1, 189599, Note_on_c, 9, 35, 0
1, 189600, Note_on_c, 9, 40, 86
1, 189600, Note_on_c, 9, 54, 68
1, 189600, Note_on_c, 9, 53, 66
1, 189600, Note_on_c, 9, 69, 44
1, 189600, Note_on_c, 9, 42, 92
1, 189604, Note_on_c, 9, 42, 0
1, 189719, Note_on_c, 9, 40, 0
1, 189719, Note_on_c, 9, 54, 0
1, 189719, Note_on_c, 9, 53, 0
1, 189719, Note_on_c, 9, 69, 0
1, 189720, Note_on_c, 9, 54, 46
1, 189720, Note_on_c, 9, 82, 44
1, 189839, Note_on_c, 9, 54, 0
1, 189839, Note_on_c, 9, 82, 0
1, 189840, Note_on_c, 9, 54, 68
1, 189840, Note_on_c, 9, 69, 44
1, 189840, Note_on_c, 9, 42, 47
1, 189840, Note_on_c, 9, 35, 101
1, 189844, Note_on_c, 9, 42, 0
1, 189959, Note_on_c, 9, 54, 0
1, 189959, Note_on_c, 9, 69, 0
1, 189960, Note_on_c, 9, 54, 51
1, 189960, Note_on_c, 9, 82, 44
1, 190079, Note_on_c, 9, 35, 0
1, 190079, Note_on_c, 9, 54, 0
1, 190079, Note_on_c, 9, 82, 0
1, 190080, Note_on_c, 9, 40, 86
1, 190080, Note_on_c, 9, 54, 68
1, 190080, Note_on_c, 9, 53, 66
1, 190080, Note_on_c, 9, 69, 44
1, 190080, Note_on_c, 9, 42, 86
1, 190080, Note_on_c, 9, 35, 109
1, 190084, Note_on_c, 9, 42, 0
1, 190199, Note_on_c, 9, 40, 0
1, 190199, Note_on_c, 9, 54, 0
1, 190199, Note_on_c, 9, 53, 0
1, 190199, Note_on_c, 9, 69, 0
1, 190200, Note_on_c, 9, 54, 41
1, 190200, Note_on_c, 9, 82, 44
1, 190319, Note_on_c, 9, 54, 0
1, 190319, Note_on_c, 9, 82, 0
1, 190320, Note_on_c, 9, 54, 68
1, 190320, Note_on_c, 9, 69, 44
1, 190320, Note_on_c, 9, 42, 36
1, 190324, Note_on_c, 9, 42, 0
1, 190439, Note_on_c, 9, 35, 0
1, 190439, Note_on_c, 9, 54, 0
1, 190439, Note_on_c, 9, 69, 0
1, 190440, Note_on_c, 9, 54, 49
1, 190440, Note_on_c, 9, 82, 44
1, 190440, Note_on_c, 9, 35, 103
1, 190559, Note_on_c, 9, 54, 0
1, 190559, Note_on_c, 9, 82, 0
1, 190559, Note_on_c, 9, 35, 0
1, 190560, Note_on_c, 9, 40, 86
1, 190560, Note_on_c, 9, 54, 68
1, 190560, Note_on_c, 9, 53, 66
1, 190560, Note_on_c, 9, 69, 44
1, 190560, Note_on_c, 9, 42, 91
1, 190564, Note_on_c, 9, 42, 0
1, 190679, Note_on_c, 9, 40, 0
1, 190679, Note_on_c, 9, 54, 0
1, 190679, Note_on_c, 9, 53, 0
1, 190679, Note_on_c, 9, 69, 0
1, 190680, Note_on_c, 9, 54, 45
1, 190680, Note_on_c, 9, 82, 44
1, 190799, Note_on_c, 9, 54, 0
1, 190799, Note_on_c, 9, 82, 0
1, 190800, Note_on_c, 9, 54, 68
1, 190800, Note_on_c, 9, 69, 44
1, 190800, Note_on_c, 9, 42, 43
1, 190800, Note_on_c, 9, 35, 97
1, 190804, Note_on_c, 9, 42, 0
1, 190919, Note_on_c, 9, 54, 0
1, 190919, Note_on_c, 9, 69, 0
1, 190920, Note_on_c, 9, 54, 44
1, 190920, Note_on_c, 9, 82, 44
1, 191039, Note_on_c, 9, 35, 0
1, 191039, Note_on_c, 9, 54, 0
1, 191039, Note_on_c, 9, 82, 0
1, 191040, Note_on_c, 9, 40, 86
1, 191040, Note_on_c, 9, 54, 68
1, 191040, Note_on_c, 9, 53, 66
1, 191040, Note_on_c, 9, 69, 44
1, 191040, Note_on_c, 9, 42, 95
1, 191040, Note_on_c, 9, 35, 109
1, 191044, Note_on_c, 9, 42, 0
1, 191159, Note_on_c, 9, 40, 0
1, 191159, Note_on_c, 9, 54, 0
1, 191159, Note_on_c, 9, 53, 0
1, 191159, Note_on_c, 9, 69, 0
1, 191160, Note_on_c, 9, 54, 48
1, 191160, Note_on_c, 9, 82, 44
1, 191279, Note_on_c, 9, 54, 0
1, 191279, Note_on_c, 9, 82, 0
1, 191280, Note_on_c, 9, 54, 68
1, 191280, Note_on_c, 9, 69, 44
1, 191280, Note_on_c, 9, 42, 38
1, 191284, Note_on_c, 9, 42, 0
1, 191399, Note_on_c, 9, 35, 0
1, 191399, Note_on_c, 9, 54, 0
1, 191399, Note_on_c, 9, 69, 0
1, 191400, Note_on_c, 9, 54, 47
1, 191400, Note_on_c, 9, 82, 44
1, 191400, Note_on_c, 9, 35, 111
1, 191519, Note_on_c, 9, 54, 0
1, 191519, Note_on_c, 9, 82, 0
1, 191519, Note_on_c, 9, 35, 0
1, 191520, Note_on_c, 9, 40, 86
1, 191520, Note_on_c, 9, 54, 68
1, 191520, Note_on_c, 9, 53, 66
1, 191520, Note_on_c, 9, 69, 44
1, 191520, Note_on_c, 9, 42, 92
1, 191524, Note_on_c, 9, 42, 0
1, 191639, Note_on_c, 9, 40, 0
1, 191639, Note_on_c, 9, 54, 0
1, 191639, Note_on_c, 9, 53, 0
1, 191639, Note_on_c, 9, 69, 0
1, 191640, Note_on_c, 9, 54, 46
1, 191640, Note_on_c, 9, 82, 44
1, 191759, Note_on_c, 9, 54, 0
1, 191759, Note_on_c, 9, 82, 0
1, 191760, Note_on_c, 9, 54, 68
1, 191760, Note_on_c, 9, 69, 44
1, 191760, Note_on_c, 9, 42, 47
1, 191760, Note_on_c, 9, 35, 101
1, 191764, Note_on_c, 9, 42, 0
1, 191879, Note_on_c, 9, 54, 0
1, 191879, Note_on_c, 9, 69, 0
1, 191880, Note_on_c, 9, 54, 51
1, 191880, Note_on_c, 9, 82, 44
1, 191999, Note_on_c, 9, 35, 0
1, 191999, Note_on_c, 9, 54, 0
1, 191999, Note_on_c, 9, 82, 0
1, 192000, Note_on_c, 9, 40, 86
1, 192000, Note_on_c, 9, 54, 68
1, 192000, Note_on_c, 9, 53, 66
1, 192000, Note_on_c, 9, 69, 44
1, 192000, Note_on_c, 9, 42, 86
1, 192000, Note_on_c, 9, 49, 65
1, 192000, Note_on_c, 9, 35, 109
1, 192004, Note_on_c, 9, 42, 0
1, 192004, Note_on_c, 9, 49, 0
1, 192119, Note_on_c, 9, 40, 0
1, 192119, Note_on_c, 9, 54, 0
1, 192119, Note_on_c, 9, 53, 0
1, 192119, Note_on_c, 9, 69, 0
1, 192120, Note_on_c, 9, 54, 41
1, 192120, Note_on_c, 9, 82, 44
1, 192239, Note_on_c, 9, 54, 0
1, 192239, Note_on_c, 9, 82, 0
1, 192240, Note_on_c, 9, 54, 68
1, 192240, Note_on_c, 9, 69, 44
1, 192240, Note_on_c, 9, 42, 36
1, 192244, Note_on_c, 9, 42, 0
1, 192359, Note_on_c, 9, 35, 0
1, 192359, Note_on_c, 9, 54, 0
1, 192359, Note_on_c, 9, 69, 0
1, 192360, Note_on_c, 9, 54, 49
1, 192360, Note_on_c, 9, 82, 44
1, 192360, Note_on_c, 9, 35, 103
1, 192479, Note_on_c, 9, 54, 0
1, 192479, Note_on_c, 9, 82, 0
1, 192479, Note_on_c, 9, 35, 0
1, 192480, Note_on_c, 9, 40, 86
1, 192480, Note_on_c, 9, 54, 68
1, 192480, Note_on_c, 9, 53, 66
1, 192480, Note_on_c, 9, 69, 44
1, 192480, Note_on_c, 9, 42, 91
1, 192484, Note_on_c, 9, 42, 0
1, 192599, Note_on_c, 9, 40, 0
1, 192599, Note_on_c, 9, 54, 0
1, 192599, Note_on_c, 9, 53, 0
1, 192599, Note_on_c, 9, 69, 0
1, 192600, Note_on_c, 9, 54, 45
1, 192600, Note_on_c, 9, 82, 44
1, 192719, Note_on_c, 9, 54, 0
1, 192719, Note_on_c, 9, 82, 0
1, 192720, Note_on_c, 9, 54, 68
1, 192720, Note_on_c, 9, 69, 44
1, 192720, Note_on_c, 9, 42, 43
1, 192720, Note_on_c, 9, 35, 97
1, 192724, Note_on_c, 9, 42, 0
1, 192839, Note_on_c, 9, 54, 0
1, 192839, Note_on_c, 9, 69, 0
1, 192840, Note_on_c, 9, 54, 44
1, 192840, Note_on_c, 9, 82, 44
1, 192959, Note_on_c, 9, 35, 0
1, 192959, Note_on_c, 9, 54, 0
1, 192959, Note_on_c, 9, 82, 0
1, 192960, Note_on_c, 9, 40, 86
1, 192960, Note_on_c, 9, 54, 68
1, 192960, Note_on_c, 9, 53, 66
1, 192960, Note_on_c, 9, 69, 44
1, 192960, Note_on_c, 9, 42, 95
1, 192960, Note_on_c, 9, 35, 109
1, 192964, Note_on_c, 9, 42, 0
1, 193079, Note_on_c, 9, 40, 0
1, 193079, Note_on_c, 9, 54, 0
1, 193079, Note_on_c, 9, 53, 0
1, 193079, Note_on_c, 9, 69, 0
1, 193080, Note_on_c, 9, 54, 48
1, 193080, Note_on_c, 9, 82, 44
1, 193199, Note_on_c, 9, 54, 0
1, 193199, Note_on_c, 9, 82, 0
1, 193200, Note_on_c, 9, 54, 68
1, 193200, Note_on_c, 9, 69, 44
1, 193200, Note_on_c, 9, 42, 38
1, 193204, Note_on_c, 9, 42, 0
1, 193319, Note_on_c, 9, 35, 0
1, 193319, Note_on_c, 9, 54, 0
1, 193319, Note_on_c, 9, 69, 0
1, 193320, Note_on_c, 9, 54, 47
1, 193320, Note_on_c, 9, 82, 44
1, 193320, Note_on_c, 9, 35, 111
1, 193439, Note_on_c, 9, 54, 0
1, 193439, Note_on_c, 9, 82, 0
1, 193439, Note_on_c, 9, 35, 0
1, 193440, Note_on_c, 9, 40, 86
1, 193440, Note_on_c, 9, 54, 68
1, 193440, Note_on_c, 9, 53, 66
1, 193440, Note_on_c, 9, 69, 44
1, 193440, Note_on_c, 9, 42, 92
1, 193444, Note_on_c, 9, 42, 0
1, 193559, Note_on_c, 9, 40, 0
1, 193559, Note_on_c, 9, 54, 0
1, 193559, Note_on_c, 9, 53, 0
1, 193559, Note_on_c, 9, 69, 0
1, 193560, Note_on_c, 9, 54, 46
1, 193560, Note_on_c, 9, 82, 44
1, 193679, Note_on_c, 9, 54, 0
1, 193679, Note_on_c, 9, 82, 0
1, 193680, Note_on_c, 9, 54, 68
1, 193680, Note_on_c, 9, 69, 44
1, 193680, Note_on_c, 9, 42, 47
1, 193680, Note_on_c, 9, 35, 101
1, 193684, Note_on_c, 9, 42, 0
1, 193799, Note_on_c, 9, 54, 0
1, 193799, Note_on_c, 9, 69, 0
1, 193800, Note_on_c, 9, 54, 51
1, 193800, Note_on_c, 9, 82, 44
1, 193919, Note_on_c, 9, 35, 0
1, 193919, Note_on_c, 9, 54, 0
1, 193919, Note_on_c, 9, 82, 0
1, 193920, Note_on_c, 9, 40, 86
1, 193920, Note_on_c, 9, 54, 68
1, 193920, Note_on_c, 9, 53, 66
1, 193920, Note_on_c, 9, 69, 44
1, 193920, Note_on_c, 9, 42, 86
1, 193920, Note_on_c, 9, 35, 109
1, 193924, Note_on_c, 9, 42, 0
1, 194039, Note_on_c, 9, 40, 0
1, 194039, Note_on_c, 9, 54, 0
1, 194039, Note_on_c, 9, 53, 0
1, 194039, Note_on_c, 9, 69, 0
1, 194040, Note_on_c, 9, 54, 41
1, 194040, Note_on_c, 9, 82, 44
1, 194159, Note_on_c, 9, 54, 0
1, 194159, Note_on_c, 9, 82, 0
1, 194160, Note_on_c, 9, 54, 68
1, 194160, Note_on_c, 9, 69, 44
1, 194160, Note_on_c, 9, 42, 36
1, 194164, Note_on_c, 9, 42, 0
1, 194279, Note_on_c, 9, 35, 0
1, 194279, Note_on_c, 9, 54, 0
1, 194279, Note_on_c, 9, 69, 0
1, 194280, Note_on_c, 9, 54, 49
1, 194280, Note_on_c, 9, 82, 44
1, 194280, Note_on_c, 9, 35, 103
1, 194399, Note_on_c, 9, 54, 0
1, 194399, Note_on_c, 9, 82, 0
1, 194399, Note_on_c, 9, 35, 0
1, 194400, Note_on_c, 9, 40, 86
1, 194400, Note_on_c, 9, 54, 68
1, 194400, Note_on_c, 9, 53, 66
1, 194400, Note_on_c, 9, 69, 44
1, 194400, Note_on_c, 9, 42, 91
1, 194404, Note_on_c, 9, 42, 0
1, 194519, Note_on_c, 9, 40, 0
1, 194519, Note_on_c, 9, 54, 0
1, 194519, Note_on_c, 9, 53, 0
1, 194519, Note_on_c, 9, 69, 0
1, 194520, Note_on_c, 9, 54, 45
1, 194520, Note_on_c, 9, 82, 44
1, 194639, Note_on_c, 9, 54, 0
1, 194639, Note_on_c, 9, 82, 0
1, 194640, Note_on_c, 9, 54, 68
1, 194640, Note_on_c, 9, 69, 44
1, 194640, Note_on_c, 9, 42, 43
1, 194640, Note_on_c, 9, 35, 97
1, 194644, Note_on_c, 9, 42, 0
1, 194759, Note_on_c, 9, 54, 0
1, 194759, Note_on_c, 9, 69, 0
1, 194760, Note_on_c, 9, 54, 44
1, 194760, Note_on_c, 9, 82, 44
1, 194879, Note_on_c, 9, 35, 0
1, 194879, Note_on_c, 9, 54, 0
1, 194879, Note_on_c, 9, 82, 0
1, 194880, Note_on_c, 9, 40, 86
1, 194880, Note_on_c, 9, 54, 68
1, 194880, Note_on_c, 9, 53, 66
1, 194880, Note_on_c, 9, 69, 44
1, 194880, Note_on_c, 9, 42, 95
1, 194880, Note_on_c, 9, 35, 109
1, 194884, Note_on_c, 9, 42, 0
1, 194999, Note_on_c, 9, 40, 0
1, 194999, Note_on_c, 9, 54, 0
1, 194999, Note_on_c, 9, 53, 0
1, 194999, Note_on_c, 9, 69, 0
1, 195000, Note_on_c, 9, 54, 48
1, 195000, Note_on_c, 9, 82, 44
1, 195119, Note_on_c, 9, 54, 0
1, 195119, Note_on_c, 9, 82, 0
1, 195120, Note_on_c, 9, 54, 68
1, 195120, Note_on_c, 9, 69, 44
1, 195120, Note_on_c, 9, 42, 38
1, 195124, Note_on_c, 9, 42, 0
1, 195239, Note_on_c, 9, 35, 0
1, 195239, Note_on_c, 9, 54, 0
1, 195239, Note_on_c, 9, 69, 0
1, 195240, Note_on_c, 9, 54, 47
1, 195240, Note_on_c, 9, 82, 44
1, 195240, Note_on_c, 9, 35, 111
1, 195359, Note_on_c, 9, 54, 0
1, 195359, Note_on_c, 9, 82, 0
1, 195359, Note_on_c, 9, 35, 0
1, 195360, Note_on_c, 9, 40, 86
1, 195360, Note_on_c, 9, 54, 68
1, 195360, Note_on_c, 9, 53, 66
1, 195360, Note_on_c, 9, 69, 44
1, 195360, Note_on_c, 9, 42, 92
1, 195364, Note_on_c, 9, 42, 0
1, 195479, Note_on_c, 9, 40, 0
1, 195479, Note_on_c, 9, 54, 0
1, 195479, Note_on_c, 9, 53, 0
1, 195479, Note_on_c, 9, 69, 0
1, 195480, Note_on_c, 9, 54, 46
1, 195480, Note_on_c, 9, 82, 44
1, 195599, Note_on_c, 9, 54, 0
1, 195599, Note_on_c, 9, 82, 0
1, 195600, Note_on_c, 9, 54, 68
1, 195600, Note_on_c, 9, 69, 44
1, 195600, Note_on_c, 9, 42, 47
1, 195600, Note_on_c, 9, 35, 101
1, 195604, Note_on_c, 9, 42, 0
1, 195719, Note_on_c, 9, 54, 0
1, 195719, Note_on_c, 9, 69, 0
1, 195720, Note_on_c, 9, 54, 51
1, 195720, Note_on_c, 9, 82, 44
1, 195839, Note_on_c, 9, 35, 0
1, 195839, Note_on_c, 9, 54, 0
1, 195839, Note_on_c, 9, 82, 0
1, 195840, Note_on_c, 9, 40, 86
1, 195840, Note_on_c, 9, 54, 68
1, 195840, Note_on_c, 9, 53, 66
1, 195840, Note_on_c, 9, 69, 44
1, 195840, Note_on_c, 9, 42, 86
1, 195840, Note_on_c, 9, 49, 65
1, 195840, Note_on_c, 9, 35, 109
1, 195844, Note_on_c, 9, 42, 0
1, 195844, Note_on_c, 9, 49, 0
1, 195959, Note_on_c, 9, 40, 0
1, 195959, Note_on_c, 9, 54, 0
1, 195959, Note_on_c, 9, 53, 0
1, 195959, Note_on_c, 9, 69, 0
1, 195960, Note_on_c, 9, 54, 41
1, 195960, Note_on_c, 9, 82, 44
1, 196079, Note_on_c, 9, 54, 0
1, 196079, Note_on_c, 9, 82, 0
1, 196080, Note_on_c, 9, 54, 68
1, 196080, Note_on_c, 9, 69, 44
1, 196080, Note_on_c, 9, 42, 36
1, 196084, Note_on_c, 9, 42, 0
1, 196199, Note_on_c, 9, 35, 0
1, 196199, Note_on_c, 9, 54, 0
1, 196199, Note_on_c, 9, 69, 0
1, 196200, Note_on_c, 9, 54, 49
1, 196200, Note_on_c, 9, 82, 44
1, 196200, Note_on_c, 9, 35, 103
1, 196319, Note_on_c, 9, 54, 0
1, 196319, Note_on_c, 9, 82, 0
1, 196319, Note_on_c, 9, 35, 0
1, 196320, Note_on_c, 9, 40, 86
1, 196320, Note_on_c, 9, 54, 68
1, 196320, Note_on_c, 9, 53, 66
1, 196320, Note_on_c, 9, 69, 44
1, 196320, Note_on_c, 9, 42, 91
1, 196324, Note_on_c, 9, 42, 0
1, 196439, Note_on_c, 9, 40, 0
1, 196439, Note_on_c, 9, 54, 0
1, 196439, Note_on_c, 9, 53, 0
1, 196439, Note_on_c, 9, 69, 0
1, 196440, Note_on_c, 9, 54, 45
1, 196440, Note_on_c, 9, 82, 44
1, 196559, Note_on_c, 9, 54, 0
1, 196559, Note_on_c, 9, 82, 0
1, 196560, Note_on_c, 9, 54, 68
1, 196560, Note_on_c, 9, 69, 44
1, 196560, Note_on_c, 9, 42, 43
1, 196560, Note_on_c, 9, 35, 97
1, 196564, Note_on_c, 9, 42, 0
1, 196679, Note_on_c, 9, 54, 0
1, 196679, Note_on_c, 9, 69, 0
1, 196680, Note_on_c, 9, 54, 44
1, 196680, Note_on_c, 9, 82, 44
1, 196799, Note_on_c, 9, 35, 0
1, 196799, Note_on_c, 9, 54, 0
1, 196799, Note_on_c, 9, 82, 0
1, 196800, Note_on_c, 9, 40, 86
1, 196800, Note_on_c, 9, 54, 68
1, 196800, Note_on_c, 9, 53, 66
1, 196800, Note_on_c, 9, 69, 44
1, 196800, Note_on_c, 9, 42, 95
1, 196800, Note_on_c, 9, 35, 109
1, 196804, Note_on_c, 9, 42, 0
1, 196919, Note_on_c, 9, 40, 0
1, 196919, Note_on_c, 9, 54, 0
1, 196919, Note_on_c, 9, 53, 0
1, 196919, Note_on_c, 9, 69, 0
1, 196920, Note_on_c, 9, 54, 48
1, 196920, Note_on_c, 9, 82, 44
1, 197039, Note_on_c, 9, 54, 0
1, 197039, Note_on_c, 9, 82, 0
1, 197040, Note_on_c, 9, 54, 68
1, 197040, Note_on_c, 9, 69, 44
1, 197040, Note_on_c, 9, 42, 38
1, 197044, Note_on_c, 9, 42, 0
1, 197159, Note_on_c, 9, 35, 0
1, 197159, Note_on_c, 9, 54, 0
1, 197159, Note_on_c, 9, 69, 0
1, 197160, Note_on_c, 9, 54, 47
1, 197160, Note_on_c, 9, 82, 44
1, 197160, Note_on_c, 9, 35, 111
1, 197279, Note_on_c, 9, 54, 0
1, 197279, Note_on_c, 9, 82, 0
1, 197279, Note_on_c, 9, 35, 0
1, 197280, Note_on_c, 9, 40, 86
1, 197280, Note_on_c, 9, 54, 68
1, 197280, Note_on_c, 9, 53, 66
1, 197280, Note_on_c, 9, 69, 44
1, 197280, Note_on_c, 9, 42, 92
1, 197284, Note_on_c, 9, 42, 0
1, 197399, Note_on_c, 9, 40, 0
1, 197399, Note_on_c, 9, 54, 0
1, 197399, Note_on_c, 9, 53, 0
1, 197399, Note_on_c, 9, 69, 0
1, 197400, Note_on_c, 9, 54, 46
1, 197400, Note_on_c, 9, 82, 44
1, 197519, Note_on_c, 9, 54, 0
1, 197519, Note_on_c, 9, 82, 0
1, 197520, Note_on_c, 9, 54, 68
1, 197520, Note_on_c, 9, 69, 44
1, 197520, Note_on_c, 9, 42, 47
1, 197520, Note_on_c, 9, 35, 101
1, 197524, Note_on_c, 9, 42, 0
1, 197639, Note_on_c, 9, 54, 0
1, 197639, Note_on_c, 9, 69, 0
1, 197640, Note_on_c, 9, 54, 51
1, 197640, Note_on_c, 9, 82, 44
1, 197759, Note_on_c, 9, 35, 0
1, 197759, Note_on_c, 9, 54, 0
1, 197759, Note_on_c, 9, 82, 0
1, 197760, Note_on_c, 9, 40, 86
1, 197760, Note_on_c, 9, 54, 68
1, 197760, Note_on_c, 9, 53, 66
1, 197760, Note_on_c, 9, 69, 44
1, 197760, Note_on_c, 9, 42, 86
1, 197760, Note_on_c, 9, 35, 109
1, 197764, Note_on_c, 9, 42, 0
1, 197879, Note_on_c, 9, 40, 0
1, 197879, Note_on_c, 9, 54, 0
1, 197879, Note_on_c, 9, 53, 0
1, 197879, Note_on_c, 9, 69, 0
1, 197880, Note_on_c, 9, 54, 41
1, 197880, Note_on_c, 9, 82, 44
1, 197999, Note_on_c, 9, 54, 0
1, 197999, Note_on_c, 9, 82, 0
1, 198000, Note_on_c, 9, 54, 68
1, 198000, Note_on_c, 9, 69, 44
1, 198000, Note_on_c, 9, 42, 36
1, 198004, Note_on_c, 9, 42, 0
1, 198119, Note_on_c, 9, 35, 0
1, 198119, Note_on_c, 9, 54, 0
1, 198119, Note_on_c, 9, 69, 0
1, 198120, Note_on_c, 9, 54, 49
1, 198120, Note_on_c, 9, 82, 44
1, 198120, Note_on_c, 9, 35, 103
1, 198239, Note_on_c, 9, 54, 0
1, 198239, Note_on_c, 9, 82, 0
1, 198239, Note_on_c, 9, 35, 0
1, 198240, Note_on_c, 9, 40, 86
1, 198240, Note_on_c, 9, 54, 68
1, 198240, Note_on_c, 9, 53, 66
1, 198240, Note_on_c, 9, 69, 44
1, 198240, Note_on_c, 9, 42, 91
1, 198244, Note_on_c, 9, 42, 0
1, 198359, Note_on_c, 9, 40, 0
1, 198359, Note_on_c, 9, 54, 0
1, 198359, Note_on_c, 9, 53, 0
1, 198359, Note_on_c, 9, 69, 0
1, 198360, Note_on_c, 9, 54, 45
1, 198360, Note_on_c, 9, 82, 44
1, 198479, Note_on_c, 9, 54, 0
1, 198479, Note_on_c, 9, 82, 0
1, 198480, Note_on_c, 9, 54, 68
1, 198480, Note_on_c, 9, 69, 44
1, 198480, Note_on_c, 9, 42, 43
1, 198480, Note_on_c, 9, 35, 97
1, 198484, Note_on_c, 9, 42, 0
1, 198599, Note_on_c, 9, 54, 0
1, 198599, Note_on_c, 9, 69, 0
1, 198600, Note_on_c, 9, 54, 44
1, 198600, Note_on_c, 9, 82, 44
1, 198719, Note_on_c, 9, 35, 0
1, 198719, Note_on_c, 9, 54, 0
1, 198719, Note_on_c, 9, 82, 0
1, 198720, Note_on_c, 9, 40, 86
1, 198720, Note_on_c, 9, 54, 68
1, 198720, Note_on_c, 9, 53, 66
1, 198720, Note_on_c, 9, 69, 44
1, 198720, Note_on_c, 9, 42, 95
1, 198720, Note_on_c, 9, 35, 109
1, 198724, Note_on_c, 9, 42, 0
1, 198839, Note_on_c, 9, 40, 0
1, 198839, Note_on_c, 9, 54, 0
1, 198839, Note_on_c, 9, 53, 0
1, 198839, Note_on_c, 9, 69, 0
1, 198840, Note_on_c, 9, 54, 48
1, 198840, Note_on_c, 9, 82, 44
1, 198959, Note_on_c, 9, 54, 0
1, 198959, Note_on_c, 9, 82, 0
1, 198960, Note_on_c, 9, 54, 68
1, 198960, Note_on_c, 9, 69, 44
1, 198960, Note_on_c, 9, 42, 38
1, 198964, Note_on_c, 9, 42, 0
1, 199079, Note_on_c, 9, 35, 0
1, 199079, Note_on_c, 9, 54, 0
1, 199079, Note_on_c, 9, 69, 0
1, 199080, Note_on_c, 9, 54, 47
1, 199080, Note_on_c, 9, 82, 44
1, 199080, Note_on_c, 9, 35, 111
1, 199199, Note_on_c, 9, 54, 0
1, 199199, Note_on_c, 9, 82, 0
1, 199199, Note_on_c, 9, 35, 0
1, 199200, Note_on_c, 9, 40, 86
1, 199200, Note_on_c, 9, 54, 68
1, 199200, Note_on_c, 9, 53, 66
1, 199200, Note_on_c, 9, 69, 44
1, 199200, Note_on_c, 9, 42, 92
1, 199204, Note_on_c, 9, 42, 0
1, 199319, Note_on_c, 9, 40, 0
1, 199319, Note_on_c, 9, 54, 0
1, 199319, Note_on_c, 9, 53, 0
1, 199319, Note_on_c, 9, 69, 0
1, 199320, Note_on_c, 9, 54, 46
1, 199320, Note_on_c, 9, 82, 44
1, 199439, Note_on_c, 9, 54, 0
1, 199439, Note_on_c, 9, 82, 0
1, 199440, Note_on_c, 9, 54, 68
1, 199440, Note_on_c, 9, 69, 44
1, 199440, Note_on_c, 9, 42, 47
1, 199440, Note_on_c, 9, 35, 101
1, 199444, Note_on_c, 9, 42, 0
1, 199559, Note_on_c, 9, 54, 0
1, 199559, Note_on_c, 9, 69, 0
1, 199560, Note_on_c, 9, 54, 51
1, 199560, Note_on_c, 9, 82, 44
1, 199679, Note_on_c, 9, 35, 0
1, 199679, Note_on_c, 9, 54, 0
1, 199679, Note_on_c, 9, 82, 0
1, 199680, Note_on_c, 9, 40, 86
1, 199680, Note_on_c, 9, 54, 68
1, 199680, Note_on_c, 9, 53, 66
1, 199680, Note_on_c, 9, 69, 44
1, 199680, Note_on_c, 9, 42, 86
1, 199680, Note_on_c, 9, 49, 65
1, 199680, Note_on_c, 9, 35, 109
1, 199684, Note_on_c, 9, 42, 0
1, 199684, Note_on_c, 9, 49, 0
1, 199799, Note_on_c, 9, 40, 0
1, 199799, Note_on_c, 9, 54, 0
1, 199799, Note_on_c, 9, 53, 0
1, 199799, Note_on_c, 9, 69, 0
1, 199800, Note_on_c, 9, 54, 41
1, 199800, Note_on_c, 9, 82, 44
1, 199919, Note_on_c, 9, 54, 0
1, 199919, Note_on_c, 9, 82, 0
1, 199920, Note_on_c, 9, 54, 68
1, 199920, Note_on_c, 9, 69, 44
1, 199920, Note_on_c, 9, 42, 36
1, 199924, Note_on_c, 9, 42, 0
1, 200039, Note_on_c, 9, 35, 0
1, 200039, Note_on_c, 9, 54, 0
1, 200039, Note_on_c, 9, 69, 0
1, 200040, Note_on_c, 9, 54, 49
1, 200040, Note_on_c, 9, 82, 44
1, 200040, Note_on_c, 9, 35, 103
1, 200159, Note_on_c, 9, 54, 0
1, 200159, Note_on_c, 9, 82, 0
1, 200159, Note_on_c, 9, 35, 0
1, 200160, Note_on_c, 9, 40, 86
1, 200160, Note_on_c, 9, 54, 68
1, 200160, Note_on_c, 9, 53, 66
1, 200160, Note_on_c, 9, 69, 44
1, 200160, Note_on_c, 9, 42, 91
1, 200164, Note_on_c, 9, 42, 0
1, 200279, Note_on_c, 9, 40, 0
1, 200279, Note_on_c, 9, 54, 0
1, 200279, Note_on_c, 9, 53, 0
1, 200279, Note_on_c, 9, 69, 0
1, 200280, Note_on_c, 9, 54, 45
1, 200280, Note_on_c, 9, 82, 44
1, 200399, Note_on_c, 9, 54, 0
1, 200399, Note_on_c, 9, 82, 0
1, 200400, Note_on_c, 9, 54, 68
1, 200400, Note_on_c, 9, 69, 44
1, 200400, Note_on_c, 9, 42, 43
1, 200400, Note_on_c, 9, 35, 97
1, 200404, Note_on_c, 9, 42, 0
1, 200519, Note_on_c, 9, 54, 0
1, 200519, Note_on_c, 9, 69, 0
1, 200520, Note_on_c, 9, 54, 44
1, 200520, Note_on_c, 9, 82, 44
1, 200639, Note_on_c, 9, 35, 0
1, 200639, Note_on_c, 9, 54, 0
1, 200639, Note_on_c, 9, 82, 0
1, 200640, Note_on_c, 9, 40, 86
1, 200640, Note_on_c, 9, 54, 68
1, 200640, Note_on_c, 9, 53, 66
1, 200640, Note_on_c, 9, 69, 44
1, 200640, Note_on_c, 9, 42, 95
1, 200640, Note_on_c, 9, 35, 109
1, 200644, Note_on_c, 9, 42, 0
1, 200759, Note_on_c, 9, 40, 0
1, 200759, Note_on_c, 9, 54, 0
1, 200759, Note_on_c, 9, 53, 0
1, 200759, Note_on_c, 9, 69, 0
1, 200760, Note_on_c, 9, 54, 48
1, 200760, Note_on_c, 9, 82, 44
1, 200879, Note_on_c, 9, 54, 0
1, 200879, Note_on_c, 9, 82, 0
1, 200880, Note_on_c, 9, 54, 68
1, 200880, Note_on_c, 9, 69, 44
1, 200880, Note_on_c, 9, 42, 38
1, 200884, Note_on_c, 9, 42, 0
1, 200999, Note_on_c, 9, 35, 0
1, 200999, Note_on_c, 9, 54, 0
1, 200999, Note_on_c, 9, 69, 0
1, 201000, Note_on_c, 9, 54, 47
1, 201000, Note_on_c, 9, 82, 44
1, 201000, Note_on_c, 9, 35, 111
1, 201119, Note_on_c, 9, 54, 0
1, 201119, Note_on_c, 9, 82, 0
1, 201119, Note_on_c, 9, 35, 0
1, 201120, Note_on_c, 9, 40, 86
1, 201120, Note_on_c, 9, 54, 68
1, 201120, Note_on_c, 9, 53, 66
1, 201120, Note_on_c, 9, 69, 44
1, 201120, Note_on_c, 9, 42, 92
1, 201124, Note_on_c, 9, 42, 0
1, 201239, Note_on_c, 9, 40, 0
1, 201239, Note_on_c, 9, 54, 0
1, 201239, Note_on_c, 9, 53, 0
1, 201239, Note_on_c, 9, 69, 0
1, 201240, Note_on_c, 9, 54, 46
1, 201240, Note_on_c, 9, 82, 44
1, 201359, Note_on_c, 9, 54, 0
1, 201359, Note_on_c, 9, 82, 0
1, 201360, Note_on_c, 9, 54, 68
1, 201360, Note_on_c, 9, 69, 44
1, 201360, Note_on_c, 9, 42, 47
1, 201360, Note_on_c, 9, 35, 101
1, 201364, Note_on_c, 9, 42, 0
1, 201479, Note_on_c, 9, 54, 0
1, 201479, Note_on_c, 9, 69, 0
1, 201480, Note_on_c, 9, 54, 51
1, 201480, Note_on_c, 9, 82, 44
1, 201599, Note_on_c, 9, 35, 0
1, 201599, Note_on_c, 9, 54, 0
1, 201599, Note_on_c, 9, 82, 0
1, 201600, Note_on_c, 9, 40, 86
1, 201600, Note_on_c, 9, 54, 68
1, 201600, Note_on_c, 9, 53, 66
1, 201600, Note_on_c, 9, 69, 44
1, 201600, Note_on_c, 9, 42, 86
1, 201600, Note_on_c, 9, 35, 109
1, 201604, Note_on_c, 9, 42, 0
1, 201719, Note_on_c, 9, 40, 0
1, 201719, Note_on_c, 9, 54, 0
1, 201719, Note_on_c, 9, 53, 0
1, 201719, Note_on_c, 9, 69, 0
1, 201720, Note_on_c, 9, 54, 41
1, 201720, Note_on_c, 9, 82, 44
1, 201839, Note_on_c, 9, 35, 0
1, 201839, Note_on_c, 9, 54, 0
1, 201839, Note_on_c, 9, 82, 0
1, 201840, Note_on_c, 9, 54, 68
1, 201840, Note_on_c, 9, 69, 44
1, 201840, Note_on_c, 9, 42, 36
1, 201840, Note_on_c, 9, 35, 103
1, 201844, Note_on_c, 9, 42, 0
1, 201959, Note_on_c, 9, 54, 0
1, 201959, Note_on_c, 9, 69, 0
1, 201959, Note_on_c, 9, 35, 0
1, 201960, Note_on_c, 9, 54, 49
1, 201960, Note_on_c, 9, 82, 44
1, 201960, Note_on_c, 9, 35, 103
1, 202079, Note_on_c, 9, 54, 0
1, 202079, Note_on_c, 9, 82, 0
1, 202079, Note_on_c, 9, 35, 0
1, 202080, Note_on_c, 9, 40, 86
1, 202080, Note_on_c, 9, 54, 68
1, 202080, Note_on_c, 9, 53, 66
1, 202080, Note_on_c, 9, 69, 44
1, 202080, Note_on_c, 9, 42, 91
1, 202084, Note_on_c, 9, 42, 0
1, 202199, Note_on_c, 9, 40, 0
1, 202199, Note_on_c, 9, 54, 0
1, 202199, Note_on_c, 9, 53, 0
1, 202199, Note_on_c, 9, 69, 0
1, 202200, Note_on_c, 9, 54, 45
1, 202200, Note_on_c, 9, 82, 44
1, 202319, Note_on_c, 9, 54, 0
1, 202319, Note_on_c, 9, 82, 0
1, 202320, Note_on_c, 9, 40, 86
1, 202320, Note_on_c, 9, 54, 68
1, 202320, Note_on_c, 9, 69, 44
1, 202320, Note_on_c, 9, 42, 43
1, 202320, Note_on_c, 9, 35, 97
1, 202324, Note_on_c, 9, 42, 0
1, 202439, Note_on_c, 9, 40, 0
1, 202439, Note_on_c, 9, 54, 0
1, 202439, Note_on_c, 9, 69, 0
1, 202440, Note_on_c, 9, 54, 44
1, 202440, Note_on_c, 9, 82, 44
1, 202559, Note_on_c, 9, 35, 0
1, 202559, Note_on_c, 9, 54, 0
1, 202559, Note_on_c, 9, 82, 0
1, 202560, Note_on_c, 9, 40, 86
1, 202560, Note_on_c, 9, 54, 68
1, 202560, Note_on_c, 9, 53, 66
1, 202560, Note_on_c, 9, 69, 44
1, 202560, Note_on_c, 9, 42, 95
1, 202560, Note_on_c, 9, 35, 109
1, 202564, Note_on_c, 9, 42, 0
1, 202679, Note_on_c, 9, 40, 0
1, 202679, Note_on_c, 9, 54, 0
1, 202679, Note_on_c, 9, 53, 0
1, 202679, Note_on_c, 9, 69, 0
1, 202680, Note_on_c, 9, 54, 48
1, 202680, Note_on_c, 9, 82, 44
1, 202799, Note_on_c, 9, 35, 0
1, 202799, Note_on_c, 9, 54, 0
1, 202799, Note_on_c, 9, 82, 0
1, 202800, Note_on_c, 9, 54, 68
1, 202800, Note_on_c, 9, 69, 44
1, 202800, Note_on_c, 9, 42, 38
1, 202800, Note_on_c, 9, 35, 111
1, 202804, Note_on_c, 9, 42, 0
1, 202919, Note_on_c, 9, 54, 0
1, 202919, Note_on_c, 9, 69, 0
1, 202919, Note_on_c, 9, 35, 0
1, 202920, Note_on_c, 9, 40, 86
1, 202920, Note_on_c, 9, 54, 47
1, 202920, Note_on_c, 9, 82, 44
1, 202920, Note_on_c, 9, 35, 111
1, 203039, Note_on_c, 9, 40, 0
1, 203039, Note_on_c, 9, 54, 0
1, 203039, Note_on_c, 9, 82, 0
1, 203039, Note_on_c, 9, 35, 0
1, 203040, Note_on_c, 9, 40, 86
1, 203040, Note_on_c, 9, 54, 68
1, 203040, Note_on_c, 9, 53, 66
1, 203040, Note_on_c, 9, 69, 44
1, 203040, Note_on_c, 9, 42, 92
1, 203044, Note_on_c, 9, 42, 0
1, 203159, Note_on_c, 9, 40, 0
1, 203159, Note_on_c, 9, 54, 0
1, 203159, Note_on_c, 9, 53, 0
1, 203159, Note_on_c, 9, 69, 0
1, 203160, Note_on_c, 9, 40, 86
1, 203160, Note_on_c, 9, 54, 46
1, 203160, Note_on_c, 9, 82, 44
1, 203279, Note_on_c, 9, 40, 0
1, 203279, Note_on_c, 9, 54, 0
1, 203279, Note_on_c, 9, 82, 0
1, 203280, Note_on_c, 9, 40, 86
1, 203280, Note_on_c, 9, 54, 68
1, 203280, Note_on_c, 9, 69, 44
1, 203280, Note_on_c, 9, 42, 47
1, 203280, Note_on_c, 9, 35, 101
1, 203284, Note_on_c, 9, 42, 0
1, 203399, Note_on_c, 9, 40, 0
1, 203399, Note_on_c, 9, 54, 0
1, 203399, Note_on_c, 9, 69, 0
1, 203400, Note_on_c, 9, 40, 86
1, 203400, Note_on_c, 9, 54, 51
1, 203400, Note_on_c, 9, 82, 44
1, 203519, Note_on_c, 9, 35, 0
1, 203519, Note_on_c, 9, 40, 0
1, 203519, Note_on_c, 9, 54, 0
1, 203519, Note_on_c, 9, 82, 0
1, 203520, Note_on_c, 9, 40, 86
1, 203520, Note_on_c, 9, 54, 68
1, 203520, Note_on_c, 9, 53, 66
1, 203520, Note_on_c, 9, 69, 44
1, 203520, Note_on_c, 9, 42, 86
1, 203520, Note_on_c, 9, 49, 65
1, 203520, Note_on_c, 9, 55, 46
1, 203520, Note_on_c, 9, 35, 109
1, 203524, Note_on_c, 9, 42, 0
1, 203524, Note_on_c, 9, 49, 0
1, 203524, Note_on_c, 9, 55, 0
1, 203639, Note_on_c, 9, 40, 0
1, 203639, Note_on_c, 9, 54, 0
1, 203639, Note_on_c, 9, 53, 0
1, 203639, Note_on_c, 9, 69, 0
1, 203640, Note_on_c, 9, 54, 41
1, 203640, Note_on_c, 9, 82, 44
1, 203759, Note_on_c, 9, 54, 0
1, 203759, Note_on_c, 9, 82, 0
1, 203760, Note_on_c, 9, 54, 68
1, 203760, Note_on_c, 9, 69, 44
1, 203760, Note_on_c, 9, 42, 36
1, 203764, Note_on_c, 9, 42, 0
1, 203879, Note_on_c, 9, 35, 0
1, 203879, Note_on_c, 9, 54, 0
1, 203879, Note_on_c, 9, 69, 0
1, 203880, Note_on_c, 9, 54, 49
1, 203880, Note_on_c, 9, 82, 44
1, 203880, Note_on_c, 9, 35, 103
1, 203999, Note_on_c, 9, 54, 0
1, 203999, Note_on_c, 9, 82, 0
1, 203999, Note_on_c, 9, 35, 0
1, 204000, Note_on_c, 9, 40, 86
1, 204000, Note_on_c, 9, 54, 68
1, 204000, Note_on_c, 9, 53, 66
1, 204000, Note_on_c, 9, 69, 44
1, 204000, Note_on_c, 9, 42, 91
1, 204000, Note_on_c, 9, 55, 46
1, 204004, Note_on_c, 9, 42, 0
1, 204004, Note_on_c, 9, 55, 0
1, 204119, Note_on_c, 9, 40, 0
1, 204119, Note_on_c, 9, 54, 0
1, 204119, Note_on_c, 9, 53, 0
1, 204119, Note_on_c, 9, 69, 0
1, 204120, Note_on_c, 9, 54, 45
1, 204120, Note_on_c, 9, 82, 44
1, 204239, Note_on_c, 9, 54, 0
1, 204239, Note_on_c, 9, 82, 0
1, 204240, Note_on_c, 9, 54, 68
1, 204240, Note_on_c, 9, 69, 44
1, 204240, Note_on_c, 9, 42, 43
1, 204240, Note_on_c, 9, 35, 97
1, 204244, Note_on_c, 9, 42, 0
1, 204359, Note_on_c, 9, 54, 0
1, 204359, Note_on_c, 9, 69, 0
1, 204360, Note_on_c, 9, 54, 44
1, 204360, Note_on_c, 9, 82, 44
1, 204479, Note_on_c, 9, 35, 0
1, 204479, Note_on_c, 9, 54, 0
1, 204479, Note_on_c, 9, 82, 0
1, 204480, Note_on_c, 9, 40, 86
1, 204480, Note_on_c, 9, 54, 68
1, 204480, Note_on_c, 9, 53, 66
1, 204480, Note_on_c, 9, 69, 44
1, 204480, Note_on_c, 9, 42, 95
1, 204480, Note_on_c, 9, 55, 46
1, 204480, Note_on_c, 9, 35, 109
1, 204484, Note_on_c, 9, 42, 0
1, 204484, Note_on_c, 9, 55, 0
1, 204599, Note_on_c, 9, 40, 0
1, 204599, Note_on_c, 9, 54, 0
1, 204599, Note_on_c, 9, 53, 0
1, 204599, Note_on_c, 9, 69, 0
1, 204600, Note_on_c, 9, 54, 48
1, 204600, Note_on_c, 9, 82, 44
1, 204719, Note_on_c, 9, 54, 0
1, 204719, Note_on_c, 9, 82, 0
1, 204720, Note_on_c, 9, 54, 68
1, 204720, Note_on_c, 9, 69, 44
1, 204720, Note_on_c, 9, 42, 38
1, 204724, Note_on_c, 9, 42, 0
1, 204839, Note_on_c, 9, 35, 0
1, 204839, Note_on_c, 9, 54, 0
1, 204839, Note_on_c, 9, 69, 0
1, 204840, Note_on_c, 9, 54, 47
1, 204840, Note_on_c, 9, 82, 44
1, 204840, Note_on_c, 9, 35, 111
1, 204959, Note_on_c, 9, 54, 0
1, 204959, Note_on_c, 9, 82, 0
1, 204959, Note_on_c, 9, 35, 0
1, 204960, Note_on_c, 9, 40, 86
1, 204960, Note_on_c, 9, 54, 68
1, 204960, Note_on_c, 9, 53, 66
1, 204960, Note_on_c, 9, 69, 44
1, 204960, Note_on_c, 9, 42, 92
1, 204960, Note_on_c, 9, 55, 46
1, 204964, Note_on_c, 9, 42, 0
1, 204964, Note_on_c, 9, 55, 0
1, 205079, Note_on_c, 9, 40, 0
1, 205079, Note_on_c, 9, 54, 0
1, 205079, Note_on_c, 9, 53, 0
1, 205079, Note_on_c, 9, 69, 0
1, 205080, Note_on_c, 9, 54, 46
1, 205080, Note_on_c, 9, 82, 44
1, 205199, Note_on_c, 9, 54, 0
1, 205199, Note_on_c, 9, 82, 0
1, 205200, Note_on_c, 9, 54, 68
1, 205200, Note_on_c, 9, 69, 44
1, 205200, Note_on_c, 9, 42, 47
1, 205200, Note_on_c, 9, 35, 101
1, 205204, Note_on_c, 9, 42, 0
1, 205319, Note_on_c, 9, 54, 0
1, 205319, Note_on_c, 9, 69, 0
1, 205320, Note_on_c, 9, 54, 51
1, 205320, Note_on_c, 9, 82, 44
1, 205439, Note_on_c, 9, 35, 0
1, 205439, Note_on_c, 9, 54, 0
1, 205439, Note_on_c, 9, 82, 0
1, 205440, Note_on_c, 9, 40, 86
1, 205440, Note_on_c, 9, 54, 68
1, 205440, Note_on_c, 9, 53, 66
1, 205440, Note_on_c, 9, 69, 44
1, 205440, Note_on_c, 9, 42, 86
1, 205440, Note_on_c, 9, 55, 46
1, 205440, Note_on_c, 9, 35, 109
1, 205444, Note_on_c, 9, 42, 0
1, 205444, Note_on_c, 9, 55, 0
1, 205559, Note_on_c, 9, 40, 0
1, 205559, Note_on_c, 9, 54, 0
1, 205559, Note_on_c, 9, 53, 0
1, 205559, Note_on_c, 9, 69, 0
1, 205560, Note_on_c, 9, 54, 41
1, 205560, Note_on_c, 9, 82, 44
1, 205679, Note_on_c, 9, 54, 0
1, 205679, Note_on_c, 9, 82, 0
1, 205680, Note_on_c, 9, 54, 68
1, 205680, Note_on_c, 9, 69, 44
1, 205680, Note_on_c, 9, 42, 36
1, 205684, Note_on_c, 9, 42, 0
1, 205799, Note_on_c, 9, 35, 0
1, 205799, Note_on_c, 9, 54, 0
1, 205799, Note_on_c, 9, 69, 0
1, 205800, Note_on_c, 9, 54, 49
1, 205800, Note_on_c, 9, 82, 44
1, 205800, Note_on_c, 9, 35, 103
1, 205919, Note_on_c, 9, 54, 0
1, 205919, Note_on_c, 9, 82, 0
1, 205919, Note_on_c, 9, 35, 0
1, 205920, Note_on_c, 9, 40, 86
1, 205920, Note_on_c, 9, 54, 68
1, 205920, Note_on_c, 9, 53, 66
1, 205920, Note_on_c, 9, 69, 44
1, 205920, Note_on_c, 9, 42, 91
1, 205920, Note_on_c, 9, 55, 46
1, 205924, Note_on_c, 9, 42, 0
1, 205924, Note_on_c, 9, 55, 0
1, 206039, Note_on_c, 9, 40, 0
1, 206039, Note_on_c, 9, 54, 0
1, 206039, Note_on_c, 9, 53, 0
1, 206039, Note_on_c, 9, 69, 0
1, 206040, Note_on_c, 9, 54, 45
1, 206040, Note_on_c, 9, 82, 44
1, 206159, Note_on_c, 9, 54, 0
1, 206159, Note_on_c, 9, 82, 0
1, 206160, Note_on_c, 9, 54, 68
1, 206160, Note_on_c, 9, 69, 44
1, 206160, Note_on_c, 9, 42, 43
1, 206160, Note_on_c, 9, 35, 97
1, 206164, Note_on_c, 9, 42, 0
1, 206279, Note_on_c, 9, 54, 0
1, 206279, Note_on_c, 9, 69, 0
1, 206280, Note_on_c, 9, 54, 44
1, 206280, Note_on_c, 9, 82, 44
1, 206399, Note_on_c, 9, 35, 0
1, 206399, Note_on_c, 9, 54, 0
1, 206399, Note_on_c, 9, 82, 0
1, 206400, Note_on_c, 9, 40, 86
1, 206400, Note_on_c, 9, 54, 68
1, 206400, Note_on_c, 9, 53, 66
1, 206400, Note_on_c, 9, 69, 44
1, 206400, Note_on_c, 9, 42, 95
1, 206400, Note_on_c, 9, 55, 46
1, 206400, Note_on_c, 9, 35, 109
1, 206404, Note_on_c, 9, 42, 0
1, 206404, Note_on_c, 9, 55, 0
1, 206519, Note_on_c, 9, 40, 0
1, 206519, Note_on_c, 9, 54, 0
1, 206519, Note_on_c, 9, 53, 0
1, 206519, Note_on_c, 9, 69, 0
1, 206520, Note_on_c, 9, 54, 48
1, 206520, Note_on_c, 9, 82, 44
1, 206639, Note_on_c, 9, 54, 0
1, 206639, Note_on_c, 9, 82, 0
1, 206640, Note_on_c, 9, 54, 68
1, 206640, Note_on_c, 9, 69, 44
1, 206640, Note_on_c, 9, 42, 38
1, 206644, Note_on_c, 9, 42, 0
1, 206759, Note_on_c, 9, 35, 0
1, 206759, Note_on_c, 9, 54, 0
1, 206759, Note_on_c, 9, 69, 0
1, 206760, Note_on_c, 9, 54, 47
1, 206760, Note_on_c, 9, 82, 44
1, 206760, Note_on_c, 9, 35, 111
1, 206879, Note_on_c, 9, 54, 0
1, 206879, Note_on_c, 9, 82, 0
1, 206879, Note_on_c, 9, 35, 0
1, 206880, Note_on_c, 9, 40, 86
1, 206880, Note_on_c, 9, 54, 68
1, 206880, Note_on_c, 9, 53, 66
1, 206880, Note_on_c, 9, 69, 44
1, 206880, Note_on_c, 9, 42, 92
1, 206880, Note_on_c, 9, 55, 46
1, 206884, Note_on_c, 9, 42, 0
1, 206884, Note_on_c, 9, 55, 0
1, 206999, Note_on_c, 9, 40, 0
1, 206999, Note_on_c, 9, 54, 0
1, 206999, Note_on_c, 9, 53, 0
1, 206999, Note_on_c, 9, 69, 0
1, 207000, Note_on_c, 9, 54, 46
1, 207000, Note_on_c, 9, 82, 44
1, 207119, Note_on_c, 9, 54, 0
1, 207119, Note_on_c, 9, 82, 0
1, 207120, Note_on_c, 9, 54, 68
1, 207120, Note_on_c, 9, 69, 44
1, 207120, Note_on_c, 9, 42, 47
1, 207120, Note_on_c, 9, 35, 101
1, 207124, Note_on_c, 9, 42, 0
1, 207239, Note_on_c, 9, 54, 0
1, 207239, Note_on_c, 9, 69, 0
1, 207240, Note_on_c, 9, 54, 51
1, 207240, Note_on_c, 9, 82, 44
1, 207359, Note_on_c, 9, 35, 0
1, 207359, Note_on_c, 9, 54, 0
1, 207359, Note_on_c, 9, 82, 0
1, 207360, Note_on_c, 9, 40, 86
1, 207360, Note_on_c, 9, 54, 68
1, 207360, Note_on_c, 9, 53, 66
1, 207360, Note_on_c, 9, 69, 44
1, 207360, Note_on_c, 9, 42, 86
1, 207360, Note_on_c, 9, 55, 46
1, 207360, Note_on_c, 9, 35, 109
1, 207364, Note_on_c, 9, 42, 0
1, 207364, Note_on_c, 9, 55, 0
1, 207479, Note_on_c, 9, 40, 0
1, 207479, Note_on_c, 9, 54, 0
1, 207479, Note_on_c, 9, 53, 0
1, 207479, Note_on_c, 9, 69, 0
1, 207480, Note_on_c, 9, 54, 41
1, 207480, Note_on_c, 9, 82, 44
1, 207599, Note_on_c, 9, 54, 0
1, 207599, Note_on_c, 9, 82, 0
1, 207600, Note_on_c, 9, 54, 68
1, 207600, Note_on_c, 9, 69, 44
1, 207600, Note_on_c, 9, 42, 36
1, 207604, Note_on_c, 9, 42, 0
1, 207719, Note_on_c, 9, 35, 0
1, 207719, Note_on_c, 9, 54, 0
1, 207719, Note_on_c, 9, 69, 0
1, 207720, Note_on_c, 9, 54, 49
1, 207720, Note_on_c, 9, 82, 44
1, 207720, Note_on_c, 9, 35, 103
1, 207839, Note_on_c, 9, 54, 0
1, 207839, Note_on_c, 9, 82, 0
1, 207839, Note_on_c, 9, 35, 0
1, 207840, Note_on_c, 9, 40, 86
1, 207840, Note_on_c, 9, 54, 68
1, 207840, Note_on_c, 9, 53, 66
1, 207840, Note_on_c, 9, 69, 44
1, 207840, Note_on_c, 9, 42, 91
1, 207840, Note_on_c, 9, 55, 46
1, 207844, Note_on_c, 9, 42, 0
1, 207844, Note_on_c, 9, 55, 0
1, 207959, Note_on_c, 9, 40, 0
1, 207959, Note_on_c, 9, 54, 0
1, 207959, Note_on_c, 9, 53, 0
1, 207959, Note_on_c, 9, 69, 0
1, 207960, Note_on_c, 9, 54, 45
1, 207960, Note_on_c, 9, 82, 44
1, 208079, Note_on_c, 9, 54, 0
1, 208079, Note_on_c, 9, 82, 0
1, 208080, Note_on_c, 9, 54, 68
1, 208080, Note_on_c, 9, 69, 44
1, 208080, Note_on_c, 9, 42, 43
1, 208080, Note_on_c, 9, 35, 97
1, 208084, Note_on_c, 9, 42, 0
1, 208199, Note_on_c, 9, 54, 0
1, 208199, Note_on_c, 9, 69, 0
1, 208200, Note_on_c, 9, 54, 44
1, 208200, Note_on_c, 9, 82, 44
1, 208319, Note_on_c, 9, 35, 0
1, 208319, Note_on_c, 9, 54, 0
1, 208319, Note_on_c, 9, 82, 0
1, 208320, Note_on_c, 9, 40, 86
1, 208320, Note_on_c, 9, 54, 68
1, 208320, Note_on_c, 9, 53, 66
1, 208320, Note_on_c, 9, 69, 44
1, 208320, Note_on_c, 9, 42, 95
1, 208320, Note_on_c, 9, 55, 46
1, 208320, Note_on_c, 9, 35, 109
1, 208324, Note_on_c, 9, 42, 0
1, 208324, Note_on_c, 9, 55, 0
1, 208439, Note_on_c, 9, 40, 0
1, 208439, Note_on_c, 9, 54, 0
1, 208439, Note_on_c, 9, 53, 0
1, 208439, Note_on_c, 9, 69, 0
1, 208440, Note_on_c, 9, 54, 48
1, 208440, Note_on_c, 9, 82, 44
1, 208559, Note_on_c, 9, 54, 0
1, 208559, Note_on_c, 9, 82, 0
1, 208560, Note_on_c, 9, 54, 68
1, 208560, Note_on_c, 9, 69, 44
1, 208560, Note_on_c, 9, 42, 38
1, 208564, Note_on_c, 9, 42, 0
1, 208679, Note_on_c, 9, 35, 0
1, 208679, Note_on_c, 9, 54, 0
1, 208679, Note_on_c, 9, 69, 0
1, 208680, Note_on_c, 9, 54, 47
1, 208680, Note_on_c, 9, 82, 44
1, 208680, Note_on_c, 9, 35, 111
1, 208799, Note_on_c, 9, 54, 0
1, 208799, Note_on_c, 9, 82, 0
1, 208799, Note_on_c, 9, 35, 0
1, 208800, Note_on_c, 9, 40, 86
1, 208800, Note_on_c, 9, 54, 68
1, 208800, Note_on_c, 9, 53, 66
1, 208800, Note_on_c, 9, 69, 44
1, 208800, Note_on_c, 9, 42, 92
1, 208800, Note_on_c, 9, 55, 46
1, 208804, Note_on_c, 9, 42, 0
1, 208804, Note_on_c, 9, 55, 0
1, 208919, Note_on_c, 9, 40, 0
1, 208919, Note_on_c, 9, 54, 0
1, 208919, Note_on_c, 9, 53, 0
1, 208919, Note_on_c, 9, 69, 0
1, 208920, Note_on_c, 9, 54, 46
1, 208920, Note_on_c, 9, 82, 44
1, 209039, Note_on_c, 9, 54, 0
1, 209039, Note_on_c, 9, 82, 0
1, 209040, Note_on_c, 9, 54, 68
1, 209040, Note_on_c, 9, 69, 44
1, 209040, Note_on_c, 9, 42, 47
1, 209040, Note_on_c, 9, 35, 101
1, 209044, Note_on_c, 9, 42, 0
1, 209159, Note_on_c, 9, 54, 0
1, 209159, Note_on_c, 9, 69, 0
1, 209160, Note_on_c, 9, 54, 51
1, 209160, Note_on_c, 9, 82, 44
1, 209279, Note_on_c, 9, 35, 0
1, 209279, Note_on_c, 9, 54, 0
1, 209279, Note_on_c, 9, 82, 0
1, 209280, Note_on_c, 9, 40, 86
1, 209280, Note_on_c, 9, 54, 68
1, 209280, Note_on_c, 9, 53, 66
1, 209280, Note_on_c, 9, 69, 44
1, 209280, Note_on_c, 9, 42, 86
1, 209280, Note_on_c, 9, 55, 46
1, 209280, Note_on_c, 9, 35, 109
1, 209284, Note_on_c, 9, 42, 0
1, 209284, Note_on_c, 9, 55, 0
1, 209399, Note_on_c, 9, 40, 0
1, 209399, Note_on_c, 9, 54, 0
1, 209399, Note_on_c, 9, 53, 0
1, 209399, Note_on_c, 9, 69, 0
1, 209400, Note_on_c, 9, 54, 41
1, 209400, Note_on_c, 9, 82, 44
1, 209519, Note_on_c, 9, 35, 0
1, 209519, Note_on_c, 9, 54, 0
1, 209519, Note_on_c, 9, 82, 0
1, 209520, Note_on_c, 9, 54, 68
1, 209520, Note_on_c, 9, 69, 44
1, 209520, Note_on_c, 9, 42, 36
1, 209520, Note_on_c, 9, 35, 103
1, 209524, Note_on_c, 9, 42, 0
1, 209639, Note_on_c, 9, 54, 0
1, 209639, Note_on_c, 9, 69, 0
1, 209640, Note_on_c, 9, 54, 49
1, 209640, Note_on_c, 9, 82, 44
1, 209759, Note_on_c, 9, 35, 0
1, 209759, Note_on_c, 9, 54, 0
1, 209759, Note_on_c, 9, 82, 0
1, 209760, Note_on_c, 9, 40, 86
1, 209760, Note_on_c, 9, 54, 68
1, 209760, Note_on_c, 9, 53, 66
1, 209760, Note_on_c, 9, 69, 44
1, 209760, Note_on_c, 9, 42, 91
1, 209760, Note_on_c, 9, 55, 46
1, 209764, Note_on_c, 9, 42, 0
1, 209764, Note_on_c, 9, 55, 0
1, 209879, Note_on_c, 9, 40, 0
1, 209879, Note_on_c, 9, 54, 0
1, 209879, Note_on_c, 9, 53, 0
1, 209879, Note_on_c, 9, 69, 0
1, 209880, Note_on_c, 9, 54, 45
1, 209880, Note_on_c, 9, 82, 44
1, 209880, Note_on_c, 9, 35, 97
1, 209999, Note_on_c, 9, 54, 0
1, 209999, Note_on_c, 9, 82, 0
1, 210000, Note_on_c, 9, 54, 68
1, 210000, Note_on_c, 9, 69, 44
1, 210000, Note_on_c, 9, 42, 43
1, 210004, Note_on_c, 9, 42, 0
1, 210119, Note_on_c, 9, 54, 0
1, 210119, Note_on_c, 9, 69, 0
1, 210120, Note_on_c, 9, 54, 44
1, 210120, Note_on_c, 9, 82, 44
1, 210239, Note_on_c, 9, 35, 0
1, 210239, Note_on_c, 9, 54, 0
1, 210239, Note_on_c, 9, 82, 0
1, 210240, Note_on_c, 9, 40, 86
1, 210240, Note_on_c, 9, 54, 68
1, 210240, Note_on_c, 9, 53, 66
1, 210240, Note_on_c, 9, 69, 44
1, 210240, Note_on_c, 9, 42, 95
1, 210240, Note_on_c, 9, 42, 0
1, 210240, Note_on_c, 9, 55, 46
1, 210240, Note_on_c, 9, 55, 0
1, 210240, Note_on_c, 9, 35, 109
1, 210259, Note_on_c, 9, 40, 0
1, 210259, Note_on_c, 9, 54, 0
1, 210259, Note_on_c, 9, 53, 0
1, 210259, Note_on_c, 9, 69, 0
1, 210260, Note_on_c, 9, 40, 94
1, 210299, Note_on_c, 9, 40, 0
1, 210360, Note_on_c, 9, 54, 48
1, 210360, Note_on_c, 9, 82, 44
1, 210479, Note_on_c, 9, 54, 0
1, 210479, Note_on_c, 9, 82, 0
1, 210480, Note_on_c, 9, 54, 68
1, 210480, Note_on_c, 9, 69, 44
1, 210480, Note_on_c, 9, 42, 38
1, 210484, Note_on_c, 9, 42, 0
1, 210599, Note_on_c, 9, 54, 0
1, 210599, Note_on_c, 9, 69, 0
1, 210600, Note_on_c, 9, 54, 47
1, 210600, Note_on_c, 9, 82, 44
1, 210719, Note_on_c, 9, 35, 0
1, 210719, Note_on_c, 9, 54, 0
1, 210719, Note_on_c, 9, 82, 0
1, 210720, Note_on_c, 9, 41, 91
1, 210720, Note_on_c, 9, 40, 74
1, 210720, Note_on_c, 9, 45, 100
1, 210720, Note_on_c, 9, 54, 68
1, 210720, Note_on_c, 9, 53, 66
1, 210720, Note_on_c, 9, 69, 44
1, 210720, Note_on_c, 9, 42, 92
1, 210720, Note_on_c, 9, 55, 46
1, 210724, Note_on_c, 9, 42, 0
1, 210724, Note_on_c, 9, 55, 0
1, 210839, Note_on_c, 9, 41, 0
1, 210839, Note_on_c, 9, 40, 0
1, 210839, Note_on_c, 9, 45, 0
1, 210839, Note_on_c, 9, 54, 0
1, 210839, Note_on_c, 9, 53, 0
1, 210839, Note_on_c, 9, 69, 0
1, 210840, Note_on_c, 9, 54, 46
1, 210840, Note_on_c, 9, 82, 44
1, 210840, Note_on_c, 9, 35, 101
1, 210959, Note_on_c, 9, 54, 0
1, 210959, Note_on_c, 9, 82, 0
1, 210960, Note_on_c, 9, 54, 68
1, 210960, Note_on_c, 9, 69, 44
1, 210960, Note_on_c, 9, 42, 47
1, 210964, Note_on_c, 9, 42, 0
1, 211079, Note_on_c, 9, 54, 0
1, 211079, Note_on_c, 9, 69, 0
1, 211080, Note_on_c, 9, 54, 51
1, 211080, Note_on_c, 9, 82, 44
1, 211199, Note_on_c, 9, 35, 0
1, 211199, Note_on_c, 9, 54, 0
1, 211199, Note_on_c, 9, 82, 0
1, 211200, Note_on_c, 9, 40, 86
1, 211200, Note_on_c, 9, 54, 68
1, 211200, Note_on_c, 9, 53, 66
1, 211200, Note_on_c, 9, 69, 44
1, 211200, Note_on_c, 9, 42, 86
1, 211200, Note_on_c, 9, 49, 65
1, 211200, Note_on_c, 9, 55, 46
1, 211200, Note_on_c, 9, 35, 109
1, 211204, Note_on_c, 9, 42, 0
1, 211204, Note_on_c, 9, 49, 0
1, 211204, Note_on_c, 9, 55, 0
1, 211319, Note_on_c, 9, 40, 0
1, 211319, Note_on_c, 9, 54, 0
1, 211319, Note_on_c, 9, 53, 0
1, 211319, Note_on_c, 9, 69, 0
1, 211320, Note_on_c, 9, 54, 41
1, 211320, Note_on_c, 9, 82, 44
1, 211439, Note_on_c, 9, 54, 0
1, 211439, Note_on_c, 9, 82, 0
1, 211440, Note_on_c, 9, 54, 68
1, 211440, Note_on_c, 9, 69, 44
1, 211440, Note_on_c, 9, 42, 36
1, 211444, Note_on_c, 9, 42, 0
1, 211559, Note_on_c, 9, 35, 0
1, 211559, Note_on_c, 9, 54, 0
1, 211559, Note_on_c, 9, 69, 0
1, 211560, Note_on_c, 9, 54, 49
1, 211560, Note_on_c, 9, 82, 44
1, 211560, Note_on_c, 9, 35, 103
1, 211679, Note_on_c, 9, 54, 0
1, 211679, Note_on_c, 9, 82, 0
1, 211679, Note_on_c, 9, 35, 0
1, 211680, Note_on_c, 9, 40, 86
1, 211680, Note_on_c, 9, 54, 68
1, 211680, Note_on_c, 9, 53, 66
1, 211680, Note_on_c, 9, 69, 44
1, 211680, Note_on_c, 9, 42, 91
1, 211680, Note_on_c, 9, 55, 46
1, 211684, Note_on_c, 9, 42, 0
1, 211684, Note_on_c, 9, 55, 0
1, 211799, Note_on_c, 9, 40, 0
1, 211799, Note_on_c, 9, 54, 0
1, 211799, Note_on_c, 9, 53, 0
1, 211799, Note_on_c, 9, 69, 0
1, 211800, Note_on_c, 9, 54, 45
1, 211800, Note_on_c, 9, 82, 44
1, 211919, Note_on_c, 9, 54, 0
1, 211919, Note_on_c, 9, 82, 0
1, 211920, Note_on_c, 9, 54, 68
1, 211920, Note_on_c, 9, 69, 44
1, 211920, Note_on_c, 9, 42, 43
1, 211920, Note_on_c, 9, 35, 97
1, 211924, Note_on_c, 9, 42, 0
1, 212039, Note_on_c, 9, 54, 0
1, 212039, Note_on_c, 9, 69, 0
1, 212040, Note_on_c, 9, 54, 44
1, 212040, Note_on_c, 9, 82, 44
1, 212159, Note_on_c, 9, 35, 0
1, 212159, Note_on_c, 9, 54, 0
1, 212159, Note_on_c, 9, 82, 0
1, 212160, Note_on_c, 9, 40, 86
1, 212160, Note_on_c, 9, 54, 68
1, 212160, Note_on_c, 9, 53, 66
1, 212160, Note_on_c, 9, 69, 44
1, 212160, Note_on_c, 9, 42, 95
1, 212160, Note_on_c, 9, 55, 46
1, 212160, Note_on_c, 9, 35, 109
1, 212164, Note_on_c, 9, 42, 0
1, 212164, Note_on_c, 9, 55, 0
1, 212279, Note_on_c, 9, 40, 0
1, 212279, Note_on_c, 9, 54, 0
1, 212279, Note_on_c, 9, 53, 0
1, 212279, Note_on_c, 9, 69, 0
1, 212280, Note_on_c, 9, 54, 48
1, 212280, Note_on_c, 9, 82, 44
1, 212399, Note_on_c, 9, 54, 0
1, 212399, Note_on_c, 9, 82, 0
1, 212400, Note_on_c, 9, 54, 68
1, 212400, Note_on_c, 9, 69, 44
1, 212400, Note_on_c, 9, 42, 38
1, 212404, Note_on_c, 9, 42, 0
1, 212519, Note_on_c, 9, 35, 0
1, 212519, Note_on_c, 9, 54, 0
1, 212519, Note_on_c, 9, 69, 0
1, 212520, Note_on_c, 9, 54, 47
1, 212520, Note_on_c, 9, 82, 44
1, 212520, Note_on_c, 9, 35, 111
1, 212639, Note_on_c, 9, 54, 0
1, 212639, Note_on_c, 9, 82, 0
1, 212639, Note_on_c, 9, 35, 0
1, 212640, Note_on_c, 9, 40, 86
1, 212640, Note_on_c, 9, 54, 68
1, 212640, Note_on_c, 9, 53, 66
1, 212640, Note_on_c, 9, 69, 44
1, 212640, Note_on_c, 9, 42, 92
1, 212640, Note_on_c, 9, 55, 46
1, 212644, Note_on_c, 9, 42, 0
1, 212644, Note_on_c, 9, 55, 0
1, 212759, Note_on_c, 9, 40, 0
1, 212759, Note_on_c, 9, 54, 0
1, 212759, Note_on_c, 9, 53, 0
1, 212759, Note_on_c, 9, 69, 0
1, 212760, Note_on_c, 9, 54, 46
1, 212760, Note_on_c, 9, 82, 44
1, 212879, Note_on_c, 9, 54, 0
1, 212879, Note_on_c, 9, 82, 0
1, 212880, Note_on_c, 9, 54, 68
1, 212880, Note_on_c, 9, 69, 44
1, 212880, Note_on_c, 9, 42, 47
1, 212880, Note_on_c, 9, 35, 101
1, 212884, Note_on_c, 9, 42, 0
1, 212999, Note_on_c, 9, 54, 0
1, 212999, Note_on_c, 9, 69, 0
1, 213000, Note_on_c, 9, 54, 51
1, 213000, Note_on_c, 9, 82, 44
1, 213119, Note_on_c, 9, 35, 0
1, 213119, Note_on_c, 9, 54, 0
1, 213119, Note_on_c, 9, 82, 0
1, 213120, Note_on_c, 9, 40, 86
1, 213120, Note_on_c, 9, 54, 68
1, 213120, Note_on_c, 9, 53, 66
1, 213120, Note_on_c, 9, 69, 44
1, 213120, Note_on_c, 9, 42, 86
1, 213120, Note_on_c, 9, 55, 46
1, 213120, Note_on_c, 9, 35, 109
1, 213124, Note_on_c, 9, 42, 0
1, 213124, Note_on_c, 9, 55, 0
1, 213239, Note_on_c, 9, 40, 0
1, 213239, Note_on_c, 9, 54, 0
1, 213239, Note_on_c, 9, 53, 0
1, 213239, Note_on_c, 9, 69, 0
1, 213240, Note_on_c, 9, 54, 41
1, 213240, Note_on_c, 9, 82, 44
1, 213359, Note_on_c, 9, 54, 0
1, 213359, Note_on_c, 9, 82, 0
1, 213360, Note_on_c, 9, 54, 68
1, 213360, Note_on_c, 9, 69, 44
1, 213360, Note_on_c, 9, 42, 36
1, 213364, Note_on_c, 9, 42, 0
1, 213479, Note_on_c, 9, 35, 0
1, 213479, Note_on_c, 9, 54, 0
1, 213479, Note_on_c, 9, 69, 0
1, 213480, Note_on_c, 9, 54, 49
1, 213480, Note_on_c, 9, 82, 44
1, 213480, Note_on_c, 9, 35, 103
1, 213599, Note_on_c, 9, 54, 0
1, 213599, Note_on_c, 9, 82, 0
1, 213599, Note_on_c, 9, 35, 0
1, 213600, Note_on_c, 9, 40, 86
1, 213600, Note_on_c, 9, 54, 68
1, 213600, Note_on_c, 9, 53, 66
1, 213600, Note_on_c, 9, 69, 44
1, 213600, Note_on_c, 9, 42, 91
1, 213600, Note_on_c, 9, 55, 46
1, 213604, Note_on_c, 9, 42, 0
1, 213604, Note_on_c, 9, 55, 0
1, 213719, Note_on_c, 9, 40, 0
1, 213719, Note_on_c, 9, 54, 0
1, 213719, Note_on_c, 9, 53, 0
1, 213719, Note_on_c, 9, 69, 0
1, 213720, Note_on_c, 9, 54, 45
1, 213720, Note_on_c, 9, 82, 44
1, 213839, Note_on_c, 9, 54, 0
1, 213839, Note_on_c, 9, 82, 0
1, 213840, Note_on_c, 9, 54, 68
1, 213840, Note_on_c, 9, 69, 44
1, 213840, Note_on_c, 9, 42, 43
1, 213840, Note_on_c, 9, 35, 97
1, 213844, Note_on_c, 9, 42, 0
1, 213959, Note_on_c, 9, 54, 0
1, 213959, Note_on_c, 9, 69, 0
1, 213960, Note_on_c, 9, 54, 44
1, 213960, Note_on_c, 9, 82, 44
1, 214079, Note_on_c, 9, 35, 0
1, 214079, Note_on_c, 9, 54, 0
1, 214079, Note_on_c, 9, 82, 0
1, 214080, Note_on_c, 9, 40, 86
1, 214080, Note_on_c, 9, 54, 68
1, 214080, Note_on_c, 9, 53, 66
1, 214080, Note_on_c, 9, 69, 44
1, 214080, Note_on_c, 9, 42, 95
1, 214080, Note_on_c, 9, 55, 46
1, 214080, Note_on_c, 9, 35, 109
1, 214084, Note_on_c, 9, 42, 0
1, 214084, Note_on_c, 9, 55, 0
1, 214199, Note_on_c, 9, 40, 0
1, 214199, Note_on_c, 9, 54, 0
1, 214199, Note_on_c, 9, 53, 0
1, 214199, Note_on_c, 9, 69, 0
1, 214200, Note_on_c, 9, 54, 48
1, 214200, Note_on_c, 9, 82, 44
1, 214319, Note_on_c, 9, 54, 0
1, 214319, Note_on_c, 9, 82, 0
1, 214320, Note_on_c, 9, 54, 68
1, 214320, Note_on_c, 9, 69, 44
1, 214320, Note_on_c, 9, 42, 38
1, 214324, Note_on_c, 9, 42, 0
1, 214439, Note_on_c, 9, 35, 0
1, 214439, Note_on_c, 9, 54, 0
1, 214439, Note_on_c, 9, 69, 0
1, 214440, Note_on_c, 9, 54, 47
1, 214440, Note_on_c, 9, 82, 44
1, 214440, Note_on_c, 9, 35, 111
1, 214559, Note_on_c, 9, 54, 0
1, 214559, Note_on_c, 9, 82, 0
1, 214559, Note_on_c, 9, 35, 0
1, 214560, Note_on_c, 9, 40, 86
1, 214560, Note_on_c, 9, 54, 68
1, 214560, Note_on_c, 9, 53, 66
1, 214560, Note_on_c, 9, 69, 44
1, 214560, Note_on_c, 9, 42, 92
1, 214560, Note_on_c, 9, 55, 46
1, 214564, Note_on_c, 9, 42, 0
1, 214564, Note_on_c, 9, 55, 0
1, 214679, Note_on_c, 9, 40, 0
1, 214679, Note_on_c, 9, 54, 0
1, 214679, Note_on_c, 9, 53, 0
1, 214679, Note_on_c, 9, 69, 0
1, 214680, Note_on_c, 9, 54, 46
1, 214680, Note_on_c, 9, 82, 44
1, 214799, Note_on_c, 9, 54, 0
1, 214799, Note_on_c, 9, 82, 0
1, 214800, Note_on_c, 9, 54, 68
1, 214800, Note_on_c, 9, 69, 44
1, 214800, Note_on_c, 9, 42, 47
1, 214800, Note_on_c, 9, 35, 101
1, 214804, Note_on_c, 9, 42, 0
1, 214919, Note_on_c, 9, 54, 0
1, 214919, Note_on_c, 9, 69, 0
1, 214920, Note_on_c, 9, 54, 51
1, 214920, Note_on_c, 9, 82, 44
1, 215039, Note_on_c, 9, 35, 0
1, 215039, Note_on_c, 9, 54, 0
1, 215039, Note_on_c, 9, 82, 0
1, 215040, Note_on_c, 9, 40, 86
1, 215040, Note_on_c, 9, 54, 68
1, 215040, Note_on_c, 9, 53, 66
1, 215040, Note_on_c, 9, 69, 44
1, 215040, Note_on_c, 9, 42, 86
1, 215040, Note_on_c, 9, 55, 46
1, 215040, Note_on_c, 9, 35, 109
1, 215044, Note_on_c, 9, 42, 0
1, 215044, Note_on_c, 9, 55, 0
1, 215159, Note_on_c, 9, 40, 0
1, 215159, Note_on_c, 9, 54, 0
1, 215159, Note_on_c, 9, 53, 0
1, 215159, Note_on_c, 9, 69, 0
1, 215160, Note_on_c, 9, 54, 41
1, 215160, Note_on_c, 9, 82, 44
1, 215279, Note_on_c, 9, 54, 0
1, 215279, Note_on_c, 9, 82, 0
1, 215280, Note_on_c, 9, 54, 68
1, 215280, Note_on_c, 9, 69, 44
1, 215280, Note_on_c, 9, 42, 36
1, 215284, Note_on_c, 9, 42, 0
1, 215399, Note_on_c, 9, 35, 0
1, 215399, Note_on_c, 9, 54, 0
1, 215399, Note_on_c, 9, 69, 0
1, 215400, Note_on_c, 9, 54, 49
1, 215400, Note_on_c, 9, 82, 44
1, 215400, Note_on_c, 9, 35, 103
1, 215519, Note_on_c, 9, 54, 0
1, 215519, Note_on_c, 9, 82, 0
1, 215519, Note_on_c, 9, 35, 0
1, 215520, Note_on_c, 9, 40, 86
1, 215520, Note_on_c, 9, 54, 68
1, 215520, Note_on_c, 9, 53, 66
1, 215520, Note_on_c, 9, 69, 44
1, 215520, Note_on_c, 9, 42, 91
1, 215520, Note_on_c, 9, 55, 46
1, 215524, Note_on_c, 9, 42, 0
1, 215524, Note_on_c, 9, 55, 0
1, 215639, Note_on_c, 9, 40, 0
1, 215639, Note_on_c, 9, 54, 0
1, 215639, Note_on_c, 9, 53, 0
1, 215639, Note_on_c, 9, 69, 0
1, 215640, Note_on_c, 9, 54, 45
1, 215640, Note_on_c, 9, 82, 44
1, 215759, Note_on_c, 9, 54, 0
1, 215759, Note_on_c, 9, 82, 0
1, 215760, Note_on_c, 9, 54, 68
1, 215760, Note_on_c, 9, 69, 44
1, 215760, Note_on_c, 9, 42, 43
1, 215760, Note_on_c, 9, 35, 97
1, 215764, Note_on_c, 9, 42, 0
1, 215879, Note_on_c, 9, 54, 0
1, 215879, Note_on_c, 9, 69, 0
1, 215880, Note_on_c, 9, 54, 44
1, 215880, Note_on_c, 9, 82, 44
1, 215999, Note_on_c, 9, 35, 0
1, 215999, Note_on_c, 9, 54, 0
1, 215999, Note_on_c, 9, 82, 0
1, 216000, Note_on_c, 9, 40, 86
1, 216000, Note_on_c, 9, 54, 68
1, 216000, Note_on_c, 9, 53, 66
1, 216000, Note_on_c, 9, 69, 44
1, 216000, Note_on_c, 9, 42, 95
1, 216000, Note_on_c, 9, 55, 46
1, 216000, Note_on_c, 9, 35, 109
1, 216004, Note_on_c, 9, 42, 0
1, 216004, Note_on_c, 9, 55, 0
1, 216119, Note_on_c, 9, 40, 0
1, 216119, Note_on_c, 9, 54, 0
1, 216119, Note_on_c, 9, 53, 0
1, 216119, Note_on_c, 9, 69, 0
1, 216120, Note_on_c, 9, 54, 48
1, 216120, Note_on_c, 9, 82, 44
1, 216239, Note_on_c, 9, 54, 0
1, 216239, Note_on_c, 9, 82, 0
1, 216240, Note_on_c, 9, 54, 68
1, 216240, Note_on_c, 9, 69, 44
1, 216240, Note_on_c, 9, 42, 38
1, 216244, Note_on_c, 9, 42, 0
1, 216359, Note_on_c, 9, 35, 0
1, 216359, Note_on_c, 9, 54, 0
1, 216359, Note_on_c, 9, 69, 0
1, 216360, Note_on_c, 9, 54, 47
1, 216360, Note_on_c, 9, 82, 44
1, 216360, Note_on_c, 9, 35, 111
1, 216479, Note_on_c, 9, 54, 0
1, 216479, Note_on_c, 9, 82, 0
1, 216479, Note_on_c, 9, 35, 0
1, 216480, Note_on_c, 9, 40, 86
1, 216480, Note_on_c, 9, 54, 68
1, 216480, Note_on_c, 9, 53, 66
1, 216480, Note_on_c, 9, 69, 44
1, 216480, Note_on_c, 9, 42, 92
1, 216480, Note_on_c, 9, 55, 46
1, 216484, Note_on_c, 9, 42, 0
1, 216484, Note_on_c, 9, 55, 0
1, 216599, Note_on_c, 9, 40, 0
1, 216599, Note_on_c, 9, 54, 0
1, 216599, Note_on_c, 9, 53, 0
1, 216599, Note_on_c, 9, 69, 0
1, 216600, Note_on_c, 9, 54, 46
1, 216600, Note_on_c, 9, 82, 44
1, 216719, Note_on_c, 9, 54, 0
1, 216719, Note_on_c, 9, 82, 0
1, 216720, Note_on_c, 9, 54, 68
1, 216720, Note_on_c, 9, 69, 44
1, 216720, Note_on_c, 9, 42, 47
1, 216720, Note_on_c, 9, 35, 101
1, 216724, Note_on_c, 9, 42, 0
1, 216839, Note_on_c, 9, 54, 0
1, 216839, Note_on_c, 9, 69, 0
1, 216840, Note_on_c, 9, 54, 51
1, 216840, Note_on_c, 9, 82, 44
1, 216959, Note_on_c, 9, 35, 0
1, 216959, Note_on_c, 9, 54, 0
1, 216959, Note_on_c, 9, 82, 0
1, 216960, Note_on_c, 9, 40, 86
1, 216960, Note_on_c, 9, 54, 68
1, 216960, Note_on_c, 9, 53, 66
1, 216960, Note_on_c, 9, 69, 44
1, 216960, Note_on_c, 9, 42, 86
1, 216960, Note_on_c, 9, 55, 46
1, 216960, Note_on_c, 9, 35, 109
1, 216964, Note_on_c, 9, 42, 0
1, 216964, Note_on_c, 9, 55, 0
1, 217079, Note_on_c, 9, 40, 0
1, 217079, Note_on_c, 9, 54, 0
1, 217079, Note_on_c, 9, 53, 0
1, 217079, Note_on_c, 9, 69, 0
1, 217080, Note_on_c, 9, 54, 41
1, 217080, Note_on_c, 9, 82, 44
1, 217199, Note_on_c, 9, 35, 0
1, 217199, Note_on_c, 9, 54, 0
1, 217199, Note_on_c, 9, 82, 0
1, 217200, Note_on_c, 9, 54, 68
1, 217200, Note_on_c, 9, 69, 44
1, 217200, Note_on_c, 9, 42, 36
1, 217200, Note_on_c, 9, 35, 103
1, 217204, Note_on_c, 9, 42, 0
1, 217319, Note_on_c, 9, 54, 0
1, 217319, Note_on_c, 9, 69, 0
1, 217320, Note_on_c, 9, 54, 49
1, 217320, Note_on_c, 9, 82, 44
1, 217439, Note_on_c, 9, 35, 0
1, 217439, Note_on_c, 9, 54, 0
1, 217439, Note_on_c, 9, 82, 0
1, 217440, Note_on_c, 9, 40, 86
1, 217440, Note_on_c, 9, 54, 68
1, 217440, Note_on_c, 9, 53, 66
1, 217440, Note_on_c, 9, 69, 44
1, 217440, Note_on_c, 9, 42, 91
1, 217440, Note_on_c, 9, 55, 46
1, 217444, Note_on_c, 9, 42, 0
1, 217444, Note_on_c, 9, 55, 0
1, 217559, Note_on_c, 9, 40, 0
1, 217559, Note_on_c, 9, 54, 0
1, 217559, Note_on_c, 9, 53, 0
1, 217559, Note_on_c, 9, 69, 0
1, 217560, Note_on_c, 9, 54, 45
1, 217560, Note_on_c, 9, 82, 44
1, 217560, Note_on_c, 9, 35, 97
1, 217679, Note_on_c, 9, 54, 0
1, 217679, Note_on_c, 9, 82, 0
1, 217680, Note_on_c, 9, 54, 68
1, 217680, Note_on_c, 9, 69, 44
1, 217680, Note_on_c, 9, 42, 43
1, 217684, Note_on_c, 9, 42, 0
1, 217799, Note_on_c, 9, 54, 0
1, 217799, Note_on_c, 9, 69, 0
1, 217800, Note_on_c, 9, 54, 44
1, 217800, Note_on_c, 9, 82, 44
1, 217919, Note_on_c, 9, 35, 0
1, 217919, Note_on_c, 9, 54, 0
1, 217919, Note_on_c, 9, 82, 0
1, 217920, Note_on_c, 9, 40, 86
1, 217920, Note_on_c, 9, 54, 68
1, 217920, Note_on_c, 9, 53, 66
1, 217920, Note_on_c, 9, 69, 44
1, 217920, Note_on_c, 9, 42, 95
1, 217920, Note_on_c, 9, 42, 0
1, 217920, Note_on_c, 9, 55, 46
1, 217920, Note_on_c, 9, 55, 0
1, 217920, Note_on_c, 9, 35, 109
1, 217939, Note_on_c, 9, 40, 0
1, 217939, Note_on_c, 9, 54, 0
1, 217939, Note_on_c, 9, 53, 0
1, 217939, Note_on_c, 9, 69, 0
1, 217940, Note_on_c, 9, 40, 94
1, 217979, Note_on_c, 9, 40, 0
1, 218040, Note_on_c, 9, 54, 48
1, 218040, Note_on_c, 9, 82, 44
1, 218159, Note_on_c, 9, 54, 0
1, 218159, Note_on_c, 9, 82, 0
1, 218160, Note_on_c, 9, 54, 68
1, 218160, Note_on_c, 9, 69, 44
1, 218160, Note_on_c, 9, 42, 38
1, 218164, Note_on_c, 9, 42, 0
1, 218279, Note_on_c, 9, 54, 0
1, 218279, Note_on_c, 9, 69, 0
1, 218280, Note_on_c, 9, 54, 47
1, 218280, Note_on_c, 9, 82, 44
1, 218399, Note_on_c, 9, 35, 0
1, 218399, Note_on_c, 9, 54, 0
1, 218399, Note_on_c, 9, 82, 0
1, 218400, Note_on_c, 9, 41, 91
1, 218400, Note_on_c, 9, 40, 74
1, 218400, Note_on_c, 9, 45, 100
1, 218400, Note_on_c, 9, 54, 68
1, 218400, Note_on_c, 9, 53, 66
1, 218400, Note_on_c, 9, 69, 44
1, 218400, Note_on_c, 9, 42, 92
1, 218400, Note_on_c, 9, 55, 46
1, 218404, Note_on_c, 9, 42, 0
1, 218404, Note_on_c, 9, 55, 0
1, 218519, Note_on_c, 9, 41, 0
1, 218519, Note_on_c, 9, 40, 0
1, 218519, Note_on_c, 9, 45, 0
1, 218519, Note_on_c, 9, 54, 0
1, 218519, Note_on_c, 9, 53, 0
1, 218519, Note_on_c, 9, 69, 0
1, 218520, Note_on_c, 9, 54, 46
1, 218520, Note_on_c, 9, 82, 44
1, 218520, Note_on_c, 9, 35, 101
1, 218639, Note_on_c, 9, 54, 0
1, 218639, Note_on_c, 9, 82, 0
1, 218640, Note_on_c, 9, 54, 68
1, 218640, Note_on_c, 9, 69, 44
1, 218640, Note_on_c, 9, 42, 47
1, 218644, Note_on_c, 9, 42, 0
1, 218759, Note_on_c, 9, 54, 0
1, 218759, Note_on_c, 9, 69, 0
1, 218760, Note_on_c, 9, 54, 51
1, 218760, Note_on_c, 9, 82, 44
1, 218879, Note_on_c, 9, 35, 0
1, 218879, Note_on_c, 9, 54, 0
1, 218879, Note_on_c, 9, 82, 0
1, 218880, Note_on_c, 9, 40, 86
1, 218880, Note_on_c, 9, 54, 68
1, 218880, Note_on_c, 9, 53, 66
1, 218880, Note_on_c, 9, 69, 44
1, 218880, Note_on_c, 9, 42, 86
1, 218880, Note_on_c, 9, 49, 65
1, 218880, Note_on_c, 9, 55, 46
1, 218880, Note_on_c, 9, 35, 109
1, 218884, Note_on_c, 9, 42, 0
1, 218884, Note_on_c, 9, 49, 0
1, 218884, Note_on_c, 9, 55, 0
1, 218999, Note_on_c, 9, 40, 0
1, 218999, Note_on_c, 9, 54, 0
1, 218999, Note_on_c, 9, 53, 0
1, 218999, Note_on_c, 9, 69, 0
1, 219000, Note_on_c, 9, 54, 41
1, 219000, Note_on_c, 9, 82, 44
1, 219119, Note_on_c, 9, 54, 0
1, 219119, Note_on_c, 9, 82, 0
1, 219120, Note_on_c, 9, 54, 68
1, 219120, Note_on_c, 9, 69, 44
1, 219120, Note_on_c, 9, 42, 36
1, 219124, Note_on_c, 9, 42, 0
1, 219239, Note_on_c, 9, 35, 0
1, 219239, Note_on_c, 9, 54, 0
1, 219239, Note_on_c, 9, 69, 0
1, 219240, Note_on_c, 9, 54, 49
1, 219240, Note_on_c, 9, 82, 44
1, 219240, Note_on_c, 9, 35, 103
1, 219359, Note_on_c, 9, 54, 0
1, 219359, Note_on_c, 9, 82, 0
1, 219359, Note_on_c, 9, 35, 0
1, 219360, Note_on_c, 9, 40, 86
1, 219360, Note_on_c, 9, 54, 68
1, 219360, Note_on_c, 9, 53, 66
1, 219360, Note_on_c, 9, 69, 44
1, 219360, Note_on_c, 9, 42, 91
1, 219360, Note_on_c, 9, 55, 46
1, 219364, Note_on_c, 9, 42, 0
1, 219364, Note_on_c, 9, 55, 0
1, 219479, Note_on_c, 9, 40, 0
1, 219479, Note_on_c, 9, 54, 0
1, 219479, Note_on_c, 9, 53, 0
1, 219479, Note_on_c, 9, 69, 0
1, 219480, Note_on_c, 9, 54, 45
1, 219480, Note_on_c, 9, 82, 44
1, 219599, Note_on_c, 9, 54, 0
1, 219599, Note_on_c, 9, 82, 0
1, 219600, Note_on_c, 9, 54, 68
1, 219600, Note_on_c, 9, 69, 44
1, 219600, Note_on_c, 9, 42, 43
1, 219600, Note_on_c, 9, 35, 97
1, 219604, Note_on_c, 9, 42, 0
1, 219719, Note_on_c, 9, 54, 0
1, 219719, Note_on_c, 9, 69, 0
1, 219720, Note_on_c, 9, 54, 44
1, 219720, Note_on_c, 9, 82, 44
1, 219839, Note_on_c, 9, 35, 0
1, 219839, Note_on_c, 9, 54, 0
1, 219839, Note_on_c, 9, 82, 0
1, 219840, Note_on_c, 9, 40, 86
1, 219840, Note_on_c, 9, 54, 68
1, 219840, Note_on_c, 9, 53, 66
1, 219840, Note_on_c, 9, 69, 44
1, 219840, Note_on_c, 9, 42, 95
1, 219840, Note_on_c, 9, 55, 46
1, 219840, Note_on_c, 9, 35, 109
1, 219844, Note_on_c, 9, 42, 0
1, 219844, Note_on_c, 9, 55, 0
1, 219959, Note_on_c, 9, 40, 0
1, 219959, Note_on_c, 9, 54, 0
1, 219959, Note_on_c, 9, 53, 0
1, 219959, Note_on_c, 9, 69, 0
1, 219960, Note_on_c, 9, 54, 48
1, 219960, Note_on_c, 9, 82, 44
1, 220079, Note_on_c, 9, 54, 0
1, 220079, Note_on_c, 9, 82, 0
1, 220080, Note_on_c, 9, 54, 68
1, 220080, Note_on_c, 9, 69, 44
1, 220080, Note_on_c, 9, 42, 38
1, 220084, Note_on_c, 9, 42, 0
1, 220199, Note_on_c, 9, 35, 0
1, 220199, Note_on_c, 9, 54, 0
1, 220199, Note_on_c, 9, 69, 0
1, 220200, Note_on_c, 9, 54, 47
1, 220200, Note_on_c, 9, 82, 44
1, 220200, Note_on_c, 9, 35, 111
1, 220319, Note_on_c, 9, 54, 0
1, 220319, Note_on_c, 9, 82, 0
1, 220319, Note_on_c, 9, 35, 0
1, 220320, Note_on_c, 9, 40, 86
1, 220320, Note_on_c, 9, 54, 68
1, 220320, Note_on_c, 9, 53, 66
1, 220320, Note_on_c, 9, 69, 44
1, 220320, Note_on_c, 9, 42, 92
1, 220320, Note_on_c, 9, 55, 46
1, 220324, Note_on_c, 9, 42, 0
1, 220324, Note_on_c, 9, 55, 0
1, 220439, Note_on_c, 9, 40, 0
1, 220439, Note_on_c, 9, 54, 0
1, 220439, Note_on_c, 9, 53, 0
1, 220439, Note_on_c, 9, 69, 0
1, 220440, Note_on_c, 9, 54, 46
1, 220440, Note_on_c, 9, 82, 44
1, 220559, Note_on_c, 9, 54, 0
1, 220559, Note_on_c, 9, 82, 0
1, 220560, Note_on_c, 9, 54, 68
1, 220560, Note_on_c, 9, 69, 44
1, 220560, Note_on_c, 9, 42, 47
1, 220560, Note_on_c, 9, 35, 101
1, 220564, Note_on_c, 9, 42, 0
1, 220679, Note_on_c, 9, 54, 0
1, 220679, Note_on_c, 9, 69, 0
1, 220680, Note_on_c, 9, 54, 51
1, 220680, Note_on_c, 9, 82, 44
1, 220799, Note_on_c, 9, 35, 0
1, 220799, Note_on_c, 9, 54, 0
1, 220799, Note_on_c, 9, 82, 0
1, 220800, Note_on_c, 9, 40, 86
1, 220800, Note_on_c, 9, 54, 68
1, 220800, Note_on_c, 9, 53, 66
1, 220800, Note_on_c, 9, 69, 44
1, 220800, Note_on_c, 9, 42, 86
1, 220800, Note_on_c, 9, 55, 46
1, 220800, Note_on_c, 9, 35, 109
1, 220804, Note_on_c, 9, 42, 0
1, 220804, Note_on_c, 9, 55, 0
1, 220919, Note_on_c, 9, 40, 0
1, 220919, Note_on_c, 9, 54, 0
1, 220919, Note_on_c, 9, 53, 0
1, 220919, Note_on_c, 9, 69, 0
1, 220920, Note_on_c, 9, 54, 41
1, 220920, Note_on_c, 9, 82, 44
1, 221039, Note_on_c, 9, 54, 0
1, 221039, Note_on_c, 9, 82, 0
1, 221040, Note_on_c, 9, 54, 68
1, 221040, Note_on_c, 9, 69, 44
1, 221040, Note_on_c, 9, 42, 36
1, 221044, Note_on_c, 9, 42, 0
1, 221159, Note_on_c, 9, 35, 0
1, 221159, Note_on_c, 9, 54, 0
1, 221159, Note_on_c, 9, 69, 0
1, 221160, Note_on_c, 9, 54, 49
1, 221160, Note_on_c, 9, 82, 44
1, 221160, Note_on_c, 9, 35, 103
1, 221279, Note_on_c, 9, 54, 0
1, 221279, Note_on_c, 9, 82, 0
1, 221279, Note_on_c, 9, 35, 0
1, 221280, Note_on_c, 9, 40, 86
1, 221280, Note_on_c, 9, 54, 68
1, 221280, Note_on_c, 9, 53, 66
1, 221280, Note_on_c, 9, 69, 44
1, 221280, Note_on_c, 9, 42, 91
1, 221280, Note_on_c, 9, 55, 46
1, 221284, Note_on_c, 9, 42, 0
1, 221284, Note_on_c, 9, 55, 0
1, 221399, Note_on_c, 9, 40, 0
1, 221399, Note_on_c, 9, 54, 0
1, 221399, Note_on_c, 9, 53, 0
1, 221399, Note_on_c, 9, 69, 0
1, 221400, Note_on_c, 9, 54, 45
1, 221400, Note_on_c, 9, 82, 44
1, 221519, Note_on_c, 9, 54, 0
1, 221519, Note_on_c, 9, 82, 0
1, 221520, Note_on_c, 9, 54, 68
1, 221520, Note_on_c, 9, 69, 44
1, 221520, Note_on_c, 9, 42, 43
1, 221520, Note_on_c, 9, 35, 97
1, 221524, Note_on_c, 9, 42, 0
1, 221639, Note_on_c, 9, 54, 0
1, 221639, Note_on_c, 9, 69, 0
1, 221640, Note_on_c, 9, 54, 44
1, 221640, Note_on_c, 9, 82, 44
1, 221759, Note_on_c, 9, 35, 0
1, 221759, Note_on_c, 9, 54, 0
1, 221759, Note_on_c, 9, 82, 0
1, 221760, Note_on_c, 9, 40, 86
1, 221760, Note_on_c, 9, 54, 68
1, 221760, Note_on_c, 9, 53, 66
1, 221760, Note_on_c, 9, 69, 44
1, 221760, Note_on_c, 9, 42, 95
1, 221760, Note_on_c, 9, 55, 46
1, 221760, Note_on_c, 9, 35, 109
1, 221764, Note_on_c, 9, 42, 0
1, 221764, Note_on_c, 9, 55, 0
1, 221879, Note_on_c, 9, 40, 0
1, 221879, Note_on_c, 9, 54, 0
1, 221879, Note_on_c, 9, 53, 0
1, 221879, Note_on_c, 9, 69, 0
1, 221880, Note_on_c, 9, 54, 48
1, 221880, Note_on_c, 9, 82, 44
1, 221999, Note_on_c, 9, 54, 0
1, 221999, Note_on_c, 9, 82, 0
1, 222000, Note_on_c, 9, 54, 68
1, 222000, Note_on_c, 9, 69, 44
1, 222000, Note_on_c, 9, 42, 38
1, 222004, Note_on_c, 9, 42, 0
1, 222119, Note_on_c, 9, 35, 0
1, 222119, Note_on_c, 9, 54, 0
1, 222119, Note_on_c, 9, 69, 0
1, 222120, Note_on_c, 9, 54, 47
1, 222120, Note_on_c, 9, 82, 44
1, 222120, Note_on_c, 9, 35, 111
1, 222239, Note_on_c, 9, 54, 0
1, 222239, Note_on_c, 9, 82, 0
1, 222239, Note_on_c, 9, 35, 0
1, 222240, Note_on_c, 9, 40, 86
1, 222240, Note_on_c, 9, 54, 68
1, 222240, Note_on_c, 9, 53, 66
1, 222240, Note_on_c, 9, 69, 44
1, 222240, Note_on_c, 9, 42, 92
1, 222240, Note_on_c, 9, 55, 46
1, 222244, Note_on_c, 9, 42, 0
1, 222244, Note_on_c, 9, 55, 0
1, 222359, Note_on_c, 9, 40, 0
1, 222359, Note_on_c, 9, 54, 0
1, 222359, Note_on_c, 9, 53, 0
1, 222359, Note_on_c, 9, 69, 0
1, 222360, Note_on_c, 9, 54, 46
1, 222360, Note_on_c, 9, 82, 44
1, 222479, Note_on_c, 9, 54, 0
1, 222479, Note_on_c, 9, 82, 0
1, 222480, Note_on_c, 9, 54, 68
1, 222480, Note_on_c, 9, 69, 44
1, 222480, Note_on_c, 9, 42, 47
1, 222480, Note_on_c, 9, 35, 101
1, 222484, Note_on_c, 9, 42, 0
1, 222599, Note_on_c, 9, 54, 0
1, 222599, Note_on_c, 9, 69, 0
1, 222600, Note_on_c, 9, 54, 51
1, 222600, Note_on_c, 9, 82, 44
1, 222719, Note_on_c, 9, 35, 0
1, 222719, Note_on_c, 9, 54, 0
1, 222719, Note_on_c, 9, 82, 0
1, 222720, Note_on_c, 9, 40, 86
1, 222720, Note_on_c, 9, 54, 68
1, 222720, Note_on_c, 9, 53, 66
1, 222720, Note_on_c, 9, 69, 44
1, 222720, Note_on_c, 9, 42, 86
1, 222720, Note_on_c, 9, 49, 65
1, 222720, Note_on_c, 9, 55, 46
1, 222720, Note_on_c, 9, 35, 109
1, 222724, Note_on_c, 9, 42, 0
1, 222724, Note_on_c, 9, 49, 0
1, 222724, Note_on_c, 9, 55, 0
1, 222839, Note_on_c, 9, 40, 0
1, 222839, Note_on_c, 9, 54, 0
1, 222839, Note_on_c, 9, 53, 0
1, 222839, Note_on_c, 9, 69, 0
1, 222840, Note_on_c, 9, 54, 41
1, 222840, Note_on_c, 9, 82, 44
1, 222959, Note_on_c, 9, 54, 0
1, 222959, Note_on_c, 9, 82, 0
1, 222960, Note_on_c, 9, 54, 68
1, 222960, Note_on_c, 9, 69, 44
1, 222960, Note_on_c, 9, 42, 36
1, 222964, Note_on_c, 9, 42, 0
1, 223079, Note_on_c, 9, 35, 0
1, 223079, Note_on_c, 9, 54, 0
1, 223079, Note_on_c, 9, 69, 0
1, 223080, Note_on_c, 9, 54, 49
1, 223080, Note_on_c, 9, 82, 44
1, 223080, Note_on_c, 9, 35, 103
1, 223199, Note_on_c, 9, 54, 0
1, 223199, Note_on_c, 9, 82, 0
1, 223199, Note_on_c, 9, 35, 0
1, 223200, Note_on_c, 9, 40, 86
1, 223200, Note_on_c, 9, 54, 68
1, 223200, Note_on_c, 9, 53, 66
1, 223200, Note_on_c, 9, 69, 44
1, 223200, Note_on_c, 9, 42, 91
1, 223200, Note_on_c, 9, 55, 46
1, 223204, Note_on_c, 9, 42, 0
1, 223204, Note_on_c, 9, 55, 0
1, 223319, Note_on_c, 9, 40, 0
1, 223319, Note_on_c, 9, 54, 0
1, 223319, Note_on_c, 9, 53, 0
1, 223319, Note_on_c, 9, 69, 0
1, 223320, Note_on_c, 9, 54, 45
1, 223320, Note_on_c, 9, 82, 44
1, 223439, Note_on_c, 9, 54, 0
1, 223439, Note_on_c, 9, 82, 0
1, 223440, Note_on_c, 9, 54, 68
1, 223440, Note_on_c, 9, 69, 44
1, 223440, Note_on_c, 9, 42, 43
1, 223440, Note_on_c, 9, 35, 97
1, 223444, Note_on_c, 9, 42, 0
1, 223559, Note_on_c, 9, 54, 0
1, 223559, Note_on_c, 9, 69, 0
1, 223560, Note_on_c, 9, 54, 44
1, 223560, Note_on_c, 9, 82, 44
1, 223679, Note_on_c, 9, 35, 0
1, 223679, Note_on_c, 9, 54, 0
1, 223679, Note_on_c, 9, 82, 0
1, 223680, Note_on_c, 9, 40, 86
1, 223680, Note_on_c, 9, 54, 68
1, 223680, Note_on_c, 9, 53, 66
1, 223680, Note_on_c, 9, 69, 44
1, 223680, Note_on_c, 9, 42, 95
1, 223680, Note_on_c, 9, 55, 46
1, 223680, Note_on_c, 9, 35, 109
1, 223684, Note_on_c, 9, 42, 0
1, 223684, Note_on_c, 9, 55, 0
1, 223799, Note_on_c, 9, 40, 0
1, 223799, Note_on_c, 9, 54, 0
1, 223799, Note_on_c, 9, 53, 0
1, 223799, Note_on_c, 9, 69, 0
1, 223800, Note_on_c, 9, 54, 48
1, 223800, Note_on_c, 9, 82, 44
1, 223919, Note_on_c, 9, 54, 0
1, 223919, Note_on_c, 9, 82, 0
1, 223920, Note_on_c, 9, 54, 68
1, 223920, Note_on_c, 9, 69, 44
1, 223920, Note_on_c, 9, 42, 38
1, 223924, Note_on_c, 9, 42, 0
1, 224039, Note_on_c, 9, 35, 0
1, 224039, Note_on_c, 9, 54, 0
1, 224039, Note_on_c, 9, 69, 0
1, 224040, Note_on_c, 9, 54, 47
1, 224040, Note_on_c, 9, 82, 44
1, 224040, Note_on_c, 9, 35, 111
1, 224159, Note_on_c, 9, 54, 0
1, 224159, Note_on_c, 9, 82, 0
1, 224159, Note_on_c, 9, 35, 0
1, 224160, Note_on_c, 9, 40, 86
1, 224160, Note_on_c, 9, 54, 68
1, 224160, Note_on_c, 9, 53, 66
1, 224160, Note_on_c, 9, 69, 44
1, 224160, Note_on_c, 9, 42, 92
1, 224160, Note_on_c, 9, 55, 46
1, 224164, Note_on_c, 9, 42, 0
1, 224164, Note_on_c, 9, 55, 0
1, 224279, Note_on_c, 9, 40, 0
1, 224279, Note_on_c, 9, 54, 0
1, 224279, Note_on_c, 9, 53, 0
1, 224279, Note_on_c, 9, 69, 0
1, 224280, Note_on_c, 9, 54, 46
1, 224280, Note_on_c, 9, 82, 44
1, 224399, Note_on_c, 9, 54, 0
1, 224399, Note_on_c, 9, 82, 0
1, 224400, Note_on_c, 9, 54, 68
1, 224400, Note_on_c, 9, 69, 44
1, 224400, Note_on_c, 9, 42, 47
1, 224400, Note_on_c, 9, 35, 101
1, 224404, Note_on_c, 9, 42, 0
1, 224519, Note_on_c, 9, 54, 0
1, 224519, Note_on_c, 9, 69, 0
1, 224520, Note_on_c, 9, 54, 51
1, 224520, Note_on_c, 9, 82, 44
1, 224639, Note_on_c, 9, 35, 0
1, 224639, Note_on_c, 9, 54, 0
1, 224639, Note_on_c, 9, 82, 0
1, 224640, Note_on_c, 9, 40, 86
1, 224640, Note_on_c, 9, 54, 68
1, 224640, Note_on_c, 9, 53, 66
1, 224640, Note_on_c, 9, 69, 44
1, 224640, Note_on_c, 9, 42, 86
1, 224640, Note_on_c, 9, 55, 46
1, 224640, Note_on_c, 9, 35, 109
1, 224644, Note_on_c, 9, 42, 0
1, 224644, Note_on_c, 9, 55, 0
1, 224759, Note_on_c, 9, 40, 0
1, 224759, Note_on_c, 9, 54, 0
1, 224759, Note_on_c, 9, 53, 0
1, 224759, Note_on_c, 9, 69, 0
1, 224760, Note_on_c, 9, 54, 41
1, 224760, Note_on_c, 9, 82, 44
1, 224879, Note_on_c, 9, 35, 0
1, 224879, Note_on_c, 9, 54, 0
1, 224879, Note_on_c, 9, 82, 0
1, 224880, Note_on_c, 9, 54, 68
1, 224880, Note_on_c, 9, 69, 44
1, 224880, Note_on_c, 9, 42, 36
1, 224880, Note_on_c, 9, 35, 109
1, 224884, Note_on_c, 9, 42, 0
1, 224999, Note_on_c, 9, 54, 0
1, 224999, Note_on_c, 9, 69, 0
1, 224999, Note_on_c, 9, 35, 0
1, 225000, Note_on_c, 9, 54, 49
1, 225000, Note_on_c, 9, 82, 44
1, 225000, Note_on_c, 9, 35, 103
1, 225119, Note_on_c, 9, 54, 0
1, 225119, Note_on_c, 9, 82, 0
1, 225119, Note_on_c, 9, 35, 0
1, 225120, Note_on_c, 9, 40, 86
1, 225120, Note_on_c, 9, 54, 68
1, 225120, Note_on_c, 9, 53, 66
1, 225120, Note_on_c, 9, 69, 44
1, 225120, Note_on_c, 9, 42, 91
1, 225120, Note_on_c, 9, 55, 46
1, 225124, Note_on_c, 9, 42, 0
1, 225124, Note_on_c, 9, 55, 0
1, 225239, Note_on_c, 9, 40, 0
1, 225239, Note_on_c, 9, 54, 0
1, 225239, Note_on_c, 9, 53, 0
1, 225239, Note_on_c, 9, 69, 0
1, 225240, Note_on_c, 9, 54, 45
1, 225240, Note_on_c, 9, 82, 44
1, 225240, Note_on_c, 9, 35, 103
1, 225359, Note_on_c, 9, 54, 0
1, 225359, Note_on_c, 9, 82, 0
1, 225360, Note_on_c, 9, 54, 68
1, 225360, Note_on_c, 9, 69, 44
1, 225360, Note_on_c, 9, 42, 43
1, 225364, Note_on_c, 9, 42, 0
1, 225479, Note_on_c, 9, 35, 0
1, 225479, Note_on_c, 9, 54, 0
1, 225479, Note_on_c, 9, 69, 0
1, 225480, Note_on_c, 9, 54, 44
1, 225480, Note_on_c, 9, 82, 44
1, 225480, Note_on_c, 9, 35, 97
1, 225599, Note_on_c, 9, 54, 0
1, 225599, Note_on_c, 9, 82, 0
1, 225599, Note_on_c, 9, 35, 0
1, 225600, Note_on_c, 9, 40, 86
1, 225600, Note_on_c, 9, 54, 68
1, 225600, Note_on_c, 9, 53, 66
1, 225600, Note_on_c, 9, 69, 44
1, 225600, Note_on_c, 9, 42, 95
1, 225600, Note_on_c, 9, 55, 46
1, 225600, Note_on_c, 9, 35, 109
1, 225604, Note_on_c, 9, 42, 0
1, 225604, Note_on_c, 9, 55, 0
1, 225719, Note_on_c, 9, 40, 0
1, 225719, Note_on_c, 9, 54, 0
1, 225719, Note_on_c, 9, 53, 0
1, 225719, Note_on_c, 9, 69, 0
1, 225719, Note_on_c, 9, 35, 0
1, 225720, Note_on_c, 9, 54, 48
1, 225720, Note_on_c, 9, 82, 44
1, 225720, Note_on_c, 9, 35, 103
1, 225839, Note_on_c, 9, 54, 0
1, 225839, Note_on_c, 9, 82, 0
1, 225840, Note_on_c, 9, 54, 68
1, 225840, Note_on_c, 9, 69, 44
1, 225840, Note_on_c, 9, 42, 38
1, 225844, Note_on_c, 9, 42, 0
1, 225959, Note_on_c, 9, 35, 0
1, 225959, Note_on_c, 9, 54, 0
1, 225959, Note_on_c, 9, 69, 0
1, 225960, Note_on_c, 9, 54, 47
1, 225960, Note_on_c, 9, 82, 44
1, 225960, Note_on_c, 9, 35, 111
1, 226079, Note_on_c, 9, 54, 0
1, 226079, Note_on_c, 9, 82, 0
1, 226079, Note_on_c, 9, 35, 0
1, 226080, Note_on_c, 9, 40, 86
1, 226080, Note_on_c, 9, 54, 68
1, 226080, Note_on_c, 9, 53, 66
1, 226080, Note_on_c, 9, 69, 44
1, 226080, Note_on_c, 9, 42, 92
1, 226080, Note_on_c, 9, 55, 46
1, 226084, Note_on_c, 9, 42, 0
1, 226084, Note_on_c, 9, 55, 0
1, 226199, Note_on_c, 9, 40, 0
1, 226199, Note_on_c, 9, 54, 0
1, 226199, Note_on_c, 9, 53, 0
1, 226199, Note_on_c, 9, 69, 0
1, 226200, Note_on_c, 9, 54, 46
1, 226200, Note_on_c, 9, 82, 44
1, 226319, Note_on_c, 9, 54, 0
1, 226319, Note_on_c, 9, 82, 0
1, 226320, Note_on_c, 9, 54, 68
1, 226320, Note_on_c, 9, 69, 44
1, 226320, Note_on_c, 9, 42, 47
1, 226320, Note_on_c, 9, 35, 101
1, 226324, Note_on_c, 9, 42, 0
1, 226439, Note_on_c, 9, 54, 0
1, 226439, Note_on_c, 9, 69, 0
1, 226440, Note_on_c, 9, 54, 51
1, 226440, Note_on_c, 9, 82, 44
1, 226559, Note_on_c, 9, 35, 0
1, 226559, Note_on_c, 9, 54, 0
1, 226559, Note_on_c, 9, 82, 0
1, 226560, Note_on_c, 9, 40, 86
1, 226560, Note_on_c, 9, 54, 68
1, 226560, Note_on_c, 9, 53, 66
1, 226560, Note_on_c, 9, 69, 44
1, 226560, Note_on_c, 9, 42, 86
1, 226560, Note_on_c, 9, 49, 65
1, 226560, Note_on_c, 9, 55, 46
1, 226560, Note_on_c, 9, 35, 109
1, 226564, Note_on_c, 9, 42, 0
1, 226564, Note_on_c, 9, 49, 0
1, 226564, Note_on_c, 9, 55, 0
1, 226679, Note_on_c, 9, 40, 0
1, 226679, Note_on_c, 9, 54, 0
1, 226679, Note_on_c, 9, 53, 0
1, 226679, Note_on_c, 9, 69, 0
1, 226680, Note_on_c, 9, 54, 41
1, 226680, Note_on_c, 9, 82, 44
1, 226799, Note_on_c, 9, 54, 0
1, 226799, Note_on_c, 9, 82, 0
1, 226800, Note_on_c, 9, 54, 68
1, 226800, Note_on_c, 9, 69, 44
1, 226800, Note_on_c, 9, 42, 36
1, 226804, Note_on_c, 9, 42, 0
1, 226919, Note_on_c, 9, 35, 0
1, 226919, Note_on_c, 9, 54, 0
1, 226919, Note_on_c, 9, 69, 0
1, 226920, Note_on_c, 9, 54, 49
1, 226920, Note_on_c, 9, 82, 44
1, 226920, Note_on_c, 9, 35, 103
1, 227039, Note_on_c, 9, 54, 0
1, 227039, Note_on_c, 9, 82, 0
1, 227039, Note_on_c, 9, 35, 0
1, 227040, Note_on_c, 9, 40, 86
1, 227040, Note_on_c, 9, 54, 68
1, 227040, Note_on_c, 9, 53, 66
1, 227040, Note_on_c, 9, 69, 44
1, 227040, Note_on_c, 9, 42, 91
1, 227040, Note_on_c, 9, 55, 46
1, 227044, Note_on_c, 9, 42, 0
1, 227044, Note_on_c, 9, 55, 0
1, 227159, Note_on_c, 9, 40, 0
1, 227159, Note_on_c, 9, 54, 0
1, 227159, Note_on_c, 9, 53, 0
1, 227159, Note_on_c, 9, 69, 0
1, 227160, Note_on_c, 9, 54, 45
1, 227160, Note_on_c, 9, 82, 44
1, 227279, Note_on_c, 9, 54, 0
1, 227279, Note_on_c, 9, 82, 0
1, 227280, Note_on_c, 9, 54, 68
1, 227280, Note_on_c, 9, 69, 44
1, 227280, Note_on_c, 9, 42, 43
1, 227280, Note_on_c, 9, 35, 97
1, 227284, Note_on_c, 9, 42, 0
1, 227399, Note_on_c, 9, 54, 0
1, 227399, Note_on_c, 9, 69, 0
1, 227400, Note_on_c, 9, 54, 44
1, 227400, Note_on_c, 9, 82, 44
1, 227519, Note_on_c, 9, 35, 0
1, 227519, Note_on_c, 9, 54, 0
1, 227519, Note_on_c, 9, 82, 0
1, 227520, Note_on_c, 9, 40, 86
1, 227520, Note_on_c, 9, 54, 68
1, 227520, Note_on_c, 9, 53, 66
1, 227520, Note_on_c, 9, 69, 44
1, 227520, Note_on_c, 9, 42, 95
1, 227520, Note_on_c, 9, 55, 46
1, 227520, Note_on_c, 9, 35, 109
1, 227524, Note_on_c, 9, 42, 0
1, 227524, Note_on_c, 9, 55, 0
1, 227639, Note_on_c, 9, 40, 0
1, 227639, Note_on_c, 9, 54, 0
1, 227639, Note_on_c, 9, 53, 0
1, 227639, Note_on_c, 9, 69, 0
1, 227640, Note_on_c, 9, 54, 48
1, 227640, Note_on_c, 9, 82, 44
1, 227759, Note_on_c, 9, 54, 0
1, 227759, Note_on_c, 9, 82, 0
1, 227760, Note_on_c, 9, 54, 68
1, 227760, Note_on_c, 9, 69, 44
1, 227760, Note_on_c, 9, 42, 38
1, 227764, Note_on_c, 9, 42, 0
1, 227879, Note_on_c, 9, 35, 0
1, 227879, Note_on_c, 9, 54, 0
1, 227879, Note_on_c, 9, 69, 0
1, 227880, Note_on_c, 9, 54, 47
1, 227880, Note_on_c, 9, 82, 44
1, 227880, Note_on_c, 9, 35, 111
1, 227999, Note_on_c, 9, 54, 0
1, 227999, Note_on_c, 9, 82, 0
1, 227999, Note_on_c, 9, 35, 0
1, 228000, Note_on_c, 9, 40, 86
1, 228000, Note_on_c, 9, 54, 68
1, 228000, Note_on_c, 9, 53, 66
1, 228000, Note_on_c, 9, 69, 44
1, 228000, Note_on_c, 9, 42, 92
1, 228000, Note_on_c, 9, 55, 46
1, 228004, Note_on_c, 9, 42, 0
1, 228004, Note_on_c, 9, 55, 0
1, 228119, Note_on_c, 9, 40, 0
1, 228119, Note_on_c, 9, 54, 0
1, 228119, Note_on_c, 9, 53, 0
1, 228119, Note_on_c, 9, 69, 0
1, 228120, Note_on_c, 9, 54, 46
1, 228120, Note_on_c, 9, 82, 44
1, 228239, Note_on_c, 9, 54, 0
1, 228239, Note_on_c, 9, 82, 0
1, 228240, Note_on_c, 9, 54, 68
1, 228240, Note_on_c, 9, 69, 44
1, 228240, Note_on_c, 9, 42, 47
1, 228240, Note_on_c, 9, 35, 101
1, 228244, Note_on_c, 9, 42, 0
1, 228359, Note_on_c, 9, 54, 0
1, 228359, Note_on_c, 9, 69, 0
1, 228360, Note_on_c, 9, 54, 51
1, 228360, Note_on_c, 9, 82, 44
1, 228479, Note_on_c, 9, 35, 0
1, 228479, Note_on_c, 9, 54, 0
1, 228479, Note_on_c, 9, 82, 0
1, 228480, Note_on_c, 9, 40, 86
1, 228480, Note_on_c, 9, 54, 68
1, 228480, Note_on_c, 9, 53, 66
1, 228480, Note_on_c, 9, 69, 44
1, 228480, Note_on_c, 9, 42, 86
1, 228480, Note_on_c, 9, 55, 46
1, 228480, Note_on_c, 9, 35, 109
1, 228484, Note_on_c, 9, 42, 0
1, 228484, Note_on_c, 9, 55, 0
1, 228599, Note_on_c, 9, 40, 0
1, 228599, Note_on_c, 9, 54, 0
1, 228599, Note_on_c, 9, 53, 0
1, 228599, Note_on_c, 9, 69, 0
1, 228600, Note_on_c, 9, 54, 41
1, 228600, Note_on_c, 9, 82, 44
1, 228719, Note_on_c, 9, 54, 0
1, 228719, Note_on_c, 9, 82, 0
1, 228720, Note_on_c, 9, 54, 68
1, 228720, Note_on_c, 9, 69, 44
1, 228720, Note_on_c, 9, 42, 36
1, 228724, Note_on_c, 9, 42, 0
1, 228839, Note_on_c, 9, 35, 0
1, 228839, Note_on_c, 9, 54, 0
1, 228839, Note_on_c, 9, 69, 0
1, 228840, Note_on_c, 9, 54, 49
1, 228840, Note_on_c, 9, 82, 44
1, 228840, Note_on_c, 9, 35, 103
1, 228959, Note_on_c, 9, 54, 0
1, 228959, Note_on_c, 9, 82, 0
1, 228959, Note_on_c, 9, 35, 0
1, 228960, Note_on_c, 9, 40, 86
1, 228960, Note_on_c, 9, 54, 68
1, 228960, Note_on_c, 9, 53, 66
1, 228960, Note_on_c, 9, 69, 44
1, 228960, Note_on_c, 9, 42, 91
1, 228960, Note_on_c, 9, 55, 46
1, 228964, Note_on_c, 9, 42, 0
1, 228964, Note_on_c, 9, 55, 0
1, 229079, Note_on_c, 9, 40, 0
1, 229079, Note_on_c, 9, 54, 0
1, 229079, Note_on_c, 9, 53, 0
1, 229079, Note_on_c, 9, 69, 0
1, 229080, Note_on_c, 9, 54, 45
1, 229080, Note_on_c, 9, 82, 44
1, 229199, Note_on_c, 9, 54, 0
1, 229199, Note_on_c, 9, 82, 0
1, 229200, Note_on_c, 9, 54, 68
1, 229200, Note_on_c, 9, 69, 44
1, 229200, Note_on_c, 9, 42, 43
1, 229200, Note_on_c, 9, 35, 97
1, 229204, Note_on_c, 9, 42, 0
1, 229319, Note_on_c, 9, 54, 0
1, 229319, Note_on_c, 9, 69, 0
1, 229320, Note_on_c, 9, 54, 44
1, 229320, Note_on_c, 9, 82, 44
1, 229439, Note_on_c, 9, 35, 0
1, 229439, Note_on_c, 9, 54, 0
1, 229439, Note_on_c, 9, 82, 0
1, 229440, Note_on_c, 9, 40, 86
1, 229440, Note_on_c, 9, 54, 68
1, 229440, Note_on_c, 9, 53, 66
1, 229440, Note_on_c, 9, 69, 44
1, 229440, Note_on_c, 9, 42, 95
1, 229440, Note_on_c, 9, 55, 46
1, 229440, Note_on_c, 9, 35, 109
1, 229444, Note_on_c, 9, 42, 0
1, 229444, Note_on_c, 9, 55, 0
1, 229559, Note_on_c, 9, 40, 0
1, 229559, Note_on_c, 9, 54, 0
1, 229559, Note_on_c, 9, 53, 0
1, 229559, Note_on_c, 9, 69, 0
1, 229560, Note_on_c, 9, 54, 48
1, 229560, Note_on_c, 9, 82, 44
1, 229679, Note_on_c, 9, 54, 0
1, 229679, Note_on_c, 9, 82, 0
1, 229680, Note_on_c, 9, 54, 68
1, 229680, Note_on_c, 9, 69, 44
1, 229680, Note_on_c, 9, 42, 38
1, 229684, Note_on_c, 9, 42, 0
1, 229799, Note_on_c, 9, 35, 0
1, 229799, Note_on_c, 9, 54, 0
1, 229799, Note_on_c, 9, 69, 0
1, 229800, Note_on_c, 9, 54, 47
1, 229800, Note_on_c, 9, 82, 44
1, 229800, Note_on_c, 9, 35, 111
1, 229919, Note_on_c, 9, 54, 0
1, 229919, Note_on_c, 9, 82, 0
1, 229919, Note_on_c, 9, 35, 0
1, 229920, Note_on_c, 9, 40, 86
1, 229920, Note_on_c, 9, 54, 68
1, 229920, Note_on_c, 9, 53, 66
1, 229920, Note_on_c, 9, 69, 44
1, 229920, Note_on_c, 9, 42, 92
1, 229920, Note_on_c, 9, 55, 46
1, 229924, Note_on_c, 9, 42, 0
1, 229924, Note_on_c, 9, 55, 0
1, 230039, Note_on_c, 9, 40, 0
1, 230039, Note_on_c, 9, 54, 0
1, 230039, Note_on_c, 9, 53, 0
1, 230039, Note_on_c, 9, 69, 0
1, 230040, Note_on_c, 9, 54, 46
1, 230040, Note_on_c, 9, 82, 44
1, 230159, Note_on_c, 9, 54, 0
1, 230159, Note_on_c, 9, 82, 0
1, 230160, Note_on_c, 9, 54, 68
1, 230160, Note_on_c, 9, 69, 44
1, 230160, Note_on_c, 9, 42, 47
1, 230160, Note_on_c, 9, 35, 101
1, 230164, Note_on_c, 9, 42, 0
1, 230279, Note_on_c, 9, 54, 0
1, 230279, Note_on_c, 9, 69, 0
1, 230280, Note_on_c, 9, 54, 51
1, 230280, Note_on_c, 9, 82, 44
1, 230399, Note_on_c, 9, 35, 0
1, 230399, Note_on_c, 9, 54, 0
1, 230399, Note_on_c, 9, 82, 0
1, 230400, Note_on_c, 9, 40, 86
1, 230400, Note_on_c, 9, 54, 68
1, 230400, Note_on_c, 9, 53, 66
1, 230400, Note_on_c, 9, 69, 44
1, 230400, Note_on_c, 9, 42, 86
1, 230400, Note_on_c, 9, 49, 65
1, 230400, Note_on_c, 9, 55, 46
1, 230400, Note_on_c, 9, 35, 109
1, 230404, Note_on_c, 9, 42, 0
1, 230404, Note_on_c, 9, 49, 0
1, 230404, Note_on_c, 9, 55, 0
1, 230519, Note_on_c, 9, 40, 0
1, 230519, Note_on_c, 9, 54, 0
1, 230519, Note_on_c, 9, 53, 0
1, 230519, Note_on_c, 9, 69, 0
1, 230520, Note_on_c, 9, 54, 41
1, 230520, Note_on_c, 9, 82, 44
1, 230639, Note_on_c, 9, 54, 0
1, 230639, Note_on_c, 9, 82, 0
1, 230640, Note_on_c, 9, 54, 68
1, 230640, Note_on_c, 9, 69, 44
1, 230640, Note_on_c, 9, 42, 36
1, 230644, Note_on_c, 9, 42, 0
1, 230759, Note_on_c, 9, 35, 0
1, 230759, Note_on_c, 9, 54, 0
1, 230759, Note_on_c, 9, 69, 0
1, 230760, Note_on_c, 9, 54, 49
1, 230760, Note_on_c, 9, 82, 44
1, 230760, Note_on_c, 9, 35, 103
1, 230879, Note_on_c, 9, 54, 0
1, 230879, Note_on_c, 9, 82, 0
1, 230879, Note_on_c, 9, 35, 0
1, 230880, Note_on_c, 9, 40, 86
1, 230880, Note_on_c, 9, 54, 68
1, 230880, Note_on_c, 9, 53, 66
1, 230880, Note_on_c, 9, 69, 44
1, 230880, Note_on_c, 9, 42, 91
1, 230880, Note_on_c, 9, 55, 46
1, 230884, Note_on_c, 9, 42, 0
1, 230884, Note_on_c, 9, 55, 0
1, 230999, Note_on_c, 9, 40, 0
1, 230999, Note_on_c, 9, 54, 0
1, 230999, Note_on_c, 9, 53, 0
1, 230999, Note_on_c, 9, 69, 0
1, 231000, Note_on_c, 9, 54, 45
1, 231000, Note_on_c, 9, 82, 44
1, 231119, Note_on_c, 9, 54, 0
1, 231119, Note_on_c, 9, 82, 0
1, 231120, Note_on_c, 9, 54, 68
1, 231120, Note_on_c, 9, 69, 44
1, 231120, Note_on_c, 9, 42, 43
1, 231120, Note_on_c, 9, 35, 97
1, 231124, Note_on_c, 9, 42, 0
1, 231239, Note_on_c, 9, 54, 0
1, 231239, Note_on_c, 9, 69, 0
1, 231240, Note_on_c, 9, 54, 44
1, 231240, Note_on_c, 9, 82, 44
1, 231359, Note_on_c, 9, 35, 0
1, 231359, Note_on_c, 9, 54, 0
1, 231359, Note_on_c, 9, 82, 0
1, 231360, Note_on_c, 9, 40, 86
1, 231360, Note_on_c, 9, 54, 68
1, 231360, Note_on_c, 9, 53, 66
1, 231360, Note_on_c, 9, 69, 44
1, 231360, Note_on_c, 9, 42, 95
1, 231360, Note_on_c, 9, 55, 46
1, 231360, Note_on_c, 9, 35, 109
1, 231364, Note_on_c, 9, 42, 0
1, 231364, Note_on_c, 9, 55, 0
1, 231479, Note_on_c, 9, 40, 0
1, 231479, Note_on_c, 9, 54, 0
1, 231479, Note_on_c, 9, 53, 0
1, 231479, Note_on_c, 9, 69, 0
1, 231480, Note_on_c, 9, 54, 48
1, 231480, Note_on_c, 9, 82, 44
1, 231599, Note_on_c, 9, 54, 0
1, 231599, Note_on_c, 9, 82, 0
1, 231600, Note_on_c, 9, 54, 68
1, 231600, Note_on_c, 9, 69, 44
1, 231600, Note_on_c, 9, 42, 38
1, 231604, Note_on_c, 9, 42, 0
1, 231719, Note_on_c, 9, 35, 0
1, 231719, Note_on_c, 9, 54, 0
1, 231719, Note_on_c, 9, 69, 0
1, 231720, Note_on_c, 9, 54, 47
1, 231720, Note_on_c, 9, 82, 44
1, 231720, Note_on_c, 9, 35, 111
1, 231839, Note_on_c, 9, 54, 0
1, 231839, Note_on_c, 9, 82, 0
1, 231839, Note_on_c, 9, 35, 0
1, 231840, Note_on_c, 9, 40, 86
1, 231840, Note_on_c, 9, 54, 68
1, 231840, Note_on_c, 9, 53, 66
1, 231840, Note_on_c, 9, 69, 44
1, 231840, Note_on_c, 9, 42, 92
1, 231840, Note_on_c, 9, 55, 46
1, 231844, Note_on_c, 9, 42, 0
1, 231844, Note_on_c, 9, 55, 0
1, 231959, Note_on_c, 9, 40, 0
1, 231959, Note_on_c, 9, 54, 0
1, 231959, Note_on_c, 9, 53, 0
1, 231959, Note_on_c, 9, 69, 0
1, 231960, Note_on_c, 9, 54, 46
1, 231960, Note_on_c, 9, 82, 44
1, 232079, Note_on_c, 9, 54, 0
1, 232079, Note_on_c, 9, 82, 0
1, 232080, Note_on_c, 9, 54, 68
1, 232080, Note_on_c, 9, 69, 44
1, 232080, Note_on_c, 9, 42, 47
1, 232080, Note_on_c, 9, 35, 101
1, 232084, Note_on_c, 9, 42, 0
1, 232199, Note_on_c, 9, 54, 0
1, 232199, Note_on_c, 9, 69, 0
1, 232200, Note_on_c, 9, 54, 51
1, 232200, Note_on_c, 9, 82, 44
1, 232319, Note_on_c, 9, 35, 0
1, 232319, Note_on_c, 9, 54, 0
1, 232319, Note_on_c, 9, 82, 0
1, 232320, Note_on_c, 9, 40, 86
1, 232320, Note_on_c, 9, 54, 68
1, 232320, Note_on_c, 9, 53, 66
1, 232320, Note_on_c, 9, 69, 44
1, 232320, Note_on_c, 9, 42, 86
1, 232320, Note_on_c, 9, 55, 46
1, 232320, Note_on_c, 9, 35, 109
1, 232324, Note_on_c, 9, 42, 0
1, 232324, Note_on_c, 9, 55, 0
1, 232439, Note_on_c, 9, 40, 0
1, 232439, Note_on_c, 9, 54, 0
1, 232439, Note_on_c, 9, 53, 0
1, 232439, Note_on_c, 9, 69, 0
1, 232440, Note_on_c, 9, 54, 41
1, 232440, Note_on_c, 9, 82, 44
1, 232559, Note_on_c, 9, 35, 0
1, 232559, Note_on_c, 9, 54, 0
1, 232559, Note_on_c, 9, 82, 0
1, 232560, Note_on_c, 9, 54, 68
1, 232560, Note_on_c, 9, 69, 44
1, 232560, Note_on_c, 9, 42, 36
1, 232560, Note_on_c, 9, 35, 109
1, 232564, Note_on_c, 9, 42, 0
1, 232679, Note_on_c, 9, 54, 0
1, 232679, Note_on_c, 9, 69, 0
1, 232679, Note_on_c, 9, 35, 0
1, 232680, Note_on_c, 9, 54, 49
1, 232680, Note_on_c, 9, 82, 44
1, 232680, Note_on_c, 9, 35, 103
1, 232799, Note_on_c, 9, 54, 0
1, 232799, Note_on_c, 9, 82, 0
1, 232799, Note_on_c, 9, 35, 0
1, 232800, Note_on_c, 9, 40, 86
1, 232800, Note_on_c, 9, 54, 68
1, 232800, Note_on_c, 9, 53, 66
1, 232800, Note_on_c, 9, 69, 44
1, 232800, Note_on_c, 9, 42, 91
1, 232800, Note_on_c, 9, 55, 46
1, 232804, Note_on_c, 9, 42, 0
1, 232804, Note_on_c, 9, 55, 0
1, 232919, Note_on_c, 9, 40, 0
1, 232919, Note_on_c, 9, 54, 0
1, 232919, Note_on_c, 9, 53, 0
1, 232919, Note_on_c, 9, 69, 0
1, 232920, Note_on_c, 9, 54, 45
1, 232920, Note_on_c, 9, 82, 44
1, 232920, Note_on_c, 9, 35, 103
1, 233039, Note_on_c, 9, 54, 0
1, 233039, Note_on_c, 9, 82, 0
1, 233040, Note_on_c, 9, 54, 68
1, 233040, Note_on_c, 9, 69, 44
1, 233040, Note_on_c, 9, 42, 43
1, 233044, Note_on_c, 9, 42, 0
1, 233159, Note_on_c, 9, 35, 0
1, 233159, Note_on_c, 9, 54, 0
1, 233159, Note_on_c, 9, 69, 0
1, 233160, Note_on_c, 9, 54, 44
1, 233160, Note_on_c, 9, 82, 44
1, 233160, Note_on_c, 9, 35, 97
1, 233279, Note_on_c, 9, 54, 0
1, 233279, Note_on_c, 9, 82, 0
1, 233279, Note_on_c, 9, 35, 0
1, 233280, Note_on_c, 9, 40, 86
1, 233280, Note_on_c, 9, 54, 68
1, 233280, Note_on_c, 9, 53, 66
1, 233280, Note_on_c, 9, 69, 44
1, 233280, Note_on_c, 9, 42, 95
1, 233280, Note_on_c, 9, 55, 46
1, 233280, Note_on_c, 9, 35, 109
1, 233284, Note_on_c, 9, 42, 0
1, 233284, Note_on_c, 9, 55, 0
1, 233399, Note_on_c, 9, 40, 0
1, 233399, Note_on_c, 9, 54, 0
1, 233399, Note_on_c, 9, 53, 0
1, 233399, Note_on_c, 9, 69, 0
1, 233399, Note_on_c, 9, 35, 0
1, 233400, Note_on_c, 9, 54, 48
1, 233400, Note_on_c, 9, 82, 44
1, 233400, Note_on_c, 9, 35, 103
1, 233519, Note_on_c, 9, 54, 0
1, 233519, Note_on_c, 9, 82, 0
1, 233520, Note_on_c, 9, 54, 68
1, 233520, Note_on_c, 9, 69, 44
1, 233520, Note_on_c, 9, 42, 38
1, 233524, Note_on_c, 9, 42, 0
1, 233639, Note_on_c, 9, 35, 0
1, 233639, Note_on_c, 9, 54, 0
1, 233639, Note_on_c, 9, 69, 0
1, 233640, Note_on_c, 9, 54, 47
1, 233640, Note_on_c, 9, 82, 44
1, 233640, Note_on_c, 9, 35, 111
1, 233759, Note_on_c, 9, 54, 0
1, 233759, Note_on_c, 9, 82, 0
1, 233759, Note_on_c, 9, 35, 0
1, 233760, Note_on_c, 9, 40, 86
1, 233760, Note_on_c, 9, 54, 68
1, 233760, Note_on_c, 9, 53, 66
1, 233760, Note_on_c, 9, 69, 44
1, 233760, Note_on_c, 9, 42, 92
1, 233760, Note_on_c, 9, 55, 46
1, 233764, Note_on_c, 9, 42, 0
1, 233764, Note_on_c, 9, 55, 0
1, 233879, Note_on_c, 9, 40, 0
1, 233879, Note_on_c, 9, 54, 0
1, 233879, Note_on_c, 9, 53, 0
1, 233879, Note_on_c, 9, 69, 0
1, 233880, Note_on_c, 9, 40, 86
1, 233880, Note_on_c, 9, 54, 46
1, 233880, Note_on_c, 9, 82, 44
1, 233999, Note_on_c, 9, 40, 0
1, 233999, Note_on_c, 9, 54, 0
1, 233999, Note_on_c, 9, 82, 0
1, 234000, Note_on_c, 9, 54, 68
1, 234000, Note_on_c, 9, 69, 44
1, 234000, Note_on_c, 9, 42, 47
1, 234000, Note_on_c, 9, 35, 101
1, 234004, Note_on_c, 9, 42, 0
1, 234119, Note_on_c, 9, 54, 0
1, 234119, Note_on_c, 9, 69, 0
1, 234120, Note_on_c, 9, 54, 51
1, 234120, Note_on_c, 9, 82, 44
1, 234239, Note_on_c, 9, 35, 0
1, 234239, Note_on_c, 9, 54, 0
1, 234239, Note_on_c, 9, 82, 0
1, 234240, Note_on_c, 9, 40, 86
1, 234240, Note_on_c, 9, 54, 68
1, 234240, Note_on_c, 9, 53, 66
1, 234240, Note_on_c, 9, 69, 44
1, 234240, Note_on_c, 9, 42, 86
1, 234240, Note_on_c, 9, 49, 65
1, 234240, Note_on_c, 9, 55, 46
1, 234240, Note_on_c, 9, 35, 109
1, 234244, Note_on_c, 9, 42, 0
1, 234244, Note_on_c, 9, 49, 0
1, 234244, Note_on_c, 9, 55, 0
1, 234359, Note_on_c, 9, 40, 0
1, 234359, Note_on_c, 9, 54, 0
1, 234359, Note_on_c, 9, 53, 0
1, 234359, Note_on_c, 9, 69, 0
1, 234360, Note_on_c, 9, 54, 41
1, 234360, Note_on_c, 9, 82, 44
1, 234479, Note_on_c, 9, 54, 0
1, 234479, Note_on_c, 9, 82, 0
1, 234480, Note_on_c, 9, 54, 68
1, 234480, Note_on_c, 9, 69, 44
1, 234480, Note_on_c, 9, 42, 36
1, 234484, Note_on_c, 9, 42, 0
1, 234599, Note_on_c, 9, 35, 0
1, 234599, Note_on_c, 9, 54, 0
1, 234599, Note_on_c, 9, 69, 0
1, 234600, Note_on_c, 9, 54, 49
1, 234600, Note_on_c, 9, 82, 44
1, 234600, Note_on_c, 9, 35, 103
1, 234719, Note_on_c, 9, 54, 0
1, 234719, Note_on_c, 9, 82, 0
1, 234719, Note_on_c, 9, 35, 0
1, 234720, Note_on_c, 9, 40, 86
1, 234720, Note_on_c, 9, 54, 68
1, 234720, Note_on_c, 9, 53, 66
1, 234720, Note_on_c, 9, 69, 44
1, 234720, Note_on_c, 9, 42, 91
1, 234720, Note_on_c, 9, 55, 46
1, 234724, Note_on_c, 9, 42, 0
1, 234724, Note_on_c, 9, 55, 0
1, 234839, Note_on_c, 9, 40, 0
1, 234839, Note_on_c, 9, 54, 0
1, 234839, Note_on_c, 9, 53, 0
1, 234839, Note_on_c, 9, 69, 0
1, 234840, Note_on_c, 9, 54, 45
1, 234840, Note_on_c, 9, 82, 44
1, 234959, Note_on_c, 9, 54, 0
1, 234959, Note_on_c, 9, 82, 0
1, 234960, Note_on_c, 9, 54, 68
1, 234960, Note_on_c, 9, 69, 44
1, 234960, Note_on_c, 9, 42, 43
1, 234960, Note_on_c, 9, 35, 97
1, 234964, Note_on_c, 9, 42, 0
1, 235079, Note_on_c, 9, 54, 0
1, 235079, Note_on_c, 9, 69, 0
1, 235080, Note_on_c, 9, 54, 44
1, 235080, Note_on_c, 9, 82, 44
1, 235199, Note_on_c, 9, 35, 0
1, 235199, Note_on_c, 9, 54, 0
1, 235199, Note_on_c, 9, 82, 0
1, 235200, Note_on_c, 9, 40, 86
1, 235200, Note_on_c, 9, 54, 68
1, 235200, Note_on_c, 9, 53, 66
1, 235200, Note_on_c, 9, 69, 44
1, 235200, Note_on_c, 9, 42, 95
1, 235200, Note_on_c, 9, 55, 46
1, 235200, Note_on_c, 9, 35, 109
1, 235204, Note_on_c, 9, 42, 0
1, 235204, Note_on_c, 9, 55, 0
1, 235319, Note_on_c, 9, 40, 0
1, 235319, Note_on_c, 9, 54, 0
1, 235319, Note_on_c, 9, 53, 0
1, 235319, Note_on_c, 9, 69, 0
1, 235320, Note_on_c, 9, 54, 48
1, 235320, Note_on_c, 9, 82, 44
1, 235439, Note_on_c, 9, 54, 0
1, 235439, Note_on_c, 9, 82, 0
1, 235440, Note_on_c, 9, 54, 68
1, 235440, Note_on_c, 9, 69, 44
1, 235440, Note_on_c, 9, 42, 38
1, 235444, Note_on_c, 9, 42, 0
1, 235559, Note_on_c, 9, 35, 0
1, 235559, Note_on_c, 9, 54, 0
1, 235559, Note_on_c, 9, 69, 0
1, 235560, Note_on_c, 9, 54, 47
1, 235560, Note_on_c, 9, 82, 44
1, 235560, Note_on_c, 9, 35, 111
1, 235679, Note_on_c, 9, 54, 0
1, 235679, Note_on_c, 9, 82, 0
1, 235679, Note_on_c, 9, 35, 0
1, 235680, Note_on_c, 9, 40, 86
1, 235680, Note_on_c, 9, 54, 68
1, 235680, Note_on_c, 9, 53, 66
1, 235680, Note_on_c, 9, 69, 44
1, 235680, Note_on_c, 9, 42, 92
1, 235680, Note_on_c, 9, 55, 46
1, 235684, Note_on_c, 9, 42, 0
1, 235684, Note_on_c, 9, 55, 0
1, 235799, Note_on_c, 9, 40, 0
1, 235799, Note_on_c, 9, 54, 0
1, 235799, Note_on_c, 9, 53, 0
1, 235799, Note_on_c, 9, 69, 0
1, 235800, Note_on_c, 9, 54, 46
1, 235800, Note_on_c, 9, 82, 44
1, 235919, Note_on_c, 9, 54, 0
1, 235919, Note_on_c, 9, 82, 0
1, 235920, Note_on_c, 9, 54, 68
1, 235920, Note_on_c, 9, 69, 44
1, 235920, Note_on_c, 9, 42, 47
1, 235920, Note_on_c, 9, 35, 101
1, 235924, Note_on_c, 9, 42, 0
1, 236039, Note_on_c, 9, 54, 0
1, 236039, Note_on_c, 9, 69, 0
1, 236040, Note_on_c, 9, 54, 51
1, 236040, Note_on_c, 9, 82, 44
1, 236159, Note_on_c, 9, 35, 0
1, 236159, Note_on_c, 9, 54, 0
1, 236159, Note_on_c, 9, 82, 0
1, 236160, Note_on_c, 9, 40, 86
1, 236160, Note_on_c, 9, 54, 68
1, 236160, Note_on_c, 9, 53, 66
1, 236160, Note_on_c, 9, 69, 44
1, 236160, Note_on_c, 9, 42, 86
1, 236160, Note_on_c, 9, 55, 46
1, 236160, Note_on_c, 9, 35, 109
1, 236164, Note_on_c, 9, 42, 0
1, 236164, Note_on_c, 9, 55, 0
1, 236279, Note_on_c, 9, 40, 0
1, 236279, Note_on_c, 9, 54, 0
1, 236279, Note_on_c, 9, 53, 0
1, 236279, Note_on_c, 9, 69, 0
1, 236280, Note_on_c, 9, 54, 41
1, 236280, Note_on_c, 9, 82, 44
1, 236399, Note_on_c, 9, 54, 0
1, 236399, Note_on_c, 9, 82, 0
1, 236400, Note_on_c, 9, 54, 68
1, 236400, Note_on_c, 9, 69, 44
1, 236400, Note_on_c, 9, 42, 36
1, 236404, Note_on_c, 9, 42, 0
1, 236519, Note_on_c, 9, 35, 0
1, 236519, Note_on_c, 9, 54, 0
1, 236519, Note_on_c, 9, 69, 0
1, 236520, Note_on_c, 9, 54, 49
1, 236520, Note_on_c, 9, 82, 44
1, 236520, Note_on_c, 9, 35, 103
1, 236639, Note_on_c, 9, 54, 0
1, 236639, Note_on_c, 9, 82, 0
1, 236639, Note_on_c, 9, 35, 0
1, 236640, Note_on_c, 9, 40, 86
1, 236640, Note_on_c, 9, 54, 68
1, 236640, Note_on_c, 9, 53, 66
1, 236640, Note_on_c, 9, 69, 44
1, 236640, Note_on_c, 9, 42, 91
1, 236640, Note_on_c, 9, 55, 46
1, 236644, Note_on_c, 9, 42, 0
1, 236644, Note_on_c, 9, 55, 0
1, 236759, Note_on_c, 9, 40, 0
1, 236759, Note_on_c, 9, 54, 0
1, 236759, Note_on_c, 9, 53, 0
1, 236759, Note_on_c, 9, 69, 0
1, 236760, Note_on_c, 9, 54, 45
1, 236760, Note_on_c, 9, 82, 44
1, 236879, Note_on_c, 9, 54, 0
1, 236879, Note_on_c, 9, 82, 0
1, 236880, Note_on_c, 9, 54, 68
1, 236880, Note_on_c, 9, 69, 44
1, 236880, Note_on_c, 9, 42, 43
1, 236880, Note_on_c, 9, 35, 97
1, 236884, Note_on_c, 9, 42, 0
1, 236999, Note_on_c, 9, 54, 0
1, 236999, Note_on_c, 9, 69, 0
1, 237000, Note_on_c, 9, 54, 44
1, 237000, Note_on_c, 9, 82, 44
1, 237119, Note_on_c, 9, 35, 0
1, 237119, Note_on_c, 9, 54, 0
1, 237119, Note_on_c, 9, 82, 0
1, 237120, Note_on_c, 9, 40, 86
1, 237120, Note_on_c, 9, 54, 68
1, 237120, Note_on_c, 9, 53, 66
1, 237120, Note_on_c, 9, 69, 44
1, 237120, Note_on_c, 9, 42, 95
1, 237120, Note_on_c, 9, 55, 46
1, 237120, Note_on_c, 9, 35, 109
1, 237124, Note_on_c, 9, 42, 0
1, 237124, Note_on_c, 9, 55, 0
1, 237239, Note_on_c, 9, 40, 0
1, 237239, Note_on_c, 9, 54, 0
1, 237239, Note_on_c, 9, 53, 0
1, 237239, Note_on_c, 9, 69, 0
1, 237240, Note_on_c, 9, 54, 48
1, 237240, Note_on_c, 9, 82, 44
1, 237359, Note_on_c, 9, 54, 0
1, 237359, Note_on_c, 9, 82, 0
1, 237360, Note_on_c, 9, 54, 68
1, 237360, Note_on_c, 9, 69, 44
1, 237360, Note_on_c, 9, 42, 38
1, 237364, Note_on_c, 9, 42, 0
1, 237479, Note_on_c, 9, 35, 0
1, 237479, Note_on_c, 9, 54, 0
1, 237479, Note_on_c, 9, 69, 0
1, 237480, Note_on_c, 9, 54, 47
1, 237480, Note_on_c, 9, 82, 44
1, 237480, Note_on_c, 9, 35, 111
1, 237599, Note_on_c, 9, 54, 0
1, 237599, Note_on_c, 9, 82, 0
1, 237599, Note_on_c, 9, 35, 0
1, 237600, Note_on_c, 9, 40, 86
1, 237600, Note_on_c, 9, 54, 68
1, 237600, Note_on_c, 9, 53, 66
1, 237600, Note_on_c, 9, 69, 44
1, 237600, Note_on_c, 9, 42, 92
1, 237600, Note_on_c, 9, 55, 46
1, 237604, Note_on_c, 9, 42, 0
1, 237604, Note_on_c, 9, 55, 0
1, 237719, Note_on_c, 9, 40, 0
1, 237719, Note_on_c, 9, 54, 0
1, 237719, Note_on_c, 9, 53, 0
1, 237719, Note_on_c, 9, 69, 0
1, 237720, Note_on_c, 9, 54, 46
1, 237720, Note_on_c, 9, 82, 44
1, 237839, Note_on_c, 9, 54, 0
1, 237839, Note_on_c, 9, 82, 0
1, 237840, Note_on_c, 9, 54, 68
1, 237840, Note_on_c, 9, 69, 44
1, 237840, Note_on_c, 9, 42, 47
1, 237840, Note_on_c, 9, 35, 101
1, 237844, Note_on_c, 9, 42, 0
1, 237959, Note_on_c, 9, 54, 0
1, 237959, Note_on_c, 9, 69, 0
1, 237960, Note_on_c, 9, 54, 51
1, 237960, Note_on_c, 9, 82, 44
1, 238079, Note_on_c, 9, 35, 0
1, 238079, Note_on_c, 9, 54, 0
1, 238079, Note_on_c, 9, 82, 0
1, 238080, Note_on_c, 9, 40, 86
1, 238080, Note_on_c, 9, 54, 68
1, 238080, Note_on_c, 9, 53, 66
1, 238080, Note_on_c, 9, 69, 44
1, 238080, Note_on_c, 9, 42, 86
1, 238080, Note_on_c, 9, 49, 65
1, 238080, Note_on_c, 9, 55, 46
1, 238080, Note_on_c, 9, 35, 109
1, 238084, Note_on_c, 9, 42, 0
1, 238084, Note_on_c, 9, 49, 0
1, 238084, Note_on_c, 9, 55, 0
1, 238199, Note_on_c, 9, 40, 0
1, 238199, Note_on_c, 9, 54, 0
1, 238199, Note_on_c, 9, 53, 0
1, 238199, Note_on_c, 9, 69, 0
1, 238200, Note_on_c, 9, 54, 41
1, 238200, Note_on_c, 9, 82, 44
1, 238319, Note_on_c, 9, 54, 0
1, 238319, Note_on_c, 9, 82, 0
1, 238320, Note_on_c, 9, 54, 68
1, 238320, Note_on_c, 9, 69, 44
1, 238320, Note_on_c, 9, 42, 36
1, 238324, Note_on_c, 9, 42, 0
1, 238439, Note_on_c, 9, 35, 0
1, 238439, Note_on_c, 9, 54, 0
1, 238439, Note_on_c, 9, 69, 0
1, 238440, Note_on_c, 9, 54, 49
1, 238440, Note_on_c, 9, 82, 44
1, 238440, Note_on_c, 9, 35, 103
1, 238559, Note_on_c, 9, 54, 0
1, 238559, Note_on_c, 9, 82, 0
1, 238559, Note_on_c, 9, 35, 0
1, 238560, Note_on_c, 9, 40, 86
1, 238560, Note_on_c, 9, 54, 68
1, 238560, Note_on_c, 9, 53, 66
1, 238560, Note_on_c, 9, 69, 44
1, 238560, Note_on_c, 9, 42, 91
1, 238560, Note_on_c, 9, 55, 46
1, 238564, Note_on_c, 9, 42, 0
1, 238564, Note_on_c, 9, 55, 0
1, 238679, Note_on_c, 9, 40, 0
1, 238679, Note_on_c, 9, 54, 0
1, 238679, Note_on_c, 9, 53, 0
1, 238679, Note_on_c, 9, 69, 0
1, 238680, Note_on_c, 9, 54, 45
1, 238680, Note_on_c, 9, 82, 44
1, 238799, Note_on_c, 9, 54, 0
1, 238799, Note_on_c, 9, 82, 0
1, 238800, Note_on_c, 9, 54, 68
1, 238800, Note_on_c, 9, 69, 44
1, 238800, Note_on_c, 9, 42, 43
1, 238800, Note_on_c, 9, 35, 97
1, 238804, Note_on_c, 9, 42, 0
1, 238919, Note_on_c, 9, 54, 0
1, 238919, Note_on_c, 9, 69, 0
1, 238920, Note_on_c, 9, 54, 44
1, 238920, Note_on_c, 9, 82, 44
1, 239039, Note_on_c, 9, 35, 0
1, 239039, Note_on_c, 9, 54, 0
1, 239039, Note_on_c, 9, 82, 0
1, 239040, Note_on_c, 9, 40, 86
1, 239040, Note_on_c, 9, 54, 68
1, 239040, Note_on_c, 9, 53, 66
1, 239040, Note_on_c, 9, 69, 44
1, 239040, Note_on_c, 9, 42, 95
1, 239040, Note_on_c, 9, 55, 46
1, 239040, Note_on_c, 9, 35, 109
1, 239044, Note_on_c, 9, 42, 0
1, 239044, Note_on_c, 9, 55, 0
1, 239159, Note_on_c, 9, 40, 0
1, 239159, Note_on_c, 9, 54, 0
1, 239159, Note_on_c, 9, 53, 0
1, 239159, Note_on_c, 9, 69, 0
1, 239160, Note_on_c, 9, 54, 48
1, 239160, Note_on_c, 9, 82, 44
1, 239279, Note_on_c, 9, 54, 0
1, 239279, Note_on_c, 9, 82, 0
1, 239280, Note_on_c, 9, 54, 68
1, 239280, Note_on_c, 9, 69, 44
1, 239280, Note_on_c, 9, 42, 38
1, 239284, Note_on_c, 9, 42, 0
1, 239399, Note_on_c, 9, 35, 0
1, 239399, Note_on_c, 9, 54, 0
1, 239399, Note_on_c, 9, 69, 0
1, 239400, Note_on_c, 9, 54, 47
1, 239400, Note_on_c, 9, 82, 44
1, 239400, Note_on_c, 9, 35, 111
1, 239519, Note_on_c, 9, 54, 0
1, 239519, Note_on_c, 9, 82, 0
1, 239519, Note_on_c, 9, 35, 0
1, 239520, Note_on_c, 9, 40, 86
1, 239520, Note_on_c, 9, 54, 68
1, 239520, Note_on_c, 9, 53, 66
1, 239520, Note_on_c, 9, 69, 44
1, 239520, Note_on_c, 9, 42, 92
1, 239520, Note_on_c, 9, 55, 46
1, 239524, Note_on_c, 9, 42, 0
1, 239524, Note_on_c, 9, 55, 0
1, 239639, Note_on_c, 9, 40, 0
1, 239639, Note_on_c, 9, 54, 0
1, 239639, Note_on_c, 9, 53, 0
1, 239639, Note_on_c, 9, 69, 0
1, 239640, Note_on_c, 9, 54, 46
1, 239640, Note_on_c, 9, 82, 44
1, 239759, Note_on_c, 9, 54, 0
1, 239759, Note_on_c, 9, 82, 0
1, 239760, Note_on_c, 9, 54, 68
1, 239760, Note_on_c, 9, 69, 44
1, 239760, Note_on_c, 9, 42, 47
1, 239760, Note_on_c, 9, 35, 101
1, 239764, Note_on_c, 9, 42, 0
1, 239879, Note_on_c, 9, 54, 0
1, 239879, Note_on_c, 9, 69, 0
1, 239880, Note_on_c, 9, 54, 51
1, 239880, Note_on_c, 9, 82, 44
1, 239999, Note_on_c, 9, 35, 0
1, 239999, Note_on_c, 9, 54, 0
1, 239999, Note_on_c, 9, 82, 0
1, 240000, Note_on_c, 9, 40, 86
1, 240000, Note_on_c, 9, 54, 68
1, 240000, Note_on_c, 9, 53, 66
1, 240000, Note_on_c, 9, 69, 44
1, 240000, Note_on_c, 9, 42, 86
1, 240000, Note_on_c, 9, 55, 46
1, 240000, Note_on_c, 9, 35, 109
1, 240004, Note_on_c, 9, 42, 0
1, 240004, Note_on_c, 9, 55, 0
1, 240119, Note_on_c, 9, 40, 0
1, 240119, Note_on_c, 9, 54, 0
1, 240119, Note_on_c, 9, 53, 0
1, 240119, Note_on_c, 9, 69, 0
1, 240119, Note_on_c, 9, 35, 0
1, 240120, Note_on_c, 9, 54, 41
1, 240120, Note_on_c, 9, 82, 44
1, 240120, Note_on_c, 9, 49, 55
1, 240120, Note_on_c, 9, 35, 109
1, 240124, Note_on_c, 9, 49, 0
1, 240239, Note_on_c, 9, 54, 0
1, 240239, Note_on_c, 9, 82, 0
1, 240240, Note_on_c, 9, 54, 68
1, 240240, Note_on_c, 9, 69, 44
1, 240240, Note_on_c, 9, 42, 36
1, 240244, Note_on_c, 9, 42, 0
1, 240359, Note_on_c, 9, 35, 0
1, 240359, Note_on_c, 9, 54, 0
1, 240359, Note_on_c, 9, 69, 0
1, 240360, Note_on_c, 9, 54, 49
1, 240360, Note_on_c, 9, 82, 44
1, 240360, Note_on_c, 9, 35, 103
1, 240479, Note_on_c, 9, 54, 0
1, 240479, Note_on_c, 9, 82, 0
1, 240479, Note_on_c, 9, 35, 0
1, 240480, Note_on_c, 9, 40, 86
1, 240480, Note_on_c, 9, 54, 68
1, 240480, Note_on_c, 9, 53, 66
1, 240480, Note_on_c, 9, 69, 44
1, 240480, Note_on_c, 9, 42, 91
1, 240480, Note_on_c, 9, 55, 46
1, 240484, Note_on_c, 9, 42, 0
1, 240484, Note_on_c, 9, 55, 0
1, 240599, Note_on_c, 9, 40, 0
1, 240599, Note_on_c, 9, 54, 0
1, 240599, Note_on_c, 9, 53, 0
1, 240599, Note_on_c, 9, 69, 0
1, 240600, Note_on_c, 9, 40, 86
1, 240600, Note_on_c, 9, 54, 45
1, 240600, Note_on_c, 9, 82, 44
1, 240719, Note_on_c, 9, 40, 0
1, 240719, Note_on_c, 9, 54, 0
1, 240719, Note_on_c, 9, 82, 0
1, 240720, Note_on_c, 9, 54, 68
1, 240720, Note_on_c, 9, 69, 44
1, 240720, Note_on_c, 9, 42, 43
1, 240720, Note_on_c, 9, 35, 97
1, 240724, Note_on_c, 9, 42, 0
1, 240839, Note_on_c, 9, 54, 0
1, 240839, Note_on_c, 9, 69, 0
1, 240840, Note_on_c, 9, 54, 44
1, 240840, Note_on_c, 9, 82, 44
1, 240959, Note_on_c, 9, 35, 0
1, 240959, Note_on_c, 9, 54, 0
1, 240959, Note_on_c, 9, 82, 0
1, 240960, Note_on_c, 9, 40, 86
1, 240960, Note_on_c, 9, 54, 68
1, 240960, Note_on_c, 9, 53, 66
1, 240960, Note_on_c, 9, 69, 44
1, 240960, Note_on_c, 9, 42, 95
1, 240960, Note_on_c, 9, 55, 46
1, 240960, Note_on_c, 9, 35, 109
1, 240964, Note_on_c, 9, 42, 0
1, 240964, Note_on_c, 9, 55, 0
1, 241079, Note_on_c, 9, 40, 0
1, 241079, Note_on_c, 9, 54, 0
1, 241079, Note_on_c, 9, 53, 0
1, 241079, Note_on_c, 9, 69, 0
1, 241079, Note_on_c, 9, 35, 0
1, 241080, Note_on_c, 9, 54, 48
1, 241080, Note_on_c, 9, 82, 44
1, 241080, Note_on_c, 9, 49, 55
1, 241080, Note_on_c, 9, 35, 109
1, 241084, Note_on_c, 9, 49, 0
1, 241199, Note_on_c, 9, 54, 0
1, 241199, Note_on_c, 9, 82, 0
1, 241200, Note_on_c, 9, 54, 68
1, 241200, Note_on_c, 9, 69, 44
1, 241200, Note_on_c, 9, 42, 38
1, 241204, Note_on_c, 9, 42, 0
1, 241319, Note_on_c, 9, 35, 0
1, 241319, Note_on_c, 9, 54, 0
1, 241319, Note_on_c, 9, 69, 0
1, 241320, Note_on_c, 9, 54, 47
1, 241320, Note_on_c, 9, 82, 44
1, 241320, Note_on_c, 9, 35, 111
1, 241439, Note_on_c, 9, 54, 0
1, 241439, Note_on_c, 9, 82, 0
1, 241439, Note_on_c, 9, 35, 0
1, 241440, Note_on_c, 9, 40, 86
1, 241440, Note_on_c, 9, 54, 68
1, 241440, Note_on_c, 9, 53, 66
1, 241440, Note_on_c, 9, 69, 44
1, 241440, Note_on_c, 9, 42, 92
1, 241440, Note_on_c, 9, 55, 46
1, 241440, Note_on_c, 9, 57, 55
1, 241444, Note_on_c, 9, 42, 0
1, 241444, Note_on_c, 9, 55, 0
1, 241444, Note_on_c, 9, 57, 0
1, 241559, Note_on_c, 9, 40, 0
1, 241559, Note_on_c, 9, 54, 0
1, 241559, Note_on_c, 9, 53, 0
1, 241559, Note_on_c, 9, 69, 0
1, 241560, Note_on_c, 9, 54, 46
1, 241560, Note_on_c, 9, 82, 44
1, 241679, Note_on_c, 9, 54, 0
1, 241679, Note_on_c, 9, 82, 0
1, 241680, Note_on_c, 9, 54, 68
1, 241680, Note_on_c, 9, 69, 44
1, 241680, Note_on_c, 9, 42, 47
1, 241680, Note_on_c, 9, 49, 65
1, 241680, Note_on_c, 9, 35, 101
1, 241684, Note_on_c, 9, 42, 0
1, 241684, Note_on_c, 9, 49, 0
1, 241799, Note_on_c, 9, 54, 0
1, 241799, Note_on_c, 9, 69, 0
1, 241800, Note_on_c, 9, 54, 51
1, 241800, Note_on_c, 9, 82, 44
1, 241919, Note_on_c, 9, 35, 0
1, 241919, Note_on_c, 9, 54, 0
1, 241919, Note_on_c, 9, 82, 0
1, 241920, Note_on_c, 9, 40, 86
1, 241920, Note_on_c, 9, 54, 68
1, 241920, Note_on_c, 9, 53, 66
1, 241920, Note_on_c, 9, 69, 44
1, 241920, Note_on_c, 9, 42, 86
1, 241920, Note_on_c, 9, 55, 46
1, 241920, Note_on_c, 9, 57, 66
1, 241920, Note_on_c, 9, 35, 109
1, 241924, Note_on_c, 9, 42, 0
1, 241924, Note_on_c, 9, 55, 0
1, 241924, Note_on_c, 9, 57, 0
1, 242039, Note_on_c, 9, 40, 0
1, 242039, Note_on_c, 9, 54, 0
1, 242039, Note_on_c, 9, 53, 0
1, 242039, Note_on_c, 9, 69, 0
1, 242040, Note_on_c, 9, 54, 41
1, 242040, Note_on_c, 9, 82, 44
1, 242159, Note_on_c, 9, 54, 0
1, 242159, Note_on_c, 9, 82, 0
1, 242160, Note_on_c, 9, 54, 68
1, 242160, Note_on_c, 9, 69, 44
1, 242160, Note_on_c, 9, 42, 36
1, 242164, Note_on_c, 9, 42, 0
1, 242279, Note_on_c, 9, 35, 0
1, 242279, Note_on_c, 9, 54, 0
1, 242279, Note_on_c, 9, 69, 0
1, 242280, Note_on_c, 9, 54, 49
1, 242280, Note_on_c, 9, 82, 44
1, 242280, Note_on_c, 9, 35, 103
1, 242399, Note_on_c, 9, 54, 0
1, 242399, Note_on_c, 9, 82, 0
1, 242399, Note_on_c, 9, 35, 0
1, 242400, Note_on_c, 9, 40, 86
1, 242400, Note_on_c, 9, 54, 68
1, 242400, Note_on_c, 9, 53, 66
1, 242400, Note_on_c, 9, 69, 44
1, 242400, Note_on_c, 9, 42, 91
1, 242400, Note_on_c, 9, 55, 46
1, 242404, Note_on_c, 9, 42, 0
1, 242404, Note_on_c, 9, 55, 0
1, 242519, Note_on_c, 9, 40, 0
1, 242519, Note_on_c, 9, 54, 0
1, 242519, Note_on_c, 9, 53, 0
1, 242519, Note_on_c, 9, 69, 0
1, 242520, Note_on_c, 9, 54, 45
1, 242520, Note_on_c, 9, 82, 44
1, 242639, Note_on_c, 9, 54, 0
1, 242639, Note_on_c, 9, 82, 0
1, 242640, Note_on_c, 9, 54, 68
1, 242640, Note_on_c, 9, 69, 44
1, 242640, Note_on_c, 9, 42, 43
1, 242640, Note_on_c, 9, 35, 97
1, 242644, Note_on_c, 9, 42, 0
1, 242759, Note_on_c, 9, 54, 0
1, 242759, Note_on_c, 9, 69, 0
1, 242760, Note_on_c, 9, 54, 44
1, 242760, Note_on_c, 9, 82, 44
1, 242879, Note_on_c, 9, 35, 0
1, 242879, Note_on_c, 9, 54, 0
1, 242879, Note_on_c, 9, 82, 0
1, 242880, Note_on_c, 9, 40, 86
1, 242880, Note_on_c, 9, 54, 68
1, 242880, Note_on_c, 9, 53, 66
1, 242880, Note_on_c, 9, 69, 44
1, 242880, Note_on_c, 9, 42, 95
1, 242880, Note_on_c, 9, 55, 46
1, 242880, Note_on_c, 9, 35, 109
1, 242884, Note_on_c, 9, 42, 0
1, 242884, Note_on_c, 9, 55, 0
1, 242999, Note_on_c, 9, 40, 0
1, 242999, Note_on_c, 9, 54, 0
1, 242999, Note_on_c, 9, 53, 0
1, 242999, Note_on_c, 9, 69, 0
1, 243000, Note_on_c, 9, 54, 48
1, 243000, Note_on_c, 9, 82, 44
1, 243119, Note_on_c, 9, 54, 0
1, 243119, Note_on_c, 9, 82, 0
1, 243120, Note_on_c, 9, 54, 68
1, 243120, Note_on_c, 9, 69, 44
1, 243120, Note_on_c, 9, 42, 38
1, 243124, Note_on_c, 9, 42, 0
1, 243239, Note_on_c, 9, 35, 0
1, 243239, Note_on_c, 9, 54, 0
1, 243239, Note_on_c, 9, 69, 0
1, 243240, Note_on_c, 9, 54, 47
1, 243240, Note_on_c, 9, 82, 44
1, 243240, Note_on_c, 9, 35, 111
1, 243359, Note_on_c, 9, 54, 0
1, 243359, Note_on_c, 9, 82, 0
1, 243359, Note_on_c, 9, 35, 0
1, 243360, Note_on_c, 9, 40, 86
1, 243360, Note_on_c, 9, 54, 68
1, 243360, Note_on_c, 9, 53, 66
1, 243360, Note_on_c, 9, 69, 44
1, 243360, Note_on_c, 9, 42, 92
1, 243360, Note_on_c, 9, 55, 46
1, 243364, Note_on_c, 9, 42, 0
1, 243364, Note_on_c, 9, 55, 0
1, 243479, Note_on_c, 9, 40, 0
1, 243479, Note_on_c, 9, 54, 0
1, 243479, Note_on_c, 9, 53, 0
1, 243479, Note_on_c, 9, 69, 0
1, 243480, Note_on_c, 9, 54, 46
1, 243480, Note_on_c, 9, 82, 44
1, 243599, Note_on_c, 9, 54, 0
1, 243599, Note_on_c, 9, 82, 0
1, 243600, Note_on_c, 9, 54, 68
1, 243600, Note_on_c, 9, 69, 44
1, 243600, Note_on_c, 9, 42, 47
1, 243600, Note_on_c, 9, 35, 101
1, 243604, Note_on_c, 9, 42, 0
1, 243719, Note_on_c, 9, 54, 0
1, 243719, Note_on_c, 9, 69, 0
1, 243720, Note_on_c, 9, 54, 51
1, 243720, Note_on_c, 9, 82, 44
1, 243839, Note_on_c, 9, 35, 0
1, 243839, Note_on_c, 9, 54, 0
1, 243839, Note_on_c, 9, 82, 0
1, 243840, Note_on_c, 9, 40, 86
1, 243840, Note_on_c, 9, 54, 68
1, 243840, Note_on_c, 9, 53, 66
1, 243840, Note_on_c, 9, 69, 44
1, 243840, Note_on_c, 9, 42, 86
1, 243840, Note_on_c, 9, 55, 46
1, 243840, Note_on_c, 9, 35, 109
1, 243844, Note_on_c, 9, 42, 0
1, 243844, Note_on_c, 9, 55, 0
1, 243959, Note_on_c, 9, 40, 0
1, 243959, Note_on_c, 9, 54, 0
1, 243959, Note_on_c, 9, 53, 0
1, 243959, Note_on_c, 9, 69, 0
1, 243960, Note_on_c, 9, 54, 41
1, 243960, Note_on_c, 9, 82, 44
1, 244079, Note_on_c, 9, 54, 0
1, 244079, Note_on_c, 9, 82, 0
1, 244080, Note_on_c, 9, 54, 68
1, 244080, Note_on_c, 9, 69, 44
1, 244080, Note_on_c, 9, 42, 36
1, 244084, Note_on_c, 9, 42, 0
1, 244199, Note_on_c, 9, 35, 0
1, 244199, Note_on_c, 9, 54, 0
1, 244199, Note_on_c, 9, 69, 0
1, 244200, Note_on_c, 9, 54, 49
1, 244200, Note_on_c, 9, 82, 44
1, 244200, Note_on_c, 9, 35, 103
1, 244319, Note_on_c, 9, 54, 0
1, 244319, Note_on_c, 9, 82, 0
1, 244319, Note_on_c, 9, 35, 0
1, 244320, Note_on_c, 9, 40, 86
1, 244320, Note_on_c, 9, 54, 68
1, 244320, Note_on_c, 9, 53, 66
1, 244320, Note_on_c, 9, 69, 44
1, 244320, Note_on_c, 9, 42, 91
1, 244320, Note_on_c, 9, 55, 46
1, 244324, Note_on_c, 9, 42, 0
1, 244324, Note_on_c, 9, 55, 0
1, 244439, Note_on_c, 9, 40, 0
1, 244439, Note_on_c, 9, 54, 0
1, 244439, Note_on_c, 9, 53, 0
1, 244439, Note_on_c, 9, 69, 0
1, 244440, Note_on_c, 9, 54, 45
1, 244440, Note_on_c, 9, 82, 44
1, 244559, Note_on_c, 9, 54, 0
1, 244559, Note_on_c, 9, 82, 0
1, 244560, Note_on_c, 9, 54, 68
1, 244560, Note_on_c, 9, 69, 44
1, 244560, Note_on_c, 9, 42, 43
1, 244560, Note_on_c, 9, 35, 97
1, 244564, Note_on_c, 9, 42, 0
1, 244679, Note_on_c, 9, 54, 0
1, 244679, Note_on_c, 9, 69, 0
1, 244680, Note_on_c, 9, 54, 44
1, 244680, Note_on_c, 9, 82, 44
1, 244799, Note_on_c, 9, 35, 0
1, 244799, Note_on_c, 9, 54, 0
1, 244799, Note_on_c, 9, 82, 0
1, 244800, Note_on_c, 9, 40, 86
1, 244800, Note_on_c, 9, 54, 68
1, 244800, Note_on_c, 9, 53, 66
1, 244800, Note_on_c, 9, 69, 44
1, 244800, Note_on_c, 9, 42, 95
1, 244800, Note_on_c, 9, 55, 46
1, 244800, Note_on_c, 9, 35, 109
1, 244804, Note_on_c, 9, 42, 0
1, 244804, Note_on_c, 9, 55, 0
1, 244919, Note_on_c, 9, 40, 0
1, 244919, Note_on_c, 9, 54, 0
1, 244919, Note_on_c, 9, 53, 0
1, 244919, Note_on_c, 9, 69, 0
1, 244920, Note_on_c, 9, 54, 48
1, 244920, Note_on_c, 9, 82, 44
1, 245039, Note_on_c, 9, 54, 0
1, 245039, Note_on_c, 9, 82, 0
1, 245040, Note_on_c, 9, 54, 68
1, 245040, Note_on_c, 9, 69, 44
1, 245040, Note_on_c, 9, 42, 38
1, 245044, Note_on_c, 9, 42, 0
1, 245159, Note_on_c, 9, 35, 0
1, 245159, Note_on_c, 9, 54, 0
1, 245159, Note_on_c, 9, 69, 0
1, 245160, Note_on_c, 9, 54, 47
1, 245160, Note_on_c, 9, 82, 44
1, 245160, Note_on_c, 9, 35, 111
1, 245279, Note_on_c, 9, 54, 0
1, 245279, Note_on_c, 9, 82, 0
1, 245279, Note_on_c, 9, 35, 0
1, 245280, Note_on_c, 9, 40, 86
1, 245280, Note_on_c, 9, 54, 68
1, 245280, Note_on_c, 9, 53, 66
1, 245280, Note_on_c, 9, 69, 44
1, 245280, Note_on_c, 9, 42, 92
1, 245280, Note_on_c, 9, 55, 46
1, 245284, Note_on_c, 9, 42, 0
1, 245284, Note_on_c, 9, 55, 0
1, 245399, Note_on_c, 9, 40, 0
1, 245399, Note_on_c, 9, 54, 0
1, 245399, Note_on_c, 9, 53, 0
1, 245399, Note_on_c, 9, 69, 0
1, 245400, Note_on_c, 9, 54, 46
1, 245400, Note_on_c, 9, 82, 44
1, 245519, Note_on_c, 9, 54, 0
1, 245519, Note_on_c, 9, 82, 0
1, 245520, Note_on_c, 9, 54, 68
1, 245520, Note_on_c, 9, 69, 44
1, 245520, Note_on_c, 9, 42, 47
1, 245520, Note_on_c, 9, 35, 101
1, 245524, Note_on_c, 9, 42, 0
1, 245639, Note_on_c, 9, 54, 0
1, 245639, Note_on_c, 9, 69, 0
1, 245640, Note_on_c, 9, 54, 51
1, 245640, Note_on_c, 9, 82, 44
1, 245759, Note_on_c, 9, 35, 0
1, 245759, Note_on_c, 9, 54, 0
1, 245759, Note_on_c, 9, 82, 0
1, 245760, Note_on_c, 9, 40, 86
1, 245760, Note_on_c, 9, 54, 68
1, 245760, Note_on_c, 9, 53, 66
1, 245760, Note_on_c, 9, 69, 44
1, 245760, Note_on_c, 9, 42, 86
1, 245760, Note_on_c, 9, 49, 65
1, 245760, Note_on_c, 9, 55, 46
1, 245760, Note_on_c, 9, 35, 109
1, 245764, Note_on_c, 9, 42, 0
1, 245764, Note_on_c, 9, 49, 0
1, 245764, Note_on_c, 9, 55, 0
1, 245879, Note_on_c, 9, 40, 0
1, 245879, Note_on_c, 9, 54, 0
1, 245879, Note_on_c, 9, 53, 0
1, 245879, Note_on_c, 9, 69, 0
1, 245880, Note_on_c, 9, 54, 41
1, 245880, Note_on_c, 9, 82, 44
1, 245999, Note_on_c, 9, 54, 0
1, 245999, Note_on_c, 9, 82, 0
1, 246000, Note_on_c, 9, 54, 68
1, 246000, Note_on_c, 9, 69, 44
1, 246000, Note_on_c, 9, 42, 36
1, 246004, Note_on_c, 9, 42, 0
1, 246119, Note_on_c, 9, 35, 0
1, 246119, Note_on_c, 9, 54, 0
1, 246119, Note_on_c, 9, 69, 0
1, 246120, Note_on_c, 9, 54, 49
1, 246120, Note_on_c, 9, 82, 44
1, 246120, Note_on_c, 9, 35, 103
1, 246239, Note_on_c, 9, 54, 0
1, 246239, Note_on_c, 9, 82, 0
1, 246239, Note_on_c, 9, 35, 0
1, 246240, Note_on_c, 9, 40, 86
1, 246240, Note_on_c, 9, 54, 68
1, 246240, Note_on_c, 9, 53, 66
1, 246240, Note_on_c, 9, 69, 44
1, 246240, Note_on_c, 9, 42, 91
1, 246240, Note_on_c, 9, 55, 46
1, 246244, Note_on_c, 9, 42, 0
1, 246244, Note_on_c, 9, 55, 0
1, 246359, Note_on_c, 9, 40, 0
1, 246359, Note_on_c, 9, 54, 0
1, 246359, Note_on_c, 9, 53, 0
1, 246359, Note_on_c, 9, 69, 0
1, 246360, Note_on_c, 9, 54, 45
1, 246360, Note_on_c, 9, 82, 44
1, 246479, Note_on_c, 9, 54, 0
1, 246479, Note_on_c, 9, 82, 0
1, 246480, Note_on_c, 9, 54, 68
1, 246480, Note_on_c, 9, 69, 44
1, 246480, Note_on_c, 9, 42, 43
1, 246480, Note_on_c, 9, 35, 97
1, 246484, Note_on_c, 9, 42, 0
1, 246599, Note_on_c, 9, 54, 0
1, 246599, Note_on_c, 9, 69, 0
1, 246600, Note_on_c, 9, 54, 44
1, 246600, Note_on_c, 9, 82, 44
1, 246719, Note_on_c, 9, 35, 0
1, 246719, Note_on_c, 9, 54, 0
1, 246719, Note_on_c, 9, 82, 0
1, 246720, Note_on_c, 9, 40, 86
1, 246720, Note_on_c, 9, 54, 68
1, 246720, Note_on_c, 9, 53, 66
1, 246720, Note_on_c, 9, 69, 44
1, 246720, Note_on_c, 9, 42, 95
1, 246720, Note_on_c, 9, 55, 46
1, 246720, Note_on_c, 9, 35, 109
1, 246724, Note_on_c, 9, 42, 0
1, 246724, Note_on_c, 9, 55, 0
1, 246839, Note_on_c, 9, 40, 0
1, 246839, Note_on_c, 9, 54, 0
1, 246839, Note_on_c, 9, 53, 0
1, 246839, Note_on_c, 9, 69, 0
1, 246840, Note_on_c, 9, 54, 48
1, 246840, Note_on_c, 9, 82, 44
1, 246959, Note_on_c, 9, 54, 0
1, 246959, Note_on_c, 9, 82, 0
1, 246960, Note_on_c, 9, 54, 68
1, 246960, Note_on_c, 9, 69, 44
1, 246960, Note_on_c, 9, 42, 38
1, 246964, Note_on_c, 9, 42, 0
1, 247079, Note_on_c, 9, 35, 0
1, 247079, Note_on_c, 9, 54, 0
1, 247079, Note_on_c, 9, 69, 0
1, 247080, Note_on_c, 9, 54, 47
1, 247080, Note_on_c, 9, 82, 44
1, 247080, Note_on_c, 9, 35, 111
1, 247199, Note_on_c, 9, 54, 0
1, 247199, Note_on_c, 9, 82, 0
1, 247199, Note_on_c, 9, 35, 0
1, 247200, Note_on_c, 9, 40, 86
1, 247200, Note_on_c, 9, 54, 68
1, 247200, Note_on_c, 9, 53, 66
1, 247200, Note_on_c, 9, 69, 44
1, 247200, Note_on_c, 9, 42, 92
1, 247200, Note_on_c, 9, 55, 46
1, 247204, Note_on_c, 9, 42, 0
1, 247204, Note_on_c, 9, 55, 0
1, 247319, Note_on_c, 9, 40, 0
1, 247319, Note_on_c, 9, 54, 0
1, 247319, Note_on_c, 9, 53, 0
1, 247319, Note_on_c, 9, 69, 0
1, 247320, Note_on_c, 9, 54, 46
1, 247320, Note_on_c, 9, 82, 44
1, 247439, Note_on_c, 9, 54, 0
1, 247439, Note_on_c, 9, 82, 0
1, 247440, Note_on_c, 9, 54, 68
1, 247440, Note_on_c, 9, 69, 44
1, 247440, Note_on_c, 9, 42, 47
1, 247440, Note_on_c, 9, 35, 101
1, 247444, Note_on_c, 9, 42, 0
1, 247559, Note_on_c, 9, 54, 0
1, 247559, Note_on_c, 9, 69, 0
1, 247560, Note_on_c, 9, 54, 51
1, 247560, Note_on_c, 9, 82, 44
1, 247679, Note_on_c, 9, 35, 0
1, 247679, Note_on_c, 9, 54, 0
1, 247679, Note_on_c, 9, 82, 0
1, 247680, Note_on_c, 9, 40, 86
1, 247680, Note_on_c, 9, 54, 68
1, 247680, Note_on_c, 9, 53, 66
1, 247680, Note_on_c, 9, 69, 44
1, 247680, Note_on_c, 9, 42, 86
1, 247680, Note_on_c, 9, 55, 46
1, 247680, Note_on_c, 9, 35, 109
1, 247684, Note_on_c, 9, 42, 0
1, 247684, Note_on_c, 9, 55, 0
1, 247799, Note_on_c, 9, 40, 0
1, 247799, Note_on_c, 9, 54, 0
1, 247799, Note_on_c, 9, 53, 0
1, 247799, Note_on_c, 9, 69, 0
1, 247800, Note_on_c, 9, 54, 41
1, 247800, Note_on_c, 9, 82, 44
1, 247919, Note_on_c, 9, 35, 0
1, 247919, Note_on_c, 9, 54, 0
1, 247919, Note_on_c, 9, 82, 0
1, 247920, Note_on_c, 9, 54, 68
1, 247920, Note_on_c, 9, 69, 44
1, 247920, Note_on_c, 9, 42, 36
1, 247920, Note_on_c, 9, 35, 103
1, 247924, Note_on_c, 9, 42, 0
1, 248039, Note_on_c, 9, 54, 0
1, 248039, Note_on_c, 9, 69, 0
1, 248040, Note_on_c, 9, 54, 49
1, 248040, Note_on_c, 9, 82, 44
1, 248159, Note_on_c, 9, 35, 0
1, 248159, Note_on_c, 9, 54, 0
1, 248159, Note_on_c, 9, 82, 0
1, 248160, Note_on_c, 9, 40, 86
1, 248160, Note_on_c, 9, 54, 68
1, 248160, Note_on_c, 9, 53, 66
1, 248160, Note_on_c, 9, 69, 44
1, 248160, Note_on_c, 9, 42, 91
1, 248160, Note_on_c, 9, 55, 46
1, 248164, Note_on_c, 9, 42, 0
1, 248164, Note_on_c, 9, 55, 0
1, 248279, Note_on_c, 9, 40, 0
1, 248279, Note_on_c, 9, 54, 0
1, 248279, Note_on_c, 9, 53, 0
1, 248279, Note_on_c, 9, 69, 0
1, 248280, Note_on_c, 9, 54, 45
1, 248280, Note_on_c, 9, 82, 44
1, 248280, Note_on_c, 9, 35, 97
1, 248399, Note_on_c, 9, 54, 0
1, 248399, Note_on_c, 9, 82, 0
1, 248400, Note_on_c, 9, 54, 68
1, 248400, Note_on_c, 9, 69, 44
1, 248400, Note_on_c, 9, 42, 43
1, 248404, Note_on_c, 9, 42, 0
1, 248519, Note_on_c, 9, 54, 0
1, 248519, Note_on_c, 9, 69, 0
1, 248520, Note_on_c, 9, 54, 44
1, 248520, Note_on_c, 9, 82, 44
1, 248639, Note_on_c, 9, 35, 0
1, 248639, Note_on_c, 9, 54, 0
1, 248639, Note_on_c, 9, 82, 0
1, 248640, Note_on_c, 9, 40, 86
1, 248640, Note_on_c, 9, 54, 68
1, 248640, Note_on_c, 9, 53, 66
1, 248640, Note_on_c, 9, 69, 44
1, 248640, Note_on_c, 9, 42, 95
1, 248640, Note_on_c, 9, 55, 46
1, 248640, Note_on_c, 9, 35, 109
1, 248644, Note_on_c, 9, 42, 0
1, 248644, Note_on_c, 9, 55, 0
1, 248759, Note_on_c, 9, 40, 0
1, 248759, Note_on_c, 9, 54, 0
1, 248759, Note_on_c, 9, 53, 0
1, 248759, Note_on_c, 9, 69, 0
1, 248760, Note_on_c, 9, 54, 48
1, 248760, Note_on_c, 9, 82, 44
1, 248879, Note_on_c, 9, 35, 0
1, 248879, Note_on_c, 9, 54, 0
1, 248879, Note_on_c, 9, 82, 0
1, 248880, Note_on_c, 9, 54, 68
1, 248880, Note_on_c, 9, 69, 44
1, 248880, Note_on_c, 9, 42, 38
1, 248880, Note_on_c, 9, 35, 111
1, 248884, Note_on_c, 9, 42, 0
1, 248999, Note_on_c, 9, 54, 0
1, 248999, Note_on_c, 9, 69, 0
1, 248999, Note_on_c, 9, 35, 0
1, 249000, Note_on_c, 9, 40, 86
1, 249000, Note_on_c, 9, 54, 47
1, 249000, Note_on_c, 9, 82, 44
1, 249000, Note_on_c, 9, 35, 111
1, 249119, Note_on_c, 9, 40, 0
1, 249119, Note_on_c, 9, 54, 0
1, 249119, Note_on_c, 9, 82, 0
1, 249119, Note_on_c, 9, 35, 0
1, 249120, Note_on_c, 9, 40, 86
1, 249120, Note_on_c, 9, 54, 68
1, 249120, Note_on_c, 9, 53, 66
1, 249120, Note_on_c, 9, 69, 44
1, 249120, Note_on_c, 9, 42, 92
1, 249120, Note_on_c, 9, 55, 46
1, 249124, Note_on_c, 9, 42, 0
1, 249124, Note_on_c, 9, 55, 0
1, 249239, Note_on_c, 9, 40, 0
1, 249239, Note_on_c, 9, 54, 0
1, 249239, Note_on_c, 9, 53, 0
1, 249239, Note_on_c, 9, 69, 0
1, 249240, Note_on_c, 9, 40, 86
1, 249240, Note_on_c, 9, 54, 46
1, 249240, Note_on_c, 9, 82, 44
1, 249359, Note_on_c, 9, 40, 0
1, 249359, Note_on_c, 9, 54, 0
1, 249359, Note_on_c, 9, 82, 0
1, 249360, Note_on_c, 9, 40, 86
1, 249360, Note_on_c, 9, 54, 68
1, 249360, Note_on_c, 9, 69, 44
1, 249360, Note_on_c, 9, 42, 47
1, 249360, Note_on_c, 9, 35, 101
1, 249364, Note_on_c, 9, 42, 0
1, 249479, Note_on_c, 9, 40, 0
1, 249479, Note_on_c, 9, 54, 0
1, 249479, Note_on_c, 9, 69, 0
1, 249480, Note_on_c, 9, 40, 86
1, 249480, Note_on_c, 9, 54, 51
1, 249480, Note_on_c, 9, 82, 44
1, 249599, Note_on_c, 9, 35, 0
1, 249599, Note_on_c, 9, 40, 0
1, 249599, Note_on_c, 9, 54, 0
1, 249599, Note_on_c, 9, 82, 0
1, 249600, Note_on_c, 9, 40, 86
1, 249600, Note_on_c, 9, 54, 68
1, 249600, Note_on_c, 9, 53, 66
1, 249600, Note_on_c, 9, 69, 44
1, 249600, Note_on_c, 9, 42, 86
1, 249600, Note_on_c, 9, 49, 65
1, 249600, Note_on_c, 9, 55, 46
1, 249600, Note_on_c, 9, 35, 109
1, 249604, Note_on_c, 9, 42, 0
1, 249604, Note_on_c, 9, 49, 0
1, 249604, Note_on_c, 9, 55, 0
1, 249719, Note_on_c, 9, 40, 0
1, 249719, Note_on_c, 9, 54, 0
1, 249719, Note_on_c, 9, 53, 0
1, 249719, Note_on_c, 9, 69, 0
1, 249720, Note_on_c, 9, 54, 41
1, 249720, Note_on_c, 9, 82, 44
1, 249839, Note_on_c, 9, 54, 0
1, 249839, Note_on_c, 9, 82, 0
1, 249840, Note_on_c, 9, 54, 68
1, 249840, Note_on_c, 9, 69, 44
1, 249840, Note_on_c, 9, 42, 36
1, 249844, Note_on_c, 9, 42, 0
1, 249959, Note_on_c, 9, 35, 0
1, 249959, Note_on_c, 9, 54, 0
1, 249959, Note_on_c, 9, 69, 0
1, 249960, Note_on_c, 9, 54, 49
1, 249960, Note_on_c, 9, 82, 44
1, 249960, Note_on_c, 9, 35, 103
1, 250079, Note_on_c, 9, 54, 0
1, 250079, Note_on_c, 9, 82, 0
1, 250079, Note_on_c, 9, 35, 0
1, 250080, Note_on_c, 9, 40, 86
1, 250080, Note_on_c, 9, 54, 68
1, 250080, Note_on_c, 9, 53, 66
1, 250080, Note_on_c, 9, 69, 44
1, 250080, Note_on_c, 9, 42, 91
1, 250080, Note_on_c, 9, 55, 46
1, 250084, Note_on_c, 9, 42, 0
1, 250084, Note_on_c, 9, 55, 0
1, 250199, Note_on_c, 9, 40, 0
1, 250199, Note_on_c, 9, 54, 0
1, 250199, Note_on_c, 9, 53, 0
1, 250199, Note_on_c, 9, 69, 0
1, 250200, Note_on_c, 9, 54, 45
1, 250200, Note_on_c, 9, 82, 44
1, 250319, Note_on_c, 9, 54, 0
1, 250319, Note_on_c, 9, 82, 0
1, 250320, Note_on_c, 9, 54, 68
1, 250320, Note_on_c, 9, 69, 44
1, 250320, Note_on_c, 9, 42, 43
1, 250320, Note_on_c, 9, 35, 97
1, 250324, Note_on_c, 9, 42, 0
1, 250439, Note_on_c, 9, 54, 0
1, 250439, Note_on_c, 9, 69, 0
1, 250440, Note_on_c, 9, 54, 44
1, 250440, Note_on_c, 9, 82, 44
1, 250559, Note_on_c, 9, 35, 0
1, 250559, Note_on_c, 9, 54, 0
1, 250559, Note_on_c, 9, 82, 0
1, 250560, Note_on_c, 9, 40, 86
1, 250560, Note_on_c, 9, 54, 68
1, 250560, Note_on_c, 9, 53, 66
1, 250560, Note_on_c, 9, 69, 44
1, 250560, Note_on_c, 9, 42, 95
1, 250560, Note_on_c, 9, 55, 46
1, 250560, Note_on_c, 9, 35, 109
1, 250564, Note_on_c, 9, 42, 0
1, 250564, Note_on_c, 9, 55, 0
1, 250679, Note_on_c, 9, 40, 0
1, 250679, Note_on_c, 9, 54, 0
1, 250679, Note_on_c, 9, 53, 0
1, 250679, Note_on_c, 9, 69, 0
1, 250680, Note_on_c, 9, 54, 48
1, 250680, Note_on_c, 9, 82, 44
1, 250799, Note_on_c, 9, 54, 0
1, 250799, Note_on_c, 9, 82, 0
1, 250800, Note_on_c, 9, 54, 68
1, 250800, Note_on_c, 9, 69, 44
1, 250800, Note_on_c, 9, 42, 38
1, 250804, Note_on_c, 9, 42, 0
1, 250919, Note_on_c, 9, 35, 0
1, 250919, Note_on_c, 9, 54, 0
1, 250919, Note_on_c, 9, 69, 0
1, 250920, Note_on_c, 9, 54, 47
1, 250920, Note_on_c, 9, 82, 44
1, 250920, Note_on_c, 9, 35, 111
1, 251039, Note_on_c, 9, 54, 0
1, 251039, Note_on_c, 9, 82, 0
1, 251039, Note_on_c, 9, 35, 0
1, 251040, Note_on_c, 9, 40, 86
1, 251040, Note_on_c, 9, 54, 68
1, 251040, Note_on_c, 9, 53, 66
1, 251040, Note_on_c, 9, 69, 44
1, 251040, Note_on_c, 9, 42, 92
1, 251040, Note_on_c, 9, 55, 46
1, 251044, Note_on_c, 9, 42, 0
1, 251044, Note_on_c, 9, 55, 0
1, 251159, Note_on_c, 9, 40, 0
1, 251159, Note_on_c, 9, 54, 0
1, 251159, Note_on_c, 9, 53, 0
1, 251159, Note_on_c, 9, 69, 0
1, 251160, Note_on_c, 9, 54, 46
1, 251160, Note_on_c, 9, 82, 44
1, 251279, Note_on_c, 9, 54, 0
1, 251279, Note_on_c, 9, 82, 0
1, 251280, Note_on_c, 9, 54, 68
1, 251280, Note_on_c, 9, 69, 44
1, 251280, Note_on_c, 9, 42, 47
1, 251280, Note_on_c, 9, 35, 101
1, 251284, Note_on_c, 9, 42, 0
1, 251399, Note_on_c, 9, 54, 0
1, 251399, Note_on_c, 9, 69, 0
1, 251400, Note_on_c, 9, 54, 51
1, 251400, Note_on_c, 9, 82, 44
1, 251519, Note_on_c, 9, 35, 0
1, 251519, Note_on_c, 9, 54, 0
1, 251519, Note_on_c, 9, 82, 0
1, 251520, Note_on_c, 9, 40, 86
1, 251520, Note_on_c, 9, 54, 68
1, 251520, Note_on_c, 9, 53, 66
1, 251520, Note_on_c, 9, 69, 44
1, 251520, Note_on_c, 9, 42, 86
1, 251520, Note_on_c, 9, 55, 46
1, 251520, Note_on_c, 9, 35, 109
1, 251524, Note_on_c, 9, 42, 0
1, 251524, Note_on_c, 9, 55, 0
1, 251639, Note_on_c, 9, 40, 0
1, 251639, Note_on_c, 9, 54, 0
1, 251639, Note_on_c, 9, 53, 0
1, 251639, Note_on_c, 9, 69, 0
1, 251640, Note_on_c, 9, 54, 41
1, 251640, Note_on_c, 9, 82, 44
1, 251759, Note_on_c, 9, 54, 0
1, 251759, Note_on_c, 9, 82, 0
1, 251760, Note_on_c, 9, 54, 68
1, 251760, Note_on_c, 9, 69, 44
1, 251760, Note_on_c, 9, 42, 36
1, 251764, Note_on_c, 9, 42, 0
1, 251879, Note_on_c, 9, 35, 0
1, 251879, Note_on_c, 9, 54, 0
1, 251879, Note_on_c, 9, 69, 0
1, 251880, Note_on_c, 9, 54, 49
1, 251880, Note_on_c, 9, 82, 44
1, 251880, Note_on_c, 9, 35, 103
1, 251999, Note_on_c, 9, 54, 0
1, 251999, Note_on_c, 9, 82, 0
1, 251999, Note_on_c, 9, 35, 0
1, 252000, Note_on_c, 9, 40, 86
1, 252000, Note_on_c, 9, 54, 68
1, 252000, Note_on_c, 9, 53, 66
1, 252000, Note_on_c, 9, 69, 44
1, 252000, Note_on_c, 9, 42, 91
1, 252000, Note_on_c, 9, 55, 46
1, 252004, Note_on_c, 9, 42, 0
1, 252004, Note_on_c, 9, 55, 0
1, 252119, Note_on_c, 9, 40, 0
1, 252119, Note_on_c, 9, 54, 0
1, 252119, Note_on_c, 9, 53, 0
1, 252119, Note_on_c, 9, 69, 0
1, 252120, Note_on_c, 9, 54, 45
1, 252120, Note_on_c, 9, 82, 44
1, 252239, Note_on_c, 9, 54, 0
1, 252239, Note_on_c, 9, 82, 0
1, 252240, Note_on_c, 9, 54, 68
1, 252240, Note_on_c, 9, 69, 44
1, 252240, Note_on_c, 9, 42, 43
1, 252240, Note_on_c, 9, 35, 97
1, 252244, Note_on_c, 9, 42, 0
1, 252359, Note_on_c, 9, 54, 0
1, 252359, Note_on_c, 9, 69, 0
1, 252360, Note_on_c, 9, 54, 44
1, 252360, Note_on_c, 9, 82, 44
1, 252479, Note_on_c, 9, 35, 0
1, 252479, Note_on_c, 9, 54, 0
1, 252479, Note_on_c, 9, 82, 0
1, 252480, Note_on_c, 9, 40, 86
1, 252480, Note_on_c, 9, 54, 68
1, 252480, Note_on_c, 9, 53, 66
1, 252480, Note_on_c, 9, 69, 44
1, 252480, Note_on_c, 9, 42, 95
1, 252480, Note_on_c, 9, 55, 46
1, 252480, Note_on_c, 9, 35, 109
1, 252484, Note_on_c, 9, 42, 0
1, 252484, Note_on_c, 9, 55, 0
1, 252599, Note_on_c, 9, 40, 0
1, 252599, Note_on_c, 9, 54, 0
1, 252599, Note_on_c, 9, 53, 0
1, 252599, Note_on_c, 9, 69, 0
1, 252600, Note_on_c, 9, 54, 48
1, 252600, Note_on_c, 9, 82, 44
1, 252719, Note_on_c, 9, 54, 0
1, 252719, Note_on_c, 9, 82, 0
1, 252720, Note_on_c, 9, 54, 68
1, 252720, Note_on_c, 9, 69, 44
1, 252720, Note_on_c, 9, 42, 38
1, 252724, Note_on_c, 9, 42, 0
1, 252839, Note_on_c, 9, 35, 0
1, 252839, Note_on_c, 9, 54, 0
1, 252839, Note_on_c, 9, 69, 0
1, 252840, Note_on_c, 9, 54, 47
1, 252840, Note_on_c, 9, 82, 44
1, 252840, Note_on_c, 9, 35, 111
1, 252959, Note_on_c, 9, 54, 0
1, 252959, Note_on_c, 9, 82, 0
1, 252959, Note_on_c, 9, 35, 0
1, 252960, Note_on_c, 9, 40, 86
1, 252960, Note_on_c, 9, 54, 68
1, 252960, Note_on_c, 9, 53, 66
1, 252960, Note_on_c, 9, 69, 44
1, 252960, Note_on_c, 9, 42, 92
1, 252960, Note_on_c, 9, 55, 46
1, 252964, Note_on_c, 9, 42, 0
1, 252964, Note_on_c, 9, 55, 0
1, 253079, Note_on_c, 9, 40, 0
1, 253079, Note_on_c, 9, 54, 0
1, 253079, Note_on_c, 9, 53, 0
1, 253079, Note_on_c, 9, 69, 0
1, 253080, Note_on_c, 9, 54, 46
1, 253080, Note_on_c, 9, 82, 44
1, 253199, Note_on_c, 9, 54, 0
1, 253199, Note_on_c, 9, 82, 0
1, 253200, Note_on_c, 9, 54, 68
1, 253200, Note_on_c, 9, 69, 44
1, 253200, Note_on_c, 9, 42, 47
1, 253200, Note_on_c, 9, 35, 101
1, 253204, Note_on_c, 9, 42, 0
1, 253319, Note_on_c, 9, 54, 0
1, 253319, Note_on_c, 9, 69, 0
1, 253320, Note_on_c, 9, 54, 51
1, 253320, Note_on_c, 9, 82, 44
1, 253439, Note_on_c, 9, 35, 0
1, 253439, Note_on_c, 9, 54, 0
1, 253439, Note_on_c, 9, 82, 0
1, 253440, Note_on_c, 9, 40, 86
1, 253440, Note_on_c, 9, 54, 68
1, 253440, Note_on_c, 9, 53, 66
1, 253440, Note_on_c, 9, 69, 44
1, 253440, Note_on_c, 9, 42, 86
1, 253440, Note_on_c, 9, 55, 46
1, 253440, Note_on_c, 9, 35, 109
1, 253444, Note_on_c, 9, 42, 0
1, 253444, Note_on_c, 9, 55, 0
1, 253559, Note_on_c, 9, 40, 0
1, 253559, Note_on_c, 9, 54, 0
1, 253559, Note_on_c, 9, 53, 0
1, 253559, Note_on_c, 9, 69, 0
1, 253560, Note_on_c, 9, 54, 41
1, 253560, Note_on_c, 9, 82, 44
1, 253679, Note_on_c, 9, 54, 0
1, 253679, Note_on_c, 9, 82, 0
1, 253680, Note_on_c, 9, 54, 68
1, 253680, Note_on_c, 9, 69, 44
1, 253680, Note_on_c, 9, 42, 36
1, 253684, Note_on_c, 9, 42, 0
1, 253799, Note_on_c, 9, 35, 0
1, 253799, Note_on_c, 9, 54, 0
1, 253799, Note_on_c, 9, 69, 0
1, 253800, Note_on_c, 9, 54, 49
1, 253800, Note_on_c, 9, 82, 44
1, 253800, Note_on_c, 9, 35, 103
1, 253919, Note_on_c, 9, 54, 0
1, 253919, Note_on_c, 9, 82, 0
1, 253919, Note_on_c, 9, 35, 0
1, 253920, Note_on_c, 9, 40, 86
1, 253920, Note_on_c, 9, 54, 68
1, 253920, Note_on_c, 9, 53, 66
1, 253920, Note_on_c, 9, 69, 44
1, 253920, Note_on_c, 9, 42, 91
1, 253920, Note_on_c, 9, 55, 46
1, 253924, Note_on_c, 9, 42, 0
1, 253924, Note_on_c, 9, 55, 0
1, 254039, Note_on_c, 9, 40, 0
1, 254039, Note_on_c, 9, 54, 0
1, 254039, Note_on_c, 9, 53, 0
1, 254039, Note_on_c, 9, 69, 0
1, 254040, Note_on_c, 9, 54, 45
1, 254040, Note_on_c, 9, 82, 44
1, 254159, Note_on_c, 9, 54, 0
1, 254159, Note_on_c, 9, 82, 0
1, 254160, Note_on_c, 9, 54, 68
1, 254160, Note_on_c, 9, 69, 44
1, 254160, Note_on_c, 9, 42, 43
1, 254160, Note_on_c, 9, 35, 97
1, 254164, Note_on_c, 9, 42, 0
1, 254279, Note_on_c, 9, 54, 0
1, 254279, Note_on_c, 9, 69, 0
1, 254280, Note_on_c, 9, 54, 44
1, 254280, Note_on_c, 9, 82, 44
1, 254399, Note_on_c, 9, 35, 0
1, 254399, Note_on_c, 9, 54, 0
1, 254399, Note_on_c, 9, 82, 0
1, 254400, Note_on_c, 9, 40, 86
1, 254400, Note_on_c, 9, 54, 68
1, 254400, Note_on_c, 9, 53, 66
1, 254400, Note_on_c, 9, 69, 44
1, 254400, Note_on_c, 9, 42, 95
1, 254400, Note_on_c, 9, 55, 46
1, 254400, Note_on_c, 9, 35, 109
1, 254404, Note_on_c, 9, 42, 0
1, 254404, Note_on_c, 9, 55, 0
1, 254519, Note_on_c, 9, 40, 0
1, 254519, Note_on_c, 9, 54, 0
1, 254519, Note_on_c, 9, 53, 0
1, 254519, Note_on_c, 9, 69, 0
1, 254520, Note_on_c, 9, 54, 48
1, 254520, Note_on_c, 9, 82, 44
1, 254639, Note_on_c, 9, 54, 0
1, 254639, Note_on_c, 9, 82, 0
1, 254640, Note_on_c, 9, 54, 68
1, 254640, Note_on_c, 9, 69, 44
1, 254640, Note_on_c, 9, 42, 38
1, 254644, Note_on_c, 9, 42, 0
1, 254759, Note_on_c, 9, 35, 0
1, 254759, Note_on_c, 9, 54, 0
1, 254759, Note_on_c, 9, 69, 0
1, 254760, Note_on_c, 9, 54, 47
1, 254760, Note_on_c, 9, 82, 44
1, 254760, Note_on_c, 9, 35, 111
1, 254879, Note_on_c, 9, 54, 0
1, 254879, Note_on_c, 9, 82, 0
1, 254879, Note_on_c, 9, 35, 0
1, 254880, Note_on_c, 9, 40, 86
1, 254880, Note_on_c, 9, 54, 68
1, 254880, Note_on_c, 9, 53, 66
1, 254880, Note_on_c, 9, 69, 44
1, 254880, Note_on_c, 9, 42, 92
1, 254880, Note_on_c, 9, 55, 46
1, 254884, Note_on_c, 9, 42, 0
1, 254884, Note_on_c, 9, 55, 0
1, 254999, Note_on_c, 9, 40, 0
1, 254999, Note_on_c, 9, 54, 0
1, 254999, Note_on_c, 9, 53, 0
1, 254999, Note_on_c, 9, 69, 0
1, 255000, Note_on_c, 9, 54, 46
1, 255000, Note_on_c, 9, 82, 44
1, 255119, Note_on_c, 9, 54, 0
1, 255119, Note_on_c, 9, 82, 0
1, 255120, Note_on_c, 9, 54, 68
1, 255120, Note_on_c, 9, 69, 44
1, 255120, Note_on_c, 9, 42, 47
1, 255120, Note_on_c, 9, 35, 101
1, 255124, Note_on_c, 9, 42, 0
1, 255239, Note_on_c, 9, 54, 0
1, 255239, Note_on_c, 9, 69, 0
1, 255240, Note_on_c, 9, 54, 51
1, 255240, Note_on_c, 9, 82, 44
1, 255359, Note_on_c, 9, 35, 0
1, 255359, Note_on_c, 9, 54, 0
1, 255359, Note_on_c, 9, 82, 0
1, 255360, Note_on_c, 9, 40, 86
1, 255360, Note_on_c, 9, 54, 68
1, 255360, Note_on_c, 9, 53, 66
1, 255360, Note_on_c, 9, 69, 44
1, 255360, Note_on_c, 9, 42, 86
1, 255360, Note_on_c, 9, 55, 46
1, 255360, Note_on_c, 9, 35, 109
1, 255364, Note_on_c, 9, 42, 0
1, 255364, Note_on_c, 9, 55, 0
1, 255479, Note_on_c, 9, 40, 0
1, 255479, Note_on_c, 9, 54, 0
1, 255479, Note_on_c, 9, 53, 0
1, 255479, Note_on_c, 9, 69, 0
1, 255479, Note_on_c, 9, 35, 0
1, 255480, Note_on_c, 9, 54, 41
1, 255480, Note_on_c, 9, 82, 44
1, 255480, Note_on_c, 9, 49, 55
1, 255480, Note_on_c, 9, 35, 109
1, 255484, Note_on_c, 9, 49, 0
1, 255599, Note_on_c, 9, 54, 0
1, 255599, Note_on_c, 9, 82, 0
1, 255599, Note_on_c, 9, 35, 0
1, 255600, Note_on_c, 9, 54, 68
1, 255600, Note_on_c, 9, 69, 44
1, 255600, Note_on_c, 9, 42, 36
1, 255600, Note_on_c, 9, 35, 103
1, 255604, Note_on_c, 9, 42, 0
1, 255719, Note_on_c, 9, 54, 0
1, 255719, Note_on_c, 9, 69, 0
1, 255719, Note_on_c, 9, 35, 0
1, 255720, Note_on_c, 9, 54, 49
1, 255720, Note_on_c, 9, 82, 44
1, 255720, Note_on_c, 9, 35, 103
1, 255839, Note_on_c, 9, 54, 0
1, 255839, Note_on_c, 9, 82, 0
1, 255839, Note_on_c, 9, 35, 0
1, 255840, Note_on_c, 9, 40, 86
1, 255840, Note_on_c, 9, 54, 68
1, 255840, Note_on_c, 9, 53, 66
1, 255840, Note_on_c, 9, 69, 44
1, 255840, Note_on_c, 9, 42, 91
1, 255840, Note_on_c, 9, 55, 46
1, 255844, Note_on_c, 9, 42, 0
1, 255844, Note_on_c, 9, 55, 0
1, 255959, Note_on_c, 9, 40, 0
1, 255959, Note_on_c, 9, 54, 0
1, 255959, Note_on_c, 9, 53, 0
1, 255959, Note_on_c, 9, 69, 0
1, 255960, Note_on_c, 9, 40, 86
1, 255960, Note_on_c, 9, 54, 45
1, 255960, Note_on_c, 9, 82, 44
1, 255960, Note_on_c, 9, 35, 97
1, 256079, Note_on_c, 9, 40, 0
1, 256079, Note_on_c, 9, 54, 0
1, 256079, Note_on_c, 9, 82, 0
1, 256079, Note_on_c, 9, 35, 0
1, 256080, Note_on_c, 9, 54, 68
1, 256080, Note_on_c, 9, 69, 44
1, 256080, Note_on_c, 9, 42, 43
1, 256080, Note_on_c, 9, 35, 97
1, 256084, Note_on_c, 9, 42, 0
1, 256199, Note_on_c, 9, 54, 0
1, 256199, Note_on_c, 9, 69, 0
1, 256200, Note_on_c, 9, 54, 44
1, 256200, Note_on_c, 9, 82, 44
1, 256319, Note_on_c, 9, 35, 0
1, 256319, Note_on_c, 9, 54, 0
1, 256319, Note_on_c, 9, 82, 0
1, 256320, Note_on_c, 9, 40, 86
1, 256320, Note_on_c, 9, 54, 68
1, 256320, Note_on_c, 9, 53, 66
1, 256320, Note_on_c, 9, 69, 44
1, 256320, Note_on_c, 9, 42, 95
1, 256320, Note_on_c, 9, 55, 46
1, 256320, Note_on_c, 9, 35, 109
1, 256324, Note_on_c, 9, 42, 0
1, 256324, Note_on_c, 9, 55, 0
1, 256439, Note_on_c, 9, 40, 0
1, 256439, Note_on_c, 9, 54, 0
1, 256439, Note_on_c, 9, 53, 0
1, 256439, Note_on_c, 9, 69, 0
1, 256439, Note_on_c, 9, 35, 0
1, 256440, Note_on_c, 9, 54, 48
1, 256440, Note_on_c, 9, 82, 44
1, 256440, Note_on_c, 9, 49, 55
1, 256440, Note_on_c, 9, 35, 109
1, 256444, Note_on_c, 9, 49, 0
1, 256559, Note_on_c, 9, 54, 0
1, 256559, Note_on_c, 9, 82, 0
1, 256560, Note_on_c, 9, 54, 68
1, 256560, Note_on_c, 9, 69, 44
1, 256560, Note_on_c, 9, 42, 38
1, 256564, Note_on_c, 9, 42, 0
1, 256679, Note_on_c, 9, 35, 0
1, 256679, Note_on_c, 9, 54, 0
1, 256679, Note_on_c, 9, 69, 0
1, 256680, Note_on_c, 9, 54, 47
1, 256680, Note_on_c, 9, 82, 44
1, 256680, Note_on_c, 9, 35, 111
1, 256799, Note_on_c, 9, 54, 0
1, 256799, Note_on_c, 9, 82, 0
1, 256799, Note_on_c, 9, 35, 0
1, 256800, Note_on_c, 9, 40, 86
1, 256800, Note_on_c, 9, 54, 68
1, 256800, Note_on_c, 9, 53, 66
1, 256800, Note_on_c, 9, 69, 44
1, 256800, Note_on_c, 9, 42, 92
1, 256800, Note_on_c, 9, 55, 46
1, 256800, Note_on_c, 9, 57, 55
1, 256804, Note_on_c, 9, 42, 0
1, 256804, Note_on_c, 9, 55, 0
1, 256804, Note_on_c, 9, 57, 0
1, 256919, Note_on_c, 9, 40, 0
1, 256919, Note_on_c, 9, 54, 0
1, 256919, Note_on_c, 9, 53, 0
1, 256919, Note_on_c, 9, 69, 0
1, 256920, Note_on_c, 9, 54, 46
1, 256920, Note_on_c, 9, 82, 44
1, 256920, Note_on_c, 9, 35, 101
1, 257039, Note_on_c, 9, 54, 0
1, 257039, Note_on_c, 9, 82, 0
1, 257039, Note_on_c, 9, 35, 0
1, 257040, Note_on_c, 9, 54, 68
1, 257040, Note_on_c, 9, 69, 44
1, 257040, Note_on_c, 9, 42, 47
1, 257040, Note_on_c, 9, 49, 65
1, 257040, Note_on_c, 9, 35, 101
1, 257044, Note_on_c, 9, 42, 0
1, 257044, Note_on_c, 9, 49, 0
1, 257159, Note_on_c, 9, 54, 0
1, 257159, Note_on_c, 9, 69, 0
1, 257160, Note_on_c, 9, 54, 51
1, 257160, Note_on_c, 9, 82, 44
1, 257279, Note_on_c, 9, 35, 0
1, 257279, Note_on_c, 9, 54, 0
1, 257279, Note_on_c, 9, 82, 0
1, 257280, Note_on_c, 9, 40, 86
1, 257280, Note_on_c, 9, 54, 68
1, 257280, Note_on_c, 9, 53, 66
1, 257280, Note_on_c, 9, 69, 44
1, 257280, Note_on_c, 9, 42, 86
1, 257280, Note_on_c, 9, 55, 46
1, 257280, Note_on_c, 9, 57, 65
1, 257280, Note_on_c, 9, 35, 109
1, 257284, Note_on_c, 9, 42, 0
1, 257284, Note_on_c, 9, 55, 0
1, 257284, Note_on_c, 9, 57, 0
1, 257399, Note_on_c, 9, 40, 0
1, 257399, Note_on_c, 9, 54, 0
1, 257399, Note_on_c, 9, 53, 0
1, 257399, Note_on_c, 9, 69, 0
1, 257400, Note_on_c, 9, 54, 41
1, 257400, Note_on_c, 9, 82, 44
1, 257519, Note_on_c, 9, 54, 0
1, 257519, Note_on_c, 9, 82, 0
1, 257520, Note_on_c, 9, 54, 68
1, 257520, Note_on_c, 9, 69, 44
1, 257520, Note_on_c, 9, 42, 36
1, 257524, Note_on_c, 9, 42, 0
1, 257639, Note_on_c, 9, 35, 0
1, 257639, Note_on_c, 9, 54, 0
1, 257639, Note_on_c, 9, 69, 0
1, 257640, Note_on_c, 9, 54, 49
1, 257640, Note_on_c, 9, 82, 44
1, 257640, Note_on_c, 9, 35, 103
1, 257759, Note_on_c, 9, 54, 0
1, 257759, Note_on_c, 9, 82, 0
1, 257759, Note_on_c, 9, 35, 0
1, 257760, Note_on_c, 9, 40, 86
1, 257760, Note_on_c, 9, 54, 68
1, 257760, Note_on_c, 9, 53, 66
1, 257760, Note_on_c, 9, 69, 44
1, 257760, Note_on_c, 9, 42, 91
1, 257760, Note_on_c, 9, 55, 46
1, 257764, Note_on_c, 9, 42, 0
1, 257764, Note_on_c, 9, 55, 0
1, 257879, Note_on_c, 9, 40, 0
1, 257879, Note_on_c, 9, 54, 0
1, 257879, Note_on_c, 9, 53, 0
1, 257879, Note_on_c, 9, 69, 0
1, 257880, Note_on_c, 9, 54, 45
1, 257880, Note_on_c, 9, 82, 44
1, 257999, Note_on_c, 9, 54, 0
1, 257999, Note_on_c, 9, 82, 0
1, 258000, Note_on_c, 9, 54, 68
1, 258000, Note_on_c, 9, 69, 44
1, 258000, Note_on_c, 9, 42, 43
1, 258000, Note_on_c, 9, 35, 97
1, 258004, Note_on_c, 9, 42, 0
1, 258119, Note_on_c, 9, 54, 0
1, 258119, Note_on_c, 9, 69, 0
1, 258120, Note_on_c, 9, 54, 44
1, 258120, Note_on_c, 9, 82, 44
1, 258239, Note_on_c, 9, 35, 0
1, 258239, Note_on_c, 9, 54, 0
1, 258239, Note_on_c, 9, 82, 0
1, 258240, Note_on_c, 9, 40, 86
1, 258240, Note_on_c, 9, 54, 68
1, 258240, Note_on_c, 9, 53, 66
1, 258240, Note_on_c, 9, 69, 44
1, 258240, Note_on_c, 9, 42, 95
1, 258240, Note_on_c, 9, 55, 46
1, 258240, Note_on_c, 9, 35, 109
1, 258244, Note_on_c, 9, 42, 0
1, 258244, Note_on_c, 9, 55, 0
1, 258359, Note_on_c, 9, 40, 0
1, 258359, Note_on_c, 9, 54, 0
1, 258359, Note_on_c, 9, 53, 0
1, 258359, Note_on_c, 9, 69, 0
1, 258360, Note_on_c, 9, 54, 48
1, 258360, Note_on_c, 9, 82, 44
1, 258479, Note_on_c, 9, 54, 0
1, 258479, Note_on_c, 9, 82, 0
1, 258480, Note_on_c, 9, 54, 68
1, 258480, Note_on_c, 9, 69, 44
1, 258480, Note_on_c, 9, 42, 38
1, 258484, Note_on_c, 9, 42, 0
1, 258599, Note_on_c, 9, 35, 0
1, 258599, Note_on_c, 9, 54, 0
1, 258599, Note_on_c, 9, 69, 0
1, 258600, Note_on_c, 9, 54, 47
1, 258600, Note_on_c, 9, 82, 44
1, 258600, Note_on_c, 9, 35, 111
1, 258719, Note_on_c, 9, 54, 0
1, 258719, Note_on_c, 9, 82, 0
1, 258719, Note_on_c, 9, 35, 0
1, 258720, Note_on_c, 9, 40, 86
1, 258720, Note_on_c, 9, 54, 68
1, 258720, Note_on_c, 9, 53, 66
1, 258720, Note_on_c, 9, 69, 44
1, 258720, Note_on_c, 9, 42, 92
1, 258720, Note_on_c, 9, 55, 46
1, 258724, Note_on_c, 9, 42, 0
1, 258724, Note_on_c, 9, 55, 0
1, 258839, Note_on_c, 9, 40, 0
1, 258839, Note_on_c, 9, 54, 0
1, 258839, Note_on_c, 9, 53, 0
1, 258839, Note_on_c, 9, 69, 0
1, 258840, Note_on_c, 9, 54, 46
1, 258840, Note_on_c, 9, 82, 44
1, 258959, Note_on_c, 9, 54, 0
1, 258959, Note_on_c, 9, 82, 0
1, 258960, Note_on_c, 9, 54, 68
1, 258960, Note_on_c, 9, 69, 44
1, 258960, Note_on_c, 9, 42, 47
1, 258960, Note_on_c, 9, 35, 101
1, 258964, Note_on_c, 9, 42, 0
1, 259079, Note_on_c, 9, 54, 0
1, 259079, Note_on_c, 9, 69, 0
1, 259080, Note_on_c, 9, 54, 51
1, 259080, Note_on_c, 9, 82, 44
1, 259199, Note_on_c, 9, 35, 0
1, 259199, Note_on_c, 9, 54, 0
1, 259199, Note_on_c, 9, 82, 0
1, 259200, Note_on_c, 9, 40, 86
1, 259200, Note_on_c, 9, 54, 68
1, 259200, Note_on_c, 9, 53, 66
1, 259200, Note_on_c, 9, 69, 44
1, 259200, Note_on_c, 9, 42, 86
1, 259200, Note_on_c, 9, 55, 46
1, 259200, Note_on_c, 9, 35, 109
1, 259204, Note_on_c, 9, 42, 0
1, 259204, Note_on_c, 9, 55, 0
1, 259319, Note_on_c, 9, 40, 0
1, 259319, Note_on_c, 9, 54, 0
1, 259319, Note_on_c, 9, 53, 0
1, 259319, Note_on_c, 9, 69, 0
1, 259320, Note_on_c, 9, 54, 41
1, 259320, Note_on_c, 9, 82, 44
1, 259439, Note_on_c, 9, 54, 0
1, 259439, Note_on_c, 9, 82, 0
1, 259440, Note_on_c, 9, 54, 68
1, 259440, Note_on_c, 9, 69, 44
1, 259440, Note_on_c, 9, 42, 36
1, 259444, Note_on_c, 9, 42, 0
1, 259559, Note_on_c, 9, 35, 0
1, 259559, Note_on_c, 9, 54, 0
1, 259559, Note_on_c, 9, 69, 0
1, 259560, Note_on_c, 9, 54, 49
1, 259560, Note_on_c, 9, 82, 44
1, 259560, Note_on_c, 9, 35, 103
1, 259679, Note_on_c, 9, 54, 0
1, 259679, Note_on_c, 9, 82, 0
1, 259679, Note_on_c, 9, 35, 0
1, 259680, Note_on_c, 9, 40, 86
1, 259680, Note_on_c, 9, 54, 68
1, 259680, Note_on_c, 9, 53, 66
1, 259680, Note_on_c, 9, 69, 44
1, 259680, Note_on_c, 9, 42, 91
1, 259680, Note_on_c, 9, 55, 46
1, 259684, Note_on_c, 9, 42, 0
1, 259684, Note_on_c, 9, 55, 0
1, 259799, Note_on_c, 9, 40, 0
1, 259799, Note_on_c, 9, 54, 0
1, 259799, Note_on_c, 9, 53, 0
1, 259799, Note_on_c, 9, 69, 0
1, 259800, Note_on_c, 9, 54, 45
1, 259800, Note_on_c, 9, 82, 44
1, 259919, Note_on_c, 9, 54, 0
1, 259919, Note_on_c, 9, 82, 0
1, 259920, Note_on_c, 9, 54, 68
1, 259920, Note_on_c, 9, 69, 44
1, 259920, Note_on_c, 9, 42, 43
1, 259920, Note_on_c, 9, 35, 97
1, 259924, Note_on_c, 9, 42, 0
1, 260039, Note_on_c, 9, 54, 0
1, 260039, Note_on_c, 9, 69, 0
1, 260040, Note_on_c, 9, 54, 44
1, 260040, Note_on_c, 9, 82, 44
1, 260159, Note_on_c, 9, 35, 0
1, 260159, Note_on_c, 9, 54, 0
1, 260159, Note_on_c, 9, 82, 0
1, 260160, Note_on_c, 9, 40, 86
1, 260160, Note_on_c, 9, 54, 68
1, 260160, Note_on_c, 9, 53, 66
1, 260160, Note_on_c, 9, 69, 44
1, 260160, Note_on_c, 9, 42, 95
1, 260160, Note_on_c, 9, 55, 46
1, 260160, Note_on_c, 9, 35, 109
1, 260164, Note_on_c, 9, 42, 0
1, 260164, Note_on_c, 9, 55, 0
1, 260279, Note_on_c, 9, 40, 0
1, 260279, Note_on_c, 9, 54, 0
1, 260279, Note_on_c, 9, 53, 0
1, 260279, Note_on_c, 9, 69, 0
1, 260280, Note_on_c, 9, 54, 48
1, 260280, Note_on_c, 9, 82, 44
1, 260399, Note_on_c, 9, 54, 0
1, 260399, Note_on_c, 9, 82, 0
1, 260400, Note_on_c, 9, 54, 68
1, 260400, Note_on_c, 9, 69, 44
1, 260400, Note_on_c, 9, 42, 38
1, 260404, Note_on_c, 9, 42, 0
1, 260519, Note_on_c, 9, 35, 0
1, 260519, Note_on_c, 9, 54, 0
1, 260519, Note_on_c, 9, 69, 0
1, 260520, Note_on_c, 9, 54, 47
1, 260520, Note_on_c, 9, 82, 44
1, 260520, Note_on_c, 9, 35, 111
1, 260639, Note_on_c, 9, 54, 0
1, 260639, Note_on_c, 9, 82, 0
1, 260639, Note_on_c, 9, 35, 0
1, 260640, Note_on_c, 9, 40, 86
1, 260640, Note_on_c, 9, 54, 68
1, 260640, Note_on_c, 9, 53, 66
1, 260640, Note_on_c, 9, 69, 44
1, 260640, Note_on_c, 9, 42, 92
1, 260640, Note_on_c, 9, 55, 46
1, 260644, Note_on_c, 9, 42, 0
1, 260644, Note_on_c, 9, 55, 0
1, 260759, Note_on_c, 9, 40, 0
1, 260759, Note_on_c, 9, 54, 0
1, 260759, Note_on_c, 9, 53, 0
1, 260759, Note_on_c, 9, 69, 0
1, 260760, Note_on_c, 9, 54, 46
1, 260760, Note_on_c, 9, 82, 44
1, 260879, Note_on_c, 9, 54, 0
1, 260879, Note_on_c, 9, 82, 0
1, 260880, Note_on_c, 9, 54, 68
1, 260880, Note_on_c, 9, 69, 44
1, 260880, Note_on_c, 9, 42, 47
1, 260880, Note_on_c, 9, 35, 101
1, 260884, Note_on_c, 9, 42, 0
1, 260999, Note_on_c, 9, 54, 0
1, 260999, Note_on_c, 9, 69, 0
1, 261000, Note_on_c, 9, 54, 51
1, 261000, Note_on_c, 9, 82, 44
1, 261119, Note_on_c, 9, 35, 0
1, 261119, Note_on_c, 9, 54, 0
1, 261119, Note_on_c, 9, 82, 0
1, 261120, Note_on_c, 9, 40, 86
1, 261120, Note_on_c, 9, 54, 68
1, 261120, Note_on_c, 9, 53, 66
1, 261120, Note_on_c, 9, 69, 44
1, 261120, Note_on_c, 9, 42, 86
1, 261120, Note_on_c, 9, 55, 46
1, 261120, Note_on_c, 9, 35, 109
1, 261124, Note_on_c, 9, 42, 0
1, 261124, Note_on_c, 9, 55, 0
1, 261239, Note_on_c, 9, 40, 0
1, 261239, Note_on_c, 9, 54, 0
1, 261239, Note_on_c, 9, 53, 0
1, 261239, Note_on_c, 9, 69, 0
1, 261240, Note_on_c, 9, 54, 41
1, 261240, Note_on_c, 9, 82, 44
1, 261359, Note_on_c, 9, 54, 0
1, 261359, Note_on_c, 9, 82, 0
1, 261360, Note_on_c, 9, 54, 68
1, 261360, Note_on_c, 9, 69, 44
1, 261360, Note_on_c, 9, 42, 36
1, 261364, Note_on_c, 9, 42, 0
1, 261479, Note_on_c, 9, 35, 0
1, 261479, Note_on_c, 9, 54, 0
1, 261479, Note_on_c, 9, 69, 0
1, 261480, Note_on_c, 9, 54, 49
1, 261480, Note_on_c, 9, 82, 44
1, 261480, Note_on_c, 9, 35, 103
1, 261599, Note_on_c, 9, 54, 0
1, 261599, Note_on_c, 9, 82, 0
1, 261599, Note_on_c, 9, 35, 0
1, 261600, Note_on_c, 9, 40, 86
1, 261600, Note_on_c, 9, 54, 68
1, 261600, Note_on_c, 9, 53, 66
1, 261600, Note_on_c, 9, 69, 44
1, 261600, Note_on_c, 9, 42, 91
1, 261600, Note_on_c, 9, 55, 46
1, 261604, Note_on_c, 9, 42, 0
1, 261604, Note_on_c, 9, 55, 0
1, 261719, Note_on_c, 9, 40, 0
1, 261719, Note_on_c, 9, 54, 0
1, 261719, Note_on_c, 9, 53, 0
1, 261719, Note_on_c, 9, 69, 0
1, 261720, Note_on_c, 9, 54, 45
1, 261720, Note_on_c, 9, 82, 44
1, 261839, Note_on_c, 9, 54, 0
1, 261839, Note_on_c, 9, 82, 0
1, 261840, Note_on_c, 9, 54, 68
1, 261840, Note_on_c, 9, 69, 44
1, 261840, Note_on_c, 9, 42, 43
1, 261840, Note_on_c, 9, 35, 97
1, 261844, Note_on_c, 9, 42, 0
1, 261959, Note_on_c, 9, 54, 0
1, 261959, Note_on_c, 9, 69, 0
1, 261960, Note_on_c, 9, 54, 44
1, 261960, Note_on_c, 9, 82, 44
1, 262079, Note_on_c, 9, 35, 0
1, 262079, Note_on_c, 9, 54, 0
1, 262079, Note_on_c, 9, 82, 0
1, 262080, Note_on_c, 9, 40, 86
1, 262080, Note_on_c, 9, 54, 68
1, 262080, Note_on_c, 9, 53, 66
1, 262080, Note_on_c, 9, 69, 44
1, 262080, Note_on_c, 9, 42, 95
1, 262080, Note_on_c, 9, 55, 46
1, 262080, Note_on_c, 9, 35, 109
1, 262084, Note_on_c, 9, 42, 0
1, 262084, Note_on_c, 9, 55, 0
1, 262199, Note_on_c, 9, 40, 0
1, 262199, Note_on_c, 9, 54, 0
1, 262199, Note_on_c, 9, 53, 0
1, 262199, Note_on_c, 9, 69, 0
1, 262200, Note_on_c, 9, 54, 48
1, 262200, Note_on_c, 9, 82, 44
1, 262319, Note_on_c, 9, 54, 0
1, 262319, Note_on_c, 9, 82, 0
1, 262320, Note_on_c, 9, 54, 68
1, 262320, Note_on_c, 9, 69, 44
1, 262320, Note_on_c, 9, 42, 38
1, 262324, Note_on_c, 9, 42, 0
1, 262439, Note_on_c, 9, 35, 0
1, 262439, Note_on_c, 9, 54, 0
1, 262439, Note_on_c, 9, 69, 0
1, 262440, Note_on_c, 9, 54, 47
1, 262440, Note_on_c, 9, 82, 44
1, 262440, Note_on_c, 9, 35, 111
1, 262559, Note_on_c, 9, 54, 0
1, 262559, Note_on_c, 9, 82, 0
1, 262559, Note_on_c, 9, 35, 0
1, 262560, Note_on_c, 9, 40, 86
1, 262560, Note_on_c, 9, 54, 68
1, 262560, Note_on_c, 9, 53, 66
1, 262560, Note_on_c, 9, 69, 44
1, 262560, Note_on_c, 9, 42, 92
1, 262560, Note_on_c, 9, 55, 46
1, 262564, Note_on_c, 9, 42, 0
1, 262564, Note_on_c, 9, 55, 0
1, 262679, Note_on_c, 9, 40, 0
1, 262679, Note_on_c, 9, 54, 0
1, 262679, Note_on_c, 9, 53, 0
1, 262679, Note_on_c, 9, 69, 0
1, 262680, Note_on_c, 9, 54, 46
1, 262680, Note_on_c, 9, 82, 44
1, 262799, Note_on_c, 9, 54, 0
1, 262799, Note_on_c, 9, 82, 0
1, 262800, Note_on_c, 9, 54, 68
1, 262800, Note_on_c, 9, 69, 44
1, 262800, Note_on_c, 9, 42, 47
1, 262800, Note_on_c, 9, 35, 101
1, 262804, Note_on_c, 9, 42, 0
1, 262919, Note_on_c, 9, 54, 0
1, 262919, Note_on_c, 9, 69, 0
1, 262920, Note_on_c, 9, 54, 51
1, 262920, Note_on_c, 9, 82, 44
1, 263039, Note_on_c, 9, 35, 0
1, 263039, Note_on_c, 9, 54, 0
1, 263039, Note_on_c, 9, 82, 0
1, 263040, Note_on_c, 9, 40, 86
1, 263040, Note_on_c, 9, 54, 68
1, 263040, Note_on_c, 9, 53, 66
1, 263040, Note_on_c, 9, 69, 44
1, 263040, Note_on_c, 9, 42, 86
1, 263040, Note_on_c, 9, 55, 46
1, 263040, Note_on_c, 9, 35, 109
1, 263044, Note_on_c, 9, 42, 0
1, 263044, Note_on_c, 9, 55, 0
1, 263159, Note_on_c, 9, 40, 0
1, 263159, Note_on_c, 9, 54, 0
1, 263159, Note_on_c, 9, 53, 0
1, 263159, Note_on_c, 9, 69, 0
1, 263160, Note_on_c, 9, 54, 41
1, 263160, Note_on_c, 9, 82, 44
1, 263279, Note_on_c, 9, 35, 0
1, 263279, Note_on_c, 9, 54, 0
1, 263279, Note_on_c, 9, 82, 0
1, 263280, Note_on_c, 9, 54, 68
1, 263280, Note_on_c, 9, 69, 44
1, 263280, Note_on_c, 9, 42, 36
1, 263280, Note_on_c, 9, 35, 103
1, 263284, Note_on_c, 9, 42, 0
1, 263399, Note_on_c, 9, 54, 0
1, 263399, Note_on_c, 9, 69, 0
1, 263400, Note_on_c, 9, 54, 49
1, 263400, Note_on_c, 9, 82, 44
1, 263519, Note_on_c, 9, 35, 0
1, 263519, Note_on_c, 9, 54, 0
1, 263519, Note_on_c, 9, 82, 0
1, 263520, Note_on_c, 9, 40, 86
1, 263520, Note_on_c, 9, 54, 68
1, 263520, Note_on_c, 9, 53, 66
1, 263520, Note_on_c, 9, 69, 44
1, 263520, Note_on_c, 9, 42, 91
1, 263520, Note_on_c, 9, 55, 46
1, 263524, Note_on_c, 9, 42, 0
1, 263524, Note_on_c, 9, 55, 0
1, 263639, Note_on_c, 9, 40, 0
1, 263639, Note_on_c, 9, 54, 0
1, 263639, Note_on_c, 9, 53, 0
1, 263639, Note_on_c, 9, 69, 0
1, 263640, Note_on_c, 9, 54, 45
1, 263640, Note_on_c, 9, 82, 44
1, 263640, Note_on_c, 9, 35, 97
1, 263759, Note_on_c, 9, 54, 0
1, 263759, Note_on_c, 9, 82, 0
1, 263760, Note_on_c, 9, 40, 71
1, 263760, Note_on_c, 9, 54, 68
1, 263760, Note_on_c, 9, 69, 44
1, 263760, Note_on_c, 9, 42, 43
1, 263764, Note_on_c, 9, 42, 0
1, 263879, Note_on_c, 9, 40, 0
1, 263879, Note_on_c, 9, 54, 0
1, 263879, Note_on_c, 9, 69, 0
1, 263880, Note_on_c, 9, 40, 78
1, 263880, Note_on_c, 9, 54, 44
1, 263880, Note_on_c, 9, 82, 44
1, 263999, Note_on_c, 9, 35, 0
1, 263999, Note_on_c, 9, 40, 0
1, 263999, Note_on_c, 9, 54, 0
1, 263999, Note_on_c, 9, 82, 0
1, 264000, Note_on_c, 9, 40, 56
1, 264000, Note_on_c, 9, 54, 68
1, 264000, Note_on_c, 9, 53, 66
1, 264000, Note_on_c, 9, 69, 44
1, 264000, Note_on_c, 9, 42, 95
1, 264000, Note_on_c, 9, 55, 46
1, 264000, Note_on_c, 9, 35, 109
1, 264004, Note_on_c, 9, 42, 0
1, 264004, Note_on_c, 9, 55, 0
1, 264119, Note_on_c, 9, 40, 0
1, 264119, Note_on_c, 9, 54, 0
1, 264119, Note_on_c, 9, 53, 0
1, 264119, Note_on_c, 9, 69, 0
1, 264120, Note_on_c, 9, 40, 72
1, 264120, Note_on_c, 9, 54, 48
1, 264120, Note_on_c, 9, 82, 44
1, 264239, Note_on_c, 9, 35, 0
1, 264239, Note_on_c, 9, 40, 0
1, 264239, Note_on_c, 9, 54, 0
1, 264239, Note_on_c, 9, 82, 0
1, 264240, Note_on_c, 9, 40, 74
1, 264240, Note_on_c, 9, 54, 68
1, 264240, Note_on_c, 9, 69, 44
1, 264240, Note_on_c, 9, 42, 38
1, 264240, Note_on_c, 9, 35, 109
1, 264244, Note_on_c, 9, 42, 0
1, 264359, Note_on_c, 9, 40, 0
1, 264359, Note_on_c, 9, 54, 0
1, 264359, Note_on_c, 9, 69, 0
1, 264360, Note_on_c, 9, 40, 76
1, 264360, Note_on_c, 9, 54, 47
1, 264360, Note_on_c, 9, 82, 44
1, 264479, Note_on_c, 9, 35, 0
1, 264479, Note_on_c, 9, 40, 0
1, 264479, Note_on_c, 9, 54, 0
1, 264479, Note_on_c, 9, 82, 0
1, 264480, Note_on_c, 9, 40, 77
1, 264480, Note_on_c, 9, 54, 68
1, 264480, Note_on_c, 9, 53, 66
1, 264480, Note_on_c, 9, 69, 44
1, 264480, Note_on_c, 9, 42, 92
1, 264480, Note_on_c, 9, 55, 46
1, 264480, Note_on_c, 9, 35, 109
1, 264484, Note_on_c, 9, 42, 0
1, 264484, Note_on_c, 9, 55, 0
1, 264599, Note_on_c, 9, 40, 0
1, 264599, Note_on_c, 9, 54, 0
1, 264599, Note_on_c, 9, 53, 0
1, 264599, Note_on_c, 9, 69, 0
1, 264600, Note_on_c, 9, 40, 77
1, 264600, Note_on_c, 9, 54, 46
1, 264600, Note_on_c, 9, 82, 44
1, 264719, Note_on_c, 9, 35, 0
1, 264719, Note_on_c, 9, 40, 0
1, 264719, Note_on_c, 9, 54, 0
1, 264719, Note_on_c, 9, 82, 0
1, 264720, Note_on_c, 9, 40, 75
1, 264720, Note_on_c, 9, 54, 68
1, 264720, Note_on_c, 9, 69, 44
1, 264720, Note_on_c, 9, 42, 47
1, 264720, Note_on_c, 9, 35, 109
1, 264724, Note_on_c, 9, 42, 0
1, 264839, Note_on_c, 9, 40, 0
1, 264839, Note_on_c, 9, 54, 0
1, 264839, Note_on_c, 9, 69, 0
1, 264840, Note_on_c, 9, 40, 82
1, 264840, Note_on_c, 9, 54, 51
1, 264840, Note_on_c, 9, 82, 44
1, 264959, Note_on_c, 9, 35, 0
1, 264959, Note_on_c, 9, 40, 0
1, 264959, Note_on_c, 9, 54, 0
1, 264959, Note_on_c, 9, 82, 0
1, 264960, Note_on_c, 9, 40, 86
1, 264960, Note_on_c, 9, 54, 68
1, 264960, Note_on_c, 9, 53, 66
1, 264960, Note_on_c, 9, 69, 44
1, 264960, Note_on_c, 9, 42, 86
1, 264960, Note_on_c, 9, 49, 65
1, 264960, Note_on_c, 9, 55, 46
1, 264960, Note_on_c, 9, 35, 109
1, 264964, Note_on_c, 9, 42, 0
1, 264964, Note_on_c, 9, 49, 0
1, 264964, Note_on_c, 9, 55, 0
1, 265079, Note_on_c, 9, 40, 0
1, 265079, Note_on_c, 9, 54, 0
1, 265079, Note_on_c, 9, 53, 0
1, 265079, Note_on_c, 9, 69, 0
1, 265080, Note_on_c, 9, 54, 41
1, 265080, Note_on_c, 9, 82, 44
1, 265199, Note_on_c, 9, 54, 0
1, 265199, Note_on_c, 9, 82, 0
1, 265200, Note_on_c, 9, 54, 68
1, 265200, Note_on_c, 9, 69, 44
1, 265200, Note_on_c, 9, 42, 36
1, 265204, Note_on_c, 9, 42, 0
1, 265319, Note_on_c, 9, 35, 0
1, 265319, Note_on_c, 9, 54, 0
1, 265319, Note_on_c, 9, 69, 0
1, 265320, Note_on_c, 9, 54, 49
1, 265320, Note_on_c, 9, 82, 44
1, 265320, Note_on_c, 9, 35, 103
1, 265439, Note_on_c, 9, 54, 0
1, 265439, Note_on_c, 9, 82, 0
1, 265439, Note_on_c, 9, 35, 0
1, 265440, Note_on_c, 9, 40, 86
1, 265440, Note_on_c, 9, 54, 68
1, 265440, Note_on_c, 9, 53, 66
1, 265440, Note_on_c, 9, 69, 44
1, 265440, Note_on_c, 9, 42, 91
1, 265440, Note_on_c, 9, 55, 46
1, 265444, Note_on_c, 9, 42, 0
1, 265444, Note_on_c, 9, 55, 0
1, 265559, Note_on_c, 9, 40, 0
1, 265559, Note_on_c, 9, 54, 0
1, 265559, Note_on_c, 9, 53, 0
1, 265559, Note_on_c, 9, 69, 0
1, 265560, Note_on_c, 9, 54, 45
1, 265560, Note_on_c, 9, 82, 44
1, 265679, Note_on_c, 9, 54, 0
1, 265679, Note_on_c, 9, 82, 0
1, 265680, Note_on_c, 9, 54, 68
1, 265680, Note_on_c, 9, 69, 44
1, 265680, Note_on_c, 9, 42, 43
1, 265680, Note_on_c, 9, 35, 97
1, 265684, Note_on_c, 9, 42, 0
1, 265799, Note_on_c, 9, 54, 0
1, 265799, Note_on_c, 9, 69, 0
1, 265800, Note_on_c, 9, 54, 44
1, 265800, Note_on_c, 9, 82, 44
1, 265919, Note_on_c, 9, 35, 0
1, 265919, Note_on_c, 9, 54, 0
1, 265919, Note_on_c, 9, 82, 0
1, 265920, Note_on_c, 9, 40, 86
1, 265920, Note_on_c, 9, 54, 68
1, 265920, Note_on_c, 9, 53, 66
1, 265920, Note_on_c, 9, 69, 44
1, 265920, Note_on_c, 9, 42, 95
1, 265920, Note_on_c, 9, 55, 46
1, 265920, Note_on_c, 9, 35, 109
1, 265924, Note_on_c, 9, 42, 0
1, 265924, Note_on_c, 9, 55, 0
1, 266039, Note_on_c, 9, 40, 0
1, 266039, Note_on_c, 9, 54, 0
1, 266039, Note_on_c, 9, 53, 0
1, 266039, Note_on_c, 9, 69, 0
1, 266040, Note_on_c, 9, 54, 48
1, 266040, Note_on_c, 9, 82, 44
1, 266159, Note_on_c, 9, 54, 0
1, 266159, Note_on_c, 9, 82, 0
1, 266160, Note_on_c, 9, 54, 68
1, 266160, Note_on_c, 9, 69, 44
1, 266160, Note_on_c, 9, 42, 38
1, 266164, Note_on_c, 9, 42, 0
1, 266279, Note_on_c, 9, 35, 0
1, 266279, Note_on_c, 9, 54, 0
1, 266279, Note_on_c, 9, 69, 0
1, 266280, Note_on_c, 9, 54, 47
1, 266280, Note_on_c, 9, 82, 44
1, 266280, Note_on_c, 9, 35, 111
1, 266399, Note_on_c, 9, 54, 0
1, 266399, Note_on_c, 9, 82, 0
1, 266399, Note_on_c, 9, 35, 0
1, 266400, Note_on_c, 9, 40, 86
1, 266400, Note_on_c, 9, 54, 68
1, 266400, Note_on_c, 9, 53, 66
1, 266400, Note_on_c, 9, 69, 44
1, 266400, Note_on_c, 9, 42, 92
1, 266400, Note_on_c, 9, 55, 46
1, 266404, Note_on_c, 9, 42, 0
1, 266404, Note_on_c, 9, 55, 0
1, 266519, Note_on_c, 9, 40, 0
1, 266519, Note_on_c, 9, 54, 0
1, 266519, Note_on_c, 9, 53, 0
1, 266519, Note_on_c, 9, 69, 0
1, 266520, Note_on_c, 9, 54, 46
1, 266520, Note_on_c, 9, 82, 44
1, 266639, Note_on_c, 9, 54, 0
1, 266639, Note_on_c, 9, 82, 0
1, 266640, Note_on_c, 9, 54, 68
1, 266640, Note_on_c, 9, 69, 44
1, 266640, Note_on_c, 9, 42, 47
1, 266640, Note_on_c, 9, 35, 101
1, 266644, Note_on_c, 9, 42, 0
1, 266759, Note_on_c, 9, 54, 0
1, 266759, Note_on_c, 9, 69, 0
1, 266760, Note_on_c, 9, 54, 51
1, 266760, Note_on_c, 9, 82, 44
1, 266879, Note_on_c, 9, 35, 0
1, 266879, Note_on_c, 9, 54, 0
1, 266879, Note_on_c, 9, 82, 0
1, 266880, Note_on_c, 9, 40, 86
1, 266880, Note_on_c, 9, 54, 68
1, 266880, Note_on_c, 9, 53, 66
1, 266880, Note_on_c, 9, 69, 44
1, 266880, Note_on_c, 9, 42, 86
1, 266880, Note_on_c, 9, 55, 46
1, 266880, Note_on_c, 9, 35, 109
1, 266884, Note_on_c, 9, 42, 0
1, 266884, Note_on_c, 9, 55, 0
1, 266999, Note_on_c, 9, 40, 0
1, 266999, Note_on_c, 9, 54, 0
1, 266999, Note_on_c, 9, 53, 0
1, 266999, Note_on_c, 9, 69, 0
1, 267000, Note_on_c, 9, 54, 41
1, 267000, Note_on_c, 9, 82, 44
1, 267119, Note_on_c, 9, 54, 0
1, 267119, Note_on_c, 9, 82, 0
1, 267120, Note_on_c, 9, 54, 68
1, 267120, Note_on_c, 9, 69, 44
1, 267120, Note_on_c, 9, 42, 36
1, 267124, Note_on_c, 9, 42, 0
1, 267239, Note_on_c, 9, 35, 0
1, 267239, Note_on_c, 9, 54, 0
1, 267239, Note_on_c, 9, 69, 0
1, 267240, Note_on_c, 9, 54, 49
1, 267240, Note_on_c, 9, 82, 44
1, 267240, Note_on_c, 9, 35, 103
1, 267359, Note_on_c, 9, 54, 0
1, 267359, Note_on_c, 9, 82, 0
1, 267359, Note_on_c, 9, 35, 0
1, 267360, Note_on_c, 9, 40, 86
1, 267360, Note_on_c, 9, 54, 68
1, 267360, Note_on_c, 9, 53, 66
1, 267360, Note_on_c, 9, 69, 44
1, 267360, Note_on_c, 9, 42, 91
1, 267360, Note_on_c, 9, 55, 46
1, 267364, Note_on_c, 9, 42, 0
1, 267364, Note_on_c, 9, 55, 0
1, 267479, Note_on_c, 9, 40, 0
1, 267479, Note_on_c, 9, 54, 0
1, 267479, Note_on_c, 9, 53, 0
1, 267479, Note_on_c, 9, 69, 0
1, 267480, Note_on_c, 9, 54, 45
1, 267480, Note_on_c, 9, 82, 44
1, 267599, Note_on_c, 9, 54, 0
1, 267599, Note_on_c, 9, 82, 0
1, 267600, Note_on_c, 9, 54, 68
1, 267600, Note_on_c, 9, 69, 44
1, 267600, Note_on_c, 9, 42, 43
1, 267600, Note_on_c, 9, 35, 97
1, 267604, Note_on_c, 9, 42, 0
1, 267719, Note_on_c, 9, 54, 0
1, 267719, Note_on_c, 9, 69, 0
1, 267720, Note_on_c, 9, 54, 44
1, 267720, Note_on_c, 9, 82, 44
1, 267839, Note_on_c, 9, 35, 0
1, 267839, Note_on_c, 9, 54, 0
1, 267839, Note_on_c, 9, 82, 0
1, 267840, Note_on_c, 9, 40, 86
1, 267840, Note_on_c, 9, 54, 68
1, 267840, Note_on_c, 9, 53, 66
1, 267840, Note_on_c, 9, 69, 44
1, 267840, Note_on_c, 9, 42, 95
1, 267840, Note_on_c, 9, 55, 46
1, 267840, Note_on_c, 9, 35, 109
1, 267844, Note_on_c, 9, 42, 0
1, 267844, Note_on_c, 9, 55, 0
1, 267959, Note_on_c, 9, 40, 0
1, 267959, Note_on_c, 9, 54, 0
1, 267959, Note_on_c, 9, 53, 0
1, 267959, Note_on_c, 9, 69, 0
1, 267960, Note_on_c, 9, 54, 48
1, 267960, Note_on_c, 9, 82, 44
1, 268079, Note_on_c, 9, 54, 0
1, 268079, Note_on_c, 9, 82, 0
1, 268080, Note_on_c, 9, 54, 68
1, 268080, Note_on_c, 9, 69, 44
1, 268080, Note_on_c, 9, 42, 38
1, 268084, Note_on_c, 9, 42, 0
1, 268199, Note_on_c, 9, 35, 0
1, 268199, Note_on_c, 9, 54, 0
1, 268199, Note_on_c, 9, 69, 0
1, 268200, Note_on_c, 9, 54, 47
1, 268200, Note_on_c, 9, 82, 44
1, 268200, Note_on_c, 9, 35, 111
1, 268319, Note_on_c, 9, 54, 0
1, 268319, Note_on_c, 9, 82, 0
1, 268319, Note_on_c, 9, 35, 0
1, 268320, Note_on_c, 9, 40, 86
1, 268320, Note_on_c, 9, 54, 68
1, 268320, Note_on_c, 9, 53, 66
1, 268320, Note_on_c, 9, 69, 44
1, 268320, Note_on_c, 9, 42, 92
1, 268320, Note_on_c, 9, 55, 46
1, 268324, Note_on_c, 9, 42, 0
1, 268324, Note_on_c, 9, 55, 0
1, 268439, Note_on_c, 9, 40, 0
1, 268439, Note_on_c, 9, 54, 0
1, 268439, Note_on_c, 9, 53, 0
1, 268439, Note_on_c, 9, 69, 0
1, 268440, Note_on_c, 9, 54, 46
1, 268440, Note_on_c, 9, 82, 44
1, 268559, Note_on_c, 9, 54, 0
1, 268559, Note_on_c, 9, 82, 0
1, 268560, Note_on_c, 9, 54, 68
1, 268560, Note_on_c, 9, 69, 44
1, 268560, Note_on_c, 9, 42, 47
1, 268560, Note_on_c, 9, 35, 101
1, 268564, Note_on_c, 9, 42, 0
1, 268679, Note_on_c, 9, 54, 0
1, 268679, Note_on_c, 9, 69, 0
1, 268680, Note_on_c, 9, 54, 51
1, 268680, Note_on_c, 9, 82, 44
1, 268799, Note_on_c, 9, 35, 0
1, 268799, Note_on_c, 9, 54, 0
1, 268799, Note_on_c, 9, 82, 0
1, 268800, Note_on_c, 9, 40, 86
1, 268800, Note_on_c, 9, 54, 68
1, 268800, Note_on_c, 9, 53, 66
1, 268800, Note_on_c, 9, 69, 44
1, 268800, Note_on_c, 9, 42, 86
1, 268800, Note_on_c, 9, 55, 46
1, 268800, Note_on_c, 9, 35, 109
1, 268804, Note_on_c, 9, 42, 0
1, 268804, Note_on_c, 9, 55, 0
1, 268919, Note_on_c, 9, 40, 0
1, 268919, Note_on_c, 9, 54, 0
1, 268919, Note_on_c, 9, 53, 0
1, 268919, Note_on_c, 9, 69, 0
1, 268920, Note_on_c, 9, 54, 41
1, 268920, Note_on_c, 9, 82, 44
1, 269039, Note_on_c, 9, 54, 0
1, 269039, Note_on_c, 9, 82, 0
1, 269040, Note_on_c, 9, 54, 68
1, 269040, Note_on_c, 9, 69, 44
1, 269040, Note_on_c, 9, 42, 36
1, 269044, Note_on_c, 9, 42, 0
1, 269159, Note_on_c, 9, 35, 0
1, 269159, Note_on_c, 9, 54, 0
1, 269159, Note_on_c, 9, 69, 0
1, 269160, Note_on_c, 9, 54, 49
1, 269160, Note_on_c, 9, 82, 44
1, 269160, Note_on_c, 9, 35, 103
1, 269279, Note_on_c, 9, 54, 0
1, 269279, Note_on_c, 9, 82, 0
1, 269279, Note_on_c, 9, 35, 0
1, 269280, Note_on_c, 9, 40, 86
1, 269280, Note_on_c, 9, 54, 68
1, 269280, Note_on_c, 9, 53, 66
1, 269280, Note_on_c, 9, 69, 44
1, 269280, Note_on_c, 9, 42, 91
1, 269280, Note_on_c, 9, 55, 46
1, 269284, Note_on_c, 9, 42, 0
1, 269284, Note_on_c, 9, 55, 0
1, 269399, Note_on_c, 9, 40, 0
1, 269399, Note_on_c, 9, 54, 0
1, 269399, Note_on_c, 9, 53, 0
1, 269399, Note_on_c, 9, 69, 0
1, 269400, Note_on_c, 9, 54, 45
1, 269400, Note_on_c, 9, 82, 44
1, 269519, Note_on_c, 9, 54, 0
1, 269519, Note_on_c, 9, 82, 0
1, 269520, Note_on_c, 9, 54, 68
1, 269520, Note_on_c, 9, 69, 44
1, 269520, Note_on_c, 9, 42, 43
1, 269520, Note_on_c, 9, 35, 97
1, 269524, Note_on_c, 9, 42, 0
1, 269639, Note_on_c, 9, 54, 0
1, 269639, Note_on_c, 9, 69, 0
1, 269640, Note_on_c, 9, 54, 44
1, 269640, Note_on_c, 9, 82, 44
1, 269759, Note_on_c, 9, 35, 0
1, 269759, Note_on_c, 9, 54, 0
1, 269759, Note_on_c, 9, 82, 0
1, 269760, Note_on_c, 9, 40, 86
1, 269760, Note_on_c, 9, 54, 68
1, 269760, Note_on_c, 9, 53, 66
1, 269760, Note_on_c, 9, 69, 44
1, 269760, Note_on_c, 9, 42, 95
1, 269760, Note_on_c, 9, 55, 46
1, 269760, Note_on_c, 9, 35, 109
1, 269764, Note_on_c, 9, 42, 0
1, 269764, Note_on_c, 9, 55, 0
1, 269879, Note_on_c, 9, 40, 0
1, 269879, Note_on_c, 9, 54, 0
1, 269879, Note_on_c, 9, 53, 0
1, 269879, Note_on_c, 9, 69, 0
1, 269880, Note_on_c, 9, 54, 48
1, 269880, Note_on_c, 9, 82, 44
1, 269999, Note_on_c, 9, 54, 0
1, 269999, Note_on_c, 9, 82, 0
1, 270000, Note_on_c, 9, 54, 68
1, 270000, Note_on_c, 9, 69, 44
1, 270000, Note_on_c, 9, 42, 38
1, 270004, Note_on_c, 9, 42, 0
1, 270119, Note_on_c, 9, 35, 0
1, 270119, Note_on_c, 9, 54, 0
1, 270119, Note_on_c, 9, 69, 0
1, 270120, Note_on_c, 9, 54, 47
1, 270120, Note_on_c, 9, 82, 44
1, 270120, Note_on_c, 9, 35, 111
1, 270239, Note_on_c, 9, 54, 0
1, 270239, Note_on_c, 9, 82, 0
1, 270239, Note_on_c, 9, 35, 0
1, 270240, Note_on_c, 9, 40, 86
1, 270240, Note_on_c, 9, 54, 68
1, 270240, Note_on_c, 9, 53, 66
1, 270240, Note_on_c, 9, 69, 44
1, 270240, Note_on_c, 9, 42, 92
1, 270240, Note_on_c, 9, 55, 46
1, 270244, Note_on_c, 9, 42, 0
1, 270244, Note_on_c, 9, 55, 0
1, 270359, Note_on_c, 9, 40, 0
1, 270359, Note_on_c, 9, 54, 0
1, 270359, Note_on_c, 9, 53, 0
1, 270359, Note_on_c, 9, 69, 0
1, 270360, Note_on_c, 9, 54, 46
1, 270360, Note_on_c, 9, 82, 44
1, 270479, Note_on_c, 9, 54, 0
1, 270479, Note_on_c, 9, 82, 0
1, 270480, Note_on_c, 9, 54, 68
1, 270480, Note_on_c, 9, 69, 44
1, 270480, Note_on_c, 9, 42, 47
1, 270480, Note_on_c, 9, 35, 101
1, 270484, Note_on_c, 9, 42, 0
1, 270599, Note_on_c, 9, 54, 0
1, 270599, Note_on_c, 9, 69, 0
1, 270600, Note_on_c, 9, 54, 51
1, 270600, Note_on_c, 9, 82, 44
1, 270719, Note_on_c, 9, 35, 0
1, 270719, Note_on_c, 9, 54, 0
1, 270719, Note_on_c, 9, 82, 0
1, 270720, Note_on_c, 9, 40, 86
1, 270720, Note_on_c, 9, 54, 68
1, 270720, Note_on_c, 9, 53, 66
1, 270720, Note_on_c, 9, 69, 44
1, 270720, Note_on_c, 9, 42, 86
1, 270720, Note_on_c, 9, 55, 46
1, 270720, Note_on_c, 9, 35, 109
1, 270724, Note_on_c, 9, 42, 0
1, 270724, Note_on_c, 9, 55, 0
1, 270839, Note_on_c, 9, 40, 0
1, 270839, Note_on_c, 9, 54, 0
1, 270839, Note_on_c, 9, 53, 0
1, 270839, Note_on_c, 9, 69, 0
1, 270839, Note_on_c, 9, 35, 0
1, 270840, Note_on_c, 9, 54, 41
1, 270840, Note_on_c, 9, 82, 44
1, 270840, Note_on_c, 9, 49, 55
1, 270840, Note_on_c, 9, 35, 109
1, 270844, Note_on_c, 9, 49, 0
1, 270959, Note_on_c, 9, 54, 0
1, 270959, Note_on_c, 9, 82, 0
1, 270959, Note_on_c, 9, 35, 0
1, 270960, Note_on_c, 9, 54, 68
1, 270960, Note_on_c, 9, 69, 44
1, 270960, Note_on_c, 9, 42, 36
1, 270960, Note_on_c, 9, 35, 103
1, 270964, Note_on_c, 9, 42, 0
1, 271079, Note_on_c, 9, 54, 0
1, 271079, Note_on_c, 9, 69, 0
1, 271079, Note_on_c, 9, 35, 0
1, 271080, Note_on_c, 9, 54, 49
1, 271080, Note_on_c, 9, 82, 44
1, 271080, Note_on_c, 9, 35, 103
1, 271199, Note_on_c, 9, 54, 0
1, 271199, Note_on_c, 9, 82, 0
1, 271199, Note_on_c, 9, 35, 0
1, 271200, Note_on_c, 9, 40, 86
1, 271200, Note_on_c, 9, 54, 68
1, 271200, Note_on_c, 9, 53, 66
1, 271200, Note_on_c, 9, 69, 44
1, 271200, Note_on_c, 9, 42, 91
1, 271200, Note_on_c, 9, 55, 46
1, 271204, Note_on_c, 9, 42, 0
1, 271204, Note_on_c, 9, 55, 0
1, 271319, Note_on_c, 9, 40, 0
1, 271319, Note_on_c, 9, 54, 0
1, 271319, Note_on_c, 9, 53, 0
1, 271319, Note_on_c, 9, 69, 0
1, 271320, Note_on_c, 9, 40, 86
1, 271320, Note_on_c, 9, 54, 45
1, 271320, Note_on_c, 9, 82, 44
1, 271320, Note_on_c, 9, 35, 97
1, 271439, Note_on_c, 9, 40, 0
1, 271439, Note_on_c, 9, 54, 0
1, 271439, Note_on_c, 9, 82, 0
1, 271439, Note_on_c, 9, 35, 0
1, 271440, Note_on_c, 9, 54, 68
1, 271440, Note_on_c, 9, 69, 44
1, 271440, Note_on_c, 9, 42, 43
1, 271440, Note_on_c, 9, 35, 97
1, 271444, Note_on_c, 9, 42, 0
1, 271559, Note_on_c, 9, 54, 0
1, 271559, Note_on_c, 9, 69, 0
1, 271560, Note_on_c, 9, 54, 44
1, 271560, Note_on_c, 9, 82, 44
1, 271679, Note_on_c, 9, 35, 0
1, 271679, Note_on_c, 9, 54, 0
1, 271679, Note_on_c, 9, 82, 0
1, 271680, Note_on_c, 9, 40, 86
1, 271680, Note_on_c, 9, 54, 68
1, 271680, Note_on_c, 9, 53, 66
1, 271680, Note_on_c, 9, 69, 44
1, 271680, Note_on_c, 9, 42, 95
1, 271680, Note_on_c, 9, 55, 46
1, 271680, Note_on_c, 9, 35, 109
1, 271684, Note_on_c, 9, 42, 0
1, 271684, Note_on_c, 9, 55, 0
1, 271799, Note_on_c, 9, 40, 0
1, 271799, Note_on_c, 9, 54, 0
1, 271799, Note_on_c, 9, 53, 0
1, 271799, Note_on_c, 9, 69, 0
1, 271799, Note_on_c, 9, 35, 0
1, 271800, Note_on_c, 9, 54, 48
1, 271800, Note_on_c, 9, 82, 44
1, 271800, Note_on_c, 9, 49, 55
1, 271800, Note_on_c, 9, 35, 109
1, 271804, Note_on_c, 9, 49, 0
1, 271919, Note_on_c, 9, 54, 0
1, 271919, Note_on_c, 9, 82, 0
1, 271920, Note_on_c, 9, 54, 68
1, 271920, Note_on_c, 9, 69, 44
1, 271920, Note_on_c, 9, 42, 38
1, 271924, Note_on_c, 9, 42, 0
1, 272039, Note_on_c, 9, 35, 0
1, 272039, Note_on_c, 9, 54, 0
1, 272039, Note_on_c, 9, 69, 0
1, 272040, Note_on_c, 9, 54, 47
1, 272040, Note_on_c, 9, 82, 44
1, 272040, Note_on_c, 9, 35, 111
1, 272159, Note_on_c, 9, 54, 0
1, 272159, Note_on_c, 9, 82, 0
1, 272159, Note_on_c, 9, 35, 0
1, 272160, Note_on_c, 9, 40, 86
1, 272160, Note_on_c, 9, 54, 68
1, 272160, Note_on_c, 9, 53, 66
1, 272160, Note_on_c, 9, 69, 44
1, 272160, Note_on_c, 9, 42, 92
1, 272160, Note_on_c, 9, 55, 46
1, 272160, Note_on_c, 9, 57, 55
1, 272164, Note_on_c, 9, 42, 0
1, 272164, Note_on_c, 9, 55, 0
1, 272164, Note_on_c, 9, 57, 0
1, 272279, Note_on_c, 9, 40, 0
1, 272279, Note_on_c, 9, 54, 0
1, 272279, Note_on_c, 9, 53, 0
1, 272279, Note_on_c, 9, 69, 0
1, 272280, Note_on_c, 9, 54, 46
1, 272280, Note_on_c, 9, 82, 44
1, 272280, Note_on_c, 9, 35, 101
1, 272399, Note_on_c, 9, 54, 0
1, 272399, Note_on_c, 9, 82, 0
1, 272399, Note_on_c, 9, 35, 0
1, 272400, Note_on_c, 9, 54, 68
1, 272400, Note_on_c, 9, 69, 44
1, 272400, Note_on_c, 9, 42, 47
1, 272400, Note_on_c, 9, 49, 65
1, 272400, Note_on_c, 9, 35, 101
1, 272404, Note_on_c, 9, 42, 0
1, 272404, Note_on_c, 9, 49, 0
1, 272519, Note_on_c, 9, 54, 0
1, 272519, Note_on_c, 9, 69, 0
1, 272520, Note_on_c, 9, 54, 51
1, 272520, Note_on_c, 9, 82, 44
1, 272639, Note_on_c, 9, 35, 0
1, 272639, Note_on_c, 9, 54, 0
1, 272639, Note_on_c, 9, 82, 0
1, 272640, Note_on_c, 9, 40, 86
1, 272640, Note_on_c, 9, 54, 68
1, 272640, Note_on_c, 9, 53, 66
1, 272640, Note_on_c, 9, 69, 44
1, 272640, Note_on_c, 9, 42, 86
1, 272640, Note_on_c, 9, 55, 46
1, 272640, Note_on_c, 9, 57, 65
1, 272640, Note_on_c, 9, 35, 109
1, 272644, Note_on_c, 9, 42, 0
1, 272644, Note_on_c, 9, 55, 0
1, 272644, Note_on_c, 9, 57, 0
1, 272759, Note_on_c, 9, 40, 0
1, 272759, Note_on_c, 9, 54, 0
1, 272759, Note_on_c, 9, 53, 0
1, 272759, Note_on_c, 9, 69, 0
1, 272760, Note_on_c, 9, 54, 41
1, 272760, Note_on_c, 9, 82, 44
1, 272879, Note_on_c, 9, 54, 0
1, 272879, Note_on_c, 9, 82, 0
1, 272880, Note_on_c, 9, 54, 68
1, 272880, Note_on_c, 9, 69, 44
1, 272880, Note_on_c, 9, 42, 36
1, 272884, Note_on_c, 9, 42, 0
1, 272999, Note_on_c, 9, 35, 0
1, 272999, Note_on_c, 9, 54, 0
1, 272999, Note_on_c, 9, 69, 0
1, 273000, Note_on_c, 9, 54, 49
1, 273000, Note_on_c, 9, 82, 44
1, 273000, Note_on_c, 9, 35, 103
1, 273119, Note_on_c, 9, 54, 0
1, 273119, Note_on_c, 9, 82, 0
1, 273119, Note_on_c, 9, 35, 0
1, 273120, Note_on_c, 9, 40, 86
1, 273120, Note_on_c, 9, 54, 68
1, 273120, Note_on_c, 9, 53, 66
1, 273120, Note_on_c, 9, 69, 44
1, 273120, Note_on_c, 9, 42, 91
1, 273120, Note_on_c, 9, 55, 46
1, 273124, Note_on_c, 9, 42, 0
1, 273124, Note_on_c, 9, 55, 0
1, 273239, Note_on_c, 9, 40, 0
1, 273239, Note_on_c, 9, 54, 0
1, 273239, Note_on_c, 9, 53, 0
1, 273239, Note_on_c, 9, 69, 0
1, 273240, Note_on_c, 9, 54, 45
1, 273240, Note_on_c, 9, 82, 44
1, 273359, Note_on_c, 9, 54, 0
1, 273359, Note_on_c, 9, 82, 0
1, 273360, Note_on_c, 9, 54, 68
1, 273360, Note_on_c, 9, 69, 44
1, 273360, Note_on_c, 9, 42, 43
1, 273360, Note_on_c, 9, 35, 97
1, 273364, Note_on_c, 9, 42, 0
1, 273479, Note_on_c, 9, 54, 0
1, 273479, Note_on_c, 9, 69, 0
1, 273480, Note_on_c, 9, 54, 44
1, 273480, Note_on_c, 9, 82, 44
1, 273599, Note_on_c, 9, 35, 0
1, 273599, Note_on_c, 9, 54, 0
1, 273599, Note_on_c, 9, 82, 0
1, 273600, Note_on_c, 9, 40, 86
1, 273600, Note_on_c, 9, 54, 68
1, 273600, Note_on_c, 9, 53, 66
1, 273600, Note_on_c, 9, 69, 44
1, 273600, Note_on_c, 9, 42, 95
1, 273600, Note_on_c, 9, 55, 46
1, 273600, Note_on_c, 9, 35, 109
1, 273604, Note_on_c, 9, 42, 0
1, 273604, Note_on_c, 9, 55, 0
1, 273719, Note_on_c, 9, 40, 0
1, 273719, Note_on_c, 9, 54, 0
1, 273719, Note_on_c, 9, 53, 0
1, 273719, Note_on_c, 9, 69, 0
1, 273720, Note_on_c, 9, 54, 48
1, 273720, Note_on_c, 9, 82, 44
1, 273839, Note_on_c, 9, 54, 0
1, 273839, Note_on_c, 9, 82, 0
1, 273840, Note_on_c, 9, 54, 68
1, 273840, Note_on_c, 9, 69, 44
1, 273840, Note_on_c, 9, 42, 38
1, 273844, Note_on_c, 9, 42, 0
1, 273959, Note_on_c, 9, 35, 0
1, 273959, Note_on_c, 9, 54, 0
1, 273959, Note_on_c, 9, 69, 0
1, 273960, Note_on_c, 9, 54, 47
1, 273960, Note_on_c, 9, 82, 44
1, 273960, Note_on_c, 9, 35, 111
1, 274079, Note_on_c, 9, 54, 0
1, 274079, Note_on_c, 9, 82, 0
1, 274079, Note_on_c, 9, 35, 0
1, 274080, Note_on_c, 9, 40, 86
1, 274080, Note_on_c, 9, 54, 68
1, 274080, Note_on_c, 9, 53, 66
1, 274080, Note_on_c, 9, 69, 44
1, 274080, Note_on_c, 9, 42, 92
1, 274080, Note_on_c, 9, 55, 46
1, 274084, Note_on_c, 9, 42, 0
1, 274084, Note_on_c, 9, 55, 0
1, 274199, Note_on_c, 9, 40, 0
1, 274199, Note_on_c, 9, 54, 0
1, 274199, Note_on_c, 9, 53, 0
1, 274199, Note_on_c, 9, 69, 0
1, 274200, Note_on_c, 9, 54, 46
1, 274200, Note_on_c, 9, 82, 44
1, 274319, Note_on_c, 9, 54, 0
1, 274319, Note_on_c, 9, 82, 0
1, 274320, Note_on_c, 9, 54, 68
1, 274320, Note_on_c, 9, 69, 44
1, 274320, Note_on_c, 9, 42, 47
1, 274320, Note_on_c, 9, 35, 101
1, 274324, Note_on_c, 9, 42, 0
1, 274439, Note_on_c, 9, 54, 0
1, 274439, Note_on_c, 9, 69, 0
1, 274440, Note_on_c, 9, 54, 51
1, 274440, Note_on_c, 9, 82, 44
1, 274559, Note_on_c, 9, 35, 0
1, 274559, Note_on_c, 9, 54, 0
1, 274559, Note_on_c, 9, 82, 0
1, 274560, Note_on_c, 9, 40, 86
1, 274560, Note_on_c, 9, 54, 68
1, 274560, Note_on_c, 9, 53, 66
1, 274560, Note_on_c, 9, 69, 44
1, 274560, Note_on_c, 9, 42, 86
1, 274560, Note_on_c, 9, 55, 46
1, 274560, Note_on_c, 9, 35, 109
1, 274564, Note_on_c, 9, 42, 0
1, 274564, Note_on_c, 9, 55, 0
1, 274679, Note_on_c, 9, 40, 0
1, 274679, Note_on_c, 9, 54, 0
1, 274679, Note_on_c, 9, 53, 0
1, 274679, Note_on_c, 9, 69, 0
1, 274680, Note_on_c, 9, 54, 41
1, 274680, Note_on_c, 9, 82, 44
1, 274799, Note_on_c, 9, 54, 0
1, 274799, Note_on_c, 9, 82, 0
1, 274800, Note_on_c, 9, 54, 68
1, 274800, Note_on_c, 9, 69, 44
1, 274800, Note_on_c, 9, 42, 36
1, 274804, Note_on_c, 9, 42, 0
1, 274919, Note_on_c, 9, 35, 0
1, 274919, Note_on_c, 9, 54, 0
1, 274919, Note_on_c, 9, 69, 0
1, 274920, Note_on_c, 9, 54, 49
1, 274920, Note_on_c, 9, 82, 44
1, 274920, Note_on_c, 9, 35, 103
1, 275039, Note_on_c, 9, 54, 0
1, 275039, Note_on_c, 9, 82, 0
1, 275039, Note_on_c, 9, 35, 0
1, 275040, Note_on_c, 9, 40, 86
1, 275040, Note_on_c, 9, 54, 68
1, 275040, Note_on_c, 9, 53, 66
1, 275040, Note_on_c, 9, 69, 44
1, 275040, Note_on_c, 9, 42, 91
1, 275040, Note_on_c, 9, 55, 46
1, 275044, Note_on_c, 9, 42, 0
1, 275044, Note_on_c, 9, 55, 0
1, 275159, Note_on_c, 9, 40, 0
1, 275159, Note_on_c, 9, 54, 0
1, 275159, Note_on_c, 9, 53, 0
1, 275159, Note_on_c, 9, 69, 0
1, 275160, Note_on_c, 9, 54, 45
1, 275160, Note_on_c, 9, 82, 44
1, 275279, Note_on_c, 9, 54, 0
1, 275279, Note_on_c, 9, 82, 0
1, 275280, Note_on_c, 9, 54, 68
1, 275280, Note_on_c, 9, 69, 44
1, 275280, Note_on_c, 9, 42, 43
1, 275280, Note_on_c, 9, 35, 97
1, 275284, Note_on_c, 9, 42, 0
1, 275399, Note_on_c, 9, 54, 0
1, 275399, Note_on_c, 9, 69, 0
1, 275400, Note_on_c, 9, 54, 44
1, 275400, Note_on_c, 9, 82, 44
1, 275519, Note_on_c, 9, 35, 0
1, 275519, Note_on_c, 9, 54, 0
1, 275519, Note_on_c, 9, 82, 0
1, 275520, Note_on_c, 9, 40, 86
1, 275520, Note_on_c, 9, 54, 68
1, 275520, Note_on_c, 9, 53, 66
1, 275520, Note_on_c, 9, 69, 44
1, 275520, Note_on_c, 9, 42, 95
1, 275520, Note_on_c, 9, 42, 0
1, 275520, Note_on_c, 9, 55, 46
1, 275520, Note_on_c, 9, 55, 0
1, 275520, Note_on_c, 9, 35, 109
1, 275539, Note_on_c, 9, 40, 0
1, 275539, Note_on_c, 9, 54, 0
1, 275539, Note_on_c, 9, 53, 0
1, 275539, Note_on_c, 9, 69, 0
1, 275540, Note_on_c, 9, 40, 101
1, 275579, Note_on_c, 9, 40, 0
1, 275760, Note_on_c, 9, 48, 81
1, 275839, Note_on_c, 9, 48, 0
1, 275840, Note_on_c, 9, 48, 85
1, 275919, Note_on_c, 9, 48, 0
1, 275920, Note_on_c, 9, 47, 87
1, 275999, Note_on_c, 9, 35, 0
1, 275999, Note_on_c, 9, 47, 0
1, 276000, Note_on_c, 9, 47, 83
1, 276079, Note_on_c, 9, 47, 0
1, 276080, Note_on_c, 9, 45, 87
1, 276159, Note_on_c, 9, 45, 0
1, 276160, Note_on_c, 9, 45, 88
1, 276239, Note_on_c, 9, 45, 0
1, 276240, Note_on_c, 9, 43, 89
1, 276319, Note_on_c, 9, 43, 0
1, 276320, Note_on_c, 9, 43, 91
1, 276359, Note_on_c, 9, 43, 0
1, 276360, Note_on_c, 9, 82, 44
1, 276399, Note_on_c, 9, 82, 0
1, 276400, Note_on_c, 9, 41, 98
1, 276419, Note_on_c, 9, 41, 0
1, 276480, Note_on_c, 9, 41, 98
1, 276480, Note_on_c, 9, 49, 70
1, 276480, Note_on_c, 9, 35, 101
1, 276499, Note_on_c, 9, 49, 0
1, 276959, Note_on_c, 9, 41, 0
1, 276959, Note_on_c, 9, 35, 0
1, 276960, End_track
0, 0, End_of_file
