0, 0, Header, 1, 1, 480
1, 0, Start_track
1, 0, Title_t, "Drumset"
1, 0, Time_signature, 4, 2, 24, 8
1, 0, Key_signature, 0, "major"
1, 0, Tempo, 566038
1, 0, Control_c, 9, 121, 0
1, 0, Program_c, 9, 0
1, 0, Control_c, 9, 7, 100
1, 0, Control_c, 9, 10, 64
1, 0, Control_c, 9, 91, 0
1, 0, Control_c, 9, 93, 0
1, 0, MIDI_port, 0
1, 7680, Note_on_c, 9, 40, 96
1, 7919, Note_on_c, 9, 40, 0
1, 7920, Note_on_c, 9, 40, 104
1, 8159, Note_on_c, 9, 40, 0
1, 8160, Note_on_c, 9, 45, 109
1, 8279, Note_on_c, 9, 45, 0
1, 8280, Note_on_c, 9, 45, 109
1, 8400, Note_on_c, 9, 43, 111
1, 8519, Note_on_c, 9, 45, 0
1, 8520, Note_on_c, 9, 41, 113
1, 8639, Note_on_c, 9, 43, 0
1, 8639, Note_on_c, 9, 41, 0
1, 8760, Note_on_c, 9, 43, 111
1, 8879, Note_on_c, 9, 43, 0
1, 8880, Note_on_c, 9, 43, 111
1, 9119, Note_on_c, 9, 43, 0
1, 9120, Note_on_c, 9, 43, 111
1, 9359, Note_on_c, 9, 43, 0
1, 9360, Note_on_c, 9, 43, 111
1, 9599, Note_on_c, 9, 43, 0
1, 9600, Note_on_c, 9, 57, 63
1, 9600, Note_on_c, 9, 35, 102
1, 9609, Note_on_c, 9, 57, 0
1, 9840, Note_on_c, 9, 42, 90
1, 9849, Note_on_c, 9, 42, 0
1, 10079, Note_on_c, 9, 35, 0
1, 10080, Note_on_c, 9, 40, 104
1, 10080, Note_on_c, 9, 42, 90
1, 10089, Note_on_c, 9, 42, 0
1, 10319, Note_on_c, 9, 40, 0
1, 10320, Note_on_c, 9, 42, 90
1, 10329, Note_on_c, 9, 42, 0
1, 10560, Note_on_c, 9, 42, 90
1, 10560, Note_on_c, 9, 35, 102
1, 10569, Note_on_c, 9, 42, 0
1, 10800, Note_on_c, 9, 42, 90
1, 10809, Note_on_c, 9, 42, 0
1, 11039, Note_on_c, 9, 35, 0
1, 11040, Note_on_c, 9, 40, 104
1, 11040, Note_on_c, 9, 42, 90
1, 11049, Note_on_c, 9, 42, 0
1, 11279, Note_on_c, 9, 40, 0
1, 11280, Note_on_c, 9, 46, 88
1, 11289, Note_on_c, 9, 46, 0
1, 11520, Note_on_c, 9, 42, 90
1, 11520, Note_on_c, 9, 35, 102
1, 11529, Note_on_c, 9, 42, 0
1, 11760, Note_on_c, 9, 42, 90
1, 11769, Note_on_c, 9, 42, 0
1, 11999, Note_on_c, 9, 35, 0
1, 12000, Note_on_c, 9, 40, 104
1, 12000, Note_on_c, 9, 42, 90
1, 12009, Note_on_c, 9, 42, 0
1, 12239, Note_on_c, 9, 40, 0
1, 12240, Note_on_c, 9, 42, 90
1, 12249, Note_on_c, 9, 42, 0
1, 12480, Note_on_c, 9, 42, 90
1, 12480, Note_on_c, 9, 35, 102
1, 12489, Note_on_c, 9, 42, 0
1, 12720, Note_on_c, 9, 42, 90
1, 12729, Note_on_c, 9, 42, 0
1, 12959, Note_on_c, 9, 35, 0
1, 12960, Note_on_c, 9, 40, 104
1, 12960, Note_on_c, 9, 42, 90
1, 12969, Note_on_c, 9, 42, 0
1, 13199, Note_on_c, 9, 40, 0
1, 13200, Note_on_c, 9, 46, 88
1, 13209, Note_on_c, 9, 46, 0
1, 13440, Note_on_c, 9, 42, 90
1, 13440, Note_on_c, 9, 35, 102
1, 13449, Note_on_c, 9, 42, 0
1, 13680, Note_on_c, 9, 42, 90
1, 13689, Note_on_c, 9, 42, 0
1, 13919, Note_on_c, 9, 35, 0
1, 13920, Note_on_c, 9, 40, 104
1, 13920, Note_on_c, 9, 42, 90
1, 13929, Note_on_c, 9, 42, 0
1, 14159, Note_on_c, 9, 40, 0
1, 14160, Note_on_c, 9, 46, 88
1, 14169, Note_on_c, 9, 46, 0
1, 14400, Note_on_c, 9, 42, 90
1, 14400, Note_on_c, 9, 35, 102
1, 14409, Note_on_c, 9, 42, 0
1, 14640, Note_on_c, 9, 42, 90
1, 14649, Note_on_c, 9, 42, 0
1, 14879, Note_on_c, 9, 35, 0
1, 14880, Note_on_c, 9, 40, 104
1, 14880, Note_on_c, 9, 42, 90
1, 14889, Note_on_c, 9, 42, 0
1, 15119, Note_on_c, 9, 40, 0
1, 15120, Note_on_c, 9, 46, 88
1, 15129, Note_on_c, 9, 46, 0
1, 15360, Note_on_c, 9, 42, 90
1, 15360, Note_on_c, 9, 35, 102
1, 15369, Note_on_c, 9, 42, 0
1, 15600, Note_on_c, 9, 42, 90
1, 15609, Note_on_c, 9, 42, 0
1, 15839, Note_on_c, 9, 35, 0
1, 15840, Note_on_c, 9, 40, 104
1, 15840, Note_on_c, 9, 42, 90
1, 15849, Note_on_c, 9, 42, 0
1, 16079, Note_on_c, 9, 40, 0
1, 16080, Note_on_c, 9, 42, 90
1, 16089, Note_on_c, 9, 42, 0
1, 16320, Note_on_c, 9, 42, 90
1, 16320, Note_on_c, 9, 35, 102
1, 16329, Note_on_c, 9, 42, 0
1, 16560, Note_on_c, 9, 42, 90
1, 16569, Note_on_c, 9, 42, 0
1, 16799, Note_on_c, 9, 35, 0
1, 16800, Note_on_c, 9, 40, 104
1, 16800, Note_on_c, 9, 42, 90
1, 16809, Note_on_c, 9, 42, 0
1, 17039, Note_on_c, 9, 40, 0
1, 17040, Note_on_c, 9, 46, 88
1, 17049, Note_on_c, 9, 46, 0
1, 17280, Note_on_c, 9, 42, 90
1, 17280, Note_on_c, 9, 35, 102
1, 17289, Note_on_c, 9, 42, 0
1, 17520, Note_on_c, 9, 42, 90
1, 17529, Note_on_c, 9, 42, 0
1, 17759, Note_on_c, 9, 35, 0
1, 17760, Note_on_c, 9, 40, 104
1, 17760, Note_on_c, 9, 42, 90
1, 17769, Note_on_c, 9, 42, 0
1, 17999, Note_on_c, 9, 40, 0
1, 18000, Note_on_c, 9, 42, 90
1, 18009, Note_on_c, 9, 42, 0
1, 18240, Note_on_c, 9, 42, 90
1, 18240, Note_on_c, 9, 35, 102
1, 18249, Note_on_c, 9, 42, 0
1, 18480, Note_on_c, 9, 42, 90
1, 18489, Note_on_c, 9, 42, 0
1, 18719, Note_on_c, 9, 35, 0
1, 18720, Note_on_c, 9, 40, 104
1, 18720, Note_on_c, 9, 42, 90
1, 18729, Note_on_c, 9, 42, 0
1, 18959, Note_on_c, 9, 40, 0
1, 18960, Note_on_c, 9, 46, 88
1, 18969, Note_on_c, 9, 46, 0
1, 19200, Note_on_c, 9, 42, 90
1, 19200, Note_on_c, 9, 35, 102
1, 19209, Note_on_c, 9, 42, 0
1, 19440, Note_on_c, 9, 42, 90
1, 19449, Note_on_c, 9, 42, 0
1, 19679, Note_on_c, 9, 35, 0
1, 19680, Note_on_c, 9, 40, 104
1, 19680, Note_on_c, 9, 42, 90
1, 19689, Note_on_c, 9, 42, 0
1, 19919, Note_on_c, 9, 40, 0
1, 19920, Note_on_c, 9, 42, 90
1, 19929, Note_on_c, 9, 42, 0
1, 20160, Note_on_c, 9, 42, 90
1, 20160, Note_on_c, 9, 35, 102
1, 20169, Note_on_c, 9, 42, 0
1, 20400, Note_on_c, 9, 42, 90
1, 20409, Note_on_c, 9, 42, 0
1, 20639, Note_on_c, 9, 35, 0
1, 20640, Note_on_c, 9, 40, 104
1, 20640, Note_on_c, 9, 42, 90
1, 20649, Note_on_c, 9, 42, 0
1, 20879, Note_on_c, 9, 40, 0
1, 20880, Note_on_c, 9, 46, 88
1, 20889, Note_on_c, 9, 46, 0
1, 21120, Note_on_c, 9, 42, 90
1, 21120, Note_on_c, 9, 35, 102
1, 21129, Note_on_c, 9, 42, 0
1, 21360, Note_on_c, 9, 42, 90
1, 21369, Note_on_c, 9, 42, 0
1, 21599, Note_on_c, 9, 35, 0
1, 21600, Note_on_c, 9, 40, 104
1, 21600, Note_on_c, 9, 42, 90
1, 21609, Note_on_c, 9, 42, 0
1, 21839, Note_on_c, 9, 40, 0
1, 21840, Note_on_c, 9, 42, 90
1, 21849, Note_on_c, 9, 42, 0
1, 22080, Note_on_c, 9, 42, 90
1, 22080, Note_on_c, 9, 35, 102
1, 22089, Note_on_c, 9, 42, 0
1, 22320, Note_on_c, 9, 42, 90
1, 22329, Note_on_c, 9, 42, 0
1, 22559, Note_on_c, 9, 35, 0
1, 22560, Note_on_c, 9, 40, 104
1, 22560, Note_on_c, 9, 42, 90
1, 22569, Note_on_c, 9, 42, 0
1, 22799, Note_on_c, 9, 40, 0
1, 22800, Note_on_c, 9, 46, 88
1, 22809, Note_on_c, 9, 46, 0
1, 23040, Note_on_c, 9, 42, 90
1, 23040, Note_on_c, 9, 35, 102
1, 23049, Note_on_c, 9, 42, 0
1, 23280, Note_on_c, 9, 42, 90
1, 23289, Note_on_c, 9, 42, 0
1, 23519, Note_on_c, 9, 35, 0
1, 23520, Note_on_c, 9, 40, 104
1, 23520, Note_on_c, 9, 42, 90
1, 23529, Note_on_c, 9, 42, 0
1, 23759, Note_on_c, 9, 40, 0
1, 23760, Note_on_c, 9, 42, 90
1, 23769, Note_on_c, 9, 42, 0
1, 24000, Note_on_c, 9, 42, 90
1, 24000, Note_on_c, 9, 35, 102
1, 24009, Note_on_c, 9, 42, 0
1, 24240, Note_on_c, 9, 42, 90
1, 24249, Note_on_c, 9, 42, 0
1, 24479, Note_on_c, 9, 35, 0
1, 24480, Note_on_c, 9, 40, 104
1, 24480, Note_on_c, 9, 42, 90
1, 24489, Note_on_c, 9, 42, 0
1, 24719, Note_on_c, 9, 40, 0
1, 24720, Note_on_c, 9, 46, 88
1, 24729, Note_on_c, 9, 46, 0
1, 24960, Note_on_c, 9, 42, 90
1, 24960, Note_on_c, 9, 35, 102
1, 24969, Note_on_c, 9, 42, 0
1, 25200, Note_on_c, 9, 42, 90
1, 25209, Note_on_c, 9, 42, 0
1, 25439, Note_on_c, 9, 35, 0
1, 25440, Note_on_c, 9, 40, 104
1, 25440, Note_on_c, 9, 42, 90
1, 25449, Note_on_c, 9, 42, 0
1, 25679, Note_on_c, 9, 40, 0
1, 25680, Note_on_c, 9, 42, 90
1, 25689, Note_on_c, 9, 42, 0
1, 25920, Note_on_c, 9, 42, 90
1, 25920, Note_on_c, 9, 35, 102
1, 25929, Note_on_c, 9, 42, 0
1, 26160, Note_on_c, 9, 42, 90
1, 26169, Note_on_c, 9, 42, 0
1, 26399, Note_on_c, 9, 35, 0
1, 26400, Note_on_c, 9, 40, 104
1, 26400, Note_on_c, 9, 42, 90
1, 26409, Note_on_c, 9, 42, 0
1, 26639, Note_on_c, 9, 40, 0
1, 26640, Note_on_c, 9, 46, 88
1, 26649, Note_on_c, 9, 46, 0
1, 26880, Note_on_c, 9, 42, 90
1, 26880, Note_on_c, 9, 35, 102
1, 26889, Note_on_c, 9, 42, 0
1, 27120, Note_on_c, 9, 42, 90
1, 27129, Note_on_c, 9, 42, 0
1, 27359, Note_on_c, 9, 35, 0
1, 27360, Note_on_c, 9, 40, 104
1, 27360, Note_on_c, 9, 42, 90
1, 27369, Note_on_c, 9, 42, 0
1, 27599, Note_on_c, 9, 40, 0
1, 27600, Note_on_c, 9, 42, 90
1, 27609, Note_on_c, 9, 42, 0
1, 27840, Note_on_c, 9, 42, 90
1, 27840, Note_on_c, 9, 35, 102
1, 27849, Note_on_c, 9, 42, 0
1, 28080, Note_on_c, 9, 42, 90
1, 28089, Note_on_c, 9, 42, 0
1, 28319, Note_on_c, 9, 35, 0
1, 28320, Note_on_c, 9, 40, 104
1, 28320, Note_on_c, 9, 42, 90
1, 28329, Note_on_c, 9, 42, 0
1, 28559, Note_on_c, 9, 40, 0
1, 28560, Note_on_c, 9, 46, 88
1, 28569, Note_on_c, 9, 46, 0
1, 28800, Note_on_c, 9, 42, 90
1, 28800, Note_on_c, 9, 35, 102
1, 28809, Note_on_c, 9, 42, 0
1, 29040, Note_on_c, 9, 42, 90
1, 29049, Note_on_c, 9, 42, 0
1, 29279, Note_on_c, 9, 35, 0
1, 29280, Note_on_c, 9, 40, 104
1, 29280, Note_on_c, 9, 42, 90
1, 29289, Note_on_c, 9, 42, 0
1, 29519, Note_on_c, 9, 40, 0
1, 29520, Note_on_c, 9, 42, 90
1, 29529, Note_on_c, 9, 42, 0
1, 29760, Note_on_c, 9, 42, 90
1, 29760, Note_on_c, 9, 35, 102
1, 29769, Note_on_c, 9, 42, 0
1, 30000, Note_on_c, 9, 42, 90
1, 30009, Note_on_c, 9, 42, 0
1, 30239, Note_on_c, 9, 35, 0
1, 30240, Note_on_c, 9, 40, 104
1, 30240, Note_on_c, 9, 42, 90
1, 30249, Note_on_c, 9, 42, 0
1, 30479, Note_on_c, 9, 40, 0
1, 30480, Note_on_c, 9, 46, 88
1, 30489, Note_on_c, 9, 46, 0
1, 30720, Note_on_c, 9, 42, 90
1, 30720, Note_on_c, 9, 35, 102
1, 30729, Note_on_c, 9, 42, 0
1, 30960, Note_on_c, 9, 42, 90
1, 30969, Note_on_c, 9, 42, 0
1, 31199, Note_on_c, 9, 35, 0
1, 31200, Note_on_c, 9, 40, 104
1, 31200, Note_on_c, 9, 42, 90
1, 31209, Note_on_c, 9, 42, 0
1, 31439, Note_on_c, 9, 40, 0
1, 31440, Note_on_c, 9, 42, 90
1, 31449, Note_on_c, 9, 42, 0
1, 31680, Note_on_c, 9, 42, 90
1, 31680, Note_on_c, 9, 35, 102
1, 31689, Note_on_c, 9, 42, 0
1, 31920, Note_on_c, 9, 42, 90
1, 31929, Note_on_c, 9, 42, 0
1, 32159, Note_on_c, 9, 35, 0
1, 32160, Note_on_c, 9, 40, 104
1, 32160, Note_on_c, 9, 42, 90
1, 32169, Note_on_c, 9, 42, 0
1, 32399, Note_on_c, 9, 40, 0
1, 32400, Note_on_c, 9, 46, 88
1, 32409, Note_on_c, 9, 46, 0
1, 32640, Note_on_c, 9, 42, 90
1, 32640, Note_on_c, 9, 35, 102
1, 32649, Note_on_c, 9, 42, 0
1, 32880, Note_on_c, 9, 42, 90
1, 32889, Note_on_c, 9, 42, 0
1, 33119, Note_on_c, 9, 35, 0
1, 33120, Note_on_c, 9, 40, 104
1, 33120, Note_on_c, 9, 42, 90
1, 33129, Note_on_c, 9, 42, 0
1, 33359, Note_on_c, 9, 40, 0
1, 33360, Note_on_c, 9, 42, 90
1, 33369, Note_on_c, 9, 42, 0
1, 33600, Note_on_c, 9, 42, 90
1, 33600, Note_on_c, 9, 35, 102
1, 33609, Note_on_c, 9, 42, 0
1, 33840, Note_on_c, 9, 42, 90
1, 33849, Note_on_c, 9, 42, 0
1, 34079, Note_on_c, 9, 35, 0
1, 34080, Note_on_c, 9, 40, 104
1, 34080, Note_on_c, 9, 42, 90
1, 34089, Note_on_c, 9, 42, 0
1, 34319, Note_on_c, 9, 40, 0
1, 34320, Note_on_c, 9, 46, 88
1, 34329, Note_on_c, 9, 46, 0
1, 34560, Note_on_c, 9, 42, 90
1, 34560, Note_on_c, 9, 35, 102
1, 34569, Note_on_c, 9, 42, 0
1, 34800, Note_on_c, 9, 42, 90
1, 34809, Note_on_c, 9, 42, 0
1, 35039, Note_on_c, 9, 35, 0
1, 35040, Note_on_c, 9, 40, 104
1, 35040, Note_on_c, 9, 42, 90
1, 35049, Note_on_c, 9, 42, 0
1, 35279, Note_on_c, 9, 40, 0
1, 35280, Note_on_c, 9, 42, 90
1, 35289, Note_on_c, 9, 42, 0
1, 35520, Note_on_c, 9, 42, 90
1, 35520, Note_on_c, 9, 35, 102
1, 35529, Note_on_c, 9, 42, 0
1, 35760, Note_on_c, 9, 42, 90
1, 35769, Note_on_c, 9, 42, 0
1, 35999, Note_on_c, 9, 35, 0
1, 36000, Note_on_c, 9, 40, 104
1, 36000, Note_on_c, 9, 42, 90
1, 36009, Note_on_c, 9, 42, 0
1, 36239, Note_on_c, 9, 40, 0
1, 36240, Note_on_c, 9, 46, 88
1, 36249, Note_on_c, 9, 46, 0
1, 36480, Note_on_c, 9, 42, 90
1, 36480, Note_on_c, 9, 35, 102
1, 36489, Note_on_c, 9, 42, 0
1, 36720, Note_on_c, 9, 42, 90
1, 36729, Note_on_c, 9, 42, 0
1, 36959, Note_on_c, 9, 35, 0
1, 36960, Note_on_c, 9, 40, 104
1, 36960, Note_on_c, 9, 42, 90
1, 36969, Note_on_c, 9, 42, 0
1, 37199, Note_on_c, 9, 40, 0
1, 37200, Note_on_c, 9, 42, 90
1, 37209, Note_on_c, 9, 42, 0
1, 37440, Note_on_c, 9, 42, 90
1, 37440, Note_on_c, 9, 35, 102
1, 37449, Note_on_c, 9, 42, 0
1, 37680, Note_on_c, 9, 42, 90
1, 37689, Note_on_c, 9, 42, 0
1, 37919, Note_on_c, 9, 35, 0
1, 37920, Note_on_c, 9, 40, 104
1, 37920, Note_on_c, 9, 42, 90
1, 37929, Note_on_c, 9, 42, 0
1, 38159, Note_on_c, 9, 40, 0
1, 38160, Note_on_c, 9, 46, 88
1, 38169, Note_on_c, 9, 46, 0
1, 38400, Note_on_c, 9, 42, 90
1, 38400, Note_on_c, 9, 35, 102
1, 38409, Note_on_c, 9, 42, 0
1, 38640, Note_on_c, 9, 42, 90
1, 38649, Note_on_c, 9, 42, 0
1, 38879, Note_on_c, 9, 35, 0
1, 38880, Note_on_c, 9, 40, 104
1, 38880, Note_on_c, 9, 42, 90
1, 38889, Note_on_c, 9, 42, 0
1, 39119, Note_on_c, 9, 40, 0
1, 39120, Note_on_c, 9, 42, 90
1, 39129, Note_on_c, 9, 42, 0
1, 39360, Note_on_c, 9, 42, 90
1, 39360, Note_on_c, 9, 35, 102
1, 39369, Note_on_c, 9, 42, 0
1, 39600, Note_on_c, 9, 42, 90
1, 39609, Note_on_c, 9, 42, 0
1, 39839, Note_on_c, 9, 35, 0
1, 39840, Note_on_c, 9, 40, 104
1, 39840, Note_on_c, 9, 42, 90
1, 39849, Note_on_c, 9, 42, 0
1, 40079, Note_on_c, 9, 40, 0
1, 40080, Note_on_c, 9, 46, 88
1, 40089, Note_on_c, 9, 46, 0
1, 40320, Note_on_c, 9, 42, 90
1, 40320, Note_on_c, 9, 35, 102
1, 40329, Note_on_c, 9, 42, 0
1, 40560, Note_on_c, 9, 42, 90
1, 40569, Note_on_c, 9, 42, 0
1, 40799, Note_on_c, 9, 35, 0
1, 40800, Note_on_c, 9, 40, 104
1, 40800, Note_on_c, 9, 42, 90
1, 40809, Note_on_c, 9, 42, 0
1, 41039, Note_on_c, 9, 40, 0
1, 41040, Note_on_c, 9, 42, 90
1, 41049, Note_on_c, 9, 42, 0
1, 41280, Note_on_c, 9, 42, 90
1, 41280, Note_on_c, 9, 35, 102
1, 41289, Note_on_c, 9, 42, 0
1, 41520, Note_on_c, 9, 42, 90
1, 41529, Note_on_c, 9, 42, 0
1, 41759, Note_on_c, 9, 35, 0
1, 41760, Note_on_c, 9, 40, 104
1, 41760, Note_on_c, 9, 42, 90
1, 41769, Note_on_c, 9, 42, 0
1, 41999, Note_on_c, 9, 40, 0
1, 42000, Note_on_c, 9, 46, 88
1, 42009, Note_on_c, 9, 46, 0
1, 42240, Note_on_c, 9, 42, 90
1, 42240, Note_on_c, 9, 35, 102
1, 42249, Note_on_c, 9, 42, 0
1, 42480, Note_on_c, 9, 42, 90
1, 42489, Note_on_c, 9, 42, 0
1, 42719, Note_on_c, 9, 35, 0
1, 42720, Note_on_c, 9, 40, 104
1, 42720, Note_on_c, 9, 42, 90
1, 42729, Note_on_c, 9, 42, 0
1, 42959, Note_on_c, 9, 40, 0
1, 42960, Note_on_c, 9, 46, 88
1, 42969, Note_on_c, 9, 46, 0
1, 43200, Note_on_c, 9, 42, 90
1, 43200, Note_on_c, 9, 35, 102
1, 43209, Note_on_c, 9, 42, 0
1, 43440, Note_on_c, 9, 42, 90
1, 43449, Note_on_c, 9, 42, 0
1, 43679, Note_on_c, 9, 35, 0
1, 43680, Note_on_c, 9, 40, 104
1, 43680, Note_on_c, 9, 42, 90
1, 43689, Note_on_c, 9, 42, 0
1, 43919, Note_on_c, 9, 40, 0
1, 43920, Note_on_c, 9, 46, 88
1, 43929, Note_on_c, 9, 46, 0
1, 44160, Note_on_c, 9, 42, 90
1, 44160, Note_on_c, 9, 35, 102
1, 44169, Note_on_c, 9, 42, 0
1, 44400, Note_on_c, 9, 42, 90
1, 44409, Note_on_c, 9, 42, 0
1, 44639, Note_on_c, 9, 35, 0
1, 44640, Note_on_c, 9, 40, 104
1, 44640, Note_on_c, 9, 42, 90
1, 44649, Note_on_c, 9, 42, 0
1, 44879, Note_on_c, 9, 40, 0
1, 44880, Note_on_c, 9, 42, 90
1, 44889, Note_on_c, 9, 42, 0
1, 45120, Note_on_c, 9, 42, 90
1, 45120, Note_on_c, 9, 35, 102
1, 45129, Note_on_c, 9, 42, 0
1, 45360, Note_on_c, 9, 42, 90
1, 45369, Note_on_c, 9, 42, 0
1, 45599, Note_on_c, 9, 35, 0
1, 45600, Note_on_c, 9, 40, 104
1, 45600, Note_on_c, 9, 42, 90
1, 45609, Note_on_c, 9, 42, 0
1, 45839, Note_on_c, 9, 40, 0
1, 45840, Note_on_c, 9, 46, 88
1, 45849, Note_on_c, 9, 46, 0
1, 46080, Note_on_c, 9, 42, 90
1, 46080, Note_on_c, 9, 35, 102
1, 46089, Note_on_c, 9, 42, 0
1, 46320, Note_on_c, 9, 42, 90
1, 46329, Note_on_c, 9, 42, 0
1, 46559, Note_on_c, 9, 35, 0
1, 46560, Note_on_c, 9, 40, 104
1, 46560, Note_on_c, 9, 42, 90
1, 46569, Note_on_c, 9, 42, 0
1, 46799, Note_on_c, 9, 40, 0
1, 46800, Note_on_c, 9, 42, 90
1, 46809, Note_on_c, 9, 42, 0
1, 47040, Note_on_c, 9, 42, 90
1, 47040, Note_on_c, 9, 35, 102
1, 47049, Note_on_c, 9, 42, 0
1, 47280, Note_on_c, 9, 42, 90
1, 47289, Note_on_c, 9, 42, 0
1, 47519, Note_on_c, 9, 35, 0
1, 47520, Note_on_c, 9, 40, 104
1, 47520, Note_on_c, 9, 42, 90
1, 47529, Note_on_c, 9, 42, 0
1, 47759, Note_on_c, 9, 40, 0
1, 47760, Note_on_c, 9, 46, 88
1, 47769, Note_on_c, 9, 46, 0
1, 48000, Note_on_c, 9, 42, 90
1, 48000, Note_on_c, 9, 35, 102
1, 48009, Note_on_c, 9, 42, 0
1, 48240, Note_on_c, 9, 42, 90
1, 48249, Note_on_c, 9, 42, 0
1, 48479, Note_on_c, 9, 35, 0
1, 48480, Note_on_c, 9, 40, 104
1, 48480, Note_on_c, 9, 42, 90
1, 48489, Note_on_c, 9, 42, 0
1, 48719, Note_on_c, 9, 40, 0
1, 48720, Note_on_c, 9, 42, 90
1, 48729, Note_on_c, 9, 42, 0
1, 48960, Note_on_c, 9, 42, 90
1, 48960, Note_on_c, 9, 35, 102
1, 48969, Note_on_c, 9, 42, 0
1, 49200, Note_on_c, 9, 42, 90
1, 49209, Note_on_c, 9, 42, 0
1, 49439, Note_on_c, 9, 35, 0
1, 49440, Note_on_c, 9, 40, 104
1, 49440, Note_on_c, 9, 42, 90
1, 49449, Note_on_c, 9, 42, 0
1, 49679, Note_on_c, 9, 40, 0
1, 49680, Note_on_c, 9, 46, 88
1, 49689, Note_on_c, 9, 46, 0
1, 49920, Note_on_c, 9, 42, 90
1, 49920, Note_on_c, 9, 35, 102
1, 49929, Note_on_c, 9, 42, 0
1, 50160, Note_on_c, 9, 42, 90
1, 50169, Note_on_c, 9, 42, 0
1, 50399, Note_on_c, 9, 35, 0
1, 50400, Note_on_c, 9, 40, 104
1, 50400, Note_on_c, 9, 42, 90
1, 50409, Note_on_c, 9, 42, 0
1, 50639, Note_on_c, 9, 40, 0
1, 50640, Note_on_c, 9, 42, 90
1, 50649, Note_on_c, 9, 42, 0
1, 50880, Note_on_c, 9, 42, 90
1, 50880, Note_on_c, 9, 35, 102
1, 50889, Note_on_c, 9, 42, 0
1, 51120, Note_on_c, 9, 42, 90
1, 51129, Note_on_c, 9, 42, 0
1, 51359, Note_on_c, 9, 35, 0
1, 51360, Note_on_c, 9, 40, 104
1, 51360, Note_on_c, 9, 42, 90
1, 51369, Note_on_c, 9, 42, 0
1, 51599, Note_on_c, 9, 40, 0
1, 51600, Note_on_c, 9, 46, 88
1, 51609, Note_on_c, 9, 46, 0
1, 51840, Note_on_c, 9, 42, 90
1, 51840, Note_on_c, 9, 35, 102
1, 51849, Note_on_c, 9, 42, 0
1, 52080, Note_on_c, 9, 42, 90
1, 52089, Note_on_c, 9, 42, 0
1, 52319, Note_on_c, 9, 35, 0
1, 52320, Note_on_c, 9, 40, 104
1, 52320, Note_on_c, 9, 42, 90
1, 52329, Note_on_c, 9, 42, 0
1, 52559, Note_on_c, 9, 40, 0
1, 52560, Note_on_c, 9, 42, 90
1, 52569, Note_on_c, 9, 42, 0
1, 52800, Note_on_c, 9, 42, 90
1, 52800, Note_on_c, 9, 35, 102
1, 52809, Note_on_c, 9, 42, 0
1, 53040, Note_on_c, 9, 42, 90
1, 53049, Note_on_c, 9, 42, 0
1, 53279, Note_on_c, 9, 35, 0
1, 53280, Note_on_c, 9, 40, 104
1, 53280, Note_on_c, 9, 42, 90
1, 53289, Note_on_c, 9, 42, 0
1, 53519, Note_on_c, 9, 40, 0
1, 53520, Note_on_c, 9, 46, 88
1, 53529, Note_on_c, 9, 46, 0
1, 53760, Note_on_c, 9, 42, 90
1, 53760, Note_on_c, 9, 35, 102
1, 53769, Note_on_c, 9, 42, 0
1, 54000, Note_on_c, 9, 42, 90
1, 54009, Note_on_c, 9, 42, 0
1, 54239, Note_on_c, 9, 35, 0
1, 54240, Note_on_c, 9, 40, 104
1, 54240, Note_on_c, 9, 42, 90
1, 54249, Note_on_c, 9, 42, 0
1, 54479, Note_on_c, 9, 40, 0
1, 54480, Note_on_c, 9, 42, 90
1, 54489, Note_on_c, 9, 42, 0
1, 54720, Note_on_c, 9, 42, 90
1, 54720, Note_on_c, 9, 35, 102
1, 54729, Note_on_c, 9, 42, 0
1, 54960, Note_on_c, 9, 42, 90
1, 54969, Note_on_c, 9, 42, 0
1, 55199, Note_on_c, 9, 35, 0
1, 55200, Note_on_c, 9, 40, 104
1, 55200, Note_on_c, 9, 42, 90
1, 55209, Note_on_c, 9, 42, 0
1, 55439, Note_on_c, 9, 40, 0
1, 55440, Note_on_c, 9, 46, 88
1, 55449, Note_on_c, 9, 46, 0
1, 55680, Note_on_c, 9, 42, 90
1, 55680, Note_on_c, 9, 35, 102
1, 55689, Note_on_c, 9, 42, 0
1, 55920, Note_on_c, 9, 42, 90
1, 55929, Note_on_c, 9, 42, 0
1, 56159, Note_on_c, 9, 35, 0
1, 56160, Note_on_c, 9, 40, 104
1, 56160, Note_on_c, 9, 42, 90
1, 56169, Note_on_c, 9, 42, 0
1, 56399, Note_on_c, 9, 40, 0
1, 56400, Note_on_c, 9, 42, 90
1, 56409, Note_on_c, 9, 42, 0
1, 56640, Note_on_c, 9, 42, 90
1, 56640, Note_on_c, 9, 35, 102
1, 56649, Note_on_c, 9, 42, 0
1, 56880, Note_on_c, 9, 42, 90
1, 56889, Note_on_c, 9, 42, 0
1, 57119, Note_on_c, 9, 35, 0
1, 57120, Note_on_c, 9, 40, 104
1, 57120, Note_on_c, 9, 42, 90
1, 57129, Note_on_c, 9, 42, 0
1, 57359, Note_on_c, 9, 40, 0
1, 57360, Note_on_c, 9, 46, 88
1, 57369, Note_on_c, 9, 46, 0
1, 57600, Note_on_c, 9, 42, 90
1, 57600, Note_on_c, 9, 35, 102
1, 57609, Note_on_c, 9, 42, 0
1, 57840, Note_on_c, 9, 42, 90
1, 57849, Note_on_c, 9, 42, 0
1, 58079, Note_on_c, 9, 35, 0
1, 58080, Note_on_c, 9, 40, 104
1, 58080, Note_on_c, 9, 42, 90
1, 58089, Note_on_c, 9, 42, 0
1, 58319, Note_on_c, 9, 40, 0
1, 58320, Note_on_c, 9, 42, 90
1, 58329, Note_on_c, 9, 42, 0
1, 58560, Note_on_c, 9, 42, 90
1, 58560, Note_on_c, 9, 35, 102
1, 58569, Note_on_c, 9, 42, 0
1, 58800, Note_on_c, 9, 42, 90
1, 58809, Note_on_c, 9, 42, 0
1, 59039, Note_on_c, 9, 35, 0
1, 59040, Note_on_c, 9, 40, 104
1, 59040, Note_on_c, 9, 42, 90
1, 59049, Note_on_c, 9, 42, 0
1, 59279, Note_on_c, 9, 40, 0
1, 59280, Note_on_c, 9, 46, 88
1, 59289, Note_on_c, 9, 46, 0
1, 59520, Note_on_c, 9, 42, 90
1, 59520, Note_on_c, 9, 35, 102
1, 59529, Note_on_c, 9, 42, 0
1, 59760, Note_on_c, 9, 42, 90
1, 59769, Note_on_c, 9, 42, 0
1, 59999, Note_on_c, 9, 35, 0
1, 60000, Note_on_c, 9, 40, 104
1, 60000, Note_on_c, 9, 42, 90
1, 60009, Note_on_c, 9, 42, 0
1, 60239, Note_on_c, 9, 40, 0
1, 60240, Note_on_c, 9, 42, 90
1, 60249, Note_on_c, 9, 42, 0
1, 60480, Note_on_c, 9, 42, 90
1, 60480, Note_on_c, 9, 35, 102
1, 60489, Note_on_c, 9, 42, 0
1, 60720, Note_on_c, 9, 42, 90
1, 60729, Note_on_c, 9, 42, 0
1, 60959, Note_on_c, 9, 35, 0
1, 60960, Note_on_c, 9, 40, 104
1, 60960, Note_on_c, 9, 42, 90
1, 60969, Note_on_c, 9, 42, 0
1, 61199, Note_on_c, 9, 40, 0
1, 61200, Note_on_c, 9, 46, 88
1, 61209, Note_on_c, 9, 46, 0
1, 61440, Note_on_c, 9, 42, 90
1, 61440, Note_on_c, 9, 35, 102
1, 61449, Note_on_c, 9, 42, 0
1, 61680, Note_on_c, 9, 42, 90
1, 61689, Note_on_c, 9, 42, 0
1, 61919, Note_on_c, 9, 35, 0
1, 61920, Note_on_c, 9, 40, 104
1, 61920, Note_on_c, 9, 42, 90
1, 61929, Note_on_c, 9, 42, 0
1, 62159, Note_on_c, 9, 40, 0
1, 62160, Note_on_c, 9, 42, 90
1, 62169, Note_on_c, 9, 42, 0
1, 62400, Note_on_c, 9, 42, 90
1, 62400, Note_on_c, 9, 35, 102
1, 62409, Note_on_c, 9, 42, 0
1, 62640, Note_on_c, 9, 42, 90
1, 62649, Note_on_c, 9, 42, 0
1, 62879, Note_on_c, 9, 35, 0
1, 62880, Note_on_c, 9, 40, 104
1, 62880, Note_on_c, 9, 42, 90
1, 62889, Note_on_c, 9, 42, 0
1, 63119, Note_on_c, 9, 40, 0
1, 63120, Note_on_c, 9, 46, 88
1, 63129, Note_on_c, 9, 46, 0
1, 63360, Note_on_c, 9, 42, 90
1, 63360, Note_on_c, 9, 35, 102
1, 63369, Note_on_c, 9, 42, 0
1, 63600, Note_on_c, 9, 42, 90
1, 63609, Note_on_c, 9, 42, 0
1, 63839, Note_on_c, 9, 35, 0
1, 63840, Note_on_c, 9, 40, 104
1, 63840, Note_on_c, 9, 42, 90
1, 63849, Note_on_c, 9, 42, 0
1, 64079, Note_on_c, 9, 40, 0
1, 64080, Note_on_c, 9, 42, 90
1, 64089, Note_on_c, 9, 42, 0
1, 64320, Note_on_c, 9, 42, 90
1, 64320, Note_on_c, 9, 35, 102
1, 64329, Note_on_c, 9, 42, 0
1, 64560, Note_on_c, 9, 42, 90
1, 64569, Note_on_c, 9, 42, 0
1, 64799, Note_on_c, 9, 35, 0
1, 64800, Note_on_c, 9, 40, 104
1, 64800, Note_on_c, 9, 42, 90
1, 64809, Note_on_c, 9, 42, 0
1, 65039, Note_on_c, 9, 40, 0
1, 65040, Note_on_c, 9, 46, 88
1, 65049, Note_on_c, 9, 46, 0
1, 65280, Note_on_c, 9, 42, 90
1, 65280, Note_on_c, 9, 35, 102
1, 65289, Note_on_c, 9, 42, 0
1, 65520, Note_on_c, 9, 42, 90
1, 65529, Note_on_c, 9, 42, 0
1, 65759, Note_on_c, 9, 35, 0
1, 65760, Note_on_c, 9, 40, 104
1, 65760, Note_on_c, 9, 42, 90
1, 65769, Note_on_c, 9, 42, 0
1, 65999, Note_on_c, 9, 40, 0
1, 66000, Note_on_c, 9, 42, 90
1, 66009, Note_on_c, 9, 42, 0
1, 66240, Note_on_c, 9, 42, 90
1, 66240, Note_on_c, 9, 35, 102
1, 66249, Note_on_c, 9, 42, 0
1, 66480, Note_on_c, 9, 42, 90
1, 66489, Note_on_c, 9, 42, 0
1, 66719, Note_on_c, 9, 35, 0
1, 66720, Note_on_c, 9, 40, 104
1, 66720, Note_on_c, 9, 42, 90
1, 66729, Note_on_c, 9, 42, 0
1, 66959, Note_on_c, 9, 40, 0
1, 66960, Note_on_c, 9, 46, 88
1, 66969, Note_on_c, 9, 46, 0
1, 67200, Note_on_c, 9, 42, 90
1, 67200, Note_on_c, 9, 35, 102
1, 67209, Note_on_c, 9, 42, 0
1, 67440, Note_on_c, 9, 42, 90
1, 67449, Note_on_c, 9, 42, 0
1, 67679, Note_on_c, 9, 35, 0
1, 67680, Note_on_c, 9, 40, 104
1, 67680, Note_on_c, 9, 42, 90
1, 67689, Note_on_c, 9, 42, 0
1, 67919, Note_on_c, 9, 40, 0
1, 67920, Note_on_c, 9, 42, 90
1, 67929, Note_on_c, 9, 42, 0
1, 68160, Note_on_c, 9, 42, 90
1, 68160, Note_on_c, 9, 35, 102
1, 68169, Note_on_c, 9, 42, 0
1, 68400, Note_on_c, 9, 42, 90
1, 68409, Note_on_c, 9, 42, 0
1, 68639, Note_on_c, 9, 35, 0
1, 68640, Note_on_c, 9, 40, 104
1, 68640, Note_on_c, 9, 42, 90
1, 68649, Note_on_c, 9, 42, 0
1, 68879, Note_on_c, 9, 40, 0
1, 68880, Note_on_c, 9, 46, 88
1, 68889, Note_on_c, 9, 46, 0
1, 69120, Note_on_c, 9, 42, 90
1, 69120, Note_on_c, 9, 35, 102
1, 69129, Note_on_c, 9, 42, 0
1, 69360, Note_on_c, 9, 42, 90
1, 69369, Note_on_c, 9, 42, 0
1, 69599, Note_on_c, 9, 35, 0
1, 69600, Note_on_c, 9, 40, 104
1, 69600, Note_on_c, 9, 42, 90
1, 69609, Note_on_c, 9, 42, 0
1, 69839, Note_on_c, 9, 40, 0
1, 69840, Note_on_c, 9, 42, 90
1, 69849, Note_on_c, 9, 42, 0
1, 70080, Note_on_c, 9, 42, 90
1, 70080, Note_on_c, 9, 35, 102
1, 70089, Note_on_c, 9, 42, 0
1, 70320, Note_on_c, 9, 42, 90
1, 70329, Note_on_c, 9, 42, 0
1, 70559, Note_on_c, 9, 35, 0
1, 70560, Note_on_c, 9, 40, 104
1, 70560, Note_on_c, 9, 42, 90
1, 70569, Note_on_c, 9, 42, 0
1, 70799, Note_on_c, 9, 40, 0
1, 70800, Note_on_c, 9, 46, 88
1, 70809, Note_on_c, 9, 46, 0
1, 71040, Note_on_c, 9, 42, 90
1, 71040, Note_on_c, 9, 35, 102
1, 71049, Note_on_c, 9, 42, 0
1, 71280, Note_on_c, 9, 42, 90
1, 71289, Note_on_c, 9, 42, 0
1, 71519, Note_on_c, 9, 35, 0
1, 71520, Note_on_c, 9, 40, 104
1, 71520, Note_on_c, 9, 42, 90
1, 71529, Note_on_c, 9, 42, 0
1, 71759, Note_on_c, 9, 40, 0
1, 71760, Note_on_c, 9, 46, 88
1, 71769, Note_on_c, 9, 46, 0
1, 72000, Note_on_c, 9, 42, 90
1, 72000, Note_on_c, 9, 35, 102
1, 72009, Note_on_c, 9, 42, 0
1, 72240, Note_on_c, 9, 42, 90
1, 72249, Note_on_c, 9, 42, 0
1, 72479, Note_on_c, 9, 35, 0
1, 72480, Note_on_c, 9, 40, 104
1, 72480, Note_on_c, 9, 42, 90
1, 72489, Note_on_c, 9, 42, 0
1, 72719, Note_on_c, 9, 40, 0
1, 72720, Note_on_c, 9, 46, 88
1, 72729, Note_on_c, 9, 46, 0
1, 72960, Note_on_c, 9, 42, 90
1, 72960, Note_on_c, 9, 35, 102
1, 72969, Note_on_c, 9, 42, 0
1, 73200, Note_on_c, 9, 42, 90
1, 73209, Note_on_c, 9, 42, 0
1, 73439, Note_on_c, 9, 35, 0
1, 73440, Note_on_c, 9, 40, 104
1, 73440, Note_on_c, 9, 42, 90
1, 73449, Note_on_c, 9, 42, 0
1, 73679, Note_on_c, 9, 40, 0
1, 73680, Note_on_c, 9, 42, 90
1, 73689, Note_on_c, 9, 42, 0
1, 73920, Note_on_c, 9, 42, 90
1, 73920, Note_on_c, 9, 35, 102
1, 73929, Note_on_c, 9, 42, 0
1, 74160, Note_on_c, 9, 42, 90
1, 74169, Note_on_c, 9, 42, 0
1, 74399, Note_on_c, 9, 35, 0
1, 74400, Note_on_c, 9, 40, 104
1, 74400, Note_on_c, 9, 42, 90
1, 74409, Note_on_c, 9, 42, 0
1, 74639, Note_on_c, 9, 40, 0
1, 74640, Note_on_c, 9, 46, 88
1, 74649, Note_on_c, 9, 46, 0
1, 74880, Note_on_c, 9, 42, 90
1, 74880, Note_on_c, 9, 35, 102
1, 74889, Note_on_c, 9, 42, 0
1, 75120, Note_on_c, 9, 42, 90
1, 75129, Note_on_c, 9, 42, 0
1, 75359, Note_on_c, 9, 35, 0
1, 75360, Note_on_c, 9, 40, 104
1, 75360, Note_on_c, 9, 42, 90
1, 75369, Note_on_c, 9, 42, 0
1, 75599, Note_on_c, 9, 40, 0
1, 75600, Note_on_c, 9, 42, 90
1, 75609, Note_on_c, 9, 42, 0
1, 75840, Note_on_c, 9, 42, 90
1, 75840, Note_on_c, 9, 35, 102
1, 75849, Note_on_c, 9, 42, 0
1, 76080, Note_on_c, 9, 42, 90
1, 76089, Note_on_c, 9, 42, 0
1, 76319, Note_on_c, 9, 35, 0
1, 76320, Note_on_c, 9, 40, 104
1, 76320, Note_on_c, 9, 42, 90
1, 76329, Note_on_c, 9, 42, 0
1, 76559, Note_on_c, 9, 40, 0
1, 76560, Note_on_c, 9, 46, 88
1, 76569, Note_on_c, 9, 46, 0
1, 76800, Note_on_c, 9, 42, 90
1, 76800, Note_on_c, 9, 35, 102
1, 76809, Note_on_c, 9, 42, 0
1, 77040, Note_on_c, 9, 42, 90
1, 77049, Note_on_c, 9, 42, 0
1, 77279, Note_on_c, 9, 35, 0
1, 77280, Note_on_c, 9, 40, 104
1, 77280, Note_on_c, 9, 42, 90
1, 77289, Note_on_c, 9, 42, 0
1, 77519, Note_on_c, 9, 40, 0
1, 77520, Note_on_c, 9, 42, 90
1, 77529, Note_on_c, 9, 42, 0
1, 77760, Note_on_c, 9, 42, 90
1, 77760, Note_on_c, 9, 35, 102
1, 77769, Note_on_c, 9, 42, 0
1, 78000, Note_on_c, 9, 42, 90
1, 78009, Note_on_c, 9, 42, 0
1, 78239, Note_on_c, 9, 35, 0
1, 78240, Note_on_c, 9, 40, 104
1, 78240, Note_on_c, 9, 42, 90
1, 78249, Note_on_c, 9, 42, 0
1, 78479, Note_on_c, 9, 40, 0
1, 78480, Note_on_c, 9, 46, 88
1, 78489, Note_on_c, 9, 46, 0
1, 78720, Note_on_c, 9, 42, 90
1, 78720, Note_on_c, 9, 35, 102
1, 78729, Note_on_c, 9, 42, 0
1, 78960, Note_on_c, 9, 42, 90
1, 78969, Note_on_c, 9, 42, 0
1, 79199, Note_on_c, 9, 35, 0
1, 79200, Note_on_c, 9, 40, 104
1, 79200, Note_on_c, 9, 42, 90
1, 79209, Note_on_c, 9, 42, 0
1, 79439, Note_on_c, 9, 40, 0
1, 79440, Note_on_c, 9, 42, 90
1, 79449, Note_on_c, 9, 42, 0
1, 79680, Note_on_c, 9, 42, 90
1, 79680, Note_on_c, 9, 35, 102
1, 79689, Note_on_c, 9, 42, 0
1, 79920, Note_on_c, 9, 42, 90
1, 79929, Note_on_c, 9, 42, 0
1, 80159, Note_on_c, 9, 35, 0
1, 80160, Note_on_c, 9, 40, 104
1, 80160, Note_on_c, 9, 42, 90
1, 80169, Note_on_c, 9, 42, 0
1, 80399, Note_on_c, 9, 40, 0
1, 80400, Note_on_c, 9, 46, 88
1, 80409, Note_on_c, 9, 46, 0
1, 80640, Note_on_c, 9, 42, 90
1, 80640, Note_on_c, 9, 35, 102
1, 80649, Note_on_c, 9, 42, 0
1, 80880, Note_on_c, 9, 42, 90
1, 80889, Note_on_c, 9, 42, 0
1, 81119, Note_on_c, 9, 35, 0
1, 81120, Note_on_c, 9, 40, 104
1, 81120, Note_on_c, 9, 42, 90
1, 81129, Note_on_c, 9, 42, 0
1, 81359, Note_on_c, 9, 40, 0
1, 81360, Note_on_c, 9, 42, 90
1, 81369, Note_on_c, 9, 42, 0
1, 81600, Note_on_c, 9, 42, 90
1, 81600, Note_on_c, 9, 35, 102
1, 81609, Note_on_c, 9, 42, 0
1, 81840, Note_on_c, 9, 42, 90
1, 81849, Note_on_c, 9, 42, 0
1, 82079, Note_on_c, 9, 35, 0
1, 82080, Note_on_c, 9, 40, 104
1, 82080, Note_on_c, 9, 42, 90
1, 82089, Note_on_c, 9, 42, 0
1, 82319, Note_on_c, 9, 40, 0
1, 82320, Note_on_c, 9, 46, 88
1, 82329, Note_on_c, 9, 46, 0
1, 82560, Note_on_c, 9, 42, 90
1, 82560, Note_on_c, 9, 35, 102
1, 82569, Note_on_c, 9, 42, 0
1, 82800, Note_on_c, 9, 42, 90
1, 82809, Note_on_c, 9, 42, 0
1, 83039, Note_on_c, 9, 35, 0
1, 83040, Note_on_c, 9, 40, 104
1, 83040, Note_on_c, 9, 42, 90
1, 83049, Note_on_c, 9, 42, 0
1, 83279, Note_on_c, 9, 40, 0
1, 83280, Note_on_c, 9, 42, 90
1, 83289, Note_on_c, 9, 42, 0
1, 83520, Note_on_c, 9, 42, 90
1, 83520, Note_on_c, 9, 35, 102
1, 83529, Note_on_c, 9, 42, 0
1, 83760, Note_on_c, 9, 42, 90
1, 83769, Note_on_c, 9, 42, 0
1, 83999, Note_on_c, 9, 35, 0
1, 84000, Note_on_c, 9, 40, 104
1, 84000, Note_on_c, 9, 42, 90
1, 84009, Note_on_c, 9, 42, 0
1, 84239, Note_on_c, 9, 40, 0
1, 84240, Note_on_c, 9, 46, 88
1, 84249, Note_on_c, 9, 46, 0
1, 84480, Note_on_c, 9, 42, 90
1, 84480, Note_on_c, 9, 35, 102
1, 84489, Note_on_c, 9, 42, 0
1, 84720, Note_on_c, 9, 42, 90
1, 84729, Note_on_c, 9, 42, 0
1, 84959, Note_on_c, 9, 35, 0
1, 84960, Note_on_c, 9, 40, 104
1, 84960, Note_on_c, 9, 42, 90
1, 84969, Note_on_c, 9, 42, 0
1, 85199, Note_on_c, 9, 40, 0
1, 85200, Note_on_c, 9, 42, 90
1, 85209, Note_on_c, 9, 42, 0
1, 85440, Note_on_c, 9, 42, 90
1, 85440, Note_on_c, 9, 35, 102
1, 85449, Note_on_c, 9, 42, 0
1, 85680, Note_on_c, 9, 42, 90
1, 85689, Note_on_c, 9, 42, 0
1, 85919, Note_on_c, 9, 35, 0
1, 85920, Note_on_c, 9, 40, 104
1, 85920, Note_on_c, 9, 42, 90
1, 85929, Note_on_c, 9, 42, 0
1, 86159, Note_on_c, 9, 40, 0
1, 86160, Note_on_c, 9, 46, 88
1, 86169, Note_on_c, 9, 46, 0
1, 86400, Note_on_c, 9, 42, 90
1, 86400, Note_on_c, 9, 35, 102
1, 86409, Note_on_c, 9, 42, 0
1, 86640, Note_on_c, 9, 42, 90
1, 86649, Note_on_c, 9, 42, 0
1, 86879, Note_on_c, 9, 35, 0
1, 86880, Note_on_c, 9, 40, 104
1, 86880, Note_on_c, 9, 42, 90
1, 86889, Note_on_c, 9, 42, 0
1, 87119, Note_on_c, 9, 40, 0
1, 87120, Note_on_c, 9, 42, 90
1, 87129, Note_on_c, 9, 42, 0
1, 87360, Note_on_c, 9, 42, 90
1, 87360, Note_on_c, 9, 35, 102
1, 87369, Note_on_c, 9, 42, 0
1, 87600, Note_on_c, 9, 42, 90
1, 87609, Note_on_c, 9, 42, 0
1, 87839, Note_on_c, 9, 35, 0
1, 87840, Note_on_c, 9, 40, 104
1, 87840, Note_on_c, 9, 42, 90
1, 87849, Note_on_c, 9, 42, 0
1, 88079, Note_on_c, 9, 40, 0
1, 88080, Note_on_c, 9, 46, 88
1, 88089, Note_on_c, 9, 46, 0
1, 88320, Note_on_c, 9, 42, 90
1, 88320, Note_on_c, 9, 35, 102
1, 88329, Note_on_c, 9, 42, 0
1, 88560, Note_on_c, 9, 42, 90
1, 88569, Note_on_c, 9, 42, 0
1, 88799, Note_on_c, 9, 35, 0
1, 88800, Note_on_c, 9, 40, 104
1, 88800, Note_on_c, 9, 42, 90
1, 88809, Note_on_c, 9, 42, 0
1, 89039, Note_on_c, 9, 40, 0
1, 89040, Note_on_c, 9, 42, 90
1, 89049, Note_on_c, 9, 42, 0
1, 89280, Note_on_c, 9, 42, 90
1, 89280, Note_on_c, 9, 35, 102
1, 89289, Note_on_c, 9, 42, 0
1, 89520, Note_on_c, 9, 42, 90
1, 89529, Note_on_c, 9, 42, 0
1, 89759, Note_on_c, 9, 35, 0
1, 89760, Note_on_c, 9, 40, 104
1, 89760, Note_on_c, 9, 42, 90
1, 89769, Note_on_c, 9, 42, 0
1, 89999, Note_on_c, 9, 40, 0
1, 90000, Note_on_c, 9, 46, 88
1, 90009, Note_on_c, 9, 46, 0
1, 90240, Note_on_c, 9, 42, 90
1, 90240, Note_on_c, 9, 35, 102
1, 90249, Note_on_c, 9, 42, 0
1, 90480, Note_on_c, 9, 42, 90
1, 90489, Note_on_c, 9, 42, 0
1, 90719, Note_on_c, 9, 35, 0
1, 90720, Note_on_c, 9, 40, 104
1, 90720, Note_on_c, 9, 42, 90
1, 90729, Note_on_c, 9, 42, 0
1, 90959, Note_on_c, 9, 40, 0
1, 90960, Note_on_c, 9, 42, 90
1, 90969, Note_on_c, 9, 42, 0
1, 91200, Note_on_c, 9, 42, 90
1, 91200, Note_on_c, 9, 35, 102
1, 91209, Note_on_c, 9, 42, 0
1, 91440, Note_on_c, 9, 42, 90
1, 91449, Note_on_c, 9, 42, 0
1, 91679, Note_on_c, 9, 35, 0
1, 91680, Note_on_c, 9, 40, 104
1, 91680, Note_on_c, 9, 42, 90
1, 91689, Note_on_c, 9, 42, 0
1, 91919, Note_on_c, 9, 40, 0
1, 91920, Note_on_c, 9, 46, 88
1, 91929, Note_on_c, 9, 46, 0
1, 92160, Note_on_c, 9, 42, 90
1, 92160, Note_on_c, 9, 35, 102
1, 92169, Note_on_c, 9, 42, 0
1, 92400, Note_on_c, 9, 42, 90
1, 92409, Note_on_c, 9, 42, 0
1, 92639, Note_on_c, 9, 35, 0
1, 92640, Note_on_c, 9, 40, 104
1, 92640, Note_on_c, 9, 42, 90
1, 92649, Note_on_c, 9, 42, 0
1, 92879, Note_on_c, 9, 40, 0
1, 92880, Note_on_c, 9, 42, 90
1, 92889, Note_on_c, 9, 42, 0
1, 93120, Note_on_c, 9, 42, 90
1, 93120, Note_on_c, 9, 35, 102
1, 93129, Note_on_c, 9, 42, 0
1, 93360, Note_on_c, 9, 42, 90
1, 93369, Note_on_c, 9, 42, 0
1, 93599, Note_on_c, 9, 35, 0
1, 93600, Note_on_c, 9, 40, 104
1, 93600, Note_on_c, 9, 42, 90
1, 93609, Note_on_c, 9, 42, 0
1, 93839, Note_on_c, 9, 40, 0
1, 93840, Note_on_c, 9, 46, 88
1, 93849, Note_on_c, 9, 46, 0
1, 94080, Note_on_c, 9, 42, 90
1, 94080, Note_on_c, 9, 35, 102
1, 94089, Note_on_c, 9, 42, 0
1, 94320, Note_on_c, 9, 42, 90
1, 94329, Note_on_c, 9, 42, 0
1, 94559, Note_on_c, 9, 35, 0
1, 94560, Note_on_c, 9, 40, 104
1, 94560, Note_on_c, 9, 42, 90
1, 94569, Note_on_c, 9, 42, 0
1, 94799, Note_on_c, 9, 40, 0
1, 94800, Note_on_c, 9, 46, 88
1, 94809, Note_on_c, 9, 46, 0
1, 95040, Note_on_c, 9, 42, 90
1, 95040, Note_on_c, 9, 35, 102
1, 95049, Note_on_c, 9, 42, 0
1, 95280, Note_on_c, 9, 42, 90
1, 95289, Note_on_c, 9, 42, 0
1, 95519, Note_on_c, 9, 35, 0
1, 95520, Note_on_c, 9, 40, 104
1, 95639, Note_on_c, 9, 40, 0
1, 95640, Note_on_c, 9, 40, 104
1, 95759, Note_on_c, 9, 40, 0
1, 95760, Note_on_c, 9, 40, 104
1, 95879, Note_on_c, 9, 40, 0
1, 95880, Note_on_c, 9, 40, 104
1, 95999, Note_on_c, 9, 40, 0
1, 96000, Note_on_c, 9, 35, 102
1, 96000, Note_on_c, 9, 43, 111
1, 96479, Note_on_c, 9, 35, 0
1, 96479, Note_on_c, 9, 43, 0
1, 101760, Note_on_c, 9, 40, 104
1, 101999, Note_on_c, 9, 40, 0
1, 102000, Note_on_c, 9, 40, 104
1, 102119, Note_on_c, 9, 40, 0
1, 102120, Note_on_c, 9, 40, 104
1, 102239, Note_on_c, 9, 40, 0
1, 102240, Note_on_c, 9, 47, 105
1, 102359, Note_on_c, 9, 47, 0
1, 102360, Note_on_c, 9, 40, 104
1, 102479, Note_on_c, 9, 40, 0
1, 102480, Note_on_c, 9, 40, 104
1, 102599, Note_on_c, 9, 40, 0
1, 102600, Note_on_c, 9, 45, 109
1, 102719, Note_on_c, 9, 45, 0
1, 102840, Note_on_c, 9, 43, 111
1, 102959, Note_on_c, 9, 43, 0
1, 102960, Note_on_c, 9, 43, 111
1, 103199, Note_on_c, 9, 43, 0
1, 103200, Note_on_c, 9, 41, 113
1, 103439, Note_on_c, 9, 41, 0
1, 103440, Note_on_c, 9, 41, 113
1, 103679, Note_on_c, 9, 41, 0
1, 103680, Note_on_c, 9, 57, 63
1, 103680, Note_on_c, 9, 35, 102
1, 103689, Note_on_c, 9, 57, 0
1, 103920, Note_on_c, 9, 42, 90
1, 103929, Note_on_c, 9, 42, 0
1, 104159, Note_on_c, 9, 35, 0
1, 104160, Note_on_c, 9, 40, 104
1, 104160, Note_on_c, 9, 42, 90
1, 104169, Note_on_c, 9, 42, 0
1, 104399, Note_on_c, 9, 40, 0
1, 104400, Note_on_c, 9, 42, 90
1, 104409, Note_on_c, 9, 42, 0
1, 104640, Note_on_c, 9, 42, 90
1, 104640, Note_on_c, 9, 35, 102
1, 104649, Note_on_c, 9, 42, 0
1, 104880, Note_on_c, 9, 42, 90
1, 104889, Note_on_c, 9, 42, 0
1, 105119, Note_on_c, 9, 35, 0
1, 105120, Note_on_c, 9, 40, 104
1, 105120, Note_on_c, 9, 42, 90
1, 105129, Note_on_c, 9, 42, 0
1, 105359, Note_on_c, 9, 40, 0
1, 105360, Note_on_c, 9, 46, 88
1, 105369, Note_on_c, 9, 46, 0
1, 105600, Note_on_c, 9, 42, 90
1, 105600, Note_on_c, 9, 35, 102
1, 105609, Note_on_c, 9, 42, 0
1, 105840, Note_on_c, 9, 42, 90
1, 105849, Note_on_c, 9, 42, 0
1, 106079, Note_on_c, 9, 35, 0
1, 106080, Note_on_c, 9, 40, 104
1, 106080, Note_on_c, 9, 42, 90
1, 106089, Note_on_c, 9, 42, 0
1, 106319, Note_on_c, 9, 40, 0
1, 106320, Note_on_c, 9, 42, 90
1, 106329, Note_on_c, 9, 42, 0
1, 106560, Note_on_c, 9, 42, 90
1, 106560, Note_on_c, 9, 35, 102
1, 106569, Note_on_c, 9, 42, 0
1, 106800, Note_on_c, 9, 42, 90
1, 106809, Note_on_c, 9, 42, 0
1, 107039, Note_on_c, 9, 35, 0
1, 107040, Note_on_c, 9, 40, 104
1, 107040, Note_on_c, 9, 42, 90
1, 107049, Note_on_c, 9, 42, 0
1, 107279, Note_on_c, 9, 40, 0
1, 107280, Note_on_c, 9, 46, 88
1, 107289, Note_on_c, 9, 46, 0
1, 107520, Note_on_c, 9, 42, 90
1, 107520, Note_on_c, 9, 35, 102
1, 107529, Note_on_c, 9, 42, 0
1, 107760, Note_on_c, 9, 42, 90
1, 107769, Note_on_c, 9, 42, 0
1, 107999, Note_on_c, 9, 35, 0
1, 108000, Note_on_c, 9, 40, 104
1, 108000, Note_on_c, 9, 42, 90
1, 108009, Note_on_c, 9, 42, 0
1, 108239, Note_on_c, 9, 40, 0
1, 108240, Note_on_c, 9, 46, 88
1, 108249, Note_on_c, 9, 46, 0
1, 108480, Note_on_c, 9, 42, 90
1, 108480, Note_on_c, 9, 35, 102
1, 108489, Note_on_c, 9, 42, 0
1, 108720, Note_on_c, 9, 42, 90
1, 108729, Note_on_c, 9, 42, 0
1, 108959, Note_on_c, 9, 35, 0
1, 108960, Note_on_c, 9, 40, 104
1, 108960, Note_on_c, 9, 42, 90
1, 108969, Note_on_c, 9, 42, 0
1, 109199, Note_on_c, 9, 40, 0
1, 109200, Note_on_c, 9, 46, 88
1, 109209, Note_on_c, 9, 46, 0
1, 109440, Note_on_c, 9, 42, 90
1, 109440, Note_on_c, 9, 35, 102
1, 109449, Note_on_c, 9, 42, 0
1, 109680, Note_on_c, 9, 42, 90
1, 109689, Note_on_c, 9, 42, 0
1, 109919, Note_on_c, 9, 35, 0
1, 109920, Note_on_c, 9, 40, 104
1, 109920, Note_on_c, 9, 42, 90
1, 109929, Note_on_c, 9, 42, 0
1, 110159, Note_on_c, 9, 40, 0
1, 110160, Note_on_c, 9, 42, 90
1, 110169, Note_on_c, 9, 42, 0
1, 110400, Note_on_c, 9, 42, 90
1, 110400, Note_on_c, 9, 35, 102
1, 110409, Note_on_c, 9, 42, 0
1, 110640, Note_on_c, 9, 42, 90
1, 110649, Note_on_c, 9, 42, 0
1, 110879, Note_on_c, 9, 35, 0
1, 110880, Note_on_c, 9, 40, 104
1, 110880, Note_on_c, 9, 42, 90
1, 110889, Note_on_c, 9, 42, 0
1, 111119, Note_on_c, 9, 40, 0
1, 111120, Note_on_c, 9, 46, 88
1, 111129, Note_on_c, 9, 46, 0
1, 111360, Note_on_c, 9, 42, 90
1, 111360, Note_on_c, 9, 35, 102
1, 111369, Note_on_c, 9, 42, 0
1, 111600, Note_on_c, 9, 42, 90
1, 111609, Note_on_c, 9, 42, 0
1, 111839, Note_on_c, 9, 35, 0
1, 111840, Note_on_c, 9, 40, 104
1, 111840, Note_on_c, 9, 42, 90
1, 111849, Note_on_c, 9, 42, 0
1, 112079, Note_on_c, 9, 40, 0
1, 112080, Note_on_c, 9, 42, 90
1, 112089, Note_on_c, 9, 42, 0
1, 112320, Note_on_c, 9, 42, 90
1, 112320, Note_on_c, 9, 35, 102
1, 112329, Note_on_c, 9, 42, 0
1, 112560, Note_on_c, 9, 42, 90
1, 112569, Note_on_c, 9, 42, 0
1, 112799, Note_on_c, 9, 35, 0
1, 112800, Note_on_c, 9, 40, 104
1, 112800, Note_on_c, 9, 42, 90
1, 112809, Note_on_c, 9, 42, 0
1, 113039, Note_on_c, 9, 40, 0
1, 113040, Note_on_c, 9, 46, 88
1, 113049, Note_on_c, 9, 46, 0
1, 113280, Note_on_c, 9, 42, 90
1, 113280, Note_on_c, 9, 35, 102
1, 113289, Note_on_c, 9, 42, 0
1, 113520, Note_on_c, 9, 42, 90
1, 113529, Note_on_c, 9, 42, 0
1, 113759, Note_on_c, 9, 35, 0
1, 113760, Note_on_c, 9, 40, 104
1, 113760, Note_on_c, 9, 42, 90
1, 113769, Note_on_c, 9, 42, 0
1, 113999, Note_on_c, 9, 40, 0
1, 114000, Note_on_c, 9, 42, 90
1, 114009, Note_on_c, 9, 42, 0
1, 114240, Note_on_c, 9, 42, 90
1, 114240, Note_on_c, 9, 35, 102
1, 114249, Note_on_c, 9, 42, 0
1, 114480, Note_on_c, 9, 42, 90
1, 114489, Note_on_c, 9, 42, 0
1, 114719, Note_on_c, 9, 35, 0
1, 114720, Note_on_c, 9, 40, 104
1, 114720, Note_on_c, 9, 42, 90
1, 114729, Note_on_c, 9, 42, 0
1, 114959, Note_on_c, 9, 40, 0
1, 114960, Note_on_c, 9, 46, 88
1, 114969, Note_on_c, 9, 46, 0
1, 115200, Note_on_c, 9, 42, 90
1, 115200, Note_on_c, 9, 35, 102
1, 115209, Note_on_c, 9, 42, 0
1, 115440, Note_on_c, 9, 42, 90
1, 115449, Note_on_c, 9, 42, 0
1, 115679, Note_on_c, 9, 35, 0
1, 115680, Note_on_c, 9, 40, 104
1, 115680, Note_on_c, 9, 42, 90
1, 115689, Note_on_c, 9, 42, 0
1, 115919, Note_on_c, 9, 40, 0
1, 115920, Note_on_c, 9, 42, 90
1, 115929, Note_on_c, 9, 42, 0
1, 116160, Note_on_c, 9, 42, 90
1, 116160, Note_on_c, 9, 35, 102
1, 116169, Note_on_c, 9, 42, 0
1, 116400, Note_on_c, 9, 42, 90
1, 116409, Note_on_c, 9, 42, 0
1, 116639, Note_on_c, 9, 35, 0
1, 116640, Note_on_c, 9, 40, 104
1, 116640, Note_on_c, 9, 42, 90
1, 116649, Note_on_c, 9, 42, 0
1, 116879, Note_on_c, 9, 40, 0
1, 116880, Note_on_c, 9, 46, 88
1, 116889, Note_on_c, 9, 46, 0
1, 117120, Note_on_c, 9, 42, 90
1, 117120, Note_on_c, 9, 35, 102
1, 117129, Note_on_c, 9, 42, 0
1, 117360, Note_on_c, 9, 42, 90
1, 117369, Note_on_c, 9, 42, 0
1, 117599, Note_on_c, 9, 35, 0
1, 117600, Note_on_c, 9, 40, 104
1, 117600, Note_on_c, 9, 42, 90
1, 117609, Note_on_c, 9, 42, 0
1, 117839, Note_on_c, 9, 40, 0
1, 117840, Note_on_c, 9, 42, 90
1, 117849, Note_on_c, 9, 42, 0
1, 118080, Note_on_c, 9, 42, 90
1, 118080, Note_on_c, 9, 35, 102
1, 118089, Note_on_c, 9, 42, 0
1, 118320, Note_on_c, 9, 42, 90
1, 118329, Note_on_c, 9, 42, 0
1, 118559, Note_on_c, 9, 35, 0
1, 118560, Note_on_c, 9, 40, 104
1, 118560, Note_on_c, 9, 42, 90
1, 118569, Note_on_c, 9, 42, 0
1, 118799, Note_on_c, 9, 40, 0
1, 118800, Note_on_c, 9, 46, 88
1, 118809, Note_on_c, 9, 46, 0
1, 119040, Note_on_c, 9, 42, 90
1, 119040, Note_on_c, 9, 35, 102
1, 119049, Note_on_c, 9, 42, 0
1, 119280, Note_on_c, 9, 42, 90
1, 119289, Note_on_c, 9, 42, 0
1, 119519, Note_on_c, 9, 35, 0
1, 119520, Note_on_c, 9, 40, 104
1, 119520, Note_on_c, 9, 42, 90
1, 119529, Note_on_c, 9, 42, 0
1, 119759, Note_on_c, 9, 40, 0
1, 119760, Note_on_c, 9, 42, 90
1, 119769, Note_on_c, 9, 42, 0
1, 120000, Note_on_c, 9, 42, 90
1, 120000, Note_on_c, 9, 35, 102
1, 120009, Note_on_c, 9, 42, 0
1, 120240, Note_on_c, 9, 42, 90
1, 120249, Note_on_c, 9, 42, 0
1, 120479, Note_on_c, 9, 35, 0
1, 120480, Note_on_c, 9, 40, 104
1, 120480, Note_on_c, 9, 42, 90
1, 120489, Note_on_c, 9, 42, 0
1, 120719, Note_on_c, 9, 40, 0
1, 120720, Note_on_c, 9, 46, 88
1, 120729, Note_on_c, 9, 46, 0
1, 120960, Note_on_c, 9, 42, 90
1, 120960, Note_on_c, 9, 35, 102
1, 120969, Note_on_c, 9, 42, 0
1, 121200, Note_on_c, 9, 42, 90
1, 121209, Note_on_c, 9, 42, 0
1, 121439, Note_on_c, 9, 35, 0
1, 121440, Note_on_c, 9, 40, 104
1, 121440, Note_on_c, 9, 42, 90
1, 121449, Note_on_c, 9, 42, 0
1, 121679, Note_on_c, 9, 40, 0
1, 121680, Note_on_c, 9, 42, 90
1, 121689, Note_on_c, 9, 42, 0
1, 121920, Note_on_c, 9, 42, 90
1, 121920, Note_on_c, 9, 35, 102
1, 121929, Note_on_c, 9, 42, 0
1, 122160, Note_on_c, 9, 42, 90
1, 122169, Note_on_c, 9, 42, 0
1, 122399, Note_on_c, 9, 35, 0
1, 122400, Note_on_c, 9, 40, 104
1, 122400, Note_on_c, 9, 42, 90
1, 122409, Note_on_c, 9, 42, 0
1, 122639, Note_on_c, 9, 40, 0
1, 122640, Note_on_c, 9, 46, 88
1, 122649, Note_on_c, 9, 46, 0
1, 122880, Note_on_c, 9, 42, 90
1, 122880, Note_on_c, 9, 35, 102
1, 122889, Note_on_c, 9, 42, 0
1, 123120, Note_on_c, 9, 42, 90
1, 123129, Note_on_c, 9, 42, 0
1, 123359, Note_on_c, 9, 35, 0
1, 123360, Note_on_c, 9, 40, 104
1, 123360, Note_on_c, 9, 42, 90
1, 123369, Note_on_c, 9, 42, 0
1, 123599, Note_on_c, 9, 40, 0
1, 123600, Note_on_c, 9, 42, 90
1, 123609, Note_on_c, 9, 42, 0
1, 123840, Note_on_c, 9, 42, 90
1, 123840, Note_on_c, 9, 35, 102
1, 123849, Note_on_c, 9, 42, 0
1, 124080, Note_on_c, 9, 42, 90
1, 124089, Note_on_c, 9, 42, 0
1, 124319, Note_on_c, 9, 35, 0
1, 124320, Note_on_c, 9, 40, 104
1, 124320, Note_on_c, 9, 42, 90
1, 124329, Note_on_c, 9, 42, 0
1, 124559, Note_on_c, 9, 40, 0
1, 124560, Note_on_c, 9, 46, 88
1, 124569, Note_on_c, 9, 46, 0
1, 124800, Note_on_c, 9, 42, 90
1, 124800, Note_on_c, 9, 35, 102
1, 124809, Note_on_c, 9, 42, 0
1, 125040, Note_on_c, 9, 42, 90
1, 125049, Note_on_c, 9, 42, 0
1, 125279, Note_on_c, 9, 35, 0
1, 125280, Note_on_c, 9, 40, 104
1, 125280, Note_on_c, 9, 42, 90
1, 125289, Note_on_c, 9, 42, 0
1, 125519, Note_on_c, 9, 40, 0
1, 125520, Note_on_c, 9, 42, 90
1, 125529, Note_on_c, 9, 42, 0
1, 125760, Note_on_c, 9, 42, 90
1, 125760, Note_on_c, 9, 35, 102
1, 125769, Note_on_c, 9, 42, 0
1, 126000, Note_on_c, 9, 42, 90
1, 126009, Note_on_c, 9, 42, 0
1, 126239, Note_on_c, 9, 35, 0
1, 126240, Note_on_c, 9, 40, 104
1, 126240, Note_on_c, 9, 42, 90
1, 126249, Note_on_c, 9, 42, 0
1, 126479, Note_on_c, 9, 40, 0
1, 126480, Note_on_c, 9, 46, 88
1, 126489, Note_on_c, 9, 46, 0
1, 126720, Note_on_c, 9, 42, 90
1, 126720, Note_on_c, 9, 35, 102
1, 126729, Note_on_c, 9, 42, 0
1, 126960, Note_on_c, 9, 42, 90
1, 126969, Note_on_c, 9, 42, 0
1, 127199, Note_on_c, 9, 35, 0
1, 127200, Note_on_c, 9, 40, 104
1, 127200, Note_on_c, 9, 42, 90
1, 127209, Note_on_c, 9, 42, 0
1, 127439, Note_on_c, 9, 40, 0
1, 127440, Note_on_c, 9, 42, 90
1, 127449, Note_on_c, 9, 42, 0
1, 127680, Note_on_c, 9, 42, 90
1, 127680, Note_on_c, 9, 35, 102
1, 127689, Note_on_c, 9, 42, 0
1, 127920, Note_on_c, 9, 42, 90
1, 127929, Note_on_c, 9, 42, 0
1, 128159, Note_on_c, 9, 35, 0
1, 128160, Note_on_c, 9, 40, 104
1, 128160, Note_on_c, 9, 42, 90
1, 128169, Note_on_c, 9, 42, 0
1, 128399, Note_on_c, 9, 40, 0
1, 128400, Note_on_c, 9, 46, 88
1, 128409, Note_on_c, 9, 46, 0
1, 128640, Note_on_c, 9, 42, 90
1, 128640, Note_on_c, 9, 35, 102
1, 128649, Note_on_c, 9, 42, 0
1, 128880, Note_on_c, 9, 42, 90
1, 128889, Note_on_c, 9, 42, 0
1, 129119, Note_on_c, 9, 35, 0
1, 129120, Note_on_c, 9, 40, 104
1, 129120, Note_on_c, 9, 42, 90
1, 129129, Note_on_c, 9, 42, 0
1, 129359, Note_on_c, 9, 40, 0
1, 129360, Note_on_c, 9, 42, 90
1, 129369, Note_on_c, 9, 42, 0
1, 129600, Note_on_c, 9, 42, 90
1, 129600, Note_on_c, 9, 35, 102
1, 129609, Note_on_c, 9, 42, 0
1, 129840, Note_on_c, 9, 42, 90
1, 129849, Note_on_c, 9, 42, 0
1, 130079, Note_on_c, 9, 35, 0
1, 130080, Note_on_c, 9, 40, 104
1, 130080, Note_on_c, 9, 42, 90
1, 130089, Note_on_c, 9, 42, 0
1, 130319, Note_on_c, 9, 40, 0
1, 130320, Note_on_c, 9, 46, 88
1, 130329, Note_on_c, 9, 46, 0
1, 130560, Note_on_c, 9, 42, 90
1, 130560, Note_on_c, 9, 35, 102
1, 130569, Note_on_c, 9, 42, 0
1, 130800, Note_on_c, 9, 42, 90
1, 130809, Note_on_c, 9, 42, 0
1, 131039, Note_on_c, 9, 35, 0
1, 131040, Note_on_c, 9, 40, 104
1, 131040, Note_on_c, 9, 42, 90
1, 131049, Note_on_c, 9, 42, 0
1, 131279, Note_on_c, 9, 40, 0
1, 131280, Note_on_c, 9, 42, 90
1, 131289, Note_on_c, 9, 42, 0
1, 131520, Note_on_c, 9, 42, 90
1, 131520, Note_on_c, 9, 35, 102
1, 131529, Note_on_c, 9, 42, 0
1, 131760, Note_on_c, 9, 42, 90
1, 131769, Note_on_c, 9, 42, 0
1, 131999, Note_on_c, 9, 35, 0
1, 132000, Note_on_c, 9, 40, 104
1, 132000, Note_on_c, 9, 42, 90
1, 132009, Note_on_c, 9, 42, 0
1, 132239, Note_on_c, 9, 40, 0
1, 132240, Note_on_c, 9, 46, 88
1, 132249, Note_on_c, 9, 46, 0
1, 132480, Note_on_c, 9, 42, 90
1, 132480, Note_on_c, 9, 35, 102
1, 132489, Note_on_c, 9, 42, 0
1, 132720, Note_on_c, 9, 42, 90
1, 132729, Note_on_c, 9, 42, 0
1, 132959, Note_on_c, 9, 35, 0
1, 132960, Note_on_c, 9, 40, 104
1, 132960, Note_on_c, 9, 42, 90
1, 132969, Note_on_c, 9, 42, 0
1, 133199, Note_on_c, 9, 40, 0
1, 133200, Note_on_c, 9, 42, 90
1, 133209, Note_on_c, 9, 42, 0
1, 133440, Note_on_c, 9, 42, 90
1, 133440, Note_on_c, 9, 35, 102
1, 133449, Note_on_c, 9, 42, 0
1, 133680, Note_on_c, 9, 42, 90
1, 133689, Note_on_c, 9, 42, 0
1, 133919, Note_on_c, 9, 35, 0
1, 133920, Note_on_c, 9, 40, 104
1, 133920, Note_on_c, 9, 42, 90
1, 133929, Note_on_c, 9, 42, 0
1, 134159, Note_on_c, 9, 40, 0
1, 134160, Note_on_c, 9, 46, 88
1, 134169, Note_on_c, 9, 46, 0
1, 134400, Note_on_c, 9, 42, 90
1, 134400, Note_on_c, 9, 35, 102
1, 134409, Note_on_c, 9, 42, 0
1, 134640, Note_on_c, 9, 42, 90
1, 134649, Note_on_c, 9, 42, 0
1, 134879, Note_on_c, 9, 35, 0
1, 134880, Note_on_c, 9, 40, 104
1, 134880, Note_on_c, 9, 42, 90
1, 134889, Note_on_c, 9, 42, 0
1, 135119, Note_on_c, 9, 40, 0
1, 135120, Note_on_c, 9, 42, 90
1, 135129, Note_on_c, 9, 42, 0
1, 135360, Note_on_c, 9, 42, 90
1, 135360, Note_on_c, 9, 35, 102
1, 135369, Note_on_c, 9, 42, 0
1, 135600, Note_on_c, 9, 42, 90
1, 135609, Note_on_c, 9, 42, 0
1, 135839, Note_on_c, 9, 35, 0
1, 135840, Note_on_c, 9, 40, 104
1, 135840, Note_on_c, 9, 42, 90
1, 135849, Note_on_c, 9, 42, 0
1, 136079, Note_on_c, 9, 40, 0
1, 136080, Note_on_c, 9, 46, 88
1, 136089, Note_on_c, 9, 46, 0
1, 136320, Note_on_c, 9, 42, 90
1, 136320, Note_on_c, 9, 35, 102
1, 136329, Note_on_c, 9, 42, 0
1, 136560, Note_on_c, 9, 42, 90
1, 136569, Note_on_c, 9, 42, 0
1, 136799, Note_on_c, 9, 35, 0
1, 136800, Note_on_c, 9, 40, 104
1, 136800, Note_on_c, 9, 42, 90
1, 136809, Note_on_c, 9, 42, 0
1, 137039, Note_on_c, 9, 40, 0
1, 137040, Note_on_c, 9, 42, 90
1, 137049, Note_on_c, 9, 42, 0
1, 137280, Note_on_c, 9, 42, 90
1, 137280, Note_on_c, 9, 35, 102
1, 137289, Note_on_c, 9, 42, 0
1, 137520, Note_on_c, 9, 42, 90
1, 137529, Note_on_c, 9, 42, 0
1, 137759, Note_on_c, 9, 35, 0
1, 137760, Note_on_c, 9, 40, 104
1, 137760, Note_on_c, 9, 42, 90
1, 137769, Note_on_c, 9, 42, 0
1, 137999, Note_on_c, 9, 40, 0
1, 138000, Note_on_c, 9, 46, 88
1, 138009, Note_on_c, 9, 46, 0
1, 138240, Note_on_c, 9, 42, 90
1, 138240, Note_on_c, 9, 35, 102
1, 138249, Note_on_c, 9, 42, 0
1, 138480, Note_on_c, 9, 42, 90
1, 138489, Note_on_c, 9, 42, 0
1, 138719, Note_on_c, 9, 35, 0
1, 138720, Note_on_c, 9, 40, 104
1, 138720, Note_on_c, 9, 42, 90
1, 138729, Note_on_c, 9, 42, 0
1, 138959, Note_on_c, 9, 40, 0
1, 138960, Note_on_c, 9, 42, 90
1, 138969, Note_on_c, 9, 42, 0
1, 139200, Note_on_c, 9, 42, 90
1, 139200, Note_on_c, 9, 35, 102
1, 139209, Note_on_c, 9, 42, 0
1, 139440, Note_on_c, 9, 42, 90
1, 139449, Note_on_c, 9, 42, 0
1, 139679, Note_on_c, 9, 35, 0
1, 139680, Note_on_c, 9, 40, 104
1, 139680, Note_on_c, 9, 42, 90
1, 139689, Note_on_c, 9, 42, 0
1, 139919, Note_on_c, 9, 40, 0
1, 139920, Note_on_c, 9, 46, 88
1, 139929, Note_on_c, 9, 46, 0
1, 140160, Note_on_c, 9, 42, 90
1, 140160, Note_on_c, 9, 35, 102
1, 140169, Note_on_c, 9, 42, 0
1, 140400, Note_on_c, 9, 42, 90
1, 140409, Note_on_c, 9, 42, 0
1, 140639, Note_on_c, 9, 35, 0
1, 140640, Note_on_c, 9, 40, 104
1, 140640, Note_on_c, 9, 42, 90
1, 140649, Note_on_c, 9, 42, 0
1, 140879, Note_on_c, 9, 40, 0
1, 140880, Note_on_c, 9, 42, 90
1, 140889, Note_on_c, 9, 42, 0
1, 141120, Note_on_c, 9, 42, 90
1, 141120, Note_on_c, 9, 35, 102
1, 141129, Note_on_c, 9, 42, 0
1, 141360, Note_on_c, 9, 42, 90
1, 141369, Note_on_c, 9, 42, 0
1, 141599, Note_on_c, 9, 35, 0
1, 141600, Note_on_c, 9, 40, 104
1, 141600, Note_on_c, 9, 42, 90
1, 141609, Note_on_c, 9, 42, 0
1, 141839, Note_on_c, 9, 40, 0
1, 141840, Note_on_c, 9, 46, 88
1, 141849, Note_on_c, 9, 46, 0
1, 142080, Note_on_c, 9, 42, 90
1, 142080, Note_on_c, 9, 35, 102
1, 142089, Note_on_c, 9, 42, 0
1, 142320, Note_on_c, 9, 42, 90
1, 142329, Note_on_c, 9, 42, 0
1, 142559, Note_on_c, 9, 35, 0
1, 142560, Note_on_c, 9, 40, 104
1, 142560, Note_on_c, 9, 42, 90
1, 142569, Note_on_c, 9, 42, 0
1, 142799, Note_on_c, 9, 40, 0
1, 142800, Note_on_c, 9, 42, 90
1, 142809, Note_on_c, 9, 42, 0
1, 143040, Note_on_c, 9, 42, 90
1, 143040, Note_on_c, 9, 35, 102
1, 143049, Note_on_c, 9, 42, 0
1, 143280, Note_on_c, 9, 42, 90
1, 143289, Note_on_c, 9, 42, 0
1, 143519, Note_on_c, 9, 35, 0
1, 143520, Note_on_c, 9, 40, 104
1, 143520, Note_on_c, 9, 42, 90
1, 143529, Note_on_c, 9, 42, 0
1, 143759, Note_on_c, 9, 40, 0
1, 143760, Note_on_c, 9, 46, 88
1, 143769, Note_on_c, 9, 46, 0
1, 144000, Note_on_c, 9, 42, 90
1, 144000, Note_on_c, 9, 35, 102
1, 144009, Note_on_c, 9, 42, 0
1, 144240, Note_on_c, 9, 42, 90
1, 144249, Note_on_c, 9, 42, 0
1, 144479, Note_on_c, 9, 35, 0
1, 144480, Note_on_c, 9, 40, 104
1, 144480, Note_on_c, 9, 42, 90
1, 144489, Note_on_c, 9, 42, 0
1, 144719, Note_on_c, 9, 40, 0
1, 144720, Note_on_c, 9, 42, 90
1, 144729, Note_on_c, 9, 42, 0
1, 144960, Note_on_c, 9, 42, 90
1, 144960, Note_on_c, 9, 35, 102
1, 144969, Note_on_c, 9, 42, 0
1, 145200, Note_on_c, 9, 42, 90
1, 145209, Note_on_c, 9, 42, 0
1, 145439, Note_on_c, 9, 35, 0
1, 145440, Note_on_c, 9, 40, 104
1, 145440, Note_on_c, 9, 42, 90
1, 145449, Note_on_c, 9, 42, 0
1, 145679, Note_on_c, 9, 40, 0
1, 145680, Note_on_c, 9, 46, 88
1, 145689, Note_on_c, 9, 46, 0
1, 145920, Note_on_c, 9, 42, 90
1, 145920, Note_on_c, 9, 35, 102
1, 145929, Note_on_c, 9, 42, 0
1, 146160, Note_on_c, 9, 42, 90
1, 146169, Note_on_c, 9, 42, 0
1, 146399, Note_on_c, 9, 35, 0
1, 146400, Note_on_c, 9, 40, 104
1, 146400, Note_on_c, 9, 42, 90
1, 146409, Note_on_c, 9, 42, 0
1, 146639, Note_on_c, 9, 40, 0
1, 146640, Note_on_c, 9, 42, 90
1, 146649, Note_on_c, 9, 42, 0
1, 146880, Note_on_c, 9, 42, 90
1, 146880, Note_on_c, 9, 35, 102
1, 146889, Note_on_c, 9, 42, 0
1, 147120, Note_on_c, 9, 42, 90
1, 147129, Note_on_c, 9, 42, 0
1, 147359, Note_on_c, 9, 35, 0
1, 147360, Note_on_c, 9, 40, 104
1, 147360, Note_on_c, 9, 42, 90
1, 147369, Note_on_c, 9, 42, 0
1, 147599, Note_on_c, 9, 40, 0
1, 147600, Note_on_c, 9, 46, 88
1, 147609, Note_on_c, 9, 46, 0
1, 147840, Note_on_c, 9, 42, 90
1, 147840, Note_on_c, 9, 35, 102
1, 147849, Note_on_c, 9, 42, 0
1, 148080, Note_on_c, 9, 42, 90
1, 148089, Note_on_c, 9, 42, 0
1, 148319, Note_on_c, 9, 35, 0
1, 148320, Note_on_c, 9, 40, 104
1, 148320, Note_on_c, 9, 42, 90
1, 148329, Note_on_c, 9, 42, 0
1, 148559, Note_on_c, 9, 40, 0
1, 148560, Note_on_c, 9, 42, 90
1, 148569, Note_on_c, 9, 42, 0
1, 148800, Note_on_c, 9, 42, 90
1, 148800, Note_on_c, 9, 35, 102
1, 148809, Note_on_c, 9, 42, 0
1, 149040, Note_on_c, 9, 42, 90
1, 149049, Note_on_c, 9, 42, 0
1, 149279, Note_on_c, 9, 35, 0
1, 149280, Note_on_c, 9, 40, 104
1, 149280, Note_on_c, 9, 42, 90
1, 149289, Note_on_c, 9, 42, 0
1, 149519, Note_on_c, 9, 40, 0
1, 149520, Note_on_c, 9, 46, 88
1, 149529, Note_on_c, 9, 46, 0
1, 149760, Note_on_c, 9, 42, 90
1, 149760, Note_on_c, 9, 35, 102
1, 149769, Note_on_c, 9, 42, 0
1, 150000, Note_on_c, 9, 42, 90
1, 150009, Note_on_c, 9, 42, 0
1, 150239, Note_on_c, 9, 35, 0
1, 150240, Note_on_c, 9, 40, 104
1, 150240, Note_on_c, 9, 42, 90
1, 150249, Note_on_c, 9, 42, 0
1, 150479, Note_on_c, 9, 40, 0
1, 150480, Note_on_c, 9, 42, 90
1, 150489, Note_on_c, 9, 42, 0
1, 150720, Note_on_c, 9, 42, 90
1, 150720, Note_on_c, 9, 35, 102
1, 150729, Note_on_c, 9, 42, 0
1, 150960, Note_on_c, 9, 42, 90
1, 150969, Note_on_c, 9, 42, 0
1, 151199, Note_on_c, 9, 35, 0
1, 151200, Note_on_c, 9, 40, 104
1, 151200, Note_on_c, 9, 42, 90
1, 151209, Note_on_c, 9, 42, 0
1, 151439, Note_on_c, 9, 40, 0
1, 151440, Note_on_c, 9, 46, 88
1, 151449, Note_on_c, 9, 46, 0
1, 151680, Note_on_c, 9, 42, 90
1, 151680, Note_on_c, 9, 35, 102
1, 151689, Note_on_c, 9, 42, 0
1, 151920, Note_on_c, 9, 42, 90
1, 151929, Note_on_c, 9, 42, 0
1, 152159, Note_on_c, 9, 35, 0
1, 152160, Note_on_c, 9, 40, 104
1, 152160, Note_on_c, 9, 42, 90
1, 152169, Note_on_c, 9, 42, 0
1, 152399, Note_on_c, 9, 40, 0
1, 152400, Note_on_c, 9, 42, 90
1, 152409, Note_on_c, 9, 42, 0
1, 152640, Note_on_c, 9, 42, 90
1, 152640, Note_on_c, 9, 35, 102
1, 152649, Note_on_c, 9, 42, 0
1, 152880, Note_on_c, 9, 42, 90
1, 152889, Note_on_c, 9, 42, 0
1, 153119, Note_on_c, 9, 35, 0
1, 153120, Note_on_c, 9, 40, 104
1, 153120, Note_on_c, 9, 42, 90
1, 153129, Note_on_c, 9, 42, 0
1, 153359, Note_on_c, 9, 40, 0
1, 153360, Note_on_c, 9, 46, 88
1, 153369, Note_on_c, 9, 46, 0
1, 153600, Note_on_c, 9, 42, 90
1, 153600, Note_on_c, 9, 35, 102
1, 153609, Note_on_c, 9, 42, 0
1, 153840, Note_on_c, 9, 42, 90
1, 153849, Note_on_c, 9, 42, 0
1, 154079, Note_on_c, 9, 35, 0
1, 154080, Note_on_c, 9, 40, 104
1, 154080, Note_on_c, 9, 42, 90
1, 154089, Note_on_c, 9, 42, 0
1, 154319, Note_on_c, 9, 40, 0
1, 154320, Note_on_c, 9, 42, 90
1, 154329, Note_on_c, 9, 42, 0
1, 154560, Note_on_c, 9, 42, 90
1, 154560, Note_on_c, 9, 35, 102
1, 154569, Note_on_c, 9, 42, 0
1, 154800, Note_on_c, 9, 42, 90
1, 154809, Note_on_c, 9, 42, 0
1, 155039, Note_on_c, 9, 35, 0
1, 155040, Note_on_c, 9, 40, 104
1, 155040, Note_on_c, 9, 42, 90
1, 155049, Note_on_c, 9, 42, 0
1, 155279, Note_on_c, 9, 40, 0
1, 155280, Note_on_c, 9, 46, 88
1, 155289, Note_on_c, 9, 46, 0
1, 155290, End_track
0, 0, End_of_file
