0, 0, Header, 1, 1, 480
1, 0, Start_track
1, 0, Title_t, "Drumset"
1, 0, Time_signature, 4, 2, 24, 8
1, 0, Key_signature, 0, "major"
1, 0, Tempo, 714286
1, 0, Control_c, 9, 121, 0
1, 0, Program_c, 9, 0
1, 0, Control_c, 9, 7, 100
1, 0, Control_c, 9, 10, 64
1, 0, Control_c, 9, 91, 0
1, 0, Control_c, 9, 93, 0
1, 0, MIDI_port, 0
1, 156240, Note_on_c, 9, 40, 123
1, 156259, Note_on_c, 9, 40, 0
1, 156260, Note_on_c, 9, 40, 115
1, 156299, Note_on_c, 9, 40, 0
1, 156480, Note_on_c, 9, 45, 119
1, 156720, Note_on_c, 9, 43, 113
1, 156959, Note_on_c, 9, 45, 0
1, 156959, Note_on_c, 9, 43, 0
1, 156960, Note_on_c, 9, 36, 109
1, 157199, Note_on_c, 9, 36, 0
1, 157200, Note_on_c, 9, 36, 113
1, 157215, Note_on_c, 9, 49, 121
1, 157220, Note_on_c, 9, 49, 0
1, 157439, Note_on_c, 9, 36, 0
1, 157695, Note_on_c, 9, 40, 117
1, 157695, Note_on_c, 9, 42, 105
1, 157699, Note_on_c, 9, 42, 0
1, 157754, Note_on_c, 9, 40, 0
1, 157935, Note_on_c, 9, 44, 95
1, 157940, Note_on_c, 9, 44, 0
1, 158160, Note_on_c, 9, 36, 109
1, 158175, Note_on_c, 9, 42, 101
1, 158180, Note_on_c, 9, 42, 0
1, 158399, Note_on_c, 9, 36, 0
1, 158415, Note_on_c, 9, 44, 92
1, 158420, Note_on_c, 9, 44, 0
1, 158655, Note_on_c, 9, 40, 115
1, 158655, Note_on_c, 9, 42, 117
1, 158659, Note_on_c, 9, 42, 0
1, 158714, Note_on_c, 9, 40, 0
1, 158895, Note_on_c, 9, 44, 93
1, 158900, Note_on_c, 9, 44, 0
1, 159120, Note_on_c, 9, 36, 105
1, 159135, Note_on_c, 9, 42, 111
1, 159140, Note_on_c, 9, 42, 0
1, 159359, Note_on_c, 9, 36, 0
1, 159375, Note_on_c, 9, 44, 89
1, 159380, Note_on_c, 9, 44, 0
1, 159615, Note_on_c, 9, 40, 113
1, 159615, Note_on_c, 9, 42, 113
1, 159619, Note_on_c, 9, 42, 0
1, 159674, Note_on_c, 9, 40, 0
1, 159855, Note_on_c, 9, 44, 62
1, 159860, Note_on_c, 9, 44, 0
1, 160080, Note_on_c, 9, 36, 101
1, 160095, Note_on_c, 9, 42, 107
1, 160100, Note_on_c, 9, 42, 0
1, 160319, Note_on_c, 9, 36, 0
1, 160335, Note_on_c, 9, 44, 80
1, 160335, Note_on_c, 9, 44, 0
1, 160335, Note_on_c, 9, 36, 99
1, 160394, Note_on_c, 9, 36, 0
1, 160395, Note_on_c, 9, 44, 80
1, 160398, Note_on_c, 9, 44, 0
1, 160575, Note_on_c, 9, 40, 115
1, 160575, Note_on_c, 9, 42, 109
1, 160579, Note_on_c, 9, 42, 0
1, 160634, Note_on_c, 9, 40, 0
1, 160815, Note_on_c, 9, 44, 99
1, 160815, Note_on_c, 9, 44, 0
1, 160815, Note_on_c, 9, 36, 90
1, 160874, Note_on_c, 9, 36, 0
1, 160875, Note_on_c, 9, 44, 99
1, 160878, Note_on_c, 9, 44, 0
1, 161040, Note_on_c, 9, 36, 103
1, 161055, Note_on_c, 9, 42, 101
1, 161060, Note_on_c, 9, 42, 0
1, 161279, Note_on_c, 9, 36, 0
1, 161295, Note_on_c, 9, 44, 78
1, 161300, Note_on_c, 9, 44, 0
1, 161535, Note_on_c, 9, 40, 113
1, 161535, Note_on_c, 9, 42, 111
1, 161539, Note_on_c, 9, 42, 0
1, 161594, Note_on_c, 9, 40, 0
1, 161775, Note_on_c, 9, 44, 74
1, 161780, Note_on_c, 9, 44, 0
1, 162000, Note_on_c, 9, 36, 105
1, 162015, Note_on_c, 9, 42, 119
1, 162020, Note_on_c, 9, 42, 0
1, 162239, Note_on_c, 9, 36, 0
1, 162255, Note_on_c, 9, 40, 63
1, 162299, Note_on_c, 9, 40, 0
1, 162375, Note_on_c, 9, 40, 87
1, 162419, Note_on_c, 9, 40, 0
1, 162480, Note_on_c, 9, 40, 115
1, 162719, Note_on_c, 9, 40, 0
1, 162735, Note_on_c, 9, 44, 101
1, 162735, Note_on_c, 9, 44, 0
1, 162735, Note_on_c, 9, 36, 103
1, 162794, Note_on_c, 9, 36, 0
1, 162795, Note_on_c, 9, 44, 101
1, 162798, Note_on_c, 9, 44, 0
1, 162975, Note_on_c, 9, 42, 109
1, 162980, Note_on_c, 9, 42, 0
1, 163215, Note_on_c, 9, 44, 81
1, 163215, Note_on_c, 9, 44, 0
1, 163215, Note_on_c, 9, 36, 109
1, 163274, Note_on_c, 9, 36, 0
1, 163275, Note_on_c, 9, 44, 81
1, 163278, Note_on_c, 9, 44, 0
1, 163440, Note_on_c, 9, 42, 111
1, 163440, Note_on_c, 9, 42, 0
1, 163460, Note_on_c, 9, 40, 123
1, 163499, Note_on_c, 9, 40, 0
1, 163680, Note_on_c, 9, 44, 92
1, 163694, Note_on_c, 9, 44, 0
1, 163920, Note_on_c, 9, 42, 103
1, 163926, Note_on_c, 9, 42, 0
1, 164160, Note_on_c, 9, 44, 92
1, 164160, Note_on_c, 9, 36, 105
1, 164174, Note_on_c, 9, 44, 0
1, 164415, Note_on_c, 9, 42, 105
1, 164415, Note_on_c, 9, 42, 0
1, 164430, Note_on_c, 9, 40, 117
1, 164489, Note_on_c, 9, 40, 0
1, 164639, Note_on_c, 9, 36, 0
1, 164660, Note_on_c, 9, 44, 90
1, 164660, Note_on_c, 9, 44, 0
1, 164680, Note_on_c, 9, 36, 99
1, 164699, Note_on_c, 9, 36, 0
1, 164895, Note_on_c, 9, 42, 109
1, 164900, Note_on_c, 9, 42, 0
1, 164910, Note_on_c, 9, 36, 103
1, 164969, Note_on_c, 9, 36, 0
1, 165135, Note_on_c, 9, 44, 83
1, 165140, Note_on_c, 9, 44, 0
1, 165375, Note_on_c, 9, 40, 111
1, 165375, Note_on_c, 9, 42, 115
1, 165379, Note_on_c, 9, 42, 0
1, 165434, Note_on_c, 9, 40, 0
1, 165615, Note_on_c, 9, 44, 99
1, 165620, Note_on_c, 9, 44, 0
1, 165840, Note_on_c, 9, 36, 89
1, 165855, Note_on_c, 9, 42, 115
1, 165860, Note_on_c, 9, 42, 0
1, 166079, Note_on_c, 9, 36, 0
1, 166095, Note_on_c, 9, 44, 97
1, 166095, Note_on_c, 9, 44, 0
1, 166095, Note_on_c, 9, 36, 92
1, 166154, Note_on_c, 9, 36, 0
1, 166155, Note_on_c, 9, 44, 97
1, 166158, Note_on_c, 9, 44, 0
1, 166335, Note_on_c, 9, 40, 119
1, 166335, Note_on_c, 9, 42, 109
1, 166339, Note_on_c, 9, 42, 0
1, 166394, Note_on_c, 9, 40, 0
1, 166575, Note_on_c, 9, 44, 97
1, 166575, Note_on_c, 9, 44, 0
1, 166575, Note_on_c, 9, 36, 90
1, 166634, Note_on_c, 9, 36, 0
1, 166635, Note_on_c, 9, 44, 97
1, 166638, Note_on_c, 9, 44, 0
1, 166800, Note_on_c, 9, 36, 103
1, 166815, Note_on_c, 9, 42, 109
1, 166820, Note_on_c, 9, 42, 0
1, 167039, Note_on_c, 9, 36, 0
1, 167055, Note_on_c, 9, 44, 107
1, 167060, Note_on_c, 9, 44, 0
1, 167295, Note_on_c, 9, 40, 117
1, 167295, Note_on_c, 9, 42, 105
1, 167299, Note_on_c, 9, 42, 0
1, 167354, Note_on_c, 9, 40, 0
1, 167535, Note_on_c, 9, 44, 99
1, 167540, Note_on_c, 9, 44, 0
1, 167760, Note_on_c, 9, 36, 89
1, 167775, Note_on_c, 9, 42, 105
1, 167780, Note_on_c, 9, 42, 0
1, 167999, Note_on_c, 9, 36, 0
1, 168015, Note_on_c, 9, 44, 89
1, 168015, Note_on_c, 9, 44, 0
1, 168015, Note_on_c, 9, 36, 93
1, 168074, Note_on_c, 9, 36, 0
1, 168075, Note_on_c, 9, 44, 89
1, 168078, Note_on_c, 9, 44, 0
1, 168255, Note_on_c, 9, 40, 115
1, 168255, Note_on_c, 9, 42, 105
1, 168259, Note_on_c, 9, 42, 0
1, 168314, Note_on_c, 9, 40, 0
1, 168495, Note_on_c, 9, 44, 99
1, 168495, Note_on_c, 9, 44, 0
1, 168495, Note_on_c, 9, 36, 93
1, 168554, Note_on_c, 9, 36, 0
1, 168555, Note_on_c, 9, 44, 99
1, 168558, Note_on_c, 9, 44, 0
1, 168720, Note_on_c, 9, 36, 103
1, 168735, Note_on_c, 9, 42, 103
1, 168740, Note_on_c, 9, 42, 0
1, 168959, Note_on_c, 9, 36, 0
1, 168975, Note_on_c, 9, 44, 101
1, 168980, Note_on_c, 9, 44, 0
1, 169215, Note_on_c, 9, 40, 113
1, 169215, Note_on_c, 9, 42, 97
1, 169219, Note_on_c, 9, 42, 0
1, 169274, Note_on_c, 9, 40, 0
1, 169455, Note_on_c, 9, 44, 78
1, 169460, Note_on_c, 9, 44, 0
1, 169680, Note_on_c, 9, 36, 101
1, 169695, Note_on_c, 9, 42, 105
1, 169700, Note_on_c, 9, 42, 0
1, 169919, Note_on_c, 9, 36, 0
1, 170055, Note_on_c, 9, 40, 80
1, 170099, Note_on_c, 9, 40, 0
1, 170175, Note_on_c, 9, 40, 89
1, 170219, Note_on_c, 9, 40, 0
1, 170295, Note_on_c, 9, 40, 111
1, 170339, Note_on_c, 9, 40, 0
1, 170415, Note_on_c, 9, 44, 113
1, 170415, Note_on_c, 9, 44, 0
1, 170415, Note_on_c, 9, 36, 111
1, 170474, Note_on_c, 9, 36, 0
1, 170475, Note_on_c, 9, 44, 113
1, 170478, Note_on_c, 9, 44, 0
1, 170655, Note_on_c, 9, 42, 105
1, 170660, Note_on_c, 9, 42, 0
1, 170895, Note_on_c, 9, 44, 89
1, 170895, Note_on_c, 9, 44, 0
1, 170895, Note_on_c, 9, 36, 115
1, 170954, Note_on_c, 9, 36, 0
1, 170955, Note_on_c, 9, 44, 89
1, 170958, Note_on_c, 9, 44, 0
1, 171135, Note_on_c, 9, 40, 100
1, 171135, Note_on_c, 9, 42, 103
1, 171139, Note_on_c, 9, 42, 0
1, 171194, Note_on_c, 9, 40, 0
1, 171360, Note_on_c, 9, 44, 97
1, 171374, Note_on_c, 9, 44, 0
1, 171600, Note_on_c, 9, 42, 99
1, 171606, Note_on_c, 9, 42, 0
1, 171840, Note_on_c, 9, 44, 95
1, 171840, Note_on_c, 9, 36, 113
1, 171854, Note_on_c, 9, 44, 0
1, 172095, Note_on_c, 9, 40, 119
1, 172095, Note_on_c, 9, 42, 99
1, 172099, Note_on_c, 9, 42, 0
1, 172154, Note_on_c, 9, 40, 0
1, 172319, Note_on_c, 9, 36, 0
1, 172335, Note_on_c, 9, 44, 101
1, 172335, Note_on_c, 9, 44, 0
1, 172335, Note_on_c, 9, 36, 105
1, 172394, Note_on_c, 9, 36, 0
1, 172395, Note_on_c, 9, 44, 101
1, 172398, Note_on_c, 9, 44, 0
1, 172560, Note_on_c, 9, 36, 117
1, 172575, Note_on_c, 9, 42, 97
1, 172580, Note_on_c, 9, 42, 0
1, 172799, Note_on_c, 9, 36, 0
1, 172815, Note_on_c, 9, 44, 93
1, 172820, Note_on_c, 9, 44, 0
1, 173055, Note_on_c, 9, 40, 117
1, 173055, Note_on_c, 9, 42, 103
1, 173059, Note_on_c, 9, 42, 0
1, 173114, Note_on_c, 9, 40, 0
1, 173295, Note_on_c, 9, 44, 90
1, 173300, Note_on_c, 9, 44, 0
1, 173520, Note_on_c, 9, 36, 107
1, 173535, Note_on_c, 9, 42, 101
1, 173540, Note_on_c, 9, 42, 0
1, 173759, Note_on_c, 9, 36, 0
1, 173775, Note_on_c, 9, 40, 109
1, 173775, Note_on_c, 9, 44, 93
1, 173780, Note_on_c, 9, 44, 0
1, 173819, Note_on_c, 9, 40, 0
1, 173895, Note_on_c, 9, 40, 119
1, 173939, Note_on_c, 9, 40, 0
1, 174015, Note_on_c, 9, 42, 109
1, 174015, Note_on_c, 9, 42, 0
1, 174135, Note_on_c, 9, 40, 87
1, 174179, Note_on_c, 9, 40, 0
1, 174255, Note_on_c, 9, 40, 111
1, 174299, Note_on_c, 9, 40, 0
1, 174375, Note_on_c, 9, 40, 121
1, 174419, Note_on_c, 9, 40, 0
1, 174480, Note_on_c, 9, 36, 117
1, 174495, Note_on_c, 9, 51, 90
1, 174500, Note_on_c, 9, 51, 0
1, 174719, Note_on_c, 9, 36, 0
1, 174720, Note_on_c, 9, 53, 80
1, 174959, Note_on_c, 9, 53, 0
1, 174960, Note_on_c, 9, 40, 119
1, 174960, Note_on_c, 9, 51, 92
1, 174966, Note_on_c, 9, 51, 0
1, 175199, Note_on_c, 9, 40, 0
1, 175200, Note_on_c, 9, 53, 60
1, 175200, Note_on_c, 9, 36, 111
1, 175439, Note_on_c, 9, 53, 0
1, 175440, Note_on_c, 9, 51, 97
1, 175446, Note_on_c, 9, 51, 0
1, 175679, Note_on_c, 9, 36, 0
1, 175680, Note_on_c, 9, 53, 83
1, 175680, Note_on_c, 9, 36, 111
1, 175919, Note_on_c, 9, 53, 0
1, 175935, Note_on_c, 9, 40, 113
1, 175935, Note_on_c, 9, 51, 95
1, 175939, Note_on_c, 9, 51, 0
1, 175994, Note_on_c, 9, 40, 0
1, 176159, Note_on_c, 9, 36, 0
1, 176160, Note_on_c, 9, 53, 65
1, 176160, Note_on_c, 9, 36, 97
1, 176399, Note_on_c, 9, 53, 0
1, 176399, Note_on_c, 9, 36, 0
1, 176400, Note_on_c, 9, 36, 95
1, 176415, Note_on_c, 9, 51, 85
1, 176415, Note_on_c, 9, 51, 0
1, 176535, Note_on_c, 9, 40, 113
1, 176579, Note_on_c, 9, 40, 0
1, 176639, Note_on_c, 9, 36, 0
1, 176640, Note_on_c, 9, 53, 71
1, 176640, Note_on_c, 9, 36, 111
1, 176879, Note_on_c, 9, 53, 0
1, 176895, Note_on_c, 9, 40, 115
1, 176895, Note_on_c, 9, 51, 95
1, 176899, Note_on_c, 9, 51, 0
1, 176954, Note_on_c, 9, 40, 0
1, 177119, Note_on_c, 9, 36, 0
1, 177135, Note_on_c, 9, 53, 66
1, 177179, Note_on_c, 9, 53, 0
1, 177240, Note_on_c, 9, 40, 113
1, 177299, Note_on_c, 9, 40, 0
1, 177345, Note_on_c, 9, 51, 89
1, 177345, Note_on_c, 9, 51, 0
1, 177360, Note_on_c, 9, 36, 101
1, 177495, Note_on_c, 9, 40, 54
1, 177539, Note_on_c, 9, 40, 0
1, 177599, Note_on_c, 9, 36, 0
1, 177600, Note_on_c, 9, 53, 63
1, 177614, Note_on_c, 9, 53, 0
1, 177615, Note_on_c, 9, 40, 107
1, 177735, Note_on_c, 9, 36, 113
1, 177779, Note_on_c, 9, 36, 0
1, 177794, Note_on_c, 9, 40, 0
1, 177825, Note_on_c, 9, 51, 89
1, 177825, Note_on_c, 9, 51, 0
1, 177840, Note_on_c, 9, 36, 111
1, 177975, Note_on_c, 9, 40, 69
1, 178019, Note_on_c, 9, 40, 0
1, 178079, Note_on_c, 9, 36, 0
1, 178080, Note_on_c, 9, 53, 81
1, 178094, Note_on_c, 9, 53, 0
1, 178095, Note_on_c, 9, 40, 103
1, 178139, Note_on_c, 9, 40, 0
1, 178215, Note_on_c, 9, 40, 121
1, 178259, Note_on_c, 9, 40, 0
1, 178320, Note_on_c, 9, 51, 87
1, 178320, Note_on_c, 9, 36, 117
1, 178326, Note_on_c, 9, 51, 0
1, 178559, Note_on_c, 9, 36, 0
1, 178560, Note_on_c, 9, 53, 74
1, 178799, Note_on_c, 9, 53, 0
1, 178815, Note_on_c, 9, 40, 117
1, 178815, Note_on_c, 9, 51, 87
1, 178819, Note_on_c, 9, 51, 0
1, 178874, Note_on_c, 9, 40, 0
1, 179040, Note_on_c, 9, 53, 71
1, 179040, Note_on_c, 9, 36, 109
1, 179279, Note_on_c, 9, 53, 0
1, 179280, Note_on_c, 9, 51, 92
1, 179286, Note_on_c, 9, 51, 0
1, 179519, Note_on_c, 9, 36, 0
1, 179520, Note_on_c, 9, 53, 85
1, 179520, Note_on_c, 9, 36, 103
1, 179759, Note_on_c, 9, 53, 0
1, 179775, Note_on_c, 9, 40, 111
1, 179775, Note_on_c, 9, 51, 103
1, 179779, Note_on_c, 9, 51, 0
1, 179834, Note_on_c, 9, 40, 0
1, 179999, Note_on_c, 9, 36, 0
1, 180000, Note_on_c, 9, 53, 72
1, 180239, Note_on_c, 9, 53, 0
1, 180255, Note_on_c, 9, 51, 95
1, 180260, Note_on_c, 9, 51, 0
1, 180480, Note_on_c, 9, 53, 81
1, 180480, Note_on_c, 9, 36, 113
1, 180719, Note_on_c, 9, 53, 0
1, 180735, Note_on_c, 9, 40, 117
1, 180735, Note_on_c, 9, 51, 95
1, 180739, Note_on_c, 9, 51, 0
1, 180794, Note_on_c, 9, 40, 0
1, 180959, Note_on_c, 9, 36, 0
1, 180960, Note_on_c, 9, 53, 73
1, 180960, Note_on_c, 9, 36, 105
1, 181199, Note_on_c, 9, 53, 0
1, 181215, Note_on_c, 9, 51, 86
1, 181220, Note_on_c, 9, 51, 0
1, 181439, Note_on_c, 9, 36, 0
1, 181440, Note_on_c, 9, 53, 75
1, 181455, Note_on_c, 9, 43, 71
1, 181499, Note_on_c, 9, 43, 0
1, 181575, Note_on_c, 9, 43, 107
1, 181619, Note_on_c, 9, 43, 0
1, 181679, Note_on_c, 9, 53, 0
1, 181695, Note_on_c, 9, 40, 105
1, 181695, Note_on_c, 9, 51, 95
1, 181699, Note_on_c, 9, 51, 0
1, 181754, Note_on_c, 9, 40, 0
1, 181920, Note_on_c, 9, 53, 87
1, 181920, Note_on_c, 9, 36, 113
1, 182159, Note_on_c, 9, 53, 0
1, 182159, Note_on_c, 9, 36, 0
1, 182160, Note_on_c, 9, 36, 115
1, 182175, Note_on_c, 9, 51, 86
1, 182180, Note_on_c, 9, 51, 0
1, 182399, Note_on_c, 9, 36, 0
1, 182400, Note_on_c, 9, 53, 76
1, 182639, Note_on_c, 9, 53, 0
1, 182640, Note_on_c, 9, 51, 90
1, 182640, Note_on_c, 9, 51, 0
1, 182660, Note_on_c, 9, 40, 121
1, 182699, Note_on_c, 9, 40, 0
1, 182880, Note_on_c, 9, 53, 64
1, 182880, Note_on_c, 9, 36, 103
1, 183119, Note_on_c, 9, 53, 0
1, 183135, Note_on_c, 9, 51, 89
1, 183140, Note_on_c, 9, 51, 0
1, 183359, Note_on_c, 9, 36, 0
1, 183360, Note_on_c, 9, 53, 86
1, 183360, Note_on_c, 9, 36, 103
1, 183599, Note_on_c, 9, 53, 0
1, 183615, Note_on_c, 9, 40, 111
1, 183615, Note_on_c, 9, 51, 82
1, 183619, Note_on_c, 9, 51, 0
1, 183674, Note_on_c, 9, 40, 0
1, 183839, Note_on_c, 9, 36, 0
1, 183840, Note_on_c, 9, 53, 76
1, 183840, Note_on_c, 9, 36, 101
1, 184079, Note_on_c, 9, 53, 0
1, 184095, Note_on_c, 9, 51, 69
1, 184095, Note_on_c, 9, 51, 0
1, 184215, Note_on_c, 9, 40, 115
1, 184259, Note_on_c, 9, 40, 0
1, 184319, Note_on_c, 9, 36, 0
1, 184320, Note_on_c, 9, 53, 66
1, 184320, Note_on_c, 9, 36, 109
1, 184559, Note_on_c, 9, 53, 0
1, 184560, Note_on_c, 9, 51, 90
1, 184560, Note_on_c, 9, 51, 0
1, 184580, Note_on_c, 9, 40, 115
1, 184619, Note_on_c, 9, 40, 0
1, 184799, Note_on_c, 9, 36, 0
1, 184800, Note_on_c, 9, 53, 73
1, 184919, Note_on_c, 9, 53, 0
1, 184935, Note_on_c, 9, 40, 115
1, 184979, Note_on_c, 9, 40, 0
1, 185040, Note_on_c, 9, 51, 82
1, 185040, Note_on_c, 9, 36, 107
1, 185042, Note_on_c, 9, 51, 0
1, 185175, Note_on_c, 9, 40, 67
1, 185219, Note_on_c, 9, 40, 0
1, 185279, Note_on_c, 9, 36, 0
1, 185280, Note_on_c, 9, 53, 69
1, 185299, Note_on_c, 9, 53, 0
1, 185300, Note_on_c, 9, 40, 113
1, 185339, Note_on_c, 9, 40, 0
1, 185415, Note_on_c, 9, 36, 89
1, 185459, Note_on_c, 9, 36, 0
1, 185520, Note_on_c, 9, 36, 107
1, 185535, Note_on_c, 9, 51, 87
1, 185535, Note_on_c, 9, 51, 0
1, 185655, Note_on_c, 9, 40, 75
1, 185699, Note_on_c, 9, 40, 0
1, 185759, Note_on_c, 9, 36, 0
1, 185760, Note_on_c, 9, 53, 82
1, 185774, Note_on_c, 9, 53, 0
1, 185775, Note_on_c, 9, 40, 95
1, 185819, Note_on_c, 9, 40, 0
1, 185895, Note_on_c, 9, 40, 121
1, 185939, Note_on_c, 9, 40, 0
1, 186000, Note_on_c, 9, 51, 83
1, 186000, Note_on_c, 9, 36, 119
1, 186006, Note_on_c, 9, 51, 0
1, 186239, Note_on_c, 9, 36, 0
1, 186240, Note_on_c, 9, 53, 81
1, 186479, Note_on_c, 9, 53, 0
1, 186495, Note_on_c, 9, 40, 117
1, 186495, Note_on_c, 9, 51, 87
1, 186499, Note_on_c, 9, 51, 0
1, 186554, Note_on_c, 9, 40, 0
1, 186720, Note_on_c, 9, 53, 76
1, 186720, Note_on_c, 9, 36, 105
1, 186959, Note_on_c, 9, 53, 0
1, 186975, Note_on_c, 9, 51, 89
1, 186980, Note_on_c, 9, 51, 0
1, 187199, Note_on_c, 9, 36, 0
1, 187200, Note_on_c, 9, 53, 76
1, 187200, Note_on_c, 9, 36, 103
1, 187439, Note_on_c, 9, 53, 0
1, 187455, Note_on_c, 9, 40, 115
1, 187455, Note_on_c, 9, 51, 93
1, 187459, Note_on_c, 9, 51, 0
1, 187514, Note_on_c, 9, 40, 0
1, 187679, Note_on_c, 9, 36, 0
1, 187680, Note_on_c, 9, 53, 74
1, 187680, Note_on_c, 9, 36, 105
1, 187919, Note_on_c, 9, 53, 0
1, 187950, Note_on_c, 9, 51, 95
1, 187951, Note_on_c, 9, 51, 0
1, 188159, Note_on_c, 9, 36, 0
1, 188160, Note_on_c, 9, 53, 69
1, 188160, Note_on_c, 9, 36, 103
1, 188399, Note_on_c, 9, 53, 0
1, 188415, Note_on_c, 9, 40, 111
1, 188415, Note_on_c, 9, 51, 103
1, 188419, Note_on_c, 9, 51, 0
1, 188474, Note_on_c, 9, 40, 0
1, 188639, Note_on_c, 9, 36, 0
1, 188640, Note_on_c, 9, 53, 80
1, 188640, Note_on_c, 9, 36, 95
1, 188879, Note_on_c, 9, 53, 0
1, 188880, Note_on_c, 9, 40, 115
1, 189119, Note_on_c, 9, 36, 0
1, 189119, Note_on_c, 9, 40, 0
1, 189255, Note_on_c, 9, 40, 95
1, 189299, Note_on_c, 9, 40, 0
1, 189360, Note_on_c, 9, 40, 119
1, 189599, Note_on_c, 9, 40, 0
1, 189600, Note_on_c, 9, 40, 121
1, 189839, Note_on_c, 9, 40, 0
1, 189840, Note_on_c, 9, 36, 105
1, 189855, Note_on_c, 9, 49, 111
1, 189860, Note_on_c, 9, 49, 0
1, 190079, Note_on_c, 9, 36, 0
1, 190080, Note_on_c, 9, 36, 107
1, 190335, Note_on_c, 9, 40, 113
1, 190349, Note_on_c, 9, 40, 0
1, 190350, Note_on_c, 9, 42, 113
1, 190351, Note_on_c, 9, 42, 0
1, 190559, Note_on_c, 9, 36, 0
1, 190575, Note_on_c, 9, 44, 107
1, 190575, Note_on_c, 9, 44, 0
1, 190695, Note_on_c, 9, 36, 71
1, 190739, Note_on_c, 9, 36, 0
1, 190800, Note_on_c, 9, 36, 113
1, 190815, Note_on_c, 9, 42, 95
1, 190820, Note_on_c, 9, 42, 0
1, 191039, Note_on_c, 9, 36, 0
1, 191040, Note_on_c, 9, 44, 95
1, 191054, Note_on_c, 9, 44, 0
1, 191295, Note_on_c, 9, 40, 111
1, 191295, Note_on_c, 9, 42, 93
1, 191299, Note_on_c, 9, 42, 0
1, 191354, Note_on_c, 9, 40, 0
1, 191520, Note_on_c, 9, 44, 105
1, 191526, Note_on_c, 9, 44, 0
1, 191760, Note_on_c, 9, 42, 90
1, 191760, Note_on_c, 9, 36, 113
1, 191766, Note_on_c, 9, 42, 0
1, 191999, Note_on_c, 9, 36, 0
1, 192000, Note_on_c, 9, 44, 93
1, 192014, Note_on_c, 9, 44, 0
1, 192240, Note_on_c, 9, 42, 86
1, 192240, Note_on_c, 9, 42, 0
1, 192260, Note_on_c, 9, 40, 113
1, 192299, Note_on_c, 9, 40, 0
1, 192600, Note_on_c, 9, 44, 74
1, 192602, Note_on_c, 9, 44, 0
1, 192720, Note_on_c, 9, 42, 103
1, 192720, Note_on_c, 9, 36, 111
1, 192726, Note_on_c, 9, 42, 0
1, 192959, Note_on_c, 9, 36, 0
1, 192975, Note_on_c, 9, 44, 90
1, 192980, Note_on_c, 9, 44, 0
1, 193215, Note_on_c, 9, 40, 113
1, 193215, Note_on_c, 9, 42, 99
1, 193219, Note_on_c, 9, 42, 0
1, 193274, Note_on_c, 9, 40, 0
1, 193455, Note_on_c, 9, 44, 47
1, 193455, Note_on_c, 9, 44, 0
1, 193560, Note_on_c, 9, 44, 86
1, 193560, Note_on_c, 9, 44, 0
1, 193575, Note_on_c, 9, 36, 64
1, 193619, Note_on_c, 9, 36, 0
1, 193680, Note_on_c, 9, 42, 97
1, 193680, Note_on_c, 9, 36, 107
1, 193686, Note_on_c, 9, 42, 0
1, 193919, Note_on_c, 9, 36, 0
1, 193935, Note_on_c, 9, 44, 89
1, 193940, Note_on_c, 9, 44, 0
1, 194175, Note_on_c, 9, 40, 111
1, 194175, Note_on_c, 9, 42, 81
1, 194179, Note_on_c, 9, 42, 0
1, 194234, Note_on_c, 9, 40, 0
1, 194520, Note_on_c, 9, 44, 78
1, 194522, Note_on_c, 9, 44, 0
1, 194640, Note_on_c, 9, 42, 97
1, 194640, Note_on_c, 9, 36, 87
1, 194642, Note_on_c, 9, 42, 0
1, 194775, Note_on_c, 9, 40, 74
1, 194819, Note_on_c, 9, 40, 0
1, 194879, Note_on_c, 9, 36, 0
1, 194895, Note_on_c, 9, 40, 67
1, 194895, Note_on_c, 9, 44, 93
1, 194900, Note_on_c, 9, 44, 0
1, 194939, Note_on_c, 9, 40, 0
1, 195015, Note_on_c, 9, 40, 93
1, 195059, Note_on_c, 9, 40, 0
1, 195135, Note_on_c, 9, 40, 90
1, 195135, Note_on_c, 9, 42, 99
1, 195135, Note_on_c, 9, 42, 0
1, 195179, Note_on_c, 9, 40, 0
1, 195255, Note_on_c, 9, 40, 105
1, 195299, Note_on_c, 9, 40, 0
1, 195360, Note_on_c, 9, 40, 109
1, 195360, Note_on_c, 9, 44, 101
1, 195360, Note_on_c, 9, 44, 0
1, 195380, Note_on_c, 9, 36, 113
1, 195419, Note_on_c, 9, 36, 0
1, 195599, Note_on_c, 9, 40, 0
1, 195615, Note_on_c, 9, 42, 103
1, 195620, Note_on_c, 9, 42, 0
1, 195855, Note_on_c, 9, 44, 93
1, 195855, Note_on_c, 9, 44, 0
1, 195855, Note_on_c, 9, 36, 107
1, 195914, Note_on_c, 9, 36, 0
1, 195915, Note_on_c, 9, 44, 93
1, 195918, Note_on_c, 9, 44, 0
1, 196095, Note_on_c, 9, 40, 119
1, 196109, Note_on_c, 9, 40, 0
1, 196110, Note_on_c, 9, 42, 87
1, 196111, Note_on_c, 9, 42, 0
1, 196320, Note_on_c, 9, 44, 70
1, 196322, Note_on_c, 9, 44, 0
1, 196440, Note_on_c, 9, 44, 60
1, 196450, Note_on_c, 9, 44, 0
1, 196560, Note_on_c, 9, 42, 101
1, 196566, Note_on_c, 9, 42, 0
1, 196800, Note_on_c, 9, 44, 99
1, 196800, Note_on_c, 9, 44, 0
1, 196820, Note_on_c, 9, 36, 105
1, 196859, Note_on_c, 9, 36, 0
1, 197070, Note_on_c, 9, 40, 113
1, 197070, Note_on_c, 9, 42, 99
1, 197070, Note_on_c, 9, 42, 0
1, 197129, Note_on_c, 9, 40, 0
1, 197310, Note_on_c, 9, 44, 64
1, 197311, Note_on_c, 9, 44, 0
1, 197430, Note_on_c, 9, 44, 80
1, 197431, Note_on_c, 9, 44, 0
1, 197520, Note_on_c, 9, 42, 95
1, 197520, Note_on_c, 9, 36, 107
1, 197526, Note_on_c, 9, 42, 0
1, 197759, Note_on_c, 9, 36, 0
1, 197760, Note_on_c, 9, 44, 87
1, 197774, Note_on_c, 9, 44, 0
1, 198015, Note_on_c, 9, 40, 115
1, 198015, Note_on_c, 9, 42, 90
1, 198019, Note_on_c, 9, 42, 0
1, 198074, Note_on_c, 9, 40, 0
1, 198255, Note_on_c, 9, 44, 92
1, 198260, Note_on_c, 9, 44, 0
1, 198480, Note_on_c, 9, 42, 93
1, 198480, Note_on_c, 9, 36, 82
1, 198486, Note_on_c, 9, 42, 0
1, 198719, Note_on_c, 9, 36, 0
1, 198720, Note_on_c, 9, 44, 80
1, 198720, Note_on_c, 9, 44, 0
1, 198740, Note_on_c, 9, 36, 103
1, 198779, Note_on_c, 9, 36, 0
1, 198975, Note_on_c, 9, 40, 115
1, 198975, Note_on_c, 9, 42, 92
1, 198979, Note_on_c, 9, 42, 0
1, 199034, Note_on_c, 9, 40, 0
1, 199215, Note_on_c, 9, 44, 95
1, 199215, Note_on_c, 9, 44, 0
1, 199215, Note_on_c, 9, 36, 81
1, 199274, Note_on_c, 9, 36, 0
1, 199275, Note_on_c, 9, 44, 95
1, 199278, Note_on_c, 9, 44, 0
1, 199440, Note_on_c, 9, 36, 117
1, 199455, Note_on_c, 9, 42, 89
1, 199460, Note_on_c, 9, 42, 0
1, 199679, Note_on_c, 9, 36, 0
1, 199695, Note_on_c, 9, 44, 99
1, 199700, Note_on_c, 9, 44, 0
1, 199935, Note_on_c, 9, 40, 111
1, 199935, Note_on_c, 9, 42, 101
1, 199939, Note_on_c, 9, 42, 0
1, 199994, Note_on_c, 9, 40, 0
1, 200265, Note_on_c, 9, 44, 65
1, 200265, Note_on_c, 9, 44, 0
1, 200280, Note_on_c, 9, 36, 71
1, 200399, Note_on_c, 9, 36, 0
1, 200400, Note_on_c, 9, 42, 101
1, 200400, Note_on_c, 9, 36, 105
1, 200406, Note_on_c, 9, 42, 0
1, 200639, Note_on_c, 9, 36, 0
1, 200655, Note_on_c, 9, 44, 90
1, 200655, Note_on_c, 9, 44, 0
1, 200655, Note_on_c, 9, 36, 107
1, 200714, Note_on_c, 9, 36, 0
1, 200715, Note_on_c, 9, 44, 90
1, 200718, Note_on_c, 9, 44, 0
1, 200895, Note_on_c, 9, 40, 111
1, 200895, Note_on_c, 9, 42, 92
1, 200899, Note_on_c, 9, 42, 0
1, 200954, Note_on_c, 9, 40, 0
1, 201135, Note_on_c, 9, 44, 93
1, 201135, Note_on_c, 9, 44, 0
1, 201135, Note_on_c, 9, 36, 86
1, 201194, Note_on_c, 9, 36, 0
1, 201195, Note_on_c, 9, 44, 93
1, 201198, Note_on_c, 9, 44, 0
1, 201360, Note_on_c, 9, 36, 109
1, 201375, Note_on_c, 9, 42, 90
1, 201380, Note_on_c, 9, 42, 0
1, 201599, Note_on_c, 9, 36, 0
1, 201600, Note_on_c, 9, 44, 95
1, 201614, Note_on_c, 9, 44, 0
1, 201840, Note_on_c, 9, 42, 95
1, 201840, Note_on_c, 9, 42, 0
1, 201860, Note_on_c, 9, 40, 115
1, 201899, Note_on_c, 9, 40, 0
1, 202095, Note_on_c, 9, 44, 45
1, 202095, Note_on_c, 9, 44, 0
1, 202200, Note_on_c, 9, 44, 93
1, 202200, Note_on_c, 9, 44, 0
1, 202215, Note_on_c, 9, 36, 87
1, 202259, Note_on_c, 9, 36, 0
1, 202320, Note_on_c, 9, 36, 101
1, 202335, Note_on_c, 9, 42, 105
1, 202340, Note_on_c, 9, 42, 0
1, 202559, Note_on_c, 9, 36, 0
1, 202560, Note_on_c, 9, 44, 82
1, 202574, Note_on_c, 9, 44, 0
1, 202575, Note_on_c, 9, 40, 62
1, 202619, Note_on_c, 9, 40, 0
1, 202695, Note_on_c, 9, 40, 90
1, 202739, Note_on_c, 9, 40, 0
1, 202815, Note_on_c, 9, 40, 97
1, 202815, Note_on_c, 9, 42, 93
1, 202815, Note_on_c, 9, 42, 0
1, 202859, Note_on_c, 9, 40, 0
1, 202935, Note_on_c, 9, 40, 105
1, 202979, Note_on_c, 9, 40, 0
1, 203040, Note_on_c, 9, 40, 117
1, 203040, Note_on_c, 9, 44, 90
1, 203040, Note_on_c, 9, 44, 0
1, 203060, Note_on_c, 9, 36, 113
1, 203099, Note_on_c, 9, 36, 0
1, 203279, Note_on_c, 9, 40, 0
1, 203295, Note_on_c, 9, 42, 95
1, 203300, Note_on_c, 9, 42, 0
1, 203535, Note_on_c, 9, 44, 87
1, 203535, Note_on_c, 9, 44, 0
1, 203535, Note_on_c, 9, 36, 113
1, 203594, Note_on_c, 9, 36, 0
1, 203595, Note_on_c, 9, 44, 87
1, 203598, Note_on_c, 9, 44, 0
1, 203775, Note_on_c, 9, 40, 115
1, 203775, Note_on_c, 9, 42, 101
1, 203779, Note_on_c, 9, 42, 0
1, 203834, Note_on_c, 9, 40, 0
1, 204000, Note_on_c, 9, 44, 51
1, 204002, Note_on_c, 9, 44, 0
1, 204120, Note_on_c, 9, 44, 92
1, 204130, Note_on_c, 9, 44, 0
1, 204255, Note_on_c, 9, 42, 103
1, 204260, Note_on_c, 9, 42, 0
1, 204480, Note_on_c, 9, 36, 103
1, 204494, Note_on_c, 9, 36, 0
1, 204495, Note_on_c, 9, 44, 89
1, 204500, Note_on_c, 9, 44, 0
1, 204720, Note_on_c, 9, 42, 101
1, 204720, Note_on_c, 9, 42, 0
1, 204740, Note_on_c, 9, 40, 115
1, 204779, Note_on_c, 9, 40, 0
1, 204975, Note_on_c, 9, 44, 74
1, 204975, Note_on_c, 9, 44, 0
1, 205080, Note_on_c, 9, 44, 93
1, 205082, Note_on_c, 9, 44, 0
1, 205200, Note_on_c, 9, 42, 99
1, 205200, Note_on_c, 9, 42, 0
1, 205200, Note_on_c, 9, 36, 109
1, 205215, Note_on_c, 9, 42, 85
1, 205220, Note_on_c, 9, 42, 0
1, 205439, Note_on_c, 9, 36, 0
1, 205455, Note_on_c, 9, 44, 77
1, 205455, Note_on_c, 9, 44, 0
1, 205455, Note_on_c, 9, 36, 105
1, 205514, Note_on_c, 9, 36, 0
1, 205515, Note_on_c, 9, 44, 77
1, 205518, Note_on_c, 9, 44, 0
1, 205695, Note_on_c, 9, 40, 113
1, 205695, Note_on_c, 9, 42, 87
1, 205699, Note_on_c, 9, 42, 0
1, 205754, Note_on_c, 9, 40, 0
1, 205935, Note_on_c, 9, 44, 71
1, 205935, Note_on_c, 9, 44, 0
1, 205935, Note_on_c, 9, 36, 78
1, 205979, Note_on_c, 9, 36, 0
1, 206055, Note_on_c, 9, 44, 90
1, 206055, Note_on_c, 9, 44, 0
1, 206160, Note_on_c, 9, 36, 103
1, 206175, Note_on_c, 9, 42, 107
1, 206180, Note_on_c, 9, 42, 0
1, 206399, Note_on_c, 9, 36, 0
1, 206415, Note_on_c, 9, 44, 87
1, 206415, Note_on_c, 9, 44, 0
1, 206415, Note_on_c, 9, 36, 90
1, 206474, Note_on_c, 9, 36, 0
1, 206475, Note_on_c, 9, 44, 87
1, 206478, Note_on_c, 9, 44, 0
1, 206655, Note_on_c, 9, 40, 99
1, 206655, Note_on_c, 9, 42, 99
1, 206659, Note_on_c, 9, 42, 0
1, 206714, Note_on_c, 9, 40, 0
1, 206895, Note_on_c, 9, 40, 95
1, 206895, Note_on_c, 9, 44, 101
1, 206900, Note_on_c, 9, 44, 0
1, 206939, Note_on_c, 9, 40, 0
1, 207015, Note_on_c, 9, 40, 105
1, 207059, Note_on_c, 9, 40, 0
1, 207120, Note_on_c, 9, 36, 119
1, 207135, Note_on_c, 9, 40, 117
1, 207135, Note_on_c, 9, 49, 121
1, 207139, Note_on_c, 9, 49, 0
1, 207194, Note_on_c, 9, 40, 0
1, 207359, Note_on_c, 9, 36, 0
1, 208800, Note_on_c, 9, 45, 56
1, 208919, Note_on_c, 9, 45, 0
1, 208920, Note_on_c, 9, 45, 93
1, 209039, Note_on_c, 9, 45, 0
1, 209040, Note_on_c, 9, 45, 125
1, 209279, Note_on_c, 9, 45, 0
1, 209775, Note_on_c, 9, 45, 64
1, 209819, Note_on_c, 9, 45, 0
1, 209895, Note_on_c, 9, 45, 99
1, 209939, Note_on_c, 9, 45, 0
1, 210000, Note_on_c, 9, 45, 123
1, 210239, Note_on_c, 9, 45, 0
1, 210735, Note_on_c, 9, 45, 40
1, 210779, Note_on_c, 9, 45, 0
1, 210855, Note_on_c, 9, 45, 95
1, 210899, Note_on_c, 9, 45, 0
1, 210960, Note_on_c, 9, 45, 123
1, 211199, Note_on_c, 9, 45, 0
1, 211440, Note_on_c, 9, 45, 115
1, 211679, Note_on_c, 9, 45, 0
1, 211920, Note_on_c, 9, 45, 115
1, 212159, Note_on_c, 9, 45, 0
1, 212400, Note_on_c, 9, 36, 111
1, 212430, Note_on_c, 9, 49, 127
1, 212431, Note_on_c, 9, 49, 0
1, 212639, Note_on_c, 9, 36, 0
1, 212895, Note_on_c, 9, 44, 92
1, 212895, Note_on_c, 9, 44, 0
1, 212910, Note_on_c, 9, 36, 99
1, 212969, Note_on_c, 9, 36, 0
1, 213135, Note_on_c, 9, 40, 121
1, 213135, Note_on_c, 9, 42, 117
1, 213139, Note_on_c, 9, 42, 0
1, 213194, Note_on_c, 9, 40, 0
1, 213375, Note_on_c, 9, 44, 119
1, 213380, Note_on_c, 9, 44, 0
1, 213600, Note_on_c, 9, 42, 117
1, 213600, Note_on_c, 9, 36, 97
1, 213614, Note_on_c, 9, 42, 0
1, 213839, Note_on_c, 9, 36, 0
1, 213840, Note_on_c, 9, 36, 97
1, 213854, Note_on_c, 9, 36, 0
1, 213855, Note_on_c, 9, 44, 115
1, 213860, Note_on_c, 9, 44, 0
1, 214095, Note_on_c, 9, 40, 121
1, 214095, Note_on_c, 9, 42, 117
1, 214099, Note_on_c, 9, 42, 0
1, 214154, Note_on_c, 9, 40, 0
1, 214335, Note_on_c, 9, 44, 119
1, 214340, Note_on_c, 9, 44, 0
1, 214560, Note_on_c, 9, 36, 97
1, 214575, Note_on_c, 9, 49, 127
1, 214580, Note_on_c, 9, 49, 0
1, 214815, Note_on_c, 9, 40, 53
1, 214859, Note_on_c, 9, 40, 0
1, 214935, Note_on_c, 9, 40, 95
1, 214979, Note_on_c, 9, 40, 0
1, 215039, Note_on_c, 9, 36, 0
1, 215040, Note_on_c, 9, 40, 119
1, 215279, Note_on_c, 9, 40, 0
1, 215295, Note_on_c, 9, 45, 52
1, 215339, Note_on_c, 9, 45, 0
1, 215415, Note_on_c, 9, 45, 101
1, 215459, Note_on_c, 9, 45, 0
1, 215520, Note_on_c, 9, 45, 121
1, 215760, Note_on_c, 9, 43, 105
1, 215999, Note_on_c, 9, 45, 0
1, 215999, Note_on_c, 9, 43, 0
1, 216000, Note_on_c, 9, 49, 119
1, 216000, Note_on_c, 9, 43, 119
1, 216014, Note_on_c, 9, 49, 0
1, 216239, Note_on_c, 9, 43, 0
1, 216240, Note_on_c, 9, 36, 119
1, 216479, Note_on_c, 9, 36, 0
1, 216480, Note_on_c, 9, 49, 126
1, 216480, Note_on_c, 9, 36, 115
1, 216494, Note_on_c, 9, 49, 0
1, 216959, Note_on_c, 9, 36, 0
1, 216960, Note_on_c, 9, 40, 117
1, 216960, Note_on_c, 9, 42, 117
1, 216974, Note_on_c, 9, 42, 0
1, 217215, Note_on_c, 9, 44, 107
1, 217220, Note_on_c, 9, 44, 0
1, 217439, Note_on_c, 9, 40, 0
1, 217470, Note_on_c, 9, 42, 111
1, 217470, Note_on_c, 9, 36, 111
1, 217482, Note_on_c, 9, 42, 0
1, 217529, Note_on_c, 9, 36, 0
1, 217695, Note_on_c, 9, 44, 111
1, 217695, Note_on_c, 9, 44, 0
1, 217695, Note_on_c, 9, 36, 115
1, 217754, Note_on_c, 9, 36, 0
1, 217755, Note_on_c, 9, 44, 111
1, 217758, Note_on_c, 9, 44, 0
1, 217920, Note_on_c, 9, 42, 109
1, 217920, Note_on_c, 9, 42, 0
1, 217940, Note_on_c, 9, 40, 121
1, 217979, Note_on_c, 9, 40, 0
1, 218190, Note_on_c, 9, 44, 113
1, 218191, Note_on_c, 9, 44, 0
1, 218310, Note_on_c, 9, 36, 99
1, 218369, Note_on_c, 9, 36, 0
1, 218400, Note_on_c, 9, 36, 111
1, 218430, Note_on_c, 9, 42, 111
1, 218431, Note_on_c, 9, 42, 0
1, 218639, Note_on_c, 9, 36, 0
1, 218655, Note_on_c, 9, 44, 107
1, 218660, Note_on_c, 9, 44, 0
1, 218670, Note_on_c, 9, 40, 121
1, 218729, Note_on_c, 9, 40, 0
1, 218880, Note_on_c, 9, 42, 115
1, 218882, Note_on_c, 9, 42, 0
1, 219000, Note_on_c, 9, 40, 117
1, 219120, Note_on_c, 9, 44, 113
1, 219120, Note_on_c, 9, 36, 111
1, 219126, Note_on_c, 9, 44, 0
1, 219359, Note_on_c, 9, 40, 0
1, 219359, Note_on_c, 9, 36, 0
1, 219360, Note_on_c, 9, 42, 109
1, 219360, Note_on_c, 9, 36, 109
1, 219366, Note_on_c, 9, 42, 0
1, 219599, Note_on_c, 9, 36, 0
1, 219600, Note_on_c, 9, 40, 90
1, 219600, Note_on_c, 9, 44, 101
1, 219602, Note_on_c, 9, 44, 0
1, 219735, Note_on_c, 9, 36, 109
1, 219779, Note_on_c, 9, 36, 0
1, 219839, Note_on_c, 9, 40, 0
1, 219840, Note_on_c, 9, 40, 113
1, 219840, Note_on_c, 9, 42, 109
1, 219846, Note_on_c, 9, 42, 0
1, 219960, Note_on_c, 9, 36, 99
1, 220079, Note_on_c, 9, 40, 0
1, 220079, Note_on_c, 9, 36, 0
1, 220080, Note_on_c, 9, 40, 117
1, 220080, Note_on_c, 9, 44, 115
1, 220086, Note_on_c, 9, 44, 0
1, 220319, Note_on_c, 9, 40, 0
1, 220320, Note_on_c, 9, 42, 109
1, 220320, Note_on_c, 9, 36, 113
1, 220334, Note_on_c, 9, 42, 0
1, 220559, Note_on_c, 9, 36, 0
1, 220560, Note_on_c, 9, 44, 70
1, 220560, Note_on_c, 9, 36, 111
1, 220566, Note_on_c, 9, 44, 0
1, 220799, Note_on_c, 9, 36, 0
1, 220800, Note_on_c, 9, 40, 117
1, 220800, Note_on_c, 9, 42, 109
1, 220814, Note_on_c, 9, 42, 0
1, 221040, Note_on_c, 9, 44, 90
1, 221042, Note_on_c, 9, 44, 0
1, 221160, Note_on_c, 9, 36, 109
1, 221279, Note_on_c, 9, 40, 0
1, 221279, Note_on_c, 9, 36, 0
1, 221280, Note_on_c, 9, 42, 109
1, 221280, Note_on_c, 9, 36, 105
1, 221294, Note_on_c, 9, 42, 0
1, 221519, Note_on_c, 9, 36, 0
1, 221520, Note_on_c, 9, 44, 103
1, 221520, Note_on_c, 9, 36, 111
1, 221526, Note_on_c, 9, 44, 0
1, 221759, Note_on_c, 9, 36, 0
1, 221760, Note_on_c, 9, 40, 117
1, 221760, Note_on_c, 9, 42, 109
1, 221774, Note_on_c, 9, 42, 0
1, 222015, Note_on_c, 9, 44, 107
1, 222015, Note_on_c, 9, 44, 0
1, 222150, Note_on_c, 9, 36, 99
1, 222209, Note_on_c, 9, 36, 0
1, 222239, Note_on_c, 9, 40, 0
1, 222270, Note_on_c, 9, 42, 109
1, 222270, Note_on_c, 9, 36, 111
1, 222282, Note_on_c, 9, 42, 0
1, 222329, Note_on_c, 9, 36, 0
1, 222495, Note_on_c, 9, 44, 101
1, 222495, Note_on_c, 9, 44, 0
1, 222495, Note_on_c, 9, 36, 115
1, 222554, Note_on_c, 9, 36, 0
1, 222555, Note_on_c, 9, 44, 101
1, 222558, Note_on_c, 9, 44, 0
1, 222720, Note_on_c, 9, 40, 115
1, 222720, Note_on_c, 9, 42, 107
1, 222734, Note_on_c, 9, 42, 0
1, 222960, Note_on_c, 9, 44, 97
1, 222966, Note_on_c, 9, 44, 0
1, 223199, Note_on_c, 9, 40, 0
1, 223200, Note_on_c, 9, 42, 111
1, 223200, Note_on_c, 9, 36, 107
1, 223202, Note_on_c, 9, 42, 0
1, 223320, Note_on_c, 9, 40, 105
1, 223439, Note_on_c, 9, 36, 0
1, 223439, Note_on_c, 9, 40, 0
1, 223440, Note_on_c, 9, 40, 109
1, 223440, Note_on_c, 9, 44, 107
1, 223442, Note_on_c, 9, 44, 0
1, 223560, Note_on_c, 9, 36, 105
1, 223679, Note_on_c, 9, 40, 0
1, 223679, Note_on_c, 9, 36, 0
1, 223680, Note_on_c, 9, 40, 121
1, 223680, Note_on_c, 9, 42, 109
1, 223694, Note_on_c, 9, 42, 0
1, 223920, Note_on_c, 9, 36, 115
1, 223934, Note_on_c, 9, 36, 0
1, 223935, Note_on_c, 9, 44, 81
1, 223940, Note_on_c, 9, 44, 0
1, 224159, Note_on_c, 9, 40, 0
1, 224160, Note_on_c, 9, 42, 105
1, 224160, Note_on_c, 9, 36, 115
1, 224174, Note_on_c, 9, 42, 0
1, 224399, Note_on_c, 9, 36, 0
1, 224400, Note_on_c, 9, 44, 76
1, 224400, Note_on_c, 9, 36, 113
1, 224406, Note_on_c, 9, 44, 0
1, 224639, Note_on_c, 9, 36, 0
1, 224640, Note_on_c, 9, 40, 119
1, 224640, Note_on_c, 9, 42, 111
1, 224654, Note_on_c, 9, 42, 0
1, 224895, Note_on_c, 9, 44, 92
1, 224895, Note_on_c, 9, 44, 0
1, 225030, Note_on_c, 9, 36, 103
1, 225089, Note_on_c, 9, 36, 0
1, 225119, Note_on_c, 9, 40, 0
1, 225150, Note_on_c, 9, 42, 111
1, 225150, Note_on_c, 9, 36, 111
1, 225162, Note_on_c, 9, 42, 0
1, 225209, Note_on_c, 9, 36, 0
1, 225375, Note_on_c, 9, 44, 101
1, 225375, Note_on_c, 9, 44, 0
1, 225375, Note_on_c, 9, 36, 105
1, 225434, Note_on_c, 9, 36, 0
1, 225435, Note_on_c, 9, 44, 101
1, 225438, Note_on_c, 9, 44, 0
1, 225600, Note_on_c, 9, 40, 117
1, 225600, Note_on_c, 9, 42, 115
1, 225614, Note_on_c, 9, 42, 0
1, 225840, Note_on_c, 9, 44, 109
1, 225843, Note_on_c, 9, 44, 0
1, 226005, Note_on_c, 9, 36, 101
1, 226019, Note_on_c, 9, 36, 0
1, 226079, Note_on_c, 9, 40, 0
1, 226080, Note_on_c, 9, 36, 111
1, 226125, Note_on_c, 9, 42, 105
1, 226129, Note_on_c, 9, 42, 0
1, 226319, Note_on_c, 9, 36, 0
1, 226350, Note_on_c, 9, 44, 92
1, 226350, Note_on_c, 9, 44, 0
1, 226350, Note_on_c, 9, 36, 107
1, 226409, Note_on_c, 9, 36, 0
1, 226410, Note_on_c, 9, 44, 92
1, 226410, Note_on_c, 9, 44, 0
1, 226575, Note_on_c, 9, 40, 121
1, 226575, Note_on_c, 9, 42, 109
1, 226579, Note_on_c, 9, 42, 0
1, 226634, Note_on_c, 9, 40, 0
1, 226800, Note_on_c, 9, 44, 95
1, 226802, Note_on_c, 9, 44, 0
1, 226920, Note_on_c, 9, 36, 93
1, 227039, Note_on_c, 9, 36, 0
1, 227040, Note_on_c, 9, 42, 107
1, 227040, Note_on_c, 9, 36, 111
1, 227054, Note_on_c, 9, 42, 0
1, 227279, Note_on_c, 9, 36, 0
1, 227280, Note_on_c, 9, 44, 107
1, 227280, Note_on_c, 9, 36, 107
1, 227286, Note_on_c, 9, 44, 0
1, 227519, Note_on_c, 9, 36, 0
1, 227535, Note_on_c, 9, 40, 121
1, 227535, Note_on_c, 9, 42, 105
1, 227539, Note_on_c, 9, 42, 0
1, 227594, Note_on_c, 9, 40, 0
1, 227760, Note_on_c, 9, 44, 107
1, 227762, Note_on_c, 9, 44, 0
1, 227895, Note_on_c, 9, 36, 99
1, 227939, Note_on_c, 9, 36, 0
1, 228000, Note_on_c, 9, 36, 111
1, 228015, Note_on_c, 9, 42, 105
1, 228020, Note_on_c, 9, 42, 0
1, 228239, Note_on_c, 9, 36, 0
1, 228240, Note_on_c, 9, 44, 93
1, 228240, Note_on_c, 9, 44, 0
1, 228260, Note_on_c, 9, 36, 107
1, 228299, Note_on_c, 9, 36, 0
1, 228480, Note_on_c, 9, 40, 115
1, 228480, Note_on_c, 9, 42, 103
1, 228494, Note_on_c, 9, 42, 0
1, 228720, Note_on_c, 9, 44, 95
1, 228722, Note_on_c, 9, 44, 0
1, 228855, Note_on_c, 9, 36, 93
1, 228899, Note_on_c, 9, 36, 0
1, 228959, Note_on_c, 9, 40, 0
1, 228960, Note_on_c, 9, 42, 111
1, 228960, Note_on_c, 9, 36, 111
1, 228974, Note_on_c, 9, 42, 0
1, 229199, Note_on_c, 9, 36, 0
1, 229200, Note_on_c, 9, 44, 93
1, 229200, Note_on_c, 9, 36, 105
1, 229206, Note_on_c, 9, 44, 0
1, 229439, Note_on_c, 9, 36, 0
1, 229440, Note_on_c, 9, 40, 115
1, 229440, Note_on_c, 9, 42, 109
1, 229454, Note_on_c, 9, 42, 0
1, 229695, Note_on_c, 9, 44, 109
1, 229695, Note_on_c, 9, 44, 0
1, 229830, Note_on_c, 9, 36, 97
1, 229889, Note_on_c, 9, 36, 0
1, 229919, Note_on_c, 9, 40, 0
1, 229950, Note_on_c, 9, 42, 97
1, 229950, Note_on_c, 9, 36, 115
1, 229962, Note_on_c, 9, 42, 0
1, 230009, Note_on_c, 9, 36, 0
1, 230175, Note_on_c, 9, 44, 109
1, 230175, Note_on_c, 9, 44, 0
1, 230175, Note_on_c, 9, 36, 115
1, 230234, Note_on_c, 9, 36, 0
1, 230235, Note_on_c, 9, 44, 109
1, 230238, Note_on_c, 9, 44, 0
1, 230400, Note_on_c, 9, 40, 119
1, 230400, Note_on_c, 9, 42, 103
1, 230414, Note_on_c, 9, 42, 0
1, 230520, Note_on_c, 9, 36, 78
1, 230639, Note_on_c, 9, 36, 0
1, 230640, Note_on_c, 9, 44, 107
1, 230640, Note_on_c, 9, 36, 85
1, 230642, Note_on_c, 9, 44, 0
1, 230759, Note_on_c, 9, 36, 0
1, 230760, Note_on_c, 9, 36, 97
1, 230879, Note_on_c, 9, 40, 0
1, 230879, Note_on_c, 9, 36, 0
1, 230880, Note_on_c, 9, 42, 101
1, 230880, Note_on_c, 9, 36, 113
1, 230894, Note_on_c, 9, 42, 0
1, 230999, Note_on_c, 9, 36, 0
1, 231015, Note_on_c, 9, 36, 86
1, 231059, Note_on_c, 9, 36, 0
1, 231135, Note_on_c, 9, 44, 107
1, 231135, Note_on_c, 9, 44, 0
1, 231135, Note_on_c, 9, 36, 78
1, 231179, Note_on_c, 9, 36, 0
1, 231255, Note_on_c, 9, 36, 101
1, 231299, Note_on_c, 9, 36, 0
1, 231360, Note_on_c, 9, 42, 107
1, 231360, Note_on_c, 9, 42, 0
1, 231380, Note_on_c, 9, 40, 121
1, 231419, Note_on_c, 9, 40, 0
1, 231495, Note_on_c, 9, 36, 99
1, 231539, Note_on_c, 9, 36, 0
1, 231600, Note_on_c, 9, 44, 109
1, 231600, Note_on_c, 9, 44, 0
1, 231615, Note_on_c, 9, 36, 95
1, 231659, Note_on_c, 9, 36, 0
1, 231735, Note_on_c, 9, 36, 111
1, 231779, Note_on_c, 9, 36, 0
1, 231840, Note_on_c, 9, 49, 115
1, 231840, Note_on_c, 9, 36, 115
1, 231854, Note_on_c, 9, 49, 0
1, 232079, Note_on_c, 9, 36, 0
1, 232080, Note_on_c, 9, 36, 115
1, 232319, Note_on_c, 9, 36, 0
1, 232320, Note_on_c, 9, 40, 123
1, 232320, Note_on_c, 9, 42, 97
1, 232326, Note_on_c, 9, 42, 0
1, 232559, Note_on_c, 9, 40, 0
1, 232575, Note_on_c, 9, 42, 89
1, 232580, Note_on_c, 9, 42, 0
1, 232800, Note_on_c, 9, 36, 115
1, 232815, Note_on_c, 9, 42, 115
1, 232820, Note_on_c, 9, 42, 0
1, 233039, Note_on_c, 9, 36, 0
1, 233040, Note_on_c, 9, 42, 83
1, 233040, Note_on_c, 9, 36, 117
1, 233046, Note_on_c, 9, 42, 0
1, 233279, Note_on_c, 9, 36, 0
1, 233280, Note_on_c, 9, 40, 119
1, 233280, Note_on_c, 9, 42, 97
1, 233286, Note_on_c, 9, 42, 0
1, 233519, Note_on_c, 9, 40, 0
1, 233535, Note_on_c, 9, 42, 89
1, 233540, Note_on_c, 9, 42, 0
1, 233760, Note_on_c, 9, 36, 113
1, 233775, Note_on_c, 9, 42, 115
1, 233780, Note_on_c, 9, 42, 0
1, 234000, Note_on_c, 9, 40, 121
1, 234014, Note_on_c, 9, 40, 0
1, 234015, Note_on_c, 9, 42, 85
1, 234020, Note_on_c, 9, 42, 0
1, 234119, Note_on_c, 9, 36, 0
1, 234120, Note_on_c, 9, 36, 119
1, 234239, Note_on_c, 9, 36, 0
1, 234240, Note_on_c, 9, 42, 117
1, 234242, Note_on_c, 9, 42, 0
1, 234360, Note_on_c, 9, 40, 117
1, 234479, Note_on_c, 9, 40, 0
1, 234480, Note_on_c, 9, 42, 83
1, 234480, Note_on_c, 9, 36, 113
1, 234486, Note_on_c, 9, 42, 0
1, 234719, Note_on_c, 9, 36, 0
1, 234720, Note_on_c, 9, 40, 117
1, 234720, Note_on_c, 9, 42, 105
1, 234726, Note_on_c, 9, 42, 0
1, 234840, Note_on_c, 9, 36, 117
1, 234959, Note_on_c, 9, 40, 0
1, 234960, Note_on_c, 9, 42, 75
1, 234962, Note_on_c, 9, 42, 0
1, 235080, Note_on_c, 9, 40, 115
1, 235199, Note_on_c, 9, 36, 0
1, 235199, Note_on_c, 9, 40, 0
1, 235200, Note_on_c, 9, 42, 119
1, 235200, Note_on_c, 9, 36, 117
1, 235206, Note_on_c, 9, 42, 0
1, 235439, Note_on_c, 9, 36, 0
1, 235440, Note_on_c, 9, 36, 115
1, 235455, Note_on_c, 9, 40, 121
1, 235455, Note_on_c, 9, 42, 81
1, 235459, Note_on_c, 9, 42, 0
1, 235514, Note_on_c, 9, 40, 0
1, 235679, Note_on_c, 9, 36, 0
1, 235695, Note_on_c, 9, 42, 117
1, 235700, Note_on_c, 9, 42, 0
1, 235710, Note_on_c, 9, 36, 111
1, 235769, Note_on_c, 9, 36, 0
1, 235920, Note_on_c, 9, 36, 115
1, 235935, Note_on_c, 9, 42, 75
1, 235940, Note_on_c, 9, 42, 0
1, 236159, Note_on_c, 9, 36, 0
1, 236160, Note_on_c, 9, 40, 121
1, 236174, Note_on_c, 9, 40, 0
1, 236175, Note_on_c, 9, 42, 117
1, 236180, Note_on_c, 9, 42, 0
1, 236415, Note_on_c, 9, 42, 83
1, 236420, Note_on_c, 9, 42, 0
1, 236640, Note_on_c, 9, 36, 115
1, 236655, Note_on_c, 9, 42, 115
1, 236660, Note_on_c, 9, 42, 0
1, 236879, Note_on_c, 9, 36, 0
1, 236880, Note_on_c, 9, 36, 119
1, 236895, Note_on_c, 9, 42, 92
1, 236900, Note_on_c, 9, 42, 0
1, 237119, Note_on_c, 9, 36, 0
1, 237120, Note_on_c, 9, 40, 115
1, 237134, Note_on_c, 9, 40, 0
1, 237135, Note_on_c, 9, 42, 107
1, 237140, Note_on_c, 9, 42, 0
1, 237375, Note_on_c, 9, 42, 93
1, 237380, Note_on_c, 9, 42, 0
1, 237600, Note_on_c, 9, 36, 121
1, 237615, Note_on_c, 9, 42, 111
1, 237620, Note_on_c, 9, 42, 0
1, 237840, Note_on_c, 9, 40, 113
1, 237840, Note_on_c, 9, 42, 89
1, 237846, Note_on_c, 9, 42, 0
1, 237959, Note_on_c, 9, 36, 0
1, 237975, Note_on_c, 9, 36, 119
1, 238019, Note_on_c, 9, 36, 0
1, 238079, Note_on_c, 9, 40, 0
1, 238080, Note_on_c, 9, 42, 113
1, 238082, Note_on_c, 9, 42, 0
1, 238215, Note_on_c, 9, 40, 113
1, 238259, Note_on_c, 9, 40, 0
1, 238320, Note_on_c, 9, 36, 117
1, 238335, Note_on_c, 9, 42, 89
1, 238340, Note_on_c, 9, 42, 0
1, 238559, Note_on_c, 9, 36, 0
1, 238560, Note_on_c, 9, 40, 115
1, 238574, Note_on_c, 9, 40, 0
1, 238575, Note_on_c, 9, 42, 107
1, 238580, Note_on_c, 9, 42, 0
1, 238680, Note_on_c, 9, 36, 113
1, 238815, Note_on_c, 9, 42, 99
1, 238815, Note_on_c, 9, 42, 0
1, 238920, Note_on_c, 9, 40, 115
1, 239039, Note_on_c, 9, 36, 0
1, 239039, Note_on_c, 9, 40, 0
1, 239040, Note_on_c, 9, 36, 117
1, 239055, Note_on_c, 9, 42, 101
1, 239060, Note_on_c, 9, 42, 0
1, 239279, Note_on_c, 9, 36, 0
1, 239280, Note_on_c, 9, 40, 121
1, 239280, Note_on_c, 9, 36, 117
1, 239294, Note_on_c, 9, 40, 0
1, 239295, Note_on_c, 9, 42, 103
1, 239300, Note_on_c, 9, 42, 0
1, 239519, Note_on_c, 9, 36, 0
1, 239520, Note_on_c, 9, 36, 119
1, 239535, Note_on_c, 9, 42, 117
1, 239540, Note_on_c, 9, 42, 0
1, 239759, Note_on_c, 9, 36, 0
1, 239760, Note_on_c, 9, 36, 113
1, 239775, Note_on_c, 9, 42, 76
1, 239780, Note_on_c, 9, 42, 0
1, 239999, Note_on_c, 9, 36, 0
1, 240000, Note_on_c, 9, 40, 121
1, 240000, Note_on_c, 9, 42, 115
1, 240006, Note_on_c, 9, 42, 0
1, 240239, Note_on_c, 9, 40, 0
1, 240255, Note_on_c, 9, 42, 107
1, 240260, Note_on_c, 9, 42, 0
1, 240480, Note_on_c, 9, 36, 115
1, 240495, Note_on_c, 9, 42, 107
1, 240500, Note_on_c, 9, 42, 0
1, 240719, Note_on_c, 9, 36, 0
1, 240720, Note_on_c, 9, 42, 111
1, 240720, Note_on_c, 9, 36, 113
1, 240726, Note_on_c, 9, 42, 0
1, 240959, Note_on_c, 9, 36, 0
1, 240960, Note_on_c, 9, 40, 119
1, 240960, Note_on_c, 9, 42, 111
1, 240966, Note_on_c, 9, 42, 0
1, 241199, Note_on_c, 9, 40, 0
1, 241215, Note_on_c, 9, 42, 95
1, 241220, Note_on_c, 9, 42, 0
1, 241440, Note_on_c, 9, 36, 119
1, 241455, Note_on_c, 9, 42, 115
1, 241459, Note_on_c, 9, 42, 0
1, 241665, Note_on_c, 9, 40, 113
1, 241679, Note_on_c, 9, 40, 0
1, 241680, Note_on_c, 9, 42, 109
1, 241686, Note_on_c, 9, 42, 0
1, 241799, Note_on_c, 9, 36, 0
1, 241800, Note_on_c, 9, 36, 113
1, 241919, Note_on_c, 9, 36, 0
1, 241920, Note_on_c, 9, 42, 115
1, 241922, Note_on_c, 9, 42, 0
1, 242040, Note_on_c, 9, 40, 115
1, 242159, Note_on_c, 9, 40, 0
1, 242160, Note_on_c, 9, 36, 113
1, 242175, Note_on_c, 9, 42, 99
1, 242180, Note_on_c, 9, 42, 0
1, 242399, Note_on_c, 9, 36, 0
1, 242400, Note_on_c, 9, 40, 117
1, 242414, Note_on_c, 9, 40, 0
1, 242415, Note_on_c, 9, 42, 113
1, 242420, Note_on_c, 9, 42, 0
1, 242535, Note_on_c, 9, 36, 117
1, 242579, Note_on_c, 9, 36, 0
1, 242640, Note_on_c, 9, 42, 99
1, 242642, Note_on_c, 9, 42, 0
1, 242760, Note_on_c, 9, 40, 113
1, 242879, Note_on_c, 9, 40, 0
1, 242880, Note_on_c, 9, 42, 115
1, 242880, Note_on_c, 9, 36, 117
1, 242886, Note_on_c, 9, 42, 0
1, 243119, Note_on_c, 9, 36, 0
1, 243120, Note_on_c, 9, 36, 117
1, 243135, Note_on_c, 9, 40, 117
1, 243135, Note_on_c, 9, 42, 107
1, 243139, Note_on_c, 9, 42, 0
1, 243194, Note_on_c, 9, 40, 0
1, 243359, Note_on_c, 9, 36, 0
1, 243360, Note_on_c, 9, 36, 111
1, 243375, Note_on_c, 9, 42, 109
1, 243380, Note_on_c, 9, 42, 0
1, 243599, Note_on_c, 9, 36, 0
1, 243600, Note_on_c, 9, 36, 115
1, 243615, Note_on_c, 9, 42, 109
1, 243620, Note_on_c, 9, 42, 0
1, 243839, Note_on_c, 9, 36, 0
1, 243840, Note_on_c, 9, 40, 121
1, 243854, Note_on_c, 9, 40, 0
1, 243855, Note_on_c, 9, 42, 103
1, 243860, Note_on_c, 9, 42, 0
1, 244095, Note_on_c, 9, 42, 90
1, 244100, Note_on_c, 9, 42, 0
1, 244320, Note_on_c, 9, 36, 115
1, 244335, Note_on_c, 9, 42, 113
1, 244340, Note_on_c, 9, 42, 0
1, 244559, Note_on_c, 9, 36, 0
1, 244560, Note_on_c, 9, 36, 117
1, 244575, Note_on_c, 9, 42, 95
1, 244580, Note_on_c, 9, 42, 0
1, 244799, Note_on_c, 9, 36, 0
1, 244800, Note_on_c, 9, 40, 115
1, 244814, Note_on_c, 9, 40, 0
1, 244815, Note_on_c, 9, 42, 109
1, 244820, Note_on_c, 9, 42, 0
1, 245055, Note_on_c, 9, 42, 93
1, 245060, Note_on_c, 9, 42, 0
1, 245280, Note_on_c, 9, 36, 115
1, 245295, Note_on_c, 9, 42, 117
1, 245300, Note_on_c, 9, 42, 0
1, 245519, Note_on_c, 9, 36, 0
1, 245520, Note_on_c, 9, 40, 113
1, 245534, Note_on_c, 9, 40, 0
1, 245535, Note_on_c, 9, 42, 99
1, 245540, Note_on_c, 9, 42, 0
1, 245625, Note_on_c, 9, 36, 117
1, 245639, Note_on_c, 9, 36, 0
1, 245760, Note_on_c, 9, 42, 115
1, 245762, Note_on_c, 9, 42, 0
1, 245880, Note_on_c, 9, 40, 115
1, 245999, Note_on_c, 9, 40, 0
1, 246000, Note_on_c, 9, 42, 95
1, 246000, Note_on_c, 9, 36, 111
1, 246006, Note_on_c, 9, 42, 0
1, 246239, Note_on_c, 9, 36, 0
1, 246240, Note_on_c, 9, 40, 115
1, 246254, Note_on_c, 9, 40, 0
1, 246255, Note_on_c, 9, 42, 117
1, 246260, Note_on_c, 9, 42, 0
1, 246375, Note_on_c, 9, 36, 109
1, 246419, Note_on_c, 9, 36, 0
1, 246495, Note_on_c, 9, 42, 105
1, 246495, Note_on_c, 9, 42, 0
1, 246600, Note_on_c, 9, 40, 115
1, 246719, Note_on_c, 9, 40, 0
1, 246720, Note_on_c, 9, 36, 113
1, 246735, Note_on_c, 9, 42, 119
1, 246740, Note_on_c, 9, 42, 0
1, 246959, Note_on_c, 9, 36, 0
1, 246960, Note_on_c, 9, 40, 123
1, 246960, Note_on_c, 9, 36, 119
1, 246974, Note_on_c, 9, 40, 0
1, 246975, Note_on_c, 9, 42, 99
1, 246980, Note_on_c, 9, 42, 0
1, 247199, Note_on_c, 9, 36, 0
1, 247200, Note_on_c, 9, 36, 115
1, 247215, Note_on_c, 9, 42, 121
1, 247220, Note_on_c, 9, 42, 0
1, 247439, Note_on_c, 9, 36, 0
1, 247440, Note_on_c, 9, 36, 117
1, 247455, Note_on_c, 9, 42, 90
1, 247460, Note_on_c, 9, 42, 0
1, 247679, Note_on_c, 9, 36, 0
1, 247680, Note_on_c, 9, 40, 113
1, 247680, Note_on_c, 9, 42, 117
1, 247686, Note_on_c, 9, 42, 0
1, 247919, Note_on_c, 9, 40, 0
1, 247935, Note_on_c, 9, 42, 93
1, 247940, Note_on_c, 9, 42, 0
1, 248160, Note_on_c, 9, 36, 115
1, 248175, Note_on_c, 9, 42, 117
1, 248180, Note_on_c, 9, 42, 0
1, 248399, Note_on_c, 9, 36, 0
1, 248400, Note_on_c, 9, 36, 117
1, 248415, Note_on_c, 9, 42, 82
1, 248420, Note_on_c, 9, 42, 0
1, 248639, Note_on_c, 9, 36, 0
1, 248640, Note_on_c, 9, 40, 115
1, 248640, Note_on_c, 9, 42, 111
1, 248646, Note_on_c, 9, 42, 0
1, 248879, Note_on_c, 9, 40, 0
1, 248895, Note_on_c, 9, 42, 97
1, 248900, Note_on_c, 9, 42, 0
1, 249120, Note_on_c, 9, 36, 111
1, 249135, Note_on_c, 9, 42, 113
1, 249140, Note_on_c, 9, 42, 0
1, 249360, Note_on_c, 9, 40, 117
1, 249374, Note_on_c, 9, 40, 0
1, 249375, Note_on_c, 9, 42, 103
1, 249380, Note_on_c, 9, 42, 0
1, 249479, Note_on_c, 9, 36, 0
1, 249480, Note_on_c, 9, 36, 109
1, 249599, Note_on_c, 9, 36, 0
1, 249600, Note_on_c, 9, 42, 113
1, 249601, Note_on_c, 9, 42, 0
1, 249705, Note_on_c, 9, 40, 111
1, 249719, Note_on_c, 9, 40, 0
1, 249840, Note_on_c, 9, 36, 111
1, 249855, Note_on_c, 9, 42, 97
1, 249860, Note_on_c, 9, 42, 0
1, 250079, Note_on_c, 9, 36, 0
1, 250080, Note_on_c, 9, 40, 113
1, 250094, Note_on_c, 9, 40, 0
1, 250095, Note_on_c, 9, 42, 109
1, 250100, Note_on_c, 9, 42, 0
1, 250200, Note_on_c, 9, 36, 107
1, 250335, Note_on_c, 9, 42, 99
1, 250335, Note_on_c, 9, 42, 0
1, 250440, Note_on_c, 9, 40, 113
1, 250559, Note_on_c, 9, 36, 0
1, 250559, Note_on_c, 9, 40, 0
1, 250560, Note_on_c, 9, 36, 115
1, 250575, Note_on_c, 9, 42, 117
1, 250580, Note_on_c, 9, 42, 0
1, 250799, Note_on_c, 9, 36, 0
1, 250800, Note_on_c, 9, 40, 115
1, 250800, Note_on_c, 9, 36, 119
1, 250814, Note_on_c, 9, 40, 0
1, 250815, Note_on_c, 9, 42, 97
1, 250820, Note_on_c, 9, 42, 0
1, 251039, Note_on_c, 9, 36, 0
1, 251040, Note_on_c, 9, 36, 115
1, 251055, Note_on_c, 9, 42, 113
1, 251060, Note_on_c, 9, 42, 0
1, 251279, Note_on_c, 9, 36, 0
1, 251280, Note_on_c, 9, 36, 113
1, 251295, Note_on_c, 9, 42, 105
1, 251300, Note_on_c, 9, 42, 0
1, 251519, Note_on_c, 9, 36, 0
1, 251520, Note_on_c, 9, 40, 115
1, 251534, Note_on_c, 9, 40, 0
1, 251535, Note_on_c, 9, 42, 109
1, 251540, Note_on_c, 9, 42, 0
1, 251775, Note_on_c, 9, 42, 97
1, 251780, Note_on_c, 9, 42, 0
1, 252000, Note_on_c, 9, 36, 117
1, 252015, Note_on_c, 9, 42, 117
1, 252020, Note_on_c, 9, 42, 0
1, 252239, Note_on_c, 9, 36, 0
1, 252240, Note_on_c, 9, 36, 117
1, 252255, Note_on_c, 9, 42, 95
1, 252260, Note_on_c, 9, 42, 0
1, 252479, Note_on_c, 9, 36, 0
1, 252480, Note_on_c, 9, 40, 115
1, 252494, Note_on_c, 9, 40, 0
1, 252495, Note_on_c, 9, 42, 90
1, 252500, Note_on_c, 9, 42, 0
1, 252735, Note_on_c, 9, 42, 80
1, 252740, Note_on_c, 9, 42, 0
1, 252960, Note_on_c, 9, 36, 116
1, 252975, Note_on_c, 9, 42, 117
1, 252979, Note_on_c, 9, 42, 0
1, 253185, Note_on_c, 9, 40, 110
1, 253199, Note_on_c, 9, 36, 0
1, 253199, Note_on_c, 9, 40, 0
1, 253200, Note_on_c, 9, 42, 101
1, 253206, Note_on_c, 9, 42, 0
1, 253305, Note_on_c, 9, 36, 108
1, 253319, Note_on_c, 9, 36, 0
1, 253440, Note_on_c, 9, 42, 111
1, 253441, Note_on_c, 9, 42, 0
1, 253530, Note_on_c, 9, 40, 111
1, 253559, Note_on_c, 9, 40, 0
1, 253665, Note_on_c, 9, 36, 111
1, 253679, Note_on_c, 9, 36, 0
1, 253680, Note_on_c, 9, 42, 107
1, 253686, Note_on_c, 9, 42, 0
1, 253920, Note_on_c, 9, 40, 117
1, 253920, Note_on_c, 9, 42, 109
1, 253926, Note_on_c, 9, 42, 0
1, 254040, Note_on_c, 9, 36, 113
1, 254159, Note_on_c, 9, 40, 0
1, 254175, Note_on_c, 9, 42, 101
1, 254175, Note_on_c, 9, 42, 0
1, 254250, Note_on_c, 9, 40, 111
1, 254279, Note_on_c, 9, 40, 0
1, 254399, Note_on_c, 9, 36, 0
1, 254400, Note_on_c, 9, 36, 115
1, 254415, Note_on_c, 9, 42, 109
1, 254420, Note_on_c, 9, 42, 0
1, 254639, Note_on_c, 9, 36, 0
1, 254640, Note_on_c, 9, 40, 119
1, 254640, Note_on_c, 9, 36, 119
1, 254654, Note_on_c, 9, 40, 0
1, 254655, Note_on_c, 9, 42, 111
1, 254660, Note_on_c, 9, 42, 0
1, 254879, Note_on_c, 9, 36, 0
1, 254880, Note_on_c, 9, 36, 117
1, 254895, Note_on_c, 9, 42, 119
1, 254900, Note_on_c, 9, 42, 0
1, 255119, Note_on_c, 9, 36, 0
1, 255120, Note_on_c, 9, 36, 117
1, 255135, Note_on_c, 9, 42, 105
1, 255140, Note_on_c, 9, 42, 0
1, 255359, Note_on_c, 9, 36, 0
1, 255360, Note_on_c, 9, 40, 119
1, 255360, Note_on_c, 9, 42, 115
1, 255366, Note_on_c, 9, 42, 0
1, 255599, Note_on_c, 9, 40, 0
1, 255600, Note_on_c, 9, 42, 95
1, 255606, Note_on_c, 9, 42, 0
1, 255840, Note_on_c, 9, 36, 119
1, 255855, Note_on_c, 9, 42, 117
1, 255860, Note_on_c, 9, 42, 0
1, 256079, Note_on_c, 9, 36, 0
1, 256080, Note_on_c, 9, 42, 95
1, 256080, Note_on_c, 9, 36, 115
1, 256086, Note_on_c, 9, 42, 0
1, 256319, Note_on_c, 9, 36, 0
1, 256320, Note_on_c, 9, 40, 117
1, 256320, Note_on_c, 9, 42, 113
1, 256326, Note_on_c, 9, 42, 0
1, 256559, Note_on_c, 9, 40, 0
1, 256575, Note_on_c, 9, 42, 117
1, 256580, Note_on_c, 9, 42, 0
1, 256800, Note_on_c, 9, 40, 119
1, 257040, Note_on_c, 9, 36, 99
1, 257159, Note_on_c, 9, 40, 0
1, 257175, Note_on_c, 9, 40, 117
1, 257219, Note_on_c, 9, 40, 0
1, 257279, Note_on_c, 9, 36, 0
1, 257400, Note_on_c, 9, 36, 107
1, 257520, Note_on_c, 9, 40, 117
1, 257759, Note_on_c, 9, 36, 0
1, 257759, Note_on_c, 9, 40, 0
1, 257760, Note_on_c, 9, 36, 113
1, 257880, Note_on_c, 9, 40, 115
1, 258119, Note_on_c, 9, 36, 0
1, 258120, Note_on_c, 9, 36, 101
1, 258239, Note_on_c, 9, 40, 0
1, 258239, Note_on_c, 9, 36, 0
1, 258255, Note_on_c, 9, 40, 111
1, 258299, Note_on_c, 9, 40, 0
1, 258375, Note_on_c, 9, 40, 113
1, 258419, Note_on_c, 9, 40, 0
1, 258495, Note_on_c, 9, 40, 119
1, 258539, Note_on_c, 9, 40, 0
1, 258615, Note_on_c, 9, 40, 117
1, 258659, Note_on_c, 9, 40, 0
1, 258720, Note_on_c, 9, 36, 90
1, 258735, Note_on_c, 9, 49, 121
1, 258740, Note_on_c, 9, 49, 0
1, 258959, Note_on_c, 9, 36, 0
1, 258960, Note_on_c, 9, 36, 107
1, 258975, Note_on_c, 9, 49, 117
1, 258980, Note_on_c, 9, 49, 0
1, 259199, Note_on_c, 9, 36, 0
1, 259200, Note_on_c, 9, 40, 72
1, 259319, Note_on_c, 9, 40, 0
1, 259320, Note_on_c, 9, 40, 115
1, 259439, Note_on_c, 9, 40, 0
1, 259440, Note_on_c, 9, 40, 117
1, 259559, Note_on_c, 9, 40, 0
1, 259575, Note_on_c, 9, 40, 113
1, 259619, Note_on_c, 9, 40, 0
1, 259680, Note_on_c, 9, 36, 97
1, 259919, Note_on_c, 9, 36, 0
1, 259920, Note_on_c, 9, 49, 113
1, 259920, Note_on_c, 9, 36, 109
1, 259926, Note_on_c, 9, 49, 0
1, 260159, Note_on_c, 9, 36, 0
1, 260160, Note_on_c, 9, 40, 117
1, 260399, Note_on_c, 9, 40, 0
1, 260400, Note_on_c, 9, 49, 107
1, 260400, Note_on_c, 9, 36, 109
1, 260406, Note_on_c, 9, 49, 0
1, 260639, Note_on_c, 9, 36, 0
1, 260880, Note_on_c, 9, 36, 107
1, 261119, Note_on_c, 9, 36, 0
1, 261135, Note_on_c, 9, 40, 119
1, 261135, Note_on_c, 9, 42, 121
1, 261139, Note_on_c, 9, 42, 0
1, 261194, Note_on_c, 9, 40, 0
1, 261600, Note_on_c, 9, 42, 119
1, 261600, Note_on_c, 9, 36, 115
1, 261606, Note_on_c, 9, 42, 0
1, 261840, Note_on_c, 9, 40, 55
1, 261959, Note_on_c, 9, 40, 0
1, 261975, Note_on_c, 9, 40, 109
1, 262019, Note_on_c, 9, 40, 0
1, 262079, Note_on_c, 9, 36, 0
1, 262095, Note_on_c, 9, 40, 115
1, 262095, Note_on_c, 9, 42, 119
1, 262095, Note_on_c, 9, 42, 0
1, 262139, Note_on_c, 9, 40, 0
1, 262215, Note_on_c, 9, 40, 115
1, 262259, Note_on_c, 9, 40, 0
1, 262335, Note_on_c, 9, 40, 119
1, 262335, Note_on_c, 9, 42, 121
1, 262335, Note_on_c, 9, 42, 0
1, 262379, Note_on_c, 9, 40, 0
1, 262455, Note_on_c, 9, 40, 113
1, 262499, Note_on_c, 9, 40, 0
1, 262560, Note_on_c, 9, 36, 113
1, 262575, Note_on_c, 9, 49, 113
1, 262580, Note_on_c, 9, 49, 0
1, 262799, Note_on_c, 9, 36, 0
1, 262800, Note_on_c, 9, 49, 107
1, 262800, Note_on_c, 9, 36, 115
1, 262806, Note_on_c, 9, 49, 0
1, 263039, Note_on_c, 9, 36, 0
1, 263040, Note_on_c, 9, 40, 99
1, 263159, Note_on_c, 9, 40, 0
1, 263160, Note_on_c, 9, 40, 117
1, 263279, Note_on_c, 9, 40, 0
1, 263280, Note_on_c, 9, 40, 115
1, 263399, Note_on_c, 9, 40, 0
1, 263400, Note_on_c, 9, 40, 113
1, 263519, Note_on_c, 9, 40, 0
1, 263520, Note_on_c, 9, 36, 111
1, 263759, Note_on_c, 9, 36, 0
1, 263760, Note_on_c, 9, 49, 111
1, 263760, Note_on_c, 9, 36, 109
1, 263766, Note_on_c, 9, 49, 0
1, 263999, Note_on_c, 9, 36, 0
1, 264000, Note_on_c, 9, 40, 115
1, 264239, Note_on_c, 9, 40, 0
1, 264240, Note_on_c, 9, 49, 113
1, 264240, Note_on_c, 9, 36, 111
1, 264246, Note_on_c, 9, 49, 0
1, 264479, Note_on_c, 9, 36, 0
1, 264720, Note_on_c, 9, 42, 103
1, 264720, Note_on_c, 9, 36, 109
1, 264726, Note_on_c, 9, 42, 0
1, 264959, Note_on_c, 9, 36, 0
1, 264960, Note_on_c, 9, 40, 119
1, 264960, Note_on_c, 9, 42, 113
1, 264966, Note_on_c, 9, 42, 0
1, 265199, Note_on_c, 9, 40, 0
1, 265215, Note_on_c, 9, 42, 86
1, 265220, Note_on_c, 9, 42, 0
1, 265335, Note_on_c, 9, 36, 92
1, 265379, Note_on_c, 9, 36, 0
1, 265440, Note_on_c, 9, 36, 113
1, 265455, Note_on_c, 9, 42, 107
1, 265460, Note_on_c, 9, 42, 0
1, 265679, Note_on_c, 9, 36, 0
1, 265680, Note_on_c, 9, 43, 115
1, 265695, Note_on_c, 9, 45, 62
1, 265695, Note_on_c, 9, 42, 103
1, 265695, Note_on_c, 9, 42, 0
1, 265754, Note_on_c, 9, 45, 0
1, 265755, Note_on_c, 9, 42, 103
1, 265758, Note_on_c, 9, 42, 0
1, 265919, Note_on_c, 9, 43, 0
1, 265935, Note_on_c, 9, 45, 121
1, 265935, Note_on_c, 9, 42, 103
1, 265940, Note_on_c, 9, 42, 0
1, 266159, Note_on_c, 9, 45, 0
1, 266160, Note_on_c, 9, 45, 121
1, 266160, Note_on_c, 9, 43, 119
1, 266174, Note_on_c, 9, 45, 0
1, 266175, Note_on_c, 9, 42, 101
1, 266180, Note_on_c, 9, 42, 0
1, 266399, Note_on_c, 9, 43, 0
1, 266400, Note_on_c, 9, 36, 119
1, 266415, Note_on_c, 9, 49, 119
1, 266420, Note_on_c, 9, 49, 0
1, 266879, Note_on_c, 9, 36, 0
1, 266880, Note_on_c, 9, 40, 121
1, 266880, Note_on_c, 9, 42, 97
1, 266886, Note_on_c, 9, 42, 0
1, 267119, Note_on_c, 9, 40, 0
1, 267135, Note_on_c, 9, 42, 92
1, 267140, Note_on_c, 9, 42, 0
1, 267360, Note_on_c, 9, 36, 117
1, 267375, Note_on_c, 9, 42, 109
1, 267380, Note_on_c, 9, 42, 0
1, 267599, Note_on_c, 9, 36, 0
1, 267600, Note_on_c, 9, 36, 117
1, 267615, Note_on_c, 9, 42, 109
1, 267620, Note_on_c, 9, 42, 0
1, 267839, Note_on_c, 9, 36, 0
1, 267840, Note_on_c, 9, 40, 117
1, 267854, Note_on_c, 9, 40, 0
1, 267855, Note_on_c, 9, 42, 113
1, 267860, Note_on_c, 9, 42, 0
1, 268095, Note_on_c, 9, 42, 99
1, 268100, Note_on_c, 9, 42, 0
1, 268215, Note_on_c, 9, 36, 86
1, 268259, Note_on_c, 9, 36, 0
1, 268320, Note_on_c, 9, 36, 121
1, 268335, Note_on_c, 9, 42, 119
1, 268340, Note_on_c, 9, 42, 0
1, 268575, Note_on_c, 9, 42, 107
1, 268580, Note_on_c, 9, 42, 0
1, 268799, Note_on_c, 9, 36, 0
1, 268815, Note_on_c, 9, 40, 117
1, 268815, Note_on_c, 9, 42, 109
1, 268820, Note_on_c, 9, 42, 0
1, 269054, Note_on_c, 9, 40, 0
1, 269055, Note_on_c, 9, 42, 95
1, 269060, Note_on_c, 9, 42, 0
1, 269280, Note_on_c, 9, 42, 117
1, 269280, Note_on_c, 9, 36, 115
1, 269286, Note_on_c, 9, 42, 0
1, 269519, Note_on_c, 9, 36, 0
1, 269520, Note_on_c, 9, 42, 105
1, 269520, Note_on_c, 9, 36, 115
1, 269526, Note_on_c, 9, 42, 0
1, 269759, Note_on_c, 9, 36, 0
1, 269760, Note_on_c, 9, 40, 117
1, 269760, Note_on_c, 9, 42, 115
1, 269766, Note_on_c, 9, 42, 0
1, 269999, Note_on_c, 9, 40, 0
1, 270030, Note_on_c, 9, 42, 109
1, 270031, Note_on_c, 9, 42, 0
1, 270135, Note_on_c, 9, 36, 87
1, 270179, Note_on_c, 9, 36, 0
1, 270240, Note_on_c, 9, 36, 119
1, 270255, Note_on_c, 9, 42, 115
1, 270260, Note_on_c, 9, 42, 0
1, 270480, Note_on_c, 9, 42, 109
1, 270486, Note_on_c, 9, 42, 0
1, 270719, Note_on_c, 9, 36, 0
1, 270720, Note_on_c, 9, 40, 119
1, 270720, Note_on_c, 9, 42, 115
1, 270726, Note_on_c, 9, 42, 0
1, 270959, Note_on_c, 9, 40, 0
1, 270960, Note_on_c, 9, 42, 101
1, 270962, Note_on_c, 9, 42, 0
1, 271080, Note_on_c, 9, 42, 109
1, 271082, Note_on_c, 9, 42, 0
1, 271200, Note_on_c, 9, 42, 103
1, 271200, Note_on_c, 9, 36, 111
1, 271206, Note_on_c, 9, 42, 0
1, 271439, Note_on_c, 9, 36, 0
1, 271440, Note_on_c, 9, 36, 107
1, 271455, Note_on_c, 9, 42, 101
1, 271460, Note_on_c, 9, 42, 0
1, 271679, Note_on_c, 9, 36, 0
1, 271680, Note_on_c, 9, 40, 117
1, 271694, Note_on_c, 9, 40, 0
1, 271695, Note_on_c, 9, 42, 107
1, 271700, Note_on_c, 9, 42, 0
1, 271935, Note_on_c, 9, 42, 101
1, 271940, Note_on_c, 9, 42, 0
1, 272160, Note_on_c, 9, 42, 111
1, 272160, Note_on_c, 9, 36, 109
1, 272166, Note_on_c, 9, 42, 0
1, 272399, Note_on_c, 9, 36, 0
1, 272400, Note_on_c, 9, 36, 111
1, 272415, Note_on_c, 9, 42, 103
1, 272420, Note_on_c, 9, 42, 0
1, 272639, Note_on_c, 9, 36, 0
1, 272640, Note_on_c, 9, 40, 117
1, 272640, Note_on_c, 9, 42, 115
1, 272646, Note_on_c, 9, 42, 0
1, 272879, Note_on_c, 9, 40, 0
1, 272880, Note_on_c, 9, 42, 83
1, 272882, Note_on_c, 9, 42, 0
1, 273000, Note_on_c, 9, 42, 107
1, 273002, Note_on_c, 9, 42, 0
1, 273120, Note_on_c, 9, 42, 115
1, 273120, Note_on_c, 9, 36, 105
1, 273122, Note_on_c, 9, 42, 0
1, 273255, Note_on_c, 9, 40, 115
1, 273299, Note_on_c, 9, 40, 0
1, 273375, Note_on_c, 9, 42, 109
1, 273380, Note_on_c, 9, 42, 0
1, 273479, Note_on_c, 9, 36, 0
1, 273495, Note_on_c, 9, 36, 99
1, 273539, Note_on_c, 9, 36, 0
1, 273615, Note_on_c, 9, 42, 111
1, 273615, Note_on_c, 9, 42, 0
1, 273630, Note_on_c, 9, 40, 119
1, 273689, Note_on_c, 9, 40, 0
1, 273855, Note_on_c, 9, 42, 85
1, 273855, Note_on_c, 9, 42, 0
1, 273960, Note_on_c, 9, 42, 113
1, 273962, Note_on_c, 9, 42, 0
1, 273975, Note_on_c, 9, 36, 103
1, 274019, Note_on_c, 9, 36, 0
1, 274080, Note_on_c, 9, 36, 117
1, 274095, Note_on_c, 9, 42, 113
1, 274100, Note_on_c, 9, 42, 0
1, 274335, Note_on_c, 9, 42, 111
1, 274340, Note_on_c, 9, 42, 0
1, 274559, Note_on_c, 9, 36, 0
1, 274560, Note_on_c, 9, 40, 117
1, 274574, Note_on_c, 9, 40, 0
1, 274575, Note_on_c, 9, 42, 111
1, 274580, Note_on_c, 9, 42, 0
1, 274815, Note_on_c, 9, 42, 101
1, 274815, Note_on_c, 9, 42, 0
1, 274935, Note_on_c, 9, 42, 103
1, 274935, Note_on_c, 9, 42, 0
1, 275040, Note_on_c, 9, 36, 117
1, 275055, Note_on_c, 9, 42, 111
1, 275060, Note_on_c, 9, 42, 0
1, 275279, Note_on_c, 9, 36, 0
1, 275280, Note_on_c, 9, 36, 113
1, 275295, Note_on_c, 9, 42, 113
1, 275300, Note_on_c, 9, 42, 0
1, 275519, Note_on_c, 9, 36, 0
1, 275535, Note_on_c, 9, 40, 115
1, 275535, Note_on_c, 9, 42, 113
1, 275539, Note_on_c, 9, 42, 0
1, 275594, Note_on_c, 9, 40, 0
1, 275760, Note_on_c, 9, 42, 81
1, 275762, Note_on_c, 9, 42, 0
1, 275895, Note_on_c, 9, 42, 103
1, 275895, Note_on_c, 9, 42, 0
1, 275895, Note_on_c, 9, 36, 87
1, 275939, Note_on_c, 9, 36, 0
1, 276000, Note_on_c, 9, 36, 115
1, 276015, Note_on_c, 9, 42, 113
1, 276020, Note_on_c, 9, 42, 0
1, 276255, Note_on_c, 9, 42, 105
1, 276260, Note_on_c, 9, 42, 0
1, 276479, Note_on_c, 9, 36, 0
1, 276495, Note_on_c, 9, 40, 117
1, 276495, Note_on_c, 9, 42, 107
1, 276499, Note_on_c, 9, 42, 0
1, 276554, Note_on_c, 9, 40, 0
1, 276720, Note_on_c, 9, 42, 89
1, 276722, Note_on_c, 9, 42, 0
1, 276840, Note_on_c, 9, 42, 105
1, 276842, Note_on_c, 9, 42, 0
1, 276960, Note_on_c, 9, 36, 117
1, 276975, Note_on_c, 9, 42, 109
1, 276980, Note_on_c, 9, 42, 0
1, 277215, Note_on_c, 9, 42, 109
1, 277220, Note_on_c, 9, 42, 0
1, 277439, Note_on_c, 9, 36, 0
1, 277455, Note_on_c, 9, 40, 115
1, 277455, Note_on_c, 9, 42, 113
1, 277459, Note_on_c, 9, 42, 0
1, 277514, Note_on_c, 9, 40, 0
1, 277680, Note_on_c, 9, 42, 107
1, 277682, Note_on_c, 9, 42, 0
1, 277800, Note_on_c, 9, 42, 117
1, 277802, Note_on_c, 9, 42, 0
1, 277815, Note_on_c, 9, 36, 89
1, 277859, Note_on_c, 9, 36, 0
1, 277920, Note_on_c, 9, 51, 97
1, 277920, Note_on_c, 9, 36, 113
1, 277926, Note_on_c, 9, 51, 0
1, 278160, Note_on_c, 9, 42, 119
1, 278166, Note_on_c, 9, 42, 0
1, 278399, Note_on_c, 9, 36, 0
1, 278415, Note_on_c, 9, 40, 117
1, 278415, Note_on_c, 9, 42, 115
1, 278419, Note_on_c, 9, 42, 0
1, 278474, Note_on_c, 9, 40, 0
1, 278640, Note_on_c, 9, 42, 85
1, 278642, Note_on_c, 9, 42, 0
1, 278760, Note_on_c, 9, 42, 115
1, 278762, Note_on_c, 9, 42, 0
1, 278880, Note_on_c, 9, 42, 111
1, 278880, Note_on_c, 9, 36, 111
1, 278886, Note_on_c, 9, 42, 0
1, 279119, Note_on_c, 9, 36, 0
1, 279120, Note_on_c, 9, 36, 109
1, 279135, Note_on_c, 9, 42, 101
1, 279140, Note_on_c, 9, 42, 0
1, 279359, Note_on_c, 9, 36, 0
1, 279360, Note_on_c, 9, 42, 109
1, 279360, Note_on_c, 9, 42, 0
1, 279380, Note_on_c, 9, 40, 115
1, 279419, Note_on_c, 9, 40, 0
1, 279600, Note_on_c, 9, 42, 97
1, 279602, Note_on_c, 9, 42, 0
1, 279720, Note_on_c, 9, 42, 115
1, 279722, Note_on_c, 9, 42, 0
1, 279840, Note_on_c, 9, 49, 109
1, 279840, Note_on_c, 9, 36, 117
1, 279854, Note_on_c, 9, 49, 0
1, 280319, Note_on_c, 9, 36, 0
1, 280320, End_track
0, 0, End_of_file
