0, 0, Header, 1, 1, 480
1, 0, Start_track
1, 0, Title_t, "Drumset"
1, 0, Time_signature, 4, 2, 24, 8
1, 0, Key_signature, 0, "major"
1, 0, Tempo, 419580
1, 0, Control_c, 9, 121, 0
1, 0, Program_c, 9, 0
1, 0, Control_c, 9, 7, 100
1, 0, Control_c, 9, 10, 64
1, 0, Control_c, 9, 91, 0
1, 0, Control_c, 9, 93, 0
1, 0, MIDI_port, 0
1, 1920, Note_on_c, 9, 42, 55
1, 1946, Note_on_c, 9, 42, 0
1, 2400, Note_on_c, 9, 42, 40
1, 2426, Note_on_c, 9, 42, 0
1, 2880, Note_on_c, 9, 42, 42
1, 2899, Note_on_c, 9, 42, 0
1, 3300, Note_on_c, 9, 38, 72
1, 3359, Note_on_c, 9, 38, 0
1, 3360, Note_on_c, 9, 38, 103
1, 3839, Note_on_c, 9, 38, 0
1, 3840, Note_on_c, 9, 51, 59
1, 3840, Note_on_c, 9, 53, 67
1, 3840, Note_on_c, 9, 42, 74
1, 3840, Note_on_c, 9, 35, 107
1, 3852, Note_on_c, 9, 51, 0
1, 3852, Note_on_c, 9, 42, 0
1, 4079, Note_on_c, 9, 53, 0
1, 4080, Note_on_c, 9, 42, 54
1, 4092, Note_on_c, 9, 42, 0
1, 4319, Note_on_c, 9, 35, 0
1, 4320, Note_on_c, 9, 38, 100
1, 4320, Note_on_c, 9, 42, 65
1, 4332, Note_on_c, 9, 42, 0
1, 4559, Note_on_c, 9, 38, 0
1, 4560, Note_on_c, 9, 42, 49
1, 4560, Note_on_c, 9, 35, 75
1, 4572, Note_on_c, 9, 42, 0
1, 4799, Note_on_c, 9, 35, 0
1, 4800, Note_on_c, 9, 42, 72
1, 4800, Note_on_c, 9, 35, 107
1, 4812, Note_on_c, 9, 42, 0
1, 5040, Note_on_c, 9, 42, 47
1, 5052, Note_on_c, 9, 42, 0
1, 5279, Note_on_c, 9, 35, 0
1, 5280, Note_on_c, 9, 38, 100
1, 5280, Note_on_c, 9, 42, 67
1, 5292, Note_on_c, 9, 42, 0
1, 5519, Note_on_c, 9, 38, 0
1, 5520, Note_on_c, 9, 42, 44
1, 5520, Note_on_c, 9, 35, 77
1, 5532, Note_on_c, 9, 42, 0
1, 5759, Note_on_c, 9, 35, 0
1, 5760, Note_on_c, 9, 42, 74
1, 5760, Note_on_c, 9, 35, 107
1, 5772, Note_on_c, 9, 42, 0
1, 6000, Note_on_c, 9, 42, 47
1, 6012, Note_on_c, 9, 42, 0
1, 6239, Note_on_c, 9, 35, 0
1, 6240, Note_on_c, 9, 38, 100
1, 6240, Note_on_c, 9, 42, 70
1, 6252, Note_on_c, 9, 42, 0
1, 6479, Note_on_c, 9, 38, 0
1, 6480, Note_on_c, 9, 42, 40
1, 6492, Note_on_c, 9, 42, 0
1, 6720, Note_on_c, 9, 42, 74
1, 6720, Note_on_c, 9, 35, 97
1, 6732, Note_on_c, 9, 42, 0
1, 6960, Note_on_c, 9, 46, 45
1, 6972, Note_on_c, 9, 46, 0
1, 7199, Note_on_c, 9, 35, 0
1, 7200, Note_on_c, 9, 38, 100
1, 7200, Note_on_c, 9, 42, 74
1, 7212, Note_on_c, 9, 42, 0
1, 7439, Note_on_c, 9, 38, 0
1, 7440, Note_on_c, 9, 46, 48
1, 7440, Note_on_c, 9, 35, 76
1, 7452, Note_on_c, 9, 46, 0
1, 7679, Note_on_c, 9, 35, 0
1, 7680, Note_on_c, 9, 51, 53
1, 7680, Note_on_c, 9, 53, 71
1, 7680, Note_on_c, 9, 42, 74
1, 7680, Note_on_c, 9, 35, 107
1, 7692, Note_on_c, 9, 51, 0
1, 7692, Note_on_c, 9, 42, 0
1, 7919, Note_on_c, 9, 53, 0
1, 7920, Note_on_c, 9, 42, 45
1, 7932, Note_on_c, 9, 42, 0
1, 8159, Note_on_c, 9, 35, 0
1, 8160, Note_on_c, 9, 38, 100
1, 8160, Note_on_c, 9, 42, 55
1, 8172, Note_on_c, 9, 42, 0
1, 8399, Note_on_c, 9, 38, 0
1, 8400, Note_on_c, 9, 42, 47
1, 8400, Note_on_c, 9, 35, 95
1, 8412, Note_on_c, 9, 42, 0
1, 8639, Note_on_c, 9, 35, 0
1, 8640, Note_on_c, 9, 42, 62
1, 8640, Note_on_c, 9, 35, 107
1, 8652, Note_on_c, 9, 42, 0
1, 8880, Note_on_c, 9, 42, 45
1, 8892, Note_on_c, 9, 42, 0
1, 9119, Note_on_c, 9, 35, 0
1, 9120, Note_on_c, 9, 38, 100
1, 9120, Note_on_c, 9, 42, 66
1, 9132, Note_on_c, 9, 42, 0
1, 9359, Note_on_c, 9, 38, 0
1, 9360, Note_on_c, 9, 42, 47
1, 9372, Note_on_c, 9, 42, 0
1, 9600, Note_on_c, 9, 42, 74
1, 9600, Note_on_c, 9, 35, 107
1, 9612, Note_on_c, 9, 42, 0
1, 9840, Note_on_c, 9, 42, 47
1, 9852, Note_on_c, 9, 42, 0
1, 10079, Note_on_c, 9, 35, 0
1, 10080, Note_on_c, 9, 38, 100
1, 10080, Note_on_c, 9, 42, 66
1, 10092, Note_on_c, 9, 42, 0
1, 10319, Note_on_c, 9, 38, 0
1, 10320, Note_on_c, 9, 42, 54
1, 10320, Note_on_c, 9, 35, 102
1, 10332, Note_on_c, 9, 42, 0
1, 10559, Note_on_c, 9, 35, 0
1, 10560, Note_on_c, 9, 42, 65
1, 10560, Note_on_c, 9, 35, 107
1, 10572, Note_on_c, 9, 42, 0
1, 10800, Note_on_c, 9, 46, 52
1, 10812, Note_on_c, 9, 46, 0
1, 11039, Note_on_c, 9, 35, 0
1, 11040, Note_on_c, 9, 38, 100
1, 11040, Note_on_c, 9, 42, 65
1, 11052, Note_on_c, 9, 42, 0
1, 11279, Note_on_c, 9, 38, 0
1, 11280, Note_on_c, 9, 46, 51
1, 11292, Note_on_c, 9, 46, 0
1, 11520, Note_on_c, 9, 51, 44
1, 11520, Note_on_c, 9, 53, 60
1, 11520, Note_on_c, 9, 42, 66
1, 11520, Note_on_c, 9, 35, 103
1, 11532, Note_on_c, 9, 51, 0
1, 11532, Note_on_c, 9, 42, 0
1, 11759, Note_on_c, 9, 53, 0
1, 11760, Note_on_c, 9, 42, 47
1, 11772, Note_on_c, 9, 42, 0
1, 11999, Note_on_c, 9, 35, 0
1, 12000, Note_on_c, 9, 38, 100
1, 12000, Note_on_c, 9, 42, 61
1, 12012, Note_on_c, 9, 42, 0
1, 12239, Note_on_c, 9, 38, 0
1, 12240, Note_on_c, 9, 42, 47
1, 12240, Note_on_c, 9, 35, 81
1, 12252, Note_on_c, 9, 42, 0
1, 12479, Note_on_c, 9, 35, 0
1, 12480, Note_on_c, 9, 42, 65
1, 12480, Note_on_c, 9, 35, 107
1, 12492, Note_on_c, 9, 42, 0
1, 12720, Note_on_c, 9, 42, 50
1, 12732, Note_on_c, 9, 42, 0
1, 12959, Note_on_c, 9, 35, 0
1, 12960, Note_on_c, 9, 38, 100
1, 12960, Note_on_c, 9, 42, 62
1, 12972, Note_on_c, 9, 42, 0
1, 13199, Note_on_c, 9, 38, 0
1, 13200, Note_on_c, 9, 42, 50
1, 13200, Note_on_c, 9, 35, 93
1, 13212, Note_on_c, 9, 42, 0
1, 13439, Note_on_c, 9, 35, 0
1, 13440, Note_on_c, 9, 42, 65
1, 13440, Note_on_c, 9, 35, 107
1, 13452, Note_on_c, 9, 42, 0
1, 13680, Note_on_c, 9, 42, 47
1, 13692, Note_on_c, 9, 42, 0
1, 13919, Note_on_c, 9, 35, 0
1, 13920, Note_on_c, 9, 38, 100
1, 13920, Note_on_c, 9, 42, 67
1, 13932, Note_on_c, 9, 42, 0
1, 14159, Note_on_c, 9, 38, 0
1, 14160, Note_on_c, 9, 42, 49
1, 14160, Note_on_c, 9, 35, 100
1, 14172, Note_on_c, 9, 42, 0
1, 14399, Note_on_c, 9, 35, 0
1, 14400, Note_on_c, 9, 42, 67
1, 14400, Note_on_c, 9, 35, 106
1, 14412, Note_on_c, 9, 42, 0
1, 14640, Note_on_c, 9, 46, 56
1, 14652, Note_on_c, 9, 46, 0
1, 14879, Note_on_c, 9, 35, 0
1, 14880, Note_on_c, 9, 38, 100
1, 14880, Note_on_c, 9, 42, 59
1, 14892, Note_on_c, 9, 42, 0
1, 15119, Note_on_c, 9, 38, 0
1, 15120, Note_on_c, 9, 46, 56
1, 15132, Note_on_c, 9, 46, 0
1, 15360, Note_on_c, 9, 51, 54
1, 15360, Note_on_c, 9, 53, 62
1, 15360, Note_on_c, 9, 42, 65
1, 15360, Note_on_c, 9, 35, 107
1, 15372, Note_on_c, 9, 51, 0
1, 15372, Note_on_c, 9, 42, 0
1, 15599, Note_on_c, 9, 53, 0
1, 15600, Note_on_c, 9, 42, 47
1, 15612, Note_on_c, 9, 42, 0
1, 15839, Note_on_c, 9, 35, 0
1, 15840, Note_on_c, 9, 38, 100
1, 15840, Note_on_c, 9, 42, 66
1, 15852, Note_on_c, 9, 42, 0
1, 16079, Note_on_c, 9, 38, 0
1, 16080, Note_on_c, 9, 42, 58
1, 16080, Note_on_c, 9, 35, 100
1, 16092, Note_on_c, 9, 42, 0
1, 16319, Note_on_c, 9, 35, 0
1, 16320, Note_on_c, 9, 42, 68
1, 16320, Note_on_c, 9, 35, 107
1, 16332, Note_on_c, 9, 42, 0
1, 16560, Note_on_c, 9, 42, 61
1, 16572, Note_on_c, 9, 42, 0
1, 16799, Note_on_c, 9, 35, 0
1, 16800, Note_on_c, 9, 38, 100
1, 16800, Note_on_c, 9, 42, 68
1, 16812, Note_on_c, 9, 42, 0
1, 17039, Note_on_c, 9, 38, 0
1, 17040, Note_on_c, 9, 42, 48
1, 17045, Note_on_c, 9, 42, 0
1, 17160, Note_on_c, 9, 38, 68
1, 17279, Note_on_c, 9, 38, 0
1, 17280, Note_on_c, 9, 38, 95
1, 17280, Note_on_c, 9, 42, 67
1, 17280, Note_on_c, 9, 35, 107
1, 17292, Note_on_c, 9, 42, 0
1, 17519, Note_on_c, 9, 38, 0
1, 17520, Note_on_c, 9, 38, 100
1, 17520, Note_on_c, 9, 42, 49
1, 17532, Note_on_c, 9, 42, 0
1, 17759, Note_on_c, 9, 35, 0
1, 17759, Note_on_c, 9, 38, 0
1, 17760, Note_on_c, 9, 38, 76
1, 17760, Note_on_c, 9, 44, 65
1, 17786, Note_on_c, 9, 44, 0
1, 17879, Note_on_c, 9, 38, 0
1, 17880, Note_on_c, 9, 38, 100
1, 17999, Note_on_c, 9, 38, 0
1, 18000, Note_on_c, 9, 41, 97
1, 18239, Note_on_c, 9, 41, 0
1, 18240, Note_on_c, 9, 38, 89
1, 18240, Note_on_c, 9, 44, 70
1, 18240, Note_on_c, 9, 35, 107
1, 18266, Note_on_c, 9, 44, 0
1, 18479, Note_on_c, 9, 38, 0
1, 18480, Note_on_c, 9, 45, 94
1, 18599, Note_on_c, 9, 45, 0
1, 18600, Note_on_c, 9, 45, 84
1, 18719, Note_on_c, 9, 35, 0
1, 18719, Note_on_c, 9, 45, 0
1, 18720, Note_on_c, 9, 41, 97
1, 18720, Note_on_c, 9, 44, 79
1, 18746, Note_on_c, 9, 44, 0
1, 18959, Note_on_c, 9, 41, 0
1, 18960, Note_on_c, 9, 46, 55
1, 18972, Note_on_c, 9, 46, 0
1, 19200, Note_on_c, 9, 51, 59
1, 19200, Note_on_c, 9, 42, 74
1, 19200, Note_on_c, 9, 35, 107
1, 19212, Note_on_c, 9, 51, 0
1, 19212, Note_on_c, 9, 42, 0
1, 19440, Note_on_c, 9, 42, 61
1, 19452, Note_on_c, 9, 42, 0
1, 19679, Note_on_c, 9, 35, 0
1, 19680, Note_on_c, 9, 38, 100
1, 19680, Note_on_c, 9, 42, 74
1, 19692, Note_on_c, 9, 42, 0
1, 19919, Note_on_c, 9, 38, 0
1, 19920, Note_on_c, 9, 42, 44
1, 19920, Note_on_c, 9, 35, 98
1, 19932, Note_on_c, 9, 42, 0
1, 20159, Note_on_c, 9, 35, 0
1, 20160, Note_on_c, 9, 42, 70
1, 20160, Note_on_c, 9, 35, 107
1, 20172, Note_on_c, 9, 42, 0
1, 20400, Note_on_c, 9, 42, 47
1, 20412, Note_on_c, 9, 42, 0
1, 20639, Note_on_c, 9, 35, 0
1, 20640, Note_on_c, 9, 38, 100
1, 20640, Note_on_c, 9, 42, 66
1, 20652, Note_on_c, 9, 42, 0
1, 20879, Note_on_c, 9, 38, 0
1, 20880, Note_on_c, 9, 46, 56
1, 20892, Note_on_c, 9, 46, 0
1, 21120, Note_on_c, 9, 51, 59
1, 21120, Note_on_c, 9, 42, 65
1, 21120, Note_on_c, 9, 35, 107
1, 21132, Note_on_c, 9, 51, 0
1, 21132, Note_on_c, 9, 42, 0
1, 21360, Note_on_c, 9, 46, 45
1, 21372, Note_on_c, 9, 46, 0
1, 21599, Note_on_c, 9, 35, 0
1, 21600, Note_on_c, 9, 38, 100
1, 21600, Note_on_c, 9, 42, 65
1, 21612, Note_on_c, 9, 42, 0
1, 21839, Note_on_c, 9, 38, 0
1, 21840, Note_on_c, 9, 46, 51
1, 21840, Note_on_c, 9, 35, 95
1, 21852, Note_on_c, 9, 46, 0
1, 22079, Note_on_c, 9, 35, 0
1, 22080, Note_on_c, 9, 42, 72
1, 22080, Note_on_c, 9, 35, 107
1, 22092, Note_on_c, 9, 42, 0
1, 22320, Note_on_c, 9, 46, 51
1, 22332, Note_on_c, 9, 46, 0
1, 22559, Note_on_c, 9, 35, 0
1, 22560, Note_on_c, 9, 38, 100
1, 22560, Note_on_c, 9, 42, 62
1, 22572, Note_on_c, 9, 42, 0
1, 22799, Note_on_c, 9, 38, 0
1, 22800, Note_on_c, 9, 46, 56
1, 22812, Note_on_c, 9, 46, 0
1, 23040, Note_on_c, 9, 51, 62
1, 23040, Note_on_c, 9, 53, 62
1, 23040, Note_on_c, 9, 42, 70
1, 23040, Note_on_c, 9, 35, 107
1, 23052, Note_on_c, 9, 51, 0
1, 23052, Note_on_c, 9, 42, 0
1, 23279, Note_on_c, 9, 53, 0
1, 23280, Note_on_c, 9, 42, 45
1, 23292, Note_on_c, 9, 42, 0
1, 23519, Note_on_c, 9, 35, 0
1, 23520, Note_on_c, 9, 38, 100
1, 23520, Note_on_c, 9, 42, 70
1, 23532, Note_on_c, 9, 42, 0
1, 23759, Note_on_c, 9, 38, 0
1, 23760, Note_on_c, 9, 42, 47
1, 23760, Note_on_c, 9, 35, 98
1, 23772, Note_on_c, 9, 42, 0
1, 23999, Note_on_c, 9, 35, 0
1, 24000, Note_on_c, 9, 42, 68
1, 24000, Note_on_c, 9, 35, 107
1, 24012, Note_on_c, 9, 42, 0
1, 24240, Note_on_c, 9, 42, 52
1, 24252, Note_on_c, 9, 42, 0
1, 24479, Note_on_c, 9, 35, 0
1, 24480, Note_on_c, 9, 38, 100
1, 24480, Note_on_c, 9, 42, 65
1, 24492, Note_on_c, 9, 42, 0
1, 24719, Note_on_c, 9, 38, 0
1, 24720, Note_on_c, 9, 46, 52
1, 24732, Note_on_c, 9, 46, 0
1, 24960, Note_on_c, 9, 42, 67
1, 24960, Note_on_c, 9, 35, 107
1, 24972, Note_on_c, 9, 42, 0
1, 25200, Note_on_c, 9, 42, 46
1, 25212, Note_on_c, 9, 42, 0
1, 25439, Note_on_c, 9, 35, 0
1, 25440, Note_on_c, 9, 38, 100
1, 25440, Note_on_c, 9, 42, 54
1, 25452, Note_on_c, 9, 42, 0
1, 25679, Note_on_c, 9, 38, 0
1, 25680, Note_on_c, 9, 42, 49
1, 25680, Note_on_c, 9, 35, 100
1, 25692, Note_on_c, 9, 42, 0
1, 25919, Note_on_c, 9, 35, 0
1, 25920, Note_on_c, 9, 42, 68
1, 25920, Note_on_c, 9, 35, 107
1, 25932, Note_on_c, 9, 42, 0
1, 26160, Note_on_c, 9, 42, 47
1, 26172, Note_on_c, 9, 42, 0
1, 26399, Note_on_c, 9, 35, 0
1, 26400, Note_on_c, 9, 38, 100
1, 26400, Note_on_c, 9, 42, 68
1, 26412, Note_on_c, 9, 42, 0
1, 26639, Note_on_c, 9, 38, 0
1, 26640, Note_on_c, 9, 46, 58
1, 26640, Note_on_c, 9, 35, 107
1, 26652, Note_on_c, 9, 46, 0
1, 26879, Note_on_c, 9, 35, 0
1, 26880, Note_on_c, 9, 51, 57
1, 26880, Note_on_c, 9, 53, 57
1, 26880, Note_on_c, 9, 42, 70
1, 26880, Note_on_c, 9, 35, 107
1, 26892, Note_on_c, 9, 51, 0
1, 26892, Note_on_c, 9, 42, 0
1, 27119, Note_on_c, 9, 53, 0
1, 27120, Note_on_c, 9, 42, 41
1, 27132, Note_on_c, 9, 42, 0
1, 27359, Note_on_c, 9, 35, 0
1, 27360, Note_on_c, 9, 38, 100
1, 27360, Note_on_c, 9, 42, 74
1, 27372, Note_on_c, 9, 42, 0
1, 27599, Note_on_c, 9, 38, 0
1, 27600, Note_on_c, 9, 42, 44
1, 27600, Note_on_c, 9, 35, 98
1, 27612, Note_on_c, 9, 42, 0
1, 27839, Note_on_c, 9, 35, 0
1, 27840, Note_on_c, 9, 42, 74
1, 27840, Note_on_c, 9, 35, 107
1, 27852, Note_on_c, 9, 42, 0
1, 28080, Note_on_c, 9, 42, 38
1, 28092, Note_on_c, 9, 42, 0
1, 28319, Note_on_c, 9, 35, 0
1, 28320, Note_on_c, 9, 38, 100
1, 28320, Note_on_c, 9, 42, 70
1, 28332, Note_on_c, 9, 42, 0
1, 28559, Note_on_c, 9, 38, 0
1, 28560, Note_on_c, 9, 46, 61
1, 28572, Note_on_c, 9, 46, 0
1, 28800, Note_on_c, 9, 42, 72
1, 28800, Note_on_c, 9, 35, 107
1, 28812, Note_on_c, 9, 42, 0
1, 29040, Note_on_c, 9, 46, 54
1, 29052, Note_on_c, 9, 46, 0
1, 29279, Note_on_c, 9, 35, 0
1, 29280, Note_on_c, 9, 38, 100
1, 29280, Note_on_c, 9, 42, 54
1, 29292, Note_on_c, 9, 42, 0
1, 29519, Note_on_c, 9, 38, 0
1, 29520, Note_on_c, 9, 46, 49
1, 29520, Note_on_c, 9, 35, 107
1, 29532, Note_on_c, 9, 46, 0
1, 29759, Note_on_c, 9, 35, 0
1, 29760, Note_on_c, 9, 42, 65
1, 29760, Note_on_c, 9, 35, 107
1, 29772, Note_on_c, 9, 42, 0
1, 30000, Note_on_c, 9, 46, 39
1, 30012, Note_on_c, 9, 46, 0
1, 30239, Note_on_c, 9, 35, 0
1, 30240, Note_on_c, 9, 38, 100
1, 30240, Note_on_c, 9, 42, 65
1, 30252, Note_on_c, 9, 42, 0
1, 30479, Note_on_c, 9, 38, 0
1, 30480, Note_on_c, 9, 46, 49
1, 30480, Note_on_c, 9, 35, 107
1, 30492, Note_on_c, 9, 46, 0
1, 30719, Note_on_c, 9, 35, 0
1, 30720, Note_on_c, 9, 51, 59
1, 30720, Note_on_c, 9, 42, 74
1, 30720, Note_on_c, 9, 35, 107
1, 30732, Note_on_c, 9, 51, 0
1, 30732, Note_on_c, 9, 42, 0
1, 30960, Note_on_c, 9, 42, 31
1, 30972, Note_on_c, 9, 42, 0
1, 31199, Note_on_c, 9, 35, 0
1, 31200, Note_on_c, 9, 38, 100
1, 31200, Note_on_c, 9, 42, 68
1, 31212, Note_on_c, 9, 42, 0
1, 31439, Note_on_c, 9, 38, 0
1, 31440, Note_on_c, 9, 42, 45
1, 31440, Note_on_c, 9, 35, 107
1, 31452, Note_on_c, 9, 42, 0
1, 31679, Note_on_c, 9, 35, 0
1, 31680, Note_on_c, 9, 42, 70
1, 31680, Note_on_c, 9, 35, 107
1, 31692, Note_on_c, 9, 42, 0
1, 31920, Note_on_c, 9, 42, 47
1, 31932, Note_on_c, 9, 42, 0
1, 32159, Note_on_c, 9, 35, 0
1, 32160, Note_on_c, 9, 38, 100
1, 32160, Note_on_c, 9, 42, 66
1, 32172, Note_on_c, 9, 42, 0
1, 32399, Note_on_c, 9, 38, 0
1, 32400, Note_on_c, 9, 46, 56
1, 32412, Note_on_c, 9, 46, 0
1, 32640, Note_on_c, 9, 42, 72
1, 32640, Note_on_c, 9, 35, 107
1, 32652, Note_on_c, 9, 42, 0
1, 32880, Note_on_c, 9, 42, 44
1, 32892, Note_on_c, 9, 42, 0
1, 33119, Note_on_c, 9, 35, 0
1, 33120, Note_on_c, 9, 38, 100
1, 33120, Note_on_c, 9, 42, 62
1, 33132, Note_on_c, 9, 42, 0
1, 33359, Note_on_c, 9, 38, 0
1, 33360, Note_on_c, 9, 42, 48
1, 33360, Note_on_c, 9, 35, 107
1, 33372, Note_on_c, 9, 42, 0
1, 33599, Note_on_c, 9, 35, 0
1, 33600, Note_on_c, 9, 42, 65
1, 33600, Note_on_c, 9, 35, 107
1, 33612, Note_on_c, 9, 42, 0
1, 33840, Note_on_c, 9, 42, 52
1, 33845, Note_on_c, 9, 42, 0
1, 33960, Note_on_c, 9, 42, 45
1, 33965, Note_on_c, 9, 42, 0
1, 34079, Note_on_c, 9, 35, 0
1, 34080, Note_on_c, 9, 38, 100
1, 34080, Note_on_c, 9, 42, 50
1, 34092, Note_on_c, 9, 42, 0
1, 34319, Note_on_c, 9, 38, 0
1, 34320, Note_on_c, 9, 46, 56
1, 34320, Note_on_c, 9, 51, 59
1, 34320, Note_on_c, 9, 35, 107
1, 34332, Note_on_c, 9, 46, 0
1, 34332, Note_on_c, 9, 51, 0
1, 34559, Note_on_c, 9, 35, 0
1, 34560, Note_on_c, 9, 42, 72
1, 34560, Note_on_c, 9, 49, 68
1, 34560, Note_on_c, 9, 35, 107
1, 34572, Note_on_c, 9, 42, 0
1, 34572, Note_on_c, 9, 49, 0
1, 34800, Note_on_c, 9, 51, 58
1, 34800, Note_on_c, 9, 42, 47
1, 34812, Note_on_c, 9, 51, 0
1, 34812, Note_on_c, 9, 42, 0
1, 35039, Note_on_c, 9, 35, 0
1, 35040, Note_on_c, 9, 38, 100
1, 35040, Note_on_c, 9, 42, 62
1, 35052, Note_on_c, 9, 42, 0
1, 35279, Note_on_c, 9, 38, 0
1, 35280, Note_on_c, 9, 51, 60
1, 35280, Note_on_c, 9, 42, 41
1, 35280, Note_on_c, 9, 35, 106
1, 35292, Note_on_c, 9, 51, 0
1, 35292, Note_on_c, 9, 42, 0
1, 35519, Note_on_c, 9, 35, 0
1, 35520, Note_on_c, 9, 42, 74
1, 35532, Note_on_c, 9, 42, 0
1, 35760, Note_on_c, 9, 51, 59
1, 35760, Note_on_c, 9, 42, 49
1, 35760, Note_on_c, 9, 35, 98
1, 35772, Note_on_c, 9, 51, 0
1, 35772, Note_on_c, 9, 42, 0
1, 35999, Note_on_c, 9, 35, 0
1, 36000, Note_on_c, 9, 38, 100
1, 36000, Note_on_c, 9, 42, 65
1, 36012, Note_on_c, 9, 42, 0
1, 36239, Note_on_c, 9, 38, 0
1, 36240, Note_on_c, 9, 51, 59
1, 36240, Note_on_c, 9, 42, 41
1, 36240, Note_on_c, 9, 35, 100
1, 36252, Note_on_c, 9, 51, 0
1, 36252, Note_on_c, 9, 42, 0
1, 36479, Note_on_c, 9, 35, 0
1, 36480, Note_on_c, 9, 42, 68
1, 36480, Note_on_c, 9, 35, 107
1, 36492, Note_on_c, 9, 42, 0
1, 36720, Note_on_c, 9, 51, 59
1, 36720, Note_on_c, 9, 42, 40
1, 36732, Note_on_c, 9, 51, 0
1, 36732, Note_on_c, 9, 42, 0
1, 36959, Note_on_c, 9, 35, 0
1, 36960, Note_on_c, 9, 38, 100
1, 36960, Note_on_c, 9, 42, 65
1, 36972, Note_on_c, 9, 42, 0
1, 37199, Note_on_c, 9, 38, 0
1, 37200, Note_on_c, 9, 51, 59
1, 37200, Note_on_c, 9, 42, 38
1, 37200, Note_on_c, 9, 35, 104
1, 37212, Note_on_c, 9, 51, 0
1, 37212, Note_on_c, 9, 42, 0
1, 37439, Note_on_c, 9, 35, 0
1, 37440, Note_on_c, 9, 42, 65
1, 37452, Note_on_c, 9, 42, 0
1, 37680, Note_on_c, 9, 51, 59
1, 37680, Note_on_c, 9, 42, 45
1, 37680, Note_on_c, 9, 35, 107
1, 37692, Note_on_c, 9, 51, 0
1, 37692, Note_on_c, 9, 42, 0
1, 37919, Note_on_c, 9, 35, 0
1, 37920, Note_on_c, 9, 38, 100
1, 37920, Note_on_c, 9, 42, 68
1, 37932, Note_on_c, 9, 42, 0
1, 38159, Note_on_c, 9, 38, 0
1, 38160, Note_on_c, 9, 51, 59
1, 38160, Note_on_c, 9, 42, 41
1, 38160, Note_on_c, 9, 35, 102
1, 38172, Note_on_c, 9, 51, 0
1, 38172, Note_on_c, 9, 42, 0
1, 38399, Note_on_c, 9, 35, 0
1, 38400, Note_on_c, 9, 42, 66
1, 38400, Note_on_c, 9, 35, 107
1, 38412, Note_on_c, 9, 42, 0
1, 38640, Note_on_c, 9, 51, 62
1, 38640, Note_on_c, 9, 42, 43
1, 38652, Note_on_c, 9, 51, 0
1, 38652, Note_on_c, 9, 42, 0
1, 38879, Note_on_c, 9, 35, 0
1, 38880, Note_on_c, 9, 38, 100
1, 38880, Note_on_c, 9, 42, 65
1, 38892, Note_on_c, 9, 42, 0
1, 39119, Note_on_c, 9, 38, 0
1, 39120, Note_on_c, 9, 51, 59
1, 39120, Note_on_c, 9, 42, 41
1, 39120, Note_on_c, 9, 35, 98
1, 39132, Note_on_c, 9, 51, 0
1, 39132, Note_on_c, 9, 42, 0
1, 39359, Note_on_c, 9, 35, 0
1, 39360, Note_on_c, 9, 42, 62
1, 39372, Note_on_c, 9, 42, 0
1, 39600, Note_on_c, 9, 51, 59
1, 39600, Note_on_c, 9, 42, 45
1, 39600, Note_on_c, 9, 35, 100
1, 39612, Note_on_c, 9, 51, 0
1, 39612, Note_on_c, 9, 42, 0
1, 39839, Note_on_c, 9, 35, 0
1, 39840, Note_on_c, 9, 38, 100
1, 39840, Note_on_c, 9, 42, 65
1, 39852, Note_on_c, 9, 42, 0
1, 40079, Note_on_c, 9, 38, 0
1, 40080, Note_on_c, 9, 51, 59
1, 40080, Note_on_c, 9, 42, 41
1, 40080, Note_on_c, 9, 35, 95
1, 40092, Note_on_c, 9, 51, 0
1, 40092, Note_on_c, 9, 42, 0
1, 40319, Note_on_c, 9, 35, 0
1, 40320, Note_on_c, 9, 42, 66
1, 40320, Note_on_c, 9, 35, 107
1, 40332, Note_on_c, 9, 42, 0
1, 40560, Note_on_c, 9, 51, 57
1, 40560, Note_on_c, 9, 42, 39
1, 40572, Note_on_c, 9, 51, 0
1, 40572, Note_on_c, 9, 42, 0
1, 40799, Note_on_c, 9, 35, 0
1, 40800, Note_on_c, 9, 38, 100
1, 40800, Note_on_c, 9, 42, 62
1, 40812, Note_on_c, 9, 42, 0
1, 41039, Note_on_c, 9, 38, 0
1, 41040, Note_on_c, 9, 51, 60
1, 41040, Note_on_c, 9, 42, 41
1, 41040, Note_on_c, 9, 35, 104
1, 41052, Note_on_c, 9, 51, 0
1, 41052, Note_on_c, 9, 42, 0
1, 41279, Note_on_c, 9, 35, 0
1, 41280, Note_on_c, 9, 42, 61
1, 41292, Note_on_c, 9, 42, 0
1, 41520, Note_on_c, 9, 51, 59
1, 41520, Note_on_c, 9, 42, 40
1, 41532, Note_on_c, 9, 51, 0
1, 41532, Note_on_c, 9, 42, 0
1, 41760, Note_on_c, 9, 38, 100
1, 41760, Note_on_c, 9, 42, 65
1, 41772, Note_on_c, 9, 42, 0
1, 41999, Note_on_c, 9, 38, 0
1, 42000, Note_on_c, 9, 46, 37
1, 42000, Note_on_c, 9, 51, 57
1, 42000, Note_on_c, 9, 35, 102
1, 42012, Note_on_c, 9, 46, 0
1, 42012, Note_on_c, 9, 51, 0
1, 42239, Note_on_c, 9, 35, 0
1, 42240, Note_on_c, 9, 42, 74
1, 42240, Note_on_c, 9, 52, 84
1, 42240, Note_on_c, 9, 35, 107
1, 42252, Note_on_c, 9, 42, 0
1, 42252, Note_on_c, 9, 52, 0
1, 42480, Note_on_c, 9, 51, 57
1, 42480, Note_on_c, 9, 42, 44
1, 42492, Note_on_c, 9, 51, 0
1, 42492, Note_on_c, 9, 42, 0
1, 42719, Note_on_c, 9, 35, 0
1, 42720, Note_on_c, 9, 38, 100
1, 42720, Note_on_c, 9, 42, 65
1, 42732, Note_on_c, 9, 42, 0
1, 42959, Note_on_c, 9, 38, 0
1, 42960, Note_on_c, 9, 51, 59
1, 42960, Note_on_c, 9, 42, 47
1, 42960, Note_on_c, 9, 35, 107
1, 42972, Note_on_c, 9, 51, 0
1, 42972, Note_on_c, 9, 42, 0
1, 43199, Note_on_c, 9, 35, 0
1, 43200, Note_on_c, 9, 42, 74
1, 43212, Note_on_c, 9, 42, 0
1, 43440, Note_on_c, 9, 51, 59
1, 43440, Note_on_c, 9, 42, 40
1, 43452, Note_on_c, 9, 51, 0
1, 43452, Note_on_c, 9, 42, 0
1, 43680, Note_on_c, 9, 38, 100
1, 43680, Note_on_c, 9, 42, 66
1, 43692, Note_on_c, 9, 42, 0
1, 43919, Note_on_c, 9, 38, 0
1, 43920, Note_on_c, 9, 51, 59
1, 43920, Note_on_c, 9, 42, 52
1, 43920, Note_on_c, 9, 35, 93
1, 43932, Note_on_c, 9, 51, 0
1, 43932, Note_on_c, 9, 42, 0
1, 44159, Note_on_c, 9, 35, 0
1, 44160, Note_on_c, 9, 42, 62
1, 44160, Note_on_c, 9, 35, 107
1, 44172, Note_on_c, 9, 42, 0
1, 44400, Note_on_c, 9, 51, 57
1, 44400, Note_on_c, 9, 42, 42
1, 44412, Note_on_c, 9, 51, 0
1, 44412, Note_on_c, 9, 42, 0
1, 44639, Note_on_c, 9, 35, 0
1, 44640, Note_on_c, 9, 38, 100
1, 44640, Note_on_c, 9, 42, 58
1, 44652, Note_on_c, 9, 42, 0
1, 44879, Note_on_c, 9, 38, 0
1, 44880, Note_on_c, 9, 53, 71
1, 44880, Note_on_c, 9, 42, 48
1, 44880, Note_on_c, 9, 35, 107
1, 44892, Note_on_c, 9, 42, 0
1, 45119, Note_on_c, 9, 53, 0
1, 45119, Note_on_c, 9, 35, 0
1, 45120, Note_on_c, 9, 42, 66
1, 45132, Note_on_c, 9, 42, 0
1, 45360, Note_on_c, 9, 46, 52
1, 45360, Note_on_c, 9, 51, 62
1, 45360, Note_on_c, 9, 35, 107
1, 45372, Note_on_c, 9, 46, 0
1, 45372, Note_on_c, 9, 51, 0
1, 45599, Note_on_c, 9, 35, 0
1, 45600, Note_on_c, 9, 38, 100
1, 45600, Note_on_c, 9, 42, 49
1, 45612, Note_on_c, 9, 42, 0
1, 45839, Note_on_c, 9, 38, 0
1, 45840, Note_on_c, 9, 46, 52
1, 45840, Note_on_c, 9, 51, 60
1, 45840, Note_on_c, 9, 35, 100
1, 45852, Note_on_c, 9, 46, 0
1, 45852, Note_on_c, 9, 51, 0
1, 46079, Note_on_c, 9, 35, 0
1, 46080, Note_on_c, 9, 42, 74
1, 46080, Note_on_c, 9, 57, 73
1, 46080, Note_on_c, 9, 35, 107
1, 46092, Note_on_c, 9, 42, 0
1, 46092, Note_on_c, 9, 57, 0
1, 46320, Note_on_c, 9, 42, 36
1, 46332, Note_on_c, 9, 42, 0
1, 46559, Note_on_c, 9, 35, 0
1, 46560, Note_on_c, 9, 38, 100
1, 46560, Note_on_c, 9, 42, 74
1, 46572, Note_on_c, 9, 42, 0
1, 46799, Note_on_c, 9, 38, 0
1, 46800, Note_on_c, 9, 42, 47
1, 46800, Note_on_c, 9, 35, 91
1, 46812, Note_on_c, 9, 42, 0
1, 47039, Note_on_c, 9, 35, 0
1, 47040, Note_on_c, 9, 42, 74
1, 47040, Note_on_c, 9, 35, 107
1, 47052, Note_on_c, 9, 42, 0
1, 47280, Note_on_c, 9, 42, 49
1, 47292, Note_on_c, 9, 42, 0
1, 47519, Note_on_c, 9, 35, 0
1, 47520, Note_on_c, 9, 38, 100
1, 47520, Note_on_c, 9, 42, 74
1, 47532, Note_on_c, 9, 42, 0
1, 47759, Note_on_c, 9, 38, 0
1, 47760, Note_on_c, 9, 42, 49
1, 47772, Note_on_c, 9, 42, 0
1, 48000, Note_on_c, 9, 42, 74
1, 48000, Note_on_c, 9, 35, 107
1, 48012, Note_on_c, 9, 42, 0
1, 48240, Note_on_c, 9, 42, 59
1, 48252, Note_on_c, 9, 42, 0
1, 48479, Note_on_c, 9, 35, 0
1, 48480, Note_on_c, 9, 38, 100
1, 48480, Note_on_c, 9, 42, 70
1, 48492, Note_on_c, 9, 42, 0
1, 48719, Note_on_c, 9, 38, 0
1, 48720, Note_on_c, 9, 46, 59
1, 48720, Note_on_c, 9, 35, 107
1, 48732, Note_on_c, 9, 46, 0
1, 48959, Note_on_c, 9, 35, 0
1, 48960, Note_on_c, 9, 42, 54
1, 48972, Note_on_c, 9, 42, 0
1, 49200, Note_on_c, 9, 46, 51
1, 49200, Note_on_c, 9, 35, 107
1, 49212, Note_on_c, 9, 46, 0
1, 49439, Note_on_c, 9, 35, 0
1, 49440, Note_on_c, 9, 38, 100
1, 49440, Note_on_c, 9, 42, 67
1, 49452, Note_on_c, 9, 42, 0
1, 49679, Note_on_c, 9, 38, 0
1, 49680, Note_on_c, 9, 46, 52
1, 49680, Note_on_c, 9, 35, 100
1, 49692, Note_on_c, 9, 46, 0
1, 49919, Note_on_c, 9, 35, 0
1, 49920, Note_on_c, 9, 51, 54
1, 49920, Note_on_c, 9, 53, 66
1, 49920, Note_on_c, 9, 42, 74
1, 49920, Note_on_c, 9, 35, 107
1, 49932, Note_on_c, 9, 51, 0
1, 49932, Note_on_c, 9, 42, 0
1, 50159, Note_on_c, 9, 53, 0
1, 50160, Note_on_c, 9, 42, 48
1, 50172, Note_on_c, 9, 42, 0
1, 50399, Note_on_c, 9, 35, 0
1, 50400, Note_on_c, 9, 38, 100
1, 50400, Note_on_c, 9, 42, 67
1, 50412, Note_on_c, 9, 42, 0
1, 50639, Note_on_c, 9, 38, 0
1, 50640, Note_on_c, 9, 42, 46
1, 50640, Note_on_c, 9, 35, 104
1, 50652, Note_on_c, 9, 42, 0
1, 50879, Note_on_c, 9, 35, 0
1, 50880, Note_on_c, 9, 42, 70
1, 50880, Note_on_c, 9, 35, 107
1, 50892, Note_on_c, 9, 42, 0
1, 51120, Note_on_c, 9, 42, 45
1, 51132, Note_on_c, 9, 42, 0
1, 51359, Note_on_c, 9, 35, 0
1, 51360, Note_on_c, 9, 38, 100
1, 51360, Note_on_c, 9, 42, 66
1, 51372, Note_on_c, 9, 42, 0
1, 51599, Note_on_c, 9, 38, 0
1, 51600, Note_on_c, 9, 42, 49
1, 51600, Note_on_c, 9, 35, 104
1, 51612, Note_on_c, 9, 42, 0
1, 51839, Note_on_c, 9, 35, 0
1, 51840, Note_on_c, 9, 42, 72
1, 51840, Note_on_c, 9, 35, 107
1, 51852, Note_on_c, 9, 42, 0
1, 52080, Note_on_c, 9, 38, 74
1, 52080, Note_on_c, 9, 46, 12
1, 52092, Note_on_c, 9, 46, 0
1, 52319, Note_on_c, 9, 35, 0
1, 52319, Note_on_c, 9, 38, 0
1, 52320, Note_on_c, 9, 38, 72
1, 52320, Note_on_c, 9, 46, 23
1, 52332, Note_on_c, 9, 46, 0
1, 52559, Note_on_c, 9, 38, 0
1, 52560, Note_on_c, 9, 38, 89
1, 52560, Note_on_c, 9, 46, 28
1, 52572, Note_on_c, 9, 46, 0
1, 52799, Note_on_c, 9, 38, 0
1, 52800, Note_on_c, 9, 38, 102
1, 52800, Note_on_c, 9, 46, 36
1, 52812, Note_on_c, 9, 46, 0
1, 53039, Note_on_c, 9, 38, 0
1, 53040, Note_on_c, 9, 38, 91
1, 53040, Note_on_c, 9, 46, 45
1, 53052, Note_on_c, 9, 46, 0
1, 53279, Note_on_c, 9, 38, 0
1, 53280, Note_on_c, 9, 38, 97
1, 53280, Note_on_c, 9, 46, 56
1, 53292, Note_on_c, 9, 46, 0
1, 53519, Note_on_c, 9, 38, 0
1, 53520, Note_on_c, 9, 38, 99
1, 53520, Note_on_c, 9, 46, 61
1, 53520, Note_on_c, 9, 51, 58
1, 53532, Note_on_c, 9, 46, 0
1, 53532, Note_on_c, 9, 51, 0
1, 53759, Note_on_c, 9, 38, 0
1, 53760, Note_on_c, 9, 42, 74
1, 53760, Note_on_c, 9, 55, 75
1, 53760, Note_on_c, 9, 35, 107
1, 53772, Note_on_c, 9, 42, 0
1, 53772, Note_on_c, 9, 55, 0
1, 54000, Note_on_c, 9, 42, 39
1, 54012, Note_on_c, 9, 42, 0
1, 54239, Note_on_c, 9, 35, 0
1, 54240, Note_on_c, 9, 38, 100
1, 54240, Note_on_c, 9, 42, 67
1, 54252, Note_on_c, 9, 42, 0
1, 54479, Note_on_c, 9, 38, 0
1, 54480, Note_on_c, 9, 42, 49
1, 54480, Note_on_c, 9, 35, 95
1, 54492, Note_on_c, 9, 42, 0
1, 54719, Note_on_c, 9, 35, 0
1, 54720, Note_on_c, 9, 42, 74
1, 54720, Note_on_c, 9, 35, 107
1, 54732, Note_on_c, 9, 42, 0
1, 54960, Note_on_c, 9, 42, 46
1, 54972, Note_on_c, 9, 42, 0
1, 55199, Note_on_c, 9, 35, 0
1, 55200, Note_on_c, 9, 38, 100
1, 55200, Note_on_c, 9, 42, 74
1, 55212, Note_on_c, 9, 42, 0
1, 55439, Note_on_c, 9, 38, 0
1, 55440, Note_on_c, 9, 46, 56
1, 55440, Note_on_c, 9, 35, 93
1, 55452, Note_on_c, 9, 46, 0
1, 55679, Note_on_c, 9, 35, 0
1, 55680, Note_on_c, 9, 42, 65
1, 55680, Note_on_c, 9, 35, 107
1, 55692, Note_on_c, 9, 42, 0
1, 55920, Note_on_c, 9, 46, 45
1, 55932, Note_on_c, 9, 46, 0
1, 56159, Note_on_c, 9, 35, 0
1, 56160, Note_on_c, 9, 38, 100
1, 56160, Note_on_c, 9, 42, 62
1, 56172, Note_on_c, 9, 42, 0
1, 56399, Note_on_c, 9, 38, 0
1, 56400, Note_on_c, 9, 46, 51
1, 56400, Note_on_c, 9, 35, 102
1, 56412, Note_on_c, 9, 46, 0
1, 56639, Note_on_c, 9, 35, 0
1, 56640, Note_on_c, 9, 42, 67
1, 56640, Note_on_c, 9, 35, 107
1, 56652, Note_on_c, 9, 42, 0
1, 56880, Note_on_c, 9, 46, 52
1, 56892, Note_on_c, 9, 46, 0
1, 57119, Note_on_c, 9, 35, 0
1, 57120, Note_on_c, 9, 38, 100
1, 57120, Note_on_c, 9, 42, 62
1, 57132, Note_on_c, 9, 42, 0
1, 57359, Note_on_c, 9, 38, 0
1, 57360, Note_on_c, 9, 46, 54
1, 57372, Note_on_c, 9, 46, 0
1, 57600, Note_on_c, 9, 51, 53
1, 57600, Note_on_c, 9, 53, 62
1, 57600, Note_on_c, 9, 42, 62
1, 57600, Note_on_c, 9, 35, 107
1, 57612, Note_on_c, 9, 51, 0
1, 57612, Note_on_c, 9, 42, 0
1, 57839, Note_on_c, 9, 53, 0
1, 57840, Note_on_c, 9, 42, 61
1, 57852, Note_on_c, 9, 42, 0
1, 58079, Note_on_c, 9, 35, 0
1, 58080, Note_on_c, 9, 38, 100
1, 58080, Note_on_c, 9, 42, 70
1, 58092, Note_on_c, 9, 42, 0
1, 58319, Note_on_c, 9, 38, 0
1, 58320, Note_on_c, 9, 42, 44
1, 58320, Note_on_c, 9, 35, 100
1, 58332, Note_on_c, 9, 42, 0
1, 58559, Note_on_c, 9, 35, 0
1, 58560, Note_on_c, 9, 42, 72
1, 58560, Note_on_c, 9, 35, 107
1, 58572, Note_on_c, 9, 42, 0
1, 58800, Note_on_c, 9, 42, 42
1, 58812, Note_on_c, 9, 42, 0
1, 59039, Note_on_c, 9, 35, 0
1, 59040, Note_on_c, 9, 38, 100
1, 59040, Note_on_c, 9, 42, 72
1, 59052, Note_on_c, 9, 42, 0
1, 59279, Note_on_c, 9, 38, 0
1, 59280, Note_on_c, 9, 46, 56
1, 59292, Note_on_c, 9, 46, 0
1, 59520, Note_on_c, 9, 42, 74
1, 59520, Note_on_c, 9, 35, 107
1, 59532, Note_on_c, 9, 42, 0
1, 59760, Note_on_c, 9, 42, 44
1, 59772, Note_on_c, 9, 42, 0
1, 59999, Note_on_c, 9, 35, 0
1, 60000, Note_on_c, 9, 38, 100
1, 60000, Note_on_c, 9, 42, 65
1, 60012, Note_on_c, 9, 42, 0
1, 60239, Note_on_c, 9, 38, 0
1, 60240, Note_on_c, 9, 42, 42
1, 60240, Note_on_c, 9, 35, 98
1, 60252, Note_on_c, 9, 42, 0
1, 60479, Note_on_c, 9, 35, 0
1, 60480, Note_on_c, 9, 42, 74
1, 60480, Note_on_c, 9, 35, 107
1, 60492, Note_on_c, 9, 42, 0
1, 60720, Note_on_c, 9, 42, 44
1, 60732, Note_on_c, 9, 42, 0
1, 60959, Note_on_c, 9, 35, 0
1, 60960, Note_on_c, 9, 38, 100
1, 60960, Note_on_c, 9, 42, 66
1, 60972, Note_on_c, 9, 42, 0
1, 61199, Note_on_c, 9, 38, 0
1, 61200, Note_on_c, 9, 46, 44
1, 61200, Note_on_c, 9, 35, 107
1, 61212, Note_on_c, 9, 46, 0
1, 61439, Note_on_c, 9, 35, 0
1, 61440, Note_on_c, 9, 42, 74
1, 61440, Note_on_c, 9, 49, 63
1, 61440, Note_on_c, 9, 35, 107
1, 61452, Note_on_c, 9, 42, 0
1, 61452, Note_on_c, 9, 49, 0
1, 61680, Note_on_c, 9, 42, 42
1, 61692, Note_on_c, 9, 42, 0
1, 61919, Note_on_c, 9, 35, 0
1, 61920, Note_on_c, 9, 38, 100
1, 61920, Note_on_c, 9, 42, 74
1, 61932, Note_on_c, 9, 42, 0
1, 62159, Note_on_c, 9, 38, 0
1, 62160, Note_on_c, 9, 42, 45
1, 62160, Note_on_c, 9, 35, 93
1, 62172, Note_on_c, 9, 42, 0
1, 62399, Note_on_c, 9, 35, 0
1, 62400, Note_on_c, 9, 42, 74
1, 62400, Note_on_c, 9, 35, 107
1, 62412, Note_on_c, 9, 42, 0
1, 62640, Note_on_c, 9, 42, 47
1, 62652, Note_on_c, 9, 42, 0
1, 62879, Note_on_c, 9, 35, 0
1, 62880, Note_on_c, 9, 38, 100
1, 62880, Note_on_c, 9, 42, 74
1, 62892, Note_on_c, 9, 42, 0
1, 63119, Note_on_c, 9, 38, 0
1, 63120, Note_on_c, 9, 46, 61
1, 63132, Note_on_c, 9, 46, 0
1, 63360, Note_on_c, 9, 51, 57
1, 63360, Note_on_c, 9, 42, 67
1, 63360, Note_on_c, 9, 35, 107
1, 63372, Note_on_c, 9, 51, 0
1, 63372, Note_on_c, 9, 42, 0
1, 63600, Note_on_c, 9, 46, 52
1, 63612, Note_on_c, 9, 46, 0
1, 63839, Note_on_c, 9, 35, 0
1, 63840, Note_on_c, 9, 38, 100
1, 63840, Note_on_c, 9, 42, 65
1, 63852, Note_on_c, 9, 42, 0
1, 64079, Note_on_c, 9, 38, 0
1, 64080, Note_on_c, 9, 46, 58
1, 64080, Note_on_c, 9, 35, 98
1, 64092, Note_on_c, 9, 46, 0
1, 64319, Note_on_c, 9, 35, 0
1, 64320, Note_on_c, 9, 42, 65
1, 64320, Note_on_c, 9, 35, 107
1, 64332, Note_on_c, 9, 42, 0
1, 64559, Note_on_c, 9, 35, 0
1, 64560, Note_on_c, 9, 46, 47
1, 64560, Note_on_c, 9, 35, 100
1, 64572, Note_on_c, 9, 46, 0
1, 64799, Note_on_c, 9, 35, 0
1, 64800, Note_on_c, 9, 38, 100
1, 64800, Note_on_c, 9, 42, 66
1, 64812, Note_on_c, 9, 42, 0
1, 65039, Note_on_c, 9, 38, 0
1, 65040, Note_on_c, 9, 46, 47
1, 65040, Note_on_c, 9, 35, 91
1, 65052, Note_on_c, 9, 46, 0
1, 65279, Note_on_c, 9, 35, 0
1, 65280, Note_on_c, 9, 51, 60
1, 65280, Note_on_c, 9, 42, 74
1, 65280, Note_on_c, 9, 35, 107
1, 65292, Note_on_c, 9, 51, 0
1, 65292, Note_on_c, 9, 42, 0
1, 65520, Note_on_c, 9, 42, 45
1, 65532, Note_on_c, 9, 42, 0
1, 65759, Note_on_c, 9, 35, 0
1, 65760, Note_on_c, 9, 38, 100
1, 65760, Note_on_c, 9, 42, 66
1, 65772, Note_on_c, 9, 42, 0
1, 65999, Note_on_c, 9, 38, 0
1, 66000, Note_on_c, 9, 42, 43
1, 66000, Note_on_c, 9, 35, 98
1, 66012, Note_on_c, 9, 42, 0
1, 66239, Note_on_c, 9, 35, 0
1, 66240, Note_on_c, 9, 42, 66
1, 66240, Note_on_c, 9, 35, 107
1, 66252, Note_on_c, 9, 42, 0
1, 66480, Note_on_c, 9, 46, 62
1, 66492, Note_on_c, 9, 46, 0
1, 66719, Note_on_c, 9, 35, 0
1, 66720, Note_on_c, 9, 38, 100
1, 66720, Note_on_c, 9, 42, 62
1, 66732, Note_on_c, 9, 42, 0
1, 66959, Note_on_c, 9, 38, 0
1, 66960, Note_on_c, 9, 46, 51
1, 66972, Note_on_c, 9, 46, 0
1, 67200, Note_on_c, 9, 51, 53
1, 67200, Note_on_c, 9, 42, 68
1, 67200, Note_on_c, 9, 35, 107
1, 67212, Note_on_c, 9, 51, 0
1, 67212, Note_on_c, 9, 42, 0
1, 67439, Note_on_c, 9, 35, 0
1, 67440, Note_on_c, 9, 51, 59
1, 67440, Note_on_c, 9, 44, 39
1, 67452, Note_on_c, 9, 51, 0
1, 67452, Note_on_c, 9, 44, 0
1, 67680, Note_on_c, 9, 38, 100
1, 67680, Note_on_c, 9, 44, 41
1, 67692, Note_on_c, 9, 44, 0
1, 67920, Note_on_c, 9, 44, 43
1, 67920, Note_on_c, 9, 35, 107
1, 67932, Note_on_c, 9, 44, 0
1, 68159, Note_on_c, 9, 38, 0
1, 68159, Note_on_c, 9, 35, 0
1, 68160, Note_on_c, 9, 53, 76
1, 68160, Note_on_c, 9, 44, 55
1, 68160, Note_on_c, 9, 35, 107
1, 68172, Note_on_c, 9, 44, 0
1, 68399, Note_on_c, 9, 53, 0
1, 68399, Note_on_c, 9, 35, 0
1, 68400, Note_on_c, 9, 38, 76
1, 68400, Note_on_c, 9, 44, 70
1, 68412, Note_on_c, 9, 44, 0
1, 68519, Note_on_c, 9, 38, 0
1, 68520, Note_on_c, 9, 38, 90
1, 68639, Note_on_c, 9, 38, 0
1, 68640, Note_on_c, 9, 38, 98
1, 68640, Note_on_c, 9, 44, 68
1, 68666, Note_on_c, 9, 44, 0
1, 68879, Note_on_c, 9, 38, 0
1, 68880, Note_on_c, 9, 41, 100
1, 68880, Note_on_c, 9, 46, 62
1, 68892, Note_on_c, 9, 46, 0
1, 69119, Note_on_c, 9, 41, 0
1, 69120, Note_on_c, 9, 42, 74
1, 69120, Note_on_c, 9, 52, 84
1, 69120, Note_on_c, 9, 35, 107
1, 69132, Note_on_c, 9, 42, 0
1, 69132, Note_on_c, 9, 52, 0
1, 69360, Note_on_c, 9, 51, 53
1, 69360, Note_on_c, 9, 42, 40
1, 69372, Note_on_c, 9, 51, 0
1, 69372, Note_on_c, 9, 42, 0
1, 69599, Note_on_c, 9, 35, 0
1, 69600, Note_on_c, 9, 38, 100
1, 69600, Note_on_c, 9, 42, 70
1, 69612, Note_on_c, 9, 42, 0
1, 69839, Note_on_c, 9, 38, 0
1, 69840, Note_on_c, 9, 51, 59
1, 69840, Note_on_c, 9, 42, 44
1, 69840, Note_on_c, 9, 35, 102
1, 69852, Note_on_c, 9, 51, 0
1, 69852, Note_on_c, 9, 42, 0
1, 70079, Note_on_c, 9, 35, 0
1, 70080, Note_on_c, 9, 42, 74
1, 70092, Note_on_c, 9, 42, 0
1, 70320, Note_on_c, 9, 51, 54
1, 70320, Note_on_c, 9, 42, 42
1, 70332, Note_on_c, 9, 51, 0
1, 70332, Note_on_c, 9, 42, 0
1, 70560, Note_on_c, 9, 38, 100
1, 70560, Note_on_c, 9, 42, 66
1, 70572, Note_on_c, 9, 42, 0
1, 70799, Note_on_c, 9, 38, 0
1, 70800, Note_on_c, 9, 51, 59
1, 70800, Note_on_c, 9, 42, 47
1, 70800, Note_on_c, 9, 35, 83
1, 70812, Note_on_c, 9, 51, 0
1, 70812, Note_on_c, 9, 42, 0
1, 71039, Note_on_c, 9, 35, 0
1, 71040, Note_on_c, 9, 42, 67
1, 71040, Note_on_c, 9, 35, 107
1, 71052, Note_on_c, 9, 42, 0
1, 71280, Note_on_c, 9, 51, 52
1, 71280, Note_on_c, 9, 42, 42
1, 71292, Note_on_c, 9, 51, 0
1, 71292, Note_on_c, 9, 42, 0
1, 71519, Note_on_c, 9, 35, 0
1, 71520, Note_on_c, 9, 38, 100
1, 71520, Note_on_c, 9, 51, 34
1, 71520, Note_on_c, 9, 42, 74
1, 71532, Note_on_c, 9, 51, 0
1, 71532, Note_on_c, 9, 42, 0
1, 71759, Note_on_c, 9, 38, 0
1, 71760, Note_on_c, 9, 51, 57
1, 71760, Note_on_c, 9, 42, 47
1, 71760, Note_on_c, 9, 35, 107
1, 71772, Note_on_c, 9, 51, 0
1, 71772, Note_on_c, 9, 42, 0
1, 71999, Note_on_c, 9, 35, 0
1, 72000, Note_on_c, 9, 42, 65
1, 72012, Note_on_c, 9, 42, 0
1, 72240, Note_on_c, 9, 51, 57
1, 72240, Note_on_c, 9, 42, 47
1, 72252, Note_on_c, 9, 51, 0
1, 72252, Note_on_c, 9, 42, 0
1, 72480, Note_on_c, 9, 38, 100
1, 72480, Note_on_c, 9, 42, 66
1, 72492, Note_on_c, 9, 42, 0
1, 72719, Note_on_c, 9, 38, 0
1, 72720, Note_on_c, 9, 46, 52
1, 72720, Note_on_c, 9, 51, 35
1, 72720, Note_on_c, 9, 35, 76
1, 72732, Note_on_c, 9, 46, 0
1, 72732, Note_on_c, 9, 51, 0
1, 72959, Note_on_c, 9, 35, 0
1, 72960, Note_on_c, 9, 51, 54
1, 72960, Note_on_c, 9, 42, 55
1, 72960, Note_on_c, 9, 35, 107
1, 72972, Note_on_c, 9, 51, 0
1, 72972, Note_on_c, 9, 42, 0
1, 73200, Note_on_c, 9, 51, 54
1, 73200, Note_on_c, 9, 42, 44
1, 73212, Note_on_c, 9, 51, 0
1, 73212, Note_on_c, 9, 42, 0
1, 73439, Note_on_c, 9, 35, 0
1, 73440, Note_on_c, 9, 38, 100
1, 73440, Note_on_c, 9, 42, 67
1, 73452, Note_on_c, 9, 42, 0
1, 73679, Note_on_c, 9, 38, 0
1, 73680, Note_on_c, 9, 51, 57
1, 73680, Note_on_c, 9, 42, 46
1, 73680, Note_on_c, 9, 35, 106
1, 73692, Note_on_c, 9, 51, 0
1, 73692, Note_on_c, 9, 42, 0
1, 73919, Note_on_c, 9, 35, 0
1, 73920, Note_on_c, 9, 42, 62
1, 73932, Note_on_c, 9, 42, 0
1, 74160, Note_on_c, 9, 51, 58
1, 74160, Note_on_c, 9, 42, 44
1, 74172, Note_on_c, 9, 51, 0
1, 74172, Note_on_c, 9, 42, 0
1, 74400, Note_on_c, 9, 38, 100
1, 74400, Note_on_c, 9, 42, 66
1, 74412, Note_on_c, 9, 42, 0
1, 74639, Note_on_c, 9, 38, 0
1, 74640, Note_on_c, 9, 51, 49
1, 74640, Note_on_c, 9, 42, 43
1, 74640, Note_on_c, 9, 35, 93
1, 74652, Note_on_c, 9, 51, 0
1, 74652, Note_on_c, 9, 42, 0
1, 74879, Note_on_c, 9, 35, 0
1, 74880, Note_on_c, 9, 51, 54
1, 74880, Note_on_c, 9, 42, 72
1, 74880, Note_on_c, 9, 35, 107
1, 74892, Note_on_c, 9, 51, 0
1, 74892, Note_on_c, 9, 42, 0
1, 75120, Note_on_c, 9, 46, 59
1, 75120, Note_on_c, 9, 51, 44
1, 75132, Note_on_c, 9, 46, 0
1, 75132, Note_on_c, 9, 51, 0
1, 75359, Note_on_c, 9, 35, 0
1, 75360, Note_on_c, 9, 38, 100
1, 75360, Note_on_c, 9, 42, 66
1, 75372, Note_on_c, 9, 42, 0
1, 75599, Note_on_c, 9, 38, 0
1, 75600, Note_on_c, 9, 51, 47
1, 75600, Note_on_c, 9, 42, 48
1, 75600, Note_on_c, 9, 35, 104
1, 75612, Note_on_c, 9, 51, 0
1, 75612, Note_on_c, 9, 42, 0
1, 75839, Note_on_c, 9, 35, 0
1, 75840, Note_on_c, 9, 42, 66
1, 75852, Note_on_c, 9, 42, 0
1, 76080, Note_on_c, 9, 46, 44
1, 76080, Note_on_c, 9, 51, 62
1, 76080, Note_on_c, 9, 35, 95
1, 76092, Note_on_c, 9, 46, 0
1, 76092, Note_on_c, 9, 51, 0
1, 76319, Note_on_c, 9, 35, 0
1, 76320, Note_on_c, 9, 38, 100
1, 76320, Note_on_c, 9, 42, 62
1, 76332, Note_on_c, 9, 42, 0
1, 76559, Note_on_c, 9, 38, 0
1, 76560, Note_on_c, 9, 46, 51
1, 76560, Note_on_c, 9, 51, 46
1, 76560, Note_on_c, 9, 35, 100
1, 76572, Note_on_c, 9, 46, 0
1, 76572, Note_on_c, 9, 51, 0
1, 76799, Note_on_c, 9, 35, 0
1, 76800, Note_on_c, 9, 51, 44
1, 76800, Note_on_c, 9, 42, 72
1, 76800, Note_on_c, 9, 35, 107
1, 76812, Note_on_c, 9, 51, 0
1, 76812, Note_on_c, 9, 42, 0
1, 77040, Note_on_c, 9, 51, 60
1, 77040, Note_on_c, 9, 42, 44
1, 77052, Note_on_c, 9, 51, 0
1, 77052, Note_on_c, 9, 42, 0
1, 77279, Note_on_c, 9, 35, 0
1, 77280, Note_on_c, 9, 38, 100
1, 77280, Note_on_c, 9, 42, 58
1, 77292, Note_on_c, 9, 42, 0
1, 77519, Note_on_c, 9, 38, 0
1, 77520, Note_on_c, 9, 51, 53
1, 77520, Note_on_c, 9, 42, 46
1, 77520, Note_on_c, 9, 35, 98
1, 77532, Note_on_c, 9, 51, 0
1, 77532, Note_on_c, 9, 42, 0
1, 77759, Note_on_c, 9, 35, 0
1, 77760, Note_on_c, 9, 42, 74
1, 77772, Note_on_c, 9, 42, 0
1, 78000, Note_on_c, 9, 53, 73
1, 78000, Note_on_c, 9, 42, 42
1, 78000, Note_on_c, 9, 35, 81
1, 78012, Note_on_c, 9, 42, 0
1, 78239, Note_on_c, 9, 53, 0
1, 78239, Note_on_c, 9, 35, 0
1, 78240, Note_on_c, 9, 38, 100
1, 78240, Note_on_c, 9, 42, 47
1, 78252, Note_on_c, 9, 42, 0
1, 78479, Note_on_c, 9, 38, 0
1, 78480, Note_on_c, 9, 51, 47
1, 78480, Note_on_c, 9, 42, 46
1, 78480, Note_on_c, 9, 35, 83
1, 78492, Note_on_c, 9, 51, 0
1, 78492, Note_on_c, 9, 42, 0
1, 78719, Note_on_c, 9, 35, 0
1, 78720, Note_on_c, 9, 42, 65
1, 78720, Note_on_c, 9, 35, 107
1, 78732, Note_on_c, 9, 42, 0
1, 78960, Note_on_c, 9, 51, 60
1, 78960, Note_on_c, 9, 42, 47
1, 78972, Note_on_c, 9, 51, 0
1, 78972, Note_on_c, 9, 42, 0
1, 79199, Note_on_c, 9, 35, 0
1, 79200, Note_on_c, 9, 38, 100
1, 79200, Note_on_c, 9, 42, 55
1, 79212, Note_on_c, 9, 42, 0
1, 79439, Note_on_c, 9, 38, 0
1, 79440, Note_on_c, 9, 51, 44
1, 79440, Note_on_c, 9, 42, 45
1, 79440, Note_on_c, 9, 35, 107
1, 79452, Note_on_c, 9, 51, 0
1, 79452, Note_on_c, 9, 42, 0
1, 79679, Note_on_c, 9, 35, 0
1, 79680, Note_on_c, 9, 42, 61
1, 79692, Note_on_c, 9, 42, 0
1, 79920, Note_on_c, 9, 46, 49
1, 79920, Note_on_c, 9, 51, 57
1, 79920, Note_on_c, 9, 35, 95
1, 79932, Note_on_c, 9, 46, 0
1, 79932, Note_on_c, 9, 51, 0
1, 80159, Note_on_c, 9, 35, 0
1, 80160, Note_on_c, 9, 38, 100
1, 80160, Note_on_c, 9, 42, 65
1, 80172, Note_on_c, 9, 42, 0
1, 80399, Note_on_c, 9, 38, 0
1, 80400, Note_on_c, 9, 46, 49
1, 80400, Note_on_c, 9, 51, 46
1, 80400, Note_on_c, 9, 57, 42
1, 80400, Note_on_c, 9, 35, 100
1, 80412, Note_on_c, 9, 46, 0
1, 80412, Note_on_c, 9, 51, 0
1, 80412, Note_on_c, 9, 57, 0
1, 80639, Note_on_c, 9, 35, 0
1, 80640, Note_on_c, 9, 42, 74
1, 80640, Note_on_c, 9, 55, 68
1, 80640, Note_on_c, 9, 35, 107
1, 80652, Note_on_c, 9, 42, 0
1, 80652, Note_on_c, 9, 55, 0
1, 80880, Note_on_c, 9, 42, 42
1, 80892, Note_on_c, 9, 42, 0
1, 81119, Note_on_c, 9, 35, 0
1, 81120, Note_on_c, 9, 38, 100
1, 81120, Note_on_c, 9, 42, 74
1, 81132, Note_on_c, 9, 42, 0
1, 81359, Note_on_c, 9, 38, 0
1, 81360, Note_on_c, 9, 42, 41
1, 81360, Note_on_c, 9, 35, 95
1, 81372, Note_on_c, 9, 42, 0
1, 81599, Note_on_c, 9, 35, 0
1, 81600, Note_on_c, 9, 42, 70
1, 81600, Note_on_c, 9, 35, 107
1, 81612, Note_on_c, 9, 42, 0
1, 81840, Note_on_c, 9, 42, 47
1, 81852, Note_on_c, 9, 42, 0
1, 82079, Note_on_c, 9, 35, 0
1, 82080, Note_on_c, 9, 38, 100
1, 82080, Note_on_c, 9, 42, 74
1, 82092, Note_on_c, 9, 42, 0
1, 82319, Note_on_c, 9, 38, 0
1, 82320, Note_on_c, 9, 42, 47
1, 82332, Note_on_c, 9, 42, 0
1, 82560, Note_on_c, 9, 42, 74
1, 82560, Note_on_c, 9, 35, 107
1, 82572, Note_on_c, 9, 42, 0
1, 82800, Note_on_c, 9, 42, 49
1, 82812, Note_on_c, 9, 42, 0
1, 83039, Note_on_c, 9, 35, 0
1, 83040, Note_on_c, 9, 38, 100
1, 83040, Note_on_c, 9, 42, 65
1, 83052, Note_on_c, 9, 42, 0
1, 83279, Note_on_c, 9, 38, 0
1, 83280, Note_on_c, 9, 46, 58
1, 83280, Note_on_c, 9, 35, 102
1, 83292, Note_on_c, 9, 46, 0
1, 83519, Note_on_c, 9, 35, 0
1, 83520, Note_on_c, 9, 42, 48
1, 83532, Note_on_c, 9, 42, 0
1, 83760, Note_on_c, 9, 46, 59
1, 83760, Note_on_c, 9, 35, 107
1, 83772, Note_on_c, 9, 46, 0
1, 83999, Note_on_c, 9, 35, 0
1, 84000, Note_on_c, 9, 38, 100
1, 84000, Note_on_c, 9, 42, 61
1, 84012, Note_on_c, 9, 42, 0
1, 84239, Note_on_c, 9, 38, 0
1, 84240, Note_on_c, 9, 46, 59
1, 84240, Note_on_c, 9, 35, 93
1, 84252, Note_on_c, 9, 46, 0
1, 84479, Note_on_c, 9, 35, 0
1, 84480, Note_on_c, 9, 51, 59
1, 84480, Note_on_c, 9, 42, 74
1, 84480, Note_on_c, 9, 35, 107
1, 84492, Note_on_c, 9, 51, 0
1, 84492, Note_on_c, 9, 42, 0
1, 84720, Note_on_c, 9, 42, 42
1, 84732, Note_on_c, 9, 42, 0
1, 84959, Note_on_c, 9, 35, 0
1, 84960, Note_on_c, 9, 38, 100
1, 84960, Note_on_c, 9, 42, 65
1, 84972, Note_on_c, 9, 42, 0
1, 85199, Note_on_c, 9, 38, 0
1, 85200, Note_on_c, 9, 42, 47
1, 85200, Note_on_c, 9, 35, 102
1, 85212, Note_on_c, 9, 42, 0
1, 85439, Note_on_c, 9, 35, 0
1, 85440, Note_on_c, 9, 42, 67
1, 85440, Note_on_c, 9, 35, 107
1, 85452, Note_on_c, 9, 42, 0
1, 85680, Note_on_c, 9, 42, 47
1, 85692, Note_on_c, 9, 42, 0
1, 85919, Note_on_c, 9, 35, 0
1, 85920, Note_on_c, 9, 38, 100
1, 85920, Note_on_c, 9, 42, 62
1, 85932, Note_on_c, 9, 42, 0
1, 86159, Note_on_c, 9, 38, 0
1, 86160, Note_on_c, 9, 42, 46
1, 86172, Note_on_c, 9, 42, 0
1, 86400, Note_on_c, 9, 42, 72
1, 86400, Note_on_c, 9, 35, 107
1, 86412, Note_on_c, 9, 42, 0
1, 86640, Note_on_c, 9, 42, 46
1, 86652, Note_on_c, 9, 42, 0
1, 86879, Note_on_c, 9, 35, 0
1, 86880, Note_on_c, 9, 38, 100
1, 86880, Note_on_c, 9, 42, 62
1, 86892, Note_on_c, 9, 42, 0
1, 87119, Note_on_c, 9, 38, 0
1, 87120, Note_on_c, 9, 46, 62
1, 87120, Note_on_c, 9, 35, 107
1, 87132, Note_on_c, 9, 46, 0
1, 87359, Note_on_c, 9, 35, 0
1, 87360, Note_on_c, 9, 42, 67
1, 87372, Note_on_c, 9, 42, 0
1, 87600, Note_on_c, 9, 46, 47
1, 87600, Note_on_c, 9, 35, 107
1, 87612, Note_on_c, 9, 46, 0
1, 87839, Note_on_c, 9, 35, 0
1, 87840, Note_on_c, 9, 38, 100
1, 87840, Note_on_c, 9, 42, 74
1, 87852, Note_on_c, 9, 42, 0
1, 88079, Note_on_c, 9, 38, 0
1, 88080, Note_on_c, 9, 46, 59
1, 88080, Note_on_c, 9, 53, 44
1, 88080, Note_on_c, 9, 35, 100
1, 88092, Note_on_c, 9, 46, 0
1, 88319, Note_on_c, 9, 53, 0
1, 88319, Note_on_c, 9, 35, 0
1, 88320, Note_on_c, 9, 51, 58
1, 88320, Note_on_c, 9, 42, 74
1, 88320, Note_on_c, 9, 35, 107
1, 88332, Note_on_c, 9, 51, 0
1, 88332, Note_on_c, 9, 42, 0
1, 88560, Note_on_c, 9, 42, 44
1, 88572, Note_on_c, 9, 42, 0
1, 88799, Note_on_c, 9, 35, 0
1, 88800, Note_on_c, 9, 38, 100
1, 88800, Note_on_c, 9, 42, 61
1, 88812, Note_on_c, 9, 42, 0
1, 89039, Note_on_c, 9, 38, 0
1, 89040, Note_on_c, 9, 42, 49
1, 89040, Note_on_c, 9, 35, 107
1, 89052, Note_on_c, 9, 42, 0
1, 89279, Note_on_c, 9, 35, 0
1, 89280, Note_on_c, 9, 42, 66
1, 89280, Note_on_c, 9, 35, 107
1, 89292, Note_on_c, 9, 42, 0
1, 89520, Note_on_c, 9, 42, 52
1, 89532, Note_on_c, 9, 42, 0
1, 89759, Note_on_c, 9, 35, 0
1, 89760, Note_on_c, 9, 38, 100
1, 89760, Note_on_c, 9, 44, 73
1, 89786, Note_on_c, 9, 44, 0
1, 89999, Note_on_c, 9, 38, 0
1, 90000, Note_on_c, 9, 42, 56
1, 90012, Note_on_c, 9, 42, 0
1, 90240, Note_on_c, 9, 42, 61
1, 90240, Note_on_c, 9, 35, 107
1, 90252, Note_on_c, 9, 42, 0
1, 90480, Note_on_c, 9, 38, 79
1, 90480, Note_on_c, 9, 46, 41
1, 90492, Note_on_c, 9, 46, 0
1, 90719, Note_on_c, 9, 35, 0
1, 90719, Note_on_c, 9, 38, 0
1, 90720, Note_on_c, 9, 38, 97
1, 90720, Note_on_c, 9, 42, 66
1, 90739, Note_on_c, 9, 42, 0
1, 90960, Note_on_c, 9, 44, 47
1, 90972, Note_on_c, 9, 44, 0
1, 91079, Note_on_c, 9, 38, 0
1, 91080, Note_on_c, 9, 38, 81
1, 91199, Note_on_c, 9, 38, 0
1, 91200, Note_on_c, 9, 38, 96
1, 91200, Note_on_c, 9, 44, 66
1, 91200, Note_on_c, 9, 35, 107
1, 91226, Note_on_c, 9, 44, 0
1, 91439, Note_on_c, 9, 38, 0
1, 91440, Note_on_c, 9, 45, 93
1, 91679, Note_on_c, 9, 35, 0
1, 91679, Note_on_c, 9, 45, 0
1, 91680, Note_on_c, 9, 41, 97
1, 91680, Note_on_c, 9, 44, 61
1, 91706, Note_on_c, 9, 44, 0
1, 91919, Note_on_c, 9, 41, 0
1, 91920, Note_on_c, 9, 41, 99
1, 92159, Note_on_c, 9, 41, 0
1, 92160, Note_on_c, 9, 51, 62
1, 92160, Note_on_c, 9, 49, 57
1, 92160, Note_on_c, 9, 35, 107
1, 92172, Note_on_c, 9, 51, 0
1, 92172, Note_on_c, 9, 49, 0
1, 92400, Note_on_c, 9, 51, 38
1, 92412, Note_on_c, 9, 51, 0
1, 92639, Note_on_c, 9, 35, 0
1, 92640, Note_on_c, 9, 38, 100
1, 92640, Note_on_c, 9, 51, 58
1, 92640, Note_on_c, 9, 44, 81
1, 92652, Note_on_c, 9, 44, 0
1, 92666, Note_on_c, 9, 51, 0
1, 92880, Note_on_c, 9, 35, 89
1, 93119, Note_on_c, 9, 38, 0
1, 93119, Note_on_c, 9, 35, 0
1, 93120, Note_on_c, 9, 51, 62
1, 93120, Note_on_c, 9, 35, 107
1, 93132, Note_on_c, 9, 51, 0
1, 93360, Note_on_c, 9, 51, 62
1, 93372, Note_on_c, 9, 51, 0
1, 93599, Note_on_c, 9, 35, 0
1, 93600, Note_on_c, 9, 38, 100
1, 93600, Note_on_c, 9, 44, 77
1, 93612, Note_on_c, 9, 44, 0
1, 93839, Note_on_c, 9, 38, 0
1, 93840, Note_on_c, 9, 51, 62
1, 93840, Note_on_c, 9, 52, 94
1, 93840, Note_on_c, 9, 35, 107
1, 93852, Note_on_c, 9, 51, 0
1, 93852, Note_on_c, 9, 52, 0
1, 94079, Note_on_c, 9, 35, 0
1, 94080, Note_on_c, 9, 51, 35
1, 94080, Note_on_c, 9, 44, 70
1, 94092, Note_on_c, 9, 51, 0
1, 94106, Note_on_c, 9, 44, 0
1, 94320, Note_on_c, 9, 53, 61
1, 94559, Note_on_c, 9, 53, 0
1, 94560, Note_on_c, 9, 38, 100
1, 94560, Note_on_c, 9, 51, 32
1, 94560, Note_on_c, 9, 44, 78
1, 94572, Note_on_c, 9, 44, 0
1, 94586, Note_on_c, 9, 51, 0
1, 94800, Note_on_c, 9, 35, 100
1, 95039, Note_on_c, 9, 38, 0
1, 95039, Note_on_c, 9, 35, 0
1, 95040, Note_on_c, 9, 51, 60
1, 95040, Note_on_c, 9, 35, 107
1, 95052, Note_on_c, 9, 51, 0
1, 95280, Note_on_c, 9, 51, 38
1, 95292, Note_on_c, 9, 51, 0
1, 95519, Note_on_c, 9, 35, 0
1, 95520, Note_on_c, 9, 38, 100
1, 95520, Note_on_c, 9, 51, 47
1, 95520, Note_on_c, 9, 44, 78
1, 95546, Note_on_c, 9, 51, 0
1, 95546, Note_on_c, 9, 44, 0
1, 95999, Note_on_c, 9, 38, 0
1, 96000, Note_on_c, 9, 51, 62
1, 96000, Note_on_c, 9, 44, 68
1, 96000, Note_on_c, 9, 35, 107
1, 96012, Note_on_c, 9, 51, 0
1, 96026, Note_on_c, 9, 44, 0
1, 96240, Note_on_c, 9, 51, 58
1, 96252, Note_on_c, 9, 51, 0
1, 96479, Note_on_c, 9, 35, 0
1, 96480, Note_on_c, 9, 38, 100
1, 96480, Note_on_c, 9, 51, 40
1, 96480, Note_on_c, 9, 44, 78
1, 96492, Note_on_c, 9, 51, 0
1, 96492, Note_on_c, 9, 44, 0
1, 96719, Note_on_c, 9, 38, 0
1, 96720, Note_on_c, 9, 51, 59
1, 96720, Note_on_c, 9, 35, 107
1, 96732, Note_on_c, 9, 51, 0
1, 96959, Note_on_c, 9, 35, 0
1, 97200, Note_on_c, 9, 51, 33
1, 97212, Note_on_c, 9, 51, 0
1, 97440, Note_on_c, 9, 38, 100
1, 97440, Note_on_c, 9, 51, 33
1, 97440, Note_on_c, 9, 44, 77
1, 97452, Note_on_c, 9, 51, 0
1, 97452, Note_on_c, 9, 44, 0
1, 97679, Note_on_c, 9, 38, 0
1, 97680, Note_on_c, 9, 51, 44
1, 97680, Note_on_c, 9, 35, 85
1, 97692, Note_on_c, 9, 51, 0
1, 97919, Note_on_c, 9, 35, 0
1, 97920, Note_on_c, 9, 51, 59
1, 97920, Note_on_c, 9, 44, 65
1, 97920, Note_on_c, 9, 35, 107
1, 97946, Note_on_c, 9, 51, 0
1, 97946, Note_on_c, 9, 44, 0
1, 98399, Note_on_c, 9, 35, 0
1, 98400, Note_on_c, 9, 38, 100
1, 98400, Note_on_c, 9, 44, 78
1, 98412, Note_on_c, 9, 44, 0
1, 98639, Note_on_c, 9, 38, 0
1, 98640, Note_on_c, 9, 51, 59
1, 98640, Note_on_c, 9, 35, 102
1, 98652, Note_on_c, 9, 51, 0
1, 98879, Note_on_c, 9, 35, 0
1, 98880, Note_on_c, 9, 44, 77
1, 98906, Note_on_c, 9, 44, 0
1, 99120, Note_on_c, 9, 51, 40
1, 99132, Note_on_c, 9, 51, 0
1, 99360, Note_on_c, 9, 38, 100
1, 99360, Note_on_c, 9, 51, 44
1, 99360, Note_on_c, 9, 44, 77
1, 99372, Note_on_c, 9, 51, 0
1, 99372, Note_on_c, 9, 44, 0
1, 99599, Note_on_c, 9, 38, 0
1, 99600, Note_on_c, 9, 51, 42
1, 99600, Note_on_c, 9, 35, 85
1, 99612, Note_on_c, 9, 51, 0
1, 99839, Note_on_c, 9, 35, 0
1, 99840, Note_on_c, 9, 51, 59
1, 99840, Note_on_c, 9, 49, 44
1, 99840, Note_on_c, 9, 44, 68
1, 99840, Note_on_c, 9, 35, 107
1, 99852, Note_on_c, 9, 51, 0
1, 99852, Note_on_c, 9, 49, 0
1, 99866, Note_on_c, 9, 44, 0
1, 100080, Note_on_c, 9, 53, 50
1, 100319, Note_on_c, 9, 35, 0
1, 100319, Note_on_c, 9, 53, 0
1, 100320, Note_on_c, 9, 38, 100
1, 100320, Note_on_c, 9, 51, 25
1, 100320, Note_on_c, 9, 44, 81
1, 100332, Note_on_c, 9, 51, 0
1, 100332, Note_on_c, 9, 44, 0
1, 100559, Note_on_c, 9, 38, 0
1, 100560, Note_on_c, 9, 51, 46
1, 100560, Note_on_c, 9, 35, 100
1, 100572, Note_on_c, 9, 51, 0
1, 100799, Note_on_c, 9, 35, 0
1, 100800, Note_on_c, 9, 51, 62
1, 100800, Note_on_c, 9, 35, 107
1, 100812, Note_on_c, 9, 51, 0
1, 101040, Note_on_c, 9, 51, 62
1, 101052, Note_on_c, 9, 51, 0
1, 101279, Note_on_c, 9, 35, 0
1, 101280, Note_on_c, 9, 38, 100
1, 101280, Note_on_c, 9, 44, 75
1, 101292, Note_on_c, 9, 44, 0
1, 101519, Note_on_c, 9, 38, 0
1, 101520, Note_on_c, 9, 51, 60
1, 101520, Note_on_c, 9, 52, 92
1, 101520, Note_on_c, 9, 35, 107
1, 101532, Note_on_c, 9, 51, 0
1, 101532, Note_on_c, 9, 52, 0
1, 101759, Note_on_c, 9, 35, 0
1, 101760, Note_on_c, 9, 44, 70
1, 101786, Note_on_c, 9, 44, 0
1, 102000, Note_on_c, 9, 53, 61
1, 102239, Note_on_c, 9, 53, 0
1, 102240, Note_on_c, 9, 38, 100
1, 102240, Note_on_c, 9, 44, 77
1, 102252, Note_on_c, 9, 44, 0
1, 102480, Note_on_c, 9, 35, 100
1, 102599, Note_on_c, 9, 38, 0
1, 102600, Note_on_c, 9, 51, 29
1, 102605, Note_on_c, 9, 51, 0
1, 102719, Note_on_c, 9, 35, 0
1, 102720, Note_on_c, 9, 51, 59
1, 102720, Note_on_c, 9, 44, 77
1, 102720, Note_on_c, 9, 35, 107
1, 102746, Note_on_c, 9, 51, 0
1, 102746, Note_on_c, 9, 44, 0
1, 103199, Note_on_c, 9, 35, 0
1, 103200, Note_on_c, 9, 38, 100
1, 103200, Note_on_c, 9, 51, 62
1, 103200, Note_on_c, 9, 44, 78
1, 103226, Note_on_c, 9, 51, 0
1, 103226, Note_on_c, 9, 44, 0
1, 103679, Note_on_c, 9, 38, 0
1, 103680, Note_on_c, 9, 51, 62
1, 103680, Note_on_c, 9, 35, 107
1, 103692, Note_on_c, 9, 51, 0
1, 103920, Note_on_c, 9, 51, 62
1, 103932, Note_on_c, 9, 51, 0
1, 104159, Note_on_c, 9, 35, 0
1, 104160, Note_on_c, 9, 38, 100
1, 104160, Note_on_c, 9, 44, 78
1, 104172, Note_on_c, 9, 44, 0
1, 104399, Note_on_c, 9, 38, 0
1, 104400, Note_on_c, 9, 51, 62
1, 104400, Note_on_c, 9, 35, 107
1, 104412, Note_on_c, 9, 51, 0
1, 104639, Note_on_c, 9, 35, 0
1, 104640, Note_on_c, 9, 44, 75
1, 104666, Note_on_c, 9, 44, 0
1, 104880, Note_on_c, 9, 51, 46
1, 104892, Note_on_c, 9, 51, 0
1, 105120, Note_on_c, 9, 38, 100
1, 105120, Note_on_c, 9, 51, 53
1, 105120, Note_on_c, 9, 44, 75
1, 105132, Note_on_c, 9, 51, 0
1, 105132, Note_on_c, 9, 44, 0
1, 105359, Note_on_c, 9, 38, 0
1, 105360, Note_on_c, 9, 51, 40
1, 105360, Note_on_c, 9, 35, 81
1, 105372, Note_on_c, 9, 51, 0
1, 105599, Note_on_c, 9, 35, 0
1, 105600, Note_on_c, 9, 51, 58
1, 105600, Note_on_c, 9, 44, 70
1, 105600, Note_on_c, 9, 35, 107
1, 105612, Note_on_c, 9, 51, 0
1, 105626, Note_on_c, 9, 44, 0
1, 105840, Note_on_c, 9, 53, 67
1, 106079, Note_on_c, 9, 35, 0
1, 106079, Note_on_c, 9, 53, 0
1, 106080, Note_on_c, 9, 38, 100
1, 106080, Note_on_c, 9, 51, 37
1, 106080, Note_on_c, 9, 44, 77
1, 106092, Note_on_c, 9, 51, 0
1, 106092, Note_on_c, 9, 44, 0
1, 106319, Note_on_c, 9, 38, 0
1, 106320, Note_on_c, 9, 51, 49
1, 106320, Note_on_c, 9, 35, 107
1, 106332, Note_on_c, 9, 51, 0
1, 106559, Note_on_c, 9, 35, 0
1, 106560, Note_on_c, 9, 51, 60
1, 106560, Note_on_c, 9, 42, 42
1, 106572, Note_on_c, 9, 51, 0
1, 106572, Note_on_c, 9, 42, 0
1, 106800, Note_on_c, 9, 46, 54
1, 106800, Note_on_c, 9, 51, 59
1, 106805, Note_on_c, 9, 46, 0
1, 106805, Note_on_c, 9, 51, 0
1, 106920, Note_on_c, 9, 51, 50
1, 106925, Note_on_c, 9, 51, 0
1, 107040, Note_on_c, 9, 38, 100
1, 107040, Note_on_c, 9, 53, 54
1, 107040, Note_on_c, 9, 44, 79
1, 107066, Note_on_c, 9, 44, 0
1, 107279, Note_on_c, 9, 38, 0
1, 107279, Note_on_c, 9, 53, 0
1, 107280, Note_on_c, 9, 51, 51
1, 107280, Note_on_c, 9, 55, 58
1, 107292, Note_on_c, 9, 51, 0
1, 107292, Note_on_c, 9, 55, 0
1, 107520, Note_on_c, 9, 42, 74
1, 107520, Note_on_c, 9, 57, 67
1, 107520, Note_on_c, 9, 35, 107
1, 107532, Note_on_c, 9, 42, 0
1, 107532, Note_on_c, 9, 57, 0
1, 107760, Note_on_c, 9, 42, 27
1, 107772, Note_on_c, 9, 42, 0
1, 107999, Note_on_c, 9, 35, 0
1, 108000, Note_on_c, 9, 38, 100
1, 108000, Note_on_c, 9, 42, 74
1, 108012, Note_on_c, 9, 42, 0
1, 108239, Note_on_c, 9, 38, 0
1, 108240, Note_on_c, 9, 42, 44
1, 108240, Note_on_c, 9, 35, 93
1, 108252, Note_on_c, 9, 42, 0
1, 108479, Note_on_c, 9, 35, 0
1, 108480, Note_on_c, 9, 42, 74
1, 108480, Note_on_c, 9, 35, 107
1, 108492, Note_on_c, 9, 42, 0
1, 108720, Note_on_c, 9, 42, 46
1, 108732, Note_on_c, 9, 42, 0
1, 108959, Note_on_c, 9, 35, 0
1, 108960, Note_on_c, 9, 38, 100
1, 108960, Note_on_c, 9, 42, 74
1, 108972, Note_on_c, 9, 42, 0
1, 109199, Note_on_c, 9, 38, 0
1, 109200, Note_on_c, 9, 46, 54
1, 109212, Note_on_c, 9, 46, 0
1, 109440, Note_on_c, 9, 42, 74
1, 109440, Note_on_c, 9, 35, 107
1, 109452, Note_on_c, 9, 42, 0
1, 109680, Note_on_c, 9, 46, 62
1, 109692, Note_on_c, 9, 46, 0
1, 109919, Note_on_c, 9, 35, 0
1, 109920, Note_on_c, 9, 38, 100
1, 109920, Note_on_c, 9, 42, 70
1, 109932, Note_on_c, 9, 42, 0
1, 110159, Note_on_c, 9, 38, 0
1, 110160, Note_on_c, 9, 46, 51
1, 110160, Note_on_c, 9, 35, 104
1, 110172, Note_on_c, 9, 46, 0
1, 110399, Note_on_c, 9, 35, 0
1, 110400, Note_on_c, 9, 42, 74
1, 110400, Note_on_c, 9, 35, 107
1, 110412, Note_on_c, 9, 42, 0
1, 110640, Note_on_c, 9, 46, 61
1, 110652, Note_on_c, 9, 46, 0
1, 110879, Note_on_c, 9, 35, 0
1, 110880, Note_on_c, 9, 38, 100
1, 110880, Note_on_c, 9, 42, 70
1, 110892, Note_on_c, 9, 42, 0
1, 111119, Note_on_c, 9, 38, 0
1, 111120, Note_on_c, 9, 46, 62
1, 111120, Note_on_c, 9, 35, 95
1, 111132, Note_on_c, 9, 46, 0
1, 111359, Note_on_c, 9, 35, 0
1, 111360, Note_on_c, 9, 51, 62
1, 111360, Note_on_c, 9, 53, 64
1, 111360, Note_on_c, 9, 42, 74
1, 111360, Note_on_c, 9, 35, 107
1, 111372, Note_on_c, 9, 51, 0
1, 111372, Note_on_c, 9, 42, 0
1, 111599, Note_on_c, 9, 53, 0
1, 111600, Note_on_c, 9, 42, 44
1, 111612, Note_on_c, 9, 42, 0
1, 111839, Note_on_c, 9, 35, 0
1, 111840, Note_on_c, 9, 38, 100
1, 111840, Note_on_c, 9, 42, 74
1, 111852, Note_on_c, 9, 42, 0
1, 112079, Note_on_c, 9, 38, 0
1, 112080, Note_on_c, 9, 42, 45
1, 112080, Note_on_c, 9, 35, 102
1, 112092, Note_on_c, 9, 42, 0
1, 112319, Note_on_c, 9, 35, 0
1, 112320, Note_on_c, 9, 42, 74
1, 112320, Note_on_c, 9, 35, 107
1, 112332, Note_on_c, 9, 42, 0
1, 112560, Note_on_c, 9, 42, 47
1, 112572, Note_on_c, 9, 42, 0
1, 112799, Note_on_c, 9, 35, 0
1, 112800, Note_on_c, 9, 38, 100
1, 112800, Note_on_c, 9, 42, 74
1, 112812, Note_on_c, 9, 42, 0
1, 113039, Note_on_c, 9, 38, 0
1, 113040, Note_on_c, 9, 46, 52
1, 113040, Note_on_c, 9, 35, 104
1, 113052, Note_on_c, 9, 46, 0
1, 113279, Note_on_c, 9, 35, 0
1, 113280, Note_on_c, 9, 42, 70
1, 113280, Note_on_c, 9, 35, 106
1, 113292, Note_on_c, 9, 42, 0
1, 113520, Note_on_c, 9, 42, 47
1, 113532, Note_on_c, 9, 42, 0
1, 113759, Note_on_c, 9, 35, 0
1, 113760, Note_on_c, 9, 38, 100
1, 113760, Note_on_c, 9, 42, 74
1, 113772, Note_on_c, 9, 42, 0
1, 113999, Note_on_c, 9, 38, 0
1, 114000, Note_on_c, 9, 42, 49
1, 114012, Note_on_c, 9, 42, 0
1, 114240, Note_on_c, 9, 42, 66
1, 114240, Note_on_c, 9, 35, 107
1, 114252, Note_on_c, 9, 42, 0
1, 114480, Note_on_c, 9, 42, 55
1, 114492, Note_on_c, 9, 42, 0
1, 114719, Note_on_c, 9, 35, 0
1, 114720, Note_on_c, 9, 38, 100
1, 114720, Note_on_c, 9, 42, 74
1, 114746, Note_on_c, 9, 42, 0
1, 114960, Note_on_c, 9, 44, 68
1, 114960, Note_on_c, 9, 35, 95
1, 114972, Note_on_c, 9, 44, 0
1, 115199, Note_on_c, 9, 38, 0
1, 115199, Note_on_c, 9, 35, 0
1, 115200, Note_on_c, 9, 51, 58
1, 115200, Note_on_c, 9, 42, 74
1, 115200, Note_on_c, 9, 52, 81
1, 115200, Note_on_c, 9, 35, 107
1, 115212, Note_on_c, 9, 51, 0
1, 115212, Note_on_c, 9, 42, 0
1, 115212, Note_on_c, 9, 52, 0
1, 115440, Note_on_c, 9, 42, 39
1, 115452, Note_on_c, 9, 42, 0
1, 115679, Note_on_c, 9, 35, 0
1, 115680, Note_on_c, 9, 38, 100
1, 115680, Note_on_c, 9, 42, 62
1, 115692, Note_on_c, 9, 42, 0
1, 115919, Note_on_c, 9, 38, 0
1, 115920, Note_on_c, 9, 42, 46
1, 115920, Note_on_c, 9, 35, 83
1, 115932, Note_on_c, 9, 42, 0
1, 116159, Note_on_c, 9, 35, 0
1, 116160, Note_on_c, 9, 42, 74
1, 116160, Note_on_c, 9, 35, 107
1, 116172, Note_on_c, 9, 42, 0
1, 116400, Note_on_c, 9, 42, 42
1, 116412, Note_on_c, 9, 42, 0
1, 116639, Note_on_c, 9, 35, 0
1, 116640, Note_on_c, 9, 38, 100
1, 116640, Note_on_c, 9, 42, 74
1, 116652, Note_on_c, 9, 42, 0
1, 116879, Note_on_c, 9, 38, 0
1, 116880, Note_on_c, 9, 46, 51
1, 116880, Note_on_c, 9, 35, 98
1, 116892, Note_on_c, 9, 46, 0
1, 117119, Note_on_c, 9, 35, 0
1, 117120, Note_on_c, 9, 53, 63
1, 117120, Note_on_c, 9, 42, 65
1, 117120, Note_on_c, 9, 35, 107
1, 117132, Note_on_c, 9, 42, 0
1, 117359, Note_on_c, 9, 53, 0
1, 117360, Note_on_c, 9, 46, 54
1, 117372, Note_on_c, 9, 46, 0
1, 117599, Note_on_c, 9, 35, 0
1, 117600, Note_on_c, 9, 38, 100
1, 117600, Note_on_c, 9, 42, 66
1, 117612, Note_on_c, 9, 42, 0
1, 117839, Note_on_c, 9, 38, 0
1, 117840, Note_on_c, 9, 46, 56
1, 117840, Note_on_c, 9, 35, 104
1, 117852, Note_on_c, 9, 46, 0
1, 118079, Note_on_c, 9, 35, 0
1, 118080, Note_on_c, 9, 51, 59
1, 118080, Note_on_c, 9, 42, 62
1, 118080, Note_on_c, 9, 35, 107
1, 118092, Note_on_c, 9, 51, 0
1, 118092, Note_on_c, 9, 42, 0
1, 118320, Note_on_c, 9, 46, 59
1, 118332, Note_on_c, 9, 46, 0
1, 118559, Note_on_c, 9, 35, 0
1, 118560, Note_on_c, 9, 38, 100
1, 118560, Note_on_c, 9, 42, 67
1, 118572, Note_on_c, 9, 42, 0
1, 118799, Note_on_c, 9, 38, 0
1, 118800, Note_on_c, 9, 46, 52
1, 118812, Note_on_c, 9, 46, 0
1, 119040, Note_on_c, 9, 53, 70
1, 119040, Note_on_c, 9, 42, 74
1, 119040, Note_on_c, 9, 35, 107
1, 119052, Note_on_c, 9, 42, 0
1, 119279, Note_on_c, 9, 53, 0
1, 119280, Note_on_c, 9, 42, 39
1, 119292, Note_on_c, 9, 42, 0
1, 119519, Note_on_c, 9, 35, 0
1, 119520, Note_on_c, 9, 38, 100
1, 119520, Note_on_c, 9, 42, 66
1, 119532, Note_on_c, 9, 42, 0
1, 119759, Note_on_c, 9, 38, 0
1, 119760, Note_on_c, 9, 42, 38
1, 119760, Note_on_c, 9, 35, 93
1, 119772, Note_on_c, 9, 42, 0
1, 119999, Note_on_c, 9, 35, 0
1, 120000, Note_on_c, 9, 42, 74
1, 120000, Note_on_c, 9, 35, 107
1, 120012, Note_on_c, 9, 42, 0
1, 120240, Note_on_c, 9, 42, 34
1, 120252, Note_on_c, 9, 42, 0
1, 120479, Note_on_c, 9, 35, 0
1, 120480, Note_on_c, 9, 38, 100
1, 120480, Note_on_c, 9, 42, 65
1, 120492, Note_on_c, 9, 42, 0
1, 120719, Note_on_c, 9, 38, 0
1, 120720, Note_on_c, 9, 42, 47
1, 120732, Note_on_c, 9, 42, 0
1, 120960, Note_on_c, 9, 42, 47
1, 120960, Note_on_c, 9, 35, 107
1, 120972, Note_on_c, 9, 42, 0
1, 121200, Note_on_c, 9, 42, 52
1, 121212, Note_on_c, 9, 42, 0
1, 121439, Note_on_c, 9, 35, 0
1, 121440, Note_on_c, 9, 38, 100
1, 121440, Note_on_c, 9, 42, 66
1, 121452, Note_on_c, 9, 42, 0
1, 121679, Note_on_c, 9, 38, 0
1, 121680, Note_on_c, 9, 42, 54
1, 121680, Note_on_c, 9, 35, 98
1, 121692, Note_on_c, 9, 42, 0
1, 121919, Note_on_c, 9, 35, 0
1, 121920, Note_on_c, 9, 42, 63
1, 121920, Note_on_c, 9, 35, 107
1, 121932, Note_on_c, 9, 42, 0
1, 122160, Note_on_c, 9, 46, 53
1, 122172, Note_on_c, 9, 46, 0
1, 122399, Note_on_c, 9, 35, 0
1, 122400, Note_on_c, 9, 46, 59
1, 122405, Note_on_c, 9, 46, 0
1, 122520, Note_on_c, 9, 38, 81
1, 122639, Note_on_c, 9, 38, 0
1, 122640, Note_on_c, 9, 38, 95
1, 122759, Note_on_c, 9, 38, 0
1, 122760, Note_on_c, 9, 38, 87
1, 122879, Note_on_c, 9, 38, 0
1, 122880, Note_on_c, 9, 42, 74
1, 122880, Note_on_c, 9, 49, 65
1, 122880, Note_on_c, 9, 35, 107
1, 122892, Note_on_c, 9, 42, 0
1, 122892, Note_on_c, 9, 49, 0
1, 123120, Note_on_c, 9, 51, 44
1, 123120, Note_on_c, 9, 42, 45
1, 123132, Note_on_c, 9, 51, 0
1, 123132, Note_on_c, 9, 42, 0
1, 123359, Note_on_c, 9, 35, 0
1, 123360, Note_on_c, 9, 38, 100
1, 123360, Note_on_c, 9, 51, 57
1, 123360, Note_on_c, 9, 42, 74
1, 123372, Note_on_c, 9, 51, 0
1, 123372, Note_on_c, 9, 42, 0
1, 123599, Note_on_c, 9, 38, 0
1, 123600, Note_on_c, 9, 51, 42
1, 123600, Note_on_c, 9, 42, 46
1, 123600, Note_on_c, 9, 35, 102
1, 123612, Note_on_c, 9, 51, 0
1, 123612, Note_on_c, 9, 42, 0
1, 123839, Note_on_c, 9, 35, 0
1, 123840, Note_on_c, 9, 42, 68
1, 123852, Note_on_c, 9, 42, 0
1, 124080, Note_on_c, 9, 51, 62
1, 124080, Note_on_c, 9, 42, 42
1, 124092, Note_on_c, 9, 51, 0
1, 124092, Note_on_c, 9, 42, 0
1, 124320, Note_on_c, 9, 38, 100
1, 124320, Note_on_c, 9, 42, 74
1, 124325, Note_on_c, 9, 42, 0
1, 124439, Note_on_c, 9, 38, 0
1, 124440, Note_on_c, 9, 51, 24
1, 124445, Note_on_c, 9, 51, 0
1, 124560, Note_on_c, 9, 46, 47
1, 124560, Note_on_c, 9, 51, 59
1, 124560, Note_on_c, 9, 35, 100
1, 124572, Note_on_c, 9, 46, 0
1, 124572, Note_on_c, 9, 51, 0
1, 124799, Note_on_c, 9, 35, 0
1, 124800, Note_on_c, 9, 51, 35
1, 124800, Note_on_c, 9, 42, 74
1, 124800, Note_on_c, 9, 35, 107
1, 124812, Note_on_c, 9, 51, 0
1, 124812, Note_on_c, 9, 42, 0
1, 125040, Note_on_c, 9, 51, 59
1, 125040, Note_on_c, 9, 42, 44
1, 125052, Note_on_c, 9, 51, 0
1, 125052, Note_on_c, 9, 42, 0
1, 125279, Note_on_c, 9, 35, 0
1, 125280, Note_on_c, 9, 38, 100
1, 125280, Note_on_c, 9, 51, 26
1, 125280, Note_on_c, 9, 42, 72
1, 125292, Note_on_c, 9, 51, 0
1, 125292, Note_on_c, 9, 42, 0
1, 125519, Note_on_c, 9, 38, 0
1, 125520, Note_on_c, 9, 51, 62
1, 125520, Note_on_c, 9, 42, 47
1, 125520, Note_on_c, 9, 35, 98
1, 125532, Note_on_c, 9, 51, 0
1, 125532, Note_on_c, 9, 42, 0
1, 125759, Note_on_c, 9, 35, 0
1, 125760, Note_on_c, 9, 51, 33
1, 125760, Note_on_c, 9, 42, 74
1, 125772, Note_on_c, 9, 51, 0
1, 125772, Note_on_c, 9, 42, 0
1, 126000, Note_on_c, 9, 51, 59
1, 126000, Note_on_c, 9, 42, 47
1, 126000, Note_on_c, 9, 35, 104
1, 126012, Note_on_c, 9, 51, 0
1, 126012, Note_on_c, 9, 42, 0
1, 126239, Note_on_c, 9, 35, 0
1, 126240, Note_on_c, 9, 38, 100
1, 126240, Note_on_c, 9, 51, 37
1, 126240, Note_on_c, 9, 42, 74
1, 126252, Note_on_c, 9, 51, 0
1, 126252, Note_on_c, 9, 42, 0
1, 126479, Note_on_c, 9, 38, 0
1, 126480, Note_on_c, 9, 46, 61
1, 126480, Note_on_c, 9, 51, 58
1, 126480, Note_on_c, 9, 35, 98
1, 126492, Note_on_c, 9, 46, 0
1, 126492, Note_on_c, 9, 51, 0
1, 126719, Note_on_c, 9, 35, 0
1, 126720, Note_on_c, 9, 51, 36
1, 126720, Note_on_c, 9, 42, 74
1, 126720, Note_on_c, 9, 35, 107
1, 126732, Note_on_c, 9, 51, 0
1, 126732, Note_on_c, 9, 42, 0
1, 126960, Note_on_c, 9, 51, 58
1, 126960, Note_on_c, 9, 42, 44
1, 126972, Note_on_c, 9, 51, 0
1, 126972, Note_on_c, 9, 42, 0
1, 127199, Note_on_c, 9, 35, 0
1, 127200, Note_on_c, 9, 38, 100
1, 127200, Note_on_c, 9, 51, 36
1, 127200, Note_on_c, 9, 42, 74
1, 127212, Note_on_c, 9, 51, 0
1, 127212, Note_on_c, 9, 42, 0
1, 127439, Note_on_c, 9, 38, 0
1, 127440, Note_on_c, 9, 51, 59
1, 127440, Note_on_c, 9, 42, 49
1, 127440, Note_on_c, 9, 35, 106
1, 127452, Note_on_c, 9, 51, 0
1, 127452, Note_on_c, 9, 42, 0
1, 127679, Note_on_c, 9, 35, 0
1, 127680, Note_on_c, 9, 51, 36
1, 127680, Note_on_c, 9, 42, 74
1, 127692, Note_on_c, 9, 51, 0
1, 127692, Note_on_c, 9, 42, 0
1, 127920, Note_on_c, 9, 51, 44
1, 127920, Note_on_c, 9, 42, 45
1, 127932, Note_on_c, 9, 51, 0
1, 127932, Note_on_c, 9, 42, 0
1, 128160, Note_on_c, 9, 38, 100
1, 128160, Note_on_c, 9, 51, 28
1, 128160, Note_on_c, 9, 42, 74
1, 128172, Note_on_c, 9, 51, 0
1, 128172, Note_on_c, 9, 42, 0
1, 128399, Note_on_c, 9, 38, 0
1, 128400, Note_on_c, 9, 51, 62
1, 128400, Note_on_c, 9, 42, 45
1, 128400, Note_on_c, 9, 35, 93
1, 128412, Note_on_c, 9, 51, 0
1, 128412, Note_on_c, 9, 42, 0
1, 128639, Note_on_c, 9, 35, 0
1, 128640, Note_on_c, 9, 51, 37
1, 128640, Note_on_c, 9, 42, 74
1, 128640, Note_on_c, 9, 35, 107
1, 128652, Note_on_c, 9, 51, 0
1, 128652, Note_on_c, 9, 42, 0
1, 128880, Note_on_c, 9, 53, 81
1, 128880, Note_on_c, 9, 42, 49
1, 128892, Note_on_c, 9, 42, 0
1, 129119, Note_on_c, 9, 35, 0
1, 129119, Note_on_c, 9, 53, 0
1, 129120, Note_on_c, 9, 38, 100
1, 129120, Note_on_c, 9, 42, 74
1, 129125, Note_on_c, 9, 42, 0
1, 129239, Note_on_c, 9, 38, 0
1, 129240, Note_on_c, 9, 51, 36
1, 129245, Note_on_c, 9, 51, 0
1, 129360, Note_on_c, 9, 51, 60
1, 129360, Note_on_c, 9, 42, 47
1, 129360, Note_on_c, 9, 35, 100
1, 129372, Note_on_c, 9, 51, 0
1, 129372, Note_on_c, 9, 42, 0
1, 129599, Note_on_c, 9, 35, 0
1, 129600, Note_on_c, 9, 51, 38
1, 129600, Note_on_c, 9, 42, 68
1, 129612, Note_on_c, 9, 51, 0
1, 129612, Note_on_c, 9, 42, 0
1, 129840, Note_on_c, 9, 46, 56
1, 129840, Note_on_c, 9, 51, 59
1, 129840, Note_on_c, 9, 35, 106
1, 129852, Note_on_c, 9, 46, 0
1, 129852, Note_on_c, 9, 51, 0
1, 130079, Note_on_c, 9, 35, 0
1, 130080, Note_on_c, 9, 38, 100
1, 130080, Note_on_c, 9, 51, 27
1, 130080, Note_on_c, 9, 42, 74
1, 130092, Note_on_c, 9, 51, 0
1, 130092, Note_on_c, 9, 42, 0
1, 130319, Note_on_c, 9, 38, 0
1, 130320, Note_on_c, 9, 46, 54
1, 130320, Note_on_c, 9, 51, 46
1, 130320, Note_on_c, 9, 35, 85
1, 130332, Note_on_c, 9, 46, 0
1, 130332, Note_on_c, 9, 51, 0
1, 130559, Note_on_c, 9, 35, 0
1, 130560, Note_on_c, 9, 51, 36
1, 130560, Note_on_c, 9, 42, 70
1, 130560, Note_on_c, 9, 35, 107
1, 130572, Note_on_c, 9, 51, 0
1, 130572, Note_on_c, 9, 42, 0
1, 130800, Note_on_c, 9, 51, 57
1, 130800, Note_on_c, 9, 42, 47
1, 130812, Note_on_c, 9, 51, 0
1, 130812, Note_on_c, 9, 42, 0
1, 131039, Note_on_c, 9, 35, 0
1, 131040, Note_on_c, 9, 38, 100
1, 131040, Note_on_c, 9, 51, 36
1, 131040, Note_on_c, 9, 42, 74
1, 131052, Note_on_c, 9, 51, 0
1, 131052, Note_on_c, 9, 42, 0
1, 131279, Note_on_c, 9, 38, 0
1, 131280, Note_on_c, 9, 51, 57
1, 131280, Note_on_c, 9, 42, 49
1, 131280, Note_on_c, 9, 35, 95
1, 131292, Note_on_c, 9, 51, 0
1, 131292, Note_on_c, 9, 42, 0
1, 131519, Note_on_c, 9, 35, 0
1, 131520, Note_on_c, 9, 51, 36
1, 131520, Note_on_c, 9, 42, 68
1, 131532, Note_on_c, 9, 51, 0
1, 131532, Note_on_c, 9, 42, 0
1, 131760, Note_on_c, 9, 51, 59
1, 131760, Note_on_c, 9, 42, 43
1, 131772, Note_on_c, 9, 51, 0
1, 131772, Note_on_c, 9, 42, 0
1, 132000, Note_on_c, 9, 38, 100
1, 132000, Note_on_c, 9, 51, 38
1, 132000, Note_on_c, 9, 42, 70
1, 132012, Note_on_c, 9, 51, 0
1, 132012, Note_on_c, 9, 42, 0
1, 132239, Note_on_c, 9, 38, 0
1, 132240, Note_on_c, 9, 51, 58
1, 132240, Note_on_c, 9, 42, 41
1, 132240, Note_on_c, 9, 35, 93
1, 132252, Note_on_c, 9, 51, 0
1, 132252, Note_on_c, 9, 42, 0
1, 132479, Note_on_c, 9, 35, 0
1, 132480, Note_on_c, 9, 51, 40
1, 132480, Note_on_c, 9, 42, 65
1, 132480, Note_on_c, 9, 35, 107
1, 132492, Note_on_c, 9, 51, 0
1, 132492, Note_on_c, 9, 42, 0
1, 132720, Note_on_c, 9, 51, 57
1, 132720, Note_on_c, 9, 42, 42
1, 132732, Note_on_c, 9, 51, 0
1, 132732, Note_on_c, 9, 42, 0
1, 132959, Note_on_c, 9, 35, 0
1, 132960, Note_on_c, 9, 38, 100
1, 132960, Note_on_c, 9, 51, 35
1, 132960, Note_on_c, 9, 42, 72
1, 132972, Note_on_c, 9, 51, 0
1, 132972, Note_on_c, 9, 42, 0
1, 133199, Note_on_c, 9, 38, 0
1, 133200, Note_on_c, 9, 51, 60
1, 133200, Note_on_c, 9, 42, 44
1, 133200, Note_on_c, 9, 35, 102
1, 133212, Note_on_c, 9, 51, 0
1, 133212, Note_on_c, 9, 42, 0
1, 133439, Note_on_c, 9, 35, 0
1, 133440, Note_on_c, 9, 51, 39
1, 133440, Note_on_c, 9, 42, 70
1, 133452, Note_on_c, 9, 51, 0
1, 133452, Note_on_c, 9, 42, 0
1, 133680, Note_on_c, 9, 51, 62
1, 133680, Note_on_c, 9, 42, 47
1, 133692, Note_on_c, 9, 51, 0
1, 133692, Note_on_c, 9, 42, 0
1, 133920, Note_on_c, 9, 38, 100
1, 133920, Note_on_c, 9, 51, 40
1, 133920, Note_on_c, 9, 42, 67
1, 133932, Note_on_c, 9, 51, 0
1, 133932, Note_on_c, 9, 42, 0
1, 134159, Note_on_c, 9, 38, 0
1, 134160, Note_on_c, 9, 46, 54
1, 134160, Note_on_c, 9, 51, 47
1, 134160, Note_on_c, 9, 35, 95
1, 134172, Note_on_c, 9, 46, 0
1, 134172, Note_on_c, 9, 51, 0
1, 134399, Note_on_c, 9, 35, 0
1, 134400, Note_on_c, 9, 46, 62
1, 134400, Note_on_c, 9, 51, 44
1, 134400, Note_on_c, 9, 35, 107
1, 134426, Note_on_c, 9, 46, 0
1, 134426, Note_on_c, 9, 51, 0
1, 134879, Note_on_c, 9, 35, 0
1, 134880, Note_on_c, 9, 38, 100
1, 134880, Note_on_c, 9, 44, 65
1, 134892, Note_on_c, 9, 44, 0
1, 135119, Note_on_c, 9, 38, 0
1, 135120, Note_on_c, 9, 42, 74
1, 135120, Note_on_c, 9, 35, 95
1, 135132, Note_on_c, 9, 42, 0
1, 135359, Note_on_c, 9, 35, 0
1, 135360, Note_on_c, 9, 42, 67
1, 135360, Note_on_c, 9, 35, 107
1, 135372, Note_on_c, 9, 42, 0
1, 135600, Note_on_c, 9, 42, 45
1, 135612, Note_on_c, 9, 42, 0
1, 135839, Note_on_c, 9, 35, 0
1, 135840, Note_on_c, 9, 38, 100
1, 135840, Note_on_c, 9, 42, 74
1, 135852, Note_on_c, 9, 42, 0
1, 136079, Note_on_c, 9, 38, 0
1, 136080, Note_on_c, 9, 42, 46
1, 136092, Note_on_c, 9, 42, 0
1, 136320, Note_on_c, 9, 42, 74
1, 136320, Note_on_c, 9, 35, 107
1, 136332, Note_on_c, 9, 42, 0
1, 136560, Note_on_c, 9, 42, 44
1, 136572, Note_on_c, 9, 42, 0
1, 136799, Note_on_c, 9, 35, 0
1, 136800, Note_on_c, 9, 38, 100
1, 136800, Note_on_c, 9, 42, 74
1, 136812, Note_on_c, 9, 42, 0
1, 137039, Note_on_c, 9, 38, 0
1, 137040, Note_on_c, 9, 46, 62
1, 137040, Note_on_c, 9, 35, 107
1, 137052, Note_on_c, 9, 46, 0
1, 137279, Note_on_c, 9, 35, 0
1, 137280, Note_on_c, 9, 42, 72
1, 137292, Note_on_c, 9, 42, 0
1, 137520, Note_on_c, 9, 46, 61
1, 137520, Note_on_c, 9, 35, 107
1, 137532, Note_on_c, 9, 46, 0
1, 137759, Note_on_c, 9, 35, 0
1, 137760, Note_on_c, 9, 38, 100
1, 137760, Note_on_c, 9, 42, 72
1, 137772, Note_on_c, 9, 42, 0
1, 137999, Note_on_c, 9, 38, 0
1, 138000, Note_on_c, 9, 46, 62
1, 138000, Note_on_c, 9, 35, 104
1, 138012, Note_on_c, 9, 46, 0
1, 138239, Note_on_c, 9, 35, 0
1, 138240, Note_on_c, 9, 53, 71
1, 138240, Note_on_c, 9, 42, 65
1, 138240, Note_on_c, 9, 35, 107
1, 138252, Note_on_c, 9, 42, 0
1, 138479, Note_on_c, 9, 53, 0
1, 138480, Note_on_c, 9, 42, 45
1, 138492, Note_on_c, 9, 42, 0
1, 138719, Note_on_c, 9, 35, 0
1, 138720, Note_on_c, 9, 38, 100
1, 138720, Note_on_c, 9, 42, 68
1, 138732, Note_on_c, 9, 42, 0
1, 138959, Note_on_c, 9, 38, 0
1, 138960, Note_on_c, 9, 42, 49
1, 138960, Note_on_c, 9, 35, 102
1, 138972, Note_on_c, 9, 42, 0
1, 139199, Note_on_c, 9, 35, 0
1, 139200, Note_on_c, 9, 42, 74
1, 139200, Note_on_c, 9, 35, 107
1, 139212, Note_on_c, 9, 42, 0
1, 139440, Note_on_c, 9, 42, 39
1, 139452, Note_on_c, 9, 42, 0
1, 139679, Note_on_c, 9, 35, 0
1, 139680, Note_on_c, 9, 38, 100
1, 139680, Note_on_c, 9, 42, 68
1, 139692, Note_on_c, 9, 42, 0
1, 139919, Note_on_c, 9, 38, 0
1, 139920, Note_on_c, 9, 42, 47
1, 139932, Note_on_c, 9, 42, 0
1, 140160, Note_on_c, 9, 42, 66
1, 140160, Note_on_c, 9, 35, 107
1, 140172, Note_on_c, 9, 42, 0
1, 140400, Note_on_c, 9, 38, 96
1, 140400, Note_on_c, 9, 46, 53
1, 140412, Note_on_c, 9, 46, 0
1, 140639, Note_on_c, 9, 35, 0
1, 140639, Note_on_c, 9, 38, 0
1, 140640, Note_on_c, 9, 42, 62
1, 140640, Note_on_c, 9, 35, 80
1, 140652, Note_on_c, 9, 42, 0
1, 140879, Note_on_c, 9, 35, 0
1, 140880, Note_on_c, 9, 46, 35
1, 140880, Note_on_c, 9, 35, 107
1, 140892, Note_on_c, 9, 46, 0
1, 141119, Note_on_c, 9, 35, 0
1, 141120, Note_on_c, 9, 46, 35
1, 141120, Note_on_c, 9, 35, 107
1, 141132, Note_on_c, 9, 46, 0
1, 141360, Note_on_c, 9, 38, 89
1, 141360, Note_on_c, 9, 46, 37
1, 141372, Note_on_c, 9, 46, 0
1, 141599, Note_on_c, 9, 35, 0
1, 141599, Note_on_c, 9, 38, 0
1, 141600, Note_on_c, 9, 38, 98
1, 141600, Note_on_c, 9, 46, 42
1, 141612, Note_on_c, 9, 46, 0
1, 141839, Note_on_c, 9, 38, 0
1, 141840, Note_on_c, 9, 38, 94
1, 141840, Note_on_c, 9, 46, 51
1, 141840, Note_on_c, 9, 55, 56
1, 141852, Note_on_c, 9, 46, 0
1, 141852, Note_on_c, 9, 55, 0
1, 142079, Note_on_c, 9, 38, 0
1, 142080, Note_on_c, 9, 42, 70
1, 142080, Note_on_c, 9, 57, 73
1, 142080, Note_on_c, 9, 35, 107
1, 142092, Note_on_c, 9, 42, 0
1, 142092, Note_on_c, 9, 57, 0
1, 142320, Note_on_c, 9, 42, 32
1, 142332, Note_on_c, 9, 42, 0
1, 142559, Note_on_c, 9, 35, 0
1, 142560, Note_on_c, 9, 38, 100
1, 142560, Note_on_c, 9, 42, 74
1, 142572, Note_on_c, 9, 42, 0
1, 142799, Note_on_c, 9, 38, 0
1, 142800, Note_on_c, 9, 42, 44
1, 142800, Note_on_c, 9, 35, 91
1, 142812, Note_on_c, 9, 42, 0
1, 143039, Note_on_c, 9, 35, 0
1, 143040, Note_on_c, 9, 42, 74
1, 143040, Note_on_c, 9, 35, 107
1, 143052, Note_on_c, 9, 42, 0
1, 143280, Note_on_c, 9, 42, 48
1, 143292, Note_on_c, 9, 42, 0
1, 143519, Note_on_c, 9, 35, 0
1, 143520, Note_on_c, 9, 38, 100
1, 143520, Note_on_c, 9, 42, 74
1, 143532, Note_on_c, 9, 42, 0
1, 143759, Note_on_c, 9, 38, 0
1, 143760, Note_on_c, 9, 46, 54
1, 143772, Note_on_c, 9, 46, 0
1, 144000, Note_on_c, 9, 42, 74
1, 144000, Note_on_c, 9, 35, 107
1, 144012, Note_on_c, 9, 42, 0
1, 144240, Note_on_c, 9, 46, 59
1, 144252, Note_on_c, 9, 46, 0
1, 144479, Note_on_c, 9, 35, 0
1, 144480, Note_on_c, 9, 38, 100
1, 144480, Note_on_c, 9, 42, 66
1, 144492, Note_on_c, 9, 42, 0
1, 144719, Note_on_c, 9, 38, 0
1, 144720, Note_on_c, 9, 46, 54
1, 144720, Note_on_c, 9, 35, 104
1, 144732, Note_on_c, 9, 46, 0
1, 144959, Note_on_c, 9, 35, 0
1, 144960, Note_on_c, 9, 42, 67
1, 144960, Note_on_c, 9, 35, 107
1, 144972, Note_on_c, 9, 42, 0
1, 145200, Note_on_c, 9, 46, 59
1, 145212, Note_on_c, 9, 46, 0
1, 145439, Note_on_c, 9, 35, 0
1, 145440, Note_on_c, 9, 38, 100
1, 145440, Note_on_c, 9, 42, 67
1, 145452, Note_on_c, 9, 42, 0
1, 145679, Note_on_c, 9, 38, 0
1, 145680, Note_on_c, 9, 46, 56
1, 145680, Note_on_c, 9, 53, 53
1, 145692, Note_on_c, 9, 46, 0
1, 145919, Note_on_c, 9, 53, 0
1, 145920, Note_on_c, 9, 51, 60
1, 145920, Note_on_c, 9, 42, 65
1, 145920, Note_on_c, 9, 35, 107
1, 145932, Note_on_c, 9, 51, 0
1, 145932, Note_on_c, 9, 42, 0
1, 146160, Note_on_c, 9, 46, 61
1, 146172, Note_on_c, 9, 46, 0
1, 146399, Note_on_c, 9, 35, 0
1, 146400, Note_on_c, 9, 38, 100
1, 146400, Note_on_c, 9, 42, 67
1, 146412, Note_on_c, 9, 42, 0
1, 146639, Note_on_c, 9, 38, 0
1, 146640, Note_on_c, 9, 42, 61
1, 146640, Note_on_c, 9, 35, 104
1, 146652, Note_on_c, 9, 42, 0
1, 146879, Note_on_c, 9, 35, 0
1, 146880, Note_on_c, 9, 42, 74
1, 146880, Note_on_c, 9, 35, 107
1, 146892, Note_on_c, 9, 42, 0
1, 147120, Note_on_c, 9, 42, 45
1, 147132, Note_on_c, 9, 42, 0
1, 147359, Note_on_c, 9, 35, 0
1, 147360, Note_on_c, 9, 38, 100
1, 147360, Note_on_c, 9, 42, 72
1, 147372, Note_on_c, 9, 42, 0
1, 147599, Note_on_c, 9, 38, 0
1, 147600, Note_on_c, 9, 42, 49
1, 147600, Note_on_c, 9, 35, 98
1, 147612, Note_on_c, 9, 42, 0
1, 147839, Note_on_c, 9, 35, 0
1, 147840, Note_on_c, 9, 42, 74
1, 147840, Note_on_c, 9, 35, 107
1, 147852, Note_on_c, 9, 42, 0
1, 148080, Note_on_c, 9, 46, 62
1, 148092, Note_on_c, 9, 46, 0
1, 148319, Note_on_c, 9, 35, 0
1, 148320, Note_on_c, 9, 38, 100
1, 148320, Note_on_c, 9, 42, 74
1, 148332, Note_on_c, 9, 42, 0
1, 148559, Note_on_c, 9, 38, 0
1, 148560, Note_on_c, 9, 42, 47
1, 148560, Note_on_c, 9, 35, 106
1, 148572, Note_on_c, 9, 42, 0
1, 148799, Note_on_c, 9, 35, 0
1, 148800, Note_on_c, 9, 42, 66
1, 148800, Note_on_c, 9, 35, 107
1, 148812, Note_on_c, 9, 42, 0
1, 149039, Note_on_c, 9, 35, 0
1, 149040, Note_on_c, 9, 42, 61
1, 149040, Note_on_c, 9, 35, 106
1, 149052, Note_on_c, 9, 42, 0
1, 149279, Note_on_c, 9, 35, 0
1, 149280, Note_on_c, 9, 38, 100
1, 149280, Note_on_c, 9, 42, 74
1, 149292, Note_on_c, 9, 42, 0
1, 149519, Note_on_c, 9, 38, 0
1, 149520, Note_on_c, 9, 46, 52
1, 149520, Note_on_c, 9, 35, 98
1, 149532, Note_on_c, 9, 46, 0
1, 149759, Note_on_c, 9, 35, 0
1, 149760, Note_on_c, 9, 51, 62
1, 149760, Note_on_c, 9, 53, 49
1, 149760, Note_on_c, 9, 42, 74
1, 149760, Note_on_c, 9, 35, 107
1, 149772, Note_on_c, 9, 51, 0
1, 149772, Note_on_c, 9, 42, 0
1, 149999, Note_on_c, 9, 53, 0
1, 150000, Note_on_c, 9, 42, 41
1, 150012, Note_on_c, 9, 42, 0
1, 150239, Note_on_c, 9, 35, 0
1, 150240, Note_on_c, 9, 38, 100
1, 150240, Note_on_c, 9, 42, 74
1, 150252, Note_on_c, 9, 42, 0
1, 150479, Note_on_c, 9, 38, 0
1, 150480, Note_on_c, 9, 42, 52
1, 150480, Note_on_c, 9, 35, 95
1, 150492, Note_on_c, 9, 42, 0
1, 150719, Note_on_c, 9, 35, 0
1, 150720, Note_on_c, 9, 42, 74
1, 150720, Note_on_c, 9, 35, 107
1, 150732, Note_on_c, 9, 42, 0
1, 150960, Note_on_c, 9, 42, 47
1, 150972, Note_on_c, 9, 42, 0
1, 151199, Note_on_c, 9, 35, 0
1, 151200, Note_on_c, 9, 38, 100
1, 151200, Note_on_c, 9, 42, 66
1, 151212, Note_on_c, 9, 42, 0
1, 151439, Note_on_c, 9, 38, 0
1, 151440, Note_on_c, 9, 46, 58
1, 151452, Note_on_c, 9, 46, 0
1, 151680, Note_on_c, 9, 42, 66
1, 151680, Note_on_c, 9, 35, 107
1, 151692, Note_on_c, 9, 42, 0
1, 151920, Note_on_c, 9, 46, 58
1, 151932, Note_on_c, 9, 46, 0
1, 152159, Note_on_c, 9, 35, 0
1, 152160, Note_on_c, 9, 38, 100
1, 152160, Note_on_c, 9, 42, 72
1, 152172, Note_on_c, 9, 42, 0
1, 152399, Note_on_c, 9, 38, 0
1, 152400, Note_on_c, 9, 46, 51
1, 152400, Note_on_c, 9, 35, 102
1, 152412, Note_on_c, 9, 46, 0
1, 152639, Note_on_c, 9, 35, 0
1, 152640, Note_on_c, 9, 42, 68
1, 152640, Note_on_c, 9, 35, 107
1, 152652, Note_on_c, 9, 42, 0
1, 152880, Note_on_c, 9, 46, 54
1, 152892, Note_on_c, 9, 46, 0
1, 153119, Note_on_c, 9, 35, 0
1, 153120, Note_on_c, 9, 38, 100
1, 153120, Note_on_c, 9, 42, 70
1, 153132, Note_on_c, 9, 42, 0
1, 153359, Note_on_c, 9, 38, 0
1, 153360, Note_on_c, 9, 46, 52
1, 153372, Note_on_c, 9, 46, 0
1, 153600, Note_on_c, 9, 51, 62
1, 153600, Note_on_c, 9, 42, 74
1, 153600, Note_on_c, 9, 52, 84
1, 153600, Note_on_c, 9, 35, 107
1, 153612, Note_on_c, 9, 51, 0
1, 153612, Note_on_c, 9, 42, 0
1, 153612, Note_on_c, 9, 52, 0
1, 153840, Note_on_c, 9, 42, 44
1, 153852, Note_on_c, 9, 42, 0
1, 154079, Note_on_c, 9, 35, 0
1, 154080, Note_on_c, 9, 38, 100
1, 154080, Note_on_c, 9, 42, 65
1, 154092, Note_on_c, 9, 42, 0
1, 154319, Note_on_c, 9, 38, 0
1, 154320, Note_on_c, 9, 42, 40
1, 154320, Note_on_c, 9, 35, 102
1, 154332, Note_on_c, 9, 42, 0
1, 154559, Note_on_c, 9, 35, 0
1, 154560, Note_on_c, 9, 42, 66
1, 154560, Note_on_c, 9, 35, 107
1, 154572, Note_on_c, 9, 42, 0
1, 154799, Note_on_c, 9, 35, 0
1, 154800, Note_on_c, 9, 42, 41
1, 154800, Note_on_c, 9, 35, 107
1, 154812, Note_on_c, 9, 42, 0
1, 155039, Note_on_c, 9, 35, 0
1, 155040, Note_on_c, 9, 38, 100
1, 155040, Note_on_c, 9, 42, 65
1, 155052, Note_on_c, 9, 42, 0
1, 155279, Note_on_c, 9, 38, 0
1, 155280, Note_on_c, 9, 42, 46
1, 155280, Note_on_c, 9, 35, 95
1, 155292, Note_on_c, 9, 42, 0
1, 155519, Note_on_c, 9, 35, 0
1, 155520, Note_on_c, 9, 42, 66
1, 155520, Note_on_c, 9, 35, 107
1, 155532, Note_on_c, 9, 42, 0
1, 155760, Note_on_c, 9, 42, 48
1, 155772, Note_on_c, 9, 42, 0
1, 155999, Note_on_c, 9, 35, 0
1, 156000, Note_on_c, 9, 38, 100
1, 156000, Note_on_c, 9, 42, 61
1, 156012, Note_on_c, 9, 42, 0
1, 156239, Note_on_c, 9, 38, 0
1, 156240, Note_on_c, 9, 42, 52
1, 156240, Note_on_c, 9, 35, 107
1, 156252, Note_on_c, 9, 42, 0
1, 156479, Note_on_c, 9, 35, 0
1, 156480, Note_on_c, 9, 42, 65
1, 156480, Note_on_c, 9, 35, 107
1, 156492, Note_on_c, 9, 42, 0
1, 156720, Note_on_c, 9, 38, 66
1, 156720, Note_on_c, 9, 46, 54
1, 156725, Note_on_c, 9, 46, 0
1, 156839, Note_on_c, 9, 38, 0
1, 156840, Note_on_c, 9, 38, 92
1, 156959, Note_on_c, 9, 35, 0
1, 156959, Note_on_c, 9, 38, 0
1, 156960, Note_on_c, 9, 38, 96
1, 156960, Note_on_c, 9, 42, 67
1, 156965, Note_on_c, 9, 42, 0
1, 157079, Note_on_c, 9, 38, 0
1, 157080, Note_on_c, 9, 42, 55
1, 157085, Note_on_c, 9, 42, 0
1, 157200, Note_on_c, 9, 41, 99
1, 157200, Note_on_c, 9, 46, 61
1, 157200, Note_on_c, 9, 53, 60
1, 157205, Note_on_c, 9, 46, 0
1, 157319, Note_on_c, 9, 41, 0
1, 157319, Note_on_c, 9, 53, 0
1, 157320, Note_on_c, 9, 42, 56
1, 157325, Note_on_c, 9, 42, 0
1, 157440, Note_on_c, 9, 42, 74
1, 157440, Note_on_c, 9, 49, 64
1, 157440, Note_on_c, 9, 35, 99
1, 157452, Note_on_c, 9, 42, 0
1, 157452, Note_on_c, 9, 49, 0
1, 157680, Note_on_c, 9, 51, 65
1, 157680, Note_on_c, 9, 42, 40
1, 157692, Note_on_c, 9, 51, 0
1, 157692, Note_on_c, 9, 42, 0
1, 157919, Note_on_c, 9, 35, 0
1, 157920, Note_on_c, 9, 38, 100
1, 157920, Note_on_c, 9, 51, 26
1, 157920, Note_on_c, 9, 42, 70
1, 157932, Note_on_c, 9, 51, 0
1, 157932, Note_on_c, 9, 42, 0
1, 158159, Note_on_c, 9, 38, 0
1, 158160, Note_on_c, 9, 51, 62
1, 158160, Note_on_c, 9, 42, 42
1, 158160, Note_on_c, 9, 35, 102
1, 158172, Note_on_c, 9, 51, 0
1, 158172, Note_on_c, 9, 42, 0
1, 158399, Note_on_c, 9, 35, 0
1, 158400, Note_on_c, 9, 42, 74
1, 158412, Note_on_c, 9, 42, 0
1, 158640, Note_on_c, 9, 51, 63
1, 158640, Note_on_c, 9, 42, 33
1, 158652, Note_on_c, 9, 51, 0
1, 158652, Note_on_c, 9, 42, 0
1, 158880, Note_on_c, 9, 38, 100
1, 158880, Note_on_c, 9, 42, 74
1, 158892, Note_on_c, 9, 42, 0
1, 159119, Note_on_c, 9, 38, 0
1, 159120, Note_on_c, 9, 51, 63
1, 159120, Note_on_c, 9, 42, 44
1, 159120, Note_on_c, 9, 35, 72
1, 159132, Note_on_c, 9, 51, 0
1, 159132, Note_on_c, 9, 42, 0
1, 159359, Note_on_c, 9, 35, 0
1, 159360, Note_on_c, 9, 51, 41
1, 159360, Note_on_c, 9, 42, 74
1, 159360, Note_on_c, 9, 35, 107
1, 159372, Note_on_c, 9, 51, 0
1, 159372, Note_on_c, 9, 42, 0
1, 159600, Note_on_c, 9, 51, 60
1, 159600, Note_on_c, 9, 42, 41
1, 159612, Note_on_c, 9, 51, 0
1, 159612, Note_on_c, 9, 42, 0
1, 159839, Note_on_c, 9, 35, 0
1, 159840, Note_on_c, 9, 38, 100
1, 159840, Note_on_c, 9, 42, 74
1, 159852, Note_on_c, 9, 42, 0
1, 160079, Note_on_c, 9, 38, 0
1, 160080, Note_on_c, 9, 51, 63
1, 160080, Note_on_c, 9, 42, 40
1, 160080, Note_on_c, 9, 35, 107
1, 160092, Note_on_c, 9, 51, 0
1, 160092, Note_on_c, 9, 42, 0
1, 160319, Note_on_c, 9, 35, 0
1, 160320, Note_on_c, 9, 51, 36
1, 160320, Note_on_c, 9, 42, 74
1, 160332, Note_on_c, 9, 51, 0
1, 160332, Note_on_c, 9, 42, 0
1, 160560, Note_on_c, 9, 51, 62
1, 160560, Note_on_c, 9, 42, 40
1, 160572, Note_on_c, 9, 51, 0
1, 160572, Note_on_c, 9, 42, 0
1, 160800, Note_on_c, 9, 38, 100
1, 160800, Note_on_c, 9, 51, 35
1, 160800, Note_on_c, 9, 42, 74
1, 160812, Note_on_c, 9, 51, 0
1, 160812, Note_on_c, 9, 42, 0
1, 161039, Note_on_c, 9, 38, 0
1, 161040, Note_on_c, 9, 46, 52
1, 161040, Note_on_c, 9, 51, 57
1, 161040, Note_on_c, 9, 35, 85
1, 161052, Note_on_c, 9, 46, 0
1, 161052, Note_on_c, 9, 51, 0
1, 161279, Note_on_c, 9, 35, 0
1, 161280, Note_on_c, 9, 51, 37
1, 161280, Note_on_c, 9, 42, 68
1, 161280, Note_on_c, 9, 35, 107
1, 161292, Note_on_c, 9, 51, 0
1, 161292, Note_on_c, 9, 42, 0
1, 161520, Note_on_c, 9, 51, 59
1, 161520, Note_on_c, 9, 42, 39
1, 161532, Note_on_c, 9, 51, 0
1, 161532, Note_on_c, 9, 42, 0
1, 161759, Note_on_c, 9, 35, 0
1, 161760, Note_on_c, 9, 38, 100
1, 161760, Note_on_c, 9, 51, 34
1, 161760, Note_on_c, 9, 42, 67
1, 161772, Note_on_c, 9, 51, 0
1, 161772, Note_on_c, 9, 42, 0
1, 161999, Note_on_c, 9, 38, 0
1, 162000, Note_on_c, 9, 51, 60
1, 162000, Note_on_c, 9, 42, 48
1, 162000, Note_on_c, 9, 35, 104
1, 162012, Note_on_c, 9, 51, 0
1, 162012, Note_on_c, 9, 42, 0
1, 162239, Note_on_c, 9, 35, 0
1, 162240, Note_on_c, 9, 51, 36
1, 162240, Note_on_c, 9, 42, 74
1, 162252, Note_on_c, 9, 51, 0
1, 162252, Note_on_c, 9, 42, 0
1, 162480, Note_on_c, 9, 46, 43
1, 162480, Note_on_c, 9, 51, 62
1, 162492, Note_on_c, 9, 46, 0
1, 162492, Note_on_c, 9, 51, 0
1, 162720, Note_on_c, 9, 38, 100
1, 162720, Note_on_c, 9, 51, 36
1, 162720, Note_on_c, 9, 42, 70
1, 162732, Note_on_c, 9, 51, 0
1, 162732, Note_on_c, 9, 42, 0
1, 162959, Note_on_c, 9, 38, 0
1, 162960, Note_on_c, 9, 46, 51
1, 162960, Note_on_c, 9, 51, 63
1, 162960, Note_on_c, 9, 35, 83
1, 162972, Note_on_c, 9, 46, 0
1, 162972, Note_on_c, 9, 51, 0
1, 163199, Note_on_c, 9, 35, 0
1, 163200, Note_on_c, 9, 51, 34
1, 163200, Note_on_c, 9, 42, 74
1, 163200, Note_on_c, 9, 35, 107
1, 163212, Note_on_c, 9, 51, 0
1, 163212, Note_on_c, 9, 42, 0
1, 163440, Note_on_c, 9, 53, 79
1, 163440, Note_on_c, 9, 42, 25
1, 163452, Note_on_c, 9, 42, 0
1, 163679, Note_on_c, 9, 35, 0
1, 163679, Note_on_c, 9, 53, 0
1, 163680, Note_on_c, 9, 38, 100
1, 163680, Note_on_c, 9, 51, 36
1, 163680, Note_on_c, 9, 42, 70
1, 163692, Note_on_c, 9, 51, 0
1, 163692, Note_on_c, 9, 42, 0
1, 163919, Note_on_c, 9, 38, 0
1, 163920, Note_on_c, 9, 51, 62
1, 163920, Note_on_c, 9, 42, 46
1, 163920, Note_on_c, 9, 35, 100
1, 163932, Note_on_c, 9, 51, 0
1, 163932, Note_on_c, 9, 42, 0
1, 164159, Note_on_c, 9, 35, 0
1, 164160, Note_on_c, 9, 51, 35
1, 164160, Note_on_c, 9, 42, 70
1, 164172, Note_on_c, 9, 51, 0
1, 164172, Note_on_c, 9, 42, 0
1, 164400, Note_on_c, 9, 51, 58
1, 164400, Note_on_c, 9, 42, 42
1, 164400, Note_on_c, 9, 35, 102
1, 164412, Note_on_c, 9, 51, 0
1, 164412, Note_on_c, 9, 42, 0
1, 164639, Note_on_c, 9, 35, 0
1, 164640, Note_on_c, 9, 38, 100
1, 164640, Note_on_c, 9, 51, 46
1, 164640, Note_on_c, 9, 42, 74
1, 164652, Note_on_c, 9, 51, 0
1, 164652, Note_on_c, 9, 42, 0
1, 164879, Note_on_c, 9, 38, 0
1, 164880, Note_on_c, 9, 46, 49
1, 164880, Note_on_c, 9, 53, 76
1, 164880, Note_on_c, 9, 35, 95
1, 164892, Note_on_c, 9, 46, 0
1, 165119, Note_on_c, 9, 53, 0
1, 165119, Note_on_c, 9, 35, 0
1, 165120, Note_on_c, 9, 51, 57
1, 165120, Note_on_c, 9, 42, 66
1, 165120, Note_on_c, 9, 35, 107
1, 165132, Note_on_c, 9, 51, 0
1, 165132, Note_on_c, 9, 42, 0
1, 165360, Note_on_c, 9, 51, 53
1, 165360, Note_on_c, 9, 42, 47
1, 165372, Note_on_c, 9, 51, 0
1, 165372, Note_on_c, 9, 42, 0
1, 165599, Note_on_c, 9, 35, 0
1, 165600, Note_on_c, 9, 38, 100
1, 165600, Note_on_c, 9, 51, 35
1, 165600, Note_on_c, 9, 42, 67
1, 165612, Note_on_c, 9, 51, 0
1, 165612, Note_on_c, 9, 42, 0
1, 165839, Note_on_c, 9, 38, 0
1, 165840, Note_on_c, 9, 51, 59
1, 165840, Note_on_c, 9, 42, 45
1, 165840, Note_on_c, 9, 35, 104
1, 165852, Note_on_c, 9, 51, 0
1, 165852, Note_on_c, 9, 42, 0
1, 166079, Note_on_c, 9, 35, 0
1, 166080, Note_on_c, 9, 51, 38
1, 166080, Note_on_c, 9, 42, 74
1, 166092, Note_on_c, 9, 51, 0
1, 166092, Note_on_c, 9, 42, 0
1, 166320, Note_on_c, 9, 51, 59
1, 166320, Note_on_c, 9, 42, 42
1, 166332, Note_on_c, 9, 51, 0
1, 166332, Note_on_c, 9, 42, 0
1, 166560, Note_on_c, 9, 38, 100
1, 166560, Note_on_c, 9, 51, 30
1, 166560, Note_on_c, 9, 42, 74
1, 166572, Note_on_c, 9, 51, 0
1, 166572, Note_on_c, 9, 42, 0
1, 166799, Note_on_c, 9, 38, 0
1, 166800, Note_on_c, 9, 51, 60
1, 166800, Note_on_c, 9, 42, 41
1, 166800, Note_on_c, 9, 35, 102
1, 166812, Note_on_c, 9, 51, 0
1, 166812, Note_on_c, 9, 42, 0
1, 167039, Note_on_c, 9, 35, 0
1, 167040, Note_on_c, 9, 42, 65
1, 167040, Note_on_c, 9, 35, 107
1, 167052, Note_on_c, 9, 42, 0
1, 167280, Note_on_c, 9, 51, 59
1, 167280, Note_on_c, 9, 42, 46
1, 167292, Note_on_c, 9, 51, 0
1, 167292, Note_on_c, 9, 42, 0
1, 167519, Note_on_c, 9, 35, 0
1, 167520, Note_on_c, 9, 38, 100
1, 167520, Note_on_c, 9, 51, 30
1, 167520, Note_on_c, 9, 42, 74
1, 167532, Note_on_c, 9, 51, 0
1, 167532, Note_on_c, 9, 42, 0
1, 167759, Note_on_c, 9, 38, 0
1, 167760, Note_on_c, 9, 51, 60
1, 167760, Note_on_c, 9, 42, 40
1, 167760, Note_on_c, 9, 35, 107
1, 167772, Note_on_c, 9, 51, 0
1, 167772, Note_on_c, 9, 42, 0
1, 167999, Note_on_c, 9, 35, 0
1, 168000, Note_on_c, 9, 51, 34
1, 168000, Note_on_c, 9, 42, 70
1, 168012, Note_on_c, 9, 51, 0
1, 168012, Note_on_c, 9, 42, 0
1, 168240, Note_on_c, 9, 51, 59
1, 168240, Note_on_c, 9, 42, 46
1, 168252, Note_on_c, 9, 51, 0
1, 168252, Note_on_c, 9, 42, 0
1, 168480, Note_on_c, 9, 38, 100
1, 168480, Note_on_c, 9, 51, 32
1, 168480, Note_on_c, 9, 42, 74
1, 168492, Note_on_c, 9, 51, 0
1, 168492, Note_on_c, 9, 42, 0
1, 168719, Note_on_c, 9, 38, 0
1, 168720, Note_on_c, 9, 46, 43
1, 168720, Note_on_c, 9, 51, 60
1, 168720, Note_on_c, 9, 35, 95
1, 168732, Note_on_c, 9, 46, 0
1, 168732, Note_on_c, 9, 51, 0
1, 168959, Note_on_c, 9, 35, 0
1, 168960, Note_on_c, 9, 46, 61
1, 168960, Note_on_c, 9, 57, 73
1, 168960, Note_on_c, 9, 35, 107
1, 168986, Note_on_c, 9, 46, 0
1, 168986, Note_on_c, 9, 57, 0
1, 169439, Note_on_c, 9, 35, 0
1, 169440, Note_on_c, 9, 38, 100
1, 169440, Note_on_c, 9, 42, 67
1, 169452, Note_on_c, 9, 42, 0
1, 169679, Note_on_c, 9, 38, 0
1, 169680, Note_on_c, 9, 42, 46
1, 169680, Note_on_c, 9, 35, 98
1, 169692, Note_on_c, 9, 42, 0
1, 169919, Note_on_c, 9, 35, 0
1, 169920, Note_on_c, 9, 42, 74
1, 169920, Note_on_c, 9, 35, 107
1, 169932, Note_on_c, 9, 42, 0
1, 170160, Note_on_c, 9, 42, 47
1, 170172, Note_on_c, 9, 42, 0
1, 170399, Note_on_c, 9, 35, 0
1, 170400, Note_on_c, 9, 38, 100
1, 170400, Note_on_c, 9, 42, 74
1, 170412, Note_on_c, 9, 42, 0
1, 170639, Note_on_c, 9, 38, 0
1, 170640, Note_on_c, 9, 42, 44
1, 170652, Note_on_c, 9, 42, 0
1, 170880, Note_on_c, 9, 42, 74
1, 170880, Note_on_c, 9, 35, 107
1, 170892, Note_on_c, 9, 42, 0
1, 171120, Note_on_c, 9, 42, 45
1, 171132, Note_on_c, 9, 42, 0
1, 171359, Note_on_c, 9, 35, 0
1, 171360, Note_on_c, 9, 38, 100
1, 171360, Note_on_c, 9, 42, 67
1, 171372, Note_on_c, 9, 42, 0
1, 171599, Note_on_c, 9, 38, 0
1, 171600, Note_on_c, 9, 46, 56
1, 171600, Note_on_c, 9, 35, 102
1, 171612, Note_on_c, 9, 46, 0
1, 171839, Note_on_c, 9, 35, 0
1, 171840, Note_on_c, 9, 42, 74
1, 171852, Note_on_c, 9, 42, 0
1, 172080, Note_on_c, 9, 46, 56
1, 172080, Note_on_c, 9, 35, 107
1, 172092, Note_on_c, 9, 46, 0
1, 172319, Note_on_c, 9, 35, 0
1, 172320, Note_on_c, 9, 38, 100
1, 172320, Note_on_c, 9, 42, 65
1, 172332, Note_on_c, 9, 42, 0
1, 172559, Note_on_c, 9, 38, 0
1, 172560, Note_on_c, 9, 46, 61
1, 172560, Note_on_c, 9, 35, 100
1, 172572, Note_on_c, 9, 46, 0
1, 172799, Note_on_c, 9, 35, 0
1, 172800, Note_on_c, 9, 51, 59
1, 172800, Note_on_c, 9, 53, 61
1, 172800, Note_on_c, 9, 42, 66
1, 172800, Note_on_c, 9, 35, 107
1, 172812, Note_on_c, 9, 51, 0
1, 172812, Note_on_c, 9, 42, 0
1, 173039, Note_on_c, 9, 53, 0
1, 173040, Note_on_c, 9, 42, 48
1, 173052, Note_on_c, 9, 42, 0
1, 173279, Note_on_c, 9, 35, 0
1, 173280, Note_on_c, 9, 38, 100
1, 173280, Note_on_c, 9, 42, 74
1, 173292, Note_on_c, 9, 42, 0
1, 173519, Note_on_c, 9, 38, 0
1, 173520, Note_on_c, 9, 42, 41
1, 173520, Note_on_c, 9, 35, 100
1, 173532, Note_on_c, 9, 42, 0
1, 173759, Note_on_c, 9, 35, 0
1, 173760, Note_on_c, 9, 42, 74
1, 173760, Note_on_c, 9, 35, 107
1, 173772, Note_on_c, 9, 42, 0
1, 174000, Note_on_c, 9, 42, 44
1, 174012, Note_on_c, 9, 42, 0
1, 174239, Note_on_c, 9, 35, 0
1, 174240, Note_on_c, 9, 38, 100
1, 174240, Note_on_c, 9, 42, 74
1, 174252, Note_on_c, 9, 42, 0
1, 174479, Note_on_c, 9, 38, 0
1, 174480, Note_on_c, 9, 42, 45
1, 174492, Note_on_c, 9, 42, 0
1, 174720, Note_on_c, 9, 42, 74
1, 174720, Note_on_c, 9, 35, 107
1, 174732, Note_on_c, 9, 42, 0
1, 174960, Note_on_c, 9, 42, 38
1, 174972, Note_on_c, 9, 42, 0
1, 175199, Note_on_c, 9, 35, 0
1, 175200, Note_on_c, 9, 38, 100
1, 175200, Note_on_c, 9, 42, 74
1, 175212, Note_on_c, 9, 42, 0
1, 175439, Note_on_c, 9, 38, 0
1, 175440, Note_on_c, 9, 46, 58
1, 175440, Note_on_c, 9, 35, 107
1, 175452, Note_on_c, 9, 46, 0
1, 175679, Note_on_c, 9, 35, 0
1, 175680, Note_on_c, 9, 42, 67
1, 175692, Note_on_c, 9, 42, 0
1, 175920, Note_on_c, 9, 46, 56
1, 175920, Note_on_c, 9, 35, 107
1, 175932, Note_on_c, 9, 46, 0
1, 176159, Note_on_c, 9, 35, 0
1, 176160, Note_on_c, 9, 38, 100
1, 176160, Note_on_c, 9, 42, 68
1, 176172, Note_on_c, 9, 42, 0
1, 176399, Note_on_c, 9, 38, 0
1, 176400, Note_on_c, 9, 46, 52
1, 176400, Note_on_c, 9, 35, 102
1, 176412, Note_on_c, 9, 46, 0
1, 176639, Note_on_c, 9, 35, 0
1, 176640, Note_on_c, 9, 51, 57
1, 176640, Note_on_c, 9, 53, 63
1, 176640, Note_on_c, 9, 42, 74
1, 176640, Note_on_c, 9, 35, 107
1, 176652, Note_on_c, 9, 51, 0
1, 176652, Note_on_c, 9, 42, 0
1, 176879, Note_on_c, 9, 53, 0
1, 176880, Note_on_c, 9, 42, 44
1, 176892, Note_on_c, 9, 42, 0
1, 177119, Note_on_c, 9, 35, 0
1, 177120, Note_on_c, 9, 38, 100
1, 177120, Note_on_c, 9, 42, 66
1, 177132, Note_on_c, 9, 42, 0
1, 177359, Note_on_c, 9, 38, 0
1, 177360, Note_on_c, 9, 42, 48
1, 177360, Note_on_c, 9, 35, 106
1, 177372, Note_on_c, 9, 42, 0
1, 177599, Note_on_c, 9, 35, 0
1, 177600, Note_on_c, 9, 42, 65
1, 177600, Note_on_c, 9, 35, 107
1, 177612, Note_on_c, 9, 42, 0
1, 177840, Note_on_c, 9, 42, 49
1, 177852, Note_on_c, 9, 42, 0
1, 178079, Note_on_c, 9, 35, 0
1, 178080, Note_on_c, 9, 38, 100
1, 178080, Note_on_c, 9, 42, 59
1, 178092, Note_on_c, 9, 42, 0
1, 178319, Note_on_c, 9, 38, 0
1, 178320, Note_on_c, 9, 42, 61
1, 178332, Note_on_c, 9, 42, 0
1, 178560, Note_on_c, 9, 42, 70
1, 178560, Note_on_c, 9, 35, 107
1, 178572, Note_on_c, 9, 42, 0
1, 178800, Note_on_c, 9, 46, 59
1, 178812, Note_on_c, 9, 46, 0
1, 179039, Note_on_c, 9, 35, 0
1, 179040, Note_on_c, 9, 38, 62
1, 179040, Note_on_c, 9, 44, 66
1, 179052, Note_on_c, 9, 44, 0
1, 179159, Note_on_c, 9, 38, 0
1, 179160, Note_on_c, 9, 38, 84
1, 179279, Note_on_c, 9, 38, 0
1, 179280, Note_on_c, 9, 38, 82
1, 179280, Note_on_c, 9, 44, 22
1, 179292, Note_on_c, 9, 44, 0
1, 179399, Note_on_c, 9, 38, 0
1, 179400, Note_on_c, 9, 38, 93
1, 179519, Note_on_c, 9, 38, 0
1, 179520, Note_on_c, 9, 38, 99
1, 179520, Note_on_c, 9, 44, 55
1, 179520, Note_on_c, 9, 35, 107
1, 179532, Note_on_c, 9, 44, 0
1, 179759, Note_on_c, 9, 38, 0
1, 179759, Note_on_c, 9, 35, 0
1, 179760, Note_on_c, 9, 45, 100
1, 179760, Note_on_c, 9, 44, 48
1, 179772, Note_on_c, 9, 44, 0
1, 179999, Note_on_c, 9, 45, 0
1, 180000, Note_on_c, 9, 41, 100
1, 180000, Note_on_c, 9, 44, 56
1, 180012, Note_on_c, 9, 44, 0
1, 180239, Note_on_c, 9, 41, 0
1, 180240, Note_on_c, 9, 41, 96
1, 180240, Note_on_c, 9, 44, 63
1, 180252, Note_on_c, 9, 44, 0
1, 180479, Note_on_c, 9, 41, 0
1, 180480, Note_on_c, 9, 51, 53
1, 180480, Note_on_c, 9, 42, 74
1, 180480, Note_on_c, 9, 49, 68
1, 180480, Note_on_c, 9, 35, 107
1, 180492, Note_on_c, 9, 51, 0
1, 180492, Note_on_c, 9, 42, 0
1, 180492, Note_on_c, 9, 49, 0
1, 180720, Note_on_c, 9, 51, 59
1, 180720, Note_on_c, 9, 42, 41
1, 180732, Note_on_c, 9, 51, 0
1, 180732, Note_on_c, 9, 42, 0
1, 180959, Note_on_c, 9, 35, 0
1, 180960, Note_on_c, 9, 38, 100
1, 180960, Note_on_c, 9, 51, 33
1, 180960, Note_on_c, 9, 42, 66
1, 180972, Note_on_c, 9, 51, 0
1, 180972, Note_on_c, 9, 42, 0
1, 181199, Note_on_c, 9, 38, 0
1, 181200, Note_on_c, 9, 51, 42
1, 181200, Note_on_c, 9, 42, 41
1, 181200, Note_on_c, 9, 35, 83
1, 181212, Note_on_c, 9, 51, 0
1, 181212, Note_on_c, 9, 42, 0
1, 181439, Note_on_c, 9, 35, 0
1, 181440, Note_on_c, 9, 51, 62
1, 181440, Note_on_c, 9, 42, 67
1, 181440, Note_on_c, 9, 35, 107
1, 181452, Note_on_c, 9, 51, 0
1, 181452, Note_on_c, 9, 42, 0
1, 181680, Note_on_c, 9, 46, 56
1, 181680, Note_on_c, 9, 51, 59
1, 181692, Note_on_c, 9, 46, 0
1, 181692, Note_on_c, 9, 51, 0
1, 181919, Note_on_c, 9, 35, 0
1, 181920, Note_on_c, 9, 38, 100
1, 181920, Note_on_c, 9, 42, 74
1, 181932, Note_on_c, 9, 42, 0
1, 182159, Note_on_c, 9, 38, 0
1, 182160, Note_on_c, 9, 51, 60
1, 182160, Note_on_c, 9, 42, 47
1, 182160, Note_on_c, 9, 55, 75
1, 182160, Note_on_c, 9, 35, 104
1, 182172, Note_on_c, 9, 51, 0
1, 182172, Note_on_c, 9, 42, 0
1, 182172, Note_on_c, 9, 55, 0
1, 182399, Note_on_c, 9, 35, 0
1, 182400, Note_on_c, 9, 51, 35
1, 182400, Note_on_c, 9, 42, 47
1, 182412, Note_on_c, 9, 51, 0
1, 182412, Note_on_c, 9, 42, 0
1, 182640, Note_on_c, 9, 51, 53
1, 182640, Note_on_c, 9, 42, 54
1, 182652, Note_on_c, 9, 51, 0
1, 182652, Note_on_c, 9, 42, 0
1, 182880, Note_on_c, 9, 38, 100
1, 182880, Note_on_c, 9, 51, 38
1, 182880, Note_on_c, 9, 42, 70
1, 182892, Note_on_c, 9, 51, 0
1, 182892, Note_on_c, 9, 42, 0
1, 183119, Note_on_c, 9, 38, 0
1, 183120, Note_on_c, 9, 51, 38
1, 183120, Note_on_c, 9, 42, 46
1, 183120, Note_on_c, 9, 35, 95
1, 183132, Note_on_c, 9, 51, 0
1, 183132, Note_on_c, 9, 42, 0
1, 183359, Note_on_c, 9, 35, 0
1, 183360, Note_on_c, 9, 51, 58
1, 183360, Note_on_c, 9, 42, 72
1, 183360, Note_on_c, 9, 35, 107
1, 183372, Note_on_c, 9, 51, 0
1, 183372, Note_on_c, 9, 42, 0
1, 183600, Note_on_c, 9, 51, 36
1, 183600, Note_on_c, 9, 42, 46
1, 183612, Note_on_c, 9, 51, 0
1, 183612, Note_on_c, 9, 42, 0
1, 183839, Note_on_c, 9, 35, 0
1, 183840, Note_on_c, 9, 38, 100
1, 183840, Note_on_c, 9, 51, 64
1, 183840, Note_on_c, 9, 42, 74
1, 183852, Note_on_c, 9, 51, 0
1, 183852, Note_on_c, 9, 42, 0
1, 184079, Note_on_c, 9, 38, 0
1, 184080, Note_on_c, 9, 51, 37
1, 184080, Note_on_c, 9, 42, 40
1, 184080, Note_on_c, 9, 35, 93
1, 184092, Note_on_c, 9, 51, 0
1, 184092, Note_on_c, 9, 42, 0
1, 184319, Note_on_c, 9, 35, 0
1, 184320, Note_on_c, 9, 51, 60
1, 184320, Note_on_c, 9, 42, 74
1, 184320, Note_on_c, 9, 35, 107
1, 184332, Note_on_c, 9, 51, 0
1, 184332, Note_on_c, 9, 42, 0
1, 184560, Note_on_c, 9, 51, 59
1, 184560, Note_on_c, 9, 42, 42
1, 184572, Note_on_c, 9, 51, 0
1, 184572, Note_on_c, 9, 42, 0
1, 184799, Note_on_c, 9, 35, 0
1, 184800, Note_on_c, 9, 38, 100
1, 184800, Note_on_c, 9, 51, 29
1, 184800, Note_on_c, 9, 42, 68
1, 184812, Note_on_c, 9, 51, 0
1, 184812, Note_on_c, 9, 42, 0
1, 185039, Note_on_c, 9, 38, 0
1, 185040, Note_on_c, 9, 51, 59
1, 185040, Note_on_c, 9, 42, 42
1, 185040, Note_on_c, 9, 35, 102
1, 185052, Note_on_c, 9, 51, 0
1, 185052, Note_on_c, 9, 42, 0
1, 185279, Note_on_c, 9, 35, 0
1, 185280, Note_on_c, 9, 51, 34
1, 185280, Note_on_c, 9, 42, 62
1, 185292, Note_on_c, 9, 51, 0
1, 185292, Note_on_c, 9, 42, 0
1, 185520, Note_on_c, 9, 51, 47
1, 185520, Note_on_c, 9, 42, 41
1, 185520, Note_on_c, 9, 35, 102
1, 185532, Note_on_c, 9, 51, 0
1, 185532, Note_on_c, 9, 42, 0
1, 185759, Note_on_c, 9, 35, 0
1, 185760, Note_on_c, 9, 38, 100
1, 185760, Note_on_c, 9, 51, 53
1, 185760, Note_on_c, 9, 42, 74
1, 185772, Note_on_c, 9, 51, 0
1, 185772, Note_on_c, 9, 42, 0
1, 185999, Note_on_c, 9, 38, 0
1, 186000, Note_on_c, 9, 51, 34
1, 186000, Note_on_c, 9, 42, 42
1, 186000, Note_on_c, 9, 35, 102
1, 186012, Note_on_c, 9, 51, 0
1, 186012, Note_on_c, 9, 42, 0
1, 186239, Note_on_c, 9, 35, 0
1, 186240, Note_on_c, 9, 51, 53
1, 186240, Note_on_c, 9, 42, 74
1, 186240, Note_on_c, 9, 35, 107
1, 186252, Note_on_c, 9, 51, 0
1, 186252, Note_on_c, 9, 42, 0
1, 186480, Note_on_c, 9, 53, 47
1, 186480, Note_on_c, 9, 42, 42
1, 186492, Note_on_c, 9, 42, 0
1, 186719, Note_on_c, 9, 35, 0
1, 186719, Note_on_c, 9, 53, 0
1, 186720, Note_on_c, 9, 38, 100
1, 186720, Note_on_c, 9, 51, 26
1, 186720, Note_on_c, 9, 42, 72
1, 186732, Note_on_c, 9, 51, 0
1, 186732, Note_on_c, 9, 42, 0
1, 186959, Note_on_c, 9, 38, 0
1, 186960, Note_on_c, 9, 51, 49
1, 186960, Note_on_c, 9, 42, 40
1, 186960, Note_on_c, 9, 35, 107
1, 186972, Note_on_c, 9, 51, 0
1, 186972, Note_on_c, 9, 42, 0
1, 187199, Note_on_c, 9, 35, 0
1, 187200, Note_on_c, 9, 51, 58
1, 187200, Note_on_c, 9, 42, 66
1, 187212, Note_on_c, 9, 51, 0
1, 187212, Note_on_c, 9, 42, 0
1, 187440, Note_on_c, 9, 46, 62
1, 187440, Note_on_c, 9, 53, 71
1, 187440, Note_on_c, 9, 35, 107
1, 187452, Note_on_c, 9, 46, 0
1, 187679, Note_on_c, 9, 53, 0
1, 187679, Note_on_c, 9, 35, 0
1, 187680, Note_on_c, 9, 38, 100
1, 187680, Note_on_c, 9, 51, 44
1, 187680, Note_on_c, 9, 42, 74
1, 187692, Note_on_c, 9, 51, 0
1, 187692, Note_on_c, 9, 42, 0
1, 187919, Note_on_c, 9, 38, 0
1, 187920, Note_on_c, 9, 46, 61
1, 187920, Note_on_c, 9, 51, 43
1, 187920, Note_on_c, 9, 52, 94
1, 187920, Note_on_c, 9, 35, 93
1, 187932, Note_on_c, 9, 46, 0
1, 187932, Note_on_c, 9, 51, 0
1, 187932, Note_on_c, 9, 52, 0
1, 188159, Note_on_c, 9, 35, 0
1, 188160, Note_on_c, 9, 51, 63
1, 188160, Note_on_c, 9, 42, 74
1, 188160, Note_on_c, 9, 57, 71
1, 188160, Note_on_c, 9, 35, 107
1, 188172, Note_on_c, 9, 51, 0
1, 188172, Note_on_c, 9, 42, 0
1, 188172, Note_on_c, 9, 57, 0
1, 188400, Note_on_c, 9, 42, 44
1, 188412, Note_on_c, 9, 42, 0
1, 188639, Note_on_c, 9, 35, 0
1, 188640, Note_on_c, 9, 38, 100
1, 188640, Note_on_c, 9, 51, 62
1, 188640, Note_on_c, 9, 42, 70
1, 188652, Note_on_c, 9, 51, 0
1, 188652, Note_on_c, 9, 42, 0
1, 188879, Note_on_c, 9, 38, 0
1, 188880, Note_on_c, 9, 51, 30
1, 188880, Note_on_c, 9, 42, 45
1, 188880, Note_on_c, 9, 35, 100
1, 188892, Note_on_c, 9, 51, 0
1, 188892, Note_on_c, 9, 42, 0
1, 189119, Note_on_c, 9, 35, 0
1, 189120, Note_on_c, 9, 51, 60
1, 189120, Note_on_c, 9, 42, 66
1, 189120, Note_on_c, 9, 35, 107
1, 189132, Note_on_c, 9, 51, 0
1, 189132, Note_on_c, 9, 42, 0
1, 189359, Note_on_c, 9, 35, 0
1, 189360, Note_on_c, 9, 51, 59
1, 189360, Note_on_c, 9, 42, 42
1, 189360, Note_on_c, 9, 35, 104
1, 189372, Note_on_c, 9, 51, 0
1, 189372, Note_on_c, 9, 42, 0
1, 189599, Note_on_c, 9, 35, 0
1, 189600, Note_on_c, 9, 38, 100
1, 189600, Note_on_c, 9, 51, 40
1, 189600, Note_on_c, 9, 42, 62
1, 189612, Note_on_c, 9, 51, 0
1, 189612, Note_on_c, 9, 42, 0
1, 189839, Note_on_c, 9, 38, 0
1, 189840, Note_on_c, 9, 51, 60
1, 189840, Note_on_c, 9, 42, 45
1, 189840, Note_on_c, 9, 55, 75
1, 189840, Note_on_c, 9, 35, 104
1, 189852, Note_on_c, 9, 51, 0
1, 189852, Note_on_c, 9, 42, 0
1, 189852, Note_on_c, 9, 55, 0
1, 190079, Note_on_c, 9, 35, 0
1, 190080, Note_on_c, 9, 51, 35
1, 190080, Note_on_c, 9, 42, 65
1, 190092, Note_on_c, 9, 51, 0
1, 190092, Note_on_c, 9, 42, 0
1, 190320, Note_on_c, 9, 46, 61
1, 190320, Note_on_c, 9, 51, 57
1, 190320, Note_on_c, 9, 35, 107
1, 190332, Note_on_c, 9, 46, 0
1, 190332, Note_on_c, 9, 51, 0
1, 190559, Note_on_c, 9, 35, 0
1, 190560, Note_on_c, 9, 38, 100
1, 190560, Note_on_c, 9, 51, 42
1, 190560, Note_on_c, 9, 42, 72
1, 190572, Note_on_c, 9, 51, 0
1, 190572, Note_on_c, 9, 42, 0
1, 190799, Note_on_c, 9, 38, 0
1, 190800, Note_on_c, 9, 51, 52
1, 190800, Note_on_c, 9, 42, 46
1, 190800, Note_on_c, 9, 35, 104
1, 190812, Note_on_c, 9, 51, 0
1, 190812, Note_on_c, 9, 42, 0
1, 191039, Note_on_c, 9, 35, 0
1, 191040, Note_on_c, 9, 51, 54
1, 191040, Note_on_c, 9, 42, 62
1, 191040, Note_on_c, 9, 35, 107
1, 191052, Note_on_c, 9, 51, 0
1, 191052, Note_on_c, 9, 42, 0
1, 191280, Note_on_c, 9, 53, 73
1, 191280, Note_on_c, 9, 42, 44
1, 191292, Note_on_c, 9, 42, 0
1, 191519, Note_on_c, 9, 35, 0
1, 191519, Note_on_c, 9, 53, 0
1, 191520, Note_on_c, 9, 38, 100
1, 191520, Note_on_c, 9, 51, 62
1, 191520, Note_on_c, 9, 42, 68
1, 191532, Note_on_c, 9, 51, 0
1, 191532, Note_on_c, 9, 42, 0
1, 191759, Note_on_c, 9, 38, 0
1, 191760, Note_on_c, 9, 51, 42
1, 191760, Note_on_c, 9, 42, 44
1, 191760, Note_on_c, 9, 35, 83
1, 191772, Note_on_c, 9, 51, 0
1, 191772, Note_on_c, 9, 42, 0
1, 191999, Note_on_c, 9, 35, 0
1, 192000, Note_on_c, 9, 51, 62
1, 192000, Note_on_c, 9, 42, 70
1, 192000, Note_on_c, 9, 35, 107
1, 192012, Note_on_c, 9, 51, 0
1, 192012, Note_on_c, 9, 42, 0
1, 192240, Note_on_c, 9, 51, 59
1, 192240, Note_on_c, 9, 42, 45
1, 192252, Note_on_c, 9, 51, 0
1, 192252, Note_on_c, 9, 42, 0
1, 192479, Note_on_c, 9, 35, 0
1, 192480, Note_on_c, 9, 38, 100
1, 192480, Note_on_c, 9, 42, 68
1, 192492, Note_on_c, 9, 42, 0
1, 192719, Note_on_c, 9, 38, 0
1, 192720, Note_on_c, 9, 51, 60
1, 192720, Note_on_c, 9, 42, 47
1, 192720, Note_on_c, 9, 35, 107
1, 192732, Note_on_c, 9, 51, 0
1, 192732, Note_on_c, 9, 42, 0
1, 192959, Note_on_c, 9, 35, 0
1, 192960, Note_on_c, 9, 51, 33
1, 192960, Note_on_c, 9, 42, 66
1, 192972, Note_on_c, 9, 51, 0
1, 192972, Note_on_c, 9, 42, 0
1, 193200, Note_on_c, 9, 51, 58
1, 193200, Note_on_c, 9, 42, 46
1, 193200, Note_on_c, 9, 35, 107
1, 193212, Note_on_c, 9, 51, 0
1, 193212, Note_on_c, 9, 42, 0
1, 193439, Note_on_c, 9, 35, 0
1, 193440, Note_on_c, 9, 38, 100
1, 193440, Note_on_c, 9, 51, 27
1, 193440, Note_on_c, 9, 42, 62
1, 193452, Note_on_c, 9, 51, 0
1, 193452, Note_on_c, 9, 42, 0
1, 193679, Note_on_c, 9, 38, 0
1, 193680, Note_on_c, 9, 51, 44
1, 193680, Note_on_c, 9, 42, 50
1, 193680, Note_on_c, 9, 35, 106
1, 193692, Note_on_c, 9, 51, 0
1, 193692, Note_on_c, 9, 42, 0
1, 193919, Note_on_c, 9, 35, 0
1, 193920, Note_on_c, 9, 51, 36
1, 193920, Note_on_c, 9, 42, 61
1, 193920, Note_on_c, 9, 35, 107
1, 193932, Note_on_c, 9, 51, 0
1, 193932, Note_on_c, 9, 42, 0
1, 194160, Note_on_c, 9, 46, 54
1, 194160, Note_on_c, 9, 51, 47
1, 194172, Note_on_c, 9, 46, 0
1, 194172, Note_on_c, 9, 51, 0
1, 194399, Note_on_c, 9, 35, 0
1, 194400, Note_on_c, 9, 38, 100
1, 194400, Note_on_c, 9, 51, 54
1, 194400, Note_on_c, 9, 42, 65
1, 194412, Note_on_c, 9, 51, 0
1, 194412, Note_on_c, 9, 42, 0
1, 194639, Note_on_c, 9, 38, 0
1, 194640, Note_on_c, 9, 51, 44
1, 194640, Note_on_c, 9, 42, 55
1, 194640, Note_on_c, 9, 35, 104
1, 194652, Note_on_c, 9, 51, 0
1, 194652, Note_on_c, 9, 42, 0
1, 194879, Note_on_c, 9, 35, 0
1, 194880, Note_on_c, 9, 51, 59
1, 194880, Note_on_c, 9, 42, 68
1, 194892, Note_on_c, 9, 51, 0
1, 194892, Note_on_c, 9, 42, 0
1, 195120, Note_on_c, 9, 46, 58
1, 195120, Note_on_c, 9, 53, 56
1, 195120, Note_on_c, 9, 35, 107
1, 195132, Note_on_c, 9, 46, 0
1, 195359, Note_on_c, 9, 53, 0
1, 195359, Note_on_c, 9, 35, 0
1, 195360, Note_on_c, 9, 38, 100
1, 195360, Note_on_c, 9, 51, 58
1, 195360, Note_on_c, 9, 44, 70
1, 195372, Note_on_c, 9, 51, 0
1, 195372, Note_on_c, 9, 44, 0
1, 195599, Note_on_c, 9, 38, 0
1, 195600, Note_on_c, 9, 51, 58
1, 195600, Note_on_c, 9, 35, 77
1, 195612, Note_on_c, 9, 51, 0
1, 195839, Note_on_c, 9, 35, 0
1, 195840, Note_on_c, 9, 42, 74
1, 195840, Note_on_c, 9, 52, 100
1, 195840, Note_on_c, 9, 35, 107
1, 195852, Note_on_c, 9, 42, 0
1, 195852, Note_on_c, 9, 52, 0
1, 196080, Note_on_c, 9, 42, 44
1, 196092, Note_on_c, 9, 42, 0
1, 196319, Note_on_c, 9, 35, 0
1, 196320, Note_on_c, 9, 38, 100
1, 196320, Note_on_c, 9, 42, 74
1, 196332, Note_on_c, 9, 42, 0
1, 196559, Note_on_c, 9, 38, 0
1, 196560, Note_on_c, 9, 42, 44
1, 196560, Note_on_c, 9, 35, 100
1, 196572, Note_on_c, 9, 42, 0
1, 196799, Note_on_c, 9, 35, 0
1, 196800, Note_on_c, 9, 42, 74
1, 196800, Note_on_c, 9, 35, 107
1, 196812, Note_on_c, 9, 42, 0
1, 197040, Note_on_c, 9, 42, 44
1, 197052, Note_on_c, 9, 42, 0
1, 197279, Note_on_c, 9, 35, 0
1, 197280, Note_on_c, 9, 38, 100
1, 197280, Note_on_c, 9, 42, 74
1, 197292, Note_on_c, 9, 42, 0
1, 197519, Note_on_c, 9, 38, 0
1, 197520, Note_on_c, 9, 46, 54
1, 197532, Note_on_c, 9, 46, 0
1, 197760, Note_on_c, 9, 42, 74
1, 197760, Note_on_c, 9, 35, 107
1, 197772, Note_on_c, 9, 42, 0
1, 198000, Note_on_c, 9, 46, 56
1, 198012, Note_on_c, 9, 46, 0
1, 198239, Note_on_c, 9, 35, 0
1, 198240, Note_on_c, 9, 38, 100
1, 198240, Note_on_c, 9, 42, 74
1, 198252, Note_on_c, 9, 42, 0
1, 198479, Note_on_c, 9, 38, 0
1, 198480, Note_on_c, 9, 46, 58
1, 198480, Note_on_c, 9, 35, 102
1, 198492, Note_on_c, 9, 46, 0
1, 198719, Note_on_c, 9, 35, 0
1, 198720, Note_on_c, 9, 42, 67
1, 198720, Note_on_c, 9, 35, 107
1, 198732, Note_on_c, 9, 42, 0
1, 198960, Note_on_c, 9, 46, 54
1, 198972, Note_on_c, 9, 46, 0
1, 199199, Note_on_c, 9, 35, 0
1, 199200, Note_on_c, 9, 38, 100
1, 199200, Note_on_c, 9, 42, 72
1, 199212, Note_on_c, 9, 42, 0
1, 199439, Note_on_c, 9, 38, 0
1, 199440, Note_on_c, 9, 46, 61
1, 199440, Note_on_c, 9, 35, 102
1, 199452, Note_on_c, 9, 46, 0
1, 199679, Note_on_c, 9, 35, 0
1, 199680, Note_on_c, 9, 51, 59
1, 199680, Note_on_c, 9, 42, 74
1, 199680, Note_on_c, 9, 35, 107
1, 199692, Note_on_c, 9, 51, 0
1, 199692, Note_on_c, 9, 42, 0
1, 199920, Note_on_c, 9, 42, 45
1, 199932, Note_on_c, 9, 42, 0
1, 200159, Note_on_c, 9, 35, 0
1, 200160, Note_on_c, 9, 38, 100
1, 200160, Note_on_c, 9, 42, 74
1, 200172, Note_on_c, 9, 42, 0
1, 200399, Note_on_c, 9, 38, 0
1, 200400, Note_on_c, 9, 42, 47
1, 200400, Note_on_c, 9, 35, 102
1, 200412, Note_on_c, 9, 42, 0
1, 200639, Note_on_c, 9, 35, 0
1, 200640, Note_on_c, 9, 42, 74
1, 200640, Note_on_c, 9, 35, 107
1, 200652, Note_on_c, 9, 42, 0
1, 200880, Note_on_c, 9, 42, 45
1, 200892, Note_on_c, 9, 42, 0
1, 201119, Note_on_c, 9, 35, 0
1, 201120, Note_on_c, 9, 38, 100
1, 201120, Note_on_c, 9, 42, 74
1, 201132, Note_on_c, 9, 42, 0
1, 201359, Note_on_c, 9, 38, 0
1, 201360, Note_on_c, 9, 42, 47
1, 201372, Note_on_c, 9, 42, 0
1, 201600, Note_on_c, 9, 42, 74
1, 201600, Note_on_c, 9, 35, 107
1, 201612, Note_on_c, 9, 42, 0
1, 201840, Note_on_c, 9, 42, 40
1, 201852, Note_on_c, 9, 42, 0
1, 202079, Note_on_c, 9, 35, 0
1, 202080, Note_on_c, 9, 38, 100
1, 202080, Note_on_c, 9, 42, 74
1, 202092, Note_on_c, 9, 42, 0
1, 202319, Note_on_c, 9, 38, 0
1, 202320, Note_on_c, 9, 42, 49
1, 202320, Note_on_c, 9, 35, 107
1, 202332, Note_on_c, 9, 42, 0
1, 202559, Note_on_c, 9, 35, 0
1, 202560, Note_on_c, 9, 42, 74
1, 202560, Note_on_c, 9, 35, 107
1, 202572, Note_on_c, 9, 42, 0
1, 202799, Note_on_c, 9, 35, 0
1, 202800, Note_on_c, 9, 42, 50
1, 202800, Note_on_c, 9, 35, 107
1, 202812, Note_on_c, 9, 42, 0
1, 203039, Note_on_c, 9, 35, 0
1, 203040, Note_on_c, 9, 38, 100
1, 203040, Note_on_c, 9, 42, 74
1, 203052, Note_on_c, 9, 42, 0
1, 203279, Note_on_c, 9, 38, 0
1, 203280, Note_on_c, 9, 46, 59
1, 203280, Note_on_c, 9, 35, 104
1, 203292, Note_on_c, 9, 46, 0
1, 203519, Note_on_c, 9, 35, 0
1, 203520, Note_on_c, 9, 51, 58
1, 203520, Note_on_c, 9, 53, 71
1, 203520, Note_on_c, 9, 42, 74
1, 203520, Note_on_c, 9, 35, 107
1, 203532, Note_on_c, 9, 51, 0
1, 203532, Note_on_c, 9, 42, 0
1, 203759, Note_on_c, 9, 53, 0
1, 203760, Note_on_c, 9, 42, 48
1, 203772, Note_on_c, 9, 42, 0
1, 203999, Note_on_c, 9, 35, 0
1, 204000, Note_on_c, 9, 38, 100
1, 204000, Note_on_c, 9, 42, 74
1, 204012, Note_on_c, 9, 42, 0
1, 204239, Note_on_c, 9, 38, 0
1, 204240, Note_on_c, 9, 42, 45
1, 204240, Note_on_c, 9, 35, 100
1, 204252, Note_on_c, 9, 42, 0
1, 204479, Note_on_c, 9, 35, 0
1, 204480, Note_on_c, 9, 42, 74
1, 204480, Note_on_c, 9, 35, 107
1, 204492, Note_on_c, 9, 42, 0
1, 204720, Note_on_c, 9, 42, 44
1, 204732, Note_on_c, 9, 42, 0
1, 204959, Note_on_c, 9, 35, 0
1, 204960, Note_on_c, 9, 38, 100
1, 204960, Note_on_c, 9, 42, 72
1, 204972, Note_on_c, 9, 42, 0
1, 205199, Note_on_c, 9, 38, 0
1, 205200, Note_on_c, 9, 46, 52
1, 205212, Note_on_c, 9, 46, 0
1, 205440, Note_on_c, 9, 42, 74
1, 205440, Note_on_c, 9, 35, 107
1, 205452, Note_on_c, 9, 42, 0
1, 205680, Note_on_c, 9, 46, 51
1, 205692, Note_on_c, 9, 46, 0
1, 205919, Note_on_c, 9, 35, 0
1, 205920, Note_on_c, 9, 38, 100
1, 205920, Note_on_c, 9, 42, 67
1, 205932, Note_on_c, 9, 42, 0
1, 206159, Note_on_c, 9, 38, 0
1, 206160, Note_on_c, 9, 46, 54
1, 206160, Note_on_c, 9, 35, 100
1, 206172, Note_on_c, 9, 46, 0
1, 206399, Note_on_c, 9, 35, 0
1, 206400, Note_on_c, 9, 42, 66
1, 206400, Note_on_c, 9, 35, 107
1, 206412, Note_on_c, 9, 42, 0
1, 206640, Note_on_c, 9, 46, 54
1, 206652, Note_on_c, 9, 46, 0
1, 206879, Note_on_c, 9, 35, 0
1, 206880, Note_on_c, 9, 38, 100
1, 206880, Note_on_c, 9, 42, 72
1, 206892, Note_on_c, 9, 42, 0
1, 207119, Note_on_c, 9, 38, 0
1, 207120, Note_on_c, 9, 46, 56
1, 207120, Note_on_c, 9, 55, 50
1, 207120, Note_on_c, 9, 35, 107
1, 207132, Note_on_c, 9, 46, 0
1, 207132, Note_on_c, 9, 55, 0
1, 207359, Note_on_c, 9, 35, 0
1, 207360, Note_on_c, 9, 51, 60
1, 207360, Note_on_c, 9, 42, 74
1, 207360, Note_on_c, 9, 35, 107
1, 207372, Note_on_c, 9, 51, 0
1, 207372, Note_on_c, 9, 42, 0
1, 207600, Note_on_c, 9, 42, 42
1, 207612, Note_on_c, 9, 42, 0
1, 207839, Note_on_c, 9, 35, 0
1, 207840, Note_on_c, 9, 38, 100
1, 207840, Note_on_c, 9, 42, 74
1, 207852, Note_on_c, 9, 42, 0
1, 208079, Note_on_c, 9, 38, 0
1, 208080, Note_on_c, 9, 42, 47
1, 208080, Note_on_c, 9, 35, 104
1, 208092, Note_on_c, 9, 42, 0
1, 208319, Note_on_c, 9, 35, 0
1, 208320, Note_on_c, 9, 42, 74
1, 208320, Note_on_c, 9, 35, 107
1, 208332, Note_on_c, 9, 42, 0
1, 208560, Note_on_c, 9, 42, 39
1, 208572, Note_on_c, 9, 42, 0
1, 208799, Note_on_c, 9, 35, 0
1, 208800, Note_on_c, 9, 38, 100
1, 208800, Note_on_c, 9, 42, 74
1, 208812, Note_on_c, 9, 42, 0
1, 209039, Note_on_c, 9, 38, 0
1, 209040, Note_on_c, 9, 42, 62
1, 209052, Note_on_c, 9, 42, 0
1, 209280, Note_on_c, 9, 42, 62
1, 209280, Note_on_c, 9, 35, 107
1, 209292, Note_on_c, 9, 42, 0
1, 209520, Note_on_c, 9, 46, 58
1, 209532, Note_on_c, 9, 46, 0
1, 209759, Note_on_c, 9, 35, 0
1, 209760, Note_on_c, 9, 38, 100
1, 209760, Note_on_c, 9, 42, 65
1, 209772, Note_on_c, 9, 42, 0
1, 209999, Note_on_c, 9, 38, 0
1, 210000, Note_on_c, 9, 42, 72
1, 210000, Note_on_c, 9, 35, 107
1, 210012, Note_on_c, 9, 42, 0
1, 210239, Note_on_c, 9, 35, 0
1, 210240, Note_on_c, 9, 46, 54
1, 210240, Note_on_c, 9, 35, 107
1, 210252, Note_on_c, 9, 46, 0
1, 210480, Note_on_c, 9, 38, 96
1, 210480, Note_on_c, 9, 53, 58
1, 210480, Note_on_c, 9, 42, 66
1, 210492, Note_on_c, 9, 42, 0
1, 210719, Note_on_c, 9, 35, 0
1, 210719, Note_on_c, 9, 38, 0
1, 210719, Note_on_c, 9, 53, 0
1, 210720, Note_on_c, 9, 45, 95
1, 210720, Note_on_c, 9, 51, 53
1, 210720, Note_on_c, 9, 42, 68
1, 210732, Note_on_c, 9, 51, 0
1, 210732, Note_on_c, 9, 42, 0
1, 210959, Note_on_c, 9, 45, 0
1, 210960, Note_on_c, 9, 41, 95
1, 210960, Note_on_c, 9, 46, 54
1, 210960, Note_on_c, 9, 51, 63
1, 210972, Note_on_c, 9, 46, 0
1, 210972, Note_on_c, 9, 51, 0
1, 211199, Note_on_c, 9, 41, 0
1, 211200, Note_on_c, 9, 42, 74
1, 211200, Note_on_c, 9, 49, 73
1, 211200, Note_on_c, 9, 35, 107
1, 211212, Note_on_c, 9, 42, 0
1, 211212, Note_on_c, 9, 49, 0
1, 211440, Note_on_c, 9, 46, 49
1, 211440, Note_on_c, 9, 51, 53
1, 211452, Note_on_c, 9, 46, 0
1, 211452, Note_on_c, 9, 51, 0
1, 211679, Note_on_c, 9, 35, 0
1, 211680, Note_on_c, 9, 38, 100
1, 211680, Note_on_c, 9, 42, 61
1, 211692, Note_on_c, 9, 42, 0
1, 211919, Note_on_c, 9, 38, 0
1, 211920, Note_on_c, 9, 46, 56
1, 211920, Note_on_c, 9, 51, 65
1, 211920, Note_on_c, 9, 35, 107
1, 211932, Note_on_c, 9, 46, 0
1, 211932, Note_on_c, 9, 51, 0
1, 212159, Note_on_c, 9, 35, 0
1, 212160, Note_on_c, 9, 42, 72
1, 212172, Note_on_c, 9, 42, 0
1, 212400, Note_on_c, 9, 51, 60
1, 212400, Note_on_c, 9, 42, 46
1, 212412, Note_on_c, 9, 51, 0
1, 212412, Note_on_c, 9, 42, 0
1, 212640, Note_on_c, 9, 38, 100
1, 212640, Note_on_c, 9, 42, 74
1, 212652, Note_on_c, 9, 42, 0
1, 212879, Note_on_c, 9, 38, 0
1, 212880, Note_on_c, 9, 51, 62
1, 212880, Note_on_c, 9, 42, 42
1, 212880, Note_on_c, 9, 35, 89
1, 212892, Note_on_c, 9, 51, 0
1, 212892, Note_on_c, 9, 42, 0
1, 213119, Note_on_c, 9, 35, 0
1, 213120, Note_on_c, 9, 42, 68
1, 213120, Note_on_c, 9, 35, 107
1, 213132, Note_on_c, 9, 42, 0
1, 213360, Note_on_c, 9, 46, 43
1, 213360, Note_on_c, 9, 51, 62
1, 213372, Note_on_c, 9, 46, 0
1, 213372, Note_on_c, 9, 51, 0
1, 213599, Note_on_c, 9, 35, 0
1, 213600, Note_on_c, 9, 38, 100
1, 213600, Note_on_c, 9, 42, 66
1, 213612, Note_on_c, 9, 42, 0
1, 213839, Note_on_c, 9, 38, 0
1, 213840, Note_on_c, 9, 53, 78
1, 213840, Note_on_c, 9, 42, 52
1, 213840, Note_on_c, 9, 35, 107
1, 213852, Note_on_c, 9, 42, 0
1, 214079, Note_on_c, 9, 53, 0
1, 214079, Note_on_c, 9, 35, 0
1, 214080, Note_on_c, 9, 42, 68
1, 214092, Note_on_c, 9, 42, 0
1, 214320, Note_on_c, 9, 53, 71
1, 214320, Note_on_c, 9, 42, 42
1, 214320, Note_on_c, 9, 35, 100
1, 214332, Note_on_c, 9, 42, 0
1, 214559, Note_on_c, 9, 53, 0
1, 214559, Note_on_c, 9, 35, 0
1, 214560, Note_on_c, 9, 38, 100
1, 214560, Note_on_c, 9, 42, 74
1, 214572, Note_on_c, 9, 42, 0
1, 214799, Note_on_c, 9, 38, 0
1, 214800, Note_on_c, 9, 53, 79
1, 214800, Note_on_c, 9, 42, 45
1, 214800, Note_on_c, 9, 35, 102
1, 214812, Note_on_c, 9, 42, 0
1, 215039, Note_on_c, 9, 53, 0
1, 215039, Note_on_c, 9, 35, 0
1, 215040, Note_on_c, 9, 42, 74
1, 215040, Note_on_c, 9, 35, 107
1, 215052, Note_on_c, 9, 42, 0
1, 215280, Note_on_c, 9, 51, 60
1, 215280, Note_on_c, 9, 42, 42
1, 215292, Note_on_c, 9, 51, 0
1, 215292, Note_on_c, 9, 42, 0
1, 215519, Note_on_c, 9, 35, 0
1, 215520, Note_on_c, 9, 38, 100
1, 215520, Note_on_c, 9, 42, 72
1, 215532, Note_on_c, 9, 42, 0
1, 215759, Note_on_c, 9, 38, 0
1, 215760, Note_on_c, 9, 51, 53
1, 215760, Note_on_c, 9, 42, 44
1, 215760, Note_on_c, 9, 35, 107
1, 215772, Note_on_c, 9, 51, 0
1, 215772, Note_on_c, 9, 42, 0
1, 215999, Note_on_c, 9, 35, 0
1, 216000, Note_on_c, 9, 51, 60
1, 216000, Note_on_c, 9, 42, 74
1, 216012, Note_on_c, 9, 51, 0
1, 216012, Note_on_c, 9, 42, 0
1, 216240, Note_on_c, 9, 51, 59
1, 216240, Note_on_c, 9, 42, 43
1, 216240, Note_on_c, 9, 35, 102
1, 216252, Note_on_c, 9, 51, 0
1, 216252, Note_on_c, 9, 42, 0
1, 216479, Note_on_c, 9, 35, 0
1, 216480, Note_on_c, 9, 38, 100
1, 216480, Note_on_c, 9, 42, 74
1, 216492, Note_on_c, 9, 42, 0
1, 216719, Note_on_c, 9, 38, 0
1, 216720, Note_on_c, 9, 51, 63
1, 216720, Note_on_c, 9, 42, 44
1, 216720, Note_on_c, 9, 35, 102
1, 216732, Note_on_c, 9, 51, 0
1, 216732, Note_on_c, 9, 42, 0
1, 216959, Note_on_c, 9, 35, 0
1, 216960, Note_on_c, 9, 42, 74
1, 216960, Note_on_c, 9, 35, 107
1, 216972, Note_on_c, 9, 42, 0
1, 217200, Note_on_c, 9, 51, 59
1, 217200, Note_on_c, 9, 42, 42
1, 217212, Note_on_c, 9, 51, 0
1, 217212, Note_on_c, 9, 42, 0
1, 217439, Note_on_c, 9, 35, 0
1, 217440, Note_on_c, 9, 38, 100
1, 217440, Note_on_c, 9, 42, 74
1, 217452, Note_on_c, 9, 42, 0
1, 217679, Note_on_c, 9, 38, 0
1, 217680, Note_on_c, 9, 51, 36
1, 217680, Note_on_c, 9, 42, 45
1, 217680, Note_on_c, 9, 35, 107
1, 217692, Note_on_c, 9, 51, 0
1, 217692, Note_on_c, 9, 42, 0
1, 217919, Note_on_c, 9, 35, 0
1, 217920, Note_on_c, 9, 51, 59
1, 217920, Note_on_c, 9, 42, 74
1, 217932, Note_on_c, 9, 51, 0
1, 217932, Note_on_c, 9, 42, 0
1, 218160, Note_on_c, 9, 46, 41
1, 218160, Note_on_c, 9, 51, 59
1, 218172, Note_on_c, 9, 46, 0
1, 218172, Note_on_c, 9, 51, 0
1, 218400, Note_on_c, 9, 38, 100
1, 218400, Note_on_c, 9, 51, 60
1, 218400, Note_on_c, 9, 42, 74
1, 218412, Note_on_c, 9, 51, 0
1, 218412, Note_on_c, 9, 42, 0
1, 218639, Note_on_c, 9, 38, 0
1, 218640, Note_on_c, 9, 46, 39
1, 218640, Note_on_c, 9, 51, 60
1, 218640, Note_on_c, 9, 35, 102
1, 218652, Note_on_c, 9, 46, 0
1, 218652, Note_on_c, 9, 51, 0
1, 218879, Note_on_c, 9, 35, 0
1, 218880, Note_on_c, 9, 42, 74
1, 218880, Note_on_c, 9, 35, 107
1, 218892, Note_on_c, 9, 42, 0
1, 219120, Note_on_c, 9, 51, 60
1, 219120, Note_on_c, 9, 42, 47
1, 219132, Note_on_c, 9, 51, 0
1, 219132, Note_on_c, 9, 42, 0
1, 219359, Note_on_c, 9, 35, 0
1, 219360, Note_on_c, 9, 38, 100
1, 219360, Note_on_c, 9, 42, 72
1, 219372, Note_on_c, 9, 42, 0
1, 219599, Note_on_c, 9, 38, 0
1, 219600, Note_on_c, 9, 51, 62
1, 219600, Note_on_c, 9, 42, 41
1, 219600, Note_on_c, 9, 35, 107
1, 219612, Note_on_c, 9, 51, 0
1, 219612, Note_on_c, 9, 42, 0
1, 219839, Note_on_c, 9, 35, 0
1, 219840, Note_on_c, 9, 42, 74
1, 219852, Note_on_c, 9, 42, 0
1, 220080, Note_on_c, 9, 53, 81
1, 220080, Note_on_c, 9, 42, 44
1, 220080, Note_on_c, 9, 35, 107
1, 220092, Note_on_c, 9, 42, 0
1, 220319, Note_on_c, 9, 53, 0
1, 220319, Note_on_c, 9, 35, 0
1, 220320, Note_on_c, 9, 38, 100
1, 220320, Note_on_c, 9, 42, 74
1, 220332, Note_on_c, 9, 42, 0
1, 220559, Note_on_c, 9, 38, 0
1, 220560, Note_on_c, 9, 53, 73
1, 220560, Note_on_c, 9, 42, 42
1, 220560, Note_on_c, 9, 35, 93
1, 220572, Note_on_c, 9, 42, 0
1, 220799, Note_on_c, 9, 53, 0
1, 220799, Note_on_c, 9, 35, 0
1, 220800, Note_on_c, 9, 42, 72
1, 220800, Note_on_c, 9, 35, 107
1, 220812, Note_on_c, 9, 42, 0
1, 221040, Note_on_c, 9, 51, 59
1, 221040, Note_on_c, 9, 42, 62
1, 221052, Note_on_c, 9, 51, 0
1, 221052, Note_on_c, 9, 42, 0
1, 221279, Note_on_c, 9, 35, 0
1, 221280, Note_on_c, 9, 38, 100
1, 221280, Note_on_c, 9, 46, 60
1, 221292, Note_on_c, 9, 46, 0
1, 221519, Note_on_c, 9, 38, 0
1, 221520, Note_on_c, 9, 51, 60
1, 221520, Note_on_c, 9, 35, 100
1, 221532, Note_on_c, 9, 51, 0
1, 221759, Note_on_c, 9, 35, 0
1, 221760, Note_on_c, 9, 42, 67
1, 221772, Note_on_c, 9, 42, 0
1, 222000, Note_on_c, 9, 51, 60
1, 222000, Note_on_c, 9, 42, 46
1, 222000, Note_on_c, 9, 35, 107
1, 222012, Note_on_c, 9, 51, 0
1, 222012, Note_on_c, 9, 42, 0
1, 222239, Note_on_c, 9, 35, 0
1, 222240, Note_on_c, 9, 38, 100
1, 222240, Note_on_c, 9, 42, 73
1, 222252, Note_on_c, 9, 42, 0
1, 222479, Note_on_c, 9, 38, 0
1, 222480, Note_on_c, 9, 53, 81
1, 222480, Note_on_c, 9, 42, 61
1, 222480, Note_on_c, 9, 35, 107
1, 222492, Note_on_c, 9, 42, 0
1, 222719, Note_on_c, 9, 53, 0
1, 222719, Note_on_c, 9, 35, 0
1, 222720, Note_on_c, 9, 51, 62
1, 222720, Note_on_c, 9, 42, 74
1, 222720, Note_on_c, 9, 57, 57
1, 222720, Note_on_c, 9, 35, 107
1, 222732, Note_on_c, 9, 51, 0
1, 222732, Note_on_c, 9, 42, 0
1, 222732, Note_on_c, 9, 57, 0
1, 222960, Note_on_c, 9, 42, 43
1, 222972, Note_on_c, 9, 42, 0
1, 223199, Note_on_c, 9, 35, 0
1, 223200, Note_on_c, 9, 38, 100
1, 223200, Note_on_c, 9, 42, 74
1, 223212, Note_on_c, 9, 42, 0
1, 223439, Note_on_c, 9, 38, 0
1, 223440, Note_on_c, 9, 42, 42
1, 223440, Note_on_c, 9, 35, 100
1, 223452, Note_on_c, 9, 42, 0
1, 223679, Note_on_c, 9, 35, 0
1, 223680, Note_on_c, 9, 42, 74
1, 223680, Note_on_c, 9, 35, 107
1, 223692, Note_on_c, 9, 42, 0
1, 223920, Note_on_c, 9, 42, 44
1, 223932, Note_on_c, 9, 42, 0
1, 224159, Note_on_c, 9, 35, 0
1, 224160, Note_on_c, 9, 38, 100
1, 224160, Note_on_c, 9, 42, 74
1, 224172, Note_on_c, 9, 42, 0
1, 224399, Note_on_c, 9, 38, 0
1, 224400, Note_on_c, 9, 42, 41
1, 224412, Note_on_c, 9, 42, 0
1, 224640, Note_on_c, 9, 42, 74
1, 224640, Note_on_c, 9, 35, 107
1, 224652, Note_on_c, 9, 42, 0
1, 224880, Note_on_c, 9, 42, 39
1, 224892, Note_on_c, 9, 42, 0
1, 225119, Note_on_c, 9, 35, 0
1, 225120, Note_on_c, 9, 38, 100
1, 225120, Note_on_c, 9, 42, 74
1, 225132, Note_on_c, 9, 42, 0
1, 225359, Note_on_c, 9, 38, 0
1, 225360, Note_on_c, 9, 46, 62
1, 225360, Note_on_c, 9, 35, 98
1, 225372, Note_on_c, 9, 46, 0
1, 225599, Note_on_c, 9, 35, 0
1, 225600, Note_on_c, 9, 42, 66
1, 225612, Note_on_c, 9, 42, 0
1, 225840, Note_on_c, 9, 46, 57
1, 225840, Note_on_c, 9, 35, 107
1, 225852, Note_on_c, 9, 46, 0
1, 226079, Note_on_c, 9, 35, 0
1, 226080, Note_on_c, 9, 38, 100
1, 226080, Note_on_c, 9, 42, 74
1, 226092, Note_on_c, 9, 42, 0
1, 226319, Note_on_c, 9, 38, 0
1, 226320, Note_on_c, 9, 46, 59
1, 226320, Note_on_c, 9, 35, 102
1, 226332, Note_on_c, 9, 46, 0
1, 226559, Note_on_c, 9, 35, 0
1, 226560, Note_on_c, 9, 51, 58
1, 226560, Note_on_c, 9, 53, 56
1, 226560, Note_on_c, 9, 42, 74
1, 226560, Note_on_c, 9, 35, 107
1, 226572, Note_on_c, 9, 51, 0
1, 226572, Note_on_c, 9, 42, 0
1, 226799, Note_on_c, 9, 53, 0
1, 226800, Note_on_c, 9, 42, 39
1, 226812, Note_on_c, 9, 42, 0
1, 227039, Note_on_c, 9, 35, 0
1, 227040, Note_on_c, 9, 38, 100
1, 227040, Note_on_c, 9, 42, 74
1, 227052, Note_on_c, 9, 42, 0
1, 227279, Note_on_c, 9, 38, 0
1, 227280, Note_on_c, 9, 42, 46
1, 227280, Note_on_c, 9, 35, 100
1, 227292, Note_on_c, 9, 42, 0
1, 227519, Note_on_c, 9, 35, 0
1, 227520, Note_on_c, 9, 42, 74
1, 227520, Note_on_c, 9, 35, 107
1, 227532, Note_on_c, 9, 42, 0
1, 227760, Note_on_c, 9, 42, 41
1, 227772, Note_on_c, 9, 42, 0
1, 227999, Note_on_c, 9, 35, 0
1, 228000, Note_on_c, 9, 38, 100
1, 228000, Note_on_c, 9, 42, 74
1, 228012, Note_on_c, 9, 42, 0
1, 228239, Note_on_c, 9, 38, 0
1, 228240, Note_on_c, 9, 42, 34
1, 228252, Note_on_c, 9, 42, 0
1, 228480, Note_on_c, 9, 42, 74
1, 228480, Note_on_c, 9, 35, 107
1, 228492, Note_on_c, 9, 42, 0
1, 228720, Note_on_c, 9, 42, 37
1, 228732, Note_on_c, 9, 42, 0
1, 228959, Note_on_c, 9, 35, 0
1, 228960, Note_on_c, 9, 38, 100
1, 228960, Note_on_c, 9, 42, 72
1, 228972, Note_on_c, 9, 42, 0
1, 229199, Note_on_c, 9, 38, 0
1, 229200, Note_on_c, 9, 46, 62
1, 229200, Note_on_c, 9, 35, 107
1, 229212, Note_on_c, 9, 46, 0
1, 229439, Note_on_c, 9, 35, 0
1, 229440, Note_on_c, 9, 42, 55
1, 229452, Note_on_c, 9, 42, 0
1, 229680, Note_on_c, 9, 46, 62
1, 229680, Note_on_c, 9, 35, 107
1, 229692, Note_on_c, 9, 46, 0
1, 229919, Note_on_c, 9, 35, 0
1, 229920, Note_on_c, 9, 38, 100
1, 229920, Note_on_c, 9, 42, 74
1, 229932, Note_on_c, 9, 42, 0
1, 230159, Note_on_c, 9, 38, 0
1, 230160, Note_on_c, 9, 46, 61
1, 230160, Note_on_c, 9, 35, 98
1, 230172, Note_on_c, 9, 46, 0
1, 230399, Note_on_c, 9, 35, 0
1, 230400, Note_on_c, 9, 51, 57
1, 230400, Note_on_c, 9, 42, 74
1, 230400, Note_on_c, 9, 52, 68
1, 230400, Note_on_c, 9, 35, 107
1, 230412, Note_on_c, 9, 51, 0
1, 230412, Note_on_c, 9, 42, 0
1, 230412, Note_on_c, 9, 52, 0
1, 230640, Note_on_c, 9, 42, 42
1, 230652, Note_on_c, 9, 42, 0
1, 230879, Note_on_c, 9, 35, 0
1, 230880, Note_on_c, 9, 38, 100
1, 230880, Note_on_c, 9, 42, 74
1, 230892, Note_on_c, 9, 42, 0
1, 231119, Note_on_c, 9, 38, 0
1, 231120, Note_on_c, 9, 42, 42
1, 231120, Note_on_c, 9, 35, 107
1, 231132, Note_on_c, 9, 42, 0
1, 231359, Note_on_c, 9, 35, 0
1, 231360, Note_on_c, 9, 42, 72
1, 231360, Note_on_c, 9, 35, 107
1, 231372, Note_on_c, 9, 42, 0
1, 231600, Note_on_c, 9, 42, 49
1, 231612, Note_on_c, 9, 42, 0
1, 231839, Note_on_c, 9, 35, 0
1, 231840, Note_on_c, 9, 38, 100
1, 231840, Note_on_c, 9, 42, 72
1, 231852, Note_on_c, 9, 42, 0
1, 232079, Note_on_c, 9, 38, 0
1, 232080, Note_on_c, 9, 42, 68
1, 232092, Note_on_c, 9, 42, 0
1, 232320, Note_on_c, 9, 46, 54
1, 232320, Note_on_c, 9, 35, 107
1, 232332, Note_on_c, 9, 46, 0
1, 232560, Note_on_c, 9, 38, 81
1, 232560, Note_on_c, 9, 42, 74
1, 232572, Note_on_c, 9, 42, 0
1, 232799, Note_on_c, 9, 35, 0
1, 232799, Note_on_c, 9, 38, 0
1, 232800, Note_on_c, 9, 38, 89
1, 232800, Note_on_c, 9, 48, 92
1, 232800, Note_on_c, 9, 44, 38
1, 232812, Note_on_c, 9, 44, 0
1, 232919, Note_on_c, 9, 38, 0
1, 232919, Note_on_c, 9, 48, 0
1, 232920, Note_on_c, 9, 48, 82
1, 232920, Note_on_c, 9, 51, 57
1, 232925, Note_on_c, 9, 51, 0
1, 233039, Note_on_c, 9, 48, 0
1, 233040, Note_on_c, 9, 48, 90
1, 233040, Note_on_c, 9, 53, 65
1, 233040, Note_on_c, 9, 55, 54
1, 233040, Note_on_c, 9, 44, 47
1, 233045, Note_on_c, 9, 55, 0
1, 233052, Note_on_c, 9, 44, 0
1, 233159, Note_on_c, 9, 48, 0
1, 233159, Note_on_c, 9, 53, 0
1, 233160, Note_on_c, 9, 48, 84
1, 233279, Note_on_c, 9, 48, 0
1, 233280, Note_on_c, 9, 45, 96
1, 233280, Note_on_c, 9, 44, 65
1, 233280, Note_on_c, 9, 35, 107
1, 233292, Note_on_c, 9, 44, 0
1, 233519, Note_on_c, 9, 45, 0
1, 233519, Note_on_c, 9, 35, 0
1, 233520, Note_on_c, 9, 38, 72
1, 233520, Note_on_c, 9, 45, 87
1, 233520, Note_on_c, 9, 44, 68
1, 233532, Note_on_c, 9, 44, 0
1, 233759, Note_on_c, 9, 38, 0
1, 233759, Note_on_c, 9, 45, 0
1, 233760, Note_on_c, 9, 41, 100
1, 233760, Note_on_c, 9, 38, 82
1, 233760, Note_on_c, 9, 44, 79
1, 233786, Note_on_c, 9, 44, 0
1, 233999, Note_on_c, 9, 41, 0
1, 233999, Note_on_c, 9, 38, 0
1, 234000, Note_on_c, 9, 41, 96
1, 234000, Note_on_c, 9, 38, 94
1, 234000, Note_on_c, 9, 46, 53
1, 234000, Note_on_c, 9, 52, 74
1, 234012, Note_on_c, 9, 46, 0
1, 234012, Note_on_c, 9, 52, 0
1, 234239, Note_on_c, 9, 41, 0
1, 234239, Note_on_c, 9, 38, 0
1, 234240, Note_on_c, 9, 49, 74
1, 234240, Note_on_c, 9, 35, 107
1, 234252, Note_on_c, 9, 49, 0
1, 234480, Note_on_c, 9, 51, 60
1, 234492, Note_on_c, 9, 51, 0
1, 234719, Note_on_c, 9, 35, 0
1, 234720, Note_on_c, 9, 38, 100
1, 234720, Note_on_c, 9, 44, 82
1, 234732, Note_on_c, 9, 44, 0
1, 234959, Note_on_c, 9, 38, 0
1, 234960, Note_on_c, 9, 51, 62
1, 234960, Note_on_c, 9, 35, 104
1, 234972, Note_on_c, 9, 51, 0
1, 235199, Note_on_c, 9, 35, 0
1, 235200, Note_on_c, 9, 51, 60
1, 235200, Note_on_c, 9, 44, 78
1, 235200, Note_on_c, 9, 35, 107
1, 235212, Note_on_c, 9, 51, 0
1, 235212, Note_on_c, 9, 44, 0
1, 235439, Note_on_c, 9, 35, 0
1, 235440, Note_on_c, 9, 51, 59
1, 235440, Note_on_c, 9, 35, 106
1, 235452, Note_on_c, 9, 51, 0
1, 235679, Note_on_c, 9, 35, 0
1, 235680, Note_on_c, 9, 38, 100
1, 235680, Note_on_c, 9, 51, 26
1, 235680, Note_on_c, 9, 44, 78
1, 235692, Note_on_c, 9, 51, 0
1, 235692, Note_on_c, 9, 44, 0
1, 235919, Note_on_c, 9, 38, 0
1, 235920, Note_on_c, 9, 51, 62
1, 235920, Note_on_c, 9, 35, 107
1, 235932, Note_on_c, 9, 51, 0
1, 236159, Note_on_c, 9, 35, 0
1, 236160, Note_on_c, 9, 51, 30
1, 236172, Note_on_c, 9, 51, 0
1, 236400, Note_on_c, 9, 51, 59
1, 236412, Note_on_c, 9, 51, 0
1, 236640, Note_on_c, 9, 38, 100
1, 236640, Note_on_c, 9, 51, 38
1, 236640, Note_on_c, 9, 44, 81
1, 236652, Note_on_c, 9, 51, 0
1, 236652, Note_on_c, 9, 44, 0
1, 236879, Note_on_c, 9, 38, 0
1, 236880, Note_on_c, 9, 51, 59
1, 236880, Note_on_c, 9, 35, 102
1, 236892, Note_on_c, 9, 51, 0
1, 237119, Note_on_c, 9, 35, 0
1, 237120, Note_on_c, 9, 51, 38
1, 237120, Note_on_c, 9, 44, 78
1, 237120, Note_on_c, 9, 35, 107
1, 237132, Note_on_c, 9, 51, 0
1, 237146, Note_on_c, 9, 44, 0
1, 237360, Note_on_c, 9, 51, 62
1, 237372, Note_on_c, 9, 51, 0
1, 237599, Note_on_c, 9, 35, 0
1, 237600, Note_on_c, 9, 38, 100
1, 237600, Note_on_c, 9, 51, 38
1, 237600, Note_on_c, 9, 44, 82
1, 237612, Note_on_c, 9, 51, 0
1, 237626, Note_on_c, 9, 44, 0
1, 237839, Note_on_c, 9, 38, 0
1, 237840, Note_on_c, 9, 46, 62
1, 237840, Note_on_c, 9, 51, 60
1, 237852, Note_on_c, 9, 46, 0
1, 237852, Note_on_c, 9, 51, 0
1, 238080, Note_on_c, 9, 51, 29
1, 238080, Note_on_c, 9, 44, 81
1, 238080, Note_on_c, 9, 35, 107
1, 238092, Note_on_c, 9, 51, 0
1, 238106, Note_on_c, 9, 44, 0
1, 238320, Note_on_c, 9, 51, 60
1, 238332, Note_on_c, 9, 51, 0
1, 238559, Note_on_c, 9, 35, 0
1, 238560, Note_on_c, 9, 38, 100
1, 238560, Note_on_c, 9, 51, 34
1, 238560, Note_on_c, 9, 44, 82
1, 238572, Note_on_c, 9, 51, 0
1, 238572, Note_on_c, 9, 44, 0
1, 238799, Note_on_c, 9, 38, 0
1, 238800, Note_on_c, 9, 51, 60
1, 238800, Note_on_c, 9, 35, 98
1, 238812, Note_on_c, 9, 51, 0
1, 239039, Note_on_c, 9, 35, 0
1, 239040, Note_on_c, 9, 51, 36
1, 239040, Note_on_c, 9, 44, 81
1, 239040, Note_on_c, 9, 35, 107
1, 239052, Note_on_c, 9, 51, 0
1, 239066, Note_on_c, 9, 44, 0
1, 239280, Note_on_c, 9, 51, 59
1, 239292, Note_on_c, 9, 51, 0
1, 239519, Note_on_c, 9, 35, 0
1, 239520, Note_on_c, 9, 38, 100
1, 239520, Note_on_c, 9, 51, 32
1, 239520, Note_on_c, 9, 44, 82
1, 239532, Note_on_c, 9, 51, 0
1, 239532, Note_on_c, 9, 44, 0
1, 239759, Note_on_c, 9, 38, 0
1, 239760, Note_on_c, 9, 51, 58
1, 239760, Note_on_c, 9, 35, 107
1, 239772, Note_on_c, 9, 51, 0
1, 239999, Note_on_c, 9, 35, 0
1, 240000, Note_on_c, 9, 51, 60
1, 240000, Note_on_c, 9, 44, 78
1, 240000, Note_on_c, 9, 35, 107
1, 240012, Note_on_c, 9, 51, 0
1, 240026, Note_on_c, 9, 44, 0
1, 240240, Note_on_c, 9, 51, 44
1, 240252, Note_on_c, 9, 51, 0
1, 240479, Note_on_c, 9, 35, 0
1, 240480, Note_on_c, 9, 38, 100
1, 240480, Note_on_c, 9, 51, 32
1, 240480, Note_on_c, 9, 44, 81
1, 240492, Note_on_c, 9, 51, 0
1, 240492, Note_on_c, 9, 44, 0
1, 240719, Note_on_c, 9, 38, 0
1, 240720, Note_on_c, 9, 51, 59
1, 240720, Note_on_c, 9, 35, 107
1, 240732, Note_on_c, 9, 51, 0
1, 240959, Note_on_c, 9, 35, 0
1, 240960, Note_on_c, 9, 51, 37
1, 240960, Note_on_c, 9, 44, 78
1, 240972, Note_on_c, 9, 51, 0
1, 240986, Note_on_c, 9, 44, 0
1, 241200, Note_on_c, 9, 46, 62
1, 241200, Note_on_c, 9, 51, 57
1, 241212, Note_on_c, 9, 46, 0
1, 241212, Note_on_c, 9, 51, 0
1, 241440, Note_on_c, 9, 38, 100
1, 241440, Note_on_c, 9, 51, 44
1, 241440, Note_on_c, 9, 44, 77
1, 241452, Note_on_c, 9, 51, 0
1, 241452, Note_on_c, 9, 44, 0
1, 241679, Note_on_c, 9, 38, 0
1, 241680, Note_on_c, 9, 46, 44
1, 241680, Note_on_c, 9, 51, 53
1, 241680, Note_on_c, 9, 35, 107
1, 241692, Note_on_c, 9, 46, 0
1, 241692, Note_on_c, 9, 51, 0
1, 241919, Note_on_c, 9, 35, 0
1, 241920, Note_on_c, 9, 51, 59
1, 241920, Note_on_c, 9, 44, 78
1, 241920, Note_on_c, 9, 35, 107
1, 241932, Note_on_c, 9, 51, 0
1, 241946, Note_on_c, 9, 44, 0
1, 242160, Note_on_c, 9, 53, 79
1, 242399, Note_on_c, 9, 35, 0
1, 242399, Note_on_c, 9, 53, 0
1, 242400, Note_on_c, 9, 38, 100
1, 242400, Note_on_c, 9, 51, 57
1, 242400, Note_on_c, 9, 44, 81
1, 242412, Note_on_c, 9, 51, 0
1, 242412, Note_on_c, 9, 44, 0
1, 242639, Note_on_c, 9, 38, 0
1, 242640, Note_on_c, 9, 53, 67
1, 242640, Note_on_c, 9, 35, 93
1, 242879, Note_on_c, 9, 53, 0
1, 242879, Note_on_c, 9, 35, 0
1, 242880, Note_on_c, 9, 51, 64
1, 242880, Note_on_c, 9, 44, 81
1, 242880, Note_on_c, 9, 35, 107
1, 242892, Note_on_c, 9, 51, 0
1, 242892, Note_on_c, 9, 44, 0
1, 243119, Note_on_c, 9, 35, 0
1, 243120, Note_on_c, 9, 53, 79
1, 243120, Note_on_c, 9, 35, 104
1, 243359, Note_on_c, 9, 53, 0
1, 243359, Note_on_c, 9, 35, 0
1, 243360, Note_on_c, 9, 38, 100
1, 243360, Note_on_c, 9, 51, 53
1, 243360, Note_on_c, 9, 44, 77
1, 243372, Note_on_c, 9, 51, 0
1, 243372, Note_on_c, 9, 44, 0
1, 243599, Note_on_c, 9, 38, 0
1, 243600, Note_on_c, 9, 51, 62
1, 243600, Note_on_c, 9, 35, 107
1, 243612, Note_on_c, 9, 51, 0
1, 243839, Note_on_c, 9, 35, 0
1, 243840, Note_on_c, 9, 44, 78
1, 243852, Note_on_c, 9, 44, 0
1, 244080, Note_on_c, 9, 51, 54
1, 244080, Note_on_c, 9, 35, 102
1, 244092, Note_on_c, 9, 51, 0
1, 244319, Note_on_c, 9, 35, 0
1, 244320, Note_on_c, 9, 38, 100
1, 244320, Note_on_c, 9, 51, 62
1, 244320, Note_on_c, 9, 44, 77
1, 244332, Note_on_c, 9, 44, 0
1, 244346, Note_on_c, 9, 51, 0
1, 244560, Note_on_c, 9, 35, 98
1, 244799, Note_on_c, 9, 38, 0
1, 244799, Note_on_c, 9, 35, 0
1, 244800, Note_on_c, 9, 51, 60
1, 244800, Note_on_c, 9, 44, 77
1, 244800, Note_on_c, 9, 35, 107
1, 244812, Note_on_c, 9, 51, 0
1, 244812, Note_on_c, 9, 44, 0
1, 245039, Note_on_c, 9, 35, 0
1, 245040, Note_on_c, 9, 46, 56
1, 245040, Note_on_c, 9, 51, 60
1, 245040, Note_on_c, 9, 35, 89
1, 245052, Note_on_c, 9, 46, 0
1, 245052, Note_on_c, 9, 51, 0
1, 245279, Note_on_c, 9, 35, 0
1, 245280, Note_on_c, 9, 38, 100
1, 245280, Note_on_c, 9, 51, 35
1, 245280, Note_on_c, 9, 44, 77
1, 245292, Note_on_c, 9, 51, 0
1, 245292, Note_on_c, 9, 44, 0
1, 245519, Note_on_c, 9, 38, 0
1, 245520, Note_on_c, 9, 51, 58
1, 245520, Note_on_c, 9, 35, 107
1, 245532, Note_on_c, 9, 51, 0
1, 245759, Note_on_c, 9, 35, 0
1, 245760, Note_on_c, 9, 51, 60
1, 245760, Note_on_c, 9, 44, 81
1, 245760, Note_on_c, 9, 35, 107
1, 245772, Note_on_c, 9, 51, 0
1, 245786, Note_on_c, 9, 44, 0
1, 246000, Note_on_c, 9, 51, 36
1, 246012, Note_on_c, 9, 51, 0
1, 246239, Note_on_c, 9, 35, 0
1, 246240, Note_on_c, 9, 38, 100
1, 246240, Note_on_c, 9, 51, 40
1, 246240, Note_on_c, 9, 44, 75
1, 246252, Note_on_c, 9, 51, 0
1, 246252, Note_on_c, 9, 44, 0
1, 246479, Note_on_c, 9, 38, 0
1, 246480, Note_on_c, 9, 51, 62
1, 246480, Note_on_c, 9, 35, 107
1, 246492, Note_on_c, 9, 51, 0
1, 246719, Note_on_c, 9, 35, 0
1, 246720, Note_on_c, 9, 51, 23
1, 246720, Note_on_c, 9, 44, 81
1, 246732, Note_on_c, 9, 51, 0
1, 246732, Note_on_c, 9, 44, 0
1, 246960, Note_on_c, 9, 51, 60
1, 246960, Note_on_c, 9, 35, 107
1, 246972, Note_on_c, 9, 51, 0
1, 247199, Note_on_c, 9, 35, 0
1, 247200, Note_on_c, 9, 38, 100
1, 247200, Note_on_c, 9, 51, 52
1, 247200, Note_on_c, 9, 44, 77
1, 247212, Note_on_c, 9, 51, 0
1, 247212, Note_on_c, 9, 44, 0
1, 247439, Note_on_c, 9, 38, 0
1, 247440, Note_on_c, 9, 51, 51
1, 247440, Note_on_c, 9, 35, 100
1, 247452, Note_on_c, 9, 51, 0
1, 247679, Note_on_c, 9, 35, 0
1, 247680, Note_on_c, 9, 51, 59
1, 247680, Note_on_c, 9, 44, 75
1, 247680, Note_on_c, 9, 35, 107
1, 247692, Note_on_c, 9, 51, 0
1, 247706, Note_on_c, 9, 44, 0
1, 247920, Note_on_c, 9, 46, 54
1, 247920, Note_on_c, 9, 53, 77
1, 247932, Note_on_c, 9, 46, 0
1, 248159, Note_on_c, 9, 35, 0
1, 248159, Note_on_c, 9, 53, 0
1, 248160, Note_on_c, 9, 38, 100
1, 248160, Note_on_c, 9, 51, 53
1, 248160, Note_on_c, 9, 44, 51
1, 248172, Note_on_c, 9, 51, 0
1, 248172, Note_on_c, 9, 44, 0
1, 248399, Note_on_c, 9, 38, 0
1, 248400, Note_on_c, 9, 51, 52
1, 248400, Note_on_c, 9, 44, 65
1, 248400, Note_on_c, 9, 35, 107
1, 248412, Note_on_c, 9, 51, 0
1, 248412, Note_on_c, 9, 44, 0
1, 248639, Note_on_c, 9, 35, 0
1, 248640, Note_on_c, 9, 51, 57
1, 248640, Note_on_c, 9, 44, 72
1, 248652, Note_on_c, 9, 51, 0
1, 248652, Note_on_c, 9, 44, 0
1, 248880, Note_on_c, 9, 51, 44
1, 248880, Note_on_c, 9, 44, 48
1, 248880, Note_on_c, 9, 35, 107
1, 248885, Note_on_c, 9, 51, 0
1, 248892, Note_on_c, 9, 44, 0
1, 249000, Note_on_c, 9, 51, 40
1, 249005, Note_on_c, 9, 51, 0
1, 249119, Note_on_c, 9, 35, 0
1, 249120, Note_on_c, 9, 38, 100
1, 249120, Note_on_c, 9, 51, 54
1, 249120, Note_on_c, 9, 44, 81
1, 249132, Note_on_c, 9, 51, 0
1, 249132, Note_on_c, 9, 44, 0
1, 249359, Note_on_c, 9, 38, 0
1, 249360, Note_on_c, 9, 51, 62
1, 249360, Note_on_c, 9, 35, 107
1, 249372, Note_on_c, 9, 51, 0
1, 249599, Note_on_c, 9, 35, 0
1, 249600, Note_on_c, 9, 42, 74
1, 249600, Note_on_c, 9, 57, 74
1, 249600, Note_on_c, 9, 35, 107
1, 249612, Note_on_c, 9, 42, 0
1, 249612, Note_on_c, 9, 57, 0
1, 249840, Note_on_c, 9, 42, 40
1, 249852, Note_on_c, 9, 42, 0
1, 250079, Note_on_c, 9, 35, 0
1, 250080, Note_on_c, 9, 38, 100
1, 250080, Note_on_c, 9, 42, 74
1, 250092, Note_on_c, 9, 42, 0
1, 250319, Note_on_c, 9, 38, 0
1, 250320, Note_on_c, 9, 42, 35
1, 250320, Note_on_c, 9, 35, 102
1, 250332, Note_on_c, 9, 42, 0
1, 250559, Note_on_c, 9, 35, 0
1, 250560, Note_on_c, 9, 42, 74
1, 250560, Note_on_c, 9, 35, 107
1, 250572, Note_on_c, 9, 42, 0
1, 250800, Note_on_c, 9, 46, 52
1, 250812, Note_on_c, 9, 46, 0
1, 251039, Note_on_c, 9, 35, 0
1, 251040, Note_on_c, 9, 38, 100
1, 251040, Note_on_c, 9, 42, 65
1, 251052, Note_on_c, 9, 42, 0
1, 251279, Note_on_c, 9, 38, 0
1, 251280, Note_on_c, 9, 46, 56
1, 251292, Note_on_c, 9, 46, 0
1, 251520, Note_on_c, 9, 42, 67
1, 251520, Note_on_c, 9, 35, 107
1, 251532, Note_on_c, 9, 42, 0
1, 251760, Note_on_c, 9, 42, 44
1, 251772, Note_on_c, 9, 42, 0
1, 251999, Note_on_c, 9, 35, 0
1, 252000, Note_on_c, 9, 38, 100
1, 252000, Note_on_c, 9, 42, 66
1, 252012, Note_on_c, 9, 42, 0
1, 252239, Note_on_c, 9, 38, 0
1, 252240, Note_on_c, 9, 42, 48
1, 252240, Note_on_c, 9, 35, 107
1, 252252, Note_on_c, 9, 42, 0
1, 252479, Note_on_c, 9, 35, 0
1, 252480, Note_on_c, 9, 42, 68
1, 252480, Note_on_c, 9, 35, 107
1, 252492, Note_on_c, 9, 42, 0
1, 252720, Note_on_c, 9, 42, 68
1, 252732, Note_on_c, 9, 42, 0
1, 252959, Note_on_c, 9, 35, 0
1, 252960, Note_on_c, 9, 38, 100
1, 252960, Note_on_c, 9, 46, 52
1, 252972, Note_on_c, 9, 46, 0
1, 253199, Note_on_c, 9, 38, 0
1, 253200, Note_on_c, 9, 51, 53
1, 253200, Note_on_c, 9, 42, 48
1, 253200, Note_on_c, 9, 35, 107
1, 253212, Note_on_c, 9, 51, 0
1, 253212, Note_on_c, 9, 42, 0
1, 253439, Note_on_c, 9, 35, 0
1, 253440, Note_on_c, 9, 51, 62
1, 253440, Note_on_c, 9, 42, 65
1, 253440, Note_on_c, 9, 35, 107
1, 253452, Note_on_c, 9, 51, 0
1, 253452, Note_on_c, 9, 42, 0
1, 253680, Note_on_c, 9, 42, 42
1, 253692, Note_on_c, 9, 42, 0
1, 253919, Note_on_c, 9, 35, 0
1, 253920, Note_on_c, 9, 38, 100
1, 253920, Note_on_c, 9, 42, 70
1, 253932, Note_on_c, 9, 42, 0
1, 254159, Note_on_c, 9, 38, 0
1, 254160, Note_on_c, 9, 42, 46
1, 254160, Note_on_c, 9, 35, 107
1, 254172, Note_on_c, 9, 42, 0
1, 254399, Note_on_c, 9, 35, 0
1, 254400, Note_on_c, 9, 42, 65
1, 254400, Note_on_c, 9, 35, 107
1, 254412, Note_on_c, 9, 42, 0
1, 254640, Note_on_c, 9, 42, 46
1, 254652, Note_on_c, 9, 42, 0
1, 254879, Note_on_c, 9, 35, 0
1, 254880, Note_on_c, 9, 38, 100
1, 254880, Note_on_c, 9, 42, 70
1, 254892, Note_on_c, 9, 42, 0
1, 255119, Note_on_c, 9, 38, 0
1, 255120, Note_on_c, 9, 42, 61
1, 255132, Note_on_c, 9, 42, 0
1, 255360, Note_on_c, 9, 42, 66
1, 255360, Note_on_c, 9, 35, 107
1, 255372, Note_on_c, 9, 42, 0
1, 255600, Note_on_c, 9, 42, 48
1, 255612, Note_on_c, 9, 42, 0
1, 255839, Note_on_c, 9, 35, 0
1, 255840, Note_on_c, 9, 38, 100
1, 255840, Note_on_c, 9, 42, 67
1, 255852, Note_on_c, 9, 42, 0
1, 256079, Note_on_c, 9, 38, 0
1, 256080, Note_on_c, 9, 46, 52
1, 256080, Note_on_c, 9, 35, 107
1, 256092, Note_on_c, 9, 46, 0
1, 256319, Note_on_c, 9, 35, 0
1, 256320, Note_on_c, 9, 44, 72
1, 256320, Note_on_c, 9, 35, 107
1, 256346, Note_on_c, 9, 44, 0
1, 256560, Note_on_c, 9, 42, 47
1, 256572, Note_on_c, 9, 42, 0
1, 256799, Note_on_c, 9, 35, 0
1, 256800, Note_on_c, 9, 38, 100
1, 256800, Note_on_c, 9, 42, 67
1, 256812, Note_on_c, 9, 42, 0
1, 257039, Note_on_c, 9, 38, 0
1, 257040, Note_on_c, 9, 42, 52
1, 257040, Note_on_c, 9, 35, 102
1, 257052, Note_on_c, 9, 42, 0
1, 257279, Note_on_c, 9, 35, 0
1, 257280, Note_on_c, 9, 51, 62
1, 257280, Note_on_c, 9, 53, 55
1, 257280, Note_on_c, 9, 42, 74
1, 257280, Note_on_c, 9, 35, 107
1, 257292, Note_on_c, 9, 51, 0
1, 257292, Note_on_c, 9, 42, 0
1, 257519, Note_on_c, 9, 53, 0
1, 257520, Note_on_c, 9, 42, 47
1, 257532, Note_on_c, 9, 42, 0
1, 257759, Note_on_c, 9, 35, 0
1, 257760, Note_on_c, 9, 38, 100
1, 257760, Note_on_c, 9, 46, 52
1, 257772, Note_on_c, 9, 46, 0
1, 257999, Note_on_c, 9, 38, 0
1, 258000, Note_on_c, 9, 42, 62
1, 258000, Note_on_c, 9, 35, 104
1, 258012, Note_on_c, 9, 42, 0
1, 258239, Note_on_c, 9, 35, 0
1, 258240, Note_on_c, 9, 42, 49
1, 258240, Note_on_c, 9, 35, 107
1, 258252, Note_on_c, 9, 42, 0
1, 258480, Note_on_c, 9, 42, 46
1, 258492, Note_on_c, 9, 42, 0
1, 258719, Note_on_c, 9, 35, 0
1, 258720, Note_on_c, 9, 38, 100
1, 258720, Note_on_c, 9, 42, 62
1, 258732, Note_on_c, 9, 42, 0
1, 258959, Note_on_c, 9, 38, 0
1, 258960, Note_on_c, 9, 42, 49
1, 258972, Note_on_c, 9, 42, 0
1, 259200, Note_on_c, 9, 42, 68
1, 259200, Note_on_c, 9, 35, 107
1, 259212, Note_on_c, 9, 42, 0
1, 259440, Note_on_c, 9, 46, 54
1, 259452, Note_on_c, 9, 46, 0
1, 259679, Note_on_c, 9, 35, 0
1, 259680, Note_on_c, 9, 38, 100
1, 259680, Note_on_c, 9, 42, 70
1, 259692, Note_on_c, 9, 42, 0
1, 259919, Note_on_c, 9, 38, 0
1, 259920, Note_on_c, 9, 46, 56
1, 259920, Note_on_c, 9, 35, 106
1, 259932, Note_on_c, 9, 46, 0
1, 260159, Note_on_c, 9, 35, 0
1, 260160, Note_on_c, 9, 42, 67
1, 260160, Note_on_c, 9, 35, 107
1, 260172, Note_on_c, 9, 42, 0
1, 260400, Note_on_c, 9, 42, 47
1, 260412, Note_on_c, 9, 42, 0
1, 260639, Note_on_c, 9, 35, 0
1, 260640, Note_on_c, 9, 38, 100
1, 260640, Note_on_c, 9, 42, 66
1, 260652, Note_on_c, 9, 42, 0
1, 260879, Note_on_c, 9, 38, 0
1, 260880, Note_on_c, 9, 42, 47
1, 260892, Note_on_c, 9, 42, 0
1, 261120, Note_on_c, 9, 53, 49
1, 261120, Note_on_c, 9, 42, 67
1, 261120, Note_on_c, 9, 35, 107
1, 261132, Note_on_c, 9, 42, 0
1, 261359, Note_on_c, 9, 53, 0
1, 261360, Note_on_c, 9, 46, 58
1, 261372, Note_on_c, 9, 46, 0
1, 261599, Note_on_c, 9, 35, 0
1, 261600, Note_on_c, 9, 38, 100
1, 261600, Note_on_c, 9, 42, 70
1, 261612, Note_on_c, 9, 42, 0
1, 261839, Note_on_c, 9, 38, 0
1, 261840, Note_on_c, 9, 42, 45
1, 261840, Note_on_c, 9, 35, 107
1, 261852, Note_on_c, 9, 42, 0
1, 262079, Note_on_c, 9, 35, 0
1, 262080, Note_on_c, 9, 42, 50
1, 262080, Note_on_c, 9, 35, 107
1, 262092, Note_on_c, 9, 42, 0
1, 262320, Note_on_c, 9, 42, 50
1, 262332, Note_on_c, 9, 42, 0
1, 262559, Note_on_c, 9, 35, 0
1, 262560, Note_on_c, 9, 38, 100
1, 262560, Note_on_c, 9, 42, 50
1, 262572, Note_on_c, 9, 42, 0
1, 262799, Note_on_c, 9, 38, 0
1, 262800, Note_on_c, 9, 42, 48
1, 262812, Note_on_c, 9, 42, 0
1, 263040, Note_on_c, 9, 53, 62
1, 263040, Note_on_c, 9, 42, 61
1, 263040, Note_on_c, 9, 35, 107
1, 263052, Note_on_c, 9, 42, 0
1, 263279, Note_on_c, 9, 53, 0
1, 263280, Note_on_c, 9, 42, 55
1, 263292, Note_on_c, 9, 42, 0
1, 263519, Note_on_c, 9, 35, 0
1, 263520, Note_on_c, 9, 38, 100
1, 263520, Note_on_c, 9, 51, 59
1, 263520, Note_on_c, 9, 42, 62
1, 263532, Note_on_c, 9, 51, 0
1, 263532, Note_on_c, 9, 42, 0
1, 263759, Note_on_c, 9, 38, 0
1, 263760, Note_on_c, 9, 42, 66
1, 263760, Note_on_c, 9, 35, 107
1, 263772, Note_on_c, 9, 42, 0
1, 263999, Note_on_c, 9, 35, 0
1, 264000, Note_on_c, 9, 46, 62
1, 264000, Note_on_c, 9, 35, 107
1, 264009, Note_on_c, 9, 46, 0
1, 264180, Note_on_c, 9, 42, 61
1, 264182, Note_on_c, 9, 42, 0
1, 264240, Note_on_c, 9, 38, 76
1, 264240, Note_on_c, 9, 51, 60
1, 264245, Note_on_c, 9, 51, 0
1, 264359, Note_on_c, 9, 38, 0
1, 264360, Note_on_c, 9, 38, 87
1, 264479, Note_on_c, 9, 35, 0
1, 264479, Note_on_c, 9, 38, 0
1, 264480, Note_on_c, 9, 38, 96
1, 264480, Note_on_c, 9, 44, 70
1, 264506, Note_on_c, 9, 44, 0
1, 264719, Note_on_c, 9, 38, 0
1, 264720, Note_on_c, 9, 41, 99
1, 264720, Note_on_c, 9, 51, 54
1, 264732, Note_on_c, 9, 51, 0
1, 264959, Note_on_c, 9, 41, 0
1, 264960, Note_on_c, 9, 42, 66
1, 264960, Note_on_c, 9, 55, 67
1, 264960, Note_on_c, 9, 35, 107
1, 264972, Note_on_c, 9, 42, 0
1, 264972, Note_on_c, 9, 55, 0
1, 265200, Note_on_c, 9, 51, 63
1, 265200, Note_on_c, 9, 42, 41
1, 265212, Note_on_c, 9, 51, 0
1, 265212, Note_on_c, 9, 42, 0
1, 265439, Note_on_c, 9, 35, 0
1, 265440, Note_on_c, 9, 38, 100
1, 265440, Note_on_c, 9, 42, 66
1, 265452, Note_on_c, 9, 42, 0
1, 265679, Note_on_c, 9, 38, 0
1, 265680, Note_on_c, 9, 51, 59
1, 265680, Note_on_c, 9, 42, 47
1, 265680, Note_on_c, 9, 35, 107
1, 265692, Note_on_c, 9, 51, 0
1, 265692, Note_on_c, 9, 42, 0
1, 265919, Note_on_c, 9, 35, 0
1, 265920, Note_on_c, 9, 42, 74
1, 265932, Note_on_c, 9, 42, 0
1, 266160, Note_on_c, 9, 51, 62
1, 266160, Note_on_c, 9, 42, 42
1, 266160, Note_on_c, 9, 35, 104
1, 266172, Note_on_c, 9, 51, 0
1, 266172, Note_on_c, 9, 42, 0
1, 266399, Note_on_c, 9, 35, 0
1, 266400, Note_on_c, 9, 38, 100
1, 266400, Note_on_c, 9, 42, 68
1, 266412, Note_on_c, 9, 42, 0
1, 266639, Note_on_c, 9, 38, 0
1, 266640, Note_on_c, 9, 51, 57
1, 266640, Note_on_c, 9, 42, 49
1, 266640, Note_on_c, 9, 35, 87
1, 266652, Note_on_c, 9, 51, 0
1, 266652, Note_on_c, 9, 42, 0
1, 266879, Note_on_c, 9, 35, 0
1, 266880, Note_on_c, 9, 53, 64
1, 266880, Note_on_c, 9, 42, 68
1, 266880, Note_on_c, 9, 35, 107
1, 266892, Note_on_c, 9, 42, 0
1, 267119, Note_on_c, 9, 53, 0
1, 267120, Note_on_c, 9, 51, 60
1, 267120, Note_on_c, 9, 42, 46
1, 267132, Note_on_c, 9, 51, 0
1, 267132, Note_on_c, 9, 42, 0
1, 267359, Note_on_c, 9, 35, 0
1, 267360, Note_on_c, 9, 38, 100
1, 267360, Note_on_c, 9, 42, 70
1, 267372, Note_on_c, 9, 42, 0
1, 267599, Note_on_c, 9, 38, 0
1, 267600, Note_on_c, 9, 51, 53
1, 267600, Note_on_c, 9, 42, 42
1, 267600, Note_on_c, 9, 35, 107
1, 267612, Note_on_c, 9, 51, 0
1, 267612, Note_on_c, 9, 42, 0
1, 267839, Note_on_c, 9, 35, 0
1, 267840, Note_on_c, 9, 51, 42
1, 267840, Note_on_c, 9, 42, 68
1, 267852, Note_on_c, 9, 51, 0
1, 267852, Note_on_c, 9, 42, 0
1, 268080, Note_on_c, 9, 46, 54
1, 268080, Note_on_c, 9, 51, 59
1, 268080, Note_on_c, 9, 35, 107
1, 268092, Note_on_c, 9, 46, 0
1, 268092, Note_on_c, 9, 51, 0
1, 268319, Note_on_c, 9, 35, 0
1, 268320, Note_on_c, 9, 38, 100
1, 268320, Note_on_c, 9, 51, 36
1, 268320, Note_on_c, 9, 42, 66
1, 268332, Note_on_c, 9, 51, 0
1, 268332, Note_on_c, 9, 42, 0
1, 268559, Note_on_c, 9, 38, 0
1, 268560, Note_on_c, 9, 46, 54
1, 268560, Note_on_c, 9, 51, 60
1, 268560, Note_on_c, 9, 35, 100
1, 268572, Note_on_c, 9, 46, 0
1, 268572, Note_on_c, 9, 51, 0
1, 268799, Note_on_c, 9, 35, 0
1, 268800, Note_on_c, 9, 51, 40
1, 268800, Note_on_c, 9, 42, 69
1, 268800, Note_on_c, 9, 35, 107
1, 268812, Note_on_c, 9, 51, 0
1, 268812, Note_on_c, 9, 42, 0
1, 269040, Note_on_c, 9, 51, 59
1, 269040, Note_on_c, 9, 42, 44
1, 269052, Note_on_c, 9, 51, 0
1, 269052, Note_on_c, 9, 42, 0
1, 269279, Note_on_c, 9, 35, 0
1, 269280, Note_on_c, 9, 38, 100
1, 269280, Note_on_c, 9, 51, 44
1, 269280, Note_on_c, 9, 42, 67
1, 269292, Note_on_c, 9, 51, 0
1, 269292, Note_on_c, 9, 42, 0
1, 269519, Note_on_c, 9, 38, 0
1, 269520, Note_on_c, 9, 51, 44
1, 269520, Note_on_c, 9, 42, 44
1, 269520, Note_on_c, 9, 35, 107
1, 269532, Note_on_c, 9, 51, 0
1, 269532, Note_on_c, 9, 42, 0
1, 269759, Note_on_c, 9, 35, 0
1, 269760, Note_on_c, 9, 51, 59
1, 269760, Note_on_c, 9, 42, 71
1, 269772, Note_on_c, 9, 51, 0
1, 269772, Note_on_c, 9, 42, 0
1, 270000, Note_on_c, 9, 53, 73
1, 270000, Note_on_c, 9, 42, 45
1, 270000, Note_on_c, 9, 35, 107
1, 270012, Note_on_c, 9, 42, 0
1, 270239, Note_on_c, 9, 53, 0
1, 270239, Note_on_c, 9, 35, 0
1, 270240, Note_on_c, 9, 38, 100
1, 270240, Note_on_c, 9, 42, 74
1, 270252, Note_on_c, 9, 42, 0
1, 270479, Note_on_c, 9, 38, 0
1, 270480, Note_on_c, 9, 51, 53
1, 270480, Note_on_c, 9, 42, 39
1, 270480, Note_on_c, 9, 35, 100
1, 270492, Note_on_c, 9, 51, 0
1, 270492, Note_on_c, 9, 42, 0
1, 270719, Note_on_c, 9, 35, 0
1, 270720, Note_on_c, 9, 42, 72
1, 270720, Note_on_c, 9, 35, 107
1, 270732, Note_on_c, 9, 42, 0
1, 270960, Note_on_c, 9, 51, 59
1, 270960, Note_on_c, 9, 42, 44
1, 270972, Note_on_c, 9, 51, 0
1, 270972, Note_on_c, 9, 42, 0
1, 271199, Note_on_c, 9, 35, 0
1, 271200, Note_on_c, 9, 38, 100
1, 271200, Note_on_c, 9, 42, 70
1, 271212, Note_on_c, 9, 42, 0
1, 271439, Note_on_c, 9, 38, 0
1, 271440, Note_on_c, 9, 51, 60
1, 271440, Note_on_c, 9, 42, 55
1, 271440, Note_on_c, 9, 35, 107
1, 271452, Note_on_c, 9, 51, 0
1, 271452, Note_on_c, 9, 42, 0
1, 271679, Note_on_c, 9, 35, 0
1, 271680, Note_on_c, 9, 42, 74
1, 271692, Note_on_c, 9, 42, 0
1, 271920, Note_on_c, 9, 53, 69
1, 271920, Note_on_c, 9, 42, 59
1, 271920, Note_on_c, 9, 35, 107
1, 271932, Note_on_c, 9, 42, 0
1, 272159, Note_on_c, 9, 53, 0
1, 272159, Note_on_c, 9, 35, 0
1, 272160, Note_on_c, 9, 38, 100
1, 272160, Note_on_c, 9, 42, 74
1, 272172, Note_on_c, 9, 42, 0
1, 272399, Note_on_c, 9, 38, 0
1, 272400, Note_on_c, 9, 46, 47
1, 272400, Note_on_c, 9, 51, 60
1, 272400, Note_on_c, 9, 35, 100
1, 272412, Note_on_c, 9, 46, 0
1, 272412, Note_on_c, 9, 51, 0
1, 272639, Note_on_c, 9, 35, 0
1, 272640, Note_on_c, 9, 42, 70
1, 272640, Note_on_c, 9, 35, 107
1, 272652, Note_on_c, 9, 42, 0
1, 272880, Note_on_c, 9, 51, 59
1, 272880, Note_on_c, 9, 42, 45
1, 272892, Note_on_c, 9, 51, 0
1, 272892, Note_on_c, 9, 42, 0
1, 273119, Note_on_c, 9, 35, 0
1, 273120, Note_on_c, 9, 38, 100
1, 273120, Note_on_c, 9, 42, 72
1, 273132, Note_on_c, 9, 42, 0
1, 273359, Note_on_c, 9, 38, 0
1, 273360, Note_on_c, 9, 51, 49
1, 273360, Note_on_c, 9, 42, 52
1, 273360, Note_on_c, 9, 35, 107
1, 273372, Note_on_c, 9, 51, 0
1, 273372, Note_on_c, 9, 42, 0
1, 273599, Note_on_c, 9, 35, 0
1, 273600, Note_on_c, 9, 51, 62
1, 273600, Note_on_c, 9, 42, 74
1, 273612, Note_on_c, 9, 51, 0
1, 273612, Note_on_c, 9, 42, 0
1, 273840, Note_on_c, 9, 51, 59
1, 273840, Note_on_c, 9, 42, 44
1, 273840, Note_on_c, 9, 35, 100
1, 273852, Note_on_c, 9, 51, 0
1, 273852, Note_on_c, 9, 42, 0
1, 274079, Note_on_c, 9, 35, 0
1, 274080, Note_on_c, 9, 38, 100
1, 274080, Note_on_c, 9, 42, 74
1, 274092, Note_on_c, 9, 42, 0
1, 274319, Note_on_c, 9, 38, 0
1, 274320, Note_on_c, 9, 51, 62
1, 274320, Note_on_c, 9, 42, 44
1, 274320, Note_on_c, 9, 35, 98
1, 274332, Note_on_c, 9, 51, 0
1, 274332, Note_on_c, 9, 42, 0
1, 274559, Note_on_c, 9, 35, 0
1, 274560, Note_on_c, 9, 42, 74
1, 274560, Note_on_c, 9, 35, 107
1, 274572, Note_on_c, 9, 42, 0
1, 274800, Note_on_c, 9, 53, 66
1, 274800, Note_on_c, 9, 42, 47
1, 274812, Note_on_c, 9, 42, 0
1, 275039, Note_on_c, 9, 35, 0
1, 275039, Note_on_c, 9, 53, 0
1, 275040, Note_on_c, 9, 38, 100
1, 275040, Note_on_c, 9, 42, 74
1, 275052, Note_on_c, 9, 42, 0
1, 275279, Note_on_c, 9, 38, 0
1, 275280, Note_on_c, 9, 51, 46
1, 275280, Note_on_c, 9, 42, 65
1, 275280, Note_on_c, 9, 35, 107
1, 275292, Note_on_c, 9, 51, 0
1, 275292, Note_on_c, 9, 42, 0
1, 275519, Note_on_c, 9, 35, 0
1, 275520, Note_on_c, 9, 42, 74
1, 275532, Note_on_c, 9, 42, 0
1, 275760, Note_on_c, 9, 46, 56
1, 275760, Note_on_c, 9, 51, 60
1, 275760, Note_on_c, 9, 35, 107
1, 275772, Note_on_c, 9, 46, 0
1, 275772, Note_on_c, 9, 51, 0
1, 275999, Note_on_c, 9, 35, 0
1, 276000, Note_on_c, 9, 38, 100
1, 276000, Note_on_c, 9, 42, 66
1, 276012, Note_on_c, 9, 42, 0
1, 276239, Note_on_c, 9, 38, 0
1, 276240, Note_on_c, 9, 46, 49
1, 276240, Note_on_c, 9, 51, 60
1, 276240, Note_on_c, 9, 35, 107
1, 276252, Note_on_c, 9, 46, 0
1, 276252, Note_on_c, 9, 51, 0
1, 276479, Note_on_c, 9, 35, 0
1, 276480, Note_on_c, 9, 42, 69
1, 276480, Note_on_c, 9, 49, 67
1, 276480, Note_on_c, 9, 35, 107
1, 276492, Note_on_c, 9, 42, 0
1, 276492, Note_on_c, 9, 49, 0
1, 276720, Note_on_c, 9, 42, 42
1, 276732, Note_on_c, 9, 42, 0
1, 276959, Note_on_c, 9, 35, 0
1, 276960, Note_on_c, 9, 38, 100
1, 276960, Note_on_c, 9, 51, 59
1, 276960, Note_on_c, 9, 42, 69
1, 276972, Note_on_c, 9, 51, 0
1, 276972, Note_on_c, 9, 42, 0
1, 277199, Note_on_c, 9, 38, 0
1, 277200, Note_on_c, 9, 42, 42
1, 277200, Note_on_c, 9, 35, 107
1, 277212, Note_on_c, 9, 42, 0
1, 277439, Note_on_c, 9, 35, 0
1, 277440, Note_on_c, 9, 42, 68
1, 277440, Note_on_c, 9, 35, 107
1, 277452, Note_on_c, 9, 42, 0
1, 277680, Note_on_c, 9, 42, 42
1, 277692, Note_on_c, 9, 42, 0
1, 277919, Note_on_c, 9, 35, 0
1, 277920, Note_on_c, 9, 38, 100
1, 277920, Note_on_c, 9, 42, 72
1, 277932, Note_on_c, 9, 42, 0
1, 278159, Note_on_c, 9, 38, 0
1, 278160, Note_on_c, 9, 42, 44
1, 278172, Note_on_c, 9, 42, 0
1, 278400, Note_on_c, 9, 42, 68
1, 278400, Note_on_c, 9, 35, 107
1, 278412, Note_on_c, 9, 42, 0
1, 278640, Note_on_c, 9, 42, 42
1, 278652, Note_on_c, 9, 42, 0
1, 278879, Note_on_c, 9, 35, 0
1, 278880, Note_on_c, 9, 38, 100
1, 278880, Note_on_c, 9, 42, 68
1, 278892, Note_on_c, 9, 42, 0
1, 279119, Note_on_c, 9, 38, 0
1, 279120, Note_on_c, 9, 46, 55
1, 279120, Note_on_c, 9, 35, 107
1, 279132, Note_on_c, 9, 46, 0
1, 279359, Note_on_c, 9, 35, 0
1, 279360, Note_on_c, 9, 42, 65
1, 279372, Note_on_c, 9, 42, 0
1, 279600, Note_on_c, 9, 46, 52
1, 279600, Note_on_c, 9, 35, 107
1, 279612, Note_on_c, 9, 46, 0
1, 279839, Note_on_c, 9, 35, 0
1, 279840, Note_on_c, 9, 38, 100
1, 279840, Note_on_c, 9, 42, 67
1, 279852, Note_on_c, 9, 42, 0
1, 280079, Note_on_c, 9, 38, 0
1, 280080, Note_on_c, 9, 46, 52
1, 280080, Note_on_c, 9, 35, 106
1, 280092, Note_on_c, 9, 46, 0
1, 280319, Note_on_c, 9, 35, 0
1, 280320, Note_on_c, 9, 51, 52
1, 280320, Note_on_c, 9, 53, 67
1, 280320, Note_on_c, 9, 42, 73
1, 280320, Note_on_c, 9, 35, 107
1, 280332, Note_on_c, 9, 51, 0
1, 280332, Note_on_c, 9, 42, 0
1, 280559, Note_on_c, 9, 53, 0
1, 280560, Note_on_c, 9, 42, 39
1, 280572, Note_on_c, 9, 42, 0
1, 280799, Note_on_c, 9, 35, 0
1, 280800, Note_on_c, 9, 38, 100
1, 280800, Note_on_c, 9, 42, 66
1, 280812, Note_on_c, 9, 42, 0
1, 281039, Note_on_c, 9, 38, 0
1, 281040, Note_on_c, 9, 42, 54
1, 281040, Note_on_c, 9, 35, 107
1, 281052, Note_on_c, 9, 42, 0
1, 281279, Note_on_c, 9, 35, 0
1, 281280, Note_on_c, 9, 42, 68
1, 281280, Note_on_c, 9, 35, 107
1, 281292, Note_on_c, 9, 42, 0
1, 281520, Note_on_c, 9, 42, 44
1, 281532, Note_on_c, 9, 42, 0
1, 281759, Note_on_c, 9, 35, 0
1, 281760, Note_on_c, 9, 38, 100
1, 281760, Note_on_c, 9, 42, 70
1, 281772, Note_on_c, 9, 42, 0
1, 281999, Note_on_c, 9, 38, 0
1, 282000, Note_on_c, 9, 46, 54
1, 282012, Note_on_c, 9, 46, 0
1, 282240, Note_on_c, 9, 42, 70
1, 282240, Note_on_c, 9, 35, 107
1, 282252, Note_on_c, 9, 42, 0
1, 282480, Note_on_c, 9, 42, 49
1, 282492, Note_on_c, 9, 42, 0
1, 282719, Note_on_c, 9, 35, 0
1, 282720, Note_on_c, 9, 38, 100
1, 282720, Note_on_c, 9, 42, 66
1, 282732, Note_on_c, 9, 42, 0
1, 282959, Note_on_c, 9, 38, 0
1, 282960, Note_on_c, 9, 46, 58
1, 282960, Note_on_c, 9, 35, 107
1, 282972, Note_on_c, 9, 46, 0
1, 283199, Note_on_c, 9, 35, 0
1, 283200, Note_on_c, 9, 42, 66
1, 283212, Note_on_c, 9, 42, 0
1, 283440, Note_on_c, 9, 46, 62
1, 283440, Note_on_c, 9, 35, 107
1, 283452, Note_on_c, 9, 46, 0
1, 283679, Note_on_c, 9, 35, 0
1, 283680, Note_on_c, 9, 38, 100
1, 283680, Note_on_c, 9, 42, 74
1, 283692, Note_on_c, 9, 42, 0
1, 283919, Note_on_c, 9, 38, 0
1, 283920, Note_on_c, 9, 46, 62
1, 283920, Note_on_c, 9, 53, 49
1, 283920, Note_on_c, 9, 35, 104
1, 283932, Note_on_c, 9, 46, 0
1, 284159, Note_on_c, 9, 53, 0
1, 284159, Note_on_c, 9, 35, 0
1, 284160, Note_on_c, 9, 51, 60
1, 284160, Note_on_c, 9, 42, 74
1, 284160, Note_on_c, 9, 35, 107
1, 284172, Note_on_c, 9, 51, 0
1, 284172, Note_on_c, 9, 42, 0
1, 284400, Note_on_c, 9, 42, 41
1, 284412, Note_on_c, 9, 42, 0
1, 284639, Note_on_c, 9, 35, 0
1, 284640, Note_on_c, 9, 38, 100
1, 284640, Note_on_c, 9, 42, 74
1, 284652, Note_on_c, 9, 42, 0
1, 284879, Note_on_c, 9, 38, 0
1, 284880, Note_on_c, 9, 42, 48
1, 284880, Note_on_c, 9, 35, 93
1, 284892, Note_on_c, 9, 42, 0
1, 285119, Note_on_c, 9, 35, 0
1, 285120, Note_on_c, 9, 42, 62
1, 285120, Note_on_c, 9, 35, 107
1, 285132, Note_on_c, 9, 42, 0
1, 285360, Note_on_c, 9, 42, 54
1, 285372, Note_on_c, 9, 42, 0
1, 285599, Note_on_c, 9, 35, 0
1, 285600, Note_on_c, 9, 38, 100
1, 285600, Note_on_c, 9, 42, 62
1, 285612, Note_on_c, 9, 42, 0
1, 285839, Note_on_c, 9, 38, 0
1, 285840, Note_on_c, 9, 46, 53
1, 285849, Note_on_c, 9, 46, 0
1, 286020, Note_on_c, 9, 42, 53
1, 286022, Note_on_c, 9, 42, 0
1, 286080, Note_on_c, 9, 46, 59
1, 286080, Note_on_c, 9, 35, 107
1, 286089, Note_on_c, 9, 46, 0
1, 286260, Note_on_c, 9, 42, 53
1, 286262, Note_on_c, 9, 42, 0
1, 286319, Note_on_c, 9, 35, 0
1, 286320, Note_on_c, 9, 52, 91
1, 286320, Note_on_c, 9, 35, 93
1, 286332, Note_on_c, 9, 52, 0
1, 286559, Note_on_c, 9, 35, 0
1, 286560, Note_on_c, 9, 38, 75
1, 286560, Note_on_c, 9, 51, 57
1, 286560, Note_on_c, 9, 44, 65
1, 286565, Note_on_c, 9, 51, 0
1, 286586, Note_on_c, 9, 44, 0
1, 286679, Note_on_c, 9, 38, 0
1, 286680, Note_on_c, 9, 38, 72
1, 286799, Note_on_c, 9, 38, 0
1, 286800, Note_on_c, 9, 38, 75
1, 286919, Note_on_c, 9, 38, 0
1, 286920, Note_on_c, 9, 38, 92
1, 287039, Note_on_c, 9, 38, 0
1, 287040, Note_on_c, 9, 38, 98
1, 287040, Note_on_c, 9, 44, 65
1, 287066, Note_on_c, 9, 44, 0
1, 287279, Note_on_c, 9, 38, 0
1, 287280, Note_on_c, 9, 45, 95
1, 287280, Note_on_c, 9, 53, 64
1, 287519, Note_on_c, 9, 45, 0
1, 287519, Note_on_c, 9, 53, 0
1, 287520, Note_on_c, 9, 41, 100
1, 287520, Note_on_c, 9, 44, 65
1, 287546, Note_on_c, 9, 44, 0
1, 287759, Note_on_c, 9, 41, 0
1, 287760, Note_on_c, 9, 41, 96
1, 287760, Note_on_c, 9, 57, 63
1, 287772, Note_on_c, 9, 57, 0
1, 287999, Note_on_c, 9, 41, 0
1, 288000, Note_on_c, 9, 42, 62
1, 288000, Note_on_c, 9, 55, 75
1, 288000, Note_on_c, 9, 35, 107
1, 288012, Note_on_c, 9, 42, 0
1, 288012, Note_on_c, 9, 55, 0
1, 288240, Note_on_c, 9, 42, 42
1, 288252, Note_on_c, 9, 42, 0
1, 288479, Note_on_c, 9, 35, 0
1, 288480, Note_on_c, 9, 38, 100
1, 288480, Note_on_c, 9, 51, 60
1, 288480, Note_on_c, 9, 42, 74
1, 288492, Note_on_c, 9, 51, 0
1, 288492, Note_on_c, 9, 42, 0
1, 288719, Note_on_c, 9, 38, 0
1, 288720, Note_on_c, 9, 51, 59
1, 288720, Note_on_c, 9, 42, 41
1, 288720, Note_on_c, 9, 35, 98
1, 288732, Note_on_c, 9, 51, 0
1, 288732, Note_on_c, 9, 42, 0
1, 288959, Note_on_c, 9, 35, 0
1, 288960, Note_on_c, 9, 42, 74
1, 288960, Note_on_c, 9, 35, 107
1, 288972, Note_on_c, 9, 42, 0
1, 289200, Note_on_c, 9, 51, 59
1, 289200, Note_on_c, 9, 42, 44
1, 289212, Note_on_c, 9, 51, 0
1, 289212, Note_on_c, 9, 42, 0
1, 289439, Note_on_c, 9, 35, 0
1, 289440, Note_on_c, 9, 38, 100
1, 289440, Note_on_c, 9, 42, 74
1, 289452, Note_on_c, 9, 42, 0
1, 289679, Note_on_c, 9, 38, 0
1, 289680, Note_on_c, 9, 51, 63
1, 289680, Note_on_c, 9, 42, 42
1, 289680, Note_on_c, 9, 35, 106
1, 289692, Note_on_c, 9, 51, 0
1, 289692, Note_on_c, 9, 42, 0
1, 289919, Note_on_c, 9, 35, 0
1, 289920, Note_on_c, 9, 42, 72
1, 289932, Note_on_c, 9, 42, 0
1, 290160, Note_on_c, 9, 51, 59
1, 290160, Note_on_c, 9, 42, 44
1, 290172, Note_on_c, 9, 51, 0
1, 290172, Note_on_c, 9, 42, 0
1, 290400, Note_on_c, 9, 38, 100
1, 290400, Note_on_c, 9, 51, 42
1, 290400, Note_on_c, 9, 42, 74
1, 290412, Note_on_c, 9, 51, 0
1, 290412, Note_on_c, 9, 42, 0
1, 290639, Note_on_c, 9, 38, 0
1, 290640, Note_on_c, 9, 51, 58
1, 290640, Note_on_c, 9, 42, 42
1, 290640, Note_on_c, 9, 35, 104
1, 290652, Note_on_c, 9, 51, 0
1, 290652, Note_on_c, 9, 42, 0
1, 290879, Note_on_c, 9, 35, 0
1, 290880, Note_on_c, 9, 51, 59
1, 290880, Note_on_c, 9, 42, 74
1, 290880, Note_on_c, 9, 35, 107
1, 290892, Note_on_c, 9, 51, 0
1, 290892, Note_on_c, 9, 42, 0
1, 291120, Note_on_c, 9, 46, 56
1, 291120, Note_on_c, 9, 51, 60
1, 291132, Note_on_c, 9, 46, 0
1, 291132, Note_on_c, 9, 51, 0
1, 291359, Note_on_c, 9, 35, 0
1, 291360, Note_on_c, 9, 38, 100
1, 291360, Note_on_c, 9, 51, 53
1, 291360, Note_on_c, 9, 42, 74
1, 291372, Note_on_c, 9, 51, 0
1, 291372, Note_on_c, 9, 42, 0
1, 291599, Note_on_c, 9, 38, 0
1, 291600, Note_on_c, 9, 51, 59
1, 291600, Note_on_c, 9, 42, 41
1, 291612, Note_on_c, 9, 51, 0
1, 291612, Note_on_c, 9, 42, 0
1, 291840, Note_on_c, 9, 51, 60
1, 291840, Note_on_c, 9, 42, 74
1, 291840, Note_on_c, 9, 35, 107
1, 291852, Note_on_c, 9, 51, 0
1, 291852, Note_on_c, 9, 42, 0
1, 292080, Note_on_c, 9, 51, 40
1, 292080, Note_on_c, 9, 42, 46
1, 292092, Note_on_c, 9, 51, 0
1, 292092, Note_on_c, 9, 42, 0
1, 292319, Note_on_c, 9, 35, 0
1, 292320, Note_on_c, 9, 38, 100
1, 292320, Note_on_c, 9, 42, 66
1, 292332, Note_on_c, 9, 42, 0
1, 292559, Note_on_c, 9, 38, 0
1, 292560, Note_on_c, 9, 51, 60
1, 292560, Note_on_c, 9, 42, 46
1, 292560, Note_on_c, 9, 35, 107
1, 292572, Note_on_c, 9, 51, 0
1, 292572, Note_on_c, 9, 42, 0
1, 292799, Note_on_c, 9, 35, 0
1, 292800, Note_on_c, 9, 42, 68
1, 292812, Note_on_c, 9, 42, 0
1, 293040, Note_on_c, 9, 51, 58
1, 293040, Note_on_c, 9, 42, 49
1, 293052, Note_on_c, 9, 51, 0
1, 293052, Note_on_c, 9, 42, 0
1, 293280, Note_on_c, 9, 38, 100
1, 293280, Note_on_c, 9, 46, 61
1, 293280, Note_on_c, 9, 51, 42
1, 293292, Note_on_c, 9, 46, 0
1, 293292, Note_on_c, 9, 51, 0
1, 293519, Note_on_c, 9, 38, 0
1, 293520, Note_on_c, 9, 51, 54
1, 293520, Note_on_c, 9, 42, 52
1, 293520, Note_on_c, 9, 35, 95
1, 293532, Note_on_c, 9, 51, 0
1, 293532, Note_on_c, 9, 42, 0
1, 293759, Note_on_c, 9, 35, 0
1, 293760, Note_on_c, 9, 53, 73
1, 293760, Note_on_c, 9, 42, 61
1, 293760, Note_on_c, 9, 35, 107
1, 293772, Note_on_c, 9, 42, 0
1, 293999, Note_on_c, 9, 53, 0
1, 294000, Note_on_c, 9, 53, 77
1, 294000, Note_on_c, 9, 42, 54
1, 294012, Note_on_c, 9, 42, 0
1, 294239, Note_on_c, 9, 35, 0
1, 294239, Note_on_c, 9, 53, 0
1, 294240, Note_on_c, 9, 38, 100
1, 294240, Note_on_c, 9, 46, 56
1, 294252, Note_on_c, 9, 46, 0
1, 294479, Note_on_c, 9, 38, 0
1, 294480, Note_on_c, 9, 51, 60
1, 294480, Note_on_c, 9, 42, 59
1, 294480, Note_on_c, 9, 35, 107
1, 294492, Note_on_c, 9, 51, 0
1, 294492, Note_on_c, 9, 42, 0
1, 294719, Note_on_c, 9, 35, 0
1, 294720, Note_on_c, 9, 42, 54
1, 294732, Note_on_c, 9, 42, 0
1, 294960, Note_on_c, 9, 46, 59
1, 294960, Note_on_c, 9, 51, 57
1, 294972, Note_on_c, 9, 46, 0
1, 294972, Note_on_c, 9, 51, 0
1, 295200, Note_on_c, 9, 38, 100
1, 295200, Note_on_c, 9, 51, 58
1, 295200, Note_on_c, 9, 42, 65
1, 295212, Note_on_c, 9, 51, 0
1, 295212, Note_on_c, 9, 42, 0
1, 295439, Note_on_c, 9, 38, 0
1, 295440, Note_on_c, 9, 46, 56
1, 295440, Note_on_c, 9, 51, 58
1, 295440, Note_on_c, 9, 35, 107
1, 295452, Note_on_c, 9, 46, 0
1, 295452, Note_on_c, 9, 51, 0
1, 295679, Note_on_c, 9, 35, 0
1, 295680, Note_on_c, 9, 53, 73
1, 295680, Note_on_c, 9, 42, 68
1, 295680, Note_on_c, 9, 35, 107
1, 295692, Note_on_c, 9, 42, 0
1, 295919, Note_on_c, 9, 53, 0
1, 295920, Note_on_c, 9, 51, 37
1, 295920, Note_on_c, 9, 42, 45
1, 295932, Note_on_c, 9, 51, 0
1, 295932, Note_on_c, 9, 42, 0
1, 296159, Note_on_c, 9, 35, 0
1, 296160, Note_on_c, 9, 38, 100
1, 296160, Note_on_c, 9, 51, 57
1, 296160, Note_on_c, 9, 42, 74
1, 296172, Note_on_c, 9, 51, 0
1, 296172, Note_on_c, 9, 42, 0
1, 296399, Note_on_c, 9, 38, 0
1, 296400, Note_on_c, 9, 51, 52
1, 296400, Note_on_c, 9, 42, 45
1, 296412, Note_on_c, 9, 51, 0
1, 296412, Note_on_c, 9, 42, 0
1, 296640, Note_on_c, 9, 53, 79
1, 296640, Note_on_c, 9, 42, 74
1, 296640, Note_on_c, 9, 35, 107
1, 296652, Note_on_c, 9, 42, 0
1, 296879, Note_on_c, 9, 53, 0
1, 296880, Note_on_c, 9, 53, 77
1, 296880, Note_on_c, 9, 42, 47
1, 296892, Note_on_c, 9, 42, 0
1, 297119, Note_on_c, 9, 35, 0
1, 297119, Note_on_c, 9, 53, 0
1, 297120, Note_on_c, 9, 38, 100
1, 297120, Note_on_c, 9, 51, 57
1, 297120, Note_on_c, 9, 42, 65
1, 297132, Note_on_c, 9, 51, 0
1, 297132, Note_on_c, 9, 42, 0
1, 297359, Note_on_c, 9, 38, 0
1, 297360, Note_on_c, 9, 53, 73
1, 297360, Note_on_c, 9, 42, 45
1, 297360, Note_on_c, 9, 35, 107
1, 297372, Note_on_c, 9, 42, 0
1, 297599, Note_on_c, 9, 53, 0
1, 297599, Note_on_c, 9, 35, 0
1, 297600, Note_on_c, 9, 51, 34
1, 297600, Note_on_c, 9, 42, 66
1, 297612, Note_on_c, 9, 51, 0
1, 297612, Note_on_c, 9, 42, 0
1, 297840, Note_on_c, 9, 51, 53
1, 297840, Note_on_c, 9, 42, 42
1, 297852, Note_on_c, 9, 51, 0
1, 297852, Note_on_c, 9, 42, 0
1, 298080, Note_on_c, 9, 38, 100
1, 298080, Note_on_c, 9, 51, 43
1, 298080, Note_on_c, 9, 42, 74
1, 298092, Note_on_c, 9, 51, 0
1, 298092, Note_on_c, 9, 42, 0
1, 298319, Note_on_c, 9, 38, 0
1, 298320, Note_on_c, 9, 51, 60
1, 298320, Note_on_c, 9, 42, 44
1, 298320, Note_on_c, 9, 35, 107
1, 298332, Note_on_c, 9, 51, 0
1, 298332, Note_on_c, 9, 42, 0
1, 298559, Note_on_c, 9, 35, 0
1, 298560, Note_on_c, 9, 51, 60
1, 298560, Note_on_c, 9, 42, 67
1, 298560, Note_on_c, 9, 35, 107
1, 298572, Note_on_c, 9, 51, 0
1, 298572, Note_on_c, 9, 42, 0
1, 298800, Note_on_c, 9, 46, 56
1, 298800, Note_on_c, 9, 53, 81
1, 298812, Note_on_c, 9, 46, 0
1, 299039, Note_on_c, 9, 35, 0
1, 299039, Note_on_c, 9, 53, 0
1, 299040, Note_on_c, 9, 38, 100
1, 299040, Note_on_c, 9, 51, 40
1, 299040, Note_on_c, 9, 42, 74
1, 299052, Note_on_c, 9, 51, 0
1, 299052, Note_on_c, 9, 42, 0
1, 299279, Note_on_c, 9, 38, 0
1, 299280, Note_on_c, 9, 51, 43
1, 299280, Note_on_c, 9, 42, 41
1, 299292, Note_on_c, 9, 51, 0
1, 299292, Note_on_c, 9, 42, 0
1, 299520, Note_on_c, 9, 51, 62
1, 299520, Note_on_c, 9, 42, 74
1, 299520, Note_on_c, 9, 35, 107
1, 299532, Note_on_c, 9, 51, 0
1, 299532, Note_on_c, 9, 42, 0
1, 299760, Note_on_c, 9, 51, 53
1, 299760, Note_on_c, 9, 42, 44
1, 299772, Note_on_c, 9, 51, 0
1, 299772, Note_on_c, 9, 42, 0
1, 299999, Note_on_c, 9, 35, 0
1, 300000, Note_on_c, 9, 38, 100
1, 300000, Note_on_c, 9, 42, 68
1, 300012, Note_on_c, 9, 42, 0
1, 300239, Note_on_c, 9, 38, 0
1, 300240, Note_on_c, 9, 51, 62
1, 300240, Note_on_c, 9, 42, 45
1, 300240, Note_on_c, 9, 35, 107
1, 300252, Note_on_c, 9, 51, 0
1, 300252, Note_on_c, 9, 42, 0
1, 300479, Note_on_c, 9, 35, 0
1, 300480, Note_on_c, 9, 42, 68
1, 300492, Note_on_c, 9, 42, 0
1, 300720, Note_on_c, 9, 51, 62
1, 300720, Note_on_c, 9, 42, 47
1, 300732, Note_on_c, 9, 51, 0
1, 300732, Note_on_c, 9, 42, 0
1, 300960, Note_on_c, 9, 38, 100
1, 300960, Note_on_c, 9, 51, 46
1, 300960, Note_on_c, 9, 42, 62
1, 300972, Note_on_c, 9, 51, 0
1, 300972, Note_on_c, 9, 42, 0
1, 301199, Note_on_c, 9, 38, 0
1, 301200, Note_on_c, 9, 51, 53
1, 301200, Note_on_c, 9, 42, 54
1, 301200, Note_on_c, 9, 35, 107
1, 301212, Note_on_c, 9, 51, 0
1, 301212, Note_on_c, 9, 42, 0
1, 301439, Note_on_c, 9, 35, 0
1, 301440, Note_on_c, 9, 51, 59
1, 301440, Note_on_c, 9, 42, 66
1, 301440, Note_on_c, 9, 35, 107
1, 301452, Note_on_c, 9, 51, 0
1, 301452, Note_on_c, 9, 42, 0
1, 301680, Note_on_c, 9, 46, 58
1, 301680, Note_on_c, 9, 53, 71
1, 301692, Note_on_c, 9, 46, 0
1, 301919, Note_on_c, 9, 35, 0
1, 301919, Note_on_c, 9, 53, 0
1, 301920, Note_on_c, 9, 38, 100
1, 301920, Note_on_c, 9, 51, 53
1, 301920, Note_on_c, 9, 42, 74
1, 301932, Note_on_c, 9, 51, 0
1, 301932, Note_on_c, 9, 42, 0
1, 302159, Note_on_c, 9, 38, 0
1, 302160, Note_on_c, 9, 51, 57
1, 302160, Note_on_c, 9, 44, 53
1, 302160, Note_on_c, 9, 35, 107
1, 302172, Note_on_c, 9, 51, 0
1, 302172, Note_on_c, 9, 44, 0
1, 302399, Note_on_c, 9, 35, 0
1, 302400, Note_on_c, 9, 53, 69
1, 302400, Note_on_c, 9, 44, 49
1, 302412, Note_on_c, 9, 44, 0
1, 302639, Note_on_c, 9, 53, 0
1, 302640, Note_on_c, 9, 51, 41
1, 302640, Note_on_c, 9, 35, 100
1, 302652, Note_on_c, 9, 51, 0
1, 302879, Note_on_c, 9, 35, 0
1, 302880, Note_on_c, 9, 38, 100
1, 302880, Note_on_c, 9, 51, 58
1, 302880, Note_on_c, 9, 44, 82
1, 302892, Note_on_c, 9, 51, 0
1, 302892, Note_on_c, 9, 44, 0
1, 303119, Note_on_c, 9, 38, 0
1, 303120, Note_on_c, 9, 51, 62
1, 303120, Note_on_c, 9, 35, 104
1, 303132, Note_on_c, 9, 51, 0
1, 303359, Note_on_c, 9, 35, 0
1, 303360, Note_on_c, 9, 42, 74
1, 303360, Note_on_c, 9, 49, 74
1, 303360, Note_on_c, 9, 35, 107
1, 303372, Note_on_c, 9, 42, 0
1, 303372, Note_on_c, 9, 49, 0
1, 303600, Note_on_c, 9, 42, 47
1, 303612, Note_on_c, 9, 42, 0
1, 303839, Note_on_c, 9, 35, 0
1, 303840, Note_on_c, 9, 38, 100
1, 303840, Note_on_c, 9, 42, 74
1, 303852, Note_on_c, 9, 42, 0
1, 304079, Note_on_c, 9, 38, 0
1, 304080, Note_on_c, 9, 42, 41
1, 304080, Note_on_c, 9, 35, 106
1, 304092, Note_on_c, 9, 42, 0
1, 304319, Note_on_c, 9, 35, 0
1, 304320, Note_on_c, 9, 42, 74
1, 304320, Note_on_c, 9, 35, 107
1, 304332, Note_on_c, 9, 42, 0
1, 304560, Note_on_c, 9, 42, 44
1, 304572, Note_on_c, 9, 42, 0
1, 304799, Note_on_c, 9, 35, 0
1, 304800, Note_on_c, 9, 38, 100
1, 304800, Note_on_c, 9, 42, 74
1, 304812, Note_on_c, 9, 42, 0
1, 305039, Note_on_c, 9, 38, 0
1, 305040, Note_on_c, 9, 46, 47
1, 305052, Note_on_c, 9, 46, 0
1, 305280, Note_on_c, 9, 42, 70
1, 305280, Note_on_c, 9, 35, 107
1, 305292, Note_on_c, 9, 42, 0
1, 305520, Note_on_c, 9, 46, 59
1, 305532, Note_on_c, 9, 46, 0
1, 305759, Note_on_c, 9, 35, 0
1, 305760, Note_on_c, 9, 38, 100
1, 305760, Note_on_c, 9, 42, 66
1, 305772, Note_on_c, 9, 42, 0
1, 305999, Note_on_c, 9, 38, 0
1, 306000, Note_on_c, 9, 46, 62
1, 306000, Note_on_c, 9, 35, 107
1, 306012, Note_on_c, 9, 46, 0
1, 306239, Note_on_c, 9, 35, 0
1, 306240, Note_on_c, 9, 42, 70
1, 306240, Note_on_c, 9, 35, 107
1, 306252, Note_on_c, 9, 42, 0
1, 306480, Note_on_c, 9, 46, 61
1, 306492, Note_on_c, 9, 46, 0
1, 306719, Note_on_c, 9, 35, 0
1, 306720, Note_on_c, 9, 38, 100
1, 306720, Note_on_c, 9, 42, 66
1, 306732, Note_on_c, 9, 42, 0
1, 306959, Note_on_c, 9, 38, 0
1, 306960, Note_on_c, 9, 46, 61
1, 306960, Note_on_c, 9, 35, 107
1, 306969, Note_on_c, 9, 46, 0
1, 307140, Note_on_c, 9, 51, 52
1, 307142, Note_on_c, 9, 51, 0
1, 307199, Note_on_c, 9, 35, 0
1, 307200, Note_on_c, 9, 53, 74
1, 307200, Note_on_c, 9, 42, 74
1, 307200, Note_on_c, 9, 35, 107
1, 307212, Note_on_c, 9, 42, 0
1, 307439, Note_on_c, 9, 53, 0
1, 307440, Note_on_c, 9, 42, 43
1, 307452, Note_on_c, 9, 42, 0
1, 307679, Note_on_c, 9, 35, 0
1, 307680, Note_on_c, 9, 38, 100
1, 307680, Note_on_c, 9, 42, 74
1, 307692, Note_on_c, 9, 42, 0
1, 307919, Note_on_c, 9, 38, 0
1, 307920, Note_on_c, 9, 42, 44
1, 307920, Note_on_c, 9, 35, 107
1, 307932, Note_on_c, 9, 42, 0
1, 308159, Note_on_c, 9, 35, 0
1, 308160, Note_on_c, 9, 42, 74
1, 308160, Note_on_c, 9, 35, 107
1, 308172, Note_on_c, 9, 42, 0
1, 308400, Note_on_c, 9, 42, 47
1, 308412, Note_on_c, 9, 42, 0
1, 308639, Note_on_c, 9, 35, 0
1, 308640, Note_on_c, 9, 38, 100
1, 308640, Note_on_c, 9, 42, 74
1, 308652, Note_on_c, 9, 42, 0
1, 308879, Note_on_c, 9, 38, 0
1, 308880, Note_on_c, 9, 42, 44
1, 308892, Note_on_c, 9, 42, 0
1, 309120, Note_on_c, 9, 42, 74
1, 309120, Note_on_c, 9, 35, 107
1, 309132, Note_on_c, 9, 42, 0
1, 309360, Note_on_c, 9, 42, 54
1, 309372, Note_on_c, 9, 42, 0
1, 309599, Note_on_c, 9, 35, 0
1, 309600, Note_on_c, 9, 38, 100
1, 309600, Note_on_c, 9, 46, 62
1, 309612, Note_on_c, 9, 46, 0
1, 309839, Note_on_c, 9, 38, 0
1, 309840, Note_on_c, 9, 42, 46
1, 309840, Note_on_c, 9, 35, 107
1, 309852, Note_on_c, 9, 42, 0
1, 310079, Note_on_c, 9, 35, 0
1, 310080, Note_on_c, 9, 42, 62
1, 310080, Note_on_c, 9, 35, 107
1, 310106, Note_on_c, 9, 42, 0
1, 310319, Note_on_c, 9, 35, 0
1, 310320, Note_on_c, 9, 44, 70
1, 310332, Note_on_c, 9, 44, 0
1, 310560, Note_on_c, 9, 38, 100
1, 310560, Note_on_c, 9, 44, 68
1, 310572, Note_on_c, 9, 44, 0
1, 310799, Note_on_c, 9, 38, 0
1, 310800, Note_on_c, 9, 51, 62
1, 310800, Note_on_c, 9, 44, 82
1, 310800, Note_on_c, 9, 35, 107
1, 310812, Note_on_c, 9, 51, 0
1, 310812, Note_on_c, 9, 44, 0
1, 311039, Note_on_c, 9, 35, 0
1, 311040, Note_on_c, 9, 42, 74
1, 311040, Note_on_c, 9, 52, 89
1, 311040, Note_on_c, 9, 35, 107
1, 311052, Note_on_c, 9, 42, 0
1, 311052, Note_on_c, 9, 52, 0
1, 311280, Note_on_c, 9, 42, 48
1, 311292, Note_on_c, 9, 42, 0
1, 311519, Note_on_c, 9, 35, 0
1, 311520, Note_on_c, 9, 38, 100
1, 311520, Note_on_c, 9, 42, 74
1, 311532, Note_on_c, 9, 42, 0
1, 311759, Note_on_c, 9, 38, 0
1, 311760, Note_on_c, 9, 42, 40
1, 311760, Note_on_c, 9, 35, 93
1, 311772, Note_on_c, 9, 42, 0
1, 311999, Note_on_c, 9, 35, 0
1, 312000, Note_on_c, 9, 42, 74
1, 312000, Note_on_c, 9, 35, 107
1, 312012, Note_on_c, 9, 42, 0
1, 312240, Note_on_c, 9, 42, 45
1, 312252, Note_on_c, 9, 42, 0
1, 312479, Note_on_c, 9, 35, 0
1, 312480, Note_on_c, 9, 38, 100
1, 312480, Note_on_c, 9, 42, 74
1, 312492, Note_on_c, 9, 42, 0
1, 312719, Note_on_c, 9, 38, 0
1, 312720, Note_on_c, 9, 46, 54
1, 312732, Note_on_c, 9, 46, 0
1, 312960, Note_on_c, 9, 51, 59
1, 312960, Note_on_c, 9, 42, 74
1, 312960, Note_on_c, 9, 35, 107
1, 312972, Note_on_c, 9, 51, 0
1, 312972, Note_on_c, 9, 42, 0
1, 313200, Note_on_c, 9, 46, 56
1, 313212, Note_on_c, 9, 46, 0
1, 313439, Note_on_c, 9, 35, 0
1, 313440, Note_on_c, 9, 38, 100
1, 313440, Note_on_c, 9, 42, 68
1, 313452, Note_on_c, 9, 42, 0
1, 313679, Note_on_c, 9, 38, 0
1, 313680, Note_on_c, 9, 46, 62
1, 313680, Note_on_c, 9, 35, 102
1, 313692, Note_on_c, 9, 46, 0
1, 313919, Note_on_c, 9, 35, 0
1, 313920, Note_on_c, 9, 53, 83
1, 313920, Note_on_c, 9, 42, 68
1, 313920, Note_on_c, 9, 35, 107
1, 313932, Note_on_c, 9, 42, 0
1, 314159, Note_on_c, 9, 53, 0
1, 314160, Note_on_c, 9, 46, 54
1, 314172, Note_on_c, 9, 46, 0
1, 314399, Note_on_c, 9, 35, 0
1, 314400, Note_on_c, 9, 38, 100
1, 314400, Note_on_c, 9, 42, 67
1, 314412, Note_on_c, 9, 42, 0
1, 314639, Note_on_c, 9, 38, 0
1, 314640, Note_on_c, 9, 46, 59
1, 314640, Note_on_c, 9, 35, 100
1, 314652, Note_on_c, 9, 46, 0
1, 314879, Note_on_c, 9, 35, 0
1, 314880, Note_on_c, 9, 51, 63
1, 314880, Note_on_c, 9, 42, 74
1, 314880, Note_on_c, 9, 35, 107
1, 314892, Note_on_c, 9, 51, 0
1, 314892, Note_on_c, 9, 42, 0
1, 315120, Note_on_c, 9, 42, 40
1, 315132, Note_on_c, 9, 42, 0
1, 315359, Note_on_c, 9, 35, 0
1, 315360, Note_on_c, 9, 38, 100
1, 315360, Note_on_c, 9, 42, 74
1, 315372, Note_on_c, 9, 42, 0
1, 315599, Note_on_c, 9, 38, 0
1, 315600, Note_on_c, 9, 46, 26
1, 315600, Note_on_c, 9, 53, 64
1, 315600, Note_on_c, 9, 35, 107
1, 315612, Note_on_c, 9, 46, 0
1, 315839, Note_on_c, 9, 53, 0
1, 315839, Note_on_c, 9, 35, 0
1, 315840, Note_on_c, 9, 46, 36
1, 315840, Note_on_c, 9, 35, 107
1, 315852, Note_on_c, 9, 46, 0
1, 316080, Note_on_c, 9, 46, 50
1, 316092, Note_on_c, 9, 46, 0
1, 316319, Note_on_c, 9, 35, 0
1, 316320, Note_on_c, 9, 38, 100
1, 316320, Note_on_c, 9, 46, 58
1, 316332, Note_on_c, 9, 46, 0
1, 316559, Note_on_c, 9, 38, 0
1, 316560, Note_on_c, 9, 38, 85
1, 316560, Note_on_c, 9, 46, 64
1, 316565, Note_on_c, 9, 46, 0
1, 316679, Note_on_c, 9, 38, 0
1, 316680, Note_on_c, 9, 38, 87
1, 316799, Note_on_c, 9, 38, 0
1, 316800, Note_on_c, 9, 51, 64
1, 316800, Note_on_c, 9, 42, 62
1, 316800, Note_on_c, 9, 35, 107
1, 316805, Note_on_c, 9, 51, 0
1, 316805, Note_on_c, 9, 42, 0
1, 316920, Note_on_c, 9, 38, 87
1, 317039, Note_on_c, 9, 35, 0
1, 317039, Note_on_c, 9, 38, 0
1, 317040, Note_on_c, 9, 51, 59
1, 317040, Note_on_c, 9, 44, 51
1, 317045, Note_on_c, 9, 51, 0
1, 317052, Note_on_c, 9, 44, 0
1, 317160, Note_on_c, 9, 53, 66
1, 317279, Note_on_c, 9, 53, 0
1, 317280, Note_on_c, 9, 38, 97
1, 317280, Note_on_c, 9, 44, 51
1, 317306, Note_on_c, 9, 44, 0
1, 317399, Note_on_c, 9, 38, 0
1, 317400, Note_on_c, 9, 51, 61
1, 317405, Note_on_c, 9, 51, 0
1, 317520, Note_on_c, 9, 38, 93
1, 317639, Note_on_c, 9, 38, 0
1, 317640, Note_on_c, 9, 38, 82
1, 317759, Note_on_c, 9, 38, 0
1, 317760, Note_on_c, 9, 51, 62
1, 317760, Note_on_c, 9, 44, 73
1, 317760, Note_on_c, 9, 35, 107
1, 317765, Note_on_c, 9, 51, 0
1, 317786, Note_on_c, 9, 44, 0
1, 317880, Note_on_c, 9, 38, 94
1, 317999, Note_on_c, 9, 38, 0
1, 318000, Note_on_c, 9, 51, 62
1, 318005, Note_on_c, 9, 51, 0
1, 318120, Note_on_c, 9, 51, 61
1, 318125, Note_on_c, 9, 51, 0
1, 318239, Note_on_c, 9, 35, 0
1, 318240, Note_on_c, 9, 38, 96
1, 318240, Note_on_c, 9, 44, 78
1, 318252, Note_on_c, 9, 44, 0
1, 318359, Note_on_c, 9, 38, 0
1, 318360, Note_on_c, 9, 53, 74
1, 318479, Note_on_c, 9, 53, 0
1, 318480, Note_on_c, 9, 38, 78
1, 318480, Note_on_c, 9, 35, 100
1, 318599, Note_on_c, 9, 38, 0
1, 318600, Note_on_c, 9, 38, 71
1, 318719, Note_on_c, 9, 35, 0
1, 318719, Note_on_c, 9, 38, 0
1, 318720, Note_on_c, 9, 51, 59
1, 318720, Note_on_c, 9, 42, 72
1, 318720, Note_on_c, 9, 35, 107
1, 318732, Note_on_c, 9, 51, 0
1, 318732, Note_on_c, 9, 42, 0
1, 318960, Note_on_c, 9, 51, 60
1, 318960, Note_on_c, 9, 42, 43
1, 318972, Note_on_c, 9, 51, 0
1, 318972, Note_on_c, 9, 42, 0
1, 319199, Note_on_c, 9, 35, 0
1, 319200, Note_on_c, 9, 38, 100
1, 319200, Note_on_c, 9, 42, 70
1, 319212, Note_on_c, 9, 42, 0
1, 319439, Note_on_c, 9, 38, 0
1, 319440, Note_on_c, 9, 51, 59
1, 319440, Note_on_c, 9, 42, 40
1, 319440, Note_on_c, 9, 35, 104
1, 319452, Note_on_c, 9, 51, 0
1, 319452, Note_on_c, 9, 42, 0
1, 319679, Note_on_c, 9, 35, 0
1, 319680, Note_on_c, 9, 42, 66
1, 319692, Note_on_c, 9, 42, 0
1, 319920, Note_on_c, 9, 51, 59
1, 319920, Note_on_c, 9, 42, 42
1, 319920, Note_on_c, 9, 35, 104
1, 319932, Note_on_c, 9, 51, 0
1, 319932, Note_on_c, 9, 42, 0
1, 320159, Note_on_c, 9, 35, 0
1, 320160, Note_on_c, 9, 38, 100
1, 320160, Note_on_c, 9, 42, 68
1, 320172, Note_on_c, 9, 42, 0
1, 320399, Note_on_c, 9, 38, 0
1, 320400, Note_on_c, 9, 53, 76
1, 320400, Note_on_c, 9, 42, 44
1, 320400, Note_on_c, 9, 35, 74
1, 320412, Note_on_c, 9, 42, 0
1, 320639, Note_on_c, 9, 53, 0
1, 320639, Note_on_c, 9, 35, 0
1, 320640, Note_on_c, 9, 42, 66
1, 320640, Note_on_c, 9, 35, 107
1, 320652, Note_on_c, 9, 42, 0
1, 320880, Note_on_c, 9, 51, 59
1, 320880, Note_on_c, 9, 42, 42
1, 320892, Note_on_c, 9, 51, 0
1, 320892, Note_on_c, 9, 42, 0
1, 321119, Note_on_c, 9, 35, 0
1, 321120, Note_on_c, 9, 38, 100
1, 321120, Note_on_c, 9, 42, 70
1, 321132, Note_on_c, 9, 42, 0
1, 321359, Note_on_c, 9, 38, 0
1, 321360, Note_on_c, 9, 51, 59
1, 321360, Note_on_c, 9, 42, 42
1, 321360, Note_on_c, 9, 35, 107
1, 321372, Note_on_c, 9, 51, 0
1, 321372, Note_on_c, 9, 42, 0
1, 321599, Note_on_c, 9, 35, 0
1, 321600, Note_on_c, 9, 51, 59
1, 321600, Note_on_c, 9, 42, 54
1, 321612, Note_on_c, 9, 51, 0
1, 321612, Note_on_c, 9, 42, 0
1, 321840, Note_on_c, 9, 46, 49
1, 321840, Note_on_c, 9, 51, 46
1, 321840, Note_on_c, 9, 35, 104
1, 321852, Note_on_c, 9, 46, 0
1, 321852, Note_on_c, 9, 51, 0
1, 322079, Note_on_c, 9, 35, 0
1, 322080, Note_on_c, 9, 38, 100
1, 322080, Note_on_c, 9, 42, 62
1, 322092, Note_on_c, 9, 42, 0
1, 322319, Note_on_c, 9, 38, 0
1, 322320, Note_on_c, 9, 46, 44
1, 322320, Note_on_c, 9, 51, 59
1, 322320, Note_on_c, 9, 55, 58
1, 322320, Note_on_c, 9, 35, 104
1, 322332, Note_on_c, 9, 46, 0
1, 322332, Note_on_c, 9, 51, 0
1, 322332, Note_on_c, 9, 55, 0
1, 322559, Note_on_c, 9, 35, 0
1, 322560, Note_on_c, 9, 51, 44
1, 322560, Note_on_c, 9, 42, 47
1, 322560, Note_on_c, 9, 57, 74
1, 322560, Note_on_c, 9, 35, 107
1, 322572, Note_on_c, 9, 51, 0
1, 322572, Note_on_c, 9, 42, 0
1, 322572, Note_on_c, 9, 57, 0
1, 322800, Note_on_c, 9, 51, 59
1, 322800, Note_on_c, 9, 42, 43
1, 322812, Note_on_c, 9, 51, 0
1, 322812, Note_on_c, 9, 42, 0
1, 323039, Note_on_c, 9, 35, 0
1, 323040, Note_on_c, 9, 38, 100
1, 323040, Note_on_c, 9, 42, 55
1, 323052, Note_on_c, 9, 42, 0
1, 323279, Note_on_c, 9, 38, 0
1, 323280, Note_on_c, 9, 51, 59
1, 323280, Note_on_c, 9, 42, 46
1, 323280, Note_on_c, 9, 35, 107
1, 323292, Note_on_c, 9, 51, 0
1, 323292, Note_on_c, 9, 42, 0
1, 323519, Note_on_c, 9, 35, 0
1, 323520, Note_on_c, 9, 42, 56
1, 323532, Note_on_c, 9, 42, 0
1, 323760, Note_on_c, 9, 46, 51
1, 323760, Note_on_c, 9, 51, 54
1, 323760, Note_on_c, 9, 35, 107
1, 323772, Note_on_c, 9, 46, 0
1, 323772, Note_on_c, 9, 51, 0
1, 323999, Note_on_c, 9, 35, 0
1, 324000, Note_on_c, 9, 38, 100
1, 324000, Note_on_c, 9, 51, 26
1, 324000, Note_on_c, 9, 42, 65
1, 324012, Note_on_c, 9, 51, 0
1, 324012, Note_on_c, 9, 42, 0
1, 324239, Note_on_c, 9, 38, 0
1, 324240, Note_on_c, 9, 46, 45
1, 324240, Note_on_c, 9, 51, 59
1, 324240, Note_on_c, 9, 35, 104
1, 324252, Note_on_c, 9, 46, 0
1, 324252, Note_on_c, 9, 51, 0
1, 324479, Note_on_c, 9, 35, 0
1, 324480, Note_on_c, 9, 51, 36
1, 324480, Note_on_c, 9, 42, 65
1, 324480, Note_on_c, 9, 35, 107
1, 324492, Note_on_c, 9, 51, 0
1, 324492, Note_on_c, 9, 42, 0
1, 324720, Note_on_c, 9, 46, 45
1, 324720, Note_on_c, 9, 51, 60
1, 324732, Note_on_c, 9, 46, 0
1, 324732, Note_on_c, 9, 51, 0
1, 324959, Note_on_c, 9, 35, 0
1, 324960, Note_on_c, 9, 38, 100
1, 324960, Note_on_c, 9, 51, 32
1, 324960, Note_on_c, 9, 42, 62
1, 324972, Note_on_c, 9, 51, 0
1, 324972, Note_on_c, 9, 42, 0
1, 325199, Note_on_c, 9, 38, 0
1, 325200, Note_on_c, 9, 53, 71
1, 325200, Note_on_c, 9, 42, 47
1, 325200, Note_on_c, 9, 35, 107
1, 325212, Note_on_c, 9, 42, 0
1, 325439, Note_on_c, 9, 53, 0
1, 325439, Note_on_c, 9, 35, 0
1, 325440, Note_on_c, 9, 51, 42
1, 325440, Note_on_c, 9, 42, 59
1, 325452, Note_on_c, 9, 51, 0
1, 325452, Note_on_c, 9, 42, 0
1, 325680, Note_on_c, 9, 51, 57
1, 325680, Note_on_c, 9, 42, 47
1, 325680, Note_on_c, 9, 35, 107
1, 325692, Note_on_c, 9, 51, 0
1, 325692, Note_on_c, 9, 42, 0
1, 325919, Note_on_c, 9, 35, 0
1, 325920, Note_on_c, 9, 38, 100
1, 325920, Note_on_c, 9, 51, 37
1, 325920, Note_on_c, 9, 42, 62
1, 325932, Note_on_c, 9, 51, 0
1, 325932, Note_on_c, 9, 42, 0
1, 326159, Note_on_c, 9, 38, 0
1, 326160, Note_on_c, 9, 46, 44
1, 326160, Note_on_c, 9, 51, 47
1, 326160, Note_on_c, 9, 35, 107
1, 326172, Note_on_c, 9, 46, 0
1, 326172, Note_on_c, 9, 51, 0
1, 326399, Note_on_c, 9, 35, 0
1, 326400, Note_on_c, 9, 51, 57
1, 326400, Note_on_c, 9, 42, 66
1, 326400, Note_on_c, 9, 35, 107
1, 326412, Note_on_c, 9, 51, 0
1, 326412, Note_on_c, 9, 42, 0
1, 326640, Note_on_c, 9, 51, 57
1, 326640, Note_on_c, 9, 42, 42
1, 326652, Note_on_c, 9, 51, 0
1, 326652, Note_on_c, 9, 42, 0
1, 326879, Note_on_c, 9, 35, 0
1, 326880, Note_on_c, 9, 38, 100
1, 326880, Note_on_c, 9, 51, 54
1, 326880, Note_on_c, 9, 42, 62
1, 326880, Note_on_c, 9, 52, 84
1, 326892, Note_on_c, 9, 51, 0
1, 326892, Note_on_c, 9, 42, 0
1, 326892, Note_on_c, 9, 52, 0
1, 327119, Note_on_c, 9, 38, 0
1, 327120, Note_on_c, 9, 51, 43
1, 327120, Note_on_c, 9, 42, 45
1, 327120, Note_on_c, 9, 35, 107
1, 327132, Note_on_c, 9, 51, 0
1, 327132, Note_on_c, 9, 42, 0
1, 327359, Note_on_c, 9, 35, 0
1, 327360, Note_on_c, 9, 51, 58
1, 327360, Note_on_c, 9, 42, 65
1, 327372, Note_on_c, 9, 51, 0
1, 327372, Note_on_c, 9, 42, 0
1, 327600, Note_on_c, 9, 53, 73
1, 327600, Note_on_c, 9, 42, 42
1, 327600, Note_on_c, 9, 35, 95
1, 327612, Note_on_c, 9, 42, 0
1, 327839, Note_on_c, 9, 53, 0
1, 327839, Note_on_c, 9, 35, 0
1, 327840, Note_on_c, 9, 38, 100
1, 327840, Note_on_c, 9, 51, 44
1, 327840, Note_on_c, 9, 42, 70
1, 327852, Note_on_c, 9, 51, 0
1, 327852, Note_on_c, 9, 42, 0
1, 328079, Note_on_c, 9, 38, 0
1, 328080, Note_on_c, 9, 51, 52
1, 328080, Note_on_c, 9, 42, 42
1, 328080, Note_on_c, 9, 35, 98
1, 328092, Note_on_c, 9, 51, 0
1, 328092, Note_on_c, 9, 42, 0
1, 328319, Note_on_c, 9, 35, 0
1, 328320, Note_on_c, 9, 42, 66
1, 328320, Note_on_c, 9, 35, 107
1, 328332, Note_on_c, 9, 42, 0
1, 328560, Note_on_c, 9, 51, 62
1, 328560, Note_on_c, 9, 42, 50
1, 328572, Note_on_c, 9, 51, 0
1, 328572, Note_on_c, 9, 42, 0
1, 328799, Note_on_c, 9, 35, 0
1, 328800, Note_on_c, 9, 38, 100
1, 328800, Note_on_c, 9, 42, 54
1, 328812, Note_on_c, 9, 42, 0
1, 329039, Note_on_c, 9, 38, 0
1, 329040, Note_on_c, 9, 46, 43
1, 329040, Note_on_c, 9, 51, 60
1, 329040, Note_on_c, 9, 35, 107
1, 329052, Note_on_c, 9, 46, 0
1, 329052, Note_on_c, 9, 51, 0
1, 329279, Note_on_c, 9, 35, 0
1, 329280, Note_on_c, 9, 42, 54
1, 329292, Note_on_c, 9, 42, 0
1, 329520, Note_on_c, 9, 53, 77
1, 329520, Note_on_c, 9, 42, 46
1, 329520, Note_on_c, 9, 35, 107
1, 329532, Note_on_c, 9, 42, 0
1, 329759, Note_on_c, 9, 53, 0
1, 329759, Note_on_c, 9, 35, 0
1, 329760, Note_on_c, 9, 38, 100
1, 329760, Note_on_c, 9, 51, 57
1, 329760, Note_on_c, 9, 42, 52
1, 329772, Note_on_c, 9, 51, 0
1, 329772, Note_on_c, 9, 42, 0
1, 329999, Note_on_c, 9, 38, 0
1, 330000, Note_on_c, 9, 51, 59
1, 330000, Note_on_c, 9, 42, 68
1, 330000, Note_on_c, 9, 35, 107
1, 330012, Note_on_c, 9, 51, 0
1, 330012, Note_on_c, 9, 42, 0
1, 330239, Note_on_c, 9, 35, 0
1, 330240, Note_on_c, 9, 42, 74
1, 330240, Note_on_c, 9, 55, 75
1, 330240, Note_on_c, 9, 35, 107
1, 330252, Note_on_c, 9, 42, 0
1, 330252, Note_on_c, 9, 55, 0
1, 330480, Note_on_c, 9, 42, 41
1, 330492, Note_on_c, 9, 42, 0
1, 330719, Note_on_c, 9, 35, 0
1, 330720, Note_on_c, 9, 38, 100
1, 330720, Note_on_c, 9, 51, 63
1, 330720, Note_on_c, 9, 42, 72
1, 330732, Note_on_c, 9, 51, 0
1, 330732, Note_on_c, 9, 42, 0
1, 330959, Note_on_c, 9, 38, 0
1, 330960, Note_on_c, 9, 42, 45
1, 330960, Note_on_c, 9, 35, 102
1, 330972, Note_on_c, 9, 42, 0
1, 331199, Note_on_c, 9, 35, 0
1, 331200, Note_on_c, 9, 42, 74
1, 331200, Note_on_c, 9, 35, 107
1, 331212, Note_on_c, 9, 42, 0
1, 331440, Note_on_c, 9, 42, 38
1, 331452, Note_on_c, 9, 42, 0
1, 331679, Note_on_c, 9, 35, 0
1, 331680, Note_on_c, 9, 38, 100
1, 331680, Note_on_c, 9, 42, 70
1, 331692, Note_on_c, 9, 42, 0
1, 331919, Note_on_c, 9, 38, 0
1, 331920, Note_on_c, 9, 42, 44
1, 331932, Note_on_c, 9, 42, 0
1, 332160, Note_on_c, 9, 42, 74
1, 332160, Note_on_c, 9, 35, 107
1, 332172, Note_on_c, 9, 42, 0
1, 332400, Note_on_c, 9, 42, 40
1, 332412, Note_on_c, 9, 42, 0
1, 332639, Note_on_c, 9, 35, 0
1, 332640, Note_on_c, 9, 38, 100
1, 332640, Note_on_c, 9, 42, 66
1, 332652, Note_on_c, 9, 42, 0
1, 332879, Note_on_c, 9, 38, 0
1, 332880, Note_on_c, 9, 46, 58
1, 332880, Note_on_c, 9, 35, 107
1, 332892, Note_on_c, 9, 46, 0
1, 333119, Note_on_c, 9, 35, 0
1, 333120, Note_on_c, 9, 42, 65
1, 333132, Note_on_c, 9, 42, 0
1, 333360, Note_on_c, 9, 46, 62
1, 333360, Note_on_c, 9, 35, 107
1, 333372, Note_on_c, 9, 46, 0
1, 333599, Note_on_c, 9, 35, 0
1, 333600, Note_on_c, 9, 38, 100
1, 333600, Note_on_c, 9, 42, 65
1, 333612, Note_on_c, 9, 42, 0
1, 333839, Note_on_c, 9, 38, 0
1, 333840, Note_on_c, 9, 46, 59
1, 333840, Note_on_c, 9, 35, 102
1, 333849, Note_on_c, 9, 46, 0
1, 334020, Note_on_c, 9, 51, 38
1, 334022, Note_on_c, 9, 51, 0
1, 334079, Note_on_c, 9, 35, 0
1, 334080, Note_on_c, 9, 53, 58
1, 334080, Note_on_c, 9, 42, 74
1, 334080, Note_on_c, 9, 35, 107
1, 334092, Note_on_c, 9, 42, 0
1, 334319, Note_on_c, 9, 53, 0
1, 334320, Note_on_c, 9, 42, 40
1, 334332, Note_on_c, 9, 42, 0
1, 334559, Note_on_c, 9, 35, 0
1, 334560, Note_on_c, 9, 38, 100
1, 334560, Note_on_c, 9, 42, 62
1, 334572, Note_on_c, 9, 42, 0
1, 334799, Note_on_c, 9, 38, 0
1, 334800, Note_on_c, 9, 42, 47
1, 334812, Note_on_c, 9, 42, 0
1, 335040, Note_on_c, 9, 42, 66
1, 335040, Note_on_c, 9, 35, 107
1, 335052, Note_on_c, 9, 42, 0
1, 335280, Note_on_c, 9, 42, 45
1, 335292, Note_on_c, 9, 42, 0
1, 335519, Note_on_c, 9, 35, 0
1, 335520, Note_on_c, 9, 38, 100
1, 335520, Note_on_c, 9, 42, 67
1, 335532, Note_on_c, 9, 42, 0
1, 335759, Note_on_c, 9, 38, 0
1, 335760, Note_on_c, 9, 46, 52
1, 335772, Note_on_c, 9, 46, 0
1, 336000, Note_on_c, 9, 42, 74
1, 336000, Note_on_c, 9, 35, 107
1, 336012, Note_on_c, 9, 42, 0
1, 336240, Note_on_c, 9, 42, 47
1, 336252, Note_on_c, 9, 42, 0
1, 336479, Note_on_c, 9, 35, 0
1, 336480, Note_on_c, 9, 38, 100
1, 336480, Note_on_c, 9, 42, 65
1, 336492, Note_on_c, 9, 42, 0
1, 336719, Note_on_c, 9, 38, 0
1, 336720, Note_on_c, 9, 46, 62
1, 336720, Note_on_c, 9, 35, 107
1, 336732, Note_on_c, 9, 46, 0
1, 336959, Note_on_c, 9, 35, 0
1, 336960, Note_on_c, 9, 42, 66
1, 336972, Note_on_c, 9, 42, 0
1, 337200, Note_on_c, 9, 46, 61
1, 337200, Note_on_c, 9, 35, 107
1, 337212, Note_on_c, 9, 46, 0
1, 337439, Note_on_c, 9, 35, 0
1, 337440, Note_on_c, 9, 38, 100
1, 337440, Note_on_c, 9, 42, 74
1, 337452, Note_on_c, 9, 42, 0
1, 337679, Note_on_c, 9, 38, 0
1, 337680, Note_on_c, 9, 46, 59
1, 337680, Note_on_c, 9, 35, 100
1, 337692, Note_on_c, 9, 46, 0
1, 337919, Note_on_c, 9, 35, 0
1, 337920, Note_on_c, 9, 53, 76
1, 337920, Note_on_c, 9, 42, 74
1, 337920, Note_on_c, 9, 35, 107
1, 337932, Note_on_c, 9, 42, 0
1, 338159, Note_on_c, 9, 53, 0
1, 338160, Note_on_c, 9, 42, 43
1, 338172, Note_on_c, 9, 42, 0
1, 338399, Note_on_c, 9, 35, 0
1, 338400, Note_on_c, 9, 38, 100
1, 338400, Note_on_c, 9, 51, 60
1, 338400, Note_on_c, 9, 42, 59
1, 338412, Note_on_c, 9, 51, 0
1, 338412, Note_on_c, 9, 42, 0
1, 338639, Note_on_c, 9, 38, 0
1, 338640, Note_on_c, 9, 42, 45
1, 338640, Note_on_c, 9, 35, 107
1, 338652, Note_on_c, 9, 42, 0
1, 338879, Note_on_c, 9, 35, 0
1, 338880, Note_on_c, 9, 42, 72
1, 338880, Note_on_c, 9, 35, 107
1, 338892, Note_on_c, 9, 42, 0
1, 339120, Note_on_c, 9, 42, 48
1, 339132, Note_on_c, 9, 42, 0
1, 339359, Note_on_c, 9, 35, 0
1, 339360, Note_on_c, 9, 38, 100
1, 339360, Note_on_c, 9, 42, 67
1, 339372, Note_on_c, 9, 42, 0
1, 339599, Note_on_c, 9, 38, 0
1, 339600, Note_on_c, 9, 38, 87
1, 339600, Note_on_c, 9, 46, 56
1, 339605, Note_on_c, 9, 46, 0
1, 339719, Note_on_c, 9, 38, 0
1, 339720, Note_on_c, 9, 38, 79
1, 339839, Note_on_c, 9, 38, 0
1, 339840, Note_on_c, 9, 42, 62
1, 339840, Note_on_c, 9, 35, 107
1, 339845, Note_on_c, 9, 42, 0
1, 339960, Note_on_c, 9, 38, 86
1, 340079, Note_on_c, 9, 38, 0
1, 340080, Note_on_c, 9, 38, 77
1, 340080, Note_on_c, 9, 51, 59
1, 340080, Note_on_c, 9, 42, 48
1, 340092, Note_on_c, 9, 51, 0
1, 340092, Note_on_c, 9, 42, 0
1, 340319, Note_on_c, 9, 35, 0
1, 340319, Note_on_c, 9, 38, 0
1, 340320, Note_on_c, 9, 38, 94
1, 340320, Note_on_c, 9, 46, 54
1, 340332, Note_on_c, 9, 46, 0
1, 340559, Note_on_c, 9, 38, 0
1, 340560, Note_on_c, 9, 38, 89
1, 340560, Note_on_c, 9, 46, 23
1, 340565, Note_on_c, 9, 46, 0
1, 340679, Note_on_c, 9, 38, 0
1, 340680, Note_on_c, 9, 38, 80
1, 340799, Note_on_c, 9, 38, 0
1, 340800, Note_on_c, 9, 45, 95
1, 340800, Note_on_c, 9, 46, 28
1, 340800, Note_on_c, 9, 35, 107
1, 340812, Note_on_c, 9, 46, 0
1, 341039, Note_on_c, 9, 45, 0
1, 341040, Note_on_c, 9, 45, 90
1, 341040, Note_on_c, 9, 46, 47
1, 341040, Note_on_c, 9, 53, 71
1, 341052, Note_on_c, 9, 46, 0
1, 341279, Note_on_c, 9, 35, 0
1, 341279, Note_on_c, 9, 45, 0
1, 341279, Note_on_c, 9, 53, 0
1, 341280, Note_on_c, 9, 41, 99
1, 341280, Note_on_c, 9, 46, 61
1, 341292, Note_on_c, 9, 46, 0
1, 341519, Note_on_c, 9, 41, 0
1, 341520, Note_on_c, 9, 41, 95
1, 341520, Note_on_c, 9, 46, 62
1, 341520, Note_on_c, 9, 52, 92
1, 341532, Note_on_c, 9, 46, 0
1, 341532, Note_on_c, 9, 52, 0
1, 341759, Note_on_c, 9, 41, 0
1, 341760, Note_on_c, 9, 42, 68
1, 341760, Note_on_c, 9, 49, 70
1, 341760, Note_on_c, 9, 35, 107
1, 341772, Note_on_c, 9, 42, 0
1, 341772, Note_on_c, 9, 49, 0
1, 342000, Note_on_c, 9, 51, 62
1, 342000, Note_on_c, 9, 42, 47
1, 342012, Note_on_c, 9, 51, 0
1, 342012, Note_on_c, 9, 42, 0
1, 342239, Note_on_c, 9, 35, 0
1, 342240, Note_on_c, 9, 38, 100
1, 342240, Note_on_c, 9, 42, 71
1, 342252, Note_on_c, 9, 42, 0
1, 342479, Note_on_c, 9, 38, 0
1, 342480, Note_on_c, 9, 51, 59
1, 342480, Note_on_c, 9, 42, 62
1, 342492, Note_on_c, 9, 51, 0
1, 342492, Note_on_c, 9, 42, 0
1, 342720, Note_on_c, 9, 51, 62
1, 342720, Note_on_c, 9, 42, 71
1, 342720, Note_on_c, 9, 35, 107
1, 342732, Note_on_c, 9, 51, 0
1, 342732, Note_on_c, 9, 42, 0
1, 342960, Note_on_c, 9, 51, 51
1, 342960, Note_on_c, 9, 42, 47
1, 342972, Note_on_c, 9, 51, 0
1, 342972, Note_on_c, 9, 42, 0
1, 343199, Note_on_c, 9, 35, 0
1, 343200, Note_on_c, 9, 38, 100
1, 343200, Note_on_c, 9, 51, 49
1, 343200, Note_on_c, 9, 42, 71
1, 343212, Note_on_c, 9, 51, 0
1, 343212, Note_on_c, 9, 42, 0
1, 343439, Note_on_c, 9, 38, 0
1, 343440, Note_on_c, 9, 51, 62
1, 343440, Note_on_c, 9, 42, 48
1, 343440, Note_on_c, 9, 35, 107
1, 343452, Note_on_c, 9, 51, 0
1, 343452, Note_on_c, 9, 42, 0
1, 343679, Note_on_c, 9, 35, 0
1, 343680, Note_on_c, 9, 42, 66
1, 343692, Note_on_c, 9, 42, 0
1, 343920, Note_on_c, 9, 51, 57
1, 343920, Note_on_c, 9, 42, 42
1, 343932, Note_on_c, 9, 51, 0
1, 343932, Note_on_c, 9, 42, 0
1, 344160, Note_on_c, 9, 38, 100
1, 344160, Note_on_c, 9, 51, 36
1, 344160, Note_on_c, 9, 42, 74
1, 344172, Note_on_c, 9, 51, 0
1, 344172, Note_on_c, 9, 42, 0
1, 344399, Note_on_c, 9, 38, 0
1, 344400, Note_on_c, 9, 51, 58
1, 344400, Note_on_c, 9, 42, 47
1, 344400, Note_on_c, 9, 35, 95
1, 344412, Note_on_c, 9, 51, 0
1, 344412, Note_on_c, 9, 42, 0
1, 344639, Note_on_c, 9, 35, 0
1, 344640, Note_on_c, 9, 51, 62
1, 344640, Note_on_c, 9, 42, 66
1, 344640, Note_on_c, 9, 35, 107
1, 344652, Note_on_c, 9, 51, 0
1, 344652, Note_on_c, 9, 42, 0
1, 344880, Note_on_c, 9, 46, 49
1, 344880, Note_on_c, 9, 51, 35
1, 344892, Note_on_c, 9, 46, 0
1, 344892, Note_on_c, 9, 51, 0
1, 345119, Note_on_c, 9, 35, 0
1, 345120, Note_on_c, 9, 38, 100
1, 345120, Note_on_c, 9, 51, 62
1, 345120, Note_on_c, 9, 42, 70
1, 345132, Note_on_c, 9, 51, 0
1, 345132, Note_on_c, 9, 42, 0
1, 345359, Note_on_c, 9, 38, 0
1, 345360, Note_on_c, 9, 46, 46
1, 345360, Note_on_c, 9, 51, 23
1, 345372, Note_on_c, 9, 46, 0
1, 345372, Note_on_c, 9, 51, 0
1, 345600, Note_on_c, 9, 53, 83
1, 345600, Note_on_c, 9, 42, 73
1, 345600, Note_on_c, 9, 35, 107
1, 345612, Note_on_c, 9, 42, 0
1, 345839, Note_on_c, 9, 53, 0
1, 345840, Note_on_c, 9, 53, 64
1, 345840, Note_on_c, 9, 42, 43
1, 345852, Note_on_c, 9, 42, 0
1, 346079, Note_on_c, 9, 35, 0
1, 346079, Note_on_c, 9, 53, 0
1, 346080, Note_on_c, 9, 38, 100
1, 346080, Note_on_c, 9, 51, 42
1, 346080, Note_on_c, 9, 42, 62
1, 346092, Note_on_c, 9, 51, 0
1, 346092, Note_on_c, 9, 42, 0
1, 346319, Note_on_c, 9, 38, 0
1, 346320, Note_on_c, 9, 51, 65
1, 346320, Note_on_c, 9, 42, 47
1, 346320, Note_on_c, 9, 35, 107
1, 346332, Note_on_c, 9, 51, 0
1, 346332, Note_on_c, 9, 42, 0
1, 346559, Note_on_c, 9, 35, 0
1, 346560, Note_on_c, 9, 51, 38
1, 346560, Note_on_c, 9, 42, 66
1, 346572, Note_on_c, 9, 51, 0
1, 346572, Note_on_c, 9, 42, 0
1, 346800, Note_on_c, 9, 51, 59
1, 346800, Note_on_c, 9, 42, 44
1, 346812, Note_on_c, 9, 51, 0
1, 346812, Note_on_c, 9, 42, 0
1, 347040, Note_on_c, 9, 38, 100
1, 347040, Note_on_c, 9, 51, 47
1, 347040, Note_on_c, 9, 42, 68
1, 347052, Note_on_c, 9, 51, 0
1, 347052, Note_on_c, 9, 42, 0
1, 347279, Note_on_c, 9, 38, 0
1, 347280, Note_on_c, 9, 51, 33
1, 347280, Note_on_c, 9, 42, 44
1, 347280, Note_on_c, 9, 35, 107
1, 347292, Note_on_c, 9, 51, 0
1, 347292, Note_on_c, 9, 42, 0
1, 347519, Note_on_c, 9, 35, 0
1, 347520, Note_on_c, 9, 51, 59
1, 347520, Note_on_c, 9, 42, 68
1, 347520, Note_on_c, 9, 35, 107
1, 347532, Note_on_c, 9, 51, 0
1, 347532, Note_on_c, 9, 42, 0
1, 347760, Note_on_c, 9, 53, 77
1, 347760, Note_on_c, 9, 42, 43
1, 347772, Note_on_c, 9, 42, 0
1, 347999, Note_on_c, 9, 35, 0
1, 347999, Note_on_c, 9, 53, 0
1, 348000, Note_on_c, 9, 38, 100
1, 348000, Note_on_c, 9, 42, 68
1, 348012, Note_on_c, 9, 42, 0
1, 348239, Note_on_c, 9, 38, 0
1, 348240, Note_on_c, 9, 51, 57
1, 348240, Note_on_c, 9, 42, 47
1, 348240, Note_on_c, 9, 35, 107
1, 348252, Note_on_c, 9, 51, 0
1, 348252, Note_on_c, 9, 42, 0
1, 348479, Note_on_c, 9, 35, 0
1, 348480, Note_on_c, 9, 51, 35
1, 348480, Note_on_c, 9, 42, 74
1, 348492, Note_on_c, 9, 51, 0
1, 348492, Note_on_c, 9, 42, 0
1, 348720, Note_on_c, 9, 46, 47
1, 348720, Note_on_c, 9, 51, 46
1, 348732, Note_on_c, 9, 46, 0
1, 348732, Note_on_c, 9, 51, 0
1, 348960, Note_on_c, 9, 38, 100
1, 348960, Note_on_c, 9, 51, 53
1, 348960, Note_on_c, 9, 42, 74
1, 348972, Note_on_c, 9, 51, 0
1, 348972, Note_on_c, 9, 42, 0
1, 349199, Note_on_c, 9, 38, 0
1, 349200, Note_on_c, 9, 46, 45
1, 349200, Note_on_c, 9, 51, 52
1, 349200, Note_on_c, 9, 35, 102
1, 349212, Note_on_c, 9, 46, 0
1, 349212, Note_on_c, 9, 51, 0
1, 349439, Note_on_c, 9, 35, 0
1, 349440, Note_on_c, 9, 42, 74
1, 349440, Note_on_c, 9, 55, 69
1, 349440, Note_on_c, 9, 35, 107
1, 349452, Note_on_c, 9, 42, 0
1, 349452, Note_on_c, 9, 55, 0
1, 349680, Note_on_c, 9, 51, 35
1, 349680, Note_on_c, 9, 42, 44
1, 349692, Note_on_c, 9, 51, 0
1, 349692, Note_on_c, 9, 42, 0
1, 349919, Note_on_c, 9, 35, 0
1, 349920, Note_on_c, 9, 38, 100
1, 349920, Note_on_c, 9, 51, 53
1, 349920, Note_on_c, 9, 42, 70
1, 349932, Note_on_c, 9, 51, 0
1, 349932, Note_on_c, 9, 42, 0
1, 350159, Note_on_c, 9, 38, 0
1, 350160, Note_on_c, 9, 51, 38
1, 350160, Note_on_c, 9, 42, 44
1, 350172, Note_on_c, 9, 51, 0
1, 350172, Note_on_c, 9, 42, 0
1, 350400, Note_on_c, 9, 53, 73
1, 350400, Note_on_c, 9, 42, 74
1, 350400, Note_on_c, 9, 35, 107
1, 350412, Note_on_c, 9, 42, 0
1, 350639, Note_on_c, 9, 53, 0
1, 350640, Note_on_c, 9, 53, 76
1, 350640, Note_on_c, 9, 42, 47
1, 350652, Note_on_c, 9, 42, 0
1, 350879, Note_on_c, 9, 35, 0
1, 350879, Note_on_c, 9, 53, 0
1, 350880, Note_on_c, 9, 38, 100
1, 350880, Note_on_c, 9, 51, 40
1, 350880, Note_on_c, 9, 42, 74
1, 350892, Note_on_c, 9, 51, 0
1, 350892, Note_on_c, 9, 42, 0
1, 351119, Note_on_c, 9, 38, 0
1, 351120, Note_on_c, 9, 53, 73
1, 351120, Note_on_c, 9, 42, 44
1, 351120, Note_on_c, 9, 35, 107
1, 351132, Note_on_c, 9, 42, 0
1, 351359, Note_on_c, 9, 53, 0
1, 351359, Note_on_c, 9, 35, 0
1, 351360, Note_on_c, 9, 42, 72
1, 351372, Note_on_c, 9, 42, 0
1, 351600, Note_on_c, 9, 51, 58
1, 351600, Note_on_c, 9, 42, 47
1, 351612, Note_on_c, 9, 51, 0
1, 351612, Note_on_c, 9, 42, 0
1, 351840, Note_on_c, 9, 38, 100
1, 351840, Note_on_c, 9, 51, 42
1, 351840, Note_on_c, 9, 42, 74
1, 351852, Note_on_c, 9, 51, 0
1, 351852, Note_on_c, 9, 42, 0
1, 352079, Note_on_c, 9, 38, 0
1, 352080, Note_on_c, 9, 51, 41
1, 352080, Note_on_c, 9, 42, 44
1, 352080, Note_on_c, 9, 35, 107
1, 352092, Note_on_c, 9, 51, 0
1, 352092, Note_on_c, 9, 42, 0
1, 352319, Note_on_c, 9, 35, 0
1, 352320, Note_on_c, 9, 51, 58
1, 352320, Note_on_c, 9, 42, 72
1, 352320, Note_on_c, 9, 35, 107
1, 352332, Note_on_c, 9, 51, 0
1, 352332, Note_on_c, 9, 42, 0
1, 352560, Note_on_c, 9, 46, 54
1, 352560, Note_on_c, 9, 53, 76
1, 352572, Note_on_c, 9, 46, 0
1, 352799, Note_on_c, 9, 35, 0
1, 352799, Note_on_c, 9, 53, 0
1, 352800, Note_on_c, 9, 38, 100
1, 352800, Note_on_c, 9, 51, 37
1, 352800, Note_on_c, 9, 42, 67
1, 352812, Note_on_c, 9, 51, 0
1, 352812, Note_on_c, 9, 42, 0
1, 353039, Note_on_c, 9, 38, 0
1, 353040, Note_on_c, 9, 46, 43
1, 353040, Note_on_c, 9, 51, 52
1, 353052, Note_on_c, 9, 46, 0
1, 353052, Note_on_c, 9, 51, 0
1, 353280, Note_on_c, 9, 51, 62
1, 353280, Note_on_c, 9, 42, 74
1, 353280, Note_on_c, 9, 35, 107
1, 353292, Note_on_c, 9, 51, 0
1, 353292, Note_on_c, 9, 42, 0
1, 353520, Note_on_c, 9, 51, 40
1, 353520, Note_on_c, 9, 42, 44
1, 353532, Note_on_c, 9, 51, 0
1, 353532, Note_on_c, 9, 42, 0
1, 353759, Note_on_c, 9, 35, 0
1, 353760, Note_on_c, 9, 38, 100
1, 353760, Note_on_c, 9, 42, 65
1, 353772, Note_on_c, 9, 42, 0
1, 353999, Note_on_c, 9, 38, 0
1, 354000, Note_on_c, 9, 53, 73
1, 354000, Note_on_c, 9, 42, 47
1, 354000, Note_on_c, 9, 35, 107
1, 354012, Note_on_c, 9, 42, 0
1, 354239, Note_on_c, 9, 53, 0
1, 354239, Note_on_c, 9, 35, 0
1, 354240, Note_on_c, 9, 42, 65
1, 354252, Note_on_c, 9, 42, 0
1, 354480, Note_on_c, 9, 51, 60
1, 354480, Note_on_c, 9, 42, 47
1, 354492, Note_on_c, 9, 51, 0
1, 354492, Note_on_c, 9, 42, 0
1, 354720, Note_on_c, 9, 38, 100
1, 354720, Note_on_c, 9, 42, 65
1, 354732, Note_on_c, 9, 42, 0
1, 354959, Note_on_c, 9, 38, 0
1, 354960, Note_on_c, 9, 51, 44
1, 354960, Note_on_c, 9, 42, 65
1, 354972, Note_on_c, 9, 51, 0
1, 354972, Note_on_c, 9, 42, 0
1, 355200, Note_on_c, 9, 51, 59
1, 355200, Note_on_c, 9, 44, 55
1, 355200, Note_on_c, 9, 35, 107
1, 355212, Note_on_c, 9, 51, 0
1, 355226, Note_on_c, 9, 44, 0
1, 355440, Note_on_c, 9, 48, 91
1, 355440, Note_on_c, 9, 53, 69
1, 355679, Note_on_c, 9, 35, 0
1, 355679, Note_on_c, 9, 48, 0
1, 355679, Note_on_c, 9, 53, 0
1, 355680, Note_on_c, 9, 48, 97
1, 355680, Note_on_c, 9, 44, 68
1, 355706, Note_on_c, 9, 44, 0
1, 356039, Note_on_c, 9, 48, 0
1, 356040, Note_on_c, 9, 45, 81
1, 356159, Note_on_c, 9, 45, 0
1, 356160, Note_on_c, 9, 45, 96
1, 356160, Note_on_c, 9, 44, 64
1, 356160, Note_on_c, 9, 35, 107
1, 356186, Note_on_c, 9, 44, 0
1, 356399, Note_on_c, 9, 45, 0
1, 356400, Note_on_c, 9, 41, 93
1, 356639, Note_on_c, 9, 35, 0
1, 356639, Note_on_c, 9, 41, 0
1, 356640, Note_on_c, 9, 41, 99
1, 356640, Note_on_c, 9, 38, 100
1, 356640, Note_on_c, 9, 44, 73
1, 356666, Note_on_c, 9, 44, 0
1, 356879, Note_on_c, 9, 41, 0
1, 356879, Note_on_c, 9, 38, 0
1, 356880, Note_on_c, 9, 41, 95
1, 357119, Note_on_c, 9, 41, 0
1, 357120, Note_on_c, 9, 42, 74
1, 357120, Note_on_c, 9, 52, 89
1, 357120, Note_on_c, 9, 35, 107
1, 357132, Note_on_c, 9, 42, 0
1, 357132, Note_on_c, 9, 52, 0
1, 357360, Note_on_c, 9, 53, 73
1, 357360, Note_on_c, 9, 42, 42
1, 357372, Note_on_c, 9, 42, 0
1, 357599, Note_on_c, 9, 35, 0
1, 357599, Note_on_c, 9, 53, 0
1, 357600, Note_on_c, 9, 38, 100
1, 357600, Note_on_c, 9, 42, 74
1, 357612, Note_on_c, 9, 42, 0
1, 357839, Note_on_c, 9, 38, 0
1, 357840, Note_on_c, 9, 51, 58
1, 357840, Note_on_c, 9, 42, 33
1, 357840, Note_on_c, 9, 35, 100
1, 357852, Note_on_c, 9, 51, 0
1, 357852, Note_on_c, 9, 42, 0
1, 358079, Note_on_c, 9, 35, 0
1, 358080, Note_on_c, 9, 42, 70
1, 358080, Note_on_c, 9, 35, 107
1, 358092, Note_on_c, 9, 42, 0
1, 358320, Note_on_c, 9, 42, 38
1, 358332, Note_on_c, 9, 42, 0
1, 358559, Note_on_c, 9, 35, 0
1, 358560, Note_on_c, 9, 38, 100
1, 358560, Note_on_c, 9, 42, 62
1, 358572, Note_on_c, 9, 42, 0
1, 358799, Note_on_c, 9, 38, 0
1, 358800, Note_on_c, 9, 46, 62
1, 358800, Note_on_c, 9, 53, 66
1, 358800, Note_on_c, 9, 57, 74
1, 358800, Note_on_c, 9, 35, 107
1, 358812, Note_on_c, 9, 46, 0
1, 358812, Note_on_c, 9, 57, 0
1, 359039, Note_on_c, 9, 53, 0
1, 359039, Note_on_c, 9, 35, 0
1, 359040, Note_on_c, 9, 42, 54
1, 359052, Note_on_c, 9, 42, 0
1, 359280, Note_on_c, 9, 42, 46
1, 359292, Note_on_c, 9, 42, 0
1, 359520, Note_on_c, 9, 38, 100
1, 359520, Note_on_c, 9, 42, 67
1, 359532, Note_on_c, 9, 42, 0
1, 359759, Note_on_c, 9, 38, 0
1, 359760, Note_on_c, 9, 42, 44
1, 359760, Note_on_c, 9, 35, 100
1, 359772, Note_on_c, 9, 42, 0
1, 359999, Note_on_c, 9, 35, 0
1, 360000, Note_on_c, 9, 42, 70
1, 360000, Note_on_c, 9, 35, 107
1, 360012, Note_on_c, 9, 42, 0
1, 360240, Note_on_c, 9, 42, 42
1, 360252, Note_on_c, 9, 42, 0
1, 360479, Note_on_c, 9, 35, 0
1, 360480, Note_on_c, 9, 38, 100
1, 360480, Note_on_c, 9, 42, 67
1, 360492, Note_on_c, 9, 42, 0
1, 360719, Note_on_c, 9, 38, 0
1, 360720, Note_on_c, 9, 42, 44
1, 360732, Note_on_c, 9, 42, 0
1, 360960, Note_on_c, 9, 42, 72
1, 360960, Note_on_c, 9, 49, 67
1, 360960, Note_on_c, 9, 35, 107
1, 360972, Note_on_c, 9, 42, 0
1, 360972, Note_on_c, 9, 49, 0
1, 361200, Note_on_c, 9, 51, 52
1, 361200, Note_on_c, 9, 42, 41
1, 361212, Note_on_c, 9, 51, 0
1, 361212, Note_on_c, 9, 42, 0
1, 361439, Note_on_c, 9, 35, 0
1, 361440, Note_on_c, 9, 38, 100
1, 361440, Note_on_c, 9, 42, 65
1, 361452, Note_on_c, 9, 42, 0
1, 361679, Note_on_c, 9, 38, 0
1, 361680, Note_on_c, 9, 46, 58
1, 361680, Note_on_c, 9, 55, 63
1, 361680, Note_on_c, 9, 35, 107
1, 361692, Note_on_c, 9, 46, 0
1, 361692, Note_on_c, 9, 55, 0
1, 361919, Note_on_c, 9, 35, 0
1, 361920, Note_on_c, 9, 42, 40
1, 361932, Note_on_c, 9, 42, 0
1, 362160, Note_on_c, 9, 53, 56
1, 362160, Note_on_c, 9, 42, 43
1, 362172, Note_on_c, 9, 42, 0
1, 362399, Note_on_c, 9, 53, 0
1, 362400, Note_on_c, 9, 38, 100
1, 362400, Note_on_c, 9, 42, 62
1, 362412, Note_on_c, 9, 42, 0
1, 362639, Note_on_c, 9, 38, 0
1, 362640, Note_on_c, 9, 42, 45
1, 362652, Note_on_c, 9, 42, 0
1, 362880, Note_on_c, 9, 42, 66
1, 362880, Note_on_c, 9, 57, 61
1, 362880, Note_on_c, 9, 35, 107
1, 362892, Note_on_c, 9, 42, 0
1, 362892, Note_on_c, 9, 57, 0
1, 363120, Note_on_c, 9, 51, 60
1, 363120, Note_on_c, 9, 42, 38
1, 363132, Note_on_c, 9, 51, 0
1, 363132, Note_on_c, 9, 42, 0
1, 363359, Note_on_c, 9, 35, 0
1, 363360, Note_on_c, 9, 38, 100
1, 363360, Note_on_c, 9, 42, 55
1, 363372, Note_on_c, 9, 42, 0
1, 363599, Note_on_c, 9, 38, 0
1, 363600, Note_on_c, 9, 46, 52
1, 363600, Note_on_c, 9, 52, 92
1, 363600, Note_on_c, 9, 35, 104
1, 363612, Note_on_c, 9, 46, 0
1, 363612, Note_on_c, 9, 52, 0
1, 363839, Note_on_c, 9, 35, 0
1, 363840, Note_on_c, 9, 42, 52
1, 363852, Note_on_c, 9, 42, 0
1, 364080, Note_on_c, 9, 51, 49
1, 364080, Note_on_c, 9, 42, 44
1, 364085, Note_on_c, 9, 51, 0
1, 364085, Note_on_c, 9, 42, 0
1, 364200, Note_on_c, 9, 51, 42
1, 364205, Note_on_c, 9, 51, 0
1, 364320, Note_on_c, 9, 38, 100
1, 364320, Note_on_c, 9, 42, 62
1, 364332, Note_on_c, 9, 42, 0
1, 364559, Note_on_c, 9, 38, 0
1, 364560, Note_on_c, 9, 53, 61
1, 364560, Note_on_c, 9, 44, 73
1, 364572, Note_on_c, 9, 44, 0
1, 364799, Note_on_c, 9, 53, 0
1, 364800, Note_on_c, 9, 53, 76
1, 364800, Note_on_c, 9, 42, 72
1, 364800, Note_on_c, 9, 35, 107
1, 364812, Note_on_c, 9, 42, 0
1, 365039, Note_on_c, 9, 53, 0
1, 365040, Note_on_c, 9, 42, 37
1, 365052, Note_on_c, 9, 42, 0
1, 365279, Note_on_c, 9, 35, 0
1, 365280, Note_on_c, 9, 38, 100
1, 365280, Note_on_c, 9, 51, 59
1, 365280, Note_on_c, 9, 42, 74
1, 365292, Note_on_c, 9, 51, 0
1, 365292, Note_on_c, 9, 42, 0
1, 365519, Note_on_c, 9, 38, 0
1, 365520, Note_on_c, 9, 51, 52
1, 365520, Note_on_c, 9, 42, 41
1, 365520, Note_on_c, 9, 35, 85
1, 365532, Note_on_c, 9, 51, 0
1, 365532, Note_on_c, 9, 42, 0
1, 365759, Note_on_c, 9, 35, 0
1, 365760, Note_on_c, 9, 42, 67
1, 365760, Note_on_c, 9, 35, 107
1, 365772, Note_on_c, 9, 42, 0
1, 366000, Note_on_c, 9, 46, 54
1, 366000, Note_on_c, 9, 51, 59
1, 366012, Note_on_c, 9, 46, 0
1, 366012, Note_on_c, 9, 51, 0
1, 366239, Note_on_c, 9, 35, 0
1, 366240, Note_on_c, 9, 38, 100
1, 366240, Note_on_c, 9, 42, 65
1, 366252, Note_on_c, 9, 42, 0
1, 366479, Note_on_c, 9, 38, 0
1, 366480, Note_on_c, 9, 46, 59
1, 366480, Note_on_c, 9, 55, 63
1, 366480, Note_on_c, 9, 35, 107
1, 366492, Note_on_c, 9, 46, 0
1, 366492, Note_on_c, 9, 55, 0
1, 366719, Note_on_c, 9, 35, 0
1, 366720, Note_on_c, 9, 42, 40
1, 366732, Note_on_c, 9, 42, 0
1, 366960, Note_on_c, 9, 42, 59
1, 366972, Note_on_c, 9, 42, 0
1, 367200, Note_on_c, 9, 38, 100
1, 367200, Note_on_c, 9, 42, 62
1, 367212, Note_on_c, 9, 42, 0
1, 367439, Note_on_c, 9, 38, 0
1, 367440, Note_on_c, 9, 42, 61
1, 367440, Note_on_c, 9, 35, 72
1, 367452, Note_on_c, 9, 42, 0
1, 367679, Note_on_c, 9, 35, 0
1, 367680, Note_on_c, 9, 51, 57
1, 367680, Note_on_c, 9, 42, 74
1, 367680, Note_on_c, 9, 35, 106
1, 367685, Note_on_c, 9, 51, 0
1, 367685, Note_on_c, 9, 42, 0
1, 367800, Note_on_c, 9, 51, 53
1, 367805, Note_on_c, 9, 51, 0
1, 367920, Note_on_c, 9, 53, 65
1, 367920, Note_on_c, 9, 42, 50
1, 367932, Note_on_c, 9, 42, 0
1, 368159, Note_on_c, 9, 35, 0
1, 368159, Note_on_c, 9, 53, 0
1, 368160, Note_on_c, 9, 38, 100
1, 368160, Note_on_c, 9, 51, 59
1, 368160, Note_on_c, 9, 42, 74
1, 368165, Note_on_c, 9, 51, 0
1, 368165, Note_on_c, 9, 42, 0
1, 368279, Note_on_c, 9, 38, 0
1, 368280, Note_on_c, 9, 51, 43
1, 368285, Note_on_c, 9, 51, 0
1, 368400, Note_on_c, 9, 46, 62
1, 368400, Note_on_c, 9, 51, 50
1, 368412, Note_on_c, 9, 46, 0
1, 368412, Note_on_c, 9, 51, 0
1, 368640, Note_on_c, 9, 51, 60
1, 368640, Note_on_c, 9, 42, 74
1, 368640, Note_on_c, 9, 35, 107
1, 368652, Note_on_c, 9, 51, 0
1, 368652, Note_on_c, 9, 42, 0
1, 368880, Note_on_c, 9, 42, 44
1, 368892, Note_on_c, 9, 42, 0
1, 369119, Note_on_c, 9, 35, 0
1, 369120, Note_on_c, 9, 38, 100
1, 369120, Note_on_c, 9, 53, 64
1, 369120, Note_on_c, 9, 42, 74
1, 369132, Note_on_c, 9, 42, 0
1, 369359, Note_on_c, 9, 38, 0
1, 369359, Note_on_c, 9, 53, 0
1, 369360, Note_on_c, 9, 42, 47
1, 369360, Note_on_c, 9, 35, 102
1, 369372, Note_on_c, 9, 42, 0
1, 369599, Note_on_c, 9, 35, 0
1, 369600, Note_on_c, 9, 51, 59
1, 369600, Note_on_c, 9, 42, 74
1, 369612, Note_on_c, 9, 51, 0
1, 369612, Note_on_c, 9, 42, 0
1, 369840, Note_on_c, 9, 42, 45
1, 369840, Note_on_c, 9, 52, 86
1, 369840, Note_on_c, 9, 35, 85
1, 369852, Note_on_c, 9, 42, 0
1, 369852, Note_on_c, 9, 52, 0
1, 370079, Note_on_c, 9, 35, 0
1, 370080, Note_on_c, 9, 38, 100
1, 370080, Note_on_c, 9, 42, 74
1, 370092, Note_on_c, 9, 42, 0
1, 370319, Note_on_c, 9, 38, 0
1, 370320, Note_on_c, 9, 51, 53
1, 370320, Note_on_c, 9, 42, 44
1, 370320, Note_on_c, 9, 35, 93
1, 370332, Note_on_c, 9, 51, 0
1, 370332, Note_on_c, 9, 42, 0
1, 370559, Note_on_c, 9, 35, 0
1, 370560, Note_on_c, 9, 51, 60
1, 370560, Note_on_c, 9, 42, 65
1, 370560, Note_on_c, 9, 35, 107
1, 370572, Note_on_c, 9, 51, 0
1, 370572, Note_on_c, 9, 42, 0
1, 370800, Note_on_c, 9, 51, 60
1, 370800, Note_on_c, 9, 42, 44
1, 370805, Note_on_c, 9, 51, 0
1, 370805, Note_on_c, 9, 42, 0
1, 370920, Note_on_c, 9, 51, 36
1, 370925, Note_on_c, 9, 51, 0
1, 371039, Note_on_c, 9, 35, 0
1, 371040, Note_on_c, 9, 38, 100
1, 371040, Note_on_c, 9, 51, 57
1, 371040, Note_on_c, 9, 42, 62
1, 371052, Note_on_c, 9, 51, 0
1, 371052, Note_on_c, 9, 42, 0
1, 371279, Note_on_c, 9, 38, 0
1, 371280, Note_on_c, 9, 51, 62
1, 371280, Note_on_c, 9, 42, 47
1, 371280, Note_on_c, 9, 35, 106
1, 371292, Note_on_c, 9, 51, 0
1, 371292, Note_on_c, 9, 42, 0
1, 371519, Note_on_c, 9, 35, 0
1, 371520, Note_on_c, 9, 53, 83
1, 371520, Note_on_c, 9, 42, 44
1, 371532, Note_on_c, 9, 42, 0
1, 371759, Note_on_c, 9, 53, 0
1, 371760, Note_on_c, 9, 38, 89
1, 371760, Note_on_c, 9, 46, 51
1, 371760, Note_on_c, 9, 51, 58
1, 371772, Note_on_c, 9, 46, 0
1, 371772, Note_on_c, 9, 51, 0
1, 371999, Note_on_c, 9, 38, 0
1, 372000, Note_on_c, 9, 38, 94
1, 372000, Note_on_c, 9, 46, 56
1, 372000, Note_on_c, 9, 51, 57
1, 372012, Note_on_c, 9, 46, 0
1, 372012, Note_on_c, 9, 51, 0
1, 372239, Note_on_c, 9, 38, 0
1, 372240, Note_on_c, 9, 38, 95
1, 372240, Note_on_c, 9, 46, 62
1, 372240, Note_on_c, 9, 55, 60
1, 372252, Note_on_c, 9, 46, 0
1, 372252, Note_on_c, 9, 55, 0
1, 372479, Note_on_c, 9, 38, 0
1, 372480, Note_on_c, 9, 51, 62
1, 372480, Note_on_c, 9, 42, 67
1, 372480, Note_on_c, 9, 49, 65
1, 372480, Note_on_c, 9, 35, 107
1, 372492, Note_on_c, 9, 51, 0
1, 372492, Note_on_c, 9, 42, 0
1, 372492, Note_on_c, 9, 49, 0
1, 372720, Note_on_c, 9, 53, 79
1, 372720, Note_on_c, 9, 42, 54
1, 372732, Note_on_c, 9, 42, 0
1, 372959, Note_on_c, 9, 35, 0
1, 372959, Note_on_c, 9, 53, 0
1, 372960, Note_on_c, 9, 38, 100
1, 372960, Note_on_c, 9, 51, 62
1, 372960, Note_on_c, 9, 42, 74
1, 372972, Note_on_c, 9, 51, 0
1, 372972, Note_on_c, 9, 42, 0
1, 373199, Note_on_c, 9, 38, 0
1, 373200, Note_on_c, 9, 51, 62
1, 373200, Note_on_c, 9, 42, 47
1, 373200, Note_on_c, 9, 35, 107
1, 373212, Note_on_c, 9, 51, 0
1, 373212, Note_on_c, 9, 42, 0
1, 373439, Note_on_c, 9, 35, 0
1, 373440, Note_on_c, 9, 51, 59
1, 373440, Note_on_c, 9, 42, 74
1, 373452, Note_on_c, 9, 51, 0
1, 373452, Note_on_c, 9, 42, 0
1, 373680, Note_on_c, 9, 51, 46
1, 373680, Note_on_c, 9, 42, 41
1, 373680, Note_on_c, 9, 35, 89
1, 373685, Note_on_c, 9, 51, 0
1, 373685, Note_on_c, 9, 42, 0
1, 373800, Note_on_c, 9, 51, 53
1, 373805, Note_on_c, 9, 51, 0
1, 373919, Note_on_c, 9, 35, 0
1, 373920, Note_on_c, 9, 38, 100
1, 373920, Note_on_c, 9, 53, 71
1, 373920, Note_on_c, 9, 42, 74
1, 373932, Note_on_c, 9, 42, 0
1, 374159, Note_on_c, 9, 38, 0
1, 374159, Note_on_c, 9, 53, 0
1, 374160, Note_on_c, 9, 46, 59
1, 374160, Note_on_c, 9, 51, 60
1, 374160, Note_on_c, 9, 35, 73
1, 374172, Note_on_c, 9, 46, 0
1, 374172, Note_on_c, 9, 51, 0
1, 374399, Note_on_c, 9, 35, 0
1, 374400, Note_on_c, 9, 51, 46
1, 374400, Note_on_c, 9, 42, 61
1, 374400, Note_on_c, 9, 35, 107
1, 374412, Note_on_c, 9, 51, 0
1, 374412, Note_on_c, 9, 42, 0
1, 374640, Note_on_c, 9, 51, 42
1, 374640, Note_on_c, 9, 42, 52
1, 374652, Note_on_c, 9, 51, 0
1, 374652, Note_on_c, 9, 42, 0
1, 374879, Note_on_c, 9, 35, 0
1, 374880, Note_on_c, 9, 38, 100
1, 374880, Note_on_c, 9, 51, 54
1, 374880, Note_on_c, 9, 42, 74
1, 374892, Note_on_c, 9, 51, 0
1, 374892, Note_on_c, 9, 42, 0
1, 375119, Note_on_c, 9, 38, 0
1, 375120, Note_on_c, 9, 51, 57
1, 375120, Note_on_c, 9, 42, 61
1, 375120, Note_on_c, 9, 35, 107
1, 375132, Note_on_c, 9, 51, 0
1, 375132, Note_on_c, 9, 42, 0
1, 375359, Note_on_c, 9, 35, 0
1, 375360, Note_on_c, 9, 51, 62
1, 375360, Note_on_c, 9, 42, 74
1, 375372, Note_on_c, 9, 51, 0
1, 375372, Note_on_c, 9, 42, 0
1, 375600, Note_on_c, 9, 53, 67
1, 375600, Note_on_c, 9, 42, 48
1, 375600, Note_on_c, 9, 35, 100
1, 375605, Note_on_c, 9, 42, 0
1, 375719, Note_on_c, 9, 53, 0
1, 375720, Note_on_c, 9, 51, 53
1, 375725, Note_on_c, 9, 51, 0
1, 375839, Note_on_c, 9, 35, 0
1, 375840, Note_on_c, 9, 38, 100
1, 375840, Note_on_c, 9, 51, 57
1, 375840, Note_on_c, 9, 42, 74
1, 375852, Note_on_c, 9, 51, 0
1, 375852, Note_on_c, 9, 42, 0
1, 376079, Note_on_c, 9, 38, 0
1, 376080, Note_on_c, 9, 46, 54
1, 376080, Note_on_c, 9, 51, 44
1, 376080, Note_on_c, 9, 35, 100
1, 376092, Note_on_c, 9, 46, 0
1, 376092, Note_on_c, 9, 51, 0
1, 376319, Note_on_c, 9, 35, 0
1, 376320, Note_on_c, 9, 51, 59
1, 376320, Note_on_c, 9, 42, 74
1, 376320, Note_on_c, 9, 35, 107
1, 376332, Note_on_c, 9, 51, 0
1, 376332, Note_on_c, 9, 42, 0
1, 376560, Note_on_c, 9, 46, 44
1, 376560, Note_on_c, 9, 53, 69
1, 376572, Note_on_c, 9, 46, 0
1, 376799, Note_on_c, 9, 35, 0
1, 376799, Note_on_c, 9, 53, 0
1, 376800, Note_on_c, 9, 38, 100
1, 376800, Note_on_c, 9, 51, 46
1, 376800, Note_on_c, 9, 42, 74
1, 376812, Note_on_c, 9, 51, 0
1, 376812, Note_on_c, 9, 42, 0
1, 377039, Note_on_c, 9, 38, 0
1, 377040, Note_on_c, 9, 46, 44
1, 377040, Note_on_c, 9, 51, 59
1, 377040, Note_on_c, 9, 35, 104
1, 377052, Note_on_c, 9, 46, 0
1, 377052, Note_on_c, 9, 51, 0
1, 377279, Note_on_c, 9, 35, 0
1, 377280, Note_on_c, 9, 51, 62
1, 377280, Note_on_c, 9, 42, 74
1, 377292, Note_on_c, 9, 51, 0
1, 377292, Note_on_c, 9, 42, 0
1, 377520, Note_on_c, 9, 46, 45
1, 377520, Note_on_c, 9, 51, 58
1, 377520, Note_on_c, 9, 35, 100
1, 377525, Note_on_c, 9, 46, 0
1, 377525, Note_on_c, 9, 51, 0
1, 377640, Note_on_c, 9, 51, 51
1, 377645, Note_on_c, 9, 51, 0
1, 377759, Note_on_c, 9, 35, 0
1, 377760, Note_on_c, 9, 38, 100
1, 377760, Note_on_c, 9, 51, 57
1, 377760, Note_on_c, 9, 42, 68
1, 377772, Note_on_c, 9, 51, 0
1, 377772, Note_on_c, 9, 42, 0
1, 377999, Note_on_c, 9, 38, 0
1, 378000, Note_on_c, 9, 46, 52
1, 378000, Note_on_c, 9, 51, 59
1, 378000, Note_on_c, 9, 35, 85
1, 378012, Note_on_c, 9, 46, 0
1, 378012, Note_on_c, 9, 51, 0
1, 378239, Note_on_c, 9, 35, 0
1, 378240, Note_on_c, 9, 51, 62
1, 378240, Note_on_c, 9, 42, 74
1, 378240, Note_on_c, 9, 35, 106
1, 378252, Note_on_c, 9, 51, 0
1, 378252, Note_on_c, 9, 42, 0
1, 378480, Note_on_c, 9, 38, 72
1, 378480, Note_on_c, 9, 53, 58
1, 378480, Note_on_c, 9, 42, 49
1, 378485, Note_on_c, 9, 42, 0
1, 378599, Note_on_c, 9, 38, 0
1, 378599, Note_on_c, 9, 53, 0
1, 378600, Note_on_c, 9, 51, 40
1, 378605, Note_on_c, 9, 51, 0
1, 378719, Note_on_c, 9, 35, 0
1, 378720, Note_on_c, 9, 38, 76
1, 378720, Note_on_c, 9, 51, 33
1, 378720, Note_on_c, 9, 42, 74
1, 378732, Note_on_c, 9, 51, 0
1, 378732, Note_on_c, 9, 42, 0
1, 378959, Note_on_c, 9, 38, 0
1, 378960, Note_on_c, 9, 38, 81
1, 378960, Note_on_c, 9, 51, 53
1, 378960, Note_on_c, 9, 42, 66
1, 378972, Note_on_c, 9, 51, 0
1, 378972, Note_on_c, 9, 42, 0
1, 379199, Note_on_c, 9, 38, 0
1, 379200, Note_on_c, 9, 38, 85
1, 379200, Note_on_c, 9, 51, 54
1, 379200, Note_on_c, 9, 42, 74
1, 379212, Note_on_c, 9, 51, 0
1, 379212, Note_on_c, 9, 42, 0
1, 379439, Note_on_c, 9, 38, 0
1, 379440, Note_on_c, 9, 38, 89
1, 379440, Note_on_c, 9, 46, 58
1, 379440, Note_on_c, 9, 51, 58
1, 379452, Note_on_c, 9, 46, 0
1, 379452, Note_on_c, 9, 51, 0
1, 379679, Note_on_c, 9, 38, 0
1, 379680, Note_on_c, 9, 38, 93
1, 379680, Note_on_c, 9, 51, 60
1, 379680, Note_on_c, 9, 42, 74
1, 379692, Note_on_c, 9, 51, 0
1, 379692, Note_on_c, 9, 42, 0
1, 379919, Note_on_c, 9, 38, 0
1, 379920, Note_on_c, 9, 38, 96
1, 379920, Note_on_c, 9, 46, 62
1, 379920, Note_on_c, 9, 53, 83
1, 379932, Note_on_c, 9, 46, 0
1, 380159, Note_on_c, 9, 38, 0
1, 380159, Note_on_c, 9, 53, 0
1, 380160, Note_on_c, 9, 51, 59
1, 380160, Note_on_c, 9, 42, 70
1, 380160, Note_on_c, 9, 57, 74
1, 380160, Note_on_c, 9, 35, 107
1, 380172, Note_on_c, 9, 51, 0
1, 380172, Note_on_c, 9, 42, 0
1, 380172, Note_on_c, 9, 57, 0
1, 380400, Note_on_c, 9, 51, 36
1, 380400, Note_on_c, 9, 42, 50
1, 380405, Note_on_c, 9, 51, 0
1, 380405, Note_on_c, 9, 42, 0
1, 380520, Note_on_c, 9, 51, 44
1, 380525, Note_on_c, 9, 51, 0
1, 380639, Note_on_c, 9, 35, 0
1, 380640, Note_on_c, 9, 38, 100
1, 380640, Note_on_c, 9, 53, 80
1, 380640, Note_on_c, 9, 42, 65
1, 380640, Note_on_c, 9, 52, 92
1, 380652, Note_on_c, 9, 42, 0
1, 380652, Note_on_c, 9, 52, 0
1, 380879, Note_on_c, 9, 38, 0
1, 380879, Note_on_c, 9, 53, 0
1, 380880, Note_on_c, 9, 51, 59
1, 380880, Note_on_c, 9, 42, 44
1, 380880, Note_on_c, 9, 35, 95
1, 380892, Note_on_c, 9, 51, 0
1, 380892, Note_on_c, 9, 42, 0
1, 381119, Note_on_c, 9, 35, 0
1, 381120, Note_on_c, 9, 51, 58
1, 381120, Note_on_c, 9, 42, 68
1, 381132, Note_on_c, 9, 51, 0
1, 381132, Note_on_c, 9, 42, 0
1, 381360, Note_on_c, 9, 53, 80
1, 381360, Note_on_c, 9, 42, 38
1, 381360, Note_on_c, 9, 35, 98
1, 381372, Note_on_c, 9, 42, 0
1, 381599, Note_on_c, 9, 53, 0
1, 381599, Note_on_c, 9, 35, 0
1, 381600, Note_on_c, 9, 38, 100
1, 381600, Note_on_c, 9, 51, 62
1, 381600, Note_on_c, 9, 42, 65
1, 381612, Note_on_c, 9, 51, 0
1, 381612, Note_on_c, 9, 42, 0
1, 381839, Note_on_c, 9, 38, 0
1, 381840, Note_on_c, 9, 46, 54
1, 381840, Note_on_c, 9, 51, 59
1, 381840, Note_on_c, 9, 35, 100
1, 381852, Note_on_c, 9, 46, 0
1, 381852, Note_on_c, 9, 51, 0
1, 382079, Note_on_c, 9, 35, 0
1, 382080, Note_on_c, 9, 51, 60
1, 382080, Note_on_c, 9, 42, 65
1, 382080, Note_on_c, 9, 35, 107
1, 382092, Note_on_c, 9, 51, 0
1, 382092, Note_on_c, 9, 42, 0
1, 382320, Note_on_c, 9, 51, 59
1, 382320, Note_on_c, 9, 42, 49
1, 382325, Note_on_c, 9, 51, 0
1, 382325, Note_on_c, 9, 42, 0
1, 382440, Note_on_c, 9, 51, 60
1, 382445, Note_on_c, 9, 51, 0
1, 382559, Note_on_c, 9, 35, 0
1, 382560, Note_on_c, 9, 38, 100
1, 382560, Note_on_c, 9, 53, 88
1, 382560, Note_on_c, 9, 42, 66
1, 382572, Note_on_c, 9, 42, 0
1, 382799, Note_on_c, 9, 38, 0
1, 382799, Note_on_c, 9, 53, 0
1, 382800, Note_on_c, 9, 51, 60
1, 382800, Note_on_c, 9, 42, 47
1, 382800, Note_on_c, 9, 35, 107
1, 382812, Note_on_c, 9, 51, 0
1, 382812, Note_on_c, 9, 42, 0
1, 383039, Note_on_c, 9, 35, 0
1, 383040, Note_on_c, 9, 53, 77
1, 383040, Note_on_c, 9, 42, 74
1, 383045, Note_on_c, 9, 42, 0
1, 383159, Note_on_c, 9, 53, 0
1, 383160, Note_on_c, 9, 51, 59
1, 383165, Note_on_c, 9, 51, 0
1, 383280, Note_on_c, 9, 51, 58
1, 383280, Note_on_c, 9, 42, 45
1, 383280, Note_on_c, 9, 35, 107
1, 383292, Note_on_c, 9, 51, 0
1, 383292, Note_on_c, 9, 42, 0
1, 383519, Note_on_c, 9, 35, 0
1, 383520, Note_on_c, 9, 38, 100
1, 383520, Note_on_c, 9, 51, 59
1, 383520, Note_on_c, 9, 42, 74
1, 383532, Note_on_c, 9, 51, 0
1, 383532, Note_on_c, 9, 42, 0
1, 383759, Note_on_c, 9, 38, 0
1, 383760, Note_on_c, 9, 46, 52
1, 383760, Note_on_c, 9, 51, 59
1, 383760, Note_on_c, 9, 35, 102
1, 383765, Note_on_c, 9, 46, 0
1, 383765, Note_on_c, 9, 51, 0
1, 383880, Note_on_c, 9, 51, 42
1, 383885, Note_on_c, 9, 51, 0
1, 383999, Note_on_c, 9, 35, 0
1, 384000, Note_on_c, 9, 51, 59
1, 384000, Note_on_c, 9, 42, 74
1, 384000, Note_on_c, 9, 35, 107
1, 384012, Note_on_c, 9, 51, 0
1, 384012, Note_on_c, 9, 42, 0
1, 384240, Note_on_c, 9, 51, 59
1, 384240, Note_on_c, 9, 42, 44
1, 384252, Note_on_c, 9, 51, 0
1, 384252, Note_on_c, 9, 42, 0
1, 384479, Note_on_c, 9, 35, 0
1, 384480, Note_on_c, 9, 38, 100
1, 384480, Note_on_c, 9, 53, 76
1, 384480, Note_on_c, 9, 42, 74
1, 384480, Note_on_c, 9, 55, 59
1, 384492, Note_on_c, 9, 42, 0
1, 384492, Note_on_c, 9, 55, 0
1, 384719, Note_on_c, 9, 38, 0
1, 384719, Note_on_c, 9, 53, 0
1, 384720, Note_on_c, 9, 51, 53
1, 384720, Note_on_c, 9, 42, 46
1, 384720, Note_on_c, 9, 35, 107
1, 384732, Note_on_c, 9, 51, 0
1, 384732, Note_on_c, 9, 42, 0
1, 384959, Note_on_c, 9, 35, 0
1, 384960, Note_on_c, 9, 51, 62
1, 384960, Note_on_c, 9, 42, 74
1, 384972, Note_on_c, 9, 51, 0
1, 384972, Note_on_c, 9, 42, 0
1, 385200, Note_on_c, 9, 53, 76
1, 385200, Note_on_c, 9, 42, 49
1, 385200, Note_on_c, 9, 35, 107
1, 385212, Note_on_c, 9, 42, 0
1, 385439, Note_on_c, 9, 53, 0
1, 385439, Note_on_c, 9, 35, 0
1, 385440, Note_on_c, 9, 38, 100
1, 385440, Note_on_c, 9, 51, 57
1, 385440, Note_on_c, 9, 42, 74
1, 385452, Note_on_c, 9, 51, 0
1, 385452, Note_on_c, 9, 42, 0
1, 385679, Note_on_c, 9, 38, 0
1, 385680, Note_on_c, 9, 46, 58
1, 385680, Note_on_c, 9, 51, 62
1, 385680, Note_on_c, 9, 35, 100
1, 385692, Note_on_c, 9, 46, 0
1, 385692, Note_on_c, 9, 51, 0
1, 385919, Note_on_c, 9, 35, 0
1, 385920, Note_on_c, 9, 51, 60
1, 385920, Note_on_c, 9, 42, 74
1, 385920, Note_on_c, 9, 35, 107
1, 385932, Note_on_c, 9, 51, 0
1, 385932, Note_on_c, 9, 42, 0
1, 386160, Note_on_c, 9, 46, 54
1, 386160, Note_on_c, 9, 51, 60
1, 386165, Note_on_c, 9, 46, 0
1, 386165, Note_on_c, 9, 51, 0
1, 386280, Note_on_c, 9, 51, 36
1, 386285, Note_on_c, 9, 51, 0
1, 386399, Note_on_c, 9, 35, 0
1, 386400, Note_on_c, 9, 38, 100
1, 386400, Note_on_c, 9, 53, 81
1, 386400, Note_on_c, 9, 42, 65
1, 386412, Note_on_c, 9, 42, 0
1, 386639, Note_on_c, 9, 38, 0
1, 386639, Note_on_c, 9, 53, 0
1, 386640, Note_on_c, 9, 46, 52
1, 386640, Note_on_c, 9, 51, 59
1, 386640, Note_on_c, 9, 35, 107
1, 386652, Note_on_c, 9, 46, 0
1, 386652, Note_on_c, 9, 51, 0
1, 386879, Note_on_c, 9, 35, 0
1, 386880, Note_on_c, 9, 51, 59
1, 386880, Note_on_c, 9, 42, 65
1, 386892, Note_on_c, 9, 51, 0
1, 386892, Note_on_c, 9, 42, 0
1, 387120, Note_on_c, 9, 46, 51
1, 387120, Note_on_c, 9, 53, 73
1, 387120, Note_on_c, 9, 35, 107
1, 387132, Note_on_c, 9, 46, 0
1, 387359, Note_on_c, 9, 53, 0
1, 387359, Note_on_c, 9, 35, 0
1, 387360, Note_on_c, 9, 38, 100
1, 387360, Note_on_c, 9, 51, 59
1, 387360, Note_on_c, 9, 42, 67
1, 387372, Note_on_c, 9, 51, 0
1, 387372, Note_on_c, 9, 42, 0
1, 387599, Note_on_c, 9, 38, 0
1, 387600, Note_on_c, 9, 46, 47
1, 387600, Note_on_c, 9, 51, 57
1, 387600, Note_on_c, 9, 35, 104
1, 387612, Note_on_c, 9, 46, 0
1, 387612, Note_on_c, 9, 51, 0
1, 387839, Note_on_c, 9, 35, 0
1, 387840, Note_on_c, 9, 51, 62
1, 387840, Note_on_c, 9, 42, 74
1, 387840, Note_on_c, 9, 52, 99
1, 387840, Note_on_c, 9, 35, 107
1, 387852, Note_on_c, 9, 51, 0
1, 387852, Note_on_c, 9, 42, 0
1, 387852, Note_on_c, 9, 52, 0
1, 388080, Note_on_c, 9, 51, 62
1, 388080, Note_on_c, 9, 42, 47
1, 388085, Note_on_c, 9, 51, 0
1, 388085, Note_on_c, 9, 42, 0
1, 388200, Note_on_c, 9, 51, 53
1, 388205, Note_on_c, 9, 51, 0
1, 388319, Note_on_c, 9, 35, 0
1, 388320, Note_on_c, 9, 38, 100
1, 388320, Note_on_c, 9, 53, 84
1, 388320, Note_on_c, 9, 42, 68
1, 388332, Note_on_c, 9, 42, 0
1, 388559, Note_on_c, 9, 38, 0
1, 388559, Note_on_c, 9, 53, 0
1, 388560, Note_on_c, 9, 51, 59
1, 388560, Note_on_c, 9, 42, 44
1, 388560, Note_on_c, 9, 35, 107
1, 388565, Note_on_c, 9, 51, 0
1, 388565, Note_on_c, 9, 42, 0
1, 388680, Note_on_c, 9, 51, 54
1, 388685, Note_on_c, 9, 51, 0
1, 388799, Note_on_c, 9, 35, 0
1, 388800, Note_on_c, 9, 51, 58
1, 388800, Note_on_c, 9, 42, 74
1, 388812, Note_on_c, 9, 51, 0
1, 388812, Note_on_c, 9, 42, 0
1, 389040, Note_on_c, 9, 53, 80
1, 389040, Note_on_c, 9, 42, 45
1, 389040, Note_on_c, 9, 35, 107
1, 389052, Note_on_c, 9, 42, 0
1, 389279, Note_on_c, 9, 53, 0
1, 389279, Note_on_c, 9, 35, 0
1, 389280, Note_on_c, 9, 38, 100
1, 389280, Note_on_c, 9, 51, 59
1, 389280, Note_on_c, 9, 42, 72
1, 389292, Note_on_c, 9, 51, 0
1, 389292, Note_on_c, 9, 42, 0
1, 389519, Note_on_c, 9, 38, 0
1, 389520, Note_on_c, 9, 46, 54
1, 389520, Note_on_c, 9, 51, 59
1, 389520, Note_on_c, 9, 49, 74
1, 389520, Note_on_c, 9, 35, 106
1, 389532, Note_on_c, 9, 46, 0
1, 389532, Note_on_c, 9, 51, 0
1, 389532, Note_on_c, 9, 49, 0
1, 389759, Note_on_c, 9, 35, 0
1, 389760, Note_on_c, 9, 53, 81
1, 389760, Note_on_c, 9, 42, 65
1, 389760, Note_on_c, 9, 35, 107
1, 389765, Note_on_c, 9, 42, 0
1, 389879, Note_on_c, 9, 53, 0
1, 389880, Note_on_c, 9, 51, 59
1, 389885, Note_on_c, 9, 51, 0
1, 390000, Note_on_c, 9, 46, 34
1, 390000, Note_on_c, 9, 51, 59
1, 390012, Note_on_c, 9, 46, 0
1, 390012, Note_on_c, 9, 51, 0
1, 390239, Note_on_c, 9, 35, 0
1, 390240, Note_on_c, 9, 38, 100
1, 390240, Note_on_c, 9, 51, 62
1, 390240, Note_on_c, 9, 42, 72
1, 390252, Note_on_c, 9, 51, 0
1, 390252, Note_on_c, 9, 42, 0
1, 390479, Note_on_c, 9, 38, 0
1, 390480, Note_on_c, 9, 51, 60
1, 390480, Note_on_c, 9, 42, 50
1, 390480, Note_on_c, 9, 35, 107
1, 390485, Note_on_c, 9, 51, 0
1, 390485, Note_on_c, 9, 42, 0
1, 390600, Note_on_c, 9, 51, 51
1, 390605, Note_on_c, 9, 51, 0
1, 390719, Note_on_c, 9, 35, 0
1, 390720, Note_on_c, 9, 46, 52
1, 390720, Note_on_c, 9, 51, 62
1, 390725, Note_on_c, 9, 46, 0
1, 390725, Note_on_c, 9, 51, 0
1, 390840, Note_on_c, 9, 42, 66
1, 390845, Note_on_c, 9, 42, 0
1, 390960, Note_on_c, 9, 53, 80
1, 390960, Note_on_c, 9, 42, 62
1, 390960, Note_on_c, 9, 35, 107
1, 390972, Note_on_c, 9, 42, 0
1, 391199, Note_on_c, 9, 53, 0
1, 391199, Note_on_c, 9, 35, 0
1, 391200, Note_on_c, 9, 38, 100
1, 391200, Note_on_c, 9, 51, 57
1, 391200, Note_on_c, 9, 42, 66
1, 391212, Note_on_c, 9, 51, 0
1, 391212, Note_on_c, 9, 42, 0
1, 391439, Note_on_c, 9, 38, 0
1, 391440, Note_on_c, 9, 51, 59
1, 391440, Note_on_c, 9, 42, 50
1, 391440, Note_on_c, 9, 35, 98
1, 391452, Note_on_c, 9, 51, 0
1, 391452, Note_on_c, 9, 42, 0
1, 391679, Note_on_c, 9, 35, 0
1, 391680, Note_on_c, 9, 51, 62
1, 391680, Note_on_c, 9, 42, 74
1, 391680, Note_on_c, 9, 55, 67
1, 391680, Note_on_c, 9, 35, 107
1, 391692, Note_on_c, 9, 51, 0
1, 391692, Note_on_c, 9, 42, 0
1, 391692, Note_on_c, 9, 55, 0
1, 391920, Note_on_c, 9, 53, 83
1, 391920, Note_on_c, 9, 42, 68
1, 391925, Note_on_c, 9, 42, 0
1, 392039, Note_on_c, 9, 53, 0
1, 392040, Note_on_c, 9, 51, 44
1, 392045, Note_on_c, 9, 51, 0
1, 392159, Note_on_c, 9, 35, 0
1, 392160, Note_on_c, 9, 38, 100
1, 392160, Note_on_c, 9, 46, 62
1, 392160, Note_on_c, 9, 51, 47
1, 392172, Note_on_c, 9, 46, 0
1, 392172, Note_on_c, 9, 51, 0
1, 392399, Note_on_c, 9, 38, 0
1, 392400, Note_on_c, 9, 51, 62
1, 392400, Note_on_c, 9, 42, 72
1, 392400, Note_on_c, 9, 35, 100
1, 392412, Note_on_c, 9, 51, 0
1, 392412, Note_on_c, 9, 42, 0
1, 392639, Note_on_c, 9, 35, 0
1, 392640, Note_on_c, 9, 51, 62
1, 392640, Note_on_c, 9, 42, 68
1, 392652, Note_on_c, 9, 51, 0
1, 392652, Note_on_c, 9, 42, 0
1, 392880, Note_on_c, 9, 46, 62
1, 392880, Note_on_c, 9, 53, 81
1, 392880, Note_on_c, 9, 35, 107
1, 392892, Note_on_c, 9, 46, 0
1, 393119, Note_on_c, 9, 53, 0
1, 393119, Note_on_c, 9, 35, 0
1, 393120, Note_on_c, 9, 38, 100
1, 393120, Note_on_c, 9, 51, 60
1, 393120, Note_on_c, 9, 42, 68
1, 393132, Note_on_c, 9, 51, 0
1, 393132, Note_on_c, 9, 42, 0
1, 393359, Note_on_c, 9, 38, 0
1, 393360, Note_on_c, 9, 51, 57
1, 393360, Note_on_c, 9, 42, 72
1, 393360, Note_on_c, 9, 35, 95
1, 393372, Note_on_c, 9, 51, 0
1, 393372, Note_on_c, 9, 42, 0
1, 393599, Note_on_c, 9, 35, 0
1, 393600, Note_on_c, 9, 51, 59
1, 393600, Note_on_c, 9, 42, 74
1, 393600, Note_on_c, 9, 35, 107
1, 393609, Note_on_c, 9, 51, 0
1, 393609, Note_on_c, 9, 42, 0
1, 393800, Note_on_c, 9, 48, 65
1, 393839, Note_on_c, 9, 48, 0
1, 393840, Note_on_c, 9, 46, 62
1, 393840, Note_on_c, 9, 48, 88
1, 393840, Note_on_c, 9, 53, 79
1, 393845, Note_on_c, 9, 46, 0
1, 393959, Note_on_c, 9, 48, 0
1, 393959, Note_on_c, 9, 53, 0
1, 393960, Note_on_c, 9, 51, 62
1, 393965, Note_on_c, 9, 51, 0
1, 394079, Note_on_c, 9, 35, 0
1, 394080, Note_on_c, 9, 38, 100
1, 394080, Note_on_c, 9, 48, 93
1, 394080, Note_on_c, 9, 51, 53
1, 394080, Note_on_c, 9, 42, 58
1, 394080, Note_on_c, 9, 35, 107
1, 394092, Note_on_c, 9, 51, 0
1, 394092, Note_on_c, 9, 42, 0
1, 394319, Note_on_c, 9, 38, 0
1, 394319, Note_on_c, 9, 48, 0
1, 394320, Note_on_c, 9, 48, 87
1, 394320, Note_on_c, 9, 51, 60
1, 394320, Note_on_c, 9, 42, 67
1, 394329, Note_on_c, 9, 51, 0
1, 394329, Note_on_c, 9, 42, 0
1, 394499, Note_on_c, 9, 48, 0
1, 394520, Note_on_c, 9, 45, 71
1, 394559, Note_on_c, 9, 35, 0
1, 394559, Note_on_c, 9, 45, 0
1, 394560, Note_on_c, 9, 45, 93
1, 394560, Note_on_c, 9, 53, 76
1, 394560, Note_on_c, 9, 42, 74
1, 394560, Note_on_c, 9, 35, 107
1, 394565, Note_on_c, 9, 42, 0
1, 394679, Note_on_c, 9, 45, 0
1, 394679, Note_on_c, 9, 53, 0
1, 394680, Note_on_c, 9, 45, 85
1, 394680, Note_on_c, 9, 51, 62
1, 394685, Note_on_c, 9, 51, 0
1, 394799, Note_on_c, 9, 45, 0
1, 394800, Note_on_c, 9, 45, 95
1, 394800, Note_on_c, 9, 51, 47
1, 394800, Note_on_c, 9, 42, 66
1, 394805, Note_on_c, 9, 51, 0
1, 394805, Note_on_c, 9, 42, 0
1, 394919, Note_on_c, 9, 45, 0
1, 394920, Note_on_c, 9, 42, 50
1, 394923, Note_on_c, 9, 42, 0
1, 395000, Note_on_c, 9, 41, 75
1, 395039, Note_on_c, 9, 35, 0
1, 395039, Note_on_c, 9, 41, 0
1, 395040, Note_on_c, 9, 41, 99
1, 395040, Note_on_c, 9, 51, 62
1, 395040, Note_on_c, 9, 42, 59
1, 395040, Note_on_c, 9, 35, 107
1, 395052, Note_on_c, 9, 51, 0
1, 395052, Note_on_c, 9, 42, 0
1, 395279, Note_on_c, 9, 41, 0
1, 395279, Note_on_c, 9, 35, 0
1, 395280, Note_on_c, 9, 41, 93
1, 395280, Note_on_c, 9, 51, 60
1, 395280, Note_on_c, 9, 52, 91
1, 395280, Note_on_c, 9, 44, 82
1, 395285, Note_on_c, 9, 51, 0
1, 395285, Note_on_c, 9, 52, 0
1, 395292, Note_on_c, 9, 44, 0
1, 395399, Note_on_c, 9, 41, 0
1, 395400, Note_on_c, 9, 51, 62
1, 395405, Note_on_c, 9, 51, 0
1, 395520, Note_on_c, 9, 51, 53
1, 395520, Note_on_c, 9, 42, 66
1, 395520, Note_on_c, 9, 57, 66
1, 395520, Note_on_c, 9, 35, 107
1, 395532, Note_on_c, 9, 51, 0
1, 395532, Note_on_c, 9, 42, 0
1, 395532, Note_on_c, 9, 57, 0
1, 395760, Note_on_c, 9, 46, 61
1, 395760, Note_on_c, 9, 51, 57
1, 395765, Note_on_c, 9, 46, 0
1, 395765, Note_on_c, 9, 51, 0
1, 395880, Note_on_c, 9, 51, 62
1, 395885, Note_on_c, 9, 51, 0
1, 395999, Note_on_c, 9, 35, 0
1, 396000, Note_on_c, 9, 38, 100
1, 396000, Note_on_c, 9, 53, 80
1, 396000, Note_on_c, 9, 42, 74
1, 396000, Note_on_c, 9, 55, 75
1, 396012, Note_on_c, 9, 42, 0
1, 396012, Note_on_c, 9, 55, 0
1, 396239, Note_on_c, 9, 38, 0
1, 396239, Note_on_c, 9, 53, 0
1, 396240, Note_on_c, 9, 51, 62
1, 396240, Note_on_c, 9, 42, 56
1, 396240, Note_on_c, 9, 35, 107
1, 396252, Note_on_c, 9, 51, 0
1, 396252, Note_on_c, 9, 42, 0
1, 396479, Note_on_c, 9, 35, 0
1, 396480, Note_on_c, 9, 51, 63
1, 396480, Note_on_c, 9, 42, 74
1, 396492, Note_on_c, 9, 51, 0
1, 396492, Note_on_c, 9, 42, 0
1, 396720, Note_on_c, 9, 53, 83
1, 396720, Note_on_c, 9, 42, 50
1, 396720, Note_on_c, 9, 35, 95
1, 396732, Note_on_c, 9, 42, 0
1, 396959, Note_on_c, 9, 53, 0
1, 396959, Note_on_c, 9, 35, 0
1, 396960, Note_on_c, 9, 38, 100
1, 396960, Note_on_c, 9, 51, 62
1, 396960, Note_on_c, 9, 42, 74
1, 396972, Note_on_c, 9, 51, 0
1, 396972, Note_on_c, 9, 42, 0
1, 397199, Note_on_c, 9, 38, 0
1, 397200, Note_on_c, 9, 51, 60
1, 397200, Note_on_c, 9, 42, 46
1, 397200, Note_on_c, 9, 35, 102
1, 397212, Note_on_c, 9, 51, 0
1, 397212, Note_on_c, 9, 42, 0
1, 397439, Note_on_c, 9, 35, 0
1, 397440, Note_on_c, 9, 51, 59
1, 397440, Note_on_c, 9, 42, 70
1, 397440, Note_on_c, 9, 35, 107
1, 397452, Note_on_c, 9, 51, 0
1, 397452, Note_on_c, 9, 42, 0
1, 397680, Note_on_c, 9, 46, 43
1, 397680, Note_on_c, 9, 51, 59
1, 397685, Note_on_c, 9, 46, 0
1, 397685, Note_on_c, 9, 51, 0
1, 397800, Note_on_c, 9, 51, 60
1, 397805, Note_on_c, 9, 51, 0
1, 397919, Note_on_c, 9, 35, 0
1, 397920, Note_on_c, 9, 38, 100
1, 397920, Note_on_c, 9, 53, 85
1, 397920, Note_on_c, 9, 42, 72
1, 397932, Note_on_c, 9, 42, 0
1, 398159, Note_on_c, 9, 38, 0
1, 398159, Note_on_c, 9, 53, 0
1, 398160, Note_on_c, 9, 46, 52
1, 398160, Note_on_c, 9, 51, 62
1, 398160, Note_on_c, 9, 35, 107
1, 398172, Note_on_c, 9, 46, 0
1, 398172, Note_on_c, 9, 51, 0
1, 398399, Note_on_c, 9, 35, 0
1, 398400, Note_on_c, 9, 53, 78
1, 398400, Note_on_c, 9, 42, 66
1, 398405, Note_on_c, 9, 42, 0
1, 398519, Note_on_c, 9, 53, 0
1, 398520, Note_on_c, 9, 51, 60
1, 398525, Note_on_c, 9, 51, 0
1, 398640, Note_on_c, 9, 46, 54
1, 398640, Note_on_c, 9, 51, 59
1, 398640, Note_on_c, 9, 35, 100
1, 398652, Note_on_c, 9, 46, 0
1, 398652, Note_on_c, 9, 51, 0
1, 398879, Note_on_c, 9, 35, 0
1, 398880, Note_on_c, 9, 38, 100
1, 398880, Note_on_c, 9, 51, 59
1, 398880, Note_on_c, 9, 42, 67
1, 398892, Note_on_c, 9, 51, 0
1, 398892, Note_on_c, 9, 42, 0
1, 399119, Note_on_c, 9, 38, 0
1, 399120, Note_on_c, 9, 46, 54
1, 399120, Note_on_c, 9, 51, 59
1, 399120, Note_on_c, 9, 35, 107
1, 399132, Note_on_c, 9, 46, 0
1, 399132, Note_on_c, 9, 51, 0
1, 399359, Note_on_c, 9, 35, 0
1, 399360, Note_on_c, 9, 51, 60
1, 399360, Note_on_c, 9, 42, 74
1, 399360, Note_on_c, 9, 35, 107
1, 399372, Note_on_c, 9, 51, 0
1, 399372, Note_on_c, 9, 42, 0
1, 399600, Note_on_c, 9, 53, 77
1, 399600, Note_on_c, 9, 42, 46
1, 399612, Note_on_c, 9, 42, 0
1, 399839, Note_on_c, 9, 35, 0
1, 399839, Note_on_c, 9, 53, 0
1, 399840, Note_on_c, 9, 38, 100
1, 399840, Note_on_c, 9, 51, 62
1, 399840, Note_on_c, 9, 42, 74
1, 399852, Note_on_c, 9, 51, 0
1, 399852, Note_on_c, 9, 42, 0
1, 400079, Note_on_c, 9, 38, 0
1, 400080, Note_on_c, 9, 51, 60
1, 400080, Note_on_c, 9, 42, 48
1, 400080, Note_on_c, 9, 35, 102
1, 400092, Note_on_c, 9, 51, 0
1, 400092, Note_on_c, 9, 42, 0
1, 400319, Note_on_c, 9, 35, 0
1, 400320, Note_on_c, 9, 51, 60
1, 400320, Note_on_c, 9, 42, 74
1, 400332, Note_on_c, 9, 51, 0
1, 400332, Note_on_c, 9, 42, 0
1, 400560, Note_on_c, 9, 46, 52
1, 400560, Note_on_c, 9, 53, 76
1, 400572, Note_on_c, 9, 46, 0
1, 400799, Note_on_c, 9, 53, 0
1, 400800, Note_on_c, 9, 38, 100
1, 400800, Note_on_c, 9, 51, 60
1, 400800, Note_on_c, 9, 42, 72
1, 400812, Note_on_c, 9, 51, 0
1, 400812, Note_on_c, 9, 42, 0
1, 401039, Note_on_c, 9, 38, 0
1, 401040, Note_on_c, 9, 51, 60
1, 401040, Note_on_c, 9, 42, 48
1, 401040, Note_on_c, 9, 35, 91
1, 401052, Note_on_c, 9, 51, 0
1, 401052, Note_on_c, 9, 42, 0
1, 401279, Note_on_c, 9, 35, 0
1, 401280, Note_on_c, 9, 51, 62
1, 401280, Note_on_c, 9, 42, 66
1, 401280, Note_on_c, 9, 35, 107
1, 401292, Note_on_c, 9, 51, 0
1, 401292, Note_on_c, 9, 42, 0
1, 401520, Note_on_c, 9, 41, 68
1, 401520, Note_on_c, 9, 51, 57
1, 401520, Note_on_c, 9, 42, 52
1, 401525, Note_on_c, 9, 51, 0
1, 401525, Note_on_c, 9, 42, 0
1, 401639, Note_on_c, 9, 41, 0
1, 401640, Note_on_c, 9, 51, 39
1, 401645, Note_on_c, 9, 51, 0
1, 401759, Note_on_c, 9, 35, 0
1, 401760, Note_on_c, 9, 41, 76
1, 401760, Note_on_c, 9, 38, 100
1, 401760, Note_on_c, 9, 53, 76
1, 401760, Note_on_c, 9, 42, 65
1, 401772, Note_on_c, 9, 42, 0
1, 401999, Note_on_c, 9, 41, 0
1, 401999, Note_on_c, 9, 38, 0
1, 401999, Note_on_c, 9, 53, 0
1, 402000, Note_on_c, 9, 41, 80
1, 402000, Note_on_c, 9, 51, 62
1, 402000, Note_on_c, 9, 42, 61
1, 402000, Note_on_c, 9, 35, 107
1, 402012, Note_on_c, 9, 51, 0
1, 402012, Note_on_c, 9, 42, 0
1, 402239, Note_on_c, 9, 41, 0
1, 402239, Note_on_c, 9, 35, 0
1, 402240, Note_on_c, 9, 41, 85
1, 402240, Note_on_c, 9, 53, 76
1, 402240, Note_on_c, 9, 42, 67
1, 402243, Tempo, 422535
1, 402245, Note_on_c, 9, 42, 0
1, 402359, Note_on_c, 9, 41, 0
1, 402359, Note_on_c, 9, 53, 0
1, 402360, Note_on_c, 9, 51, 46
1, 402365, Note_on_c, 9, 51, 0
1, 402480, Note_on_c, 9, 41, 93
1, 402480, Note_on_c, 9, 51, 59
1, 402480, Note_on_c, 9, 44, 46
1, 402480, Note_on_c, 9, 35, 106
1, 402492, Note_on_c, 9, 51, 0
1, 402492, Note_on_c, 9, 44, 0
1, 402719, Note_on_c, 9, 41, 0
1, 402719, Note_on_c, 9, 35, 0
1, 402720, Note_on_c, 9, 41, 96
1, 402720, Note_on_c, 9, 38, 100
1, 402720, Note_on_c, 9, 51, 62
1, 402720, Note_on_c, 9, 44, 51
1, 402732, Note_on_c, 9, 51, 0
1, 402732, Note_on_c, 9, 44, 0
1, 402959, Note_on_c, 9, 41, 0
1, 402959, Note_on_c, 9, 38, 0
1, 402960, Note_on_c, 9, 41, 99
1, 402960, Note_on_c, 9, 51, 62
1, 402960, Note_on_c, 9, 44, 75
1, 402960, Note_on_c, 9, 35, 102
1, 402972, Note_on_c, 9, 51, 0
1, 402972, Note_on_c, 9, 44, 0
1, 403199, Note_on_c, 9, 41, 0
1, 403199, Note_on_c, 9, 35, 0
1, 403200, Note_on_c, 9, 42, 74
1, 403200, Note_on_c, 9, 49, 70
1, 403200, Note_on_c, 9, 35, 107
1, 403203, Tempo, 425532
1, 403212, Note_on_c, 9, 42, 0
1, 403212, Note_on_c, 9, 49, 0
1, 403440, Note_on_c, 9, 46, 45
1, 403440, Note_on_c, 9, 51, 62
1, 403452, Note_on_c, 9, 46, 0
1, 403452, Note_on_c, 9, 51, 0
1, 403679, Note_on_c, 9, 35, 0
1, 403680, Note_on_c, 9, 38, 100
1, 403680, Note_on_c, 9, 53, 76
1, 403680, Note_on_c, 9, 42, 62
1, 403692, Note_on_c, 9, 42, 0
1, 403919, Note_on_c, 9, 38, 0
1, 403919, Note_on_c, 9, 53, 0
1, 403920, Note_on_c, 9, 51, 60
1, 403920, Note_on_c, 9, 42, 50
1, 403920, Note_on_c, 9, 35, 107
1, 403932, Note_on_c, 9, 51, 0
1, 403932, Note_on_c, 9, 42, 0
1, 404159, Note_on_c, 9, 35, 0
1, 404160, Note_on_c, 9, 51, 59
1, 404160, Note_on_c, 9, 42, 72
1, 404163, Tempo, 428571
1, 404172, Note_on_c, 9, 51, 0
1, 404172, Note_on_c, 9, 42, 0
1, 404400, Note_on_c, 9, 46, 52
1, 404400, Note_on_c, 9, 53, 83
1, 404400, Note_on_c, 9, 35, 102
1, 404412, Note_on_c, 9, 46, 0
1, 404639, Note_on_c, 9, 53, 0
1, 404639, Note_on_c, 9, 35, 0
1, 404640, Note_on_c, 9, 38, 100
1, 404640, Note_on_c, 9, 51, 57
1, 404640, Note_on_c, 9, 42, 72
1, 404643, Tempo, 431655
1, 404652, Note_on_c, 9, 51, 0
1, 404652, Note_on_c, 9, 42, 0
1, 404879, Note_on_c, 9, 38, 0
1, 404880, Note_on_c, 9, 46, 52
1, 404880, Note_on_c, 9, 51, 62
1, 404880, Note_on_c, 9, 57, 74
1, 404880, Note_on_c, 9, 35, 107
1, 404892, Note_on_c, 9, 46, 0
1, 404892, Note_on_c, 9, 51, 0
1, 404892, Note_on_c, 9, 57, 0
1, 405119, Note_on_c, 9, 35, 0
1, 405120, Note_on_c, 9, 42, 72
1, 405123, Tempo, 434783
1, 405132, Note_on_c, 9, 42, 0
1, 405360, Note_on_c, 9, 51, 58
1, 405360, Note_on_c, 9, 42, 46
1, 405360, Note_on_c, 9, 35, 107
1, 405372, Note_on_c, 9, 51, 0
1, 405372, Note_on_c, 9, 42, 0
1, 405599, Note_on_c, 9, 35, 0
1, 405600, Note_on_c, 9, 38, 100
1, 405600, Note_on_c, 9, 42, 68
1, 405603, Tempo, 437956
1, 405612, Note_on_c, 9, 42, 0
1, 405839, Note_on_c, 9, 38, 0
1, 405840, Note_on_c, 9, 51, 62
1, 405840, Note_on_c, 9, 42, 50
1, 405840, Note_on_c, 9, 35, 107
1, 405851, Note_on_c, 9, 51, 0
1, 405851, Note_on_c, 9, 42, 0
1, 406079, Note_on_c, 9, 35, 0
1, 406080, Note_on_c, 9, 51, 60
1, 406080, Note_on_c, 9, 42, 74
1, 406083, Tempo, 441176
1, 406091, Note_on_c, 9, 51, 0
1, 406091, Note_on_c, 9, 42, 0
1, 406320, Note_on_c, 9, 46, 56
1, 406320, Note_on_c, 9, 35, 104
1, 406331, Note_on_c, 9, 46, 0
1, 406559, Note_on_c, 9, 35, 0
1, 406560, Note_on_c, 9, 38, 100
1, 406560, Note_on_c, 9, 51, 59
1, 406560, Note_on_c, 9, 42, 74
1, 406563, Tempo, 444444
1, 406571, Note_on_c, 9, 51, 0
1, 406571, Note_on_c, 9, 42, 0
1, 406799, Note_on_c, 9, 38, 0
1, 406800, Note_on_c, 9, 46, 51
1, 406800, Note_on_c, 9, 35, 81
1, 406811, Note_on_c, 9, 46, 0
1, 407039, Note_on_c, 9, 35, 0
1, 407040, Note_on_c, 9, 53, 78
1, 407040, Note_on_c, 9, 49, 74
1, 407040, Note_on_c, 9, 44, 82
1, 407040, Note_on_c, 9, 35, 107
1, 407043, Tempo, 447761
1, 407064, Note_on_c, 9, 49, 0
1, 407064, Note_on_c, 9, 44, 0
1, 407519, Note_on_c, 9, 53, 0
1, 407519, Note_on_c, 9, 35, 0
1, 407520, Note_on_c, 9, 44, 73
1, 407523, Tempo, 454545
1, 407531, Note_on_c, 9, 44, 0
1, 407760, Note_on_c, 9, 51, 62
1, 407760, Note_on_c, 9, 52, 99
1, 407760, Note_on_c, 9, 35, 107
1, 407771, Note_on_c, 9, 51, 0
1, 407771, Note_on_c, 9, 52, 0
1, 407999, Note_on_c, 9, 35, 0
1, 408000, Note_on_c, 9, 44, 51
1, 408000, Note_on_c, 9, 35, 107
1, 408003, Tempo, 461538
1, 408023, Note_on_c, 9, 44, 0
1, 408440, Note_on_c, 9, 38, 64
1, 408479, Note_on_c, 9, 35, 0
1, 408479, Note_on_c, 9, 38, 0
1, 408480, Note_on_c, 9, 38, 102
1, 408480, Note_on_c, 9, 44, 49
1, 408483, Tempo, 472441
1, 408503, Note_on_c, 9, 44, 0
1, 408719, Note_on_c, 9, 38, 0
1, 408720, Note_on_c, 9, 41, 96
1, 408959, Note_on_c, 9, 41, 0
1, 408960, Note_on_c, 9, 51, 59
1, 408960, Note_on_c, 9, 55, 66
1, 408960, Note_on_c, 9, 44, 64
1, 408960, Note_on_c, 9, 35, 107
1, 408963, Tempo, 483871
1, 408983, Note_on_c, 9, 51, 0
1, 408983, Note_on_c, 9, 55, 0
1, 408983, Note_on_c, 9, 44, 0
1, 409439, Note_on_c, 9, 35, 0
1, 409440, Note_on_c, 9, 44, 51
1, 409450, Note_on_c, 9, 44, 0
1, 409680, Note_on_c, 9, 53, 71
1, 409680, Note_on_c, 9, 57, 65
1, 409680, Note_on_c, 9, 35, 104
1, 409690, Note_on_c, 9, 57, 0
1, 409919, Note_on_c, 9, 53, 0
1, 409919, Note_on_c, 9, 35, 0
1, 409920, Note_on_c, 9, 44, 46
1, 409920, Note_on_c, 9, 35, 107
1, 409942, Note_on_c, 9, 44, 0
1, 410160, Note_on_c, 9, 46, 44
1, 410170, Note_on_c, 9, 46, 0
1, 410399, Note_on_c, 9, 35, 0
1, 410400, Note_on_c, 9, 44, 62
1, 410410, Note_on_c, 9, 44, 0
1, 410640, Note_on_c, 9, 46, 43
1, 410640, Note_on_c, 9, 49, 74
1, 410640, Note_on_c, 9, 35, 107
1, 410650, Note_on_c, 9, 46, 0
1, 410650, Note_on_c, 9, 49, 0
1, 410879, Note_on_c, 9, 35, 0
1, 413763, Tempo, 419580
1, 413764, End_track
0, 0, End_of_file
