0, 0, Header, 1, 1, 480
1, 0, Start_track
1, 0, Title_t, "Drumset"
1, 0, Time_signature, 4, 2, 24, 8
1, 0, Key_signature, 0, "major"
1, 0, Tempo, 500000
1, 0, Control_c, 9, 121, 0
1, 0, Program_c, 9, 0
1, 0, Control_c, 9, 7, 100
1, 0, Control_c, 9, 10, 64
1, 0, Control_c, 9, 91, 0
1, 0, Control_c, 9, 93, 0
1, 0, MIDI_port, 1
1, 0, Note_on_c, 9, 82, 84
1, 0, Note_on_c, 9, 42, 80
1, 0, Note_on_c, 9, 36, 112
1, 10, Note_on_c, 9, 42, 0
1, 239, Note_on_c, 9, 82, 0
1, 240, Note_on_c, 9, 82, 84
1, 240, Note_on_c, 9, 42, 80
1, 244, Note_on_c, 9, 42, 0
1, 359, Note_on_c, 9, 82, 0
1, 360, Note_on_c, 9, 82, 84
1, 360, Note_on_c, 9, 42, 80
1, 364, Note_on_c, 9, 42, 0
1, 479, Note_on_c, 9, 36, 0
1, 479, Note_on_c, 9, 82, 0
1, 480, Note_on_c, 9, 40, 80
1, 480, Note_on_c, 9, 28, 100
1, 480, Note_on_c, 9, 82, 84
1, 480, Note_on_c, 9, 42, 80
1, 490, Note_on_c, 9, 42, 0
1, 719, Note_on_c, 9, 40, 0
1, 719, Note_on_c, 9, 28, 0
1, 719, Note_on_c, 9, 82, 0
1, 720, Note_on_c, 9, 82, 84
1, 720, Note_on_c, 9, 42, 80
1, 720, Note_on_c, 9, 36, 112
1, 730, Note_on_c, 9, 42, 0
1, 959, Note_on_c, 9, 82, 0
1, 959, Note_on_c, 9, 36, 0
1, 960, Note_on_c, 9, 82, 84
1, 960, Note_on_c, 9, 42, 80
1, 970, Note_on_c, 9, 42, 0
1, 1199, Note_on_c, 9, 82, 0
1, 1200, Note_on_c, 9, 82, 84
1, 1200, Note_on_c, 9, 42, 80
1, 1210, Note_on_c, 9, 42, 0
1, 1439, Note_on_c, 9, 82, 0
1, 1440, Note_on_c, 9, 40, 80
1, 1440, Note_on_c, 9, 28, 100
1, 1440, Note_on_c, 9, 82, 84
1, 1440, Note_on_c, 9, 42, 80
1, 1450, Note_on_c, 9, 42, 0
1, 1679, Note_on_c, 9, 40, 0
1, 1679, Note_on_c, 9, 28, 0
1, 1679, Note_on_c, 9, 82, 0
1, 1680, Note_on_c, 9, 82, 84
1, 1680, Note_on_c, 9, 42, 80
1, 1690, Note_on_c, 9, 42, 0
1, 1919, Note_on_c, 9, 82, 0
1, 1920, Note_on_c, 9, 82, 84
1, 1920, Note_on_c, 9, 42, 80
1, 1920, Note_on_c, 9, 36, 112
1, 1930, Note_on_c, 9, 42, 0
1, 2159, Note_on_c, 9, 82, 0
1, 2160, Note_on_c, 9, 82, 84
1, 2160, Note_on_c, 9, 42, 80
1, 2164, Note_on_c, 9, 42, 0
1, 2279, Note_on_c, 9, 82, 0
1, 2280, Note_on_c, 9, 82, 84
1, 2280, Note_on_c, 9, 42, 80
1, 2284, Note_on_c, 9, 42, 0
1, 2399, Note_on_c, 9, 36, 0
1, 2399, Note_on_c, 9, 82, 0
1, 2400, Note_on_c, 9, 40, 80
1, 2400, Note_on_c, 9, 28, 100
1, 2400, Note_on_c, 9, 82, 84
1, 2400, Note_on_c, 9, 42, 80
1, 2410, Note_on_c, 9, 42, 0
1, 2639, Note_on_c, 9, 40, 0
1, 2639, Note_on_c, 9, 28, 0
1, 2639, Note_on_c, 9, 82, 0
1, 2640, Note_on_c, 9, 82, 84
1, 2640, Note_on_c, 9, 42, 80
1, 2640, Note_on_c, 9, 36, 112
1, 2650, Note_on_c, 9, 42, 0
1, 2879, Note_on_c, 9, 82, 0
1, 2879, Note_on_c, 9, 36, 0
1, 2880, Note_on_c, 9, 82, 84
1, 2880, Note_on_c, 9, 42, 80
1, 2890, Note_on_c, 9, 42, 0
1, 3119, Note_on_c, 9, 82, 0
1, 3120, Note_on_c, 9, 82, 84
1, 3120, Note_on_c, 9, 42, 80
1, 3130, Note_on_c, 9, 42, 0
1, 3359, Note_on_c, 9, 82, 0
1, 3360, Note_on_c, 9, 40, 80
1, 3360, Note_on_c, 9, 28, 100
1, 3360, Note_on_c, 9, 82, 84
1, 3360, Note_on_c, 9, 42, 80
1, 3370, Note_on_c, 9, 42, 0
1, 3599, Note_on_c, 9, 40, 0
1, 3599, Note_on_c, 9, 28, 0
1, 3599, Note_on_c, 9, 82, 0
1, 3600, Note_on_c, 9, 82, 84
1, 3600, Note_on_c, 9, 42, 80
1, 3610, Note_on_c, 9, 42, 0
1, 3839, Note_on_c, 9, 82, 0
1, 3840, Note_on_c, 9, 82, 84
1, 3840, Note_on_c, 9, 42, 80
1, 3840, Note_on_c, 9, 36, 112
1, 3850, Note_on_c, 9, 42, 0
1, 4079, Note_on_c, 9, 82, 0
1, 4080, Note_on_c, 9, 82, 84
1, 4080, Note_on_c, 9, 42, 80
1, 4084, Note_on_c, 9, 42, 0
1, 4199, Note_on_c, 9, 82, 0
1, 4200, Note_on_c, 9, 82, 84
1, 4200, Note_on_c, 9, 42, 80
1, 4204, Note_on_c, 9, 42, 0
1, 4319, Note_on_c, 9, 36, 0
1, 4319, Note_on_c, 9, 82, 0
1, 4320, Note_on_c, 9, 40, 80
1, 4320, Note_on_c, 9, 28, 100
1, 4320, Note_on_c, 9, 82, 84
1, 4320, Note_on_c, 9, 42, 80
1, 4330, Note_on_c, 9, 42, 0
1, 4559, Note_on_c, 9, 40, 0
1, 4559, Note_on_c, 9, 28, 0
1, 4559, Note_on_c, 9, 82, 0
1, 4560, Note_on_c, 9, 82, 84
1, 4560, Note_on_c, 9, 42, 80
1, 4560, Note_on_c, 9, 36, 112
1, 4570, Note_on_c, 9, 42, 0
1, 4799, Note_on_c, 9, 82, 0
1, 4799, Note_on_c, 9, 36, 0
1, 4800, Note_on_c, 9, 82, 84
1, 4800, Note_on_c, 9, 42, 80
1, 4810, Note_on_c, 9, 42, 0
1, 5039, Note_on_c, 9, 82, 0
1, 5040, Note_on_c, 9, 82, 84
1, 5040, Note_on_c, 9, 42, 80
1, 5050, Note_on_c, 9, 42, 0
1, 5279, Note_on_c, 9, 82, 0
1, 5280, Note_on_c, 9, 40, 80
1, 5280, Note_on_c, 9, 28, 100
1, 5280, Note_on_c, 9, 82, 84
1, 5280, Note_on_c, 9, 42, 80
1, 5290, Note_on_c, 9, 42, 0
1, 5519, Note_on_c, 9, 40, 0
1, 5519, Note_on_c, 9, 28, 0
1, 5519, Note_on_c, 9, 82, 0
1, 5520, Note_on_c, 9, 82, 84
1, 5520, Note_on_c, 9, 42, 80
1, 5530, Note_on_c, 9, 42, 0
1, 5759, Note_on_c, 9, 82, 0
1, 5760, Note_on_c, 9, 82, 84
1, 5760, Note_on_c, 9, 42, 80
1, 5770, Note_on_c, 9, 42, 0
1, 5999, Note_on_c, 9, 82, 0
1, 6000, Note_on_c, 9, 82, 84
1, 6000, Note_on_c, 9, 42, 80
1, 6000, Note_on_c, 9, 36, 112
1, 6004, Note_on_c, 9, 42, 0
1, 6119, Note_on_c, 9, 82, 0
1, 6120, Note_on_c, 9, 42, 80
1, 6124, Note_on_c, 9, 42, 0
1, 6239, Note_on_c, 9, 36, 0
1, 6240, Note_on_c, 9, 40, 80
1, 6240, Note_on_c, 9, 28, 100
1, 6240, Note_on_c, 9, 82, 84
1, 6240, Note_on_c, 9, 42, 80
1, 6250, Note_on_c, 9, 42, 0
1, 6479, Note_on_c, 9, 40, 0
1, 6479, Note_on_c, 9, 28, 0
1, 6479, Note_on_c, 9, 82, 0
1, 6480, Note_on_c, 9, 82, 84
1, 6480, Note_on_c, 9, 42, 80
1, 6480, Note_on_c, 9, 36, 112
1, 6490, Note_on_c, 9, 42, 0
1, 6719, Note_on_c, 9, 82, 0
1, 6719, Note_on_c, 9, 36, 0
1, 6720, Note_on_c, 9, 82, 84
1, 6720, Note_on_c, 9, 42, 80
1, 6730, Note_on_c, 9, 42, 0
1, 6959, Note_on_c, 9, 82, 0
1, 6960, Note_on_c, 9, 82, 84
1, 6960, Note_on_c, 9, 42, 80
1, 6970, Note_on_c, 9, 42, 0
1, 7199, Note_on_c, 9, 82, 0
1, 7200, Note_on_c, 9, 40, 80
1, 7200, Note_on_c, 9, 28, 100
1, 7200, Note_on_c, 9, 82, 84
1, 7200, Note_on_c, 9, 42, 80
1, 7200, Note_on_c, 9, 36, 112
1, 7210, Note_on_c, 9, 42, 0
1, 7439, Note_on_c, 9, 40, 0
1, 7439, Note_on_c, 9, 28, 0
1, 7439, Note_on_c, 9, 82, 0
1, 7440, Note_on_c, 9, 82, 84
1, 7440, Note_on_c, 9, 42, 80
1, 7444, Note_on_c, 9, 42, 0
1, 7559, Note_on_c, 9, 82, 0
1, 7560, Note_on_c, 9, 40, 80
1, 7560, Note_on_c, 9, 28, 100
1, 7679, Note_on_c, 9, 36, 0
1, 7679, Note_on_c, 9, 40, 0
1, 7679, Note_on_c, 9, 28, 0
1, 7680, Note_on_c, 9, 82, 84
1, 7680, Note_on_c, 9, 42, 80
1, 7680, Note_on_c, 9, 36, 112
1, 7690, Note_on_c, 9, 42, 0
1, 7919, Note_on_c, 9, 82, 0
1, 7920, Note_on_c, 9, 82, 84
1, 7920, Note_on_c, 9, 42, 80
1, 7924, Note_on_c, 9, 42, 0
1, 8039, Note_on_c, 9, 82, 0
1, 8040, Note_on_c, 9, 82, 84
1, 8040, Note_on_c, 9, 42, 80
1, 8044, Note_on_c, 9, 42, 0
1, 8159, Note_on_c, 9, 36, 0
1, 8159, Note_on_c, 9, 82, 0
1, 8160, Note_on_c, 9, 40, 80
1, 8160, Note_on_c, 9, 28, 100
1, 8160, Note_on_c, 9, 82, 84
1, 8160, Note_on_c, 9, 42, 80
1, 8170, Note_on_c, 9, 42, 0
1, 8399, Note_on_c, 9, 40, 0
1, 8399, Note_on_c, 9, 28, 0
1, 8399, Note_on_c, 9, 82, 0
1, 8400, Note_on_c, 9, 82, 84
1, 8400, Note_on_c, 9, 42, 80
1, 8400, Note_on_c, 9, 36, 112
1, 8410, Note_on_c, 9, 42, 0
1, 8639, Note_on_c, 9, 82, 0
1, 8639, Note_on_c, 9, 36, 0
1, 8640, Note_on_c, 9, 82, 84
1, 8640, Note_on_c, 9, 42, 80
1, 8650, Note_on_c, 9, 42, 0
1, 8879, Note_on_c, 9, 82, 0
1, 8880, Note_on_c, 9, 82, 84
1, 8880, Note_on_c, 9, 42, 80
1, 8890, Note_on_c, 9, 42, 0
1, 9119, Note_on_c, 9, 82, 0
1, 9120, Note_on_c, 9, 40, 80
1, 9120, Note_on_c, 9, 28, 100
1, 9120, Note_on_c, 9, 82, 84
1, 9120, Note_on_c, 9, 42, 80
1, 9130, Note_on_c, 9, 42, 0
1, 9359, Note_on_c, 9, 40, 0
1, 9359, Note_on_c, 9, 28, 0
1, 9359, Note_on_c, 9, 82, 0
1, 9360, Note_on_c, 9, 82, 84
1, 9360, Note_on_c, 9, 42, 80
1, 9370, Note_on_c, 9, 42, 0
1, 9599, Note_on_c, 9, 82, 0
1, 9600, Note_on_c, 9, 82, 84
1, 9600, Note_on_c, 9, 42, 80
1, 9600, Note_on_c, 9, 36, 112
1, 9610, Note_on_c, 9, 42, 0
1, 9839, Note_on_c, 9, 82, 0
1, 9840, Note_on_c, 9, 82, 84
1, 9840, Note_on_c, 9, 42, 80
1, 9844, Note_on_c, 9, 42, 0
1, 9959, Note_on_c, 9, 82, 0
1, 9960, Note_on_c, 9, 82, 84
1, 9960, Note_on_c, 9, 42, 80
1, 9964, Note_on_c, 9, 42, 0
1, 10079, Note_on_c, 9, 36, 0
1, 10079, Note_on_c, 9, 82, 0
1, 10080, Note_on_c, 9, 40, 80
1, 10080, Note_on_c, 9, 28, 100
1, 10080, Note_on_c, 9, 82, 84
1, 10080, Note_on_c, 9, 42, 80
1, 10090, Note_on_c, 9, 42, 0
1, 10319, Note_on_c, 9, 40, 0
1, 10319, Note_on_c, 9, 28, 0
1, 10319, Note_on_c, 9, 82, 0
1, 10320, Note_on_c, 9, 82, 84
1, 10320, Note_on_c, 9, 42, 80
1, 10320, Note_on_c, 9, 36, 112
1, 10330, Note_on_c, 9, 42, 0
1, 10559, Note_on_c, 9, 82, 0
1, 10559, Note_on_c, 9, 36, 0
1, 10560, Note_on_c, 9, 82, 84
1, 10560, Note_on_c, 9, 42, 80
1, 10570, Note_on_c, 9, 42, 0
1, 10799, Note_on_c, 9, 82, 0
1, 10800, Note_on_c, 9, 82, 84
1, 10800, Note_on_c, 9, 42, 80
1, 10810, Note_on_c, 9, 42, 0
1, 11039, Note_on_c, 9, 82, 0
1, 11040, Note_on_c, 9, 40, 80
1, 11040, Note_on_c, 9, 28, 100
1, 11040, Note_on_c, 9, 82, 84
1, 11040, Note_on_c, 9, 42, 80
1, 11050, Note_on_c, 9, 42, 0
1, 11279, Note_on_c, 9, 40, 0
1, 11279, Note_on_c, 9, 28, 0
1, 11279, Note_on_c, 9, 82, 0
1, 11280, Note_on_c, 9, 82, 84
1, 11280, Note_on_c, 9, 42, 80
1, 11290, Note_on_c, 9, 42, 0
1, 11519, Note_on_c, 9, 82, 0
1, 11520, Note_on_c, 9, 82, 84
1, 11520, Note_on_c, 9, 42, 80
1, 11520, Note_on_c, 9, 36, 112
1, 11530, Note_on_c, 9, 42, 0
1, 11759, Note_on_c, 9, 82, 0
1, 11760, Note_on_c, 9, 82, 84
1, 11760, Note_on_c, 9, 42, 80
1, 11764, Note_on_c, 9, 42, 0
1, 11879, Note_on_c, 9, 82, 0
1, 11880, Note_on_c, 9, 82, 84
1, 11880, Note_on_c, 9, 42, 80
1, 11884, Note_on_c, 9, 42, 0
1, 11999, Note_on_c, 9, 36, 0
1, 11999, Note_on_c, 9, 82, 0
1, 12000, Note_on_c, 9, 40, 80
1, 12000, Note_on_c, 9, 28, 100
1, 12000, Note_on_c, 9, 82, 84
1, 12000, Note_on_c, 9, 42, 80
1, 12010, Note_on_c, 9, 42, 0
1, 12239, Note_on_c, 9, 40, 0
1, 12239, Note_on_c, 9, 28, 0
1, 12239, Note_on_c, 9, 82, 0
1, 12240, Note_on_c, 9, 82, 84
1, 12240, Note_on_c, 9, 42, 80
1, 12240, Note_on_c, 9, 36, 112
1, 12250, Note_on_c, 9, 42, 0
1, 12479, Note_on_c, 9, 82, 0
1, 12479, Note_on_c, 9, 36, 0
1, 12480, Note_on_c, 9, 82, 84
1, 12480, Note_on_c, 9, 42, 80
1, 12490, Note_on_c, 9, 42, 0
1, 12719, Note_on_c, 9, 82, 0
1, 12720, Note_on_c, 9, 82, 84
1, 12720, Note_on_c, 9, 42, 80
1, 12730, Note_on_c, 9, 42, 0
1, 12959, Note_on_c, 9, 82, 0
1, 12960, Note_on_c, 9, 40, 80
1, 12960, Note_on_c, 9, 28, 100
1, 12960, Note_on_c, 9, 82, 84
1, 12960, Note_on_c, 9, 42, 80
1, 12970, Note_on_c, 9, 42, 0
1, 13199, Note_on_c, 9, 40, 0
1, 13199, Note_on_c, 9, 28, 0
1, 13199, Note_on_c, 9, 82, 0
1, 13200, Note_on_c, 9, 82, 84
1, 13200, Note_on_c, 9, 42, 80
1, 13210, Note_on_c, 9, 42, 0
1, 13439, Note_on_c, 9, 82, 0
1, 13440, Note_on_c, 9, 82, 84
1, 13440, Note_on_c, 9, 42, 80
1, 13450, Note_on_c, 9, 42, 0
1, 13679, Note_on_c, 9, 82, 0
1, 13680, Note_on_c, 9, 82, 84
1, 13680, Note_on_c, 9, 42, 80
1, 13680, Note_on_c, 9, 36, 112
1, 13684, Note_on_c, 9, 42, 0
1, 13799, Note_on_c, 9, 82, 0
1, 13800, Note_on_c, 9, 42, 80
1, 13804, Note_on_c, 9, 42, 0
1, 13919, Note_on_c, 9, 36, 0
1, 13920, Note_on_c, 9, 40, 80
1, 13920, Note_on_c, 9, 28, 100
1, 13920, Note_on_c, 9, 82, 84
1, 13920, Note_on_c, 9, 42, 80
1, 13930, Note_on_c, 9, 42, 0
1, 14159, Note_on_c, 9, 40, 0
1, 14159, Note_on_c, 9, 28, 0
1, 14159, Note_on_c, 9, 82, 0
1, 14160, Note_on_c, 9, 82, 84
1, 14160, Note_on_c, 9, 42, 80
1, 14160, Note_on_c, 9, 36, 112
1, 14170, Note_on_c, 9, 42, 0
1, 14399, Note_on_c, 9, 82, 0
1, 14399, Note_on_c, 9, 36, 0
1, 14880, Note_on_c, 9, 29, 36
1, 15359, Note_on_c, 9, 29, 0
1, 15360, Note_on_c, 9, 82, 84
1, 15360, Note_on_c, 9, 42, 80
1, 15360, Note_on_c, 9, 57, 43
1, 15360, Note_on_c, 9, 36, 112
1, 15370, Note_on_c, 9, 42, 0
1, 15370, Note_on_c, 9, 57, 0
1, 15599, Note_on_c, 9, 82, 0
1, 15600, Note_on_c, 9, 82, 84
1, 15600, Note_on_c, 9, 42, 80
1, 15604, Note_on_c, 9, 42, 0
1, 15719, Note_on_c, 9, 82, 0
1, 15720, Note_on_c, 9, 82, 84
1, 15720, Note_on_c, 9, 42, 80
1, 15724, Note_on_c, 9, 42, 0
1, 15839, Note_on_c, 9, 36, 0
1, 15839, Note_on_c, 9, 82, 0
1, 15840, Note_on_c, 9, 40, 80
1, 15840, Note_on_c, 9, 28, 100
1, 15840, Note_on_c, 9, 82, 84
1, 15840, Note_on_c, 9, 42, 80
1, 15840, Note_on_c, 9, 57, 43
1, 15850, Note_on_c, 9, 42, 0
1, 15850, Note_on_c, 9, 57, 0
1, 16079, Note_on_c, 9, 40, 0
1, 16079, Note_on_c, 9, 28, 0
1, 16079, Note_on_c, 9, 82, 0
1, 16080, Note_on_c, 9, 82, 84
1, 16080, Note_on_c, 9, 42, 80
1, 16080, Note_on_c, 9, 36, 112
1, 16090, Note_on_c, 9, 42, 0
1, 16319, Note_on_c, 9, 82, 0
1, 16319, Note_on_c, 9, 36, 0
1, 16320, Note_on_c, 9, 82, 84
1, 16320, Note_on_c, 9, 42, 80
1, 16320, Note_on_c, 9, 57, 43
1, 16330, Note_on_c, 9, 42, 0
1, 16330, Note_on_c, 9, 57, 0
1, 16559, Note_on_c, 9, 82, 0
1, 16560, Note_on_c, 9, 82, 84
1, 16560, Note_on_c, 9, 42, 80
1, 16570, Note_on_c, 9, 42, 0
1, 16799, Note_on_c, 9, 82, 0
1, 16800, Note_on_c, 9, 40, 80
1, 16800, Note_on_c, 9, 28, 100
1, 16800, Note_on_c, 9, 82, 84
1, 16800, Note_on_c, 9, 42, 80
1, 16800, Note_on_c, 9, 57, 43
1, 16810, Note_on_c, 9, 42, 0
1, 16810, Note_on_c, 9, 57, 0
1, 17039, Note_on_c, 9, 40, 0
1, 17039, Note_on_c, 9, 28, 0
1, 17039, Note_on_c, 9, 82, 0
1, 17040, Note_on_c, 9, 82, 84
1, 17040, Note_on_c, 9, 42, 80
1, 17050, Note_on_c, 9, 42, 0
1, 17279, Note_on_c, 9, 82, 0
1, 17280, Note_on_c, 9, 82, 84
1, 17280, Note_on_c, 9, 42, 80
1, 17280, Note_on_c, 9, 57, 43
1, 17280, Note_on_c, 9, 36, 112
1, 17290, Note_on_c, 9, 42, 0
1, 17290, Note_on_c, 9, 57, 0
1, 17519, Note_on_c, 9, 82, 0
1, 17520, Note_on_c, 9, 82, 84
1, 17520, Note_on_c, 9, 42, 80
1, 17524, Note_on_c, 9, 42, 0
1, 17639, Note_on_c, 9, 82, 0
1, 17640, Note_on_c, 9, 82, 84
1, 17640, Note_on_c, 9, 42, 80
1, 17644, Note_on_c, 9, 42, 0
1, 17759, Note_on_c, 9, 36, 0
1, 17759, Note_on_c, 9, 82, 0
1, 17760, Note_on_c, 9, 40, 80
1, 17760, Note_on_c, 9, 28, 100
1, 17760, Note_on_c, 9, 82, 84
1, 17760, Note_on_c, 9, 42, 80
1, 17760, Note_on_c, 9, 57, 43
1, 17770, Note_on_c, 9, 42, 0
1, 17770, Note_on_c, 9, 57, 0
1, 17999, Note_on_c, 9, 40, 0
1, 17999, Note_on_c, 9, 28, 0
1, 17999, Note_on_c, 9, 82, 0
1, 18000, Note_on_c, 9, 82, 84
1, 18000, Note_on_c, 9, 42, 80
1, 18000, Note_on_c, 9, 36, 112
1, 18010, Note_on_c, 9, 42, 0
1, 18239, Note_on_c, 9, 82, 0
1, 18239, Note_on_c, 9, 36, 0
1, 18240, Note_on_c, 9, 82, 84
1, 18240, Note_on_c, 9, 42, 80
1, 18240, Note_on_c, 9, 57, 43
1, 18250, Note_on_c, 9, 42, 0
1, 18250, Note_on_c, 9, 57, 0
1, 18479, Note_on_c, 9, 82, 0
1, 18480, Note_on_c, 9, 82, 84
1, 18480, Note_on_c, 9, 42, 80
1, 18490, Note_on_c, 9, 42, 0
1, 18719, Note_on_c, 9, 82, 0
1, 18720, Note_on_c, 9, 40, 80
1, 18720, Note_on_c, 9, 28, 100
1, 18720, Note_on_c, 9, 82, 84
1, 18720, Note_on_c, 9, 42, 80
1, 18720, Note_on_c, 9, 57, 43
1, 18730, Note_on_c, 9, 42, 0
1, 18730, Note_on_c, 9, 57, 0
1, 18959, Note_on_c, 9, 40, 0
1, 18959, Note_on_c, 9, 28, 0
1, 18959, Note_on_c, 9, 82, 0
1, 18960, Note_on_c, 9, 82, 84
1, 18960, Note_on_c, 9, 42, 80
1, 18970, Note_on_c, 9, 42, 0
1, 19199, Note_on_c, 9, 82, 0
1, 19200, Note_on_c, 9, 82, 84
1, 19200, Note_on_c, 9, 42, 80
1, 19200, Note_on_c, 9, 57, 43
1, 19200, Note_on_c, 9, 36, 112
1, 19210, Note_on_c, 9, 42, 0
1, 19210, Note_on_c, 9, 57, 0
1, 19439, Note_on_c, 9, 82, 0
1, 19440, Note_on_c, 9, 82, 84
1, 19440, Note_on_c, 9, 42, 80
1, 19444, Note_on_c, 9, 42, 0
1, 19559, Note_on_c, 9, 82, 0
1, 19560, Note_on_c, 9, 82, 84
1, 19560, Note_on_c, 9, 42, 80
1, 19564, Note_on_c, 9, 42, 0
1, 19679, Note_on_c, 9, 36, 0
1, 19679, Note_on_c, 9, 82, 0
1, 19680, Note_on_c, 9, 40, 80
1, 19680, Note_on_c, 9, 28, 100
1, 19680, Note_on_c, 9, 82, 84
1, 19680, Note_on_c, 9, 42, 80
1, 19680, Note_on_c, 9, 57, 43
1, 19690, Note_on_c, 9, 42, 0
1, 19690, Note_on_c, 9, 57, 0
1, 19919, Note_on_c, 9, 40, 0
1, 19919, Note_on_c, 9, 28, 0
1, 19919, Note_on_c, 9, 82, 0
1, 19920, Note_on_c, 9, 82, 84
1, 19920, Note_on_c, 9, 42, 80
1, 19920, Note_on_c, 9, 36, 112
1, 19930, Note_on_c, 9, 42, 0
1, 20159, Note_on_c, 9, 82, 0
1, 20159, Note_on_c, 9, 36, 0
1, 20160, Note_on_c, 9, 82, 84
1, 20160, Note_on_c, 9, 42, 80
1, 20160, Note_on_c, 9, 57, 43
1, 20170, Note_on_c, 9, 42, 0
1, 20170, Note_on_c, 9, 57, 0
1, 20399, Note_on_c, 9, 82, 0
1, 20400, Note_on_c, 9, 82, 84
1, 20400, Note_on_c, 9, 42, 80
1, 20410, Note_on_c, 9, 42, 0
1, 20639, Note_on_c, 9, 82, 0
1, 20640, Note_on_c, 9, 40, 80
1, 20640, Note_on_c, 9, 28, 100
1, 20640, Note_on_c, 9, 82, 84
1, 20640, Note_on_c, 9, 42, 80
1, 20640, Note_on_c, 9, 57, 43
1, 20650, Note_on_c, 9, 42, 0
1, 20650, Note_on_c, 9, 57, 0
1, 20879, Note_on_c, 9, 40, 0
1, 20879, Note_on_c, 9, 28, 0
1, 20879, Note_on_c, 9, 82, 0
1, 20880, Note_on_c, 9, 82, 84
1, 20880, Note_on_c, 9, 42, 80
1, 20890, Note_on_c, 9, 42, 0
1, 21119, Note_on_c, 9, 82, 0
1, 21120, Note_on_c, 9, 82, 84
1, 21120, Note_on_c, 9, 42, 80
1, 21120, Note_on_c, 9, 57, 43
1, 21130, Note_on_c, 9, 42, 0
1, 21130, Note_on_c, 9, 57, 0
1, 21359, Note_on_c, 9, 82, 0
1, 21360, Note_on_c, 9, 82, 84
1, 21360, Note_on_c, 9, 42, 80
1, 21360, Note_on_c, 9, 36, 112
1, 21364, Note_on_c, 9, 42, 0
1, 21479, Note_on_c, 9, 82, 0
1, 21479, Note_on_c, 9, 36, 0
1, 21480, Note_on_c, 9, 42, 80
1, 21480, Note_on_c, 9, 36, 112
1, 21484, Note_on_c, 9, 42, 0
1, 21599, Note_on_c, 9, 36, 0
1, 21600, Note_on_c, 9, 40, 80
1, 21600, Note_on_c, 9, 28, 100
1, 21600, Note_on_c, 9, 82, 84
1, 21600, Note_on_c, 9, 42, 80
1, 21600, Note_on_c, 9, 57, 43
1, 21610, Note_on_c, 9, 42, 0
1, 21610, Note_on_c, 9, 57, 0
1, 21839, Note_on_c, 9, 40, 0
1, 21839, Note_on_c, 9, 28, 0
1, 21839, Note_on_c, 9, 82, 0
1, 21840, Note_on_c, 9, 82, 84
1, 21840, Note_on_c, 9, 42, 80
1, 21840, Note_on_c, 9, 36, 112
1, 21850, Note_on_c, 9, 42, 0
1, 22079, Note_on_c, 9, 82, 0
1, 22079, Note_on_c, 9, 36, 0
1, 22080, Note_on_c, 9, 82, 84
1, 22080, Note_on_c, 9, 42, 80
1, 22080, Note_on_c, 9, 57, 43
1, 22090, Note_on_c, 9, 42, 0
1, 22090, Note_on_c, 9, 57, 0
1, 22319, Note_on_c, 9, 82, 0
1, 22320, Note_on_c, 9, 82, 84
1, 22320, Note_on_c, 9, 42, 80
1, 22330, Note_on_c, 9, 42, 0
1, 22559, Note_on_c, 9, 82, 0
1, 22560, Note_on_c, 9, 40, 80
1, 22560, Note_on_c, 9, 28, 100
1, 22560, Note_on_c, 9, 82, 84
1, 22560, Note_on_c, 9, 42, 80
1, 22560, Note_on_c, 9, 57, 43
1, 22560, Note_on_c, 9, 36, 112
1, 22570, Note_on_c, 9, 42, 0
1, 22570, Note_on_c, 9, 57, 0
1, 22799, Note_on_c, 9, 40, 0
1, 22799, Note_on_c, 9, 28, 0
1, 22799, Note_on_c, 9, 82, 0
1, 22800, Note_on_c, 9, 82, 84
1, 22800, Note_on_c, 9, 42, 80
1, 22804, Note_on_c, 9, 42, 0
1, 22919, Note_on_c, 9, 82, 0
1, 22920, Note_on_c, 9, 40, 80
1, 22920, Note_on_c, 9, 28, 100
1, 23039, Note_on_c, 9, 36, 0
1, 23039, Note_on_c, 9, 40, 0
1, 23039, Note_on_c, 9, 28, 0
1, 23040, Note_on_c, 9, 82, 84
1, 23040, Note_on_c, 9, 42, 80
1, 23040, Note_on_c, 9, 57, 43
1, 23040, Note_on_c, 9, 36, 112
1, 23050, Note_on_c, 9, 42, 0
1, 23050, Note_on_c, 9, 57, 0
1, 23279, Note_on_c, 9, 82, 0
1, 23280, Note_on_c, 9, 82, 84
1, 23280, Note_on_c, 9, 42, 80
1, 23284, Note_on_c, 9, 42, 0
1, 23399, Note_on_c, 9, 82, 0
1, 23400, Note_on_c, 9, 82, 84
1, 23400, Note_on_c, 9, 42, 80
1, 23404, Note_on_c, 9, 42, 0
1, 23519, Note_on_c, 9, 36, 0
1, 23519, Note_on_c, 9, 82, 0
1, 23520, Note_on_c, 9, 40, 80
1, 23520, Note_on_c, 9, 28, 100
1, 23520, Note_on_c, 9, 82, 84
1, 23520, Note_on_c, 9, 42, 80
1, 23520, Note_on_c, 9, 57, 43
1, 23530, Note_on_c, 9, 42, 0
1, 23530, Note_on_c, 9, 57, 0
1, 23759, Note_on_c, 9, 40, 0
1, 23759, Note_on_c, 9, 28, 0
1, 23759, Note_on_c, 9, 82, 0
1, 23760, Note_on_c, 9, 82, 84
1, 23760, Note_on_c, 9, 42, 80
1, 23760, Note_on_c, 9, 36, 112
1, 23770, Note_on_c, 9, 42, 0
1, 23999, Note_on_c, 9, 82, 0
1, 23999, Note_on_c, 9, 36, 0
1, 24000, Note_on_c, 9, 82, 84
1, 24000, Note_on_c, 9, 42, 80
1, 24000, Note_on_c, 9, 57, 43
1, 24010, Note_on_c, 9, 42, 0
1, 24010, Note_on_c, 9, 57, 0
1, 24239, Note_on_c, 9, 82, 0
1, 24240, Note_on_c, 9, 82, 84
1, 24240, Note_on_c, 9, 42, 80
1, 24250, Note_on_c, 9, 42, 0
1, 24479, Note_on_c, 9, 82, 0
1, 24480, Note_on_c, 9, 40, 80
1, 24480, Note_on_c, 9, 28, 100
1, 24480, Note_on_c, 9, 82, 84
1, 24480, Note_on_c, 9, 42, 80
1, 24480, Note_on_c, 9, 57, 43
1, 24490, Note_on_c, 9, 42, 0
1, 24490, Note_on_c, 9, 57, 0
1, 24719, Note_on_c, 9, 40, 0
1, 24719, Note_on_c, 9, 28, 0
1, 24719, Note_on_c, 9, 82, 0
1, 24720, Note_on_c, 9, 82, 84
1, 24720, Note_on_c, 9, 42, 80
1, 24730, Note_on_c, 9, 42, 0
1, 24959, Note_on_c, 9, 82, 0
1, 24960, Note_on_c, 9, 82, 84
1, 24960, Note_on_c, 9, 42, 80
1, 24960, Note_on_c, 9, 57, 43
1, 24960, Note_on_c, 9, 36, 112
1, 24970, Note_on_c, 9, 42, 0
1, 24970, Note_on_c, 9, 57, 0
1, 25199, Note_on_c, 9, 82, 0
1, 25200, Note_on_c, 9, 82, 84
1, 25200, Note_on_c, 9, 42, 80
1, 25204, Note_on_c, 9, 42, 0
1, 25319, Note_on_c, 9, 82, 0
1, 25320, Note_on_c, 9, 82, 84
1, 25320, Note_on_c, 9, 42, 80
1, 25324, Note_on_c, 9, 42, 0
1, 25439, Note_on_c, 9, 36, 0
1, 25439, Note_on_c, 9, 82, 0
1, 25440, Note_on_c, 9, 40, 80
1, 25440, Note_on_c, 9, 28, 100
1, 25440, Note_on_c, 9, 82, 84
1, 25440, Note_on_c, 9, 42, 80
1, 25440, Note_on_c, 9, 57, 43
1, 25450, Note_on_c, 9, 42, 0
1, 25450, Note_on_c, 9, 57, 0
1, 25679, Note_on_c, 9, 40, 0
1, 25679, Note_on_c, 9, 28, 0
1, 25679, Note_on_c, 9, 82, 0
1, 25680, Note_on_c, 9, 82, 84
1, 25680, Note_on_c, 9, 42, 80
1, 25680, Note_on_c, 9, 36, 112
1, 25690, Note_on_c, 9, 42, 0
1, 25919, Note_on_c, 9, 82, 0
1, 25919, Note_on_c, 9, 36, 0
1, 25920, Note_on_c, 9, 82, 84
1, 25920, Note_on_c, 9, 42, 80
1, 25920, Note_on_c, 9, 57, 43
1, 25930, Note_on_c, 9, 42, 0
1, 25930, Note_on_c, 9, 57, 0
1, 26159, Note_on_c, 9, 82, 0
1, 26160, Note_on_c, 9, 82, 84
1, 26160, Note_on_c, 9, 42, 80
1, 26170, Note_on_c, 9, 42, 0
1, 26399, Note_on_c, 9, 82, 0
1, 26400, Note_on_c, 9, 40, 80
1, 26400, Note_on_c, 9, 28, 100
1, 26400, Note_on_c, 9, 82, 84
1, 26400, Note_on_c, 9, 42, 80
1, 26400, Note_on_c, 9, 57, 43
1, 26410, Note_on_c, 9, 42, 0
1, 26410, Note_on_c, 9, 57, 0
1, 26639, Note_on_c, 9, 40, 0
1, 26639, Note_on_c, 9, 28, 0
1, 26639, Note_on_c, 9, 82, 0
1, 26640, Note_on_c, 9, 82, 84
1, 26640, Note_on_c, 9, 42, 80
1, 26650, Note_on_c, 9, 42, 0
1, 26879, Note_on_c, 9, 82, 0
1, 26880, Note_on_c, 9, 82, 84
1, 26880, Note_on_c, 9, 42, 80
1, 26880, Note_on_c, 9, 57, 43
1, 26880, Note_on_c, 9, 36, 112
1, 26890, Note_on_c, 9, 42, 0
1, 26890, Note_on_c, 9, 57, 0
1, 27119, Note_on_c, 9, 82, 0
1, 27120, Note_on_c, 9, 82, 84
1, 27120, Note_on_c, 9, 42, 80
1, 27124, Note_on_c, 9, 42, 0
1, 27239, Note_on_c, 9, 82, 0
1, 27240, Note_on_c, 9, 82, 84
1, 27240, Note_on_c, 9, 42, 80
1, 27244, Note_on_c, 9, 42, 0
1, 27359, Note_on_c, 9, 36, 0
1, 27359, Note_on_c, 9, 82, 0
1, 27360, Note_on_c, 9, 40, 80
1, 27360, Note_on_c, 9, 28, 100
1, 27360, Note_on_c, 9, 82, 84
1, 27360, Note_on_c, 9, 42, 80
1, 27360, Note_on_c, 9, 57, 43
1, 27370, Note_on_c, 9, 42, 0
1, 27370, Note_on_c, 9, 57, 0
1, 27599, Note_on_c, 9, 40, 0
1, 27599, Note_on_c, 9, 28, 0
1, 27599, Note_on_c, 9, 82, 0
1, 27600, Note_on_c, 9, 82, 84
1, 27600, Note_on_c, 9, 42, 80
1, 27600, Note_on_c, 9, 36, 112
1, 27610, Note_on_c, 9, 42, 0
1, 27839, Note_on_c, 9, 82, 0
1, 27839, Note_on_c, 9, 36, 0
1, 27840, Note_on_c, 9, 82, 84
1, 27840, Note_on_c, 9, 42, 80
1, 27840, Note_on_c, 9, 57, 43
1, 27850, Note_on_c, 9, 42, 0
1, 27850, Note_on_c, 9, 57, 0
1, 28079, Note_on_c, 9, 82, 0
1, 28080, Note_on_c, 9, 82, 84
1, 28080, Note_on_c, 9, 42, 80
1, 28090, Note_on_c, 9, 42, 0
1, 28319, Note_on_c, 9, 82, 0
1, 28320, Note_on_c, 9, 40, 80
1, 28320, Note_on_c, 9, 28, 100
1, 28320, Note_on_c, 9, 82, 84
1, 28320, Note_on_c, 9, 42, 80
1, 28320, Note_on_c, 9, 57, 43
1, 28330, Note_on_c, 9, 42, 0
1, 28330, Note_on_c, 9, 57, 0
1, 28559, Note_on_c, 9, 40, 0
1, 28559, Note_on_c, 9, 28, 0
1, 28559, Note_on_c, 9, 82, 0
1, 28560, Note_on_c, 9, 82, 84
1, 28560, Note_on_c, 9, 42, 80
1, 28570, Note_on_c, 9, 42, 0
1, 28799, Note_on_c, 9, 82, 0
1, 28800, Note_on_c, 9, 82, 84
1, 28800, Note_on_c, 9, 42, 80
1, 28800, Note_on_c, 9, 57, 43
1, 28810, Note_on_c, 9, 42, 0
1, 28810, Note_on_c, 9, 57, 0
1, 29039, Note_on_c, 9, 82, 0
1, 29040, Note_on_c, 9, 82, 84
1, 29040, Note_on_c, 9, 42, 80
1, 29040, Note_on_c, 9, 36, 112
1, 29044, Note_on_c, 9, 42, 0
1, 29159, Note_on_c, 9, 82, 0
1, 29160, Note_on_c, 9, 42, 80
1, 29164, Note_on_c, 9, 42, 0
1, 29279, Note_on_c, 9, 36, 0
1, 29280, Note_on_c, 9, 40, 80
1, 29280, Note_on_c, 9, 28, 100
1, 29280, Note_on_c, 9, 82, 84
1, 29280, Note_on_c, 9, 42, 80
1, 29280, Note_on_c, 9, 57, 43
1, 29290, Note_on_c, 9, 42, 0
1, 29290, Note_on_c, 9, 57, 0
1, 29519, Note_on_c, 9, 40, 0
1, 29519, Note_on_c, 9, 28, 0
1, 29519, Note_on_c, 9, 82, 0
1, 29520, Note_on_c, 9, 82, 84
1, 29520, Note_on_c, 9, 42, 80
1, 29520, Note_on_c, 9, 36, 112
1, 29530, Note_on_c, 9, 42, 0
1, 29759, Note_on_c, 9, 82, 0
1, 29759, Note_on_c, 9, 36, 0
1, 30720, Note_on_c, 9, 82, 84
1, 30720, Note_on_c, 9, 42, 80
1, 30720, Note_on_c, 9, 36, 112
1, 30730, Note_on_c, 9, 42, 0
1, 30959, Note_on_c, 9, 82, 0
1, 30960, Note_on_c, 9, 82, 84
1, 30960, Note_on_c, 9, 42, 80
1, 30964, Note_on_c, 9, 42, 0
1, 31079, Note_on_c, 9, 82, 0
1, 31080, Note_on_c, 9, 82, 84
1, 31080, Note_on_c, 9, 42, 80
1, 31084, Note_on_c, 9, 42, 0
1, 31199, Note_on_c, 9, 36, 0
1, 31199, Note_on_c, 9, 82, 0
1, 31200, Note_on_c, 9, 40, 80
1, 31200, Note_on_c, 9, 28, 100
1, 31200, Note_on_c, 9, 82, 84
1, 31200, Note_on_c, 9, 42, 80
1, 31210, Note_on_c, 9, 42, 0
1, 31439, Note_on_c, 9, 40, 0
1, 31439, Note_on_c, 9, 28, 0
1, 31439, Note_on_c, 9, 82, 0
1, 31440, Note_on_c, 9, 82, 84
1, 31440, Note_on_c, 9, 42, 80
1, 31440, Note_on_c, 9, 36, 112
1, 31450, Note_on_c, 9, 42, 0
1, 31679, Note_on_c, 9, 82, 0
1, 31679, Note_on_c, 9, 36, 0
1, 31680, Note_on_c, 9, 82, 84
1, 31680, Note_on_c, 9, 42, 80
1, 31690, Note_on_c, 9, 42, 0
1, 31919, Note_on_c, 9, 82, 0
1, 31920, Note_on_c, 9, 82, 84
1, 31920, Note_on_c, 9, 42, 80
1, 31930, Note_on_c, 9, 42, 0
1, 32159, Note_on_c, 9, 82, 0
1, 32160, Note_on_c, 9, 40, 80
1, 32160, Note_on_c, 9, 28, 100
1, 32160, Note_on_c, 9, 82, 84
1, 32160, Note_on_c, 9, 42, 80
1, 32170, Note_on_c, 9, 42, 0
1, 32399, Note_on_c, 9, 40, 0
1, 32399, Note_on_c, 9, 28, 0
1, 32399, Note_on_c, 9, 82, 0
1, 32400, Note_on_c, 9, 82, 84
1, 32400, Note_on_c, 9, 42, 80
1, 32410, Note_on_c, 9, 42, 0
1, 32639, Note_on_c, 9, 82, 0
1, 32640, Note_on_c, 9, 82, 84
1, 32640, Note_on_c, 9, 42, 80
1, 32640, Note_on_c, 9, 36, 112
1, 32650, Note_on_c, 9, 42, 0
1, 32879, Note_on_c, 9, 82, 0
1, 32880, Note_on_c, 9, 82, 84
1, 32880, Note_on_c, 9, 42, 80
1, 32884, Note_on_c, 9, 42, 0
1, 32999, Note_on_c, 9, 82, 0
1, 33000, Note_on_c, 9, 82, 84
1, 33000, Note_on_c, 9, 42, 80
1, 33004, Note_on_c, 9, 42, 0
1, 33119, Note_on_c, 9, 36, 0
1, 33119, Note_on_c, 9, 82, 0
1, 33120, Note_on_c, 9, 40, 80
1, 33120, Note_on_c, 9, 28, 100
1, 33120, Note_on_c, 9, 82, 84
1, 33120, Note_on_c, 9, 42, 80
1, 33130, Note_on_c, 9, 42, 0
1, 33359, Note_on_c, 9, 40, 0
1, 33359, Note_on_c, 9, 28, 0
1, 33359, Note_on_c, 9, 82, 0
1, 33360, Note_on_c, 9, 82, 84
1, 33360, Note_on_c, 9, 42, 80
1, 33360, Note_on_c, 9, 36, 112
1, 33370, Note_on_c, 9, 42, 0
1, 33599, Note_on_c, 9, 82, 0
1, 33599, Note_on_c, 9, 36, 0
1, 33600, Note_on_c, 9, 82, 84
1, 33600, Note_on_c, 9, 42, 80
1, 33610, Note_on_c, 9, 42, 0
1, 33839, Note_on_c, 9, 82, 0
1, 33840, Note_on_c, 9, 82, 84
1, 33840, Note_on_c, 9, 42, 80
1, 33850, Note_on_c, 9, 42, 0
1, 34079, Note_on_c, 9, 82, 0
1, 34080, Note_on_c, 9, 40, 80
1, 34080, Note_on_c, 9, 28, 100
1, 34080, Note_on_c, 9, 82, 84
1, 34080, Note_on_c, 9, 42, 80
1, 34090, Note_on_c, 9, 42, 0
1, 34319, Note_on_c, 9, 40, 0
1, 34319, Note_on_c, 9, 28, 0
1, 34319, Note_on_c, 9, 82, 0
1, 34320, Note_on_c, 9, 82, 84
1, 34320, Note_on_c, 9, 42, 80
1, 34330, Note_on_c, 9, 42, 0
1, 34559, Note_on_c, 9, 82, 0
1, 34560, Note_on_c, 9, 82, 84
1, 34560, Note_on_c, 9, 42, 80
1, 34560, Note_on_c, 9, 36, 112
1, 34570, Note_on_c, 9, 42, 0
1, 34799, Note_on_c, 9, 82, 0
1, 34800, Note_on_c, 9, 82, 84
1, 34800, Note_on_c, 9, 42, 80
1, 34804, Note_on_c, 9, 42, 0
1, 34919, Note_on_c, 9, 82, 0
1, 34920, Note_on_c, 9, 82, 84
1, 34920, Note_on_c, 9, 42, 80
1, 34924, Note_on_c, 9, 42, 0
1, 35039, Note_on_c, 9, 36, 0
1, 35039, Note_on_c, 9, 82, 0
1, 35040, Note_on_c, 9, 40, 80
1, 35040, Note_on_c, 9, 28, 100
1, 35040, Note_on_c, 9, 82, 84
1, 35040, Note_on_c, 9, 42, 80
1, 35050, Note_on_c, 9, 42, 0
1, 35279, Note_on_c, 9, 40, 0
1, 35279, Note_on_c, 9, 28, 0
1, 35279, Note_on_c, 9, 82, 0
1, 35280, Note_on_c, 9, 82, 84
1, 35280, Note_on_c, 9, 42, 80
1, 35280, Note_on_c, 9, 36, 112
1, 35290, Note_on_c, 9, 42, 0
1, 35519, Note_on_c, 9, 82, 0
1, 35519, Note_on_c, 9, 36, 0
1, 35520, Note_on_c, 9, 82, 84
1, 35520, Note_on_c, 9, 42, 80
1, 35530, Note_on_c, 9, 42, 0
1, 35759, Note_on_c, 9, 82, 0
1, 35760, Note_on_c, 9, 82, 84
1, 35760, Note_on_c, 9, 42, 80
1, 35770, Note_on_c, 9, 42, 0
1, 35999, Note_on_c, 9, 82, 0
1, 36000, Note_on_c, 9, 40, 80
1, 36000, Note_on_c, 9, 28, 100
1, 36000, Note_on_c, 9, 82, 84
1, 36000, Note_on_c, 9, 42, 80
1, 36010, Note_on_c, 9, 42, 0
1, 36239, Note_on_c, 9, 40, 0
1, 36239, Note_on_c, 9, 28, 0
1, 36239, Note_on_c, 9, 82, 0
1, 36240, Note_on_c, 9, 82, 84
1, 36240, Note_on_c, 9, 42, 80
1, 36250, Note_on_c, 9, 42, 0
1, 36479, Note_on_c, 9, 82, 0
1, 36480, Note_on_c, 9, 82, 84
1, 36480, Note_on_c, 9, 42, 80
1, 36490, Note_on_c, 9, 42, 0
1, 36719, Note_on_c, 9, 82, 0
1, 36720, Note_on_c, 9, 82, 84
1, 36720, Note_on_c, 9, 42, 80
1, 36720, Note_on_c, 9, 36, 112
1, 36724, Note_on_c, 9, 42, 0
1, 36839, Note_on_c, 9, 82, 0
1, 36839, Note_on_c, 9, 36, 0
1, 36840, Note_on_c, 9, 42, 80
1, 36840, Note_on_c, 9, 36, 112
1, 36844, Note_on_c, 9, 42, 0
1, 36959, Note_on_c, 9, 36, 0
1, 36960, Note_on_c, 9, 40, 80
1, 36960, Note_on_c, 9, 28, 100
1, 36960, Note_on_c, 9, 82, 84
1, 36960, Note_on_c, 9, 42, 80
1, 36970, Note_on_c, 9, 42, 0
1, 37199, Note_on_c, 9, 40, 0
1, 37199, Note_on_c, 9, 28, 0
1, 37199, Note_on_c, 9, 82, 0
1, 37200, Note_on_c, 9, 82, 84
1, 37200, Note_on_c, 9, 42, 80
1, 37200, Note_on_c, 9, 36, 112
1, 37210, Note_on_c, 9, 42, 0
1, 37439, Note_on_c, 9, 82, 0
1, 37439, Note_on_c, 9, 36, 0
1, 37440, Note_on_c, 9, 82, 84
1, 37440, Note_on_c, 9, 42, 80
1, 37450, Note_on_c, 9, 42, 0
1, 37679, Note_on_c, 9, 82, 0
1, 37680, Note_on_c, 9, 82, 84
1, 37680, Note_on_c, 9, 42, 80
1, 37690, Note_on_c, 9, 42, 0
1, 37919, Note_on_c, 9, 82, 0
1, 37920, Note_on_c, 9, 40, 80
1, 37920, Note_on_c, 9, 28, 100
1, 37920, Note_on_c, 9, 82, 84
1, 37920, Note_on_c, 9, 42, 80
1, 37920, Note_on_c, 9, 36, 112
1, 37930, Note_on_c, 9, 42, 0
1, 38159, Note_on_c, 9, 40, 0
1, 38159, Note_on_c, 9, 28, 0
1, 38159, Note_on_c, 9, 82, 0
1, 38160, Note_on_c, 9, 82, 84
1, 38160, Note_on_c, 9, 42, 80
1, 38164, Note_on_c, 9, 42, 0
1, 38279, Note_on_c, 9, 82, 0
1, 38280, Note_on_c, 9, 40, 80
1, 38280, Note_on_c, 9, 28, 100
1, 38399, Note_on_c, 9, 36, 0
1, 38399, Note_on_c, 9, 40, 0
1, 38399, Note_on_c, 9, 28, 0
1, 38400, Note_on_c, 9, 82, 84
1, 38400, Note_on_c, 9, 42, 80
1, 38400, Note_on_c, 9, 36, 112
1, 38410, Note_on_c, 9, 42, 0
1, 38639, Note_on_c, 9, 82, 0
1, 38640, Note_on_c, 9, 82, 84
1, 38640, Note_on_c, 9, 42, 80
1, 38644, Note_on_c, 9, 42, 0
1, 38759, Note_on_c, 9, 82, 0
1, 38760, Note_on_c, 9, 82, 84
1, 38760, Note_on_c, 9, 42, 80
1, 38764, Note_on_c, 9, 42, 0
1, 38879, Note_on_c, 9, 36, 0
1, 38879, Note_on_c, 9, 82, 0
1, 38880, Note_on_c, 9, 40, 80
1, 38880, Note_on_c, 9, 28, 100
1, 38880, Note_on_c, 9, 82, 84
1, 38880, Note_on_c, 9, 42, 80
1, 38890, Note_on_c, 9, 42, 0
1, 39119, Note_on_c, 9, 40, 0
1, 39119, Note_on_c, 9, 28, 0
1, 39119, Note_on_c, 9, 82, 0
1, 39120, Note_on_c, 9, 82, 84
1, 39120, Note_on_c, 9, 42, 80
1, 39120, Note_on_c, 9, 36, 112
1, 39130, Note_on_c, 9, 42, 0
1, 39359, Note_on_c, 9, 82, 0
1, 39359, Note_on_c, 9, 36, 0
1, 39360, Note_on_c, 9, 82, 84
1, 39360, Note_on_c, 9, 42, 80
1, 39370, Note_on_c, 9, 42, 0
1, 39599, Note_on_c, 9, 82, 0
1, 39600, Note_on_c, 9, 82, 84
1, 39600, Note_on_c, 9, 42, 80
1, 39610, Note_on_c, 9, 42, 0
1, 39839, Note_on_c, 9, 82, 0
1, 39840, Note_on_c, 9, 40, 80
1, 39840, Note_on_c, 9, 28, 100
1, 39840, Note_on_c, 9, 82, 84
1, 39840, Note_on_c, 9, 42, 80
1, 39850, Note_on_c, 9, 42, 0
1, 40079, Note_on_c, 9, 40, 0
1, 40079, Note_on_c, 9, 28, 0
1, 40079, Note_on_c, 9, 82, 0
1, 40080, Note_on_c, 9, 82, 84
1, 40080, Note_on_c, 9, 42, 80
1, 40090, Note_on_c, 9, 42, 0
1, 40319, Note_on_c, 9, 82, 0
1, 40320, Note_on_c, 9, 82, 84
1, 40320, Note_on_c, 9, 42, 80
1, 40320, Note_on_c, 9, 36, 112
1, 40330, Note_on_c, 9, 42, 0
1, 40559, Note_on_c, 9, 82, 0
1, 40560, Note_on_c, 9, 82, 84
1, 40560, Note_on_c, 9, 42, 80
1, 40564, Note_on_c, 9, 42, 0
1, 40679, Note_on_c, 9, 82, 0
1, 40680, Note_on_c, 9, 82, 84
1, 40680, Note_on_c, 9, 42, 80
1, 40684, Note_on_c, 9, 42, 0
1, 40799, Note_on_c, 9, 36, 0
1, 40799, Note_on_c, 9, 82, 0
1, 40800, Note_on_c, 9, 40, 80
1, 40800, Note_on_c, 9, 28, 100
1, 40800, Note_on_c, 9, 82, 84
1, 40800, Note_on_c, 9, 42, 80
1, 40810, Note_on_c, 9, 42, 0
1, 41039, Note_on_c, 9, 40, 0
1, 41039, Note_on_c, 9, 28, 0
1, 41039, Note_on_c, 9, 82, 0
1, 41040, Note_on_c, 9, 82, 84
1, 41040, Note_on_c, 9, 42, 80
1, 41040, Note_on_c, 9, 36, 112
1, 41050, Note_on_c, 9, 42, 0
1, 41279, Note_on_c, 9, 82, 0
1, 41279, Note_on_c, 9, 36, 0
1, 41280, Note_on_c, 9, 82, 84
1, 41280, Note_on_c, 9, 42, 80
1, 41290, Note_on_c, 9, 42, 0
1, 41519, Note_on_c, 9, 82, 0
1, 41520, Note_on_c, 9, 82, 84
1, 41520, Note_on_c, 9, 42, 80
1, 41530, Note_on_c, 9, 42, 0
1, 41759, Note_on_c, 9, 82, 0
1, 41760, Note_on_c, 9, 40, 80
1, 41760, Note_on_c, 9, 28, 100
1, 41760, Note_on_c, 9, 82, 84
1, 41760, Note_on_c, 9, 42, 80
1, 41770, Note_on_c, 9, 42, 0
1, 41999, Note_on_c, 9, 40, 0
1, 41999, Note_on_c, 9, 28, 0
1, 41999, Note_on_c, 9, 82, 0
1, 42000, Note_on_c, 9, 82, 84
1, 42000, Note_on_c, 9, 42, 80
1, 42010, Note_on_c, 9, 42, 0
1, 42239, Note_on_c, 9, 82, 0
1, 42240, Note_on_c, 9, 82, 84
1, 42240, Note_on_c, 9, 42, 80
1, 42240, Note_on_c, 9, 36, 112
1, 42250, Note_on_c, 9, 42, 0
1, 42479, Note_on_c, 9, 82, 0
1, 42480, Note_on_c, 9, 82, 84
1, 42480, Note_on_c, 9, 42, 80
1, 42484, Note_on_c, 9, 42, 0
1, 42599, Note_on_c, 9, 82, 0
1, 42600, Note_on_c, 9, 82, 84
1, 42600, Note_on_c, 9, 42, 80
1, 42604, Note_on_c, 9, 42, 0
1, 42719, Note_on_c, 9, 36, 0
1, 42719, Note_on_c, 9, 82, 0
1, 42720, Note_on_c, 9, 40, 80
1, 42720, Note_on_c, 9, 28, 100
1, 42720, Note_on_c, 9, 82, 84
1, 42720, Note_on_c, 9, 42, 80
1, 42730, Note_on_c, 9, 42, 0
1, 42959, Note_on_c, 9, 40, 0
1, 42959, Note_on_c, 9, 28, 0
1, 42959, Note_on_c, 9, 82, 0
1, 42960, Note_on_c, 9, 82, 84
1, 42960, Note_on_c, 9, 42, 80
1, 42960, Note_on_c, 9, 36, 112
1, 42970, Note_on_c, 9, 42, 0
1, 43199, Note_on_c, 9, 82, 0
1, 43199, Note_on_c, 9, 36, 0
1, 43200, Note_on_c, 9, 82, 84
1, 43200, Note_on_c, 9, 42, 80
1, 43210, Note_on_c, 9, 42, 0
1, 43439, Note_on_c, 9, 82, 0
1, 43440, Note_on_c, 9, 82, 84
1, 43440, Note_on_c, 9, 42, 80
1, 43450, Note_on_c, 9, 42, 0
1, 43679, Note_on_c, 9, 82, 0
1, 43680, Note_on_c, 9, 40, 80
1, 43680, Note_on_c, 9, 28, 100
1, 43680, Note_on_c, 9, 82, 84
1, 43680, Note_on_c, 9, 42, 80
1, 43690, Note_on_c, 9, 42, 0
1, 43919, Note_on_c, 9, 40, 0
1, 43919, Note_on_c, 9, 28, 0
1, 43919, Note_on_c, 9, 82, 0
1, 43920, Note_on_c, 9, 82, 84
1, 43920, Note_on_c, 9, 42, 80
1, 43930, Note_on_c, 9, 42, 0
1, 44159, Note_on_c, 9, 82, 0
1, 44160, Note_on_c, 9, 82, 84
1, 44160, Note_on_c, 9, 42, 80
1, 44170, Note_on_c, 9, 42, 0
1, 44399, Note_on_c, 9, 82, 0
1, 44400, Note_on_c, 9, 82, 84
1, 44400, Note_on_c, 9, 42, 80
1, 44400, Note_on_c, 9, 36, 112
1, 44404, Note_on_c, 9, 42, 0
1, 44519, Note_on_c, 9, 82, 0
1, 44520, Note_on_c, 9, 42, 80
1, 44524, Note_on_c, 9, 42, 0
1, 44639, Note_on_c, 9, 36, 0
1, 44640, Note_on_c, 9, 40, 80
1, 44640, Note_on_c, 9, 28, 100
1, 44640, Note_on_c, 9, 82, 84
1, 44640, Note_on_c, 9, 42, 80
1, 44650, Note_on_c, 9, 42, 0
1, 44879, Note_on_c, 9, 40, 0
1, 44879, Note_on_c, 9, 28, 0
1, 44879, Note_on_c, 9, 82, 0
1, 44880, Note_on_c, 9, 82, 84
1, 44880, Note_on_c, 9, 42, 80
1, 44880, Note_on_c, 9, 36, 112
1, 44890, Note_on_c, 9, 42, 0
1, 45119, Note_on_c, 9, 82, 0
1, 45119, Note_on_c, 9, 36, 0
1, 45120, Note_on_c, 9, 87, 50
1, 45599, Note_on_c, 9, 87, 0
1, 45840, Note_on_c, 9, 29, 97
1, 46079, Note_on_c, 9, 29, 0
1, 46080, Note_on_c, 9, 82, 84
1, 46080, Note_on_c, 9, 42, 80
1, 46080, Note_on_c, 9, 36, 112
1, 46090, Note_on_c, 9, 42, 0
1, 46319, Note_on_c, 9, 82, 0
1, 46320, Note_on_c, 9, 82, 84
1, 46320, Note_on_c, 9, 42, 80
1, 46324, Note_on_c, 9, 42, 0
1, 46439, Note_on_c, 9, 82, 0
1, 46440, Note_on_c, 9, 82, 84
1, 46440, Note_on_c, 9, 42, 80
1, 46444, Note_on_c, 9, 42, 0
1, 46559, Note_on_c, 9, 36, 0
1, 46559, Note_on_c, 9, 82, 0
1, 46560, Note_on_c, 9, 40, 80
1, 46560, Note_on_c, 9, 28, 100
1, 46560, Note_on_c, 9, 82, 84
1, 46560, Note_on_c, 9, 42, 80
1, 46570, Note_on_c, 9, 42, 0
1, 46799, Note_on_c, 9, 40, 0
1, 46799, Note_on_c, 9, 28, 0
1, 46799, Note_on_c, 9, 82, 0
1, 46800, Note_on_c, 9, 82, 84
1, 46800, Note_on_c, 9, 42, 80
1, 46800, Note_on_c, 9, 36, 112
1, 46810, Note_on_c, 9, 42, 0
1, 47039, Note_on_c, 9, 82, 0
1, 47039, Note_on_c, 9, 36, 0
1, 47040, Note_on_c, 9, 82, 84
1, 47040, Note_on_c, 9, 42, 80
1, 47050, Note_on_c, 9, 42, 0
1, 47279, Note_on_c, 9, 82, 0
1, 47280, Note_on_c, 9, 82, 84
1, 47280, Note_on_c, 9, 42, 80
1, 47290, Note_on_c, 9, 42, 0
1, 47519, Note_on_c, 9, 82, 0
1, 47520, Note_on_c, 9, 40, 80
1, 47520, Note_on_c, 9, 28, 100
1, 47520, Note_on_c, 9, 82, 84
1, 47520, Note_on_c, 9, 42, 80
1, 47530, Note_on_c, 9, 42, 0
1, 47759, Note_on_c, 9, 40, 0
1, 47759, Note_on_c, 9, 28, 0
1, 47759, Note_on_c, 9, 82, 0
1, 47760, Note_on_c, 9, 82, 84
1, 47760, Note_on_c, 9, 42, 80
1, 47770, Note_on_c, 9, 42, 0
1, 47999, Note_on_c, 9, 82, 0
1, 48000, Note_on_c, 9, 82, 84
1, 48000, Note_on_c, 9, 42, 80
1, 48000, Note_on_c, 9, 36, 112
1, 48010, Note_on_c, 9, 42, 0
1, 48239, Note_on_c, 9, 82, 0
1, 48240, Note_on_c, 9, 82, 84
1, 48240, Note_on_c, 9, 42, 80
1, 48244, Note_on_c, 9, 42, 0
1, 48359, Note_on_c, 9, 82, 0
1, 48360, Note_on_c, 9, 82, 84
1, 48360, Note_on_c, 9, 42, 80
1, 48364, Note_on_c, 9, 42, 0
1, 48479, Note_on_c, 9, 36, 0
1, 48479, Note_on_c, 9, 82, 0
1, 48480, Note_on_c, 9, 40, 80
1, 48480, Note_on_c, 9, 28, 100
1, 48480, Note_on_c, 9, 82, 84
1, 48480, Note_on_c, 9, 42, 80
1, 48490, Note_on_c, 9, 42, 0
1, 48719, Note_on_c, 9, 40, 0
1, 48719, Note_on_c, 9, 28, 0
1, 48719, Note_on_c, 9, 82, 0
1, 48720, Note_on_c, 9, 82, 84
1, 48720, Note_on_c, 9, 42, 80
1, 48720, Note_on_c, 9, 36, 112
1, 48730, Note_on_c, 9, 42, 0
1, 48959, Note_on_c, 9, 82, 0
1, 48959, Note_on_c, 9, 36, 0
1, 48960, Note_on_c, 9, 82, 84
1, 48960, Note_on_c, 9, 42, 80
1, 48970, Note_on_c, 9, 42, 0
1, 49199, Note_on_c, 9, 82, 0
1, 49200, Note_on_c, 9, 82, 84
1, 49200, Note_on_c, 9, 42, 80
1, 49210, Note_on_c, 9, 42, 0
1, 49439, Note_on_c, 9, 82, 0
1, 49440, Note_on_c, 9, 40, 80
1, 49440, Note_on_c, 9, 28, 100
1, 49440, Note_on_c, 9, 82, 84
1, 49440, Note_on_c, 9, 42, 80
1, 49450, Note_on_c, 9, 42, 0
1, 49679, Note_on_c, 9, 40, 0
1, 49679, Note_on_c, 9, 28, 0
1, 49679, Note_on_c, 9, 82, 0
1, 49680, Note_on_c, 9, 82, 84
1, 49680, Note_on_c, 9, 42, 80
1, 49684, Note_on_c, 9, 42, 0
1, 49799, Note_on_c, 9, 82, 0
1, 49800, Note_on_c, 9, 40, 64
1, 49800, Note_on_c, 9, 28, 100
1, 49919, Note_on_c, 9, 40, 0
1, 49919, Note_on_c, 9, 28, 0
1, 49920, Note_on_c, 9, 82, 84
1, 49920, Note_on_c, 9, 42, 80
1, 49920, Note_on_c, 9, 36, 112
1, 49930, Note_on_c, 9, 42, 0
1, 50159, Note_on_c, 9, 82, 0
1, 50160, Note_on_c, 9, 82, 84
1, 50160, Note_on_c, 9, 42, 80
1, 50164, Note_on_c, 9, 42, 0
1, 50279, Note_on_c, 9, 82, 0
1, 50280, Note_on_c, 9, 82, 84
1, 50280, Note_on_c, 9, 42, 80
1, 50284, Note_on_c, 9, 42, 0
1, 50399, Note_on_c, 9, 36, 0
1, 50399, Note_on_c, 9, 82, 0
1, 50400, Note_on_c, 9, 40, 80
1, 50400, Note_on_c, 9, 28, 100
1, 50400, Note_on_c, 9, 82, 84
1, 50400, Note_on_c, 9, 42, 80
1, 50410, Note_on_c, 9, 42, 0
1, 50639, Note_on_c, 9, 40, 0
1, 50639, Note_on_c, 9, 28, 0
1, 50639, Note_on_c, 9, 82, 0
1, 50640, Note_on_c, 9, 82, 84
1, 50640, Note_on_c, 9, 42, 80
1, 50640, Note_on_c, 9, 36, 112
1, 50650, Note_on_c, 9, 42, 0
1, 50879, Note_on_c, 9, 82, 0
1, 50879, Note_on_c, 9, 36, 0
1, 50880, Note_on_c, 9, 82, 84
1, 50880, Note_on_c, 9, 42, 80
1, 50890, Note_on_c, 9, 42, 0
1, 51119, Note_on_c, 9, 82, 0
1, 51120, Note_on_c, 9, 82, 84
1, 51120, Note_on_c, 9, 42, 80
1, 51130, Note_on_c, 9, 42, 0
1, 51359, Note_on_c, 9, 82, 0
1, 51360, Note_on_c, 9, 40, 80
1, 51360, Note_on_c, 9, 28, 100
1, 51360, Note_on_c, 9, 82, 84
1, 51360, Note_on_c, 9, 42, 80
1, 51370, Note_on_c, 9, 42, 0
1, 51599, Note_on_c, 9, 40, 0
1, 51599, Note_on_c, 9, 28, 0
1, 51599, Note_on_c, 9, 82, 0
1, 51600, Note_on_c, 9, 82, 84
1, 51600, Note_on_c, 9, 42, 80
1, 51610, Note_on_c, 9, 42, 0
1, 51839, Note_on_c, 9, 82, 0
1, 51840, Note_on_c, 9, 82, 84
1, 51840, Note_on_c, 9, 42, 80
1, 51840, Note_on_c, 9, 36, 112
1, 51850, Note_on_c, 9, 42, 0
1, 52079, Note_on_c, 9, 82, 0
1, 52080, Note_on_c, 9, 82, 84
1, 52080, Note_on_c, 9, 42, 80
1, 52084, Note_on_c, 9, 42, 0
1, 52199, Note_on_c, 9, 82, 0
1, 52200, Note_on_c, 9, 82, 84
1, 52200, Note_on_c, 9, 42, 80
1, 52204, Note_on_c, 9, 42, 0
1, 52319, Note_on_c, 9, 36, 0
1, 52319, Note_on_c, 9, 82, 0
1, 52320, Note_on_c, 9, 40, 80
1, 52320, Note_on_c, 9, 28, 100
1, 52320, Note_on_c, 9, 82, 84
1, 52320, Note_on_c, 9, 42, 80
1, 52330, Note_on_c, 9, 42, 0
1, 52559, Note_on_c, 9, 40, 0
1, 52559, Note_on_c, 9, 28, 0
1, 52559, Note_on_c, 9, 82, 0
1, 52560, Note_on_c, 9, 82, 84
1, 52560, Note_on_c, 9, 42, 80
1, 52560, Note_on_c, 9, 36, 112
1, 52570, Note_on_c, 9, 42, 0
1, 52799, Note_on_c, 9, 82, 0
1, 52799, Note_on_c, 9, 36, 0
1, 52800, Note_on_c, 9, 82, 84
1, 52800, Note_on_c, 9, 42, 80
1, 52810, Note_on_c, 9, 42, 0
1, 53039, Note_on_c, 9, 82, 0
1, 53040, Note_on_c, 9, 82, 84
1, 53040, Note_on_c, 9, 42, 80
1, 53050, Note_on_c, 9, 42, 0
1, 53279, Note_on_c, 9, 82, 0
1, 53280, Note_on_c, 9, 40, 80
1, 53280, Note_on_c, 9, 28, 100
1, 53280, Note_on_c, 9, 82, 84
1, 53280, Note_on_c, 9, 42, 80
1, 53290, Note_on_c, 9, 42, 0
1, 53519, Note_on_c, 9, 40, 0
1, 53519, Note_on_c, 9, 28, 0
1, 53519, Note_on_c, 9, 82, 0
1, 53520, Note_on_c, 9, 82, 84
1, 53520, Note_on_c, 9, 42, 80
1, 53530, Note_on_c, 9, 42, 0
1, 53759, Note_on_c, 9, 82, 0
1, 53760, Note_on_c, 9, 82, 84
1, 53760, Note_on_c, 9, 42, 80
1, 53760, Note_on_c, 9, 36, 112
1, 53770, Note_on_c, 9, 42, 0
1, 53999, Note_on_c, 9, 82, 0
1, 54000, Note_on_c, 9, 82, 84
1, 54000, Note_on_c, 9, 42, 80
1, 54004, Note_on_c, 9, 42, 0
1, 54119, Note_on_c, 9, 82, 0
1, 54120, Note_on_c, 9, 82, 84
1, 54120, Note_on_c, 9, 42, 80
1, 54124, Note_on_c, 9, 42, 0
1, 54239, Note_on_c, 9, 36, 0
1, 54239, Note_on_c, 9, 82, 0
1, 54240, Note_on_c, 9, 40, 80
1, 54240, Note_on_c, 9, 28, 100
1, 54240, Note_on_c, 9, 82, 84
1, 54240, Note_on_c, 9, 42, 80
1, 54250, Note_on_c, 9, 42, 0
1, 54479, Note_on_c, 9, 40, 0
1, 54479, Note_on_c, 9, 28, 0
1, 54479, Note_on_c, 9, 82, 0
1, 54480, Note_on_c, 9, 82, 84
1, 54480, Note_on_c, 9, 42, 80
1, 54480, Note_on_c, 9, 36, 112
1, 54490, Note_on_c, 9, 42, 0
1, 54719, Note_on_c, 9, 82, 0
1, 54719, Note_on_c, 9, 36, 0
1, 54720, Note_on_c, 9, 82, 84
1, 54720, Note_on_c, 9, 42, 80
1, 54730, Note_on_c, 9, 42, 0
1, 54959, Note_on_c, 9, 82, 0
1, 54960, Note_on_c, 9, 82, 84
1, 54960, Note_on_c, 9, 42, 80
1, 54970, Note_on_c, 9, 42, 0
1, 55199, Note_on_c, 9, 82, 0
1, 55200, Note_on_c, 9, 40, 80
1, 55200, Note_on_c, 9, 28, 100
1, 55200, Note_on_c, 9, 82, 84
1, 55200, Note_on_c, 9, 42, 80
1, 55210, Note_on_c, 9, 42, 0
1, 55439, Note_on_c, 9, 40, 0
1, 55439, Note_on_c, 9, 28, 0
1, 55439, Note_on_c, 9, 82, 0
1, 55440, Note_on_c, 9, 82, 84
1, 55440, Note_on_c, 9, 42, 80
1, 55450, Note_on_c, 9, 42, 0
1, 55679, Note_on_c, 9, 82, 0
1, 55680, Note_on_c, 9, 82, 84
1, 55680, Note_on_c, 9, 42, 80
1, 55680, Note_on_c, 9, 36, 112
1, 55690, Note_on_c, 9, 42, 0
1, 55919, Note_on_c, 9, 82, 0
1, 55920, Note_on_c, 9, 82, 84
1, 55920, Note_on_c, 9, 42, 80
1, 55924, Note_on_c, 9, 42, 0
1, 56039, Note_on_c, 9, 82, 0
1, 56040, Note_on_c, 9, 82, 84
1, 56040, Note_on_c, 9, 42, 80
1, 56044, Note_on_c, 9, 42, 0
1, 56159, Note_on_c, 9, 36, 0
1, 56159, Note_on_c, 9, 82, 0
1, 56160, Note_on_c, 9, 40, 80
1, 56160, Note_on_c, 9, 28, 100
1, 56160, Note_on_c, 9, 82, 84
1, 56160, Note_on_c, 9, 42, 80
1, 56170, Note_on_c, 9, 42, 0
1, 56399, Note_on_c, 9, 40, 0
1, 56399, Note_on_c, 9, 28, 0
1, 56399, Note_on_c, 9, 82, 0
1, 56400, Note_on_c, 9, 82, 84
1, 56400, Note_on_c, 9, 42, 80
1, 56400, Note_on_c, 9, 36, 112
1, 56410, Note_on_c, 9, 42, 0
1, 56639, Note_on_c, 9, 82, 0
1, 56639, Note_on_c, 9, 36, 0
1, 56640, Note_on_c, 9, 82, 84
1, 56640, Note_on_c, 9, 42, 80
1, 56650, Note_on_c, 9, 42, 0
1, 56879, Note_on_c, 9, 82, 0
1, 56880, Note_on_c, 9, 82, 84
1, 56880, Note_on_c, 9, 42, 80
1, 56890, Note_on_c, 9, 42, 0
1, 57119, Note_on_c, 9, 82, 0
1, 57120, Note_on_c, 9, 40, 80
1, 57120, Note_on_c, 9, 28, 100
1, 57120, Note_on_c, 9, 82, 84
1, 57120, Note_on_c, 9, 42, 80
1, 57130, Note_on_c, 9, 42, 0
1, 57359, Note_on_c, 9, 40, 0
1, 57359, Note_on_c, 9, 28, 0
1, 57359, Note_on_c, 9, 82, 0
1, 57360, Note_on_c, 9, 82, 84
1, 57360, Note_on_c, 9, 42, 80
1, 57364, Note_on_c, 9, 42, 0
1, 57479, Note_on_c, 9, 82, 0
1, 57480, Note_on_c, 9, 40, 64
1, 57480, Note_on_c, 9, 28, 100
1, 57599, Note_on_c, 9, 40, 0
1, 57599, Note_on_c, 9, 28, 0
1, 57600, Note_on_c, 9, 82, 84
1, 57600, Note_on_c, 9, 42, 80
1, 57600, Note_on_c, 9, 36, 112
1, 57610, Note_on_c, 9, 42, 0
1, 57839, Note_on_c, 9, 82, 0
1, 57840, Note_on_c, 9, 82, 84
1, 57840, Note_on_c, 9, 42, 80
1, 57844, Note_on_c, 9, 42, 0
1, 57959, Note_on_c, 9, 82, 0
1, 57960, Note_on_c, 9, 82, 84
1, 57960, Note_on_c, 9, 42, 80
1, 57964, Note_on_c, 9, 42, 0
1, 58079, Note_on_c, 9, 36, 0
1, 58079, Note_on_c, 9, 82, 0
1, 58080, Note_on_c, 9, 40, 80
1, 58080, Note_on_c, 9, 28, 100
1, 58080, Note_on_c, 9, 82, 84
1, 58080, Note_on_c, 9, 42, 80
1, 58090, Note_on_c, 9, 42, 0
1, 58319, Note_on_c, 9, 40, 0
1, 58319, Note_on_c, 9, 28, 0
1, 58319, Note_on_c, 9, 82, 0
1, 58320, Note_on_c, 9, 82, 84
1, 58320, Note_on_c, 9, 42, 80
1, 58320, Note_on_c, 9, 36, 112
1, 58330, Note_on_c, 9, 42, 0
1, 58559, Note_on_c, 9, 82, 0
1, 58559, Note_on_c, 9, 36, 0
1, 58560, Note_on_c, 9, 82, 84
1, 58560, Note_on_c, 9, 42, 80
1, 58570, Note_on_c, 9, 42, 0
1, 58799, Note_on_c, 9, 82, 0
1, 58800, Note_on_c, 9, 82, 84
1, 58800, Note_on_c, 9, 42, 80
1, 58810, Note_on_c, 9, 42, 0
1, 59039, Note_on_c, 9, 82, 0
1, 59040, Note_on_c, 9, 40, 80
1, 59040, Note_on_c, 9, 28, 100
1, 59040, Note_on_c, 9, 82, 84
1, 59040, Note_on_c, 9, 42, 80
1, 59050, Note_on_c, 9, 42, 0
1, 59279, Note_on_c, 9, 40, 0
1, 59279, Note_on_c, 9, 28, 0
1, 59279, Note_on_c, 9, 82, 0
1, 59280, Note_on_c, 9, 82, 84
1, 59280, Note_on_c, 9, 42, 80
1, 59290, Note_on_c, 9, 42, 0
1, 59519, Note_on_c, 9, 82, 0
1, 59520, Note_on_c, 9, 82, 84
1, 59520, Note_on_c, 9, 42, 80
1, 59530, Note_on_c, 9, 42, 0
1, 59759, Note_on_c, 9, 82, 0
1, 59760, Note_on_c, 9, 46, 50
1, 59760, Note_on_c, 9, 42, 80
1, 59760, Note_on_c, 9, 36, 112
1, 59764, Note_on_c, 9, 46, 0
1, 59764, Note_on_c, 9, 42, 0
1, 59880, Note_on_c, 9, 42, 80
1, 59884, Note_on_c, 9, 42, 0
1, 59999, Note_on_c, 9, 36, 0
1, 60000, Note_on_c, 9, 40, 80
1, 60000, Note_on_c, 9, 28, 100
1, 60000, Note_on_c, 9, 82, 84
1, 60000, Note_on_c, 9, 42, 80
1, 60010, Note_on_c, 9, 42, 0
1, 60239, Note_on_c, 9, 40, 0
1, 60239, Note_on_c, 9, 28, 0
1, 60239, Note_on_c, 9, 82, 0
1, 60240, Note_on_c, 9, 46, 50
1, 60240, Note_on_c, 9, 42, 80
1, 60240, Note_on_c, 9, 36, 112
1, 60250, Note_on_c, 9, 46, 0
1, 60250, Note_on_c, 9, 42, 0
1, 60479, Note_on_c, 9, 36, 0
1, 60480, Note_on_c, 9, 32, 95
1, 60959, Note_on_c, 9, 32, 0
1, 61440, Note_on_c, 9, 82, 84
1, 61440, Note_on_c, 9, 42, 80
1, 61440, Note_on_c, 9, 36, 112
1, 61450, Note_on_c, 9, 42, 0
1, 61679, Note_on_c, 9, 82, 0
1, 61680, Note_on_c, 9, 82, 84
1, 61680, Note_on_c, 9, 42, 80
1, 61684, Note_on_c, 9, 42, 0
1, 61799, Note_on_c, 9, 82, 0
1, 61800, Note_on_c, 9, 82, 84
1, 61800, Note_on_c, 9, 42, 80
1, 61804, Note_on_c, 9, 42, 0
1, 61919, Note_on_c, 9, 36, 0
1, 61919, Note_on_c, 9, 82, 0
1, 61920, Note_on_c, 9, 40, 80
1, 61920, Note_on_c, 9, 28, 100
1, 61920, Note_on_c, 9, 82, 84
1, 61920, Note_on_c, 9, 42, 80
1, 61930, Note_on_c, 9, 42, 0
1, 62159, Note_on_c, 9, 40, 0
1, 62159, Note_on_c, 9, 28, 0
1, 62159, Note_on_c, 9, 82, 0
1, 62160, Note_on_c, 9, 82, 84
1, 62160, Note_on_c, 9, 42, 80
1, 62160, Note_on_c, 9, 36, 112
1, 62170, Note_on_c, 9, 42, 0
1, 62399, Note_on_c, 9, 82, 0
1, 62399, Note_on_c, 9, 36, 0
1, 62400, Note_on_c, 9, 82, 84
1, 62400, Note_on_c, 9, 42, 80
1, 62410, Note_on_c, 9, 42, 0
1, 62639, Note_on_c, 9, 82, 0
1, 62640, Note_on_c, 9, 82, 84
1, 62640, Note_on_c, 9, 42, 80
1, 62650, Note_on_c, 9, 42, 0
1, 62879, Note_on_c, 9, 82, 0
1, 62880, Note_on_c, 9, 40, 80
1, 62880, Note_on_c, 9, 28, 100
1, 62880, Note_on_c, 9, 82, 84
1, 62880, Note_on_c, 9, 42, 80
1, 62890, Note_on_c, 9, 42, 0
1, 63119, Note_on_c, 9, 40, 0
1, 63119, Note_on_c, 9, 28, 0
1, 63119, Note_on_c, 9, 82, 0
1, 63120, Note_on_c, 9, 82, 84
1, 63120, Note_on_c, 9, 42, 80
1, 63130, Note_on_c, 9, 42, 0
1, 63359, Note_on_c, 9, 82, 0
1, 63360, Note_on_c, 9, 82, 84
1, 63360, Note_on_c, 9, 42, 80
1, 63360, Note_on_c, 9, 36, 112
1, 63370, Note_on_c, 9, 42, 0
1, 63599, Note_on_c, 9, 82, 0
1, 63600, Note_on_c, 9, 82, 84
1, 63600, Note_on_c, 9, 42, 80
1, 63604, Note_on_c, 9, 42, 0
1, 63719, Note_on_c, 9, 82, 0
1, 63720, Note_on_c, 9, 82, 84
1, 63720, Note_on_c, 9, 42, 80
1, 63724, Note_on_c, 9, 42, 0
1, 63839, Note_on_c, 9, 36, 0
1, 63839, Note_on_c, 9, 82, 0
1, 63840, Note_on_c, 9, 40, 80
1, 63840, Note_on_c, 9, 28, 100
1, 63840, Note_on_c, 9, 82, 84
1, 63840, Note_on_c, 9, 42, 80
1, 63850, Note_on_c, 9, 42, 0
1, 64079, Note_on_c, 9, 40, 0
1, 64079, Note_on_c, 9, 28, 0
1, 64079, Note_on_c, 9, 82, 0
1, 64080, Note_on_c, 9, 82, 84
1, 64080, Note_on_c, 9, 42, 80
1, 64080, Note_on_c, 9, 36, 112
1, 64090, Note_on_c, 9, 42, 0
1, 64319, Note_on_c, 9, 82, 0
1, 64319, Note_on_c, 9, 36, 0
1, 64320, Note_on_c, 9, 82, 84
1, 64320, Note_on_c, 9, 42, 80
1, 64330, Note_on_c, 9, 42, 0
1, 64559, Note_on_c, 9, 82, 0
1, 64560, Note_on_c, 9, 82, 84
1, 64560, Note_on_c, 9, 42, 80
1, 64570, Note_on_c, 9, 42, 0
1, 64799, Note_on_c, 9, 82, 0
1, 64800, Note_on_c, 9, 40, 80
1, 64800, Note_on_c, 9, 28, 100
1, 64800, Note_on_c, 9, 82, 84
1, 64800, Note_on_c, 9, 42, 80
1, 64810, Note_on_c, 9, 42, 0
1, 65039, Note_on_c, 9, 40, 0
1, 65039, Note_on_c, 9, 28, 0
1, 65039, Note_on_c, 9, 82, 0
1, 65040, Note_on_c, 9, 82, 84
1, 65040, Note_on_c, 9, 42, 80
1, 65044, Note_on_c, 9, 42, 0
1, 65159, Note_on_c, 9, 82, 0
1, 65160, Note_on_c, 9, 40, 64
1, 65160, Note_on_c, 9, 28, 100
1, 65279, Note_on_c, 9, 40, 0
1, 65279, Note_on_c, 9, 28, 0
1, 65280, Note_on_c, 9, 82, 84
1, 65280, Note_on_c, 9, 42, 80
1, 65280, Note_on_c, 9, 36, 112
1, 65290, Note_on_c, 9, 42, 0
1, 65519, Note_on_c, 9, 82, 0
1, 65520, Note_on_c, 9, 82, 84
1, 65520, Note_on_c, 9, 42, 80
1, 65524, Note_on_c, 9, 42, 0
1, 65639, Note_on_c, 9, 82, 0
1, 65640, Note_on_c, 9, 82, 84
1, 65640, Note_on_c, 9, 42, 80
1, 65644, Note_on_c, 9, 42, 0
1, 65759, Note_on_c, 9, 36, 0
1, 65759, Note_on_c, 9, 82, 0
1, 65760, Note_on_c, 9, 40, 80
1, 65760, Note_on_c, 9, 28, 100
1, 65760, Note_on_c, 9, 82, 84
1, 65760, Note_on_c, 9, 42, 80
1, 65770, Note_on_c, 9, 42, 0
1, 65999, Note_on_c, 9, 40, 0
1, 65999, Note_on_c, 9, 28, 0
1, 65999, Note_on_c, 9, 82, 0
1, 66000, Note_on_c, 9, 82, 84
1, 66000, Note_on_c, 9, 42, 80
1, 66000, Note_on_c, 9, 36, 112
1, 66010, Note_on_c, 9, 42, 0
1, 66239, Note_on_c, 9, 82, 0
1, 66239, Note_on_c, 9, 36, 0
1, 66240, Note_on_c, 9, 82, 84
1, 66240, Note_on_c, 9, 42, 80
1, 66250, Note_on_c, 9, 42, 0
1, 66479, Note_on_c, 9, 82, 0
1, 66480, Note_on_c, 9, 82, 84
1, 66480, Note_on_c, 9, 42, 80
1, 66490, Note_on_c, 9, 42, 0
1, 66719, Note_on_c, 9, 82, 0
1, 66720, Note_on_c, 9, 40, 80
1, 66720, Note_on_c, 9, 28, 100
1, 66720, Note_on_c, 9, 82, 84
1, 66720, Note_on_c, 9, 42, 80
1, 66730, Note_on_c, 9, 42, 0
1, 66959, Note_on_c, 9, 40, 0
1, 66959, Note_on_c, 9, 28, 0
1, 66959, Note_on_c, 9, 82, 0
1, 66960, Note_on_c, 9, 82, 84
1, 66960, Note_on_c, 9, 42, 80
1, 66970, Note_on_c, 9, 42, 0
1, 67199, Note_on_c, 9, 82, 0
1, 67200, Note_on_c, 9, 82, 84
1, 67200, Note_on_c, 9, 42, 80
1, 67200, Note_on_c, 9, 36, 112
1, 67210, Note_on_c, 9, 42, 0
1, 67439, Note_on_c, 9, 82, 0
1, 67440, Note_on_c, 9, 82, 84
1, 67440, Note_on_c, 9, 42, 80
1, 67444, Note_on_c, 9, 42, 0
1, 67559, Note_on_c, 9, 82, 0
1, 67560, Note_on_c, 9, 82, 84
1, 67560, Note_on_c, 9, 42, 80
1, 67564, Note_on_c, 9, 42, 0
1, 67679, Note_on_c, 9, 36, 0
1, 67679, Note_on_c, 9, 82, 0
1, 67680, Note_on_c, 9, 40, 80
1, 67680, Note_on_c, 9, 28, 100
1, 67680, Note_on_c, 9, 82, 84
1, 67680, Note_on_c, 9, 42, 80
1, 67690, Note_on_c, 9, 42, 0
1, 67919, Note_on_c, 9, 40, 0
1, 67919, Note_on_c, 9, 28, 0
1, 67919, Note_on_c, 9, 82, 0
1, 67920, Note_on_c, 9, 82, 84
1, 67920, Note_on_c, 9, 42, 80
1, 67920, Note_on_c, 9, 36, 112
1, 67930, Note_on_c, 9, 42, 0
1, 68159, Note_on_c, 9, 82, 0
1, 68159, Note_on_c, 9, 36, 0
1, 68160, Note_on_c, 9, 82, 84
1, 68160, Note_on_c, 9, 42, 80
1, 68170, Note_on_c, 9, 42, 0
1, 68399, Note_on_c, 9, 82, 0
1, 68400, Note_on_c, 9, 82, 84
1, 68400, Note_on_c, 9, 42, 80
1, 68410, Note_on_c, 9, 42, 0
1, 68639, Note_on_c, 9, 82, 0
1, 68640, Note_on_c, 9, 40, 80
1, 68640, Note_on_c, 9, 28, 100
1, 68640, Note_on_c, 9, 82, 84
1, 68640, Note_on_c, 9, 42, 80
1, 68650, Note_on_c, 9, 42, 0
1, 68879, Note_on_c, 9, 40, 0
1, 68879, Note_on_c, 9, 28, 0
1, 68879, Note_on_c, 9, 82, 0
1, 68880, Note_on_c, 9, 82, 84
1, 68880, Note_on_c, 9, 42, 80
1, 68890, Note_on_c, 9, 42, 0
1, 69119, Note_on_c, 9, 82, 0
1, 69120, Note_on_c, 9, 82, 84
1, 69120, Note_on_c, 9, 42, 80
1, 69120, Note_on_c, 9, 36, 112
1, 69130, Note_on_c, 9, 42, 0
1, 69359, Note_on_c, 9, 82, 0
1, 69360, Note_on_c, 9, 82, 84
1, 69360, Note_on_c, 9, 42, 80
1, 69364, Note_on_c, 9, 42, 0
1, 69479, Note_on_c, 9, 82, 0
1, 69480, Note_on_c, 9, 82, 84
1, 69480, Note_on_c, 9, 42, 80
1, 69484, Note_on_c, 9, 42, 0
1, 69599, Note_on_c, 9, 36, 0
1, 69599, Note_on_c, 9, 82, 0
1, 69600, Note_on_c, 9, 40, 80
1, 69600, Note_on_c, 9, 28, 100
1, 69600, Note_on_c, 9, 82, 84
1, 69600, Note_on_c, 9, 42, 80
1, 69610, Note_on_c, 9, 42, 0
1, 69839, Note_on_c, 9, 40, 0
1, 69839, Note_on_c, 9, 28, 0
1, 69839, Note_on_c, 9, 82, 0
1, 69840, Note_on_c, 9, 82, 84
1, 69840, Note_on_c, 9, 42, 80
1, 69840, Note_on_c, 9, 36, 112
1, 69850, Note_on_c, 9, 42, 0
1, 70079, Note_on_c, 9, 82, 0
1, 70079, Note_on_c, 9, 36, 0
1, 70080, Note_on_c, 9, 82, 84
1, 70080, Note_on_c, 9, 42, 80
1, 70090, Note_on_c, 9, 42, 0
1, 70319, Note_on_c, 9, 82, 0
1, 70320, Note_on_c, 9, 82, 84
1, 70320, Note_on_c, 9, 42, 80
1, 70330, Note_on_c, 9, 42, 0
1, 70559, Note_on_c, 9, 82, 0
1, 70560, Note_on_c, 9, 40, 80
1, 70560, Note_on_c, 9, 28, 100
1, 70560, Note_on_c, 9, 82, 84
1, 70560, Note_on_c, 9, 42, 80
1, 70570, Note_on_c, 9, 42, 0
1, 70799, Note_on_c, 9, 40, 0
1, 70799, Note_on_c, 9, 28, 0
1, 70799, Note_on_c, 9, 82, 0
1, 70800, Note_on_c, 9, 82, 84
1, 70800, Note_on_c, 9, 42, 80
1, 70810, Note_on_c, 9, 42, 0
1, 71039, Note_on_c, 9, 82, 0
1, 71040, Note_on_c, 9, 82, 84
1, 71040, Note_on_c, 9, 42, 80
1, 71040, Note_on_c, 9, 36, 112
1, 71050, Note_on_c, 9, 42, 0
1, 71279, Note_on_c, 9, 82, 0
1, 71280, Note_on_c, 9, 82, 84
1, 71280, Note_on_c, 9, 42, 80
1, 71284, Note_on_c, 9, 42, 0
1, 71399, Note_on_c, 9, 82, 0
1, 71400, Note_on_c, 9, 82, 84
1, 71400, Note_on_c, 9, 42, 80
1, 71404, Note_on_c, 9, 42, 0
1, 71519, Note_on_c, 9, 36, 0
1, 71519, Note_on_c, 9, 82, 0
1, 71520, Note_on_c, 9, 40, 80
1, 71520, Note_on_c, 9, 28, 100
1, 71520, Note_on_c, 9, 82, 84
1, 71520, Note_on_c, 9, 42, 80
1, 71530, Note_on_c, 9, 42, 0
1, 71759, Note_on_c, 9, 40, 0
1, 71759, Note_on_c, 9, 28, 0
1, 71759, Note_on_c, 9, 82, 0
1, 71760, Note_on_c, 9, 82, 84
1, 71760, Note_on_c, 9, 42, 80
1, 71760, Note_on_c, 9, 36, 112
1, 71770, Note_on_c, 9, 42, 0
1, 71999, Note_on_c, 9, 82, 0
1, 71999, Note_on_c, 9, 36, 0
1, 72000, Note_on_c, 9, 82, 84
1, 72000, Note_on_c, 9, 42, 80
1, 72010, Note_on_c, 9, 42, 0
1, 72239, Note_on_c, 9, 82, 0
1, 72240, Note_on_c, 9, 82, 84
1, 72240, Note_on_c, 9, 42, 80
1, 72250, Note_on_c, 9, 42, 0
1, 72479, Note_on_c, 9, 82, 0
1, 72480, Note_on_c, 9, 40, 80
1, 72480, Note_on_c, 9, 28, 100
1, 72480, Note_on_c, 9, 82, 84
1, 72480, Note_on_c, 9, 42, 80
1, 72490, Note_on_c, 9, 42, 0
1, 72719, Note_on_c, 9, 40, 0
1, 72719, Note_on_c, 9, 28, 0
1, 72719, Note_on_c, 9, 82, 0
1, 72720, Note_on_c, 9, 82, 84
1, 72720, Note_on_c, 9, 42, 80
1, 72724, Note_on_c, 9, 42, 0
1, 72839, Note_on_c, 9, 82, 0
1, 72840, Note_on_c, 9, 40, 64
1, 72840, Note_on_c, 9, 28, 100
1, 72959, Note_on_c, 9, 40, 0
1, 72959, Note_on_c, 9, 28, 0
1, 72960, Note_on_c, 9, 82, 84
1, 72960, Note_on_c, 9, 42, 80
1, 72960, Note_on_c, 9, 36, 112
1, 72970, Note_on_c, 9, 42, 0
1, 73199, Note_on_c, 9, 82, 0
1, 73200, Note_on_c, 9, 82, 84
1, 73200, Note_on_c, 9, 42, 80
1, 73204, Note_on_c, 9, 42, 0
1, 73319, Note_on_c, 9, 82, 0
1, 73320, Note_on_c, 9, 82, 84
1, 73320, Note_on_c, 9, 42, 80
1, 73324, Note_on_c, 9, 42, 0
1, 73439, Note_on_c, 9, 36, 0
1, 73439, Note_on_c, 9, 82, 0
1, 73440, Note_on_c, 9, 40, 80
1, 73440, Note_on_c, 9, 28, 100
1, 73440, Note_on_c, 9, 82, 84
1, 73440, Note_on_c, 9, 42, 80
1, 73450, Note_on_c, 9, 42, 0
1, 73679, Note_on_c, 9, 40, 0
1, 73679, Note_on_c, 9, 28, 0
1, 73679, Note_on_c, 9, 82, 0
1, 73680, Note_on_c, 9, 82, 84
1, 73680, Note_on_c, 9, 42, 80
1, 73680, Note_on_c, 9, 36, 112
1, 73690, Note_on_c, 9, 42, 0
1, 73919, Note_on_c, 9, 82, 0
1, 73919, Note_on_c, 9, 36, 0
1, 73920, Note_on_c, 9, 82, 84
1, 73920, Note_on_c, 9, 42, 80
1, 73930, Note_on_c, 9, 42, 0
1, 74159, Note_on_c, 9, 82, 0
1, 74160, Note_on_c, 9, 82, 84
1, 74160, Note_on_c, 9, 42, 80
1, 74170, Note_on_c, 9, 42, 0
1, 74399, Note_on_c, 9, 82, 0
1, 74400, Note_on_c, 9, 40, 80
1, 74400, Note_on_c, 9, 28, 100
1, 74400, Note_on_c, 9, 82, 84
1, 74400, Note_on_c, 9, 42, 80
1, 74410, Note_on_c, 9, 42, 0
1, 74639, Note_on_c, 9, 40, 0
1, 74639, Note_on_c, 9, 28, 0
1, 74639, Note_on_c, 9, 82, 0
1, 74640, Note_on_c, 9, 82, 84
1, 74640, Note_on_c, 9, 42, 80
1, 74650, Note_on_c, 9, 42, 0
1, 74879, Note_on_c, 9, 82, 0
1, 75120, Note_on_c, 9, 46, 79
1, 75120, Note_on_c, 9, 36, 112
1, 75130, Note_on_c, 9, 46, 0
1, 75359, Note_on_c, 9, 36, 0
1, 75360, Note_on_c, 9, 40, 64
1, 75360, Note_on_c, 9, 28, 100
1, 75360, Note_on_c, 9, 82, 84
1, 75360, Note_on_c, 9, 44, 95
1, 75370, Note_on_c, 9, 44, 0
1, 75599, Note_on_c, 9, 40, 0
1, 75599, Note_on_c, 9, 28, 0
1, 75599, Note_on_c, 9, 82, 0
1, 75600, Note_on_c, 9, 46, 79
1, 75600, Note_on_c, 9, 36, 112
1, 75610, Note_on_c, 9, 46, 0
1, 75839, Note_on_c, 9, 36, 0
1, 75840, Note_on_c, 9, 44, 95
1, 75850, Note_on_c, 9, 44, 0
1, 76080, Note_on_c, 9, 36, 96
1, 76319, Note_on_c, 9, 36, 0
1, 76560, Note_on_c, 9, 36, 96
1, 76799, Note_on_c, 9, 36, 0
1, 76800, Note_on_c, 9, 82, 84
1, 76800, Note_on_c, 9, 42, 80
1, 76800, Note_on_c, 9, 36, 112
1, 76810, Note_on_c, 9, 42, 0
1, 77039, Note_on_c, 9, 82, 0
1, 77040, Note_on_c, 9, 82, 84
1, 77040, Note_on_c, 9, 42, 80
1, 77044, Note_on_c, 9, 42, 0
1, 77159, Note_on_c, 9, 82, 0
1, 77160, Note_on_c, 9, 82, 84
1, 77160, Note_on_c, 9, 42, 80
1, 77164, Note_on_c, 9, 42, 0
1, 77279, Note_on_c, 9, 36, 0
1, 77279, Note_on_c, 9, 82, 0
1, 77280, Note_on_c, 9, 40, 80
1, 77280, Note_on_c, 9, 28, 100
1, 77280, Note_on_c, 9, 82, 84
1, 77280, Note_on_c, 9, 42, 80
1, 77290, Note_on_c, 9, 42, 0
1, 77519, Note_on_c, 9, 40, 0
1, 77519, Note_on_c, 9, 28, 0
1, 77519, Note_on_c, 9, 82, 0
1, 77520, Note_on_c, 9, 82, 84
1, 77520, Note_on_c, 9, 42, 80
1, 77520, Note_on_c, 9, 36, 112
1, 77530, Note_on_c, 9, 42, 0
1, 77759, Note_on_c, 9, 82, 0
1, 77759, Note_on_c, 9, 36, 0
1, 77760, Note_on_c, 9, 82, 84
1, 77760, Note_on_c, 9, 42, 80
1, 77770, Note_on_c, 9, 42, 0
1, 77999, Note_on_c, 9, 82, 0
1, 78000, Note_on_c, 9, 82, 84
1, 78000, Note_on_c, 9, 42, 80
1, 78010, Note_on_c, 9, 42, 0
1, 78239, Note_on_c, 9, 82, 0
1, 78240, Note_on_c, 9, 40, 80
1, 78240, Note_on_c, 9, 28, 100
1, 78240, Note_on_c, 9, 82, 84
1, 78240, Note_on_c, 9, 42, 80
1, 78250, Note_on_c, 9, 42, 0
1, 78479, Note_on_c, 9, 40, 0
1, 78479, Note_on_c, 9, 28, 0
1, 78479, Note_on_c, 9, 82, 0
1, 78480, Note_on_c, 9, 82, 84
1, 78480, Note_on_c, 9, 42, 80
1, 78490, Note_on_c, 9, 42, 0
1, 78719, Note_on_c, 9, 82, 0
1, 78720, Note_on_c, 9, 82, 84
1, 78720, Note_on_c, 9, 42, 80
1, 78720, Note_on_c, 9, 36, 112
1, 78730, Note_on_c, 9, 42, 0
1, 78959, Note_on_c, 9, 82, 0
1, 78960, Note_on_c, 9, 82, 84
1, 78960, Note_on_c, 9, 42, 80
1, 78964, Note_on_c, 9, 42, 0
1, 79079, Note_on_c, 9, 82, 0
1, 79080, Note_on_c, 9, 82, 84
1, 79080, Note_on_c, 9, 42, 80
1, 79084, Note_on_c, 9, 42, 0
1, 79199, Note_on_c, 9, 36, 0
1, 79199, Note_on_c, 9, 82, 0
1, 79200, Note_on_c, 9, 40, 80
1, 79200, Note_on_c, 9, 28, 100
1, 79200, Note_on_c, 9, 82, 84
1, 79200, Note_on_c, 9, 42, 80
1, 79210, Note_on_c, 9, 42, 0
1, 79439, Note_on_c, 9, 40, 0
1, 79439, Note_on_c, 9, 28, 0
1, 79439, Note_on_c, 9, 82, 0
1, 79440, Note_on_c, 9, 82, 84
1, 79440, Note_on_c, 9, 42, 80
1, 79440, Note_on_c, 9, 36, 112
1, 79450, Note_on_c, 9, 42, 0
1, 79679, Note_on_c, 9, 82, 0
1, 79679, Note_on_c, 9, 36, 0
1, 79680, Note_on_c, 9, 82, 84
1, 79680, Note_on_c, 9, 42, 80
1, 79690, Note_on_c, 9, 42, 0
1, 79919, Note_on_c, 9, 82, 0
1, 79920, Note_on_c, 9, 82, 84
1, 79920, Note_on_c, 9, 42, 80
1, 79930, Note_on_c, 9, 42, 0
1, 80159, Note_on_c, 9, 82, 0
1, 80160, Note_on_c, 9, 40, 80
1, 80160, Note_on_c, 9, 28, 100
1, 80160, Note_on_c, 9, 82, 84
1, 80160, Note_on_c, 9, 42, 80
1, 80170, Note_on_c, 9, 42, 0
1, 80399, Note_on_c, 9, 40, 0
1, 80399, Note_on_c, 9, 28, 0
1, 80399, Note_on_c, 9, 82, 0
1, 80400, Note_on_c, 9, 82, 84
1, 80400, Note_on_c, 9, 42, 80
1, 80410, Note_on_c, 9, 42, 0
1, 80639, Note_on_c, 9, 82, 0
1, 80640, Note_on_c, 9, 82, 84
1, 80640, Note_on_c, 9, 42, 80
1, 80640, Note_on_c, 9, 36, 112
1, 80650, Note_on_c, 9, 42, 0
1, 80879, Note_on_c, 9, 82, 0
1, 80880, Note_on_c, 9, 82, 84
1, 80880, Note_on_c, 9, 42, 80
1, 80884, Note_on_c, 9, 42, 0
1, 80999, Note_on_c, 9, 82, 0
1, 81000, Note_on_c, 9, 82, 84
1, 81000, Note_on_c, 9, 42, 80
1, 81004, Note_on_c, 9, 42, 0
1, 81119, Note_on_c, 9, 36, 0
1, 81119, Note_on_c, 9, 82, 0
1, 81120, Note_on_c, 9, 40, 80
1, 81120, Note_on_c, 9, 28, 100
1, 81120, Note_on_c, 9, 82, 84
1, 81120, Note_on_c, 9, 42, 80
1, 81130, Note_on_c, 9, 42, 0
1, 81359, Note_on_c, 9, 40, 0
1, 81359, Note_on_c, 9, 28, 0
1, 81359, Note_on_c, 9, 82, 0
1, 81360, Note_on_c, 9, 82, 84
1, 81360, Note_on_c, 9, 42, 80
1, 81360, Note_on_c, 9, 36, 112
1, 81370, Note_on_c, 9, 42, 0
1, 81599, Note_on_c, 9, 82, 0
1, 81599, Note_on_c, 9, 36, 0
1, 81600, Note_on_c, 9, 82, 84
1, 81600, Note_on_c, 9, 42, 80
1, 81610, Note_on_c, 9, 42, 0
1, 81839, Note_on_c, 9, 82, 0
1, 81840, Note_on_c, 9, 82, 84
1, 81840, Note_on_c, 9, 42, 80
1, 81850, Note_on_c, 9, 42, 0
1, 82079, Note_on_c, 9, 82, 0
1, 82080, Note_on_c, 9, 40, 80
1, 82080, Note_on_c, 9, 28, 100
1, 82080, Note_on_c, 9, 82, 84
1, 82080, Note_on_c, 9, 42, 80
1, 82090, Note_on_c, 9, 42, 0
1, 82319, Note_on_c, 9, 40, 0
1, 82319, Note_on_c, 9, 28, 0
1, 82319, Note_on_c, 9, 82, 0
1, 82320, Note_on_c, 9, 82, 84
1, 82320, Note_on_c, 9, 42, 80
1, 82330, Note_on_c, 9, 42, 0
1, 82559, Note_on_c, 9, 82, 0
1, 82560, Note_on_c, 9, 82, 84
1, 82560, Note_on_c, 9, 42, 80
1, 82570, Note_on_c, 9, 42, 0
1, 82799, Note_on_c, 9, 82, 0
1, 82800, Note_on_c, 9, 82, 84
1, 82800, Note_on_c, 9, 42, 80
1, 82800, Note_on_c, 9, 36, 112
1, 82804, Note_on_c, 9, 42, 0
1, 82919, Note_on_c, 9, 82, 0
1, 82919, Note_on_c, 9, 36, 0
1, 82920, Note_on_c, 9, 42, 80
1, 82920, Note_on_c, 9, 36, 112
1, 82924, Note_on_c, 9, 42, 0
1, 83039, Note_on_c, 9, 36, 0
1, 83040, Note_on_c, 9, 40, 80
1, 83040, Note_on_c, 9, 28, 100
1, 83040, Note_on_c, 9, 82, 84
1, 83040, Note_on_c, 9, 42, 80
1, 83050, Note_on_c, 9, 42, 0
1, 83279, Note_on_c, 9, 40, 0
1, 83279, Note_on_c, 9, 28, 0
1, 83279, Note_on_c, 9, 82, 0
1, 83280, Note_on_c, 9, 82, 84
1, 83280, Note_on_c, 9, 42, 80
1, 83280, Note_on_c, 9, 36, 112
1, 83290, Note_on_c, 9, 42, 0
1, 83519, Note_on_c, 9, 82, 0
1, 83519, Note_on_c, 9, 36, 0
1, 83520, Note_on_c, 9, 82, 84
1, 83520, Note_on_c, 9, 42, 80
1, 83530, Note_on_c, 9, 42, 0
1, 83759, Note_on_c, 9, 82, 0
1, 83760, Note_on_c, 9, 82, 84
1, 83760, Note_on_c, 9, 42, 80
1, 83770, Note_on_c, 9, 42, 0
1, 83999, Note_on_c, 9, 82, 0
1, 84000, Note_on_c, 9, 40, 80
1, 84000, Note_on_c, 9, 28, 100
1, 84000, Note_on_c, 9, 82, 84
1, 84000, Note_on_c, 9, 42, 80
1, 84000, Note_on_c, 9, 36, 112
1, 84010, Note_on_c, 9, 42, 0
1, 84239, Note_on_c, 9, 40, 0
1, 84239, Note_on_c, 9, 28, 0
1, 84239, Note_on_c, 9, 82, 0
1, 84240, Note_on_c, 9, 82, 84
1, 84240, Note_on_c, 9, 42, 80
1, 84244, Note_on_c, 9, 42, 0
1, 84359, Note_on_c, 9, 82, 0
1, 84360, Note_on_c, 9, 40, 80
1, 84360, Note_on_c, 9, 28, 100
1, 84479, Note_on_c, 9, 36, 0
1, 84479, Note_on_c, 9, 40, 0
1, 84479, Note_on_c, 9, 28, 0
1, 84480, Note_on_c, 9, 82, 84
1, 84480, Note_on_c, 9, 42, 80
1, 84480, Note_on_c, 9, 36, 112
1, 84490, Note_on_c, 9, 42, 0
1, 84719, Note_on_c, 9, 82, 0
1, 84720, Note_on_c, 9, 82, 84
1, 84720, Note_on_c, 9, 42, 80
1, 84724, Note_on_c, 9, 42, 0
1, 84839, Note_on_c, 9, 82, 0
1, 84840, Note_on_c, 9, 82, 84
1, 84840, Note_on_c, 9, 42, 80
1, 84844, Note_on_c, 9, 42, 0
1, 84959, Note_on_c, 9, 36, 0
1, 84959, Note_on_c, 9, 82, 0
1, 84960, Note_on_c, 9, 40, 80
1, 84960, Note_on_c, 9, 28, 100
1, 84960, Note_on_c, 9, 82, 84
1, 84960, Note_on_c, 9, 42, 80
1, 84970, Note_on_c, 9, 42, 0
1, 85199, Note_on_c, 9, 40, 0
1, 85199, Note_on_c, 9, 28, 0
1, 85199, Note_on_c, 9, 82, 0
1, 85200, Note_on_c, 9, 82, 84
1, 85200, Note_on_c, 9, 42, 80
1, 85200, Note_on_c, 9, 36, 112
1, 85210, Note_on_c, 9, 42, 0
1, 85439, Note_on_c, 9, 82, 0
1, 85439, Note_on_c, 9, 36, 0
1, 85440, Note_on_c, 9, 82, 84
1, 85440, Note_on_c, 9, 42, 80
1, 85450, Note_on_c, 9, 42, 0
1, 85679, Note_on_c, 9, 82, 0
1, 85680, Note_on_c, 9, 82, 84
1, 85680, Note_on_c, 9, 42, 80
1, 85690, Note_on_c, 9, 42, 0
1, 85919, Note_on_c, 9, 82, 0
1, 85920, Note_on_c, 9, 40, 80
1, 85920, Note_on_c, 9, 28, 100
1, 85920, Note_on_c, 9, 82, 84
1, 85920, Note_on_c, 9, 42, 80
1, 85930, Note_on_c, 9, 42, 0
1, 86159, Note_on_c, 9, 40, 0
1, 86159, Note_on_c, 9, 28, 0
1, 86159, Note_on_c, 9, 82, 0
1, 86160, Note_on_c, 9, 82, 84
1, 86160, Note_on_c, 9, 42, 80
1, 86170, Note_on_c, 9, 42, 0
1, 86399, Note_on_c, 9, 82, 0
1, 86400, Note_on_c, 9, 82, 84
1, 86400, Note_on_c, 9, 42, 80
1, 86400, Note_on_c, 9, 36, 112
1, 86410, Note_on_c, 9, 42, 0
1, 86639, Note_on_c, 9, 82, 0
1, 86640, Note_on_c, 9, 82, 84
1, 86640, Note_on_c, 9, 42, 80
1, 86644, Note_on_c, 9, 42, 0
1, 86759, Note_on_c, 9, 82, 0
1, 86760, Note_on_c, 9, 82, 84
1, 86760, Note_on_c, 9, 42, 80
1, 86764, Note_on_c, 9, 42, 0
1, 86879, Note_on_c, 9, 36, 0
1, 86879, Note_on_c, 9, 82, 0
1, 86880, Note_on_c, 9, 40, 80
1, 86880, Note_on_c, 9, 28, 100
1, 86880, Note_on_c, 9, 82, 84
1, 86880, Note_on_c, 9, 42, 80
1, 86890, Note_on_c, 9, 42, 0
1, 87119, Note_on_c, 9, 40, 0
1, 87119, Note_on_c, 9, 28, 0
1, 87119, Note_on_c, 9, 82, 0
1, 87120, Note_on_c, 9, 82, 84
1, 87120, Note_on_c, 9, 42, 80
1, 87120, Note_on_c, 9, 36, 112
1, 87130, Note_on_c, 9, 42, 0
1, 87359, Note_on_c, 9, 82, 0
1, 87359, Note_on_c, 9, 36, 0
1, 87360, Note_on_c, 9, 82, 84
1, 87360, Note_on_c, 9, 42, 80
1, 87370, Note_on_c, 9, 42, 0
1, 87599, Note_on_c, 9, 82, 0
1, 87600, Note_on_c, 9, 82, 84
1, 87600, Note_on_c, 9, 42, 80
1, 87610, Note_on_c, 9, 42, 0
1, 87839, Note_on_c, 9, 82, 0
1, 87840, Note_on_c, 9, 40, 80
1, 87840, Note_on_c, 9, 28, 100
1, 87840, Note_on_c, 9, 82, 84
1, 87840, Note_on_c, 9, 42, 80
1, 87850, Note_on_c, 9, 42, 0
1, 88079, Note_on_c, 9, 40, 0
1, 88079, Note_on_c, 9, 28, 0
1, 88079, Note_on_c, 9, 82, 0
1, 88080, Note_on_c, 9, 82, 84
1, 88080, Note_on_c, 9, 42, 80
1, 88090, Note_on_c, 9, 42, 0
1, 88319, Note_on_c, 9, 82, 0
1, 88320, Note_on_c, 9, 82, 84
1, 88320, Note_on_c, 9, 42, 80
1, 88320, Note_on_c, 9, 36, 112
1, 88330, Note_on_c, 9, 42, 0
1, 88559, Note_on_c, 9, 82, 0
1, 88560, Note_on_c, 9, 82, 84
1, 88560, Note_on_c, 9, 42, 80
1, 88564, Note_on_c, 9, 42, 0
1, 88679, Note_on_c, 9, 82, 0
1, 88680, Note_on_c, 9, 82, 84
1, 88680, Note_on_c, 9, 42, 80
1, 88684, Note_on_c, 9, 42, 0
1, 88799, Note_on_c, 9, 36, 0
1, 88799, Note_on_c, 9, 82, 0
1, 88800, Note_on_c, 9, 40, 80
1, 88800, Note_on_c, 9, 28, 100
1, 88800, Note_on_c, 9, 82, 84
1, 88800, Note_on_c, 9, 42, 80
1, 88810, Note_on_c, 9, 42, 0
1, 89039, Note_on_c, 9, 40, 0
1, 89039, Note_on_c, 9, 28, 0
1, 89039, Note_on_c, 9, 82, 0
1, 89040, Note_on_c, 9, 82, 84
1, 89040, Note_on_c, 9, 42, 80
1, 89040, Note_on_c, 9, 36, 112
1, 89050, Note_on_c, 9, 42, 0
1, 89279, Note_on_c, 9, 82, 0
1, 89279, Note_on_c, 9, 36, 0
1, 89280, Note_on_c, 9, 82, 84
1, 89280, Note_on_c, 9, 42, 80
1, 89290, Note_on_c, 9, 42, 0
1, 89519, Note_on_c, 9, 82, 0
1, 89520, Note_on_c, 9, 82, 84
1, 89520, Note_on_c, 9, 42, 80
1, 89530, Note_on_c, 9, 42, 0
1, 89759, Note_on_c, 9, 82, 0
1, 89760, Note_on_c, 9, 40, 80
1, 89760, Note_on_c, 9, 28, 100
1, 89760, Note_on_c, 9, 82, 84
1, 89760, Note_on_c, 9, 42, 80
1, 89770, Note_on_c, 9, 42, 0
1, 89999, Note_on_c, 9, 40, 0
1, 89999, Note_on_c, 9, 28, 0
1, 89999, Note_on_c, 9, 82, 0
1, 90000, Note_on_c, 9, 82, 84
1, 90000, Note_on_c, 9, 42, 80
1, 90010, Note_on_c, 9, 42, 0
1, 90239, Note_on_c, 9, 82, 0
1, 90240, Note_on_c, 9, 82, 84
1, 90240, Note_on_c, 9, 42, 80
1, 90250, Note_on_c, 9, 42, 0
1, 90479, Note_on_c, 9, 82, 0
1, 90480, Note_on_c, 9, 82, 84
1, 90480, Note_on_c, 9, 42, 80
1, 90480, Note_on_c, 9, 36, 112
1, 90484, Note_on_c, 9, 42, 0
1, 90599, Note_on_c, 9, 82, 0
1, 90600, Note_on_c, 9, 42, 80
1, 90604, Note_on_c, 9, 42, 0
1, 90719, Note_on_c, 9, 36, 0
1, 90720, Note_on_c, 9, 40, 80
1, 90720, Note_on_c, 9, 28, 100
1, 90720, Note_on_c, 9, 82, 84
1, 90720, Note_on_c, 9, 42, 80
1, 90730, Note_on_c, 9, 42, 0
1, 90959, Note_on_c, 9, 40, 0
1, 90959, Note_on_c, 9, 28, 0
1, 90959, Note_on_c, 9, 82, 0
1, 90960, Note_on_c, 9, 82, 84
1, 90960, Note_on_c, 9, 42, 80
1, 90960, Note_on_c, 9, 36, 112
1, 90970, Note_on_c, 9, 42, 0
1, 91199, Note_on_c, 9, 82, 0
1, 91199, Note_on_c, 9, 36, 0
1, 91200, Note_on_c, 9, 32, 95
1, 91679, Note_on_c, 9, 32, 0
1, 91920, Note_on_c, 9, 29, 97
1, 92159, Note_on_c, 9, 29, 0
1, 92160, Note_on_c, 9, 82, 84
1, 92160, Note_on_c, 9, 42, 80
1, 92160, Note_on_c, 9, 36, 112
1, 92170, Note_on_c, 9, 42, 0
1, 92399, Note_on_c, 9, 82, 0
1, 92400, Note_on_c, 9, 82, 84
1, 92400, Note_on_c, 9, 42, 80
1, 92404, Note_on_c, 9, 42, 0
1, 92519, Note_on_c, 9, 82, 0
1, 92520, Note_on_c, 9, 82, 84
1, 92520, Note_on_c, 9, 42, 80
1, 92524, Note_on_c, 9, 42, 0
1, 92639, Note_on_c, 9, 36, 0
1, 92639, Note_on_c, 9, 82, 0
1, 92640, Note_on_c, 9, 40, 80
1, 92640, Note_on_c, 9, 28, 100
1, 92640, Note_on_c, 9, 82, 84
1, 92640, Note_on_c, 9, 42, 80
1, 92650, Note_on_c, 9, 42, 0
1, 92879, Note_on_c, 9, 40, 0
1, 92879, Note_on_c, 9, 28, 0
1, 92879, Note_on_c, 9, 82, 0
1, 92880, Note_on_c, 9, 82, 84
1, 92880, Note_on_c, 9, 42, 80
1, 92880, Note_on_c, 9, 36, 112
1, 92890, Note_on_c, 9, 42, 0
1, 93119, Note_on_c, 9, 82, 0
1, 93119, Note_on_c, 9, 36, 0
1, 93120, Note_on_c, 9, 82, 84
1, 93120, Note_on_c, 9, 42, 80
1, 93130, Note_on_c, 9, 42, 0
1, 93359, Note_on_c, 9, 82, 0
1, 93360, Note_on_c, 9, 82, 84
1, 93360, Note_on_c, 9, 42, 80
1, 93370, Note_on_c, 9, 42, 0
1, 93599, Note_on_c, 9, 82, 0
1, 93600, Note_on_c, 9, 40, 80
1, 93600, Note_on_c, 9, 28, 100
1, 93600, Note_on_c, 9, 82, 84
1, 93600, Note_on_c, 9, 42, 80
1, 93610, Note_on_c, 9, 42, 0
1, 93839, Note_on_c, 9, 40, 0
1, 93839, Note_on_c, 9, 28, 0
1, 93839, Note_on_c, 9, 82, 0
1, 93840, Note_on_c, 9, 82, 84
1, 93840, Note_on_c, 9, 42, 80
1, 93850, Note_on_c, 9, 42, 0
1, 94079, Note_on_c, 9, 82, 0
1, 94080, Note_on_c, 9, 82, 84
1, 94080, Note_on_c, 9, 42, 80
1, 94080, Note_on_c, 9, 36, 112
1, 94090, Note_on_c, 9, 42, 0
1, 94319, Note_on_c, 9, 82, 0
1, 94320, Note_on_c, 9, 82, 84
1, 94320, Note_on_c, 9, 42, 80
1, 94324, Note_on_c, 9, 42, 0
1, 94439, Note_on_c, 9, 82, 0
1, 94440, Note_on_c, 9, 82, 84
1, 94440, Note_on_c, 9, 42, 80
1, 94444, Note_on_c, 9, 42, 0
1, 94559, Note_on_c, 9, 36, 0
1, 94559, Note_on_c, 9, 82, 0
1, 94560, Note_on_c, 9, 40, 80
1, 94560, Note_on_c, 9, 28, 100
1, 94560, Note_on_c, 9, 82, 84
1, 94560, Note_on_c, 9, 42, 80
1, 94570, Note_on_c, 9, 42, 0
1, 94799, Note_on_c, 9, 40, 0
1, 94799, Note_on_c, 9, 28, 0
1, 94799, Note_on_c, 9, 82, 0
1, 94800, Note_on_c, 9, 82, 84
1, 94800, Note_on_c, 9, 42, 80
1, 94800, Note_on_c, 9, 36, 112
1, 94810, Note_on_c, 9, 42, 0
1, 95039, Note_on_c, 9, 82, 0
1, 95039, Note_on_c, 9, 36, 0
1, 95040, Note_on_c, 9, 82, 84
1, 95040, Note_on_c, 9, 42, 80
1, 95050, Note_on_c, 9, 42, 0
1, 95279, Note_on_c, 9, 82, 0
1, 95280, Note_on_c, 9, 82, 84
1, 95280, Note_on_c, 9, 42, 80
1, 95290, Note_on_c, 9, 42, 0
1, 95519, Note_on_c, 9, 82, 0
1, 95520, Note_on_c, 9, 40, 80
1, 95520, Note_on_c, 9, 28, 100
1, 95520, Note_on_c, 9, 82, 84
1, 95520, Note_on_c, 9, 42, 80
1, 95530, Note_on_c, 9, 42, 0
1, 95759, Note_on_c, 9, 40, 0
1, 95759, Note_on_c, 9, 28, 0
1, 95759, Note_on_c, 9, 82, 0
1, 95760, Note_on_c, 9, 82, 84
1, 95760, Note_on_c, 9, 42, 80
1, 95764, Note_on_c, 9, 42, 0
1, 95879, Note_on_c, 9, 82, 0
1, 95880, Note_on_c, 9, 40, 64
1, 95880, Note_on_c, 9, 28, 100
1, 95999, Note_on_c, 9, 40, 0
1, 95999, Note_on_c, 9, 28, 0
1, 96000, Note_on_c, 9, 82, 84
1, 96000, Note_on_c, 9, 42, 80
1, 96000, Note_on_c, 9, 36, 112
1, 96010, Note_on_c, 9, 42, 0
1, 96239, Note_on_c, 9, 82, 0
1, 96240, Note_on_c, 9, 82, 84
1, 96240, Note_on_c, 9, 42, 80
1, 96244, Note_on_c, 9, 42, 0
1, 96359, Note_on_c, 9, 82, 0
1, 96360, Note_on_c, 9, 82, 84
1, 96360, Note_on_c, 9, 42, 80
1, 96364, Note_on_c, 9, 42, 0
1, 96479, Note_on_c, 9, 36, 0
1, 96479, Note_on_c, 9, 82, 0
1, 96480, Note_on_c, 9, 40, 80
1, 96480, Note_on_c, 9, 28, 100
1, 96480, Note_on_c, 9, 82, 84
1, 96480, Note_on_c, 9, 42, 80
1, 96490, Note_on_c, 9, 42, 0
1, 96719, Note_on_c, 9, 40, 0
1, 96719, Note_on_c, 9, 28, 0
1, 96719, Note_on_c, 9, 82, 0
1, 96720, Note_on_c, 9, 82, 84
1, 96720, Note_on_c, 9, 42, 80
1, 96720, Note_on_c, 9, 36, 112
1, 96730, Note_on_c, 9, 42, 0
1, 96959, Note_on_c, 9, 82, 0
1, 96959, Note_on_c, 9, 36, 0
1, 96960, Note_on_c, 9, 82, 84
1, 96960, Note_on_c, 9, 42, 80
1, 96970, Note_on_c, 9, 42, 0
1, 97199, Note_on_c, 9, 82, 0
1, 97200, Note_on_c, 9, 82, 84
1, 97200, Note_on_c, 9, 42, 80
1, 97210, Note_on_c, 9, 42, 0
1, 97439, Note_on_c, 9, 82, 0
1, 97440, Note_on_c, 9, 40, 80
1, 97440, Note_on_c, 9, 28, 100
1, 97440, Note_on_c, 9, 82, 84
1, 97440, Note_on_c, 9, 42, 80
1, 97450, Note_on_c, 9, 42, 0
1, 97679, Note_on_c, 9, 40, 0
1, 97679, Note_on_c, 9, 28, 0
1, 97679, Note_on_c, 9, 82, 0
1, 97680, Note_on_c, 9, 82, 84
1, 97680, Note_on_c, 9, 42, 80
1, 97690, Note_on_c, 9, 42, 0
1, 97919, Note_on_c, 9, 82, 0
1, 97920, Note_on_c, 9, 82, 84
1, 97920, Note_on_c, 9, 42, 80
1, 97920, Note_on_c, 9, 36, 112
1, 97930, Note_on_c, 9, 42, 0
1, 98159, Note_on_c, 9, 82, 0
1, 98160, Note_on_c, 9, 82, 84
1, 98160, Note_on_c, 9, 42, 80
1, 98164, Note_on_c, 9, 42, 0
1, 98279, Note_on_c, 9, 82, 0
1, 98280, Note_on_c, 9, 82, 84
1, 98280, Note_on_c, 9, 42, 80
1, 98284, Note_on_c, 9, 42, 0
1, 98399, Note_on_c, 9, 36, 0
1, 98399, Note_on_c, 9, 82, 0
1, 98400, Note_on_c, 9, 40, 80
1, 98400, Note_on_c, 9, 28, 100
1, 98400, Note_on_c, 9, 82, 84
1, 98400, Note_on_c, 9, 42, 80
1, 98410, Note_on_c, 9, 42, 0
1, 98639, Note_on_c, 9, 40, 0
1, 98639, Note_on_c, 9, 28, 0
1, 98639, Note_on_c, 9, 82, 0
1, 98640, Note_on_c, 9, 82, 84
1, 98640, Note_on_c, 9, 42, 80
1, 98640, Note_on_c, 9, 36, 112
1, 98650, Note_on_c, 9, 42, 0
1, 98879, Note_on_c, 9, 82, 0
1, 98879, Note_on_c, 9, 36, 0
1, 98880, Note_on_c, 9, 82, 84
1, 98880, Note_on_c, 9, 42, 80
1, 98890, Note_on_c, 9, 42, 0
1, 99119, Note_on_c, 9, 82, 0
1, 99120, Note_on_c, 9, 82, 84
1, 99120, Note_on_c, 9, 42, 80
1, 99130, Note_on_c, 9, 42, 0
1, 99359, Note_on_c, 9, 82, 0
1, 99360, Note_on_c, 9, 40, 80
1, 99360, Note_on_c, 9, 28, 100
1, 99360, Note_on_c, 9, 82, 84
1, 99360, Note_on_c, 9, 42, 80
1, 99370, Note_on_c, 9, 42, 0
1, 99599, Note_on_c, 9, 40, 0
1, 99599, Note_on_c, 9, 28, 0
1, 99599, Note_on_c, 9, 82, 0
1, 99600, Note_on_c, 9, 82, 84
1, 99600, Note_on_c, 9, 42, 80
1, 99610, Note_on_c, 9, 42, 0
1, 99839, Note_on_c, 9, 82, 0
1, 99840, Note_on_c, 9, 82, 84
1, 99840, Note_on_c, 9, 42, 80
1, 99840, Note_on_c, 9, 36, 112
1, 99850, Note_on_c, 9, 42, 0
1, 100079, Note_on_c, 9, 82, 0
1, 100080, Note_on_c, 9, 82, 84
1, 100080, Note_on_c, 9, 42, 80
1, 100084, Note_on_c, 9, 42, 0
1, 100199, Note_on_c, 9, 82, 0
1, 100200, Note_on_c, 9, 82, 84
1, 100200, Note_on_c, 9, 42, 80
1, 100204, Note_on_c, 9, 42, 0
1, 100319, Note_on_c, 9, 36, 0
1, 100319, Note_on_c, 9, 82, 0
1, 100320, Note_on_c, 9, 40, 80
1, 100320, Note_on_c, 9, 28, 100
1, 100320, Note_on_c, 9, 82, 84
1, 100320, Note_on_c, 9, 42, 80
1, 100330, Note_on_c, 9, 42, 0
1, 100559, Note_on_c, 9, 40, 0
1, 100559, Note_on_c, 9, 28, 0
1, 100559, Note_on_c, 9, 82, 0
1, 100560, Note_on_c, 9, 82, 84
1, 100560, Note_on_c, 9, 42, 80
1, 100560, Note_on_c, 9, 36, 112
1, 100570, Note_on_c, 9, 42, 0
1, 100799, Note_on_c, 9, 82, 0
1, 100799, Note_on_c, 9, 36, 0
1, 100800, Note_on_c, 9, 82, 84
1, 100800, Note_on_c, 9, 42, 80
1, 100810, Note_on_c, 9, 42, 0
1, 101039, Note_on_c, 9, 82, 0
1, 101040, Note_on_c, 9, 82, 84
1, 101040, Note_on_c, 9, 42, 80
1, 101050, Note_on_c, 9, 42, 0
1, 101279, Note_on_c, 9, 82, 0
1, 101280, Note_on_c, 9, 40, 80
1, 101280, Note_on_c, 9, 28, 100
1, 101280, Note_on_c, 9, 82, 84
1, 101280, Note_on_c, 9, 42, 80
1, 101290, Note_on_c, 9, 42, 0
1, 101519, Note_on_c, 9, 40, 0
1, 101519, Note_on_c, 9, 28, 0
1, 101519, Note_on_c, 9, 82, 0
1, 101520, Note_on_c, 9, 82, 84
1, 101520, Note_on_c, 9, 42, 80
1, 101530, Note_on_c, 9, 42, 0
1, 101759, Note_on_c, 9, 82, 0
1, 101760, Note_on_c, 9, 82, 84
1, 101760, Note_on_c, 9, 42, 80
1, 101760, Note_on_c, 9, 36, 112
1, 101770, Note_on_c, 9, 42, 0
1, 101999, Note_on_c, 9, 82, 0
1, 102000, Note_on_c, 9, 82, 84
1, 102000, Note_on_c, 9, 42, 80
1, 102004, Note_on_c, 9, 42, 0
1, 102119, Note_on_c, 9, 82, 0
1, 102120, Note_on_c, 9, 82, 84
1, 102120, Note_on_c, 9, 42, 80
1, 102124, Note_on_c, 9, 42, 0
1, 102239, Note_on_c, 9, 36, 0
1, 102239, Note_on_c, 9, 82, 0
1, 102240, Note_on_c, 9, 40, 80
1, 102240, Note_on_c, 9, 28, 100
1, 102240, Note_on_c, 9, 82, 84
1, 102240, Note_on_c, 9, 42, 80
1, 102250, Note_on_c, 9, 42, 0
1, 102479, Note_on_c, 9, 40, 0
1, 102479, Note_on_c, 9, 28, 0
1, 102479, Note_on_c, 9, 82, 0
1, 102480, Note_on_c, 9, 82, 84
1, 102480, Note_on_c, 9, 42, 80
1, 102480, Note_on_c, 9, 36, 112
1, 102490, Note_on_c, 9, 42, 0
1, 102719, Note_on_c, 9, 82, 0
1, 102719, Note_on_c, 9, 36, 0
1, 102720, Note_on_c, 9, 82, 84
1, 102720, Note_on_c, 9, 42, 80
1, 102730, Note_on_c, 9, 42, 0
1, 102959, Note_on_c, 9, 82, 0
1, 102960, Note_on_c, 9, 82, 84
1, 102960, Note_on_c, 9, 42, 80
1, 102970, Note_on_c, 9, 42, 0
1, 103199, Note_on_c, 9, 82, 0
1, 103200, Note_on_c, 9, 40, 80
1, 103200, Note_on_c, 9, 28, 100
1, 103200, Note_on_c, 9, 82, 84
1, 103200, Note_on_c, 9, 42, 80
1, 103210, Note_on_c, 9, 42, 0
1, 103439, Note_on_c, 9, 40, 0
1, 103439, Note_on_c, 9, 28, 0
1, 103439, Note_on_c, 9, 82, 0
1, 103440, Note_on_c, 9, 82, 84
1, 103440, Note_on_c, 9, 42, 80
1, 103444, Note_on_c, 9, 42, 0
1, 103559, Note_on_c, 9, 82, 0
1, 103560, Note_on_c, 9, 40, 64
1, 103560, Note_on_c, 9, 28, 100
1, 103679, Note_on_c, 9, 40, 0
1, 103679, Note_on_c, 9, 28, 0
1, 103680, Note_on_c, 9, 82, 84
1, 103680, Note_on_c, 9, 42, 80
1, 103680, Note_on_c, 9, 36, 112
1, 103690, Note_on_c, 9, 42, 0
1, 103919, Note_on_c, 9, 82, 0
1, 103920, Note_on_c, 9, 82, 84
1, 103920, Note_on_c, 9, 42, 80
1, 103924, Note_on_c, 9, 42, 0
1, 104039, Note_on_c, 9, 82, 0
1, 104040, Note_on_c, 9, 82, 84
1, 104040, Note_on_c, 9, 42, 80
1, 104044, Note_on_c, 9, 42, 0
1, 104159, Note_on_c, 9, 36, 0
1, 104159, Note_on_c, 9, 82, 0
1, 104160, Note_on_c, 9, 40, 80
1, 104160, Note_on_c, 9, 28, 100
1, 104160, Note_on_c, 9, 82, 84
1, 104160, Note_on_c, 9, 42, 80
1, 104170, Note_on_c, 9, 42, 0
1, 104399, Note_on_c, 9, 40, 0
1, 104399, Note_on_c, 9, 28, 0
1, 104399, Note_on_c, 9, 82, 0
1, 104400, Note_on_c, 9, 82, 84
1, 104400, Note_on_c, 9, 42, 80
1, 104400, Note_on_c, 9, 36, 112
1, 104410, Note_on_c, 9, 42, 0
1, 104639, Note_on_c, 9, 82, 0
1, 104639, Note_on_c, 9, 36, 0
1, 104640, Note_on_c, 9, 82, 84
1, 104640, Note_on_c, 9, 42, 80
1, 104650, Note_on_c, 9, 42, 0
1, 104879, Note_on_c, 9, 82, 0
1, 104880, Note_on_c, 9, 82, 84
1, 104880, Note_on_c, 9, 42, 80
1, 104890, Note_on_c, 9, 42, 0
1, 105119, Note_on_c, 9, 82, 0
1, 105120, Note_on_c, 9, 40, 80
1, 105120, Note_on_c, 9, 28, 100
1, 105120, Note_on_c, 9, 82, 84
1, 105120, Note_on_c, 9, 42, 80
1, 105130, Note_on_c, 9, 42, 0
1, 105359, Note_on_c, 9, 40, 0
1, 105359, Note_on_c, 9, 28, 0
1, 105359, Note_on_c, 9, 82, 0
1, 105360, Note_on_c, 9, 82, 84
1, 105360, Note_on_c, 9, 42, 80
1, 105370, Note_on_c, 9, 42, 0
1, 105599, Note_on_c, 9, 82, 0
1, 105600, Note_on_c, 9, 82, 84
1, 105600, Note_on_c, 9, 42, 80
1, 105610, Note_on_c, 9, 42, 0
1, 105839, Note_on_c, 9, 82, 0
1, 105840, Note_on_c, 9, 46, 50
1, 105840, Note_on_c, 9, 42, 80
1, 105840, Note_on_c, 9, 36, 112
1, 105844, Note_on_c, 9, 46, 0
1, 105844, Note_on_c, 9, 42, 0
1, 105960, Note_on_c, 9, 42, 80
1, 105964, Note_on_c, 9, 42, 0
1, 106079, Note_on_c, 9, 36, 0
1, 106080, Note_on_c, 9, 40, 80
1, 106080, Note_on_c, 9, 28, 100
1, 106080, Note_on_c, 9, 82, 84
1, 106080, Note_on_c, 9, 42, 80
1, 106090, Note_on_c, 9, 42, 0
1, 106319, Note_on_c, 9, 40, 0
1, 106319, Note_on_c, 9, 28, 0
1, 106319, Note_on_c, 9, 82, 0
1, 106320, Note_on_c, 9, 46, 50
1, 106320, Note_on_c, 9, 42, 80
1, 106320, Note_on_c, 9, 36, 112
1, 106330, Note_on_c, 9, 46, 0
1, 106330, Note_on_c, 9, 42, 0
1, 106559, Note_on_c, 9, 36, 0
1, 106800, Note_on_c, 9, 29, 97
1, 107039, Note_on_c, 9, 29, 0
1, 107520, Note_on_c, 9, 82, 84
1, 107520, Note_on_c, 9, 42, 80
1, 107520, Note_on_c, 9, 36, 112
1, 107530, Note_on_c, 9, 42, 0
1, 107759, Note_on_c, 9, 82, 0
1, 107760, Note_on_c, 9, 82, 84
1, 107760, Note_on_c, 9, 42, 80
1, 107764, Note_on_c, 9, 42, 0
1, 107879, Note_on_c, 9, 82, 0
1, 107880, Note_on_c, 9, 82, 84
1, 107880, Note_on_c, 9, 42, 80
1, 107884, Note_on_c, 9, 42, 0
1, 107999, Note_on_c, 9, 36, 0
1, 107999, Note_on_c, 9, 82, 0
1, 108000, Note_on_c, 9, 40, 80
1, 108000, Note_on_c, 9, 28, 100
1, 108000, Note_on_c, 9, 82, 84
1, 108000, Note_on_c, 9, 42, 80
1, 108010, Note_on_c, 9, 42, 0
1, 108239, Note_on_c, 9, 40, 0
1, 108239, Note_on_c, 9, 28, 0
1, 108239, Note_on_c, 9, 82, 0
1, 108240, Note_on_c, 9, 82, 84
1, 108240, Note_on_c, 9, 42, 80
1, 108240, Note_on_c, 9, 36, 112
1, 108250, Note_on_c, 9, 42, 0
1, 108479, Note_on_c, 9, 82, 0
1, 108479, Note_on_c, 9, 36, 0
1, 108480, Note_on_c, 9, 82, 84
1, 108480, Note_on_c, 9, 42, 80
1, 108490, Note_on_c, 9, 42, 0
1, 108719, Note_on_c, 9, 82, 0
1, 108720, Note_on_c, 9, 82, 84
1, 108720, Note_on_c, 9, 42, 80
1, 108730, Note_on_c, 9, 42, 0
1, 108959, Note_on_c, 9, 82, 0
1, 108960, Note_on_c, 9, 40, 80
1, 108960, Note_on_c, 9, 28, 100
1, 108960, Note_on_c, 9, 82, 84
1, 108960, Note_on_c, 9, 42, 80
1, 108970, Note_on_c, 9, 42, 0
1, 109199, Note_on_c, 9, 40, 0
1, 109199, Note_on_c, 9, 28, 0
1, 109199, Note_on_c, 9, 82, 0
1, 109200, Note_on_c, 9, 82, 84
1, 109200, Note_on_c, 9, 42, 80
1, 109210, Note_on_c, 9, 42, 0
1, 109439, Note_on_c, 9, 82, 0
1, 109440, Note_on_c, 9, 82, 84
1, 109440, Note_on_c, 9, 42, 80
1, 109440, Note_on_c, 9, 36, 112
1, 109450, Note_on_c, 9, 42, 0
1, 109679, Note_on_c, 9, 82, 0
1, 109680, Note_on_c, 9, 82, 84
1, 109680, Note_on_c, 9, 42, 80
1, 109684, Note_on_c, 9, 42, 0
1, 109799, Note_on_c, 9, 82, 0
1, 109800, Note_on_c, 9, 82, 84
1, 109800, Note_on_c, 9, 42, 80
1, 109804, Note_on_c, 9, 42, 0
1, 109919, Note_on_c, 9, 36, 0
1, 109919, Note_on_c, 9, 82, 0
1, 109920, Note_on_c, 9, 40, 80
1, 109920, Note_on_c, 9, 28, 100
1, 109920, Note_on_c, 9, 82, 84
1, 109920, Note_on_c, 9, 42, 80
1, 109930, Note_on_c, 9, 42, 0
1, 110159, Note_on_c, 9, 40, 0
1, 110159, Note_on_c, 9, 28, 0
1, 110159, Note_on_c, 9, 82, 0
1, 110160, Note_on_c, 9, 82, 84
1, 110160, Note_on_c, 9, 42, 80
1, 110160, Note_on_c, 9, 36, 112
1, 110170, Note_on_c, 9, 42, 0
1, 110399, Note_on_c, 9, 82, 0
1, 110399, Note_on_c, 9, 36, 0
1, 110400, Note_on_c, 9, 82, 84
1, 110400, Note_on_c, 9, 42, 80
1, 110410, Note_on_c, 9, 42, 0
1, 110639, Note_on_c, 9, 82, 0
1, 110640, Note_on_c, 9, 82, 84
1, 110640, Note_on_c, 9, 42, 80
1, 110650, Note_on_c, 9, 42, 0
1, 110879, Note_on_c, 9, 82, 0
1, 110880, Note_on_c, 9, 40, 80
1, 110880, Note_on_c, 9, 28, 100
1, 110880, Note_on_c, 9, 82, 84
1, 110880, Note_on_c, 9, 42, 80
1, 110890, Note_on_c, 9, 42, 0
1, 111119, Note_on_c, 9, 40, 0
1, 111119, Note_on_c, 9, 28, 0
1, 111119, Note_on_c, 9, 82, 0
1, 111120, Note_on_c, 9, 82, 84
1, 111120, Note_on_c, 9, 42, 80
1, 111124, Note_on_c, 9, 42, 0
1, 111239, Note_on_c, 9, 82, 0
1, 111240, Note_on_c, 9, 40, 64
1, 111240, Note_on_c, 9, 28, 100
1, 111359, Note_on_c, 9, 40, 0
1, 111359, Note_on_c, 9, 28, 0
1, 111360, Note_on_c, 9, 82, 84
1, 111360, Note_on_c, 9, 42, 80
1, 111360, Note_on_c, 9, 36, 112
1, 111370, Note_on_c, 9, 42, 0
1, 111599, Note_on_c, 9, 82, 0
1, 111600, Note_on_c, 9, 82, 84
1, 111600, Note_on_c, 9, 42, 80
1, 111604, Note_on_c, 9, 42, 0
1, 111719, Note_on_c, 9, 82, 0
1, 111720, Note_on_c, 9, 82, 84
1, 111720, Note_on_c, 9, 42, 80
1, 111724, Note_on_c, 9, 42, 0
1, 111839, Note_on_c, 9, 36, 0
1, 111839, Note_on_c, 9, 82, 0
1, 111840, Note_on_c, 9, 40, 80
1, 111840, Note_on_c, 9, 28, 100
1, 111840, Note_on_c, 9, 82, 84
1, 111840, Note_on_c, 9, 42, 80
1, 111850, Note_on_c, 9, 42, 0
1, 112079, Note_on_c, 9, 40, 0
1, 112079, Note_on_c, 9, 28, 0
1, 112079, Note_on_c, 9, 82, 0
1, 112080, Note_on_c, 9, 82, 84
1, 112080, Note_on_c, 9, 42, 80
1, 112080, Note_on_c, 9, 36, 112
1, 112090, Note_on_c, 9, 42, 0
1, 112319, Note_on_c, 9, 82, 0
1, 112319, Note_on_c, 9, 36, 0
1, 112320, Note_on_c, 9, 82, 84
1, 112320, Note_on_c, 9, 42, 80
1, 112330, Note_on_c, 9, 42, 0
1, 112559, Note_on_c, 9, 82, 0
1, 112560, Note_on_c, 9, 82, 84
1, 112560, Note_on_c, 9, 42, 80
1, 112570, Note_on_c, 9, 42, 0
1, 112799, Note_on_c, 9, 82, 0
1, 112800, Note_on_c, 9, 40, 80
1, 112800, Note_on_c, 9, 28, 100
1, 112800, Note_on_c, 9, 82, 84
1, 112800, Note_on_c, 9, 42, 80
1, 112810, Note_on_c, 9, 42, 0
1, 113039, Note_on_c, 9, 40, 0
1, 113039, Note_on_c, 9, 28, 0
1, 113039, Note_on_c, 9, 82, 0
1, 113040, Note_on_c, 9, 82, 84
1, 113040, Note_on_c, 9, 42, 80
1, 113050, Note_on_c, 9, 42, 0
1, 113279, Note_on_c, 9, 82, 0
1, 113280, Note_on_c, 9, 82, 84
1, 113280, Note_on_c, 9, 42, 80
1, 113280, Note_on_c, 9, 36, 112
1, 113290, Note_on_c, 9, 42, 0
1, 113519, Note_on_c, 9, 82, 0
1, 113520, Note_on_c, 9, 82, 84
1, 113520, Note_on_c, 9, 42, 80
1, 113524, Note_on_c, 9, 42, 0
1, 113639, Note_on_c, 9, 82, 0
1, 113640, Note_on_c, 9, 82, 84
1, 113640, Note_on_c, 9, 42, 80
1, 113644, Note_on_c, 9, 42, 0
1, 113759, Note_on_c, 9, 36, 0
1, 113759, Note_on_c, 9, 82, 0
1, 113760, Note_on_c, 9, 40, 80
1, 113760, Note_on_c, 9, 28, 100
1, 113760, Note_on_c, 9, 82, 84
1, 113760, Note_on_c, 9, 42, 80
1, 113770, Note_on_c, 9, 42, 0
1, 113999, Note_on_c, 9, 40, 0
1, 113999, Note_on_c, 9, 28, 0
1, 113999, Note_on_c, 9, 82, 0
1, 114000, Note_on_c, 9, 82, 84
1, 114000, Note_on_c, 9, 42, 80
1, 114000, Note_on_c, 9, 36, 112
1, 114010, Note_on_c, 9, 42, 0
1, 114239, Note_on_c, 9, 82, 0
1, 114239, Note_on_c, 9, 36, 0
1, 114240, Note_on_c, 9, 82, 84
1, 114240, Note_on_c, 9, 42, 80
1, 114250, Note_on_c, 9, 42, 0
1, 114479, Note_on_c, 9, 82, 0
1, 114480, Note_on_c, 9, 82, 84
1, 114480, Note_on_c, 9, 42, 80
1, 114490, Note_on_c, 9, 42, 0
1, 114719, Note_on_c, 9, 82, 0
1, 114720, Note_on_c, 9, 40, 80
1, 114720, Note_on_c, 9, 28, 100
1, 114720, Note_on_c, 9, 82, 84
1, 114720, Note_on_c, 9, 42, 80
1, 114730, Note_on_c, 9, 42, 0
1, 114959, Note_on_c, 9, 40, 0
1, 114959, Note_on_c, 9, 28, 0
1, 114959, Note_on_c, 9, 82, 0
1, 114960, Note_on_c, 9, 82, 84
1, 114960, Note_on_c, 9, 42, 80
1, 114970, Note_on_c, 9, 42, 0
1, 115199, Note_on_c, 9, 82, 0
1, 115200, Note_on_c, 9, 82, 84
1, 115200, Note_on_c, 9, 42, 80
1, 115200, Note_on_c, 9, 36, 112
1, 115210, Note_on_c, 9, 42, 0
1, 115439, Note_on_c, 9, 82, 0
1, 115440, Note_on_c, 9, 82, 84
1, 115440, Note_on_c, 9, 42, 80
1, 115444, Note_on_c, 9, 42, 0
1, 115559, Note_on_c, 9, 82, 0
1, 115560, Note_on_c, 9, 82, 84
1, 115560, Note_on_c, 9, 42, 80
1, 115564, Note_on_c, 9, 42, 0
1, 115679, Note_on_c, 9, 36, 0
1, 115679, Note_on_c, 9, 82, 0
1, 115680, Note_on_c, 9, 40, 80
1, 115680, Note_on_c, 9, 28, 100
1, 115680, Note_on_c, 9, 82, 84
1, 115680, Note_on_c, 9, 42, 80
1, 115690, Note_on_c, 9, 42, 0
1, 115919, Note_on_c, 9, 40, 0
1, 115919, Note_on_c, 9, 28, 0
1, 115919, Note_on_c, 9, 82, 0
1, 115920, Note_on_c, 9, 82, 84
1, 115920, Note_on_c, 9, 42, 80
1, 115920, Note_on_c, 9, 36, 112
1, 115930, Note_on_c, 9, 42, 0
1, 116159, Note_on_c, 9, 82, 0
1, 116159, Note_on_c, 9, 36, 0
1, 116160, Note_on_c, 9, 82, 84
1, 116160, Note_on_c, 9, 42, 80
1, 116170, Note_on_c, 9, 42, 0
1, 116399, Note_on_c, 9, 82, 0
1, 116400, Note_on_c, 9, 82, 84
1, 116400, Note_on_c, 9, 42, 80
1, 116410, Note_on_c, 9, 42, 0
1, 116639, Note_on_c, 9, 82, 0
1, 116640, Note_on_c, 9, 40, 80
1, 116640, Note_on_c, 9, 28, 100
1, 116640, Note_on_c, 9, 82, 84
1, 116640, Note_on_c, 9, 42, 80
1, 116650, Note_on_c, 9, 42, 0
1, 116879, Note_on_c, 9, 40, 0
1, 116879, Note_on_c, 9, 28, 0
1, 116879, Note_on_c, 9, 82, 0
1, 116880, Note_on_c, 9, 82, 84
1, 116880, Note_on_c, 9, 42, 80
1, 116890, Note_on_c, 9, 42, 0
1, 117119, Note_on_c, 9, 82, 0
1, 117120, Note_on_c, 9, 82, 84
1, 117120, Note_on_c, 9, 42, 80
1, 117120, Note_on_c, 9, 36, 112
1, 117130, Note_on_c, 9, 42, 0
1, 117359, Note_on_c, 9, 82, 0
1, 117360, Note_on_c, 9, 82, 84
1, 117360, Note_on_c, 9, 42, 80
1, 117364, Note_on_c, 9, 42, 0
1, 117479, Note_on_c, 9, 82, 0
1, 117480, Note_on_c, 9, 82, 84
1, 117480, Note_on_c, 9, 42, 80
1, 117484, Note_on_c, 9, 42, 0
1, 117599, Note_on_c, 9, 36, 0
1, 117599, Note_on_c, 9, 82, 0
1, 117600, Note_on_c, 9, 40, 80
1, 117600, Note_on_c, 9, 28, 100
1, 117600, Note_on_c, 9, 82, 84
1, 117600, Note_on_c, 9, 42, 80
1, 117610, Note_on_c, 9, 42, 0
1, 117839, Note_on_c, 9, 40, 0
1, 117839, Note_on_c, 9, 28, 0
1, 117839, Note_on_c, 9, 82, 0
1, 117840, Note_on_c, 9, 82, 84
1, 117840, Note_on_c, 9, 42, 80
1, 117840, Note_on_c, 9, 36, 112
1, 117850, Note_on_c, 9, 42, 0
1, 118079, Note_on_c, 9, 82, 0
1, 118079, Note_on_c, 9, 36, 0
1, 118080, Note_on_c, 9, 82, 84
1, 118080, Note_on_c, 9, 42, 80
1, 118090, Note_on_c, 9, 42, 0
1, 118319, Note_on_c, 9, 82, 0
1, 118320, Note_on_c, 9, 82, 84
1, 118320, Note_on_c, 9, 42, 80
1, 118330, Note_on_c, 9, 42, 0
1, 118559, Note_on_c, 9, 82, 0
1, 118560, Note_on_c, 9, 40, 80
1, 118560, Note_on_c, 9, 28, 100
1, 118560, Note_on_c, 9, 82, 84
1, 118560, Note_on_c, 9, 42, 80
1, 118570, Note_on_c, 9, 42, 0
1, 118799, Note_on_c, 9, 40, 0
1, 118799, Note_on_c, 9, 28, 0
1, 118799, Note_on_c, 9, 82, 0
1, 118800, Note_on_c, 9, 82, 84
1, 118800, Note_on_c, 9, 42, 80
1, 118804, Note_on_c, 9, 42, 0
1, 118919, Note_on_c, 9, 82, 0
1, 118920, Note_on_c, 9, 40, 64
1, 118920, Note_on_c, 9, 28, 100
1, 119039, Note_on_c, 9, 40, 0
1, 119039, Note_on_c, 9, 28, 0
1, 119040, Note_on_c, 9, 82, 84
1, 119040, Note_on_c, 9, 42, 80
1, 119040, Note_on_c, 9, 36, 112
1, 119050, Note_on_c, 9, 42, 0
1, 119279, Note_on_c, 9, 82, 0
1, 119280, Note_on_c, 9, 82, 84
1, 119280, Note_on_c, 9, 42, 80
1, 119284, Note_on_c, 9, 42, 0
1, 119399, Note_on_c, 9, 82, 0
1, 119400, Note_on_c, 9, 82, 84
1, 119400, Note_on_c, 9, 42, 80
1, 119404, Note_on_c, 9, 42, 0
1, 119519, Note_on_c, 9, 36, 0
1, 119519, Note_on_c, 9, 82, 0
1, 119520, Note_on_c, 9, 40, 80
1, 119520, Note_on_c, 9, 28, 100
1, 119520, Note_on_c, 9, 82, 84
1, 119520, Note_on_c, 9, 42, 80
1, 119530, Note_on_c, 9, 42, 0
1, 119759, Note_on_c, 9, 40, 0
1, 119759, Note_on_c, 9, 28, 0
1, 119759, Note_on_c, 9, 82, 0
1, 119760, Note_on_c, 9, 82, 84
1, 119760, Note_on_c, 9, 42, 80
1, 119760, Note_on_c, 9, 36, 112
1, 119770, Note_on_c, 9, 42, 0
1, 119999, Note_on_c, 9, 82, 0
1, 119999, Note_on_c, 9, 36, 0
1, 120000, Note_on_c, 9, 82, 84
1, 120000, Note_on_c, 9, 42, 80
1, 120010, Note_on_c, 9, 42, 0
1, 120239, Note_on_c, 9, 82, 0
1, 120240, Note_on_c, 9, 82, 84
1, 120240, Note_on_c, 9, 42, 80
1, 120250, Note_on_c, 9, 42, 0
1, 120479, Note_on_c, 9, 82, 0
1, 120480, Note_on_c, 9, 40, 80
1, 120480, Note_on_c, 9, 28, 100
1, 120480, Note_on_c, 9, 82, 84
1, 120480, Note_on_c, 9, 42, 80
1, 120490, Note_on_c, 9, 42, 0
1, 120719, Note_on_c, 9, 40, 0
1, 120719, Note_on_c, 9, 28, 0
1, 120719, Note_on_c, 9, 82, 0
1, 120720, Note_on_c, 9, 82, 84
1, 120720, Note_on_c, 9, 42, 80
1, 120730, Note_on_c, 9, 42, 0
1, 120959, Note_on_c, 9, 82, 0
1, 120960, Note_on_c, 9, 82, 39
1, 121199, Note_on_c, 9, 82, 0
1, 121200, Note_on_c, 9, 46, 79
1, 121200, Note_on_c, 9, 36, 112
1, 121210, Note_on_c, 9, 46, 0
1, 121439, Note_on_c, 9, 36, 0
1, 121440, Note_on_c, 9, 40, 64
1, 121440, Note_on_c, 9, 28, 100
1, 121440, Note_on_c, 9, 82, 84
1, 121440, Note_on_c, 9, 44, 95
1, 121450, Note_on_c, 9, 44, 0
1, 121679, Note_on_c, 9, 40, 0
1, 121679, Note_on_c, 9, 28, 0
1, 121679, Note_on_c, 9, 82, 0
1, 121680, Note_on_c, 9, 46, 79
1, 121680, Note_on_c, 9, 36, 112
1, 121690, Note_on_c, 9, 46, 0
1, 121919, Note_on_c, 9, 36, 0
1, 121920, Note_on_c, 9, 44, 95
1, 121930, Note_on_c, 9, 44, 0
1, 122160, Note_on_c, 9, 36, 96
1, 122399, Note_on_c, 9, 36, 0
1, 122640, Note_on_c, 9, 36, 96
1, 122879, Note_on_c, 9, 36, 0
1, 122880, Note_on_c, 9, 82, 84
1, 122880, Note_on_c, 9, 42, 80
1, 122880, Note_on_c, 9, 36, 112
1, 122890, Note_on_c, 9, 42, 0
1, 123119, Note_on_c, 9, 82, 0
1, 123120, Note_on_c, 9, 82, 84
1, 123120, Note_on_c, 9, 42, 80
1, 123124, Note_on_c, 9, 42, 0
1, 123239, Note_on_c, 9, 82, 0
1, 123240, Note_on_c, 9, 82, 84
1, 123240, Note_on_c, 9, 42, 80
1, 123244, Note_on_c, 9, 42, 0
1, 123359, Note_on_c, 9, 36, 0
1, 123359, Note_on_c, 9, 82, 0
1, 123360, Note_on_c, 9, 40, 80
1, 123360, Note_on_c, 9, 28, 100
1, 123360, Note_on_c, 9, 82, 84
1, 123360, Note_on_c, 9, 42, 80
1, 123370, Note_on_c, 9, 42, 0
1, 123599, Note_on_c, 9, 40, 0
1, 123599, Note_on_c, 9, 28, 0
1, 123599, Note_on_c, 9, 82, 0
1, 123600, Note_on_c, 9, 82, 84
1, 123600, Note_on_c, 9, 42, 80
1, 123600, Note_on_c, 9, 36, 112
1, 123610, Note_on_c, 9, 42, 0
1, 123839, Note_on_c, 9, 82, 0
1, 123839, Note_on_c, 9, 36, 0
1, 123840, Note_on_c, 9, 82, 84
1, 123840, Note_on_c, 9, 42, 80
1, 123850, Note_on_c, 9, 42, 0
1, 124079, Note_on_c, 9, 82, 0
1, 124080, Note_on_c, 9, 82, 84
1, 124080, Note_on_c, 9, 42, 80
1, 124090, Note_on_c, 9, 42, 0
1, 124319, Note_on_c, 9, 82, 0
1, 124320, Note_on_c, 9, 40, 80
1, 124320, Note_on_c, 9, 28, 100
1, 124320, Note_on_c, 9, 82, 84
1, 124320, Note_on_c, 9, 42, 80
1, 124330, Note_on_c, 9, 42, 0
1, 124559, Note_on_c, 9, 40, 0
1, 124559, Note_on_c, 9, 28, 0
1, 124559, Note_on_c, 9, 82, 0
1, 124560, Note_on_c, 9, 82, 84
1, 124560, Note_on_c, 9, 42, 80
1, 124570, Note_on_c, 9, 42, 0
1, 124799, Note_on_c, 9, 82, 0
1, 124800, Note_on_c, 9, 82, 84
1, 124800, Note_on_c, 9, 42, 80
1, 124800, Note_on_c, 9, 36, 112
1, 124810, Note_on_c, 9, 42, 0
1, 125039, Note_on_c, 9, 82, 0
1, 125040, Note_on_c, 9, 82, 84
1, 125040, Note_on_c, 9, 42, 80
1, 125044, Note_on_c, 9, 42, 0
1, 125159, Note_on_c, 9, 82, 0
1, 125160, Note_on_c, 9, 82, 84
1, 125160, Note_on_c, 9, 42, 80
1, 125164, Note_on_c, 9, 42, 0
1, 125279, Note_on_c, 9, 36, 0
1, 125279, Note_on_c, 9, 82, 0
1, 125280, Note_on_c, 9, 40, 80
1, 125280, Note_on_c, 9, 28, 100
1, 125280, Note_on_c, 9, 82, 84
1, 125280, Note_on_c, 9, 42, 80
1, 125290, Note_on_c, 9, 42, 0
1, 125519, Note_on_c, 9, 40, 0
1, 125519, Note_on_c, 9, 28, 0
1, 125519, Note_on_c, 9, 82, 0
1, 125520, Note_on_c, 9, 82, 84
1, 125520, Note_on_c, 9, 42, 80
1, 125520, Note_on_c, 9, 36, 112
1, 125530, Note_on_c, 9, 42, 0
1, 125759, Note_on_c, 9, 82, 0
1, 125759, Note_on_c, 9, 36, 0
1, 125760, Note_on_c, 9, 82, 84
1, 125760, Note_on_c, 9, 42, 80
1, 125770, Note_on_c, 9, 42, 0
1, 125999, Note_on_c, 9, 82, 0
1, 126000, Note_on_c, 9, 82, 84
1, 126000, Note_on_c, 9, 42, 80
1, 126010, Note_on_c, 9, 42, 0
1, 126239, Note_on_c, 9, 82, 0
1, 126240, Note_on_c, 9, 40, 80
1, 126240, Note_on_c, 9, 28, 100
1, 126240, Note_on_c, 9, 82, 84
1, 126240, Note_on_c, 9, 42, 80
1, 126250, Note_on_c, 9, 42, 0
1, 126479, Note_on_c, 9, 40, 0
1, 126479, Note_on_c, 9, 28, 0
1, 126479, Note_on_c, 9, 82, 0
1, 126480, Note_on_c, 9, 82, 84
1, 126480, Note_on_c, 9, 42, 80
1, 126490, Note_on_c, 9, 42, 0
1, 126719, Note_on_c, 9, 82, 0
1, 126720, Note_on_c, 9, 82, 84
1, 126720, Note_on_c, 9, 42, 80
1, 126720, Note_on_c, 9, 36, 112
1, 126730, Note_on_c, 9, 42, 0
1, 126959, Note_on_c, 9, 82, 0
1, 126960, Note_on_c, 9, 82, 84
1, 126960, Note_on_c, 9, 42, 80
1, 126964, Note_on_c, 9, 42, 0
1, 127079, Note_on_c, 9, 82, 0
1, 127080, Note_on_c, 9, 82, 84
1, 127080, Note_on_c, 9, 42, 80
1, 127084, Note_on_c, 9, 42, 0
1, 127199, Note_on_c, 9, 36, 0
1, 127199, Note_on_c, 9, 82, 0
1, 127200, Note_on_c, 9, 40, 80
1, 127200, Note_on_c, 9, 28, 100
1, 127200, Note_on_c, 9, 82, 84
1, 127200, Note_on_c, 9, 42, 80
1, 127210, Note_on_c, 9, 42, 0
1, 127439, Note_on_c, 9, 40, 0
1, 127439, Note_on_c, 9, 28, 0
1, 127439, Note_on_c, 9, 82, 0
1, 127440, Note_on_c, 9, 82, 84
1, 127440, Note_on_c, 9, 42, 80
1, 127440, Note_on_c, 9, 36, 112
1, 127450, Note_on_c, 9, 42, 0
1, 127679, Note_on_c, 9, 82, 0
1, 127679, Note_on_c, 9, 36, 0
1, 127680, Note_on_c, 9, 82, 84
1, 127680, Note_on_c, 9, 42, 80
1, 127690, Note_on_c, 9, 42, 0
1, 127919, Note_on_c, 9, 82, 0
1, 127920, Note_on_c, 9, 82, 84
1, 127920, Note_on_c, 9, 42, 80
1, 127930, Note_on_c, 9, 42, 0
1, 128159, Note_on_c, 9, 82, 0
1, 128160, Note_on_c, 9, 40, 80
1, 128160, Note_on_c, 9, 28, 100
1, 128160, Note_on_c, 9, 82, 84
1, 128160, Note_on_c, 9, 42, 80
1, 128170, Note_on_c, 9, 42, 0
1, 128399, Note_on_c, 9, 40, 0
1, 128399, Note_on_c, 9, 28, 0
1, 128399, Note_on_c, 9, 82, 0
1, 128400, Note_on_c, 9, 82, 84
1, 128400, Note_on_c, 9, 42, 80
1, 128410, Note_on_c, 9, 42, 0
1, 128639, Note_on_c, 9, 82, 0
1, 128640, Note_on_c, 9, 82, 84
1, 128640, Note_on_c, 9, 42, 80
1, 128650, Note_on_c, 9, 42, 0
1, 128879, Note_on_c, 9, 82, 0
1, 128880, Note_on_c, 9, 82, 84
1, 128880, Note_on_c, 9, 42, 80
1, 128880, Note_on_c, 9, 36, 112
1, 128884, Note_on_c, 9, 42, 0
1, 128999, Note_on_c, 9, 82, 0
1, 129000, Note_on_c, 9, 42, 80
1, 129004, Note_on_c, 9, 42, 0
1, 129119, Note_on_c, 9, 36, 0
1, 129120, Note_on_c, 9, 40, 80
1, 129120, Note_on_c, 9, 28, 100
1, 129120, Note_on_c, 9, 82, 84
1, 129120, Note_on_c, 9, 42, 80
1, 129130, Note_on_c, 9, 42, 0
1, 129359, Note_on_c, 9, 40, 0
1, 129359, Note_on_c, 9, 28, 0
1, 129359, Note_on_c, 9, 82, 0
1, 129360, Note_on_c, 9, 82, 84
1, 129360, Note_on_c, 9, 42, 80
1, 129360, Note_on_c, 9, 36, 112
1, 129370, Note_on_c, 9, 42, 0
1, 129599, Note_on_c, 9, 82, 0
1, 129599, Note_on_c, 9, 36, 0
1, 129600, Note_on_c, 9, 82, 84
1, 129600, Note_on_c, 9, 42, 80
1, 129610, Note_on_c, 9, 42, 0
1, 129839, Note_on_c, 9, 82, 0
1, 129840, Note_on_c, 9, 82, 84
1, 129840, Note_on_c, 9, 42, 80
1, 129850, Note_on_c, 9, 42, 0
1, 130079, Note_on_c, 9, 82, 0
1, 130080, Note_on_c, 9, 40, 80
1, 130080, Note_on_c, 9, 28, 100
1, 130080, Note_on_c, 9, 82, 84
1, 130080, Note_on_c, 9, 42, 80
1, 130080, Note_on_c, 9, 36, 112
1, 130090, Note_on_c, 9, 42, 0
1, 130319, Note_on_c, 9, 40, 0
1, 130319, Note_on_c, 9, 28, 0
1, 130319, Note_on_c, 9, 82, 0
1, 130320, Note_on_c, 9, 82, 84
1, 130320, Note_on_c, 9, 42, 80
1, 130324, Note_on_c, 9, 42, 0
1, 130439, Note_on_c, 9, 82, 0
1, 130440, Note_on_c, 9, 40, 80
1, 130440, Note_on_c, 9, 28, 100
1, 130559, Note_on_c, 9, 36, 0
1, 130559, Note_on_c, 9, 40, 0
1, 130559, Note_on_c, 9, 28, 0
1, 130560, Note_on_c, 9, 82, 84
1, 130560, Note_on_c, 9, 42, 80
1, 130560, Note_on_c, 9, 36, 112
1, 130570, Note_on_c, 9, 42, 0
1, 130799, Note_on_c, 9, 82, 0
1, 130800, Note_on_c, 9, 82, 84
1, 130800, Note_on_c, 9, 42, 80
1, 130804, Note_on_c, 9, 42, 0
1, 130919, Note_on_c, 9, 82, 0
1, 130920, Note_on_c, 9, 82, 84
1, 130920, Note_on_c, 9, 42, 80
1, 130924, Note_on_c, 9, 42, 0
1, 131039, Note_on_c, 9, 36, 0
1, 131039, Note_on_c, 9, 82, 0
1, 131040, Note_on_c, 9, 40, 80
1, 131040, Note_on_c, 9, 28, 100
1, 131040, Note_on_c, 9, 82, 84
1, 131040, Note_on_c, 9, 42, 80
1, 131050, Note_on_c, 9, 42, 0
1, 131279, Note_on_c, 9, 40, 0
1, 131279, Note_on_c, 9, 28, 0
1, 131279, Note_on_c, 9, 82, 0
1, 131280, Note_on_c, 9, 82, 84
1, 131280, Note_on_c, 9, 42, 80
1, 131280, Note_on_c, 9, 36, 112
1, 131290, Note_on_c, 9, 42, 0
1, 131519, Note_on_c, 9, 82, 0
1, 131519, Note_on_c, 9, 36, 0
1, 131520, Note_on_c, 9, 82, 84
1, 131520, Note_on_c, 9, 42, 80
1, 131530, Note_on_c, 9, 42, 0
1, 131759, Note_on_c, 9, 82, 0
1, 131760, Note_on_c, 9, 82, 84
1, 131760, Note_on_c, 9, 42, 80
1, 131770, Note_on_c, 9, 42, 0
1, 131999, Note_on_c, 9, 82, 0
1, 132000, Note_on_c, 9, 40, 80
1, 132000, Note_on_c, 9, 28, 100
1, 132000, Note_on_c, 9, 82, 84
1, 132000, Note_on_c, 9, 42, 80
1, 132010, Note_on_c, 9, 42, 0
1, 132239, Note_on_c, 9, 40, 0
1, 132239, Note_on_c, 9, 28, 0
1, 132239, Note_on_c, 9, 82, 0
1, 132240, Note_on_c, 9, 82, 84
1, 132240, Note_on_c, 9, 42, 80
1, 132250, Note_on_c, 9, 42, 0
1, 132479, Note_on_c, 9, 82, 0
1, 132480, Note_on_c, 9, 82, 84
1, 132480, Note_on_c, 9, 42, 80
1, 132480, Note_on_c, 9, 36, 112
1, 132490, Note_on_c, 9, 42, 0
1, 132719, Note_on_c, 9, 82, 0
1, 132720, Note_on_c, 9, 82, 84
1, 132720, Note_on_c, 9, 42, 80
1, 132724, Note_on_c, 9, 42, 0
1, 132839, Note_on_c, 9, 82, 0
1, 132840, Note_on_c, 9, 82, 84
1, 132840, Note_on_c, 9, 42, 80
1, 132844, Note_on_c, 9, 42, 0
1, 132959, Note_on_c, 9, 36, 0
1, 132959, Note_on_c, 9, 82, 0
1, 132960, Note_on_c, 9, 40, 80
1, 132960, Note_on_c, 9, 28, 100
1, 132960, Note_on_c, 9, 82, 84
1, 132960, Note_on_c, 9, 42, 80
1, 132970, Note_on_c, 9, 42, 0
1, 133199, Note_on_c, 9, 40, 0
1, 133199, Note_on_c, 9, 28, 0
1, 133199, Note_on_c, 9, 82, 0
1, 133200, Note_on_c, 9, 82, 84
1, 133200, Note_on_c, 9, 42, 80
1, 133200, Note_on_c, 9, 36, 112
1, 133210, Note_on_c, 9, 42, 0
1, 133439, Note_on_c, 9, 82, 0
1, 133439, Note_on_c, 9, 36, 0
1, 133440, Note_on_c, 9, 82, 84
1, 133440, Note_on_c, 9, 42, 80
1, 133450, Note_on_c, 9, 42, 0
1, 133679, Note_on_c, 9, 82, 0
1, 133680, Note_on_c, 9, 82, 84
1, 133680, Note_on_c, 9, 42, 80
1, 133690, Note_on_c, 9, 42, 0
1, 133919, Note_on_c, 9, 82, 0
1, 133920, Note_on_c, 9, 40, 80
1, 133920, Note_on_c, 9, 28, 100
1, 133920, Note_on_c, 9, 82, 84
1, 133920, Note_on_c, 9, 42, 80
1, 133930, Note_on_c, 9, 42, 0
1, 134159, Note_on_c, 9, 40, 0
1, 134159, Note_on_c, 9, 28, 0
1, 134159, Note_on_c, 9, 82, 0
1, 134160, Note_on_c, 9, 82, 84
1, 134160, Note_on_c, 9, 42, 80
1, 134170, Note_on_c, 9, 42, 0
1, 134399, Note_on_c, 9, 82, 0
1, 134400, Note_on_c, 9, 82, 84
1, 134400, Note_on_c, 9, 42, 80
1, 134400, Note_on_c, 9, 36, 112
1, 134410, Note_on_c, 9, 42, 0
1, 134639, Note_on_c, 9, 82, 0
1, 134640, Note_on_c, 9, 82, 84
1, 134640, Note_on_c, 9, 42, 80
1, 134644, Note_on_c, 9, 42, 0
1, 134759, Note_on_c, 9, 82, 0
1, 134760, Note_on_c, 9, 82, 84
1, 134760, Note_on_c, 9, 42, 80
1, 134764, Note_on_c, 9, 42, 0
1, 134879, Note_on_c, 9, 36, 0
1, 134879, Note_on_c, 9, 82, 0
1, 134880, Note_on_c, 9, 40, 80
1, 134880, Note_on_c, 9, 28, 100
1, 134880, Note_on_c, 9, 82, 84
1, 134880, Note_on_c, 9, 42, 80
1, 134890, Note_on_c, 9, 42, 0
1, 135119, Note_on_c, 9, 40, 0
1, 135119, Note_on_c, 9, 28, 0
1, 135119, Note_on_c, 9, 82, 0
1, 135120, Note_on_c, 9, 82, 84
1, 135120, Note_on_c, 9, 42, 80
1, 135120, Note_on_c, 9, 36, 112
1, 135130, Note_on_c, 9, 42, 0
1, 135359, Note_on_c, 9, 82, 0
1, 135359, Note_on_c, 9, 36, 0
1, 135360, Note_on_c, 9, 82, 84
1, 135360, Note_on_c, 9, 42, 80
1, 135370, Note_on_c, 9, 42, 0
1, 135599, Note_on_c, 9, 82, 0
1, 135600, Note_on_c, 9, 82, 84
1, 135600, Note_on_c, 9, 42, 80
1, 135610, Note_on_c, 9, 42, 0
1, 135839, Note_on_c, 9, 82, 0
1, 135840, Note_on_c, 9, 40, 80
1, 135840, Note_on_c, 9, 28, 100
1, 135840, Note_on_c, 9, 82, 84
1, 135840, Note_on_c, 9, 42, 80
1, 135850, Note_on_c, 9, 42, 0
1, 136079, Note_on_c, 9, 40, 0
1, 136079, Note_on_c, 9, 28, 0
1, 136079, Note_on_c, 9, 82, 0
1, 136080, Note_on_c, 9, 82, 84
1, 136080, Note_on_c, 9, 42, 80
1, 136090, Note_on_c, 9, 42, 0
1, 136319, Note_on_c, 9, 82, 0
1, 136320, Note_on_c, 9, 82, 84
1, 136320, Note_on_c, 9, 42, 80
1, 136330, Note_on_c, 9, 42, 0
1, 136559, Note_on_c, 9, 82, 0
1, 136560, Note_on_c, 9, 82, 84
1, 136560, Note_on_c, 9, 42, 80
1, 136560, Note_on_c, 9, 36, 112
1, 136564, Note_on_c, 9, 42, 0
1, 136679, Note_on_c, 9, 82, 0
1, 136680, Note_on_c, 9, 42, 80
1, 136684, Note_on_c, 9, 42, 0
1, 136799, Note_on_c, 9, 36, 0
1, 136800, Note_on_c, 9, 40, 80
1, 136800, Note_on_c, 9, 28, 100
1, 136800, Note_on_c, 9, 82, 84
1, 136800, Note_on_c, 9, 42, 80
1, 136810, Note_on_c, 9, 42, 0
1, 137039, Note_on_c, 9, 40, 0
1, 137039, Note_on_c, 9, 28, 0
1, 137039, Note_on_c, 9, 82, 0
1, 137040, Note_on_c, 9, 82, 84
1, 137040, Note_on_c, 9, 42, 80
1, 137040, Note_on_c, 9, 36, 112
1, 137050, Note_on_c, 9, 42, 0
1, 137279, Note_on_c, 9, 82, 0
1, 137279, Note_on_c, 9, 36, 0
1, 138240, Note_on_c, 9, 82, 84
1, 138240, Note_on_c, 9, 42, 80
1, 138240, Note_on_c, 9, 57, 43
1, 138240, Note_on_c, 9, 36, 112
1, 138250, Note_on_c, 9, 42, 0
1, 138250, Note_on_c, 9, 57, 0
1, 138479, Note_on_c, 9, 82, 0
1, 138480, Note_on_c, 9, 82, 84
1, 138480, Note_on_c, 9, 42, 80
1, 138484, Note_on_c, 9, 42, 0
1, 138599, Note_on_c, 9, 82, 0
1, 138600, Note_on_c, 9, 82, 84
1, 138600, Note_on_c, 9, 42, 80
1, 138604, Note_on_c, 9, 42, 0
1, 138719, Note_on_c, 9, 36, 0
1, 138719, Note_on_c, 9, 82, 0
1, 138720, Note_on_c, 9, 40, 80
1, 138720, Note_on_c, 9, 28, 100
1, 138720, Note_on_c, 9, 82, 84
1, 138720, Note_on_c, 9, 42, 80
1, 138720, Note_on_c, 9, 57, 43
1, 138730, Note_on_c, 9, 42, 0
1, 138730, Note_on_c, 9, 57, 0
1, 138959, Note_on_c, 9, 40, 0
1, 138959, Note_on_c, 9, 28, 0
1, 138959, Note_on_c, 9, 82, 0
1, 138960, Note_on_c, 9, 82, 84
1, 138960, Note_on_c, 9, 42, 80
1, 138960, Note_on_c, 9, 36, 112
1, 138970, Note_on_c, 9, 42, 0
1, 139199, Note_on_c, 9, 82, 0
1, 139199, Note_on_c, 9, 36, 0
1, 139200, Note_on_c, 9, 82, 84
1, 139200, Note_on_c, 9, 42, 80
1, 139200, Note_on_c, 9, 57, 43
1, 139210, Note_on_c, 9, 42, 0
1, 139210, Note_on_c, 9, 57, 0
1, 139439, Note_on_c, 9, 82, 0
1, 139440, Note_on_c, 9, 82, 84
1, 139440, Note_on_c, 9, 42, 80
1, 139450, Note_on_c, 9, 42, 0
1, 139679, Note_on_c, 9, 82, 0
1, 139680, Note_on_c, 9, 40, 80
1, 139680, Note_on_c, 9, 28, 100
1, 139680, Note_on_c, 9, 82, 84
1, 139680, Note_on_c, 9, 42, 80
1, 139680, Note_on_c, 9, 57, 43
1, 139690, Note_on_c, 9, 42, 0
1, 139690, Note_on_c, 9, 57, 0
1, 139919, Note_on_c, 9, 40, 0
1, 139919, Note_on_c, 9, 28, 0
1, 139919, Note_on_c, 9, 82, 0
1, 139920, Note_on_c, 9, 82, 84
1, 139920, Note_on_c, 9, 42, 80
1, 139930, Note_on_c, 9, 42, 0
1, 140159, Note_on_c, 9, 82, 0
1, 140160, Note_on_c, 9, 82, 84
1, 140160, Note_on_c, 9, 42, 80
1, 140160, Note_on_c, 9, 57, 43
1, 140160, Note_on_c, 9, 36, 112
1, 140170, Note_on_c, 9, 42, 0
1, 140170, Note_on_c, 9, 57, 0
1, 140399, Note_on_c, 9, 82, 0
1, 140400, Note_on_c, 9, 82, 84
1, 140400, Note_on_c, 9, 42, 80
1, 140404, Note_on_c, 9, 42, 0
1, 140519, Note_on_c, 9, 82, 0
1, 140520, Note_on_c, 9, 82, 84
1, 140520, Note_on_c, 9, 42, 80
1, 140524, Note_on_c, 9, 42, 0
1, 140639, Note_on_c, 9, 36, 0
1, 140639, Note_on_c, 9, 82, 0
1, 140640, Note_on_c, 9, 40, 80
1, 140640, Note_on_c, 9, 28, 100
1, 140640, Note_on_c, 9, 82, 84
1, 140640, Note_on_c, 9, 42, 80
1, 140640, Note_on_c, 9, 57, 43
1, 140650, Note_on_c, 9, 42, 0
1, 140650, Note_on_c, 9, 57, 0
1, 140879, Note_on_c, 9, 40, 0
1, 140879, Note_on_c, 9, 28, 0
1, 140879, Note_on_c, 9, 82, 0
1, 140880, Note_on_c, 9, 82, 84
1, 140880, Note_on_c, 9, 42, 80
1, 140880, Note_on_c, 9, 36, 112
1, 140890, Note_on_c, 9, 42, 0
1, 141119, Note_on_c, 9, 82, 0
1, 141119, Note_on_c, 9, 36, 0
1, 141120, Note_on_c, 9, 82, 84
1, 141120, Note_on_c, 9, 42, 80
1, 141120, Note_on_c, 9, 57, 43
1, 141130, Note_on_c, 9, 42, 0
1, 141130, Note_on_c, 9, 57, 0
1, 141359, Note_on_c, 9, 82, 0
1, 141360, Note_on_c, 9, 82, 84
1, 141360, Note_on_c, 9, 42, 80
1, 141370, Note_on_c, 9, 42, 0
1, 141599, Note_on_c, 9, 82, 0
1, 141600, Note_on_c, 9, 40, 80
1, 141600, Note_on_c, 9, 28, 100
1, 141600, Note_on_c, 9, 82, 84
1, 141600, Note_on_c, 9, 42, 80
1, 141600, Note_on_c, 9, 57, 43
1, 141610, Note_on_c, 9, 42, 0
1, 141610, Note_on_c, 9, 57, 0
1, 141839, Note_on_c, 9, 40, 0
1, 141839, Note_on_c, 9, 28, 0
1, 141839, Note_on_c, 9, 82, 0
1, 141840, Note_on_c, 9, 82, 84
1, 141840, Note_on_c, 9, 42, 80
1, 141850, Note_on_c, 9, 42, 0
1, 142079, Note_on_c, 9, 82, 0
1, 142080, Note_on_c, 9, 82, 84
1, 142080, Note_on_c, 9, 42, 80
1, 142080, Note_on_c, 9, 57, 43
1, 142080, Note_on_c, 9, 36, 112
1, 142090, Note_on_c, 9, 42, 0
1, 142090, Note_on_c, 9, 57, 0
1, 142319, Note_on_c, 9, 82, 0
1, 142320, Note_on_c, 9, 82, 84
1, 142320, Note_on_c, 9, 42, 80
1, 142324, Note_on_c, 9, 42, 0
1, 142439, Note_on_c, 9, 82, 0
1, 142440, Note_on_c, 9, 82, 84
1, 142440, Note_on_c, 9, 42, 80
1, 142444, Note_on_c, 9, 42, 0
1, 142559, Note_on_c, 9, 36, 0
1, 142559, Note_on_c, 9, 82, 0
1, 142560, Note_on_c, 9, 40, 80
1, 142560, Note_on_c, 9, 28, 100
1, 142560, Note_on_c, 9, 82, 84
1, 142560, Note_on_c, 9, 42, 80
1, 142560, Note_on_c, 9, 57, 43
1, 142570, Note_on_c, 9, 42, 0
1, 142570, Note_on_c, 9, 57, 0
1, 142799, Note_on_c, 9, 40, 0
1, 142799, Note_on_c, 9, 28, 0
1, 142799, Note_on_c, 9, 82, 0
1, 142800, Note_on_c, 9, 82, 84
1, 142800, Note_on_c, 9, 42, 80
1, 142800, Note_on_c, 9, 36, 112
1, 142810, Note_on_c, 9, 42, 0
1, 143039, Note_on_c, 9, 82, 0
1, 143039, Note_on_c, 9, 36, 0
1, 143040, Note_on_c, 9, 82, 84
1, 143040, Note_on_c, 9, 42, 80
1, 143040, Note_on_c, 9, 57, 43
1, 143050, Note_on_c, 9, 42, 0
1, 143050, Note_on_c, 9, 57, 0
1, 143279, Note_on_c, 9, 82, 0
1, 143280, Note_on_c, 9, 82, 84
1, 143280, Note_on_c, 9, 42, 80
1, 143290, Note_on_c, 9, 42, 0
1, 143519, Note_on_c, 9, 82, 0
1, 143520, Note_on_c, 9, 40, 80
1, 143520, Note_on_c, 9, 28, 100
1, 143520, Note_on_c, 9, 82, 84
1, 143520, Note_on_c, 9, 42, 80
1, 143520, Note_on_c, 9, 57, 43
1, 143530, Note_on_c, 9, 42, 0
1, 143530, Note_on_c, 9, 57, 0
1, 143759, Note_on_c, 9, 40, 0
1, 143759, Note_on_c, 9, 28, 0
1, 143759, Note_on_c, 9, 82, 0
1, 143760, Note_on_c, 9, 82, 84
1, 143760, Note_on_c, 9, 42, 80
1, 143770, Note_on_c, 9, 42, 0
1, 143999, Note_on_c, 9, 82, 0
1, 144000, Note_on_c, 9, 82, 84
1, 144000, Note_on_c, 9, 42, 80
1, 144000, Note_on_c, 9, 57, 43
1, 144010, Note_on_c, 9, 42, 0
1, 144010, Note_on_c, 9, 57, 0
1, 144239, Note_on_c, 9, 82, 0
1, 144240, Note_on_c, 9, 82, 84
1, 144240, Note_on_c, 9, 42, 80
1, 144240, Note_on_c, 9, 36, 112
1, 144244, Note_on_c, 9, 42, 0
1, 144359, Note_on_c, 9, 82, 0
1, 144359, Note_on_c, 9, 36, 0
1, 144360, Note_on_c, 9, 42, 80
1, 144360, Note_on_c, 9, 36, 112
1, 144364, Note_on_c, 9, 42, 0
1, 144479, Note_on_c, 9, 36, 0
1, 144480, Note_on_c, 9, 40, 80
1, 144480, Note_on_c, 9, 28, 100
1, 144480, Note_on_c, 9, 82, 84
1, 144480, Note_on_c, 9, 42, 80
1, 144480, Note_on_c, 9, 57, 43
1, 144490, Note_on_c, 9, 42, 0
1, 144490, Note_on_c, 9, 57, 0
1, 144719, Note_on_c, 9, 40, 0
1, 144719, Note_on_c, 9, 28, 0
1, 144719, Note_on_c, 9, 82, 0
1, 144720, Note_on_c, 9, 82, 84
1, 144720, Note_on_c, 9, 42, 80
1, 144720, Note_on_c, 9, 36, 112
1, 144730, Note_on_c, 9, 42, 0
1, 144959, Note_on_c, 9, 82, 0
1, 144959, Note_on_c, 9, 36, 0
1, 144960, Note_on_c, 9, 82, 84
1, 144960, Note_on_c, 9, 42, 80
1, 144960, Note_on_c, 9, 57, 43
1, 144970, Note_on_c, 9, 42, 0
1, 144970, Note_on_c, 9, 57, 0
1, 145199, Note_on_c, 9, 82, 0
1, 145200, Note_on_c, 9, 82, 84
1, 145200, Note_on_c, 9, 42, 80
1, 145210, Note_on_c, 9, 42, 0
1, 145439, Note_on_c, 9, 82, 0
1, 145440, Note_on_c, 9, 40, 80
1, 145440, Note_on_c, 9, 28, 100
1, 145440, Note_on_c, 9, 82, 84
1, 145440, Note_on_c, 9, 42, 80
1, 145440, Note_on_c, 9, 57, 43
1, 145440, Note_on_c, 9, 36, 112
1, 145450, Note_on_c, 9, 42, 0
1, 145450, Note_on_c, 9, 57, 0
1, 145679, Note_on_c, 9, 40, 0
1, 145679, Note_on_c, 9, 28, 0
1, 145679, Note_on_c, 9, 82, 0
1, 145680, Note_on_c, 9, 82, 84
1, 145680, Note_on_c, 9, 42, 80
1, 145684, Note_on_c, 9, 42, 0
1, 145799, Note_on_c, 9, 82, 0
1, 145800, Note_on_c, 9, 40, 80
1, 145800, Note_on_c, 9, 28, 100
1, 145919, Note_on_c, 9, 36, 0
1, 145919, Note_on_c, 9, 40, 0
1, 145919, Note_on_c, 9, 28, 0
1, 145920, Note_on_c, 9, 82, 84
1, 145920, Note_on_c, 9, 42, 80
1, 145920, Note_on_c, 9, 57, 43
1, 145920, Note_on_c, 9, 36, 112
1, 145930, Note_on_c, 9, 42, 0
1, 145930, Note_on_c, 9, 57, 0
1, 146159, Note_on_c, 9, 82, 0
1, 146160, Note_on_c, 9, 82, 84
1, 146160, Note_on_c, 9, 42, 80
1, 146164, Note_on_c, 9, 42, 0
1, 146279, Note_on_c, 9, 82, 0
1, 146280, Note_on_c, 9, 82, 84
1, 146280, Note_on_c, 9, 42, 80
1, 146284, Note_on_c, 9, 42, 0
1, 146399, Note_on_c, 9, 36, 0
1, 146399, Note_on_c, 9, 82, 0
1, 146400, Note_on_c, 9, 40, 80
1, 146400, Note_on_c, 9, 28, 100
1, 146400, Note_on_c, 9, 82, 84
1, 146400, Note_on_c, 9, 42, 80
1, 146400, Note_on_c, 9, 57, 43
1, 146410, Note_on_c, 9, 42, 0
1, 146410, Note_on_c, 9, 57, 0
1, 146639, Note_on_c, 9, 40, 0
1, 146639, Note_on_c, 9, 28, 0
1, 146639, Note_on_c, 9, 82, 0
1, 146640, Note_on_c, 9, 82, 84
1, 146640, Note_on_c, 9, 42, 80
1, 146640, Note_on_c, 9, 36, 112
1, 146650, Note_on_c, 9, 42, 0
1, 146879, Note_on_c, 9, 82, 0
1, 146879, Note_on_c, 9, 36, 0
1, 146880, Note_on_c, 9, 82, 84
1, 146880, Note_on_c, 9, 42, 80
1, 146880, Note_on_c, 9, 57, 43
1, 146890, Note_on_c, 9, 42, 0
1, 146890, Note_on_c, 9, 57, 0
1, 147119, Note_on_c, 9, 82, 0
1, 147120, Note_on_c, 9, 82, 84
1, 147120, Note_on_c, 9, 42, 80
1, 147130, Note_on_c, 9, 42, 0
1, 147359, Note_on_c, 9, 82, 0
1, 147360, Note_on_c, 9, 40, 80
1, 147360, Note_on_c, 9, 28, 100
1, 147360, Note_on_c, 9, 82, 84
1, 147360, Note_on_c, 9, 42, 80
1, 147360, Note_on_c, 9, 57, 43
1, 147370, Note_on_c, 9, 42, 0
1, 147370, Note_on_c, 9, 57, 0
1, 147599, Note_on_c, 9, 40, 0
1, 147599, Note_on_c, 9, 28, 0
1, 147599, Note_on_c, 9, 82, 0
1, 147600, Note_on_c, 9, 82, 84
1, 147600, Note_on_c, 9, 42, 80
1, 147610, Note_on_c, 9, 42, 0
1, 147839, Note_on_c, 9, 82, 0
1, 147840, Note_on_c, 9, 82, 84
1, 147840, Note_on_c, 9, 42, 80
1, 147840, Note_on_c, 9, 57, 43
1, 147840, Note_on_c, 9, 36, 112
1, 147850, Note_on_c, 9, 42, 0
1, 147850, Note_on_c, 9, 57, 0
1, 148079, Note_on_c, 9, 82, 0
1, 148080, Note_on_c, 9, 82, 84
1, 148080, Note_on_c, 9, 42, 80
1, 148084, Note_on_c, 9, 42, 0
1, 148199, Note_on_c, 9, 82, 0
1, 148200, Note_on_c, 9, 82, 84
1, 148200, Note_on_c, 9, 42, 80
1, 148204, Note_on_c, 9, 42, 0
1, 148319, Note_on_c, 9, 36, 0
1, 148319, Note_on_c, 9, 82, 0
1, 148320, Note_on_c, 9, 40, 80
1, 148320, Note_on_c, 9, 28, 100
1, 148320, Note_on_c, 9, 82, 84
1, 148320, Note_on_c, 9, 42, 80
1, 148320, Note_on_c, 9, 57, 43
1, 148330, Note_on_c, 9, 42, 0
1, 148330, Note_on_c, 9, 57, 0
1, 148559, Note_on_c, 9, 40, 0
1, 148559, Note_on_c, 9, 28, 0
1, 148559, Note_on_c, 9, 82, 0
1, 148560, Note_on_c, 9, 82, 84
1, 148560, Note_on_c, 9, 42, 80
1, 148560, Note_on_c, 9, 36, 112
1, 148570, Note_on_c, 9, 42, 0
1, 148799, Note_on_c, 9, 82, 0
1, 148799, Note_on_c, 9, 36, 0
1, 148800, Note_on_c, 9, 82, 84
1, 148800, Note_on_c, 9, 42, 80
1, 148800, Note_on_c, 9, 57, 43
1, 148810, Note_on_c, 9, 42, 0
1, 148810, Note_on_c, 9, 57, 0
1, 149039, Note_on_c, 9, 82, 0
1, 149040, Note_on_c, 9, 82, 84
1, 149040, Note_on_c, 9, 42, 80
1, 149050, Note_on_c, 9, 42, 0
1, 149279, Note_on_c, 9, 82, 0
1, 149280, Note_on_c, 9, 40, 80
1, 149280, Note_on_c, 9, 28, 100
1, 149280, Note_on_c, 9, 82, 84
1, 149280, Note_on_c, 9, 42, 80
1, 149280, Note_on_c, 9, 57, 43
1, 149290, Note_on_c, 9, 42, 0
1, 149290, Note_on_c, 9, 57, 0
1, 149519, Note_on_c, 9, 40, 0
1, 149519, Note_on_c, 9, 28, 0
1, 149519, Note_on_c, 9, 82, 0
1, 149520, Note_on_c, 9, 82, 84
1, 149520, Note_on_c, 9, 42, 80
1, 149530, Note_on_c, 9, 42, 0
1, 149759, Note_on_c, 9, 82, 0
1, 149760, Note_on_c, 9, 82, 84
1, 149760, Note_on_c, 9, 42, 80
1, 149760, Note_on_c, 9, 57, 43
1, 149760, Note_on_c, 9, 36, 112
1, 149770, Note_on_c, 9, 42, 0
1, 149770, Note_on_c, 9, 57, 0
1, 149999, Note_on_c, 9, 82, 0
1, 150000, Note_on_c, 9, 82, 84
1, 150000, Note_on_c, 9, 42, 80
1, 150004, Note_on_c, 9, 42, 0
1, 150119, Note_on_c, 9, 82, 0
1, 150120, Note_on_c, 9, 82, 84
1, 150120, Note_on_c, 9, 42, 80
1, 150124, Note_on_c, 9, 42, 0
1, 150239, Note_on_c, 9, 36, 0
1, 150239, Note_on_c, 9, 82, 0
1, 150240, Note_on_c, 9, 40, 80
1, 150240, Note_on_c, 9, 28, 100
1, 150240, Note_on_c, 9, 82, 84
1, 150240, Note_on_c, 9, 42, 80
1, 150240, Note_on_c, 9, 57, 43
1, 150250, Note_on_c, 9, 42, 0
1, 150250, Note_on_c, 9, 57, 0
1, 150479, Note_on_c, 9, 40, 0
1, 150479, Note_on_c, 9, 28, 0
1, 150479, Note_on_c, 9, 82, 0
1, 150480, Note_on_c, 9, 82, 84
1, 150480, Note_on_c, 9, 42, 80
1, 150480, Note_on_c, 9, 36, 112
1, 150490, Note_on_c, 9, 42, 0
1, 150719, Note_on_c, 9, 82, 0
1, 150719, Note_on_c, 9, 36, 0
1, 150720, Note_on_c, 9, 82, 84
1, 150720, Note_on_c, 9, 42, 80
1, 150720, Note_on_c, 9, 57, 43
1, 150730, Note_on_c, 9, 42, 0
1, 150730, Note_on_c, 9, 57, 0
1, 150959, Note_on_c, 9, 82, 0
1, 150960, Note_on_c, 9, 82, 84
1, 150960, Note_on_c, 9, 42, 80
1, 150970, Note_on_c, 9, 42, 0
1, 151199, Note_on_c, 9, 82, 0
1, 151200, Note_on_c, 9, 40, 80
1, 151200, Note_on_c, 9, 28, 100
1, 151200, Note_on_c, 9, 82, 84
1, 151200, Note_on_c, 9, 42, 80
1, 151200, Note_on_c, 9, 57, 43
1, 151210, Note_on_c, 9, 42, 0
1, 151210, Note_on_c, 9, 57, 0
1, 151439, Note_on_c, 9, 40, 0
1, 151439, Note_on_c, 9, 28, 0
1, 151439, Note_on_c, 9, 82, 0
1, 151440, Note_on_c, 9, 82, 84
1, 151440, Note_on_c, 9, 42, 80
1, 151450, Note_on_c, 9, 42, 0
1, 151679, Note_on_c, 9, 82, 0
1, 151680, Note_on_c, 9, 82, 84
1, 151680, Note_on_c, 9, 42, 80
1, 151680, Note_on_c, 9, 57, 43
1, 151690, Note_on_c, 9, 42, 0
1, 151690, Note_on_c, 9, 57, 0
1, 151919, Note_on_c, 9, 82, 0
1, 151920, Note_on_c, 9, 82, 84
1, 151920, Note_on_c, 9, 42, 80
1, 151920, Note_on_c, 9, 36, 112
1, 151924, Note_on_c, 9, 42, 0
1, 152039, Note_on_c, 9, 82, 0
1, 152040, Note_on_c, 9, 42, 80
1, 152044, Note_on_c, 9, 42, 0
1, 152159, Note_on_c, 9, 36, 0
1, 152160, Note_on_c, 9, 40, 80
1, 152160, Note_on_c, 9, 28, 100
1, 152160, Note_on_c, 9, 82, 84
1, 152160, Note_on_c, 9, 42, 80
1, 152160, Note_on_c, 9, 57, 43
1, 152170, Note_on_c, 9, 42, 0
1, 152170, Note_on_c, 9, 57, 0
1, 152399, Note_on_c, 9, 40, 0
1, 152399, Note_on_c, 9, 28, 0
1, 152399, Note_on_c, 9, 82, 0
1, 152400, Note_on_c, 9, 82, 84
1, 152400, Note_on_c, 9, 42, 80
1, 152400, Note_on_c, 9, 36, 112
1, 152410, Note_on_c, 9, 42, 0
1, 152639, Note_on_c, 9, 82, 0
1, 152639, Note_on_c, 9, 36, 0
1, 152640, Note_on_c, 9, 32, 95
1, 153119, Note_on_c, 9, 32, 0
1, 153360, Note_on_c, 9, 29, 97
1, 153599, Note_on_c, 9, 29, 0
1, 153600, Note_on_c, 9, 82, 84
1, 153600, Note_on_c, 9, 42, 80
1, 153600, Note_on_c, 9, 57, 43
1, 153600, Note_on_c, 9, 36, 112
1, 153610, Note_on_c, 9, 42, 0
1, 153610, Note_on_c, 9, 57, 0
1, 153839, Note_on_c, 9, 82, 0
1, 153840, Note_on_c, 9, 82, 84
1, 153840, Note_on_c, 9, 42, 80
1, 153844, Note_on_c, 9, 42, 0
1, 153959, Note_on_c, 9, 82, 0
1, 153960, Note_on_c, 9, 82, 84
1, 153960, Note_on_c, 9, 42, 80
1, 153964, Note_on_c, 9, 42, 0
1, 154079, Note_on_c, 9, 36, 0
1, 154079, Note_on_c, 9, 82, 0
1, 154080, Note_on_c, 9, 40, 80
1, 154080, Note_on_c, 9, 28, 100
1, 154080, Note_on_c, 9, 82, 84
1, 154080, Note_on_c, 9, 42, 80
1, 154080, Note_on_c, 9, 57, 43
1, 154090, Note_on_c, 9, 42, 0
1, 154090, Note_on_c, 9, 57, 0
1, 154319, Note_on_c, 9, 40, 0
1, 154319, Note_on_c, 9, 28, 0
1, 154319, Note_on_c, 9, 82, 0
1, 154320, Note_on_c, 9, 82, 84
1, 154320, Note_on_c, 9, 42, 80
1, 154320, Note_on_c, 9, 36, 112
1, 154330, Note_on_c, 9, 42, 0
1, 154559, Note_on_c, 9, 82, 0
1, 154559, Note_on_c, 9, 36, 0
1, 154560, Note_on_c, 9, 82, 84
1, 154560, Note_on_c, 9, 42, 80
1, 154560, Note_on_c, 9, 57, 43
1, 154570, Note_on_c, 9, 42, 0
1, 154570, Note_on_c, 9, 57, 0
1, 154799, Note_on_c, 9, 82, 0
1, 154800, Note_on_c, 9, 82, 84
1, 154800, Note_on_c, 9, 42, 80
1, 154810, Note_on_c, 9, 42, 0
1, 155039, Note_on_c, 9, 82, 0
1, 155040, Note_on_c, 9, 40, 80
1, 155040, Note_on_c, 9, 28, 100
1, 155040, Note_on_c, 9, 82, 84
1, 155040, Note_on_c, 9, 42, 80
1, 155040, Note_on_c, 9, 57, 43
1, 155050, Note_on_c, 9, 42, 0
1, 155050, Note_on_c, 9, 57, 0
1, 155279, Note_on_c, 9, 40, 0
1, 155279, Note_on_c, 9, 28, 0
1, 155279, Note_on_c, 9, 82, 0
1, 155280, Note_on_c, 9, 82, 84
1, 155280, Note_on_c, 9, 42, 80
1, 155290, Note_on_c, 9, 42, 0
1, 155519, Note_on_c, 9, 82, 0
1, 155520, Note_on_c, 9, 82, 84
1, 155520, Note_on_c, 9, 42, 80
1, 155520, Note_on_c, 9, 57, 43
1, 155520, Note_on_c, 9, 36, 112
1, 155530, Note_on_c, 9, 42, 0
1, 155530, Note_on_c, 9, 57, 0
1, 155759, Note_on_c, 9, 82, 0
1, 155760, Note_on_c, 9, 82, 84
1, 155760, Note_on_c, 9, 42, 80
1, 155764, Note_on_c, 9, 42, 0
1, 155879, Note_on_c, 9, 82, 0
1, 155880, Note_on_c, 9, 82, 84
1, 155880, Note_on_c, 9, 42, 80
1, 155884, Note_on_c, 9, 42, 0
1, 155999, Note_on_c, 9, 36, 0
1, 155999, Note_on_c, 9, 82, 0
1, 156000, Note_on_c, 9, 40, 80
1, 156000, Note_on_c, 9, 28, 100
1, 156000, Note_on_c, 9, 82, 84
1, 156000, Note_on_c, 9, 42, 80
1, 156000, Note_on_c, 9, 57, 43
1, 156010, Note_on_c, 9, 42, 0
1, 156010, Note_on_c, 9, 57, 0
1, 156239, Note_on_c, 9, 40, 0
1, 156239, Note_on_c, 9, 28, 0
1, 156239, Note_on_c, 9, 82, 0
1, 156240, Note_on_c, 9, 82, 84
1, 156240, Note_on_c, 9, 42, 80
1, 156240, Note_on_c, 9, 36, 112
1, 156250, Note_on_c, 9, 42, 0
1, 156479, Note_on_c, 9, 82, 0
1, 156479, Note_on_c, 9, 36, 0
1, 156480, Note_on_c, 9, 82, 84
1, 156480, Note_on_c, 9, 42, 80
1, 156480, Note_on_c, 9, 57, 43
1, 156490, Note_on_c, 9, 42, 0
1, 156490, Note_on_c, 9, 57, 0
1, 156719, Note_on_c, 9, 82, 0
1, 156720, Note_on_c, 9, 82, 84
1, 156720, Note_on_c, 9, 42, 80
1, 156730, Note_on_c, 9, 42, 0
1, 156959, Note_on_c, 9, 82, 0
1, 156960, Note_on_c, 9, 40, 80
1, 156960, Note_on_c, 9, 28, 100
1, 156960, Note_on_c, 9, 82, 84
1, 156960, Note_on_c, 9, 42, 80
1, 156960, Note_on_c, 9, 57, 43
1, 156970, Note_on_c, 9, 42, 0
1, 156970, Note_on_c, 9, 57, 0
1, 157199, Note_on_c, 9, 40, 0
1, 157199, Note_on_c, 9, 28, 0
1, 157199, Note_on_c, 9, 82, 0
1, 157200, Note_on_c, 9, 82, 84
1, 157200, Note_on_c, 9, 42, 80
1, 157204, Note_on_c, 9, 42, 0
1, 157319, Note_on_c, 9, 82, 0
1, 157320, Note_on_c, 9, 40, 64
1, 157320, Note_on_c, 9, 28, 100
1, 157439, Note_on_c, 9, 40, 0
1, 157439, Note_on_c, 9, 28, 0
1, 157440, Note_on_c, 9, 82, 84
1, 157440, Note_on_c, 9, 42, 80
1, 157440, Note_on_c, 9, 57, 43
1, 157440, Note_on_c, 9, 36, 112
1, 157450, Note_on_c, 9, 42, 0
1, 157450, Note_on_c, 9, 57, 0
1, 157679, Note_on_c, 9, 82, 0
1, 157680, Note_on_c, 9, 82, 84
1, 157680, Note_on_c, 9, 42, 80
1, 157684, Note_on_c, 9, 42, 0
1, 157799, Note_on_c, 9, 82, 0
1, 157800, Note_on_c, 9, 82, 84
1, 157800, Note_on_c, 9, 42, 80
1, 157804, Note_on_c, 9, 42, 0
1, 157919, Note_on_c, 9, 36, 0
1, 157919, Note_on_c, 9, 82, 0
1, 157920, Note_on_c, 9, 40, 80
1, 157920, Note_on_c, 9, 28, 100
1, 157920, Note_on_c, 9, 82, 84
1, 157920, Note_on_c, 9, 42, 80
1, 157920, Note_on_c, 9, 57, 43
1, 157930, Note_on_c, 9, 42, 0
1, 157930, Note_on_c, 9, 57, 0
1, 158159, Note_on_c, 9, 40, 0
1, 158159, Note_on_c, 9, 28, 0
1, 158159, Note_on_c, 9, 82, 0
1, 158160, Note_on_c, 9, 82, 84
1, 158160, Note_on_c, 9, 42, 80
1, 158160, Note_on_c, 9, 36, 112
1, 158170, Note_on_c, 9, 42, 0
1, 158399, Note_on_c, 9, 82, 0
1, 158399, Note_on_c, 9, 36, 0
1, 158400, Note_on_c, 9, 82, 84
1, 158400, Note_on_c, 9, 42, 80
1, 158400, Note_on_c, 9, 57, 43
1, 158410, Note_on_c, 9, 42, 0
1, 158410, Note_on_c, 9, 57, 0
1, 158639, Note_on_c, 9, 82, 0
1, 158640, Note_on_c, 9, 82, 84
1, 158640, Note_on_c, 9, 42, 80
1, 158650, Note_on_c, 9, 42, 0
1, 158879, Note_on_c, 9, 82, 0
1, 158880, Note_on_c, 9, 40, 80
1, 158880, Note_on_c, 9, 28, 100
1, 158880, Note_on_c, 9, 82, 84
1, 158880, Note_on_c, 9, 42, 80
1, 158880, Note_on_c, 9, 57, 43
1, 158890, Note_on_c, 9, 42, 0
1, 158890, Note_on_c, 9, 57, 0
1, 159119, Note_on_c, 9, 40, 0
1, 159119, Note_on_c, 9, 28, 0
1, 159119, Note_on_c, 9, 82, 0
1, 159120, Note_on_c, 9, 82, 84
1, 159120, Note_on_c, 9, 42, 80
1, 159130, Note_on_c, 9, 42, 0
1, 159359, Note_on_c, 9, 82, 0
1, 159360, Note_on_c, 9, 82, 84
1, 159360, Note_on_c, 9, 42, 80
1, 159360, Note_on_c, 9, 57, 43
1, 159360, Note_on_c, 9, 36, 112
1, 159370, Note_on_c, 9, 42, 0
1, 159370, Note_on_c, 9, 57, 0
1, 159599, Note_on_c, 9, 82, 0
1, 159600, Note_on_c, 9, 82, 84
1, 159600, Note_on_c, 9, 42, 80
1, 159604, Note_on_c, 9, 42, 0
1, 159719, Note_on_c, 9, 82, 0
1, 159720, Note_on_c, 9, 82, 84
1, 159720, Note_on_c, 9, 42, 80
1, 159724, Note_on_c, 9, 42, 0
1, 159839, Note_on_c, 9, 36, 0
1, 159839, Note_on_c, 9, 82, 0
1, 159840, Note_on_c, 9, 40, 80
1, 159840, Note_on_c, 9, 28, 100
1, 159840, Note_on_c, 9, 82, 84
1, 159840, Note_on_c, 9, 42, 80
1, 159840, Note_on_c, 9, 57, 43
1, 159850, Note_on_c, 9, 42, 0
1, 159850, Note_on_c, 9, 57, 0
1, 160079, Note_on_c, 9, 40, 0
1, 160079, Note_on_c, 9, 28, 0
1, 160079, Note_on_c, 9, 82, 0
1, 160080, Note_on_c, 9, 82, 84
1, 160080, Note_on_c, 9, 42, 80
1, 160080, Note_on_c, 9, 36, 112
1, 160090, Note_on_c, 9, 42, 0
1, 160319, Note_on_c, 9, 82, 0
1, 160319, Note_on_c, 9, 36, 0
1, 160320, Note_on_c, 9, 82, 84
1, 160320, Note_on_c, 9, 42, 80
1, 160320, Note_on_c, 9, 57, 43
1, 160330, Note_on_c, 9, 42, 0
1, 160330, Note_on_c, 9, 57, 0
1, 160559, Note_on_c, 9, 82, 0
1, 160560, Note_on_c, 9, 82, 84
1, 160560, Note_on_c, 9, 42, 80
1, 160570, Note_on_c, 9, 42, 0
1, 160799, Note_on_c, 9, 82, 0
1, 160800, Note_on_c, 9, 40, 80
1, 160800, Note_on_c, 9, 28, 100
1, 160800, Note_on_c, 9, 82, 84
1, 160800, Note_on_c, 9, 42, 80
1, 160800, Note_on_c, 9, 57, 43
1, 160810, Note_on_c, 9, 42, 0
1, 160810, Note_on_c, 9, 57, 0
1, 161039, Note_on_c, 9, 40, 0
1, 161039, Note_on_c, 9, 28, 0
1, 161039, Note_on_c, 9, 82, 0
1, 161040, Note_on_c, 9, 82, 84
1, 161040, Note_on_c, 9, 42, 80
1, 161050, Note_on_c, 9, 42, 0
1, 161279, Note_on_c, 9, 82, 0
1, 161280, Note_on_c, 9, 82, 84
1, 161280, Note_on_c, 9, 42, 80
1, 161280, Note_on_c, 9, 57, 43
1, 161280, Note_on_c, 9, 36, 112
1, 161290, Note_on_c, 9, 42, 0
1, 161290, Note_on_c, 9, 57, 0
1, 161519, Note_on_c, 9, 82, 0
1, 161520, Note_on_c, 9, 82, 84
1, 161520, Note_on_c, 9, 42, 80
1, 161524, Note_on_c, 9, 42, 0
1, 161639, Note_on_c, 9, 82, 0
1, 161640, Note_on_c, 9, 82, 84
1, 161640, Note_on_c, 9, 42, 80
1, 161644, Note_on_c, 9, 42, 0
1, 161759, Note_on_c, 9, 36, 0
1, 161759, Note_on_c, 9, 82, 0
1, 161760, Note_on_c, 9, 40, 80
1, 161760, Note_on_c, 9, 28, 100
1, 161760, Note_on_c, 9, 82, 84
1, 161760, Note_on_c, 9, 42, 80
1, 161760, Note_on_c, 9, 57, 43
1, 161770, Note_on_c, 9, 42, 0
1, 161770, Note_on_c, 9, 57, 0
1, 161999, Note_on_c, 9, 40, 0
1, 161999, Note_on_c, 9, 28, 0
1, 161999, Note_on_c, 9, 82, 0
1, 162000, Note_on_c, 9, 82, 84
1, 162000, Note_on_c, 9, 42, 80
1, 162000, Note_on_c, 9, 36, 112
1, 162010, Note_on_c, 9, 42, 0
1, 162239, Note_on_c, 9, 82, 0
1, 162239, Note_on_c, 9, 36, 0
1, 162240, Note_on_c, 9, 82, 84
1, 162240, Note_on_c, 9, 42, 80
1, 162240, Note_on_c, 9, 57, 43
1, 162250, Note_on_c, 9, 42, 0
1, 162250, Note_on_c, 9, 57, 0
1, 162479, Note_on_c, 9, 82, 0
1, 162480, Note_on_c, 9, 82, 84
1, 162480, Note_on_c, 9, 42, 80
1, 162490, Note_on_c, 9, 42, 0
1, 162719, Note_on_c, 9, 82, 0
1, 162720, Note_on_c, 9, 40, 80
1, 162720, Note_on_c, 9, 28, 100
1, 162720, Note_on_c, 9, 82, 84
1, 162720, Note_on_c, 9, 42, 80
1, 162720, Note_on_c, 9, 57, 43
1, 162730, Note_on_c, 9, 42, 0
1, 162730, Note_on_c, 9, 57, 0
1, 162959, Note_on_c, 9, 40, 0
1, 162959, Note_on_c, 9, 28, 0
1, 162959, Note_on_c, 9, 82, 0
1, 162960, Note_on_c, 9, 82, 84
1, 162960, Note_on_c, 9, 42, 80
1, 162970, Note_on_c, 9, 42, 0
1, 163199, Note_on_c, 9, 82, 0
1, 163200, Note_on_c, 9, 82, 84
1, 163200, Note_on_c, 9, 42, 80
1, 163200, Note_on_c, 9, 57, 43
1, 163200, Note_on_c, 9, 36, 112
1, 163210, Note_on_c, 9, 42, 0
1, 163210, Note_on_c, 9, 57, 0
1, 163439, Note_on_c, 9, 82, 0
1, 163440, Note_on_c, 9, 82, 84
1, 163440, Note_on_c, 9, 42, 80
1, 163444, Note_on_c, 9, 42, 0
1, 163559, Note_on_c, 9, 82, 0
1, 163560, Note_on_c, 9, 82, 84
1, 163560, Note_on_c, 9, 42, 80
1, 163564, Note_on_c, 9, 42, 0
1, 163679, Note_on_c, 9, 36, 0
1, 163679, Note_on_c, 9, 82, 0
1, 163680, Note_on_c, 9, 40, 80
1, 163680, Note_on_c, 9, 28, 100
1, 163680, Note_on_c, 9, 82, 84
1, 163680, Note_on_c, 9, 42, 80
1, 163680, Note_on_c, 9, 57, 43
1, 163690, Note_on_c, 9, 42, 0
1, 163690, Note_on_c, 9, 57, 0
1, 163919, Note_on_c, 9, 40, 0
1, 163919, Note_on_c, 9, 28, 0
1, 163919, Note_on_c, 9, 82, 0
1, 163920, Note_on_c, 9, 82, 84
1, 163920, Note_on_c, 9, 42, 80
1, 163920, Note_on_c, 9, 36, 112
1, 163930, Note_on_c, 9, 42, 0
1, 164159, Note_on_c, 9, 82, 0
1, 164159, Note_on_c, 9, 36, 0
1, 164160, Note_on_c, 9, 82, 84
1, 164160, Note_on_c, 9, 42, 80
1, 164160, Note_on_c, 9, 57, 43
1, 164170, Note_on_c, 9, 42, 0
1, 164170, Note_on_c, 9, 57, 0
1, 164399, Note_on_c, 9, 82, 0
1, 164400, Note_on_c, 9, 82, 84
1, 164400, Note_on_c, 9, 42, 80
1, 164410, Note_on_c, 9, 42, 0
1, 164639, Note_on_c, 9, 82, 0
1, 164640, Note_on_c, 9, 40, 80
1, 164640, Note_on_c, 9, 28, 100
1, 164640, Note_on_c, 9, 82, 84
1, 164640, Note_on_c, 9, 42, 80
1, 164640, Note_on_c, 9, 57, 43
1, 164650, Note_on_c, 9, 42, 0
1, 164650, Note_on_c, 9, 57, 0
1, 164879, Note_on_c, 9, 40, 0
1, 164879, Note_on_c, 9, 28, 0
1, 164879, Note_on_c, 9, 82, 0
1, 164880, Note_on_c, 9, 82, 84
1, 164880, Note_on_c, 9, 42, 80
1, 164884, Note_on_c, 9, 42, 0
1, 164999, Note_on_c, 9, 82, 0
1, 165000, Note_on_c, 9, 40, 64
1, 165000, Note_on_c, 9, 28, 100
1, 165119, Note_on_c, 9, 40, 0
1, 165119, Note_on_c, 9, 28, 0
1, 165120, Note_on_c, 9, 82, 84
1, 165120, Note_on_c, 9, 42, 80
1, 165120, Note_on_c, 9, 57, 43
1, 165120, Note_on_c, 9, 36, 112
1, 165130, Note_on_c, 9, 42, 0
1, 165130, Note_on_c, 9, 57, 0
1, 165359, Note_on_c, 9, 82, 0
1, 165360, Note_on_c, 9, 82, 84
1, 165360, Note_on_c, 9, 42, 80
1, 165364, Note_on_c, 9, 42, 0
1, 165479, Note_on_c, 9, 82, 0
1, 165480, Note_on_c, 9, 82, 84
1, 165480, Note_on_c, 9, 42, 80
1, 165484, Note_on_c, 9, 42, 0
1, 165599, Note_on_c, 9, 36, 0
1, 165599, Note_on_c, 9, 82, 0
1, 165600, Note_on_c, 9, 40, 80
1, 165600, Note_on_c, 9, 28, 100
1, 165600, Note_on_c, 9, 82, 84
1, 165600, Note_on_c, 9, 42, 80
1, 165600, Note_on_c, 9, 57, 43
1, 165610, Note_on_c, 9, 42, 0
1, 165610, Note_on_c, 9, 57, 0
1, 165839, Note_on_c, 9, 40, 0
1, 165839, Note_on_c, 9, 28, 0
1, 165839, Note_on_c, 9, 82, 0
1, 165840, Note_on_c, 9, 82, 84
1, 165840, Note_on_c, 9, 42, 80
1, 165840, Note_on_c, 9, 36, 112
1, 165850, Note_on_c, 9, 42, 0
1, 166079, Note_on_c, 9, 82, 0
1, 166079, Note_on_c, 9, 36, 0
1, 166080, Note_on_c, 9, 82, 84
1, 166080, Note_on_c, 9, 42, 80
1, 166080, Note_on_c, 9, 57, 43
1, 166090, Note_on_c, 9, 42, 0
1, 166090, Note_on_c, 9, 57, 0
1, 166319, Note_on_c, 9, 82, 0
1, 166320, Note_on_c, 9, 82, 84
1, 166320, Note_on_c, 9, 42, 80
1, 166330, Note_on_c, 9, 42, 0
1, 166559, Note_on_c, 9, 82, 0
1, 166560, Note_on_c, 9, 40, 80
1, 166560, Note_on_c, 9, 28, 100
1, 166560, Note_on_c, 9, 82, 84
1, 166560, Note_on_c, 9, 42, 80
1, 166560, Note_on_c, 9, 57, 43
1, 166570, Note_on_c, 9, 42, 0
1, 166570, Note_on_c, 9, 57, 0
1, 166799, Note_on_c, 9, 40, 0
1, 166799, Note_on_c, 9, 28, 0
1, 166799, Note_on_c, 9, 82, 0
1, 166800, Note_on_c, 9, 82, 84
1, 166800, Note_on_c, 9, 42, 80
1, 166810, Note_on_c, 9, 42, 0
1, 167039, Note_on_c, 9, 82, 0
1, 167040, Note_on_c, 9, 82, 39
1, 167040, Note_on_c, 9, 42, 80
1, 167040, Note_on_c, 9, 57, 43
1, 167050, Note_on_c, 9, 42, 0
1, 167050, Note_on_c, 9, 57, 0
1, 167279, Note_on_c, 9, 82, 0
1, 167280, Note_on_c, 9, 46, 95
1, 167280, Note_on_c, 9, 36, 112
1, 167290, Note_on_c, 9, 46, 0
1, 167519, Note_on_c, 9, 36, 0
1, 167520, Note_on_c, 9, 40, 80
1, 167520, Note_on_c, 9, 28, 100
1, 167520, Note_on_c, 9, 82, 84
1, 167520, Note_on_c, 9, 57, 43
1, 167520, Note_on_c, 9, 44, 95
1, 167530, Note_on_c, 9, 57, 0
1, 167530, Note_on_c, 9, 44, 0
1, 167759, Note_on_c, 9, 40, 0
1, 167759, Note_on_c, 9, 28, 0
1, 167759, Note_on_c, 9, 82, 0
1, 167760, Note_on_c, 9, 46, 95
1, 167760, Note_on_c, 9, 36, 112
1, 167770, Note_on_c, 9, 46, 0
1, 167999, Note_on_c, 9, 36, 0
1, 168000, Note_on_c, 9, 82, 84
1, 168000, Note_on_c, 9, 44, 95
1, 168022, Note_on_c, 9, 44, 0
1, 168239, Note_on_c, 9, 82, 0
1, 168240, Note_on_c, 9, 82, 84
1, 168479, Note_on_c, 9, 82, 0
1, 168480, Note_on_c, 9, 82, 84
1, 168599, Note_on_c, 9, 82, 0
1, 168600, Note_on_c, 9, 82, 84
1, 168719, Note_on_c, 9, 82, 0
1, 168720, Note_on_c, 9, 82, 84
1, 168959, Note_on_c, 9, 82, 0
1, 168960, Note_on_c, 9, 82, 84
1, 168960, Note_on_c, 9, 42, 80
1, 168960, Note_on_c, 9, 57, 43
1, 168960, Note_on_c, 9, 36, 112
1, 168970, Note_on_c, 9, 42, 0
1, 168970, Note_on_c, 9, 57, 0
1, 169199, Note_on_c, 9, 82, 0
1, 169200, Note_on_c, 9, 82, 84
1, 169200, Note_on_c, 9, 42, 80
1, 169204, Note_on_c, 9, 42, 0
1, 169319, Note_on_c, 9, 82, 0
1, 169320, Note_on_c, 9, 82, 84
1, 169320, Note_on_c, 9, 42, 80
1, 169324, Note_on_c, 9, 42, 0
1, 169439, Note_on_c, 9, 36, 0
1, 169439, Note_on_c, 9, 82, 0
1, 169440, Note_on_c, 9, 40, 80
1, 169440, Note_on_c, 9, 28, 100
1, 169440, Note_on_c, 9, 82, 84
1, 169440, Note_on_c, 9, 42, 80
1, 169440, Note_on_c, 9, 57, 43
1, 169450, Note_on_c, 9, 42, 0
1, 169450, Note_on_c, 9, 57, 0
1, 169679, Note_on_c, 9, 40, 0
1, 169679, Note_on_c, 9, 28, 0
1, 169679, Note_on_c, 9, 82, 0
1, 169680, Note_on_c, 9, 82, 84
1, 169680, Note_on_c, 9, 42, 80
1, 169680, Note_on_c, 9, 36, 112
1, 169690, Note_on_c, 9, 42, 0
1, 169919, Note_on_c, 9, 82, 0
1, 169919, Note_on_c, 9, 36, 0
1, 169920, Note_on_c, 9, 82, 84
1, 169920, Note_on_c, 9, 42, 80
1, 169920, Note_on_c, 9, 57, 43
1, 169930, Note_on_c, 9, 42, 0
1, 169930, Note_on_c, 9, 57, 0
1, 170159, Note_on_c, 9, 82, 0
1, 170160, Note_on_c, 9, 82, 84
1, 170160, Note_on_c, 9, 42, 80
1, 170170, Note_on_c, 9, 42, 0
1, 170399, Note_on_c, 9, 82, 0
1, 170400, Note_on_c, 9, 40, 80
1, 170400, Note_on_c, 9, 28, 100
1, 170400, Note_on_c, 9, 82, 84
1, 170400, Note_on_c, 9, 42, 80
1, 170400, Note_on_c, 9, 57, 43
1, 170410, Note_on_c, 9, 42, 0
1, 170410, Note_on_c, 9, 57, 0
1, 170639, Note_on_c, 9, 40, 0
1, 170639, Note_on_c, 9, 28, 0
1, 170639, Note_on_c, 9, 82, 0
1, 170640, Note_on_c, 9, 82, 84
1, 170640, Note_on_c, 9, 42, 80
1, 170650, Note_on_c, 9, 42, 0
1, 170879, Note_on_c, 9, 82, 0
1, 170880, Note_on_c, 9, 82, 84
1, 170880, Note_on_c, 9, 42, 80
1, 170880, Note_on_c, 9, 57, 43
1, 170880, Note_on_c, 9, 36, 112
1, 170890, Note_on_c, 9, 42, 0
1, 170890, Note_on_c, 9, 57, 0
1, 171119, Note_on_c, 9, 82, 0
1, 171120, Note_on_c, 9, 82, 84
1, 171120, Note_on_c, 9, 42, 80
1, 171124, Note_on_c, 9, 42, 0
1, 171239, Note_on_c, 9, 82, 0
1, 171240, Note_on_c, 9, 82, 84
1, 171240, Note_on_c, 9, 42, 80
1, 171244, Note_on_c, 9, 42, 0
1, 171359, Note_on_c, 9, 36, 0
1, 171359, Note_on_c, 9, 82, 0
1, 171360, Note_on_c, 9, 40, 80
1, 171360, Note_on_c, 9, 28, 100
1, 171360, Note_on_c, 9, 82, 84
1, 171360, Note_on_c, 9, 42, 80
1, 171360, Note_on_c, 9, 57, 43
1, 171370, Note_on_c, 9, 42, 0
1, 171370, Note_on_c, 9, 57, 0
1, 171599, Note_on_c, 9, 40, 0
1, 171599, Note_on_c, 9, 28, 0
1, 171599, Note_on_c, 9, 82, 0
1, 171600, Note_on_c, 9, 82, 84
1, 171600, Note_on_c, 9, 42, 80
1, 171600, Note_on_c, 9, 36, 112
1, 171610, Note_on_c, 9, 42, 0
1, 171839, Note_on_c, 9, 82, 0
1, 171839, Note_on_c, 9, 36, 0
1, 171840, Note_on_c, 9, 82, 84
1, 171840, Note_on_c, 9, 42, 80
1, 171840, Note_on_c, 9, 57, 43
1, 171850, Note_on_c, 9, 42, 0
1, 171850, Note_on_c, 9, 57, 0
1, 172079, Note_on_c, 9, 82, 0
1, 172080, Note_on_c, 9, 82, 84
1, 172080, Note_on_c, 9, 42, 80
1, 172090, Note_on_c, 9, 42, 0
1, 172319, Note_on_c, 9, 82, 0
1, 172320, Note_on_c, 9, 40, 80
1, 172320, Note_on_c, 9, 28, 100
1, 172320, Note_on_c, 9, 82, 84
1, 172320, Note_on_c, 9, 42, 80
1, 172320, Note_on_c, 9, 57, 43
1, 172330, Note_on_c, 9, 42, 0
1, 172330, Note_on_c, 9, 57, 0
1, 172559, Note_on_c, 9, 40, 0
1, 172559, Note_on_c, 9, 28, 0
1, 172559, Note_on_c, 9, 82, 0
1, 172560, Note_on_c, 9, 82, 84
1, 172560, Note_on_c, 9, 42, 80
1, 172564, Note_on_c, 9, 42, 0
1, 172679, Note_on_c, 9, 82, 0
1, 172680, Note_on_c, 9, 40, 64
1, 172680, Note_on_c, 9, 28, 100
1, 172799, Note_on_c, 9, 40, 0
1, 172799, Note_on_c, 9, 28, 0
1, 172800, Note_on_c, 9, 82, 84
1, 172800, Note_on_c, 9, 42, 80
1, 172800, Note_on_c, 9, 57, 43
1, 172800, Note_on_c, 9, 36, 112
1, 172810, Note_on_c, 9, 42, 0
1, 172810, Note_on_c, 9, 57, 0
1, 173039, Note_on_c, 9, 82, 0
1, 173040, Note_on_c, 9, 82, 84
1, 173040, Note_on_c, 9, 42, 80
1, 173044, Note_on_c, 9, 42, 0
1, 173159, Note_on_c, 9, 82, 0
1, 173160, Note_on_c, 9, 82, 84
1, 173160, Note_on_c, 9, 42, 80
1, 173164, Note_on_c, 9, 42, 0
1, 173279, Note_on_c, 9, 36, 0
1, 173279, Note_on_c, 9, 82, 0
1, 173280, Note_on_c, 9, 40, 80
1, 173280, Note_on_c, 9, 28, 100
1, 173280, Note_on_c, 9, 82, 84
1, 173280, Note_on_c, 9, 42, 80
1, 173280, Note_on_c, 9, 57, 43
1, 173290, Note_on_c, 9, 42, 0
1, 173290, Note_on_c, 9, 57, 0
1, 173519, Note_on_c, 9, 40, 0
1, 173519, Note_on_c, 9, 28, 0
1, 173519, Note_on_c, 9, 82, 0
1, 173520, Note_on_c, 9, 82, 84
1, 173520, Note_on_c, 9, 42, 80
1, 173520, Note_on_c, 9, 36, 112
1, 173530, Note_on_c, 9, 42, 0
1, 173759, Note_on_c, 9, 82, 0
1, 173759, Note_on_c, 9, 36, 0
1, 173760, Note_on_c, 9, 82, 84
1, 173760, Note_on_c, 9, 42, 80
1, 173760, Note_on_c, 9, 57, 43
1, 173770, Note_on_c, 9, 42, 0
1, 173770, Note_on_c, 9, 57, 0
1, 173999, Note_on_c, 9, 82, 0
1, 174000, Note_on_c, 9, 82, 84
1, 174000, Note_on_c, 9, 42, 80
1, 174010, Note_on_c, 9, 42, 0
1, 174239, Note_on_c, 9, 82, 0
1, 174240, Note_on_c, 9, 40, 80
1, 174240, Note_on_c, 9, 28, 100
1, 174240, Note_on_c, 9, 82, 84
1, 174240, Note_on_c, 9, 42, 80
1, 174240, Note_on_c, 9, 57, 43
1, 174250, Note_on_c, 9, 42, 0
1, 174250, Note_on_c, 9, 57, 0
1, 174479, Note_on_c, 9, 40, 0
1, 174479, Note_on_c, 9, 28, 0
1, 174479, Note_on_c, 9, 82, 0
1, 174480, Note_on_c, 9, 82, 84
1, 174480, Note_on_c, 9, 42, 80
1, 174490, Note_on_c, 9, 42, 0
1, 174719, Note_on_c, 9, 82, 0
1, 174720, Note_on_c, 9, 82, 84
1, 174720, Note_on_c, 9, 42, 80
1, 174720, Note_on_c, 9, 57, 43
1, 174720, Note_on_c, 9, 36, 112
1, 174730, Note_on_c, 9, 42, 0
1, 174730, Note_on_c, 9, 57, 0
1, 174959, Note_on_c, 9, 82, 0
1, 174960, Note_on_c, 9, 82, 84
1, 174960, Note_on_c, 9, 42, 80
1, 174964, Note_on_c, 9, 42, 0
1, 175079, Note_on_c, 9, 82, 0
1, 175080, Note_on_c, 9, 82, 84
1, 175080, Note_on_c, 9, 42, 80
1, 175084, Note_on_c, 9, 42, 0
1, 175199, Note_on_c, 9, 36, 0
1, 175199, Note_on_c, 9, 82, 0
1, 175200, Note_on_c, 9, 40, 80
1, 175200, Note_on_c, 9, 28, 100
1, 175200, Note_on_c, 9, 82, 84
1, 175200, Note_on_c, 9, 42, 80
1, 175200, Note_on_c, 9, 57, 43
1, 175210, Note_on_c, 9, 42, 0
1, 175210, Note_on_c, 9, 57, 0
1, 175439, Note_on_c, 9, 40, 0
1, 175439, Note_on_c, 9, 28, 0
1, 175439, Note_on_c, 9, 82, 0
1, 175440, Note_on_c, 9, 82, 84
1, 175440, Note_on_c, 9, 42, 80
1, 175440, Note_on_c, 9, 36, 112
1, 175450, Note_on_c, 9, 42, 0
1, 175679, Note_on_c, 9, 82, 0
1, 175679, Note_on_c, 9, 36, 0
1, 175680, Note_on_c, 9, 82, 84
1, 175680, Note_on_c, 9, 42, 80
1, 175680, Note_on_c, 9, 57, 43
1, 175690, Note_on_c, 9, 42, 0
1, 175690, Note_on_c, 9, 57, 0
1, 175919, Note_on_c, 9, 82, 0
1, 175920, Note_on_c, 9, 82, 84
1, 175920, Note_on_c, 9, 42, 80
1, 175930, Note_on_c, 9, 42, 0
1, 176159, Note_on_c, 9, 82, 0
1, 176160, Note_on_c, 9, 40, 80
1, 176160, Note_on_c, 9, 28, 100
1, 176160, Note_on_c, 9, 82, 84
1, 176160, Note_on_c, 9, 42, 80
1, 176160, Note_on_c, 9, 57, 43
1, 176170, Note_on_c, 9, 42, 0
1, 176170, Note_on_c, 9, 57, 0
1, 176399, Note_on_c, 9, 40, 0
1, 176399, Note_on_c, 9, 28, 0
1, 176399, Note_on_c, 9, 82, 0
1, 176400, Note_on_c, 9, 82, 84
1, 176400, Note_on_c, 9, 42, 80
1, 176410, Note_on_c, 9, 42, 0
1, 176639, Note_on_c, 9, 82, 0
1, 176640, Note_on_c, 9, 82, 84
1, 176640, Note_on_c, 9, 42, 80
1, 176640, Note_on_c, 9, 57, 43
1, 176640, Note_on_c, 9, 36, 112
1, 176650, Note_on_c, 9, 42, 0
1, 176650, Note_on_c, 9, 57, 0
1, 176879, Note_on_c, 9, 82, 0
1, 176880, Note_on_c, 9, 82, 84
1, 176880, Note_on_c, 9, 42, 80
1, 176884, Note_on_c, 9, 42, 0
1, 176999, Note_on_c, 9, 82, 0
1, 177000, Note_on_c, 9, 82, 84
1, 177000, Note_on_c, 9, 42, 80
1, 177004, Note_on_c, 9, 42, 0
1, 177119, Note_on_c, 9, 36, 0
1, 177119, Note_on_c, 9, 82, 0
1, 177120, Note_on_c, 9, 40, 80
1, 177120, Note_on_c, 9, 28, 100
1, 177120, Note_on_c, 9, 82, 84
1, 177120, Note_on_c, 9, 42, 80
1, 177120, Note_on_c, 9, 57, 43
1, 177130, Note_on_c, 9, 42, 0
1, 177130, Note_on_c, 9, 57, 0
1, 177359, Note_on_c, 9, 40, 0
1, 177359, Note_on_c, 9, 28, 0
1, 177359, Note_on_c, 9, 82, 0
1, 177360, Note_on_c, 9, 82, 84
1, 177360, Note_on_c, 9, 42, 80
1, 177360, Note_on_c, 9, 36, 112
1, 177370, Note_on_c, 9, 42, 0
1, 177599, Note_on_c, 9, 82, 0
1, 177599, Note_on_c, 9, 36, 0
1, 177600, Note_on_c, 9, 82, 84
1, 177600, Note_on_c, 9, 42, 80
1, 177600, Note_on_c, 9, 57, 43
1, 177610, Note_on_c, 9, 42, 0
1, 177610, Note_on_c, 9, 57, 0
1, 177839, Note_on_c, 9, 82, 0
1, 177840, Note_on_c, 9, 82, 84
1, 177840, Note_on_c, 9, 42, 80
1, 177850, Note_on_c, 9, 42, 0
1, 178079, Note_on_c, 9, 82, 0
1, 178080, Note_on_c, 9, 40, 80
1, 178080, Note_on_c, 9, 28, 100
1, 178080, Note_on_c, 9, 82, 84
1, 178080, Note_on_c, 9, 42, 80
1, 178080, Note_on_c, 9, 57, 43
1, 178090, Note_on_c, 9, 42, 0
1, 178090, Note_on_c, 9, 57, 0
1, 178319, Note_on_c, 9, 40, 0
1, 178319, Note_on_c, 9, 28, 0
1, 178319, Note_on_c, 9, 82, 0
1, 178320, Note_on_c, 9, 82, 84
1, 178320, Note_on_c, 9, 42, 80
1, 178330, Note_on_c, 9, 42, 0
1, 178559, Note_on_c, 9, 82, 0
1, 178560, Note_on_c, 9, 82, 84
1, 178560, Note_on_c, 9, 42, 80
1, 178560, Note_on_c, 9, 57, 43
1, 178560, Note_on_c, 9, 36, 112
1, 178570, Note_on_c, 9, 42, 0
1, 178570, Note_on_c, 9, 57, 0
1, 178799, Note_on_c, 9, 82, 0
1, 178800, Note_on_c, 9, 82, 84
1, 178800, Note_on_c, 9, 42, 80
1, 178804, Note_on_c, 9, 42, 0
1, 178919, Note_on_c, 9, 82, 0
1, 178920, Note_on_c, 9, 82, 84
1, 178920, Note_on_c, 9, 42, 80
1, 178924, Note_on_c, 9, 42, 0
1, 179039, Note_on_c, 9, 36, 0
1, 179039, Note_on_c, 9, 82, 0
1, 179040, Note_on_c, 9, 40, 80
1, 179040, Note_on_c, 9, 28, 100
1, 179040, Note_on_c, 9, 82, 84
1, 179040, Note_on_c, 9, 42, 80
1, 179040, Note_on_c, 9, 57, 43
1, 179050, Note_on_c, 9, 42, 0
1, 179050, Note_on_c, 9, 57, 0
1, 179279, Note_on_c, 9, 40, 0
1, 179279, Note_on_c, 9, 28, 0
1, 179279, Note_on_c, 9, 82, 0
1, 179280, Note_on_c, 9, 82, 84
1, 179280, Note_on_c, 9, 42, 80
1, 179280, Note_on_c, 9, 36, 112
1, 179290, Note_on_c, 9, 42, 0
1, 179519, Note_on_c, 9, 82, 0
1, 179519, Note_on_c, 9, 36, 0
1, 179520, Note_on_c, 9, 82, 84
1, 179520, Note_on_c, 9, 42, 80
1, 179520, Note_on_c, 9, 57, 43
1, 179530, Note_on_c, 9, 42, 0
1, 179530, Note_on_c, 9, 57, 0
1, 179759, Note_on_c, 9, 82, 0
1, 179760, Note_on_c, 9, 82, 84
1, 179760, Note_on_c, 9, 42, 80
1, 179770, Note_on_c, 9, 42, 0
1, 179999, Note_on_c, 9, 82, 0
1, 180000, Note_on_c, 9, 40, 80
1, 180000, Note_on_c, 9, 28, 100
1, 180000, Note_on_c, 9, 82, 84
1, 180000, Note_on_c, 9, 42, 80
1, 180000, Note_on_c, 9, 57, 43
1, 180010, Note_on_c, 9, 42, 0
1, 180010, Note_on_c, 9, 57, 0
1, 180239, Note_on_c, 9, 40, 0
1, 180239, Note_on_c, 9, 28, 0
1, 180239, Note_on_c, 9, 82, 0
1, 180240, Note_on_c, 9, 82, 84
1, 180240, Note_on_c, 9, 42, 80
1, 180244, Note_on_c, 9, 42, 0
1, 180359, Note_on_c, 9, 82, 0
1, 180360, Note_on_c, 9, 40, 64
1, 180360, Note_on_c, 9, 28, 100
1, 180479, Note_on_c, 9, 40, 0
1, 180479, Note_on_c, 9, 28, 0
1, 180480, Note_on_c, 9, 82, 84
1, 180480, Note_on_c, 9, 42, 80
1, 180480, Note_on_c, 9, 57, 43
1, 180480, Note_on_c, 9, 36, 112
1, 180490, Note_on_c, 9, 42, 0
1, 180490, Note_on_c, 9, 57, 0
1, 180719, Note_on_c, 9, 82, 0
1, 180720, Note_on_c, 9, 82, 84
1, 180720, Note_on_c, 9, 42, 80
1, 180724, Note_on_c, 9, 42, 0
1, 180839, Note_on_c, 9, 82, 0
1, 180840, Note_on_c, 9, 82, 84
1, 180840, Note_on_c, 9, 42, 80
1, 180844, Note_on_c, 9, 42, 0
1, 180959, Note_on_c, 9, 36, 0
1, 180959, Note_on_c, 9, 82, 0
1, 180960, Note_on_c, 9, 40, 80
1, 180960, Note_on_c, 9, 28, 100
1, 180960, Note_on_c, 9, 82, 84
1, 180960, Note_on_c, 9, 42, 80
1, 180960, Note_on_c, 9, 57, 43
1, 180970, Note_on_c, 9, 42, 0
1, 180970, Note_on_c, 9, 57, 0
1, 181199, Note_on_c, 9, 40, 0
1, 181199, Note_on_c, 9, 28, 0
1, 181199, Note_on_c, 9, 82, 0
1, 181200, Note_on_c, 9, 82, 84
1, 181200, Note_on_c, 9, 42, 80
1, 181200, Note_on_c, 9, 36, 112
1, 181210, Note_on_c, 9, 42, 0
1, 181439, Note_on_c, 9, 82, 0
1, 181439, Note_on_c, 9, 36, 0
1, 181440, Note_on_c, 9, 82, 84
1, 181440, Note_on_c, 9, 42, 80
1, 181440, Note_on_c, 9, 57, 43
1, 181450, Note_on_c, 9, 42, 0
1, 181450, Note_on_c, 9, 57, 0
1, 181679, Note_on_c, 9, 82, 0
1, 181680, Note_on_c, 9, 82, 84
1, 181680, Note_on_c, 9, 42, 80
1, 181690, Note_on_c, 9, 42, 0
1, 181919, Note_on_c, 9, 82, 0
1, 181920, Note_on_c, 9, 40, 80
1, 181920, Note_on_c, 9, 28, 100
1, 181920, Note_on_c, 9, 82, 84
1, 181920, Note_on_c, 9, 42, 80
1, 181920, Note_on_c, 9, 57, 43
1, 181930, Note_on_c, 9, 42, 0
1, 181930, Note_on_c, 9, 57, 0
1, 182159, Note_on_c, 9, 40, 0
1, 182159, Note_on_c, 9, 28, 0
1, 182159, Note_on_c, 9, 82, 0
1, 182160, Note_on_c, 9, 82, 84
1, 182160, Note_on_c, 9, 42, 80
1, 182170, Note_on_c, 9, 42, 0
1, 182399, Note_on_c, 9, 82, 0
1, 182400, Note_on_c, 9, 82, 39
1, 182639, Note_on_c, 9, 82, 0
1, 182640, Note_on_c, 9, 46, 79
1, 182640, Note_on_c, 9, 36, 112
1, 182650, Note_on_c, 9, 46, 0
1, 182879, Note_on_c, 9, 36, 0
1, 182880, Note_on_c, 9, 40, 64
1, 182880, Note_on_c, 9, 28, 100
1, 182880, Note_on_c, 9, 82, 84
1, 182880, Note_on_c, 9, 44, 95
1, 182890, Note_on_c, 9, 44, 0
1, 183119, Note_on_c, 9, 40, 0
1, 183119, Note_on_c, 9, 28, 0
1, 183119, Note_on_c, 9, 82, 0
1, 183120, Note_on_c, 9, 46, 79
1, 183120, Note_on_c, 9, 36, 112
1, 183130, Note_on_c, 9, 46, 0
1, 183359, Note_on_c, 9, 36, 0
1, 183360, Note_on_c, 9, 44, 95
1, 183370, Note_on_c, 9, 44, 0
1, 183600, Note_on_c, 9, 36, 96
1, 183839, Note_on_c, 9, 36, 0
1, 184080, Note_on_c, 9, 36, 96
1, 184319, Note_on_c, 9, 36, 0
1, 184320, Note_on_c, 9, 82, 84
1, 184320, Note_on_c, 9, 42, 80
1, 184320, Note_on_c, 9, 36, 112
1, 184330, Note_on_c, 9, 42, 0
1, 184559, Note_on_c, 9, 82, 0
1, 184560, Note_on_c, 9, 82, 84
1, 184560, Note_on_c, 9, 42, 80
1, 184564, Note_on_c, 9, 42, 0
1, 184679, Note_on_c, 9, 82, 0
1, 184680, Note_on_c, 9, 82, 84
1, 184680, Note_on_c, 9, 42, 80
1, 184684, Note_on_c, 9, 42, 0
1, 184799, Note_on_c, 9, 36, 0
1, 184799, Note_on_c, 9, 82, 0
1, 184800, Note_on_c, 9, 40, 80
1, 184800, Note_on_c, 9, 28, 100
1, 184800, Note_on_c, 9, 82, 84
1, 184800, Note_on_c, 9, 42, 80
1, 184810, Note_on_c, 9, 42, 0
1, 185039, Note_on_c, 9, 40, 0
1, 185039, Note_on_c, 9, 28, 0
1, 185039, Note_on_c, 9, 82, 0
1, 185040, Note_on_c, 9, 82, 84
1, 185040, Note_on_c, 9, 42, 80
1, 185040, Note_on_c, 9, 36, 112
1, 185050, Note_on_c, 9, 42, 0
1, 185279, Note_on_c, 9, 82, 0
1, 185279, Note_on_c, 9, 36, 0
1, 185280, Note_on_c, 9, 82, 84
1, 185280, Note_on_c, 9, 42, 80
1, 185290, Note_on_c, 9, 42, 0
1, 185519, Note_on_c, 9, 82, 0
1, 185520, Note_on_c, 9, 82, 84
1, 185520, Note_on_c, 9, 42, 80
1, 185530, Note_on_c, 9, 42, 0
1, 185759, Note_on_c, 9, 82, 0
1, 185760, Note_on_c, 9, 40, 80
1, 185760, Note_on_c, 9, 28, 100
1, 185760, Note_on_c, 9, 82, 84
1, 185760, Note_on_c, 9, 42, 80
1, 185770, Note_on_c, 9, 42, 0
1, 185999, Note_on_c, 9, 40, 0
1, 185999, Note_on_c, 9, 28, 0
1, 185999, Note_on_c, 9, 82, 0
1, 186000, Note_on_c, 9, 82, 84
1, 186000, Note_on_c, 9, 42, 80
1, 186010, Note_on_c, 9, 42, 0
1, 186239, Note_on_c, 9, 82, 0
1, 186240, Note_on_c, 9, 82, 84
1, 186240, Note_on_c, 9, 42, 80
1, 186240, Note_on_c, 9, 36, 112
1, 186250, Note_on_c, 9, 42, 0
1, 186479, Note_on_c, 9, 82, 0
1, 186480, Note_on_c, 9, 82, 84
1, 186480, Note_on_c, 9, 42, 80
1, 186484, Note_on_c, 9, 42, 0
1, 186599, Note_on_c, 9, 82, 0
1, 186600, Note_on_c, 9, 82, 84
1, 186600, Note_on_c, 9, 42, 80
1, 186604, Note_on_c, 9, 42, 0
1, 186719, Note_on_c, 9, 36, 0
1, 186719, Note_on_c, 9, 82, 0
1, 186720, Note_on_c, 9, 40, 80
1, 186720, Note_on_c, 9, 28, 100
1, 186720, Note_on_c, 9, 82, 84
1, 186720, Note_on_c, 9, 42, 80
1, 186730, Note_on_c, 9, 42, 0
1, 186959, Note_on_c, 9, 40, 0
1, 186959, Note_on_c, 9, 28, 0
1, 186959, Note_on_c, 9, 82, 0
1, 186960, Note_on_c, 9, 82, 84
1, 186960, Note_on_c, 9, 42, 80
1, 186960, Note_on_c, 9, 36, 112
1, 186970, Note_on_c, 9, 42, 0
1, 187199, Note_on_c, 9, 82, 0
1, 187199, Note_on_c, 9, 36, 0
1, 187200, Note_on_c, 9, 82, 84
1, 187200, Note_on_c, 9, 42, 80
1, 187210, Note_on_c, 9, 42, 0
1, 187439, Note_on_c, 9, 82, 0
1, 187440, Note_on_c, 9, 82, 84
1, 187440, Note_on_c, 9, 42, 80
1, 187450, Note_on_c, 9, 42, 0
1, 187679, Note_on_c, 9, 82, 0
1, 187680, Note_on_c, 9, 40, 80
1, 187680, Note_on_c, 9, 28, 100
1, 187680, Note_on_c, 9, 82, 84
1, 187680, Note_on_c, 9, 42, 80
1, 187690, Note_on_c, 9, 42, 0
1, 187919, Note_on_c, 9, 40, 0
1, 187919, Note_on_c, 9, 28, 0
1, 187919, Note_on_c, 9, 82, 0
1, 187920, Note_on_c, 9, 82, 84
1, 187920, Note_on_c, 9, 42, 80
1, 187930, Note_on_c, 9, 42, 0
1, 188159, Note_on_c, 9, 82, 0
1, 188160, Note_on_c, 9, 82, 84
1, 188160, Note_on_c, 9, 42, 80
1, 188160, Note_on_c, 9, 36, 112
1, 188170, Note_on_c, 9, 42, 0
1, 188399, Note_on_c, 9, 82, 0
1, 188400, Note_on_c, 9, 82, 84
1, 188400, Note_on_c, 9, 42, 80
1, 188404, Note_on_c, 9, 42, 0
1, 188519, Note_on_c, 9, 82, 0
1, 188520, Note_on_c, 9, 82, 84
1, 188520, Note_on_c, 9, 42, 80
1, 188524, Note_on_c, 9, 42, 0
1, 188639, Note_on_c, 9, 36, 0
1, 188639, Note_on_c, 9, 82, 0
1, 188640, Note_on_c, 9, 40, 80
1, 188640, Note_on_c, 9, 28, 100
1, 188640, Note_on_c, 9, 82, 84
1, 188640, Note_on_c, 9, 42, 80
1, 188650, Note_on_c, 9, 42, 0
1, 188879, Note_on_c, 9, 40, 0
1, 188879, Note_on_c, 9, 28, 0
1, 188879, Note_on_c, 9, 82, 0
1, 188880, Note_on_c, 9, 82, 84
1, 188880, Note_on_c, 9, 42, 80
1, 188880, Note_on_c, 9, 36, 112
1, 188890, Note_on_c, 9, 42, 0
1, 189119, Note_on_c, 9, 82, 0
1, 189119, Note_on_c, 9, 36, 0
1, 189120, Note_on_c, 9, 82, 84
1, 189120, Note_on_c, 9, 42, 80
1, 189130, Note_on_c, 9, 42, 0
1, 189359, Note_on_c, 9, 82, 0
1, 189360, Note_on_c, 9, 82, 84
1, 189360, Note_on_c, 9, 42, 80
1, 189370, Note_on_c, 9, 42, 0
1, 189599, Note_on_c, 9, 82, 0
1, 189600, Note_on_c, 9, 40, 80
1, 189600, Note_on_c, 9, 28, 100
1, 189600, Note_on_c, 9, 82, 84
1, 189600, Note_on_c, 9, 42, 80
1, 189610, Note_on_c, 9, 42, 0
1, 189839, Note_on_c, 9, 40, 0
1, 189839, Note_on_c, 9, 28, 0
1, 189839, Note_on_c, 9, 82, 0
1, 189840, Note_on_c, 9, 82, 84
1, 189840, Note_on_c, 9, 42, 80
1, 189850, Note_on_c, 9, 42, 0
1, 190079, Note_on_c, 9, 82, 0
1, 190080, Note_on_c, 9, 82, 84
1, 190080, Note_on_c, 9, 42, 80
1, 190090, Note_on_c, 9, 42, 0
1, 190319, Note_on_c, 9, 82, 0
1, 190320, Note_on_c, 9, 82, 84
1, 190320, Note_on_c, 9, 42, 80
1, 190320, Note_on_c, 9, 36, 112
1, 190324, Note_on_c, 9, 42, 0
1, 190439, Note_on_c, 9, 82, 0
1, 190439, Note_on_c, 9, 36, 0
1, 190440, Note_on_c, 9, 42, 80
1, 190440, Note_on_c, 9, 36, 112
1, 190444, Note_on_c, 9, 42, 0
1, 190559, Note_on_c, 9, 36, 0
1, 190560, Note_on_c, 9, 40, 80
1, 190560, Note_on_c, 9, 28, 100
1, 190560, Note_on_c, 9, 82, 84
1, 190560, Note_on_c, 9, 42, 80
1, 190570, Note_on_c, 9, 42, 0
1, 190799, Note_on_c, 9, 40, 0
1, 190799, Note_on_c, 9, 28, 0
1, 190799, Note_on_c, 9, 82, 0
1, 190800, Note_on_c, 9, 82, 84
1, 190800, Note_on_c, 9, 42, 80
1, 190800, Note_on_c, 9, 36, 112
1, 190810, Note_on_c, 9, 42, 0
1, 191039, Note_on_c, 9, 82, 0
1, 191039, Note_on_c, 9, 36, 0
1, 191040, Note_on_c, 9, 82, 84
1, 191040, Note_on_c, 9, 42, 80
1, 191050, Note_on_c, 9, 42, 0
1, 191279, Note_on_c, 9, 82, 0
1, 191280, Note_on_c, 9, 82, 84
1, 191280, Note_on_c, 9, 42, 80
1, 191290, Note_on_c, 9, 42, 0
1, 191519, Note_on_c, 9, 82, 0
1, 191520, Note_on_c, 9, 40, 80
1, 191520, Note_on_c, 9, 28, 100
1, 191520, Note_on_c, 9, 82, 84
1, 191520, Note_on_c, 9, 42, 80
1, 191520, Note_on_c, 9, 36, 112
1, 191530, Note_on_c, 9, 42, 0
1, 191759, Note_on_c, 9, 40, 0
1, 191759, Note_on_c, 9, 28, 0
1, 191759, Note_on_c, 9, 82, 0
1, 191760, Note_on_c, 9, 82, 84
1, 191760, Note_on_c, 9, 42, 80
1, 191764, Note_on_c, 9, 42, 0
1, 191879, Note_on_c, 9, 82, 0
1, 191880, Note_on_c, 9, 40, 80
1, 191880, Note_on_c, 9, 28, 100
1, 191999, Note_on_c, 9, 36, 0
1, 191999, Note_on_c, 9, 40, 0
1, 191999, Note_on_c, 9, 28, 0
1, 192000, Note_on_c, 9, 82, 84
1, 192000, Note_on_c, 9, 42, 80
1, 192000, Note_on_c, 9, 36, 112
1, 192010, Note_on_c, 9, 42, 0
1, 192239, Note_on_c, 9, 82, 0
1, 192240, Note_on_c, 9, 82, 84
1, 192240, Note_on_c, 9, 42, 80
1, 192244, Note_on_c, 9, 42, 0
1, 192359, Note_on_c, 9, 82, 0
1, 192360, Note_on_c, 9, 82, 84
1, 192360, Note_on_c, 9, 42, 80
1, 192364, Note_on_c, 9, 42, 0
1, 192479, Note_on_c, 9, 36, 0
1, 192479, Note_on_c, 9, 82, 0
1, 192480, Note_on_c, 9, 40, 80
1, 192480, Note_on_c, 9, 28, 100
1, 192480, Note_on_c, 9, 82, 84
1, 192480, Note_on_c, 9, 42, 80
1, 192490, Note_on_c, 9, 42, 0
1, 192719, Note_on_c, 9, 40, 0
1, 192719, Note_on_c, 9, 28, 0
1, 192719, Note_on_c, 9, 82, 0
1, 192720, Note_on_c, 9, 82, 84
1, 192720, Note_on_c, 9, 42, 80
1, 192720, Note_on_c, 9, 36, 112
1, 192730, Note_on_c, 9, 42, 0
1, 192959, Note_on_c, 9, 82, 0
1, 192959, Note_on_c, 9, 36, 0
1, 192960, Note_on_c, 9, 82, 84
1, 192960, Note_on_c, 9, 42, 80
1, 192970, Note_on_c, 9, 42, 0
1, 193199, Note_on_c, 9, 82, 0
1, 193200, Note_on_c, 9, 82, 84
1, 193200, Note_on_c, 9, 42, 80
1, 193210, Note_on_c, 9, 42, 0
1, 193439, Note_on_c, 9, 82, 0
1, 193440, Note_on_c, 9, 40, 80
1, 193440, Note_on_c, 9, 28, 100
1, 193440, Note_on_c, 9, 82, 84
1, 193440, Note_on_c, 9, 42, 80
1, 193450, Note_on_c, 9, 42, 0
1, 193679, Note_on_c, 9, 40, 0
1, 193679, Note_on_c, 9, 28, 0
1, 193679, Note_on_c, 9, 82, 0
1, 193680, Note_on_c, 9, 82, 84
1, 193680, Note_on_c, 9, 42, 80
1, 193690, Note_on_c, 9, 42, 0
1, 193919, Note_on_c, 9, 82, 0
1, 193920, Note_on_c, 9, 82, 84
1, 193920, Note_on_c, 9, 42, 80
1, 193920, Note_on_c, 9, 36, 112
1, 193930, Note_on_c, 9, 42, 0
1, 194159, Note_on_c, 9, 82, 0
1, 194160, Note_on_c, 9, 82, 84
1, 194160, Note_on_c, 9, 42, 80
1, 194164, Note_on_c, 9, 42, 0
1, 194279, Note_on_c, 9, 82, 0
1, 194280, Note_on_c, 9, 82, 84
1, 194280, Note_on_c, 9, 42, 80
1, 194284, Note_on_c, 9, 42, 0
1, 194399, Note_on_c, 9, 36, 0
1, 194399, Note_on_c, 9, 82, 0
1, 194400, Note_on_c, 9, 40, 80
1, 194400, Note_on_c, 9, 28, 100
1, 194400, Note_on_c, 9, 82, 84
1, 194400, Note_on_c, 9, 42, 80
1, 194410, Note_on_c, 9, 42, 0
1, 194639, Note_on_c, 9, 40, 0
1, 194639, Note_on_c, 9, 28, 0
1, 194639, Note_on_c, 9, 82, 0
1, 194640, Note_on_c, 9, 82, 84
1, 194640, Note_on_c, 9, 42, 80
1, 194640, Note_on_c, 9, 36, 112
1, 194650, Note_on_c, 9, 42, 0
1, 194879, Note_on_c, 9, 82, 0
1, 194879, Note_on_c, 9, 36, 0
1, 194880, Note_on_c, 9, 82, 84
1, 194880, Note_on_c, 9, 42, 80
1, 194890, Note_on_c, 9, 42, 0
1, 195119, Note_on_c, 9, 82, 0
1, 195120, Note_on_c, 9, 82, 84
1, 195120, Note_on_c, 9, 42, 80
1, 195130, Note_on_c, 9, 42, 0
1, 195359, Note_on_c, 9, 82, 0
1, 195360, Note_on_c, 9, 40, 80
1, 195360, Note_on_c, 9, 28, 100
1, 195360, Note_on_c, 9, 82, 84
1, 195360, Note_on_c, 9, 42, 80
1, 195370, Note_on_c, 9, 42, 0
1, 195599, Note_on_c, 9, 40, 0
1, 195599, Note_on_c, 9, 28, 0
1, 195599, Note_on_c, 9, 82, 0
1, 195600, Note_on_c, 9, 82, 84
1, 195600, Note_on_c, 9, 42, 80
1, 195610, Note_on_c, 9, 42, 0
1, 195839, Note_on_c, 9, 82, 0
1, 195840, Note_on_c, 9, 82, 84
1, 195840, Note_on_c, 9, 42, 80
1, 195840, Note_on_c, 9, 36, 112
1, 195850, Note_on_c, 9, 42, 0
1, 196079, Note_on_c, 9, 82, 0
1, 196080, Note_on_c, 9, 82, 84
1, 196080, Note_on_c, 9, 42, 80
1, 196084, Note_on_c, 9, 42, 0
1, 196199, Note_on_c, 9, 82, 0
1, 196200, Note_on_c, 9, 82, 84
1, 196200, Note_on_c, 9, 42, 80
1, 196204, Note_on_c, 9, 42, 0
1, 196319, Note_on_c, 9, 36, 0
1, 196319, Note_on_c, 9, 82, 0
1, 196320, Note_on_c, 9, 40, 80
1, 196320, Note_on_c, 9, 28, 100
1, 196320, Note_on_c, 9, 82, 84
1, 196320, Note_on_c, 9, 42, 80
1, 196330, Note_on_c, 9, 42, 0
1, 196559, Note_on_c, 9, 40, 0
1, 196559, Note_on_c, 9, 28, 0
1, 196559, Note_on_c, 9, 82, 0
1, 196560, Note_on_c, 9, 82, 84
1, 196560, Note_on_c, 9, 42, 80
1, 196560, Note_on_c, 9, 36, 112
1, 196570, Note_on_c, 9, 42, 0
1, 196799, Note_on_c, 9, 82, 0
1, 196799, Note_on_c, 9, 36, 0
1, 196800, Note_on_c, 9, 82, 84
1, 196800, Note_on_c, 9, 42, 80
1, 196810, Note_on_c, 9, 42, 0
1, 197039, Note_on_c, 9, 82, 0
1, 197040, Note_on_c, 9, 82, 84
1, 197040, Note_on_c, 9, 42, 80
1, 197050, Note_on_c, 9, 42, 0
1, 197279, Note_on_c, 9, 82, 0
1, 197280, Note_on_c, 9, 40, 80
1, 197280, Note_on_c, 9, 28, 100
1, 197280, Note_on_c, 9, 82, 84
1, 197280, Note_on_c, 9, 42, 80
1, 197290, Note_on_c, 9, 42, 0
1, 197519, Note_on_c, 9, 40, 0
1, 197519, Note_on_c, 9, 28, 0
1, 197519, Note_on_c, 9, 82, 0
1, 197520, Note_on_c, 9, 82, 84
1, 197520, Note_on_c, 9, 42, 80
1, 197530, Note_on_c, 9, 42, 0
1, 197759, Note_on_c, 9, 82, 0
1, 197760, Note_on_c, 9, 82, 84
1, 197760, Note_on_c, 9, 42, 80
1, 197770, Note_on_c, 9, 42, 0
1, 197999, Note_on_c, 9, 82, 0
1, 198000, Note_on_c, 9, 82, 84
1, 198000, Note_on_c, 9, 42, 80
1, 198000, Note_on_c, 9, 36, 112
1, 198004, Note_on_c, 9, 42, 0
1, 198119, Note_on_c, 9, 82, 0
1, 198120, Note_on_c, 9, 42, 80
1, 198124, Note_on_c, 9, 42, 0
1, 198239, Note_on_c, 9, 36, 0
1, 198240, Note_on_c, 9, 40, 80
1, 198240, Note_on_c, 9, 28, 100
1, 198240, Note_on_c, 9, 82, 84
1, 198240, Note_on_c, 9, 42, 80
1, 198250, Note_on_c, 9, 42, 0
1, 198479, Note_on_c, 9, 40, 0
1, 198479, Note_on_c, 9, 28, 0
1, 198479, Note_on_c, 9, 82, 0
1, 198480, Note_on_c, 9, 82, 84
1, 198480, Note_on_c, 9, 42, 80
1, 198480, Note_on_c, 9, 36, 112
1, 198490, Note_on_c, 9, 42, 0
1, 198719, Note_on_c, 9, 82, 0
1, 198719, Note_on_c, 9, 36, 0
1, 199200, Note_on_c, 9, 29, 16
1, 199679, Note_on_c, 9, 29, 0
1, 199680, End_track
0, 0, End_of_file
