0, 0, Header, 1, 1, 480
1, 0, Start_track
1, 0, Title_t, "Drumset"
1, 0, Time_signature, 4, 2, 24, 8
1, 0, Key_signature, 0, "major"
1, 0, Tempo, 714286
1, 0, Control_c, 9, 121, 0
1, 0, Program_c, 9, 0
1, 0, Control_c, 9, 7, 100
1, 0, Control_c, 9, 10, 64
1, 0, Control_c, 9, 91, 0
1, 0, Control_c, 9, 93, 0
1, 0, MIDI_port, 0
1, 1920, Note_on_c, 9, 42, 50
1, 1934, Note_on_c, 9, 42, 0
1, 2400, Note_on_c, 9, 42, 40
1, 2414, Note_on_c, 9, 42, 0
1, 2880, Note_on_c, 9, 42, 40
1, 2894, Note_on_c, 9, 42, 0
1, 3360, Note_on_c, 9, 42, 40
1, 3374, Note_on_c, 9, 42, 0
1, 8280, Note_on_c, 9, 48, 83
1, 8639, Note_on_c, 9, 48, 0
1, 8640, Note_on_c, 9, 45, 98
1, 9015, Note_on_c, 9, 43, 113
1, 9059, Note_on_c, 9, 43, 0
1, 9119, Note_on_c, 9, 45, 0
1, 9360, Note_on_c, 9, 41, 127
1, 9599, Note_on_c, 9, 41, 0
1, 17295, Note_on_c, 9, 59, 58
1, 17300, Note_on_c, 9, 59, 0
1, 24020, Note_on_c, 9, 57, 7
1, 24020, Note_on_c, 9, 57, 0
1, 24060, Note_on_c, 9, 59, 17
1, 24060, Note_on_c, 9, 59, 0
1, 24090, Note_on_c, 9, 49, 13
1, 24090, Note_on_c, 9, 49, 0
1, 24144, Note_on_c, 9, 57, 11
1, 24144, Note_on_c, 9, 57, 0
1, 24168, Note_on_c, 9, 51, 22
1, 24168, Note_on_c, 9, 51, 0
1, 24216, Note_on_c, 9, 49, 15
1, 24216, Note_on_c, 9, 49, 0
1, 24240, Note_on_c, 9, 59, 33
1, 24240, Note_on_c, 9, 59, 0
1, 24257, Note_on_c, 9, 57, 26
1, 24257, Note_on_c, 9, 57, 0
1, 24309, Note_on_c, 9, 51, 38
1, 24309, Note_on_c, 9, 51, 0
1, 24326, Note_on_c, 9, 49, 25
1, 24326, Note_on_c, 9, 49, 0
1, 24343, Note_on_c, 9, 59, 45
1, 24343, Note_on_c, 9, 59, 0
1, 24375, Note_on_c, 9, 57, 31
1, 24375, Note_on_c, 9, 57, 0
1, 24405, Note_on_c, 9, 51, 53
1, 24405, Note_on_c, 9, 51, 0
1, 24435, Note_on_c, 9, 49, 38
1, 24435, Note_on_c, 9, 49, 0
1, 24450, Note_on_c, 9, 59, 47
1, 24450, Note_on_c, 9, 59, 0
1, 24480, Note_on_c, 9, 57, 31
1, 24480, Note_on_c, 9, 57, 0
1, 24504, Note_on_c, 9, 51, 56
1, 24504, Note_on_c, 9, 51, 0
1, 24528, Note_on_c, 9, 49, 42
1, 24528, Note_on_c, 9, 49, 0
1, 24552, Note_on_c, 9, 59, 69
1, 24552, Note_on_c, 9, 59, 0
1, 24576, Note_on_c, 9, 57, 49
1, 24576, Note_on_c, 9, 57, 0
1, 24600, Note_on_c, 9, 51, 65
1, 24600, Note_on_c, 9, 51, 0
1, 24620, Note_on_c, 9, 49, 45
1, 24620, Note_on_c, 9, 49, 0
1, 24640, Note_on_c, 9, 59, 82
1, 24640, Note_on_c, 9, 59, 0
1, 24675, Note_on_c, 9, 57, 56
1, 24675, Note_on_c, 9, 57, 0
1, 24705, Note_on_c, 9, 51, 91
1, 24705, Note_on_c, 9, 51, 0
1, 24720, Note_on_c, 9, 49, 62
1, 24720, Note_on_c, 9, 49, 0
1, 24750, Note_on_c, 9, 59, 79
1, 24750, Note_on_c, 9, 59, 0
1, 24780, Note_on_c, 9, 57, 64
1, 24780, Note_on_c, 9, 57, 0
1, 24795, Note_on_c, 9, 51, 87
1, 24795, Note_on_c, 9, 51, 0
1, 24825, Note_on_c, 9, 49, 67
1, 24825, Note_on_c, 9, 49, 0
1, 24855, Note_on_c, 9, 59, 99
1, 24855, Note_on_c, 9, 59, 0
1, 24870, Note_on_c, 9, 57, 70
1, 24870, Note_on_c, 9, 57, 0
1, 24900, Note_on_c, 9, 51, 89
1, 24900, Note_on_c, 9, 51, 0
1, 24930, Note_on_c, 9, 59, 106
1, 24930, Note_on_c, 9, 59, 0
1, 24960, Note_on_c, 9, 49, 82
1, 24974, Note_on_c, 9, 49, 0
1, 29760, Note_on_c, 9, 51, 16
1, 29760, Note_on_c, 9, 51, 0
1, 29800, Note_on_c, 9, 59, 15
1, 29800, Note_on_c, 9, 59, 0
1, 29850, Note_on_c, 9, 51, 15
1, 29850, Note_on_c, 9, 51, 0
1, 29880, Note_on_c, 9, 59, 24
1, 29880, Note_on_c, 9, 59, 0
1, 29925, Note_on_c, 9, 51, 17
1, 29925, Note_on_c, 9, 51, 0
1, 29970, Note_on_c, 9, 59, 34
1, 29970, Note_on_c, 9, 59, 0
1, 30015, Note_on_c, 9, 51, 27
1, 30015, Note_on_c, 9, 51, 0
1, 30045, Note_on_c, 9, 59, 40
1, 30045, Note_on_c, 9, 59, 0
1, 30090, Note_on_c, 9, 51, 35
1, 30090, Note_on_c, 9, 51, 0
1, 30135, Note_on_c, 9, 59, 44
1, 30135, Note_on_c, 9, 59, 0
1, 30180, Note_on_c, 9, 51, 39
1, 30180, Note_on_c, 9, 51, 0
1, 30220, Note_on_c, 9, 59, 52
1, 30220, Note_on_c, 9, 59, 0
1, 30260, Note_on_c, 9, 51, 46
1, 30260, Note_on_c, 9, 51, 0
1, 30300, Note_on_c, 9, 59, 59
1, 30300, Note_on_c, 9, 59, 0
1, 30345, Note_on_c, 9, 51, 45
1, 30345, Note_on_c, 9, 51, 0
1, 30380, Note_on_c, 9, 59, 60
1, 30380, Note_on_c, 9, 59, 0
1, 30420, Note_on_c, 9, 51, 46
1, 30420, Note_on_c, 9, 51, 0
1, 30460, Note_on_c, 9, 59, 66
1, 30460, Note_on_c, 9, 59, 0
1, 30510, Note_on_c, 9, 51, 71
1, 30510, Note_on_c, 9, 51, 0
1, 30540, Note_on_c, 9, 59, 67
1, 30540, Note_on_c, 9, 59, 0
1, 30585, Note_on_c, 9, 51, 78
1, 30585, Note_on_c, 9, 51, 0
1, 30630, Note_on_c, 9, 59, 64
1, 30630, Note_on_c, 9, 59, 0
1, 30675, Note_on_c, 9, 51, 79
1, 30675, Note_on_c, 9, 51, 0
1, 30720, Note_on_c, 9, 55, 89
1, 30720, Note_on_c, 9, 55, 0
1, 30720, Note_on_c, 9, 35, 116
1, 30735, Note_on_c, 9, 51, 8
1, 30735, Note_on_c, 9, 51, 0
1, 30750, Note_on_c, 9, 59, 12
1, 30750, Note_on_c, 9, 59, 0
1, 30800, Note_on_c, 9, 51, 9
1, 30800, Note_on_c, 9, 51, 0
1, 30840, Note_on_c, 9, 59, 17
1, 30840, Note_on_c, 9, 59, 0
1, 30885, Note_on_c, 9, 51, 12
1, 30885, Note_on_c, 9, 51, 0
1, 30920, Note_on_c, 9, 59, 20
1, 30920, Note_on_c, 9, 59, 0
1, 30975, Note_on_c, 9, 51, 15
1, 30975, Note_on_c, 9, 51, 0
1, 31005, Note_on_c, 9, 59, 23
1, 31005, Note_on_c, 9, 59, 0
1, 31050, Note_on_c, 9, 51, 16
1, 31050, Note_on_c, 9, 51, 0
1, 31095, Note_on_c, 9, 59, 27
1, 31095, Note_on_c, 9, 59, 0
1, 31140, Note_on_c, 9, 51, 22
1, 31140, Note_on_c, 9, 51, 0
1, 31170, Note_on_c, 9, 59, 35
1, 31170, Note_on_c, 9, 59, 0
1, 31199, Note_on_c, 9, 35, 0
1, 31220, Note_on_c, 9, 51, 25
1, 31220, Note_on_c, 9, 51, 0
1, 31260, Note_on_c, 9, 59, 34
1, 31260, Note_on_c, 9, 59, 0
1, 31300, Note_on_c, 9, 51, 17
1, 31300, Note_on_c, 9, 51, 0
1, 31335, Note_on_c, 9, 59, 29
1, 31335, Note_on_c, 9, 59, 0
1, 31380, Note_on_c, 9, 51, 33
1, 31380, Note_on_c, 9, 51, 0
1, 31410, Note_on_c, 9, 59, 25
1, 31410, Note_on_c, 9, 59, 0
1, 31460, Note_on_c, 9, 51, 28
1, 31460, Note_on_c, 9, 51, 0
1, 31500, Note_on_c, 9, 59, 41
1, 31500, Note_on_c, 9, 59, 0
1, 31545, Note_on_c, 9, 51, 28
1, 31545, Note_on_c, 9, 51, 0
1, 31590, Note_on_c, 9, 59, 37
1, 31590, Note_on_c, 9, 59, 0
1, 31635, Note_on_c, 9, 51, 22
1, 31635, Note_on_c, 9, 51, 0
1, 31680, Note_on_c, 9, 51, 27
1, 31680, Note_on_c, 9, 51, 0
1, 31710, Note_on_c, 9, 59, 31
1, 31710, Note_on_c, 9, 59, 0
1, 31760, Note_on_c, 9, 51, 26
1, 31760, Note_on_c, 9, 51, 0
1, 31800, Note_on_c, 9, 59, 31
1, 31800, Note_on_c, 9, 59, 0
1, 31840, Note_on_c, 9, 51, 29
1, 31840, Note_on_c, 9, 51, 0
1, 31880, Note_on_c, 9, 59, 27
1, 31880, Note_on_c, 9, 59, 0
1, 31920, Note_on_c, 9, 51, 27
1, 31920, Note_on_c, 9, 51, 0
1, 31960, Note_on_c, 9, 59, 33
1, 31960, Note_on_c, 9, 59, 0
1, 32010, Note_on_c, 9, 51, 30
1, 32010, Note_on_c, 9, 51, 0
1, 32040, Note_on_c, 9, 59, 38
1, 32040, Note_on_c, 9, 59, 0
1, 32085, Note_on_c, 9, 51, 38
1, 32085, Note_on_c, 9, 51, 0
1, 32130, Note_on_c, 9, 59, 29
1, 32130, Note_on_c, 9, 59, 0
1, 32175, Note_on_c, 9, 51, 35
1, 32175, Note_on_c, 9, 51, 0
1, 32205, Note_on_c, 9, 59, 21
1, 32205, Note_on_c, 9, 59, 0
1, 32250, Note_on_c, 9, 51, 30
1, 32250, Note_on_c, 9, 51, 0
1, 32295, Note_on_c, 9, 59, 38
1, 32295, Note_on_c, 9, 59, 0
1, 32340, Note_on_c, 9, 51, 23
1, 32340, Note_on_c, 9, 51, 0
1, 32400, Note_on_c, 9, 59, 57
1, 32400, Note_on_c, 9, 35, 90
1, 32406, Note_on_c, 9, 59, 0
1, 32639, Note_on_c, 9, 35, 0
1, 32640, Note_on_c, 9, 55, 57
1, 32640, Note_on_c, 9, 35, 116
1, 32654, Note_on_c, 9, 55, 0
1, 33119, Note_on_c, 9, 35, 0
1, 34560, Note_on_c, 9, 55, 32
1, 34560, Note_on_c, 9, 55, 0
1, 34560, Note_on_c, 9, 35, 116
1, 34580, Note_on_c, 9, 53, 26
1, 34619, Note_on_c, 9, 53, 0
1, 35039, Note_on_c, 9, 35, 0
1, 36240, Note_on_c, 9, 57, 23
1, 36240, Note_on_c, 9, 35, 67
1, 36246, Note_on_c, 9, 57, 0
1, 36479, Note_on_c, 9, 35, 0
1, 36480, Note_on_c, 9, 51, 54
1, 36480, Note_on_c, 9, 51, 0
1, 36480, Note_on_c, 9, 35, 116
1, 36495, Note_on_c, 9, 55, 32
1, 36495, Note_on_c, 9, 55, 0
1, 36525, Note_on_c, 9, 59, 21
1, 36525, Note_on_c, 9, 59, 0
1, 36570, Note_on_c, 9, 51, 14
1, 36570, Note_on_c, 9, 51, 0
1, 36600, Note_on_c, 9, 59, 24
1, 36600, Note_on_c, 9, 59, 0
1, 36645, Note_on_c, 9, 51, 18
1, 36645, Note_on_c, 9, 51, 0
1, 36690, Note_on_c, 9, 59, 24
1, 36690, Note_on_c, 9, 59, 0
1, 36735, Note_on_c, 9, 51, 26
1, 36735, Note_on_c, 9, 51, 0
1, 36765, Note_on_c, 9, 59, 26
1, 36765, Note_on_c, 9, 59, 0
1, 36810, Note_on_c, 9, 51, 27
1, 36810, Note_on_c, 9, 51, 0
1, 36855, Note_on_c, 9, 59, 28
1, 36855, Note_on_c, 9, 59, 0
1, 36900, Note_on_c, 9, 51, 43
1, 36900, Note_on_c, 9, 51, 0
1, 36930, Note_on_c, 9, 59, 44
1, 36930, Note_on_c, 9, 59, 0
1, 36959, Note_on_c, 9, 35, 0
1, 36980, Note_on_c, 9, 51, 39
1, 36980, Note_on_c, 9, 51, 0
1, 37020, Note_on_c, 9, 59, 45
1, 37020, Note_on_c, 9, 59, 0
1, 37065, Note_on_c, 9, 51, 37
1, 37065, Note_on_c, 9, 51, 0
1, 37100, Note_on_c, 9, 59, 45
1, 37100, Note_on_c, 9, 59, 0
1, 37140, Note_on_c, 9, 51, 46
1, 37140, Note_on_c, 9, 51, 0
1, 37180, Note_on_c, 9, 59, 50
1, 37180, Note_on_c, 9, 59, 0
1, 37230, Note_on_c, 9, 51, 51
1, 37230, Note_on_c, 9, 51, 0
1, 37260, Note_on_c, 9, 59, 52
1, 37260, Note_on_c, 9, 59, 0
1, 37305, Note_on_c, 9, 51, 59
1, 37305, Note_on_c, 9, 51, 0
1, 37350, Note_on_c, 9, 59, 59
1, 37350, Note_on_c, 9, 59, 0
1, 37395, Note_on_c, 9, 51, 53
1, 37395, Note_on_c, 9, 51, 0
1, 37440, Note_on_c, 9, 51, 62
1, 37440, Note_on_c, 9, 51, 0
1, 37485, Note_on_c, 9, 59, 54
1, 37485, Note_on_c, 9, 59, 0
1, 37530, Note_on_c, 9, 51, 67
1, 37530, Note_on_c, 9, 51, 0
1, 37575, Note_on_c, 9, 59, 55
1, 37575, Note_on_c, 9, 59, 0
1, 37620, Note_on_c, 9, 51, 65
1, 37620, Note_on_c, 9, 51, 0
1, 37650, Note_on_c, 9, 59, 67
1, 37650, Note_on_c, 9, 59, 0
1, 37700, Note_on_c, 9, 51, 72
1, 37700, Note_on_c, 9, 51, 0
1, 37740, Note_on_c, 9, 59, 60
1, 37740, Note_on_c, 9, 59, 0
1, 37780, Note_on_c, 9, 51, 72
1, 37780, Note_on_c, 9, 51, 0
1, 37815, Note_on_c, 9, 59, 70
1, 37815, Note_on_c, 9, 59, 0
1, 37860, Note_on_c, 9, 51, 60
1, 37860, Note_on_c, 9, 51, 0
1, 37905, Note_on_c, 9, 59, 75
1, 37905, Note_on_c, 9, 59, 0
1, 37950, Note_on_c, 9, 51, 81
1, 37950, Note_on_c, 9, 51, 0
1, 37980, Note_on_c, 9, 59, 71
1, 37980, Note_on_c, 9, 59, 0
1, 38025, Note_on_c, 9, 51, 61
1, 38025, Note_on_c, 9, 51, 0
1, 38070, Note_on_c, 9, 59, 75
1, 38070, Note_on_c, 9, 59, 0
1, 38115, Note_on_c, 9, 51, 84
1, 38115, Note_on_c, 9, 51, 0
1, 38145, Note_on_c, 9, 59, 72
1, 38145, Note_on_c, 9, 59, 0
1, 38190, Note_on_c, 9, 51, 78
1, 38190, Note_on_c, 9, 51, 0
1, 38235, Note_on_c, 9, 59, 80
1, 38235, Note_on_c, 9, 59, 0
1, 38280, Note_on_c, 9, 51, 85
1, 38280, Note_on_c, 9, 51, 0
1, 38310, Note_on_c, 9, 59, 95
1, 38310, Note_on_c, 9, 59, 0
1, 38360, Note_on_c, 9, 51, 76
1, 38360, Note_on_c, 9, 51, 0
1, 38400, Note_on_c, 9, 59, 92
1, 38400, Note_on_c, 9, 55, 92
1, 38400, Note_on_c, 9, 35, 122
1, 38414, Note_on_c, 9, 59, 0
1, 38414, Note_on_c, 9, 55, 0
1, 38879, Note_on_c, 9, 35, 0
1, 40080, Note_on_c, 9, 35, 70
1, 40319, Note_on_c, 9, 35, 0
1, 40320, Note_on_c, 9, 57, 44
1, 40320, Note_on_c, 9, 35, 116
1, 40334, Note_on_c, 9, 57, 0
1, 40799, Note_on_c, 9, 35, 0
1, 42240, Note_on_c, 9, 51, 84
1, 42240, Note_on_c, 9, 55, 84
1, 42240, Note_on_c, 9, 35, 110
1, 42246, Note_on_c, 9, 51, 0
1, 42246, Note_on_c, 9, 55, 0
1, 42479, Note_on_c, 9, 35, 0
1, 42480, Note_on_c, 9, 40, 21
1, 42480, Note_on_c, 9, 45, 21
1, 42480, Note_on_c, 9, 35, 13
1, 42599, Note_on_c, 9, 40, 0
1, 42599, Note_on_c, 9, 45, 0
1, 42599, Note_on_c, 9, 35, 0
1, 42600, Note_on_c, 9, 40, 27
1, 42600, Note_on_c, 9, 45, 36
1, 42600, Note_on_c, 9, 35, 23
1, 42719, Note_on_c, 9, 40, 0
1, 42719, Note_on_c, 9, 45, 0
1, 42719, Note_on_c, 9, 35, 0
1, 42720, Note_on_c, 9, 40, 46
1, 42720, Note_on_c, 9, 45, 47
1, 42720, Note_on_c, 9, 35, 31
1, 42839, Note_on_c, 9, 40, 0
1, 42839, Note_on_c, 9, 45, 0
1, 42839, Note_on_c, 9, 35, 0
1, 42840, Note_on_c, 9, 40, 71
1, 42840, Note_on_c, 9, 45, 67
1, 42840, Note_on_c, 9, 35, 43
1, 42959, Note_on_c, 9, 40, 0
1, 42959, Note_on_c, 9, 45, 0
1, 42959, Note_on_c, 9, 35, 0
1, 42960, Note_on_c, 9, 40, 100
1, 42960, Note_on_c, 9, 45, 100
1, 42960, Note_on_c, 9, 35, 47
1, 43079, Note_on_c, 9, 40, 0
1, 43079, Note_on_c, 9, 45, 0
1, 43079, Note_on_c, 9, 35, 0
1, 43080, Note_on_c, 9, 41, 127
1, 43080, Note_on_c, 9, 38, 116
1, 43080, Note_on_c, 9, 36, 122
1, 43199, Note_on_c, 9, 41, 0
1, 43199, Note_on_c, 9, 38, 0
1, 43199, Note_on_c, 9, 36, 0
1, 44160, Note_on_c, 9, 57, 116
1, 44160, Note_on_c, 9, 57, 0
1, 44160, Note_on_c, 9, 36, 116
1, 44175, Note_on_c, 9, 55, 122
1, 44180, Note_on_c, 9, 55, 0
1, 44400, Note_on_c, 9, 46, 70
1, 44406, Note_on_c, 9, 46, 0
1, 44639, Note_on_c, 9, 36, 0
1, 44640, Note_on_c, 9, 38, 122
1, 44640, Note_on_c, 9, 46, 122
1, 44646, Note_on_c, 9, 46, 0
1, 44879, Note_on_c, 9, 38, 0
1, 44880, Note_on_c, 9, 46, 77
1, 44886, Note_on_c, 9, 46, 0
1, 45120, Note_on_c, 9, 46, 116
1, 45120, Note_on_c, 9, 36, 122
1, 45126, Note_on_c, 9, 46, 0
1, 45360, Note_on_c, 9, 46, 75
1, 45366, Note_on_c, 9, 46, 0
1, 45599, Note_on_c, 9, 36, 0
1, 45600, Note_on_c, 9, 38, 116
1, 45600, Note_on_c, 9, 46, 122
1, 45606, Note_on_c, 9, 46, 0
1, 45839, Note_on_c, 9, 38, 0
1, 45840, Note_on_c, 9, 46, 73
1, 45846, Note_on_c, 9, 46, 0
1, 46080, Note_on_c, 9, 46, 116
1, 46080, Note_on_c, 9, 36, 122
1, 46086, Note_on_c, 9, 46, 0
1, 46320, Note_on_c, 9, 46, 70
1, 46326, Note_on_c, 9, 46, 0
1, 46559, Note_on_c, 9, 36, 0
1, 46560, Note_on_c, 9, 38, 116
1, 46560, Note_on_c, 9, 46, 116
1, 46566, Note_on_c, 9, 46, 0
1, 46799, Note_on_c, 9, 38, 0
1, 46800, Note_on_c, 9, 46, 74
1, 46806, Note_on_c, 9, 46, 0
1, 47040, Note_on_c, 9, 46, 116
1, 47040, Note_on_c, 9, 36, 116
1, 47046, Note_on_c, 9, 46, 0
1, 47280, Note_on_c, 9, 46, 79
1, 47286, Note_on_c, 9, 46, 0
1, 47519, Note_on_c, 9, 36, 0
1, 47520, Note_on_c, 9, 38, 116
1, 47520, Note_on_c, 9, 46, 116
1, 47526, Note_on_c, 9, 46, 0
1, 47759, Note_on_c, 9, 38, 0
1, 47760, Note_on_c, 9, 46, 76
1, 47760, Note_on_c, 9, 36, 78
1, 47766, Note_on_c, 9, 46, 0
1, 47999, Note_on_c, 9, 36, 0
1, 48000, Note_on_c, 9, 49, 116
1, 48000, Note_on_c, 9, 49, 0
1, 48000, Note_on_c, 9, 36, 122
1, 48015, Note_on_c, 9, 55, 116
1, 48020, Note_on_c, 9, 55, 0
1, 48240, Note_on_c, 9, 46, 66
1, 48246, Note_on_c, 9, 46, 0
1, 48479, Note_on_c, 9, 36, 0
1, 48480, Note_on_c, 9, 38, 122
1, 48480, Note_on_c, 9, 46, 116
1, 48486, Note_on_c, 9, 46, 0
1, 48719, Note_on_c, 9, 38, 0
1, 48720, Note_on_c, 9, 46, 71
1, 48726, Note_on_c, 9, 46, 0
1, 48960, Note_on_c, 9, 46, 116
1, 48960, Note_on_c, 9, 36, 116
1, 48966, Note_on_c, 9, 46, 0
1, 49200, Note_on_c, 9, 46, 73
1, 49205, Note_on_c, 9, 46, 0
1, 49425, Note_on_c, 9, 46, 116
1, 49425, Note_on_c, 9, 46, 0
1, 49439, Note_on_c, 9, 36, 0
1, 49440, Note_on_c, 9, 38, 116
1, 49679, Note_on_c, 9, 38, 0
1, 49680, Note_on_c, 9, 46, 71
1, 49686, Note_on_c, 9, 46, 0
1, 49920, Note_on_c, 9, 46, 110
1, 49920, Note_on_c, 9, 36, 116
1, 49926, Note_on_c, 9, 46, 0
1, 50160, Note_on_c, 9, 46, 70
1, 50166, Note_on_c, 9, 46, 0
1, 50399, Note_on_c, 9, 36, 0
1, 50400, Note_on_c, 9, 38, 116
1, 50400, Note_on_c, 9, 46, 105
1, 50406, Note_on_c, 9, 46, 0
1, 50639, Note_on_c, 9, 38, 0
1, 50640, Note_on_c, 9, 46, 69
1, 50646, Note_on_c, 9, 46, 0
1, 50880, Note_on_c, 9, 46, 110
1, 50880, Note_on_c, 9, 36, 122
1, 50886, Note_on_c, 9, 46, 0
1, 51120, Note_on_c, 9, 46, 72
1, 51126, Note_on_c, 9, 46, 0
1, 51359, Note_on_c, 9, 36, 0
1, 51360, Note_on_c, 9, 38, 110
1, 51360, Note_on_c, 9, 46, 117
1, 51366, Note_on_c, 9, 46, 0
1, 51599, Note_on_c, 9, 38, 0
1, 51600, Note_on_c, 9, 46, 70
1, 51600, Note_on_c, 9, 36, 67
1, 51606, Note_on_c, 9, 46, 0
1, 51839, Note_on_c, 9, 36, 0
1, 51840, Note_on_c, 9, 55, 110
1, 51840, Note_on_c, 9, 55, 0
1, 51840, Note_on_c, 9, 36, 127
1, 51855, Note_on_c, 9, 57, 110
1, 51860, Note_on_c, 9, 57, 0
1, 52080, Note_on_c, 9, 46, 73
1, 52085, Note_on_c, 9, 46, 0
1, 52305, Note_on_c, 9, 46, 115
1, 52305, Note_on_c, 9, 46, 0
1, 52319, Note_on_c, 9, 36, 0
1, 52320, Note_on_c, 9, 38, 116
1, 52559, Note_on_c, 9, 38, 0
1, 52560, Note_on_c, 9, 46, 80
1, 52566, Note_on_c, 9, 46, 0
1, 52800, Note_on_c, 9, 46, 116
1, 52800, Note_on_c, 9, 36, 122
1, 52806, Note_on_c, 9, 46, 0
1, 53040, Note_on_c, 9, 46, 80
1, 53046, Note_on_c, 9, 46, 0
1, 53279, Note_on_c, 9, 36, 0
1, 53280, Note_on_c, 9, 38, 116
1, 53280, Note_on_c, 9, 46, 116
1, 53286, Note_on_c, 9, 46, 0
1, 53519, Note_on_c, 9, 38, 0
1, 53520, Note_on_c, 9, 46, 77
1, 53526, Note_on_c, 9, 46, 0
1, 53760, Note_on_c, 9, 49, 116
1, 53760, Note_on_c, 9, 55, 116
1, 53760, Note_on_c, 9, 36, 122
1, 53766, Note_on_c, 9, 49, 0
1, 53766, Note_on_c, 9, 55, 0
1, 54000, Note_on_c, 9, 46, 73
1, 54006, Note_on_c, 9, 46, 0
1, 54239, Note_on_c, 9, 36, 0
1, 54240, Note_on_c, 9, 38, 116
1, 54240, Note_on_c, 9, 46, 122
1, 54246, Note_on_c, 9, 46, 0
1, 54479, Note_on_c, 9, 38, 0
1, 54480, Note_on_c, 9, 46, 70
1, 54486, Note_on_c, 9, 46, 0
1, 54720, Note_on_c, 9, 46, 122
1, 54720, Note_on_c, 9, 36, 116
1, 54726, Note_on_c, 9, 46, 0
1, 54960, Note_on_c, 9, 46, 76
1, 54966, Note_on_c, 9, 46, 0
1, 55199, Note_on_c, 9, 36, 0
1, 55200, Note_on_c, 9, 38, 116
1, 55200, Note_on_c, 9, 46, 122
1, 55206, Note_on_c, 9, 46, 0
1, 55439, Note_on_c, 9, 38, 0
1, 55440, Note_on_c, 9, 46, 72
1, 55440, Note_on_c, 9, 36, 86
1, 55446, Note_on_c, 9, 46, 0
1, 55679, Note_on_c, 9, 36, 0
1, 55680, Note_on_c, 9, 55, 122
1, 55680, Note_on_c, 9, 55, 0
1, 55680, Note_on_c, 9, 36, 122
1, 55695, Note_on_c, 9, 49, 122
1, 55700, Note_on_c, 9, 49, 0
1, 55920, Note_on_c, 9, 46, 64
1, 55926, Note_on_c, 9, 46, 0
1, 56159, Note_on_c, 9, 36, 0
1, 56160, Note_on_c, 9, 38, 116
1, 56160, Note_on_c, 9, 46, 122
1, 56166, Note_on_c, 9, 46, 0
1, 56399, Note_on_c, 9, 38, 0
1, 56400, Note_on_c, 9, 46, 70
1, 56406, Note_on_c, 9, 46, 0
1, 56640, Note_on_c, 9, 46, 122
1, 56640, Note_on_c, 9, 36, 116
1, 56646, Note_on_c, 9, 46, 0
1, 56880, Note_on_c, 9, 46, 70
1, 56885, Note_on_c, 9, 46, 0
1, 57105, Note_on_c, 9, 46, 116
1, 57105, Note_on_c, 9, 46, 0
1, 57119, Note_on_c, 9, 36, 0
1, 57120, Note_on_c, 9, 38, 116
1, 57359, Note_on_c, 9, 38, 0
1, 57360, Note_on_c, 9, 46, 64
1, 57360, Note_on_c, 9, 36, 100
1, 57366, Note_on_c, 9, 46, 0
1, 57599, Note_on_c, 9, 36, 0
1, 57600, Note_on_c, 9, 55, 116
1, 57600, Note_on_c, 9, 57, 122
1, 57600, Note_on_c, 9, 36, 122
1, 57606, Note_on_c, 9, 55, 0
1, 57606, Note_on_c, 9, 57, 0
1, 57840, Note_on_c, 9, 46, 64
1, 57846, Note_on_c, 9, 46, 0
1, 58079, Note_on_c, 9, 36, 0
1, 58080, Note_on_c, 9, 38, 110
1, 58080, Note_on_c, 9, 46, 122
1, 58086, Note_on_c, 9, 46, 0
1, 58319, Note_on_c, 9, 38, 0
1, 58320, Note_on_c, 9, 46, 65
1, 58326, Note_on_c, 9, 46, 0
1, 58560, Note_on_c, 9, 46, 122
1, 58560, Note_on_c, 9, 36, 110
1, 58566, Note_on_c, 9, 46, 0
1, 58799, Note_on_c, 9, 36, 0
1, 58800, Note_on_c, 9, 46, 68
1, 58800, Note_on_c, 9, 36, 116
1, 58805, Note_on_c, 9, 46, 0
1, 59025, Note_on_c, 9, 46, 122
1, 59025, Note_on_c, 9, 46, 0
1, 59039, Note_on_c, 9, 36, 0
1, 59040, Note_on_c, 9, 38, 110
1, 59160, Note_on_c, 9, 36, 116
1, 59279, Note_on_c, 9, 38, 0
1, 59279, Note_on_c, 9, 36, 0
1, 59280, Note_on_c, 9, 46, 68
1, 59280, Note_on_c, 9, 36, 116
1, 59286, Note_on_c, 9, 46, 0
1, 59519, Note_on_c, 9, 36, 0
1, 59520, Note_on_c, 9, 45, 122
1, 59520, Note_on_c, 9, 36, 116
1, 59539, Note_on_c, 9, 45, 0
1, 59540, Note_on_c, 9, 41, 122
1, 59579, Note_on_c, 9, 41, 0
1, 59999, Note_on_c, 9, 36, 0
1, 61440, Note_on_c, 9, 52, 116
1, 61440, Note_on_c, 9, 55, 110
1, 61440, Note_on_c, 9, 36, 116
1, 61446, Note_on_c, 9, 52, 0
1, 61446, Note_on_c, 9, 55, 0
1, 61680, Note_on_c, 9, 46, 79
1, 61685, Note_on_c, 9, 46, 0
1, 61905, Note_on_c, 9, 46, 110
1, 61905, Note_on_c, 9, 46, 0
1, 61919, Note_on_c, 9, 36, 0
1, 61920, Note_on_c, 9, 38, 110
1, 62159, Note_on_c, 9, 38, 0
1, 62160, Note_on_c, 9, 46, 64
1, 62166, Note_on_c, 9, 46, 0
1, 62400, Note_on_c, 9, 46, 105
1, 62400, Note_on_c, 9, 36, 110
1, 62406, Note_on_c, 9, 46, 0
1, 62640, Note_on_c, 9, 46, 64
1, 62646, Note_on_c, 9, 46, 0
1, 62879, Note_on_c, 9, 36, 0
1, 62880, Note_on_c, 9, 38, 122
1, 62880, Note_on_c, 9, 46, 105
1, 62886, Note_on_c, 9, 46, 0
1, 63119, Note_on_c, 9, 38, 0
1, 63120, Note_on_c, 9, 46, 65
1, 63126, Note_on_c, 9, 46, 0
1, 63360, Note_on_c, 9, 46, 110
1, 63360, Note_on_c, 9, 36, 105
1, 63366, Note_on_c, 9, 46, 0
1, 63600, Note_on_c, 9, 46, 67
1, 63606, Note_on_c, 9, 46, 0
1, 63839, Note_on_c, 9, 36, 0
1, 63840, Note_on_c, 9, 38, 116
1, 63840, Note_on_c, 9, 46, 116
1, 63846, Note_on_c, 9, 46, 0
1, 64079, Note_on_c, 9, 38, 0
1, 64080, Note_on_c, 9, 46, 67
1, 64086, Note_on_c, 9, 46, 0
1, 64320, Note_on_c, 9, 46, 105
1, 64320, Note_on_c, 9, 36, 105
1, 64326, Note_on_c, 9, 46, 0
1, 64560, Note_on_c, 9, 46, 65
1, 64566, Note_on_c, 9, 46, 0
1, 64799, Note_on_c, 9, 36, 0
1, 64800, Note_on_c, 9, 38, 122
1, 64800, Note_on_c, 9, 46, 105
1, 64806, Note_on_c, 9, 46, 0
1, 65039, Note_on_c, 9, 38, 0
1, 65040, Note_on_c, 9, 46, 64
1, 65040, Note_on_c, 9, 36, 95
1, 65046, Note_on_c, 9, 46, 0
1, 65279, Note_on_c, 9, 36, 0
1, 65280, Note_on_c, 9, 46, 105
1, 65280, Note_on_c, 9, 36, 122
1, 65286, Note_on_c, 9, 46, 0
1, 65520, Note_on_c, 9, 46, 70
1, 65525, Note_on_c, 9, 46, 0
1, 65745, Note_on_c, 9, 46, 110
1, 65745, Note_on_c, 9, 46, 0
1, 65759, Note_on_c, 9, 36, 0
1, 65760, Note_on_c, 9, 38, 122
1, 65999, Note_on_c, 9, 38, 0
1, 66000, Note_on_c, 9, 46, 70
1, 66006, Note_on_c, 9, 46, 0
1, 66240, Note_on_c, 9, 46, 105
1, 66240, Note_on_c, 9, 36, 110
1, 66246, Note_on_c, 9, 46, 0
1, 66480, Note_on_c, 9, 46, 65
1, 66486, Note_on_c, 9, 46, 0
1, 66719, Note_on_c, 9, 36, 0
1, 66720, Note_on_c, 9, 38, 122
1, 66720, Note_on_c, 9, 46, 95
1, 66726, Note_on_c, 9, 46, 0
1, 66959, Note_on_c, 9, 38, 0
1, 66960, Note_on_c, 9, 46, 67
1, 66966, Note_on_c, 9, 46, 0
1, 67200, Note_on_c, 9, 46, 100
1, 67200, Note_on_c, 9, 36, 116
1, 67206, Note_on_c, 9, 46, 0
1, 67440, Note_on_c, 9, 46, 65
1, 67446, Note_on_c, 9, 46, 0
1, 67679, Note_on_c, 9, 36, 0
1, 67680, Note_on_c, 9, 38, 116
1, 67680, Note_on_c, 9, 46, 100
1, 67686, Note_on_c, 9, 46, 0
1, 67919, Note_on_c, 9, 38, 0
1, 67920, Note_on_c, 9, 46, 70
1, 67926, Note_on_c, 9, 46, 0
1, 68160, Note_on_c, 9, 46, 100
1, 68160, Note_on_c, 9, 36, 116
1, 68166, Note_on_c, 9, 46, 0
1, 68400, Note_on_c, 9, 46, 70
1, 68406, Note_on_c, 9, 46, 0
1, 68639, Note_on_c, 9, 36, 0
1, 68640, Note_on_c, 9, 38, 116
1, 68640, Note_on_c, 9, 46, 100
1, 68646, Note_on_c, 9, 46, 0
1, 68879, Note_on_c, 9, 38, 0
1, 68880, Note_on_c, 9, 46, 70
1, 68880, Note_on_c, 9, 36, 78
1, 68886, Note_on_c, 9, 46, 0
1, 69119, Note_on_c, 9, 36, 0
1, 69120, Note_on_c, 9, 46, 105
1, 69120, Note_on_c, 9, 36, 122
1, 69126, Note_on_c, 9, 46, 0
1, 69360, Note_on_c, 9, 46, 72
1, 69366, Note_on_c, 9, 46, 0
1, 69599, Note_on_c, 9, 36, 0
1, 69600, Note_on_c, 9, 38, 122
1, 69600, Note_on_c, 9, 46, 100
1, 69606, Note_on_c, 9, 46, 0
1, 69839, Note_on_c, 9, 38, 0
1, 69840, Note_on_c, 9, 46, 74
1, 69846, Note_on_c, 9, 46, 0
1, 70080, Note_on_c, 9, 46, 100
1, 70080, Note_on_c, 9, 36, 110
1, 70086, Note_on_c, 9, 46, 0
1, 70320, Note_on_c, 9, 46, 74
1, 70325, Note_on_c, 9, 46, 0
1, 70545, Note_on_c, 9, 46, 100
1, 70545, Note_on_c, 9, 46, 0
1, 70559, Note_on_c, 9, 36, 0
1, 70560, Note_on_c, 9, 38, 122
1, 70799, Note_on_c, 9, 38, 0
1, 70800, Note_on_c, 9, 46, 67
1, 70806, Note_on_c, 9, 46, 0
1, 71040, Note_on_c, 9, 46, 105
1, 71040, Note_on_c, 9, 36, 116
1, 71046, Note_on_c, 9, 46, 0
1, 71280, Note_on_c, 9, 46, 67
1, 71285, Note_on_c, 9, 46, 0
1, 71505, Note_on_c, 9, 46, 100
1, 71505, Note_on_c, 9, 46, 0
1, 71519, Note_on_c, 9, 36, 0
1, 71520, Note_on_c, 9, 38, 122
1, 71759, Note_on_c, 9, 38, 0
1, 71760, Note_on_c, 9, 46, 70
1, 71766, Note_on_c, 9, 46, 0
1, 72000, Note_on_c, 9, 46, 105
1, 72000, Note_on_c, 9, 36, 110
1, 72006, Note_on_c, 9, 46, 0
1, 72240, Note_on_c, 9, 46, 70
1, 72245, Note_on_c, 9, 46, 0
1, 72465, Note_on_c, 9, 46, 105
1, 72465, Note_on_c, 9, 46, 0
1, 72479, Note_on_c, 9, 36, 0
1, 72480, Note_on_c, 9, 38, 116
1, 72719, Note_on_c, 9, 38, 0
1, 72720, Note_on_c, 9, 46, 67
1, 72720, Note_on_c, 9, 36, 82
1, 72726, Note_on_c, 9, 46, 0
1, 72959, Note_on_c, 9, 36, 0
1, 72960, Note_on_c, 9, 46, 100
1, 72960, Note_on_c, 9, 36, 116
1, 72966, Note_on_c, 9, 46, 0
1, 73200, Note_on_c, 9, 46, 70
1, 73205, Note_on_c, 9, 46, 0
1, 73425, Note_on_c, 9, 46, 105
1, 73425, Note_on_c, 9, 46, 0
1, 73439, Note_on_c, 9, 36, 0
1, 73440, Note_on_c, 9, 38, 116
1, 73679, Note_on_c, 9, 38, 0
1, 73680, Note_on_c, 9, 46, 77
1, 73680, Note_on_c, 9, 36, 100
1, 73686, Note_on_c, 9, 46, 0
1, 73859, Note_on_c, 9, 36, 0
1, 73905, Note_on_c, 9, 36, 122
1, 73919, Note_on_c, 9, 36, 0
1, 73920, Note_on_c, 9, 55, 116
1, 73920, Note_on_c, 9, 57, 110
1, 73934, Note_on_c, 9, 55, 0
1, 73934, Note_on_c, 9, 57, 0
1, 74400, Note_on_c, 9, 38, 122
1, 74400, Note_on_c, 9, 46, 103
1, 74406, Note_on_c, 9, 46, 0
1, 74625, Note_on_c, 9, 36, 105
1, 74639, Note_on_c, 9, 38, 0
1, 74639, Note_on_c, 9, 36, 0
1, 74640, Note_on_c, 9, 46, 72
1, 74646, Note_on_c, 9, 46, 0
1, 74880, Note_on_c, 9, 36, 110
1, 74895, Note_on_c, 9, 46, 105
1, 74900, Note_on_c, 9, 46, 0
1, 75120, Note_on_c, 9, 46, 64
1, 75126, Note_on_c, 9, 46, 0
1, 75359, Note_on_c, 9, 36, 0
1, 75360, Note_on_c, 9, 38, 122
1, 75360, Note_on_c, 9, 46, 106
1, 75366, Note_on_c, 9, 46, 0
1, 75599, Note_on_c, 9, 38, 0
1, 75600, Note_on_c, 9, 46, 64
1, 75606, Note_on_c, 9, 46, 0
1, 75840, Note_on_c, 9, 46, 116
1, 75840, Note_on_c, 9, 36, 105
1, 75846, Note_on_c, 9, 46, 0
1, 76080, Note_on_c, 9, 46, 67
1, 76086, Note_on_c, 9, 46, 0
1, 76319, Note_on_c, 9, 36, 0
1, 76320, Note_on_c, 9, 38, 116
1, 76320, Note_on_c, 9, 46, 116
1, 76326, Note_on_c, 9, 46, 0
1, 76559, Note_on_c, 9, 38, 0
1, 76560, Note_on_c, 9, 46, 60
1, 76566, Note_on_c, 9, 46, 0
1, 76800, Note_on_c, 9, 46, 122
1, 76800, Note_on_c, 9, 36, 105
1, 76806, Note_on_c, 9, 46, 0
1, 77040, Note_on_c, 9, 46, 64
1, 77046, Note_on_c, 9, 46, 0
1, 77279, Note_on_c, 9, 36, 0
1, 77280, Note_on_c, 9, 38, 116
1, 77280, Note_on_c, 9, 46, 110
1, 77286, Note_on_c, 9, 46, 0
1, 77519, Note_on_c, 9, 38, 0
1, 77520, Note_on_c, 9, 46, 65
1, 77526, Note_on_c, 9, 46, 0
1, 77760, Note_on_c, 9, 46, 122
1, 77760, Note_on_c, 9, 36, 116
1, 77766, Note_on_c, 9, 46, 0
1, 78000, Note_on_c, 9, 46, 65
1, 78006, Note_on_c, 9, 46, 0
1, 78239, Note_on_c, 9, 36, 0
1, 78240, Note_on_c, 9, 38, 116
1, 78240, Note_on_c, 9, 46, 122
1, 78246, Note_on_c, 9, 46, 0
1, 78479, Note_on_c, 9, 38, 0
1, 78480, Note_on_c, 9, 46, 77
1, 78480, Note_on_c, 9, 36, 86
1, 78486, Note_on_c, 9, 46, 0
1, 78719, Note_on_c, 9, 36, 0
1, 78720, Note_on_c, 9, 46, 116
1, 78720, Note_on_c, 9, 36, 122
1, 78726, Note_on_c, 9, 46, 0
1, 78960, Note_on_c, 9, 46, 67
1, 78966, Note_on_c, 9, 46, 0
1, 79199, Note_on_c, 9, 36, 0
1, 79200, Note_on_c, 9, 38, 116
1, 79200, Note_on_c, 9, 46, 116
1, 79206, Note_on_c, 9, 46, 0
1, 79439, Note_on_c, 9, 38, 0
1, 79440, Note_on_c, 9, 46, 70
1, 79446, Note_on_c, 9, 46, 0
1, 79680, Note_on_c, 9, 46, 110
1, 79680, Note_on_c, 9, 36, 116
1, 79686, Note_on_c, 9, 46, 0
1, 79920, Note_on_c, 9, 46, 67
1, 79926, Note_on_c, 9, 46, 0
1, 80159, Note_on_c, 9, 36, 0
1, 80160, Note_on_c, 9, 38, 116
1, 80160, Note_on_c, 9, 46, 110
1, 80166, Note_on_c, 9, 46, 0
1, 80399, Note_on_c, 9, 38, 0
1, 80400, Note_on_c, 9, 46, 74
1, 80406, Note_on_c, 9, 46, 0
1, 80640, Note_on_c, 9, 46, 116
1, 80640, Note_on_c, 9, 36, 116
1, 80646, Note_on_c, 9, 46, 0
1, 80880, Note_on_c, 9, 46, 64
1, 80886, Note_on_c, 9, 46, 0
1, 81119, Note_on_c, 9, 36, 0
1, 81120, Note_on_c, 9, 38, 110
1, 81120, Note_on_c, 9, 46, 110
1, 81126, Note_on_c, 9, 46, 0
1, 81359, Note_on_c, 9, 38, 0
1, 81360, Note_on_c, 9, 46, 77
1, 81366, Note_on_c, 9, 46, 0
1, 81600, Note_on_c, 9, 46, 105
1, 81600, Note_on_c, 9, 36, 110
1, 81606, Note_on_c, 9, 46, 0
1, 81840, Note_on_c, 9, 46, 60
1, 81846, Note_on_c, 9, 46, 0
1, 82079, Note_on_c, 9, 36, 0
1, 82080, Note_on_c, 9, 46, 110
1, 82080, Note_on_c, 9, 46, 0
1, 82100, Note_on_c, 9, 38, 116
1, 82139, Note_on_c, 9, 38, 0
1, 82320, Note_on_c, 9, 46, 72
1, 82320, Note_on_c, 9, 36, 95
1, 82326, Note_on_c, 9, 46, 0
1, 82559, Note_on_c, 9, 36, 0
1, 82560, Note_on_c, 9, 46, 110
1, 82560, Note_on_c, 9, 36, 122
1, 82566, Note_on_c, 9, 46, 0
1, 82800, Note_on_c, 9, 46, 65
1, 82806, Note_on_c, 9, 46, 0
1, 83039, Note_on_c, 9, 36, 0
1, 83040, Note_on_c, 9, 38, 122
1, 83040, Note_on_c, 9, 46, 116
1, 83046, Note_on_c, 9, 46, 0
1, 83279, Note_on_c, 9, 38, 0
1, 83280, Note_on_c, 9, 46, 72
1, 83286, Note_on_c, 9, 46, 0
1, 83520, Note_on_c, 9, 46, 116
1, 83520, Note_on_c, 9, 36, 116
1, 83526, Note_on_c, 9, 46, 0
1, 83760, Note_on_c, 9, 46, 67
1, 83766, Note_on_c, 9, 46, 0
1, 83999, Note_on_c, 9, 36, 0
1, 84000, Note_on_c, 9, 38, 105
1, 84000, Note_on_c, 9, 46, 116
1, 84006, Note_on_c, 9, 46, 0
1, 84239, Note_on_c, 9, 38, 0
1, 84240, Note_on_c, 9, 46, 70
1, 84246, Note_on_c, 9, 46, 0
1, 84480, Note_on_c, 9, 46, 110
1, 84480, Note_on_c, 9, 36, 116
1, 84486, Note_on_c, 9, 46, 0
1, 84720, Note_on_c, 9, 46, 70
1, 84726, Note_on_c, 9, 46, 0
1, 84959, Note_on_c, 9, 36, 0
1, 84960, Note_on_c, 9, 38, 116
1, 84960, Note_on_c, 9, 46, 110
1, 84966, Note_on_c, 9, 46, 0
1, 85199, Note_on_c, 9, 38, 0
1, 85200, Note_on_c, 9, 46, 67
1, 85206, Note_on_c, 9, 46, 0
1, 85440, Note_on_c, 9, 46, 116
1, 85440, Note_on_c, 9, 36, 116
1, 85446, Note_on_c, 9, 46, 0
1, 85680, Note_on_c, 9, 46, 67
1, 85686, Note_on_c, 9, 46, 0
1, 85919, Note_on_c, 9, 36, 0
1, 85920, Note_on_c, 9, 38, 116
1, 85920, Note_on_c, 9, 46, 110
1, 85926, Note_on_c, 9, 46, 0
1, 86159, Note_on_c, 9, 38, 0
1, 86160, Note_on_c, 9, 46, 74
1, 86160, Note_on_c, 9, 36, 86
1, 86166, Note_on_c, 9, 46, 0
1, 86399, Note_on_c, 9, 36, 0
1, 86400, Note_on_c, 9, 36, 122
1, 86415, Note_on_c, 9, 49, 110
1, 86415, Note_on_c, 9, 55, 110
1, 86425, Note_on_c, 9, 49, 0
1, 86425, Note_on_c, 9, 55, 0
1, 86850, Note_on_c, 9, 38, 122
1, 86850, Note_on_c, 9, 46, 116
1, 86854, Note_on_c, 9, 46, 0
1, 86879, Note_on_c, 9, 36, 0
1, 86969, Note_on_c, 9, 38, 0
1, 87120, Note_on_c, 9, 46, 77
1, 87126, Note_on_c, 9, 46, 0
1, 87360, Note_on_c, 9, 55, 122
1, 87360, Note_on_c, 9, 57, 105
1, 87360, Note_on_c, 9, 36, 122
1, 87372, Note_on_c, 9, 55, 0
1, 87372, Note_on_c, 9, 57, 0
1, 87825, Note_on_c, 9, 46, 116
1, 87825, Note_on_c, 9, 46, 0
1, 87839, Note_on_c, 9, 36, 0
1, 87840, Note_on_c, 9, 38, 122
1, 88019, Note_on_c, 9, 38, 0
1, 88065, Note_on_c, 9, 46, 74
1, 88065, Note_on_c, 9, 46, 0
1, 88320, Note_on_c, 9, 38, 12
1, 88320, Note_on_c, 9, 36, 33
1, 88439, Note_on_c, 9, 38, 0
1, 88439, Note_on_c, 9, 36, 0
1, 88440, Note_on_c, 9, 38, 14
1, 88440, Note_on_c, 9, 36, 57
1, 88559, Note_on_c, 9, 38, 0
1, 88559, Note_on_c, 9, 36, 0
1, 88560, Note_on_c, 9, 36, 78
1, 88575, Note_on_c, 9, 38, 31
1, 88619, Note_on_c, 9, 38, 0
1, 88679, Note_on_c, 9, 36, 0
1, 88680, Note_on_c, 9, 38, 41
1, 88680, Note_on_c, 9, 36, 89
1, 88799, Note_on_c, 9, 38, 0
1, 88799, Note_on_c, 9, 36, 0
1, 88800, Note_on_c, 9, 38, 48
1, 88800, Note_on_c, 9, 36, 105
1, 88919, Note_on_c, 9, 38, 0
1, 88919, Note_on_c, 9, 36, 0
1, 88920, Note_on_c, 9, 38, 57
1, 88920, Note_on_c, 9, 36, 118
1, 88979, Note_on_c, 9, 38, 0
1, 89025, Note_on_c, 9, 38, 79
1, 89039, Note_on_c, 9, 36, 0
1, 89039, Note_on_c, 9, 38, 0
1, 89040, Note_on_c, 9, 36, 122
1, 89159, Note_on_c, 9, 36, 0
1, 89160, Note_on_c, 9, 38, 106
1, 89160, Note_on_c, 9, 45, 127
1, 89160, Note_on_c, 9, 36, 127
1, 89179, Note_on_c, 9, 38, 0
1, 89179, Note_on_c, 9, 45, 0
1, 89180, Note_on_c, 9, 41, 122
1, 89219, Note_on_c, 9, 41, 0
1, 89279, Note_on_c, 9, 36, 0
1, 90240, Note_on_c, 9, 57, 127
1, 90240, Note_on_c, 9, 57, 0
1, 90240, Note_on_c, 9, 36, 116
1, 90255, Note_on_c, 9, 55, 110
1, 90260, Note_on_c, 9, 55, 0
1, 90480, Note_on_c, 9, 46, 64
1, 90485, Note_on_c, 9, 46, 0
1, 90705, Note_on_c, 9, 46, 100
1, 90705, Note_on_c, 9, 46, 0
1, 90719, Note_on_c, 9, 36, 0
1, 90720, Note_on_c, 9, 38, 105
1, 90959, Note_on_c, 9, 38, 0
1, 90960, Note_on_c, 9, 46, 70
1, 90966, Note_on_c, 9, 46, 0
1, 91200, Note_on_c, 9, 46, 100
1, 91200, Note_on_c, 9, 36, 105
1, 91206, Note_on_c, 9, 46, 0
1, 91440, Note_on_c, 9, 46, 72
1, 91446, Note_on_c, 9, 46, 0
1, 91679, Note_on_c, 9, 36, 0
1, 91680, Note_on_c, 9, 38, 105
1, 91680, Note_on_c, 9, 46, 100
1, 91686, Note_on_c, 9, 46, 0
1, 91919, Note_on_c, 9, 38, 0
1, 91920, Note_on_c, 9, 46, 67
1, 91926, Note_on_c, 9, 46, 0
1, 92160, Note_on_c, 9, 46, 100
1, 92160, Note_on_c, 9, 36, 110
1, 92166, Note_on_c, 9, 46, 0
1, 92400, Note_on_c, 9, 46, 70
1, 92406, Note_on_c, 9, 46, 0
1, 92639, Note_on_c, 9, 36, 0
1, 92640, Note_on_c, 9, 38, 105
1, 92654, Note_on_c, 9, 38, 0
1, 92655, Note_on_c, 9, 46, 95
1, 92660, Note_on_c, 9, 46, 0
1, 92880, Note_on_c, 9, 46, 65
1, 92886, Note_on_c, 9, 46, 0
1, 93120, Note_on_c, 9, 46, 105
1, 93120, Note_on_c, 9, 36, 110
1, 93126, Note_on_c, 9, 46, 0
1, 93360, Note_on_c, 9, 46, 65
1, 93366, Note_on_c, 9, 46, 0
1, 93599, Note_on_c, 9, 36, 0
1, 93600, Note_on_c, 9, 38, 110
1, 93614, Note_on_c, 9, 38, 0
1, 93615, Note_on_c, 9, 46, 105
1, 93620, Note_on_c, 9, 46, 0
1, 93840, Note_on_c, 9, 49, 105
1, 93840, Note_on_c, 9, 36, 67
1, 93846, Note_on_c, 9, 49, 0
1, 94079, Note_on_c, 9, 36, 0
1, 94080, Note_on_c, 9, 57, 127
1, 94080, Note_on_c, 9, 36, 116
1, 94086, Note_on_c, 9, 57, 0
1, 94320, Note_on_c, 9, 46, 65
1, 94326, Note_on_c, 9, 46, 0
1, 94559, Note_on_c, 9, 36, 0
1, 94560, Note_on_c, 9, 38, 105
1, 94560, Note_on_c, 9, 46, 100
1, 94566, Note_on_c, 9, 46, 0
1, 94799, Note_on_c, 9, 38, 0
1, 94800, Note_on_c, 9, 46, 65
1, 94806, Note_on_c, 9, 46, 0
1, 95040, Note_on_c, 9, 46, 95
1, 95040, Note_on_c, 9, 36, 116
1, 95046, Note_on_c, 9, 46, 0
1, 95280, Note_on_c, 9, 46, 65
1, 95286, Note_on_c, 9, 46, 0
1, 95519, Note_on_c, 9, 36, 0
1, 95520, Note_on_c, 9, 38, 110
1, 95520, Note_on_c, 9, 46, 100
1, 95526, Note_on_c, 9, 46, 0
1, 95759, Note_on_c, 9, 38, 0
1, 95760, Note_on_c, 9, 46, 67
1, 95766, Note_on_c, 9, 46, 0
1, 96000, Note_on_c, 9, 46, 100
1, 96000, Note_on_c, 9, 36, 110
1, 96006, Note_on_c, 9, 46, 0
1, 96240, Note_on_c, 9, 46, 64
1, 96246, Note_on_c, 9, 46, 0
1, 96479, Note_on_c, 9, 36, 0
1, 96480, Note_on_c, 9, 38, 105
1, 96480, Note_on_c, 9, 46, 100
1, 96486, Note_on_c, 9, 46, 0
1, 96719, Note_on_c, 9, 38, 0
1, 96720, Note_on_c, 9, 46, 70
1, 96726, Note_on_c, 9, 46, 0
1, 96960, Note_on_c, 9, 46, 100
1, 96960, Note_on_c, 9, 36, 116
1, 96966, Note_on_c, 9, 46, 0
1, 97200, Note_on_c, 9, 46, 70
1, 97206, Note_on_c, 9, 46, 0
1, 97439, Note_on_c, 9, 36, 0
1, 97440, Note_on_c, 9, 38, 110
1, 97440, Note_on_c, 9, 46, 100
1, 97446, Note_on_c, 9, 46, 0
1, 97679, Note_on_c, 9, 38, 0
1, 97680, Note_on_c, 9, 46, 70
1, 97680, Note_on_c, 9, 36, 90
1, 97686, Note_on_c, 9, 46, 0
1, 97919, Note_on_c, 9, 36, 0
1, 97920, Note_on_c, 9, 52, 116
1, 97920, Note_on_c, 9, 55, 122
1, 97920, Note_on_c, 9, 36, 116
1, 97926, Note_on_c, 9, 52, 0
1, 97926, Note_on_c, 9, 55, 0
1, 98160, Note_on_c, 9, 46, 65
1, 98166, Note_on_c, 9, 46, 0
1, 98399, Note_on_c, 9, 36, 0
1, 98400, Note_on_c, 9, 38, 105
1, 98400, Note_on_c, 9, 46, 100
1, 98406, Note_on_c, 9, 46, 0
1, 98639, Note_on_c, 9, 38, 0
1, 98640, Note_on_c, 9, 46, 67
1, 98646, Note_on_c, 9, 46, 0
1, 98880, Note_on_c, 9, 46, 100
1, 98880, Note_on_c, 9, 36, 110
1, 98886, Note_on_c, 9, 46, 0
1, 99120, Note_on_c, 9, 46, 65
1, 99125, Note_on_c, 9, 46, 0
1, 99345, Note_on_c, 9, 46, 100
1, 99345, Note_on_c, 9, 46, 0
1, 99359, Note_on_c, 9, 36, 0
1, 99360, Note_on_c, 9, 38, 110
1, 99599, Note_on_c, 9, 38, 0
1, 99600, Note_on_c, 9, 46, 65
1, 99606, Note_on_c, 9, 46, 0
1, 99840, Note_on_c, 9, 46, 100
1, 99840, Note_on_c, 9, 36, 116
1, 99846, Note_on_c, 9, 46, 0
1, 100080, Note_on_c, 9, 46, 60
1, 100086, Note_on_c, 9, 46, 0
1, 100319, Note_on_c, 9, 36, 0
1, 100320, Note_on_c, 9, 38, 105
1, 100320, Note_on_c, 9, 46, 100
1, 100326, Note_on_c, 9, 46, 0
1, 100559, Note_on_c, 9, 38, 0
1, 100560, Note_on_c, 9, 46, 65
1, 100566, Note_on_c, 9, 46, 0
1, 100800, Note_on_c, 9, 46, 105
1, 100800, Note_on_c, 9, 36, 116
1, 100806, Note_on_c, 9, 46, 0
1, 101040, Note_on_c, 9, 46, 60
1, 101046, Note_on_c, 9, 46, 0
1, 101279, Note_on_c, 9, 36, 0
1, 101280, Note_on_c, 9, 38, 105
1, 101280, Note_on_c, 9, 46, 100
1, 101286, Note_on_c, 9, 46, 0
1, 101519, Note_on_c, 9, 38, 0
1, 101520, Note_on_c, 9, 46, 65
1, 101526, Note_on_c, 9, 46, 0
1, 101760, Note_on_c, 9, 36, 122
1, 101775, Note_on_c, 9, 49, 110
1, 101775, Note_on_c, 9, 55, 122
1, 101780, Note_on_c, 9, 49, 0
1, 101780, Note_on_c, 9, 55, 0
1, 102239, Note_on_c, 9, 36, 0
1, 102240, Note_on_c, 9, 38, 105
1, 102240, Note_on_c, 9, 46, 90
1, 102246, Note_on_c, 9, 46, 0
1, 102479, Note_on_c, 9, 38, 0
1, 102480, Note_on_c, 9, 49, 100
1, 102480, Note_on_c, 9, 55, 110
1, 102480, Note_on_c, 9, 36, 82
1, 102486, Note_on_c, 9, 49, 0
1, 102486, Note_on_c, 9, 55, 0
1, 102719, Note_on_c, 9, 36, 0
1, 102720, Note_on_c, 9, 55, 122
1, 102720, Note_on_c, 9, 57, 116
1, 102720, Note_on_c, 9, 36, 122
1, 102734, Note_on_c, 9, 55, 0
1, 102734, Note_on_c, 9, 57, 0
1, 103199, Note_on_c, 9, 36, 0
1, 103200, Note_on_c, 9, 38, 105
1, 103200, Note_on_c, 9, 46, 65
1, 103206, Note_on_c, 9, 46, 0
1, 103439, Note_on_c, 9, 38, 0
1, 103440, Note_on_c, 9, 46, 100
1, 103446, Note_on_c, 9, 46, 0
1, 103680, Note_on_c, 9, 36, 116
1, 103695, Note_on_c, 9, 49, 116
1, 103695, Note_on_c, 9, 57, 122
1, 103700, Note_on_c, 9, 49, 0
1, 103700, Note_on_c, 9, 57, 0
1, 103920, Note_on_c, 9, 46, 64
1, 103926, Note_on_c, 9, 46, 0
1, 104159, Note_on_c, 9, 36, 0
1, 104160, Note_on_c, 9, 38, 105
1, 104160, Note_on_c, 9, 46, 100
1, 104166, Note_on_c, 9, 46, 0
1, 104399, Note_on_c, 9, 38, 0
1, 104400, Note_on_c, 9, 46, 64
1, 104406, Note_on_c, 9, 46, 0
1, 104640, Note_on_c, 9, 46, 95
1, 104640, Note_on_c, 9, 36, 105
1, 104646, Note_on_c, 9, 46, 0
1, 104880, Note_on_c, 9, 46, 64
1, 104886, Note_on_c, 9, 46, 0
1, 105119, Note_on_c, 9, 36, 0
1, 105120, Note_on_c, 9, 38, 110
1, 105120, Note_on_c, 9, 46, 100
1, 105126, Note_on_c, 9, 46, 0
1, 105359, Note_on_c, 9, 38, 0
1, 105360, Note_on_c, 9, 46, 64
1, 105366, Note_on_c, 9, 46, 0
1, 105600, Note_on_c, 9, 46, 100
1, 105600, Note_on_c, 9, 36, 110
1, 105606, Note_on_c, 9, 46, 0
1, 105840, Note_on_c, 9, 46, 64
1, 105846, Note_on_c, 9, 46, 0
1, 106079, Note_on_c, 9, 36, 0
1, 106080, Note_on_c, 9, 38, 105
1, 106080, Note_on_c, 9, 46, 105
1, 106086, Note_on_c, 9, 46, 0
1, 106319, Note_on_c, 9, 38, 0
1, 106320, Note_on_c, 9, 46, 65
1, 106326, Note_on_c, 9, 46, 0
1, 106560, Note_on_c, 9, 46, 105
1, 106560, Note_on_c, 9, 36, 116
1, 106566, Note_on_c, 9, 46, 0
1, 106800, Note_on_c, 9, 46, 65
1, 106806, Note_on_c, 9, 46, 0
1, 107039, Note_on_c, 9, 36, 0
1, 107040, Note_on_c, 9, 38, 95
1, 107054, Note_on_c, 9, 38, 0
1, 107055, Note_on_c, 9, 46, 100
1, 107060, Note_on_c, 9, 46, 0
1, 107280, Note_on_c, 9, 46, 67
1, 107280, Note_on_c, 9, 36, 78
1, 107286, Note_on_c, 9, 46, 0
1, 107519, Note_on_c, 9, 36, 0
1, 107520, Note_on_c, 9, 52, 116
1, 107520, Note_on_c, 9, 55, 122
1, 107520, Note_on_c, 9, 36, 116
1, 107525, Note_on_c, 9, 52, 0
1, 107525, Note_on_c, 9, 55, 0
1, 107745, Note_on_c, 9, 46, 70
1, 107750, Note_on_c, 9, 46, 0
1, 107985, Note_on_c, 9, 46, 105
1, 107985, Note_on_c, 9, 46, 0
1, 107999, Note_on_c, 9, 36, 0
1, 108000, Note_on_c, 9, 38, 105
1, 108239, Note_on_c, 9, 38, 0
1, 108240, Note_on_c, 9, 46, 70
1, 108246, Note_on_c, 9, 46, 0
1, 108480, Note_on_c, 9, 46, 100
1, 108480, Note_on_c, 9, 36, 110
1, 108486, Note_on_c, 9, 46, 0
1, 108720, Note_on_c, 9, 46, 70
1, 108726, Note_on_c, 9, 46, 0
1, 108959, Note_on_c, 9, 36, 0
1, 108960, Note_on_c, 9, 38, 105
1, 108960, Note_on_c, 9, 46, 100
1, 108966, Note_on_c, 9, 46, 0
1, 109199, Note_on_c, 9, 38, 0
1, 109200, Note_on_c, 9, 46, 70
1, 109206, Note_on_c, 9, 46, 0
1, 109440, Note_on_c, 9, 46, 100
1, 109440, Note_on_c, 9, 36, 110
1, 109446, Note_on_c, 9, 46, 0
1, 109680, Note_on_c, 9, 46, 72
1, 109685, Note_on_c, 9, 46, 0
1, 109905, Note_on_c, 9, 46, 100
1, 109905, Note_on_c, 9, 46, 0
1, 109919, Note_on_c, 9, 36, 0
1, 109920, Note_on_c, 9, 38, 105
1, 110159, Note_on_c, 9, 38, 0
1, 110160, Note_on_c, 9, 46, 72
1, 110166, Note_on_c, 9, 46, 0
1, 110400, Note_on_c, 9, 46, 95
1, 110400, Note_on_c, 9, 36, 105
1, 110406, Note_on_c, 9, 46, 0
1, 110640, Note_on_c, 9, 46, 64
1, 110644, Note_on_c, 9, 46, 0
1, 110850, Note_on_c, 9, 38, 100
1, 110850, Note_on_c, 9, 46, 95
1, 110854, Note_on_c, 9, 46, 0
1, 110879, Note_on_c, 9, 36, 0
1, 110969, Note_on_c, 9, 38, 0
1, 111120, Note_on_c, 9, 46, 60
1, 111120, Note_on_c, 9, 36, 86
1, 111126, Note_on_c, 9, 46, 0
1, 111359, Note_on_c, 9, 36, 0
1, 111360, Note_on_c, 9, 36, 116
1, 111375, Note_on_c, 9, 46, 105
1, 111380, Note_on_c, 9, 46, 0
1, 111600, Note_on_c, 9, 46, 60
1, 111606, Note_on_c, 9, 46, 0
1, 111839, Note_on_c, 9, 36, 0
1, 111840, Note_on_c, 9, 38, 110
1, 111840, Note_on_c, 9, 46, 100
1, 111846, Note_on_c, 9, 46, 0
1, 112079, Note_on_c, 9, 38, 0
1, 112080, Note_on_c, 9, 46, 65
1, 112086, Note_on_c, 9, 46, 0
1, 112320, Note_on_c, 9, 46, 100
1, 112320, Note_on_c, 9, 36, 116
1, 112326, Note_on_c, 9, 46, 0
1, 112560, Note_on_c, 9, 46, 65
1, 112566, Note_on_c, 9, 46, 0
1, 112799, Note_on_c, 9, 36, 0
1, 112800, Note_on_c, 9, 38, 110
1, 112800, Note_on_c, 9, 46, 64
1, 112806, Note_on_c, 9, 46, 0
1, 113039, Note_on_c, 9, 38, 0
1, 113040, Note_on_c, 9, 46, 100
1, 113046, Note_on_c, 9, 46, 0
1, 113280, Note_on_c, 9, 55, 122
1, 113280, Note_on_c, 9, 55, 0
1, 113280, Note_on_c, 9, 36, 105
1, 113295, Note_on_c, 9, 52, 122
1, 113300, Note_on_c, 9, 52, 0
1, 113520, Note_on_c, 9, 46, 70
1, 113526, Note_on_c, 9, 46, 0
1, 113759, Note_on_c, 9, 36, 0
1, 113760, Note_on_c, 9, 38, 105
1, 113760, Note_on_c, 9, 46, 105
1, 113766, Note_on_c, 9, 46, 0
1, 113999, Note_on_c, 9, 38, 0
1, 114000, Note_on_c, 9, 46, 64
1, 114000, Note_on_c, 9, 36, 82
1, 114006, Note_on_c, 9, 46, 0
1, 114239, Note_on_c, 9, 36, 0
1, 114240, Note_on_c, 9, 46, 100
1, 114240, Note_on_c, 9, 36, 116
1, 114246, Note_on_c, 9, 46, 0
1, 114480, Note_on_c, 9, 46, 64
1, 114486, Note_on_c, 9, 46, 0
1, 114719, Note_on_c, 9, 36, 0
1, 114720, Note_on_c, 9, 38, 105
1, 114720, Note_on_c, 9, 46, 100
1, 114726, Note_on_c, 9, 46, 0
1, 114959, Note_on_c, 9, 38, 0
1, 114960, Note_on_c, 9, 46, 67
1, 114960, Note_on_c, 9, 36, 90
1, 114966, Note_on_c, 9, 46, 0
1, 115199, Note_on_c, 9, 36, 0
1, 115200, Note_on_c, 9, 46, 100
1, 115200, Note_on_c, 9, 36, 122
1, 115206, Note_on_c, 9, 46, 0
1, 115440, Note_on_c, 9, 46, 67
1, 115446, Note_on_c, 9, 46, 0
1, 115679, Note_on_c, 9, 36, 0
1, 115680, Note_on_c, 9, 38, 116
1, 115680, Note_on_c, 9, 46, 122
1, 115686, Note_on_c, 9, 46, 0
1, 115919, Note_on_c, 9, 38, 0
1, 115920, Note_on_c, 9, 46, 64
1, 115926, Note_on_c, 9, 46, 0
1, 116160, Note_on_c, 9, 46, 105
1, 116160, Note_on_c, 9, 36, 122
1, 116166, Note_on_c, 9, 46, 0
1, 116400, Note_on_c, 9, 46, 64
1, 116406, Note_on_c, 9, 46, 0
1, 116639, Note_on_c, 9, 36, 0
1, 116640, Note_on_c, 9, 38, 122
1, 116640, Note_on_c, 9, 46, 116
1, 116646, Note_on_c, 9, 46, 0
1, 116879, Note_on_c, 9, 38, 0
1, 116880, Note_on_c, 9, 46, 65
1, 116886, Note_on_c, 9, 46, 0
1, 117120, Note_on_c, 9, 36, 116
1, 117135, Note_on_c, 9, 49, 110
1, 117135, Note_on_c, 9, 49, 0
1, 117150, Note_on_c, 9, 57, 116
1, 117162, Note_on_c, 9, 57, 0
1, 117599, Note_on_c, 9, 36, 0
1, 117600, Note_on_c, 9, 38, 122
1, 117600, Note_on_c, 9, 46, 122
1, 117606, Note_on_c, 9, 46, 0
1, 117839, Note_on_c, 9, 38, 0
1, 117840, Note_on_c, 9, 46, 100
1, 117846, Note_on_c, 9, 46, 0
1, 118080, Note_on_c, 9, 46, 105
1, 118080, Note_on_c, 9, 36, 116
1, 118086, Note_on_c, 9, 46, 0
1, 118320, Note_on_c, 9, 46, 95
1, 118324, Note_on_c, 9, 46, 0
1, 118530, Note_on_c, 9, 38, 122
1, 118530, Note_on_c, 9, 46, 122
1, 118534, Note_on_c, 9, 46, 0
1, 118559, Note_on_c, 9, 36, 0
1, 118649, Note_on_c, 9, 38, 0
1, 118800, Note_on_c, 9, 46, 95
1, 118806, Note_on_c, 9, 46, 0
1, 119040, Note_on_c, 9, 46, 122
1, 119040, Note_on_c, 9, 36, 110
1, 119046, Note_on_c, 9, 46, 0
1, 119279, Note_on_c, 9, 36, 0
1, 119280, Note_on_c, 9, 46, 95
1, 119280, Note_on_c, 9, 36, 105
1, 119284, Note_on_c, 9, 46, 0
1, 119490, Note_on_c, 9, 38, 122
1, 119490, Note_on_c, 9, 46, 122
1, 119494, Note_on_c, 9, 46, 0
1, 119519, Note_on_c, 9, 36, 0
1, 119609, Note_on_c, 9, 38, 0
1, 119760, Note_on_c, 9, 46, 105
1, 119760, Note_on_c, 9, 36, 95
1, 119766, Note_on_c, 9, 46, 0
1, 119999, Note_on_c, 9, 36, 0
1, 120000, Note_on_c, 9, 46, 122
1, 120000, Note_on_c, 9, 36, 116
1, 120005, Note_on_c, 9, 46, 0
1, 120225, Note_on_c, 9, 48, 61
1, 120239, Note_on_c, 9, 48, 0
1, 120315, Note_on_c, 9, 48, 82
1, 120359, Note_on_c, 9, 48, 0
1, 120360, Note_on_c, 9, 48, 70
1, 120479, Note_on_c, 9, 36, 0
1, 120479, Note_on_c, 9, 48, 0
1, 120480, Note_on_c, 9, 47, 84
1, 120559, Note_on_c, 9, 47, 0
1, 120560, Note_on_c, 9, 47, 99
1, 120639, Note_on_c, 9, 47, 0
1, 120640, Note_on_c, 9, 47, 91
1, 120719, Note_on_c, 9, 47, 0
1, 120720, Note_on_c, 9, 45, 100
1, 120779, Note_on_c, 9, 45, 0
1, 120795, Note_on_c, 9, 45, 114
1, 120839, Note_on_c, 9, 45, 0
1, 120840, Note_on_c, 9, 45, 127
1, 120959, Note_on_c, 9, 45, 0
1, 120960, Note_on_c, 9, 36, 105
1, 120975, Note_on_c, 9, 57, 110
1, 120980, Note_on_c, 9, 57, 0
1, 121200, Note_on_c, 9, 53, 105
1, 121439, Note_on_c, 9, 36, 0
1, 121439, Note_on_c, 9, 53, 0
1, 121440, Note_on_c, 9, 38, 116
1, 121679, Note_on_c, 9, 38, 0
1, 121680, Note_on_c, 9, 53, 82
1, 121919, Note_on_c, 9, 53, 0
1, 121920, Note_on_c, 9, 49, 116
1, 121920, Note_on_c, 9, 36, 110
1, 121934, Note_on_c, 9, 49, 0
1, 122399, Note_on_c, 9, 36, 0
1, 122400, Note_on_c, 9, 38, 116
1, 122400, Note_on_c, 9, 53, 105
1, 122640, Note_on_c, 9, 36, 105
1, 122879, Note_on_c, 9, 38, 0
1, 122879, Note_on_c, 9, 53, 0
1, 122879, Note_on_c, 9, 36, 0
1, 122880, Note_on_c, 9, 57, 116
1, 122880, Note_on_c, 9, 36, 105
1, 122894, Note_on_c, 9, 57, 0
1, 123119, Note_on_c, 9, 36, 0
1, 123120, Note_on_c, 9, 36, 116
1, 123359, Note_on_c, 9, 36, 0
1, 123360, Note_on_c, 9, 38, 110
1, 123360, Note_on_c, 9, 53, 118
1, 123599, Note_on_c, 9, 38, 0
1, 123599, Note_on_c, 9, 53, 0
1, 123600, Note_on_c, 9, 53, 122
1, 123839, Note_on_c, 9, 53, 0
1, 123840, Note_on_c, 9, 36, 116
1, 124065, Note_on_c, 9, 53, 105
1, 124079, Note_on_c, 9, 53, 0
1, 124319, Note_on_c, 9, 36, 0
1, 124320, Note_on_c, 9, 38, 116
1, 124559, Note_on_c, 9, 38, 0
1, 124560, Note_on_c, 9, 53, 110
1, 124560, Note_on_c, 9, 36, 100
1, 124799, Note_on_c, 9, 53, 0
1, 124799, Note_on_c, 9, 36, 0
1, 124800, Note_on_c, 9, 57, 122
1, 124800, Note_on_c, 9, 36, 99
1, 124814, Note_on_c, 9, 57, 0
1, 124919, Note_on_c, 9, 36, 0
1, 124920, Note_on_c, 9, 36, 52
1, 125039, Note_on_c, 9, 36, 0
1, 125040, Note_on_c, 9, 36, 122
1, 125279, Note_on_c, 9, 36, 0
1, 125280, Note_on_c, 9, 38, 110
1, 125519, Note_on_c, 9, 38, 0
1, 125520, Note_on_c, 9, 53, 110
1, 125759, Note_on_c, 9, 53, 0
1, 125760, Note_on_c, 9, 36, 105
1, 125999, Note_on_c, 9, 36, 0
1, 126000, Note_on_c, 9, 36, 110
1, 126239, Note_on_c, 9, 36, 0
1, 126240, Note_on_c, 9, 38, 122
1, 126479, Note_on_c, 9, 38, 0
1, 126480, Note_on_c, 9, 53, 116
1, 126480, Note_on_c, 9, 36, 116
1, 126719, Note_on_c, 9, 53, 0
1, 126719, Note_on_c, 9, 36, 0
1, 126720, Note_on_c, 9, 36, 59
1, 126750, Note_on_c, 9, 38, 44
1, 126809, Note_on_c, 9, 38, 0
1, 126839, Note_on_c, 9, 36, 0
1, 126840, Note_on_c, 9, 36, 78
1, 126855, Note_on_c, 9, 38, 51
1, 126899, Note_on_c, 9, 38, 0
1, 126959, Note_on_c, 9, 36, 0
1, 126960, Note_on_c, 9, 36, 89
1, 126975, Note_on_c, 9, 38, 66
1, 127019, Note_on_c, 9, 38, 0
1, 127079, Note_on_c, 9, 36, 0
1, 127080, Note_on_c, 9, 38, 78
1, 127080, Note_on_c, 9, 36, 95
1, 127199, Note_on_c, 9, 38, 0
1, 127199, Note_on_c, 9, 36, 0
1, 127200, Note_on_c, 9, 36, 101
1, 127215, Note_on_c, 9, 38, 91
1, 127259, Note_on_c, 9, 38, 0
1, 127319, Note_on_c, 9, 36, 0
1, 127320, Note_on_c, 9, 38, 105
1, 127320, Note_on_c, 9, 36, 108
1, 127439, Note_on_c, 9, 38, 0
1, 127439, Note_on_c, 9, 36, 0
1, 127440, Note_on_c, 9, 38, 116
1, 127440, Note_on_c, 9, 36, 116
1, 127499, Note_on_c, 9, 38, 0
1, 127499, Note_on_c, 9, 36, 0
1, 127545, Note_on_c, 9, 45, 127
1, 127545, Note_on_c, 9, 36, 125
1, 127559, Note_on_c, 9, 45, 0
1, 127559, Note_on_c, 9, 36, 0
1, 127560, Note_on_c, 9, 38, 127
1, 127574, Note_on_c, 9, 38, 0
1, 127575, Note_on_c, 9, 41, 122
1, 127619, Note_on_c, 9, 41, 0
1, 128640, Note_on_c, 9, 36, 116
1, 128655, Note_on_c, 9, 49, 116
1, 128655, Note_on_c, 9, 49, 0
1, 128670, Note_on_c, 9, 57, 127
1, 128671, Note_on_c, 9, 57, 0
1, 128879, Note_on_c, 9, 36, 0
1, 128880, Note_on_c, 9, 46, 80
1, 128880, Note_on_c, 9, 36, 122
1, 128886, Note_on_c, 9, 46, 0
1, 129119, Note_on_c, 9, 36, 0
1, 129120, Note_on_c, 9, 38, 116
1, 129120, Note_on_c, 9, 46, 116
1, 129126, Note_on_c, 9, 46, 0
1, 129359, Note_on_c, 9, 38, 0
1, 129360, Note_on_c, 9, 38, 21
1, 129374, Note_on_c, 9, 38, 0
1, 129375, Note_on_c, 9, 46, 80
1, 129380, Note_on_c, 9, 46, 0
1, 129600, Note_on_c, 9, 46, 116
1, 129600, Note_on_c, 9, 36, 116
1, 129606, Note_on_c, 9, 46, 0
1, 129840, Note_on_c, 9, 46, 86
1, 129846, Note_on_c, 9, 46, 0
1, 130079, Note_on_c, 9, 36, 0
1, 130080, Note_on_c, 9, 38, 116
1, 130080, Note_on_c, 9, 46, 116
1, 130086, Note_on_c, 9, 46, 0
1, 130319, Note_on_c, 9, 38, 0
1, 130320, Note_on_c, 9, 46, 82
1, 130326, Note_on_c, 9, 46, 0
1, 130560, Note_on_c, 9, 46, 122
1, 130560, Note_on_c, 9, 36, 105
1, 130566, Note_on_c, 9, 46, 0
1, 130799, Note_on_c, 9, 36, 0
1, 130800, Note_on_c, 9, 46, 79
1, 130800, Note_on_c, 9, 36, 110
1, 130806, Note_on_c, 9, 46, 0
1, 131039, Note_on_c, 9, 36, 0
1, 131040, Note_on_c, 9, 38, 116
1, 131040, Note_on_c, 9, 46, 122
1, 131046, Note_on_c, 9, 46, 0
1, 131279, Note_on_c, 9, 38, 0
1, 131280, Note_on_c, 9, 46, 78
1, 131286, Note_on_c, 9, 46, 0
1, 131520, Note_on_c, 9, 46, 110
1, 131520, Note_on_c, 9, 36, 116
1, 131526, Note_on_c, 9, 46, 0
1, 131760, Note_on_c, 9, 46, 77
1, 131766, Note_on_c, 9, 46, 0
1, 131999, Note_on_c, 9, 36, 0
1, 132000, Note_on_c, 9, 38, 116
1, 132000, Note_on_c, 9, 46, 116
1, 132006, Note_on_c, 9, 46, 0
1, 132239, Note_on_c, 9, 38, 0
1, 132240, Note_on_c, 9, 46, 80
1, 132246, Note_on_c, 9, 46, 0
1, 132480, Note_on_c, 9, 46, 110
1, 132480, Note_on_c, 9, 36, 122
1, 132486, Note_on_c, 9, 46, 0
1, 132720, Note_on_c, 9, 46, 80
1, 132726, Note_on_c, 9, 46, 0
1, 132959, Note_on_c, 9, 36, 0
1, 132960, Note_on_c, 9, 38, 110
1, 132960, Note_on_c, 9, 46, 110
1, 132966, Note_on_c, 9, 46, 0
1, 133199, Note_on_c, 9, 38, 0
1, 133200, Note_on_c, 9, 46, 85
1, 133206, Note_on_c, 9, 46, 0
1, 133440, Note_on_c, 9, 46, 110
1, 133440, Note_on_c, 9, 36, 116
1, 133446, Note_on_c, 9, 46, 0
1, 133680, Note_on_c, 9, 46, 79
1, 133686, Note_on_c, 9, 46, 0
1, 133919, Note_on_c, 9, 36, 0
1, 133920, Note_on_c, 9, 38, 116
1, 133920, Note_on_c, 9, 46, 116
1, 133926, Note_on_c, 9, 46, 0
1, 134159, Note_on_c, 9, 38, 0
1, 134160, Note_on_c, 9, 46, 78
1, 134166, Note_on_c, 9, 46, 0
1, 134400, Note_on_c, 9, 46, 122
1, 134400, Note_on_c, 9, 36, 105
1, 134406, Note_on_c, 9, 46, 0
1, 134640, Note_on_c, 9, 46, 79
1, 134646, Note_on_c, 9, 46, 0
1, 134879, Note_on_c, 9, 36, 0
1, 134880, Note_on_c, 9, 38, 110
1, 134880, Note_on_c, 9, 46, 116
1, 134886, Note_on_c, 9, 46, 0
1, 135119, Note_on_c, 9, 38, 0
1, 135120, Note_on_c, 9, 46, 79
1, 135126, Note_on_c, 9, 46, 0
1, 135360, Note_on_c, 9, 46, 116
1, 135360, Note_on_c, 9, 36, 116
1, 135366, Note_on_c, 9, 46, 0
1, 135600, Note_on_c, 9, 46, 81
1, 135606, Note_on_c, 9, 46, 0
1, 135839, Note_on_c, 9, 36, 0
1, 135840, Note_on_c, 9, 38, 122
1, 135840, Note_on_c, 9, 46, 116
1, 135846, Note_on_c, 9, 46, 0
1, 136079, Note_on_c, 9, 38, 0
1, 136080, Note_on_c, 9, 46, 81
1, 136080, Note_on_c, 9, 36, 105
1, 136086, Note_on_c, 9, 46, 0
1, 136319, Note_on_c, 9, 36, 0
1, 136320, Note_on_c, 9, 46, 122
1, 136320, Note_on_c, 9, 36, 116
1, 136326, Note_on_c, 9, 46, 0
1, 136559, Note_on_c, 9, 36, 0
1, 136560, Note_on_c, 9, 46, 77
1, 136560, Note_on_c, 9, 36, 122
1, 136566, Note_on_c, 9, 46, 0
1, 136799, Note_on_c, 9, 36, 0
1, 136800, Note_on_c, 9, 38, 116
1, 136800, Note_on_c, 9, 46, 122
1, 136806, Note_on_c, 9, 46, 0
1, 137039, Note_on_c, 9, 38, 0
1, 137040, Note_on_c, 9, 46, 79
1, 137046, Note_on_c, 9, 46, 0
1, 137280, Note_on_c, 9, 46, 122
1, 137280, Note_on_c, 9, 36, 110
1, 137286, Note_on_c, 9, 46, 0
1, 137520, Note_on_c, 9, 46, 74
1, 137526, Note_on_c, 9, 46, 0
1, 137759, Note_on_c, 9, 36, 0
1, 137760, Note_on_c, 9, 38, 116
1, 137760, Note_on_c, 9, 46, 127
1, 137766, Note_on_c, 9, 46, 0
1, 137999, Note_on_c, 9, 38, 0
1, 138000, Note_on_c, 9, 46, 79
1, 138006, Note_on_c, 9, 46, 0
1, 138240, Note_on_c, 9, 46, 122
1, 138240, Note_on_c, 9, 36, 116
1, 138246, Note_on_c, 9, 46, 0
1, 138480, Note_on_c, 9, 46, 74
1, 138486, Note_on_c, 9, 46, 0
1, 138719, Note_on_c, 9, 36, 0
1, 138720, Note_on_c, 9, 46, 122
1, 138720, Note_on_c, 9, 46, 0
1, 138740, Note_on_c, 9, 38, 122
1, 138779, Note_on_c, 9, 38, 0
1, 138960, Note_on_c, 9, 46, 77
1, 138966, Note_on_c, 9, 46, 0
1, 139200, Note_on_c, 9, 46, 122
1, 139200, Note_on_c, 9, 36, 116
1, 139206, Note_on_c, 9, 46, 0
1, 139440, Note_on_c, 9, 46, 76
1, 139446, Note_on_c, 9, 46, 0
1, 139679, Note_on_c, 9, 36, 0
1, 139680, Note_on_c, 9, 38, 116
1, 139680, Note_on_c, 9, 46, 122
1, 139686, Note_on_c, 9, 46, 0
1, 139919, Note_on_c, 9, 38, 0
1, 139920, Note_on_c, 9, 46, 83
1, 139920, Note_on_c, 9, 36, 110
1, 139926, Note_on_c, 9, 46, 0
1, 140159, Note_on_c, 9, 36, 0
1, 140160, Note_on_c, 9, 36, 116
1, 140175, Note_on_c, 9, 55, 127
1, 140175, Note_on_c, 9, 57, 127
1, 140185, Note_on_c, 9, 55, 0
1, 140185, Note_on_c, 9, 57, 0
1, 140610, Note_on_c, 9, 38, 116
1, 140610, Note_on_c, 9, 46, 122
1, 140614, Note_on_c, 9, 46, 0
1, 140639, Note_on_c, 9, 36, 0
1, 140729, Note_on_c, 9, 38, 0
1, 140880, Note_on_c, 9, 46, 85
1, 140885, Note_on_c, 9, 46, 0
1, 141105, Note_on_c, 9, 49, 116
1, 141105, Note_on_c, 9, 49, 0
1, 141120, Note_on_c, 9, 55, 122
1, 141120, Note_on_c, 9, 36, 105
1, 141132, Note_on_c, 9, 55, 0
1, 141359, Note_on_c, 9, 36, 0
1, 141360, Note_on_c, 9, 36, 110
1, 141585, Note_on_c, 9, 46, 122
1, 141585, Note_on_c, 9, 46, 0
1, 141599, Note_on_c, 9, 36, 0
1, 141600, Note_on_c, 9, 38, 116
1, 141839, Note_on_c, 9, 38, 0
1, 141840, Note_on_c, 9, 46, 87
1, 141840, Note_on_c, 9, 36, 105
1, 141846, Note_on_c, 9, 46, 0
1, 142079, Note_on_c, 9, 36, 0
1, 142080, Note_on_c, 9, 36, 122
1, 142095, Note_on_c, 9, 55, 122
1, 142095, Note_on_c, 9, 57, 110
1, 142100, Note_on_c, 9, 55, 0
1, 142100, Note_on_c, 9, 57, 0
1, 142559, Note_on_c, 9, 36, 0
1, 142560, Note_on_c, 9, 38, 116
1, 142799, Note_on_c, 9, 38, 0
1, 142800, Note_on_c, 9, 53, 127
1, 143039, Note_on_c, 9, 53, 0
1, 143040, Note_on_c, 9, 36, 116
1, 143280, Note_on_c, 9, 53, 127
1, 143459, Note_on_c, 9, 53, 0
1, 143490, Note_on_c, 9, 38, 116
1, 143490, Note_on_c, 9, 49, 116
1, 143490, Note_on_c, 9, 55, 110
1, 143502, Note_on_c, 9, 49, 0
1, 143502, Note_on_c, 9, 55, 0
1, 143519, Note_on_c, 9, 36, 0
1, 143969, Note_on_c, 9, 38, 0
1, 144000, Note_on_c, 9, 55, 110
1, 144000, Note_on_c, 9, 55, 0
1, 144000, Note_on_c, 9, 36, 116
1, 144015, Note_on_c, 9, 49, 105
1, 144020, Note_on_c, 9, 49, 0
1, 144240, Note_on_c, 9, 53, 127
1, 144419, Note_on_c, 9, 53, 0
1, 144465, Note_on_c, 9, 57, 110
1, 144465, Note_on_c, 9, 57, 0
1, 144479, Note_on_c, 9, 36, 0
1, 144480, Note_on_c, 9, 38, 116
1, 144480, Note_on_c, 9, 55, 110
1, 144494, Note_on_c, 9, 55, 0
1, 144959, Note_on_c, 9, 38, 0
1, 144960, Note_on_c, 9, 36, 110
1, 145200, Note_on_c, 9, 53, 127
1, 145439, Note_on_c, 9, 36, 0
1, 145439, Note_on_c, 9, 53, 0
1, 145440, Note_on_c, 9, 38, 110
1, 145679, Note_on_c, 9, 38, 0
1, 145680, Note_on_c, 9, 53, 127
1, 145680, Note_on_c, 9, 36, 105
1, 145919, Note_on_c, 9, 53, 0
1, 145919, Note_on_c, 9, 36, 0
1, 145920, Note_on_c, 9, 55, 122
1, 145920, Note_on_c, 9, 55, 0
1, 145920, Note_on_c, 9, 36, 116
1, 145935, Note_on_c, 9, 52, 116
1, 145940, Note_on_c, 9, 52, 0
1, 146399, Note_on_c, 9, 36, 0
1, 146400, Note_on_c, 9, 38, 110
1, 146400, Note_on_c, 9, 53, 127
1, 146640, Note_on_c, 9, 36, 105
1, 146879, Note_on_c, 9, 38, 0
1, 146879, Note_on_c, 9, 53, 0
1, 146879, Note_on_c, 9, 36, 0
1, 146880, Note_on_c, 9, 53, 127
1, 146880, Note_on_c, 9, 36, 110
1, 147359, Note_on_c, 9, 53, 0
1, 147359, Note_on_c, 9, 36, 0
1, 147360, Note_on_c, 9, 38, 116
1, 147599, Note_on_c, 9, 38, 0
1, 147600, Note_on_c, 9, 53, 127
1, 147839, Note_on_c, 9, 53, 0
1, 147840, Note_on_c, 9, 36, 110
1, 147855, Note_on_c, 9, 49, 110
1, 147855, Note_on_c, 9, 57, 116
1, 147860, Note_on_c, 9, 49, 0
1, 147860, Note_on_c, 9, 57, 0
1, 148079, Note_on_c, 9, 36, 0
1, 148080, Note_on_c, 9, 36, 116
1, 148319, Note_on_c, 9, 36, 0
1, 148320, Note_on_c, 9, 38, 116
1, 148320, Note_on_c, 9, 53, 127
1, 148799, Note_on_c, 9, 38, 0
1, 148799, Note_on_c, 9, 53, 0
1, 148800, Note_on_c, 9, 53, 127
1, 148800, Note_on_c, 9, 36, 110
1, 149039, Note_on_c, 9, 53, 0
1, 149040, Note_on_c, 9, 38, 122
1, 149040, Note_on_c, 9, 53, 127
1, 149279, Note_on_c, 9, 36, 0
1, 149279, Note_on_c, 9, 38, 0
1, 149279, Note_on_c, 9, 53, 0
1, 149280, Note_on_c, 9, 36, 122
1, 149520, Note_on_c, 9, 53, 127
1, 149759, Note_on_c, 9, 36, 0
1, 149759, Note_on_c, 9, 53, 0
1, 149775, Note_on_c, 9, 52, 122
1, 149775, Note_on_c, 9, 55, 122
1, 149780, Note_on_c, 9, 52, 0
1, 149780, Note_on_c, 9, 55, 0
1, 149790, Note_on_c, 9, 36, 116
1, 150239, Note_on_c, 9, 36, 0
1, 150240, Note_on_c, 9, 38, 116
1, 150259, Note_on_c, 9, 38, 0
1, 150260, Note_on_c, 9, 53, 127
1, 150299, Note_on_c, 9, 53, 0
1, 150480, Note_on_c, 9, 53, 127
1, 150719, Note_on_c, 9, 53, 0
1, 150720, Note_on_c, 9, 53, 127
1, 150720, Note_on_c, 9, 36, 110
1, 151199, Note_on_c, 9, 53, 0
1, 151199, Note_on_c, 9, 36, 0
1, 151200, Note_on_c, 9, 38, 122
1, 151200, Note_on_c, 9, 53, 127
1, 151439, Note_on_c, 9, 38, 0
1, 151439, Note_on_c, 9, 53, 0
1, 151440, Note_on_c, 9, 53, 127
1, 151440, Note_on_c, 9, 36, 110
1, 151679, Note_on_c, 9, 53, 0
1, 151679, Note_on_c, 9, 36, 0
1, 151680, Note_on_c, 9, 53, 127
1, 151680, Note_on_c, 9, 36, 116
1, 152159, Note_on_c, 9, 53, 0
1, 152159, Note_on_c, 9, 36, 0
1, 152160, Note_on_c, 9, 38, 116
1, 152160, Note_on_c, 9, 53, 127
1, 152639, Note_on_c, 9, 38, 0
1, 152639, Note_on_c, 9, 53, 0
1, 152640, Note_on_c, 9, 53, 127
1, 152640, Note_on_c, 9, 36, 105
1, 152879, Note_on_c, 9, 36, 0
1, 152880, Note_on_c, 9, 36, 110
1, 153119, Note_on_c, 9, 53, 0
1, 153119, Note_on_c, 9, 36, 0
1, 153120, Note_on_c, 9, 38, 116
1, 153120, Note_on_c, 9, 53, 127
1, 153359, Note_on_c, 9, 38, 0
1, 153359, Note_on_c, 9, 53, 0
1, 153360, Note_on_c, 9, 53, 127
1, 153599, Note_on_c, 9, 53, 0
1, 153600, Note_on_c, 9, 53, 122
1, 153600, Note_on_c, 9, 36, 122
1, 154079, Note_on_c, 9, 53, 0
1, 154079, Note_on_c, 9, 36, 0
1, 154080, Note_on_c, 9, 38, 105
1, 154080, Note_on_c, 9, 53, 116
1, 154320, Note_on_c, 9, 36, 67
1, 154559, Note_on_c, 9, 38, 0
1, 154559, Note_on_c, 9, 53, 0
1, 154559, Note_on_c, 9, 36, 0
1, 154560, Note_on_c, 9, 53, 116
1, 154560, Note_on_c, 9, 36, 116
1, 155039, Note_on_c, 9, 53, 0
1, 155039, Note_on_c, 9, 36, 0
1, 155040, Note_on_c, 9, 38, 110
1, 155040, Note_on_c, 9, 53, 122
1, 155279, Note_on_c, 9, 38, 0
1, 155279, Note_on_c, 9, 53, 0
1, 155280, Note_on_c, 9, 53, 105
1, 155519, Note_on_c, 9, 53, 0
1, 155520, Note_on_c, 9, 53, 110
1, 155520, Note_on_c, 9, 36, 116
1, 155999, Note_on_c, 9, 53, 0
1, 155999, Note_on_c, 9, 36, 0
1, 156000, Note_on_c, 9, 38, 105
1, 156000, Note_on_c, 9, 53, 122
1, 156479, Note_on_c, 9, 38, 0
1, 156479, Note_on_c, 9, 53, 0
1, 156480, Note_on_c, 9, 36, 116
1, 156959, Note_on_c, 9, 36, 0
1, 156960, Note_on_c, 9, 38, 110
1, 156960, Note_on_c, 9, 53, 127
1, 157439, Note_on_c, 9, 38, 0
1, 157439, Note_on_c, 9, 53, 0
1, 157440, Note_on_c, 9, 36, 110
1, 157919, Note_on_c, 9, 36, 0
1, 157920, Note_on_c, 9, 38, 26
1, 157920, Note_on_c, 9, 47, 34
1, 157920, Note_on_c, 9, 36, 64
1, 158039, Note_on_c, 9, 38, 0
1, 158039, Note_on_c, 9, 47, 0
1, 158039, Note_on_c, 9, 36, 0
1, 158040, Note_on_c, 9, 38, 52
1, 158040, Note_on_c, 9, 47, 66
1, 158040, Note_on_c, 9, 36, 78
1, 158159, Note_on_c, 9, 38, 0
1, 158159, Note_on_c, 9, 47, 0
1, 158159, Note_on_c, 9, 36, 0
1, 158160, Note_on_c, 9, 38, 67
1, 158160, Note_on_c, 9, 47, 90
1, 158160, Note_on_c, 9, 36, 96
1, 158279, Note_on_c, 9, 38, 0
1, 158279, Note_on_c, 9, 47, 0
1, 158279, Note_on_c, 9, 36, 0
1, 158280, Note_on_c, 9, 38, 105
1, 158280, Note_on_c, 9, 47, 122
1, 158280, Note_on_c, 9, 36, 116
1, 158399, Note_on_c, 9, 38, 0
1, 158399, Note_on_c, 9, 47, 0
1, 158399, Note_on_c, 9, 36, 0
1, 158865, Note_on_c, 9, 43, 37
1, 158879, Note_on_c, 9, 43, 0
1, 158880, Note_on_c, 9, 38, 24
1, 158880, Note_on_c, 9, 36, 64
1, 158999, Note_on_c, 9, 38, 0
1, 158999, Note_on_c, 9, 36, 0
1, 159000, Note_on_c, 9, 38, 53
1, 159000, Note_on_c, 9, 36, 78
1, 159000, Note_on_c, 9, 43, 82
1, 159119, Note_on_c, 9, 38, 0
1, 159119, Note_on_c, 9, 36, 0
1, 159119, Note_on_c, 9, 43, 0
1, 159120, Note_on_c, 9, 38, 82
1, 159120, Note_on_c, 9, 36, 95
1, 159120, Note_on_c, 9, 43, 105
1, 159239, Note_on_c, 9, 38, 0
1, 159239, Note_on_c, 9, 36, 0
1, 159239, Note_on_c, 9, 43, 0
1, 159240, Note_on_c, 9, 38, 116
1, 159240, Note_on_c, 9, 36, 122
1, 159240, Note_on_c, 9, 43, 127
1, 159359, Note_on_c, 9, 38, 0
1, 159359, Note_on_c, 9, 36, 0
1, 159359, Note_on_c, 9, 43, 0
1, 160320, Note_on_c, 9, 36, 116
1, 160335, Note_on_c, 9, 55, 116
1, 160340, Note_on_c, 9, 55, 0
1, 160799, Note_on_c, 9, 36, 0
1, 160800, End_track
0, 0, End_of_file
