0, 0, Header, 1, 1, 480
1, 0, Start_track
1, 0, Title_t, "Drumset"
1, 0, Time_signature, 4, 2, 24, 8
1, 0, Key_signature, 0, "major"
1, 0, Tempo, 500000
1, 0, Control_c, 9, 121, 0
1, 0, Program_c, 9, 0
1, 0, Control_c, 9, 7, 100
1, 0, Control_c, 9, 10, 64
1, 0, Control_c, 9, 91, 0
1, 0, Control_c, 9, 93, 0
1, 0, MIDI_port, 1
1, 1920, Note_on_c, 9, 42, 62
1, 1942, Note_on_c, 9, 42, 0
1, 2400, Note_on_c, 9, 42, 62
1, 2422, Note_on_c, 9, 42, 0
1, 2880, Note_on_c, 9, 42, 72
1, 2902, Note_on_c, 9, 42, 0
1, 3360, Note_on_c, 9, 42, 76
1, 3370, Note_on_c, 9, 42, 0
1, 3600, Note_on_c, 9, 40, 62
1, 3600, Note_on_c, 9, 36, 62
1, 3719, Note_on_c, 9, 36, 0
1, 3720, Note_on_c, 9, 36, 72
1, 3839, Note_on_c, 9, 40, 0
1, 3839, Note_on_c, 9, 36, 0
1, 3840, Note_on_c, 9, 51, 54
1, 3840, Note_on_c, 9, 42, 54
1, 3840, Note_on_c, 9, 36, 82
1, 3850, Note_on_c, 9, 51, 0
1, 3850, Note_on_c, 9, 42, 0
1, 4080, Note_on_c, 9, 42, 23
1, 4084, Note_on_c, 9, 42, 0
1, 4200, Note_on_c, 9, 42, 12
1, 4204, Note_on_c, 9, 42, 0
1, 4319, Note_on_c, 9, 36, 0
1, 4320, Note_on_c, 9, 51, 24
1, 4320, Note_on_c, 9, 42, 56
1, 4330, Note_on_c, 9, 51, 0
1, 4330, Note_on_c, 9, 42, 0
1, 4560, Note_on_c, 9, 42, 46
1, 4564, Note_on_c, 9, 42, 0
1, 4680, Note_on_c, 9, 46, 50
1, 4684, Note_on_c, 9, 46, 0
1, 4800, Note_on_c, 9, 51, 32
1, 4800, Note_on_c, 9, 42, 42
1, 4800, Note_on_c, 9, 36, 66
1, 4810, Note_on_c, 9, 51, 0
1, 4810, Note_on_c, 9, 42, 0
1, 5040, Note_on_c, 9, 42, 36
1, 5044, Note_on_c, 9, 42, 0
1, 5160, Note_on_c, 9, 42, 25
1, 5164, Note_on_c, 9, 42, 0
1, 5279, Note_on_c, 9, 36, 0
1, 5280, Note_on_c, 9, 51, 24
1, 5280, Note_on_c, 9, 42, 56
1, 5290, Note_on_c, 9, 51, 0
1, 5290, Note_on_c, 9, 42, 0
1, 5520, Note_on_c, 9, 42, 25
1, 5524, Note_on_c, 9, 42, 0
1, 5640, Note_on_c, 9, 42, 32
1, 5644, Note_on_c, 9, 42, 0
1, 5760, Note_on_c, 9, 51, 32
1, 5760, Note_on_c, 9, 42, 58
1, 5760, Note_on_c, 9, 36, 66
1, 5770, Note_on_c, 9, 51, 0
1, 5770, Note_on_c, 9, 42, 0
1, 6000, Note_on_c, 9, 42, 40
1, 6004, Note_on_c, 9, 42, 0
1, 6120, Note_on_c, 9, 42, 42
1, 6124, Note_on_c, 9, 42, 0
1, 6239, Note_on_c, 9, 36, 0
1, 6240, Note_on_c, 9, 51, 1
1, 6240, Note_on_c, 9, 42, 44
1, 6250, Note_on_c, 9, 51, 0
1, 6250, Note_on_c, 9, 42, 0
1, 6480, Note_on_c, 9, 42, 36
1, 6484, Note_on_c, 9, 42, 0
1, 6600, Note_on_c, 9, 46, 42
1, 6604, Note_on_c, 9, 46, 0
1, 6720, Note_on_c, 9, 51, 26
1, 6720, Note_on_c, 9, 42, 40
1, 6720, Note_on_c, 9, 36, 72
1, 6730, Note_on_c, 9, 51, 0
1, 6730, Note_on_c, 9, 42, 0
1, 6960, Note_on_c, 9, 42, 34
1, 6964, Note_on_c, 9, 42, 0
1, 7080, Note_on_c, 9, 42, 25
1, 7084, Note_on_c, 9, 42, 0
1, 7199, Note_on_c, 9, 36, 0
1, 7200, Note_on_c, 9, 51, 7
1, 7200, Note_on_c, 9, 42, 48
1, 7210, Note_on_c, 9, 51, 0
1, 7210, Note_on_c, 9, 42, 0
1, 7440, Note_on_c, 9, 42, 36
1, 7444, Note_on_c, 9, 42, 0
1, 7560, Note_on_c, 9, 42, 21
1, 7564, Note_on_c, 9, 42, 0
1, 7680, Note_on_c, 9, 51, 36
1, 7680, Note_on_c, 9, 42, 50
1, 7680, Note_on_c, 9, 36, 68
1, 7690, Note_on_c, 9, 51, 0
1, 7690, Note_on_c, 9, 42, 0
1, 7920, Note_on_c, 9, 42, 44
1, 7924, Note_on_c, 9, 42, 0
1, 8040, Note_on_c, 9, 42, 30
1, 8044, Note_on_c, 9, 42, 0
1, 8159, Note_on_c, 9, 36, 0
1, 8160, Note_on_c, 9, 51, 12
1, 8160, Note_on_c, 9, 42, 62
1, 8170, Note_on_c, 9, 51, 0
1, 8170, Note_on_c, 9, 42, 0
1, 8400, Note_on_c, 9, 42, 52
1, 8404, Note_on_c, 9, 42, 0
1, 8520, Note_on_c, 9, 46, 48
1, 8524, Note_on_c, 9, 46, 0
1, 8640, Note_on_c, 9, 51, 34
1, 8640, Note_on_c, 9, 42, 44
1, 8640, Note_on_c, 9, 36, 66
1, 8650, Note_on_c, 9, 51, 0
1, 8650, Note_on_c, 9, 42, 0
1, 8880, Note_on_c, 9, 42, 50
1, 8884, Note_on_c, 9, 42, 0
1, 9000, Note_on_c, 9, 42, 28
1, 9004, Note_on_c, 9, 42, 0
1, 9119, Note_on_c, 9, 36, 0
1, 9120, Note_on_c, 9, 51, 8
1, 9120, Note_on_c, 9, 42, 58
1, 9130, Note_on_c, 9, 51, 0
1, 9130, Note_on_c, 9, 42, 0
1, 9360, Note_on_c, 9, 42, 44
1, 9364, Note_on_c, 9, 42, 0
1, 9480, Note_on_c, 9, 42, 22
1, 9484, Note_on_c, 9, 42, 0
1, 9600, Note_on_c, 9, 51, 38
1, 9600, Note_on_c, 9, 42, 54
1, 9600, Note_on_c, 9, 36, 68
1, 9610, Note_on_c, 9, 51, 0
1, 9610, Note_on_c, 9, 42, 0
1, 9840, Note_on_c, 9, 42, 42
1, 9844, Note_on_c, 9, 42, 0
1, 9960, Note_on_c, 9, 42, 30
1, 9964, Note_on_c, 9, 42, 0
1, 10079, Note_on_c, 9, 36, 0
1, 10080, Note_on_c, 9, 51, 6
1, 10080, Note_on_c, 9, 42, 58
1, 10090, Note_on_c, 9, 51, 0
1, 10090, Note_on_c, 9, 42, 0
1, 10320, Note_on_c, 9, 42, 56
1, 10324, Note_on_c, 9, 42, 0
1, 10440, Note_on_c, 9, 46, 46
1, 10444, Note_on_c, 9, 46, 0
1, 10560, Note_on_c, 9, 51, 38
1, 10560, Note_on_c, 9, 42, 42
1, 10560, Note_on_c, 9, 36, 68
1, 10570, Note_on_c, 9, 51, 0
1, 10570, Note_on_c, 9, 42, 0
1, 10800, Note_on_c, 9, 42, 44
1, 10804, Note_on_c, 9, 42, 0
1, 10920, Note_on_c, 9, 42, 30
1, 10924, Note_on_c, 9, 42, 0
1, 11039, Note_on_c, 9, 36, 0
1, 11040, Note_on_c, 9, 51, 10
1, 11040, Note_on_c, 9, 42, 54
1, 11050, Note_on_c, 9, 51, 0
1, 11050, Note_on_c, 9, 42, 0
1, 11280, Note_on_c, 9, 42, 50
1, 11290, Note_on_c, 9, 42, 0
1, 11520, Note_on_c, 9, 51, 36
1, 11520, Note_on_c, 9, 42, 54
1, 11520, Note_on_c, 9, 36, 68
1, 11530, Note_on_c, 9, 51, 0
1, 11530, Note_on_c, 9, 42, 0
1, 11760, Note_on_c, 9, 42, 54
1, 11764, Note_on_c, 9, 42, 0
1, 11880, Note_on_c, 9, 42, 26
1, 11884, Note_on_c, 9, 42, 0
1, 11999, Note_on_c, 9, 36, 0
1, 12000, Note_on_c, 9, 51, 20
1, 12000, Note_on_c, 9, 42, 70
1, 12010, Note_on_c, 9, 51, 0
1, 12010, Note_on_c, 9, 42, 0
1, 12240, Note_on_c, 9, 42, 50
1, 12244, Note_on_c, 9, 42, 0
1, 12360, Note_on_c, 9, 46, 56
1, 12364, Note_on_c, 9, 46, 0
1, 12480, Note_on_c, 9, 51, 32
1, 12480, Note_on_c, 9, 42, 42
1, 12480, Note_on_c, 9, 36, 68
1, 12490, Note_on_c, 9, 51, 0
1, 12490, Note_on_c, 9, 42, 0
1, 12720, Note_on_c, 9, 42, 36
1, 12724, Note_on_c, 9, 42, 0
1, 12840, Note_on_c, 9, 42, 13
1, 12844, Note_on_c, 9, 42, 0
1, 12959, Note_on_c, 9, 36, 0
1, 12960, Note_on_c, 9, 51, 20
1, 12960, Note_on_c, 9, 42, 70
1, 12970, Note_on_c, 9, 51, 0
1, 12970, Note_on_c, 9, 42, 0
1, 13200, Note_on_c, 9, 42, 44
1, 13204, Note_on_c, 9, 42, 0
1, 13320, Note_on_c, 9, 42, 19
1, 13324, Note_on_c, 9, 42, 0
1, 13440, Note_on_c, 9, 51, 34
1, 13440, Note_on_c, 9, 42, 56
1, 13440, Note_on_c, 9, 36, 64
1, 13450, Note_on_c, 9, 51, 0
1, 13450, Note_on_c, 9, 42, 0
1, 13680, Note_on_c, 9, 42, 44
1, 13684, Note_on_c, 9, 42, 0
1, 13800, Note_on_c, 9, 42, 28
1, 13804, Note_on_c, 9, 42, 0
1, 13919, Note_on_c, 9, 36, 0
1, 13920, Note_on_c, 9, 51, 22
1, 13920, Note_on_c, 9, 42, 30
1, 13930, Note_on_c, 9, 51, 0
1, 13930, Note_on_c, 9, 42, 0
1, 14160, Note_on_c, 9, 42, 70
1, 14164, Note_on_c, 9, 42, 0
1, 14280, Note_on_c, 9, 46, 40
1, 14284, Note_on_c, 9, 46, 0
1, 14400, Note_on_c, 9, 51, 32
1, 14400, Note_on_c, 9, 42, 44
1, 14400, Note_on_c, 9, 36, 52
1, 14410, Note_on_c, 9, 51, 0
1, 14410, Note_on_c, 9, 42, 0
1, 14640, Note_on_c, 9, 42, 52
1, 14644, Note_on_c, 9, 42, 0
1, 14760, Note_on_c, 9, 42, 32
1, 14764, Note_on_c, 9, 42, 0
1, 14879, Note_on_c, 9, 36, 0
1, 14880, Note_on_c, 9, 51, 10
1, 14880, Note_on_c, 9, 42, 58
1, 14890, Note_on_c, 9, 51, 0
1, 14890, Note_on_c, 9, 42, 0
1, 15120, Note_on_c, 9, 42, 52
1, 15124, Note_on_c, 9, 42, 0
1, 15240, Note_on_c, 9, 42, 10
1, 15244, Note_on_c, 9, 42, 0
1, 15360, Note_on_c, 9, 51, 36
1, 15360, Note_on_c, 9, 42, 54
1, 15360, Note_on_c, 9, 36, 72
1, 15370, Note_on_c, 9, 51, 0
1, 15370, Note_on_c, 9, 42, 0
1, 15600, Note_on_c, 9, 42, 30
1, 15604, Note_on_c, 9, 42, 0
1, 15720, Note_on_c, 9, 42, 40
1, 15724, Note_on_c, 9, 42, 0
1, 15839, Note_on_c, 9, 36, 0
1, 15840, Note_on_c, 9, 51, 9
1, 15840, Note_on_c, 9, 42, 48
1, 15850, Note_on_c, 9, 51, 0
1, 15850, Note_on_c, 9, 42, 0
1, 16080, Note_on_c, 9, 42, 46
1, 16084, Note_on_c, 9, 42, 0
1, 16200, Note_on_c, 9, 46, 52
1, 16204, Note_on_c, 9, 46, 0
1, 16320, Note_on_c, 9, 51, 34
1, 16320, Note_on_c, 9, 42, 32
1, 16320, Note_on_c, 9, 36, 62
1, 16330, Note_on_c, 9, 51, 0
1, 16330, Note_on_c, 9, 42, 0
1, 16560, Note_on_c, 9, 42, 54
1, 16564, Note_on_c, 9, 42, 0
1, 16680, Note_on_c, 9, 42, 15
1, 16684, Note_on_c, 9, 42, 0
1, 16799, Note_on_c, 9, 36, 0
1, 16800, Note_on_c, 9, 51, 20
1, 16800, Note_on_c, 9, 42, 48
1, 16810, Note_on_c, 9, 51, 0
1, 16810, Note_on_c, 9, 42, 0
1, 17040, Note_on_c, 9, 42, 40
1, 17044, Note_on_c, 9, 42, 0
1, 17160, Note_on_c, 9, 42, 29
1, 17164, Note_on_c, 9, 42, 0
1, 17280, Note_on_c, 9, 51, 42
1, 17280, Note_on_c, 9, 42, 66
1, 17280, Note_on_c, 9, 36, 52
1, 17290, Note_on_c, 9, 51, 0
1, 17290, Note_on_c, 9, 42, 0
1, 17520, Note_on_c, 9, 42, 32
1, 17524, Note_on_c, 9, 42, 0
1, 17640, Note_on_c, 9, 42, 30
1, 17644, Note_on_c, 9, 42, 0
1, 17759, Note_on_c, 9, 36, 0
1, 17760, Note_on_c, 9, 51, 12
1, 17760, Note_on_c, 9, 42, 58
1, 17770, Note_on_c, 9, 51, 0
1, 17770, Note_on_c, 9, 42, 0
1, 18000, Note_on_c, 9, 42, 54
1, 18004, Note_on_c, 9, 42, 0
1, 18120, Note_on_c, 9, 46, 60
1, 18124, Note_on_c, 9, 46, 0
1, 18240, Note_on_c, 9, 51, 36
1, 18240, Note_on_c, 9, 42, 48
1, 18240, Note_on_c, 9, 36, 58
1, 18250, Note_on_c, 9, 51, 0
1, 18250, Note_on_c, 9, 42, 0
1, 18480, Note_on_c, 9, 42, 44
1, 18484, Note_on_c, 9, 42, 0
1, 18600, Note_on_c, 9, 42, 20
1, 18604, Note_on_c, 9, 42, 0
1, 18719, Note_on_c, 9, 36, 0
1, 18720, Note_on_c, 9, 51, 28
1, 18720, Note_on_c, 9, 42, 54
1, 18730, Note_on_c, 9, 51, 0
1, 18730, Note_on_c, 9, 42, 0
1, 18960, Note_on_c, 9, 42, 42
1, 18964, Note_on_c, 9, 42, 0
1, 19080, Note_on_c, 9, 42, 28
1, 19084, Note_on_c, 9, 42, 0
1, 19200, Note_on_c, 9, 52, 92
1, 19200, Note_on_c, 9, 36, 92
1, 19216, Note_on_c, 9, 52, 0
1, 19559, Note_on_c, 9, 36, 0
1, 19560, Note_on_c, 9, 49, 88
1, 19560, Note_on_c, 9, 36, 80
1, 19564, Note_on_c, 9, 49, 0
1, 19679, Note_on_c, 9, 36, 0
1, 21000, Note_on_c, 9, 57, 92
1, 21004, Note_on_c, 9, 57, 0
1, 21120, Note_on_c, 9, 36, 97
1, 21599, Note_on_c, 9, 36, 0
1, 21600, Note_on_c, 9, 49, 84
1, 21600, Note_on_c, 9, 36, 92
1, 21622, Note_on_c, 9, 49, 0
1, 22079, Note_on_c, 9, 36, 0
1, 22080, Note_on_c, 9, 52, 88
1, 22080, Note_on_c, 9, 36, 84
1, 22096, Note_on_c, 9, 52, 0
1, 22440, Note_on_c, 9, 40, 84
1, 22559, Note_on_c, 9, 36, 0
1, 22559, Note_on_c, 9, 40, 0
1, 22560, Note_on_c, 9, 40, 84
1, 22799, Note_on_c, 9, 40, 0
1, 22800, Note_on_c, 9, 40, 66
1, 22919, Note_on_c, 9, 40, 0
1, 22920, Note_on_c, 9, 40, 84
1, 23039, Note_on_c, 9, 40, 0
1, 23040, Note_on_c, 9, 42, 68
1, 23040, Note_on_c, 9, 36, 76
1, 23050, Note_on_c, 9, 42, 0
1, 23280, Note_on_c, 9, 56, 58
1, 23280, Note_on_c, 9, 42, 56
1, 23284, Note_on_c, 9, 42, 0
1, 23399, Note_on_c, 9, 56, 0
1, 23400, Note_on_c, 9, 62, 60
1, 23519, Note_on_c, 9, 36, 0
1, 23519, Note_on_c, 9, 62, 0
1, 23520, Note_on_c, 9, 40, 64
1, 23520, Note_on_c, 9, 42, 56
1, 23520, Note_on_c, 9, 36, 76
1, 23524, Note_on_c, 9, 42, 0
1, 23639, Note_on_c, 9, 40, 0
1, 23640, Note_on_c, 9, 56, 62
1, 23759, Note_on_c, 9, 56, 0
1, 23760, Note_on_c, 9, 62, 64
1, 23760, Note_on_c, 9, 42, 56
1, 23770, Note_on_c, 9, 42, 0
1, 23999, Note_on_c, 9, 36, 0
1, 23999, Note_on_c, 9, 62, 0
1, 24000, Note_on_c, 9, 42, 56
1, 24000, Note_on_c, 9, 36, 76
1, 24004, Note_on_c, 9, 42, 0
1, 24120, Note_on_c, 9, 62, 64
1, 24239, Note_on_c, 9, 62, 0
1, 24240, Note_on_c, 9, 42, 56
1, 24244, Note_on_c, 9, 42, 0
1, 24360, Note_on_c, 9, 46, 50
1, 24364, Note_on_c, 9, 46, 0
1, 24479, Note_on_c, 9, 36, 0
1, 24480, Note_on_c, 9, 64, 36
1, 24480, Note_on_c, 9, 40, 64
1, 24480, Note_on_c, 9, 39, 81
1, 24480, Note_on_c, 9, 42, 56
1, 24480, Note_on_c, 9, 36, 76
1, 24490, Note_on_c, 9, 64, 0
1, 24490, Note_on_c, 9, 42, 0
1, 24719, Note_on_c, 9, 40, 0
1, 24719, Note_on_c, 9, 39, 0
1, 24720, Note_on_c, 9, 42, 56
1, 24730, Note_on_c, 9, 42, 0
1, 24959, Note_on_c, 9, 36, 0
1, 24960, Note_on_c, 9, 42, 56
1, 24960, Note_on_c, 9, 36, 76
1, 24970, Note_on_c, 9, 42, 0
1, 25200, Note_on_c, 9, 56, 56
1, 25200, Note_on_c, 9, 42, 56
1, 25204, Note_on_c, 9, 42, 0
1, 25319, Note_on_c, 9, 56, 0
1, 25320, Note_on_c, 9, 62, 66
1, 25439, Note_on_c, 9, 36, 0
1, 25439, Note_on_c, 9, 62, 0
1, 25440, Note_on_c, 9, 40, 64
1, 25440, Note_on_c, 9, 42, 56
1, 25440, Note_on_c, 9, 36, 76
1, 25444, Note_on_c, 9, 42, 0
1, 25559, Note_on_c, 9, 40, 0
1, 25560, Note_on_c, 9, 56, 56
1, 25679, Note_on_c, 9, 56, 0
1, 25680, Note_on_c, 9, 62, 62
1, 25680, Note_on_c, 9, 42, 56
1, 25690, Note_on_c, 9, 42, 0
1, 25919, Note_on_c, 9, 36, 0
1, 25919, Note_on_c, 9, 62, 0
1, 25920, Note_on_c, 9, 62, 62
1, 25920, Note_on_c, 9, 42, 56
1, 25920, Note_on_c, 9, 36, 76
1, 25924, Note_on_c, 9, 42, 0
1, 26039, Note_on_c, 9, 62, 0
1, 26040, Note_on_c, 9, 62, 54
1, 26159, Note_on_c, 9, 62, 0
1, 26160, Note_on_c, 9, 42, 56
1, 26164, Note_on_c, 9, 42, 0
1, 26280, Note_on_c, 9, 64, 52
1, 26280, Note_on_c, 9, 46, 28
1, 26284, Note_on_c, 9, 64, 0
1, 26284, Note_on_c, 9, 46, 0
1, 26399, Note_on_c, 9, 36, 0
1, 26400, Note_on_c, 9, 40, 64
1, 26400, Note_on_c, 9, 39, 81
1, 26400, Note_on_c, 9, 42, 56
1, 26400, Note_on_c, 9, 36, 76
1, 26410, Note_on_c, 9, 42, 0
1, 26639, Note_on_c, 9, 40, 0
1, 26639, Note_on_c, 9, 39, 0
1, 26640, Note_on_c, 9, 42, 56
1, 26644, Note_on_c, 9, 42, 0
1, 26760, Note_on_c, 9, 46, 64
1, 26764, Note_on_c, 9, 46, 0
1, 26879, Note_on_c, 9, 36, 0
1, 26880, Note_on_c, 9, 42, 56
1, 26880, Note_on_c, 9, 36, 76
1, 26890, Note_on_c, 9, 42, 0
1, 27120, Note_on_c, 9, 56, 60
1, 27120, Note_on_c, 9, 42, 56
1, 27124, Note_on_c, 9, 42, 0
1, 27239, Note_on_c, 9, 56, 0
1, 27240, Note_on_c, 9, 62, 58
1, 27359, Note_on_c, 9, 36, 0
1, 27359, Note_on_c, 9, 62, 0
1, 27360, Note_on_c, 9, 40, 64
1, 27360, Note_on_c, 9, 42, 56
1, 27360, Note_on_c, 9, 36, 76
1, 27364, Note_on_c, 9, 42, 0
1, 27479, Note_on_c, 9, 40, 0
1, 27480, Note_on_c, 9, 56, 58
1, 27599, Note_on_c, 9, 56, 0
1, 27600, Note_on_c, 9, 62, 56
1, 27600, Note_on_c, 9, 42, 56
1, 27610, Note_on_c, 9, 42, 0
1, 27839, Note_on_c, 9, 36, 0
1, 27839, Note_on_c, 9, 62, 0
1, 27840, Note_on_c, 9, 62, 54
1, 27840, Note_on_c, 9, 42, 56
1, 27840, Note_on_c, 9, 36, 76
1, 27844, Note_on_c, 9, 42, 0
1, 27959, Note_on_c, 9, 62, 0
1, 27960, Note_on_c, 9, 62, 54
1, 28079, Note_on_c, 9, 62, 0
1, 28080, Note_on_c, 9, 42, 56
1, 28084, Note_on_c, 9, 42, 0
1, 28200, Note_on_c, 9, 64, 54
1, 28200, Note_on_c, 9, 46, 27
1, 28204, Note_on_c, 9, 64, 0
1, 28204, Note_on_c, 9, 46, 0
1, 28319, Note_on_c, 9, 36, 0
1, 28320, Note_on_c, 9, 40, 64
1, 28320, Note_on_c, 9, 39, 81
1, 28320, Note_on_c, 9, 42, 56
1, 28320, Note_on_c, 9, 36, 76
1, 28330, Note_on_c, 9, 42, 0
1, 28559, Note_on_c, 9, 40, 0
1, 28559, Note_on_c, 9, 39, 0
1, 28560, Note_on_c, 9, 42, 56
1, 28570, Note_on_c, 9, 42, 0
1, 28799, Note_on_c, 9, 36, 0
1, 28800, Note_on_c, 9, 42, 56
1, 28800, Note_on_c, 9, 36, 76
1, 28810, Note_on_c, 9, 42, 0
1, 29040, Note_on_c, 9, 56, 56
1, 29040, Note_on_c, 9, 42, 56
1, 29044, Note_on_c, 9, 42, 0
1, 29159, Note_on_c, 9, 56, 0
1, 29160, Note_on_c, 9, 62, 58
1, 29279, Note_on_c, 9, 36, 0
1, 29279, Note_on_c, 9, 62, 0
1, 29280, Note_on_c, 9, 40, 64
1, 29280, Note_on_c, 9, 42, 56
1, 29280, Note_on_c, 9, 36, 76
1, 29284, Note_on_c, 9, 42, 0
1, 29399, Note_on_c, 9, 40, 0
1, 29400, Note_on_c, 9, 56, 58
1, 29519, Note_on_c, 9, 56, 0
1, 29520, Note_on_c, 9, 62, 52
1, 29520, Note_on_c, 9, 42, 56
1, 29530, Note_on_c, 9, 42, 0
1, 29759, Note_on_c, 9, 36, 0
1, 29759, Note_on_c, 9, 62, 0
1, 29760, Note_on_c, 9, 42, 56
1, 29760, Note_on_c, 9, 36, 76
1, 29764, Note_on_c, 9, 42, 0
1, 29880, Note_on_c, 9, 62, 54
1, 29999, Note_on_c, 9, 62, 0
1, 30000, Note_on_c, 9, 42, 56
1, 30004, Note_on_c, 9, 42, 0
1, 30120, Note_on_c, 9, 64, 56
1, 30120, Note_on_c, 9, 46, 28
1, 30124, Note_on_c, 9, 64, 0
1, 30124, Note_on_c, 9, 46, 0
1, 30239, Note_on_c, 9, 36, 0
1, 30240, Note_on_c, 9, 40, 64
1, 30240, Note_on_c, 9, 39, 81
1, 30240, Note_on_c, 9, 42, 56
1, 30240, Note_on_c, 9, 36, 76
1, 30250, Note_on_c, 9, 42, 0
1, 30479, Note_on_c, 9, 40, 0
1, 30479, Note_on_c, 9, 39, 0
1, 30480, Note_on_c, 9, 42, 56
1, 30484, Note_on_c, 9, 42, 0
1, 30600, Note_on_c, 9, 46, 37
1, 30604, Note_on_c, 9, 46, 0
1, 30719, Note_on_c, 9, 36, 0
1, 30720, Note_on_c, 9, 42, 80
1, 30720, Note_on_c, 9, 36, 76
1, 30730, Note_on_c, 9, 42, 0
1, 30960, Note_on_c, 9, 56, 58
1, 30960, Note_on_c, 9, 42, 56
1, 30964, Note_on_c, 9, 42, 0
1, 31079, Note_on_c, 9, 56, 0
1, 31080, Note_on_c, 9, 62, 60
1, 31199, Note_on_c, 9, 36, 0
1, 31199, Note_on_c, 9, 62, 0
1, 31200, Note_on_c, 9, 40, 64
1, 31200, Note_on_c, 9, 42, 56
1, 31200, Note_on_c, 9, 36, 76
1, 31204, Note_on_c, 9, 42, 0
1, 31319, Note_on_c, 9, 40, 0
1, 31320, Note_on_c, 9, 56, 62
1, 31439, Note_on_c, 9, 56, 0
1, 31440, Note_on_c, 9, 62, 64
1, 31440, Note_on_c, 9, 42, 56
1, 31450, Note_on_c, 9, 42, 0
1, 31679, Note_on_c, 9, 36, 0
1, 31679, Note_on_c, 9, 62, 0
1, 31680, Note_on_c, 9, 42, 56
1, 31680, Note_on_c, 9, 36, 76
1, 31684, Note_on_c, 9, 42, 0
1, 31800, Note_on_c, 9, 62, 64
1, 31919, Note_on_c, 9, 62, 0
1, 31920, Note_on_c, 9, 42, 56
1, 31924, Note_on_c, 9, 42, 0
1, 32040, Note_on_c, 9, 46, 50
1, 32044, Note_on_c, 9, 46, 0
1, 32159, Note_on_c, 9, 36, 0
1, 32160, Note_on_c, 9, 64, 36
1, 32160, Note_on_c, 9, 40, 64
1, 32160, Note_on_c, 9, 39, 81
1, 32160, Note_on_c, 9, 42, 56
1, 32160, Note_on_c, 9, 36, 76
1, 32170, Note_on_c, 9, 64, 0
1, 32170, Note_on_c, 9, 42, 0
1, 32399, Note_on_c, 9, 40, 0
1, 32399, Note_on_c, 9, 39, 0
1, 32400, Note_on_c, 9, 42, 56
1, 32410, Note_on_c, 9, 42, 0
1, 32639, Note_on_c, 9, 36, 0
1, 32640, Note_on_c, 9, 42, 56
1, 32640, Note_on_c, 9, 36, 76
1, 32650, Note_on_c, 9, 42, 0
1, 32880, Note_on_c, 9, 56, 56
1, 32880, Note_on_c, 9, 42, 56
1, 32884, Note_on_c, 9, 42, 0
1, 32999, Note_on_c, 9, 56, 0
1, 33000, Note_on_c, 9, 62, 66
1, 33119, Note_on_c, 9, 36, 0
1, 33119, Note_on_c, 9, 62, 0
1, 33120, Note_on_c, 9, 40, 64
1, 33120, Note_on_c, 9, 42, 56
1, 33120, Note_on_c, 9, 36, 76
1, 33124, Note_on_c, 9, 42, 0
1, 33239, Note_on_c, 9, 40, 0
1, 33240, Note_on_c, 9, 56, 56
1, 33359, Note_on_c, 9, 56, 0
1, 33360, Note_on_c, 9, 62, 62
1, 33360, Note_on_c, 9, 42, 56
1, 33370, Note_on_c, 9, 42, 0
1, 33599, Note_on_c, 9, 36, 0
1, 33599, Note_on_c, 9, 62, 0
1, 33600, Note_on_c, 9, 62, 62
1, 33600, Note_on_c, 9, 42, 56
1, 33600, Note_on_c, 9, 36, 76
1, 33604, Note_on_c, 9, 42, 0
1, 33719, Note_on_c, 9, 62, 0
1, 33720, Note_on_c, 9, 62, 54
1, 33839, Note_on_c, 9, 62, 0
1, 33840, Note_on_c, 9, 42, 56
1, 33844, Note_on_c, 9, 42, 0
1, 33960, Note_on_c, 9, 64, 52
1, 33960, Note_on_c, 9, 46, 28
1, 33964, Note_on_c, 9, 64, 0
1, 33964, Note_on_c, 9, 46, 0
1, 34079, Note_on_c, 9, 36, 0
1, 34080, Note_on_c, 9, 40, 64
1, 34080, Note_on_c, 9, 39, 81
1, 34080, Note_on_c, 9, 42, 56
1, 34080, Note_on_c, 9, 36, 76
1, 34090, Note_on_c, 9, 42, 0
1, 34319, Note_on_c, 9, 40, 0
1, 34319, Note_on_c, 9, 39, 0
1, 34320, Note_on_c, 9, 42, 56
1, 34324, Note_on_c, 9, 42, 0
1, 34440, Note_on_c, 9, 46, 64
1, 34444, Note_on_c, 9, 46, 0
1, 34559, Note_on_c, 9, 36, 0
1, 34560, Note_on_c, 9, 42, 56
1, 34560, Note_on_c, 9, 36, 76
1, 34570, Note_on_c, 9, 42, 0
1, 34800, Note_on_c, 9, 56, 60
1, 34800, Note_on_c, 9, 42, 56
1, 34804, Note_on_c, 9, 42, 0
1, 34919, Note_on_c, 9, 56, 0
1, 34920, Note_on_c, 9, 62, 58
1, 35039, Note_on_c, 9, 36, 0
1, 35039, Note_on_c, 9, 62, 0
1, 35040, Note_on_c, 9, 40, 64
1, 35040, Note_on_c, 9, 42, 56
1, 35040, Note_on_c, 9, 36, 76
1, 35044, Note_on_c, 9, 42, 0
1, 35159, Note_on_c, 9, 40, 0
1, 35160, Note_on_c, 9, 56, 58
1, 35279, Note_on_c, 9, 56, 0
1, 35280, Note_on_c, 9, 62, 56
1, 35280, Note_on_c, 9, 42, 56
1, 35290, Note_on_c, 9, 42, 0
1, 35519, Note_on_c, 9, 36, 0
1, 35519, Note_on_c, 9, 62, 0
1, 35520, Note_on_c, 9, 62, 54
1, 35520, Note_on_c, 9, 42, 56
1, 35520, Note_on_c, 9, 36, 76
1, 35524, Note_on_c, 9, 42, 0
1, 35639, Note_on_c, 9, 62, 0
1, 35640, Note_on_c, 9, 62, 54
1, 35759, Note_on_c, 9, 62, 0
1, 35760, Note_on_c, 9, 42, 56
1, 35764, Note_on_c, 9, 42, 0
1, 35880, Note_on_c, 9, 64, 54
1, 35880, Note_on_c, 9, 46, 27
1, 35884, Note_on_c, 9, 64, 0
1, 35884, Note_on_c, 9, 46, 0
1, 35999, Note_on_c, 9, 36, 0
1, 36000, Note_on_c, 9, 40, 64
1, 36000, Note_on_c, 9, 39, 81
1, 36000, Note_on_c, 9, 42, 56
1, 36000, Note_on_c, 9, 36, 76
1, 36010, Note_on_c, 9, 42, 0
1, 36239, Note_on_c, 9, 40, 0
1, 36239, Note_on_c, 9, 39, 0
1, 36240, Note_on_c, 9, 42, 56
1, 36250, Note_on_c, 9, 42, 0
1, 36479, Note_on_c, 9, 36, 0
1, 36480, Note_on_c, 9, 42, 56
1, 36480, Note_on_c, 9, 36, 76
1, 36490, Note_on_c, 9, 42, 0
1, 36720, Note_on_c, 9, 56, 56
1, 36720, Note_on_c, 9, 42, 56
1, 36724, Note_on_c, 9, 42, 0
1, 36839, Note_on_c, 9, 56, 0
1, 36840, Note_on_c, 9, 62, 58
1, 36959, Note_on_c, 9, 36, 0
1, 36959, Note_on_c, 9, 62, 0
1, 36960, Note_on_c, 9, 40, 64
1, 36960, Note_on_c, 9, 42, 56
1, 36960, Note_on_c, 9, 36, 76
1, 36964, Note_on_c, 9, 42, 0
1, 37079, Note_on_c, 9, 40, 0
1, 37080, Note_on_c, 9, 56, 58
1, 37199, Note_on_c, 9, 56, 0
1, 37200, Note_on_c, 9, 62, 52
1, 37200, Note_on_c, 9, 42, 56
1, 37210, Note_on_c, 9, 42, 0
1, 37439, Note_on_c, 9, 36, 0
1, 37439, Note_on_c, 9, 62, 0
1, 37440, Note_on_c, 9, 42, 56
1, 37440, Note_on_c, 9, 36, 76
1, 37444, Note_on_c, 9, 42, 0
1, 37560, Note_on_c, 9, 62, 54
1, 37679, Note_on_c, 9, 62, 0
1, 37680, Note_on_c, 9, 42, 56
1, 37684, Note_on_c, 9, 42, 0
1, 37800, Note_on_c, 9, 64, 56
1, 37800, Note_on_c, 9, 46, 28
1, 37804, Note_on_c, 9, 64, 0
1, 37804, Note_on_c, 9, 46, 0
1, 37919, Note_on_c, 9, 36, 0
1, 37920, Note_on_c, 9, 40, 64
1, 37920, Note_on_c, 9, 39, 81
1, 37920, Note_on_c, 9, 42, 56
1, 37920, Note_on_c, 9, 36, 76
1, 37930, Note_on_c, 9, 42, 0
1, 38159, Note_on_c, 9, 40, 0
1, 38159, Note_on_c, 9, 39, 0
1, 38160, Note_on_c, 9, 42, 56
1, 38164, Note_on_c, 9, 42, 0
1, 38280, Note_on_c, 9, 46, 37
1, 38284, Note_on_c, 9, 46, 0
1, 38399, Note_on_c, 9, 36, 0
1, 38400, Note_on_c, 9, 42, 68
1, 38400, Note_on_c, 9, 36, 76
1, 38410, Note_on_c, 9, 42, 0
1, 38640, Note_on_c, 9, 56, 58
1, 38640, Note_on_c, 9, 42, 56
1, 38644, Note_on_c, 9, 42, 0
1, 38759, Note_on_c, 9, 56, 0
1, 38760, Note_on_c, 9, 62, 60
1, 38879, Note_on_c, 9, 36, 0
1, 38879, Note_on_c, 9, 62, 0
1, 38880, Note_on_c, 9, 40, 64
1, 38880, Note_on_c, 9, 42, 56
1, 38880, Note_on_c, 9, 36, 76
1, 38884, Note_on_c, 9, 42, 0
1, 38999, Note_on_c, 9, 40, 0
1, 39000, Note_on_c, 9, 56, 62
1, 39119, Note_on_c, 9, 56, 0
1, 39120, Note_on_c, 9, 62, 64
1, 39120, Note_on_c, 9, 42, 56
1, 39130, Note_on_c, 9, 42, 0
1, 39359, Note_on_c, 9, 36, 0
1, 39359, Note_on_c, 9, 62, 0
1, 39360, Note_on_c, 9, 42, 56
1, 39360, Note_on_c, 9, 36, 76
1, 39364, Note_on_c, 9, 42, 0
1, 39480, Note_on_c, 9, 62, 64
1, 39599, Note_on_c, 9, 62, 0
1, 39600, Note_on_c, 9, 42, 56
1, 39604, Note_on_c, 9, 42, 0
1, 39720, Note_on_c, 9, 46, 50
1, 39724, Note_on_c, 9, 46, 0
1, 39839, Note_on_c, 9, 36, 0
1, 39840, Note_on_c, 9, 64, 36
1, 39840, Note_on_c, 9, 40, 64
1, 39840, Note_on_c, 9, 39, 81
1, 39840, Note_on_c, 9, 42, 56
1, 39840, Note_on_c, 9, 36, 76
1, 39850, Note_on_c, 9, 64, 0
1, 39850, Note_on_c, 9, 42, 0
1, 40079, Note_on_c, 9, 40, 0
1, 40079, Note_on_c, 9, 39, 0
1, 40080, Note_on_c, 9, 42, 56
1, 40090, Note_on_c, 9, 42, 0
1, 40319, Note_on_c, 9, 36, 0
1, 40320, Note_on_c, 9, 42, 56
1, 40320, Note_on_c, 9, 36, 76
1, 40330, Note_on_c, 9, 42, 0
1, 40560, Note_on_c, 9, 56, 56
1, 40560, Note_on_c, 9, 42, 56
1, 40564, Note_on_c, 9, 42, 0
1, 40679, Note_on_c, 9, 56, 0
1, 40680, Note_on_c, 9, 62, 66
1, 40799, Note_on_c, 9, 36, 0
1, 40799, Note_on_c, 9, 62, 0
1, 40800, Note_on_c, 9, 40, 64
1, 40800, Note_on_c, 9, 42, 56
1, 40800, Note_on_c, 9, 36, 76
1, 40804, Note_on_c, 9, 42, 0
1, 40919, Note_on_c, 9, 40, 0
1, 40920, Note_on_c, 9, 56, 56
1, 41039, Note_on_c, 9, 56, 0
1, 41040, Note_on_c, 9, 62, 62
1, 41040, Note_on_c, 9, 42, 56
1, 41050, Note_on_c, 9, 42, 0
1, 41279, Note_on_c, 9, 36, 0
1, 41279, Note_on_c, 9, 62, 0
1, 41280, Note_on_c, 9, 62, 62
1, 41280, Note_on_c, 9, 42, 56
1, 41280, Note_on_c, 9, 36, 76
1, 41284, Note_on_c, 9, 42, 0
1, 41399, Note_on_c, 9, 62, 0
1, 41400, Note_on_c, 9, 62, 54
1, 41519, Note_on_c, 9, 62, 0
1, 41520, Note_on_c, 9, 42, 56
1, 41524, Note_on_c, 9, 42, 0
1, 41640, Note_on_c, 9, 64, 52
1, 41640, Note_on_c, 9, 46, 28
1, 41644, Note_on_c, 9, 64, 0
1, 41644, Note_on_c, 9, 46, 0
1, 41759, Note_on_c, 9, 36, 0
1, 41760, Note_on_c, 9, 40, 64
1, 41760, Note_on_c, 9, 39, 81
1, 41760, Note_on_c, 9, 42, 56
1, 41760, Note_on_c, 9, 36, 76
1, 41770, Note_on_c, 9, 42, 0
1, 41999, Note_on_c, 9, 40, 0
1, 41999, Note_on_c, 9, 39, 0
1, 42000, Note_on_c, 9, 42, 56
1, 42004, Note_on_c, 9, 42, 0
1, 42120, Note_on_c, 9, 46, 64
1, 42124, Note_on_c, 9, 46, 0
1, 42239, Note_on_c, 9, 36, 0
1, 42240, Note_on_c, 9, 42, 56
1, 42240, Note_on_c, 9, 36, 76
1, 42250, Note_on_c, 9, 42, 0
1, 42480, Note_on_c, 9, 56, 60
1, 42480, Note_on_c, 9, 42, 56
1, 42484, Note_on_c, 9, 42, 0
1, 42599, Note_on_c, 9, 56, 0
1, 42600, Note_on_c, 9, 62, 58
1, 42719, Note_on_c, 9, 36, 0
1, 42719, Note_on_c, 9, 62, 0
1, 42720, Note_on_c, 9, 40, 64
1, 42720, Note_on_c, 9, 42, 56
1, 42720, Note_on_c, 9, 36, 76
1, 42724, Note_on_c, 9, 42, 0
1, 42839, Note_on_c, 9, 40, 0
1, 42840, Note_on_c, 9, 56, 58
1, 42959, Note_on_c, 9, 56, 0
1, 42960, Note_on_c, 9, 62, 56
1, 42960, Note_on_c, 9, 42, 56
1, 42970, Note_on_c, 9, 42, 0
1, 43199, Note_on_c, 9, 36, 0
1, 43199, Note_on_c, 9, 62, 0
1, 43200, Note_on_c, 9, 62, 54
1, 43200, Note_on_c, 9, 42, 56
1, 43200, Note_on_c, 9, 36, 76
1, 43204, Note_on_c, 9, 42, 0
1, 43319, Note_on_c, 9, 62, 0
1, 43320, Note_on_c, 9, 62, 54
1, 43439, Note_on_c, 9, 62, 0
1, 43440, Note_on_c, 9, 42, 56
1, 43444, Note_on_c, 9, 42, 0
1, 43560, Note_on_c, 9, 64, 54
1, 43560, Note_on_c, 9, 46, 27
1, 43564, Note_on_c, 9, 64, 0
1, 43564, Note_on_c, 9, 46, 0
1, 43679, Note_on_c, 9, 36, 0
1, 43680, Note_on_c, 9, 40, 64
1, 43680, Note_on_c, 9, 39, 81
1, 43680, Note_on_c, 9, 42, 56
1, 43680, Note_on_c, 9, 36, 76
1, 43690, Note_on_c, 9, 42, 0
1, 43919, Note_on_c, 9, 40, 0
1, 43919, Note_on_c, 9, 39, 0
1, 43920, Note_on_c, 9, 42, 56
1, 43930, Note_on_c, 9, 42, 0
1, 44159, Note_on_c, 9, 36, 0
1, 44160, Note_on_c, 9, 42, 56
1, 44160, Note_on_c, 9, 36, 76
1, 44170, Note_on_c, 9, 42, 0
1, 44400, Note_on_c, 9, 56, 56
1, 44400, Note_on_c, 9, 42, 56
1, 44404, Note_on_c, 9, 42, 0
1, 44519, Note_on_c, 9, 56, 0
1, 44520, Note_on_c, 9, 62, 58
1, 44639, Note_on_c, 9, 36, 0
1, 44639, Note_on_c, 9, 62, 0
1, 44640, Note_on_c, 9, 40, 64
1, 44640, Note_on_c, 9, 42, 56
1, 44640, Note_on_c, 9, 36, 76
1, 44644, Note_on_c, 9, 42, 0
1, 44759, Note_on_c, 9, 40, 0
1, 44760, Note_on_c, 9, 56, 58
1, 44879, Note_on_c, 9, 56, 0
1, 44880, Note_on_c, 9, 62, 52
1, 44880, Note_on_c, 9, 42, 56
1, 44890, Note_on_c, 9, 42, 0
1, 45119, Note_on_c, 9, 36, 0
1, 45119, Note_on_c, 9, 62, 0
1, 45120, Note_on_c, 9, 42, 56
1, 45120, Note_on_c, 9, 36, 76
1, 45124, Note_on_c, 9, 42, 0
1, 45240, Note_on_c, 9, 62, 54
1, 45359, Note_on_c, 9, 62, 0
1, 45360, Note_on_c, 9, 42, 56
1, 45364, Note_on_c, 9, 42, 0
1, 45480, Note_on_c, 9, 64, 56
1, 45480, Note_on_c, 9, 46, 28
1, 45484, Note_on_c, 9, 64, 0
1, 45484, Note_on_c, 9, 46, 0
1, 45599, Note_on_c, 9, 36, 0
1, 45600, Note_on_c, 9, 40, 64
1, 45600, Note_on_c, 9, 39, 81
1, 45600, Note_on_c, 9, 42, 56
1, 45600, Note_on_c, 9, 36, 76
1, 45610, Note_on_c, 9, 42, 0
1, 45839, Note_on_c, 9, 40, 0
1, 45839, Note_on_c, 9, 39, 0
1, 45840, Note_on_c, 9, 42, 56
1, 45844, Note_on_c, 9, 42, 0
1, 45960, Note_on_c, 9, 46, 37
1, 45964, Note_on_c, 9, 46, 0
1, 46079, Note_on_c, 9, 36, 0
1, 46080, Note_on_c, 9, 42, 68
1, 46080, Note_on_c, 9, 36, 76
1, 46090, Note_on_c, 9, 42, 0
1, 46320, Note_on_c, 9, 56, 58
1, 46320, Note_on_c, 9, 42, 56
1, 46324, Note_on_c, 9, 42, 0
1, 46439, Note_on_c, 9, 56, 0
1, 46440, Note_on_c, 9, 62, 60
1, 46559, Note_on_c, 9, 36, 0
1, 46559, Note_on_c, 9, 62, 0
1, 46560, Note_on_c, 9, 40, 64
1, 46560, Note_on_c, 9, 42, 56
1, 46560, Note_on_c, 9, 36, 76
1, 46564, Note_on_c, 9, 42, 0
1, 46679, Note_on_c, 9, 40, 0
1, 46680, Note_on_c, 9, 56, 62
1, 46799, Note_on_c, 9, 56, 0
1, 46800, Note_on_c, 9, 62, 64
1, 46800, Note_on_c, 9, 42, 56
1, 46810, Note_on_c, 9, 42, 0
1, 47039, Note_on_c, 9, 36, 0
1, 47039, Note_on_c, 9, 62, 0
1, 47040, Note_on_c, 9, 42, 56
1, 47040, Note_on_c, 9, 36, 76
1, 47044, Note_on_c, 9, 42, 0
1, 47160, Note_on_c, 9, 62, 64
1, 47279, Note_on_c, 9, 62, 0
1, 47280, Note_on_c, 9, 42, 56
1, 47284, Note_on_c, 9, 42, 0
1, 47400, Note_on_c, 9, 46, 50
1, 47404, Note_on_c, 9, 46, 0
1, 47519, Note_on_c, 9, 36, 0
1, 47520, Note_on_c, 9, 64, 36
1, 47520, Note_on_c, 9, 40, 64
1, 47520, Note_on_c, 9, 39, 81
1, 47520, Note_on_c, 9, 42, 56
1, 47520, Note_on_c, 9, 36, 76
1, 47530, Note_on_c, 9, 64, 0
1, 47530, Note_on_c, 9, 42, 0
1, 47759, Note_on_c, 9, 40, 0
1, 47759, Note_on_c, 9, 39, 0
1, 47760, Note_on_c, 9, 42, 56
1, 47770, Note_on_c, 9, 42, 0
1, 47999, Note_on_c, 9, 36, 0
1, 48000, Note_on_c, 9, 42, 56
1, 48000, Note_on_c, 9, 36, 76
1, 48010, Note_on_c, 9, 42, 0
1, 48240, Note_on_c, 9, 56, 56
1, 48240, Note_on_c, 9, 42, 56
1, 48244, Note_on_c, 9, 42, 0
1, 48359, Note_on_c, 9, 56, 0
1, 48360, Note_on_c, 9, 62, 66
1, 48479, Note_on_c, 9, 36, 0
1, 48479, Note_on_c, 9, 62, 0
1, 48480, Note_on_c, 9, 40, 64
1, 48480, Note_on_c, 9, 42, 56
1, 48480, Note_on_c, 9, 36, 76
1, 48484, Note_on_c, 9, 42, 0
1, 48599, Note_on_c, 9, 40, 0
1, 48600, Note_on_c, 9, 56, 56
1, 48719, Note_on_c, 9, 56, 0
1, 48720, Note_on_c, 9, 62, 62
1, 48720, Note_on_c, 9, 42, 56
1, 48730, Note_on_c, 9, 42, 0
1, 48959, Note_on_c, 9, 36, 0
1, 48959, Note_on_c, 9, 62, 0
1, 48960, Note_on_c, 9, 62, 62
1, 48960, Note_on_c, 9, 42, 56
1, 48960, Note_on_c, 9, 36, 76
1, 48964, Note_on_c, 9, 42, 0
1, 49079, Note_on_c, 9, 62, 0
1, 49080, Note_on_c, 9, 62, 54
1, 49199, Note_on_c, 9, 62, 0
1, 49200, Note_on_c, 9, 42, 56
1, 49204, Note_on_c, 9, 42, 0
1, 49320, Note_on_c, 9, 64, 52
1, 49320, Note_on_c, 9, 46, 28
1, 49324, Note_on_c, 9, 64, 0
1, 49324, Note_on_c, 9, 46, 0
1, 49439, Note_on_c, 9, 36, 0
1, 49440, Note_on_c, 9, 40, 64
1, 49440, Note_on_c, 9, 39, 81
1, 49440, Note_on_c, 9, 42, 56
1, 49440, Note_on_c, 9, 36, 76
1, 49450, Note_on_c, 9, 42, 0
1, 49679, Note_on_c, 9, 40, 0
1, 49679, Note_on_c, 9, 39, 0
1, 49680, Note_on_c, 9, 42, 56
1, 49684, Note_on_c, 9, 42, 0
1, 49800, Note_on_c, 9, 46, 64
1, 49804, Note_on_c, 9, 46, 0
1, 49919, Note_on_c, 9, 36, 0
1, 49920, Note_on_c, 9, 42, 56
1, 49920, Note_on_c, 9, 36, 76
1, 49930, Note_on_c, 9, 42, 0
1, 50160, Note_on_c, 9, 56, 60
1, 50160, Note_on_c, 9, 42, 56
1, 50164, Note_on_c, 9, 42, 0
1, 50279, Note_on_c, 9, 56, 0
1, 50280, Note_on_c, 9, 62, 58
1, 50399, Note_on_c, 9, 36, 0
1, 50399, Note_on_c, 9, 62, 0
1, 50400, Note_on_c, 9, 40, 64
1, 50400, Note_on_c, 9, 42, 56
1, 50400, Note_on_c, 9, 36, 76
1, 50404, Note_on_c, 9, 42, 0
1, 50519, Note_on_c, 9, 40, 0
1, 50520, Note_on_c, 9, 56, 58
1, 50639, Note_on_c, 9, 56, 0
1, 50640, Note_on_c, 9, 62, 56
1, 50640, Note_on_c, 9, 42, 56
1, 50650, Note_on_c, 9, 42, 0
1, 50879, Note_on_c, 9, 36, 0
1, 50879, Note_on_c, 9, 62, 0
1, 50880, Note_on_c, 9, 62, 54
1, 50880, Note_on_c, 9, 42, 56
1, 50880, Note_on_c, 9, 36, 76
1, 50884, Note_on_c, 9, 42, 0
1, 50999, Note_on_c, 9, 62, 0
1, 51000, Note_on_c, 9, 62, 54
1, 51119, Note_on_c, 9, 62, 0
1, 51120, Note_on_c, 9, 42, 56
1, 51124, Note_on_c, 9, 42, 0
1, 51240, Note_on_c, 9, 64, 54
1, 51240, Note_on_c, 9, 46, 27
1, 51244, Note_on_c, 9, 64, 0
1, 51244, Note_on_c, 9, 46, 0
1, 51359, Note_on_c, 9, 36, 0
1, 51360, Note_on_c, 9, 40, 64
1, 51360, Note_on_c, 9, 39, 81
1, 51360, Note_on_c, 9, 42, 56
1, 51360, Note_on_c, 9, 36, 76
1, 51370, Note_on_c, 9, 42, 0
1, 51599, Note_on_c, 9, 40, 0
1, 51599, Note_on_c, 9, 39, 0
1, 51600, Note_on_c, 9, 42, 56
1, 51610, Note_on_c, 9, 42, 0
1, 51839, Note_on_c, 9, 36, 0
1, 51840, Note_on_c, 9, 42, 56
1, 51840, Note_on_c, 9, 36, 76
1, 51850, Note_on_c, 9, 42, 0
1, 52080, Note_on_c, 9, 56, 56
1, 52080, Note_on_c, 9, 42, 56
1, 52084, Note_on_c, 9, 42, 0
1, 52199, Note_on_c, 9, 56, 0
1, 52200, Note_on_c, 9, 62, 58
1, 52319, Note_on_c, 9, 36, 0
1, 52319, Note_on_c, 9, 62, 0
1, 52320, Note_on_c, 9, 40, 64
1, 52320, Note_on_c, 9, 42, 56
1, 52320, Note_on_c, 9, 36, 76
1, 52324, Note_on_c, 9, 42, 0
1, 52439, Note_on_c, 9, 40, 0
1, 52440, Note_on_c, 9, 56, 58
1, 52559, Note_on_c, 9, 56, 0
1, 52560, Note_on_c, 9, 62, 52
1, 52560, Note_on_c, 9, 42, 56
1, 52570, Note_on_c, 9, 42, 0
1, 52799, Note_on_c, 9, 36, 0
1, 52799, Note_on_c, 9, 62, 0
1, 52800, Note_on_c, 9, 42, 56
1, 52800, Note_on_c, 9, 36, 76
1, 52804, Note_on_c, 9, 42, 0
1, 52920, Note_on_c, 9, 62, 54
1, 53039, Note_on_c, 9, 62, 0
1, 53040, Note_on_c, 9, 42, 56
1, 53044, Note_on_c, 9, 42, 0
1, 53160, Note_on_c, 9, 64, 56
1, 53160, Note_on_c, 9, 46, 28
1, 53164, Note_on_c, 9, 64, 0
1, 53164, Note_on_c, 9, 46, 0
1, 53279, Note_on_c, 9, 36, 0
1, 53280, Note_on_c, 9, 40, 64
1, 53280, Note_on_c, 9, 39, 81
1, 53280, Note_on_c, 9, 42, 56
1, 53280, Note_on_c, 9, 36, 76
1, 53290, Note_on_c, 9, 42, 0
1, 53519, Note_on_c, 9, 40, 0
1, 53519, Note_on_c, 9, 39, 0
1, 53520, Note_on_c, 9, 42, 56
1, 53524, Note_on_c, 9, 42, 0
1, 53640, Note_on_c, 9, 46, 37
1, 53644, Note_on_c, 9, 46, 0
1, 53759, Note_on_c, 9, 36, 0
1, 53760, Note_on_c, 9, 42, 68
1, 53760, Note_on_c, 9, 36, 76
1, 53770, Note_on_c, 9, 42, 0
1, 54000, Note_on_c, 9, 56, 58
1, 54000, Note_on_c, 9, 42, 56
1, 54004, Note_on_c, 9, 42, 0
1, 54119, Note_on_c, 9, 56, 0
1, 54120, Note_on_c, 9, 62, 60
1, 54239, Note_on_c, 9, 36, 0
1, 54239, Note_on_c, 9, 62, 0
1, 54240, Note_on_c, 9, 40, 64
1, 54240, Note_on_c, 9, 42, 56
1, 54240, Note_on_c, 9, 36, 76
1, 54244, Note_on_c, 9, 42, 0
1, 54359, Note_on_c, 9, 40, 0
1, 54360, Note_on_c, 9, 56, 62
1, 54479, Note_on_c, 9, 56, 0
1, 54480, Note_on_c, 9, 62, 64
1, 54480, Note_on_c, 9, 42, 56
1, 54490, Note_on_c, 9, 42, 0
1, 54719, Note_on_c, 9, 36, 0
1, 54719, Note_on_c, 9, 62, 0
1, 54720, Note_on_c, 9, 42, 56
1, 54720, Note_on_c, 9, 36, 76
1, 54724, Note_on_c, 9, 42, 0
1, 54840, Note_on_c, 9, 62, 64
1, 54959, Note_on_c, 9, 62, 0
1, 54960, Note_on_c, 9, 42, 56
1, 54964, Note_on_c, 9, 42, 0
1, 55080, Note_on_c, 9, 46, 50
1, 55084, Note_on_c, 9, 46, 0
1, 55199, Note_on_c, 9, 36, 0
1, 55200, Note_on_c, 9, 64, 36
1, 55200, Note_on_c, 9, 40, 64
1, 55200, Note_on_c, 9, 39, 81
1, 55200, Note_on_c, 9, 42, 56
1, 55200, Note_on_c, 9, 36, 76
1, 55210, Note_on_c, 9, 64, 0
1, 55210, Note_on_c, 9, 42, 0
1, 55439, Note_on_c, 9, 40, 0
1, 55439, Note_on_c, 9, 39, 0
1, 55440, Note_on_c, 9, 42, 56
1, 55450, Note_on_c, 9, 42, 0
1, 55679, Note_on_c, 9, 36, 0
1, 55680, Note_on_c, 9, 42, 56
1, 55680, Note_on_c, 9, 36, 76
1, 55690, Note_on_c, 9, 42, 0
1, 55920, Note_on_c, 9, 56, 56
1, 55920, Note_on_c, 9, 42, 56
1, 55924, Note_on_c, 9, 42, 0
1, 56039, Note_on_c, 9, 56, 0
1, 56040, Note_on_c, 9, 62, 66
1, 56159, Note_on_c, 9, 36, 0
1, 56159, Note_on_c, 9, 62, 0
1, 56160, Note_on_c, 9, 40, 64
1, 56160, Note_on_c, 9, 42, 56
1, 56160, Note_on_c, 9, 36, 76
1, 56164, Note_on_c, 9, 42, 0
1, 56279, Note_on_c, 9, 40, 0
1, 56280, Note_on_c, 9, 56, 56
1, 56399, Note_on_c, 9, 56, 0
1, 56400, Note_on_c, 9, 62, 62
1, 56400, Note_on_c, 9, 42, 56
1, 56410, Note_on_c, 9, 42, 0
1, 56639, Note_on_c, 9, 36, 0
1, 56639, Note_on_c, 9, 62, 0
1, 56640, Note_on_c, 9, 62, 62
1, 56640, Note_on_c, 9, 42, 56
1, 56640, Note_on_c, 9, 36, 76
1, 56644, Note_on_c, 9, 42, 0
1, 56759, Note_on_c, 9, 62, 0
1, 56760, Note_on_c, 9, 62, 54
1, 56879, Note_on_c, 9, 62, 0
1, 56880, Note_on_c, 9, 42, 56
1, 56884, Note_on_c, 9, 42, 0
1, 57000, Note_on_c, 9, 64, 52
1, 57000, Note_on_c, 9, 46, 28
1, 57004, Note_on_c, 9, 64, 0
1, 57004, Note_on_c, 9, 46, 0
1, 57119, Note_on_c, 9, 36, 0
1, 57120, Note_on_c, 9, 40, 64
1, 57120, Note_on_c, 9, 39, 81
1, 57120, Note_on_c, 9, 42, 56
1, 57120, Note_on_c, 9, 36, 76
1, 57130, Note_on_c, 9, 42, 0
1, 57359, Note_on_c, 9, 40, 0
1, 57359, Note_on_c, 9, 39, 0
1, 57360, Note_on_c, 9, 42, 56
1, 57364, Note_on_c, 9, 42, 0
1, 57480, Note_on_c, 9, 46, 64
1, 57484, Note_on_c, 9, 46, 0
1, 57599, Note_on_c, 9, 36, 0
1, 57600, Note_on_c, 9, 42, 56
1, 57600, Note_on_c, 9, 36, 76
1, 57610, Note_on_c, 9, 42, 0
1, 57840, Note_on_c, 9, 56, 60
1, 57840, Note_on_c, 9, 42, 56
1, 57844, Note_on_c, 9, 42, 0
1, 57959, Note_on_c, 9, 56, 0
1, 57960, Note_on_c, 9, 62, 58
1, 58079, Note_on_c, 9, 36, 0
1, 58079, Note_on_c, 9, 62, 0
1, 58080, Note_on_c, 9, 40, 64
1, 58080, Note_on_c, 9, 42, 56
1, 58080, Note_on_c, 9, 36, 76
1, 58084, Note_on_c, 9, 42, 0
1, 58199, Note_on_c, 9, 40, 0
1, 58200, Note_on_c, 9, 56, 58
1, 58319, Note_on_c, 9, 56, 0
1, 58320, Note_on_c, 9, 62, 56
1, 58320, Note_on_c, 9, 42, 56
1, 58330, Note_on_c, 9, 42, 0
1, 58559, Note_on_c, 9, 36, 0
1, 58559, Note_on_c, 9, 62, 0
1, 58560, Note_on_c, 9, 62, 54
1, 58560, Note_on_c, 9, 42, 56
1, 58560, Note_on_c, 9, 36, 76
1, 58564, Note_on_c, 9, 42, 0
1, 58679, Note_on_c, 9, 62, 0
1, 58680, Note_on_c, 9, 62, 54
1, 58799, Note_on_c, 9, 62, 0
1, 58800, Note_on_c, 9, 42, 56
1, 58804, Note_on_c, 9, 42, 0
1, 58920, Note_on_c, 9, 64, 54
1, 58920, Note_on_c, 9, 46, 27
1, 58924, Note_on_c, 9, 64, 0
1, 58924, Note_on_c, 9, 46, 0
1, 59039, Note_on_c, 9, 36, 0
1, 59040, Note_on_c, 9, 40, 64
1, 59040, Note_on_c, 9, 39, 81
1, 59040, Note_on_c, 9, 42, 56
1, 59040, Note_on_c, 9, 36, 76
1, 59050, Note_on_c, 9, 42, 0
1, 59279, Note_on_c, 9, 40, 0
1, 59279, Note_on_c, 9, 39, 0
1, 59280, Note_on_c, 9, 42, 56
1, 59290, Note_on_c, 9, 42, 0
1, 59519, Note_on_c, 9, 36, 0
1, 59520, Note_on_c, 9, 42, 56
1, 59520, Note_on_c, 9, 36, 76
1, 59530, Note_on_c, 9, 42, 0
1, 59760, Note_on_c, 9, 56, 56
1, 59760, Note_on_c, 9, 42, 56
1, 59764, Note_on_c, 9, 42, 0
1, 59879, Note_on_c, 9, 56, 0
1, 59880, Note_on_c, 9, 62, 58
1, 59999, Note_on_c, 9, 36, 0
1, 59999, Note_on_c, 9, 62, 0
1, 60000, Note_on_c, 9, 40, 64
1, 60000, Note_on_c, 9, 42, 56
1, 60000, Note_on_c, 9, 36, 76
1, 60004, Note_on_c, 9, 42, 0
1, 60119, Note_on_c, 9, 40, 0
1, 60120, Note_on_c, 9, 56, 58
1, 60239, Note_on_c, 9, 56, 0
1, 60240, Note_on_c, 9, 62, 52
1, 60240, Note_on_c, 9, 42, 56
1, 60250, Note_on_c, 9, 42, 0
1, 60479, Note_on_c, 9, 36, 0
1, 60479, Note_on_c, 9, 62, 0
1, 60480, Note_on_c, 9, 42, 56
1, 60480, Note_on_c, 9, 36, 76
1, 60484, Note_on_c, 9, 42, 0
1, 60600, Note_on_c, 9, 62, 54
1, 60719, Note_on_c, 9, 62, 0
1, 60720, Note_on_c, 9, 42, 56
1, 60724, Note_on_c, 9, 42, 0
1, 60840, Note_on_c, 9, 64, 56
1, 60840, Note_on_c, 9, 46, 28
1, 60844, Note_on_c, 9, 64, 0
1, 60844, Note_on_c, 9, 46, 0
1, 60959, Note_on_c, 9, 36, 0
1, 60960, Note_on_c, 9, 40, 64
1, 60960, Note_on_c, 9, 39, 81
1, 60960, Note_on_c, 9, 42, 56
1, 60960, Note_on_c, 9, 36, 76
1, 60970, Note_on_c, 9, 42, 0
1, 61199, Note_on_c, 9, 40, 0
1, 61199, Note_on_c, 9, 39, 0
1, 61200, Note_on_c, 9, 42, 56
1, 61204, Note_on_c, 9, 42, 0
1, 61320, Note_on_c, 9, 46, 37
1, 61324, Note_on_c, 9, 46, 0
1, 61439, Note_on_c, 9, 36, 0
1, 61440, Note_on_c, 9, 42, 68
1, 61440, Note_on_c, 9, 36, 76
1, 61450, Note_on_c, 9, 42, 0
1, 61680, Note_on_c, 9, 56, 58
1, 61680, Note_on_c, 9, 42, 56
1, 61684, Note_on_c, 9, 42, 0
1, 61799, Note_on_c, 9, 56, 0
1, 61800, Note_on_c, 9, 62, 60
1, 61919, Note_on_c, 9, 36, 0
1, 61919, Note_on_c, 9, 62, 0
1, 61920, Note_on_c, 9, 40, 64
1, 61920, Note_on_c, 9, 42, 56
1, 61920, Note_on_c, 9, 36, 76
1, 61924, Note_on_c, 9, 42, 0
1, 62039, Note_on_c, 9, 40, 0
1, 62040, Note_on_c, 9, 56, 62
1, 62159, Note_on_c, 9, 56, 0
1, 62160, Note_on_c, 9, 62, 64
1, 62160, Note_on_c, 9, 42, 56
1, 62170, Note_on_c, 9, 42, 0
1, 62399, Note_on_c, 9, 36, 0
1, 62399, Note_on_c, 9, 62, 0
1, 62400, Note_on_c, 9, 42, 56
1, 62400, Note_on_c, 9, 36, 76
1, 62404, Note_on_c, 9, 42, 0
1, 62520, Note_on_c, 9, 62, 64
1, 62639, Note_on_c, 9, 62, 0
1, 62640, Note_on_c, 9, 42, 56
1, 62644, Note_on_c, 9, 42, 0
1, 62760, Note_on_c, 9, 46, 50
1, 62764, Note_on_c, 9, 46, 0
1, 62879, Note_on_c, 9, 36, 0
1, 62880, Note_on_c, 9, 64, 36
1, 62880, Note_on_c, 9, 40, 64
1, 62880, Note_on_c, 9, 39, 81
1, 62880, Note_on_c, 9, 42, 56
1, 62880, Note_on_c, 9, 36, 76
1, 62890, Note_on_c, 9, 64, 0
1, 62890, Note_on_c, 9, 42, 0
1, 63119, Note_on_c, 9, 40, 0
1, 63119, Note_on_c, 9, 39, 0
1, 63120, Note_on_c, 9, 42, 56
1, 63130, Note_on_c, 9, 42, 0
1, 63359, Note_on_c, 9, 36, 0
1, 63360, Note_on_c, 9, 42, 56
1, 63360, Note_on_c, 9, 36, 76
1, 63370, Note_on_c, 9, 42, 0
1, 63600, Note_on_c, 9, 56, 56
1, 63600, Note_on_c, 9, 42, 56
1, 63604, Note_on_c, 9, 42, 0
1, 63719, Note_on_c, 9, 56, 0
1, 63720, Note_on_c, 9, 62, 66
1, 63839, Note_on_c, 9, 36, 0
1, 63839, Note_on_c, 9, 62, 0
1, 63840, Note_on_c, 9, 40, 64
1, 63840, Note_on_c, 9, 42, 56
1, 63840, Note_on_c, 9, 36, 76
1, 63844, Note_on_c, 9, 42, 0
1, 63959, Note_on_c, 9, 40, 0
1, 63960, Note_on_c, 9, 56, 56
1, 64079, Note_on_c, 9, 56, 0
1, 64080, Note_on_c, 9, 62, 62
1, 64080, Note_on_c, 9, 42, 56
1, 64090, Note_on_c, 9, 42, 0
1, 64319, Note_on_c, 9, 36, 0
1, 64319, Note_on_c, 9, 62, 0
1, 64320, Note_on_c, 9, 62, 62
1, 64320, Note_on_c, 9, 42, 56
1, 64320, Note_on_c, 9, 36, 76
1, 64324, Note_on_c, 9, 42, 0
1, 64439, Note_on_c, 9, 62, 0
1, 64440, Note_on_c, 9, 62, 54
1, 64559, Note_on_c, 9, 62, 0
1, 64560, Note_on_c, 9, 42, 56
1, 64564, Note_on_c, 9, 42, 0
1, 64680, Note_on_c, 9, 64, 52
1, 64680, Note_on_c, 9, 46, 28
1, 64684, Note_on_c, 9, 64, 0
1, 64684, Note_on_c, 9, 46, 0
1, 64799, Note_on_c, 9, 36, 0
1, 64800, Note_on_c, 9, 40, 64
1, 64800, Note_on_c, 9, 39, 81
1, 64800, Note_on_c, 9, 42, 56
1, 64800, Note_on_c, 9, 36, 76
1, 64810, Note_on_c, 9, 42, 0
1, 65039, Note_on_c, 9, 40, 0
1, 65039, Note_on_c, 9, 39, 0
1, 65040, Note_on_c, 9, 42, 56
1, 65044, Note_on_c, 9, 42, 0
1, 65160, Note_on_c, 9, 46, 64
1, 65164, Note_on_c, 9, 46, 0
1, 65279, Note_on_c, 9, 36, 0
1, 65280, Note_on_c, 9, 42, 56
1, 65280, Note_on_c, 9, 36, 76
1, 65290, Note_on_c, 9, 42, 0
1, 65520, Note_on_c, 9, 56, 60
1, 65520, Note_on_c, 9, 42, 56
1, 65524, Note_on_c, 9, 42, 0
1, 65639, Note_on_c, 9, 56, 0
1, 65640, Note_on_c, 9, 62, 58
1, 65759, Note_on_c, 9, 36, 0
1, 65759, Note_on_c, 9, 62, 0
1, 65760, Note_on_c, 9, 40, 64
1, 65760, Note_on_c, 9, 42, 56
1, 65760, Note_on_c, 9, 36, 76
1, 65764, Note_on_c, 9, 42, 0
1, 65879, Note_on_c, 9, 40, 0
1, 65880, Note_on_c, 9, 56, 58
1, 65999, Note_on_c, 9, 56, 0
1, 66000, Note_on_c, 9, 62, 56
1, 66000, Note_on_c, 9, 42, 56
1, 66010, Note_on_c, 9, 42, 0
1, 66239, Note_on_c, 9, 36, 0
1, 66239, Note_on_c, 9, 62, 0
1, 66240, Note_on_c, 9, 62, 54
1, 66240, Note_on_c, 9, 42, 56
1, 66240, Note_on_c, 9, 36, 76
1, 66244, Note_on_c, 9, 42, 0
1, 66359, Note_on_c, 9, 62, 0
1, 66360, Note_on_c, 9, 62, 54
1, 66479, Note_on_c, 9, 62, 0
1, 66480, Note_on_c, 9, 42, 56
1, 66484, Note_on_c, 9, 42, 0
1, 66600, Note_on_c, 9, 64, 54
1, 66600, Note_on_c, 9, 46, 27
1, 66604, Note_on_c, 9, 64, 0
1, 66604, Note_on_c, 9, 46, 0
1, 66719, Note_on_c, 9, 36, 0
1, 66720, Note_on_c, 9, 40, 64
1, 66720, Note_on_c, 9, 39, 81
1, 66720, Note_on_c, 9, 42, 56
1, 66720, Note_on_c, 9, 36, 76
1, 66730, Note_on_c, 9, 42, 0
1, 66959, Note_on_c, 9, 40, 0
1, 66959, Note_on_c, 9, 39, 0
1, 66960, Note_on_c, 9, 42, 56
1, 66970, Note_on_c, 9, 42, 0
1, 67199, Note_on_c, 9, 36, 0
1, 67200, Note_on_c, 9, 42, 56
1, 67200, Note_on_c, 9, 36, 76
1, 67210, Note_on_c, 9, 42, 0
1, 67440, Note_on_c, 9, 56, 56
1, 67440, Note_on_c, 9, 42, 56
1, 67444, Note_on_c, 9, 42, 0
1, 67559, Note_on_c, 9, 56, 0
1, 67560, Note_on_c, 9, 62, 58
1, 67679, Note_on_c, 9, 36, 0
1, 67679, Note_on_c, 9, 62, 0
1, 67680, Note_on_c, 9, 40, 64
1, 67680, Note_on_c, 9, 42, 56
1, 67680, Note_on_c, 9, 36, 76
1, 67684, Note_on_c, 9, 42, 0
1, 67799, Note_on_c, 9, 40, 0
1, 67800, Note_on_c, 9, 56, 58
1, 67919, Note_on_c, 9, 56, 0
1, 67920, Note_on_c, 9, 62, 52
1, 67920, Note_on_c, 9, 42, 56
1, 67930, Note_on_c, 9, 42, 0
1, 68159, Note_on_c, 9, 36, 0
1, 68159, Note_on_c, 9, 62, 0
1, 68160, Note_on_c, 9, 42, 56
1, 68160, Note_on_c, 9, 36, 76
1, 68164, Note_on_c, 9, 42, 0
1, 68280, Note_on_c, 9, 62, 54
1, 68399, Note_on_c, 9, 62, 0
1, 68400, Note_on_c, 9, 42, 56
1, 68404, Note_on_c, 9, 42, 0
1, 68520, Note_on_c, 9, 64, 56
1, 68520, Note_on_c, 9, 46, 28
1, 68524, Note_on_c, 9, 64, 0
1, 68524, Note_on_c, 9, 46, 0
1, 68639, Note_on_c, 9, 36, 0
1, 68640, Note_on_c, 9, 40, 64
1, 68640, Note_on_c, 9, 39, 81
1, 68640, Note_on_c, 9, 42, 56
1, 68640, Note_on_c, 9, 36, 76
1, 68650, Note_on_c, 9, 42, 0
1, 68879, Note_on_c, 9, 40, 0
1, 68879, Note_on_c, 9, 39, 0
1, 68880, Note_on_c, 9, 42, 56
1, 68884, Note_on_c, 9, 42, 0
1, 69000, Note_on_c, 9, 46, 37
1, 69004, Note_on_c, 9, 46, 0
1, 69119, Note_on_c, 9, 36, 0
1, 69120, Note_on_c, 9, 42, 68
1, 69120, Note_on_c, 9, 36, 76
1, 69130, Note_on_c, 9, 42, 0
1, 69360, Note_on_c, 9, 56, 58
1, 69360, Note_on_c, 9, 42, 56
1, 69364, Note_on_c, 9, 42, 0
1, 69479, Note_on_c, 9, 56, 0
1, 69480, Note_on_c, 9, 62, 60
1, 69599, Note_on_c, 9, 36, 0
1, 69599, Note_on_c, 9, 62, 0
1, 69600, Note_on_c, 9, 40, 64
1, 69600, Note_on_c, 9, 42, 56
1, 69600, Note_on_c, 9, 36, 76
1, 69604, Note_on_c, 9, 42, 0
1, 69719, Note_on_c, 9, 40, 0
1, 69720, Note_on_c, 9, 56, 62
1, 69839, Note_on_c, 9, 56, 0
1, 69840, Note_on_c, 9, 62, 64
1, 69840, Note_on_c, 9, 42, 56
1, 69850, Note_on_c, 9, 42, 0
1, 70079, Note_on_c, 9, 36, 0
1, 70079, Note_on_c, 9, 62, 0
1, 70080, Note_on_c, 9, 42, 56
1, 70080, Note_on_c, 9, 36, 76
1, 70084, Note_on_c, 9, 42, 0
1, 70200, Note_on_c, 9, 62, 64
1, 70319, Note_on_c, 9, 62, 0
1, 70320, Note_on_c, 9, 42, 56
1, 70324, Note_on_c, 9, 42, 0
1, 70440, Note_on_c, 9, 46, 50
1, 70444, Note_on_c, 9, 46, 0
1, 70559, Note_on_c, 9, 36, 0
1, 70560, Note_on_c, 9, 64, 36
1, 70560, Note_on_c, 9, 40, 64
1, 70560, Note_on_c, 9, 39, 81
1, 70560, Note_on_c, 9, 42, 56
1, 70560, Note_on_c, 9, 36, 76
1, 70570, Note_on_c, 9, 64, 0
1, 70570, Note_on_c, 9, 42, 0
1, 70799, Note_on_c, 9, 40, 0
1, 70799, Note_on_c, 9, 39, 0
1, 70800, Note_on_c, 9, 42, 56
1, 70810, Note_on_c, 9, 42, 0
1, 71039, Note_on_c, 9, 36, 0
1, 71040, Note_on_c, 9, 42, 56
1, 71040, Note_on_c, 9, 36, 76
1, 71050, Note_on_c, 9, 42, 0
1, 71280, Note_on_c, 9, 56, 56
1, 71280, Note_on_c, 9, 42, 56
1, 71284, Note_on_c, 9, 42, 0
1, 71399, Note_on_c, 9, 56, 0
1, 71400, Note_on_c, 9, 62, 66
1, 71519, Note_on_c, 9, 36, 0
1, 71519, Note_on_c, 9, 62, 0
1, 71520, Note_on_c, 9, 40, 64
1, 71520, Note_on_c, 9, 42, 56
1, 71520, Note_on_c, 9, 36, 76
1, 71524, Note_on_c, 9, 42, 0
1, 71639, Note_on_c, 9, 40, 0
1, 71640, Note_on_c, 9, 56, 56
1, 71759, Note_on_c, 9, 56, 0
1, 71760, Note_on_c, 9, 62, 62
1, 71760, Note_on_c, 9, 42, 56
1, 71770, Note_on_c, 9, 42, 0
1, 71999, Note_on_c, 9, 36, 0
1, 71999, Note_on_c, 9, 62, 0
1, 72000, Note_on_c, 9, 62, 62
1, 72000, Note_on_c, 9, 42, 56
1, 72000, Note_on_c, 9, 36, 76
1, 72004, Note_on_c, 9, 42, 0
1, 72119, Note_on_c, 9, 62, 0
1, 72120, Note_on_c, 9, 62, 54
1, 72239, Note_on_c, 9, 62, 0
1, 72240, Note_on_c, 9, 42, 56
1, 72244, Note_on_c, 9, 42, 0
1, 72360, Note_on_c, 9, 64, 52
1, 72360, Note_on_c, 9, 46, 28
1, 72364, Note_on_c, 9, 64, 0
1, 72364, Note_on_c, 9, 46, 0
1, 72479, Note_on_c, 9, 36, 0
1, 72480, Note_on_c, 9, 40, 64
1, 72480, Note_on_c, 9, 39, 81
1, 72480, Note_on_c, 9, 42, 56
1, 72480, Note_on_c, 9, 36, 76
1, 72490, Note_on_c, 9, 42, 0
1, 72719, Note_on_c, 9, 40, 0
1, 72719, Note_on_c, 9, 39, 0
1, 72720, Note_on_c, 9, 42, 56
1, 72724, Note_on_c, 9, 42, 0
1, 72840, Note_on_c, 9, 46, 64
1, 72844, Note_on_c, 9, 46, 0
1, 72959, Note_on_c, 9, 36, 0
1, 72960, Note_on_c, 9, 42, 56
1, 72960, Note_on_c, 9, 36, 76
1, 72970, Note_on_c, 9, 42, 0
1, 73200, Note_on_c, 9, 56, 60
1, 73200, Note_on_c, 9, 42, 56
1, 73204, Note_on_c, 9, 42, 0
1, 73319, Note_on_c, 9, 56, 0
1, 73320, Note_on_c, 9, 62, 58
1, 73439, Note_on_c, 9, 36, 0
1, 73439, Note_on_c, 9, 62, 0
1, 73440, Note_on_c, 9, 40, 64
1, 73440, Note_on_c, 9, 42, 56
1, 73440, Note_on_c, 9, 36, 76
1, 73444, Note_on_c, 9, 42, 0
1, 73559, Note_on_c, 9, 40, 0
1, 73560, Note_on_c, 9, 56, 58
1, 73679, Note_on_c, 9, 56, 0
1, 73680, Note_on_c, 9, 62, 56
1, 73680, Note_on_c, 9, 42, 56
1, 73690, Note_on_c, 9, 42, 0
1, 73919, Note_on_c, 9, 36, 0
1, 73919, Note_on_c, 9, 62, 0
1, 73920, Note_on_c, 9, 62, 54
1, 73920, Note_on_c, 9, 42, 56
1, 73920, Note_on_c, 9, 36, 76
1, 73924, Note_on_c, 9, 42, 0
1, 74039, Note_on_c, 9, 62, 0
1, 74040, Note_on_c, 9, 62, 54
1, 74159, Note_on_c, 9, 62, 0
1, 74160, Note_on_c, 9, 42, 56
1, 74164, Note_on_c, 9, 42, 0
1, 74280, Note_on_c, 9, 64, 54
1, 74280, Note_on_c, 9, 46, 27
1, 74284, Note_on_c, 9, 64, 0
1, 74284, Note_on_c, 9, 46, 0
1, 74399, Note_on_c, 9, 36, 0
1, 74400, Note_on_c, 9, 40, 64
1, 74400, Note_on_c, 9, 39, 81
1, 74400, Note_on_c, 9, 42, 56
1, 74400, Note_on_c, 9, 36, 76
1, 74410, Note_on_c, 9, 42, 0
1, 74639, Note_on_c, 9, 40, 0
1, 74639, Note_on_c, 9, 39, 0
1, 74640, Note_on_c, 9, 42, 56
1, 74650, Note_on_c, 9, 42, 0
1, 74879, Note_on_c, 9, 36, 0
1, 74880, Note_on_c, 9, 42, 56
1, 74880, Note_on_c, 9, 36, 76
1, 74890, Note_on_c, 9, 42, 0
1, 75120, Note_on_c, 9, 56, 56
1, 75120, Note_on_c, 9, 42, 56
1, 75124, Note_on_c, 9, 42, 0
1, 75239, Note_on_c, 9, 56, 0
1, 75240, Note_on_c, 9, 62, 58
1, 75359, Note_on_c, 9, 36, 0
1, 75359, Note_on_c, 9, 62, 0
1, 75360, Note_on_c, 9, 40, 64
1, 75360, Note_on_c, 9, 42, 56
1, 75360, Note_on_c, 9, 36, 76
1, 75364, Note_on_c, 9, 42, 0
1, 75479, Note_on_c, 9, 40, 0
1, 75480, Note_on_c, 9, 56, 58
1, 75599, Note_on_c, 9, 56, 0
1, 75600, Note_on_c, 9, 62, 52
1, 75600, Note_on_c, 9, 42, 56
1, 75610, Note_on_c, 9, 42, 0
1, 75839, Note_on_c, 9, 36, 0
1, 75839, Note_on_c, 9, 62, 0
1, 75840, Note_on_c, 9, 42, 56
1, 75840, Note_on_c, 9, 36, 76
1, 75844, Note_on_c, 9, 42, 0
1, 75960, Note_on_c, 9, 62, 54
1, 76079, Note_on_c, 9, 62, 0
1, 76080, Note_on_c, 9, 42, 56
1, 76084, Note_on_c, 9, 42, 0
1, 76200, Note_on_c, 9, 64, 56
1, 76200, Note_on_c, 9, 46, 28
1, 76204, Note_on_c, 9, 64, 0
1, 76204, Note_on_c, 9, 46, 0
1, 76319, Note_on_c, 9, 36, 0
1, 76320, Note_on_c, 9, 40, 64
1, 76320, Note_on_c, 9, 39, 81
1, 76320, Note_on_c, 9, 42, 56
1, 76320, Note_on_c, 9, 36, 76
1, 76330, Note_on_c, 9, 42, 0
1, 76559, Note_on_c, 9, 40, 0
1, 76559, Note_on_c, 9, 39, 0
1, 76560, Note_on_c, 9, 42, 56
1, 76564, Note_on_c, 9, 42, 0
1, 76680, Note_on_c, 9, 46, 37
1, 76684, Note_on_c, 9, 46, 0
1, 76799, Note_on_c, 9, 36, 0
1, 76800, Note_on_c, 9, 42, 68
1, 76800, Note_on_c, 9, 36, 76
1, 76810, Note_on_c, 9, 42, 0
1, 77040, Note_on_c, 9, 56, 58
1, 77040, Note_on_c, 9, 42, 56
1, 77044, Note_on_c, 9, 42, 0
1, 77159, Note_on_c, 9, 56, 0
1, 77160, Note_on_c, 9, 62, 60
1, 77279, Note_on_c, 9, 36, 0
1, 77279, Note_on_c, 9, 62, 0
1, 77280, Note_on_c, 9, 40, 64
1, 77280, Note_on_c, 9, 42, 56
1, 77280, Note_on_c, 9, 36, 76
1, 77284, Note_on_c, 9, 42, 0
1, 77399, Note_on_c, 9, 40, 0
1, 77400, Note_on_c, 9, 56, 62
1, 77519, Note_on_c, 9, 56, 0
1, 77520, Note_on_c, 9, 62, 64
1, 77520, Note_on_c, 9, 42, 56
1, 77530, Note_on_c, 9, 42, 0
1, 77759, Note_on_c, 9, 36, 0
1, 77759, Note_on_c, 9, 62, 0
1, 77760, Note_on_c, 9, 42, 56
1, 77760, Note_on_c, 9, 36, 76
1, 77764, Note_on_c, 9, 42, 0
1, 77880, Note_on_c, 9, 62, 64
1, 77999, Note_on_c, 9, 62, 0
1, 78000, Note_on_c, 9, 42, 56
1, 78004, Note_on_c, 9, 42, 0
1, 78120, Note_on_c, 9, 46, 50
1, 78124, Note_on_c, 9, 46, 0
1, 78239, Note_on_c, 9, 36, 0
1, 78240, Note_on_c, 9, 64, 36
1, 78240, Note_on_c, 9, 40, 64
1, 78240, Note_on_c, 9, 39, 81
1, 78240, Note_on_c, 9, 42, 56
1, 78240, Note_on_c, 9, 36, 76
1, 78250, Note_on_c, 9, 64, 0
1, 78250, Note_on_c, 9, 42, 0
1, 78479, Note_on_c, 9, 40, 0
1, 78479, Note_on_c, 9, 39, 0
1, 78480, Note_on_c, 9, 42, 56
1, 78490, Note_on_c, 9, 42, 0
1, 78719, Note_on_c, 9, 36, 0
1, 78720, Note_on_c, 9, 42, 56
1, 78720, Note_on_c, 9, 36, 76
1, 78730, Note_on_c, 9, 42, 0
1, 78960, Note_on_c, 9, 56, 56
1, 78960, Note_on_c, 9, 42, 56
1, 78964, Note_on_c, 9, 42, 0
1, 79079, Note_on_c, 9, 56, 0
1, 79080, Note_on_c, 9, 62, 66
1, 79199, Note_on_c, 9, 36, 0
1, 79199, Note_on_c, 9, 62, 0
1, 79200, Note_on_c, 9, 40, 64
1, 79200, Note_on_c, 9, 42, 56
1, 79200, Note_on_c, 9, 36, 76
1, 79204, Note_on_c, 9, 42, 0
1, 79319, Note_on_c, 9, 40, 0
1, 79320, Note_on_c, 9, 56, 56
1, 79439, Note_on_c, 9, 56, 0
1, 79440, Note_on_c, 9, 62, 62
1, 79440, Note_on_c, 9, 42, 56
1, 79450, Note_on_c, 9, 42, 0
1, 79679, Note_on_c, 9, 36, 0
1, 79679, Note_on_c, 9, 62, 0
1, 79680, Note_on_c, 9, 62, 62
1, 79680, Note_on_c, 9, 42, 56
1, 79680, Note_on_c, 9, 36, 76
1, 79684, Note_on_c, 9, 42, 0
1, 79799, Note_on_c, 9, 62, 0
1, 79800, Note_on_c, 9, 62, 54
1, 79919, Note_on_c, 9, 62, 0
1, 79920, Note_on_c, 9, 42, 56
1, 79924, Note_on_c, 9, 42, 0
1, 80040, Note_on_c, 9, 64, 52
1, 80040, Note_on_c, 9, 46, 28
1, 80044, Note_on_c, 9, 64, 0
1, 80044, Note_on_c, 9, 46, 0
1, 80159, Note_on_c, 9, 36, 0
1, 80160, Note_on_c, 9, 40, 64
1, 80160, Note_on_c, 9, 39, 81
1, 80160, Note_on_c, 9, 42, 56
1, 80160, Note_on_c, 9, 36, 76
1, 80170, Note_on_c, 9, 42, 0
1, 80399, Note_on_c, 9, 40, 0
1, 80399, Note_on_c, 9, 39, 0
1, 80400, Note_on_c, 9, 42, 56
1, 80404, Note_on_c, 9, 42, 0
1, 80520, Note_on_c, 9, 46, 64
1, 80524, Note_on_c, 9, 46, 0
1, 80639, Note_on_c, 9, 36, 0
1, 80640, Note_on_c, 9, 42, 56
1, 80640, Note_on_c, 9, 36, 76
1, 80650, Note_on_c, 9, 42, 0
1, 80880, Note_on_c, 9, 56, 60
1, 80880, Note_on_c, 9, 42, 56
1, 80884, Note_on_c, 9, 42, 0
1, 80999, Note_on_c, 9, 56, 0
1, 81000, Note_on_c, 9, 62, 58
1, 81119, Note_on_c, 9, 36, 0
1, 81119, Note_on_c, 9, 62, 0
1, 81120, Note_on_c, 9, 40, 64
1, 81120, Note_on_c, 9, 42, 56
1, 81120, Note_on_c, 9, 36, 76
1, 81124, Note_on_c, 9, 42, 0
1, 81239, Note_on_c, 9, 40, 0
1, 81240, Note_on_c, 9, 56, 58
1, 81359, Note_on_c, 9, 56, 0
1, 81360, Note_on_c, 9, 62, 56
1, 81360, Note_on_c, 9, 42, 56
1, 81370, Note_on_c, 9, 42, 0
1, 81599, Note_on_c, 9, 36, 0
1, 81599, Note_on_c, 9, 62, 0
1, 81600, Note_on_c, 9, 62, 54
1, 81600, Note_on_c, 9, 42, 56
1, 81600, Note_on_c, 9, 36, 76
1, 81604, Note_on_c, 9, 42, 0
1, 81719, Note_on_c, 9, 62, 0
1, 81720, Note_on_c, 9, 62, 54
1, 81839, Note_on_c, 9, 62, 0
1, 81840, Note_on_c, 9, 42, 56
1, 81844, Note_on_c, 9, 42, 0
1, 81960, Note_on_c, 9, 64, 54
1, 81960, Note_on_c, 9, 46, 27
1, 81964, Note_on_c, 9, 64, 0
1, 81964, Note_on_c, 9, 46, 0
1, 82079, Note_on_c, 9, 36, 0
1, 82080, Note_on_c, 9, 40, 64
1, 82080, Note_on_c, 9, 39, 81
1, 82080, Note_on_c, 9, 42, 56
1, 82080, Note_on_c, 9, 36, 76
1, 82090, Note_on_c, 9, 42, 0
1, 82319, Note_on_c, 9, 40, 0
1, 82319, Note_on_c, 9, 39, 0
1, 82320, Note_on_c, 9, 42, 56
1, 82330, Note_on_c, 9, 42, 0
1, 82559, Note_on_c, 9, 36, 0
1, 82560, Note_on_c, 9, 42, 56
1, 82560, Note_on_c, 9, 36, 76
1, 82570, Note_on_c, 9, 42, 0
1, 82800, Note_on_c, 9, 56, 56
1, 82800, Note_on_c, 9, 42, 56
1, 82804, Note_on_c, 9, 42, 0
1, 82919, Note_on_c, 9, 56, 0
1, 82920, Note_on_c, 9, 62, 58
1, 83039, Note_on_c, 9, 36, 0
1, 83039, Note_on_c, 9, 62, 0
1, 83040, Note_on_c, 9, 40, 64
1, 83040, Note_on_c, 9, 42, 56
1, 83040, Note_on_c, 9, 36, 76
1, 83044, Note_on_c, 9, 42, 0
1, 83159, Note_on_c, 9, 40, 0
1, 83160, Note_on_c, 9, 56, 58
1, 83279, Note_on_c, 9, 56, 0
1, 83280, Note_on_c, 9, 62, 52
1, 83280, Note_on_c, 9, 42, 56
1, 83290, Note_on_c, 9, 42, 0
1, 83519, Note_on_c, 9, 36, 0
1, 83519, Note_on_c, 9, 62, 0
1, 83520, Note_on_c, 9, 42, 56
1, 83520, Note_on_c, 9, 36, 76
1, 83524, Note_on_c, 9, 42, 0
1, 83640, Note_on_c, 9, 62, 54
1, 83759, Note_on_c, 9, 62, 0
1, 83760, Note_on_c, 9, 42, 56
1, 83764, Note_on_c, 9, 42, 0
1, 83880, Note_on_c, 9, 64, 56
1, 83880, Note_on_c, 9, 46, 28
1, 83884, Note_on_c, 9, 64, 0
1, 83884, Note_on_c, 9, 46, 0
1, 83999, Note_on_c, 9, 36, 0
1, 84000, Note_on_c, 9, 40, 64
1, 84000, Note_on_c, 9, 39, 81
1, 84000, Note_on_c, 9, 42, 56
1, 84000, Note_on_c, 9, 36, 76
1, 84010, Note_on_c, 9, 42, 0
1, 84239, Note_on_c, 9, 40, 0
1, 84239, Note_on_c, 9, 39, 0
1, 84240, Note_on_c, 9, 42, 56
1, 84244, Note_on_c, 9, 42, 0
1, 84360, Note_on_c, 9, 46, 37
1, 84364, Note_on_c, 9, 46, 0
1, 84479, Note_on_c, 9, 36, 0
1, 84480, Note_on_c, 9, 42, 68
1, 84480, Note_on_c, 9, 36, 76
1, 84490, Note_on_c, 9, 42, 0
1, 84720, Note_on_c, 9, 56, 58
1, 84720, Note_on_c, 9, 42, 56
1, 84724, Note_on_c, 9, 42, 0
1, 84839, Note_on_c, 9, 56, 0
1, 84840, Note_on_c, 9, 62, 60
1, 84959, Note_on_c, 9, 36, 0
1, 84959, Note_on_c, 9, 62, 0
1, 84960, Note_on_c, 9, 40, 64
1, 84960, Note_on_c, 9, 42, 56
1, 84960, Note_on_c, 9, 36, 76
1, 84964, Note_on_c, 9, 42, 0
1, 85079, Note_on_c, 9, 40, 0
1, 85080, Note_on_c, 9, 56, 62
1, 85199, Note_on_c, 9, 56, 0
1, 85200, Note_on_c, 9, 62, 64
1, 85200, Note_on_c, 9, 42, 56
1, 85210, Note_on_c, 9, 42, 0
1, 85439, Note_on_c, 9, 36, 0
1, 85439, Note_on_c, 9, 62, 0
1, 85440, Note_on_c, 9, 42, 56
1, 85440, Note_on_c, 9, 36, 76
1, 85444, Note_on_c, 9, 42, 0
1, 85560, Note_on_c, 9, 62, 64
1, 85679, Note_on_c, 9, 62, 0
1, 85680, Note_on_c, 9, 42, 56
1, 85684, Note_on_c, 9, 42, 0
1, 85800, Note_on_c, 9, 46, 50
1, 85804, Note_on_c, 9, 46, 0
1, 85919, Note_on_c, 9, 36, 0
1, 85920, Note_on_c, 9, 64, 36
1, 85920, Note_on_c, 9, 40, 64
1, 85920, Note_on_c, 9, 39, 81
1, 85920, Note_on_c, 9, 42, 56
1, 85920, Note_on_c, 9, 36, 76
1, 85930, Note_on_c, 9, 64, 0
1, 85930, Note_on_c, 9, 42, 0
1, 86159, Note_on_c, 9, 40, 0
1, 86159, Note_on_c, 9, 39, 0
1, 86160, Note_on_c, 9, 42, 56
1, 86170, Note_on_c, 9, 42, 0
1, 86399, Note_on_c, 9, 36, 0
1, 86400, Note_on_c, 9, 42, 56
1, 86400, Note_on_c, 9, 36, 76
1, 86410, Note_on_c, 9, 42, 0
1, 86640, Note_on_c, 9, 56, 56
1, 86640, Note_on_c, 9, 42, 56
1, 86644, Note_on_c, 9, 42, 0
1, 86759, Note_on_c, 9, 56, 0
1, 86760, Note_on_c, 9, 62, 66
1, 86879, Note_on_c, 9, 36, 0
1, 86879, Note_on_c, 9, 62, 0
1, 86880, Note_on_c, 9, 40, 64
1, 86880, Note_on_c, 9, 42, 56
1, 86880, Note_on_c, 9, 36, 76
1, 86884, Note_on_c, 9, 42, 0
1, 86999, Note_on_c, 9, 40, 0
1, 87000, Note_on_c, 9, 56, 56
1, 87119, Note_on_c, 9, 56, 0
1, 87120, Note_on_c, 9, 62, 62
1, 87120, Note_on_c, 9, 42, 56
1, 87130, Note_on_c, 9, 42, 0
1, 87359, Note_on_c, 9, 36, 0
1, 87359, Note_on_c, 9, 62, 0
1, 87360, Note_on_c, 9, 62, 62
1, 87360, Note_on_c, 9, 42, 56
1, 87360, Note_on_c, 9, 36, 76
1, 87364, Note_on_c, 9, 42, 0
1, 87479, Note_on_c, 9, 62, 0
1, 87480, Note_on_c, 9, 62, 54
1, 87599, Note_on_c, 9, 62, 0
1, 87600, Note_on_c, 9, 42, 56
1, 87604, Note_on_c, 9, 42, 0
1, 87720, Note_on_c, 9, 64, 52
1, 87720, Note_on_c, 9, 46, 28
1, 87724, Note_on_c, 9, 64, 0
1, 87724, Note_on_c, 9, 46, 0
1, 87839, Note_on_c, 9, 36, 0
1, 87840, Note_on_c, 9, 40, 64
1, 87840, Note_on_c, 9, 39, 81
1, 87840, Note_on_c, 9, 42, 56
1, 87840, Note_on_c, 9, 36, 76
1, 87850, Note_on_c, 9, 42, 0
1, 88079, Note_on_c, 9, 40, 0
1, 88079, Note_on_c, 9, 39, 0
1, 88080, Note_on_c, 9, 42, 56
1, 88084, Note_on_c, 9, 42, 0
1, 88200, Note_on_c, 9, 46, 64
1, 88204, Note_on_c, 9, 46, 0
1, 88319, Note_on_c, 9, 36, 0
1, 88320, Note_on_c, 9, 42, 56
1, 88320, Note_on_c, 9, 36, 76
1, 88330, Note_on_c, 9, 42, 0
1, 88560, Note_on_c, 9, 56, 60
1, 88560, Note_on_c, 9, 42, 56
1, 88564, Note_on_c, 9, 42, 0
1, 88679, Note_on_c, 9, 56, 0
1, 88680, Note_on_c, 9, 62, 58
1, 88799, Note_on_c, 9, 36, 0
1, 88799, Note_on_c, 9, 62, 0
1, 88800, Note_on_c, 9, 40, 64
1, 88800, Note_on_c, 9, 42, 56
1, 88800, Note_on_c, 9, 36, 76
1, 88804, Note_on_c, 9, 42, 0
1, 88919, Note_on_c, 9, 40, 0
1, 88920, Note_on_c, 9, 56, 58
1, 89039, Note_on_c, 9, 56, 0
1, 89040, Note_on_c, 9, 62, 56
1, 89040, Note_on_c, 9, 42, 56
1, 89050, Note_on_c, 9, 42, 0
1, 89279, Note_on_c, 9, 36, 0
1, 89279, Note_on_c, 9, 62, 0
1, 89280, Note_on_c, 9, 62, 54
1, 89280, Note_on_c, 9, 42, 56
1, 89280, Note_on_c, 9, 36, 76
1, 89284, Note_on_c, 9, 42, 0
1, 89399, Note_on_c, 9, 62, 0
1, 89400, Note_on_c, 9, 62, 54
1, 89519, Note_on_c, 9, 62, 0
1, 89520, Note_on_c, 9, 42, 56
1, 89524, Note_on_c, 9, 42, 0
1, 89640, Note_on_c, 9, 64, 54
1, 89640, Note_on_c, 9, 46, 27
1, 89644, Note_on_c, 9, 64, 0
1, 89644, Note_on_c, 9, 46, 0
1, 89759, Note_on_c, 9, 36, 0
1, 89760, Note_on_c, 9, 40, 64
1, 89760, Note_on_c, 9, 39, 81
1, 89760, Note_on_c, 9, 42, 56
1, 89760, Note_on_c, 9, 36, 76
1, 89770, Note_on_c, 9, 42, 0
1, 89999, Note_on_c, 9, 40, 0
1, 89999, Note_on_c, 9, 39, 0
1, 90000, Note_on_c, 9, 42, 56
1, 90010, Note_on_c, 9, 42, 0
1, 90239, Note_on_c, 9, 36, 0
1, 90240, Note_on_c, 9, 42, 56
1, 90240, Note_on_c, 9, 36, 76
1, 90250, Note_on_c, 9, 42, 0
1, 90480, Note_on_c, 9, 56, 56
1, 90480, Note_on_c, 9, 42, 56
1, 90484, Note_on_c, 9, 42, 0
1, 90599, Note_on_c, 9, 56, 0
1, 90600, Note_on_c, 9, 62, 58
1, 90719, Note_on_c, 9, 36, 0
1, 90719, Note_on_c, 9, 62, 0
1, 90720, Note_on_c, 9, 40, 64
1, 90720, Note_on_c, 9, 42, 56
1, 90720, Note_on_c, 9, 36, 76
1, 90724, Note_on_c, 9, 42, 0
1, 90839, Note_on_c, 9, 40, 0
1, 90840, Note_on_c, 9, 56, 58
1, 90959, Note_on_c, 9, 56, 0
1, 90960, Note_on_c, 9, 62, 52
1, 90960, Note_on_c, 9, 42, 56
1, 90970, Note_on_c, 9, 42, 0
1, 91199, Note_on_c, 9, 36, 0
1, 91199, Note_on_c, 9, 62, 0
1, 91200, Note_on_c, 9, 42, 56
1, 91200, Note_on_c, 9, 36, 76
1, 91204, Note_on_c, 9, 42, 0
1, 91320, Note_on_c, 9, 62, 54
1, 91439, Note_on_c, 9, 62, 0
1, 91440, Note_on_c, 9, 42, 56
1, 91444, Note_on_c, 9, 42, 0
1, 91560, Note_on_c, 9, 64, 56
1, 91560, Note_on_c, 9, 46, 28
1, 91564, Note_on_c, 9, 64, 0
1, 91564, Note_on_c, 9, 46, 0
1, 91679, Note_on_c, 9, 36, 0
1, 91680, Note_on_c, 9, 40, 64
1, 91680, Note_on_c, 9, 39, 81
1, 91680, Note_on_c, 9, 42, 56
1, 91680, Note_on_c, 9, 36, 76
1, 91690, Note_on_c, 9, 42, 0
1, 91919, Note_on_c, 9, 40, 0
1, 91919, Note_on_c, 9, 39, 0
1, 91920, Note_on_c, 9, 42, 56
1, 91924, Note_on_c, 9, 42, 0
1, 92040, Note_on_c, 9, 46, 37
1, 92044, Note_on_c, 9, 46, 0
1, 92159, Note_on_c, 9, 36, 0
1, 92160, Note_on_c, 9, 42, 68
1, 92160, Note_on_c, 9, 36, 76
1, 92170, Note_on_c, 9, 42, 0
1, 92400, Note_on_c, 9, 56, 58
1, 92400, Note_on_c, 9, 42, 56
1, 92404, Note_on_c, 9, 42, 0
1, 92519, Note_on_c, 9, 56, 0
1, 92520, Note_on_c, 9, 62, 60
1, 92639, Note_on_c, 9, 36, 0
1, 92639, Note_on_c, 9, 62, 0
1, 92640, Note_on_c, 9, 40, 64
1, 92640, Note_on_c, 9, 42, 56
1, 92640, Note_on_c, 9, 36, 76
1, 92644, Note_on_c, 9, 42, 0
1, 92759, Note_on_c, 9, 40, 0
1, 92760, Note_on_c, 9, 56, 62
1, 92879, Note_on_c, 9, 56, 0
1, 92880, Note_on_c, 9, 62, 64
1, 92880, Note_on_c, 9, 42, 56
1, 92890, Note_on_c, 9, 42, 0
1, 93119, Note_on_c, 9, 36, 0
1, 93119, Note_on_c, 9, 62, 0
1, 93120, Note_on_c, 9, 42, 56
1, 93120, Note_on_c, 9, 36, 76
1, 93124, Note_on_c, 9, 42, 0
1, 93240, Note_on_c, 9, 62, 64
1, 93359, Note_on_c, 9, 62, 0
1, 93360, Note_on_c, 9, 42, 56
1, 93364, Note_on_c, 9, 42, 0
1, 93480, Note_on_c, 9, 46, 50
1, 93484, Note_on_c, 9, 46, 0
1, 93599, Note_on_c, 9, 36, 0
1, 93600, Note_on_c, 9, 64, 36
1, 93600, Note_on_c, 9, 40, 64
1, 93600, Note_on_c, 9, 39, 81
1, 93600, Note_on_c, 9, 42, 56
1, 93600, Note_on_c, 9, 36, 76
1, 93610, Note_on_c, 9, 64, 0
1, 93610, Note_on_c, 9, 42, 0
1, 93839, Note_on_c, 9, 40, 0
1, 93839, Note_on_c, 9, 39, 0
1, 93840, Note_on_c, 9, 42, 56
1, 93850, Note_on_c, 9, 42, 0
1, 94079, Note_on_c, 9, 36, 0
1, 94080, Note_on_c, 9, 42, 56
1, 94080, Note_on_c, 9, 36, 76
1, 94090, Note_on_c, 9, 42, 0
1, 94320, Note_on_c, 9, 56, 56
1, 94320, Note_on_c, 9, 42, 56
1, 94324, Note_on_c, 9, 42, 0
1, 94439, Note_on_c, 9, 56, 0
1, 94440, Note_on_c, 9, 62, 66
1, 94559, Note_on_c, 9, 36, 0
1, 94559, Note_on_c, 9, 62, 0
1, 94560, Note_on_c, 9, 40, 64
1, 94560, Note_on_c, 9, 42, 56
1, 94560, Note_on_c, 9, 36, 76
1, 94564, Note_on_c, 9, 42, 0
1, 94679, Note_on_c, 9, 40, 0
1, 94680, Note_on_c, 9, 56, 56
1, 94799, Note_on_c, 9, 56, 0
1, 94800, Note_on_c, 9, 62, 62
1, 94800, Note_on_c, 9, 42, 56
1, 94810, Note_on_c, 9, 42, 0
1, 95039, Note_on_c, 9, 36, 0
1, 95039, Note_on_c, 9, 62, 0
1, 95040, Note_on_c, 9, 62, 62
1, 95040, Note_on_c, 9, 42, 56
1, 95040, Note_on_c, 9, 36, 76
1, 95044, Note_on_c, 9, 42, 0
1, 95159, Note_on_c, 9, 62, 0
1, 95160, Note_on_c, 9, 62, 54
1, 95279, Note_on_c, 9, 62, 0
1, 95280, Note_on_c, 9, 42, 56
1, 95284, Note_on_c, 9, 42, 0
1, 95400, Note_on_c, 9, 64, 52
1, 95400, Note_on_c, 9, 46, 28
1, 95404, Note_on_c, 9, 64, 0
1, 95404, Note_on_c, 9, 46, 0
1, 95519, Note_on_c, 9, 36, 0
1, 95520, Note_on_c, 9, 41, 92
1, 95520, Note_on_c, 9, 40, 64
1, 95520, Note_on_c, 9, 39, 81
1, 95520, Note_on_c, 9, 42, 56
1, 95520, Note_on_c, 9, 35, 76
1, 95520, Note_on_c, 9, 36, 76
1, 95520, Note_on_c, 9, 43, 107
1, 95530, Note_on_c, 9, 42, 0
1, 95759, Note_on_c, 9, 41, 0
1, 95759, Note_on_c, 9, 40, 0
1, 95759, Note_on_c, 9, 39, 0
1, 95760, Note_on_c, 9, 42, 56
1, 95764, Note_on_c, 9, 42, 0
1, 95880, Note_on_c, 9, 46, 64
1, 95884, Note_on_c, 9, 46, 0
1, 95999, Note_on_c, 9, 35, 0
1, 95999, Note_on_c, 9, 36, 0
1, 95999, Note_on_c, 9, 43, 0
1, 96000, Note_on_c, 9, 42, 56
1, 96000, Note_on_c, 9, 36, 76
1, 96010, Note_on_c, 9, 42, 0
1, 96240, Note_on_c, 9, 56, 60
1, 96240, Note_on_c, 9, 42, 56
1, 96244, Note_on_c, 9, 42, 0
1, 96359, Note_on_c, 9, 56, 0
1, 96360, Note_on_c, 9, 62, 58
1, 96479, Note_on_c, 9, 36, 0
1, 96479, Note_on_c, 9, 62, 0
1, 96480, Note_on_c, 9, 40, 64
1, 96480, Note_on_c, 9, 42, 56
1, 96480, Note_on_c, 9, 36, 76
1, 96484, Note_on_c, 9, 42, 0
1, 96599, Note_on_c, 9, 40, 0
1, 96600, Note_on_c, 9, 56, 58
1, 96719, Note_on_c, 9, 56, 0
1, 96720, Note_on_c, 9, 62, 56
1, 96720, Note_on_c, 9, 42, 56
1, 96730, Note_on_c, 9, 42, 0
1, 96959, Note_on_c, 9, 36, 0
1, 96959, Note_on_c, 9, 62, 0
1, 96960, Note_on_c, 9, 62, 54
1, 96960, Note_on_c, 9, 42, 56
1, 96960, Note_on_c, 9, 36, 76
1, 96964, Note_on_c, 9, 42, 0
1, 97079, Note_on_c, 9, 62, 0
1, 97080, Note_on_c, 9, 62, 54
1, 97199, Note_on_c, 9, 62, 0
1, 97200, Note_on_c, 9, 42, 56
1, 97204, Note_on_c, 9, 42, 0
1, 97320, Note_on_c, 9, 64, 54
1, 97320, Note_on_c, 9, 46, 27
1, 97324, Note_on_c, 9, 64, 0
1, 97324, Note_on_c, 9, 46, 0
1, 97439, Note_on_c, 9, 36, 0
1, 97440, Note_on_c, 9, 40, 64
1, 97440, Note_on_c, 9, 39, 81
1, 97440, Note_on_c, 9, 42, 56
1, 97440, Note_on_c, 9, 36, 76
1, 97450, Note_on_c, 9, 42, 0
1, 97679, Note_on_c, 9, 40, 0
1, 97679, Note_on_c, 9, 39, 0
1, 97680, Note_on_c, 9, 42, 56
1, 97690, Note_on_c, 9, 42, 0
1, 97919, Note_on_c, 9, 36, 0
1, 97920, Note_on_c, 9, 42, 56
1, 97920, Note_on_c, 9, 36, 76
1, 97930, Note_on_c, 9, 42, 0
1, 98160, Note_on_c, 9, 56, 56
1, 98160, Note_on_c, 9, 42, 56
1, 98164, Note_on_c, 9, 42, 0
1, 98279, Note_on_c, 9, 56, 0
1, 98280, Note_on_c, 9, 62, 58
1, 98399, Note_on_c, 9, 36, 0
1, 98399, Note_on_c, 9, 62, 0
1, 98400, Note_on_c, 9, 40, 64
1, 98400, Note_on_c, 9, 42, 56
1, 98400, Note_on_c, 9, 36, 76
1, 98404, Note_on_c, 9, 42, 0
1, 98519, Note_on_c, 9, 40, 0
1, 98520, Note_on_c, 9, 56, 58
1, 98639, Note_on_c, 9, 56, 0
1, 98640, Note_on_c, 9, 62, 52
1, 98640, Note_on_c, 9, 42, 56
1, 98650, Note_on_c, 9, 42, 0
1, 98879, Note_on_c, 9, 36, 0
1, 98879, Note_on_c, 9, 62, 0
1, 98880, Note_on_c, 9, 42, 56
1, 98880, Note_on_c, 9, 36, 76
1, 98884, Note_on_c, 9, 42, 0
1, 99000, Note_on_c, 9, 62, 54
1, 99119, Note_on_c, 9, 62, 0
1, 99120, Note_on_c, 9, 42, 56
1, 99124, Note_on_c, 9, 42, 0
1, 99240, Note_on_c, 9, 64, 56
1, 99240, Note_on_c, 9, 46, 28
1, 99244, Note_on_c, 9, 64, 0
1, 99244, Note_on_c, 9, 46, 0
1, 99359, Note_on_c, 9, 36, 0
1, 99360, Note_on_c, 9, 40, 64
1, 99360, Note_on_c, 9, 39, 81
1, 99360, Note_on_c, 9, 42, 56
1, 99360, Note_on_c, 9, 36, 76
1, 99370, Note_on_c, 9, 42, 0
1, 99599, Note_on_c, 9, 40, 0
1, 99599, Note_on_c, 9, 39, 0
1, 99600, Note_on_c, 9, 42, 56
1, 99604, Note_on_c, 9, 42, 0
1, 99720, Note_on_c, 9, 46, 37
1, 99724, Note_on_c, 9, 46, 0
1, 99839, Note_on_c, 9, 36, 0
1, 99840, Note_on_c, 9, 42, 68
1, 99840, Note_on_c, 9, 36, 76
1, 99850, Note_on_c, 9, 42, 0
1, 100080, Note_on_c, 9, 56, 58
1, 100080, Note_on_c, 9, 42, 56
1, 100084, Note_on_c, 9, 42, 0
1, 100199, Note_on_c, 9, 56, 0
1, 100200, Note_on_c, 9, 62, 60
1, 100319, Note_on_c, 9, 36, 0
1, 100319, Note_on_c, 9, 62, 0
1, 100320, Note_on_c, 9, 40, 64
1, 100320, Note_on_c, 9, 42, 56
1, 100320, Note_on_c, 9, 36, 76
1, 100324, Note_on_c, 9, 42, 0
1, 100439, Note_on_c, 9, 40, 0
1, 100440, Note_on_c, 9, 56, 62
1, 100559, Note_on_c, 9, 56, 0
1, 100560, Note_on_c, 9, 62, 64
1, 100560, Note_on_c, 9, 42, 56
1, 100570, Note_on_c, 9, 42, 0
1, 100799, Note_on_c, 9, 36, 0
1, 100799, Note_on_c, 9, 62, 0
1, 100800, Note_on_c, 9, 42, 56
1, 100800, Note_on_c, 9, 36, 76
1, 100804, Note_on_c, 9, 42, 0
1, 100920, Note_on_c, 9, 62, 64
1, 101039, Note_on_c, 9, 62, 0
1, 101040, Note_on_c, 9, 42, 56
1, 101044, Note_on_c, 9, 42, 0
1, 101160, Note_on_c, 9, 46, 50
1, 101164, Note_on_c, 9, 46, 0
1, 101279, Note_on_c, 9, 36, 0
1, 101280, Note_on_c, 9, 64, 36
1, 101280, Note_on_c, 9, 40, 64
1, 101280, Note_on_c, 9, 39, 81
1, 101280, Note_on_c, 9, 42, 56
1, 101280, Note_on_c, 9, 36, 76
1, 101290, Note_on_c, 9, 64, 0
1, 101290, Note_on_c, 9, 42, 0
1, 101519, Note_on_c, 9, 40, 0
1, 101519, Note_on_c, 9, 39, 0
1, 101520, Note_on_c, 9, 42, 56
1, 101530, Note_on_c, 9, 42, 0
1, 101759, Note_on_c, 9, 36, 0
1, 101760, Note_on_c, 9, 42, 56
1, 101760, Note_on_c, 9, 36, 76
1, 101770, Note_on_c, 9, 42, 0
1, 102000, Note_on_c, 9, 56, 56
1, 102000, Note_on_c, 9, 42, 56
1, 102004, Note_on_c, 9, 42, 0
1, 102119, Note_on_c, 9, 56, 0
1, 102120, Note_on_c, 9, 62, 66
1, 102239, Note_on_c, 9, 36, 0
1, 102239, Note_on_c, 9, 62, 0
1, 102240, Note_on_c, 9, 40, 64
1, 102240, Note_on_c, 9, 42, 56
1, 102240, Note_on_c, 9, 36, 76
1, 102244, Note_on_c, 9, 42, 0
1, 102359, Note_on_c, 9, 40, 0
1, 102360, Note_on_c, 9, 56, 56
1, 102479, Note_on_c, 9, 56, 0
1, 102480, Note_on_c, 9, 62, 62
1, 102480, Note_on_c, 9, 42, 56
1, 102490, Note_on_c, 9, 42, 0
1, 102719, Note_on_c, 9, 36, 0
1, 102719, Note_on_c, 9, 62, 0
1, 102720, Note_on_c, 9, 62, 62
1, 102720, Note_on_c, 9, 42, 56
1, 102720, Note_on_c, 9, 36, 76
1, 102724, Note_on_c, 9, 42, 0
1, 102839, Note_on_c, 9, 62, 0
1, 102840, Note_on_c, 9, 62, 54
1, 102959, Note_on_c, 9, 62, 0
1, 102960, Note_on_c, 9, 42, 56
1, 102964, Note_on_c, 9, 42, 0
1, 103080, Note_on_c, 9, 64, 52
1, 103080, Note_on_c, 9, 46, 28
1, 103084, Note_on_c, 9, 64, 0
1, 103084, Note_on_c, 9, 46, 0
1, 103199, Note_on_c, 9, 36, 0
1, 103200, Note_on_c, 9, 40, 64
1, 103200, Note_on_c, 9, 39, 81
1, 103200, Note_on_c, 9, 42, 56
1, 103200, Note_on_c, 9, 36, 76
1, 103210, Note_on_c, 9, 42, 0
1, 103439, Note_on_c, 9, 40, 0
1, 103439, Note_on_c, 9, 39, 0
1, 103440, Note_on_c, 9, 42, 56
1, 103444, Note_on_c, 9, 42, 0
1, 103560, Note_on_c, 9, 46, 64
1, 103564, Note_on_c, 9, 46, 0
1, 103679, Note_on_c, 9, 36, 0
1, 103680, Note_on_c, 9, 42, 56
1, 103680, Note_on_c, 9, 36, 76
1, 103690, Note_on_c, 9, 42, 0
1, 103920, Note_on_c, 9, 56, 60
1, 103920, Note_on_c, 9, 42, 56
1, 103924, Note_on_c, 9, 42, 0
1, 104039, Note_on_c, 9, 56, 0
1, 104040, Note_on_c, 9, 62, 58
1, 104159, Note_on_c, 9, 36, 0
1, 104159, Note_on_c, 9, 62, 0
1, 104160, Note_on_c, 9, 40, 64
1, 104160, Note_on_c, 9, 42, 56
1, 104160, Note_on_c, 9, 36, 76
1, 104164, Note_on_c, 9, 42, 0
1, 104279, Note_on_c, 9, 40, 0
1, 104280, Note_on_c, 9, 56, 58
1, 104399, Note_on_c, 9, 56, 0
1, 104400, Note_on_c, 9, 62, 56
1, 104400, Note_on_c, 9, 42, 56
1, 104410, Note_on_c, 9, 42, 0
1, 104639, Note_on_c, 9, 36, 0
1, 104639, Note_on_c, 9, 62, 0
1, 104640, Note_on_c, 9, 62, 54
1, 104640, Note_on_c, 9, 42, 56
1, 104640, Note_on_c, 9, 36, 76
1, 104644, Note_on_c, 9, 42, 0
1, 104759, Note_on_c, 9, 62, 0
1, 104760, Note_on_c, 9, 62, 54
1, 104879, Note_on_c, 9, 62, 0
1, 104880, Note_on_c, 9, 42, 56
1, 104884, Note_on_c, 9, 42, 0
1, 105000, Note_on_c, 9, 64, 54
1, 105000, Note_on_c, 9, 46, 27
1, 105004, Note_on_c, 9, 64, 0
1, 105004, Note_on_c, 9, 46, 0
1, 105119, Note_on_c, 9, 36, 0
1, 105120, Note_on_c, 9, 40, 64
1, 105120, Note_on_c, 9, 39, 81
1, 105120, Note_on_c, 9, 42, 56
1, 105120, Note_on_c, 9, 36, 76
1, 105130, Note_on_c, 9, 42, 0
1, 105359, Note_on_c, 9, 40, 0
1, 105359, Note_on_c, 9, 39, 0
1, 105360, Note_on_c, 9, 42, 56
1, 105370, Note_on_c, 9, 42, 0
1, 105599, Note_on_c, 9, 36, 0
1, 105600, Note_on_c, 9, 42, 56
1, 105600, Note_on_c, 9, 36, 76
1, 105610, Note_on_c, 9, 42, 0
1, 105840, Note_on_c, 9, 56, 56
1, 105840, Note_on_c, 9, 42, 56
1, 105844, Note_on_c, 9, 42, 0
1, 105959, Note_on_c, 9, 56, 0
1, 105960, Note_on_c, 9, 62, 58
1, 106079, Note_on_c, 9, 36, 0
1, 106079, Note_on_c, 9, 62, 0
1, 106080, Note_on_c, 9, 40, 64
1, 106080, Note_on_c, 9, 42, 56
1, 106080, Note_on_c, 9, 36, 76
1, 106084, Note_on_c, 9, 42, 0
1, 106199, Note_on_c, 9, 40, 0
1, 106200, Note_on_c, 9, 56, 58
1, 106319, Note_on_c, 9, 56, 0
1, 106320, Note_on_c, 9, 62, 52
1, 106320, Note_on_c, 9, 42, 56
1, 106330, Note_on_c, 9, 42, 0
1, 106559, Note_on_c, 9, 36, 0
1, 106559, Note_on_c, 9, 62, 0
1, 106560, Note_on_c, 9, 42, 56
1, 106560, Note_on_c, 9, 36, 76
1, 106564, Note_on_c, 9, 42, 0
1, 106680, Note_on_c, 9, 62, 54
1, 106799, Note_on_c, 9, 62, 0
1, 106800, Note_on_c, 9, 42, 56
1, 106804, Note_on_c, 9, 42, 0
1, 106920, Note_on_c, 9, 64, 56
1, 106920, Note_on_c, 9, 46, 28
1, 106924, Note_on_c, 9, 64, 0
1, 106924, Note_on_c, 9, 46, 0
1, 107039, Note_on_c, 9, 36, 0
1, 107040, Note_on_c, 9, 40, 64
1, 107040, Note_on_c, 9, 39, 81
1, 107040, Note_on_c, 9, 42, 56
1, 107040, Note_on_c, 9, 36, 76
1, 107050, Note_on_c, 9, 42, 0
1, 107279, Note_on_c, 9, 40, 0
1, 107279, Note_on_c, 9, 39, 0
1, 107280, Note_on_c, 9, 42, 56
1, 107284, Note_on_c, 9, 42, 0
1, 107400, Note_on_c, 9, 46, 37
1, 107404, Note_on_c, 9, 46, 0
1, 107519, Note_on_c, 9, 36, 0
1, 107520, Note_on_c, 9, 42, 68
1, 107520, Note_on_c, 9, 36, 76
1, 107530, Note_on_c, 9, 42, 0
1, 107760, Note_on_c, 9, 56, 58
1, 107760, Note_on_c, 9, 42, 56
1, 107764, Note_on_c, 9, 42, 0
1, 107879, Note_on_c, 9, 56, 0
1, 107880, Note_on_c, 9, 62, 60
1, 107999, Note_on_c, 9, 36, 0
1, 107999, Note_on_c, 9, 62, 0
1, 108000, Note_on_c, 9, 40, 64
1, 108000, Note_on_c, 9, 42, 56
1, 108000, Note_on_c, 9, 36, 76
1, 108004, Note_on_c, 9, 42, 0
1, 108119, Note_on_c, 9, 40, 0
1, 108120, Note_on_c, 9, 56, 62
1, 108239, Note_on_c, 9, 56, 0
1, 108240, Note_on_c, 9, 62, 64
1, 108240, Note_on_c, 9, 42, 56
1, 108250, Note_on_c, 9, 42, 0
1, 108479, Note_on_c, 9, 36, 0
1, 108479, Note_on_c, 9, 62, 0
1, 108480, Note_on_c, 9, 42, 56
1, 108480, Note_on_c, 9, 36, 76
1, 108484, Note_on_c, 9, 42, 0
1, 108600, Note_on_c, 9, 62, 64
1, 108719, Note_on_c, 9, 62, 0
1, 108720, Note_on_c, 9, 42, 56
1, 108724, Note_on_c, 9, 42, 0
1, 108840, Note_on_c, 9, 46, 50
1, 108844, Note_on_c, 9, 46, 0
1, 108959, Note_on_c, 9, 36, 0
1, 108960, Note_on_c, 9, 64, 36
1, 108960, Note_on_c, 9, 40, 64
1, 108960, Note_on_c, 9, 39, 81
1, 108960, Note_on_c, 9, 42, 56
1, 108960, Note_on_c, 9, 36, 76
1, 108970, Note_on_c, 9, 64, 0
1, 108970, Note_on_c, 9, 42, 0
1, 109199, Note_on_c, 9, 40, 0
1, 109199, Note_on_c, 9, 39, 0
1, 109200, Note_on_c, 9, 42, 56
1, 109210, Note_on_c, 9, 42, 0
1, 109439, Note_on_c, 9, 36, 0
1, 109440, Note_on_c, 9, 42, 56
1, 109440, Note_on_c, 9, 36, 76
1, 109450, Note_on_c, 9, 42, 0
1, 109680, Note_on_c, 9, 56, 56
1, 109680, Note_on_c, 9, 42, 56
1, 109684, Note_on_c, 9, 42, 0
1, 109799, Note_on_c, 9, 56, 0
1, 109800, Note_on_c, 9, 62, 66
1, 109919, Note_on_c, 9, 36, 0
1, 109919, Note_on_c, 9, 62, 0
1, 109920, Note_on_c, 9, 40, 64
1, 109920, Note_on_c, 9, 42, 56
1, 109920, Note_on_c, 9, 36, 76
1, 109924, Note_on_c, 9, 42, 0
1, 110039, Note_on_c, 9, 40, 0
1, 110040, Note_on_c, 9, 56, 56
1, 110159, Note_on_c, 9, 56, 0
1, 110160, Note_on_c, 9, 62, 62
1, 110160, Note_on_c, 9, 42, 56
1, 110170, Note_on_c, 9, 42, 0
1, 110399, Note_on_c, 9, 36, 0
1, 110399, Note_on_c, 9, 62, 0
1, 110400, Note_on_c, 9, 62, 62
1, 110400, Note_on_c, 9, 42, 56
1, 110400, Note_on_c, 9, 36, 76
1, 110404, Note_on_c, 9, 42, 0
1, 110519, Note_on_c, 9, 62, 0
1, 110520, Note_on_c, 9, 62, 54
1, 110639, Note_on_c, 9, 62, 0
1, 110640, Note_on_c, 9, 42, 56
1, 110644, Note_on_c, 9, 42, 0
1, 110760, Note_on_c, 9, 64, 52
1, 110760, Note_on_c, 9, 46, 28
1, 110764, Note_on_c, 9, 64, 0
1, 110764, Note_on_c, 9, 46, 0
1, 110879, Note_on_c, 9, 36, 0
1, 110880, Note_on_c, 9, 40, 64
1, 110880, Note_on_c, 9, 39, 81
1, 110880, Note_on_c, 9, 42, 56
1, 110880, Note_on_c, 9, 36, 76
1, 110890, Note_on_c, 9, 42, 0
1, 111119, Note_on_c, 9, 40, 0
1, 111119, Note_on_c, 9, 39, 0
1, 111120, Note_on_c, 9, 42, 56
1, 111124, Note_on_c, 9, 42, 0
1, 111240, Note_on_c, 9, 46, 64
1, 111244, Note_on_c, 9, 46, 0
1, 111359, Note_on_c, 9, 36, 0
1, 111360, Note_on_c, 9, 42, 56
1, 111360, Note_on_c, 9, 36, 76
1, 111370, Note_on_c, 9, 42, 0
1, 111600, Note_on_c, 9, 56, 60
1, 111600, Note_on_c, 9, 42, 56
1, 111604, Note_on_c, 9, 42, 0
1, 111719, Note_on_c, 9, 56, 0
1, 111720, Note_on_c, 9, 62, 58
1, 111839, Note_on_c, 9, 36, 0
1, 111839, Note_on_c, 9, 62, 0
1, 111840, Note_on_c, 9, 40, 64
1, 111840, Note_on_c, 9, 42, 56
1, 111840, Note_on_c, 9, 36, 76
1, 111844, Note_on_c, 9, 42, 0
1, 111959, Note_on_c, 9, 40, 0
1, 111960, Note_on_c, 9, 56, 58
1, 112079, Note_on_c, 9, 56, 0
1, 112080, Note_on_c, 9, 62, 56
1, 112080, Note_on_c, 9, 42, 56
1, 112090, Note_on_c, 9, 42, 0
1, 112319, Note_on_c, 9, 36, 0
1, 112319, Note_on_c, 9, 62, 0
1, 112320, Note_on_c, 9, 62, 54
1, 112320, Note_on_c, 9, 42, 56
1, 112320, Note_on_c, 9, 36, 76
1, 112324, Note_on_c, 9, 42, 0
1, 112439, Note_on_c, 9, 62, 0
1, 112440, Note_on_c, 9, 62, 54
1, 112559, Note_on_c, 9, 62, 0
1, 112560, Note_on_c, 9, 42, 56
1, 112564, Note_on_c, 9, 42, 0
1, 112680, Note_on_c, 9, 64, 54
1, 112680, Note_on_c, 9, 46, 27
1, 112684, Note_on_c, 9, 64, 0
1, 112684, Note_on_c, 9, 46, 0
1, 112799, Note_on_c, 9, 36, 0
1, 112800, Note_on_c, 9, 40, 64
1, 112800, Note_on_c, 9, 39, 81
1, 112800, Note_on_c, 9, 42, 56
1, 112800, Note_on_c, 9, 36, 76
1, 112810, Note_on_c, 9, 42, 0
1, 113039, Note_on_c, 9, 40, 0
1, 113039, Note_on_c, 9, 39, 0
1, 113040, Note_on_c, 9, 42, 56
1, 113050, Note_on_c, 9, 42, 0
1, 113279, Note_on_c, 9, 36, 0
1, 113280, Note_on_c, 9, 42, 56
1, 113280, Note_on_c, 9, 36, 76
1, 113290, Note_on_c, 9, 42, 0
1, 113520, Note_on_c, 9, 56, 56
1, 113520, Note_on_c, 9, 42, 56
1, 113524, Note_on_c, 9, 42, 0
1, 113639, Note_on_c, 9, 56, 0
1, 113640, Note_on_c, 9, 62, 58
1, 113759, Note_on_c, 9, 36, 0
1, 113759, Note_on_c, 9, 62, 0
1, 113760, Note_on_c, 9, 40, 64
1, 113760, Note_on_c, 9, 42, 56
1, 113760, Note_on_c, 9, 36, 76
1, 113764, Note_on_c, 9, 42, 0
1, 113879, Note_on_c, 9, 40, 0
1, 113880, Note_on_c, 9, 56, 58
1, 113999, Note_on_c, 9, 56, 0
1, 114000, Note_on_c, 9, 62, 52
1, 114000, Note_on_c, 9, 42, 56
1, 114010, Note_on_c, 9, 42, 0
1, 114239, Note_on_c, 9, 36, 0
1, 114239, Note_on_c, 9, 62, 0
1, 114240, Note_on_c, 9, 42, 56
1, 114240, Note_on_c, 9, 36, 76
1, 114244, Note_on_c, 9, 42, 0
1, 114360, Note_on_c, 9, 62, 54
1, 114479, Note_on_c, 9, 62, 0
1, 114480, Note_on_c, 9, 42, 56
1, 114484, Note_on_c, 9, 42, 0
1, 114600, Note_on_c, 9, 64, 56
1, 114600, Note_on_c, 9, 46, 28
1, 114604, Note_on_c, 9, 64, 0
1, 114604, Note_on_c, 9, 46, 0
1, 114719, Note_on_c, 9, 36, 0
1, 114720, Note_on_c, 9, 40, 64
1, 114720, Note_on_c, 9, 39, 81
1, 114720, Note_on_c, 9, 42, 56
1, 114720, Note_on_c, 9, 36, 76
1, 114730, Note_on_c, 9, 42, 0
1, 114959, Note_on_c, 9, 40, 0
1, 114959, Note_on_c, 9, 39, 0
1, 114960, Note_on_c, 9, 42, 56
1, 114964, Note_on_c, 9, 42, 0
1, 115080, Note_on_c, 9, 46, 37
1, 115084, Note_on_c, 9, 46, 0
1, 115199, Note_on_c, 9, 36, 0
1, 115200, Note_on_c, 9, 42, 68
1, 115200, Note_on_c, 9, 36, 76
1, 115210, Note_on_c, 9, 42, 0
1, 115440, Note_on_c, 9, 56, 58
1, 115440, Note_on_c, 9, 42, 56
1, 115444, Note_on_c, 9, 42, 0
1, 115559, Note_on_c, 9, 56, 0
1, 115560, Note_on_c, 9, 62, 60
1, 115679, Note_on_c, 9, 36, 0
1, 115679, Note_on_c, 9, 62, 0
1, 115680, Note_on_c, 9, 40, 64
1, 115680, Note_on_c, 9, 42, 56
1, 115680, Note_on_c, 9, 36, 76
1, 115684, Note_on_c, 9, 42, 0
1, 115799, Note_on_c, 9, 40, 0
1, 115800, Note_on_c, 9, 56, 62
1, 115919, Note_on_c, 9, 56, 0
1, 115920, Note_on_c, 9, 62, 64
1, 115920, Note_on_c, 9, 42, 56
1, 115930, Note_on_c, 9, 42, 0
1, 116159, Note_on_c, 9, 36, 0
1, 116159, Note_on_c, 9, 62, 0
1, 116160, Note_on_c, 9, 42, 56
1, 116160, Note_on_c, 9, 36, 76
1, 116164, Note_on_c, 9, 42, 0
1, 116280, Note_on_c, 9, 62, 64
1, 116399, Note_on_c, 9, 62, 0
1, 116400, Note_on_c, 9, 42, 56
1, 116404, Note_on_c, 9, 42, 0
1, 116520, Note_on_c, 9, 46, 50
1, 116524, Note_on_c, 9, 46, 0
1, 116639, Note_on_c, 9, 36, 0
1, 116640, Note_on_c, 9, 64, 36
1, 116640, Note_on_c, 9, 40, 64
1, 116640, Note_on_c, 9, 39, 81
1, 116640, Note_on_c, 9, 42, 56
1, 116640, Note_on_c, 9, 36, 76
1, 116650, Note_on_c, 9, 64, 0
1, 116650, Note_on_c, 9, 42, 0
1, 116879, Note_on_c, 9, 40, 0
1, 116879, Note_on_c, 9, 39, 0
1, 116880, Note_on_c, 9, 42, 56
1, 116890, Note_on_c, 9, 42, 0
1, 117119, Note_on_c, 9, 36, 0
1, 117120, Note_on_c, 9, 42, 56
1, 117120, Note_on_c, 9, 36, 76
1, 117130, Note_on_c, 9, 42, 0
1, 117360, Note_on_c, 9, 56, 56
1, 117360, Note_on_c, 9, 42, 56
1, 117364, Note_on_c, 9, 42, 0
1, 117479, Note_on_c, 9, 56, 0
1, 117480, Note_on_c, 9, 62, 66
1, 117599, Note_on_c, 9, 36, 0
1, 117599, Note_on_c, 9, 62, 0
1, 117600, Note_on_c, 9, 40, 64
1, 117600, Note_on_c, 9, 42, 56
1, 117600, Note_on_c, 9, 36, 76
1, 117604, Note_on_c, 9, 42, 0
1, 117719, Note_on_c, 9, 40, 0
1, 117720, Note_on_c, 9, 56, 56
1, 117839, Note_on_c, 9, 56, 0
1, 117840, Note_on_c, 9, 62, 62
1, 117840, Note_on_c, 9, 42, 56
1, 117850, Note_on_c, 9, 42, 0
1, 118079, Note_on_c, 9, 36, 0
1, 118079, Note_on_c, 9, 62, 0
1, 118080, Note_on_c, 9, 62, 62
1, 118080, Note_on_c, 9, 42, 56
1, 118080, Note_on_c, 9, 36, 76
1, 118084, Note_on_c, 9, 42, 0
1, 118199, Note_on_c, 9, 62, 0
1, 118200, Note_on_c, 9, 62, 54
1, 118319, Note_on_c, 9, 62, 0
1, 118320, Note_on_c, 9, 42, 56
1, 118324, Note_on_c, 9, 42, 0
1, 118440, Note_on_c, 9, 64, 52
1, 118440, Note_on_c, 9, 46, 28
1, 118444, Note_on_c, 9, 64, 0
1, 118444, Note_on_c, 9, 46, 0
1, 118559, Note_on_c, 9, 36, 0
1, 118560, Note_on_c, 9, 40, 64
1, 118560, Note_on_c, 9, 39, 81
1, 118560, Note_on_c, 9, 42, 56
1, 118560, Note_on_c, 9, 36, 76
1, 118570, Note_on_c, 9, 42, 0
1, 118799, Note_on_c, 9, 40, 0
1, 118799, Note_on_c, 9, 39, 0
1, 118800, Note_on_c, 9, 42, 56
1, 118804, Note_on_c, 9, 42, 0
1, 118920, Note_on_c, 9, 46, 64
1, 118924, Note_on_c, 9, 46, 0
1, 119039, Note_on_c, 9, 36, 0
1, 119040, Note_on_c, 9, 42, 56
1, 119040, Note_on_c, 9, 36, 76
1, 119050, Note_on_c, 9, 42, 0
1, 119280, Note_on_c, 9, 56, 60
1, 119280, Note_on_c, 9, 42, 56
1, 119284, Note_on_c, 9, 42, 0
1, 119399, Note_on_c, 9, 56, 0
1, 119400, Note_on_c, 9, 62, 58
1, 119519, Note_on_c, 9, 36, 0
1, 119519, Note_on_c, 9, 62, 0
1, 119520, Note_on_c, 9, 40, 64
1, 119520, Note_on_c, 9, 42, 56
1, 119520, Note_on_c, 9, 36, 76
1, 119524, Note_on_c, 9, 42, 0
1, 119639, Note_on_c, 9, 40, 0
1, 119640, Note_on_c, 9, 56, 58
1, 119759, Note_on_c, 9, 56, 0
1, 119760, Note_on_c, 9, 62, 56
1, 119760, Note_on_c, 9, 42, 56
1, 119770, Note_on_c, 9, 42, 0
1, 119999, Note_on_c, 9, 36, 0
1, 119999, Note_on_c, 9, 62, 0
1, 120000, Note_on_c, 9, 62, 54
1, 120000, Note_on_c, 9, 42, 56
1, 120000, Note_on_c, 9, 36, 76
1, 120004, Note_on_c, 9, 42, 0
1, 120119, Note_on_c, 9, 62, 0
1, 120120, Note_on_c, 9, 62, 54
1, 120239, Note_on_c, 9, 62, 0
1, 120240, Note_on_c, 9, 42, 56
1, 120244, Note_on_c, 9, 42, 0
1, 120360, Note_on_c, 9, 64, 54
1, 120360, Note_on_c, 9, 46, 27
1, 120364, Note_on_c, 9, 64, 0
1, 120364, Note_on_c, 9, 46, 0
1, 120479, Note_on_c, 9, 36, 0
1, 120480, Note_on_c, 9, 40, 64
1, 120480, Note_on_c, 9, 39, 81
1, 120480, Note_on_c, 9, 42, 56
1, 120480, Note_on_c, 9, 36, 76
1, 120490, Note_on_c, 9, 42, 0
1, 120719, Note_on_c, 9, 40, 0
1, 120719, Note_on_c, 9, 39, 0
1, 120720, Note_on_c, 9, 42, 56
1, 120730, Note_on_c, 9, 42, 0
1, 120959, Note_on_c, 9, 36, 0
1, 120960, Note_on_c, 9, 42, 56
1, 120960, Note_on_c, 9, 36, 76
1, 120970, Note_on_c, 9, 42, 0
1, 121200, Note_on_c, 9, 56, 56
1, 121200, Note_on_c, 9, 42, 56
1, 121204, Note_on_c, 9, 42, 0
1, 121319, Note_on_c, 9, 56, 0
1, 121320, Note_on_c, 9, 62, 58
1, 121439, Note_on_c, 9, 36, 0
1, 121439, Note_on_c, 9, 62, 0
1, 121440, Note_on_c, 9, 40, 64
1, 121440, Note_on_c, 9, 42, 56
1, 121440, Note_on_c, 9, 36, 76
1, 121444, Note_on_c, 9, 42, 0
1, 121559, Note_on_c, 9, 40, 0
1, 121560, Note_on_c, 9, 56, 58
1, 121679, Note_on_c, 9, 56, 0
1, 121680, Note_on_c, 9, 62, 52
1, 121680, Note_on_c, 9, 42, 56
1, 121690, Note_on_c, 9, 42, 0
1, 121919, Note_on_c, 9, 36, 0
1, 121919, Note_on_c, 9, 62, 0
1, 121920, Note_on_c, 9, 42, 56
1, 121920, Note_on_c, 9, 36, 76
1, 121924, Note_on_c, 9, 42, 0
1, 122040, Note_on_c, 9, 62, 54
1, 122159, Note_on_c, 9, 62, 0
1, 122160, Note_on_c, 9, 42, 56
1, 122164, Note_on_c, 9, 42, 0
1, 122280, Note_on_c, 9, 64, 56
1, 122280, Note_on_c, 9, 46, 28
1, 122284, Note_on_c, 9, 64, 0
1, 122284, Note_on_c, 9, 46, 0
1, 122399, Note_on_c, 9, 36, 0
1, 122400, Note_on_c, 9, 40, 64
1, 122400, Note_on_c, 9, 39, 81
1, 122400, Note_on_c, 9, 42, 56
1, 122400, Note_on_c, 9, 36, 76
1, 122410, Note_on_c, 9, 42, 0
1, 122639, Note_on_c, 9, 40, 0
1, 122639, Note_on_c, 9, 39, 0
1, 122640, Note_on_c, 9, 42, 56
1, 122644, Note_on_c, 9, 42, 0
1, 122760, Note_on_c, 9, 46, 37
1, 122764, Note_on_c, 9, 46, 0
1, 122879, Note_on_c, 9, 36, 0
1, 122880, Note_on_c, 9, 42, 68
1, 122880, Note_on_c, 9, 36, 76
1, 122890, Note_on_c, 9, 42, 0
1, 123120, Note_on_c, 9, 56, 58
1, 123120, Note_on_c, 9, 42, 56
1, 123124, Note_on_c, 9, 42, 0
1, 123239, Note_on_c, 9, 56, 0
1, 123240, Note_on_c, 9, 62, 60
1, 123359, Note_on_c, 9, 36, 0
1, 123359, Note_on_c, 9, 62, 0
1, 123360, Note_on_c, 9, 40, 64
1, 123360, Note_on_c, 9, 42, 56
1, 123360, Note_on_c, 9, 36, 76
1, 123364, Note_on_c, 9, 42, 0
1, 123479, Note_on_c, 9, 40, 0
1, 123480, Note_on_c, 9, 56, 62
1, 123599, Note_on_c, 9, 56, 0
1, 123600, Note_on_c, 9, 62, 64
1, 123600, Note_on_c, 9, 42, 56
1, 123610, Note_on_c, 9, 42, 0
1, 123839, Note_on_c, 9, 36, 0
1, 123839, Note_on_c, 9, 62, 0
1, 123840, Note_on_c, 9, 42, 56
1, 123840, Note_on_c, 9, 36, 76
1, 123844, Note_on_c, 9, 42, 0
1, 123960, Note_on_c, 9, 62, 64
1, 124079, Note_on_c, 9, 62, 0
1, 124080, Note_on_c, 9, 42, 56
1, 124084, Note_on_c, 9, 42, 0
1, 124200, Note_on_c, 9, 46, 50
1, 124204, Note_on_c, 9, 46, 0
1, 124319, Note_on_c, 9, 36, 0
1, 124320, Note_on_c, 9, 64, 36
1, 124320, Note_on_c, 9, 40, 64
1, 124320, Note_on_c, 9, 39, 81
1, 124320, Note_on_c, 9, 42, 56
1, 124320, Note_on_c, 9, 36, 76
1, 124330, Note_on_c, 9, 64, 0
1, 124330, Note_on_c, 9, 42, 0
1, 124559, Note_on_c, 9, 40, 0
1, 124559, Note_on_c, 9, 39, 0
1, 124560, Note_on_c, 9, 42, 56
1, 124570, Note_on_c, 9, 42, 0
1, 124799, Note_on_c, 9, 36, 0
1, 124800, Note_on_c, 9, 42, 56
1, 124800, Note_on_c, 9, 36, 76
1, 124810, Note_on_c, 9, 42, 0
1, 125040, Note_on_c, 9, 56, 56
1, 125040, Note_on_c, 9, 42, 56
1, 125044, Note_on_c, 9, 42, 0
1, 125159, Note_on_c, 9, 56, 0
1, 125160, Note_on_c, 9, 62, 66
1, 125279, Note_on_c, 9, 36, 0
1, 125279, Note_on_c, 9, 62, 0
1, 125280, Note_on_c, 9, 40, 64
1, 125280, Note_on_c, 9, 42, 56
1, 125280, Note_on_c, 9, 36, 76
1, 125284, Note_on_c, 9, 42, 0
1, 125399, Note_on_c, 9, 40, 0
1, 125400, Note_on_c, 9, 56, 56
1, 125519, Note_on_c, 9, 56, 0
1, 125520, Note_on_c, 9, 62, 62
1, 125520, Note_on_c, 9, 42, 56
1, 125530, Note_on_c, 9, 42, 0
1, 125759, Note_on_c, 9, 36, 0
1, 125759, Note_on_c, 9, 62, 0
1, 125760, Note_on_c, 9, 62, 62
1, 125760, Note_on_c, 9, 42, 56
1, 125760, Note_on_c, 9, 36, 76
1, 125764, Note_on_c, 9, 42, 0
1, 125879, Note_on_c, 9, 62, 0
1, 125880, Note_on_c, 9, 62, 54
1, 125999, Note_on_c, 9, 62, 0
1, 126000, Note_on_c, 9, 42, 56
1, 126004, Note_on_c, 9, 42, 0
1, 126120, Note_on_c, 9, 64, 52
1, 126120, Note_on_c, 9, 46, 28
1, 126124, Note_on_c, 9, 64, 0
1, 126124, Note_on_c, 9, 46, 0
1, 126239, Note_on_c, 9, 36, 0
1, 126240, Note_on_c, 9, 40, 64
1, 126240, Note_on_c, 9, 39, 81
1, 126240, Note_on_c, 9, 42, 56
1, 126240, Note_on_c, 9, 36, 76
1, 126250, Note_on_c, 9, 42, 0
1, 126479, Note_on_c, 9, 40, 0
1, 126479, Note_on_c, 9, 39, 0
1, 126480, Note_on_c, 9, 42, 56
1, 126484, Note_on_c, 9, 42, 0
1, 126600, Note_on_c, 9, 46, 64
1, 126604, Note_on_c, 9, 46, 0
1, 126719, Note_on_c, 9, 36, 0
1, 126720, Note_on_c, 9, 42, 56
1, 126720, Note_on_c, 9, 36, 76
1, 126730, Note_on_c, 9, 42, 0
1, 126960, Note_on_c, 9, 56, 60
1, 126960, Note_on_c, 9, 42, 56
1, 126964, Note_on_c, 9, 42, 0
1, 127079, Note_on_c, 9, 56, 0
1, 127080, Note_on_c, 9, 62, 58
1, 127199, Note_on_c, 9, 36, 0
1, 127199, Note_on_c, 9, 62, 0
1, 127200, Note_on_c, 9, 40, 64
1, 127200, Note_on_c, 9, 42, 56
1, 127200, Note_on_c, 9, 36, 76
1, 127204, Note_on_c, 9, 42, 0
1, 127319, Note_on_c, 9, 40, 0
1, 127320, Note_on_c, 9, 56, 58
1, 127439, Note_on_c, 9, 56, 0
1, 127440, Note_on_c, 9, 62, 56
1, 127440, Note_on_c, 9, 42, 56
1, 127450, Note_on_c, 9, 42, 0
1, 127679, Note_on_c, 9, 36, 0
1, 127679, Note_on_c, 9, 62, 0
1, 127680, Note_on_c, 9, 62, 54
1, 127680, Note_on_c, 9, 42, 56
1, 127680, Note_on_c, 9, 36, 76
1, 127684, Note_on_c, 9, 42, 0
1, 127799, Note_on_c, 9, 62, 0
1, 127800, Note_on_c, 9, 62, 54
1, 127919, Note_on_c, 9, 62, 0
1, 127920, Note_on_c, 9, 42, 56
1, 127924, Note_on_c, 9, 42, 0
1, 128040, Note_on_c, 9, 64, 54
1, 128040, Note_on_c, 9, 46, 27
1, 128044, Note_on_c, 9, 64, 0
1, 128044, Note_on_c, 9, 46, 0
1, 128159, Note_on_c, 9, 36, 0
1, 128160, Note_on_c, 9, 40, 64
1, 128160, Note_on_c, 9, 39, 81
1, 128160, Note_on_c, 9, 42, 56
1, 128160, Note_on_c, 9, 36, 76
1, 128170, Note_on_c, 9, 42, 0
1, 128399, Note_on_c, 9, 40, 0
1, 128399, Note_on_c, 9, 39, 0
1, 128400, Note_on_c, 9, 42, 56
1, 128410, Note_on_c, 9, 42, 0
1, 128639, Note_on_c, 9, 36, 0
1, 128640, Note_on_c, 9, 42, 56
1, 128640, Note_on_c, 9, 36, 76
1, 128650, Note_on_c, 9, 42, 0
1, 128880, Note_on_c, 9, 56, 56
1, 128880, Note_on_c, 9, 42, 56
1, 128884, Note_on_c, 9, 42, 0
1, 128999, Note_on_c, 9, 56, 0
1, 129000, Note_on_c, 9, 62, 58
1, 129119, Note_on_c, 9, 36, 0
1, 129119, Note_on_c, 9, 62, 0
1, 129120, Note_on_c, 9, 40, 64
1, 129120, Note_on_c, 9, 42, 56
1, 129120, Note_on_c, 9, 36, 76
1, 129124, Note_on_c, 9, 42, 0
1, 129239, Note_on_c, 9, 40, 0
1, 129240, Note_on_c, 9, 56, 58
1, 129359, Note_on_c, 9, 56, 0
1, 129360, Note_on_c, 9, 62, 52
1, 129360, Note_on_c, 9, 42, 56
1, 129370, Note_on_c, 9, 42, 0
1, 129599, Note_on_c, 9, 36, 0
1, 129599, Note_on_c, 9, 62, 0
1, 129600, Note_on_c, 9, 42, 56
1, 129600, Note_on_c, 9, 36, 76
1, 129604, Note_on_c, 9, 42, 0
1, 129720, Note_on_c, 9, 62, 54
1, 129839, Note_on_c, 9, 62, 0
1, 129840, Note_on_c, 9, 42, 56
1, 129844, Note_on_c, 9, 42, 0
1, 129960, Note_on_c, 9, 64, 56
1, 129960, Note_on_c, 9, 46, 28
1, 129964, Note_on_c, 9, 64, 0
1, 129964, Note_on_c, 9, 46, 0
1, 130079, Note_on_c, 9, 36, 0
1, 130080, Note_on_c, 9, 40, 64
1, 130080, Note_on_c, 9, 39, 81
1, 130080, Note_on_c, 9, 42, 56
1, 130080, Note_on_c, 9, 36, 76
1, 130090, Note_on_c, 9, 42, 0
1, 130319, Note_on_c, 9, 40, 0
1, 130319, Note_on_c, 9, 39, 0
1, 130320, Note_on_c, 9, 42, 56
1, 130324, Note_on_c, 9, 42, 0
1, 130440, Note_on_c, 9, 46, 37
1, 130444, Note_on_c, 9, 46, 0
1, 130559, Note_on_c, 9, 36, 0
1, 130560, Note_on_c, 9, 42, 68
1, 130560, Note_on_c, 9, 36, 76
1, 130570, Note_on_c, 9, 42, 0
1, 130800, Note_on_c, 9, 56, 58
1, 130800, Note_on_c, 9, 42, 56
1, 130804, Note_on_c, 9, 42, 0
1, 130919, Note_on_c, 9, 56, 0
1, 130920, Note_on_c, 9, 62, 60
1, 131039, Note_on_c, 9, 36, 0
1, 131039, Note_on_c, 9, 62, 0
1, 131040, Note_on_c, 9, 40, 64
1, 131040, Note_on_c, 9, 42, 56
1, 131040, Note_on_c, 9, 36, 76
1, 131044, Note_on_c, 9, 42, 0
1, 131159, Note_on_c, 9, 40, 0
1, 131160, Note_on_c, 9, 56, 62
1, 131279, Note_on_c, 9, 56, 0
1, 131280, Note_on_c, 9, 62, 64
1, 131280, Note_on_c, 9, 42, 56
1, 131290, Note_on_c, 9, 42, 0
1, 131519, Note_on_c, 9, 36, 0
1, 131519, Note_on_c, 9, 62, 0
1, 131520, Note_on_c, 9, 42, 56
1, 131520, Note_on_c, 9, 36, 76
1, 131524, Note_on_c, 9, 42, 0
1, 131640, Note_on_c, 9, 62, 64
1, 131759, Note_on_c, 9, 62, 0
1, 131760, Note_on_c, 9, 42, 56
1, 131764, Note_on_c, 9, 42, 0
1, 131880, Note_on_c, 9, 46, 50
1, 131884, Note_on_c, 9, 46, 0
1, 131999, Note_on_c, 9, 36, 0
1, 132000, Note_on_c, 9, 64, 36
1, 132000, Note_on_c, 9, 40, 64
1, 132000, Note_on_c, 9, 39, 81
1, 132000, Note_on_c, 9, 42, 56
1, 132000, Note_on_c, 9, 36, 76
1, 132010, Note_on_c, 9, 64, 0
1, 132010, Note_on_c, 9, 42, 0
1, 132239, Note_on_c, 9, 40, 0
1, 132239, Note_on_c, 9, 39, 0
1, 132240, Note_on_c, 9, 42, 56
1, 132250, Note_on_c, 9, 42, 0
1, 132479, Note_on_c, 9, 36, 0
1, 132480, Note_on_c, 9, 42, 56
1, 132480, Note_on_c, 9, 36, 76
1, 132490, Note_on_c, 9, 42, 0
1, 132720, Note_on_c, 9, 56, 56
1, 132720, Note_on_c, 9, 42, 56
1, 132724, Note_on_c, 9, 42, 0
1, 132839, Note_on_c, 9, 56, 0
1, 132840, Note_on_c, 9, 62, 66
1, 132959, Note_on_c, 9, 36, 0
1, 132959, Note_on_c, 9, 62, 0
1, 132960, Note_on_c, 9, 40, 64
1, 132960, Note_on_c, 9, 42, 56
1, 132960, Note_on_c, 9, 36, 76
1, 132964, Note_on_c, 9, 42, 0
1, 133079, Note_on_c, 9, 40, 0
1, 133080, Note_on_c, 9, 56, 56
1, 133199, Note_on_c, 9, 56, 0
1, 133200, Note_on_c, 9, 62, 62
1, 133200, Note_on_c, 9, 42, 56
1, 133210, Note_on_c, 9, 42, 0
1, 133439, Note_on_c, 9, 36, 0
1, 133439, Note_on_c, 9, 62, 0
1, 133440, Note_on_c, 9, 62, 62
1, 133440, Note_on_c, 9, 42, 56
1, 133440, Note_on_c, 9, 36, 76
1, 133444, Note_on_c, 9, 42, 0
1, 133559, Note_on_c, 9, 62, 0
1, 133560, Note_on_c, 9, 62, 54
1, 133679, Note_on_c, 9, 62, 0
1, 133680, Note_on_c, 9, 42, 56
1, 133684, Note_on_c, 9, 42, 0
1, 133800, Note_on_c, 9, 64, 52
1, 133800, Note_on_c, 9, 46, 28
1, 133804, Note_on_c, 9, 64, 0
1, 133804, Note_on_c, 9, 46, 0
1, 133919, Note_on_c, 9, 36, 0
1, 133920, Note_on_c, 9, 40, 64
1, 133920, Note_on_c, 9, 39, 81
1, 133920, Note_on_c, 9, 42, 56
1, 133920, Note_on_c, 9, 36, 76
1, 133930, Note_on_c, 9, 42, 0
1, 134159, Note_on_c, 9, 40, 0
1, 134159, Note_on_c, 9, 39, 0
1, 134160, Note_on_c, 9, 42, 56
1, 134164, Note_on_c, 9, 42, 0
1, 134280, Note_on_c, 9, 46, 64
1, 134284, Note_on_c, 9, 46, 0
1, 134399, Note_on_c, 9, 36, 0
1, 134400, Note_on_c, 9, 42, 56
1, 134400, Note_on_c, 9, 36, 76
1, 134410, Note_on_c, 9, 42, 0
1, 134640, Note_on_c, 9, 56, 60
1, 134640, Note_on_c, 9, 42, 56
1, 134644, Note_on_c, 9, 42, 0
1, 134759, Note_on_c, 9, 56, 0
1, 134760, Note_on_c, 9, 62, 58
1, 134879, Note_on_c, 9, 36, 0
1, 134879, Note_on_c, 9, 62, 0
1, 134880, Note_on_c, 9, 40, 64
1, 134880, Note_on_c, 9, 42, 56
1, 134880, Note_on_c, 9, 36, 76
1, 134884, Note_on_c, 9, 42, 0
1, 134999, Note_on_c, 9, 40, 0
1, 135000, Note_on_c, 9, 56, 58
1, 135119, Note_on_c, 9, 56, 0
1, 135120, Note_on_c, 9, 62, 56
1, 135120, Note_on_c, 9, 42, 56
1, 135130, Note_on_c, 9, 42, 0
1, 135359, Note_on_c, 9, 36, 0
1, 135359, Note_on_c, 9, 62, 0
1, 135360, Note_on_c, 9, 62, 54
1, 135360, Note_on_c, 9, 42, 56
1, 135360, Note_on_c, 9, 36, 76
1, 135364, Note_on_c, 9, 42, 0
1, 135479, Note_on_c, 9, 62, 0
1, 135480, Note_on_c, 9, 62, 54
1, 135599, Note_on_c, 9, 62, 0
1, 135600, Note_on_c, 9, 42, 56
1, 135604, Note_on_c, 9, 42, 0
1, 135720, Note_on_c, 9, 64, 54
1, 135720, Note_on_c, 9, 46, 27
1, 135724, Note_on_c, 9, 64, 0
1, 135724, Note_on_c, 9, 46, 0
1, 135839, Note_on_c, 9, 36, 0
1, 135840, Note_on_c, 9, 40, 64
1, 135840, Note_on_c, 9, 39, 81
1, 135840, Note_on_c, 9, 42, 56
1, 135840, Note_on_c, 9, 36, 76
1, 135850, Note_on_c, 9, 42, 0
1, 136079, Note_on_c, 9, 40, 0
1, 136079, Note_on_c, 9, 39, 0
1, 136080, Note_on_c, 9, 42, 56
1, 136090, Note_on_c, 9, 42, 0
1, 136319, Note_on_c, 9, 36, 0
1, 136320, Note_on_c, 9, 42, 56
1, 136320, Note_on_c, 9, 36, 76
1, 136330, Note_on_c, 9, 42, 0
1, 136560, Note_on_c, 9, 56, 56
1, 136560, Note_on_c, 9, 42, 56
1, 136564, Note_on_c, 9, 42, 0
1, 136679, Note_on_c, 9, 56, 0
1, 136680, Note_on_c, 9, 62, 58
1, 136799, Note_on_c, 9, 36, 0
1, 136799, Note_on_c, 9, 62, 0
1, 136800, Note_on_c, 9, 40, 64
1, 136800, Note_on_c, 9, 42, 56
1, 136800, Note_on_c, 9, 36, 76
1, 136804, Note_on_c, 9, 42, 0
1, 136919, Note_on_c, 9, 40, 0
1, 136920, Note_on_c, 9, 56, 58
1, 137039, Note_on_c, 9, 56, 0
1, 137040, Note_on_c, 9, 62, 52
1, 137040, Note_on_c, 9, 42, 56
1, 137050, Note_on_c, 9, 42, 0
1, 137279, Note_on_c, 9, 36, 0
1, 137279, Note_on_c, 9, 62, 0
1, 137280, Note_on_c, 9, 42, 56
1, 137280, Note_on_c, 9, 36, 76
1, 137284, Note_on_c, 9, 42, 0
1, 137400, Note_on_c, 9, 62, 54
1, 137519, Note_on_c, 9, 62, 0
1, 137520, Note_on_c, 9, 42, 56
1, 137524, Note_on_c, 9, 42, 0
1, 137640, Note_on_c, 9, 64, 56
1, 137640, Note_on_c, 9, 46, 28
1, 137644, Note_on_c, 9, 64, 0
1, 137644, Note_on_c, 9, 46, 0
1, 137759, Note_on_c, 9, 36, 0
1, 137760, Note_on_c, 9, 40, 64
1, 137760, Note_on_c, 9, 39, 81
1, 137760, Note_on_c, 9, 42, 56
1, 137760, Note_on_c, 9, 36, 76
1, 137770, Note_on_c, 9, 42, 0
1, 137999, Note_on_c, 9, 40, 0
1, 137999, Note_on_c, 9, 39, 0
1, 138000, Note_on_c, 9, 42, 56
1, 138004, Note_on_c, 9, 42, 0
1, 138120, Note_on_c, 9, 46, 37
1, 138124, Note_on_c, 9, 46, 0
1, 138239, Note_on_c, 9, 36, 0
1, 138240, Note_on_c, 9, 42, 68
1, 138240, Note_on_c, 9, 36, 76
1, 138250, Note_on_c, 9, 42, 0
1, 138480, Note_on_c, 9, 56, 58
1, 138480, Note_on_c, 9, 42, 56
1, 138484, Note_on_c, 9, 42, 0
1, 138599, Note_on_c, 9, 56, 0
1, 138600, Note_on_c, 9, 62, 60
1, 138719, Note_on_c, 9, 36, 0
1, 138719, Note_on_c, 9, 62, 0
1, 138720, Note_on_c, 9, 40, 64
1, 138720, Note_on_c, 9, 42, 56
1, 138720, Note_on_c, 9, 36, 76
1, 138724, Note_on_c, 9, 42, 0
1, 138839, Note_on_c, 9, 40, 0
1, 138840, Note_on_c, 9, 56, 62
1, 138959, Note_on_c, 9, 56, 0
1, 138960, Note_on_c, 9, 62, 64
1, 138960, Note_on_c, 9, 42, 56
1, 138970, Note_on_c, 9, 42, 0
1, 139199, Note_on_c, 9, 36, 0
1, 139199, Note_on_c, 9, 62, 0
1, 139200, Note_on_c, 9, 42, 56
1, 139200, Note_on_c, 9, 36, 76
1, 139204, Note_on_c, 9, 42, 0
1, 139320, Note_on_c, 9, 62, 64
1, 139439, Note_on_c, 9, 62, 0
1, 139440, Note_on_c, 9, 42, 56
1, 139444, Note_on_c, 9, 42, 0
1, 139560, Note_on_c, 9, 46, 50
1, 139564, Note_on_c, 9, 46, 0
1, 139679, Note_on_c, 9, 36, 0
1, 139680, Note_on_c, 9, 64, 36
1, 139680, Note_on_c, 9, 40, 64
1, 139680, Note_on_c, 9, 39, 81
1, 139680, Note_on_c, 9, 42, 56
1, 139680, Note_on_c, 9, 36, 76
1, 139690, Note_on_c, 9, 64, 0
1, 139690, Note_on_c, 9, 42, 0
1, 139919, Note_on_c, 9, 40, 0
1, 139919, Note_on_c, 9, 39, 0
1, 139920, Note_on_c, 9, 42, 56
1, 139930, Note_on_c, 9, 42, 0
1, 140159, Note_on_c, 9, 36, 0
1, 140160, Note_on_c, 9, 42, 56
1, 140160, Note_on_c, 9, 36, 76
1, 140170, Note_on_c, 9, 42, 0
1, 140400, Note_on_c, 9, 56, 56
1, 140400, Note_on_c, 9, 42, 56
1, 140404, Note_on_c, 9, 42, 0
1, 140519, Note_on_c, 9, 56, 0
1, 140520, Note_on_c, 9, 62, 66
1, 140639, Note_on_c, 9, 36, 0
1, 140639, Note_on_c, 9, 62, 0
1, 140640, Note_on_c, 9, 40, 64
1, 140640, Note_on_c, 9, 42, 56
1, 140640, Note_on_c, 9, 36, 76
1, 140644, Note_on_c, 9, 42, 0
1, 140759, Note_on_c, 9, 40, 0
1, 140760, Note_on_c, 9, 56, 56
1, 140879, Note_on_c, 9, 56, 0
1, 140880, Note_on_c, 9, 62, 62
1, 140880, Note_on_c, 9, 42, 56
1, 140890, Note_on_c, 9, 42, 0
1, 141119, Note_on_c, 9, 36, 0
1, 141119, Note_on_c, 9, 62, 0
1, 141120, Note_on_c, 9, 62, 62
1, 141120, Note_on_c, 9, 42, 56
1, 141120, Note_on_c, 9, 36, 76
1, 141124, Note_on_c, 9, 42, 0
1, 141239, Note_on_c, 9, 62, 0
1, 141240, Note_on_c, 9, 62, 54
1, 141359, Note_on_c, 9, 62, 0
1, 141360, Note_on_c, 9, 42, 56
1, 141364, Note_on_c, 9, 42, 0
1, 141480, Note_on_c, 9, 64, 52
1, 141480, Note_on_c, 9, 46, 28
1, 141484, Note_on_c, 9, 64, 0
1, 141484, Note_on_c, 9, 46, 0
1, 141599, Note_on_c, 9, 36, 0
1, 141600, Note_on_c, 9, 40, 64
1, 141600, Note_on_c, 9, 39, 81
1, 141600, Note_on_c, 9, 42, 56
1, 141600, Note_on_c, 9, 36, 76
1, 141610, Note_on_c, 9, 42, 0
1, 141839, Note_on_c, 9, 40, 0
1, 141839, Note_on_c, 9, 39, 0
1, 141840, Note_on_c, 9, 42, 56
1, 141844, Note_on_c, 9, 42, 0
1, 141960, Note_on_c, 9, 46, 64
1, 141964, Note_on_c, 9, 46, 0
1, 142079, Note_on_c, 9, 36, 0
1, 142080, Note_on_c, 9, 42, 56
1, 142080, Note_on_c, 9, 36, 76
1, 142090, Note_on_c, 9, 42, 0
1, 142320, Note_on_c, 9, 56, 60
1, 142320, Note_on_c, 9, 42, 56
1, 142324, Note_on_c, 9, 42, 0
1, 142439, Note_on_c, 9, 56, 0
1, 142440, Note_on_c, 9, 62, 58
1, 142559, Note_on_c, 9, 36, 0
1, 142559, Note_on_c, 9, 62, 0
1, 142560, Note_on_c, 9, 40, 64
1, 142560, Note_on_c, 9, 42, 56
1, 142560, Note_on_c, 9, 36, 76
1, 142564, Note_on_c, 9, 42, 0
1, 142679, Note_on_c, 9, 40, 0
1, 142680, Note_on_c, 9, 56, 58
1, 142799, Note_on_c, 9, 56, 0
1, 142800, Note_on_c, 9, 62, 56
1, 142800, Note_on_c, 9, 42, 56
1, 142810, Note_on_c, 9, 42, 0
1, 143039, Note_on_c, 9, 36, 0
1, 143039, Note_on_c, 9, 62, 0
1, 143040, Note_on_c, 9, 62, 54
1, 143040, Note_on_c, 9, 42, 56
1, 143040, Note_on_c, 9, 36, 76
1, 143044, Note_on_c, 9, 42, 0
1, 143159, Note_on_c, 9, 62, 0
1, 143160, Note_on_c, 9, 62, 54
1, 143279, Note_on_c, 9, 62, 0
1, 143280, Note_on_c, 9, 42, 56
1, 143284, Note_on_c, 9, 42, 0
1, 143400, Note_on_c, 9, 64, 54
1, 143400, Note_on_c, 9, 46, 27
1, 143404, Note_on_c, 9, 64, 0
1, 143404, Note_on_c, 9, 46, 0
1, 143519, Note_on_c, 9, 36, 0
1, 143520, Note_on_c, 9, 40, 64
1, 143520, Note_on_c, 9, 39, 81
1, 143520, Note_on_c, 9, 42, 56
1, 143520, Note_on_c, 9, 36, 76
1, 143530, Note_on_c, 9, 42, 0
1, 143759, Note_on_c, 9, 40, 0
1, 143759, Note_on_c, 9, 39, 0
1, 143760, Note_on_c, 9, 42, 56
1, 143770, Note_on_c, 9, 42, 0
1, 143999, Note_on_c, 9, 36, 0
1, 144000, Note_on_c, 9, 42, 56
1, 144000, Note_on_c, 9, 36, 76
1, 144010, Note_on_c, 9, 42, 0
1, 144240, Note_on_c, 9, 56, 56
1, 144240, Note_on_c, 9, 42, 56
1, 144244, Note_on_c, 9, 42, 0
1, 144359, Note_on_c, 9, 56, 0
1, 144360, Note_on_c, 9, 62, 58
1, 144479, Note_on_c, 9, 36, 0
1, 144479, Note_on_c, 9, 62, 0
1, 144480, Note_on_c, 9, 40, 64
1, 144480, Note_on_c, 9, 42, 56
1, 144480, Note_on_c, 9, 36, 76
1, 144484, Note_on_c, 9, 42, 0
1, 144599, Note_on_c, 9, 40, 0
1, 144600, Note_on_c, 9, 56, 58
1, 144719, Note_on_c, 9, 56, 0
1, 144720, Note_on_c, 9, 62, 52
1, 144720, Note_on_c, 9, 42, 56
1, 144730, Note_on_c, 9, 42, 0
1, 144959, Note_on_c, 9, 36, 0
1, 144959, Note_on_c, 9, 62, 0
1, 144960, Note_on_c, 9, 42, 56
1, 144960, Note_on_c, 9, 36, 76
1, 144964, Note_on_c, 9, 42, 0
1, 145080, Note_on_c, 9, 62, 54
1, 145199, Note_on_c, 9, 62, 0
1, 145200, Note_on_c, 9, 42, 56
1, 145204, Note_on_c, 9, 42, 0
1, 145320, Note_on_c, 9, 64, 56
1, 145320, Note_on_c, 9, 46, 28
1, 145324, Note_on_c, 9, 64, 0
1, 145324, Note_on_c, 9, 46, 0
1, 145439, Note_on_c, 9, 36, 0
1, 145440, Note_on_c, 9, 40, 64
1, 145440, Note_on_c, 9, 39, 81
1, 145440, Note_on_c, 9, 42, 56
1, 145440, Note_on_c, 9, 36, 76
1, 145450, Note_on_c, 9, 42, 0
1, 145679, Note_on_c, 9, 40, 0
1, 145679, Note_on_c, 9, 39, 0
1, 145680, Note_on_c, 9, 42, 56
1, 145684, Note_on_c, 9, 42, 0
1, 145800, Note_on_c, 9, 46, 37
1, 145804, Note_on_c, 9, 46, 0
1, 145919, Note_on_c, 9, 36, 0
1, 145920, Note_on_c, 9, 42, 68
1, 145920, Note_on_c, 9, 36, 76
1, 145930, Note_on_c, 9, 42, 0
1, 146160, Note_on_c, 9, 56, 58
1, 146160, Note_on_c, 9, 42, 56
1, 146164, Note_on_c, 9, 42, 0
1, 146279, Note_on_c, 9, 56, 0
1, 146280, Note_on_c, 9, 62, 60
1, 146399, Note_on_c, 9, 36, 0
1, 146399, Note_on_c, 9, 62, 0
1, 146400, Note_on_c, 9, 40, 64
1, 146400, Note_on_c, 9, 42, 56
1, 146400, Note_on_c, 9, 36, 76
1, 146404, Note_on_c, 9, 42, 0
1, 146519, Note_on_c, 9, 40, 0
1, 146520, Note_on_c, 9, 56, 62
1, 146639, Note_on_c, 9, 56, 0
1, 146640, Note_on_c, 9, 62, 64
1, 146640, Note_on_c, 9, 42, 56
1, 146650, Note_on_c, 9, 42, 0
1, 146879, Note_on_c, 9, 36, 0
1, 146879, Note_on_c, 9, 62, 0
1, 146880, Note_on_c, 9, 42, 56
1, 146880, Note_on_c, 9, 36, 76
1, 146884, Note_on_c, 9, 42, 0
1, 147000, Note_on_c, 9, 62, 64
1, 147119, Note_on_c, 9, 62, 0
1, 147120, Note_on_c, 9, 42, 56
1, 147124, Note_on_c, 9, 42, 0
1, 147240, Note_on_c, 9, 46, 50
1, 147244, Note_on_c, 9, 46, 0
1, 147359, Note_on_c, 9, 36, 0
1, 147360, Note_on_c, 9, 64, 36
1, 147360, Note_on_c, 9, 40, 64
1, 147360, Note_on_c, 9, 39, 81
1, 147360, Note_on_c, 9, 42, 56
1, 147360, Note_on_c, 9, 36, 76
1, 147370, Note_on_c, 9, 64, 0
1, 147370, Note_on_c, 9, 42, 0
1, 147599, Note_on_c, 9, 40, 0
1, 147599, Note_on_c, 9, 39, 0
1, 147600, Note_on_c, 9, 42, 56
1, 147610, Note_on_c, 9, 42, 0
1, 147839, Note_on_c, 9, 36, 0
1, 147840, Note_on_c, 9, 42, 56
1, 147840, Note_on_c, 9, 36, 76
1, 147850, Note_on_c, 9, 42, 0
1, 148080, Note_on_c, 9, 56, 56
1, 148080, Note_on_c, 9, 42, 56
1, 148084, Note_on_c, 9, 42, 0
1, 148199, Note_on_c, 9, 56, 0
1, 148200, Note_on_c, 9, 62, 66
1, 148319, Note_on_c, 9, 36, 0
1, 148319, Note_on_c, 9, 62, 0
1, 148320, Note_on_c, 9, 40, 64
1, 148320, Note_on_c, 9, 42, 56
1, 148320, Note_on_c, 9, 36, 76
1, 148324, Note_on_c, 9, 42, 0
1, 148439, Note_on_c, 9, 40, 0
1, 148440, Note_on_c, 9, 56, 56
1, 148559, Note_on_c, 9, 56, 0
1, 148560, Note_on_c, 9, 62, 62
1, 148560, Note_on_c, 9, 42, 56
1, 148570, Note_on_c, 9, 42, 0
1, 148799, Note_on_c, 9, 36, 0
1, 148799, Note_on_c, 9, 62, 0
1, 148800, Note_on_c, 9, 62, 62
1, 148800, Note_on_c, 9, 42, 56
1, 148800, Note_on_c, 9, 36, 76
1, 148804, Note_on_c, 9, 42, 0
1, 148919, Note_on_c, 9, 62, 0
1, 148920, Note_on_c, 9, 62, 54
1, 149039, Note_on_c, 9, 62, 0
1, 149040, Note_on_c, 9, 42, 56
1, 149044, Note_on_c, 9, 42, 0
1, 149160, Note_on_c, 9, 64, 52
1, 149160, Note_on_c, 9, 46, 28
1, 149164, Note_on_c, 9, 64, 0
1, 149164, Note_on_c, 9, 46, 0
1, 149279, Note_on_c, 9, 36, 0
1, 149280, Note_on_c, 9, 40, 64
1, 149280, Note_on_c, 9, 39, 81
1, 149280, Note_on_c, 9, 42, 56
1, 149280, Note_on_c, 9, 36, 76
1, 149290, Note_on_c, 9, 42, 0
1, 149519, Note_on_c, 9, 40, 0
1, 149519, Note_on_c, 9, 39, 0
1, 149520, Note_on_c, 9, 42, 56
1, 149524, Note_on_c, 9, 42, 0
1, 149640, Note_on_c, 9, 46, 64
1, 149644, Note_on_c, 9, 46, 0
1, 149759, Note_on_c, 9, 36, 0
1, 149760, Note_on_c, 9, 42, 56
1, 149760, Note_on_c, 9, 36, 76
1, 149770, Note_on_c, 9, 42, 0
1, 150000, Note_on_c, 9, 56, 60
1, 150000, Note_on_c, 9, 42, 56
1, 150004, Note_on_c, 9, 42, 0
1, 150119, Note_on_c, 9, 56, 0
1, 150120, Note_on_c, 9, 62, 58
1, 150239, Note_on_c, 9, 36, 0
1, 150239, Note_on_c, 9, 62, 0
1, 150240, Note_on_c, 9, 40, 64
1, 150240, Note_on_c, 9, 42, 56
1, 150240, Note_on_c, 9, 36, 76
1, 150244, Note_on_c, 9, 42, 0
1, 150359, Note_on_c, 9, 40, 0
1, 150360, Note_on_c, 9, 56, 58
1, 150479, Note_on_c, 9, 56, 0
1, 150480, Note_on_c, 9, 62, 56
1, 150480, Note_on_c, 9, 42, 56
1, 150490, Note_on_c, 9, 42, 0
1, 150719, Note_on_c, 9, 36, 0
1, 150719, Note_on_c, 9, 62, 0
1, 150720, Note_on_c, 9, 62, 54
1, 150720, Note_on_c, 9, 42, 56
1, 150720, Note_on_c, 9, 36, 76
1, 150724, Note_on_c, 9, 42, 0
1, 150839, Note_on_c, 9, 62, 0
1, 150840, Note_on_c, 9, 62, 54
1, 150959, Note_on_c, 9, 62, 0
1, 150960, Note_on_c, 9, 42, 56
1, 150964, Note_on_c, 9, 42, 0
1, 151080, Note_on_c, 9, 64, 54
1, 151080, Note_on_c, 9, 46, 27
1, 151084, Note_on_c, 9, 64, 0
1, 151084, Note_on_c, 9, 46, 0
1, 151199, Note_on_c, 9, 36, 0
1, 151200, Note_on_c, 9, 40, 64
1, 151200, Note_on_c, 9, 39, 81
1, 151200, Note_on_c, 9, 42, 56
1, 151200, Note_on_c, 9, 36, 76
1, 151210, Note_on_c, 9, 42, 0
1, 151439, Note_on_c, 9, 40, 0
1, 151439, Note_on_c, 9, 39, 0
1, 151440, Note_on_c, 9, 42, 56
1, 151450, Note_on_c, 9, 42, 0
1, 151679, Note_on_c, 9, 36, 0
1, 151680, Note_on_c, 9, 42, 56
1, 151680, Note_on_c, 9, 36, 76
1, 151690, Note_on_c, 9, 42, 0
1, 151920, Note_on_c, 9, 56, 56
1, 151920, Note_on_c, 9, 42, 56
1, 151924, Note_on_c, 9, 42, 0
1, 152039, Note_on_c, 9, 56, 0
1, 152040, Note_on_c, 9, 62, 58
1, 152159, Note_on_c, 9, 36, 0
1, 152159, Note_on_c, 9, 62, 0
1, 152160, Note_on_c, 9, 40, 64
1, 152160, Note_on_c, 9, 42, 56
1, 152160, Note_on_c, 9, 36, 76
1, 152164, Note_on_c, 9, 42, 0
1, 152279, Note_on_c, 9, 40, 0
1, 152280, Note_on_c, 9, 56, 58
1, 152399, Note_on_c, 9, 56, 0
1, 152400, Note_on_c, 9, 62, 52
1, 152400, Note_on_c, 9, 42, 56
1, 152410, Note_on_c, 9, 42, 0
1, 152639, Note_on_c, 9, 36, 0
1, 152639, Note_on_c, 9, 62, 0
1, 152640, Note_on_c, 9, 42, 56
1, 152640, Note_on_c, 9, 36, 76
1, 152644, Note_on_c, 9, 42, 0
1, 152760, Note_on_c, 9, 62, 54
1, 152879, Note_on_c, 9, 62, 0
1, 152880, Note_on_c, 9, 42, 56
1, 152884, Note_on_c, 9, 42, 0
1, 153000, Note_on_c, 9, 64, 56
1, 153000, Note_on_c, 9, 46, 28
1, 153004, Note_on_c, 9, 64, 0
1, 153004, Note_on_c, 9, 46, 0
1, 153119, Note_on_c, 9, 36, 0
1, 153120, Note_on_c, 9, 40, 64
1, 153120, Note_on_c, 9, 39, 81
1, 153120, Note_on_c, 9, 42, 56
1, 153120, Note_on_c, 9, 36, 76
1, 153130, Note_on_c, 9, 42, 0
1, 153359, Note_on_c, 9, 40, 0
1, 153359, Note_on_c, 9, 39, 0
1, 153360, Note_on_c, 9, 42, 56
1, 153364, Note_on_c, 9, 42, 0
1, 153480, Note_on_c, 9, 46, 37
1, 153484, Note_on_c, 9, 46, 0
1, 153599, Note_on_c, 9, 36, 0
1, 153600, Note_on_c, 9, 42, 68
1, 153600, Note_on_c, 9, 36, 76
1, 153610, Note_on_c, 9, 42, 0
1, 153840, Note_on_c, 9, 56, 58
1, 153840, Note_on_c, 9, 42, 56
1, 153844, Note_on_c, 9, 42, 0
1, 153959, Note_on_c, 9, 56, 0
1, 153960, Note_on_c, 9, 62, 60
1, 154079, Note_on_c, 9, 36, 0
1, 154079, Note_on_c, 9, 62, 0
1, 154080, Note_on_c, 9, 40, 64
1, 154080, Note_on_c, 9, 42, 56
1, 154080, Note_on_c, 9, 36, 76
1, 154084, Note_on_c, 9, 42, 0
1, 154199, Note_on_c, 9, 40, 0
1, 154200, Note_on_c, 9, 56, 62
1, 154319, Note_on_c, 9, 56, 0
1, 154320, Note_on_c, 9, 62, 64
1, 154320, Note_on_c, 9, 42, 56
1, 154330, Note_on_c, 9, 42, 0
1, 154559, Note_on_c, 9, 36, 0
1, 154559, Note_on_c, 9, 62, 0
1, 154560, Note_on_c, 9, 42, 56
1, 154560, Note_on_c, 9, 36, 76
1, 154564, Note_on_c, 9, 42, 0
1, 154680, Note_on_c, 9, 62, 64
1, 154799, Note_on_c, 9, 62, 0
1, 154800, Note_on_c, 9, 42, 56
1, 154804, Note_on_c, 9, 42, 0
1, 154920, Note_on_c, 9, 46, 50
1, 154924, Note_on_c, 9, 46, 0
1, 155039, Note_on_c, 9, 36, 0
1, 155040, Note_on_c, 9, 64, 36
1, 155040, Note_on_c, 9, 40, 64
1, 155040, Note_on_c, 9, 39, 81
1, 155040, Note_on_c, 9, 42, 56
1, 155040, Note_on_c, 9, 36, 76
1, 155050, Note_on_c, 9, 64, 0
1, 155050, Note_on_c, 9, 42, 0
1, 155279, Note_on_c, 9, 40, 0
1, 155279, Note_on_c, 9, 39, 0
1, 155280, Note_on_c, 9, 42, 56
1, 155290, Note_on_c, 9, 42, 0
1, 155519, Note_on_c, 9, 36, 0
1, 155520, Note_on_c, 9, 42, 56
1, 155520, Note_on_c, 9, 36, 76
1, 155530, Note_on_c, 9, 42, 0
1, 155760, Note_on_c, 9, 56, 56
1, 155760, Note_on_c, 9, 42, 56
1, 155764, Note_on_c, 9, 42, 0
1, 155879, Note_on_c, 9, 56, 0
1, 155880, Note_on_c, 9, 62, 66
1, 155999, Note_on_c, 9, 36, 0
1, 155999, Note_on_c, 9, 62, 0
1, 156000, Note_on_c, 9, 40, 64
1, 156000, Note_on_c, 9, 42, 56
1, 156000, Note_on_c, 9, 36, 76
1, 156004, Note_on_c, 9, 42, 0
1, 156119, Note_on_c, 9, 40, 0
1, 156120, Note_on_c, 9, 56, 56
1, 156239, Note_on_c, 9, 56, 0
1, 156240, Note_on_c, 9, 62, 62
1, 156240, Note_on_c, 9, 42, 56
1, 156250, Note_on_c, 9, 42, 0
1, 156479, Note_on_c, 9, 36, 0
1, 156479, Note_on_c, 9, 62, 0
1, 156480, Note_on_c, 9, 62, 62
1, 156480, Note_on_c, 9, 42, 56
1, 156480, Note_on_c, 9, 36, 76
1, 156484, Note_on_c, 9, 42, 0
1, 156599, Note_on_c, 9, 62, 0
1, 156600, Note_on_c, 9, 62, 54
1, 156719, Note_on_c, 9, 62, 0
1, 156720, Note_on_c, 9, 42, 56
1, 156724, Note_on_c, 9, 42, 0
1, 156840, Note_on_c, 9, 64, 52
1, 156840, Note_on_c, 9, 46, 28
1, 156844, Note_on_c, 9, 64, 0
1, 156844, Note_on_c, 9, 46, 0
1, 156959, Note_on_c, 9, 36, 0
1, 156960, Note_on_c, 9, 40, 64
1, 156960, Note_on_c, 9, 39, 81
1, 156960, Note_on_c, 9, 42, 56
1, 156960, Note_on_c, 9, 36, 76
1, 156970, Note_on_c, 9, 42, 0
1, 157199, Note_on_c, 9, 40, 0
1, 157199, Note_on_c, 9, 39, 0
1, 157200, Note_on_c, 9, 42, 56
1, 157204, Note_on_c, 9, 42, 0
1, 157320, Note_on_c, 9, 46, 64
1, 157324, Note_on_c, 9, 46, 0
1, 157439, Note_on_c, 9, 36, 0
1, 157440, Note_on_c, 9, 42, 56
1, 157440, Note_on_c, 9, 36, 76
1, 157450, Note_on_c, 9, 42, 0
1, 157680, Note_on_c, 9, 56, 60
1, 157680, Note_on_c, 9, 42, 56
1, 157684, Note_on_c, 9, 42, 0
1, 157799, Note_on_c, 9, 56, 0
1, 157800, Note_on_c, 9, 62, 58
1, 157919, Note_on_c, 9, 36, 0
1, 157919, Note_on_c, 9, 62, 0
1, 157920, Note_on_c, 9, 40, 64
1, 157920, Note_on_c, 9, 42, 56
1, 157920, Note_on_c, 9, 36, 76
1, 157924, Note_on_c, 9, 42, 0
1, 158039, Note_on_c, 9, 40, 0
1, 158040, Note_on_c, 9, 56, 58
1, 158159, Note_on_c, 9, 56, 0
1, 158160, Note_on_c, 9, 62, 56
1, 158160, Note_on_c, 9, 42, 56
1, 158170, Note_on_c, 9, 42, 0
1, 158399, Note_on_c, 9, 36, 0
1, 158399, Note_on_c, 9, 62, 0
1, 158400, Note_on_c, 9, 62, 54
1, 158400, Note_on_c, 9, 42, 56
1, 158400, Note_on_c, 9, 36, 76
1, 158404, Note_on_c, 9, 42, 0
1, 158519, Note_on_c, 9, 62, 0
1, 158520, Note_on_c, 9, 62, 54
1, 158639, Note_on_c, 9, 62, 0
1, 158640, Note_on_c, 9, 42, 56
1, 158644, Note_on_c, 9, 42, 0
1, 158760, Note_on_c, 9, 64, 54
1, 158760, Note_on_c, 9, 46, 27
1, 158764, Note_on_c, 9, 64, 0
1, 158764, Note_on_c, 9, 46, 0
1, 158879, Note_on_c, 9, 36, 0
1, 158880, Note_on_c, 9, 40, 64
1, 158880, Note_on_c, 9, 39, 81
1, 158880, Note_on_c, 9, 42, 56
1, 158880, Note_on_c, 9, 36, 76
1, 158890, Note_on_c, 9, 42, 0
1, 159119, Note_on_c, 9, 40, 0
1, 159119, Note_on_c, 9, 39, 0
1, 159120, Note_on_c, 9, 42, 56
1, 159130, Note_on_c, 9, 42, 0
1, 159359, Note_on_c, 9, 36, 0
1, 159360, Note_on_c, 9, 42, 68
1, 159360, Note_on_c, 9, 36, 76
1, 159370, Note_on_c, 9, 42, 0
1, 159600, Note_on_c, 9, 56, 58
1, 159600, Note_on_c, 9, 42, 56
1, 159604, Note_on_c, 9, 42, 0
1, 159719, Note_on_c, 9, 56, 0
1, 159720, Note_on_c, 9, 62, 60
1, 159839, Note_on_c, 9, 36, 0
1, 159839, Note_on_c, 9, 62, 0
1, 159840, Note_on_c, 9, 40, 64
1, 159840, Note_on_c, 9, 42, 56
1, 159840, Note_on_c, 9, 36, 76
1, 159844, Note_on_c, 9, 42, 0
1, 159959, Note_on_c, 9, 40, 0
1, 159960, Note_on_c, 9, 56, 62
1, 160079, Note_on_c, 9, 56, 0
1, 160080, Note_on_c, 9, 62, 64
1, 160080, Note_on_c, 9, 42, 56
1, 160090, Note_on_c, 9, 42, 0
1, 160319, Note_on_c, 9, 36, 0
1, 160319, Note_on_c, 9, 62, 0
1, 160320, Note_on_c, 9, 42, 56
1, 160320, Note_on_c, 9, 36, 76
1, 160324, Note_on_c, 9, 42, 0
1, 160440, Note_on_c, 9, 62, 64
1, 160559, Note_on_c, 9, 62, 0
1, 160560, Note_on_c, 9, 42, 56
1, 160564, Note_on_c, 9, 42, 0
1, 160680, Note_on_c, 9, 46, 50
1, 160684, Note_on_c, 9, 46, 0
1, 160799, Note_on_c, 9, 36, 0
1, 160800, Note_on_c, 9, 64, 36
1, 160800, Note_on_c, 9, 40, 64
1, 160800, Note_on_c, 9, 39, 81
1, 160800, Note_on_c, 9, 42, 56
1, 160800, Note_on_c, 9, 36, 76
1, 160810, Note_on_c, 9, 64, 0
1, 160810, Note_on_c, 9, 42, 0
1, 161039, Note_on_c, 9, 40, 0
1, 161039, Note_on_c, 9, 39, 0
1, 161040, Note_on_c, 9, 42, 56
1, 161050, Note_on_c, 9, 42, 0
1, 161279, Note_on_c, 9, 36, 0
1, 161280, Note_on_c, 9, 42, 56
1, 161280, Note_on_c, 9, 36, 76
1, 161290, Note_on_c, 9, 42, 0
1, 161520, Note_on_c, 9, 56, 56
1, 161520, Note_on_c, 9, 42, 56
1, 161524, Note_on_c, 9, 42, 0
1, 161639, Note_on_c, 9, 56, 0
1, 161640, Note_on_c, 9, 62, 66
1, 161759, Note_on_c, 9, 36, 0
1, 161759, Note_on_c, 9, 62, 0
1, 161760, Note_on_c, 9, 40, 64
1, 161760, Note_on_c, 9, 42, 56
1, 161760, Note_on_c, 9, 36, 76
1, 161764, Note_on_c, 9, 42, 0
1, 161879, Note_on_c, 9, 40, 0
1, 161880, Note_on_c, 9, 56, 56
1, 161999, Note_on_c, 9, 56, 0
1, 162000, Note_on_c, 9, 62, 62
1, 162000, Note_on_c, 9, 42, 56
1, 162010, Note_on_c, 9, 42, 0
1, 162239, Note_on_c, 9, 36, 0
1, 162239, Note_on_c, 9, 62, 0
1, 162240, Note_on_c, 9, 62, 62
1, 162240, Note_on_c, 9, 42, 56
1, 162240, Note_on_c, 9, 36, 76
1, 162244, Note_on_c, 9, 42, 0
1, 162359, Note_on_c, 9, 62, 0
1, 162360, Note_on_c, 9, 62, 54
1, 162479, Note_on_c, 9, 62, 0
1, 162480, Note_on_c, 9, 42, 56
1, 162484, Note_on_c, 9, 42, 0
1, 162600, Note_on_c, 9, 64, 52
1, 162600, Note_on_c, 9, 46, 28
1, 162604, Note_on_c, 9, 64, 0
1, 162604, Note_on_c, 9, 46, 0
1, 162719, Note_on_c, 9, 36, 0
1, 162720, Note_on_c, 9, 40, 64
1, 162720, Note_on_c, 9, 39, 81
1, 162720, Note_on_c, 9, 42, 56
1, 162720, Note_on_c, 9, 36, 76
1, 162730, Note_on_c, 9, 42, 0
1, 162959, Note_on_c, 9, 40, 0
1, 162959, Note_on_c, 9, 39, 0
1, 162960, Note_on_c, 9, 42, 56
1, 162964, Note_on_c, 9, 42, 0
1, 163080, Note_on_c, 9, 46, 64
1, 163084, Note_on_c, 9, 46, 0
1, 163199, Note_on_c, 9, 36, 0
1, 163200, Note_on_c, 9, 42, 56
1, 163200, Note_on_c, 9, 36, 76
1, 163210, Note_on_c, 9, 42, 0
1, 163440, Note_on_c, 9, 56, 60
1, 163440, Note_on_c, 9, 42, 56
1, 163444, Note_on_c, 9, 42, 0
1, 163559, Note_on_c, 9, 56, 0
1, 163560, Note_on_c, 9, 62, 58
1, 163679, Note_on_c, 9, 36, 0
1, 163679, Note_on_c, 9, 62, 0
1, 163680, Note_on_c, 9, 40, 64
1, 163680, Note_on_c, 9, 42, 56
1, 163680, Note_on_c, 9, 36, 76
1, 163684, Note_on_c, 9, 42, 0
1, 163799, Note_on_c, 9, 40, 0
1, 163800, Note_on_c, 9, 56, 58
1, 163919, Note_on_c, 9, 56, 0
1, 163920, Note_on_c, 9, 62, 56
1, 163920, Note_on_c, 9, 42, 56
1, 163930, Note_on_c, 9, 42, 0
1, 164159, Note_on_c, 9, 36, 0
1, 164159, Note_on_c, 9, 62, 0
1, 164160, Note_on_c, 9, 62, 54
1, 164160, Note_on_c, 9, 42, 56
1, 164160, Note_on_c, 9, 36, 76
1, 164164, Note_on_c, 9, 42, 0
1, 164279, Note_on_c, 9, 62, 0
1, 164280, Note_on_c, 9, 62, 54
1, 164399, Note_on_c, 9, 62, 0
1, 164400, Note_on_c, 9, 42, 56
1, 164404, Note_on_c, 9, 42, 0
1, 164520, Note_on_c, 9, 64, 54
1, 164520, Note_on_c, 9, 46, 27
1, 164524, Note_on_c, 9, 64, 0
1, 164524, Note_on_c, 9, 46, 0
1, 164639, Note_on_c, 9, 36, 0
1, 164640, Note_on_c, 9, 40, 64
1, 164640, Note_on_c, 9, 39, 81
1, 164640, Note_on_c, 9, 42, 56
1, 164640, Note_on_c, 9, 36, 76
1, 164650, Note_on_c, 9, 42, 0
1, 164879, Note_on_c, 9, 40, 0
1, 164879, Note_on_c, 9, 39, 0
1, 164880, Note_on_c, 9, 42, 56
1, 164890, Note_on_c, 9, 42, 0
1, 165119, Note_on_c, 9, 36, 0
1, 165120, Note_on_c, 9, 42, 56
1, 165120, Note_on_c, 9, 36, 76
1, 165130, Note_on_c, 9, 42, 0
1, 165360, Note_on_c, 9, 56, 56
1, 165360, Note_on_c, 9, 42, 56
1, 165364, Note_on_c, 9, 42, 0
1, 165479, Note_on_c, 9, 56, 0
1, 165480, Note_on_c, 9, 62, 58
1, 165599, Note_on_c, 9, 36, 0
1, 165599, Note_on_c, 9, 62, 0
1, 165600, Note_on_c, 9, 40, 64
1, 165600, Note_on_c, 9, 42, 56
1, 165600, Note_on_c, 9, 36, 76
1, 165604, Note_on_c, 9, 42, 0
1, 165719, Note_on_c, 9, 40, 0
1, 165720, Note_on_c, 9, 56, 58
1, 165839, Note_on_c, 9, 56, 0
1, 165840, Note_on_c, 9, 62, 52
1, 165840, Note_on_c, 9, 42, 56
1, 165850, Note_on_c, 9, 42, 0
1, 166079, Note_on_c, 9, 36, 0
1, 166079, Note_on_c, 9, 62, 0
1, 166080, Note_on_c, 9, 42, 56
1, 166080, Note_on_c, 9, 36, 76
1, 166084, Note_on_c, 9, 42, 0
1, 166200, Note_on_c, 9, 62, 54
1, 166319, Note_on_c, 9, 62, 0
1, 166320, Note_on_c, 9, 42, 56
1, 166324, Note_on_c, 9, 42, 0
1, 166440, Note_on_c, 9, 64, 56
1, 166440, Note_on_c, 9, 46, 28
1, 166444, Note_on_c, 9, 64, 0
1, 166444, Note_on_c, 9, 46, 0
1, 166559, Note_on_c, 9, 36, 0
1, 166560, Note_on_c, 9, 40, 64
1, 166560, Note_on_c, 9, 39, 81
1, 166560, Note_on_c, 9, 42, 56
1, 166560, Note_on_c, 9, 36, 76
1, 166570, Note_on_c, 9, 42, 0
1, 166799, Note_on_c, 9, 40, 0
1, 166799, Note_on_c, 9, 39, 0
1, 166800, Note_on_c, 9, 42, 56
1, 166804, Note_on_c, 9, 42, 0
1, 166920, Note_on_c, 9, 46, 37
1, 166924, Note_on_c, 9, 46, 0
1, 167039, Note_on_c, 9, 36, 0
1, 167040, Note_on_c, 9, 42, 68
1, 167040, Note_on_c, 9, 36, 76
1, 167050, Note_on_c, 9, 42, 0
1, 167280, Note_on_c, 9, 56, 58
1, 167280, Note_on_c, 9, 42, 56
1, 167284, Note_on_c, 9, 42, 0
1, 167399, Note_on_c, 9, 56, 0
1, 167400, Note_on_c, 9, 62, 60
1, 167519, Note_on_c, 9, 36, 0
1, 167519, Note_on_c, 9, 62, 0
1, 167520, Note_on_c, 9, 40, 64
1, 167520, Note_on_c, 9, 42, 56
1, 167520, Note_on_c, 9, 36, 76
1, 167524, Note_on_c, 9, 42, 0
1, 167639, Note_on_c, 9, 40, 0
1, 167640, Note_on_c, 9, 56, 62
1, 167759, Note_on_c, 9, 56, 0
1, 167760, Note_on_c, 9, 62, 64
1, 167760, Note_on_c, 9, 42, 56
1, 167770, Note_on_c, 9, 42, 0
1, 167999, Note_on_c, 9, 36, 0
1, 167999, Note_on_c, 9, 62, 0
1, 168000, Note_on_c, 9, 42, 56
1, 168000, Note_on_c, 9, 36, 76
1, 168004, Note_on_c, 9, 42, 0
1, 168120, Note_on_c, 9, 62, 64
1, 168239, Note_on_c, 9, 62, 0
1, 168240, Note_on_c, 9, 42, 56
1, 168244, Note_on_c, 9, 42, 0
1, 168360, Note_on_c, 9, 46, 50
1, 168364, Note_on_c, 9, 46, 0
1, 168479, Note_on_c, 9, 36, 0
1, 168480, Note_on_c, 9, 64, 36
1, 168480, Note_on_c, 9, 40, 64
1, 168480, Note_on_c, 9, 39, 81
1, 168480, Note_on_c, 9, 42, 56
1, 168480, Note_on_c, 9, 36, 76
1, 168490, Note_on_c, 9, 64, 0
1, 168490, Note_on_c, 9, 42, 0
1, 168719, Note_on_c, 9, 40, 0
1, 168719, Note_on_c, 9, 39, 0
1, 168720, Note_on_c, 9, 42, 56
1, 168730, Note_on_c, 9, 42, 0
1, 168959, Note_on_c, 9, 36, 0
1, 168960, Note_on_c, 9, 42, 56
1, 168960, Note_on_c, 9, 36, 76
1, 168970, Note_on_c, 9, 42, 0
1, 169200, Note_on_c, 9, 56, 56
1, 169200, Note_on_c, 9, 42, 56
1, 169204, Note_on_c, 9, 42, 0
1, 169319, Note_on_c, 9, 56, 0
1, 169320, Note_on_c, 9, 62, 66
1, 169439, Note_on_c, 9, 36, 0
1, 169439, Note_on_c, 9, 62, 0
1, 169440, Note_on_c, 9, 40, 64
1, 169440, Note_on_c, 9, 42, 56
1, 169440, Note_on_c, 9, 36, 76
1, 169444, Note_on_c, 9, 42, 0
1, 169559, Note_on_c, 9, 40, 0
1, 169560, Note_on_c, 9, 56, 56
1, 169679, Note_on_c, 9, 56, 0
1, 169680, Note_on_c, 9, 62, 62
1, 169680, Note_on_c, 9, 42, 56
1, 169690, Note_on_c, 9, 42, 0
1, 169919, Note_on_c, 9, 36, 0
1, 169919, Note_on_c, 9, 62, 0
1, 169920, Note_on_c, 9, 62, 62
1, 169920, Note_on_c, 9, 42, 56
1, 169920, Note_on_c, 9, 36, 76
1, 169924, Note_on_c, 9, 42, 0
1, 170039, Note_on_c, 9, 62, 0
1, 170040, Note_on_c, 9, 62, 54
1, 170159, Note_on_c, 9, 62, 0
1, 170160, Note_on_c, 9, 42, 56
1, 170164, Note_on_c, 9, 42, 0
1, 170280, Note_on_c, 9, 64, 52
1, 170280, Note_on_c, 9, 46, 28
1, 170284, Note_on_c, 9, 64, 0
1, 170284, Note_on_c, 9, 46, 0
1, 170399, Note_on_c, 9, 36, 0
1, 170400, Note_on_c, 9, 40, 64
1, 170400, Note_on_c, 9, 39, 81
1, 170400, Note_on_c, 9, 42, 56
1, 170400, Note_on_c, 9, 36, 76
1, 170410, Note_on_c, 9, 42, 0
1, 170639, Note_on_c, 9, 40, 0
1, 170639, Note_on_c, 9, 39, 0
1, 170640, Note_on_c, 9, 42, 56
1, 170644, Note_on_c, 9, 42, 0
1, 170760, Note_on_c, 9, 46, 64
1, 170764, Note_on_c, 9, 46, 0
1, 170879, Note_on_c, 9, 36, 0
1, 170880, Note_on_c, 9, 42, 56
1, 170880, Note_on_c, 9, 36, 76
1, 170890, Note_on_c, 9, 42, 0
1, 171120, Note_on_c, 9, 56, 60
1, 171120, Note_on_c, 9, 42, 56
1, 171124, Note_on_c, 9, 42, 0
1, 171239, Note_on_c, 9, 56, 0
1, 171240, Note_on_c, 9, 62, 58
1, 171359, Note_on_c, 9, 36, 0
1, 171359, Note_on_c, 9, 62, 0
1, 171360, Note_on_c, 9, 40, 64
1, 171360, Note_on_c, 9, 42, 56
1, 171360, Note_on_c, 9, 36, 76
1, 171364, Note_on_c, 9, 42, 0
1, 171479, Note_on_c, 9, 40, 0
1, 171480, Note_on_c, 9, 56, 58
1, 171599, Note_on_c, 9, 56, 0
1, 171600, Note_on_c, 9, 62, 56
1, 171600, Note_on_c, 9, 42, 56
1, 171610, Note_on_c, 9, 42, 0
1, 171839, Note_on_c, 9, 36, 0
1, 171839, Note_on_c, 9, 62, 0
1, 171840, Note_on_c, 9, 62, 54
1, 171840, Note_on_c, 9, 42, 56
1, 171840, Note_on_c, 9, 36, 76
1, 171844, Note_on_c, 9, 42, 0
1, 171959, Note_on_c, 9, 62, 0
1, 171960, Note_on_c, 9, 62, 54
1, 172079, Note_on_c, 9, 62, 0
1, 172080, Note_on_c, 9, 42, 56
1, 172084, Note_on_c, 9, 42, 0
1, 172200, Note_on_c, 9, 64, 54
1, 172200, Note_on_c, 9, 46, 27
1, 172204, Note_on_c, 9, 64, 0
1, 172204, Note_on_c, 9, 46, 0
1, 172319, Note_on_c, 9, 36, 0
1, 172320, Note_on_c, 9, 40, 64
1, 172320, Note_on_c, 9, 39, 81
1, 172320, Note_on_c, 9, 42, 56
1, 172320, Note_on_c, 9, 36, 76
1, 172330, Note_on_c, 9, 42, 0
1, 172559, Note_on_c, 9, 40, 0
1, 172559, Note_on_c, 9, 39, 0
1, 172560, Note_on_c, 9, 42, 56
1, 172570, Note_on_c, 9, 42, 0
1, 172799, Note_on_c, 9, 36, 0
1, 172800, Note_on_c, 9, 42, 56
1, 172800, Note_on_c, 9, 36, 76
1, 172810, Note_on_c, 9, 42, 0
1, 173040, Note_on_c, 9, 56, 56
1, 173040, Note_on_c, 9, 42, 56
1, 173044, Note_on_c, 9, 42, 0
1, 173159, Note_on_c, 9, 56, 0
1, 173160, Note_on_c, 9, 62, 58
1, 173279, Note_on_c, 9, 36, 0
1, 173279, Note_on_c, 9, 62, 0
1, 173280, Note_on_c, 9, 40, 64
1, 173280, Note_on_c, 9, 42, 56
1, 173280, Note_on_c, 9, 36, 76
1, 173284, Note_on_c, 9, 42, 0
1, 173399, Note_on_c, 9, 40, 0
1, 173400, Note_on_c, 9, 56, 58
1, 173519, Note_on_c, 9, 56, 0
1, 173520, Note_on_c, 9, 62, 52
1, 173520, Note_on_c, 9, 42, 56
1, 173530, Note_on_c, 9, 42, 0
1, 173759, Note_on_c, 9, 36, 0
1, 173759, Note_on_c, 9, 62, 0
1, 173760, Note_on_c, 9, 42, 56
1, 173760, Note_on_c, 9, 36, 76
1, 173764, Note_on_c, 9, 42, 0
1, 173880, Note_on_c, 9, 62, 54
1, 173999, Note_on_c, 9, 62, 0
1, 174000, Note_on_c, 9, 42, 56
1, 174004, Note_on_c, 9, 42, 0
1, 174120, Note_on_c, 9, 64, 56
1, 174120, Note_on_c, 9, 46, 28
1, 174124, Note_on_c, 9, 64, 0
1, 174124, Note_on_c, 9, 46, 0
1, 174239, Note_on_c, 9, 36, 0
1, 174240, Note_on_c, 9, 40, 64
1, 174240, Note_on_c, 9, 39, 81
1, 174240, Note_on_c, 9, 42, 56
1, 174240, Note_on_c, 9, 36, 76
1, 174250, Note_on_c, 9, 42, 0
1, 174479, Note_on_c, 9, 40, 0
1, 174479, Note_on_c, 9, 39, 0
1, 174480, Note_on_c, 9, 42, 56
1, 174484, Note_on_c, 9, 42, 0
1, 174600, Note_on_c, 9, 46, 37
1, 174604, Note_on_c, 9, 46, 0
1, 174719, Note_on_c, 9, 36, 0
1, 174720, Note_on_c, 9, 42, 68
1, 174720, Note_on_c, 9, 36, 76
1, 174730, Note_on_c, 9, 42, 0
1, 174960, Note_on_c, 9, 56, 58
1, 174960, Note_on_c, 9, 42, 56
1, 174964, Note_on_c, 9, 42, 0
1, 175079, Note_on_c, 9, 56, 0
1, 175080, Note_on_c, 9, 62, 60
1, 175199, Note_on_c, 9, 36, 0
1, 175199, Note_on_c, 9, 62, 0
1, 175200, Note_on_c, 9, 40, 64
1, 175200, Note_on_c, 9, 42, 56
1, 175200, Note_on_c, 9, 36, 76
1, 175204, Note_on_c, 9, 42, 0
1, 175319, Note_on_c, 9, 40, 0
1, 175320, Note_on_c, 9, 56, 62
1, 175439, Note_on_c, 9, 56, 0
1, 175440, Note_on_c, 9, 62, 64
1, 175440, Note_on_c, 9, 42, 56
1, 175450, Note_on_c, 9, 42, 0
1, 175679, Note_on_c, 9, 36, 0
1, 175679, Note_on_c, 9, 62, 0
1, 175680, Note_on_c, 9, 42, 56
1, 175680, Note_on_c, 9, 36, 76
1, 175684, Note_on_c, 9, 42, 0
1, 175800, Note_on_c, 9, 62, 64
1, 175919, Note_on_c, 9, 62, 0
1, 175920, Note_on_c, 9, 42, 56
1, 175924, Note_on_c, 9, 42, 0
1, 176040, Note_on_c, 9, 46, 50
1, 176044, Note_on_c, 9, 46, 0
1, 176159, Note_on_c, 9, 36, 0
1, 176160, Note_on_c, 9, 64, 36
1, 176160, Note_on_c, 9, 40, 64
1, 176160, Note_on_c, 9, 39, 81
1, 176160, Note_on_c, 9, 42, 56
1, 176160, Note_on_c, 9, 36, 76
1, 176170, Note_on_c, 9, 64, 0
1, 176170, Note_on_c, 9, 42, 0
1, 176399, Note_on_c, 9, 40, 0
1, 176399, Note_on_c, 9, 39, 0
1, 176400, Note_on_c, 9, 42, 56
1, 176410, Note_on_c, 9, 42, 0
1, 176639, Note_on_c, 9, 36, 0
1, 176640, Note_on_c, 9, 42, 56
1, 176640, Note_on_c, 9, 36, 76
1, 176650, Note_on_c, 9, 42, 0
1, 176880, Note_on_c, 9, 56, 56
1, 176880, Note_on_c, 9, 42, 56
1, 176884, Note_on_c, 9, 42, 0
1, 176999, Note_on_c, 9, 56, 0
1, 177000, Note_on_c, 9, 62, 66
1, 177119, Note_on_c, 9, 36, 0
1, 177119, Note_on_c, 9, 62, 0
1, 177120, Note_on_c, 9, 40, 64
1, 177120, Note_on_c, 9, 42, 56
1, 177120, Note_on_c, 9, 36, 76
1, 177124, Note_on_c, 9, 42, 0
1, 177239, Note_on_c, 9, 40, 0
1, 177240, Note_on_c, 9, 56, 56
1, 177359, Note_on_c, 9, 56, 0
1, 177360, Note_on_c, 9, 62, 62
1, 177360, Note_on_c, 9, 42, 56
1, 177370, Note_on_c, 9, 42, 0
1, 177599, Note_on_c, 9, 36, 0
1, 177599, Note_on_c, 9, 62, 0
1, 177600, Note_on_c, 9, 62, 62
1, 177600, Note_on_c, 9, 42, 56
1, 177600, Note_on_c, 9, 36, 76
1, 177604, Note_on_c, 9, 42, 0
1, 177719, Note_on_c, 9, 62, 0
1, 177720, Note_on_c, 9, 62, 54
1, 177839, Note_on_c, 9, 62, 0
1, 177840, Note_on_c, 9, 42, 56
1, 177844, Note_on_c, 9, 42, 0
1, 177960, Note_on_c, 9, 64, 52
1, 177960, Note_on_c, 9, 46, 28
1, 177964, Note_on_c, 9, 64, 0
1, 177964, Note_on_c, 9, 46, 0
1, 178079, Note_on_c, 9, 36, 0
1, 178080, Note_on_c, 9, 40, 64
1, 178080, Note_on_c, 9, 39, 81
1, 178080, Note_on_c, 9, 42, 56
1, 178080, Note_on_c, 9, 36, 76
1, 178090, Note_on_c, 9, 42, 0
1, 178319, Note_on_c, 9, 40, 0
1, 178319, Note_on_c, 9, 39, 0
1, 178320, Note_on_c, 9, 42, 56
1, 178324, Note_on_c, 9, 42, 0
1, 178440, Note_on_c, 9, 46, 64
1, 178444, Note_on_c, 9, 46, 0
1, 178559, Note_on_c, 9, 36, 0
1, 178560, Note_on_c, 9, 42, 56
1, 178560, Note_on_c, 9, 36, 76
1, 178570, Note_on_c, 9, 42, 0
1, 178800, Note_on_c, 9, 56, 60
1, 178800, Note_on_c, 9, 42, 56
1, 178804, Note_on_c, 9, 42, 0
1, 178919, Note_on_c, 9, 56, 0
1, 178920, Note_on_c, 9, 62, 58
1, 179039, Note_on_c, 9, 36, 0
1, 179039, Note_on_c, 9, 62, 0
1, 179040, Note_on_c, 9, 40, 64
1, 179040, Note_on_c, 9, 42, 56
1, 179040, Note_on_c, 9, 36, 76
1, 179044, Note_on_c, 9, 42, 0
1, 179159, Note_on_c, 9, 40, 0
1, 179160, Note_on_c, 9, 56, 58
1, 179279, Note_on_c, 9, 56, 0
1, 179280, Note_on_c, 9, 62, 56
1, 179280, Note_on_c, 9, 42, 56
1, 179290, Note_on_c, 9, 42, 0
1, 179519, Note_on_c, 9, 36, 0
1, 179519, Note_on_c, 9, 62, 0
1, 179520, Note_on_c, 9, 62, 54
1, 179520, Note_on_c, 9, 42, 56
1, 179520, Note_on_c, 9, 36, 76
1, 179524, Note_on_c, 9, 42, 0
1, 179639, Note_on_c, 9, 62, 0
1, 179640, Note_on_c, 9, 62, 54
1, 179759, Note_on_c, 9, 62, 0
1, 179760, Note_on_c, 9, 42, 56
1, 179764, Note_on_c, 9, 42, 0
1, 179880, Note_on_c, 9, 64, 54
1, 179880, Note_on_c, 9, 46, 27
1, 179884, Note_on_c, 9, 64, 0
1, 179884, Note_on_c, 9, 46, 0
1, 179999, Note_on_c, 9, 36, 0
1, 180000, Note_on_c, 9, 40, 64
1, 180000, Note_on_c, 9, 39, 81
1, 180000, Note_on_c, 9, 42, 56
1, 180000, Note_on_c, 9, 36, 76
1, 180010, Note_on_c, 9, 42, 0
1, 180239, Note_on_c, 9, 40, 0
1, 180239, Note_on_c, 9, 39, 0
1, 180240, Note_on_c, 9, 42, 56
1, 180250, Note_on_c, 9, 42, 0
1, 180479, Note_on_c, 9, 36, 0
1, 180480, Note_on_c, 9, 42, 56
1, 180480, Note_on_c, 9, 36, 76
1, 180490, Note_on_c, 9, 42, 0
1, 180720, Note_on_c, 9, 56, 56
1, 180720, Note_on_c, 9, 42, 56
1, 180724, Note_on_c, 9, 42, 0
1, 180839, Note_on_c, 9, 56, 0
1, 180840, Note_on_c, 9, 62, 58
1, 180959, Note_on_c, 9, 36, 0
1, 180959, Note_on_c, 9, 62, 0
1, 180960, Note_on_c, 9, 40, 64
1, 180960, Note_on_c, 9, 42, 56
1, 180960, Note_on_c, 9, 36, 76
1, 180964, Note_on_c, 9, 42, 0
1, 181079, Note_on_c, 9, 40, 0
1, 181080, Note_on_c, 9, 56, 58
1, 181199, Note_on_c, 9, 56, 0
1, 181200, Note_on_c, 9, 62, 52
1, 181200, Note_on_c, 9, 42, 56
1, 181210, Note_on_c, 9, 42, 0
1, 181439, Note_on_c, 9, 36, 0
1, 181439, Note_on_c, 9, 62, 0
1, 181440, Note_on_c, 9, 42, 56
1, 181440, Note_on_c, 9, 36, 76
1, 181444, Note_on_c, 9, 42, 0
1, 181560, Note_on_c, 9, 62, 54
1, 181679, Note_on_c, 9, 62, 0
1, 181680, Note_on_c, 9, 42, 56
1, 181684, Note_on_c, 9, 42, 0
1, 181800, Note_on_c, 9, 64, 56
1, 181800, Note_on_c, 9, 46, 28
1, 181804, Note_on_c, 9, 64, 0
1, 181804, Note_on_c, 9, 46, 0
1, 181919, Note_on_c, 9, 36, 0
1, 181920, Note_on_c, 9, 40, 64
1, 181920, Note_on_c, 9, 39, 81
1, 181920, Note_on_c, 9, 42, 56
1, 181920, Note_on_c, 9, 36, 76
1, 181930, Note_on_c, 9, 42, 0
1, 182159, Note_on_c, 9, 40, 0
1, 182159, Note_on_c, 9, 39, 0
1, 182160, Note_on_c, 9, 42, 56
1, 182164, Note_on_c, 9, 42, 0
1, 182280, Note_on_c, 9, 46, 37
1, 182284, Note_on_c, 9, 46, 0
1, 182399, Note_on_c, 9, 36, 0
1, 182400, Note_on_c, 9, 42, 68
1, 182400, Note_on_c, 9, 36, 76
1, 182410, Note_on_c, 9, 42, 0
1, 182640, Note_on_c, 9, 56, 58
1, 182640, Note_on_c, 9, 42, 56
1, 182644, Note_on_c, 9, 42, 0
1, 182759, Note_on_c, 9, 56, 0
1, 182760, Note_on_c, 9, 62, 60
1, 182879, Note_on_c, 9, 36, 0
1, 182879, Note_on_c, 9, 62, 0
1, 182880, Note_on_c, 9, 40, 64
1, 182880, Note_on_c, 9, 42, 56
1, 182880, Note_on_c, 9, 36, 76
1, 182884, Note_on_c, 9, 42, 0
1, 182999, Note_on_c, 9, 40, 0
1, 183000, Note_on_c, 9, 56, 62
1, 183119, Note_on_c, 9, 56, 0
1, 183120, Note_on_c, 9, 62, 64
1, 183120, Note_on_c, 9, 42, 56
1, 183130, Note_on_c, 9, 42, 0
1, 183359, Note_on_c, 9, 36, 0
1, 183359, Note_on_c, 9, 62, 0
1, 183360, Note_on_c, 9, 42, 56
1, 183360, Note_on_c, 9, 36, 76
1, 183364, Note_on_c, 9, 42, 0
1, 183480, Note_on_c, 9, 62, 64
1, 183599, Note_on_c, 9, 62, 0
1, 183600, Note_on_c, 9, 42, 56
1, 183604, Note_on_c, 9, 42, 0
1, 183720, Note_on_c, 9, 46, 50
1, 183724, Note_on_c, 9, 46, 0
1, 183839, Note_on_c, 9, 36, 0
1, 183840, Note_on_c, 9, 64, 36
1, 183840, Note_on_c, 9, 40, 64
1, 183840, Note_on_c, 9, 39, 81
1, 183840, Note_on_c, 9, 42, 56
1, 183840, Note_on_c, 9, 36, 76
1, 183850, Note_on_c, 9, 64, 0
1, 183850, Note_on_c, 9, 42, 0
1, 184079, Note_on_c, 9, 40, 0
1, 184079, Note_on_c, 9, 39, 0
1, 184080, Note_on_c, 9, 42, 56
1, 184090, Note_on_c, 9, 42, 0
1, 184319, Note_on_c, 9, 36, 0
1, 184320, Note_on_c, 9, 42, 56
1, 184320, Note_on_c, 9, 36, 76
1, 184330, Note_on_c, 9, 42, 0
1, 184560, Note_on_c, 9, 56, 56
1, 184560, Note_on_c, 9, 42, 56
1, 184564, Note_on_c, 9, 42, 0
1, 184679, Note_on_c, 9, 56, 0
1, 184680, Note_on_c, 9, 62, 66
1, 184799, Note_on_c, 9, 36, 0
1, 184799, Note_on_c, 9, 62, 0
1, 184800, Note_on_c, 9, 40, 64
1, 184800, Note_on_c, 9, 42, 56
1, 184800, Note_on_c, 9, 36, 76
1, 184804, Note_on_c, 9, 42, 0
1, 184919, Note_on_c, 9, 40, 0
1, 184920, Note_on_c, 9, 56, 56
1, 185039, Note_on_c, 9, 56, 0
1, 185040, Note_on_c, 9, 62, 62
1, 185040, Note_on_c, 9, 42, 56
1, 185050, Note_on_c, 9, 42, 0
1, 185279, Note_on_c, 9, 36, 0
1, 185279, Note_on_c, 9, 62, 0
1, 185280, Note_on_c, 9, 62, 62
1, 185280, Note_on_c, 9, 42, 56
1, 185280, Note_on_c, 9, 36, 76
1, 185284, Note_on_c, 9, 42, 0
1, 185399, Note_on_c, 9, 62, 0
1, 185400, Note_on_c, 9, 62, 54
1, 185519, Note_on_c, 9, 62, 0
1, 185520, Note_on_c, 9, 42, 56
1, 185524, Note_on_c, 9, 42, 0
1, 185640, Note_on_c, 9, 64, 52
1, 185640, Note_on_c, 9, 46, 28
1, 185644, Note_on_c, 9, 64, 0
1, 185644, Note_on_c, 9, 46, 0
1, 185759, Note_on_c, 9, 36, 0
1, 185760, Note_on_c, 9, 40, 64
1, 185760, Note_on_c, 9, 39, 81
1, 185760, Note_on_c, 9, 42, 56
1, 185760, Note_on_c, 9, 36, 76
1, 185770, Note_on_c, 9, 42, 0
1, 185999, Note_on_c, 9, 40, 0
1, 185999, Note_on_c, 9, 39, 0
1, 186000, Note_on_c, 9, 42, 56
1, 186004, Note_on_c, 9, 42, 0
1, 186120, Note_on_c, 9, 46, 64
1, 186124, Note_on_c, 9, 46, 0
1, 186239, Note_on_c, 9, 36, 0
1, 186240, Note_on_c, 9, 42, 56
1, 186240, Note_on_c, 9, 36, 76
1, 186250, Note_on_c, 9, 42, 0
1, 186480, Note_on_c, 9, 56, 60
1, 186480, Note_on_c, 9, 42, 56
1, 186484, Note_on_c, 9, 42, 0
1, 186599, Note_on_c, 9, 56, 0
1, 186600, Note_on_c, 9, 62, 58
1, 186719, Note_on_c, 9, 36, 0
1, 186719, Note_on_c, 9, 62, 0
1, 186720, Note_on_c, 9, 40, 64
1, 186720, Note_on_c, 9, 42, 56
1, 186720, Note_on_c, 9, 36, 76
1, 186724, Note_on_c, 9, 42, 0
1, 186839, Note_on_c, 9, 40, 0
1, 186840, Note_on_c, 9, 56, 58
1, 186959, Note_on_c, 9, 56, 0
1, 186960, Note_on_c, 9, 62, 56
1, 186960, Note_on_c, 9, 42, 56
1, 186970, Note_on_c, 9, 42, 0
1, 187199, Note_on_c, 9, 36, 0
1, 187199, Note_on_c, 9, 62, 0
1, 187200, Note_on_c, 9, 62, 54
1, 187200, Note_on_c, 9, 42, 56
1, 187200, Note_on_c, 9, 36, 76
1, 187204, Note_on_c, 9, 42, 0
1, 187319, Note_on_c, 9, 62, 0
1, 187320, Note_on_c, 9, 62, 54
1, 187439, Note_on_c, 9, 62, 0
1, 187440, Note_on_c, 9, 42, 56
1, 187444, Note_on_c, 9, 42, 0
1, 187560, Note_on_c, 9, 64, 54
1, 187560, Note_on_c, 9, 46, 27
1, 187564, Note_on_c, 9, 64, 0
1, 187564, Note_on_c, 9, 46, 0
1, 187679, Note_on_c, 9, 36, 0
1, 187680, Note_on_c, 9, 40, 64
1, 187680, Note_on_c, 9, 39, 81
1, 187680, Note_on_c, 9, 42, 56
1, 187680, Note_on_c, 9, 36, 76
1, 187690, Note_on_c, 9, 42, 0
1, 187919, Note_on_c, 9, 40, 0
1, 187919, Note_on_c, 9, 39, 0
1, 187920, Note_on_c, 9, 42, 56
1, 187930, Note_on_c, 9, 42, 0
1, 188159, Note_on_c, 9, 36, 0
1, 188160, Note_on_c, 9, 42, 56
1, 188160, Note_on_c, 9, 36, 76
1, 188170, Note_on_c, 9, 42, 0
1, 188400, Note_on_c, 9, 56, 56
1, 188400, Note_on_c, 9, 42, 56
1, 188404, Note_on_c, 9, 42, 0
1, 188519, Note_on_c, 9, 56, 0
1, 188520, Note_on_c, 9, 62, 58
1, 188639, Note_on_c, 9, 36, 0
1, 188639, Note_on_c, 9, 62, 0
1, 188640, Note_on_c, 9, 40, 64
1, 188640, Note_on_c, 9, 42, 56
1, 188640, Note_on_c, 9, 36, 76
1, 188644, Note_on_c, 9, 42, 0
1, 188759, Note_on_c, 9, 40, 0
1, 188760, Note_on_c, 9, 56, 58
1, 188879, Note_on_c, 9, 56, 0
1, 188880, Note_on_c, 9, 62, 52
1, 188880, Note_on_c, 9, 42, 56
1, 188890, Note_on_c, 9, 42, 0
1, 189119, Note_on_c, 9, 36, 0
1, 189119, Note_on_c, 9, 62, 0
1, 189120, Note_on_c, 9, 42, 56
1, 189120, Note_on_c, 9, 36, 76
1, 189124, Note_on_c, 9, 42, 0
1, 189240, Note_on_c, 9, 62, 54
1, 189359, Note_on_c, 9, 62, 0
1, 189360, Note_on_c, 9, 42, 56
1, 189364, Note_on_c, 9, 42, 0
1, 189480, Note_on_c, 9, 64, 56
1, 189480, Note_on_c, 9, 46, 28
1, 189484, Note_on_c, 9, 64, 0
1, 189484, Note_on_c, 9, 46, 0
1, 189599, Note_on_c, 9, 36, 0
1, 189600, Note_on_c, 9, 40, 64
1, 189600, Note_on_c, 9, 39, 81
1, 189600, Note_on_c, 9, 42, 56
1, 189600, Note_on_c, 9, 36, 76
1, 189610, Note_on_c, 9, 42, 0
1, 189839, Note_on_c, 9, 40, 0
1, 189839, Note_on_c, 9, 39, 0
1, 189840, Note_on_c, 9, 42, 56
1, 189844, Note_on_c, 9, 42, 0
1, 189960, Note_on_c, 9, 46, 37
1, 189964, Note_on_c, 9, 46, 0
1, 190079, Note_on_c, 9, 36, 0
1, 190080, Note_on_c, 9, 42, 68
1, 190080, Note_on_c, 9, 36, 76
1, 190090, Note_on_c, 9, 42, 0
1, 190320, Note_on_c, 9, 56, 58
1, 190320, Note_on_c, 9, 42, 56
1, 190324, Note_on_c, 9, 42, 0
1, 190439, Note_on_c, 9, 56, 0
1, 190440, Note_on_c, 9, 62, 60
1, 190559, Note_on_c, 9, 36, 0
1, 190559, Note_on_c, 9, 62, 0
1, 190560, Note_on_c, 9, 40, 64
1, 190560, Note_on_c, 9, 42, 56
1, 190560, Note_on_c, 9, 36, 76
1, 190564, Note_on_c, 9, 42, 0
1, 190679, Note_on_c, 9, 40, 0
1, 190680, Note_on_c, 9, 56, 62
1, 190799, Note_on_c, 9, 56, 0
1, 190800, Note_on_c, 9, 62, 64
1, 190800, Note_on_c, 9, 42, 56
1, 190810, Note_on_c, 9, 42, 0
1, 191039, Note_on_c, 9, 36, 0
1, 191039, Note_on_c, 9, 62, 0
1, 191040, Note_on_c, 9, 42, 56
1, 191040, Note_on_c, 9, 36, 76
1, 191044, Note_on_c, 9, 42, 0
1, 191160, Note_on_c, 9, 62, 64
1, 191279, Note_on_c, 9, 62, 0
1, 191280, Note_on_c, 9, 42, 56
1, 191284, Note_on_c, 9, 42, 0
1, 191400, Note_on_c, 9, 46, 50
1, 191404, Note_on_c, 9, 46, 0
1, 191519, Note_on_c, 9, 36, 0
1, 191520, Note_on_c, 9, 64, 36
1, 191520, Note_on_c, 9, 40, 64
1, 191520, Note_on_c, 9, 39, 81
1, 191520, Note_on_c, 9, 42, 56
1, 191520, Note_on_c, 9, 36, 76
1, 191530, Note_on_c, 9, 64, 0
1, 191530, Note_on_c, 9, 42, 0
1, 191759, Note_on_c, 9, 40, 0
1, 191759, Note_on_c, 9, 39, 0
1, 191760, Note_on_c, 9, 42, 56
1, 191770, Note_on_c, 9, 42, 0
1, 191999, Note_on_c, 9, 36, 0
1, 192000, Note_on_c, 9, 42, 56
1, 192000, Note_on_c, 9, 36, 76
1, 192010, Note_on_c, 9, 42, 0
1, 192240, Note_on_c, 9, 56, 56
1, 192240, Note_on_c, 9, 42, 56
1, 192244, Note_on_c, 9, 42, 0
1, 192359, Note_on_c, 9, 56, 0
1, 192360, Note_on_c, 9, 62, 66
1, 192479, Note_on_c, 9, 36, 0
1, 192479, Note_on_c, 9, 62, 0
1, 192480, Note_on_c, 9, 40, 64
1, 192480, Note_on_c, 9, 42, 56
1, 192480, Note_on_c, 9, 36, 76
1, 192484, Note_on_c, 9, 42, 0
1, 192599, Note_on_c, 9, 40, 0
1, 192600, Note_on_c, 9, 56, 56
1, 192719, Note_on_c, 9, 56, 0
1, 192720, Note_on_c, 9, 62, 62
1, 192720, Note_on_c, 9, 42, 56
1, 192730, Note_on_c, 9, 42, 0
1, 192959, Note_on_c, 9, 36, 0
1, 192959, Note_on_c, 9, 62, 0
1, 192960, Note_on_c, 9, 62, 62
1, 192960, Note_on_c, 9, 42, 56
1, 192960, Note_on_c, 9, 36, 76
1, 192964, Note_on_c, 9, 42, 0
1, 193079, Note_on_c, 9, 62, 0
1, 193080, Note_on_c, 9, 62, 54
1, 193199, Note_on_c, 9, 62, 0
1, 193200, Note_on_c, 9, 42, 56
1, 193204, Note_on_c, 9, 42, 0
1, 193320, Note_on_c, 9, 64, 52
1, 193320, Note_on_c, 9, 46, 28
1, 193324, Note_on_c, 9, 64, 0
1, 193324, Note_on_c, 9, 46, 0
1, 193439, Note_on_c, 9, 36, 0
1, 193440, Note_on_c, 9, 40, 64
1, 193440, Note_on_c, 9, 39, 81
1, 193440, Note_on_c, 9, 42, 56
1, 193440, Note_on_c, 9, 36, 76
1, 193450, Note_on_c, 9, 42, 0
1, 193679, Note_on_c, 9, 40, 0
1, 193679, Note_on_c, 9, 39, 0
1, 193680, Note_on_c, 9, 42, 56
1, 193684, Note_on_c, 9, 42, 0
1, 193800, Note_on_c, 9, 46, 64
1, 193804, Note_on_c, 9, 46, 0
1, 193919, Note_on_c, 9, 36, 0
1, 193920, Note_on_c, 9, 42, 56
1, 193920, Note_on_c, 9, 36, 76
1, 193930, Note_on_c, 9, 42, 0
1, 194160, Note_on_c, 9, 56, 60
1, 194160, Note_on_c, 9, 42, 56
1, 194164, Note_on_c, 9, 42, 0
1, 194279, Note_on_c, 9, 56, 0
1, 194280, Note_on_c, 9, 62, 58
1, 194399, Note_on_c, 9, 36, 0
1, 194399, Note_on_c, 9, 62, 0
1, 194400, Note_on_c, 9, 40, 64
1, 194400, Note_on_c, 9, 42, 56
1, 194400, Note_on_c, 9, 36, 76
1, 194404, Note_on_c, 9, 42, 0
1, 194519, Note_on_c, 9, 40, 0
1, 194520, Note_on_c, 9, 56, 58
1, 194639, Note_on_c, 9, 56, 0
1, 194640, Note_on_c, 9, 62, 56
1, 194640, Note_on_c, 9, 42, 56
1, 194650, Note_on_c, 9, 42, 0
1, 194879, Note_on_c, 9, 36, 0
1, 194879, Note_on_c, 9, 62, 0
1, 194880, Note_on_c, 9, 62, 54
1, 194880, Note_on_c, 9, 42, 56
1, 194880, Note_on_c, 9, 36, 76
1, 194884, Note_on_c, 9, 42, 0
1, 194999, Note_on_c, 9, 62, 0
1, 195000, Note_on_c, 9, 62, 54
1, 195119, Note_on_c, 9, 62, 0
1, 195120, Note_on_c, 9, 42, 56
1, 195124, Note_on_c, 9, 42, 0
1, 195240, Note_on_c, 9, 64, 54
1, 195240, Note_on_c, 9, 46, 27
1, 195244, Note_on_c, 9, 64, 0
1, 195244, Note_on_c, 9, 46, 0
1, 195359, Note_on_c, 9, 36, 0
1, 195360, Note_on_c, 9, 40, 64
1, 195360, Note_on_c, 9, 39, 81
1, 195360, Note_on_c, 9, 42, 56
1, 195360, Note_on_c, 9, 36, 76
1, 195370, Note_on_c, 9, 42, 0
1, 195599, Note_on_c, 9, 40, 0
1, 195599, Note_on_c, 9, 39, 0
1, 195600, Note_on_c, 9, 42, 56
1, 195610, Note_on_c, 9, 42, 0
1, 195839, Note_on_c, 9, 36, 0
1, 195840, Note_on_c, 9, 42, 56
1, 195840, Note_on_c, 9, 36, 76
1, 195850, Note_on_c, 9, 42, 0
1, 196080, Note_on_c, 9, 56, 56
1, 196080, Note_on_c, 9, 42, 56
1, 196084, Note_on_c, 9, 42, 0
1, 196199, Note_on_c, 9, 56, 0
1, 196200, Note_on_c, 9, 62, 58
1, 196319, Note_on_c, 9, 36, 0
1, 196319, Note_on_c, 9, 62, 0
1, 196320, Note_on_c, 9, 40, 64
1, 196320, Note_on_c, 9, 42, 56
1, 196320, Note_on_c, 9, 36, 76
1, 196324, Note_on_c, 9, 42, 0
1, 196439, Note_on_c, 9, 40, 0
1, 196440, Note_on_c, 9, 56, 58
1, 196559, Note_on_c, 9, 56, 0
1, 196560, Note_on_c, 9, 62, 52
1, 196560, Note_on_c, 9, 42, 56
1, 196570, Note_on_c, 9, 42, 0
1, 196799, Note_on_c, 9, 36, 0
1, 196799, Note_on_c, 9, 62, 0
1, 196800, Note_on_c, 9, 42, 56
1, 196800, Note_on_c, 9, 36, 76
1, 196804, Note_on_c, 9, 42, 0
1, 196920, Note_on_c, 9, 62, 54
1, 197039, Note_on_c, 9, 62, 0
1, 197040, Note_on_c, 9, 42, 56
1, 197044, Note_on_c, 9, 42, 0
1, 197160, Note_on_c, 9, 64, 56
1, 197160, Note_on_c, 9, 46, 28
1, 197164, Note_on_c, 9, 64, 0
1, 197164, Note_on_c, 9, 46, 0
1, 197279, Note_on_c, 9, 36, 0
1, 197280, Note_on_c, 9, 40, 64
1, 197280, Note_on_c, 9, 39, 81
1, 197280, Note_on_c, 9, 42, 56
1, 197280, Note_on_c, 9, 36, 76
1, 197290, Note_on_c, 9, 42, 0
1, 197519, Note_on_c, 9, 40, 0
1, 197519, Note_on_c, 9, 39, 0
1, 197520, Note_on_c, 9, 42, 56
1, 197524, Note_on_c, 9, 42, 0
1, 197640, Note_on_c, 9, 46, 37
1, 197644, Note_on_c, 9, 46, 0
1, 197759, Note_on_c, 9, 36, 0
1, 197760, Note_on_c, 9, 42, 68
1, 197760, Note_on_c, 9, 36, 76
1, 197770, Note_on_c, 9, 42, 0
1, 198000, Note_on_c, 9, 56, 58
1, 198000, Note_on_c, 9, 42, 56
1, 198004, Note_on_c, 9, 42, 0
1, 198119, Note_on_c, 9, 56, 0
1, 198120, Note_on_c, 9, 62, 60
1, 198239, Note_on_c, 9, 36, 0
1, 198239, Note_on_c, 9, 62, 0
1, 198240, Note_on_c, 9, 40, 64
1, 198240, Note_on_c, 9, 42, 56
1, 198240, Note_on_c, 9, 36, 76
1, 198244, Note_on_c, 9, 42, 0
1, 198359, Note_on_c, 9, 40, 0
1, 198360, Note_on_c, 9, 56, 62
1, 198479, Note_on_c, 9, 56, 0
1, 198480, Note_on_c, 9, 62, 64
1, 198480, Note_on_c, 9, 42, 56
1, 198490, Note_on_c, 9, 42, 0
1, 198719, Note_on_c, 9, 36, 0
1, 198719, Note_on_c, 9, 62, 0
1, 198720, Note_on_c, 9, 42, 56
1, 198720, Note_on_c, 9, 36, 76
1, 198724, Note_on_c, 9, 42, 0
1, 198840, Note_on_c, 9, 62, 64
1, 198959, Note_on_c, 9, 62, 0
1, 198960, Note_on_c, 9, 42, 56
1, 198964, Note_on_c, 9, 42, 0
1, 199080, Note_on_c, 9, 46, 50
1, 199084, Note_on_c, 9, 46, 0
1, 199199, Note_on_c, 9, 36, 0
1, 199200, Note_on_c, 9, 64, 36
1, 199200, Note_on_c, 9, 40, 64
1, 199200, Note_on_c, 9, 39, 81
1, 199200, Note_on_c, 9, 42, 56
1, 199200, Note_on_c, 9, 36, 76
1, 199210, Note_on_c, 9, 64, 0
1, 199210, Note_on_c, 9, 42, 0
1, 199439, Note_on_c, 9, 40, 0
1, 199439, Note_on_c, 9, 39, 0
1, 199440, Note_on_c, 9, 42, 56
1, 199450, Note_on_c, 9, 42, 0
1, 199679, Note_on_c, 9, 36, 0
1, 199680, Note_on_c, 9, 42, 56
1, 199680, Note_on_c, 9, 36, 76
1, 199690, Note_on_c, 9, 42, 0
1, 199920, Note_on_c, 9, 56, 56
1, 199920, Note_on_c, 9, 42, 56
1, 199924, Note_on_c, 9, 42, 0
1, 200039, Note_on_c, 9, 56, 0
1, 200040, Note_on_c, 9, 62, 66
1, 200159, Note_on_c, 9, 36, 0
1, 200159, Note_on_c, 9, 62, 0
1, 200160, Note_on_c, 9, 40, 64
1, 200160, Note_on_c, 9, 42, 56
1, 200160, Note_on_c, 9, 36, 76
1, 200164, Note_on_c, 9, 42, 0
1, 200279, Note_on_c, 9, 40, 0
1, 200280, Note_on_c, 9, 56, 56
1, 200399, Note_on_c, 9, 56, 0
1, 200400, Note_on_c, 9, 62, 62
1, 200400, Note_on_c, 9, 42, 56
1, 200410, Note_on_c, 9, 42, 0
1, 200639, Note_on_c, 9, 36, 0
1, 200639, Note_on_c, 9, 62, 0
1, 200640, Note_on_c, 9, 62, 62
1, 200640, Note_on_c, 9, 42, 56
1, 200640, Note_on_c, 9, 36, 76
1, 200644, Note_on_c, 9, 42, 0
1, 200759, Note_on_c, 9, 62, 0
1, 200760, Note_on_c, 9, 62, 54
1, 200879, Note_on_c, 9, 62, 0
1, 200880, Note_on_c, 9, 42, 56
1, 200884, Note_on_c, 9, 42, 0
1, 201000, Note_on_c, 9, 64, 52
1, 201000, Note_on_c, 9, 46, 28
1, 201004, Note_on_c, 9, 64, 0
1, 201004, Note_on_c, 9, 46, 0
1, 201119, Note_on_c, 9, 36, 0
1, 201120, Note_on_c, 9, 40, 64
1, 201120, Note_on_c, 9, 39, 81
1, 201120, Note_on_c, 9, 42, 56
1, 201120, Note_on_c, 9, 36, 76
1, 201130, Note_on_c, 9, 42, 0
1, 201359, Note_on_c, 9, 40, 0
1, 201359, Note_on_c, 9, 39, 0
1, 201360, Note_on_c, 9, 42, 56
1, 201364, Note_on_c, 9, 42, 0
1, 201480, Note_on_c, 9, 46, 64
1, 201484, Note_on_c, 9, 46, 0
1, 201599, Note_on_c, 9, 36, 0
1, 201600, Note_on_c, 9, 42, 56
1, 201600, Note_on_c, 9, 36, 76
1, 201610, Note_on_c, 9, 42, 0
1, 201840, Note_on_c, 9, 56, 60
1, 201840, Note_on_c, 9, 42, 56
1, 201844, Note_on_c, 9, 42, 0
1, 201959, Note_on_c, 9, 56, 0
1, 201960, Note_on_c, 9, 62, 58
1, 202079, Note_on_c, 9, 36, 0
1, 202079, Note_on_c, 9, 62, 0
1, 202080, Note_on_c, 9, 40, 64
1, 202080, Note_on_c, 9, 42, 56
1, 202080, Note_on_c, 9, 36, 76
1, 202084, Note_on_c, 9, 42, 0
1, 202199, Note_on_c, 9, 40, 0
1, 202200, Note_on_c, 9, 56, 58
1, 202319, Note_on_c, 9, 56, 0
1, 202320, Note_on_c, 9, 62, 56
1, 202320, Note_on_c, 9, 42, 56
1, 202330, Note_on_c, 9, 42, 0
1, 202559, Note_on_c, 9, 36, 0
1, 202559, Note_on_c, 9, 62, 0
1, 202560, Note_on_c, 9, 62, 54
1, 202560, Note_on_c, 9, 42, 56
1, 202560, Note_on_c, 9, 36, 76
1, 202564, Note_on_c, 9, 42, 0
1, 202679, Note_on_c, 9, 62, 0
1, 202680, Note_on_c, 9, 62, 54
1, 202799, Note_on_c, 9, 62, 0
1, 202800, Note_on_c, 9, 42, 56
1, 202804, Note_on_c, 9, 42, 0
1, 202920, Note_on_c, 9, 64, 54
1, 202920, Note_on_c, 9, 46, 27
1, 202924, Note_on_c, 9, 64, 0
1, 202924, Note_on_c, 9, 46, 0
1, 203039, Note_on_c, 9, 36, 0
1, 203040, Note_on_c, 9, 40, 64
1, 203040, Note_on_c, 9, 39, 81
1, 203040, Note_on_c, 9, 42, 56
1, 203040, Note_on_c, 9, 36, 76
1, 203050, Note_on_c, 9, 42, 0
1, 203279, Note_on_c, 9, 40, 0
1, 203279, Note_on_c, 9, 39, 0
1, 203280, Note_on_c, 9, 42, 56
1, 203290, Note_on_c, 9, 42, 0
1, 203519, Note_on_c, 9, 36, 0
1, 203520, Note_on_c, 9, 42, 56
1, 203520, Note_on_c, 9, 36, 76
1, 203530, Note_on_c, 9, 42, 0
1, 203760, Note_on_c, 9, 56, 56
1, 203760, Note_on_c, 9, 42, 56
1, 203764, Note_on_c, 9, 42, 0
1, 203879, Note_on_c, 9, 56, 0
1, 203880, Note_on_c, 9, 62, 58
1, 203999, Note_on_c, 9, 36, 0
1, 203999, Note_on_c, 9, 62, 0
1, 204000, Note_on_c, 9, 40, 64
1, 204000, Note_on_c, 9, 42, 56
1, 204000, Note_on_c, 9, 36, 76
1, 204004, Note_on_c, 9, 42, 0
1, 204119, Note_on_c, 9, 40, 0
1, 204120, Note_on_c, 9, 56, 58
1, 204239, Note_on_c, 9, 56, 0
1, 204240, Note_on_c, 9, 62, 52
1, 204240, Note_on_c, 9, 42, 56
1, 204250, Note_on_c, 9, 42, 0
1, 204479, Note_on_c, 9, 36, 0
1, 204479, Note_on_c, 9, 62, 0
1, 204480, Note_on_c, 9, 42, 56
1, 204480, Note_on_c, 9, 36, 76
1, 204484, Note_on_c, 9, 42, 0
1, 204600, Note_on_c, 9, 62, 54
1, 204719, Note_on_c, 9, 62, 0
1, 204720, Note_on_c, 9, 42, 56
1, 204724, Note_on_c, 9, 42, 0
1, 204840, Note_on_c, 9, 64, 56
1, 204840, Note_on_c, 9, 46, 28
1, 204844, Note_on_c, 9, 64, 0
1, 204844, Note_on_c, 9, 46, 0
1, 204959, Note_on_c, 9, 36, 0
1, 204960, Note_on_c, 9, 40, 64
1, 204960, Note_on_c, 9, 39, 81
1, 204960, Note_on_c, 9, 42, 56
1, 204960, Note_on_c, 9, 36, 76
1, 204970, Note_on_c, 9, 42, 0
1, 205199, Note_on_c, 9, 40, 0
1, 205199, Note_on_c, 9, 39, 0
1, 205200, Note_on_c, 9, 42, 56
1, 205204, Note_on_c, 9, 42, 0
1, 205320, Note_on_c, 9, 46, 37
1, 205324, Note_on_c, 9, 46, 0
1, 205439, Note_on_c, 9, 36, 0
1, 205440, Note_on_c, 9, 42, 68
1, 205440, Note_on_c, 9, 36, 76
1, 205450, Note_on_c, 9, 42, 0
1, 205680, Note_on_c, 9, 56, 58
1, 205680, Note_on_c, 9, 42, 56
1, 205684, Note_on_c, 9, 42, 0
1, 205799, Note_on_c, 9, 56, 0
1, 205800, Note_on_c, 9, 62, 60
1, 205919, Note_on_c, 9, 36, 0
1, 205919, Note_on_c, 9, 62, 0
1, 205920, Note_on_c, 9, 40, 64
1, 205920, Note_on_c, 9, 42, 56
1, 205920, Note_on_c, 9, 36, 76
1, 205924, Note_on_c, 9, 42, 0
1, 206039, Note_on_c, 9, 40, 0
1, 206040, Note_on_c, 9, 56, 62
1, 206159, Note_on_c, 9, 56, 0
1, 206160, Note_on_c, 9, 62, 64
1, 206160, Note_on_c, 9, 42, 56
1, 206170, Note_on_c, 9, 42, 0
1, 206399, Note_on_c, 9, 36, 0
1, 206399, Note_on_c, 9, 62, 0
1, 206400, Note_on_c, 9, 42, 56
1, 206400, Note_on_c, 9, 36, 76
1, 206404, Note_on_c, 9, 42, 0
1, 206520, Note_on_c, 9, 62, 64
1, 206639, Note_on_c, 9, 62, 0
1, 206640, Note_on_c, 9, 42, 56
1, 206644, Note_on_c, 9, 42, 0
1, 206760, Note_on_c, 9, 46, 50
1, 206764, Note_on_c, 9, 46, 0
1, 206879, Note_on_c, 9, 36, 0
1, 206880, Note_on_c, 9, 64, 36
1, 206880, Note_on_c, 9, 40, 64
1, 206880, Note_on_c, 9, 39, 81
1, 206880, Note_on_c, 9, 42, 56
1, 206880, Note_on_c, 9, 36, 76
1, 206890, Note_on_c, 9, 64, 0
1, 206890, Note_on_c, 9, 42, 0
1, 207119, Note_on_c, 9, 40, 0
1, 207119, Note_on_c, 9, 39, 0
1, 207120, Note_on_c, 9, 42, 56
1, 207130, Note_on_c, 9, 42, 0
1, 207359, Note_on_c, 9, 36, 0
1, 207360, Note_on_c, 9, 42, 56
1, 207360, Note_on_c, 9, 36, 76
1, 207370, Note_on_c, 9, 42, 0
1, 207600, Note_on_c, 9, 56, 56
1, 207600, Note_on_c, 9, 42, 56
1, 207604, Note_on_c, 9, 42, 0
1, 207719, Note_on_c, 9, 56, 0
1, 207720, Note_on_c, 9, 62, 66
1, 207839, Note_on_c, 9, 36, 0
1, 207839, Note_on_c, 9, 62, 0
1, 207840, Note_on_c, 9, 40, 64
1, 207840, Note_on_c, 9, 42, 56
1, 207840, Note_on_c, 9, 36, 76
1, 207844, Note_on_c, 9, 42, 0
1, 207959, Note_on_c, 9, 40, 0
1, 207960, Note_on_c, 9, 56, 56
1, 208079, Note_on_c, 9, 56, 0
1, 208080, Note_on_c, 9, 62, 62
1, 208080, Note_on_c, 9, 42, 56
1, 208090, Note_on_c, 9, 42, 0
1, 208319, Note_on_c, 9, 36, 0
1, 208319, Note_on_c, 9, 62, 0
1, 208320, Note_on_c, 9, 62, 62
1, 208320, Note_on_c, 9, 42, 56
1, 208320, Note_on_c, 9, 36, 76
1, 208324, Note_on_c, 9, 42, 0
1, 208439, Note_on_c, 9, 62, 0
1, 208440, Note_on_c, 9, 62, 54
1, 208559, Note_on_c, 9, 62, 0
1, 208560, Note_on_c, 9, 42, 56
1, 208564, Note_on_c, 9, 42, 0
1, 208680, Note_on_c, 9, 64, 52
1, 208680, Note_on_c, 9, 46, 28
1, 208684, Note_on_c, 9, 64, 0
1, 208684, Note_on_c, 9, 46, 0
1, 208799, Note_on_c, 9, 36, 0
1, 208800, Note_on_c, 9, 40, 64
1, 208800, Note_on_c, 9, 39, 81
1, 208800, Note_on_c, 9, 42, 56
1, 208800, Note_on_c, 9, 36, 76
1, 208810, Note_on_c, 9, 42, 0
1, 209039, Note_on_c, 9, 40, 0
1, 209039, Note_on_c, 9, 39, 0
1, 209040, Note_on_c, 9, 42, 56
1, 209044, Note_on_c, 9, 42, 0
1, 209160, Note_on_c, 9, 46, 64
1, 209164, Note_on_c, 9, 46, 0
1, 209279, Note_on_c, 9, 36, 0
1, 209280, Note_on_c, 9, 42, 56
1, 209280, Note_on_c, 9, 36, 76
1, 209290, Note_on_c, 9, 42, 0
1, 209520, Note_on_c, 9, 56, 60
1, 209520, Note_on_c, 9, 42, 56
1, 209524, Note_on_c, 9, 42, 0
1, 209639, Note_on_c, 9, 56, 0
1, 209640, Note_on_c, 9, 62, 58
1, 209759, Note_on_c, 9, 36, 0
1, 209759, Note_on_c, 9, 62, 0
1, 209760, Note_on_c, 9, 40, 64
1, 209760, Note_on_c, 9, 42, 56
1, 209760, Note_on_c, 9, 36, 76
1, 209764, Note_on_c, 9, 42, 0
1, 209879, Note_on_c, 9, 40, 0
1, 209880, Note_on_c, 9, 56, 58
1, 209999, Note_on_c, 9, 56, 0
1, 210000, Note_on_c, 9, 62, 56
1, 210000, Note_on_c, 9, 42, 56
1, 210010, Note_on_c, 9, 42, 0
1, 210239, Note_on_c, 9, 36, 0
1, 210239, Note_on_c, 9, 62, 0
1, 210240, Note_on_c, 9, 62, 54
1, 210240, Note_on_c, 9, 42, 56
1, 210240, Note_on_c, 9, 36, 76
1, 210244, Note_on_c, 9, 42, 0
1, 210359, Note_on_c, 9, 62, 0
1, 210360, Note_on_c, 9, 62, 54
1, 210479, Note_on_c, 9, 62, 0
1, 210480, Note_on_c, 9, 42, 56
1, 210484, Note_on_c, 9, 42, 0
1, 210600, Note_on_c, 9, 64, 54
1, 210600, Note_on_c, 9, 46, 27
1, 210604, Note_on_c, 9, 64, 0
1, 210604, Note_on_c, 9, 46, 0
1, 210719, Note_on_c, 9, 36, 0
1, 210720, Note_on_c, 9, 40, 64
1, 210720, Note_on_c, 9, 39, 81
1, 210720, Note_on_c, 9, 42, 56
1, 210720, Note_on_c, 9, 36, 76
1, 210730, Note_on_c, 9, 42, 0
1, 210959, Note_on_c, 9, 40, 0
1, 210959, Note_on_c, 9, 39, 0
1, 210960, Note_on_c, 9, 42, 56
1, 210970, Note_on_c, 9, 42, 0
1, 211199, Note_on_c, 9, 36, 0
1, 211200, Note_on_c, 9, 42, 56
1, 211200, Note_on_c, 9, 36, 76
1, 211210, Note_on_c, 9, 42, 0
1, 211440, Note_on_c, 9, 56, 56
1, 211440, Note_on_c, 9, 42, 56
1, 211444, Note_on_c, 9, 42, 0
1, 211559, Note_on_c, 9, 56, 0
1, 211560, Note_on_c, 9, 62, 58
1, 211679, Note_on_c, 9, 36, 0
1, 211679, Note_on_c, 9, 62, 0
1, 211680, Note_on_c, 9, 40, 64
1, 211680, Note_on_c, 9, 42, 56
1, 211680, Note_on_c, 9, 36, 76
1, 211684, Note_on_c, 9, 42, 0
1, 211799, Note_on_c, 9, 40, 0
1, 211800, Note_on_c, 9, 56, 58
1, 211919, Note_on_c, 9, 56, 0
1, 211920, Note_on_c, 9, 62, 52
1, 211920, Note_on_c, 9, 42, 56
1, 211930, Note_on_c, 9, 42, 0
1, 212159, Note_on_c, 9, 36, 0
1, 212159, Note_on_c, 9, 62, 0
1, 212160, Note_on_c, 9, 42, 56
1, 212160, Note_on_c, 9, 36, 76
1, 212164, Note_on_c, 9, 42, 0
1, 212280, Note_on_c, 9, 62, 54
1, 212399, Note_on_c, 9, 62, 0
1, 212400, Note_on_c, 9, 42, 56
1, 212404, Note_on_c, 9, 42, 0
1, 212520, Note_on_c, 9, 64, 56
1, 212520, Note_on_c, 9, 46, 28
1, 212524, Note_on_c, 9, 64, 0
1, 212524, Note_on_c, 9, 46, 0
1, 212639, Note_on_c, 9, 36, 0
1, 212640, Note_on_c, 9, 40, 64
1, 212640, Note_on_c, 9, 39, 81
1, 212640, Note_on_c, 9, 42, 56
1, 212640, Note_on_c, 9, 36, 76
1, 212650, Note_on_c, 9, 42, 0
1, 212879, Note_on_c, 9, 40, 0
1, 212879, Note_on_c, 9, 39, 0
1, 212880, Note_on_c, 9, 42, 56
1, 212884, Note_on_c, 9, 42, 0
1, 213000, Note_on_c, 9, 46, 37
1, 213004, Note_on_c, 9, 46, 0
1, 213119, Note_on_c, 9, 36, 0
1, 213120, Note_on_c, 9, 42, 68
1, 213120, Note_on_c, 9, 36, 76
1, 213130, Note_on_c, 9, 42, 0
1, 213360, Note_on_c, 9, 56, 58
1, 213360, Note_on_c, 9, 42, 56
1, 213364, Note_on_c, 9, 42, 0
1, 213479, Note_on_c, 9, 56, 0
1, 213480, Note_on_c, 9, 62, 60
1, 213599, Note_on_c, 9, 36, 0
1, 213599, Note_on_c, 9, 62, 0
1, 213600, Note_on_c, 9, 40, 64
1, 213600, Note_on_c, 9, 42, 56
1, 213600, Note_on_c, 9, 36, 76
1, 213604, Note_on_c, 9, 42, 0
1, 213719, Note_on_c, 9, 40, 0
1, 213720, Note_on_c, 9, 56, 62
1, 213839, Note_on_c, 9, 56, 0
1, 213840, Note_on_c, 9, 62, 64
1, 213840, Note_on_c, 9, 42, 56
1, 213850, Note_on_c, 9, 42, 0
1, 214079, Note_on_c, 9, 36, 0
1, 214079, Note_on_c, 9, 62, 0
1, 214080, Note_on_c, 9, 42, 56
1, 214080, Note_on_c, 9, 36, 76
1, 214084, Note_on_c, 9, 42, 0
1, 214200, Note_on_c, 9, 62, 64
1, 214319, Note_on_c, 9, 62, 0
1, 214320, Note_on_c, 9, 42, 56
1, 214324, Note_on_c, 9, 42, 0
1, 214440, Note_on_c, 9, 46, 50
1, 214444, Note_on_c, 9, 46, 0
1, 214559, Note_on_c, 9, 36, 0
1, 214560, Note_on_c, 9, 64, 36
1, 214560, Note_on_c, 9, 40, 64
1, 214560, Note_on_c, 9, 39, 81
1, 214560, Note_on_c, 9, 42, 56
1, 214560, Note_on_c, 9, 36, 76
1, 214570, Note_on_c, 9, 64, 0
1, 214570, Note_on_c, 9, 42, 0
1, 214799, Note_on_c, 9, 40, 0
1, 214799, Note_on_c, 9, 39, 0
1, 214800, Note_on_c, 9, 42, 56
1, 214810, Note_on_c, 9, 42, 0
1, 215039, Note_on_c, 9, 36, 0
1, 215040, Note_on_c, 9, 42, 56
1, 215040, Note_on_c, 9, 36, 76
1, 215050, Note_on_c, 9, 42, 0
1, 215280, Note_on_c, 9, 56, 56
1, 215280, Note_on_c, 9, 42, 56
1, 215284, Note_on_c, 9, 42, 0
1, 215399, Note_on_c, 9, 56, 0
1, 215400, Note_on_c, 9, 62, 66
1, 215519, Note_on_c, 9, 36, 0
1, 215519, Note_on_c, 9, 62, 0
1, 215520, Note_on_c, 9, 40, 64
1, 215520, Note_on_c, 9, 42, 56
1, 215520, Note_on_c, 9, 36, 76
1, 215524, Note_on_c, 9, 42, 0
1, 215639, Note_on_c, 9, 40, 0
1, 215640, Note_on_c, 9, 56, 56
1, 215759, Note_on_c, 9, 56, 0
1, 215760, Note_on_c, 9, 62, 62
1, 215760, Note_on_c, 9, 42, 56
1, 215770, Note_on_c, 9, 42, 0
1, 215999, Note_on_c, 9, 36, 0
1, 215999, Note_on_c, 9, 62, 0
1, 216000, Note_on_c, 9, 62, 62
1, 216000, Note_on_c, 9, 42, 56
1, 216000, Note_on_c, 9, 36, 76
1, 216004, Note_on_c, 9, 42, 0
1, 216119, Note_on_c, 9, 62, 0
1, 216120, Note_on_c, 9, 62, 54
1, 216239, Note_on_c, 9, 62, 0
1, 216240, Note_on_c, 9, 42, 56
1, 216244, Note_on_c, 9, 42, 0
1, 216360, Note_on_c, 9, 64, 52
1, 216360, Note_on_c, 9, 46, 28
1, 216364, Note_on_c, 9, 64, 0
1, 216364, Note_on_c, 9, 46, 0
1, 216479, Note_on_c, 9, 36, 0
1, 216480, Note_on_c, 9, 40, 64
1, 216480, Note_on_c, 9, 39, 81
1, 216480, Note_on_c, 9, 42, 56
1, 216480, Note_on_c, 9, 36, 76
1, 216490, Note_on_c, 9, 42, 0
1, 216719, Note_on_c, 9, 40, 0
1, 216719, Note_on_c, 9, 39, 0
1, 216720, Note_on_c, 9, 42, 56
1, 216724, Note_on_c, 9, 42, 0
1, 216840, Note_on_c, 9, 46, 64
1, 216844, Note_on_c, 9, 46, 0
1, 216959, Note_on_c, 9, 36, 0
1, 216960, Note_on_c, 9, 42, 56
1, 216960, Note_on_c, 9, 36, 76
1, 216970, Note_on_c, 9, 42, 0
1, 217200, Note_on_c, 9, 56, 60
1, 217200, Note_on_c, 9, 42, 56
1, 217204, Note_on_c, 9, 42, 0
1, 217319, Note_on_c, 9, 56, 0
1, 217320, Note_on_c, 9, 62, 58
1, 217439, Note_on_c, 9, 36, 0
1, 217439, Note_on_c, 9, 62, 0
1, 217440, Note_on_c, 9, 40, 64
1, 217440, Note_on_c, 9, 42, 56
1, 217440, Note_on_c, 9, 36, 76
1, 217444, Note_on_c, 9, 42, 0
1, 217559, Note_on_c, 9, 40, 0
1, 217560, Note_on_c, 9, 56, 58
1, 217679, Note_on_c, 9, 56, 0
1, 217680, Note_on_c, 9, 62, 56
1, 217680, Note_on_c, 9, 42, 56
1, 217690, Note_on_c, 9, 42, 0
1, 217919, Note_on_c, 9, 36, 0
1, 217919, Note_on_c, 9, 62, 0
1, 217920, Note_on_c, 9, 62, 54
1, 217920, Note_on_c, 9, 42, 56
1, 217920, Note_on_c, 9, 36, 76
1, 217924, Note_on_c, 9, 42, 0
1, 218039, Note_on_c, 9, 62, 0
1, 218040, Note_on_c, 9, 62, 54
1, 218159, Note_on_c, 9, 62, 0
1, 218160, Note_on_c, 9, 42, 56
1, 218164, Note_on_c, 9, 42, 0
1, 218280, Note_on_c, 9, 64, 54
1, 218280, Note_on_c, 9, 46, 27
1, 218284, Note_on_c, 9, 64, 0
1, 218284, Note_on_c, 9, 46, 0
1, 218399, Note_on_c, 9, 36, 0
1, 218400, Note_on_c, 9, 40, 64
1, 218400, Note_on_c, 9, 39, 81
1, 218400, Note_on_c, 9, 42, 56
1, 218400, Note_on_c, 9, 36, 76
1, 218410, Note_on_c, 9, 42, 0
1, 218639, Note_on_c, 9, 40, 0
1, 218639, Note_on_c, 9, 39, 0
1, 218640, Note_on_c, 9, 42, 56
1, 218650, Note_on_c, 9, 42, 0
1, 218879, Note_on_c, 9, 36, 0
1, 218880, Note_on_c, 9, 42, 56
1, 218880, Note_on_c, 9, 36, 76
1, 218890, Note_on_c, 9, 42, 0
1, 219120, Note_on_c, 9, 56, 56
1, 219120, Note_on_c, 9, 42, 56
1, 219124, Note_on_c, 9, 42, 0
1, 219239, Note_on_c, 9, 56, 0
1, 219240, Note_on_c, 9, 62, 58
1, 219359, Note_on_c, 9, 36, 0
1, 219359, Note_on_c, 9, 62, 0
1, 219360, Note_on_c, 9, 40, 64
1, 219360, Note_on_c, 9, 42, 56
1, 219360, Note_on_c, 9, 36, 76
1, 219364, Note_on_c, 9, 42, 0
1, 219479, Note_on_c, 9, 40, 0
1, 219480, Note_on_c, 9, 56, 58
1, 219599, Note_on_c, 9, 56, 0
1, 219600, Note_on_c, 9, 62, 52
1, 219600, Note_on_c, 9, 42, 56
1, 219610, Note_on_c, 9, 42, 0
1, 219839, Note_on_c, 9, 36, 0
1, 219839, Note_on_c, 9, 62, 0
1, 219840, Note_on_c, 9, 42, 56
1, 219840, Note_on_c, 9, 36, 76
1, 219844, Note_on_c, 9, 42, 0
1, 219960, Note_on_c, 9, 62, 54
1, 220079, Note_on_c, 9, 62, 0
1, 220080, Note_on_c, 9, 42, 56
1, 220084, Note_on_c, 9, 42, 0
1, 220200, Note_on_c, 9, 64, 56
1, 220200, Note_on_c, 9, 46, 28
1, 220204, Note_on_c, 9, 64, 0
1, 220204, Note_on_c, 9, 46, 0
1, 220319, Note_on_c, 9, 36, 0
1, 220320, Note_on_c, 9, 40, 64
1, 220320, Note_on_c, 9, 39, 81
1, 220320, Note_on_c, 9, 42, 56
1, 220320, Note_on_c, 9, 36, 76
1, 220330, Note_on_c, 9, 42, 0
1, 220559, Note_on_c, 9, 40, 0
1, 220559, Note_on_c, 9, 39, 0
1, 220560, Note_on_c, 9, 42, 56
1, 220564, Note_on_c, 9, 42, 0
1, 220680, Note_on_c, 9, 46, 37
1, 220684, Note_on_c, 9, 46, 0
1, 220799, Note_on_c, 9, 36, 0
1, 220800, Note_on_c, 9, 42, 68
1, 220800, Note_on_c, 9, 36, 76
1, 220810, Note_on_c, 9, 42, 0
1, 221040, Note_on_c, 9, 56, 58
1, 221040, Note_on_c, 9, 42, 56
1, 221044, Note_on_c, 9, 42, 0
1, 221159, Note_on_c, 9, 56, 0
1, 221160, Note_on_c, 9, 62, 60
1, 221279, Note_on_c, 9, 36, 0
1, 221279, Note_on_c, 9, 62, 0
1, 221280, Note_on_c, 9, 40, 64
1, 221280, Note_on_c, 9, 42, 56
1, 221280, Note_on_c, 9, 36, 76
1, 221284, Note_on_c, 9, 42, 0
1, 221399, Note_on_c, 9, 40, 0
1, 221400, Note_on_c, 9, 56, 62
1, 221519, Note_on_c, 9, 56, 0
1, 221520, Note_on_c, 9, 62, 64
1, 221520, Note_on_c, 9, 42, 56
1, 221530, Note_on_c, 9, 42, 0
1, 221759, Note_on_c, 9, 36, 0
1, 221759, Note_on_c, 9, 62, 0
1, 221760, Note_on_c, 9, 42, 56
1, 221760, Note_on_c, 9, 36, 76
1, 221764, Note_on_c, 9, 42, 0
1, 221880, Note_on_c, 9, 62, 64
1, 221999, Note_on_c, 9, 62, 0
1, 222000, Note_on_c, 9, 42, 56
1, 222004, Note_on_c, 9, 42, 0
1, 222120, Note_on_c, 9, 46, 50
1, 222124, Note_on_c, 9, 46, 0
1, 222239, Note_on_c, 9, 36, 0
1, 222240, Note_on_c, 9, 64, 36
1, 222240, Note_on_c, 9, 40, 64
1, 222240, Note_on_c, 9, 39, 81
1, 222240, Note_on_c, 9, 42, 56
1, 222240, Note_on_c, 9, 36, 76
1, 222250, Note_on_c, 9, 64, 0
1, 222250, Note_on_c, 9, 42, 0
1, 222479, Note_on_c, 9, 40, 0
1, 222479, Note_on_c, 9, 39, 0
1, 222480, Note_on_c, 9, 42, 56
1, 222490, Note_on_c, 9, 42, 0
1, 222719, Note_on_c, 9, 36, 0
1, 222720, Note_on_c, 9, 42, 56
1, 222720, Note_on_c, 9, 36, 76
1, 222730, Note_on_c, 9, 42, 0
1, 222960, Note_on_c, 9, 56, 56
1, 222960, Note_on_c, 9, 42, 56
1, 222964, Note_on_c, 9, 42, 0
1, 223079, Note_on_c, 9, 56, 0
1, 223080, Note_on_c, 9, 62, 66
1, 223199, Note_on_c, 9, 36, 0
1, 223199, Note_on_c, 9, 62, 0
1, 223200, Note_on_c, 9, 40, 64
1, 223200, Note_on_c, 9, 42, 56
1, 223200, Note_on_c, 9, 36, 76
1, 223204, Note_on_c, 9, 42, 0
1, 223319, Note_on_c, 9, 40, 0
1, 223320, Note_on_c, 9, 56, 56
1, 223439, Note_on_c, 9, 56, 0
1, 223440, Note_on_c, 9, 62, 62
1, 223440, Note_on_c, 9, 42, 56
1, 223450, Note_on_c, 9, 42, 0
1, 223679, Note_on_c, 9, 36, 0
1, 223679, Note_on_c, 9, 62, 0
1, 223680, Note_on_c, 9, 62, 62
1, 223680, Note_on_c, 9, 42, 56
1, 223680, Note_on_c, 9, 36, 76
1, 223684, Note_on_c, 9, 42, 0
1, 223799, Note_on_c, 9, 62, 0
1, 223800, Note_on_c, 9, 62, 54
1, 223919, Note_on_c, 9, 62, 0
1, 223920, Note_on_c, 9, 42, 56
1, 223924, Note_on_c, 9, 42, 0
1, 224040, Note_on_c, 9, 64, 52
1, 224040, Note_on_c, 9, 46, 28
1, 224044, Note_on_c, 9, 64, 0
1, 224044, Note_on_c, 9, 46, 0
1, 224159, Note_on_c, 9, 36, 0
1, 224160, Note_on_c, 9, 40, 64
1, 224160, Note_on_c, 9, 39, 81
1, 224160, Note_on_c, 9, 42, 56
1, 224160, Note_on_c, 9, 36, 76
1, 224170, Note_on_c, 9, 42, 0
1, 224399, Note_on_c, 9, 40, 0
1, 224399, Note_on_c, 9, 39, 0
1, 224400, Note_on_c, 9, 42, 56
1, 224404, Note_on_c, 9, 42, 0
1, 224520, Note_on_c, 9, 46, 64
1, 224524, Note_on_c, 9, 46, 0
1, 224639, Note_on_c, 9, 36, 0
1, 224640, Note_on_c, 9, 42, 56
1, 224640, Note_on_c, 9, 36, 76
1, 224650, Note_on_c, 9, 42, 0
1, 224880, Note_on_c, 9, 56, 60
1, 224880, Note_on_c, 9, 42, 56
1, 224884, Note_on_c, 9, 42, 0
1, 224999, Note_on_c, 9, 56, 0
1, 225000, Note_on_c, 9, 62, 58
1, 225119, Note_on_c, 9, 36, 0
1, 225119, Note_on_c, 9, 62, 0
1, 225120, Note_on_c, 9, 40, 64
1, 225120, Note_on_c, 9, 42, 56
1, 225120, Note_on_c, 9, 36, 76
1, 225124, Note_on_c, 9, 42, 0
1, 225239, Note_on_c, 9, 40, 0
1, 225240, Note_on_c, 9, 56, 58
1, 225359, Note_on_c, 9, 56, 0
1, 225360, Note_on_c, 9, 62, 56
1, 225360, Note_on_c, 9, 42, 56
1, 225370, Note_on_c, 9, 42, 0
1, 225599, Note_on_c, 9, 36, 0
1, 225599, Note_on_c, 9, 62, 0
1, 225600, Note_on_c, 9, 62, 54
1, 225600, Note_on_c, 9, 42, 56
1, 225600, Note_on_c, 9, 36, 76
1, 225604, Note_on_c, 9, 42, 0
1, 225719, Note_on_c, 9, 62, 0
1, 225720, Note_on_c, 9, 62, 54
1, 225839, Note_on_c, 9, 62, 0
1, 225840, Note_on_c, 9, 42, 56
1, 225844, Note_on_c, 9, 42, 0
1, 225960, Note_on_c, 9, 64, 54
1, 225960, Note_on_c, 9, 46, 27
1, 225964, Note_on_c, 9, 64, 0
1, 225964, Note_on_c, 9, 46, 0
1, 226079, Note_on_c, 9, 36, 0
1, 226080, Note_on_c, 9, 40, 64
1, 226080, Note_on_c, 9, 39, 81
1, 226080, Note_on_c, 9, 42, 56
1, 226080, Note_on_c, 9, 36, 76
1, 226090, Note_on_c, 9, 42, 0
1, 226319, Note_on_c, 9, 40, 0
1, 226319, Note_on_c, 9, 39, 0
1, 226320, Note_on_c, 9, 42, 56
1, 226330, Note_on_c, 9, 42, 0
1, 226559, Note_on_c, 9, 36, 0
1, 226560, Note_on_c, 9, 42, 56
1, 226560, Note_on_c, 9, 36, 76
1, 226570, Note_on_c, 9, 42, 0
1, 226800, Note_on_c, 9, 56, 56
1, 226800, Note_on_c, 9, 42, 56
1, 226804, Note_on_c, 9, 42, 0
1, 226919, Note_on_c, 9, 56, 0
1, 226920, Note_on_c, 9, 62, 58
1, 227039, Note_on_c, 9, 36, 0
1, 227039, Note_on_c, 9, 62, 0
1, 227040, Note_on_c, 9, 40, 64
1, 227040, Note_on_c, 9, 42, 56
1, 227040, Note_on_c, 9, 36, 76
1, 227044, Note_on_c, 9, 42, 0
1, 227159, Note_on_c, 9, 40, 0
1, 227160, Note_on_c, 9, 56, 58
1, 227279, Note_on_c, 9, 56, 0
1, 227280, Note_on_c, 9, 62, 52
1, 227280, Note_on_c, 9, 42, 56
1, 227290, Note_on_c, 9, 42, 0
1, 227519, Note_on_c, 9, 36, 0
1, 227519, Note_on_c, 9, 62, 0
1, 227520, Note_on_c, 9, 42, 56
1, 227520, Note_on_c, 9, 36, 76
1, 227524, Note_on_c, 9, 42, 0
1, 227640, Note_on_c, 9, 62, 54
1, 227759, Note_on_c, 9, 62, 0
1, 227760, Note_on_c, 9, 42, 56
1, 227764, Note_on_c, 9, 42, 0
1, 227880, Note_on_c, 9, 64, 56
1, 227880, Note_on_c, 9, 46, 28
1, 227884, Note_on_c, 9, 64, 0
1, 227884, Note_on_c, 9, 46, 0
1, 227999, Note_on_c, 9, 36, 0
1, 228000, Note_on_c, 9, 40, 64
1, 228000, Note_on_c, 9, 39, 81
1, 228000, Note_on_c, 9, 42, 56
1, 228000, Note_on_c, 9, 36, 76
1, 228010, Note_on_c, 9, 42, 0
1, 228239, Note_on_c, 9, 40, 0
1, 228239, Note_on_c, 9, 39, 0
1, 228240, Note_on_c, 9, 42, 56
1, 228244, Note_on_c, 9, 42, 0
1, 228360, Note_on_c, 9, 46, 37
1, 228364, Note_on_c, 9, 46, 0
1, 228479, Note_on_c, 9, 36, 0
1, 228480, Note_on_c, 9, 42, 68
1, 228480, Note_on_c, 9, 36, 76
1, 228490, Note_on_c, 9, 42, 0
1, 228720, Note_on_c, 9, 56, 58
1, 228720, Note_on_c, 9, 42, 56
1, 228724, Note_on_c, 9, 42, 0
1, 228839, Note_on_c, 9, 56, 0
1, 228840, Note_on_c, 9, 62, 60
1, 228959, Note_on_c, 9, 36, 0
1, 228959, Note_on_c, 9, 62, 0
1, 228960, Note_on_c, 9, 40, 64
1, 228960, Note_on_c, 9, 42, 56
1, 228960, Note_on_c, 9, 36, 76
1, 228964, Note_on_c, 9, 42, 0
1, 229079, Note_on_c, 9, 40, 0
1, 229080, Note_on_c, 9, 56, 62
1, 229199, Note_on_c, 9, 56, 0
1, 229200, Note_on_c, 9, 62, 64
1, 229200, Note_on_c, 9, 42, 56
1, 229210, Note_on_c, 9, 42, 0
1, 229439, Note_on_c, 9, 36, 0
1, 229439, Note_on_c, 9, 62, 0
1, 229440, Note_on_c, 9, 42, 56
1, 229440, Note_on_c, 9, 36, 76
1, 229444, Note_on_c, 9, 42, 0
1, 229560, Note_on_c, 9, 62, 64
1, 229679, Note_on_c, 9, 62, 0
1, 229680, Note_on_c, 9, 42, 56
1, 229684, Note_on_c, 9, 42, 0
1, 229800, Note_on_c, 9, 46, 50
1, 229804, Note_on_c, 9, 46, 0
1, 229919, Note_on_c, 9, 36, 0
1, 229920, Note_on_c, 9, 64, 36
1, 229920, Note_on_c, 9, 40, 64
1, 229920, Note_on_c, 9, 39, 81
1, 229920, Note_on_c, 9, 42, 56
1, 229920, Note_on_c, 9, 36, 76
1, 229930, Note_on_c, 9, 64, 0
1, 229930, Note_on_c, 9, 42, 0
1, 230159, Note_on_c, 9, 40, 0
1, 230159, Note_on_c, 9, 39, 0
1, 230160, Note_on_c, 9, 42, 56
1, 230170, Note_on_c, 9, 42, 0
1, 230399, Note_on_c, 9, 36, 0
1, 230400, Note_on_c, 9, 42, 56
1, 230400, Note_on_c, 9, 36, 76
1, 230410, Note_on_c, 9, 42, 0
1, 230640, Note_on_c, 9, 56, 56
1, 230640, Note_on_c, 9, 42, 56
1, 230644, Note_on_c, 9, 42, 0
1, 230759, Note_on_c, 9, 56, 0
1, 230760, Note_on_c, 9, 62, 66
1, 230879, Note_on_c, 9, 36, 0
1, 230879, Note_on_c, 9, 62, 0
1, 230880, Note_on_c, 9, 40, 64
1, 230880, Note_on_c, 9, 42, 56
1, 230880, Note_on_c, 9, 36, 76
1, 230884, Note_on_c, 9, 42, 0
1, 230999, Note_on_c, 9, 40, 0
1, 231000, Note_on_c, 9, 56, 56
1, 231119, Note_on_c, 9, 56, 0
1, 231120, Note_on_c, 9, 62, 62
1, 231120, Note_on_c, 9, 42, 56
1, 231130, Note_on_c, 9, 42, 0
1, 231359, Note_on_c, 9, 36, 0
1, 231359, Note_on_c, 9, 62, 0
1, 231360, Note_on_c, 9, 62, 62
1, 231360, Note_on_c, 9, 42, 56
1, 231360, Note_on_c, 9, 36, 76
1, 231364, Note_on_c, 9, 42, 0
1, 231479, Note_on_c, 9, 62, 0
1, 231480, Note_on_c, 9, 62, 54
1, 231599, Note_on_c, 9, 62, 0
1, 231600, Note_on_c, 9, 42, 56
1, 231604, Note_on_c, 9, 42, 0
1, 231720, Note_on_c, 9, 64, 52
1, 231720, Note_on_c, 9, 46, 28
1, 231724, Note_on_c, 9, 64, 0
1, 231724, Note_on_c, 9, 46, 0
1, 231839, Note_on_c, 9, 36, 0
1, 231840, Note_on_c, 9, 40, 64
1, 231840, Note_on_c, 9, 39, 81
1, 231840, Note_on_c, 9, 42, 56
1, 231840, Note_on_c, 9, 36, 76
1, 231850, Note_on_c, 9, 42, 0
1, 232079, Note_on_c, 9, 40, 0
1, 232079, Note_on_c, 9, 39, 0
1, 232080, Note_on_c, 9, 42, 56
1, 232084, Note_on_c, 9, 42, 0
1, 232200, Note_on_c, 9, 46, 64
1, 232204, Note_on_c, 9, 46, 0
1, 232319, Note_on_c, 9, 36, 0
1, 232320, Note_on_c, 9, 42, 56
1, 232320, Note_on_c, 9, 36, 76
1, 232330, Note_on_c, 9, 42, 0
1, 232560, Note_on_c, 9, 56, 60
1, 232560, Note_on_c, 9, 42, 56
1, 232564, Note_on_c, 9, 42, 0
1, 232679, Note_on_c, 9, 56, 0
1, 232680, Note_on_c, 9, 62, 58
1, 232799, Note_on_c, 9, 36, 0
1, 232799, Note_on_c, 9, 62, 0
1, 232800, Note_on_c, 9, 40, 64
1, 232800, Note_on_c, 9, 42, 56
1, 232800, Note_on_c, 9, 36, 76
1, 232804, Note_on_c, 9, 42, 0
1, 232919, Note_on_c, 9, 40, 0
1, 232920, Note_on_c, 9, 56, 58
1, 233039, Note_on_c, 9, 56, 0
1, 233040, Note_on_c, 9, 62, 56
1, 233040, Note_on_c, 9, 42, 56
1, 233050, Note_on_c, 9, 42, 0
1, 233279, Note_on_c, 9, 36, 0
1, 233279, Note_on_c, 9, 62, 0
1, 233280, Note_on_c, 9, 62, 54
1, 233280, Note_on_c, 9, 42, 56
1, 233280, Note_on_c, 9, 36, 76
1, 233284, Note_on_c, 9, 42, 0
1, 233399, Note_on_c, 9, 62, 0
1, 233400, Note_on_c, 9, 62, 54
1, 233519, Note_on_c, 9, 62, 0
1, 233520, Note_on_c, 9, 42, 56
1, 233524, Note_on_c, 9, 42, 0
1, 233640, Note_on_c, 9, 64, 54
1, 233640, Note_on_c, 9, 46, 27
1, 233644, Note_on_c, 9, 64, 0
1, 233644, Note_on_c, 9, 46, 0
1, 233759, Note_on_c, 9, 36, 0
1, 233760, Note_on_c, 9, 40, 64
1, 233760, Note_on_c, 9, 39, 81
1, 233760, Note_on_c, 9, 42, 56
1, 233760, Note_on_c, 9, 36, 76
1, 233770, Note_on_c, 9, 42, 0
1, 233999, Note_on_c, 9, 40, 0
1, 233999, Note_on_c, 9, 39, 0
1, 234000, Note_on_c, 9, 42, 56
1, 234010, Note_on_c, 9, 42, 0
1, 234239, Note_on_c, 9, 36, 0
1, 234240, Note_on_c, 9, 42, 56
1, 234240, Note_on_c, 9, 36, 76
1, 234250, Note_on_c, 9, 42, 0
1, 234480, Note_on_c, 9, 56, 56
1, 234480, Note_on_c, 9, 42, 56
1, 234484, Note_on_c, 9, 42, 0
1, 234599, Note_on_c, 9, 56, 0
1, 234600, Note_on_c, 9, 62, 58
1, 234719, Note_on_c, 9, 36, 0
1, 234719, Note_on_c, 9, 62, 0
1, 234720, Note_on_c, 9, 40, 64
1, 234720, Note_on_c, 9, 42, 56
1, 234720, Note_on_c, 9, 36, 76
1, 234724, Note_on_c, 9, 42, 0
1, 234839, Note_on_c, 9, 40, 0
1, 234840, Note_on_c, 9, 56, 58
1, 234959, Note_on_c, 9, 56, 0
1, 234960, Note_on_c, 9, 62, 52
1, 234960, Note_on_c, 9, 42, 56
1, 234970, Note_on_c, 9, 42, 0
1, 235199, Note_on_c, 9, 36, 0
1, 235199, Note_on_c, 9, 62, 0
1, 235200, Note_on_c, 9, 42, 56
1, 235200, Note_on_c, 9, 36, 76
1, 235204, Note_on_c, 9, 42, 0
1, 235320, Note_on_c, 9, 62, 54
1, 235439, Note_on_c, 9, 62, 0
1, 235440, Note_on_c, 9, 42, 56
1, 235444, Note_on_c, 9, 42, 0
1, 235560, Note_on_c, 9, 64, 56
1, 235560, Note_on_c, 9, 46, 28
1, 235564, Note_on_c, 9, 64, 0
1, 235564, Note_on_c, 9, 46, 0
1, 235679, Note_on_c, 9, 36, 0
1, 235680, Note_on_c, 9, 40, 64
1, 235680, Note_on_c, 9, 39, 81
1, 235680, Note_on_c, 9, 42, 56
1, 235680, Note_on_c, 9, 36, 76
1, 235690, Note_on_c, 9, 42, 0
1, 235919, Note_on_c, 9, 40, 0
1, 235919, Note_on_c, 9, 39, 0
1, 235920, Note_on_c, 9, 42, 56
1, 235924, Note_on_c, 9, 42, 0
1, 236040, Note_on_c, 9, 46, 37
1, 236044, Note_on_c, 9, 46, 0
1, 236159, Note_on_c, 9, 36, 0
1, 236160, Note_on_c, 9, 42, 68
1, 236160, Note_on_c, 9, 36, 76
1, 236170, Note_on_c, 9, 42, 0
1, 236400, Note_on_c, 9, 56, 58
1, 236400, Note_on_c, 9, 42, 56
1, 236404, Note_on_c, 9, 42, 0
1, 236519, Note_on_c, 9, 56, 0
1, 236520, Note_on_c, 9, 62, 60
1, 236639, Note_on_c, 9, 36, 0
1, 236639, Note_on_c, 9, 62, 0
1, 236640, Note_on_c, 9, 40, 64
1, 236640, Note_on_c, 9, 42, 56
1, 236640, Note_on_c, 9, 36, 76
1, 236644, Note_on_c, 9, 42, 0
1, 236759, Note_on_c, 9, 40, 0
1, 236760, Note_on_c, 9, 56, 62
1, 236879, Note_on_c, 9, 56, 0
1, 236880, Note_on_c, 9, 62, 64
1, 236880, Note_on_c, 9, 42, 56
1, 236890, Note_on_c, 9, 42, 0
1, 237119, Note_on_c, 9, 36, 0
1, 237119, Note_on_c, 9, 62, 0
1, 237120, Note_on_c, 9, 42, 56
1, 237120, Note_on_c, 9, 36, 76
1, 237124, Note_on_c, 9, 42, 0
1, 237240, Note_on_c, 9, 62, 64
1, 237359, Note_on_c, 9, 62, 0
1, 237360, Note_on_c, 9, 42, 56
1, 237364, Note_on_c, 9, 42, 0
1, 237480, Note_on_c, 9, 46, 50
1, 237484, Note_on_c, 9, 46, 0
1, 237599, Note_on_c, 9, 36, 0
1, 237600, Note_on_c, 9, 64, 36
1, 237600, Note_on_c, 9, 40, 64
1, 237600, Note_on_c, 9, 39, 81
1, 237600, Note_on_c, 9, 42, 56
1, 237600, Note_on_c, 9, 36, 76
1, 237610, Note_on_c, 9, 64, 0
1, 237610, Note_on_c, 9, 42, 0
1, 237839, Note_on_c, 9, 40, 0
1, 237839, Note_on_c, 9, 39, 0
1, 237840, Note_on_c, 9, 42, 56
1, 237850, Note_on_c, 9, 42, 0
1, 238079, Note_on_c, 9, 36, 0
1, 238080, Note_on_c, 9, 42, 56
1, 238080, Note_on_c, 9, 36, 76
1, 238090, Note_on_c, 9, 42, 0
1, 238320, Note_on_c, 9, 56, 56
1, 238320, Note_on_c, 9, 42, 56
1, 238324, Note_on_c, 9, 42, 0
1, 238439, Note_on_c, 9, 56, 0
1, 238440, Note_on_c, 9, 62, 66
1, 238559, Note_on_c, 9, 36, 0
1, 238559, Note_on_c, 9, 62, 0
1, 238560, Note_on_c, 9, 40, 64
1, 238560, Note_on_c, 9, 42, 56
1, 238560, Note_on_c, 9, 36, 76
1, 238564, Note_on_c, 9, 42, 0
1, 238679, Note_on_c, 9, 40, 0
1, 238680, Note_on_c, 9, 56, 56
1, 238799, Note_on_c, 9, 56, 0
1, 238800, Note_on_c, 9, 62, 62
1, 238800, Note_on_c, 9, 42, 56
1, 238810, Note_on_c, 9, 42, 0
1, 239039, Note_on_c, 9, 36, 0
1, 239039, Note_on_c, 9, 62, 0
1, 239040, Note_on_c, 9, 62, 62
1, 239040, Note_on_c, 9, 42, 56
1, 239040, Note_on_c, 9, 36, 76
1, 239044, Note_on_c, 9, 42, 0
1, 239159, Note_on_c, 9, 62, 0
1, 239160, Note_on_c, 9, 62, 54
1, 239279, Note_on_c, 9, 62, 0
1, 239280, Note_on_c, 9, 42, 56
1, 239284, Note_on_c, 9, 42, 0
1, 239400, Note_on_c, 9, 64, 52
1, 239400, Note_on_c, 9, 46, 28
1, 239404, Note_on_c, 9, 64, 0
1, 239404, Note_on_c, 9, 46, 0
1, 239519, Note_on_c, 9, 36, 0
1, 239520, Note_on_c, 9, 40, 64
1, 239520, Note_on_c, 9, 39, 81
1, 239520, Note_on_c, 9, 42, 56
1, 239520, Note_on_c, 9, 36, 76
1, 239530, Note_on_c, 9, 42, 0
1, 239759, Note_on_c, 9, 40, 0
1, 239759, Note_on_c, 9, 39, 0
1, 239760, Note_on_c, 9, 42, 56
1, 239764, Note_on_c, 9, 42, 0
1, 239880, Note_on_c, 9, 46, 64
1, 239884, Note_on_c, 9, 46, 0
1, 239999, Note_on_c, 9, 36, 0
1, 240000, Note_on_c, 9, 42, 56
1, 240000, Note_on_c, 9, 36, 76
1, 240010, Note_on_c, 9, 42, 0
1, 240240, Note_on_c, 9, 56, 60
1, 240240, Note_on_c, 9, 42, 56
1, 240244, Note_on_c, 9, 42, 0
1, 240359, Note_on_c, 9, 56, 0
1, 240360, Note_on_c, 9, 62, 58
1, 240479, Note_on_c, 9, 36, 0
1, 240479, Note_on_c, 9, 62, 0
1, 240480, Note_on_c, 9, 40, 64
1, 240480, Note_on_c, 9, 42, 56
1, 240480, Note_on_c, 9, 36, 76
1, 240484, Note_on_c, 9, 42, 0
1, 240599, Note_on_c, 9, 40, 0
1, 240600, Note_on_c, 9, 56, 58
1, 240719, Note_on_c, 9, 56, 0
1, 240720, Note_on_c, 9, 62, 56
1, 240720, Note_on_c, 9, 42, 56
1, 240730, Note_on_c, 9, 42, 0
1, 240959, Note_on_c, 9, 36, 0
1, 240959, Note_on_c, 9, 62, 0
1, 240960, Note_on_c, 9, 62, 54
1, 240960, Note_on_c, 9, 42, 56
1, 240960, Note_on_c, 9, 36, 76
1, 240964, Note_on_c, 9, 42, 0
1, 241079, Note_on_c, 9, 62, 0
1, 241080, Note_on_c, 9, 62, 54
1, 241199, Note_on_c, 9, 62, 0
1, 241200, Note_on_c, 9, 42, 56
1, 241204, Note_on_c, 9, 42, 0
1, 241320, Note_on_c, 9, 64, 54
1, 241320, Note_on_c, 9, 46, 27
1, 241324, Note_on_c, 9, 64, 0
1, 241324, Note_on_c, 9, 46, 0
1, 241439, Note_on_c, 9, 36, 0
1, 241440, Note_on_c, 9, 40, 64
1, 241440, Note_on_c, 9, 39, 81
1, 241440, Note_on_c, 9, 42, 56
1, 241440, Note_on_c, 9, 36, 76
1, 241450, Note_on_c, 9, 42, 0
1, 241679, Note_on_c, 9, 40, 0
1, 241679, Note_on_c, 9, 39, 0
1, 241680, Note_on_c, 9, 42, 56
1, 241690, Note_on_c, 9, 42, 0
1, 241919, Note_on_c, 9, 36, 0
1, 241920, Note_on_c, 9, 42, 56
1, 241920, Note_on_c, 9, 36, 76
1, 241930, Note_on_c, 9, 42, 0
1, 242160, Note_on_c, 9, 56, 56
1, 242160, Note_on_c, 9, 42, 56
1, 242164, Note_on_c, 9, 42, 0
1, 242279, Note_on_c, 9, 56, 0
1, 242280, Note_on_c, 9, 62, 58
1, 242399, Note_on_c, 9, 36, 0
1, 242399, Note_on_c, 9, 62, 0
1, 242400, Note_on_c, 9, 40, 64
1, 242400, Note_on_c, 9, 42, 56
1, 242400, Note_on_c, 9, 36, 76
1, 242404, Note_on_c, 9, 42, 0
1, 242519, Note_on_c, 9, 40, 0
1, 242520, Note_on_c, 9, 56, 58
1, 242639, Note_on_c, 9, 56, 0
1, 242640, Note_on_c, 9, 62, 52
1, 242640, Note_on_c, 9, 42, 56
1, 242650, Note_on_c, 9, 42, 0
1, 242879, Note_on_c, 9, 36, 0
1, 242879, Note_on_c, 9, 62, 0
1, 242880, Note_on_c, 9, 42, 56
1, 242880, Note_on_c, 9, 36, 76
1, 242884, Note_on_c, 9, 42, 0
1, 243000, Note_on_c, 9, 62, 54
1, 243119, Note_on_c, 9, 62, 0
1, 243120, Note_on_c, 9, 42, 56
1, 243124, Note_on_c, 9, 42, 0
1, 243240, Note_on_c, 9, 64, 56
1, 243240, Note_on_c, 9, 46, 28
1, 243244, Note_on_c, 9, 64, 0
1, 243244, Note_on_c, 9, 46, 0
1, 243359, Note_on_c, 9, 36, 0
1, 243360, Note_on_c, 9, 40, 64
1, 243360, Note_on_c, 9, 39, 81
1, 243360, Note_on_c, 9, 42, 56
1, 243360, Note_on_c, 9, 36, 76
1, 243370, Note_on_c, 9, 42, 0
1, 243599, Note_on_c, 9, 40, 0
1, 243599, Note_on_c, 9, 39, 0
1, 243600, Note_on_c, 9, 42, 56
1, 243604, Note_on_c, 9, 42, 0
1, 243720, Note_on_c, 9, 46, 37
1, 243724, Note_on_c, 9, 46, 0
1, 243839, Note_on_c, 9, 36, 0
1, 243840, Note_on_c, 9, 42, 68
1, 243840, Note_on_c, 9, 36, 76
1, 243850, Note_on_c, 9, 42, 0
1, 244080, Note_on_c, 9, 56, 58
1, 244080, Note_on_c, 9, 42, 56
1, 244084, Note_on_c, 9, 42, 0
1, 244199, Note_on_c, 9, 56, 0
1, 244200, Note_on_c, 9, 62, 60
1, 244319, Note_on_c, 9, 36, 0
1, 244319, Note_on_c, 9, 62, 0
1, 244320, Note_on_c, 9, 40, 64
1, 244320, Note_on_c, 9, 42, 56
1, 244320, Note_on_c, 9, 36, 76
1, 244324, Note_on_c, 9, 42, 0
1, 244439, Note_on_c, 9, 40, 0
1, 244440, Note_on_c, 9, 56, 62
1, 244559, Note_on_c, 9, 56, 0
1, 244560, Note_on_c, 9, 62, 64
1, 244560, Note_on_c, 9, 42, 56
1, 244570, Note_on_c, 9, 42, 0
1, 244799, Note_on_c, 9, 36, 0
1, 244799, Note_on_c, 9, 62, 0
1, 244800, Note_on_c, 9, 42, 56
1, 244800, Note_on_c, 9, 36, 76
1, 244804, Note_on_c, 9, 42, 0
1, 244920, Note_on_c, 9, 62, 64
1, 245039, Note_on_c, 9, 62, 0
1, 245040, Note_on_c, 9, 42, 56
1, 245044, Note_on_c, 9, 42, 0
1, 245160, Note_on_c, 9, 46, 50
1, 245164, Note_on_c, 9, 46, 0
1, 245279, Note_on_c, 9, 36, 0
1, 245280, Note_on_c, 9, 64, 36
1, 245280, Note_on_c, 9, 40, 64
1, 245280, Note_on_c, 9, 39, 81
1, 245280, Note_on_c, 9, 42, 56
1, 245280, Note_on_c, 9, 36, 76
1, 245290, Note_on_c, 9, 64, 0
1, 245290, Note_on_c, 9, 42, 0
1, 245519, Note_on_c, 9, 40, 0
1, 245519, Note_on_c, 9, 39, 0
1, 245520, Note_on_c, 9, 42, 56
1, 245530, Note_on_c, 9, 42, 0
1, 245759, Note_on_c, 9, 36, 0
1, 245760, Note_on_c, 9, 42, 56
1, 245760, Note_on_c, 9, 36, 76
1, 245770, Note_on_c, 9, 42, 0
1, 246000, Note_on_c, 9, 56, 56
1, 246000, Note_on_c, 9, 42, 56
1, 246004, Note_on_c, 9, 42, 0
1, 246119, Note_on_c, 9, 56, 0
1, 246120, Note_on_c, 9, 62, 66
1, 246239, Note_on_c, 9, 36, 0
1, 246239, Note_on_c, 9, 62, 0
1, 246240, Note_on_c, 9, 40, 64
1, 246240, Note_on_c, 9, 42, 56
1, 246240, Note_on_c, 9, 36, 76
1, 246244, Note_on_c, 9, 42, 0
1, 246359, Note_on_c, 9, 40, 0
1, 246360, Note_on_c, 9, 56, 56
1, 246479, Note_on_c, 9, 56, 0
1, 246480, Note_on_c, 9, 62, 62
1, 246480, Note_on_c, 9, 42, 56
1, 246490, Note_on_c, 9, 42, 0
1, 246719, Note_on_c, 9, 36, 0
1, 246719, Note_on_c, 9, 62, 0
1, 246720, Note_on_c, 9, 62, 62
1, 246720, Note_on_c, 9, 42, 56
1, 246720, Note_on_c, 9, 36, 76
1, 246724, Note_on_c, 9, 42, 0
1, 246839, Note_on_c, 9, 62, 0
1, 246840, Note_on_c, 9, 62, 54
1, 246959, Note_on_c, 9, 62, 0
1, 246960, Note_on_c, 9, 42, 56
1, 246964, Note_on_c, 9, 42, 0
1, 247080, Note_on_c, 9, 64, 52
1, 247080, Note_on_c, 9, 46, 28
1, 247084, Note_on_c, 9, 64, 0
1, 247084, Note_on_c, 9, 46, 0
1, 247199, Note_on_c, 9, 36, 0
1, 247200, Note_on_c, 9, 40, 64
1, 247200, Note_on_c, 9, 39, 81
1, 247200, Note_on_c, 9, 42, 56
1, 247200, Note_on_c, 9, 36, 76
1, 247210, Note_on_c, 9, 42, 0
1, 247439, Note_on_c, 9, 40, 0
1, 247439, Note_on_c, 9, 39, 0
1, 247440, Note_on_c, 9, 42, 56
1, 247444, Note_on_c, 9, 42, 0
1, 247560, Note_on_c, 9, 46, 64
1, 247564, Note_on_c, 9, 46, 0
1, 247679, Note_on_c, 9, 36, 0
1, 247680, Note_on_c, 9, 42, 56
1, 247680, Note_on_c, 9, 36, 76
1, 247690, Note_on_c, 9, 42, 0
1, 247920, Note_on_c, 9, 56, 60
1, 247920, Note_on_c, 9, 42, 56
1, 247924, Note_on_c, 9, 42, 0
1, 248039, Note_on_c, 9, 56, 0
1, 248040, Note_on_c, 9, 62, 58
1, 248159, Note_on_c, 9, 36, 0
1, 248159, Note_on_c, 9, 62, 0
1, 248160, Note_on_c, 9, 40, 64
1, 248160, Note_on_c, 9, 42, 56
1, 248160, Note_on_c, 9, 36, 76
1, 248164, Note_on_c, 9, 42, 0
1, 248279, Note_on_c, 9, 40, 0
1, 248280, Note_on_c, 9, 56, 58
1, 248399, Note_on_c, 9, 56, 0
1, 248400, Note_on_c, 9, 62, 56
1, 248400, Note_on_c, 9, 42, 56
1, 248410, Note_on_c, 9, 42, 0
1, 248639, Note_on_c, 9, 36, 0
1, 248639, Note_on_c, 9, 62, 0
1, 248640, Note_on_c, 9, 62, 54
1, 248640, Note_on_c, 9, 42, 56
1, 248640, Note_on_c, 9, 36, 76
1, 248644, Note_on_c, 9, 42, 0
1, 248759, Note_on_c, 9, 62, 0
1, 248760, Note_on_c, 9, 62, 54
1, 248879, Note_on_c, 9, 62, 0
1, 248880, Note_on_c, 9, 42, 56
1, 248884, Note_on_c, 9, 42, 0
1, 249000, Note_on_c, 9, 64, 54
1, 249000, Note_on_c, 9, 46, 27
1, 249004, Note_on_c, 9, 64, 0
1, 249004, Note_on_c, 9, 46, 0
1, 249119, Note_on_c, 9, 36, 0
1, 249120, Note_on_c, 9, 40, 64
1, 249120, Note_on_c, 9, 39, 81
1, 249120, Note_on_c, 9, 42, 56
1, 249120, Note_on_c, 9, 36, 76
1, 249130, Note_on_c, 9, 42, 0
1, 249359, Note_on_c, 9, 40, 0
1, 249359, Note_on_c, 9, 39, 0
1, 249360, Note_on_c, 9, 42, 56
1, 249370, Note_on_c, 9, 42, 0
1, 249599, Note_on_c, 9, 36, 0
1, 249600, Note_on_c, 9, 42, 56
1, 249600, Note_on_c, 9, 36, 76
1, 249610, Note_on_c, 9, 42, 0
1, 249840, Note_on_c, 9, 56, 56
1, 249840, Note_on_c, 9, 42, 56
1, 249844, Note_on_c, 9, 42, 0
1, 249959, Note_on_c, 9, 56, 0
1, 249960, Note_on_c, 9, 62, 58
1, 250079, Note_on_c, 9, 36, 0
1, 250079, Note_on_c, 9, 62, 0
1, 250080, Note_on_c, 9, 40, 64
1, 250080, Note_on_c, 9, 42, 56
1, 250080, Note_on_c, 9, 36, 76
1, 250084, Note_on_c, 9, 42, 0
1, 250199, Note_on_c, 9, 40, 0
1, 250200, Note_on_c, 9, 56, 58
1, 250319, Note_on_c, 9, 56, 0
1, 250320, Note_on_c, 9, 62, 52
1, 250320, Note_on_c, 9, 42, 56
1, 250330, Note_on_c, 9, 42, 0
1, 250559, Note_on_c, 9, 36, 0
1, 250559, Note_on_c, 9, 62, 0
1, 250560, Note_on_c, 9, 42, 56
1, 250560, Note_on_c, 9, 36, 76
1, 250564, Note_on_c, 9, 42, 0
1, 250680, Note_on_c, 9, 62, 54
1, 250799, Note_on_c, 9, 62, 0
1, 250800, Note_on_c, 9, 42, 56
1, 250804, Note_on_c, 9, 42, 0
1, 250920, Note_on_c, 9, 64, 56
1, 250920, Note_on_c, 9, 46, 28
1, 250924, Note_on_c, 9, 64, 0
1, 250924, Note_on_c, 9, 46, 0
1, 251039, Note_on_c, 9, 36, 0
1, 251040, Note_on_c, 9, 40, 64
1, 251040, Note_on_c, 9, 39, 81
1, 251040, Note_on_c, 9, 42, 56
1, 251040, Note_on_c, 9, 36, 76
1, 251050, Note_on_c, 9, 42, 0
1, 251279, Note_on_c, 9, 40, 0
1, 251279, Note_on_c, 9, 39, 0
1, 251280, Note_on_c, 9, 42, 56
1, 251284, Note_on_c, 9, 42, 0
1, 251400, Note_on_c, 9, 46, 37
1, 251404, Note_on_c, 9, 46, 0
1, 251519, Note_on_c, 9, 36, 0
1, 251520, Note_on_c, 9, 42, 68
1, 251520, Note_on_c, 9, 36, 76
1, 251530, Note_on_c, 9, 42, 0
1, 251760, Note_on_c, 9, 56, 58
1, 251760, Note_on_c, 9, 42, 56
1, 251764, Note_on_c, 9, 42, 0
1, 251879, Note_on_c, 9, 56, 0
1, 251880, Note_on_c, 9, 62, 60
1, 251999, Note_on_c, 9, 36, 0
1, 251999, Note_on_c, 9, 62, 0
1, 252000, Note_on_c, 9, 40, 64
1, 252000, Note_on_c, 9, 42, 56
1, 252000, Note_on_c, 9, 36, 76
1, 252004, Note_on_c, 9, 42, 0
1, 252119, Note_on_c, 9, 40, 0
1, 252120, Note_on_c, 9, 56, 62
1, 252239, Note_on_c, 9, 56, 0
1, 252240, Note_on_c, 9, 62, 64
1, 252240, Note_on_c, 9, 42, 56
1, 252250, Note_on_c, 9, 42, 0
1, 252479, Note_on_c, 9, 36, 0
1, 252479, Note_on_c, 9, 62, 0
1, 252480, Note_on_c, 9, 42, 56
1, 252480, Note_on_c, 9, 36, 76
1, 252484, Note_on_c, 9, 42, 0
1, 252600, Note_on_c, 9, 62, 64
1, 252719, Note_on_c, 9, 62, 0
1, 252720, Note_on_c, 9, 42, 56
1, 252724, Note_on_c, 9, 42, 0
1, 252840, Note_on_c, 9, 46, 50
1, 252844, Note_on_c, 9, 46, 0
1, 252959, Note_on_c, 9, 36, 0
1, 252960, Note_on_c, 9, 64, 36
1, 252960, Note_on_c, 9, 40, 64
1, 252960, Note_on_c, 9, 39, 81
1, 252960, Note_on_c, 9, 42, 56
1, 252960, Note_on_c, 9, 36, 76
1, 252970, Note_on_c, 9, 64, 0
1, 252970, Note_on_c, 9, 42, 0
1, 253199, Note_on_c, 9, 40, 0
1, 253199, Note_on_c, 9, 39, 0
1, 253200, Note_on_c, 9, 42, 56
1, 253210, Note_on_c, 9, 42, 0
1, 253439, Note_on_c, 9, 36, 0
1, 253440, Note_on_c, 9, 42, 56
1, 253440, Note_on_c, 9, 36, 76
1, 253450, Note_on_c, 9, 42, 0
1, 253680, Note_on_c, 9, 56, 56
1, 253680, Note_on_c, 9, 42, 56
1, 253684, Note_on_c, 9, 42, 0
1, 253799, Note_on_c, 9, 56, 0
1, 253800, Note_on_c, 9, 62, 66
1, 253919, Note_on_c, 9, 36, 0
1, 253919, Note_on_c, 9, 62, 0
1, 253920, Note_on_c, 9, 40, 64
1, 253920, Note_on_c, 9, 42, 56
1, 253920, Note_on_c, 9, 36, 76
1, 253924, Note_on_c, 9, 42, 0
1, 254039, Note_on_c, 9, 40, 0
1, 254040, Note_on_c, 9, 56, 56
1, 254159, Note_on_c, 9, 56, 0
1, 254160, Note_on_c, 9, 62, 62
1, 254160, Note_on_c, 9, 42, 56
1, 254170, Note_on_c, 9, 42, 0
1, 254399, Note_on_c, 9, 36, 0
1, 254399, Note_on_c, 9, 62, 0
1, 254400, Note_on_c, 9, 62, 62
1, 254400, Note_on_c, 9, 42, 56
1, 254400, Note_on_c, 9, 36, 76
1, 254404, Note_on_c, 9, 42, 0
1, 254519, Note_on_c, 9, 62, 0
1, 254520, Note_on_c, 9, 62, 54
1, 254639, Note_on_c, 9, 62, 0
1, 254640, Note_on_c, 9, 42, 56
1, 254644, Note_on_c, 9, 42, 0
1, 254760, Note_on_c, 9, 64, 52
1, 254760, Note_on_c, 9, 46, 28
1, 254764, Note_on_c, 9, 64, 0
1, 254764, Note_on_c, 9, 46, 0
1, 254879, Note_on_c, 9, 36, 0
1, 254880, Note_on_c, 9, 40, 64
1, 254880, Note_on_c, 9, 39, 81
1, 254880, Note_on_c, 9, 42, 56
1, 254880, Note_on_c, 9, 36, 76
1, 254890, Note_on_c, 9, 42, 0
1, 255119, Note_on_c, 9, 40, 0
1, 255119, Note_on_c, 9, 39, 0
1, 255120, Note_on_c, 9, 42, 56
1, 255124, Note_on_c, 9, 42, 0
1, 255240, Note_on_c, 9, 46, 64
1, 255244, Note_on_c, 9, 46, 0
1, 255359, Note_on_c, 9, 36, 0
1, 255360, Note_on_c, 9, 42, 56
1, 255360, Note_on_c, 9, 36, 76
1, 255370, Note_on_c, 9, 42, 0
1, 255600, Note_on_c, 9, 56, 60
1, 255600, Note_on_c, 9, 42, 56
1, 255604, Note_on_c, 9, 42, 0
1, 255719, Note_on_c, 9, 56, 0
1, 255720, Note_on_c, 9, 62, 58
1, 255839, Note_on_c, 9, 36, 0
1, 255839, Note_on_c, 9, 62, 0
1, 255840, Note_on_c, 9, 40, 64
1, 255840, Note_on_c, 9, 42, 56
1, 255840, Note_on_c, 9, 36, 76
1, 255844, Note_on_c, 9, 42, 0
1, 255959, Note_on_c, 9, 40, 0
1, 255960, Note_on_c, 9, 56, 58
1, 256079, Note_on_c, 9, 56, 0
1, 256080, Note_on_c, 9, 62, 56
1, 256080, Note_on_c, 9, 42, 56
1, 256090, Note_on_c, 9, 42, 0
1, 256319, Note_on_c, 9, 36, 0
1, 256319, Note_on_c, 9, 62, 0
1, 256320, Note_on_c, 9, 62, 54
1, 256320, Note_on_c, 9, 42, 56
1, 256320, Note_on_c, 9, 36, 76
1, 256324, Note_on_c, 9, 42, 0
1, 256439, Note_on_c, 9, 62, 0
1, 256440, Note_on_c, 9, 62, 54
1, 256559, Note_on_c, 9, 62, 0
1, 256560, Note_on_c, 9, 42, 56
1, 256564, Note_on_c, 9, 42, 0
1, 256680, Note_on_c, 9, 64, 54
1, 256680, Note_on_c, 9, 46, 27
1, 256684, Note_on_c, 9, 64, 0
1, 256684, Note_on_c, 9, 46, 0
1, 256799, Note_on_c, 9, 36, 0
1, 256800, Note_on_c, 9, 40, 64
1, 256800, Note_on_c, 9, 39, 81
1, 256800, Note_on_c, 9, 42, 56
1, 256800, Note_on_c, 9, 36, 76
1, 256810, Note_on_c, 9, 42, 0
1, 257039, Note_on_c, 9, 40, 0
1, 257039, Note_on_c, 9, 39, 0
1, 257040, Note_on_c, 9, 42, 56
1, 257050, Note_on_c, 9, 42, 0
1, 257279, Note_on_c, 9, 36, 0
1, 257280, Note_on_c, 9, 42, 56
1, 257280, Note_on_c, 9, 36, 76
1, 257290, Note_on_c, 9, 42, 0
1, 257520, Note_on_c, 9, 56, 56
1, 257520, Note_on_c, 9, 42, 56
1, 257524, Note_on_c, 9, 42, 0
1, 257639, Note_on_c, 9, 56, 0
1, 257640, Note_on_c, 9, 62, 58
1, 257759, Note_on_c, 9, 36, 0
1, 257759, Note_on_c, 9, 62, 0
1, 257760, Note_on_c, 9, 40, 64
1, 257760, Note_on_c, 9, 42, 56
1, 257760, Note_on_c, 9, 36, 76
1, 257764, Note_on_c, 9, 42, 0
1, 257879, Note_on_c, 9, 40, 0
1, 257880, Note_on_c, 9, 56, 58
1, 257999, Note_on_c, 9, 56, 0
1, 258000, Note_on_c, 9, 62, 52
1, 258000, Note_on_c, 9, 42, 56
1, 258010, Note_on_c, 9, 42, 0
1, 258239, Note_on_c, 9, 36, 0
1, 258239, Note_on_c, 9, 62, 0
1, 258240, Note_on_c, 9, 42, 56
1, 258240, Note_on_c, 9, 36, 76
1, 258244, Note_on_c, 9, 42, 0
1, 258360, Note_on_c, 9, 62, 54
1, 258479, Note_on_c, 9, 62, 0
1, 258480, Note_on_c, 9, 42, 56
1, 258484, Note_on_c, 9, 42, 0
1, 258600, Note_on_c, 9, 64, 56
1, 258600, Note_on_c, 9, 46, 28
1, 258604, Note_on_c, 9, 64, 0
1, 258604, Note_on_c, 9, 46, 0
1, 258719, Note_on_c, 9, 36, 0
1, 258720, Note_on_c, 9, 40, 64
1, 258720, Note_on_c, 9, 39, 81
1, 258720, Note_on_c, 9, 42, 56
1, 258720, Note_on_c, 9, 36, 76
1, 258730, Note_on_c, 9, 42, 0
1, 258959, Note_on_c, 9, 40, 0
1, 258959, Note_on_c, 9, 39, 0
1, 258960, Note_on_c, 9, 42, 56
1, 258964, Note_on_c, 9, 42, 0
1, 259080, Note_on_c, 9, 46, 37
1, 259084, Note_on_c, 9, 46, 0
1, 259199, Note_on_c, 9, 36, 0
1, 259200, Note_on_c, 9, 42, 68
1, 259200, Note_on_c, 9, 36, 76
1, 259210, Note_on_c, 9, 42, 0
1, 259440, Note_on_c, 9, 56, 58
1, 259440, Note_on_c, 9, 42, 56
1, 259444, Note_on_c, 9, 42, 0
1, 259559, Note_on_c, 9, 56, 0
1, 259560, Note_on_c, 9, 62, 60
1, 259679, Note_on_c, 9, 36, 0
1, 259679, Note_on_c, 9, 62, 0
1, 259680, Note_on_c, 9, 40, 64
1, 259680, Note_on_c, 9, 42, 56
1, 259680, Note_on_c, 9, 36, 76
1, 259684, Note_on_c, 9, 42, 0
1, 259799, Note_on_c, 9, 40, 0
1, 259800, Note_on_c, 9, 56, 62
1, 259919, Note_on_c, 9, 56, 0
1, 259920, Note_on_c, 9, 62, 64
1, 259920, Note_on_c, 9, 42, 56
1, 259930, Note_on_c, 9, 42, 0
1, 260159, Note_on_c, 9, 36, 0
1, 260159, Note_on_c, 9, 62, 0
1, 260160, Note_on_c, 9, 42, 56
1, 260160, Note_on_c, 9, 36, 76
1, 260164, Note_on_c, 9, 42, 0
1, 260280, Note_on_c, 9, 62, 64
1, 260399, Note_on_c, 9, 62, 0
1, 260400, Note_on_c, 9, 42, 56
1, 260404, Note_on_c, 9, 42, 0
1, 260520, Note_on_c, 9, 46, 50
1, 260524, Note_on_c, 9, 46, 0
1, 260639, Note_on_c, 9, 36, 0
1, 260640, Note_on_c, 9, 64, 36
1, 260640, Note_on_c, 9, 40, 64
1, 260640, Note_on_c, 9, 39, 81
1, 260640, Note_on_c, 9, 42, 56
1, 260640, Note_on_c, 9, 36, 76
1, 260650, Note_on_c, 9, 64, 0
1, 260650, Note_on_c, 9, 42, 0
1, 260879, Note_on_c, 9, 40, 0
1, 260879, Note_on_c, 9, 39, 0
1, 260880, Note_on_c, 9, 42, 56
1, 260890, Note_on_c, 9, 42, 0
1, 261119, Note_on_c, 9, 36, 0
1, 261120, Note_on_c, 9, 42, 56
1, 261120, Note_on_c, 9, 36, 76
1, 261130, Note_on_c, 9, 42, 0
1, 261360, Note_on_c, 9, 56, 56
1, 261360, Note_on_c, 9, 42, 56
1, 261364, Note_on_c, 9, 42, 0
1, 261479, Note_on_c, 9, 56, 0
1, 261480, Note_on_c, 9, 62, 66
1, 261599, Note_on_c, 9, 36, 0
1, 261599, Note_on_c, 9, 62, 0
1, 261600, Note_on_c, 9, 40, 64
1, 261600, Note_on_c, 9, 42, 56
1, 261600, Note_on_c, 9, 36, 76
1, 261604, Note_on_c, 9, 42, 0
1, 261719, Note_on_c, 9, 40, 0
1, 261720, Note_on_c, 9, 56, 56
1, 261839, Note_on_c, 9, 56, 0
1, 261840, Note_on_c, 9, 62, 62
1, 261840, Note_on_c, 9, 42, 56
1, 261850, Note_on_c, 9, 42, 0
1, 262079, Note_on_c, 9, 36, 0
1, 262079, Note_on_c, 9, 62, 0
1, 262080, Note_on_c, 9, 62, 62
1, 262080, Note_on_c, 9, 42, 56
1, 262080, Note_on_c, 9, 36, 76
1, 262084, Note_on_c, 9, 42, 0
1, 262199, Note_on_c, 9, 62, 0
1, 262200, Note_on_c, 9, 62, 54
1, 262319, Note_on_c, 9, 62, 0
1, 262320, Note_on_c, 9, 42, 56
1, 262324, Note_on_c, 9, 42, 0
1, 262440, Note_on_c, 9, 64, 52
1, 262440, Note_on_c, 9, 46, 28
1, 262444, Note_on_c, 9, 64, 0
1, 262444, Note_on_c, 9, 46, 0
1, 262559, Note_on_c, 9, 36, 0
1, 262560, Note_on_c, 9, 40, 64
1, 262560, Note_on_c, 9, 39, 81
1, 262560, Note_on_c, 9, 42, 56
1, 262560, Note_on_c, 9, 36, 76
1, 262570, Note_on_c, 9, 42, 0
1, 262799, Note_on_c, 9, 40, 0
1, 262799, Note_on_c, 9, 39, 0
1, 262800, Note_on_c, 9, 42, 56
1, 262804, Note_on_c, 9, 42, 0
1, 262920, Note_on_c, 9, 46, 64
1, 262924, Note_on_c, 9, 46, 0
1, 263039, Note_on_c, 9, 36, 0
1, 263040, Note_on_c, 9, 42, 56
1, 263040, Note_on_c, 9, 36, 76
1, 263050, Note_on_c, 9, 42, 0
1, 263280, Note_on_c, 9, 56, 60
1, 263280, Note_on_c, 9, 42, 56
1, 263284, Note_on_c, 9, 42, 0
1, 263399, Note_on_c, 9, 56, 0
1, 263400, Note_on_c, 9, 62, 58
1, 263519, Note_on_c, 9, 36, 0
1, 263519, Note_on_c, 9, 62, 0
1, 263520, Note_on_c, 9, 40, 64
1, 263520, Note_on_c, 9, 42, 56
1, 263520, Note_on_c, 9, 36, 76
1, 263524, Note_on_c, 9, 42, 0
1, 263639, Note_on_c, 9, 40, 0
1, 263640, Note_on_c, 9, 56, 58
1, 263759, Note_on_c, 9, 56, 0
1, 263760, Note_on_c, 9, 62, 56
1, 263760, Note_on_c, 9, 42, 56
1, 263770, Note_on_c, 9, 42, 0
1, 263999, Note_on_c, 9, 36, 0
1, 263999, Note_on_c, 9, 62, 0
1, 264000, Note_on_c, 9, 62, 54
1, 264000, Note_on_c, 9, 42, 56
1, 264000, Note_on_c, 9, 36, 76
1, 264004, Note_on_c, 9, 42, 0
1, 264119, Note_on_c, 9, 62, 0
1, 264120, Note_on_c, 9, 62, 54
1, 264239, Note_on_c, 9, 62, 0
1, 264240, Note_on_c, 9, 42, 56
1, 264244, Note_on_c, 9, 42, 0
1, 264360, Note_on_c, 9, 64, 54
1, 264360, Note_on_c, 9, 46, 27
1, 264364, Note_on_c, 9, 64, 0
1, 264364, Note_on_c, 9, 46, 0
1, 264479, Note_on_c, 9, 36, 0
1, 264480, Note_on_c, 9, 40, 64
1, 264480, Note_on_c, 9, 39, 81
1, 264480, Note_on_c, 9, 42, 56
1, 264480, Note_on_c, 9, 36, 76
1, 264490, Note_on_c, 9, 42, 0
1, 264719, Note_on_c, 9, 40, 0
1, 264719, Note_on_c, 9, 39, 0
1, 264720, Note_on_c, 9, 42, 56
1, 264730, Note_on_c, 9, 42, 0
1, 264959, Note_on_c, 9, 36, 0
1, 264960, Note_on_c, 9, 42, 56
1, 264960, Note_on_c, 9, 36, 76
1, 264970, Note_on_c, 9, 42, 0
1, 265200, Note_on_c, 9, 56, 56
1, 265200, Note_on_c, 9, 42, 56
1, 265204, Note_on_c, 9, 42, 0
1, 265319, Note_on_c, 9, 56, 0
1, 265320, Note_on_c, 9, 62, 58
1, 265439, Note_on_c, 9, 36, 0
1, 265439, Note_on_c, 9, 62, 0
1, 265440, Note_on_c, 9, 40, 64
1, 265440, Note_on_c, 9, 42, 56
1, 265440, Note_on_c, 9, 36, 76
1, 265444, Note_on_c, 9, 42, 0
1, 265559, Note_on_c, 9, 40, 0
1, 265560, Note_on_c, 9, 56, 58
1, 265679, Note_on_c, 9, 56, 0
1, 265680, Note_on_c, 9, 62, 52
1, 265680, Note_on_c, 9, 42, 56
1, 265690, Note_on_c, 9, 42, 0
1, 265919, Note_on_c, 9, 36, 0
1, 265919, Note_on_c, 9, 62, 0
1, 265920, Note_on_c, 9, 42, 56
1, 265920, Note_on_c, 9, 36, 76
1, 265924, Note_on_c, 9, 42, 0
1, 266040, Note_on_c, 9, 62, 54
1, 266159, Note_on_c, 9, 62, 0
1, 266160, Note_on_c, 9, 42, 56
1, 266164, Note_on_c, 9, 42, 0
1, 266280, Note_on_c, 9, 64, 56
1, 266280, Note_on_c, 9, 46, 28
1, 266284, Note_on_c, 9, 64, 0
1, 266284, Note_on_c, 9, 46, 0
1, 266399, Note_on_c, 9, 36, 0
1, 266400, Note_on_c, 9, 40, 64
1, 266400, Note_on_c, 9, 39, 81
1, 266400, Note_on_c, 9, 42, 56
1, 266400, Note_on_c, 9, 36, 76
1, 266410, Note_on_c, 9, 42, 0
1, 266639, Note_on_c, 9, 40, 0
1, 266639, Note_on_c, 9, 39, 0
1, 266640, Note_on_c, 9, 42, 56
1, 266644, Note_on_c, 9, 42, 0
1, 266760, Note_on_c, 9, 46, 37
1, 266764, Note_on_c, 9, 46, 0
1, 266879, Note_on_c, 9, 36, 0
1, 266880, Note_on_c, 9, 42, 68
1, 266880, Note_on_c, 9, 36, 76
1, 266890, Note_on_c, 9, 42, 0
1, 267120, Note_on_c, 9, 56, 58
1, 267120, Note_on_c, 9, 42, 56
1, 267124, Note_on_c, 9, 42, 0
1, 267239, Note_on_c, 9, 56, 0
1, 267240, Note_on_c, 9, 62, 60
1, 267359, Note_on_c, 9, 36, 0
1, 267359, Note_on_c, 9, 62, 0
1, 267360, Note_on_c, 9, 40, 64
1, 267360, Note_on_c, 9, 42, 56
1, 267360, Note_on_c, 9, 36, 76
1, 267364, Note_on_c, 9, 42, 0
1, 267479, Note_on_c, 9, 40, 0
1, 267480, Note_on_c, 9, 56, 62
1, 267599, Note_on_c, 9, 56, 0
1, 267600, Note_on_c, 9, 62, 64
1, 267600, Note_on_c, 9, 42, 56
1, 267610, Note_on_c, 9, 42, 0
1, 267839, Note_on_c, 9, 36, 0
1, 267839, Note_on_c, 9, 62, 0
1, 267840, Note_on_c, 9, 42, 56
1, 267840, Note_on_c, 9, 36, 76
1, 267844, Note_on_c, 9, 42, 0
1, 267960, Note_on_c, 9, 62, 64
1, 268079, Note_on_c, 9, 62, 0
1, 268080, Note_on_c, 9, 42, 56
1, 268084, Note_on_c, 9, 42, 0
1, 268200, Note_on_c, 9, 46, 50
1, 268204, Note_on_c, 9, 46, 0
1, 268319, Note_on_c, 9, 36, 0
1, 268320, Note_on_c, 9, 64, 36
1, 268320, Note_on_c, 9, 40, 64
1, 268320, Note_on_c, 9, 39, 81
1, 268320, Note_on_c, 9, 42, 56
1, 268320, Note_on_c, 9, 36, 76
1, 268330, Note_on_c, 9, 64, 0
1, 268330, Note_on_c, 9, 42, 0
1, 268559, Note_on_c, 9, 40, 0
1, 268559, Note_on_c, 9, 39, 0
1, 268560, Note_on_c, 9, 42, 56
1, 268570, Note_on_c, 9, 42, 0
1, 268799, Note_on_c, 9, 36, 0
1, 268800, Note_on_c, 9, 42, 56
1, 268800, Note_on_c, 9, 36, 76
1, 268810, Note_on_c, 9, 42, 0
1, 269040, Note_on_c, 9, 56, 56
1, 269040, Note_on_c, 9, 42, 56
1, 269044, Note_on_c, 9, 42, 0
1, 269159, Note_on_c, 9, 56, 0
1, 269160, Note_on_c, 9, 62, 66
1, 269279, Note_on_c, 9, 36, 0
1, 269279, Note_on_c, 9, 62, 0
1, 269280, Note_on_c, 9, 40, 64
1, 269280, Note_on_c, 9, 42, 56
1, 269280, Note_on_c, 9, 36, 76
1, 269284, Note_on_c, 9, 42, 0
1, 269399, Note_on_c, 9, 40, 0
1, 269400, Note_on_c, 9, 56, 56
1, 269519, Note_on_c, 9, 56, 0
1, 269520, Note_on_c, 9, 62, 62
1, 269520, Note_on_c, 9, 42, 56
1, 269530, Note_on_c, 9, 42, 0
1, 269759, Note_on_c, 9, 36, 0
1, 269759, Note_on_c, 9, 62, 0
1, 269760, Note_on_c, 9, 62, 62
1, 269760, Note_on_c, 9, 42, 56
1, 269760, Note_on_c, 9, 36, 76
1, 269764, Note_on_c, 9, 42, 0
1, 269879, Note_on_c, 9, 62, 0
1, 269880, Note_on_c, 9, 62, 54
1, 269999, Note_on_c, 9, 62, 0
1, 270000, Note_on_c, 9, 42, 56
1, 270004, Note_on_c, 9, 42, 0
1, 270120, Note_on_c, 9, 64, 52
1, 270120, Note_on_c, 9, 46, 28
1, 270124, Note_on_c, 9, 64, 0
1, 270124, Note_on_c, 9, 46, 0
1, 270239, Note_on_c, 9, 36, 0
1, 270240, Note_on_c, 9, 40, 64
1, 270240, Note_on_c, 9, 39, 81
1, 270240, Note_on_c, 9, 42, 56
1, 270240, Note_on_c, 9, 36, 76
1, 270250, Note_on_c, 9, 42, 0
1, 270479, Note_on_c, 9, 40, 0
1, 270479, Note_on_c, 9, 39, 0
1, 270480, Note_on_c, 9, 42, 56
1, 270484, Note_on_c, 9, 42, 0
1, 270600, Note_on_c, 9, 46, 64
1, 270604, Note_on_c, 9, 46, 0
1, 270719, Note_on_c, 9, 36, 0
1, 270720, Note_on_c, 9, 42, 56
1, 270720, Note_on_c, 9, 36, 76
1, 270730, Note_on_c, 9, 42, 0
1, 270960, Note_on_c, 9, 56, 60
1, 270960, Note_on_c, 9, 42, 56
1, 270964, Note_on_c, 9, 42, 0
1, 271079, Note_on_c, 9, 56, 0
1, 271080, Note_on_c, 9, 62, 58
1, 271199, Note_on_c, 9, 36, 0
1, 271199, Note_on_c, 9, 62, 0
1, 271200, Note_on_c, 9, 40, 64
1, 271200, Note_on_c, 9, 42, 56
1, 271200, Note_on_c, 9, 36, 76
1, 271204, Note_on_c, 9, 42, 0
1, 271319, Note_on_c, 9, 40, 0
1, 271320, Note_on_c, 9, 56, 58
1, 271439, Note_on_c, 9, 56, 0
1, 271440, Note_on_c, 9, 62, 56
1, 271440, Note_on_c, 9, 42, 56
1, 271450, Note_on_c, 9, 42, 0
1, 271679, Note_on_c, 9, 36, 0
1, 271679, Note_on_c, 9, 62, 0
1, 271680, Note_on_c, 9, 62, 54
1, 271680, Note_on_c, 9, 42, 56
1, 271680, Note_on_c, 9, 36, 76
1, 271684, Note_on_c, 9, 42, 0
1, 271799, Note_on_c, 9, 62, 0
1, 271800, Note_on_c, 9, 62, 54
1, 271919, Note_on_c, 9, 62, 0
1, 271920, Note_on_c, 9, 42, 56
1, 271924, Note_on_c, 9, 42, 0
1, 272040, Note_on_c, 9, 64, 54
1, 272040, Note_on_c, 9, 46, 27
1, 272044, Note_on_c, 9, 64, 0
1, 272044, Note_on_c, 9, 46, 0
1, 272159, Note_on_c, 9, 36, 0
1, 272160, Note_on_c, 9, 40, 64
1, 272160, Note_on_c, 9, 39, 81
1, 272160, Note_on_c, 9, 42, 56
1, 272160, Note_on_c, 9, 36, 76
1, 272170, Note_on_c, 9, 42, 0
1, 272399, Note_on_c, 9, 40, 0
1, 272399, Note_on_c, 9, 39, 0
1, 272400, Note_on_c, 9, 42, 56
1, 272410, Note_on_c, 9, 42, 0
1, 272639, Note_on_c, 9, 36, 0
1, 272640, Note_on_c, 9, 42, 56
1, 272640, Note_on_c, 9, 36, 76
1, 272650, Note_on_c, 9, 42, 0
1, 272880, Note_on_c, 9, 56, 56
1, 272880, Note_on_c, 9, 42, 56
1, 272884, Note_on_c, 9, 42, 0
1, 272999, Note_on_c, 9, 56, 0
1, 273000, Note_on_c, 9, 62, 58
1, 273119, Note_on_c, 9, 36, 0
1, 273119, Note_on_c, 9, 62, 0
1, 273120, Note_on_c, 9, 40, 64
1, 273120, Note_on_c, 9, 42, 56
1, 273120, Note_on_c, 9, 36, 76
1, 273124, Note_on_c, 9, 42, 0
1, 273239, Note_on_c, 9, 40, 0
1, 273240, Note_on_c, 9, 56, 58
1, 273359, Note_on_c, 9, 56, 0
1, 273360, Note_on_c, 9, 62, 52
1, 273360, Note_on_c, 9, 42, 56
1, 273370, Note_on_c, 9, 42, 0
1, 273599, Note_on_c, 9, 36, 0
1, 273599, Note_on_c, 9, 62, 0
1, 273600, Note_on_c, 9, 42, 56
1, 273600, Note_on_c, 9, 36, 76
1, 273604, Note_on_c, 9, 42, 0
1, 273720, Note_on_c, 9, 62, 54
1, 273839, Note_on_c, 9, 62, 0
1, 273840, Note_on_c, 9, 42, 56
1, 273844, Note_on_c, 9, 42, 0
1, 273960, Note_on_c, 9, 64, 56
1, 273960, Note_on_c, 9, 46, 28
1, 273964, Note_on_c, 9, 64, 0
1, 273964, Note_on_c, 9, 46, 0
1, 274079, Note_on_c, 9, 36, 0
1, 274080, Note_on_c, 9, 40, 64
1, 274080, Note_on_c, 9, 39, 81
1, 274080, Note_on_c, 9, 42, 56
1, 274080, Note_on_c, 9, 36, 76
1, 274090, Note_on_c, 9, 42, 0
1, 274319, Note_on_c, 9, 40, 0
1, 274319, Note_on_c, 9, 39, 0
1, 274320, Note_on_c, 9, 42, 56
1, 274324, Note_on_c, 9, 42, 0
1, 274440, Note_on_c, 9, 46, 37
1, 274444, Note_on_c, 9, 46, 0
1, 274559, Note_on_c, 9, 36, 0
1, 274560, Note_on_c, 9, 42, 68
1, 274560, Note_on_c, 9, 36, 76
1, 274570, Note_on_c, 9, 42, 0
1, 274800, Note_on_c, 9, 56, 58
1, 274800, Note_on_c, 9, 42, 56
1, 274804, Note_on_c, 9, 42, 0
1, 274919, Note_on_c, 9, 56, 0
1, 274920, Note_on_c, 9, 62, 60
1, 275039, Note_on_c, 9, 36, 0
1, 275039, Note_on_c, 9, 62, 0
1, 275040, Note_on_c, 9, 40, 64
1, 275040, Note_on_c, 9, 42, 56
1, 275040, Note_on_c, 9, 36, 76
1, 275044, Note_on_c, 9, 42, 0
1, 275159, Note_on_c, 9, 40, 0
1, 275160, Note_on_c, 9, 56, 62
1, 275279, Note_on_c, 9, 56, 0
1, 275280, Note_on_c, 9, 62, 64
1, 275280, Note_on_c, 9, 42, 56
1, 275290, Note_on_c, 9, 42, 0
1, 275519, Note_on_c, 9, 36, 0
1, 275519, Note_on_c, 9, 62, 0
1, 275520, Note_on_c, 9, 42, 56
1, 275520, Note_on_c, 9, 36, 76
1, 275524, Note_on_c, 9, 42, 0
1, 275640, Note_on_c, 9, 62, 64
1, 275759, Note_on_c, 9, 62, 0
1, 275760, Note_on_c, 9, 42, 56
1, 275764, Note_on_c, 9, 42, 0
1, 275880, Note_on_c, 9, 46, 50
1, 275884, Note_on_c, 9, 46, 0
1, 275999, Note_on_c, 9, 36, 0
1, 276000, Note_on_c, 9, 64, 36
1, 276000, Note_on_c, 9, 40, 64
1, 276000, Note_on_c, 9, 39, 81
1, 276000, Note_on_c, 9, 42, 56
1, 276000, Note_on_c, 9, 36, 76
1, 276010, Note_on_c, 9, 64, 0
1, 276010, Note_on_c, 9, 42, 0
1, 276239, Note_on_c, 9, 40, 0
1, 276239, Note_on_c, 9, 39, 0
1, 276240, Note_on_c, 9, 42, 56
1, 276250, Note_on_c, 9, 42, 0
1, 276479, Note_on_c, 9, 36, 0
1, 276480, Note_on_c, 9, 42, 56
1, 276480, Note_on_c, 9, 36, 76
1, 276490, Note_on_c, 9, 42, 0
1, 276720, Note_on_c, 9, 56, 56
1, 276720, Note_on_c, 9, 42, 56
1, 276724, Note_on_c, 9, 42, 0
1, 276839, Note_on_c, 9, 56, 0
1, 276840, Note_on_c, 9, 62, 66
1, 276959, Note_on_c, 9, 36, 0
1, 276959, Note_on_c, 9, 62, 0
1, 276960, Note_on_c, 9, 40, 64
1, 276960, Note_on_c, 9, 42, 56
1, 276960, Note_on_c, 9, 36, 76
1, 276964, Note_on_c, 9, 42, 0
1, 277079, Note_on_c, 9, 40, 0
1, 277080, Note_on_c, 9, 56, 56
1, 277199, Note_on_c, 9, 56, 0
1, 277200, Note_on_c, 9, 62, 62
1, 277200, Note_on_c, 9, 42, 56
1, 277210, Note_on_c, 9, 42, 0
1, 277439, Note_on_c, 9, 36, 0
1, 277439, Note_on_c, 9, 62, 0
1, 277440, Note_on_c, 9, 62, 62
1, 277440, Note_on_c, 9, 42, 56
1, 277440, Note_on_c, 9, 36, 76
1, 277444, Note_on_c, 9, 42, 0
1, 277559, Note_on_c, 9, 62, 0
1, 277560, Note_on_c, 9, 62, 54
1, 277679, Note_on_c, 9, 62, 0
1, 277680, Note_on_c, 9, 42, 56
1, 277684, Note_on_c, 9, 42, 0
1, 277800, Note_on_c, 9, 64, 52
1, 277800, Note_on_c, 9, 46, 28
1, 277804, Note_on_c, 9, 64, 0
1, 277804, Note_on_c, 9, 46, 0
1, 277919, Note_on_c, 9, 36, 0
1, 277920, Note_on_c, 9, 40, 64
1, 277920, Note_on_c, 9, 39, 81
1, 277920, Note_on_c, 9, 42, 56
1, 277920, Note_on_c, 9, 36, 76
1, 277930, Note_on_c, 9, 42, 0
1, 278159, Note_on_c, 9, 40, 0
1, 278159, Note_on_c, 9, 39, 0
1, 278160, Note_on_c, 9, 42, 56
1, 278164, Note_on_c, 9, 42, 0
1, 278280, Note_on_c, 9, 46, 64
1, 278284, Note_on_c, 9, 46, 0
1, 278399, Note_on_c, 9, 36, 0
1, 278400, Note_on_c, 9, 42, 56
1, 278400, Note_on_c, 9, 36, 76
1, 278410, Note_on_c, 9, 42, 0
1, 278640, Note_on_c, 9, 56, 60
1, 278640, Note_on_c, 9, 42, 56
1, 278644, Note_on_c, 9, 42, 0
1, 278759, Note_on_c, 9, 56, 0
1, 278760, Note_on_c, 9, 62, 58
1, 278879, Note_on_c, 9, 36, 0
1, 278879, Note_on_c, 9, 62, 0
1, 278880, Note_on_c, 9, 40, 64
1, 278880, Note_on_c, 9, 42, 56
1, 278880, Note_on_c, 9, 36, 76
1, 278884, Note_on_c, 9, 42, 0
1, 278999, Note_on_c, 9, 40, 0
1, 279000, Note_on_c, 9, 56, 58
1, 279119, Note_on_c, 9, 56, 0
1, 279120, Note_on_c, 9, 62, 56
1, 279120, Note_on_c, 9, 42, 56
1, 279130, Note_on_c, 9, 42, 0
1, 279359, Note_on_c, 9, 36, 0
1, 279359, Note_on_c, 9, 62, 0
1, 279360, Note_on_c, 9, 62, 54
1, 279360, Note_on_c, 9, 42, 56
1, 279360, Note_on_c, 9, 36, 76
1, 279364, Note_on_c, 9, 42, 0
1, 279479, Note_on_c, 9, 62, 0
1, 279480, Note_on_c, 9, 62, 54
1, 279599, Note_on_c, 9, 62, 0
1, 279600, Note_on_c, 9, 42, 56
1, 279604, Note_on_c, 9, 42, 0
1, 279720, Note_on_c, 9, 64, 54
1, 279720, Note_on_c, 9, 46, 27
1, 279724, Note_on_c, 9, 64, 0
1, 279724, Note_on_c, 9, 46, 0
1, 279839, Note_on_c, 9, 36, 0
1, 279840, Note_on_c, 9, 40, 64
1, 279840, Note_on_c, 9, 39, 81
1, 279840, Note_on_c, 9, 42, 56
1, 279840, Note_on_c, 9, 36, 76
1, 279850, Note_on_c, 9, 42, 0
1, 280079, Note_on_c, 9, 40, 0
1, 280079, Note_on_c, 9, 39, 0
1, 280080, Note_on_c, 9, 42, 56
1, 280090, Note_on_c, 9, 42, 0
1, 280319, Note_on_c, 9, 36, 0
1, 280320, Note_on_c, 9, 42, 56
1, 280320, Note_on_c, 9, 36, 76
1, 280330, Note_on_c, 9, 42, 0
1, 280560, Note_on_c, 9, 56, 56
1, 280560, Note_on_c, 9, 42, 56
1, 280564, Note_on_c, 9, 42, 0
1, 280679, Note_on_c, 9, 56, 0
1, 280680, Note_on_c, 9, 62, 58
1, 280799, Note_on_c, 9, 36, 0
1, 280799, Note_on_c, 9, 62, 0
1, 280800, Note_on_c, 9, 40, 64
1, 280800, Note_on_c, 9, 42, 56
1, 280800, Note_on_c, 9, 36, 76
1, 280804, Note_on_c, 9, 42, 0
1, 280919, Note_on_c, 9, 40, 0
1, 280920, Note_on_c, 9, 56, 58
1, 281039, Note_on_c, 9, 56, 0
1, 281040, Note_on_c, 9, 62, 52
1, 281040, Note_on_c, 9, 42, 56
1, 281050, Note_on_c, 9, 42, 0
1, 281279, Note_on_c, 9, 36, 0
1, 281279, Note_on_c, 9, 62, 0
1, 281280, Note_on_c, 9, 42, 56
1, 281280, Note_on_c, 9, 36, 76
1, 281284, Note_on_c, 9, 42, 0
1, 281400, Note_on_c, 9, 62, 54
1, 281519, Note_on_c, 9, 62, 0
1, 281520, Note_on_c, 9, 42, 56
1, 281524, Note_on_c, 9, 42, 0
1, 281640, Note_on_c, 9, 64, 56
1, 281640, Note_on_c, 9, 46, 28
1, 281644, Note_on_c, 9, 64, 0
1, 281644, Note_on_c, 9, 46, 0
1, 281759, Note_on_c, 9, 36, 0
1, 281760, Note_on_c, 9, 40, 64
1, 281760, Note_on_c, 9, 39, 81
1, 281760, Note_on_c, 9, 42, 56
1, 281760, Note_on_c, 9, 36, 76
1, 281770, Note_on_c, 9, 42, 0
1, 281999, Note_on_c, 9, 40, 0
1, 281999, Note_on_c, 9, 39, 0
1, 282000, Note_on_c, 9, 42, 56
1, 282004, Note_on_c, 9, 42, 0
1, 282120, Note_on_c, 9, 46, 37
1, 282124, Note_on_c, 9, 46, 0
1, 282239, Note_on_c, 9, 36, 0
1, 282240, Note_on_c, 9, 42, 68
1, 282240, Note_on_c, 9, 36, 76
1, 282250, Note_on_c, 9, 42, 0
1, 282480, Note_on_c, 9, 56, 58
1, 282480, Note_on_c, 9, 42, 56
1, 282484, Note_on_c, 9, 42, 0
1, 282599, Note_on_c, 9, 56, 0
1, 282600, Note_on_c, 9, 62, 60
1, 282719, Note_on_c, 9, 36, 0
1, 282719, Note_on_c, 9, 62, 0
1, 282720, Note_on_c, 9, 40, 64
1, 282720, Note_on_c, 9, 42, 56
1, 282720, Note_on_c, 9, 36, 76
1, 282724, Note_on_c, 9, 42, 0
1, 282839, Note_on_c, 9, 40, 0
1, 282840, Note_on_c, 9, 56, 62
1, 282959, Note_on_c, 9, 56, 0
1, 282960, Note_on_c, 9, 62, 64
1, 282960, Note_on_c, 9, 42, 56
1, 282970, Note_on_c, 9, 42, 0
1, 283199, Note_on_c, 9, 36, 0
1, 283199, Note_on_c, 9, 62, 0
1, 283200, Note_on_c, 9, 42, 56
1, 283200, Note_on_c, 9, 36, 76
1, 283204, Note_on_c, 9, 42, 0
1, 283320, Note_on_c, 9, 62, 64
1, 283439, Note_on_c, 9, 62, 0
1, 283440, Note_on_c, 9, 42, 56
1, 283444, Note_on_c, 9, 42, 0
1, 283560, Note_on_c, 9, 46, 50
1, 283564, Note_on_c, 9, 46, 0
1, 283679, Note_on_c, 9, 36, 0
1, 283680, Note_on_c, 9, 64, 36
1, 283680, Note_on_c, 9, 40, 64
1, 283680, Note_on_c, 9, 39, 81
1, 283680, Note_on_c, 9, 42, 56
1, 283680, Note_on_c, 9, 36, 76
1, 283690, Note_on_c, 9, 64, 0
1, 283690, Note_on_c, 9, 42, 0
1, 283919, Note_on_c, 9, 40, 0
1, 283919, Note_on_c, 9, 39, 0
1, 283920, Note_on_c, 9, 42, 56
1, 283930, Note_on_c, 9, 42, 0
1, 284159, Note_on_c, 9, 36, 0
1, 284160, Note_on_c, 9, 42, 56
1, 284160, Note_on_c, 9, 36, 76
1, 284170, Note_on_c, 9, 42, 0
1, 284400, Note_on_c, 9, 56, 56
1, 284400, Note_on_c, 9, 42, 56
1, 284404, Note_on_c, 9, 42, 0
1, 284519, Note_on_c, 9, 56, 0
1, 284520, Note_on_c, 9, 62, 66
1, 284639, Note_on_c, 9, 36, 0
1, 284639, Note_on_c, 9, 62, 0
1, 284640, Note_on_c, 9, 40, 64
1, 284640, Note_on_c, 9, 42, 56
1, 284640, Note_on_c, 9, 36, 76
1, 284644, Note_on_c, 9, 42, 0
1, 284759, Note_on_c, 9, 40, 0
1, 284760, Note_on_c, 9, 56, 56
1, 284879, Note_on_c, 9, 56, 0
1, 284880, Note_on_c, 9, 62, 62
1, 284880, Note_on_c, 9, 42, 56
1, 284890, Note_on_c, 9, 42, 0
1, 285119, Note_on_c, 9, 36, 0
1, 285119, Note_on_c, 9, 62, 0
1, 285120, Note_on_c, 9, 62, 62
1, 285120, Note_on_c, 9, 42, 56
1, 285120, Note_on_c, 9, 36, 76
1, 285124, Note_on_c, 9, 42, 0
1, 285239, Note_on_c, 9, 62, 0
1, 285240, Note_on_c, 9, 62, 54
1, 285359, Note_on_c, 9, 62, 0
1, 285360, Note_on_c, 9, 42, 56
1, 285364, Note_on_c, 9, 42, 0
1, 285480, Note_on_c, 9, 64, 52
1, 285480, Note_on_c, 9, 46, 28
1, 285484, Note_on_c, 9, 64, 0
1, 285484, Note_on_c, 9, 46, 0
1, 285599, Note_on_c, 9, 36, 0
1, 285600, Note_on_c, 9, 40, 64
1, 285600, Note_on_c, 9, 39, 81
1, 285600, Note_on_c, 9, 42, 56
1, 285600, Note_on_c, 9, 36, 76
1, 285610, Note_on_c, 9, 42, 0
1, 285839, Note_on_c, 9, 40, 0
1, 285839, Note_on_c, 9, 39, 0
1, 285840, Note_on_c, 9, 42, 56
1, 285844, Note_on_c, 9, 42, 0
1, 285960, Note_on_c, 9, 46, 64
1, 285964, Note_on_c, 9, 46, 0
1, 286079, Note_on_c, 9, 36, 0
1, 286080, Note_on_c, 9, 42, 56
1, 286080, Note_on_c, 9, 36, 76
1, 286090, Note_on_c, 9, 42, 0
1, 286320, Note_on_c, 9, 56, 60
1, 286320, Note_on_c, 9, 42, 56
1, 286324, Note_on_c, 9, 42, 0
1, 286439, Note_on_c, 9, 56, 0
1, 286440, Note_on_c, 9, 62, 58
1, 286559, Note_on_c, 9, 36, 0
1, 286559, Note_on_c, 9, 62, 0
1, 286560, Note_on_c, 9, 40, 64
1, 286560, Note_on_c, 9, 42, 56
1, 286560, Note_on_c, 9, 36, 76
1, 286564, Note_on_c, 9, 42, 0
1, 286679, Note_on_c, 9, 40, 0
1, 286680, Note_on_c, 9, 56, 58
1, 286799, Note_on_c, 9, 56, 0
1, 286800, Note_on_c, 9, 62, 56
1, 286800, Note_on_c, 9, 42, 56
1, 286810, Note_on_c, 9, 42, 0
1, 287039, Note_on_c, 9, 36, 0
1, 287039, Note_on_c, 9, 62, 0
1, 287040, Note_on_c, 9, 62, 54
1, 287040, Note_on_c, 9, 42, 56
1, 287040, Note_on_c, 9, 36, 76
1, 287044, Note_on_c, 9, 42, 0
1, 287159, Note_on_c, 9, 62, 0
1, 287160, Note_on_c, 9, 62, 54
1, 287279, Note_on_c, 9, 62, 0
1, 287280, Note_on_c, 9, 42, 56
1, 287284, Note_on_c, 9, 42, 0
1, 287400, Note_on_c, 9, 64, 54
1, 287400, Note_on_c, 9, 46, 27
1, 287404, Note_on_c, 9, 64, 0
1, 287404, Note_on_c, 9, 46, 0
1, 287519, Note_on_c, 9, 36, 0
1, 287520, Note_on_c, 9, 40, 64
1, 287520, Note_on_c, 9, 39, 81
1, 287520, Note_on_c, 9, 42, 56
1, 287520, Note_on_c, 9, 36, 76
1, 287530, Note_on_c, 9, 42, 0
1, 287759, Note_on_c, 9, 40, 0
1, 287759, Note_on_c, 9, 39, 0
1, 287760, Note_on_c, 9, 42, 56
1, 287770, Note_on_c, 9, 42, 0
1, 287999, Note_on_c, 9, 36, 0
1, 288000, Note_on_c, 9, 42, 56
1, 288000, Note_on_c, 9, 36, 76
1, 288010, Note_on_c, 9, 42, 0
1, 288240, Note_on_c, 9, 56, 56
1, 288240, Note_on_c, 9, 42, 56
1, 288244, Note_on_c, 9, 42, 0
1, 288359, Note_on_c, 9, 56, 0
1, 288360, Note_on_c, 9, 62, 58
1, 288479, Note_on_c, 9, 36, 0
1, 288479, Note_on_c, 9, 62, 0
1, 288480, Note_on_c, 9, 40, 64
1, 288480, Note_on_c, 9, 42, 56
1, 288480, Note_on_c, 9, 36, 76
1, 288484, Note_on_c, 9, 42, 0
1, 288599, Note_on_c, 9, 40, 0
1, 288600, Note_on_c, 9, 56, 58
1, 288719, Note_on_c, 9, 56, 0
1, 288720, Note_on_c, 9, 62, 52
1, 288720, Note_on_c, 9, 42, 56
1, 288730, Note_on_c, 9, 42, 0
1, 288959, Note_on_c, 9, 36, 0
1, 288959, Note_on_c, 9, 62, 0
1, 288960, Note_on_c, 9, 42, 56
1, 288960, Note_on_c, 9, 36, 76
1, 288964, Note_on_c, 9, 42, 0
1, 289080, Note_on_c, 9, 62, 54
1, 289199, Note_on_c, 9, 62, 0
1, 289200, Note_on_c, 9, 42, 56
1, 289204, Note_on_c, 9, 42, 0
1, 289320, Note_on_c, 9, 64, 56
1, 289320, Note_on_c, 9, 46, 28
1, 289324, Note_on_c, 9, 64, 0
1, 289324, Note_on_c, 9, 46, 0
1, 289439, Note_on_c, 9, 36, 0
1, 289440, Note_on_c, 9, 40, 64
1, 289440, Note_on_c, 9, 39, 81
1, 289440, Note_on_c, 9, 42, 56
1, 289440, Note_on_c, 9, 36, 76
1, 289450, Note_on_c, 9, 42, 0
1, 289679, Note_on_c, 9, 40, 0
1, 289679, Note_on_c, 9, 39, 0
1, 289680, Note_on_c, 9, 42, 56
1, 289684, Note_on_c, 9, 42, 0
1, 289800, Note_on_c, 9, 46, 37
1, 289804, Note_on_c, 9, 46, 0
1, 289919, Note_on_c, 9, 36, 0
1, 289920, Note_on_c, 9, 42, 68
1, 289920, Note_on_c, 9, 36, 76
1, 289930, Note_on_c, 9, 42, 0
1, 290160, Note_on_c, 9, 56, 58
1, 290160, Note_on_c, 9, 42, 56
1, 290164, Note_on_c, 9, 42, 0
1, 290279, Note_on_c, 9, 56, 0
1, 290280, Note_on_c, 9, 62, 60
1, 290399, Note_on_c, 9, 36, 0
1, 290399, Note_on_c, 9, 62, 0
1, 290400, Note_on_c, 9, 40, 64
1, 290400, Note_on_c, 9, 42, 56
1, 290400, Note_on_c, 9, 36, 76
1, 290404, Note_on_c, 9, 42, 0
1, 290519, Note_on_c, 9, 40, 0
1, 290520, Note_on_c, 9, 56, 62
1, 290639, Note_on_c, 9, 56, 0
1, 290640, Note_on_c, 9, 62, 64
1, 290640, Note_on_c, 9, 42, 56
1, 290650, Note_on_c, 9, 42, 0
1, 290879, Note_on_c, 9, 36, 0
1, 290879, Note_on_c, 9, 62, 0
1, 290880, Note_on_c, 9, 42, 56
1, 290880, Note_on_c, 9, 36, 76
1, 290884, Note_on_c, 9, 42, 0
1, 291000, Note_on_c, 9, 62, 64
1, 291119, Note_on_c, 9, 62, 0
1, 291120, Note_on_c, 9, 42, 56
1, 291124, Note_on_c, 9, 42, 0
1, 291240, Note_on_c, 9, 46, 50
1, 291244, Note_on_c, 9, 46, 0
1, 291359, Note_on_c, 9, 36, 0
1, 291360, Note_on_c, 9, 64, 36
1, 291360, Note_on_c, 9, 40, 64
1, 291360, Note_on_c, 9, 39, 81
1, 291360, Note_on_c, 9, 42, 56
1, 291360, Note_on_c, 9, 36, 76
1, 291370, Note_on_c, 9, 64, 0
1, 291370, Note_on_c, 9, 42, 0
1, 291599, Note_on_c, 9, 40, 0
1, 291599, Note_on_c, 9, 39, 0
1, 291600, Note_on_c, 9, 42, 56
1, 291610, Note_on_c, 9, 42, 0
1, 291839, Note_on_c, 9, 36, 0
1, 291840, Note_on_c, 9, 42, 56
1, 291840, Note_on_c, 9, 36, 76
1, 291850, Note_on_c, 9, 42, 0
1, 292080, Note_on_c, 9, 56, 56
1, 292080, Note_on_c, 9, 42, 56
1, 292084, Note_on_c, 9, 42, 0
1, 292199, Note_on_c, 9, 56, 0
1, 292200, Note_on_c, 9, 62, 66
1, 292319, Note_on_c, 9, 36, 0
1, 292319, Note_on_c, 9, 62, 0
1, 292320, Note_on_c, 9, 40, 64
1, 292320, Note_on_c, 9, 42, 56
1, 292320, Note_on_c, 9, 36, 76
1, 292324, Note_on_c, 9, 42, 0
1, 292439, Note_on_c, 9, 40, 0
1, 292440, Note_on_c, 9, 56, 56
1, 292559, Note_on_c, 9, 56, 0
1, 292560, Note_on_c, 9, 62, 62
1, 292560, Note_on_c, 9, 42, 56
1, 292570, Note_on_c, 9, 42, 0
1, 292799, Note_on_c, 9, 36, 0
1, 292799, Note_on_c, 9, 62, 0
1, 292800, Note_on_c, 9, 62, 62
1, 292800, Note_on_c, 9, 42, 56
1, 292800, Note_on_c, 9, 36, 76
1, 292804, Note_on_c, 9, 42, 0
1, 292919, Note_on_c, 9, 62, 0
1, 292920, Note_on_c, 9, 62, 54
1, 293039, Note_on_c, 9, 62, 0
1, 293040, Note_on_c, 9, 42, 56
1, 293044, Note_on_c, 9, 42, 0
1, 293160, Note_on_c, 9, 64, 52
1, 293160, Note_on_c, 9, 46, 28
1, 293164, Note_on_c, 9, 64, 0
1, 293164, Note_on_c, 9, 46, 0
1, 293279, Note_on_c, 9, 36, 0
1, 293280, Note_on_c, 9, 40, 64
1, 293280, Note_on_c, 9, 39, 81
1, 293280, Note_on_c, 9, 42, 56
1, 293280, Note_on_c, 9, 36, 76
1, 293290, Note_on_c, 9, 42, 0
1, 293519, Note_on_c, 9, 40, 0
1, 293519, Note_on_c, 9, 39, 0
1, 293520, Note_on_c, 9, 42, 56
1, 293524, Note_on_c, 9, 42, 0
1, 293640, Note_on_c, 9, 46, 64
1, 293644, Note_on_c, 9, 46, 0
1, 293759, Note_on_c, 9, 36, 0
1, 293760, Note_on_c, 9, 42, 56
1, 293760, Note_on_c, 9, 36, 76
1, 293770, Note_on_c, 9, 42, 0
1, 294000, Note_on_c, 9, 56, 60
1, 294000, Note_on_c, 9, 42, 56
1, 294004, Note_on_c, 9, 42, 0
1, 294119, Note_on_c, 9, 56, 0
1, 294120, Note_on_c, 9, 62, 58
1, 294239, Note_on_c, 9, 36, 0
1, 294239, Note_on_c, 9, 62, 0
1, 294240, Note_on_c, 9, 40, 64
1, 294240, Note_on_c, 9, 42, 56
1, 294240, Note_on_c, 9, 36, 76
1, 294244, Note_on_c, 9, 42, 0
1, 294359, Note_on_c, 9, 40, 0
1, 294360, Note_on_c, 9, 56, 58
1, 294479, Note_on_c, 9, 56, 0
1, 294480, Note_on_c, 9, 62, 56
1, 294480, Note_on_c, 9, 42, 56
1, 294490, Note_on_c, 9, 42, 0
1, 294719, Note_on_c, 9, 36, 0
1, 294719, Note_on_c, 9, 62, 0
1, 294720, Note_on_c, 9, 62, 54
1, 294720, Note_on_c, 9, 42, 56
1, 294720, Note_on_c, 9, 36, 76
1, 294724, Note_on_c, 9, 42, 0
1, 294839, Note_on_c, 9, 62, 0
1, 294840, Note_on_c, 9, 62, 54
1, 294959, Note_on_c, 9, 62, 0
1, 294960, Note_on_c, 9, 42, 56
1, 294964, Note_on_c, 9, 42, 0
1, 295080, Note_on_c, 9, 64, 54
1, 295080, Note_on_c, 9, 46, 27
1, 295084, Note_on_c, 9, 64, 0
1, 295084, Note_on_c, 9, 46, 0
1, 295199, Note_on_c, 9, 36, 0
1, 295200, Note_on_c, 9, 40, 64
1, 295200, Note_on_c, 9, 39, 81
1, 295200, Note_on_c, 9, 42, 56
1, 295200, Note_on_c, 9, 36, 76
1, 295210, Note_on_c, 9, 42, 0
1, 295439, Note_on_c, 9, 40, 0
1, 295439, Note_on_c, 9, 39, 0
1, 295440, Note_on_c, 9, 42, 56
1, 295450, Note_on_c, 9, 42, 0
1, 295679, Note_on_c, 9, 36, 0
1, 295680, Note_on_c, 9, 42, 56
1, 295680, Note_on_c, 9, 36, 76
1, 295690, Note_on_c, 9, 42, 0
1, 295920, Note_on_c, 9, 56, 56
1, 295920, Note_on_c, 9, 42, 56
1, 295924, Note_on_c, 9, 42, 0
1, 296039, Note_on_c, 9, 56, 0
1, 296040, Note_on_c, 9, 62, 58
1, 296159, Note_on_c, 9, 36, 0
1, 296159, Note_on_c, 9, 62, 0
1, 296160, Note_on_c, 9, 40, 64
1, 296160, Note_on_c, 9, 42, 56
1, 296160, Note_on_c, 9, 36, 76
1, 296164, Note_on_c, 9, 42, 0
1, 296279, Note_on_c, 9, 40, 0
1, 296280, Note_on_c, 9, 56, 58
1, 296399, Note_on_c, 9, 56, 0
1, 296400, Note_on_c, 9, 62, 52
1, 296400, Note_on_c, 9, 42, 56
1, 296410, Note_on_c, 9, 42, 0
1, 296639, Note_on_c, 9, 36, 0
1, 296639, Note_on_c, 9, 62, 0
1, 296640, Note_on_c, 9, 42, 56
1, 296640, Note_on_c, 9, 36, 76
1, 296644, Note_on_c, 9, 42, 0
1, 296760, Note_on_c, 9, 62, 54
1, 296879, Note_on_c, 9, 62, 0
1, 296880, Note_on_c, 9, 42, 56
1, 296884, Note_on_c, 9, 42, 0
1, 297000, Note_on_c, 9, 64, 56
1, 297000, Note_on_c, 9, 46, 28
1, 297004, Note_on_c, 9, 64, 0
1, 297004, Note_on_c, 9, 46, 0
1, 297119, Note_on_c, 9, 36, 0
1, 297120, Note_on_c, 9, 40, 64
1, 297120, Note_on_c, 9, 39, 81
1, 297120, Note_on_c, 9, 42, 56
1, 297120, Note_on_c, 9, 36, 76
1, 297130, Note_on_c, 9, 42, 0
1, 297359, Note_on_c, 9, 40, 0
1, 297359, Note_on_c, 9, 39, 0
1, 297360, Note_on_c, 9, 42, 56
1, 297364, Note_on_c, 9, 42, 0
1, 297480, Note_on_c, 9, 46, 37
1, 297484, Note_on_c, 9, 46, 0
1, 297599, Note_on_c, 9, 36, 0
1, 297600, Note_on_c, 9, 42, 68
1, 297600, Note_on_c, 9, 36, 76
1, 297610, Note_on_c, 9, 42, 0
1, 297840, Note_on_c, 9, 56, 58
1, 297840, Note_on_c, 9, 42, 56
1, 297844, Note_on_c, 9, 42, 0
1, 297959, Note_on_c, 9, 56, 0
1, 297960, Note_on_c, 9, 62, 60
1, 298079, Note_on_c, 9, 36, 0
1, 298079, Note_on_c, 9, 62, 0
1, 298080, Note_on_c, 9, 40, 64
1, 298080, Note_on_c, 9, 42, 56
1, 298080, Note_on_c, 9, 36, 76
1, 298084, Note_on_c, 9, 42, 0
1, 298199, Note_on_c, 9, 40, 0
1, 298200, Note_on_c, 9, 56, 62
1, 298319, Note_on_c, 9, 56, 0
1, 298320, Note_on_c, 9, 62, 64
1, 298320, Note_on_c, 9, 42, 56
1, 298330, Note_on_c, 9, 42, 0
1, 298559, Note_on_c, 9, 36, 0
1, 298559, Note_on_c, 9, 62, 0
1, 298560, Note_on_c, 9, 42, 56
1, 298560, Note_on_c, 9, 36, 76
1, 298564, Note_on_c, 9, 42, 0
1, 298680, Note_on_c, 9, 62, 64
1, 298799, Note_on_c, 9, 62, 0
1, 298800, Note_on_c, 9, 42, 56
1, 298804, Note_on_c, 9, 42, 0
1, 298920, Note_on_c, 9, 46, 50
1, 298924, Note_on_c, 9, 46, 0
1, 299039, Note_on_c, 9, 36, 0
1, 299040, Note_on_c, 9, 64, 36
1, 299040, Note_on_c, 9, 40, 64
1, 299040, Note_on_c, 9, 39, 81
1, 299040, Note_on_c, 9, 42, 56
1, 299040, Note_on_c, 9, 36, 76
1, 299050, Note_on_c, 9, 64, 0
1, 299050, Note_on_c, 9, 42, 0
1, 299279, Note_on_c, 9, 40, 0
1, 299279, Note_on_c, 9, 39, 0
1, 299280, Note_on_c, 9, 42, 56
1, 299290, Note_on_c, 9, 42, 0
1, 299519, Note_on_c, 9, 36, 0
1, 299520, Note_on_c, 9, 42, 56
1, 299520, Note_on_c, 9, 36, 76
1, 299530, Note_on_c, 9, 42, 0
1, 299760, Note_on_c, 9, 56, 56
1, 299760, Note_on_c, 9, 42, 56
1, 299764, Note_on_c, 9, 42, 0
1, 299879, Note_on_c, 9, 56, 0
1, 299880, Note_on_c, 9, 62, 66
1, 299999, Note_on_c, 9, 36, 0
1, 299999, Note_on_c, 9, 62, 0
1, 300000, Note_on_c, 9, 40, 64
1, 300000, Note_on_c, 9, 42, 56
1, 300000, Note_on_c, 9, 36, 76
1, 300004, Note_on_c, 9, 42, 0
1, 300119, Note_on_c, 9, 40, 0
1, 300120, Note_on_c, 9, 56, 56
1, 300239, Note_on_c, 9, 56, 0
1, 300240, Note_on_c, 9, 62, 62
1, 300240, Note_on_c, 9, 42, 56
1, 300250, Note_on_c, 9, 42, 0
1, 300479, Note_on_c, 9, 36, 0
1, 300479, Note_on_c, 9, 62, 0
1, 300480, Note_on_c, 9, 62, 62
1, 300480, Note_on_c, 9, 42, 56
1, 300480, Note_on_c, 9, 36, 76
1, 300484, Note_on_c, 9, 42, 0
1, 300599, Note_on_c, 9, 62, 0
1, 300600, Note_on_c, 9, 62, 54
1, 300719, Note_on_c, 9, 62, 0
1, 300720, Note_on_c, 9, 42, 56
1, 300724, Note_on_c, 9, 42, 0
1, 300840, Note_on_c, 9, 64, 52
1, 300840, Note_on_c, 9, 46, 28
1, 300844, Note_on_c, 9, 64, 0
1, 300844, Note_on_c, 9, 46, 0
1, 300959, Note_on_c, 9, 36, 0
1, 300960, Note_on_c, 9, 40, 64
1, 300960, Note_on_c, 9, 39, 81
1, 300960, Note_on_c, 9, 42, 56
1, 300960, Note_on_c, 9, 36, 76
1, 300970, Note_on_c, 9, 42, 0
1, 301199, Note_on_c, 9, 40, 0
1, 301199, Note_on_c, 9, 39, 0
1, 301200, Note_on_c, 9, 42, 56
1, 301204, Note_on_c, 9, 42, 0
1, 301320, Note_on_c, 9, 46, 64
1, 301324, Note_on_c, 9, 46, 0
1, 301439, Note_on_c, 9, 36, 0
1, 301440, Note_on_c, 9, 42, 56
1, 301440, Note_on_c, 9, 36, 76
1, 301450, Note_on_c, 9, 42, 0
1, 301680, Note_on_c, 9, 56, 60
1, 301680, Note_on_c, 9, 42, 56
1, 301684, Note_on_c, 9, 42, 0
1, 301799, Note_on_c, 9, 56, 0
1, 301800, Note_on_c, 9, 62, 58
1, 301919, Note_on_c, 9, 36, 0
1, 301919, Note_on_c, 9, 62, 0
1, 301920, Note_on_c, 9, 40, 64
1, 301920, Note_on_c, 9, 42, 56
1, 301920, Note_on_c, 9, 36, 76
1, 301924, Note_on_c, 9, 42, 0
1, 302039, Note_on_c, 9, 40, 0
1, 302040, Note_on_c, 9, 56, 58
1, 302159, Note_on_c, 9, 56, 0
1, 302160, Note_on_c, 9, 62, 56
1, 302160, Note_on_c, 9, 42, 56
1, 302170, Note_on_c, 9, 42, 0
1, 302399, Note_on_c, 9, 36, 0
1, 302399, Note_on_c, 9, 62, 0
1, 302400, Note_on_c, 9, 62, 54
1, 302400, Note_on_c, 9, 42, 56
1, 302400, Note_on_c, 9, 36, 76
1, 302404, Note_on_c, 9, 42, 0
1, 302519, Note_on_c, 9, 62, 0
1, 302520, Note_on_c, 9, 62, 54
1, 302639, Note_on_c, 9, 62, 0
1, 302640, Note_on_c, 9, 42, 56
1, 302644, Note_on_c, 9, 42, 0
1, 302760, Note_on_c, 9, 64, 54
1, 302760, Note_on_c, 9, 46, 27
1, 302764, Note_on_c, 9, 64, 0
1, 302764, Note_on_c, 9, 46, 0
1, 302879, Note_on_c, 9, 36, 0
1, 302880, Note_on_c, 9, 40, 64
1, 302880, Note_on_c, 9, 39, 81
1, 302880, Note_on_c, 9, 42, 56
1, 302880, Note_on_c, 9, 36, 76
1, 302890, Note_on_c, 9, 42, 0
1, 303119, Note_on_c, 9, 40, 0
1, 303119, Note_on_c, 9, 39, 0
1, 303120, Note_on_c, 9, 42, 56
1, 303130, Note_on_c, 9, 42, 0
1, 303359, Note_on_c, 9, 36, 0
1, 303360, Note_on_c, 9, 42, 56
1, 303360, Note_on_c, 9, 36, 76
1, 303370, Note_on_c, 9, 42, 0
1, 303600, Note_on_c, 9, 56, 56
1, 303600, Note_on_c, 9, 42, 56
1, 303604, Note_on_c, 9, 42, 0
1, 303719, Note_on_c, 9, 56, 0
1, 303720, Note_on_c, 9, 62, 58
1, 303839, Note_on_c, 9, 36, 0
1, 303839, Note_on_c, 9, 62, 0
1, 303840, Note_on_c, 9, 40, 64
1, 303840, Note_on_c, 9, 42, 56
1, 303840, Note_on_c, 9, 36, 76
1, 303844, Note_on_c, 9, 42, 0
1, 303959, Note_on_c, 9, 40, 0
1, 303960, Note_on_c, 9, 56, 58
1, 304079, Note_on_c, 9, 56, 0
1, 304080, Note_on_c, 9, 62, 52
1, 304080, Note_on_c, 9, 42, 56
1, 304090, Note_on_c, 9, 42, 0
1, 304319, Note_on_c, 9, 36, 0
1, 304319, Note_on_c, 9, 62, 0
1, 304320, Note_on_c, 9, 42, 56
1, 304320, Note_on_c, 9, 36, 76
1, 304324, Note_on_c, 9, 42, 0
1, 304440, Note_on_c, 9, 62, 54
1, 304559, Note_on_c, 9, 62, 0
1, 304560, Note_on_c, 9, 42, 56
1, 304564, Note_on_c, 9, 42, 0
1, 304680, Note_on_c, 9, 64, 56
1, 304680, Note_on_c, 9, 46, 28
1, 304684, Note_on_c, 9, 64, 0
1, 304684, Note_on_c, 9, 46, 0
1, 304799, Note_on_c, 9, 36, 0
1, 304800, Note_on_c, 9, 40, 64
1, 304800, Note_on_c, 9, 39, 81
1, 304800, Note_on_c, 9, 42, 56
1, 304800, Note_on_c, 9, 36, 76
1, 304810, Note_on_c, 9, 42, 0
1, 305039, Note_on_c, 9, 40, 0
1, 305039, Note_on_c, 9, 39, 0
1, 305040, Note_on_c, 9, 42, 56
1, 305044, Note_on_c, 9, 42, 0
1, 305160, Note_on_c, 9, 46, 37
1, 305164, Note_on_c, 9, 46, 0
1, 305279, Note_on_c, 9, 36, 0
1, 305280, Note_on_c, 9, 42, 56
1, 305280, Note_on_c, 9, 36, 76
1, 305290, Note_on_c, 9, 42, 0
1, 305520, Note_on_c, 9, 56, 60
1, 305520, Note_on_c, 9, 42, 56
1, 305524, Note_on_c, 9, 42, 0
1, 305639, Note_on_c, 9, 56, 0
1, 305640, Note_on_c, 9, 62, 58
1, 305759, Note_on_c, 9, 36, 0
1, 305759, Note_on_c, 9, 62, 0
1, 305760, Note_on_c, 9, 40, 64
1, 305760, Note_on_c, 9, 42, 56
1, 305760, Note_on_c, 9, 36, 76
1, 305764, Note_on_c, 9, 42, 0
1, 305879, Note_on_c, 9, 40, 0
1, 305880, Note_on_c, 9, 56, 58
1, 305999, Note_on_c, 9, 56, 0
1, 306000, Note_on_c, 9, 62, 56
1, 306000, Note_on_c, 9, 42, 56
1, 306010, Note_on_c, 9, 42, 0
1, 306239, Note_on_c, 9, 36, 0
1, 306239, Note_on_c, 9, 62, 0
1, 306240, Note_on_c, 9, 62, 54
1, 306240, Note_on_c, 9, 42, 56
1, 306240, Note_on_c, 9, 36, 76
1, 306244, Note_on_c, 9, 42, 0
1, 306359, Note_on_c, 9, 62, 0
1, 306360, Note_on_c, 9, 62, 54
1, 306479, Note_on_c, 9, 62, 0
1, 306480, Note_on_c, 9, 42, 56
1, 306484, Note_on_c, 9, 42, 0
1, 306600, Note_on_c, 9, 64, 54
1, 306600, Note_on_c, 9, 46, 27
1, 306604, Note_on_c, 9, 64, 0
1, 306604, Note_on_c, 9, 46, 0
1, 306719, Note_on_c, 9, 36, 0
1, 306720, Note_on_c, 9, 40, 64
1, 306720, Note_on_c, 9, 39, 81
1, 306720, Note_on_c, 9, 42, 56
1, 306720, Note_on_c, 9, 36, 76
1, 306730, Note_on_c, 9, 42, 0
1, 306959, Note_on_c, 9, 40, 0
1, 306959, Note_on_c, 9, 39, 0
1, 306960, Note_on_c, 9, 42, 56
1, 306970, Note_on_c, 9, 42, 0
1, 307199, Note_on_c, 9, 36, 0
1, 307200, Note_on_c, 9, 42, 56
1, 307200, Note_on_c, 9, 36, 76
1, 307210, Note_on_c, 9, 42, 0
1, 307440, Note_on_c, 9, 56, 56
1, 307440, Note_on_c, 9, 42, 56
1, 307444, Note_on_c, 9, 42, 0
1, 307559, Note_on_c, 9, 56, 0
1, 307560, Note_on_c, 9, 62, 58
1, 307679, Note_on_c, 9, 36, 0
1, 307679, Note_on_c, 9, 62, 0
1, 307680, Note_on_c, 9, 40, 64
1, 307680, Note_on_c, 9, 42, 56
1, 307680, Note_on_c, 9, 36, 76
1, 307684, Note_on_c, 9, 42, 0
1, 307799, Note_on_c, 9, 40, 0
1, 307800, Note_on_c, 9, 56, 58
1, 307919, Note_on_c, 9, 56, 0
1, 307920, Note_on_c, 9, 62, 52
1, 307920, Note_on_c, 9, 42, 56
1, 307930, Note_on_c, 9, 42, 0
1, 308159, Note_on_c, 9, 36, 0
1, 308159, Note_on_c, 9, 62, 0
1, 308160, Note_on_c, 9, 42, 56
1, 308160, Note_on_c, 9, 36, 76
1, 308164, Note_on_c, 9, 42, 0
1, 308280, Note_on_c, 9, 62, 54
1, 308399, Note_on_c, 9, 62, 0
1, 308400, Note_on_c, 9, 42, 56
1, 308404, Note_on_c, 9, 42, 0
1, 308520, Note_on_c, 9, 64, 56
1, 308520, Note_on_c, 9, 46, 28
1, 308524, Note_on_c, 9, 64, 0
1, 308524, Note_on_c, 9, 46, 0
1, 308639, Note_on_c, 9, 36, 0
1, 308640, Note_on_c, 9, 40, 64
1, 308640, Note_on_c, 9, 39, 81
1, 308640, Note_on_c, 9, 42, 56
1, 308640, Note_on_c, 9, 36, 76
1, 308650, Note_on_c, 9, 42, 0
1, 308879, Note_on_c, 9, 40, 0
1, 308879, Note_on_c, 9, 39, 0
1, 308880, Note_on_c, 9, 42, 56
1, 308884, Note_on_c, 9, 42, 0
1, 309000, Note_on_c, 9, 46, 37
1, 309004, Note_on_c, 9, 46, 0
1, 309119, Note_on_c, 9, 36, 0
1, 309120, End_track
0, 0, End_of_file
