0, 0, Header, 1, 1, 480
1, 0, Start_track
1, 0, Title_t, "Drumset"
1, 0, Time_signature, 4, 2, 24, 8
1, 0, Key_signature, 0, "major"
1, 0, Tempo, 857143
1, 0, Control_c, 9, 121, 0
1, 0, Program_c, 9, 0
1, 0, Control_c, 9, 7, 100
1, 0, Control_c, 9, 10, 64
1, 0, Control_c, 9, 91, 0
1, 0, Control_c, 9, 93, 0
1, 0, MIDI_port, 0
1, 17280, Tempo, 750000
1, 32640, Note_on_c, 9, 42, 99
1, 32646, Note_on_c, 9, 42, 0
1, 32880, Note_on_c, 9, 42, 92
1, 32886, Note_on_c, 9, 42, 0
1, 33120, Note_on_c, 9, 37, 102
1, 33120, Note_on_c, 9, 42, 92
1, 33126, Note_on_c, 9, 37, 0
1, 33126, Note_on_c, 9, 42, 0
1, 33360, Note_on_c, 9, 42, 98
1, 33366, Note_on_c, 9, 42, 0
1, 33600, Note_on_c, 9, 37, 106
1, 33600, Note_on_c, 9, 42, 92
1, 33606, Note_on_c, 9, 37, 0
1, 33606, Note_on_c, 9, 42, 0
1, 33840, Note_on_c, 9, 42, 80
1, 33846, Note_on_c, 9, 42, 0
1, 34080, Note_on_c, 9, 37, 104
1, 34080, Note_on_c, 9, 42, 64
1, 34086, Note_on_c, 9, 37, 0
1, 34086, Note_on_c, 9, 42, 0
1, 34320, Note_on_c, 9, 42, 98
1, 34326, Note_on_c, 9, 42, 0
1, 34560, Note_on_c, 9, 37, 99
1, 34560, Note_on_c, 9, 42, 99
1, 34566, Note_on_c, 9, 37, 0
1, 34566, Note_on_c, 9, 42, 0
1, 34800, Note_on_c, 9, 42, 92
1, 34806, Note_on_c, 9, 42, 0
1, 35040, Note_on_c, 9, 37, 102
1, 35040, Note_on_c, 9, 42, 92
1, 35046, Note_on_c, 9, 37, 0
1, 35046, Note_on_c, 9, 42, 0
1, 35280, Note_on_c, 9, 42, 98
1, 35286, Note_on_c, 9, 42, 0
1, 35520, Note_on_c, 9, 37, 106
1, 35520, Note_on_c, 9, 42, 92
1, 35526, Note_on_c, 9, 37, 0
1, 35526, Note_on_c, 9, 42, 0
1, 35760, Note_on_c, 9, 42, 80
1, 35766, Note_on_c, 9, 42, 0
1, 36000, Note_on_c, 9, 37, 104
1, 36000, Note_on_c, 9, 42, 64
1, 36006, Note_on_c, 9, 37, 0
1, 36006, Note_on_c, 9, 42, 0
1, 36240, Note_on_c, 9, 42, 98
1, 36246, Note_on_c, 9, 42, 0
1, 36480, Note_on_c, 9, 42, 99
1, 36486, Note_on_c, 9, 42, 0
1, 36720, Note_on_c, 9, 42, 92
1, 36726, Note_on_c, 9, 42, 0
1, 36960, Note_on_c, 9, 37, 102
1, 36960, Note_on_c, 9, 42, 92
1, 36966, Note_on_c, 9, 37, 0
1, 36966, Note_on_c, 9, 42, 0
1, 37200, Note_on_c, 9, 42, 98
1, 37206, Note_on_c, 9, 42, 0
1, 37440, Note_on_c, 9, 42, 92
1, 37446, Note_on_c, 9, 42, 0
1, 37680, Note_on_c, 9, 42, 80
1, 37686, Note_on_c, 9, 42, 0
1, 37920, Note_on_c, 9, 37, 104
1, 37920, Note_on_c, 9, 42, 64
1, 37926, Note_on_c, 9, 37, 0
1, 37926, Note_on_c, 9, 42, 0
1, 38160, Note_on_c, 9, 42, 98
1, 38166, Note_on_c, 9, 42, 0
1, 38400, Note_on_c, 9, 42, 99
1, 38406, Note_on_c, 9, 42, 0
1, 38640, Note_on_c, 9, 42, 92
1, 38646, Note_on_c, 9, 42, 0
1, 38880, Note_on_c, 9, 37, 102
1, 38880, Note_on_c, 9, 42, 92
1, 38886, Note_on_c, 9, 37, 0
1, 38886, Note_on_c, 9, 42, 0
1, 39120, Note_on_c, 9, 42, 98
1, 39126, Note_on_c, 9, 42, 0
1, 39360, Note_on_c, 9, 42, 92
1, 39366, Note_on_c, 9, 42, 0
1, 39600, Note_on_c, 9, 42, 80
1, 39606, Note_on_c, 9, 42, 0
1, 39840, Note_on_c, 9, 37, 104
1, 39840, Note_on_c, 9, 42, 64
1, 39846, Note_on_c, 9, 37, 0
1, 39846, Note_on_c, 9, 42, 0
1, 40080, Note_on_c, 9, 42, 98
1, 40086, Note_on_c, 9, 42, 0
1, 40320, Note_on_c, 9, 42, 99
1, 40326, Note_on_c, 9, 42, 0
1, 40560, Note_on_c, 9, 42, 92
1, 40566, Note_on_c, 9, 42, 0
1, 40800, Note_on_c, 9, 37, 102
1, 40800, Note_on_c, 9, 42, 92
1, 40806, Note_on_c, 9, 37, 0
1, 40806, Note_on_c, 9, 42, 0
1, 41040, Note_on_c, 9, 42, 98
1, 41046, Note_on_c, 9, 42, 0
1, 41280, Note_on_c, 9, 42, 92
1, 41286, Note_on_c, 9, 42, 0
1, 41520, Note_on_c, 9, 42, 80
1, 41526, Note_on_c, 9, 42, 0
1, 41760, Note_on_c, 9, 37, 104
1, 41760, Note_on_c, 9, 42, 64
1, 41766, Note_on_c, 9, 37, 0
1, 41766, Note_on_c, 9, 42, 0
1, 42000, Note_on_c, 9, 42, 98
1, 42006, Note_on_c, 9, 42, 0
1, 42240, Note_on_c, 9, 42, 99
1, 42246, Note_on_c, 9, 42, 0
1, 42480, Note_on_c, 9, 42, 92
1, 42486, Note_on_c, 9, 42, 0
1, 42720, Note_on_c, 9, 37, 102
1, 42720, Note_on_c, 9, 42, 92
1, 42726, Note_on_c, 9, 37, 0
1, 42726, Note_on_c, 9, 42, 0
1, 42960, Note_on_c, 9, 42, 98
1, 42966, Note_on_c, 9, 42, 0
1, 43200, Note_on_c, 9, 42, 92
1, 43206, Note_on_c, 9, 42, 0
1, 43440, Note_on_c, 9, 42, 80
1, 43446, Note_on_c, 9, 42, 0
1, 43680, Note_on_c, 9, 37, 104
1, 43680, Note_on_c, 9, 42, 64
1, 43686, Note_on_c, 9, 37, 0
1, 43686, Note_on_c, 9, 42, 0
1, 43920, Note_on_c, 9, 42, 98
1, 43926, Note_on_c, 9, 42, 0
1, 44160, Note_on_c, 9, 42, 99
1, 44166, Note_on_c, 9, 42, 0
1, 44400, Note_on_c, 9, 42, 92
1, 44406, Note_on_c, 9, 42, 0
1, 44640, Note_on_c, 9, 37, 102
1, 44640, Note_on_c, 9, 42, 92
1, 44646, Note_on_c, 9, 37, 0
1, 44646, Note_on_c, 9, 42, 0
1, 44880, Note_on_c, 9, 42, 98
1, 44886, Note_on_c, 9, 42, 0
1, 45120, Note_on_c, 9, 42, 92
1, 45126, Note_on_c, 9, 42, 0
1, 45360, Note_on_c, 9, 42, 80
1, 45366, Note_on_c, 9, 42, 0
1, 45600, Note_on_c, 9, 37, 104
1, 45600, Note_on_c, 9, 42, 64
1, 45606, Note_on_c, 9, 37, 0
1, 45606, Note_on_c, 9, 42, 0
1, 45840, Note_on_c, 9, 42, 98
1, 45846, Note_on_c, 9, 42, 0
1, 46080, Note_on_c, 9, 42, 99
1, 46086, Note_on_c, 9, 42, 0
1, 46320, Note_on_c, 9, 42, 92
1, 46326, Note_on_c, 9, 42, 0
1, 46560, Note_on_c, 9, 37, 102
1, 46560, Note_on_c, 9, 42, 92
1, 46566, Note_on_c, 9, 37, 0
1, 46566, Note_on_c, 9, 42, 0
1, 46800, Note_on_c, 9, 42, 98
1, 46806, Note_on_c, 9, 42, 0
1, 47040, Note_on_c, 9, 42, 92
1, 47046, Note_on_c, 9, 42, 0
1, 47280, Note_on_c, 9, 42, 80
1, 47286, Note_on_c, 9, 42, 0
1, 47520, Note_on_c, 9, 37, 104
1, 47520, Note_on_c, 9, 42, 64
1, 47526, Note_on_c, 9, 37, 0
1, 47526, Note_on_c, 9, 42, 0
1, 47760, Note_on_c, 9, 42, 98
1, 47766, Note_on_c, 9, 42, 0
1, 48000, Note_on_c, 9, 42, 99
1, 48006, Note_on_c, 9, 42, 0
1, 48240, Note_on_c, 9, 42, 92
1, 48246, Note_on_c, 9, 42, 0
1, 48480, Note_on_c, 9, 37, 102
1, 48480, Note_on_c, 9, 42, 92
1, 48486, Note_on_c, 9, 37, 0
1, 48486, Note_on_c, 9, 42, 0
1, 48720, Note_on_c, 9, 42, 98
1, 48726, Note_on_c, 9, 42, 0
1, 48960, Note_on_c, 9, 42, 92
1, 48966, Note_on_c, 9, 42, 0
1, 49200, Note_on_c, 9, 42, 80
1, 49206, Note_on_c, 9, 42, 0
1, 49440, Note_on_c, 9, 37, 104
1, 49440, Note_on_c, 9, 42, 64
1, 49446, Note_on_c, 9, 37, 0
1, 49446, Note_on_c, 9, 42, 0
1, 49680, Note_on_c, 9, 42, 98
1, 49686, Note_on_c, 9, 42, 0
1, 49920, Note_on_c, 9, 42, 99
1, 49926, Note_on_c, 9, 42, 0
1, 50160, Note_on_c, 9, 42, 92
1, 50166, Note_on_c, 9, 42, 0
1, 50400, Note_on_c, 9, 37, 102
1, 50400, Note_on_c, 9, 42, 92
1, 50406, Note_on_c, 9, 37, 0
1, 50406, Note_on_c, 9, 42, 0
1, 50640, Note_on_c, 9, 42, 98
1, 50646, Note_on_c, 9, 42, 0
1, 50880, Note_on_c, 9, 42, 92
1, 50886, Note_on_c, 9, 42, 0
1, 51120, Note_on_c, 9, 42, 80
1, 51126, Note_on_c, 9, 42, 0
1, 51360, Note_on_c, 9, 37, 104
1, 51360, Note_on_c, 9, 42, 64
1, 51366, Note_on_c, 9, 37, 0
1, 51366, Note_on_c, 9, 42, 0
1, 51600, Note_on_c, 9, 42, 98
1, 51606, Note_on_c, 9, 42, 0
1, 51840, Note_on_c, 9, 42, 99
1, 51846, Note_on_c, 9, 42, 0
1, 52080, Note_on_c, 9, 42, 92
1, 52086, Note_on_c, 9, 42, 0
1, 52320, Note_on_c, 9, 37, 102
1, 52320, Note_on_c, 9, 42, 92
1, 52326, Note_on_c, 9, 37, 0
1, 52326, Note_on_c, 9, 42, 0
1, 52560, Note_on_c, 9, 42, 98
1, 52562, Note_on_c, 9, 42, 0
1, 52680, Note_on_c, 9, 37, 98
1, 52682, Note_on_c, 9, 37, 0
1, 52800, Note_on_c, 9, 42, 92
1, 52806, Note_on_c, 9, 42, 0
1, 53040, Note_on_c, 9, 42, 80
1, 53046, Note_on_c, 9, 42, 0
1, 53280, Note_on_c, 9, 37, 104
1, 53280, Note_on_c, 9, 42, 84
1, 53286, Note_on_c, 9, 37, 0
1, 53286, Note_on_c, 9, 42, 0
1, 53520, Note_on_c, 9, 42, 98
1, 53526, Note_on_c, 9, 42, 0
1, 53760, Note_on_c, 9, 42, 99
1, 53766, Note_on_c, 9, 42, 0
1, 54000, Note_on_c, 9, 42, 92
1, 54006, Note_on_c, 9, 42, 0
1, 54240, Note_on_c, 9, 37, 102
1, 54240, Note_on_c, 9, 42, 92
1, 54246, Note_on_c, 9, 37, 0
1, 54246, Note_on_c, 9, 42, 0
1, 54480, Note_on_c, 9, 42, 98
1, 54482, Note_on_c, 9, 42, 0
1, 54600, Note_on_c, 9, 37, 98
1, 54602, Note_on_c, 9, 37, 0
1, 54720, Note_on_c, 9, 42, 92
1, 54726, Note_on_c, 9, 42, 0
1, 54960, Note_on_c, 9, 42, 80
1, 54966, Note_on_c, 9, 42, 0
1, 55200, Note_on_c, 9, 37, 104
1, 55200, Note_on_c, 9, 42, 84
1, 55206, Note_on_c, 9, 37, 0
1, 55206, Note_on_c, 9, 42, 0
1, 55440, Note_on_c, 9, 42, 98
1, 55446, Note_on_c, 9, 42, 0
1, 55680, Note_on_c, 9, 42, 99
1, 55686, Note_on_c, 9, 42, 0
1, 55920, Note_on_c, 9, 42, 92
1, 55920, Note_on_c, 9, 36, 104
1, 55926, Note_on_c, 9, 42, 0
1, 56159, Note_on_c, 9, 36, 0
1, 56160, Note_on_c, 9, 37, 102
1, 56160, Note_on_c, 9, 42, 92
1, 56166, Note_on_c, 9, 37, 0
1, 56166, Note_on_c, 9, 42, 0
1, 56400, Note_on_c, 9, 42, 98
1, 56400, Note_on_c, 9, 36, 92
1, 56406, Note_on_c, 9, 42, 0
1, 56639, Note_on_c, 9, 36, 0
1, 56640, Note_on_c, 9, 42, 92
1, 56646, Note_on_c, 9, 42, 0
1, 56880, Note_on_c, 9, 42, 80
1, 56886, Note_on_c, 9, 42, 0
1, 57120, Note_on_c, 9, 37, 104
1, 57120, Note_on_c, 9, 42, 64
1, 57120, Note_on_c, 9, 36, 109
1, 57126, Note_on_c, 9, 37, 0
1, 57126, Note_on_c, 9, 42, 0
1, 57360, Note_on_c, 9, 42, 98
1, 57366, Note_on_c, 9, 42, 0
1, 57599, Note_on_c, 9, 36, 0
1, 57600, Note_on_c, 9, 42, 99
1, 57606, Note_on_c, 9, 42, 0
1, 57840, Note_on_c, 9, 42, 92
1, 57846, Note_on_c, 9, 42, 0
1, 58080, Note_on_c, 9, 37, 102
1, 58080, Note_on_c, 9, 42, 92
1, 58080, Note_on_c, 9, 36, 92
1, 58086, Note_on_c, 9, 37, 0
1, 58086, Note_on_c, 9, 42, 0
1, 58320, Note_on_c, 9, 42, 98
1, 58326, Note_on_c, 9, 42, 0
1, 58559, Note_on_c, 9, 36, 0
1, 58560, Note_on_c, 9, 42, 92
1, 58560, Note_on_c, 9, 36, 115
1, 58566, Note_on_c, 9, 42, 0
1, 58799, Note_on_c, 9, 36, 0
1, 58800, Note_on_c, 9, 42, 80
1, 58800, Note_on_c, 9, 36, 104
1, 58806, Note_on_c, 9, 42, 0
1, 59039, Note_on_c, 9, 36, 0
1, 59040, Note_on_c, 9, 37, 104
1, 59040, Note_on_c, 9, 42, 64
1, 59046, Note_on_c, 9, 37, 0
1, 59046, Note_on_c, 9, 42, 0
1, 59280, Note_on_c, 9, 42, 98
1, 59280, Note_on_c, 9, 36, 98
1, 59286, Note_on_c, 9, 42, 0
1, 59519, Note_on_c, 9, 36, 0
1, 59520, Note_on_c, 9, 42, 99
1, 59526, Note_on_c, 9, 42, 0
1, 59760, Note_on_c, 9, 42, 92
1, 59760, Note_on_c, 9, 36, 104
1, 59766, Note_on_c, 9, 42, 0
1, 59999, Note_on_c, 9, 36, 0
1, 60000, Note_on_c, 9, 37, 102
1, 60000, Note_on_c, 9, 42, 92
1, 60006, Note_on_c, 9, 37, 0
1, 60006, Note_on_c, 9, 42, 0
1, 60240, Note_on_c, 9, 42, 98
1, 60240, Note_on_c, 9, 36, 92
1, 60246, Note_on_c, 9, 42, 0
1, 60479, Note_on_c, 9, 36, 0
1, 60480, Note_on_c, 9, 42, 92
1, 60486, Note_on_c, 9, 42, 0
1, 60720, Note_on_c, 9, 42, 80
1, 60726, Note_on_c, 9, 42, 0
1, 60960, Note_on_c, 9, 37, 104
1, 60960, Note_on_c, 9, 42, 64
1, 60960, Note_on_c, 9, 36, 109
1, 60966, Note_on_c, 9, 37, 0
1, 60966, Note_on_c, 9, 42, 0
1, 61200, Note_on_c, 9, 42, 98
1, 61206, Note_on_c, 9, 42, 0
1, 61439, Note_on_c, 9, 36, 0
1, 61440, Note_on_c, 9, 42, 99
1, 61446, Note_on_c, 9, 42, 0
1, 61680, Note_on_c, 9, 42, 92
1, 61686, Note_on_c, 9, 42, 0
1, 61920, Note_on_c, 9, 37, 102
1, 61920, Note_on_c, 9, 42, 92
1, 61920, Note_on_c, 9, 36, 92
1, 61926, Note_on_c, 9, 37, 0
1, 61926, Note_on_c, 9, 42, 0
1, 62160, Note_on_c, 9, 42, 98
1, 62166, Note_on_c, 9, 42, 0
1, 62399, Note_on_c, 9, 36, 0
1, 62400, Note_on_c, 9, 42, 92
1, 62400, Note_on_c, 9, 36, 115
1, 62406, Note_on_c, 9, 42, 0
1, 62639, Note_on_c, 9, 36, 0
1, 62640, Note_on_c, 9, 42, 80
1, 62640, Note_on_c, 9, 36, 104
1, 62646, Note_on_c, 9, 42, 0
1, 62879, Note_on_c, 9, 36, 0
1, 62880, Note_on_c, 9, 37, 104
1, 62880, Note_on_c, 9, 42, 64
1, 62886, Note_on_c, 9, 37, 0
1, 62886, Note_on_c, 9, 42, 0
1, 63120, Note_on_c, 9, 42, 98
1, 63120, Note_on_c, 9, 36, 98
1, 63126, Note_on_c, 9, 42, 0
1, 63359, Note_on_c, 9, 36, 0
1, 63360, Note_on_c, 9, 42, 99
1, 63366, Note_on_c, 9, 42, 0
1, 63600, Note_on_c, 9, 42, 92
1, 63600, Note_on_c, 9, 36, 104
1, 63606, Note_on_c, 9, 42, 0
1, 63839, Note_on_c, 9, 36, 0
1, 63840, Note_on_c, 9, 37, 102
1, 63840, Note_on_c, 9, 42, 92
1, 63846, Note_on_c, 9, 37, 0
1, 63846, Note_on_c, 9, 42, 0
1, 64080, Note_on_c, 9, 42, 98
1, 64080, Note_on_c, 9, 36, 92
1, 64086, Note_on_c, 9, 42, 0
1, 64319, Note_on_c, 9, 36, 0
1, 64320, Note_on_c, 9, 42, 92
1, 64326, Note_on_c, 9, 42, 0
1, 64560, Note_on_c, 9, 42, 80
1, 64566, Note_on_c, 9, 42, 0
1, 64800, Note_on_c, 9, 37, 104
1, 64800, Note_on_c, 9, 42, 64
1, 64800, Note_on_c, 9, 36, 109
1, 64806, Note_on_c, 9, 37, 0
1, 64806, Note_on_c, 9, 42, 0
1, 65040, Note_on_c, 9, 42, 98
1, 65046, Note_on_c, 9, 42, 0
1, 65279, Note_on_c, 9, 36, 0
1, 65280, Note_on_c, 9, 42, 99
1, 65286, Note_on_c, 9, 42, 0
1, 65520, Note_on_c, 9, 42, 92
1, 65526, Note_on_c, 9, 42, 0
1, 65760, Note_on_c, 9, 37, 102
1, 65760, Note_on_c, 9, 42, 92
1, 65760, Note_on_c, 9, 36, 92
1, 65766, Note_on_c, 9, 37, 0
1, 65766, Note_on_c, 9, 42, 0
1, 66000, Note_on_c, 9, 42, 98
1, 66006, Note_on_c, 9, 42, 0
1, 66239, Note_on_c, 9, 36, 0
1, 66240, Note_on_c, 9, 42, 92
1, 66240, Note_on_c, 9, 36, 115
1, 66246, Note_on_c, 9, 42, 0
1, 66479, Note_on_c, 9, 36, 0
1, 66480, Note_on_c, 9, 42, 80
1, 66480, Note_on_c, 9, 36, 104
1, 66486, Note_on_c, 9, 42, 0
1, 66719, Note_on_c, 9, 36, 0
1, 66720, Note_on_c, 9, 37, 104
1, 66720, Note_on_c, 9, 42, 64
1, 66726, Note_on_c, 9, 37, 0
1, 66726, Note_on_c, 9, 42, 0
1, 66960, Note_on_c, 9, 42, 98
1, 66960, Note_on_c, 9, 36, 98
1, 66966, Note_on_c, 9, 42, 0
1, 67199, Note_on_c, 9, 36, 0
1, 67200, Note_on_c, 9, 42, 99
1, 67206, Note_on_c, 9, 42, 0
1, 67440, Note_on_c, 9, 42, 92
1, 67440, Note_on_c, 9, 36, 104
1, 67446, Note_on_c, 9, 42, 0
1, 67679, Note_on_c, 9, 36, 0
1, 67680, Note_on_c, 9, 37, 102
1, 67680, Note_on_c, 9, 42, 92
1, 67686, Note_on_c, 9, 37, 0
1, 67686, Note_on_c, 9, 42, 0
1, 67920, Note_on_c, 9, 42, 98
1, 67920, Note_on_c, 9, 36, 92
1, 67926, Note_on_c, 9, 42, 0
1, 68159, Note_on_c, 9, 36, 0
1, 68160, Note_on_c, 9, 42, 92
1, 68166, Note_on_c, 9, 42, 0
1, 68400, Note_on_c, 9, 42, 80
1, 68406, Note_on_c, 9, 42, 0
1, 68640, Note_on_c, 9, 37, 104
1, 68640, Note_on_c, 9, 42, 64
1, 68640, Note_on_c, 9, 36, 109
1, 68646, Note_on_c, 9, 37, 0
1, 68646, Note_on_c, 9, 42, 0
1, 68880, Note_on_c, 9, 42, 98
1, 68886, Note_on_c, 9, 42, 0
1, 69119, Note_on_c, 9, 36, 0
1, 69120, Note_on_c, 9, 42, 99
1, 69126, Note_on_c, 9, 42, 0
1, 69360, Note_on_c, 9, 42, 92
1, 69366, Note_on_c, 9, 42, 0
1, 69600, Note_on_c, 9, 37, 102
1, 69600, Note_on_c, 9, 42, 92
1, 69600, Note_on_c, 9, 36, 92
1, 69606, Note_on_c, 9, 37, 0
1, 69606, Note_on_c, 9, 42, 0
1, 69840, Note_on_c, 9, 42, 98
1, 69846, Note_on_c, 9, 42, 0
1, 70079, Note_on_c, 9, 36, 0
1, 70080, Note_on_c, 9, 42, 92
1, 70080, Note_on_c, 9, 36, 115
1, 70086, Note_on_c, 9, 42, 0
1, 70319, Note_on_c, 9, 36, 0
1, 70320, Note_on_c, 9, 42, 80
1, 70320, Note_on_c, 9, 36, 104
1, 70326, Note_on_c, 9, 42, 0
1, 70559, Note_on_c, 9, 36, 0
1, 70560, Note_on_c, 9, 37, 104
1, 70560, Note_on_c, 9, 42, 64
1, 70566, Note_on_c, 9, 37, 0
1, 70566, Note_on_c, 9, 42, 0
1, 70800, Note_on_c, 9, 42, 98
1, 70800, Note_on_c, 9, 36, 98
1, 70806, Note_on_c, 9, 42, 0
1, 71039, Note_on_c, 9, 36, 0
1, 71040, Note_on_c, 9, 42, 99
1, 71040, Note_on_c, 9, 36, 121
1, 71046, Note_on_c, 9, 42, 0
1, 71280, Note_on_c, 9, 42, 92
1, 71286, Note_on_c, 9, 42, 0
1, 71519, Note_on_c, 9, 36, 0
1, 71520, Note_on_c, 9, 37, 102
1, 71520, Note_on_c, 9, 42, 92
1, 71526, Note_on_c, 9, 37, 0
1, 71526, Note_on_c, 9, 42, 0
1, 71760, Note_on_c, 9, 42, 98
1, 71760, Note_on_c, 9, 36, 115
1, 71766, Note_on_c, 9, 42, 0
1, 71999, Note_on_c, 9, 36, 0
1, 72000, Note_on_c, 9, 42, 92
1, 72006, Note_on_c, 9, 42, 0
1, 72240, Note_on_c, 9, 42, 80
1, 72246, Note_on_c, 9, 42, 0
1, 72480, Note_on_c, 9, 37, 104
1, 72480, Note_on_c, 9, 42, 64
1, 72486, Note_on_c, 9, 37, 0
1, 72486, Note_on_c, 9, 42, 0
1, 72720, Note_on_c, 9, 42, 98
1, 72726, Note_on_c, 9, 42, 0
1, 72960, Note_on_c, 9, 42, 99
1, 72966, Note_on_c, 9, 42, 0
1, 73200, Note_on_c, 9, 42, 92
1, 73206, Note_on_c, 9, 42, 0
1, 73440, Note_on_c, 9, 37, 102
1, 73440, Note_on_c, 9, 42, 92
1, 73446, Note_on_c, 9, 37, 0
1, 73446, Note_on_c, 9, 42, 0
1, 73680, Note_on_c, 9, 42, 98
1, 73680, Note_on_c, 9, 36, 92
1, 73686, Note_on_c, 9, 42, 0
1, 73919, Note_on_c, 9, 36, 0
1, 73920, Note_on_c, 9, 42, 92
1, 73926, Note_on_c, 9, 42, 0
1, 74160, Note_on_c, 9, 42, 80
1, 74160, Note_on_c, 9, 36, 86
1, 74166, Note_on_c, 9, 42, 0
1, 74399, Note_on_c, 9, 36, 0
1, 74400, Note_on_c, 9, 37, 104
1, 74400, Note_on_c, 9, 42, 64
1, 74400, Note_on_c, 9, 36, 115
1, 74406, Note_on_c, 9, 37, 0
1, 74406, Note_on_c, 9, 42, 0
1, 74640, Note_on_c, 9, 42, 98
1, 74646, Note_on_c, 9, 42, 0
1, 74879, Note_on_c, 9, 36, 0
1, 74880, Note_on_c, 9, 42, 99
1, 74880, Note_on_c, 9, 36, 121
1, 74886, Note_on_c, 9, 42, 0
1, 75120, Note_on_c, 9, 42, 92
1, 75126, Note_on_c, 9, 42, 0
1, 75359, Note_on_c, 9, 36, 0
1, 75360, Note_on_c, 9, 37, 102
1, 75360, Note_on_c, 9, 42, 92
1, 75366, Note_on_c, 9, 37, 0
1, 75366, Note_on_c, 9, 42, 0
1, 75600, Note_on_c, 9, 42, 98
1, 75600, Note_on_c, 9, 36, 121
1, 75606, Note_on_c, 9, 42, 0
1, 75839, Note_on_c, 9, 36, 0
1, 75840, Note_on_c, 9, 42, 92
1, 75846, Note_on_c, 9, 42, 0
1, 76080, Note_on_c, 9, 42, 80
1, 76086, Note_on_c, 9, 42, 0
1, 76320, Note_on_c, 9, 37, 104
1, 76320, Note_on_c, 9, 42, 64
1, 76326, Note_on_c, 9, 37, 0
1, 76326, Note_on_c, 9, 42, 0
1, 76560, Note_on_c, 9, 42, 98
1, 76566, Note_on_c, 9, 42, 0
1, 76800, Note_on_c, 9, 42, 99
1, 76806, Note_on_c, 9, 42, 0
1, 77040, Note_on_c, 9, 42, 92
1, 77046, Note_on_c, 9, 42, 0
1, 77280, Note_on_c, 9, 37, 102
1, 77280, Note_on_c, 9, 42, 92
1, 77286, Note_on_c, 9, 37, 0
1, 77286, Note_on_c, 9, 42, 0
1, 77520, Note_on_c, 9, 42, 98
1, 77520, Note_on_c, 9, 36, 92
1, 77526, Note_on_c, 9, 42, 0
1, 77759, Note_on_c, 9, 36, 0
1, 77760, Note_on_c, 9, 42, 92
1, 77766, Note_on_c, 9, 42, 0
1, 78000, Note_on_c, 9, 42, 80
1, 78000, Note_on_c, 9, 36, 92
1, 78006, Note_on_c, 9, 42, 0
1, 78239, Note_on_c, 9, 36, 0
1, 78240, Note_on_c, 9, 37, 104
1, 78240, Note_on_c, 9, 42, 64
1, 78240, Note_on_c, 9, 36, 115
1, 78246, Note_on_c, 9, 37, 0
1, 78246, Note_on_c, 9, 42, 0
1, 78480, Note_on_c, 9, 42, 98
1, 78486, Note_on_c, 9, 42, 0
1, 78719, Note_on_c, 9, 36, 0
1, 78720, Note_on_c, 9, 42, 99
1, 78720, Note_on_c, 9, 36, 121
1, 78726, Note_on_c, 9, 42, 0
1, 78960, Note_on_c, 9, 42, 92
1, 78966, Note_on_c, 9, 42, 0
1, 79199, Note_on_c, 9, 36, 0
1, 79200, Note_on_c, 9, 37, 102
1, 79200, Note_on_c, 9, 42, 92
1, 79206, Note_on_c, 9, 37, 0
1, 79206, Note_on_c, 9, 42, 0
1, 79440, Note_on_c, 9, 42, 98
1, 79440, Note_on_c, 9, 36, 115
1, 79446, Note_on_c, 9, 42, 0
1, 79679, Note_on_c, 9, 36, 0
1, 79680, Note_on_c, 9, 42, 92
1, 79686, Note_on_c, 9, 42, 0
1, 79920, Note_on_c, 9, 42, 80
1, 79926, Note_on_c, 9, 42, 0
1, 80160, Note_on_c, 9, 37, 104
1, 80160, Note_on_c, 9, 42, 64
1, 80166, Note_on_c, 9, 37, 0
1, 80166, Note_on_c, 9, 42, 0
1, 80400, Note_on_c, 9, 42, 98
1, 80406, Note_on_c, 9, 42, 0
1, 80640, Note_on_c, 9, 42, 99
1, 80646, Note_on_c, 9, 42, 0
1, 80880, Note_on_c, 9, 42, 92
1, 80886, Note_on_c, 9, 42, 0
1, 81120, Note_on_c, 9, 37, 102
1, 81120, Note_on_c, 9, 42, 92
1, 81126, Note_on_c, 9, 37, 0
1, 81126, Note_on_c, 9, 42, 0
1, 81360, Note_on_c, 9, 42, 98
1, 81360, Note_on_c, 9, 36, 92
1, 81366, Note_on_c, 9, 42, 0
1, 81599, Note_on_c, 9, 36, 0
1, 81600, Note_on_c, 9, 42, 92
1, 81606, Note_on_c, 9, 42, 0
1, 81840, Note_on_c, 9, 42, 80
1, 81840, Note_on_c, 9, 36, 86
1, 81846, Note_on_c, 9, 42, 0
1, 82079, Note_on_c, 9, 36, 0
1, 82080, Note_on_c, 9, 37, 104
1, 82080, Note_on_c, 9, 42, 64
1, 82080, Note_on_c, 9, 36, 115
1, 82086, Note_on_c, 9, 37, 0
1, 82086, Note_on_c, 9, 42, 0
1, 82320, Note_on_c, 9, 42, 98
1, 82326, Note_on_c, 9, 42, 0
1, 82559, Note_on_c, 9, 36, 0
1, 82560, Note_on_c, 9, 42, 99
1, 82560, Note_on_c, 9, 36, 121
1, 82566, Note_on_c, 9, 42, 0
1, 82800, Note_on_c, 9, 42, 92
1, 82806, Note_on_c, 9, 42, 0
1, 83039, Note_on_c, 9, 36, 0
1, 83040, Note_on_c, 9, 37, 102
1, 83040, Note_on_c, 9, 42, 92
1, 83046, Note_on_c, 9, 37, 0
1, 83046, Note_on_c, 9, 42, 0
1, 83280, Note_on_c, 9, 42, 98
1, 83280, Note_on_c, 9, 36, 121
1, 83286, Note_on_c, 9, 42, 0
1, 83519, Note_on_c, 9, 36, 0
1, 83520, Note_on_c, 9, 42, 92
1, 83526, Note_on_c, 9, 42, 0
1, 83760, Note_on_c, 9, 42, 80
1, 83766, Note_on_c, 9, 42, 0
1, 84000, Note_on_c, 9, 37, 104
1, 84000, Note_on_c, 9, 42, 64
1, 84006, Note_on_c, 9, 37, 0
1, 84006, Note_on_c, 9, 42, 0
1, 84240, Note_on_c, 9, 42, 98
1, 84246, Note_on_c, 9, 42, 0
1, 84480, Note_on_c, 9, 42, 99
1, 84486, Note_on_c, 9, 42, 0
1, 84720, Note_on_c, 9, 42, 92
1, 84726, Note_on_c, 9, 42, 0
1, 84960, Note_on_c, 9, 37, 102
1, 84960, Note_on_c, 9, 42, 92
1, 84966, Note_on_c, 9, 37, 0
1, 84966, Note_on_c, 9, 42, 0
1, 85200, Note_on_c, 9, 42, 98
1, 85200, Note_on_c, 9, 36, 92
1, 85206, Note_on_c, 9, 42, 0
1, 85439, Note_on_c, 9, 36, 0
1, 85440, Note_on_c, 9, 42, 92
1, 85446, Note_on_c, 9, 42, 0
1, 85680, Note_on_c, 9, 42, 80
1, 85680, Note_on_c, 9, 36, 92
1, 85686, Note_on_c, 9, 42, 0
1, 85919, Note_on_c, 9, 36, 0
1, 85920, Note_on_c, 9, 37, 104
1, 85920, Note_on_c, 9, 42, 64
1, 85920, Note_on_c, 9, 36, 115
1, 85926, Note_on_c, 9, 37, 0
1, 85926, Note_on_c, 9, 42, 0
1, 86160, Note_on_c, 9, 42, 98
1, 86166, Note_on_c, 9, 42, 0
1, 86399, Note_on_c, 9, 36, 0
1, 86400, Note_on_c, 9, 42, 99
1, 86400, Note_on_c, 9, 36, 121
1, 86406, Note_on_c, 9, 42, 0
1, 86640, Note_on_c, 9, 42, 92
1, 86646, Note_on_c, 9, 42, 0
1, 86879, Note_on_c, 9, 36, 0
1, 86880, Note_on_c, 9, 37, 102
1, 86880, Note_on_c, 9, 42, 92
1, 86886, Note_on_c, 9, 37, 0
1, 86886, Note_on_c, 9, 42, 0
1, 87120, Note_on_c, 9, 42, 98
1, 87120, Note_on_c, 9, 36, 115
1, 87126, Note_on_c, 9, 42, 0
1, 87359, Note_on_c, 9, 36, 0
1, 87360, Note_on_c, 9, 42, 92
1, 87366, Note_on_c, 9, 42, 0
1, 87600, Note_on_c, 9, 42, 80
1, 87606, Note_on_c, 9, 42, 0
1, 87840, Note_on_c, 9, 37, 104
1, 87840, Note_on_c, 9, 42, 64
1, 87846, Note_on_c, 9, 37, 0
1, 87846, Note_on_c, 9, 42, 0
1, 88080, Note_on_c, 9, 42, 98
1, 88086, Note_on_c, 9, 42, 0
1, 88320, Note_on_c, 9, 42, 99
1, 88326, Note_on_c, 9, 42, 0
1, 88560, Note_on_c, 9, 42, 92
1, 88566, Note_on_c, 9, 42, 0
1, 88800, Note_on_c, 9, 37, 102
1, 88800, Note_on_c, 9, 42, 92
1, 88806, Note_on_c, 9, 37, 0
1, 88806, Note_on_c, 9, 42, 0
1, 89040, Note_on_c, 9, 42, 98
1, 89040, Note_on_c, 9, 36, 92
1, 89046, Note_on_c, 9, 42, 0
1, 89279, Note_on_c, 9, 36, 0
1, 89280, Note_on_c, 9, 42, 92
1, 89286, Note_on_c, 9, 42, 0
1, 89520, Note_on_c, 9, 42, 80
1, 89520, Note_on_c, 9, 36, 86
1, 89526, Note_on_c, 9, 42, 0
1, 89759, Note_on_c, 9, 36, 0
1, 89760, Note_on_c, 9, 37, 104
1, 89760, Note_on_c, 9, 42, 64
1, 89760, Note_on_c, 9, 36, 115
1, 89766, Note_on_c, 9, 37, 0
1, 89766, Note_on_c, 9, 42, 0
1, 90000, Note_on_c, 9, 42, 98
1, 90006, Note_on_c, 9, 42, 0
1, 90239, Note_on_c, 9, 36, 0
1, 90240, Note_on_c, 9, 42, 99
1, 90240, Note_on_c, 9, 36, 121
1, 90246, Note_on_c, 9, 42, 0
1, 90480, Note_on_c, 9, 42, 92
1, 90486, Note_on_c, 9, 42, 0
1, 90719, Note_on_c, 9, 36, 0
1, 90720, Note_on_c, 9, 37, 102
1, 90720, Note_on_c, 9, 42, 92
1, 90726, Note_on_c, 9, 37, 0
1, 90726, Note_on_c, 9, 42, 0
1, 90960, Note_on_c, 9, 42, 98
1, 90960, Note_on_c, 9, 36, 121
1, 90966, Note_on_c, 9, 42, 0
1, 91199, Note_on_c, 9, 36, 0
1, 91200, Note_on_c, 9, 42, 92
1, 91206, Note_on_c, 9, 42, 0
1, 91440, Note_on_c, 9, 42, 80
1, 91446, Note_on_c, 9, 42, 0
1, 91680, Note_on_c, 9, 37, 104
1, 91680, Note_on_c, 9, 42, 64
1, 91686, Note_on_c, 9, 37, 0
1, 91686, Note_on_c, 9, 42, 0
1, 91920, Note_on_c, 9, 42, 98
1, 91926, Note_on_c, 9, 42, 0
1, 92160, Note_on_c, 9, 42, 99
1, 92166, Note_on_c, 9, 42, 0
1, 92400, Note_on_c, 9, 42, 92
1, 92406, Note_on_c, 9, 42, 0
1, 92640, Note_on_c, 9, 37, 102
1, 92640, Note_on_c, 9, 42, 92
1, 92646, Note_on_c, 9, 37, 0
1, 92646, Note_on_c, 9, 42, 0
1, 92880, Note_on_c, 9, 42, 98
1, 92880, Note_on_c, 9, 36, 92
1, 92886, Note_on_c, 9, 42, 0
1, 93119, Note_on_c, 9, 36, 0
1, 93120, Note_on_c, 9, 42, 92
1, 93126, Note_on_c, 9, 42, 0
1, 93360, Note_on_c, 9, 42, 80
1, 93360, Note_on_c, 9, 36, 92
1, 93366, Note_on_c, 9, 42, 0
1, 93599, Note_on_c, 9, 36, 0
1, 93600, Note_on_c, 9, 37, 104
1, 93600, Note_on_c, 9, 42, 64
1, 93600, Note_on_c, 9, 36, 115
1, 93606, Note_on_c, 9, 37, 0
1, 93606, Note_on_c, 9, 42, 0
1, 93840, Note_on_c, 9, 42, 98
1, 93846, Note_on_c, 9, 42, 0
1, 94079, Note_on_c, 9, 36, 0
1, 94080, Note_on_c, 9, 42, 99
1, 94080, Note_on_c, 9, 36, 121
1, 94086, Note_on_c, 9, 42, 0
1, 94320, Note_on_c, 9, 42, 92
1, 94326, Note_on_c, 9, 42, 0
1, 94559, Note_on_c, 9, 36, 0
1, 94560, Note_on_c, 9, 37, 102
1, 94560, Note_on_c, 9, 42, 92
1, 94566, Note_on_c, 9, 37, 0
1, 94566, Note_on_c, 9, 42, 0
1, 94800, Note_on_c, 9, 42, 98
1, 94800, Note_on_c, 9, 36, 115
1, 94806, Note_on_c, 9, 42, 0
1, 95039, Note_on_c, 9, 36, 0
1, 95040, Note_on_c, 9, 42, 92
1, 95046, Note_on_c, 9, 42, 0
1, 95280, Note_on_c, 9, 42, 80
1, 95286, Note_on_c, 9, 42, 0
1, 95520, Note_on_c, 9, 37, 104
1, 95520, Note_on_c, 9, 42, 64
1, 95526, Note_on_c, 9, 37, 0
1, 95526, Note_on_c, 9, 42, 0
1, 95760, Note_on_c, 9, 42, 98
1, 95766, Note_on_c, 9, 42, 0
1, 96000, Note_on_c, 9, 42, 99
1, 96006, Note_on_c, 9, 42, 0
1, 96240, Note_on_c, 9, 42, 92
1, 96246, Note_on_c, 9, 42, 0
1, 96480, Note_on_c, 9, 37, 102
1, 96480, Note_on_c, 9, 42, 92
1, 96486, Note_on_c, 9, 37, 0
1, 96486, Note_on_c, 9, 42, 0
1, 96720, Note_on_c, 9, 42, 98
1, 96720, Note_on_c, 9, 36, 92
1, 96726, Note_on_c, 9, 42, 0
1, 96959, Note_on_c, 9, 36, 0
1, 96960, Note_on_c, 9, 42, 92
1, 96966, Note_on_c, 9, 42, 0
1, 97200, Note_on_c, 9, 42, 80
1, 97200, Note_on_c, 9, 36, 86
1, 97206, Note_on_c, 9, 42, 0
1, 97439, Note_on_c, 9, 36, 0
1, 97440, Note_on_c, 9, 37, 104
1, 97440, Note_on_c, 9, 42, 64
1, 97440, Note_on_c, 9, 36, 115
1, 97446, Note_on_c, 9, 37, 0
1, 97446, Note_on_c, 9, 42, 0
1, 97680, Note_on_c, 9, 42, 98
1, 97686, Note_on_c, 9, 42, 0
1, 97919, Note_on_c, 9, 36, 0
1, 97920, Note_on_c, 9, 42, 99
1, 97926, Note_on_c, 9, 42, 0
1, 98160, Note_on_c, 9, 42, 92
1, 98160, Note_on_c, 9, 36, 104
1, 98166, Note_on_c, 9, 42, 0
1, 98399, Note_on_c, 9, 36, 0
1, 98400, Note_on_c, 9, 37, 102
1, 98400, Note_on_c, 9, 42, 92
1, 98406, Note_on_c, 9, 37, 0
1, 98406, Note_on_c, 9, 42, 0
1, 98640, Note_on_c, 9, 42, 98
1, 98640, Note_on_c, 9, 36, 92
1, 98646, Note_on_c, 9, 42, 0
1, 98879, Note_on_c, 9, 36, 0
1, 98880, Note_on_c, 9, 42, 92
1, 98886, Note_on_c, 9, 42, 0
1, 99120, Note_on_c, 9, 42, 80
1, 99126, Note_on_c, 9, 42, 0
1, 99360, Note_on_c, 9, 37, 104
1, 99360, Note_on_c, 9, 42, 64
1, 99360, Note_on_c, 9, 36, 109
1, 99366, Note_on_c, 9, 37, 0
1, 99366, Note_on_c, 9, 42, 0
1, 99600, Note_on_c, 9, 42, 98
1, 99606, Note_on_c, 9, 42, 0
1, 99839, Note_on_c, 9, 36, 0
1, 99840, Note_on_c, 9, 42, 99
1, 99846, Note_on_c, 9, 42, 0
1, 100080, Note_on_c, 9, 42, 92
1, 100086, Note_on_c, 9, 42, 0
1, 100320, Note_on_c, 9, 37, 102
1, 100320, Note_on_c, 9, 42, 92
1, 100320, Note_on_c, 9, 36, 92
1, 100326, Note_on_c, 9, 37, 0
1, 100326, Note_on_c, 9, 42, 0
1, 100560, Note_on_c, 9, 42, 98
1, 100566, Note_on_c, 9, 42, 0
1, 100799, Note_on_c, 9, 36, 0
1, 100800, Note_on_c, 9, 42, 92
1, 100800, Note_on_c, 9, 36, 115
1, 100806, Note_on_c, 9, 42, 0
1, 101039, Note_on_c, 9, 36, 0
1, 101040, Note_on_c, 9, 42, 80
1, 101040, Note_on_c, 9, 36, 104
1, 101046, Note_on_c, 9, 42, 0
1, 101279, Note_on_c, 9, 36, 0
1, 101280, Note_on_c, 9, 37, 104
1, 101280, Note_on_c, 9, 42, 64
1, 101286, Note_on_c, 9, 37, 0
1, 101286, Note_on_c, 9, 42, 0
1, 101520, Note_on_c, 9, 42, 98
1, 101520, Note_on_c, 9, 36, 98
1, 101526, Note_on_c, 9, 42, 0
1, 101759, Note_on_c, 9, 36, 0
1, 101760, Note_on_c, 9, 42, 99
1, 101766, Note_on_c, 9, 42, 0
1, 102000, Note_on_c, 9, 42, 92
1, 102000, Note_on_c, 9, 36, 104
1, 102006, Note_on_c, 9, 42, 0
1, 102239, Note_on_c, 9, 36, 0
1, 102240, Note_on_c, 9, 37, 102
1, 102240, Note_on_c, 9, 42, 92
1, 102246, Note_on_c, 9, 37, 0
1, 102246, Note_on_c, 9, 42, 0
1, 102480, Note_on_c, 9, 42, 98
1, 102480, Note_on_c, 9, 36, 92
1, 102486, Note_on_c, 9, 42, 0
1, 102719, Note_on_c, 9, 36, 0
1, 102720, Note_on_c, 9, 42, 92
1, 102726, Note_on_c, 9, 42, 0
1, 102960, Note_on_c, 9, 42, 80
1, 102966, Note_on_c, 9, 42, 0
1, 103200, Note_on_c, 9, 37, 104
1, 103200, Note_on_c, 9, 42, 64
1, 103200, Note_on_c, 9, 36, 109
1, 103206, Note_on_c, 9, 37, 0
1, 103206, Note_on_c, 9, 42, 0
1, 103440, Note_on_c, 9, 42, 98
1, 103446, Note_on_c, 9, 42, 0
1, 103679, Note_on_c, 9, 36, 0
1, 103680, Note_on_c, 9, 42, 99
1, 103686, Note_on_c, 9, 42, 0
1, 103920, Note_on_c, 9, 42, 92
1, 103926, Note_on_c, 9, 42, 0
1, 104160, Note_on_c, 9, 37, 102
1, 104160, Note_on_c, 9, 42, 92
1, 104160, Note_on_c, 9, 36, 92
1, 104166, Note_on_c, 9, 37, 0
1, 104166, Note_on_c, 9, 42, 0
1, 104400, Note_on_c, 9, 42, 98
1, 104406, Note_on_c, 9, 42, 0
1, 104639, Note_on_c, 9, 36, 0
1, 104640, Note_on_c, 9, 42, 92
1, 104640, Note_on_c, 9, 36, 115
1, 104646, Note_on_c, 9, 42, 0
1, 104879, Note_on_c, 9, 36, 0
1, 104880, Note_on_c, 9, 42, 80
1, 104880, Note_on_c, 9, 36, 104
1, 104886, Note_on_c, 9, 42, 0
1, 105119, Note_on_c, 9, 36, 0
1, 105120, Note_on_c, 9, 37, 104
1, 105120, Note_on_c, 9, 42, 64
1, 105126, Note_on_c, 9, 37, 0
1, 105126, Note_on_c, 9, 42, 0
1, 105360, Note_on_c, 9, 42, 98
1, 105360, Note_on_c, 9, 36, 98
1, 105366, Note_on_c, 9, 42, 0
1, 105599, Note_on_c, 9, 36, 0
1, 105600, Note_on_c, 9, 42, 99
1, 105606, Note_on_c, 9, 42, 0
1, 105840, Note_on_c, 9, 42, 92
1, 105840, Note_on_c, 9, 36, 104
1, 105846, Note_on_c, 9, 42, 0
1, 106079, Note_on_c, 9, 36, 0
1, 106080, Note_on_c, 9, 37, 102
1, 106080, Note_on_c, 9, 42, 92
1, 106086, Note_on_c, 9, 37, 0
1, 106086, Note_on_c, 9, 42, 0
1, 106320, Note_on_c, 9, 42, 98
1, 106320, Note_on_c, 9, 36, 92
1, 106326, Note_on_c, 9, 42, 0
1, 106559, Note_on_c, 9, 36, 0
1, 106560, Note_on_c, 9, 42, 92
1, 106566, Note_on_c, 9, 42, 0
1, 106800, Note_on_c, 9, 42, 80
1, 106806, Note_on_c, 9, 42, 0
1, 107040, Note_on_c, 9, 37, 104
1, 107040, Note_on_c, 9, 42, 64
1, 107040, Note_on_c, 9, 36, 109
1, 107046, Note_on_c, 9, 37, 0
1, 107046, Note_on_c, 9, 42, 0
1, 107280, Note_on_c, 9, 42, 98
1, 107286, Note_on_c, 9, 42, 0
1, 107519, Note_on_c, 9, 36, 0
1, 107520, Note_on_c, 9, 42, 99
1, 107526, Note_on_c, 9, 42, 0
1, 107760, Note_on_c, 9, 42, 92
1, 107766, Note_on_c, 9, 42, 0
1, 108000, Note_on_c, 9, 37, 102
1, 108000, Note_on_c, 9, 42, 92
1, 108000, Note_on_c, 9, 36, 92
1, 108006, Note_on_c, 9, 37, 0
1, 108006, Note_on_c, 9, 42, 0
1, 108240, Note_on_c, 9, 42, 98
1, 108246, Note_on_c, 9, 42, 0
1, 108479, Note_on_c, 9, 36, 0
1, 108480, Note_on_c, 9, 42, 92
1, 108480, Note_on_c, 9, 36, 115
1, 108486, Note_on_c, 9, 42, 0
1, 108719, Note_on_c, 9, 36, 0
1, 108720, Note_on_c, 9, 42, 80
1, 108720, Note_on_c, 9, 36, 104
1, 108726, Note_on_c, 9, 42, 0
1, 108959, Note_on_c, 9, 36, 0
1, 108960, Note_on_c, 9, 37, 104
1, 108960, Note_on_c, 9, 42, 64
1, 108966, Note_on_c, 9, 37, 0
1, 108966, Note_on_c, 9, 42, 0
1, 109200, Note_on_c, 9, 42, 98
1, 109200, Note_on_c, 9, 36, 98
1, 109206, Note_on_c, 9, 42, 0
1, 109439, Note_on_c, 9, 36, 0
1, 109440, Note_on_c, 9, 42, 99
1, 109446, Note_on_c, 9, 42, 0
1, 109680, Note_on_c, 9, 42, 92
1, 109680, Note_on_c, 9, 36, 104
1, 109686, Note_on_c, 9, 42, 0
1, 109919, Note_on_c, 9, 36, 0
1, 109920, Note_on_c, 9, 37, 102
1, 109920, Note_on_c, 9, 42, 92
1, 109926, Note_on_c, 9, 37, 0
1, 109926, Note_on_c, 9, 42, 0
1, 110160, Note_on_c, 9, 42, 98
1, 110160, Note_on_c, 9, 36, 92
1, 110166, Note_on_c, 9, 42, 0
1, 110399, Note_on_c, 9, 36, 0
1, 110400, Note_on_c, 9, 42, 92
1, 110406, Note_on_c, 9, 42, 0
1, 110640, Note_on_c, 9, 42, 80
1, 110646, Note_on_c, 9, 42, 0
1, 110880, Note_on_c, 9, 37, 104
1, 110880, Note_on_c, 9, 42, 64
1, 110880, Note_on_c, 9, 36, 109
1, 110886, Note_on_c, 9, 37, 0
1, 110886, Note_on_c, 9, 42, 0
1, 111120, Note_on_c, 9, 42, 98
1, 111126, Note_on_c, 9, 42, 0
1, 111359, Note_on_c, 9, 36, 0
1, 111360, Note_on_c, 9, 42, 99
1, 111366, Note_on_c, 9, 42, 0
1, 111600, Note_on_c, 9, 42, 92
1, 111606, Note_on_c, 9, 42, 0
1, 111840, Note_on_c, 9, 37, 102
1, 111840, Note_on_c, 9, 42, 92
1, 111840, Note_on_c, 9, 36, 92
1, 111846, Note_on_c, 9, 37, 0
1, 111846, Note_on_c, 9, 42, 0
1, 112080, Note_on_c, 9, 42, 98
1, 112086, Note_on_c, 9, 42, 0
1, 112319, Note_on_c, 9, 36, 0
1, 112320, Note_on_c, 9, 42, 92
1, 112320, Note_on_c, 9, 36, 115
1, 112326, Note_on_c, 9, 42, 0
1, 112559, Note_on_c, 9, 36, 0
1, 112560, Note_on_c, 9, 38, 127
1, 112560, Note_on_c, 9, 42, 80
1, 112560, Note_on_c, 9, 36, 104
1, 112566, Note_on_c, 9, 42, 0
1, 112799, Note_on_c, 9, 38, 0
1, 112799, Note_on_c, 9, 36, 0
1, 112800, Note_on_c, 9, 38, 127
1, 112800, Note_on_c, 9, 42, 64
1, 112802, Note_on_c, 9, 42, 0
1, 112919, Note_on_c, 9, 38, 0
1, 112920, Note_on_c, 9, 38, 127
1, 113039, Note_on_c, 9, 38, 0
1, 113040, Note_on_c, 9, 38, 127
1, 113040, Note_on_c, 9, 42, 98
1, 113040, Note_on_c, 9, 36, 98
1, 113046, Note_on_c, 9, 42, 0
1, 113279, Note_on_c, 9, 38, 0
1, 113279, Note_on_c, 9, 36, 0
1, 113280, Note_on_c, 9, 51, 86
1, 113280, Note_on_c, 9, 53, 115
1, 113280, Note_on_c, 9, 49, 92
1, 113280, Note_on_c, 9, 55, 121
1, 113280, Note_on_c, 9, 36, 121
1, 113294, Note_on_c, 9, 51, 0
1, 113294, Note_on_c, 9, 49, 0
1, 113294, Note_on_c, 9, 55, 0
1, 113759, Note_on_c, 9, 53, 0
1, 113759, Note_on_c, 9, 36, 0
1, 113760, Note_on_c, 9, 38, 127
1, 113760, Note_on_c, 9, 53, 127
1, 114000, Note_on_c, 9, 36, 115
1, 114239, Note_on_c, 9, 38, 0
1, 114239, Note_on_c, 9, 53, 0
1, 114239, Note_on_c, 9, 36, 0
1, 114240, Note_on_c, 9, 53, 127
1, 114719, Note_on_c, 9, 53, 0
1, 114720, Note_on_c, 9, 38, 127
1, 114720, Note_on_c, 9, 53, 127
1, 115199, Note_on_c, 9, 38, 0
1, 115199, Note_on_c, 9, 53, 0
1, 115200, Note_on_c, 9, 53, 127
1, 115679, Note_on_c, 9, 53, 0
1, 115680, Note_on_c, 9, 38, 127
1, 115680, Note_on_c, 9, 53, 115
1, 115920, Note_on_c, 9, 36, 92
1, 116159, Note_on_c, 9, 38, 0
1, 116159, Note_on_c, 9, 53, 0
1, 116159, Note_on_c, 9, 36, 0
1, 116160, Note_on_c, 9, 53, 115
1, 116399, Note_on_c, 9, 53, 0
1, 116400, Note_on_c, 9, 38, 127
1, 116400, Note_on_c, 9, 36, 86
1, 116639, Note_on_c, 9, 38, 0
1, 116639, Note_on_c, 9, 36, 0
1, 116640, Note_on_c, 9, 38, 127
1, 116640, Note_on_c, 9, 36, 115
1, 116759, Note_on_c, 9, 38, 0
1, 116760, Note_on_c, 9, 38, 127
1, 116879, Note_on_c, 9, 38, 0
1, 116880, Note_on_c, 9, 38, 127
1, 117119, Note_on_c, 9, 36, 0
1, 117119, Note_on_c, 9, 38, 0
1, 117120, Note_on_c, 9, 51, 127
1, 117120, Note_on_c, 9, 53, 127
1, 117120, Note_on_c, 9, 55, 127
1, 117120, Note_on_c, 9, 36, 121
1, 117134, Note_on_c, 9, 51, 0
1, 117134, Note_on_c, 9, 55, 0
1, 117599, Note_on_c, 9, 53, 0
1, 117599, Note_on_c, 9, 36, 0
1, 117600, Note_on_c, 9, 38, 127
1, 117600, Note_on_c, 9, 53, 127
1, 117840, Note_on_c, 9, 36, 121
1, 118079, Note_on_c, 9, 38, 0
1, 118079, Note_on_c, 9, 53, 0
1, 118079, Note_on_c, 9, 36, 0
1, 118080, Note_on_c, 9, 53, 127
1, 118559, Note_on_c, 9, 53, 0
1, 118560, Note_on_c, 9, 37, 104
1, 118560, Note_on_c, 9, 38, 127
1, 118560, Note_on_c, 9, 53, 127
1, 118574, Note_on_c, 9, 37, 0
1, 119039, Note_on_c, 9, 38, 0
1, 119039, Note_on_c, 9, 53, 0
1, 119040, Note_on_c, 9, 53, 121
1, 119519, Note_on_c, 9, 53, 0
1, 119520, Note_on_c, 9, 37, 102
1, 119520, Note_on_c, 9, 38, 127
1, 119520, Note_on_c, 9, 53, 127
1, 119534, Note_on_c, 9, 37, 0
1, 119760, Note_on_c, 9, 36, 92
1, 119999, Note_on_c, 9, 38, 0
1, 119999, Note_on_c, 9, 53, 0
1, 119999, Note_on_c, 9, 36, 0
1, 120000, Note_on_c, 9, 53, 127
1, 120239, Note_on_c, 9, 53, 0
1, 120240, Note_on_c, 9, 38, 127
1, 120240, Note_on_c, 9, 36, 92
1, 120479, Note_on_c, 9, 38, 0
1, 120479, Note_on_c, 9, 36, 0
1, 120480, Note_on_c, 9, 37, 104
1, 120480, Note_on_c, 9, 38, 127
1, 120480, Note_on_c, 9, 36, 115
1, 120482, Note_on_c, 9, 37, 0
1, 120599, Note_on_c, 9, 38, 0
1, 120600, Note_on_c, 9, 38, 127
1, 120719, Note_on_c, 9, 38, 0
1, 120720, Note_on_c, 9, 38, 127
1, 120959, Note_on_c, 9, 36, 0
1, 120959, Note_on_c, 9, 38, 0
1, 120960, Note_on_c, 9, 51, 86
1, 120960, Note_on_c, 9, 53, 121
1, 120960, Note_on_c, 9, 49, 92
1, 120960, Note_on_c, 9, 55, 115
1, 120974, Note_on_c, 9, 51, 0
1, 120974, Note_on_c, 9, 49, 0
1, 120974, Note_on_c, 9, 55, 0
1, 121200, Note_on_c, 9, 36, 104
1, 121439, Note_on_c, 9, 53, 0
1, 121439, Note_on_c, 9, 36, 0
1, 121440, Note_on_c, 9, 38, 127
1, 121440, Note_on_c, 9, 53, 127
1, 121680, Note_on_c, 9, 36, 92
1, 121919, Note_on_c, 9, 38, 0
1, 121919, Note_on_c, 9, 53, 0
1, 121919, Note_on_c, 9, 36, 0
1, 121920, Note_on_c, 9, 53, 127
1, 122399, Note_on_c, 9, 53, 0
1, 122400, Note_on_c, 9, 38, 127
1, 122400, Note_on_c, 9, 53, 127
1, 122400, Note_on_c, 9, 36, 109
1, 122879, Note_on_c, 9, 38, 0
1, 122879, Note_on_c, 9, 53, 0
1, 122879, Note_on_c, 9, 36, 0
1, 122880, Note_on_c, 9, 53, 121
1, 123359, Note_on_c, 9, 53, 0
1, 123360, Note_on_c, 9, 38, 127
1, 123360, Note_on_c, 9, 53, 127
1, 123360, Note_on_c, 9, 36, 92
1, 123839, Note_on_c, 9, 38, 0
1, 123839, Note_on_c, 9, 53, 0
1, 123839, Note_on_c, 9, 36, 0
1, 123840, Note_on_c, 9, 53, 127
1, 123840, Note_on_c, 9, 36, 115
1, 124079, Note_on_c, 9, 53, 0
1, 124079, Note_on_c, 9, 36, 0
1, 124080, Note_on_c, 9, 38, 127
1, 124080, Note_on_c, 9, 36, 104
1, 124319, Note_on_c, 9, 38, 0
1, 124319, Note_on_c, 9, 36, 0
1, 124320, Note_on_c, 9, 38, 121
1, 124439, Note_on_c, 9, 38, 0
1, 124440, Note_on_c, 9, 38, 121
1, 124559, Note_on_c, 9, 38, 0
1, 124560, Note_on_c, 9, 38, 127
1, 124560, Note_on_c, 9, 36, 98
1, 124799, Note_on_c, 9, 38, 0
1, 124799, Note_on_c, 9, 36, 0
1, 124800, Note_on_c, 9, 51, 127
1, 124800, Note_on_c, 9, 53, 127
1, 124800, Note_on_c, 9, 55, 115
1, 124814, Note_on_c, 9, 51, 0
1, 124814, Note_on_c, 9, 55, 0
1, 125040, Note_on_c, 9, 36, 104
1, 125279, Note_on_c, 9, 53, 0
1, 125279, Note_on_c, 9, 36, 0
1, 125280, Note_on_c, 9, 38, 127
1, 125280, Note_on_c, 9, 53, 127
1, 125520, Note_on_c, 9, 36, 92
1, 125759, Note_on_c, 9, 38, 0
1, 125759, Note_on_c, 9, 53, 0
1, 125759, Note_on_c, 9, 36, 0
1, 125760, Note_on_c, 9, 53, 127
1, 126239, Note_on_c, 9, 53, 0
1, 126240, Note_on_c, 9, 38, 127
1, 126240, Note_on_c, 9, 53, 127
1, 126240, Note_on_c, 9, 36, 109
1, 126719, Note_on_c, 9, 38, 0
1, 126719, Note_on_c, 9, 53, 0
1, 126719, Note_on_c, 9, 36, 0
1, 126720, Note_on_c, 9, 53, 127
1, 127199, Note_on_c, 9, 53, 0
1, 127200, Note_on_c, 9, 38, 127
1, 127200, Note_on_c, 9, 53, 127
1, 127200, Note_on_c, 9, 36, 92
1, 127679, Note_on_c, 9, 38, 0
1, 127679, Note_on_c, 9, 53, 0
1, 127679, Note_on_c, 9, 36, 0
1, 127680, Note_on_c, 9, 53, 127
1, 127680, Note_on_c, 9, 36, 115
1, 127919, Note_on_c, 9, 53, 0
1, 127919, Note_on_c, 9, 36, 0
1, 127920, Note_on_c, 9, 38, 127
1, 127920, Note_on_c, 9, 36, 104
1, 128159, Note_on_c, 9, 38, 0
1, 128159, Note_on_c, 9, 36, 0
1, 128160, Note_on_c, 9, 38, 127
1, 128279, Note_on_c, 9, 38, 0
1, 128280, Note_on_c, 9, 38, 121
1, 128399, Note_on_c, 9, 38, 0
1, 128400, Note_on_c, 9, 38, 127
1, 128400, Note_on_c, 9, 36, 98
1, 128639, Note_on_c, 9, 38, 0
1, 128639, Note_on_c, 9, 36, 0
1, 128640, Note_on_c, 9, 51, 121
1, 128640, Note_on_c, 9, 55, 121
1, 128654, Note_on_c, 9, 51, 0
1, 128654, Note_on_c, 9, 55, 0
1, 128880, Note_on_c, 9, 36, 104
1, 129119, Note_on_c, 9, 36, 0
1, 129120, Note_on_c, 9, 38, 127
1, 129120, Note_on_c, 9, 53, 127
1, 129360, Note_on_c, 9, 36, 92
1, 129599, Note_on_c, 9, 38, 0
1, 129599, Note_on_c, 9, 53, 0
1, 129599, Note_on_c, 9, 36, 0
1, 129600, Note_on_c, 9, 53, 127
1, 130079, Note_on_c, 9, 53, 0
1, 130080, Note_on_c, 9, 38, 127
1, 130080, Note_on_c, 9, 53, 115
1, 130080, Note_on_c, 9, 36, 109
1, 130559, Note_on_c, 9, 38, 0
1, 130559, Note_on_c, 9, 53, 0
1, 130559, Note_on_c, 9, 36, 0
1, 130560, Note_on_c, 9, 53, 121
1, 131039, Note_on_c, 9, 53, 0
1, 131040, Note_on_c, 9, 38, 127
1, 131040, Note_on_c, 9, 53, 127
1, 131040, Note_on_c, 9, 36, 92
1, 131519, Note_on_c, 9, 38, 0
1, 131519, Note_on_c, 9, 53, 0
1, 131519, Note_on_c, 9, 36, 0
1, 131520, Note_on_c, 9, 53, 127
1, 131520, Note_on_c, 9, 36, 115
1, 131759, Note_on_c, 9, 53, 0
1, 131759, Note_on_c, 9, 36, 0
1, 131760, Note_on_c, 9, 38, 127
1, 131760, Note_on_c, 9, 36, 104
1, 131999, Note_on_c, 9, 38, 0
1, 131999, Note_on_c, 9, 36, 0
1, 132000, Note_on_c, 9, 38, 127
1, 132119, Note_on_c, 9, 38, 0
1, 132120, Note_on_c, 9, 38, 121
1, 132239, Note_on_c, 9, 38, 0
1, 132240, Note_on_c, 9, 38, 127
1, 132240, Note_on_c, 9, 36, 98
1, 132479, Note_on_c, 9, 38, 0
1, 132479, Note_on_c, 9, 36, 0
1, 132480, Note_on_c, 9, 51, 109
1, 132480, Note_on_c, 9, 53, 127
1, 132480, Note_on_c, 9, 55, 109
1, 132494, Note_on_c, 9, 51, 0
1, 132494, Note_on_c, 9, 55, 0
1, 132720, Note_on_c, 9, 36, 104
1, 132959, Note_on_c, 9, 53, 0
1, 132959, Note_on_c, 9, 36, 0
1, 132960, Note_on_c, 9, 38, 127
1, 132960, Note_on_c, 9, 53, 127
1, 133200, Note_on_c, 9, 36, 92
1, 133439, Note_on_c, 9, 38, 0
1, 133439, Note_on_c, 9, 53, 0
1, 133439, Note_on_c, 9, 36, 0
1, 133440, Note_on_c, 9, 53, 127
1, 133919, Note_on_c, 9, 53, 0
1, 133920, Note_on_c, 9, 38, 127
1, 133920, Note_on_c, 9, 53, 109
1, 133920, Note_on_c, 9, 36, 109
1, 134399, Note_on_c, 9, 38, 0
1, 134399, Note_on_c, 9, 53, 0
1, 134399, Note_on_c, 9, 36, 0
1, 134400, Note_on_c, 9, 53, 127
1, 134879, Note_on_c, 9, 53, 0
1, 134880, Note_on_c, 9, 38, 127
1, 134880, Note_on_c, 9, 53, 127
1, 134880, Note_on_c, 9, 36, 92
1, 135359, Note_on_c, 9, 38, 0
1, 135359, Note_on_c, 9, 53, 0
1, 135359, Note_on_c, 9, 36, 0
1, 135360, Note_on_c, 9, 53, 127
1, 135360, Note_on_c, 9, 36, 115
1, 135599, Note_on_c, 9, 53, 0
1, 135599, Note_on_c, 9, 36, 0
1, 135600, Note_on_c, 9, 38, 127
1, 135600, Note_on_c, 9, 36, 104
1, 135839, Note_on_c, 9, 38, 0
1, 135839, Note_on_c, 9, 36, 0
1, 135840, Note_on_c, 9, 38, 127
1, 135959, Note_on_c, 9, 38, 0
1, 135960, Note_on_c, 9, 38, 127
1, 136079, Note_on_c, 9, 38, 0
1, 136080, Note_on_c, 9, 38, 127
1, 136080, Note_on_c, 9, 36, 98
1, 136319, Note_on_c, 9, 38, 0
1, 136319, Note_on_c, 9, 36, 0
1, 136320, Note_on_c, 9, 51, 92
1, 136320, Note_on_c, 9, 53, 115
1, 136320, Note_on_c, 9, 49, 86
1, 136320, Note_on_c, 9, 55, 115
1, 136320, Note_on_c, 9, 36, 121
1, 136334, Note_on_c, 9, 51, 0
1, 136334, Note_on_c, 9, 49, 0
1, 136334, Note_on_c, 9, 55, 0
1, 136799, Note_on_c, 9, 53, 0
1, 136799, Note_on_c, 9, 36, 0
1, 136800, Note_on_c, 9, 38, 127
1, 136800, Note_on_c, 9, 53, 127
1, 137040, Note_on_c, 9, 36, 115
1, 137279, Note_on_c, 9, 38, 0
1, 137279, Note_on_c, 9, 53, 0
1, 137279, Note_on_c, 9, 36, 0
1, 137280, Note_on_c, 9, 53, 127
1, 137759, Note_on_c, 9, 53, 0
1, 137760, Note_on_c, 9, 38, 127
1, 137760, Note_on_c, 9, 53, 127
1, 138239, Note_on_c, 9, 38, 0
1, 138239, Note_on_c, 9, 53, 0
1, 138240, Note_on_c, 9, 53, 127
1, 138719, Note_on_c, 9, 53, 0
1, 138720, Note_on_c, 9, 38, 127
1, 138720, Note_on_c, 9, 53, 121
1, 138960, Note_on_c, 9, 36, 92
1, 139199, Note_on_c, 9, 38, 0
1, 139199, Note_on_c, 9, 53, 0
1, 139199, Note_on_c, 9, 36, 0
1, 139200, Note_on_c, 9, 53, 127
1, 139439, Note_on_c, 9, 53, 0
1, 139440, Note_on_c, 9, 38, 127
1, 139440, Note_on_c, 9, 36, 86
1, 139679, Note_on_c, 9, 38, 0
1, 139679, Note_on_c, 9, 36, 0
1, 139680, Note_on_c, 9, 38, 127
1, 139680, Note_on_c, 9, 36, 115
1, 139799, Note_on_c, 9, 38, 0
1, 139800, Note_on_c, 9, 38, 127
1, 139919, Note_on_c, 9, 38, 0
1, 139920, Note_on_c, 9, 38, 127
1, 140159, Note_on_c, 9, 36, 0
1, 140159, Note_on_c, 9, 38, 0
1, 140160, Note_on_c, 9, 51, 70
1, 140160, Note_on_c, 9, 53, 121
1, 140160, Note_on_c, 9, 49, 70
1, 140160, Note_on_c, 9, 55, 121
1, 140160, Note_on_c, 9, 36, 121
1, 140174, Note_on_c, 9, 51, 0
1, 140174, Note_on_c, 9, 49, 0
1, 140174, Note_on_c, 9, 55, 0
1, 140639, Note_on_c, 9, 53, 0
1, 140639, Note_on_c, 9, 36, 0
1, 140640, Note_on_c, 9, 38, 127
1, 140640, Note_on_c, 9, 53, 127
1, 140880, Note_on_c, 9, 36, 121
1, 141119, Note_on_c, 9, 38, 0
1, 141119, Note_on_c, 9, 53, 0
1, 141119, Note_on_c, 9, 36, 0
1, 141120, Note_on_c, 9, 53, 109
1, 141599, Note_on_c, 9, 53, 0
1, 141600, Note_on_c, 9, 38, 127
1, 141600, Note_on_c, 9, 53, 127
1, 142079, Note_on_c, 9, 38, 0
1, 142079, Note_on_c, 9, 53, 0
1, 142080, Note_on_c, 9, 53, 127
1, 142559, Note_on_c, 9, 53, 0
1, 142560, Note_on_c, 9, 38, 127
1, 142560, Note_on_c, 9, 53, 121
1, 142800, Note_on_c, 9, 36, 92
1, 143039, Note_on_c, 9, 38, 0
1, 143039, Note_on_c, 9, 53, 0
1, 143039, Note_on_c, 9, 36, 0
1, 143040, Note_on_c, 9, 53, 127
1, 143279, Note_on_c, 9, 53, 0
1, 143280, Note_on_c, 9, 38, 127
1, 143280, Note_on_c, 9, 36, 92
1, 143519, Note_on_c, 9, 38, 0
1, 143519, Note_on_c, 9, 36, 0
1, 143520, Note_on_c, 9, 38, 127
1, 143520, Note_on_c, 9, 36, 115
1, 143639, Note_on_c, 9, 38, 0
1, 143640, Note_on_c, 9, 38, 127
1, 143759, Note_on_c, 9, 38, 0
1, 143760, Note_on_c, 9, 38, 127
1, 143999, Note_on_c, 9, 36, 0
1, 143999, Note_on_c, 9, 38, 0
1, 144000, Note_on_c, 9, 51, 116
1, 144000, Note_on_c, 9, 53, 111
1, 144000, Note_on_c, 9, 49, 106
1, 144000, Note_on_c, 9, 36, 68
1, 144014, Note_on_c, 9, 51, 0
1, 144014, Note_on_c, 9, 49, 0
1, 144479, Note_on_c, 9, 53, 0
1, 144479, Note_on_c, 9, 36, 0
1, 144480, End_track
0, 0, End_of_file
