0, 0, Header, 1, 1, 480
1, 0, Start_track
1, 0, Title_t, "Drumset"
1, 0, Time_signature, 4, 2, 24, 8
1, 0, Key_signature, 0, "major"
1, 0, Tempo, 472441
1, 0, Control_c, 9, 121, 0
1, 0, Program_c, 9, 0
1, 0, Control_c, 9, 7, 100
1, 0, Control_c, 9, 10, 64
1, 0, Control_c, 9, 91, 0
1, 0, Control_c, 9, 93, 0
1, 0, MIDI_port, 1
1, 1920, Note_on_c, 9, 41, 95
1, 1920, Note_on_c, 9, 36, 92
1, 2239, Note_on_c, 9, 41, 0
1, 2239, Note_on_c, 9, 36, 0
1, 2240, Note_on_c, 9, 41, 95
1, 2240, Note_on_c, 9, 36, 92
1, 2399, Note_on_c, 9, 41, 0
1, 2399, Note_on_c, 9, 36, 0
1, 2400, Note_on_c, 9, 38, 105
1, 2719, Note_on_c, 9, 38, 0
1, 2720, Note_on_c, 9, 45, 79
1, 2879, Note_on_c, 9, 45, 0
1, 2880, Note_on_c, 9, 41, 95
1, 2880, Note_on_c, 9, 36, 92
1, 3199, Note_on_c, 9, 41, 0
1, 3199, Note_on_c, 9, 36, 0
1, 3200, Note_on_c, 9, 41, 95
1, 3200, Note_on_c, 9, 36, 92
1, 3359, Note_on_c, 9, 41, 0
1, 3359, Note_on_c, 9, 36, 0
1, 3360, Note_on_c, 9, 38, 105
1, 3679, Note_on_c, 9, 38, 0
1, 3680, Note_on_c, 9, 45, 79
1, 3839, Note_on_c, 9, 45, 0
1, 3840, Note_on_c, 9, 41, 95
1, 3840, Note_on_c, 9, 36, 92
1, 4159, Note_on_c, 9, 41, 0
1, 4159, Note_on_c, 9, 36, 0
1, 4160, Note_on_c, 9, 41, 95
1, 4160, Note_on_c, 9, 36, 92
1, 4319, Note_on_c, 9, 41, 0
1, 4319, Note_on_c, 9, 36, 0
1, 4320, Note_on_c, 9, 38, 105
1, 4639, Note_on_c, 9, 38, 0
1, 4640, Note_on_c, 9, 45, 79
1, 4799, Note_on_c, 9, 45, 0
1, 4800, Note_on_c, 9, 41, 95
1, 4800, Note_on_c, 9, 36, 92
1, 5119, Note_on_c, 9, 41, 0
1, 5119, Note_on_c, 9, 36, 0
1, 5120, Note_on_c, 9, 41, 95
1, 5120, Note_on_c, 9, 36, 92
1, 5279, Note_on_c, 9, 41, 0
1, 5279, Note_on_c, 9, 36, 0
1, 5280, Note_on_c, 9, 38, 105
1, 5599, Note_on_c, 9, 38, 0
1, 5600, Note_on_c, 9, 45, 79
1, 5759, Note_on_c, 9, 45, 0
1, 5760, Note_on_c, 9, 41, 95
1, 5760, Note_on_c, 9, 36, 92
1, 6079, Note_on_c, 9, 41, 0
1, 6079, Note_on_c, 9, 36, 0
1, 6080, Note_on_c, 9, 41, 95
1, 6080, Note_on_c, 9, 36, 92
1, 6239, Note_on_c, 9, 41, 0
1, 6239, Note_on_c, 9, 36, 0
1, 6240, Note_on_c, 9, 38, 105
1, 6559, Note_on_c, 9, 38, 0
1, 6560, Note_on_c, 9, 45, 79
1, 6719, Note_on_c, 9, 45, 0
1, 6720, Note_on_c, 9, 41, 95
1, 6720, Note_on_c, 9, 36, 92
1, 7039, Note_on_c, 9, 41, 0
1, 7039, Note_on_c, 9, 36, 0
1, 7040, Note_on_c, 9, 41, 95
1, 7040, Note_on_c, 9, 36, 92
1, 7199, Note_on_c, 9, 41, 0
1, 7199, Note_on_c, 9, 36, 0
1, 7200, Note_on_c, 9, 38, 105
1, 7519, Note_on_c, 9, 38, 0
1, 7520, Note_on_c, 9, 45, 79
1, 7679, Note_on_c, 9, 45, 0
1, 7680, Note_on_c, 9, 41, 95
1, 7680, Note_on_c, 9, 36, 92
1, 7999, Note_on_c, 9, 41, 0
1, 7999, Note_on_c, 9, 36, 0
1, 8000, Note_on_c, 9, 41, 95
1, 8000, Note_on_c, 9, 36, 92
1, 8159, Note_on_c, 9, 41, 0
1, 8159, Note_on_c, 9, 36, 0
1, 8160, Note_on_c, 9, 38, 105
1, 8479, Note_on_c, 9, 38, 0
1, 8480, Note_on_c, 9, 45, 79
1, 8639, Note_on_c, 9, 45, 0
1, 8640, Note_on_c, 9, 41, 95
1, 8640, Note_on_c, 9, 36, 92
1, 8959, Note_on_c, 9, 41, 0
1, 8959, Note_on_c, 9, 36, 0
1, 8960, Note_on_c, 9, 41, 95
1, 8960, Note_on_c, 9, 36, 92
1, 9119, Note_on_c, 9, 41, 0
1, 9119, Note_on_c, 9, 36, 0
1, 9120, Note_on_c, 9, 38, 105
1, 9439, Note_on_c, 9, 38, 0
1, 9440, Note_on_c, 9, 45, 79
1, 9599, Note_on_c, 9, 45, 0
1, 9600, Note_on_c, 9, 41, 95
1, 9600, Note_on_c, 9, 49, 88
1, 9600, Note_on_c, 9, 36, 92
1, 9615, Note_on_c, 9, 49, 0
1, 9919, Note_on_c, 9, 41, 0
1, 9919, Note_on_c, 9, 36, 0
1, 9920, Note_on_c, 9, 41, 95
1, 9920, Note_on_c, 9, 36, 92
1, 10079, Note_on_c, 9, 41, 0
1, 10079, Note_on_c, 9, 36, 0
1, 10080, Note_on_c, 9, 38, 105
1, 10399, Note_on_c, 9, 38, 0
1, 10400, Note_on_c, 9, 45, 79
1, 10559, Note_on_c, 9, 45, 0
1, 10560, Note_on_c, 9, 41, 95
1, 10560, Note_on_c, 9, 36, 92
1, 10879, Note_on_c, 9, 41, 0
1, 10879, Note_on_c, 9, 36, 0
1, 10880, Note_on_c, 9, 41, 95
1, 10880, Note_on_c, 9, 36, 92
1, 11039, Note_on_c, 9, 41, 0
1, 11039, Note_on_c, 9, 36, 0
1, 11040, Note_on_c, 9, 38, 105
1, 11040, Note_on_c, 9, 39, 116
1, 11359, Note_on_c, 9, 38, 0
1, 11359, Note_on_c, 9, 39, 0
1, 11360, Note_on_c, 9, 45, 79
1, 11360, Note_on_c, 9, 39, 116
1, 11519, Note_on_c, 9, 45, 0
1, 11519, Note_on_c, 9, 39, 0
1, 11520, Note_on_c, 9, 41, 95
1, 11520, Note_on_c, 9, 36, 92
1, 11839, Note_on_c, 9, 41, 0
1, 11839, Note_on_c, 9, 36, 0
1, 11840, Note_on_c, 9, 41, 95
1, 11840, Note_on_c, 9, 36, 92
1, 11999, Note_on_c, 9, 41, 0
1, 11999, Note_on_c, 9, 36, 0
1, 12000, Note_on_c, 9, 38, 105
1, 12319, Note_on_c, 9, 38, 0
1, 12320, Note_on_c, 9, 45, 79
1, 12479, Note_on_c, 9, 45, 0
1, 12480, Note_on_c, 9, 41, 95
1, 12480, Note_on_c, 9, 36, 92
1, 12799, Note_on_c, 9, 41, 0
1, 12799, Note_on_c, 9, 36, 0
1, 12800, Note_on_c, 9, 41, 95
1, 12800, Note_on_c, 9, 36, 92
1, 12959, Note_on_c, 9, 41, 0
1, 12959, Note_on_c, 9, 36, 0
1, 12960, Note_on_c, 9, 38, 105
1, 12960, Note_on_c, 9, 39, 116
1, 13279, Note_on_c, 9, 38, 0
1, 13279, Note_on_c, 9, 39, 0
1, 13280, Note_on_c, 9, 45, 79
1, 13280, Note_on_c, 9, 39, 116
1, 13439, Note_on_c, 9, 45, 0
1, 13439, Note_on_c, 9, 39, 0
1, 13440, Note_on_c, 9, 41, 95
1, 13440, Note_on_c, 9, 36, 92
1, 13759, Note_on_c, 9, 41, 0
1, 13759, Note_on_c, 9, 36, 0
1, 13760, Note_on_c, 9, 41, 95
1, 13760, Note_on_c, 9, 36, 92
1, 13919, Note_on_c, 9, 41, 0
1, 13919, Note_on_c, 9, 36, 0
1, 13920, Note_on_c, 9, 38, 105
1, 14239, Note_on_c, 9, 38, 0
1, 14240, Note_on_c, 9, 45, 79
1, 14399, Note_on_c, 9, 45, 0
1, 14400, Note_on_c, 9, 41, 95
1, 14400, Note_on_c, 9, 36, 92
1, 14719, Note_on_c, 9, 41, 0
1, 14719, Note_on_c, 9, 36, 0
1, 14720, Note_on_c, 9, 41, 95
1, 14720, Note_on_c, 9, 36, 92
1, 14879, Note_on_c, 9, 41, 0
1, 14879, Note_on_c, 9, 36, 0
1, 14880, Note_on_c, 9, 38, 105
1, 14880, Note_on_c, 9, 39, 116
1, 15199, Note_on_c, 9, 38, 0
1, 15199, Note_on_c, 9, 39, 0
1, 15200, Note_on_c, 9, 45, 79
1, 15200, Note_on_c, 9, 39, 116
1, 15359, Note_on_c, 9, 45, 0
1, 15359, Note_on_c, 9, 39, 0
1, 15360, Note_on_c, 9, 41, 95
1, 15360, Note_on_c, 9, 36, 92
1, 15679, Note_on_c, 9, 41, 0
1, 15679, Note_on_c, 9, 36, 0
1, 15680, Note_on_c, 9, 41, 95
1, 15680, Note_on_c, 9, 36, 92
1, 15839, Note_on_c, 9, 41, 0
1, 15839, Note_on_c, 9, 36, 0
1, 15840, Note_on_c, 9, 38, 105
1, 16159, Note_on_c, 9, 38, 0
1, 16160, Note_on_c, 9, 45, 79
1, 16319, Note_on_c, 9, 45, 0
1, 16320, Note_on_c, 9, 41, 95
1, 16320, Note_on_c, 9, 36, 92
1, 16639, Note_on_c, 9, 41, 0
1, 16639, Note_on_c, 9, 36, 0
1, 16640, Note_on_c, 9, 41, 95
1, 16640, Note_on_c, 9, 36, 92
1, 16799, Note_on_c, 9, 41, 0
1, 16799, Note_on_c, 9, 36, 0
1, 16800, Note_on_c, 9, 38, 105
1, 16800, Note_on_c, 9, 39, 116
1, 17119, Note_on_c, 9, 38, 0
1, 17119, Note_on_c, 9, 39, 0
1, 17120, Note_on_c, 9, 45, 79
1, 17120, Note_on_c, 9, 39, 116
1, 17279, Note_on_c, 9, 45, 0
1, 17279, Note_on_c, 9, 39, 0
1, 17280, Note_on_c, 9, 41, 95
1, 17280, Note_on_c, 9, 36, 92
1, 17599, Note_on_c, 9, 41, 0
1, 17599, Note_on_c, 9, 36, 0
1, 17600, Note_on_c, 9, 41, 95
1, 17600, Note_on_c, 9, 36, 92
1, 17759, Note_on_c, 9, 41, 0
1, 17759, Note_on_c, 9, 36, 0
1, 17760, Note_on_c, 9, 38, 105
1, 18079, Note_on_c, 9, 38, 0
1, 18080, Note_on_c, 9, 45, 79
1, 18239, Note_on_c, 9, 45, 0
1, 18240, Note_on_c, 9, 41, 95
1, 18240, Note_on_c, 9, 36, 92
1, 18559, Note_on_c, 9, 41, 0
1, 18559, Note_on_c, 9, 36, 0
1, 18560, Note_on_c, 9, 41, 95
1, 18560, Note_on_c, 9, 36, 92
1, 18719, Note_on_c, 9, 41, 0
1, 18719, Note_on_c, 9, 36, 0
1, 18720, Note_on_c, 9, 38, 105
1, 18720, Note_on_c, 9, 39, 116
1, 19039, Note_on_c, 9, 38, 0
1, 19039, Note_on_c, 9, 39, 0
1, 19040, Note_on_c, 9, 45, 79
1, 19040, Note_on_c, 9, 39, 116
1, 19199, Note_on_c, 9, 45, 0
1, 19199, Note_on_c, 9, 39, 0
1, 19200, Note_on_c, 9, 41, 95
1, 19200, Note_on_c, 9, 36, 92
1, 19519, Note_on_c, 9, 41, 0
1, 19519, Note_on_c, 9, 36, 0
1, 19520, Note_on_c, 9, 41, 95
1, 19520, Note_on_c, 9, 36, 92
1, 19679, Note_on_c, 9, 41, 0
1, 19679, Note_on_c, 9, 36, 0
1, 19680, Note_on_c, 9, 38, 105
1, 19999, Note_on_c, 9, 38, 0
1, 20000, Note_on_c, 9, 45, 79
1, 20159, Note_on_c, 9, 45, 0
1, 20160, Note_on_c, 9, 41, 95
1, 20160, Note_on_c, 9, 36, 92
1, 20479, Note_on_c, 9, 41, 0
1, 20479, Note_on_c, 9, 36, 0
1, 20480, Note_on_c, 9, 41, 95
1, 20480, Note_on_c, 9, 36, 92
1, 20639, Note_on_c, 9, 41, 0
1, 20639, Note_on_c, 9, 36, 0
1, 20640, Note_on_c, 9, 38, 105
1, 20640, Note_on_c, 9, 39, 116
1, 20959, Note_on_c, 9, 38, 0
1, 20959, Note_on_c, 9, 39, 0
1, 20960, Note_on_c, 9, 45, 79
1, 20960, Note_on_c, 9, 39, 116
1, 21119, Note_on_c, 9, 45, 0
1, 21119, Note_on_c, 9, 39, 0
1, 21120, Note_on_c, 9, 41, 95
1, 21120, Note_on_c, 9, 36, 92
1, 21439, Note_on_c, 9, 41, 0
1, 21439, Note_on_c, 9, 36, 0
1, 21440, Note_on_c, 9, 41, 95
1, 21440, Note_on_c, 9, 36, 92
1, 21599, Note_on_c, 9, 41, 0
1, 21599, Note_on_c, 9, 36, 0
1, 21600, Note_on_c, 9, 38, 105
1, 21919, Note_on_c, 9, 38, 0
1, 21920, Note_on_c, 9, 45, 79
1, 22079, Note_on_c, 9, 45, 0
1, 22080, Note_on_c, 9, 41, 95
1, 22080, Note_on_c, 9, 36, 92
1, 22399, Note_on_c, 9, 41, 0
1, 22399, Note_on_c, 9, 36, 0
1, 22400, Note_on_c, 9, 41, 95
1, 22400, Note_on_c, 9, 36, 92
1, 22559, Note_on_c, 9, 41, 0
1, 22559, Note_on_c, 9, 36, 0
1, 22560, Note_on_c, 9, 38, 105
1, 22560, Note_on_c, 9, 39, 116
1, 22879, Note_on_c, 9, 38, 0
1, 22879, Note_on_c, 9, 39, 0
1, 22880, Note_on_c, 9, 45, 79
1, 22880, Note_on_c, 9, 39, 116
1, 23039, Note_on_c, 9, 45, 0
1, 23039, Note_on_c, 9, 39, 0
1, 23040, Note_on_c, 9, 41, 95
1, 23040, Note_on_c, 9, 36, 92
1, 23359, Note_on_c, 9, 41, 0
1, 23359, Note_on_c, 9, 36, 0
1, 23360, Note_on_c, 9, 41, 95
1, 23360, Note_on_c, 9, 36, 92
1, 23519, Note_on_c, 9, 41, 0
1, 23519, Note_on_c, 9, 36, 0
1, 23520, Note_on_c, 9, 38, 105
1, 23839, Note_on_c, 9, 38, 0
1, 23840, Note_on_c, 9, 45, 79
1, 23999, Note_on_c, 9, 45, 0
1, 24000, Note_on_c, 9, 41, 95
1, 24000, Note_on_c, 9, 36, 92
1, 24319, Note_on_c, 9, 41, 0
1, 24319, Note_on_c, 9, 36, 0
1, 24320, Note_on_c, 9, 41, 95
1, 24320, Note_on_c, 9, 36, 92
1, 24479, Note_on_c, 9, 41, 0
1, 24479, Note_on_c, 9, 36, 0
1, 24480, Note_on_c, 9, 38, 105
1, 24480, Note_on_c, 9, 39, 116
1, 24799, Note_on_c, 9, 38, 0
1, 24799, Note_on_c, 9, 39, 0
1, 24800, Note_on_c, 9, 45, 79
1, 24800, Note_on_c, 9, 39, 116
1, 24959, Note_on_c, 9, 45, 0
1, 24959, Note_on_c, 9, 39, 0
1, 24960, Note_on_c, 9, 41, 95
1, 24960, Note_on_c, 9, 36, 92
1, 25279, Note_on_c, 9, 41, 0
1, 25279, Note_on_c, 9, 36, 0
1, 25280, Note_on_c, 9, 41, 95
1, 25280, Note_on_c, 9, 36, 92
1, 25439, Note_on_c, 9, 41, 0
1, 25439, Note_on_c, 9, 36, 0
1, 25440, Note_on_c, 9, 38, 105
1, 25759, Note_on_c, 9, 38, 0
1, 25760, Note_on_c, 9, 45, 79
1, 25919, Note_on_c, 9, 45, 0
1, 25920, Note_on_c, 9, 41, 95
1, 25920, Note_on_c, 9, 36, 92
1, 26239, Note_on_c, 9, 41, 0
1, 26239, Note_on_c, 9, 36, 0
1, 26240, Note_on_c, 9, 41, 95
1, 26240, Note_on_c, 9, 36, 92
1, 26399, Note_on_c, 9, 41, 0
1, 26399, Note_on_c, 9, 36, 0
1, 26400, Note_on_c, 9, 38, 105
1, 26400, Note_on_c, 9, 39, 116
1, 26719, Note_on_c, 9, 38, 0
1, 26719, Note_on_c, 9, 39, 0
1, 26720, Note_on_c, 9, 45, 79
1, 26720, Note_on_c, 9, 39, 116
1, 26879, Note_on_c, 9, 45, 0
1, 26879, Note_on_c, 9, 39, 0
1, 26880, Note_on_c, 9, 41, 95
1, 26880, Note_on_c, 9, 36, 92
1, 27199, Note_on_c, 9, 41, 0
1, 27199, Note_on_c, 9, 36, 0
1, 27200, Note_on_c, 9, 41, 95
1, 27200, Note_on_c, 9, 36, 92
1, 27359, Note_on_c, 9, 41, 0
1, 27359, Note_on_c, 9, 36, 0
1, 27360, Note_on_c, 9, 38, 105
1, 27679, Note_on_c, 9, 38, 0
1, 27680, Note_on_c, 9, 45, 79
1, 27839, Note_on_c, 9, 45, 0
1, 27840, Note_on_c, 9, 41, 95
1, 27840, Note_on_c, 9, 36, 92
1, 28159, Note_on_c, 9, 41, 0
1, 28159, Note_on_c, 9, 36, 0
1, 28160, Note_on_c, 9, 41, 95
1, 28160, Note_on_c, 9, 36, 92
1, 28319, Note_on_c, 9, 41, 0
1, 28319, Note_on_c, 9, 36, 0
1, 28320, Note_on_c, 9, 38, 105
1, 28320, Note_on_c, 9, 39, 116
1, 28639, Note_on_c, 9, 38, 0
1, 28639, Note_on_c, 9, 39, 0
1, 28640, Note_on_c, 9, 45, 79
1, 28640, Note_on_c, 9, 39, 116
1, 28799, Note_on_c, 9, 45, 0
1, 28799, Note_on_c, 9, 39, 0
1, 28800, Note_on_c, 9, 41, 95
1, 28800, Note_on_c, 9, 36, 92
1, 29119, Note_on_c, 9, 41, 0
1, 29119, Note_on_c, 9, 36, 0
1, 29120, Note_on_c, 9, 41, 95
1, 29120, Note_on_c, 9, 36, 92
1, 29279, Note_on_c, 9, 41, 0
1, 29279, Note_on_c, 9, 36, 0
1, 29280, Note_on_c, 9, 38, 105
1, 29599, Note_on_c, 9, 38, 0
1, 29600, Note_on_c, 9, 45, 79
1, 29759, Note_on_c, 9, 45, 0
1, 29760, Note_on_c, 9, 41, 95
1, 29760, Note_on_c, 9, 36, 92
1, 30079, Note_on_c, 9, 41, 0
1, 30079, Note_on_c, 9, 36, 0
1, 30080, Note_on_c, 9, 41, 95
1, 30080, Note_on_c, 9, 36, 92
1, 30239, Note_on_c, 9, 41, 0
1, 30239, Note_on_c, 9, 36, 0
1, 30240, Note_on_c, 9, 38, 105
1, 30240, Note_on_c, 9, 39, 116
1, 30559, Note_on_c, 9, 38, 0
1, 30559, Note_on_c, 9, 39, 0
1, 30560, Note_on_c, 9, 45, 79
1, 30560, Note_on_c, 9, 39, 116
1, 30719, Note_on_c, 9, 45, 0
1, 30719, Note_on_c, 9, 39, 0
1, 30720, Note_on_c, 9, 41, 95
1, 30720, Note_on_c, 9, 36, 92
1, 31039, Note_on_c, 9, 41, 0
1, 31039, Note_on_c, 9, 36, 0
1, 31040, Note_on_c, 9, 41, 95
1, 31040, Note_on_c, 9, 36, 92
1, 31199, Note_on_c, 9, 41, 0
1, 31199, Note_on_c, 9, 36, 0
1, 31200, Note_on_c, 9, 38, 105
1, 31519, Note_on_c, 9, 38, 0
1, 31520, Note_on_c, 9, 45, 79
1, 31679, Note_on_c, 9, 45, 0
1, 31680, Note_on_c, 9, 41, 95
1, 31680, Note_on_c, 9, 36, 92
1, 31999, Note_on_c, 9, 41, 0
1, 31999, Note_on_c, 9, 36, 0
1, 32000, Note_on_c, 9, 41, 95
1, 32000, Note_on_c, 9, 36, 92
1, 32159, Note_on_c, 9, 41, 0
1, 32159, Note_on_c, 9, 36, 0
1, 32160, Note_on_c, 9, 38, 105
1, 32160, Note_on_c, 9, 39, 116
1, 32479, Note_on_c, 9, 38, 0
1, 32479, Note_on_c, 9, 39, 0
1, 32480, Note_on_c, 9, 45, 79
1, 32480, Note_on_c, 9, 39, 116
1, 32639, Note_on_c, 9, 45, 0
1, 32639, Note_on_c, 9, 39, 0
1, 32640, Note_on_c, 9, 41, 95
1, 32640, Note_on_c, 9, 36, 92
1, 32959, Note_on_c, 9, 41, 0
1, 32959, Note_on_c, 9, 36, 0
1, 32960, Note_on_c, 9, 41, 95
1, 32960, Note_on_c, 9, 36, 92
1, 33119, Note_on_c, 9, 41, 0
1, 33119, Note_on_c, 9, 36, 0
1, 33120, Note_on_c, 9, 38, 105
1, 33439, Note_on_c, 9, 38, 0
1, 33440, Note_on_c, 9, 45, 79
1, 33599, Note_on_c, 9, 45, 0
1, 33600, Note_on_c, 9, 41, 95
1, 33600, Note_on_c, 9, 36, 92
1, 33919, Note_on_c, 9, 41, 0
1, 33919, Note_on_c, 9, 36, 0
1, 33920, Note_on_c, 9, 41, 95
1, 33920, Note_on_c, 9, 36, 92
1, 34079, Note_on_c, 9, 41, 0
1, 34079, Note_on_c, 9, 36, 0
1, 34080, Note_on_c, 9, 38, 105
1, 34080, Note_on_c, 9, 39, 116
1, 34399, Note_on_c, 9, 38, 0
1, 34399, Note_on_c, 9, 39, 0
1, 34400, Note_on_c, 9, 45, 79
1, 34400, Note_on_c, 9, 39, 116
1, 34559, Note_on_c, 9, 45, 0
1, 34559, Note_on_c, 9, 39, 0
1, 34560, Note_on_c, 9, 41, 95
1, 34560, Note_on_c, 9, 36, 92
1, 34879, Note_on_c, 9, 41, 0
1, 34879, Note_on_c, 9, 36, 0
1, 34880, Note_on_c, 9, 41, 95
1, 34880, Note_on_c, 9, 36, 92
1, 35039, Note_on_c, 9, 41, 0
1, 35039, Note_on_c, 9, 36, 0
1, 35040, Note_on_c, 9, 38, 105
1, 35359, Note_on_c, 9, 38, 0
1, 35360, Note_on_c, 9, 45, 79
1, 35519, Note_on_c, 9, 45, 0
1, 35520, Note_on_c, 9, 41, 95
1, 35520, Note_on_c, 9, 36, 92
1, 35839, Note_on_c, 9, 41, 0
1, 35839, Note_on_c, 9, 36, 0
1, 35840, Note_on_c, 9, 41, 95
1, 35840, Note_on_c, 9, 36, 92
1, 35999, Note_on_c, 9, 41, 0
1, 35999, Note_on_c, 9, 36, 0
1, 36000, Note_on_c, 9, 38, 105
1, 36000, Note_on_c, 9, 39, 116
1, 36319, Note_on_c, 9, 38, 0
1, 36319, Note_on_c, 9, 39, 0
1, 36320, Note_on_c, 9, 45, 79
1, 36320, Note_on_c, 9, 39, 116
1, 36479, Note_on_c, 9, 45, 0
1, 36479, Note_on_c, 9, 39, 0
1, 36480, Note_on_c, 9, 41, 95
1, 36480, Note_on_c, 9, 36, 92
1, 36799, Note_on_c, 9, 41, 0
1, 36799, Note_on_c, 9, 36, 0
1, 36800, Note_on_c, 9, 41, 95
1, 36800, Note_on_c, 9, 36, 92
1, 36959, Note_on_c, 9, 41, 0
1, 36959, Note_on_c, 9, 36, 0
1, 36960, Note_on_c, 9, 38, 105
1, 37279, Note_on_c, 9, 38, 0
1, 37280, Note_on_c, 9, 45, 79
1, 37439, Note_on_c, 9, 45, 0
1, 37440, Note_on_c, 9, 41, 95
1, 37440, Note_on_c, 9, 36, 92
1, 37759, Note_on_c, 9, 41, 0
1, 37759, Note_on_c, 9, 36, 0
1, 37760, Note_on_c, 9, 41, 95
1, 37760, Note_on_c, 9, 36, 92
1, 37919, Note_on_c, 9, 41, 0
1, 37919, Note_on_c, 9, 36, 0
1, 37920, Note_on_c, 9, 38, 105
1, 37920, Note_on_c, 9, 39, 116
1, 38239, Note_on_c, 9, 38, 0
1, 38239, Note_on_c, 9, 39, 0
1, 38240, Note_on_c, 9, 45, 79
1, 38240, Note_on_c, 9, 39, 116
1, 38399, Note_on_c, 9, 45, 0
1, 38399, Note_on_c, 9, 39, 0
1, 38400, Note_on_c, 9, 36, 92
1, 38719, Note_on_c, 9, 36, 0
1, 38720, Note_on_c, 9, 38, 105
1, 38720, Note_on_c, 9, 40, 116
1, 38720, Note_on_c, 9, 36, 92
1, 38879, Note_on_c, 9, 38, 0
1, 38879, Note_on_c, 9, 40, 0
1, 38879, Note_on_c, 9, 36, 0
1, 38880, Note_on_c, 9, 36, 116
1, 39199, Note_on_c, 9, 36, 0
1, 39200, Note_on_c, 9, 38, 89
1, 39200, Note_on_c, 9, 40, 116
1, 39200, Note_on_c, 9, 36, 116
1, 39359, Note_on_c, 9, 38, 0
1, 39359, Note_on_c, 9, 40, 0
1, 39359, Note_on_c, 9, 36, 0
1, 39360, Note_on_c, 9, 36, 92
1, 39679, Note_on_c, 9, 36, 0
1, 39680, Note_on_c, 9, 38, 126
1, 39680, Note_on_c, 9, 40, 116
1, 39680, Note_on_c, 9, 36, 92
1, 39839, Note_on_c, 9, 38, 0
1, 39839, Note_on_c, 9, 40, 0
1, 39839, Note_on_c, 9, 36, 0
1, 39840, Note_on_c, 9, 38, 105
1, 39840, Note_on_c, 9, 49, 88
1, 39855, Note_on_c, 9, 49, 0
1, 40159, Note_on_c, 9, 38, 0
1, 40160, Note_on_c, 9, 38, 126
1, 40160, Note_on_c, 9, 49, 88
1, 40167, Note_on_c, 9, 49, 0
1, 40319, Note_on_c, 9, 38, 0
1, 40320, Note_on_c, 9, 36, 92
1, 40639, Note_on_c, 9, 36, 0
1, 40640, Note_on_c, 9, 36, 92
1, 40799, Note_on_c, 9, 36, 0
1, 40800, Note_on_c, 9, 38, 105
1, 40800, Note_on_c, 9, 40, 116
1, 41119, Note_on_c, 9, 38, 0
1, 41119, Note_on_c, 9, 40, 0
1, 41120, Note_on_c, 9, 41, 116
1, 41279, Note_on_c, 9, 41, 0
1, 41280, Note_on_c, 9, 36, 92
1, 41600, Note_on_c, 9, 41, 116
1, 41759, Note_on_c, 9, 36, 0
1, 41759, Note_on_c, 9, 41, 0
1, 41760, Note_on_c, 9, 38, 105
1, 41760, Note_on_c, 9, 39, 116
1, 42079, Note_on_c, 9, 38, 0
1, 42079, Note_on_c, 9, 39, 0
1, 42080, Note_on_c, 9, 38, 126
1, 42080, Note_on_c, 9, 39, 116
1, 42239, Note_on_c, 9, 38, 0
1, 42239, Note_on_c, 9, 39, 0
1, 42240, Note_on_c, 9, 36, 92
1, 42559, Note_on_c, 9, 36, 0
1, 42560, Note_on_c, 9, 36, 92
1, 42719, Note_on_c, 9, 36, 0
1, 42720, Note_on_c, 9, 38, 105
1, 42720, Note_on_c, 9, 40, 116
1, 43039, Note_on_c, 9, 38, 0
1, 43039, Note_on_c, 9, 40, 0
1, 43040, Note_on_c, 9, 41, 116
1, 43199, Note_on_c, 9, 41, 0
1, 43200, Note_on_c, 9, 36, 92
1, 43520, Note_on_c, 9, 41, 116
1, 43679, Note_on_c, 9, 36, 0
1, 43679, Note_on_c, 9, 41, 0
1, 43680, Note_on_c, 9, 38, 105
1, 43680, Note_on_c, 9, 39, 116
1, 43999, Note_on_c, 9, 38, 0
1, 43999, Note_on_c, 9, 39, 0
1, 44000, Note_on_c, 9, 38, 126
1, 44000, Note_on_c, 9, 39, 116
1, 44159, Note_on_c, 9, 38, 0
1, 44159, Note_on_c, 9, 39, 0
1, 44160, Note_on_c, 9, 36, 92
1, 44479, Note_on_c, 9, 36, 0
1, 44480, Note_on_c, 9, 36, 92
1, 44639, Note_on_c, 9, 36, 0
1, 44640, Note_on_c, 9, 38, 105
1, 44640, Note_on_c, 9, 40, 116
1, 44959, Note_on_c, 9, 38, 0
1, 44959, Note_on_c, 9, 40, 0
1, 44960, Note_on_c, 9, 41, 116
1, 45119, Note_on_c, 9, 41, 0
1, 45120, Note_on_c, 9, 36, 92
1, 45440, Note_on_c, 9, 41, 116
1, 45599, Note_on_c, 9, 36, 0
1, 45599, Note_on_c, 9, 41, 0
1, 45600, Note_on_c, 9, 38, 105
1, 45600, Note_on_c, 9, 39, 116
1, 45919, Note_on_c, 9, 38, 0
1, 45919, Note_on_c, 9, 39, 0
1, 45920, Note_on_c, 9, 38, 126
1, 45920, Note_on_c, 9, 39, 116
1, 46079, Note_on_c, 9, 38, 0
1, 46079, Note_on_c, 9, 39, 0
1, 46080, Note_on_c, 9, 36, 92
1, 46399, Note_on_c, 9, 36, 0
1, 46400, Note_on_c, 9, 36, 92
1, 46559, Note_on_c, 9, 36, 0
1, 46560, Note_on_c, 9, 38, 105
1, 46560, Note_on_c, 9, 40, 116
1, 46879, Note_on_c, 9, 38, 0
1, 46879, Note_on_c, 9, 40, 0
1, 46880, Note_on_c, 9, 41, 116
1, 47039, Note_on_c, 9, 41, 0
1, 47040, Note_on_c, 9, 36, 92
1, 47359, Note_on_c, 9, 36, 0
1, 47360, Note_on_c, 9, 38, 126
1, 47360, Note_on_c, 9, 36, 92
1, 47519, Note_on_c, 9, 38, 0
1, 47519, Note_on_c, 9, 36, 0
1, 47520, Note_on_c, 9, 38, 105
1, 47520, Note_on_c, 9, 39, 116
1, 47839, Note_on_c, 9, 38, 0
1, 47839, Note_on_c, 9, 39, 0
1, 47840, Note_on_c, 9, 38, 126
1, 47840, Note_on_c, 9, 39, 116
1, 47999, Note_on_c, 9, 38, 0
1, 47999, Note_on_c, 9, 39, 0
1, 48000, Note_on_c, 9, 49, 88
1, 48000, Note_on_c, 9, 36, 116
1, 48015, Note_on_c, 9, 49, 0
1, 48319, Note_on_c, 9, 36, 0
1, 48320, Note_on_c, 9, 41, 116
1, 48320, Note_on_c, 9, 36, 116
1, 48479, Note_on_c, 9, 41, 0
1, 48479, Note_on_c, 9, 36, 0
1, 48480, Note_on_c, 9, 38, 126
1, 48480, Note_on_c, 9, 36, 116
1, 48799, Note_on_c, 9, 38, 0
1, 48799, Note_on_c, 9, 36, 0
1, 48800, Note_on_c, 9, 41, 116
1, 48800, Note_on_c, 9, 36, 116
1, 48959, Note_on_c, 9, 41, 0
1, 48959, Note_on_c, 9, 36, 0
1, 48960, Note_on_c, 9, 36, 116
1, 49279, Note_on_c, 9, 36, 0
1, 49280, Note_on_c, 9, 41, 116
1, 49280, Note_on_c, 9, 36, 116
1, 49439, Note_on_c, 9, 41, 0
1, 49439, Note_on_c, 9, 36, 0
1, 49440, Note_on_c, 9, 38, 126
1, 49440, Note_on_c, 9, 36, 116
1, 49759, Note_on_c, 9, 38, 0
1, 49759, Note_on_c, 9, 36, 0
1, 49760, Note_on_c, 9, 41, 116
1, 49760, Note_on_c, 9, 36, 116
1, 49919, Note_on_c, 9, 41, 0
1, 49919, Note_on_c, 9, 36, 0
1, 49920, Note_on_c, 9, 36, 116
1, 50239, Note_on_c, 9, 36, 0
1, 50240, Note_on_c, 9, 41, 116
1, 50240, Note_on_c, 9, 36, 116
1, 50399, Note_on_c, 9, 41, 0
1, 50399, Note_on_c, 9, 36, 0
1, 50400, Note_on_c, 9, 38, 126
1, 50400, Note_on_c, 9, 36, 116
1, 50719, Note_on_c, 9, 38, 0
1, 50719, Note_on_c, 9, 36, 0
1, 50720, Note_on_c, 9, 41, 116
1, 50720, Note_on_c, 9, 36, 116
1, 50879, Note_on_c, 9, 41, 0
1, 50879, Note_on_c, 9, 36, 0
1, 50880, Note_on_c, 9, 36, 116
1, 51199, Note_on_c, 9, 36, 0
1, 51200, Note_on_c, 9, 41, 116
1, 51200, Note_on_c, 9, 36, 116
1, 51359, Note_on_c, 9, 41, 0
1, 51359, Note_on_c, 9, 36, 0
1, 51360, Note_on_c, 9, 38, 126
1, 51360, Note_on_c, 9, 36, 116
1, 51679, Note_on_c, 9, 38, 0
1, 51679, Note_on_c, 9, 36, 0
1, 51680, Note_on_c, 9, 41, 116
1, 51680, Note_on_c, 9, 36, 116
1, 51839, Note_on_c, 9, 41, 0
1, 51839, Note_on_c, 9, 36, 0
1, 51840, Note_on_c, 9, 36, 116
1, 52159, Note_on_c, 9, 36, 0
1, 52160, Note_on_c, 9, 41, 116
1, 52160, Note_on_c, 9, 36, 116
1, 52319, Note_on_c, 9, 41, 0
1, 52319, Note_on_c, 9, 36, 0
1, 52320, Note_on_c, 9, 38, 126
1, 52320, Note_on_c, 9, 36, 116
1, 52639, Note_on_c, 9, 38, 0
1, 52639, Note_on_c, 9, 36, 0
1, 52640, Note_on_c, 9, 41, 116
1, 52640, Note_on_c, 9, 36, 116
1, 52799, Note_on_c, 9, 41, 0
1, 52799, Note_on_c, 9, 36, 0
1, 52800, Note_on_c, 9, 36, 116
1, 53119, Note_on_c, 9, 36, 0
1, 53120, Note_on_c, 9, 41, 116
1, 53120, Note_on_c, 9, 36, 116
1, 53279, Note_on_c, 9, 41, 0
1, 53279, Note_on_c, 9, 36, 0
1, 53280, Note_on_c, 9, 38, 126
1, 53280, Note_on_c, 9, 36, 116
1, 53599, Note_on_c, 9, 38, 0
1, 53599, Note_on_c, 9, 36, 0
1, 53600, Note_on_c, 9, 41, 116
1, 53600, Note_on_c, 9, 36, 116
1, 53759, Note_on_c, 9, 41, 0
1, 53759, Note_on_c, 9, 36, 0
1, 53760, Note_on_c, 9, 36, 116
1, 54079, Note_on_c, 9, 36, 0
1, 54080, Note_on_c, 9, 41, 116
1, 54080, Note_on_c, 9, 36, 116
1, 54239, Note_on_c, 9, 41, 0
1, 54239, Note_on_c, 9, 36, 0
1, 54240, Note_on_c, 9, 38, 126
1, 54240, Note_on_c, 9, 36, 116
1, 54559, Note_on_c, 9, 38, 0
1, 54559, Note_on_c, 9, 36, 0
1, 54560, Note_on_c, 9, 41, 116
1, 54560, Note_on_c, 9, 36, 116
1, 54719, Note_on_c, 9, 41, 0
1, 54719, Note_on_c, 9, 36, 0
1, 54720, Note_on_c, 9, 36, 116
1, 55039, Note_on_c, 9, 36, 0
1, 55040, Note_on_c, 9, 41, 116
1, 55040, Note_on_c, 9, 36, 116
1, 55199, Note_on_c, 9, 41, 0
1, 55199, Note_on_c, 9, 36, 0
1, 55200, Note_on_c, 9, 38, 126
1, 55200, Note_on_c, 9, 36, 116
1, 55519, Note_on_c, 9, 38, 0
1, 55519, Note_on_c, 9, 36, 0
1, 55520, Note_on_c, 9, 41, 116
1, 55520, Note_on_c, 9, 36, 116
1, 55679, Note_on_c, 9, 41, 0
1, 55679, Note_on_c, 9, 36, 0
1, 55680, Note_on_c, 9, 36, 116
1, 55999, Note_on_c, 9, 36, 0
1, 56000, Note_on_c, 9, 41, 116
1, 56000, Note_on_c, 9, 36, 116
1, 56159, Note_on_c, 9, 41, 0
1, 56159, Note_on_c, 9, 36, 0
1, 56160, Note_on_c, 9, 38, 126
1, 56160, Note_on_c, 9, 36, 116
1, 56479, Note_on_c, 9, 38, 0
1, 56479, Note_on_c, 9, 36, 0
1, 56480, Note_on_c, 9, 41, 116
1, 56480, Note_on_c, 9, 36, 116
1, 56639, Note_on_c, 9, 41, 0
1, 56639, Note_on_c, 9, 36, 0
1, 56640, Note_on_c, 9, 36, 116
1, 56959, Note_on_c, 9, 36, 0
1, 56960, Note_on_c, 9, 41, 116
1, 56960, Note_on_c, 9, 36, 116
1, 57119, Note_on_c, 9, 41, 0
1, 57119, Note_on_c, 9, 36, 0
1, 57120, Note_on_c, 9, 38, 126
1, 57120, Note_on_c, 9, 36, 116
1, 57439, Note_on_c, 9, 38, 0
1, 57439, Note_on_c, 9, 36, 0
1, 57440, Note_on_c, 9, 41, 116
1, 57440, Note_on_c, 9, 36, 116
1, 57599, Note_on_c, 9, 41, 0
1, 57599, Note_on_c, 9, 36, 0
1, 57600, Note_on_c, 9, 36, 116
1, 57919, Note_on_c, 9, 36, 0
1, 57920, Note_on_c, 9, 41, 116
1, 57920, Note_on_c, 9, 36, 116
1, 58079, Note_on_c, 9, 41, 0
1, 58079, Note_on_c, 9, 36, 0
1, 58080, Note_on_c, 9, 38, 126
1, 58080, Note_on_c, 9, 36, 116
1, 58399, Note_on_c, 9, 38, 0
1, 58399, Note_on_c, 9, 36, 0
1, 58400, Note_on_c, 9, 41, 116
1, 58400, Note_on_c, 9, 36, 116
1, 58559, Note_on_c, 9, 41, 0
1, 58559, Note_on_c, 9, 36, 0
1, 58560, Note_on_c, 9, 36, 116
1, 58879, Note_on_c, 9, 36, 0
1, 58880, Note_on_c, 9, 41, 116
1, 58880, Note_on_c, 9, 36, 116
1, 59039, Note_on_c, 9, 41, 0
1, 59039, Note_on_c, 9, 36, 0
1, 59040, Note_on_c, 9, 38, 126
1, 59040, Note_on_c, 9, 36, 116
1, 59359, Note_on_c, 9, 38, 0
1, 59359, Note_on_c, 9, 36, 0
1, 59360, Note_on_c, 9, 41, 116
1, 59360, Note_on_c, 9, 36, 116
1, 59519, Note_on_c, 9, 41, 0
1, 59519, Note_on_c, 9, 36, 0
1, 59520, Note_on_c, 9, 36, 116
1, 59839, Note_on_c, 9, 36, 0
1, 59840, Note_on_c, 9, 41, 116
1, 59840, Note_on_c, 9, 36, 116
1, 59999, Note_on_c, 9, 41, 0
1, 59999, Note_on_c, 9, 36, 0
1, 60000, Note_on_c, 9, 38, 126
1, 60000, Note_on_c, 9, 36, 116
1, 60319, Note_on_c, 9, 38, 0
1, 60319, Note_on_c, 9, 36, 0
1, 60320, Note_on_c, 9, 41, 116
1, 60320, Note_on_c, 9, 36, 116
1, 60479, Note_on_c, 9, 41, 0
1, 60479, Note_on_c, 9, 36, 0
1, 60480, Note_on_c, 9, 36, 116
1, 60799, Note_on_c, 9, 36, 0
1, 60800, Note_on_c, 9, 41, 116
1, 60800, Note_on_c, 9, 36, 116
1, 60959, Note_on_c, 9, 41, 0
1, 60959, Note_on_c, 9, 36, 0
1, 60960, Note_on_c, 9, 38, 126
1, 60960, Note_on_c, 9, 36, 116
1, 61279, Note_on_c, 9, 38, 0
1, 61279, Note_on_c, 9, 36, 0
1, 61280, Note_on_c, 9, 41, 116
1, 61280, Note_on_c, 9, 36, 116
1, 61439, Note_on_c, 9, 41, 0
1, 61439, Note_on_c, 9, 36, 0
1, 61440, Note_on_c, 9, 36, 92
1, 61759, Note_on_c, 9, 36, 0
1, 61760, Note_on_c, 9, 38, 105
1, 61760, Note_on_c, 9, 36, 92
1, 61919, Note_on_c, 9, 38, 0
1, 61919, Note_on_c, 9, 36, 0
1, 61920, Note_on_c, 9, 36, 116
1, 62239, Note_on_c, 9, 36, 0
1, 62240, Note_on_c, 9, 38, 89
1, 62240, Note_on_c, 9, 40, 116
1, 62240, Note_on_c, 9, 36, 116
1, 62399, Note_on_c, 9, 38, 0
1, 62399, Note_on_c, 9, 40, 0
1, 62399, Note_on_c, 9, 36, 0
1, 62400, Note_on_c, 9, 36, 92
1, 62719, Note_on_c, 9, 36, 0
1, 62720, Note_on_c, 9, 38, 126
1, 62720, Note_on_c, 9, 40, 116
1, 62720, Note_on_c, 9, 36, 92
1, 62879, Note_on_c, 9, 38, 0
1, 62879, Note_on_c, 9, 40, 0
1, 62879, Note_on_c, 9, 36, 0
1, 62880, Note_on_c, 9, 38, 105
1, 62880, Note_on_c, 9, 49, 88
1, 62895, Note_on_c, 9, 49, 0
1, 63199, Note_on_c, 9, 38, 0
1, 63200, Note_on_c, 9, 38, 126
1, 63200, Note_on_c, 9, 49, 88
1, 63207, Note_on_c, 9, 49, 0
1, 63359, Note_on_c, 9, 38, 0
1, 63360, Note_on_c, 9, 36, 116
1, 63679, Note_on_c, 9, 36, 0
1, 63680, Note_on_c, 9, 41, 116
1, 63680, Note_on_c, 9, 36, 116
1, 63839, Note_on_c, 9, 41, 0
1, 63839, Note_on_c, 9, 36, 0
1, 63840, Note_on_c, 9, 38, 126
1, 63840, Note_on_c, 9, 36, 116
1, 64159, Note_on_c, 9, 38, 0
1, 64159, Note_on_c, 9, 36, 0
1, 64160, Note_on_c, 9, 41, 116
1, 64160, Note_on_c, 9, 36, 116
1, 64319, Note_on_c, 9, 41, 0
1, 64319, Note_on_c, 9, 36, 0
1, 64320, Note_on_c, 9, 36, 116
1, 64639, Note_on_c, 9, 36, 0
1, 64640, Note_on_c, 9, 41, 116
1, 64640, Note_on_c, 9, 36, 116
1, 64799, Note_on_c, 9, 41, 0
1, 64799, Note_on_c, 9, 36, 0
1, 64800, Note_on_c, 9, 38, 126
1, 64800, Note_on_c, 9, 36, 116
1, 65119, Note_on_c, 9, 38, 0
1, 65119, Note_on_c, 9, 36, 0
1, 65120, Note_on_c, 9, 41, 116
1, 65120, Note_on_c, 9, 36, 116
1, 65279, Note_on_c, 9, 41, 0
1, 65279, Note_on_c, 9, 36, 0
1, 65280, Note_on_c, 9, 36, 116
1, 65599, Note_on_c, 9, 36, 0
1, 65600, Note_on_c, 9, 41, 116
1, 65600, Note_on_c, 9, 36, 116
1, 65759, Note_on_c, 9, 41, 0
1, 65759, Note_on_c, 9, 36, 0
1, 65760, Note_on_c, 9, 38, 126
1, 65760, Note_on_c, 9, 36, 116
1, 66079, Note_on_c, 9, 38, 0
1, 66079, Note_on_c, 9, 36, 0
1, 66080, Note_on_c, 9, 41, 116
1, 66080, Note_on_c, 9, 36, 116
1, 66239, Note_on_c, 9, 41, 0
1, 66239, Note_on_c, 9, 36, 0
1, 66240, Note_on_c, 9, 36, 116
1, 66559, Note_on_c, 9, 36, 0
1, 66560, Note_on_c, 9, 41, 116
1, 66560, Note_on_c, 9, 36, 116
1, 66719, Note_on_c, 9, 41, 0
1, 66719, Note_on_c, 9, 36, 0
1, 66720, Note_on_c, 9, 38, 126
1, 66720, Note_on_c, 9, 36, 116
1, 67039, Note_on_c, 9, 38, 0
1, 67039, Note_on_c, 9, 36, 0
1, 67040, Note_on_c, 9, 41, 116
1, 67040, Note_on_c, 9, 36, 116
1, 67199, Note_on_c, 9, 41, 0
1, 67199, Note_on_c, 9, 36, 0
1, 67200, Note_on_c, 9, 36, 116
1, 67519, Note_on_c, 9, 36, 0
1, 67520, Note_on_c, 9, 41, 116
1, 67520, Note_on_c, 9, 36, 116
1, 67679, Note_on_c, 9, 41, 0
1, 67679, Note_on_c, 9, 36, 0
1, 67680, Note_on_c, 9, 38, 126
1, 67680, Note_on_c, 9, 36, 116
1, 67999, Note_on_c, 9, 38, 0
1, 67999, Note_on_c, 9, 36, 0
1, 68000, Note_on_c, 9, 41, 116
1, 68000, Note_on_c, 9, 36, 116
1, 68159, Note_on_c, 9, 41, 0
1, 68159, Note_on_c, 9, 36, 0
1, 68160, Note_on_c, 9, 36, 116
1, 68479, Note_on_c, 9, 36, 0
1, 68480, Note_on_c, 9, 41, 116
1, 68480, Note_on_c, 9, 36, 116
1, 68639, Note_on_c, 9, 41, 0
1, 68639, Note_on_c, 9, 36, 0
1, 68640, Note_on_c, 9, 38, 126
1, 68640, Note_on_c, 9, 36, 116
1, 68959, Note_on_c, 9, 38, 0
1, 68959, Note_on_c, 9, 36, 0
1, 68960, Note_on_c, 9, 41, 116
1, 68960, Note_on_c, 9, 36, 116
1, 69119, Note_on_c, 9, 41, 0
1, 69119, Note_on_c, 9, 36, 0
1, 69120, Note_on_c, 9, 36, 116
1, 69439, Note_on_c, 9, 36, 0
1, 69440, Note_on_c, 9, 41, 116
1, 69440, Note_on_c, 9, 36, 116
1, 69599, Note_on_c, 9, 41, 0
1, 69599, Note_on_c, 9, 36, 0
1, 69600, Note_on_c, 9, 38, 126
1, 69600, Note_on_c, 9, 36, 116
1, 69919, Note_on_c, 9, 38, 0
1, 69919, Note_on_c, 9, 36, 0
1, 69920, Note_on_c, 9, 41, 116
1, 69920, Note_on_c, 9, 36, 116
1, 70079, Note_on_c, 9, 41, 0
1, 70079, Note_on_c, 9, 36, 0
1, 70080, Note_on_c, 9, 36, 116
1, 70399, Note_on_c, 9, 36, 0
1, 70400, Note_on_c, 9, 41, 116
1, 70400, Note_on_c, 9, 36, 116
1, 70559, Note_on_c, 9, 41, 0
1, 70559, Note_on_c, 9, 36, 0
1, 70560, Note_on_c, 9, 38, 126
1, 70560, Note_on_c, 9, 36, 116
1, 70879, Note_on_c, 9, 38, 0
1, 70879, Note_on_c, 9, 36, 0
1, 70880, Note_on_c, 9, 41, 116
1, 70880, Note_on_c, 9, 36, 116
1, 71039, Note_on_c, 9, 41, 0
1, 71039, Note_on_c, 9, 36, 0
1, 71040, Note_on_c, 9, 36, 116
1, 71359, Note_on_c, 9, 36, 0
1, 71360, Note_on_c, 9, 41, 116
1, 71360, Note_on_c, 9, 36, 116
1, 71519, Note_on_c, 9, 41, 0
1, 71519, Note_on_c, 9, 36, 0
1, 71520, Note_on_c, 9, 38, 126
1, 71520, Note_on_c, 9, 36, 116
1, 71839, Note_on_c, 9, 38, 0
1, 71839, Note_on_c, 9, 36, 0
1, 71840, Note_on_c, 9, 41, 116
1, 71840, Note_on_c, 9, 36, 116
1, 71999, Note_on_c, 9, 41, 0
1, 71999, Note_on_c, 9, 36, 0
1, 72000, Note_on_c, 9, 36, 116
1, 72319, Note_on_c, 9, 36, 0
1, 72320, Note_on_c, 9, 41, 116
1, 72320, Note_on_c, 9, 36, 116
1, 72479, Note_on_c, 9, 41, 0
1, 72479, Note_on_c, 9, 36, 0
1, 72480, Note_on_c, 9, 38, 126
1, 72480, Note_on_c, 9, 36, 116
1, 72799, Note_on_c, 9, 38, 0
1, 72799, Note_on_c, 9, 36, 0
1, 72800, Note_on_c, 9, 41, 116
1, 72800, Note_on_c, 9, 36, 116
1, 72959, Note_on_c, 9, 41, 0
1, 72959, Note_on_c, 9, 36, 0
1, 72960, Note_on_c, 9, 36, 116
1, 73279, Note_on_c, 9, 36, 0
1, 73280, Note_on_c, 9, 41, 116
1, 73280, Note_on_c, 9, 36, 116
1, 73439, Note_on_c, 9, 41, 0
1, 73439, Note_on_c, 9, 36, 0
1, 73440, Note_on_c, 9, 38, 126
1, 73440, Note_on_c, 9, 36, 116
1, 73759, Note_on_c, 9, 38, 0
1, 73759, Note_on_c, 9, 36, 0
1, 73760, Note_on_c, 9, 41, 116
1, 73760, Note_on_c, 9, 36, 116
1, 73919, Note_on_c, 9, 41, 0
1, 73919, Note_on_c, 9, 36, 0
1, 73920, Note_on_c, 9, 36, 116
1, 74239, Note_on_c, 9, 36, 0
1, 74240, Note_on_c, 9, 41, 116
1, 74240, Note_on_c, 9, 36, 116
1, 74399, Note_on_c, 9, 41, 0
1, 74399, Note_on_c, 9, 36, 0
1, 74400, Note_on_c, 9, 38, 126
1, 74400, Note_on_c, 9, 36, 116
1, 74719, Note_on_c, 9, 38, 0
1, 74719, Note_on_c, 9, 36, 0
1, 74720, Note_on_c, 9, 41, 116
1, 74720, Note_on_c, 9, 36, 116
1, 74879, Note_on_c, 9, 41, 0
1, 74879, Note_on_c, 9, 36, 0
1, 74880, Note_on_c, 9, 36, 116
1, 75199, Note_on_c, 9, 36, 0
1, 75200, Note_on_c, 9, 41, 116
1, 75200, Note_on_c, 9, 36, 116
1, 75359, Note_on_c, 9, 41, 0
1, 75359, Note_on_c, 9, 36, 0
1, 75360, Note_on_c, 9, 38, 126
1, 75360, Note_on_c, 9, 36, 116
1, 75679, Note_on_c, 9, 38, 0
1, 75679, Note_on_c, 9, 36, 0
1, 75680, Note_on_c, 9, 41, 116
1, 75680, Note_on_c, 9, 36, 116
1, 75839, Note_on_c, 9, 41, 0
1, 75839, Note_on_c, 9, 36, 0
1, 75840, Note_on_c, 9, 36, 116
1, 76159, Note_on_c, 9, 36, 0
1, 76160, Note_on_c, 9, 41, 116
1, 76160, Note_on_c, 9, 36, 116
1, 76319, Note_on_c, 9, 41, 0
1, 76319, Note_on_c, 9, 36, 0
1, 76320, Note_on_c, 9, 38, 126
1, 76320, Note_on_c, 9, 36, 116
1, 76639, Note_on_c, 9, 38, 0
1, 76639, Note_on_c, 9, 36, 0
1, 76640, Note_on_c, 9, 41, 116
1, 76640, Note_on_c, 9, 36, 116
1, 76799, Note_on_c, 9, 41, 0
1, 76799, Note_on_c, 9, 36, 0
1, 76800, Note_on_c, 9, 36, 92
1, 77119, Note_on_c, 9, 36, 0
1, 77120, Note_on_c, 9, 38, 105
1, 77120, Note_on_c, 9, 36, 92
1, 77279, Note_on_c, 9, 38, 0
1, 77279, Note_on_c, 9, 36, 0
1, 77280, Note_on_c, 9, 36, 116
1, 77599, Note_on_c, 9, 36, 0
1, 77600, Note_on_c, 9, 38, 89
1, 77600, Note_on_c, 9, 40, 116
1, 77600, Note_on_c, 9, 36, 116
1, 77759, Note_on_c, 9, 38, 0
1, 77759, Note_on_c, 9, 40, 0
1, 77759, Note_on_c, 9, 36, 0
1, 77760, Note_on_c, 9, 36, 92
1, 78079, Note_on_c, 9, 36, 0
1, 78080, Note_on_c, 9, 38, 126
1, 78080, Note_on_c, 9, 40, 116
1, 78080, Note_on_c, 9, 36, 92
1, 78239, Note_on_c, 9, 38, 0
1, 78239, Note_on_c, 9, 40, 0
1, 78239, Note_on_c, 9, 36, 0
1, 78240, Note_on_c, 9, 38, 105
1, 78240, Note_on_c, 9, 49, 88
1, 78255, Note_on_c, 9, 49, 0
1, 78559, Note_on_c, 9, 38, 0
1, 78560, Note_on_c, 9, 38, 126
1, 78560, Note_on_c, 9, 49, 88
1, 78567, Note_on_c, 9, 49, 0
1, 78719, Note_on_c, 9, 38, 0
1, 78720, Note_on_c, 9, 36, 92
1, 79039, Note_on_c, 9, 36, 0
1, 79040, Note_on_c, 9, 36, 92
1, 79199, Note_on_c, 9, 36, 0
1, 79200, Note_on_c, 9, 38, 105
1, 79200, Note_on_c, 9, 40, 116
1, 79519, Note_on_c, 9, 38, 0
1, 79519, Note_on_c, 9, 40, 0
1, 79520, Note_on_c, 9, 41, 116
1, 79679, Note_on_c, 9, 41, 0
1, 79680, Note_on_c, 9, 36, 92
1, 80000, Note_on_c, 9, 41, 116
1, 80159, Note_on_c, 9, 36, 0
1, 80159, Note_on_c, 9, 41, 0
1, 80160, Note_on_c, 9, 38, 105
1, 80160, Note_on_c, 9, 39, 116
1, 80479, Note_on_c, 9, 38, 0
1, 80479, Note_on_c, 9, 39, 0
1, 80480, Note_on_c, 9, 38, 126
1, 80480, Note_on_c, 9, 39, 116
1, 80639, Note_on_c, 9, 38, 0
1, 80639, Note_on_c, 9, 39, 0
1, 80640, Note_on_c, 9, 36, 92
1, 80959, Note_on_c, 9, 36, 0
1, 80960, Note_on_c, 9, 36, 92
1, 81119, Note_on_c, 9, 36, 0
1, 81120, Note_on_c, 9, 38, 105
1, 81120, Note_on_c, 9, 40, 116
1, 81439, Note_on_c, 9, 38, 0
1, 81439, Note_on_c, 9, 40, 0
1, 81440, Note_on_c, 9, 41, 116
1, 81599, Note_on_c, 9, 41, 0
1, 81600, Note_on_c, 9, 36, 92
1, 81920, Note_on_c, 9, 41, 116
1, 82079, Note_on_c, 9, 36, 0
1, 82079, Note_on_c, 9, 41, 0
1, 82080, Note_on_c, 9, 38, 105
1, 82080, Note_on_c, 9, 39, 116
1, 82399, Note_on_c, 9, 38, 0
1, 82399, Note_on_c, 9, 39, 0
1, 82400, Note_on_c, 9, 38, 126
1, 82400, Note_on_c, 9, 39, 116
1, 82559, Note_on_c, 9, 38, 0
1, 82559, Note_on_c, 9, 39, 0
1, 82560, Note_on_c, 9, 36, 92
1, 82879, Note_on_c, 9, 36, 0
1, 82880, Note_on_c, 9, 36, 92
1, 83039, Note_on_c, 9, 36, 0
1, 83040, Note_on_c, 9, 38, 105
1, 83040, Note_on_c, 9, 40, 116
1, 83359, Note_on_c, 9, 38, 0
1, 83359, Note_on_c, 9, 40, 0
1, 83360, Note_on_c, 9, 41, 116
1, 83519, Note_on_c, 9, 41, 0
1, 83520, Note_on_c, 9, 36, 92
1, 83840, Note_on_c, 9, 41, 116
1, 83999, Note_on_c, 9, 36, 0
1, 83999, Note_on_c, 9, 41, 0
1, 84000, Note_on_c, 9, 38, 105
1, 84000, Note_on_c, 9, 39, 116
1, 84319, Note_on_c, 9, 38, 0
1, 84319, Note_on_c, 9, 39, 0
1, 84320, Note_on_c, 9, 38, 126
1, 84320, Note_on_c, 9, 39, 116
1, 84479, Note_on_c, 9, 38, 0
1, 84479, Note_on_c, 9, 39, 0
1, 84480, Note_on_c, 9, 36, 92
1, 84799, Note_on_c, 9, 36, 0
1, 84800, Note_on_c, 9, 36, 92
1, 84959, Note_on_c, 9, 36, 0
1, 84960, Note_on_c, 9, 38, 105
1, 84960, Note_on_c, 9, 40, 116
1, 85279, Note_on_c, 9, 38, 0
1, 85279, Note_on_c, 9, 40, 0
1, 85280, Note_on_c, 9, 41, 116
1, 85439, Note_on_c, 9, 41, 0
1, 85440, Note_on_c, 9, 36, 92
1, 85759, Note_on_c, 9, 36, 0
1, 85760, Note_on_c, 9, 38, 126
1, 85760, Note_on_c, 9, 36, 92
1, 85919, Note_on_c, 9, 38, 0
1, 85919, Note_on_c, 9, 36, 0
1, 85920, Note_on_c, 9, 38, 105
1, 85920, Note_on_c, 9, 39, 116
1, 86239, Note_on_c, 9, 38, 0
1, 86239, Note_on_c, 9, 39, 0
1, 86240, Note_on_c, 9, 38, 126
1, 86240, Note_on_c, 9, 39, 116
1, 86399, Note_on_c, 9, 38, 0
1, 86399, Note_on_c, 9, 39, 0
1, 86400, Note_on_c, 9, 41, 95
1, 86400, Note_on_c, 9, 49, 88
1, 86400, Note_on_c, 9, 36, 92
1, 86415, Note_on_c, 9, 49, 0
1, 86719, Note_on_c, 9, 41, 0
1, 86719, Note_on_c, 9, 36, 0
1, 86720, Note_on_c, 9, 41, 95
1, 86720, Note_on_c, 9, 36, 92
1, 86879, Note_on_c, 9, 41, 0
1, 86879, Note_on_c, 9, 36, 0
1, 86880, Note_on_c, 9, 38, 105
1, 87199, Note_on_c, 9, 38, 0
1, 87200, Note_on_c, 9, 45, 79
1, 87359, Note_on_c, 9, 45, 0
1, 87360, Note_on_c, 9, 41, 95
1, 87360, Note_on_c, 9, 36, 92
1, 87679, Note_on_c, 9, 41, 0
1, 87679, Note_on_c, 9, 36, 0
1, 87680, Note_on_c, 9, 41, 95
1, 87680, Note_on_c, 9, 36, 92
1, 87839, Note_on_c, 9, 41, 0
1, 87839, Note_on_c, 9, 36, 0
1, 87840, Note_on_c, 9, 38, 105
1, 87840, Note_on_c, 9, 39, 116
1, 88159, Note_on_c, 9, 38, 0
1, 88159, Note_on_c, 9, 39, 0
1, 88160, Note_on_c, 9, 45, 79
1, 88160, Note_on_c, 9, 39, 116
1, 88319, Note_on_c, 9, 45, 0
1, 88319, Note_on_c, 9, 39, 0
1, 88320, Note_on_c, 9, 41, 95
1, 88320, Note_on_c, 9, 36, 92
1, 88639, Note_on_c, 9, 41, 0
1, 88639, Note_on_c, 9, 36, 0
1, 88640, Note_on_c, 9, 41, 95
1, 88640, Note_on_c, 9, 36, 92
1, 88799, Note_on_c, 9, 41, 0
1, 88799, Note_on_c, 9, 36, 0
1, 88800, Note_on_c, 9, 38, 105
1, 89119, Note_on_c, 9, 38, 0
1, 89120, Note_on_c, 9, 45, 79
1, 89279, Note_on_c, 9, 45, 0
1, 89280, Note_on_c, 9, 41, 95
1, 89280, Note_on_c, 9, 36, 92
1, 89599, Note_on_c, 9, 41, 0
1, 89599, Note_on_c, 9, 36, 0
1, 89600, Note_on_c, 9, 41, 95
1, 89600, Note_on_c, 9, 36, 92
1, 89759, Note_on_c, 9, 41, 0
1, 89759, Note_on_c, 9, 36, 0
1, 89760, Note_on_c, 9, 38, 105
1, 89760, Note_on_c, 9, 39, 116
1, 90079, Note_on_c, 9, 38, 0
1, 90079, Note_on_c, 9, 39, 0
1, 90080, Note_on_c, 9, 45, 79
1, 90080, Note_on_c, 9, 39, 116
1, 90239, Note_on_c, 9, 45, 0
1, 90239, Note_on_c, 9, 39, 0
1, 90240, Note_on_c, 9, 41, 95
1, 90240, Note_on_c, 9, 36, 92
1, 90559, Note_on_c, 9, 41, 0
1, 90559, Note_on_c, 9, 36, 0
1, 90560, Note_on_c, 9, 41, 95
1, 90560, Note_on_c, 9, 36, 92
1, 90719, Note_on_c, 9, 41, 0
1, 90719, Note_on_c, 9, 36, 0
1, 90720, Note_on_c, 9, 38, 105
1, 91039, Note_on_c, 9, 38, 0
1, 91040, Note_on_c, 9, 45, 79
1, 91199, Note_on_c, 9, 45, 0
1, 91200, Note_on_c, 9, 41, 95
1, 91200, Note_on_c, 9, 36, 92
1, 91519, Note_on_c, 9, 41, 0
1, 91519, Note_on_c, 9, 36, 0
1, 91520, Note_on_c, 9, 41, 95
1, 91520, Note_on_c, 9, 36, 92
1, 91679, Note_on_c, 9, 41, 0
1, 91679, Note_on_c, 9, 36, 0
1, 91680, Note_on_c, 9, 38, 105
1, 91680, Note_on_c, 9, 39, 116
1, 91999, Note_on_c, 9, 38, 0
1, 91999, Note_on_c, 9, 39, 0
1, 92000, Note_on_c, 9, 45, 79
1, 92000, Note_on_c, 9, 39, 116
1, 92159, Note_on_c, 9, 45, 0
1, 92159, Note_on_c, 9, 39, 0
1, 92160, Note_on_c, 9, 41, 95
1, 92160, Note_on_c, 9, 36, 92
1, 92479, Note_on_c, 9, 41, 0
1, 92479, Note_on_c, 9, 36, 0
1, 92480, Note_on_c, 9, 41, 95
1, 92480, Note_on_c, 9, 36, 92
1, 92639, Note_on_c, 9, 41, 0
1, 92639, Note_on_c, 9, 36, 0
1, 92640, Note_on_c, 9, 38, 105
1, 92959, Note_on_c, 9, 38, 0
1, 92960, Note_on_c, 9, 45, 79
1, 93119, Note_on_c, 9, 45, 0
1, 93120, Note_on_c, 9, 41, 95
1, 93120, Note_on_c, 9, 36, 92
1, 93439, Note_on_c, 9, 41, 0
1, 93439, Note_on_c, 9, 36, 0
1, 93440, Note_on_c, 9, 41, 95
1, 93440, Note_on_c, 9, 36, 92
1, 93599, Note_on_c, 9, 41, 0
1, 93599, Note_on_c, 9, 36, 0
1, 93600, Note_on_c, 9, 38, 105
1, 93600, Note_on_c, 9, 39, 116
1, 93919, Note_on_c, 9, 38, 0
1, 93919, Note_on_c, 9, 39, 0
1, 93920, Note_on_c, 9, 45, 79
1, 93920, Note_on_c, 9, 39, 116
1, 94079, Note_on_c, 9, 45, 0
1, 94079, Note_on_c, 9, 39, 0
1, 94080, Note_on_c, 9, 41, 95
1, 94080, Note_on_c, 9, 36, 92
1, 94399, Note_on_c, 9, 41, 0
1, 94399, Note_on_c, 9, 36, 0
1, 94400, Note_on_c, 9, 41, 95
1, 94400, Note_on_c, 9, 36, 92
1, 94559, Note_on_c, 9, 41, 0
1, 94559, Note_on_c, 9, 36, 0
1, 94560, Note_on_c, 9, 38, 105
1, 94879, Note_on_c, 9, 38, 0
1, 94880, Note_on_c, 9, 45, 79
1, 95039, Note_on_c, 9, 45, 0
1, 95040, Note_on_c, 9, 41, 95
1, 95040, Note_on_c, 9, 36, 92
1, 95359, Note_on_c, 9, 41, 0
1, 95359, Note_on_c, 9, 36, 0
1, 95360, Note_on_c, 9, 41, 95
1, 95360, Note_on_c, 9, 36, 92
1, 95519, Note_on_c, 9, 41, 0
1, 95519, Note_on_c, 9, 36, 0
1, 95520, Note_on_c, 9, 38, 105
1, 95520, Note_on_c, 9, 39, 116
1, 95839, Note_on_c, 9, 38, 0
1, 95839, Note_on_c, 9, 39, 0
1, 95840, Note_on_c, 9, 45, 79
1, 95840, Note_on_c, 9, 39, 116
1, 95999, Note_on_c, 9, 45, 0
1, 95999, Note_on_c, 9, 39, 0
1, 96000, Note_on_c, 9, 41, 95
1, 96000, Note_on_c, 9, 36, 92
1, 96319, Note_on_c, 9, 41, 0
1, 96319, Note_on_c, 9, 36, 0
1, 96320, Note_on_c, 9, 41, 95
1, 96320, Note_on_c, 9, 36, 92
1, 96479, Note_on_c, 9, 41, 0
1, 96479, Note_on_c, 9, 36, 0
1, 96480, Note_on_c, 9, 38, 105
1, 96799, Note_on_c, 9, 38, 0
1, 96800, Note_on_c, 9, 45, 79
1, 96959, Note_on_c, 9, 45, 0
1, 96960, Note_on_c, 9, 41, 95
1, 96960, Note_on_c, 9, 36, 92
1, 97279, Note_on_c, 9, 41, 0
1, 97279, Note_on_c, 9, 36, 0
1, 97280, Note_on_c, 9, 41, 95
1, 97280, Note_on_c, 9, 36, 92
1, 97439, Note_on_c, 9, 41, 0
1, 97439, Note_on_c, 9, 36, 0
1, 97440, Note_on_c, 9, 38, 105
1, 97440, Note_on_c, 9, 39, 116
1, 97759, Note_on_c, 9, 38, 0
1, 97759, Note_on_c, 9, 39, 0
1, 97760, Note_on_c, 9, 45, 79
1, 97760, Note_on_c, 9, 39, 116
1, 97919, Note_on_c, 9, 45, 0
1, 97919, Note_on_c, 9, 39, 0
1, 97920, Note_on_c, 9, 41, 95
1, 97920, Note_on_c, 9, 36, 92
1, 98239, Note_on_c, 9, 41, 0
1, 98239, Note_on_c, 9, 36, 0
1, 98240, Note_on_c, 9, 41, 95
1, 98240, Note_on_c, 9, 36, 92
1, 98399, Note_on_c, 9, 41, 0
1, 98399, Note_on_c, 9, 36, 0
1, 98400, Note_on_c, 9, 38, 105
1, 98719, Note_on_c, 9, 38, 0
1, 98720, Note_on_c, 9, 45, 79
1, 98879, Note_on_c, 9, 45, 0
1, 98880, Note_on_c, 9, 41, 95
1, 98880, Note_on_c, 9, 36, 92
1, 99199, Note_on_c, 9, 41, 0
1, 99199, Note_on_c, 9, 36, 0
1, 99200, Note_on_c, 9, 41, 95
1, 99200, Note_on_c, 9, 36, 92
1, 99359, Note_on_c, 9, 41, 0
1, 99359, Note_on_c, 9, 36, 0
1, 99360, Note_on_c, 9, 38, 105
1, 99360, Note_on_c, 9, 39, 116
1, 99679, Note_on_c, 9, 38, 0
1, 99679, Note_on_c, 9, 39, 0
1, 99680, Note_on_c, 9, 45, 79
1, 99680, Note_on_c, 9, 39, 116
1, 99839, Note_on_c, 9, 45, 0
1, 99839, Note_on_c, 9, 39, 0
1, 99840, Note_on_c, 9, 41, 95
1, 99840, Note_on_c, 9, 36, 92
1, 100159, Note_on_c, 9, 41, 0
1, 100159, Note_on_c, 9, 36, 0
1, 100160, Note_on_c, 9, 41, 95
1, 100160, Note_on_c, 9, 36, 92
1, 100319, Note_on_c, 9, 41, 0
1, 100319, Note_on_c, 9, 36, 0
1, 100320, Note_on_c, 9, 38, 105
1, 100639, Note_on_c, 9, 38, 0
1, 100640, Note_on_c, 9, 45, 79
1, 100799, Note_on_c, 9, 45, 0
1, 100800, Note_on_c, 9, 41, 95
1, 100800, Note_on_c, 9, 36, 92
1, 101119, Note_on_c, 9, 41, 0
1, 101119, Note_on_c, 9, 36, 0
1, 101120, Note_on_c, 9, 41, 95
1, 101120, Note_on_c, 9, 36, 92
1, 101279, Note_on_c, 9, 41, 0
1, 101279, Note_on_c, 9, 36, 0
1, 101280, Note_on_c, 9, 38, 105
1, 101280, Note_on_c, 9, 39, 116
1, 101599, Note_on_c, 9, 38, 0
1, 101599, Note_on_c, 9, 39, 0
1, 101600, Note_on_c, 9, 45, 79
1, 101600, Note_on_c, 9, 39, 116
1, 101759, Note_on_c, 9, 45, 0
1, 101759, Note_on_c, 9, 39, 0
1, 101760, Note_on_c, 9, 41, 95
1, 101760, Note_on_c, 9, 36, 92
1, 102079, Note_on_c, 9, 41, 0
1, 102079, Note_on_c, 9, 36, 0
1, 102080, Note_on_c, 9, 41, 95
1, 102080, Note_on_c, 9, 36, 92
1, 102239, Note_on_c, 9, 41, 0
1, 102239, Note_on_c, 9, 36, 0
1, 102240, Note_on_c, 9, 38, 105
1, 102559, Note_on_c, 9, 38, 0
1, 102560, Note_on_c, 9, 45, 79
1, 102719, Note_on_c, 9, 45, 0
1, 102720, Note_on_c, 9, 41, 95
1, 102720, Note_on_c, 9, 36, 92
1, 103039, Note_on_c, 9, 41, 0
1, 103039, Note_on_c, 9, 36, 0
1, 103040, Note_on_c, 9, 41, 95
1, 103040, Note_on_c, 9, 36, 92
1, 103199, Note_on_c, 9, 41, 0
1, 103199, Note_on_c, 9, 36, 0
1, 103200, Note_on_c, 9, 38, 105
1, 103200, Note_on_c, 9, 39, 116
1, 103519, Note_on_c, 9, 38, 0
1, 103519, Note_on_c, 9, 39, 0
1, 103520, Note_on_c, 9, 45, 79
1, 103520, Note_on_c, 9, 39, 116
1, 103679, Note_on_c, 9, 45, 0
1, 103679, Note_on_c, 9, 39, 0
1, 103680, Note_on_c, 9, 41, 95
1, 103680, Note_on_c, 9, 36, 92
1, 103999, Note_on_c, 9, 41, 0
1, 103999, Note_on_c, 9, 36, 0
1, 104000, Note_on_c, 9, 41, 95
1, 104000, Note_on_c, 9, 36, 92
1, 104159, Note_on_c, 9, 41, 0
1, 104159, Note_on_c, 9, 36, 0
1, 104160, Note_on_c, 9, 38, 105
1, 104479, Note_on_c, 9, 38, 0
1, 104480, Note_on_c, 9, 45, 79
1, 104639, Note_on_c, 9, 45, 0
1, 104640, Note_on_c, 9, 41, 95
1, 104640, Note_on_c, 9, 36, 92
1, 104959, Note_on_c, 9, 41, 0
1, 104959, Note_on_c, 9, 36, 0
1, 104960, Note_on_c, 9, 41, 95
1, 104960, Note_on_c, 9, 36, 92
1, 105119, Note_on_c, 9, 41, 0
1, 105119, Note_on_c, 9, 36, 0
1, 105120, Note_on_c, 9, 38, 105
1, 105120, Note_on_c, 9, 39, 116
1, 105439, Note_on_c, 9, 38, 0
1, 105439, Note_on_c, 9, 39, 0
1, 105440, Note_on_c, 9, 45, 79
1, 105440, Note_on_c, 9, 39, 116
1, 105599, Note_on_c, 9, 45, 0
1, 105599, Note_on_c, 9, 39, 0
1, 105600, Note_on_c, 9, 41, 95
1, 105600, Note_on_c, 9, 36, 92
1, 105919, Note_on_c, 9, 41, 0
1, 105919, Note_on_c, 9, 36, 0
1, 105920, Note_on_c, 9, 41, 95
1, 105920, Note_on_c, 9, 36, 92
1, 106079, Note_on_c, 9, 41, 0
1, 106079, Note_on_c, 9, 36, 0
1, 106080, Note_on_c, 9, 38, 105
1, 106399, Note_on_c, 9, 38, 0
1, 106400, Note_on_c, 9, 45, 79
1, 106559, Note_on_c, 9, 45, 0
1, 106560, Note_on_c, 9, 41, 95
1, 106560, Note_on_c, 9, 36, 92
1, 106879, Note_on_c, 9, 41, 0
1, 106879, Note_on_c, 9, 36, 0
1, 106880, Note_on_c, 9, 41, 95
1, 106880, Note_on_c, 9, 36, 92
1, 107039, Note_on_c, 9, 41, 0
1, 107039, Note_on_c, 9, 36, 0
1, 107040, Note_on_c, 9, 38, 105
1, 107040, Note_on_c, 9, 39, 116
1, 107359, Note_on_c, 9, 38, 0
1, 107359, Note_on_c, 9, 39, 0
1, 107360, Note_on_c, 9, 45, 79
1, 107360, Note_on_c, 9, 39, 116
1, 107519, Note_on_c, 9, 45, 0
1, 107519, Note_on_c, 9, 39, 0
1, 107520, Note_on_c, 9, 41, 95
1, 107520, Note_on_c, 9, 36, 92
1, 107839, Note_on_c, 9, 41, 0
1, 107839, Note_on_c, 9, 36, 0
1, 107840, Note_on_c, 9, 41, 95
1, 107840, Note_on_c, 9, 36, 92
1, 107999, Note_on_c, 9, 41, 0
1, 107999, Note_on_c, 9, 36, 0
1, 108000, Note_on_c, 9, 38, 105
1, 108319, Note_on_c, 9, 38, 0
1, 108320, Note_on_c, 9, 45, 79
1, 108479, Note_on_c, 9, 45, 0
1, 108480, Note_on_c, 9, 41, 95
1, 108480, Note_on_c, 9, 36, 92
1, 108799, Note_on_c, 9, 41, 0
1, 108799, Note_on_c, 9, 36, 0
1, 108800, Note_on_c, 9, 41, 95
1, 108800, Note_on_c, 9, 36, 92
1, 108959, Note_on_c, 9, 41, 0
1, 108959, Note_on_c, 9, 36, 0
1, 108960, Note_on_c, 9, 38, 105
1, 108960, Note_on_c, 9, 39, 116
1, 109279, Note_on_c, 9, 38, 0
1, 109279, Note_on_c, 9, 39, 0
1, 109280, Note_on_c, 9, 45, 79
1, 109280, Note_on_c, 9, 39, 116
1, 109439, Note_on_c, 9, 45, 0
1, 109439, Note_on_c, 9, 39, 0
1, 109440, Note_on_c, 9, 41, 95
1, 109440, Note_on_c, 9, 36, 92
1, 109759, Note_on_c, 9, 41, 0
1, 109759, Note_on_c, 9, 36, 0
1, 109760, Note_on_c, 9, 41, 95
1, 109760, Note_on_c, 9, 36, 92
1, 109919, Note_on_c, 9, 41, 0
1, 109919, Note_on_c, 9, 36, 0
1, 109920, Note_on_c, 9, 38, 105
1, 110239, Note_on_c, 9, 38, 0
1, 110240, Note_on_c, 9, 45, 79
1, 110399, Note_on_c, 9, 45, 0
1, 110400, Note_on_c, 9, 41, 95
1, 110400, Note_on_c, 9, 36, 92
1, 110719, Note_on_c, 9, 41, 0
1, 110719, Note_on_c, 9, 36, 0
1, 110720, Note_on_c, 9, 41, 95
1, 110720, Note_on_c, 9, 36, 92
1, 110879, Note_on_c, 9, 41, 0
1, 110879, Note_on_c, 9, 36, 0
1, 110880, Note_on_c, 9, 38, 105
1, 110880, Note_on_c, 9, 39, 116
1, 111199, Note_on_c, 9, 38, 0
1, 111199, Note_on_c, 9, 39, 0
1, 111200, Note_on_c, 9, 45, 79
1, 111200, Note_on_c, 9, 39, 116
1, 111359, Note_on_c, 9, 45, 0
1, 111359, Note_on_c, 9, 39, 0
1, 111360, Note_on_c, 9, 41, 95
1, 111360, Note_on_c, 9, 36, 92
1, 111679, Note_on_c, 9, 41, 0
1, 111679, Note_on_c, 9, 36, 0
1, 111680, Note_on_c, 9, 41, 95
1, 111680, Note_on_c, 9, 36, 92
1, 111839, Note_on_c, 9, 41, 0
1, 111839, Note_on_c, 9, 36, 0
1, 111840, Note_on_c, 9, 38, 105
1, 112159, Note_on_c, 9, 38, 0
1, 112160, Note_on_c, 9, 45, 79
1, 112319, Note_on_c, 9, 45, 0
1, 112320, Note_on_c, 9, 41, 95
1, 112320, Note_on_c, 9, 36, 92
1, 112639, Note_on_c, 9, 41, 0
1, 112639, Note_on_c, 9, 36, 0
1, 112640, Note_on_c, 9, 41, 95
1, 112640, Note_on_c, 9, 36, 92
1, 112799, Note_on_c, 9, 41, 0
1, 112799, Note_on_c, 9, 36, 0
1, 112800, Note_on_c, 9, 38, 105
1, 112800, Note_on_c, 9, 39, 116
1, 113119, Note_on_c, 9, 38, 0
1, 113119, Note_on_c, 9, 39, 0
1, 113120, Note_on_c, 9, 45, 79
1, 113120, Note_on_c, 9, 39, 116
1, 113279, Note_on_c, 9, 45, 0
1, 113279, Note_on_c, 9, 39, 0
1, 113280, Note_on_c, 9, 41, 95
1, 113280, Note_on_c, 9, 36, 92
1, 113599, Note_on_c, 9, 41, 0
1, 113599, Note_on_c, 9, 36, 0
1, 113600, Note_on_c, 9, 41, 95
1, 113600, Note_on_c, 9, 36, 92
1, 113759, Note_on_c, 9, 41, 0
1, 113759, Note_on_c, 9, 36, 0
1, 113760, Note_on_c, 9, 38, 105
1, 114079, Note_on_c, 9, 38, 0
1, 114080, Note_on_c, 9, 45, 79
1, 114239, Note_on_c, 9, 45, 0
1, 114240, Note_on_c, 9, 41, 95
1, 114240, Note_on_c, 9, 36, 92
1, 114559, Note_on_c, 9, 41, 0
1, 114559, Note_on_c, 9, 36, 0
1, 114560, Note_on_c, 9, 41, 95
1, 114560, Note_on_c, 9, 36, 92
1, 114719, Note_on_c, 9, 41, 0
1, 114719, Note_on_c, 9, 36, 0
1, 114720, Note_on_c, 9, 38, 105
1, 114720, Note_on_c, 9, 39, 116
1, 115039, Note_on_c, 9, 38, 0
1, 115039, Note_on_c, 9, 39, 0
1, 115040, Note_on_c, 9, 45, 79
1, 115040, Note_on_c, 9, 39, 116
1, 115199, Note_on_c, 9, 45, 0
1, 115199, Note_on_c, 9, 39, 0
1, 115200, Note_on_c, 9, 36, 92
1, 115519, Note_on_c, 9, 36, 0
1, 115520, Note_on_c, 9, 38, 105
1, 115520, Note_on_c, 9, 40, 116
1, 115520, Note_on_c, 9, 36, 92
1, 115679, Note_on_c, 9, 38, 0
1, 115679, Note_on_c, 9, 40, 0
1, 115679, Note_on_c, 9, 36, 0
1, 115680, Note_on_c, 9, 36, 116
1, 115999, Note_on_c, 9, 36, 0
1, 116000, Note_on_c, 9, 38, 89
1, 116000, Note_on_c, 9, 40, 116
1, 116000, Note_on_c, 9, 36, 116
1, 116159, Note_on_c, 9, 38, 0
1, 116159, Note_on_c, 9, 40, 0
1, 116159, Note_on_c, 9, 36, 0
1, 116160, Note_on_c, 9, 36, 92
1, 116479, Note_on_c, 9, 36, 0
1, 116480, Note_on_c, 9, 38, 126
1, 116480, Note_on_c, 9, 40, 116
1, 116480, Note_on_c, 9, 36, 92
1, 116639, Note_on_c, 9, 38, 0
1, 116639, Note_on_c, 9, 40, 0
1, 116639, Note_on_c, 9, 36, 0
1, 116640, Note_on_c, 9, 38, 105
1, 116640, Note_on_c, 9, 49, 88
1, 116655, Note_on_c, 9, 49, 0
1, 116959, Note_on_c, 9, 38, 0
1, 116960, Note_on_c, 9, 38, 126
1, 116960, Note_on_c, 9, 49, 88
1, 116967, Note_on_c, 9, 49, 0
1, 117119, Note_on_c, 9, 38, 0
1, 120960, Note_on_c, 9, 41, 116
1, 120960, Note_on_c, 9, 45, 116
1, 121279, Note_on_c, 9, 41, 0
1, 121279, Note_on_c, 9, 45, 0
1, 121280, Note_on_c, 9, 41, 116
1, 121280, Note_on_c, 9, 45, 116
1, 121439, Note_on_c, 9, 41, 0
1, 121439, Note_on_c, 9, 45, 0
1, 121440, Note_on_c, 9, 41, 116
1, 121440, Note_on_c, 9, 45, 116
1, 121759, Note_on_c, 9, 41, 0
1, 121759, Note_on_c, 9, 45, 0
1, 121760, Note_on_c, 9, 41, 116
1, 121760, Note_on_c, 9, 45, 116
1, 121919, Note_on_c, 9, 41, 0
1, 121919, Note_on_c, 9, 45, 0
1, 121920, Note_on_c, 9, 41, 116
1, 121920, Note_on_c, 9, 45, 116
1, 122239, Note_on_c, 9, 41, 0
1, 122239, Note_on_c, 9, 45, 0
1, 122240, Note_on_c, 9, 41, 116
1, 122240, Note_on_c, 9, 45, 116
1, 122399, Note_on_c, 9, 41, 0
1, 122399, Note_on_c, 9, 45, 0
1, 122400, Note_on_c, 9, 41, 116
1, 122400, Note_on_c, 9, 45, 116
1, 122719, Note_on_c, 9, 41, 0
1, 122719, Note_on_c, 9, 45, 0
1, 122720, Note_on_c, 9, 41, 116
1, 122720, Note_on_c, 9, 45, 116
1, 122879, Note_on_c, 9, 41, 0
1, 122879, Note_on_c, 9, 45, 0
1, 122880, Note_on_c, 9, 41, 116
1, 122880, Note_on_c, 9, 45, 116
1, 123199, Note_on_c, 9, 41, 0
1, 123199, Note_on_c, 9, 45, 0
1, 123200, Note_on_c, 9, 41, 116
1, 123200, Note_on_c, 9, 45, 116
1, 123359, Note_on_c, 9, 41, 0
1, 123359, Note_on_c, 9, 45, 0
1, 123360, Note_on_c, 9, 41, 116
1, 123360, Note_on_c, 9, 45, 116
1, 123679, Note_on_c, 9, 41, 0
1, 123679, Note_on_c, 9, 45, 0
1, 123680, Note_on_c, 9, 41, 116
1, 123680, Note_on_c, 9, 45, 116
1, 123839, Note_on_c, 9, 41, 0
1, 123839, Note_on_c, 9, 45, 0
1, 123840, Note_on_c, 9, 41, 116
1, 123840, Note_on_c, 9, 45, 116
1, 124159, Note_on_c, 9, 41, 0
1, 124159, Note_on_c, 9, 45, 0
1, 124160, Note_on_c, 9, 41, 116
1, 124160, Note_on_c, 9, 45, 116
1, 124319, Note_on_c, 9, 41, 0
1, 124319, Note_on_c, 9, 45, 0
1, 124320, Note_on_c, 9, 41, 116
1, 124320, Note_on_c, 9, 45, 116
1, 124639, Note_on_c, 9, 41, 0
1, 124639, Note_on_c, 9, 45, 0
1, 124640, Note_on_c, 9, 41, 116
1, 124640, Note_on_c, 9, 45, 116
1, 124799, Note_on_c, 9, 41, 0
1, 124799, Note_on_c, 9, 45, 0
1, 124800, Note_on_c, 9, 49, 88
1, 124800, Note_on_c, 9, 36, 116
1, 124815, Note_on_c, 9, 49, 0
1, 125119, Note_on_c, 9, 36, 0
1, 125120, Note_on_c, 9, 41, 116
1, 125120, Note_on_c, 9, 36, 116
1, 125279, Note_on_c, 9, 41, 0
1, 125279, Note_on_c, 9, 36, 0
1, 125280, Note_on_c, 9, 38, 126
1, 125280, Note_on_c, 9, 36, 116
1, 125599, Note_on_c, 9, 38, 0
1, 125599, Note_on_c, 9, 36, 0
1, 125600, Note_on_c, 9, 41, 116
1, 125600, Note_on_c, 9, 36, 116
1, 125759, Note_on_c, 9, 41, 0
1, 125759, Note_on_c, 9, 36, 0
1, 125760, Note_on_c, 9, 36, 116
1, 126079, Note_on_c, 9, 36, 0
1, 126080, Note_on_c, 9, 41, 116
1, 126080, Note_on_c, 9, 36, 116
1, 126239, Note_on_c, 9, 41, 0
1, 126239, Note_on_c, 9, 36, 0
1, 126240, Note_on_c, 9, 38, 126
1, 126240, Note_on_c, 9, 36, 116
1, 126559, Note_on_c, 9, 38, 0
1, 126559, Note_on_c, 9, 36, 0
1, 126560, Note_on_c, 9, 41, 116
1, 126560, Note_on_c, 9, 36, 116
1, 126719, Note_on_c, 9, 41, 0
1, 126719, Note_on_c, 9, 36, 0
1, 126720, Note_on_c, 9, 36, 116
1, 127039, Note_on_c, 9, 36, 0
1, 127040, Note_on_c, 9, 41, 116
1, 127040, Note_on_c, 9, 36, 116
1, 127199, Note_on_c, 9, 41, 0
1, 127199, Note_on_c, 9, 36, 0
1, 127200, Note_on_c, 9, 38, 126
1, 127200, Note_on_c, 9, 36, 116
1, 127519, Note_on_c, 9, 38, 0
1, 127519, Note_on_c, 9, 36, 0
1, 127520, Note_on_c, 9, 41, 116
1, 127520, Note_on_c, 9, 36, 116
1, 127679, Note_on_c, 9, 41, 0
1, 127679, Note_on_c, 9, 36, 0
1, 127680, Note_on_c, 9, 36, 116
1, 127999, Note_on_c, 9, 36, 0
1, 128000, Note_on_c, 9, 41, 116
1, 128000, Note_on_c, 9, 36, 116
1, 128159, Note_on_c, 9, 41, 0
1, 128159, Note_on_c, 9, 36, 0
1, 128160, Note_on_c, 9, 38, 126
1, 128160, Note_on_c, 9, 36, 116
1, 128479, Note_on_c, 9, 38, 0
1, 128479, Note_on_c, 9, 36, 0
1, 128480, Note_on_c, 9, 41, 116
1, 128480, Note_on_c, 9, 36, 116
1, 128639, Note_on_c, 9, 41, 0
1, 128639, Note_on_c, 9, 36, 0
1, 128640, Note_on_c, 9, 36, 116
1, 128959, Note_on_c, 9, 36, 0
1, 128960, Note_on_c, 9, 41, 116
1, 128960, Note_on_c, 9, 36, 116
1, 129119, Note_on_c, 9, 41, 0
1, 129119, Note_on_c, 9, 36, 0
1, 129120, Note_on_c, 9, 38, 126
1, 129120, Note_on_c, 9, 36, 116
1, 129439, Note_on_c, 9, 38, 0
1, 129439, Note_on_c, 9, 36, 0
1, 129440, Note_on_c, 9, 41, 116
1, 129440, Note_on_c, 9, 36, 116
1, 129599, Note_on_c, 9, 41, 0
1, 129599, Note_on_c, 9, 36, 0
1, 129600, Note_on_c, 9, 36, 116
1, 129919, Note_on_c, 9, 36, 0
1, 129920, Note_on_c, 9, 41, 116
1, 129920, Note_on_c, 9, 36, 116
1, 130079, Note_on_c, 9, 41, 0
1, 130079, Note_on_c, 9, 36, 0
1, 130080, Note_on_c, 9, 38, 126
1, 130080, Note_on_c, 9, 36, 116
1, 130399, Note_on_c, 9, 38, 0
1, 130399, Note_on_c, 9, 36, 0
1, 130400, Note_on_c, 9, 41, 116
1, 130400, Note_on_c, 9, 36, 116
1, 130559, Note_on_c, 9, 41, 0
1, 130559, Note_on_c, 9, 36, 0
1, 130560, Note_on_c, 9, 36, 116
1, 130879, Note_on_c, 9, 36, 0
1, 130880, Note_on_c, 9, 41, 116
1, 130880, Note_on_c, 9, 36, 116
1, 131039, Note_on_c, 9, 41, 0
1, 131039, Note_on_c, 9, 36, 0
1, 131040, Note_on_c, 9, 38, 126
1, 131040, Note_on_c, 9, 36, 116
1, 131359, Note_on_c, 9, 38, 0
1, 131359, Note_on_c, 9, 36, 0
1, 131360, Note_on_c, 9, 41, 116
1, 131360, Note_on_c, 9, 36, 116
1, 131519, Note_on_c, 9, 41, 0
1, 131519, Note_on_c, 9, 36, 0
1, 131520, Note_on_c, 9, 36, 116
1, 131839, Note_on_c, 9, 36, 0
1, 131840, Note_on_c, 9, 41, 116
1, 131840, Note_on_c, 9, 36, 116
1, 131999, Note_on_c, 9, 41, 0
1, 131999, Note_on_c, 9, 36, 0
1, 132000, Note_on_c, 9, 38, 126
1, 132000, Note_on_c, 9, 36, 116
1, 132319, Note_on_c, 9, 38, 0
1, 132319, Note_on_c, 9, 36, 0
1, 132320, Note_on_c, 9, 41, 116
1, 132320, Note_on_c, 9, 36, 116
1, 132479, Note_on_c, 9, 41, 0
1, 132479, Note_on_c, 9, 36, 0
1, 132480, Note_on_c, 9, 36, 116
1, 132799, Note_on_c, 9, 36, 0
1, 132800, Note_on_c, 9, 41, 116
1, 132800, Note_on_c, 9, 36, 116
1, 132959, Note_on_c, 9, 41, 0
1, 132959, Note_on_c, 9, 36, 0
1, 132960, Note_on_c, 9, 38, 126
1, 132960, Note_on_c, 9, 36, 116
1, 133279, Note_on_c, 9, 38, 0
1, 133279, Note_on_c, 9, 36, 0
1, 133280, Note_on_c, 9, 41, 116
1, 133280, Note_on_c, 9, 36, 116
1, 133439, Note_on_c, 9, 41, 0
1, 133439, Note_on_c, 9, 36, 0
1, 133440, Note_on_c, 9, 36, 116
1, 133759, Note_on_c, 9, 36, 0
1, 133760, Note_on_c, 9, 41, 116
1, 133760, Note_on_c, 9, 36, 116
1, 133919, Note_on_c, 9, 41, 0
1, 133919, Note_on_c, 9, 36, 0
1, 133920, Note_on_c, 9, 38, 126
1, 133920, Note_on_c, 9, 36, 116
1, 134239, Note_on_c, 9, 38, 0
1, 134239, Note_on_c, 9, 36, 0
1, 134240, Note_on_c, 9, 41, 116
1, 134240, Note_on_c, 9, 36, 116
1, 134399, Note_on_c, 9, 41, 0
1, 134399, Note_on_c, 9, 36, 0
1, 134400, Note_on_c, 9, 36, 116
1, 134719, Note_on_c, 9, 36, 0
1, 134720, Note_on_c, 9, 41, 116
1, 134720, Note_on_c, 9, 36, 116
1, 134879, Note_on_c, 9, 41, 0
1, 134879, Note_on_c, 9, 36, 0
1, 134880, Note_on_c, 9, 38, 126
1, 134880, Note_on_c, 9, 36, 116
1, 135199, Note_on_c, 9, 38, 0
1, 135199, Note_on_c, 9, 36, 0
1, 135200, Note_on_c, 9, 41, 116
1, 135200, Note_on_c, 9, 36, 116
1, 135359, Note_on_c, 9, 41, 0
1, 135359, Note_on_c, 9, 36, 0
1, 135360, Note_on_c, 9, 36, 116
1, 135679, Note_on_c, 9, 36, 0
1, 135680, Note_on_c, 9, 41, 116
1, 135680, Note_on_c, 9, 36, 116
1, 135839, Note_on_c, 9, 41, 0
1, 135839, Note_on_c, 9, 36, 0
1, 135840, Note_on_c, 9, 38, 126
1, 135840, Note_on_c, 9, 36, 116
1, 136159, Note_on_c, 9, 38, 0
1, 136159, Note_on_c, 9, 36, 0
1, 136160, Note_on_c, 9, 41, 116
1, 136160, Note_on_c, 9, 36, 116
1, 136319, Note_on_c, 9, 41, 0
1, 136319, Note_on_c, 9, 36, 0
1, 136320, Note_on_c, 9, 36, 116
1, 136639, Note_on_c, 9, 36, 0
1, 136640, Note_on_c, 9, 41, 116
1, 136640, Note_on_c, 9, 36, 116
1, 136799, Note_on_c, 9, 41, 0
1, 136799, Note_on_c, 9, 36, 0
1, 136800, Note_on_c, 9, 38, 126
1, 136800, Note_on_c, 9, 36, 116
1, 137119, Note_on_c, 9, 38, 0
1, 137119, Note_on_c, 9, 36, 0
1, 137120, Note_on_c, 9, 41, 116
1, 137120, Note_on_c, 9, 36, 116
1, 137279, Note_on_c, 9, 41, 0
1, 137279, Note_on_c, 9, 36, 0
1, 137280, Note_on_c, 9, 36, 116
1, 137599, Note_on_c, 9, 36, 0
1, 137600, Note_on_c, 9, 41, 116
1, 137600, Note_on_c, 9, 36, 116
1, 137759, Note_on_c, 9, 41, 0
1, 137759, Note_on_c, 9, 36, 0
1, 137760, Note_on_c, 9, 38, 126
1, 137760, Note_on_c, 9, 36, 116
1, 138079, Note_on_c, 9, 38, 0
1, 138079, Note_on_c, 9, 36, 0
1, 138080, Note_on_c, 9, 41, 116
1, 138080, Note_on_c, 9, 36, 116
1, 138239, Note_on_c, 9, 41, 0
1, 138239, Note_on_c, 9, 36, 0
1, 138240, Note_on_c, 9, 36, 92
1, 138559, Note_on_c, 9, 36, 0
1, 138560, Note_on_c, 9, 38, 105
1, 138560, Note_on_c, 9, 36, 92
1, 138719, Note_on_c, 9, 38, 0
1, 138719, Note_on_c, 9, 36, 0
1, 138720, Note_on_c, 9, 36, 116
1, 139039, Note_on_c, 9, 36, 0
1, 139040, Note_on_c, 9, 38, 89
1, 139040, Note_on_c, 9, 40, 116
1, 139040, Note_on_c, 9, 36, 116
1, 139199, Note_on_c, 9, 38, 0
1, 139199, Note_on_c, 9, 40, 0
1, 139199, Note_on_c, 9, 36, 0
1, 139200, Note_on_c, 9, 36, 92
1, 139519, Note_on_c, 9, 36, 0
1, 139520, Note_on_c, 9, 38, 126
1, 139520, Note_on_c, 9, 40, 116
1, 139520, Note_on_c, 9, 36, 92
1, 139679, Note_on_c, 9, 38, 0
1, 139679, Note_on_c, 9, 40, 0
1, 139679, Note_on_c, 9, 36, 0
1, 139680, Note_on_c, 9, 38, 105
1, 139680, Note_on_c, 9, 49, 88
1, 139695, Note_on_c, 9, 49, 0
1, 139999, Note_on_c, 9, 38, 0
1, 140000, Note_on_c, 9, 38, 126
1, 140000, Note_on_c, 9, 49, 88
1, 140007, Note_on_c, 9, 49, 0
1, 140159, Note_on_c, 9, 38, 0
1, 140160, Note_on_c, 9, 36, 116
1, 140479, Note_on_c, 9, 36, 0
1, 140480, Note_on_c, 9, 41, 116
1, 140480, Note_on_c, 9, 36, 116
1, 140639, Note_on_c, 9, 41, 0
1, 140639, Note_on_c, 9, 36, 0
1, 140640, Note_on_c, 9, 38, 126
1, 140640, Note_on_c, 9, 36, 116
1, 140959, Note_on_c, 9, 38, 0
1, 140959, Note_on_c, 9, 36, 0
1, 140960, Note_on_c, 9, 41, 116
1, 140960, Note_on_c, 9, 36, 116
1, 141119, Note_on_c, 9, 41, 0
1, 141119, Note_on_c, 9, 36, 0
1, 141120, Note_on_c, 9, 36, 116
1, 141439, Note_on_c, 9, 36, 0
1, 141440, Note_on_c, 9, 41, 116
1, 141440, Note_on_c, 9, 36, 116
1, 141599, Note_on_c, 9, 41, 0
1, 141599, Note_on_c, 9, 36, 0
1, 141600, Note_on_c, 9, 38, 126
1, 141600, Note_on_c, 9, 36, 116
1, 141919, Note_on_c, 9, 38, 0
1, 141919, Note_on_c, 9, 36, 0
1, 141920, Note_on_c, 9, 41, 116
1, 141920, Note_on_c, 9, 36, 116
1, 142079, Note_on_c, 9, 41, 0
1, 142079, Note_on_c, 9, 36, 0
1, 142080, Note_on_c, 9, 36, 116
1, 142399, Note_on_c, 9, 36, 0
1, 142400, Note_on_c, 9, 41, 116
1, 142400, Note_on_c, 9, 36, 116
1, 142559, Note_on_c, 9, 41, 0
1, 142559, Note_on_c, 9, 36, 0
1, 142560, Note_on_c, 9, 38, 126
1, 142560, Note_on_c, 9, 36, 116
1, 142879, Note_on_c, 9, 38, 0
1, 142879, Note_on_c, 9, 36, 0
1, 142880, Note_on_c, 9, 41, 116
1, 142880, Note_on_c, 9, 36, 116
1, 143039, Note_on_c, 9, 41, 0
1, 143039, Note_on_c, 9, 36, 0
1, 143040, Note_on_c, 9, 36, 116
1, 143359, Note_on_c, 9, 36, 0
1, 143360, Note_on_c, 9, 41, 116
1, 143360, Note_on_c, 9, 36, 116
1, 143519, Note_on_c, 9, 41, 0
1, 143519, Note_on_c, 9, 36, 0
1, 143520, Note_on_c, 9, 38, 126
1, 143520, Note_on_c, 9, 36, 116
1, 143839, Note_on_c, 9, 38, 0
1, 143839, Note_on_c, 9, 36, 0
1, 143840, Note_on_c, 9, 41, 116
1, 143840, Note_on_c, 9, 36, 116
1, 143999, Note_on_c, 9, 41, 0
1, 143999, Note_on_c, 9, 36, 0
1, 144000, Note_on_c, 9, 36, 116
1, 144319, Note_on_c, 9, 36, 0
1, 144320, Note_on_c, 9, 41, 116
1, 144320, Note_on_c, 9, 36, 116
1, 144479, Note_on_c, 9, 41, 0
1, 144479, Note_on_c, 9, 36, 0
1, 144480, Note_on_c, 9, 38, 126
1, 144480, Note_on_c, 9, 36, 116
1, 144799, Note_on_c, 9, 38, 0
1, 144799, Note_on_c, 9, 36, 0
1, 144800, Note_on_c, 9, 41, 116
1, 144800, Note_on_c, 9, 36, 116
1, 144959, Note_on_c, 9, 41, 0
1, 144959, Note_on_c, 9, 36, 0
1, 144960, Note_on_c, 9, 36, 116
1, 145279, Note_on_c, 9, 36, 0
1, 145280, Note_on_c, 9, 41, 116
1, 145280, Note_on_c, 9, 36, 116
1, 145439, Note_on_c, 9, 41, 0
1, 145439, Note_on_c, 9, 36, 0
1, 145440, Note_on_c, 9, 38, 126
1, 145440, Note_on_c, 9, 36, 116
1, 145759, Note_on_c, 9, 38, 0
1, 145759, Note_on_c, 9, 36, 0
1, 145760, Note_on_c, 9, 41, 116
1, 145760, Note_on_c, 9, 36, 116
1, 145919, Note_on_c, 9, 41, 0
1, 145919, Note_on_c, 9, 36, 0
1, 145920, Note_on_c, 9, 36, 116
1, 146239, Note_on_c, 9, 36, 0
1, 146240, Note_on_c, 9, 41, 116
1, 146240, Note_on_c, 9, 36, 116
1, 146399, Note_on_c, 9, 41, 0
1, 146399, Note_on_c, 9, 36, 0
1, 146400, Note_on_c, 9, 38, 126
1, 146400, Note_on_c, 9, 36, 116
1, 146719, Note_on_c, 9, 38, 0
1, 146719, Note_on_c, 9, 36, 0
1, 146720, Note_on_c, 9, 41, 116
1, 146720, Note_on_c, 9, 36, 116
1, 146879, Note_on_c, 9, 41, 0
1, 146879, Note_on_c, 9, 36, 0
1, 146880, Note_on_c, 9, 36, 116
1, 147199, Note_on_c, 9, 36, 0
1, 147200, Note_on_c, 9, 41, 116
1, 147200, Note_on_c, 9, 36, 116
1, 147359, Note_on_c, 9, 41, 0
1, 147359, Note_on_c, 9, 36, 0
1, 147360, Note_on_c, 9, 38, 126
1, 147360, Note_on_c, 9, 36, 116
1, 147679, Note_on_c, 9, 38, 0
1, 147679, Note_on_c, 9, 36, 0
1, 147680, Note_on_c, 9, 41, 116
1, 147680, Note_on_c, 9, 36, 116
1, 147839, Note_on_c, 9, 41, 0
1, 147839, Note_on_c, 9, 36, 0
1, 147840, Note_on_c, 9, 36, 116
1, 148159, Note_on_c, 9, 36, 0
1, 148160, Note_on_c, 9, 41, 116
1, 148160, Note_on_c, 9, 36, 116
1, 148319, Note_on_c, 9, 41, 0
1, 148319, Note_on_c, 9, 36, 0
1, 148320, Note_on_c, 9, 38, 126
1, 148320, Note_on_c, 9, 36, 116
1, 148639, Note_on_c, 9, 38, 0
1, 148639, Note_on_c, 9, 36, 0
1, 148640, Note_on_c, 9, 41, 116
1, 148640, Note_on_c, 9, 36, 116
1, 148799, Note_on_c, 9, 41, 0
1, 148799, Note_on_c, 9, 36, 0
1, 148800, Note_on_c, 9, 36, 116
1, 149119, Note_on_c, 9, 36, 0
1, 149120, Note_on_c, 9, 41, 116
1, 149120, Note_on_c, 9, 36, 116
1, 149279, Note_on_c, 9, 41, 0
1, 149279, Note_on_c, 9, 36, 0
1, 149280, Note_on_c, 9, 38, 126
1, 149280, Note_on_c, 9, 36, 116
1, 149599, Note_on_c, 9, 38, 0
1, 149599, Note_on_c, 9, 36, 0
1, 149600, Note_on_c, 9, 41, 116
1, 149600, Note_on_c, 9, 36, 116
1, 149759, Note_on_c, 9, 41, 0
1, 149759, Note_on_c, 9, 36, 0
1, 149760, Note_on_c, 9, 36, 116
1, 150079, Note_on_c, 9, 36, 0
1, 150080, Note_on_c, 9, 41, 116
1, 150080, Note_on_c, 9, 36, 116
1, 150239, Note_on_c, 9, 41, 0
1, 150239, Note_on_c, 9, 36, 0
1, 150240, Note_on_c, 9, 38, 126
1, 150240, Note_on_c, 9, 36, 116
1, 150559, Note_on_c, 9, 38, 0
1, 150559, Note_on_c, 9, 36, 0
1, 150560, Note_on_c, 9, 41, 116
1, 150560, Note_on_c, 9, 36, 116
1, 150719, Note_on_c, 9, 41, 0
1, 150719, Note_on_c, 9, 36, 0
1, 150720, Note_on_c, 9, 36, 116
1, 151039, Note_on_c, 9, 36, 0
1, 151040, Note_on_c, 9, 41, 116
1, 151040, Note_on_c, 9, 36, 116
1, 151199, Note_on_c, 9, 41, 0
1, 151199, Note_on_c, 9, 36, 0
1, 151200, Note_on_c, 9, 38, 126
1, 151200, Note_on_c, 9, 36, 116
1, 151519, Note_on_c, 9, 38, 0
1, 151519, Note_on_c, 9, 36, 0
1, 151520, Note_on_c, 9, 41, 116
1, 151520, Note_on_c, 9, 36, 116
1, 151679, Note_on_c, 9, 41, 0
1, 151679, Note_on_c, 9, 36, 0
1, 151680, Note_on_c, 9, 36, 116
1, 151999, Note_on_c, 9, 36, 0
1, 152000, Note_on_c, 9, 41, 116
1, 152000, Note_on_c, 9, 36, 116
1, 152159, Note_on_c, 9, 41, 0
1, 152159, Note_on_c, 9, 36, 0
1, 152160, Note_on_c, 9, 38, 126
1, 152160, Note_on_c, 9, 36, 116
1, 152479, Note_on_c, 9, 38, 0
1, 152479, Note_on_c, 9, 36, 0
1, 152480, Note_on_c, 9, 41, 116
1, 152480, Note_on_c, 9, 36, 116
1, 152639, Note_on_c, 9, 41, 0
1, 152639, Note_on_c, 9, 36, 0
1, 152640, Note_on_c, 9, 36, 116
1, 152959, Note_on_c, 9, 36, 0
1, 152960, Note_on_c, 9, 41, 116
1, 152960, Note_on_c, 9, 36, 116
1, 153119, Note_on_c, 9, 41, 0
1, 153119, Note_on_c, 9, 36, 0
1, 153120, Note_on_c, 9, 38, 126
1, 153120, Note_on_c, 9, 36, 116
1, 153439, Note_on_c, 9, 38, 0
1, 153439, Note_on_c, 9, 36, 0
1, 153440, Note_on_c, 9, 41, 116
1, 153440, Note_on_c, 9, 36, 116
1, 153599, Note_on_c, 9, 41, 0
1, 153599, Note_on_c, 9, 36, 0
1, 153600, Note_on_c, 9, 36, 92
1, 153919, Note_on_c, 9, 36, 0
1, 153920, Note_on_c, 9, 38, 105
1, 153920, Note_on_c, 9, 36, 92
1, 154079, Note_on_c, 9, 38, 0
1, 154079, Note_on_c, 9, 36, 0
1, 154080, Note_on_c, 9, 36, 116
1, 154399, Note_on_c, 9, 36, 0
1, 154400, Note_on_c, 9, 38, 89
1, 154400, Note_on_c, 9, 40, 116
1, 154400, Note_on_c, 9, 36, 116
1, 154559, Note_on_c, 9, 38, 0
1, 154559, Note_on_c, 9, 40, 0
1, 154559, Note_on_c, 9, 36, 0
1, 154560, Note_on_c, 9, 36, 92
1, 154879, Note_on_c, 9, 36, 0
1, 154880, Note_on_c, 9, 38, 126
1, 154880, Note_on_c, 9, 40, 116
1, 154880, Note_on_c, 9, 36, 92
1, 155039, Note_on_c, 9, 38, 0
1, 155039, Note_on_c, 9, 40, 0
1, 155039, Note_on_c, 9, 36, 0
1, 155040, Note_on_c, 9, 38, 105
1, 155040, Note_on_c, 9, 49, 88
1, 155055, Note_on_c, 9, 49, 0
1, 155359, Note_on_c, 9, 38, 0
1, 155360, Note_on_c, 9, 38, 126
1, 155360, Note_on_c, 9, 49, 88
1, 155367, Note_on_c, 9, 49, 0
1, 155519, Note_on_c, 9, 38, 0
1, 155520, Note_on_c, 9, 36, 92
1, 155839, Note_on_c, 9, 36, 0
1, 155840, Note_on_c, 9, 36, 92
1, 155999, Note_on_c, 9, 36, 0
1, 156000, Note_on_c, 9, 38, 105
1, 156000, Note_on_c, 9, 40, 116
1, 156319, Note_on_c, 9, 38, 0
1, 156319, Note_on_c, 9, 40, 0
1, 156320, Note_on_c, 9, 41, 116
1, 156479, Note_on_c, 9, 41, 0
1, 156480, Note_on_c, 9, 36, 92
1, 156800, Note_on_c, 9, 41, 116
1, 156959, Note_on_c, 9, 36, 0
1, 156959, Note_on_c, 9, 41, 0
1, 156960, Note_on_c, 9, 38, 105
1, 156960, Note_on_c, 9, 39, 116
1, 157279, Note_on_c, 9, 38, 0
1, 157279, Note_on_c, 9, 39, 0
1, 157280, Note_on_c, 9, 38, 126
1, 157280, Note_on_c, 9, 39, 116
1, 157439, Note_on_c, 9, 38, 0
1, 157439, Note_on_c, 9, 39, 0
1, 157440, Note_on_c, 9, 36, 92
1, 157759, Note_on_c, 9, 36, 0
1, 157760, Note_on_c, 9, 36, 92
1, 157919, Note_on_c, 9, 36, 0
1, 157920, Note_on_c, 9, 38, 105
1, 157920, Note_on_c, 9, 40, 116
1, 158239, Note_on_c, 9, 38, 0
1, 158239, Note_on_c, 9, 40, 0
1, 158240, Note_on_c, 9, 41, 116
1, 158399, Note_on_c, 9, 41, 0
1, 158400, Note_on_c, 9, 36, 92
1, 158720, Note_on_c, 9, 41, 116
1, 158879, Note_on_c, 9, 36, 0
1, 158879, Note_on_c, 9, 41, 0
1, 158880, Note_on_c, 9, 38, 105
1, 158880, Note_on_c, 9, 39, 116
1, 159199, Note_on_c, 9, 38, 0
1, 159199, Note_on_c, 9, 39, 0
1, 159200, Note_on_c, 9, 38, 126
1, 159200, Note_on_c, 9, 39, 116
1, 159359, Note_on_c, 9, 38, 0
1, 159359, Note_on_c, 9, 39, 0
1, 159360, Note_on_c, 9, 36, 92
1, 159679, Note_on_c, 9, 36, 0
1, 159680, Note_on_c, 9, 36, 92
1, 159839, Note_on_c, 9, 36, 0
1, 159840, Note_on_c, 9, 38, 105
1, 159840, Note_on_c, 9, 40, 116
1, 160159, Note_on_c, 9, 38, 0
1, 160159, Note_on_c, 9, 40, 0
1, 160160, Note_on_c, 9, 41, 116
1, 160319, Note_on_c, 9, 41, 0
1, 160320, Note_on_c, 9, 36, 92
1, 160640, Note_on_c, 9, 41, 116
1, 160799, Note_on_c, 9, 36, 0
1, 160799, Note_on_c, 9, 41, 0
1, 160800, Note_on_c, 9, 38, 105
1, 160800, Note_on_c, 9, 39, 116
1, 161119, Note_on_c, 9, 38, 0
1, 161119, Note_on_c, 9, 39, 0
1, 161120, Note_on_c, 9, 38, 126
1, 161120, Note_on_c, 9, 39, 116
1, 161279, Note_on_c, 9, 38, 0
1, 161279, Note_on_c, 9, 39, 0
1, 161280, Note_on_c, 9, 36, 92
1, 161599, Note_on_c, 9, 36, 0
1, 161600, Note_on_c, 9, 36, 92
1, 161759, Note_on_c, 9, 36, 0
1, 161760, Note_on_c, 9, 38, 105
1, 161760, Note_on_c, 9, 40, 116
1, 162079, Note_on_c, 9, 38, 0
1, 162079, Note_on_c, 9, 40, 0
1, 162080, Note_on_c, 9, 38, 105
1, 162239, Note_on_c, 9, 38, 0
1, 162240, Note_on_c, 9, 38, 105
1, 162399, Note_on_c, 9, 38, 0
1, 162400, Note_on_c, 9, 38, 105
1, 162559, Note_on_c, 9, 38, 0
1, 162560, Note_on_c, 9, 38, 105
1, 162719, Note_on_c, 9, 38, 0
1, 162720, Note_on_c, 9, 38, 105
1, 162879, Note_on_c, 9, 38, 0
1, 162880, Note_on_c, 9, 38, 105
1, 163039, Note_on_c, 9, 38, 0
1, 163040, Note_on_c, 9, 38, 105
1, 163199, Note_on_c, 9, 38, 0
1, 163200, Note_on_c, 9, 41, 95
1, 163200, Note_on_c, 9, 49, 88
1, 163200, Note_on_c, 9, 36, 92
1, 163215, Note_on_c, 9, 49, 0
1, 163519, Note_on_c, 9, 41, 0
1, 163519, Note_on_c, 9, 36, 0
1, 163520, Note_on_c, 9, 41, 95
1, 163520, Note_on_c, 9, 36, 92
1, 163679, Note_on_c, 9, 41, 0
1, 163679, Note_on_c, 9, 36, 0
1, 163680, Note_on_c, 9, 38, 105
1, 163999, Note_on_c, 9, 38, 0
1, 164000, Note_on_c, 9, 45, 79
1, 164159, Note_on_c, 9, 45, 0
1, 164160, Note_on_c, 9, 41, 95
1, 164160, Note_on_c, 9, 36, 92
1, 164479, Note_on_c, 9, 41, 0
1, 164479, Note_on_c, 9, 36, 0
1, 164480, Note_on_c, 9, 41, 95
1, 164480, Note_on_c, 9, 36, 92
1, 164639, Note_on_c, 9, 41, 0
1, 164639, Note_on_c, 9, 36, 0
1, 164640, Note_on_c, 9, 38, 105
1, 164640, Note_on_c, 9, 39, 116
1, 164959, Note_on_c, 9, 38, 0
1, 164959, Note_on_c, 9, 39, 0
1, 164960, Note_on_c, 9, 45, 79
1, 164960, Note_on_c, 9, 39, 116
1, 165119, Note_on_c, 9, 45, 0
1, 165119, Note_on_c, 9, 39, 0
1, 165120, Note_on_c, 9, 41, 95
1, 165120, Note_on_c, 9, 36, 92
1, 165439, Note_on_c, 9, 41, 0
1, 165439, Note_on_c, 9, 36, 0
1, 165440, Note_on_c, 9, 41, 95
1, 165440, Note_on_c, 9, 36, 92
1, 165599, Note_on_c, 9, 41, 0
1, 165599, Note_on_c, 9, 36, 0
1, 165600, Note_on_c, 9, 38, 105
1, 165919, Note_on_c, 9, 38, 0
1, 165920, Note_on_c, 9, 45, 79
1, 166079, Note_on_c, 9, 45, 0
1, 166080, Note_on_c, 9, 41, 95
1, 166080, Note_on_c, 9, 36, 92
1, 166399, Note_on_c, 9, 41, 0
1, 166399, Note_on_c, 9, 36, 0
1, 166400, Note_on_c, 9, 41, 95
1, 166400, Note_on_c, 9, 36, 92
1, 166559, Note_on_c, 9, 41, 0
1, 166559, Note_on_c, 9, 36, 0
1, 166560, Note_on_c, 9, 38, 105
1, 166560, Note_on_c, 9, 39, 116
1, 166879, Note_on_c, 9, 38, 0
1, 166879, Note_on_c, 9, 39, 0
1, 166880, Note_on_c, 9, 45, 79
1, 166880, Note_on_c, 9, 39, 116
1, 167039, Note_on_c, 9, 45, 0
1, 167039, Note_on_c, 9, 39, 0
1, 167040, Note_on_c, 9, 41, 95
1, 167040, Note_on_c, 9, 36, 92
1, 167359, Note_on_c, 9, 41, 0
1, 167359, Note_on_c, 9, 36, 0
1, 167360, Note_on_c, 9, 41, 95
1, 167360, Note_on_c, 9, 36, 92
1, 167519, Note_on_c, 9, 41, 0
1, 167519, Note_on_c, 9, 36, 0
1, 167520, Note_on_c, 9, 38, 105
1, 167839, Note_on_c, 9, 38, 0
1, 167840, Note_on_c, 9, 45, 79
1, 167999, Note_on_c, 9, 45, 0
1, 168000, Note_on_c, 9, 41, 95
1, 168000, Note_on_c, 9, 36, 92
1, 168319, Note_on_c, 9, 41, 0
1, 168319, Note_on_c, 9, 36, 0
1, 168320, Note_on_c, 9, 41, 95
1, 168320, Note_on_c, 9, 36, 92
1, 168479, Note_on_c, 9, 41, 0
1, 168479, Note_on_c, 9, 36, 0
1, 168480, Note_on_c, 9, 38, 105
1, 168480, Note_on_c, 9, 39, 116
1, 168799, Note_on_c, 9, 38, 0
1, 168799, Note_on_c, 9, 39, 0
1, 168800, Note_on_c, 9, 45, 79
1, 168800, Note_on_c, 9, 39, 116
1, 168959, Note_on_c, 9, 45, 0
1, 168959, Note_on_c, 9, 39, 0
1, 168960, Note_on_c, 9, 41, 95
1, 168960, Note_on_c, 9, 36, 92
1, 169279, Note_on_c, 9, 41, 0
1, 169279, Note_on_c, 9, 36, 0
1, 169280, Note_on_c, 9, 41, 95
1, 169280, Note_on_c, 9, 36, 92
1, 169439, Note_on_c, 9, 41, 0
1, 169439, Note_on_c, 9, 36, 0
1, 169440, Note_on_c, 9, 38, 105
1, 169759, Note_on_c, 9, 38, 0
1, 169760, Note_on_c, 9, 45, 79
1, 169919, Note_on_c, 9, 45, 0
1, 169920, Note_on_c, 9, 41, 95
1, 169920, Note_on_c, 9, 36, 92
1, 170239, Note_on_c, 9, 41, 0
1, 170239, Note_on_c, 9, 36, 0
1, 170240, Note_on_c, 9, 41, 95
1, 170240, Note_on_c, 9, 36, 92
1, 170399, Note_on_c, 9, 41, 0
1, 170399, Note_on_c, 9, 36, 0
1, 170400, Note_on_c, 9, 38, 105
1, 170400, Note_on_c, 9, 39, 116
1, 170719, Note_on_c, 9, 38, 0
1, 170719, Note_on_c, 9, 39, 0
1, 170720, Note_on_c, 9, 45, 79
1, 170720, Note_on_c, 9, 39, 116
1, 170879, Note_on_c, 9, 45, 0
1, 170879, Note_on_c, 9, 39, 0
1, 170880, Note_on_c, 9, 41, 95
1, 170880, Note_on_c, 9, 36, 92
1, 171199, Note_on_c, 9, 41, 0
1, 171199, Note_on_c, 9, 36, 0
1, 171200, Note_on_c, 9, 41, 95
1, 171200, Note_on_c, 9, 36, 92
1, 171359, Note_on_c, 9, 41, 0
1, 171359, Note_on_c, 9, 36, 0
1, 171360, Note_on_c, 9, 38, 105
1, 171679, Note_on_c, 9, 38, 0
1, 171680, Note_on_c, 9, 45, 79
1, 171839, Note_on_c, 9, 45, 0
1, 171840, Note_on_c, 9, 41, 95
1, 171840, Note_on_c, 9, 36, 92
1, 172159, Note_on_c, 9, 41, 0
1, 172159, Note_on_c, 9, 36, 0
1, 172160, Note_on_c, 9, 41, 95
1, 172160, Note_on_c, 9, 36, 92
1, 172319, Note_on_c, 9, 41, 0
1, 172319, Note_on_c, 9, 36, 0
1, 172320, Note_on_c, 9, 38, 105
1, 172320, Note_on_c, 9, 39, 116
1, 172639, Note_on_c, 9, 38, 0
1, 172639, Note_on_c, 9, 39, 0
1, 172640, Note_on_c, 9, 45, 79
1, 172640, Note_on_c, 9, 39, 116
1, 172799, Note_on_c, 9, 45, 0
1, 172799, Note_on_c, 9, 39, 0
1, 172800, Note_on_c, 9, 41, 95
1, 172800, Note_on_c, 9, 36, 92
1, 173119, Note_on_c, 9, 41, 0
1, 173119, Note_on_c, 9, 36, 0
1, 173120, Note_on_c, 9, 41, 95
1, 173120, Note_on_c, 9, 36, 92
1, 173279, Note_on_c, 9, 41, 0
1, 173279, Note_on_c, 9, 36, 0
1, 173280, Note_on_c, 9, 38, 105
1, 173599, Note_on_c, 9, 38, 0
1, 173600, Note_on_c, 9, 45, 79
1, 173759, Note_on_c, 9, 45, 0
1, 173760, Note_on_c, 9, 41, 95
1, 173760, Note_on_c, 9, 36, 92
1, 174079, Note_on_c, 9, 41, 0
1, 174079, Note_on_c, 9, 36, 0
1, 174080, Note_on_c, 9, 41, 95
1, 174080, Note_on_c, 9, 36, 92
1, 174239, Note_on_c, 9, 41, 0
1, 174239, Note_on_c, 9, 36, 0
1, 174240, Note_on_c, 9, 38, 105
1, 174240, Note_on_c, 9, 39, 116
1, 174559, Note_on_c, 9, 38, 0
1, 174559, Note_on_c, 9, 39, 0
1, 174560, Note_on_c, 9, 45, 79
1, 174560, Note_on_c, 9, 39, 116
1, 174719, Note_on_c, 9, 45, 0
1, 174719, Note_on_c, 9, 39, 0
1, 174720, Note_on_c, 9, 41, 95
1, 174720, Note_on_c, 9, 36, 92
1, 175039, Note_on_c, 9, 41, 0
1, 175039, Note_on_c, 9, 36, 0
1, 175040, Note_on_c, 9, 41, 95
1, 175040, Note_on_c, 9, 36, 92
1, 175199, Note_on_c, 9, 41, 0
1, 175199, Note_on_c, 9, 36, 0
1, 175200, Note_on_c, 9, 38, 105
1, 175519, Note_on_c, 9, 38, 0
1, 175520, Note_on_c, 9, 45, 79
1, 175679, Note_on_c, 9, 45, 0
1, 175680, Note_on_c, 9, 41, 95
1, 175680, Note_on_c, 9, 36, 92
1, 175999, Note_on_c, 9, 41, 0
1, 175999, Note_on_c, 9, 36, 0
1, 176000, Note_on_c, 9, 41, 95
1, 176000, Note_on_c, 9, 36, 92
1, 176159, Note_on_c, 9, 41, 0
1, 176159, Note_on_c, 9, 36, 0
1, 176160, Note_on_c, 9, 38, 105
1, 176160, Note_on_c, 9, 39, 116
1, 176479, Note_on_c, 9, 38, 0
1, 176479, Note_on_c, 9, 39, 0
1, 176480, Note_on_c, 9, 45, 79
1, 176480, Note_on_c, 9, 39, 116
1, 176639, Note_on_c, 9, 45, 0
1, 176639, Note_on_c, 9, 39, 0
1, 176640, Note_on_c, 9, 41, 95
1, 176640, Note_on_c, 9, 36, 92
1, 176959, Note_on_c, 9, 41, 0
1, 176959, Note_on_c, 9, 36, 0
1, 176960, Note_on_c, 9, 41, 95
1, 176960, Note_on_c, 9, 36, 92
1, 177119, Note_on_c, 9, 41, 0
1, 177119, Note_on_c, 9, 36, 0
1, 177120, Note_on_c, 9, 38, 105
1, 177439, Note_on_c, 9, 38, 0
1, 177440, Note_on_c, 9, 45, 79
1, 177599, Note_on_c, 9, 45, 0
1, 177600, Note_on_c, 9, 41, 95
1, 177600, Note_on_c, 9, 36, 92
1, 177919, Note_on_c, 9, 41, 0
1, 177919, Note_on_c, 9, 36, 0
1, 177920, Note_on_c, 9, 41, 95
1, 177920, Note_on_c, 9, 36, 92
1, 178079, Note_on_c, 9, 41, 0
1, 178079, Note_on_c, 9, 36, 0
1, 178080, Note_on_c, 9, 38, 105
1, 178080, Note_on_c, 9, 39, 116
1, 178399, Note_on_c, 9, 38, 0
1, 178399, Note_on_c, 9, 39, 0
1, 178400, Note_on_c, 9, 45, 79
1, 178400, Note_on_c, 9, 39, 116
1, 178559, Note_on_c, 9, 45, 0
1, 178559, Note_on_c, 9, 39, 0
1, 178560, Note_on_c, 9, 41, 95
1, 178560, Note_on_c, 9, 36, 92
1, 178879, Note_on_c, 9, 41, 0
1, 178879, Note_on_c, 9, 36, 0
1, 178880, Note_on_c, 9, 41, 95
1, 178880, Note_on_c, 9, 36, 92
1, 179039, Note_on_c, 9, 41, 0
1, 179039, Note_on_c, 9, 36, 0
1, 179040, Note_on_c, 9, 38, 105
1, 179359, Note_on_c, 9, 38, 0
1, 179360, Note_on_c, 9, 45, 79
1, 179519, Note_on_c, 9, 45, 0
1, 179520, Note_on_c, 9, 41, 95
1, 179520, Note_on_c, 9, 36, 92
1, 179839, Note_on_c, 9, 41, 0
1, 179839, Note_on_c, 9, 36, 0
1, 179840, Note_on_c, 9, 41, 95
1, 179840, Note_on_c, 9, 36, 92
1, 179999, Note_on_c, 9, 41, 0
1, 179999, Note_on_c, 9, 36, 0
1, 180000, Note_on_c, 9, 38, 105
1, 180000, Note_on_c, 9, 39, 116
1, 180319, Note_on_c, 9, 38, 0
1, 180319, Note_on_c, 9, 39, 0
1, 180320, Note_on_c, 9, 45, 79
1, 180320, Note_on_c, 9, 39, 116
1, 180479, Note_on_c, 9, 45, 0
1, 180479, Note_on_c, 9, 39, 0
1, 180480, Note_on_c, 9, 41, 95
1, 180480, Note_on_c, 9, 36, 92
1, 180799, Note_on_c, 9, 41, 0
1, 180799, Note_on_c, 9, 36, 0
1, 180800, Note_on_c, 9, 41, 95
1, 180800, Note_on_c, 9, 36, 92
1, 180959, Note_on_c, 9, 41, 0
1, 180959, Note_on_c, 9, 36, 0
1, 180960, Note_on_c, 9, 38, 105
1, 181279, Note_on_c, 9, 38, 0
1, 181280, Note_on_c, 9, 45, 79
1, 181439, Note_on_c, 9, 45, 0
1, 181440, Note_on_c, 9, 41, 95
1, 181440, Note_on_c, 9, 36, 92
1, 181759, Note_on_c, 9, 41, 0
1, 181759, Note_on_c, 9, 36, 0
1, 181760, Note_on_c, 9, 41, 95
1, 181760, Note_on_c, 9, 36, 92
1, 181919, Note_on_c, 9, 41, 0
1, 181919, Note_on_c, 9, 36, 0
1, 181920, Note_on_c, 9, 38, 105
1, 181920, Note_on_c, 9, 39, 116
1, 182239, Note_on_c, 9, 38, 0
1, 182239, Note_on_c, 9, 39, 0
1, 182240, Note_on_c, 9, 45, 79
1, 182240, Note_on_c, 9, 39, 116
1, 182399, Note_on_c, 9, 45, 0
1, 182399, Note_on_c, 9, 39, 0
1, 182400, Note_on_c, 9, 41, 95
1, 182400, Note_on_c, 9, 36, 92
1, 182719, Note_on_c, 9, 41, 0
1, 182719, Note_on_c, 9, 36, 0
1, 182720, Note_on_c, 9, 41, 95
1, 182720, Note_on_c, 9, 36, 92
1, 182879, Note_on_c, 9, 41, 0
1, 182879, Note_on_c, 9, 36, 0
1, 182880, Note_on_c, 9, 38, 105
1, 183199, Note_on_c, 9, 38, 0
1, 183200, Note_on_c, 9, 45, 79
1, 183359, Note_on_c, 9, 45, 0
1, 183360, Note_on_c, 9, 41, 95
1, 183360, Note_on_c, 9, 36, 92
1, 183679, Note_on_c, 9, 41, 0
1, 183679, Note_on_c, 9, 36, 0
1, 183680, Note_on_c, 9, 41, 95
1, 183680, Note_on_c, 9, 36, 92
1, 183839, Note_on_c, 9, 41, 0
1, 183839, Note_on_c, 9, 36, 0
1, 183840, Note_on_c, 9, 38, 105
1, 183840, Note_on_c, 9, 39, 116
1, 184159, Note_on_c, 9, 38, 0
1, 184159, Note_on_c, 9, 39, 0
1, 184160, Note_on_c, 9, 45, 79
1, 184160, Note_on_c, 9, 39, 116
1, 184319, Note_on_c, 9, 45, 0
1, 184319, Note_on_c, 9, 39, 0
1, 184320, Note_on_c, 9, 41, 95
1, 184320, Note_on_c, 9, 36, 92
1, 184639, Note_on_c, 9, 41, 0
1, 184639, Note_on_c, 9, 36, 0
1, 184640, Note_on_c, 9, 41, 95
1, 184640, Note_on_c, 9, 36, 92
1, 184799, Note_on_c, 9, 41, 0
1, 184799, Note_on_c, 9, 36, 0
1, 184800, Note_on_c, 9, 38, 105
1, 185119, Note_on_c, 9, 38, 0
1, 185120, Note_on_c, 9, 45, 79
1, 185279, Note_on_c, 9, 45, 0
1, 185280, Note_on_c, 9, 41, 95
1, 185280, Note_on_c, 9, 36, 92
1, 185599, Note_on_c, 9, 41, 0
1, 185599, Note_on_c, 9, 36, 0
1, 185600, Note_on_c, 9, 41, 95
1, 185600, Note_on_c, 9, 36, 92
1, 185759, Note_on_c, 9, 41, 0
1, 185759, Note_on_c, 9, 36, 0
1, 185760, Note_on_c, 9, 38, 105
1, 185760, Note_on_c, 9, 39, 116
1, 186079, Note_on_c, 9, 38, 0
1, 186079, Note_on_c, 9, 39, 0
1, 186080, Note_on_c, 9, 45, 79
1, 186080, Note_on_c, 9, 39, 116
1, 186239, Note_on_c, 9, 45, 0
1, 186239, Note_on_c, 9, 39, 0
1, 186240, Note_on_c, 9, 41, 95
1, 186240, Note_on_c, 9, 36, 92
1, 186559, Note_on_c, 9, 41, 0
1, 186559, Note_on_c, 9, 36, 0
1, 186560, Note_on_c, 9, 41, 95
1, 186560, Note_on_c, 9, 36, 92
1, 186719, Note_on_c, 9, 41, 0
1, 186719, Note_on_c, 9, 36, 0
1, 186720, Note_on_c, 9, 38, 105
1, 187039, Note_on_c, 9, 38, 0
1, 187040, Note_on_c, 9, 45, 79
1, 187199, Note_on_c, 9, 45, 0
1, 187200, Note_on_c, 9, 41, 95
1, 187200, Note_on_c, 9, 36, 92
1, 187519, Note_on_c, 9, 41, 0
1, 187519, Note_on_c, 9, 36, 0
1, 187520, Note_on_c, 9, 41, 95
1, 187520, Note_on_c, 9, 36, 92
1, 187679, Note_on_c, 9, 41, 0
1, 187679, Note_on_c, 9, 36, 0
1, 187680, Note_on_c, 9, 38, 105
1, 187680, Note_on_c, 9, 39, 116
1, 187999, Note_on_c, 9, 38, 0
1, 187999, Note_on_c, 9, 39, 0
1, 188000, Note_on_c, 9, 45, 79
1, 188000, Note_on_c, 9, 39, 116
1, 188159, Note_on_c, 9, 45, 0
1, 188159, Note_on_c, 9, 39, 0
1, 188160, Note_on_c, 9, 41, 95
1, 188160, Note_on_c, 9, 36, 92
1, 188479, Note_on_c, 9, 41, 0
1, 188479, Note_on_c, 9, 36, 0
1, 188480, Note_on_c, 9, 41, 95
1, 188480, Note_on_c, 9, 36, 92
1, 188639, Note_on_c, 9, 41, 0
1, 188639, Note_on_c, 9, 36, 0
1, 188640, Note_on_c, 9, 38, 105
1, 188959, Note_on_c, 9, 38, 0
1, 188960, Note_on_c, 9, 45, 79
1, 189119, Note_on_c, 9, 45, 0
1, 189120, Note_on_c, 9, 41, 95
1, 189120, Note_on_c, 9, 36, 92
1, 189439, Note_on_c, 9, 41, 0
1, 189439, Note_on_c, 9, 36, 0
1, 189440, Note_on_c, 9, 41, 95
1, 189440, Note_on_c, 9, 36, 92
1, 189599, Note_on_c, 9, 41, 0
1, 189599, Note_on_c, 9, 36, 0
1, 189600, Note_on_c, 9, 38, 105
1, 189600, Note_on_c, 9, 39, 116
1, 189919, Note_on_c, 9, 38, 0
1, 189919, Note_on_c, 9, 39, 0
1, 189920, Note_on_c, 9, 45, 79
1, 189920, Note_on_c, 9, 39, 116
1, 190079, Note_on_c, 9, 45, 0
1, 190079, Note_on_c, 9, 39, 0
1, 190080, Note_on_c, 9, 41, 95
1, 190080, Note_on_c, 9, 36, 92
1, 190399, Note_on_c, 9, 41, 0
1, 190399, Note_on_c, 9, 36, 0
1, 190400, Note_on_c, 9, 41, 95
1, 190400, Note_on_c, 9, 36, 92
1, 190559, Note_on_c, 9, 41, 0
1, 190559, Note_on_c, 9, 36, 0
1, 190560, Note_on_c, 9, 38, 105
1, 190879, Note_on_c, 9, 38, 0
1, 190880, Note_on_c, 9, 45, 79
1, 191039, Note_on_c, 9, 45, 0
1, 191040, Note_on_c, 9, 41, 95
1, 191040, Note_on_c, 9, 36, 92
1, 191359, Note_on_c, 9, 41, 0
1, 191359, Note_on_c, 9, 36, 0
1, 191360, Note_on_c, 9, 41, 95
1, 191360, Note_on_c, 9, 36, 92
1, 191519, Note_on_c, 9, 41, 0
1, 191519, Note_on_c, 9, 36, 0
1, 191520, Note_on_c, 9, 38, 105
1, 191520, Note_on_c, 9, 39, 116
1, 191839, Note_on_c, 9, 38, 0
1, 191839, Note_on_c, 9, 39, 0
1, 191840, Note_on_c, 9, 45, 79
1, 191840, Note_on_c, 9, 39, 116
1, 191999, Note_on_c, 9, 45, 0
1, 191999, Note_on_c, 9, 39, 0
1, 192000, Note_on_c, 9, 36, 92
1, 192320, Note_on_c, 9, 45, 95
1, 192399, Note_on_c, 9, 45, 0
1, 192400, Note_on_c, 9, 45, 116
1, 192479, Note_on_c, 9, 36, 0
1, 192479, Note_on_c, 9, 45, 0
1, 192480, Note_on_c, 9, 45, 95
1, 192639, Note_on_c, 9, 45, 0
1, 192640, Note_on_c, 9, 45, 95
1, 192800, Note_on_c, 9, 43, 95
1, 192959, Note_on_c, 9, 45, 0
1, 192959, Note_on_c, 9, 43, 0
1, 192960, Note_on_c, 9, 43, 95
1, 193119, Note_on_c, 9, 43, 0
1, 193120, Note_on_c, 9, 43, 95
1, 193280, Note_on_c, 9, 41, 95
1, 193439, Note_on_c, 9, 43, 0
1, 193439, Note_on_c, 9, 41, 0
1, 193440, Note_on_c, 9, 38, 105
1, 193440, Note_on_c, 9, 49, 88
1, 193455, Note_on_c, 9, 49, 0
1, 193759, Note_on_c, 9, 38, 0
1, 193760, Note_on_c, 9, 38, 126
1, 193760, Note_on_c, 9, 49, 88
1, 193767, Note_on_c, 9, 49, 0
1, 193919, Note_on_c, 9, 38, 0
1, 201600, Note_on_c, 9, 36, 92
1, 201919, Note_on_c, 9, 36, 0
1, 201920, Note_on_c, 9, 36, 92
1, 202079, Note_on_c, 9, 36, 0
1, 202080, Note_on_c, 9, 38, 105
1, 202080, Note_on_c, 9, 40, 116
1, 202399, Note_on_c, 9, 38, 0
1, 202399, Note_on_c, 9, 40, 0
1, 202400, Note_on_c, 9, 41, 116
1, 202559, Note_on_c, 9, 41, 0
1, 202560, Note_on_c, 9, 36, 92
1, 202880, Note_on_c, 9, 41, 116
1, 203039, Note_on_c, 9, 36, 0
1, 203039, Note_on_c, 9, 41, 0
1, 203040, Note_on_c, 9, 38, 105
1, 203040, Note_on_c, 9, 39, 116
1, 203359, Note_on_c, 9, 38, 0
1, 203359, Note_on_c, 9, 39, 0
1, 203360, Note_on_c, 9, 38, 126
1, 203360, Note_on_c, 9, 39, 116
1, 203519, Note_on_c, 9, 38, 0
1, 203519, Note_on_c, 9, 39, 0
1, 203520, Note_on_c, 9, 36, 92
1, 203839, Note_on_c, 9, 36, 0
1, 203840, Note_on_c, 9, 36, 92
1, 203999, Note_on_c, 9, 36, 0
1, 204000, Note_on_c, 9, 38, 105
1, 204000, Note_on_c, 9, 40, 116
1, 204319, Note_on_c, 9, 38, 0
1, 204319, Note_on_c, 9, 40, 0
1, 204320, Note_on_c, 9, 41, 116
1, 204479, Note_on_c, 9, 41, 0
1, 204480, Note_on_c, 9, 36, 92
1, 204800, Note_on_c, 9, 41, 116
1, 204959, Note_on_c, 9, 36, 0
1, 204959, Note_on_c, 9, 41, 0
1, 204960, Note_on_c, 9, 38, 105
1, 204960, Note_on_c, 9, 39, 116
1, 205279, Note_on_c, 9, 38, 0
1, 205279, Note_on_c, 9, 39, 0
1, 205280, Note_on_c, 9, 38, 126
1, 205280, Note_on_c, 9, 39, 116
1, 205439, Note_on_c, 9, 38, 0
1, 205439, Note_on_c, 9, 39, 0
1, 205440, Note_on_c, 9, 36, 92
1, 205759, Note_on_c, 9, 36, 0
1, 205760, Note_on_c, 9, 36, 92
1, 205919, Note_on_c, 9, 36, 0
1, 205920, Note_on_c, 9, 38, 105
1, 205920, Note_on_c, 9, 40, 116
1, 206239, Note_on_c, 9, 38, 0
1, 206239, Note_on_c, 9, 40, 0
1, 206240, Note_on_c, 9, 41, 116
1, 206399, Note_on_c, 9, 41, 0
1, 206400, Note_on_c, 9, 36, 92
1, 206720, Note_on_c, 9, 41, 116
1, 206879, Note_on_c, 9, 36, 0
1, 206879, Note_on_c, 9, 41, 0
1, 206880, Note_on_c, 9, 38, 105
1, 206880, Note_on_c, 9, 39, 116
1, 207199, Note_on_c, 9, 38, 0
1, 207199, Note_on_c, 9, 39, 0
1, 207200, Note_on_c, 9, 38, 126
1, 207200, Note_on_c, 9, 39, 116
1, 207359, Note_on_c, 9, 38, 0
1, 207359, Note_on_c, 9, 39, 0
1, 207360, Note_on_c, 9, 36, 92
1, 207679, Note_on_c, 9, 36, 0
1, 207680, Note_on_c, 9, 36, 92
1, 207839, Note_on_c, 9, 36, 0
1, 207840, Note_on_c, 9, 38, 105
1, 207840, Note_on_c, 9, 40, 116
1, 208159, Note_on_c, 9, 38, 0
1, 208159, Note_on_c, 9, 40, 0
1, 208160, Note_on_c, 9, 41, 116
1, 208319, Note_on_c, 9, 41, 0
1, 208320, Note_on_c, 9, 36, 92
1, 208640, Note_on_c, 9, 41, 116
1, 208799, Note_on_c, 9, 36, 0
1, 208799, Note_on_c, 9, 41, 0
1, 208800, Note_on_c, 9, 38, 105
1, 208800, Note_on_c, 9, 39, 116
1, 209119, Note_on_c, 9, 38, 0
1, 209119, Note_on_c, 9, 39, 0
1, 209120, Note_on_c, 9, 38, 126
1, 209120, Note_on_c, 9, 39, 116
1, 209279, Note_on_c, 9, 38, 0
1, 209279, Note_on_c, 9, 39, 0
1, 209280, Note_on_c, 9, 36, 92
1, 209599, Note_on_c, 9, 36, 0
1, 209600, Note_on_c, 9, 36, 92
1, 209759, Note_on_c, 9, 36, 0
1, 209760, Note_on_c, 9, 38, 105
1, 209760, Note_on_c, 9, 40, 116
1, 210079, Note_on_c, 9, 38, 0
1, 210079, Note_on_c, 9, 40, 0
1, 210080, Note_on_c, 9, 41, 116
1, 210239, Note_on_c, 9, 41, 0
1, 210240, Note_on_c, 9, 36, 92
1, 210560, Note_on_c, 9, 41, 116
1, 210719, Note_on_c, 9, 36, 0
1, 210719, Note_on_c, 9, 41, 0
1, 210720, Note_on_c, 9, 38, 105
1, 210720, Note_on_c, 9, 39, 116
1, 211039, Note_on_c, 9, 38, 0
1, 211039, Note_on_c, 9, 39, 0
1, 211040, Note_on_c, 9, 38, 126
1, 211040, Note_on_c, 9, 39, 116
1, 211199, Note_on_c, 9, 38, 0
1, 211199, Note_on_c, 9, 39, 0
1, 211200, Note_on_c, 9, 36, 92
1, 211519, Note_on_c, 9, 36, 0
1, 211520, Note_on_c, 9, 36, 92
1, 211679, Note_on_c, 9, 36, 0
1, 211680, Note_on_c, 9, 38, 105
1, 211680, Note_on_c, 9, 40, 116
1, 211999, Note_on_c, 9, 38, 0
1, 211999, Note_on_c, 9, 40, 0
1, 212000, Note_on_c, 9, 41, 116
1, 212159, Note_on_c, 9, 41, 0
1, 212160, Note_on_c, 9, 36, 92
1, 212480, Note_on_c, 9, 41, 116
1, 212639, Note_on_c, 9, 36, 0
1, 212639, Note_on_c, 9, 41, 0
1, 212640, Note_on_c, 9, 38, 105
1, 212640, Note_on_c, 9, 39, 116
1, 212959, Note_on_c, 9, 38, 0
1, 212959, Note_on_c, 9, 39, 0
1, 212960, Note_on_c, 9, 38, 126
1, 212960, Note_on_c, 9, 39, 116
1, 213119, Note_on_c, 9, 38, 0
1, 213119, Note_on_c, 9, 39, 0
1, 213120, Note_on_c, 9, 36, 92
1, 213439, Note_on_c, 9, 36, 0
1, 213440, Note_on_c, 9, 36, 92
1, 213599, Note_on_c, 9, 36, 0
1, 213600, Note_on_c, 9, 38, 105
1, 213600, Note_on_c, 9, 40, 116
1, 213919, Note_on_c, 9, 38, 0
1, 213919, Note_on_c, 9, 40, 0
1, 213920, Note_on_c, 9, 41, 116
1, 214079, Note_on_c, 9, 41, 0
1, 214080, Note_on_c, 9, 36, 92
1, 214400, Note_on_c, 9, 41, 116
1, 214559, Note_on_c, 9, 36, 0
1, 214559, Note_on_c, 9, 41, 0
1, 214560, Note_on_c, 9, 38, 105
1, 214560, Note_on_c, 9, 39, 116
1, 214879, Note_on_c, 9, 38, 0
1, 214879, Note_on_c, 9, 39, 0
1, 214880, Note_on_c, 9, 38, 126
1, 214880, Note_on_c, 9, 39, 116
1, 215039, Note_on_c, 9, 38, 0
1, 215039, Note_on_c, 9, 39, 0
1, 215040, Note_on_c, 9, 36, 92
1, 215359, Note_on_c, 9, 36, 0
1, 215360, Note_on_c, 9, 36, 92
1, 215519, Note_on_c, 9, 36, 0
1, 215520, Note_on_c, 9, 38, 105
1, 215520, Note_on_c, 9, 40, 116
1, 215839, Note_on_c, 9, 38, 0
1, 215839, Note_on_c, 9, 40, 0
1, 215840, Note_on_c, 9, 41, 116
1, 215999, Note_on_c, 9, 41, 0
1, 216000, Note_on_c, 9, 36, 92
1, 216320, Note_on_c, 9, 41, 116
1, 216479, Note_on_c, 9, 36, 0
1, 216479, Note_on_c, 9, 41, 0
1, 216480, Note_on_c, 9, 38, 105
1, 216480, Note_on_c, 9, 39, 116
1, 216480, Note_on_c, 9, 49, 56
1, 216495, Note_on_c, 9, 49, 0
1, 216799, Note_on_c, 9, 38, 0
1, 216799, Note_on_c, 9, 39, 0
1, 216800, Note_on_c, 9, 38, 126
1, 216800, Note_on_c, 9, 39, 116
1, 216800, Note_on_c, 9, 49, 56
1, 216807, Note_on_c, 9, 49, 0
1, 216959, Note_on_c, 9, 38, 0
1, 216959, Note_on_c, 9, 39, 0
1, 216960, Note_on_c, 9, 36, 92
1, 217279, Note_on_c, 9, 36, 0
1, 217280, Note_on_c, 9, 36, 92
1, 217439, Note_on_c, 9, 36, 0
1, 217440, Note_on_c, 9, 38, 105
1, 217440, Note_on_c, 9, 40, 116
1, 217759, Note_on_c, 9, 38, 0
1, 217759, Note_on_c, 9, 40, 0
1, 217760, Note_on_c, 9, 41, 116
1, 217919, Note_on_c, 9, 41, 0
1, 217920, Note_on_c, 9, 36, 92
1, 218240, Note_on_c, 9, 41, 116
1, 218399, Note_on_c, 9, 36, 0
1, 218399, Note_on_c, 9, 41, 0
1, 218400, Note_on_c, 9, 38, 105
1, 218400, Note_on_c, 9, 39, 116
1, 218719, Note_on_c, 9, 38, 0
1, 218719, Note_on_c, 9, 39, 0
1, 218720, Note_on_c, 9, 38, 126
1, 218720, Note_on_c, 9, 39, 116
1, 218879, Note_on_c, 9, 38, 0
1, 218879, Note_on_c, 9, 39, 0
1, 218880, Note_on_c, 9, 36, 92
1, 219199, Note_on_c, 9, 36, 0
1, 219200, Note_on_c, 9, 36, 92
1, 219359, Note_on_c, 9, 36, 0
1, 219360, Note_on_c, 9, 38, 105
1, 219360, Note_on_c, 9, 40, 116
1, 219679, Note_on_c, 9, 38, 0
1, 219679, Note_on_c, 9, 40, 0
1, 219680, Note_on_c, 9, 41, 116
1, 219839, Note_on_c, 9, 41, 0
1, 219840, Note_on_c, 9, 36, 92
1, 220160, Note_on_c, 9, 41, 116
1, 220319, Note_on_c, 9, 36, 0
1, 220319, Note_on_c, 9, 41, 0
1, 220320, Note_on_c, 9, 38, 105
1, 220320, Note_on_c, 9, 39, 116
1, 220639, Note_on_c, 9, 38, 0
1, 220639, Note_on_c, 9, 39, 0
1, 220640, Note_on_c, 9, 38, 126
1, 220640, Note_on_c, 9, 39, 116
1, 220799, Note_on_c, 9, 38, 0
1, 220799, Note_on_c, 9, 39, 0
1, 220800, Note_on_c, 9, 36, 92
1, 221119, Note_on_c, 9, 36, 0
1, 221120, Note_on_c, 9, 36, 92
1, 221279, Note_on_c, 9, 36, 0
1, 221280, Note_on_c, 9, 38, 105
1, 221280, Note_on_c, 9, 40, 116
1, 221599, Note_on_c, 9, 38, 0
1, 221599, Note_on_c, 9, 40, 0
1, 221600, Note_on_c, 9, 41, 116
1, 221759, Note_on_c, 9, 41, 0
1, 221760, Note_on_c, 9, 36, 92
1, 222080, Note_on_c, 9, 41, 116
1, 222239, Note_on_c, 9, 36, 0
1, 222239, Note_on_c, 9, 41, 0
1, 222240, Note_on_c, 9, 38, 105
1, 222240, Note_on_c, 9, 39, 116
1, 222559, Note_on_c, 9, 38, 0
1, 222559, Note_on_c, 9, 39, 0
1, 222560, Note_on_c, 9, 38, 126
1, 222560, Note_on_c, 9, 39, 116
1, 222719, Note_on_c, 9, 38, 0
1, 222719, Note_on_c, 9, 39, 0
1, 222720, Note_on_c, 9, 36, 92
1, 223039, Note_on_c, 9, 36, 0
1, 223040, Note_on_c, 9, 36, 92
1, 223199, Note_on_c, 9, 36, 0
1, 223200, Note_on_c, 9, 38, 105
1, 223200, Note_on_c, 9, 40, 116
1, 223519, Note_on_c, 9, 38, 0
1, 223519, Note_on_c, 9, 40, 0
1, 223520, Note_on_c, 9, 41, 116
1, 223679, Note_on_c, 9, 41, 0
1, 223680, Note_on_c, 9, 36, 92
1, 224000, Note_on_c, 9, 41, 116
1, 224159, Note_on_c, 9, 36, 0
1, 224159, Note_on_c, 9, 41, 0
1, 224160, Note_on_c, 9, 38, 105
1, 224160, Note_on_c, 9, 39, 116
1, 224479, Note_on_c, 9, 38, 0
1, 224479, Note_on_c, 9, 39, 0
1, 224480, Note_on_c, 9, 38, 126
1, 224480, Note_on_c, 9, 39, 116
1, 224639, Note_on_c, 9, 38, 0
1, 224639, Note_on_c, 9, 39, 0
1, 224640, Note_on_c, 9, 36, 92
1, 224959, Note_on_c, 9, 36, 0
1, 224960, Note_on_c, 9, 36, 92
1, 225119, Note_on_c, 9, 36, 0
1, 225120, Note_on_c, 9, 38, 105
1, 225120, Note_on_c, 9, 40, 116
1, 225439, Note_on_c, 9, 38, 0
1, 225439, Note_on_c, 9, 40, 0
1, 225440, Note_on_c, 9, 41, 116
1, 225599, Note_on_c, 9, 41, 0
1, 225600, Note_on_c, 9, 36, 92
1, 225920, Note_on_c, 9, 41, 116
1, 226079, Note_on_c, 9, 36, 0
1, 226079, Note_on_c, 9, 41, 0
1, 226080, Note_on_c, 9, 38, 105
1, 226080, Note_on_c, 9, 39, 116
1, 226399, Note_on_c, 9, 38, 0
1, 226399, Note_on_c, 9, 39, 0
1, 226400, Note_on_c, 9, 38, 126
1, 226400, Note_on_c, 9, 39, 116
1, 226559, Note_on_c, 9, 38, 0
1, 226559, Note_on_c, 9, 39, 0
1, 226560, Note_on_c, 9, 36, 92
1, 226879, Note_on_c, 9, 36, 0
1, 226880, Note_on_c, 9, 36, 92
1, 227039, Note_on_c, 9, 36, 0
1, 227040, Note_on_c, 9, 38, 105
1, 227040, Note_on_c, 9, 40, 116
1, 227359, Note_on_c, 9, 38, 0
1, 227359, Note_on_c, 9, 40, 0
1, 227360, Note_on_c, 9, 41, 116
1, 227519, Note_on_c, 9, 41, 0
1, 227520, Note_on_c, 9, 36, 92
1, 227840, Note_on_c, 9, 41, 116
1, 227999, Note_on_c, 9, 36, 0
1, 227999, Note_on_c, 9, 41, 0
1, 228000, Note_on_c, 9, 38, 105
1, 228000, Note_on_c, 9, 39, 116
1, 228319, Note_on_c, 9, 38, 0
1, 228319, Note_on_c, 9, 39, 0
1, 228320, Note_on_c, 9, 38, 126
1, 228320, Note_on_c, 9, 39, 116
1, 228479, Note_on_c, 9, 38, 0
1, 228479, Note_on_c, 9, 39, 0
1, 228480, Note_on_c, 9, 36, 92
1, 228799, Note_on_c, 9, 36, 0
1, 228800, Note_on_c, 9, 36, 92
1, 228959, Note_on_c, 9, 36, 0
1, 228960, Note_on_c, 9, 38, 105
1, 228960, Note_on_c, 9, 40, 116
1, 229279, Note_on_c, 9, 38, 0
1, 229279, Note_on_c, 9, 40, 0
1, 229280, Note_on_c, 9, 41, 116
1, 229439, Note_on_c, 9, 41, 0
1, 229440, Note_on_c, 9, 36, 92
1, 229760, Note_on_c, 9, 41, 116
1, 229919, Note_on_c, 9, 36, 0
1, 229919, Note_on_c, 9, 41, 0
1, 229920, Note_on_c, 9, 38, 105
1, 229920, Note_on_c, 9, 39, 116
1, 230239, Note_on_c, 9, 38, 0
1, 230239, Note_on_c, 9, 39, 0
1, 230240, Note_on_c, 9, 38, 126
1, 230240, Note_on_c, 9, 39, 116
1, 230399, Note_on_c, 9, 38, 0
1, 230399, Note_on_c, 9, 39, 0
1, 230400, Note_on_c, 9, 36, 92
1, 230719, Note_on_c, 9, 36, 0
1, 230720, Note_on_c, 9, 36, 92
1, 230879, Note_on_c, 9, 36, 0
1, 230880, Note_on_c, 9, 38, 105
1, 230880, Note_on_c, 9, 40, 116
1, 231199, Note_on_c, 9, 38, 0
1, 231199, Note_on_c, 9, 40, 0
1, 231200, Note_on_c, 9, 41, 116
1, 231359, Note_on_c, 9, 41, 0
1, 231360, Note_on_c, 9, 36, 92
1, 231680, Note_on_c, 9, 41, 116
1, 231839, Note_on_c, 9, 36, 0
1, 231839, Note_on_c, 9, 41, 0
1, 231840, Note_on_c, 9, 38, 105
1, 231840, Note_on_c, 9, 39, 116
1, 231840, Note_on_c, 9, 49, 56
1, 231855, Note_on_c, 9, 49, 0
1, 232159, Note_on_c, 9, 38, 0
1, 232159, Note_on_c, 9, 39, 0
1, 232160, Note_on_c, 9, 38, 126
1, 232160, Note_on_c, 9, 39, 116
1, 232160, Note_on_c, 9, 49, 56
1, 232167, Note_on_c, 9, 49, 0
1, 232319, Note_on_c, 9, 38, 0
1, 232319, Note_on_c, 9, 39, 0
1, 232320, Note_on_c, 9, 36, 92
1, 232639, Note_on_c, 9, 36, 0
1, 232640, Note_on_c, 9, 36, 92
1, 232799, Note_on_c, 9, 36, 0
1, 232800, Note_on_c, 9, 38, 105
1, 232800, Note_on_c, 9, 40, 116
1, 233119, Note_on_c, 9, 38, 0
1, 233119, Note_on_c, 9, 40, 0
1, 233120, Note_on_c, 9, 41, 116
1, 233279, Note_on_c, 9, 41, 0
1, 233280, Note_on_c, 9, 36, 92
1, 233600, Note_on_c, 9, 41, 116
1, 233759, Note_on_c, 9, 36, 0
1, 233759, Note_on_c, 9, 41, 0
1, 233760, Note_on_c, 9, 38, 105
1, 233760, Note_on_c, 9, 39, 116
1, 234079, Note_on_c, 9, 38, 0
1, 234079, Note_on_c, 9, 39, 0
1, 234080, Note_on_c, 9, 38, 126
1, 234080, Note_on_c, 9, 39, 116
1, 234239, Note_on_c, 9, 38, 0
1, 234239, Note_on_c, 9, 39, 0
1, 234240, Note_on_c, 9, 36, 92
1, 234559, Note_on_c, 9, 36, 0
1, 234560, Note_on_c, 9, 36, 92
1, 234719, Note_on_c, 9, 36, 0
1, 234720, Note_on_c, 9, 38, 105
1, 234720, Note_on_c, 9, 40, 116
1, 235039, Note_on_c, 9, 38, 0
1, 235039, Note_on_c, 9, 40, 0
1, 235040, Note_on_c, 9, 41, 116
1, 235199, Note_on_c, 9, 41, 0
1, 235200, Note_on_c, 9, 36, 92
1, 235520, Note_on_c, 9, 41, 116
1, 235679, Note_on_c, 9, 36, 0
1, 235679, Note_on_c, 9, 41, 0
1, 235680, Note_on_c, 9, 38, 105
1, 235680, Note_on_c, 9, 39, 116
1, 235999, Note_on_c, 9, 38, 0
1, 235999, Note_on_c, 9, 39, 0
1, 236000, Note_on_c, 9, 38, 126
1, 236000, Note_on_c, 9, 39, 116
1, 236159, Note_on_c, 9, 38, 0
1, 236159, Note_on_c, 9, 39, 0
1, 236160, Note_on_c, 9, 36, 92
1, 236479, Note_on_c, 9, 36, 0
1, 236480, Note_on_c, 9, 36, 92
1, 236639, Note_on_c, 9, 36, 0
1, 236640, Note_on_c, 9, 38, 105
1, 236640, Note_on_c, 9, 40, 116
1, 236959, Note_on_c, 9, 38, 0
1, 236959, Note_on_c, 9, 40, 0
1, 236960, Note_on_c, 9, 41, 116
1, 237119, Note_on_c, 9, 41, 0
1, 237120, Note_on_c, 9, 36, 92
1, 237440, Note_on_c, 9, 41, 116
1, 237599, Note_on_c, 9, 36, 0
1, 237599, Note_on_c, 9, 41, 0
1, 237600, Note_on_c, 9, 38, 105
1, 237600, Note_on_c, 9, 39, 116
1, 237919, Note_on_c, 9, 38, 0
1, 237919, Note_on_c, 9, 39, 0
1, 237920, Note_on_c, 9, 38, 126
1, 237920, Note_on_c, 9, 39, 116
1, 238079, Note_on_c, 9, 38, 0
1, 238079, Note_on_c, 9, 39, 0
1, 238080, Note_on_c, 9, 36, 92
1, 238399, Note_on_c, 9, 36, 0
1, 238400, Note_on_c, 9, 36, 92
1, 238559, Note_on_c, 9, 36, 0
1, 238560, Note_on_c, 9, 38, 105
1, 238560, Note_on_c, 9, 40, 116
1, 238879, Note_on_c, 9, 38, 0
1, 238879, Note_on_c, 9, 40, 0
1, 238880, Note_on_c, 9, 41, 116
1, 239039, Note_on_c, 9, 41, 0
1, 239040, Note_on_c, 9, 36, 92
1, 239360, Note_on_c, 9, 41, 116
1, 239519, Note_on_c, 9, 36, 0
1, 239519, Note_on_c, 9, 41, 0
1, 239520, Note_on_c, 9, 38, 105
1, 239520, Note_on_c, 9, 39, 116
1, 239839, Note_on_c, 9, 38, 0
1, 239839, Note_on_c, 9, 39, 0
1, 239840, Note_on_c, 9, 38, 126
1, 239840, Note_on_c, 9, 39, 116
1, 239999, Note_on_c, 9, 38, 0
1, 239999, Note_on_c, 9, 39, 0
1, 240000, Note_on_c, 9, 36, 92
1, 240319, Note_on_c, 9, 36, 0
1, 240320, Note_on_c, 9, 36, 92
1, 240479, Note_on_c, 9, 36, 0
1, 240480, Note_on_c, 9, 38, 105
1, 240480, Note_on_c, 9, 40, 116
1, 240799, Note_on_c, 9, 38, 0
1, 240799, Note_on_c, 9, 40, 0
1, 240800, Note_on_c, 9, 41, 116
1, 240959, Note_on_c, 9, 41, 0
1, 240960, Note_on_c, 9, 36, 92
1, 241280, Note_on_c, 9, 41, 116
1, 241439, Note_on_c, 9, 36, 0
1, 241439, Note_on_c, 9, 41, 0
1, 241440, Note_on_c, 9, 38, 105
1, 241440, Note_on_c, 9, 39, 116
1, 241759, Note_on_c, 9, 38, 0
1, 241759, Note_on_c, 9, 39, 0
1, 241760, Note_on_c, 9, 38, 126
1, 241760, Note_on_c, 9, 39, 116
1, 241919, Note_on_c, 9, 38, 0
1, 241919, Note_on_c, 9, 39, 0
1, 241920, Note_on_c, 9, 36, 92
1, 242239, Note_on_c, 9, 36, 0
1, 242240, Note_on_c, 9, 36, 92
1, 242399, Note_on_c, 9, 36, 0
1, 242400, Note_on_c, 9, 38, 105
1, 242400, Note_on_c, 9, 40, 116
1, 242719, Note_on_c, 9, 38, 0
1, 242719, Note_on_c, 9, 40, 0
1, 242720, Note_on_c, 9, 41, 116
1, 242879, Note_on_c, 9, 41, 0
1, 242880, Note_on_c, 9, 36, 92
1, 243200, Note_on_c, 9, 41, 116
1, 243359, Note_on_c, 9, 36, 0
1, 243359, Note_on_c, 9, 41, 0
1, 243360, Note_on_c, 9, 38, 105
1, 243360, Note_on_c, 9, 39, 116
1, 243679, Note_on_c, 9, 38, 0
1, 243679, Note_on_c, 9, 39, 0
1, 243680, Note_on_c, 9, 38, 126
1, 243680, Note_on_c, 9, 39, 116
1, 243839, Note_on_c, 9, 38, 0
1, 243839, Note_on_c, 9, 39, 0
1, 243840, Note_on_c, 9, 36, 92
1, 244159, Note_on_c, 9, 36, 0
1, 244160, Note_on_c, 9, 36, 92
1, 244319, Note_on_c, 9, 36, 0
1, 244320, Note_on_c, 9, 38, 105
1, 244320, Note_on_c, 9, 40, 116
1, 244639, Note_on_c, 9, 38, 0
1, 244639, Note_on_c, 9, 40, 0
1, 244640, Note_on_c, 9, 41, 116
1, 244799, Note_on_c, 9, 41, 0
1, 244800, Note_on_c, 9, 36, 92
1, 245120, Note_on_c, 9, 41, 116
1, 245279, Note_on_c, 9, 36, 0
1, 245279, Note_on_c, 9, 41, 0
1, 245280, Note_on_c, 9, 38, 105
1, 245280, Note_on_c, 9, 39, 116
1, 245599, Note_on_c, 9, 38, 0
1, 245599, Note_on_c, 9, 39, 0
1, 245600, Note_on_c, 9, 38, 126
1, 245600, Note_on_c, 9, 39, 116
1, 245759, Note_on_c, 9, 38, 0
1, 245759, Note_on_c, 9, 39, 0
1, 245760, Note_on_c, 9, 36, 92
1, 246079, Note_on_c, 9, 36, 0
1, 246080, Note_on_c, 9, 36, 92
1, 246239, Note_on_c, 9, 36, 0
1, 246240, Note_on_c, 9, 38, 105
1, 246240, Note_on_c, 9, 40, 116
1, 246559, Note_on_c, 9, 38, 0
1, 246559, Note_on_c, 9, 40, 0
1, 246560, Note_on_c, 9, 41, 116
1, 246719, Note_on_c, 9, 41, 0
1, 246720, Note_on_c, 9, 36, 92
1, 247040, Note_on_c, 9, 41, 116
1, 247199, Note_on_c, 9, 36, 0
1, 247199, Note_on_c, 9, 41, 0
1, 247200, Note_on_c, 9, 38, 105
1, 247200, Note_on_c, 9, 39, 116
1, 247200, Note_on_c, 9, 49, 56
1, 247215, Note_on_c, 9, 49, 0
1, 247519, Note_on_c, 9, 38, 0
1, 247519, Note_on_c, 9, 39, 0
1, 247520, Note_on_c, 9, 38, 126
1, 247520, Note_on_c, 9, 39, 116
1, 247520, Note_on_c, 9, 49, 56
1, 247527, Note_on_c, 9, 49, 0
1, 247679, Note_on_c, 9, 38, 0
1, 247679, Note_on_c, 9, 39, 0
1, 247680, Note_on_c, 9, 41, 95
1, 247680, Note_on_c, 9, 45, 95
1, 247680, Note_on_c, 9, 36, 92
1, 248159, Note_on_c, 9, 41, 0
1, 248159, Note_on_c, 9, 45, 0
1, 248159, Note_on_c, 9, 36, 0
1, 248160, Note_on_c, 9, 41, 95
1, 248160, Note_on_c, 9, 45, 95
1, 248160, Note_on_c, 9, 36, 92
1, 248639, Note_on_c, 9, 41, 0
1, 248639, Note_on_c, 9, 45, 0
1, 248639, Note_on_c, 9, 36, 0
1, 248640, Note_on_c, 9, 41, 95
1, 248640, Note_on_c, 9, 45, 95
1, 248640, Note_on_c, 9, 36, 92
1, 249119, Note_on_c, 9, 41, 0
1, 249119, Note_on_c, 9, 45, 0
1, 249119, Note_on_c, 9, 36, 0
1, 249120, Note_on_c, 9, 41, 95
1, 249120, Note_on_c, 9, 45, 95
1, 249120, Note_on_c, 9, 36, 92
1, 249599, Note_on_c, 9, 41, 0
1, 249599, Note_on_c, 9, 45, 0
1, 249599, Note_on_c, 9, 36, 0
1, 249600, Note_on_c, 9, 38, 105
1, 249760, Note_on_c, 9, 36, 92
1, 249919, Note_on_c, 9, 38, 0
1, 249920, Note_on_c, 9, 41, 95
1, 250079, Note_on_c, 9, 36, 0
1, 250079, Note_on_c, 9, 41, 0
1, 250080, Note_on_c, 9, 38, 105
1, 250240, Note_on_c, 9, 36, 92
1, 250399, Note_on_c, 9, 38, 0
1, 250400, Note_on_c, 9, 38, 105
1, 250559, Note_on_c, 9, 36, 0
1, 250559, Note_on_c, 9, 38, 0
1, 250560, Note_on_c, 9, 47, 95
1, 250719, Note_on_c, 9, 47, 0
1, 250720, Note_on_c, 9, 45, 95
1, 250879, Note_on_c, 9, 45, 0
1, 250880, Note_on_c, 9, 40, 95
1, 251039, Note_on_c, 9, 40, 0
1, 251040, Note_on_c, 9, 38, 105
1, 251199, Note_on_c, 9, 38, 0
1, 251200, Note_on_c, 9, 38, 105
1, 251359, Note_on_c, 9, 38, 0
1, 251360, Note_on_c, 9, 38, 105
1, 251519, Note_on_c, 9, 38, 0
1, 251520, Note_on_c, 9, 41, 95
1, 251520, Note_on_c, 9, 49, 88
1, 251520, Note_on_c, 9, 36, 92
1, 251535, Note_on_c, 9, 49, 0
1, 251839, Note_on_c, 9, 41, 0
1, 251839, Note_on_c, 9, 36, 0
1, 251840, Note_on_c, 9, 41, 95
1, 251840, Note_on_c, 9, 36, 92
1, 251999, Note_on_c, 9, 41, 0
1, 251999, Note_on_c, 9, 36, 0
1, 252000, Note_on_c, 9, 38, 105
1, 252319, Note_on_c, 9, 38, 0
1, 252320, Note_on_c, 9, 45, 79
1, 252479, Note_on_c, 9, 45, 0
1, 252480, Note_on_c, 9, 41, 95
1, 252480, Note_on_c, 9, 36, 92
1, 252799, Note_on_c, 9, 41, 0
1, 252799, Note_on_c, 9, 36, 0
1, 252800, Note_on_c, 9, 41, 95
1, 252800, Note_on_c, 9, 36, 92
1, 252959, Note_on_c, 9, 41, 0
1, 252959, Note_on_c, 9, 36, 0
1, 252960, Note_on_c, 9, 38, 105
1, 252960, Note_on_c, 9, 39, 116
1, 253279, Note_on_c, 9, 38, 0
1, 253279, Note_on_c, 9, 39, 0
1, 253280, Note_on_c, 9, 45, 79
1, 253280, Note_on_c, 9, 39, 116
1, 253439, Note_on_c, 9, 45, 0
1, 253439, Note_on_c, 9, 39, 0
1, 253440, Note_on_c, 9, 41, 95
1, 253440, Note_on_c, 9, 36, 92
1, 253759, Note_on_c, 9, 41, 0
1, 253759, Note_on_c, 9, 36, 0
1, 253760, Note_on_c, 9, 41, 95
1, 253760, Note_on_c, 9, 36, 92
1, 253919, Note_on_c, 9, 41, 0
1, 253919, Note_on_c, 9, 36, 0
1, 253920, Note_on_c, 9, 38, 105
1, 254239, Note_on_c, 9, 38, 0
1, 254240, Note_on_c, 9, 45, 79
1, 254399, Note_on_c, 9, 45, 0
1, 254400, Note_on_c, 9, 41, 95
1, 254400, Note_on_c, 9, 36, 92
1, 254719, Note_on_c, 9, 41, 0
1, 254719, Note_on_c, 9, 36, 0
1, 254720, Note_on_c, 9, 41, 95
1, 254720, Note_on_c, 9, 36, 92
1, 254879, Note_on_c, 9, 41, 0
1, 254879, Note_on_c, 9, 36, 0
1, 254880, Note_on_c, 9, 38, 105
1, 254880, Note_on_c, 9, 39, 116
1, 255199, Note_on_c, 9, 38, 0
1, 255199, Note_on_c, 9, 39, 0
1, 255200, Note_on_c, 9, 45, 79
1, 255200, Note_on_c, 9, 39, 116
1, 255359, Note_on_c, 9, 45, 0
1, 255359, Note_on_c, 9, 39, 0
1, 255360, Note_on_c, 9, 41, 95
1, 255360, Note_on_c, 9, 36, 92
1, 255679, Note_on_c, 9, 41, 0
1, 255679, Note_on_c, 9, 36, 0
1, 255680, Note_on_c, 9, 41, 95
1, 255680, Note_on_c, 9, 36, 92
1, 255839, Note_on_c, 9, 41, 0
1, 255839, Note_on_c, 9, 36, 0
1, 255840, Note_on_c, 9, 38, 105
1, 256159, Note_on_c, 9, 38, 0
1, 256160, Note_on_c, 9, 45, 79
1, 256319, Note_on_c, 9, 45, 0
1, 256320, Note_on_c, 9, 41, 95
1, 256320, Note_on_c, 9, 36, 92
1, 256639, Note_on_c, 9, 41, 0
1, 256639, Note_on_c, 9, 36, 0
1, 256640, Note_on_c, 9, 41, 95
1, 256640, Note_on_c, 9, 36, 92
1, 256799, Note_on_c, 9, 41, 0
1, 256799, Note_on_c, 9, 36, 0
1, 256800, Note_on_c, 9, 38, 105
1, 256800, Note_on_c, 9, 39, 116
1, 257119, Note_on_c, 9, 38, 0
1, 257119, Note_on_c, 9, 39, 0
1, 257120, Note_on_c, 9, 45, 79
1, 257120, Note_on_c, 9, 39, 116
1, 257279, Note_on_c, 9, 45, 0
1, 257279, Note_on_c, 9, 39, 0
1, 257280, Note_on_c, 9, 41, 95
1, 257280, Note_on_c, 9, 36, 92
1, 257599, Note_on_c, 9, 41, 0
1, 257599, Note_on_c, 9, 36, 0
1, 257600, Note_on_c, 9, 41, 95
1, 257600, Note_on_c, 9, 36, 92
1, 257759, Note_on_c, 9, 41, 0
1, 257759, Note_on_c, 9, 36, 0
1, 257760, Note_on_c, 9, 38, 105
1, 258079, Note_on_c, 9, 38, 0
1, 258080, Note_on_c, 9, 45, 79
1, 258239, Note_on_c, 9, 45, 0
1, 258240, Note_on_c, 9, 41, 95
1, 258240, Note_on_c, 9, 36, 92
1, 258559, Note_on_c, 9, 41, 0
1, 258559, Note_on_c, 9, 36, 0
1, 258560, Note_on_c, 9, 41, 95
1, 258560, Note_on_c, 9, 36, 92
1, 258719, Note_on_c, 9, 41, 0
1, 258719, Note_on_c, 9, 36, 0
1, 258720, Note_on_c, 9, 38, 105
1, 258720, Note_on_c, 9, 39, 116
1, 259039, Note_on_c, 9, 38, 0
1, 259039, Note_on_c, 9, 39, 0
1, 259040, Note_on_c, 9, 45, 79
1, 259040, Note_on_c, 9, 39, 116
1, 259199, Note_on_c, 9, 45, 0
1, 259199, Note_on_c, 9, 39, 0
1, 259200, Note_on_c, 9, 41, 95
1, 259200, Note_on_c, 9, 36, 92
1, 259519, Note_on_c, 9, 41, 0
1, 259519, Note_on_c, 9, 36, 0
1, 259520, Note_on_c, 9, 41, 95
1, 259520, Note_on_c, 9, 36, 92
1, 259679, Note_on_c, 9, 41, 0
1, 259679, Note_on_c, 9, 36, 0
1, 259680, Note_on_c, 9, 38, 105
1, 259999, Note_on_c, 9, 38, 0
1, 260000, Note_on_c, 9, 45, 79
1, 260159, Note_on_c, 9, 45, 0
1, 260160, Note_on_c, 9, 41, 95
1, 260160, Note_on_c, 9, 36, 92
1, 260479, Note_on_c, 9, 41, 0
1, 260479, Note_on_c, 9, 36, 0
1, 260480, Note_on_c, 9, 41, 95
1, 260480, Note_on_c, 9, 36, 92
1, 260639, Note_on_c, 9, 41, 0
1, 260639, Note_on_c, 9, 36, 0
1, 260640, Note_on_c, 9, 38, 105
1, 260640, Note_on_c, 9, 39, 116
1, 260959, Note_on_c, 9, 38, 0
1, 260959, Note_on_c, 9, 39, 0
1, 260960, Note_on_c, 9, 45, 79
1, 260960, Note_on_c, 9, 39, 116
1, 261119, Note_on_c, 9, 45, 0
1, 261119, Note_on_c, 9, 39, 0
1, 261120, Note_on_c, 9, 41, 95
1, 261120, Note_on_c, 9, 36, 92
1, 261439, Note_on_c, 9, 41, 0
1, 261439, Note_on_c, 9, 36, 0
1, 261440, Note_on_c, 9, 41, 95
1, 261440, Note_on_c, 9, 36, 92
1, 261599, Note_on_c, 9, 41, 0
1, 261599, Note_on_c, 9, 36, 0
1, 261600, Note_on_c, 9, 38, 105
1, 261919, Note_on_c, 9, 38, 0
1, 261920, Note_on_c, 9, 45, 79
1, 262079, Note_on_c, 9, 45, 0
1, 262080, Note_on_c, 9, 41, 95
1, 262080, Note_on_c, 9, 36, 92
1, 262399, Note_on_c, 9, 41, 0
1, 262399, Note_on_c, 9, 36, 0
1, 262400, Note_on_c, 9, 41, 95
1, 262400, Note_on_c, 9, 36, 92
1, 262559, Note_on_c, 9, 41, 0
1, 262559, Note_on_c, 9, 36, 0
1, 262560, Note_on_c, 9, 38, 105
1, 262560, Note_on_c, 9, 39, 116
1, 262879, Note_on_c, 9, 38, 0
1, 262879, Note_on_c, 9, 39, 0
1, 262880, Note_on_c, 9, 45, 79
1, 262880, Note_on_c, 9, 39, 116
1, 263039, Note_on_c, 9, 45, 0
1, 263039, Note_on_c, 9, 39, 0
1, 263040, Note_on_c, 9, 41, 95
1, 263040, Note_on_c, 9, 36, 92
1, 263359, Note_on_c, 9, 41, 0
1, 263359, Note_on_c, 9, 36, 0
1, 263360, Note_on_c, 9, 41, 95
1, 263360, Note_on_c, 9, 36, 92
1, 263519, Note_on_c, 9, 41, 0
1, 263519, Note_on_c, 9, 36, 0
1, 263520, Note_on_c, 9, 38, 105
1, 263839, Note_on_c, 9, 38, 0
1, 263840, Note_on_c, 9, 45, 79
1, 263999, Note_on_c, 9, 45, 0
1, 264000, Note_on_c, 9, 41, 95
1, 264000, Note_on_c, 9, 36, 92
1, 264319, Note_on_c, 9, 41, 0
1, 264319, Note_on_c, 9, 36, 0
1, 264320, Note_on_c, 9, 41, 95
1, 264320, Note_on_c, 9, 36, 92
1, 264479, Note_on_c, 9, 41, 0
1, 264479, Note_on_c, 9, 36, 0
1, 264480, Note_on_c, 9, 38, 105
1, 264480, Note_on_c, 9, 39, 116
1, 264799, Note_on_c, 9, 38, 0
1, 264799, Note_on_c, 9, 39, 0
1, 264800, Note_on_c, 9, 45, 79
1, 264800, Note_on_c, 9, 39, 116
1, 264959, Note_on_c, 9, 45, 0
1, 264959, Note_on_c, 9, 39, 0
1, 264960, Note_on_c, 9, 41, 95
1, 264960, Note_on_c, 9, 36, 92
1, 265279, Note_on_c, 9, 41, 0
1, 265279, Note_on_c, 9, 36, 0
1, 265280, Note_on_c, 9, 41, 95
1, 265280, Note_on_c, 9, 36, 92
1, 265439, Note_on_c, 9, 41, 0
1, 265439, Note_on_c, 9, 36, 0
1, 265440, Note_on_c, 9, 38, 105
1, 265759, Note_on_c, 9, 38, 0
1, 265760, Note_on_c, 9, 45, 79
1, 265919, Note_on_c, 9, 45, 0
1, 265920, Note_on_c, 9, 41, 95
1, 265920, Note_on_c, 9, 36, 92
1, 266239, Note_on_c, 9, 41, 0
1, 266239, Note_on_c, 9, 36, 0
1, 266240, Note_on_c, 9, 41, 95
1, 266240, Note_on_c, 9, 36, 92
1, 266399, Note_on_c, 9, 41, 0
1, 266399, Note_on_c, 9, 36, 0
1, 266400, Note_on_c, 9, 38, 105
1, 266400, Note_on_c, 9, 39, 116
1, 266719, Note_on_c, 9, 38, 0
1, 266719, Note_on_c, 9, 39, 0
1, 266720, Note_on_c, 9, 45, 79
1, 266720, Note_on_c, 9, 39, 116
1, 266879, Note_on_c, 9, 45, 0
1, 266879, Note_on_c, 9, 39, 0
1, 266880, Note_on_c, 9, 41, 95
1, 266880, Note_on_c, 9, 36, 92
1, 267199, Note_on_c, 9, 41, 0
1, 267199, Note_on_c, 9, 36, 0
1, 267200, Note_on_c, 9, 41, 95
1, 267200, Note_on_c, 9, 36, 92
1, 267359, Note_on_c, 9, 41, 0
1, 267359, Note_on_c, 9, 36, 0
1, 267360, Note_on_c, 9, 38, 105
1, 267679, Note_on_c, 9, 38, 0
1, 267680, Note_on_c, 9, 45, 79
1, 267839, Note_on_c, 9, 45, 0
1, 267840, Note_on_c, 9, 41, 95
1, 267840, Note_on_c, 9, 36, 92
1, 268159, Note_on_c, 9, 41, 0
1, 268159, Note_on_c, 9, 36, 0
1, 268160, Note_on_c, 9, 41, 95
1, 268160, Note_on_c, 9, 36, 92
1, 268319, Note_on_c, 9, 41, 0
1, 268319, Note_on_c, 9, 36, 0
1, 268320, Note_on_c, 9, 38, 105
1, 268320, Note_on_c, 9, 39, 116
1, 268639, Note_on_c, 9, 38, 0
1, 268639, Note_on_c, 9, 39, 0
1, 268640, Note_on_c, 9, 45, 79
1, 268640, Note_on_c, 9, 39, 116
1, 268799, Note_on_c, 9, 45, 0
1, 268799, Note_on_c, 9, 39, 0
1, 268800, Note_on_c, 9, 41, 95
1, 268800, Note_on_c, 9, 36, 92
1, 269119, Note_on_c, 9, 41, 0
1, 269119, Note_on_c, 9, 36, 0
1, 269120, Note_on_c, 9, 41, 95
1, 269120, Note_on_c, 9, 36, 92
1, 269279, Note_on_c, 9, 41, 0
1, 269279, Note_on_c, 9, 36, 0
1, 269280, Note_on_c, 9, 38, 105
1, 269599, Note_on_c, 9, 38, 0
1, 269600, Note_on_c, 9, 45, 79
1, 269759, Note_on_c, 9, 45, 0
1, 269760, Note_on_c, 9, 41, 95
1, 269760, Note_on_c, 9, 36, 92
1, 270079, Note_on_c, 9, 41, 0
1, 270079, Note_on_c, 9, 36, 0
1, 270080, Note_on_c, 9, 41, 95
1, 270080, Note_on_c, 9, 36, 92
1, 270239, Note_on_c, 9, 41, 0
1, 270239, Note_on_c, 9, 36, 0
1, 270240, Note_on_c, 9, 38, 105
1, 270240, Note_on_c, 9, 39, 116
1, 270559, Note_on_c, 9, 38, 0
1, 270559, Note_on_c, 9, 39, 0
1, 270560, Note_on_c, 9, 45, 79
1, 270560, Note_on_c, 9, 39, 116
1, 270719, Note_on_c, 9, 45, 0
1, 270719, Note_on_c, 9, 39, 0
1, 270720, Note_on_c, 9, 41, 95
1, 270720, Note_on_c, 9, 36, 92
1, 271039, Note_on_c, 9, 41, 0
1, 271039, Note_on_c, 9, 36, 0
1, 271040, Note_on_c, 9, 41, 95
1, 271040, Note_on_c, 9, 36, 92
1, 271199, Note_on_c, 9, 41, 0
1, 271199, Note_on_c, 9, 36, 0
1, 271200, Note_on_c, 9, 38, 105
1, 271519, Note_on_c, 9, 38, 0
1, 271520, Note_on_c, 9, 45, 79
1, 271679, Note_on_c, 9, 45, 0
1, 271680, Note_on_c, 9, 41, 95
1, 271680, Note_on_c, 9, 36, 92
1, 271999, Note_on_c, 9, 41, 0
1, 271999, Note_on_c, 9, 36, 0
1, 272000, Note_on_c, 9, 41, 95
1, 272000, Note_on_c, 9, 36, 92
1, 272159, Note_on_c, 9, 41, 0
1, 272159, Note_on_c, 9, 36, 0
1, 272160, Note_on_c, 9, 38, 105
1, 272160, Note_on_c, 9, 39, 116
1, 272479, Note_on_c, 9, 38, 0
1, 272479, Note_on_c, 9, 39, 0
1, 272480, Note_on_c, 9, 45, 79
1, 272480, Note_on_c, 9, 39, 116
1, 272639, Note_on_c, 9, 45, 0
1, 272639, Note_on_c, 9, 39, 0
1, 272640, Note_on_c, 9, 41, 95
1, 272640, Note_on_c, 9, 36, 92
1, 272959, Note_on_c, 9, 41, 0
1, 272959, Note_on_c, 9, 36, 0
1, 272960, Note_on_c, 9, 41, 95
1, 272960, Note_on_c, 9, 36, 92
1, 273119, Note_on_c, 9, 41, 0
1, 273119, Note_on_c, 9, 36, 0
1, 273120, Note_on_c, 9, 38, 105
1, 273439, Note_on_c, 9, 38, 0
1, 273440, Note_on_c, 9, 45, 79
1, 273599, Note_on_c, 9, 45, 0
1, 273600, Note_on_c, 9, 41, 95
1, 273600, Note_on_c, 9, 36, 92
1, 273919, Note_on_c, 9, 41, 0
1, 273919, Note_on_c, 9, 36, 0
1, 273920, Note_on_c, 9, 41, 95
1, 273920, Note_on_c, 9, 36, 92
1, 274079, Note_on_c, 9, 41, 0
1, 274079, Note_on_c, 9, 36, 0
1, 274080, Note_on_c, 9, 38, 105
1, 274080, Note_on_c, 9, 39, 116
1, 274399, Note_on_c, 9, 38, 0
1, 274399, Note_on_c, 9, 39, 0
1, 274400, Note_on_c, 9, 45, 79
1, 274400, Note_on_c, 9, 39, 116
1, 274559, Note_on_c, 9, 45, 0
1, 274559, Note_on_c, 9, 39, 0
1, 274560, Note_on_c, 9, 41, 95
1, 274560, Note_on_c, 9, 36, 92
1, 274879, Note_on_c, 9, 41, 0
1, 274879, Note_on_c, 9, 36, 0
1, 274880, Note_on_c, 9, 41, 95
1, 274880, Note_on_c, 9, 36, 92
1, 275039, Note_on_c, 9, 41, 0
1, 275039, Note_on_c, 9, 36, 0
1, 275040, Note_on_c, 9, 38, 105
1, 275359, Note_on_c, 9, 38, 0
1, 275360, Note_on_c, 9, 45, 79
1, 275519, Note_on_c, 9, 45, 0
1, 275520, Note_on_c, 9, 41, 95
1, 275520, Note_on_c, 9, 36, 92
1, 275839, Note_on_c, 9, 41, 0
1, 275839, Note_on_c, 9, 36, 0
1, 275840, Note_on_c, 9, 41, 95
1, 275840, Note_on_c, 9, 36, 92
1, 275999, Note_on_c, 9, 41, 0
1, 275999, Note_on_c, 9, 36, 0
1, 276000, Note_on_c, 9, 38, 105
1, 276000, Note_on_c, 9, 39, 116
1, 276319, Note_on_c, 9, 38, 0
1, 276319, Note_on_c, 9, 39, 0
1, 276320, Note_on_c, 9, 45, 79
1, 276320, Note_on_c, 9, 39, 116
1, 276479, Note_on_c, 9, 45, 0
1, 276479, Note_on_c, 9, 39, 0
1, 276480, Note_on_c, 9, 41, 95
1, 276480, Note_on_c, 9, 36, 92
1, 276799, Note_on_c, 9, 41, 0
1, 276799, Note_on_c, 9, 36, 0
1, 276800, Note_on_c, 9, 41, 95
1, 276800, Note_on_c, 9, 36, 92
1, 276959, Note_on_c, 9, 41, 0
1, 276959, Note_on_c, 9, 36, 0
1, 276960, Note_on_c, 9, 38, 105
1, 277279, Note_on_c, 9, 38, 0
1, 277280, Note_on_c, 9, 45, 79
1, 277439, Note_on_c, 9, 45, 0
1, 277440, Note_on_c, 9, 41, 95
1, 277440, Note_on_c, 9, 36, 92
1, 277759, Note_on_c, 9, 41, 0
1, 277759, Note_on_c, 9, 36, 0
1, 277760, Note_on_c, 9, 41, 95
1, 277760, Note_on_c, 9, 36, 92
1, 277919, Note_on_c, 9, 41, 0
1, 277919, Note_on_c, 9, 36, 0
1, 277920, Note_on_c, 9, 38, 105
1, 277920, Note_on_c, 9, 39, 116
1, 278239, Note_on_c, 9, 38, 0
1, 278239, Note_on_c, 9, 39, 0
1, 278240, Note_on_c, 9, 45, 79
1, 278240, Note_on_c, 9, 39, 116
1, 278399, Note_on_c, 9, 45, 0
1, 278399, Note_on_c, 9, 39, 0
1, 278400, Note_on_c, 9, 41, 95
1, 278400, Note_on_c, 9, 36, 92
1, 278719, Note_on_c, 9, 41, 0
1, 278719, Note_on_c, 9, 36, 0
1, 278720, Note_on_c, 9, 41, 95
1, 278720, Note_on_c, 9, 36, 92
1, 278879, Note_on_c, 9, 41, 0
1, 278879, Note_on_c, 9, 36, 0
1, 278880, Note_on_c, 9, 38, 105
1, 279199, Note_on_c, 9, 38, 0
1, 279200, Note_on_c, 9, 45, 79
1, 279359, Note_on_c, 9, 45, 0
1, 279360, Note_on_c, 9, 41, 95
1, 279360, Note_on_c, 9, 36, 92
1, 279679, Note_on_c, 9, 41, 0
1, 279679, Note_on_c, 9, 36, 0
1, 279680, Note_on_c, 9, 41, 95
1, 279680, Note_on_c, 9, 36, 92
1, 279839, Note_on_c, 9, 41, 0
1, 279839, Note_on_c, 9, 36, 0
1, 279840, Note_on_c, 9, 38, 105
1, 279840, Note_on_c, 9, 39, 116
1, 280159, Note_on_c, 9, 38, 0
1, 280159, Note_on_c, 9, 39, 0
1, 280160, Note_on_c, 9, 45, 79
1, 280160, Note_on_c, 9, 39, 116
1, 280319, Note_on_c, 9, 45, 0
1, 280319, Note_on_c, 9, 39, 0
1, 280320, Note_on_c, 9, 36, 92
1, 280640, Note_on_c, 9, 45, 95
1, 280719, Note_on_c, 9, 45, 0
1, 280720, Note_on_c, 9, 45, 116
1, 280799, Note_on_c, 9, 36, 0
1, 280799, Note_on_c, 9, 45, 0
1, 280800, Note_on_c, 9, 45, 95
1, 280959, Note_on_c, 9, 45, 0
1, 280960, Note_on_c, 9, 45, 95
1, 281120, Note_on_c, 9, 43, 95
1, 281279, Note_on_c, 9, 45, 0
1, 281279, Note_on_c, 9, 43, 0
1, 281280, Note_on_c, 9, 43, 95
1, 281439, Note_on_c, 9, 43, 0
1, 281440, Note_on_c, 9, 43, 95
1, 281600, Note_on_c, 9, 41, 95
1, 281759, Note_on_c, 9, 43, 0
1, 281759, Note_on_c, 9, 41, 0
1, 281760, Note_on_c, 9, 38, 105
1, 281760, Note_on_c, 9, 49, 88
1, 281775, Note_on_c, 9, 49, 0
1, 282079, Note_on_c, 9, 38, 0
1, 282080, Note_on_c, 9, 38, 116
1, 282080, Note_on_c, 9, 52, 110
1, 282087, Note_on_c, 9, 52, 0
1, 282239, Note_on_c, 9, 38, 0
1, 286080, Note_on_c, 9, 38, 105
1, 286399, Note_on_c, 9, 38, 0
1, 286400, Note_on_c, 9, 38, 105
1, 286559, Note_on_c, 9, 38, 0
1, 286560, Note_on_c, 9, 38, 105
1, 286879, Note_on_c, 9, 38, 0
1, 286880, Note_on_c, 9, 38, 105
1, 287039, Note_on_c, 9, 38, 0
1, 287040, Note_on_c, 9, 38, 105
1, 287359, Note_on_c, 9, 38, 0
1, 287360, Note_on_c, 9, 38, 105
1, 287519, Note_on_c, 9, 38, 0
1, 287520, Note_on_c, 9, 38, 105
1, 287839, Note_on_c, 9, 38, 0
1, 287840, Note_on_c, 9, 38, 105
1, 287999, Note_on_c, 9, 38, 0
1, 288000, Note_on_c, 9, 38, 105
1, 288319, Note_on_c, 9, 38, 0
1, 288320, Note_on_c, 9, 38, 105
1, 288479, Note_on_c, 9, 38, 0
1, 288480, Note_on_c, 9, 38, 105
1, 288799, Note_on_c, 9, 38, 0
1, 288800, Note_on_c, 9, 38, 105
1, 288959, Note_on_c, 9, 38, 0
1, 288960, Note_on_c, 9, 38, 105
1, 289279, Note_on_c, 9, 38, 0
1, 289280, Note_on_c, 9, 38, 105
1, 289439, Note_on_c, 9, 38, 0
1, 289440, Note_on_c, 9, 38, 105
1, 289759, Note_on_c, 9, 38, 0
1, 289760, Note_on_c, 9, 38, 105
1, 289919, Note_on_c, 9, 38, 0
1, 289920, Note_on_c, 9, 41, 95
1, 289920, Note_on_c, 9, 49, 56
1, 289920, Note_on_c, 9, 36, 92
1, 289935, Note_on_c, 9, 49, 0
1, 290239, Note_on_c, 9, 41, 0
1, 290239, Note_on_c, 9, 36, 0
1, 290240, Note_on_c, 9, 41, 95
1, 290240, Note_on_c, 9, 36, 92
1, 290399, Note_on_c, 9, 41, 0
1, 290399, Note_on_c, 9, 36, 0
1, 290400, Note_on_c, 9, 38, 105
1, 290719, Note_on_c, 9, 38, 0
1, 290720, Note_on_c, 9, 45, 79
1, 290879, Note_on_c, 9, 45, 0
1, 290880, Note_on_c, 9, 41, 95
1, 290880, Note_on_c, 9, 36, 92
1, 291199, Note_on_c, 9, 41, 0
1, 291199, Note_on_c, 9, 36, 0
1, 291200, Note_on_c, 9, 41, 95
1, 291200, Note_on_c, 9, 36, 92
1, 291359, Note_on_c, 9, 41, 0
1, 291359, Note_on_c, 9, 36, 0
1, 291360, Note_on_c, 9, 38, 105
1, 291360, Note_on_c, 9, 39, 116
1, 291679, Note_on_c, 9, 38, 0
1, 291679, Note_on_c, 9, 39, 0
1, 291680, Note_on_c, 9, 45, 79
1, 291680, Note_on_c, 9, 39, 116
1, 291839, Note_on_c, 9, 45, 0
1, 291839, Note_on_c, 9, 39, 0
1, 291840, Note_on_c, 9, 41, 95
1, 291840, Note_on_c, 9, 36, 92
1, 292159, Note_on_c, 9, 41, 0
1, 292159, Note_on_c, 9, 36, 0
1, 292160, Note_on_c, 9, 41, 95
1, 292160, Note_on_c, 9, 36, 92
1, 292319, Note_on_c, 9, 41, 0
1, 292319, Note_on_c, 9, 36, 0
1, 292320, Note_on_c, 9, 38, 105
1, 292639, Note_on_c, 9, 38, 0
1, 292640, Note_on_c, 9, 45, 79
1, 292799, Note_on_c, 9, 45, 0
1, 292800, Note_on_c, 9, 41, 95
1, 292800, Note_on_c, 9, 36, 92
1, 293119, Note_on_c, 9, 41, 0
1, 293119, Note_on_c, 9, 36, 0
1, 293120, Note_on_c, 9, 41, 95
1, 293120, Note_on_c, 9, 36, 92
1, 293279, Note_on_c, 9, 41, 0
1, 293279, Note_on_c, 9, 36, 0
1, 293280, Note_on_c, 9, 38, 105
1, 293280, Note_on_c, 9, 39, 116
1, 293599, Note_on_c, 9, 38, 0
1, 293599, Note_on_c, 9, 39, 0
1, 293600, Note_on_c, 9, 45, 79
1, 293600, Note_on_c, 9, 39, 116
1, 293759, Note_on_c, 9, 45, 0
1, 293759, Note_on_c, 9, 39, 0
1, 293760, Note_on_c, 9, 41, 95
1, 293760, Note_on_c, 9, 36, 92
1, 294079, Note_on_c, 9, 41, 0
1, 294079, Note_on_c, 9, 36, 0
1, 294080, Note_on_c, 9, 41, 95
1, 294080, Note_on_c, 9, 36, 92
1, 294239, Note_on_c, 9, 41, 0
1, 294239, Note_on_c, 9, 36, 0
1, 294240, Note_on_c, 9, 38, 105
1, 294559, Note_on_c, 9, 38, 0
1, 294560, Note_on_c, 9, 45, 79
1, 294719, Note_on_c, 9, 45, 0
1, 294720, Note_on_c, 9, 41, 95
1, 294720, Note_on_c, 9, 36, 92
1, 295039, Note_on_c, 9, 41, 0
1, 295039, Note_on_c, 9, 36, 0
1, 295040, Note_on_c, 9, 41, 95
1, 295040, Note_on_c, 9, 36, 92
1, 295199, Note_on_c, 9, 41, 0
1, 295199, Note_on_c, 9, 36, 0
1, 295200, Note_on_c, 9, 38, 105
1, 295200, Note_on_c, 9, 39, 116
1, 295519, Note_on_c, 9, 38, 0
1, 295519, Note_on_c, 9, 39, 0
1, 295520, Note_on_c, 9, 45, 79
1, 295520, Note_on_c, 9, 39, 116
1, 295679, Note_on_c, 9, 45, 0
1, 295679, Note_on_c, 9, 39, 0
1, 295680, Note_on_c, 9, 41, 95
1, 295680, Note_on_c, 9, 36, 92
1, 295999, Note_on_c, 9, 41, 0
1, 295999, Note_on_c, 9, 36, 0
1, 296000, Note_on_c, 9, 41, 95
1, 296000, Note_on_c, 9, 36, 92
1, 296159, Note_on_c, 9, 41, 0
1, 296159, Note_on_c, 9, 36, 0
1, 296160, Note_on_c, 9, 38, 105
1, 296479, Note_on_c, 9, 38, 0
1, 296480, Note_on_c, 9, 45, 79
1, 296639, Note_on_c, 9, 45, 0
1, 296640, Note_on_c, 9, 41, 95
1, 296640, Note_on_c, 9, 36, 92
1, 296959, Note_on_c, 9, 41, 0
1, 296959, Note_on_c, 9, 36, 0
1, 296960, Note_on_c, 9, 41, 95
1, 296960, Note_on_c, 9, 36, 92
1, 297119, Note_on_c, 9, 41, 0
1, 297119, Note_on_c, 9, 36, 0
1, 297120, Note_on_c, 9, 38, 105
1, 297120, Note_on_c, 9, 39, 116
1, 297439, Note_on_c, 9, 38, 0
1, 297439, Note_on_c, 9, 39, 0
1, 297440, Note_on_c, 9, 45, 79
1, 297440, Note_on_c, 9, 39, 116
1, 297599, Note_on_c, 9, 45, 0
1, 297599, Note_on_c, 9, 39, 0
1, 297600, Note_on_c, 9, 41, 95
1, 297600, Note_on_c, 9, 36, 92
1, 297919, Note_on_c, 9, 41, 0
1, 297919, Note_on_c, 9, 36, 0
1, 297920, Note_on_c, 9, 41, 95
1, 297920, Note_on_c, 9, 36, 92
1, 298079, Note_on_c, 9, 41, 0
1, 298079, Note_on_c, 9, 36, 0
1, 298080, Note_on_c, 9, 38, 105
1, 298399, Note_on_c, 9, 38, 0
1, 298400, Note_on_c, 9, 45, 79
1, 298559, Note_on_c, 9, 45, 0
1, 298560, Note_on_c, 9, 41, 95
1, 298560, Note_on_c, 9, 36, 92
1, 298879, Note_on_c, 9, 41, 0
1, 298879, Note_on_c, 9, 36, 0
1, 298880, Note_on_c, 9, 41, 95
1, 298880, Note_on_c, 9, 36, 92
1, 299039, Note_on_c, 9, 41, 0
1, 299039, Note_on_c, 9, 36, 0
1, 299040, Note_on_c, 9, 38, 105
1, 299040, Note_on_c, 9, 39, 116
1, 299359, Note_on_c, 9, 38, 0
1, 299359, Note_on_c, 9, 39, 0
1, 299360, Note_on_c, 9, 45, 79
1, 299360, Note_on_c, 9, 39, 116
1, 299519, Note_on_c, 9, 45, 0
1, 299519, Note_on_c, 9, 39, 0
1, 299520, Note_on_c, 9, 36, 92
1, 299839, Note_on_c, 9, 36, 0
1, 299840, Note_on_c, 9, 38, 105
1, 299840, Note_on_c, 9, 40, 116
1, 299840, Note_on_c, 9, 36, 92
1, 299999, Note_on_c, 9, 38, 0
1, 299999, Note_on_c, 9, 40, 0
1, 299999, Note_on_c, 9, 36, 0
1, 300000, Note_on_c, 9, 36, 116
1, 300319, Note_on_c, 9, 36, 0
1, 300320, Note_on_c, 9, 38, 89
1, 300320, Note_on_c, 9, 40, 116
1, 300320, Note_on_c, 9, 36, 116
1, 300479, Note_on_c, 9, 38, 0
1, 300479, Note_on_c, 9, 40, 0
1, 300479, Note_on_c, 9, 36, 0
1, 300480, Note_on_c, 9, 36, 92
1, 300799, Note_on_c, 9, 36, 0
1, 300800, Note_on_c, 9, 38, 118
1, 300800, Note_on_c, 9, 40, 116
1, 300800, Note_on_c, 9, 36, 92
1, 300959, Note_on_c, 9, 38, 0
1, 300959, Note_on_c, 9, 40, 0
1, 300959, Note_on_c, 9, 36, 0
1, 300960, Note_on_c, 9, 38, 105
1, 300960, Note_on_c, 9, 49, 88
1, 300975, Note_on_c, 9, 49, 0
1, 301279, Note_on_c, 9, 38, 0
1, 301280, Note_on_c, 9, 38, 120
1, 301280, Note_on_c, 9, 49, 88
1, 301287, Note_on_c, 9, 49, 0
1, 301439, Note_on_c, 9, 38, 0
1, 301440, Note_on_c, 9, 41, 95
1, 301440, Note_on_c, 9, 36, 92
1, 301759, Note_on_c, 9, 41, 0
1, 301759, Note_on_c, 9, 36, 0
1, 301760, Note_on_c, 9, 41, 95
1, 301760, Note_on_c, 9, 36, 92
1, 301919, Note_on_c, 9, 41, 0
1, 301919, Note_on_c, 9, 36, 0
1, 301920, Note_on_c, 9, 38, 105
1, 302239, Note_on_c, 9, 38, 0
1, 302240, Note_on_c, 9, 45, 79
1, 302399, Note_on_c, 9, 45, 0
1, 302400, Note_on_c, 9, 41, 95
1, 302400, Note_on_c, 9, 36, 92
1, 302719, Note_on_c, 9, 41, 0
1, 302719, Note_on_c, 9, 36, 0
1, 302720, Note_on_c, 9, 41, 95
1, 302720, Note_on_c, 9, 36, 92
1, 302879, Note_on_c, 9, 41, 0
1, 302879, Note_on_c, 9, 36, 0
1, 302880, Note_on_c, 9, 38, 105
1, 302880, Note_on_c, 9, 39, 116
1, 303199, Note_on_c, 9, 38, 0
1, 303199, Note_on_c, 9, 39, 0
1, 303200, Note_on_c, 9, 45, 79
1, 303200, Note_on_c, 9, 39, 116
1, 303359, Note_on_c, 9, 45, 0
1, 303359, Note_on_c, 9, 39, 0
1, 303360, Note_on_c, 9, 41, 95
1, 303360, Note_on_c, 9, 36, 92
1, 303679, Note_on_c, 9, 41, 0
1, 303679, Note_on_c, 9, 36, 0
1, 303680, Note_on_c, 9, 41, 95
1, 303680, Note_on_c, 9, 36, 92
1, 303839, Note_on_c, 9, 41, 0
1, 303839, Note_on_c, 9, 36, 0
1, 303840, Note_on_c, 9, 38, 105
1, 304159, Note_on_c, 9, 38, 0
1, 304160, Note_on_c, 9, 45, 79
1, 304319, Note_on_c, 9, 45, 0
1, 304320, Note_on_c, 9, 41, 95
1, 304320, Note_on_c, 9, 36, 92
1, 304639, Note_on_c, 9, 41, 0
1, 304639, Note_on_c, 9, 36, 0
1, 304640, Note_on_c, 9, 41, 95
1, 304640, Note_on_c, 9, 36, 92
1, 304799, Note_on_c, 9, 41, 0
1, 304799, Note_on_c, 9, 36, 0
1, 304800, Note_on_c, 9, 38, 105
1, 304800, Note_on_c, 9, 39, 116
1, 305119, Note_on_c, 9, 38, 0
1, 305119, Note_on_c, 9, 39, 0
1, 305120, Note_on_c, 9, 45, 79
1, 305120, Note_on_c, 9, 39, 116
1, 305279, Note_on_c, 9, 45, 0
1, 305279, Note_on_c, 9, 39, 0
1, 305280, Note_on_c, 9, 41, 95
1, 305280, Note_on_c, 9, 36, 92
1, 305599, Note_on_c, 9, 41, 0
1, 305599, Note_on_c, 9, 36, 0
1, 305600, Note_on_c, 9, 41, 95
1, 305600, Note_on_c, 9, 36, 92
1, 305759, Note_on_c, 9, 41, 0
1, 305759, Note_on_c, 9, 36, 0
1, 305760, Note_on_c, 9, 38, 105
1, 306079, Note_on_c, 9, 38, 0
1, 306080, Note_on_c, 9, 45, 79
1, 306239, Note_on_c, 9, 45, 0
1, 306240, Note_on_c, 9, 41, 95
1, 306240, Note_on_c, 9, 36, 92
1, 306559, Note_on_c, 9, 41, 0
1, 306559, Note_on_c, 9, 36, 0
1, 306560, Note_on_c, 9, 41, 95
1, 306560, Note_on_c, 9, 36, 92
1, 306719, Note_on_c, 9, 41, 0
1, 306719, Note_on_c, 9, 36, 0
1, 306720, Note_on_c, 9, 38, 105
1, 306720, Note_on_c, 9, 39, 116
1, 307039, Note_on_c, 9, 38, 0
1, 307039, Note_on_c, 9, 39, 0
1, 307040, Note_on_c, 9, 45, 79
1, 307040, Note_on_c, 9, 39, 116
1, 307199, Note_on_c, 9, 45, 0
1, 307199, Note_on_c, 9, 39, 0
1, 307200, Note_on_c, 9, 41, 95
1, 307200, Note_on_c, 9, 36, 92
1, 307519, Note_on_c, 9, 41, 0
1, 307519, Note_on_c, 9, 36, 0
1, 307520, Note_on_c, 9, 41, 95
1, 307520, Note_on_c, 9, 36, 92
1, 307679, Note_on_c, 9, 41, 0
1, 307679, Note_on_c, 9, 36, 0
1, 307680, Note_on_c, 9, 38, 105
1, 307999, Note_on_c, 9, 38, 0
1, 308000, Note_on_c, 9, 45, 79
1, 308159, Note_on_c, 9, 45, 0
1, 308160, Note_on_c, 9, 41, 95
1, 308160, Note_on_c, 9, 36, 92
1, 308479, Note_on_c, 9, 41, 0
1, 308479, Note_on_c, 9, 36, 0
1, 308480, Note_on_c, 9, 41, 95
1, 308480, Note_on_c, 9, 36, 92
1, 308639, Note_on_c, 9, 41, 0
1, 308639, Note_on_c, 9, 36, 0
1, 308640, Note_on_c, 9, 38, 105
1, 308640, Note_on_c, 9, 39, 116
1, 308959, Note_on_c, 9, 38, 0
1, 308959, Note_on_c, 9, 39, 0
1, 308960, Note_on_c, 9, 45, 79
1, 308960, Note_on_c, 9, 39, 116
1, 309119, Note_on_c, 9, 45, 0
1, 309119, Note_on_c, 9, 39, 0
1, 309120, End_track
0, 0, End_of_file
