0, 0, Header, 1, 1, 480
1, 0, Start_track
1, 0, Title_t, "Drumset"
1, 0, Time_signature, 4, 2, 24, 8
1, 0, Key_signature, 0, "major"
1, 0, Tempo, 800000
1, 0, Control_c, 9, 121, 0
1, 0, Program_c, 9, 0
1, 0, Control_c, 9, 7, 110
1, 0, Control_c, 9, 10, 64
1, 0, Control_c, 9, 91, 0
1, 0, Control_c, 9, 93, 0
1, 0, MIDI_port, 0
1, 1920, Note_on_c, 9, 36, 80
1, 2279, Note_on_c, 9, 36, 0
1, 2280, Note_on_c, 9, 36, 69
1, 2399, Note_on_c, 9, 36, 0
1, 2400, Note_on_c, 9, 36, 95
1, 2520, Note_on_c, 9, 51, 75
1, 2522, Note_on_c, 9, 51, 0
1, 2640, Note_on_c, 9, 51, 75
1, 2646, Note_on_c, 9, 51, 0
1, 2879, Note_on_c, 9, 36, 0
1, 2880, Note_on_c, 9, 36, 80
1, 3239, Note_on_c, 9, 36, 0
1, 3240, Note_on_c, 9, 36, 69
1, 3359, Note_on_c, 9, 36, 0
1, 3360, Note_on_c, 9, 36, 95
1, 3480, Note_on_c, 9, 51, 75
1, 3482, Note_on_c, 9, 51, 0
1, 3600, Note_on_c, 9, 51, 75
1, 3606, Note_on_c, 9, 51, 0
1, 3839, Note_on_c, 9, 36, 0
1, 3840, Note_on_c, 9, 36, 80
1, 4199, Note_on_c, 9, 36, 0
1, 4200, Note_on_c, 9, 36, 69
1, 4319, Note_on_c, 9, 36, 0
1, 4320, Note_on_c, 9, 36, 95
1, 4440, Note_on_c, 9, 51, 75
1, 4442, Note_on_c, 9, 51, 0
1, 4560, Note_on_c, 9, 51, 75
1, 4566, Note_on_c, 9, 51, 0
1, 4799, Note_on_c, 9, 36, 0
1, 4800, Note_on_c, 9, 36, 80
1, 5159, Note_on_c, 9, 36, 0
1, 5160, Note_on_c, 9, 36, 69
1, 5279, Note_on_c, 9, 36, 0
1, 5280, Note_on_c, 9, 36, 95
1, 5400, Note_on_c, 9, 51, 75
1, 5402, Note_on_c, 9, 51, 0
1, 5520, Note_on_c, 9, 51, 75
1, 5526, Note_on_c, 9, 51, 0
1, 5759, Note_on_c, 9, 36, 0
1, 5760, Note_on_c, 9, 36, 80
1, 6119, Note_on_c, 9, 36, 0
1, 6120, Note_on_c, 9, 36, 69
1, 6239, Note_on_c, 9, 36, 0
1, 6240, Note_on_c, 9, 36, 95
1, 6360, Note_on_c, 9, 51, 75
1, 6362, Note_on_c, 9, 51, 0
1, 6480, Note_on_c, 9, 51, 75
1, 6486, Note_on_c, 9, 51, 0
1, 6719, Note_on_c, 9, 36, 0
1, 6720, Note_on_c, 9, 36, 80
1, 7079, Note_on_c, 9, 36, 0
1, 7080, Note_on_c, 9, 36, 69
1, 7199, Note_on_c, 9, 36, 0
1, 7200, Note_on_c, 9, 36, 95
1, 7320, Note_on_c, 9, 51, 75
1, 7322, Note_on_c, 9, 51, 0
1, 7440, Note_on_c, 9, 51, 75
1, 7446, Note_on_c, 9, 51, 0
1, 7679, Note_on_c, 9, 36, 0
1, 7680, Note_on_c, 9, 36, 80
1, 8039, Note_on_c, 9, 36, 0
1, 8040, Note_on_c, 9, 36, 69
1, 8159, Note_on_c, 9, 36, 0
1, 8160, Note_on_c, 9, 36, 95
1, 8280, Note_on_c, 9, 51, 75
1, 8282, Note_on_c, 9, 51, 0
1, 8400, Note_on_c, 9, 51, 75
1, 8406, Note_on_c, 9, 51, 0
1, 8639, Note_on_c, 9, 36, 0
1, 8640, Note_on_c, 9, 36, 80
1, 8999, Note_on_c, 9, 36, 0
1, 9000, Note_on_c, 9, 36, 69
1, 9119, Note_on_c, 9, 36, 0
1, 9120, Note_on_c, 9, 36, 95
1, 9240, Note_on_c, 9, 51, 75
1, 9242, Note_on_c, 9, 51, 0
1, 9360, Note_on_c, 9, 51, 75
1, 9366, Note_on_c, 9, 51, 0
1, 9599, Note_on_c, 9, 36, 0
1, 9600, Note_on_c, 9, 36, 80
1, 9959, Note_on_c, 9, 36, 0
1, 9960, Note_on_c, 9, 36, 69
1, 10079, Note_on_c, 9, 36, 0
1, 10080, Note_on_c, 9, 36, 95
1, 10200, Note_on_c, 9, 51, 75
1, 10202, Note_on_c, 9, 51, 0
1, 10320, Note_on_c, 9, 51, 75
1, 10326, Note_on_c, 9, 51, 0
1, 10559, Note_on_c, 9, 36, 0
1, 10560, Note_on_c, 9, 36, 80
1, 10919, Note_on_c, 9, 36, 0
1, 10920, Note_on_c, 9, 36, 69
1, 11039, Note_on_c, 9, 36, 0
1, 11040, Note_on_c, 9, 36, 95
1, 11160, Note_on_c, 9, 51, 75
1, 11162, Note_on_c, 9, 51, 0
1, 11280, Note_on_c, 9, 51, 75
1, 11286, Note_on_c, 9, 51, 0
1, 11519, Note_on_c, 9, 36, 0
1, 11520, Note_on_c, 9, 36, 80
1, 11879, Note_on_c, 9, 36, 0
1, 11880, Note_on_c, 9, 36, 69
1, 11999, Note_on_c, 9, 36, 0
1, 12000, Note_on_c, 9, 36, 95
1, 12120, Note_on_c, 9, 51, 75
1, 12122, Note_on_c, 9, 51, 0
1, 12240, Note_on_c, 9, 51, 75
1, 12246, Note_on_c, 9, 51, 0
1, 12479, Note_on_c, 9, 36, 0
1, 12480, Note_on_c, 9, 36, 80
1, 12839, Note_on_c, 9, 36, 0
1, 12840, Note_on_c, 9, 36, 69
1, 12959, Note_on_c, 9, 36, 0
1, 12960, Note_on_c, 9, 36, 95
1, 13080, Note_on_c, 9, 51, 75
1, 13082, Note_on_c, 9, 51, 0
1, 13200, Note_on_c, 9, 51, 75
1, 13206, Note_on_c, 9, 51, 0
1, 13439, Note_on_c, 9, 36, 0
1, 13440, Note_on_c, 9, 36, 80
1, 13799, Note_on_c, 9, 36, 0
1, 13800, Note_on_c, 9, 36, 69
1, 13919, Note_on_c, 9, 36, 0
1, 13920, Note_on_c, 9, 36, 95
1, 14040, Note_on_c, 9, 51, 75
1, 14042, Note_on_c, 9, 51, 0
1, 14160, Note_on_c, 9, 51, 75
1, 14166, Note_on_c, 9, 51, 0
1, 14399, Note_on_c, 9, 36, 0
1, 14400, Note_on_c, 9, 36, 80
1, 14759, Note_on_c, 9, 36, 0
1, 14760, Note_on_c, 9, 36, 69
1, 14879, Note_on_c, 9, 36, 0
1, 14880, Note_on_c, 9, 36, 95
1, 15000, Note_on_c, 9, 51, 75
1, 15002, Note_on_c, 9, 51, 0
1, 15120, Note_on_c, 9, 51, 75
1, 15126, Note_on_c, 9, 51, 0
1, 15359, Note_on_c, 9, 36, 0
1, 15360, Note_on_c, 9, 36, 80
1, 15719, Note_on_c, 9, 36, 0
1, 15720, Note_on_c, 9, 36, 69
1, 15839, Note_on_c, 9, 36, 0
1, 15840, Note_on_c, 9, 36, 95
1, 15960, Note_on_c, 9, 51, 75
1, 15962, Note_on_c, 9, 51, 0
1, 16080, Note_on_c, 9, 51, 75
1, 16086, Note_on_c, 9, 51, 0
1, 16319, Note_on_c, 9, 36, 0
1, 16320, Note_on_c, 9, 36, 80
1, 16679, Note_on_c, 9, 36, 0
1, 16680, Note_on_c, 9, 36, 69
1, 16799, Note_on_c, 9, 36, 0
1, 16800, Note_on_c, 9, 36, 95
1, 16920, Note_on_c, 9, 51, 75
1, 16922, Note_on_c, 9, 51, 0
1, 17040, Note_on_c, 9, 51, 75
1, 17046, Note_on_c, 9, 51, 0
1, 17279, Note_on_c, 9, 36, 0
1, 17280, Note_on_c, 9, 36, 80
1, 17639, Note_on_c, 9, 36, 0
1, 17640, Note_on_c, 9, 36, 69
1, 17759, Note_on_c, 9, 36, 0
1, 17760, Note_on_c, 9, 36, 95
1, 17880, Note_on_c, 9, 51, 75
1, 17882, Note_on_c, 9, 51, 0
1, 18000, Note_on_c, 9, 51, 75
1, 18006, Note_on_c, 9, 51, 0
1, 18239, Note_on_c, 9, 36, 0
1, 18240, Note_on_c, 9, 36, 80
1, 18599, Note_on_c, 9, 36, 0
1, 18600, Note_on_c, 9, 36, 69
1, 18719, Note_on_c, 9, 36, 0
1, 18720, Note_on_c, 9, 36, 95
1, 18840, Note_on_c, 9, 51, 75
1, 18842, Note_on_c, 9, 51, 0
1, 18960, Note_on_c, 9, 51, 75
1, 18966, Note_on_c, 9, 51, 0
1, 19199, Note_on_c, 9, 36, 0
1, 19200, Note_on_c, 9, 36, 80
1, 19559, Note_on_c, 9, 36, 0
1, 19560, Note_on_c, 9, 36, 69
1, 19679, Note_on_c, 9, 36, 0
1, 19680, Note_on_c, 9, 36, 95
1, 19800, Note_on_c, 9, 51, 75
1, 19802, Note_on_c, 9, 51, 0
1, 19920, Note_on_c, 9, 51, 75
1, 19926, Note_on_c, 9, 51, 0
1, 20159, Note_on_c, 9, 36, 0
1, 20160, Note_on_c, 9, 36, 80
1, 20519, Note_on_c, 9, 36, 0
1, 20520, Note_on_c, 9, 36, 69
1, 20639, Note_on_c, 9, 36, 0
1, 20640, Note_on_c, 9, 36, 95
1, 20760, Note_on_c, 9, 51, 75
1, 20762, Note_on_c, 9, 51, 0
1, 20880, Note_on_c, 9, 51, 75
1, 20886, Note_on_c, 9, 51, 0
1, 21119, Note_on_c, 9, 36, 0
1, 21120, Note_on_c, 9, 36, 80
1, 21479, Note_on_c, 9, 36, 0
1, 21480, Note_on_c, 9, 36, 69
1, 21599, Note_on_c, 9, 36, 0
1, 21600, Note_on_c, 9, 36, 95
1, 21720, Note_on_c, 9, 51, 75
1, 21722, Note_on_c, 9, 51, 0
1, 21840, Note_on_c, 9, 51, 75
1, 21846, Note_on_c, 9, 51, 0
1, 22079, Note_on_c, 9, 36, 0
1, 22080, Note_on_c, 9, 36, 80
1, 22439, Note_on_c, 9, 36, 0
1, 22440, Note_on_c, 9, 36, 69
1, 22559, Note_on_c, 9, 36, 0
1, 22560, Note_on_c, 9, 36, 95
1, 22680, Note_on_c, 9, 51, 75
1, 22682, Note_on_c, 9, 51, 0
1, 22800, Note_on_c, 9, 51, 75
1, 22806, Note_on_c, 9, 51, 0
1, 23039, Note_on_c, 9, 36, 0
1, 23040, Note_on_c, 9, 36, 80
1, 23399, Note_on_c, 9, 36, 0
1, 23400, Note_on_c, 9, 36, 69
1, 23519, Note_on_c, 9, 36, 0
1, 23520, Note_on_c, 9, 36, 95
1, 23640, Note_on_c, 9, 51, 75
1, 23642, Note_on_c, 9, 51, 0
1, 23760, Note_on_c, 9, 51, 75
1, 23766, Note_on_c, 9, 51, 0
1, 23999, Note_on_c, 9, 36, 0
1, 24000, Note_on_c, 9, 55, 75
1, 24000, Note_on_c, 9, 36, 80
1, 24013, Note_on_c, 9, 55, 0
1, 24359, Note_on_c, 9, 36, 0
1, 24360, Note_on_c, 9, 36, 69
1, 24479, Note_on_c, 9, 36, 0
1, 24480, Note_on_c, 9, 36, 95
1, 24959, Note_on_c, 9, 36, 0
1, 39360, Note_on_c, 9, 46, 120
1, 39360, Note_on_c, 9, 46, 0
1, 39400, Note_on_c, 9, 46, 120
1, 39400, Note_on_c, 9, 46, 0
1, 39440, Note_on_c, 9, 46, 120
1, 39440, Note_on_c, 9, 46, 0
1, 39480, Note_on_c, 9, 46, 120
1, 39480, Note_on_c, 9, 46, 0
1, 39510, Note_on_c, 9, 46, 120
1, 39510, Note_on_c, 9, 46, 0
1, 39570, Note_on_c, 9, 46, 120
1, 39570, Note_on_c, 9, 46, 0
1, 39600, Note_on_c, 9, 46, 120
1, 39600, Note_on_c, 9, 46, 0
1, 39630, Note_on_c, 9, 46, 120
1, 39630, Note_on_c, 9, 46, 0
1, 39690, Note_on_c, 9, 46, 120
1, 39690, Note_on_c, 9, 46, 0
1, 39720, Note_on_c, 9, 46, 120
1, 39720, Note_on_c, 9, 46, 0
1, 39750, Note_on_c, 9, 46, 120
1, 39750, Note_on_c, 9, 46, 0
1, 39810, Note_on_c, 9, 46, 120
1, 39810, Note_on_c, 9, 46, 0
1, 39840, Note_on_c, 9, 46, 120
1, 39840, Note_on_c, 9, 46, 0
1, 39870, Note_on_c, 9, 46, 120
1, 39870, Note_on_c, 9, 46, 0
1, 39930, Note_on_c, 9, 46, 120
1, 39930, Note_on_c, 9, 46, 0
1, 39960, Note_on_c, 9, 46, 120
1, 39960, Note_on_c, 9, 46, 0
1, 39990, Note_on_c, 9, 46, 120
1, 39990, Note_on_c, 9, 46, 0
1, 40050, Note_on_c, 9, 46, 120
1, 40050, Note_on_c, 9, 46, 0
1, 40080, Note_on_c, 9, 46, 120
1, 40080, Note_on_c, 9, 46, 0
1, 40110, Note_on_c, 9, 46, 120
1, 40110, Note_on_c, 9, 46, 0
1, 40170, Note_on_c, 9, 46, 120
1, 40170, Note_on_c, 9, 46, 0
1, 40200, Note_on_c, 9, 46, 120
1, 40200, Note_on_c, 9, 46, 0
1, 40230, Note_on_c, 9, 46, 120
1, 40230, Note_on_c, 9, 46, 0
1, 40290, Note_on_c, 9, 46, 120
1, 40290, Note_on_c, 9, 46, 0
1, 40320, Note_on_c, 9, 46, 120
1, 40320, Note_on_c, 9, 46, 0
1, 40350, Note_on_c, 9, 46, 120
1, 40350, Note_on_c, 9, 46, 0
1, 40410, Note_on_c, 9, 46, 120
1, 40410, Note_on_c, 9, 46, 0
1, 40440, Note_on_c, 9, 46, 120
1, 40440, Note_on_c, 9, 46, 0
1, 40470, Note_on_c, 9, 46, 120
1, 40470, Note_on_c, 9, 46, 0
1, 40530, Note_on_c, 9, 46, 120
1, 40530, Note_on_c, 9, 46, 0
1, 40560, Note_on_c, 9, 46, 120
1, 40560, Note_on_c, 9, 46, 0
1, 40590, Note_on_c, 9, 46, 120
1, 40590, Note_on_c, 9, 46, 0
1, 40650, Note_on_c, 9, 46, 120
1, 40650, Note_on_c, 9, 46, 0
1, 40680, Note_on_c, 9, 46, 120
1, 40680, Note_on_c, 9, 46, 0
1, 40710, Note_on_c, 9, 46, 120
1, 40710, Note_on_c, 9, 46, 0
1, 40770, Note_on_c, 9, 46, 120
1, 40770, Note_on_c, 9, 46, 0
1, 40800, Note_on_c, 9, 46, 120
1, 40800, Note_on_c, 9, 46, 0
1, 40830, Note_on_c, 9, 46, 120
1, 40830, Note_on_c, 9, 46, 0
1, 40890, Note_on_c, 9, 46, 120
1, 40890, Note_on_c, 9, 46, 0
1, 40920, Note_on_c, 9, 46, 120
1, 40920, Note_on_c, 9, 46, 0
1, 40950, Note_on_c, 9, 46, 120
1, 40950, Note_on_c, 9, 46, 0
1, 41010, Note_on_c, 9, 46, 120
1, 41010, Note_on_c, 9, 46, 0
1, 41040, Note_on_c, 9, 46, 120
1, 41040, Note_on_c, 9, 46, 0
1, 41070, Note_on_c, 9, 46, 120
1, 41070, Note_on_c, 9, 46, 0
1, 41130, Note_on_c, 9, 46, 120
1, 41130, Note_on_c, 9, 46, 0
1, 41160, Note_on_c, 9, 46, 120
1, 41160, Note_on_c, 9, 46, 0
1, 41190, Note_on_c, 9, 46, 120
1, 41190, Note_on_c, 9, 46, 0
1, 41250, Note_on_c, 9, 46, 120
1, 41250, Note_on_c, 9, 46, 0
1, 41280, Note_on_c, 9, 46, 120
1, 41280, Note_on_c, 9, 46, 0
1, 41310, Note_on_c, 9, 46, 120
1, 41310, Note_on_c, 9, 46, 0
1, 41370, Note_on_c, 9, 46, 120
1, 41370, Note_on_c, 9, 46, 0
1, 41400, Note_on_c, 9, 46, 120
1, 41400, Note_on_c, 9, 46, 0
1, 41430, Note_on_c, 9, 46, 120
1, 41430, Note_on_c, 9, 46, 0
1, 41490, Note_on_c, 9, 46, 120
1, 41490, Note_on_c, 9, 46, 0
1, 41520, Note_on_c, 9, 46, 120
1, 41520, Note_on_c, 9, 46, 0
1, 41550, Note_on_c, 9, 46, 120
1, 41550, Note_on_c, 9, 46, 0
1, 41610, Note_on_c, 9, 46, 120
1, 41610, Note_on_c, 9, 46, 0
1, 41640, Note_on_c, 9, 46, 120
1, 41640, Note_on_c, 9, 46, 0
1, 41670, Note_on_c, 9, 46, 120
1, 41670, Note_on_c, 9, 46, 0
1, 41730, Note_on_c, 9, 46, 120
1, 41730, Note_on_c, 9, 46, 0
1, 41760, Note_on_c, 9, 46, 120
1, 41760, Note_on_c, 9, 46, 0
1, 41790, Note_on_c, 9, 46, 120
1, 41790, Note_on_c, 9, 46, 0
1, 41850, Note_on_c, 9, 46, 120
1, 41850, Note_on_c, 9, 46, 0
1, 41880, Note_on_c, 9, 46, 120
1, 41880, Note_on_c, 9, 46, 0
1, 41910, Note_on_c, 9, 46, 120
1, 41910, Note_on_c, 9, 46, 0
1, 41970, Note_on_c, 9, 46, 120
1, 41970, Note_on_c, 9, 46, 0
1, 42000, Note_on_c, 9, 46, 120
1, 42000, Note_on_c, 9, 46, 0
1, 42030, Note_on_c, 9, 46, 120
1, 42030, Note_on_c, 9, 46, 0
1, 42090, Note_on_c, 9, 46, 120
1, 42090, Note_on_c, 9, 46, 0
1, 42120, Note_on_c, 9, 46, 120
1, 42120, Note_on_c, 9, 46, 0
1, 42160, Note_on_c, 9, 46, 120
1, 42160, Note_on_c, 9, 46, 0
1, 42200, Note_on_c, 9, 46, 120
1, 42200, Note_on_c, 9, 46, 0
1, 51840, Note_on_c, 9, 36, 80
1, 52199, Note_on_c, 9, 36, 0
1, 52200, Note_on_c, 9, 36, 69
1, 52319, Note_on_c, 9, 36, 0
1, 52320, Note_on_c, 9, 36, 95
1, 52440, Note_on_c, 9, 51, 75
1, 52442, Note_on_c, 9, 51, 0
1, 52560, Note_on_c, 9, 51, 75
1, 52566, Note_on_c, 9, 51, 0
1, 52799, Note_on_c, 9, 36, 0
1, 52800, Note_on_c, 9, 36, 80
1, 53159, Note_on_c, 9, 36, 0
1, 53160, Note_on_c, 9, 36, 69
1, 53279, Note_on_c, 9, 36, 0
1, 53280, Note_on_c, 9, 36, 95
1, 53400, Note_on_c, 9, 51, 75
1, 53402, Note_on_c, 9, 51, 0
1, 53520, Note_on_c, 9, 51, 75
1, 53526, Note_on_c, 9, 51, 0
1, 53759, Note_on_c, 9, 36, 0
1, 53760, Note_on_c, 9, 36, 80
1, 54119, Note_on_c, 9, 36, 0
1, 54120, Note_on_c, 9, 36, 69
1, 54239, Note_on_c, 9, 36, 0
1, 54240, Note_on_c, 9, 36, 95
1, 54360, Note_on_c, 9, 51, 75
1, 54362, Note_on_c, 9, 51, 0
1, 54480, Note_on_c, 9, 51, 75
1, 54486, Note_on_c, 9, 51, 0
1, 54719, Note_on_c, 9, 36, 0
1, 54720, Note_on_c, 9, 36, 80
1, 55079, Note_on_c, 9, 36, 0
1, 55080, Note_on_c, 9, 36, 69
1, 55199, Note_on_c, 9, 36, 0
1, 55200, Note_on_c, 9, 36, 95
1, 55320, Note_on_c, 9, 51, 75
1, 55322, Note_on_c, 9, 51, 0
1, 55440, Note_on_c, 9, 51, 75
1, 55446, Note_on_c, 9, 51, 0
1, 55679, Note_on_c, 9, 36, 0
1, 55680, Note_on_c, 9, 36, 80
1, 56039, Note_on_c, 9, 36, 0
1, 56040, Note_on_c, 9, 36, 69
1, 56159, Note_on_c, 9, 36, 0
1, 56160, Note_on_c, 9, 36, 95
1, 56280, Note_on_c, 9, 51, 75
1, 56282, Note_on_c, 9, 51, 0
1, 56400, Note_on_c, 9, 51, 75
1, 56406, Note_on_c, 9, 51, 0
1, 56639, Note_on_c, 9, 36, 0
1, 56640, Note_on_c, 9, 36, 80
1, 56999, Note_on_c, 9, 36, 0
1, 57000, Note_on_c, 9, 36, 69
1, 57119, Note_on_c, 9, 36, 0
1, 57120, Note_on_c, 9, 36, 95
1, 57240, Note_on_c, 9, 51, 75
1, 57242, Note_on_c, 9, 51, 0
1, 57360, Note_on_c, 9, 51, 75
1, 57366, Note_on_c, 9, 51, 0
1, 57599, Note_on_c, 9, 36, 0
1, 57600, Note_on_c, 9, 36, 80
1, 57959, Note_on_c, 9, 36, 0
1, 57960, Note_on_c, 9, 36, 69
1, 58079, Note_on_c, 9, 36, 0
1, 58080, Note_on_c, 9, 36, 95
1, 58200, Note_on_c, 9, 51, 75
1, 58202, Note_on_c, 9, 51, 0
1, 58320, Note_on_c, 9, 51, 75
1, 58326, Note_on_c, 9, 51, 0
1, 58559, Note_on_c, 9, 36, 0
1, 58560, Note_on_c, 9, 46, 127
1, 58560, Note_on_c, 9, 46, 0
1, 58560, Note_on_c, 9, 36, 80
1, 58600, Note_on_c, 9, 46, 127
1, 58600, Note_on_c, 9, 46, 0
1, 58640, Note_on_c, 9, 46, 127
1, 58640, Note_on_c, 9, 46, 0
1, 58680, Note_on_c, 9, 46, 127
1, 58680, Note_on_c, 9, 46, 0
1, 58720, Note_on_c, 9, 46, 127
1, 58720, Note_on_c, 9, 46, 0
1, 58760, Note_on_c, 9, 46, 127
1, 58760, Note_on_c, 9, 46, 0
1, 58800, Note_on_c, 9, 46, 127
1, 58800, Note_on_c, 9, 46, 0
1, 58840, Note_on_c, 9, 46, 127
1, 58840, Note_on_c, 9, 46, 0
1, 58880, Note_on_c, 9, 46, 127
1, 58880, Note_on_c, 9, 46, 0
1, 58919, Note_on_c, 9, 36, 0
1, 58920, Note_on_c, 9, 46, 127
1, 58920, Note_on_c, 9, 46, 0
1, 58920, Note_on_c, 9, 36, 69
1, 58960, Note_on_c, 9, 46, 127
1, 58960, Note_on_c, 9, 46, 0
1, 59000, Note_on_c, 9, 46, 127
1, 59000, Note_on_c, 9, 46, 0
1, 59039, Note_on_c, 9, 36, 0
1, 59040, Note_on_c, 9, 46, 127
1, 59040, Note_on_c, 9, 46, 0
1, 59040, Note_on_c, 9, 36, 95
1, 59080, Note_on_c, 9, 46, 127
1, 59080, Note_on_c, 9, 46, 0
1, 59120, Note_on_c, 9, 46, 127
1, 59120, Note_on_c, 9, 46, 0
1, 59160, Note_on_c, 9, 46, 127
1, 59160, Note_on_c, 9, 48, 90
1, 59162, Note_on_c, 9, 46, 0
1, 59279, Note_on_c, 9, 48, 0
1, 59280, Note_on_c, 9, 45, 90
1, 59399, Note_on_c, 9, 45, 0
1, 59400, Note_on_c, 9, 45, 90
1, 59519, Note_on_c, 9, 36, 0
1, 59519, Note_on_c, 9, 45, 0
1, 59520, Note_on_c, 9, 49, 64
1, 59520, Note_on_c, 9, 36, 95
1, 59526, Note_on_c, 9, 49, 0
1, 59760, Note_on_c, 9, 59, 64
1, 59766, Note_on_c, 9, 59, 0
1, 59999, Note_on_c, 9, 36, 0
1, 60000, Note_on_c, 9, 37, 127
1, 60000, Note_on_c, 9, 59, 64
1, 60006, Note_on_c, 9, 37, 0
1, 60006, Note_on_c, 9, 59, 0
1, 60240, Note_on_c, 9, 59, 64
1, 60240, Note_on_c, 9, 36, 95
1, 60246, Note_on_c, 9, 59, 0
1, 60479, Note_on_c, 9, 36, 0
1, 60480, Note_on_c, 9, 59, 64
1, 60486, Note_on_c, 9, 59, 0
1, 60720, Note_on_c, 9, 59, 64
1, 60720, Note_on_c, 9, 36, 95
1, 60726, Note_on_c, 9, 59, 0
1, 60959, Note_on_c, 9, 36, 0
1, 60960, Note_on_c, 9, 37, 127
1, 60960, Note_on_c, 9, 59, 64
1, 60966, Note_on_c, 9, 37, 0
1, 60966, Note_on_c, 9, 59, 0
1, 61200, Note_on_c, 9, 59, 64
1, 61206, Note_on_c, 9, 59, 0
1, 61320, Note_on_c, 9, 36, 95
1, 61439, Note_on_c, 9, 36, 0
1, 61440, Note_on_c, 9, 59, 64
1, 61440, Note_on_c, 9, 36, 95
1, 61446, Note_on_c, 9, 59, 0
1, 61680, Note_on_c, 9, 59, 64
1, 61686, Note_on_c, 9, 59, 0
1, 61919, Note_on_c, 9, 36, 0
1, 61920, Note_on_c, 9, 37, 127
1, 61920, Note_on_c, 9, 59, 64
1, 61926, Note_on_c, 9, 37, 0
1, 61926, Note_on_c, 9, 59, 0
1, 62160, Note_on_c, 9, 59, 64
1, 62160, Note_on_c, 9, 36, 95
1, 62166, Note_on_c, 9, 59, 0
1, 62399, Note_on_c, 9, 36, 0
1, 62400, Note_on_c, 9, 59, 64
1, 62406, Note_on_c, 9, 59, 0
1, 62640, Note_on_c, 9, 59, 64
1, 62640, Note_on_c, 9, 36, 95
1, 62646, Note_on_c, 9, 59, 0
1, 62879, Note_on_c, 9, 36, 0
1, 62880, Note_on_c, 9, 37, 127
1, 62880, Note_on_c, 9, 59, 64
1, 62886, Note_on_c, 9, 37, 0
1, 62886, Note_on_c, 9, 59, 0
1, 63120, Note_on_c, 9, 59, 64
1, 63126, Note_on_c, 9, 59, 0
1, 63240, Note_on_c, 9, 36, 95
1, 63359, Note_on_c, 9, 36, 0
1, 63360, Note_on_c, 9, 59, 64
1, 63360, Note_on_c, 9, 36, 95
1, 63366, Note_on_c, 9, 59, 0
1, 63600, Note_on_c, 9, 59, 64
1, 63606, Note_on_c, 9, 59, 0
1, 63839, Note_on_c, 9, 36, 0
1, 63840, Note_on_c, 9, 37, 127
1, 63840, Note_on_c, 9, 59, 64
1, 63846, Note_on_c, 9, 37, 0
1, 63846, Note_on_c, 9, 59, 0
1, 64080, Note_on_c, 9, 59, 64
1, 64080, Note_on_c, 9, 36, 95
1, 64086, Note_on_c, 9, 59, 0
1, 64319, Note_on_c, 9, 36, 0
1, 64320, Note_on_c, 9, 59, 64
1, 64326, Note_on_c, 9, 59, 0
1, 64560, Note_on_c, 9, 59, 64
1, 64560, Note_on_c, 9, 36, 95
1, 64566, Note_on_c, 9, 59, 0
1, 64799, Note_on_c, 9, 36, 0
1, 64800, Note_on_c, 9, 37, 127
1, 64800, Note_on_c, 9, 59, 64
1, 64806, Note_on_c, 9, 37, 0
1, 64806, Note_on_c, 9, 59, 0
1, 65040, Note_on_c, 9, 59, 64
1, 65046, Note_on_c, 9, 59, 0
1, 65160, Note_on_c, 9, 36, 95
1, 65279, Note_on_c, 9, 36, 0
1, 65280, Note_on_c, 9, 59, 64
1, 65280, Note_on_c, 9, 36, 95
1, 65286, Note_on_c, 9, 59, 0
1, 65519, Note_on_c, 9, 36, 0
1, 65520, Note_on_c, 9, 59, 64
1, 65520, Note_on_c, 9, 36, 95
1, 65526, Note_on_c, 9, 59, 0
1, 65759, Note_on_c, 9, 36, 0
1, 65760, Note_on_c, 9, 37, 127
1, 65760, Note_on_c, 9, 59, 64
1, 65766, Note_on_c, 9, 37, 0
1, 65766, Note_on_c, 9, 59, 0
1, 66000, Note_on_c, 9, 59, 64
1, 66000, Note_on_c, 9, 36, 95
1, 66006, Note_on_c, 9, 59, 0
1, 66239, Note_on_c, 9, 36, 0
1, 66240, Note_on_c, 9, 59, 64
1, 66246, Note_on_c, 9, 59, 0
1, 66480, Note_on_c, 9, 59, 64
1, 66480, Note_on_c, 9, 36, 95
1, 66486, Note_on_c, 9, 59, 0
1, 66719, Note_on_c, 9, 36, 0
1, 66720, Note_on_c, 9, 37, 127
1, 66720, Note_on_c, 9, 59, 64
1, 66726, Note_on_c, 9, 37, 0
1, 66726, Note_on_c, 9, 59, 0
1, 66960, Note_on_c, 9, 59, 64
1, 66966, Note_on_c, 9, 59, 0
1, 67200, Note_on_c, 9, 59, 64
1, 67200, Note_on_c, 9, 36, 95
1, 67206, Note_on_c, 9, 59, 0
1, 67440, Note_on_c, 9, 59, 64
1, 67446, Note_on_c, 9, 59, 0
1, 67679, Note_on_c, 9, 36, 0
1, 67680, Note_on_c, 9, 37, 127
1, 67680, Note_on_c, 9, 59, 64
1, 67686, Note_on_c, 9, 37, 0
1, 67686, Note_on_c, 9, 59, 0
1, 67920, Note_on_c, 9, 59, 64
1, 67920, Note_on_c, 9, 36, 95
1, 67926, Note_on_c, 9, 59, 0
1, 68159, Note_on_c, 9, 36, 0
1, 68160, Note_on_c, 9, 59, 64
1, 68166, Note_on_c, 9, 59, 0
1, 68400, Note_on_c, 9, 59, 64
1, 68406, Note_on_c, 9, 59, 0
1, 68640, Note_on_c, 9, 37, 127
1, 68640, Note_on_c, 9, 59, 64
1, 68646, Note_on_c, 9, 37, 0
1, 68646, Note_on_c, 9, 59, 0
1, 68880, Note_on_c, 9, 59, 64
1, 68886, Note_on_c, 9, 59, 0
1, 69000, Note_on_c, 9, 36, 95
1, 69119, Note_on_c, 9, 36, 0
1, 69120, Note_on_c, 9, 59, 64
1, 69120, Note_on_c, 9, 36, 95
1, 69126, Note_on_c, 9, 59, 0
1, 69360, Note_on_c, 9, 59, 64
1, 69366, Note_on_c, 9, 59, 0
1, 69599, Note_on_c, 9, 36, 0
1, 69600, Note_on_c, 9, 37, 127
1, 69600, Note_on_c, 9, 59, 64
1, 69606, Note_on_c, 9, 37, 0
1, 69606, Note_on_c, 9, 59, 0
1, 69840, Note_on_c, 9, 59, 64
1, 69840, Note_on_c, 9, 36, 95
1, 69846, Note_on_c, 9, 59, 0
1, 70079, Note_on_c, 9, 36, 0
1, 70080, Note_on_c, 9, 59, 64
1, 70086, Note_on_c, 9, 59, 0
1, 70320, Note_on_c, 9, 59, 64
1, 70320, Note_on_c, 9, 36, 95
1, 70326, Note_on_c, 9, 59, 0
1, 70559, Note_on_c, 9, 36, 0
1, 70560, Note_on_c, 9, 37, 127
1, 70560, Note_on_c, 9, 59, 64
1, 70566, Note_on_c, 9, 37, 0
1, 70566, Note_on_c, 9, 59, 0
1, 70800, Note_on_c, 9, 59, 64
1, 70806, Note_on_c, 9, 59, 0
1, 70920, Note_on_c, 9, 36, 95
1, 71039, Note_on_c, 9, 36, 0
1, 71040, Note_on_c, 9, 59, 64
1, 71040, Note_on_c, 9, 36, 95
1, 71046, Note_on_c, 9, 59, 0
1, 71280, Note_on_c, 9, 59, 64
1, 71286, Note_on_c, 9, 59, 0
1, 71519, Note_on_c, 9, 36, 0
1, 71520, Note_on_c, 9, 37, 127
1, 71520, Note_on_c, 9, 59, 64
1, 71526, Note_on_c, 9, 37, 0
1, 71526, Note_on_c, 9, 59, 0
1, 71760, Note_on_c, 9, 59, 64
1, 71760, Note_on_c, 9, 36, 95
1, 71766, Note_on_c, 9, 59, 0
1, 71999, Note_on_c, 9, 36, 0
1, 72000, Note_on_c, 9, 59, 64
1, 72006, Note_on_c, 9, 59, 0
1, 72240, Note_on_c, 9, 59, 64
1, 72240, Note_on_c, 9, 36, 95
1, 72246, Note_on_c, 9, 59, 0
1, 72479, Note_on_c, 9, 36, 0
1, 72480, Note_on_c, 9, 37, 127
1, 72480, Note_on_c, 9, 59, 64
1, 72486, Note_on_c, 9, 37, 0
1, 72486, Note_on_c, 9, 59, 0
1, 72720, Note_on_c, 9, 59, 64
1, 72726, Note_on_c, 9, 59, 0
1, 72960, Note_on_c, 9, 59, 64
1, 72960, Note_on_c, 9, 36, 95
1, 72966, Note_on_c, 9, 59, 0
1, 73199, Note_on_c, 9, 36, 0
1, 73200, Note_on_c, 9, 59, 64
1, 73200, Note_on_c, 9, 36, 95
1, 73206, Note_on_c, 9, 59, 0
1, 73439, Note_on_c, 9, 36, 0
1, 73440, Note_on_c, 9, 37, 127
1, 73440, Note_on_c, 9, 59, 64
1, 73446, Note_on_c, 9, 37, 0
1, 73446, Note_on_c, 9, 59, 0
1, 73680, Note_on_c, 9, 59, 64
1, 73680, Note_on_c, 9, 36, 95
1, 73686, Note_on_c, 9, 59, 0
1, 73919, Note_on_c, 9, 36, 0
1, 73920, Note_on_c, 9, 40, 127
1, 73979, Note_on_c, 9, 40, 0
1, 73980, Note_on_c, 9, 40, 127
1, 74039, Note_on_c, 9, 40, 0
1, 74040, Note_on_c, 9, 40, 127
1, 74099, Note_on_c, 9, 40, 0
1, 74100, Note_on_c, 9, 40, 127
1, 74159, Note_on_c, 9, 40, 0
1, 74160, Note_on_c, 9, 40, 127
1, 74219, Note_on_c, 9, 40, 0
1, 74220, Note_on_c, 9, 40, 127
1, 74279, Note_on_c, 9, 40, 0
1, 74280, Note_on_c, 9, 40, 127
1, 74339, Note_on_c, 9, 40, 0
1, 74340, Note_on_c, 9, 40, 127
1, 74399, Note_on_c, 9, 40, 0
1, 74400, Note_on_c, 9, 40, 127
1, 74459, Note_on_c, 9, 40, 0
1, 74460, Note_on_c, 9, 40, 127
1, 74519, Note_on_c, 9, 40, 0
1, 74520, Note_on_c, 9, 40, 127
1, 74579, Note_on_c, 9, 40, 0
1, 74580, Note_on_c, 9, 40, 127
1, 74639, Note_on_c, 9, 40, 0
1, 74640, Note_on_c, 9, 40, 127
1, 74699, Note_on_c, 9, 40, 0
1, 74700, Note_on_c, 9, 40, 127
1, 74759, Note_on_c, 9, 40, 0
1, 74760, Note_on_c, 9, 40, 127
1, 74819, Note_on_c, 9, 40, 0
1, 74820, Note_on_c, 9, 40, 127
1, 74879, Note_on_c, 9, 40, 0
1, 74880, Note_on_c, 9, 49, 64
1, 74880, Note_on_c, 9, 36, 95
1, 74886, Note_on_c, 9, 49, 0
1, 75120, Note_on_c, 9, 51, 64
1, 75126, Note_on_c, 9, 51, 0
1, 75359, Note_on_c, 9, 36, 0
1, 75360, Note_on_c, 9, 40, 120
1, 75360, Note_on_c, 9, 51, 64
1, 75366, Note_on_c, 9, 51, 0
1, 75599, Note_on_c, 9, 40, 0
1, 75600, Note_on_c, 9, 57, 64
1, 75600, Note_on_c, 9, 36, 95
1, 75606, Note_on_c, 9, 57, 0
1, 75839, Note_on_c, 9, 36, 0
1, 75840, Note_on_c, 9, 51, 64
1, 75846, Note_on_c, 9, 51, 0
1, 76080, Note_on_c, 9, 51, 64
1, 76080, Note_on_c, 9, 36, 95
1, 76086, Note_on_c, 9, 51, 0
1, 76319, Note_on_c, 9, 36, 0
1, 76320, Note_on_c, 9, 40, 120
1, 76320, Note_on_c, 9, 51, 64
1, 76326, Note_on_c, 9, 51, 0
1, 76559, Note_on_c, 9, 40, 0
1, 76560, Note_on_c, 9, 51, 64
1, 76566, Note_on_c, 9, 51, 0
1, 76800, Note_on_c, 9, 49, 64
1, 76800, Note_on_c, 9, 36, 95
1, 76806, Note_on_c, 9, 49, 0
1, 77040, Note_on_c, 9, 51, 64
1, 77046, Note_on_c, 9, 51, 0
1, 77279, Note_on_c, 9, 36, 0
1, 77280, Note_on_c, 9, 40, 120
1, 77280, Note_on_c, 9, 51, 64
1, 77286, Note_on_c, 9, 51, 0
1, 77519, Note_on_c, 9, 40, 0
1, 77520, Note_on_c, 9, 57, 64
1, 77520, Note_on_c, 9, 36, 95
1, 77526, Note_on_c, 9, 57, 0
1, 77759, Note_on_c, 9, 36, 0
1, 77760, Note_on_c, 9, 51, 64
1, 77766, Note_on_c, 9, 51, 0
1, 78000, Note_on_c, 9, 51, 64
1, 78000, Note_on_c, 9, 36, 95
1, 78006, Note_on_c, 9, 51, 0
1, 78239, Note_on_c, 9, 36, 0
1, 78240, Note_on_c, 9, 40, 120
1, 78240, Note_on_c, 9, 51, 64
1, 78246, Note_on_c, 9, 51, 0
1, 78479, Note_on_c, 9, 40, 0
1, 78480, Note_on_c, 9, 51, 64
1, 78486, Note_on_c, 9, 51, 0
1, 78720, Note_on_c, 9, 51, 64
1, 78720, Note_on_c, 9, 36, 95
1, 78726, Note_on_c, 9, 51, 0
1, 78959, Note_on_c, 9, 36, 0
1, 78960, Note_on_c, 9, 51, 64
1, 78960, Note_on_c, 9, 36, 95
1, 78966, Note_on_c, 9, 51, 0
1, 79199, Note_on_c, 9, 36, 0
1, 79200, Note_on_c, 9, 40, 120
1, 79200, Note_on_c, 9, 51, 64
1, 79206, Note_on_c, 9, 51, 0
1, 79439, Note_on_c, 9, 40, 0
1, 79440, Note_on_c, 9, 51, 64
1, 79440, Note_on_c, 9, 36, 95
1, 79446, Note_on_c, 9, 51, 0
1, 79679, Note_on_c, 9, 36, 0
1, 79680, Note_on_c, 9, 51, 64
1, 79686, Note_on_c, 9, 51, 0
1, 79920, Note_on_c, 9, 51, 64
1, 79920, Note_on_c, 9, 36, 95
1, 79926, Note_on_c, 9, 51, 0
1, 80159, Note_on_c, 9, 36, 0
1, 80160, Note_on_c, 9, 40, 120
1, 80160, Note_on_c, 9, 51, 64
1, 80166, Note_on_c, 9, 51, 0
1, 80399, Note_on_c, 9, 40, 0
1, 80400, Note_on_c, 9, 51, 64
1, 80406, Note_on_c, 9, 51, 0
1, 80640, Note_on_c, 9, 51, 64
1, 80640, Note_on_c, 9, 36, 95
1, 80646, Note_on_c, 9, 51, 0
1, 80879, Note_on_c, 9, 36, 0
1, 80880, Note_on_c, 9, 51, 64
1, 80880, Note_on_c, 9, 36, 95
1, 80886, Note_on_c, 9, 51, 0
1, 81119, Note_on_c, 9, 36, 0
1, 81120, Note_on_c, 9, 40, 120
1, 81120, Note_on_c, 9, 51, 64
1, 81126, Note_on_c, 9, 51, 0
1, 81359, Note_on_c, 9, 40, 0
1, 81360, Note_on_c, 9, 51, 64
1, 81360, Note_on_c, 9, 36, 95
1, 81366, Note_on_c, 9, 51, 0
1, 81599, Note_on_c, 9, 36, 0
1, 81600, Note_on_c, 9, 51, 64
1, 81606, Note_on_c, 9, 51, 0
1, 81840, Note_on_c, 9, 51, 64
1, 81846, Note_on_c, 9, 51, 0
1, 81960, Note_on_c, 9, 36, 95
1, 82079, Note_on_c, 9, 36, 0
1, 82080, Note_on_c, 9, 40, 120
1, 82080, Note_on_c, 9, 51, 64
1, 82086, Note_on_c, 9, 51, 0
1, 82319, Note_on_c, 9, 40, 0
1, 82320, Note_on_c, 9, 51, 64
1, 82326, Note_on_c, 9, 51, 0
1, 82560, Note_on_c, 9, 49, 64
1, 82560, Note_on_c, 9, 36, 95
1, 82566, Note_on_c, 9, 49, 0
1, 82799, Note_on_c, 9, 36, 0
1, 82800, Note_on_c, 9, 51, 64
1, 82800, Note_on_c, 9, 36, 95
1, 82806, Note_on_c, 9, 51, 0
1, 83039, Note_on_c, 9, 36, 0
1, 83040, Note_on_c, 9, 40, 120
1, 83040, Note_on_c, 9, 51, 64
1, 83046, Note_on_c, 9, 51, 0
1, 83279, Note_on_c, 9, 40, 0
1, 83280, Note_on_c, 9, 57, 64
1, 83280, Note_on_c, 9, 36, 95
1, 83286, Note_on_c, 9, 57, 0
1, 83519, Note_on_c, 9, 36, 0
1, 83520, Note_on_c, 9, 51, 64
1, 83526, Note_on_c, 9, 51, 0
1, 83760, Note_on_c, 9, 51, 64
1, 83760, Note_on_c, 9, 36, 95
1, 83766, Note_on_c, 9, 51, 0
1, 83999, Note_on_c, 9, 36, 0
1, 84000, Note_on_c, 9, 40, 120
1, 84000, Note_on_c, 9, 51, 64
1, 84006, Note_on_c, 9, 51, 0
1, 84239, Note_on_c, 9, 40, 0
1, 84240, Note_on_c, 9, 51, 64
1, 84246, Note_on_c, 9, 51, 0
1, 84480, Note_on_c, 9, 49, 64
1, 84480, Note_on_c, 9, 36, 95
1, 84486, Note_on_c, 9, 49, 0
1, 84719, Note_on_c, 9, 36, 0
1, 84720, Note_on_c, 9, 57, 64
1, 84720, Note_on_c, 9, 36, 95
1, 84726, Note_on_c, 9, 57, 0
1, 84959, Note_on_c, 9, 36, 0
1, 84960, Note_on_c, 9, 49, 64
1, 84960, Note_on_c, 9, 36, 95
1, 84966, Note_on_c, 9, 49, 0
1, 85199, Note_on_c, 9, 36, 0
1, 85200, Note_on_c, 9, 57, 64
1, 85200, Note_on_c, 9, 36, 95
1, 85206, Note_on_c, 9, 57, 0
1, 85439, Note_on_c, 9, 36, 0
1, 86400, Note_on_c, 9, 36, 80
1, 86759, Note_on_c, 9, 36, 0
1, 86760, Note_on_c, 9, 36, 69
1, 86879, Note_on_c, 9, 36, 0
1, 86880, Note_on_c, 9, 36, 95
1, 87000, Note_on_c, 9, 51, 75
1, 87002, Note_on_c, 9, 51, 0
1, 87120, Note_on_c, 9, 51, 75
1, 87126, Note_on_c, 9, 51, 0
1, 87359, Note_on_c, 9, 36, 0
1, 87360, Note_on_c, 9, 36, 80
1, 87719, Note_on_c, 9, 36, 0
1, 87720, Note_on_c, 9, 36, 69
1, 87839, Note_on_c, 9, 36, 0
1, 87840, Note_on_c, 9, 36, 95
1, 87960, Note_on_c, 9, 51, 75
1, 87962, Note_on_c, 9, 51, 0
1, 88080, Note_on_c, 9, 51, 75
1, 88086, Note_on_c, 9, 51, 0
1, 88319, Note_on_c, 9, 36, 0
1, 88320, Note_on_c, 9, 36, 80
1, 88679, Note_on_c, 9, 36, 0
1, 88680, Note_on_c, 9, 36, 69
1, 88799, Note_on_c, 9, 36, 0
1, 88800, Note_on_c, 9, 36, 95
1, 88920, Note_on_c, 9, 51, 75
1, 88922, Note_on_c, 9, 51, 0
1, 89040, Note_on_c, 9, 51, 75
1, 89046, Note_on_c, 9, 51, 0
1, 89279, Note_on_c, 9, 36, 0
1, 89280, Note_on_c, 9, 36, 80
1, 89639, Note_on_c, 9, 36, 0
1, 89640, Note_on_c, 9, 36, 69
1, 89759, Note_on_c, 9, 36, 0
1, 89760, Note_on_c, 9, 36, 95
1, 89880, Note_on_c, 9, 51, 75
1, 89882, Note_on_c, 9, 51, 0
1, 90000, Note_on_c, 9, 51, 75
1, 90006, Note_on_c, 9, 51, 0
1, 90239, Note_on_c, 9, 36, 0
1, 90240, Note_on_c, 9, 36, 80
1, 90599, Note_on_c, 9, 36, 0
1, 90600, Note_on_c, 9, 36, 69
1, 90719, Note_on_c, 9, 36, 0
1, 90720, Note_on_c, 9, 36, 95
1, 90840, Note_on_c, 9, 51, 75
1, 90842, Note_on_c, 9, 51, 0
1, 90960, Note_on_c, 9, 51, 75
1, 90966, Note_on_c, 9, 51, 0
1, 91199, Note_on_c, 9, 36, 0
1, 91200, Note_on_c, 9, 46, 120
1, 91200, Note_on_c, 9, 46, 0
1, 91200, Note_on_c, 9, 36, 80
1, 91240, Note_on_c, 9, 46, 120
1, 91240, Note_on_c, 9, 46, 0
1, 91280, Note_on_c, 9, 46, 120
1, 91280, Note_on_c, 9, 46, 0
1, 91320, Note_on_c, 9, 46, 120
1, 91320, Note_on_c, 9, 46, 0
1, 91350, Note_on_c, 9, 46, 120
1, 91350, Note_on_c, 9, 46, 0
1, 91410, Note_on_c, 9, 46, 120
1, 91410, Note_on_c, 9, 46, 0
1, 91440, Note_on_c, 9, 46, 120
1, 91440, Note_on_c, 9, 46, 0
1, 91470, Note_on_c, 9, 46, 120
1, 91470, Note_on_c, 9, 46, 0
1, 91530, Note_on_c, 9, 46, 120
1, 91530, Note_on_c, 9, 46, 0
1, 91559, Note_on_c, 9, 36, 0
1, 91560, Note_on_c, 9, 46, 120
1, 91560, Note_on_c, 9, 46, 0
1, 91560, Note_on_c, 9, 36, 69
1, 91590, Note_on_c, 9, 46, 120
1, 91590, Note_on_c, 9, 46, 0
1, 91650, Note_on_c, 9, 46, 120
1, 91650, Note_on_c, 9, 46, 0
1, 91679, Note_on_c, 9, 36, 0
1, 91680, Note_on_c, 9, 46, 120
1, 91680, Note_on_c, 9, 46, 0
1, 91680, Note_on_c, 9, 36, 95
1, 91710, Note_on_c, 9, 46, 120
1, 91710, Note_on_c, 9, 46, 0
1, 91770, Note_on_c, 9, 46, 120
1, 91770, Note_on_c, 9, 46, 0
1, 91800, Note_on_c, 9, 46, 120
1, 91800, Note_on_c, 9, 46, 0
1, 91830, Note_on_c, 9, 46, 120
1, 91830, Note_on_c, 9, 46, 0
1, 91890, Note_on_c, 9, 46, 120
1, 91890, Note_on_c, 9, 46, 0
1, 91920, Note_on_c, 9, 46, 120
1, 91920, Note_on_c, 9, 46, 0
1, 91950, Note_on_c, 9, 46, 120
1, 91950, Note_on_c, 9, 46, 0
1, 92010, Note_on_c, 9, 46, 120
1, 92010, Note_on_c, 9, 46, 0
1, 92040, Note_on_c, 9, 46, 120
1, 92040, Note_on_c, 9, 46, 0
1, 92070, Note_on_c, 9, 46, 120
1, 92070, Note_on_c, 9, 46, 0
1, 92130, Note_on_c, 9, 46, 120
1, 92130, Note_on_c, 9, 46, 0
1, 92159, Note_on_c, 9, 36, 0
1, 92160, Note_on_c, 9, 46, 120
1, 92160, Note_on_c, 9, 46, 0
1, 92160, Note_on_c, 9, 36, 80
1, 92190, Note_on_c, 9, 46, 120
1, 92190, Note_on_c, 9, 46, 0
1, 92250, Note_on_c, 9, 46, 120
1, 92250, Note_on_c, 9, 46, 0
1, 92280, Note_on_c, 9, 46, 120
1, 92280, Note_on_c, 9, 46, 0
1, 92310, Note_on_c, 9, 46, 120
1, 92310, Note_on_c, 9, 46, 0
1, 92370, Note_on_c, 9, 46, 120
1, 92370, Note_on_c, 9, 46, 0
1, 92400, Note_on_c, 9, 46, 120
1, 92400, Note_on_c, 9, 46, 0
1, 92430, Note_on_c, 9, 46, 120
1, 92430, Note_on_c, 9, 46, 0
1, 92490, Note_on_c, 9, 46, 120
1, 92490, Note_on_c, 9, 46, 0
1, 92519, Note_on_c, 9, 36, 0
1, 92520, Note_on_c, 9, 46, 120
1, 92520, Note_on_c, 9, 46, 0
1, 92520, Note_on_c, 9, 36, 69
1, 92550, Note_on_c, 9, 46, 120
1, 92550, Note_on_c, 9, 46, 0
1, 92610, Note_on_c, 9, 46, 120
1, 92610, Note_on_c, 9, 46, 0
1, 92639, Note_on_c, 9, 36, 0
1, 92640, Note_on_c, 9, 46, 120
1, 92640, Note_on_c, 9, 46, 0
1, 92640, Note_on_c, 9, 36, 95
1, 92670, Note_on_c, 9, 46, 120
1, 92670, Note_on_c, 9, 46, 0
1, 92730, Note_on_c, 9, 46, 120
1, 92730, Note_on_c, 9, 46, 0
1, 92760, Note_on_c, 9, 46, 120
1, 92760, Note_on_c, 9, 46, 0
1, 92790, Note_on_c, 9, 46, 120
1, 92790, Note_on_c, 9, 46, 0
1, 92850, Note_on_c, 9, 46, 120
1, 92850, Note_on_c, 9, 46, 0
1, 92880, Note_on_c, 9, 46, 120
1, 92880, Note_on_c, 9, 46, 0
1, 92910, Note_on_c, 9, 46, 120
1, 92910, Note_on_c, 9, 46, 0
1, 92970, Note_on_c, 9, 46, 120
1, 92970, Note_on_c, 9, 46, 0
1, 93000, Note_on_c, 9, 46, 120
1, 93000, Note_on_c, 9, 46, 0
1, 93030, Note_on_c, 9, 46, 120
1, 93030, Note_on_c, 9, 46, 0
1, 93090, Note_on_c, 9, 46, 120
1, 93090, Note_on_c, 9, 46, 0
1, 93119, Note_on_c, 9, 36, 0
1, 93120, Note_on_c, 9, 46, 120
1, 93120, Note_on_c, 9, 46, 0
1, 93120, Note_on_c, 9, 36, 95
1, 93150, Note_on_c, 9, 46, 120
1, 93150, Note_on_c, 9, 46, 0
1, 93210, Note_on_c, 9, 46, 120
1, 93210, Note_on_c, 9, 46, 0
1, 93240, Note_on_c, 9, 40, 127
1, 93240, Note_on_c, 9, 46, 120
1, 93240, Note_on_c, 9, 46, 0
1, 93270, Note_on_c, 9, 46, 120
1, 93270, Note_on_c, 9, 46, 0
1, 93299, Note_on_c, 9, 40, 0
1, 93330, Note_on_c, 9, 46, 120
1, 93330, Note_on_c, 9, 46, 0
1, 93360, Note_on_c, 9, 46, 120
1, 93360, Note_on_c, 9, 46, 0
1, 93390, Note_on_c, 9, 46, 120
1, 93390, Note_on_c, 9, 46, 0
1, 93450, Note_on_c, 9, 46, 120
1, 93450, Note_on_c, 9, 46, 0
1, 93480, Note_on_c, 9, 46, 120
1, 93480, Note_on_c, 9, 46, 0
1, 93480, Note_on_c, 9, 48, 100
1, 93510, Note_on_c, 9, 46, 120
1, 93510, Note_on_c, 9, 46, 0
1, 93539, Note_on_c, 9, 48, 0
1, 93570, Note_on_c, 9, 46, 120
1, 93570, Note_on_c, 9, 46, 0
1, 93599, Note_on_c, 9, 36, 0
1, 93600, Note_on_c, 9, 46, 120
1, 93600, Note_on_c, 9, 46, 0
1, 93600, Note_on_c, 9, 48, 90
1, 93630, Note_on_c, 9, 46, 120
1, 93630, Note_on_c, 9, 46, 0
1, 93659, Note_on_c, 9, 48, 0
1, 93690, Note_on_c, 9, 46, 120
1, 93690, Note_on_c, 9, 46, 0
1, 93720, Note_on_c, 9, 46, 120
1, 93720, Note_on_c, 9, 46, 0
1, 93720, Note_on_c, 9, 48, 87
1, 93750, Note_on_c, 9, 46, 120
1, 93750, Note_on_c, 9, 46, 0
1, 93779, Note_on_c, 9, 48, 0
1, 93810, Note_on_c, 9, 46, 120
1, 93810, Note_on_c, 9, 46, 0
1, 93840, Note_on_c, 9, 45, 84
1, 93840, Note_on_c, 9, 46, 120
1, 93840, Note_on_c, 9, 46, 0
1, 93870, Note_on_c, 9, 46, 120
1, 93870, Note_on_c, 9, 46, 0
1, 93899, Note_on_c, 9, 45, 0
1, 93930, Note_on_c, 9, 46, 120
1, 93930, Note_on_c, 9, 46, 0
1, 93960, Note_on_c, 9, 45, 80
1, 93960, Note_on_c, 9, 46, 120
1, 93960, Note_on_c, 9, 46, 0
1, 93999, Note_on_c, 9, 45, 0
1, 94000, Note_on_c, 9, 46, 120
1, 94000, Note_on_c, 9, 46, 0
1, 94040, Note_on_c, 9, 46, 120
1, 94040, Note_on_c, 9, 46, 0
1, 94080, Note_on_c, 9, 49, 64
1, 94080, Note_on_c, 9, 36, 95
1, 94093, Note_on_c, 9, 49, 0
1, 94559, Note_on_c, 9, 36, 0
1, 94560, Note_on_c, 9, 40, 120
1, 94560, Note_on_c, 9, 59, 64
1, 94566, Note_on_c, 9, 59, 0
1, 94799, Note_on_c, 9, 40, 0
1, 94800, Note_on_c, 9, 59, 64
1, 94806, Note_on_c, 9, 59, 0
1, 95040, Note_on_c, 9, 59, 64
1, 95046, Note_on_c, 9, 59, 0
1, 95280, Note_on_c, 9, 59, 64
1, 95280, Note_on_c, 9, 36, 95
1, 95286, Note_on_c, 9, 59, 0
1, 95519, Note_on_c, 9, 36, 0
1, 95520, Note_on_c, 9, 40, 120
1, 95520, Note_on_c, 9, 59, 64
1, 95526, Note_on_c, 9, 59, 0
1, 95759, Note_on_c, 9, 40, 0
1, 95760, Note_on_c, 9, 59, 64
1, 95762, Note_on_c, 9, 59, 0
1, 95880, Note_on_c, 9, 59, 64
1, 95880, Note_on_c, 9, 36, 95
1, 95882, Note_on_c, 9, 59, 0
1, 95999, Note_on_c, 9, 36, 0
1, 96000, Note_on_c, 9, 59, 64
1, 96000, Note_on_c, 9, 36, 95
1, 96006, Note_on_c, 9, 59, 0
1, 96240, Note_on_c, 9, 59, 64
1, 96242, Note_on_c, 9, 59, 0
1, 96360, Note_on_c, 9, 59, 64
1, 96362, Note_on_c, 9, 59, 0
1, 96479, Note_on_c, 9, 36, 0
1, 96480, Note_on_c, 9, 40, 120
1, 96480, Note_on_c, 9, 59, 64
1, 96486, Note_on_c, 9, 59, 0
1, 96719, Note_on_c, 9, 40, 0
1, 96720, Note_on_c, 9, 59, 64
1, 96720, Note_on_c, 9, 36, 95
1, 96726, Note_on_c, 9, 59, 0
1, 96959, Note_on_c, 9, 36, 0
1, 96960, Note_on_c, 9, 59, 64
1, 96962, Note_on_c, 9, 59, 0
1, 97080, Note_on_c, 9, 59, 64
1, 97082, Note_on_c, 9, 59, 0
1, 97200, Note_on_c, 9, 59, 64
1, 97200, Note_on_c, 9, 36, 95
1, 97206, Note_on_c, 9, 59, 0
1, 97439, Note_on_c, 9, 36, 0
1, 97440, Note_on_c, 9, 40, 120
1, 97440, Note_on_c, 9, 59, 64
1, 97442, Note_on_c, 9, 59, 0
1, 97559, Note_on_c, 9, 40, 0
1, 97560, Note_on_c, 9, 59, 64
1, 97562, Note_on_c, 9, 59, 0
1, 97680, Note_on_c, 9, 59, 64
1, 97686, Note_on_c, 9, 59, 0
1, 97800, Note_on_c, 9, 36, 95
1, 97919, Note_on_c, 9, 36, 0
1, 97920, Note_on_c, 9, 59, 64
1, 97920, Note_on_c, 9, 36, 95
1, 97926, Note_on_c, 9, 59, 0
1, 98160, Note_on_c, 9, 59, 64
1, 98162, Note_on_c, 9, 59, 0
1, 98280, Note_on_c, 9, 59, 64
1, 98282, Note_on_c, 9, 59, 0
1, 98399, Note_on_c, 9, 36, 0
1, 98400, Note_on_c, 9, 40, 120
1, 98400, Note_on_c, 9, 59, 64
1, 98406, Note_on_c, 9, 59, 0
1, 98639, Note_on_c, 9, 40, 0
1, 98640, Note_on_c, 9, 59, 64
1, 98640, Note_on_c, 9, 36, 95
1, 98646, Note_on_c, 9, 59, 0
1, 98879, Note_on_c, 9, 36, 0
1, 98880, Note_on_c, 9, 59, 64
1, 98882, Note_on_c, 9, 59, 0
1, 99000, Note_on_c, 9, 59, 64
1, 99002, Note_on_c, 9, 59, 0
1, 99120, Note_on_c, 9, 59, 64
1, 99120, Note_on_c, 9, 36, 95
1, 99126, Note_on_c, 9, 59, 0
1, 99359, Note_on_c, 9, 36, 0
1, 99360, Note_on_c, 9, 40, 120
1, 99360, Note_on_c, 9, 59, 64
1, 99366, Note_on_c, 9, 59, 0
1, 99599, Note_on_c, 9, 40, 0
1, 99600, Note_on_c, 9, 59, 64
1, 99602, Note_on_c, 9, 59, 0
1, 99720, Note_on_c, 9, 59, 64
1, 99722, Note_on_c, 9, 59, 0
1, 99840, Note_on_c, 9, 49, 64
1, 99840, Note_on_c, 9, 36, 95
1, 99846, Note_on_c, 9, 49, 0
1, 100079, Note_on_c, 9, 36, 0
1, 100080, Note_on_c, 9, 59, 64
1, 100080, Note_on_c, 9, 36, 95
1, 100086, Note_on_c, 9, 59, 0
1, 100319, Note_on_c, 9, 36, 0
1, 100320, Note_on_c, 9, 40, 120
1, 100320, Note_on_c, 9, 59, 64
1, 100326, Note_on_c, 9, 59, 0
1, 100559, Note_on_c, 9, 40, 0
1, 100560, Note_on_c, 9, 59, 64
1, 100560, Note_on_c, 9, 36, 95
1, 100566, Note_on_c, 9, 59, 0
1, 100799, Note_on_c, 9, 36, 0
1, 100800, Note_on_c, 9, 59, 64
1, 100802, Note_on_c, 9, 59, 0
1, 100920, Note_on_c, 9, 59, 64
1, 100922, Note_on_c, 9, 59, 0
1, 101040, Note_on_c, 9, 59, 64
1, 101040, Note_on_c, 9, 36, 95
1, 101046, Note_on_c, 9, 59, 0
1, 101159, Note_on_c, 9, 36, 0
1, 101160, Note_on_c, 9, 36, 95
1, 101279, Note_on_c, 9, 36, 0
1, 101280, Note_on_c, 9, 40, 120
1, 101280, Note_on_c, 9, 59, 64
1, 101286, Note_on_c, 9, 59, 0
1, 101519, Note_on_c, 9, 40, 0
1, 101520, Note_on_c, 9, 40, 120
1, 101639, Note_on_c, 9, 40, 0
1, 101640, Note_on_c, 9, 40, 120
1, 101759, Note_on_c, 9, 40, 0
1, 101760, Note_on_c, 9, 57, 64
1, 101760, Note_on_c, 9, 36, 95
1, 101766, Note_on_c, 9, 57, 0
1, 102000, Note_on_c, 9, 59, 64
1, 102002, Note_on_c, 9, 59, 0
1, 102120, Note_on_c, 9, 59, 64
1, 102122, Note_on_c, 9, 59, 0
1, 102239, Note_on_c, 9, 36, 0
1, 102240, Note_on_c, 9, 40, 120
1, 102240, Note_on_c, 9, 59, 64
1, 102246, Note_on_c, 9, 59, 0
1, 102479, Note_on_c, 9, 40, 0
1, 102480, Note_on_c, 9, 49, 64
1, 102480, Note_on_c, 9, 36, 95
1, 102486, Note_on_c, 9, 49, 0
1, 102719, Note_on_c, 9, 36, 0
1, 102720, Note_on_c, 9, 59, 64
1, 102726, Note_on_c, 9, 59, 0
1, 102960, Note_on_c, 9, 59, 64
1, 102966, Note_on_c, 9, 59, 0
1, 103200, Note_on_c, 9, 40, 120
1, 103200, Note_on_c, 9, 59, 64
1, 103206, Note_on_c, 9, 59, 0
1, 103439, Note_on_c, 9, 40, 0
1, 103440, Note_on_c, 9, 59, 64
1, 103446, Note_on_c, 9, 59, 0
1, 103560, Note_on_c, 9, 36, 95
1, 103679, Note_on_c, 9, 36, 0
1, 103680, Note_on_c, 9, 57, 64
1, 103680, Note_on_c, 9, 36, 95
1, 103686, Note_on_c, 9, 57, 0
1, 103920, Note_on_c, 9, 59, 64
1, 103926, Note_on_c, 9, 59, 0
1, 104159, Note_on_c, 9, 36, 0
1, 104160, Note_on_c, 9, 40, 120
1, 104160, Note_on_c, 9, 59, 64
1, 104166, Note_on_c, 9, 59, 0
1, 104399, Note_on_c, 9, 40, 0
1, 104400, Note_on_c, 9, 59, 64
1, 104400, Note_on_c, 9, 36, 95
1, 104406, Note_on_c, 9, 59, 0
1, 104639, Note_on_c, 9, 36, 0
1, 104640, Note_on_c, 9, 59, 64
1, 104646, Note_on_c, 9, 59, 0
1, 104880, Note_on_c, 9, 59, 64
1, 104880, Note_on_c, 9, 36, 95
1, 104886, Note_on_c, 9, 59, 0
1, 105119, Note_on_c, 9, 36, 0
1, 105120, Note_on_c, 9, 40, 120
1, 105120, Note_on_c, 9, 59, 64
1, 105126, Note_on_c, 9, 59, 0
1, 105359, Note_on_c, 9, 40, 0
1, 105360, Note_on_c, 9, 59, 64
1, 105366, Note_on_c, 9, 59, 0
1, 105480, Note_on_c, 9, 36, 95
1, 105599, Note_on_c, 9, 36, 0
1, 105600, Note_on_c, 9, 59, 64
1, 105600, Note_on_c, 9, 36, 95
1, 105606, Note_on_c, 9, 59, 0
1, 105840, Note_on_c, 9, 59, 64
1, 105842, Note_on_c, 9, 59, 0
1, 105960, Note_on_c, 9, 59, 64
1, 105962, Note_on_c, 9, 59, 0
1, 106079, Note_on_c, 9, 36, 0
1, 106080, Note_on_c, 9, 40, 120
1, 106080, Note_on_c, 9, 59, 64
1, 106086, Note_on_c, 9, 59, 0
1, 106319, Note_on_c, 9, 40, 0
1, 106320, Note_on_c, 9, 59, 64
1, 106320, Note_on_c, 9, 36, 95
1, 106326, Note_on_c, 9, 59, 0
1, 106559, Note_on_c, 9, 36, 0
1, 106560, Note_on_c, 9, 59, 64
1, 106566, Note_on_c, 9, 59, 0
1, 106800, Note_on_c, 9, 59, 64
1, 106800, Note_on_c, 9, 36, 95
1, 106806, Note_on_c, 9, 59, 0
1, 107039, Note_on_c, 9, 36, 0
1, 107040, Note_on_c, 9, 40, 120
1, 107040, Note_on_c, 9, 59, 64
1, 107042, Note_on_c, 9, 59, 0
1, 107159, Note_on_c, 9, 40, 0
1, 107160, Note_on_c, 9, 59, 64
1, 107162, Note_on_c, 9, 59, 0
1, 107280, Note_on_c, 9, 59, 64
1, 107282, Note_on_c, 9, 59, 0
1, 107400, Note_on_c, 9, 59, 64
1, 107402, Note_on_c, 9, 59, 0
1, 107520, Note_on_c, 9, 57, 64
1, 107520, Note_on_c, 9, 36, 95
1, 107526, Note_on_c, 9, 57, 0
1, 107759, Note_on_c, 9, 36, 0
1, 107760, Note_on_c, 9, 59, 64
1, 107760, Note_on_c, 9, 36, 95
1, 107766, Note_on_c, 9, 59, 0
1, 107999, Note_on_c, 9, 36, 0
1, 108000, Note_on_c, 9, 40, 120
1, 108000, Note_on_c, 9, 59, 64
1, 108006, Note_on_c, 9, 59, 0
1, 108239, Note_on_c, 9, 40, 0
1, 108240, Note_on_c, 9, 49, 64
1, 108240, Note_on_c, 9, 36, 95
1, 108246, Note_on_c, 9, 49, 0
1, 108479, Note_on_c, 9, 36, 0
1, 108480, Note_on_c, 9, 59, 64
1, 108482, Note_on_c, 9, 59, 0
1, 108600, Note_on_c, 9, 40, 120
1, 108719, Note_on_c, 9, 40, 0
1, 108720, Note_on_c, 9, 59, 64
1, 108726, Note_on_c, 9, 59, 0
1, 108840, Note_on_c, 9, 36, 95
1, 108959, Note_on_c, 9, 36, 0
1, 108960, Note_on_c, 9, 40, 120
1, 108960, Note_on_c, 9, 59, 64
1, 108962, Note_on_c, 9, 59, 0
1, 109079, Note_on_c, 9, 40, 0
1, 109080, Note_on_c, 9, 48, 95
1, 109139, Note_on_c, 9, 48, 0
1, 109140, Note_on_c, 9, 48, 90
1, 109199, Note_on_c, 9, 48, 0
1, 109200, Note_on_c, 9, 45, 85
1, 109319, Note_on_c, 9, 45, 0
1, 109320, Note_on_c, 9, 48, 80
1, 109439, Note_on_c, 9, 48, 0
1, 109440, Note_on_c, 9, 49, 64
1, 109440, Note_on_c, 9, 36, 95
1, 109446, Note_on_c, 9, 49, 0
1, 109680, Note_on_c, 9, 51, 64
1, 109686, Note_on_c, 9, 51, 0
1, 109919, Note_on_c, 9, 36, 0
1, 109920, Note_on_c, 9, 40, 120
1, 109920, Note_on_c, 9, 51, 64
1, 109926, Note_on_c, 9, 51, 0
1, 110159, Note_on_c, 9, 40, 0
1, 110160, Note_on_c, 9, 57, 64
1, 110160, Note_on_c, 9, 36, 95
1, 110166, Note_on_c, 9, 57, 0
1, 110399, Note_on_c, 9, 36, 0
1, 110400, Note_on_c, 9, 51, 64
1, 110406, Note_on_c, 9, 51, 0
1, 110640, Note_on_c, 9, 51, 64
1, 110640, Note_on_c, 9, 36, 95
1, 110646, Note_on_c, 9, 51, 0
1, 110879, Note_on_c, 9, 36, 0
1, 110880, Note_on_c, 9, 40, 120
1, 110880, Note_on_c, 9, 51, 64
1, 110886, Note_on_c, 9, 51, 0
1, 111119, Note_on_c, 9, 40, 0
1, 111120, Note_on_c, 9, 51, 64
1, 111126, Note_on_c, 9, 51, 0
1, 111360, Note_on_c, 9, 49, 64
1, 111360, Note_on_c, 9, 36, 95
1, 111366, Note_on_c, 9, 49, 0
1, 111600, Note_on_c, 9, 51, 64
1, 111606, Note_on_c, 9, 51, 0
1, 111839, Note_on_c, 9, 36, 0
1, 111840, Note_on_c, 9, 40, 120
1, 111840, Note_on_c, 9, 51, 64
1, 111846, Note_on_c, 9, 51, 0
1, 112079, Note_on_c, 9, 40, 0
1, 112080, Note_on_c, 9, 57, 64
1, 112080, Note_on_c, 9, 36, 95
1, 112086, Note_on_c, 9, 57, 0
1, 112319, Note_on_c, 9, 36, 0
1, 112320, Note_on_c, 9, 51, 64
1, 112326, Note_on_c, 9, 51, 0
1, 112560, Note_on_c, 9, 51, 64
1, 112560, Note_on_c, 9, 36, 95
1, 112566, Note_on_c, 9, 51, 0
1, 112799, Note_on_c, 9, 36, 0
1, 112800, Note_on_c, 9, 40, 120
1, 112800, Note_on_c, 9, 51, 64
1, 112806, Note_on_c, 9, 51, 0
1, 113039, Note_on_c, 9, 40, 0
1, 113040, Note_on_c, 9, 51, 64
1, 113046, Note_on_c, 9, 51, 0
1, 113280, Note_on_c, 9, 51, 64
1, 113280, Note_on_c, 9, 36, 95
1, 113286, Note_on_c, 9, 51, 0
1, 113520, Note_on_c, 9, 51, 64
1, 113526, Note_on_c, 9, 51, 0
1, 113759, Note_on_c, 9, 36, 0
1, 113760, Note_on_c, 9, 40, 120
1, 113760, Note_on_c, 9, 51, 64
1, 113766, Note_on_c, 9, 51, 0
1, 113999, Note_on_c, 9, 40, 0
1, 114000, Note_on_c, 9, 49, 64
1, 114000, Note_on_c, 9, 36, 95
1, 114006, Note_on_c, 9, 49, 0
1, 114239, Note_on_c, 9, 36, 0
1, 115200, Time_signature, 2, 2, 24, 8
1, 116160, Time_signature, 4, 2, 24, 8
1, 116160, Note_on_c, 9, 41, 100
1, 116160, Note_on_c, 9, 40, 127
1, 116279, Note_on_c, 9, 41, 0
1, 116279, Note_on_c, 9, 40, 0
1, 116280, Note_on_c, 9, 41, 100
1, 116280, Note_on_c, 9, 40, 127
1, 116399, Note_on_c, 9, 41, 0
1, 116399, Note_on_c, 9, 40, 0
1, 116400, Note_on_c, 9, 41, 100
1, 116400, Note_on_c, 9, 40, 127
1, 116519, Note_on_c, 9, 41, 0
1, 116519, Note_on_c, 9, 40, 0
1, 116520, Note_on_c, 9, 41, 100
1, 116520, Note_on_c, 9, 40, 127
1, 116639, Note_on_c, 9, 41, 0
1, 116639, Note_on_c, 9, 40, 0
1, 116640, Note_on_c, 9, 41, 100
1, 116640, Note_on_c, 9, 40, 127
1, 116759, Note_on_c, 9, 41, 0
1, 116759, Note_on_c, 9, 40, 0
1, 116760, Note_on_c, 9, 41, 100
1, 116760, Note_on_c, 9, 40, 127
1, 116879, Note_on_c, 9, 41, 0
1, 116879, Note_on_c, 9, 40, 0
1, 116880, Note_on_c, 9, 41, 100
1, 116880, Note_on_c, 9, 40, 127
1, 116999, Note_on_c, 9, 41, 0
1, 116999, Note_on_c, 9, 40, 0
1, 117000, Note_on_c, 9, 41, 100
1, 117000, Note_on_c, 9, 40, 127
1, 117119, Note_on_c, 9, 41, 0
1, 117119, Note_on_c, 9, 40, 0
1, 117120, Note_on_c, 9, 41, 100
1, 117120, Note_on_c, 9, 40, 127
1, 117239, Note_on_c, 9, 41, 0
1, 117239, Note_on_c, 9, 40, 0
1, 117240, Note_on_c, 9, 41, 100
1, 117240, Note_on_c, 9, 40, 127
1, 117359, Note_on_c, 9, 41, 0
1, 117359, Note_on_c, 9, 40, 0
1, 117360, Note_on_c, 9, 41, 100
1, 117360, Note_on_c, 9, 40, 127
1, 117479, Note_on_c, 9, 41, 0
1, 117479, Note_on_c, 9, 40, 0
1, 117480, Note_on_c, 9, 41, 100
1, 117480, Note_on_c, 9, 40, 127
1, 117599, Note_on_c, 9, 41, 0
1, 117599, Note_on_c, 9, 40, 0
1, 117600, Note_on_c, 9, 41, 100
1, 117600, Note_on_c, 9, 40, 127
1, 117719, Note_on_c, 9, 41, 0
1, 117719, Note_on_c, 9, 40, 0
1, 117720, Note_on_c, 9, 41, 100
1, 117720, Note_on_c, 9, 40, 127
1, 117839, Note_on_c, 9, 41, 0
1, 117839, Note_on_c, 9, 40, 0
1, 117840, Note_on_c, 9, 41, 100
1, 117840, Note_on_c, 9, 40, 127
1, 117959, Note_on_c, 9, 41, 0
1, 117959, Note_on_c, 9, 40, 0
1, 117960, Note_on_c, 9, 41, 100
1, 117960, Note_on_c, 9, 40, 127
1, 118079, Note_on_c, 9, 41, 0
1, 118079, Note_on_c, 9, 40, 0
1, 118080, Note_on_c, 9, 49, 64
1, 118080, Note_on_c, 9, 36, 95
1, 118093, Note_on_c, 9, 49, 0
1, 118559, Note_on_c, 9, 36, 0
1, 118560, Note_on_c, 9, 40, 120
1, 118560, Note_on_c, 9, 59, 64
1, 118566, Note_on_c, 9, 59, 0
1, 118799, Note_on_c, 9, 40, 0
1, 118800, Note_on_c, 9, 59, 64
1, 118800, Note_on_c, 9, 36, 95
1, 118806, Note_on_c, 9, 59, 0
1, 119039, Note_on_c, 9, 36, 0
1, 119040, Note_on_c, 9, 59, 64
1, 119046, Note_on_c, 9, 59, 0
1, 119280, Note_on_c, 9, 59, 64
1, 119280, Note_on_c, 9, 36, 95
1, 119286, Note_on_c, 9, 59, 0
1, 119519, Note_on_c, 9, 36, 0
1, 119520, Note_on_c, 9, 40, 120
1, 119520, Note_on_c, 9, 59, 64
1, 119526, Note_on_c, 9, 59, 0
1, 119759, Note_on_c, 9, 40, 0
1, 119760, Note_on_c, 9, 59, 64
1, 119766, Note_on_c, 9, 59, 0
1, 119880, Note_on_c, 9, 36, 95
1, 119999, Note_on_c, 9, 36, 0
1, 120000, Note_on_c, 9, 59, 64
1, 120000, Note_on_c, 9, 36, 95
1, 120006, Note_on_c, 9, 59, 0
1, 120240, Note_on_c, 9, 59, 64
1, 120246, Note_on_c, 9, 59, 0
1, 120479, Note_on_c, 9, 36, 0
1, 120480, Note_on_c, 9, 40, 120
1, 120480, Note_on_c, 9, 59, 64
1, 120482, Note_on_c, 9, 59, 0
1, 120599, Note_on_c, 9, 40, 0
1, 120600, Note_on_c, 9, 59, 64
1, 120602, Note_on_c, 9, 59, 0
1, 120720, Note_on_c, 9, 59, 64
1, 120720, Note_on_c, 9, 36, 95
1, 120726, Note_on_c, 9, 59, 0
1, 120959, Note_on_c, 9, 36, 0
1, 120960, Note_on_c, 9, 59, 64
1, 120966, Note_on_c, 9, 59, 0
1, 121200, Note_on_c, 9, 59, 64
1, 121206, Note_on_c, 9, 59, 0
1, 121440, Note_on_c, 9, 40, 120
1, 121440, Note_on_c, 9, 59, 64
1, 121442, Note_on_c, 9, 59, 0
1, 121559, Note_on_c, 9, 40, 0
1, 121560, Note_on_c, 9, 59, 64
1, 121562, Note_on_c, 9, 59, 0
1, 121680, Note_on_c, 9, 59, 64
1, 121686, Note_on_c, 9, 59, 0
1, 121800, Note_on_c, 9, 36, 95
1, 121919, Note_on_c, 9, 36, 0
1, 121920, Note_on_c, 9, 59, 64
1, 121920, Note_on_c, 9, 36, 95
1, 121922, Note_on_c, 9, 59, 0
1, 122040, Note_on_c, 9, 59, 64
1, 122042, Note_on_c, 9, 59, 0
1, 122160, Note_on_c, 9, 59, 64
1, 122166, Note_on_c, 9, 59, 0
1, 122399, Note_on_c, 9, 36, 0
1, 122400, Note_on_c, 9, 40, 120
1, 122400, Note_on_c, 9, 59, 64
1, 122402, Note_on_c, 9, 59, 0
1, 122519, Note_on_c, 9, 40, 0
1, 122520, Note_on_c, 9, 59, 64
1, 122522, Note_on_c, 9, 59, 0
1, 122640, Note_on_c, 9, 59, 64
1, 122640, Note_on_c, 9, 36, 95
1, 122646, Note_on_c, 9, 59, 0
1, 122879, Note_on_c, 9, 36, 0
1, 122880, Note_on_c, 9, 59, 64
1, 122882, Note_on_c, 9, 59, 0
1, 123000, Note_on_c, 9, 59, 64
1, 123002, Note_on_c, 9, 59, 0
1, 123120, Note_on_c, 9, 59, 64
1, 123120, Note_on_c, 9, 36, 95
1, 123126, Note_on_c, 9, 59, 0
1, 123359, Note_on_c, 9, 36, 0
1, 123360, Note_on_c, 9, 40, 120
1, 123360, Note_on_c, 9, 59, 64
1, 123362, Note_on_c, 9, 59, 0
1, 123479, Note_on_c, 9, 40, 0
1, 123480, Note_on_c, 9, 59, 64
1, 123482, Note_on_c, 9, 59, 0
1, 123600, Note_on_c, 9, 59, 64
1, 123606, Note_on_c, 9, 59, 0
1, 123720, Note_on_c, 9, 36, 95
1, 123839, Note_on_c, 9, 36, 0
1, 123840, Note_on_c, 9, 59, 64
1, 123840, Note_on_c, 9, 36, 95
1, 123842, Note_on_c, 9, 59, 0
1, 123960, Note_on_c, 9, 59, 64
1, 123962, Note_on_c, 9, 59, 0
1, 124079, Note_on_c, 9, 36, 0
1, 124080, Note_on_c, 9, 59, 64
1, 124080, Note_on_c, 9, 36, 95
1, 124086, Note_on_c, 9, 59, 0
1, 124319, Note_on_c, 9, 36, 0
1, 124320, Note_on_c, 9, 40, 120
1, 124320, Note_on_c, 9, 59, 64
1, 124326, Note_on_c, 9, 59, 0
1, 124559, Note_on_c, 9, 40, 0
1, 124560, Note_on_c, 9, 59, 64
1, 124560, Note_on_c, 9, 36, 95
1, 124566, Note_on_c, 9, 59, 0
1, 124799, Note_on_c, 9, 36, 0
1, 124800, Note_on_c, 9, 59, 64
1, 124802, Note_on_c, 9, 59, 0
1, 124920, Note_on_c, 9, 59, 64
1, 124922, Note_on_c, 9, 59, 0
1, 125040, Note_on_c, 9, 59, 64
1, 125040, Note_on_c, 9, 36, 95
1, 125046, Note_on_c, 9, 59, 0
1, 125159, Note_on_c, 9, 36, 0
1, 125160, Note_on_c, 9, 36, 95
1, 125279, Note_on_c, 9, 36, 0
1, 125280, Note_on_c, 9, 59, 64
1, 125286, Note_on_c, 9, 59, 0
1, 125520, Note_on_c, 9, 40, 120
1, 125639, Note_on_c, 9, 40, 0
1, 125640, Note_on_c, 9, 40, 120
1, 125759, Note_on_c, 9, 40, 0
1, 125760, Note_on_c, 9, 57, 64
1, 125760, Note_on_c, 9, 36, 95
1, 125773, Note_on_c, 9, 57, 0
1, 126239, Note_on_c, 9, 36, 0
1, 126240, Note_on_c, 9, 40, 120
1, 126240, Note_on_c, 9, 59, 64
1, 126242, Note_on_c, 9, 59, 0
1, 126359, Note_on_c, 9, 40, 0
1, 126360, Note_on_c, 9, 59, 64
1, 126362, Note_on_c, 9, 59, 0
1, 126480, Note_on_c, 9, 59, 64
1, 126480, Note_on_c, 9, 36, 95
1, 126486, Note_on_c, 9, 59, 0
1, 126719, Note_on_c, 9, 36, 0
1, 126720, Note_on_c, 9, 59, 64
1, 126720, Note_on_c, 9, 36, 95
1, 126726, Note_on_c, 9, 59, 0
1, 126960, Note_on_c, 9, 59, 64
1, 126966, Note_on_c, 9, 59, 0
1, 127199, Note_on_c, 9, 36, 0
1, 127200, Note_on_c, 9, 40, 120
1, 127200, Note_on_c, 9, 59, 64
1, 127206, Note_on_c, 9, 59, 0
1, 127439, Note_on_c, 9, 40, 0
1, 127440, Note_on_c, 9, 59, 64
1, 127446, Note_on_c, 9, 59, 0
1, 127560, Note_on_c, 9, 36, 95
1, 127679, Note_on_c, 9, 36, 0
1, 127680, Note_on_c, 9, 59, 64
1, 127680, Note_on_c, 9, 36, 95
1, 127686, Note_on_c, 9, 59, 0
1, 127920, Note_on_c, 9, 59, 64
1, 127926, Note_on_c, 9, 59, 0
1, 128159, Note_on_c, 9, 36, 0
1, 128160, Note_on_c, 9, 40, 120
1, 128160, Note_on_c, 9, 59, 64
1, 128166, Note_on_c, 9, 59, 0
1, 128399, Note_on_c, 9, 40, 0
1, 128400, Note_on_c, 9, 59, 64
1, 128400, Note_on_c, 9, 36, 95
1, 128406, Note_on_c, 9, 59, 0
1, 128639, Note_on_c, 9, 36, 0
1, 128640, Note_on_c, 9, 59, 64
1, 128646, Note_on_c, 9, 59, 0
1, 128880, Note_on_c, 9, 59, 64
1, 128886, Note_on_c, 9, 59, 0
1, 129120, Note_on_c, 9, 40, 120
1, 129120, Note_on_c, 9, 59, 64
1, 129126, Note_on_c, 9, 59, 0
1, 129359, Note_on_c, 9, 40, 0
1, 129360, Note_on_c, 9, 59, 64
1, 129366, Note_on_c, 9, 59, 0
1, 129480, Note_on_c, 9, 36, 95
1, 129599, Note_on_c, 9, 36, 0
1, 129600, Note_on_c, 9, 59, 64
1, 129600, Note_on_c, 9, 36, 95
1, 129602, Note_on_c, 9, 59, 0
1, 129720, Note_on_c, 9, 59, 64
1, 129722, Note_on_c, 9, 59, 0
1, 129840, Note_on_c, 9, 59, 64
1, 129846, Note_on_c, 9, 59, 0
1, 130079, Note_on_c, 9, 36, 0
1, 130080, Note_on_c, 9, 40, 120
1, 130080, Note_on_c, 9, 59, 64
1, 130086, Note_on_c, 9, 59, 0
1, 130319, Note_on_c, 9, 40, 0
1, 130320, Note_on_c, 9, 59, 64
1, 130320, Note_on_c, 9, 36, 95
1, 130326, Note_on_c, 9, 59, 0
1, 130559, Note_on_c, 9, 36, 0
1, 130560, Note_on_c, 9, 59, 64
1, 130566, Note_on_c, 9, 59, 0
1, 130800, Note_on_c, 9, 59, 64
1, 130806, Note_on_c, 9, 59, 0
1, 131040, Note_on_c, 9, 40, 120
1, 131040, Note_on_c, 9, 59, 64
1, 131042, Note_on_c, 9, 59, 0
1, 131159, Note_on_c, 9, 40, 0
1, 131160, Note_on_c, 9, 59, 64
1, 131162, Note_on_c, 9, 59, 0
1, 131280, Note_on_c, 9, 59, 64
1, 131286, Note_on_c, 9, 59, 0
1, 131520, Note_on_c, 9, 57, 64
1, 131520, Note_on_c, 9, 36, 95
1, 131526, Note_on_c, 9, 57, 0
1, 131759, Note_on_c, 9, 36, 0
1, 131760, Note_on_c, 9, 59, 64
1, 131760, Note_on_c, 9, 36, 95
1, 131766, Note_on_c, 9, 59, 0
1, 131999, Note_on_c, 9, 36, 0
1, 132000, Note_on_c, 9, 40, 120
1, 132000, Note_on_c, 9, 59, 64
1, 132006, Note_on_c, 9, 59, 0
1, 132239, Note_on_c, 9, 40, 0
1, 132240, Note_on_c, 9, 49, 64
1, 132240, Note_on_c, 9, 36, 95
1, 132246, Note_on_c, 9, 49, 0
1, 132479, Note_on_c, 9, 36, 0
1, 132480, Note_on_c, 9, 59, 64
1, 132482, Note_on_c, 9, 59, 0
1, 132600, Note_on_c, 9, 40, 120
1, 132719, Note_on_c, 9, 40, 0
1, 132720, Note_on_c, 9, 59, 64
1, 132726, Note_on_c, 9, 59, 0
1, 132840, Note_on_c, 9, 36, 95
1, 132959, Note_on_c, 9, 36, 0
1, 132960, Note_on_c, 9, 40, 120
1, 133199, Note_on_c, 9, 40, 0
1, 133200, Note_on_c, 9, 45, 90
1, 133319, Note_on_c, 9, 45, 0
1, 133320, Note_on_c, 9, 41, 90
1, 133439, Note_on_c, 9, 41, 0
1, 133440, Note_on_c, 9, 57, 64
1, 133440, Note_on_c, 9, 36, 95
1, 133446, Note_on_c, 9, 57, 0
1, 133680, Note_on_c, 9, 59, 64
1, 133686, Note_on_c, 9, 59, 0
1, 133919, Note_on_c, 9, 36, 0
1, 133920, Note_on_c, 9, 40, 120
1, 133920, Note_on_c, 9, 59, 64
1, 133926, Note_on_c, 9, 59, 0
1, 134159, Note_on_c, 9, 40, 0
1, 134160, Note_on_c, 9, 49, 64
1, 134160, Note_on_c, 9, 36, 95
1, 134166, Note_on_c, 9, 49, 0
1, 134399, Note_on_c, 9, 36, 0
1, 134400, Note_on_c, 9, 59, 64
1, 134406, Note_on_c, 9, 59, 0
1, 134640, Note_on_c, 9, 59, 64
1, 134646, Note_on_c, 9, 59, 0
1, 134880, Note_on_c, 9, 40, 120
1, 134880, Note_on_c, 9, 59, 64
1, 134886, Note_on_c, 9, 59, 0
1, 135119, Note_on_c, 9, 40, 0
1, 135120, Note_on_c, 9, 59, 64
1, 135126, Note_on_c, 9, 59, 0
1, 135240, Note_on_c, 9, 36, 95
1, 135359, Note_on_c, 9, 36, 0
1, 135360, Note_on_c, 9, 59, 64
1, 135360, Note_on_c, 9, 36, 95
1, 135366, Note_on_c, 9, 59, 0
1, 135600, Note_on_c, 9, 59, 64
1, 135606, Note_on_c, 9, 59, 0
1, 135839, Note_on_c, 9, 36, 0
1, 135840, Note_on_c, 9, 40, 120
1, 135840, Note_on_c, 9, 59, 64
1, 135846, Note_on_c, 9, 59, 0
1, 136079, Note_on_c, 9, 40, 0
1, 136080, Note_on_c, 9, 57, 64
1, 136080, Note_on_c, 9, 36, 95
1, 136086, Note_on_c, 9, 57, 0
1, 136319, Note_on_c, 9, 36, 0
1, 136320, Note_on_c, 9, 59, 64
1, 136326, Note_on_c, 9, 59, 0
1, 136560, Note_on_c, 9, 59, 64
1, 136560, Note_on_c, 9, 36, 95
1, 136566, Note_on_c, 9, 59, 0
1, 136799, Note_on_c, 9, 36, 0
1, 136800, Note_on_c, 9, 40, 120
1, 136800, Note_on_c, 9, 59, 64
1, 136806, Note_on_c, 9, 59, 0
1, 137039, Note_on_c, 9, 40, 0
1, 137040, Note_on_c, 9, 59, 64
1, 137046, Note_on_c, 9, 59, 0
1, 137280, Note_on_c, 9, 59, 64
1, 137280, Note_on_c, 9, 36, 95
1, 137286, Note_on_c, 9, 59, 0
1, 137520, Note_on_c, 9, 59, 64
1, 137526, Note_on_c, 9, 59, 0
1, 137639, Note_on_c, 9, 36, 0
1, 137640, Note_on_c, 9, 36, 95
1, 137759, Note_on_c, 9, 36, 0
1, 137760, Note_on_c, 9, 40, 120
1, 137760, Note_on_c, 9, 59, 64
1, 137766, Note_on_c, 9, 59, 0
1, 137999, Note_on_c, 9, 40, 0
1, 138000, Note_on_c, 9, 49, 64
1, 138000, Note_on_c, 9, 36, 95
1, 138006, Note_on_c, 9, 49, 0
1, 138239, Note_on_c, 9, 36, 0
1, 138240, Note_on_c, 9, 59, 64
1, 138242, Note_on_c, 9, 59, 0
1, 138360, Note_on_c, 9, 59, 64
1, 138362, Note_on_c, 9, 59, 0
1, 138480, Note_on_c, 9, 59, 64
1, 138480, Note_on_c, 9, 36, 95
1, 138486, Note_on_c, 9, 59, 0
1, 138719, Note_on_c, 9, 36, 0
1, 138720, Note_on_c, 9, 40, 120
1, 138720, Note_on_c, 9, 59, 64
1, 138726, Note_on_c, 9, 59, 0
1, 138959, Note_on_c, 9, 40, 0
1, 138960, Note_on_c, 9, 59, 64
1, 138966, Note_on_c, 9, 59, 0
1, 139200, Note_on_c, 9, 59, 64
1, 139200, Note_on_c, 9, 36, 95
1, 139206, Note_on_c, 9, 59, 0
1, 139439, Note_on_c, 9, 36, 0
1, 139440, Note_on_c, 9, 59, 64
1, 139440, Note_on_c, 9, 36, 95
1, 139446, Note_on_c, 9, 59, 0
1, 139679, Note_on_c, 9, 36, 0
1, 139680, Note_on_c, 9, 40, 120
1, 139680, Note_on_c, 9, 59, 64
1, 139680, Note_on_c, 9, 36, 95
1, 139686, Note_on_c, 9, 59, 0
1, 139919, Note_on_c, 9, 40, 0
1, 139919, Note_on_c, 9, 36, 0
1, 139920, Note_on_c, 9, 57, 64
1, 139920, Note_on_c, 9, 36, 95
1, 139926, Note_on_c, 9, 57, 0
1, 140159, Note_on_c, 9, 36, 0
1, 140160, Note_on_c, 9, 59, 64
1, 140166, Note_on_c, 9, 59, 0
1, 140400, Note_on_c, 9, 59, 64
1, 140400, Note_on_c, 9, 36, 95
1, 140406, Note_on_c, 9, 59, 0
1, 140519, Note_on_c, 9, 36, 0
1, 140520, Note_on_c, 9, 36, 95
1, 140639, Note_on_c, 9, 36, 0
1, 140640, Note_on_c, 9, 40, 120
1, 140640, Note_on_c, 9, 59, 64
1, 140646, Note_on_c, 9, 59, 0
1, 140879, Note_on_c, 9, 40, 0
1, 140880, Note_on_c, 9, 59, 64
1, 140886, Note_on_c, 9, 59, 0
1, 141120, Note_on_c, 9, 49, 64
1, 141120, Note_on_c, 9, 36, 95
1, 141126, Note_on_c, 9, 49, 0
1, 141360, Note_on_c, 9, 59, 64
1, 141366, Note_on_c, 9, 59, 0
1, 141599, Note_on_c, 9, 36, 0
1, 141600, Note_on_c, 9, 40, 120
1, 141600, Note_on_c, 9, 59, 64
1, 141606, Note_on_c, 9, 59, 0
1, 141839, Note_on_c, 9, 40, 0
1, 141840, Note_on_c, 9, 57, 64
1, 141840, Note_on_c, 9, 36, 95
1, 141846, Note_on_c, 9, 57, 0
1, 142079, Note_on_c, 9, 36, 0
1, 142080, Note_on_c, 9, 59, 64
1, 142086, Note_on_c, 9, 59, 0
1, 142320, Note_on_c, 9, 59, 64
1, 142320, Note_on_c, 9, 36, 95
1, 142326, Note_on_c, 9, 59, 0
1, 142559, Note_on_c, 9, 36, 0
1, 142560, Note_on_c, 9, 40, 120
1, 142560, Note_on_c, 9, 59, 64
1, 142566, Note_on_c, 9, 59, 0
1, 142799, Note_on_c, 9, 40, 0
1, 142800, Note_on_c, 9, 59, 64
1, 142806, Note_on_c, 9, 59, 0
1, 143040, Note_on_c, 9, 59, 64
1, 143040, Note_on_c, 9, 36, 95
1, 143046, Note_on_c, 9, 59, 0
1, 143280, Note_on_c, 9, 59, 64
1, 143286, Note_on_c, 9, 59, 0
1, 143519, Note_on_c, 9, 36, 0
1, 143520, Note_on_c, 9, 40, 120
1, 143520, Note_on_c, 9, 59, 64
1, 143526, Note_on_c, 9, 59, 0
1, 143759, Note_on_c, 9, 40, 0
1, 143760, Note_on_c, 9, 57, 64
1, 143760, Note_on_c, 9, 36, 95
1, 143766, Note_on_c, 9, 57, 0
1, 143999, Note_on_c, 9, 36, 0
1, 144000, Note_on_c, 9, 59, 64
1, 144006, Note_on_c, 9, 59, 0
1, 144240, Note_on_c, 9, 59, 64
1, 144240, Note_on_c, 9, 36, 95
1, 144246, Note_on_c, 9, 59, 0
1, 144479, Note_on_c, 9, 36, 0
1, 144480, Note_on_c, 9, 40, 120
1, 144480, Note_on_c, 9, 59, 64
1, 144486, Note_on_c, 9, 59, 0
1, 144719, Note_on_c, 9, 40, 0
1, 144720, Note_on_c, 9, 59, 64
1, 144726, Note_on_c, 9, 59, 0
1, 144840, Note_on_c, 9, 36, 95
1, 144959, Note_on_c, 9, 36, 0
1, 144960, Note_on_c, 9, 49, 64
1, 144960, Note_on_c, 9, 36, 95
1, 144966, Note_on_c, 9, 49, 0
1, 145200, Note_on_c, 9, 59, 64
1, 145206, Note_on_c, 9, 59, 0
1, 145439, Note_on_c, 9, 36, 0
1, 145440, Note_on_c, 9, 40, 120
1, 145440, Note_on_c, 9, 59, 64
1, 145446, Note_on_c, 9, 59, 0
1, 145679, Note_on_c, 9, 40, 0
1, 145680, Note_on_c, 9, 57, 64
1, 145680, Note_on_c, 9, 36, 95
1, 145686, Note_on_c, 9, 57, 0
1, 145919, Note_on_c, 9, 36, 0
1, 145920, Note_on_c, 9, 59, 64
1, 145926, Note_on_c, 9, 59, 0
1, 146160, Note_on_c, 9, 59, 64
1, 146160, Note_on_c, 9, 36, 95
1, 146166, Note_on_c, 9, 59, 0
1, 146399, Note_on_c, 9, 36, 0
1, 146400, Note_on_c, 9, 40, 120
1, 146400, Note_on_c, 9, 59, 64
1, 146402, Note_on_c, 9, 59, 0
1, 146519, Note_on_c, 9, 40, 0
1, 146520, Note_on_c, 9, 59, 64
1, 146522, Note_on_c, 9, 59, 0
1, 146640, Note_on_c, 9, 59, 64
1, 146646, Note_on_c, 9, 59, 0
1, 146880, Note_on_c, 9, 49, 64
1, 146880, Note_on_c, 9, 36, 95
1, 146886, Note_on_c, 9, 49, 0
1, 147119, Note_on_c, 9, 36, 0
1, 147120, Note_on_c, 9, 59, 64
1, 147120, Note_on_c, 9, 36, 95
1, 147126, Note_on_c, 9, 59, 0
1, 147359, Note_on_c, 9, 36, 0
1, 147360, Note_on_c, 9, 40, 120
1, 147360, Note_on_c, 9, 59, 64
1, 147366, Note_on_c, 9, 59, 0
1, 147599, Note_on_c, 9, 40, 0
1, 147600, Note_on_c, 9, 57, 64
1, 147600, Note_on_c, 9, 36, 95
1, 147606, Note_on_c, 9, 57, 0
1, 147839, Note_on_c, 9, 36, 0
1, 147840, Note_on_c, 9, 59, 64
1, 147842, Note_on_c, 9, 59, 0
1, 147960, Note_on_c, 9, 40, 120
1, 148079, Note_on_c, 9, 40, 0
1, 148080, Note_on_c, 9, 59, 64
1, 148086, Note_on_c, 9, 59, 0
1, 148200, Note_on_c, 9, 36, 95
1, 148319, Note_on_c, 9, 36, 0
1, 148320, Note_on_c, 9, 40, 120
1, 148559, Note_on_c, 9, 40, 0
1, 148560, Note_on_c, 9, 48, 98
1, 148679, Note_on_c, 9, 48, 0
1, 148680, Note_on_c, 9, 45, 90
1, 148799, Note_on_c, 9, 45, 0
1, 148800, Note_on_c, 9, 49, 64
1, 148800, Note_on_c, 9, 36, 95
1, 148806, Note_on_c, 9, 49, 0
1, 149040, Note_on_c, 9, 59, 64
1, 149046, Note_on_c, 9, 59, 0
1, 149279, Note_on_c, 9, 36, 0
1, 149280, Note_on_c, 9, 40, 120
1, 149280, Note_on_c, 9, 59, 64
1, 149286, Note_on_c, 9, 59, 0
1, 149519, Note_on_c, 9, 40, 0
1, 149520, Note_on_c, 9, 57, 64
1, 149520, Note_on_c, 9, 36, 95
1, 149526, Note_on_c, 9, 57, 0
1, 149759, Note_on_c, 9, 36, 0
1, 149760, Note_on_c, 9, 59, 64
1, 149766, Note_on_c, 9, 59, 0
1, 150000, Note_on_c, 9, 59, 64
1, 150000, Note_on_c, 9, 36, 95
1, 150006, Note_on_c, 9, 59, 0
1, 150239, Note_on_c, 9, 36, 0
1, 150240, Note_on_c, 9, 40, 120
1, 150240, Note_on_c, 9, 59, 64
1, 150246, Note_on_c, 9, 59, 0
1, 150479, Note_on_c, 9, 40, 0
1, 150480, Note_on_c, 9, 59, 64
1, 150486, Note_on_c, 9, 59, 0
1, 150720, Note_on_c, 9, 49, 64
1, 150720, Note_on_c, 9, 36, 95
1, 150726, Note_on_c, 9, 49, 0
1, 150960, Note_on_c, 9, 59, 64
1, 150966, Note_on_c, 9, 59, 0
1, 151199, Note_on_c, 9, 36, 0
1, 151200, Note_on_c, 9, 40, 120
1, 151200, Note_on_c, 9, 59, 64
1, 151206, Note_on_c, 9, 59, 0
1, 151439, Note_on_c, 9, 40, 0
1, 151440, Note_on_c, 9, 57, 64
1, 151440, Note_on_c, 9, 36, 95
1, 151446, Note_on_c, 9, 57, 0
1, 151679, Note_on_c, 9, 36, 0
1, 151680, Note_on_c, 9, 59, 64
1, 151686, Note_on_c, 9, 59, 0
1, 151920, Note_on_c, 9, 59, 64
1, 151920, Note_on_c, 9, 36, 95
1, 151926, Note_on_c, 9, 59, 0
1, 152039, Note_on_c, 9, 36, 0
1, 152040, Note_on_c, 9, 36, 95
1, 152159, Note_on_c, 9, 36, 0
1, 152160, Note_on_c, 9, 40, 120
1, 152160, Note_on_c, 9, 59, 64
1, 152166, Note_on_c, 9, 59, 0
1, 152399, Note_on_c, 9, 40, 0
1, 152400, Note_on_c, 9, 59, 64
1, 152406, Note_on_c, 9, 59, 0
1, 152640, Note_on_c, 9, 59, 64
1, 152640, Note_on_c, 9, 36, 95
1, 152646, Note_on_c, 9, 59, 0
1, 152880, Note_on_c, 9, 59, 64
1, 152886, Note_on_c, 9, 59, 0
1, 153119, Note_on_c, 9, 36, 0
1, 153120, Note_on_c, 9, 40, 120
1, 153120, Note_on_c, 9, 59, 64
1, 153126, Note_on_c, 9, 59, 0
1, 153359, Note_on_c, 9, 40, 0
1, 153360, Note_on_c, 9, 59, 64
1, 153360, Note_on_c, 9, 36, 95
1, 153366, Note_on_c, 9, 59, 0
1, 153599, Note_on_c, 9, 36, 0
1, 153600, Note_on_c, 9, 59, 64
1, 153606, Note_on_c, 9, 59, 0
1, 153840, Note_on_c, 9, 59, 64
1, 153840, Note_on_c, 9, 36, 95
1, 153846, Note_on_c, 9, 59, 0
1, 154079, Note_on_c, 9, 36, 0
1, 154080, Note_on_c, 9, 40, 120
1, 154080, Note_on_c, 9, 59, 64
1, 154082, Note_on_c, 9, 59, 0
1, 154199, Note_on_c, 9, 40, 0
1, 154200, Note_on_c, 9, 59, 64
1, 154202, Note_on_c, 9, 59, 0
1, 154320, Note_on_c, 9, 59, 64
1, 154326, Note_on_c, 9, 59, 0
1, 154560, Note_on_c, 9, 49, 64
1, 154560, Note_on_c, 9, 36, 95
1, 154566, Note_on_c, 9, 49, 0
1, 154799, Note_on_c, 9, 36, 0
1, 154800, Note_on_c, 9, 59, 64
1, 154800, Note_on_c, 9, 36, 95
1, 154806, Note_on_c, 9, 59, 0
1, 155039, Note_on_c, 9, 36, 0
1, 155040, Note_on_c, 9, 40, 120
1, 155040, Note_on_c, 9, 59, 64
1, 155046, Note_on_c, 9, 59, 0
1, 155279, Note_on_c, 9, 40, 0
1, 155280, Note_on_c, 9, 59, 64
1, 155286, Note_on_c, 9, 59, 0
1, 155520, Note_on_c, 9, 40, 120
1, 155599, Note_on_c, 9, 40, 0
1, 155600, Note_on_c, 9, 40, 120
1, 155679, Note_on_c, 9, 40, 0
1, 155680, Note_on_c, 9, 40, 120
1, 155759, Note_on_c, 9, 40, 0
1, 155760, Note_on_c, 9, 40, 120
1, 155839, Note_on_c, 9, 40, 0
1, 155840, Note_on_c, 9, 40, 120
1, 155919, Note_on_c, 9, 40, 0
1, 155920, Note_on_c, 9, 40, 120
1, 155999, Note_on_c, 9, 40, 0
1, 156000, Note_on_c, 9, 45, 120
1, 156079, Note_on_c, 9, 45, 0
1, 156080, Note_on_c, 9, 45, 120
1, 156159, Note_on_c, 9, 45, 0
1, 156160, Note_on_c, 9, 45, 120
1, 156239, Note_on_c, 9, 45, 0
1, 156240, Note_on_c, 9, 45, 120
1, 156319, Note_on_c, 9, 45, 0
1, 156320, Note_on_c, 9, 45, 120
1, 156399, Note_on_c, 9, 45, 0
1, 156400, Note_on_c, 9, 45, 120
1, 156479, Note_on_c, 9, 45, 0
1, 156480, Note_on_c, 9, 57, 64
1, 156480, Note_on_c, 9, 36, 95
1, 156486, Note_on_c, 9, 57, 0
1, 156720, Note_on_c, 9, 59, 64
1, 156726, Note_on_c, 9, 59, 0
1, 156959, Note_on_c, 9, 36, 0
1, 156960, Note_on_c, 9, 40, 120
1, 156960, Note_on_c, 9, 59, 64
1, 156966, Note_on_c, 9, 59, 0
1, 157199, Note_on_c, 9, 40, 0
1, 157200, Note_on_c, 9, 49, 64
1, 157200, Note_on_c, 9, 36, 95
1, 157206, Note_on_c, 9, 49, 0
1, 157439, Note_on_c, 9, 36, 0
1, 157440, Note_on_c, 9, 59, 64
1, 157446, Note_on_c, 9, 59, 0
1, 157680, Note_on_c, 9, 59, 64
1, 157680, Note_on_c, 9, 36, 95
1, 157682, Note_on_c, 9, 59, 0
1, 157800, Note_on_c, 9, 59, 64
1, 157802, Note_on_c, 9, 59, 0
1, 157919, Note_on_c, 9, 36, 0
1, 157920, Note_on_c, 9, 40, 120
1, 157920, Note_on_c, 9, 59, 64
1, 157926, Note_on_c, 9, 59, 0
1, 158159, Note_on_c, 9, 40, 0
1, 158160, Note_on_c, 9, 59, 64
1, 158166, Note_on_c, 9, 59, 0
1, 158280, Note_on_c, 9, 36, 95
1, 158399, Note_on_c, 9, 36, 0
1, 158400, Note_on_c, 9, 57, 64
1, 158400, Note_on_c, 9, 36, 95
1, 158406, Note_on_c, 9, 57, 0
1, 158640, Note_on_c, 9, 59, 64
1, 158642, Note_on_c, 9, 59, 0
1, 158760, Note_on_c, 9, 59, 64
1, 158762, Note_on_c, 9, 59, 0
1, 158879, Note_on_c, 9, 36, 0
1, 158880, Note_on_c, 9, 40, 120
1, 158880, Note_on_c, 9, 59, 64
1, 158886, Note_on_c, 9, 59, 0
1, 159119, Note_on_c, 9, 40, 0
1, 159120, Note_on_c, 9, 49, 64
1, 159120, Note_on_c, 9, 36, 95
1, 159126, Note_on_c, 9, 49, 0
1, 159359, Note_on_c, 9, 36, 0
1, 159360, Note_on_c, 9, 59, 64
1, 159362, Note_on_c, 9, 59, 0
1, 159480, Note_on_c, 9, 59, 64
1, 159482, Note_on_c, 9, 59, 0
1, 159600, Note_on_c, 9, 59, 64
1, 159600, Note_on_c, 9, 36, 95
1, 159606, Note_on_c, 9, 59, 0
1, 159839, Note_on_c, 9, 36, 0
1, 159840, Note_on_c, 9, 40, 120
1, 159840, Note_on_c, 9, 59, 64
1, 159846, Note_on_c, 9, 59, 0
1, 160079, Note_on_c, 9, 40, 0
1, 160080, Note_on_c, 9, 59, 64
1, 160086, Note_on_c, 9, 59, 0
1, 160200, Note_on_c, 9, 36, 95
1, 160319, Note_on_c, 9, 36, 0
1, 160320, Note_on_c, 9, 57, 64
1, 160320, Note_on_c, 9, 36, 95
1, 160326, Note_on_c, 9, 57, 0
1, 160560, Note_on_c, 9, 59, 64
1, 160566, Note_on_c, 9, 59, 0
1, 160799, Note_on_c, 9, 36, 0
1, 160800, Note_on_c, 9, 40, 120
1, 160800, Note_on_c, 9, 59, 64
1, 160806, Note_on_c, 9, 59, 0
1, 161039, Note_on_c, 9, 40, 0
1, 161040, Note_on_c, 9, 49, 64
1, 161040, Note_on_c, 9, 36, 95
1, 161046, Note_on_c, 9, 49, 0
1, 161279, Note_on_c, 9, 36, 0
1, 161280, Note_on_c, 9, 59, 64
1, 161286, Note_on_c, 9, 59, 0
1, 161520, Note_on_c, 9, 59, 64
1, 161520, Note_on_c, 9, 36, 95
1, 161526, Note_on_c, 9, 59, 0
1, 161759, Note_on_c, 9, 36, 0
1, 161760, Note_on_c, 9, 40, 120
1, 161760, Note_on_c, 9, 59, 64
1, 161766, Note_on_c, 9, 59, 0
1, 161999, Note_on_c, 9, 40, 0
1, 162000, Note_on_c, 9, 59, 64
1, 162006, Note_on_c, 9, 59, 0
1, 162240, Note_on_c, 9, 57, 64
1, 162240, Note_on_c, 9, 36, 95
1, 162246, Note_on_c, 9, 57, 0
1, 162479, Note_on_c, 9, 36, 0
1, 162480, Note_on_c, 9, 49, 64
1, 162480, Note_on_c, 9, 36, 95
1, 162486, Note_on_c, 9, 49, 0
1, 162719, Note_on_c, 9, 36, 0
1, 162720, Note_on_c, 9, 57, 64
1, 162720, Note_on_c, 9, 36, 95
1, 162726, Note_on_c, 9, 57, 0
1, 162959, Note_on_c, 9, 36, 0
1, 162960, Note_on_c, 9, 49, 64
1, 162960, Note_on_c, 9, 36, 95
1, 162966, Note_on_c, 9, 49, 0
1, 163199, Note_on_c, 9, 36, 0
1, 164160, Note_on_c, 9, 36, 80
1, 164519, Note_on_c, 9, 36, 0
1, 164520, Note_on_c, 9, 36, 69
1, 164639, Note_on_c, 9, 36, 0
1, 164640, Note_on_c, 9, 36, 95
1, 164760, Note_on_c, 9, 51, 75
1, 164762, Note_on_c, 9, 51, 0
1, 164880, Note_on_c, 9, 51, 75
1, 164886, Note_on_c, 9, 51, 0
1, 165119, Note_on_c, 9, 36, 0
1, 165120, Note_on_c, 9, 36, 80
1, 165479, Note_on_c, 9, 36, 0
1, 165480, Note_on_c, 9, 36, 69
1, 165599, Note_on_c, 9, 36, 0
1, 165600, Note_on_c, 9, 36, 95
1, 165720, Note_on_c, 9, 51, 75
1, 165722, Note_on_c, 9, 51, 0
1, 165840, Note_on_c, 9, 51, 75
1, 165846, Note_on_c, 9, 51, 0
1, 166079, Note_on_c, 9, 36, 0
1, 166080, Note_on_c, 9, 36, 80
1, 166439, Note_on_c, 9, 36, 0
1, 166440, Note_on_c, 9, 36, 69
1, 166559, Note_on_c, 9, 36, 0
1, 166560, Note_on_c, 9, 36, 95
1, 166680, Note_on_c, 9, 51, 75
1, 166682, Note_on_c, 9, 51, 0
1, 166800, Note_on_c, 9, 51, 75
1, 166806, Note_on_c, 9, 51, 0
1, 167039, Note_on_c, 9, 36, 0
1, 167040, Note_on_c, 9, 36, 80
1, 167399, Note_on_c, 9, 36, 0
1, 167400, Note_on_c, 9, 36, 69
1, 167519, Note_on_c, 9, 36, 0
1, 167520, Note_on_c, 9, 36, 95
1, 167640, Note_on_c, 9, 51, 75
1, 167642, Note_on_c, 9, 51, 0
1, 167760, Note_on_c, 9, 51, 75
1, 167766, Note_on_c, 9, 51, 0
1, 167999, Note_on_c, 9, 36, 0
1, 168000, Tempo, 789474
1, 168000, Note_on_c, 9, 36, 80
1, 168060, Tempo, 810811
1, 168240, Tempo, 833333
1, 168359, Note_on_c, 9, 36, 0
1, 168360, Note_on_c, 9, 36, 69
1, 168440, Tempo, 857143
1, 168479, Note_on_c, 9, 36, 0
1, 168480, Note_on_c, 9, 36, 95
1, 168600, Note_on_c, 9, 51, 75
1, 168602, Note_on_c, 9, 51, 0
1, 168640, Tempo, 882353
1, 168720, Note_on_c, 9, 51, 75
1, 168725, Note_on_c, 9, 51, 0
1, 168820, Tempo, 909091
1, 168959, Note_on_c, 9, 36, 0
1, 168960, Note_on_c, 9, 36, 80
1, 169020, Tempo, 937500
1, 169220, Tempo, 967742
1, 169319, Note_on_c, 9, 36, 0
1, 169320, Note_on_c, 9, 36, 69
1, 169400, Tempo, 1000000
1, 169439, Note_on_c, 9, 36, 0
1, 169440, Note_on_c, 9, 36, 95
1, 169560, Note_on_c, 9, 51, 75
1, 169561, Note_on_c, 9, 51, 0
1, 169600, Tempo, 1034483
1, 169680, Note_on_c, 9, 51, 75
1, 169684, Note_on_c, 9, 51, 0
1, 169780, Tempo, 1071429
1, 169919, Note_on_c, 9, 36, 0
1, 169920, Note_on_c, 9, 36, 80
1, 169980, Tempo, 1111111
1, 170180, Tempo, 1153846
1, 170279, Note_on_c, 9, 36, 0
1, 170280, Note_on_c, 9, 36, 69
1, 170360, Tempo, 1200000
1, 170399, Note_on_c, 9, 36, 0
1, 170400, Note_on_c, 9, 51, 75
1, 170400, Note_on_c, 9, 36, 95
1, 170401, Note_on_c, 9, 51, 0
1, 170520, Note_on_c, 9, 51, 75
1, 170521, Note_on_c, 9, 51, 0
1, 170560, Tempo, 1250000
1, 170640, Note_on_c, 9, 51, 75
1, 170643, Note_on_c, 9, 51, 0
1, 170740, Tempo, 1304348
1, 170820, Tempo, 3000000
1, 170879, Note_on_c, 9, 36, 0
1, 170880, Note_on_c, 9, 46, 120
1, 170880, Note_on_c, 9, 46, 0
1, 170910, Note_on_c, 9, 46, 120
1, 170910, Note_on_c, 9, 46, 0
1, 170940, Note_on_c, 9, 46, 120
1, 170940, Note_on_c, 9, 46, 0
1, 170970, Note_on_c, 9, 46, 120
1, 170970, Note_on_c, 9, 46, 0
1, 171000, Note_on_c, 9, 46, 120
1, 171000, Note_on_c, 9, 46, 0
1, 171030, Note_on_c, 9, 46, 120
1, 171030, Note_on_c, 9, 46, 0
1, 171060, Note_on_c, 9, 46, 120
1, 171060, Note_on_c, 9, 46, 0
1, 171090, Note_on_c, 9, 46, 120
1, 171090, Note_on_c, 9, 46, 0
1, 171120, Note_on_c, 9, 46, 120
1, 171120, Note_on_c, 9, 46, 0
1, 171150, Note_on_c, 9, 46, 120
1, 171150, Note_on_c, 9, 46, 0
1, 171180, Note_on_c, 9, 46, 120
1, 171180, Note_on_c, 9, 46, 0
1, 171210, Note_on_c, 9, 46, 120
1, 171210, Note_on_c, 9, 46, 0
1, 171240, Note_on_c, 9, 46, 120
1, 171240, Note_on_c, 9, 46, 0
1, 171270, Note_on_c, 9, 46, 120
1, 171270, Note_on_c, 9, 46, 0
1, 171300, Note_on_c, 9, 46, 120
1, 171300, Note_on_c, 9, 46, 0
1, 171330, Note_on_c, 9, 46, 120
1, 171330, Note_on_c, 9, 46, 0
1, 171360, Note_on_c, 9, 46, 120
1, 171360, Note_on_c, 9, 46, 0
1, 171390, Note_on_c, 9, 46, 120
1, 171390, Note_on_c, 9, 46, 0
1, 171420, Note_on_c, 9, 46, 120
1, 171420, Note_on_c, 9, 46, 0
1, 171450, Note_on_c, 9, 46, 120
1, 171450, Note_on_c, 9, 46, 0
1, 171480, Note_on_c, 9, 46, 120
1, 171480, Note_on_c, 9, 46, 0
1, 171510, Note_on_c, 9, 46, 120
1, 171510, Note_on_c, 9, 46, 0
1, 171540, Note_on_c, 9, 46, 120
1, 171540, Note_on_c, 9, 46, 0
1, 171570, Note_on_c, 9, 46, 120
1, 171570, Note_on_c, 9, 46, 0
1, 171600, Note_on_c, 9, 46, 120
1, 171600, Note_on_c, 9, 46, 0
1, 171630, Note_on_c, 9, 46, 120
1, 171630, Note_on_c, 9, 46, 0
1, 171660, Note_on_c, 9, 46, 120
1, 171660, Note_on_c, 9, 46, 0
1, 171690, Note_on_c, 9, 46, 120
1, 171690, Note_on_c, 9, 46, 0
1, 171720, Note_on_c, 9, 46, 120
1, 171720, Note_on_c, 9, 46, 0
1, 171750, Note_on_c, 9, 46, 120
1, 171750, Note_on_c, 9, 46, 0
1, 171751, End_track
0, 0, End_of_file
